{
  "track_name": "05 - Stages 4, 6",
  "duration_sec": 141.401,
  "sample_rate": 44100,
  "note_count": 3002,
  "unique_pitches": 45,
  "pitch_range": 66,
  "avg_note_duration": 0.2301,
  "reconstruction_stats": {
    "notes_reconstructed": 3002,
    "keyon_events": 3002,
    "keyoff_events": 2997,
    "orphan_keyons": 5,
    "unique_pitches": 45,
    "pitch_range": 66,
    "avg_duration_sec": 0.2301
  },
  "metadata": {
    "source": "T\\Time Trax\\05 - Stages 4, 6.vgz"
  },
  "notes": [
    {
      "channel": 0,
      "note": 55,
      "start": 0.1081,
      "duration": 0.0704,
      "velocity": 102,
      "chip": "ym2612"
    },
    {
      "channel": 1,
      "note": 80,
      "start": 0.1147,
      "duration": 0.0641,
      "velocity": 127,
      "chip": "ym2612"
    },
    {
      "channel": 2,
      "note": 21,
      "start": 0.1161,
      "duration": 1.9281,
      "velocity": 101,
      "chip": "ym2612"
    },
    {
      "channel": 3,
      "note": 67,
      "start": 0.1176,
      "duration": 0.0614,
      "velocity": 100,
      "chip": "ym2612"
    },
    {
      "channel": 4,
      "note": 87,
      "start": 0.1204,
      "duration": 0.0229,
      "velocity": 127,
      "chip": "ym2612"
    },
    {
      "channel": 4,
      "note": 87,
      "start": 0.1433,
      "duration": 0.0232,
      "velocity": 127,
      "chip": "ym2612"
    },
    {
      "channel": 4,
      "note": 87,
      "start": 0.1666,
      "duration": 0.0245,
      "velocity": 127,
      "chip": "ym2612"
    },
    {
      "channel": 0,
      "note": 57,
      "start": 0.1786,
      "duration": 0.0659,
      "velocity": 102,
      "chip": "ym2612"
    },
    {
      "channel": 1,
      "note": 80,
      "start": 0.1788,
      "duration": 0.03,
      "velocity": 127,
      "chip": "ym2612"
    },
    {
      "channel": 3,
      "note": 69,
      "start": 0.1791,
      "duration": 0.0591,
      "velocity": 100,
      "chip": "ym2612"
    },
    {
      "channel": 4,
      "note": 87,
      "start": 0.1911,
      "duration": 0.0236,
      "velocity": 127,
      "chip": "ym2612"
    },
    {
      "channel": 1,
      "note": 80,
      "start": 0.2089,
      "duration": 0.0291,
      "velocity": 127,
      "chip": "ym2612"
    },
    {
      "channel": 4,
      "note": 87,
      "start": 0.2148,
      "duration": 0.0284,
      "velocity": 127,
      "chip": "ym2612"
    },
    {
      "channel": 1,
      "note": 80,
      "start": 0.2381,
      "duration": 0.0602,
      "velocity": 127,
      "chip": "ym2612"
    },
    {
      "channel": 3,
      "note": 69,
      "start": 0.2382,
      "duration": 0.0063,
      "velocity": 100,
      "chip": "ym2612"
    },
    {
      "channel": 4,
      "note": 87,
      "start": 0.2433,
      "duration": 0.0191,
      "velocity": 127,
      "chip": "ym2612"
    },
    {
      "channel": 4,
      "note": 87,
      "start": 0.2624,
      "duration": 0.0236,
      "velocity": 127,
      "chip": "ym2612"
    },
    {
      "channel": 4,
      "note": 87,
      "start": 0.2861,
      "duration": 0.024,
      "velocity": 127,
      "chip": "ym2612"
    },
    {
      "channel": 0,
      "note": 55,
      "start": 0.2982,
      "duration": 0.0599,
      "velocity": 102,
      "chip": "ym2612"
    },
    {
      "channel": 1,
      "note": 80,
      "start": 0.2984,
      "duration": 0.0294,
      "velocity": 127,
      "chip": "ym2612"
    },
    {
      "channel": 3,
      "note": 67,
      "start": 0.3035,
      "duration": 0.0598,
      "velocity": 100,
      "chip": "ym2612"
    },
    {
      "channel": 4,
      "note": 87,
      "start": 0.3101,
      "duration": 0.0239,
      "velocity": 127,
      "chip": "ym2612"
    },
    {
      "channel": 1,
      "note": 80,
      "start": 0.3279,
      "duration": 0.0304,
      "velocity": 127,
      "chip": "ym2612"
    },
    {
      "channel": 4,
      "note": 87,
      "start": 0.334,
      "duration": 0.0295,
      "velocity": 127,
      "chip": "ym2612"
    },
    {
      "channel": 0,
      "note": 57,
      "start": 0.3582,
      "duration": 0.0412,
      "velocity": 102,
      "chip": "ym2612"
    },
    {
      "channel": 1,
      "note": 80,
      "start": 0.3583,
      "duration": 0.0597,
      "velocity": 127,
      "chip": "ym2612"
    },
    {
      "channel": 3,
      "note": 69,
      "start": 0.3633,
      "duration": 0.1146,
      "velocity": 100,
      "chip": "ym2612"
    },
    {
      "channel": 4,
      "note": 87,
      "start": 0.3635,
      "duration": 0.715,
      "velocity": 127,
      "chip": "ym2612"
    },
    {
      "channel": 0,
      "note": 49,
      "start": 0.4178,
      "duration": 0.1192,
      "velocity": 102,
      "chip": "ym2612"
    },
    {
      "channel": 1,
      "note": 80,
      "start": 0.418,
      "duration": 0.0306,
      "velocity": 127,
      "chip": "ym2612"
    },
    {
      "channel": 1,
      "note": 80,
      "start": 0.4486,
      "duration": 0.0291,
      "velocity": 127,
      "chip": "ym2612"
    },
    {
      "channel": 1,
      "note": 80,
      "start": 0.4778,
      "duration": 0.0594,
      "velocity": 127,
      "chip": "ym2612"
    },
    {
      "channel": 3,
      "note": 67,
      "start": 0.478,
      "duration": 0.0297,
      "velocity": 100,
      "chip": "ym2612"
    },
    {
      "channel": 0,
      "note": 50,
      "start": 0.5371,
      "duration": 0.1182,
      "velocity": 102,
      "chip": "ym2612"
    },
    {
      "channel": 1,
      "note": 80,
      "start": 0.5372,
      "duration": 0.0296,
      "velocity": 127,
      "chip": "ym2612"
    },
    {
      "channel": 3,
      "note": 63,
      "start": 0.5424,
      "duration": 0.1134,
      "velocity": 100,
      "chip": "ym2612"
    },
    {
      "channel": 1,
      "note": 80,
      "start": 0.5669,
      "duration": 0.0299,
      "velocity": 127,
      "chip": "ym2612"
    },
    {
      "channel": 1,
      "note": 80,
      "start": 0.5968,
      "duration": 0.0587,
      "velocity": 127,
      "chip": "ym2612"
    },
    {
      "channel": 0,
      "note": 52,
      "start": 0.6553,
      "duration": 0.0592,
      "velocity": 102,
      "chip": "ym2612"
    },
    {
      "channel": 1,
      "note": 80,
      "start": 0.6556,
      "duration": 0.0299,
      "velocity": 127,
      "chip": "ym2612"
    },
    {
      "channel": 3,
      "note": 64,
      "start": 0.6558,
      "duration": 0.0356,
      "velocity": 100,
      "chip": "ym2612"
    },
    {
      "channel": 1,
      "note": 80,
      "start": 0.6855,
      "duration": 0.0292,
      "velocity": 127,
      "chip": "ym2612"
    },
    {
      "channel": 0,
      "note": 55,
      "start": 0.7145,
      "duration": 0.0368,
      "velocity": 102,
      "chip": "ym2612"
    },
    {
      "channel": 1,
      "note": 80,
      "start": 0.7147,
      "duration": 0.0611,
      "velocity": 127,
      "chip": "ym2612"
    },
    {
      "channel": 3,
      "note": 67,
      "start": 0.7198,
      "duration": 0.0611,
      "velocity": 100,
      "chip": "ym2612"
    },
    {
      "channel": 0,
      "note": 50,
      "start": 0.7757,
      "duration": 0.1179,
      "velocity": 102,
      "chip": "ym2612"
    },
    {
      "channel": 1,
      "note": 80,
      "start": 0.7759,
      "duration": 0.0295,
      "velocity": 127,
      "chip": "ym2612"
    },
    {
      "channel": 3,
      "note": 63,
      "start": 0.781,
      "duration": 0.1131,
      "velocity": 100,
      "chip": "ym2612"
    },
    {
      "channel": 1,
      "note": 80,
      "start": 0.8055,
      "duration": 0.0299,
      "velocity": 127,
      "chip": "ym2612"
    },
    {
      "channel": 1,
      "note": 80,
      "start": 0.8354,
      "duration": 0.0584,
      "velocity": 127,
      "chip": "ym2612"
    },
    {
      "channel": 0,
      "note": 52,
      "start": 0.8937,
      "duration": 0.0594,
      "velocity": 102,
      "chip": "ym2612"
    },
    {
      "channel": 1,
      "note": 80,
      "start": 0.8939,
      "duration": 0.03,
      "velocity": 127,
      "chip": "ym2612"
    },
    {
      "channel": 3,
      "note": 64,
      "start": 0.8941,
      "duration": 0.036,
      "velocity": 100,
      "chip": "ym2612"
    },
    {
      "channel": 1,
      "note": 80,
      "start": 0.924,
      "duration": 0.0292,
      "velocity": 127,
      "chip": "ym2612"
    },
    {
      "channel": 0,
      "note": 55,
      "start": 0.9531,
      "duration": 0.0366,
      "velocity": 102,
      "chip": "ym2612"
    },
    {
      "channel": 1,
      "note": 80,
      "start": 0.9533,
      "duration": 0.0612,
      "velocity": 127,
      "chip": "ym2612"
    },
    {
      "channel": 3,
      "note": 67,
      "start": 0.9584,
      "duration": 0.0612,
      "velocity": 100,
      "chip": "ym2612"
    },
    {
      "channel": 0,
      "note": 52,
      "start": 1.0143,
      "duration": 0.0589,
      "velocity": 102,
      "chip": "ym2612"
    },
    {
      "channel": 1,
      "note": 80,
      "start": 1.0145,
      "duration": 0.0288,
      "velocity": 127,
      "chip": "ym2612"
    },
    {
      "channel": 3,
      "note": 64,
      "start": 1.0196,
      "duration": 0.018,
      "velocity": 100,
      "chip": "ym2612"
    },
    {
      "channel": 1,
      "note": 80,
      "start": 1.0434,
      "duration": 0.03,
      "velocity": 127,
      "chip": "ym2612"
    },
    {
      "channel": 0,
      "note": 55,
      "start": 1.0733,
      "duration": 0.0589,
      "velocity": 102,
      "chip": "ym2612"
    },
    {
      "channel": 1,
      "note": 80,
      "start": 1.0735,
      "duration": 0.0589,
      "velocity": 127,
      "chip": "ym2612"
    },
    {
      "channel": 3,
      "note": 67,
      "start": 1.0785,
      "duration": 0.0541,
      "velocity": 100,
      "chip": "ym2612"
    },
    {
      "channel": 4,
      "note": 87,
      "start": 1.0786,
      "duration": 0.0187,
      "velocity": 127,
      "chip": "ym2612"
    },
    {
      "channel": 4,
      "note": 87,
      "start": 1.0973,
      "duration": 0.0229,
      "velocity": 127,
      "chip": "ym2612"
    },
    {
      "channel": 4,
      "note": 87,
      "start": 1.1203,
      "duration": 0.0245,
      "velocity": 127,
      "chip": "ym2612"
    },
    {
      "channel": 0,
      "note": 57,
      "start": 1.1322,
      "duration": 0.0662,
      "velocity": 102,
      "chip": "ym2612"
    },
    {
      "channel": 1,
      "note": 80,
      "start": 1.1325,
      "duration": 0.0302,
      "velocity": 127,
      "chip": "ym2612"
    },
    {
      "channel": 3,
      "note": 69,
      "start": 1.1327,
      "duration": 0.0596,
      "velocity": 100,
      "chip": "ym2612"
    },
    {
      "channel": 4,
      "note": 87,
      "start": 1.1448,
      "duration": 0.024,
      "velocity": 127,
      "chip": "ym2612"
    },
    {
      "channel": 1,
      "note": 80,
      "start": 1.1627,
      "duration": 0.0294,
      "velocity": 127,
      "chip": "ym2612"
    },
    {
      "channel": 4,
      "note": 87,
      "start": 1.1689,
      "duration": 0.0285,
      "velocity": 127,
      "chip": "ym2612"
    },
    {
      "channel": 1,
      "note": 80,
      "start": 1.1922,
      "duration": 0.0603,
      "velocity": 127,
      "chip": "ym2612"
    },
    {
      "channel": 3,
      "note": 69,
      "start": 1.1924,
      "duration": 0.0061,
      "velocity": 100,
      "chip": "ym2612"
    },
    {
      "channel": 4,
      "note": 87,
      "start": 1.1975,
      "duration": 0.0187,
      "velocity": 127,
      "chip": "ym2612"
    },
    {
      "channel": 4,
      "note": 87,
      "start": 1.2162,
      "duration": 0.0238,
      "velocity": 127,
      "chip": "ym2612"
    },
    {
      "channel": 4,
      "note": 87,
      "start": 1.24,
      "duration": 0.0243,
      "velocity": 127,
      "chip": "ym2612"
    },
    {
      "channel": 0,
      "note": 55,
      "start": 1.2523,
      "duration": 0.0591,
      "velocity": 102,
      "chip": "ym2612"
    },
    {
      "channel": 1,
      "note": 80,
      "start": 1.2525,
      "duration": 0.029,
      "velocity": 127,
      "chip": "ym2612"
    },
    {
      "channel": 3,
      "note": 67,
      "start": 1.2576,
      "duration": 0.0592,
      "velocity": 100,
      "chip": "ym2612"
    },
    {
      "channel": 4,
      "note": 87,
      "start": 1.2644,
      "duration": 0.0229,
      "velocity": 127,
      "chip": "ym2612"
    },
    {
      "channel": 1,
      "note": 80,
      "start": 1.2815,
      "duration": 0.03,
      "velocity": 127,
      "chip": "ym2612"
    },
    {
      "channel": 4,
      "note": 87,
      "start": 1.2874,
      "duration": 0.0295,
      "velocity": 127,
      "chip": "ym2612"
    },
    {
      "channel": 0,
      "note": 57,
      "start": 1.3115,
      "duration": 0.0417,
      "velocity": 102,
      "chip": "ym2612"
    },
    {
      "channel": 1,
      "note": 80,
      "start": 1.3116,
      "duration": 0.0599,
      "velocity": 127,
      "chip": "ym2612"
    },
    {
      "channel": 3,
      "note": 69,
      "start": 1.3167,
      "duration": 0.1151,
      "velocity": 100,
      "chip": "ym2612"
    },
    {
      "channel": 4,
      "note": 87,
      "start": 1.3169,
      "duration": 0.7286,
      "velocity": 127,
      "chip": "ym2612"
    },
    {
      "channel": 0,
      "note": 49,
      "start": 1.3712,
      "duration": 0.1198,
      "velocity": 102,
      "chip": "ym2612"
    },
    {
      "channel": 1,
      "note": 80,
      "start": 1.3715,
      "duration": 0.0302,
      "velocity": 127,
      "chip": "ym2612"
    },
    {
      "channel": 1,
      "note": 80,
      "start": 1.4018,
      "duration": 0.0298,
      "velocity": 127,
      "chip": "ym2612"
    },
    {
      "channel": 1,
      "note": 80,
      "start": 1.4316,
      "duration": 0.0596,
      "velocity": 127,
      "chip": "ym2612"
    },
    {
      "channel": 3,
      "note": 67,
      "start": 1.4318,
      "duration": 0.0293,
      "velocity": 100,
      "chip": "ym2612"
    },
    {
      "channel": 0,
      "note": 50,
      "start": 1.4911,
      "duration": 0.1171,
      "velocity": 102,
      "chip": "ym2612"
    },
    {
      "channel": 1,
      "note": 80,
      "start": 1.4912,
      "duration": 0.0293,
      "velocity": 127,
      "chip": "ym2612"
    },
    {
      "channel": 3,
      "note": 63,
      "start": 1.4963,
      "duration": 0.1123,
      "velocity": 100,
      "chip": "ym2612"
    },
    {
      "channel": 1,
      "note": 80,
      "start": 1.5205,
      "duration": 0.0295,
      "velocity": 127,
      "chip": "ym2612"
    },
    {
      "channel": 1,
      "note": 80,
      "start": 1.55,
      "duration": 0.0584,
      "velocity": 127,
      "chip": "ym2612"
    },
    {
      "channel": 0,
      "note": 52,
      "start": 1.6082,
      "duration": 0.06,
      "velocity": 102,
      "chip": "ym2612"
    },
    {
      "channel": 1,
      "note": 80,
      "start": 1.6085,
      "duration": 0.0301,
      "velocity": 127,
      "chip": "ym2612"
    },
    {
      "channel": 3,
      "note": 64,
      "start": 1.6086,
      "duration": 0.036,
      "velocity": 100,
      "chip": "ym2612"
    },
    {
      "channel": 1,
      "note": 80,
      "start": 1.6386,
      "duration": 0.0298,
      "velocity": 127,
      "chip": "ym2612"
    },
    {
      "channel": 0,
      "note": 55,
      "start": 1.6683,
      "duration": 0.0361,
      "velocity": 102,
      "chip": "ym2612"
    },
    {
      "channel": 1,
      "note": 80,
      "start": 1.6684,
      "duration": 0.0607,
      "velocity": 127,
      "chip": "ym2612"
    },
    {
      "channel": 3,
      "note": 67,
      "start": 1.6736,
      "duration": 0.0607,
      "velocity": 100,
      "chip": "ym2612"
    },
    {
      "channel": 0,
      "note": 50,
      "start": 1.729,
      "duration": 0.1197,
      "velocity": 102,
      "chip": "ym2612"
    },
    {
      "channel": 1,
      "note": 80,
      "start": 1.7291,
      "duration": 0.0296,
      "velocity": 127,
      "chip": "ym2612"
    },
    {
      "channel": 3,
      "note": 63,
      "start": 1.7344,
      "duration": 0.1208,
      "velocity": 100,
      "chip": "ym2612"
    },
    {
      "channel": 1,
      "note": 80,
      "start": 1.7587,
      "duration": 0.0308,
      "velocity": 127,
      "chip": "ym2612"
    },
    {
      "channel": 1,
      "note": 75,
      "start": 1.7896,
      "duration": 0.0605,
      "velocity": 127,
      "chip": "ym2612"
    },
    {
      "channel": 0,
      "note": 52,
      "start": 1.8488,
      "duration": 0.0612,
      "velocity": 102,
      "chip": "ym2612"
    },
    {
      "channel": 1,
      "note": 80,
      "start": 1.8501,
      "duration": 0.0611,
      "velocity": 127,
      "chip": "ym2612"
    },
    {
      "channel": 3,
      "note": 64,
      "start": 1.8553,
      "duration": 0.0309,
      "velocity": 100,
      "chip": "ym2612"
    },
    {
      "channel": 0,
      "note": 55,
      "start": 1.91,
      "duration": 0.0394,
      "velocity": 102,
      "chip": "ym2612"
    },
    {
      "channel": 1,
      "note": 75,
      "start": 1.9113,
      "duration": 0.0316,
      "velocity": 127,
      "chip": "ym2612"
    },
    {
      "channel": 3,
      "note": 67,
      "start": 1.9166,
      "duration": 0.0644,
      "velocity": 100,
      "chip": "ym2612"
    },
    {
      "channel": 1,
      "note": 80,
      "start": 1.943,
      "duration": 0.0328,
      "velocity": 127,
      "chip": "ym2612"
    },
    {
      "channel": 0,
      "note": 52,
      "start": 1.9741,
      "duration": 0.0631,
      "velocity": 102,
      "chip": "ym2612"
    },
    {
      "channel": 1,
      "note": 75,
      "start": 1.9758,
      "duration": 0.0316,
      "velocity": 127,
      "chip": "ym2612"
    },
    {
      "channel": 3,
      "note": 64,
      "start": 1.981,
      "duration": 0.019,
      "velocity": 100,
      "chip": "ym2612"
    },
    {
      "channel": 1,
      "note": 75,
      "start": 2.0074,
      "duration": 0.0315,
      "velocity": 127,
      "chip": "ym2612"
    },
    {
      "channel": 0,
      "note": 55,
      "start": 2.0372,
      "duration": 0.0628,
      "velocity": 102,
      "chip": "ym2612"
    },
    {
      "channel": 1,
      "note": 73,
      "start": 2.039,
      "duration": 0.0625,
      "velocity": 127,
      "chip": "ym2612"
    },
    {
      "channel": 2,
      "note": 55,
      "start": 2.0443,
      "duration": 0.0573,
      "velocity": 101,
      "chip": "ym2612"
    },
    {
      "channel": 4,
      "note": 87,
      "start": 2.0456,
      "duration": 0.0256,
      "velocity": 127,
      "chip": "ym2612"
    },
    {
      "channel": 4,
      "note": 87,
      "start": 2.0713,
      "duration": 0.037,
      "velocity": 127,
      "chip": "ym2612"
    },
    {
      "channel": 0,
      "note": 57,
      "start": 2.1001,
      "duration": 0.0727,
      "velocity": 102,
      "chip": "ym2612"
    },
    {
      "channel": 1,
      "note": 80,
      "start": 2.1015,
      "duration": 0.0316,
      "velocity": 127,
      "chip": "ym2612"
    },
    {
      "channel": 2,
      "note": 57,
      "start": 2.1017,
      "duration": 0.0253,
      "velocity": 101,
      "chip": "ym2612"
    },
    {
      "channel": 4,
      "note": 87,
      "start": 2.1083,
      "duration": 0.0313,
      "velocity": 127,
      "chip": "ym2612"
    },
    {
      "channel": 1,
      "note": 80,
      "start": 2.1332,
      "duration": 0.0324,
      "velocity": 127,
      "chip": "ym2612"
    },
    {
      "channel": 4,
      "note": 87,
      "start": 2.1396,
      "duration": 0.0322,
      "velocity": 127,
      "chip": "ym2612"
    },
    {
      "channel": 1,
      "note": 75,
      "start": 2.1656,
      "duration": 0.0628,
      "velocity": 127,
      "chip": "ym2612"
    },
    {
      "channel": 2,
      "note": 57,
      "start": 2.1657,
      "duration": 0.0073,
      "velocity": 101,
      "chip": "ym2612"
    },
    {
      "channel": 4,
      "note": 87,
      "start": 2.1719,
      "duration": 0.0245,
      "velocity": 127,
      "chip": "ym2612"
    },
    {
      "channel": 4,
      "note": 87,
      "start": 2.1964,
      "duration": 0.0387,
      "velocity": 127,
      "chip": "ym2612"
    },
    {
      "channel": 0,
      "note": 55,
      "start": 2.2267,
      "duration": 0.0654,
      "velocity": 102,
      "chip": "ym2612"
    },
    {
      "channel": 1,
      "note": 80,
      "start": 2.2284,
      "duration": 0.0328,
      "velocity": 127,
      "chip": "ym2612"
    },
    {
      "channel": 2,
      "note": 55,
      "start": 2.2335,
      "duration": 0.065,
      "velocity": 101,
      "chip": "ym2612"
    },
    {
      "channel": 4,
      "note": 87,
      "start": 2.2352,
      "duration": 0.0324,
      "velocity": 127,
      "chip": "ym2612"
    },
    {
      "channel": 1,
      "note": 80,
      "start": 2.2613,
      "duration": 0.0321,
      "velocity": 127,
      "chip": "ym2612"
    },
    {
      "channel": 4,
      "note": 87,
      "start": 2.2676,
      "duration": 0.0321,
      "velocity": 127,
      "chip": "ym2612"
    },
    {
      "channel": 0,
      "note": 57,
      "start": 2.2922,
      "duration": 0.0454,
      "velocity": 102,
      "chip": "ym2612"
    },
    {
      "channel": 1,
      "note": 73,
      "start": 2.2934,
      "duration": 0.0629,
      "velocity": 127,
      "chip": "ym2612"
    },
    {
      "channel": 2,
      "note": 57,
      "start": 2.2985,
      "duration": 0.0581,
      "velocity": 101,
      "chip": "ym2612"
    },
    {
      "channel": 4,
      "note": 87,
      "start": 2.2998,
      "duration": 0.0255,
      "velocity": 127,
      "chip": "ym2612"
    },
    {
      "channel": 4,
      "note": 87,
      "start": 2.3254,
      "duration": 0.0378,
      "velocity": 127,
      "chip": "ym2612"
    },
    {
      "channel": 0,
      "note": 49,
      "start": 2.3547,
      "duration": 0.1293,
      "velocity": 102,
      "chip": "ym2612"
    },
    {
      "channel": 1,
      "note": 73,
      "start": 2.3564,
      "duration": 0.0332,
      "velocity": 127,
      "chip": "ym2612"
    },
    {
      "channel": 2,
      "note": 61,
      "start": 2.3567,
      "duration": 0.0135,
      "velocity": 101,
      "chip": "ym2612"
    },
    {
      "channel": 4,
      "note": 87,
      "start": 2.3633,
      "duration": 0.0329,
      "velocity": 127,
      "chip": "ym2612"
    },
    {
      "channel": 1,
      "note": 80,
      "start": 2.3897,
      "duration": 0.0331,
      "velocity": 127,
      "chip": "ym2612"
    },
    {
      "channel": 4,
      "note": 87,
      "start": 2.3963,
      "duration": 0.0333,
      "velocity": 127,
      "chip": "ym2612"
    },
    {
      "channel": 1,
      "note": 75,
      "start": 2.4229,
      "duration": 0.0629,
      "velocity": 127,
      "chip": "ym2612"
    },
    {
      "channel": 2,
      "note": 49,
      "start": 2.4231,
      "duration": 0.0193,
      "velocity": 101,
      "chip": "ym2612"
    },
    {
      "channel": 4,
      "note": 87,
      "start": 2.4297,
      "duration": 0.0244,
      "velocity": 127,
      "chip": "ym2612"
    },
    {
      "channel": 4,
      "note": 87,
      "start": 2.4541,
      "duration": 0.0384,
      "velocity": 127,
      "chip": "ym2612"
    },
    {
      "channel": 0,
      "note": 50,
      "start": 2.484,
      "duration": 0.1293,
      "velocity": 102,
      "chip": "ym2612"
    },
    {
      "channel": 1,
      "note": 73,
      "start": 2.4857,
      "duration": 0.0332,
      "velocity": 127,
      "chip": "ym2612"
    },
    {
      "channel": 2,
      "note": 50,
      "start": 2.4909,
      "duration": 0.1244,
      "velocity": 101,
      "chip": "ym2612"
    },
    {
      "channel": 4,
      "note": 87,
      "start": 2.4925,
      "duration": 0.0329,
      "velocity": 127,
      "chip": "ym2612"
    },
    {
      "channel": 1,
      "note": 80,
      "start": 2.519,
      "duration": 0.0318,
      "velocity": 127,
      "chip": "ym2612"
    },
    {
      "channel": 4,
      "note": 87,
      "start": 2.5255,
      "duration": 0.0319,
      "velocity": 127,
      "chip": "ym2612"
    },
    {
      "channel": 1,
      "note": 80,
      "start": 2.5508,
      "duration": 0.033,
      "velocity": 127,
      "chip": "ym2612"
    },
    {
      "channel": 4,
      "note": 87,
      "start": 2.5575,
      "duration": 0.0315,
      "velocity": 127,
      "chip": "ym2612"
    },
    {
      "channel": 1,
      "note": 80,
      "start": 2.5839,
      "duration": 0.0312,
      "velocity": 127,
      "chip": "ym2612"
    },
    {
      "channel": 4,
      "note": 87,
      "start": 2.589,
      "duration": 0.0327,
      "velocity": 127,
      "chip": "ym2612"
    },
    {
      "channel": 0,
      "note": 52,
      "start": 2.6133,
      "duration": 0.0661,
      "velocity": 102,
      "chip": "ym2612"
    },
    {
      "channel": 1,
      "note": 73,
      "start": 2.6151,
      "duration": 0.0326,
      "velocity": 127,
      "chip": "ym2612"
    },
    {
      "channel": 2,
      "note": 52,
      "start": 2.6153,
      "duration": 0.0253,
      "velocity": 101,
      "chip": "ym2612"
    },
    {
      "channel": 4,
      "note": 87,
      "start": 2.6218,
      "duration": 0.0324,
      "velocity": 127,
      "chip": "ym2612"
    },
    {
      "channel": 1,
      "note": 80,
      "start": 2.6478,
      "duration": 0.033,
      "velocity": 127,
      "chip": "ym2612"
    },
    {
      "channel": 4,
      "note": 87,
      "start": 2.6543,
      "duration": 0.0329,
      "velocity": 127,
      "chip": "ym2612"
    },
    {
      "channel": 0,
      "note": 55,
      "start": 2.6795,
      "duration": 0.0388,
      "velocity": 102,
      "chip": "ym2612"
    },
    {
      "channel": 1,
      "note": 75,
      "start": 2.6808,
      "duration": 0.0634,
      "velocity": 127,
      "chip": "ym2612"
    },
    {
      "channel": 2,
      "note": 55,
      "start": 2.6859,
      "duration": 0.0204,
      "velocity": 101,
      "chip": "ym2612"
    },
    {
      "channel": 4,
      "note": 87,
      "start": 2.6872,
      "duration": 0.0251,
      "velocity": 127,
      "chip": "ym2612"
    },
    {
      "channel": 4,
      "note": 87,
      "start": 2.7124,
      "duration": 0.0387,
      "velocity": 127,
      "chip": "ym2612"
    },
    {
      "channel": 0,
      "note": 50,
      "start": 2.7424,
      "duration": 0.1306,
      "velocity": 102,
      "chip": "ym2612"
    },
    {
      "channel": 1,
      "note": 80,
      "start": 2.7442,
      "duration": 0.0328,
      "velocity": 127,
      "chip": "ym2612"
    },
    {
      "channel": 2,
      "note": 50,
      "start": 2.7495,
      "duration": 0.1304,
      "velocity": 101,
      "chip": "ym2612"
    },
    {
      "channel": 4,
      "note": 87,
      "start": 2.7511,
      "duration": 0.0324,
      "velocity": 127,
      "chip": "ym2612"
    },
    {
      "channel": 1,
      "note": 75,
      "start": 2.7771,
      "duration": 0.0323,
      "velocity": 127,
      "chip": "ym2612"
    },
    {
      "channel": 4,
      "note": 87,
      "start": 2.7836,
      "duration": 0.032,
      "velocity": 127,
      "chip": "ym2612"
    },
    {
      "channel": 1,
      "note": 73,
      "start": 2.8095,
      "duration": 0.0334,
      "velocity": 127,
      "chip": "ym2612"
    },
    {
      "channel": 4,
      "note": 87,
      "start": 2.8157,
      "duration": 0.0323,
      "velocity": 127,
      "chip": "ym2612"
    },
    {
      "channel": 1,
      "note": 75,
      "start": 2.8429,
      "duration": 0.0319,
      "velocity": 127,
      "chip": "ym2612"
    },
    {
      "channel": 4,
      "note": 87,
      "start": 2.848,
      "duration": 0.0335,
      "velocity": 127,
      "chip": "ym2612"
    },
    {
      "channel": 0,
      "note": 52,
      "start": 2.8731,
      "duration": 0.0661,
      "velocity": 102,
      "chip": "ym2612"
    },
    {
      "channel": 1,
      "note": 73,
      "start": 2.8749,
      "duration": 0.0325,
      "velocity": 127,
      "chip": "ym2612"
    },
    {
      "channel": 2,
      "note": 52,
      "start": 2.8799,
      "duration": 0.0203,
      "velocity": 101,
      "chip": "ym2612"
    },
    {
      "channel": 4,
      "note": 87,
      "start": 2.8815,
      "duration": 0.0324,
      "velocity": 127,
      "chip": "ym2612"
    },
    {
      "channel": 1,
      "note": 80,
      "start": 2.9075,
      "duration": 0.0335,
      "velocity": 127,
      "chip": "ym2612"
    },
    {
      "channel": 4,
      "note": 87,
      "start": 2.9141,
      "duration": 0.0333,
      "velocity": 127,
      "chip": "ym2612"
    },
    {
      "channel": 0,
      "note": 55,
      "start": 2.9393,
      "duration": 0.039,
      "velocity": 102,
      "chip": "ym2612"
    },
    {
      "channel": 1,
      "note": 75,
      "start": 2.941,
      "duration": 0.063,
      "velocity": 127,
      "chip": "ym2612"
    },
    {
      "channel": 2,
      "note": 55,
      "start": 2.9462,
      "duration": 0.0202,
      "velocity": 101,
      "chip": "ym2612"
    },
    {
      "channel": 4,
      "note": 87,
      "start": 2.9475,
      "duration": 0.0249,
      "velocity": 127,
      "chip": "ym2612"
    },
    {
      "channel": 4,
      "note": 87,
      "start": 2.9724,
      "duration": 0.0383,
      "velocity": 127,
      "chip": "ym2612"
    },
    {
      "channel": 0,
      "note": 52,
      "start": 3.0023,
      "duration": 0.0659,
      "velocity": 102,
      "chip": "ym2612"
    },
    {
      "channel": 1,
      "note": 80,
      "start": 3.0041,
      "duration": 0.0329,
      "velocity": 127,
      "chip": "ym2612"
    },
    {
      "channel": 2,
      "note": 52,
      "start": 3.0091,
      "duration": 0.0658,
      "velocity": 101,
      "chip": "ym2612"
    },
    {
      "channel": 4,
      "note": 87,
      "start": 3.0108,
      "duration": 0.0328,
      "velocity": 127,
      "chip": "ym2612"
    },
    {
      "channel": 1,
      "note": 75,
      "start": 3.0371,
      "duration": 0.0329,
      "velocity": 127,
      "chip": "ym2612"
    },
    {
      "channel": 4,
      "note": 87,
      "start": 3.0436,
      "duration": 0.033,
      "velocity": 127,
      "chip": "ym2612"
    },
    {
      "channel": 0,
      "note": 55,
      "start": 3.0682,
      "duration": 0.0636,
      "velocity": 102,
      "chip": "ym2612"
    },
    {
      "channel": 1,
      "note": 73,
      "start": 3.07,
      "duration": 0.0632,
      "velocity": 127,
      "chip": "ym2612"
    },
    {
      "channel": 2,
      "note": 55,
      "start": 3.075,
      "duration": 0.0584,
      "velocity": 101,
      "chip": "ym2612"
    },
    {
      "channel": 4,
      "note": 87,
      "start": 3.0767,
      "duration": 0.0255,
      "velocity": 127,
      "chip": "ym2612"
    },
    {
      "channel": 4,
      "note": 87,
      "start": 3.1022,
      "duration": 0.0378,
      "velocity": 127,
      "chip": "ym2612"
    },
    {
      "channel": 0,
      "note": 57,
      "start": 3.1319,
      "duration": 0.0728,
      "velocity": 102,
      "chip": "ym2612"
    },
    {
      "channel": 1,
      "note": 80,
      "start": 3.1333,
      "duration": 0.0308,
      "velocity": 127,
      "chip": "ym2612"
    },
    {
      "channel": 2,
      "note": 57,
      "start": 3.1335,
      "duration": 0.0245,
      "velocity": 101,
      "chip": "ym2612"
    },
    {
      "channel": 4,
      "note": 87,
      "start": 3.14,
      "duration": 0.0304,
      "velocity": 127,
      "chip": "ym2612"
    },
    {
      "channel": 1,
      "note": 80,
      "start": 3.1641,
      "duration": 0.033,
      "velocity": 127,
      "chip": "ym2612"
    },
    {
      "channel": 4,
      "note": 87,
      "start": 3.1705,
      "duration": 0.0329,
      "velocity": 127,
      "chip": "ym2612"
    },
    {
      "channel": 1,
      "note": 75,
      "start": 3.1972,
      "duration": 0.0622,
      "velocity": 127,
      "chip": "ym2612"
    },
    {
      "channel": 2,
      "note": 57,
      "start": 3.1973,
      "duration": 0.0076,
      "velocity": 101,
      "chip": "ym2612"
    },
    {
      "channel": 4,
      "note": 87,
      "start": 3.2035,
      "duration": 0.0246,
      "velocity": 127,
      "chip": "ym2612"
    },
    {
      "channel": 4,
      "note": 87,
      "start": 3.2282,
      "duration": 0.038,
      "velocity": 127,
      "chip": "ym2612"
    },
    {
      "channel": 0,
      "note": 55,
      "start": 3.2577,
      "duration": 0.0661,
      "velocity": 102,
      "chip": "ym2612"
    },
    {
      "channel": 1,
      "note": 80,
      "start": 3.2595,
      "duration": 0.0332,
      "velocity": 127,
      "chip": "ym2612"
    },
    {
      "channel": 2,
      "note": 55,
      "start": 3.2646,
      "duration": 0.066,
      "velocity": 101,
      "chip": "ym2612"
    },
    {
      "channel": 4,
      "note": 87,
      "start": 3.2663,
      "duration": 0.033,
      "velocity": 127,
      "chip": "ym2612"
    },
    {
      "channel": 1,
      "note": 80,
      "start": 3.2928,
      "duration": 0.0327,
      "velocity": 127,
      "chip": "ym2612"
    },
    {
      "channel": 4,
      "note": 87,
      "start": 3.2994,
      "duration": 0.0324,
      "velocity": 127,
      "chip": "ym2612"
    },
    {
      "channel": 0,
      "note": 57,
      "start": 3.3238,
      "duration": 0.0456,
      "velocity": 102,
      "chip": "ym2612"
    },
    {
      "channel": 1,
      "note": 73,
      "start": 3.3255,
      "duration": 0.0632,
      "velocity": 127,
      "chip": "ym2612"
    },
    {
      "channel": 2,
      "note": 57,
      "start": 3.3306,
      "duration": 0.0583,
      "velocity": 101,
      "chip": "ym2612"
    },
    {
      "channel": 4,
      "note": 87,
      "start": 3.3318,
      "duration": 0.0254,
      "velocity": 127,
      "chip": "ym2612"
    },
    {
      "channel": 4,
      "note": 87,
      "start": 3.3573,
      "duration": 0.0381,
      "velocity": 127,
      "chip": "ym2612"
    },
    {
      "channel": 0,
      "note": 49,
      "start": 3.387,
      "duration": 0.1278,
      "velocity": 102,
      "chip": "ym2612"
    },
    {
      "channel": 1,
      "note": 73,
      "start": 3.3887,
      "duration": 0.0322,
      "velocity": 127,
      "chip": "ym2612"
    },
    {
      "channel": 2,
      "note": 61,
      "start": 3.389,
      "duration": 0.0135,
      "velocity": 101,
      "chip": "ym2612"
    },
    {
      "channel": 4,
      "note": 87,
      "start": 3.3955,
      "duration": 0.032,
      "velocity": 127,
      "chip": "ym2612"
    },
    {
      "channel": 1,
      "note": 80,
      "start": 3.421,
      "duration": 0.0327,
      "velocity": 127,
      "chip": "ym2612"
    },
    {
      "channel": 4,
      "note": 87,
      "start": 3.4276,
      "duration": 0.0325,
      "velocity": 127,
      "chip": "ym2612"
    },
    {
      "channel": 1,
      "note": 75,
      "start": 3.4538,
      "duration": 0.0622,
      "velocity": 127,
      "chip": "ym2612"
    },
    {
      "channel": 2,
      "note": 49,
      "start": 3.454,
      "duration": 0.0196,
      "velocity": 101,
      "chip": "ym2612"
    },
    {
      "channel": 4,
      "note": 87,
      "start": 3.4602,
      "duration": 0.0251,
      "velocity": 127,
      "chip": "ym2612"
    },
    {
      "channel": 4,
      "note": 87,
      "start": 3.4853,
      "duration": 0.0375,
      "velocity": 127,
      "chip": "ym2612"
    },
    {
      "channel": 0,
      "note": 50,
      "start": 3.5148,
      "duration": 0.1293,
      "velocity": 102,
      "chip": "ym2612"
    },
    {
      "channel": 1,
      "note": 73,
      "start": 3.5161,
      "duration": 0.0335,
      "velocity": 127,
      "chip": "ym2612"
    },
    {
      "channel": 2,
      "note": 50,
      "start": 3.5212,
      "duration": 0.1249,
      "velocity": 101,
      "chip": "ym2612"
    },
    {
      "channel": 4,
      "note": 87,
      "start": 3.5229,
      "duration": 0.0334,
      "velocity": 127,
      "chip": "ym2612"
    },
    {
      "channel": 1,
      "note": 80,
      "start": 3.5497,
      "duration": 0.0319,
      "velocity": 127,
      "chip": "ym2612"
    },
    {
      "channel": 4,
      "note": 87,
      "start": 3.5563,
      "duration": 0.0317,
      "velocity": 127,
      "chip": "ym2612"
    },
    {
      "channel": 1,
      "note": 80,
      "start": 3.5816,
      "duration": 0.0323,
      "velocity": 127,
      "chip": "ym2612"
    },
    {
      "channel": 4,
      "note": 87,
      "start": 3.588,
      "duration": 0.031,
      "velocity": 127,
      "chip": "ym2612"
    },
    {
      "channel": 1,
      "note": 80,
      "start": 3.614,
      "duration": 0.0318,
      "velocity": 127,
      "chip": "ym2612"
    },
    {
      "channel": 4,
      "note": 87,
      "start": 3.6191,
      "duration": 0.0335,
      "velocity": 127,
      "chip": "ym2612"
    },
    {
      "channel": 0,
      "note": 52,
      "start": 3.6442,
      "duration": 0.0658,
      "velocity": 102,
      "chip": "ym2612"
    },
    {
      "channel": 1,
      "note": 73,
      "start": 3.6459,
      "duration": 0.0322,
      "velocity": 127,
      "chip": "ym2612"
    },
    {
      "channel": 2,
      "note": 52,
      "start": 3.6461,
      "duration": 0.0251,
      "velocity": 101,
      "chip": "ym2612"
    },
    {
      "channel": 4,
      "note": 87,
      "start": 3.6527,
      "duration": 0.0319,
      "velocity": 127,
      "chip": "ym2612"
    },
    {
      "channel": 1,
      "note": 80,
      "start": 3.6781,
      "duration": 0.0336,
      "velocity": 127,
      "chip": "ym2612"
    },
    {
      "channel": 4,
      "note": 87,
      "start": 3.6846,
      "duration": 0.0334,
      "velocity": 127,
      "chip": "ym2612"
    },
    {
      "channel": 0,
      "note": 55,
      "start": 3.71,
      "duration": 0.0393,
      "velocity": 102,
      "chip": "ym2612"
    },
    {
      "channel": 1,
      "note": 75,
      "start": 3.7118,
      "duration": 0.0628,
      "velocity": 127,
      "chip": "ym2612"
    },
    {
      "channel": 2,
      "note": 55,
      "start": 3.7169,
      "duration": 0.0208,
      "velocity": 101,
      "chip": "ym2612"
    },
    {
      "channel": 4,
      "note": 87,
      "start": 3.7181,
      "duration": 0.0254,
      "velocity": 127,
      "chip": "ym2612"
    },
    {
      "channel": 4,
      "note": 87,
      "start": 3.7436,
      "duration": 0.0379,
      "velocity": 127,
      "chip": "ym2612"
    },
    {
      "channel": 0,
      "note": 50,
      "start": 3.7729,
      "duration": 0.1296,
      "velocity": 102,
      "chip": "ym2612"
    },
    {
      "channel": 1,
      "note": 80,
      "start": 3.7746,
      "duration": 0.0318,
      "velocity": 127,
      "chip": "ym2612"
    },
    {
      "channel": 2,
      "note": 50,
      "start": 3.7798,
      "duration": 0.1247,
      "velocity": 101,
      "chip": "ym2612"
    },
    {
      "channel": 4,
      "note": 87,
      "start": 3.7815,
      "duration": 0.0313,
      "velocity": 127,
      "chip": "ym2612"
    },
    {
      "channel": 1,
      "note": 80,
      "start": 3.8065,
      "duration": 0.0325,
      "velocity": 127,
      "chip": "ym2612"
    },
    {
      "channel": 4,
      "note": 87,
      "start": 3.8129,
      "duration": 0.0323,
      "velocity": 127,
      "chip": "ym2612"
    },
    {
      "channel": 1,
      "note": 75,
      "start": 3.839,
      "duration": 0.0326,
      "velocity": 127,
      "chip": "ym2612"
    },
    {
      "channel": 4,
      "note": 87,
      "start": 3.8452,
      "duration": 0.0315,
      "velocity": 127,
      "chip": "ym2612"
    },
    {
      "channel": 1,
      "note": 75,
      "start": 3.8717,
      "duration": 0.0326,
      "velocity": 127,
      "chip": "ym2612"
    },
    {
      "channel": 4,
      "note": 87,
      "start": 3.8768,
      "duration": 0.0342,
      "velocity": 127,
      "chip": "ym2612"
    },
    {
      "channel": 0,
      "note": 52,
      "start": 3.9026,
      "duration": 0.0667,
      "velocity": 102,
      "chip": "ym2612"
    },
    {
      "channel": 1,
      "note": 73,
      "start": 3.9044,
      "duration": 0.0328,
      "velocity": 127,
      "chip": "ym2612"
    },
    {
      "channel": 2,
      "note": 52,
      "start": 3.9094,
      "duration": 0.0204,
      "velocity": 101,
      "chip": "ym2612"
    },
    {
      "channel": 4,
      "note": 87,
      "start": 3.911,
      "duration": 0.0327,
      "velocity": 127,
      "chip": "ym2612"
    },
    {
      "channel": 1,
      "note": 73,
      "start": 3.9372,
      "duration": 0.0338,
      "velocity": 127,
      "chip": "ym2612"
    },
    {
      "channel": 4,
      "note": 87,
      "start": 3.9438,
      "duration": 0.0337,
      "velocity": 127,
      "chip": "ym2612"
    },
    {
      "channel": 0,
      "note": 55,
      "start": 3.9693,
      "duration": 0.0413,
      "velocity": 102,
      "chip": "ym2612"
    },
    {
      "channel": 1,
      "note": 75,
      "start": 3.971,
      "duration": 0.0334,
      "velocity": 127,
      "chip": "ym2612"
    },
    {
      "channel": 2,
      "note": 55,
      "start": 3.9762,
      "duration": 0.0209,
      "velocity": 101,
      "chip": "ym2612"
    },
    {
      "channel": 4,
      "note": 87,
      "start": 3.9775,
      "duration": 0.032,
      "velocity": 127,
      "chip": "ym2612"
    },
    {
      "channel": 1,
      "note": 75,
      "start": 4.0045,
      "duration": 0.0313,
      "velocity": 127,
      "chip": "ym2612"
    },
    {
      "channel": 4,
      "note": 87,
      "start": 4.0096,
      "duration": 0.0329,
      "velocity": 127,
      "chip": "ym2612"
    },
    {
      "channel": 0,
      "note": 52,
      "start": 4.0342,
      "duration": 0.0659,
      "velocity": 102,
      "chip": "ym2612"
    },
    {
      "channel": 1,
      "note": 80,
      "start": 4.0359,
      "duration": 0.0328,
      "velocity": 127,
      "chip": "ym2612"
    },
    {
      "channel": 2,
      "note": 52,
      "start": 4.0409,
      "duration": 0.0659,
      "velocity": 101,
      "chip": "ym2612"
    },
    {
      "channel": 4,
      "note": 87,
      "start": 4.0426,
      "duration": 0.0322,
      "velocity": 127,
      "chip": "ym2612"
    },
    {
      "channel": 1,
      "note": 75,
      "start": 4.0688,
      "duration": 0.0332,
      "velocity": 127,
      "chip": "ym2612"
    },
    {
      "channel": 4,
      "note": 87,
      "start": 4.0749,
      "duration": 0.0339,
      "velocity": 127,
      "chip": "ym2612"
    },
    {
      "channel": 0,
      "note": 55,
      "start": 4.1001,
      "duration": 0.0637,
      "velocity": 102,
      "chip": "ym2612"
    },
    {
      "channel": 1,
      "note": 73,
      "start": 4.1019,
      "duration": 0.0632,
      "velocity": 127,
      "chip": "ym2612"
    },
    {
      "channel": 2,
      "note": 55,
      "start": 4.1069,
      "duration": 0.0584,
      "velocity": 101,
      "chip": "ym2612"
    },
    {
      "channel": 3,
      "note": 67,
      "start": 4.1072,
      "duration": 0.0633,
      "velocity": 100,
      "chip": "ym2612"
    },
    {
      "channel": 4,
      "note": 87,
      "start": 4.1088,
      "duration": 0.0248,
      "velocity": 127,
      "chip": "ym2612"
    },
    {
      "channel": 4,
      "note": 87,
      "start": 4.1337,
      "duration": 0.038,
      "velocity": 127,
      "chip": "ym2612"
    },
    {
      "channel": 0,
      "note": 57,
      "start": 4.1638,
      "duration": 0.0722,
      "velocity": 102,
      "chip": "ym2612"
    },
    {
      "channel": 1,
      "note": 80,
      "start": 4.1652,
      "duration": 0.0306,
      "velocity": 127,
      "chip": "ym2612"
    },
    {
      "channel": 2,
      "note": 57,
      "start": 4.1654,
      "duration": 0.0246,
      "velocity": 101,
      "chip": "ym2612"
    },
    {
      "channel": 3,
      "note": 69,
      "start": 4.1705,
      "duration": 0.0625,
      "velocity": 100,
      "chip": "ym2612"
    },
    {
      "channel": 4,
      "note": 87,
      "start": 4.1718,
      "duration": 0.0304,
      "velocity": 127,
      "chip": "ym2612"
    },
    {
      "channel": 1,
      "note": 80,
      "start": 4.1959,
      "duration": 0.032,
      "velocity": 127,
      "chip": "ym2612"
    },
    {
      "channel": 4,
      "note": 87,
      "start": 4.2023,
      "duration": 0.0324,
      "velocity": 127,
      "chip": "ym2612"
    },
    {
      "channel": 1,
      "note": 75,
      "start": 4.2279,
      "duration": 0.0633,
      "velocity": 127,
      "chip": "ym2612"
    },
    {
      "channel": 2,
      "note": 57,
      "start": 4.228,
      "duration": 0.0083,
      "velocity": 101,
      "chip": "ym2612"
    },
    {
      "channel": 3,
      "note": 69,
      "start": 4.2331,
      "duration": 0.0032,
      "velocity": 100,
      "chip": "ym2612"
    },
    {
      "channel": 4,
      "note": 87,
      "start": 4.2348,
      "duration": 0.0257,
      "velocity": 127,
      "chip": "ym2612"
    },
    {
      "channel": 4,
      "note": 87,
      "start": 4.2606,
      "duration": 0.0372,
      "velocity": 127,
      "chip": "ym2612"
    },
    {
      "channel": 0,
      "note": 55,
      "start": 4.2896,
      "duration": 0.066,
      "velocity": 102,
      "chip": "ym2612"
    },
    {
      "channel": 1,
      "note": 80,
      "start": 4.2913,
      "duration": 0.033,
      "velocity": 127,
      "chip": "ym2612"
    },
    {
      "channel": 2,
      "note": 55,
      "start": 4.2964,
      "duration": 0.0659,
      "velocity": 101,
      "chip": "ym2612"
    },
    {
      "channel": 3,
      "note": 67,
      "start": 4.2966,
      "duration": 0.066,
      "velocity": 100,
      "chip": "ym2612"
    },
    {
      "channel": 4,
      "note": 87,
      "start": 4.2979,
      "duration": 0.0329,
      "velocity": 127,
      "chip": "ym2612"
    },
    {
      "channel": 1,
      "note": 80,
      "start": 4.3244,
      "duration": 0.0328,
      "velocity": 127,
      "chip": "ym2612"
    },
    {
      "channel": 4,
      "note": 87,
      "start": 4.3308,
      "duration": 0.0334,
      "velocity": 127,
      "chip": "ym2612"
    },
    {
      "channel": 0,
      "note": 57,
      "start": 4.3556,
      "duration": 0.0456,
      "velocity": 102,
      "chip": "ym2612"
    },
    {
      "channel": 1,
      "note": 73,
      "start": 4.3572,
      "duration": 0.0641,
      "velocity": 127,
      "chip": "ym2612"
    },
    {
      "channel": 2,
      "note": 57,
      "start": 4.3624,
      "duration": 0.0591,
      "velocity": 101,
      "chip": "ym2612"
    },
    {
      "channel": 3,
      "note": 69,
      "start": 4.3626,
      "duration": 0.1307,
      "velocity": 100,
      "chip": "ym2612"
    },
    {
      "channel": 4,
      "note": 87,
      "start": 4.3643,
      "duration": 0.0245,
      "velocity": 127,
      "chip": "ym2612"
    },
    {
      "channel": 4,
      "note": 87,
      "start": 4.3889,
      "duration": 0.0393,
      "velocity": 127,
      "chip": "ym2612"
    },
    {
      "channel": 0,
      "note": 49,
      "start": 4.4196,
      "duration": 0.1302,
      "velocity": 102,
      "chip": "ym2612"
    },
    {
      "channel": 1,
      "note": 73,
      "start": 4.4213,
      "duration": 0.0331,
      "velocity": 127,
      "chip": "ym2612"
    },
    {
      "channel": 2,
      "note": 61,
      "start": 4.4216,
      "duration": 0.0142,
      "velocity": 101,
      "chip": "ym2612"
    },
    {
      "channel": 4,
      "note": 87,
      "start": 4.4282,
      "duration": 0.0328,
      "velocity": 127,
      "chip": "ym2612"
    },
    {
      "channel": 1,
      "note": 80,
      "start": 4.4545,
      "duration": 0.0334,
      "velocity": 127,
      "chip": "ym2612"
    },
    {
      "channel": 4,
      "note": 87,
      "start": 4.4611,
      "duration": 0.0339,
      "velocity": 127,
      "chip": "ym2612"
    },
    {
      "channel": 1,
      "note": 75,
      "start": 4.488,
      "duration": 0.0635,
      "velocity": 127,
      "chip": "ym2612"
    },
    {
      "channel": 2,
      "note": 49,
      "start": 4.4882,
      "duration": 0.0204,
      "velocity": 101,
      "chip": "ym2612"
    },
    {
      "channel": 3,
      "note": 67,
      "start": 4.4934,
      "duration": 0.0273,
      "velocity": 100,
      "chip": "ym2612"
    },
    {
      "channel": 4,
      "note": 87,
      "start": 4.4951,
      "duration": 0.0257,
      "velocity": 127,
      "chip": "ym2612"
    },
    {
      "channel": 4,
      "note": 87,
      "start": 4.5208,
      "duration": 0.0372,
      "velocity": 127,
      "chip": "ym2612"
    },
    {
      "channel": 0,
      "note": 50,
      "start": 4.5498,
      "duration": 0.13,
      "velocity": 102,
      "chip": "ym2612"
    },
    {
      "channel": 1,
      "note": 73,
      "start": 4.5515,
      "duration": 0.0335,
      "velocity": 127,
      "chip": "ym2612"
    },
    {
      "channel": 2,
      "note": 50,
      "start": 4.5566,
      "duration": 0.125,
      "velocity": 101,
      "chip": "ym2612"
    },
    {
      "channel": 3,
      "note": 63,
      "start": 4.5568,
      "duration": 0.1301,
      "velocity": 100,
      "chip": "ym2612"
    },
    {
      "channel": 4,
      "note": 87,
      "start": 4.5581,
      "duration": 0.0334,
      "velocity": 127,
      "chip": "ym2612"
    },
    {
      "channel": 1,
      "note": 80,
      "start": 4.5851,
      "duration": 0.0326,
      "velocity": 127,
      "chip": "ym2612"
    },
    {
      "channel": 4,
      "note": 87,
      "start": 4.5916,
      "duration": 0.0326,
      "velocity": 127,
      "chip": "ym2612"
    },
    {
      "channel": 1,
      "note": 80,
      "start": 4.6177,
      "duration": 0.0318,
      "velocity": 127,
      "chip": "ym2612"
    },
    {
      "channel": 4,
      "note": 87,
      "start": 4.6243,
      "duration": 0.0303,
      "velocity": 127,
      "chip": "ym2612"
    },
    {
      "channel": 1,
      "note": 80,
      "start": 4.6495,
      "duration": 0.0319,
      "velocity": 127,
      "chip": "ym2612"
    },
    {
      "channel": 4,
      "note": 87,
      "start": 4.6547,
      "duration": 0.0335,
      "velocity": 127,
      "chip": "ym2612"
    },
    {
      "channel": 0,
      "note": 52,
      "start": 4.6798,
      "duration": 0.0662,
      "velocity": 102,
      "chip": "ym2612"
    },
    {
      "channel": 1,
      "note": 73,
      "start": 4.6815,
      "duration": 0.0332,
      "velocity": 127,
      "chip": "ym2612"
    },
    {
      "channel": 2,
      "note": 52,
      "start": 4.6817,
      "duration": 0.0261,
      "velocity": 101,
      "chip": "ym2612"
    },
    {
      "channel": 3,
      "note": 64,
      "start": 4.687,
      "duration": 0.0354,
      "velocity": 100,
      "chip": "ym2612"
    },
    {
      "channel": 4,
      "note": 87,
      "start": 4.6883,
      "duration": 0.033,
      "velocity": 127,
      "chip": "ym2612"
    },
    {
      "channel": 1,
      "note": 80,
      "start": 4.7148,
      "duration": 0.0325,
      "velocity": 127,
      "chip": "ym2612"
    },
    {
      "channel": 4,
      "note": 87,
      "start": 4.7213,
      "duration": 0.033,
      "velocity": 127,
      "chip": "ym2612"
    },
    {
      "channel": 0,
      "note": 55,
      "start": 4.746,
      "duration": 0.0408,
      "velocity": 102,
      "chip": "ym2612"
    },
    {
      "channel": 1,
      "note": 75,
      "start": 4.7473,
      "duration": 0.0649,
      "velocity": 127,
      "chip": "ym2612"
    },
    {
      "channel": 2,
      "note": 55,
      "start": 4.7525,
      "duration": 0.0219,
      "velocity": 101,
      "chip": "ym2612"
    },
    {
      "channel": 3,
      "note": 67,
      "start": 4.7528,
      "duration": 0.0649,
      "velocity": 100,
      "chip": "ym2612"
    },
    {
      "channel": 4,
      "note": 87,
      "start": 4.7544,
      "duration": 0.0262,
      "velocity": 127,
      "chip": "ym2612"
    },
    {
      "channel": 4,
      "note": 87,
      "start": 4.7807,
      "duration": 0.0382,
      "velocity": 127,
      "chip": "ym2612"
    },
    {
      "channel": 0,
      "note": 50,
      "start": 4.8105,
      "duration": 0.1311,
      "velocity": 102,
      "chip": "ym2612"
    },
    {
      "channel": 1,
      "note": 80,
      "start": 4.8123,
      "duration": 0.0328,
      "velocity": 127,
      "chip": "ym2612"
    },
    {
      "channel": 2,
      "note": 50,
      "start": 4.8175,
      "duration": 0.1261,
      "velocity": 101,
      "chip": "ym2612"
    },
    {
      "channel": 3,
      "note": 63,
      "start": 4.8178,
      "duration": 0.1308,
      "velocity": 100,
      "chip": "ym2612"
    },
    {
      "channel": 4,
      "note": 87,
      "start": 4.819,
      "duration": 0.0326,
      "velocity": 127,
      "chip": "ym2612"
    },
    {
      "channel": 1,
      "note": 75,
      "start": 4.8451,
      "duration": 0.0337,
      "velocity": 127,
      "chip": "ym2612"
    },
    {
      "channel": 4,
      "note": 87,
      "start": 4.8517,
      "duration": 0.0332,
      "velocity": 127,
      "chip": "ym2612"
    },
    {
      "channel": 1,
      "note": 73,
      "start": 4.8788,
      "duration": 0.0322,
      "velocity": 127,
      "chip": "ym2612"
    },
    {
      "channel": 4,
      "note": 87,
      "start": 4.885,
      "duration": 0.031,
      "velocity": 127,
      "chip": "ym2612"
    },
    {
      "channel": 1,
      "note": 75,
      "start": 4.911,
      "duration": 0.0324,
      "velocity": 127,
      "chip": "ym2612"
    },
    {
      "channel": 4,
      "note": 87,
      "start": 4.916,
      "duration": 0.0339,
      "velocity": 127,
      "chip": "ym2612"
    },
    {
      "channel": 0,
      "note": 52,
      "start": 4.9417,
      "duration": 0.0659,
      "velocity": 102,
      "chip": "ym2612"
    },
    {
      "channel": 1,
      "note": 73,
      "start": 4.9434,
      "duration": 0.0332,
      "velocity": 127,
      "chip": "ym2612"
    },
    {
      "channel": 2,
      "note": 52,
      "start": 4.9485,
      "duration": 0.0208,
      "velocity": 101,
      "chip": "ym2612"
    },
    {
      "channel": 3,
      "note": 64,
      "start": 4.9487,
      "duration": 0.0355,
      "velocity": 100,
      "chip": "ym2612"
    },
    {
      "channel": 4,
      "note": 87,
      "start": 4.95,
      "duration": 0.0332,
      "velocity": 127,
      "chip": "ym2612"
    },
    {
      "channel": 1,
      "note": 80,
      "start": 4.9767,
      "duration": 0.0322,
      "velocity": 127,
      "chip": "ym2612"
    },
    {
      "channel": 4,
      "note": 87,
      "start": 4.9832,
      "duration": 0.0326,
      "velocity": 127,
      "chip": "ym2612"
    },
    {
      "channel": 0,
      "note": 55,
      "start": 5.0076,
      "duration": 0.0408,
      "velocity": 102,
      "chip": "ym2612"
    },
    {
      "channel": 1,
      "note": 75,
      "start": 5.009,
      "duration": 0.0649,
      "velocity": 127,
      "chip": "ym2612"
    },
    {
      "channel": 2,
      "note": 55,
      "start": 5.014,
      "duration": 0.022,
      "velocity": 101,
      "chip": "ym2612"
    },
    {
      "channel": 3,
      "note": 67,
      "start": 5.0143,
      "duration": 0.0651,
      "velocity": 100,
      "chip": "ym2612"
    },
    {
      "channel": 4,
      "note": 87,
      "start": 5.0159,
      "duration": 0.0264,
      "velocity": 127,
      "chip": "ym2612"
    },
    {
      "channel": 4,
      "note": 87,
      "start": 5.0424,
      "duration": 0.0382,
      "velocity": 127,
      "chip": "ym2612"
    },
    {
      "channel": 0,
      "note": 52,
      "start": 5.0722,
      "duration": 0.0666,
      "velocity": 102,
      "chip": "ym2612"
    },
    {
      "channel": 1,
      "note": 80,
      "start": 5.0739,
      "duration": 0.0327,
      "velocity": 127,
      "chip": "ym2612"
    },
    {
      "channel": 2,
      "note": 52,
      "start": 5.0792,
      "duration": 0.0664,
      "velocity": 101,
      "chip": "ym2612"
    },
    {
      "channel": 3,
      "note": 64,
      "start": 5.0794,
      "duration": 0.02,
      "velocity": 100,
      "chip": "ym2612"
    },
    {
      "channel": 4,
      "note": 87,
      "start": 5.0807,
      "duration": 0.0324,
      "velocity": 127,
      "chip": "ym2612"
    },
    {
      "channel": 1,
      "note": 75,
      "start": 5.1066,
      "duration": 0.0339,
      "velocity": 127,
      "chip": "ym2612"
    },
    {
      "channel": 4,
      "note": 87,
      "start": 5.1132,
      "duration": 0.0343,
      "velocity": 127,
      "chip": "ym2612"
    },
    {
      "channel": 0,
      "note": 55,
      "start": 5.1388,
      "duration": 0.0633,
      "velocity": 102,
      "chip": "ym2612"
    },
    {
      "channel": 1,
      "note": 73,
      "start": 5.1407,
      "duration": 0.0628,
      "velocity": 127,
      "chip": "ym2612"
    },
    {
      "channel": 2,
      "note": 55,
      "start": 5.1456,
      "duration": 0.0581,
      "velocity": 101,
      "chip": "ym2612"
    },
    {
      "channel": 3,
      "note": 67,
      "start": 5.1459,
      "duration": 0.0629,
      "velocity": 100,
      "chip": "ym2612"
    },
    {
      "channel": 4,
      "note": 87,
      "start": 5.1476,
      "duration": 0.0247,
      "velocity": 127,
      "chip": "ym2612"
    },
    {
      "channel": 4,
      "note": 87,
      "start": 5.1724,
      "duration": 0.0377,
      "velocity": 127,
      "chip": "ym2612"
    },
    {
      "channel": 0,
      "note": 57,
      "start": 5.2022,
      "duration": 0.073,
      "velocity": 102,
      "chip": "ym2612"
    },
    {
      "channel": 1,
      "note": 80,
      "start": 5.2036,
      "duration": 0.0313,
      "velocity": 127,
      "chip": "ym2612"
    },
    {
      "channel": 2,
      "note": 57,
      "start": 5.2038,
      "duration": 0.0253,
      "velocity": 101,
      "chip": "ym2612"
    },
    {
      "channel": 3,
      "note": 69,
      "start": 5.2089,
      "duration": 0.0634,
      "velocity": 100,
      "chip": "ym2612"
    },
    {
      "channel": 4,
      "note": 87,
      "start": 5.2102,
      "duration": 0.0311,
      "velocity": 127,
      "chip": "ym2612"
    },
    {
      "channel": 1,
      "note": 80,
      "start": 5.2349,
      "duration": 0.0322,
      "velocity": 127,
      "chip": "ym2612"
    },
    {
      "channel": 4,
      "note": 87,
      "start": 5.2412,
      "duration": 0.0327,
      "velocity": 127,
      "chip": "ym2612"
    },
    {
      "channel": 1,
      "note": 75,
      "start": 5.2672,
      "duration": 0.0637,
      "velocity": 127,
      "chip": "ym2612"
    },
    {
      "channel": 2,
      "note": 57,
      "start": 5.2673,
      "duration": 0.0081,
      "velocity": 101,
      "chip": "ym2612"
    },
    {
      "channel": 3,
      "note": 69,
      "start": 5.2723,
      "duration": 0.0032,
      "velocity": 100,
      "chip": "ym2612"
    },
    {
      "channel": 4,
      "note": 87,
      "start": 5.274,
      "duration": 0.0255,
      "velocity": 127,
      "chip": "ym2612"
    },
    {
      "channel": 4,
      "note": 87,
      "start": 5.2995,
      "duration": 0.038,
      "velocity": 127,
      "chip": "ym2612"
    },
    {
      "channel": 0,
      "note": 55,
      "start": 5.3292,
      "duration": 0.0661,
      "velocity": 102,
      "chip": "ym2612"
    },
    {
      "channel": 1,
      "note": 80,
      "start": 5.331,
      "duration": 0.0326,
      "velocity": 127,
      "chip": "ym2612"
    },
    {
      "channel": 2,
      "note": 55,
      "start": 5.3361,
      "duration": 0.0656,
      "velocity": 101,
      "chip": "ym2612"
    },
    {
      "channel": 3,
      "note": 67,
      "start": 5.3363,
      "duration": 0.0655,
      "velocity": 100,
      "chip": "ym2612"
    },
    {
      "channel": 4,
      "note": 87,
      "start": 5.3376,
      "duration": 0.0325,
      "velocity": 127,
      "chip": "ym2612"
    },
    {
      "channel": 1,
      "note": 80,
      "start": 5.3636,
      "duration": 0.0331,
      "velocity": 127,
      "chip": "ym2612"
    },
    {
      "channel": 4,
      "note": 87,
      "start": 5.3702,
      "duration": 0.0334,
      "velocity": 127,
      "chip": "ym2612"
    },
    {
      "channel": 0,
      "note": 57,
      "start": 5.3954,
      "duration": 0.045,
      "velocity": 102,
      "chip": "ym2612"
    },
    {
      "channel": 1,
      "note": 73,
      "start": 5.3967,
      "duration": 0.0638,
      "velocity": 127,
      "chip": "ym2612"
    },
    {
      "channel": 2,
      "note": 57,
      "start": 5.4017,
      "duration": 0.059,
      "velocity": 101,
      "chip": "ym2612"
    },
    {
      "channel": 3,
      "note": 69,
      "start": 5.4019,
      "duration": 0.1307,
      "velocity": 100,
      "chip": "ym2612"
    },
    {
      "channel": 4,
      "note": 87,
      "start": 5.4036,
      "duration": 0.0248,
      "velocity": 127,
      "chip": "ym2612"
    },
    {
      "channel": 4,
      "note": 87,
      "start": 5.4284,
      "duration": 0.039,
      "velocity": 127,
      "chip": "ym2612"
    },
    {
      "channel": 0,
      "note": 49,
      "start": 5.4588,
      "duration": 0.1311,
      "velocity": 102,
      "chip": "ym2612"
    },
    {
      "channel": 1,
      "note": 73,
      "start": 5.4606,
      "duration": 0.0342,
      "velocity": 127,
      "chip": "ym2612"
    },
    {
      "channel": 2,
      "note": 61,
      "start": 5.4608,
      "duration": 0.0143,
      "velocity": 101,
      "chip": "ym2612"
    },
    {
      "channel": 4,
      "note": 87,
      "start": 5.4675,
      "duration": 0.0338,
      "velocity": 127,
      "chip": "ym2612"
    },
    {
      "channel": 1,
      "note": 80,
      "start": 5.4948,
      "duration": 0.0322,
      "velocity": 127,
      "chip": "ym2612"
    },
    {
      "channel": 4,
      "note": 87,
      "start": 5.5013,
      "duration": 0.0329,
      "velocity": 127,
      "chip": "ym2612"
    },
    {
      "channel": 1,
      "note": 75,
      "start": 5.5271,
      "duration": 0.0641,
      "velocity": 127,
      "chip": "ym2612"
    },
    {
      "channel": 2,
      "note": 49,
      "start": 5.5274,
      "duration": 0.0205,
      "velocity": 101,
      "chip": "ym2612"
    },
    {
      "channel": 3,
      "note": 67,
      "start": 5.5327,
      "duration": 0.0273,
      "velocity": 100,
      "chip": "ym2612"
    },
    {
      "channel": 4,
      "note": 87,
      "start": 5.5343,
      "duration": 0.0256,
      "velocity": 127,
      "chip": "ym2612"
    },
    {
      "channel": 4,
      "note": 87,
      "start": 5.56,
      "duration": 0.0378,
      "velocity": 127,
      "chip": "ym2612"
    },
    {
      "channel": 0,
      "note": 50,
      "start": 5.59,
      "duration": 0.1285,
      "velocity": 102,
      "chip": "ym2612"
    },
    {
      "channel": 1,
      "note": 73,
      "start": 5.5913,
      "duration": 0.0325,
      "velocity": 127,
      "chip": "ym2612"
    },
    {
      "channel": 2,
      "note": 50,
      "start": 5.5963,
      "duration": 0.1241,
      "velocity": 101,
      "chip": "ym2612"
    },
    {
      "channel": 3,
      "note": 63,
      "start": 5.5966,
      "duration": 0.129,
      "velocity": 100,
      "chip": "ym2612"
    },
    {
      "channel": 4,
      "note": 87,
      "start": 5.5978,
      "duration": 0.0324,
      "velocity": 127,
      "chip": "ym2612"
    },
    {
      "channel": 1,
      "note": 80,
      "start": 5.6238,
      "duration": 0.0328,
      "velocity": 127,
      "chip": "ym2612"
    },
    {
      "channel": 4,
      "note": 87,
      "start": 5.6303,
      "duration": 0.033,
      "velocity": 127,
      "chip": "ym2612"
    },
    {
      "channel": 1,
      "note": 80,
      "start": 5.6567,
      "duration": 0.0322,
      "velocity": 127,
      "chip": "ym2612"
    },
    {
      "channel": 4,
      "note": 87,
      "start": 5.6634,
      "duration": 0.0306,
      "velocity": 127,
      "chip": "ym2612"
    },
    {
      "channel": 1,
      "note": 80,
      "start": 5.6889,
      "duration": 0.0313,
      "velocity": 127,
      "chip": "ym2612"
    },
    {
      "channel": 4,
      "note": 87,
      "start": 5.694,
      "duration": 0.0329,
      "velocity": 127,
      "chip": "ym2612"
    },
    {
      "channel": 0,
      "note": 52,
      "start": 5.7185,
      "duration": 0.066,
      "velocity": 102,
      "chip": "ym2612"
    },
    {
      "channel": 1,
      "note": 73,
      "start": 5.7202,
      "duration": 0.0335,
      "velocity": 127,
      "chip": "ym2612"
    },
    {
      "channel": 2,
      "note": 52,
      "start": 5.7205,
      "duration": 0.026,
      "velocity": 101,
      "chip": "ym2612"
    },
    {
      "channel": 3,
      "note": 64,
      "start": 5.7256,
      "duration": 0.0357,
      "velocity": 100,
      "chip": "ym2612"
    },
    {
      "channel": 4,
      "note": 87,
      "start": 5.7269,
      "duration": 0.0334,
      "velocity": 127,
      "chip": "ym2612"
    },
    {
      "channel": 1,
      "note": 80,
      "start": 5.7538,
      "duration": 0.0324,
      "velocity": 127,
      "chip": "ym2612"
    },
    {
      "channel": 4,
      "note": 87,
      "start": 5.7604,
      "duration": 0.0329,
      "velocity": 127,
      "chip": "ym2612"
    },
    {
      "channel": 0,
      "note": 55,
      "start": 5.7845,
      "duration": 0.0409,
      "velocity": 102,
      "chip": "ym2612"
    },
    {
      "channel": 1,
      "note": 75,
      "start": 5.7863,
      "duration": 0.0651,
      "velocity": 127,
      "chip": "ym2612"
    },
    {
      "channel": 2,
      "note": 55,
      "start": 5.7914,
      "duration": 0.0217,
      "velocity": 101,
      "chip": "ym2612"
    },
    {
      "channel": 3,
      "note": 67,
      "start": 5.7917,
      "duration": 0.0652,
      "velocity": 100,
      "chip": "ym2612"
    },
    {
      "channel": 4,
      "note": 87,
      "start": 5.7933,
      "duration": 0.026,
      "velocity": 127,
      "chip": "ym2612"
    },
    {
      "channel": 4,
      "note": 87,
      "start": 5.8194,
      "duration": 0.0388,
      "velocity": 127,
      "chip": "ym2612"
    },
    {
      "channel": 0,
      "note": 50,
      "start": 5.8498,
      "duration": 0.1289,
      "velocity": 102,
      "chip": "ym2612"
    },
    {
      "channel": 1,
      "note": 80,
      "start": 5.8515,
      "duration": 0.0307,
      "velocity": 127,
      "chip": "ym2612"
    },
    {
      "channel": 2,
      "note": 50,
      "start": 5.8567,
      "duration": 0.1289,
      "velocity": 101,
      "chip": "ym2612"
    },
    {
      "channel": 3,
      "note": 63,
      "start": 5.8569,
      "duration": 0.1289,
      "velocity": 100,
      "chip": "ym2612"
    },
    {
      "channel": 4,
      "note": 87,
      "start": 5.8582,
      "duration": 0.0304,
      "velocity": 127,
      "chip": "ym2612"
    },
    {
      "channel": 1,
      "note": 80,
      "start": 5.8823,
      "duration": 0.033,
      "velocity": 127,
      "chip": "ym2612"
    },
    {
      "channel": 4,
      "note": 87,
      "start": 5.8887,
      "duration": 0.0333,
      "velocity": 127,
      "chip": "ym2612"
    },
    {
      "channel": 1,
      "note": 75,
      "start": 5.9154,
      "duration": 0.0332,
      "velocity": 127,
      "chip": "ym2612"
    },
    {
      "channel": 4,
      "note": 87,
      "start": 5.9221,
      "duration": 0.0317,
      "velocity": 127,
      "chip": "ym2612"
    },
    {
      "channel": 1,
      "note": 75,
      "start": 5.9487,
      "duration": 0.0318,
      "velocity": 127,
      "chip": "ym2612"
    },
    {
      "channel": 4,
      "note": 87,
      "start": 5.9538,
      "duration": 0.0333,
      "velocity": 127,
      "chip": "ym2612"
    },
    {
      "channel": 0,
      "note": 52,
      "start": 5.9788,
      "duration": 0.0668,
      "velocity": 102,
      "chip": "ym2612"
    },
    {
      "channel": 1,
      "note": 73,
      "start": 5.9806,
      "duration": 0.0337,
      "velocity": 127,
      "chip": "ym2612"
    },
    {
      "channel": 2,
      "note": 52,
      "start": 5.9857,
      "duration": 0.0211,
      "velocity": 101,
      "chip": "ym2612"
    },
    {
      "channel": 3,
      "note": 64,
      "start": 5.9859,
      "duration": 0.0363,
      "velocity": 100,
      "chip": "ym2612"
    },
    {
      "channel": 4,
      "note": 87,
      "start": 5.9872,
      "duration": 0.0336,
      "velocity": 127,
      "chip": "ym2612"
    },
    {
      "channel": 1,
      "note": 73,
      "start": 6.0143,
      "duration": 0.0329,
      "velocity": 127,
      "chip": "ym2612"
    },
    {
      "channel": 4,
      "note": 87,
      "start": 6.0209,
      "duration": 0.0333,
      "velocity": 127,
      "chip": "ym2612"
    },
    {
      "channel": 0,
      "note": 55,
      "start": 6.0456,
      "duration": 0.0424,
      "velocity": 102,
      "chip": "ym2612"
    },
    {
      "channel": 1,
      "note": 75,
      "start": 6.0473,
      "duration": 0.0342,
      "velocity": 127,
      "chip": "ym2612"
    },
    {
      "channel": 2,
      "note": 55,
      "start": 6.0523,
      "duration": 0.0216,
      "velocity": 101,
      "chip": "ym2612"
    },
    {
      "channel": 3,
      "note": 67,
      "start": 6.0526,
      "duration": 0.0676,
      "velocity": 100,
      "chip": "ym2612"
    },
    {
      "channel": 4,
      "note": 87,
      "start": 6.0543,
      "duration": 0.0324,
      "velocity": 127,
      "chip": "ym2612"
    },
    {
      "channel": 1,
      "note": 75,
      "start": 6.0816,
      "duration": 0.0331,
      "velocity": 127,
      "chip": "ym2612"
    },
    {
      "channel": 4,
      "note": 87,
      "start": 6.0868,
      "duration": 0.0347,
      "velocity": 127,
      "chip": "ym2612"
    },
    {
      "channel": 0,
      "note": 52,
      "start": 6.113,
      "duration": 0.0654,
      "velocity": 102,
      "chip": "ym2612"
    },
    {
      "channel": 1,
      "note": 80,
      "start": 6.1148,
      "duration": 0.0316,
      "velocity": 127,
      "chip": "ym2612"
    },
    {
      "channel": 2,
      "note": 52,
      "start": 6.12,
      "duration": 0.0654,
      "velocity": 101,
      "chip": "ym2612"
    },
    {
      "channel": 3,
      "note": 64,
      "start": 6.1202,
      "duration": 0.0192,
      "velocity": 100,
      "chip": "ym2612"
    },
    {
      "channel": 4,
      "note": 87,
      "start": 6.1215,
      "duration": 0.0315,
      "velocity": 127,
      "chip": "ym2612"
    },
    {
      "channel": 1,
      "note": 75,
      "start": 6.1465,
      "duration": 0.0386,
      "velocity": 127,
      "chip": "ym2612"
    },
    {
      "channel": 4,
      "note": 87,
      "start": 6.153,
      "duration": 0.0355,
      "velocity": 112,
      "chip": "ym2612"
    },
    {
      "channel": 0,
      "note": 56,
      "start": 6.1785,
      "duration": 0.0688,
      "velocity": 102,
      "chip": "ym2612"
    },
    {
      "channel": 1,
      "note": 73,
      "start": 6.1852,
      "duration": 0.0635,
      "velocity": 127,
      "chip": "ym2612"
    },
    {
      "channel": 2,
      "note": 56,
      "start": 6.1855,
      "duration": 0.0635,
      "velocity": 101,
      "chip": "ym2612"
    },
    {
      "channel": 3,
      "note": 68,
      "start": 6.1857,
      "duration": 0.0684,
      "velocity": 100,
      "chip": "ym2612"
    },
    {
      "channel": 4,
      "note": 46,
      "start": 6.1886,
      "duration": 1.0061,
      "velocity": 112,
      "chip": "ym2612"
    },
    {
      "channel": 0,
      "note": 58,
      "start": 6.2474,
      "duration": 0.068,
      "velocity": 102,
      "chip": "ym2612"
    },
    {
      "channel": 1,
      "note": 80,
      "start": 6.2488,
      "duration": 0.0302,
      "velocity": 127,
      "chip": "ym2612"
    },
    {
      "channel": 2,
      "note": 58,
      "start": 6.249,
      "duration": 0.024,
      "velocity": 101,
      "chip": "ym2612"
    },
    {
      "channel": 3,
      "note": 70,
      "start": 6.2541,
      "duration": 0.0604,
      "velocity": 100,
      "chip": "ym2612"
    },
    {
      "channel": 1,
      "note": 80,
      "start": 6.2791,
      "duration": 0.0302,
      "velocity": 127,
      "chip": "ym2612"
    },
    {
      "channel": 1,
      "note": 75,
      "start": 6.3094,
      "duration": 0.0622,
      "velocity": 127,
      "chip": "ym2612"
    },
    {
      "channel": 2,
      "note": 58,
      "start": 6.3096,
      "duration": 0.0061,
      "velocity": 101,
      "chip": "ym2612"
    },
    {
      "channel": 3,
      "note": 70,
      "start": 6.3146,
      "duration": 0.0011,
      "velocity": 100,
      "chip": "ym2612"
    },
    {
      "channel": 0,
      "note": 56,
      "start": 6.3699,
      "duration": 0.0624,
      "velocity": 102,
      "chip": "ym2612"
    },
    {
      "channel": 1,
      "note": 80,
      "start": 6.3717,
      "duration": 0.0305,
      "velocity": 127,
      "chip": "ym2612"
    },
    {
      "channel": 2,
      "note": 56,
      "start": 6.3768,
      "duration": 0.0622,
      "velocity": 101,
      "chip": "ym2612"
    },
    {
      "channel": 3,
      "note": 68,
      "start": 6.3771,
      "duration": 0.0622,
      "velocity": 100,
      "chip": "ym2612"
    },
    {
      "channel": 1,
      "note": 80,
      "start": 6.4023,
      "duration": 0.0318,
      "velocity": 127,
      "chip": "ym2612"
    },
    {
      "channel": 0,
      "note": 58,
      "start": 6.4324,
      "duration": 0.0437,
      "velocity": 102,
      "chip": "ym2612"
    },
    {
      "channel": 1,
      "note": 73,
      "start": 6.434,
      "duration": 0.0618,
      "velocity": 127,
      "chip": "ym2612"
    },
    {
      "channel": 2,
      "note": 58,
      "start": 6.4392,
      "duration": 0.0569,
      "velocity": 101,
      "chip": "ym2612"
    },
    {
      "channel": 3,
      "note": 70,
      "start": 6.4393,
      "duration": 0.1258,
      "velocity": 100,
      "chip": "ym2612"
    },
    {
      "channel": 0,
      "note": 50,
      "start": 6.4942,
      "duration": 0.126,
      "velocity": 102,
      "chip": "ym2612"
    },
    {
      "channel": 1,
      "note": 73,
      "start": 6.4959,
      "duration": 0.0324,
      "velocity": 127,
      "chip": "ym2612"
    },
    {
      "channel": 2,
      "note": 62,
      "start": 6.4962,
      "duration": 0.0126,
      "velocity": 101,
      "chip": "ym2612"
    },
    {
      "channel": 1,
      "note": 80,
      "start": 6.5284,
      "duration": 0.0313,
      "velocity": 127,
      "chip": "ym2612"
    },
    {
      "channel": 1,
      "note": 75,
      "start": 6.5597,
      "duration": 0.0622,
      "velocity": 127,
      "chip": "ym2612"
    },
    {
      "channel": 2,
      "note": 50,
      "start": 6.56,
      "duration": 0.0183,
      "velocity": 101,
      "chip": "ym2612"
    },
    {
      "channel": 3,
      "note": 68,
      "start": 6.5652,
      "duration": 0.025,
      "velocity": 100,
      "chip": "ym2612"
    },
    {
      "channel": 0,
      "note": 51,
      "start": 6.6202,
      "duration": 0.1241,
      "velocity": 102,
      "chip": "ym2612"
    },
    {
      "channel": 1,
      "note": 73,
      "start": 6.6219,
      "duration": 0.0312,
      "velocity": 127,
      "chip": "ym2612"
    },
    {
      "channel": 2,
      "note": 51,
      "start": 6.627,
      "duration": 0.1193,
      "velocity": 101,
      "chip": "ym2612"
    },
    {
      "channel": 3,
      "note": 64,
      "start": 6.6272,
      "duration": 0.1243,
      "velocity": 100,
      "chip": "ym2612"
    },
    {
      "channel": 1,
      "note": 80,
      "start": 6.6532,
      "duration": 0.031,
      "velocity": 127,
      "chip": "ym2612"
    },
    {
      "channel": 1,
      "note": 80,
      "start": 6.6843,
      "duration": 0.031,
      "velocity": 127,
      "chip": "ym2612"
    },
    {
      "channel": 1,
      "note": 80,
      "start": 6.7154,
      "duration": 0.0307,
      "velocity": 127,
      "chip": "ym2612"
    },
    {
      "channel": 0,
      "note": 53,
      "start": 6.7444,
      "duration": 0.0634,
      "velocity": 102,
      "chip": "ym2612"
    },
    {
      "channel": 1,
      "note": 73,
      "start": 6.7461,
      "duration": 0.0322,
      "velocity": 127,
      "chip": "ym2612"
    },
    {
      "channel": 2,
      "note": 53,
      "start": 6.7463,
      "duration": 0.0249,
      "velocity": 101,
      "chip": "ym2612"
    },
    {
      "channel": 3,
      "note": 65,
      "start": 6.7516,
      "duration": 0.0329,
      "velocity": 100,
      "chip": "ym2612"
    },
    {
      "channel": 1,
      "note": 80,
      "start": 6.7784,
      "duration": 0.0311,
      "velocity": 127,
      "chip": "ym2612"
    },
    {
      "channel": 0,
      "note": 56,
      "start": 6.8078,
      "duration": 0.0387,
      "velocity": 102,
      "chip": "ym2612"
    },
    {
      "channel": 1,
      "note": 75,
      "start": 6.8095,
      "duration": 0.0632,
      "velocity": 127,
      "chip": "ym2612"
    },
    {
      "channel": 2,
      "note": 56,
      "start": 6.8147,
      "duration": 0.0195,
      "velocity": 101,
      "chip": "ym2612"
    },
    {
      "channel": 3,
      "note": 68,
      "start": 6.8149,
      "duration": 0.0631,
      "velocity": 100,
      "chip": "ym2612"
    },
    {
      "channel": 0,
      "note": 51,
      "start": 6.8711,
      "duration": 0.1253,
      "velocity": 102,
      "chip": "ym2612"
    },
    {
      "channel": 1,
      "note": 80,
      "start": 6.8728,
      "duration": 0.0307,
      "velocity": 127,
      "chip": "ym2612"
    },
    {
      "channel": 2,
      "note": 51,
      "start": 6.8778,
      "duration": 0.1205,
      "velocity": 101,
      "chip": "ym2612"
    },
    {
      "channel": 3,
      "note": 64,
      "start": 6.8781,
      "duration": 0.1254,
      "velocity": 100,
      "chip": "ym2612"
    },
    {
      "channel": 1,
      "note": 75,
      "start": 6.9035,
      "duration": 0.0315,
      "velocity": 127,
      "chip": "ym2612"
    },
    {
      "channel": 1,
      "note": 73,
      "start": 6.9351,
      "duration": 0.0318,
      "velocity": 127,
      "chip": "ym2612"
    },
    {
      "channel": 1,
      "note": 75,
      "start": 6.967,
      "duration": 0.0311,
      "velocity": 127,
      "chip": "ym2612"
    },
    {
      "channel": 0,
      "note": 53,
      "start": 6.9964,
      "duration": 0.0643,
      "velocity": 102,
      "chip": "ym2612"
    },
    {
      "channel": 1,
      "note": 73,
      "start": 6.9981,
      "duration": 0.0326,
      "velocity": 127,
      "chip": "ym2612"
    },
    {
      "channel": 2,
      "note": 53,
      "start": 6.9984,
      "duration": 0.0248,
      "velocity": 101,
      "chip": "ym2612"
    },
    {
      "channel": 3,
      "note": 65,
      "start": 7.0036,
      "duration": 0.0333,
      "velocity": 100,
      "chip": "ym2612"
    },
    {
      "channel": 1,
      "note": 80,
      "start": 7.0308,
      "duration": 0.0316,
      "velocity": 127,
      "chip": "ym2612"
    },
    {
      "channel": 0,
      "note": 56,
      "start": 7.0606,
      "duration": 0.0389,
      "velocity": 102,
      "chip": "ym2612"
    },
    {
      "channel": 1,
      "note": 75,
      "start": 7.0624,
      "duration": 0.0636,
      "velocity": 127,
      "chip": "ym2612"
    },
    {
      "channel": 2,
      "note": 56,
      "start": 7.0676,
      "duration": 0.0197,
      "velocity": 101,
      "chip": "ym2612"
    },
    {
      "channel": 3,
      "note": 68,
      "start": 7.0678,
      "duration": 0.0636,
      "velocity": 100,
      "chip": "ym2612"
    },
    {
      "channel": 0,
      "note": 53,
      "start": 7.1244,
      "duration": 0.0627,
      "velocity": 102,
      "chip": "ym2612"
    },
    {
      "channel": 1,
      "note": 80,
      "start": 7.1261,
      "duration": 0.0308,
      "velocity": 127,
      "chip": "ym2612"
    },
    {
      "channel": 2,
      "note": 53,
      "start": 7.1313,
      "duration": 0.0628,
      "velocity": 101,
      "chip": "ym2612"
    },
    {
      "channel": 3,
      "note": 65,
      "start": 7.1315,
      "duration": 0.0184,
      "velocity": 100,
      "chip": "ym2612"
    },
    {
      "channel": 1,
      "note": 75,
      "start": 7.157,
      "duration": 0.0319,
      "velocity": 127,
      "chip": "ym2612"
    },
    {
      "channel": 0,
      "note": 56,
      "start": 7.1871,
      "duration": 0.0617,
      "velocity": 102,
      "chip": "ym2612"
    },
    {
      "channel": 1,
      "note": 73,
      "start": 7.1889,
      "duration": 0.0613,
      "velocity": 127,
      "chip": "ym2612"
    },
    {
      "channel": 2,
      "note": 56,
      "start": 7.1941,
      "duration": 0.0563,
      "velocity": 101,
      "chip": "ym2612"
    },
    {
      "channel": 3,
      "note": 68,
      "start": 7.1944,
      "duration": 0.0611,
      "velocity": 100,
      "chip": "ym2612"
    },
    {
      "channel": 4,
      "note": 50,
      "start": 7.1946,
      "duration": 1.0023,
      "velocity": 112,
      "chip": "ym2612"
    },
    {
      "channel": 0,
      "note": 58,
      "start": 7.2489,
      "duration": 0.0685,
      "velocity": 102,
      "chip": "ym2612"
    },
    {
      "channel": 1,
      "note": 80,
      "start": 7.2502,
      "duration": 0.0302,
      "velocity": 127,
      "chip": "ym2612"
    },
    {
      "channel": 2,
      "note": 58,
      "start": 7.2505,
      "duration": 0.024,
      "velocity": 101,
      "chip": "ym2612"
    },
    {
      "channel": 3,
      "note": 70,
      "start": 7.2555,
      "duration": 0.0608,
      "velocity": 100,
      "chip": "ym2612"
    },
    {
      "channel": 1,
      "note": 80,
      "start": 7.2805,
      "duration": 0.0306,
      "velocity": 127,
      "chip": "ym2612"
    },
    {
      "channel": 1,
      "note": 75,
      "start": 7.3112,
      "duration": 0.0616,
      "velocity": 127,
      "chip": "ym2612"
    },
    {
      "channel": 2,
      "note": 58,
      "start": 7.3114,
      "duration": 0.0062,
      "velocity": 101,
      "chip": "ym2612"
    },
    {
      "channel": 3,
      "note": 70,
      "start": 7.3164,
      "duration": 0.0012,
      "velocity": 100,
      "chip": "ym2612"
    },
    {
      "channel": 0,
      "note": 56,
      "start": 7.3712,
      "duration": 0.0622,
      "velocity": 102,
      "chip": "ym2612"
    },
    {
      "channel": 1,
      "note": 80,
      "start": 7.3729,
      "duration": 0.0312,
      "velocity": 127,
      "chip": "ym2612"
    },
    {
      "channel": 2,
      "note": 56,
      "start": 7.378,
      "duration": 0.0572,
      "velocity": 101,
      "chip": "ym2612"
    },
    {
      "channel": 3,
      "note": 68,
      "start": 7.3783,
      "duration": 0.0619,
      "velocity": 100,
      "chip": "ym2612"
    },
    {
      "channel": 1,
      "note": 80,
      "start": 7.4042,
      "duration": 0.0308,
      "velocity": 127,
      "chip": "ym2612"
    },
    {
      "channel": 0,
      "note": 58,
      "start": 7.4334,
      "duration": 0.0443,
      "velocity": 102,
      "chip": "ym2612"
    },
    {
      "channel": 1,
      "note": 73,
      "start": 7.4351,
      "duration": 0.062,
      "velocity": 127,
      "chip": "ym2612"
    },
    {
      "channel": 2,
      "note": 58,
      "start": 7.4353,
      "duration": 0.062,
      "velocity": 101,
      "chip": "ym2612"
    },
    {
      "channel": 3,
      "note": 70,
      "start": 7.4403,
      "duration": 0.1266,
      "velocity": 100,
      "chip": "ym2612"
    },
    {
      "channel": 0,
      "note": 50,
      "start": 7.4954,
      "duration": 0.1262,
      "velocity": 102,
      "chip": "ym2612"
    },
    {
      "channel": 1,
      "note": 73,
      "start": 7.4971,
      "duration": 0.0324,
      "velocity": 127,
      "chip": "ym2612"
    },
    {
      "channel": 2,
      "note": 62,
      "start": 7.4973,
      "duration": 0.0123,
      "velocity": 101,
      "chip": "ym2612"
    },
    {
      "channel": 1,
      "note": 80,
      "start": 7.5296,
      "duration": 0.0319,
      "velocity": 127,
      "chip": "ym2612"
    },
    {
      "channel": 1,
      "note": 75,
      "start": 7.5616,
      "duration": 0.0617,
      "velocity": 127,
      "chip": "ym2612"
    },
    {
      "channel": 2,
      "note": 50,
      "start": 7.5618,
      "duration": 0.0181,
      "velocity": 101,
      "chip": "ym2612"
    },
    {
      "channel": 3,
      "note": 68,
      "start": 7.567,
      "duration": 0.0245,
      "velocity": 100,
      "chip": "ym2612"
    },
    {
      "channel": 0,
      "note": 51,
      "start": 7.6217,
      "duration": 0.1242,
      "velocity": 102,
      "chip": "ym2612"
    },
    {
      "channel": 1,
      "note": 73,
      "start": 7.6233,
      "duration": 0.0315,
      "velocity": 127,
      "chip": "ym2612"
    },
    {
      "channel": 2,
      "note": 51,
      "start": 7.6284,
      "duration": 0.1195,
      "velocity": 101,
      "chip": "ym2612"
    },
    {
      "channel": 3,
      "note": 64,
      "start": 7.6286,
      "duration": 0.1245,
      "velocity": 100,
      "chip": "ym2612"
    },
    {
      "channel": 1,
      "note": 80,
      "start": 7.6549,
      "duration": 0.0305,
      "velocity": 127,
      "chip": "ym2612"
    },
    {
      "channel": 1,
      "note": 80,
      "start": 7.6855,
      "duration": 0.0314,
      "velocity": 127,
      "chip": "ym2612"
    },
    {
      "channel": 1,
      "note": 80,
      "start": 7.7169,
      "duration": 0.0306,
      "velocity": 127,
      "chip": "ym2612"
    },
    {
      "channel": 0,
      "note": 53,
      "start": 7.7459,
      "duration": 0.0637,
      "velocity": 102,
      "chip": "ym2612"
    },
    {
      "channel": 1,
      "note": 73,
      "start": 7.7476,
      "duration": 0.0316,
      "velocity": 127,
      "chip": "ym2612"
    },
    {
      "channel": 2,
      "note": 53,
      "start": 7.7479,
      "duration": 0.0242,
      "velocity": 101,
      "chip": "ym2612"
    },
    {
      "channel": 3,
      "note": 65,
      "start": 7.7532,
      "duration": 0.0324,
      "velocity": 100,
      "chip": "ym2612"
    },
    {
      "channel": 1,
      "note": 80,
      "start": 7.7793,
      "duration": 0.032,
      "velocity": 127,
      "chip": "ym2612"
    },
    {
      "channel": 0,
      "note": 56,
      "start": 7.8096,
      "duration": 0.0385,
      "velocity": 102,
      "chip": "ym2612"
    },
    {
      "channel": 1,
      "note": 75,
      "start": 7.8114,
      "duration": 0.0632,
      "velocity": 127,
      "chip": "ym2612"
    },
    {
      "channel": 2,
      "note": 56,
      "start": 7.8166,
      "duration": 0.0195,
      "velocity": 101,
      "chip": "ym2612"
    },
    {
      "channel": 3,
      "note": 68,
      "start": 7.8168,
      "duration": 0.0632,
      "velocity": 100,
      "chip": "ym2612"
    },
    {
      "channel": 0,
      "note": 51,
      "start": 7.8729,
      "duration": 0.1246,
      "velocity": 102,
      "chip": "ym2612"
    },
    {
      "channel": 1,
      "note": 80,
      "start": 7.8746,
      "duration": 0.0303,
      "velocity": 127,
      "chip": "ym2612"
    },
    {
      "channel": 2,
      "note": 51,
      "start": 7.8798,
      "duration": 0.1245,
      "velocity": 101,
      "chip": "ym2612"
    },
    {
      "channel": 3,
      "note": 64,
      "start": 7.8801,
      "duration": 0.1244,
      "velocity": 100,
      "chip": "ym2612"
    },
    {
      "channel": 1,
      "note": 80,
      "start": 7.905,
      "duration": 0.0305,
      "velocity": 127,
      "chip": "ym2612"
    },
    {
      "channel": 1,
      "note": 75,
      "start": 7.9355,
      "duration": 0.0321,
      "velocity": 127,
      "chip": "ym2612"
    },
    {
      "channel": 1,
      "note": 75,
      "start": 7.9677,
      "duration": 0.0316,
      "velocity": 127,
      "chip": "ym2612"
    },
    {
      "channel": 0,
      "note": 53,
      "start": 7.9976,
      "duration": 0.0639,
      "velocity": 102,
      "chip": "ym2612"
    },
    {
      "channel": 1,
      "note": 73,
      "start": 7.9993,
      "duration": 0.0316,
      "velocity": 127,
      "chip": "ym2612"
    },
    {
      "channel": 2,
      "note": 53,
      "start": 8.0044,
      "duration": 0.019,
      "velocity": 101,
      "chip": "ym2612"
    },
    {
      "channel": 3,
      "note": 65,
      "start": 8.0046,
      "duration": 0.0325,
      "velocity": 100,
      "chip": "ym2612"
    },
    {
      "channel": 1,
      "note": 73,
      "start": 8.031,
      "duration": 0.0371,
      "velocity": 127,
      "chip": "ym2612"
    },
    {
      "channel": 0,
      "note": 56,
      "start": 8.0615,
      "duration": 0.0404,
      "velocity": 102,
      "chip": "ym2612"
    },
    {
      "channel": 1,
      "note": 75,
      "start": 8.0681,
      "duration": 0.0277,
      "velocity": 127,
      "chip": "ym2612"
    },
    {
      "channel": 2,
      "note": 56,
      "start": 8.0683,
      "duration": 0.0199,
      "velocity": 101,
      "chip": "ym2612"
    },
    {
      "channel": 3,
      "note": 68,
      "start": 8.0686,
      "duration": 0.0655,
      "velocity": 100,
      "chip": "ym2612"
    },
    {
      "channel": 1,
      "note": 75,
      "start": 8.0959,
      "duration": 0.0329,
      "velocity": 127,
      "chip": "ym2612"
    },
    {
      "channel": 0,
      "note": 53,
      "start": 8.1271,
      "duration": 0.0624,
      "velocity": 102,
      "chip": "ym2612"
    },
    {
      "channel": 1,
      "note": 80,
      "start": 8.1337,
      "duration": 0.0265,
      "velocity": 127,
      "chip": "ym2612"
    },
    {
      "channel": 2,
      "note": 53,
      "start": 8.1339,
      "duration": 0.0625,
      "velocity": 101,
      "chip": "ym2612"
    },
    {
      "channel": 3,
      "note": 65,
      "start": 8.1341,
      "duration": 0.0191,
      "velocity": 100,
      "chip": "ym2612"
    },
    {
      "channel": 1,
      "note": 75,
      "start": 8.1602,
      "duration": 0.036,
      "velocity": 127,
      "chip": "ym2612"
    },
    {
      "channel": 0,
      "note": 58,
      "start": 8.1896,
      "duration": 0.0624,
      "velocity": 102,
      "chip": "ym2612"
    },
    {
      "channel": 1,
      "note": 73,
      "start": 8.1963,
      "duration": 0.0571,
      "velocity": 127,
      "chip": "ym2612"
    },
    {
      "channel": 2,
      "note": 58,
      "start": 8.1965,
      "duration": 0.0571,
      "velocity": 101,
      "chip": "ym2612"
    },
    {
      "channel": 3,
      "note": 70,
      "start": 8.1967,
      "duration": 0.062,
      "velocity": 100,
      "chip": "ym2612"
    },
    {
      "channel": 4,
      "note": 56,
      "start": 8.197,
      "duration": 1.0004,
      "velocity": 112,
      "chip": "ym2612"
    },
    {
      "channel": 0,
      "note": 60,
      "start": 8.252,
      "duration": 0.0687,
      "velocity": 102,
      "chip": "ym2612"
    },
    {
      "channel": 1,
      "note": 80,
      "start": 8.2534,
      "duration": 0.0298,
      "velocity": 127,
      "chip": "ym2612"
    },
    {
      "channel": 2,
      "note": 60,
      "start": 8.2537,
      "duration": 0.0236,
      "velocity": 101,
      "chip": "ym2612"
    },
    {
      "channel": 3,
      "note": 72,
      "start": 8.2587,
      "duration": 0.0607,
      "velocity": 100,
      "chip": "ym2612"
    },
    {
      "channel": 1,
      "note": 80,
      "start": 8.2833,
      "duration": 0.031,
      "velocity": 127,
      "chip": "ym2612"
    },
    {
      "channel": 1,
      "note": 75,
      "start": 8.3144,
      "duration": 0.0613,
      "velocity": 127,
      "chip": "ym2612"
    },
    {
      "channel": 2,
      "note": 60,
      "start": 8.3145,
      "duration": 0.0065,
      "velocity": 101,
      "chip": "ym2612"
    },
    {
      "channel": 3,
      "note": 72,
      "start": 8.3195,
      "duration": 0.0015,
      "velocity": 100,
      "chip": "ym2612"
    },
    {
      "channel": 0,
      "note": 58,
      "start": 8.3739,
      "duration": 0.0627,
      "velocity": 102,
      "chip": "ym2612"
    },
    {
      "channel": 1,
      "note": 80,
      "start": 8.3757,
      "duration": 0.0318,
      "velocity": 127,
      "chip": "ym2612"
    },
    {
      "channel": 2,
      "note": 58,
      "start": 8.3808,
      "duration": 0.0621,
      "velocity": 101,
      "chip": "ym2612"
    },
    {
      "channel": 3,
      "note": 70,
      "start": 8.381,
      "duration": 0.0621,
      "velocity": 100,
      "chip": "ym2612"
    },
    {
      "channel": 1,
      "note": 80,
      "start": 8.4076,
      "duration": 0.0304,
      "velocity": 127,
      "chip": "ym2612"
    },
    {
      "channel": 0,
      "note": 60,
      "start": 8.4367,
      "duration": 0.044,
      "velocity": 102,
      "chip": "ym2612"
    },
    {
      "channel": 1,
      "note": 73,
      "start": 8.438,
      "duration": 0.0624,
      "velocity": 127,
      "chip": "ym2612"
    },
    {
      "channel": 2,
      "note": 60,
      "start": 8.443,
      "duration": 0.0575,
      "velocity": 101,
      "chip": "ym2612"
    },
    {
      "channel": 3,
      "note": 72,
      "start": 8.4432,
      "duration": 0.1262,
      "velocity": 100,
      "chip": "ym2612"
    },
    {
      "channel": 0,
      "note": 52,
      "start": 8.4986,
      "duration": 0.1254,
      "velocity": 102,
      "chip": "ym2612"
    },
    {
      "channel": 1,
      "note": 73,
      "start": 8.5003,
      "duration": 0.0313,
      "velocity": 127,
      "chip": "ym2612"
    },
    {
      "channel": 2,
      "note": 64,
      "start": 8.5006,
      "duration": 0.0121,
      "velocity": 101,
      "chip": "ym2612"
    },
    {
      "channel": 1,
      "note": 80,
      "start": 8.5317,
      "duration": 0.0322,
      "velocity": 127,
      "chip": "ym2612"
    },
    {
      "channel": 1,
      "note": 75,
      "start": 8.564,
      "duration": 0.0618,
      "velocity": 127,
      "chip": "ym2612"
    },
    {
      "channel": 2,
      "note": 52,
      "start": 8.5642,
      "duration": 0.0185,
      "velocity": 101,
      "chip": "ym2612"
    },
    {
      "channel": 3,
      "note": 70,
      "start": 8.5694,
      "duration": 0.025,
      "velocity": 100,
      "chip": "ym2612"
    },
    {
      "channel": 0,
      "note": 53,
      "start": 8.6241,
      "duration": 0.1249,
      "velocity": 102,
      "chip": "ym2612"
    },
    {
      "channel": 1,
      "note": 73,
      "start": 8.6258,
      "duration": 0.0322,
      "velocity": 127,
      "chip": "ym2612"
    },
    {
      "channel": 2,
      "note": 53,
      "start": 8.631,
      "duration": 0.12,
      "velocity": 101,
      "chip": "ym2612"
    },
    {
      "channel": 3,
      "note": 66,
      "start": 8.6312,
      "duration": 0.1251,
      "velocity": 100,
      "chip": "ym2612"
    },
    {
      "channel": 1,
      "note": 80,
      "start": 8.6581,
      "duration": 0.0303,
      "velocity": 127,
      "chip": "ym2612"
    },
    {
      "channel": 1,
      "note": 80,
      "start": 8.6885,
      "duration": 0.031,
      "velocity": 127,
      "chip": "ym2612"
    },
    {
      "channel": 1,
      "note": 80,
      "start": 8.7195,
      "duration": 0.0313,
      "velocity": 127,
      "chip": "ym2612"
    },
    {
      "channel": 0,
      "note": 55,
      "start": 8.749,
      "duration": 0.0632,
      "velocity": 102,
      "chip": "ym2612"
    },
    {
      "channel": 1,
      "note": 73,
      "start": 8.7508,
      "duration": 0.031,
      "velocity": 127,
      "chip": "ym2612"
    },
    {
      "channel": 2,
      "note": 55,
      "start": 8.751,
      "duration": 0.0239,
      "velocity": 101,
      "chip": "ym2612"
    },
    {
      "channel": 3,
      "note": 67,
      "start": 8.7563,
      "duration": 0.0317,
      "velocity": 100,
      "chip": "ym2612"
    },
    {
      "channel": 1,
      "note": 80,
      "start": 8.7819,
      "duration": 0.0317,
      "velocity": 127,
      "chip": "ym2612"
    },
    {
      "channel": 0,
      "note": 58,
      "start": 8.8123,
      "duration": 0.0382,
      "velocity": 102,
      "chip": "ym2612"
    },
    {
      "channel": 1,
      "note": 75,
      "start": 8.8136,
      "duration": 0.0628,
      "velocity": 127,
      "chip": "ym2612"
    },
    {
      "channel": 2,
      "note": 58,
      "start": 8.8188,
      "duration": 0.0201,
      "velocity": 101,
      "chip": "ym2612"
    },
    {
      "channel": 3,
      "note": 70,
      "start": 8.819,
      "duration": 0.0628,
      "velocity": 100,
      "chip": "ym2612"
    },
    {
      "channel": 0,
      "note": 53,
      "start": 8.8747,
      "duration": 0.1263,
      "velocity": 102,
      "chip": "ym2612"
    },
    {
      "channel": 1,
      "note": 80,
      "start": 8.8765,
      "duration": 0.0316,
      "velocity": 127,
      "chip": "ym2612"
    },
    {
      "channel": 2,
      "note": 53,
      "start": 8.8817,
      "duration": 0.1213,
      "velocity": 101,
      "chip": "ym2612"
    },
    {
      "channel": 3,
      "note": 66,
      "start": 8.8819,
      "duration": 0.1263,
      "velocity": 100,
      "chip": "ym2612"
    },
    {
      "channel": 1,
      "note": 75,
      "start": 8.9081,
      "duration": 0.0308,
      "velocity": 127,
      "chip": "ym2612"
    },
    {
      "channel": 1,
      "note": 73,
      "start": 8.9389,
      "duration": 0.0314,
      "velocity": 127,
      "chip": "ym2612"
    },
    {
      "channel": 1,
      "note": 75,
      "start": 8.9704,
      "duration": 0.0324,
      "velocity": 127,
      "chip": "ym2612"
    },
    {
      "channel": 0,
      "note": 55,
      "start": 9.0011,
      "duration": 0.0627,
      "velocity": 102,
      "chip": "ym2612"
    },
    {
      "channel": 1,
      "note": 73,
      "start": 9.0028,
      "duration": 0.0308,
      "velocity": 127,
      "chip": "ym2612"
    },
    {
      "channel": 2,
      "note": 55,
      "start": 9.0031,
      "duration": 0.0237,
      "velocity": 101,
      "chip": "ym2612"
    },
    {
      "channel": 3,
      "note": 67,
      "start": 9.0082,
      "duration": 0.0315,
      "velocity": 100,
      "chip": "ym2612"
    },
    {
      "channel": 1,
      "note": 80,
      "start": 9.0337,
      "duration": 0.0319,
      "velocity": 127,
      "chip": "ym2612"
    },
    {
      "channel": 0,
      "note": 58,
      "start": 9.0639,
      "duration": 0.0387,
      "velocity": 102,
      "chip": "ym2612"
    },
    {
      "channel": 1,
      "note": 75,
      "start": 9.0656,
      "duration": 0.0629,
      "velocity": 127,
      "chip": "ym2612"
    },
    {
      "channel": 2,
      "note": 58,
      "start": 9.0708,
      "duration": 0.02,
      "velocity": 101,
      "chip": "ym2612"
    },
    {
      "channel": 3,
      "note": 70,
      "start": 9.071,
      "duration": 0.0629,
      "velocity": 100,
      "chip": "ym2612"
    },
    {
      "channel": 0,
      "note": 55,
      "start": 9.1269,
      "duration": 0.063,
      "velocity": 102,
      "chip": "ym2612"
    },
    {
      "channel": 1,
      "note": 80,
      "start": 9.1286,
      "duration": 0.0316,
      "velocity": 127,
      "chip": "ym2612"
    },
    {
      "channel": 2,
      "note": 55,
      "start": 9.1337,
      "duration": 0.0632,
      "velocity": 101,
      "chip": "ym2612"
    },
    {
      "channel": 3,
      "note": 67,
      "start": 9.1339,
      "duration": 0.019,
      "velocity": 100,
      "chip": "ym2612"
    },
    {
      "channel": 1,
      "note": 75,
      "start": 9.1602,
      "duration": 0.0315,
      "velocity": 127,
      "chip": "ym2612"
    },
    {
      "channel": 0,
      "note": 60,
      "start": 9.19,
      "duration": 0.0626,
      "velocity": 102,
      "chip": "ym2612"
    },
    {
      "channel": 1,
      "note": 73,
      "start": 9.1918,
      "duration": 0.0622,
      "velocity": 127,
      "chip": "ym2612"
    },
    {
      "channel": 2,
      "note": 60,
      "start": 9.1969,
      "duration": 0.0573,
      "velocity": 101,
      "chip": "ym2612"
    },
    {
      "channel": 3,
      "note": 72,
      "start": 9.1972,
      "duration": 0.0622,
      "velocity": 100,
      "chip": "ym2612"
    },
    {
      "channel": 4,
      "note": 55,
      "start": 9.1974,
      "duration": 0.2466,
      "velocity": 112,
      "chip": "ym2612"
    },
    {
      "channel": 0,
      "note": 62,
      "start": 9.2527,
      "duration": 0.0682,
      "velocity": 102,
      "chip": "ym2612"
    },
    {
      "channel": 1,
      "note": 80,
      "start": 9.254,
      "duration": 0.0293,
      "velocity": 127,
      "chip": "ym2612"
    },
    {
      "channel": 2,
      "note": 62,
      "start": 9.2543,
      "duration": 0.0233,
      "velocity": 101,
      "chip": "ym2612"
    },
    {
      "channel": 3,
      "note": 74,
      "start": 9.2593,
      "duration": 0.0602,
      "velocity": 100,
      "chip": "ym2612"
    },
    {
      "channel": 1,
      "note": 80,
      "start": 9.2833,
      "duration": 0.031,
      "velocity": 127,
      "chip": "ym2612"
    },
    {
      "channel": 1,
      "note": 75,
      "start": 9.3144,
      "duration": 0.061,
      "velocity": 127,
      "chip": "ym2612"
    },
    {
      "channel": 2,
      "note": 62,
      "start": 9.3146,
      "duration": 0.0064,
      "velocity": 101,
      "chip": "ym2612"
    },
    {
      "channel": 3,
      "note": 74,
      "start": 9.3196,
      "duration": 0.0014,
      "velocity": 100,
      "chip": "ym2612"
    },
    {
      "channel": 0,
      "note": 60,
      "start": 9.3737,
      "duration": 0.063,
      "velocity": 102,
      "chip": "ym2612"
    },
    {
      "channel": 1,
      "note": 80,
      "start": 9.3755,
      "duration": 0.0317,
      "velocity": 127,
      "chip": "ym2612"
    },
    {
      "channel": 2,
      "note": 60,
      "start": 9.3807,
      "duration": 0.0629,
      "velocity": 101,
      "chip": "ym2612"
    },
    {
      "channel": 3,
      "note": 72,
      "start": 9.3809,
      "duration": 0.0628,
      "velocity": 100,
      "chip": "ym2612"
    },
    {
      "channel": 1,
      "note": 80,
      "start": 9.4073,
      "duration": 0.0311,
      "velocity": 127,
      "chip": "ym2612"
    },
    {
      "channel": 0,
      "note": 62,
      "start": 9.4367,
      "duration": 0.0447,
      "velocity": 102,
      "chip": "ym2612"
    },
    {
      "channel": 1,
      "note": 73,
      "start": 9.4384,
      "duration": 0.0631,
      "velocity": 127,
      "chip": "ym2612"
    },
    {
      "channel": 2,
      "note": 62,
      "start": 9.4436,
      "duration": 0.0582,
      "velocity": 101,
      "chip": "ym2612"
    },
    {
      "channel": 3,
      "note": 74,
      "start": 9.4437,
      "duration": 0.1259,
      "velocity": 100,
      "chip": "ym2612"
    },
    {
      "channel": 4,
      "note": 54,
      "start": 9.444,
      "duration": 0.2497,
      "velocity": 112,
      "chip": "ym2612"
    },
    {
      "channel": 0,
      "note": 54,
      "start": 9.4999,
      "duration": 0.1241,
      "velocity": 102,
      "chip": "ym2612"
    },
    {
      "channel": 1,
      "note": 73,
      "start": 9.5016,
      "duration": 0.0314,
      "velocity": 127,
      "chip": "ym2612"
    },
    {
      "channel": 2,
      "note": 66,
      "start": 9.5019,
      "duration": 0.0122,
      "velocity": 101,
      "chip": "ym2612"
    },
    {
      "channel": 1,
      "note": 80,
      "start": 9.5331,
      "duration": 0.0311,
      "velocity": 127,
      "chip": "ym2612"
    },
    {
      "channel": 1,
      "note": 75,
      "start": 9.5642,
      "duration": 0.0614,
      "velocity": 127,
      "chip": "ym2612"
    },
    {
      "channel": 2,
      "note": 54,
      "start": 9.5645,
      "duration": 0.0188,
      "velocity": 101,
      "chip": "ym2612"
    },
    {
      "channel": 3,
      "note": 72,
      "start": 9.5697,
      "duration": 0.0256,
      "velocity": 100,
      "chip": "ym2612"
    },
    {
      "channel": 0,
      "note": 55,
      "start": 9.624,
      "duration": 0.1254,
      "velocity": 102,
      "chip": "ym2612"
    },
    {
      "channel": 1,
      "note": 73,
      "start": 9.6257,
      "duration": 0.032,
      "velocity": 127,
      "chip": "ym2612"
    },
    {
      "channel": 2,
      "note": 55,
      "start": 9.6308,
      "duration": 0.1206,
      "velocity": 101,
      "chip": "ym2612"
    },
    {
      "channel": 3,
      "note": 68,
      "start": 9.6311,
      "duration": 0.1256,
      "velocity": 100,
      "chip": "ym2612"
    },
    {
      "channel": 1,
      "note": 80,
      "start": 9.6577,
      "duration": 0.0308,
      "velocity": 127,
      "chip": "ym2612"
    },
    {
      "channel": 1,
      "note": 80,
      "start": 9.6886,
      "duration": 0.0308,
      "velocity": 127,
      "chip": "ym2612"
    },
    {
      "channel": 4,
      "note": 66,
      "start": 9.6937,
      "duration": 0.2499,
      "velocity": 112,
      "chip": "ym2612"
    },
    {
      "channel": 1,
      "note": 80,
      "start": 9.7195,
      "duration": 0.0317,
      "velocity": 127,
      "chip": "ym2612"
    },
    {
      "channel": 0,
      "note": 57,
      "start": 9.7495,
      "duration": 0.0629,
      "velocity": 102,
      "chip": "ym2612"
    },
    {
      "channel": 1,
      "note": 73,
      "start": 9.7512,
      "duration": 0.0315,
      "velocity": 127,
      "chip": "ym2612"
    },
    {
      "channel": 2,
      "note": 57,
      "start": 9.7514,
      "duration": 0.0243,
      "velocity": 101,
      "chip": "ym2612"
    },
    {
      "channel": 3,
      "note": 69,
      "start": 9.7567,
      "duration": 0.0319,
      "velocity": 100,
      "chip": "ym2612"
    },
    {
      "channel": 1,
      "note": 80,
      "start": 9.7827,
      "duration": 0.0313,
      "velocity": 127,
      "chip": "ym2612"
    },
    {
      "channel": 0,
      "note": 60,
      "start": 9.8124,
      "duration": 0.039,
      "velocity": 102,
      "chip": "ym2612"
    },
    {
      "channel": 1,
      "note": 75,
      "start": 9.8141,
      "duration": 0.0627,
      "velocity": 127,
      "chip": "ym2612"
    },
    {
      "channel": 2,
      "note": 60,
      "start": 9.8193,
      "duration": 0.0202,
      "velocity": 101,
      "chip": "ym2612"
    },
    {
      "channel": 3,
      "note": 72,
      "start": 9.8195,
      "duration": 0.0627,
      "velocity": 100,
      "chip": "ym2612"
    },
    {
      "channel": 0,
      "note": 55,
      "start": 9.8751,
      "duration": 0.1254,
      "velocity": 102,
      "chip": "ym2612"
    },
    {
      "channel": 1,
      "note": 80,
      "start": 9.8769,
      "duration": 0.0303,
      "velocity": 127,
      "chip": "ym2612"
    },
    {
      "channel": 2,
      "note": 55,
      "start": 9.8821,
      "duration": 0.1253,
      "velocity": 101,
      "chip": "ym2612"
    },
    {
      "channel": 3,
      "note": 68,
      "start": 9.8823,
      "duration": 0.1253,
      "velocity": 100,
      "chip": "ym2612"
    },
    {
      "channel": 1,
      "note": 80,
      "start": 9.9073,
      "duration": 0.0312,
      "velocity": 127,
      "chip": "ym2612"
    },
    {
      "channel": 1,
      "note": 75,
      "start": 9.9385,
      "duration": 0.0315,
      "velocity": 127,
      "chip": "ym2612"
    },
    {
      "channel": 4,
      "note": 78,
      "start": 9.9437,
      "duration": 0.1932,
      "velocity": 112,
      "chip": "ym2612"
    },
    {
      "channel": 1,
      "note": 75,
      "start": 9.9702,
      "duration": 0.0322,
      "velocity": 127,
      "chip": "ym2612"
    },
    {
      "channel": 0,
      "note": 57,
      "start": 10.0006,
      "duration": 0.0634,
      "velocity": 102,
      "chip": "ym2612"
    },
    {
      "channel": 1,
      "note": 73,
      "start": 10.0024,
      "duration": 0.0317,
      "velocity": 127,
      "chip": "ym2612"
    },
    {
      "channel": 2,
      "note": 57,
      "start": 10.0075,
      "duration": 0.0193,
      "velocity": 101,
      "chip": "ym2612"
    },
    {
      "channel": 3,
      "note": 69,
      "start": 10.0076,
      "duration": 0.0325,
      "velocity": 100,
      "chip": "ym2612"
    },
    {
      "channel": 1,
      "note": 73,
      "start": 10.0341,
      "duration": 0.0317,
      "velocity": 127,
      "chip": "ym2612"
    },
    {
      "channel": 0,
      "note": 60,
      "start": 10.0641,
      "duration": 0.0411,
      "velocity": 102,
      "chip": "ym2612"
    },
    {
      "channel": 1,
      "note": 75,
      "start": 10.0659,
      "duration": 0.0331,
      "velocity": 127,
      "chip": "ym2612"
    },
    {
      "channel": 2,
      "note": 60,
      "start": 10.0709,
      "duration": 0.0203,
      "velocity": 101,
      "chip": "ym2612"
    },
    {
      "channel": 3,
      "note": 72,
      "start": 10.0712,
      "duration": 0.0654,
      "velocity": 100,
      "chip": "ym2612"
    },
    {
      "channel": 1,
      "note": 75,
      "start": 10.099,
      "duration": 0.0321,
      "velocity": 127,
      "chip": "ym2612"
    },
    {
      "channel": 0,
      "note": 57,
      "start": 10.1294,
      "duration": 0.0654,
      "velocity": 102,
      "chip": "ym2612"
    },
    {
      "channel": 1,
      "note": 80,
      "start": 10.1312,
      "duration": 0.0322,
      "velocity": 127,
      "chip": "ym2612"
    },
    {
      "channel": 2,
      "note": 57,
      "start": 10.1363,
      "duration": 0.0653,
      "velocity": 101,
      "chip": "ym2612"
    },
    {
      "channel": 3,
      "note": 69,
      "start": 10.1366,
      "duration": 0.0193,
      "velocity": 100,
      "chip": "ym2612"
    },
    {
      "channel": 4,
      "note": 81,
      "start": 10.1368,
      "duration": 0.0656,
      "velocity": 112,
      "chip": "ym2612"
    },
    {
      "channel": 1,
      "note": 75,
      "start": 10.1634,
      "duration": 0.038,
      "velocity": 127,
      "chip": "ym2612"
    },
    {
      "channel": 0,
      "note": 62,
      "start": 10.1949,
      "duration": 0.0618,
      "velocity": 102,
      "chip": "ym2612"
    },
    {
      "channel": 1,
      "note": 73,
      "start": 10.2015,
      "duration": 0.0566,
      "velocity": 127,
      "chip": "ym2612"
    },
    {
      "channel": 2,
      "note": 62,
      "start": 10.2017,
      "duration": 0.0566,
      "velocity": 101,
      "chip": "ym2612"
    },
    {
      "channel": 3,
      "note": 70,
      "start": 10.202,
      "duration": 0.1231,
      "velocity": 112,
      "chip": "ym2612"
    },
    {
      "channel": 4,
      "note": 62,
      "start": 10.2024,
      "duration": 0.0242,
      "velocity": 112,
      "chip": "ym2612"
    },
    {
      "channel": 4,
      "note": 64,
      "start": 10.2268,
      "duration": 0.0613,
      "velocity": 112,
      "chip": "ym2612"
    },
    {
      "channel": 0,
      "note": 64,
      "start": 10.2568,
      "duration": 0.07,
      "velocity": 102,
      "chip": "ym2612"
    },
    {
      "channel": 1,
      "note": 80,
      "start": 10.2581,
      "duration": 0.0296,
      "velocity": 127,
      "chip": "ym2612"
    },
    {
      "channel": 2,
      "note": 64,
      "start": 10.2584,
      "duration": 0.0236,
      "velocity": 101,
      "chip": "ym2612"
    },
    {
      "channel": 1,
      "note": 80,
      "start": 10.2878,
      "duration": 0.0306,
      "velocity": 127,
      "chip": "ym2612"
    },
    {
      "channel": 4,
      "note": 62,
      "start": 10.2881,
      "duration": 0.0113,
      "velocity": 112,
      "chip": "ym2612"
    },
    {
      "channel": 1,
      "note": 75,
      "start": 10.3185,
      "duration": 0.0642,
      "velocity": 127,
      "chip": "ym2612"
    },
    {
      "channel": 2,
      "note": 64,
      "start": 10.3186,
      "duration": 0.0083,
      "velocity": 101,
      "chip": "ym2612"
    },
    {
      "channel": 3,
      "note": 62,
      "start": 10.3252,
      "duration": 0.0259,
      "velocity": 112,
      "chip": "ym2612"
    },
    {
      "channel": 4,
      "note": 64,
      "start": 10.3255,
      "duration": 0.0258,
      "velocity": 112,
      "chip": "ym2612"
    },
    {
      "channel": 3,
      "note": 64,
      "start": 10.3512,
      "duration": 0.068,
      "velocity": 112,
      "chip": "ym2612"
    },
    {
      "channel": 4,
      "note": 60,
      "start": 10.3514,
      "duration": 0.0365,
      "velocity": 112,
      "chip": "ym2612"
    },
    {
      "channel": 0,
      "note": 62,
      "start": 10.3809,
      "duration": 0.0641,
      "velocity": 102,
      "chip": "ym2612"
    },
    {
      "channel": 1,
      "note": 80,
      "start": 10.3827,
      "duration": 0.0313,
      "velocity": 127,
      "chip": "ym2612"
    },
    {
      "channel": 2,
      "note": 62,
      "start": 10.3877,
      "duration": 0.0636,
      "velocity": 101,
      "chip": "ym2612"
    },
    {
      "channel": 4,
      "note": 62,
      "start": 10.388,
      "duration": 0.0315,
      "velocity": 112,
      "chip": "ym2612"
    },
    {
      "channel": 1,
      "note": 80,
      "start": 10.414,
      "duration": 0.0322,
      "velocity": 127,
      "chip": "ym2612"
    },
    {
      "channel": 3,
      "note": 62,
      "start": 10.4193,
      "duration": 0.0076,
      "velocity": 112,
      "chip": "ym2612"
    },
    {
      "channel": 4,
      "note": 66,
      "start": 10.4195,
      "duration": 0.0323,
      "velocity": 112,
      "chip": "ym2612"
    },
    {
      "channel": 0,
      "note": 64,
      "start": 10.4451,
      "duration": 0.0434,
      "velocity": 102,
      "chip": "ym2612"
    },
    {
      "channel": 1,
      "note": 73,
      "start": 10.4463,
      "duration": 0.0618,
      "velocity": 127,
      "chip": "ym2612"
    },
    {
      "channel": 2,
      "note": 64,
      "start": 10.4514,
      "duration": 0.057,
      "velocity": 101,
      "chip": "ym2612"
    },
    {
      "channel": 3,
      "note": 64,
      "start": 10.4516,
      "duration": 0.0245,
      "velocity": 112,
      "chip": "ym2612"
    },
    {
      "channel": 4,
      "note": 64,
      "start": 10.4519,
      "duration": 0.0068,
      "velocity": 112,
      "chip": "ym2612"
    },
    {
      "channel": 3,
      "note": 60,
      "start": 10.4762,
      "duration": 0.0373,
      "velocity": 112,
      "chip": "ym2612"
    },
    {
      "channel": 4,
      "note": 62,
      "start": 10.4764,
      "duration": 0.0373,
      "velocity": 112,
      "chip": "ym2612"
    },
    {
      "channel": 0,
      "note": 56,
      "start": 10.5064,
      "duration": 0.1265,
      "velocity": 102,
      "chip": "ym2612"
    },
    {
      "channel": 1,
      "note": 73,
      "start": 10.5082,
      "duration": 0.0323,
      "velocity": 127,
      "chip": "ym2612"
    },
    {
      "channel": 2,
      "note": 68,
      "start": 10.5084,
      "duration": 0.0127,
      "velocity": 101,
      "chip": "ym2612"
    },
    {
      "channel": 3,
      "note": 62,
      "start": 10.5135,
      "duration": 0.0322,
      "velocity": 112,
      "chip": "ym2612"
    },
    {
      "channel": 4,
      "note": 64,
      "start": 10.5138,
      "duration": 0.0322,
      "velocity": 112,
      "chip": "ym2612"
    },
    {
      "channel": 1,
      "note": 80,
      "start": 10.5406,
      "duration": 0.0309,
      "velocity": 127,
      "chip": "ym2612"
    },
    {
      "channel": 3,
      "note": 66,
      "start": 10.5458,
      "duration": 0.031,
      "velocity": 112,
      "chip": "ym2612"
    },
    {
      "channel": 4,
      "note": 60,
      "start": 10.546,
      "duration": 0.031,
      "velocity": 112,
      "chip": "ym2612"
    },
    {
      "channel": 1,
      "note": 75,
      "start": 10.5716,
      "duration": 0.0631,
      "velocity": 127,
      "chip": "ym2612"
    },
    {
      "channel": 2,
      "note": 56,
      "start": 10.5718,
      "duration": 0.0188,
      "velocity": 101,
      "chip": "ym2612"
    },
    {
      "channel": 3,
      "note": 64,
      "start": 10.5769,
      "duration": 0.0076,
      "velocity": 112,
      "chip": "ym2612"
    },
    {
      "channel": 4,
      "note": 62,
      "start": 10.5771,
      "duration": 0.0259,
      "velocity": 112,
      "chip": "ym2612"
    },
    {
      "channel": 3,
      "note": 62,
      "start": 10.6029,
      "duration": 0.0372,
      "velocity": 112,
      "chip": "ym2612"
    },
    {
      "channel": 4,
      "note": 64,
      "start": 10.6031,
      "duration": 0.0372,
      "velocity": 112,
      "chip": "ym2612"
    },
    {
      "channel": 0,
      "note": 57,
      "start": 10.6329,
      "duration": 0.1272,
      "velocity": 102,
      "chip": "ym2612"
    },
    {
      "channel": 1,
      "note": 73,
      "start": 10.6347,
      "duration": 0.0323,
      "velocity": 127,
      "chip": "ym2612"
    },
    {
      "channel": 2,
      "note": 57,
      "start": 10.6398,
      "duration": 0.1222,
      "velocity": 101,
      "chip": "ym2612"
    },
    {
      "channel": 3,
      "note": 64,
      "start": 10.6401,
      "duration": 0.0321,
      "velocity": 112,
      "chip": "ym2612"
    },
    {
      "channel": 4,
      "note": 60,
      "start": 10.6403,
      "duration": 0.0321,
      "velocity": 112,
      "chip": "ym2612"
    },
    {
      "channel": 1,
      "note": 80,
      "start": 10.6671,
      "duration": 0.0322,
      "velocity": 127,
      "chip": "ym2612"
    },
    {
      "channel": 3,
      "note": 60,
      "start": 10.6723,
      "duration": 0.0272,
      "velocity": 112,
      "chip": "ym2612"
    },
    {
      "channel": 4,
      "note": 62,
      "start": 10.6725,
      "duration": 0.032,
      "velocity": 112,
      "chip": "ym2612"
    },
    {
      "channel": 1,
      "note": 80,
      "start": 10.6993,
      "duration": 0.0309,
      "velocity": 127,
      "chip": "ym2612"
    },
    {
      "channel": 3,
      "note": 62,
      "start": 10.6996,
      "duration": 0.0308,
      "velocity": 112,
      "chip": "ym2612"
    },
    {
      "channel": 4,
      "note": 64,
      "start": 10.7046,
      "duration": 0.0309,
      "velocity": 112,
      "chip": "ym2612"
    },
    {
      "channel": 1,
      "note": 80,
      "start": 10.7302,
      "duration": 0.0317,
      "velocity": 127,
      "chip": "ym2612"
    },
    {
      "channel": 3,
      "note": 64,
      "start": 10.7305,
      "duration": 0.0369,
      "velocity": 112,
      "chip": "ym2612"
    },
    {
      "channel": 4,
      "note": 60,
      "start": 10.7355,
      "duration": 0.0321,
      "velocity": 112,
      "chip": "ym2612"
    },
    {
      "channel": 0,
      "note": 59,
      "start": 10.7602,
      "duration": 0.0642,
      "velocity": 102,
      "chip": "ym2612"
    },
    {
      "channel": 1,
      "note": 73,
      "start": 10.7619,
      "duration": 0.0329,
      "velocity": 127,
      "chip": "ym2612"
    },
    {
      "channel": 2,
      "note": 59,
      "start": 10.7621,
      "duration": 0.0254,
      "velocity": 101,
      "chip": "ym2612"
    },
    {
      "channel": 3,
      "note": 60,
      "start": 10.7674,
      "duration": 0.0326,
      "velocity": 112,
      "chip": "ym2612"
    },
    {
      "channel": 4,
      "note": 62,
      "start": 10.7676,
      "duration": 0.0327,
      "velocity": 112,
      "chip": "ym2612"
    },
    {
      "channel": 1,
      "note": 80,
      "start": 10.7948,
      "duration": 0.0313,
      "velocity": 127,
      "chip": "ym2612"
    },
    {
      "channel": 3,
      "note": 62,
      "start": 10.8,
      "duration": 0.0315,
      "velocity": 112,
      "chip": "ym2612"
    },
    {
      "channel": 4,
      "note": 64,
      "start": 10.8004,
      "duration": 0.0314,
      "velocity": 112,
      "chip": "ym2612"
    },
    {
      "channel": 0,
      "note": 62,
      "start": 10.8244,
      "duration": 0.0396,
      "velocity": 102,
      "chip": "ym2612"
    },
    {
      "channel": 1,
      "note": 75,
      "start": 10.8261,
      "duration": 0.0632,
      "velocity": 127,
      "chip": "ym2612"
    },
    {
      "channel": 2,
      "note": 62,
      "start": 10.8313,
      "duration": 0.0202,
      "velocity": 101,
      "chip": "ym2612"
    },
    {
      "channel": 3,
      "note": 64,
      "start": 10.8316,
      "duration": 0.0259,
      "velocity": 112,
      "chip": "ym2612"
    },
    {
      "channel": 4,
      "note": 60,
      "start": 10.8318,
      "duration": 0.0261,
      "velocity": 112,
      "chip": "ym2612"
    },
    {
      "channel": 3,
      "note": 60,
      "start": 10.8576,
      "duration": 0.0372,
      "velocity": 112,
      "chip": "ym2612"
    },
    {
      "channel": 4,
      "note": 57,
      "start": 10.858,
      "duration": 0.0372,
      "velocity": 112,
      "chip": "ym2612"
    },
    {
      "channel": 0,
      "note": 57,
      "start": 10.8877,
      "duration": 0.1289,
      "velocity": 102,
      "chip": "ym2612"
    },
    {
      "channel": 1,
      "note": 80,
      "start": 10.8894,
      "duration": 0.0315,
      "velocity": 127,
      "chip": "ym2612"
    },
    {
      "channel": 2,
      "note": 57,
      "start": 10.8947,
      "duration": 0.1239,
      "velocity": 101,
      "chip": "ym2612"
    },
    {
      "channel": 3,
      "note": 62,
      "start": 10.8949,
      "duration": 0.0313,
      "velocity": 112,
      "chip": "ym2612"
    },
    {
      "channel": 4,
      "note": 58,
      "start": 10.8952,
      "duration": 0.0313,
      "velocity": 112,
      "chip": "ym2612"
    },
    {
      "channel": 1,
      "note": 75,
      "start": 10.921,
      "duration": 0.0326,
      "velocity": 127,
      "chip": "ym2612"
    },
    {
      "channel": 3,
      "note": 64,
      "start": 10.9263,
      "duration": 0.0325,
      "velocity": 112,
      "chip": "ym2612"
    },
    {
      "channel": 4,
      "note": 59,
      "start": 10.9266,
      "duration": 0.0325,
      "velocity": 112,
      "chip": "ym2612"
    },
    {
      "channel": 1,
      "note": 73,
      "start": 10.9537,
      "duration": 0.0322,
      "velocity": 127,
      "chip": "ym2612"
    },
    {
      "channel": 3,
      "note": 60,
      "start": 10.9588,
      "duration": 0.0323,
      "velocity": 112,
      "chip": "ym2612"
    },
    {
      "channel": 4,
      "note": 63,
      "start": 10.9591,
      "duration": 0.0077,
      "velocity": 112,
      "chip": "ym2612"
    },
    {
      "channel": 1,
      "note": 75,
      "start": 10.986,
      "duration": 0.0324,
      "velocity": 127,
      "chip": "ym2612"
    },
    {
      "channel": 3,
      "note": 57,
      "start": 10.9912,
      "duration": 0.0324,
      "velocity": 112,
      "chip": "ym2612"
    },
    {
      "channel": 4,
      "note": 60,
      "start": 10.9914,
      "duration": 0.0325,
      "velocity": 112,
      "chip": "ym2612"
    },
    {
      "channel": 0,
      "note": 59,
      "start": 11.0167,
      "duration": 0.0641,
      "velocity": 102,
      "chip": "ym2612"
    },
    {
      "channel": 1,
      "note": 73,
      "start": 11.0184,
      "duration": 0.0323,
      "velocity": 127,
      "chip": "ym2612"
    },
    {
      "channel": 2,
      "note": 59,
      "start": 11.0187,
      "duration": 0.0249,
      "velocity": 101,
      "chip": "ym2612"
    },
    {
      "channel": 3,
      "note": 58,
      "start": 11.0237,
      "duration": 0.0324,
      "velocity": 112,
      "chip": "ym2612"
    },
    {
      "channel": 4,
      "note": 58,
      "start": 11.024,
      "duration": 0.0322,
      "velocity": 112,
      "chip": "ym2612"
    },
    {
      "channel": 1,
      "note": 80,
      "start": 11.0508,
      "duration": 0.0317,
      "velocity": 127,
      "chip": "ym2612"
    },
    {
      "channel": 3,
      "note": 59,
      "start": 11.0561,
      "duration": 0.032,
      "velocity": 112,
      "chip": "ym2612"
    },
    {
      "channel": 4,
      "note": 57,
      "start": 11.0563,
      "duration": 0.032,
      "velocity": 112,
      "chip": "ym2612"
    },
    {
      "channel": 0,
      "note": 62,
      "start": 11.0809,
      "duration": 0.0395,
      "velocity": 102,
      "chip": "ym2612"
    },
    {
      "channel": 1,
      "note": 75,
      "start": 11.0826,
      "duration": 0.0635,
      "velocity": 127,
      "chip": "ym2612"
    },
    {
      "channel": 2,
      "note": 62,
      "start": 11.0878,
      "duration": 0.02,
      "velocity": 101,
      "chip": "ym2612"
    },
    {
      "channel": 3,
      "note": 63,
      "start": 11.088,
      "duration": 0.0077,
      "velocity": 112,
      "chip": "ym2612"
    },
    {
      "channel": 4,
      "note": 55,
      "start": 11.0883,
      "duration": 0.0259,
      "velocity": 112,
      "chip": "ym2612"
    },
    {
      "channel": 3,
      "note": 60,
      "start": 11.114,
      "duration": 0.0375,
      "velocity": 112,
      "chip": "ym2612"
    },
    {
      "channel": 4,
      "note": 52,
      "start": 11.1143,
      "duration": 0.0375,
      "velocity": 112,
      "chip": "ym2612"
    },
    {
      "channel": 0,
      "note": 59,
      "start": 11.1445,
      "duration": 0.0639,
      "velocity": 102,
      "chip": "ym2612"
    },
    {
      "channel": 1,
      "note": 80,
      "start": 11.1462,
      "duration": 0.031,
      "velocity": 127,
      "chip": "ym2612"
    },
    {
      "channel": 2,
      "note": 59,
      "start": 11.1513,
      "duration": 0.064,
      "velocity": 101,
      "chip": "ym2612"
    },
    {
      "channel": 3,
      "note": 58,
      "start": 11.1515,
      "duration": 0.0309,
      "velocity": 112,
      "chip": "ym2612"
    },
    {
      "channel": 4,
      "note": 50,
      "start": 11.1519,
      "duration": 0.0309,
      "velocity": 112,
      "chip": "ym2612"
    },
    {
      "channel": 1,
      "note": 75,
      "start": 11.1773,
      "duration": 0.0328,
      "velocity": 127,
      "chip": "ym2612"
    },
    {
      "channel": 3,
      "note": 57,
      "start": 11.1825,
      "duration": 0.033,
      "velocity": 112,
      "chip": "ym2612"
    },
    {
      "channel": 4,
      "note": 52,
      "start": 11.1827,
      "duration": 0.0331,
      "velocity": 112,
      "chip": "ym2612"
    },
    {
      "channel": 0,
      "note": 62,
      "start": 11.2084,
      "duration": 0.0621,
      "velocity": 102,
      "chip": "ym2612"
    },
    {
      "channel": 1,
      "note": 73,
      "start": 11.2102,
      "duration": 0.0617,
      "velocity": 127,
      "chip": "ym2612"
    },
    {
      "channel": 2,
      "note": 62,
      "start": 11.2154,
      "duration": 0.0567,
      "velocity": 101,
      "chip": "ym2612"
    },
    {
      "channel": 3,
      "note": 55,
      "start": 11.2156,
      "duration": 0.025,
      "velocity": 112,
      "chip": "ym2612"
    },
    {
      "channel": 4,
      "note": 55,
      "start": 11.2159,
      "duration": 0.0249,
      "velocity": 112,
      "chip": "ym2612"
    },
    {
      "channel": 3,
      "note": 52,
      "start": 11.2407,
      "duration": 0.0365,
      "velocity": 112,
      "chip": "ym2612"
    },
    {
      "channel": 4,
      "note": 56,
      "start": 11.2409,
      "duration": 0.0365,
      "velocity": 112,
      "chip": "ym2612"
    },
    {
      "channel": 0,
      "note": 64,
      "start": 11.2706,
      "duration": 0.0689,
      "velocity": 102,
      "chip": "ym2612"
    },
    {
      "channel": 1,
      "note": 80,
      "start": 11.2719,
      "duration": 0.0306,
      "velocity": 127,
      "chip": "ym2612"
    },
    {
      "channel": 2,
      "note": 64,
      "start": 11.2722,
      "duration": 0.0244,
      "velocity": 101,
      "chip": "ym2612"
    },
    {
      "channel": 3,
      "note": 50,
      "start": 11.2772,
      "duration": 0.0256,
      "velocity": 112,
      "chip": "ym2612"
    },
    {
      "channel": 4,
      "note": 55,
      "start": 11.2775,
      "duration": 0.0255,
      "velocity": 112,
      "chip": "ym2612"
    },
    {
      "channel": 1,
      "note": 80,
      "start": 11.3026,
      "duration": 0.0304,
      "velocity": 127,
      "chip": "ym2612"
    },
    {
      "channel": 3,
      "note": 52,
      "start": 11.3029,
      "duration": 0.0354,
      "velocity": 112,
      "chip": "ym2612"
    },
    {
      "channel": 4,
      "note": 52,
      "start": 11.3031,
      "duration": 0.0354,
      "velocity": 112,
      "chip": "ym2612"
    },
    {
      "channel": 1,
      "note": 75,
      "start": 11.3331,
      "duration": 0.0631,
      "velocity": 127,
      "chip": "ym2612"
    },
    {
      "channel": 2,
      "note": 64,
      "start": 11.3332,
      "duration": 0.0065,
      "velocity": 101,
      "chip": "ym2612"
    },
    {
      "channel": 3,
      "note": 55,
      "start": 11.3383,
      "duration": 0.0256,
      "velocity": 112,
      "chip": "ym2612"
    },
    {
      "channel": 4,
      "note": 55,
      "start": 11.3385,
      "duration": 0.0256,
      "velocity": 112,
      "chip": "ym2612"
    },
    {
      "channel": 3,
      "note": 56,
      "start": 11.364,
      "duration": 0.0376,
      "velocity": 112,
      "chip": "ym2612"
    },
    {
      "channel": 4,
      "note": 57,
      "start": 11.3642,
      "duration": 0.0377,
      "velocity": 112,
      "chip": "ym2612"
    },
    {
      "channel": 0,
      "note": 62,
      "start": 11.3945,
      "duration": 0.0634,
      "velocity": 102,
      "chip": "ym2612"
    },
    {
      "channel": 1,
      "note": 80,
      "start": 11.3962,
      "duration": 0.031,
      "velocity": 127,
      "chip": "ym2612"
    },
    {
      "channel": 2,
      "note": 62,
      "start": 11.4015,
      "duration": 0.0632,
      "velocity": 101,
      "chip": "ym2612"
    },
    {
      "channel": 3,
      "note": 55,
      "start": 11.4017,
      "duration": 0.0306,
      "velocity": 112,
      "chip": "ym2612"
    },
    {
      "channel": 4,
      "note": 55,
      "start": 11.402,
      "duration": 0.0305,
      "velocity": 112,
      "chip": "ym2612"
    },
    {
      "channel": 1,
      "note": 80,
      "start": 11.4273,
      "duration": 0.0323,
      "velocity": 127,
      "chip": "ym2612"
    },
    {
      "channel": 3,
      "note": 52,
      "start": 11.4324,
      "duration": 0.0324,
      "velocity": 112,
      "chip": "ym2612"
    },
    {
      "channel": 4,
      "note": 56,
      "start": 11.4326,
      "duration": 0.0325,
      "velocity": 112,
      "chip": "ym2612"
    },
    {
      "channel": 0,
      "note": 64,
      "start": 11.4579,
      "duration": 0.0446,
      "velocity": 102,
      "chip": "ym2612"
    },
    {
      "channel": 1,
      "note": 73,
      "start": 11.4596,
      "duration": 0.0621,
      "velocity": 127,
      "chip": "ym2612"
    },
    {
      "channel": 2,
      "note": 64,
      "start": 11.4647,
      "duration": 0.0572,
      "velocity": 101,
      "chip": "ym2612"
    },
    {
      "channel": 3,
      "note": 55,
      "start": 11.4649,
      "duration": 0.0255,
      "velocity": 112,
      "chip": "ym2612"
    },
    {
      "channel": 4,
      "note": 62,
      "start": 11.4651,
      "duration": 0.0077,
      "velocity": 112,
      "chip": "ym2612"
    },
    {
      "channel": 3,
      "note": 57,
      "start": 11.4905,
      "duration": 0.0365,
      "velocity": 112,
      "chip": "ym2612"
    },
    {
      "channel": 4,
      "note": 64,
      "start": 11.4907,
      "duration": 0.0365,
      "velocity": 112,
      "chip": "ym2612"
    },
    {
      "channel": 0,
      "note": 56,
      "start": 11.52,
      "duration": 0.1267,
      "velocity": 102,
      "chip": "ym2612"
    },
    {
      "channel": 1,
      "note": 73,
      "start": 11.5217,
      "duration": 0.0323,
      "velocity": 127,
      "chip": "ym2612"
    },
    {
      "channel": 2,
      "note": 68,
      "start": 11.522,
      "duration": 0.0128,
      "velocity": 101,
      "chip": "ym2612"
    },
    {
      "channel": 3,
      "note": 55,
      "start": 11.527,
      "duration": 0.0323,
      "velocity": 112,
      "chip": "ym2612"
    },
    {
      "channel": 4,
      "note": 62,
      "start": 11.5273,
      "duration": 0.0322,
      "velocity": 112,
      "chip": "ym2612"
    },
    {
      "channel": 1,
      "note": 80,
      "start": 11.5541,
      "duration": 0.0313,
      "velocity": 127,
      "chip": "ym2612"
    },
    {
      "channel": 3,
      "note": 56,
      "start": 11.5594,
      "duration": 0.0314,
      "velocity": 112,
      "chip": "ym2612"
    },
    {
      "channel": 4,
      "note": 59,
      "start": 11.5596,
      "duration": 0.0072,
      "velocity": 112,
      "chip": "ym2612"
    },
    {
      "channel": 1,
      "note": 75,
      "start": 11.5854,
      "duration": 0.063,
      "velocity": 127,
      "chip": "ym2612"
    },
    {
      "channel": 2,
      "note": 56,
      "start": 11.5857,
      "duration": 0.0187,
      "velocity": 101,
      "chip": "ym2612"
    },
    {
      "channel": 3,
      "note": 62,
      "start": 11.5909,
      "duration": 0.0074,
      "velocity": 112,
      "chip": "ym2612"
    },
    {
      "channel": 4,
      "note": 63,
      "start": 11.5912,
      "duration": 0.0256,
      "velocity": 112,
      "chip": "ym2612"
    },
    {
      "channel": 3,
      "note": 64,
      "start": 11.6166,
      "duration": 0.0372,
      "velocity": 112,
      "chip": "ym2612"
    },
    {
      "channel": 4,
      "note": 62,
      "start": 11.6168,
      "duration": 0.0372,
      "velocity": 112,
      "chip": "ym2612"
    },
    {
      "channel": 0,
      "note": 57,
      "start": 11.6468,
      "duration": 0.126,
      "velocity": 102,
      "chip": "ym2612"
    },
    {
      "channel": 1,
      "note": 73,
      "start": 11.6485,
      "duration": 0.0314,
      "velocity": 127,
      "chip": "ym2612"
    },
    {
      "channel": 2,
      "note": 57,
      "start": 11.6536,
      "duration": 0.1212,
      "velocity": 101,
      "chip": "ym2612"
    },
    {
      "channel": 3,
      "note": 62,
      "start": 11.6539,
      "duration": 0.0311,
      "velocity": 112,
      "chip": "ym2612"
    },
    {
      "channel": 4,
      "note": 59,
      "start": 11.6541,
      "duration": 0.0069,
      "velocity": 112,
      "chip": "ym2612"
    },
    {
      "channel": 1,
      "note": 80,
      "start": 11.6799,
      "duration": 0.0316,
      "velocity": 127,
      "chip": "ym2612"
    },
    {
      "channel": 3,
      "note": 59,
      "start": 11.6851,
      "duration": 0.0071,
      "velocity": 112,
      "chip": "ym2612"
    },
    {
      "channel": 4,
      "note": 62,
      "start": 11.6853,
      "duration": 0.0316,
      "velocity": 112,
      "chip": "ym2612"
    },
    {
      "channel": 1,
      "note": 80,
      "start": 11.7116,
      "duration": 0.0318,
      "velocity": 127,
      "chip": "ym2612"
    },
    {
      "channel": 3,
      "note": 63,
      "start": 11.7166,
      "duration": 0.0318,
      "velocity": 112,
      "chip": "ym2612"
    },
    {
      "channel": 4,
      "note": 66,
      "start": 11.7168,
      "duration": 0.0319,
      "velocity": 112,
      "chip": "ym2612"
    },
    {
      "channel": 1,
      "note": 80,
      "start": 11.7435,
      "duration": 0.0311,
      "velocity": 127,
      "chip": "ym2612"
    },
    {
      "channel": 3,
      "note": 62,
      "start": 11.7485,
      "duration": 0.0314,
      "velocity": 112,
      "chip": "ym2612"
    },
    {
      "channel": 4,
      "note": 64,
      "start": 11.7488,
      "duration": 0.0313,
      "velocity": 112,
      "chip": "ym2612"
    },
    {
      "channel": 0,
      "note": 59,
      "start": 11.7728,
      "duration": 0.0643,
      "velocity": 102,
      "chip": "ym2612"
    },
    {
      "channel": 1,
      "note": 73,
      "start": 11.7746,
      "duration": 0.0327,
      "velocity": 127,
      "chip": "ym2612"
    },
    {
      "channel": 2,
      "note": 59,
      "start": 11.7748,
      "duration": 0.0254,
      "velocity": 101,
      "chip": "ym2612"
    },
    {
      "channel": 3,
      "note": 59,
      "start": 11.78,
      "duration": 0.0077,
      "velocity": 112,
      "chip": "ym2612"
    },
    {
      "channel": 4,
      "note": 67,
      "start": 11.7801,
      "duration": 0.0326,
      "velocity": 112,
      "chip": "ym2612"
    },
    {
      "channel": 1,
      "note": 80,
      "start": 11.8073,
      "duration": 0.0315,
      "velocity": 127,
      "chip": "ym2612"
    },
    {
      "channel": 3,
      "note": 62,
      "start": 11.8125,
      "duration": 0.0319,
      "velocity": 112,
      "chip": "ym2612"
    },
    {
      "channel": 4,
      "note": 67,
      "start": 11.8128,
      "duration": 0.0317,
      "velocity": 112,
      "chip": "ym2612"
    },
    {
      "channel": 0,
      "note": 62,
      "start": 11.8372,
      "duration": 0.0391,
      "velocity": 102,
      "chip": "ym2612"
    },
    {
      "channel": 1,
      "note": 75,
      "start": 11.839,
      "duration": 0.0632,
      "velocity": 127,
      "chip": "ym2612"
    },
    {
      "channel": 2,
      "note": 62,
      "start": 11.8441,
      "duration": 0.0197,
      "velocity": 101,
      "chip": "ym2612"
    },
    {
      "channel": 3,
      "note": 66,
      "start": 11.8444,
      "duration": 0.0256,
      "velocity": 112,
      "chip": "ym2612"
    },
    {
      "channel": 4,
      "note": 64,
      "start": 11.8446,
      "duration": 0.0255,
      "velocity": 112,
      "chip": "ym2612"
    },
    {
      "channel": 3,
      "note": 64,
      "start": 11.87,
      "duration": 0.0377,
      "velocity": 112,
      "chip": "ym2612"
    },
    {
      "channel": 4,
      "note": 67,
      "start": 11.8702,
      "duration": 0.0377,
      "velocity": 112,
      "chip": "ym2612"
    },
    {
      "channel": 0,
      "note": 57,
      "start": 11.9005,
      "duration": 0.1267,
      "velocity": 102,
      "chip": "ym2612"
    },
    {
      "channel": 1,
      "note": 80,
      "start": 11.9022,
      "duration": 0.0299,
      "velocity": 127,
      "chip": "ym2612"
    },
    {
      "channel": 2,
      "note": 57,
      "start": 11.9075,
      "duration": 0.1266,
      "velocity": 101,
      "chip": "ym2612"
    },
    {
      "channel": 3,
      "note": 67,
      "start": 11.9077,
      "duration": 0.0247,
      "velocity": 112,
      "chip": "ym2612"
    },
    {
      "channel": 4,
      "note": 68,
      "start": 11.908,
      "duration": 0.0248,
      "velocity": 112,
      "chip": "ym2612"
    },
    {
      "channel": 1,
      "note": 80,
      "start": 11.9322,
      "duration": 0.0315,
      "velocity": 127,
      "chip": "ym2612"
    },
    {
      "channel": 3,
      "note": 67,
      "start": 11.9325,
      "duration": 0.0364,
      "velocity": 112,
      "chip": "ym2612"
    },
    {
      "channel": 4,
      "note": 67,
      "start": 11.9328,
      "duration": 0.0363,
      "velocity": 112,
      "chip": "ym2612"
    },
    {
      "channel": 1,
      "note": 75,
      "start": 11.9638,
      "duration": 0.0331,
      "velocity": 127,
      "chip": "ym2612"
    },
    {
      "channel": 3,
      "note": 64,
      "start": 11.969,
      "duration": 0.0332,
      "velocity": 112,
      "chip": "ym2612"
    },
    {
      "channel": 4,
      "note": 69,
      "start": 11.9692,
      "duration": 0.0015,
      "velocity": 112,
      "chip": "ym2612"
    },
    {
      "channel": 4,
      "note": 69,
      "start": 11.9707,
      "duration": 0.2152,
      "velocity": 112,
      "chip": "ym2612"
    },
    {
      "channel": 1,
      "note": 75,
      "start": 11.997,
      "duration": 0.032,
      "velocity": 127,
      "chip": "ym2612"
    },
    {
      "channel": 3,
      "note": 67,
      "start": 12.0022,
      "duration": 0.0321,
      "velocity": 112,
      "chip": "ym2612"
    },
    {
      "channel": 0,
      "note": 59,
      "start": 12.0272,
      "duration": 0.0658,
      "velocity": 102,
      "chip": "ym2612"
    },
    {
      "channel": 1,
      "note": 73,
      "start": 12.029,
      "duration": 0.0333,
      "velocity": 127,
      "chip": "ym2612"
    },
    {
      "channel": 2,
      "note": 59,
      "start": 12.0341,
      "duration": 0.0205,
      "velocity": 101,
      "chip": "ym2612"
    },
    {
      "channel": 3,
      "note": 68,
      "start": 12.0343,
      "duration": 0.0332,
      "velocity": 112,
      "chip": "ym2612"
    },
    {
      "channel": 1,
      "note": 73,
      "start": 12.0623,
      "duration": 0.0324,
      "velocity": 127,
      "chip": "ym2612"
    },
    {
      "channel": 3,
      "note": 67,
      "start": 12.0675,
      "duration": 0.0327,
      "velocity": 112,
      "chip": "ym2612"
    },
    {
      "channel": 0,
      "note": 62,
      "start": 12.0931,
      "duration": 0.0405,
      "velocity": 102,
      "chip": "ym2612"
    },
    {
      "channel": 1,
      "note": 75,
      "start": 12.0948,
      "duration": 0.0323,
      "velocity": 127,
      "chip": "ym2612"
    },
    {
      "channel": 2,
      "note": 62,
      "start": 12.1,
      "duration": 0.0194,
      "velocity": 101,
      "chip": "ym2612"
    },
    {
      "channel": 3,
      "note": 69,
      "start": 12.1003,
      "duration": 0.0012,
      "velocity": 112,
      "chip": "ym2612"
    },
    {
      "channel": 3,
      "note": 69,
      "start": 12.1016,
      "duration": 0.2106,
      "velocity": 112,
      "chip": "ym2612"
    },
    {
      "channel": 1,
      "note": 75,
      "start": 12.1272,
      "duration": 0.0338,
      "velocity": 127,
      "chip": "ym2612"
    },
    {
      "channel": 0,
      "note": 59,
      "start": 12.1594,
      "duration": 0.0645,
      "velocity": 102,
      "chip": "ym2612"
    },
    {
      "channel": 1,
      "note": 80,
      "start": 12.1611,
      "duration": 0.0319,
      "velocity": 127,
      "chip": "ym2612"
    },
    {
      "channel": 2,
      "note": 59,
      "start": 12.1661,
      "duration": 0.0646,
      "velocity": 101,
      "chip": "ym2612"
    },
    {
      "channel": 1,
      "note": 75,
      "start": 12.193,
      "duration": 0.0327,
      "velocity": 127,
      "chip": "ym2612"
    },
    {
      "channel": 0,
      "note": 62,
      "start": 12.224,
      "duration": 0.062,
      "velocity": 102,
      "chip": "ym2612"
    },
    {
      "channel": 1,
      "note": 73,
      "start": 12.2258,
      "duration": 0.0615,
      "velocity": 127,
      "chip": "ym2612"
    },
    {
      "channel": 2,
      "note": 62,
      "start": 12.2307,
      "duration": 0.0568,
      "velocity": 101,
      "chip": "ym2612"
    },
    {
      "channel": 4,
      "note": 76,
      "start": 12.231,
      "duration": 0.0619,
      "velocity": 112,
      "chip": "ym2612"
    },
    {
      "channel": 0,
      "note": 64,
      "start": 12.286,
      "duration": 0.0709,
      "velocity": 102,
      "chip": "ym2612"
    },
    {
      "channel": 1,
      "note": 80,
      "start": 12.2874,
      "duration": 0.0309,
      "velocity": 127,
      "chip": "ym2612"
    },
    {
      "channel": 2,
      "note": 64,
      "start": 12.2876,
      "duration": 0.0245,
      "velocity": 101,
      "chip": "ym2612"
    },
    {
      "channel": 4,
      "note": 74,
      "start": 12.293,
      "duration": 0.0257,
      "velocity": 112,
      "chip": "ym2612"
    },
    {
      "channel": 1,
      "note": 80,
      "start": 12.3184,
      "duration": 0.0322,
      "velocity": 127,
      "chip": "ym2612"
    },
    {
      "channel": 4,
      "note": 71,
      "start": 12.3188,
      "duration": 0.0619,
      "velocity": 112,
      "chip": "ym2612"
    },
    {
      "channel": 1,
      "note": 75,
      "start": 12.3506,
      "duration": 0.0622,
      "velocity": 127,
      "chip": "ym2612"
    },
    {
      "channel": 2,
      "note": 64,
      "start": 12.3508,
      "duration": 0.0063,
      "velocity": 101,
      "chip": "ym2612"
    },
    {
      "channel": 3,
      "note": 76,
      "start": 12.356,
      "duration": 0.0623,
      "velocity": 112,
      "chip": "ym2612"
    },
    {
      "channel": 4,
      "note": 75,
      "start": 12.3807,
      "duration": 0.0122,
      "velocity": 112,
      "chip": "ym2612"
    },
    {
      "channel": 0,
      "note": 62,
      "start": 12.4112,
      "duration": 0.0627,
      "velocity": 102,
      "chip": "ym2612"
    },
    {
      "channel": 1,
      "note": 80,
      "start": 12.4129,
      "duration": 0.0314,
      "velocity": 127,
      "chip": "ym2612"
    },
    {
      "channel": 2,
      "note": 62,
      "start": 12.4181,
      "duration": 0.0622,
      "velocity": 101,
      "chip": "ym2612"
    },
    {
      "channel": 3,
      "note": 74,
      "start": 12.4184,
      "duration": 0.0262,
      "velocity": 112,
      "chip": "ym2612"
    },
    {
      "channel": 4,
      "note": 72,
      "start": 12.4186,
      "duration": 0.0619,
      "velocity": 112,
      "chip": "ym2612"
    },
    {
      "channel": 1,
      "note": 80,
      "start": 12.4444,
      "duration": 0.0308,
      "velocity": 127,
      "chip": "ym2612"
    },
    {
      "channel": 3,
      "note": 71,
      "start": 12.4495,
      "duration": 0.057,
      "velocity": 112,
      "chip": "ym2612"
    },
    {
      "channel": 0,
      "note": 64,
      "start": 12.474,
      "duration": 0.0451,
      "velocity": 102,
      "chip": "ym2612"
    },
    {
      "channel": 1,
      "note": 73,
      "start": 12.4753,
      "duration": 0.0628,
      "velocity": 127,
      "chip": "ym2612"
    },
    {
      "channel": 2,
      "note": 64,
      "start": 12.4804,
      "duration": 0.0579,
      "velocity": 101,
      "chip": "ym2612"
    },
    {
      "channel": 4,
      "note": 74,
      "start": 12.4806,
      "duration": 0.0076,
      "velocity": 112,
      "chip": "ym2612"
    },
    {
      "channel": 3,
      "note": 75,
      "start": 12.5065,
      "duration": 0.0127,
      "velocity": 112,
      "chip": "ym2612"
    },
    {
      "channel": 4,
      "note": 72,
      "start": 12.5067,
      "duration": 0.0688,
      "velocity": 112,
      "chip": "ym2612"
    },
    {
      "channel": 0,
      "note": 56,
      "start": 12.5364,
      "duration": 0.126,
      "velocity": 102,
      "chip": "ym2612"
    },
    {
      "channel": 1,
      "note": 73,
      "start": 12.5381,
      "duration": 0.0322,
      "velocity": 127,
      "chip": "ym2612"
    },
    {
      "channel": 2,
      "note": 68,
      "start": 12.5384,
      "duration": 0.0127,
      "velocity": 101,
      "chip": "ym2612"
    },
    {
      "channel": 3,
      "note": 72,
      "start": 12.5437,
      "duration": 0.0635,
      "velocity": 112,
      "chip": "ym2612"
    },
    {
      "channel": 1,
      "note": 80,
      "start": 12.5704,
      "duration": 0.0313,
      "velocity": 127,
      "chip": "ym2612"
    },
    {
      "channel": 4,
      "note": 67,
      "start": 12.5755,
      "duration": 0.0318,
      "velocity": 112,
      "chip": "ym2612"
    },
    {
      "channel": 1,
      "note": 75,
      "start": 12.6018,
      "duration": 0.0619,
      "velocity": 127,
      "chip": "ym2612"
    },
    {
      "channel": 2,
      "note": 56,
      "start": 12.602,
      "duration": 0.0183,
      "velocity": 101,
      "chip": "ym2612"
    },
    {
      "channel": 3,
      "note": 74,
      "start": 12.6072,
      "duration": 0.0073,
      "velocity": 112,
      "chip": "ym2612"
    },
    {
      "channel": 4,
      "note": 68,
      "start": 12.6074,
      "duration": 0.0248,
      "velocity": 112,
      "chip": "ym2612"
    },
    {
      "channel": 3,
      "note": 72,
      "start": 12.632,
      "duration": 0.0685,
      "velocity": 112,
      "chip": "ym2612"
    },
    {
      "channel": 4,
      "note": 67,
      "start": 12.6323,
      "duration": 0.0368,
      "velocity": 112,
      "chip": "ym2612"
    },
    {
      "channel": 0,
      "note": 57,
      "start": 12.6624,
      "duration": 0.1259,
      "velocity": 102,
      "chip": "ym2612"
    },
    {
      "channel": 1,
      "note": 73,
      "start": 12.6637,
      "duration": 0.0317,
      "velocity": 127,
      "chip": "ym2612"
    },
    {
      "channel": 2,
      "note": 57,
      "start": 12.6688,
      "duration": 0.1215,
      "velocity": 101,
      "chip": "ym2612"
    },
    {
      "channel": 4,
      "note": 68,
      "start": 12.6691,
      "duration": 0.0317,
      "velocity": 112,
      "chip": "ym2612"
    },
    {
      "channel": 1,
      "note": 80,
      "start": 12.6955,
      "duration": 0.0312,
      "velocity": 127,
      "chip": "ym2612"
    },
    {
      "channel": 3,
      "note": 67,
      "start": 12.7006,
      "duration": 0.0312,
      "velocity": 112,
      "chip": "ym2612"
    },
    {
      "channel": 4,
      "note": 67,
      "start": 12.7009,
      "duration": 0.0127,
      "velocity": 112,
      "chip": "ym2612"
    },
    {
      "channel": 1,
      "note": 80,
      "start": 12.7268,
      "duration": 0.0319,
      "velocity": 127,
      "chip": "ym2612"
    },
    {
      "channel": 3,
      "note": 68,
      "start": 12.7319,
      "duration": 0.027,
      "velocity": 112,
      "chip": "ym2612"
    },
    {
      "channel": 4,
      "note": 68,
      "start": 12.7322,
      "duration": 0.0317,
      "velocity": 112,
      "chip": "ym2612"
    },
    {
      "channel": 1,
      "note": 80,
      "start": 12.7587,
      "duration": 0.0314,
      "velocity": 127,
      "chip": "ym2612"
    },
    {
      "channel": 3,
      "note": 67,
      "start": 12.7637,
      "duration": 0.0317,
      "velocity": 112,
      "chip": "ym2612"
    },
    {
      "channel": 4,
      "note": 67,
      "start": 12.764,
      "duration": 0.0317,
      "velocity": 112,
      "chip": "ym2612"
    },
    {
      "channel": 0,
      "note": 59,
      "start": 12.7884,
      "duration": 0.0647,
      "velocity": 102,
      "chip": "ym2612"
    },
    {
      "channel": 1,
      "note": 73,
      "start": 12.7902,
      "duration": 0.0323,
      "velocity": 127,
      "chip": "ym2612"
    },
    {
      "channel": 2,
      "note": 59,
      "start": 12.7904,
      "duration": 0.0245,
      "velocity": 101,
      "chip": "ym2612"
    },
    {
      "channel": 3,
      "note": 68,
      "start": 12.7955,
      "duration": 0.0321,
      "velocity": 112,
      "chip": "ym2612"
    },
    {
      "channel": 4,
      "note": 62,
      "start": 12.7958,
      "duration": 0.0321,
      "velocity": 112,
      "chip": "ym2612"
    },
    {
      "channel": 1,
      "note": 80,
      "start": 12.8226,
      "duration": 0.0323,
      "velocity": 127,
      "chip": "ym2612"
    },
    {
      "channel": 3,
      "note": 67,
      "start": 12.8276,
      "duration": 0.0133,
      "velocity": 112,
      "chip": "ym2612"
    },
    {
      "channel": 4,
      "note": 64,
      "start": 12.8279,
      "duration": 0.0326,
      "velocity": 112,
      "chip": "ym2612"
    },
    {
      "channel": 0,
      "note": 62,
      "start": 12.8531,
      "duration": 0.0382,
      "velocity": 102,
      "chip": "ym2612"
    },
    {
      "channel": 1,
      "note": 75,
      "start": 12.8549,
      "duration": 0.0627,
      "velocity": 127,
      "chip": "ym2612"
    },
    {
      "channel": 2,
      "note": 62,
      "start": 12.86,
      "duration": 0.0191,
      "velocity": 101,
      "chip": "ym2612"
    },
    {
      "channel": 3,
      "note": 68,
      "start": 12.8604,
      "duration": 0.0248,
      "velocity": 112,
      "chip": "ym2612"
    },
    {
      "channel": 4,
      "note": 67,
      "start": 12.8606,
      "duration": 0.0249,
      "velocity": 112,
      "chip": "ym2612"
    },
    {
      "channel": 3,
      "note": 67,
      "start": 12.8852,
      "duration": 0.0379,
      "velocity": 112,
      "chip": "ym2612"
    },
    {
      "channel": 4,
      "note": 64,
      "start": 12.8855,
      "duration": 0.0379,
      "velocity": 112,
      "chip": "ym2612"
    },
    {
      "channel": 0,
      "note": 57,
      "start": 12.9159,
      "duration": 0.1285,
      "velocity": 102,
      "chip": "ym2612"
    },
    {
      "channel": 1,
      "note": 80,
      "start": 12.9176,
      "duration": 0.0316,
      "velocity": 127,
      "chip": "ym2612"
    },
    {
      "channel": 2,
      "note": 57,
      "start": 12.9229,
      "duration": 0.1283,
      "velocity": 101,
      "chip": "ym2612"
    },
    {
      "channel": 3,
      "note": 62,
      "start": 12.9232,
      "duration": 0.0312,
      "velocity": 112,
      "chip": "ym2612"
    },
    {
      "channel": 4,
      "note": 59,
      "start": 12.9234,
      "duration": 0.0311,
      "velocity": 112,
      "chip": "ym2612"
    },
    {
      "channel": 1,
      "note": 75,
      "start": 12.9493,
      "duration": 0.0319,
      "velocity": 127,
      "chip": "ym2612"
    },
    {
      "channel": 3,
      "note": 64,
      "start": 12.9544,
      "duration": 0.0317,
      "velocity": 112,
      "chip": "ym2612"
    },
    {
      "channel": 4,
      "note": 62,
      "start": 12.9546,
      "duration": 0.0317,
      "velocity": 112,
      "chip": "ym2612"
    },
    {
      "channel": 1,
      "note": 73,
      "start": 12.9811,
      "duration": 0.0326,
      "velocity": 127,
      "chip": "ym2612"
    },
    {
      "channel": 3,
      "note": 67,
      "start": 12.9862,
      "duration": 0.0327,
      "velocity": 112,
      "chip": "ym2612"
    },
    {
      "channel": 4,
      "note": 64,
      "start": 12.9864,
      "duration": 0.0136,
      "velocity": 112,
      "chip": "ym2612"
    },
    {
      "channel": 1,
      "note": 75,
      "start": 13.0138,
      "duration": 0.0324,
      "velocity": 127,
      "chip": "ym2612"
    },
    {
      "channel": 3,
      "note": 64,
      "start": 13.019,
      "duration": 0.0325,
      "velocity": 112,
      "chip": "ym2612"
    },
    {
      "channel": 4,
      "note": 60,
      "start": 13.0192,
      "duration": 0.0325,
      "velocity": 112,
      "chip": "ym2612"
    },
    {
      "channel": 0,
      "note": 59,
      "start": 13.0445,
      "duration": 0.0636,
      "velocity": 102,
      "chip": "ym2612"
    },
    {
      "channel": 1,
      "note": 73,
      "start": 13.0462,
      "duration": 0.0313,
      "velocity": 127,
      "chip": "ym2612"
    },
    {
      "channel": 2,
      "note": 59,
      "start": 13.0513,
      "duration": 0.0191,
      "velocity": 101,
      "chip": "ym2612"
    },
    {
      "channel": 3,
      "note": 59,
      "start": 13.0515,
      "duration": 0.0311,
      "velocity": 112,
      "chip": "ym2612"
    },
    {
      "channel": 4,
      "note": 57,
      "start": 13.0518,
      "duration": 0.0311,
      "velocity": 112,
      "chip": "ym2612"
    },
    {
      "channel": 1,
      "note": 80,
      "start": 13.0776,
      "duration": 0.0322,
      "velocity": 127,
      "chip": "ym2612"
    },
    {
      "channel": 3,
      "note": 62,
      "start": 13.0827,
      "duration": 0.0326,
      "velocity": 112,
      "chip": "ym2612"
    },
    {
      "channel": 4,
      "note": 58,
      "start": 13.0829,
      "duration": 0.0326,
      "velocity": 112,
      "chip": "ym2612"
    },
    {
      "channel": 0,
      "note": 62,
      "start": 13.1082,
      "duration": 0.0384,
      "velocity": 102,
      "chip": "ym2612"
    },
    {
      "channel": 1,
      "note": 75,
      "start": 13.1099,
      "duration": 0.0627,
      "velocity": 127,
      "chip": "ym2612"
    },
    {
      "channel": 2,
      "note": 62,
      "start": 13.1151,
      "duration": 0.0195,
      "velocity": 101,
      "chip": "ym2612"
    },
    {
      "channel": 3,
      "note": 64,
      "start": 13.1154,
      "duration": 0.0133,
      "velocity": 112,
      "chip": "ym2612"
    },
    {
      "channel": 4,
      "note": 57,
      "start": 13.1156,
      "duration": 0.0251,
      "velocity": 112,
      "chip": "ym2612"
    },
    {
      "channel": 3,
      "note": 60,
      "start": 13.1405,
      "duration": 0.0374,
      "velocity": 112,
      "chip": "ym2612"
    },
    {
      "channel": 4,
      "note": 55,
      "start": 13.1407,
      "duration": 0.0375,
      "velocity": 112,
      "chip": "ym2612"
    },
    {
      "channel": 0,
      "note": 59,
      "start": 13.1709,
      "duration": 0.0637,
      "velocity": 102,
      "chip": "ym2612"
    },
    {
      "channel": 1,
      "note": 80,
      "start": 13.1727,
      "duration": 0.0317,
      "velocity": 127,
      "chip": "ym2612"
    },
    {
      "channel": 2,
      "note": 59,
      "start": 13.1777,
      "duration": 0.0637,
      "velocity": 101,
      "chip": "ym2612"
    },
    {
      "channel": 3,
      "note": 57,
      "start": 13.178,
      "duration": 0.0316,
      "velocity": 112,
      "chip": "ym2612"
    },
    {
      "channel": 4,
      "note": 56,
      "start": 13.1782,
      "duration": 0.0316,
      "velocity": 112,
      "chip": "ym2612"
    },
    {
      "channel": 1,
      "note": 75,
      "start": 13.2044,
      "duration": 0.032,
      "velocity": 127,
      "chip": "ym2612"
    },
    {
      "channel": 3,
      "note": 58,
      "start": 13.2096,
      "duration": 0.032,
      "velocity": 112,
      "chip": "ym2612"
    },
    {
      "channel": 4,
      "note": 55,
      "start": 13.2099,
      "duration": 0.032,
      "velocity": 112,
      "chip": "ym2612"
    },
    {
      "channel": 0,
      "note": 62,
      "start": 13.2346,
      "duration": 0.0629,
      "velocity": 102,
      "chip": "ym2612"
    },
    {
      "channel": 1,
      "note": 73,
      "start": 13.2364,
      "duration": 0.0625,
      "velocity": 127,
      "chip": "ym2612"
    },
    {
      "channel": 2,
      "note": 62,
      "start": 13.2414,
      "duration": 0.0577,
      "velocity": 101,
      "chip": "ym2612"
    },
    {
      "channel": 3,
      "note": 57,
      "start": 13.2417,
      "duration": 0.0259,
      "velocity": 112,
      "chip": "ym2612"
    },
    {
      "channel": 4,
      "note": 50,
      "start": 13.242,
      "duration": 0.026,
      "velocity": 112,
      "chip": "ym2612"
    },
    {
      "channel": 3,
      "note": 55,
      "start": 13.2676,
      "duration": 0.0366,
      "velocity": 112,
      "chip": "ym2612"
    },
    {
      "channel": 4,
      "note": 51,
      "start": 13.268,
      "duration": 0.0365,
      "velocity": 112,
      "chip": "ym2612"
    },
    {
      "channel": 0,
      "note": 64,
      "start": 13.2976,
      "duration": 0.0705,
      "velocity": 102,
      "chip": "ym2612"
    },
    {
      "channel": 1,
      "note": 80,
      "start": 13.299,
      "duration": 0.0302,
      "velocity": 127,
      "chip": "ym2612"
    },
    {
      "channel": 2,
      "note": 64,
      "start": 13.2992,
      "duration": 0.0239,
      "velocity": 101,
      "chip": "ym2612"
    },
    {
      "channel": 3,
      "note": 56,
      "start": 13.3043,
      "duration": 0.0251,
      "velocity": 112,
      "chip": "ym2612"
    },
    {
      "channel": 4,
      "note": 52,
      "start": 13.3046,
      "duration": 0.0251,
      "velocity": 112,
      "chip": "ym2612"
    },
    {
      "channel": 1,
      "note": 80,
      "start": 13.3292,
      "duration": 0.0321,
      "velocity": 127,
      "chip": "ym2612"
    },
    {
      "channel": 3,
      "note": 55,
      "start": 13.3294,
      "duration": 0.0371,
      "velocity": 112,
      "chip": "ym2612"
    },
    {
      "channel": 4,
      "note": 55,
      "start": 13.3297,
      "duration": 0.0371,
      "velocity": 112,
      "chip": "ym2612"
    },
    {
      "channel": 1,
      "note": 75,
      "start": 13.3614,
      "duration": 0.0623,
      "velocity": 127,
      "chip": "ym2612"
    },
    {
      "channel": 2,
      "note": 64,
      "start": 13.3615,
      "duration": 0.0068,
      "velocity": 101,
      "chip": "ym2612"
    },
    {
      "channel": 3,
      "note": 50,
      "start": 13.3666,
      "duration": 0.0254,
      "velocity": 112,
      "chip": "ym2612"
    },
    {
      "channel": 4,
      "note": 52,
      "start": 13.3668,
      "duration": 0.0254,
      "velocity": 112,
      "chip": "ym2612"
    },
    {
      "channel": 3,
      "note": 51,
      "start": 13.3921,
      "duration": 0.0369,
      "velocity": 112,
      "chip": "ym2612"
    },
    {
      "channel": 4,
      "note": 51,
      "start": 13.3923,
      "duration": 0.037,
      "velocity": 112,
      "chip": "ym2612"
    },
    {
      "channel": 0,
      "note": 62,
      "start": 13.422,
      "duration": 0.0633,
      "velocity": 102,
      "chip": "ym2612"
    },
    {
      "channel": 1,
      "note": 80,
      "start": 13.4237,
      "duration": 0.0321,
      "velocity": 127,
      "chip": "ym2612"
    },
    {
      "channel": 2,
      "note": 62,
      "start": 13.4288,
      "duration": 0.0631,
      "velocity": 101,
      "chip": "ym2612"
    },
    {
      "channel": 3,
      "note": 52,
      "start": 13.4291,
      "duration": 0.0271,
      "velocity": 112,
      "chip": "ym2612"
    },
    {
      "channel": 4,
      "note": 52,
      "start": 13.4294,
      "duration": 0.0317,
      "velocity": 112,
      "chip": "ym2612"
    },
    {
      "channel": 1,
      "note": 80,
      "start": 13.4559,
      "duration": 0.0311,
      "velocity": 127,
      "chip": "ym2612"
    },
    {
      "channel": 3,
      "note": 55,
      "start": 13.4562,
      "duration": 0.0359,
      "velocity": 112,
      "chip": "ym2612"
    },
    {
      "channel": 4,
      "note": 55,
      "start": 13.4612,
      "duration": 0.0312,
      "velocity": 112,
      "chip": "ym2612"
    },
    {
      "channel": 0,
      "note": 64,
      "start": 13.4852,
      "duration": 0.0458,
      "velocity": 102,
      "chip": "ym2612"
    },
    {
      "channel": 1,
      "note": 73,
      "start": 13.4869,
      "duration": 0.0635,
      "velocity": 127,
      "chip": "ym2612"
    },
    {
      "channel": 2,
      "note": 64,
      "start": 13.492,
      "duration": 0.0587,
      "velocity": 101,
      "chip": "ym2612"
    },
    {
      "channel": 3,
      "note": 52,
      "start": 13.4922,
      "duration": 0.0264,
      "velocity": 112,
      "chip": "ym2612"
    },
    {
      "channel": 4,
      "note": 55,
      "start": 13.4925,
      "duration": 0.0263,
      "velocity": 112,
      "chip": "ym2612"
    },
    {
      "channel": 3,
      "note": 51,
      "start": 13.5186,
      "duration": 0.0373,
      "velocity": 112,
      "chip": "ym2612"
    },
    {
      "channel": 4,
      "note": 51,
      "start": 13.5189,
      "duration": 0.0372,
      "velocity": 112,
      "chip": "ym2612"
    },
    {
      "channel": 0,
      "note": 56,
      "start": 13.5487,
      "duration": 0.1257,
      "velocity": 102,
      "chip": "ym2612"
    },
    {
      "channel": 1,
      "note": 73,
      "start": 13.5505,
      "duration": 0.0316,
      "velocity": 127,
      "chip": "ym2612"
    },
    {
      "channel": 2,
      "note": 68,
      "start": 13.5507,
      "duration": 0.0124,
      "velocity": 101,
      "chip": "ym2612"
    },
    {
      "channel": 3,
      "note": 52,
      "start": 13.5559,
      "duration": 0.0312,
      "velocity": 112,
      "chip": "ym2612"
    },
    {
      "channel": 4,
      "note": 52,
      "start": 13.5562,
      "duration": 0.0312,
      "velocity": 112,
      "chip": "ym2612"
    },
    {
      "channel": 1,
      "note": 80,
      "start": 13.5821,
      "duration": 0.0316,
      "velocity": 127,
      "chip": "ym2612"
    },
    {
      "channel": 3,
      "note": 55,
      "start": 13.5872,
      "duration": 0.0319,
      "velocity": 112,
      "chip": "ym2612"
    },
    {
      "channel": 4,
      "note": 55,
      "start": 13.5875,
      "duration": 0.0318,
      "velocity": 112,
      "chip": "ym2612"
    },
    {
      "channel": 1,
      "note": 75,
      "start": 13.6137,
      "duration": 0.062,
      "velocity": 127,
      "chip": "ym2612"
    },
    {
      "channel": 2,
      "note": 56,
      "start": 13.614,
      "duration": 0.019,
      "velocity": 101,
      "chip": "ym2612"
    },
    {
      "channel": 3,
      "note": 55,
      "start": 13.6191,
      "duration": 0.0256,
      "velocity": 112,
      "chip": "ym2612"
    },
    {
      "channel": 4,
      "note": 52,
      "start": 13.6194,
      "duration": 0.0256,
      "velocity": 112,
      "chip": "ym2612"
    },
    {
      "channel": 3,
      "note": 51,
      "start": 13.6448,
      "duration": 0.0363,
      "velocity": 112,
      "chip": "ym2612"
    },
    {
      "channel": 4,
      "note": 51,
      "start": 13.645,
      "duration": 0.0365,
      "velocity": 112,
      "chip": "ym2612"
    },
    {
      "channel": 0,
      "note": 57,
      "start": 13.6745,
      "duration": 0.1271,
      "velocity": 102,
      "chip": "ym2612"
    },
    {
      "channel": 1,
      "note": 73,
      "start": 13.6758,
      "duration": 0.0324,
      "velocity": 127,
      "chip": "ym2612"
    },
    {
      "channel": 2,
      "note": 57,
      "start": 13.681,
      "duration": 0.1226,
      "velocity": 101,
      "chip": "ym2612"
    },
    {
      "channel": 3,
      "note": 52,
      "start": 13.6812,
      "duration": 0.0323,
      "velocity": 112,
      "chip": "ym2612"
    },
    {
      "channel": 4,
      "note": 52,
      "start": 13.6816,
      "duration": 0.0322,
      "velocity": 112,
      "chip": "ym2612"
    },
    {
      "channel": 1,
      "note": 80,
      "start": 13.7083,
      "duration": 0.031,
      "velocity": 127,
      "chip": "ym2612"
    },
    {
      "channel": 3,
      "note": 55,
      "start": 13.7135,
      "duration": 0.0261,
      "velocity": 112,
      "chip": "ym2612"
    },
    {
      "channel": 4,
      "note": 55,
      "start": 13.7138,
      "duration": 0.0308,
      "velocity": 112,
      "chip": "ym2612"
    },
    {
      "channel": 1,
      "note": 80,
      "start": 13.7394,
      "duration": 0.032,
      "velocity": 127,
      "chip": "ym2612"
    },
    {
      "channel": 3,
      "note": 52,
      "start": 13.7396,
      "duration": 0.032,
      "velocity": 112,
      "chip": "ym2612"
    },
    {
      "channel": 4,
      "note": 55,
      "start": 13.7446,
      "duration": 0.0322,
      "velocity": 112,
      "chip": "ym2612"
    },
    {
      "channel": 1,
      "note": 80,
      "start": 13.7714,
      "duration": 0.032,
      "velocity": 127,
      "chip": "ym2612"
    },
    {
      "channel": 3,
      "note": 51,
      "start": 13.7717,
      "duration": 0.037,
      "velocity": 112,
      "chip": "ym2612"
    },
    {
      "channel": 4,
      "note": 51,
      "start": 13.7769,
      "duration": 0.0322,
      "velocity": 112,
      "chip": "ym2612"
    },
    {
      "channel": 0,
      "note": 59,
      "start": 13.8017,
      "duration": 0.0636,
      "velocity": 102,
      "chip": "ym2612"
    },
    {
      "channel": 1,
      "note": 73,
      "start": 13.8034,
      "duration": 0.031,
      "velocity": 127,
      "chip": "ym2612"
    },
    {
      "channel": 2,
      "note": 59,
      "start": 13.8037,
      "duration": 0.0239,
      "velocity": 101,
      "chip": "ym2612"
    },
    {
      "channel": 3,
      "note": 52,
      "start": 13.8088,
      "duration": 0.0309,
      "velocity": 112,
      "chip": "ym2612"
    },
    {
      "channel": 4,
      "note": 52,
      "start": 13.8091,
      "duration": 0.0307,
      "velocity": 112,
      "chip": "ym2612"
    },
    {
      "channel": 1,
      "note": 80,
      "start": 13.8344,
      "duration": 0.0326,
      "velocity": 127,
      "chip": "ym2612"
    },
    {
      "channel": 3,
      "note": 55,
      "start": 13.8397,
      "duration": 0.0328,
      "velocity": 112,
      "chip": "ym2612"
    },
    {
      "channel": 4,
      "note": 55,
      "start": 13.8399,
      "duration": 0.0132,
      "velocity": 112,
      "chip": "ym2612"
    },
    {
      "channel": 0,
      "note": 62,
      "start": 13.8654,
      "duration": 0.0391,
      "velocity": 102,
      "chip": "ym2612"
    },
    {
      "channel": 1,
      "note": 75,
      "start": 13.8671,
      "duration": 0.063,
      "velocity": 127,
      "chip": "ym2612"
    },
    {
      "channel": 2,
      "note": 62,
      "start": 13.8723,
      "duration": 0.0203,
      "velocity": 101,
      "chip": "ym2612"
    },
    {
      "channel": 3,
      "note": 55,
      "start": 13.8725,
      "duration": 0.0259,
      "velocity": 112,
      "chip": "ym2612"
    },
    {
      "channel": 4,
      "note": 56,
      "start": 13.8728,
      "duration": 0.0258,
      "velocity": 112,
      "chip": "ym2612"
    },
    {
      "channel": 3,
      "note": 51,
      "start": 13.8985,
      "duration": 0.0371,
      "velocity": 112,
      "chip": "ym2612"
    },
    {
      "channel": 4,
      "note": 55,
      "start": 13.8987,
      "duration": 0.0371,
      "velocity": 112,
      "chip": "ym2612"
    },
    {
      "channel": 0,
      "note": 57,
      "start": 13.9284,
      "duration": 0.1271,
      "velocity": 102,
      "chip": "ym2612"
    },
    {
      "channel": 1,
      "note": 80,
      "start": 13.9301,
      "duration": 0.0308,
      "velocity": 127,
      "chip": "ym2612"
    },
    {
      "channel": 2,
      "note": 57,
      "start": 13.9353,
      "duration": 0.1271,
      "velocity": 101,
      "chip": "ym2612"
    },
    {
      "channel": 3,
      "note": 52,
      "start": 13.9356,
      "duration": 0.0256,
      "velocity": 112,
      "chip": "ym2612"
    },
    {
      "channel": 4,
      "note": 56,
      "start": 13.9358,
      "duration": 0.0256,
      "velocity": 112,
      "chip": "ym2612"
    },
    {
      "channel": 1,
      "note": 80,
      "start": 13.961,
      "duration": 0.0314,
      "velocity": 127,
      "chip": "ym2612"
    },
    {
      "channel": 3,
      "note": 55,
      "start": 13.9612,
      "duration": 0.0181,
      "velocity": 112,
      "chip": "ym2612"
    },
    {
      "channel": 4,
      "note": 57,
      "start": 13.9615,
      "duration": 0.018,
      "velocity": 112,
      "chip": "ym2612"
    },
    {
      "channel": 1,
      "note": 75,
      "start": 13.9924,
      "duration": 0.0321,
      "velocity": 127,
      "chip": "ym2612"
    },
    {
      "channel": 3,
      "note": 56,
      "start": 13.9977,
      "duration": 0.032,
      "velocity": 112,
      "chip": "ym2612"
    },
    {
      "channel": 4,
      "note": 58,
      "start": 13.9979,
      "duration": 0.032,
      "velocity": 112,
      "chip": "ym2612"
    },
    {
      "channel": 1,
      "note": 75,
      "start": 14.0246,
      "duration": 0.0327,
      "velocity": 127,
      "chip": "ym2612"
    },
    {
      "channel": 3,
      "note": 55,
      "start": 14.0297,
      "duration": 0.033,
      "velocity": 112,
      "chip": "ym2612"
    },
    {
      "channel": 4,
      "note": 59,
      "start": 14.03,
      "duration": 0.033,
      "velocity": 112,
      "chip": "ym2612"
    },
    {
      "channel": 0,
      "note": 59,
      "start": 14.0556,
      "duration": 0.0645,
      "velocity": 102,
      "chip": "ym2612"
    },
    {
      "channel": 1,
      "note": 73,
      "start": 14.0574,
      "duration": 0.0316,
      "velocity": 127,
      "chip": "ym2612"
    },
    {
      "channel": 2,
      "note": 59,
      "start": 14.0625,
      "duration": 0.019,
      "velocity": 101,
      "chip": "ym2612"
    },
    {
      "channel": 3,
      "note": 56,
      "start": 14.0628,
      "duration": 0.0314,
      "velocity": 112,
      "chip": "ym2612"
    },
    {
      "channel": 4,
      "note": 62,
      "start": 14.0631,
      "duration": 0.0314,
      "velocity": 112,
      "chip": "ym2612"
    },
    {
      "channel": 1,
      "note": 73,
      "start": 14.0891,
      "duration": 0.0327,
      "velocity": 127,
      "chip": "ym2612"
    },
    {
      "channel": 3,
      "note": 57,
      "start": 14.0943,
      "duration": 0.0135,
      "velocity": 112,
      "chip": "ym2612"
    },
    {
      "channel": 4,
      "note": 64,
      "start": 14.0946,
      "duration": 0.0327,
      "velocity": 112,
      "chip": "ym2612"
    },
    {
      "channel": 0,
      "note": 62,
      "start": 14.1202,
      "duration": 0.0407,
      "velocity": 102,
      "chip": "ym2612"
    },
    {
      "channel": 1,
      "note": 75,
      "start": 14.1219,
      "duration": 0.0325,
      "velocity": 127,
      "chip": "ym2612"
    },
    {
      "channel": 2,
      "note": 62,
      "start": 14.1268,
      "duration": 0.0202,
      "velocity": 101,
      "chip": "ym2612"
    },
    {
      "channel": 3,
      "note": 58,
      "start": 14.1271,
      "duration": 0.0324,
      "velocity": 112,
      "chip": "ym2612"
    },
    {
      "channel": 4,
      "note": 60,
      "start": 14.1274,
      "duration": 0.0325,
      "velocity": 112,
      "chip": "ym2612"
    },
    {
      "channel": 1,
      "note": 75,
      "start": 14.1544,
      "duration": 0.032,
      "velocity": 127,
      "chip": "ym2612"
    },
    {
      "channel": 3,
      "note": 59,
      "start": 14.1596,
      "duration": 0.0322,
      "velocity": 112,
      "chip": "ym2612"
    },
    {
      "channel": 4,
      "note": 57,
      "start": 14.1599,
      "duration": 0.0321,
      "velocity": 112,
      "chip": "ym2612"
    },
    {
      "channel": 0,
      "note": 59,
      "start": 14.1848,
      "duration": 0.0637,
      "velocity": 102,
      "chip": "ym2612"
    },
    {
      "channel": 1,
      "note": 80,
      "start": 14.1866,
      "duration": 0.0316,
      "velocity": 127,
      "chip": "ym2612"
    },
    {
      "channel": 2,
      "note": 59,
      "start": 14.1916,
      "duration": 0.0638,
      "velocity": 101,
      "chip": "ym2612"
    },
    {
      "channel": 3,
      "note": 62,
      "start": 14.1919,
      "duration": 0.0316,
      "velocity": 112,
      "chip": "ym2612"
    },
    {
      "channel": 4,
      "note": 55,
      "start": 14.1921,
      "duration": 0.0316,
      "velocity": 112,
      "chip": "ym2612"
    },
    {
      "channel": 1,
      "note": 75,
      "start": 14.2182,
      "duration": 0.0369,
      "velocity": 127,
      "chip": "ym2612"
    },
    {
      "channel": 3,
      "note": 64,
      "start": 14.2235,
      "duration": 0.0333,
      "velocity": 112,
      "chip": "ym2612"
    },
    {
      "channel": 4,
      "note": 52,
      "start": 14.2238,
      "duration": 0.0358,
      "velocity": 112,
      "chip": "ym2612"
    },
    {
      "channel": 0,
      "note": 57,
      "start": 14.2486,
      "duration": 0.0708,
      "velocity": 102,
      "chip": "ym2612"
    },
    {
      "channel": 1,
      "note": 73,
      "start": 14.2552,
      "duration": 0.0656,
      "velocity": 127,
      "chip": "ym2612"
    },
    {
      "channel": 2,
      "note": 57,
      "start": 14.2554,
      "duration": 0.0656,
      "velocity": 101,
      "chip": "ym2612"
    },
    {
      "channel": 3,
      "note": 43,
      "start": 14.2569,
      "duration": 0.0087,
      "velocity": 112,
      "chip": "ym2612"
    },
    {
      "channel": 4,
      "note": 52,
      "start": 14.2597,
      "duration": 0.006,
      "velocity": 112,
      "chip": "ym2612"
    },
    {
      "channel": 0,
      "note": 59,
      "start": 14.3195,
      "duration": 0.0683,
      "velocity": 102,
      "chip": "ym2612"
    },
    {
      "channel": 1,
      "note": 80,
      "start": 14.3209,
      "duration": 0.0293,
      "velocity": 127,
      "chip": "ym2612"
    },
    {
      "channel": 2,
      "note": 59,
      "start": 14.3211,
      "duration": 0.0233,
      "velocity": 101,
      "chip": "ym2612"
    },
    {
      "channel": 3,
      "note": 43,
      "start": 14.3261,
      "duration": 1.9256,
      "velocity": 112,
      "chip": "ym2612"
    },
    {
      "channel": 4,
      "note": 52,
      "start": 14.3262,
      "duration": 1.9257,
      "velocity": 112,
      "chip": "ym2612"
    },
    {
      "channel": 1,
      "note": 80,
      "start": 14.3502,
      "duration": 0.0314,
      "velocity": 127,
      "chip": "ym2612"
    },
    {
      "channel": 1,
      "note": 75,
      "start": 14.3816,
      "duration": 0.0611,
      "velocity": 127,
      "chip": "ym2612"
    },
    {
      "channel": 2,
      "note": 59,
      "start": 14.3818,
      "duration": 0.0063,
      "velocity": 101,
      "chip": "ym2612"
    },
    {
      "channel": 0,
      "note": 57,
      "start": 14.441,
      "duration": 0.0628,
      "velocity": 102,
      "chip": "ym2612"
    },
    {
      "channel": 1,
      "note": 80,
      "start": 14.4428,
      "duration": 0.0317,
      "velocity": 127,
      "chip": "ym2612"
    },
    {
      "channel": 2,
      "note": 57,
      "start": 14.4479,
      "duration": 0.0627,
      "velocity": 101,
      "chip": "ym2612"
    },
    {
      "channel": 1,
      "note": 80,
      "start": 14.4745,
      "duration": 0.031,
      "velocity": 127,
      "chip": "ym2612"
    },
    {
      "channel": 0,
      "note": 59,
      "start": 14.5039,
      "duration": 0.0438,
      "velocity": 102,
      "chip": "ym2612"
    },
    {
      "channel": 1,
      "note": 73,
      "start": 14.5055,
      "duration": 0.0618,
      "velocity": 127,
      "chip": "ym2612"
    },
    {
      "channel": 2,
      "note": 59,
      "start": 14.5107,
      "duration": 0.0569,
      "velocity": 101,
      "chip": "ym2612"
    },
    {
      "channel": 0,
      "note": 51,
      "start": 14.5656,
      "duration": 0.1231,
      "velocity": 102,
      "chip": "ym2612"
    },
    {
      "channel": 1,
      "note": 73,
      "start": 14.5674,
      "duration": 0.0307,
      "velocity": 127,
      "chip": "ym2612"
    },
    {
      "channel": 2,
      "note": 63,
      "start": 14.5676,
      "duration": 0.0117,
      "velocity": 101,
      "chip": "ym2612"
    },
    {
      "channel": 1,
      "note": 80,
      "start": 14.5982,
      "duration": 0.0311,
      "velocity": 127,
      "chip": "ym2612"
    },
    {
      "channel": 1,
      "note": 75,
      "start": 14.6294,
      "duration": 0.0611,
      "velocity": 127,
      "chip": "ym2612"
    },
    {
      "channel": 2,
      "note": 51,
      "start": 14.6296,
      "duration": 0.0183,
      "velocity": 101,
      "chip": "ym2612"
    },
    {
      "channel": 0,
      "note": 52,
      "start": 14.6888,
      "duration": 0.1248,
      "velocity": 102,
      "chip": "ym2612"
    },
    {
      "channel": 1,
      "note": 73,
      "start": 14.6904,
      "duration": 0.0317,
      "velocity": 127,
      "chip": "ym2612"
    },
    {
      "channel": 2,
      "note": 52,
      "start": 14.6956,
      "duration": 0.12,
      "velocity": 101,
      "chip": "ym2612"
    },
    {
      "channel": 1,
      "note": 80,
      "start": 14.7222,
      "duration": 0.0309,
      "velocity": 127,
      "chip": "ym2612"
    },
    {
      "channel": 1,
      "note": 80,
      "start": 14.7532,
      "duration": 0.0304,
      "velocity": 127,
      "chip": "ym2612"
    },
    {
      "channel": 1,
      "note": 80,
      "start": 14.7836,
      "duration": 0.0317,
      "velocity": 127,
      "chip": "ym2612"
    },
    {
      "channel": 0,
      "note": 54,
      "start": 14.8137,
      "duration": 0.0625,
      "velocity": 102,
      "chip": "ym2612"
    },
    {
      "channel": 1,
      "note": 73,
      "start": 14.8154,
      "duration": 0.031,
      "velocity": 127,
      "chip": "ym2612"
    },
    {
      "channel": 2,
      "note": 54,
      "start": 14.8156,
      "duration": 0.0238,
      "velocity": 101,
      "chip": "ym2612"
    },
    {
      "channel": 1,
      "note": 80,
      "start": 14.8464,
      "duration": 0.0315,
      "velocity": 127,
      "chip": "ym2612"
    },
    {
      "channel": 0,
      "note": 57,
      "start": 14.8762,
      "duration": 0.0381,
      "velocity": 102,
      "chip": "ym2612"
    },
    {
      "channel": 1,
      "note": 75,
      "start": 14.878,
      "duration": 0.0612,
      "velocity": 127,
      "chip": "ym2612"
    },
    {
      "channel": 2,
      "note": 57,
      "start": 14.883,
      "duration": 0.0197,
      "velocity": 101,
      "chip": "ym2612"
    },
    {
      "channel": 0,
      "note": 52,
      "start": 14.9375,
      "duration": 0.1262,
      "velocity": 102,
      "chip": "ym2612"
    },
    {
      "channel": 1,
      "note": 80,
      "start": 14.9393,
      "duration": 0.0314,
      "velocity": 127,
      "chip": "ym2612"
    },
    {
      "channel": 2,
      "note": 52,
      "start": 14.9444,
      "duration": 0.1212,
      "velocity": 101,
      "chip": "ym2612"
    },
    {
      "channel": 1,
      "note": 75,
      "start": 14.9707,
      "duration": 0.0315,
      "velocity": 127,
      "chip": "ym2612"
    },
    {
      "channel": 1,
      "note": 73,
      "start": 15.0022,
      "duration": 0.031,
      "velocity": 127,
      "chip": "ym2612"
    },
    {
      "channel": 1,
      "note": 75,
      "start": 15.0332,
      "duration": 0.0322,
      "velocity": 127,
      "chip": "ym2612"
    },
    {
      "channel": 0,
      "note": 54,
      "start": 15.0637,
      "duration": 0.0625,
      "velocity": 102,
      "chip": "ym2612"
    },
    {
      "channel": 1,
      "note": 73,
      "start": 15.0654,
      "duration": 0.031,
      "velocity": 127,
      "chip": "ym2612"
    },
    {
      "channel": 2,
      "note": 54,
      "start": 15.0657,
      "duration": 0.0238,
      "velocity": 101,
      "chip": "ym2612"
    },
    {
      "channel": 1,
      "note": 80,
      "start": 15.0966,
      "duration": 0.0315,
      "velocity": 127,
      "chip": "ym2612"
    },
    {
      "channel": 0,
      "note": 57,
      "start": 15.1263,
      "duration": 0.0381,
      "velocity": 102,
      "chip": "ym2612"
    },
    {
      "channel": 1,
      "note": 75,
      "start": 15.1281,
      "duration": 0.0614,
      "velocity": 127,
      "chip": "ym2612"
    },
    {
      "channel": 2,
      "note": 57,
      "start": 15.1332,
      "duration": 0.0195,
      "velocity": 101,
      "chip": "ym2612"
    },
    {
      "channel": 0,
      "note": 54,
      "start": 15.1878,
      "duration": 0.0631,
      "velocity": 102,
      "chip": "ym2612"
    },
    {
      "channel": 1,
      "note": 80,
      "start": 15.1895,
      "duration": 0.0311,
      "velocity": 127,
      "chip": "ym2612"
    },
    {
      "channel": 2,
      "note": 54,
      "start": 15.1947,
      "duration": 0.0632,
      "velocity": 101,
      "chip": "ym2612"
    },
    {
      "channel": 1,
      "note": 75,
      "start": 15.2207,
      "duration": 0.0321,
      "velocity": 127,
      "chip": "ym2612"
    },
    {
      "channel": 0,
      "note": 57,
      "start": 15.251,
      "duration": 0.0615,
      "velocity": 102,
      "chip": "ym2612"
    },
    {
      "channel": 1,
      "note": 73,
      "start": 15.2528,
      "duration": 0.061,
      "velocity": 127,
      "chip": "ym2612"
    },
    {
      "channel": 2,
      "note": 57,
      "start": 15.258,
      "duration": 0.056,
      "velocity": 101,
      "chip": "ym2612"
    },
    {
      "channel": 0,
      "note": 59,
      "start": 15.3125,
      "duration": 0.0681,
      "velocity": 102,
      "chip": "ym2612"
    },
    {
      "channel": 1,
      "note": 80,
      "start": 15.3139,
      "duration": 0.0296,
      "velocity": 127,
      "chip": "ym2612"
    },
    {
      "channel": 2,
      "note": 59,
      "start": 15.3141,
      "duration": 0.0237,
      "velocity": 101,
      "chip": "ym2612"
    },
    {
      "channel": 1,
      "note": 80,
      "start": 15.3436,
      "duration": 0.0307,
      "velocity": 127,
      "chip": "ym2612"
    },
    {
      "channel": 1,
      "note": 75,
      "start": 15.3744,
      "duration": 0.0617,
      "velocity": 127,
      "chip": "ym2612"
    },
    {
      "channel": 2,
      "note": 59,
      "start": 15.3745,
      "duration": 0.0064,
      "velocity": 101,
      "chip": "ym2612"
    },
    {
      "channel": 0,
      "note": 57,
      "start": 15.4343,
      "duration": 0.063,
      "velocity": 102,
      "chip": "ym2612"
    },
    {
      "channel": 1,
      "note": 80,
      "start": 15.4361,
      "duration": 0.031,
      "velocity": 127,
      "chip": "ym2612"
    },
    {
      "channel": 2,
      "note": 57,
      "start": 15.4411,
      "duration": 0.0581,
      "velocity": 101,
      "chip": "ym2612"
    },
    {
      "channel": 1,
      "note": 80,
      "start": 15.4671,
      "duration": 0.0318,
      "velocity": 127,
      "chip": "ym2612"
    },
    {
      "channel": 0,
      "note": 59,
      "start": 15.4973,
      "duration": 0.0429,
      "velocity": 102,
      "chip": "ym2612"
    },
    {
      "channel": 1,
      "note": 73,
      "start": 15.499,
      "duration": 0.0609,
      "velocity": 127,
      "chip": "ym2612"
    },
    {
      "channel": 2,
      "note": 59,
      "start": 15.4993,
      "duration": 0.0608,
      "velocity": 101,
      "chip": "ym2612"
    },
    {
      "channel": 0,
      "note": 51,
      "start": 15.5582,
      "duration": 0.1229,
      "velocity": 102,
      "chip": "ym2612"
    },
    {
      "channel": 1,
      "note": 73,
      "start": 15.5599,
      "duration": 0.0314,
      "velocity": 127,
      "chip": "ym2612"
    },
    {
      "channel": 2,
      "note": 63,
      "start": 15.5602,
      "duration": 0.0124,
      "velocity": 101,
      "chip": "ym2612"
    },
    {
      "channel": 1,
      "note": 80,
      "start": 15.5914,
      "duration": 0.03,
      "velocity": 127,
      "chip": "ym2612"
    },
    {
      "channel": 1,
      "note": 75,
      "start": 15.6214,
      "duration": 0.0614,
      "velocity": 127,
      "chip": "ym2612"
    },
    {
      "channel": 2,
      "note": 51,
      "start": 15.6217,
      "duration": 0.0183,
      "velocity": 101,
      "chip": "ym2612"
    },
    {
      "channel": 0,
      "note": 52,
      "start": 15.6812,
      "duration": 0.1242,
      "velocity": 102,
      "chip": "ym2612"
    },
    {
      "channel": 1,
      "note": 73,
      "start": 15.6829,
      "duration": 0.0313,
      "velocity": 127,
      "chip": "ym2612"
    },
    {
      "channel": 2,
      "note": 52,
      "start": 15.688,
      "duration": 0.1193,
      "velocity": 101,
      "chip": "ym2612"
    },
    {
      "channel": 1,
      "note": 80,
      "start": 15.7142,
      "duration": 0.0313,
      "velocity": 127,
      "chip": "ym2612"
    },
    {
      "channel": 1,
      "note": 80,
      "start": 15.7456,
      "duration": 0.0301,
      "velocity": 127,
      "chip": "ym2612"
    },
    {
      "channel": 1,
      "note": 80,
      "start": 15.7757,
      "duration": 0.0314,
      "velocity": 127,
      "chip": "ym2612"
    },
    {
      "channel": 0,
      "note": 54,
      "start": 15.8055,
      "duration": 0.0624,
      "velocity": 102,
      "chip": "ym2612"
    },
    {
      "channel": 1,
      "note": 73,
      "start": 15.8072,
      "duration": 0.0317,
      "velocity": 127,
      "chip": "ym2612"
    },
    {
      "channel": 2,
      "note": 54,
      "start": 15.8074,
      "duration": 0.0244,
      "velocity": 101,
      "chip": "ym2612"
    },
    {
      "channel": 1,
      "note": 80,
      "start": 15.8389,
      "duration": 0.0307,
      "velocity": 127,
      "chip": "ym2612"
    },
    {
      "channel": 0,
      "note": 57,
      "start": 15.8679,
      "duration": 0.0384,
      "velocity": 102,
      "chip": "ym2612"
    },
    {
      "channel": 1,
      "note": 75,
      "start": 15.8696,
      "duration": 0.0617,
      "velocity": 127,
      "chip": "ym2612"
    },
    {
      "channel": 2,
      "note": 57,
      "start": 15.8748,
      "duration": 0.0196,
      "velocity": 101,
      "chip": "ym2612"
    },
    {
      "channel": 0,
      "note": 52,
      "start": 15.9297,
      "duration": 0.1237,
      "velocity": 102,
      "chip": "ym2612"
    },
    {
      "channel": 1,
      "note": 80,
      "start": 15.9314,
      "duration": 0.0294,
      "velocity": 127,
      "chip": "ym2612"
    },
    {
      "channel": 2,
      "note": 52,
      "start": 15.9367,
      "duration": 0.1236,
      "velocity": 101,
      "chip": "ym2612"
    },
    {
      "channel": 1,
      "note": 80,
      "start": 15.9609,
      "duration": 0.0311,
      "velocity": 127,
      "chip": "ym2612"
    },
    {
      "channel": 1,
      "note": 75,
      "start": 15.992,
      "duration": 0.031,
      "velocity": 127,
      "chip": "ym2612"
    },
    {
      "channel": 1,
      "note": 75,
      "start": 16.023,
      "duration": 0.0322,
      "velocity": 127,
      "chip": "ym2612"
    },
    {
      "channel": 0,
      "note": 54,
      "start": 16.0534,
      "duration": 0.0632,
      "velocity": 102,
      "chip": "ym2612"
    },
    {
      "channel": 1,
      "note": 73,
      "start": 16.0552,
      "duration": 0.032,
      "velocity": 127,
      "chip": "ym2612"
    },
    {
      "channel": 2,
      "note": 54,
      "start": 16.0603,
      "duration": 0.0195,
      "velocity": 101,
      "chip": "ym2612"
    },
    {
      "channel": 1,
      "note": 73,
      "start": 16.0873,
      "duration": 0.0358,
      "velocity": 127,
      "chip": "ym2612"
    },
    {
      "channel": 0,
      "note": 57,
      "start": 16.1167,
      "duration": 0.0401,
      "velocity": 102,
      "chip": "ym2612"
    },
    {
      "channel": 1,
      "note": 75,
      "start": 16.1232,
      "duration": 0.0273,
      "velocity": 127,
      "chip": "ym2612"
    },
    {
      "channel": 2,
      "note": 57,
      "start": 16.1234,
      "duration": 0.0195,
      "velocity": 101,
      "chip": "ym2612"
    },
    {
      "channel": 1,
      "note": 75,
      "start": 16.1505,
      "duration": 0.032,
      "velocity": 127,
      "chip": "ym2612"
    },
    {
      "channel": 0,
      "note": 54,
      "start": 16.1808,
      "duration": 0.0626,
      "velocity": 102,
      "chip": "ym2612"
    },
    {
      "channel": 1,
      "note": 80,
      "start": 16.1874,
      "duration": 0.0254,
      "velocity": 127,
      "chip": "ym2612"
    },
    {
      "channel": 2,
      "note": 54,
      "start": 16.1876,
      "duration": 0.0639,
      "velocity": 94,
      "chip": "ym2612"
    },
    {
      "channel": 1,
      "note": 75,
      "start": 16.2129,
      "duration": 0.0372,
      "velocity": 127,
      "chip": "ym2612"
    },
    {
      "channel": 0,
      "note": 59,
      "start": 16.2435,
      "duration": 0.0632,
      "velocity": 102,
      "chip": "ym2612"
    },
    {
      "channel": 1,
      "note": 73,
      "start": 16.2501,
      "duration": 0.0579,
      "velocity": 127,
      "chip": "ym2612"
    },
    {
      "channel": 2,
      "note": 85,
      "start": 16.2515,
      "duration": 0.0255,
      "velocity": 94,
      "chip": "ym2612"
    },
    {
      "channel": 3,
      "note": 42,
      "start": 16.2517,
      "duration": 2.0151,
      "velocity": 112,
      "chip": "ym2612"
    },
    {
      "channel": 4,
      "note": 51,
      "start": 16.252,
      "duration": 2.0151,
      "velocity": 112,
      "chip": "ym2612"
    },
    {
      "channel": 2,
      "note": 73,
      "start": 16.277,
      "duration": 0.0365,
      "velocity": 94,
      "chip": "ym2612"
    },
    {
      "channel": 0,
      "note": 59,
      "start": 16.3068,
      "duration": 0.0688,
      "velocity": 102,
      "chip": "ym2612"
    },
    {
      "channel": 1,
      "note": 80,
      "start": 16.3081,
      "duration": 0.0303,
      "velocity": 127,
      "chip": "ym2612"
    },
    {
      "channel": 2,
      "note": 82,
      "start": 16.3135,
      "duration": 0.0254,
      "velocity": 94,
      "chip": "ym2612"
    },
    {
      "channel": 1,
      "note": 80,
      "start": 16.3385,
      "duration": 0.0306,
      "velocity": 127,
      "chip": "ym2612"
    },
    {
      "channel": 2,
      "note": 85,
      "start": 16.339,
      "duration": 0.0356,
      "velocity": 94,
      "chip": "ym2612"
    },
    {
      "channel": 1,
      "note": 75,
      "start": 16.3692,
      "duration": 0.0627,
      "velocity": 127,
      "chip": "ym2612"
    },
    {
      "channel": 2,
      "note": 83,
      "start": 16.3746,
      "duration": 0.0255,
      "velocity": 94,
      "chip": "ym2612"
    },
    {
      "channel": 2,
      "note": 82,
      "start": 16.4002,
      "duration": 0.037,
      "velocity": 94,
      "chip": "ym2612"
    },
    {
      "channel": 0,
      "note": 54,
      "start": 16.4302,
      "duration": 0.0632,
      "velocity": 102,
      "chip": "ym2612"
    },
    {
      "channel": 1,
      "note": 80,
      "start": 16.4319,
      "duration": 0.0309,
      "velocity": 127,
      "chip": "ym2612"
    },
    {
      "channel": 2,
      "note": 80,
      "start": 16.4373,
      "duration": 0.0309,
      "velocity": 94,
      "chip": "ym2612"
    },
    {
      "channel": 1,
      "note": 80,
      "start": 16.4629,
      "duration": 0.0318,
      "velocity": 127,
      "chip": "ym2612"
    },
    {
      "channel": 2,
      "note": 83,
      "start": 16.4682,
      "duration": 0.0319,
      "velocity": 94,
      "chip": "ym2612"
    },
    {
      "channel": 0,
      "note": 59,
      "start": 16.4934,
      "duration": 0.0434,
      "velocity": 102,
      "chip": "ym2612"
    },
    {
      "channel": 1,
      "note": 73,
      "start": 16.4947,
      "duration": 0.0615,
      "velocity": 127,
      "chip": "ym2612"
    },
    {
      "channel": 2,
      "note": 82,
      "start": 16.5001,
      "duration": 0.0249,
      "velocity": 94,
      "chip": "ym2612"
    },
    {
      "channel": 2,
      "note": 80,
      "start": 16.5251,
      "duration": 0.0364,
      "velocity": 94,
      "chip": "ym2612"
    },
    {
      "channel": 0,
      "note": 51,
      "start": 16.5545,
      "duration": 0.1262,
      "velocity": 102,
      "chip": "ym2612"
    },
    {
      "channel": 1,
      "note": 73,
      "start": 16.5562,
      "duration": 0.032,
      "velocity": 127,
      "chip": "ym2612"
    },
    {
      "channel": 2,
      "note": 78,
      "start": 16.5615,
      "duration": 0.0322,
      "velocity": 94,
      "chip": "ym2612"
    },
    {
      "channel": 1,
      "note": 80,
      "start": 16.5883,
      "duration": 0.0313,
      "velocity": 127,
      "chip": "ym2612"
    },
    {
      "channel": 2,
      "note": 82,
      "start": 16.5938,
      "duration": 0.0312,
      "velocity": 94,
      "chip": "ym2612"
    },
    {
      "channel": 1,
      "note": 75,
      "start": 16.6197,
      "duration": 0.0627,
      "velocity": 127,
      "chip": "ym2612"
    },
    {
      "channel": 2,
      "note": 80,
      "start": 16.6251,
      "duration": 0.0255,
      "velocity": 94,
      "chip": "ym2612"
    },
    {
      "channel": 2,
      "note": 78,
      "start": 16.6506,
      "duration": 0.0372,
      "velocity": 94,
      "chip": "ym2612"
    },
    {
      "channel": 0,
      "note": 52,
      "start": 16.6807,
      "duration": 0.1268,
      "velocity": 102,
      "chip": "ym2612"
    },
    {
      "channel": 1,
      "note": 73,
      "start": 16.6824,
      "duration": 0.0307,
      "velocity": 127,
      "chip": "ym2612"
    },
    {
      "channel": 2,
      "note": 73,
      "start": 16.6878,
      "duration": 0.0308,
      "velocity": 94,
      "chip": "ym2612"
    },
    {
      "channel": 1,
      "note": 80,
      "start": 16.7132,
      "duration": 0.0319,
      "velocity": 127,
      "chip": "ym2612"
    },
    {
      "channel": 2,
      "note": 80,
      "start": 16.7186,
      "duration": 0.0332,
      "velocity": 94,
      "chip": "ym2612"
    },
    {
      "channel": 1,
      "note": 80,
      "start": 16.7451,
      "duration": 0.0327,
      "velocity": 127,
      "chip": "ym2612"
    },
    {
      "channel": 2,
      "note": 85,
      "start": 16.7518,
      "duration": 0.0313,
      "velocity": 94,
      "chip": "ym2612"
    },
    {
      "channel": 1,
      "note": 80,
      "start": 16.7779,
      "duration": 0.0314,
      "velocity": 127,
      "chip": "ym2612"
    },
    {
      "channel": 2,
      "note": 73,
      "start": 16.7832,
      "duration": 0.0314,
      "velocity": 94,
      "chip": "ym2612"
    },
    {
      "channel": 0,
      "note": 54,
      "start": 16.8076,
      "duration": 0.0641,
      "velocity": 102,
      "chip": "ym2612"
    },
    {
      "channel": 1,
      "note": 73,
      "start": 16.8093,
      "duration": 0.0322,
      "velocity": 127,
      "chip": "ym2612"
    },
    {
      "channel": 2,
      "note": 82,
      "start": 16.8146,
      "duration": 0.0323,
      "velocity": 94,
      "chip": "ym2612"
    },
    {
      "channel": 1,
      "note": 80,
      "start": 16.8415,
      "duration": 0.0318,
      "velocity": 127,
      "chip": "ym2612"
    },
    {
      "channel": 2,
      "note": 85,
      "start": 16.847,
      "duration": 0.0317,
      "velocity": 94,
      "chip": "ym2612"
    },
    {
      "channel": 0,
      "note": 61,
      "start": 16.8717,
      "duration": 0.0387,
      "velocity": 102,
      "chip": "ym2612"
    },
    {
      "channel": 1,
      "note": 75,
      "start": 16.8734,
      "duration": 0.0629,
      "velocity": 127,
      "chip": "ym2612"
    },
    {
      "channel": 2,
      "note": 83,
      "start": 16.8788,
      "duration": 0.0254,
      "velocity": 94,
      "chip": "ym2612"
    },
    {
      "channel": 2,
      "note": 82,
      "start": 16.9042,
      "duration": 0.0374,
      "velocity": 94,
      "chip": "ym2612"
    },
    {
      "channel": 0,
      "note": 54,
      "start": 16.9346,
      "duration": 0.1267,
      "velocity": 102,
      "chip": "ym2612"
    },
    {
      "channel": 1,
      "note": 80,
      "start": 16.9363,
      "duration": 0.0305,
      "velocity": 127,
      "chip": "ym2612"
    },
    {
      "channel": 2,
      "note": 80,
      "start": 16.9417,
      "duration": 0.0306,
      "velocity": 94,
      "chip": "ym2612"
    },
    {
      "channel": 1,
      "note": 75,
      "start": 16.9669,
      "duration": 0.0323,
      "velocity": 127,
      "chip": "ym2612"
    },
    {
      "channel": 2,
      "note": 83,
      "start": 16.9724,
      "duration": 0.0321,
      "velocity": 94,
      "chip": "ym2612"
    },
    {
      "channel": 1,
      "note": 73,
      "start": 16.9993,
      "duration": 0.0321,
      "velocity": 127,
      "chip": "ym2612"
    },
    {
      "channel": 2,
      "note": 82,
      "start": 17.0045,
      "duration": 0.0322,
      "velocity": 94,
      "chip": "ym2612"
    },
    {
      "channel": 1,
      "note": 75,
      "start": 17.0315,
      "duration": 0.0317,
      "velocity": 127,
      "chip": "ym2612"
    },
    {
      "channel": 2,
      "note": 80,
      "start": 17.0368,
      "duration": 0.0316,
      "velocity": 94,
      "chip": "ym2612"
    },
    {
      "channel": 0,
      "note": 56,
      "start": 17.0614,
      "duration": 0.0632,
      "velocity": 102,
      "chip": "ym2612"
    },
    {
      "channel": 1,
      "note": 73,
      "start": 17.0631,
      "duration": 0.032,
      "velocity": 127,
      "chip": "ym2612"
    },
    {
      "channel": 2,
      "note": 78,
      "start": 17.0684,
      "duration": 0.0321,
      "velocity": 94,
      "chip": "ym2612"
    },
    {
      "channel": 1,
      "note": 80,
      "start": 17.0951,
      "duration": 0.0313,
      "velocity": 127,
      "chip": "ym2612"
    },
    {
      "channel": 2,
      "note": 82,
      "start": 17.1006,
      "duration": 0.0314,
      "velocity": 94,
      "chip": "ym2612"
    },
    {
      "channel": 0,
      "note": 56,
      "start": 17.1246,
      "duration": 0.0385,
      "velocity": 102,
      "chip": "ym2612"
    },
    {
      "channel": 1,
      "note": 75,
      "start": 17.1265,
      "duration": 0.0622,
      "velocity": 127,
      "chip": "ym2612"
    },
    {
      "channel": 2,
      "note": 80,
      "start": 17.132,
      "duration": 0.025,
      "velocity": 94,
      "chip": "ym2612"
    },
    {
      "channel": 2,
      "note": 78,
      "start": 17.157,
      "duration": 0.037,
      "velocity": 94,
      "chip": "ym2612"
    },
    {
      "channel": 0,
      "note": 54,
      "start": 17.1873,
      "duration": 0.0628,
      "velocity": 102,
      "chip": "ym2612"
    },
    {
      "channel": 1,
      "note": 80,
      "start": 17.1887,
      "duration": 0.0306,
      "velocity": 127,
      "chip": "ym2612"
    },
    {
      "channel": 2,
      "note": 73,
      "start": 17.1941,
      "duration": 0.0305,
      "velocity": 94,
      "chip": "ym2612"
    },
    {
      "channel": 1,
      "note": 75,
      "start": 17.2193,
      "duration": 0.0327,
      "velocity": 127,
      "chip": "ym2612"
    },
    {
      "channel": 2,
      "note": 80,
      "start": 17.2247,
      "duration": 0.0337,
      "velocity": 94,
      "chip": "ym2612"
    },
    {
      "channel": 0,
      "note": 59,
      "start": 17.2502,
      "duration": 0.0628,
      "velocity": 102,
      "chip": "ym2612"
    },
    {
      "channel": 1,
      "note": 73,
      "start": 17.252,
      "duration": 0.0623,
      "velocity": 127,
      "chip": "ym2612"
    },
    {
      "channel": 2,
      "note": 85,
      "start": 17.2584,
      "duration": 0.0254,
      "velocity": 94,
      "chip": "ym2612"
    },
    {
      "channel": 2,
      "note": 73,
      "start": 17.2839,
      "duration": 0.0359,
      "velocity": 94,
      "chip": "ym2612"
    },
    {
      "channel": 0,
      "note": 59,
      "start": 17.313,
      "duration": 0.0694,
      "velocity": 102,
      "chip": "ym2612"
    },
    {
      "channel": 1,
      "note": 80,
      "start": 17.3144,
      "duration": 0.0303,
      "velocity": 127,
      "chip": "ym2612"
    },
    {
      "channel": 2,
      "note": 82,
      "start": 17.3198,
      "duration": 0.0254,
      "velocity": 94,
      "chip": "ym2612"
    },
    {
      "channel": 1,
      "note": 80,
      "start": 17.3447,
      "duration": 0.0313,
      "velocity": 127,
      "chip": "ym2612"
    },
    {
      "channel": 2,
      "note": 85,
      "start": 17.3453,
      "duration": 0.0361,
      "velocity": 94,
      "chip": "ym2612"
    },
    {
      "channel": 1,
      "note": 75,
      "start": 17.3761,
      "duration": 0.0625,
      "velocity": 127,
      "chip": "ym2612"
    },
    {
      "channel": 2,
      "note": 83,
      "start": 17.3815,
      "duration": 0.0252,
      "velocity": 94,
      "chip": "ym2612"
    },
    {
      "channel": 2,
      "note": 82,
      "start": 17.4067,
      "duration": 0.0373,
      "velocity": 94,
      "chip": "ym2612"
    },
    {
      "channel": 0,
      "note": 54,
      "start": 17.437,
      "duration": 0.0628,
      "velocity": 102,
      "chip": "ym2612"
    },
    {
      "channel": 1,
      "note": 80,
      "start": 17.4387,
      "duration": 0.031,
      "velocity": 127,
      "chip": "ym2612"
    },
    {
      "channel": 2,
      "note": 80,
      "start": 17.4441,
      "duration": 0.031,
      "velocity": 94,
      "chip": "ym2612"
    },
    {
      "channel": 1,
      "note": 80,
      "start": 17.4698,
      "duration": 0.0318,
      "velocity": 127,
      "chip": "ym2612"
    },
    {
      "channel": 2,
      "note": 83,
      "start": 17.4751,
      "duration": 0.0319,
      "velocity": 94,
      "chip": "ym2612"
    },
    {
      "channel": 0,
      "note": 59,
      "start": 17.4999,
      "duration": 0.0448,
      "velocity": 102,
      "chip": "ym2612"
    },
    {
      "channel": 1,
      "note": 73,
      "start": 17.5016,
      "duration": 0.062,
      "velocity": 127,
      "chip": "ym2612"
    },
    {
      "channel": 2,
      "note": 82,
      "start": 17.5071,
      "duration": 0.0257,
      "velocity": 94,
      "chip": "ym2612"
    },
    {
      "channel": 2,
      "note": 80,
      "start": 17.5328,
      "duration": 0.0362,
      "velocity": 94,
      "chip": "ym2612"
    },
    {
      "channel": 0,
      "note": 51,
      "start": 17.5619,
      "duration": 0.126,
      "velocity": 102,
      "chip": "ym2612"
    },
    {
      "channel": 1,
      "note": 73,
      "start": 17.5637,
      "duration": 0.0321,
      "velocity": 127,
      "chip": "ym2612"
    },
    {
      "channel": 2,
      "note": 78,
      "start": 17.5691,
      "duration": 0.032,
      "velocity": 94,
      "chip": "ym2612"
    },
    {
      "channel": 1,
      "note": 80,
      "start": 17.5958,
      "duration": 0.0314,
      "velocity": 127,
      "chip": "ym2612"
    },
    {
      "channel": 2,
      "note": 82,
      "start": 17.6012,
      "duration": 0.0315,
      "velocity": 94,
      "chip": "ym2612"
    },
    {
      "channel": 1,
      "note": 75,
      "start": 17.6273,
      "duration": 0.0619,
      "velocity": 127,
      "chip": "ym2612"
    },
    {
      "channel": 2,
      "note": 80,
      "start": 17.6328,
      "duration": 0.0249,
      "velocity": 94,
      "chip": "ym2612"
    },
    {
      "channel": 2,
      "note": 78,
      "start": 17.6578,
      "duration": 0.0368,
      "velocity": 94,
      "chip": "ym2612"
    },
    {
      "channel": 0,
      "note": 52,
      "start": 17.688,
      "duration": 0.1259,
      "velocity": 102,
      "chip": "ym2612"
    },
    {
      "channel": 1,
      "note": 73,
      "start": 17.6893,
      "duration": 0.0312,
      "velocity": 127,
      "chip": "ym2612"
    },
    {
      "channel": 2,
      "note": 73,
      "start": 17.6946,
      "duration": 0.0312,
      "velocity": 94,
      "chip": "ym2612"
    },
    {
      "channel": 1,
      "note": 80,
      "start": 17.7205,
      "duration": 0.031,
      "velocity": 127,
      "chip": "ym2612"
    },
    {
      "channel": 2,
      "note": 80,
      "start": 17.7258,
      "duration": 0.0324,
      "velocity": 94,
      "chip": "ym2612"
    },
    {
      "channel": 1,
      "note": 80,
      "start": 17.7516,
      "duration": 0.033,
      "velocity": 127,
      "chip": "ym2612"
    },
    {
      "channel": 2,
      "note": 85,
      "start": 17.7583,
      "duration": 0.0316,
      "velocity": 94,
      "chip": "ym2612"
    },
    {
      "channel": 1,
      "note": 80,
      "start": 17.7847,
      "duration": 0.031,
      "velocity": 127,
      "chip": "ym2612"
    },
    {
      "channel": 2,
      "note": 73,
      "start": 17.79,
      "duration": 0.0312,
      "velocity": 94,
      "chip": "ym2612"
    },
    {
      "channel": 0,
      "note": 54,
      "start": 17.814,
      "duration": 0.0644,
      "velocity": 102,
      "chip": "ym2612"
    },
    {
      "channel": 1,
      "note": 73,
      "start": 17.8157,
      "duration": 0.0321,
      "velocity": 127,
      "chip": "ym2612"
    },
    {
      "channel": 2,
      "note": 82,
      "start": 17.8211,
      "duration": 0.0322,
      "velocity": 94,
      "chip": "ym2612"
    },
    {
      "channel": 1,
      "note": 80,
      "start": 17.8479,
      "duration": 0.0322,
      "velocity": 127,
      "chip": "ym2612"
    },
    {
      "channel": 2,
      "note": 85,
      "start": 17.8534,
      "duration": 0.032,
      "velocity": 94,
      "chip": "ym2612"
    },
    {
      "channel": 0,
      "note": 61,
      "start": 17.8784,
      "duration": 0.0378,
      "velocity": 102,
      "chip": "ym2612"
    },
    {
      "channel": 1,
      "note": 75,
      "start": 17.8802,
      "duration": 0.0619,
      "velocity": 127,
      "chip": "ym2612"
    },
    {
      "channel": 2,
      "note": 83,
      "start": 17.8855,
      "duration": 0.0246,
      "velocity": 94,
      "chip": "ym2612"
    },
    {
      "channel": 2,
      "note": 82,
      "start": 17.9102,
      "duration": 0.0373,
      "velocity": 94,
      "chip": "ym2612"
    },
    {
      "channel": 0,
      "note": 54,
      "start": 17.9404,
      "duration": 0.1255,
      "velocity": 102,
      "chip": "ym2612"
    },
    {
      "channel": 1,
      "note": 80,
      "start": 17.9422,
      "duration": 0.0298,
      "velocity": 127,
      "chip": "ym2612"
    },
    {
      "channel": 2,
      "note": 80,
      "start": 17.9477,
      "duration": 0.0248,
      "velocity": 94,
      "chip": "ym2612"
    },
    {
      "channel": 1,
      "note": 80,
      "start": 17.972,
      "duration": 0.0312,
      "velocity": 127,
      "chip": "ym2612"
    },
    {
      "channel": 2,
      "note": 83,
      "start": 17.9725,
      "duration": 0.036,
      "velocity": 94,
      "chip": "ym2612"
    },
    {
      "channel": 1,
      "note": 75,
      "start": 18.0032,
      "duration": 0.0324,
      "velocity": 127,
      "chip": "ym2612"
    },
    {
      "channel": 2,
      "note": 82,
      "start": 18.0086,
      "duration": 0.0325,
      "velocity": 94,
      "chip": "ym2612"
    },
    {
      "channel": 1,
      "note": 75,
      "start": 18.0357,
      "duration": 0.0321,
      "velocity": 127,
      "chip": "ym2612"
    },
    {
      "channel": 2,
      "note": 80,
      "start": 18.0411,
      "duration": 0.0319,
      "velocity": 94,
      "chip": "ym2612"
    },
    {
      "channel": 0,
      "note": 56,
      "start": 18.066,
      "duration": 0.0645,
      "velocity": 102,
      "chip": "ym2612"
    },
    {
      "channel": 1,
      "note": 73,
      "start": 18.0678,
      "duration": 0.0319,
      "velocity": 127,
      "chip": "ym2612"
    },
    {
      "channel": 2,
      "note": 78,
      "start": 18.0731,
      "duration": 0.032,
      "velocity": 94,
      "chip": "ym2612"
    },
    {
      "channel": 1,
      "note": 73,
      "start": 18.0997,
      "duration": 0.0327,
      "velocity": 127,
      "chip": "ym2612"
    },
    {
      "channel": 2,
      "note": 82,
      "start": 18.1051,
      "duration": 0.0327,
      "velocity": 94,
      "chip": "ym2612"
    },
    {
      "channel": 0,
      "note": 56,
      "start": 18.1306,
      "duration": 0.0397,
      "velocity": 102,
      "chip": "ym2612"
    },
    {
      "channel": 1,
      "note": 75,
      "start": 18.1324,
      "duration": 0.0313,
      "velocity": 127,
      "chip": "ym2612"
    },
    {
      "channel": 2,
      "note": 80,
      "start": 18.1378,
      "duration": 0.0313,
      "velocity": 94,
      "chip": "ym2612"
    },
    {
      "channel": 1,
      "note": 75,
      "start": 18.1638,
      "duration": 0.0326,
      "velocity": 127,
      "chip": "ym2612"
    },
    {
      "channel": 2,
      "note": 78,
      "start": 18.1692,
      "duration": 0.0326,
      "velocity": 94,
      "chip": "ym2612"
    },
    {
      "channel": 0,
      "note": 54,
      "start": 18.1946,
      "duration": 0.0634,
      "velocity": 102,
      "chip": "ym2612"
    },
    {
      "channel": 1,
      "note": 80,
      "start": 18.1964,
      "duration": 0.0312,
      "velocity": 127,
      "chip": "ym2612"
    },
    {
      "channel": 2,
      "note": 73,
      "start": 18.2019,
      "duration": 0.0312,
      "velocity": 94,
      "chip": "ym2612"
    },
    {
      "channel": 1,
      "note": 75,
      "start": 18.2277,
      "duration": 0.037,
      "velocity": 127,
      "chip": "ym2612"
    },
    {
      "channel": 2,
      "note": 80,
      "start": 18.2332,
      "duration": 0.0335,
      "velocity": 112,
      "chip": "ym2612"
    },
    {
      "channel": 0,
      "note": 57,
      "start": 18.2581,
      "duration": 0.0642,
      "velocity": 102,
      "chip": "ym2612"
    },
    {
      "channel": 1,
      "note": 73,
      "start": 18.2648,
      "duration": 0.0589,
      "velocity": 127,
      "chip": "ym2612"
    },
    {
      "channel": 2,
      "note": 40,
      "start": 18.2667,
      "duration": 0.0262,
      "velocity": 112,
      "chip": "ym2612"
    },
    {
      "channel": 3,
      "note": 45,
      "start": 18.2669,
      "duration": 1.4919,
      "velocity": 112,
      "chip": "ym2612"
    },
    {
      "channel": 4,
      "note": 54,
      "start": 18.2672,
      "duration": 1.4919,
      "velocity": 112,
      "chip": "ym2612"
    },
    {
      "channel": 2,
      "note": 42,
      "start": 18.293,
      "duration": 0.0309,
      "velocity": 112,
      "chip": "ym2612"
    },
    {
      "channel": 0,
      "note": 59,
      "start": 18.3224,
      "duration": 0.069,
      "velocity": 102,
      "chip": "ym2612"
    },
    {
      "channel": 1,
      "note": 80,
      "start": 18.3237,
      "duration": 0.0293,
      "velocity": 127,
      "chip": "ym2612"
    },
    {
      "channel": 2,
      "note": 44,
      "start": 18.324,
      "duration": 0.0293,
      "velocity": 112,
      "chip": "ym2612"
    },
    {
      "channel": 1,
      "note": 80,
      "start": 18.3531,
      "duration": 0.0319,
      "velocity": 127,
      "chip": "ym2612"
    },
    {
      "channel": 2,
      "note": 45,
      "start": 18.3533,
      "duration": 0.0318,
      "velocity": 112,
      "chip": "ym2612"
    },
    {
      "channel": 1,
      "note": 75,
      "start": 18.3849,
      "duration": 0.0619,
      "velocity": 127,
      "chip": "ym2612"
    },
    {
      "channel": 2,
      "note": 42,
      "start": 18.3852,
      "duration": 0.0299,
      "velocity": 112,
      "chip": "ym2612"
    },
    {
      "channel": 2,
      "note": 44,
      "start": 18.4151,
      "duration": 0.0367,
      "velocity": 112,
      "chip": "ym2612"
    },
    {
      "channel": 0,
      "note": 57,
      "start": 18.4451,
      "duration": 0.0626,
      "velocity": 102,
      "chip": "ym2612"
    },
    {
      "channel": 1,
      "note": 80,
      "start": 18.4469,
      "duration": 0.0313,
      "velocity": 127,
      "chip": "ym2612"
    },
    {
      "channel": 2,
      "note": 45,
      "start": 18.4519,
      "duration": 0.0265,
      "velocity": 112,
      "chip": "ym2612"
    },
    {
      "channel": 1,
      "note": 80,
      "start": 18.4782,
      "duration": 0.0312,
      "velocity": 127,
      "chip": "ym2612"
    },
    {
      "channel": 2,
      "note": 47,
      "start": 18.4785,
      "duration": 0.0361,
      "velocity": 112,
      "chip": "ym2612"
    },
    {
      "channel": 0,
      "note": 59,
      "start": 18.5078,
      "duration": 0.0444,
      "velocity": 102,
      "chip": "ym2612"
    },
    {
      "channel": 1,
      "note": 73,
      "start": 18.5095,
      "duration": 0.0618,
      "velocity": 127,
      "chip": "ym2612"
    },
    {
      "channel": 2,
      "note": 44,
      "start": 18.5146,
      "duration": 0.0254,
      "velocity": 112,
      "chip": "ym2612"
    },
    {
      "channel": 2,
      "note": 45,
      "start": 18.5401,
      "duration": 0.0314,
      "velocity": 112,
      "chip": "ym2612"
    },
    {
      "channel": 0,
      "note": 51,
      "start": 18.5696,
      "duration": 0.124,
      "velocity": 102,
      "chip": "ym2612"
    },
    {
      "channel": 1,
      "note": 73,
      "start": 18.5713,
      "duration": 0.0311,
      "velocity": 127,
      "chip": "ym2612"
    },
    {
      "channel": 2,
      "note": 47,
      "start": 18.5715,
      "duration": 0.0311,
      "velocity": 112,
      "chip": "ym2612"
    },
    {
      "channel": 1,
      "note": 80,
      "start": 18.6024,
      "duration": 0.0314,
      "velocity": 127,
      "chip": "ym2612"
    },
    {
      "channel": 2,
      "note": 49,
      "start": 18.6027,
      "duration": 0.0314,
      "velocity": 112,
      "chip": "ym2612"
    },
    {
      "channel": 1,
      "note": 75,
      "start": 18.6339,
      "duration": 0.0613,
      "velocity": 127,
      "chip": "ym2612"
    },
    {
      "channel": 2,
      "note": 45,
      "start": 18.6342,
      "duration": 0.0297,
      "velocity": 112,
      "chip": "ym2612"
    },
    {
      "channel": 2,
      "note": 47,
      "start": 18.6639,
      "duration": 0.0315,
      "velocity": 112,
      "chip": "ym2612"
    },
    {
      "channel": 0,
      "note": 52,
      "start": 18.6936,
      "duration": 0.1253,
      "velocity": 102,
      "chip": "ym2612"
    },
    {
      "channel": 1,
      "note": 73,
      "start": 18.6953,
      "duration": 0.0315,
      "velocity": 127,
      "chip": "ym2612"
    },
    {
      "channel": 2,
      "note": 49,
      "start": 18.7003,
      "duration": 0.0267,
      "velocity": 112,
      "chip": "ym2612"
    },
    {
      "channel": 1,
      "note": 80,
      "start": 18.7268,
      "duration": 0.0304,
      "velocity": 127,
      "chip": "ym2612"
    },
    {
      "channel": 2,
      "note": 51,
      "start": 18.7271,
      "duration": 0.0304,
      "velocity": 112,
      "chip": "ym2612"
    },
    {
      "channel": 1,
      "note": 80,
      "start": 18.7573,
      "duration": 0.0315,
      "velocity": 127,
      "chip": "ym2612"
    },
    {
      "channel": 2,
      "note": 47,
      "start": 18.7576,
      "duration": 0.0316,
      "velocity": 112,
      "chip": "ym2612"
    },
    {
      "channel": 1,
      "note": 80,
      "start": 18.7889,
      "duration": 0.0317,
      "velocity": 127,
      "chip": "ym2612"
    },
    {
      "channel": 2,
      "note": 49,
      "start": 18.7892,
      "duration": 0.0317,
      "velocity": 112,
      "chip": "ym2612"
    },
    {
      "channel": 0,
      "note": 54,
      "start": 18.8189,
      "duration": 0.0629,
      "velocity": 102,
      "chip": "ym2612"
    },
    {
      "channel": 1,
      "note": 73,
      "start": 18.8207,
      "duration": 0.0308,
      "velocity": 127,
      "chip": "ym2612"
    },
    {
      "channel": 2,
      "note": 51,
      "start": 18.8209,
      "duration": 0.0308,
      "velocity": 112,
      "chip": "ym2612"
    },
    {
      "channel": 1,
      "note": 80,
      "start": 18.8515,
      "duration": 0.032,
      "velocity": 127,
      "chip": "ym2612"
    },
    {
      "channel": 2,
      "note": 52,
      "start": 18.8518,
      "duration": 0.037,
      "velocity": 112,
      "chip": "ym2612"
    },
    {
      "channel": 0,
      "note": 57,
      "start": 18.882,
      "duration": 0.0376,
      "velocity": 102,
      "chip": "ym2612"
    },
    {
      "channel": 1,
      "note": 75,
      "start": 18.8837,
      "duration": 0.0613,
      "velocity": 127,
      "chip": "ym2612"
    },
    {
      "channel": 2,
      "note": 49,
      "start": 18.8888,
      "duration": 0.0248,
      "velocity": 112,
      "chip": "ym2612"
    },
    {
      "channel": 2,
      "note": 51,
      "start": 18.9137,
      "duration": 0.0364,
      "velocity": 112,
      "chip": "ym2612"
    },
    {
      "channel": 0,
      "note": 52,
      "start": 18.9433,
      "duration": 0.1268,
      "velocity": 102,
      "chip": "ym2612"
    },
    {
      "channel": 1,
      "note": 80,
      "start": 18.9451,
      "duration": 0.0312,
      "velocity": 127,
      "chip": "ym2612"
    },
    {
      "channel": 2,
      "note": 52,
      "start": 18.9501,
      "duration": 0.0263,
      "velocity": 112,
      "chip": "ym2612"
    },
    {
      "channel": 1,
      "note": 75,
      "start": 18.9763,
      "duration": 0.0313,
      "velocity": 127,
      "chip": "ym2612"
    },
    {
      "channel": 2,
      "note": 54,
      "start": 18.9765,
      "duration": 0.0313,
      "velocity": 112,
      "chip": "ym2612"
    },
    {
      "channel": 1,
      "note": 73,
      "start": 19.0077,
      "duration": 0.0318,
      "velocity": 127,
      "chip": "ym2612"
    },
    {
      "channel": 2,
      "note": 51,
      "start": 19.0079,
      "duration": 0.0318,
      "velocity": 112,
      "chip": "ym2612"
    },
    {
      "channel": 1,
      "note": 75,
      "start": 19.0396,
      "duration": 0.0323,
      "velocity": 127,
      "chip": "ym2612"
    },
    {
      "channel": 2,
      "note": 52,
      "start": 19.0398,
      "duration": 0.0323,
      "velocity": 112,
      "chip": "ym2612"
    },
    {
      "channel": 0,
      "note": 54,
      "start": 19.0702,
      "duration": 0.0624,
      "velocity": 102,
      "chip": "ym2612"
    },
    {
      "channel": 1,
      "note": 73,
      "start": 19.0719,
      "duration": 0.0305,
      "velocity": 127,
      "chip": "ym2612"
    },
    {
      "channel": 2,
      "note": 54,
      "start": 19.0722,
      "duration": 0.0305,
      "velocity": 112,
      "chip": "ym2612"
    },
    {
      "channel": 1,
      "note": 80,
      "start": 19.1024,
      "duration": 0.0318,
      "velocity": 127,
      "chip": "ym2612"
    },
    {
      "channel": 2,
      "note": 56,
      "start": 19.1027,
      "duration": 0.0367,
      "velocity": 112,
      "chip": "ym2612"
    },
    {
      "channel": 0,
      "note": 57,
      "start": 19.1327,
      "duration": 0.0376,
      "velocity": 102,
      "chip": "ym2612"
    },
    {
      "channel": 1,
      "note": 75,
      "start": 19.1344,
      "duration": 0.0613,
      "velocity": 127,
      "chip": "ym2612"
    },
    {
      "channel": 2,
      "note": 52,
      "start": 19.1395,
      "duration": 0.0249,
      "velocity": 112,
      "chip": "ym2612"
    },
    {
      "channel": 2,
      "note": 54,
      "start": 19.1644,
      "duration": 0.0364,
      "velocity": 112,
      "chip": "ym2612"
    },
    {
      "channel": 0,
      "note": 54,
      "start": 19.1939,
      "duration": 0.0627,
      "velocity": 102,
      "chip": "ym2612"
    },
    {
      "channel": 1,
      "note": 80,
      "start": 19.1957,
      "duration": 0.0314,
      "velocity": 127,
      "chip": "ym2612"
    },
    {
      "channel": 2,
      "note": 56,
      "start": 19.2008,
      "duration": 0.0265,
      "velocity": 112,
      "chip": "ym2612"
    },
    {
      "channel": 1,
      "note": 75,
      "start": 19.2271,
      "duration": 0.0315,
      "velocity": 127,
      "chip": "ym2612"
    },
    {
      "channel": 2,
      "note": 57,
      "start": 19.2273,
      "duration": 0.0363,
      "velocity": 112,
      "chip": "ym2612"
    },
    {
      "channel": 0,
      "note": 57,
      "start": 19.2568,
      "duration": 0.0619,
      "velocity": 102,
      "chip": "ym2612"
    },
    {
      "channel": 1,
      "note": 73,
      "start": 19.2585,
      "duration": 0.0615,
      "velocity": 127,
      "chip": "ym2612"
    },
    {
      "channel": 2,
      "note": 54,
      "start": 19.2637,
      "duration": 0.025,
      "velocity": 112,
      "chip": "ym2612"
    },
    {
      "channel": 2,
      "note": 56,
      "start": 19.2888,
      "duration": 0.0315,
      "velocity": 112,
      "chip": "ym2612"
    },
    {
      "channel": 0,
      "note": 59,
      "start": 19.3187,
      "duration": 0.0687,
      "velocity": 102,
      "chip": "ym2612"
    },
    {
      "channel": 1,
      "note": 80,
      "start": 19.3201,
      "duration": 0.0291,
      "velocity": 127,
      "chip": "ym2612"
    },
    {
      "channel": 2,
      "note": 57,
      "start": 19.3204,
      "duration": 0.0291,
      "velocity": 112,
      "chip": "ym2612"
    },
    {
      "channel": 1,
      "note": 80,
      "start": 19.3493,
      "duration": 0.0316,
      "velocity": 127,
      "chip": "ym2612"
    },
    {
      "channel": 2,
      "note": 59,
      "start": 19.3496,
      "duration": 0.0316,
      "velocity": 112,
      "chip": "ym2612"
    },
    {
      "channel": 1,
      "note": 75,
      "start": 19.381,
      "duration": 0.0615,
      "velocity": 127,
      "chip": "ym2612"
    },
    {
      "channel": 2,
      "note": 56,
      "start": 19.3813,
      "duration": 0.0303,
      "velocity": 112,
      "chip": "ym2612"
    },
    {
      "channel": 2,
      "note": 57,
      "start": 19.4117,
      "duration": 0.0359,
      "velocity": 112,
      "chip": "ym2612"
    },
    {
      "channel": 0,
      "note": 57,
      "start": 19.4408,
      "duration": 0.0628,
      "velocity": 102,
      "chip": "ym2612"
    },
    {
      "channel": 1,
      "note": 80,
      "start": 19.4425,
      "duration": 0.0314,
      "velocity": 127,
      "chip": "ym2612"
    },
    {
      "channel": 2,
      "note": 59,
      "start": 19.4477,
      "duration": 0.0265,
      "velocity": 112,
      "chip": "ym2612"
    },
    {
      "channel": 1,
      "note": 80,
      "start": 19.474,
      "duration": 0.0313,
      "velocity": 127,
      "chip": "ym2612"
    },
    {
      "channel": 2,
      "note": 61,
      "start": 19.4742,
      "duration": 0.0362,
      "velocity": 112,
      "chip": "ym2612"
    },
    {
      "channel": 0,
      "note": 59,
      "start": 19.5037,
      "duration": 0.0437,
      "velocity": 102,
      "chip": "ym2612"
    },
    {
      "channel": 1,
      "note": 73,
      "start": 19.5054,
      "duration": 0.0617,
      "velocity": 127,
      "chip": "ym2612"
    },
    {
      "channel": 2,
      "note": 57,
      "start": 19.5105,
      "duration": 0.0248,
      "velocity": 112,
      "chip": "ym2612"
    },
    {
      "channel": 2,
      "note": 59,
      "start": 19.5354,
      "duration": 0.0319,
      "velocity": 112,
      "chip": "ym2612"
    },
    {
      "channel": 0,
      "note": 51,
      "start": 19.5653,
      "duration": 0.1234,
      "velocity": 102,
      "chip": "ym2612"
    },
    {
      "channel": 1,
      "note": 73,
      "start": 19.5671,
      "duration": 0.0308,
      "velocity": 127,
      "chip": "ym2612"
    },
    {
      "channel": 2,
      "note": 61,
      "start": 19.5673,
      "duration": 0.0308,
      "velocity": 112,
      "chip": "ym2612"
    },
    {
      "channel": 1,
      "note": 80,
      "start": 19.598,
      "duration": 0.031,
      "velocity": 127,
      "chip": "ym2612"
    },
    {
      "channel": 2,
      "note": 63,
      "start": 19.5982,
      "duration": 0.031,
      "velocity": 112,
      "chip": "ym2612"
    },
    {
      "channel": 1,
      "note": 75,
      "start": 19.629,
      "duration": 0.0615,
      "velocity": 127,
      "chip": "ym2612"
    },
    {
      "channel": 2,
      "note": 59,
      "start": 19.6293,
      "duration": 0.0303,
      "velocity": 112,
      "chip": "ym2612"
    },
    {
      "channel": 2,
      "note": 61,
      "start": 19.6597,
      "duration": 0.0359,
      "velocity": 112,
      "chip": "ym2612"
    },
    {
      "channel": 0,
      "note": 52,
      "start": 19.6888,
      "duration": 0.1273,
      "velocity": 102,
      "chip": "ym2612"
    },
    {
      "channel": 1,
      "note": 73,
      "start": 19.6905,
      "duration": 0.0317,
      "velocity": 127,
      "chip": "ym2612"
    },
    {
      "channel": 2,
      "note": 63,
      "start": 19.6956,
      "duration": 0.0268,
      "velocity": 112,
      "chip": "ym2612"
    },
    {
      "channel": 1,
      "note": 80,
      "start": 19.7223,
      "duration": 0.0311,
      "velocity": 127,
      "chip": "ym2612"
    },
    {
      "channel": 2,
      "note": 64,
      "start": 19.7225,
      "duration": 0.031,
      "velocity": 112,
      "chip": "ym2612"
    },
    {
      "channel": 1,
      "note": 80,
      "start": 19.7534,
      "duration": 0.0323,
      "velocity": 127,
      "chip": "ym2612"
    },
    {
      "channel": 2,
      "note": 61,
      "start": 19.7536,
      "duration": 0.0324,
      "velocity": 112,
      "chip": "ym2612"
    },
    {
      "channel": 3,
      "note": 44,
      "start": 19.7589,
      "duration": 0.4736,
      "velocity": 112,
      "chip": "ym2612"
    },
    {
      "channel": 4,
      "note": 54,
      "start": 19.7591,
      "duration": 0.4736,
      "velocity": 112,
      "chip": "ym2612"
    },
    {
      "channel": 1,
      "note": 80,
      "start": 19.7858,
      "duration": 0.0321,
      "velocity": 127,
      "chip": "ym2612"
    },
    {
      "channel": 2,
      "note": 62,
      "start": 19.786,
      "duration": 0.0321,
      "velocity": 112,
      "chip": "ym2612"
    },
    {
      "channel": 0,
      "note": 54,
      "start": 19.8162,
      "duration": 0.0633,
      "velocity": 102,
      "chip": "ym2612"
    },
    {
      "channel": 1,
      "note": 73,
      "start": 19.8179,
      "duration": 0.0313,
      "velocity": 127,
      "chip": "ym2612"
    },
    {
      "channel": 2,
      "note": 64,
      "start": 19.8182,
      "duration": 0.0314,
      "velocity": 112,
      "chip": "ym2612"
    },
    {
      "channel": 1,
      "note": 80,
      "start": 19.8493,
      "duration": 0.0319,
      "velocity": 127,
      "chip": "ym2612"
    },
    {
      "channel": 2,
      "note": 66,
      "start": 19.8496,
      "duration": 0.0368,
      "velocity": 112,
      "chip": "ym2612"
    },
    {
      "channel": 0,
      "note": 57,
      "start": 19.8796,
      "duration": 0.0383,
      "velocity": 102,
      "chip": "ym2612"
    },
    {
      "channel": 1,
      "note": 75,
      "start": 19.8813,
      "duration": 0.0615,
      "velocity": 127,
      "chip": "ym2612"
    },
    {
      "channel": 2,
      "note": 62,
      "start": 19.8865,
      "duration": 0.0256,
      "velocity": 112,
      "chip": "ym2612"
    },
    {
      "channel": 2,
      "note": 64,
      "start": 19.9121,
      "duration": 0.0359,
      "velocity": 112,
      "chip": "ym2612"
    },
    {
      "channel": 0,
      "note": 52,
      "start": 19.9411,
      "duration": 0.1259,
      "velocity": 102,
      "chip": "ym2612"
    },
    {
      "channel": 1,
      "note": 80,
      "start": 19.9429,
      "duration": 0.0301,
      "velocity": 127,
      "chip": "ym2612"
    },
    {
      "channel": 2,
      "note": 66,
      "start": 19.948,
      "duration": 0.0253,
      "velocity": 112,
      "chip": "ym2612"
    },
    {
      "channel": 1,
      "note": 80,
      "start": 19.9731,
      "duration": 0.0313,
      "velocity": 127,
      "chip": "ym2612"
    },
    {
      "channel": 2,
      "note": 67,
      "start": 19.9734,
      "duration": 0.0313,
      "velocity": 112,
      "chip": "ym2612"
    },
    {
      "channel": 1,
      "note": 75,
      "start": 20.0044,
      "duration": 0.0317,
      "velocity": 127,
      "chip": "ym2612"
    },
    {
      "channel": 2,
      "note": 64,
      "start": 20.0047,
      "duration": 0.0317,
      "velocity": 112,
      "chip": "ym2612"
    },
    {
      "channel": 1,
      "note": 75,
      "start": 20.0362,
      "duration": 0.0326,
      "velocity": 127,
      "chip": "ym2612"
    },
    {
      "channel": 2,
      "note": 66,
      "start": 20.0365,
      "duration": 0.0326,
      "velocity": 112,
      "chip": "ym2612"
    },
    {
      "channel": 0,
      "note": 54,
      "start": 20.0671,
      "duration": 0.0636,
      "velocity": 102,
      "chip": "ym2612"
    },
    {
      "channel": 1,
      "note": 73,
      "start": 20.0689,
      "duration": 0.0315,
      "velocity": 127,
      "chip": "ym2612"
    },
    {
      "channel": 2,
      "note": 67,
      "start": 20.0691,
      "duration": 0.0315,
      "velocity": 112,
      "chip": "ym2612"
    },
    {
      "channel": 1,
      "note": 73,
      "start": 20.1004,
      "duration": 0.032,
      "velocity": 127,
      "chip": "ym2612"
    },
    {
      "channel": 2,
      "note": 69,
      "start": 20.1006,
      "duration": 0.037,
      "velocity": 112,
      "chip": "ym2612"
    },
    {
      "channel": 0,
      "note": 57,
      "start": 20.1307,
      "duration": 0.0403,
      "velocity": 102,
      "chip": "ym2612"
    },
    {
      "channel": 1,
      "note": 75,
      "start": 20.1325,
      "duration": 0.0323,
      "velocity": 127,
      "chip": "ym2612"
    },
    {
      "channel": 2,
      "note": 66,
      "start": 20.1376,
      "duration": 0.0273,
      "velocity": 112,
      "chip": "ym2612"
    },
    {
      "channel": 1,
      "note": 75,
      "start": 20.1648,
      "duration": 0.0313,
      "velocity": 127,
      "chip": "ym2612"
    },
    {
      "channel": 2,
      "note": 67,
      "start": 20.1651,
      "duration": 0.0361,
      "velocity": 112,
      "chip": "ym2612"
    },
    {
      "channel": 0,
      "note": 54,
      "start": 20.1945,
      "duration": 0.0649,
      "velocity": 102,
      "chip": "ym2612"
    },
    {
      "channel": 1,
      "note": 80,
      "start": 20.1962,
      "duration": 0.0309,
      "velocity": 127,
      "chip": "ym2612"
    },
    {
      "channel": 2,
      "note": 69,
      "start": 20.2012,
      "duration": 0.0262,
      "velocity": 112,
      "chip": "ym2612"
    },
    {
      "channel": 1,
      "note": 75,
      "start": 20.2272,
      "duration": 0.0389,
      "velocity": 127,
      "chip": "ym2612"
    },
    {
      "channel": 2,
      "note": 71,
      "start": 20.2274,
      "duration": 0.0405,
      "velocity": 94,
      "chip": "ym2612"
    },
    {
      "channel": 3,
      "note": 43,
      "start": 20.2326,
      "duration": 0.7896,
      "velocity": 105,
      "chip": "ym2612"
    },
    {
      "channel": 4,
      "note": 52,
      "start": 20.2328,
      "duration": 0.7899,
      "velocity": 105,
      "chip": "ym2612"
    },
    {
      "channel": 0,
      "note": 59,
      "start": 20.2594,
      "duration": 0.065,
      "velocity": 102,
      "chip": "ym2612"
    },
    {
      "channel": 1,
      "note": 73,
      "start": 20.2662,
      "duration": 0.0596,
      "velocity": 127,
      "chip": "ym2612"
    },
    {
      "channel": 2,
      "note": 85,
      "start": 20.268,
      "duration": 0.0258,
      "velocity": 94,
      "chip": "ym2612"
    },
    {
      "channel": 2,
      "note": 73,
      "start": 20.2939,
      "duration": 0.0373,
      "velocity": 94,
      "chip": "ym2612"
    },
    {
      "channel": 0,
      "note": 59,
      "start": 20.3244,
      "duration": 0.0692,
      "velocity": 102,
      "chip": "ym2612"
    },
    {
      "channel": 1,
      "note": 80,
      "start": 20.3258,
      "duration": 0.0299,
      "velocity": 127,
      "chip": "ym2612"
    },
    {
      "channel": 2,
      "note": 82,
      "start": 20.3312,
      "duration": 0.0251,
      "velocity": 94,
      "chip": "ym2612"
    },
    {
      "channel": 1,
      "note": 80,
      "start": 20.3557,
      "duration": 0.0312,
      "velocity": 127,
      "chip": "ym2612"
    },
    {
      "channel": 2,
      "note": 85,
      "start": 20.3563,
      "duration": 0.036,
      "velocity": 94,
      "chip": "ym2612"
    },
    {
      "channel": 1,
      "note": 75,
      "start": 20.387,
      "duration": 0.0624,
      "velocity": 127,
      "chip": "ym2612"
    },
    {
      "channel": 2,
      "note": 83,
      "start": 20.3924,
      "duration": 0.0259,
      "velocity": 94,
      "chip": "ym2612"
    },
    {
      "channel": 2,
      "note": 82,
      "start": 20.4184,
      "duration": 0.0366,
      "velocity": 94,
      "chip": "ym2612"
    },
    {
      "channel": 0,
      "note": 54,
      "start": 20.4477,
      "duration": 0.0638,
      "velocity": 102,
      "chip": "ym2612"
    },
    {
      "channel": 1,
      "note": 80,
      "start": 20.4495,
      "duration": 0.0315,
      "velocity": 127,
      "chip": "ym2612"
    },
    {
      "channel": 2,
      "note": 80,
      "start": 20.455,
      "duration": 0.0315,
      "velocity": 94,
      "chip": "ym2612"
    },
    {
      "channel": 1,
      "note": 80,
      "start": 20.481,
      "duration": 0.0321,
      "velocity": 127,
      "chip": "ym2612"
    },
    {
      "channel": 2,
      "note": 83,
      "start": 20.4865,
      "duration": 0.032,
      "velocity": 94,
      "chip": "ym2612"
    },
    {
      "channel": 0,
      "note": 59,
      "start": 20.5115,
      "duration": 0.0438,
      "velocity": 102,
      "chip": "ym2612"
    },
    {
      "channel": 1,
      "note": 73,
      "start": 20.5132,
      "duration": 0.0618,
      "velocity": 127,
      "chip": "ym2612"
    },
    {
      "channel": 2,
      "note": 82,
      "start": 20.5186,
      "duration": 0.0246,
      "velocity": 94,
      "chip": "ym2612"
    },
    {
      "channel": 2,
      "note": 80,
      "start": 20.5432,
      "duration": 0.0371,
      "velocity": 94,
      "chip": "ym2612"
    },
    {
      "channel": 0,
      "note": 51,
      "start": 20.5733,
      "duration": 0.125,
      "velocity": 102,
      "chip": "ym2612"
    },
    {
      "channel": 1,
      "note": 73,
      "start": 20.5751,
      "duration": 0.0319,
      "velocity": 127,
      "chip": "ym2612"
    },
    {
      "channel": 2,
      "note": 78,
      "start": 20.5804,
      "duration": 0.0321,
      "velocity": 94,
      "chip": "ym2612"
    },
    {
      "channel": 1,
      "note": 80,
      "start": 20.607,
      "duration": 0.0308,
      "velocity": 127,
      "chip": "ym2612"
    },
    {
      "channel": 2,
      "note": 82,
      "start": 20.6125,
      "duration": 0.0306,
      "velocity": 94,
      "chip": "ym2612"
    },
    {
      "channel": 1,
      "note": 75,
      "start": 20.6379,
      "duration": 0.0617,
      "velocity": 127,
      "chip": "ym2612"
    },
    {
      "channel": 2,
      "note": 80,
      "start": 20.6431,
      "duration": 0.0258,
      "velocity": 94,
      "chip": "ym2612"
    },
    {
      "channel": 2,
      "note": 78,
      "start": 20.669,
      "duration": 0.0361,
      "velocity": 94,
      "chip": "ym2612"
    },
    {
      "channel": 0,
      "note": 52,
      "start": 20.6984,
      "duration": 0.1267,
      "velocity": 102,
      "chip": "ym2612"
    },
    {
      "channel": 1,
      "note": 73,
      "start": 20.6997,
      "duration": 0.0315,
      "velocity": 127,
      "chip": "ym2612"
    },
    {
      "channel": 2,
      "note": 73,
      "start": 20.7052,
      "duration": 0.0313,
      "velocity": 94,
      "chip": "ym2612"
    },
    {
      "channel": 1,
      "note": 80,
      "start": 20.7312,
      "duration": 0.0316,
      "velocity": 127,
      "chip": "ym2612"
    },
    {
      "channel": 2,
      "note": 80,
      "start": 20.7366,
      "duration": 0.033,
      "velocity": 94,
      "chip": "ym2612"
    },
    {
      "channel": 1,
      "note": 80,
      "start": 20.7629,
      "duration": 0.0321,
      "velocity": 127,
      "chip": "ym2612"
    },
    {
      "channel": 2,
      "note": 85,
      "start": 20.7696,
      "duration": 0.0307,
      "velocity": 94,
      "chip": "ym2612"
    },
    {
      "channel": 1,
      "note": 80,
      "start": 20.7951,
      "duration": 0.0318,
      "velocity": 127,
      "chip": "ym2612"
    },
    {
      "channel": 2,
      "note": 73,
      "start": 20.8004,
      "duration": 0.032,
      "velocity": 94,
      "chip": "ym2612"
    },
    {
      "channel": 0,
      "note": 54,
      "start": 20.8251,
      "duration": 0.0634,
      "velocity": 102,
      "chip": "ym2612"
    },
    {
      "channel": 1,
      "note": 73,
      "start": 20.8268,
      "duration": 0.0321,
      "velocity": 127,
      "chip": "ym2612"
    },
    {
      "channel": 2,
      "note": 82,
      "start": 20.8325,
      "duration": 0.032,
      "velocity": 94,
      "chip": "ym2612"
    },
    {
      "channel": 1,
      "note": 80,
      "start": 20.859,
      "duration": 0.0312,
      "velocity": 127,
      "chip": "ym2612"
    },
    {
      "channel": 2,
      "note": 85,
      "start": 20.8645,
      "duration": 0.0311,
      "velocity": 94,
      "chip": "ym2612"
    },
    {
      "channel": 0,
      "note": 61,
      "start": 20.8886,
      "duration": 0.039,
      "velocity": 102,
      "chip": "ym2612"
    },
    {
      "channel": 1,
      "note": 75,
      "start": 20.8903,
      "duration": 0.0626,
      "velocity": 127,
      "chip": "ym2612"
    },
    {
      "channel": 2,
      "note": 83,
      "start": 20.8957,
      "duration": 0.0257,
      "velocity": 94,
      "chip": "ym2612"
    },
    {
      "channel": 2,
      "note": 82,
      "start": 20.9215,
      "duration": 0.0369,
      "velocity": 94,
      "chip": "ym2612"
    },
    {
      "channel": 0,
      "note": 54,
      "start": 20.9512,
      "duration": 0.1302,
      "velocity": 102,
      "chip": "ym2612"
    },
    {
      "channel": 1,
      "note": 80,
      "start": 20.9529,
      "duration": 0.0308,
      "velocity": 127,
      "chip": "ym2612"
    },
    {
      "channel": 2,
      "note": 80,
      "start": 20.9584,
      "duration": 0.0307,
      "velocity": 94,
      "chip": "ym2612"
    },
    {
      "channel": 1,
      "note": 75,
      "start": 20.9838,
      "duration": 0.0326,
      "velocity": 127,
      "chip": "ym2612"
    },
    {
      "channel": 2,
      "note": 83,
      "start": 20.9891,
      "duration": 0.0325,
      "velocity": 94,
      "chip": "ym2612"
    },
    {
      "channel": 1,
      "note": 73,
      "start": 21.0164,
      "duration": 0.0333,
      "velocity": 127,
      "chip": "ym2612"
    },
    {
      "channel": 2,
      "note": 82,
      "start": 21.0217,
      "duration": 0.0335,
      "velocity": 94,
      "chip": "ym2612"
    },
    {
      "channel": 3,
      "note": 42,
      "start": 21.0223,
      "duration": 0.2571,
      "velocity": 105,
      "chip": "ym2612"
    },
    {
      "channel": 4,
      "note": 51,
      "start": 21.0228,
      "duration": 0.2568,
      "velocity": 105,
      "chip": "ym2612"
    },
    {
      "channel": 1,
      "note": 75,
      "start": 21.0498,
      "duration": 0.0334,
      "velocity": 127,
      "chip": "ym2612"
    },
    {
      "channel": 2,
      "note": 80,
      "start": 21.0552,
      "duration": 0.0332,
      "velocity": 94,
      "chip": "ym2612"
    },
    {
      "channel": 0,
      "note": 56,
      "start": 21.0815,
      "duration": 0.0633,
      "velocity": 102,
      "chip": "ym2612"
    },
    {
      "channel": 1,
      "note": 73,
      "start": 21.0833,
      "duration": 0.0324,
      "velocity": 127,
      "chip": "ym2612"
    },
    {
      "channel": 2,
      "note": 78,
      "start": 21.0884,
      "duration": 0.0327,
      "velocity": 94,
      "chip": "ym2612"
    },
    {
      "channel": 1,
      "note": 80,
      "start": 21.1157,
      "duration": 0.031,
      "velocity": 127,
      "chip": "ym2612"
    },
    {
      "channel": 2,
      "note": 82,
      "start": 21.1212,
      "duration": 0.0308,
      "velocity": 94,
      "chip": "ym2612"
    },
    {
      "channel": 0,
      "note": 56,
      "start": 21.1449,
      "duration": 0.0392,
      "velocity": 102,
      "chip": "ym2612"
    },
    {
      "channel": 1,
      "note": 75,
      "start": 21.1467,
      "duration": 0.0624,
      "velocity": 127,
      "chip": "ym2612"
    },
    {
      "channel": 2,
      "note": 80,
      "start": 21.152,
      "duration": 0.0259,
      "velocity": 94,
      "chip": "ym2612"
    },
    {
      "channel": 2,
      "note": 78,
      "start": 21.1779,
      "duration": 0.0365,
      "velocity": 94,
      "chip": "ym2612"
    },
    {
      "channel": 0,
      "note": 54,
      "start": 21.2077,
      "duration": 0.0629,
      "velocity": 102,
      "chip": "ym2612"
    },
    {
      "channel": 1,
      "note": 80,
      "start": 21.2091,
      "duration": 0.0305,
      "velocity": 127,
      "chip": "ym2612"
    },
    {
      "channel": 2,
      "note": 73,
      "start": 21.2145,
      "duration": 0.0306,
      "velocity": 94,
      "chip": "ym2612"
    },
    {
      "channel": 1,
      "note": 75,
      "start": 21.2397,
      "duration": 0.0327,
      "velocity": 127,
      "chip": "ym2612"
    },
    {
      "channel": 2,
      "note": 80,
      "start": 21.2451,
      "duration": 0.034,
      "velocity": 94,
      "chip": "ym2612"
    },
    {
      "channel": 0,
      "note": 59,
      "start": 21.2707,
      "duration": 0.0661,
      "velocity": 102,
      "chip": "ym2612"
    },
    {
      "channel": 1,
      "note": 73,
      "start": 21.2725,
      "duration": 0.0657,
      "velocity": 127,
      "chip": "ym2612"
    },
    {
      "channel": 2,
      "note": 85,
      "start": 21.2792,
      "duration": 0.0268,
      "velocity": 94,
      "chip": "ym2612"
    },
    {
      "channel": 3,
      "note": 43,
      "start": 21.2795,
      "duration": 0.9845,
      "velocity": 105,
      "chip": "ym2612"
    },
    {
      "channel": 4,
      "note": 52,
      "start": 21.2797,
      "duration": 0.9843,
      "velocity": 105,
      "chip": "ym2612"
    },
    {
      "channel": 2,
      "note": 73,
      "start": 21.3061,
      "duration": 0.0374,
      "velocity": 94,
      "chip": "ym2612"
    },
    {
      "channel": 0,
      "note": 59,
      "start": 21.3369,
      "duration": 0.0694,
      "velocity": 102,
      "chip": "ym2612"
    },
    {
      "channel": 1,
      "note": 80,
      "start": 21.3382,
      "duration": 0.0307,
      "velocity": 127,
      "chip": "ym2612"
    },
    {
      "channel": 2,
      "note": 82,
      "start": 21.3436,
      "duration": 0.0259,
      "velocity": 94,
      "chip": "ym2612"
    },
    {
      "channel": 1,
      "note": 80,
      "start": 21.369,
      "duration": 0.0308,
      "velocity": 127,
      "chip": "ym2612"
    },
    {
      "channel": 2,
      "note": 85,
      "start": 21.3696,
      "duration": 0.0357,
      "velocity": 94,
      "chip": "ym2612"
    },
    {
      "channel": 1,
      "note": 75,
      "start": 21.3999,
      "duration": 0.0629,
      "velocity": 127,
      "chip": "ym2612"
    },
    {
      "channel": 2,
      "note": 83,
      "start": 21.4053,
      "duration": 0.0257,
      "velocity": 94,
      "chip": "ym2612"
    },
    {
      "channel": 2,
      "note": 82,
      "start": 21.4311,
      "duration": 0.0371,
      "velocity": 94,
      "chip": "ym2612"
    },
    {
      "channel": 0,
      "note": 54,
      "start": 21.4611,
      "duration": 0.0632,
      "velocity": 102,
      "chip": "ym2612"
    },
    {
      "channel": 1,
      "note": 80,
      "start": 21.4629,
      "duration": 0.0307,
      "velocity": 127,
      "chip": "ym2612"
    },
    {
      "channel": 2,
      "note": 80,
      "start": 21.4682,
      "duration": 0.0308,
      "velocity": 94,
      "chip": "ym2612"
    },
    {
      "channel": 1,
      "note": 80,
      "start": 21.4937,
      "duration": 0.0319,
      "velocity": 127,
      "chip": "ym2612"
    },
    {
      "channel": 2,
      "note": 83,
      "start": 21.4991,
      "duration": 0.0319,
      "velocity": 94,
      "chip": "ym2612"
    },
    {
      "channel": 0,
      "note": 59,
      "start": 21.5244,
      "duration": 0.0437,
      "velocity": 102,
      "chip": "ym2612"
    },
    {
      "channel": 1,
      "note": 73,
      "start": 21.5256,
      "duration": 0.0619,
      "velocity": 127,
      "chip": "ym2612"
    },
    {
      "channel": 2,
      "note": 82,
      "start": 21.531,
      "duration": 0.0253,
      "velocity": 94,
      "chip": "ym2612"
    },
    {
      "channel": 2,
      "note": 80,
      "start": 21.5564,
      "duration": 0.0365,
      "velocity": 94,
      "chip": "ym2612"
    },
    {
      "channel": 0,
      "note": 51,
      "start": 21.5858,
      "duration": 0.1257,
      "velocity": 102,
      "chip": "ym2612"
    },
    {
      "channel": 1,
      "note": 73,
      "start": 21.5876,
      "duration": 0.0321,
      "velocity": 127,
      "chip": "ym2612"
    },
    {
      "channel": 2,
      "note": 78,
      "start": 21.593,
      "duration": 0.0322,
      "velocity": 94,
      "chip": "ym2612"
    },
    {
      "channel": 1,
      "note": 80,
      "start": 21.6197,
      "duration": 0.0305,
      "velocity": 127,
      "chip": "ym2612"
    },
    {
      "channel": 2,
      "note": 82,
      "start": 21.6252,
      "duration": 0.0305,
      "velocity": 94,
      "chip": "ym2612"
    },
    {
      "channel": 1,
      "note": 75,
      "start": 21.6503,
      "duration": 0.0625,
      "velocity": 127,
      "chip": "ym2612"
    },
    {
      "channel": 2,
      "note": 80,
      "start": 21.6557,
      "duration": 0.0255,
      "velocity": 94,
      "chip": "ym2612"
    },
    {
      "channel": 2,
      "note": 78,
      "start": 21.6813,
      "duration": 0.037,
      "velocity": 94,
      "chip": "ym2612"
    },
    {
      "channel": 0,
      "note": 52,
      "start": 21.7115,
      "duration": 0.1262,
      "velocity": 102,
      "chip": "ym2612"
    },
    {
      "channel": 1,
      "note": 73,
      "start": 21.7128,
      "duration": 0.0313,
      "velocity": 127,
      "chip": "ym2612"
    },
    {
      "channel": 2,
      "note": 73,
      "start": 21.7183,
      "duration": 0.0311,
      "velocity": 94,
      "chip": "ym2612"
    },
    {
      "channel": 1,
      "note": 80,
      "start": 21.7442,
      "duration": 0.0316,
      "velocity": 127,
      "chip": "ym2612"
    },
    {
      "channel": 2,
      "note": 80,
      "start": 21.7495,
      "duration": 0.033,
      "velocity": 94,
      "chip": "ym2612"
    },
    {
      "channel": 1,
      "note": 80,
      "start": 21.7759,
      "duration": 0.0325,
      "velocity": 127,
      "chip": "ym2612"
    },
    {
      "channel": 2,
      "note": 85,
      "start": 21.7826,
      "duration": 0.0312,
      "velocity": 94,
      "chip": "ym2612"
    },
    {
      "channel": 1,
      "note": 80,
      "start": 21.8084,
      "duration": 0.031,
      "velocity": 127,
      "chip": "ym2612"
    },
    {
      "channel": 2,
      "note": 73,
      "start": 21.8138,
      "duration": 0.031,
      "velocity": 94,
      "chip": "ym2612"
    },
    {
      "channel": 0,
      "note": 54,
      "start": 21.8378,
      "duration": 0.0639,
      "velocity": 102,
      "chip": "ym2612"
    },
    {
      "channel": 1,
      "note": 73,
      "start": 21.8395,
      "duration": 0.032,
      "velocity": 127,
      "chip": "ym2612"
    },
    {
      "channel": 2,
      "note": 82,
      "start": 21.8449,
      "duration": 0.0321,
      "velocity": 94,
      "chip": "ym2612"
    },
    {
      "channel": 1,
      "note": 80,
      "start": 21.8715,
      "duration": 0.0318,
      "velocity": 127,
      "chip": "ym2612"
    },
    {
      "channel": 2,
      "note": 85,
      "start": 21.877,
      "duration": 0.0318,
      "velocity": 94,
      "chip": "ym2612"
    },
    {
      "channel": 0,
      "note": 61,
      "start": 21.9017,
      "duration": 0.0387,
      "velocity": 102,
      "chip": "ym2612"
    },
    {
      "channel": 1,
      "note": 75,
      "start": 21.9034,
      "duration": 0.0628,
      "velocity": 127,
      "chip": "ym2612"
    },
    {
      "channel": 2,
      "note": 83,
      "start": 21.9088,
      "duration": 0.0253,
      "velocity": 94,
      "chip": "ym2612"
    },
    {
      "channel": 2,
      "note": 82,
      "start": 21.9342,
      "duration": 0.0375,
      "velocity": 94,
      "chip": "ym2612"
    },
    {
      "channel": 0,
      "note": 54,
      "start": 21.9646,
      "duration": 0.1251,
      "velocity": 102,
      "chip": "ym2612"
    },
    {
      "channel": 1,
      "note": 80,
      "start": 21.9663,
      "duration": 0.0292,
      "velocity": 127,
      "chip": "ym2612"
    },
    {
      "channel": 2,
      "note": 80,
      "start": 21.9718,
      "duration": 0.0243,
      "velocity": 94,
      "chip": "ym2612"
    },
    {
      "channel": 1,
      "note": 80,
      "start": 21.9955,
      "duration": 0.0318,
      "velocity": 127,
      "chip": "ym2612"
    },
    {
      "channel": 2,
      "note": 83,
      "start": 21.9961,
      "duration": 0.0367,
      "velocity": 94,
      "chip": "ym2612"
    },
    {
      "channel": 1,
      "note": 75,
      "start": 22.0274,
      "duration": 0.0322,
      "velocity": 127,
      "chip": "ym2612"
    },
    {
      "channel": 2,
      "note": 82,
      "start": 22.0328,
      "duration": 0.0321,
      "velocity": 94,
      "chip": "ym2612"
    },
    {
      "channel": 1,
      "note": 75,
      "start": 22.0597,
      "duration": 0.0319,
      "velocity": 127,
      "chip": "ym2612"
    },
    {
      "channel": 2,
      "note": 80,
      "start": 22.0649,
      "duration": 0.032,
      "velocity": 94,
      "chip": "ym2612"
    },
    {
      "channel": 0,
      "note": 56,
      "start": 22.0898,
      "duration": 0.0645,
      "velocity": 102,
      "chip": "ym2612"
    },
    {
      "channel": 1,
      "note": 73,
      "start": 22.0915,
      "duration": 0.0325,
      "velocity": 127,
      "chip": "ym2612"
    },
    {
      "channel": 2,
      "note": 78,
      "start": 22.097,
      "duration": 0.0323,
      "velocity": 94,
      "chip": "ym2612"
    },
    {
      "channel": 1,
      "note": 73,
      "start": 22.124,
      "duration": 0.032,
      "velocity": 127,
      "chip": "ym2612"
    },
    {
      "channel": 2,
      "note": 82,
      "start": 22.1294,
      "duration": 0.032,
      "velocity": 94,
      "chip": "ym2612"
    },
    {
      "channel": 0,
      "note": 56,
      "start": 22.1543,
      "duration": 0.0405,
      "velocity": 102,
      "chip": "ym2612"
    },
    {
      "channel": 1,
      "note": 75,
      "start": 22.1561,
      "duration": 0.0319,
      "velocity": 127,
      "chip": "ym2612"
    },
    {
      "channel": 2,
      "note": 80,
      "start": 22.1615,
      "duration": 0.032,
      "velocity": 94,
      "chip": "ym2612"
    },
    {
      "channel": 1,
      "note": 75,
      "start": 22.188,
      "duration": 0.033,
      "velocity": 127,
      "chip": "ym2612"
    },
    {
      "channel": 2,
      "note": 78,
      "start": 22.1936,
      "duration": 0.0329,
      "velocity": 94,
      "chip": "ym2612"
    },
    {
      "channel": 0,
      "note": 54,
      "start": 22.2193,
      "duration": 0.0628,
      "velocity": 102,
      "chip": "ym2612"
    },
    {
      "channel": 1,
      "note": 80,
      "start": 22.2211,
      "duration": 0.0305,
      "velocity": 127,
      "chip": "ym2612"
    },
    {
      "channel": 2,
      "note": 73,
      "start": 22.2266,
      "duration": 0.0304,
      "velocity": 94,
      "chip": "ym2612"
    },
    {
      "channel": 1,
      "note": 75,
      "start": 22.2517,
      "duration": 0.0371,
      "velocity": 127,
      "chip": "ym2612"
    },
    {
      "channel": 2,
      "note": 80,
      "start": 22.257,
      "duration": 0.0341,
      "velocity": 82,
      "chip": "ym2612"
    },
    {
      "channel": 0,
      "note": 56,
      "start": 22.2822,
      "duration": 0.0728,
      "velocity": 102,
      "chip": "ym2612"
    },
    {
      "channel": 1,
      "note": 73,
      "start": 22.2889,
      "duration": 0.0676,
      "velocity": 127,
      "chip": "ym2612"
    },
    {
      "channel": 2,
      "note": 63,
      "start": 22.2912,
      "duration": 1.9624,
      "velocity": 108,
      "chip": "ym2612"
    },
    {
      "channel": 3,
      "note": 51,
      "start": 22.294,
      "duration": 2.0056,
      "velocity": 112,
      "chip": "ym2612"
    },
    {
      "channel": 4,
      "note": 48,
      "start": 22.2959,
      "duration": 2.0041,
      "velocity": 112,
      "chip": "ym2612"
    },
    {
      "channel": 0,
      "note": 56,
      "start": 22.3551,
      "duration": 0.0682,
      "velocity": 102,
      "chip": "ym2612"
    },
    {
      "channel": 1,
      "note": 80,
      "start": 22.3565,
      "duration": 0.0299,
      "velocity": 127,
      "chip": "ym2612"
    },
    {
      "channel": 1,
      "note": 80,
      "start": 22.3865,
      "duration": 0.0309,
      "velocity": 127,
      "chip": "ym2612"
    },
    {
      "channel": 1,
      "note": 75,
      "start": 22.4174,
      "duration": 0.0617,
      "velocity": 127,
      "chip": "ym2612"
    },
    {
      "channel": 0,
      "note": 51,
      "start": 22.4775,
      "duration": 0.0622,
      "velocity": 102,
      "chip": "ym2612"
    },
    {
      "channel": 1,
      "note": 80,
      "start": 22.4792,
      "duration": 0.0306,
      "velocity": 127,
      "chip": "ym2612"
    },
    {
      "channel": 1,
      "note": 80,
      "start": 22.5099,
      "duration": 0.0315,
      "velocity": 127,
      "chip": "ym2612"
    },
    {
      "channel": 0,
      "note": 56,
      "start": 22.5398,
      "duration": 0.0435,
      "velocity": 102,
      "chip": "ym2612"
    },
    {
      "channel": 1,
      "note": 73,
      "start": 22.5414,
      "duration": 0.0607,
      "velocity": 127,
      "chip": "ym2612"
    },
    {
      "channel": 0,
      "note": 48,
      "start": 22.6004,
      "duration": 0.1248,
      "velocity": 102,
      "chip": "ym2612"
    },
    {
      "channel": 1,
      "note": 73,
      "start": 22.6021,
      "duration": 0.0322,
      "velocity": 127,
      "chip": "ym2612"
    },
    {
      "channel": 1,
      "note": 80,
      "start": 22.6344,
      "duration": 0.031,
      "velocity": 127,
      "chip": "ym2612"
    },
    {
      "channel": 1,
      "note": 75,
      "start": 22.6655,
      "duration": 0.061,
      "velocity": 127,
      "chip": "ym2612"
    },
    {
      "channel": 0,
      "note": 49,
      "start": 22.7252,
      "duration": 0.1235,
      "velocity": 102,
      "chip": "ym2612"
    },
    {
      "channel": 1,
      "note": 73,
      "start": 22.7265,
      "duration": 0.0309,
      "velocity": 127,
      "chip": "ym2612"
    },
    {
      "channel": 1,
      "note": 80,
      "start": 22.7574,
      "duration": 0.0309,
      "velocity": 127,
      "chip": "ym2612"
    },
    {
      "channel": 1,
      "note": 80,
      "start": 22.7884,
      "duration": 0.0315,
      "velocity": 127,
      "chip": "ym2612"
    },
    {
      "channel": 1,
      "note": 80,
      "start": 22.82,
      "duration": 0.0305,
      "velocity": 127,
      "chip": "ym2612"
    },
    {
      "channel": 0,
      "note": 51,
      "start": 22.8488,
      "duration": 0.0633,
      "velocity": 102,
      "chip": "ym2612"
    },
    {
      "channel": 1,
      "note": 73,
      "start": 22.8505,
      "duration": 0.0317,
      "velocity": 127,
      "chip": "ym2612"
    },
    {
      "channel": 1,
      "note": 80,
      "start": 22.8823,
      "duration": 0.0316,
      "velocity": 127,
      "chip": "ym2612"
    },
    {
      "channel": 0,
      "note": 58,
      "start": 22.9122,
      "duration": 0.0373,
      "velocity": 102,
      "chip": "ym2612"
    },
    {
      "channel": 1,
      "note": 75,
      "start": 22.9139,
      "duration": 0.0615,
      "velocity": 127,
      "chip": "ym2612"
    },
    {
      "channel": 0,
      "note": 51,
      "start": 22.9737,
      "duration": 0.1256,
      "velocity": 102,
      "chip": "ym2612"
    },
    {
      "channel": 1,
      "note": 80,
      "start": 22.9754,
      "duration": 0.0304,
      "velocity": 127,
      "chip": "ym2612"
    },
    {
      "channel": 1,
      "note": 75,
      "start": 23.0059,
      "duration": 0.0318,
      "velocity": 127,
      "chip": "ym2612"
    },
    {
      "channel": 1,
      "note": 73,
      "start": 23.0377,
      "duration": 0.0322,
      "velocity": 127,
      "chip": "ym2612"
    },
    {
      "channel": 1,
      "note": 75,
      "start": 23.0699,
      "duration": 0.0312,
      "velocity": 127,
      "chip": "ym2612"
    },
    {
      "channel": 0,
      "note": 53,
      "start": 23.0994,
      "duration": 0.0629,
      "velocity": 102,
      "chip": "ym2612"
    },
    {
      "channel": 1,
      "note": 73,
      "start": 23.1011,
      "duration": 0.0313,
      "velocity": 127,
      "chip": "ym2612"
    },
    {
      "channel": 1,
      "note": 80,
      "start": 23.1324,
      "duration": 0.0317,
      "velocity": 127,
      "chip": "ym2612"
    },
    {
      "channel": 0,
      "note": 53,
      "start": 23.1624,
      "duration": 0.0368,
      "velocity": 102,
      "chip": "ym2612"
    },
    {
      "channel": 1,
      "note": 75,
      "start": 23.1642,
      "duration": 0.0606,
      "velocity": 127,
      "chip": "ym2612"
    },
    {
      "channel": 0,
      "note": 51,
      "start": 23.2234,
      "duration": 0.0625,
      "velocity": 102,
      "chip": "ym2612"
    },
    {
      "channel": 1,
      "note": 80,
      "start": 23.2248,
      "duration": 0.0309,
      "velocity": 127,
      "chip": "ym2612"
    },
    {
      "channel": 1,
      "note": 75,
      "start": 23.2558,
      "duration": 0.032,
      "velocity": 127,
      "chip": "ym2612"
    },
    {
      "channel": 0,
      "note": 56,
      "start": 23.286,
      "duration": 0.0619,
      "velocity": 102,
      "chip": "ym2612"
    },
    {
      "channel": 1,
      "note": 73,
      "start": 23.2878,
      "duration": 0.0615,
      "velocity": 127,
      "chip": "ym2612"
    },
    {
      "channel": 0,
      "note": 56,
      "start": 23.348,
      "duration": 0.0684,
      "velocity": 102,
      "chip": "ym2612"
    },
    {
      "channel": 1,
      "note": 80,
      "start": 23.3493,
      "duration": 0.0293,
      "velocity": 127,
      "chip": "ym2612"
    },
    {
      "channel": 1,
      "note": 80,
      "start": 23.3787,
      "duration": 0.0315,
      "velocity": 127,
      "chip": "ym2612"
    },
    {
      "channel": 1,
      "note": 75,
      "start": 23.4102,
      "duration": 0.0615,
      "velocity": 127,
      "chip": "ym2612"
    },
    {
      "channel": 0,
      "note": 51,
      "start": 23.47,
      "duration": 0.0623,
      "velocity": 102,
      "chip": "ym2612"
    },
    {
      "channel": 1,
      "note": 80,
      "start": 23.4718,
      "duration": 0.0313,
      "velocity": 127,
      "chip": "ym2612"
    },
    {
      "channel": 1,
      "note": 80,
      "start": 23.5031,
      "duration": 0.0309,
      "velocity": 127,
      "chip": "ym2612"
    },
    {
      "channel": 0,
      "note": 56,
      "start": 23.5323,
      "duration": 0.0444,
      "velocity": 102,
      "chip": "ym2612"
    },
    {
      "channel": 1,
      "note": 73,
      "start": 23.534,
      "duration": 0.062,
      "velocity": 127,
      "chip": "ym2612"
    },
    {
      "channel": 0,
      "note": 48,
      "start": 23.5943,
      "duration": 0.1232,
      "velocity": 102,
      "chip": "ym2612"
    },
    {
      "channel": 1,
      "note": 73,
      "start": 23.596,
      "duration": 0.0307,
      "velocity": 127,
      "chip": "ym2612"
    },
    {
      "channel": 1,
      "note": 80,
      "start": 23.6268,
      "duration": 0.0315,
      "velocity": 127,
      "chip": "ym2612"
    },
    {
      "channel": 1,
      "note": 75,
      "start": 23.6583,
      "duration": 0.0604,
      "velocity": 127,
      "chip": "ym2612"
    },
    {
      "channel": 0,
      "note": 49,
      "start": 23.7175,
      "duration": 0.1248,
      "velocity": 102,
      "chip": "ym2612"
    },
    {
      "channel": 1,
      "note": 73,
      "start": 23.7188,
      "duration": 0.0316,
      "velocity": 127,
      "chip": "ym2612"
    },
    {
      "channel": 1,
      "note": 80,
      "start": 23.7505,
      "duration": 0.0307,
      "velocity": 127,
      "chip": "ym2612"
    },
    {
      "channel": 1,
      "note": 80,
      "start": 23.7812,
      "duration": 0.0316,
      "velocity": 127,
      "chip": "ym2612"
    },
    {
      "channel": 1,
      "note": 80,
      "start": 23.8129,
      "duration": 0.0311,
      "velocity": 127,
      "chip": "ym2612"
    },
    {
      "channel": 0,
      "note": 51,
      "start": 23.8424,
      "duration": 0.0635,
      "velocity": 102,
      "chip": "ym2612"
    },
    {
      "channel": 1,
      "note": 73,
      "start": 23.8441,
      "duration": 0.0313,
      "velocity": 127,
      "chip": "ym2612"
    },
    {
      "channel": 1,
      "note": 80,
      "start": 23.8755,
      "duration": 0.0317,
      "velocity": 127,
      "chip": "ym2612"
    },
    {
      "channel": 0,
      "note": 58,
      "start": 23.9059,
      "duration": 0.0366,
      "velocity": 102,
      "chip": "ym2612"
    },
    {
      "channel": 1,
      "note": 75,
      "start": 23.9073,
      "duration": 0.0611,
      "velocity": 127,
      "chip": "ym2612"
    },
    {
      "channel": 0,
      "note": 51,
      "start": 23.9666,
      "duration": 0.1288,
      "velocity": 102,
      "chip": "ym2612"
    },
    {
      "channel": 1,
      "note": 80,
      "start": 23.9684,
      "duration": 0.0312,
      "velocity": 127,
      "chip": "ym2612"
    },
    {
      "channel": 1,
      "note": 80,
      "start": 23.9997,
      "duration": 0.0309,
      "velocity": 127,
      "chip": "ym2612"
    },
    {
      "channel": 1,
      "note": 75,
      "start": 24.0307,
      "duration": 0.0333,
      "velocity": 127,
      "chip": "ym2612"
    },
    {
      "channel": 1,
      "note": 75,
      "start": 24.064,
      "duration": 0.0332,
      "velocity": 127,
      "chip": "ym2612"
    },
    {
      "channel": 0,
      "note": 53,
      "start": 24.0955,
      "duration": 0.0658,
      "velocity": 102,
      "chip": "ym2612"
    },
    {
      "channel": 1,
      "note": 73,
      "start": 24.0973,
      "duration": 0.0322,
      "velocity": 127,
      "chip": "ym2612"
    },
    {
      "channel": 1,
      "note": 73,
      "start": 24.1296,
      "duration": 0.0335,
      "velocity": 127,
      "chip": "ym2612"
    },
    {
      "channel": 0,
      "note": 53,
      "start": 24.1613,
      "duration": 0.0405,
      "velocity": 102,
      "chip": "ym2612"
    },
    {
      "channel": 1,
      "note": 75,
      "start": 24.1631,
      "duration": 0.0322,
      "velocity": 127,
      "chip": "ym2612"
    },
    {
      "channel": 1,
      "note": 75,
      "start": 24.1954,
      "duration": 0.0332,
      "velocity": 127,
      "chip": "ym2612"
    },
    {
      "channel": 0,
      "note": 51,
      "start": 24.2269,
      "duration": 0.065,
      "velocity": 102,
      "chip": "ym2612"
    },
    {
      "channel": 1,
      "note": 80,
      "start": 24.2287,
      "duration": 0.0327,
      "velocity": 127,
      "chip": "ym2612"
    },
    {
      "channel": 1,
      "note": 75,
      "start": 24.2615,
      "duration": 0.0372,
      "velocity": 127,
      "chip": "ym2612"
    },
    {
      "channel": 0,
      "note": 58,
      "start": 24.292,
      "duration": 0.0627,
      "velocity": 102,
      "chip": "ym2612"
    },
    {
      "channel": 1,
      "note": 73,
      "start": 24.2987,
      "duration": 0.0573,
      "velocity": 127,
      "chip": "ym2612"
    },
    {
      "channel": 2,
      "note": 65,
      "start": 24.2995,
      "duration": 1.9932,
      "velocity": 108,
      "chip": "ym2612"
    },
    {
      "channel": 3,
      "note": 53,
      "start": 24.2997,
      "duration": 2.0412,
      "velocity": 112,
      "chip": "ym2612"
    },
    {
      "channel": 4,
      "note": 50,
      "start": 24.3,
      "duration": 2.0411,
      "velocity": 112,
      "chip": "ym2612"
    },
    {
      "channel": 0,
      "note": 58,
      "start": 24.3547,
      "duration": 0.068,
      "velocity": 102,
      "chip": "ym2612"
    },
    {
      "channel": 1,
      "note": 80,
      "start": 24.3561,
      "duration": 0.0288,
      "velocity": 127,
      "chip": "ym2612"
    },
    {
      "channel": 1,
      "note": 80,
      "start": 24.3849,
      "duration": 0.0315,
      "velocity": 127,
      "chip": "ym2612"
    },
    {
      "channel": 1,
      "note": 75,
      "start": 24.4165,
      "duration": 0.061,
      "velocity": 127,
      "chip": "ym2612"
    },
    {
      "channel": 0,
      "note": 53,
      "start": 24.4758,
      "duration": 0.0649,
      "velocity": 102,
      "chip": "ym2612"
    },
    {
      "channel": 1,
      "note": 80,
      "start": 24.4776,
      "duration": 0.0327,
      "velocity": 127,
      "chip": "ym2612"
    },
    {
      "channel": 1,
      "note": 80,
      "start": 24.5104,
      "duration": 0.0319,
      "velocity": 127,
      "chip": "ym2612"
    },
    {
      "channel": 0,
      "note": 58,
      "start": 24.5407,
      "duration": 0.0453,
      "velocity": 102,
      "chip": "ym2612"
    },
    {
      "channel": 1,
      "note": 73,
      "start": 24.5424,
      "duration": 0.0641,
      "velocity": 127,
      "chip": "ym2612"
    },
    {
      "channel": 0,
      "note": 50,
      "start": 24.6048,
      "duration": 0.1283,
      "velocity": 102,
      "chip": "ym2612"
    },
    {
      "channel": 1,
      "note": 73,
      "start": 24.6066,
      "duration": 0.0323,
      "velocity": 127,
      "chip": "ym2612"
    },
    {
      "channel": 1,
      "note": 80,
      "start": 24.6389,
      "duration": 0.0327,
      "velocity": 127,
      "chip": "ym2612"
    },
    {
      "channel": 1,
      "note": 75,
      "start": 24.6717,
      "duration": 0.0632,
      "velocity": 127,
      "chip": "ym2612"
    },
    {
      "channel": 0,
      "note": 51,
      "start": 24.7332,
      "duration": 0.1301,
      "velocity": 102,
      "chip": "ym2612"
    },
    {
      "channel": 1,
      "note": 73,
      "start": 24.7349,
      "duration": 0.033,
      "velocity": 127,
      "chip": "ym2612"
    },
    {
      "channel": 1,
      "note": 80,
      "start": 24.768,
      "duration": 0.0318,
      "velocity": 127,
      "chip": "ym2612"
    },
    {
      "channel": 1,
      "note": 80,
      "start": 24.7999,
      "duration": 0.0322,
      "velocity": 127,
      "chip": "ym2612"
    },
    {
      "channel": 1,
      "note": 80,
      "start": 24.8321,
      "duration": 0.0328,
      "velocity": 127,
      "chip": "ym2612"
    },
    {
      "channel": 0,
      "note": 53,
      "start": 24.8633,
      "duration": 0.0651,
      "velocity": 102,
      "chip": "ym2612"
    },
    {
      "channel": 1,
      "note": 73,
      "start": 24.865,
      "duration": 0.0321,
      "velocity": 127,
      "chip": "ym2612"
    },
    {
      "channel": 1,
      "note": 80,
      "start": 24.8972,
      "duration": 0.0329,
      "velocity": 127,
      "chip": "ym2612"
    },
    {
      "channel": 0,
      "note": 60,
      "start": 24.9283,
      "duration": 0.0396,
      "velocity": 102,
      "chip": "ym2612"
    },
    {
      "channel": 1,
      "note": 75,
      "start": 24.9302,
      "duration": 0.0636,
      "velocity": 127,
      "chip": "ym2612"
    },
    {
      "channel": 0,
      "note": 53,
      "start": 24.9921,
      "duration": 0.1313,
      "velocity": 102,
      "chip": "ym2612"
    },
    {
      "channel": 1,
      "note": 80,
      "start": 24.9938,
      "duration": 0.0323,
      "velocity": 127,
      "chip": "ym2612"
    },
    {
      "channel": 1,
      "note": 75,
      "start": 25.0262,
      "duration": 0.033,
      "velocity": 127,
      "chip": "ym2612"
    },
    {
      "channel": 1,
      "note": 73,
      "start": 25.0592,
      "duration": 0.0324,
      "velocity": 127,
      "chip": "ym2612"
    },
    {
      "channel": 1,
      "note": 75,
      "start": 25.0917,
      "duration": 0.0334,
      "velocity": 127,
      "chip": "ym2612"
    },
    {
      "channel": 0,
      "note": 55,
      "start": 25.1234,
      "duration": 0.0648,
      "velocity": 102,
      "chip": "ym2612"
    },
    {
      "channel": 1,
      "note": 73,
      "start": 25.1251,
      "duration": 0.0323,
      "velocity": 127,
      "chip": "ym2612"
    },
    {
      "channel": 1,
      "note": 80,
      "start": 25.1576,
      "duration": 0.0325,
      "velocity": 127,
      "chip": "ym2612"
    },
    {
      "channel": 0,
      "note": 55,
      "start": 25.1883,
      "duration": 0.0397,
      "velocity": 102,
      "chip": "ym2612"
    },
    {
      "channel": 1,
      "note": 75,
      "start": 25.1901,
      "duration": 0.0634,
      "velocity": 127,
      "chip": "ym2612"
    },
    {
      "channel": 0,
      "note": 53,
      "start": 25.2522,
      "duration": 0.0631,
      "velocity": 102,
      "chip": "ym2612"
    },
    {
      "channel": 1,
      "note": 80,
      "start": 25.2536,
      "duration": 0.0316,
      "velocity": 127,
      "chip": "ym2612"
    },
    {
      "channel": 1,
      "note": 75,
      "start": 25.2852,
      "duration": 0.0319,
      "velocity": 127,
      "chip": "ym2612"
    },
    {
      "channel": 0,
      "note": 58,
      "start": 25.3154,
      "duration": 0.0622,
      "velocity": 102,
      "chip": "ym2612"
    },
    {
      "channel": 1,
      "note": 73,
      "start": 25.3171,
      "duration": 0.0617,
      "velocity": 127,
      "chip": "ym2612"
    },
    {
      "channel": 0,
      "note": 58,
      "start": 25.3776,
      "duration": 0.0681,
      "velocity": 102,
      "chip": "ym2612"
    },
    {
      "channel": 1,
      "note": 80,
      "start": 25.379,
      "duration": 0.0294,
      "velocity": 127,
      "chip": "ym2612"
    },
    {
      "channel": 1,
      "note": 80,
      "start": 25.4084,
      "duration": 0.0311,
      "velocity": 127,
      "chip": "ym2612"
    },
    {
      "channel": 1,
      "note": 75,
      "start": 25.4396,
      "duration": 0.0613,
      "velocity": 127,
      "chip": "ym2612"
    },
    {
      "channel": 0,
      "note": 53,
      "start": 25.4991,
      "duration": 0.065,
      "velocity": 102,
      "chip": "ym2612"
    },
    {
      "channel": 1,
      "note": 80,
      "start": 25.5009,
      "duration": 0.0322,
      "velocity": 127,
      "chip": "ym2612"
    },
    {
      "channel": 1,
      "note": 80,
      "start": 25.5331,
      "duration": 0.0327,
      "velocity": 127,
      "chip": "ym2612"
    },
    {
      "channel": 0,
      "note": 58,
      "start": 25.5641,
      "duration": 0.0451,
      "velocity": 102,
      "chip": "ym2612"
    },
    {
      "channel": 1,
      "note": 73,
      "start": 25.5659,
      "duration": 0.0639,
      "velocity": 127,
      "chip": "ym2612"
    },
    {
      "channel": 0,
      "note": 50,
      "start": 25.628,
      "duration": 0.1276,
      "velocity": 102,
      "chip": "ym2612"
    },
    {
      "channel": 1,
      "note": 73,
      "start": 25.6297,
      "duration": 0.0321,
      "velocity": 127,
      "chip": "ym2612"
    },
    {
      "channel": 1,
      "note": 80,
      "start": 25.6619,
      "duration": 0.0317,
      "velocity": 127,
      "chip": "ym2612"
    },
    {
      "channel": 1,
      "note": 75,
      "start": 25.6936,
      "duration": 0.0638,
      "velocity": 127,
      "chip": "ym2612"
    },
    {
      "channel": 0,
      "note": 51,
      "start": 25.7557,
      "duration": 0.1266,
      "velocity": 102,
      "chip": "ym2612"
    },
    {
      "channel": 1,
      "note": 73,
      "start": 25.7573,
      "duration": 0.0326,
      "velocity": 127,
      "chip": "ym2612"
    },
    {
      "channel": 1,
      "note": 80,
      "start": 25.79,
      "duration": 0.0316,
      "velocity": 127,
      "chip": "ym2612"
    },
    {
      "channel": 1,
      "note": 80,
      "start": 25.8216,
      "duration": 0.0304,
      "velocity": 127,
      "chip": "ym2612"
    },
    {
      "channel": 1,
      "note": 80,
      "start": 25.8521,
      "duration": 0.0319,
      "velocity": 127,
      "chip": "ym2612"
    },
    {
      "channel": 0,
      "note": 53,
      "start": 25.8823,
      "duration": 0.0621,
      "velocity": 102,
      "chip": "ym2612"
    },
    {
      "channel": 1,
      "note": 73,
      "start": 25.884,
      "duration": 0.0311,
      "velocity": 127,
      "chip": "ym2612"
    },
    {
      "channel": 1,
      "note": 80,
      "start": 25.9152,
      "duration": 0.0306,
      "velocity": 127,
      "chip": "ym2612"
    },
    {
      "channel": 0,
      "note": 60,
      "start": 25.9445,
      "duration": 0.0377,
      "velocity": 102,
      "chip": "ym2612"
    },
    {
      "channel": 1,
      "note": 75,
      "start": 25.9459,
      "duration": 0.0618,
      "velocity": 127,
      "chip": "ym2612"
    },
    {
      "channel": 0,
      "note": 53,
      "start": 26.006,
      "duration": 0.1288,
      "velocity": 102,
      "chip": "ym2612"
    },
    {
      "channel": 1,
      "note": 80,
      "start": 26.0077,
      "duration": 0.0305,
      "velocity": 127,
      "chip": "ym2612"
    },
    {
      "channel": 1,
      "note": 80,
      "start": 26.0383,
      "duration": 0.0326,
      "velocity": 127,
      "chip": "ym2612"
    },
    {
      "channel": 1,
      "note": 75,
      "start": 26.071,
      "duration": 0.0319,
      "velocity": 127,
      "chip": "ym2612"
    },
    {
      "channel": 1,
      "note": 75,
      "start": 26.1029,
      "duration": 0.0336,
      "velocity": 127,
      "chip": "ym2612"
    },
    {
      "channel": 0,
      "note": 55,
      "start": 26.1348,
      "duration": 0.0656,
      "velocity": 102,
      "chip": "ym2612"
    },
    {
      "channel": 1,
      "note": 73,
      "start": 26.1366,
      "duration": 0.0329,
      "velocity": 127,
      "chip": "ym2612"
    },
    {
      "channel": 1,
      "note": 73,
      "start": 26.1695,
      "duration": 0.0327,
      "velocity": 127,
      "chip": "ym2612"
    },
    {
      "channel": 0,
      "note": 55,
      "start": 26.2005,
      "duration": 0.0415,
      "velocity": 102,
      "chip": "ym2612"
    },
    {
      "channel": 1,
      "note": 75,
      "start": 26.2022,
      "duration": 0.0331,
      "velocity": 127,
      "chip": "ym2612"
    },
    {
      "channel": 1,
      "note": 75,
      "start": 26.2354,
      "duration": 0.0333,
      "velocity": 127,
      "chip": "ym2612"
    },
    {
      "channel": 0,
      "note": 53,
      "start": 26.267,
      "duration": 0.0652,
      "velocity": 102,
      "chip": "ym2612"
    },
    {
      "channel": 1,
      "note": 80,
      "start": 26.2688,
      "duration": 0.0315,
      "velocity": 127,
      "chip": "ym2612"
    },
    {
      "channel": 1,
      "note": 75,
      "start": 26.3003,
      "duration": 0.0386,
      "velocity": 127,
      "chip": "ym2612"
    },
    {
      "channel": 0,
      "note": 60,
      "start": 26.3323,
      "duration": 0.0626,
      "velocity": 102,
      "chip": "ym2612"
    },
    {
      "channel": 1,
      "note": 73,
      "start": 26.339,
      "duration": 0.0573,
      "velocity": 127,
      "chip": "ym2612"
    },
    {
      "channel": 2,
      "note": 52,
      "start": 26.3407,
      "duration": 0.6501,
      "velocity": 103,
      "chip": "ym2612"
    },
    {
      "channel": 3,
      "note": 55,
      "start": 26.341,
      "duration": 2.0041,
      "velocity": 112,
      "chip": "ym2612"
    },
    {
      "channel": 4,
      "note": 52,
      "start": 26.3412,
      "duration": 2.0041,
      "velocity": 112,
      "chip": "ym2612"
    },
    {
      "channel": 0,
      "note": 60,
      "start": 26.3949,
      "duration": 0.0672,
      "velocity": 102,
      "chip": "ym2612"
    },
    {
      "channel": 1,
      "note": 80,
      "start": 26.3963,
      "duration": 0.0299,
      "velocity": 127,
      "chip": "ym2612"
    },
    {
      "channel": 1,
      "note": 80,
      "start": 26.4263,
      "duration": 0.0298,
      "velocity": 127,
      "chip": "ym2612"
    },
    {
      "channel": 1,
      "note": 75,
      "start": 26.4561,
      "duration": 0.0616,
      "velocity": 127,
      "chip": "ym2612"
    },
    {
      "channel": 0,
      "note": 55,
      "start": 26.5161,
      "duration": 0.0634,
      "velocity": 102,
      "chip": "ym2612"
    },
    {
      "channel": 1,
      "note": 80,
      "start": 26.5178,
      "duration": 0.0306,
      "velocity": 127,
      "chip": "ym2612"
    },
    {
      "channel": 1,
      "note": 80,
      "start": 26.5485,
      "duration": 0.0322,
      "velocity": 127,
      "chip": "ym2612"
    },
    {
      "channel": 0,
      "note": 60,
      "start": 26.5795,
      "duration": 0.0433,
      "velocity": 102,
      "chip": "ym2612"
    },
    {
      "channel": 1,
      "note": 73,
      "start": 26.5808,
      "duration": 0.0622,
      "velocity": 127,
      "chip": "ym2612"
    },
    {
      "channel": 0,
      "note": 52,
      "start": 26.6413,
      "duration": 0.1268,
      "velocity": 102,
      "chip": "ym2612"
    },
    {
      "channel": 1,
      "note": 73,
      "start": 26.643,
      "duration": 0.0327,
      "velocity": 127,
      "chip": "ym2612"
    },
    {
      "channel": 1,
      "note": 80,
      "start": 26.6758,
      "duration": 0.031,
      "velocity": 127,
      "chip": "ym2612"
    },
    {
      "channel": 1,
      "note": 75,
      "start": 26.7068,
      "duration": 0.063,
      "velocity": 127,
      "chip": "ym2612"
    },
    {
      "channel": 0,
      "note": 53,
      "start": 26.7681,
      "duration": 0.1264,
      "velocity": 102,
      "chip": "ym2612"
    },
    {
      "channel": 1,
      "note": 73,
      "start": 26.7698,
      "duration": 0.0315,
      "velocity": 127,
      "chip": "ym2612"
    },
    {
      "channel": 1,
      "note": 80,
      "start": 26.8013,
      "duration": 0.0318,
      "velocity": 127,
      "chip": "ym2612"
    },
    {
      "channel": 1,
      "note": 80,
      "start": 26.8332,
      "duration": 0.0315,
      "velocity": 127,
      "chip": "ym2612"
    },
    {
      "channel": 1,
      "note": 80,
      "start": 26.8647,
      "duration": 0.0315,
      "velocity": 127,
      "chip": "ym2612"
    },
    {
      "channel": 0,
      "note": 55,
      "start": 26.8946,
      "duration": 0.0635,
      "velocity": 102,
      "chip": "ym2612"
    },
    {
      "channel": 1,
      "note": 73,
      "start": 26.8963,
      "duration": 0.0321,
      "velocity": 127,
      "chip": "ym2612"
    },
    {
      "channel": 1,
      "note": 80,
      "start": 26.9285,
      "duration": 0.0313,
      "velocity": 127,
      "chip": "ym2612"
    },
    {
      "channel": 0,
      "note": 62,
      "start": 26.9582,
      "duration": 0.0387,
      "velocity": 102,
      "chip": "ym2612"
    },
    {
      "channel": 1,
      "note": 75,
      "start": 26.9599,
      "duration": 0.0629,
      "velocity": 127,
      "chip": "ym2612"
    },
    {
      "channel": 2,
      "note": 50,
      "start": 26.9909,
      "duration": 0.0061,
      "velocity": 103,
      "chip": "ym2612"
    },
    {
      "channel": 0,
      "note": 55,
      "start": 27.0211,
      "duration": 0.1252,
      "velocity": 102,
      "chip": "ym2612"
    },
    {
      "channel": 1,
      "note": 80,
      "start": 27.0229,
      "duration": 0.0301,
      "velocity": 127,
      "chip": "ym2612"
    },
    {
      "channel": 2,
      "note": 59,
      "start": 27.0281,
      "duration": 0.062,
      "velocity": 103,
      "chip": "ym2612"
    },
    {
      "channel": 1,
      "note": 75,
      "start": 27.053,
      "duration": 0.0321,
      "velocity": 127,
      "chip": "ym2612"
    },
    {
      "channel": 1,
      "note": 73,
      "start": 27.0851,
      "duration": 0.0318,
      "velocity": 127,
      "chip": "ym2612"
    },
    {
      "channel": 2,
      "note": 62,
      "start": 27.0902,
      "duration": 0.2518,
      "velocity": 103,
      "chip": "ym2612"
    },
    {
      "channel": 1,
      "note": 75,
      "start": 27.1169,
      "duration": 0.0312,
      "velocity": 127,
      "chip": "ym2612"
    },
    {
      "channel": 0,
      "note": 57,
      "start": 27.1463,
      "duration": 0.0627,
      "velocity": 102,
      "chip": "ym2612"
    },
    {
      "channel": 1,
      "note": 73,
      "start": 27.1481,
      "duration": 0.0317,
      "velocity": 127,
      "chip": "ym2612"
    },
    {
      "channel": 1,
      "note": 80,
      "start": 27.1798,
      "duration": 0.0311,
      "velocity": 127,
      "chip": "ym2612"
    },
    {
      "channel": 0,
      "note": 57,
      "start": 27.2091,
      "duration": 0.0385,
      "velocity": 102,
      "chip": "ym2612"
    },
    {
      "channel": 1,
      "note": 75,
      "start": 27.211,
      "duration": 0.0625,
      "velocity": 127,
      "chip": "ym2612"
    },
    {
      "channel": 0,
      "note": 55,
      "start": 27.2721,
      "duration": 0.0629,
      "velocity": 102,
      "chip": "ym2612"
    },
    {
      "channel": 1,
      "note": 80,
      "start": 27.2736,
      "duration": 0.0306,
      "velocity": 127,
      "chip": "ym2612"
    },
    {
      "channel": 1,
      "note": 75,
      "start": 27.3042,
      "duration": 0.0326,
      "velocity": 127,
      "chip": "ym2612"
    },
    {
      "channel": 0,
      "note": 60,
      "start": 27.3351,
      "duration": 0.0613,
      "velocity": 102,
      "chip": "ym2612"
    },
    {
      "channel": 1,
      "note": 73,
      "start": 27.3368,
      "duration": 0.0609,
      "velocity": 127,
      "chip": "ym2612"
    },
    {
      "channel": 2,
      "note": 67,
      "start": 27.3421,
      "duration": 0.1171,
      "velocity": 103,
      "chip": "ym2612"
    },
    {
      "channel": 0,
      "note": 60,
      "start": 27.3964,
      "duration": 0.0686,
      "velocity": 102,
      "chip": "ym2612"
    },
    {
      "channel": 1,
      "note": 80,
      "start": 27.3978,
      "duration": 0.0302,
      "velocity": 127,
      "chip": "ym2612"
    },
    {
      "channel": 1,
      "note": 80,
      "start": 27.4281,
      "duration": 0.0307,
      "velocity": 127,
      "chip": "ym2612"
    },
    {
      "channel": 1,
      "note": 75,
      "start": 27.4589,
      "duration": 0.0617,
      "velocity": 127,
      "chip": "ym2612"
    },
    {
      "channel": 2,
      "note": 68,
      "start": 27.4592,
      "duration": 0.4709,
      "velocity": 103,
      "chip": "ym2612"
    },
    {
      "channel": 0,
      "note": 55,
      "start": 27.519,
      "duration": 0.0626,
      "velocity": 102,
      "chip": "ym2612"
    },
    {
      "channel": 1,
      "note": 80,
      "start": 27.5207,
      "duration": 0.0304,
      "velocity": 127,
      "chip": "ym2612"
    },
    {
      "channel": 1,
      "note": 80,
      "start": 27.5512,
      "duration": 0.032,
      "velocity": 127,
      "chip": "ym2612"
    },
    {
      "channel": 0,
      "note": 60,
      "start": 27.5816,
      "duration": 0.0445,
      "velocity": 102,
      "chip": "ym2612"
    },
    {
      "channel": 1,
      "note": 73,
      "start": 27.5833,
      "duration": 0.0623,
      "velocity": 127,
      "chip": "ym2612"
    },
    {
      "channel": 0,
      "note": 52,
      "start": 27.6438,
      "duration": 0.1263,
      "velocity": 102,
      "chip": "ym2612"
    },
    {
      "channel": 1,
      "note": 73,
      "start": 27.6455,
      "duration": 0.0321,
      "velocity": 127,
      "chip": "ym2612"
    },
    {
      "channel": 1,
      "note": 80,
      "start": 27.6777,
      "duration": 0.0315,
      "velocity": 127,
      "chip": "ym2612"
    },
    {
      "channel": 1,
      "note": 75,
      "start": 27.7093,
      "duration": 0.0622,
      "velocity": 127,
      "chip": "ym2612"
    },
    {
      "channel": 0,
      "note": 53,
      "start": 27.7702,
      "duration": 0.1256,
      "velocity": 102,
      "chip": "ym2612"
    },
    {
      "channel": 1,
      "note": 73,
      "start": 27.7715,
      "duration": 0.0315,
      "velocity": 127,
      "chip": "ym2612"
    },
    {
      "channel": 1,
      "note": 80,
      "start": 27.8031,
      "duration": 0.0314,
      "velocity": 127,
      "chip": "ym2612"
    },
    {
      "channel": 1,
      "note": 80,
      "start": 27.8345,
      "duration": 0.0321,
      "velocity": 127,
      "chip": "ym2612"
    },
    {
      "channel": 1,
      "note": 80,
      "start": 27.8666,
      "duration": 0.031,
      "velocity": 127,
      "chip": "ym2612"
    },
    {
      "channel": 0,
      "note": 55,
      "start": 27.8959,
      "duration": 0.0639,
      "velocity": 102,
      "chip": "ym2612"
    },
    {
      "channel": 1,
      "note": 73,
      "start": 27.8976,
      "duration": 0.0322,
      "velocity": 127,
      "chip": "ym2612"
    },
    {
      "channel": 1,
      "note": 80,
      "start": 27.9299,
      "duration": 0.0317,
      "velocity": 127,
      "chip": "ym2612"
    },
    {
      "channel": 2,
      "note": 50,
      "start": 27.9301,
      "duration": 0.006,
      "velocity": 103,
      "chip": "ym2612"
    },
    {
      "channel": 0,
      "note": 62,
      "start": 27.9599,
      "duration": 0.0373,
      "velocity": 102,
      "chip": "ym2612"
    },
    {
      "channel": 1,
      "note": 75,
      "start": 27.9617,
      "duration": 0.0616,
      "velocity": 127,
      "chip": "ym2612"
    },
    {
      "channel": 2,
      "note": 58,
      "start": 27.9667,
      "duration": 0.0616,
      "velocity": 103,
      "chip": "ym2612"
    },
    {
      "channel": 0,
      "note": 55,
      "start": 28.0216,
      "duration": 0.1239,
      "velocity": 102,
      "chip": "ym2612"
    },
    {
      "channel": 1,
      "note": 80,
      "start": 28.0233,
      "duration": 0.0297,
      "velocity": 127,
      "chip": "ym2612"
    },
    {
      "channel": 2,
      "note": 55,
      "start": 28.0284,
      "duration": 0.2798,
      "velocity": 103,
      "chip": "ym2612"
    },
    {
      "channel": 1,
      "note": 80,
      "start": 28.0531,
      "duration": 0.0307,
      "velocity": 127,
      "chip": "ym2612"
    },
    {
      "channel": 1,
      "note": 75,
      "start": 28.0838,
      "duration": 0.032,
      "velocity": 127,
      "chip": "ym2612"
    },
    {
      "channel": 1,
      "note": 75,
      "start": 28.1159,
      "duration": 0.0315,
      "velocity": 127,
      "chip": "ym2612"
    },
    {
      "channel": 0,
      "note": 57,
      "start": 28.1456,
      "duration": 0.0652,
      "velocity": 102,
      "chip": "ym2612"
    },
    {
      "channel": 1,
      "note": 73,
      "start": 28.1474,
      "duration": 0.0325,
      "velocity": 127,
      "chip": "ym2612"
    },
    {
      "channel": 1,
      "note": 73,
      "start": 28.1799,
      "duration": 0.0327,
      "velocity": 127,
      "chip": "ym2612"
    },
    {
      "channel": 0,
      "note": 57,
      "start": 28.2109,
      "duration": 0.0392,
      "velocity": 102,
      "chip": "ym2612"
    },
    {
      "channel": 1,
      "note": 75,
      "start": 28.2127,
      "duration": 0.0311,
      "velocity": 127,
      "chip": "ym2612"
    },
    {
      "channel": 1,
      "note": 75,
      "start": 28.2438,
      "duration": 0.0328,
      "velocity": 127,
      "chip": "ym2612"
    },
    {
      "channel": 0,
      "note": 55,
      "start": 28.2749,
      "duration": 0.063,
      "velocity": 102,
      "chip": "ym2612"
    },
    {
      "channel": 1,
      "note": 80,
      "start": 28.2767,
      "duration": 0.0314,
      "velocity": 127,
      "chip": "ym2612"
    },
    {
      "channel": 1,
      "note": 75,
      "start": 28.3081,
      "duration": 0.0315,
      "velocity": 127,
      "chip": "ym2612"
    },
    {
      "channel": 2,
      "note": 50,
      "start": 28.3083,
      "duration": 0.0061,
      "velocity": 103,
      "chip": "ym2612"
    },
    {
      "channel": 0,
      "note": 60,
      "start": 28.3379,
      "duration": 0.0624,
      "velocity": 102,
      "chip": "ym2612"
    },
    {
      "channel": 1,
      "note": 73,
      "start": 28.3397,
      "duration": 0.062,
      "velocity": 127,
      "chip": "ym2612"
    },
    {
      "channel": 2,
      "note": 55,
      "start": 28.3449,
      "duration": 0.1174,
      "velocity": 103,
      "chip": "ym2612"
    },
    {
      "channel": 3,
      "note": 53,
      "start": 28.3451,
      "duration": 1.9905,
      "velocity": 112,
      "chip": "ym2612"
    },
    {
      "channel": 4,
      "note": 50,
      "start": 28.3454,
      "duration": 1.9905,
      "velocity": 112,
      "chip": "ym2612"
    },
    {
      "channel": 0,
      "note": 60,
      "start": 28.4004,
      "duration": 0.0678,
      "velocity": 102,
      "chip": "ym2612"
    },
    {
      "channel": 1,
      "note": 80,
      "start": 28.4018,
      "duration": 0.0292,
      "velocity": 127,
      "chip": "ym2612"
    },
    {
      "channel": 1,
      "note": 80,
      "start": 28.431,
      "duration": 0.031,
      "velocity": 127,
      "chip": "ym2612"
    },
    {
      "channel": 1,
      "note": 75,
      "start": 28.4621,
      "duration": 0.0612,
      "velocity": 127,
      "chip": "ym2612"
    },
    {
      "channel": 2,
      "note": 59,
      "start": 28.4623,
      "duration": 0.0292,
      "velocity": 103,
      "chip": "ym2612"
    },
    {
      "channel": 2,
      "note": 59,
      "start": 28.4916,
      "duration": 0.006,
      "velocity": 103,
      "chip": "ym2612"
    },
    {
      "channel": 0,
      "note": 55,
      "start": 28.5215,
      "duration": 0.0628,
      "velocity": 102,
      "chip": "ym2612"
    },
    {
      "channel": 1,
      "note": 80,
      "start": 28.5233,
      "duration": 0.0311,
      "velocity": 127,
      "chip": "ym2612"
    },
    {
      "channel": 2,
      "note": 60,
      "start": 28.5284,
      "duration": 0.1837,
      "velocity": 103,
      "chip": "ym2612"
    },
    {
      "channel": 1,
      "note": 80,
      "start": 28.5545,
      "duration": 0.0312,
      "velocity": 127,
      "chip": "ym2612"
    },
    {
      "channel": 0,
      "note": 60,
      "start": 28.5844,
      "duration": 0.0445,
      "velocity": 102,
      "chip": "ym2612"
    },
    {
      "channel": 1,
      "note": 73,
      "start": 28.5857,
      "duration": 0.0623,
      "velocity": 127,
      "chip": "ym2612"
    },
    {
      "channel": 0,
      "note": 52,
      "start": 28.6463,
      "duration": 0.1249,
      "velocity": 102,
      "chip": "ym2612"
    },
    {
      "channel": 1,
      "note": 73,
      "start": 28.6481,
      "duration": 0.0316,
      "velocity": 127,
      "chip": "ym2612"
    },
    {
      "channel": 1,
      "note": 80,
      "start": 28.6798,
      "duration": 0.0322,
      "velocity": 127,
      "chip": "ym2612"
    },
    {
      "channel": 1,
      "note": 75,
      "start": 28.7119,
      "duration": 0.0611,
      "velocity": 127,
      "chip": "ym2612"
    },
    {
      "channel": 2,
      "note": 62,
      "start": 28.7122,
      "duration": 0.0408,
      "velocity": 103,
      "chip": "ym2612"
    },
    {
      "channel": 2,
      "note": 62,
      "start": 28.7531,
      "duration": 0.0061,
      "velocity": 103,
      "chip": "ym2612"
    },
    {
      "channel": 0,
      "note": 53,
      "start": 28.7713,
      "duration": 0.1246,
      "velocity": 102,
      "chip": "ym2612"
    },
    {
      "channel": 1,
      "note": 73,
      "start": 28.773,
      "duration": 0.0315,
      "velocity": 127,
      "chip": "ym2612"
    },
    {
      "channel": 2,
      "note": 62,
      "start": 28.778,
      "duration": 0.5612,
      "velocity": 103,
      "chip": "ym2612"
    },
    {
      "channel": 1,
      "note": 80,
      "start": 28.8045,
      "duration": 0.0304,
      "velocity": 127,
      "chip": "ym2612"
    },
    {
      "channel": 1,
      "note": 80,
      "start": 28.8349,
      "duration": 0.0314,
      "velocity": 127,
      "chip": "ym2612"
    },
    {
      "channel": 1,
      "note": 80,
      "start": 28.8664,
      "duration": 0.0313,
      "velocity": 127,
      "chip": "ym2612"
    },
    {
      "channel": 0,
      "note": 55,
      "start": 28.896,
      "duration": 0.0634,
      "velocity": 102,
      "chip": "ym2612"
    },
    {
      "channel": 1,
      "note": 73,
      "start": 28.8978,
      "duration": 0.0314,
      "velocity": 127,
      "chip": "ym2612"
    },
    {
      "channel": 1,
      "note": 80,
      "start": 28.9292,
      "duration": 0.0315,
      "velocity": 127,
      "chip": "ym2612"
    },
    {
      "channel": 0,
      "note": 62,
      "start": 28.9595,
      "duration": 0.0369,
      "velocity": 102,
      "chip": "ym2612"
    },
    {
      "channel": 1,
      "note": 75,
      "start": 28.9608,
      "duration": 0.0613,
      "velocity": 127,
      "chip": "ym2612"
    },
    {
      "channel": 0,
      "note": 55,
      "start": 29.0204,
      "duration": 0.1262,
      "velocity": 102,
      "chip": "ym2612"
    },
    {
      "channel": 1,
      "note": 80,
      "start": 29.0222,
      "duration": 0.0313,
      "velocity": 127,
      "chip": "ym2612"
    },
    {
      "channel": 1,
      "note": 75,
      "start": 29.0535,
      "duration": 0.0309,
      "velocity": 127,
      "chip": "ym2612"
    },
    {
      "channel": 1,
      "note": 73,
      "start": 29.0844,
      "duration": 0.0318,
      "velocity": 127,
      "chip": "ym2612"
    },
    {
      "channel": 1,
      "note": 75,
      "start": 29.1163,
      "duration": 0.0321,
      "velocity": 127,
      "chip": "ym2612"
    },
    {
      "channel": 0,
      "note": 57,
      "start": 29.1466,
      "duration": 0.0625,
      "velocity": 102,
      "chip": "ym2612"
    },
    {
      "channel": 1,
      "note": 73,
      "start": 29.1484,
      "duration": 0.0306,
      "velocity": 127,
      "chip": "ym2612"
    },
    {
      "channel": 1,
      "note": 80,
      "start": 29.1791,
      "duration": 0.0318,
      "velocity": 127,
      "chip": "ym2612"
    },
    {
      "channel": 0,
      "note": 57,
      "start": 29.2092,
      "duration": 0.0371,
      "velocity": 102,
      "chip": "ym2612"
    },
    {
      "channel": 1,
      "note": 75,
      "start": 29.211,
      "duration": 0.0602,
      "velocity": 127,
      "chip": "ym2612"
    },
    {
      "channel": 0,
      "note": 55,
      "start": 29.2699,
      "duration": 0.0623,
      "velocity": 102,
      "chip": "ym2612"
    },
    {
      "channel": 1,
      "note": 80,
      "start": 29.2713,
      "duration": 0.0312,
      "velocity": 127,
      "chip": "ym2612"
    },
    {
      "channel": 1,
      "note": 75,
      "start": 29.3025,
      "duration": 0.0314,
      "velocity": 127,
      "chip": "ym2612"
    },
    {
      "channel": 0,
      "note": 60,
      "start": 29.3322,
      "duration": 0.062,
      "velocity": 102,
      "chip": "ym2612"
    },
    {
      "channel": 1,
      "note": 73,
      "start": 29.334,
      "duration": 0.0616,
      "velocity": 127,
      "chip": "ym2612"
    },
    {
      "channel": 2,
      "note": 60,
      "start": 29.3393,
      "duration": 0.4881,
      "velocity": 103,
      "chip": "ym2612"
    },
    {
      "channel": 0,
      "note": 60,
      "start": 29.3943,
      "duration": 0.0678,
      "velocity": 102,
      "chip": "ym2612"
    },
    {
      "channel": 1,
      "note": 80,
      "start": 29.3957,
      "duration": 0.0287,
      "velocity": 127,
      "chip": "ym2612"
    },
    {
      "channel": 1,
      "note": 80,
      "start": 29.4244,
      "duration": 0.0315,
      "velocity": 127,
      "chip": "ym2612"
    },
    {
      "channel": 1,
      "note": 75,
      "start": 29.456,
      "duration": 0.0609,
      "velocity": 127,
      "chip": "ym2612"
    },
    {
      "channel": 0,
      "note": 55,
      "start": 29.5152,
      "duration": 0.0628,
      "velocity": 102,
      "chip": "ym2612"
    },
    {
      "channel": 1,
      "note": 80,
      "start": 29.517,
      "duration": 0.0316,
      "velocity": 127,
      "chip": "ym2612"
    },
    {
      "channel": 1,
      "note": 80,
      "start": 29.5486,
      "duration": 0.0311,
      "velocity": 127,
      "chip": "ym2612"
    },
    {
      "channel": 0,
      "note": 60,
      "start": 29.578,
      "duration": 0.0438,
      "velocity": 102,
      "chip": "ym2612"
    },
    {
      "channel": 1,
      "note": 73,
      "start": 29.5797,
      "duration": 0.062,
      "velocity": 127,
      "chip": "ym2612"
    },
    {
      "channel": 0,
      "note": 52,
      "start": 29.6399,
      "duration": 0.1229,
      "velocity": 102,
      "chip": "ym2612"
    },
    {
      "channel": 1,
      "note": 73,
      "start": 29.6416,
      "duration": 0.0305,
      "velocity": 127,
      "chip": "ym2612"
    },
    {
      "channel": 1,
      "note": 80,
      "start": 29.6722,
      "duration": 0.0311,
      "velocity": 127,
      "chip": "ym2612"
    },
    {
      "channel": 1,
      "note": 75,
      "start": 29.7033,
      "duration": 0.0612,
      "velocity": 127,
      "chip": "ym2612"
    },
    {
      "channel": 0,
      "note": 53,
      "start": 29.7628,
      "duration": 0.1257,
      "velocity": 102,
      "chip": "ym2612"
    },
    {
      "channel": 1,
      "note": 73,
      "start": 29.7645,
      "duration": 0.0319,
      "velocity": 127,
      "chip": "ym2612"
    },
    {
      "channel": 1,
      "note": 80,
      "start": 29.7964,
      "duration": 0.0307,
      "velocity": 127,
      "chip": "ym2612"
    },
    {
      "channel": 1,
      "note": 80,
      "start": 29.8272,
      "duration": 0.0309,
      "velocity": 127,
      "chip": "ym2612"
    },
    {
      "channel": 2,
      "note": 55,
      "start": 29.8275,
      "duration": 0.1309,
      "velocity": 103,
      "chip": "ym2612"
    },
    {
      "channel": 1,
      "note": 80,
      "start": 29.8582,
      "duration": 0.032,
      "velocity": 127,
      "chip": "ym2612"
    },
    {
      "channel": 0,
      "note": 55,
      "start": 29.8885,
      "duration": 0.0629,
      "velocity": 102,
      "chip": "ym2612"
    },
    {
      "channel": 1,
      "note": 73,
      "start": 29.8902,
      "duration": 0.0313,
      "velocity": 127,
      "chip": "ym2612"
    },
    {
      "channel": 1,
      "note": 80,
      "start": 29.9216,
      "duration": 0.0316,
      "velocity": 127,
      "chip": "ym2612"
    },
    {
      "channel": 0,
      "note": 62,
      "start": 29.9515,
      "duration": 0.038,
      "velocity": 102,
      "chip": "ym2612"
    },
    {
      "channel": 1,
      "note": 75,
      "start": 29.9533,
      "duration": 0.0611,
      "velocity": 127,
      "chip": "ym2612"
    },
    {
      "channel": 2,
      "note": 60,
      "start": 29.9584,
      "duration": 0.0252,
      "velocity": 103,
      "chip": "ym2612"
    },
    {
      "channel": 2,
      "note": 60,
      "start": 29.9837,
      "duration": 0.006,
      "velocity": 103,
      "chip": "ym2612"
    },
    {
      "channel": 0,
      "note": 55,
      "start": 30.0127,
      "duration": 0.1251,
      "velocity": 102,
      "chip": "ym2612"
    },
    {
      "channel": 1,
      "note": 80,
      "start": 30.0144,
      "duration": 0.03,
      "velocity": 127,
      "chip": "ym2612"
    },
    {
      "channel": 2,
      "note": 55,
      "start": 30.0195,
      "duration": 0.1251,
      "velocity": 103,
      "chip": "ym2612"
    },
    {
      "channel": 1,
      "note": 80,
      "start": 30.0445,
      "duration": 0.0311,
      "velocity": 127,
      "chip": "ym2612"
    },
    {
      "channel": 1,
      "note": 75,
      "start": 30.0757,
      "duration": 0.0317,
      "velocity": 127,
      "chip": "ym2612"
    },
    {
      "channel": 1,
      "note": 75,
      "start": 30.1075,
      "duration": 0.0321,
      "velocity": 127,
      "chip": "ym2612"
    },
    {
      "channel": 0,
      "note": 57,
      "start": 30.1378,
      "duration": 0.0629,
      "velocity": 102,
      "chip": "ym2612"
    },
    {
      "channel": 1,
      "note": 73,
      "start": 30.1396,
      "duration": 0.031,
      "velocity": 127,
      "chip": "ym2612"
    },
    {
      "channel": 2,
      "note": 60,
      "start": 30.1448,
      "duration": 0.0261,
      "velocity": 103,
      "chip": "ym2612"
    },
    {
      "channel": 1,
      "note": 73,
      "start": 30.1707,
      "duration": 0.0318,
      "velocity": 127,
      "chip": "ym2612"
    },
    {
      "channel": 2,
      "note": 60,
      "start": 30.1757,
      "duration": 0.001,
      "velocity": 103,
      "chip": "ym2612"
    },
    {
      "channel": 0,
      "note": 57,
      "start": 30.2009,
      "duration": 0.0406,
      "velocity": 102,
      "chip": "ym2612"
    },
    {
      "channel": 1,
      "note": 75,
      "start": 30.2027,
      "duration": 0.0327,
      "velocity": 127,
      "chip": "ym2612"
    },
    {
      "channel": 2,
      "note": 55,
      "start": 30.2078,
      "duration": 0.1275,
      "velocity": 103,
      "chip": "ym2612"
    },
    {
      "channel": 1,
      "note": 75,
      "start": 30.2355,
      "duration": 0.0311,
      "velocity": 127,
      "chip": "ym2612"
    },
    {
      "channel": 0,
      "note": 55,
      "start": 30.2648,
      "duration": 0.0637,
      "velocity": 102,
      "chip": "ym2612"
    },
    {
      "channel": 1,
      "note": 80,
      "start": 30.2666,
      "duration": 0.0316,
      "velocity": 127,
      "chip": "ym2612"
    },
    {
      "channel": 1,
      "note": 75,
      "start": 30.2982,
      "duration": 0.037,
      "velocity": 127,
      "chip": "ym2612"
    },
    {
      "channel": 0,
      "note": 58,
      "start": 30.3285,
      "duration": 0.0617,
      "velocity": 102,
      "chip": "ym2612"
    },
    {
      "channel": 1,
      "note": 73,
      "start": 30.3353,
      "duration": 0.0564,
      "velocity": 127,
      "chip": "ym2612"
    },
    {
      "channel": 2,
      "note": 53,
      "start": 30.3354,
      "duration": 0.1173,
      "velocity": 103,
      "chip": "ym2612"
    },
    {
      "channel": 3,
      "note": 55,
      "start": 30.3357,
      "duration": 1.9961,
      "velocity": 112,
      "chip": "ym2612"
    },
    {
      "channel": 4,
      "note": 51,
      "start": 30.336,
      "duration": 1.9961,
      "velocity": 112,
      "chip": "ym2612"
    },
    {
      "channel": 0,
      "note": 60,
      "start": 30.3903,
      "duration": 0.0685,
      "velocity": 102,
      "chip": "ym2612"
    },
    {
      "channel": 1,
      "note": 80,
      "start": 30.3917,
      "duration": 0.0297,
      "velocity": 127,
      "chip": "ym2612"
    },
    {
      "channel": 1,
      "note": 80,
      "start": 30.4214,
      "duration": 0.0311,
      "velocity": 127,
      "chip": "ym2612"
    },
    {
      "channel": 1,
      "note": 75,
      "start": 30.4526,
      "duration": 0.0617,
      "velocity": 127,
      "chip": "ym2612"
    },
    {
      "channel": 2,
      "note": 55,
      "start": 30.4529,
      "duration": 0.0666,
      "velocity": 103,
      "chip": "ym2612"
    },
    {
      "channel": 0,
      "note": 58,
      "start": 30.5126,
      "duration": 0.0629,
      "velocity": 102,
      "chip": "ym2612"
    },
    {
      "channel": 1,
      "note": 80,
      "start": 30.5143,
      "duration": 0.0314,
      "velocity": 127,
      "chip": "ym2612"
    },
    {
      "channel": 2,
      "note": 55,
      "start": 30.5195,
      "duration": 0.001,
      "velocity": 103,
      "chip": "ym2612"
    },
    {
      "channel": 1,
      "note": 80,
      "start": 30.5458,
      "duration": 0.0313,
      "velocity": 127,
      "chip": "ym2612"
    },
    {
      "channel": 0,
      "note": 60,
      "start": 30.5756,
      "duration": 0.043,
      "velocity": 102,
      "chip": "ym2612"
    },
    {
      "channel": 1,
      "note": 73,
      "start": 30.5772,
      "duration": 0.0613,
      "velocity": 127,
      "chip": "ym2612"
    },
    {
      "channel": 2,
      "note": 55,
      "start": 30.5823,
      "duration": 0.1193,
      "velocity": 103,
      "chip": "ym2612"
    },
    {
      "channel": 0,
      "note": 52,
      "start": 30.6368,
      "duration": 0.1243,
      "velocity": 102,
      "chip": "ym2612"
    },
    {
      "channel": 1,
      "note": 73,
      "start": 30.6385,
      "duration": 0.0318,
      "velocity": 127,
      "chip": "ym2612"
    },
    {
      "channel": 1,
      "note": 80,
      "start": 30.6703,
      "duration": 0.031,
      "velocity": 127,
      "chip": "ym2612"
    },
    {
      "channel": 1,
      "note": 75,
      "start": 30.7014,
      "duration": 0.0614,
      "velocity": 127,
      "chip": "ym2612"
    },
    {
      "channel": 2,
      "note": 58,
      "start": 30.7017,
      "duration": 0.0662,
      "velocity": 103,
      "chip": "ym2612"
    },
    {
      "channel": 0,
      "note": 53,
      "start": 30.7611,
      "duration": 0.1247,
      "velocity": 102,
      "chip": "ym2612"
    },
    {
      "channel": 1,
      "note": 73,
      "start": 30.7628,
      "duration": 0.0313,
      "velocity": 127,
      "chip": "ym2612"
    },
    {
      "channel": 2,
      "note": 58,
      "start": 30.768,
      "duration": 0.0011,
      "velocity": 103,
      "chip": "ym2612"
    },
    {
      "channel": 1,
      "note": 80,
      "start": 30.7941,
      "duration": 0.0313,
      "velocity": 127,
      "chip": "ym2612"
    },
    {
      "channel": 1,
      "note": 80,
      "start": 30.8255,
      "duration": 0.0302,
      "velocity": 127,
      "chip": "ym2612"
    },
    {
      "channel": 2,
      "note": 58,
      "start": 30.8256,
      "duration": 0.1307,
      "velocity": 103,
      "chip": "ym2612"
    },
    {
      "channel": 1,
      "note": 80,
      "start": 30.8557,
      "duration": 0.0317,
      "velocity": 127,
      "chip": "ym2612"
    },
    {
      "channel": 0,
      "note": 55,
      "start": 30.8858,
      "duration": 0.0639,
      "velocity": 102,
      "chip": "ym2612"
    },
    {
      "channel": 1,
      "note": 73,
      "start": 30.8875,
      "duration": 0.0324,
      "velocity": 127,
      "chip": "ym2612"
    },
    {
      "channel": 1,
      "note": 80,
      "start": 30.92,
      "duration": 0.0311,
      "velocity": 127,
      "chip": "ym2612"
    },
    {
      "channel": 0,
      "note": 58,
      "start": 30.9498,
      "duration": 0.038,
      "velocity": 102,
      "chip": "ym2612"
    },
    {
      "channel": 1,
      "note": 75,
      "start": 30.9511,
      "duration": 0.0617,
      "velocity": 127,
      "chip": "ym2612"
    },
    {
      "channel": 2,
      "note": 60,
      "start": 30.9564,
      "duration": 0.0615,
      "velocity": 103,
      "chip": "ym2612"
    },
    {
      "channel": 0,
      "note": 53,
      "start": 31.0111,
      "duration": 0.1272,
      "velocity": 102,
      "chip": "ym2612"
    },
    {
      "channel": 1,
      "note": 80,
      "start": 31.0129,
      "duration": 0.0306,
      "velocity": 127,
      "chip": "ym2612"
    },
    {
      "channel": 2,
      "note": 60,
      "start": 31.0179,
      "duration": 0.001,
      "velocity": 103,
      "chip": "ym2612"
    },
    {
      "channel": 1,
      "note": 75,
      "start": 31.0436,
      "duration": 0.0321,
      "velocity": 127,
      "chip": "ym2612"
    },
    {
      "channel": 1,
      "note": 73,
      "start": 31.0756,
      "duration": 0.0318,
      "velocity": 127,
      "chip": "ym2612"
    },
    {
      "channel": 2,
      "note": 60,
      "start": 31.0758,
      "duration": 0.1312,
      "velocity": 103,
      "chip": "ym2612"
    },
    {
      "channel": 1,
      "note": 75,
      "start": 31.1075,
      "duration": 0.0326,
      "velocity": 127,
      "chip": "ym2612"
    },
    {
      "channel": 0,
      "note": 55,
      "start": 31.1384,
      "duration": 0.0622,
      "velocity": 102,
      "chip": "ym2612"
    },
    {
      "channel": 1,
      "note": 73,
      "start": 31.1401,
      "duration": 0.0315,
      "velocity": 127,
      "chip": "ym2612"
    },
    {
      "channel": 1,
      "note": 80,
      "start": 31.1717,
      "duration": 0.0302,
      "velocity": 127,
      "chip": "ym2612"
    },
    {
      "channel": 0,
      "note": 58,
      "start": 31.2006,
      "duration": 0.0381,
      "velocity": 102,
      "chip": "ym2612"
    },
    {
      "channel": 1,
      "note": 75,
      "start": 31.2019,
      "duration": 0.0624,
      "velocity": 127,
      "chip": "ym2612"
    },
    {
      "channel": 2,
      "note": 65,
      "start": 31.2071,
      "duration": 0.0623,
      "velocity": 103,
      "chip": "ym2612"
    },
    {
      "channel": 0,
      "note": 55,
      "start": 31.2627,
      "duration": 0.063,
      "velocity": 102,
      "chip": "ym2612"
    },
    {
      "channel": 1,
      "note": 80,
      "start": 31.2644,
      "duration": 0.0307,
      "velocity": 127,
      "chip": "ym2612"
    },
    {
      "channel": 2,
      "note": 65,
      "start": 31.2695,
      "duration": 0.001,
      "velocity": 103,
      "chip": "ym2612"
    },
    {
      "channel": 1,
      "note": 75,
      "start": 31.2951,
      "duration": 0.0323,
      "velocity": 127,
      "chip": "ym2612"
    },
    {
      "channel": 0,
      "note": 58,
      "start": 31.3257,
      "duration": 0.0611,
      "velocity": 102,
      "chip": "ym2612"
    },
    {
      "channel": 1,
      "note": 73,
      "start": 31.3275,
      "duration": 0.0606,
      "velocity": 127,
      "chip": "ym2612"
    },
    {
      "channel": 2,
      "note": 57,
      "start": 31.3327,
      "duration": 0.8722,
      "velocity": 103,
      "chip": "ym2612"
    },
    {
      "channel": 0,
      "note": 60,
      "start": 31.3868,
      "duration": 0.0679,
      "velocity": 102,
      "chip": "ym2612"
    },
    {
      "channel": 1,
      "note": 80,
      "start": 31.3882,
      "duration": 0.0299,
      "velocity": 127,
      "chip": "ym2612"
    },
    {
      "channel": 1,
      "note": 80,
      "start": 31.4181,
      "duration": 0.0303,
      "velocity": 127,
      "chip": "ym2612"
    },
    {
      "channel": 1,
      "note": 75,
      "start": 31.4485,
      "duration": 0.0623,
      "velocity": 127,
      "chip": "ym2612"
    },
    {
      "channel": 0,
      "note": 58,
      "start": 31.5091,
      "duration": 0.0635,
      "velocity": 102,
      "chip": "ym2612"
    },
    {
      "channel": 1,
      "note": 80,
      "start": 31.5108,
      "duration": 0.0313,
      "velocity": 127,
      "chip": "ym2612"
    },
    {
      "channel": 1,
      "note": 80,
      "start": 31.5422,
      "duration": 0.0317,
      "velocity": 127,
      "chip": "ym2612"
    },
    {
      "channel": 0,
      "note": 60,
      "start": 31.5727,
      "duration": 0.0427,
      "velocity": 102,
      "chip": "ym2612"
    },
    {
      "channel": 1,
      "note": 73,
      "start": 31.574,
      "duration": 0.0614,
      "velocity": 127,
      "chip": "ym2612"
    },
    {
      "channel": 0,
      "note": 52,
      "start": 31.6337,
      "duration": 0.1254,
      "velocity": 102,
      "chip": "ym2612"
    },
    {
      "channel": 1,
      "note": 73,
      "start": 31.6354,
      "duration": 0.0322,
      "velocity": 127,
      "chip": "ym2612"
    },
    {
      "channel": 1,
      "note": 80,
      "start": 31.6676,
      "duration": 0.0305,
      "velocity": 127,
      "chip": "ym2612"
    },
    {
      "channel": 1,
      "note": 75,
      "start": 31.6982,
      "duration": 0.0621,
      "velocity": 127,
      "chip": "ym2612"
    },
    {
      "channel": 0,
      "note": 53,
      "start": 31.7591,
      "duration": 0.1244,
      "velocity": 102,
      "chip": "ym2612"
    },
    {
      "channel": 1,
      "note": 73,
      "start": 31.7603,
      "duration": 0.0305,
      "velocity": 127,
      "chip": "ym2612"
    },
    {
      "channel": 1,
      "note": 80,
      "start": 31.7909,
      "duration": 0.0318,
      "velocity": 127,
      "chip": "ym2612"
    },
    {
      "channel": 1,
      "note": 80,
      "start": 31.8228,
      "duration": 0.0312,
      "velocity": 127,
      "chip": "ym2612"
    },
    {
      "channel": 1,
      "note": 80,
      "start": 31.854,
      "duration": 0.0311,
      "velocity": 127,
      "chip": "ym2612"
    },
    {
      "channel": 0,
      "note": 55,
      "start": 31.8835,
      "duration": 0.0637,
      "velocity": 102,
      "chip": "ym2612"
    },
    {
      "channel": 1,
      "note": 73,
      "start": 31.8852,
      "duration": 0.0323,
      "velocity": 127,
      "chip": "ym2612"
    },
    {
      "channel": 1,
      "note": 80,
      "start": 31.9176,
      "duration": 0.0313,
      "velocity": 127,
      "chip": "ym2612"
    },
    {
      "channel": 0,
      "note": 58,
      "start": 31.9472,
      "duration": 0.0377,
      "velocity": 102,
      "chip": "ym2612"
    },
    {
      "channel": 1,
      "note": 75,
      "start": 31.949,
      "duration": 0.0622,
      "velocity": 127,
      "chip": "ym2612"
    },
    {
      "channel": 0,
      "note": 53,
      "start": 32.0095,
      "duration": 0.1241,
      "velocity": 102,
      "chip": "ym2612"
    },
    {
      "channel": 1,
      "note": 80,
      "start": 32.0112,
      "duration": 0.0289,
      "velocity": 127,
      "chip": "ym2612"
    },
    {
      "channel": 1,
      "note": 80,
      "start": 32.0402,
      "duration": 0.0314,
      "velocity": 127,
      "chip": "ym2612"
    },
    {
      "channel": 1,
      "note": 75,
      "start": 32.0716,
      "duration": 0.0322,
      "velocity": 127,
      "chip": "ym2612"
    },
    {
      "channel": 1,
      "note": 75,
      "start": 32.1039,
      "duration": 0.0315,
      "velocity": 127,
      "chip": "ym2612"
    },
    {
      "channel": 0,
      "note": 55,
      "start": 32.1337,
      "duration": 0.0644,
      "velocity": 102,
      "chip": "ym2612"
    },
    {
      "channel": 1,
      "note": 73,
      "start": 32.1355,
      "duration": 0.0325,
      "velocity": 127,
      "chip": "ym2612"
    },
    {
      "channel": 1,
      "note": 73,
      "start": 32.168,
      "duration": 0.0318,
      "velocity": 127,
      "chip": "ym2612"
    },
    {
      "channel": 0,
      "note": 58,
      "start": 32.1981,
      "duration": 0.04,
      "velocity": 102,
      "chip": "ym2612"
    },
    {
      "channel": 1,
      "note": 75,
      "start": 32.1998,
      "duration": 0.032,
      "velocity": 127,
      "chip": "ym2612"
    },
    {
      "channel": 2,
      "note": 57,
      "start": 32.205,
      "duration": 0.1266,
      "velocity": 103,
      "chip": "ym2612"
    },
    {
      "channel": 1,
      "note": 75,
      "start": 32.2319,
      "duration": 0.0326,
      "velocity": 127,
      "chip": "ym2612"
    },
    {
      "channel": 0,
      "note": 55,
      "start": 32.2628,
      "duration": 0.062,
      "velocity": 102,
      "chip": "ym2612"
    },
    {
      "channel": 1,
      "note": 80,
      "start": 32.2694,
      "duration": 0.0253,
      "velocity": 127,
      "chip": "ym2612"
    },
    {
      "channel": 1,
      "note": 75,
      "start": 32.2947,
      "duration": 0.0319,
      "velocity": 127,
      "chip": "ym2612"
    },
    {
      "channel": 0,
      "note": 58,
      "start": 32.3249,
      "duration": 0.0612,
      "velocity": 102,
      "chip": "ym2612"
    },
    {
      "channel": 1,
      "note": 73,
      "start": 32.3315,
      "duration": 0.056,
      "velocity": 127,
      "chip": "ym2612"
    },
    {
      "channel": 2,
      "note": 60,
      "start": 32.3317,
      "duration": 0.499,
      "velocity": 103,
      "chip": "ym2612"
    },
    {
      "channel": 3,
      "note": 53,
      "start": 32.3319,
      "duration": 2.0146,
      "velocity": 122,
      "chip": "ym2612"
    },
    {
      "channel": 4,
      "note": 50,
      "start": 32.3322,
      "duration": 2.021,
      "velocity": 122,
      "chip": "ym2612"
    },
    {
      "channel": 0,
      "note": 60,
      "start": 32.3861,
      "duration": 0.0685,
      "velocity": 102,
      "chip": "ym2612"
    },
    {
      "channel": 1,
      "note": 80,
      "start": 32.3875,
      "duration": 0.03,
      "velocity": 127,
      "chip": "ym2612"
    },
    {
      "channel": 1,
      "note": 80,
      "start": 32.4176,
      "duration": 0.0312,
      "velocity": 127,
      "chip": "ym2612"
    },
    {
      "channel": 1,
      "note": 75,
      "start": 32.4488,
      "duration": 0.0627,
      "velocity": 127,
      "chip": "ym2612"
    },
    {
      "channel": 0,
      "note": 58,
      "start": 32.5098,
      "duration": 0.0631,
      "velocity": 102,
      "chip": "ym2612"
    },
    {
      "channel": 1,
      "note": 80,
      "start": 32.5115,
      "duration": 0.031,
      "velocity": 127,
      "chip": "ym2612"
    },
    {
      "channel": 1,
      "note": 80,
      "start": 32.5426,
      "duration": 0.032,
      "velocity": 127,
      "chip": "ym2612"
    },
    {
      "channel": 0,
      "note": 60,
      "start": 32.5729,
      "duration": 0.0442,
      "velocity": 102,
      "chip": "ym2612"
    },
    {
      "channel": 1,
      "note": 73,
      "start": 32.5746,
      "duration": 0.0619,
      "velocity": 127,
      "chip": "ym2612"
    },
    {
      "channel": 0,
      "note": 52,
      "start": 32.6348,
      "duration": 0.1266,
      "velocity": 102,
      "chip": "ym2612"
    },
    {
      "channel": 1,
      "note": 73,
      "start": 32.6365,
      "duration": 0.0321,
      "velocity": 127,
      "chip": "ym2612"
    },
    {
      "channel": 1,
      "note": 80,
      "start": 32.6686,
      "duration": 0.0317,
      "velocity": 127,
      "chip": "ym2612"
    },
    {
      "channel": 1,
      "note": 75,
      "start": 32.7005,
      "duration": 0.0622,
      "velocity": 127,
      "chip": "ym2612"
    },
    {
      "channel": 0,
      "note": 53,
      "start": 32.7614,
      "duration": 0.1247,
      "velocity": 102,
      "chip": "ym2612"
    },
    {
      "channel": 1,
      "note": 73,
      "start": 32.7627,
      "duration": 0.0314,
      "velocity": 127,
      "chip": "ym2612"
    },
    {
      "channel": 1,
      "note": 80,
      "start": 32.7941,
      "duration": 0.0314,
      "velocity": 127,
      "chip": "ym2612"
    },
    {
      "channel": 1,
      "note": 80,
      "start": 32.8256,
      "duration": 0.0315,
      "velocity": 127,
      "chip": "ym2612"
    },
    {
      "channel": 2,
      "note": 72,
      "start": 32.8307,
      "duration": 0.507,
      "velocity": 103,
      "chip": "ym2612"
    },
    {
      "channel": 1,
      "note": 80,
      "start": 32.8572,
      "duration": 0.0307,
      "velocity": 127,
      "chip": "ym2612"
    },
    {
      "channel": 0,
      "note": 55,
      "start": 32.8862,
      "duration": 0.0637,
      "velocity": 102,
      "chip": "ym2612"
    },
    {
      "channel": 1,
      "note": 73,
      "start": 32.8879,
      "duration": 0.0313,
      "velocity": 127,
      "chip": "ym2612"
    },
    {
      "channel": 1,
      "note": 80,
      "start": 32.9193,
      "duration": 0.0323,
      "velocity": 127,
      "chip": "ym2612"
    },
    {
      "channel": 0,
      "note": 58,
      "start": 32.9499,
      "duration": 0.0379,
      "velocity": 102,
      "chip": "ym2612"
    },
    {
      "channel": 1,
      "note": 75,
      "start": 32.9517,
      "duration": 0.0626,
      "velocity": 127,
      "chip": "ym2612"
    },
    {
      "channel": 0,
      "note": 53,
      "start": 33.0126,
      "duration": 0.128,
      "velocity": 102,
      "chip": "ym2612"
    },
    {
      "channel": 1,
      "note": 80,
      "start": 33.0143,
      "duration": 0.0312,
      "velocity": 127,
      "chip": "ym2612"
    },
    {
      "channel": 1,
      "note": 75,
      "start": 33.0455,
      "duration": 0.032,
      "velocity": 127,
      "chip": "ym2612"
    },
    {
      "channel": 1,
      "note": 73,
      "start": 33.0776,
      "duration": 0.0329,
      "velocity": 127,
      "chip": "ym2612"
    },
    {
      "channel": 1,
      "note": 75,
      "start": 33.1105,
      "duration": 0.0318,
      "velocity": 127,
      "chip": "ym2612"
    },
    {
      "channel": 0,
      "note": 55,
      "start": 33.1406,
      "duration": 0.0644,
      "velocity": 102,
      "chip": "ym2612"
    },
    {
      "channel": 1,
      "note": 73,
      "start": 33.1423,
      "duration": 0.032,
      "velocity": 127,
      "chip": "ym2612"
    },
    {
      "channel": 1,
      "note": 80,
      "start": 33.1744,
      "duration": 0.0323,
      "velocity": 127,
      "chip": "ym2612"
    },
    {
      "channel": 0,
      "note": 58,
      "start": 33.205,
      "duration": 0.0377,
      "velocity": 102,
      "chip": "ym2612"
    },
    {
      "channel": 1,
      "note": 75,
      "start": 33.2068,
      "duration": 0.0621,
      "velocity": 127,
      "chip": "ym2612"
    },
    {
      "channel": 0,
      "note": 55,
      "start": 33.2672,
      "duration": 0.0634,
      "velocity": 102,
      "chip": "ym2612"
    },
    {
      "channel": 1,
      "note": 80,
      "start": 33.2689,
      "duration": 0.0314,
      "velocity": 127,
      "chip": "ym2612"
    },
    {
      "channel": 1,
      "note": 75,
      "start": 33.3004,
      "duration": 0.0321,
      "velocity": 127,
      "chip": "ym2612"
    },
    {
      "channel": 0,
      "note": 58,
      "start": 33.3307,
      "duration": 0.0622,
      "velocity": 102,
      "chip": "ym2612"
    },
    {
      "channel": 1,
      "note": 73,
      "start": 33.3325,
      "duration": 0.0617,
      "velocity": 127,
      "chip": "ym2612"
    },
    {
      "channel": 2,
      "note": 60,
      "start": 33.3378,
      "duration": 0.2485,
      "velocity": 103,
      "chip": "ym2612"
    },
    {
      "channel": 0,
      "note": 60,
      "start": 33.3929,
      "duration": 0.0696,
      "velocity": 102,
      "chip": "ym2612"
    },
    {
      "channel": 1,
      "note": 80,
      "start": 33.3943,
      "duration": 0.03,
      "velocity": 127,
      "chip": "ym2612"
    },
    {
      "channel": 1,
      "note": 80,
      "start": 33.4244,
      "duration": 0.032,
      "velocity": 127,
      "chip": "ym2612"
    },
    {
      "channel": 1,
      "note": 75,
      "start": 33.4564,
      "duration": 0.0618,
      "velocity": 127,
      "chip": "ym2612"
    },
    {
      "channel": 0,
      "note": 58,
      "start": 33.5164,
      "duration": 0.0633,
      "velocity": 102,
      "chip": "ym2612"
    },
    {
      "channel": 1,
      "note": 80,
      "start": 33.5183,
      "duration": 0.0319,
      "velocity": 127,
      "chip": "ym2612"
    },
    {
      "channel": 1,
      "note": 80,
      "start": 33.5502,
      "duration": 0.0308,
      "velocity": 127,
      "chip": "ym2612"
    },
    {
      "channel": 0,
      "note": 60,
      "start": 33.5797,
      "duration": 0.0438,
      "velocity": 102,
      "chip": "ym2612"
    },
    {
      "channel": 1,
      "note": 73,
      "start": 33.581,
      "duration": 0.0621,
      "velocity": 127,
      "chip": "ym2612"
    },
    {
      "channel": 2,
      "note": 72,
      "start": 33.5863,
      "duration": 0.2506,
      "velocity": 103,
      "chip": "ym2612"
    },
    {
      "channel": 0,
      "note": 52,
      "start": 33.6415,
      "duration": 0.1257,
      "velocity": 102,
      "chip": "ym2612"
    },
    {
      "channel": 1,
      "note": 73,
      "start": 33.6432,
      "duration": 0.0317,
      "velocity": 127,
      "chip": "ym2612"
    },
    {
      "channel": 1,
      "note": 80,
      "start": 33.675,
      "duration": 0.0321,
      "velocity": 127,
      "chip": "ym2612"
    },
    {
      "channel": 1,
      "note": 75,
      "start": 33.7072,
      "duration": 0.0617,
      "velocity": 127,
      "chip": "ym2612"
    },
    {
      "channel": 0,
      "note": 53,
      "start": 33.7671,
      "duration": 0.1259,
      "velocity": 102,
      "chip": "ym2612"
    },
    {
      "channel": 1,
      "note": 73,
      "start": 33.7689,
      "duration": 0.0321,
      "velocity": 127,
      "chip": "ym2612"
    },
    {
      "channel": 1,
      "note": 80,
      "start": 33.8011,
      "duration": 0.0307,
      "velocity": 127,
      "chip": "ym2612"
    },
    {
      "channel": 1,
      "note": 80,
      "start": 33.8318,
      "duration": 0.0314,
      "velocity": 127,
      "chip": "ym2612"
    },
    {
      "channel": 2,
      "note": 60,
      "start": 33.8369,
      "duration": 0.1267,
      "velocity": 103,
      "chip": "ym2612"
    },
    {
      "channel": 1,
      "note": 80,
      "start": 33.8633,
      "duration": 0.0314,
      "velocity": 127,
      "chip": "ym2612"
    },
    {
      "channel": 0,
      "note": 55,
      "start": 33.893,
      "duration": 0.0637,
      "velocity": 102,
      "chip": "ym2612"
    },
    {
      "channel": 1,
      "note": 73,
      "start": 33.8948,
      "duration": 0.0313,
      "velocity": 127,
      "chip": "ym2612"
    },
    {
      "channel": 1,
      "note": 80,
      "start": 33.9262,
      "duration": 0.0322,
      "velocity": 127,
      "chip": "ym2612"
    },
    {
      "channel": 0,
      "note": 58,
      "start": 33.9568,
      "duration": 0.0372,
      "velocity": 102,
      "chip": "ym2612"
    },
    {
      "channel": 1,
      "note": 75,
      "start": 33.9585,
      "duration": 0.0615,
      "velocity": 127,
      "chip": "ym2612"
    },
    {
      "channel": 2,
      "note": 72,
      "start": 33.9637,
      "duration": 0.1225,
      "velocity": 103,
      "chip": "ym2612"
    },
    {
      "channel": 0,
      "note": 53,
      "start": 34.0182,
      "duration": 0.125,
      "velocity": 102,
      "chip": "ym2612"
    },
    {
      "channel": 1,
      "note": 80,
      "start": 34.02,
      "duration": 0.0305,
      "velocity": 127,
      "chip": "ym2612"
    },
    {
      "channel": 1,
      "note": 80,
      "start": 34.0505,
      "duration": 0.0304,
      "velocity": 127,
      "chip": "ym2612"
    },
    {
      "channel": 1,
      "note": 75,
      "start": 34.081,
      "duration": 0.0318,
      "velocity": 127,
      "chip": "ym2612"
    },
    {
      "channel": 2,
      "note": 60,
      "start": 34.0861,
      "duration": 0.064,
      "velocity": 103,
      "chip": "ym2612"
    },
    {
      "channel": 1,
      "note": 75,
      "start": 34.1128,
      "duration": 0.0322,
      "velocity": 127,
      "chip": "ym2612"
    },
    {
      "channel": 0,
      "note": 55,
      "start": 34.1433,
      "duration": 0.0636,
      "velocity": 102,
      "chip": "ym2612"
    },
    {
      "channel": 1,
      "note": 73,
      "start": 34.1451,
      "duration": 0.0311,
      "velocity": 127,
      "chip": "ym2612"
    },
    {
      "channel": 2,
      "note": 63,
      "start": 34.1502,
      "duration": 0.0637,
      "velocity": 103,
      "chip": "ym2612"
    },
    {
      "channel": 1,
      "note": 73,
      "start": 34.1762,
      "duration": 0.0324,
      "velocity": 127,
      "chip": "ym2612"
    },
    {
      "channel": 0,
      "note": 58,
      "start": 34.207,
      "duration": 0.0399,
      "velocity": 102,
      "chip": "ym2612"
    },
    {
      "channel": 1,
      "note": 75,
      "start": 34.2087,
      "duration": 0.0322,
      "velocity": 127,
      "chip": "ym2612"
    },
    {
      "channel": 2,
      "note": 65,
      "start": 34.214,
      "duration": 0.0908,
      "velocity": 103,
      "chip": "ym2612"
    },
    {
      "channel": 1,
      "note": 75,
      "start": 34.2409,
      "duration": 0.0318,
      "velocity": 127,
      "chip": "ym2612"
    },
    {
      "channel": 0,
      "note": 55,
      "start": 34.2711,
      "duration": 0.0632,
      "velocity": 102,
      "chip": "ym2612"
    },
    {
      "channel": 1,
      "note": 80,
      "start": 34.2728,
      "duration": 0.0317,
      "velocity": 127,
      "chip": "ym2612"
    },
    {
      "channel": 1,
      "note": 75,
      "start": 34.3046,
      "duration": 0.0362,
      "velocity": 127,
      "chip": "ym2612"
    },
    {
      "channel": 2,
      "note": 50,
      "start": 34.3048,
      "duration": 0.0062,
      "velocity": 103,
      "chip": "ym2612"
    },
    {
      "channel": 0,
      "note": 58,
      "start": 34.3343,
      "duration": 0.0768,
      "velocity": 102,
      "chip": "ym2612"
    },
    {
      "channel": 1,
      "note": 73,
      "start": 34.3409,
      "duration": 0.0715,
      "velocity": 127,
      "chip": "ym2612"
    },
    {
      "channel": 2,
      "note": 65,
      "start": 34.3431,
      "duration": 0.0369,
      "velocity": 83,
      "chip": "ym2612"
    },
    {
      "channel": 3,
      "note": 55,
      "start": 34.3466,
      "duration": 1.0449,
      "velocity": 122,
      "chip": "ym2612"
    },
    {
      "channel": 4,
      "note": 53,
      "start": 34.3532,
      "duration": 1.0403,
      "velocity": 122,
      "chip": "ym2612"
    },
    {
      "channel": 2,
      "note": 67,
      "start": 34.3801,
      "duration": 0.0327,
      "velocity": 83,
      "chip": "ym2612"
    },
    {
      "channel": 0,
      "note": 60,
      "start": 34.4112,
      "duration": 0.0713,
      "velocity": 102,
      "chip": "ym2612"
    },
    {
      "channel": 1,
      "note": 80,
      "start": 34.4125,
      "duration": 0.0302,
      "velocity": 127,
      "chip": "ym2612"
    },
    {
      "channel": 2,
      "note": 70,
      "start": 34.4128,
      "duration": 0.0302,
      "velocity": 84,
      "chip": "ym2612"
    },
    {
      "channel": 1,
      "note": 80,
      "start": 34.4428,
      "duration": 0.0332,
      "velocity": 127,
      "chip": "ym2612"
    },
    {
      "channel": 2,
      "note": 72,
      "start": 34.4431,
      "duration": 0.0333,
      "velocity": 84,
      "chip": "ym2612"
    },
    {
      "channel": 1,
      "note": 75,
      "start": 34.4761,
      "duration": 0.0636,
      "velocity": 127,
      "chip": "ym2612"
    },
    {
      "channel": 2,
      "note": 74,
      "start": 34.4764,
      "duration": 0.0313,
      "velocity": 85,
      "chip": "ym2612"
    },
    {
      "channel": 2,
      "note": 65,
      "start": 34.5078,
      "duration": 0.0372,
      "velocity": 85,
      "chip": "ym2612"
    },
    {
      "channel": 0,
      "note": 58,
      "start": 34.5379,
      "duration": 0.0657,
      "velocity": 102,
      "chip": "ym2612"
    },
    {
      "channel": 1,
      "note": 80,
      "start": 34.5397,
      "duration": 0.0329,
      "velocity": 127,
      "chip": "ym2612"
    },
    {
      "channel": 2,
      "note": 67,
      "start": 34.545,
      "duration": 0.0281,
      "velocity": 85,
      "chip": "ym2612"
    },
    {
      "channel": 1,
      "note": 80,
      "start": 34.5727,
      "duration": 0.0326,
      "velocity": 127,
      "chip": "ym2612"
    },
    {
      "channel": 2,
      "note": 70,
      "start": 34.5732,
      "duration": 0.0373,
      "velocity": 85,
      "chip": "ym2612"
    },
    {
      "channel": 0,
      "note": 60,
      "start": 34.6037,
      "duration": 0.0452,
      "velocity": 102,
      "chip": "ym2612"
    },
    {
      "channel": 1,
      "note": 73,
      "start": 34.6053,
      "duration": 0.0637,
      "velocity": 127,
      "chip": "ym2612"
    },
    {
      "channel": 2,
      "note": 65,
      "start": 34.6106,
      "duration": 0.0261,
      "velocity": 85,
      "chip": "ym2612"
    },
    {
      "channel": 2,
      "note": 67,
      "start": 34.6368,
      "duration": 0.0324,
      "velocity": 86,
      "chip": "ym2612"
    },
    {
      "channel": 0,
      "note": 52,
      "start": 34.6673,
      "duration": 0.1283,
      "velocity": 102,
      "chip": "ym2612"
    },
    {
      "channel": 1,
      "note": 73,
      "start": 34.669,
      "duration": 0.0321,
      "velocity": 127,
      "chip": "ym2612"
    },
    {
      "channel": 2,
      "note": 70,
      "start": 34.6693,
      "duration": 0.0322,
      "velocity": 86,
      "chip": "ym2612"
    },
    {
      "channel": 1,
      "note": 80,
      "start": 34.7012,
      "duration": 0.0323,
      "velocity": 127,
      "chip": "ym2612"
    },
    {
      "channel": 2,
      "note": 67,
      "start": 34.7015,
      "duration": 0.0323,
      "velocity": 88,
      "chip": "ym2612"
    },
    {
      "channel": 1,
      "note": 75,
      "start": 34.7336,
      "duration": 0.0632,
      "velocity": 127,
      "chip": "ym2612"
    },
    {
      "channel": 2,
      "note": 65,
      "start": 34.7339,
      "duration": 0.0312,
      "velocity": 88,
      "chip": "ym2612"
    },
    {
      "channel": 2,
      "note": 62,
      "start": 34.7651,
      "duration": 0.0368,
      "velocity": 88,
      "chip": "ym2612"
    },
    {
      "channel": 0,
      "note": 53,
      "start": 34.7956,
      "duration": 0.1375,
      "velocity": 102,
      "chip": "ym2612"
    },
    {
      "channel": 1,
      "note": 73,
      "start": 34.7969,
      "duration": 0.0331,
      "velocity": 127,
      "chip": "ym2612"
    },
    {
      "channel": 2,
      "note": 60,
      "start": 34.802,
      "duration": 0.0282,
      "velocity": 88,
      "chip": "ym2612"
    },
    {
      "channel": 1,
      "note": 80,
      "start": 34.83,
      "duration": 0.0317,
      "velocity": 127,
      "chip": "ym2612"
    },
    {
      "channel": 2,
      "note": 62,
      "start": 34.8303,
      "duration": 0.0317,
      "velocity": 89,
      "chip": "ym2612"
    },
    {
      "channel": 1,
      "note": 80,
      "start": 34.8618,
      "duration": 0.0401,
      "velocity": 127,
      "chip": "ym2612"
    },
    {
      "channel": 2,
      "note": 65,
      "start": 34.8622,
      "duration": 0.0401,
      "velocity": 89,
      "chip": "ym2612"
    },
    {
      "channel": 1,
      "note": 80,
      "start": 34.902,
      "duration": 0.0328,
      "velocity": 127,
      "chip": "ym2612"
    },
    {
      "channel": 2,
      "note": 67,
      "start": 34.9023,
      "duration": 0.0328,
      "velocity": 89,
      "chip": "ym2612"
    },
    {
      "channel": 0,
      "note": 55,
      "start": 34.9331,
      "duration": 0.064,
      "velocity": 102,
      "chip": "ym2612"
    },
    {
      "channel": 1,
      "note": 73,
      "start": 34.9348,
      "duration": 0.0311,
      "velocity": 127,
      "chip": "ym2612"
    },
    {
      "channel": 2,
      "note": 70,
      "start": 34.9351,
      "duration": 0.0312,
      "velocity": 89,
      "chip": "ym2612"
    },
    {
      "channel": 1,
      "note": 80,
      "start": 34.966,
      "duration": 0.0329,
      "velocity": 127,
      "chip": "ym2612"
    },
    {
      "channel": 2,
      "note": 75,
      "start": 34.9664,
      "duration": 0.0378,
      "velocity": 91,
      "chip": "ym2612"
    },
    {
      "channel": 0,
      "note": 58,
      "start": 34.9972,
      "duration": 0.0391,
      "velocity": 102,
      "chip": "ym2612"
    },
    {
      "channel": 1,
      "note": 75,
      "start": 34.999,
      "duration": 0.0633,
      "velocity": 127,
      "chip": "ym2612"
    },
    {
      "channel": 2,
      "note": 74,
      "start": 35.0042,
      "duration": 0.0262,
      "velocity": 91,
      "chip": "ym2612"
    },
    {
      "channel": 2,
      "note": 77,
      "start": 35.0305,
      "duration": 0.0371,
      "velocity": 92,
      "chip": "ym2612"
    },
    {
      "channel": 0,
      "note": 53,
      "start": 35.0606,
      "duration": 0.1301,
      "velocity": 102,
      "chip": "ym2612"
    },
    {
      "channel": 1,
      "note": 80,
      "start": 35.0623,
      "duration": 0.0317,
      "velocity": 127,
      "chip": "ym2612"
    },
    {
      "channel": 2,
      "note": 70,
      "start": 35.0677,
      "duration": 0.0317,
      "velocity": 92,
      "chip": "ym2612"
    },
    {
      "channel": 1,
      "note": 75,
      "start": 35.0941,
      "duration": 0.0324,
      "velocity": 127,
      "chip": "ym2612"
    },
    {
      "channel": 2,
      "note": 74,
      "start": 35.0994,
      "duration": 0.0324,
      "velocity": 92,
      "chip": "ym2612"
    },
    {
      "channel": 1,
      "note": 73,
      "start": 35.1265,
      "duration": 0.0326,
      "velocity": 127,
      "chip": "ym2612"
    },
    {
      "channel": 2,
      "note": 67,
      "start": 35.1318,
      "duration": 0.0276,
      "velocity": 92,
      "chip": "ym2612"
    },
    {
      "channel": 1,
      "note": 75,
      "start": 35.1591,
      "duration": 0.0333,
      "velocity": 127,
      "chip": "ym2612"
    },
    {
      "channel": 2,
      "note": 65,
      "start": 35.1595,
      "duration": 0.0332,
      "velocity": 92,
      "chip": "ym2612"
    },
    {
      "channel": 0,
      "note": 55,
      "start": 35.1907,
      "duration": 0.0639,
      "velocity": 102,
      "chip": "ym2612"
    },
    {
      "channel": 1,
      "note": 73,
      "start": 35.1925,
      "duration": 0.031,
      "velocity": 127,
      "chip": "ym2612"
    },
    {
      "channel": 2,
      "note": 67,
      "start": 35.1928,
      "duration": 0.0311,
      "velocity": 93,
      "chip": "ym2612"
    },
    {
      "channel": 1,
      "note": 80,
      "start": 35.2236,
      "duration": 0.0328,
      "velocity": 127,
      "chip": "ym2612"
    },
    {
      "channel": 2,
      "note": 70,
      "start": 35.2239,
      "duration": 0.0377,
      "velocity": 93,
      "chip": "ym2612"
    },
    {
      "channel": 0,
      "note": 58,
      "start": 35.2547,
      "duration": 0.0393,
      "velocity": 102,
      "chip": "ym2612"
    },
    {
      "channel": 1,
      "note": 75,
      "start": 35.2564,
      "duration": 0.0636,
      "velocity": 127,
      "chip": "ym2612"
    },
    {
      "channel": 2,
      "note": 72,
      "start": 35.2617,
      "duration": 0.0263,
      "velocity": 95,
      "chip": "ym2612"
    },
    {
      "channel": 2,
      "note": 74,
      "start": 35.288,
      "duration": 0.0373,
      "velocity": 95,
      "chip": "ym2612"
    },
    {
      "channel": 0,
      "note": 55,
      "start": 35.3184,
      "duration": 0.0653,
      "velocity": 102,
      "chip": "ym2612"
    },
    {
      "channel": 1,
      "note": 80,
      "start": 35.3201,
      "duration": 0.0324,
      "velocity": 127,
      "chip": "ym2612"
    },
    {
      "channel": 2,
      "note": 65,
      "start": 35.3254,
      "duration": 0.0274,
      "velocity": 95,
      "chip": "ym2612"
    },
    {
      "channel": 1,
      "note": 75,
      "start": 35.3525,
      "duration": 0.0329,
      "velocity": 127,
      "chip": "ym2612"
    },
    {
      "channel": 2,
      "note": 67,
      "start": 35.3528,
      "duration": 0.0379,
      "velocity": 95,
      "chip": "ym2612"
    },
    {
      "channel": 0,
      "note": 58,
      "start": 35.3837,
      "duration": 0.0733,
      "velocity": 102,
      "chip": "ym2612"
    },
    {
      "channel": 1,
      "note": 73,
      "start": 35.3855,
      "duration": 0.0729,
      "velocity": 127,
      "chip": "ym2612"
    },
    {
      "channel": 2,
      "note": 65,
      "start": 35.3908,
      "duration": 0.0348,
      "velocity": 96,
      "chip": "ym2612"
    },
    {
      "channel": 3,
      "note": 55,
      "start": 35.3916,
      "duration": 1.0468,
      "velocity": 122,
      "chip": "ym2612"
    },
    {
      "channel": 4,
      "note": 56,
      "start": 35.3936,
      "duration": 1.0468,
      "velocity": 122,
      "chip": "ym2612"
    },
    {
      "channel": 2,
      "note": 67,
      "start": 35.4256,
      "duration": 0.0331,
      "velocity": 96,
      "chip": "ym2612"
    },
    {
      "channel": 0,
      "note": 60,
      "start": 35.4571,
      "duration": 0.0708,
      "velocity": 102,
      "chip": "ym2612"
    },
    {
      "channel": 1,
      "note": 80,
      "start": 35.4584,
      "duration": 0.0295,
      "velocity": 127,
      "chip": "ym2612"
    },
    {
      "channel": 2,
      "note": 70,
      "start": 35.4588,
      "duration": 0.0295,
      "velocity": 96,
      "chip": "ym2612"
    },
    {
      "channel": 1,
      "note": 80,
      "start": 35.488,
      "duration": 0.0334,
      "velocity": 127,
      "chip": "ym2612"
    },
    {
      "channel": 2,
      "note": 72,
      "start": 35.4883,
      "duration": 0.0334,
      "velocity": 96,
      "chip": "ym2612"
    },
    {
      "channel": 1,
      "note": 75,
      "start": 35.5214,
      "duration": 0.0639,
      "velocity": 127,
      "chip": "ym2612"
    },
    {
      "channel": 2,
      "note": 74,
      "start": 35.5218,
      "duration": 0.0318,
      "velocity": 98,
      "chip": "ym2612"
    },
    {
      "channel": 2,
      "note": 65,
      "start": 35.5536,
      "duration": 0.0369,
      "velocity": 98,
      "chip": "ym2612"
    },
    {
      "channel": 0,
      "note": 58,
      "start": 35.5837,
      "duration": 0.0648,
      "velocity": 102,
      "chip": "ym2612"
    },
    {
      "channel": 1,
      "note": 80,
      "start": 35.5854,
      "duration": 0.0324,
      "velocity": 127,
      "chip": "ym2612"
    },
    {
      "channel": 2,
      "note": 67,
      "start": 35.5906,
      "duration": 0.0275,
      "velocity": 98,
      "chip": "ym2612"
    },
    {
      "channel": 1,
      "note": 80,
      "start": 35.6178,
      "duration": 0.0323,
      "velocity": 127,
      "chip": "ym2612"
    },
    {
      "channel": 2,
      "note": 70,
      "start": 35.6182,
      "duration": 0.0372,
      "velocity": 98,
      "chip": "ym2612"
    },
    {
      "channel": 0,
      "note": 60,
      "start": 35.6485,
      "duration": 0.0451,
      "velocity": 102,
      "chip": "ym2612"
    },
    {
      "channel": 1,
      "note": 73,
      "start": 35.6502,
      "duration": 0.064,
      "velocity": 127,
      "chip": "ym2612"
    },
    {
      "channel": 2,
      "note": 65,
      "start": 35.6554,
      "duration": 0.0258,
      "velocity": 99,
      "chip": "ym2612"
    },
    {
      "channel": 2,
      "note": 67,
      "start": 35.6813,
      "duration": 0.0332,
      "velocity": 99,
      "chip": "ym2612"
    },
    {
      "channel": 0,
      "note": 52,
      "start": 35.7125,
      "duration": 0.1279,
      "velocity": 102,
      "chip": "ym2612"
    },
    {
      "channel": 1,
      "note": 73,
      "start": 35.7142,
      "duration": 0.0317,
      "velocity": 127,
      "chip": "ym2612"
    },
    {
      "channel": 2,
      "note": 70,
      "start": 35.7145,
      "duration": 0.0318,
      "velocity": 100,
      "chip": "ym2612"
    },
    {
      "channel": 1,
      "note": 80,
      "start": 35.746,
      "duration": 0.0323,
      "velocity": 127,
      "chip": "ym2612"
    },
    {
      "channel": 2,
      "note": 67,
      "start": 35.7463,
      "duration": 0.0323,
      "velocity": 100,
      "chip": "ym2612"
    },
    {
      "channel": 1,
      "note": 75,
      "start": 35.7784,
      "duration": 0.0633,
      "velocity": 127,
      "chip": "ym2612"
    },
    {
      "channel": 2,
      "note": 65,
      "start": 35.7788,
      "duration": 0.0316,
      "velocity": 101,
      "chip": "ym2612"
    },
    {
      "channel": 2,
      "note": 62,
      "start": 35.8105,
      "duration": 0.0365,
      "velocity": 101,
      "chip": "ym2612"
    },
    {
      "channel": 0,
      "note": 53,
      "start": 35.8404,
      "duration": 0.1383,
      "velocity": 102,
      "chip": "ym2612"
    },
    {
      "channel": 1,
      "note": 73,
      "start": 35.8417,
      "duration": 0.0337,
      "velocity": 127,
      "chip": "ym2612"
    },
    {
      "channel": 2,
      "note": 60,
      "start": 35.8469,
      "duration": 0.0288,
      "velocity": 101,
      "chip": "ym2612"
    },
    {
      "channel": 1,
      "note": 80,
      "start": 35.8755,
      "duration": 0.0324,
      "velocity": 127,
      "chip": "ym2612"
    },
    {
      "channel": 2,
      "note": 62,
      "start": 35.8758,
      "duration": 0.0323,
      "velocity": 101,
      "chip": "ym2612"
    },
    {
      "channel": 1,
      "note": 80,
      "start": 35.9079,
      "duration": 0.0394,
      "velocity": 127,
      "chip": "ym2612"
    },
    {
      "channel": 2,
      "note": 65,
      "start": 35.9082,
      "duration": 0.0394,
      "velocity": 103,
      "chip": "ym2612"
    },
    {
      "channel": 1,
      "note": 80,
      "start": 35.9474,
      "duration": 0.0332,
      "velocity": 127,
      "chip": "ym2612"
    },
    {
      "channel": 2,
      "note": 67,
      "start": 35.9477,
      "duration": 0.0331,
      "velocity": 103,
      "chip": "ym2612"
    },
    {
      "channel": 0,
      "note": 55,
      "start": 35.9788,
      "duration": 0.0643,
      "velocity": 102,
      "chip": "ym2612"
    },
    {
      "channel": 1,
      "note": 73,
      "start": 35.9805,
      "duration": 0.0313,
      "velocity": 127,
      "chip": "ym2612"
    },
    {
      "channel": 2,
      "note": 70,
      "start": 35.9809,
      "duration": 0.0313,
      "velocity": 103,
      "chip": "ym2612"
    },
    {
      "channel": 1,
      "note": 80,
      "start": 36.0119,
      "duration": 0.033,
      "velocity": 127,
      "chip": "ym2612"
    },
    {
      "channel": 2,
      "note": 75,
      "start": 36.0122,
      "duration": 0.0378,
      "velocity": 103,
      "chip": "ym2612"
    },
    {
      "channel": 0,
      "note": 58,
      "start": 36.0432,
      "duration": 0.0391,
      "velocity": 102,
      "chip": "ym2612"
    },
    {
      "channel": 1,
      "note": 75,
      "start": 36.0449,
      "duration": 0.0631,
      "velocity": 127,
      "chip": "ym2612"
    },
    {
      "channel": 2,
      "note": 74,
      "start": 36.05,
      "duration": 0.0263,
      "velocity": 105,
      "chip": "ym2612"
    },
    {
      "channel": 2,
      "note": 77,
      "start": 36.0764,
      "duration": 0.0367,
      "velocity": 105,
      "chip": "ym2612"
    },
    {
      "channel": 0,
      "note": 53,
      "start": 36.1062,
      "duration": 0.1279,
      "velocity": 102,
      "chip": "ym2612"
    },
    {
      "channel": 1,
      "note": 80,
      "start": 36.108,
      "duration": 0.0301,
      "velocity": 127,
      "chip": "ym2612"
    },
    {
      "channel": 2,
      "note": 70,
      "start": 36.1132,
      "duration": 0.0254,
      "velocity": 105,
      "chip": "ym2612"
    },
    {
      "channel": 1,
      "note": 80,
      "start": 36.1382,
      "duration": 0.0317,
      "velocity": 127,
      "chip": "ym2612"
    },
    {
      "channel": 2,
      "note": 74,
      "start": 36.1386,
      "duration": 0.0318,
      "velocity": 106,
      "chip": "ym2612"
    },
    {
      "channel": 1,
      "note": 75,
      "start": 36.17,
      "duration": 0.0325,
      "velocity": 127,
      "chip": "ym2612"
    },
    {
      "channel": 2,
      "note": 67,
      "start": 36.1705,
      "duration": 0.0373,
      "velocity": 106,
      "chip": "ym2612"
    },
    {
      "channel": 1,
      "note": 75,
      "start": 36.2026,
      "duration": 0.0334,
      "velocity": 127,
      "chip": "ym2612"
    },
    {
      "channel": 2,
      "note": 65,
      "start": 36.2079,
      "duration": 0.0334,
      "velocity": 107,
      "chip": "ym2612"
    },
    {
      "channel": 0,
      "note": 55,
      "start": 36.2342,
      "duration": 0.0651,
      "velocity": 102,
      "chip": "ym2612"
    },
    {
      "channel": 1,
      "note": 73,
      "start": 36.236,
      "duration": 0.0322,
      "velocity": 127,
      "chip": "ym2612"
    },
    {
      "channel": 2,
      "note": 67,
      "start": 36.2414,
      "duration": 0.0321,
      "velocity": 107,
      "chip": "ym2612"
    },
    {
      "channel": 1,
      "note": 73,
      "start": 36.2682,
      "duration": 0.0329,
      "velocity": 127,
      "chip": "ym2612"
    },
    {
      "channel": 2,
      "note": 70,
      "start": 36.2735,
      "duration": 0.0329,
      "velocity": 108,
      "chip": "ym2612"
    },
    {
      "channel": 0,
      "note": 58,
      "start": 36.2994,
      "duration": 0.0416,
      "velocity": 102,
      "chip": "ym2612"
    },
    {
      "channel": 1,
      "note": 75,
      "start": 36.3011,
      "duration": 0.0333,
      "velocity": 127,
      "chip": "ym2612"
    },
    {
      "channel": 2,
      "note": 72,
      "start": 36.3065,
      "duration": 0.0332,
      "velocity": 108,
      "chip": "ym2612"
    },
    {
      "channel": 1,
      "note": 75,
      "start": 36.3344,
      "duration": 0.0324,
      "velocity": 127,
      "chip": "ym2612"
    },
    {
      "channel": 2,
      "note": 74,
      "start": 36.3398,
      "duration": 0.0321,
      "velocity": 108,
      "chip": "ym2612"
    },
    {
      "channel": 0,
      "note": 55,
      "start": 36.3651,
      "duration": 0.0654,
      "velocity": 102,
      "chip": "ym2612"
    },
    {
      "channel": 1,
      "note": 80,
      "start": 36.3669,
      "duration": 0.0319,
      "velocity": 127,
      "chip": "ym2612"
    },
    {
      "channel": 2,
      "note": 65,
      "start": 36.372,
      "duration": 0.0271,
      "velocity": 108,
      "chip": "ym2612"
    },
    {
      "channel": 1,
      "note": 75,
      "start": 36.3988,
      "duration": 0.0336,
      "velocity": 127,
      "chip": "ym2612"
    },
    {
      "channel": 2,
      "note": 67,
      "start": 36.3991,
      "duration": 0.0385,
      "velocity": 110,
      "chip": "ym2612"
    },
    {
      "channel": 0,
      "note": 58,
      "start": 36.4306,
      "duration": 0.0725,
      "velocity": 102,
      "chip": "ym2612"
    },
    {
      "channel": 1,
      "note": 73,
      "start": 36.4324,
      "duration": 0.0721,
      "velocity": 127,
      "chip": "ym2612"
    },
    {
      "channel": 2,
      "note": 65,
      "start": 36.4377,
      "duration": 0.0341,
      "velocity": 110,
      "chip": "ym2612"
    },
    {
      "channel": 3,
      "note": 53,
      "start": 36.4385,
      "duration": 1.0388,
      "velocity": 122,
      "chip": "ym2612"
    },
    {
      "channel": 4,
      "note": 51,
      "start": 36.4405,
      "duration": 1.0394,
      "velocity": 122,
      "chip": "ym2612"
    },
    {
      "channel": 2,
      "note": 67,
      "start": 36.4718,
      "duration": 0.0329,
      "velocity": 110,
      "chip": "ym2612"
    },
    {
      "channel": 0,
      "note": 60,
      "start": 36.5032,
      "duration": 0.0702,
      "velocity": 102,
      "chip": "ym2612"
    },
    {
      "channel": 1,
      "note": 80,
      "start": 36.5045,
      "duration": 0.0299,
      "velocity": 127,
      "chip": "ym2612"
    },
    {
      "channel": 2,
      "note": 70,
      "start": 36.5048,
      "duration": 0.03,
      "velocity": 110,
      "chip": "ym2612"
    },
    {
      "channel": 1,
      "note": 80,
      "start": 36.5345,
      "duration": 0.0323,
      "velocity": 127,
      "chip": "ym2612"
    },
    {
      "channel": 2,
      "note": 72,
      "start": 36.5348,
      "duration": 0.0324,
      "velocity": 110,
      "chip": "ym2612"
    },
    {
      "channel": 1,
      "note": 75,
      "start": 36.5669,
      "duration": 0.0634,
      "velocity": 127,
      "chip": "ym2612"
    },
    {
      "channel": 2,
      "note": 74,
      "start": 36.5672,
      "duration": 0.0319,
      "velocity": 110,
      "chip": "ym2612"
    },
    {
      "channel": 2,
      "note": 65,
      "start": 36.5991,
      "duration": 0.0315,
      "velocity": 110,
      "chip": "ym2612"
    },
    {
      "channel": 0,
      "note": 58,
      "start": 36.6286,
      "duration": 0.0656,
      "velocity": 102,
      "chip": "ym2612"
    },
    {
      "channel": 1,
      "note": 80,
      "start": 36.6304,
      "duration": 0.0322,
      "velocity": 127,
      "chip": "ym2612"
    },
    {
      "channel": 2,
      "note": 67,
      "start": 36.6354,
      "duration": 0.0274,
      "velocity": 110,
      "chip": "ym2612"
    },
    {
      "channel": 1,
      "note": 80,
      "start": 36.6626,
      "duration": 0.0332,
      "velocity": 127,
      "chip": "ym2612"
    },
    {
      "channel": 2,
      "note": 70,
      "start": 36.6629,
      "duration": 0.038,
      "velocity": 110,
      "chip": "ym2612"
    },
    {
      "channel": 0,
      "note": 60,
      "start": 36.6941,
      "duration": 0.0444,
      "velocity": 102,
      "chip": "ym2612"
    },
    {
      "channel": 1,
      "note": 73,
      "start": 36.6959,
      "duration": 0.063,
      "velocity": 127,
      "chip": "ym2612"
    },
    {
      "channel": 2,
      "note": 65,
      "start": 36.701,
      "duration": 0.0254,
      "velocity": 110,
      "chip": "ym2612"
    },
    {
      "channel": 2,
      "note": 67,
      "start": 36.7264,
      "duration": 0.0327,
      "velocity": 110,
      "chip": "ym2612"
    },
    {
      "channel": 0,
      "note": 52,
      "start": 36.7571,
      "duration": 0.1271,
      "velocity": 102,
      "chip": "ym2612"
    },
    {
      "channel": 1,
      "note": 73,
      "start": 36.7589,
      "duration": 0.0321,
      "velocity": 127,
      "chip": "ym2612"
    },
    {
      "channel": 2,
      "note": 70,
      "start": 36.7591,
      "duration": 0.0322,
      "velocity": 110,
      "chip": "ym2612"
    },
    {
      "channel": 1,
      "note": 80,
      "start": 36.791,
      "duration": 0.0315,
      "velocity": 127,
      "chip": "ym2612"
    },
    {
      "channel": 2,
      "note": 67,
      "start": 36.7913,
      "duration": 0.0315,
      "velocity": 110,
      "chip": "ym2612"
    },
    {
      "channel": 1,
      "note": 75,
      "start": 36.8225,
      "duration": 0.0635,
      "velocity": 127,
      "chip": "ym2612"
    },
    {
      "channel": 2,
      "note": 65,
      "start": 36.8228,
      "duration": 0.0315,
      "velocity": 110,
      "chip": "ym2612"
    },
    {
      "channel": 2,
      "note": 62,
      "start": 36.8543,
      "duration": 0.0369,
      "velocity": 110,
      "chip": "ym2612"
    },
    {
      "channel": 0,
      "note": 53,
      "start": 36.8843,
      "duration": 0.1372,
      "velocity": 102,
      "chip": "ym2612"
    },
    {
      "channel": 1,
      "note": 73,
      "start": 36.886,
      "duration": 0.0327,
      "velocity": 127,
      "chip": "ym2612"
    },
    {
      "channel": 2,
      "note": 60,
      "start": 36.8912,
      "duration": 0.0278,
      "velocity": 110,
      "chip": "ym2612"
    },
    {
      "channel": 1,
      "note": 80,
      "start": 36.9187,
      "duration": 0.0324,
      "velocity": 127,
      "chip": "ym2612"
    },
    {
      "channel": 2,
      "note": 62,
      "start": 36.919,
      "duration": 0.0325,
      "velocity": 110,
      "chip": "ym2612"
    },
    {
      "channel": 1,
      "note": 80,
      "start": 36.9512,
      "duration": 0.0391,
      "velocity": 127,
      "chip": "ym2612"
    },
    {
      "channel": 2,
      "note": 65,
      "start": 36.9515,
      "duration": 0.0391,
      "velocity": 110,
      "chip": "ym2612"
    },
    {
      "channel": 1,
      "note": 80,
      "start": 36.9904,
      "duration": 0.0328,
      "velocity": 127,
      "chip": "ym2612"
    },
    {
      "channel": 2,
      "note": 67,
      "start": 36.9906,
      "duration": 0.0329,
      "velocity": 110,
      "chip": "ym2612"
    },
    {
      "channel": 0,
      "note": 55,
      "start": 37.0215,
      "duration": 0.0634,
      "velocity": 102,
      "chip": "ym2612"
    },
    {
      "channel": 1,
      "note": 73,
      "start": 37.0232,
      "duration": 0.0315,
      "velocity": 127,
      "chip": "ym2612"
    },
    {
      "channel": 2,
      "note": 70,
      "start": 37.0235,
      "duration": 0.0316,
      "velocity": 110,
      "chip": "ym2612"
    },
    {
      "channel": 1,
      "note": 80,
      "start": 37.0548,
      "duration": 0.0315,
      "velocity": 127,
      "chip": "ym2612"
    },
    {
      "channel": 2,
      "note": 75,
      "start": 37.0551,
      "duration": 0.0363,
      "velocity": 110,
      "chip": "ym2612"
    },
    {
      "channel": 0,
      "note": 58,
      "start": 37.085,
      "duration": 0.0389,
      "velocity": 102,
      "chip": "ym2612"
    },
    {
      "channel": 1,
      "note": 75,
      "start": 37.0863,
      "duration": 0.0634,
      "velocity": 127,
      "chip": "ym2612"
    },
    {
      "channel": 2,
      "note": 74,
      "start": 37.0914,
      "duration": 0.0264,
      "velocity": 110,
      "chip": "ym2612"
    },
    {
      "channel": 2,
      "note": 77,
      "start": 37.1179,
      "duration": 0.037,
      "velocity": 110,
      "chip": "ym2612"
    },
    {
      "channel": 0,
      "note": 53,
      "start": 37.1481,
      "duration": 0.1288,
      "velocity": 102,
      "chip": "ym2612"
    },
    {
      "channel": 1,
      "note": 80,
      "start": 37.1499,
      "duration": 0.0307,
      "velocity": 127,
      "chip": "ym2612"
    },
    {
      "channel": 2,
      "note": 70,
      "start": 37.1549,
      "duration": 0.026,
      "velocity": 110,
      "chip": "ym2612"
    },
    {
      "channel": 1,
      "note": 75,
      "start": 37.1806,
      "duration": 0.0332,
      "velocity": 127,
      "chip": "ym2612"
    },
    {
      "channel": 2,
      "note": 74,
      "start": 37.1809,
      "duration": 0.0331,
      "velocity": 110,
      "chip": "ym2612"
    },
    {
      "channel": 1,
      "note": 73,
      "start": 37.2138,
      "duration": 0.032,
      "velocity": 127,
      "chip": "ym2612"
    },
    {
      "channel": 2,
      "note": 67,
      "start": 37.214,
      "duration": 0.0321,
      "velocity": 110,
      "chip": "ym2612"
    },
    {
      "channel": 1,
      "note": 75,
      "start": 37.2459,
      "duration": 0.0327,
      "velocity": 127,
      "chip": "ym2612"
    },
    {
      "channel": 2,
      "note": 65,
      "start": 37.2461,
      "duration": 0.0328,
      "velocity": 110,
      "chip": "ym2612"
    },
    {
      "channel": 0,
      "note": 55,
      "start": 37.277,
      "duration": 0.0634,
      "velocity": 102,
      "chip": "ym2612"
    },
    {
      "channel": 1,
      "note": 73,
      "start": 37.2787,
      "duration": 0.0321,
      "velocity": 127,
      "chip": "ym2612"
    },
    {
      "channel": 2,
      "note": 67,
      "start": 37.2789,
      "duration": 0.0322,
      "velocity": 110,
      "chip": "ym2612"
    },
    {
      "channel": 1,
      "note": 80,
      "start": 37.3109,
      "duration": 0.0309,
      "velocity": 127,
      "chip": "ym2612"
    },
    {
      "channel": 2,
      "note": 70,
      "start": 37.3111,
      "duration": 0.0358,
      "velocity": 110,
      "chip": "ym2612"
    },
    {
      "channel": 0,
      "note": 58,
      "start": 37.3404,
      "duration": 0.039,
      "velocity": 102,
      "chip": "ym2612"
    },
    {
      "channel": 1,
      "note": 75,
      "start": 37.3418,
      "duration": 0.0637,
      "velocity": 127,
      "chip": "ym2612"
    },
    {
      "channel": 2,
      "note": 72,
      "start": 37.3469,
      "duration": 0.0265,
      "velocity": 110,
      "chip": "ym2612"
    },
    {
      "channel": 2,
      "note": 74,
      "start": 37.3734,
      "duration": 0.0373,
      "velocity": 110,
      "chip": "ym2612"
    },
    {
      "channel": 0,
      "note": 55,
      "start": 37.4038,
      "duration": 0.0645,
      "velocity": 102,
      "chip": "ym2612"
    },
    {
      "channel": 1,
      "note": 80,
      "start": 37.4055,
      "duration": 0.0312,
      "velocity": 127,
      "chip": "ym2612"
    },
    {
      "channel": 2,
      "note": 65,
      "start": 37.4107,
      "duration": 0.0263,
      "velocity": 110,
      "chip": "ym2612"
    },
    {
      "channel": 1,
      "note": 75,
      "start": 37.4368,
      "duration": 0.0332,
      "velocity": 127,
      "chip": "ym2612"
    },
    {
      "channel": 2,
      "note": 67,
      "start": 37.437,
      "duration": 0.0383,
      "velocity": 110,
      "chip": "ym2612"
    },
    {
      "channel": 0,
      "note": 58,
      "start": 37.4683,
      "duration": 0.0726,
      "velocity": 102,
      "chip": "ym2612"
    },
    {
      "channel": 1,
      "note": 73,
      "start": 37.4701,
      "duration": 0.0722,
      "velocity": 127,
      "chip": "ym2612"
    },
    {
      "channel": 2,
      "note": 65,
      "start": 37.4754,
      "duration": 0.0346,
      "velocity": 110,
      "chip": "ym2612"
    },
    {
      "channel": 3,
      "note": 55,
      "start": 37.4773,
      "duration": 1.0405,
      "velocity": 122,
      "chip": "ym2612"
    },
    {
      "channel": 4,
      "note": 58,
      "start": 37.4799,
      "duration": 1.04,
      "velocity": 122,
      "chip": "ym2612"
    },
    {
      "channel": 2,
      "note": 67,
      "start": 37.51,
      "duration": 0.0326,
      "velocity": 110,
      "chip": "ym2612"
    },
    {
      "channel": 0,
      "note": 60,
      "start": 37.541,
      "duration": 0.0707,
      "velocity": 102,
      "chip": "ym2612"
    },
    {
      "channel": 1,
      "note": 80,
      "start": 37.5424,
      "duration": 0.0306,
      "velocity": 127,
      "chip": "ym2612"
    },
    {
      "channel": 2,
      "note": 70,
      "start": 37.5426,
      "duration": 0.0307,
      "velocity": 110,
      "chip": "ym2612"
    },
    {
      "channel": 1,
      "note": 80,
      "start": 37.573,
      "duration": 0.0323,
      "velocity": 127,
      "chip": "ym2612"
    },
    {
      "channel": 2,
      "note": 72,
      "start": 37.5733,
      "duration": 0.0324,
      "velocity": 110,
      "chip": "ym2612"
    },
    {
      "channel": 1,
      "note": 75,
      "start": 37.6054,
      "duration": 0.0639,
      "velocity": 127,
      "chip": "ym2612"
    },
    {
      "channel": 2,
      "note": 74,
      "start": 37.6057,
      "duration": 0.0321,
      "velocity": 110,
      "chip": "ym2612"
    },
    {
      "channel": 2,
      "note": 65,
      "start": 37.6378,
      "duration": 0.0367,
      "velocity": 110,
      "chip": "ym2612"
    },
    {
      "channel": 0,
      "note": 58,
      "start": 37.6677,
      "duration": 0.0649,
      "velocity": 102,
      "chip": "ym2612"
    },
    {
      "channel": 1,
      "note": 80,
      "start": 37.6694,
      "duration": 0.0315,
      "velocity": 127,
      "chip": "ym2612"
    },
    {
      "channel": 2,
      "note": 67,
      "start": 37.6745,
      "duration": 0.0267,
      "velocity": 110,
      "chip": "ym2612"
    },
    {
      "channel": 1,
      "note": 80,
      "start": 37.701,
      "duration": 0.0329,
      "velocity": 127,
      "chip": "ym2612"
    },
    {
      "channel": 2,
      "note": 70,
      "start": 37.7013,
      "duration": 0.0376,
      "velocity": 110,
      "chip": "ym2612"
    },
    {
      "channel": 0,
      "note": 60,
      "start": 37.7326,
      "duration": 0.0436,
      "velocity": 102,
      "chip": "ym2612"
    },
    {
      "channel": 1,
      "note": 73,
      "start": 37.7339,
      "duration": 0.0624,
      "velocity": 127,
      "chip": "ym2612"
    },
    {
      "channel": 2,
      "note": 65,
      "start": 37.7389,
      "duration": 0.0252,
      "velocity": 110,
      "chip": "ym2612"
    },
    {
      "channel": 2,
      "note": 67,
      "start": 37.7641,
      "duration": 0.0324,
      "velocity": 110,
      "chip": "ym2612"
    },
    {
      "channel": 0,
      "note": 52,
      "start": 37.7946,
      "duration": 0.1282,
      "velocity": 102,
      "chip": "ym2612"
    },
    {
      "channel": 1,
      "note": 73,
      "start": 37.7964,
      "duration": 0.0325,
      "velocity": 127,
      "chip": "ym2612"
    },
    {
      "channel": 2,
      "note": 70,
      "start": 37.7966,
      "duration": 0.0326,
      "velocity": 110,
      "chip": "ym2612"
    },
    {
      "channel": 1,
      "note": 80,
      "start": 37.8289,
      "duration": 0.0313,
      "velocity": 127,
      "chip": "ym2612"
    },
    {
      "channel": 2,
      "note": 67,
      "start": 37.8292,
      "duration": 0.0313,
      "velocity": 110,
      "chip": "ym2612"
    },
    {
      "channel": 1,
      "note": 75,
      "start": 37.8603,
      "duration": 0.0638,
      "velocity": 127,
      "chip": "ym2612"
    },
    {
      "channel": 2,
      "note": 65,
      "start": 37.8605,
      "duration": 0.0315,
      "velocity": 110,
      "chip": "ym2612"
    },
    {
      "channel": 2,
      "note": 62,
      "start": 37.8921,
      "duration": 0.0372,
      "velocity": 110,
      "chip": "ym2612"
    },
    {
      "channel": 0,
      "note": 53,
      "start": 37.9229,
      "duration": 0.1358,
      "velocity": 102,
      "chip": "ym2612"
    },
    {
      "channel": 1,
      "note": 73,
      "start": 37.9241,
      "duration": 0.0322,
      "velocity": 127,
      "chip": "ym2612"
    },
    {
      "channel": 2,
      "note": 60,
      "start": 37.9293,
      "duration": 0.0274,
      "velocity": 110,
      "chip": "ym2612"
    },
    {
      "channel": 1,
      "note": 80,
      "start": 37.9564,
      "duration": 0.0325,
      "velocity": 127,
      "chip": "ym2612"
    },
    {
      "channel": 2,
      "note": 62,
      "start": 37.9567,
      "duration": 0.0325,
      "velocity": 110,
      "chip": "ym2612"
    },
    {
      "channel": 1,
      "note": 80,
      "start": 37.9889,
      "duration": 0.0394,
      "velocity": 127,
      "chip": "ym2612"
    },
    {
      "channel": 2,
      "note": 65,
      "start": 37.9892,
      "duration": 0.0394,
      "velocity": 110,
      "chip": "ym2612"
    },
    {
      "channel": 1,
      "note": 80,
      "start": 38.0284,
      "duration": 0.032,
      "velocity": 127,
      "chip": "ym2612"
    },
    {
      "channel": 2,
      "note": 67,
      "start": 38.0286,
      "duration": 0.032,
      "velocity": 110,
      "chip": "ym2612"
    },
    {
      "channel": 0,
      "note": 55,
      "start": 38.0587,
      "duration": 0.0636,
      "velocity": 102,
      "chip": "ym2612"
    },
    {
      "channel": 1,
      "note": 73,
      "start": 38.0604,
      "duration": 0.0322,
      "velocity": 127,
      "chip": "ym2612"
    },
    {
      "channel": 2,
      "note": 70,
      "start": 38.0607,
      "duration": 0.0323,
      "velocity": 110,
      "chip": "ym2612"
    },
    {
      "channel": 1,
      "note": 80,
      "start": 38.0927,
      "duration": 0.0313,
      "velocity": 127,
      "chip": "ym2612"
    },
    {
      "channel": 2,
      "note": 75,
      "start": 38.093,
      "duration": 0.0362,
      "velocity": 110,
      "chip": "ym2612"
    },
    {
      "channel": 0,
      "note": 58,
      "start": 38.1223,
      "duration": 0.0393,
      "velocity": 102,
      "chip": "ym2612"
    },
    {
      "channel": 1,
      "note": 75,
      "start": 38.1241,
      "duration": 0.0639,
      "velocity": 127,
      "chip": "ym2612"
    },
    {
      "channel": 2,
      "note": 74,
      "start": 38.1292,
      "duration": 0.0263,
      "velocity": 110,
      "chip": "ym2612"
    },
    {
      "channel": 2,
      "note": 77,
      "start": 38.1555,
      "duration": 0.0377,
      "velocity": 110,
      "chip": "ym2612"
    },
    {
      "channel": 0,
      "note": 53,
      "start": 38.1863,
      "duration": 0.1264,
      "velocity": 102,
      "chip": "ym2612"
    },
    {
      "channel": 1,
      "note": 80,
      "start": 38.188,
      "duration": 0.0295,
      "velocity": 127,
      "chip": "ym2612"
    },
    {
      "channel": 2,
      "note": 70,
      "start": 38.1932,
      "duration": 0.0247,
      "velocity": 110,
      "chip": "ym2612"
    },
    {
      "channel": 1,
      "note": 80,
      "start": 38.2176,
      "duration": 0.0322,
      "velocity": 127,
      "chip": "ym2612"
    },
    {
      "channel": 2,
      "note": 74,
      "start": 38.2179,
      "duration": 0.0323,
      "velocity": 110,
      "chip": "ym2612"
    },
    {
      "channel": 1,
      "note": 75,
      "start": 38.2499,
      "duration": 0.0322,
      "velocity": 127,
      "chip": "ym2612"
    },
    {
      "channel": 2,
      "note": 67,
      "start": 38.2502,
      "duration": 0.0322,
      "velocity": 110,
      "chip": "ym2612"
    },
    {
      "channel": 1,
      "note": 75,
      "start": 38.2822,
      "duration": 0.0323,
      "velocity": 127,
      "chip": "ym2612"
    },
    {
      "channel": 2,
      "note": 65,
      "start": 38.2873,
      "duration": 0.0323,
      "velocity": 110,
      "chip": "ym2612"
    },
    {
      "channel": 0,
      "note": 55,
      "start": 38.3127,
      "duration": 0.0649,
      "velocity": 102,
      "chip": "ym2612"
    },
    {
      "channel": 1,
      "note": 73,
      "start": 38.3145,
      "duration": 0.0325,
      "velocity": 127,
      "chip": "ym2612"
    },
    {
      "channel": 2,
      "note": 67,
      "start": 38.3196,
      "duration": 0.0277,
      "velocity": 110,
      "chip": "ym2612"
    },
    {
      "channel": 1,
      "note": 73,
      "start": 38.3471,
      "duration": 0.0322,
      "velocity": 127,
      "chip": "ym2612"
    },
    {
      "channel": 2,
      "note": 70,
      "start": 38.3474,
      "duration": 0.0372,
      "velocity": 110,
      "chip": "ym2612"
    },
    {
      "channel": 0,
      "note": 58,
      "start": 38.3776,
      "duration": 0.041,
      "velocity": 102,
      "chip": "ym2612"
    },
    {
      "channel": 1,
      "note": 75,
      "start": 38.3794,
      "duration": 0.0329,
      "velocity": 127,
      "chip": "ym2612"
    },
    {
      "channel": 2,
      "note": 72,
      "start": 38.3846,
      "duration": 0.0281,
      "velocity": 110,
      "chip": "ym2612"
    },
    {
      "channel": 1,
      "note": 75,
      "start": 38.4124,
      "duration": 0.0328,
      "velocity": 127,
      "chip": "ym2612"
    },
    {
      "channel": 2,
      "note": 74,
      "start": 38.4127,
      "duration": 0.0376,
      "velocity": 110,
      "chip": "ym2612"
    },
    {
      "channel": 0,
      "note": 55,
      "start": 38.4435,
      "duration": 0.064,
      "velocity": 102,
      "chip": "ym2612"
    },
    {
      "channel": 1,
      "note": 80,
      "start": 38.4452,
      "duration": 0.0306,
      "velocity": 127,
      "chip": "ym2612"
    },
    {
      "channel": 2,
      "note": 65,
      "start": 38.4502,
      "duration": 0.0259,
      "velocity": 110,
      "chip": "ym2612"
    },
    {
      "channel": 1,
      "note": 75,
      "start": 38.4759,
      "duration": 0.0382,
      "velocity": 127,
      "chip": "ym2612"
    },
    {
      "channel": 2,
      "note": 67,
      "start": 38.4761,
      "duration": 0.0388,
      "velocity": 82,
      "chip": "ym2612"
    },
    {
      "channel": 0,
      "note": 55,
      "start": 38.5075,
      "duration": 0.0736,
      "velocity": 102,
      "chip": "ym2612"
    },
    {
      "channel": 1,
      "note": 73,
      "start": 38.5142,
      "duration": 0.0683,
      "velocity": 127,
      "chip": "ym2612"
    },
    {
      "channel": 2,
      "note": 62,
      "start": 38.515,
      "duration": 0.0355,
      "velocity": 83,
      "chip": "ym2612"
    },
    {
      "channel": 3,
      "note": 52,
      "start": 38.5179,
      "duration": 1.0431,
      "velocity": 122,
      "chip": "ym2612"
    },
    {
      "channel": 4,
      "note": 50,
      "start": 38.52,
      "duration": 1.043,
      "velocity": 122,
      "chip": "ym2612"
    },
    {
      "channel": 2,
      "note": 64,
      "start": 38.5505,
      "duration": 0.0323,
      "velocity": 83,
      "chip": "ym2612"
    },
    {
      "channel": 0,
      "note": 57,
      "start": 38.5812,
      "duration": 0.0707,
      "velocity": 102,
      "chip": "ym2612"
    },
    {
      "channel": 1,
      "note": 80,
      "start": 38.5826,
      "duration": 0.0307,
      "velocity": 127,
      "chip": "ym2612"
    },
    {
      "channel": 2,
      "note": 67,
      "start": 38.5829,
      "duration": 0.0308,
      "velocity": 84,
      "chip": "ym2612"
    },
    {
      "channel": 1,
      "note": 80,
      "start": 38.6134,
      "duration": 0.0322,
      "velocity": 127,
      "chip": "ym2612"
    },
    {
      "channel": 2,
      "note": 69,
      "start": 38.6137,
      "duration": 0.0323,
      "velocity": 84,
      "chip": "ym2612"
    },
    {
      "channel": 1,
      "note": 75,
      "start": 38.6457,
      "duration": 0.0645,
      "velocity": 127,
      "chip": "ym2612"
    },
    {
      "channel": 2,
      "note": 71,
      "start": 38.646,
      "duration": 0.0321,
      "velocity": 85,
      "chip": "ym2612"
    },
    {
      "channel": 2,
      "note": 62,
      "start": 38.6782,
      "duration": 0.0373,
      "velocity": 85,
      "chip": "ym2612"
    },
    {
      "channel": 0,
      "note": 55,
      "start": 38.7084,
      "duration": 0.0649,
      "velocity": 102,
      "chip": "ym2612"
    },
    {
      "channel": 1,
      "note": 80,
      "start": 38.7102,
      "duration": 0.0317,
      "velocity": 127,
      "chip": "ym2612"
    },
    {
      "channel": 2,
      "note": 64,
      "start": 38.7155,
      "duration": 0.0268,
      "velocity": 85,
      "chip": "ym2612"
    },
    {
      "channel": 1,
      "note": 80,
      "start": 38.742,
      "duration": 0.0331,
      "velocity": 127,
      "chip": "ym2612"
    },
    {
      "channel": 2,
      "note": 67,
      "start": 38.7424,
      "duration": 0.0378,
      "velocity": 85,
      "chip": "ym2612"
    },
    {
      "channel": 0,
      "note": 57,
      "start": 38.7734,
      "duration": 0.045,
      "velocity": 102,
      "chip": "ym2612"
    },
    {
      "channel": 1,
      "note": 73,
      "start": 38.7751,
      "duration": 0.0634,
      "velocity": 127,
      "chip": "ym2612"
    },
    {
      "channel": 2,
      "note": 62,
      "start": 38.7803,
      "duration": 0.0261,
      "velocity": 85,
      "chip": "ym2612"
    },
    {
      "channel": 2,
      "note": 64,
      "start": 38.8065,
      "duration": 0.0323,
      "velocity": 86,
      "chip": "ym2612"
    },
    {
      "channel": 0,
      "note": 49,
      "start": 38.8368,
      "duration": 0.1287,
      "velocity": 102,
      "chip": "ym2612"
    },
    {
      "channel": 1,
      "note": 73,
      "start": 38.8385,
      "duration": 0.033,
      "velocity": 127,
      "chip": "ym2612"
    },
    {
      "channel": 2,
      "note": 67,
      "start": 38.8389,
      "duration": 0.033,
      "velocity": 86,
      "chip": "ym2612"
    },
    {
      "channel": 1,
      "note": 80,
      "start": 38.8716,
      "duration": 0.0317,
      "velocity": 127,
      "chip": "ym2612"
    },
    {
      "channel": 2,
      "note": 64,
      "start": 38.8719,
      "duration": 0.0317,
      "velocity": 88,
      "chip": "ym2612"
    },
    {
      "channel": 1,
      "note": 75,
      "start": 38.9033,
      "duration": 0.0639,
      "velocity": 127,
      "chip": "ym2612"
    },
    {
      "channel": 2,
      "note": 62,
      "start": 38.9037,
      "duration": 0.0311,
      "velocity": 88,
      "chip": "ym2612"
    },
    {
      "channel": 2,
      "note": 59,
      "start": 38.9348,
      "duration": 0.0376,
      "velocity": 88,
      "chip": "ym2612"
    },
    {
      "channel": 0,
      "note": 50,
      "start": 38.9655,
      "duration": 0.1362,
      "velocity": 102,
      "chip": "ym2612"
    },
    {
      "channel": 1,
      "note": 73,
      "start": 38.9673,
      "duration": 0.0317,
      "velocity": 127,
      "chip": "ym2612"
    },
    {
      "channel": 2,
      "note": 57,
      "start": 38.9724,
      "duration": 0.027,
      "velocity": 88,
      "chip": "ym2612"
    },
    {
      "channel": 1,
      "note": 80,
      "start": 38.9991,
      "duration": 0.0325,
      "velocity": 127,
      "chip": "ym2612"
    },
    {
      "channel": 2,
      "note": 59,
      "start": 38.9995,
      "duration": 0.0325,
      "velocity": 89,
      "chip": "ym2612"
    },
    {
      "channel": 1,
      "note": 80,
      "start": 39.0317,
      "duration": 0.0399,
      "velocity": 127,
      "chip": "ym2612"
    },
    {
      "channel": 2,
      "note": 62,
      "start": 39.032,
      "duration": 0.04,
      "velocity": 89,
      "chip": "ym2612"
    },
    {
      "channel": 1,
      "note": 80,
      "start": 39.0717,
      "duration": 0.0318,
      "velocity": 127,
      "chip": "ym2612"
    },
    {
      "channel": 2,
      "note": 64,
      "start": 39.072,
      "duration": 0.0318,
      "velocity": 89,
      "chip": "ym2612"
    },
    {
      "channel": 0,
      "note": 52,
      "start": 39.1018,
      "duration": 0.0651,
      "velocity": 102,
      "chip": "ym2612"
    },
    {
      "channel": 1,
      "note": 73,
      "start": 39.1035,
      "duration": 0.0326,
      "velocity": 127,
      "chip": "ym2612"
    },
    {
      "channel": 2,
      "note": 67,
      "start": 39.1039,
      "duration": 0.0326,
      "velocity": 89,
      "chip": "ym2612"
    },
    {
      "channel": 1,
      "note": 80,
      "start": 39.1362,
      "duration": 0.0324,
      "velocity": 127,
      "chip": "ym2612"
    },
    {
      "channel": 2,
      "note": 72,
      "start": 39.1365,
      "duration": 0.0373,
      "velocity": 91,
      "chip": "ym2612"
    },
    {
      "channel": 0,
      "note": 55,
      "start": 39.1669,
      "duration": 0.0392,
      "velocity": 102,
      "chip": "ym2612"
    },
    {
      "channel": 1,
      "note": 75,
      "start": 39.1687,
      "duration": 0.0638,
      "velocity": 127,
      "chip": "ym2612"
    },
    {
      "channel": 2,
      "note": 71,
      "start": 39.1739,
      "duration": 0.0261,
      "velocity": 91,
      "chip": "ym2612"
    },
    {
      "channel": 2,
      "note": 74,
      "start": 39.2,
      "duration": 0.0378,
      "velocity": 92,
      "chip": "ym2612"
    },
    {
      "channel": 0,
      "note": 50,
      "start": 39.2308,
      "duration": 0.1288,
      "velocity": 102,
      "chip": "ym2612"
    },
    {
      "channel": 1,
      "note": 80,
      "start": 39.2325,
      "duration": 0.031,
      "velocity": 127,
      "chip": "ym2612"
    },
    {
      "channel": 2,
      "note": 67,
      "start": 39.2379,
      "duration": 0.031,
      "velocity": 92,
      "chip": "ym2612"
    },
    {
      "channel": 1,
      "note": 75,
      "start": 39.2636,
      "duration": 0.0331,
      "velocity": 127,
      "chip": "ym2612"
    },
    {
      "channel": 2,
      "note": 71,
      "start": 39.2689,
      "duration": 0.033,
      "velocity": 92,
      "chip": "ym2612"
    },
    {
      "channel": 1,
      "note": 73,
      "start": 39.2967,
      "duration": 0.0329,
      "velocity": 127,
      "chip": "ym2612"
    },
    {
      "channel": 2,
      "note": 64,
      "start": 39.302,
      "duration": 0.0279,
      "velocity": 92,
      "chip": "ym2612"
    },
    {
      "channel": 1,
      "note": 75,
      "start": 39.3297,
      "duration": 0.0317,
      "velocity": 127,
      "chip": "ym2612"
    },
    {
      "channel": 2,
      "note": 62,
      "start": 39.33,
      "duration": 0.0317,
      "velocity": 92,
      "chip": "ym2612"
    },
    {
      "channel": 0,
      "note": 52,
      "start": 39.3596,
      "duration": 0.0653,
      "velocity": 102,
      "chip": "ym2612"
    },
    {
      "channel": 1,
      "note": 73,
      "start": 39.3614,
      "duration": 0.0324,
      "velocity": 127,
      "chip": "ym2612"
    },
    {
      "channel": 2,
      "note": 64,
      "start": 39.3617,
      "duration": 0.0324,
      "velocity": 93,
      "chip": "ym2612"
    },
    {
      "channel": 1,
      "note": 80,
      "start": 39.3939,
      "duration": 0.0324,
      "velocity": 127,
      "chip": "ym2612"
    },
    {
      "channel": 2,
      "note": 67,
      "start": 39.3942,
      "duration": 0.0372,
      "velocity": 93,
      "chip": "ym2612"
    },
    {
      "channel": 0,
      "note": 55,
      "start": 39.425,
      "duration": 0.0384,
      "velocity": 102,
      "chip": "ym2612"
    },
    {
      "channel": 1,
      "note": 75,
      "start": 39.4263,
      "duration": 0.064,
      "velocity": 127,
      "chip": "ym2612"
    },
    {
      "channel": 2,
      "note": 69,
      "start": 39.4315,
      "duration": 0.0258,
      "velocity": 95,
      "chip": "ym2612"
    },
    {
      "channel": 2,
      "note": 71,
      "start": 39.4573,
      "duration": 0.0382,
      "velocity": 95,
      "chip": "ym2612"
    },
    {
      "channel": 0,
      "note": 52,
      "start": 39.4887,
      "duration": 0.0644,
      "velocity": 102,
      "chip": "ym2612"
    },
    {
      "channel": 1,
      "note": 80,
      "start": 39.4904,
      "duration": 0.0314,
      "velocity": 127,
      "chip": "ym2612"
    },
    {
      "channel": 2,
      "note": 62,
      "start": 39.4956,
      "duration": 0.0265,
      "velocity": 95,
      "chip": "ym2612"
    },
    {
      "channel": 1,
      "note": 75,
      "start": 39.5219,
      "duration": 0.0331,
      "velocity": 127,
      "chip": "ym2612"
    },
    {
      "channel": 2,
      "note": 64,
      "start": 39.5222,
      "duration": 0.038,
      "velocity": 95,
      "chip": "ym2612"
    },
    {
      "channel": 0,
      "note": 55,
      "start": 39.5531,
      "duration": 0.0727,
      "velocity": 102,
      "chip": "ym2612"
    },
    {
      "channel": 1,
      "note": 73,
      "start": 39.5549,
      "duration": 0.0722,
      "velocity": 127,
      "chip": "ym2612"
    },
    {
      "channel": 2,
      "note": 62,
      "start": 39.5602,
      "duration": 0.0349,
      "velocity": 96,
      "chip": "ym2612"
    },
    {
      "channel": 3,
      "note": 52,
      "start": 39.5611,
      "duration": 1.0471,
      "velocity": 122,
      "chip": "ym2612"
    },
    {
      "channel": 4,
      "note": 53,
      "start": 39.563,
      "duration": 1.0471,
      "velocity": 122,
      "chip": "ym2612"
    },
    {
      "channel": 2,
      "note": 64,
      "start": 39.5952,
      "duration": 0.0323,
      "velocity": 96,
      "chip": "ym2612"
    },
    {
      "channel": 0,
      "note": 57,
      "start": 39.6259,
      "duration": 0.0715,
      "velocity": 102,
      "chip": "ym2612"
    },
    {
      "channel": 1,
      "note": 80,
      "start": 39.6272,
      "duration": 0.031,
      "velocity": 127,
      "chip": "ym2612"
    },
    {
      "channel": 2,
      "note": 67,
      "start": 39.6275,
      "duration": 0.031,
      "velocity": 96,
      "chip": "ym2612"
    },
    {
      "channel": 1,
      "note": 80,
      "start": 39.6583,
      "duration": 0.033,
      "velocity": 127,
      "chip": "ym2612"
    },
    {
      "channel": 2,
      "note": 69,
      "start": 39.6586,
      "duration": 0.033,
      "velocity": 96,
      "chip": "ym2612"
    },
    {
      "channel": 1,
      "note": 75,
      "start": 39.6913,
      "duration": 0.0643,
      "velocity": 127,
      "chip": "ym2612"
    },
    {
      "channel": 2,
      "note": 71,
      "start": 39.6917,
      "duration": 0.0314,
      "velocity": 98,
      "chip": "ym2612"
    },
    {
      "channel": 2,
      "note": 62,
      "start": 39.7231,
      "duration": 0.0377,
      "velocity": 98,
      "chip": "ym2612"
    },
    {
      "channel": 0,
      "note": 55,
      "start": 39.754,
      "duration": 0.0649,
      "velocity": 102,
      "chip": "ym2612"
    },
    {
      "channel": 1,
      "note": 80,
      "start": 39.7557,
      "duration": 0.0315,
      "velocity": 127,
      "chip": "ym2612"
    },
    {
      "channel": 2,
      "note": 64,
      "start": 39.7608,
      "duration": 0.0267,
      "velocity": 98,
      "chip": "ym2612"
    },
    {
      "channel": 1,
      "note": 80,
      "start": 39.7873,
      "duration": 0.0333,
      "velocity": 127,
      "chip": "ym2612"
    },
    {
      "channel": 2,
      "note": 67,
      "start": 39.7876,
      "duration": 0.0381,
      "velocity": 98,
      "chip": "ym2612"
    },
    {
      "channel": 0,
      "note": 57,
      "start": 39.8189,
      "duration": 0.0453,
      "velocity": 102,
      "chip": "ym2612"
    },
    {
      "channel": 1,
      "note": 73,
      "start": 39.8206,
      "duration": 0.0635,
      "velocity": 127,
      "chip": "ym2612"
    },
    {
      "channel": 2,
      "note": 62,
      "start": 39.8257,
      "duration": 0.0264,
      "velocity": 99,
      "chip": "ym2612"
    },
    {
      "channel": 2,
      "note": 64,
      "start": 39.8522,
      "duration": 0.0321,
      "velocity": 99,
      "chip": "ym2612"
    },
    {
      "channel": 0,
      "note": 49,
      "start": 39.8823,
      "duration": 0.1289,
      "velocity": 102,
      "chip": "ym2612"
    },
    {
      "channel": 1,
      "note": 73,
      "start": 39.8841,
      "duration": 0.0331,
      "velocity": 127,
      "chip": "ym2612"
    },
    {
      "channel": 2,
      "note": 67,
      "start": 39.8844,
      "duration": 0.0332,
      "velocity": 100,
      "chip": "ym2612"
    },
    {
      "channel": 1,
      "note": 80,
      "start": 39.9173,
      "duration": 0.0318,
      "velocity": 127,
      "chip": "ym2612"
    },
    {
      "channel": 2,
      "note": 64,
      "start": 39.9176,
      "duration": 0.0318,
      "velocity": 100,
      "chip": "ym2612"
    },
    {
      "channel": 1,
      "note": 75,
      "start": 39.9492,
      "duration": 0.0638,
      "velocity": 127,
      "chip": "ym2612"
    },
    {
      "channel": 2,
      "note": 62,
      "start": 39.9495,
      "duration": 0.0306,
      "velocity": 101,
      "chip": "ym2612"
    },
    {
      "channel": 2,
      "note": 59,
      "start": 39.9802,
      "duration": 0.0379,
      "velocity": 101,
      "chip": "ym2612"
    },
    {
      "channel": 0,
      "note": 50,
      "start": 40.0113,
      "duration": 0.137,
      "velocity": 102,
      "chip": "ym2612"
    },
    {
      "channel": 1,
      "note": 73,
      "start": 40.0129,
      "duration": 0.0324,
      "velocity": 127,
      "chip": "ym2612"
    },
    {
      "channel": 2,
      "note": 57,
      "start": 40.0181,
      "duration": 0.0276,
      "velocity": 101,
      "chip": "ym2612"
    },
    {
      "channel": 1,
      "note": 80,
      "start": 40.0454,
      "duration": 0.0322,
      "velocity": 127,
      "chip": "ym2612"
    },
    {
      "channel": 2,
      "note": 59,
      "start": 40.0458,
      "duration": 0.0322,
      "velocity": 101,
      "chip": "ym2612"
    },
    {
      "channel": 1,
      "note": 80,
      "start": 40.0778,
      "duration": 0.0403,
      "velocity": 127,
      "chip": "ym2612"
    },
    {
      "channel": 2,
      "note": 62,
      "start": 40.0781,
      "duration": 0.0403,
      "velocity": 103,
      "chip": "ym2612"
    },
    {
      "channel": 1,
      "note": 80,
      "start": 40.1182,
      "duration": 0.0319,
      "velocity": 127,
      "chip": "ym2612"
    },
    {
      "channel": 2,
      "note": 64,
      "start": 40.1185,
      "duration": 0.0319,
      "velocity": 103,
      "chip": "ym2612"
    },
    {
      "channel": 0,
      "note": 52,
      "start": 40.1483,
      "duration": 0.0651,
      "velocity": 102,
      "chip": "ym2612"
    },
    {
      "channel": 1,
      "note": 73,
      "start": 40.1501,
      "duration": 0.0324,
      "velocity": 127,
      "chip": "ym2612"
    },
    {
      "channel": 2,
      "note": 67,
      "start": 40.1504,
      "duration": 0.0323,
      "velocity": 103,
      "chip": "ym2612"
    },
    {
      "channel": 1,
      "note": 80,
      "start": 40.1825,
      "duration": 0.0327,
      "velocity": 127,
      "chip": "ym2612"
    },
    {
      "channel": 2,
      "note": 72,
      "start": 40.1828,
      "duration": 0.0377,
      "velocity": 103,
      "chip": "ym2612"
    },
    {
      "channel": 0,
      "note": 55,
      "start": 40.2135,
      "duration": 0.0389,
      "velocity": 102,
      "chip": "ym2612"
    },
    {
      "channel": 1,
      "note": 75,
      "start": 40.2153,
      "duration": 0.0638,
      "velocity": 127,
      "chip": "ym2612"
    },
    {
      "channel": 2,
      "note": 71,
      "start": 40.2205,
      "duration": 0.0258,
      "velocity": 105,
      "chip": "ym2612"
    },
    {
      "channel": 2,
      "note": 74,
      "start": 40.2463,
      "duration": 0.0379,
      "velocity": 105,
      "chip": "ym2612"
    },
    {
      "channel": 0,
      "note": 50,
      "start": 40.2774,
      "duration": 0.1272,
      "velocity": 102,
      "chip": "ym2612"
    },
    {
      "channel": 1,
      "note": 80,
      "start": 40.2792,
      "duration": 0.0298,
      "velocity": 127,
      "chip": "ym2612"
    },
    {
      "channel": 2,
      "note": 67,
      "start": 40.2844,
      "duration": 0.0249,
      "velocity": 105,
      "chip": "ym2612"
    },
    {
      "channel": 1,
      "note": 80,
      "start": 40.309,
      "duration": 0.0314,
      "velocity": 127,
      "chip": "ym2612"
    },
    {
      "channel": 2,
      "note": 71,
      "start": 40.3094,
      "duration": 0.0316,
      "velocity": 106,
      "chip": "ym2612"
    },
    {
      "channel": 1,
      "note": 75,
      "start": 40.3405,
      "duration": 0.0335,
      "velocity": 127,
      "chip": "ym2612"
    },
    {
      "channel": 2,
      "note": 64,
      "start": 40.341,
      "duration": 0.0382,
      "velocity": 106,
      "chip": "ym2612"
    },
    {
      "channel": 1,
      "note": 75,
      "start": 40.374,
      "duration": 0.0324,
      "velocity": 127,
      "chip": "ym2612"
    },
    {
      "channel": 2,
      "note": 62,
      "start": 40.3793,
      "duration": 0.0324,
      "velocity": 107,
      "chip": "ym2612"
    },
    {
      "channel": 0,
      "note": 52,
      "start": 40.4047,
      "duration": 0.0655,
      "velocity": 102,
      "chip": "ym2612"
    },
    {
      "channel": 1,
      "note": 73,
      "start": 40.4065,
      "duration": 0.0321,
      "velocity": 127,
      "chip": "ym2612"
    },
    {
      "channel": 2,
      "note": 64,
      "start": 40.4118,
      "duration": 0.0321,
      "velocity": 107,
      "chip": "ym2612"
    },
    {
      "channel": 1,
      "note": 73,
      "start": 40.4386,
      "duration": 0.0382,
      "velocity": 127,
      "chip": "ym2612"
    },
    {
      "channel": 2,
      "note": 67,
      "start": 40.4439,
      "duration": 0.0334,
      "velocity": 108,
      "chip": "ym2612"
    },
    {
      "channel": 0,
      "note": 55,
      "start": 40.4703,
      "duration": 0.0403,
      "velocity": 102,
      "chip": "ym2612"
    },
    {
      "channel": 1,
      "note": 75,
      "start": 40.4769,
      "duration": 0.0271,
      "velocity": 127,
      "chip": "ym2612"
    },
    {
      "channel": 2,
      "note": 69,
      "start": 40.4773,
      "duration": 0.032,
      "velocity": 108,
      "chip": "ym2612"
    },
    {
      "channel": 1,
      "note": 75,
      "start": 40.5041,
      "duration": 0.0335,
      "velocity": 127,
      "chip": "ym2612"
    },
    {
      "channel": 2,
      "note": 71,
      "start": 40.5094,
      "duration": 0.0333,
      "velocity": 108,
      "chip": "ym2612"
    },
    {
      "channel": 0,
      "note": 52,
      "start": 40.5359,
      "duration": 0.0647,
      "velocity": 102,
      "chip": "ym2612"
    },
    {
      "channel": 1,
      "note": 80,
      "start": 40.5424,
      "duration": 0.0267,
      "velocity": 127,
      "chip": "ym2612"
    },
    {
      "channel": 2,
      "note": 62,
      "start": 40.5427,
      "duration": 0.0268,
      "velocity": 108,
      "chip": "ym2612"
    },
    {
      "channel": 1,
      "note": 75,
      "start": 40.5692,
      "duration": 0.0331,
      "velocity": 127,
      "chip": "ym2612"
    },
    {
      "channel": 2,
      "note": 64,
      "start": 40.5695,
      "duration": 0.0379,
      "velocity": 110,
      "chip": "ym2612"
    },
    {
      "channel": 0,
      "note": 55,
      "start": 40.6006,
      "duration": 0.0721,
      "velocity": 102,
      "chip": "ym2612"
    },
    {
      "channel": 1,
      "note": 73,
      "start": 40.6072,
      "duration": 0.0669,
      "velocity": 127,
      "chip": "ym2612"
    },
    {
      "channel": 2,
      "note": 62,
      "start": 40.6075,
      "duration": 0.0349,
      "velocity": 110,
      "chip": "ym2612"
    },
    {
      "channel": 3,
      "note": 50,
      "start": 40.6082,
      "duration": 1.0402,
      "velocity": 122,
      "chip": "ym2612"
    },
    {
      "channel": 4,
      "note": 48,
      "start": 40.6102,
      "duration": 1.0412,
      "velocity": 122,
      "chip": "ym2612"
    },
    {
      "channel": 2,
      "note": 64,
      "start": 40.6424,
      "duration": 0.032,
      "velocity": 110,
      "chip": "ym2612"
    },
    {
      "channel": 0,
      "note": 57,
      "start": 40.6728,
      "duration": 0.0706,
      "velocity": 102,
      "chip": "ym2612"
    },
    {
      "channel": 1,
      "note": 80,
      "start": 40.6742,
      "duration": 0.0304,
      "velocity": 127,
      "chip": "ym2612"
    },
    {
      "channel": 2,
      "note": 67,
      "start": 40.6744,
      "duration": 0.0305,
      "velocity": 110,
      "chip": "ym2612"
    },
    {
      "channel": 1,
      "note": 80,
      "start": 40.7046,
      "duration": 0.0327,
      "velocity": 127,
      "chip": "ym2612"
    },
    {
      "channel": 2,
      "note": 69,
      "start": 40.7049,
      "duration": 0.0328,
      "velocity": 110,
      "chip": "ym2612"
    },
    {
      "channel": 1,
      "note": 75,
      "start": 40.7374,
      "duration": 0.0634,
      "velocity": 127,
      "chip": "ym2612"
    },
    {
      "channel": 2,
      "note": 71,
      "start": 40.7376,
      "duration": 0.0307,
      "velocity": 110,
      "chip": "ym2612"
    },
    {
      "channel": 2,
      "note": 62,
      "start": 40.7683,
      "duration": 0.0375,
      "velocity": 110,
      "chip": "ym2612"
    },
    {
      "channel": 0,
      "note": 55,
      "start": 40.7992,
      "duration": 0.0647,
      "velocity": 102,
      "chip": "ym2612"
    },
    {
      "channel": 1,
      "note": 80,
      "start": 40.8009,
      "duration": 0.032,
      "velocity": 127,
      "chip": "ym2612"
    },
    {
      "channel": 2,
      "note": 64,
      "start": 40.8059,
      "duration": 0.0273,
      "velocity": 110,
      "chip": "ym2612"
    },
    {
      "channel": 1,
      "note": 80,
      "start": 40.833,
      "duration": 0.0326,
      "velocity": 127,
      "chip": "ym2612"
    },
    {
      "channel": 2,
      "note": 67,
      "start": 40.8333,
      "duration": 0.0374,
      "velocity": 110,
      "chip": "ym2612"
    },
    {
      "channel": 0,
      "note": 57,
      "start": 40.864,
      "duration": 0.0451,
      "velocity": 102,
      "chip": "ym2612"
    },
    {
      "channel": 1,
      "note": 73,
      "start": 40.8656,
      "duration": 0.0632,
      "velocity": 127,
      "chip": "ym2612"
    },
    {
      "channel": 2,
      "note": 62,
      "start": 40.8708,
      "duration": 0.0263,
      "velocity": 110,
      "chip": "ym2612"
    },
    {
      "channel": 2,
      "note": 64,
      "start": 40.897,
      "duration": 0.0322,
      "velocity": 110,
      "chip": "ym2612"
    },
    {
      "channel": 0,
      "note": 49,
      "start": 40.9272,
      "duration": 0.1278,
      "velocity": 102,
      "chip": "ym2612"
    },
    {
      "channel": 1,
      "note": 73,
      "start": 40.929,
      "duration": 0.032,
      "velocity": 127,
      "chip": "ym2612"
    },
    {
      "channel": 2,
      "note": 67,
      "start": 40.9292,
      "duration": 0.0321,
      "velocity": 110,
      "chip": "ym2612"
    },
    {
      "channel": 1,
      "note": 80,
      "start": 40.9611,
      "duration": 0.0325,
      "velocity": 127,
      "chip": "ym2612"
    },
    {
      "channel": 2,
      "note": 64,
      "start": 40.9613,
      "duration": 0.0326,
      "velocity": 110,
      "chip": "ym2612"
    },
    {
      "channel": 1,
      "note": 75,
      "start": 40.9937,
      "duration": 0.0631,
      "velocity": 127,
      "chip": "ym2612"
    },
    {
      "channel": 2,
      "note": 62,
      "start": 40.9939,
      "duration": 0.0302,
      "velocity": 110,
      "chip": "ym2612"
    },
    {
      "channel": 2,
      "note": 59,
      "start": 41.0241,
      "duration": 0.0376,
      "velocity": 110,
      "chip": "ym2612"
    },
    {
      "channel": 0,
      "note": 50,
      "start": 41.055,
      "duration": 0.137,
      "velocity": 102,
      "chip": "ym2612"
    },
    {
      "channel": 1,
      "note": 73,
      "start": 41.0568,
      "duration": 0.0326,
      "velocity": 127,
      "chip": "ym2612"
    },
    {
      "channel": 2,
      "note": 57,
      "start": 41.0618,
      "duration": 0.0279,
      "velocity": 110,
      "chip": "ym2612"
    },
    {
      "channel": 1,
      "note": 80,
      "start": 41.0894,
      "duration": 0.0317,
      "velocity": 127,
      "chip": "ym2612"
    },
    {
      "channel": 2,
      "note": 59,
      "start": 41.0897,
      "duration": 0.0317,
      "velocity": 110,
      "chip": "ym2612"
    },
    {
      "channel": 1,
      "note": 80,
      "start": 41.1212,
      "duration": 0.0405,
      "velocity": 127,
      "chip": "ym2612"
    },
    {
      "channel": 2,
      "note": 62,
      "start": 41.1215,
      "duration": 0.0405,
      "velocity": 110,
      "chip": "ym2612"
    },
    {
      "channel": 1,
      "note": 80,
      "start": 41.1617,
      "duration": 0.032,
      "velocity": 127,
      "chip": "ym2612"
    },
    {
      "channel": 2,
      "note": 64,
      "start": 41.162,
      "duration": 0.0321,
      "velocity": 110,
      "chip": "ym2612"
    },
    {
      "channel": 0,
      "note": 52,
      "start": 41.192,
      "duration": 0.0644,
      "velocity": 102,
      "chip": "ym2612"
    },
    {
      "channel": 1,
      "note": 73,
      "start": 41.1938,
      "duration": 0.0316,
      "velocity": 127,
      "chip": "ym2612"
    },
    {
      "channel": 2,
      "note": 67,
      "start": 41.1941,
      "duration": 0.0317,
      "velocity": 110,
      "chip": "ym2612"
    },
    {
      "channel": 1,
      "note": 80,
      "start": 41.2255,
      "duration": 0.0323,
      "velocity": 127,
      "chip": "ym2612"
    },
    {
      "channel": 2,
      "note": 72,
      "start": 41.2258,
      "duration": 0.0373,
      "velocity": 110,
      "chip": "ym2612"
    },
    {
      "channel": 0,
      "note": 55,
      "start": 41.2565,
      "duration": 0.0375,
      "velocity": 102,
      "chip": "ym2612"
    },
    {
      "channel": 1,
      "note": 75,
      "start": 41.2579,
      "duration": 0.0628,
      "velocity": 127,
      "chip": "ym2612"
    },
    {
      "channel": 2,
      "note": 71,
      "start": 41.2631,
      "duration": 0.0251,
      "velocity": 110,
      "chip": "ym2612"
    },
    {
      "channel": 2,
      "note": 74,
      "start": 41.2882,
      "duration": 0.0376,
      "velocity": 110,
      "chip": "ym2612"
    },
    {
      "channel": 0,
      "note": 50,
      "start": 41.319,
      "duration": 0.1297,
      "velocity": 102,
      "chip": "ym2612"
    },
    {
      "channel": 1,
      "note": 80,
      "start": 41.3207,
      "duration": 0.0313,
      "velocity": 127,
      "chip": "ym2612"
    },
    {
      "channel": 2,
      "note": 67,
      "start": 41.3258,
      "duration": 0.0265,
      "velocity": 110,
      "chip": "ym2612"
    },
    {
      "channel": 1,
      "note": 75,
      "start": 41.3521,
      "duration": 0.0324,
      "velocity": 127,
      "chip": "ym2612"
    },
    {
      "channel": 2,
      "note": 71,
      "start": 41.3523,
      "duration": 0.0324,
      "velocity": 110,
      "chip": "ym2612"
    },
    {
      "channel": 1,
      "note": 73,
      "start": 41.3845,
      "duration": 0.0331,
      "velocity": 127,
      "chip": "ym2612"
    },
    {
      "channel": 2,
      "note": 64,
      "start": 41.3847,
      "duration": 0.0332,
      "velocity": 110,
      "chip": "ym2612"
    },
    {
      "channel": 1,
      "note": 75,
      "start": 41.4177,
      "duration": 0.0327,
      "velocity": 127,
      "chip": "ym2612"
    },
    {
      "channel": 2,
      "note": 62,
      "start": 41.4179,
      "duration": 0.0328,
      "velocity": 110,
      "chip": "ym2612"
    },
    {
      "channel": 0,
      "note": 52,
      "start": 41.4487,
      "duration": 0.0639,
      "velocity": 102,
      "chip": "ym2612"
    },
    {
      "channel": 1,
      "note": 73,
      "start": 41.4505,
      "duration": 0.0311,
      "velocity": 127,
      "chip": "ym2612"
    },
    {
      "channel": 2,
      "note": 64,
      "start": 41.4507,
      "duration": 0.0312,
      "velocity": 110,
      "chip": "ym2612"
    },
    {
      "channel": 1,
      "note": 80,
      "start": 41.4816,
      "duration": 0.0323,
      "velocity": 127,
      "chip": "ym2612"
    },
    {
      "channel": 2,
      "note": 67,
      "start": 41.4819,
      "duration": 0.0372,
      "velocity": 110,
      "chip": "ym2612"
    },
    {
      "channel": 0,
      "note": 55,
      "start": 41.5126,
      "duration": 0.0376,
      "velocity": 102,
      "chip": "ym2612"
    },
    {
      "channel": 1,
      "note": 75,
      "start": 41.5139,
      "duration": 0.0627,
      "velocity": 127,
      "chip": "ym2612"
    },
    {
      "channel": 2,
      "note": 69,
      "start": 41.5191,
      "duration": 0.0254,
      "velocity": 110,
      "chip": "ym2612"
    },
    {
      "channel": 2,
      "note": 71,
      "start": 41.5445,
      "duration": 0.0372,
      "velocity": 110,
      "chip": "ym2612"
    },
    {
      "channel": 0,
      "note": 52,
      "start": 41.5749,
      "duration": 0.0644,
      "velocity": 102,
      "chip": "ym2612"
    },
    {
      "channel": 1,
      "note": 80,
      "start": 41.5767,
      "duration": 0.032,
      "velocity": 127,
      "chip": "ym2612"
    },
    {
      "channel": 2,
      "note": 62,
      "start": 41.5818,
      "duration": 0.0271,
      "velocity": 110,
      "chip": "ym2612"
    },
    {
      "channel": 1,
      "note": 75,
      "start": 41.6087,
      "duration": 0.0325,
      "velocity": 127,
      "chip": "ym2612"
    },
    {
      "channel": 2,
      "note": 64,
      "start": 41.6089,
      "duration": 0.0375,
      "velocity": 110,
      "chip": "ym2612"
    },
    {
      "channel": 0,
      "note": 55,
      "start": 41.6394,
      "duration": 0.0738,
      "velocity": 102,
      "chip": "ym2612"
    },
    {
      "channel": 1,
      "note": 73,
      "start": 41.6412,
      "duration": 0.0734,
      "velocity": 127,
      "chip": "ym2612"
    },
    {
      "channel": 2,
      "note": 62,
      "start": 41.6464,
      "duration": 0.0365,
      "velocity": 110,
      "chip": "ym2612"
    },
    {
      "channel": 3,
      "note": 52,
      "start": 41.6485,
      "duration": 1.041,
      "velocity": 122,
      "chip": "ym2612"
    },
    {
      "channel": 4,
      "note": 55,
      "start": 41.6514,
      "duration": 1.0388,
      "velocity": 122,
      "chip": "ym2612"
    },
    {
      "channel": 2,
      "note": 64,
      "start": 41.6829,
      "duration": 0.032,
      "velocity": 110,
      "chip": "ym2612"
    },
    {
      "channel": 0,
      "note": 57,
      "start": 41.7133,
      "duration": 0.0714,
      "velocity": 102,
      "chip": "ym2612"
    },
    {
      "channel": 1,
      "note": 80,
      "start": 41.7146,
      "duration": 0.0301,
      "velocity": 127,
      "chip": "ym2612"
    },
    {
      "channel": 2,
      "note": 67,
      "start": 41.7149,
      "duration": 0.0302,
      "velocity": 110,
      "chip": "ym2612"
    },
    {
      "channel": 1,
      "note": 80,
      "start": 41.7448,
      "duration": 0.0333,
      "velocity": 127,
      "chip": "ym2612"
    },
    {
      "channel": 2,
      "note": 69,
      "start": 41.7451,
      "duration": 0.0333,
      "velocity": 110,
      "chip": "ym2612"
    },
    {
      "channel": 1,
      "note": 75,
      "start": 41.7781,
      "duration": 0.0634,
      "velocity": 127,
      "chip": "ym2612"
    },
    {
      "channel": 2,
      "note": 71,
      "start": 41.7784,
      "duration": 0.0312,
      "velocity": 110,
      "chip": "ym2612"
    },
    {
      "channel": 2,
      "note": 62,
      "start": 41.8095,
      "duration": 0.0372,
      "velocity": 110,
      "chip": "ym2612"
    },
    {
      "channel": 0,
      "note": 55,
      "start": 41.8399,
      "duration": 0.0643,
      "velocity": 102,
      "chip": "ym2612"
    },
    {
      "channel": 1,
      "note": 80,
      "start": 41.8416,
      "duration": 0.0323,
      "velocity": 127,
      "chip": "ym2612"
    },
    {
      "channel": 2,
      "note": 64,
      "start": 41.8468,
      "duration": 0.0274,
      "velocity": 110,
      "chip": "ym2612"
    },
    {
      "channel": 1,
      "note": 80,
      "start": 41.8739,
      "duration": 0.0319,
      "velocity": 127,
      "chip": "ym2612"
    },
    {
      "channel": 2,
      "note": 67,
      "start": 41.8742,
      "duration": 0.0368,
      "velocity": 110,
      "chip": "ym2612"
    },
    {
      "channel": 0,
      "note": 57,
      "start": 41.9042,
      "duration": 0.0452,
      "velocity": 102,
      "chip": "ym2612"
    },
    {
      "channel": 1,
      "note": 73,
      "start": 41.9059,
      "duration": 0.0633,
      "velocity": 127,
      "chip": "ym2612"
    },
    {
      "channel": 2,
      "note": 62,
      "start": 41.9111,
      "duration": 0.0261,
      "velocity": 110,
      "chip": "ym2612"
    },
    {
      "channel": 2,
      "note": 64,
      "start": 41.9371,
      "duration": 0.0323,
      "velocity": 110,
      "chip": "ym2612"
    },
    {
      "channel": 0,
      "note": 49,
      "start": 41.9674,
      "duration": 0.1278,
      "velocity": 102,
      "chip": "ym2612"
    },
    {
      "channel": 1,
      "note": 73,
      "start": 41.9691,
      "duration": 0.0321,
      "velocity": 127,
      "chip": "ym2612"
    },
    {
      "channel": 2,
      "note": 67,
      "start": 41.9694,
      "duration": 0.0322,
      "velocity": 110,
      "chip": "ym2612"
    },
    {
      "channel": 1,
      "note": 80,
      "start": 42.0013,
      "duration": 0.0324,
      "velocity": 127,
      "chip": "ym2612"
    },
    {
      "channel": 2,
      "note": 64,
      "start": 42.0016,
      "duration": 0.0325,
      "velocity": 110,
      "chip": "ym2612"
    },
    {
      "channel": 1,
      "note": 75,
      "start": 42.0338,
      "duration": 0.0631,
      "velocity": 127,
      "chip": "ym2612"
    },
    {
      "channel": 2,
      "note": 62,
      "start": 42.0341,
      "duration": 0.0308,
      "velocity": 110,
      "chip": "ym2612"
    },
    {
      "channel": 2,
      "note": 59,
      "start": 42.0649,
      "duration": 0.0371,
      "velocity": 110,
      "chip": "ym2612"
    },
    {
      "channel": 0,
      "note": 50,
      "start": 42.0952,
      "duration": 0.1364,
      "velocity": 102,
      "chip": "ym2612"
    },
    {
      "channel": 1,
      "note": 73,
      "start": 42.0969,
      "duration": 0.033,
      "velocity": 127,
      "chip": "ym2612"
    },
    {
      "channel": 2,
      "note": 57,
      "start": 42.102,
      "duration": 0.0282,
      "velocity": 110,
      "chip": "ym2612"
    },
    {
      "channel": 1,
      "note": 80,
      "start": 42.13,
      "duration": 0.0311,
      "velocity": 127,
      "chip": "ym2612"
    },
    {
      "channel": 2,
      "note": 59,
      "start": 42.1303,
      "duration": 0.0311,
      "velocity": 110,
      "chip": "ym2612"
    },
    {
      "channel": 1,
      "note": 80,
      "start": 42.1611,
      "duration": 0.0397,
      "velocity": 127,
      "chip": "ym2612"
    },
    {
      "channel": 2,
      "note": 62,
      "start": 42.1614,
      "duration": 0.0398,
      "velocity": 110,
      "chip": "ym2612"
    },
    {
      "channel": 1,
      "note": 80,
      "start": 42.2009,
      "duration": 0.0325,
      "velocity": 127,
      "chip": "ym2612"
    },
    {
      "channel": 2,
      "note": 64,
      "start": 42.2012,
      "duration": 0.0325,
      "velocity": 110,
      "chip": "ym2612"
    },
    {
      "channel": 0,
      "note": 52,
      "start": 42.2317,
      "duration": 0.0638,
      "velocity": 102,
      "chip": "ym2612"
    },
    {
      "channel": 1,
      "note": 73,
      "start": 42.2334,
      "duration": 0.031,
      "velocity": 127,
      "chip": "ym2612"
    },
    {
      "channel": 2,
      "note": 67,
      "start": 42.2337,
      "duration": 0.0311,
      "velocity": 110,
      "chip": "ym2612"
    },
    {
      "channel": 1,
      "note": 80,
      "start": 42.2645,
      "duration": 0.0324,
      "velocity": 127,
      "chip": "ym2612"
    },
    {
      "channel": 2,
      "note": 72,
      "start": 42.2647,
      "duration": 0.0373,
      "velocity": 110,
      "chip": "ym2612"
    },
    {
      "channel": 0,
      "note": 55,
      "start": 42.2956,
      "duration": 0.0378,
      "velocity": 102,
      "chip": "ym2612"
    },
    {
      "channel": 1,
      "note": 75,
      "start": 42.2969,
      "duration": 0.0626,
      "velocity": 127,
      "chip": "ym2612"
    },
    {
      "channel": 2,
      "note": 71,
      "start": 42.3021,
      "duration": 0.0255,
      "velocity": 110,
      "chip": "ym2612"
    },
    {
      "channel": 2,
      "note": 74,
      "start": 42.3276,
      "duration": 0.0371,
      "velocity": 110,
      "chip": "ym2612"
    },
    {
      "channel": 0,
      "note": 50,
      "start": 42.3578,
      "duration": 0.1277,
      "velocity": 102,
      "chip": "ym2612"
    },
    {
      "channel": 1,
      "note": 80,
      "start": 42.3595,
      "duration": 0.0305,
      "velocity": 127,
      "chip": "ym2612"
    },
    {
      "channel": 2,
      "note": 67,
      "start": 42.3647,
      "duration": 0.0256,
      "velocity": 110,
      "chip": "ym2612"
    },
    {
      "channel": 1,
      "note": 80,
      "start": 42.39,
      "duration": 0.0313,
      "velocity": 127,
      "chip": "ym2612"
    },
    {
      "channel": 2,
      "note": 71,
      "start": 42.3903,
      "duration": 0.0314,
      "velocity": 110,
      "chip": "ym2612"
    },
    {
      "channel": 1,
      "note": 75,
      "start": 42.4215,
      "duration": 0.0329,
      "velocity": 127,
      "chip": "ym2612"
    },
    {
      "channel": 2,
      "note": 64,
      "start": 42.4217,
      "duration": 0.033,
      "velocity": 110,
      "chip": "ym2612"
    },
    {
      "channel": 1,
      "note": 75,
      "start": 42.4544,
      "duration": 0.0328,
      "velocity": 127,
      "chip": "ym2612"
    },
    {
      "channel": 2,
      "note": 62,
      "start": 42.4547,
      "duration": 0.0329,
      "velocity": 110,
      "chip": "ym2612"
    },
    {
      "channel": 0,
      "note": 52,
      "start": 42.4855,
      "duration": 0.0644,
      "velocity": 102,
      "chip": "ym2612"
    },
    {
      "channel": 1,
      "note": 73,
      "start": 42.4873,
      "duration": 0.0309,
      "velocity": 127,
      "chip": "ym2612"
    },
    {
      "channel": 2,
      "note": 64,
      "start": 42.4876,
      "duration": 0.0309,
      "velocity": 110,
      "chip": "ym2612"
    },
    {
      "channel": 1,
      "note": 73,
      "start": 42.5182,
      "duration": 0.0334,
      "velocity": 127,
      "chip": "ym2612"
    },
    {
      "channel": 2,
      "note": 67,
      "start": 42.5185,
      "duration": 0.0383,
      "velocity": 110,
      "chip": "ym2612"
    },
    {
      "channel": 0,
      "note": 55,
      "start": 42.55,
      "duration": 0.04,
      "velocity": 102,
      "chip": "ym2612"
    },
    {
      "channel": 1,
      "note": 75,
      "start": 42.5517,
      "duration": 0.0323,
      "velocity": 127,
      "chip": "ym2612"
    },
    {
      "channel": 2,
      "note": 69,
      "start": 42.5567,
      "duration": 0.0275,
      "velocity": 110,
      "chip": "ym2612"
    },
    {
      "channel": 1,
      "note": 75,
      "start": 42.584,
      "duration": 0.0323,
      "velocity": 127,
      "chip": "ym2612"
    },
    {
      "channel": 2,
      "note": 71,
      "start": 42.5843,
      "duration": 0.0371,
      "velocity": 110,
      "chip": "ym2612"
    },
    {
      "channel": 0,
      "note": 52,
      "start": 42.6147,
      "duration": 0.0644,
      "velocity": 102,
      "chip": "ym2612"
    },
    {
      "channel": 1,
      "note": 80,
      "start": 42.6164,
      "duration": 0.0319,
      "velocity": 127,
      "chip": "ym2612"
    },
    {
      "channel": 2,
      "note": 62,
      "start": 42.6214,
      "duration": 0.0272,
      "velocity": 110,
      "chip": "ym2612"
    },
    {
      "channel": 1,
      "note": 75,
      "start": 42.6483,
      "duration": 0.0326,
      "velocity": 127,
      "chip": "ym2612"
    },
    {
      "channel": 2,
      "note": 64,
      "start": 42.6486,
      "duration": 0.0378,
      "velocity": 82,
      "chip": "ym2612"
    },
    {
      "channel": 0,
      "note": 55,
      "start": 42.6792,
      "duration": 0.0735,
      "velocity": 102,
      "chip": "ym2612"
    },
    {
      "channel": 1,
      "note": 73,
      "start": 42.681,
      "duration": 0.0731,
      "velocity": 127,
      "chip": "ym2612"
    },
    {
      "channel": 2,
      "note": 62,
      "start": 42.6865,
      "duration": 0.0354,
      "velocity": 83,
      "chip": "ym2612"
    },
    {
      "channel": 3,
      "note": 47,
      "start": 42.6896,
      "duration": 0.2629,
      "velocity": 122,
      "chip": "ym2612"
    },
    {
      "channel": 4,
      "note": 55,
      "start": 42.6903,
      "duration": 0.2629,
      "velocity": 122,
      "chip": "ym2612"
    },
    {
      "channel": 2,
      "note": 64,
      "start": 42.722,
      "duration": 0.0325,
      "velocity": 83,
      "chip": "ym2612"
    },
    {
      "channel": 0,
      "note": 57,
      "start": 42.7528,
      "duration": 0.0707,
      "velocity": 102,
      "chip": "ym2612"
    },
    {
      "channel": 1,
      "note": 80,
      "start": 42.7542,
      "duration": 0.0298,
      "velocity": 127,
      "chip": "ym2612"
    },
    {
      "channel": 2,
      "note": 67,
      "start": 42.7545,
      "duration": 0.0298,
      "velocity": 84,
      "chip": "ym2612"
    },
    {
      "channel": 1,
      "note": 80,
      "start": 42.784,
      "duration": 0.033,
      "velocity": 127,
      "chip": "ym2612"
    },
    {
      "channel": 2,
      "note": 69,
      "start": 42.7843,
      "duration": 0.0331,
      "velocity": 84,
      "chip": "ym2612"
    },
    {
      "channel": 1,
      "note": 75,
      "start": 42.8171,
      "duration": 0.0637,
      "velocity": 127,
      "chip": "ym2612"
    },
    {
      "channel": 2,
      "note": 71,
      "start": 42.8175,
      "duration": 0.0316,
      "velocity": 85,
      "chip": "ym2612"
    },
    {
      "channel": 2,
      "note": 62,
      "start": 42.8491,
      "duration": 0.0372,
      "velocity": 85,
      "chip": "ym2612"
    },
    {
      "channel": 0,
      "note": 55,
      "start": 42.8792,
      "duration": 0.0656,
      "velocity": 102,
      "chip": "ym2612"
    },
    {
      "channel": 1,
      "note": 80,
      "start": 42.8809,
      "duration": 0.0331,
      "velocity": 127,
      "chip": "ym2612"
    },
    {
      "channel": 2,
      "note": 64,
      "start": 42.8863,
      "duration": 0.0281,
      "velocity": 85,
      "chip": "ym2612"
    },
    {
      "channel": 1,
      "note": 80,
      "start": 42.9141,
      "duration": 0.0324,
      "velocity": 127,
      "chip": "ym2612"
    },
    {
      "channel": 2,
      "note": 67,
      "start": 42.9145,
      "duration": 0.0371,
      "velocity": 85,
      "chip": "ym2612"
    },
    {
      "channel": 0,
      "note": 57,
      "start": 42.9448,
      "duration": 0.0472,
      "velocity": 102,
      "chip": "ym2612"
    },
    {
      "channel": 1,
      "note": 73,
      "start": 42.9465,
      "duration": 0.0658,
      "velocity": 127,
      "chip": "ym2612"
    },
    {
      "channel": 2,
      "note": 62,
      "start": 42.9517,
      "duration": 0.0275,
      "velocity": 85,
      "chip": "ym2612"
    },
    {
      "channel": 3,
      "note": 47,
      "start": 42.9525,
      "duration": 0.259,
      "velocity": 122,
      "chip": "ym2612"
    },
    {
      "channel": 4,
      "note": 55,
      "start": 42.9532,
      "duration": 0.259,
      "velocity": 122,
      "chip": "ym2612"
    },
    {
      "channel": 2,
      "note": 64,
      "start": 42.9792,
      "duration": 0.0333,
      "velocity": 86,
      "chip": "ym2612"
    },
    {
      "channel": 0,
      "note": 49,
      "start": 43.0106,
      "duration": 0.1281,
      "velocity": 102,
      "chip": "ym2612"
    },
    {
      "channel": 1,
      "note": 73,
      "start": 43.0123,
      "duration": 0.032,
      "velocity": 127,
      "chip": "ym2612"
    },
    {
      "channel": 2,
      "note": 67,
      "start": 43.0126,
      "duration": 0.032,
      "velocity": 86,
      "chip": "ym2612"
    },
    {
      "channel": 1,
      "note": 80,
      "start": 43.0444,
      "duration": 0.0329,
      "velocity": 127,
      "chip": "ym2612"
    },
    {
      "channel": 2,
      "note": 64,
      "start": 43.0447,
      "duration": 0.0329,
      "velocity": 88,
      "chip": "ym2612"
    },
    {
      "channel": 1,
      "note": 75,
      "start": 43.0773,
      "duration": 0.0627,
      "velocity": 127,
      "chip": "ym2612"
    },
    {
      "channel": 2,
      "note": 62,
      "start": 43.0777,
      "duration": 0.0315,
      "velocity": 88,
      "chip": "ym2612"
    },
    {
      "channel": 2,
      "note": 59,
      "start": 43.1092,
      "duration": 0.0359,
      "velocity": 88,
      "chip": "ym2612"
    },
    {
      "channel": 0,
      "note": 50,
      "start": 43.1387,
      "duration": 0.1324,
      "velocity": 102,
      "chip": "ym2612"
    },
    {
      "channel": 1,
      "note": 73,
      "start": 43.14,
      "duration": 0.033,
      "velocity": 127,
      "chip": "ym2612"
    },
    {
      "channel": 2,
      "note": 57,
      "start": 43.1452,
      "duration": 0.0282,
      "velocity": 88,
      "chip": "ym2612"
    },
    {
      "channel": 1,
      "note": 80,
      "start": 43.1731,
      "duration": 0.0322,
      "velocity": 127,
      "chip": "ym2612"
    },
    {
      "channel": 2,
      "note": 59,
      "start": 43.1734,
      "duration": 0.0322,
      "velocity": 89,
      "chip": "ym2612"
    },
    {
      "channel": 1,
      "note": 80,
      "start": 43.2054,
      "duration": 0.0344,
      "velocity": 127,
      "chip": "ym2612"
    },
    {
      "channel": 2,
      "note": 62,
      "start": 43.2057,
      "duration": 0.0344,
      "velocity": 89,
      "chip": "ym2612"
    },
    {
      "channel": 3,
      "note": 47,
      "start": 43.2115,
      "duration": 0.2624,
      "velocity": 122,
      "chip": "ym2612"
    },
    {
      "channel": 4,
      "note": 55,
      "start": 43.2123,
      "duration": 0.2624,
      "velocity": 122,
      "chip": "ym2612"
    },
    {
      "channel": 1,
      "note": 80,
      "start": 43.2398,
      "duration": 0.033,
      "velocity": 127,
      "chip": "ym2612"
    },
    {
      "channel": 2,
      "note": 64,
      "start": 43.2402,
      "duration": 0.033,
      "velocity": 89,
      "chip": "ym2612"
    },
    {
      "channel": 0,
      "note": 52,
      "start": 43.2712,
      "duration": 0.0652,
      "velocity": 102,
      "chip": "ym2612"
    },
    {
      "channel": 1,
      "note": 73,
      "start": 43.2729,
      "duration": 0.032,
      "velocity": 127,
      "chip": "ym2612"
    },
    {
      "channel": 2,
      "note": 67,
      "start": 43.2732,
      "duration": 0.032,
      "velocity": 89,
      "chip": "ym2612"
    },
    {
      "channel": 1,
      "note": 80,
      "start": 43.3049,
      "duration": 0.0332,
      "velocity": 127,
      "chip": "ym2612"
    },
    {
      "channel": 2,
      "note": 69,
      "start": 43.3053,
      "duration": 0.0381,
      "velocity": 91,
      "chip": "ym2612"
    },
    {
      "channel": 0,
      "note": 55,
      "start": 43.3365,
      "duration": 0.0402,
      "velocity": 102,
      "chip": "ym2612"
    },
    {
      "channel": 1,
      "note": 75,
      "start": 43.3382,
      "duration": 0.0641,
      "velocity": 127,
      "chip": "ym2612"
    },
    {
      "channel": 2,
      "note": 71,
      "start": 43.3434,
      "duration": 0.0272,
      "velocity": 91,
      "chip": "ym2612"
    },
    {
      "channel": 2,
      "note": 62,
      "start": 43.3707,
      "duration": 0.0371,
      "velocity": 92,
      "chip": "ym2612"
    },
    {
      "channel": 0,
      "note": 50,
      "start": 43.4006,
      "duration": 0.1335,
      "velocity": 102,
      "chip": "ym2612"
    },
    {
      "channel": 1,
      "note": 80,
      "start": 43.4024,
      "duration": 0.0322,
      "velocity": 127,
      "chip": "ym2612"
    },
    {
      "channel": 2,
      "note": 64,
      "start": 43.4078,
      "duration": 0.0319,
      "velocity": 92,
      "chip": "ym2612"
    },
    {
      "channel": 1,
      "note": 75,
      "start": 43.4346,
      "duration": 0.0333,
      "velocity": 127,
      "chip": "ym2612"
    },
    {
      "channel": 2,
      "note": 67,
      "start": 43.4398,
      "duration": 0.0333,
      "velocity": 92,
      "chip": "ym2612"
    },
    {
      "channel": 1,
      "note": 73,
      "start": 43.468,
      "duration": 0.0339,
      "velocity": 127,
      "chip": "ym2612"
    },
    {
      "channel": 2,
      "note": 62,
      "start": 43.4732,
      "duration": 0.0338,
      "velocity": 92,
      "chip": "ym2612"
    },
    {
      "channel": 3,
      "note": 47,
      "start": 43.474,
      "duration": 0.2628,
      "velocity": 122,
      "chip": "ym2612"
    },
    {
      "channel": 4,
      "note": 55,
      "start": 43.4748,
      "duration": 0.2628,
      "velocity": 122,
      "chip": "ym2612"
    },
    {
      "channel": 1,
      "note": 75,
      "start": 43.5019,
      "duration": 0.0339,
      "velocity": 127,
      "chip": "ym2612"
    },
    {
      "channel": 2,
      "note": 64,
      "start": 43.5071,
      "duration": 0.0291,
      "velocity": 92,
      "chip": "ym2612"
    },
    {
      "channel": 0,
      "note": 52,
      "start": 43.5342,
      "duration": 0.0648,
      "velocity": 102,
      "chip": "ym2612"
    },
    {
      "channel": 1,
      "note": 73,
      "start": 43.5359,
      "duration": 0.0319,
      "velocity": 127,
      "chip": "ym2612"
    },
    {
      "channel": 2,
      "note": 67,
      "start": 43.5362,
      "duration": 0.0319,
      "velocity": 93,
      "chip": "ym2612"
    },
    {
      "channel": 1,
      "note": 80,
      "start": 43.5678,
      "duration": 0.0329,
      "velocity": 127,
      "chip": "ym2612"
    },
    {
      "channel": 2,
      "note": 64,
      "start": 43.5682,
      "duration": 0.0378,
      "velocity": 93,
      "chip": "ym2612"
    },
    {
      "channel": 0,
      "note": 55,
      "start": 43.5991,
      "duration": 0.04,
      "velocity": 102,
      "chip": "ym2612"
    },
    {
      "channel": 1,
      "note": 75,
      "start": 43.6008,
      "duration": 0.0639,
      "velocity": 127,
      "chip": "ym2612"
    },
    {
      "channel": 2,
      "note": 62,
      "start": 43.6061,
      "duration": 0.027,
      "velocity": 95,
      "chip": "ym2612"
    },
    {
      "channel": 2,
      "note": 59,
      "start": 43.6331,
      "duration": 0.0369,
      "velocity": 95,
      "chip": "ym2612"
    },
    {
      "channel": 0,
      "note": 52,
      "start": 43.6631,
      "duration": 0.0659,
      "velocity": 102,
      "chip": "ym2612"
    },
    {
      "channel": 1,
      "note": 80,
      "start": 43.6648,
      "duration": 0.0324,
      "velocity": 127,
      "chip": "ym2612"
    },
    {
      "channel": 2,
      "note": 57,
      "start": 43.6701,
      "duration": 0.0274,
      "velocity": 95,
      "chip": "ym2612"
    },
    {
      "channel": 1,
      "note": 75,
      "start": 43.6972,
      "duration": 0.0336,
      "velocity": 127,
      "chip": "ym2612"
    },
    {
      "channel": 2,
      "note": 59,
      "start": 43.6976,
      "duration": 0.0386,
      "velocity": 95,
      "chip": "ym2612"
    },
    {
      "channel": 0,
      "note": 55,
      "start": 43.729,
      "duration": 0.0659,
      "velocity": 102,
      "chip": "ym2612"
    },
    {
      "channel": 1,
      "note": 73,
      "start": 43.7309,
      "duration": 0.0654,
      "velocity": 127,
      "chip": "ym2612"
    },
    {
      "channel": 2,
      "note": 62,
      "start": 43.7362,
      "duration": 0.027,
      "velocity": 96,
      "chip": "ym2612"
    },
    {
      "channel": 3,
      "note": 59,
      "start": 43.7369,
      "duration": 0.2578,
      "velocity": 122,
      "chip": "ym2612"
    },
    {
      "channel": 4,
      "note": 67,
      "start": 43.7376,
      "duration": 0.2579,
      "velocity": 122,
      "chip": "ym2612"
    },
    {
      "channel": 2,
      "note": 64,
      "start": 43.7633,
      "duration": 0.0333,
      "velocity": 96,
      "chip": "ym2612"
    },
    {
      "channel": 0,
      "note": 57,
      "start": 43.795,
      "duration": 0.071,
      "velocity": 102,
      "chip": "ym2612"
    },
    {
      "channel": 1,
      "note": 80,
      "start": 43.7963,
      "duration": 0.0301,
      "velocity": 127,
      "chip": "ym2612"
    },
    {
      "channel": 2,
      "note": 67,
      "start": 43.7966,
      "duration": 0.0301,
      "velocity": 96,
      "chip": "ym2612"
    },
    {
      "channel": 1,
      "note": 80,
      "start": 43.8265,
      "duration": 0.0329,
      "velocity": 127,
      "chip": "ym2612"
    },
    {
      "channel": 2,
      "note": 69,
      "start": 43.8268,
      "duration": 0.0329,
      "velocity": 96,
      "chip": "ym2612"
    },
    {
      "channel": 1,
      "note": 75,
      "start": 43.8595,
      "duration": 0.0639,
      "velocity": 127,
      "chip": "ym2612"
    },
    {
      "channel": 2,
      "note": 71,
      "start": 43.8598,
      "duration": 0.0321,
      "velocity": 98,
      "chip": "ym2612"
    },
    {
      "channel": 2,
      "note": 62,
      "start": 43.892,
      "duration": 0.0365,
      "velocity": 98,
      "chip": "ym2612"
    },
    {
      "channel": 0,
      "note": 55,
      "start": 43.9216,
      "duration": 0.0655,
      "velocity": 102,
      "chip": "ym2612"
    },
    {
      "channel": 1,
      "note": 80,
      "start": 43.9234,
      "duration": 0.0321,
      "velocity": 127,
      "chip": "ym2612"
    },
    {
      "channel": 2,
      "note": 64,
      "start": 43.9285,
      "duration": 0.0273,
      "velocity": 98,
      "chip": "ym2612"
    },
    {
      "channel": 1,
      "note": 80,
      "start": 43.9556,
      "duration": 0.0332,
      "velocity": 127,
      "chip": "ym2612"
    },
    {
      "channel": 2,
      "note": 67,
      "start": 43.9559,
      "duration": 0.0381,
      "velocity": 98,
      "chip": "ym2612"
    },
    {
      "channel": 0,
      "note": 57,
      "start": 43.9871,
      "duration": 0.0472,
      "velocity": 102,
      "chip": "ym2612"
    },
    {
      "channel": 1,
      "note": 73,
      "start": 43.9888,
      "duration": 0.0662,
      "velocity": 127,
      "chip": "ym2612"
    },
    {
      "channel": 2,
      "note": 62,
      "start": 43.994,
      "duration": 0.0276,
      "velocity": 99,
      "chip": "ym2612"
    },
    {
      "channel": 3,
      "note": 59,
      "start": 43.9948,
      "duration": 0.2618,
      "velocity": 122,
      "chip": "ym2612"
    },
    {
      "channel": 4,
      "note": 67,
      "start": 43.9956,
      "duration": 0.2618,
      "velocity": 122,
      "chip": "ym2612"
    },
    {
      "channel": 2,
      "note": 64,
      "start": 44.0217,
      "duration": 0.0336,
      "velocity": 99,
      "chip": "ym2612"
    },
    {
      "channel": 0,
      "note": 49,
      "start": 44.0533,
      "duration": 0.1291,
      "velocity": 102,
      "chip": "ym2612"
    },
    {
      "channel": 1,
      "note": 73,
      "start": 44.0551,
      "duration": 0.0325,
      "velocity": 127,
      "chip": "ym2612"
    },
    {
      "channel": 2,
      "note": 67,
      "start": 44.0554,
      "duration": 0.0326,
      "velocity": 100,
      "chip": "ym2612"
    },
    {
      "channel": 1,
      "note": 80,
      "start": 44.0877,
      "duration": 0.0324,
      "velocity": 127,
      "chip": "ym2612"
    },
    {
      "channel": 2,
      "note": 64,
      "start": 44.088,
      "duration": 0.0324,
      "velocity": 100,
      "chip": "ym2612"
    },
    {
      "channel": 1,
      "note": 75,
      "start": 44.1202,
      "duration": 0.0639,
      "velocity": 127,
      "chip": "ym2612"
    },
    {
      "channel": 2,
      "note": 62,
      "start": 44.1205,
      "duration": 0.0319,
      "velocity": 101,
      "chip": "ym2612"
    },
    {
      "channel": 2,
      "note": 59,
      "start": 44.1525,
      "duration": 0.0368,
      "velocity": 101,
      "chip": "ym2612"
    },
    {
      "channel": 0,
      "note": 50,
      "start": 44.1824,
      "duration": 0.133,
      "velocity": 102,
      "chip": "ym2612"
    },
    {
      "channel": 1,
      "note": 73,
      "start": 44.1842,
      "duration": 0.0329,
      "velocity": 127,
      "chip": "ym2612"
    },
    {
      "channel": 2,
      "note": 57,
      "start": 44.1894,
      "duration": 0.028,
      "velocity": 101,
      "chip": "ym2612"
    },
    {
      "channel": 1,
      "note": 80,
      "start": 44.2171,
      "duration": 0.0333,
      "velocity": 127,
      "chip": "ym2612"
    },
    {
      "channel": 2,
      "note": 59,
      "start": 44.2175,
      "duration": 0.0333,
      "velocity": 101,
      "chip": "ym2612"
    },
    {
      "channel": 1,
      "note": 80,
      "start": 44.2505,
      "duration": 0.0331,
      "velocity": 127,
      "chip": "ym2612"
    },
    {
      "channel": 2,
      "note": 62,
      "start": 44.2509,
      "duration": 0.0331,
      "velocity": 103,
      "chip": "ym2612"
    },
    {
      "channel": 3,
      "note": 59,
      "start": 44.2567,
      "duration": 0.2589,
      "velocity": 122,
      "chip": "ym2612"
    },
    {
      "channel": 4,
      "note": 67,
      "start": 44.2575,
      "duration": 0.2589,
      "velocity": 122,
      "chip": "ym2612"
    },
    {
      "channel": 1,
      "note": 80,
      "start": 44.2837,
      "duration": 0.0334,
      "velocity": 127,
      "chip": "ym2612"
    },
    {
      "channel": 2,
      "note": 64,
      "start": 44.2841,
      "duration": 0.0334,
      "velocity": 103,
      "chip": "ym2612"
    },
    {
      "channel": 0,
      "note": 52,
      "start": 44.3155,
      "duration": 0.0648,
      "velocity": 102,
      "chip": "ym2612"
    },
    {
      "channel": 1,
      "note": 73,
      "start": 44.3172,
      "duration": 0.032,
      "velocity": 127,
      "chip": "ym2612"
    },
    {
      "channel": 2,
      "note": 67,
      "start": 44.3175,
      "duration": 0.032,
      "velocity": 103,
      "chip": "ym2612"
    },
    {
      "channel": 1,
      "note": 80,
      "start": 44.3492,
      "duration": 0.0324,
      "velocity": 127,
      "chip": "ym2612"
    },
    {
      "channel": 2,
      "note": 69,
      "start": 44.3495,
      "duration": 0.0373,
      "velocity": 103,
      "chip": "ym2612"
    },
    {
      "channel": 0,
      "note": 55,
      "start": 44.3803,
      "duration": 0.0399,
      "velocity": 102,
      "chip": "ym2612"
    },
    {
      "channel": 1,
      "note": 75,
      "start": 44.3817,
      "duration": 0.064,
      "velocity": 127,
      "chip": "ym2612"
    },
    {
      "channel": 2,
      "note": 71,
      "start": 44.3869,
      "duration": 0.027,
      "velocity": 105,
      "chip": "ym2612"
    },
    {
      "channel": 2,
      "note": 62,
      "start": 44.414,
      "duration": 0.037,
      "velocity": 105,
      "chip": "ym2612"
    },
    {
      "channel": 0,
      "note": 50,
      "start": 44.4441,
      "duration": 0.131,
      "velocity": 102,
      "chip": "ym2612"
    },
    {
      "channel": 1,
      "note": 80,
      "start": 44.4458,
      "duration": 0.0305,
      "velocity": 127,
      "chip": "ym2612"
    },
    {
      "channel": 2,
      "note": 64,
      "start": 44.451,
      "duration": 0.0258,
      "velocity": 105,
      "chip": "ym2612"
    },
    {
      "channel": 1,
      "note": 80,
      "start": 44.4764,
      "duration": 0.0329,
      "velocity": 127,
      "chip": "ym2612"
    },
    {
      "channel": 2,
      "note": 67,
      "start": 44.4768,
      "duration": 0.0329,
      "velocity": 106,
      "chip": "ym2612"
    },
    {
      "channel": 1,
      "note": 75,
      "start": 44.5094,
      "duration": 0.0337,
      "velocity": 127,
      "chip": "ym2612"
    },
    {
      "channel": 2,
      "note": 62,
      "start": 44.5099,
      "duration": 0.0385,
      "velocity": 106,
      "chip": "ym2612"
    },
    {
      "channel": 3,
      "note": 59,
      "start": 44.5156,
      "duration": 96.8849,
      "velocity": 109,
      "chip": "ym2612"
    },
    {
      "channel": 4,
      "note": 67,
      "start": 44.5164,
      "duration": 96.8842,
      "velocity": 109,
      "chip": "ym2612"
    },
    {
      "channel": 1,
      "note": 75,
      "start": 44.5431,
      "duration": 0.0338,
      "velocity": 127,
      "chip": "ym2612"
    },
    {
      "channel": 2,
      "note": 64,
      "start": 44.5484,
      "duration": 0.0337,
      "velocity": 107,
      "chip": "ym2612"
    },
    {
      "channel": 0,
      "note": 52,
      "start": 44.5751,
      "duration": 0.0661,
      "velocity": 102,
      "chip": "ym2612"
    },
    {
      "channel": 1,
      "note": 73,
      "start": 44.5769,
      "duration": 0.0327,
      "velocity": 127,
      "chip": "ym2612"
    },
    {
      "channel": 2,
      "note": 67,
      "start": 44.5822,
      "duration": 0.0327,
      "velocity": 107,
      "chip": "ym2612"
    },
    {
      "channel": 1,
      "note": 73,
      "start": 44.6097,
      "duration": 0.0332,
      "velocity": 127,
      "chip": "ym2612"
    },
    {
      "channel": 2,
      "note": 64,
      "start": 44.615,
      "duration": 0.0332,
      "velocity": 108,
      "chip": "ym2612"
    },
    {
      "channel": 0,
      "note": 55,
      "start": 44.6413,
      "duration": 0.0422,
      "velocity": 102,
      "chip": "ym2612"
    },
    {
      "channel": 1,
      "note": 75,
      "start": 44.643,
      "duration": 0.0338,
      "velocity": 127,
      "chip": "ym2612"
    },
    {
      "channel": 2,
      "note": 62,
      "start": 44.6483,
      "duration": 0.0339,
      "velocity": 108,
      "chip": "ym2612"
    },
    {
      "channel": 1,
      "note": 75,
      "start": 44.6769,
      "duration": 0.0324,
      "velocity": 127,
      "chip": "ym2612"
    },
    {
      "channel": 2,
      "note": 59,
      "start": 44.6823,
      "duration": 0.0323,
      "velocity": 108,
      "chip": "ym2612"
    },
    {
      "channel": 0,
      "note": 52,
      "start": 44.7076,
      "duration": 96.693,
      "velocity": 102,
      "chip": "ym2612"
    },
    {
      "channel": 1,
      "note": 80,
      "start": 44.7094,
      "duration": 0.0321,
      "velocity": 127,
      "chip": "ym2612"
    },
    {
      "channel": 2,
      "note": 57,
      "start": 44.7146,
      "duration": 0.0272,
      "velocity": 108,
      "chip": "ym2612"
    },
    {
      "channel": 1,
      "note": 75,
      "start": 44.7415,
      "duration": 96.659,
      "velocity": 127,
      "chip": "ym2612"
    },
    {
      "channel": 2,
      "note": 59,
      "start": 44.7419,
      "duration": 96.6587,
      "velocity": 110,
      "chip": "ym2612"
    }
  ]
}