{
  "track_name": "05 - Experimental Rabbit Bonus Stage",
  "duration_sec": 57.151,
  "sample_rate": 44100,
  "note_count": 809,
  "unique_pitches": 36,
  "pitch_range": 62,
  "avg_note_duration": 0.2101,
  "reconstruction_stats": {
    "notes_reconstructed": 809,
    "keyon_events": 809,
    "keyoff_events": 808,
    "orphan_keyons": 1,
    "unique_pitches": 36,
    "pitch_range": 62,
    "avg_duration_sec": 0.2101
  },
  "metadata": {
    "source": "T\\The Ooze\\05 - Experimental Rabbit Bonus Stage.vgz"
  },
  "notes": [
    {
      "channel": 1,
      "note": 49,
      "start": 0.0035,
      "duration": 0.2039,
      "velocity": 101,
      "chip": "ym2612"
    },
    {
      "channel": 3,
      "note": 49,
      "start": 0.0057,
      "duration": 0.2018,
      "velocity": 127,
      "chip": "ym2612"
    },
    {
      "channel": 4,
      "note": 49,
      "start": 0.008,
      "duration": 0.2494,
      "velocity": 122,
      "chip": "ym2612"
    },
    {
      "channel": 0,
      "note": 49,
      "start": 0.0127,
      "duration": 0.2446,
      "velocity": 111,
      "chip": "ym2612"
    },
    {
      "channel": 2,
      "note": 49,
      "start": 0.0152,
      "duration": 0.1925,
      "velocity": 127,
      "chip": "ym2612"
    },
    {
      "channel": 1,
      "note": 61,
      "start": 0.2138,
      "duration": 0.0867,
      "velocity": 101,
      "chip": "ym2612"
    },
    {
      "channel": 3,
      "note": 61,
      "start": 0.216,
      "duration": 0.0845,
      "velocity": 127,
      "chip": "ym2612"
    },
    {
      "channel": 2,
      "note": 61,
      "start": 0.2193,
      "duration": 0.0814,
      "velocity": 127,
      "chip": "ym2612"
    },
    {
      "channel": 1,
      "note": 60,
      "start": 0.3064,
      "duration": 0.0863,
      "velocity": 101,
      "chip": "ym2612"
    },
    {
      "channel": 3,
      "note": 60,
      "start": 0.3087,
      "duration": 0.0841,
      "velocity": 127,
      "chip": "ym2612"
    },
    {
      "channel": 2,
      "note": 60,
      "start": 0.3117,
      "duration": 0.0812,
      "velocity": 127,
      "chip": "ym2612"
    },
    {
      "channel": 1,
      "note": 49,
      "start": 0.3993,
      "duration": 0.1844,
      "velocity": 101,
      "chip": "ym2612"
    },
    {
      "channel": 3,
      "note": 49,
      "start": 0.4015,
      "duration": 0.1823,
      "velocity": 127,
      "chip": "ym2612"
    },
    {
      "channel": 4,
      "note": 49,
      "start": 0.4038,
      "duration": 0.2313,
      "velocity": 122,
      "chip": "ym2612"
    },
    {
      "channel": 0,
      "note": 49,
      "start": 0.4066,
      "duration": 0.2284,
      "velocity": 111,
      "chip": "ym2612"
    },
    {
      "channel": 2,
      "note": 49,
      "start": 0.41,
      "duration": 0.1739,
      "velocity": 127,
      "chip": "ym2612"
    },
    {
      "channel": 1,
      "note": 61,
      "start": 0.591,
      "duration": 0.0878,
      "velocity": 101,
      "chip": "ym2612"
    },
    {
      "channel": 3,
      "note": 61,
      "start": 0.5932,
      "duration": 0.0859,
      "velocity": 127,
      "chip": "ym2612"
    },
    {
      "channel": 2,
      "note": 61,
      "start": 0.5962,
      "duration": 0.0832,
      "velocity": 127,
      "chip": "ym2612"
    },
    {
      "channel": 1,
      "note": 60,
      "start": 0.6861,
      "duration": 0.202,
      "velocity": 101,
      "chip": "ym2612"
    },
    {
      "channel": 3,
      "note": 60,
      "start": 0.6887,
      "duration": 0.1995,
      "velocity": 127,
      "chip": "ym2612"
    },
    {
      "channel": 4,
      "note": 49,
      "start": 0.6915,
      "duration": 0.0134,
      "velocity": 122,
      "chip": "ym2612"
    },
    {
      "channel": 2,
      "note": 60,
      "start": 0.6957,
      "duration": 0.1928,
      "velocity": 127,
      "chip": "ym2612"
    },
    {
      "channel": 4,
      "note": 49,
      "start": 0.7746,
      "duration": 0.047,
      "velocity": 122,
      "chip": "ym2612"
    },
    {
      "channel": 1,
      "note": 49,
      "start": 0.8944,
      "duration": 0.1865,
      "velocity": 101,
      "chip": "ym2612"
    },
    {
      "channel": 3,
      "note": 49,
      "start": 0.8966,
      "duration": 0.1845,
      "velocity": 127,
      "chip": "ym2612"
    },
    {
      "channel": 4,
      "note": 49,
      "start": 0.899,
      "duration": 0.2335,
      "velocity": 122,
      "chip": "ym2612"
    },
    {
      "channel": 0,
      "note": 49,
      "start": 0.9018,
      "duration": 0.2306,
      "velocity": 111,
      "chip": "ym2612"
    },
    {
      "channel": 2,
      "note": 49,
      "start": 0.9053,
      "duration": 0.176,
      "velocity": 127,
      "chip": "ym2612"
    },
    {
      "channel": 1,
      "note": 61,
      "start": 1.0883,
      "duration": 0.0877,
      "velocity": 101,
      "chip": "ym2612"
    },
    {
      "channel": 3,
      "note": 61,
      "start": 1.0905,
      "duration": 0.0857,
      "velocity": 127,
      "chip": "ym2612"
    },
    {
      "channel": 2,
      "note": 61,
      "start": 1.0935,
      "duration": 0.0831,
      "velocity": 127,
      "chip": "ym2612"
    },
    {
      "channel": 1,
      "note": 60,
      "start": 1.183,
      "duration": 0.2022,
      "velocity": 101,
      "chip": "ym2612"
    },
    {
      "channel": 3,
      "note": 60,
      "start": 1.1851,
      "duration": 0.2002,
      "velocity": 127,
      "chip": "ym2612"
    },
    {
      "channel": 2,
      "note": 60,
      "start": 1.1884,
      "duration": 0.1971,
      "velocity": 127,
      "chip": "ym2612"
    },
    {
      "channel": 1,
      "note": 49,
      "start": 1.3915,
      "duration": 0.2034,
      "velocity": 101,
      "chip": "ym2612"
    },
    {
      "channel": 3,
      "note": 49,
      "start": 1.3937,
      "duration": 0.2014,
      "velocity": 127,
      "chip": "ym2612"
    },
    {
      "channel": 4,
      "note": 49,
      "start": 1.3961,
      "duration": 0.2432,
      "velocity": 122,
      "chip": "ym2612"
    },
    {
      "channel": 0,
      "note": 49,
      "start": 1.3989,
      "duration": 0.2402,
      "velocity": 111,
      "chip": "ym2612"
    },
    {
      "channel": 2,
      "note": 49,
      "start": 1.4024,
      "duration": 0.1929,
      "velocity": 127,
      "chip": "ym2612"
    },
    {
      "channel": 1,
      "note": 61,
      "start": 1.6021,
      "duration": 0.0807,
      "velocity": 101,
      "chip": "ym2612"
    },
    {
      "channel": 3,
      "note": 61,
      "start": 1.6044,
      "duration": 0.0785,
      "velocity": 127,
      "chip": "ym2612"
    },
    {
      "channel": 2,
      "note": 61,
      "start": 1.6075,
      "duration": 0.0756,
      "velocity": 127,
      "chip": "ym2612"
    },
    {
      "channel": 1,
      "note": 60,
      "start": 1.6888,
      "duration": 0.0885,
      "velocity": 101,
      "chip": "ym2612"
    },
    {
      "channel": 3,
      "note": 60,
      "start": 1.691,
      "duration": 0.0865,
      "velocity": 127,
      "chip": "ym2612"
    },
    {
      "channel": 4,
      "note": 49,
      "start": 1.6934,
      "duration": 0.0203,
      "velocity": 122,
      "chip": "ym2612"
    },
    {
      "channel": 2,
      "note": 60,
      "start": 1.6966,
      "duration": 0.0811,
      "velocity": 127,
      "chip": "ym2612"
    },
    {
      "channel": 4,
      "note": 49,
      "start": 1.7356,
      "duration": 0.0227,
      "velocity": 122,
      "chip": "ym2612"
    },
    {
      "channel": 1,
      "note": 49,
      "start": 1.7834,
      "duration": 0.2022,
      "velocity": 101,
      "chip": "ym2612"
    },
    {
      "channel": 3,
      "note": 49,
      "start": 1.7855,
      "duration": 0.2002,
      "velocity": 127,
      "chip": "ym2612"
    },
    {
      "channel": 4,
      "note": 49,
      "start": 1.7878,
      "duration": 0.198,
      "velocity": 122,
      "chip": "ym2612"
    },
    {
      "channel": 0,
      "note": 49,
      "start": 1.7913,
      "duration": 0.1941,
      "velocity": 111,
      "chip": "ym2612"
    },
    {
      "channel": 2,
      "note": 49,
      "start": 1.7947,
      "duration": 0.1913,
      "velocity": 127,
      "chip": "ym2612"
    },
    {
      "channel": 1,
      "note": 55,
      "start": 1.992,
      "duration": 0.0822,
      "velocity": 101,
      "chip": "ym2612"
    },
    {
      "channel": 3,
      "note": 55,
      "start": 1.9942,
      "duration": 0.0801,
      "velocity": 127,
      "chip": "ym2612"
    },
    {
      "channel": 4,
      "note": 55,
      "start": 1.9964,
      "duration": 0.078,
      "velocity": 122,
      "chip": "ym2612"
    },
    {
      "channel": 0,
      "note": 55,
      "start": 1.9995,
      "duration": 0.0746,
      "velocity": 111,
      "chip": "ym2612"
    },
    {
      "channel": 2,
      "note": 55,
      "start": 2.0019,
      "duration": 0.0726,
      "velocity": 127,
      "chip": "ym2612"
    },
    {
      "channel": 1,
      "note": 56,
      "start": 2.0802,
      "duration": 0.1992,
      "velocity": 101,
      "chip": "ym2612"
    },
    {
      "channel": 3,
      "note": 56,
      "start": 2.0824,
      "duration": 0.1971,
      "velocity": 127,
      "chip": "ym2612"
    },
    {
      "channel": 4,
      "note": 56,
      "start": 2.0847,
      "duration": 0.1949,
      "velocity": 122,
      "chip": "ym2612"
    },
    {
      "channel": 0,
      "note": 56,
      "start": 2.0875,
      "duration": 0.1917,
      "velocity": 111,
      "chip": "ym2612"
    },
    {
      "channel": 2,
      "note": 56,
      "start": 2.09,
      "duration": 0.1898,
      "velocity": 127,
      "chip": "ym2612"
    },
    {
      "channel": 1,
      "note": 49,
      "start": 2.2862,
      "duration": 0.0903,
      "velocity": 101,
      "chip": "ym2612"
    },
    {
      "channel": 3,
      "note": 49,
      "start": 2.2883,
      "duration": 0.0883,
      "velocity": 127,
      "chip": "ym2612"
    },
    {
      "channel": 4,
      "note": 49,
      "start": 2.2907,
      "duration": 0.0859,
      "velocity": 122,
      "chip": "ym2612"
    },
    {
      "channel": 0,
      "note": 49,
      "start": 2.2937,
      "duration": 0.0826,
      "velocity": 111,
      "chip": "ym2612"
    },
    {
      "channel": 2,
      "note": 61,
      "start": 2.297,
      "duration": 0.0797,
      "velocity": 127,
      "chip": "ym2612"
    },
    {
      "channel": 1,
      "note": 54,
      "start": 2.3854,
      "duration": 0.2652,
      "velocity": 101,
      "chip": "ym2612"
    },
    {
      "channel": 3,
      "note": 54,
      "start": 2.3884,
      "duration": 0.2623,
      "velocity": 127,
      "chip": "ym2612"
    },
    {
      "channel": 4,
      "note": 54,
      "start": 2.3923,
      "duration": 0.2586,
      "velocity": 122,
      "chip": "ym2612"
    },
    {
      "channel": 0,
      "note": 54,
      "start": 2.3962,
      "duration": 0.2542,
      "velocity": 111,
      "chip": "ym2612"
    },
    {
      "channel": 2,
      "note": 60,
      "start": 2.4013,
      "duration": 1.1261,
      "velocity": 127,
      "chip": "ym2612"
    },
    {
      "channel": 3,
      "note": 54,
      "start": 2.8071,
      "duration": 0.0044,
      "velocity": 127,
      "chip": "ym2612"
    },
    {
      "channel": 4,
      "note": 54,
      "start": 2.8095,
      "duration": 0.0022,
      "velocity": 122,
      "chip": "ym2612"
    },
    {
      "channel": 1,
      "note": 54,
      "start": 2.8985,
      "duration": 0.2017,
      "velocity": 101,
      "chip": "ym2612"
    },
    {
      "channel": 3,
      "note": 54,
      "start": 2.9006,
      "duration": 0.1996,
      "velocity": 127,
      "chip": "ym2612"
    },
    {
      "channel": 4,
      "note": 54,
      "start": 2.903,
      "duration": 0.1974,
      "velocity": 122,
      "chip": "ym2612"
    },
    {
      "channel": 0,
      "note": 54,
      "start": 2.9056,
      "duration": 0.1944,
      "velocity": 111,
      "chip": "ym2612"
    },
    {
      "channel": 1,
      "note": 57,
      "start": 3.1068,
      "duration": 0.4201,
      "velocity": 101,
      "chip": "ym2612"
    },
    {
      "channel": 3,
      "note": 57,
      "start": 3.1092,
      "duration": 0.4179,
      "velocity": 127,
      "chip": "ym2612"
    },
    {
      "channel": 4,
      "note": 57,
      "start": 3.1116,
      "duration": 0.4156,
      "velocity": 122,
      "chip": "ym2612"
    },
    {
      "channel": 0,
      "note": 57,
      "start": 3.1145,
      "duration": 0.4124,
      "velocity": 111,
      "chip": "ym2612"
    },
    {
      "channel": 1,
      "note": 52,
      "start": 3.5333,
      "duration": 0.2328,
      "velocity": 101,
      "chip": "ym2612"
    },
    {
      "channel": 3,
      "note": 52,
      "start": 3.5354,
      "duration": 0.2308,
      "velocity": 127,
      "chip": "ym2612"
    },
    {
      "channel": 4,
      "note": 52,
      "start": 3.5378,
      "duration": 0.2286,
      "velocity": 122,
      "chip": "ym2612"
    },
    {
      "channel": 0,
      "note": 52,
      "start": 3.5403,
      "duration": 0.2258,
      "velocity": 111,
      "chip": "ym2612"
    },
    {
      "channel": 1,
      "note": 54,
      "start": 3.7726,
      "duration": 0.2707,
      "velocity": 101,
      "chip": "ym2612"
    },
    {
      "channel": 3,
      "note": 54,
      "start": 3.7748,
      "duration": 0.2686,
      "velocity": 127,
      "chip": "ym2612"
    },
    {
      "channel": 4,
      "note": 54,
      "start": 3.777,
      "duration": 0.2665,
      "velocity": 122,
      "chip": "ym2612"
    },
    {
      "channel": 0,
      "note": 54,
      "start": 3.7797,
      "duration": 0.2635,
      "velocity": 111,
      "chip": "ym2612"
    },
    {
      "channel": 3,
      "note": 54,
      "start": 4.201,
      "duration": 0.0044,
      "velocity": 127,
      "chip": "ym2612"
    },
    {
      "channel": 4,
      "note": 54,
      "start": 4.2033,
      "duration": 0.0021,
      "velocity": 122,
      "chip": "ym2612"
    },
    {
      "channel": 1,
      "note": 54,
      "start": 4.2926,
      "duration": 0.1851,
      "velocity": 101,
      "chip": "ym2612"
    },
    {
      "channel": 3,
      "note": 54,
      "start": 4.2951,
      "duration": 0.1827,
      "velocity": 127,
      "chip": "ym2612"
    },
    {
      "channel": 4,
      "note": 54,
      "start": 4.2975,
      "duration": 0.1805,
      "velocity": 122,
      "chip": "ym2612"
    },
    {
      "channel": 0,
      "note": 54,
      "start": 4.3001,
      "duration": 0.1775,
      "velocity": 111,
      "chip": "ym2612"
    },
    {
      "channel": 1,
      "note": 57,
      "start": 4.4849,
      "duration": 0.4359,
      "velocity": 101,
      "chip": "ym2612"
    },
    {
      "channel": 3,
      "note": 57,
      "start": 4.4871,
      "duration": 0.4338,
      "velocity": 127,
      "chip": "ym2612"
    },
    {
      "channel": 4,
      "note": 57,
      "start": 4.4896,
      "duration": 0.4316,
      "velocity": 122,
      "chip": "ym2612"
    },
    {
      "channel": 0,
      "note": 57,
      "start": 4.4922,
      "duration": 0.4284,
      "velocity": 111,
      "chip": "ym2612"
    },
    {
      "channel": 1,
      "note": 52,
      "start": 4.9271,
      "duration": 0.217,
      "velocity": 101,
      "chip": "ym2612"
    },
    {
      "channel": 3,
      "note": 52,
      "start": 4.9292,
      "duration": 0.2149,
      "velocity": 127,
      "chip": "ym2612"
    },
    {
      "channel": 4,
      "note": 52,
      "start": 4.9314,
      "duration": 0.2129,
      "velocity": 122,
      "chip": "ym2612"
    },
    {
      "channel": 0,
      "note": 52,
      "start": 4.9339,
      "duration": 0.21,
      "velocity": 111,
      "chip": "ym2612"
    },
    {
      "channel": 1,
      "note": 54,
      "start": 5.1505,
      "duration": 0.2869,
      "velocity": 101,
      "chip": "ym2612"
    },
    {
      "channel": 3,
      "note": 54,
      "start": 5.1527,
      "duration": 0.2848,
      "velocity": 127,
      "chip": "ym2612"
    },
    {
      "channel": 4,
      "note": 54,
      "start": 5.1549,
      "duration": 0.2828,
      "velocity": 122,
      "chip": "ym2612"
    },
    {
      "channel": 0,
      "note": 54,
      "start": 5.1576,
      "duration": 0.2797,
      "velocity": 111,
      "chip": "ym2612"
    },
    {
      "channel": 2,
      "note": 48,
      "start": 5.161,
      "duration": 1.164,
      "velocity": 127,
      "chip": "ym2612"
    },
    {
      "channel": 3,
      "note": 54,
      "start": 5.5949,
      "duration": 0.0044,
      "velocity": 127,
      "chip": "ym2612"
    },
    {
      "channel": 4,
      "note": 54,
      "start": 5.5976,
      "duration": 0.0019,
      "velocity": 122,
      "chip": "ym2612"
    },
    {
      "channel": 1,
      "note": 54,
      "start": 5.6794,
      "duration": 0.2027,
      "velocity": 101,
      "chip": "ym2612"
    },
    {
      "channel": 3,
      "note": 54,
      "start": 5.6818,
      "duration": 0.2005,
      "velocity": 127,
      "chip": "ym2612"
    },
    {
      "channel": 4,
      "note": 54,
      "start": 5.6841,
      "duration": 0.1983,
      "velocity": 122,
      "chip": "ym2612"
    },
    {
      "channel": 0,
      "note": 54,
      "start": 5.6872,
      "duration": 0.1949,
      "velocity": 111,
      "chip": "ym2612"
    },
    {
      "channel": 1,
      "note": 57,
      "start": 5.8889,
      "duration": 0.4357,
      "velocity": 101,
      "chip": "ym2612"
    },
    {
      "channel": 3,
      "note": 57,
      "start": 5.8913,
      "duration": 0.4334,
      "velocity": 127,
      "chip": "ym2612"
    },
    {
      "channel": 4,
      "note": 57,
      "start": 5.8936,
      "duration": 0.4313,
      "velocity": 122,
      "chip": "ym2612"
    },
    {
      "channel": 0,
      "note": 57,
      "start": 5.8962,
      "duration": 0.4283,
      "velocity": 111,
      "chip": "ym2612"
    },
    {
      "channel": 1,
      "note": 52,
      "start": 6.3322,
      "duration": 0.2141,
      "velocity": 101,
      "chip": "ym2612"
    },
    {
      "channel": 3,
      "note": 52,
      "start": 6.3347,
      "duration": 0.2117,
      "velocity": 127,
      "chip": "ym2612"
    },
    {
      "channel": 4,
      "note": 52,
      "start": 6.337,
      "duration": 0.2096,
      "velocity": 122,
      "chip": "ym2612"
    },
    {
      "channel": 0,
      "note": 52,
      "start": 6.3393,
      "duration": 0.2069,
      "velocity": 111,
      "chip": "ym2612"
    },
    {
      "channel": 1,
      "note": 54,
      "start": 6.5527,
      "duration": 0.2698,
      "velocity": 101,
      "chip": "ym2612"
    },
    {
      "channel": 3,
      "note": 54,
      "start": 6.5549,
      "duration": 0.2678,
      "velocity": 127,
      "chip": "ym2612"
    },
    {
      "channel": 4,
      "note": 54,
      "start": 6.5571,
      "duration": 0.2657,
      "velocity": 122,
      "chip": "ym2612"
    },
    {
      "channel": 0,
      "note": 54,
      "start": 6.5597,
      "duration": 0.2627,
      "velocity": 111,
      "chip": "ym2612"
    },
    {
      "channel": 3,
      "note": 54,
      "start": 6.9799,
      "duration": 0.0104,
      "velocity": 127,
      "chip": "ym2612"
    },
    {
      "channel": 4,
      "note": 54,
      "start": 6.9821,
      "duration": 0.0083,
      "velocity": 122,
      "chip": "ym2612"
    },
    {
      "channel": 1,
      "note": 54,
      "start": 7.0724,
      "duration": 0.2014,
      "velocity": 101,
      "chip": "ym2612"
    },
    {
      "channel": 3,
      "note": 54,
      "start": 7.0746,
      "duration": 0.1994,
      "velocity": 127,
      "chip": "ym2612"
    },
    {
      "channel": 4,
      "note": 54,
      "start": 7.077,
      "duration": 0.1971,
      "velocity": 122,
      "chip": "ym2612"
    },
    {
      "channel": 0,
      "note": 54,
      "start": 7.0795,
      "duration": 0.1941,
      "velocity": 111,
      "chip": "ym2612"
    },
    {
      "channel": 1,
      "note": 57,
      "start": 7.2807,
      "duration": 0.4201,
      "velocity": 101,
      "chip": "ym2612"
    },
    {
      "channel": 3,
      "note": 57,
      "start": 7.2828,
      "duration": 0.418,
      "velocity": 127,
      "chip": "ym2612"
    },
    {
      "channel": 4,
      "note": 57,
      "start": 7.2855,
      "duration": 0.4155,
      "velocity": 122,
      "chip": "ym2612"
    },
    {
      "channel": 0,
      "note": 57,
      "start": 7.2882,
      "duration": 0.4124,
      "velocity": 111,
      "chip": "ym2612"
    },
    {
      "channel": 1,
      "note": 52,
      "start": 7.707,
      "duration": 0.2339,
      "velocity": 101,
      "chip": "ym2612"
    },
    {
      "channel": 3,
      "note": 52,
      "start": 7.7092,
      "duration": 0.2319,
      "velocity": 127,
      "chip": "ym2612"
    },
    {
      "channel": 4,
      "note": 52,
      "start": 7.7112,
      "duration": 0.2299,
      "velocity": 122,
      "chip": "ym2612"
    },
    {
      "channel": 0,
      "note": 52,
      "start": 7.714,
      "duration": 0.2268,
      "velocity": 111,
      "chip": "ym2612"
    },
    {
      "channel": 1,
      "note": 49,
      "start": 7.9478,
      "duration": 0.1868,
      "velocity": 101,
      "chip": "ym2612"
    },
    {
      "channel": 3,
      "note": 49,
      "start": 7.95,
      "duration": 0.1846,
      "velocity": 127,
      "chip": "ym2612"
    },
    {
      "channel": 4,
      "note": 49,
      "start": 7.9524,
      "duration": 0.2325,
      "velocity": 122,
      "chip": "ym2612"
    },
    {
      "channel": 0,
      "note": 49,
      "start": 7.9549,
      "duration": 0.2297,
      "velocity": 111,
      "chip": "ym2612"
    },
    {
      "channel": 2,
      "note": 49,
      "start": 7.9584,
      "duration": 0.1765,
      "velocity": 127,
      "chip": "ym2612"
    },
    {
      "channel": 1,
      "note": 61,
      "start": 8.1419,
      "duration": 0.0861,
      "velocity": 101,
      "chip": "ym2612"
    },
    {
      "channel": 3,
      "note": 61,
      "start": 8.144,
      "duration": 0.084,
      "velocity": 127,
      "chip": "ym2612"
    },
    {
      "channel": 2,
      "note": 61,
      "start": 8.1465,
      "duration": 0.0816,
      "velocity": 127,
      "chip": "ym2612"
    },
    {
      "channel": 1,
      "note": 60,
      "start": 8.234,
      "duration": 0.0416,
      "velocity": 101,
      "chip": "ym2612"
    },
    {
      "channel": 3,
      "note": 60,
      "start": 8.2366,
      "duration": 0.0833,
      "velocity": 127,
      "chip": "ym2612"
    },
    {
      "channel": 2,
      "note": 60,
      "start": 8.2395,
      "duration": 0.0363,
      "velocity": 127,
      "chip": "ym2612"
    },
    {
      "channel": 1,
      "note": 49,
      "start": 8.326,
      "duration": 0.2023,
      "velocity": 101,
      "chip": "ym2612"
    },
    {
      "channel": 3,
      "note": 49,
      "start": 8.3283,
      "duration": 0.2001,
      "velocity": 127,
      "chip": "ym2612"
    },
    {
      "channel": 4,
      "note": 49,
      "start": 8.3305,
      "duration": 0.2412,
      "velocity": 122,
      "chip": "ym2612"
    },
    {
      "channel": 0,
      "note": 49,
      "start": 8.3331,
      "duration": 0.2385,
      "velocity": 111,
      "chip": "ym2612"
    },
    {
      "channel": 2,
      "note": 49,
      "start": 8.3356,
      "duration": 0.1931,
      "velocity": 127,
      "chip": "ym2612"
    },
    {
      "channel": 1,
      "note": 61,
      "start": 8.5348,
      "duration": 0.0793,
      "velocity": 101,
      "chip": "ym2612"
    },
    {
      "channel": 3,
      "note": 61,
      "start": 8.537,
      "duration": 0.0773,
      "velocity": 127,
      "chip": "ym2612"
    },
    {
      "channel": 2,
      "note": 61,
      "start": 8.5396,
      "duration": 0.075,
      "velocity": 127,
      "chip": "ym2612"
    },
    {
      "channel": 1,
      "note": 60,
      "start": 8.6213,
      "duration": 0.1517,
      "velocity": 101,
      "chip": "ym2612"
    },
    {
      "channel": 3,
      "note": 60,
      "start": 8.6236,
      "duration": 0.1995,
      "velocity": 127,
      "chip": "ym2612"
    },
    {
      "channel": 2,
      "note": 60,
      "start": 8.6263,
      "duration": 0.147,
      "velocity": 127,
      "chip": "ym2612"
    },
    {
      "channel": 1,
      "note": 49,
      "start": 8.8293,
      "duration": 0.2032,
      "velocity": 101,
      "chip": "ym2612"
    },
    {
      "channel": 3,
      "note": 49,
      "start": 8.8315,
      "duration": 0.2011,
      "velocity": 127,
      "chip": "ym2612"
    },
    {
      "channel": 4,
      "note": 49,
      "start": 8.8338,
      "duration": 0.2494,
      "velocity": 122,
      "chip": "ym2612"
    },
    {
      "channel": 0,
      "note": 49,
      "start": 8.8363,
      "duration": 0.2468,
      "velocity": 111,
      "chip": "ym2612"
    },
    {
      "channel": 2,
      "note": 49,
      "start": 8.84,
      "duration": 0.1928,
      "velocity": 127,
      "chip": "ym2612"
    },
    {
      "channel": 1,
      "note": 61,
      "start": 9.0395,
      "duration": 0.0798,
      "velocity": 101,
      "chip": "ym2612"
    },
    {
      "channel": 3,
      "note": 61,
      "start": 9.042,
      "duration": 0.0774,
      "velocity": 127,
      "chip": "ym2612"
    },
    {
      "channel": 2,
      "note": 61,
      "start": 9.0444,
      "duration": 0.0751,
      "velocity": 127,
      "chip": "ym2612"
    },
    {
      "channel": 1,
      "note": 54,
      "start": 9.1256,
      "duration": 0.2847,
      "velocity": 101,
      "chip": "ym2612"
    },
    {
      "channel": 4,
      "note": 54,
      "start": 9.128,
      "duration": 0.2825,
      "velocity": 122,
      "chip": "ym2612"
    },
    {
      "channel": 0,
      "note": 54,
      "start": 9.1311,
      "duration": 0.279,
      "velocity": 111,
      "chip": "ym2612"
    },
    {
      "channel": 2,
      "note": 54,
      "start": 9.1345,
      "duration": 0.1926,
      "velocity": 127,
      "chip": "ym2612"
    },
    {
      "channel": 2,
      "note": 57,
      "start": 9.3319,
      "duration": 0.2284,
      "velocity": 127,
      "chip": "ym2612"
    },
    {
      "channel": 2,
      "note": 61,
      "start": 9.5677,
      "duration": 0.0848,
      "velocity": 127,
      "chip": "ym2612"
    },
    {
      "channel": 1,
      "note": 54,
      "start": 9.6585,
      "duration": 0.1812,
      "velocity": 101,
      "chip": "ym2612"
    },
    {
      "channel": 4,
      "note": 54,
      "start": 9.6609,
      "duration": 0.1789,
      "velocity": 122,
      "chip": "ym2612"
    },
    {
      "channel": 0,
      "note": 54,
      "start": 9.6643,
      "duration": 0.1753,
      "velocity": 111,
      "chip": "ym2612"
    },
    {
      "channel": 2,
      "note": 61,
      "start": 9.6678,
      "duration": 0.0082,
      "velocity": 127,
      "chip": "ym2612"
    },
    {
      "channel": 2,
      "note": 60,
      "start": 9.6806,
      "duration": 0.1594,
      "velocity": 127,
      "chip": "ym2612"
    },
    {
      "channel": 1,
      "note": 57,
      "start": 9.8465,
      "duration": 0.4378,
      "velocity": 101,
      "chip": "ym2612"
    },
    {
      "channel": 4,
      "note": 57,
      "start": 9.8493,
      "duration": 0.4351,
      "velocity": 122,
      "chip": "ym2612"
    },
    {
      "channel": 0,
      "note": 57,
      "start": 9.8527,
      "duration": 0.4315,
      "velocity": 111,
      "chip": "ym2612"
    },
    {
      "channel": 2,
      "note": 57,
      "start": 9.8563,
      "duration": 0.1947,
      "velocity": 127,
      "chip": "ym2612"
    },
    {
      "channel": 2,
      "note": 54,
      "start": 10.0565,
      "duration": 0.6628,
      "velocity": 127,
      "chip": "ym2612"
    },
    {
      "channel": 1,
      "note": 52,
      "start": 10.2914,
      "duration": 0.2176,
      "velocity": 101,
      "chip": "ym2612"
    },
    {
      "channel": 4,
      "note": 52,
      "start": 10.2936,
      "duration": 0.2156,
      "velocity": 122,
      "chip": "ym2612"
    },
    {
      "channel": 0,
      "note": 52,
      "start": 10.2965,
      "duration": 0.2124,
      "velocity": 111,
      "chip": "ym2612"
    },
    {
      "channel": 1,
      "note": 54,
      "start": 10.5158,
      "duration": 0.2701,
      "velocity": 101,
      "chip": "ym2612"
    },
    {
      "channel": 4,
      "note": 54,
      "start": 10.5181,
      "duration": 0.2679,
      "velocity": 122,
      "chip": "ym2612"
    },
    {
      "channel": 0,
      "note": 54,
      "start": 10.5206,
      "duration": 0.2652,
      "velocity": 111,
      "chip": "ym2612"
    },
    {
      "channel": 2,
      "note": 54,
      "start": 10.7244,
      "duration": 0.2283,
      "velocity": 127,
      "chip": "ym2612"
    },
    {
      "channel": 2,
      "note": 57,
      "start": 10.9612,
      "duration": 0.0756,
      "velocity": 127,
      "chip": "ym2612"
    },
    {
      "channel": 1,
      "note": 54,
      "start": 11.0428,
      "duration": 0.202,
      "velocity": 101,
      "chip": "ym2612"
    },
    {
      "channel": 4,
      "note": 54,
      "start": 11.0452,
      "duration": 0.1998,
      "velocity": 122,
      "chip": "ym2612"
    },
    {
      "channel": 0,
      "note": 54,
      "start": 11.0483,
      "duration": 0.1964,
      "velocity": 111,
      "chip": "ym2612"
    },
    {
      "channel": 2,
      "note": 61,
      "start": 11.0507,
      "duration": 0.1945,
      "velocity": 127,
      "chip": "ym2612"
    },
    {
      "channel": 1,
      "note": 57,
      "start": 11.2516,
      "duration": 0.4198,
      "velocity": 101,
      "chip": "ym2612"
    },
    {
      "channel": 4,
      "note": 57,
      "start": 11.254,
      "duration": 0.4175,
      "velocity": 122,
      "chip": "ym2612"
    },
    {
      "channel": 0,
      "note": 57,
      "start": 11.2573,
      "duration": 0.4139,
      "velocity": 111,
      "chip": "ym2612"
    },
    {
      "channel": 2,
      "note": 60,
      "start": 11.2597,
      "duration": 0.1951,
      "velocity": 127,
      "chip": "ym2612"
    },
    {
      "channel": 2,
      "note": 61,
      "start": 11.4594,
      "duration": 0.2123,
      "velocity": 127,
      "chip": "ym2612"
    },
    {
      "channel": 1,
      "note": 52,
      "start": 11.6778,
      "duration": 0.2334,
      "velocity": 101,
      "chip": "ym2612"
    },
    {
      "channel": 4,
      "note": 52,
      "start": 11.6798,
      "duration": 0.2314,
      "velocity": 122,
      "chip": "ym2612"
    },
    {
      "channel": 0,
      "note": 52,
      "start": 11.6825,
      "duration": 0.2284,
      "velocity": 111,
      "chip": "ym2612"
    },
    {
      "channel": 2,
      "note": 60,
      "start": 11.685,
      "duration": 0.0814,
      "velocity": 127,
      "chip": "ym2612"
    },
    {
      "channel": 2,
      "note": 57,
      "start": 11.7704,
      "duration": 0.141,
      "velocity": 127,
      "chip": "ym2612"
    },
    {
      "channel": 1,
      "note": 54,
      "start": 11.9176,
      "duration": 0.2705,
      "velocity": 101,
      "chip": "ym2612"
    },
    {
      "channel": 4,
      "note": 54,
      "start": 11.9199,
      "duration": 0.2683,
      "velocity": 122,
      "chip": "ym2612"
    },
    {
      "channel": 0,
      "note": 54,
      "start": 11.9233,
      "duration": 0.2646,
      "velocity": 111,
      "chip": "ym2612"
    },
    {
      "channel": 2,
      "note": 60,
      "start": 11.9264,
      "duration": 0.1951,
      "velocity": 127,
      "chip": "ym2612"
    },
    {
      "channel": 3,
      "note": 66,
      "start": 12.1248,
      "duration": 0.1466,
      "velocity": 127,
      "chip": "ym2612"
    },
    {
      "channel": 5,
      "note": 73,
      "start": 12.1275,
      "duration": 0.1441,
      "velocity": 127,
      "chip": "ym2612"
    },
    {
      "channel": 2,
      "note": 61,
      "start": 12.1324,
      "duration": 0.5083,
      "velocity": 127,
      "chip": "ym2612"
    },
    {
      "channel": 3,
      "note": 66,
      "start": 12.3454,
      "duration": 0.0422,
      "velocity": 127,
      "chip": "ym2612"
    },
    {
      "channel": 0,
      "note": 73,
      "start": 12.3479,
      "duration": 0.0395,
      "velocity": 127,
      "chip": "ym2612"
    },
    {
      "channel": 1,
      "note": 54,
      "start": 12.4379,
      "duration": 0.0093,
      "velocity": 101,
      "chip": "ym2612"
    },
    {
      "channel": 0,
      "note": 66,
      "start": 12.4401,
      "duration": 0.0834,
      "velocity": 127,
      "chip": "ym2612"
    },
    {
      "channel": 3,
      "note": 73,
      "start": 12.4424,
      "duration": 0.0813,
      "velocity": 127,
      "chip": "ym2612"
    },
    {
      "channel": 4,
      "note": 54,
      "start": 12.4453,
      "duration": 0.1951,
      "velocity": 122,
      "chip": "ym2612"
    },
    {
      "channel": 1,
      "note": 54,
      "start": 12.4493,
      "duration": 0.1909,
      "velocity": 111,
      "chip": "ym2612"
    },
    {
      "channel": 0,
      "note": 57,
      "start": 12.6476,
      "duration": 0.4199,
      "velocity": 101,
      "chip": "ym2612"
    },
    {
      "channel": 3,
      "note": 66,
      "start": 12.65,
      "duration": 0.1843,
      "velocity": 127,
      "chip": "ym2612"
    },
    {
      "channel": 1,
      "note": 73,
      "start": 12.6523,
      "duration": 0.1819,
      "velocity": 127,
      "chip": "ym2612"
    },
    {
      "channel": 4,
      "note": 57,
      "start": 12.6549,
      "duration": 0.4128,
      "velocity": 122,
      "chip": "ym2612"
    },
    {
      "channel": 2,
      "note": 57,
      "start": 12.6588,
      "duration": 0.409,
      "velocity": 111,
      "chip": "ym2612"
    },
    {
      "channel": 1,
      "note": 66,
      "start": 12.8377,
      "duration": 0.1131,
      "velocity": 127,
      "chip": "ym2612"
    },
    {
      "channel": 3,
      "note": 72,
      "start": 12.8402,
      "duration": 0.1108,
      "velocity": 127,
      "chip": "ym2612"
    },
    {
      "channel": 0,
      "note": 52,
      "start": 13.075,
      "duration": 0.2305,
      "velocity": 101,
      "chip": "ym2612"
    },
    {
      "channel": 1,
      "note": 66,
      "start": 13.0775,
      "duration": 0.0412,
      "velocity": 127,
      "chip": "ym2612"
    },
    {
      "channel": 3,
      "note": 72,
      "start": 13.0797,
      "duration": 0.039,
      "velocity": 127,
      "chip": "ym2612"
    },
    {
      "channel": 4,
      "note": 52,
      "start": 13.0818,
      "duration": 0.2238,
      "velocity": 122,
      "chip": "ym2612"
    },
    {
      "channel": 2,
      "note": 52,
      "start": 13.0844,
      "duration": 0.2214,
      "velocity": 111,
      "chip": "ym2612"
    },
    {
      "channel": 1,
      "note": 66,
      "start": 13.1638,
      "duration": 0.0368,
      "velocity": 127,
      "chip": "ym2612"
    },
    {
      "channel": 3,
      "note": 72,
      "start": 13.1661,
      "duration": 0.0346,
      "velocity": 127,
      "chip": "ym2612"
    },
    {
      "channel": 0,
      "note": 54,
      "start": 13.3119,
      "duration": 0.2708,
      "velocity": 101,
      "chip": "ym2612"
    },
    {
      "channel": 1,
      "note": 66,
      "start": 13.3144,
      "duration": 0.1684,
      "velocity": 127,
      "chip": "ym2612"
    },
    {
      "channel": 3,
      "note": 72,
      "start": 13.3165,
      "duration": 0.1663,
      "velocity": 127,
      "chip": "ym2612"
    },
    {
      "channel": 4,
      "note": 54,
      "start": 13.3191,
      "duration": 0.2639,
      "velocity": 122,
      "chip": "ym2612"
    },
    {
      "channel": 2,
      "note": 54,
      "start": 13.3227,
      "duration": 0.2604,
      "velocity": 111,
      "chip": "ym2612"
    },
    {
      "channel": 1,
      "note": 66,
      "start": 13.503,
      "duration": 0.113,
      "velocity": 127,
      "chip": "ym2612"
    },
    {
      "channel": 3,
      "note": 69,
      "start": 13.5055,
      "duration": 0.1106,
      "velocity": 127,
      "chip": "ym2612"
    },
    {
      "channel": 1,
      "note": 66,
      "start": 13.7402,
      "duration": 0.0356,
      "velocity": 127,
      "chip": "ym2612"
    },
    {
      "channel": 3,
      "note": 69,
      "start": 13.7424,
      "duration": 0.0334,
      "velocity": 127,
      "chip": "ym2612"
    },
    {
      "channel": 0,
      "note": 54,
      "start": 13.8331,
      "duration": 0.1854,
      "velocity": 101,
      "chip": "ym2612"
    },
    {
      "channel": 1,
      "note": 66,
      "start": 13.8354,
      "duration": 0.0499,
      "velocity": 127,
      "chip": "ym2612"
    },
    {
      "channel": 3,
      "note": 69,
      "start": 13.8377,
      "duration": 0.0478,
      "velocity": 127,
      "chip": "ym2612"
    },
    {
      "channel": 4,
      "note": 54,
      "start": 13.8402,
      "duration": 0.1785,
      "velocity": 122,
      "chip": "ym2612"
    },
    {
      "channel": 2,
      "note": 54,
      "start": 13.8437,
      "duration": 0.1751,
      "velocity": 111,
      "chip": "ym2612"
    },
    {
      "channel": 0,
      "note": 57,
      "start": 14.0253,
      "duration": 0.437,
      "velocity": 101,
      "chip": "ym2612"
    },
    {
      "channel": 1,
      "note": 69,
      "start": 14.0278,
      "duration": 0.2014,
      "velocity": 127,
      "chip": "ym2612"
    },
    {
      "channel": 3,
      "note": 66,
      "start": 14.0302,
      "duration": 0.199,
      "velocity": 127,
      "chip": "ym2612"
    },
    {
      "channel": 4,
      "note": 57,
      "start": 14.0326,
      "duration": 0.43,
      "velocity": 122,
      "chip": "ym2612"
    },
    {
      "channel": 2,
      "note": 57,
      "start": 14.0363,
      "duration": 0.4263,
      "velocity": 111,
      "chip": "ym2612"
    },
    {
      "channel": 1,
      "note": 61,
      "start": 14.2325,
      "duration": 0.1132,
      "velocity": 127,
      "chip": "ym2612"
    },
    {
      "channel": 3,
      "note": 66,
      "start": 14.2351,
      "duration": 0.1108,
      "velocity": 127,
      "chip": "ym2612"
    },
    {
      "channel": 0,
      "note": 52,
      "start": 14.4696,
      "duration": 0.2156,
      "velocity": 101,
      "chip": "ym2612"
    },
    {
      "channel": 1,
      "note": 61,
      "start": 14.472,
      "duration": 0.0422,
      "velocity": 127,
      "chip": "ym2612"
    },
    {
      "channel": 3,
      "note": 66,
      "start": 14.4742,
      "duration": 0.0399,
      "velocity": 127,
      "chip": "ym2612"
    },
    {
      "channel": 4,
      "note": 52,
      "start": 14.4764,
      "duration": 0.209,
      "velocity": 122,
      "chip": "ym2612"
    },
    {
      "channel": 2,
      "note": 52,
      "start": 14.479,
      "duration": 0.2066,
      "velocity": 111,
      "chip": "ym2612"
    },
    {
      "channel": 1,
      "note": 61,
      "start": 14.559,
      "duration": 0.0364,
      "velocity": 127,
      "chip": "ym2612"
    },
    {
      "channel": 3,
      "note": 66,
      "start": 14.5613,
      "duration": 0.0342,
      "velocity": 127,
      "chip": "ym2612"
    },
    {
      "channel": 0,
      "note": 54,
      "start": 14.6921,
      "duration": 0.2644,
      "velocity": 101,
      "chip": "ym2612"
    },
    {
      "channel": 1,
      "note": 54,
      "start": 14.6948,
      "duration": 0.2618,
      "velocity": 127,
      "chip": "ym2612"
    },
    {
      "channel": 4,
      "note": 54,
      "start": 14.6974,
      "duration": 0.2593,
      "velocity": 122,
      "chip": "ym2612"
    },
    {
      "channel": 2,
      "note": 54,
      "start": 14.7019,
      "duration": 0.255,
      "velocity": 111,
      "chip": "ym2612"
    },
    {
      "channel": 3,
      "note": 66,
      "start": 14.7049,
      "duration": 0.1908,
      "velocity": 127,
      "chip": "ym2612"
    },
    {
      "channel": 3,
      "note": 69,
      "start": 14.9029,
      "duration": 0.2037,
      "velocity": 127,
      "chip": "ym2612"
    },
    {
      "channel": 1,
      "note": 54,
      "start": 15.114,
      "duration": 0.0043,
      "velocity": 127,
      "chip": "ym2612"
    },
    {
      "channel": 3,
      "note": 73,
      "start": 15.1169,
      "duration": 0.075,
      "velocity": 127,
      "chip": "ym2612"
    },
    {
      "channel": 0,
      "note": 54,
      "start": 15.1988,
      "duration": 0.2005,
      "velocity": 101,
      "chip": "ym2612"
    },
    {
      "channel": 1,
      "note": 54,
      "start": 15.2009,
      "duration": 0.1986,
      "velocity": 127,
      "chip": "ym2612"
    },
    {
      "channel": 4,
      "note": 54,
      "start": 15.2032,
      "duration": 0.1966,
      "velocity": 122,
      "chip": "ym2612"
    },
    {
      "channel": 2,
      "note": 54,
      "start": 15.2072,
      "duration": 0.1927,
      "velocity": 111,
      "chip": "ym2612"
    },
    {
      "channel": 3,
      "note": 73,
      "start": 15.2098,
      "duration": 0.0229,
      "velocity": 127,
      "chip": "ym2612"
    },
    {
      "channel": 3,
      "note": 72,
      "start": 15.2366,
      "duration": 0.163,
      "velocity": 127,
      "chip": "ym2612"
    },
    {
      "channel": 0,
      "note": 57,
      "start": 15.403,
      "duration": 0.4391,
      "velocity": 101,
      "chip": "ym2612"
    },
    {
      "channel": 1,
      "note": 57,
      "start": 15.4058,
      "duration": 0.4365,
      "velocity": 127,
      "chip": "ym2612"
    },
    {
      "channel": 4,
      "note": 57,
      "start": 15.4086,
      "duration": 0.4338,
      "velocity": 122,
      "chip": "ym2612"
    },
    {
      "channel": 2,
      "note": 57,
      "start": 15.4127,
      "duration": 0.43,
      "velocity": 111,
      "chip": "ym2612"
    },
    {
      "channel": 3,
      "note": 69,
      "start": 15.4156,
      "duration": 0.2172,
      "velocity": 127,
      "chip": "ym2612"
    },
    {
      "channel": 3,
      "note": 66,
      "start": 15.6403,
      "duration": 0.7091,
      "velocity": 127,
      "chip": "ym2612"
    },
    {
      "channel": 0,
      "note": 52,
      "start": 15.8485,
      "duration": 0.2908,
      "velocity": 101,
      "chip": "ym2612"
    },
    {
      "channel": 1,
      "note": 52,
      "start": 15.8507,
      "duration": 0.2888,
      "velocity": 127,
      "chip": "ym2612"
    },
    {
      "channel": 4,
      "note": 52,
      "start": 15.8528,
      "duration": 0.2869,
      "velocity": 122,
      "chip": "ym2612"
    },
    {
      "channel": 2,
      "note": 52,
      "start": 15.8555,
      "duration": 0.2844,
      "velocity": 111,
      "chip": "ym2612"
    },
    {
      "channel": 0,
      "note": 54,
      "start": 16.1459,
      "duration": 0.2484,
      "velocity": 101,
      "chip": "ym2612"
    },
    {
      "channel": 1,
      "note": 54,
      "start": 16.1483,
      "duration": 0.2462,
      "velocity": 127,
      "chip": "ym2612"
    },
    {
      "channel": 4,
      "note": 54,
      "start": 16.1506,
      "duration": 0.2441,
      "velocity": 122,
      "chip": "ym2612"
    },
    {
      "channel": 2,
      "note": 54,
      "start": 16.1533,
      "duration": 0.2416,
      "velocity": 111,
      "chip": "ym2612"
    },
    {
      "channel": 3,
      "note": 66,
      "start": 16.3573,
      "duration": 0.1871,
      "velocity": 127,
      "chip": "ym2612"
    },
    {
      "channel": 1,
      "note": 54,
      "start": 16.5518,
      "duration": 0.0108,
      "velocity": 127,
      "chip": "ym2612"
    },
    {
      "channel": 3,
      "note": 69,
      "start": 16.5547,
      "duration": 0.0822,
      "velocity": 127,
      "chip": "ym2612"
    },
    {
      "channel": 0,
      "note": 54,
      "start": 16.6437,
      "duration": 0.203,
      "velocity": 101,
      "chip": "ym2612"
    },
    {
      "channel": 1,
      "note": 54,
      "start": 16.6463,
      "duration": 0.2005,
      "velocity": 127,
      "chip": "ym2612"
    },
    {
      "channel": 4,
      "note": 54,
      "start": 16.6485,
      "duration": 0.1986,
      "velocity": 122,
      "chip": "ym2612"
    },
    {
      "channel": 2,
      "note": 54,
      "start": 16.653,
      "duration": 0.1942,
      "velocity": 111,
      "chip": "ym2612"
    },
    {
      "channel": 3,
      "note": 73,
      "start": 16.6552,
      "duration": 0.1917,
      "velocity": 127,
      "chip": "ym2612"
    },
    {
      "channel": 0,
      "note": 57,
      "start": 16.8533,
      "duration": 0.3982,
      "velocity": 101,
      "chip": "ym2612"
    },
    {
      "channel": 1,
      "note": 57,
      "start": 16.8557,
      "duration": 0.396,
      "velocity": 127,
      "chip": "ym2612"
    },
    {
      "channel": 4,
      "note": 57,
      "start": 16.8585,
      "duration": 0.3934,
      "velocity": 122,
      "chip": "ym2612"
    },
    {
      "channel": 2,
      "note": 57,
      "start": 16.863,
      "duration": 0.389,
      "velocity": 111,
      "chip": "ym2612"
    },
    {
      "channel": 3,
      "note": 72,
      "start": 16.8653,
      "duration": 0.1924,
      "velocity": 127,
      "chip": "ym2612"
    },
    {
      "channel": 3,
      "note": 73,
      "start": 17.0647,
      "duration": 0.1871,
      "velocity": 127,
      "chip": "ym2612"
    },
    {
      "channel": 0,
      "note": 52,
      "start": 17.2594,
      "duration": 0.2973,
      "velocity": 101,
      "chip": "ym2612"
    },
    {
      "channel": 1,
      "note": 52,
      "start": 17.2615,
      "duration": 0.2953,
      "velocity": 127,
      "chip": "ym2612"
    },
    {
      "channel": 4,
      "note": 52,
      "start": 17.2636,
      "duration": 0.2935,
      "velocity": 122,
      "chip": "ym2612"
    },
    {
      "channel": 2,
      "note": 52,
      "start": 17.2668,
      "duration": 0.2905,
      "velocity": 111,
      "chip": "ym2612"
    },
    {
      "channel": 3,
      "note": 72,
      "start": 17.27,
      "duration": 0.0771,
      "velocity": 127,
      "chip": "ym2612"
    },
    {
      "channel": 3,
      "note": 69,
      "start": 17.3549,
      "duration": 0.2021,
      "velocity": 127,
      "chip": "ym2612"
    },
    {
      "channel": 0,
      "note": 54,
      "start": 17.5633,
      "duration": 0.1982,
      "velocity": 101,
      "chip": "ym2612"
    },
    {
      "channel": 4,
      "note": 54,
      "start": 17.5658,
      "duration": 0.245,
      "velocity": 122,
      "chip": "ym2612"
    },
    {
      "channel": 2,
      "note": 54,
      "start": 17.569,
      "duration": 0.242,
      "velocity": 111,
      "chip": "ym2612"
    },
    {
      "channel": 3,
      "note": 72,
      "start": 17.5724,
      "duration": 0.1781,
      "velocity": 127,
      "chip": "ym2612"
    },
    {
      "channel": 1,
      "note": 66,
      "start": 17.7572,
      "duration": 0.1368,
      "velocity": 127,
      "chip": "ym2612"
    },
    {
      "channel": 3,
      "note": 73,
      "start": 17.7594,
      "duration": 0.1348,
      "velocity": 127,
      "chip": "ym2612"
    },
    {
      "channel": 0,
      "note": 73,
      "start": 17.7634,
      "duration": 0.4983,
      "velocity": 127,
      "chip": "ym2612"
    },
    {
      "channel": 1,
      "note": 66,
      "start": 17.9679,
      "duration": 0.0411,
      "velocity": 127,
      "chip": "ym2612"
    },
    {
      "channel": 3,
      "note": 73,
      "start": 17.9702,
      "duration": 0.0389,
      "velocity": 127,
      "chip": "ym2612"
    },
    {
      "channel": 4,
      "note": 54,
      "start": 18.0592,
      "duration": 0.0092,
      "velocity": 101,
      "chip": "ym2612"
    },
    {
      "channel": 1,
      "note": 66,
      "start": 18.0618,
      "duration": 0.0832,
      "velocity": 127,
      "chip": "ym2612"
    },
    {
      "channel": 3,
      "note": 73,
      "start": 18.0641,
      "duration": 0.0811,
      "velocity": 127,
      "chip": "ym2612"
    },
    {
      "channel": 2,
      "note": 54,
      "start": 18.0668,
      "duration": 0.1952,
      "velocity": 122,
      "chip": "ym2612"
    },
    {
      "channel": 4,
      "note": 54,
      "start": 18.0705,
      "duration": 0.1914,
      "velocity": 111,
      "chip": "ym2612"
    },
    {
      "channel": 1,
      "note": 57,
      "start": 18.2682,
      "duration": 0.3976,
      "velocity": 101,
      "chip": "ym2612"
    },
    {
      "channel": 3,
      "note": 73,
      "start": 18.2705,
      "duration": 0.1848,
      "velocity": 127,
      "chip": "ym2612"
    },
    {
      "channel": 0,
      "note": 66,
      "start": 18.2728,
      "duration": 0.1823,
      "velocity": 127,
      "chip": "ym2612"
    },
    {
      "channel": 2,
      "note": 57,
      "start": 18.2754,
      "duration": 0.3907,
      "velocity": 122,
      "chip": "ym2612"
    },
    {
      "channel": 4,
      "note": 57,
      "start": 18.279,
      "duration": 0.3869,
      "velocity": 111,
      "chip": "ym2612"
    },
    {
      "channel": 0,
      "note": 66,
      "start": 18.4614,
      "duration": 0.0876,
      "velocity": 127,
      "chip": "ym2612"
    },
    {
      "channel": 3,
      "note": 72,
      "start": 18.4637,
      "duration": 0.0855,
      "velocity": 127,
      "chip": "ym2612"
    },
    {
      "channel": 1,
      "note": 52,
      "start": 18.673,
      "duration": 0.2795,
      "velocity": 101,
      "chip": "ym2612"
    },
    {
      "channel": 0,
      "note": 66,
      "start": 18.6751,
      "duration": 0.0422,
      "velocity": 127,
      "chip": "ym2612"
    },
    {
      "channel": 3,
      "note": 72,
      "start": 18.6776,
      "duration": 0.0398,
      "velocity": 127,
      "chip": "ym2612"
    },
    {
      "channel": 2,
      "note": 52,
      "start": 18.68,
      "duration": 0.2728,
      "velocity": 122,
      "chip": "ym2612"
    },
    {
      "channel": 4,
      "note": 52,
      "start": 18.6826,
      "duration": 0.2701,
      "velocity": 111,
      "chip": "ym2612"
    },
    {
      "channel": 0,
      "note": 66,
      "start": 18.7667,
      "duration": 0.0524,
      "velocity": 127,
      "chip": "ym2612"
    },
    {
      "channel": 3,
      "note": 72,
      "start": 18.7688,
      "duration": 0.0505,
      "velocity": 127,
      "chip": "ym2612"
    },
    {
      "channel": 1,
      "note": 54,
      "start": 18.959,
      "duration": 0.2644,
      "velocity": 101,
      "chip": "ym2612"
    },
    {
      "channel": 0,
      "note": 66,
      "start": 18.9611,
      "duration": 0.1849,
      "velocity": 127,
      "chip": "ym2612"
    },
    {
      "channel": 3,
      "note": 72,
      "start": 18.9634,
      "duration": 0.1828,
      "velocity": 127,
      "chip": "ym2612"
    },
    {
      "channel": 2,
      "note": 54,
      "start": 18.9661,
      "duration": 0.2577,
      "velocity": 122,
      "chip": "ym2612"
    },
    {
      "channel": 4,
      "note": 54,
      "start": 18.9698,
      "duration": 0.2538,
      "velocity": 111,
      "chip": "ym2612"
    },
    {
      "channel": 0,
      "note": 66,
      "start": 19.1688,
      "duration": 0.0879,
      "velocity": 127,
      "chip": "ym2612"
    },
    {
      "channel": 3,
      "note": 69,
      "start": 19.1714,
      "duration": 0.0855,
      "velocity": 127,
      "chip": "ym2612"
    },
    {
      "channel": 0,
      "note": 66,
      "start": 19.3806,
      "duration": 0.0361,
      "velocity": 127,
      "chip": "ym2612"
    },
    {
      "channel": 3,
      "note": 69,
      "start": 19.383,
      "duration": 0.0339,
      "velocity": 127,
      "chip": "ym2612"
    },
    {
      "channel": 1,
      "note": 54,
      "start": 19.4724,
      "duration": 0.1858,
      "velocity": 101,
      "chip": "ym2612"
    },
    {
      "channel": 0,
      "note": 66,
      "start": 19.4746,
      "duration": 0.0502,
      "velocity": 127,
      "chip": "ym2612"
    },
    {
      "channel": 3,
      "note": 69,
      "start": 19.4768,
      "duration": 0.0481,
      "velocity": 127,
      "chip": "ym2612"
    },
    {
      "channel": 2,
      "note": 54,
      "start": 19.4796,
      "duration": 0.179,
      "velocity": 122,
      "chip": "ym2612"
    },
    {
      "channel": 4,
      "note": 54,
      "start": 19.4834,
      "duration": 0.175,
      "velocity": 111,
      "chip": "ym2612"
    },
    {
      "channel": 1,
      "note": 57,
      "start": 19.6646,
      "duration": 0.4152,
      "velocity": 101,
      "chip": "ym2612"
    },
    {
      "channel": 0,
      "note": 69,
      "start": 19.6669,
      "duration": 0.202,
      "velocity": 127,
      "chip": "ym2612"
    },
    {
      "channel": 3,
      "note": 66,
      "start": 19.6692,
      "duration": 0.2,
      "velocity": 127,
      "chip": "ym2612"
    },
    {
      "channel": 2,
      "note": 57,
      "start": 19.672,
      "duration": 0.4081,
      "velocity": 122,
      "chip": "ym2612"
    },
    {
      "channel": 4,
      "note": 57,
      "start": 19.6756,
      "duration": 0.4044,
      "velocity": 111,
      "chip": "ym2612"
    },
    {
      "channel": 0,
      "note": 61,
      "start": 19.8757,
      "duration": 0.0874,
      "velocity": 127,
      "chip": "ym2612"
    },
    {
      "channel": 3,
      "note": 66,
      "start": 19.8779,
      "duration": 0.0854,
      "velocity": 127,
      "chip": "ym2612"
    },
    {
      "channel": 1,
      "note": 52,
      "start": 20.0869,
      "duration": 0.1733,
      "velocity": 101,
      "chip": "ym2612"
    },
    {
      "channel": 0,
      "note": 61,
      "start": 20.089,
      "duration": 0.0422,
      "velocity": 127,
      "chip": "ym2612"
    },
    {
      "channel": 3,
      "note": 66,
      "start": 20.0913,
      "duration": 0.0399,
      "velocity": 127,
      "chip": "ym2612"
    },
    {
      "channel": 2,
      "note": 52,
      "start": 20.0939,
      "duration": 0.1668,
      "velocity": 122,
      "chip": "ym2612"
    },
    {
      "channel": 4,
      "note": 52,
      "start": 20.0964,
      "duration": 0.1641,
      "velocity": 111,
      "chip": "ym2612"
    },
    {
      "channel": 0,
      "note": 61,
      "start": 20.1748,
      "duration": 0.0396,
      "velocity": 127,
      "chip": "ym2612"
    },
    {
      "channel": 3,
      "note": 66,
      "start": 20.1771,
      "duration": 0.0375,
      "velocity": 127,
      "chip": "ym2612"
    },
    {
      "channel": 1,
      "note": 49,
      "start": 20.2676,
      "duration": 0.4127,
      "velocity": 101,
      "chip": "ym2612"
    },
    {
      "channel": 4,
      "note": 49,
      "start": 20.2712,
      "duration": 0.4092,
      "velocity": 111,
      "chip": "ym2612"
    },
    {
      "channel": 0,
      "note": 68,
      "start": 20.274,
      "duration": 0.0616,
      "velocity": 94,
      "chip": "ym2612"
    },
    {
      "channel": 2,
      "note": 82,
      "start": 20.2774,
      "duration": 0.0752,
      "velocity": 113,
      "chip": "ym2612"
    },
    {
      "channel": 0,
      "note": 68,
      "start": 20.4761,
      "duration": 0.0873,
      "velocity": 94,
      "chip": "ym2612"
    },
    {
      "channel": 1,
      "note": 50,
      "start": 20.6876,
      "duration": 0.0811,
      "velocity": 101,
      "chip": "ym2612"
    },
    {
      "channel": 4,
      "note": 50,
      "start": 20.6907,
      "duration": 0.0781,
      "velocity": 111,
      "chip": "ym2612"
    },
    {
      "channel": 0,
      "note": 71,
      "start": 20.6927,
      "duration": 0.0443,
      "velocity": 94,
      "chip": "ym2612"
    },
    {
      "channel": 2,
      "note": 82,
      "start": 20.6948,
      "duration": 0.0301,
      "velocity": 113,
      "chip": "ym2612"
    },
    {
      "channel": 1,
      "note": 52,
      "start": 20.7753,
      "duration": 0.1009,
      "velocity": 101,
      "chip": "ym2612"
    },
    {
      "channel": 4,
      "note": 52,
      "start": 20.7786,
      "duration": 0.0977,
      "velocity": 111,
      "chip": "ym2612"
    },
    {
      "channel": 0,
      "note": 73,
      "start": 20.781,
      "duration": 0.312,
      "velocity": 94,
      "chip": "ym2612"
    },
    {
      "channel": 1,
      "note": 54,
      "start": 20.9794,
      "duration": 0.341,
      "velocity": 101,
      "chip": "ym2612"
    },
    {
      "channel": 4,
      "note": 54,
      "start": 20.9828,
      "duration": 0.3378,
      "velocity": 111,
      "chip": "ym2612"
    },
    {
      "channel": 2,
      "note": 82,
      "start": 20.9853,
      "duration": 0.108,
      "velocity": 113,
      "chip": "ym2612"
    },
    {
      "channel": 3,
      "note": 68,
      "start": 21.2164,
      "duration": 0.1874,
      "velocity": 127,
      "chip": "ym2612"
    },
    {
      "channel": 0,
      "note": 76,
      "start": 21.2196,
      "duration": 0.2931,
      "velocity": 94,
      "chip": "ym2612"
    },
    {
      "channel": 1,
      "note": 54,
      "start": 21.4113,
      "duration": 0.0889,
      "velocity": 101,
      "chip": "ym2612"
    },
    {
      "channel": 3,
      "note": 67,
      "start": 21.4138,
      "duration": 0.0865,
      "velocity": 127,
      "chip": "ym2612"
    },
    {
      "channel": 4,
      "note": 54,
      "start": 21.4168,
      "duration": 0.0836,
      "velocity": 111,
      "chip": "ym2612"
    },
    {
      "channel": 2,
      "note": 82,
      "start": 21.42,
      "duration": 0.036,
      "velocity": 113,
      "chip": "ym2612"
    },
    {
      "channel": 1,
      "note": 56,
      "start": 21.5065,
      "duration": 0.0855,
      "velocity": 101,
      "chip": "ym2612"
    },
    {
      "channel": 3,
      "note": 61,
      "start": 21.5088,
      "duration": 0.4111,
      "velocity": 127,
      "chip": "ym2612"
    },
    {
      "channel": 4,
      "note": 56,
      "start": 21.5116,
      "duration": 0.0806,
      "velocity": 111,
      "chip": "ym2612"
    },
    {
      "channel": 1,
      "note": 57,
      "start": 21.7147,
      "duration": 0.5109,
      "velocity": 101,
      "chip": "ym2612"
    },
    {
      "channel": 4,
      "note": 57,
      "start": 21.7185,
      "duration": 0.5073,
      "velocity": 111,
      "chip": "ym2612"
    },
    {
      "channel": 0,
      "note": 68,
      "start": 21.7209,
      "duration": 0.0822,
      "velocity": 94,
      "chip": "ym2612"
    },
    {
      "channel": 2,
      "note": 82,
      "start": 21.7241,
      "duration": 0.0794,
      "velocity": 113,
      "chip": "ym2612"
    },
    {
      "channel": 3,
      "note": 68,
      "start": 21.9267,
      "duration": 0.187,
      "velocity": 127,
      "chip": "ym2612"
    },
    {
      "channel": 0,
      "note": 68,
      "start": 21.9295,
      "duration": 0.0674,
      "velocity": 94,
      "chip": "ym2612"
    },
    {
      "channel": 3,
      "note": 67,
      "start": 22.1206,
      "duration": 0.0878,
      "velocity": 127,
      "chip": "ym2612"
    },
    {
      "channel": 0,
      "note": 73,
      "start": 22.1241,
      "duration": 0.0334,
      "velocity": 94,
      "chip": "ym2612"
    },
    {
      "channel": 2,
      "note": 82,
      "start": 22.1263,
      "duration": 0.0384,
      "velocity": 113,
      "chip": "ym2612"
    },
    {
      "channel": 3,
      "note": 61,
      "start": 22.2145,
      "duration": 0.3965,
      "velocity": 127,
      "chip": "ym2612"
    },
    {
      "channel": 0,
      "note": 73,
      "start": 22.218,
      "duration": 0.3095,
      "velocity": 94,
      "chip": "ym2612"
    },
    {
      "channel": 1,
      "note": 54,
      "start": 22.423,
      "duration": 0.1878,
      "velocity": 101,
      "chip": "ym2612"
    },
    {
      "channel": 4,
      "note": 54,
      "start": 22.4259,
      "duration": 0.1852,
      "velocity": 111,
      "chip": "ym2612"
    },
    {
      "channel": 2,
      "note": 82,
      "start": 22.428,
      "duration": 0.083,
      "velocity": 113,
      "chip": "ym2612"
    },
    {
      "channel": 1,
      "note": 56,
      "start": 22.6174,
      "duration": 0.2958,
      "velocity": 101,
      "chip": "ym2612"
    },
    {
      "channel": 3,
      "note": 68,
      "start": 22.6196,
      "duration": 0.2009,
      "velocity": 127,
      "chip": "ym2612"
    },
    {
      "channel": 4,
      "note": 56,
      "start": 22.6229,
      "duration": 0.2904,
      "velocity": 111,
      "chip": "ym2612"
    },
    {
      "channel": 0,
      "note": 76,
      "start": 22.626,
      "duration": 0.4124,
      "velocity": 94,
      "chip": "ym2612"
    },
    {
      "channel": 3,
      "note": 67,
      "start": 22.8266,
      "duration": 0.0866,
      "velocity": 127,
      "chip": "ym2612"
    },
    {
      "channel": 2,
      "note": 82,
      "start": 22.8288,
      "duration": 0.0411,
      "velocity": 113,
      "chip": "ym2612"
    },
    {
      "channel": 1,
      "note": 56,
      "start": 22.92,
      "duration": 0.2019,
      "velocity": 101,
      "chip": "ym2612"
    },
    {
      "channel": 3,
      "note": 61,
      "start": 22.9225,
      "duration": 0.3934,
      "velocity": 127,
      "chip": "ym2612"
    },
    {
      "channel": 4,
      "note": 56,
      "start": 22.9256,
      "duration": 0.1964,
      "velocity": 111,
      "chip": "ym2612"
    },
    {
      "channel": 1,
      "note": 49,
      "start": 23.1285,
      "duration": 0.2647,
      "velocity": 101,
      "chip": "ym2612"
    },
    {
      "channel": 4,
      "note": 49,
      "start": 23.1315,
      "duration": 0.2619,
      "velocity": 111,
      "chip": "ym2612"
    },
    {
      "channel": 0,
      "note": 68,
      "start": 23.134,
      "duration": 0.0483,
      "velocity": 94,
      "chip": "ym2612"
    },
    {
      "channel": 2,
      "note": 82,
      "start": 23.1371,
      "duration": 0.0621,
      "velocity": 113,
      "chip": "ym2612"
    },
    {
      "channel": 3,
      "note": 68,
      "start": 23.3222,
      "duration": 0.2044,
      "velocity": 127,
      "chip": "ym2612"
    },
    {
      "channel": 0,
      "note": 68,
      "start": 23.325,
      "duration": 0.0848,
      "velocity": 94,
      "chip": "ym2612"
    },
    {
      "channel": 1,
      "note": 49,
      "start": 23.5337,
      "duration": 0.0881,
      "velocity": 101,
      "chip": "ym2612"
    },
    {
      "channel": 3,
      "note": 67,
      "start": 23.5358,
      "duration": 0.0863,
      "velocity": 127,
      "chip": "ym2612"
    },
    {
      "channel": 4,
      "note": 49,
      "start": 23.5391,
      "duration": 0.0831,
      "velocity": 111,
      "chip": "ym2612"
    },
    {
      "channel": 0,
      "note": 71,
      "start": 23.5414,
      "duration": 0.0437,
      "velocity": 94,
      "chip": "ym2612"
    },
    {
      "channel": 2,
      "note": 82,
      "start": 23.5445,
      "duration": 0.0342,
      "velocity": 113,
      "chip": "ym2612"
    },
    {
      "channel": 1,
      "note": 50,
      "start": 23.6287,
      "duration": 0.1855,
      "velocity": 101,
      "chip": "ym2612"
    },
    {
      "channel": 3,
      "note": 61,
      "start": 23.631,
      "duration": 0.3938,
      "velocity": 127,
      "chip": "ym2612"
    },
    {
      "channel": 4,
      "note": 50,
      "start": 23.6346,
      "duration": 0.1798,
      "velocity": 111,
      "chip": "ym2612"
    },
    {
      "channel": 0,
      "note": 73,
      "start": 23.6379,
      "duration": 0.27,
      "velocity": 94,
      "chip": "ym2612"
    },
    {
      "channel": 1,
      "note": 52,
      "start": 23.8206,
      "duration": 0.3472,
      "velocity": 101,
      "chip": "ym2612"
    },
    {
      "channel": 4,
      "note": 52,
      "start": 23.8234,
      "duration": 0.3446,
      "velocity": 111,
      "chip": "ym2612"
    },
    {
      "channel": 2,
      "note": 82,
      "start": 23.8256,
      "duration": 0.0827,
      "velocity": 113,
      "chip": "ym2612"
    },
    {
      "channel": 3,
      "note": 68,
      "start": 24.0309,
      "duration": 0.2037,
      "velocity": 127,
      "chip": "ym2612"
    },
    {
      "channel": 0,
      "note": 76,
      "start": 24.0336,
      "duration": 0.3084,
      "velocity": 94,
      "chip": "ym2612"
    },
    {
      "channel": 1,
      "note": 54,
      "start": 24.2417,
      "duration": 0.0877,
      "velocity": 101,
      "chip": "ym2612"
    },
    {
      "channel": 3,
      "note": 67,
      "start": 24.2439,
      "duration": 0.0855,
      "velocity": 127,
      "chip": "ym2612"
    },
    {
      "channel": 4,
      "note": 54,
      "start": 24.2467,
      "duration": 0.0829,
      "velocity": 111,
      "chip": "ym2612"
    },
    {
      "channel": 2,
      "note": 82,
      "start": 24.2492,
      "duration": 0.0367,
      "velocity": 113,
      "chip": "ym2612"
    },
    {
      "channel": 1,
      "note": 56,
      "start": 24.3357,
      "duration": 0.1355,
      "velocity": 101,
      "chip": "ym2612"
    },
    {
      "channel": 3,
      "note": 61,
      "start": 24.3381,
      "duration": 0.3937,
      "velocity": 127,
      "chip": "ym2612"
    },
    {
      "channel": 4,
      "note": 56,
      "start": 24.3408,
      "duration": 0.1306,
      "velocity": 111,
      "chip": "ym2612"
    },
    {
      "channel": 1,
      "note": 57,
      "start": 24.5278,
      "duration": 0.544,
      "velocity": 101,
      "chip": "ym2612"
    },
    {
      "channel": 4,
      "note": 57,
      "start": 24.5312,
      "duration": 0.5408,
      "velocity": 111,
      "chip": "ym2612"
    },
    {
      "channel": 0,
      "note": 68,
      "start": 24.5346,
      "duration": 0.0804,
      "velocity": 94,
      "chip": "ym2612"
    },
    {
      "channel": 2,
      "note": 82,
      "start": 24.5367,
      "duration": 0.0787,
      "velocity": 113,
      "chip": "ym2612"
    },
    {
      "channel": 3,
      "note": 73,
      "start": 24.7387,
      "duration": 0.2036,
      "velocity": 127,
      "chip": "ym2612"
    },
    {
      "channel": 0,
      "note": 68,
      "start": 24.7413,
      "duration": 0.0842,
      "velocity": 94,
      "chip": "ym2612"
    },
    {
      "channel": 3,
      "note": 61,
      "start": 24.9485,
      "duration": 0.0815,
      "velocity": 127,
      "chip": "ym2612"
    },
    {
      "channel": 0,
      "note": 73,
      "start": 24.9516,
      "duration": 0.028,
      "velocity": 94,
      "chip": "ym2612"
    },
    {
      "channel": 2,
      "note": 82,
      "start": 24.9537,
      "duration": 0.0393,
      "velocity": 113,
      "chip": "ym2612"
    },
    {
      "channel": 3,
      "note": 73,
      "start": 25.0368,
      "duration": 0.4117,
      "velocity": 127,
      "chip": "ym2612"
    },
    {
      "channel": 0,
      "note": 73,
      "start": 25.0399,
      "duration": 0.3085,
      "velocity": 94,
      "chip": "ym2612"
    },
    {
      "channel": 1,
      "note": 54,
      "start": 25.2448,
      "duration": 0.2037,
      "velocity": 101,
      "chip": "ym2612"
    },
    {
      "channel": 4,
      "note": 54,
      "start": 25.2476,
      "duration": 0.2011,
      "velocity": 111,
      "chip": "ym2612"
    },
    {
      "channel": 2,
      "note": 82,
      "start": 25.2498,
      "duration": 0.0822,
      "velocity": 113,
      "chip": "ym2612"
    },
    {
      "channel": 1,
      "note": 56,
      "start": 25.4548,
      "duration": 0.2647,
      "velocity": 101,
      "chip": "ym2612"
    },
    {
      "channel": 3,
      "note": 72,
      "start": 25.4572,
      "duration": 0.4787,
      "velocity": 127,
      "chip": "ym2612"
    },
    {
      "channel": 4,
      "note": 56,
      "start": 25.461,
      "duration": 0.2587,
      "velocity": 111,
      "chip": "ym2612"
    },
    {
      "channel": 0,
      "note": 76,
      "start": 25.4644,
      "duration": 0.4046,
      "velocity": 94,
      "chip": "ym2612"
    },
    {
      "channel": 2,
      "note": 82,
      "start": 25.6665,
      "duration": 0.0346,
      "velocity": 113,
      "chip": "ym2612"
    },
    {
      "channel": 1,
      "note": 56,
      "start": 25.7503,
      "duration": 0.2021,
      "velocity": 101,
      "chip": "ym2612"
    },
    {
      "channel": 4,
      "note": 56,
      "start": 25.7532,
      "duration": 0.1994,
      "velocity": 111,
      "chip": "ym2612"
    },
    {
      "channel": 1,
      "note": 49,
      "start": 25.959,
      "duration": 0.3982,
      "velocity": 101,
      "chip": "ym2612"
    },
    {
      "channel": 4,
      "note": 49,
      "start": 25.9616,
      "duration": 0.3957,
      "velocity": 111,
      "chip": "ym2612"
    },
    {
      "channel": 0,
      "note": 80,
      "start": 25.964,
      "duration": 0.0489,
      "velocity": 94,
      "chip": "ym2612"
    },
    {
      "channel": 2,
      "note": 82,
      "start": 25.9662,
      "duration": 0.0802,
      "velocity": 113,
      "chip": "ym2612"
    },
    {
      "channel": 0,
      "note": 80,
      "start": 26.1702,
      "duration": 0.0368,
      "velocity": 94,
      "chip": "ym2612"
    },
    {
      "channel": 1,
      "note": 50,
      "start": 26.3635,
      "duration": 0.0881,
      "velocity": 101,
      "chip": "ym2612"
    },
    {
      "channel": 4,
      "note": 50,
      "start": 26.3669,
      "duration": 0.0848,
      "velocity": 111,
      "chip": "ym2612"
    },
    {
      "channel": 0,
      "note": 80,
      "start": 26.3691,
      "duration": 0.0265,
      "velocity": 94,
      "chip": "ym2612"
    },
    {
      "channel": 2,
      "note": 82,
      "start": 26.3722,
      "duration": 0.0351,
      "velocity": 113,
      "chip": "ym2612"
    },
    {
      "channel": 1,
      "note": 52,
      "start": 26.4588,
      "duration": 0.1012,
      "velocity": 101,
      "chip": "ym2612"
    },
    {
      "channel": 4,
      "note": 52,
      "start": 26.4622,
      "duration": 0.098,
      "velocity": 111,
      "chip": "ym2612"
    },
    {
      "channel": 0,
      "note": 80,
      "start": 26.4643,
      "duration": 0.0457,
      "velocity": 94,
      "chip": "ym2612"
    },
    {
      "channel": 1,
      "note": 54,
      "start": 26.6633,
      "duration": 0.3408,
      "velocity": 101,
      "chip": "ym2612"
    },
    {
      "channel": 4,
      "note": 54,
      "start": 26.6674,
      "duration": 0.3368,
      "velocity": 111,
      "chip": "ym2612"
    },
    {
      "channel": 0,
      "note": 80,
      "start": 26.6698,
      "duration": 0.0569,
      "velocity": 94,
      "chip": "ym2612"
    },
    {
      "channel": 2,
      "note": 82,
      "start": 26.6721,
      "duration": 0.1047,
      "velocity": 113,
      "chip": "ym2612"
    },
    {
      "channel": 3,
      "note": 68,
      "start": 26.8999,
      "duration": 0.1876,
      "velocity": 127,
      "chip": "ym2612"
    },
    {
      "channel": 0,
      "note": 80,
      "start": 26.9024,
      "duration": 0.0349,
      "velocity": 94,
      "chip": "ym2612"
    },
    {
      "channel": 1,
      "note": 54,
      "start": 27.0951,
      "duration": 0.0876,
      "velocity": 101,
      "chip": "ym2612"
    },
    {
      "channel": 3,
      "note": 67,
      "start": 27.0972,
      "duration": 0.0857,
      "velocity": 127,
      "chip": "ym2612"
    },
    {
      "channel": 4,
      "note": 54,
      "start": 27.1002,
      "duration": 0.0828,
      "velocity": 111,
      "chip": "ym2612"
    },
    {
      "channel": 0,
      "note": 80,
      "start": 27.1024,
      "duration": 0.0249,
      "velocity": 94,
      "chip": "ym2612"
    },
    {
      "channel": 2,
      "note": 82,
      "start": 27.1055,
      "duration": 0.034,
      "velocity": 113,
      "chip": "ym2612"
    },
    {
      "channel": 1,
      "note": 56,
      "start": 27.1898,
      "duration": 0.0853,
      "velocity": 101,
      "chip": "ym2612"
    },
    {
      "channel": 3,
      "note": 61,
      "start": 27.1926,
      "duration": 0.3923,
      "velocity": 127,
      "chip": "ym2612"
    },
    {
      "channel": 4,
      "note": 56,
      "start": 27.1959,
      "duration": 0.0793,
      "velocity": 111,
      "chip": "ym2612"
    },
    {
      "channel": 0,
      "note": 80,
      "start": 27.199,
      "duration": 0.0427,
      "velocity": 94,
      "chip": "ym2612"
    },
    {
      "channel": 1,
      "note": 57,
      "start": 27.398,
      "duration": 0.5094,
      "velocity": 101,
      "chip": "ym2612"
    },
    {
      "channel": 4,
      "note": 57,
      "start": 27.4012,
      "duration": 0.5064,
      "velocity": 111,
      "chip": "ym2612"
    },
    {
      "channel": 0,
      "note": 80,
      "start": 27.4035,
      "duration": 0.0313,
      "velocity": 94,
      "chip": "ym2612"
    },
    {
      "channel": 2,
      "note": 82,
      "start": 27.4058,
      "duration": 0.0794,
      "velocity": 113,
      "chip": "ym2612"
    },
    {
      "channel": 3,
      "note": 68,
      "start": 27.5911,
      "duration": 0.2042,
      "velocity": 127,
      "chip": "ym2612"
    },
    {
      "channel": 0,
      "note": 80,
      "start": 27.5942,
      "duration": 0.051,
      "velocity": 94,
      "chip": "ym2612"
    },
    {
      "channel": 3,
      "note": 67,
      "start": 27.8024,
      "duration": 0.0877,
      "velocity": 127,
      "chip": "ym2612"
    },
    {
      "channel": 0,
      "note": 80,
      "start": 27.8047,
      "duration": 0.0278,
      "velocity": 94,
      "chip": "ym2612"
    },
    {
      "channel": 2,
      "note": 82,
      "start": 27.8069,
      "duration": 0.0393,
      "velocity": 113,
      "chip": "ym2612"
    },
    {
      "channel": 3,
      "note": 61,
      "start": 27.8969,
      "duration": 0.3956,
      "velocity": 127,
      "chip": "ym2612"
    },
    {
      "channel": 0,
      "note": 80,
      "start": 27.8991,
      "duration": 0.033,
      "velocity": 94,
      "chip": "ym2612"
    },
    {
      "channel": 1,
      "note": 54,
      "start": 28.1049,
      "duration": 0.1876,
      "velocity": 101,
      "chip": "ym2612"
    },
    {
      "channel": 4,
      "note": 54,
      "start": 28.1082,
      "duration": 0.1845,
      "velocity": 111,
      "chip": "ym2612"
    },
    {
      "channel": 0,
      "note": 80,
      "start": 28.1104,
      "duration": 0.0319,
      "velocity": 94,
      "chip": "ym2612"
    },
    {
      "channel": 2,
      "note": 82,
      "start": 28.1125,
      "duration": 0.0634,
      "velocity": 113,
      "chip": "ym2612"
    },
    {
      "channel": 1,
      "note": 56,
      "start": 28.2991,
      "duration": 0.2976,
      "velocity": 101,
      "chip": "ym2612"
    },
    {
      "channel": 3,
      "note": 68,
      "start": 28.3013,
      "duration": 0.2012,
      "velocity": 127,
      "chip": "ym2612"
    },
    {
      "channel": 4,
      "note": 56,
      "start": 28.3043,
      "duration": 0.2926,
      "velocity": 111,
      "chip": "ym2612"
    },
    {
      "channel": 0,
      "note": 80,
      "start": 28.3076,
      "duration": 0.0449,
      "velocity": 94,
      "chip": "ym2612"
    },
    {
      "channel": 3,
      "note": 67,
      "start": 28.5096,
      "duration": 0.0872,
      "velocity": 127,
      "chip": "ym2612"
    },
    {
      "channel": 0,
      "note": 80,
      "start": 28.5119,
      "duration": 0.0284,
      "velocity": 94,
      "chip": "ym2612"
    },
    {
      "channel": 2,
      "note": 82,
      "start": 28.5141,
      "duration": 0.0395,
      "velocity": 113,
      "chip": "ym2612"
    },
    {
      "channel": 1,
      "note": 56,
      "start": 28.6028,
      "duration": 0.1852,
      "velocity": 101,
      "chip": "ym2612"
    },
    {
      "channel": 3,
      "note": 61,
      "start": 28.6052,
      "duration": 0.3921,
      "velocity": 127,
      "chip": "ym2612"
    },
    {
      "channel": 4,
      "note": 56,
      "start": 28.6082,
      "duration": 0.1801,
      "velocity": 111,
      "chip": "ym2612"
    },
    {
      "channel": 0,
      "note": 80,
      "start": 28.6105,
      "duration": 0.0276,
      "velocity": 94,
      "chip": "ym2612"
    },
    {
      "channel": 1,
      "note": 49,
      "start": 28.7943,
      "duration": 0.2802,
      "velocity": 101,
      "chip": "ym2612"
    },
    {
      "channel": 4,
      "note": 49,
      "start": 28.7971,
      "duration": 0.2776,
      "velocity": 111,
      "chip": "ym2612"
    },
    {
      "channel": 0,
      "note": 80,
      "start": 28.799,
      "duration": 0.0482,
      "velocity": 94,
      "chip": "ym2612"
    },
    {
      "channel": 2,
      "note": 82,
      "start": 28.8013,
      "duration": 0.0796,
      "velocity": 113,
      "chip": "ym2612"
    },
    {
      "channel": 3,
      "note": 68,
      "start": 29.0039,
      "duration": 0.204,
      "velocity": 127,
      "chip": "ym2612"
    },
    {
      "channel": 0,
      "note": 80,
      "start": 29.0071,
      "duration": 0.0507,
      "velocity": 94,
      "chip": "ym2612"
    },
    {
      "channel": 1,
      "note": 49,
      "start": 29.2151,
      "duration": 0.0887,
      "velocity": 101,
      "chip": "ym2612"
    },
    {
      "channel": 3,
      "note": 67,
      "start": 29.2172,
      "duration": 0.0868,
      "velocity": 127,
      "chip": "ym2612"
    },
    {
      "channel": 4,
      "note": 49,
      "start": 29.2204,
      "duration": 0.0837,
      "velocity": 111,
      "chip": "ym2612"
    },
    {
      "channel": 0,
      "note": 80,
      "start": 29.2226,
      "duration": 0.0191,
      "velocity": 94,
      "chip": "ym2612"
    },
    {
      "channel": 2,
      "note": 82,
      "start": 29.2258,
      "duration": 0.0343,
      "velocity": 113,
      "chip": "ym2612"
    },
    {
      "channel": 1,
      "note": 50,
      "start": 29.3108,
      "duration": 0.1851,
      "velocity": 101,
      "chip": "ym2612"
    },
    {
      "channel": 3,
      "note": 61,
      "start": 29.3131,
      "duration": 0.3926,
      "velocity": 127,
      "chip": "ym2612"
    },
    {
      "channel": 4,
      "note": 50,
      "start": 29.316,
      "duration": 0.18,
      "velocity": 111,
      "chip": "ym2612"
    },
    {
      "channel": 0,
      "note": 80,
      "start": 29.318,
      "duration": 0.0278,
      "velocity": 94,
      "chip": "ym2612"
    },
    {
      "channel": 1,
      "note": 52,
      "start": 29.5023,
      "duration": 0.3474,
      "velocity": 101,
      "chip": "ym2612"
    },
    {
      "channel": 4,
      "note": 52,
      "start": 29.5055,
      "duration": 0.3444,
      "velocity": 111,
      "chip": "ym2612"
    },
    {
      "channel": 0,
      "note": 80,
      "start": 29.5075,
      "duration": 0.0479,
      "velocity": 94,
      "chip": "ym2612"
    },
    {
      "channel": 2,
      "note": 82,
      "start": 29.5106,
      "duration": 0.0785,
      "velocity": 113,
      "chip": "ym2612"
    },
    {
      "channel": 3,
      "note": 68,
      "start": 29.7121,
      "duration": 0.2043,
      "velocity": 127,
      "chip": "ym2612"
    },
    {
      "channel": 0,
      "note": 80,
      "start": 29.7149,
      "duration": 0.0515,
      "velocity": 94,
      "chip": "ym2612"
    },
    {
      "channel": 1,
      "note": 54,
      "start": 29.9242,
      "duration": 0.0815,
      "velocity": 101,
      "chip": "ym2612"
    },
    {
      "channel": 3,
      "note": 67,
      "start": 29.9263,
      "duration": 0.0795,
      "velocity": 127,
      "chip": "ym2612"
    },
    {
      "channel": 4,
      "note": 54,
      "start": 29.9293,
      "duration": 0.0765,
      "velocity": 111,
      "chip": "ym2612"
    },
    {
      "channel": 0,
      "note": 80,
      "start": 29.9315,
      "duration": 0.0183,
      "velocity": 94,
      "chip": "ym2612"
    },
    {
      "channel": 2,
      "note": 82,
      "start": 29.9346,
      "duration": 0.0333,
      "velocity": 113,
      "chip": "ym2612"
    },
    {
      "channel": 1,
      "note": 56,
      "start": 30.0119,
      "duration": 0.1503,
      "velocity": 101,
      "chip": "ym2612"
    },
    {
      "channel": 3,
      "note": 61,
      "start": 30.0145,
      "duration": 0.4087,
      "velocity": 127,
      "chip": "ym2612"
    },
    {
      "channel": 4,
      "note": 56,
      "start": 30.0177,
      "duration": 0.1447,
      "velocity": 111,
      "chip": "ym2612"
    },
    {
      "channel": 0,
      "note": 80,
      "start": 30.0199,
      "duration": 0.0424,
      "velocity": 94,
      "chip": "ym2612"
    },
    {
      "channel": 1,
      "note": 57,
      "start": 30.2186,
      "duration": 0.5447,
      "velocity": 101,
      "chip": "ym2612"
    },
    {
      "channel": 4,
      "note": 57,
      "start": 30.222,
      "duration": 0.5415,
      "velocity": 111,
      "chip": "ym2612"
    },
    {
      "channel": 0,
      "note": 80,
      "start": 30.224,
      "duration": 0.0489,
      "velocity": 94,
      "chip": "ym2612"
    },
    {
      "channel": 2,
      "note": 82,
      "start": 30.2262,
      "duration": 0.0804,
      "velocity": 113,
      "chip": "ym2612"
    },
    {
      "channel": 3,
      "note": 73,
      "start": 30.4298,
      "duration": 0.2042,
      "velocity": 127,
      "chip": "ym2612"
    },
    {
      "channel": 0,
      "note": 80,
      "start": 30.4327,
      "duration": 0.0345,
      "velocity": 94,
      "chip": "ym2612"
    },
    {
      "channel": 3,
      "note": 61,
      "start": 30.6402,
      "duration": 0.0815,
      "velocity": 127,
      "chip": "ym2612"
    },
    {
      "channel": 0,
      "note": 80,
      "start": 30.6423,
      "duration": 0.0214,
      "velocity": 94,
      "chip": "ym2612"
    },
    {
      "channel": 2,
      "note": 82,
      "start": 30.6449,
      "duration": 0.0317,
      "velocity": 113,
      "chip": "ym2612"
    },
    {
      "channel": 3,
      "note": 73,
      "start": 30.7285,
      "duration": 0.2978,
      "velocity": 127,
      "chip": "ym2612"
    },
    {
      "channel": 0,
      "note": 80,
      "start": 30.731,
      "duration": 0.049,
      "velocity": 94,
      "chip": "ym2612"
    },
    {
      "channel": 1,
      "note": 54,
      "start": 30.9374,
      "duration": 0.0889,
      "velocity": 101,
      "chip": "ym2612"
    },
    {
      "channel": 4,
      "note": 54,
      "start": 30.9402,
      "duration": 0.0862,
      "velocity": 111,
      "chip": "ym2612"
    },
    {
      "channel": 0,
      "note": 80,
      "start": 30.9422,
      "duration": 0.025,
      "velocity": 94,
      "chip": "ym2612"
    },
    {
      "channel": 1,
      "note": 56,
      "start": 31.0336,
      "duration": 0.1475,
      "velocity": 101,
      "chip": "ym2612"
    },
    {
      "channel": 3,
      "note": 72,
      "start": 31.0361,
      "duration": 0.2569,
      "velocity": 127,
      "chip": "ym2612"
    },
    {
      "channel": 4,
      "note": 56,
      "start": 31.039,
      "duration": 0.1422,
      "velocity": 111,
      "chip": "ym2612"
    },
    {
      "channel": 0,
      "note": 80,
      "start": 31.0413,
      "duration": 0.0163,
      "velocity": 94,
      "chip": "ym2612"
    },
    {
      "channel": 0,
      "note": 80,
      "start": 31.1213,
      "duration": 0.0267,
      "velocity": 94,
      "chip": "ym2612"
    },
    {
      "channel": 1,
      "note": 56,
      "start": 31.211,
      "duration": 0.0882,
      "velocity": 101,
      "chip": "ym2612"
    },
    {
      "channel": 4,
      "note": 56,
      "start": 31.2142,
      "duration": 0.085,
      "velocity": 111,
      "chip": "ym2612"
    },
    {
      "channel": 0,
      "note": 80,
      "start": 31.2164,
      "duration": 0.0243,
      "velocity": 94,
      "chip": "ym2612"
    },
    {
      "channel": 1,
      "note": 61,
      "start": 31.3056,
      "duration": 0.1997,
      "velocity": 101,
      "chip": "ym2612"
    },
    {
      "channel": 3,
      "note": 56,
      "start": 31.3083,
      "duration": 0.1973,
      "velocity": 127,
      "chip": "ym2612"
    },
    {
      "channel": 2,
      "note": 61,
      "start": 31.3108,
      "duration": 0.4117,
      "velocity": 127,
      "chip": "ym2612"
    },
    {
      "channel": 0,
      "note": 61,
      "start": 31.3136,
      "duration": 1.3547,
      "velocity": 122,
      "chip": "ym2612"
    },
    {
      "channel": 4,
      "note": 61,
      "start": 31.3179,
      "duration": 0.071,
      "velocity": 94,
      "chip": "ym2612"
    },
    {
      "channel": 4,
      "note": 65,
      "start": 31.3931,
      "duration": 0.1125,
      "velocity": 94,
      "chip": "ym2612"
    },
    {
      "channel": 1,
      "note": 61,
      "start": 31.5086,
      "duration": 0.2136,
      "velocity": 101,
      "chip": "ym2612"
    },
    {
      "channel": 3,
      "note": 56,
      "start": 31.5112,
      "duration": 0.211,
      "velocity": 127,
      "chip": "ym2612"
    },
    {
      "channel": 4,
      "note": 68,
      "start": 31.5152,
      "duration": 0.0903,
      "velocity": 94,
      "chip": "ym2612"
    },
    {
      "channel": 4,
      "note": 65,
      "start": 31.6097,
      "duration": 0.1127,
      "velocity": 94,
      "chip": "ym2612"
    },
    {
      "channel": 1,
      "note": 61,
      "start": 31.7295,
      "duration": 0.088,
      "velocity": 101,
      "chip": "ym2612"
    },
    {
      "channel": 3,
      "note": 56,
      "start": 31.7321,
      "duration": 0.0856,
      "velocity": 127,
      "chip": "ym2612"
    },
    {
      "channel": 2,
      "note": 61,
      "start": 31.7346,
      "duration": 0.0834,
      "velocity": 127,
      "chip": "ym2612"
    },
    {
      "channel": 4,
      "note": 73,
      "start": 31.7376,
      "duration": 0.0357,
      "velocity": 94,
      "chip": "ym2612"
    },
    {
      "channel": 4,
      "note": 77,
      "start": 31.7776,
      "duration": 0.0402,
      "velocity": 94,
      "chip": "ym2612"
    },
    {
      "channel": 1,
      "note": 61,
      "start": 31.8202,
      "duration": 0.1416,
      "velocity": 101,
      "chip": "ym2612"
    },
    {
      "channel": 3,
      "note": 56,
      "start": 31.8225,
      "duration": 0.1394,
      "velocity": 127,
      "chip": "ym2612"
    },
    {
      "channel": 2,
      "note": 61,
      "start": 31.8259,
      "duration": 0.3302,
      "velocity": 127,
      "chip": "ym2612"
    },
    {
      "channel": 4,
      "note": 80,
      "start": 31.8288,
      "duration": 0.0347,
      "velocity": 94,
      "chip": "ym2612"
    },
    {
      "channel": 4,
      "note": 77,
      "start": 31.8679,
      "duration": 0.0942,
      "velocity": 94,
      "chip": "ym2612"
    },
    {
      "channel": 1,
      "note": 61,
      "start": 31.9685,
      "duration": 0.1872,
      "velocity": 101,
      "chip": "ym2612"
    },
    {
      "channel": 3,
      "note": 56,
      "start": 31.9707,
      "duration": 0.1851,
      "velocity": 127,
      "chip": "ym2612"
    },
    {
      "channel": 4,
      "note": 85,
      "start": 31.9736,
      "duration": 0.0823,
      "velocity": 94,
      "chip": "ym2612"
    },
    {
      "channel": 4,
      "note": 89,
      "start": 32.0601,
      "duration": 0.0958,
      "velocity": 94,
      "chip": "ym2612"
    },
    {
      "channel": 1,
      "note": 61,
      "start": 32.1622,
      "duration": 0.2032,
      "velocity": 101,
      "chip": "ym2612"
    },
    {
      "channel": 3,
      "note": 56,
      "start": 32.1644,
      "duration": 0.2012,
      "velocity": 127,
      "chip": "ym2612"
    },
    {
      "channel": 2,
      "note": 61,
      "start": 32.1668,
      "duration": 0.1989,
      "velocity": 127,
      "chip": "ym2612"
    },
    {
      "channel": 4,
      "note": 92,
      "start": 32.1698,
      "duration": 0.0789,
      "velocity": 94,
      "chip": "ym2612"
    },
    {
      "channel": 4,
      "note": 89,
      "start": 32.2534,
      "duration": 0.1123,
      "velocity": 94,
      "chip": "ym2612"
    },
    {
      "channel": 1,
      "note": 61,
      "start": 32.3728,
      "duration": 0.0868,
      "velocity": 101,
      "chip": "ym2612"
    },
    {
      "channel": 3,
      "note": 56,
      "start": 32.3753,
      "duration": 0.0844,
      "velocity": 127,
      "chip": "ym2612"
    },
    {
      "channel": 2,
      "note": 61,
      "start": 32.3778,
      "duration": 0.0824,
      "velocity": 127,
      "chip": "ym2612"
    },
    {
      "channel": 4,
      "note": 97,
      "start": 32.3808,
      "duration": 0.0351,
      "velocity": 94,
      "chip": "ym2612"
    },
    {
      "channel": 4,
      "note": 101,
      "start": 32.42,
      "duration": 0.0398,
      "velocity": 94,
      "chip": "ym2612"
    },
    {
      "channel": 1,
      "note": 61,
      "start": 32.4665,
      "duration": 0.202,
      "velocity": 101,
      "chip": "ym2612"
    },
    {
      "channel": 3,
      "note": 56,
      "start": 32.4688,
      "duration": 0.1997,
      "velocity": 127,
      "chip": "ym2612"
    },
    {
      "channel": 2,
      "note": 61,
      "start": 32.4713,
      "duration": 0.1975,
      "velocity": 127,
      "chip": "ym2612"
    },
    {
      "channel": 4,
      "note": 104,
      "start": 32.4742,
      "duration": 0.0775,
      "velocity": 94,
      "chip": "ym2612"
    },
    {
      "channel": 4,
      "note": 101,
      "start": 32.556,
      "duration": 0.1127,
      "velocity": 94,
      "chip": "ym2612"
    },
    {
      "channel": 1,
      "note": 59,
      "start": 32.6752,
      "duration": 0.1866,
      "velocity": 101,
      "chip": "ym2612"
    },
    {
      "channel": 3,
      "note": 56,
      "start": 32.6775,
      "duration": 0.1844,
      "velocity": 127,
      "chip": "ym2612"
    },
    {
      "channel": 2,
      "note": 61,
      "start": 32.68,
      "duration": 0.1822,
      "velocity": 127,
      "chip": "ym2612"
    },
    {
      "channel": 0,
      "note": 59,
      "start": 32.6821,
      "duration": 1.3639,
      "velocity": 122,
      "chip": "ym2612"
    },
    {
      "channel": 4,
      "note": 109,
      "start": 32.6867,
      "duration": 0.6317,
      "velocity": 94,
      "chip": "ym2612"
    },
    {
      "channel": 1,
      "note": 59,
      "start": 32.8649,
      "duration": 0.2302,
      "velocity": 101,
      "chip": "ym2612"
    },
    {
      "channel": 3,
      "note": 56,
      "start": 32.8675,
      "duration": 0.2277,
      "velocity": 127,
      "chip": "ym2612"
    },
    {
      "channel": 2,
      "note": 61,
      "start": 32.8702,
      "duration": 0.2252,
      "velocity": 127,
      "chip": "ym2612"
    },
    {
      "channel": 1,
      "note": 59,
      "start": 33.1016,
      "duration": 0.0868,
      "velocity": 101,
      "chip": "ym2612"
    },
    {
      "channel": 3,
      "note": 56,
      "start": 33.104,
      "duration": 0.0844,
      "velocity": 127,
      "chip": "ym2612"
    },
    {
      "channel": 2,
      "note": 61,
      "start": 33.1063,
      "duration": 0.0823,
      "velocity": 127,
      "chip": "ym2612"
    },
    {
      "channel": 1,
      "note": 59,
      "start": 33.1909,
      "duration": 0.1273,
      "velocity": 101,
      "chip": "ym2612"
    },
    {
      "channel": 3,
      "note": 56,
      "start": 33.1942,
      "duration": 0.1241,
      "velocity": 127,
      "chip": "ym2612"
    },
    {
      "channel": 2,
      "note": 61,
      "start": 33.1967,
      "duration": 0.1219,
      "velocity": 127,
      "chip": "ym2612"
    },
    {
      "channel": 1,
      "note": 59,
      "start": 33.3215,
      "duration": 0.2301,
      "velocity": 101,
      "chip": "ym2612"
    },
    {
      "channel": 3,
      "note": 56,
      "start": 33.3241,
      "duration": 0.2276,
      "velocity": 127,
      "chip": "ym2612"
    },
    {
      "channel": 2,
      "note": 61,
      "start": 33.3268,
      "duration": 0.2251,
      "velocity": 127,
      "chip": "ym2612"
    },
    {
      "channel": 1,
      "note": 66,
      "start": 33.5591,
      "duration": 0.2948,
      "velocity": 101,
      "chip": "ym2612"
    },
    {
      "channel": 3,
      "note": 61,
      "start": 33.5613,
      "duration": 0.201,
      "velocity": 127,
      "chip": "ym2612"
    },
    {
      "channel": 2,
      "note": 56,
      "start": 33.5638,
      "duration": 0.1987,
      "velocity": 127,
      "chip": "ym2612"
    },
    {
      "channel": 3,
      "note": 61,
      "start": 33.7698,
      "duration": 0.0843,
      "velocity": 127,
      "chip": "ym2612"
    },
    {
      "channel": 2,
      "note": 56,
      "start": 33.7722,
      "duration": 0.0823,
      "velocity": 127,
      "chip": "ym2612"
    },
    {
      "channel": 1,
      "note": 59,
      "start": 33.8609,
      "duration": 0.1852,
      "velocity": 101,
      "chip": "ym2612"
    },
    {
      "channel": 3,
      "note": 56,
      "start": 33.8632,
      "duration": 0.183,
      "velocity": 127,
      "chip": "ym2612"
    },
    {
      "channel": 2,
      "note": 61,
      "start": 33.8656,
      "duration": 0.1808,
      "velocity": 127,
      "chip": "ym2612"
    },
    {
      "channel": 1,
      "note": 58,
      "start": 34.0527,
      "duration": 0.2034,
      "velocity": 101,
      "chip": "ym2612"
    },
    {
      "channel": 3,
      "note": 54,
      "start": 34.0551,
      "duration": 0.2012,
      "velocity": 127,
      "chip": "ym2612"
    },
    {
      "channel": 2,
      "note": 61,
      "start": 34.0576,
      "duration": 0.1989,
      "velocity": 127,
      "chip": "ym2612"
    },
    {
      "channel": 0,
      "note": 58,
      "start": 34.0601,
      "duration": 1.3701,
      "velocity": 122,
      "chip": "ym2612"
    },
    {
      "channel": 4,
      "note": 109,
      "start": 34.0642,
      "duration": 0.6489,
      "velocity": 94,
      "chip": "ym2612"
    },
    {
      "channel": 1,
      "note": 58,
      "start": 34.2593,
      "duration": 0.2302,
      "velocity": 101,
      "chip": "ym2612"
    },
    {
      "channel": 3,
      "note": 54,
      "start": 34.2619,
      "duration": 0.2277,
      "velocity": 127,
      "chip": "ym2612"
    },
    {
      "channel": 2,
      "note": 61,
      "start": 34.2646,
      "duration": 0.2253,
      "velocity": 127,
      "chip": "ym2612"
    },
    {
      "channel": 1,
      "note": 58,
      "start": 34.4957,
      "duration": 0.0805,
      "velocity": 101,
      "chip": "ym2612"
    },
    {
      "channel": 3,
      "note": 54,
      "start": 34.4981,
      "duration": 0.0781,
      "velocity": 127,
      "chip": "ym2612"
    },
    {
      "channel": 2,
      "note": 61,
      "start": 34.5004,
      "duration": 0.0759,
      "velocity": 127,
      "chip": "ym2612"
    },
    {
      "channel": 1,
      "note": 58,
      "start": 34.5788,
      "duration": 0.1341,
      "velocity": 101,
      "chip": "ym2612"
    },
    {
      "channel": 3,
      "note": 54,
      "start": 34.581,
      "duration": 0.132,
      "velocity": 127,
      "chip": "ym2612"
    },
    {
      "channel": 2,
      "note": 61,
      "start": 34.5834,
      "duration": 0.1299,
      "velocity": 127,
      "chip": "ym2612"
    },
    {
      "channel": 1,
      "note": 58,
      "start": 34.7197,
      "duration": 0.204,
      "velocity": 101,
      "chip": "ym2612"
    },
    {
      "channel": 3,
      "note": 54,
      "start": 34.7218,
      "duration": 0.2019,
      "velocity": 127,
      "chip": "ym2612"
    },
    {
      "channel": 2,
      "note": 61,
      "start": 34.7242,
      "duration": 0.1997,
      "velocity": 127,
      "chip": "ym2612"
    },
    {
      "channel": 1,
      "note": 58,
      "start": 34.9298,
      "duration": 0.2043,
      "velocity": 101,
      "chip": "ym2612"
    },
    {
      "channel": 3,
      "note": 54,
      "start": 34.932,
      "duration": 0.2022,
      "velocity": 127,
      "chip": "ym2612"
    },
    {
      "channel": 2,
      "note": 61,
      "start": 34.9346,
      "duration": 0.1998,
      "velocity": 127,
      "chip": "ym2612"
    },
    {
      "channel": 1,
      "note": 58,
      "start": 35.1413,
      "duration": 0.08,
      "velocity": 101,
      "chip": "ym2612"
    },
    {
      "channel": 3,
      "note": 54,
      "start": 35.1438,
      "duration": 0.0777,
      "velocity": 127,
      "chip": "ym2612"
    },
    {
      "channel": 2,
      "note": 61,
      "start": 35.1463,
      "duration": 0.0756,
      "velocity": 127,
      "chip": "ym2612"
    },
    {
      "channel": 1,
      "note": 58,
      "start": 35.2281,
      "duration": 0.2023,
      "velocity": 101,
      "chip": "ym2612"
    },
    {
      "channel": 3,
      "note": 54,
      "start": 35.2304,
      "duration": 0.2001,
      "velocity": 127,
      "chip": "ym2612"
    },
    {
      "channel": 2,
      "note": 61,
      "start": 35.2328,
      "duration": 0.1979,
      "velocity": 127,
      "chip": "ym2612"
    },
    {
      "channel": 1,
      "note": 56,
      "start": 35.4374,
      "duration": 0.2031,
      "velocity": 101,
      "chip": "ym2612"
    },
    {
      "channel": 3,
      "note": 61,
      "start": 35.4395,
      "duration": 0.201,
      "velocity": 127,
      "chip": "ym2612"
    },
    {
      "channel": 2,
      "note": 53,
      "start": 35.4419,
      "duration": 0.1989,
      "velocity": 127,
      "chip": "ym2612"
    },
    {
      "channel": 0,
      "note": 56,
      "start": 35.4442,
      "duration": 0.6535,
      "velocity": 122,
      "chip": "ym2612"
    },
    {
      "channel": 4,
      "note": 109,
      "start": 35.4476,
      "duration": 0.6505,
      "velocity": 94,
      "chip": "ym2612"
    },
    {
      "channel": 1,
      "note": 56,
      "start": 35.6436,
      "duration": 0.2135,
      "velocity": 101,
      "chip": "ym2612"
    },
    {
      "channel": 3,
      "note": 61,
      "start": 35.6462,
      "duration": 0.211,
      "velocity": 127,
      "chip": "ym2612"
    },
    {
      "channel": 2,
      "note": 53,
      "start": 35.6488,
      "duration": 0.2086,
      "velocity": 127,
      "chip": "ym2612"
    },
    {
      "channel": 1,
      "note": 56,
      "start": 35.8643,
      "duration": 0.0866,
      "velocity": 101,
      "chip": "ym2612"
    },
    {
      "channel": 3,
      "note": 61,
      "start": 35.8668,
      "duration": 0.0842,
      "velocity": 127,
      "chip": "ym2612"
    },
    {
      "channel": 2,
      "note": 53,
      "start": 35.8692,
      "duration": 0.082,
      "velocity": 127,
      "chip": "ym2612"
    },
    {
      "channel": 1,
      "note": 56,
      "start": 35.9545,
      "duration": 0.1434,
      "velocity": 101,
      "chip": "ym2612"
    },
    {
      "channel": 3,
      "note": 61,
      "start": 35.9568,
      "duration": 0.1412,
      "velocity": 127,
      "chip": "ym2612"
    },
    {
      "channel": 2,
      "note": 53,
      "start": 35.9593,
      "duration": 0.139,
      "velocity": 127,
      "chip": "ym2612"
    },
    {
      "channel": 1,
      "note": 55,
      "start": 36.1049,
      "duration": 0.2025,
      "velocity": 101,
      "chip": "ym2612"
    },
    {
      "channel": 3,
      "note": 50,
      "start": 36.1072,
      "duration": 0.2002,
      "velocity": 127,
      "chip": "ym2612"
    },
    {
      "channel": 2,
      "note": 55,
      "start": 36.1095,
      "duration": 0.1981,
      "velocity": 127,
      "chip": "ym2612"
    },
    {
      "channel": 0,
      "note": 55,
      "start": 36.1119,
      "duration": 1.3559,
      "velocity": 122,
      "chip": "ym2612"
    },
    {
      "channel": 4,
      "note": 110,
      "start": 36.1158,
      "duration": 0.6864,
      "velocity": 94,
      "chip": "ym2612"
    },
    {
      "channel": 1,
      "note": 55,
      "start": 36.3137,
      "duration": 0.1866,
      "velocity": 101,
      "chip": "ym2612"
    },
    {
      "channel": 3,
      "note": 50,
      "start": 36.3158,
      "duration": 0.1847,
      "velocity": 127,
      "chip": "ym2612"
    },
    {
      "channel": 2,
      "note": 55,
      "start": 36.3183,
      "duration": 0.1825,
      "velocity": 127,
      "chip": "ym2612"
    },
    {
      "channel": 1,
      "note": 55,
      "start": 36.5066,
      "duration": 0.087,
      "velocity": 101,
      "chip": "ym2612"
    },
    {
      "channel": 3,
      "note": 50,
      "start": 36.509,
      "duration": 0.0847,
      "velocity": 127,
      "chip": "ym2612"
    },
    {
      "channel": 2,
      "note": 55,
      "start": 36.5115,
      "duration": 0.0827,
      "velocity": 127,
      "chip": "ym2612"
    },
    {
      "channel": 1,
      "note": 55,
      "start": 36.6005,
      "duration": 0.2015,
      "velocity": 101,
      "chip": "ym2612"
    },
    {
      "channel": 3,
      "note": 50,
      "start": 36.6029,
      "duration": 0.1992,
      "velocity": 127,
      "chip": "ym2612"
    },
    {
      "channel": 2,
      "note": 55,
      "start": 36.6054,
      "duration": 0.1969,
      "velocity": 127,
      "chip": "ym2612"
    },
    {
      "channel": 1,
      "note": 55,
      "start": 36.8087,
      "duration": 0.1871,
      "velocity": 101,
      "chip": "ym2612"
    },
    {
      "channel": 3,
      "note": 50,
      "start": 36.8109,
      "duration": 0.1851,
      "velocity": 127,
      "chip": "ym2612"
    },
    {
      "channel": 2,
      "note": 55,
      "start": 36.8133,
      "duration": 0.1829,
      "velocity": 127,
      "chip": "ym2612"
    },
    {
      "channel": 1,
      "note": 55,
      "start": 36.999,
      "duration": 0.2302,
      "velocity": 101,
      "chip": "ym2612"
    },
    {
      "channel": 3,
      "note": 50,
      "start": 37.0016,
      "duration": 0.2277,
      "velocity": 127,
      "chip": "ym2612"
    },
    {
      "channel": 2,
      "note": 55,
      "start": 37.0043,
      "duration": 0.2253,
      "velocity": 127,
      "chip": "ym2612"
    },
    {
      "channel": 1,
      "note": 55,
      "start": 37.2363,
      "duration": 0.0847,
      "velocity": 101,
      "chip": "ym2612"
    },
    {
      "channel": 3,
      "note": 50,
      "start": 37.2388,
      "duration": 0.0824,
      "velocity": 127,
      "chip": "ym2612"
    },
    {
      "channel": 2,
      "note": 55,
      "start": 37.2412,
      "duration": 0.08,
      "velocity": 127,
      "chip": "ym2612"
    },
    {
      "channel": 1,
      "note": 55,
      "start": 37.3244,
      "duration": 0.1434,
      "velocity": 101,
      "chip": "ym2612"
    },
    {
      "channel": 3,
      "note": 50,
      "start": 37.3268,
      "duration": 0.1411,
      "velocity": 127,
      "chip": "ym2612"
    },
    {
      "channel": 2,
      "note": 55,
      "start": 37.3293,
      "duration": 0.1389,
      "velocity": 127,
      "chip": "ym2612"
    },
    {
      "channel": 1,
      "note": 56,
      "start": 37.4744,
      "duration": 0.187,
      "velocity": 101,
      "chip": "ym2612"
    },
    {
      "channel": 3,
      "note": 50,
      "start": 37.4766,
      "duration": 0.1849,
      "velocity": 127,
      "chip": "ym2612"
    },
    {
      "channel": 2,
      "note": 56,
      "start": 37.4791,
      "duration": 0.1826,
      "velocity": 127,
      "chip": "ym2612"
    },
    {
      "channel": 0,
      "note": 56,
      "start": 37.4814,
      "duration": 0.6768,
      "velocity": 122,
      "chip": "ym2612"
    },
    {
      "channel": 1,
      "note": 56,
      "start": 37.668,
      "duration": 0.204,
      "velocity": 101,
      "chip": "ym2612"
    },
    {
      "channel": 3,
      "note": 50,
      "start": 37.6702,
      "duration": 0.202,
      "velocity": 127,
      "chip": "ym2612"
    },
    {
      "channel": 2,
      "note": 56,
      "start": 37.6727,
      "duration": 0.1997,
      "velocity": 127,
      "chip": "ym2612"
    },
    {
      "channel": 1,
      "note": 56,
      "start": 37.8791,
      "duration": 0.0869,
      "velocity": 101,
      "chip": "ym2612"
    },
    {
      "channel": 3,
      "note": 50,
      "start": 37.8816,
      "duration": 0.0846,
      "velocity": 127,
      "chip": "ym2612"
    },
    {
      "channel": 2,
      "note": 56,
      "start": 37.8839,
      "duration": 0.0827,
      "velocity": 127,
      "chip": "ym2612"
    },
    {
      "channel": 1,
      "note": 56,
      "start": 37.9728,
      "duration": 0.1856,
      "velocity": 101,
      "chip": "ym2612"
    },
    {
      "channel": 3,
      "note": 50,
      "start": 37.9752,
      "duration": 0.1834,
      "velocity": 127,
      "chip": "ym2612"
    },
    {
      "channel": 2,
      "note": 56,
      "start": 37.9777,
      "duration": 0.1811,
      "velocity": 127,
      "chip": "ym2612"
    },
    {
      "channel": 1,
      "note": 55,
      "start": 38.165,
      "duration": 0.2037,
      "velocity": 101,
      "chip": "ym2612"
    },
    {
      "channel": 3,
      "note": 50,
      "start": 38.1672,
      "duration": 0.2017,
      "velocity": 127,
      "chip": "ym2612"
    },
    {
      "channel": 2,
      "note": 55,
      "start": 38.1697,
      "duration": 0.1994,
      "velocity": 127,
      "chip": "ym2612"
    },
    {
      "channel": 0,
      "note": 55,
      "start": 38.1718,
      "duration": 0.6523,
      "velocity": 122,
      "chip": "ym2612"
    },
    {
      "channel": 4,
      "note": 110,
      "start": 38.1764,
      "duration": 1.0692,
      "velocity": 94,
      "chip": "ym2612"
    },
    {
      "channel": 1,
      "note": 55,
      "start": 38.3719,
      "duration": 0.2302,
      "velocity": 101,
      "chip": "ym2612"
    },
    {
      "channel": 3,
      "note": 50,
      "start": 38.3745,
      "duration": 0.2277,
      "velocity": 127,
      "chip": "ym2612"
    },
    {
      "channel": 2,
      "note": 55,
      "start": 38.3773,
      "duration": 0.2252,
      "velocity": 127,
      "chip": "ym2612"
    },
    {
      "channel": 1,
      "note": 54,
      "start": 38.6083,
      "duration": 0.0857,
      "velocity": 101,
      "chip": "ym2612"
    },
    {
      "channel": 3,
      "note": 50,
      "start": 38.6107,
      "duration": 0.0834,
      "velocity": 127,
      "chip": "ym2612"
    },
    {
      "channel": 2,
      "note": 55,
      "start": 38.6132,
      "duration": 0.0811,
      "velocity": 127,
      "chip": "ym2612"
    },
    {
      "channel": 1,
      "note": 55,
      "start": 38.6974,
      "duration": 0.1269,
      "velocity": 101,
      "chip": "ym2612"
    },
    {
      "channel": 3,
      "note": 50,
      "start": 38.6997,
      "duration": 0.1247,
      "velocity": 127,
      "chip": "ym2612"
    },
    {
      "channel": 2,
      "note": 55,
      "start": 38.7022,
      "duration": 0.1224,
      "velocity": 127,
      "chip": "ym2612"
    },
    {
      "channel": 1,
      "note": 56,
      "start": 38.8312,
      "duration": 0.2037,
      "velocity": 101,
      "chip": "ym2612"
    },
    {
      "channel": 3,
      "note": 51,
      "start": 38.8335,
      "duration": 0.2015,
      "velocity": 127,
      "chip": "ym2612"
    },
    {
      "channel": 2,
      "note": 56,
      "start": 38.8357,
      "duration": 0.1995,
      "velocity": 127,
      "chip": "ym2612"
    },
    {
      "channel": 0,
      "note": 56,
      "start": 38.8379,
      "duration": 0.7054,
      "velocity": 122,
      "chip": "ym2612"
    },
    {
      "channel": 1,
      "note": 56,
      "start": 39.0412,
      "duration": 0.2041,
      "velocity": 101,
      "chip": "ym2612"
    },
    {
      "channel": 3,
      "note": 51,
      "start": 39.0434,
      "duration": 0.2021,
      "velocity": 127,
      "chip": "ym2612"
    },
    {
      "channel": 2,
      "note": 56,
      "start": 39.0459,
      "duration": 0.1998,
      "velocity": 127,
      "chip": "ym2612"
    },
    {
      "channel": 1,
      "note": 56,
      "start": 39.2527,
      "duration": 0.0815,
      "velocity": 101,
      "chip": "ym2612"
    },
    {
      "channel": 3,
      "note": 51,
      "start": 39.2552,
      "duration": 0.0792,
      "velocity": 127,
      "chip": "ym2612"
    },
    {
      "channel": 2,
      "note": 56,
      "start": 39.2577,
      "duration": 0.0771,
      "velocity": 127,
      "chip": "ym2612"
    },
    {
      "channel": 1,
      "note": 56,
      "start": 39.3411,
      "duration": 0.2023,
      "velocity": 101,
      "chip": "ym2612"
    },
    {
      "channel": 3,
      "note": 51,
      "start": 39.3435,
      "duration": 0.2,
      "velocity": 127,
      "chip": "ym2612"
    },
    {
      "channel": 2,
      "note": 56,
      "start": 39.3459,
      "duration": 0.1978,
      "velocity": 127,
      "chip": "ym2612"
    },
    {
      "channel": 1,
      "note": 49,
      "start": 39.5497,
      "duration": 0.2043,
      "velocity": 101,
      "chip": "ym2612"
    },
    {
      "channel": 3,
      "note": 49,
      "start": 39.5518,
      "duration": 0.2024,
      "velocity": 127,
      "chip": "ym2612"
    },
    {
      "channel": 0,
      "note": 49,
      "start": 39.5544,
      "duration": 0.251,
      "velocity": 122,
      "chip": "ym2612"
    },
    {
      "channel": 4,
      "note": 49,
      "start": 39.5588,
      "duration": 0.2468,
      "velocity": 111,
      "chip": "ym2612"
    },
    {
      "channel": 2,
      "note": 49,
      "start": 39.5616,
      "duration": 0.1928,
      "velocity": 127,
      "chip": "ym2612"
    },
    {
      "channel": 1,
      "note": 61,
      "start": 39.7614,
      "duration": 0.0871,
      "velocity": 101,
      "chip": "ym2612"
    },
    {
      "channel": 3,
      "note": 61,
      "start": 39.7636,
      "duration": 0.085,
      "velocity": 127,
      "chip": "ym2612"
    },
    {
      "channel": 2,
      "note": 61,
      "start": 39.7667,
      "duration": 0.082,
      "velocity": 127,
      "chip": "ym2612"
    },
    {
      "channel": 1,
      "note": 60,
      "start": 39.8545,
      "duration": 0.0355,
      "velocity": 101,
      "chip": "ym2612"
    },
    {
      "channel": 3,
      "note": 60,
      "start": 39.8567,
      "duration": 0.077,
      "velocity": 127,
      "chip": "ym2612"
    },
    {
      "channel": 2,
      "note": 60,
      "start": 39.8601,
      "duration": 0.0301,
      "velocity": 127,
      "chip": "ym2612"
    },
    {
      "channel": 1,
      "note": 49,
      "start": 39.9404,
      "duration": 0.2006,
      "velocity": 101,
      "chip": "ym2612"
    },
    {
      "channel": 3,
      "note": 49,
      "start": 39.9426,
      "duration": 0.1984,
      "velocity": 127,
      "chip": "ym2612"
    },
    {
      "channel": 0,
      "note": 49,
      "start": 39.9448,
      "duration": 0.2474,
      "velocity": 122,
      "chip": "ym2612"
    },
    {
      "channel": 4,
      "note": 49,
      "start": 39.9477,
      "duration": 0.2446,
      "velocity": 111,
      "chip": "ym2612"
    },
    {
      "channel": 2,
      "note": 49,
      "start": 39.9512,
      "duration": 0.1901,
      "velocity": 127,
      "chip": "ym2612"
    },
    {
      "channel": 1,
      "note": 64,
      "start": 40.1483,
      "duration": 0.0878,
      "velocity": 101,
      "chip": "ym2612"
    },
    {
      "channel": 3,
      "note": 61,
      "start": 40.1505,
      "duration": 0.0858,
      "velocity": 127,
      "chip": "ym2612"
    },
    {
      "channel": 2,
      "note": 64,
      "start": 40.1535,
      "duration": 0.0831,
      "velocity": 127,
      "chip": "ym2612"
    },
    {
      "channel": 1,
      "note": 63,
      "start": 40.2432,
      "duration": 0.1353,
      "velocity": 101,
      "chip": "ym2612"
    },
    {
      "channel": 3,
      "note": 60,
      "start": 40.2452,
      "duration": 0.1832,
      "velocity": 127,
      "chip": "ym2612"
    },
    {
      "channel": 2,
      "note": 63,
      "start": 40.2485,
      "duration": 0.1301,
      "velocity": 127,
      "chip": "ym2612"
    },
    {
      "channel": 1,
      "note": 49,
      "start": 40.4346,
      "duration": 0.203,
      "velocity": 101,
      "chip": "ym2612"
    },
    {
      "channel": 3,
      "note": 49,
      "start": 40.4368,
      "duration": 0.201,
      "velocity": 127,
      "chip": "ym2612"
    },
    {
      "channel": 0,
      "note": 49,
      "start": 40.4386,
      "duration": 0.2506,
      "velocity": 122,
      "chip": "ym2612"
    },
    {
      "channel": 4,
      "note": 49,
      "start": 40.4416,
      "duration": 0.2477,
      "velocity": 111,
      "chip": "ym2612"
    },
    {
      "channel": 2,
      "note": 49,
      "start": 40.445,
      "duration": 0.193,
      "velocity": 127,
      "chip": "ym2612"
    },
    {
      "channel": 1,
      "note": 56,
      "start": 40.6448,
      "duration": 0.0872,
      "velocity": 101,
      "chip": "ym2612"
    },
    {
      "channel": 3,
      "note": 64,
      "start": 40.647,
      "duration": 0.0852,
      "velocity": 127,
      "chip": "ym2612"
    },
    {
      "channel": 2,
      "note": 68,
      "start": 40.6503,
      "duration": 0.0823,
      "velocity": 127,
      "chip": "ym2612"
    },
    {
      "channel": 1,
      "note": 55,
      "start": 40.7394,
      "duration": 0.1356,
      "velocity": 101,
      "chip": "ym2612"
    },
    {
      "channel": 3,
      "note": 63,
      "start": 40.7417,
      "duration": 0.2,
      "velocity": 127,
      "chip": "ym2612"
    },
    {
      "channel": 2,
      "note": 67,
      "start": 40.745,
      "duration": 0.1302,
      "velocity": 127,
      "chip": "ym2612"
    },
    {
      "channel": 1,
      "note": 49,
      "start": 40.9481,
      "duration": 0.1883,
      "velocity": 101,
      "chip": "ym2612"
    },
    {
      "channel": 3,
      "note": 49,
      "start": 40.9506,
      "duration": 0.1859,
      "velocity": 127,
      "chip": "ym2612"
    },
    {
      "channel": 0,
      "note": 49,
      "start": 40.9529,
      "duration": 0.2346,
      "velocity": 122,
      "chip": "ym2612"
    },
    {
      "channel": 4,
      "note": 49,
      "start": 40.9561,
      "duration": 0.2315,
      "velocity": 111,
      "chip": "ym2612"
    },
    {
      "channel": 2,
      "note": 49,
      "start": 40.9598,
      "duration": 0.1769,
      "velocity": 127,
      "chip": "ym2612"
    },
    {
      "channel": 1,
      "note": 61,
      "start": 41.1435,
      "duration": 0.0871,
      "velocity": 101,
      "chip": "ym2612"
    },
    {
      "channel": 3,
      "note": 68,
      "start": 41.1457,
      "duration": 0.0849,
      "velocity": 127,
      "chip": "ym2612"
    },
    {
      "channel": 2,
      "note": 73,
      "start": 41.149,
      "duration": 0.0819,
      "velocity": 127,
      "chip": "ym2612"
    },
    {
      "channel": 1,
      "note": 60,
      "start": 41.2366,
      "duration": 0.0667,
      "velocity": 101,
      "chip": "ym2612"
    },
    {
      "channel": 3,
      "note": 67,
      "start": 41.2389,
      "duration": 0.0835,
      "velocity": 127,
      "chip": "ym2612"
    },
    {
      "channel": 2,
      "note": 72,
      "start": 41.2421,
      "duration": 0.0615,
      "velocity": 127,
      "chip": "ym2612"
    },
    {
      "channel": 1,
      "note": 49,
      "start": 41.3282,
      "duration": 0.186,
      "velocity": 101,
      "chip": "ym2612"
    },
    {
      "channel": 3,
      "note": 49,
      "start": 41.3303,
      "duration": 0.1841,
      "velocity": 127,
      "chip": "ym2612"
    },
    {
      "channel": 0,
      "note": 49,
      "start": 41.3327,
      "duration": 0.1814,
      "velocity": 122,
      "chip": "ym2612"
    },
    {
      "channel": 4,
      "note": 49,
      "start": 41.336,
      "duration": 0.1785,
      "velocity": 111,
      "chip": "ym2612"
    },
    {
      "channel": 2,
      "note": 49,
      "start": 41.3395,
      "duration": 0.1751,
      "velocity": 127,
      "chip": "ym2612"
    },
    {
      "channel": 1,
      "note": 55,
      "start": 41.5216,
      "duration": 0.0874,
      "velocity": 101,
      "chip": "ym2612"
    },
    {
      "channel": 3,
      "note": 55,
      "start": 41.5237,
      "duration": 0.0854,
      "velocity": 127,
      "chip": "ym2612"
    },
    {
      "channel": 0,
      "note": 55,
      "start": 41.5258,
      "duration": 0.0831,
      "velocity": 122,
      "chip": "ym2612"
    },
    {
      "channel": 4,
      "note": 55,
      "start": 41.5289,
      "duration": 0.0805,
      "velocity": 111,
      "chip": "ym2612"
    },
    {
      "channel": 2,
      "note": 55,
      "start": 41.5314,
      "duration": 0.0782,
      "velocity": 127,
      "chip": "ym2612"
    },
    {
      "channel": 1,
      "note": 56,
      "start": 41.6161,
      "duration": 0.2013,
      "velocity": 101,
      "chip": "ym2612"
    },
    {
      "channel": 3,
      "note": 56,
      "start": 41.6182,
      "duration": 0.1993,
      "velocity": 127,
      "chip": "ym2612"
    },
    {
      "channel": 0,
      "note": 56,
      "start": 41.6202,
      "duration": 0.197,
      "velocity": 122,
      "chip": "ym2612"
    },
    {
      "channel": 4,
      "note": 56,
      "start": 41.6233,
      "duration": 0.1944,
      "velocity": 111,
      "chip": "ym2612"
    },
    {
      "channel": 2,
      "note": 56,
      "start": 41.6258,
      "duration": 0.192,
      "velocity": 127,
      "chip": "ym2612"
    },
    {
      "channel": 1,
      "note": 49,
      "start": 41.8239,
      "duration": 0.0872,
      "velocity": 101,
      "chip": "ym2612"
    },
    {
      "channel": 3,
      "note": 49,
      "start": 41.826,
      "duration": 0.0852,
      "velocity": 127,
      "chip": "ym2612"
    },
    {
      "channel": 0,
      "note": 49,
      "start": 41.828,
      "duration": 0.0831,
      "velocity": 122,
      "chip": "ym2612"
    },
    {
      "channel": 4,
      "note": 49,
      "start": 41.8311,
      "duration": 0.0802,
      "velocity": 111,
      "chip": "ym2612"
    },
    {
      "channel": 2,
      "note": 49,
      "start": 41.8336,
      "duration": 0.0778,
      "velocity": 127,
      "chip": "ym2612"
    },
    {
      "channel": 1,
      "note": 54,
      "start": 41.9194,
      "duration": 0.2655,
      "velocity": 101,
      "chip": "ym2612"
    },
    {
      "channel": 3,
      "note": 54,
      "start": 41.9226,
      "duration": 0.2625,
      "velocity": 127,
      "chip": "ym2612"
    },
    {
      "channel": 0,
      "note": 54,
      "start": 41.9266,
      "duration": 0.2583,
      "velocity": 122,
      "chip": "ym2612"
    },
    {
      "channel": 4,
      "note": 54,
      "start": 41.9312,
      "duration": 0.254,
      "velocity": 111,
      "chip": "ym2612"
    },
    {
      "channel": 2,
      "note": 60,
      "start": 41.9365,
      "duration": 15.2141,
      "velocity": 127,
      "chip": "ym2612"
    }
  ]
}