{
  "track_name": "05 - Italy, Greece, India",
  "duration_sec": 44.096,
  "sample_rate": 44100,
  "note_count": 348,
  "unique_pitches": 24,
  "pitch_range": 46,
  "avg_note_duration": 0.2362,
  "reconstruction_stats": {
    "notes_reconstructed": 348,
    "keyon_events": 348,
    "keyoff_events": 348,
    "orphan_keyons": 0,
    "unique_pitches": 24,
    "pitch_range": 46,
    "avg_duration_sec": 0.2362
  },
  "metadata": {
    "source": "T\\TaleSpin (MD)\\05 - Italy, Greece, India.vgz"
  },
  "notes": [
    {
      "channel": 4,
      "note": 82,
      "start": 0.0022,
      "duration": 0.0499,
      "velocity": 110,
      "chip": "ym2612"
    },
    {
      "channel": 2,
      "note": 51,
      "start": 0.0122,
      "duration": 0.4401,
      "velocity": 99,
      "chip": "ym2612"
    },
    {
      "channel": 4,
      "note": 84,
      "start": 0.2218,
      "duration": 0.1137,
      "velocity": 110,
      "chip": "ym2612"
    },
    {
      "channel": 4,
      "note": 87,
      "start": 0.4886,
      "duration": 0.024,
      "velocity": 110,
      "chip": "ym2612"
    },
    {
      "channel": 2,
      "note": 63,
      "start": 0.4953,
      "duration": 0.2383,
      "velocity": 99,
      "chip": "ym2612"
    },
    {
      "channel": 4,
      "note": 89,
      "start": 0.5536,
      "duration": 0.0799,
      "velocity": 110,
      "chip": "ym2612"
    },
    {
      "channel": 4,
      "note": 82,
      "start": 0.8198,
      "duration": 0.0529,
      "velocity": 110,
      "chip": "ym2612"
    },
    {
      "channel": 2,
      "note": 51,
      "start": 0.8261,
      "duration": 0.1632,
      "velocity": 99,
      "chip": "ym2612"
    },
    {
      "channel": 4,
      "note": 84,
      "start": 1.0589,
      "duration": 0.1137,
      "velocity": 110,
      "chip": "ym2612"
    },
    {
      "channel": 2,
      "note": 63,
      "start": 1.0623,
      "duration": 0.0771,
      "velocity": 99,
      "chip": "ym2612"
    },
    {
      "channel": 2,
      "note": 51,
      "start": 1.1759,
      "duration": 0.0301,
      "velocity": 99,
      "chip": "ym2612"
    },
    {
      "channel": 4,
      "note": 87,
      "start": 1.3088,
      "duration": 0.0971,
      "velocity": 110,
      "chip": "ym2612"
    },
    {
      "channel": 2,
      "note": 51,
      "start": 1.3117,
      "duration": 0.111,
      "velocity": 99,
      "chip": "ym2612"
    },
    {
      "channel": 2,
      "note": 63,
      "start": 1.4461,
      "duration": 0.1084,
      "velocity": 99,
      "chip": "ym2612"
    },
    {
      "channel": 4,
      "note": 89,
      "start": 1.5075,
      "duration": 0.0636,
      "velocity": 110,
      "chip": "ym2612"
    },
    {
      "channel": 4,
      "note": 82,
      "start": 1.642,
      "duration": 0.0336,
      "velocity": 110,
      "chip": "ym2612"
    },
    {
      "channel": 2,
      "note": 56,
      "start": 1.6488,
      "duration": 0.4769,
      "velocity": 99,
      "chip": "ym2612"
    },
    {
      "channel": 4,
      "note": 84,
      "start": 1.8785,
      "duration": 0.0971,
      "velocity": 110,
      "chip": "ym2612"
    },
    {
      "channel": 4,
      "note": 87,
      "start": 2.1287,
      "duration": 0.0243,
      "velocity": 110,
      "chip": "ym2612"
    },
    {
      "channel": 2,
      "note": 68,
      "start": 2.1353,
      "duration": 0.2557,
      "velocity": 99,
      "chip": "ym2612"
    },
    {
      "channel": 4,
      "note": 89,
      "start": 2.1939,
      "duration": 0.0637,
      "velocity": 110,
      "chip": "ym2612"
    },
    {
      "channel": 4,
      "note": 82,
      "start": 2.4622,
      "duration": 0.0502,
      "velocity": 110,
      "chip": "ym2612"
    },
    {
      "channel": 2,
      "note": 56,
      "start": 2.469,
      "duration": 0.1769,
      "velocity": 99,
      "chip": "ym2612"
    },
    {
      "channel": 4,
      "note": 84,
      "start": 2.6986,
      "duration": 0.1304,
      "velocity": 110,
      "chip": "ym2612"
    },
    {
      "channel": 2,
      "note": 68,
      "start": 2.7016,
      "duration": 0.0776,
      "velocity": 99,
      "chip": "ym2612"
    },
    {
      "channel": 2,
      "note": 56,
      "start": 2.8324,
      "duration": 0.0302,
      "velocity": 99,
      "chip": "ym2612"
    },
    {
      "channel": 4,
      "note": 87,
      "start": 2.9654,
      "duration": 0.097,
      "velocity": 110,
      "chip": "ym2612"
    },
    {
      "channel": 2,
      "note": 56,
      "start": 2.9683,
      "duration": 0.0943,
      "velocity": 99,
      "chip": "ym2612"
    },
    {
      "channel": 2,
      "note": 68,
      "start": 3.0861,
      "duration": 0.175,
      "velocity": 99,
      "chip": "ym2612"
    },
    {
      "channel": 4,
      "note": 89,
      "start": 3.1474,
      "duration": 0.0635,
      "velocity": 110,
      "chip": "ym2612"
    },
    {
      "channel": 4,
      "note": 82,
      "start": 3.2816,
      "duration": 0.0353,
      "velocity": 110,
      "chip": "ym2612"
    },
    {
      "channel": 2,
      "note": 55,
      "start": 3.2881,
      "duration": 0.4455,
      "velocity": 99,
      "chip": "ym2612"
    },
    {
      "channel": 4,
      "note": 84,
      "start": 3.5198,
      "duration": 0.1139,
      "velocity": 110,
      "chip": "ym2612"
    },
    {
      "channel": 4,
      "note": 87,
      "start": 3.7871,
      "duration": 0.0241,
      "velocity": 110,
      "chip": "ym2612"
    },
    {
      "channel": 2,
      "note": 67,
      "start": 3.7937,
      "duration": 0.3053,
      "velocity": 99,
      "chip": "ym2612"
    },
    {
      "channel": 4,
      "note": 89,
      "start": 3.8521,
      "duration": 0.0636,
      "velocity": 110,
      "chip": "ym2612"
    },
    {
      "channel": 4,
      "note": 82,
      "start": 4.1033,
      "duration": 0.0678,
      "velocity": 110,
      "chip": "ym2612"
    },
    {
      "channel": 2,
      "note": 55,
      "start": 4.1102,
      "duration": 0.1944,
      "velocity": 99,
      "chip": "ym2612"
    },
    {
      "channel": 4,
      "note": 84,
      "start": 4.3406,
      "duration": 0.1305,
      "velocity": 110,
      "chip": "ym2612"
    },
    {
      "channel": 2,
      "note": 67,
      "start": 4.3437,
      "duration": 0.0609,
      "velocity": 99,
      "chip": "ym2612"
    },
    {
      "channel": 2,
      "note": 55,
      "start": 4.4744,
      "duration": 0.0135,
      "velocity": 99,
      "chip": "ym2612"
    },
    {
      "channel": 4,
      "note": 87,
      "start": 4.6073,
      "duration": 0.0971,
      "velocity": 110,
      "chip": "ym2612"
    },
    {
      "channel": 2,
      "note": 55,
      "start": 4.6103,
      "duration": 0.0943,
      "velocity": 99,
      "chip": "ym2612"
    },
    {
      "channel": 4,
      "note": 89,
      "start": 4.8078,
      "duration": 0.0632,
      "velocity": 110,
      "chip": "ym2612"
    },
    {
      "channel": 2,
      "note": 67,
      "start": 4.8108,
      "duration": 0.1811,
      "velocity": 99,
      "chip": "ym2612"
    },
    {
      "channel": 4,
      "note": 82,
      "start": 4.9417,
      "duration": 0.0205,
      "velocity": 110,
      "chip": "ym2612"
    },
    {
      "channel": 0,
      "note": 53,
      "start": 4.9483,
      "duration": 0.4099,
      "velocity": 99,
      "chip": "ym2612"
    },
    {
      "channel": 4,
      "note": 84,
      "start": 5.1615,
      "duration": 0.1303,
      "velocity": 110,
      "chip": "ym2612"
    },
    {
      "channel": 4,
      "note": 87,
      "start": 5.4283,
      "duration": 0.024,
      "velocity": 110,
      "chip": "ym2612"
    },
    {
      "channel": 0,
      "note": 65,
      "start": 5.4343,
      "duration": 0.2885,
      "velocity": 99,
      "chip": "ym2612"
    },
    {
      "channel": 4,
      "note": 89,
      "start": 5.4926,
      "duration": 0.0637,
      "velocity": 110,
      "chip": "ym2612"
    },
    {
      "channel": 4,
      "note": 82,
      "start": 5.7609,
      "duration": 0.0787,
      "velocity": 110,
      "chip": "ym2612"
    },
    {
      "channel": 0,
      "note": 53,
      "start": 5.7636,
      "duration": 0.1505,
      "velocity": 99,
      "chip": "ym2612"
    },
    {
      "channel": 4,
      "note": 84,
      "start": 5.9838,
      "duration": 0.0446,
      "velocity": 110,
      "chip": "ym2612"
    },
    {
      "channel": 0,
      "note": 65,
      "start": 5.9898,
      "duration": 0.0324,
      "velocity": 99,
      "chip": "ym2612"
    },
    {
      "channel": 0,
      "note": 53,
      "start": 6.038,
      "duration": 0.0159,
      "velocity": 99,
      "chip": "ym2612"
    },
    {
      "channel": 4,
      "note": 87,
      "start": 6.0874,
      "duration": 0.0435,
      "velocity": 110,
      "chip": "ym2612"
    },
    {
      "channel": 0,
      "note": 53,
      "start": 6.0936,
      "duration": 0.0372,
      "velocity": 99,
      "chip": "ym2612"
    },
    {
      "channel": 0,
      "note": 65,
      "start": 6.1437,
      "duration": 0.0683,
      "velocity": 99,
      "chip": "ym2612"
    },
    {
      "channel": 4,
      "note": 89,
      "start": 6.1911,
      "duration": 0.0211,
      "velocity": 110,
      "chip": "ym2612"
    },
    {
      "channel": 4,
      "note": 82,
      "start": 6.2754,
      "duration": 0.0513,
      "velocity": 110,
      "chip": "ym2612"
    },
    {
      "channel": 0,
      "note": 51,
      "start": 6.2854,
      "duration": 0.4411,
      "velocity": 99,
      "chip": "ym2612"
    },
    {
      "channel": 1,
      "note": 75,
      "start": 6.2912,
      "duration": 0.904,
      "velocity": 108,
      "chip": "ym2612"
    },
    {
      "channel": 3,
      "note": 70,
      "start": 6.2938,
      "duration": 0.9015,
      "velocity": 108,
      "chip": "ym2612"
    },
    {
      "channel": 2,
      "note": 79,
      "start": 6.2966,
      "duration": 0.899,
      "velocity": 108,
      "chip": "ym2612"
    },
    {
      "channel": 4,
      "note": 84,
      "start": 6.513,
      "duration": 0.0971,
      "velocity": 110,
      "chip": "ym2612"
    },
    {
      "channel": 4,
      "note": 87,
      "start": 6.763,
      "duration": 0.0239,
      "velocity": 110,
      "chip": "ym2612"
    },
    {
      "channel": 0,
      "note": 63,
      "start": 6.7695,
      "duration": 0.2381,
      "velocity": 99,
      "chip": "ym2612"
    },
    {
      "channel": 4,
      "note": 89,
      "start": 6.8275,
      "duration": 0.0804,
      "velocity": 110,
      "chip": "ym2612"
    },
    {
      "channel": 4,
      "note": 82,
      "start": 7.0944,
      "duration": 0.0509,
      "velocity": 110,
      "chip": "ym2612"
    },
    {
      "channel": 0,
      "note": 51,
      "start": 7.1012,
      "duration": 0.1606,
      "velocity": 99,
      "chip": "ym2612"
    },
    {
      "channel": 4,
      "note": 84,
      "start": 7.3316,
      "duration": 0.1304,
      "velocity": 110,
      "chip": "ym2612"
    },
    {
      "channel": 0,
      "note": 63,
      "start": 7.3343,
      "duration": 0.0774,
      "velocity": 99,
      "chip": "ym2612"
    },
    {
      "channel": 0,
      "note": 51,
      "start": 7.465,
      "duration": 0.0136,
      "velocity": 99,
      "chip": "ym2612"
    },
    {
      "channel": 4,
      "note": 87,
      "start": 7.5815,
      "duration": 0.0972,
      "velocity": 110,
      "chip": "ym2612"
    },
    {
      "channel": 0,
      "note": 51,
      "start": 7.5841,
      "duration": 0.1108,
      "velocity": 99,
      "chip": "ym2612"
    },
    {
      "channel": 0,
      "note": 63,
      "start": 7.7186,
      "duration": 0.1082,
      "velocity": 99,
      "chip": "ym2612"
    },
    {
      "channel": 4,
      "note": 89,
      "start": 7.7799,
      "duration": 0.0637,
      "velocity": 110,
      "chip": "ym2612"
    },
    {
      "channel": 4,
      "note": 82,
      "start": 7.9142,
      "duration": 0.0351,
      "velocity": 110,
      "chip": "ym2612"
    },
    {
      "channel": 0,
      "note": 56,
      "start": 7.9203,
      "duration": 0.4953,
      "velocity": 99,
      "chip": "ym2612"
    },
    {
      "channel": 1,
      "note": 72,
      "start": 7.9238,
      "duration": 0.9115,
      "velocity": 108,
      "chip": "ym2612"
    },
    {
      "channel": 3,
      "note": 80,
      "start": 7.9263,
      "duration": 0.9092,
      "velocity": 108,
      "chip": "ym2612"
    },
    {
      "channel": 4,
      "note": 84,
      "start": 8.1521,
      "duration": 0.0971,
      "velocity": 110,
      "chip": "ym2612"
    },
    {
      "channel": 4,
      "note": 87,
      "start": 8.4194,
      "duration": 0.0242,
      "velocity": 110,
      "chip": "ym2612"
    },
    {
      "channel": 0,
      "note": 68,
      "start": 8.4261,
      "duration": 0.2383,
      "velocity": 99,
      "chip": "ym2612"
    },
    {
      "channel": 4,
      "note": 89,
      "start": 8.4675,
      "duration": 0.0637,
      "velocity": 110,
      "chip": "ym2612"
    },
    {
      "channel": 4,
      "note": 82,
      "start": 8.7355,
      "duration": 0.05,
      "velocity": 110,
      "chip": "ym2612"
    },
    {
      "channel": 0,
      "note": 56,
      "start": 8.7416,
      "duration": 0.177,
      "velocity": 99,
      "chip": "ym2612"
    },
    {
      "channel": 4,
      "note": 84,
      "start": 8.9717,
      "duration": 0.1303,
      "velocity": 110,
      "chip": "ym2612"
    },
    {
      "channel": 0,
      "note": 68,
      "start": 8.9744,
      "duration": 0.0775,
      "velocity": 99,
      "chip": "ym2612"
    },
    {
      "channel": 0,
      "note": 56,
      "start": 9.105,
      "duration": 0.0303,
      "velocity": 99,
      "chip": "ym2612"
    },
    {
      "channel": 4,
      "note": 87,
      "start": 9.2384,
      "duration": 0.0971,
      "velocity": 110,
      "chip": "ym2612"
    },
    {
      "channel": 0,
      "note": 56,
      "start": 9.2409,
      "duration": 0.0944,
      "velocity": 99,
      "chip": "ym2612"
    },
    {
      "channel": 0,
      "note": 68,
      "start": 9.3753,
      "duration": 0.1582,
      "velocity": 99,
      "chip": "ym2612"
    },
    {
      "channel": 4,
      "note": 89,
      "start": 9.4205,
      "duration": 0.0632,
      "velocity": 110,
      "chip": "ym2612"
    },
    {
      "channel": 4,
      "note": 82,
      "start": 9.5543,
      "duration": 0.0358,
      "velocity": 110,
      "chip": "ym2612"
    },
    {
      "channel": 0,
      "note": 55,
      "start": 9.5614,
      "duration": 0.4453,
      "velocity": 99,
      "chip": "ym2612"
    },
    {
      "channel": 1,
      "note": 75,
      "start": 9.5648,
      "duration": 0.9121,
      "velocity": 108,
      "chip": "ym2612"
    },
    {
      "channel": 3,
      "note": 79,
      "start": 9.5671,
      "duration": 0.91,
      "velocity": 108,
      "chip": "ym2612"
    },
    {
      "channel": 2,
      "note": 72,
      "start": 9.5712,
      "duration": 0.9061,
      "velocity": 108,
      "chip": "ym2612"
    },
    {
      "channel": 4,
      "note": 84,
      "start": 9.7931,
      "duration": 0.1137,
      "velocity": 110,
      "chip": "ym2612"
    },
    {
      "channel": 4,
      "note": 87,
      "start": 10.0598,
      "duration": 0.0241,
      "velocity": 110,
      "chip": "ym2612"
    },
    {
      "channel": 0,
      "note": 67,
      "start": 10.0661,
      "duration": 0.3052,
      "velocity": 99,
      "chip": "ym2612"
    },
    {
      "channel": 4,
      "note": 89,
      "start": 10.1244,
      "duration": 0.0637,
      "velocity": 110,
      "chip": "ym2612"
    },
    {
      "channel": 4,
      "note": 82,
      "start": 10.3761,
      "duration": 0.0676,
      "velocity": 110,
      "chip": "ym2612"
    },
    {
      "channel": 0,
      "note": 55,
      "start": 10.3824,
      "duration": 0.1943,
      "velocity": 99,
      "chip": "ym2612"
    },
    {
      "channel": 4,
      "note": 84,
      "start": 10.6132,
      "duration": 0.1303,
      "velocity": 110,
      "chip": "ym2612"
    },
    {
      "channel": 0,
      "note": 67,
      "start": 10.616,
      "duration": 0.0607,
      "velocity": 99,
      "chip": "ym2612"
    },
    {
      "channel": 0,
      "note": 55,
      "start": 10.7466,
      "duration": 0.0136,
      "velocity": 99,
      "chip": "ym2612"
    },
    {
      "channel": 4,
      "note": 87,
      "start": 10.88,
      "duration": 0.1138,
      "velocity": 110,
      "chip": "ym2612"
    },
    {
      "channel": 0,
      "note": 55,
      "start": 10.8831,
      "duration": 0.1105,
      "velocity": 99,
      "chip": "ym2612"
    },
    {
      "channel": 4,
      "note": 89,
      "start": 11.0798,
      "duration": 0.0637,
      "velocity": 110,
      "chip": "ym2612"
    },
    {
      "channel": 0,
      "note": 67,
      "start": 11.0825,
      "duration": 0.1834,
      "velocity": 99,
      "chip": "ym2612"
    },
    {
      "channel": 4,
      "note": 82,
      "start": 11.2141,
      "duration": 0.0352,
      "velocity": 110,
      "chip": "ym2612"
    },
    {
      "channel": 1,
      "note": 53,
      "start": 11.2207,
      "duration": 0.412,
      "velocity": 99,
      "chip": "ym2612"
    },
    {
      "channel": 3,
      "note": 70,
      "start": 11.2241,
      "duration": 0.9399,
      "velocity": 108,
      "chip": "ym2612"
    },
    {
      "channel": 2,
      "note": 77,
      "start": 11.2268,
      "duration": 0.9374,
      "velocity": 108,
      "chip": "ym2612"
    },
    {
      "channel": 4,
      "note": 84,
      "start": 11.436,
      "duration": 0.1301,
      "velocity": 110,
      "chip": "ym2612"
    },
    {
      "channel": 4,
      "note": 87,
      "start": 11.7025,
      "duration": 0.0241,
      "velocity": 110,
      "chip": "ym2612"
    },
    {
      "channel": 0,
      "note": 65,
      "start": 11.7085,
      "duration": 0.2885,
      "velocity": 99,
      "chip": "ym2612"
    },
    {
      "channel": 4,
      "note": 89,
      "start": 11.767,
      "duration": 0.0637,
      "velocity": 110,
      "chip": "ym2612"
    },
    {
      "channel": 4,
      "note": 82,
      "start": 12.0349,
      "duration": 0.0791,
      "velocity": 110,
      "chip": "ym2612"
    },
    {
      "channel": 0,
      "note": 53,
      "start": 12.0376,
      "duration": 0.1679,
      "velocity": 99,
      "chip": "ym2612"
    },
    {
      "channel": 4,
      "note": 84,
      "start": 12.2752,
      "duration": 0.0393,
      "velocity": 110,
      "chip": "ym2612"
    },
    {
      "channel": 0,
      "note": 65,
      "start": 12.2812,
      "duration": 0.0268,
      "velocity": 99,
      "chip": "ym2612"
    },
    {
      "channel": 0,
      "note": 53,
      "start": 12.3235,
      "duration": 0.0159,
      "velocity": 99,
      "chip": "ym2612"
    },
    {
      "channel": 4,
      "note": 87,
      "start": 12.3727,
      "duration": 0.0439,
      "velocity": 110,
      "chip": "ym2612"
    },
    {
      "channel": 0,
      "note": 53,
      "start": 12.3799,
      "duration": 0.0366,
      "velocity": 99,
      "chip": "ym2612"
    },
    {
      "channel": 0,
      "note": 65,
      "start": 12.4283,
      "duration": 0.0693,
      "velocity": 99,
      "chip": "ym2612"
    },
    {
      "channel": 4,
      "note": 89,
      "start": 12.4773,
      "duration": 0.0205,
      "velocity": 110,
      "chip": "ym2612"
    },
    {
      "channel": 0,
      "note": 51,
      "start": 12.5625,
      "duration": 0.4498,
      "velocity": 99,
      "chip": "ym2612"
    },
    {
      "channel": 3,
      "note": 79,
      "start": 12.567,
      "duration": 0.9163,
      "velocity": 108,
      "chip": "ym2612"
    },
    {
      "channel": 2,
      "note": 70,
      "start": 12.5696,
      "duration": 0.9139,
      "velocity": 108,
      "chip": "ym2612"
    },
    {
      "channel": 1,
      "note": 75,
      "start": 12.5734,
      "duration": 0.9097,
      "velocity": 108,
      "chip": "ym2612"
    },
    {
      "channel": 4,
      "note": 82,
      "start": 12.581,
      "duration": 3.0859,
      "velocity": 1,
      "chip": "ym2612"
    },
    {
      "channel": 0,
      "note": 63,
      "start": 13.0525,
      "duration": 0.2415,
      "velocity": 99,
      "chip": "ym2612"
    },
    {
      "channel": 0,
      "note": 51,
      "start": 13.3839,
      "duration": 0.1657,
      "velocity": 99,
      "chip": "ym2612"
    },
    {
      "channel": 0,
      "note": 63,
      "start": 13.6201,
      "duration": 0.0797,
      "velocity": 99,
      "chip": "ym2612"
    },
    {
      "channel": 0,
      "note": 51,
      "start": 13.7529,
      "duration": 0.0136,
      "velocity": 99,
      "chip": "ym2612"
    },
    {
      "channel": 0,
      "note": 51,
      "start": 13.8861,
      "duration": 0.0971,
      "velocity": 99,
      "chip": "ym2612"
    },
    {
      "channel": 0,
      "note": 63,
      "start": 14.0066,
      "duration": 0.108,
      "velocity": 99,
      "chip": "ym2612"
    },
    {
      "channel": 0,
      "note": 56,
      "start": 14.2051,
      "duration": 0.4979,
      "velocity": 99,
      "chip": "ym2612"
    },
    {
      "channel": 1,
      "note": 80,
      "start": 14.2084,
      "duration": 0.9153,
      "velocity": 108,
      "chip": "ym2612"
    },
    {
      "channel": 3,
      "note": 72,
      "start": 14.2112,
      "duration": 0.9126,
      "velocity": 108,
      "chip": "ym2612"
    },
    {
      "channel": 0,
      "note": 68,
      "start": 14.7099,
      "duration": 0.2409,
      "velocity": 99,
      "chip": "ym2612"
    },
    {
      "channel": 0,
      "note": 56,
      "start": 15.0247,
      "duration": 0.1823,
      "velocity": 99,
      "chip": "ym2612"
    },
    {
      "channel": 0,
      "note": 68,
      "start": 15.2601,
      "duration": 0.0802,
      "velocity": 99,
      "chip": "ym2612"
    },
    {
      "channel": 0,
      "note": 56,
      "start": 15.3934,
      "duration": 0.047,
      "velocity": 99,
      "chip": "ym2612"
    },
    {
      "channel": 0,
      "note": 56,
      "start": 15.5266,
      "duration": 0.0971,
      "velocity": 99,
      "chip": "ym2612"
    },
    {
      "channel": 0,
      "note": 68,
      "start": 15.6637,
      "duration": 0.1582,
      "velocity": 99,
      "chip": "ym2612"
    },
    {
      "channel": 4,
      "note": 80,
      "start": 15.6765,
      "duration": 0.079,
      "velocity": 1,
      "chip": "ym2612"
    },
    {
      "channel": 2,
      "note": 79,
      "start": 15.7423,
      "duration": 0.0965,
      "velocity": 1,
      "chip": "ym2612"
    },
    {
      "channel": 0,
      "note": 55,
      "start": 15.8454,
      "duration": 0.4479,
      "velocity": 99,
      "chip": "ym2612"
    },
    {
      "channel": 1,
      "note": 79,
      "start": 15.8489,
      "duration": 0.9161,
      "velocity": 108,
      "chip": "ym2612"
    },
    {
      "channel": 3,
      "note": 72,
      "start": 15.852,
      "duration": 0.9132,
      "velocity": 108,
      "chip": "ym2612"
    },
    {
      "channel": 4,
      "note": 80,
      "start": 15.8611,
      "duration": 0.5144,
      "velocity": 1,
      "chip": "ym2612"
    },
    {
      "channel": 0,
      "note": 67,
      "start": 16.3506,
      "duration": 0.3248,
      "velocity": 99,
      "chip": "ym2612"
    },
    {
      "channel": 2,
      "note": 79,
      "start": 16.3681,
      "duration": 0.4471,
      "velocity": 1,
      "chip": "ym2612"
    },
    {
      "channel": 0,
      "note": 55,
      "start": 16.6825,
      "duration": 0.1825,
      "velocity": 99,
      "chip": "ym2612"
    },
    {
      "channel": 4,
      "note": 77,
      "start": 16.8022,
      "duration": 0.4462,
      "velocity": 1,
      "chip": "ym2612"
    },
    {
      "channel": 0,
      "note": 67,
      "start": 16.9016,
      "duration": 0.0634,
      "velocity": 99,
      "chip": "ym2612"
    },
    {
      "channel": 0,
      "note": 55,
      "start": 17.0347,
      "duration": 0.0304,
      "velocity": 99,
      "chip": "ym2612"
    },
    {
      "channel": 0,
      "note": 55,
      "start": 17.1683,
      "duration": 0.1134,
      "velocity": 99,
      "chip": "ym2612"
    },
    {
      "channel": 2,
      "note": 75,
      "start": 17.2354,
      "duration": 0.2262,
      "velocity": 1,
      "chip": "ym2612"
    },
    {
      "channel": 0,
      "note": 67,
      "start": 17.3649,
      "duration": 0.1843,
      "velocity": 99,
      "chip": "ym2612"
    },
    {
      "channel": 1,
      "note": 53,
      "start": 17.5015,
      "duration": 0.4146,
      "velocity": 99,
      "chip": "ym2612"
    },
    {
      "channel": 3,
      "note": 77,
      "start": 17.5049,
      "duration": 0.9428,
      "velocity": 108,
      "chip": "ym2612"
    },
    {
      "channel": 4,
      "note": 70,
      "start": 17.5078,
      "duration": 0.94,
      "velocity": 108,
      "chip": "ym2612"
    },
    {
      "channel": 2,
      "note": 74,
      "start": 17.5116,
      "duration": 0.9468,
      "velocity": 1,
      "chip": "ym2612"
    },
    {
      "channel": 0,
      "note": 65,
      "start": 17.9893,
      "duration": 0.3083,
      "velocity": 99,
      "chip": "ym2612"
    },
    {
      "channel": 0,
      "note": 53,
      "start": 18.3173,
      "duration": 0.1694,
      "velocity": 99,
      "chip": "ym2612"
    },
    {
      "channel": 1,
      "note": 75,
      "start": 18.4548,
      "duration": 0.2613,
      "velocity": 1,
      "chip": "ym2612"
    },
    {
      "channel": 0,
      "note": 65,
      "start": 18.5602,
      "duration": 0.0275,
      "velocity": 99,
      "chip": "ym2612"
    },
    {
      "channel": 0,
      "note": 53,
      "start": 18.6095,
      "duration": 0.0095,
      "velocity": 99,
      "chip": "ym2612"
    },
    {
      "channel": 0,
      "note": 53,
      "start": 18.6579,
      "duration": 0.0365,
      "velocity": 99,
      "chip": "ym2612"
    },
    {
      "channel": 2,
      "note": 77,
      "start": 18.6978,
      "duration": 0.164,
      "velocity": 1,
      "chip": "ym2612"
    },
    {
      "channel": 0,
      "note": 65,
      "start": 18.708,
      "duration": 0.0684,
      "velocity": 99,
      "chip": "ym2612"
    },
    {
      "channel": 3,
      "note": 82,
      "start": 18.8401,
      "duration": 0.0853,
      "velocity": 110,
      "chip": "ym2612"
    },
    {
      "channel": 0,
      "note": 51,
      "start": 18.8474,
      "duration": 0.4446,
      "velocity": 99,
      "chip": "ym2612"
    },
    {
      "channel": 1,
      "note": 75,
      "start": 18.8506,
      "duration": 3.2828,
      "velocity": 1,
      "chip": "ym2612"
    },
    {
      "channel": 3,
      "note": 84,
      "start": 19.0782,
      "duration": 0.0972,
      "velocity": 110,
      "chip": "ym2612"
    },
    {
      "channel": 3,
      "note": 87,
      "start": 19.345,
      "duration": 0.019,
      "velocity": 110,
      "chip": "ym2612"
    },
    {
      "channel": 0,
      "note": 63,
      "start": 19.3513,
      "duration": 0.2216,
      "velocity": 99,
      "chip": "ym2612"
    },
    {
      "channel": 3,
      "note": 89,
      "start": 19.393,
      "duration": 0.0969,
      "velocity": 110,
      "chip": "ym2612"
    },
    {
      "channel": 3,
      "note": 82,
      "start": 19.6595,
      "duration": 0.0528,
      "velocity": 110,
      "chip": "ym2612"
    },
    {
      "channel": 0,
      "note": 51,
      "start": 19.6655,
      "duration": 0.1634,
      "velocity": 99,
      "chip": "ym2612"
    },
    {
      "channel": 3,
      "note": 84,
      "start": 19.8985,
      "duration": 0.1304,
      "velocity": 110,
      "chip": "ym2612"
    },
    {
      "channel": 0,
      "note": 63,
      "start": 19.9017,
      "duration": 0.0772,
      "velocity": 99,
      "chip": "ym2612"
    },
    {
      "channel": 0,
      "note": 51,
      "start": 20.032,
      "duration": 0.0135,
      "velocity": 99,
      "chip": "ym2612"
    },
    {
      "channel": 3,
      "note": 87,
      "start": 20.1652,
      "duration": 0.0805,
      "velocity": 110,
      "chip": "ym2612"
    },
    {
      "channel": 0,
      "note": 51,
      "start": 20.1678,
      "duration": 0.0945,
      "velocity": 99,
      "chip": "ym2612"
    },
    {
      "channel": 0,
      "note": 63,
      "start": 20.3024,
      "duration": 0.0914,
      "velocity": 99,
      "chip": "ym2612"
    },
    {
      "channel": 3,
      "note": 89,
      "start": 20.347,
      "duration": 0.0636,
      "velocity": 110,
      "chip": "ym2612"
    },
    {
      "channel": 3,
      "note": 82,
      "start": 20.4817,
      "duration": 0.033,
      "velocity": 110,
      "chip": "ym2612"
    },
    {
      "channel": 0,
      "note": 56,
      "start": 20.4877,
      "duration": 0.4934,
      "velocity": 99,
      "chip": "ym2612"
    },
    {
      "channel": 3,
      "note": 84,
      "start": 20.7176,
      "duration": 0.1137,
      "velocity": 110,
      "chip": "ym2612"
    },
    {
      "channel": 3,
      "note": 87,
      "start": 20.9845,
      "duration": 0.0239,
      "velocity": 110,
      "chip": "ym2612"
    },
    {
      "channel": 0,
      "note": 68,
      "start": 20.9907,
      "duration": 0.2381,
      "velocity": 99,
      "chip": "ym2612"
    },
    {
      "channel": 3,
      "note": 89,
      "start": 21.0487,
      "duration": 0.0637,
      "velocity": 110,
      "chip": "ym2612"
    },
    {
      "channel": 3,
      "note": 82,
      "start": 21.2999,
      "duration": 0.0685,
      "velocity": 110,
      "chip": "ym2612"
    },
    {
      "channel": 0,
      "note": 56,
      "start": 21.3066,
      "duration": 0.1948,
      "velocity": 99,
      "chip": "ym2612"
    },
    {
      "channel": 3,
      "note": 84,
      "start": 21.538,
      "duration": 0.1303,
      "velocity": 110,
      "chip": "ym2612"
    },
    {
      "channel": 0,
      "note": 68,
      "start": 21.5407,
      "duration": 0.0776,
      "velocity": 99,
      "chip": "ym2612"
    },
    {
      "channel": 0,
      "note": 56,
      "start": 21.6714,
      "duration": 0.0469,
      "velocity": 99,
      "chip": "ym2612"
    },
    {
      "channel": 3,
      "note": 87,
      "start": 21.805,
      "duration": 0.1134,
      "velocity": 110,
      "chip": "ym2612"
    },
    {
      "channel": 0,
      "note": 56,
      "start": 21.8075,
      "duration": 0.1106,
      "velocity": 99,
      "chip": "ym2612"
    },
    {
      "channel": 0,
      "note": 68,
      "start": 21.9418,
      "duration": 0.1583,
      "velocity": 99,
      "chip": "ym2612"
    },
    {
      "channel": 3,
      "note": 89,
      "start": 22.0032,
      "duration": 0.0636,
      "velocity": 110,
      "chip": "ym2612"
    },
    {
      "channel": 3,
      "note": 82,
      "start": 22.1376,
      "duration": 0.0329,
      "velocity": 110,
      "chip": "ym2612"
    },
    {
      "channel": 0,
      "note": 55,
      "start": 22.1439,
      "duration": 0.4264,
      "velocity": 99,
      "chip": "ym2612"
    },
    {
      "channel": 3,
      "note": 84,
      "start": 22.3568,
      "duration": 0.1137,
      "velocity": 110,
      "chip": "ym2612"
    },
    {
      "channel": 3,
      "note": 87,
      "start": 22.6236,
      "duration": 0.0241,
      "velocity": 110,
      "chip": "ym2612"
    },
    {
      "channel": 0,
      "note": 67,
      "start": 22.6301,
      "duration": 0.322,
      "velocity": 99,
      "chip": "ym2612"
    },
    {
      "channel": 3,
      "note": 89,
      "start": 22.6888,
      "duration": 0.0634,
      "velocity": 110,
      "chip": "ym2612"
    },
    {
      "channel": 3,
      "note": 82,
      "start": 22.9566,
      "duration": 0.0488,
      "velocity": 110,
      "chip": "ym2612"
    },
    {
      "channel": 0,
      "note": 55,
      "start": 22.9627,
      "duration": 0.176,
      "velocity": 99,
      "chip": "ym2612"
    },
    {
      "channel": 3,
      "note": 84,
      "start": 23.1749,
      "duration": 0.1305,
      "velocity": 110,
      "chip": "ym2612"
    },
    {
      "channel": 0,
      "note": 67,
      "start": 23.1777,
      "duration": 0.0608,
      "velocity": 99,
      "chip": "ym2612"
    },
    {
      "channel": 0,
      "note": 55,
      "start": 23.3084,
      "duration": 0.0303,
      "velocity": 99,
      "chip": "ym2612"
    },
    {
      "channel": 3,
      "note": 87,
      "start": 23.4417,
      "duration": 0.1138,
      "velocity": 110,
      "chip": "ym2612"
    },
    {
      "channel": 0,
      "note": 55,
      "start": 23.4444,
      "duration": 0.111,
      "velocity": 99,
      "chip": "ym2612"
    },
    {
      "channel": 3,
      "note": 89,
      "start": 23.6383,
      "duration": 0.0636,
      "velocity": 110,
      "chip": "ym2612"
    },
    {
      "channel": 0,
      "note": 67,
      "start": 23.6414,
      "duration": 0.1816,
      "velocity": 99,
      "chip": "ym2612"
    },
    {
      "channel": 3,
      "note": 82,
      "start": 23.7729,
      "duration": 0.0334,
      "velocity": 110,
      "chip": "ym2612"
    },
    {
      "channel": 4,
      "note": 53,
      "start": 23.7793,
      "duration": 0.4104,
      "velocity": 99,
      "chip": "ym2612"
    },
    {
      "channel": 3,
      "note": 84,
      "start": 24.0093,
      "duration": 0.1137,
      "velocity": 110,
      "chip": "ym2612"
    },
    {
      "channel": 3,
      "note": 87,
      "start": 24.2594,
      "duration": 0.0239,
      "velocity": 110,
      "chip": "ym2612"
    },
    {
      "channel": 0,
      "note": 65,
      "start": 24.2657,
      "duration": 0.305,
      "velocity": 99,
      "chip": "ym2612"
    },
    {
      "channel": 3,
      "note": 89,
      "start": 24.3237,
      "duration": 0.0637,
      "velocity": 110,
      "chip": "ym2612"
    },
    {
      "channel": 3,
      "note": 82,
      "start": 24.5916,
      "duration": 0.0791,
      "velocity": 110,
      "chip": "ym2612"
    },
    {
      "channel": 0,
      "note": 53,
      "start": 24.5943,
      "duration": 0.1677,
      "velocity": 99,
      "chip": "ym2612"
    },
    {
      "channel": 3,
      "note": 84,
      "start": 24.832,
      "duration": 0.0389,
      "velocity": 110,
      "chip": "ym2612"
    },
    {
      "channel": 0,
      "note": 65,
      "start": 24.8381,
      "duration": 0.0263,
      "velocity": 99,
      "chip": "ym2612"
    },
    {
      "channel": 0,
      "note": 53,
      "start": 24.8864,
      "duration": 0.0092,
      "velocity": 99,
      "chip": "ym2612"
    },
    {
      "channel": 3,
      "note": 87,
      "start": 24.9283,
      "duration": 0.0444,
      "velocity": 110,
      "chip": "ym2612"
    },
    {
      "channel": 0,
      "note": 58,
      "start": 24.9361,
      "duration": 0.0364,
      "velocity": 99,
      "chip": "ym2612"
    },
    {
      "channel": 0,
      "note": 46,
      "start": 24.9848,
      "duration": 0.0691,
      "velocity": 99,
      "chip": "ym2612"
    },
    {
      "channel": 3,
      "note": 89,
      "start": 25.0332,
      "duration": 0.0209,
      "velocity": 110,
      "chip": "ym2612"
    },
    {
      "channel": 0,
      "note": 51,
      "start": 25.1198,
      "duration": 0.4494,
      "velocity": 99,
      "chip": "ym2612"
    },
    {
      "channel": 2,
      "note": 75,
      "start": 25.1237,
      "duration": 0.9169,
      "velocity": 108,
      "chip": "ym2612"
    },
    {
      "channel": 1,
      "note": 70,
      "start": 25.1265,
      "duration": 0.9138,
      "velocity": 108,
      "chip": "ym2612"
    },
    {
      "channel": 4,
      "note": 79,
      "start": 25.1306,
      "duration": 0.9099,
      "velocity": 108,
      "chip": "ym2612"
    },
    {
      "channel": 3,
      "note": 91,
      "start": 25.1365,
      "duration": 0.4981,
      "velocity": 1,
      "chip": "ym2612"
    },
    {
      "channel": 0,
      "note": 63,
      "start": 25.626,
      "duration": 0.2246,
      "velocity": 99,
      "chip": "ym2612"
    },
    {
      "channel": 3,
      "note": 87,
      "start": 25.6488,
      "duration": 1.1066,
      "velocity": 1,
      "chip": "ym2612"
    },
    {
      "channel": 0,
      "note": 51,
      "start": 25.9411,
      "duration": 0.1659,
      "velocity": 99,
      "chip": "ym2612"
    },
    {
      "channel": 0,
      "note": 63,
      "start": 26.1772,
      "duration": 0.0796,
      "velocity": 99,
      "chip": "ym2612"
    },
    {
      "channel": 0,
      "note": 51,
      "start": 26.3099,
      "duration": 0.0137,
      "velocity": 99,
      "chip": "ym2612"
    },
    {
      "channel": 0,
      "note": 51,
      "start": 26.4433,
      "duration": 0.0969,
      "velocity": 99,
      "chip": "ym2612"
    },
    {
      "channel": 0,
      "note": 63,
      "start": 26.5803,
      "duration": 0.0917,
      "velocity": 99,
      "chip": "ym2612"
    },
    {
      "channel": 0,
      "note": 56,
      "start": 26.7619,
      "duration": 0.4993,
      "velocity": 99,
      "chip": "ym2612"
    },
    {
      "channel": 1,
      "note": 72,
      "start": 26.7656,
      "duration": 0.916,
      "velocity": 108,
      "chip": "ym2612"
    },
    {
      "channel": 4,
      "note": 80,
      "start": 26.7685,
      "duration": 0.9133,
      "velocity": 108,
      "chip": "ym2612"
    },
    {
      "channel": 3,
      "note": 92,
      "start": 26.772,
      "duration": 0.4896,
      "velocity": 1,
      "chip": "ym2612"
    },
    {
      "channel": 0,
      "note": 68,
      "start": 27.2683,
      "duration": 0.2576,
      "velocity": 99,
      "chip": "ym2612"
    },
    {
      "channel": 3,
      "note": 87,
      "start": 27.2708,
      "duration": 1.1427,
      "velocity": 1,
      "chip": "ym2612"
    },
    {
      "channel": 0,
      "note": 56,
      "start": 27.5994,
      "duration": 0.1821,
      "velocity": 99,
      "chip": "ym2612"
    },
    {
      "channel": 0,
      "note": 68,
      "start": 27.818,
      "duration": 0.0969,
      "velocity": 99,
      "chip": "ym2612"
    },
    {
      "channel": 0,
      "note": 56,
      "start": 27.9512,
      "duration": 0.047,
      "velocity": 99,
      "chip": "ym2612"
    },
    {
      "channel": 0,
      "note": 56,
      "start": 28.0846,
      "duration": 0.1136,
      "velocity": 99,
      "chip": "ym2612"
    },
    {
      "channel": 0,
      "note": 68,
      "start": 28.2217,
      "duration": 0.1582,
      "velocity": 99,
      "chip": "ym2612"
    },
    {
      "channel": 0,
      "note": 55,
      "start": 28.4206,
      "duration": 0.4474,
      "velocity": 99,
      "chip": "ym2612"
    },
    {
      "channel": 1,
      "note": 79,
      "start": 28.424,
      "duration": 0.9152,
      "velocity": 108,
      "chip": "ym2612"
    },
    {
      "channel": 4,
      "note": 72,
      "start": 28.4269,
      "duration": 0.9124,
      "velocity": 108,
      "chip": "ym2612"
    },
    {
      "channel": 3,
      "note": 82,
      "start": 28.4327,
      "duration": 0.4898,
      "velocity": 1,
      "chip": "ym2612"
    },
    {
      "channel": 0,
      "note": 67,
      "start": 28.9082,
      "duration": 0.325,
      "velocity": 99,
      "chip": "ym2612"
    },
    {
      "channel": 2,
      "note": 87,
      "start": 28.9154,
      "duration": 0.4572,
      "velocity": 1,
      "chip": "ym2612"
    },
    {
      "channel": 0,
      "note": 55,
      "start": 29.24,
      "duration": 0.1824,
      "velocity": 99,
      "chip": "ym2612"
    },
    {
      "channel": 3,
      "note": 91,
      "start": 29.3428,
      "duration": 0.4798,
      "velocity": 1,
      "chip": "ym2612"
    },
    {
      "channel": 0,
      "note": 67,
      "start": 29.4756,
      "duration": 0.0636,
      "velocity": 99,
      "chip": "ym2612"
    },
    {
      "channel": 0,
      "note": 55,
      "start": 29.5922,
      "duration": 0.0303,
      "velocity": 99,
      "chip": "ym2612"
    },
    {
      "channel": 0,
      "note": 55,
      "start": 29.7256,
      "duration": 0.1136,
      "velocity": 99,
      "chip": "ym2612"
    },
    {
      "channel": 3,
      "note": 87,
      "start": 29.8261,
      "duration": 0.1597,
      "velocity": 1,
      "chip": "ym2612"
    },
    {
      "channel": 0,
      "note": 67,
      "start": 29.9226,
      "duration": 0.1843,
      "velocity": 99,
      "chip": "ym2612"
    },
    {
      "channel": 3,
      "note": 86,
      "start": 30.0058,
      "duration": 0.5554,
      "velocity": 1,
      "chip": "ym2612"
    },
    {
      "channel": 1,
      "note": 53,
      "start": 30.059,
      "duration": 0.4311,
      "velocity": 99,
      "chip": "ym2612"
    },
    {
      "channel": 4,
      "note": 70,
      "start": 30.0633,
      "duration": 0.9421,
      "velocity": 108,
      "chip": "ym2612"
    },
    {
      "channel": 2,
      "note": 77,
      "start": 30.0662,
      "duration": 0.9394,
      "velocity": 108,
      "chip": "ym2612"
    },
    {
      "channel": 0,
      "note": 65,
      "start": 30.5466,
      "duration": 0.3087,
      "velocity": 99,
      "chip": "ym2612"
    },
    {
      "channel": 1,
      "note": 87,
      "start": 30.5493,
      "duration": 0.4394,
      "velocity": 1,
      "chip": "ym2612"
    },
    {
      "channel": 0,
      "note": 53,
      "start": 30.8752,
      "duration": 0.1718,
      "velocity": 99,
      "chip": "ym2612"
    },
    {
      "channel": 1,
      "note": 89,
      "start": 30.9925,
      "duration": 0.2322,
      "velocity": 1,
      "chip": "ym2612"
    },
    {
      "channel": 0,
      "note": 65,
      "start": 31.1204,
      "duration": 0.0276,
      "velocity": 99,
      "chip": "ym2612"
    },
    {
      "channel": 0,
      "note": 53,
      "start": 31.1698,
      "duration": 0.0095,
      "velocity": 99,
      "chip": "ym2612"
    },
    {
      "channel": 0,
      "note": 53,
      "start": 31.2232,
      "duration": 0.0324,
      "velocity": 99,
      "chip": "ym2612"
    },
    {
      "channel": 1,
      "note": 86,
      "start": 31.2346,
      "duration": 0.1016,
      "velocity": 1,
      "chip": "ym2612"
    },
    {
      "channel": 0,
      "note": 65,
      "start": 31.2679,
      "duration": 0.0682,
      "velocity": 99,
      "chip": "ym2612"
    },
    {
      "channel": 1,
      "note": 87,
      "start": 31.3658,
      "duration": 3.2744,
      "velocity": 1,
      "chip": "ym2612"
    },
    {
      "channel": 3,
      "note": 82,
      "start": 31.3999,
      "duration": 0.0504,
      "velocity": 110,
      "chip": "ym2612"
    },
    {
      "channel": 0,
      "note": 51,
      "start": 31.4069,
      "duration": 0.4434,
      "velocity": 99,
      "chip": "ym2612"
    },
    {
      "channel": 3,
      "note": 84,
      "start": 31.6366,
      "duration": 0.1137,
      "velocity": 110,
      "chip": "ym2612"
    },
    {
      "channel": 3,
      "note": 87,
      "start": 31.9037,
      "duration": 0.024,
      "velocity": 110,
      "chip": "ym2612"
    },
    {
      "channel": 0,
      "note": 63,
      "start": 31.91,
      "duration": 0.2216,
      "velocity": 99,
      "chip": "ym2612"
    },
    {
      "channel": 3,
      "note": 89,
      "start": 31.968,
      "duration": 0.0802,
      "velocity": 110,
      "chip": "ym2612"
    },
    {
      "channel": 3,
      "note": 82,
      "start": 32.2178,
      "duration": 0.0694,
      "velocity": 110,
      "chip": "ym2612"
    },
    {
      "channel": 0,
      "note": 51,
      "start": 32.2238,
      "duration": 0.1633,
      "velocity": 99,
      "chip": "ym2612"
    },
    {
      "channel": 3,
      "note": 84,
      "start": 32.4568,
      "duration": 0.1304,
      "velocity": 110,
      "chip": "ym2612"
    },
    {
      "channel": 0,
      "note": 63,
      "start": 32.4599,
      "duration": 0.0772,
      "velocity": 99,
      "chip": "ym2612"
    },
    {
      "channel": 0,
      "note": 51,
      "start": 32.5903,
      "duration": 0.0135,
      "velocity": 99,
      "chip": "ym2612"
    },
    {
      "channel": 3,
      "note": 87,
      "start": 32.7235,
      "duration": 0.0805,
      "velocity": 110,
      "chip": "ym2612"
    },
    {
      "channel": 0,
      "note": 51,
      "start": 32.7261,
      "duration": 0.0945,
      "velocity": 99,
      "chip": "ym2612"
    },
    {
      "channel": 0,
      "note": 63,
      "start": 32.8607,
      "duration": 0.0912,
      "velocity": 99,
      "chip": "ym2612"
    },
    {
      "channel": 3,
      "note": 89,
      "start": 32.9224,
      "duration": 0.0632,
      "velocity": 110,
      "chip": "ym2612"
    },
    {
      "channel": 3,
      "note": 82,
      "start": 33.0563,
      "duration": 0.0207,
      "velocity": 110,
      "chip": "ym2612"
    },
    {
      "channel": 0,
      "note": 56,
      "start": 33.0627,
      "duration": 0.4771,
      "velocity": 99,
      "chip": "ym2612"
    },
    {
      "channel": 3,
      "note": 84,
      "start": 33.2762,
      "duration": 0.1137,
      "velocity": 110,
      "chip": "ym2612"
    },
    {
      "channel": 3,
      "note": 87,
      "start": 33.5432,
      "duration": 0.0242,
      "velocity": 110,
      "chip": "ym2612"
    },
    {
      "channel": 0,
      "note": 68,
      "start": 33.5494,
      "duration": 0.2551,
      "velocity": 99,
      "chip": "ym2612"
    },
    {
      "channel": 3,
      "note": 89,
      "start": 33.6077,
      "duration": 0.0637,
      "velocity": 110,
      "chip": "ym2612"
    },
    {
      "channel": 3,
      "note": 82,
      "start": 33.8761,
      "duration": 0.0493,
      "velocity": 110,
      "chip": "ym2612"
    },
    {
      "channel": 0,
      "note": 56,
      "start": 33.8824,
      "duration": 0.1763,
      "velocity": 99,
      "chip": "ym2612"
    },
    {
      "channel": 3,
      "note": 84,
      "start": 34.0949,
      "duration": 0.1305,
      "velocity": 110,
      "chip": "ym2612"
    },
    {
      "channel": 0,
      "note": 68,
      "start": 34.0977,
      "duration": 0.094,
      "velocity": 99,
      "chip": "ym2612"
    },
    {
      "channel": 0,
      "note": 56,
      "start": 34.2284,
      "duration": 0.0469,
      "velocity": 99,
      "chip": "ym2612"
    },
    {
      "channel": 3,
      "note": 87,
      "start": 34.3616,
      "duration": 0.1139,
      "velocity": 110,
      "chip": "ym2612"
    },
    {
      "channel": 0,
      "note": 56,
      "start": 34.3642,
      "duration": 0.1111,
      "velocity": 99,
      "chip": "ym2612"
    },
    {
      "channel": 0,
      "note": 68,
      "start": 34.4987,
      "duration": 0.1581,
      "velocity": 99,
      "chip": "ym2612"
    },
    {
      "channel": 3,
      "note": 89,
      "start": 34.5599,
      "duration": 0.0636,
      "velocity": 110,
      "chip": "ym2612"
    },
    {
      "channel": 3,
      "note": 82,
      "start": 34.6942,
      "duration": 0.0336,
      "velocity": 110,
      "chip": "ym2612"
    },
    {
      "channel": 0,
      "note": 55,
      "start": 34.7005,
      "duration": 0.4436,
      "velocity": 99,
      "chip": "ym2612"
    },
    {
      "channel": 3,
      "note": 84,
      "start": 34.9311,
      "duration": 0.0966,
      "velocity": 110,
      "chip": "ym2612"
    },
    {
      "channel": 3,
      "note": 87,
      "start": 35.1808,
      "duration": 0.0238,
      "velocity": 110,
      "chip": "ym2612"
    },
    {
      "channel": 0,
      "note": 67,
      "start": 35.1873,
      "duration": 0.3215,
      "velocity": 99,
      "chip": "ym2612"
    },
    {
      "channel": 3,
      "note": 89,
      "start": 35.2454,
      "duration": 0.0637,
      "velocity": 110,
      "chip": "ym2612"
    },
    {
      "channel": 3,
      "note": 82,
      "start": 35.5134,
      "duration": 0.0509,
      "velocity": 110,
      "chip": "ym2612"
    },
    {
      "channel": 0,
      "note": 55,
      "start": 35.52,
      "duration": 0.1773,
      "velocity": 99,
      "chip": "ym2612"
    },
    {
      "channel": 3,
      "note": 84,
      "start": 35.7505,
      "duration": 0.1304,
      "velocity": 110,
      "chip": "ym2612"
    },
    {
      "channel": 0,
      "note": 67,
      "start": 35.7533,
      "duration": 0.061,
      "velocity": 99,
      "chip": "ym2612"
    },
    {
      "channel": 0,
      "note": 55,
      "start": 35.8839,
      "duration": 0.0136,
      "velocity": 99,
      "chip": "ym2612"
    },
    {
      "channel": 3,
      "note": 87,
      "start": 36.0005,
      "duration": 0.1139,
      "velocity": 110,
      "chip": "ym2612"
    },
    {
      "channel": 0,
      "note": 55,
      "start": 36.0032,
      "duration": 0.1109,
      "velocity": 99,
      "chip": "ym2612"
    },
    {
      "channel": 3,
      "note": 89,
      "start": 36.2006,
      "duration": 0.0632,
      "velocity": 110,
      "chip": "ym2612"
    },
    {
      "channel": 0,
      "note": 67,
      "start": 36.2037,
      "duration": 0.1807,
      "velocity": 99,
      "chip": "ym2612"
    },
    {
      "channel": 3,
      "note": 82,
      "start": 36.3344,
      "duration": 0.0334,
      "velocity": 110,
      "chip": "ym2612"
    },
    {
      "channel": 4,
      "note": 53,
      "start": 36.3409,
      "duration": 0.4269,
      "velocity": 99,
      "chip": "ym2612"
    },
    {
      "channel": 3,
      "note": 84,
      "start": 36.5707,
      "duration": 0.1303,
      "velocity": 110,
      "chip": "ym2612"
    },
    {
      "channel": 3,
      "note": 87,
      "start": 36.8375,
      "duration": 0.024,
      "velocity": 110,
      "chip": "ym2612"
    },
    {
      "channel": 0,
      "note": 65,
      "start": 36.8435,
      "duration": 0.2891,
      "velocity": 99,
      "chip": "ym2612"
    },
    {
      "channel": 3,
      "note": 89,
      "start": 36.8856,
      "duration": 0.0637,
      "velocity": 110,
      "chip": "ym2612"
    },
    {
      "channel": 3,
      "note": 82,
      "start": 37.1539,
      "duration": 0.0788,
      "velocity": 110,
      "chip": "ym2612"
    },
    {
      "channel": 0,
      "note": 53,
      "start": 37.1566,
      "duration": 0.1673,
      "velocity": 99,
      "chip": "ym2612"
    },
    {
      "channel": 3,
      "note": 84,
      "start": 37.3938,
      "duration": 0.045,
      "velocity": 110,
      "chip": "ym2612"
    },
    {
      "channel": 0,
      "note": 65,
      "start": 37.3999,
      "duration": 0.0265,
      "velocity": 99,
      "chip": "ym2612"
    },
    {
      "channel": 0,
      "note": 53,
      "start": 37.4485,
      "duration": 0.0093,
      "velocity": 99,
      "chip": "ym2612"
    },
    {
      "channel": 3,
      "note": 87,
      "start": 37.4973,
      "duration": 0.0371,
      "velocity": 110,
      "chip": "ym2612"
    },
    {
      "channel": 0,
      "note": 58,
      "start": 37.5044,
      "duration": 0.0298,
      "velocity": 99,
      "chip": "ym2612"
    },
    {
      "channel": 0,
      "note": 46,
      "start": 37.5543,
      "duration": 0.0636,
      "velocity": 99,
      "chip": "ym2612"
    },
    {
      "channel": 3,
      "note": 89,
      "start": 37.5955,
      "duration": 0.0226,
      "velocity": 110,
      "chip": "ym2612"
    }
  ]
}