{
  "track_name": "05 - Sword of Holy",
  "duration_sec": 48.002,
  "sample_rate": 44100,
  "note_count": 1093,
  "unique_pitches": 36,
  "pitch_range": 50,
  "avg_note_duration": 0.0679,
  "reconstruction_stats": {
    "notes_reconstructed": 1093,
    "keyon_events": 1093,
    "keyoff_events": 1092,
    "orphan_keyons": 1,
    "unique_pitches": 36,
    "pitch_range": 50,
    "avg_duration_sec": 0.0679
  },
  "metadata": {
    "source": "L\\Langrisser\\05 - Sword of Holy.vgz"
  },
  "notes": [
    {
      "channel": 2,
      "note": 69,
      "start": 0.0237,
      "duration": 0.0203,
      "velocity": 99,
      "chip": "ym2612"
    },
    {
      "channel": 3,
      "note": -1,
      "start": 0.0271,
      "duration": 0.0173,
      "velocity": 99,
      "chip": "ym2612"
    },
    {
      "channel": 2,
      "note": 69,
      "start": 0.0468,
      "duration": 0.0127,
      "velocity": 99,
      "chip": "ym2612"
    },
    {
      "channel": 3,
      "note": 64,
      "start": 0.0474,
      "duration": 0.0124,
      "velocity": 99,
      "chip": "ym2612"
    },
    {
      "channel": 2,
      "note": 64,
      "start": 0.0621,
      "duration": 0.0052,
      "velocity": 99,
      "chip": "ym2612"
    },
    {
      "channel": 3,
      "note": 64,
      "start": 0.0627,
      "duration": 0.005,
      "velocity": 99,
      "chip": "ym2612"
    },
    {
      "channel": 2,
      "note": 69,
      "start": 0.0777,
      "duration": 0.0145,
      "velocity": 99,
      "chip": "ym2612"
    },
    {
      "channel": 3,
      "note": 64,
      "start": 0.0783,
      "duration": 0.0143,
      "velocity": 99,
      "chip": "ym2612"
    },
    {
      "channel": 0,
      "note": 69,
      "start": 0.0944,
      "duration": 0.0629,
      "velocity": 91,
      "chip": "ym2612"
    },
    {
      "channel": 2,
      "note": 76,
      "start": 0.0952,
      "duration": 0.0627,
      "velocity": 99,
      "chip": "ym2612"
    },
    {
      "channel": 3,
      "note": 64,
      "start": 0.0958,
      "duration": 0.0625,
      "velocity": 99,
      "chip": "ym2612"
    },
    {
      "channel": 0,
      "note": 67,
      "start": 0.1627,
      "duration": 0.0286,
      "velocity": 91,
      "chip": "ym2612"
    },
    {
      "channel": 2,
      "note": 74,
      "start": 0.1634,
      "duration": 0.0284,
      "velocity": 99,
      "chip": "ym2612"
    },
    {
      "channel": 3,
      "note": 69,
      "start": 0.164,
      "duration": 0.0281,
      "velocity": 99,
      "chip": "ym2612"
    },
    {
      "channel": 0,
      "note": 69,
      "start": 0.1953,
      "duration": 0.0298,
      "velocity": 91,
      "chip": "ym2612"
    },
    {
      "channel": 2,
      "note": 76,
      "start": 0.196,
      "duration": 0.0295,
      "velocity": 99,
      "chip": "ym2612"
    },
    {
      "channel": 3,
      "note": 67,
      "start": 0.1966,
      "duration": 0.0293,
      "velocity": 99,
      "chip": "ym2612"
    },
    {
      "channel": 0,
      "note": 72,
      "start": 0.2623,
      "duration": 0.0282,
      "velocity": 91,
      "chip": "ym2612"
    },
    {
      "channel": 2,
      "note": 79,
      "start": 0.2631,
      "duration": 0.0286,
      "velocity": 99,
      "chip": "ym2612"
    },
    {
      "channel": 3,
      "note": 69,
      "start": 0.2637,
      "duration": 0.0283,
      "velocity": 99,
      "chip": "ym2612"
    },
    {
      "channel": 0,
      "note": 69,
      "start": 0.3612,
      "duration": 0.0762,
      "velocity": 105,
      "chip": "ym2612"
    },
    {
      "channel": 0,
      "note": 69,
      "start": 0.4549,
      "duration": 0.0763,
      "velocity": 94,
      "chip": "ym2612"
    },
    {
      "channel": 0,
      "note": 69,
      "start": 0.5486,
      "duration": 0.0763,
      "velocity": 105,
      "chip": "ym2612"
    },
    {
      "channel": 0,
      "note": 69,
      "start": 0.6407,
      "duration": 0.0779,
      "velocity": 105,
      "chip": "ym2612"
    },
    {
      "channel": 0,
      "note": 69,
      "start": 0.736,
      "duration": 0.0763,
      "velocity": 105,
      "chip": "ym2612"
    },
    {
      "channel": 2,
      "note": 88,
      "start": 0.8287,
      "duration": 0.0131,
      "velocity": 99,
      "chip": "ym2612"
    },
    {
      "channel": 3,
      "note": 72,
      "start": 0.832,
      "duration": 0.014,
      "velocity": 99,
      "chip": "ym2612"
    },
    {
      "channel": 2,
      "note": 88,
      "start": 0.8457,
      "duration": 0.0134,
      "velocity": 99,
      "chip": "ym2612"
    },
    {
      "channel": 3,
      "note": 76,
      "start": 0.8492,
      "duration": 0.0152,
      "velocity": 99,
      "chip": "ym2612"
    },
    {
      "channel": 2,
      "note": 88,
      "start": 0.8641,
      "duration": 0.0318,
      "velocity": 99,
      "chip": "ym2612"
    },
    {
      "channel": 3,
      "note": 76,
      "start": 0.8678,
      "duration": 0.0318,
      "velocity": 99,
      "chip": "ym2612"
    },
    {
      "channel": 0,
      "note": 74,
      "start": 0.8825,
      "duration": 0.0128,
      "velocity": 91,
      "chip": "ym2612"
    },
    {
      "channel": 0,
      "note": 76,
      "start": 0.8987,
      "duration": 0.0137,
      "velocity": 91,
      "chip": "ym2612"
    },
    {
      "channel": 0,
      "note": 52,
      "start": 0.9176,
      "duration": 0.0127,
      "velocity": 91,
      "chip": "ym2612"
    },
    {
      "channel": 0,
      "note": 64,
      "start": 0.9352,
      "duration": 0.0319,
      "velocity": 91,
      "chip": "ym2612"
    },
    {
      "channel": 1,
      "note": 76,
      "start": 0.9357,
      "duration": 0.0141,
      "velocity": 99,
      "chip": "ym2612"
    },
    {
      "channel": 1,
      "note": 81,
      "start": 0.9533,
      "duration": 0.014,
      "velocity": 99,
      "chip": "ym2612"
    },
    {
      "channel": 4,
      "note": 92,
      "start": 0.9655,
      "duration": 0.0147,
      "velocity": 99,
      "chip": "ym2612"
    },
    {
      "channel": 0,
      "note": 64,
      "start": 0.971,
      "duration": 0.0137,
      "velocity": 91,
      "chip": "ym2612"
    },
    {
      "channel": 1,
      "note": 83,
      "start": 0.9715,
      "duration": 0.0135,
      "velocity": 99,
      "chip": "ym2612"
    },
    {
      "channel": 4,
      "note": 76,
      "start": 0.983,
      "duration": 0.0153,
      "velocity": 99,
      "chip": "ym2612"
    },
    {
      "channel": 0,
      "note": 57,
      "start": 0.9887,
      "duration": 0.0465,
      "velocity": 91,
      "chip": "ym2612"
    },
    {
      "channel": 1,
      "note": 86,
      "start": 0.9892,
      "duration": 0.1186,
      "velocity": 99,
      "chip": "ym2612"
    },
    {
      "channel": 4,
      "note": 81,
      "start": 1.0008,
      "duration": 0.0157,
      "velocity": 99,
      "chip": "ym2612"
    },
    {
      "channel": 4,
      "note": 83,
      "start": 1.0191,
      "duration": 0.1293,
      "velocity": 99,
      "chip": "ym2612"
    },
    {
      "channel": 0,
      "note": 57,
      "start": 1.0384,
      "duration": 0.0692,
      "velocity": 91,
      "chip": "ym2612"
    },
    {
      "channel": 2,
      "note": 64,
      "start": 1.0391,
      "duration": 0.0129,
      "velocity": 99,
      "chip": "ym2612"
    },
    {
      "channel": 3,
      "note": 76,
      "start": 1.0397,
      "duration": 0.0127,
      "velocity": 99,
      "chip": "ym2612"
    },
    {
      "channel": 2,
      "note": 64,
      "start": 1.0549,
      "duration": 0.0532,
      "velocity": 99,
      "chip": "ym2612"
    },
    {
      "channel": 3,
      "note": 76,
      "start": 1.0555,
      "duration": 0.0529,
      "velocity": 99,
      "chip": "ym2612"
    },
    {
      "channel": 0,
      "note": 57,
      "start": 1.1233,
      "duration": 0.0295,
      "velocity": 91,
      "chip": "ym2612"
    },
    {
      "channel": 1,
      "note": 84,
      "start": 1.1238,
      "duration": 0.0136,
      "velocity": 99,
      "chip": "ym2612"
    },
    {
      "channel": 2,
      "note": 72,
      "start": 1.1243,
      "duration": 0.0627,
      "velocity": 99,
      "chip": "ym2612"
    },
    {
      "channel": 3,
      "note": 76,
      "start": 1.1249,
      "duration": 0.0624,
      "velocity": 99,
      "chip": "ym2612"
    },
    {
      "channel": 4,
      "note": 86,
      "start": 1.1512,
      "duration": 0.0306,
      "velocity": 99,
      "chip": "ym2612"
    },
    {
      "channel": 0,
      "note": 57,
      "start": 1.1572,
      "duration": 0.0293,
      "velocity": 91,
      "chip": "ym2612"
    },
    {
      "channel": 1,
      "note": 83,
      "start": 1.1577,
      "duration": 0.0594,
      "velocity": 99,
      "chip": "ym2612"
    },
    {
      "channel": 4,
      "note": 84,
      "start": 1.1849,
      "duration": 0.0619,
      "velocity": 99,
      "chip": "ym2612"
    },
    {
      "channel": 0,
      "note": 57,
      "start": 1.1893,
      "duration": 0.0275,
      "velocity": 91,
      "chip": "ym2612"
    },
    {
      "channel": 2,
      "note": 71,
      "start": 1.19,
      "duration": 0.0273,
      "velocity": 99,
      "chip": "ym2612"
    },
    {
      "channel": 3,
      "note": 76,
      "start": 1.1906,
      "duration": 0.0271,
      "velocity": 99,
      "chip": "ym2612"
    },
    {
      "channel": 0,
      "note": 57,
      "start": 1.2211,
      "duration": 0.03,
      "velocity": 91,
      "chip": "ym2612"
    },
    {
      "channel": 1,
      "note": 84,
      "start": 1.2215,
      "duration": 0.0144,
      "velocity": 99,
      "chip": "ym2612"
    },
    {
      "channel": 2,
      "note": 72,
      "start": 1.2226,
      "duration": 0.029,
      "velocity": 99,
      "chip": "ym2612"
    },
    {
      "channel": 3,
      "note": 74,
      "start": 1.2232,
      "duration": 0.0287,
      "velocity": 99,
      "chip": "ym2612"
    },
    {
      "channel": 4,
      "note": 83,
      "start": 1.2494,
      "duration": 0.03,
      "velocity": 99,
      "chip": "ym2612"
    },
    {
      "channel": 0,
      "note": 57,
      "start": 1.2555,
      "duration": 0.0281,
      "velocity": 91,
      "chip": "ym2612"
    },
    {
      "channel": 1,
      "note": 81,
      "start": 1.2559,
      "duration": 0.093,
      "velocity": 99,
      "chip": "ym2612"
    },
    {
      "channel": 4,
      "note": 84,
      "start": 1.282,
      "duration": 0.0965,
      "velocity": 99,
      "chip": "ym2612"
    },
    {
      "channel": 0,
      "note": 57,
      "start": 1.2886,
      "duration": 0.028,
      "velocity": 91,
      "chip": "ym2612"
    },
    {
      "channel": 2,
      "note": 72,
      "start": 1.2893,
      "duration": 0.0433,
      "velocity": 99,
      "chip": "ym2612"
    },
    {
      "channel": 3,
      "note": 76,
      "start": 1.2898,
      "duration": 0.043,
      "velocity": 99,
      "chip": "ym2612"
    },
    {
      "channel": 0,
      "note": 57,
      "start": 1.3193,
      "duration": 0.0293,
      "velocity": 91,
      "chip": "ym2612"
    },
    {
      "channel": 2,
      "note": 57,
      "start": 1.3354,
      "duration": 0.0138,
      "velocity": 99,
      "chip": "ym2612"
    },
    {
      "channel": 3,
      "note": 76,
      "start": 1.3359,
      "duration": 0.0136,
      "velocity": 99,
      "chip": "ym2612"
    },
    {
      "channel": 0,
      "note": 57,
      "start": 1.3527,
      "duration": 0.0302,
      "velocity": 91,
      "chip": "ym2612"
    },
    {
      "channel": 1,
      "note": 76,
      "start": 1.3532,
      "duration": 0.0136,
      "velocity": 99,
      "chip": "ym2612"
    },
    {
      "channel": 2,
      "note": 57,
      "start": 1.3537,
      "duration": 0.0134,
      "velocity": 99,
      "chip": "ym2612"
    },
    {
      "channel": 3,
      "note": 69,
      "start": 1.3543,
      "duration": 0.0131,
      "velocity": 99,
      "chip": "ym2612"
    },
    {
      "channel": 2,
      "note": 57,
      "start": 1.37,
      "duration": 0.0134,
      "velocity": 99,
      "chip": "ym2612"
    },
    {
      "channel": 3,
      "note": 69,
      "start": 1.3705,
      "duration": 0.0132,
      "velocity": 99,
      "chip": "ym2612"
    },
    {
      "channel": 4,
      "note": 81,
      "start": 1.3813,
      "duration": 0.0313,
      "velocity": 99,
      "chip": "ym2612"
    },
    {
      "channel": 0,
      "note": 57,
      "start": 1.3875,
      "duration": 0.0292,
      "velocity": 91,
      "chip": "ym2612"
    },
    {
      "channel": 2,
      "note": 72,
      "start": 1.3882,
      "duration": 0.0593,
      "velocity": 99,
      "chip": "ym2612"
    },
    {
      "channel": 3,
      "note": 69,
      "start": 1.3889,
      "duration": 0.059,
      "velocity": 99,
      "chip": "ym2612"
    },
    {
      "channel": 0,
      "note": 57,
      "start": 1.4194,
      "duration": 0.0276,
      "velocity": 91,
      "chip": "ym2612"
    },
    {
      "channel": 0,
      "note": 57,
      "start": 1.451,
      "duration": 0.014,
      "velocity": 91,
      "chip": "ym2612"
    },
    {
      "channel": 2,
      "note": 71,
      "start": 1.4517,
      "duration": 0.0304,
      "velocity": 99,
      "chip": "ym2612"
    },
    {
      "channel": 3,
      "note": 76,
      "start": 1.4523,
      "duration": 0.0301,
      "velocity": 99,
      "chip": "ym2612"
    },
    {
      "channel": 0,
      "note": 64,
      "start": 1.4683,
      "duration": 0.0133,
      "velocity": 91,
      "chip": "ym2612"
    },
    {
      "channel": 0,
      "note": 52,
      "start": 1.4846,
      "duration": 0.0285,
      "velocity": 91,
      "chip": "ym2612"
    },
    {
      "channel": 1,
      "note": 76,
      "start": 1.4851,
      "duration": 0.013,
      "velocity": 99,
      "chip": "ym2612"
    },
    {
      "channel": 2,
      "note": 72,
      "start": 1.4856,
      "duration": 0.028,
      "velocity": 99,
      "chip": "ym2612"
    },
    {
      "channel": 3,
      "note": 74,
      "start": 1.4862,
      "duration": 0.0278,
      "velocity": 99,
      "chip": "ym2612"
    },
    {
      "channel": 4,
      "note": 76,
      "start": 1.5114,
      "duration": 0.0308,
      "velocity": 99,
      "chip": "ym2612"
    },
    {
      "channel": 0,
      "note": 57,
      "start": 1.5171,
      "duration": 0.0296,
      "velocity": 91,
      "chip": "ym2612"
    },
    {
      "channel": 1,
      "note": 81,
      "start": 1.5176,
      "duration": 0.0143,
      "velocity": 99,
      "chip": "ym2612"
    },
    {
      "channel": 2,
      "note": 74,
      "start": 1.518,
      "duration": 0.0292,
      "velocity": 99,
      "chip": "ym2612"
    },
    {
      "channel": 3,
      "note": 76,
      "start": 1.5186,
      "duration": 0.0289,
      "velocity": 99,
      "chip": "ym2612"
    },
    {
      "channel": 4,
      "note": 76,
      "start": 1.545,
      "duration": 0.0291,
      "velocity": 99,
      "chip": "ym2612"
    },
    {
      "channel": 0,
      "note": 57,
      "start": 1.5495,
      "duration": 0.0299,
      "velocity": 91,
      "chip": "ym2612"
    },
    {
      "channel": 1,
      "note": 83,
      "start": 1.55,
      "duration": 0.0131,
      "velocity": 99,
      "chip": "ym2612"
    },
    {
      "channel": 2,
      "note": 72,
      "start": 1.5505,
      "duration": 0.0294,
      "velocity": 99,
      "chip": "ym2612"
    },
    {
      "channel": 3,
      "note": 77,
      "start": 1.551,
      "duration": 0.0291,
      "velocity": 99,
      "chip": "ym2612"
    },
    {
      "channel": 4,
      "note": 81,
      "start": 1.5768,
      "duration": 0.0325,
      "velocity": 99,
      "chip": "ym2612"
    },
    {
      "channel": 0,
      "note": 57,
      "start": 1.5844,
      "duration": 0.0297,
      "velocity": 91,
      "chip": "ym2612"
    },
    {
      "channel": 1,
      "note": 86,
      "start": 1.5848,
      "duration": 0.0612,
      "velocity": 99,
      "chip": "ym2612"
    },
    {
      "channel": 4,
      "note": 83,
      "start": 1.6123,
      "duration": 0.0633,
      "velocity": 99,
      "chip": "ym2612"
    },
    {
      "channel": 0,
      "note": 57,
      "start": 1.6169,
      "duration": 0.0289,
      "velocity": 91,
      "chip": "ym2612"
    },
    {
      "channel": 2,
      "note": 64,
      "start": 1.6176,
      "duration": 0.0124,
      "velocity": 99,
      "chip": "ym2612"
    },
    {
      "channel": 3,
      "note": 76,
      "start": 1.6182,
      "duration": 0.0121,
      "velocity": 99,
      "chip": "ym2612"
    },
    {
      "channel": 2,
      "note": 64,
      "start": 1.6327,
      "duration": 0.0137,
      "velocity": 99,
      "chip": "ym2612"
    },
    {
      "channel": 3,
      "note": 76,
      "start": 1.6333,
      "duration": 0.0134,
      "velocity": 99,
      "chip": "ym2612"
    },
    {
      "channel": 0,
      "note": 57,
      "start": 1.6511,
      "duration": 0.0289,
      "velocity": 91,
      "chip": "ym2612"
    },
    {
      "channel": 1,
      "note": 84,
      "start": 1.6516,
      "duration": 0.0137,
      "velocity": 99,
      "chip": "ym2612"
    },
    {
      "channel": 2,
      "note": 72,
      "start": 1.6527,
      "duration": 0.0612,
      "velocity": 99,
      "chip": "ym2612"
    },
    {
      "channel": 3,
      "note": 76,
      "start": 1.6532,
      "duration": 0.061,
      "velocity": 99,
      "chip": "ym2612"
    },
    {
      "channel": 4,
      "note": 86,
      "start": 1.6784,
      "duration": 0.0303,
      "velocity": 99,
      "chip": "ym2612"
    },
    {
      "channel": 0,
      "note": 57,
      "start": 1.684,
      "duration": 0.0294,
      "velocity": 91,
      "chip": "ym2612"
    },
    {
      "channel": 1,
      "note": 83,
      "start": 1.6845,
      "duration": 0.06,
      "velocity": 99,
      "chip": "ym2612"
    },
    {
      "channel": 4,
      "note": 84,
      "start": 1.7117,
      "duration": 0.0624,
      "velocity": 99,
      "chip": "ym2612"
    },
    {
      "channel": 0,
      "note": 57,
      "start": 1.7161,
      "duration": 0.0282,
      "velocity": 91,
      "chip": "ym2612"
    },
    {
      "channel": 2,
      "note": 71,
      "start": 1.7168,
      "duration": 0.028,
      "velocity": 99,
      "chip": "ym2612"
    },
    {
      "channel": 3,
      "note": 76,
      "start": 1.7174,
      "duration": 0.0277,
      "velocity": 99,
      "chip": "ym2612"
    },
    {
      "channel": 0,
      "note": 57,
      "start": 1.7487,
      "duration": 0.0298,
      "velocity": 91,
      "chip": "ym2612"
    },
    {
      "channel": 1,
      "note": 84,
      "start": 1.7492,
      "duration": 0.014,
      "velocity": 99,
      "chip": "ym2612"
    },
    {
      "channel": 2,
      "note": 72,
      "start": 1.7497,
      "duration": 0.0294,
      "velocity": 99,
      "chip": "ym2612"
    },
    {
      "channel": 3,
      "note": 74,
      "start": 1.7503,
      "duration": 0.0291,
      "velocity": 99,
      "chip": "ym2612"
    },
    {
      "channel": 4,
      "note": 83,
      "start": 1.7771,
      "duration": 0.0302,
      "velocity": 99,
      "chip": "ym2612"
    },
    {
      "channel": 0,
      "note": 57,
      "start": 1.7837,
      "duration": 0.028,
      "velocity": 91,
      "chip": "ym2612"
    },
    {
      "channel": 1,
      "note": 81,
      "start": 1.7842,
      "duration": 0.0937,
      "velocity": 99,
      "chip": "ym2612"
    },
    {
      "channel": 4,
      "note": 84,
      "start": 1.8101,
      "duration": 0.0966,
      "velocity": 99,
      "chip": "ym2612"
    },
    {
      "channel": 0,
      "note": 57,
      "start": 1.8168,
      "duration": 0.0283,
      "velocity": 91,
      "chip": "ym2612"
    },
    {
      "channel": 2,
      "note": 72,
      "start": 1.8175,
      "duration": 0.0438,
      "velocity": 99,
      "chip": "ym2612"
    },
    {
      "channel": 3,
      "note": 76,
      "start": 1.818,
      "duration": 0.0435,
      "velocity": 99,
      "chip": "ym2612"
    },
    {
      "channel": 0,
      "note": 57,
      "start": 1.8479,
      "duration": 0.0297,
      "velocity": 91,
      "chip": "ym2612"
    },
    {
      "channel": 2,
      "note": 57,
      "start": 1.8638,
      "duration": 0.0144,
      "velocity": 99,
      "chip": "ym2612"
    },
    {
      "channel": 3,
      "note": 76,
      "start": 1.8649,
      "duration": 0.0136,
      "velocity": 99,
      "chip": "ym2612"
    },
    {
      "channel": 0,
      "note": 57,
      "start": 1.8812,
      "duration": 0.0299,
      "velocity": 91,
      "chip": "ym2612"
    },
    {
      "channel": 1,
      "note": 88,
      "start": 1.8816,
      "duration": 0.0132,
      "velocity": 99,
      "chip": "ym2612"
    },
    {
      "channel": 2,
      "note": 57,
      "start": 1.8821,
      "duration": 0.0129,
      "velocity": 99,
      "chip": "ym2612"
    },
    {
      "channel": 3,
      "note": 69,
      "start": 1.8827,
      "duration": 0.0127,
      "velocity": 99,
      "chip": "ym2612"
    },
    {
      "channel": 2,
      "note": 57,
      "start": 1.898,
      "duration": 0.0136,
      "velocity": 99,
      "chip": "ym2612"
    },
    {
      "channel": 3,
      "note": 69,
      "start": 1.8985,
      "duration": 0.0134,
      "velocity": 99,
      "chip": "ym2612"
    },
    {
      "channel": 4,
      "note": 81,
      "start": 1.9096,
      "duration": 0.0311,
      "velocity": 99,
      "chip": "ym2612"
    },
    {
      "channel": 0,
      "note": 57,
      "start": 1.9163,
      "duration": 0.0286,
      "velocity": 91,
      "chip": "ym2612"
    },
    {
      "channel": 2,
      "note": 72,
      "start": 1.917,
      "duration": 0.0587,
      "velocity": 99,
      "chip": "ym2612"
    },
    {
      "channel": 3,
      "note": 69,
      "start": 1.9176,
      "duration": 0.0585,
      "velocity": 99,
      "chip": "ym2612"
    },
    {
      "channel": 0,
      "note": 57,
      "start": 1.9476,
      "duration": 0.0276,
      "velocity": 91,
      "chip": "ym2612"
    },
    {
      "channel": 0,
      "note": 57,
      "start": 1.9787,
      "duration": 0.0145,
      "velocity": 91,
      "chip": "ym2612"
    },
    {
      "channel": 2,
      "note": 71,
      "start": 1.9795,
      "duration": 0.0311,
      "velocity": 99,
      "chip": "ym2612"
    },
    {
      "channel": 3,
      "note": 76,
      "start": 1.98,
      "duration": 0.0308,
      "velocity": 99,
      "chip": "ym2612"
    },
    {
      "channel": 0,
      "note": 64,
      "start": 1.9971,
      "duration": 0.0129,
      "velocity": 91,
      "chip": "ym2612"
    },
    {
      "channel": 0,
      "note": 52,
      "start": 2.0129,
      "duration": 0.0286,
      "velocity": 91,
      "chip": "ym2612"
    },
    {
      "channel": 2,
      "note": 72,
      "start": 2.0137,
      "duration": 0.0284,
      "velocity": 99,
      "chip": "ym2612"
    },
    {
      "channel": 3,
      "note": 74,
      "start": 2.0142,
      "duration": 0.0281,
      "velocity": 99,
      "chip": "ym2612"
    },
    {
      "channel": 0,
      "note": 57,
      "start": 2.0449,
      "duration": 0.0295,
      "velocity": 91,
      "chip": "ym2612"
    },
    {
      "channel": 2,
      "note": 74,
      "start": 2.0456,
      "duration": 0.0293,
      "velocity": 99,
      "chip": "ym2612"
    },
    {
      "channel": 3,
      "note": 76,
      "start": 2.0462,
      "duration": 0.029,
      "velocity": 99,
      "chip": "ym2612"
    },
    {
      "channel": 0,
      "note": 55,
      "start": 2.0777,
      "duration": 0.031,
      "velocity": 91,
      "chip": "ym2612"
    },
    {
      "channel": 1,
      "note": 88,
      "start": 2.0782,
      "duration": 0.0141,
      "velocity": 99,
      "chip": "ym2612"
    },
    {
      "channel": 2,
      "note": 72,
      "start": 2.0793,
      "duration": 0.03,
      "velocity": 99,
      "chip": "ym2612"
    },
    {
      "channel": 3,
      "note": 77,
      "start": 2.0799,
      "duration": 0.0297,
      "velocity": 99,
      "chip": "ym2612"
    },
    {
      "channel": 1,
      "note": 89,
      "start": 2.0951,
      "duration": 0.0139,
      "velocity": 99,
      "chip": "ym2612"
    },
    {
      "channel": 4,
      "note": 88,
      "start": 2.1061,
      "duration": 0.0173,
      "velocity": 99,
      "chip": "ym2612"
    },
    {
      "channel": 0,
      "note": 53,
      "start": 2.1127,
      "duration": 0.0311,
      "velocity": 91,
      "chip": "ym2612"
    },
    {
      "channel": 1,
      "note": 91,
      "start": 2.1132,
      "duration": 0.1987,
      "velocity": 99,
      "chip": "ym2612"
    },
    {
      "channel": 2,
      "note": 81,
      "start": 2.1139,
      "duration": 0.0144,
      "velocity": 99,
      "chip": "ym2612"
    },
    {
      "channel": 3,
      "note": 76,
      "start": 2.1146,
      "duration": 0.014,
      "velocity": 99,
      "chip": "ym2612"
    },
    {
      "channel": 4,
      "note": 88,
      "start": 2.1266,
      "duration": 0.0129,
      "velocity": 99,
      "chip": "ym2612"
    },
    {
      "channel": 2,
      "note": 81,
      "start": 2.1313,
      "duration": 0.013,
      "velocity": 99,
      "chip": "ym2612"
    },
    {
      "channel": 3,
      "note": 77,
      "start": 2.1318,
      "duration": 0.0128,
      "velocity": 99,
      "chip": "ym2612"
    },
    {
      "channel": 4,
      "note": 89,
      "start": 2.142,
      "duration": 0.2,
      "velocity": 99,
      "chip": "ym2612"
    },
    {
      "channel": 0,
      "note": 53,
      "start": 2.1466,
      "duration": 0.0295,
      "velocity": 91,
      "chip": "ym2612"
    },
    {
      "channel": 2,
      "note": 81,
      "start": 2.1473,
      "duration": 0.0124,
      "velocity": 99,
      "chip": "ym2612"
    },
    {
      "channel": 3,
      "note": 77,
      "start": 2.1479,
      "duration": 0.0122,
      "velocity": 99,
      "chip": "ym2612"
    },
    {
      "channel": 2,
      "note": 81,
      "start": 2.1626,
      "duration": 0.014,
      "velocity": 99,
      "chip": "ym2612"
    },
    {
      "channel": 3,
      "note": 77,
      "start": 2.1632,
      "duration": 0.0137,
      "velocity": 99,
      "chip": "ym2612"
    },
    {
      "channel": 0,
      "note": 53,
      "start": 2.1806,
      "duration": 0.0285,
      "velocity": 91,
      "chip": "ym2612"
    },
    {
      "channel": 2,
      "note": 81,
      "start": 2.1814,
      "duration": 0.0632,
      "velocity": 99,
      "chip": "ym2612"
    },
    {
      "channel": 3,
      "note": 77,
      "start": 2.182,
      "duration": 0.063,
      "velocity": 99,
      "chip": "ym2612"
    },
    {
      "channel": 0,
      "note": 57,
      "start": 2.2142,
      "duration": 0.0132,
      "velocity": 91,
      "chip": "ym2612"
    },
    {
      "channel": 0,
      "note": 60,
      "start": 2.2311,
      "duration": 0.0131,
      "velocity": 91,
      "chip": "ym2612"
    },
    {
      "channel": 0,
      "note": 65,
      "start": 2.2471,
      "duration": 0.029,
      "velocity": 91,
      "chip": "ym2612"
    },
    {
      "channel": 2,
      "note": 81,
      "start": 2.2637,
      "duration": 0.013,
      "velocity": 99,
      "chip": "ym2612"
    },
    {
      "channel": 3,
      "note": 77,
      "start": 2.2642,
      "duration": 0.0127,
      "velocity": 99,
      "chip": "ym2612"
    },
    {
      "channel": 0,
      "note": 65,
      "start": 2.2815,
      "duration": 0.0302,
      "velocity": 91,
      "chip": "ym2612"
    },
    {
      "channel": 2,
      "note": 81,
      "start": 2.2822,
      "duration": 0.03,
      "velocity": 99,
      "chip": "ym2612"
    },
    {
      "channel": 3,
      "note": 77,
      "start": 2.2828,
      "duration": 0.0297,
      "velocity": 99,
      "chip": "ym2612"
    },
    {
      "channel": 0,
      "note": 65,
      "start": 2.3168,
      "duration": 0.0297,
      "velocity": 91,
      "chip": "ym2612"
    },
    {
      "channel": 1,
      "note": 89,
      "start": 2.3173,
      "duration": 0.0184,
      "velocity": 99,
      "chip": "ym2612"
    },
    {
      "channel": 2,
      "note": 81,
      "start": 2.3178,
      "duration": 0.0622,
      "velocity": 99,
      "chip": "ym2612"
    },
    {
      "channel": 3,
      "note": 77,
      "start": 2.3183,
      "duration": 0.0619,
      "velocity": 99,
      "chip": "ym2612"
    },
    {
      "channel": 1,
      "note": 88,
      "start": 2.3385,
      "duration": 0.0211,
      "velocity": 99,
      "chip": "ym2612"
    },
    {
      "channel": 4,
      "note": 91,
      "start": 2.3452,
      "duration": 0.0201,
      "velocity": 99,
      "chip": "ym2612"
    },
    {
      "channel": 0,
      "note": 65,
      "start": 2.3508,
      "duration": 0.0286,
      "velocity": 91,
      "chip": "ym2612"
    },
    {
      "channel": 1,
      "note": 86,
      "start": 2.3621,
      "duration": 0.0176,
      "velocity": 99,
      "chip": "ym2612"
    },
    {
      "channel": 4,
      "note": 89,
      "start": 2.3679,
      "duration": 0.0197,
      "velocity": 99,
      "chip": "ym2612"
    },
    {
      "channel": 0,
      "note": 64,
      "start": 2.3825,
      "duration": 0.0311,
      "velocity": 91,
      "chip": "ym2612"
    },
    {
      "channel": 1,
      "note": 84,
      "start": 2.3829,
      "duration": 0.0193,
      "velocity": 99,
      "chip": "ym2612"
    },
    {
      "channel": 2,
      "note": 79,
      "start": 2.3834,
      "duration": 0.0136,
      "velocity": 99,
      "chip": "ym2612"
    },
    {
      "channel": 3,
      "note": 77,
      "start": 2.384,
      "duration": 0.0134,
      "velocity": 99,
      "chip": "ym2612"
    },
    {
      "channel": 4,
      "note": 88,
      "start": 2.39,
      "duration": 0.0184,
      "velocity": 99,
      "chip": "ym2612"
    },
    {
      "channel": 2,
      "note": 79,
      "start": 2.3997,
      "duration": 0.0144,
      "velocity": 99,
      "chip": "ym2612"
    },
    {
      "channel": 3,
      "note": 76,
      "start": 2.4003,
      "duration": 0.0141,
      "velocity": 99,
      "chip": "ym2612"
    },
    {
      "channel": 1,
      "note": 83,
      "start": 2.4051,
      "duration": 0.0202,
      "velocity": 99,
      "chip": "ym2612"
    },
    {
      "channel": 4,
      "note": 86,
      "start": 2.4118,
      "duration": 0.02,
      "velocity": 99,
      "chip": "ym2612"
    },
    {
      "channel": 0,
      "note": 64,
      "start": 2.4168,
      "duration": 0.0295,
      "velocity": 91,
      "chip": "ym2612"
    },
    {
      "channel": 2,
      "note": 79,
      "start": 2.4175,
      "duration": 0.013,
      "velocity": 99,
      "chip": "ym2612"
    },
    {
      "channel": 3,
      "note": 76,
      "start": 2.4181,
      "duration": 0.0128,
      "velocity": 99,
      "chip": "ym2612"
    },
    {
      "channel": 1,
      "note": 81,
      "start": 2.4281,
      "duration": 0.0185,
      "velocity": 99,
      "chip": "ym2612"
    },
    {
      "channel": 2,
      "note": 79,
      "start": 2.4337,
      "duration": 0.0132,
      "velocity": 99,
      "chip": "ym2612"
    },
    {
      "channel": 3,
      "note": 76,
      "start": 2.4343,
      "duration": 0.0129,
      "velocity": 99,
      "chip": "ym2612"
    },
    {
      "channel": 4,
      "note": 84,
      "start": 2.4349,
      "duration": 0.0215,
      "velocity": 99,
      "chip": "ym2612"
    },
    {
      "channel": 0,
      "note": 64,
      "start": 2.4517,
      "duration": 0.0302,
      "velocity": 91,
      "chip": "ym2612"
    },
    {
      "channel": 1,
      "note": 79,
      "start": 2.4522,
      "duration": 0.1251,
      "velocity": 99,
      "chip": "ym2612"
    },
    {
      "channel": 2,
      "note": 79,
      "start": 2.4527,
      "duration": 0.0592,
      "velocity": 99,
      "chip": "ym2612"
    },
    {
      "channel": 3,
      "note": 76,
      "start": 2.4533,
      "duration": 0.0589,
      "velocity": 99,
      "chip": "ym2612"
    },
    {
      "channel": 4,
      "note": 83,
      "start": 2.4591,
      "duration": 0.0179,
      "velocity": 99,
      "chip": "ym2612"
    },
    {
      "channel": 4,
      "note": 81,
      "start": 2.48,
      "duration": 0.1254,
      "velocity": 99,
      "chip": "ym2612"
    },
    {
      "channel": 0,
      "note": 64,
      "start": 2.4845,
      "duration": 0.0269,
      "velocity": 91,
      "chip": "ym2612"
    },
    {
      "channel": 0,
      "note": 64,
      "start": 2.5145,
      "duration": 0.031,
      "velocity": 91,
      "chip": "ym2612"
    },
    {
      "channel": 2,
      "note": 79,
      "start": 2.5328,
      "duration": 0.0132,
      "velocity": 99,
      "chip": "ym2612"
    },
    {
      "channel": 3,
      "note": 76,
      "start": 2.5334,
      "duration": 0.0129,
      "velocity": 99,
      "chip": "ym2612"
    },
    {
      "channel": 0,
      "note": 64,
      "start": 2.5483,
      "duration": 0.0288,
      "velocity": 91,
      "chip": "ym2612"
    },
    {
      "channel": 2,
      "note": 79,
      "start": 2.549,
      "duration": 0.0286,
      "velocity": 99,
      "chip": "ym2612"
    },
    {
      "channel": 3,
      "note": 76,
      "start": 2.5496,
      "duration": 0.0284,
      "velocity": 99,
      "chip": "ym2612"
    },
    {
      "channel": 0,
      "note": 64,
      "start": 2.5798,
      "duration": 0.0298,
      "velocity": 91,
      "chip": "ym2612"
    },
    {
      "channel": 1,
      "note": 76,
      "start": 2.5803,
      "duration": 0.0603,
      "velocity": 99,
      "chip": "ym2612"
    },
    {
      "channel": 2,
      "note": 79,
      "start": 2.5808,
      "duration": 0.0601,
      "velocity": 99,
      "chip": "ym2612"
    },
    {
      "channel": 3,
      "note": 76,
      "start": 2.5814,
      "duration": 0.0615,
      "velocity": 99,
      "chip": "ym2612"
    },
    {
      "channel": 4,
      "note": 79,
      "start": 2.6079,
      "duration": 0.0624,
      "velocity": 99,
      "chip": "ym2612"
    },
    {
      "channel": 0,
      "note": 64,
      "start": 2.613,
      "duration": 0.0274,
      "velocity": 91,
      "chip": "ym2612"
    },
    {
      "channel": 0,
      "note": 62,
      "start": 2.6446,
      "duration": 0.0301,
      "velocity": 91,
      "chip": "ym2612"
    },
    {
      "channel": 1,
      "note": 77,
      "start": 2.6451,
      "duration": 0.0139,
      "velocity": 99,
      "chip": "ym2612"
    },
    {
      "channel": 2,
      "note": 81,
      "start": 2.6456,
      "duration": 0.0137,
      "velocity": 99,
      "chip": "ym2612"
    },
    {
      "channel": 3,
      "note": 76,
      "start": 2.6463,
      "duration": 0.0132,
      "velocity": 99,
      "chip": "ym2612"
    },
    {
      "channel": 2,
      "note": 81,
      "start": 2.6622,
      "duration": 0.0131,
      "velocity": 99,
      "chip": "ym2612"
    },
    {
      "channel": 3,
      "note": 77,
      "start": 2.6627,
      "duration": 0.0128,
      "velocity": 99,
      "chip": "ym2612"
    },
    {
      "channel": 4,
      "note": 76,
      "start": 2.6731,
      "duration": 0.03,
      "velocity": 99,
      "chip": "ym2612"
    },
    {
      "channel": 0,
      "note": 62,
      "start": 2.6775,
      "duration": 0.03,
      "velocity": 91,
      "chip": "ym2612"
    },
    {
      "channel": 1,
      "note": 79,
      "start": 2.678,
      "duration": 0.0612,
      "velocity": 99,
      "chip": "ym2612"
    },
    {
      "channel": 2,
      "note": 81,
      "start": 2.6785,
      "duration": 0.0129,
      "velocity": 99,
      "chip": "ym2612"
    },
    {
      "channel": 3,
      "note": 77,
      "start": 2.6791,
      "duration": 0.0126,
      "velocity": 99,
      "chip": "ym2612"
    },
    {
      "channel": 2,
      "note": 81,
      "start": 2.6942,
      "duration": 0.0138,
      "velocity": 99,
      "chip": "ym2612"
    },
    {
      "channel": 3,
      "note": 77,
      "start": 2.6948,
      "duration": 0.0135,
      "velocity": 99,
      "chip": "ym2612"
    },
    {
      "channel": 4,
      "note": 77,
      "start": 2.7059,
      "duration": 0.063,
      "velocity": 99,
      "chip": "ym2612"
    },
    {
      "channel": 0,
      "note": 62,
      "start": 2.7109,
      "duration": 0.028,
      "velocity": 91,
      "chip": "ym2612"
    },
    {
      "channel": 2,
      "note": 81,
      "start": 2.7116,
      "duration": 0.0622,
      "velocity": 99,
      "chip": "ym2612"
    },
    {
      "channel": 3,
      "note": 77,
      "start": 2.7122,
      "duration": 0.062,
      "velocity": 99,
      "chip": "ym2612"
    },
    {
      "channel": 0,
      "note": 62,
      "start": 2.7443,
      "duration": 0.0291,
      "velocity": 91,
      "chip": "ym2612"
    },
    {
      "channel": 1,
      "note": 81,
      "start": 2.7448,
      "duration": 0.0597,
      "velocity": 99,
      "chip": "ym2612"
    },
    {
      "channel": 4,
      "note": 79,
      "start": 2.772,
      "duration": 0.0611,
      "velocity": 99,
      "chip": "ym2612"
    },
    {
      "channel": 0,
      "note": 62,
      "start": 2.7765,
      "duration": 0.0278,
      "velocity": 91,
      "chip": "ym2612"
    },
    {
      "channel": 2,
      "note": 81,
      "start": 2.792,
      "duration": 0.0128,
      "velocity": 99,
      "chip": "ym2612"
    },
    {
      "channel": 3,
      "note": 77,
      "start": 2.7925,
      "duration": 0.0126,
      "velocity": 99,
      "chip": "ym2612"
    },
    {
      "channel": 0,
      "note": 62,
      "start": 2.8081,
      "duration": 0.0293,
      "velocity": 91,
      "chip": "ym2612"
    },
    {
      "channel": 1,
      "note": 83,
      "start": 2.8085,
      "duration": 0.0291,
      "velocity": 99,
      "chip": "ym2612"
    },
    {
      "channel": 2,
      "note": 81,
      "start": 2.809,
      "duration": 0.0288,
      "velocity": 99,
      "chip": "ym2612"
    },
    {
      "channel": 3,
      "note": 77,
      "start": 2.8096,
      "duration": 0.0285,
      "velocity": 99,
      "chip": "ym2612"
    },
    {
      "channel": 4,
      "note": 81,
      "start": 2.8357,
      "duration": 0.0307,
      "velocity": 99,
      "chip": "ym2612"
    },
    {
      "channel": 0,
      "note": 62,
      "start": 2.8421,
      "duration": 0.0288,
      "velocity": 91,
      "chip": "ym2612"
    },
    {
      "channel": 1,
      "note": 84,
      "start": 2.8426,
      "duration": 0.0286,
      "velocity": 99,
      "chip": "ym2612"
    },
    {
      "channel": 2,
      "note": 81,
      "start": 2.8431,
      "duration": 0.0627,
      "velocity": 99,
      "chip": "ym2612"
    },
    {
      "channel": 3,
      "note": 77,
      "start": 2.8437,
      "duration": 0.0625,
      "velocity": 99,
      "chip": "ym2612"
    },
    {
      "channel": 4,
      "note": 83,
      "start": 2.8693,
      "duration": 0.0315,
      "velocity": 99,
      "chip": "ym2612"
    },
    {
      "channel": 0,
      "note": 62,
      "start": 2.8758,
      "duration": 0.0295,
      "velocity": 91,
      "chip": "ym2612"
    },
    {
      "channel": 1,
      "note": 86,
      "start": 2.8763,
      "duration": 0.0293,
      "velocity": 99,
      "chip": "ym2612"
    },
    {
      "channel": 4,
      "note": 84,
      "start": 2.9034,
      "duration": 0.039,
      "velocity": 99,
      "chip": "ym2612"
    },
    {
      "channel": 0,
      "note": 64,
      "start": 2.9106,
      "duration": 0.019,
      "velocity": 91,
      "chip": "ym2612"
    },
    {
      "channel": 1,
      "note": 91,
      "start": 2.9111,
      "duration": 0.0188,
      "velocity": 99,
      "chip": "ym2612"
    },
    {
      "channel": 2,
      "note": 86,
      "start": 2.9135,
      "duration": 0.0167,
      "velocity": 99,
      "chip": "ym2612"
    },
    {
      "channel": 3,
      "note": 77,
      "start": 2.9173,
      "duration": 0.0132,
      "velocity": 99,
      "chip": "ym2612"
    },
    {
      "channel": 0,
      "note": 64,
      "start": 2.9329,
      "duration": 0.0148,
      "velocity": 91,
      "chip": "ym2612"
    },
    {
      "channel": 1,
      "note": 91,
      "start": 2.9334,
      "duration": 0.0146,
      "velocity": 99,
      "chip": "ym2612"
    },
    {
      "channel": 2,
      "note": 86,
      "start": 2.9339,
      "duration": 0.0144,
      "velocity": 99,
      "chip": "ym2612"
    },
    {
      "channel": 3,
      "note": 83,
      "start": 2.9345,
      "duration": 0.0141,
      "velocity": 99,
      "chip": "ym2612"
    },
    {
      "channel": 4,
      "note": 86,
      "start": 2.9461,
      "duration": 0.0136,
      "velocity": 99,
      "chip": "ym2612"
    },
    {
      "channel": 4,
      "note": 91,
      "start": 2.9624,
      "duration": 0.0132,
      "velocity": 99,
      "chip": "ym2612"
    },
    {
      "channel": 0,
      "note": 52,
      "start": 3.0202,
      "duration": 0.0814,
      "velocity": 91,
      "chip": "ym2612"
    },
    {
      "channel": 1,
      "note": 92,
      "start": 3.0207,
      "duration": 0.0812,
      "velocity": 99,
      "chip": "ym2612"
    },
    {
      "channel": 2,
      "note": 86,
      "start": 3.0212,
      "duration": 0.1746,
      "velocity": 99,
      "chip": "ym2612"
    },
    {
      "channel": 3,
      "note": 83,
      "start": 3.0218,
      "duration": 0.175,
      "velocity": 99,
      "chip": "ym2612"
    },
    {
      "channel": 4,
      "note": 91,
      "start": 3.0474,
      "duration": 0.1778,
      "velocity": 99,
      "chip": "ym2612"
    },
    {
      "channel": 0,
      "note": 64,
      "start": 3.1175,
      "duration": 0.0779,
      "velocity": 91,
      "chip": "ym2612"
    },
    {
      "channel": 0,
      "note": 52,
      "start": 3.2111,
      "duration": 0.0348,
      "velocity": 91,
      "chip": "ym2612"
    },
    {
      "channel": 1,
      "note": 76,
      "start": 3.2116,
      "duration": 0.0178,
      "velocity": 99,
      "chip": "ym2612"
    },
    {
      "channel": 2,
      "note": 88,
      "start": 3.2145,
      "duration": 0.0152,
      "velocity": 99,
      "chip": "ym2612"
    },
    {
      "channel": 3,
      "note": 83,
      "start": 3.2176,
      "duration": 0.0123,
      "velocity": 99,
      "chip": "ym2612"
    },
    {
      "channel": 2,
      "note": 88,
      "start": 3.2326,
      "duration": 0.0138,
      "velocity": 99,
      "chip": "ym2612"
    },
    {
      "channel": 3,
      "note": 76,
      "start": 3.2332,
      "duration": 0.0135,
      "velocity": 99,
      "chip": "ym2612"
    },
    {
      "channel": 4,
      "note": 92,
      "start": 3.2443,
      "duration": 0.0311,
      "velocity": 99,
      "chip": "ym2612"
    },
    {
      "channel": 0,
      "note": 52,
      "start": 3.2486,
      "duration": 0.0311,
      "velocity": 91,
      "chip": "ym2612"
    },
    {
      "channel": 1,
      "note": 81,
      "start": 3.2491,
      "duration": 0.0148,
      "velocity": 99,
      "chip": "ym2612"
    },
    {
      "channel": 2,
      "note": 88,
      "start": 3.2496,
      "duration": 0.0305,
      "velocity": 99,
      "chip": "ym2612"
    },
    {
      "channel": 3,
      "note": 76,
      "start": 3.2502,
      "duration": 0.0303,
      "velocity": 99,
      "chip": "ym2612"
    },
    {
      "channel": 4,
      "note": 76,
      "start": 3.2781,
      "duration": 0.0309,
      "velocity": 99,
      "chip": "ym2612"
    },
    {
      "channel": 0,
      "note": 52,
      "start": 3.2842,
      "duration": 0.0291,
      "velocity": 91,
      "chip": "ym2612"
    },
    {
      "channel": 1,
      "note": 83,
      "start": 3.2847,
      "duration": 0.0132,
      "velocity": 99,
      "chip": "ym2612"
    },
    {
      "channel": 2,
      "note": 76,
      "start": 3.2852,
      "duration": 0.0286,
      "velocity": 99,
      "chip": "ym2612"
    },
    {
      "channel": 3,
      "note": 76,
      "start": 3.2858,
      "duration": 0.0284,
      "velocity": 99,
      "chip": "ym2612"
    },
    {
      "channel": 1,
      "note": 83,
      "start": 3.3008,
      "duration": 0.0127,
      "velocity": 99,
      "chip": "ym2612"
    },
    {
      "channel": 4,
      "note": 81,
      "start": 3.3116,
      "duration": 0.0322,
      "velocity": 99,
      "chip": "ym2612"
    },
    {
      "channel": 0,
      "note": 57,
      "start": 3.3178,
      "duration": 0.0308,
      "velocity": 91,
      "chip": "ym2612"
    },
    {
      "channel": 1,
      "note": 86,
      "start": 3.3183,
      "duration": 0.0627,
      "velocity": 99,
      "chip": "ym2612"
    },
    {
      "channel": 4,
      "note": 83,
      "start": 3.3469,
      "duration": 0.062,
      "velocity": 99,
      "chip": "ym2612"
    },
    {
      "channel": 0,
      "note": 57,
      "start": 3.3515,
      "duration": 0.0292,
      "velocity": 91,
      "chip": "ym2612"
    },
    {
      "channel": 2,
      "note": 64,
      "start": 3.3522,
      "duration": 0.0132,
      "velocity": 99,
      "chip": "ym2612"
    },
    {
      "channel": 3,
      "note": 71,
      "start": 3.3528,
      "duration": 0.0129,
      "velocity": 99,
      "chip": "ym2612"
    },
    {
      "channel": 2,
      "note": 64,
      "start": 3.368,
      "duration": 0.0133,
      "velocity": 99,
      "chip": "ym2612"
    },
    {
      "channel": 3,
      "note": 76,
      "start": 3.3686,
      "duration": 0.013,
      "velocity": 99,
      "chip": "ym2612"
    },
    {
      "channel": 0,
      "note": 57,
      "start": 3.3848,
      "duration": 0.0283,
      "velocity": 91,
      "chip": "ym2612"
    },
    {
      "channel": 1,
      "note": 84,
      "start": 3.3853,
      "duration": 0.0132,
      "velocity": 99,
      "chip": "ym2612"
    },
    {
      "channel": 2,
      "note": 72,
      "start": 3.3857,
      "duration": 0.062,
      "velocity": 99,
      "chip": "ym2612"
    },
    {
      "channel": 3,
      "note": 76,
      "start": 3.3863,
      "duration": 0.0617,
      "velocity": 99,
      "chip": "ym2612"
    },
    {
      "channel": 4,
      "note": 86,
      "start": 3.4115,
      "duration": 0.0314,
      "velocity": 99,
      "chip": "ym2612"
    },
    {
      "channel": 0,
      "note": 57,
      "start": 3.418,
      "duration": 0.0293,
      "velocity": 91,
      "chip": "ym2612"
    },
    {
      "channel": 1,
      "note": 83,
      "start": 3.4185,
      "duration": 0.0596,
      "velocity": 99,
      "chip": "ym2612"
    },
    {
      "channel": 4,
      "note": 84,
      "start": 3.4456,
      "duration": 0.0618,
      "velocity": 99,
      "chip": "ym2612"
    },
    {
      "channel": 0,
      "note": 57,
      "start": 3.45,
      "duration": 0.0278,
      "velocity": 91,
      "chip": "ym2612"
    },
    {
      "channel": 2,
      "note": 71,
      "start": 3.4507,
      "duration": 0.0276,
      "velocity": 99,
      "chip": "ym2612"
    },
    {
      "channel": 3,
      "note": 76,
      "start": 3.4513,
      "duration": 0.0274,
      "velocity": 99,
      "chip": "ym2612"
    },
    {
      "channel": 0,
      "note": 57,
      "start": 3.4824,
      "duration": 0.0295,
      "velocity": 91,
      "chip": "ym2612"
    },
    {
      "channel": 1,
      "note": 84,
      "start": 3.4829,
      "duration": 0.0138,
      "velocity": 99,
      "chip": "ym2612"
    },
    {
      "channel": 2,
      "note": 72,
      "start": 3.4834,
      "duration": 0.0291,
      "velocity": 99,
      "chip": "ym2612"
    },
    {
      "channel": 3,
      "note": 74,
      "start": 3.4839,
      "duration": 0.0288,
      "velocity": 99,
      "chip": "ym2612"
    },
    {
      "channel": 4,
      "note": 83,
      "start": 3.5102,
      "duration": 0.0302,
      "velocity": 99,
      "chip": "ym2612"
    },
    {
      "channel": 0,
      "note": 57,
      "start": 3.5163,
      "duration": 0.0284,
      "velocity": 91,
      "chip": "ym2612"
    },
    {
      "channel": 1,
      "note": 81,
      "start": 3.5174,
      "duration": 0.0941,
      "velocity": 99,
      "chip": "ym2612"
    },
    {
      "channel": 4,
      "note": 84,
      "start": 3.543,
      "duration": 0.099,
      "velocity": 99,
      "chip": "ym2612"
    },
    {
      "channel": 0,
      "note": 57,
      "start": 3.5494,
      "duration": 0.0294,
      "velocity": 91,
      "chip": "ym2612"
    },
    {
      "channel": 2,
      "note": 72,
      "start": 3.5501,
      "duration": 0.0441,
      "velocity": 99,
      "chip": "ym2612"
    },
    {
      "channel": 3,
      "note": 76,
      "start": 3.5507,
      "duration": 0.0439,
      "velocity": 99,
      "chip": "ym2612"
    },
    {
      "channel": 0,
      "note": 57,
      "start": 3.5817,
      "duration": 0.0296,
      "velocity": 91,
      "chip": "ym2612"
    },
    {
      "channel": 2,
      "note": 57,
      "start": 3.597,
      "duration": 0.0148,
      "velocity": 99,
      "chip": "ym2612"
    },
    {
      "channel": 3,
      "note": 76,
      "start": 3.5976,
      "duration": 0.0146,
      "velocity": 99,
      "chip": "ym2612"
    },
    {
      "channel": 0,
      "note": 57,
      "start": 3.617,
      "duration": 0.0294,
      "velocity": 91,
      "chip": "ym2612"
    },
    {
      "channel": 1,
      "note": 76,
      "start": 3.6175,
      "duration": 0.0132,
      "velocity": 99,
      "chip": "ym2612"
    },
    {
      "channel": 2,
      "note": 57,
      "start": 3.618,
      "duration": 0.013,
      "velocity": 99,
      "chip": "ym2612"
    },
    {
      "channel": 3,
      "note": 69,
      "start": 3.6185,
      "duration": 0.0127,
      "velocity": 99,
      "chip": "ym2612"
    },
    {
      "channel": 2,
      "note": 57,
      "start": 3.6337,
      "duration": 0.0138,
      "velocity": 99,
      "chip": "ym2612"
    },
    {
      "channel": 3,
      "note": 69,
      "start": 3.6343,
      "duration": 0.0135,
      "velocity": 99,
      "chip": "ym2612"
    },
    {
      "channel": 4,
      "note": 81,
      "start": 3.6448,
      "duration": 0.031,
      "velocity": 99,
      "chip": "ym2612"
    },
    {
      "channel": 0,
      "note": 57,
      "start": 3.6515,
      "duration": 0.0287,
      "velocity": 91,
      "chip": "ym2612"
    },
    {
      "channel": 2,
      "note": 72,
      "start": 3.6522,
      "duration": 0.0589,
      "velocity": 99,
      "chip": "ym2612"
    },
    {
      "channel": 3,
      "note": 69,
      "start": 3.6532,
      "duration": 0.0582,
      "velocity": 99,
      "chip": "ym2612"
    },
    {
      "channel": 0,
      "note": 57,
      "start": 3.6826,
      "duration": 0.0279,
      "velocity": 91,
      "chip": "ym2612"
    },
    {
      "channel": 0,
      "note": 57,
      "start": 3.7136,
      "duration": 0.0144,
      "velocity": 91,
      "chip": "ym2612"
    },
    {
      "channel": 2,
      "note": 71,
      "start": 3.7143,
      "duration": 0.0312,
      "velocity": 99,
      "chip": "ym2612"
    },
    {
      "channel": 3,
      "note": 76,
      "start": 3.7149,
      "duration": 0.031,
      "velocity": 99,
      "chip": "ym2612"
    },
    {
      "channel": 0,
      "note": 64,
      "start": 3.7315,
      "duration": 0.0135,
      "velocity": 91,
      "chip": "ym2612"
    },
    {
      "channel": 0,
      "note": 52,
      "start": 3.7478,
      "duration": 0.0284,
      "velocity": 91,
      "chip": "ym2612"
    },
    {
      "channel": 1,
      "note": 76,
      "start": 3.7483,
      "duration": 0.013,
      "velocity": 99,
      "chip": "ym2612"
    },
    {
      "channel": 2,
      "note": 72,
      "start": 3.7487,
      "duration": 0.028,
      "velocity": 99,
      "chip": "ym2612"
    },
    {
      "channel": 3,
      "note": 74,
      "start": 3.7493,
      "duration": 0.0277,
      "velocity": 99,
      "chip": "ym2612"
    },
    {
      "channel": 4,
      "note": 76,
      "start": 3.7747,
      "duration": 0.0304,
      "velocity": 99,
      "chip": "ym2612"
    },
    {
      "channel": 0,
      "note": 57,
      "start": 3.7799,
      "duration": 0.0297,
      "velocity": 91,
      "chip": "ym2612"
    },
    {
      "channel": 1,
      "note": 81,
      "start": 3.7804,
      "duration": 0.0142,
      "velocity": 99,
      "chip": "ym2612"
    },
    {
      "channel": 2,
      "note": 74,
      "start": 3.7809,
      "duration": 0.0293,
      "velocity": 99,
      "chip": "ym2612"
    },
    {
      "channel": 3,
      "note": 76,
      "start": 3.7815,
      "duration": 0.029,
      "velocity": 99,
      "chip": "ym2612"
    },
    {
      "channel": 4,
      "note": 76,
      "start": 3.8078,
      "duration": 0.0294,
      "velocity": 99,
      "chip": "ym2612"
    },
    {
      "channel": 0,
      "note": 57,
      "start": 3.8128,
      "duration": 0.0288,
      "velocity": 91,
      "chip": "ym2612"
    },
    {
      "channel": 1,
      "note": 83,
      "start": 3.8133,
      "duration": 0.0137,
      "velocity": 99,
      "chip": "ym2612"
    },
    {
      "channel": 2,
      "note": 72,
      "start": 3.8137,
      "duration": 0.0283,
      "velocity": 99,
      "chip": "ym2612"
    },
    {
      "channel": 3,
      "note": 77,
      "start": 3.8144,
      "duration": 0.028,
      "velocity": 99,
      "chip": "ym2612"
    },
    {
      "channel": 4,
      "note": 81,
      "start": 3.8397,
      "duration": 0.0322,
      "velocity": 99,
      "chip": "ym2612"
    },
    {
      "channel": 0,
      "note": 57,
      "start": 3.8475,
      "duration": 0.0287,
      "velocity": 91,
      "chip": "ym2612"
    },
    {
      "channel": 1,
      "note": 86,
      "start": 3.848,
      "duration": 0.0601,
      "velocity": 99,
      "chip": "ym2612"
    },
    {
      "channel": 4,
      "note": 83,
      "start": 3.8744,
      "duration": 0.0612,
      "velocity": 99,
      "chip": "ym2612"
    },
    {
      "channel": 0,
      "note": 57,
      "start": 3.8789,
      "duration": 0.0289,
      "velocity": 91,
      "chip": "ym2612"
    },
    {
      "channel": 2,
      "note": 64,
      "start": 3.8796,
      "duration": 0.0118,
      "velocity": 99,
      "chip": "ym2612"
    },
    {
      "channel": 3,
      "note": 76,
      "start": 3.8802,
      "duration": 0.0116,
      "velocity": 99,
      "chip": "ym2612"
    },
    {
      "channel": 2,
      "note": 64,
      "start": 3.8941,
      "duration": 0.0142,
      "velocity": 99,
      "chip": "ym2612"
    },
    {
      "channel": 3,
      "note": 76,
      "start": 3.8947,
      "duration": 0.014,
      "velocity": 99,
      "chip": "ym2612"
    },
    {
      "channel": 0,
      "note": 57,
      "start": 3.9119,
      "duration": 0.0283,
      "velocity": 91,
      "chip": "ym2612"
    },
    {
      "channel": 1,
      "note": 84,
      "start": 3.9124,
      "duration": 0.0126,
      "velocity": 99,
      "chip": "ym2612"
    },
    {
      "channel": 2,
      "note": 72,
      "start": 3.9129,
      "duration": 0.0612,
      "velocity": 99,
      "chip": "ym2612"
    },
    {
      "channel": 3,
      "note": 76,
      "start": 3.9134,
      "duration": 0.061,
      "velocity": 99,
      "chip": "ym2612"
    },
    {
      "channel": 4,
      "note": 86,
      "start": 3.9383,
      "duration": 0.0309,
      "velocity": 99,
      "chip": "ym2612"
    },
    {
      "channel": 0,
      "note": 57,
      "start": 3.9451,
      "duration": 0.0285,
      "velocity": 91,
      "chip": "ym2612"
    },
    {
      "channel": 1,
      "note": 83,
      "start": 3.9456,
      "duration": 0.0581,
      "velocity": 99,
      "chip": "ym2612"
    },
    {
      "channel": 4,
      "note": 84,
      "start": 3.9718,
      "duration": 0.0617,
      "velocity": 99,
      "chip": "ym2612"
    },
    {
      "channel": 0,
      "note": 57,
      "start": 3.9762,
      "duration": 0.0272,
      "velocity": 91,
      "chip": "ym2612"
    },
    {
      "channel": 2,
      "note": 71,
      "start": 3.9769,
      "duration": 0.0271,
      "velocity": 99,
      "chip": "ym2612"
    },
    {
      "channel": 3,
      "note": 76,
      "start": 3.9775,
      "duration": 0.0268,
      "velocity": 99,
      "chip": "ym2612"
    },
    {
      "channel": 0,
      "note": 57,
      "start": 4.0083,
      "duration": 0.0299,
      "velocity": 91,
      "chip": "ym2612"
    },
    {
      "channel": 1,
      "note": 84,
      "start": 4.0088,
      "duration": 0.0138,
      "velocity": 99,
      "chip": "ym2612"
    },
    {
      "channel": 2,
      "note": 72,
      "start": 4.0093,
      "duration": 0.0294,
      "velocity": 99,
      "chip": "ym2612"
    },
    {
      "channel": 3,
      "note": 74,
      "start": 4.0099,
      "duration": 0.0292,
      "velocity": 99,
      "chip": "ym2612"
    },
    {
      "channel": 4,
      "note": 83,
      "start": 4.0365,
      "duration": 0.03,
      "velocity": 99,
      "chip": "ym2612"
    },
    {
      "channel": 0,
      "note": 57,
      "start": 4.043,
      "duration": 0.0276,
      "velocity": 91,
      "chip": "ym2612"
    },
    {
      "channel": 1,
      "note": 81,
      "start": 4.0435,
      "duration": 0.0938,
      "velocity": 99,
      "chip": "ym2612"
    },
    {
      "channel": 4,
      "note": 84,
      "start": 4.069,
      "duration": 0.0974,
      "velocity": 99,
      "chip": "ym2612"
    },
    {
      "channel": 0,
      "note": 57,
      "start": 4.0764,
      "duration": 0.0284,
      "velocity": 91,
      "chip": "ym2612"
    },
    {
      "channel": 2,
      "note": 72,
      "start": 4.0771,
      "duration": 0.0437,
      "velocity": 99,
      "chip": "ym2612"
    },
    {
      "channel": 3,
      "note": 76,
      "start": 4.0783,
      "duration": 0.0428,
      "velocity": 99,
      "chip": "ym2612"
    },
    {
      "channel": 0,
      "note": 57,
      "start": 4.1075,
      "duration": 0.0295,
      "velocity": 91,
      "chip": "ym2612"
    },
    {
      "channel": 2,
      "note": 57,
      "start": 4.1237,
      "duration": 0.0139,
      "velocity": 99,
      "chip": "ym2612"
    },
    {
      "channel": 3,
      "note": 76,
      "start": 4.1242,
      "duration": 0.0137,
      "velocity": 99,
      "chip": "ym2612"
    },
    {
      "channel": 0,
      "note": 57,
      "start": 4.1403,
      "duration": 0.0306,
      "velocity": 91,
      "chip": "ym2612"
    },
    {
      "channel": 1,
      "note": 88,
      "start": 4.1408,
      "duration": 0.0137,
      "velocity": 99,
      "chip": "ym2612"
    },
    {
      "channel": 2,
      "note": 57,
      "start": 4.1413,
      "duration": 0.0135,
      "velocity": 99,
      "chip": "ym2612"
    },
    {
      "channel": 3,
      "note": 69,
      "start": 4.1419,
      "duration": 0.0132,
      "velocity": 99,
      "chip": "ym2612"
    },
    {
      "channel": 2,
      "note": 57,
      "start": 4.1579,
      "duration": 0.0135,
      "velocity": 99,
      "chip": "ym2612"
    },
    {
      "channel": 3,
      "note": 69,
      "start": 4.1585,
      "duration": 0.0132,
      "velocity": 99,
      "chip": "ym2612"
    },
    {
      "channel": 4,
      "note": 81,
      "start": 4.1692,
      "duration": 0.0309,
      "velocity": 99,
      "chip": "ym2612"
    },
    {
      "channel": 0,
      "note": 57,
      "start": 4.1756,
      "duration": 0.0288,
      "velocity": 91,
      "chip": "ym2612"
    },
    {
      "channel": 2,
      "note": 72,
      "start": 4.1763,
      "duration": 0.059,
      "velocity": 99,
      "chip": "ym2612"
    },
    {
      "channel": 3,
      "note": 69,
      "start": 4.1769,
      "duration": 0.0587,
      "velocity": 99,
      "chip": "ym2612"
    },
    {
      "channel": 0,
      "note": 57,
      "start": 4.2072,
      "duration": 0.0274,
      "velocity": 91,
      "chip": "ym2612"
    },
    {
      "channel": 0,
      "note": 57,
      "start": 4.238,
      "duration": 0.0141,
      "velocity": 91,
      "chip": "ym2612"
    },
    {
      "channel": 2,
      "note": 71,
      "start": 4.2387,
      "duration": 0.0311,
      "velocity": 99,
      "chip": "ym2612"
    },
    {
      "channel": 3,
      "note": 76,
      "start": 4.2394,
      "duration": 0.0307,
      "velocity": 99,
      "chip": "ym2612"
    },
    {
      "channel": 0,
      "note": 64,
      "start": 4.2566,
      "duration": 0.0127,
      "velocity": 91,
      "chip": "ym2612"
    },
    {
      "channel": 0,
      "note": 52,
      "start": 4.2721,
      "duration": 0.0288,
      "velocity": 91,
      "chip": "ym2612"
    },
    {
      "channel": 2,
      "note": 72,
      "start": 4.2729,
      "duration": 0.0286,
      "velocity": 99,
      "chip": "ym2612"
    },
    {
      "channel": 3,
      "note": 74,
      "start": 4.2734,
      "duration": 0.0283,
      "velocity": 99,
      "chip": "ym2612"
    },
    {
      "channel": 0,
      "note": 57,
      "start": 4.304,
      "duration": 0.0298,
      "velocity": 91,
      "chip": "ym2612"
    },
    {
      "channel": 2,
      "note": 74,
      "start": 4.3048,
      "duration": 0.0296,
      "velocity": 99,
      "chip": "ym2612"
    },
    {
      "channel": 3,
      "note": 76,
      "start": 4.3053,
      "duration": 0.0293,
      "velocity": 99,
      "chip": "ym2612"
    },
    {
      "channel": 0,
      "note": 55,
      "start": 4.3373,
      "duration": 0.0292,
      "velocity": 91,
      "chip": "ym2612"
    },
    {
      "channel": 1,
      "note": 88,
      "start": 4.3378,
      "duration": 0.0135,
      "velocity": 99,
      "chip": "ym2612"
    },
    {
      "channel": 2,
      "note": 72,
      "start": 4.3383,
      "duration": 0.0287,
      "velocity": 99,
      "chip": "ym2612"
    },
    {
      "channel": 3,
      "note": 77,
      "start": 4.3388,
      "duration": 0.0285,
      "velocity": 99,
      "chip": "ym2612"
    },
    {
      "channel": 1,
      "note": 89,
      "start": 4.3538,
      "duration": 0.0129,
      "velocity": 99,
      "chip": "ym2612"
    },
    {
      "channel": 4,
      "note": 88,
      "start": 4.3647,
      "duration": 0.0186,
      "velocity": 99,
      "chip": "ym2612"
    },
    {
      "channel": 0,
      "note": 53,
      "start": 4.3731,
      "duration": 0.0301,
      "velocity": 91,
      "chip": "ym2612"
    },
    {
      "channel": 1,
      "note": 91,
      "start": 4.3736,
      "duration": 0.1607,
      "velocity": 99,
      "chip": "ym2612"
    },
    {
      "channel": 2,
      "note": 81,
      "start": 4.3742,
      "duration": 0.0139,
      "velocity": 99,
      "chip": "ym2612"
    },
    {
      "channel": 3,
      "note": 76,
      "start": 4.3749,
      "duration": 0.0134,
      "velocity": 99,
      "chip": "ym2612"
    },
    {
      "channel": 4,
      "note": 88,
      "start": 4.3859,
      "duration": 0.0128,
      "velocity": 99,
      "chip": "ym2612"
    },
    {
      "channel": 2,
      "note": 81,
      "start": 4.3907,
      "duration": 0.0129,
      "velocity": 99,
      "chip": "ym2612"
    },
    {
      "channel": 3,
      "note": 77,
      "start": 4.3913,
      "duration": 0.0126,
      "velocity": 99,
      "chip": "ym2612"
    },
    {
      "channel": 4,
      "note": 89,
      "start": 4.4013,
      "duration": 0.1638,
      "velocity": 99,
      "chip": "ym2612"
    },
    {
      "channel": 0,
      "note": 53,
      "start": 4.4057,
      "duration": 0.0291,
      "velocity": 91,
      "chip": "ym2612"
    },
    {
      "channel": 2,
      "note": 81,
      "start": 4.4064,
      "duration": 0.0122,
      "velocity": 99,
      "chip": "ym2612"
    },
    {
      "channel": 3,
      "note": 77,
      "start": 4.407,
      "duration": 0.012,
      "velocity": 99,
      "chip": "ym2612"
    },
    {
      "channel": 2,
      "note": 81,
      "start": 4.4216,
      "duration": 0.0137,
      "velocity": 99,
      "chip": "ym2612"
    },
    {
      "channel": 3,
      "note": 77,
      "start": 4.4222,
      "duration": 0.0135,
      "velocity": 99,
      "chip": "ym2612"
    },
    {
      "channel": 0,
      "note": 53,
      "start": 4.4391,
      "duration": 0.0285,
      "velocity": 91,
      "chip": "ym2612"
    },
    {
      "channel": 2,
      "note": 81,
      "start": 4.4398,
      "duration": 0.0631,
      "velocity": 99,
      "chip": "ym2612"
    },
    {
      "channel": 3,
      "note": 77,
      "start": 4.4404,
      "duration": 0.0629,
      "velocity": 99,
      "chip": "ym2612"
    },
    {
      "channel": 0,
      "note": 57,
      "start": 4.4726,
      "duration": 0.0132,
      "velocity": 91,
      "chip": "ym2612"
    },
    {
      "channel": 0,
      "note": 60,
      "start": 4.4885,
      "duration": 0.0135,
      "velocity": 91,
      "chip": "ym2612"
    },
    {
      "channel": 0,
      "note": 65,
      "start": 4.5051,
      "duration": 0.0289,
      "velocity": 91,
      "chip": "ym2612"
    },
    {
      "channel": 2,
      "note": 81,
      "start": 4.5216,
      "duration": 0.0129,
      "velocity": 99,
      "chip": "ym2612"
    },
    {
      "channel": 3,
      "note": 77,
      "start": 4.5222,
      "duration": 0.0127,
      "velocity": 99,
      "chip": "ym2612"
    },
    {
      "channel": 0,
      "note": 65,
      "start": 4.5397,
      "duration": 0.0299,
      "velocity": 91,
      "chip": "ym2612"
    },
    {
      "channel": 1,
      "note": 93,
      "start": 4.5402,
      "duration": 0.0297,
      "velocity": 99,
      "chip": "ym2612"
    },
    {
      "channel": 2,
      "note": 81,
      "start": 4.5407,
      "duration": 0.0295,
      "velocity": 99,
      "chip": "ym2612"
    },
    {
      "channel": 3,
      "note": 77,
      "start": 4.5412,
      "duration": 0.0292,
      "velocity": 99,
      "chip": "ym2612"
    },
    {
      "channel": 4,
      "note": 91,
      "start": 4.5678,
      "duration": 0.0311,
      "velocity": 99,
      "chip": "ym2612"
    },
    {
      "channel": 0,
      "note": 65,
      "start": 4.5742,
      "duration": 0.029,
      "velocity": 91,
      "chip": "ym2612"
    },
    {
      "channel": 1,
      "note": 91,
      "start": 4.5747,
      "duration": 0.0128,
      "velocity": 99,
      "chip": "ym2612"
    },
    {
      "channel": 2,
      "note": 81,
      "start": 4.5752,
      "duration": 0.063,
      "velocity": 99,
      "chip": "ym2612"
    },
    {
      "channel": 3,
      "note": 77,
      "start": 4.5758,
      "duration": 0.0628,
      "velocity": 99,
      "chip": "ym2612"
    },
    {
      "channel": 1,
      "note": 89,
      "start": 4.5904,
      "duration": 0.013,
      "velocity": 99,
      "chip": "ym2612"
    },
    {
      "channel": 4,
      "note": 93,
      "start": 4.6014,
      "duration": 0.0161,
      "velocity": 99,
      "chip": "ym2612"
    },
    {
      "channel": 0,
      "note": 65,
      "start": 4.6076,
      "duration": 0.03,
      "velocity": 91,
      "chip": "ym2612"
    },
    {
      "channel": 1,
      "note": 88,
      "start": 4.6081,
      "duration": 0.0138,
      "velocity": 99,
      "chip": "ym2612"
    },
    {
      "channel": 4,
      "note": 91,
      "start": 4.62,
      "duration": 0.013,
      "velocity": 99,
      "chip": "ym2612"
    },
    {
      "channel": 1,
      "note": 86,
      "start": 4.6245,
      "duration": 0.0134,
      "velocity": 99,
      "chip": "ym2612"
    },
    {
      "channel": 4,
      "note": 89,
      "start": 4.636,
      "duration": 0.0142,
      "velocity": 99,
      "chip": "ym2612"
    },
    {
      "channel": 0,
      "note": 64,
      "start": 4.6407,
      "duration": 0.0305,
      "velocity": 91,
      "chip": "ym2612"
    },
    {
      "channel": 1,
      "note": 84,
      "start": 4.6412,
      "duration": 0.0188,
      "velocity": 99,
      "chip": "ym2612"
    },
    {
      "channel": 2,
      "note": 79,
      "start": 4.6417,
      "duration": 0.0132,
      "velocity": 99,
      "chip": "ym2612"
    },
    {
      "channel": 3,
      "note": 77,
      "start": 4.6423,
      "duration": 0.0129,
      "velocity": 99,
      "chip": "ym2612"
    },
    {
      "channel": 4,
      "note": 88,
      "start": 4.6528,
      "duration": 0.0132,
      "velocity": 99,
      "chip": "ym2612"
    },
    {
      "channel": 2,
      "note": 79,
      "start": 4.6575,
      "duration": 0.0143,
      "velocity": 99,
      "chip": "ym2612"
    },
    {
      "channel": 3,
      "note": 76,
      "start": 4.658,
      "duration": 0.014,
      "velocity": 99,
      "chip": "ym2612"
    },
    {
      "channel": 1,
      "note": 83,
      "start": 4.6625,
      "duration": 0.0204,
      "velocity": 99,
      "chip": "ym2612"
    },
    {
      "channel": 4,
      "note": 86,
      "start": 4.6686,
      "duration": 0.0206,
      "velocity": 99,
      "chip": "ym2612"
    },
    {
      "channel": 0,
      "note": 64,
      "start": 4.6744,
      "duration": 0.029,
      "velocity": 91,
      "chip": "ym2612"
    },
    {
      "channel": 2,
      "note": 79,
      "start": 4.6751,
      "duration": 0.0134,
      "velocity": 99,
      "chip": "ym2612"
    },
    {
      "channel": 3,
      "note": 76,
      "start": 4.6758,
      "duration": 0.0131,
      "velocity": 99,
      "chip": "ym2612"
    },
    {
      "channel": 1,
      "note": 81,
      "start": 4.6857,
      "duration": 0.0179,
      "velocity": 99,
      "chip": "ym2612"
    },
    {
      "channel": 2,
      "note": 79,
      "start": 4.6913,
      "duration": 0.0126,
      "velocity": 99,
      "chip": "ym2612"
    },
    {
      "channel": 3,
      "note": 76,
      "start": 4.6919,
      "duration": 0.0123,
      "velocity": 99,
      "chip": "ym2612"
    },
    {
      "channel": 4,
      "note": 84,
      "start": 4.6925,
      "duration": 0.0213,
      "velocity": 99,
      "chip": "ym2612"
    },
    {
      "channel": 0,
      "note": 64,
      "start": 4.709,
      "duration": 0.03,
      "velocity": 91,
      "chip": "ym2612"
    },
    {
      "channel": 1,
      "note": 79,
      "start": 4.7095,
      "duration": 0.1248,
      "velocity": 99,
      "chip": "ym2612"
    },
    {
      "channel": 2,
      "note": 79,
      "start": 4.71,
      "duration": 0.0588,
      "velocity": 99,
      "chip": "ym2612"
    },
    {
      "channel": 3,
      "note": 76,
      "start": 4.7106,
      "duration": 0.0585,
      "velocity": 99,
      "chip": "ym2612"
    },
    {
      "channel": 4,
      "note": 83,
      "start": 4.7165,
      "duration": 0.0181,
      "velocity": 99,
      "chip": "ym2612"
    },
    {
      "channel": 4,
      "note": 81,
      "start": 4.7373,
      "duration": 0.1253,
      "velocity": 99,
      "chip": "ym2612"
    },
    {
      "channel": 0,
      "note": 64,
      "start": 4.7415,
      "duration": 0.0268,
      "velocity": 91,
      "chip": "ym2612"
    },
    {
      "channel": 0,
      "note": 64,
      "start": 4.7725,
      "duration": 0.0304,
      "velocity": 91,
      "chip": "ym2612"
    },
    {
      "channel": 2,
      "note": 79,
      "start": 4.7902,
      "duration": 0.0133,
      "velocity": 99,
      "chip": "ym2612"
    },
    {
      "channel": 3,
      "note": 76,
      "start": 4.7908,
      "duration": 0.013,
      "velocity": 99,
      "chip": "ym2612"
    },
    {
      "channel": 0,
      "note": 64,
      "start": 4.8059,
      "duration": 0.0282,
      "velocity": 91,
      "chip": "ym2612"
    },
    {
      "channel": 2,
      "note": 79,
      "start": 4.8066,
      "duration": 0.028,
      "velocity": 99,
      "chip": "ym2612"
    },
    {
      "channel": 3,
      "note": 76,
      "start": 4.8072,
      "duration": 0.0277,
      "velocity": 99,
      "chip": "ym2612"
    },
    {
      "channel": 0,
      "note": 64,
      "start": 4.8372,
      "duration": 0.0298,
      "velocity": 91,
      "chip": "ym2612"
    },
    {
      "channel": 1,
      "note": 76,
      "start": 4.8377,
      "duration": 0.0598,
      "velocity": 99,
      "chip": "ym2612"
    },
    {
      "channel": 2,
      "note": 79,
      "start": 4.8382,
      "duration": 0.0596,
      "velocity": 99,
      "chip": "ym2612"
    },
    {
      "channel": 3,
      "note": 76,
      "start": 4.8388,
      "duration": 0.0594,
      "velocity": 99,
      "chip": "ym2612"
    },
    {
      "channel": 4,
      "note": 79,
      "start": 4.8652,
      "duration": 0.0628,
      "velocity": 99,
      "chip": "ym2612"
    },
    {
      "channel": 0,
      "note": 64,
      "start": 4.8703,
      "duration": 0.0269,
      "velocity": 91,
      "chip": "ym2612"
    },
    {
      "channel": 0,
      "note": 62,
      "start": 4.9021,
      "duration": 0.0305,
      "velocity": 91,
      "chip": "ym2612"
    },
    {
      "channel": 1,
      "note": 77,
      "start": 4.9026,
      "duration": 0.0141,
      "velocity": 99,
      "chip": "ym2612"
    },
    {
      "channel": 2,
      "note": 81,
      "start": 4.9031,
      "duration": 0.0138,
      "velocity": 99,
      "chip": "ym2612"
    },
    {
      "channel": 3,
      "note": 76,
      "start": 4.9037,
      "duration": 0.0136,
      "velocity": 99,
      "chip": "ym2612"
    },
    {
      "channel": 2,
      "note": 81,
      "start": 4.9198,
      "duration": 0.0134,
      "velocity": 99,
      "chip": "ym2612"
    },
    {
      "channel": 3,
      "note": 77,
      "start": 4.9204,
      "duration": 0.0132,
      "velocity": 99,
      "chip": "ym2612"
    },
    {
      "channel": 4,
      "note": 76,
      "start": 4.9306,
      "duration": 0.0291,
      "velocity": 99,
      "chip": "ym2612"
    },
    {
      "channel": 0,
      "note": 62,
      "start": 4.9352,
      "duration": 0.0298,
      "velocity": 91,
      "chip": "ym2612"
    },
    {
      "channel": 1,
      "note": 79,
      "start": 4.9356,
      "duration": 0.0605,
      "velocity": 99,
      "chip": "ym2612"
    },
    {
      "channel": 2,
      "note": 81,
      "start": 4.9367,
      "duration": 0.0124,
      "velocity": 99,
      "chip": "ym2612"
    },
    {
      "channel": 3,
      "note": 77,
      "start": 4.9373,
      "duration": 0.0122,
      "velocity": 99,
      "chip": "ym2612"
    },
    {
      "channel": 2,
      "note": 81,
      "start": 4.9517,
      "duration": 0.0137,
      "velocity": 99,
      "chip": "ym2612"
    },
    {
      "channel": 3,
      "note": 77,
      "start": 4.9523,
      "duration": 0.0134,
      "velocity": 99,
      "chip": "ym2612"
    },
    {
      "channel": 4,
      "note": 77,
      "start": 4.9632,
      "duration": 0.0604,
      "velocity": 99,
      "chip": "ym2612"
    },
    {
      "channel": 0,
      "note": 62,
      "start": 4.9687,
      "duration": 0.0272,
      "velocity": 91,
      "chip": "ym2612"
    },
    {
      "channel": 2,
      "note": 81,
      "start": 4.9694,
      "duration": 0.0592,
      "velocity": 99,
      "chip": "ym2612"
    },
    {
      "channel": 3,
      "note": 77,
      "start": 4.97,
      "duration": 0.0589,
      "velocity": 99,
      "chip": "ym2612"
    },
    {
      "channel": 0,
      "note": 62,
      "start": 4.9984,
      "duration": 0.0296,
      "velocity": 91,
      "chip": "ym2612"
    },
    {
      "channel": 1,
      "note": 81,
      "start": 4.9989,
      "duration": 0.0594,
      "velocity": 99,
      "chip": "ym2612"
    },
    {
      "channel": 4,
      "note": 79,
      "start": 5.0263,
      "duration": 0.0618,
      "velocity": 99,
      "chip": "ym2612"
    },
    {
      "channel": 0,
      "note": 62,
      "start": 5.0307,
      "duration": 0.0273,
      "velocity": 91,
      "chip": "ym2612"
    },
    {
      "channel": 2,
      "note": 81,
      "start": 5.0458,
      "duration": 0.0128,
      "velocity": 99,
      "chip": "ym2612"
    },
    {
      "channel": 3,
      "note": 77,
      "start": 5.0464,
      "duration": 0.0125,
      "velocity": 99,
      "chip": "ym2612"
    },
    {
      "channel": 0,
      "note": 62,
      "start": 5.0634,
      "duration": 0.0291,
      "velocity": 91,
      "chip": "ym2612"
    },
    {
      "channel": 1,
      "note": 83,
      "start": 5.0639,
      "duration": 0.029,
      "velocity": 99,
      "chip": "ym2612"
    },
    {
      "channel": 2,
      "note": 81,
      "start": 5.0644,
      "duration": 0.0287,
      "velocity": 99,
      "chip": "ym2612"
    },
    {
      "channel": 3,
      "note": 77,
      "start": 5.065,
      "duration": 0.0285,
      "velocity": 99,
      "chip": "ym2612"
    },
    {
      "channel": 4,
      "note": 81,
      "start": 5.0907,
      "duration": 0.0307,
      "velocity": 99,
      "chip": "ym2612"
    },
    {
      "channel": 0,
      "note": 62,
      "start": 5.0974,
      "duration": 0.0285,
      "velocity": 91,
      "chip": "ym2612"
    },
    {
      "channel": 1,
      "note": 84,
      "start": 5.0979,
      "duration": 0.0282,
      "velocity": 99,
      "chip": "ym2612"
    },
    {
      "channel": 2,
      "note": 81,
      "start": 5.0985,
      "duration": 0.0621,
      "velocity": 99,
      "chip": "ym2612"
    },
    {
      "channel": 3,
      "note": 77,
      "start": 5.099,
      "duration": 0.0619,
      "velocity": 99,
      "chip": "ym2612"
    },
    {
      "channel": 4,
      "note": 83,
      "start": 5.124,
      "duration": 0.0317,
      "velocity": 99,
      "chip": "ym2612"
    },
    {
      "channel": 0,
      "note": 62,
      "start": 5.131,
      "duration": 0.0291,
      "velocity": 91,
      "chip": "ym2612"
    },
    {
      "channel": 1,
      "note": 86,
      "start": 5.1315,
      "duration": 0.0289,
      "velocity": 99,
      "chip": "ym2612"
    },
    {
      "channel": 4,
      "note": 84,
      "start": 5.1583,
      "duration": 0.0362,
      "velocity": 99,
      "chip": "ym2612"
    },
    {
      "channel": 0,
      "note": 64,
      "start": 5.1629,
      "duration": 0.0191,
      "velocity": 91,
      "chip": "ym2612"
    },
    {
      "channel": 1,
      "note": 91,
      "start": 5.1634,
      "duration": 0.0189,
      "velocity": 99,
      "chip": "ym2612"
    },
    {
      "channel": 2,
      "note": 86,
      "start": 5.1664,
      "duration": 0.0162,
      "velocity": 99,
      "chip": "ym2612"
    },
    {
      "channel": 3,
      "note": 77,
      "start": 5.1706,
      "duration": 0.0123,
      "velocity": 99,
      "chip": "ym2612"
    },
    {
      "channel": 0,
      "note": 64,
      "start": 5.1848,
      "duration": 0.0142,
      "velocity": 91,
      "chip": "ym2612"
    },
    {
      "channel": 1,
      "note": 91,
      "start": 5.1853,
      "duration": 0.014,
      "velocity": 99,
      "chip": "ym2612"
    },
    {
      "channel": 2,
      "note": 86,
      "start": 5.1858,
      "duration": 0.0138,
      "velocity": 99,
      "chip": "ym2612"
    },
    {
      "channel": 3,
      "note": 83,
      "start": 5.1864,
      "duration": 0.0135,
      "velocity": 99,
      "chip": "ym2612"
    },
    {
      "channel": 4,
      "note": 86,
      "start": 5.1975,
      "duration": 0.014,
      "velocity": 99,
      "chip": "ym2612"
    },
    {
      "channel": 4,
      "note": 91,
      "start": 5.2139,
      "duration": 0.0136,
      "velocity": 99,
      "chip": "ym2612"
    },
    {
      "channel": 0,
      "note": 52,
      "start": 5.269,
      "duration": 0.0816,
      "velocity": 91,
      "chip": "ym2612"
    },
    {
      "channel": 1,
      "note": 92,
      "start": 5.2695,
      "duration": 0.0813,
      "velocity": 99,
      "chip": "ym2612"
    },
    {
      "channel": 2,
      "note": 86,
      "start": 5.2699,
      "duration": 0.1747,
      "velocity": 99,
      "chip": "ym2612"
    },
    {
      "channel": 3,
      "note": 83,
      "start": 5.2705,
      "duration": 0.1745,
      "velocity": 99,
      "chip": "ym2612"
    },
    {
      "channel": 4,
      "note": 91,
      "start": 5.2959,
      "duration": 0.2117,
      "velocity": 99,
      "chip": "ym2612"
    },
    {
      "channel": 0,
      "note": 64,
      "start": 5.3666,
      "duration": 0.0776,
      "velocity": 91,
      "chip": "ym2612"
    },
    {
      "channel": 0,
      "note": 52,
      "start": 5.46,
      "duration": 0.1723,
      "velocity": 91,
      "chip": "ym2612"
    },
    {
      "channel": 2,
      "note": 88,
      "start": 5.4624,
      "duration": 0.0759,
      "velocity": 99,
      "chip": "ym2612"
    },
    {
      "channel": 3,
      "note": 83,
      "start": 5.4661,
      "duration": 0.0726,
      "velocity": 99,
      "chip": "ym2612"
    },
    {
      "channel": 2,
      "note": 88,
      "start": 5.5541,
      "duration": 0.0786,
      "velocity": 99,
      "chip": "ym2612"
    },
    {
      "channel": 3,
      "note": 76,
      "start": 5.5547,
      "duration": 0.0784,
      "velocity": 99,
      "chip": "ym2612"
    },
    {
      "channel": 0,
      "note": 52,
      "start": 5.6474,
      "duration": 0.03,
      "velocity": 91,
      "chip": "ym2612"
    },
    {
      "channel": 1,
      "note": 88,
      "start": 5.6479,
      "duration": 0.0623,
      "velocity": 99,
      "chip": "ym2612"
    },
    {
      "channel": 2,
      "note": 88,
      "start": 5.649,
      "duration": 0.0289,
      "velocity": 99,
      "chip": "ym2612"
    },
    {
      "channel": 3,
      "note": 76,
      "start": 5.6495,
      "duration": 0.0286,
      "velocity": 99,
      "chip": "ym2612"
    },
    {
      "channel": 4,
      "note": 92,
      "start": 5.6756,
      "duration": 0.0673,
      "velocity": 99,
      "chip": "ym2612"
    },
    {
      "channel": 0,
      "note": 52,
      "start": 5.6825,
      "duration": 0.0274,
      "velocity": 91,
      "chip": "ym2612"
    },
    {
      "channel": 2,
      "note": 88,
      "start": 5.6832,
      "duration": 0.0272,
      "velocity": 99,
      "chip": "ym2612"
    },
    {
      "channel": 3,
      "note": 76,
      "start": 5.6838,
      "duration": 0.027,
      "velocity": 99,
      "chip": "ym2612"
    },
    {
      "channel": 0,
      "note": 53,
      "start": 5.7162,
      "duration": 0.0312,
      "velocity": 91,
      "chip": "ym2612"
    },
    {
      "channel": 1,
      "note": 93,
      "start": 5.7167,
      "duration": 0.0617,
      "velocity": 99,
      "chip": "ym2612"
    },
    {
      "channel": 2,
      "note": 65,
      "start": 5.7174,
      "duration": 0.2568,
      "velocity": 99,
      "chip": "ym2612"
    },
    {
      "channel": 3,
      "note": 76,
      "start": 5.7183,
      "duration": 0.2563,
      "velocity": 99,
      "chip": "ym2612"
    },
    {
      "channel": 4,
      "note": 88,
      "start": 5.7456,
      "duration": 0.0617,
      "velocity": 99,
      "chip": "ym2612"
    },
    {
      "channel": 0,
      "note": 65,
      "start": 5.7499,
      "duration": 0.0282,
      "velocity": 91,
      "chip": "ym2612"
    },
    {
      "channel": 0,
      "note": 53,
      "start": 5.783,
      "duration": 0.0285,
      "velocity": 91,
      "chip": "ym2612"
    },
    {
      "channel": 0,
      "note": 65,
      "start": 5.8142,
      "duration": 0.0295,
      "velocity": 91,
      "chip": "ym2612"
    },
    {
      "channel": 1,
      "note": 77,
      "start": 5.8147,
      "duration": 0.0293,
      "velocity": 99,
      "chip": "ym2612"
    },
    {
      "channel": 4,
      "note": 93,
      "start": 5.8421,
      "duration": 0.0312,
      "velocity": 99,
      "chip": "ym2612"
    },
    {
      "channel": 0,
      "note": 53,
      "start": 5.8484,
      "duration": 0.0292,
      "velocity": 91,
      "chip": "ym2612"
    },
    {
      "channel": 1,
      "note": 79,
      "start": 5.8489,
      "duration": 0.0289,
      "velocity": 99,
      "chip": "ym2612"
    },
    {
      "channel": 4,
      "note": 77,
      "start": 5.8759,
      "duration": 0.0297,
      "velocity": 99,
      "chip": "ym2612"
    },
    {
      "channel": 0,
      "note": 65,
      "start": 5.8803,
      "duration": 0.0298,
      "velocity": 91,
      "chip": "ym2612"
    },
    {
      "channel": 1,
      "note": 81,
      "start": 5.8808,
      "duration": 0.0295,
      "velocity": 99,
      "chip": "ym2612"
    },
    {
      "channel": 4,
      "note": 79,
      "start": 5.9085,
      "duration": 0.0285,
      "velocity": 99,
      "chip": "ym2612"
    },
    {
      "channel": 0,
      "note": 53,
      "start": 5.9128,
      "duration": 0.0285,
      "velocity": 91,
      "chip": "ym2612"
    },
    {
      "channel": 1,
      "note": 84,
      "start": 5.9133,
      "duration": 0.0283,
      "velocity": 99,
      "chip": "ym2612"
    },
    {
      "channel": 4,
      "note": 81,
      "start": 5.9397,
      "duration": 0.0296,
      "velocity": 99,
      "chip": "ym2612"
    },
    {
      "channel": 0,
      "note": 65,
      "start": 5.9441,
      "duration": 0.0296,
      "velocity": 91,
      "chip": "ym2612"
    },
    {
      "channel": 1,
      "note": 89,
      "start": 5.9446,
      "duration": 0.0293,
      "velocity": 99,
      "chip": "ym2612"
    },
    {
      "channel": 4,
      "note": 84,
      "start": 5.9721,
      "duration": 0.031,
      "velocity": 99,
      "chip": "ym2612"
    },
    {
      "channel": 0,
      "note": 60,
      "start": 5.9785,
      "duration": 0.0291,
      "velocity": 91,
      "chip": "ym2612"
    },
    {
      "channel": 1,
      "note": 88,
      "start": 5.979,
      "duration": 0.1936,
      "velocity": 99,
      "chip": "ym2612"
    },
    {
      "channel": 2,
      "note": 72,
      "start": 5.9795,
      "duration": 0.2609,
      "velocity": 99,
      "chip": "ym2612"
    },
    {
      "channel": 3,
      "note": 72,
      "start": 5.98,
      "duration": 0.2607,
      "velocity": 99,
      "chip": "ym2612"
    },
    {
      "channel": 4,
      "note": 89,
      "start": 6.0058,
      "duration": 0.1976,
      "velocity": 99,
      "chip": "ym2612"
    },
    {
      "channel": 0,
      "note": 72,
      "start": 6.0111,
      "duration": 0.0275,
      "velocity": 91,
      "chip": "ym2612"
    },
    {
      "channel": 0,
      "note": 60,
      "start": 6.0432,
      "duration": 0.0298,
      "velocity": 91,
      "chip": "ym2612"
    },
    {
      "channel": 0,
      "note": 72,
      "start": 6.076,
      "duration": 0.0295,
      "velocity": 91,
      "chip": "ym2612"
    },
    {
      "channel": 0,
      "note": 60,
      "start": 6.1081,
      "duration": 0.0302,
      "velocity": 91,
      "chip": "ym2612"
    },
    {
      "channel": 0,
      "note": 72,
      "start": 6.1433,
      "duration": 0.029,
      "velocity": 91,
      "chip": "ym2612"
    },
    {
      "channel": 0,
      "note": 60,
      "start": 6.1781,
      "duration": 0.0298,
      "velocity": 91,
      "chip": "ym2612"
    },
    {
      "channel": 1,
      "note": 84,
      "start": 6.1786,
      "duration": 0.0615,
      "velocity": 99,
      "chip": "ym2612"
    },
    {
      "channel": 4,
      "note": 88,
      "start": 6.2064,
      "duration": 0.0659,
      "velocity": 99,
      "chip": "ym2612"
    },
    {
      "channel": 0,
      "note": 72,
      "start": 6.2112,
      "duration": 0.0287,
      "velocity": 91,
      "chip": "ym2612"
    },
    {
      "channel": 0,
      "note": 53,
      "start": 6.246,
      "duration": 0.0306,
      "velocity": 91,
      "chip": "ym2612"
    },
    {
      "channel": 1,
      "note": 93,
      "start": 6.2464,
      "duration": 0.0615,
      "velocity": 99,
      "chip": "ym2612"
    },
    {
      "channel": 2,
      "note": 65,
      "start": 6.2471,
      "duration": 0.2613,
      "velocity": 99,
      "chip": "ym2612"
    },
    {
      "channel": 3,
      "note": 79,
      "start": 6.2479,
      "duration": 0.2609,
      "velocity": 99,
      "chip": "ym2612"
    },
    {
      "channel": 4,
      "note": 84,
      "start": 6.2749,
      "duration": 0.0627,
      "velocity": 99,
      "chip": "ym2612"
    },
    {
      "channel": 0,
      "note": 65,
      "start": 6.2791,
      "duration": 0.0286,
      "velocity": 91,
      "chip": "ym2612"
    },
    {
      "channel": 0,
      "note": 53,
      "start": 6.313,
      "duration": 0.0288,
      "velocity": 91,
      "chip": "ym2612"
    },
    {
      "channel": 0,
      "note": 65,
      "start": 6.3448,
      "duration": 0.0294,
      "velocity": 91,
      "chip": "ym2612"
    },
    {
      "channel": 1,
      "note": 77,
      "start": 6.3453,
      "duration": 0.0292,
      "velocity": 99,
      "chip": "ym2612"
    },
    {
      "channel": 4,
      "note": 93,
      "start": 6.3724,
      "duration": 0.0317,
      "velocity": 99,
      "chip": "ym2612"
    },
    {
      "channel": 0,
      "note": 53,
      "start": 6.3795,
      "duration": 0.029,
      "velocity": 91,
      "chip": "ym2612"
    },
    {
      "channel": 1,
      "note": 79,
      "start": 6.38,
      "duration": 0.0288,
      "velocity": 99,
      "chip": "ym2612"
    },
    {
      "channel": 4,
      "note": 77,
      "start": 6.4067,
      "duration": 0.0303,
      "velocity": 99,
      "chip": "ym2612"
    },
    {
      "channel": 0,
      "note": 65,
      "start": 6.4114,
      "duration": 0.0301,
      "velocity": 91,
      "chip": "ym2612"
    },
    {
      "channel": 1,
      "note": 81,
      "start": 6.4119,
      "duration": 0.0298,
      "velocity": 99,
      "chip": "ym2612"
    },
    {
      "channel": 4,
      "note": 79,
      "start": 6.4398,
      "duration": 0.0315,
      "velocity": 99,
      "chip": "ym2612"
    },
    {
      "channel": 0,
      "note": 53,
      "start": 6.4471,
      "duration": 0.0291,
      "velocity": 91,
      "chip": "ym2612"
    },
    {
      "channel": 1,
      "note": 84,
      "start": 6.4476,
      "duration": 0.0289,
      "velocity": 99,
      "chip": "ym2612"
    },
    {
      "channel": 4,
      "note": 81,
      "start": 6.4742,
      "duration": 0.0292,
      "velocity": 99,
      "chip": "ym2612"
    },
    {
      "channel": 0,
      "note": 65,
      "start": 6.4789,
      "duration": 0.029,
      "velocity": 91,
      "chip": "ym2612"
    },
    {
      "channel": 1,
      "note": 93,
      "start": 6.4794,
      "duration": 0.0288,
      "velocity": 99,
      "chip": "ym2612"
    },
    {
      "channel": 4,
      "note": 84,
      "start": 6.5061,
      "duration": 0.0315,
      "velocity": 99,
      "chip": "ym2612"
    },
    {
      "channel": 0,
      "note": 60,
      "start": 6.5128,
      "duration": 0.0291,
      "velocity": 91,
      "chip": "ym2612"
    },
    {
      "channel": 1,
      "note": 91,
      "start": 6.5139,
      "duration": 0.2613,
      "velocity": 99,
      "chip": "ym2612"
    },
    {
      "channel": 2,
      "note": 72,
      "start": 6.5144,
      "duration": 0.2611,
      "velocity": 99,
      "chip": "ym2612"
    },
    {
      "channel": 3,
      "note": 72,
      "start": 6.515,
      "duration": 0.2609,
      "velocity": 99,
      "chip": "ym2612"
    },
    {
      "channel": 4,
      "note": 93,
      "start": 6.5403,
      "duration": 0.2667,
      "velocity": 99,
      "chip": "ym2612"
    },
    {
      "channel": 0,
      "note": 72,
      "start": 6.5454,
      "duration": 0.0279,
      "velocity": 91,
      "chip": "ym2612"
    },
    {
      "channel": 0,
      "note": 60,
      "start": 6.5771,
      "duration": 0.0302,
      "velocity": 91,
      "chip": "ym2612"
    },
    {
      "channel": 0,
      "note": 72,
      "start": 6.6107,
      "duration": 0.0284,
      "velocity": 91,
      "chip": "ym2612"
    },
    {
      "channel": 0,
      "note": 60,
      "start": 6.6421,
      "duration": 0.0297,
      "velocity": 91,
      "chip": "ym2612"
    },
    {
      "channel": 0,
      "note": 72,
      "start": 6.6771,
      "duration": 0.0298,
      "velocity": 91,
      "chip": "ym2612"
    },
    {
      "channel": 0,
      "note": 60,
      "start": 6.7123,
      "duration": 0.0303,
      "velocity": 91,
      "chip": "ym2612"
    },
    {
      "channel": 0,
      "note": 72,
      "start": 6.7458,
      "duration": 0.0291,
      "velocity": 91,
      "chip": "ym2612"
    },
    {
      "channel": 0,
      "note": 52,
      "start": 6.781,
      "duration": 0.0301,
      "velocity": 91,
      "chip": "ym2612"
    },
    {
      "channel": 1,
      "note": 92,
      "start": 6.7815,
      "duration": 0.0149,
      "velocity": 99,
      "chip": "ym2612"
    },
    {
      "channel": 1,
      "note": 93,
      "start": 6.799,
      "duration": 0.0124,
      "velocity": 99,
      "chip": "ym2612"
    },
    {
      "channel": 4,
      "note": 91,
      "start": 6.8096,
      "duration": 0.0137,
      "velocity": 99,
      "chip": "ym2612"
    },
    {
      "channel": 0,
      "note": 64,
      "start": 6.8138,
      "duration": 0.03,
      "velocity": 91,
      "chip": "ym2612"
    },
    {
      "channel": 1,
      "note": 95,
      "start": 6.8143,
      "duration": 0.1247,
      "velocity": 99,
      "chip": "ym2612"
    },
    {
      "channel": 2,
      "note": 88,
      "start": 6.8148,
      "duration": 0.0132,
      "velocity": 99,
      "chip": "ym2612"
    },
    {
      "channel": 3,
      "note": 79,
      "start": 6.8154,
      "duration": 0.0129,
      "velocity": 99,
      "chip": "ym2612"
    },
    {
      "channel": 4,
      "note": 92,
      "start": 6.8259,
      "duration": 0.0129,
      "velocity": 99,
      "chip": "ym2612"
    },
    {
      "channel": 2,
      "note": 88,
      "start": 6.8306,
      "duration": 0.0137,
      "velocity": 99,
      "chip": "ym2612"
    },
    {
      "channel": 3,
      "note": 80,
      "start": 6.8312,
      "duration": 0.0135,
      "velocity": 99,
      "chip": "ym2612"
    },
    {
      "channel": 4,
      "note": 93,
      "start": 6.8415,
      "duration": 0.1262,
      "velocity": 99,
      "chip": "ym2612"
    },
    {
      "channel": 0,
      "note": 54,
      "start": 6.8466,
      "duration": 0.0275,
      "velocity": 91,
      "chip": "ym2612"
    },
    {
      "channel": 0,
      "note": 66,
      "start": 6.877,
      "duration": 0.0302,
      "velocity": 91,
      "chip": "ym2612"
    },
    {
      "channel": 2,
      "note": 88,
      "start": 6.8777,
      "duration": 0.0124,
      "velocity": 99,
      "chip": "ym2612"
    },
    {
      "channel": 3,
      "note": 80,
      "start": 6.8783,
      "duration": 0.0122,
      "velocity": 99,
      "chip": "ym2612"
    },
    {
      "channel": 2,
      "note": 88,
      "start": 6.8929,
      "duration": 0.0148,
      "velocity": 99,
      "chip": "ym2612"
    },
    {
      "channel": 3,
      "note": 80,
      "start": 6.8934,
      "duration": 0.0146,
      "velocity": 99,
      "chip": "ym2612"
    },
    {
      "channel": 0,
      "note": 55,
      "start": 6.91,
      "duration": 0.0288,
      "velocity": 91,
      "chip": "ym2612"
    },
    {
      "channel": 2,
      "note": 88,
      "start": 6.9263,
      "duration": 0.013,
      "velocity": 99,
      "chip": "ym2612"
    },
    {
      "channel": 3,
      "note": 80,
      "start": 6.9269,
      "duration": 0.0127,
      "velocity": 99,
      "chip": "ym2612"
    },
    {
      "channel": 0,
      "note": 67,
      "start": 6.9414,
      "duration": 0.0306,
      "velocity": 91,
      "chip": "ym2612"
    },
    {
      "channel": 1,
      "note": 88,
      "start": 6.9425,
      "duration": 0.0298,
      "velocity": 99,
      "chip": "ym2612"
    },
    {
      "channel": 2,
      "note": 88,
      "start": 6.943,
      "duration": 0.0127,
      "velocity": 99,
      "chip": "ym2612"
    },
    {
      "channel": 3,
      "note": 80,
      "start": 6.9435,
      "duration": 0.0124,
      "velocity": 99,
      "chip": "ym2612"
    },
    {
      "channel": 2,
      "note": 88,
      "start": 6.9592,
      "duration": 0.0133,
      "velocity": 99,
      "chip": "ym2612"
    },
    {
      "channel": 3,
      "note": 80,
      "start": 6.9598,
      "duration": 0.013,
      "velocity": 99,
      "chip": "ym2612"
    },
    {
      "channel": 4,
      "note": 95,
      "start": 6.9702,
      "duration": 0.0302,
      "velocity": 99,
      "chip": "ym2612"
    },
    {
      "channel": 0,
      "note": 56,
      "start": 6.9766,
      "duration": 0.0283,
      "velocity": 91,
      "chip": "ym2612"
    },
    {
      "channel": 1,
      "note": 86,
      "start": 6.9771,
      "duration": 0.0281,
      "velocity": 99,
      "chip": "ym2612"
    },
    {
      "channel": 4,
      "note": 88,
      "start": 7.0032,
      "duration": 0.0297,
      "velocity": 99,
      "chip": "ym2612"
    },
    {
      "channel": 0,
      "note": 68,
      "start": 7.0078,
      "duration": 0.03,
      "velocity": 91,
      "chip": "ym2612"
    },
    {
      "channel": 1,
      "note": 88,
      "start": 7.0083,
      "duration": 0.0297,
      "velocity": 99,
      "chip": "ym2612"
    },
    {
      "channel": 2,
      "note": 88,
      "start": 7.0088,
      "duration": 0.0129,
      "velocity": 99,
      "chip": "ym2612"
    },
    {
      "channel": 3,
      "note": 80,
      "start": 7.0094,
      "duration": 0.0127,
      "velocity": 99,
      "chip": "ym2612"
    },
    {
      "channel": 2,
      "note": 88,
      "start": 7.0244,
      "duration": 0.0139,
      "velocity": 99,
      "chip": "ym2612"
    },
    {
      "channel": 3,
      "note": 80,
      "start": 7.025,
      "duration": 0.0136,
      "velocity": 99,
      "chip": "ym2612"
    },
    {
      "channel": 4,
      "note": 86,
      "start": 7.036,
      "duration": 0.0313,
      "velocity": 99,
      "chip": "ym2612"
    },
    {
      "channel": 0,
      "note": 57,
      "start": 7.043,
      "duration": 0.0286,
      "velocity": 91,
      "chip": "ym2612"
    },
    {
      "channel": 1,
      "note": 93,
      "start": 7.0435,
      "duration": 0.0283,
      "velocity": 99,
      "chip": "ym2612"
    },
    {
      "channel": 4,
      "note": 88,
      "start": 7.0702,
      "duration": 0.0301,
      "velocity": 99,
      "chip": "ym2612"
    },
    {
      "channel": 0,
      "note": 69,
      "start": 7.0747,
      "duration": 0.0299,
      "velocity": 91,
      "chip": "ym2612"
    },
    {
      "channel": 1,
      "note": 88,
      "start": 7.0751,
      "duration": 0.0296,
      "velocity": 99,
      "chip": "ym2612"
    },
    {
      "channel": 2,
      "note": 88,
      "start": 7.0756,
      "duration": 0.0137,
      "velocity": 99,
      "chip": "ym2612"
    },
    {
      "channel": 3,
      "note": 80,
      "start": 7.0778,
      "duration": 0.0117,
      "velocity": 99,
      "chip": "ym2612"
    },
    {
      "channel": 2,
      "note": 88,
      "start": 7.0922,
      "duration": 0.0129,
      "velocity": 99,
      "chip": "ym2612"
    },
    {
      "channel": 3,
      "note": 81,
      "start": 7.0927,
      "duration": 0.0126,
      "velocity": 99,
      "chip": "ym2612"
    },
    {
      "channel": 4,
      "note": 93,
      "start": 7.1029,
      "duration": 0.031,
      "velocity": 99,
      "chip": "ym2612"
    },
    {
      "channel": 0,
      "note": 59,
      "start": 7.1098,
      "duration": 0.0293,
      "velocity": 91,
      "chip": "ym2612"
    },
    {
      "channel": 1,
      "note": 86,
      "start": 7.1103,
      "duration": 0.029,
      "velocity": 99,
      "chip": "ym2612"
    },
    {
      "channel": 4,
      "note": 88,
      "start": 7.1375,
      "duration": 0.0308,
      "velocity": 99,
      "chip": "ym2612"
    },
    {
      "channel": 0,
      "note": 71,
      "start": 7.1433,
      "duration": 0.0293,
      "velocity": 91,
      "chip": "ym2612"
    },
    {
      "channel": 1,
      "note": 84,
      "start": 7.1438,
      "duration": 0.0933,
      "velocity": 99,
      "chip": "ym2612"
    },
    {
      "channel": 2,
      "note": 88,
      "start": 7.1443,
      "duration": 0.0128,
      "velocity": 99,
      "chip": "ym2612"
    },
    {
      "channel": 3,
      "note": 81,
      "start": 7.1449,
      "duration": 0.0125,
      "velocity": 99,
      "chip": "ym2612"
    },
    {
      "channel": 2,
      "note": 88,
      "start": 7.1601,
      "duration": 0.013,
      "velocity": 99,
      "chip": "ym2612"
    },
    {
      "channel": 3,
      "note": 81,
      "start": 7.1607,
      "duration": 0.0127,
      "velocity": 99,
      "chip": "ym2612"
    },
    {
      "channel": 4,
      "note": 86,
      "start": 7.1711,
      "duration": 0.0963,
      "velocity": 99,
      "chip": "ym2612"
    },
    {
      "channel": 0,
      "note": 60,
      "start": 7.1754,
      "duration": 0.0291,
      "velocity": 91,
      "chip": "ym2612"
    },
    {
      "channel": 2,
      "note": 88,
      "start": 7.191,
      "duration": 0.0141,
      "velocity": 99,
      "chip": "ym2612"
    },
    {
      "channel": 3,
      "note": 81,
      "start": 7.1916,
      "duration": 0.0138,
      "velocity": 99,
      "chip": "ym2612"
    },
    {
      "channel": 0,
      "note": 72,
      "start": 7.2079,
      "duration": 0.0289,
      "velocity": 91,
      "chip": "ym2612"
    },
    {
      "channel": 2,
      "note": 88,
      "start": 7.2087,
      "duration": 0.0131,
      "velocity": 99,
      "chip": "ym2612"
    },
    {
      "channel": 3,
      "note": 81,
      "start": 7.2093,
      "duration": 0.0128,
      "velocity": 99,
      "chip": "ym2612"
    },
    {
      "channel": 2,
      "note": 88,
      "start": 7.2245,
      "duration": 0.0129,
      "velocity": 99,
      "chip": "ym2612"
    },
    {
      "channel": 3,
      "note": 81,
      "start": 7.2251,
      "duration": 0.0127,
      "velocity": 99,
      "chip": "ym2612"
    },
    {
      "channel": 0,
      "note": 57,
      "start": 7.2421,
      "duration": 0.0295,
      "velocity": 91,
      "chip": "ym2612"
    },
    {
      "channel": 1,
      "note": 81,
      "start": 7.2426,
      "duration": 0.0616,
      "velocity": 99,
      "chip": "ym2612"
    },
    {
      "channel": 4,
      "note": 84,
      "start": 7.27,
      "duration": 0.0634,
      "velocity": 99,
      "chip": "ym2612"
    },
    {
      "channel": 0,
      "note": 69,
      "start": 7.2752,
      "duration": 0.0287,
      "velocity": 91,
      "chip": "ym2612"
    },
    {
      "channel": 2,
      "note": 88,
      "start": 7.2759,
      "duration": 0.0132,
      "velocity": 99,
      "chip": "ym2612"
    },
    {
      "channel": 3,
      "note": 81,
      "start": 7.2765,
      "duration": 0.0131,
      "velocity": 99,
      "chip": "ym2612"
    },
    {
      "channel": 2,
      "note": 88,
      "start": 7.2917,
      "duration": 0.0128,
      "velocity": 99,
      "chip": "ym2612"
    },
    {
      "channel": 3,
      "note": 81,
      "start": 7.2922,
      "duration": 0.0126,
      "velocity": 99,
      "chip": "ym2612"
    },
    {
      "channel": 0,
      "note": 50,
      "start": 7.307,
      "duration": 0.0314,
      "velocity": 91,
      "chip": "ym2612"
    },
    {
      "channel": 1,
      "note": 89,
      "start": 7.3075,
      "duration": 0.1509,
      "velocity": 99,
      "chip": "ym2612"
    },
    {
      "channel": 2,
      "note": 69,
      "start": 7.3083,
      "duration": 0.0305,
      "velocity": 99,
      "chip": "ym2612"
    },
    {
      "channel": 3,
      "note": 81,
      "start": 7.3358,
      "duration": 0.0281,
      "velocity": 99,
      "chip": "ym2612"
    },
    {
      "channel": 4,
      "note": 81,
      "start": 7.3364,
      "duration": 0.1491,
      "velocity": 99,
      "chip": "ym2612"
    },
    {
      "channel": 0,
      "note": 62,
      "start": 7.3412,
      "duration": 0.0284,
      "velocity": 91,
      "chip": "ym2612"
    },
    {
      "channel": 2,
      "note": 74,
      "start": 7.342,
      "duration": 0.0282,
      "velocity": 99,
      "chip": "ym2612"
    },
    {
      "channel": 3,
      "note": 69,
      "start": 7.3667,
      "duration": 0.0311,
      "velocity": 99,
      "chip": "ym2612"
    },
    {
      "channel": 0,
      "note": 50,
      "start": 7.3739,
      "duration": 0.0286,
      "velocity": 91,
      "chip": "ym2612"
    },
    {
      "channel": 2,
      "note": 76,
      "start": 7.3751,
      "duration": 0.0279,
      "velocity": 99,
      "chip": "ym2612"
    },
    {
      "channel": 3,
      "note": 74,
      "start": 7.4005,
      "duration": 0.0297,
      "velocity": 99,
      "chip": "ym2612"
    },
    {
      "channel": 0,
      "note": 62,
      "start": 7.4053,
      "duration": 0.0295,
      "velocity": 91,
      "chip": "ym2612"
    },
    {
      "channel": 2,
      "note": 77,
      "start": 7.4061,
      "duration": 0.0293,
      "velocity": 99,
      "chip": "ym2612"
    },
    {
      "channel": 3,
      "note": 76,
      "start": 7.4329,
      "duration": 0.0312,
      "velocity": 99,
      "chip": "ym2612"
    },
    {
      "channel": 0,
      "note": 50,
      "start": 7.4398,
      "duration": 0.0293,
      "velocity": 91,
      "chip": "ym2612"
    },
    {
      "channel": 2,
      "note": 81,
      "start": 7.4405,
      "duration": 0.1252,
      "velocity": 99,
      "chip": "ym2612"
    },
    {
      "channel": 1,
      "note": 86,
      "start": 7.4608,
      "duration": 0.0186,
      "velocity": 99,
      "chip": "ym2612"
    },
    {
      "channel": 3,
      "note": 77,
      "start": 7.4671,
      "duration": 0.1272,
      "velocity": 99,
      "chip": "ym2612"
    },
    {
      "channel": 0,
      "note": 62,
      "start": 7.4717,
      "duration": 0.0287,
      "velocity": 91,
      "chip": "ym2612"
    },
    {
      "channel": 1,
      "note": 84,
      "start": 7.4821,
      "duration": 0.0185,
      "velocity": 99,
      "chip": "ym2612"
    },
    {
      "channel": 4,
      "note": 89,
      "start": 7.4891,
      "duration": 0.0196,
      "velocity": 99,
      "chip": "ym2612"
    },
    {
      "channel": 0,
      "note": 50,
      "start": 7.5043,
      "duration": 0.0286,
      "velocity": 91,
      "chip": "ym2612"
    },
    {
      "channel": 1,
      "note": 83,
      "start": 7.5048,
      "duration": 0.0284,
      "velocity": 99,
      "chip": "ym2612"
    },
    {
      "channel": 4,
      "note": 86,
      "start": 7.5114,
      "duration": 0.0171,
      "velocity": 99,
      "chip": "ym2612"
    },
    {
      "channel": 4,
      "note": 84,
      "start": 7.5314,
      "duration": 0.0294,
      "velocity": 99,
      "chip": "ym2612"
    },
    {
      "channel": 0,
      "note": 62,
      "start": 7.5356,
      "duration": 0.0296,
      "velocity": 91,
      "chip": "ym2612"
    },
    {
      "channel": 1,
      "note": 84,
      "start": 7.5362,
      "duration": 0.0293,
      "velocity": 99,
      "chip": "ym2612"
    },
    {
      "channel": 4,
      "note": 83,
      "start": 7.5635,
      "duration": 0.0312,
      "velocity": 99,
      "chip": "ym2612"
    },
    {
      "channel": 0,
      "note": 52,
      "start": 7.5698,
      "duration": 0.0294,
      "velocity": 91,
      "chip": "ym2612"
    },
    {
      "channel": 1,
      "note": 83,
      "start": 7.5702,
      "duration": 0.0292,
      "velocity": 99,
      "chip": "ym2612"
    },
    {
      "channel": 2,
      "note": 80,
      "start": 7.5707,
      "duration": 0.029,
      "velocity": 99,
      "chip": "ym2612"
    },
    {
      "channel": 3,
      "note": 81,
      "start": 7.597,
      "duration": 0.003,
      "velocity": 99,
      "chip": "ym2612"
    },
    {
      "channel": 4,
      "note": 84,
      "start": 7.5976,
      "duration": 0.0294,
      "velocity": 99,
      "chip": "ym2612"
    },
    {
      "channel": 0,
      "note": 64,
      "start": 7.6019,
      "duration": 0.0295,
      "velocity": 91,
      "chip": "ym2612"
    },
    {
      "channel": 1,
      "note": 76,
      "start": 7.6024,
      "duration": 0.0293,
      "velocity": 99,
      "chip": "ym2612"
    },
    {
      "channel": 2,
      "note": 71,
      "start": 7.6031,
      "duration": 0.0289,
      "velocity": 99,
      "chip": "ym2612"
    },
    {
      "channel": 3,
      "note": 80,
      "start": 7.6039,
      "duration": 0.0283,
      "velocity": 99,
      "chip": "ym2612"
    },
    {
      "channel": 4,
      "note": 83,
      "start": 7.6301,
      "duration": 0.0302,
      "velocity": 99,
      "chip": "ym2612"
    },
    {
      "channel": 0,
      "note": 52,
      "start": 7.6368,
      "duration": 0.0283,
      "velocity": 91,
      "chip": "ym2612"
    },
    {
      "channel": 0,
      "note": 64,
      "start": 7.6694,
      "duration": 0.0289,
      "velocity": 91,
      "chip": "ym2612"
    },
    {
      "channel": 1,
      "note": 76,
      "start": 7.6699,
      "duration": 0.0287,
      "velocity": 99,
      "chip": "ym2612"
    },
    {
      "channel": 2,
      "note": 71,
      "start": 7.6704,
      "duration": 0.0284,
      "velocity": 99,
      "chip": "ym2612"
    },
    {
      "channel": 3,
      "note": 64,
      "start": 7.671,
      "duration": 0.0281,
      "velocity": 99,
      "chip": "ym2612"
    },
    {
      "channel": 4,
      "note": 76,
      "start": 7.6967,
      "duration": 0.0287,
      "velocity": 99,
      "chip": "ym2612"
    },
    {
      "channel": 0,
      "note": 52,
      "start": 7.701,
      "duration": 0.0284,
      "velocity": 91,
      "chip": "ym2612"
    },
    {
      "channel": 0,
      "note": 64,
      "start": 7.7339,
      "duration": 0.029,
      "velocity": 91,
      "chip": "ym2612"
    },
    {
      "channel": 1,
      "note": 76,
      "start": 7.7344,
      "duration": 0.0288,
      "velocity": 99,
      "chip": "ym2612"
    },
    {
      "channel": 2,
      "note": 71,
      "start": 7.7348,
      "duration": 0.0285,
      "velocity": 99,
      "chip": "ym2612"
    },
    {
      "channel": 3,
      "note": 64,
      "start": 7.7354,
      "duration": 0.0283,
      "velocity": 99,
      "chip": "ym2612"
    },
    {
      "channel": 4,
      "note": 76,
      "start": 7.7609,
      "duration": 0.029,
      "velocity": 99,
      "chip": "ym2612"
    },
    {
      "channel": 0,
      "note": 52,
      "start": 7.7662,
      "duration": 0.0278,
      "velocity": 91,
      "chip": "ym2612"
    },
    {
      "channel": 0,
      "note": 64,
      "start": 7.7988,
      "duration": 0.0283,
      "velocity": 91,
      "chip": "ym2612"
    },
    {
      "channel": 1,
      "note": 76,
      "start": 7.7993,
      "duration": 0.028,
      "velocity": 99,
      "chip": "ym2612"
    },
    {
      "channel": 2,
      "note": 71,
      "start": 7.7998,
      "duration": 0.0278,
      "velocity": 99,
      "chip": "ym2612"
    },
    {
      "channel": 3,
      "note": 64,
      "start": 7.8004,
      "duration": 0.0276,
      "velocity": 99,
      "chip": "ym2612"
    },
    {
      "channel": 4,
      "note": 76,
      "start": 7.8255,
      "duration": 0.0328,
      "velocity": 99,
      "chip": "ym2612"
    },
    {
      "channel": 0,
      "note": 65,
      "start": 7.8301,
      "duration": 0.0813,
      "velocity": 91,
      "chip": "ym2612"
    },
    {
      "channel": 1,
      "note": 84,
      "start": 7.8307,
      "duration": 0.0154,
      "velocity": 99,
      "chip": "ym2612"
    },
    {
      "channel": 2,
      "note": 81,
      "start": 7.8315,
      "duration": 0.015,
      "velocity": 99,
      "chip": "ym2612"
    },
    {
      "channel": 3,
      "note": 64,
      "start": 7.836,
      "duration": 0.0139,
      "velocity": 99,
      "chip": "ym2612"
    },
    {
      "channel": 1,
      "note": 81,
      "start": 7.8491,
      "duration": 0.0139,
      "velocity": 99,
      "chip": "ym2612"
    },
    {
      "channel": 2,
      "note": 77,
      "start": 7.8496,
      "duration": 0.0136,
      "velocity": 99,
      "chip": "ym2612"
    },
    {
      "channel": 3,
      "note": 93,
      "start": 7.8529,
      "duration": 0.0135,
      "velocity": 99,
      "chip": "ym2612"
    },
    {
      "channel": 4,
      "note": 76,
      "start": 7.8611,
      "duration": 0.0199,
      "velocity": 99,
      "chip": "ym2612"
    },
    {
      "channel": 1,
      "note": 77,
      "start": 7.8656,
      "duration": 0.046,
      "velocity": 99,
      "chip": "ym2612"
    },
    {
      "channel": 2,
      "note": 72,
      "start": 7.8661,
      "duration": 0.0458,
      "velocity": 99,
      "chip": "ym2612"
    },
    {
      "channel": 3,
      "note": 89,
      "start": 7.869,
      "duration": 0.0594,
      "velocity": 99,
      "chip": "ym2612"
    },
    {
      "channel": 4,
      "note": 84,
      "start": 7.8968,
      "duration": 0.0779,
      "velocity": 99,
      "chip": "ym2612"
    },
    {
      "channel": 0,
      "note": 64,
      "start": 7.9271,
      "duration": 0.1229,
      "velocity": 91,
      "chip": "ym2612"
    },
    {
      "channel": 1,
      "note": 83,
      "start": 7.9276,
      "duration": 0.0777,
      "velocity": 99,
      "chip": "ym2612"
    },
    {
      "channel": 2,
      "note": 79,
      "start": 7.928,
      "duration": 0.0774,
      "velocity": 99,
      "chip": "ym2612"
    },
    {
      "channel": 3,
      "note": 84,
      "start": 7.9441,
      "duration": 0.0778,
      "velocity": 99,
      "chip": "ym2612"
    },
    {
      "channel": 4,
      "note": 81,
      "start": 7.9906,
      "duration": 0.0395,
      "velocity": 99,
      "chip": "ym2612"
    },
    {
      "channel": 1,
      "note": 79,
      "start": 8.021,
      "duration": 0.0134,
      "velocity": 99,
      "chip": "ym2612"
    },
    {
      "channel": 2,
      "note": 76,
      "start": 8.0215,
      "duration": 0.0131,
      "velocity": 99,
      "chip": "ym2612"
    },
    {
      "channel": 3,
      "note": 91,
      "start": 8.0248,
      "duration": 0.0131,
      "velocity": 99,
      "chip": "ym2612"
    },
    {
      "channel": 4,
      "note": 77,
      "start": 8.0327,
      "duration": 0.0133,
      "velocity": 99,
      "chip": "ym2612"
    },
    {
      "channel": 1,
      "note": 76,
      "start": 8.0371,
      "duration": 0.0137,
      "velocity": 99,
      "chip": "ym2612"
    },
    {
      "channel": 2,
      "note": 71,
      "start": 8.0375,
      "duration": 0.0136,
      "velocity": 99,
      "chip": "ym2612"
    },
    {
      "channel": 3,
      "note": 88,
      "start": 8.0407,
      "duration": 0.0143,
      "velocity": 99,
      "chip": "ym2612"
    },
    {
      "channel": 4,
      "note": 83,
      "start": 8.0485,
      "duration": 0.0142,
      "velocity": 99,
      "chip": "ym2612"
    },
    {
      "channel": 0,
      "note": 62,
      "start": 8.053,
      "duration": 0.0993,
      "velocity": 91,
      "chip": "ym2612"
    },
    {
      "channel": 1,
      "note": 81,
      "start": 8.0535,
      "duration": 0.0137,
      "velocity": 99,
      "chip": "ym2612"
    },
    {
      "channel": 2,
      "note": 77,
      "start": 8.054,
      "duration": 0.0134,
      "velocity": 99,
      "chip": "ym2612"
    },
    {
      "channel": 3,
      "note": 83,
      "start": 8.0573,
      "duration": 0.0134,
      "velocity": 99,
      "chip": "ym2612"
    },
    {
      "channel": 4,
      "note": 79,
      "start": 8.0654,
      "duration": 0.0141,
      "velocity": 99,
      "chip": "ym2612"
    },
    {
      "channel": 1,
      "note": 77,
      "start": 8.0699,
      "duration": 0.014,
      "velocity": 99,
      "chip": "ym2612"
    },
    {
      "channel": 2,
      "note": 74,
      "start": 8.0704,
      "duration": 0.0138,
      "velocity": 99,
      "chip": "ym2612"
    },
    {
      "channel": 3,
      "note": 89,
      "start": 8.0734,
      "duration": 0.0142,
      "velocity": 99,
      "chip": "ym2612"
    },
    {
      "channel": 4,
      "note": 76,
      "start": 8.0822,
      "duration": 0.0138,
      "velocity": 99,
      "chip": "ym2612"
    },
    {
      "channel": 1,
      "note": 74,
      "start": 8.0867,
      "duration": 0.0137,
      "velocity": 99,
      "chip": "ym2612"
    },
    {
      "channel": 2,
      "note": 69,
      "start": 8.0872,
      "duration": 0.0135,
      "velocity": 99,
      "chip": "ym2612"
    },
    {
      "channel": 3,
      "note": 86,
      "start": 8.0902,
      "duration": 0.0142,
      "velocity": 99,
      "chip": "ym2612"
    },
    {
      "channel": 4,
      "note": 81,
      "start": 8.0984,
      "duration": 0.0142,
      "velocity": 99,
      "chip": "ym2612"
    },
    {
      "channel": 1,
      "note": 81,
      "start": 8.1035,
      "duration": 0.0134,
      "velocity": 99,
      "chip": "ym2612"
    },
    {
      "channel": 2,
      "note": 77,
      "start": 8.104,
      "duration": 0.0132,
      "velocity": 99,
      "chip": "ym2612"
    },
    {
      "channel": 3,
      "note": 81,
      "start": 8.1074,
      "duration": 0.0131,
      "velocity": 99,
      "chip": "ym2612"
    },
    {
      "channel": 4,
      "note": 77,
      "start": 8.1152,
      "duration": 0.0134,
      "velocity": 99,
      "chip": "ym2612"
    },
    {
      "channel": 1,
      "note": 77,
      "start": 8.1197,
      "duration": 0.0136,
      "velocity": 99,
      "chip": "ym2612"
    },
    {
      "channel": 2,
      "note": 74,
      "start": 8.1202,
      "duration": 0.0133,
      "velocity": 99,
      "chip": "ym2612"
    },
    {
      "channel": 3,
      "note": 89,
      "start": 8.1235,
      "duration": 0.0156,
      "velocity": 99,
      "chip": "ym2612"
    },
    {
      "channel": 4,
      "note": 74,
      "start": 8.1313,
      "duration": 0.0166,
      "velocity": 99,
      "chip": "ym2612"
    },
    {
      "channel": 1,
      "note": 74,
      "start": 8.1383,
      "duration": 0.0144,
      "velocity": 99,
      "chip": "ym2612"
    },
    {
      "channel": 2,
      "note": 69,
      "start": 8.1388,
      "duration": 0.0141,
      "velocity": 99,
      "chip": "ym2612"
    },
    {
      "channel": 3,
      "note": 86,
      "start": 8.142,
      "duration": 0.0144,
      "velocity": 99,
      "chip": "ym2612"
    },
    {
      "channel": 4,
      "note": 81,
      "start": 8.1507,
      "duration": 0.0137,
      "velocity": 99,
      "chip": "ym2612"
    },
    {
      "channel": 0,
      "note": 62,
      "start": 8.155,
      "duration": 0.0306,
      "velocity": 91,
      "chip": "ym2612"
    },
    {
      "channel": 1,
      "note": 81,
      "start": 8.1555,
      "duration": 0.0303,
      "velocity": 99,
      "chip": "ym2612"
    },
    {
      "channel": 2,
      "note": 77,
      "start": 8.156,
      "duration": 0.0301,
      "velocity": 99,
      "chip": "ym2612"
    },
    {
      "channel": 3,
      "note": 81,
      "start": 8.1593,
      "duration": 0.0329,
      "velocity": 99,
      "chip": "ym2612"
    },
    {
      "channel": 4,
      "note": 77,
      "start": 8.167,
      "duration": 0.0141,
      "velocity": 99,
      "chip": "ym2612"
    },
    {
      "channel": 4,
      "note": 74,
      "start": 8.1841,
      "duration": 0.0326,
      "velocity": 99,
      "chip": "ym2612"
    },
    {
      "channel": 0,
      "note": 64,
      "start": 8.1909,
      "duration": 0.0301,
      "velocity": 91,
      "chip": "ym2612"
    },
    {
      "channel": 1,
      "note": 83,
      "start": 8.1914,
      "duration": 0.0299,
      "velocity": 99,
      "chip": "ym2612"
    },
    {
      "channel": 2,
      "note": 79,
      "start": 8.1919,
      "duration": 0.0297,
      "velocity": 99,
      "chip": "ym2612"
    },
    {
      "channel": 3,
      "note": 89,
      "start": 8.1955,
      "duration": 0.0301,
      "velocity": 99,
      "chip": "ym2612"
    },
    {
      "channel": 4,
      "note": 81,
      "start": 8.2194,
      "duration": 0.0315,
      "velocity": 99,
      "chip": "ym2612"
    },
    {
      "channel": 0,
      "note": 65,
      "start": 8.2238,
      "duration": 0.0811,
      "velocity": 91,
      "chip": "ym2612"
    },
    {
      "channel": 1,
      "note": 84,
      "start": 8.2244,
      "duration": 0.015,
      "velocity": 99,
      "chip": "ym2612"
    },
    {
      "channel": 2,
      "note": 81,
      "start": 8.2253,
      "duration": 0.0144,
      "velocity": 99,
      "chip": "ym2612"
    },
    {
      "channel": 3,
      "note": 91,
      "start": 8.2297,
      "duration": 0.0132,
      "velocity": 99,
      "chip": "ym2612"
    },
    {
      "channel": 1,
      "note": 81,
      "start": 8.242,
      "duration": 0.0133,
      "velocity": 99,
      "chip": "ym2612"
    },
    {
      "channel": 2,
      "note": 77,
      "start": 8.2425,
      "duration": 0.0131,
      "velocity": 99,
      "chip": "ym2612"
    },
    {
      "channel": 3,
      "note": 93,
      "start": 8.2455,
      "duration": 0.0133,
      "velocity": 99,
      "chip": "ym2612"
    },
    {
      "channel": 4,
      "note": 83,
      "start": 8.2536,
      "duration": 0.0211,
      "velocity": 99,
      "chip": "ym2612"
    },
    {
      "channel": 1,
      "note": 77,
      "start": 8.2579,
      "duration": 0.0478,
      "velocity": 99,
      "chip": "ym2612"
    },
    {
      "channel": 2,
      "note": 72,
      "start": 8.2584,
      "duration": 0.0476,
      "velocity": 99,
      "chip": "ym2612"
    },
    {
      "channel": 3,
      "note": 89,
      "start": 8.2623,
      "duration": 0.0604,
      "velocity": 99,
      "chip": "ym2612"
    },
    {
      "channel": 4,
      "note": 84,
      "start": 8.2905,
      "duration": 0.0778,
      "velocity": 99,
      "chip": "ym2612"
    },
    {
      "channel": 0,
      "note": 64,
      "start": 8.3207,
      "duration": 0.1246,
      "velocity": 91,
      "chip": "ym2612"
    },
    {
      "channel": 1,
      "note": 83,
      "start": 8.3212,
      "duration": 0.0776,
      "velocity": 99,
      "chip": "ym2612"
    },
    {
      "channel": 2,
      "note": 79,
      "start": 8.3217,
      "duration": 0.0773,
      "velocity": 99,
      "chip": "ym2612"
    },
    {
      "channel": 3,
      "note": 84,
      "start": 8.3371,
      "duration": 0.0784,
      "velocity": 99,
      "chip": "ym2612"
    },
    {
      "channel": 4,
      "note": 81,
      "start": 8.3842,
      "duration": 0.0395,
      "velocity": 99,
      "chip": "ym2612"
    },
    {
      "channel": 1,
      "note": 79,
      "start": 8.4146,
      "duration": 0.0135,
      "velocity": 99,
      "chip": "ym2612"
    },
    {
      "channel": 2,
      "note": 76,
      "start": 8.4151,
      "duration": 0.0132,
      "velocity": 99,
      "chip": "ym2612"
    },
    {
      "channel": 3,
      "note": 91,
      "start": 8.4184,
      "duration": 0.0132,
      "velocity": 99,
      "chip": "ym2612"
    },
    {
      "channel": 4,
      "note": 77,
      "start": 8.4264,
      "duration": 0.0135,
      "velocity": 99,
      "chip": "ym2612"
    },
    {
      "channel": 1,
      "note": 76,
      "start": 8.4308,
      "duration": 0.0149,
      "velocity": 99,
      "chip": "ym2612"
    },
    {
      "channel": 2,
      "note": 71,
      "start": 8.4312,
      "duration": 0.0147,
      "velocity": 99,
      "chip": "ym2612"
    },
    {
      "channel": 3,
      "note": 88,
      "start": 8.4342,
      "duration": 0.0153,
      "velocity": 99,
      "chip": "ym2612"
    },
    {
      "channel": 4,
      "note": 83,
      "start": 8.4424,
      "duration": 0.015,
      "velocity": 99,
      "chip": "ym2612"
    },
    {
      "channel": 0,
      "note": 62,
      "start": 8.4482,
      "duration": 0.099,
      "velocity": 91,
      "chip": "ym2612"
    },
    {
      "channel": 1,
      "note": 81,
      "start": 8.4487,
      "duration": 0.0132,
      "velocity": 99,
      "chip": "ym2612"
    },
    {
      "channel": 2,
      "note": 77,
      "start": 8.4492,
      "duration": 0.0129,
      "velocity": 99,
      "chip": "ym2612"
    },
    {
      "channel": 3,
      "note": 83,
      "start": 8.4522,
      "duration": 0.0131,
      "velocity": 99,
      "chip": "ym2612"
    },
    {
      "channel": 4,
      "note": 79,
      "start": 8.4602,
      "duration": 0.0129,
      "velocity": 99,
      "chip": "ym2612"
    },
    {
      "channel": 1,
      "note": 77,
      "start": 8.4644,
      "duration": 0.0132,
      "velocity": 99,
      "chip": "ym2612"
    },
    {
      "channel": 2,
      "note": 74,
      "start": 8.4649,
      "duration": 0.0129,
      "velocity": 99,
      "chip": "ym2612"
    },
    {
      "channel": 3,
      "note": 89,
      "start": 8.4679,
      "duration": 0.0136,
      "velocity": 99,
      "chip": "ym2612"
    },
    {
      "channel": 4,
      "note": 76,
      "start": 8.4758,
      "duration": 0.0139,
      "velocity": 99,
      "chip": "ym2612"
    },
    {
      "channel": 1,
      "note": 74,
      "start": 8.4806,
      "duration": 0.0134,
      "velocity": 99,
      "chip": "ym2612"
    },
    {
      "channel": 2,
      "note": 69,
      "start": 8.4811,
      "duration": 0.0132,
      "velocity": 99,
      "chip": "ym2612"
    },
    {
      "channel": 3,
      "note": 86,
      "start": 8.4841,
      "duration": 0.0141,
      "velocity": 99,
      "chip": "ym2612"
    },
    {
      "channel": 4,
      "note": 81,
      "start": 8.4923,
      "duration": 0.0149,
      "velocity": 99,
      "chip": "ym2612"
    },
    {
      "channel": 1,
      "note": 81,
      "start": 8.4973,
      "duration": 0.0143,
      "velocity": 99,
      "chip": "ym2612"
    },
    {
      "channel": 2,
      "note": 77,
      "start": 8.4978,
      "duration": 0.014,
      "velocity": 99,
      "chip": "ym2612"
    },
    {
      "channel": 3,
      "note": 81,
      "start": 8.5012,
      "duration": 0.0155,
      "velocity": 99,
      "chip": "ym2612"
    },
    {
      "channel": 4,
      "note": 77,
      "start": 8.5099,
      "duration": 0.015,
      "velocity": 99,
      "chip": "ym2612"
    },
    {
      "channel": 1,
      "note": 77,
      "start": 8.5159,
      "duration": 0.0138,
      "velocity": 99,
      "chip": "ym2612"
    },
    {
      "channel": 2,
      "note": 74,
      "start": 8.5163,
      "duration": 0.0136,
      "velocity": 99,
      "chip": "ym2612"
    },
    {
      "channel": 3,
      "note": 89,
      "start": 8.5197,
      "duration": 0.0147,
      "velocity": 99,
      "chip": "ym2612"
    },
    {
      "channel": 4,
      "note": 74,
      "start": 8.528,
      "duration": 0.0149,
      "velocity": 99,
      "chip": "ym2612"
    },
    {
      "channel": 1,
      "note": 74,
      "start": 8.5335,
      "duration": 0.014,
      "velocity": 99,
      "chip": "ym2612"
    },
    {
      "channel": 2,
      "note": 69,
      "start": 8.534,
      "duration": 0.0138,
      "velocity": 99,
      "chip": "ym2612"
    },
    {
      "channel": 3,
      "note": 86,
      "start": 8.5378,
      "duration": 0.0148,
      "velocity": 99,
      "chip": "ym2612"
    },
    {
      "channel": 4,
      "note": 81,
      "start": 8.5456,
      "duration": 0.0152,
      "velocity": 99,
      "chip": "ym2612"
    },
    {
      "channel": 0,
      "note": 62,
      "start": 8.5512,
      "duration": 0.0309,
      "velocity": 91,
      "chip": "ym2612"
    },
    {
      "channel": 1,
      "note": 81,
      "start": 8.5517,
      "duration": 0.0307,
      "velocity": 99,
      "chip": "ym2612"
    },
    {
      "channel": 2,
      "note": 77,
      "start": 8.5522,
      "duration": 0.0304,
      "velocity": 99,
      "chip": "ym2612"
    },
    {
      "channel": 3,
      "note": 81,
      "start": 8.5556,
      "duration": 0.0331,
      "velocity": 99,
      "chip": "ym2612"
    },
    {
      "channel": 4,
      "note": 77,
      "start": 8.5634,
      "duration": 0.0139,
      "velocity": 99,
      "chip": "ym2612"
    },
    {
      "channel": 4,
      "note": 74,
      "start": 8.5803,
      "duration": 0.0326,
      "velocity": 99,
      "chip": "ym2612"
    },
    {
      "channel": 0,
      "note": 64,
      "start": 8.5873,
      "duration": 0.0298,
      "velocity": 91,
      "chip": "ym2612"
    },
    {
      "channel": 1,
      "note": 83,
      "start": 8.5878,
      "duration": 0.0301,
      "velocity": 99,
      "chip": "ym2612"
    },
    {
      "channel": 2,
      "note": 79,
      "start": 8.5883,
      "duration": 0.0298,
      "velocity": 99,
      "chip": "ym2612"
    },
    {
      "channel": 3,
      "note": 89,
      "start": 8.5916,
      "duration": 0.0335,
      "velocity": 99,
      "chip": "ym2612"
    },
    {
      "channel": 4,
      "note": 81,
      "start": 8.6156,
      "duration": 0.0353,
      "velocity": 99,
      "chip": "ym2612"
    },
    {
      "channel": 0,
      "note": 65,
      "start": 8.6228,
      "duration": 0.0498,
      "velocity": 91,
      "chip": "ym2612"
    },
    {
      "channel": 1,
      "note": 84,
      "start": 8.6234,
      "duration": 0.0157,
      "velocity": 99,
      "chip": "ym2612"
    },
    {
      "channel": 2,
      "note": 89,
      "start": 8.6248,
      "duration": 0.0146,
      "velocity": 99,
      "chip": "ym2612"
    },
    {
      "channel": 3,
      "note": 91,
      "start": 8.629,
      "duration": 0.0136,
      "velocity": 99,
      "chip": "ym2612"
    },
    {
      "channel": 1,
      "note": 81,
      "start": 8.6417,
      "duration": 0.0137,
      "velocity": 99,
      "chip": "ym2612"
    },
    {
      "channel": 2,
      "note": 84,
      "start": 8.6422,
      "duration": 0.0135,
      "velocity": 99,
      "chip": "ym2612"
    },
    {
      "channel": 3,
      "note": 89,
      "start": 8.6457,
      "duration": 0.0141,
      "velocity": 99,
      "chip": "ym2612"
    },
    {
      "channel": 4,
      "note": 83,
      "start": 8.6537,
      "duration": 0.0146,
      "velocity": 99,
      "chip": "ym2612"
    },
    {
      "channel": 1,
      "note": 77,
      "start": 8.659,
      "duration": 0.0139,
      "velocity": 99,
      "chip": "ym2612"
    },
    {
      "channel": 2,
      "note": 81,
      "start": 8.6595,
      "duration": 0.0137,
      "velocity": 99,
      "chip": "ym2612"
    },
    {
      "channel": 3,
      "note": 84,
      "start": 8.6627,
      "duration": 0.0156,
      "velocity": 99,
      "chip": "ym2612"
    },
    {
      "channel": 4,
      "note": 84,
      "start": 8.6706,
      "duration": 0.0156,
      "velocity": 99,
      "chip": "ym2612"
    },
    {
      "channel": 0,
      "note": 64,
      "start": 8.6769,
      "duration": 0.0503,
      "velocity": 91,
      "chip": "ym2612"
    },
    {
      "channel": 1,
      "note": 83,
      "start": 8.6774,
      "duration": 0.0132,
      "velocity": 99,
      "chip": "ym2612"
    },
    {
      "channel": 2,
      "note": 88,
      "start": 8.6779,
      "duration": 0.013,
      "velocity": 99,
      "chip": "ym2612"
    },
    {
      "channel": 3,
      "note": 81,
      "start": 8.6813,
      "duration": 0.0151,
      "velocity": 99,
      "chip": "ym2612"
    },
    {
      "channel": 4,
      "note": 81,
      "start": 8.6888,
      "duration": 0.0157,
      "velocity": 99,
      "chip": "ym2612"
    },
    {
      "channel": 1,
      "note": 79,
      "start": 8.6955,
      "duration": 0.0137,
      "velocity": 99,
      "chip": "ym2612"
    },
    {
      "channel": 2,
      "note": 83,
      "start": 8.696,
      "duration": 0.0135,
      "velocity": 99,
      "chip": "ym2612"
    },
    {
      "channel": 3,
      "note": 88,
      "start": 8.6993,
      "duration": 0.0152,
      "velocity": 99,
      "chip": "ym2612"
    },
    {
      "channel": 4,
      "note": 77,
      "start": 8.7075,
      "duration": 0.0156,
      "velocity": 99,
      "chip": "ym2612"
    },
    {
      "channel": 1,
      "note": 76,
      "start": 8.7137,
      "duration": 0.0139,
      "velocity": 99,
      "chip": "ym2612"
    },
    {
      "channel": 2,
      "note": 79,
      "start": 8.7142,
      "duration": 0.0136,
      "velocity": 99,
      "chip": "ym2612"
    },
    {
      "channel": 3,
      "note": 83,
      "start": 8.7177,
      "duration": 0.0145,
      "velocity": 99,
      "chip": "ym2612"
    },
    {
      "channel": 4,
      "note": 83,
      "start": 8.7257,
      "duration": 0.0147,
      "velocity": 99,
      "chip": "ym2612"
    },
    {
      "channel": 0,
      "note": 62,
      "start": 8.7309,
      "duration": 0.0498,
      "velocity": 91,
      "chip": "ym2612"
    },
    {
      "channel": 1,
      "note": 81,
      "start": 8.7314,
      "duration": 0.0134,
      "velocity": 99,
      "chip": "ym2612"
    },
    {
      "channel": 2,
      "note": 86,
      "start": 8.7319,
      "duration": 0.0132,
      "velocity": 99,
      "chip": "ym2612"
    },
    {
      "channel": 3,
      "note": 79,
      "start": 8.7352,
      "duration": 0.0145,
      "velocity": 99,
      "chip": "ym2612"
    },
    {
      "channel": 4,
      "note": 79,
      "start": 8.7431,
      "duration": 0.0158,
      "velocity": 99,
      "chip": "ym2612"
    },
    {
      "channel": 1,
      "note": 77,
      "start": 8.7488,
      "duration": 0.0146,
      "velocity": 99,
      "chip": "ym2612"
    },
    {
      "channel": 2,
      "note": 81,
      "start": 8.7493,
      "duration": 0.0144,
      "velocity": 99,
      "chip": "ym2612"
    },
    {
      "channel": 3,
      "note": 86,
      "start": 8.7527,
      "duration": 0.0153,
      "velocity": 99,
      "chip": "ym2612"
    },
    {
      "channel": 4,
      "note": 76,
      "start": 8.762,
      "duration": 0.0144,
      "velocity": 99,
      "chip": "ym2612"
    },
    {
      "channel": 1,
      "note": 74,
      "start": 8.7671,
      "duration": 0.0138,
      "velocity": 99,
      "chip": "ym2612"
    },
    {
      "channel": 2,
      "note": 77,
      "start": 8.7676,
      "duration": 0.0136,
      "velocity": 99,
      "chip": "ym2612"
    },
    {
      "channel": 3,
      "note": 81,
      "start": 8.7712,
      "duration": 0.0144,
      "velocity": 99,
      "chip": "ym2612"
    },
    {
      "channel": 4,
      "note": 81,
      "start": 8.7791,
      "duration": 0.015,
      "velocity": 99,
      "chip": "ym2612"
    },
    {
      "channel": 0,
      "note": 60,
      "start": 8.7843,
      "duration": 0.0506,
      "velocity": 91,
      "chip": "ym2612"
    },
    {
      "channel": 1,
      "note": 79,
      "start": 8.7848,
      "duration": 0.0139,
      "velocity": 99,
      "chip": "ym2612"
    },
    {
      "channel": 2,
      "note": 84,
      "start": 8.7853,
      "duration": 0.0137,
      "velocity": 99,
      "chip": "ym2612"
    },
    {
      "channel": 3,
      "note": 77,
      "start": 8.7888,
      "duration": 0.0139,
      "velocity": 99,
      "chip": "ym2612"
    },
    {
      "channel": 4,
      "note": 77,
      "start": 8.7969,
      "duration": 0.0143,
      "velocity": 99,
      "chip": "ym2612"
    },
    {
      "channel": 1,
      "note": 76,
      "start": 8.8019,
      "duration": 0.014,
      "velocity": 99,
      "chip": "ym2612"
    },
    {
      "channel": 2,
      "note": 79,
      "start": 8.8024,
      "duration": 0.0138,
      "velocity": 99,
      "chip": "ym2612"
    },
    {
      "channel": 3,
      "note": 84,
      "start": 8.8059,
      "duration": 0.015,
      "velocity": 99,
      "chip": "ym2612"
    },
    {
      "channel": 4,
      "note": 74,
      "start": 8.8142,
      "duration": 0.0164,
      "velocity": 99,
      "chip": "ym2612"
    },
    {
      "channel": 1,
      "note": 72,
      "start": 8.8201,
      "duration": 0.0151,
      "velocity": 99,
      "chip": "ym2612"
    },
    {
      "channel": 2,
      "note": 76,
      "start": 8.8206,
      "duration": 0.0148,
      "velocity": 99,
      "chip": "ym2612"
    },
    {
      "channel": 3,
      "note": 79,
      "start": 8.8254,
      "duration": 0.0139,
      "velocity": 99,
      "chip": "ym2612"
    },
    {
      "channel": 4,
      "note": 79,
      "start": 8.8333,
      "duration": 0.0141,
      "velocity": 99,
      "chip": "ym2612"
    },
    {
      "channel": 0,
      "note": 59,
      "start": 8.8379,
      "duration": 0.032,
      "velocity": 91,
      "chip": "ym2612"
    },
    {
      "channel": 1,
      "note": 77,
      "start": 8.8384,
      "duration": 0.0139,
      "velocity": 99,
      "chip": "ym2612"
    },
    {
      "channel": 2,
      "note": 81,
      "start": 8.8389,
      "duration": 0.0137,
      "velocity": 99,
      "chip": "ym2612"
    },
    {
      "channel": 3,
      "note": 76,
      "start": 8.8422,
      "duration": 0.0154,
      "velocity": 99,
      "chip": "ym2612"
    },
    {
      "channel": 4,
      "note": 76,
      "start": 8.8502,
      "duration": 0.0154,
      "velocity": 99,
      "chip": "ym2612"
    },
    {
      "channel": 1,
      "note": 74,
      "start": 8.8561,
      "duration": 0.014,
      "velocity": 99,
      "chip": "ym2612"
    },
    {
      "channel": 2,
      "note": 77,
      "start": 8.8566,
      "duration": 0.0138,
      "velocity": 99,
      "chip": "ym2612"
    },
    {
      "channel": 3,
      "note": 81,
      "start": 8.8602,
      "duration": 0.0147,
      "velocity": 99,
      "chip": "ym2612"
    },
    {
      "channel": 4,
      "note": 72,
      "start": 8.8682,
      "duration": 0.0153,
      "velocity": 99,
      "chip": "ym2612"
    },
    {
      "channel": 0,
      "note": 57,
      "start": 8.8736,
      "duration": 0.0319,
      "velocity": 91,
      "chip": "ym2612"
    },
    {
      "channel": 1,
      "note": 69,
      "start": 8.8741,
      "duration": 0.0149,
      "velocity": 99,
      "chip": "ym2612"
    },
    {
      "channel": 2,
      "note": 81,
      "start": 8.8746,
      "duration": 0.0147,
      "velocity": 99,
      "chip": "ym2612"
    },
    {
      "channel": 3,
      "note": 77,
      "start": 8.8785,
      "duration": 0.0141,
      "velocity": 99,
      "chip": "ym2612"
    },
    {
      "channel": 4,
      "note": 77,
      "start": 8.8872,
      "duration": 0.0139,
      "velocity": 99,
      "chip": "ym2612"
    },
    {
      "channel": 1,
      "note": 71,
      "start": 8.8917,
      "duration": 0.0141,
      "velocity": 99,
      "chip": "ym2612"
    },
    {
      "channel": 2,
      "note": 83,
      "start": 8.8922,
      "duration": 0.0139,
      "velocity": 99,
      "chip": "ym2612"
    },
    {
      "channel": 3,
      "note": 81,
      "start": 8.8955,
      "duration": 0.0109,
      "velocity": 99,
      "chip": "ym2612"
    },
    {
      "channel": 4,
      "note": 74,
      "start": 8.9035,
      "duration": 0.0539,
      "velocity": 99,
      "chip": "ym2612"
    },
    {
      "channel": 0,
      "note": 62,
      "start": 8.9097,
      "duration": 0.1717,
      "velocity": 91,
      "chip": "ym2612"
    },
    {
      "channel": 1,
      "note": 74,
      "start": 8.9102,
      "duration": 0.0776,
      "velocity": 99,
      "chip": "ym2612"
    },
    {
      "channel": 4,
      "note": 69,
      "start": 8.9732,
      "duration": 0.0779,
      "velocity": 99,
      "chip": "ym2612"
    },
    {
      "channel": 1,
      "note": 69,
      "start": 9.0037,
      "duration": 0.0779,
      "velocity": 99,
      "chip": "ym2612"
    },
    {
      "channel": 4,
      "note": 71,
      "start": 9.067,
      "duration": 0.0417,
      "velocity": 99,
      "chip": "ym2612"
    },
    {
      "channel": 0,
      "note": 62,
      "start": 9.0977,
      "duration": 0.0311,
      "velocity": 91,
      "chip": "ym2612"
    },
    {
      "channel": 1,
      "note": 72,
      "start": 9.0982,
      "duration": 0.0149,
      "velocity": 99,
      "chip": "ym2612"
    },
    {
      "channel": 2,
      "note": 77,
      "start": 9.0987,
      "duration": 0.0147,
      "velocity": 99,
      "chip": "ym2612"
    },
    {
      "channel": 3,
      "note": 83,
      "start": 9.0994,
      "duration": 0.0143,
      "velocity": 99,
      "chip": "ym2612"
    },
    {
      "channel": 4,
      "note": 74,
      "start": 9.1115,
      "duration": 0.0129,
      "velocity": 99,
      "chip": "ym2612"
    },
    {
      "channel": 1,
      "note": 74,
      "start": 9.1158,
      "duration": 0.0133,
      "velocity": 99,
      "chip": "ym2612"
    },
    {
      "channel": 2,
      "note": 77,
      "start": 9.1163,
      "duration": 0.0131,
      "velocity": 99,
      "chip": "ym2612"
    },
    {
      "channel": 3,
      "note": 74,
      "start": 9.1169,
      "duration": 0.0128,
      "velocity": 99,
      "chip": "ym2612"
    },
    {
      "channel": 4,
      "note": 69,
      "start": 9.1271,
      "duration": 0.014,
      "velocity": 99,
      "chip": "ym2612"
    },
    {
      "channel": 0,
      "note": 62,
      "start": 9.1317,
      "duration": 0.0305,
      "velocity": 91,
      "chip": "ym2612"
    },
    {
      "channel": 1,
      "note": 76,
      "start": 9.1322,
      "duration": 0.0135,
      "velocity": 99,
      "chip": "ym2612"
    },
    {
      "channel": 2,
      "note": 77,
      "start": 9.1327,
      "duration": 0.0301,
      "velocity": 99,
      "chip": "ym2612"
    },
    {
      "channel": 3,
      "note": 74,
      "start": 9.1333,
      "duration": 0.0298,
      "velocity": 99,
      "chip": "ym2612"
    },
    {
      "channel": 4,
      "note": 72,
      "start": 9.1442,
      "duration": 0.0128,
      "velocity": 99,
      "chip": "ym2612"
    },
    {
      "channel": 1,
      "note": 77,
      "start": 9.1486,
      "duration": 0.0139,
      "velocity": 99,
      "chip": "ym2612"
    },
    {
      "channel": 4,
      "note": 74,
      "start": 9.1597,
      "duration": 0.0147,
      "velocity": 99,
      "chip": "ym2612"
    },
    {
      "channel": 0,
      "note": 62,
      "start": 9.1649,
      "duration": 0.0304,
      "velocity": 91,
      "chip": "ym2612"
    },
    {
      "channel": 1,
      "note": 79,
      "start": 9.1654,
      "duration": 0.0135,
      "velocity": 99,
      "chip": "ym2612"
    },
    {
      "channel": 2,
      "note": 74,
      "start": 9.1659,
      "duration": 0.0051,
      "velocity": 99,
      "chip": "ym2612"
    },
    {
      "channel": 3,
      "note": 74,
      "start": 9.1665,
      "duration": 0.0048,
      "velocity": 99,
      "chip": "ym2612"
    },
    {
      "channel": 4,
      "note": 76,
      "start": 9.177,
      "duration": 0.0137,
      "velocity": 99,
      "chip": "ym2612"
    },
    {
      "channel": 1,
      "note": 74,
      "start": 9.1817,
      "duration": 0.0139,
      "velocity": 99,
      "chip": "ym2612"
    },
    {
      "channel": 2,
      "note": 74,
      "start": 9.1822,
      "duration": 0.005,
      "velocity": 99,
      "chip": "ym2612"
    },
    {
      "channel": 3,
      "note": 74,
      "start": 9.1828,
      "duration": 0.0052,
      "velocity": 99,
      "chip": "ym2612"
    },
    {
      "channel": 4,
      "note": 77,
      "start": 9.1937,
      "duration": 0.0137,
      "velocity": 99,
      "chip": "ym2612"
    },
    {
      "channel": 0,
      "note": 62,
      "start": 9.198,
      "duration": 0.0324,
      "velocity": 91,
      "chip": "ym2612"
    },
    {
      "channel": 1,
      "note": 79,
      "start": 9.1985,
      "duration": 0.0135,
      "velocity": 99,
      "chip": "ym2612"
    },
    {
      "channel": 2,
      "note": 77,
      "start": 9.199,
      "duration": 0.0133,
      "velocity": 99,
      "chip": "ym2612"
    },
    {
      "channel": 3,
      "note": 74,
      "start": 9.1995,
      "duration": 0.013,
      "velocity": 99,
      "chip": "ym2612"
    },
    {
      "channel": 4,
      "note": 79,
      "start": 9.2102,
      "duration": 0.0157,
      "velocity": 99,
      "chip": "ym2612"
    },
    {
      "channel": 1,
      "note": 81,
      "start": 9.2156,
      "duration": 0.015,
      "velocity": 99,
      "chip": "ym2612"
    },
    {
      "channel": 2,
      "note": 74,
      "start": 9.2161,
      "duration": 0.0063,
      "velocity": 99,
      "chip": "ym2612"
    },
    {
      "channel": 3,
      "note": 74,
      "start": 9.2167,
      "duration": 0.0061,
      "velocity": 99,
      "chip": "ym2612"
    },
    {
      "channel": 4,
      "note": 74,
      "start": 9.2285,
      "duration": 0.0147,
      "velocity": 99,
      "chip": "ym2612"
    },
    {
      "channel": 0,
      "note": 62,
      "start": 9.2329,
      "duration": 0.0302,
      "velocity": 91,
      "chip": "ym2612"
    },
    {
      "channel": 1,
      "note": 83,
      "start": 9.2334,
      "duration": 0.0142,
      "velocity": 99,
      "chip": "ym2612"
    },
    {
      "channel": 2,
      "note": 74,
      "start": 9.2345,
      "duration": 0.0054,
      "velocity": 99,
      "chip": "ym2612"
    },
    {
      "channel": 3,
      "note": 74,
      "start": 9.2351,
      "duration": 0.0051,
      "velocity": 99,
      "chip": "ym2612"
    },
    {
      "channel": 4,
      "note": 79,
      "start": 9.2458,
      "duration": 0.0132,
      "velocity": 99,
      "chip": "ym2612"
    },
    {
      "channel": 1,
      "note": 77,
      "start": 9.2504,
      "duration": 0.013,
      "velocity": 99,
      "chip": "ym2612"
    },
    {
      "channel": 2,
      "note": 77,
      "start": 9.2509,
      "duration": 0.0293,
      "velocity": 99,
      "chip": "ym2612"
    },
    {
      "channel": 3,
      "note": 74,
      "start": 9.2515,
      "duration": 0.0291,
      "velocity": 99,
      "chip": "ym2612"
    },
    {
      "channel": 4,
      "note": 81,
      "start": 9.2616,
      "duration": 0.014,
      "velocity": 99,
      "chip": "ym2612"
    },
    {
      "channel": 0,
      "note": 62,
      "start": 9.2661,
      "duration": 0.0304,
      "velocity": 91,
      "chip": "ym2612"
    },
    {
      "channel": 1,
      "note": 79,
      "start": 9.2666,
      "duration": 0.0134,
      "velocity": 99,
      "chip": "ym2612"
    },
    {
      "channel": 4,
      "note": 83,
      "start": 9.2779,
      "duration": 0.0143,
      "velocity": 99,
      "chip": "ym2612"
    },
    {
      "channel": 1,
      "note": 81,
      "start": 9.2836,
      "duration": 0.0132,
      "velocity": 99,
      "chip": "ym2612"
    },
    {
      "channel": 2,
      "note": 77,
      "start": 9.2841,
      "duration": 0.0288,
      "velocity": 99,
      "chip": "ym2612"
    },
    {
      "channel": 3,
      "note": 74,
      "start": 9.2846,
      "duration": 0.0285,
      "velocity": 99,
      "chip": "ym2612"
    },
    {
      "channel": 4,
      "note": 77,
      "start": 9.2949,
      "duration": 0.0131,
      "velocity": 99,
      "chip": "ym2612"
    },
    {
      "channel": 0,
      "note": 62,
      "start": 9.2993,
      "duration": 0.03,
      "velocity": 91,
      "chip": "ym2612"
    },
    {
      "channel": 1,
      "note": 83,
      "start": 9.2997,
      "duration": 0.0128,
      "velocity": 99,
      "chip": "ym2612"
    },
    {
      "channel": 4,
      "note": 79,
      "start": 9.3109,
      "duration": 0.0141,
      "velocity": 99,
      "chip": "ym2612"
    },
    {
      "channel": 1,
      "note": 86,
      "start": 9.3155,
      "duration": 0.0141,
      "velocity": 99,
      "chip": "ym2612"
    },
    {
      "channel": 2,
      "note": 74,
      "start": 9.316,
      "duration": 0.0054,
      "velocity": 99,
      "chip": "ym2612"
    },
    {
      "channel": 3,
      "note": 74,
      "start": 9.3166,
      "duration": 0.0051,
      "velocity": 99,
      "chip": "ym2612"
    },
    {
      "channel": 4,
      "note": 81,
      "start": 9.3276,
      "duration": 0.0175,
      "velocity": 99,
      "chip": "ym2612"
    },
    {
      "channel": 0,
      "note": 64,
      "start": 9.3345,
      "duration": 0.03,
      "velocity": 91,
      "chip": "ym2612"
    },
    {
      "channel": 1,
      "note": 88,
      "start": 9.335,
      "duration": 0.198,
      "velocity": 99,
      "chip": "ym2612"
    },
    {
      "channel": 4,
      "note": 83,
      "start": 9.3477,
      "duration": 0.0123,
      "velocity": 99,
      "chip": "ym2612"
    },
    {
      "channel": 4,
      "note": 86,
      "start": 9.363,
      "duration": 0.1986,
      "velocity": 99,
      "chip": "ym2612"
    },
    {
      "channel": 0,
      "note": 64,
      "start": 9.3674,
      "duration": 0.028,
      "velocity": 91,
      "chip": "ym2612"
    },
    {
      "channel": 2,
      "note": 81,
      "start": 9.3682,
      "duration": 0.0125,
      "velocity": 99,
      "chip": "ym2612"
    },
    {
      "channel": 3,
      "note": 74,
      "start": 9.3687,
      "duration": 0.0123,
      "velocity": 99,
      "chip": "ym2612"
    },
    {
      "channel": 2,
      "note": 81,
      "start": 9.3835,
      "duration": 0.0125,
      "velocity": 99,
      "chip": "ym2612"
    },
    {
      "channel": 3,
      "note": 76,
      "start": 9.3841,
      "duration": 0.0122,
      "velocity": 99,
      "chip": "ym2612"
    },
    {
      "channel": 0,
      "note": 64,
      "start": 9.4011,
      "duration": 0.0286,
      "velocity": 91,
      "chip": "ym2612"
    },
    {
      "channel": 2,
      "note": 81,
      "start": 9.4018,
      "duration": 0.0284,
      "velocity": 99,
      "chip": "ym2612"
    },
    {
      "channel": 3,
      "note": 76,
      "start": 9.4024,
      "duration": 0.0281,
      "velocity": 99,
      "chip": "ym2612"
    },
    {
      "channel": 0,
      "note": 64,
      "start": 9.4342,
      "duration": 0.0311,
      "velocity": 91,
      "chip": "ym2612"
    },
    {
      "channel": 2,
      "note": 76,
      "start": 9.4349,
      "duration": 0.0055,
      "velocity": 99,
      "chip": "ym2612"
    },
    {
      "channel": 3,
      "note": 76,
      "start": 9.4355,
      "duration": 0.0053,
      "velocity": 99,
      "chip": "ym2612"
    },
    {
      "channel": 2,
      "note": 76,
      "start": 9.4511,
      "duration": 0.006,
      "velocity": 99,
      "chip": "ym2612"
    },
    {
      "channel": 3,
      "note": 76,
      "start": 9.4522,
      "duration": 0.0051,
      "velocity": 99,
      "chip": "ym2612"
    },
    {
      "channel": 0,
      "note": 64,
      "start": 9.4682,
      "duration": 0.0295,
      "velocity": 91,
      "chip": "ym2612"
    },
    {
      "channel": 2,
      "note": 81,
      "start": 9.4689,
      "duration": 0.0128,
      "velocity": 99,
      "chip": "ym2612"
    },
    {
      "channel": 3,
      "note": 76,
      "start": 9.4695,
      "duration": 0.0125,
      "velocity": 99,
      "chip": "ym2612"
    },
    {
      "channel": 2,
      "note": 76,
      "start": 9.4845,
      "duration": 0.0054,
      "velocity": 99,
      "chip": "ym2612"
    },
    {
      "channel": 3,
      "note": 76,
      "start": 9.4851,
      "duration": 0.0051,
      "velocity": 99,
      "chip": "ym2612"
    },
    {
      "channel": 0,
      "note": 64,
      "start": 9.5018,
      "duration": 0.0309,
      "velocity": 91,
      "chip": "ym2612"
    },
    {
      "channel": 2,
      "note": 76,
      "start": 9.5026,
      "duration": 0.0059,
      "velocity": 99,
      "chip": "ym2612"
    },
    {
      "channel": 3,
      "note": 76,
      "start": 9.5031,
      "duration": 0.0057,
      "velocity": 99,
      "chip": "ym2612"
    },
    {
      "channel": 2,
      "note": 81,
      "start": 9.5191,
      "duration": 0.0314,
      "velocity": 99,
      "chip": "ym2612"
    },
    {
      "channel": 3,
      "note": 76,
      "start": 9.5197,
      "duration": 0.0312,
      "velocity": 99,
      "chip": "ym2612"
    },
    {
      "channel": 0,
      "note": 64,
      "start": 9.5368,
      "duration": 0.0291,
      "velocity": 91,
      "chip": "ym2612"
    },
    {
      "channel": 1,
      "note": 89,
      "start": 9.5373,
      "duration": 0.013,
      "velocity": 99,
      "chip": "ym2612"
    },
    {
      "channel": 1,
      "note": 91,
      "start": 9.553,
      "duration": 0.0133,
      "velocity": 99,
      "chip": "ym2612"
    },
    {
      "channel": 2,
      "note": 81,
      "start": 9.5535,
      "duration": 0.0311,
      "velocity": 99,
      "chip": "ym2612"
    },
    {
      "channel": 3,
      "note": 76,
      "start": 9.554,
      "duration": 0.0308,
      "velocity": 99,
      "chip": "ym2612"
    },
    {
      "channel": 4,
      "note": 88,
      "start": 9.5644,
      "duration": 0.0144,
      "velocity": 99,
      "chip": "ym2612"
    },
    {
      "channel": 0,
      "note": 64,
      "start": 9.5695,
      "duration": 0.0319,
      "velocity": 91,
      "chip": "ym2612"
    },
    {
      "channel": 1,
      "note": 93,
      "start": 9.57,
      "duration": 0.0053,
      "velocity": 99,
      "chip": "ym2612"
    },
    {
      "channel": 1,
      "note": 95,
      "start": 9.5779,
      "duration": 0.0064,
      "velocity": 99,
      "chip": "ym2612"
    },
    {
      "channel": 4,
      "note": 89,
      "start": 9.5828,
      "duration": 0.0142,
      "velocity": 99,
      "chip": "ym2612"
    },
    {
      "channel": 1,
      "note": 96,
      "start": 9.5873,
      "duration": 0.0059,
      "velocity": 99,
      "chip": "ym2612"
    },
    {
      "channel": 2,
      "note": 76,
      "start": 9.5878,
      "duration": 0.0056,
      "velocity": 99,
      "chip": "ym2612"
    },
    {
      "channel": 3,
      "note": 76,
      "start": 9.5884,
      "duration": 0.0054,
      "velocity": 99,
      "chip": "ym2612"
    },
    {
      "channel": 1,
      "note": 98,
      "start": 9.5959,
      "duration": 0.0057,
      "velocity": 99,
      "chip": "ym2612"
    },
    {
      "channel": 4,
      "note": 91,
      "start": 9.5997,
      "duration": 0.0063,
      "velocity": 99,
      "chip": "ym2612"
    },
    {
      "channel": 0,
      "note": 64,
      "start": 9.6043,
      "duration": 0.0302,
      "velocity": 91,
      "chip": "ym2612"
    },
    {
      "channel": 1,
      "note": 100,
      "start": 9.6048,
      "duration": 0.2737,
      "velocity": 99,
      "chip": "ym2612"
    },
    {
      "channel": 4,
      "note": 93,
      "start": 9.6092,
      "duration": 0.0049,
      "velocity": 99,
      "chip": "ym2612"
    },
    {
      "channel": 4,
      "note": 95,
      "start": 9.6168,
      "duration": 0.005,
      "velocity": 99,
      "chip": "ym2612"
    },
    {
      "channel": 4,
      "note": 96,
      "start": 9.6247,
      "duration": 0.005,
      "velocity": 99,
      "chip": "ym2612"
    },
    {
      "channel": 4,
      "note": 98,
      "start": 9.6327,
      "duration": 38.3697,
      "velocity": 99,
      "chip": "ym2612"
    },
    {
      "channel": 0,
      "note": 64,
      "start": 9.6372,
      "duration": 0.0292,
      "velocity": 91,
      "chip": "ym2612"
    },
    {
      "channel": 2,
      "note": 80,
      "start": 9.6379,
      "duration": 0.0136,
      "velocity": 99,
      "chip": "ym2612"
    },
    {
      "channel": 3,
      "note": 76,
      "start": 9.6385,
      "duration": 0.0133,
      "velocity": 99,
      "chip": "ym2612"
    },
    {
      "channel": 2,
      "note": 80,
      "start": 9.6541,
      "duration": 0.0128,
      "velocity": 99,
      "chip": "ym2612"
    },
    {
      "channel": 3,
      "note": 76,
      "start": 9.6546,
      "duration": 0.0126,
      "velocity": 99,
      "chip": "ym2612"
    },
    {
      "channel": 0,
      "note": 64,
      "start": 9.6711,
      "duration": 0.0294,
      "velocity": 91,
      "chip": "ym2612"
    },
    {
      "channel": 2,
      "note": 80,
      "start": 9.6723,
      "duration": 0.0288,
      "velocity": 99,
      "chip": "ym2612"
    },
    {
      "channel": 3,
      "note": 76,
      "start": 9.673,
      "duration": 0.0284,
      "velocity": 99,
      "chip": "ym2612"
    },
    {
      "channel": 0,
      "note": 64,
      "start": 9.7039,
      "duration": 0.0318,
      "velocity": 91,
      "chip": "ym2612"
    },
    {
      "channel": 2,
      "note": 76,
      "start": 9.7047,
      "duration": 0.0057,
      "velocity": 99,
      "chip": "ym2612"
    },
    {
      "channel": 3,
      "note": 76,
      "start": 9.7053,
      "duration": 0.0055,
      "velocity": 99,
      "chip": "ym2612"
    },
    {
      "channel": 2,
      "note": 76,
      "start": 9.723,
      "duration": 0.0055,
      "velocity": 99,
      "chip": "ym2612"
    },
    {
      "channel": 3,
      "note": 76,
      "start": 9.7235,
      "duration": 0.0053,
      "velocity": 99,
      "chip": "ym2612"
    },
    {
      "channel": 0,
      "note": 64,
      "start": 9.7397,
      "duration": 0.0331,
      "velocity": 91,
      "chip": "ym2612"
    },
    {
      "channel": 2,
      "note": 80,
      "start": 9.7404,
      "duration": 0.0133,
      "velocity": 99,
      "chip": "ym2612"
    },
    {
      "channel": 3,
      "note": 76,
      "start": 9.741,
      "duration": 0.013,
      "velocity": 99,
      "chip": "ym2612"
    },
    {
      "channel": 2,
      "note": 76,
      "start": 9.7583,
      "duration": 0.0057,
      "velocity": 99,
      "chip": "ym2612"
    },
    {
      "channel": 3,
      "note": 76,
      "start": 9.7588,
      "duration": 0.0055,
      "velocity": 99,
      "chip": "ym2612"
    },
    {
      "channel": 0,
      "note": 64,
      "start": 9.7758,
      "duration": 0.032,
      "velocity": 91,
      "chip": "ym2612"
    },
    {
      "channel": 2,
      "note": 76,
      "start": 9.7765,
      "duration": 0.0056,
      "velocity": 99,
      "chip": "ym2612"
    },
    {
      "channel": 3,
      "note": 76,
      "start": 9.7771,
      "duration": 0.0053,
      "velocity": 99,
      "chip": "ym2612"
    },
    {
      "channel": 2,
      "note": 80,
      "start": 9.7946,
      "duration": 0.0319,
      "velocity": 99,
      "chip": "ym2612"
    },
    {
      "channel": 3,
      "note": 76,
      "start": 9.7952,
      "duration": 0.0316,
      "velocity": 99,
      "chip": "ym2612"
    },
    {
      "channel": 0,
      "note": 64,
      "start": 9.8132,
      "duration": 0.0315,
      "velocity": 91,
      "chip": "ym2612"
    },
    {
      "channel": 2,
      "note": 80,
      "start": 9.8314,
      "duration": 0.0308,
      "velocity": 99,
      "chip": "ym2612"
    },
    {
      "channel": 3,
      "note": 76,
      "start": 9.832,
      "duration": 0.0305,
      "velocity": 99,
      "chip": "ym2612"
    },
    {
      "channel": 0,
      "note": 64,
      "start": 9.8485,
      "duration": 0.0297,
      "velocity": 91,
      "chip": "ym2612"
    },
    {
      "channel": 2,
      "note": 76,
      "start": 9.8651,
      "duration": 0.0056,
      "velocity": 99,
      "chip": "ym2612"
    },
    {
      "channel": 3,
      "note": 76,
      "start": 9.8657,
      "duration": 0.0053,
      "velocity": 99,
      "chip": "ym2612"
    }
  ]
}