{
  "track_name": "05 - Warehouse (Stages 2A, 5A)",
  "duration_sec": 62.017,
  "sample_rate": 44100,
  "note_count": 612,
  "unique_pitches": 38,
  "pitch_range": 72,
  "avg_note_duration": 0.4996,
  "reconstruction_stats": {
    "notes_reconstructed": 612,
    "keyon_events": 612,
    "keyoff_events": 607,
    "orphan_keyons": 5,
    "unique_pitches": 38,
    "pitch_range": 72,
    "avg_duration_sec": 0.4996
  },
  "metadata": {
    "source": "D\\Dick Tracy\\05 - Warehouse (Stages 2A, 5A).vgm"
  },
  "notes": [
    {
      "channel": 1,
      "note": 52,
      "start": 0.0,
      "duration": 0.1337,
      "velocity": 91,
      "chip": "ym2612"
    },
    {
      "channel": 3,
      "note": 76,
      "start": 0.0052,
      "duration": 0.1119,
      "velocity": 102,
      "chip": "ym2612"
    },
    {
      "channel": 2,
      "note": 23,
      "start": 0.0068,
      "duration": 0.1297,
      "velocity": 127,
      "chip": "ym2612"
    },
    {
      "channel": 4,
      "note": 71,
      "start": 0.0218,
      "duration": 0.1143,
      "velocity": 102,
      "chip": "ym2612"
    },
    {
      "channel": 5,
      "note": 66,
      "start": 0.0257,
      "duration": 0.1106,
      "velocity": 102,
      "chip": "ym2612"
    },
    {
      "channel": 0,
      "note": 65,
      "start": 0.2729,
      "duration": 0.198,
      "velocity": 127,
      "chip": "ym2612"
    },
    {
      "channel": 2,
      "note": 58,
      "start": 0.274,
      "duration": 0.2656,
      "velocity": 105,
      "chip": "ym2612"
    },
    {
      "channel": 0,
      "note": 65,
      "start": 0.5392,
      "duration": 0.2018,
      "velocity": 127,
      "chip": "ym2612"
    },
    {
      "channel": 2,
      "note": 58,
      "start": 0.724,
      "duration": 0.2655,
      "velocity": 105,
      "chip": "ym2612"
    },
    {
      "channel": 0,
      "note": 65,
      "start": 0.989,
      "duration": 0.2018,
      "velocity": 127,
      "chip": "ym2612"
    },
    {
      "channel": 1,
      "note": 52,
      "start": 1.0822,
      "duration": 0.1313,
      "velocity": 91,
      "chip": "ym2612"
    },
    {
      "channel": 3,
      "note": 76,
      "start": 1.083,
      "duration": 0.1087,
      "velocity": 102,
      "chip": "ym2612"
    },
    {
      "channel": 2,
      "note": 58,
      "start": 1.0839,
      "duration": 0.2657,
      "velocity": 105,
      "chip": "ym2612"
    },
    {
      "channel": 4,
      "note": 70,
      "start": 1.1043,
      "duration": 0.1099,
      "velocity": 102,
      "chip": "ym2612"
    },
    {
      "channel": 5,
      "note": 66,
      "start": 1.105,
      "duration": 0.1093,
      "velocity": 102,
      "chip": "ym2612"
    },
    {
      "channel": 0,
      "note": 65,
      "start": 1.3491,
      "duration": 0.2034,
      "velocity": 127,
      "chip": "ym2612"
    },
    {
      "channel": 2,
      "note": 58,
      "start": 1.5326,
      "duration": 0.2656,
      "velocity": 105,
      "chip": "ym2612"
    },
    {
      "channel": 0,
      "note": 65,
      "start": 1.8037,
      "duration": 0.197,
      "velocity": 127,
      "chip": "ym2612"
    },
    {
      "channel": 2,
      "note": 58,
      "start": 1.8048,
      "duration": 0.0834,
      "velocity": 105,
      "chip": "ym2612"
    },
    {
      "channel": 2,
      "note": 58,
      "start": 1.8923,
      "duration": 0.2661,
      "velocity": 105,
      "chip": "ym2612"
    },
    {
      "channel": 0,
      "note": 65,
      "start": 2.0702,
      "duration": 0.091,
      "velocity": 127,
      "chip": "ym2612"
    },
    {
      "channel": 1,
      "note": 52,
      "start": 2.1623,
      "duration": 0.131,
      "velocity": 91,
      "chip": "ym2612"
    },
    {
      "channel": 3,
      "note": 74,
      "start": 2.1631,
      "duration": 0.108,
      "velocity": 102,
      "chip": "ym2612"
    },
    {
      "channel": 2,
      "note": 23,
      "start": 2.164,
      "duration": 0.1304,
      "velocity": 127,
      "chip": "ym2612"
    },
    {
      "channel": 4,
      "note": 69,
      "start": 2.1822,
      "duration": 0.1118,
      "velocity": 102,
      "chip": "ym2612"
    },
    {
      "channel": 5,
      "note": 66,
      "start": 2.1829,
      "duration": 0.1112,
      "velocity": 102,
      "chip": "ym2612"
    },
    {
      "channel": 0,
      "note": 65,
      "start": 2.4315,
      "duration": 0.199,
      "velocity": 127,
      "chip": "ym2612"
    },
    {
      "channel": 2,
      "note": 58,
      "start": 2.4328,
      "duration": 0.2667,
      "velocity": 105,
      "chip": "ym2612"
    },
    {
      "channel": 0,
      "note": 65,
      "start": 2.699,
      "duration": 0.2016,
      "velocity": 127,
      "chip": "ym2612"
    },
    {
      "channel": 2,
      "note": 58,
      "start": 2.8822,
      "duration": 0.2733,
      "velocity": 105,
      "chip": "ym2612"
    },
    {
      "channel": 0,
      "note": 65,
      "start": 3.1488,
      "duration": 0.2016,
      "velocity": 127,
      "chip": "ym2612"
    },
    {
      "channel": 1,
      "note": 53,
      "start": 3.1496,
      "duration": 1.1739,
      "velocity": 91,
      "chip": "ym2612"
    },
    {
      "channel": 3,
      "note": 71,
      "start": 3.1552,
      "duration": 1.1722,
      "velocity": 102,
      "chip": "ym2612"
    },
    {
      "channel": 4,
      "note": 65,
      "start": 3.1752,
      "duration": 1.1747,
      "velocity": 102,
      "chip": "ym2612"
    },
    {
      "channel": 5,
      "note": 62,
      "start": 3.179,
      "duration": 1.1766,
      "velocity": 102,
      "chip": "ym2612"
    },
    {
      "channel": 2,
      "note": 58,
      "start": 3.2431,
      "duration": 0.2671,
      "velocity": 105,
      "chip": "ym2612"
    },
    {
      "channel": 0,
      "note": 65,
      "start": 3.5085,
      "duration": 0.2019,
      "velocity": 127,
      "chip": "ym2612"
    },
    {
      "channel": 2,
      "note": 58,
      "start": 3.693,
      "duration": 0.2647,
      "velocity": 105,
      "chip": "ym2612"
    },
    {
      "channel": 0,
      "note": 65,
      "start": 3.9614,
      "duration": 0.1989,
      "velocity": 127,
      "chip": "ym2612"
    },
    {
      "channel": 2,
      "note": 58,
      "start": 3.9635,
      "duration": 0.0842,
      "velocity": 105,
      "chip": "ym2612"
    },
    {
      "channel": 2,
      "note": 58,
      "start": 4.0549,
      "duration": 0.2651,
      "velocity": 105,
      "chip": "ym2612"
    },
    {
      "channel": 0,
      "note": 65,
      "start": 4.2284,
      "duration": 0.0946,
      "velocity": 127,
      "chip": "ym2612"
    },
    {
      "channel": 1,
      "note": 52,
      "start": 4.3241,
      "duration": 0.1401,
      "velocity": 91,
      "chip": "ym2612"
    },
    {
      "channel": 3,
      "note": 76,
      "start": 4.328,
      "duration": 0.114,
      "velocity": 102,
      "chip": "ym2612"
    },
    {
      "channel": 2,
      "note": 23,
      "start": 4.3294,
      "duration": 0.1361,
      "velocity": 127,
      "chip": "ym2612"
    },
    {
      "channel": 4,
      "note": 71,
      "start": 4.3507,
      "duration": 0.1142,
      "velocity": 102,
      "chip": "ym2612"
    },
    {
      "channel": 5,
      "note": 66,
      "start": 4.3563,
      "duration": 0.109,
      "velocity": 102,
      "chip": "ym2612"
    },
    {
      "channel": 0,
      "note": 65,
      "start": 4.6042,
      "duration": 0.1988,
      "velocity": 127,
      "chip": "ym2612"
    },
    {
      "channel": 2,
      "note": 58,
      "start": 4.6052,
      "duration": 0.2657,
      "velocity": 105,
      "chip": "ym2612"
    },
    {
      "channel": 0,
      "note": 65,
      "start": 4.8704,
      "duration": 0.201,
      "velocity": 127,
      "chip": "ym2612"
    },
    {
      "channel": 2,
      "note": 58,
      "start": 5.0549,
      "duration": 0.2659,
      "velocity": 105,
      "chip": "ym2612"
    },
    {
      "channel": 0,
      "note": 65,
      "start": 5.3202,
      "duration": 0.2011,
      "velocity": 127,
      "chip": "ym2612"
    },
    {
      "channel": 1,
      "note": 52,
      "start": 5.4125,
      "duration": 0.1315,
      "velocity": 91,
      "chip": "ym2612"
    },
    {
      "channel": 3,
      "note": 76,
      "start": 5.4133,
      "duration": 0.109,
      "velocity": 102,
      "chip": "ym2612"
    },
    {
      "channel": 2,
      "note": 58,
      "start": 5.4141,
      "duration": 0.2658,
      "velocity": 105,
      "chip": "ym2612"
    },
    {
      "channel": 4,
      "note": 70,
      "start": 5.4332,
      "duration": 0.1114,
      "velocity": 102,
      "chip": "ym2612"
    },
    {
      "channel": 5,
      "note": 66,
      "start": 5.4341,
      "duration": 0.1107,
      "velocity": 102,
      "chip": "ym2612"
    },
    {
      "channel": 0,
      "note": 65,
      "start": 5.6794,
      "duration": 0.2019,
      "velocity": 127,
      "chip": "ym2612"
    },
    {
      "channel": 2,
      "note": 58,
      "start": 5.8629,
      "duration": 0.2658,
      "velocity": 105,
      "chip": "ym2612"
    },
    {
      "channel": 0,
      "note": 65,
      "start": 6.1325,
      "duration": 0.1988,
      "velocity": 127,
      "chip": "ym2612"
    },
    {
      "channel": 2,
      "note": 58,
      "start": 6.1336,
      "duration": 0.0864,
      "velocity": 105,
      "chip": "ym2612"
    },
    {
      "channel": 2,
      "note": 58,
      "start": 6.224,
      "duration": 0.2648,
      "velocity": 105,
      "chip": "ym2612"
    },
    {
      "channel": 0,
      "note": 65,
      "start": 6.3995,
      "duration": 0.0922,
      "velocity": 127,
      "chip": "ym2612"
    },
    {
      "channel": 1,
      "note": 52,
      "start": 6.4928,
      "duration": 0.131,
      "velocity": 91,
      "chip": "ym2612"
    },
    {
      "channel": 3,
      "note": 74,
      "start": 6.4935,
      "duration": 0.1098,
      "velocity": 102,
      "chip": "ym2612"
    },
    {
      "channel": 2,
      "note": 23,
      "start": 6.4944,
      "duration": 0.1304,
      "velocity": 127,
      "chip": "ym2612"
    },
    {
      "channel": 4,
      "note": 69,
      "start": 6.5126,
      "duration": 0.1119,
      "velocity": 102,
      "chip": "ym2612"
    },
    {
      "channel": 5,
      "note": 66,
      "start": 6.5133,
      "duration": 0.1113,
      "velocity": 102,
      "chip": "ym2612"
    },
    {
      "channel": 0,
      "note": 65,
      "start": 6.762,
      "duration": 0.1991,
      "velocity": 127,
      "chip": "ym2612"
    },
    {
      "channel": 2,
      "note": 58,
      "start": 6.7631,
      "duration": 0.2668,
      "velocity": 105,
      "chip": "ym2612"
    },
    {
      "channel": 0,
      "note": 65,
      "start": 7.0294,
      "duration": 0.2018,
      "velocity": 127,
      "chip": "ym2612"
    },
    {
      "channel": 2,
      "note": 58,
      "start": 7.2126,
      "duration": 0.2712,
      "velocity": 105,
      "chip": "ym2612"
    },
    {
      "channel": 0,
      "note": 65,
      "start": 7.4792,
      "duration": 0.2018,
      "velocity": 127,
      "chip": "ym2612"
    },
    {
      "channel": 1,
      "note": 50,
      "start": 7.4799,
      "duration": 0.1339,
      "velocity": 91,
      "chip": "ym2612"
    },
    {
      "channel": 3,
      "note": 72,
      "start": 7.4834,
      "duration": 0.1083,
      "velocity": 94,
      "chip": "ym2612"
    },
    {
      "channel": 4,
      "note": 66,
      "start": 7.507,
      "duration": 0.1076,
      "velocity": 94,
      "chip": "ym2612"
    },
    {
      "channel": 5,
      "note": 62,
      "start": 7.5103,
      "duration": 0.1044,
      "velocity": 94,
      "chip": "ym2612"
    },
    {
      "channel": 2,
      "note": 58,
      "start": 7.5747,
      "duration": 0.2667,
      "velocity": 105,
      "chip": "ym2612"
    },
    {
      "channel": 0,
      "note": 65,
      "start": 7.839,
      "duration": 0.202,
      "velocity": 127,
      "chip": "ym2612"
    },
    {
      "channel": 1,
      "note": 48,
      "start": 7.8398,
      "duration": 0.8181,
      "velocity": 91,
      "chip": "ym2612"
    },
    {
      "channel": 3,
      "note": 71,
      "start": 7.8411,
      "duration": 0.8176,
      "velocity": 94,
      "chip": "ym2612"
    },
    {
      "channel": 4,
      "note": 66,
      "start": 7.8631,
      "duration": 0.8144,
      "velocity": 94,
      "chip": "ym2612"
    },
    {
      "channel": 5,
      "note": 60,
      "start": 7.8643,
      "duration": 0.8135,
      "velocity": 94,
      "chip": "ym2612"
    },
    {
      "channel": 2,
      "note": 71,
      "start": 8.0255,
      "duration": 0.2629,
      "velocity": 120,
      "chip": "ym2612"
    },
    {
      "channel": 0,
      "note": 65,
      "start": 8.292,
      "duration": 0.1988,
      "velocity": 127,
      "chip": "ym2612"
    },
    {
      "channel": 2,
      "note": 71,
      "start": 8.2944,
      "duration": 0.0839,
      "velocity": 120,
      "chip": "ym2612"
    },
    {
      "channel": 2,
      "note": 23,
      "start": 8.3836,
      "duration": 0.1316,
      "velocity": 127,
      "chip": "ym2612"
    },
    {
      "channel": 0,
      "note": 65,
      "start": 8.5589,
      "duration": 0.0978,
      "velocity": 111,
      "chip": "ym2612"
    },
    {
      "channel": 0,
      "note": 88,
      "start": 8.6574,
      "duration": 1.7512,
      "velocity": 111,
      "chip": "ym2612"
    },
    {
      "channel": 1,
      "note": 49,
      "start": 8.6585,
      "duration": 0.4457,
      "velocity": 91,
      "chip": "ym2612"
    },
    {
      "channel": 3,
      "note": 66,
      "start": 8.6593,
      "duration": 2.1609,
      "velocity": 94,
      "chip": "ym2612"
    },
    {
      "channel": 2,
      "note": 23,
      "start": 8.6607,
      "duration": 0.1302,
      "velocity": 127,
      "chip": "ym2612"
    },
    {
      "channel": 4,
      "note": 76,
      "start": 8.7025,
      "duration": 2.1571,
      "velocity": 94,
      "chip": "ym2612"
    },
    {
      "channel": 5,
      "note": 71,
      "start": 8.7033,
      "duration": 2.1571,
      "velocity": 94,
      "chip": "ym2612"
    },
    {
      "channel": 2,
      "note": 58,
      "start": 8.929,
      "duration": 0.2667,
      "velocity": 105,
      "chip": "ym2612"
    },
    {
      "channel": 1,
      "note": 54,
      "start": 9.1049,
      "duration": 0.6338,
      "velocity": 91,
      "chip": "ym2612"
    },
    {
      "channel": 2,
      "note": 58,
      "start": 9.379,
      "duration": 0.2666,
      "velocity": 105,
      "chip": "ym2612"
    },
    {
      "channel": 1,
      "note": 57,
      "start": 9.7393,
      "duration": 0.4495,
      "velocity": 91,
      "chip": "ym2612"
    },
    {
      "channel": 2,
      "note": 58,
      "start": 9.7411,
      "duration": 0.2645,
      "velocity": 105,
      "chip": "ym2612"
    },
    {
      "channel": 1,
      "note": 52,
      "start": 10.1893,
      "duration": 0.2672,
      "velocity": 91,
      "chip": "ym2612"
    },
    {
      "channel": 2,
      "note": 58,
      "start": 10.1911,
      "duration": 0.2625,
      "velocity": 105,
      "chip": "ym2612"
    },
    {
      "channel": 1,
      "note": 51,
      "start": 10.4571,
      "duration": 0.0901,
      "velocity": 91,
      "chip": "ym2612"
    },
    {
      "channel": 2,
      "note": 58,
      "start": 10.4589,
      "duration": 0.0847,
      "velocity": 105,
      "chip": "ym2612"
    },
    {
      "channel": 0,
      "note": 83,
      "start": 10.547,
      "duration": 0.2697,
      "velocity": 111,
      "chip": "ym2612"
    },
    {
      "channel": 1,
      "note": 50,
      "start": 10.5477,
      "duration": 0.2717,
      "velocity": 91,
      "chip": "ym2612"
    },
    {
      "channel": 2,
      "note": 58,
      "start": 10.5498,
      "duration": 0.264,
      "velocity": 105,
      "chip": "ym2612"
    },
    {
      "channel": 0,
      "note": 86,
      "start": 10.8192,
      "duration": 1.7504,
      "velocity": 111,
      "chip": "ym2612"
    },
    {
      "channel": 1,
      "note": 49,
      "start": 10.82,
      "duration": 0.4439,
      "velocity": 91,
      "chip": "ym2612"
    },
    {
      "channel": 3,
      "note": 66,
      "start": 10.8207,
      "duration": 2.1571,
      "velocity": 94,
      "chip": "ym2612"
    },
    {
      "channel": 2,
      "note": 23,
      "start": 10.8222,
      "duration": 0.1304,
      "velocity": 127,
      "chip": "ym2612"
    },
    {
      "channel": 4,
      "note": 74,
      "start": 10.8602,
      "duration": 2.1609,
      "velocity": 94,
      "chip": "ym2612"
    },
    {
      "channel": 5,
      "note": 70,
      "start": 10.861,
      "duration": 2.1608,
      "velocity": 94,
      "chip": "ym2612"
    },
    {
      "channel": 2,
      "note": 58,
      "start": 11.0905,
      "duration": 0.2649,
      "velocity": 105,
      "chip": "ym2612"
    },
    {
      "channel": 1,
      "note": 54,
      "start": 11.2645,
      "duration": 0.6321,
      "velocity": 91,
      "chip": "ym2612"
    },
    {
      "channel": 2,
      "note": 58,
      "start": 11.5404,
      "duration": 0.2648,
      "velocity": 105,
      "chip": "ym2612"
    },
    {
      "channel": 1,
      "note": 57,
      "start": 11.8972,
      "duration": 0.4494,
      "velocity": 91,
      "chip": "ym2612"
    },
    {
      "channel": 2,
      "note": 58,
      "start": 11.8992,
      "duration": 0.2662,
      "velocity": 105,
      "chip": "ym2612"
    },
    {
      "channel": 1,
      "note": 52,
      "start": 12.3472,
      "duration": 0.2691,
      "velocity": 91,
      "chip": "ym2612"
    },
    {
      "channel": 2,
      "note": 58,
      "start": 12.3492,
      "duration": 0.2641,
      "velocity": 105,
      "chip": "ym2612"
    },
    {
      "channel": 1,
      "note": 51,
      "start": 12.6169,
      "duration": 0.0899,
      "velocity": 91,
      "chip": "ym2612"
    },
    {
      "channel": 2,
      "note": 58,
      "start": 12.6205,
      "duration": 0.0827,
      "velocity": 105,
      "chip": "ym2612"
    },
    {
      "channel": 0,
      "note": 81,
      "start": 12.7066,
      "duration": 0.2696,
      "velocity": 111,
      "chip": "ym2612"
    },
    {
      "channel": 1,
      "note": 50,
      "start": 12.7074,
      "duration": 0.2697,
      "velocity": 91,
      "chip": "ym2612"
    },
    {
      "channel": 2,
      "note": 58,
      "start": 12.7092,
      "duration": 0.2642,
      "velocity": 105,
      "chip": "ym2612"
    },
    {
      "channel": 0,
      "note": 84,
      "start": 12.9768,
      "duration": 1.7989,
      "velocity": 111,
      "chip": "ym2612"
    },
    {
      "channel": 1,
      "note": 48,
      "start": 12.9776,
      "duration": 0.4459,
      "velocity": 91,
      "chip": "ym2612"
    },
    {
      "channel": 3,
      "note": 66,
      "start": 12.9784,
      "duration": 2.1607,
      "velocity": 94,
      "chip": "ym2612"
    },
    {
      "channel": 2,
      "note": 23,
      "start": 12.9798,
      "duration": 0.1303,
      "velocity": 127,
      "chip": "ym2612"
    },
    {
      "channel": 4,
      "note": 72,
      "start": 13.0217,
      "duration": 2.1573,
      "velocity": 94,
      "chip": "ym2612"
    },
    {
      "channel": 5,
      "note": 69,
      "start": 13.0224,
      "duration": 2.1573,
      "velocity": 94,
      "chip": "ym2612"
    },
    {
      "channel": 2,
      "note": 58,
      "start": 13.2486,
      "duration": 0.2667,
      "velocity": 105,
      "chip": "ym2612"
    },
    {
      "channel": 1,
      "note": 54,
      "start": 13.4241,
      "duration": 0.6323,
      "velocity": 91,
      "chip": "ym2612"
    },
    {
      "channel": 2,
      "note": 58,
      "start": 13.6983,
      "duration": 0.2667,
      "velocity": 105,
      "chip": "ym2612"
    },
    {
      "channel": 1,
      "note": 57,
      "start": 14.057,
      "duration": 0.4492,
      "velocity": 91,
      "chip": "ym2612"
    },
    {
      "channel": 2,
      "note": 58,
      "start": 14.0588,
      "duration": 0.266,
      "velocity": 105,
      "chip": "ym2612"
    },
    {
      "channel": 1,
      "note": 52,
      "start": 14.5067,
      "duration": 0.2698,
      "velocity": 91,
      "chip": "ym2612"
    },
    {
      "channel": 2,
      "note": 58,
      "start": 14.5085,
      "duration": 0.2644,
      "velocity": 105,
      "chip": "ym2612"
    },
    {
      "channel": 0,
      "note": 83,
      "start": 14.7763,
      "duration": 0.0896,
      "velocity": 111,
      "chip": "ym2612"
    },
    {
      "channel": 1,
      "note": 51,
      "start": 14.7771,
      "duration": 0.0895,
      "velocity": 91,
      "chip": "ym2612"
    },
    {
      "channel": 2,
      "note": 58,
      "start": 14.7788,
      "duration": 0.084,
      "velocity": 105,
      "chip": "ym2612"
    },
    {
      "channel": 0,
      "note": 81,
      "start": 14.8664,
      "duration": 0.2712,
      "velocity": 111,
      "chip": "ym2612"
    },
    {
      "channel": 1,
      "note": 50,
      "start": 14.8673,
      "duration": 0.2711,
      "velocity": 91,
      "chip": "ym2612"
    },
    {
      "channel": 2,
      "note": 58,
      "start": 14.8708,
      "duration": 0.2621,
      "velocity": 105,
      "chip": "ym2612"
    },
    {
      "channel": 0,
      "note": 78,
      "start": 15.1383,
      "duration": 1.8872,
      "velocity": 111,
      "chip": "ym2612"
    },
    {
      "channel": 1,
      "note": 49,
      "start": 15.139,
      "duration": 0.4443,
      "velocity": 91,
      "chip": "ym2612"
    },
    {
      "channel": 3,
      "note": 62,
      "start": 15.1397,
      "duration": 2.1575,
      "velocity": 94,
      "chip": "ym2612"
    },
    {
      "channel": 2,
      "note": 23,
      "start": 15.1411,
      "duration": 0.1304,
      "velocity": 127,
      "chip": "ym2612"
    },
    {
      "channel": 4,
      "note": 73,
      "start": 15.1795,
      "duration": 2.1592,
      "velocity": 94,
      "chip": "ym2612"
    },
    {
      "channel": 5,
      "note": 68,
      "start": 15.1802,
      "duration": 2.1593,
      "velocity": 94,
      "chip": "ym2612"
    },
    {
      "channel": 2,
      "note": 58,
      "start": 15.408,
      "duration": 0.2666,
      "velocity": 105,
      "chip": "ym2612"
    },
    {
      "channel": 1,
      "note": 54,
      "start": 15.5838,
      "duration": 0.6322,
      "velocity": 91,
      "chip": "ym2612"
    },
    {
      "channel": 2,
      "note": 58,
      "start": 15.8584,
      "duration": 0.2662,
      "velocity": 105,
      "chip": "ym2612"
    },
    {
      "channel": 1,
      "note": 57,
      "start": 16.2167,
      "duration": 0.4494,
      "velocity": 91,
      "chip": "ym2612"
    },
    {
      "channel": 2,
      "note": 58,
      "start": 16.2203,
      "duration": 0.266,
      "velocity": 105,
      "chip": "ym2612"
    },
    {
      "channel": 1,
      "note": 52,
      "start": 16.6666,
      "duration": 0.2709,
      "velocity": 91,
      "chip": "ym2612"
    },
    {
      "channel": 2,
      "note": 58,
      "start": 16.6702,
      "duration": 0.2623,
      "velocity": 105,
      "chip": "ym2612"
    },
    {
      "channel": 1,
      "note": 51,
      "start": 16.9381,
      "duration": 0.0877,
      "velocity": 91,
      "chip": "ym2612"
    },
    {
      "channel": 2,
      "note": 58,
      "start": 16.9399,
      "duration": 0.0827,
      "velocity": 105,
      "chip": "ym2612"
    },
    {
      "channel": 1,
      "note": 50,
      "start": 17.0263,
      "duration": 0.2701,
      "velocity": 91,
      "chip": "ym2612"
    },
    {
      "channel": 2,
      "note": 58,
      "start": 17.0281,
      "duration": 0.2646,
      "velocity": 105,
      "chip": "ym2612"
    },
    {
      "channel": 0,
      "note": 88,
      "start": 17.2961,
      "duration": 1.7512,
      "velocity": 111,
      "chip": "ym2612"
    },
    {
      "channel": 1,
      "note": 49,
      "start": 17.297,
      "duration": 0.4459,
      "velocity": 91,
      "chip": "ym2612"
    },
    {
      "channel": 3,
      "note": 66,
      "start": 17.2978,
      "duration": 2.16,
      "velocity": 94,
      "chip": "ym2612"
    },
    {
      "channel": 2,
      "note": 23,
      "start": 17.2995,
      "duration": 0.1301,
      "velocity": 127,
      "chip": "ym2612"
    },
    {
      "channel": 4,
      "note": 76,
      "start": 17.3393,
      "duration": 2.1588,
      "velocity": 94,
      "chip": "ym2612"
    },
    {
      "channel": 5,
      "note": 71,
      "start": 17.3402,
      "duration": 2.159,
      "velocity": 94,
      "chip": "ym2612"
    },
    {
      "channel": 2,
      "note": 58,
      "start": 17.5696,
      "duration": 0.2666,
      "velocity": 105,
      "chip": "ym2612"
    },
    {
      "channel": 1,
      "note": 54,
      "start": 17.7434,
      "duration": 0.6321,
      "velocity": 91,
      "chip": "ym2612"
    },
    {
      "channel": 2,
      "note": 58,
      "start": 18.0196,
      "duration": 0.2665,
      "velocity": 105,
      "chip": "ym2612"
    },
    {
      "channel": 1,
      "note": 57,
      "start": 18.3761,
      "duration": 0.4494,
      "velocity": 91,
      "chip": "ym2612"
    },
    {
      "channel": 2,
      "note": 58,
      "start": 18.378,
      "duration": 0.2662,
      "velocity": 105,
      "chip": "ym2612"
    },
    {
      "channel": 1,
      "note": 52,
      "start": 18.8261,
      "duration": 0.269,
      "velocity": 91,
      "chip": "ym2612"
    },
    {
      "channel": 2,
      "note": 58,
      "start": 18.8279,
      "duration": 0.2644,
      "velocity": 105,
      "chip": "ym2612"
    },
    {
      "channel": 1,
      "note": 51,
      "start": 19.0957,
      "duration": 0.0921,
      "velocity": 91,
      "chip": "ym2612"
    },
    {
      "channel": 2,
      "note": 58,
      "start": 19.0976,
      "duration": 0.0848,
      "velocity": 105,
      "chip": "ym2612"
    },
    {
      "channel": 0,
      "note": 83,
      "start": 19.1876,
      "duration": 0.2687,
      "velocity": 111,
      "chip": "ym2612"
    },
    {
      "channel": 1,
      "note": 50,
      "start": 19.1883,
      "duration": 0.2688,
      "velocity": 91,
      "chip": "ym2612"
    },
    {
      "channel": 2,
      "note": 58,
      "start": 19.1901,
      "duration": 0.2634,
      "velocity": 105,
      "chip": "ym2612"
    },
    {
      "channel": 0,
      "note": 86,
      "start": 19.4569,
      "duration": 1.7501,
      "velocity": 111,
      "chip": "ym2612"
    },
    {
      "channel": 1,
      "note": 49,
      "start": 19.4577,
      "duration": 0.4455,
      "velocity": 91,
      "chip": "ym2612"
    },
    {
      "channel": 3,
      "note": 66,
      "start": 19.4584,
      "duration": 2.1581,
      "velocity": 94,
      "chip": "ym2612"
    },
    {
      "channel": 2,
      "note": 23,
      "start": 19.4599,
      "duration": 0.1292,
      "velocity": 127,
      "chip": "ym2612"
    },
    {
      "channel": 4,
      "note": 74,
      "start": 19.499,
      "duration": 2.1589,
      "velocity": 94,
      "chip": "ym2612"
    },
    {
      "channel": 5,
      "note": 70,
      "start": 19.4998,
      "duration": 2.1589,
      "velocity": 94,
      "chip": "ym2612"
    },
    {
      "channel": 2,
      "note": 58,
      "start": 19.7273,
      "duration": 0.2667,
      "velocity": 105,
      "chip": "ym2612"
    },
    {
      "channel": 1,
      "note": 54,
      "start": 19.9039,
      "duration": 0.6333,
      "velocity": 91,
      "chip": "ym2612"
    },
    {
      "channel": 2,
      "note": 58,
      "start": 20.1771,
      "duration": 0.2667,
      "velocity": 105,
      "chip": "ym2612"
    },
    {
      "channel": 1,
      "note": 57,
      "start": 20.5378,
      "duration": 0.4494,
      "velocity": 91,
      "chip": "ym2612"
    },
    {
      "channel": 2,
      "note": 58,
      "start": 20.5396,
      "duration": 0.2652,
      "velocity": 105,
      "chip": "ym2612"
    },
    {
      "channel": 1,
      "note": 52,
      "start": 20.9878,
      "duration": 0.2683,
      "velocity": 91,
      "chip": "ym2612"
    },
    {
      "channel": 2,
      "note": 58,
      "start": 20.9896,
      "duration": 0.2636,
      "velocity": 105,
      "chip": "ym2612"
    },
    {
      "channel": 1,
      "note": 51,
      "start": 21.2566,
      "duration": 0.0888,
      "velocity": 91,
      "chip": "ym2612"
    },
    {
      "channel": 2,
      "note": 58,
      "start": 21.2585,
      "duration": 0.0834,
      "velocity": 105,
      "chip": "ym2612"
    },
    {
      "channel": 0,
      "note": 81,
      "start": 21.3453,
      "duration": 0.2695,
      "velocity": 111,
      "chip": "ym2612"
    },
    {
      "channel": 1,
      "note": 50,
      "start": 21.346,
      "duration": 0.2698,
      "velocity": 91,
      "chip": "ym2612"
    },
    {
      "channel": 2,
      "note": 58,
      "start": 21.3478,
      "duration": 0.2642,
      "velocity": 105,
      "chip": "ym2612"
    },
    {
      "channel": 0,
      "note": 84,
      "start": 21.6156,
      "duration": 1.7987,
      "velocity": 111,
      "chip": "ym2612"
    },
    {
      "channel": 1,
      "note": 48,
      "start": 21.6164,
      "duration": 0.4457,
      "velocity": 91,
      "chip": "ym2612"
    },
    {
      "channel": 3,
      "note": 66,
      "start": 21.6171,
      "duration": 2.1588,
      "velocity": 94,
      "chip": "ym2612"
    },
    {
      "channel": 2,
      "note": 23,
      "start": 21.6204,
      "duration": 0.1286,
      "velocity": 127,
      "chip": "ym2612"
    },
    {
      "channel": 4,
      "note": 72,
      "start": 21.6585,
      "duration": 2.1609,
      "velocity": 94,
      "chip": "ym2612"
    },
    {
      "channel": 5,
      "note": 69,
      "start": 21.6593,
      "duration": 2.1608,
      "velocity": 94,
      "chip": "ym2612"
    },
    {
      "channel": 2,
      "note": 58,
      "start": 21.8889,
      "duration": 0.2661,
      "velocity": 105,
      "chip": "ym2612"
    },
    {
      "channel": 1,
      "note": 54,
      "start": 22.0627,
      "duration": 0.6321,
      "velocity": 91,
      "chip": "ym2612"
    },
    {
      "channel": 2,
      "note": 58,
      "start": 22.3388,
      "duration": 0.266,
      "velocity": 105,
      "chip": "ym2612"
    },
    {
      "channel": 1,
      "note": 57,
      "start": 22.6954,
      "duration": 0.4494,
      "velocity": 91,
      "chip": "ym2612"
    },
    {
      "channel": 2,
      "note": 58,
      "start": 22.6972,
      "duration": 0.2662,
      "velocity": 105,
      "chip": "ym2612"
    },
    {
      "channel": 1,
      "note": 52,
      "start": 23.1453,
      "duration": 0.27,
      "velocity": 91,
      "chip": "ym2612"
    },
    {
      "channel": 2,
      "note": 58,
      "start": 23.1472,
      "duration": 0.2644,
      "velocity": 105,
      "chip": "ym2612"
    },
    {
      "channel": 0,
      "note": 83,
      "start": 23.415,
      "duration": 0.0906,
      "velocity": 111,
      "chip": "ym2612"
    },
    {
      "channel": 1,
      "note": 51,
      "start": 23.4159,
      "duration": 0.0905,
      "velocity": 91,
      "chip": "ym2612"
    },
    {
      "channel": 2,
      "note": 58,
      "start": 23.4195,
      "duration": 0.0833,
      "velocity": 105,
      "chip": "ym2612"
    },
    {
      "channel": 0,
      "note": 81,
      "start": 23.5063,
      "duration": 0.2683,
      "velocity": 111,
      "chip": "ym2612"
    },
    {
      "channel": 1,
      "note": 50,
      "start": 23.507,
      "duration": 0.2683,
      "velocity": 91,
      "chip": "ym2612"
    },
    {
      "channel": 2,
      "note": 58,
      "start": 23.5088,
      "duration": 0.2629,
      "velocity": 105,
      "chip": "ym2612"
    },
    {
      "channel": 0,
      "note": 78,
      "start": 23.7751,
      "duration": 1.6161,
      "velocity": 111,
      "chip": "ym2612"
    },
    {
      "channel": 1,
      "note": 49,
      "start": 23.7759,
      "duration": 0.4459,
      "velocity": 91,
      "chip": "ym2612"
    },
    {
      "channel": 3,
      "note": 62,
      "start": 23.7766,
      "duration": 2.1612,
      "velocity": 94,
      "chip": "ym2612"
    },
    {
      "channel": 2,
      "note": 23,
      "start": 23.778,
      "duration": 0.1303,
      "velocity": 127,
      "chip": "ym2612"
    },
    {
      "channel": 4,
      "note": 73,
      "start": 23.8199,
      "duration": 2.1574,
      "velocity": 94,
      "chip": "ym2612"
    },
    {
      "channel": 5,
      "note": 68,
      "start": 23.8206,
      "duration": 2.1575,
      "velocity": 94,
      "chip": "ym2612"
    },
    {
      "channel": 2,
      "note": 58,
      "start": 24.0465,
      "duration": 0.2667,
      "velocity": 105,
      "chip": "ym2612"
    },
    {
      "channel": 1,
      "note": 54,
      "start": 24.2223,
      "duration": 0.6337,
      "velocity": 91,
      "chip": "ym2612"
    },
    {
      "channel": 2,
      "note": 58,
      "start": 24.4965,
      "duration": 0.2666,
      "velocity": 105,
      "chip": "ym2612"
    },
    {
      "channel": 1,
      "note": 57,
      "start": 24.8566,
      "duration": 0.4495,
      "velocity": 91,
      "chip": "ym2612"
    },
    {
      "channel": 2,
      "note": 58,
      "start": 24.8584,
      "duration": 0.2646,
      "velocity": 105,
      "chip": "ym2612"
    },
    {
      "channel": 1,
      "note": 52,
      "start": 25.3067,
      "duration": 0.2676,
      "velocity": 91,
      "chip": "ym2612"
    },
    {
      "channel": 2,
      "note": 58,
      "start": 25.3085,
      "duration": 0.2627,
      "velocity": 105,
      "chip": "ym2612"
    },
    {
      "channel": 0,
      "note": 81,
      "start": 25.3919,
      "duration": 0.5443,
      "velocity": 111,
      "chip": "ym2612"
    },
    {
      "channel": 1,
      "note": 51,
      "start": 25.5749,
      "duration": 0.0894,
      "velocity": 91,
      "chip": "ym2612"
    },
    {
      "channel": 2,
      "note": 58,
      "start": 25.5767,
      "duration": 0.0844,
      "velocity": 105,
      "chip": "ym2612"
    },
    {
      "channel": 1,
      "note": 50,
      "start": 25.6649,
      "duration": 0.2721,
      "velocity": 91,
      "chip": "ym2612"
    },
    {
      "channel": 2,
      "note": 58,
      "start": 25.6669,
      "duration": 0.2644,
      "velocity": 105,
      "chip": "ym2612"
    },
    {
      "channel": 0,
      "note": 88,
      "start": 25.9367,
      "duration": 1.7495,
      "velocity": 111,
      "chip": "ym2612"
    },
    {
      "channel": 1,
      "note": 49,
      "start": 25.9376,
      "duration": 0.4439,
      "velocity": 91,
      "chip": "ym2612"
    },
    {
      "channel": 3,
      "note": 66,
      "start": 25.9384,
      "duration": 2.157,
      "velocity": 94,
      "chip": "ym2612"
    },
    {
      "channel": 2,
      "note": 23,
      "start": 25.9398,
      "duration": 0.13,
      "velocity": 127,
      "chip": "ym2612"
    },
    {
      "channel": 4,
      "note": 76,
      "start": 25.9779,
      "duration": 2.1594,
      "velocity": 94,
      "chip": "ym2612"
    },
    {
      "channel": 5,
      "note": 71,
      "start": 25.9788,
      "duration": 2.1593,
      "velocity": 94,
      "chip": "ym2612"
    },
    {
      "channel": 2,
      "note": 58,
      "start": 26.208,
      "duration": 0.2648,
      "velocity": 105,
      "chip": "ym2612"
    },
    {
      "channel": 1,
      "note": 54,
      "start": 26.3822,
      "duration": 0.6319,
      "velocity": 91,
      "chip": "ym2612"
    },
    {
      "channel": 2,
      "note": 58,
      "start": 26.6578,
      "duration": 0.265,
      "velocity": 105,
      "chip": "ym2612"
    },
    {
      "channel": 1,
      "note": 57,
      "start": 27.0146,
      "duration": 0.4494,
      "velocity": 91,
      "chip": "ym2612"
    },
    {
      "channel": 2,
      "note": 58,
      "start": 27.0167,
      "duration": 0.2662,
      "velocity": 105,
      "chip": "ym2612"
    },
    {
      "channel": 1,
      "note": 52,
      "start": 27.4646,
      "duration": 0.2693,
      "velocity": 91,
      "chip": "ym2612"
    },
    {
      "channel": 2,
      "note": 58,
      "start": 27.4667,
      "duration": 0.2641,
      "velocity": 105,
      "chip": "ym2612"
    },
    {
      "channel": 1,
      "note": 51,
      "start": 27.7363,
      "duration": 0.0881,
      "velocity": 91,
      "chip": "ym2612"
    },
    {
      "channel": 2,
      "note": 58,
      "start": 27.7381,
      "duration": 0.0828,
      "velocity": 105,
      "chip": "ym2612"
    },
    {
      "channel": 0,
      "note": 83,
      "start": 27.8243,
      "duration": 0.2695,
      "velocity": 111,
      "chip": "ym2612"
    },
    {
      "channel": 1,
      "note": 50,
      "start": 27.825,
      "duration": 0.2697,
      "velocity": 91,
      "chip": "ym2612"
    },
    {
      "channel": 2,
      "note": 58,
      "start": 27.8268,
      "duration": 0.2642,
      "velocity": 105,
      "chip": "ym2612"
    },
    {
      "channel": 0,
      "note": 86,
      "start": 28.0944,
      "duration": 1.7512,
      "velocity": 111,
      "chip": "ym2612"
    },
    {
      "channel": 1,
      "note": 49,
      "start": 28.0952,
      "duration": 0.4459,
      "velocity": 91,
      "chip": "ym2612"
    },
    {
      "channel": 3,
      "note": 66,
      "start": 28.096,
      "duration": 2.1609,
      "velocity": 94,
      "chip": "ym2612"
    },
    {
      "channel": 2,
      "note": 23,
      "start": 28.0973,
      "duration": 0.1304,
      "velocity": 127,
      "chip": "ym2612"
    },
    {
      "channel": 4,
      "note": 74,
      "start": 28.1379,
      "duration": 2.1585,
      "velocity": 94,
      "chip": "ym2612"
    },
    {
      "channel": 5,
      "note": 70,
      "start": 28.1387,
      "duration": 2.1585,
      "velocity": 94,
      "chip": "ym2612"
    },
    {
      "channel": 2,
      "note": 58,
      "start": 28.3661,
      "duration": 0.2667,
      "velocity": 105,
      "chip": "ym2612"
    },
    {
      "channel": 1,
      "note": 54,
      "start": 28.5417,
      "duration": 0.6321,
      "velocity": 91,
      "chip": "ym2612"
    },
    {
      "channel": 2,
      "note": 58,
      "start": 28.816,
      "duration": 0.2667,
      "velocity": 105,
      "chip": "ym2612"
    },
    {
      "channel": 1,
      "note": 57,
      "start": 29.1743,
      "duration": 0.4495,
      "velocity": 91,
      "chip": "ym2612"
    },
    {
      "channel": 2,
      "note": 58,
      "start": 29.1762,
      "duration": 0.2662,
      "velocity": 105,
      "chip": "ym2612"
    },
    {
      "channel": 1,
      "note": 52,
      "start": 29.6244,
      "duration": 0.269,
      "velocity": 91,
      "chip": "ym2612"
    },
    {
      "channel": 2,
      "note": 58,
      "start": 29.6262,
      "duration": 0.2643,
      "velocity": 105,
      "chip": "ym2612"
    },
    {
      "channel": 1,
      "note": 51,
      "start": 29.894,
      "duration": 0.092,
      "velocity": 91,
      "chip": "ym2612"
    },
    {
      "channel": 2,
      "note": 58,
      "start": 29.8958,
      "duration": 0.0847,
      "velocity": 105,
      "chip": "ym2612"
    },
    {
      "channel": 0,
      "note": 81,
      "start": 29.9859,
      "duration": 0.2695,
      "velocity": 111,
      "chip": "ym2612"
    },
    {
      "channel": 1,
      "note": 50,
      "start": 29.9866,
      "duration": 0.2695,
      "velocity": 91,
      "chip": "ym2612"
    },
    {
      "channel": 2,
      "note": 58,
      "start": 29.9884,
      "duration": 0.2623,
      "velocity": 105,
      "chip": "ym2612"
    },
    {
      "channel": 0,
      "note": 84,
      "start": 30.2559,
      "duration": 1.7989,
      "velocity": 111,
      "chip": "ym2612"
    },
    {
      "channel": 1,
      "note": 48,
      "start": 30.2567,
      "duration": 0.4459,
      "velocity": 91,
      "chip": "ym2612"
    },
    {
      "channel": 3,
      "note": 66,
      "start": 30.2575,
      "duration": 2.1571,
      "velocity": 94,
      "chip": "ym2612"
    },
    {
      "channel": 2,
      "note": 23,
      "start": 30.2589,
      "duration": 0.1293,
      "velocity": 127,
      "chip": "ym2612"
    },
    {
      "channel": 4,
      "note": 72,
      "start": 30.2971,
      "duration": 2.159,
      "velocity": 94,
      "chip": "ym2612"
    },
    {
      "channel": 5,
      "note": 69,
      "start": 30.2979,
      "duration": 2.159,
      "velocity": 94,
      "chip": "ym2612"
    },
    {
      "channel": 2,
      "note": 58,
      "start": 30.5255,
      "duration": 0.2667,
      "velocity": 105,
      "chip": "ym2612"
    },
    {
      "channel": 1,
      "note": 54,
      "start": 30.7032,
      "duration": 0.6305,
      "velocity": 91,
      "chip": "ym2612"
    },
    {
      "channel": 2,
      "note": 58,
      "start": 30.9754,
      "duration": 0.2667,
      "velocity": 105,
      "chip": "ym2612"
    },
    {
      "channel": 1,
      "note": 57,
      "start": 31.336,
      "duration": 0.4476,
      "velocity": 91,
      "chip": "ym2612"
    },
    {
      "channel": 2,
      "note": 58,
      "start": 31.3378,
      "duration": 0.266,
      "velocity": 105,
      "chip": "ym2612"
    },
    {
      "channel": 1,
      "note": 52,
      "start": 31.786,
      "duration": 0.2695,
      "velocity": 91,
      "chip": "ym2612"
    },
    {
      "channel": 2,
      "note": 58,
      "start": 31.7879,
      "duration": 0.2622,
      "velocity": 105,
      "chip": "ym2612"
    },
    {
      "channel": 0,
      "note": 83,
      "start": 32.0553,
      "duration": 0.0876,
      "velocity": 111,
      "chip": "ym2612"
    },
    {
      "channel": 1,
      "note": 51,
      "start": 32.0561,
      "duration": 0.0876,
      "velocity": 91,
      "chip": "ym2612"
    },
    {
      "channel": 2,
      "note": 58,
      "start": 32.0578,
      "duration": 0.0823,
      "velocity": 105,
      "chip": "ym2612"
    },
    {
      "channel": 0,
      "note": 81,
      "start": 32.1435,
      "duration": 0.2697,
      "velocity": 111,
      "chip": "ym2612"
    },
    {
      "channel": 1,
      "note": 50,
      "start": 32.1442,
      "duration": 0.2696,
      "velocity": 91,
      "chip": "ym2612"
    },
    {
      "channel": 2,
      "note": 58,
      "start": 32.146,
      "duration": 0.2642,
      "velocity": 105,
      "chip": "ym2612"
    },
    {
      "channel": 0,
      "note": 78,
      "start": 32.4137,
      "duration": 1.8907,
      "velocity": 111,
      "chip": "ym2612"
    },
    {
      "channel": 1,
      "note": 49,
      "start": 32.4145,
      "duration": 0.4459,
      "velocity": 91,
      "chip": "ym2612"
    },
    {
      "channel": 3,
      "note": 62,
      "start": 32.4154,
      "duration": 2.1592,
      "velocity": 94,
      "chip": "ym2612"
    },
    {
      "channel": 2,
      "note": 23,
      "start": 32.4168,
      "duration": 0.1302,
      "velocity": 127,
      "chip": "ym2612"
    },
    {
      "channel": 4,
      "note": 73,
      "start": 32.4567,
      "duration": 2.1593,
      "velocity": 94,
      "chip": "ym2612"
    },
    {
      "channel": 5,
      "note": 68,
      "start": 32.4574,
      "duration": 2.1595,
      "velocity": 94,
      "chip": "ym2612"
    },
    {
      "channel": 2,
      "note": 58,
      "start": 32.6872,
      "duration": 0.2665,
      "velocity": 105,
      "chip": "ym2612"
    },
    {
      "channel": 1,
      "note": 54,
      "start": 32.861,
      "duration": 0.6321,
      "velocity": 91,
      "chip": "ym2612"
    },
    {
      "channel": 2,
      "note": 58,
      "start": 33.1371,
      "duration": 0.2665,
      "velocity": 105,
      "chip": "ym2612"
    },
    {
      "channel": 1,
      "note": 57,
      "start": 33.4936,
      "duration": 0.4494,
      "velocity": 91,
      "chip": "ym2612"
    },
    {
      "channel": 2,
      "note": 58,
      "start": 33.4954,
      "duration": 0.2662,
      "velocity": 105,
      "chip": "ym2612"
    },
    {
      "channel": 1,
      "note": 52,
      "start": 33.9436,
      "duration": 0.2693,
      "velocity": 91,
      "chip": "ym2612"
    },
    {
      "channel": 2,
      "note": 58,
      "start": 33.9454,
      "duration": 0.2644,
      "velocity": 105,
      "chip": "ym2612"
    },
    {
      "channel": 1,
      "note": 51,
      "start": 34.2135,
      "duration": 0.0912,
      "velocity": 91,
      "chip": "ym2612"
    },
    {
      "channel": 2,
      "note": 58,
      "start": 34.2156,
      "duration": 0.0842,
      "velocity": 105,
      "chip": "ym2612"
    },
    {
      "channel": 1,
      "note": 50,
      "start": 34.3053,
      "duration": 0.2685,
      "velocity": 91,
      "chip": "ym2612"
    },
    {
      "channel": 2,
      "note": 58,
      "start": 34.3071,
      "duration": 0.263,
      "velocity": 105,
      "chip": "ym2612"
    },
    {
      "channel": 0,
      "note": 88,
      "start": 34.5735,
      "duration": 1.751,
      "velocity": 111,
      "chip": "ym2612"
    },
    {
      "channel": 1,
      "note": 49,
      "start": 34.5743,
      "duration": 0.4457,
      "velocity": 91,
      "chip": "ym2612"
    },
    {
      "channel": 3,
      "note": 66,
      "start": 34.5751,
      "duration": 2.1608,
      "velocity": 94,
      "chip": "ym2612"
    },
    {
      "channel": 2,
      "note": 23,
      "start": 34.5766,
      "duration": 0.13,
      "velocity": 127,
      "chip": "ym2612"
    },
    {
      "channel": 4,
      "note": 76,
      "start": 34.6166,
      "duration": 2.1588,
      "velocity": 94,
      "chip": "ym2612"
    },
    {
      "channel": 5,
      "note": 71,
      "start": 34.6193,
      "duration": 2.1569,
      "velocity": 94,
      "chip": "ym2612"
    },
    {
      "channel": 2,
      "note": 58,
      "start": 34.8448,
      "duration": 0.2667,
      "velocity": 105,
      "chip": "ym2612"
    },
    {
      "channel": 1,
      "note": 54,
      "start": 35.0206,
      "duration": 0.634,
      "velocity": 91,
      "chip": "ym2612"
    },
    {
      "channel": 2,
      "note": 58,
      "start": 35.2947,
      "duration": 0.2668,
      "velocity": 105,
      "chip": "ym2612"
    },
    {
      "channel": 1,
      "note": 57,
      "start": 35.6551,
      "duration": 0.4494,
      "velocity": 91,
      "chip": "ym2612"
    },
    {
      "channel": 2,
      "note": 58,
      "start": 35.657,
      "duration": 0.2644,
      "velocity": 105,
      "chip": "ym2612"
    },
    {
      "channel": 1,
      "note": 52,
      "start": 36.1051,
      "duration": 0.2677,
      "velocity": 91,
      "chip": "ym2612"
    },
    {
      "channel": 2,
      "note": 58,
      "start": 36.1069,
      "duration": 0.263,
      "velocity": 105,
      "chip": "ym2612"
    },
    {
      "channel": 1,
      "note": 51,
      "start": 36.3734,
      "duration": 0.0896,
      "velocity": 91,
      "chip": "ym2612"
    },
    {
      "channel": 2,
      "note": 58,
      "start": 36.3751,
      "duration": 0.0843,
      "velocity": 105,
      "chip": "ym2612"
    },
    {
      "channel": 0,
      "note": 83,
      "start": 36.4628,
      "duration": 0.2698,
      "velocity": 111,
      "chip": "ym2612"
    },
    {
      "channel": 1,
      "note": 50,
      "start": 36.4636,
      "duration": 0.2698,
      "velocity": 91,
      "chip": "ym2612"
    },
    {
      "channel": 2,
      "note": 58,
      "start": 36.4656,
      "duration": 0.264,
      "velocity": 105,
      "chip": "ym2612"
    },
    {
      "channel": 0,
      "note": 86,
      "start": 36.7332,
      "duration": 1.7527,
      "velocity": 111,
      "chip": "ym2612"
    },
    {
      "channel": 1,
      "note": 49,
      "start": 36.7359,
      "duration": 0.4438,
      "velocity": 91,
      "chip": "ym2612"
    },
    {
      "channel": 3,
      "note": 66,
      "start": 36.7366,
      "duration": 2.1569,
      "velocity": 94,
      "chip": "ym2612"
    },
    {
      "channel": 2,
      "note": 23,
      "start": 36.738,
      "duration": 0.1285,
      "velocity": 127,
      "chip": "ym2612"
    },
    {
      "channel": 4,
      "note": 74,
      "start": 36.7761,
      "duration": 2.1608,
      "velocity": 94,
      "chip": "ym2612"
    },
    {
      "channel": 5,
      "note": 70,
      "start": 36.7767,
      "duration": 2.1609,
      "velocity": 94,
      "chip": "ym2612"
    },
    {
      "channel": 2,
      "note": 58,
      "start": 37.0063,
      "duration": 0.2654,
      "velocity": 105,
      "chip": "ym2612"
    },
    {
      "channel": 1,
      "note": 54,
      "start": 37.1802,
      "duration": 0.6321,
      "velocity": 91,
      "chip": "ym2612"
    },
    {
      "channel": 2,
      "note": 58,
      "start": 37.4562,
      "duration": 0.2652,
      "velocity": 105,
      "chip": "ym2612"
    },
    {
      "channel": 1,
      "note": 57,
      "start": 37.8129,
      "duration": 0.4494,
      "velocity": 91,
      "chip": "ym2612"
    },
    {
      "channel": 2,
      "note": 58,
      "start": 37.8148,
      "duration": 0.2662,
      "velocity": 105,
      "chip": "ym2612"
    },
    {
      "channel": 1,
      "note": 52,
      "start": 38.2629,
      "duration": 0.2693,
      "velocity": 91,
      "chip": "ym2612"
    },
    {
      "channel": 2,
      "note": 58,
      "start": 38.2648,
      "duration": 0.2643,
      "velocity": 105,
      "chip": "ym2612"
    },
    {
      "channel": 1,
      "note": 51,
      "start": 38.5328,
      "duration": 0.0903,
      "velocity": 91,
      "chip": "ym2612"
    },
    {
      "channel": 2,
      "note": 58,
      "start": 38.5364,
      "duration": 0.0831,
      "velocity": 105,
      "chip": "ym2612"
    },
    {
      "channel": 0,
      "note": 81,
      "start": 38.6229,
      "duration": 0.2691,
      "velocity": 111,
      "chip": "ym2612"
    },
    {
      "channel": 1,
      "note": 50,
      "start": 38.6237,
      "duration": 0.2691,
      "velocity": 91,
      "chip": "ym2612"
    },
    {
      "channel": 2,
      "note": 58,
      "start": 38.6255,
      "duration": 0.2637,
      "velocity": 105,
      "chip": "ym2612"
    },
    {
      "channel": 0,
      "note": 84,
      "start": 38.8926,
      "duration": 1.799,
      "velocity": 111,
      "chip": "ym2612"
    },
    {
      "channel": 1,
      "note": 48,
      "start": 38.8934,
      "duration": 0.4459,
      "velocity": 91,
      "chip": "ym2612"
    },
    {
      "channel": 3,
      "note": 66,
      "start": 38.8942,
      "duration": 2.1614,
      "velocity": 94,
      "chip": "ym2612"
    },
    {
      "channel": 2,
      "note": 23,
      "start": 38.8956,
      "duration": 0.1305,
      "velocity": 127,
      "chip": "ym2612"
    },
    {
      "channel": 4,
      "note": 72,
      "start": 38.9375,
      "duration": 2.1572,
      "velocity": 94,
      "chip": "ym2612"
    },
    {
      "channel": 5,
      "note": 69,
      "start": 38.9383,
      "duration": 2.1572,
      "velocity": 94,
      "chip": "ym2612"
    },
    {
      "channel": 2,
      "note": 58,
      "start": 39.1641,
      "duration": 0.2666,
      "velocity": 105,
      "chip": "ym2612"
    },
    {
      "channel": 1,
      "note": 54,
      "start": 39.34,
      "duration": 0.6331,
      "velocity": 91,
      "chip": "ym2612"
    },
    {
      "channel": 2,
      "note": 58,
      "start": 39.614,
      "duration": 0.2667,
      "velocity": 105,
      "chip": "ym2612"
    },
    {
      "channel": 1,
      "note": 57,
      "start": 39.9737,
      "duration": 0.4491,
      "velocity": 91,
      "chip": "ym2612"
    },
    {
      "channel": 2,
      "note": 58,
      "start": 39.9755,
      "duration": 0.2652,
      "velocity": 105,
      "chip": "ym2612"
    },
    {
      "channel": 1,
      "note": 52,
      "start": 40.4234,
      "duration": 0.269,
      "velocity": 91,
      "chip": "ym2612"
    },
    {
      "channel": 2,
      "note": 58,
      "start": 40.4251,
      "duration": 0.2636,
      "velocity": 105,
      "chip": "ym2612"
    },
    {
      "channel": 0,
      "note": 95,
      "start": 40.6922,
      "duration": 0.0893,
      "velocity": 111,
      "chip": "ym2612"
    },
    {
      "channel": 1,
      "note": 51,
      "start": 40.6929,
      "duration": 0.0896,
      "velocity": 91,
      "chip": "ym2612"
    },
    {
      "channel": 2,
      "note": 58,
      "start": 40.6947,
      "duration": 0.084,
      "velocity": 105,
      "chip": "ym2612"
    },
    {
      "channel": 0,
      "note": 93,
      "start": 40.7823,
      "duration": 0.2718,
      "velocity": 111,
      "chip": "ym2612"
    },
    {
      "channel": 1,
      "note": 50,
      "start": 40.783,
      "duration": 0.2718,
      "velocity": 91,
      "chip": "ym2612"
    },
    {
      "channel": 2,
      "note": 58,
      "start": 40.7867,
      "duration": 0.2628,
      "velocity": 105,
      "chip": "ym2612"
    },
    {
      "channel": 0,
      "note": 90,
      "start": 41.0547,
      "duration": 0.9839,
      "velocity": 111,
      "chip": "ym2612"
    },
    {
      "channel": 1,
      "note": 49,
      "start": 41.0554,
      "duration": 0.4437,
      "velocity": 91,
      "chip": "ym2612"
    },
    {
      "channel": 3,
      "note": 68,
      "start": 41.0561,
      "duration": 2.1596,
      "velocity": 94,
      "chip": "ym2612"
    },
    {
      "channel": 2,
      "note": 23,
      "start": 41.0576,
      "duration": 0.1298,
      "velocity": 127,
      "chip": "ym2612"
    },
    {
      "channel": 4,
      "note": 76,
      "start": 41.0953,
      "duration": 2.1674,
      "velocity": 94,
      "chip": "ym2612"
    },
    {
      "channel": 5,
      "note": 71,
      "start": 41.0961,
      "duration": 2.1702,
      "velocity": 94,
      "chip": "ym2612"
    },
    {
      "channel": 2,
      "note": 72,
      "start": 41.3248,
      "duration": 0.4449,
      "velocity": 105,
      "chip": "ym2612"
    },
    {
      "channel": 1,
      "note": 54,
      "start": 41.4997,
      "duration": 0.6316,
      "velocity": 91,
      "chip": "ym2612"
    },
    {
      "channel": 2,
      "note": 64,
      "start": 41.775,
      "duration": 0.2653,
      "velocity": 105,
      "chip": "ym2612"
    },
    {
      "channel": 1,
      "note": 57,
      "start": 42.1322,
      "duration": 0.4498,
      "velocity": 91,
      "chip": "ym2612"
    },
    {
      "channel": 2,
      "note": 58,
      "start": 42.134,
      "duration": 0.2665,
      "velocity": 105,
      "chip": "ym2612"
    },
    {
      "channel": 0,
      "note": 76,
      "start": 42.3118,
      "duration": 0.358,
      "velocity": 104,
      "chip": "ym2612"
    },
    {
      "channel": 1,
      "note": 52,
      "start": 42.5825,
      "duration": 0.271,
      "velocity": 91,
      "chip": "ym2612"
    },
    {
      "channel": 2,
      "note": 58,
      "start": 42.5862,
      "duration": 0.2624,
      "velocity": 105,
      "chip": "ym2612"
    },
    {
      "channel": 0,
      "note": 78,
      "start": 42.6705,
      "duration": 0.2707,
      "velocity": 104,
      "chip": "ym2612"
    },
    {
      "channel": 1,
      "note": 51,
      "start": 42.8542,
      "duration": 0.0878,
      "velocity": 91,
      "chip": "ym2612"
    },
    {
      "channel": 2,
      "note": 71,
      "start": 42.8563,
      "duration": 0.0821,
      "velocity": 120,
      "chip": "ym2612"
    },
    {
      "channel": 0,
      "note": 79,
      "start": 42.9418,
      "duration": 0.2695,
      "velocity": 104,
      "chip": "ym2612"
    },
    {
      "channel": 1,
      "note": 50,
      "start": 42.9426,
      "duration": 0.2696,
      "velocity": 91,
      "chip": "ym2612"
    },
    {
      "channel": 2,
      "note": 58,
      "start": 42.9444,
      "duration": 0.2641,
      "velocity": 105,
      "chip": "ym2612"
    },
    {
      "channel": 0,
      "note": 81,
      "start": 43.212,
      "duration": 0.4127,
      "velocity": 104,
      "chip": "ym2612"
    },
    {
      "channel": 1,
      "note": 55,
      "start": 43.2128,
      "duration": 0.3672,
      "velocity": 91,
      "chip": "ym2612"
    },
    {
      "channel": 3,
      "note": 69,
      "start": 43.2164,
      "duration": 1.2204,
      "velocity": 94,
      "chip": "ym2612"
    },
    {
      "channel": 2,
      "note": 23,
      "start": 43.2196,
      "duration": 0.1369,
      "velocity": 127,
      "chip": "ym2612"
    },
    {
      "channel": 4,
      "note": 66,
      "start": 43.2633,
      "duration": 1.2173,
      "velocity": 94,
      "chip": "ym2612"
    },
    {
      "channel": 5,
      "note": 60,
      "start": 43.2669,
      "duration": 1.2141,
      "velocity": 94,
      "chip": "ym2612"
    },
    {
      "channel": 2,
      "note": 58,
      "start": 43.4948,
      "duration": 0.2666,
      "velocity": 105,
      "chip": "ym2612"
    },
    {
      "channel": 1,
      "note": 48,
      "start": 43.5806,
      "duration": 0.4497,
      "velocity": 91,
      "chip": "ym2612"
    },
    {
      "channel": 0,
      "note": 79,
      "start": 43.6254,
      "duration": 0.4042,
      "velocity": 104,
      "chip": "ym2612"
    },
    {
      "channel": 2,
      "note": 58,
      "start": 43.9447,
      "duration": 0.2666,
      "velocity": 105,
      "chip": "ym2612"
    },
    {
      "channel": 0,
      "note": 78,
      "start": 44.0302,
      "duration": 0.2738,
      "velocity": 104,
      "chip": "ym2612"
    },
    {
      "channel": 1,
      "note": 51,
      "start": 44.031,
      "duration": 0.2734,
      "velocity": 91,
      "chip": "ym2612"
    },
    {
      "channel": 1,
      "note": 55,
      "start": 44.3049,
      "duration": 0.355,
      "velocity": 91,
      "chip": "ym2612"
    },
    {
      "channel": 2,
      "note": 58,
      "start": 44.3068,
      "duration": 0.2649,
      "velocity": 105,
      "chip": "ym2612"
    },
    {
      "channel": 0,
      "note": 76,
      "start": 44.48,
      "duration": 0.3594,
      "velocity": 104,
      "chip": "ym2612"
    },
    {
      "channel": 3,
      "note": 69,
      "start": 44.5713,
      "duration": 0.1339,
      "velocity": 94,
      "chip": "ym2612"
    },
    {
      "channel": 4,
      "note": 66,
      "start": 44.6163,
      "duration": 0.1387,
      "velocity": 94,
      "chip": "ym2612"
    },
    {
      "channel": 5,
      "note": 60,
      "start": 44.617,
      "duration": 0.1382,
      "velocity": 94,
      "chip": "ym2612"
    },
    {
      "channel": 1,
      "note": 48,
      "start": 44.6605,
      "duration": 0.4524,
      "velocity": 91,
      "chip": "ym2612"
    },
    {
      "channel": 2,
      "note": 58,
      "start": 44.7561,
      "duration": 0.2634,
      "velocity": 105,
      "chip": "ym2612"
    },
    {
      "channel": 0,
      "note": 78,
      "start": 44.8401,
      "duration": 0.2719,
      "velocity": 104,
      "chip": "ym2612"
    },
    {
      "channel": 3,
      "note": 69,
      "start": 44.9756,
      "duration": 0.138,
      "velocity": 94,
      "chip": "ym2612"
    },
    {
      "channel": 4,
      "note": 66,
      "start": 45.0241,
      "duration": 0.131,
      "velocity": 94,
      "chip": "ym2612"
    },
    {
      "channel": 5,
      "note": 60,
      "start": 45.0248,
      "duration": 0.1306,
      "velocity": 94,
      "chip": "ym2612"
    },
    {
      "channel": 2,
      "note": 58,
      "start": 45.0256,
      "duration": 0.0837,
      "velocity": 105,
      "chip": "ym2612"
    },
    {
      "channel": 0,
      "note": 79,
      "start": 45.1127,
      "duration": 0.2697,
      "velocity": 104,
      "chip": "ym2612"
    },
    {
      "channel": 1,
      "note": 53,
      "start": 45.1134,
      "duration": 0.2698,
      "velocity": 91,
      "chip": "ym2612"
    },
    {
      "channel": 2,
      "note": 58,
      "start": 45.1154,
      "duration": 0.264,
      "velocity": 105,
      "chip": "ym2612"
    },
    {
      "channel": 0,
      "note": 81,
      "start": 45.3831,
      "duration": 0.403,
      "velocity": 104,
      "chip": "ym2612"
    },
    {
      "channel": 1,
      "note": 55,
      "start": 45.384,
      "duration": 0.3556,
      "velocity": 91,
      "chip": "ym2612"
    },
    {
      "channel": 3,
      "note": 69,
      "start": 45.3865,
      "duration": 1.2081,
      "velocity": 94,
      "chip": "ym2612"
    },
    {
      "channel": 2,
      "note": 23,
      "start": 45.3874,
      "duration": 0.129,
      "velocity": 127,
      "chip": "ym2612"
    },
    {
      "channel": 4,
      "note": 64,
      "start": 45.4259,
      "duration": 1.2144,
      "velocity": 94,
      "chip": "ym2612"
    },
    {
      "channel": 5,
      "note": 60,
      "start": 45.4266,
      "duration": 1.2141,
      "velocity": 94,
      "chip": "ym2612"
    },
    {
      "channel": 2,
      "note": 58,
      "start": 45.6565,
      "duration": 0.265,
      "velocity": 105,
      "chip": "ym2612"
    },
    {
      "channel": 1,
      "note": 48,
      "start": 45.7402,
      "duration": 0.4499,
      "velocity": 91,
      "chip": "ym2612"
    },
    {
      "channel": 0,
      "note": 79,
      "start": 45.7868,
      "duration": 0.4024,
      "velocity": 104,
      "chip": "ym2612"
    },
    {
      "channel": 2,
      "note": 58,
      "start": 46.1062,
      "duration": 0.2657,
      "velocity": 105,
      "chip": "ym2612"
    },
    {
      "channel": 0,
      "note": 78,
      "start": 46.1899,
      "duration": 0.2719,
      "velocity": 104,
      "chip": "ym2612"
    },
    {
      "channel": 1,
      "note": 51,
      "start": 46.1906,
      "duration": 0.2715,
      "velocity": 91,
      "chip": "ym2612"
    },
    {
      "channel": 1,
      "note": 55,
      "start": 46.4627,
      "duration": 0.3574,
      "velocity": 91,
      "chip": "ym2612"
    },
    {
      "channel": 2,
      "note": 58,
      "start": 46.4645,
      "duration": 0.2662,
      "velocity": 105,
      "chip": "ym2612"
    },
    {
      "channel": 0,
      "note": 76,
      "start": 46.6397,
      "duration": 0.3593,
      "velocity": 104,
      "chip": "ym2612"
    },
    {
      "channel": 3,
      "note": 69,
      "start": 46.7304,
      "duration": 0.1344,
      "velocity": 94,
      "chip": "ym2612"
    },
    {
      "channel": 4,
      "note": 64,
      "start": 46.7757,
      "duration": 0.1371,
      "velocity": 94,
      "chip": "ym2612"
    },
    {
      "channel": 5,
      "note": 60,
      "start": 46.7764,
      "duration": 0.1367,
      "velocity": 94,
      "chip": "ym2612"
    },
    {
      "channel": 1,
      "note": 48,
      "start": 46.8207,
      "duration": 0.4529,
      "velocity": 91,
      "chip": "ym2612"
    },
    {
      "channel": 2,
      "note": 58,
      "start": 46.914,
      "duration": 0.2649,
      "velocity": 105,
      "chip": "ym2612"
    },
    {
      "channel": 0,
      "note": 78,
      "start": 46.9997,
      "duration": 0.273,
      "velocity": 104,
      "chip": "ym2612"
    },
    {
      "channel": 3,
      "note": 69,
      "start": 47.1371,
      "duration": 0.1371,
      "velocity": 94,
      "chip": "ym2612"
    },
    {
      "channel": 4,
      "note": 64,
      "start": 47.1837,
      "duration": 0.1311,
      "velocity": 94,
      "chip": "ym2612"
    },
    {
      "channel": 5,
      "note": 60,
      "start": 47.1862,
      "duration": 0.1291,
      "velocity": 94,
      "chip": "ym2612"
    },
    {
      "channel": 2,
      "note": 58,
      "start": 47.187,
      "duration": 0.0829,
      "velocity": 105,
      "chip": "ym2612"
    },
    {
      "channel": 0,
      "note": 79,
      "start": 47.2734,
      "duration": 0.2685,
      "velocity": 104,
      "chip": "ym2612"
    },
    {
      "channel": 1,
      "note": 53,
      "start": 47.2741,
      "duration": 0.2687,
      "velocity": 91,
      "chip": "ym2612"
    },
    {
      "channel": 2,
      "note": 58,
      "start": 47.2759,
      "duration": 0.2632,
      "velocity": 105,
      "chip": "ym2612"
    },
    {
      "channel": 0,
      "note": 81,
      "start": 47.5426,
      "duration": 0.4014,
      "velocity": 104,
      "chip": "ym2612"
    },
    {
      "channel": 1,
      "note": 55,
      "start": 47.5434,
      "duration": 0.3561,
      "velocity": 91,
      "chip": "ym2612"
    },
    {
      "channel": 3,
      "note": 69,
      "start": 47.5442,
      "duration": 1.2104,
      "velocity": 94,
      "chip": "ym2612"
    },
    {
      "channel": 2,
      "note": 23,
      "start": 47.5451,
      "duration": 0.1307,
      "velocity": 127,
      "chip": "ym2612"
    },
    {
      "channel": 4,
      "note": 66,
      "start": 47.5874,
      "duration": 1.2124,
      "velocity": 94,
      "chip": "ym2612"
    },
    {
      "channel": 5,
      "note": 60,
      "start": 47.5881,
      "duration": 1.212,
      "velocity": 94,
      "chip": "ym2612"
    },
    {
      "channel": 2,
      "note": 58,
      "start": 47.8141,
      "duration": 0.2665,
      "velocity": 105,
      "chip": "ym2612"
    },
    {
      "channel": 1,
      "note": 48,
      "start": 47.9,
      "duration": 0.4498,
      "velocity": 91,
      "chip": "ym2612"
    },
    {
      "channel": 0,
      "note": 79,
      "start": 47.9447,
      "duration": 0.4043,
      "velocity": 104,
      "chip": "ym2612"
    },
    {
      "channel": 2,
      "note": 58,
      "start": 48.264,
      "duration": 0.2663,
      "velocity": 105,
      "chip": "ym2612"
    },
    {
      "channel": 0,
      "note": 81,
      "start": 48.3497,
      "duration": 0.1341,
      "velocity": 104,
      "chip": "ym2612"
    },
    {
      "channel": 1,
      "note": 51,
      "start": 48.3504,
      "duration": 0.2728,
      "velocity": 91,
      "chip": "ym2612"
    },
    {
      "channel": 0,
      "note": 86,
      "start": 48.6231,
      "duration": 0.4006,
      "velocity": 104,
      "chip": "ym2612"
    },
    {
      "channel": 1,
      "note": 55,
      "start": 48.6238,
      "duration": 0.3554,
      "velocity": 91,
      "chip": "ym2612"
    },
    {
      "channel": 2,
      "note": 58,
      "start": 48.6256,
      "duration": 0.2649,
      "velocity": 105,
      "chip": "ym2612"
    },
    {
      "channel": 3,
      "note": 69,
      "start": 48.8901,
      "duration": 0.1348,
      "velocity": 94,
      "chip": "ym2612"
    },
    {
      "channel": 4,
      "note": 66,
      "start": 48.9372,
      "duration": 0.1363,
      "velocity": 94,
      "chip": "ym2612"
    },
    {
      "channel": 5,
      "note": 60,
      "start": 48.938,
      "duration": 0.1359,
      "velocity": 94,
      "chip": "ym2612"
    },
    {
      "channel": 1,
      "note": 48,
      "start": 48.9797,
      "duration": 0.4527,
      "velocity": 91,
      "chip": "ym2612"
    },
    {
      "channel": 0,
      "note": 88,
      "start": 49.0244,
      "duration": 0.407,
      "velocity": 104,
      "chip": "ym2612"
    },
    {
      "channel": 2,
      "note": 58,
      "start": 49.0748,
      "duration": 0.2638,
      "velocity": 105,
      "chip": "ym2612"
    },
    {
      "channel": 3,
      "note": 69,
      "start": 49.295,
      "duration": 0.1381,
      "velocity": 94,
      "chip": "ym2612"
    },
    {
      "channel": 4,
      "note": 66,
      "start": 49.3432,
      "duration": 0.1312,
      "velocity": 94,
      "chip": "ym2612"
    },
    {
      "channel": 5,
      "note": 60,
      "start": 49.3439,
      "duration": 0.1308,
      "velocity": 94,
      "chip": "ym2612"
    },
    {
      "channel": 2,
      "note": 58,
      "start": 49.3447,
      "duration": 0.0839,
      "velocity": 105,
      "chip": "ym2612"
    },
    {
      "channel": 0,
      "note": 84,
      "start": 49.4323,
      "duration": 0.2712,
      "velocity": 104,
      "chip": "ym2612"
    },
    {
      "channel": 1,
      "note": 53,
      "start": 49.433,
      "duration": 0.2715,
      "velocity": 91,
      "chip": "ym2612"
    },
    {
      "channel": 2,
      "note": 58,
      "start": 49.4366,
      "duration": 0.2624,
      "velocity": 105,
      "chip": "ym2612"
    },
    {
      "channel": 0,
      "note": 83,
      "start": 49.7042,
      "duration": 1.0769,
      "velocity": 104,
      "chip": "ym2612"
    },
    {
      "channel": 1,
      "note": 59,
      "start": 49.7051,
      "duration": 0.3539,
      "velocity": 91,
      "chip": "ym2612"
    },
    {
      "channel": 3,
      "note": 71,
      "start": 49.7058,
      "duration": 1.2081,
      "velocity": 94,
      "chip": "ym2612"
    },
    {
      "channel": 2,
      "note": 23,
      "start": 49.7067,
      "duration": 0.1305,
      "velocity": 127,
      "chip": "ym2612"
    },
    {
      "channel": 4,
      "note": 64,
      "start": 49.7453,
      "duration": 1.2144,
      "velocity": 94,
      "chip": "ym2612"
    },
    {
      "channel": 5,
      "note": 67,
      "start": 49.746,
      "duration": 1.214,
      "velocity": 94,
      "chip": "ym2612"
    },
    {
      "channel": 2,
      "note": 58,
      "start": 49.9751,
      "duration": 0.2652,
      "velocity": 105,
      "chip": "ym2612"
    },
    {
      "channel": 1,
      "note": 52,
      "start": 50.0596,
      "duration": 0.4494,
      "velocity": 91,
      "chip": "ym2612"
    },
    {
      "channel": 2,
      "note": 58,
      "start": 50.4248,
      "duration": 0.2655,
      "velocity": 105,
      "chip": "ym2612"
    },
    {
      "channel": 1,
      "note": 55,
      "start": 50.5095,
      "duration": 0.272,
      "velocity": 91,
      "chip": "ym2612"
    },
    {
      "channel": 1,
      "note": 59,
      "start": 50.7823,
      "duration": 0.3565,
      "velocity": 91,
      "chip": "ym2612"
    },
    {
      "channel": 2,
      "note": 58,
      "start": 50.7859,
      "duration": 0.2644,
      "velocity": 105,
      "chip": "ym2612"
    },
    {
      "channel": 0,
      "note": 76,
      "start": 50.9591,
      "duration": 0.3605,
      "velocity": 104,
      "chip": "ym2612"
    },
    {
      "channel": 3,
      "note": 71,
      "start": 51.0498,
      "duration": 0.1361,
      "velocity": 94,
      "chip": "ym2612"
    },
    {
      "channel": 4,
      "note": 64,
      "start": 51.095,
      "duration": 0.1373,
      "velocity": 94,
      "chip": "ym2612"
    },
    {
      "channel": 5,
      "note": 67,
      "start": 51.0957,
      "duration": 0.1369,
      "velocity": 94,
      "chip": "ym2612"
    },
    {
      "channel": 1,
      "note": 52,
      "start": 51.1393,
      "duration": 0.4525,
      "velocity": 91,
      "chip": "ym2612"
    },
    {
      "channel": 2,
      "note": 58,
      "start": 51.2336,
      "duration": 0.2647,
      "velocity": 105,
      "chip": "ym2612"
    },
    {
      "channel": 0,
      "note": 78,
      "start": 51.3203,
      "duration": 0.2707,
      "velocity": 104,
      "chip": "ym2612"
    },
    {
      "channel": 3,
      "note": 71,
      "start": 51.4546,
      "duration": 0.138,
      "velocity": 94,
      "chip": "ym2612"
    },
    {
      "channel": 4,
      "note": 64,
      "start": 51.5049,
      "duration": 0.1309,
      "velocity": 94,
      "chip": "ym2612"
    },
    {
      "channel": 5,
      "note": 67,
      "start": 51.5056,
      "duration": 0.1306,
      "velocity": 94,
      "chip": "ym2612"
    },
    {
      "channel": 2,
      "note": 58,
      "start": 51.5063,
      "duration": 0.0819,
      "velocity": 105,
      "chip": "ym2612"
    },
    {
      "channel": 0,
      "note": 79,
      "start": 51.5917,
      "duration": 0.2695,
      "velocity": 104,
      "chip": "ym2612"
    },
    {
      "channel": 1,
      "note": 55,
      "start": 51.5924,
      "duration": 0.2695,
      "velocity": 91,
      "chip": "ym2612"
    },
    {
      "channel": 2,
      "note": 58,
      "start": 51.5942,
      "duration": 0.2641,
      "velocity": 105,
      "chip": "ym2612"
    },
    {
      "channel": 0,
      "note": 81,
      "start": 51.8619,
      "duration": 0.4015,
      "velocity": 104,
      "chip": "ym2612"
    },
    {
      "channel": 1,
      "note": 55,
      "start": 51.8626,
      "duration": 0.3575,
      "velocity": 91,
      "chip": "ym2612"
    },
    {
      "channel": 3,
      "note": 69,
      "start": 51.8633,
      "duration": 1.2102,
      "velocity": 94,
      "chip": "ym2612"
    },
    {
      "channel": 2,
      "note": 23,
      "start": 51.8642,
      "duration": 0.1308,
      "velocity": 127,
      "chip": "ym2612"
    },
    {
      "channel": 4,
      "note": 66,
      "start": 51.9048,
      "duration": 1.2161,
      "velocity": 94,
      "chip": "ym2612"
    },
    {
      "channel": 5,
      "note": 60,
      "start": 51.9056,
      "duration": 1.2156,
      "velocity": 94,
      "chip": "ym2612"
    },
    {
      "channel": 2,
      "note": 58,
      "start": 52.1337,
      "duration": 0.2664,
      "velocity": 105,
      "chip": "ym2612"
    },
    {
      "channel": 1,
      "note": 48,
      "start": 52.2206,
      "duration": 0.4501,
      "velocity": 91,
      "chip": "ym2612"
    },
    {
      "channel": 0,
      "note": 79,
      "start": 52.264,
      "duration": 0.4059,
      "velocity": 104,
      "chip": "ym2612"
    },
    {
      "channel": 2,
      "note": 58,
      "start": 52.5836,
      "duration": 0.2666,
      "velocity": 105,
      "chip": "ym2612"
    },
    {
      "channel": 0,
      "note": 78,
      "start": 52.6706,
      "duration": 0.2702,
      "velocity": 104,
      "chip": "ym2612"
    },
    {
      "channel": 1,
      "note": 51,
      "start": 52.6713,
      "duration": 0.2698,
      "velocity": 91,
      "chip": "ym2612"
    },
    {
      "channel": 1,
      "note": 55,
      "start": 52.9417,
      "duration": 0.357,
      "velocity": 91,
      "chip": "ym2612"
    },
    {
      "channel": 2,
      "note": 58,
      "start": 52.9435,
      "duration": 0.2662,
      "velocity": 105,
      "chip": "ym2612"
    },
    {
      "channel": 0,
      "note": 76,
      "start": 53.1203,
      "duration": 0.3576,
      "velocity": 104,
      "chip": "ym2612"
    },
    {
      "channel": 3,
      "note": 69,
      "start": 53.2093,
      "duration": 0.1345,
      "velocity": 94,
      "chip": "ym2612"
    },
    {
      "channel": 4,
      "note": 66,
      "start": 53.2547,
      "duration": 0.137,
      "velocity": 94,
      "chip": "ym2612"
    },
    {
      "channel": 5,
      "note": 60,
      "start": 53.2554,
      "duration": 0.1366,
      "velocity": 94,
      "chip": "ym2612"
    },
    {
      "channel": 1,
      "note": 48,
      "start": 53.2993,
      "duration": 0.4543,
      "velocity": 91,
      "chip": "ym2612"
    },
    {
      "channel": 2,
      "note": 58,
      "start": 53.3929,
      "duration": 0.2649,
      "velocity": 105,
      "chip": "ym2612"
    },
    {
      "channel": 0,
      "note": 78,
      "start": 53.4787,
      "duration": 0.2741,
      "velocity": 104,
      "chip": "ym2612"
    },
    {
      "channel": 3,
      "note": 69,
      "start": 53.6142,
      "duration": 0.1401,
      "velocity": 94,
      "chip": "ym2612"
    },
    {
      "channel": 4,
      "note": 66,
      "start": 53.6624,
      "duration": 0.1312,
      "velocity": 94,
      "chip": "ym2612"
    },
    {
      "channel": 5,
      "note": 60,
      "start": 53.6631,
      "duration": 0.1309,
      "velocity": 94,
      "chip": "ym2612"
    },
    {
      "channel": 2,
      "note": 58,
      "start": 53.6639,
      "duration": 0.084,
      "velocity": 105,
      "chip": "ym2612"
    },
    {
      "channel": 0,
      "note": 79,
      "start": 53.7534,
      "duration": 0.2691,
      "velocity": 104,
      "chip": "ym2612"
    },
    {
      "channel": 1,
      "note": 53,
      "start": 53.7542,
      "duration": 0.2693,
      "velocity": 91,
      "chip": "ym2612"
    },
    {
      "channel": 2,
      "note": 58,
      "start": 53.7559,
      "duration": 0.2638,
      "velocity": 105,
      "chip": "ym2612"
    },
    {
      "channel": 0,
      "note": 81,
      "start": 54.0232,
      "duration": 0.3997,
      "velocity": 104,
      "chip": "ym2612"
    },
    {
      "channel": 1,
      "note": 55,
      "start": 54.0241,
      "duration": 0.3541,
      "velocity": 91,
      "chip": "ym2612"
    },
    {
      "channel": 3,
      "note": 69,
      "start": 54.0248,
      "duration": 1.2084,
      "velocity": 94,
      "chip": "ym2612"
    },
    {
      "channel": 2,
      "note": 23,
      "start": 54.0257,
      "duration": 0.1292,
      "velocity": 127,
      "chip": "ym2612"
    },
    {
      "channel": 4,
      "note": 64,
      "start": 54.0645,
      "duration": 1.2144,
      "velocity": 94,
      "chip": "ym2612"
    },
    {
      "channel": 5,
      "note": 60,
      "start": 54.0655,
      "duration": 1.2138,
      "velocity": 94,
      "chip": "ym2612"
    },
    {
      "channel": 2,
      "note": 58,
      "start": 54.293,
      "duration": 0.2665,
      "velocity": 105,
      "chip": "ym2612"
    },
    {
      "channel": 1,
      "note": 48,
      "start": 54.3788,
      "duration": 0.4498,
      "velocity": 91,
      "chip": "ym2612"
    },
    {
      "channel": 0,
      "note": 79,
      "start": 54.4236,
      "duration": 0.4041,
      "velocity": 104,
      "chip": "ym2612"
    },
    {
      "channel": 2,
      "note": 58,
      "start": 54.743,
      "duration": 0.2667,
      "velocity": 105,
      "chip": "ym2612"
    },
    {
      "channel": 0,
      "note": 78,
      "start": 54.8284,
      "duration": 0.2723,
      "velocity": 104,
      "chip": "ym2612"
    },
    {
      "channel": 1,
      "note": 51,
      "start": 54.8292,
      "duration": 0.2737,
      "velocity": 91,
      "chip": "ym2612"
    },
    {
      "channel": 1,
      "note": 55,
      "start": 55.1034,
      "duration": 0.3547,
      "velocity": 91,
      "chip": "ym2612"
    },
    {
      "channel": 2,
      "note": 58,
      "start": 55.1052,
      "duration": 0.266,
      "velocity": 105,
      "chip": "ym2612"
    },
    {
      "channel": 0,
      "note": 86,
      "start": 55.2784,
      "duration": 0.3592,
      "velocity": 104,
      "chip": "ym2612"
    },
    {
      "channel": 3,
      "note": 69,
      "start": 55.3708,
      "duration": 0.1329,
      "velocity": 94,
      "chip": "ym2612"
    },
    {
      "channel": 4,
      "note": 64,
      "start": 55.4143,
      "duration": 0.139,
      "velocity": 94,
      "chip": "ym2612"
    },
    {
      "channel": 5,
      "note": 60,
      "start": 55.4152,
      "duration": 0.1384,
      "velocity": 94,
      "chip": "ym2612"
    },
    {
      "channel": 1,
      "note": 48,
      "start": 55.4587,
      "duration": 0.4525,
      "velocity": 91,
      "chip": "ym2612"
    },
    {
      "channel": 2,
      "note": 58,
      "start": 55.5546,
      "duration": 0.2647,
      "velocity": 105,
      "chip": "ym2612"
    },
    {
      "channel": 0,
      "note": 84,
      "start": 55.6383,
      "duration": 0.2722,
      "velocity": 104,
      "chip": "ym2612"
    },
    {
      "channel": 3,
      "note": 69,
      "start": 55.7739,
      "duration": 0.138,
      "velocity": 94,
      "chip": "ym2612"
    },
    {
      "channel": 4,
      "note": 64,
      "start": 55.8239,
      "duration": 0.1298,
      "velocity": 94,
      "chip": "ym2612"
    },
    {
      "channel": 5,
      "note": 60,
      "start": 55.8246,
      "duration": 0.1295,
      "velocity": 94,
      "chip": "ym2612"
    },
    {
      "channel": 2,
      "note": 58,
      "start": 55.8254,
      "duration": 0.0822,
      "velocity": 105,
      "chip": "ym2612"
    },
    {
      "channel": 0,
      "note": 83,
      "start": 55.911,
      "duration": 0.2695,
      "velocity": 104,
      "chip": "ym2612"
    },
    {
      "channel": 1,
      "note": 53,
      "start": 55.9118,
      "duration": 0.2697,
      "velocity": 91,
      "chip": "ym2612"
    },
    {
      "channel": 2,
      "note": 58,
      "start": 55.9136,
      "duration": 0.2641,
      "velocity": 105,
      "chip": "ym2612"
    },
    {
      "channel": 0,
      "note": 84,
      "start": 56.1813,
      "duration": 0.4013,
      "velocity": 104,
      "chip": "ym2612"
    },
    {
      "channel": 1,
      "note": 57,
      "start": 56.1823,
      "duration": 0.3555,
      "velocity": 91,
      "chip": "ym2612"
    },
    {
      "channel": 3,
      "note": 71,
      "start": 56.183,
      "duration": 1.2102,
      "velocity": 94,
      "chip": "ym2612"
    },
    {
      "channel": 2,
      "note": 23,
      "start": 56.184,
      "duration": 0.1305,
      "velocity": 127,
      "chip": "ym2612"
    },
    {
      "channel": 4,
      "note": 62,
      "start": 56.2242,
      "duration": 1.2139,
      "velocity": 94,
      "chip": "ym2612"
    },
    {
      "channel": 5,
      "note": 57,
      "start": 56.2249,
      "duration": 1.2135,
      "velocity": 94,
      "chip": "ym2612"
    },
    {
      "channel": 2,
      "note": 58,
      "start": 56.4547,
      "duration": 0.2664,
      "velocity": 105,
      "chip": "ym2612"
    },
    {
      "channel": 1,
      "note": 47,
      "start": 56.5384,
      "duration": 0.4499,
      "velocity": 91,
      "chip": "ym2612"
    },
    {
      "channel": 0,
      "note": 83,
      "start": 56.5832,
      "duration": 0.4041,
      "velocity": 104,
      "chip": "ym2612"
    },
    {
      "channel": 2,
      "note": 58,
      "start": 56.9045,
      "duration": 0.2662,
      "velocity": 105,
      "chip": "ym2612"
    },
    {
      "channel": 0,
      "note": 81,
      "start": 56.9881,
      "duration": 0.1344,
      "velocity": 104,
      "chip": "ym2612"
    },
    {
      "channel": 1,
      "note": 50,
      "start": 56.9888,
      "duration": 0.2722,
      "velocity": 91,
      "chip": "ym2612"
    },
    {
      "channel": 0,
      "note": 81,
      "start": 57.2608,
      "duration": 0.064,
      "velocity": 104,
      "chip": "ym2612"
    },
    {
      "channel": 1,
      "note": 57,
      "start": 57.2617,
      "duration": 0.3578,
      "velocity": 91,
      "chip": "ym2612"
    },
    {
      "channel": 2,
      "note": 58,
      "start": 57.2634,
      "duration": 0.2655,
      "velocity": 105,
      "chip": "ym2612"
    },
    {
      "channel": 0,
      "note": 83,
      "start": 57.3255,
      "duration": 0.3368,
      "velocity": 104,
      "chip": "ym2612"
    },
    {
      "channel": 3,
      "note": 71,
      "start": 57.5286,
      "duration": 0.1349,
      "velocity": 94,
      "chip": "ym2612"
    },
    {
      "channel": 4,
      "note": 62,
      "start": 57.574,
      "duration": 0.1369,
      "velocity": 94,
      "chip": "ym2612"
    },
    {
      "channel": 5,
      "note": 57,
      "start": 57.5747,
      "duration": 0.1365,
      "velocity": 94,
      "chip": "ym2612"
    },
    {
      "channel": 1,
      "note": 47,
      "start": 57.6201,
      "duration": 0.4525,
      "velocity": 91,
      "chip": "ym2612"
    },
    {
      "channel": 0,
      "note": 81,
      "start": 57.663,
      "duration": 0.4088,
      "velocity": 104,
      "chip": "ym2612"
    },
    {
      "channel": 2,
      "note": 58,
      "start": 57.7121,
      "duration": 0.265,
      "velocity": 105,
      "chip": "ym2612"
    },
    {
      "channel": 3,
      "note": 71,
      "start": 57.9337,
      "duration": 0.1397,
      "velocity": 94,
      "chip": "ym2612"
    },
    {
      "channel": 4,
      "note": 62,
      "start": 57.9816,
      "duration": 0.1314,
      "velocity": 94,
      "chip": "ym2612"
    },
    {
      "channel": 5,
      "note": 57,
      "start": 57.9825,
      "duration": 0.1307,
      "velocity": 94,
      "chip": "ym2612"
    },
    {
      "channel": 2,
      "note": 58,
      "start": 57.9833,
      "duration": 0.084,
      "velocity": 105,
      "chip": "ym2612"
    },
    {
      "channel": 0,
      "note": 79,
      "start": 58.0725,
      "duration": 0.2677,
      "velocity": 104,
      "chip": "ym2612"
    },
    {
      "channel": 1,
      "note": 50,
      "start": 58.0732,
      "duration": 0.2679,
      "velocity": 91,
      "chip": "ym2612"
    },
    {
      "channel": 2,
      "note": 58,
      "start": 58.075,
      "duration": 0.2623,
      "velocity": 105,
      "chip": "ym2612"
    },
    {
      "channel": 0,
      "note": 76,
      "start": 58.3408,
      "duration": 1.2123,
      "velocity": 104,
      "chip": "ym2612"
    },
    {
      "channel": 1,
      "note": 59,
      "start": 58.3416,
      "duration": 0.356,
      "velocity": 91,
      "chip": "ym2612"
    },
    {
      "channel": 3,
      "note": 71,
      "start": 58.3428,
      "duration": 1.211,
      "velocity": 94,
      "chip": "ym2612"
    },
    {
      "channel": 2,
      "note": 23,
      "start": 58.3437,
      "duration": 0.1303,
      "velocity": 127,
      "chip": "ym2612"
    },
    {
      "channel": 4,
      "note": 64,
      "start": 58.3862,
      "duration": 1.2117,
      "velocity": 94,
      "chip": "ym2612"
    },
    {
      "channel": 5,
      "note": 67,
      "start": 58.3874,
      "duration": 1.2108,
      "velocity": 94,
      "chip": "ym2612"
    },
    {
      "channel": 2,
      "note": 58,
      "start": 58.6124,
      "duration": 0.2667,
      "velocity": 105,
      "chip": "ym2612"
    },
    {
      "channel": 1,
      "note": 52,
      "start": 58.6982,
      "duration": 0.4494,
      "velocity": 91,
      "chip": "ym2612"
    },
    {
      "channel": 2,
      "note": 58,
      "start": 59.0622,
      "duration": 0.2667,
      "velocity": 105,
      "chip": "ym2612"
    },
    {
      "channel": 1,
      "note": 55,
      "start": 59.1481,
      "duration": 0.2739,
      "velocity": 91,
      "chip": "ym2612"
    },
    {
      "channel": 1,
      "note": 59,
      "start": 59.4225,
      "duration": 0.1745,
      "velocity": 91,
      "chip": "ym2612"
    },
    {
      "channel": 2,
      "note": 58,
      "start": 59.4244,
      "duration": 0.2639,
      "velocity": 105,
      "chip": "ym2612"
    },
    {
      "channel": 1,
      "note": 58,
      "start": 59.5977,
      "duration": 0.1794,
      "velocity": 91,
      "chip": "ym2612"
    },
    {
      "channel": 3,
      "note": 71,
      "start": 59.6879,
      "duration": 0.1344,
      "velocity": 94,
      "chip": "ym2612"
    },
    {
      "channel": 4,
      "note": 64,
      "start": 59.7336,
      "duration": 0.1386,
      "velocity": 94,
      "chip": "ym2612"
    },
    {
      "channel": 5,
      "note": 67,
      "start": 59.7361,
      "duration": 0.1364,
      "velocity": 94,
      "chip": "ym2612"
    },
    {
      "channel": 1,
      "note": 57,
      "start": 59.7776,
      "duration": 0.1794,
      "velocity": 91,
      "chip": "ym2612"
    },
    {
      "channel": 2,
      "note": 71,
      "start": 59.8736,
      "duration": 0.2632,
      "velocity": 120,
      "chip": "ym2612"
    },
    {
      "channel": 1,
      "note": 56,
      "start": 59.9576,
      "duration": 0.1821,
      "velocity": 91,
      "chip": "ym2612"
    },
    {
      "channel": 3,
      "note": 71,
      "start": 60.093,
      "duration": 0.1371,
      "velocity": 94,
      "chip": "ym2612"
    },
    {
      "channel": 1,
      "note": 55,
      "start": 60.1403,
      "duration": 0.1766,
      "velocity": 91,
      "chip": "ym2612"
    },
    {
      "channel": 4,
      "note": 64,
      "start": 60.1415,
      "duration": 0.131,
      "velocity": 94,
      "chip": "ym2612"
    },
    {
      "channel": 5,
      "note": 67,
      "start": 60.1421,
      "duration": 0.1306,
      "velocity": 94,
      "chip": "ym2612"
    },
    {
      "channel": 2,
      "note": 71,
      "start": 60.1432,
      "duration": 0.0837,
      "velocity": 120,
      "chip": "ym2612"
    },
    {
      "channel": 2,
      "note": 23,
      "start": 60.2317,
      "duration": 0.1311,
      "velocity": 127,
      "chip": "ym2612"
    },
    {
      "channel": 1,
      "note": 54,
      "start": 60.3193,
      "duration": 0.1865,
      "velocity": 91,
      "chip": "ym2612"
    },
    {
      "channel": 0,
      "note": 88,
      "start": 60.5056,
      "duration": 1.5116,
      "velocity": 111,
      "chip": "ym2612"
    },
    {
      "channel": 1,
      "note": 49,
      "start": 60.5063,
      "duration": 0.4469,
      "velocity": 91,
      "chip": "ym2612"
    },
    {
      "channel": 3,
      "note": 66,
      "start": 60.5077,
      "duration": 1.5095,
      "velocity": 94,
      "chip": "ym2612"
    },
    {
      "channel": 2,
      "note": 23,
      "start": 60.5085,
      "duration": 0.1309,
      "velocity": 127,
      "chip": "ym2612"
    },
    {
      "channel": 4,
      "note": 76,
      "start": 60.5496,
      "duration": 1.4675,
      "velocity": 94,
      "chip": "ym2612"
    },
    {
      "channel": 5,
      "note": 71,
      "start": 60.5504,
      "duration": 1.4668,
      "velocity": 94,
      "chip": "ym2612"
    },
    {
      "channel": 2,
      "note": 58,
      "start": 60.7775,
      "duration": 0.2667,
      "velocity": 105,
      "chip": "ym2612"
    },
    {
      "channel": 1,
      "note": 54,
      "start": 60.9539,
      "duration": 0.6334,
      "velocity": 91,
      "chip": "ym2612"
    },
    {
      "channel": 2,
      "note": 58,
      "start": 61.2274,
      "duration": 0.2667,
      "velocity": 105,
      "chip": "ym2612"
    },
    {
      "channel": 1,
      "note": 57,
      "start": 61.5879,
      "duration": 0.4293,
      "velocity": 91,
      "chip": "ym2612"
    },
    {
      "channel": 2,
      "note": 58,
      "start": 61.5897,
      "duration": 0.2651,
      "velocity": 105,
      "chip": "ym2612"
    }
  ]
}