{
  "track_name": "05 - Stage Theme 4 ~ Miners & Climbers",
  "duration_sec": 73.979,
  "sample_rate": 44100,
  "note_count": 19589,
  "unique_pitches": 48,
  "pitch_range": 69,
  "avg_note_duration": 0.0161,
  "reconstruction_stats": {
    "notes_reconstructed": 19589,
    "keyon_events": 19589,
    "keyoff_events": 1749,
    "orphan_keyons": 5,
    "unique_pitches": 48,
    "pitch_range": 69,
    "avg_duration_sec": 0.0161
  },
  "metadata": {
    "source": "L\\Lemmings\\05 - Stage Theme 4 ~ Miners & Climbers.vgz"
  },
  "notes": [
    {
      "channel": 1,
      "note": 64,
      "start": 0.0507,
      "duration": 0.019,
      "velocity": 124,
      "chip": "ym2612"
    },
    {
      "channel": 0,
      "note": 36,
      "start": 0.0542,
      "duration": 0.0172,
      "velocity": 115,
      "chip": "ym2612"
    },
    {
      "channel": 2,
      "note": 57,
      "start": 0.0649,
      "duration": 0.01,
      "velocity": 100,
      "chip": "ym2612"
    },
    {
      "channel": 1,
      "note": 64,
      "start": 0.0696,
      "duration": 0.0095,
      "velocity": 124,
      "chip": "ym2612"
    },
    {
      "channel": 0,
      "note": 36,
      "start": 0.0714,
      "duration": 0.0095,
      "velocity": 115,
      "chip": "ym2612"
    },
    {
      "channel": 2,
      "note": 57,
      "start": 0.075,
      "duration": 0.0093,
      "velocity": 100,
      "chip": "ym2612"
    },
    {
      "channel": 1,
      "note": 64,
      "start": 0.0792,
      "duration": 0.0106,
      "velocity": 124,
      "chip": "ym2612"
    },
    {
      "channel": 0,
      "note": 37,
      "start": 0.0808,
      "duration": 0.0107,
      "velocity": 115,
      "chip": "ym2612"
    },
    {
      "channel": 2,
      "note": 57,
      "start": 0.0843,
      "duration": 0.0134,
      "velocity": 100,
      "chip": "ym2612"
    },
    {
      "channel": 1,
      "note": 64,
      "start": 0.0898,
      "duration": 0.0161,
      "velocity": 124,
      "chip": "ym2612"
    },
    {
      "channel": 0,
      "note": 37,
      "start": 0.0915,
      "duration": 0.0161,
      "velocity": 115,
      "chip": "ym2612"
    },
    {
      "channel": 2,
      "note": 57,
      "start": 0.0977,
      "duration": 0.0161,
      "velocity": 100,
      "chip": "ym2612"
    },
    {
      "channel": 1,
      "note": 64,
      "start": 0.1059,
      "duration": 0.0162,
      "velocity": 124,
      "chip": "ym2612"
    },
    {
      "channel": 0,
      "note": 38,
      "start": 0.1076,
      "duration": 0.0161,
      "velocity": 115,
      "chip": "ym2612"
    },
    {
      "channel": 2,
      "note": 57,
      "start": 0.1138,
      "duration": 0.0158,
      "velocity": 100,
      "chip": "ym2612"
    },
    {
      "channel": 1,
      "note": 64,
      "start": 0.1221,
      "duration": 0.0161,
      "velocity": 124,
      "chip": "ym2612"
    },
    {
      "channel": 0,
      "note": 38,
      "start": 0.1237,
      "duration": 0.0161,
      "velocity": 115,
      "chip": "ym2612"
    },
    {
      "channel": 2,
      "note": 57,
      "start": 0.1296,
      "duration": 0.0137,
      "velocity": 100,
      "chip": "ym2612"
    },
    {
      "channel": 1,
      "note": 64,
      "start": 0.1382,
      "duration": 0.0177,
      "velocity": 105,
      "chip": "ym2612"
    },
    {
      "channel": 0,
      "note": 39,
      "start": 0.1398,
      "duration": 0.0178,
      "velocity": 115,
      "chip": "ym2612"
    },
    {
      "channel": 2,
      "note": 57,
      "start": 0.1433,
      "duration": 0.0209,
      "velocity": 100,
      "chip": "ym2612"
    },
    {
      "channel": 1,
      "note": 105,
      "start": 0.156,
      "duration": 0.0144,
      "velocity": 105,
      "chip": "ym2612"
    },
    {
      "channel": 0,
      "note": 39,
      "start": 0.1576,
      "duration": 0.0144,
      "velocity": 115,
      "chip": "ym2612"
    },
    {
      "channel": 2,
      "note": 57,
      "start": 0.1643,
      "duration": 0.0113,
      "velocity": 100,
      "chip": "ym2612"
    },
    {
      "channel": 1,
      "note": 105,
      "start": 0.1704,
      "duration": 0.016,
      "velocity": 105,
      "chip": "ym2612"
    },
    {
      "channel": 0,
      "note": 40,
      "start": 0.1721,
      "duration": 0.016,
      "velocity": 115,
      "chip": "ym2612"
    },
    {
      "channel": 2,
      "note": 57,
      "start": 0.1756,
      "duration": 0.0159,
      "velocity": 100,
      "chip": "ym2612"
    },
    {
      "channel": 1,
      "note": 105,
      "start": 0.1864,
      "duration": 0.0161,
      "velocity": 105,
      "chip": "ym2612"
    },
    {
      "channel": 0,
      "note": 40,
      "start": 0.1881,
      "duration": 0.0161,
      "velocity": 115,
      "chip": "ym2612"
    },
    {
      "channel": 2,
      "note": 57,
      "start": 0.1915,
      "duration": 0.0161,
      "velocity": 100,
      "chip": "ym2612"
    },
    {
      "channel": 1,
      "note": 105,
      "start": 0.2025,
      "duration": 0.0161,
      "velocity": 105,
      "chip": "ym2612"
    },
    {
      "channel": 0,
      "note": 40,
      "start": 0.2042,
      "duration": 0.0161,
      "velocity": 115,
      "chip": "ym2612"
    },
    {
      "channel": 2,
      "note": 57,
      "start": 0.2076,
      "duration": 0.0161,
      "velocity": 100,
      "chip": "ym2612"
    },
    {
      "channel": 1,
      "note": 105,
      "start": 0.2186,
      "duration": 0.0161,
      "velocity": 105,
      "chip": "ym2612"
    },
    {
      "channel": 0,
      "note": 41,
      "start": 0.2203,
      "duration": 0.0161,
      "velocity": 115,
      "chip": "ym2612"
    },
    {
      "channel": 2,
      "note": 57,
      "start": 0.2237,
      "duration": 0.0161,
      "velocity": 100,
      "chip": "ym2612"
    },
    {
      "channel": 1,
      "note": 105,
      "start": 0.2347,
      "duration": 0.0161,
      "velocity": 105,
      "chip": "ym2612"
    },
    {
      "channel": 0,
      "note": 41,
      "start": 0.2364,
      "duration": 0.0161,
      "velocity": 115,
      "chip": "ym2612"
    },
    {
      "channel": 2,
      "note": 57,
      "start": 0.2398,
      "duration": 0.0161,
      "velocity": 100,
      "chip": "ym2612"
    },
    {
      "channel": 1,
      "note": 105,
      "start": 0.2508,
      "duration": 0.0178,
      "velocity": 124,
      "chip": "ym2612"
    },
    {
      "channel": 0,
      "note": 42,
      "start": 0.2525,
      "duration": 0.0179,
      "velocity": 115,
      "chip": "ym2612"
    },
    {
      "channel": 2,
      "note": 57,
      "start": 0.2559,
      "duration": 0.0183,
      "velocity": 100,
      "chip": "ym2612"
    },
    {
      "channel": 1,
      "note": 64,
      "start": 0.2687,
      "duration": 0.0144,
      "velocity": 124,
      "chip": "ym2612"
    },
    {
      "channel": 0,
      "note": 42,
      "start": 0.2703,
      "duration": 0.0144,
      "velocity": 115,
      "chip": "ym2612"
    },
    {
      "channel": 2,
      "note": 57,
      "start": 0.2743,
      "duration": 0.0141,
      "velocity": 100,
      "chip": "ym2612"
    },
    {
      "channel": 1,
      "note": 64,
      "start": 0.2831,
      "duration": 0.016,
      "velocity": 124,
      "chip": "ym2612"
    },
    {
      "channel": 0,
      "note": 43,
      "start": 0.2848,
      "duration": 0.016,
      "velocity": 115,
      "chip": "ym2612"
    },
    {
      "channel": 2,
      "note": 57,
      "start": 0.2883,
      "duration": 0.0159,
      "velocity": 100,
      "chip": "ym2612"
    },
    {
      "channel": 1,
      "note": 64,
      "start": 0.2992,
      "duration": 0.0161,
      "velocity": 124,
      "chip": "ym2612"
    },
    {
      "channel": 0,
      "note": 43,
      "start": 0.3008,
      "duration": 0.0161,
      "velocity": 115,
      "chip": "ym2612"
    },
    {
      "channel": 2,
      "note": 57,
      "start": 0.3042,
      "duration": 0.0161,
      "velocity": 100,
      "chip": "ym2612"
    },
    {
      "channel": 1,
      "note": 64,
      "start": 0.3153,
      "duration": 0.0161,
      "velocity": 124,
      "chip": "ym2612"
    },
    {
      "channel": 0,
      "note": 44,
      "start": 0.3169,
      "duration": 0.0161,
      "velocity": 115,
      "chip": "ym2612"
    },
    {
      "channel": 2,
      "note": 57,
      "start": 0.3203,
      "duration": 0.0161,
      "velocity": 100,
      "chip": "ym2612"
    },
    {
      "channel": 1,
      "note": 64,
      "start": 0.3313,
      "duration": 0.0161,
      "velocity": 124,
      "chip": "ym2612"
    },
    {
      "channel": 0,
      "note": 44,
      "start": 0.333,
      "duration": 0.0161,
      "velocity": 115,
      "chip": "ym2612"
    },
    {
      "channel": 2,
      "note": 57,
      "start": 0.3364,
      "duration": 0.0161,
      "velocity": 100,
      "chip": "ym2612"
    },
    {
      "channel": 1,
      "note": 64,
      "start": 0.3474,
      "duration": 0.0166,
      "velocity": 124,
      "chip": "ym2612"
    },
    {
      "channel": 0,
      "note": 44,
      "start": 0.3491,
      "duration": 0.0166,
      "velocity": 115,
      "chip": "ym2612"
    },
    {
      "channel": 2,
      "note": 57,
      "start": 0.3525,
      "duration": 0.0165,
      "velocity": 100,
      "chip": "ym2612"
    },
    {
      "channel": 1,
      "note": 64,
      "start": 0.364,
      "duration": 0.0183,
      "velocity": 105,
      "chip": "ym2612"
    },
    {
      "channel": 0,
      "note": 45,
      "start": 0.3656,
      "duration": 0.0184,
      "velocity": 115,
      "chip": "ym2612"
    },
    {
      "channel": 2,
      "note": 57,
      "start": 0.3691,
      "duration": 0.0186,
      "velocity": 100,
      "chip": "ym2612"
    },
    {
      "channel": 1,
      "note": 105,
      "start": 0.3824,
      "duration": 0.0146,
      "velocity": 105,
      "chip": "ym2612"
    },
    {
      "channel": 0,
      "note": 45,
      "start": 0.384,
      "duration": 0.0146,
      "velocity": 115,
      "chip": "ym2612"
    },
    {
      "channel": 2,
      "note": 57,
      "start": 0.3878,
      "duration": 0.0144,
      "velocity": 100,
      "chip": "ym2612"
    },
    {
      "channel": 1,
      "note": 105,
      "start": 0.397,
      "duration": 0.0152,
      "velocity": 105,
      "chip": "ym2612"
    },
    {
      "channel": 0,
      "note": 46,
      "start": 0.3986,
      "duration": 0.0152,
      "velocity": 115,
      "chip": "ym2612"
    },
    {
      "channel": 2,
      "note": 57,
      "start": 0.4022,
      "duration": 0.0151,
      "velocity": 100,
      "chip": "ym2612"
    },
    {
      "channel": 1,
      "note": 105,
      "start": 0.4122,
      "duration": 0.0185,
      "velocity": 105,
      "chip": "ym2612"
    },
    {
      "channel": 0,
      "note": 46,
      "start": 0.4139,
      "duration": 0.0185,
      "velocity": 115,
      "chip": "ym2612"
    },
    {
      "channel": 2,
      "note": 57,
      "start": 0.4173,
      "duration": 0.0185,
      "velocity": 100,
      "chip": "ym2612"
    },
    {
      "channel": 1,
      "note": 105,
      "start": 0.4307,
      "duration": 0.0161,
      "velocity": 105,
      "chip": "ym2612"
    },
    {
      "channel": 0,
      "note": 47,
      "start": 0.4323,
      "duration": 0.0161,
      "velocity": 115,
      "chip": "ym2612"
    },
    {
      "channel": 2,
      "note": 57,
      "start": 0.4357,
      "duration": 0.0162,
      "velocity": 100,
      "chip": "ym2612"
    },
    {
      "channel": 1,
      "note": 105,
      "start": 0.4468,
      "duration": 0.0157,
      "velocity": 105,
      "chip": "ym2612"
    },
    {
      "channel": 0,
      "note": 47,
      "start": 0.4485,
      "duration": 0.0158,
      "velocity": 115,
      "chip": "ym2612"
    },
    {
      "channel": 2,
      "note": 57,
      "start": 0.4519,
      "duration": 0.0158,
      "velocity": 100,
      "chip": "ym2612"
    },
    {
      "channel": 1,
      "note": 105,
      "start": 0.4625,
      "duration": 0.0137,
      "velocity": 105,
      "chip": "ym2612"
    },
    {
      "channel": 0,
      "note": 47,
      "start": 0.4642,
      "duration": 0.0144,
      "velocity": 115,
      "chip": "ym2612"
    },
    {
      "channel": 2,
      "note": 57,
      "start": 0.4677,
      "duration": 0.0144,
      "velocity": 100,
      "chip": "ym2612"
    },
    {
      "channel": 1,
      "note": 105,
      "start": 0.4763,
      "duration": 0.0211,
      "velocity": 124,
      "chip": "ym2612"
    },
    {
      "channel": 0,
      "note": 48,
      "start": 0.4787,
      "duration": 0.0211,
      "velocity": 115,
      "chip": "ym2612"
    },
    {
      "channel": 2,
      "note": 57,
      "start": 0.4821,
      "duration": 0.0214,
      "velocity": 100,
      "chip": "ym2612"
    },
    {
      "channel": 1,
      "note": 78,
      "start": 0.4974,
      "duration": 0.0117,
      "velocity": 124,
      "chip": "ym2612"
    },
    {
      "channel": 0,
      "note": 48,
      "start": 0.4998,
      "duration": 0.0139,
      "velocity": 115,
      "chip": "ym2612"
    },
    {
      "channel": 2,
      "note": 57,
      "start": 0.5035,
      "duration": 0.0136,
      "velocity": 100,
      "chip": "ym2612"
    },
    {
      "channel": 1,
      "note": 76,
      "start": 0.509,
      "duration": 0.016,
      "velocity": 124,
      "chip": "ym2612"
    },
    {
      "channel": 0,
      "note": 49,
      "start": 0.5137,
      "duration": 0.0124,
      "velocity": 1,
      "chip": "ym2612"
    },
    {
      "channel": 2,
      "note": 57,
      "start": 0.5172,
      "duration": 0.0148,
      "velocity": 100,
      "chip": "ym2612"
    },
    {
      "channel": 1,
      "note": 75,
      "start": 0.5251,
      "duration": 0.0161,
      "velocity": 124,
      "chip": "ym2612"
    },
    {
      "channel": 2,
      "note": 57,
      "start": 0.532,
      "duration": 0.0132,
      "velocity": 100,
      "chip": "ym2612"
    },
    {
      "channel": 1,
      "note": 74,
      "start": 0.5411,
      "duration": 0.0161,
      "velocity": 124,
      "chip": "ym2612"
    },
    {
      "channel": 2,
      "note": 57,
      "start": 0.5451,
      "duration": 0.0185,
      "velocity": 100,
      "chip": "ym2612"
    },
    {
      "channel": 1,
      "note": 72,
      "start": 0.5572,
      "duration": 0.0161,
      "velocity": 124,
      "chip": "ym2612"
    },
    {
      "channel": 2,
      "note": 57,
      "start": 0.5637,
      "duration": 0.0161,
      "velocity": 100,
      "chip": "ym2612"
    },
    {
      "channel": 1,
      "note": 71,
      "start": 0.5733,
      "duration": 0.0161,
      "velocity": 124,
      "chip": "ym2612"
    },
    {
      "channel": 2,
      "note": 57,
      "start": 0.5798,
      "duration": 0.0134,
      "velocity": 100,
      "chip": "ym2612"
    },
    {
      "channel": 1,
      "note": 70,
      "start": 0.5894,
      "duration": 0.0161,
      "velocity": 124,
      "chip": "ym2612"
    },
    {
      "channel": 2,
      "note": 57,
      "start": 0.5931,
      "duration": 0.0173,
      "velocity": 100,
      "chip": "ym2612"
    },
    {
      "channel": 1,
      "note": 69,
      "start": 0.6056,
      "duration": 0.0161,
      "velocity": 124,
      "chip": "ym2612"
    },
    {
      "channel": 2,
      "note": 57,
      "start": 0.6104,
      "duration": 0.015,
      "velocity": 100,
      "chip": "ym2612"
    },
    {
      "channel": 1,
      "note": 68,
      "start": 0.6217,
      "duration": 0.0161,
      "velocity": 124,
      "chip": "ym2612"
    },
    {
      "channel": 2,
      "note": 57,
      "start": 0.6254,
      "duration": 0.016,
      "velocity": 100,
      "chip": "ym2612"
    },
    {
      "channel": 1,
      "note": 66,
      "start": 0.6378,
      "duration": 0.0161,
      "velocity": 124,
      "chip": "ym2612"
    },
    {
      "channel": 2,
      "note": 57,
      "start": 0.6414,
      "duration": 0.0161,
      "velocity": 100,
      "chip": "ym2612"
    },
    {
      "channel": 1,
      "note": 65,
      "start": 0.6539,
      "duration": 0.0161,
      "velocity": 124,
      "chip": "ym2612"
    },
    {
      "channel": 2,
      "note": 57,
      "start": 0.6576,
      "duration": 0.0161,
      "velocity": 100,
      "chip": "ym2612"
    },
    {
      "channel": 1,
      "note": 64,
      "start": 0.67,
      "duration": 0.0161,
      "velocity": 124,
      "chip": "ym2612"
    },
    {
      "channel": 2,
      "note": 57,
      "start": 0.6737,
      "duration": 0.0161,
      "velocity": 100,
      "chip": "ym2612"
    },
    {
      "channel": 1,
      "note": 62,
      "start": 0.6861,
      "duration": 0.0161,
      "velocity": 124,
      "chip": "ym2612"
    },
    {
      "channel": 2,
      "note": 57,
      "start": 0.6898,
      "duration": 0.0161,
      "velocity": 100,
      "chip": "ym2612"
    },
    {
      "channel": 1,
      "note": 61,
      "start": 0.7022,
      "duration": 0.0161,
      "velocity": 124,
      "chip": "ym2612"
    },
    {
      "channel": 2,
      "note": 57,
      "start": 0.7058,
      "duration": 0.0169,
      "velocity": 100,
      "chip": "ym2612"
    },
    {
      "channel": 1,
      "note": 60,
      "start": 0.7183,
      "duration": 0.0161,
      "velocity": 124,
      "chip": "ym2612"
    },
    {
      "channel": 2,
      "note": 57,
      "start": 0.7228,
      "duration": 0.0154,
      "velocity": 100,
      "chip": "ym2612"
    },
    {
      "channel": 1,
      "note": 59,
      "start": 0.7343,
      "duration": 0.0162,
      "velocity": 124,
      "chip": "ym2612"
    },
    {
      "channel": 2,
      "note": 57,
      "start": 0.7382,
      "duration": 0.016,
      "velocity": 100,
      "chip": "ym2612"
    },
    {
      "channel": 1,
      "note": 57,
      "start": 0.7505,
      "duration": 0.0161,
      "velocity": 124,
      "chip": "ym2612"
    },
    {
      "channel": 2,
      "note": 57,
      "start": 0.7541,
      "duration": 0.0161,
      "velocity": 100,
      "chip": "ym2612"
    },
    {
      "channel": 1,
      "note": 56,
      "start": 0.7666,
      "duration": 0.0161,
      "velocity": 124,
      "chip": "ym2612"
    },
    {
      "channel": 2,
      "note": 57,
      "start": 0.7702,
      "duration": 0.0162,
      "velocity": 100,
      "chip": "ym2612"
    },
    {
      "channel": 1,
      "note": 55,
      "start": 0.7827,
      "duration": 0.0161,
      "velocity": 124,
      "chip": "ym2612"
    },
    {
      "channel": 2,
      "note": 57,
      "start": 0.7864,
      "duration": 0.0161,
      "velocity": 100,
      "chip": "ym2612"
    },
    {
      "channel": 1,
      "note": 53,
      "start": 0.7988,
      "duration": 0.0161,
      "velocity": 124,
      "chip": "ym2612"
    },
    {
      "channel": 2,
      "note": 57,
      "start": 0.8025,
      "duration": 0.0161,
      "velocity": 100,
      "chip": "ym2612"
    },
    {
      "channel": 1,
      "note": 52,
      "start": 0.8149,
      "duration": 0.0163,
      "velocity": 124,
      "chip": "ym2612"
    },
    {
      "channel": 2,
      "note": 57,
      "start": 0.8186,
      "duration": 0.0205,
      "velocity": 100,
      "chip": "ym2612"
    },
    {
      "channel": 1,
      "note": 51,
      "start": 0.8312,
      "duration": 0.0159,
      "velocity": 1,
      "chip": "ym2612"
    },
    {
      "channel": 0,
      "note": 36,
      "start": 0.8353,
      "duration": 0.0156,
      "velocity": 115,
      "chip": "ym2612"
    },
    {
      "channel": 2,
      "note": 57,
      "start": 0.839,
      "duration": 0.0153,
      "velocity": 100,
      "chip": "ym2612"
    },
    {
      "channel": 1,
      "note": 51,
      "start": 0.8492,
      "duration": 0.0144,
      "velocity": 105,
      "chip": "ym2612"
    },
    {
      "channel": 0,
      "note": 36,
      "start": 0.8509,
      "duration": 0.0144,
      "velocity": 115,
      "chip": "ym2612"
    },
    {
      "channel": 2,
      "note": 57,
      "start": 0.8544,
      "duration": 0.0143,
      "velocity": 100,
      "chip": "ym2612"
    },
    {
      "channel": 1,
      "note": 105,
      "start": 0.8636,
      "duration": 0.0152,
      "velocity": 105,
      "chip": "ym2612"
    },
    {
      "channel": 0,
      "note": 37,
      "start": 0.8653,
      "duration": 0.0152,
      "velocity": 115,
      "chip": "ym2612"
    },
    {
      "channel": 2,
      "note": 57,
      "start": 0.8687,
      "duration": 0.0152,
      "velocity": 100,
      "chip": "ym2612"
    },
    {
      "channel": 1,
      "note": 105,
      "start": 0.8788,
      "duration": 0.0185,
      "velocity": 105,
      "chip": "ym2612"
    },
    {
      "channel": 0,
      "note": 37,
      "start": 0.8805,
      "duration": 0.0185,
      "velocity": 115,
      "chip": "ym2612"
    },
    {
      "channel": 2,
      "note": 57,
      "start": 0.8839,
      "duration": 0.0185,
      "velocity": 100,
      "chip": "ym2612"
    },
    {
      "channel": 1,
      "note": 105,
      "start": 0.8973,
      "duration": 0.0164,
      "velocity": 105,
      "chip": "ym2612"
    },
    {
      "channel": 0,
      "note": 38,
      "start": 0.899,
      "duration": 0.0164,
      "velocity": 115,
      "chip": "ym2612"
    },
    {
      "channel": 2,
      "note": 57,
      "start": 0.9024,
      "duration": 0.0164,
      "velocity": 100,
      "chip": "ym2612"
    },
    {
      "channel": 1,
      "note": 105,
      "start": 0.9137,
      "duration": 0.0157,
      "velocity": 105,
      "chip": "ym2612"
    },
    {
      "channel": 0,
      "note": 38,
      "start": 0.9154,
      "duration": 0.0158,
      "velocity": 115,
      "chip": "ym2612"
    },
    {
      "channel": 2,
      "note": 57,
      "start": 0.9188,
      "duration": 0.0158,
      "velocity": 100,
      "chip": "ym2612"
    },
    {
      "channel": 1,
      "note": 105,
      "start": 0.9294,
      "duration": 0.0158,
      "velocity": 124,
      "chip": "ym2612"
    },
    {
      "channel": 0,
      "note": 39,
      "start": 0.9312,
      "duration": 0.0176,
      "velocity": 115,
      "chip": "ym2612"
    },
    {
      "channel": 2,
      "note": 57,
      "start": 0.9346,
      "duration": 0.0179,
      "velocity": 100,
      "chip": "ym2612"
    },
    {
      "channel": 1,
      "note": 64,
      "start": 0.9453,
      "duration": 0.0141,
      "velocity": 124,
      "chip": "ym2612"
    },
    {
      "channel": 0,
      "note": 36,
      "start": 0.9487,
      "duration": 0.0151,
      "velocity": 115,
      "chip": "ym2612"
    },
    {
      "channel": 2,
      "note": 57,
      "start": 0.9525,
      "duration": 0.0149,
      "velocity": 100,
      "chip": "ym2612"
    },
    {
      "channel": 1,
      "note": 64,
      "start": 0.9593,
      "duration": 0.016,
      "velocity": 124,
      "chip": "ym2612"
    },
    {
      "channel": 0,
      "note": 36,
      "start": 0.9639,
      "duration": 0.016,
      "velocity": 115,
      "chip": "ym2612"
    },
    {
      "channel": 2,
      "note": 57,
      "start": 0.9673,
      "duration": 0.0159,
      "velocity": 100,
      "chip": "ym2612"
    },
    {
      "channel": 1,
      "note": 64,
      "start": 0.9754,
      "duration": 0.0161,
      "velocity": 124,
      "chip": "ym2612"
    },
    {
      "channel": 0,
      "note": 37,
      "start": 0.9798,
      "duration": 0.0157,
      "velocity": 115,
      "chip": "ym2612"
    },
    {
      "channel": 2,
      "note": 57,
      "start": 0.9833,
      "duration": 0.0157,
      "velocity": 100,
      "chip": "ym2612"
    },
    {
      "channel": 1,
      "note": 64,
      "start": 0.9915,
      "duration": 0.0162,
      "velocity": 124,
      "chip": "ym2612"
    },
    {
      "channel": 0,
      "note": 37,
      "start": 0.9955,
      "duration": 0.0137,
      "velocity": 115,
      "chip": "ym2612"
    },
    {
      "channel": 2,
      "note": 57,
      "start": 0.999,
      "duration": 0.014,
      "velocity": 100,
      "chip": "ym2612"
    },
    {
      "channel": 1,
      "note": 64,
      "start": 1.0076,
      "duration": 0.0161,
      "velocity": 124,
      "chip": "ym2612"
    },
    {
      "channel": 0,
      "note": 38,
      "start": 1.0093,
      "duration": 0.0161,
      "velocity": 115,
      "chip": "ym2612"
    },
    {
      "channel": 2,
      "note": 57,
      "start": 1.013,
      "duration": 0.0185,
      "velocity": 100,
      "chip": "ym2612"
    },
    {
      "channel": 1,
      "note": 64,
      "start": 1.0237,
      "duration": 0.0161,
      "velocity": 124,
      "chip": "ym2612"
    },
    {
      "channel": 0,
      "note": 38,
      "start": 1.0254,
      "duration": 0.0161,
      "velocity": 115,
      "chip": "ym2612"
    },
    {
      "channel": 2,
      "note": 57,
      "start": 1.0315,
      "duration": 0.0161,
      "velocity": 100,
      "chip": "ym2612"
    },
    {
      "channel": 1,
      "note": 64,
      "start": 1.0398,
      "duration": 0.0177,
      "velocity": 105,
      "chip": "ym2612"
    },
    {
      "channel": 0,
      "note": 39,
      "start": 1.0415,
      "duration": 0.0178,
      "velocity": 115,
      "chip": "ym2612"
    },
    {
      "channel": 2,
      "note": 57,
      "start": 1.0476,
      "duration": 0.0177,
      "velocity": 100,
      "chip": "ym2612"
    },
    {
      "channel": 1,
      "note": 105,
      "start": 1.0576,
      "duration": 0.0144,
      "velocity": 105,
      "chip": "ym2612"
    },
    {
      "channel": 0,
      "note": 39,
      "start": 1.0593,
      "duration": 0.0144,
      "velocity": 115,
      "chip": "ym2612"
    },
    {
      "channel": 2,
      "note": 57,
      "start": 1.0654,
      "duration": 0.0121,
      "velocity": 100,
      "chip": "ym2612"
    },
    {
      "channel": 1,
      "note": 105,
      "start": 1.0721,
      "duration": 0.016,
      "velocity": 105,
      "chip": "ym2612"
    },
    {
      "channel": 0,
      "note": 40,
      "start": 1.0737,
      "duration": 0.016,
      "velocity": 115,
      "chip": "ym2612"
    },
    {
      "channel": 2,
      "note": 57,
      "start": 1.0775,
      "duration": 0.0185,
      "velocity": 100,
      "chip": "ym2612"
    },
    {
      "channel": 1,
      "note": 105,
      "start": 1.0881,
      "duration": 0.0161,
      "velocity": 105,
      "chip": "ym2612"
    },
    {
      "channel": 0,
      "note": 40,
      "start": 1.0898,
      "duration": 0.0161,
      "velocity": 115,
      "chip": "ym2612"
    },
    {
      "channel": 2,
      "note": 57,
      "start": 1.096,
      "duration": 0.0133,
      "velocity": 100,
      "chip": "ym2612"
    },
    {
      "channel": 1,
      "note": 105,
      "start": 1.1042,
      "duration": 0.0161,
      "velocity": 105,
      "chip": "ym2612"
    },
    {
      "channel": 0,
      "note": 40,
      "start": 1.1058,
      "duration": 0.0161,
      "velocity": 115,
      "chip": "ym2612"
    },
    {
      "channel": 2,
      "note": 57,
      "start": 1.1093,
      "duration": 0.0161,
      "velocity": 100,
      "chip": "ym2612"
    },
    {
      "channel": 1,
      "note": 105,
      "start": 1.1203,
      "duration": 0.0161,
      "velocity": 105,
      "chip": "ym2612"
    },
    {
      "channel": 0,
      "note": 41,
      "start": 1.1219,
      "duration": 0.0161,
      "velocity": 115,
      "chip": "ym2612"
    },
    {
      "channel": 2,
      "note": 57,
      "start": 1.1254,
      "duration": 0.0161,
      "velocity": 100,
      "chip": "ym2612"
    },
    {
      "channel": 1,
      "note": 105,
      "start": 1.1364,
      "duration": 0.0162,
      "velocity": 105,
      "chip": "ym2612"
    },
    {
      "channel": 0,
      "note": 41,
      "start": 1.138,
      "duration": 0.0162,
      "velocity": 115,
      "chip": "ym2612"
    },
    {
      "channel": 2,
      "note": 57,
      "start": 1.1415,
      "duration": 0.0162,
      "velocity": 100,
      "chip": "ym2612"
    },
    {
      "channel": 1,
      "note": 105,
      "start": 1.1525,
      "duration": 0.0177,
      "velocity": 124,
      "chip": "ym2612"
    },
    {
      "channel": 0,
      "note": 42,
      "start": 1.1542,
      "duration": 0.0178,
      "velocity": 115,
      "chip": "ym2612"
    },
    {
      "channel": 2,
      "note": 57,
      "start": 1.1576,
      "duration": 0.0181,
      "velocity": 100,
      "chip": "ym2612"
    },
    {
      "channel": 1,
      "note": 64,
      "start": 1.1703,
      "duration": 0.0144,
      "velocity": 124,
      "chip": "ym2612"
    },
    {
      "channel": 0,
      "note": 42,
      "start": 1.172,
      "duration": 0.0144,
      "velocity": 115,
      "chip": "ym2612"
    },
    {
      "channel": 2,
      "note": 57,
      "start": 1.1758,
      "duration": 0.0142,
      "velocity": 100,
      "chip": "ym2612"
    },
    {
      "channel": 1,
      "note": 64,
      "start": 1.1848,
      "duration": 0.016,
      "velocity": 124,
      "chip": "ym2612"
    },
    {
      "channel": 0,
      "note": 43,
      "start": 1.1864,
      "duration": 0.016,
      "velocity": 115,
      "chip": "ym2612"
    },
    {
      "channel": 2,
      "note": 57,
      "start": 1.1899,
      "duration": 0.016,
      "velocity": 100,
      "chip": "ym2612"
    },
    {
      "channel": 1,
      "note": 64,
      "start": 1.2008,
      "duration": 0.0161,
      "velocity": 124,
      "chip": "ym2612"
    },
    {
      "channel": 0,
      "note": 43,
      "start": 1.2025,
      "duration": 0.0161,
      "velocity": 115,
      "chip": "ym2612"
    },
    {
      "channel": 2,
      "note": 57,
      "start": 1.2059,
      "duration": 0.0161,
      "velocity": 100,
      "chip": "ym2612"
    },
    {
      "channel": 1,
      "note": 64,
      "start": 1.2169,
      "duration": 0.0161,
      "velocity": 124,
      "chip": "ym2612"
    },
    {
      "channel": 0,
      "note": 44,
      "start": 1.2186,
      "duration": 0.0161,
      "velocity": 115,
      "chip": "ym2612"
    },
    {
      "channel": 2,
      "note": 57,
      "start": 1.222,
      "duration": 0.0161,
      "velocity": 100,
      "chip": "ym2612"
    },
    {
      "channel": 1,
      "note": 64,
      "start": 1.233,
      "duration": 0.0161,
      "velocity": 124,
      "chip": "ym2612"
    },
    {
      "channel": 0,
      "note": 44,
      "start": 1.2346,
      "duration": 0.0161,
      "velocity": 115,
      "chip": "ym2612"
    },
    {
      "channel": 2,
      "note": 57,
      "start": 1.2381,
      "duration": 0.0161,
      "velocity": 100,
      "chip": "ym2612"
    },
    {
      "channel": 1,
      "note": 64,
      "start": 1.2491,
      "duration": 0.0161,
      "velocity": 124,
      "chip": "ym2612"
    },
    {
      "channel": 0,
      "note": 44,
      "start": 1.2507,
      "duration": 0.0162,
      "velocity": 115,
      "chip": "ym2612"
    },
    {
      "channel": 2,
      "note": 57,
      "start": 1.2542,
      "duration": 0.0161,
      "velocity": 100,
      "chip": "ym2612"
    },
    {
      "channel": 1,
      "note": 64,
      "start": 1.2652,
      "duration": 0.0178,
      "velocity": 105,
      "chip": "ym2612"
    },
    {
      "channel": 0,
      "note": 45,
      "start": 1.2669,
      "duration": 0.0178,
      "velocity": 115,
      "chip": "ym2612"
    },
    {
      "channel": 2,
      "note": 57,
      "start": 1.2703,
      "duration": 0.0181,
      "velocity": 100,
      "chip": "ym2612"
    },
    {
      "channel": 1,
      "note": 105,
      "start": 1.283,
      "duration": 0.0144,
      "velocity": 105,
      "chip": "ym2612"
    },
    {
      "channel": 0,
      "note": 45,
      "start": 1.2847,
      "duration": 0.0144,
      "velocity": 115,
      "chip": "ym2612"
    },
    {
      "channel": 2,
      "note": 57,
      "start": 1.2885,
      "duration": 0.0142,
      "velocity": 100,
      "chip": "ym2612"
    },
    {
      "channel": 1,
      "note": 105,
      "start": 1.2974,
      "duration": 0.0166,
      "velocity": 105,
      "chip": "ym2612"
    },
    {
      "channel": 0,
      "note": 46,
      "start": 1.2992,
      "duration": 0.0165,
      "velocity": 115,
      "chip": "ym2612"
    },
    {
      "channel": 2,
      "note": 57,
      "start": 1.3027,
      "duration": 0.0164,
      "velocity": 100,
      "chip": "ym2612"
    },
    {
      "channel": 1,
      "note": 105,
      "start": 1.314,
      "duration": 0.0163,
      "velocity": 105,
      "chip": "ym2612"
    },
    {
      "channel": 0,
      "note": 46,
      "start": 1.3156,
      "duration": 0.0163,
      "velocity": 115,
      "chip": "ym2612"
    },
    {
      "channel": 2,
      "note": 57,
      "start": 1.3191,
      "duration": 0.0163,
      "velocity": 100,
      "chip": "ym2612"
    },
    {
      "channel": 1,
      "note": 105,
      "start": 1.3303,
      "duration": 0.0154,
      "velocity": 105,
      "chip": "ym2612"
    },
    {
      "channel": 0,
      "note": 47,
      "start": 1.3319,
      "duration": 0.0154,
      "velocity": 115,
      "chip": "ym2612"
    },
    {
      "channel": 2,
      "note": 57,
      "start": 1.3354,
      "duration": 0.0155,
      "velocity": 100,
      "chip": "ym2612"
    },
    {
      "channel": 1,
      "note": 105,
      "start": 1.3457,
      "duration": 0.0183,
      "velocity": 105,
      "chip": "ym2612"
    },
    {
      "channel": 0,
      "note": 47,
      "start": 1.3474,
      "duration": 0.0183,
      "velocity": 115,
      "chip": "ym2612"
    },
    {
      "channel": 2,
      "note": 57,
      "start": 1.3508,
      "duration": 0.0183,
      "velocity": 100,
      "chip": "ym2612"
    },
    {
      "channel": 1,
      "note": 105,
      "start": 1.364,
      "duration": 0.0167,
      "velocity": 105,
      "chip": "ym2612"
    },
    {
      "channel": 0,
      "note": 47,
      "start": 1.3656,
      "duration": 0.0167,
      "velocity": 115,
      "chip": "ym2612"
    },
    {
      "channel": 2,
      "note": 57,
      "start": 1.3691,
      "duration": 0.0167,
      "velocity": 100,
      "chip": "ym2612"
    },
    {
      "channel": 1,
      "note": 105,
      "start": 1.3807,
      "duration": 0.018,
      "velocity": 124,
      "chip": "ym2612"
    },
    {
      "channel": 0,
      "note": 48,
      "start": 1.3823,
      "duration": 0.0188,
      "velocity": 115,
      "chip": "ym2612"
    },
    {
      "channel": 2,
      "note": 57,
      "start": 1.3857,
      "duration": 0.0191,
      "velocity": 100,
      "chip": "ym2612"
    },
    {
      "channel": 1,
      "note": 78,
      "start": 1.3987,
      "duration": 0.0123,
      "velocity": 124,
      "chip": "ym2612"
    },
    {
      "channel": 0,
      "note": 48,
      "start": 1.4011,
      "duration": 0.0118,
      "velocity": 115,
      "chip": "ym2612"
    },
    {
      "channel": 2,
      "note": 57,
      "start": 1.4048,
      "duration": 0.0116,
      "velocity": 100,
      "chip": "ym2612"
    },
    {
      "channel": 1,
      "note": 76,
      "start": 1.411,
      "duration": 0.0184,
      "velocity": 124,
      "chip": "ym2612"
    },
    {
      "channel": 0,
      "note": 49,
      "start": 1.4129,
      "duration": 0.0176,
      "velocity": 1,
      "chip": "ym2612"
    },
    {
      "channel": 2,
      "note": 57,
      "start": 1.4164,
      "duration": 0.0176,
      "velocity": 100,
      "chip": "ym2612"
    },
    {
      "channel": 1,
      "note": 75,
      "start": 1.4294,
      "duration": 0.0134,
      "velocity": 124,
      "chip": "ym2612"
    },
    {
      "channel": 2,
      "note": 57,
      "start": 1.4339,
      "duration": 0.0153,
      "velocity": 100,
      "chip": "ym2612"
    },
    {
      "channel": 1,
      "note": 74,
      "start": 1.4428,
      "duration": 0.0161,
      "velocity": 124,
      "chip": "ym2612"
    },
    {
      "channel": 2,
      "note": 57,
      "start": 1.4492,
      "duration": 0.0157,
      "velocity": 100,
      "chip": "ym2612"
    },
    {
      "channel": 1,
      "note": 72,
      "start": 1.4589,
      "duration": 0.0161,
      "velocity": 124,
      "chip": "ym2612"
    },
    {
      "channel": 2,
      "note": 57,
      "start": 1.4649,
      "duration": 0.0141,
      "velocity": 100,
      "chip": "ym2612"
    },
    {
      "channel": 1,
      "note": 71,
      "start": 1.475,
      "duration": 0.0161,
      "velocity": 124,
      "chip": "ym2612"
    },
    {
      "channel": 2,
      "note": 57,
      "start": 1.479,
      "duration": 0.0185,
      "velocity": 100,
      "chip": "ym2612"
    },
    {
      "channel": 1,
      "note": 70,
      "start": 1.4911,
      "duration": 0.0161,
      "velocity": 124,
      "chip": "ym2612"
    },
    {
      "channel": 2,
      "note": 57,
      "start": 1.4975,
      "duration": 0.0169,
      "velocity": 100,
      "chip": "ym2612"
    },
    {
      "channel": 1,
      "note": 69,
      "start": 1.5072,
      "duration": 0.0161,
      "velocity": 124,
      "chip": "ym2612"
    },
    {
      "channel": 2,
      "note": 57,
      "start": 1.5145,
      "duration": 0.0149,
      "velocity": 100,
      "chip": "ym2612"
    },
    {
      "channel": 1,
      "note": 68,
      "start": 1.5233,
      "duration": 0.0161,
      "velocity": 124,
      "chip": "ym2612"
    },
    {
      "channel": 2,
      "note": 57,
      "start": 1.5294,
      "duration": 0.0137,
      "velocity": 100,
      "chip": "ym2612"
    },
    {
      "channel": 1,
      "note": 66,
      "start": 1.5394,
      "duration": 0.0161,
      "velocity": 124,
      "chip": "ym2612"
    },
    {
      "channel": 2,
      "note": 57,
      "start": 1.5431,
      "duration": 0.0161,
      "velocity": 100,
      "chip": "ym2612"
    },
    {
      "channel": 1,
      "note": 65,
      "start": 1.5555,
      "duration": 0.0161,
      "velocity": 124,
      "chip": "ym2612"
    },
    {
      "channel": 2,
      "note": 57,
      "start": 1.5592,
      "duration": 0.0161,
      "velocity": 100,
      "chip": "ym2612"
    },
    {
      "channel": 1,
      "note": 64,
      "start": 1.5716,
      "duration": 0.0161,
      "velocity": 124,
      "chip": "ym2612"
    },
    {
      "channel": 2,
      "note": 57,
      "start": 1.5753,
      "duration": 0.0161,
      "velocity": 100,
      "chip": "ym2612"
    },
    {
      "channel": 1,
      "note": 62,
      "start": 1.5877,
      "duration": 0.0161,
      "velocity": 124,
      "chip": "ym2612"
    },
    {
      "channel": 2,
      "note": 57,
      "start": 1.5914,
      "duration": 0.0161,
      "velocity": 100,
      "chip": "ym2612"
    },
    {
      "channel": 1,
      "note": 61,
      "start": 1.6038,
      "duration": 0.0161,
      "velocity": 124,
      "chip": "ym2612"
    },
    {
      "channel": 2,
      "note": 57,
      "start": 1.6075,
      "duration": 0.0169,
      "velocity": 100,
      "chip": "ym2612"
    },
    {
      "channel": 1,
      "note": 60,
      "start": 1.6199,
      "duration": 0.0162,
      "velocity": 124,
      "chip": "ym2612"
    },
    {
      "channel": 2,
      "note": 50,
      "start": 1.6244,
      "duration": 0.0154,
      "velocity": 100,
      "chip": "ym2612"
    },
    {
      "channel": 1,
      "note": 59,
      "start": 1.6361,
      "duration": 0.0161,
      "velocity": 124,
      "chip": "ym2612"
    },
    {
      "channel": 2,
      "note": 50,
      "start": 1.6398,
      "duration": 0.016,
      "velocity": 100,
      "chip": "ym2612"
    },
    {
      "channel": 1,
      "note": 57,
      "start": 1.6522,
      "duration": 0.0161,
      "velocity": 124,
      "chip": "ym2612"
    },
    {
      "channel": 2,
      "note": 50,
      "start": 1.6558,
      "duration": 0.0161,
      "velocity": 100,
      "chip": "ym2612"
    },
    {
      "channel": 1,
      "note": 56,
      "start": 1.6683,
      "duration": 0.0161,
      "velocity": 124,
      "chip": "ym2612"
    },
    {
      "channel": 2,
      "note": 50,
      "start": 1.6719,
      "duration": 0.0161,
      "velocity": 100,
      "chip": "ym2612"
    },
    {
      "channel": 1,
      "note": 55,
      "start": 1.6843,
      "duration": 0.0161,
      "velocity": 124,
      "chip": "ym2612"
    },
    {
      "channel": 2,
      "note": 50,
      "start": 1.688,
      "duration": 0.0161,
      "velocity": 100,
      "chip": "ym2612"
    },
    {
      "channel": 1,
      "note": 53,
      "start": 1.7004,
      "duration": 0.0161,
      "velocity": 124,
      "chip": "ym2612"
    },
    {
      "channel": 2,
      "note": 50,
      "start": 1.7041,
      "duration": 0.0161,
      "velocity": 100,
      "chip": "ym2612"
    },
    {
      "channel": 1,
      "note": 52,
      "start": 1.7165,
      "duration": 0.0161,
      "velocity": 124,
      "chip": "ym2612"
    },
    {
      "channel": 2,
      "note": 50,
      "start": 1.7202,
      "duration": 0.0203,
      "velocity": 100,
      "chip": "ym2612"
    },
    {
      "channel": 1,
      "note": 51,
      "start": 1.7326,
      "duration": 0.0153,
      "velocity": 1,
      "chip": "ym2612"
    },
    {
      "channel": 0,
      "note": 78,
      "start": 1.7369,
      "duration": 0.015,
      "velocity": 127,
      "chip": "ym2612"
    },
    {
      "channel": 2,
      "note": 50,
      "start": 1.7406,
      "duration": 0.0148,
      "velocity": 100,
      "chip": "ym2612"
    },
    {
      "channel": 1,
      "note": 51,
      "start": 1.7501,
      "duration": 0.0142,
      "velocity": 105,
      "chip": "ym2612"
    },
    {
      "channel": 0,
      "note": 76,
      "start": 1.7518,
      "duration": 0.0142,
      "velocity": 127,
      "chip": "ym2612"
    },
    {
      "channel": 2,
      "note": 50,
      "start": 1.7553,
      "duration": 0.0141,
      "velocity": 100,
      "chip": "ym2612"
    },
    {
      "channel": 1,
      "note": 105,
      "start": 1.7644,
      "duration": 0.0163,
      "velocity": 105,
      "chip": "ym2612"
    },
    {
      "channel": 0,
      "note": 75,
      "start": 1.766,
      "duration": 0.0163,
      "velocity": 127,
      "chip": "ym2612"
    },
    {
      "channel": 2,
      "note": 50,
      "start": 1.7695,
      "duration": 0.0163,
      "velocity": 100,
      "chip": "ym2612"
    },
    {
      "channel": 1,
      "note": 105,
      "start": 1.7807,
      "duration": 0.0163,
      "velocity": 105,
      "chip": "ym2612"
    },
    {
      "channel": 0,
      "note": 73,
      "start": 1.7823,
      "duration": 0.0163,
      "velocity": 127,
      "chip": "ym2612"
    },
    {
      "channel": 2,
      "note": 50,
      "start": 1.7857,
      "duration": 0.0163,
      "velocity": 100,
      "chip": "ym2612"
    },
    {
      "channel": 1,
      "note": 105,
      "start": 1.7969,
      "duration": 0.0157,
      "velocity": 105,
      "chip": "ym2612"
    },
    {
      "channel": 0,
      "note": 71,
      "start": 1.7986,
      "duration": 0.0157,
      "velocity": 127,
      "chip": "ym2612"
    },
    {
      "channel": 2,
      "note": 50,
      "start": 1.802,
      "duration": 0.0157,
      "velocity": 100,
      "chip": "ym2612"
    },
    {
      "channel": 1,
      "note": 105,
      "start": 1.8127,
      "duration": 0.018,
      "velocity": 105,
      "chip": "ym2612"
    },
    {
      "channel": 0,
      "note": 70,
      "start": 1.8143,
      "duration": 0.018,
      "velocity": 127,
      "chip": "ym2612"
    },
    {
      "channel": 2,
      "note": 50,
      "start": 1.8177,
      "duration": 0.018,
      "velocity": 100,
      "chip": "ym2612"
    },
    {
      "channel": 1,
      "note": 105,
      "start": 1.8307,
      "duration": 0.0183,
      "velocity": 124,
      "chip": "ym2612"
    },
    {
      "channel": 0,
      "note": 68,
      "start": 1.8323,
      "duration": 0.0202,
      "velocity": 115,
      "chip": "ym2612"
    },
    {
      "channel": 2,
      "note": 50,
      "start": 1.8357,
      "duration": 0.0204,
      "velocity": 100,
      "chip": "ym2612"
    },
    {
      "channel": 1,
      "note": 64,
      "start": 1.849,
      "duration": 0.0144,
      "velocity": 124,
      "chip": "ym2612"
    },
    {
      "channel": 0,
      "note": 36,
      "start": 1.8525,
      "duration": 0.0126,
      "velocity": 115,
      "chip": "ym2612"
    },
    {
      "channel": 2,
      "note": 52,
      "start": 1.8562,
      "duration": 0.0124,
      "velocity": 100,
      "chip": "ym2612"
    },
    {
      "channel": 1,
      "note": 64,
      "start": 1.8634,
      "duration": 0.0139,
      "velocity": 124,
      "chip": "ym2612"
    },
    {
      "channel": 0,
      "note": 36,
      "start": 1.8651,
      "duration": 0.0139,
      "velocity": 115,
      "chip": "ym2612"
    },
    {
      "channel": 2,
      "note": 52,
      "start": 1.8686,
      "duration": 0.0139,
      "velocity": 100,
      "chip": "ym2612"
    },
    {
      "channel": 1,
      "note": 64,
      "start": 1.8773,
      "duration": 0.0186,
      "velocity": 124,
      "chip": "ym2612"
    },
    {
      "channel": 0,
      "note": 37,
      "start": 1.879,
      "duration": 0.0185,
      "velocity": 115,
      "chip": "ym2612"
    },
    {
      "channel": 2,
      "note": 52,
      "start": 1.8825,
      "duration": 0.0185,
      "velocity": 100,
      "chip": "ym2612"
    },
    {
      "channel": 1,
      "note": 64,
      "start": 1.8959,
      "duration": 0.0134,
      "velocity": 124,
      "chip": "ym2612"
    },
    {
      "channel": 0,
      "note": 37,
      "start": 1.8976,
      "duration": 0.0161,
      "velocity": 115,
      "chip": "ym2612"
    },
    {
      "channel": 2,
      "note": 52,
      "start": 1.901,
      "duration": 0.0161,
      "velocity": 100,
      "chip": "ym2612"
    },
    {
      "channel": 1,
      "note": 64,
      "start": 1.9093,
      "duration": 0.0161,
      "velocity": 124,
      "chip": "ym2612"
    },
    {
      "channel": 0,
      "note": 38,
      "start": 1.9137,
      "duration": 0.0158,
      "velocity": 115,
      "chip": "ym2612"
    },
    {
      "channel": 2,
      "note": 52,
      "start": 1.9171,
      "duration": 0.0158,
      "velocity": 100,
      "chip": "ym2612"
    },
    {
      "channel": 1,
      "note": 64,
      "start": 1.9254,
      "duration": 0.0161,
      "velocity": 124,
      "chip": "ym2612"
    },
    {
      "channel": 0,
      "note": 38,
      "start": 1.9294,
      "duration": 0.0137,
      "velocity": 115,
      "chip": "ym2612"
    },
    {
      "channel": 2,
      "note": 52,
      "start": 1.9329,
      "duration": 0.014,
      "velocity": 100,
      "chip": "ym2612"
    },
    {
      "channel": 1,
      "note": 64,
      "start": 1.9415,
      "duration": 0.0178,
      "velocity": 105,
      "chip": "ym2612"
    },
    {
      "channel": 0,
      "note": 39,
      "start": 1.9431,
      "duration": 0.0206,
      "velocity": 115,
      "chip": "ym2612"
    },
    {
      "channel": 2,
      "note": 52,
      "start": 1.9469,
      "duration": 0.0207,
      "velocity": 100,
      "chip": "ym2612"
    },
    {
      "channel": 1,
      "note": 105,
      "start": 1.9593,
      "duration": 0.0144,
      "velocity": 105,
      "chip": "ym2612"
    },
    {
      "channel": 0,
      "note": 39,
      "start": 1.9637,
      "duration": 0.0117,
      "velocity": 115,
      "chip": "ym2612"
    },
    {
      "channel": 2,
      "note": 52,
      "start": 1.9676,
      "duration": 0.0141,
      "velocity": 100,
      "chip": "ym2612"
    },
    {
      "channel": 1,
      "note": 105,
      "start": 1.9737,
      "duration": 0.016,
      "velocity": 105,
      "chip": "ym2612"
    },
    {
      "channel": 0,
      "note": 40,
      "start": 1.9754,
      "duration": 0.016,
      "velocity": 115,
      "chip": "ym2612"
    },
    {
      "channel": 2,
      "note": 52,
      "start": 1.9817,
      "duration": 0.0156,
      "velocity": 100,
      "chip": "ym2612"
    },
    {
      "channel": 1,
      "note": 105,
      "start": 1.9898,
      "duration": 0.0161,
      "velocity": 105,
      "chip": "ym2612"
    },
    {
      "channel": 0,
      "note": 40,
      "start": 1.9914,
      "duration": 0.0161,
      "velocity": 115,
      "chip": "ym2612"
    },
    {
      "channel": 2,
      "note": 52,
      "start": 1.9973,
      "duration": 0.014,
      "velocity": 100,
      "chip": "ym2612"
    },
    {
      "channel": 1,
      "note": 105,
      "start": 2.0058,
      "duration": 0.0161,
      "velocity": 105,
      "chip": "ym2612"
    },
    {
      "channel": 0,
      "note": 40,
      "start": 2.0075,
      "duration": 0.0161,
      "velocity": 115,
      "chip": "ym2612"
    },
    {
      "channel": 2,
      "note": 52,
      "start": 2.0112,
      "duration": 0.0186,
      "velocity": 100,
      "chip": "ym2612"
    },
    {
      "channel": 1,
      "note": 105,
      "start": 2.0219,
      "duration": 0.0161,
      "velocity": 105,
      "chip": "ym2612"
    },
    {
      "channel": 0,
      "note": 41,
      "start": 2.0236,
      "duration": 0.0162,
      "velocity": 115,
      "chip": "ym2612"
    },
    {
      "channel": 2,
      "note": 52,
      "start": 2.0298,
      "duration": 0.0161,
      "velocity": 100,
      "chip": "ym2612"
    },
    {
      "channel": 1,
      "note": 105,
      "start": 2.038,
      "duration": 0.0162,
      "velocity": 105,
      "chip": "ym2612"
    },
    {
      "channel": 0,
      "note": 41,
      "start": 2.0398,
      "duration": 0.0161,
      "velocity": 115,
      "chip": "ym2612"
    },
    {
      "channel": 2,
      "note": 52,
      "start": 2.0459,
      "duration": 0.0134,
      "velocity": 100,
      "chip": "ym2612"
    },
    {
      "channel": 1,
      "note": 105,
      "start": 2.0542,
      "duration": 0.0177,
      "velocity": 124,
      "chip": "ym2612"
    },
    {
      "channel": 0,
      "note": 42,
      "start": 2.0558,
      "duration": 0.0178,
      "velocity": 115,
      "chip": "ym2612"
    },
    {
      "channel": 2,
      "note": 52,
      "start": 2.0593,
      "duration": 0.0186,
      "velocity": 100,
      "chip": "ym2612"
    },
    {
      "channel": 1,
      "note": 64,
      "start": 2.072,
      "duration": 0.0144,
      "velocity": 124,
      "chip": "ym2612"
    },
    {
      "channel": 0,
      "note": 42,
      "start": 2.0737,
      "duration": 0.0144,
      "velocity": 115,
      "chip": "ym2612"
    },
    {
      "channel": 2,
      "note": 52,
      "start": 2.078,
      "duration": 0.0137,
      "velocity": 100,
      "chip": "ym2612"
    },
    {
      "channel": 1,
      "note": 64,
      "start": 2.0864,
      "duration": 0.016,
      "velocity": 124,
      "chip": "ym2612"
    },
    {
      "channel": 0,
      "note": 43,
      "start": 2.0881,
      "duration": 0.016,
      "velocity": 115,
      "chip": "ym2612"
    },
    {
      "channel": 2,
      "note": 52,
      "start": 2.0917,
      "duration": 0.0159,
      "velocity": 100,
      "chip": "ym2612"
    },
    {
      "channel": 1,
      "note": 64,
      "start": 2.1025,
      "duration": 0.0161,
      "velocity": 124,
      "chip": "ym2612"
    },
    {
      "channel": 0,
      "note": 43,
      "start": 2.1041,
      "duration": 0.0161,
      "velocity": 115,
      "chip": "ym2612"
    },
    {
      "channel": 2,
      "note": 52,
      "start": 2.1076,
      "duration": 0.0161,
      "velocity": 100,
      "chip": "ym2612"
    },
    {
      "channel": 1,
      "note": 64,
      "start": 2.1186,
      "duration": 0.0161,
      "velocity": 124,
      "chip": "ym2612"
    },
    {
      "channel": 0,
      "note": 44,
      "start": 2.1202,
      "duration": 0.0162,
      "velocity": 115,
      "chip": "ym2612"
    },
    {
      "channel": 2,
      "note": 52,
      "start": 2.1237,
      "duration": 0.0162,
      "velocity": 100,
      "chip": "ym2612"
    },
    {
      "channel": 1,
      "note": 64,
      "start": 2.1346,
      "duration": 0.0161,
      "velocity": 124,
      "chip": "ym2612"
    },
    {
      "channel": 0,
      "note": 44,
      "start": 2.1364,
      "duration": 0.0161,
      "velocity": 115,
      "chip": "ym2612"
    },
    {
      "channel": 2,
      "note": 52,
      "start": 2.1398,
      "duration": 0.0161,
      "velocity": 100,
      "chip": "ym2612"
    },
    {
      "channel": 1,
      "note": 64,
      "start": 2.1507,
      "duration": 0.0161,
      "velocity": 124,
      "chip": "ym2612"
    },
    {
      "channel": 0,
      "note": 44,
      "start": 2.1525,
      "duration": 0.0161,
      "velocity": 115,
      "chip": "ym2612"
    },
    {
      "channel": 2,
      "note": 52,
      "start": 2.1559,
      "duration": 0.0161,
      "velocity": 100,
      "chip": "ym2612"
    },
    {
      "channel": 1,
      "note": 64,
      "start": 2.1668,
      "duration": 0.0178,
      "velocity": 105,
      "chip": "ym2612"
    },
    {
      "channel": 0,
      "note": 45,
      "start": 2.1686,
      "duration": 0.0178,
      "velocity": 115,
      "chip": "ym2612"
    },
    {
      "channel": 2,
      "note": 52,
      "start": 2.172,
      "duration": 0.0181,
      "velocity": 100,
      "chip": "ym2612"
    },
    {
      "channel": 1,
      "note": 105,
      "start": 2.1846,
      "duration": 0.0144,
      "velocity": 105,
      "chip": "ym2612"
    },
    {
      "channel": 0,
      "note": 45,
      "start": 2.1864,
      "duration": 0.0144,
      "velocity": 115,
      "chip": "ym2612"
    },
    {
      "channel": 2,
      "note": 52,
      "start": 2.1901,
      "duration": 0.0142,
      "velocity": 100,
      "chip": "ym2612"
    },
    {
      "channel": 1,
      "note": 105,
      "start": 2.1991,
      "duration": 0.0161,
      "velocity": 105,
      "chip": "ym2612"
    },
    {
      "channel": 0,
      "note": 46,
      "start": 2.2008,
      "duration": 0.016,
      "velocity": 115,
      "chip": "ym2612"
    },
    {
      "channel": 2,
      "note": 52,
      "start": 2.2043,
      "duration": 0.016,
      "velocity": 100,
      "chip": "ym2612"
    },
    {
      "channel": 1,
      "note": 105,
      "start": 2.2152,
      "duration": 0.0161,
      "velocity": 105,
      "chip": "ym2612"
    },
    {
      "channel": 0,
      "note": 46,
      "start": 2.2168,
      "duration": 0.0161,
      "velocity": 115,
      "chip": "ym2612"
    },
    {
      "channel": 2,
      "note": 52,
      "start": 2.2203,
      "duration": 0.0161,
      "velocity": 100,
      "chip": "ym2612"
    },
    {
      "channel": 1,
      "note": 105,
      "start": 2.2313,
      "duration": 0.0161,
      "velocity": 105,
      "chip": "ym2612"
    },
    {
      "channel": 0,
      "note": 47,
      "start": 2.2329,
      "duration": 0.0161,
      "velocity": 115,
      "chip": "ym2612"
    },
    {
      "channel": 2,
      "note": 52,
      "start": 2.2364,
      "duration": 0.0161,
      "velocity": 100,
      "chip": "ym2612"
    },
    {
      "channel": 1,
      "note": 105,
      "start": 2.2474,
      "duration": 0.0162,
      "velocity": 105,
      "chip": "ym2612"
    },
    {
      "channel": 0,
      "note": 47,
      "start": 2.249,
      "duration": 0.0162,
      "velocity": 115,
      "chip": "ym2612"
    },
    {
      "channel": 2,
      "note": 52,
      "start": 2.2525,
      "duration": 0.0162,
      "velocity": 100,
      "chip": "ym2612"
    },
    {
      "channel": 1,
      "note": 105,
      "start": 2.2636,
      "duration": 0.016,
      "velocity": 105,
      "chip": "ym2612"
    },
    {
      "channel": 0,
      "note": 47,
      "start": 2.2653,
      "duration": 0.016,
      "velocity": 115,
      "chip": "ym2612"
    },
    {
      "channel": 2,
      "note": 52,
      "start": 2.2687,
      "duration": 0.016,
      "velocity": 100,
      "chip": "ym2612"
    },
    {
      "channel": 1,
      "note": 105,
      "start": 2.2796,
      "duration": 0.02,
      "velocity": 124,
      "chip": "ym2612"
    },
    {
      "channel": 0,
      "note": 48,
      "start": 2.2812,
      "duration": 0.0207,
      "velocity": 115,
      "chip": "ym2612"
    },
    {
      "channel": 2,
      "note": 52,
      "start": 2.2846,
      "duration": 0.021,
      "velocity": 100,
      "chip": "ym2612"
    },
    {
      "channel": 1,
      "note": 78,
      "start": 2.2995,
      "duration": 0.0149,
      "velocity": 124,
      "chip": "ym2612"
    },
    {
      "channel": 0,
      "note": 48,
      "start": 2.302,
      "duration": 0.0144,
      "velocity": 115,
      "chip": "ym2612"
    },
    {
      "channel": 2,
      "note": 52,
      "start": 2.3057,
      "duration": 0.0142,
      "velocity": 100,
      "chip": "ym2612"
    },
    {
      "channel": 1,
      "note": 76,
      "start": 2.3145,
      "duration": 0.0163,
      "velocity": 124,
      "chip": "ym2612"
    },
    {
      "channel": 0,
      "note": 49,
      "start": 2.3164,
      "duration": 0.0155,
      "velocity": 1,
      "chip": "ym2612"
    },
    {
      "channel": 2,
      "note": 52,
      "start": 2.3199,
      "duration": 0.0154,
      "velocity": 100,
      "chip": "ym2612"
    },
    {
      "channel": 1,
      "note": 75,
      "start": 2.3308,
      "duration": 0.014,
      "velocity": 124,
      "chip": "ym2612"
    },
    {
      "channel": 2,
      "note": 52,
      "start": 2.3353,
      "duration": 0.0132,
      "velocity": 100,
      "chip": "ym2612"
    },
    {
      "channel": 1,
      "note": 74,
      "start": 2.3448,
      "duration": 0.0186,
      "velocity": 124,
      "chip": "ym2612"
    },
    {
      "channel": 2,
      "note": 52,
      "start": 2.3485,
      "duration": 0.0185,
      "velocity": 100,
      "chip": "ym2612"
    },
    {
      "channel": 1,
      "note": 72,
      "start": 2.3634,
      "duration": 0.0161,
      "velocity": 124,
      "chip": "ym2612"
    },
    {
      "channel": 2,
      "note": 52,
      "start": 2.367,
      "duration": 0.0162,
      "velocity": 100,
      "chip": "ym2612"
    },
    {
      "channel": 1,
      "note": 71,
      "start": 2.3794,
      "duration": 0.0134,
      "velocity": 124,
      "chip": "ym2612"
    },
    {
      "channel": 2,
      "note": 52,
      "start": 2.3831,
      "duration": 0.0157,
      "velocity": 100,
      "chip": "ym2612"
    },
    {
      "channel": 1,
      "note": 70,
      "start": 2.3928,
      "duration": 0.0161,
      "velocity": 124,
      "chip": "ym2612"
    },
    {
      "channel": 2,
      "note": 52,
      "start": 2.3988,
      "duration": 0.0148,
      "velocity": 100,
      "chip": "ym2612"
    },
    {
      "channel": 1,
      "note": 69,
      "start": 2.4089,
      "duration": 0.0161,
      "velocity": 124,
      "chip": "ym2612"
    },
    {
      "channel": 2,
      "note": 52,
      "start": 2.4137,
      "duration": 0.0178,
      "velocity": 100,
      "chip": "ym2612"
    },
    {
      "channel": 1,
      "note": 68,
      "start": 2.425,
      "duration": 0.0161,
      "velocity": 124,
      "chip": "ym2612"
    },
    {
      "channel": 2,
      "note": 52,
      "start": 2.4315,
      "duration": 0.016,
      "velocity": 100,
      "chip": "ym2612"
    },
    {
      "channel": 1,
      "note": 66,
      "start": 2.4411,
      "duration": 0.0161,
      "velocity": 124,
      "chip": "ym2612"
    },
    {
      "channel": 2,
      "note": 52,
      "start": 2.4475,
      "duration": 0.0157,
      "velocity": 100,
      "chip": "ym2612"
    },
    {
      "channel": 1,
      "note": 65,
      "start": 2.4572,
      "duration": 0.0161,
      "velocity": 124,
      "chip": "ym2612"
    },
    {
      "channel": 2,
      "note": 52,
      "start": 2.4632,
      "duration": 0.0141,
      "velocity": 100,
      "chip": "ym2612"
    },
    {
      "channel": 1,
      "note": 64,
      "start": 2.4733,
      "duration": 0.0161,
      "velocity": 124,
      "chip": "ym2612"
    },
    {
      "channel": 2,
      "note": 52,
      "start": 2.4773,
      "duration": 0.0158,
      "velocity": 100,
      "chip": "ym2612"
    },
    {
      "channel": 1,
      "note": 62,
      "start": 2.4894,
      "duration": 0.0161,
      "velocity": 124,
      "chip": "ym2612"
    },
    {
      "channel": 2,
      "note": 52,
      "start": 2.4931,
      "duration": 0.0161,
      "velocity": 100,
      "chip": "ym2612"
    },
    {
      "channel": 1,
      "note": 61,
      "start": 2.5055,
      "duration": 0.0161,
      "velocity": 124,
      "chip": "ym2612"
    },
    {
      "channel": 2,
      "note": 52,
      "start": 2.5091,
      "duration": 0.0169,
      "velocity": 100,
      "chip": "ym2612"
    },
    {
      "channel": 1,
      "note": 60,
      "start": 2.5216,
      "duration": 0.0161,
      "velocity": 124,
      "chip": "ym2612"
    },
    {
      "channel": 2,
      "note": 52,
      "start": 2.5261,
      "duration": 0.0153,
      "velocity": 100,
      "chip": "ym2612"
    },
    {
      "channel": 1,
      "note": 59,
      "start": 2.5377,
      "duration": 0.0161,
      "velocity": 124,
      "chip": "ym2612"
    },
    {
      "channel": 2,
      "note": 52,
      "start": 2.5415,
      "duration": 0.016,
      "velocity": 100,
      "chip": "ym2612"
    },
    {
      "channel": 1,
      "note": 57,
      "start": 2.5538,
      "duration": 0.0161,
      "velocity": 124,
      "chip": "ym2612"
    },
    {
      "channel": 2,
      "note": 52,
      "start": 2.5574,
      "duration": 0.0161,
      "velocity": 100,
      "chip": "ym2612"
    },
    {
      "channel": 1,
      "note": 56,
      "start": 2.5699,
      "duration": 0.0161,
      "velocity": 124,
      "chip": "ym2612"
    },
    {
      "channel": 2,
      "note": 52,
      "start": 2.5736,
      "duration": 0.0161,
      "velocity": 100,
      "chip": "ym2612"
    },
    {
      "channel": 1,
      "note": 55,
      "start": 2.586,
      "duration": 0.0161,
      "velocity": 124,
      "chip": "ym2612"
    },
    {
      "channel": 2,
      "note": 52,
      "start": 2.5897,
      "duration": 0.0161,
      "velocity": 100,
      "chip": "ym2612"
    },
    {
      "channel": 1,
      "note": 53,
      "start": 2.6021,
      "duration": 0.0161,
      "velocity": 124,
      "chip": "ym2612"
    },
    {
      "channel": 2,
      "note": 52,
      "start": 2.6058,
      "duration": 0.0161,
      "velocity": 100,
      "chip": "ym2612"
    },
    {
      "channel": 1,
      "note": 52,
      "start": 2.6182,
      "duration": 0.0161,
      "velocity": 124,
      "chip": "ym2612"
    },
    {
      "channel": 2,
      "note": 52,
      "start": 2.6219,
      "duration": 0.0204,
      "velocity": 100,
      "chip": "ym2612"
    },
    {
      "channel": 1,
      "note": 51,
      "start": 2.6343,
      "duration": 0.0154,
      "velocity": 1,
      "chip": "ym2612"
    },
    {
      "channel": 0,
      "note": 36,
      "start": 2.6385,
      "duration": 0.015,
      "velocity": 115,
      "chip": "ym2612"
    },
    {
      "channel": 2,
      "note": 52,
      "start": 2.6422,
      "duration": 0.0148,
      "velocity": 100,
      "chip": "ym2612"
    },
    {
      "channel": 1,
      "note": 51,
      "start": 2.6518,
      "duration": 0.0142,
      "velocity": 105,
      "chip": "ym2612"
    },
    {
      "channel": 0,
      "note": 36,
      "start": 2.6535,
      "duration": 0.0142,
      "velocity": 115,
      "chip": "ym2612"
    },
    {
      "channel": 2,
      "note": 52,
      "start": 2.657,
      "duration": 0.0141,
      "velocity": 100,
      "chip": "ym2612"
    },
    {
      "channel": 1,
      "note": 105,
      "start": 2.666,
      "duration": 0.0161,
      "velocity": 105,
      "chip": "ym2612"
    },
    {
      "channel": 0,
      "note": 37,
      "start": 2.6677,
      "duration": 0.0161,
      "velocity": 115,
      "chip": "ym2612"
    },
    {
      "channel": 2,
      "note": 52,
      "start": 2.6711,
      "duration": 0.0161,
      "velocity": 100,
      "chip": "ym2612"
    },
    {
      "channel": 1,
      "note": 105,
      "start": 2.6821,
      "duration": 0.0161,
      "velocity": 105,
      "chip": "ym2612"
    },
    {
      "channel": 0,
      "note": 37,
      "start": 2.6838,
      "duration": 0.0161,
      "velocity": 115,
      "chip": "ym2612"
    },
    {
      "channel": 2,
      "note": 52,
      "start": 2.6872,
      "duration": 0.0161,
      "velocity": 100,
      "chip": "ym2612"
    },
    {
      "channel": 1,
      "note": 105,
      "start": 2.6982,
      "duration": 0.0161,
      "velocity": 105,
      "chip": "ym2612"
    },
    {
      "channel": 0,
      "note": 38,
      "start": 2.6999,
      "duration": 0.0161,
      "velocity": 115,
      "chip": "ym2612"
    },
    {
      "channel": 2,
      "note": 52,
      "start": 2.7033,
      "duration": 0.0161,
      "velocity": 100,
      "chip": "ym2612"
    },
    {
      "channel": 1,
      "note": 105,
      "start": 2.7143,
      "duration": 0.0161,
      "velocity": 105,
      "chip": "ym2612"
    },
    {
      "channel": 0,
      "note": 38,
      "start": 2.716,
      "duration": 0.0161,
      "velocity": 115,
      "chip": "ym2612"
    },
    {
      "channel": 2,
      "note": 52,
      "start": 2.7194,
      "duration": 0.0162,
      "velocity": 100,
      "chip": "ym2612"
    },
    {
      "channel": 1,
      "note": 105,
      "start": 2.7305,
      "duration": 0.0178,
      "velocity": 124,
      "chip": "ym2612"
    },
    {
      "channel": 0,
      "note": 39,
      "start": 2.7321,
      "duration": 0.0196,
      "velocity": 115,
      "chip": "ym2612"
    },
    {
      "channel": 2,
      "note": 52,
      "start": 2.7356,
      "duration": 0.0199,
      "velocity": 100,
      "chip": "ym2612"
    },
    {
      "channel": 1,
      "note": 64,
      "start": 2.7483,
      "duration": 0.0158,
      "velocity": 124,
      "chip": "ym2612"
    },
    {
      "channel": 0,
      "note": 36,
      "start": 2.7517,
      "duration": 0.0141,
      "velocity": 115,
      "chip": "ym2612"
    },
    {
      "channel": 2,
      "note": 52,
      "start": 2.7555,
      "duration": 0.0138,
      "velocity": 100,
      "chip": "ym2612"
    },
    {
      "channel": 1,
      "note": 64,
      "start": 2.764,
      "duration": 0.0166,
      "velocity": 124,
      "chip": "ym2612"
    },
    {
      "channel": 0,
      "note": 36,
      "start": 2.7658,
      "duration": 0.0166,
      "velocity": 115,
      "chip": "ym2612"
    },
    {
      "channel": 2,
      "note": 52,
      "start": 2.7693,
      "duration": 0.0165,
      "velocity": 100,
      "chip": "ym2612"
    },
    {
      "channel": 1,
      "note": 64,
      "start": 2.7807,
      "duration": 0.0163,
      "velocity": 124,
      "chip": "ym2612"
    },
    {
      "channel": 0,
      "note": 37,
      "start": 2.7823,
      "duration": 0.0163,
      "velocity": 115,
      "chip": "ym2612"
    },
    {
      "channel": 2,
      "note": 52,
      "start": 2.7857,
      "duration": 0.0163,
      "velocity": 100,
      "chip": "ym2612"
    },
    {
      "channel": 1,
      "note": 64,
      "start": 2.7969,
      "duration": 0.0143,
      "velocity": 124,
      "chip": "ym2612"
    },
    {
      "channel": 0,
      "note": 37,
      "start": 2.7986,
      "duration": 0.0143,
      "velocity": 115,
      "chip": "ym2612"
    },
    {
      "channel": 2,
      "note": 52,
      "start": 2.802,
      "duration": 0.0143,
      "velocity": 100,
      "chip": "ym2612"
    },
    {
      "channel": 1,
      "note": 64,
      "start": 2.8112,
      "duration": 0.0185,
      "velocity": 124,
      "chip": "ym2612"
    },
    {
      "channel": 0,
      "note": 38,
      "start": 2.8129,
      "duration": 0.0185,
      "velocity": 115,
      "chip": "ym2612"
    },
    {
      "channel": 2,
      "note": 52,
      "start": 2.8163,
      "duration": 0.0185,
      "velocity": 100,
      "chip": "ym2612"
    },
    {
      "channel": 1,
      "note": 64,
      "start": 2.8298,
      "duration": 0.0134,
      "velocity": 124,
      "chip": "ym2612"
    },
    {
      "channel": 0,
      "note": 38,
      "start": 2.8314,
      "duration": 0.0162,
      "velocity": 115,
      "chip": "ym2612"
    },
    {
      "channel": 2,
      "note": 52,
      "start": 2.8349,
      "duration": 0.0161,
      "velocity": 100,
      "chip": "ym2612"
    },
    {
      "channel": 1,
      "note": 64,
      "start": 2.8431,
      "duration": 0.0202,
      "velocity": 105,
      "chip": "ym2612"
    },
    {
      "channel": 0,
      "note": 39,
      "start": 2.8476,
      "duration": 0.0174,
      "velocity": 115,
      "chip": "ym2612"
    },
    {
      "channel": 2,
      "note": 52,
      "start": 2.851,
      "duration": 0.0177,
      "velocity": 100,
      "chip": "ym2612"
    },
    {
      "channel": 1,
      "note": 105,
      "start": 2.8634,
      "duration": 0.012,
      "velocity": 105,
      "chip": "ym2612"
    },
    {
      "channel": 0,
      "note": 39,
      "start": 2.865,
      "duration": 0.0124,
      "velocity": 115,
      "chip": "ym2612"
    },
    {
      "channel": 2,
      "note": 52,
      "start": 2.8688,
      "duration": 0.0121,
      "velocity": 100,
      "chip": "ym2612"
    },
    {
      "channel": 1,
      "note": 105,
      "start": 2.8754,
      "duration": 0.016,
      "velocity": 105,
      "chip": "ym2612"
    },
    {
      "channel": 0,
      "note": 40,
      "start": 2.8773,
      "duration": 0.0157,
      "velocity": 115,
      "chip": "ym2612"
    },
    {
      "channel": 2,
      "note": 52,
      "start": 2.8808,
      "duration": 0.0185,
      "velocity": 100,
      "chip": "ym2612"
    },
    {
      "channel": 1,
      "note": 105,
      "start": 2.8914,
      "duration": 0.0161,
      "velocity": 105,
      "chip": "ym2612"
    },
    {
      "channel": 0,
      "note": 40,
      "start": 2.8931,
      "duration": 0.0161,
      "velocity": 115,
      "chip": "ym2612"
    },
    {
      "channel": 2,
      "note": 52,
      "start": 2.8993,
      "duration": 0.0161,
      "velocity": 100,
      "chip": "ym2612"
    },
    {
      "channel": 1,
      "note": 105,
      "start": 2.9075,
      "duration": 0.0161,
      "velocity": 105,
      "chip": "ym2612"
    },
    {
      "channel": 0,
      "note": 40,
      "start": 2.9091,
      "duration": 0.0161,
      "velocity": 115,
      "chip": "ym2612"
    },
    {
      "channel": 2,
      "note": 52,
      "start": 2.9154,
      "duration": 0.0157,
      "velocity": 100,
      "chip": "ym2612"
    },
    {
      "channel": 1,
      "note": 105,
      "start": 2.9236,
      "duration": 0.0161,
      "velocity": 105,
      "chip": "ym2612"
    },
    {
      "channel": 0,
      "note": 41,
      "start": 2.9252,
      "duration": 0.0162,
      "velocity": 115,
      "chip": "ym2612"
    },
    {
      "channel": 2,
      "note": 52,
      "start": 2.9311,
      "duration": 0.0141,
      "velocity": 100,
      "chip": "ym2612"
    },
    {
      "channel": 1,
      "note": 105,
      "start": 2.9397,
      "duration": 0.0161,
      "velocity": 105,
      "chip": "ym2612"
    },
    {
      "channel": 0,
      "note": 41,
      "start": 2.9414,
      "duration": 0.0161,
      "velocity": 115,
      "chip": "ym2612"
    },
    {
      "channel": 2,
      "note": 52,
      "start": 2.9451,
      "duration": 0.0185,
      "velocity": 100,
      "chip": "ym2612"
    },
    {
      "channel": 1,
      "note": 105,
      "start": 2.9558,
      "duration": 0.0178,
      "velocity": 124,
      "chip": "ym2612"
    },
    {
      "channel": 0,
      "note": 42,
      "start": 2.9575,
      "duration": 0.0179,
      "velocity": 115,
      "chip": "ym2612"
    },
    {
      "channel": 2,
      "note": 52,
      "start": 2.9637,
      "duration": 0.0181,
      "velocity": 100,
      "chip": "ym2612"
    },
    {
      "channel": 1,
      "note": 64,
      "start": 2.9737,
      "duration": 0.0144,
      "velocity": 124,
      "chip": "ym2612"
    },
    {
      "channel": 0,
      "note": 42,
      "start": 2.9754,
      "duration": 0.0144,
      "velocity": 115,
      "chip": "ym2612"
    },
    {
      "channel": 2,
      "note": 52,
      "start": 2.9819,
      "duration": 0.0137,
      "velocity": 100,
      "chip": "ym2612"
    },
    {
      "channel": 1,
      "note": 64,
      "start": 2.9881,
      "duration": 0.016,
      "velocity": 124,
      "chip": "ym2612"
    },
    {
      "channel": 0,
      "note": 43,
      "start": 2.9898,
      "duration": 0.016,
      "velocity": 115,
      "chip": "ym2612"
    },
    {
      "channel": 2,
      "note": 52,
      "start": 2.9956,
      "duration": 0.0136,
      "velocity": 100,
      "chip": "ym2612"
    },
    {
      "channel": 1,
      "note": 64,
      "start": 3.0041,
      "duration": 0.0161,
      "velocity": 124,
      "chip": "ym2612"
    },
    {
      "channel": 0,
      "note": 43,
      "start": 3.0058,
      "duration": 0.0161,
      "velocity": 115,
      "chip": "ym2612"
    },
    {
      "channel": 2,
      "note": 52,
      "start": 3.0092,
      "duration": 0.0161,
      "velocity": 100,
      "chip": "ym2612"
    },
    {
      "channel": 1,
      "note": 64,
      "start": 3.0202,
      "duration": 0.0161,
      "velocity": 124,
      "chip": "ym2612"
    },
    {
      "channel": 0,
      "note": 44,
      "start": 3.0219,
      "duration": 0.0162,
      "velocity": 115,
      "chip": "ym2612"
    },
    {
      "channel": 2,
      "note": 52,
      "start": 3.0253,
      "duration": 0.0161,
      "velocity": 100,
      "chip": "ym2612"
    },
    {
      "channel": 1,
      "note": 64,
      "start": 3.0363,
      "duration": 0.0161,
      "velocity": 124,
      "chip": "ym2612"
    },
    {
      "channel": 0,
      "note": 44,
      "start": 3.038,
      "duration": 0.0161,
      "velocity": 115,
      "chip": "ym2612"
    },
    {
      "channel": 2,
      "note": 52,
      "start": 3.0415,
      "duration": 0.0161,
      "velocity": 100,
      "chip": "ym2612"
    },
    {
      "channel": 1,
      "note": 64,
      "start": 3.0524,
      "duration": 0.0162,
      "velocity": 124,
      "chip": "ym2612"
    },
    {
      "channel": 0,
      "note": 44,
      "start": 3.0541,
      "duration": 0.0161,
      "velocity": 115,
      "chip": "ym2612"
    },
    {
      "channel": 2,
      "note": 52,
      "start": 3.0576,
      "duration": 0.0161,
      "velocity": 100,
      "chip": "ym2612"
    },
    {
      "channel": 1,
      "note": 64,
      "start": 3.0686,
      "duration": 0.0177,
      "velocity": 105,
      "chip": "ym2612"
    },
    {
      "channel": 0,
      "note": 45,
      "start": 3.0702,
      "duration": 0.0178,
      "velocity": 115,
      "chip": "ym2612"
    },
    {
      "channel": 2,
      "note": 52,
      "start": 3.0737,
      "duration": 0.0181,
      "velocity": 100,
      "chip": "ym2612"
    },
    {
      "channel": 1,
      "note": 105,
      "start": 3.0864,
      "duration": 0.0144,
      "velocity": 105,
      "chip": "ym2612"
    },
    {
      "channel": 0,
      "note": 45,
      "start": 3.088,
      "duration": 0.0144,
      "velocity": 115,
      "chip": "ym2612"
    },
    {
      "channel": 2,
      "note": 52,
      "start": 3.0918,
      "duration": 0.0142,
      "velocity": 100,
      "chip": "ym2612"
    },
    {
      "channel": 1,
      "note": 105,
      "start": 3.1007,
      "duration": 0.0161,
      "velocity": 105,
      "chip": "ym2612"
    },
    {
      "channel": 0,
      "note": 46,
      "start": 3.1025,
      "duration": 0.016,
      "velocity": 115,
      "chip": "ym2612"
    },
    {
      "channel": 2,
      "note": 52,
      "start": 3.106,
      "duration": 0.016,
      "velocity": 100,
      "chip": "ym2612"
    },
    {
      "channel": 1,
      "note": 105,
      "start": 3.1168,
      "duration": 0.0161,
      "velocity": 105,
      "chip": "ym2612"
    },
    {
      "channel": 0,
      "note": 46,
      "start": 3.1185,
      "duration": 0.0161,
      "velocity": 115,
      "chip": "ym2612"
    },
    {
      "channel": 2,
      "note": 52,
      "start": 3.1219,
      "duration": 0.0161,
      "velocity": 100,
      "chip": "ym2612"
    },
    {
      "channel": 1,
      "note": 105,
      "start": 3.1329,
      "duration": 0.0161,
      "velocity": 105,
      "chip": "ym2612"
    },
    {
      "channel": 0,
      "note": 47,
      "start": 3.1346,
      "duration": 0.0161,
      "velocity": 115,
      "chip": "ym2612"
    },
    {
      "channel": 2,
      "note": 52,
      "start": 3.138,
      "duration": 0.0161,
      "velocity": 100,
      "chip": "ym2612"
    },
    {
      "channel": 1,
      "note": 105,
      "start": 3.149,
      "duration": 0.0161,
      "velocity": 105,
      "chip": "ym2612"
    },
    {
      "channel": 0,
      "note": 47,
      "start": 3.1507,
      "duration": 0.0161,
      "velocity": 115,
      "chip": "ym2612"
    },
    {
      "channel": 2,
      "note": 52,
      "start": 3.1541,
      "duration": 0.0161,
      "velocity": 100,
      "chip": "ym2612"
    },
    {
      "channel": 1,
      "note": 105,
      "start": 3.1651,
      "duration": 0.0161,
      "velocity": 105,
      "chip": "ym2612"
    },
    {
      "channel": 0,
      "note": 47,
      "start": 3.1668,
      "duration": 0.0161,
      "velocity": 115,
      "chip": "ym2612"
    },
    {
      "channel": 2,
      "note": 52,
      "start": 3.1702,
      "duration": 0.0161,
      "velocity": 100,
      "chip": "ym2612"
    },
    {
      "channel": 1,
      "note": 105,
      "start": 3.1812,
      "duration": 0.0184,
      "velocity": 124,
      "chip": "ym2612"
    },
    {
      "channel": 0,
      "note": 48,
      "start": 3.1829,
      "duration": 0.0191,
      "velocity": 115,
      "chip": "ym2612"
    },
    {
      "channel": 2,
      "note": 52,
      "start": 3.1863,
      "duration": 0.0194,
      "velocity": 100,
      "chip": "ym2612"
    },
    {
      "channel": 1,
      "note": 78,
      "start": 3.1996,
      "duration": 0.0144,
      "velocity": 124,
      "chip": "ym2612"
    },
    {
      "channel": 0,
      "note": 48,
      "start": 3.202,
      "duration": 0.0139,
      "velocity": 115,
      "chip": "ym2612"
    },
    {
      "channel": 2,
      "note": 52,
      "start": 3.2058,
      "duration": 0.0136,
      "velocity": 100,
      "chip": "ym2612"
    },
    {
      "channel": 1,
      "note": 76,
      "start": 3.214,
      "duration": 0.0171,
      "velocity": 124,
      "chip": "ym2612"
    },
    {
      "channel": 0,
      "note": 49,
      "start": 3.2159,
      "duration": 0.0163,
      "velocity": 1,
      "chip": "ym2612"
    },
    {
      "channel": 2,
      "note": 52,
      "start": 3.2194,
      "duration": 0.0162,
      "velocity": 100,
      "chip": "ym2612"
    },
    {
      "channel": 1,
      "note": 75,
      "start": 3.2311,
      "duration": 0.0167,
      "velocity": 124,
      "chip": "ym2612"
    },
    {
      "channel": 2,
      "note": 52,
      "start": 3.2356,
      "duration": 0.0159,
      "velocity": 100,
      "chip": "ym2612"
    },
    {
      "channel": 1,
      "note": 74,
      "start": 3.2478,
      "duration": 0.0163,
      "velocity": 124,
      "chip": "ym2612"
    },
    {
      "channel": 2,
      "note": 52,
      "start": 3.2515,
      "duration": 0.0163,
      "velocity": 100,
      "chip": "ym2612"
    },
    {
      "channel": 1,
      "note": 72,
      "start": 3.2641,
      "duration": 0.0146,
      "velocity": 124,
      "chip": "ym2612"
    },
    {
      "channel": 2,
      "note": 52,
      "start": 3.2678,
      "duration": 0.0145,
      "velocity": 100,
      "chip": "ym2612"
    },
    {
      "channel": 1,
      "note": 71,
      "start": 3.2787,
      "duration": 0.0185,
      "velocity": 124,
      "chip": "ym2612"
    },
    {
      "channel": 2,
      "note": 52,
      "start": 3.2823,
      "duration": 0.0186,
      "velocity": 100,
      "chip": "ym2612"
    },
    {
      "channel": 1,
      "note": 70,
      "start": 3.2972,
      "duration": 0.0161,
      "velocity": 124,
      "chip": "ym2612"
    },
    {
      "channel": 2,
      "note": 52,
      "start": 3.3009,
      "duration": 0.0168,
      "velocity": 100,
      "chip": "ym2612"
    },
    {
      "channel": 1,
      "note": 69,
      "start": 3.3133,
      "duration": 0.0157,
      "velocity": 124,
      "chip": "ym2612"
    },
    {
      "channel": 2,
      "note": 52,
      "start": 3.3178,
      "duration": 0.015,
      "velocity": 100,
      "chip": "ym2612"
    },
    {
      "channel": 1,
      "note": 68,
      "start": 3.329,
      "duration": 0.0137,
      "velocity": 124,
      "chip": "ym2612"
    },
    {
      "channel": 2,
      "note": 52,
      "start": 3.3328,
      "duration": 0.0139,
      "velocity": 100,
      "chip": "ym2612"
    },
    {
      "channel": 1,
      "note": 66,
      "start": 3.3427,
      "duration": 0.0161,
      "velocity": 124,
      "chip": "ym2612"
    },
    {
      "channel": 2,
      "note": 52,
      "start": 3.3467,
      "duration": 0.0185,
      "velocity": 100,
      "chip": "ym2612"
    },
    {
      "channel": 1,
      "note": 65,
      "start": 3.3588,
      "duration": 0.0161,
      "velocity": 124,
      "chip": "ym2612"
    },
    {
      "channel": 2,
      "note": 52,
      "start": 3.3653,
      "duration": 0.0161,
      "velocity": 100,
      "chip": "ym2612"
    },
    {
      "channel": 1,
      "note": 64,
      "start": 3.3749,
      "duration": 0.0161,
      "velocity": 124,
      "chip": "ym2612"
    },
    {
      "channel": 2,
      "note": 52,
      "start": 3.3813,
      "duration": 0.0157,
      "velocity": 100,
      "chip": "ym2612"
    },
    {
      "channel": 1,
      "note": 62,
      "start": 3.391,
      "duration": 0.0161,
      "velocity": 124,
      "chip": "ym2612"
    },
    {
      "channel": 2,
      "note": 52,
      "start": 3.3971,
      "duration": 0.0141,
      "velocity": 100,
      "chip": "ym2612"
    },
    {
      "channel": 1,
      "note": 61,
      "start": 3.4072,
      "duration": 0.0161,
      "velocity": 124,
      "chip": "ym2612"
    },
    {
      "channel": 2,
      "note": 52,
      "start": 3.4111,
      "duration": 0.0193,
      "velocity": 100,
      "chip": "ym2612"
    },
    {
      "channel": 1,
      "note": 60,
      "start": 3.4233,
      "duration": 0.0161,
      "velocity": 124,
      "chip": "ym2612"
    },
    {
      "channel": 2,
      "note": 52,
      "start": 3.4305,
      "duration": 0.0126,
      "velocity": 100,
      "chip": "ym2612"
    },
    {
      "channel": 1,
      "note": 59,
      "start": 3.4394,
      "duration": 0.0161,
      "velocity": 124,
      "chip": "ym2612"
    },
    {
      "channel": 2,
      "note": 52,
      "start": 3.4431,
      "duration": 0.016,
      "velocity": 100,
      "chip": "ym2612"
    },
    {
      "channel": 1,
      "note": 57,
      "start": 3.4555,
      "duration": 0.0161,
      "velocity": 124,
      "chip": "ym2612"
    },
    {
      "channel": 2,
      "note": 52,
      "start": 3.4591,
      "duration": 0.0161,
      "velocity": 100,
      "chip": "ym2612"
    },
    {
      "channel": 1,
      "note": 56,
      "start": 3.4715,
      "duration": 0.0161,
      "velocity": 124,
      "chip": "ym2612"
    },
    {
      "channel": 2,
      "note": 52,
      "start": 3.4752,
      "duration": 0.0161,
      "velocity": 100,
      "chip": "ym2612"
    },
    {
      "channel": 1,
      "note": 55,
      "start": 3.4876,
      "duration": 0.0161,
      "velocity": 124,
      "chip": "ym2612"
    },
    {
      "channel": 2,
      "note": 52,
      "start": 3.4913,
      "duration": 0.0161,
      "velocity": 100,
      "chip": "ym2612"
    },
    {
      "channel": 1,
      "note": 53,
      "start": 3.5037,
      "duration": 0.0161,
      "velocity": 124,
      "chip": "ym2612"
    },
    {
      "channel": 2,
      "note": 52,
      "start": 3.5074,
      "duration": 0.0161,
      "velocity": 100,
      "chip": "ym2612"
    },
    {
      "channel": 1,
      "note": 52,
      "start": 3.5198,
      "duration": 0.0161,
      "velocity": 124,
      "chip": "ym2612"
    },
    {
      "channel": 2,
      "note": 52,
      "start": 3.5235,
      "duration": 0.0207,
      "velocity": 100,
      "chip": "ym2612"
    },
    {
      "channel": 1,
      "note": 51,
      "start": 3.5359,
      "duration": 0.0154,
      "velocity": 1,
      "chip": "ym2612"
    },
    {
      "channel": 0,
      "note": 78,
      "start": 3.5402,
      "duration": 0.015,
      "velocity": 127,
      "chip": "ym2612"
    },
    {
      "channel": 2,
      "note": 52,
      "start": 3.5443,
      "duration": 0.0144,
      "velocity": 100,
      "chip": "ym2612"
    },
    {
      "channel": 1,
      "note": 51,
      "start": 3.5534,
      "duration": 0.0142,
      "velocity": 105,
      "chip": "ym2612"
    },
    {
      "channel": 0,
      "note": 76,
      "start": 3.5551,
      "duration": 0.0142,
      "velocity": 127,
      "chip": "ym2612"
    },
    {
      "channel": 2,
      "note": 52,
      "start": 3.5586,
      "duration": 0.0141,
      "velocity": 100,
      "chip": "ym2612"
    },
    {
      "channel": 1,
      "note": 105,
      "start": 3.5677,
      "duration": 0.0161,
      "velocity": 105,
      "chip": "ym2612"
    },
    {
      "channel": 0,
      "note": 75,
      "start": 3.5693,
      "duration": 0.0161,
      "velocity": 127,
      "chip": "ym2612"
    },
    {
      "channel": 2,
      "note": 52,
      "start": 3.5728,
      "duration": 0.0161,
      "velocity": 100,
      "chip": "ym2612"
    },
    {
      "channel": 1,
      "note": 105,
      "start": 3.5838,
      "duration": 0.0161,
      "velocity": 105,
      "chip": "ym2612"
    },
    {
      "channel": 0,
      "note": 73,
      "start": 3.5854,
      "duration": 0.0161,
      "velocity": 127,
      "chip": "ym2612"
    },
    {
      "channel": 2,
      "note": 52,
      "start": 3.5888,
      "duration": 0.0161,
      "velocity": 100,
      "chip": "ym2612"
    },
    {
      "channel": 1,
      "note": 105,
      "start": 3.5999,
      "duration": 0.0161,
      "velocity": 105,
      "chip": "ym2612"
    },
    {
      "channel": 0,
      "note": 71,
      "start": 3.6015,
      "duration": 0.0161,
      "velocity": 127,
      "chip": "ym2612"
    },
    {
      "channel": 2,
      "note": 52,
      "start": 3.6049,
      "duration": 0.0161,
      "velocity": 100,
      "chip": "ym2612"
    },
    {
      "channel": 1,
      "note": 105,
      "start": 3.616,
      "duration": 0.0161,
      "velocity": 105,
      "chip": "ym2612"
    },
    {
      "channel": 0,
      "note": 70,
      "start": 3.6176,
      "duration": 0.0161,
      "velocity": 127,
      "chip": "ym2612"
    },
    {
      "channel": 2,
      "note": 52,
      "start": 3.621,
      "duration": 0.0161,
      "velocity": 100,
      "chip": "ym2612"
    },
    {
      "channel": 1,
      "note": 105,
      "start": 3.632,
      "duration": 0.0178,
      "velocity": 124,
      "chip": "ym2612"
    },
    {
      "channel": 0,
      "note": 68,
      "start": 3.6337,
      "duration": 0.0197,
      "velocity": 115,
      "chip": "ym2612"
    },
    {
      "channel": 2,
      "note": 52,
      "start": 3.6371,
      "duration": 0.02,
      "velocity": 100,
      "chip": "ym2612"
    },
    {
      "channel": 1,
      "note": 64,
      "start": 3.6499,
      "duration": 0.0144,
      "velocity": 124,
      "chip": "ym2612"
    },
    {
      "channel": 0,
      "note": 36,
      "start": 3.6534,
      "duration": 0.0127,
      "velocity": 115,
      "chip": "ym2612"
    },
    {
      "channel": 2,
      "note": 55,
      "start": 3.6571,
      "duration": 0.0124,
      "velocity": 100,
      "chip": "ym2612"
    },
    {
      "channel": 1,
      "note": 64,
      "start": 3.6644,
      "duration": 0.016,
      "velocity": 124,
      "chip": "ym2612"
    },
    {
      "channel": 0,
      "note": 36,
      "start": 3.6661,
      "duration": 0.016,
      "velocity": 115,
      "chip": "ym2612"
    },
    {
      "channel": 2,
      "note": 55,
      "start": 3.6696,
      "duration": 0.0159,
      "velocity": 100,
      "chip": "ym2612"
    },
    {
      "channel": 1,
      "note": 64,
      "start": 3.6804,
      "duration": 0.0169,
      "velocity": 124,
      "chip": "ym2612"
    },
    {
      "channel": 0,
      "note": 37,
      "start": 3.682,
      "duration": 0.0169,
      "velocity": 115,
      "chip": "ym2612"
    },
    {
      "channel": 2,
      "note": 55,
      "start": 3.6855,
      "duration": 0.0169,
      "velocity": 100,
      "chip": "ym2612"
    },
    {
      "channel": 1,
      "note": 64,
      "start": 3.6973,
      "duration": 0.0167,
      "velocity": 124,
      "chip": "ym2612"
    },
    {
      "channel": 0,
      "note": 37,
      "start": 3.699,
      "duration": 0.0167,
      "velocity": 115,
      "chip": "ym2612"
    },
    {
      "channel": 2,
      "note": 55,
      "start": 3.7024,
      "duration": 0.0167,
      "velocity": 100,
      "chip": "ym2612"
    },
    {
      "channel": 1,
      "note": 64,
      "start": 3.714,
      "duration": 0.0163,
      "velocity": 124,
      "chip": "ym2612"
    },
    {
      "channel": 0,
      "note": 38,
      "start": 3.7156,
      "duration": 0.0163,
      "velocity": 115,
      "chip": "ym2612"
    },
    {
      "channel": 2,
      "note": 55,
      "start": 3.7191,
      "duration": 0.0163,
      "velocity": 100,
      "chip": "ym2612"
    },
    {
      "channel": 1,
      "note": 64,
      "start": 3.7303,
      "duration": 0.0147,
      "velocity": 124,
      "chip": "ym2612"
    },
    {
      "channel": 0,
      "note": 38,
      "start": 3.7319,
      "duration": 0.0147,
      "velocity": 115,
      "chip": "ym2612"
    },
    {
      "channel": 2,
      "note": 55,
      "start": 3.7354,
      "duration": 0.0147,
      "velocity": 100,
      "chip": "ym2612"
    },
    {
      "channel": 1,
      "note": 64,
      "start": 3.745,
      "duration": 0.0203,
      "velocity": 105,
      "chip": "ym2612"
    },
    {
      "channel": 0,
      "note": 39,
      "start": 3.7466,
      "duration": 0.0204,
      "velocity": 115,
      "chip": "ym2612"
    },
    {
      "channel": 2,
      "note": 55,
      "start": 3.75,
      "duration": 0.0209,
      "velocity": 100,
      "chip": "ym2612"
    },
    {
      "channel": 1,
      "note": 105,
      "start": 3.7653,
      "duration": 0.0144,
      "velocity": 105,
      "chip": "ym2612"
    },
    {
      "channel": 0,
      "note": 39,
      "start": 3.767,
      "duration": 0.0144,
      "velocity": 115,
      "chip": "ym2612"
    },
    {
      "channel": 2,
      "note": 55,
      "start": 3.771,
      "duration": 0.014,
      "velocity": 100,
      "chip": "ym2612"
    },
    {
      "channel": 1,
      "note": 105,
      "start": 3.7798,
      "duration": 0.0133,
      "velocity": 105,
      "chip": "ym2612"
    },
    {
      "channel": 0,
      "note": 40,
      "start": 3.7814,
      "duration": 0.0157,
      "velocity": 115,
      "chip": "ym2612"
    },
    {
      "channel": 2,
      "note": 55,
      "start": 3.785,
      "duration": 0.0156,
      "velocity": 100,
      "chip": "ym2612"
    },
    {
      "channel": 1,
      "note": 105,
      "start": 3.7931,
      "duration": 0.0161,
      "velocity": 105,
      "chip": "ym2612"
    },
    {
      "channel": 0,
      "note": 40,
      "start": 3.7971,
      "duration": 0.014,
      "velocity": 115,
      "chip": "ym2612"
    },
    {
      "channel": 2,
      "note": 55,
      "start": 3.8006,
      "duration": 0.0141,
      "velocity": 100,
      "chip": "ym2612"
    },
    {
      "channel": 1,
      "note": 105,
      "start": 3.8091,
      "duration": 0.0162,
      "velocity": 105,
      "chip": "ym2612"
    },
    {
      "channel": 0,
      "note": 40,
      "start": 3.8111,
      "duration": 0.0186,
      "velocity": 115,
      "chip": "ym2612"
    },
    {
      "channel": 2,
      "note": 55,
      "start": 3.8146,
      "duration": 0.0185,
      "velocity": 100,
      "chip": "ym2612"
    },
    {
      "channel": 1,
      "note": 105,
      "start": 3.8253,
      "duration": 0.0161,
      "velocity": 105,
      "chip": "ym2612"
    },
    {
      "channel": 0,
      "note": 41,
      "start": 3.8297,
      "duration": 0.0134,
      "velocity": 115,
      "chip": "ym2612"
    },
    {
      "channel": 2,
      "note": 55,
      "start": 3.8331,
      "duration": 0.0161,
      "velocity": 100,
      "chip": "ym2612"
    },
    {
      "channel": 1,
      "note": 105,
      "start": 3.8414,
      "duration": 0.0161,
      "velocity": 105,
      "chip": "ym2612"
    },
    {
      "channel": 0,
      "note": 41,
      "start": 3.8431,
      "duration": 0.0161,
      "velocity": 115,
      "chip": "ym2612"
    },
    {
      "channel": 2,
      "note": 55,
      "start": 3.8492,
      "duration": 0.0158,
      "velocity": 100,
      "chip": "ym2612"
    },
    {
      "channel": 1,
      "note": 105,
      "start": 3.8575,
      "duration": 0.0178,
      "velocity": 124,
      "chip": "ym2612"
    },
    {
      "channel": 0,
      "note": 42,
      "start": 3.8591,
      "duration": 0.0182,
      "velocity": 115,
      "chip": "ym2612"
    },
    {
      "channel": 2,
      "note": 55,
      "start": 3.865,
      "duration": 0.0162,
      "velocity": 100,
      "chip": "ym2612"
    },
    {
      "channel": 1,
      "note": 64,
      "start": 3.8753,
      "duration": 0.0144,
      "velocity": 124,
      "chip": "ym2612"
    },
    {
      "channel": 0,
      "note": 42,
      "start": 3.8773,
      "duration": 0.0141,
      "velocity": 115,
      "chip": "ym2612"
    },
    {
      "channel": 2,
      "note": 55,
      "start": 3.8813,
      "duration": 0.0164,
      "velocity": 100,
      "chip": "ym2612"
    },
    {
      "channel": 1,
      "note": 64,
      "start": 3.8898,
      "duration": 0.016,
      "velocity": 124,
      "chip": "ym2612"
    },
    {
      "channel": 0,
      "note": 43,
      "start": 3.8914,
      "duration": 0.016,
      "velocity": 115,
      "chip": "ym2612"
    },
    {
      "channel": 2,
      "note": 55,
      "start": 3.8977,
      "duration": 0.016,
      "velocity": 100,
      "chip": "ym2612"
    },
    {
      "channel": 1,
      "note": 64,
      "start": 3.9058,
      "duration": 0.0161,
      "velocity": 124,
      "chip": "ym2612"
    },
    {
      "channel": 0,
      "note": 43,
      "start": 3.9074,
      "duration": 0.0161,
      "velocity": 115,
      "chip": "ym2612"
    },
    {
      "channel": 2,
      "note": 55,
      "start": 3.9137,
      "duration": 0.0157,
      "velocity": 100,
      "chip": "ym2612"
    },
    {
      "channel": 1,
      "note": 64,
      "start": 3.9219,
      "duration": 0.0161,
      "velocity": 124,
      "chip": "ym2612"
    },
    {
      "channel": 0,
      "note": 44,
      "start": 3.9236,
      "duration": 0.0161,
      "velocity": 115,
      "chip": "ym2612"
    },
    {
      "channel": 2,
      "note": 55,
      "start": 3.9294,
      "duration": 0.0137,
      "velocity": 100,
      "chip": "ym2612"
    },
    {
      "channel": 1,
      "note": 64,
      "start": 3.938,
      "duration": 0.0161,
      "velocity": 124,
      "chip": "ym2612"
    },
    {
      "channel": 0,
      "note": 44,
      "start": 3.9397,
      "duration": 0.0161,
      "velocity": 115,
      "chip": "ym2612"
    },
    {
      "channel": 2,
      "note": 55,
      "start": 3.9431,
      "duration": 0.0161,
      "velocity": 100,
      "chip": "ym2612"
    },
    {
      "channel": 1,
      "note": 64,
      "start": 3.9541,
      "duration": 0.0161,
      "velocity": 124,
      "chip": "ym2612"
    },
    {
      "channel": 0,
      "note": 44,
      "start": 3.9558,
      "duration": 0.0161,
      "velocity": 115,
      "chip": "ym2612"
    },
    {
      "channel": 2,
      "note": 55,
      "start": 3.9592,
      "duration": 0.0161,
      "velocity": 100,
      "chip": "ym2612"
    },
    {
      "channel": 1,
      "note": 64,
      "start": 3.9702,
      "duration": 0.0178,
      "velocity": 105,
      "chip": "ym2612"
    },
    {
      "channel": 0,
      "note": 45,
      "start": 3.9719,
      "duration": 0.0178,
      "velocity": 115,
      "chip": "ym2612"
    },
    {
      "channel": 2,
      "note": 55,
      "start": 3.9753,
      "duration": 0.0205,
      "velocity": 100,
      "chip": "ym2612"
    },
    {
      "channel": 1,
      "note": 105,
      "start": 3.988,
      "duration": 0.0144,
      "velocity": 105,
      "chip": "ym2612"
    },
    {
      "channel": 0,
      "note": 45,
      "start": 3.9897,
      "duration": 0.0144,
      "velocity": 115,
      "chip": "ym2612"
    },
    {
      "channel": 2,
      "note": 55,
      "start": 3.9959,
      "duration": 0.0118,
      "velocity": 100,
      "chip": "ym2612"
    },
    {
      "channel": 1,
      "note": 105,
      "start": 4.0025,
      "duration": 0.016,
      "velocity": 105,
      "chip": "ym2612"
    },
    {
      "channel": 0,
      "note": 46,
      "start": 4.0041,
      "duration": 0.016,
      "velocity": 115,
      "chip": "ym2612"
    },
    {
      "channel": 2,
      "note": 55,
      "start": 4.0076,
      "duration": 0.016,
      "velocity": 100,
      "chip": "ym2612"
    },
    {
      "channel": 1,
      "note": 105,
      "start": 4.0185,
      "duration": 0.0161,
      "velocity": 105,
      "chip": "ym2612"
    },
    {
      "channel": 0,
      "note": 46,
      "start": 4.0202,
      "duration": 0.0161,
      "velocity": 115,
      "chip": "ym2612"
    },
    {
      "channel": 2,
      "note": 55,
      "start": 4.0236,
      "duration": 0.0161,
      "velocity": 100,
      "chip": "ym2612"
    },
    {
      "channel": 1,
      "note": 105,
      "start": 4.0346,
      "duration": 0.0161,
      "velocity": 105,
      "chip": "ym2612"
    },
    {
      "channel": 0,
      "note": 47,
      "start": 4.0362,
      "duration": 0.0161,
      "velocity": 115,
      "chip": "ym2612"
    },
    {
      "channel": 2,
      "note": 55,
      "start": 4.0397,
      "duration": 0.0161,
      "velocity": 100,
      "chip": "ym2612"
    },
    {
      "channel": 1,
      "note": 105,
      "start": 4.0507,
      "duration": 0.0161,
      "velocity": 105,
      "chip": "ym2612"
    },
    {
      "channel": 0,
      "note": 47,
      "start": 4.0523,
      "duration": 0.0161,
      "velocity": 115,
      "chip": "ym2612"
    },
    {
      "channel": 2,
      "note": 55,
      "start": 4.0558,
      "duration": 0.0161,
      "velocity": 100,
      "chip": "ym2612"
    },
    {
      "channel": 1,
      "note": 105,
      "start": 4.0668,
      "duration": 0.0161,
      "velocity": 105,
      "chip": "ym2612"
    },
    {
      "channel": 0,
      "note": 47,
      "start": 4.0684,
      "duration": 0.0161,
      "velocity": 115,
      "chip": "ym2612"
    },
    {
      "channel": 2,
      "note": 55,
      "start": 4.0719,
      "duration": 0.0161,
      "velocity": 100,
      "chip": "ym2612"
    },
    {
      "channel": 1,
      "note": 105,
      "start": 4.0829,
      "duration": 0.0184,
      "velocity": 124,
      "chip": "ym2612"
    },
    {
      "channel": 0,
      "note": 48,
      "start": 4.0845,
      "duration": 0.0191,
      "velocity": 115,
      "chip": "ym2612"
    },
    {
      "channel": 2,
      "note": 55,
      "start": 4.088,
      "duration": 0.0194,
      "velocity": 100,
      "chip": "ym2612"
    },
    {
      "channel": 1,
      "note": 78,
      "start": 4.1013,
      "duration": 0.0144,
      "velocity": 124,
      "chip": "ym2612"
    },
    {
      "channel": 0,
      "note": 48,
      "start": 4.1037,
      "duration": 0.0139,
      "velocity": 115,
      "chip": "ym2612"
    },
    {
      "channel": 2,
      "note": 55,
      "start": 4.1074,
      "duration": 0.0136,
      "velocity": 100,
      "chip": "ym2612"
    },
    {
      "channel": 1,
      "note": 76,
      "start": 4.1156,
      "duration": 0.016,
      "velocity": 124,
      "chip": "ym2612"
    },
    {
      "channel": 0,
      "note": 49,
      "start": 4.1176,
      "duration": 0.0152,
      "velocity": 1,
      "chip": "ym2612"
    },
    {
      "channel": 2,
      "note": 55,
      "start": 4.121,
      "duration": 0.0151,
      "velocity": 100,
      "chip": "ym2612"
    },
    {
      "channel": 1,
      "note": 75,
      "start": 4.1317,
      "duration": 0.0161,
      "velocity": 124,
      "chip": "ym2612"
    },
    {
      "channel": 2,
      "note": 55,
      "start": 4.1362,
      "duration": 0.0153,
      "velocity": 100,
      "chip": "ym2612"
    },
    {
      "channel": 1,
      "note": 74,
      "start": 4.1478,
      "duration": 0.0167,
      "velocity": 124,
      "chip": "ym2612"
    },
    {
      "channel": 2,
      "note": 55,
      "start": 4.1515,
      "duration": 0.0167,
      "velocity": 100,
      "chip": "ym2612"
    },
    {
      "channel": 1,
      "note": 72,
      "start": 4.1644,
      "duration": 0.0167,
      "velocity": 124,
      "chip": "ym2612"
    },
    {
      "channel": 2,
      "note": 55,
      "start": 4.1681,
      "duration": 0.0167,
      "velocity": 100,
      "chip": "ym2612"
    },
    {
      "channel": 1,
      "note": 71,
      "start": 4.1812,
      "duration": 0.0163,
      "velocity": 124,
      "chip": "ym2612"
    },
    {
      "channel": 2,
      "note": 55,
      "start": 4.1848,
      "duration": 0.0163,
      "velocity": 100,
      "chip": "ym2612"
    },
    {
      "channel": 1,
      "note": 70,
      "start": 4.1974,
      "duration": 0.0148,
      "velocity": 124,
      "chip": "ym2612"
    },
    {
      "channel": 2,
      "note": 55,
      "start": 4.2011,
      "duration": 0.0155,
      "velocity": 100,
      "chip": "ym2612"
    },
    {
      "channel": 1,
      "note": 69,
      "start": 4.2122,
      "duration": 0.0188,
      "velocity": 124,
      "chip": "ym2612"
    },
    {
      "channel": 2,
      "note": 55,
      "start": 4.2167,
      "duration": 0.0181,
      "velocity": 100,
      "chip": "ym2612"
    },
    {
      "channel": 1,
      "note": 68,
      "start": 4.231,
      "duration": 0.0161,
      "velocity": 124,
      "chip": "ym2612"
    },
    {
      "channel": 2,
      "note": 55,
      "start": 4.2349,
      "duration": 0.016,
      "velocity": 100,
      "chip": "ym2612"
    },
    {
      "channel": 1,
      "note": 66,
      "start": 4.2471,
      "duration": 0.0158,
      "velocity": 124,
      "chip": "ym2612"
    },
    {
      "channel": 2,
      "note": 55,
      "start": 4.2508,
      "duration": 0.0157,
      "velocity": 100,
      "chip": "ym2612"
    },
    {
      "channel": 1,
      "note": 65,
      "start": 4.2629,
      "duration": 0.014,
      "velocity": 124,
      "chip": "ym2612"
    },
    {
      "channel": 2,
      "note": 55,
      "start": 4.2665,
      "duration": 0.0141,
      "velocity": 100,
      "chip": "ym2612"
    },
    {
      "channel": 1,
      "note": 64,
      "start": 4.2769,
      "duration": 0.0158,
      "velocity": 124,
      "chip": "ym2612"
    },
    {
      "channel": 2,
      "note": 55,
      "start": 4.2806,
      "duration": 0.0185,
      "velocity": 100,
      "chip": "ym2612"
    },
    {
      "channel": 1,
      "note": 62,
      "start": 4.2927,
      "duration": 0.0161,
      "velocity": 124,
      "chip": "ym2612"
    },
    {
      "channel": 2,
      "note": 55,
      "start": 4.2991,
      "duration": 0.0161,
      "velocity": 100,
      "chip": "ym2612"
    },
    {
      "channel": 1,
      "note": 61,
      "start": 4.3088,
      "duration": 0.0161,
      "velocity": 124,
      "chip": "ym2612"
    },
    {
      "channel": 2,
      "note": 55,
      "start": 4.3152,
      "duration": 0.0165,
      "velocity": 100,
      "chip": "ym2612"
    },
    {
      "channel": 1,
      "note": 60,
      "start": 4.3249,
      "duration": 0.0161,
      "velocity": 124,
      "chip": "ym2612"
    },
    {
      "channel": 2,
      "note": 55,
      "start": 4.3318,
      "duration": 0.0133,
      "velocity": 100,
      "chip": "ym2612"
    },
    {
      "channel": 1,
      "note": 59,
      "start": 4.341,
      "duration": 0.0161,
      "velocity": 124,
      "chip": "ym2612"
    },
    {
      "channel": 2,
      "note": 55,
      "start": 4.3451,
      "duration": 0.0185,
      "velocity": 100,
      "chip": "ym2612"
    },
    {
      "channel": 1,
      "note": 57,
      "start": 4.3571,
      "duration": 0.0161,
      "velocity": 124,
      "chip": "ym2612"
    },
    {
      "channel": 2,
      "note": 55,
      "start": 4.3635,
      "duration": 0.0161,
      "velocity": 100,
      "chip": "ym2612"
    },
    {
      "channel": 1,
      "note": 56,
      "start": 4.3732,
      "duration": 0.0161,
      "velocity": 124,
      "chip": "ym2612"
    },
    {
      "channel": 2,
      "note": 55,
      "start": 4.3796,
      "duration": 0.0134,
      "velocity": 100,
      "chip": "ym2612"
    },
    {
      "channel": 1,
      "note": 55,
      "start": 4.3893,
      "duration": 0.0161,
      "velocity": 124,
      "chip": "ym2612"
    },
    {
      "channel": 2,
      "note": 55,
      "start": 4.393,
      "duration": 0.0161,
      "velocity": 100,
      "chip": "ym2612"
    },
    {
      "channel": 1,
      "note": 53,
      "start": 4.4054,
      "duration": 0.0161,
      "velocity": 124,
      "chip": "ym2612"
    },
    {
      "channel": 2,
      "note": 55,
      "start": 4.4091,
      "duration": 0.0161,
      "velocity": 100,
      "chip": "ym2612"
    },
    {
      "channel": 1,
      "note": 52,
      "start": 4.4215,
      "duration": 0.0161,
      "velocity": 124,
      "chip": "ym2612"
    },
    {
      "channel": 2,
      "note": 55,
      "start": 4.4252,
      "duration": 0.0231,
      "velocity": 100,
      "chip": "ym2612"
    },
    {
      "channel": 1,
      "note": 51,
      "start": 4.4376,
      "duration": 0.0153,
      "velocity": 1,
      "chip": "ym2612"
    },
    {
      "channel": 0,
      "note": 36,
      "start": 4.4418,
      "duration": 0.015,
      "velocity": 115,
      "chip": "ym2612"
    },
    {
      "channel": 2,
      "note": 55,
      "start": 4.4483,
      "duration": 0.0144,
      "velocity": 100,
      "chip": "ym2612"
    },
    {
      "channel": 1,
      "note": 51,
      "start": 4.4551,
      "duration": 0.0142,
      "velocity": 105,
      "chip": "ym2612"
    },
    {
      "channel": 0,
      "note": 36,
      "start": 4.4568,
      "duration": 0.0142,
      "velocity": 115,
      "chip": "ym2612"
    },
    {
      "channel": 2,
      "note": 55,
      "start": 4.4627,
      "duration": 0.0117,
      "velocity": 100,
      "chip": "ym2612"
    },
    {
      "channel": 1,
      "note": 105,
      "start": 4.4693,
      "duration": 0.0161,
      "velocity": 105,
      "chip": "ym2612"
    },
    {
      "channel": 0,
      "note": 37,
      "start": 4.471,
      "duration": 0.0161,
      "velocity": 115,
      "chip": "ym2612"
    },
    {
      "channel": 2,
      "note": 55,
      "start": 4.4744,
      "duration": 0.0161,
      "velocity": 100,
      "chip": "ym2612"
    },
    {
      "channel": 1,
      "note": 105,
      "start": 4.4854,
      "duration": 0.0161,
      "velocity": 105,
      "chip": "ym2612"
    },
    {
      "channel": 0,
      "note": 37,
      "start": 4.4871,
      "duration": 0.0161,
      "velocity": 115,
      "chip": "ym2612"
    },
    {
      "channel": 2,
      "note": 55,
      "start": 4.4905,
      "duration": 0.0161,
      "velocity": 100,
      "chip": "ym2612"
    },
    {
      "channel": 1,
      "note": 105,
      "start": 4.5015,
      "duration": 0.0161,
      "velocity": 105,
      "chip": "ym2612"
    },
    {
      "channel": 0,
      "note": 38,
      "start": 4.5032,
      "duration": 0.0161,
      "velocity": 115,
      "chip": "ym2612"
    },
    {
      "channel": 2,
      "note": 55,
      "start": 4.5066,
      "duration": 0.0161,
      "velocity": 100,
      "chip": "ym2612"
    },
    {
      "channel": 1,
      "note": 105,
      "start": 4.5176,
      "duration": 0.0161,
      "velocity": 105,
      "chip": "ym2612"
    },
    {
      "channel": 0,
      "note": 38,
      "start": 4.5193,
      "duration": 0.0161,
      "velocity": 115,
      "chip": "ym2612"
    },
    {
      "channel": 2,
      "note": 55,
      "start": 4.5227,
      "duration": 0.0161,
      "velocity": 100,
      "chip": "ym2612"
    },
    {
      "channel": 1,
      "note": 105,
      "start": 4.5337,
      "duration": 0.0178,
      "velocity": 124,
      "chip": "ym2612"
    },
    {
      "channel": 0,
      "note": 39,
      "start": 4.5354,
      "duration": 0.0197,
      "velocity": 115,
      "chip": "ym2612"
    },
    {
      "channel": 2,
      "note": 55,
      "start": 4.5388,
      "duration": 0.02,
      "velocity": 100,
      "chip": "ym2612"
    },
    {
      "channel": 1,
      "note": 64,
      "start": 4.5516,
      "duration": 0.0144,
      "velocity": 124,
      "chip": "ym2612"
    },
    {
      "channel": 0,
      "note": 36,
      "start": 4.555,
      "duration": 0.0127,
      "velocity": 115,
      "chip": "ym2612"
    },
    {
      "channel": 2,
      "note": 55,
      "start": 4.5588,
      "duration": 0.0124,
      "velocity": 100,
      "chip": "ym2612"
    },
    {
      "channel": 1,
      "note": 64,
      "start": 4.566,
      "duration": 0.016,
      "velocity": 124,
      "chip": "ym2612"
    },
    {
      "channel": 0,
      "note": 36,
      "start": 4.5677,
      "duration": 0.016,
      "velocity": 115,
      "chip": "ym2612"
    },
    {
      "channel": 2,
      "note": 55,
      "start": 4.5712,
      "duration": 0.0159,
      "velocity": 100,
      "chip": "ym2612"
    },
    {
      "channel": 1,
      "note": 64,
      "start": 4.582,
      "duration": 0.0161,
      "velocity": 124,
      "chip": "ym2612"
    },
    {
      "channel": 0,
      "note": 37,
      "start": 4.5837,
      "duration": 0.0161,
      "velocity": 115,
      "chip": "ym2612"
    },
    {
      "channel": 2,
      "note": 55,
      "start": 4.5871,
      "duration": 0.0161,
      "velocity": 100,
      "chip": "ym2612"
    },
    {
      "channel": 1,
      "note": 64,
      "start": 4.5981,
      "duration": 0.0161,
      "velocity": 124,
      "chip": "ym2612"
    },
    {
      "channel": 0,
      "note": 37,
      "start": 4.5998,
      "duration": 0.0161,
      "velocity": 115,
      "chip": "ym2612"
    },
    {
      "channel": 2,
      "note": 55,
      "start": 4.6032,
      "duration": 0.0161,
      "velocity": 100,
      "chip": "ym2612"
    },
    {
      "channel": 1,
      "note": 64,
      "start": 4.6142,
      "duration": 0.0164,
      "velocity": 124,
      "chip": "ym2612"
    },
    {
      "channel": 0,
      "note": 38,
      "start": 4.6159,
      "duration": 0.0164,
      "velocity": 115,
      "chip": "ym2612"
    },
    {
      "channel": 2,
      "note": 55,
      "start": 4.6193,
      "duration": 0.0164,
      "velocity": 100,
      "chip": "ym2612"
    },
    {
      "channel": 1,
      "note": 64,
      "start": 4.6307,
      "duration": 0.0167,
      "velocity": 124,
      "chip": "ym2612"
    },
    {
      "channel": 0,
      "note": 38,
      "start": 4.6323,
      "duration": 0.0167,
      "velocity": 115,
      "chip": "ym2612"
    },
    {
      "channel": 2,
      "note": 55,
      "start": 4.6357,
      "duration": 0.0167,
      "velocity": 100,
      "chip": "ym2612"
    },
    {
      "channel": 1,
      "note": 64,
      "start": 4.6473,
      "duration": 0.0179,
      "velocity": 105,
      "chip": "ym2612"
    },
    {
      "channel": 0,
      "note": 39,
      "start": 4.649,
      "duration": 0.018,
      "velocity": 115,
      "chip": "ym2612"
    },
    {
      "channel": 2,
      "note": 55,
      "start": 4.6524,
      "duration": 0.0183,
      "velocity": 100,
      "chip": "ym2612"
    },
    {
      "channel": 1,
      "note": 105,
      "start": 4.6653,
      "duration": 0.0134,
      "velocity": 105,
      "chip": "ym2612"
    },
    {
      "channel": 0,
      "note": 39,
      "start": 4.667,
      "duration": 0.0134,
      "velocity": 115,
      "chip": "ym2612"
    },
    {
      "channel": 2,
      "note": 55,
      "start": 4.6707,
      "duration": 0.0131,
      "velocity": 100,
      "chip": "ym2612"
    },
    {
      "channel": 1,
      "note": 105,
      "start": 4.6787,
      "duration": 0.0186,
      "velocity": 105,
      "chip": "ym2612"
    },
    {
      "channel": 0,
      "note": 40,
      "start": 4.6803,
      "duration": 0.0186,
      "velocity": 115,
      "chip": "ym2612"
    },
    {
      "channel": 2,
      "note": 55,
      "start": 4.6838,
      "duration": 0.0186,
      "velocity": 100,
      "chip": "ym2612"
    },
    {
      "channel": 1,
      "note": 105,
      "start": 4.6973,
      "duration": 0.0163,
      "velocity": 105,
      "chip": "ym2612"
    },
    {
      "channel": 0,
      "note": 40,
      "start": 4.699,
      "duration": 0.0163,
      "velocity": 115,
      "chip": "ym2612"
    },
    {
      "channel": 2,
      "note": 55,
      "start": 4.7024,
      "duration": 0.0163,
      "velocity": 100,
      "chip": "ym2612"
    },
    {
      "channel": 1,
      "note": 105,
      "start": 4.7136,
      "duration": 0.0157,
      "velocity": 105,
      "chip": "ym2612"
    },
    {
      "channel": 0,
      "note": 40,
      "start": 4.7153,
      "duration": 0.0157,
      "velocity": 115,
      "chip": "ym2612"
    },
    {
      "channel": 2,
      "note": 55,
      "start": 4.7187,
      "duration": 0.0157,
      "velocity": 100,
      "chip": "ym2612"
    },
    {
      "channel": 1,
      "note": 105,
      "start": 4.7293,
      "duration": 0.0137,
      "velocity": 105,
      "chip": "ym2612"
    },
    {
      "channel": 0,
      "note": 41,
      "start": 4.731,
      "duration": 0.0141,
      "velocity": 115,
      "chip": "ym2612"
    },
    {
      "channel": 2,
      "note": 55,
      "start": 4.7344,
      "duration": 0.0141,
      "velocity": 100,
      "chip": "ym2612"
    },
    {
      "channel": 1,
      "note": 105,
      "start": 4.7431,
      "duration": 0.0161,
      "velocity": 105,
      "chip": "ym2612"
    },
    {
      "channel": 0,
      "note": 41,
      "start": 4.745,
      "duration": 0.0185,
      "velocity": 115,
      "chip": "ym2612"
    },
    {
      "channel": 2,
      "note": 55,
      "start": 4.7485,
      "duration": 0.0185,
      "velocity": 100,
      "chip": "ym2612"
    },
    {
      "channel": 1,
      "note": 105,
      "start": 4.7591,
      "duration": 0.0205,
      "velocity": 124,
      "chip": "ym2612"
    },
    {
      "channel": 0,
      "note": 42,
      "start": 4.7635,
      "duration": 0.0179,
      "velocity": 115,
      "chip": "ym2612"
    },
    {
      "channel": 2,
      "note": 55,
      "start": 4.767,
      "duration": 0.0181,
      "velocity": 100,
      "chip": "ym2612"
    },
    {
      "channel": 1,
      "note": 64,
      "start": 4.7798,
      "duration": 0.0117,
      "velocity": 124,
      "chip": "ym2612"
    },
    {
      "channel": 0,
      "note": 42,
      "start": 4.7814,
      "duration": 0.0117,
      "velocity": 115,
      "chip": "ym2612"
    },
    {
      "channel": 2,
      "note": 55,
      "start": 4.7852,
      "duration": 0.0138,
      "velocity": 100,
      "chip": "ym2612"
    },
    {
      "channel": 1,
      "note": 64,
      "start": 4.7914,
      "duration": 0.016,
      "velocity": 124,
      "chip": "ym2612"
    },
    {
      "channel": 0,
      "note": 43,
      "start": 4.7931,
      "duration": 0.0161,
      "velocity": 115,
      "chip": "ym2612"
    },
    {
      "channel": 2,
      "note": 55,
      "start": 4.799,
      "duration": 0.0139,
      "velocity": 100,
      "chip": "ym2612"
    },
    {
      "channel": 1,
      "note": 64,
      "start": 4.8074,
      "duration": 0.0161,
      "velocity": 124,
      "chip": "ym2612"
    },
    {
      "channel": 0,
      "note": 43,
      "start": 4.8091,
      "duration": 0.0161,
      "velocity": 115,
      "chip": "ym2612"
    },
    {
      "channel": 2,
      "note": 55,
      "start": 4.8129,
      "duration": 0.0185,
      "velocity": 100,
      "chip": "ym2612"
    },
    {
      "channel": 1,
      "note": 64,
      "start": 4.8235,
      "duration": 0.0162,
      "velocity": 124,
      "chip": "ym2612"
    },
    {
      "channel": 0,
      "note": 44,
      "start": 4.8252,
      "duration": 0.0161,
      "velocity": 115,
      "chip": "ym2612"
    },
    {
      "channel": 2,
      "note": 55,
      "start": 4.8314,
      "duration": 0.0161,
      "velocity": 100,
      "chip": "ym2612"
    },
    {
      "channel": 1,
      "note": 64,
      "start": 4.8397,
      "duration": 0.0161,
      "velocity": 124,
      "chip": "ym2612"
    },
    {
      "channel": 0,
      "note": 44,
      "start": 4.8413,
      "duration": 0.0161,
      "velocity": 115,
      "chip": "ym2612"
    },
    {
      "channel": 2,
      "note": 55,
      "start": 4.8475,
      "duration": 0.0158,
      "velocity": 100,
      "chip": "ym2612"
    },
    {
      "channel": 1,
      "note": 64,
      "start": 4.8558,
      "duration": 0.0161,
      "velocity": 124,
      "chip": "ym2612"
    },
    {
      "channel": 0,
      "note": 44,
      "start": 4.8574,
      "duration": 0.0161,
      "velocity": 115,
      "chip": "ym2612"
    },
    {
      "channel": 2,
      "note": 55,
      "start": 4.8633,
      "duration": 0.014,
      "velocity": 100,
      "chip": "ym2612"
    },
    {
      "channel": 1,
      "note": 64,
      "start": 4.8719,
      "duration": 0.0178,
      "velocity": 105,
      "chip": "ym2612"
    },
    {
      "channel": 0,
      "note": 45,
      "start": 4.8735,
      "duration": 0.0178,
      "velocity": 115,
      "chip": "ym2612"
    },
    {
      "channel": 2,
      "note": 55,
      "start": 4.8773,
      "duration": 0.0205,
      "velocity": 100,
      "chip": "ym2612"
    },
    {
      "channel": 1,
      "note": 105,
      "start": 4.8897,
      "duration": 0.0144,
      "velocity": 105,
      "chip": "ym2612"
    },
    {
      "channel": 0,
      "note": 45,
      "start": 4.8913,
      "duration": 0.0144,
      "velocity": 115,
      "chip": "ym2612"
    },
    {
      "channel": 2,
      "note": 55,
      "start": 4.8978,
      "duration": 0.0115,
      "velocity": 100,
      "chip": "ym2612"
    },
    {
      "channel": 1,
      "note": 105,
      "start": 4.9041,
      "duration": 0.016,
      "velocity": 105,
      "chip": "ym2612"
    },
    {
      "channel": 0,
      "note": 46,
      "start": 4.9058,
      "duration": 0.016,
      "velocity": 115,
      "chip": "ym2612"
    },
    {
      "channel": 2,
      "note": 55,
      "start": 4.9093,
      "duration": 0.016,
      "velocity": 100,
      "chip": "ym2612"
    },
    {
      "channel": 1,
      "note": 105,
      "start": 4.9202,
      "duration": 0.0161,
      "velocity": 105,
      "chip": "ym2612"
    },
    {
      "channel": 0,
      "note": 46,
      "start": 4.9218,
      "duration": 0.0161,
      "velocity": 115,
      "chip": "ym2612"
    },
    {
      "channel": 2,
      "note": 55,
      "start": 4.9252,
      "duration": 0.0161,
      "velocity": 100,
      "chip": "ym2612"
    },
    {
      "channel": 1,
      "note": 105,
      "start": 4.9362,
      "duration": 0.0161,
      "velocity": 105,
      "chip": "ym2612"
    },
    {
      "channel": 0,
      "note": 47,
      "start": 4.9379,
      "duration": 0.0161,
      "velocity": 115,
      "chip": "ym2612"
    },
    {
      "channel": 2,
      "note": 55,
      "start": 4.9413,
      "duration": 0.0161,
      "velocity": 100,
      "chip": "ym2612"
    },
    {
      "channel": 1,
      "note": 105,
      "start": 4.9523,
      "duration": 0.0161,
      "velocity": 105,
      "chip": "ym2612"
    },
    {
      "channel": 0,
      "note": 47,
      "start": 4.954,
      "duration": 0.0161,
      "velocity": 115,
      "chip": "ym2612"
    },
    {
      "channel": 2,
      "note": 55,
      "start": 4.9574,
      "duration": 0.0161,
      "velocity": 100,
      "chip": "ym2612"
    },
    {
      "channel": 1,
      "note": 105,
      "start": 4.9684,
      "duration": 0.0161,
      "velocity": 105,
      "chip": "ym2612"
    },
    {
      "channel": 0,
      "note": 47,
      "start": 4.9701,
      "duration": 0.0161,
      "velocity": 115,
      "chip": "ym2612"
    },
    {
      "channel": 2,
      "note": 55,
      "start": 4.9735,
      "duration": 0.0161,
      "velocity": 100,
      "chip": "ym2612"
    },
    {
      "channel": 1,
      "note": 105,
      "start": 4.9845,
      "duration": 0.0184,
      "velocity": 124,
      "chip": "ym2612"
    },
    {
      "channel": 0,
      "note": 48,
      "start": 4.9862,
      "duration": 0.0191,
      "velocity": 115,
      "chip": "ym2612"
    },
    {
      "channel": 2,
      "note": 55,
      "start": 4.9896,
      "duration": 0.0194,
      "velocity": 100,
      "chip": "ym2612"
    },
    {
      "channel": 1,
      "note": 78,
      "start": 5.0029,
      "duration": 0.0144,
      "velocity": 124,
      "chip": "ym2612"
    },
    {
      "channel": 0,
      "note": 48,
      "start": 5.0053,
      "duration": 0.0139,
      "velocity": 115,
      "chip": "ym2612"
    },
    {
      "channel": 2,
      "note": 55,
      "start": 5.0091,
      "duration": 0.0136,
      "velocity": 100,
      "chip": "ym2612"
    },
    {
      "channel": 1,
      "note": 76,
      "start": 5.0173,
      "duration": 0.016,
      "velocity": 124,
      "chip": "ym2612"
    },
    {
      "channel": 0,
      "note": 49,
      "start": 5.0192,
      "duration": 0.0152,
      "velocity": 1,
      "chip": "ym2612"
    },
    {
      "channel": 2,
      "note": 55,
      "start": 5.0227,
      "duration": 0.0151,
      "velocity": 100,
      "chip": "ym2612"
    },
    {
      "channel": 1,
      "note": 75,
      "start": 5.0333,
      "duration": 0.0162,
      "velocity": 124,
      "chip": "ym2612"
    },
    {
      "channel": 2,
      "note": 55,
      "start": 5.0378,
      "duration": 0.0153,
      "velocity": 100,
      "chip": "ym2612"
    },
    {
      "channel": 1,
      "note": 74,
      "start": 5.0495,
      "duration": 0.0161,
      "velocity": 124,
      "chip": "ym2612"
    },
    {
      "channel": 2,
      "note": 55,
      "start": 5.0531,
      "duration": 0.0161,
      "velocity": 100,
      "chip": "ym2612"
    },
    {
      "channel": 1,
      "note": 72,
      "start": 5.0656,
      "duration": 0.0161,
      "velocity": 124,
      "chip": "ym2612"
    },
    {
      "channel": 2,
      "note": 55,
      "start": 5.0692,
      "duration": 0.0161,
      "velocity": 100,
      "chip": "ym2612"
    },
    {
      "channel": 1,
      "note": 71,
      "start": 5.0817,
      "duration": 0.0161,
      "velocity": 124,
      "chip": "ym2612"
    },
    {
      "channel": 2,
      "note": 55,
      "start": 5.0854,
      "duration": 0.0161,
      "velocity": 100,
      "chip": "ym2612"
    },
    {
      "channel": 1,
      "note": 70,
      "start": 5.0978,
      "duration": 0.0167,
      "velocity": 124,
      "chip": "ym2612"
    },
    {
      "channel": 2,
      "note": 55,
      "start": 5.1015,
      "duration": 0.0175,
      "velocity": 100,
      "chip": "ym2612"
    },
    {
      "channel": 1,
      "note": 69,
      "start": 5.1144,
      "duration": 0.0163,
      "velocity": 124,
      "chip": "ym2612"
    },
    {
      "channel": 2,
      "note": 55,
      "start": 5.1189,
      "duration": 0.0156,
      "velocity": 100,
      "chip": "ym2612"
    },
    {
      "channel": 1,
      "note": 68,
      "start": 5.1308,
      "duration": 0.0153,
      "velocity": 124,
      "chip": "ym2612"
    },
    {
      "channel": 2,
      "note": 55,
      "start": 5.1345,
      "duration": 0.0152,
      "velocity": 100,
      "chip": "ym2612"
    },
    {
      "channel": 1,
      "note": 66,
      "start": 5.146,
      "duration": 0.0184,
      "velocity": 124,
      "chip": "ym2612"
    },
    {
      "channel": 2,
      "note": 55,
      "start": 5.1497,
      "duration": 0.0184,
      "velocity": 100,
      "chip": "ym2612"
    },
    {
      "channel": 1,
      "note": 65,
      "start": 5.1644,
      "duration": 0.0166,
      "velocity": 124,
      "chip": "ym2612"
    },
    {
      "channel": 2,
      "note": 55,
      "start": 5.1681,
      "duration": 0.0165,
      "velocity": 100,
      "chip": "ym2612"
    },
    {
      "channel": 1,
      "note": 64,
      "start": 5.181,
      "duration": 0.0157,
      "velocity": 124,
      "chip": "ym2612"
    },
    {
      "channel": 2,
      "note": 55,
      "start": 5.1846,
      "duration": 0.0158,
      "velocity": 100,
      "chip": "ym2612"
    },
    {
      "channel": 1,
      "note": 62,
      "start": 5.1967,
      "duration": 0.0141,
      "velocity": 124,
      "chip": "ym2612"
    },
    {
      "channel": 2,
      "note": 55,
      "start": 5.2004,
      "duration": 0.0141,
      "velocity": 100,
      "chip": "ym2612"
    },
    {
      "channel": 1,
      "note": 61,
      "start": 5.2108,
      "duration": 0.0185,
      "velocity": 124,
      "chip": "ym2612"
    },
    {
      "channel": 2,
      "note": 55,
      "start": 5.2145,
      "duration": 0.0193,
      "velocity": 100,
      "chip": "ym2612"
    },
    {
      "channel": 1,
      "note": 60,
      "start": 5.2293,
      "duration": 0.0134,
      "velocity": 124,
      "chip": "ym2612"
    },
    {
      "channel": 2,
      "note": 48,
      "start": 5.2338,
      "duration": 0.0153,
      "velocity": 100,
      "chip": "ym2612"
    },
    {
      "channel": 1,
      "note": 59,
      "start": 5.2427,
      "duration": 0.0161,
      "velocity": 124,
      "chip": "ym2612"
    },
    {
      "channel": 2,
      "note": 48,
      "start": 5.2492,
      "duration": 0.0156,
      "velocity": 100,
      "chip": "ym2612"
    },
    {
      "channel": 1,
      "note": 57,
      "start": 5.2588,
      "duration": 0.0161,
      "velocity": 124,
      "chip": "ym2612"
    },
    {
      "channel": 2,
      "note": 48,
      "start": 5.2648,
      "duration": 0.0141,
      "velocity": 100,
      "chip": "ym2612"
    },
    {
      "channel": 1,
      "note": 56,
      "start": 5.2749,
      "duration": 0.0161,
      "velocity": 124,
      "chip": "ym2612"
    },
    {
      "channel": 2,
      "note": 48,
      "start": 5.2789,
      "duration": 0.0185,
      "velocity": 100,
      "chip": "ym2612"
    },
    {
      "channel": 1,
      "note": 55,
      "start": 5.291,
      "duration": 0.0161,
      "velocity": 124,
      "chip": "ym2612"
    },
    {
      "channel": 2,
      "note": 48,
      "start": 5.2974,
      "duration": 0.0161,
      "velocity": 100,
      "chip": "ym2612"
    },
    {
      "channel": 1,
      "note": 53,
      "start": 5.3071,
      "duration": 0.0161,
      "velocity": 124,
      "chip": "ym2612"
    },
    {
      "channel": 2,
      "note": 48,
      "start": 5.3135,
      "duration": 0.0157,
      "velocity": 100,
      "chip": "ym2612"
    },
    {
      "channel": 1,
      "note": 52,
      "start": 5.3232,
      "duration": 0.0161,
      "velocity": 124,
      "chip": "ym2612"
    },
    {
      "channel": 2,
      "note": 48,
      "start": 5.3292,
      "duration": 0.0183,
      "velocity": 100,
      "chip": "ym2612"
    },
    {
      "channel": 1,
      "note": 51,
      "start": 5.3393,
      "duration": 0.0153,
      "velocity": 1,
      "chip": "ym2612"
    },
    {
      "channel": 0,
      "note": 78,
      "start": 5.3438,
      "duration": 0.0146,
      "velocity": 127,
      "chip": "ym2612"
    },
    {
      "channel": 2,
      "note": 48,
      "start": 5.3476,
      "duration": 0.0171,
      "velocity": 100,
      "chip": "ym2612"
    },
    {
      "channel": 1,
      "note": 51,
      "start": 5.3567,
      "duration": 0.0142,
      "velocity": 105,
      "chip": "ym2612"
    },
    {
      "channel": 0,
      "note": 76,
      "start": 5.3585,
      "duration": 0.0142,
      "velocity": 127,
      "chip": "ym2612"
    },
    {
      "channel": 2,
      "note": 48,
      "start": 5.3647,
      "duration": 0.0114,
      "velocity": 100,
      "chip": "ym2612"
    },
    {
      "channel": 1,
      "note": 105,
      "start": 5.371,
      "duration": 0.0161,
      "velocity": 105,
      "chip": "ym2612"
    },
    {
      "channel": 0,
      "note": 75,
      "start": 5.3726,
      "duration": 0.0161,
      "velocity": 127,
      "chip": "ym2612"
    },
    {
      "channel": 2,
      "note": 48,
      "start": 5.3761,
      "duration": 0.0161,
      "velocity": 100,
      "chip": "ym2612"
    },
    {
      "channel": 1,
      "note": 105,
      "start": 5.3871,
      "duration": 0.0161,
      "velocity": 105,
      "chip": "ym2612"
    },
    {
      "channel": 0,
      "note": 73,
      "start": 5.3887,
      "duration": 0.0161,
      "velocity": 127,
      "chip": "ym2612"
    },
    {
      "channel": 2,
      "note": 48,
      "start": 5.3922,
      "duration": 0.0161,
      "velocity": 100,
      "chip": "ym2612"
    },
    {
      "channel": 1,
      "note": 105,
      "start": 5.4032,
      "duration": 0.0161,
      "velocity": 105,
      "chip": "ym2612"
    },
    {
      "channel": 0,
      "note": 71,
      "start": 5.4048,
      "duration": 0.0161,
      "velocity": 127,
      "chip": "ym2612"
    },
    {
      "channel": 2,
      "note": 48,
      "start": 5.4083,
      "duration": 0.0161,
      "velocity": 100,
      "chip": "ym2612"
    },
    {
      "channel": 1,
      "note": 105,
      "start": 5.4193,
      "duration": 0.0161,
      "velocity": 105,
      "chip": "ym2612"
    },
    {
      "channel": 0,
      "note": 70,
      "start": 5.4209,
      "duration": 0.0161,
      "velocity": 127,
      "chip": "ym2612"
    },
    {
      "channel": 2,
      "note": 48,
      "start": 5.4244,
      "duration": 0.0161,
      "velocity": 100,
      "chip": "ym2612"
    },
    {
      "channel": 1,
      "note": 105,
      "start": 5.4354,
      "duration": 0.0178,
      "velocity": 124,
      "chip": "ym2612"
    },
    {
      "channel": 0,
      "note": 68,
      "start": 5.437,
      "duration": 0.0197,
      "velocity": 115,
      "chip": "ym2612"
    },
    {
      "channel": 2,
      "note": 48,
      "start": 5.4405,
      "duration": 0.0223,
      "velocity": 100,
      "chip": "ym2612"
    },
    {
      "channel": 1,
      "note": 64,
      "start": 5.4532,
      "duration": 0.0144,
      "velocity": 124,
      "chip": "ym2612"
    },
    {
      "channel": 0,
      "note": 36,
      "start": 5.4567,
      "duration": 0.0127,
      "velocity": 115,
      "chip": "ym2612"
    },
    {
      "channel": 2,
      "note": 50,
      "start": 5.4628,
      "duration": 0.0101,
      "velocity": 100,
      "chip": "ym2612"
    },
    {
      "channel": 1,
      "note": 64,
      "start": 5.4677,
      "duration": 0.016,
      "velocity": 124,
      "chip": "ym2612"
    },
    {
      "channel": 0,
      "note": 36,
      "start": 5.4694,
      "duration": 0.016,
      "velocity": 115,
      "chip": "ym2612"
    },
    {
      "channel": 2,
      "note": 50,
      "start": 5.4729,
      "duration": 0.0159,
      "velocity": 100,
      "chip": "ym2612"
    },
    {
      "channel": 1,
      "note": 64,
      "start": 5.4837,
      "duration": 0.0161,
      "velocity": 124,
      "chip": "ym2612"
    },
    {
      "channel": 0,
      "note": 37,
      "start": 5.4854,
      "duration": 0.0161,
      "velocity": 115,
      "chip": "ym2612"
    },
    {
      "channel": 2,
      "note": 50,
      "start": 5.4888,
      "duration": 0.0161,
      "velocity": 100,
      "chip": "ym2612"
    },
    {
      "channel": 1,
      "note": 64,
      "start": 5.4998,
      "duration": 0.0161,
      "velocity": 124,
      "chip": "ym2612"
    },
    {
      "channel": 0,
      "note": 37,
      "start": 5.5015,
      "duration": 0.0161,
      "velocity": 115,
      "chip": "ym2612"
    },
    {
      "channel": 2,
      "note": 50,
      "start": 5.5049,
      "duration": 0.0161,
      "velocity": 100,
      "chip": "ym2612"
    },
    {
      "channel": 1,
      "note": 64,
      "start": 5.5159,
      "duration": 0.0161,
      "velocity": 124,
      "chip": "ym2612"
    },
    {
      "channel": 0,
      "note": 38,
      "start": 5.5176,
      "duration": 0.0161,
      "velocity": 115,
      "chip": "ym2612"
    },
    {
      "channel": 2,
      "note": 50,
      "start": 5.521,
      "duration": 0.0161,
      "velocity": 100,
      "chip": "ym2612"
    },
    {
      "channel": 1,
      "note": 64,
      "start": 5.532,
      "duration": 0.0161,
      "velocity": 124,
      "chip": "ym2612"
    },
    {
      "channel": 0,
      "note": 38,
      "start": 5.5336,
      "duration": 0.0162,
      "velocity": 115,
      "chip": "ym2612"
    },
    {
      "channel": 2,
      "note": 50,
      "start": 5.5371,
      "duration": 0.0161,
      "velocity": 100,
      "chip": "ym2612"
    },
    {
      "channel": 1,
      "note": 64,
      "start": 5.5481,
      "duration": 0.0178,
      "velocity": 105,
      "chip": "ym2612"
    },
    {
      "channel": 0,
      "note": 39,
      "start": 5.5498,
      "duration": 0.0178,
      "velocity": 115,
      "chip": "ym2612"
    },
    {
      "channel": 2,
      "note": 50,
      "start": 5.5532,
      "duration": 0.0183,
      "velocity": 100,
      "chip": "ym2612"
    },
    {
      "channel": 1,
      "note": 105,
      "start": 5.5659,
      "duration": 0.0148,
      "velocity": 105,
      "chip": "ym2612"
    },
    {
      "channel": 0,
      "note": 39,
      "start": 5.5676,
      "duration": 0.0148,
      "velocity": 115,
      "chip": "ym2612"
    },
    {
      "channel": 2,
      "note": 50,
      "start": 5.5715,
      "duration": 0.0144,
      "velocity": 100,
      "chip": "ym2612"
    },
    {
      "channel": 1,
      "note": 105,
      "start": 5.5807,
      "duration": 0.0163,
      "velocity": 105,
      "chip": "ym2612"
    },
    {
      "channel": 0,
      "note": 40,
      "start": 5.5824,
      "duration": 0.0162,
      "velocity": 115,
      "chip": "ym2612"
    },
    {
      "channel": 2,
      "note": 50,
      "start": 5.5859,
      "duration": 0.0161,
      "velocity": 100,
      "chip": "ym2612"
    },
    {
      "channel": 1,
      "note": 105,
      "start": 5.5969,
      "duration": 0.0156,
      "velocity": 105,
      "chip": "ym2612"
    },
    {
      "channel": 0,
      "note": 40,
      "start": 5.5986,
      "duration": 0.0156,
      "velocity": 115,
      "chip": "ym2612"
    },
    {
      "channel": 2,
      "note": 50,
      "start": 5.602,
      "duration": 0.0156,
      "velocity": 100,
      "chip": "ym2612"
    },
    {
      "channel": 1,
      "note": 105,
      "start": 5.6125,
      "duration": 0.0181,
      "velocity": 105,
      "chip": "ym2612"
    },
    {
      "channel": 0,
      "note": 40,
      "start": 5.6142,
      "duration": 0.0181,
      "velocity": 115,
      "chip": "ym2612"
    },
    {
      "channel": 2,
      "note": 50,
      "start": 5.6176,
      "duration": 0.0181,
      "velocity": 100,
      "chip": "ym2612"
    },
    {
      "channel": 1,
      "note": 105,
      "start": 5.6307,
      "duration": 0.0167,
      "velocity": 105,
      "chip": "ym2612"
    },
    {
      "channel": 0,
      "note": 41,
      "start": 5.6323,
      "duration": 0.0167,
      "velocity": 115,
      "chip": "ym2612"
    },
    {
      "channel": 2,
      "note": 50,
      "start": 5.6357,
      "duration": 0.0167,
      "velocity": 100,
      "chip": "ym2612"
    },
    {
      "channel": 1,
      "note": 105,
      "start": 5.6473,
      "duration": 0.0158,
      "velocity": 105,
      "chip": "ym2612"
    },
    {
      "channel": 0,
      "note": 41,
      "start": 5.649,
      "duration": 0.0159,
      "velocity": 115,
      "chip": "ym2612"
    },
    {
      "channel": 2,
      "note": 50,
      "start": 5.6524,
      "duration": 0.0159,
      "velocity": 100,
      "chip": "ym2612"
    },
    {
      "channel": 1,
      "note": 105,
      "start": 5.6632,
      "duration": 0.0158,
      "velocity": 124,
      "chip": "ym2612"
    },
    {
      "channel": 0,
      "note": 42,
      "start": 5.6649,
      "duration": 0.0158,
      "velocity": 115,
      "chip": "ym2612"
    },
    {
      "channel": 2,
      "note": 50,
      "start": 5.6683,
      "duration": 0.0162,
      "velocity": 100,
      "chip": "ym2612"
    },
    {
      "channel": 1,
      "note": 64,
      "start": 5.679,
      "duration": 0.0141,
      "velocity": 124,
      "chip": "ym2612"
    },
    {
      "channel": 0,
      "note": 42,
      "start": 5.6807,
      "duration": 0.0168,
      "velocity": 115,
      "chip": "ym2612"
    },
    {
      "channel": 2,
      "note": 50,
      "start": 5.6846,
      "duration": 0.0164,
      "velocity": 100,
      "chip": "ym2612"
    },
    {
      "channel": 1,
      "note": 64,
      "start": 5.6931,
      "duration": 0.016,
      "velocity": 124,
      "chip": "ym2612"
    },
    {
      "channel": 0,
      "note": 43,
      "start": 5.6975,
      "duration": 0.016,
      "velocity": 115,
      "chip": "ym2612"
    },
    {
      "channel": 2,
      "note": 50,
      "start": 5.701,
      "duration": 0.016,
      "velocity": 100,
      "chip": "ym2612"
    },
    {
      "channel": 1,
      "note": 64,
      "start": 5.7091,
      "duration": 0.0161,
      "velocity": 124,
      "chip": "ym2612"
    },
    {
      "channel": 0,
      "note": 43,
      "start": 5.7135,
      "duration": 0.0158,
      "velocity": 115,
      "chip": "ym2612"
    },
    {
      "channel": 2,
      "note": 50,
      "start": 5.717,
      "duration": 0.0158,
      "velocity": 100,
      "chip": "ym2612"
    },
    {
      "channel": 1,
      "note": 64,
      "start": 5.7252,
      "duration": 0.0161,
      "velocity": 124,
      "chip": "ym2612"
    },
    {
      "channel": 0,
      "note": 44,
      "start": 5.7293,
      "duration": 0.0137,
      "velocity": 115,
      "chip": "ym2612"
    },
    {
      "channel": 2,
      "note": 50,
      "start": 5.7327,
      "duration": 0.014,
      "velocity": 100,
      "chip": "ym2612"
    },
    {
      "channel": 1,
      "note": 64,
      "start": 5.7413,
      "duration": 0.0161,
      "velocity": 124,
      "chip": "ym2612"
    },
    {
      "channel": 0,
      "note": 44,
      "start": 5.743,
      "duration": 0.0161,
      "velocity": 115,
      "chip": "ym2612"
    },
    {
      "channel": 2,
      "note": 50,
      "start": 5.7467,
      "duration": 0.0185,
      "velocity": 100,
      "chip": "ym2612"
    },
    {
      "channel": 1,
      "note": 64,
      "start": 5.7574,
      "duration": 0.0161,
      "velocity": 124,
      "chip": "ym2612"
    },
    {
      "channel": 0,
      "note": 44,
      "start": 5.7591,
      "duration": 0.0161,
      "velocity": 115,
      "chip": "ym2612"
    },
    {
      "channel": 2,
      "note": 50,
      "start": 5.7653,
      "duration": 0.0161,
      "velocity": 100,
      "chip": "ym2612"
    },
    {
      "channel": 1,
      "note": 64,
      "start": 5.7735,
      "duration": 0.0178,
      "velocity": 105,
      "chip": "ym2612"
    },
    {
      "channel": 0,
      "note": 45,
      "start": 5.7752,
      "duration": 0.0178,
      "velocity": 115,
      "chip": "ym2612"
    },
    {
      "channel": 2,
      "note": 50,
      "start": 5.7814,
      "duration": 0.0177,
      "velocity": 100,
      "chip": "ym2612"
    },
    {
      "channel": 1,
      "note": 105,
      "start": 5.7913,
      "duration": 0.0144,
      "velocity": 105,
      "chip": "ym2612"
    },
    {
      "channel": 0,
      "note": 45,
      "start": 5.793,
      "duration": 0.0144,
      "velocity": 115,
      "chip": "ym2612"
    },
    {
      "channel": 2,
      "note": 50,
      "start": 5.7992,
      "duration": 0.0121,
      "velocity": 100,
      "chip": "ym2612"
    },
    {
      "channel": 1,
      "note": 105,
      "start": 5.8058,
      "duration": 0.016,
      "velocity": 105,
      "chip": "ym2612"
    },
    {
      "channel": 0,
      "note": 46,
      "start": 5.8074,
      "duration": 0.016,
      "velocity": 115,
      "chip": "ym2612"
    },
    {
      "channel": 2,
      "note": 50,
      "start": 5.8112,
      "duration": 0.0184,
      "velocity": 100,
      "chip": "ym2612"
    },
    {
      "channel": 1,
      "note": 105,
      "start": 5.8218,
      "duration": 0.0161,
      "velocity": 105,
      "chip": "ym2612"
    },
    {
      "channel": 0,
      "note": 46,
      "start": 5.8235,
      "duration": 0.0161,
      "velocity": 115,
      "chip": "ym2612"
    },
    {
      "channel": 2,
      "note": 50,
      "start": 5.8297,
      "duration": 0.0133,
      "velocity": 100,
      "chip": "ym2612"
    },
    {
      "channel": 1,
      "note": 105,
      "start": 5.8379,
      "duration": 0.0161,
      "velocity": 105,
      "chip": "ym2612"
    },
    {
      "channel": 0,
      "note": 47,
      "start": 5.8395,
      "duration": 0.0161,
      "velocity": 115,
      "chip": "ym2612"
    },
    {
      "channel": 2,
      "note": 50,
      "start": 5.843,
      "duration": 0.0161,
      "velocity": 100,
      "chip": "ym2612"
    },
    {
      "channel": 1,
      "note": 105,
      "start": 5.854,
      "duration": 0.0161,
      "velocity": 105,
      "chip": "ym2612"
    },
    {
      "channel": 0,
      "note": 47,
      "start": 5.8556,
      "duration": 0.0161,
      "velocity": 115,
      "chip": "ym2612"
    },
    {
      "channel": 2,
      "note": 50,
      "start": 5.8591,
      "duration": 0.0161,
      "velocity": 100,
      "chip": "ym2612"
    },
    {
      "channel": 1,
      "note": 105,
      "start": 5.8701,
      "duration": 0.0161,
      "velocity": 105,
      "chip": "ym2612"
    },
    {
      "channel": 0,
      "note": 47,
      "start": 5.8717,
      "duration": 0.0161,
      "velocity": 115,
      "chip": "ym2612"
    },
    {
      "channel": 2,
      "note": 50,
      "start": 5.8752,
      "duration": 0.0162,
      "velocity": 100,
      "chip": "ym2612"
    },
    {
      "channel": 1,
      "note": 105,
      "start": 5.8862,
      "duration": 0.0183,
      "velocity": 124,
      "chip": "ym2612"
    },
    {
      "channel": 0,
      "note": 48,
      "start": 5.8879,
      "duration": 0.0191,
      "velocity": 115,
      "chip": "ym2612"
    },
    {
      "channel": 2,
      "note": 50,
      "start": 5.8913,
      "duration": 0.0221,
      "velocity": 100,
      "chip": "ym2612"
    },
    {
      "channel": 1,
      "note": 78,
      "start": 5.9046,
      "duration": 0.0143,
      "velocity": 124,
      "chip": "ym2612"
    },
    {
      "channel": 0,
      "note": 48,
      "start": 5.907,
      "duration": 0.0139,
      "velocity": 115,
      "chip": "ym2612"
    },
    {
      "channel": 2,
      "note": 50,
      "start": 5.9135,
      "duration": 0.0108,
      "velocity": 100,
      "chip": "ym2612"
    },
    {
      "channel": 1,
      "note": 76,
      "start": 5.9189,
      "duration": 0.0161,
      "velocity": 124,
      "chip": "ym2612"
    },
    {
      "channel": 0,
      "note": 49,
      "start": 5.9209,
      "duration": 0.0153,
      "velocity": 1,
      "chip": "ym2612"
    },
    {
      "channel": 2,
      "note": 50,
      "start": 5.9244,
      "duration": 0.0152,
      "velocity": 100,
      "chip": "ym2612"
    },
    {
      "channel": 1,
      "note": 75,
      "start": 5.935,
      "duration": 0.0161,
      "velocity": 124,
      "chip": "ym2612"
    },
    {
      "channel": 2,
      "note": 50,
      "start": 5.9395,
      "duration": 0.0153,
      "velocity": 100,
      "chip": "ym2612"
    },
    {
      "channel": 1,
      "note": 74,
      "start": 5.9511,
      "duration": 0.0161,
      "velocity": 124,
      "chip": "ym2612"
    },
    {
      "channel": 2,
      "note": 50,
      "start": 5.9548,
      "duration": 0.016,
      "velocity": 100,
      "chip": "ym2612"
    },
    {
      "channel": 1,
      "note": 72,
      "start": 5.9672,
      "duration": 0.0161,
      "velocity": 124,
      "chip": "ym2612"
    },
    {
      "channel": 2,
      "note": 50,
      "start": 5.9709,
      "duration": 0.0161,
      "velocity": 100,
      "chip": "ym2612"
    },
    {
      "channel": 1,
      "note": 71,
      "start": 5.9833,
      "duration": 0.0161,
      "velocity": 124,
      "chip": "ym2612"
    },
    {
      "channel": 2,
      "note": 50,
      "start": 5.987,
      "duration": 0.0161,
      "velocity": 100,
      "chip": "ym2612"
    },
    {
      "channel": 1,
      "note": 70,
      "start": 5.9994,
      "duration": 0.0161,
      "velocity": 124,
      "chip": "ym2612"
    },
    {
      "channel": 2,
      "note": 50,
      "start": 6.0031,
      "duration": 0.0168,
      "velocity": 100,
      "chip": "ym2612"
    },
    {
      "channel": 1,
      "note": 69,
      "start": 6.0155,
      "duration": 0.0161,
      "velocity": 124,
      "chip": "ym2612"
    },
    {
      "channel": 2,
      "note": 50,
      "start": 6.02,
      "duration": 0.0154,
      "velocity": 100,
      "chip": "ym2612"
    },
    {
      "channel": 1,
      "note": 68,
      "start": 6.0316,
      "duration": 0.0161,
      "velocity": 124,
      "chip": "ym2612"
    },
    {
      "channel": 2,
      "note": 50,
      "start": 6.0354,
      "duration": 0.016,
      "velocity": 100,
      "chip": "ym2612"
    },
    {
      "channel": 1,
      "note": 66,
      "start": 6.0478,
      "duration": 0.0163,
      "velocity": 124,
      "chip": "ym2612"
    },
    {
      "channel": 2,
      "note": 50,
      "start": 6.0515,
      "duration": 0.0163,
      "velocity": 100,
      "chip": "ym2612"
    },
    {
      "channel": 1,
      "note": 65,
      "start": 6.0641,
      "duration": 0.0159,
      "velocity": 124,
      "chip": "ym2612"
    },
    {
      "channel": 2,
      "note": 50,
      "start": 6.0677,
      "duration": 0.0159,
      "velocity": 100,
      "chip": "ym2612"
    },
    {
      "channel": 1,
      "note": 64,
      "start": 6.08,
      "duration": 0.0178,
      "velocity": 124,
      "chip": "ym2612"
    },
    {
      "channel": 2,
      "note": 50,
      "start": 6.0836,
      "duration": 0.0179,
      "velocity": 100,
      "chip": "ym2612"
    },
    {
      "channel": 1,
      "note": 62,
      "start": 6.0978,
      "duration": 0.0167,
      "velocity": 124,
      "chip": "ym2612"
    },
    {
      "channel": 2,
      "note": 50,
      "start": 6.1015,
      "duration": 0.0167,
      "velocity": 100,
      "chip": "ym2612"
    },
    {
      "channel": 1,
      "note": 61,
      "start": 6.1144,
      "duration": 0.0162,
      "velocity": 124,
      "chip": "ym2612"
    },
    {
      "channel": 2,
      "note": 50,
      "start": 6.1181,
      "duration": 0.017,
      "velocity": 100,
      "chip": "ym2612"
    },
    {
      "channel": 1,
      "note": 60,
      "start": 6.1306,
      "duration": 0.0141,
      "velocity": 124,
      "chip": "ym2612"
    },
    {
      "channel": 2,
      "note": 50,
      "start": 6.1351,
      "duration": 0.0133,
      "velocity": 100,
      "chip": "ym2612"
    },
    {
      "channel": 1,
      "note": 59,
      "start": 6.1446,
      "duration": 0.0185,
      "velocity": 124,
      "chip": "ym2612"
    },
    {
      "channel": 2,
      "note": 50,
      "start": 6.1484,
      "duration": 0.0185,
      "velocity": 100,
      "chip": "ym2612"
    },
    {
      "channel": 1,
      "note": 57,
      "start": 6.1632,
      "duration": 0.0162,
      "velocity": 124,
      "chip": "ym2612"
    },
    {
      "channel": 2,
      "note": 50,
      "start": 6.1668,
      "duration": 0.0161,
      "velocity": 100,
      "chip": "ym2612"
    },
    {
      "channel": 1,
      "note": 56,
      "start": 6.1793,
      "duration": 0.0133,
      "velocity": 124,
      "chip": "ym2612"
    },
    {
      "channel": 2,
      "note": 50,
      "start": 6.1829,
      "duration": 0.0157,
      "velocity": 100,
      "chip": "ym2612"
    },
    {
      "channel": 1,
      "note": 55,
      "start": 6.1926,
      "duration": 0.0161,
      "velocity": 124,
      "chip": "ym2612"
    },
    {
      "channel": 2,
      "note": 50,
      "start": 6.1986,
      "duration": 0.0141,
      "velocity": 100,
      "chip": "ym2612"
    },
    {
      "channel": 1,
      "note": 53,
      "start": 6.2087,
      "duration": 0.0161,
      "velocity": 124,
      "chip": "ym2612"
    },
    {
      "channel": 2,
      "note": 50,
      "start": 6.2127,
      "duration": 0.0185,
      "velocity": 100,
      "chip": "ym2612"
    },
    {
      "channel": 1,
      "note": 52,
      "start": 6.2249,
      "duration": 0.0161,
      "velocity": 124,
      "chip": "ym2612"
    },
    {
      "channel": 2,
      "note": 50,
      "start": 6.2312,
      "duration": 0.0204,
      "velocity": 100,
      "chip": "ym2612"
    },
    {
      "channel": 1,
      "note": 51,
      "start": 6.241,
      "duration": 0.0153,
      "velocity": 1,
      "chip": "ym2612"
    },
    {
      "channel": 0,
      "note": 36,
      "start": 6.2479,
      "duration": 0.0146,
      "velocity": 115,
      "chip": "ym2612"
    },
    {
      "channel": 2,
      "note": 50,
      "start": 6.2516,
      "duration": 0.0144,
      "velocity": 100,
      "chip": "ym2612"
    },
    {
      "channel": 1,
      "note": 51,
      "start": 6.2584,
      "duration": 0.0142,
      "velocity": 105,
      "chip": "ym2612"
    },
    {
      "channel": 0,
      "note": 36,
      "start": 6.2625,
      "duration": 0.0118,
      "velocity": 115,
      "chip": "ym2612"
    },
    {
      "channel": 2,
      "note": 50,
      "start": 6.266,
      "duration": 0.012,
      "velocity": 100,
      "chip": "ym2612"
    },
    {
      "channel": 1,
      "note": 105,
      "start": 6.2726,
      "duration": 0.0161,
      "velocity": 105,
      "chip": "ym2612"
    },
    {
      "channel": 0,
      "note": 37,
      "start": 6.2743,
      "duration": 0.0161,
      "velocity": 115,
      "chip": "ym2612"
    },
    {
      "channel": 2,
      "note": 50,
      "start": 6.278,
      "duration": 0.0186,
      "velocity": 100,
      "chip": "ym2612"
    },
    {
      "channel": 1,
      "note": 105,
      "start": 6.2887,
      "duration": 0.0161,
      "velocity": 105,
      "chip": "ym2612"
    },
    {
      "channel": 0,
      "note": 37,
      "start": 6.2904,
      "duration": 0.0161,
      "velocity": 115,
      "chip": "ym2612"
    },
    {
      "channel": 2,
      "note": 50,
      "start": 6.2966,
      "duration": 0.0161,
      "velocity": 100,
      "chip": "ym2612"
    },
    {
      "channel": 1,
      "note": 105,
      "start": 6.3048,
      "duration": 0.0161,
      "velocity": 105,
      "chip": "ym2612"
    },
    {
      "channel": 0,
      "note": 38,
      "start": 6.3065,
      "duration": 0.0161,
      "velocity": 115,
      "chip": "ym2612"
    },
    {
      "channel": 2,
      "note": 50,
      "start": 6.3127,
      "duration": 0.0134,
      "velocity": 100,
      "chip": "ym2612"
    },
    {
      "channel": 1,
      "note": 105,
      "start": 6.3209,
      "duration": 0.0162,
      "velocity": 105,
      "chip": "ym2612"
    },
    {
      "channel": 0,
      "note": 38,
      "start": 6.3226,
      "duration": 0.0161,
      "velocity": 115,
      "chip": "ym2612"
    },
    {
      "channel": 2,
      "note": 50,
      "start": 6.3261,
      "duration": 0.0161,
      "velocity": 100,
      "chip": "ym2612"
    },
    {
      "channel": 1,
      "note": 105,
      "start": 6.3371,
      "duration": 0.0178,
      "velocity": 124,
      "chip": "ym2612"
    },
    {
      "channel": 0,
      "note": 39,
      "start": 6.3387,
      "duration": 0.0196,
      "velocity": 115,
      "chip": "ym2612"
    },
    {
      "channel": 2,
      "note": 50,
      "start": 6.3422,
      "duration": 0.0227,
      "velocity": 100,
      "chip": "ym2612"
    },
    {
      "channel": 1,
      "note": 64,
      "start": 6.3549,
      "duration": 0.0144,
      "velocity": 124,
      "chip": "ym2612"
    },
    {
      "channel": 0,
      "note": 36,
      "start": 6.3584,
      "duration": 0.0127,
      "velocity": 115,
      "chip": "ym2612"
    },
    {
      "channel": 2,
      "note": 50,
      "start": 6.3649,
      "duration": 0.0097,
      "velocity": 100,
      "chip": "ym2612"
    },
    {
      "channel": 1,
      "note": 64,
      "start": 6.3693,
      "duration": 0.016,
      "velocity": 124,
      "chip": "ym2612"
    },
    {
      "channel": 0,
      "note": 36,
      "start": 6.371,
      "duration": 0.016,
      "velocity": 115,
      "chip": "ym2612"
    },
    {
      "channel": 2,
      "note": 50,
      "start": 6.3745,
      "duration": 0.0159,
      "velocity": 100,
      "chip": "ym2612"
    },
    {
      "channel": 1,
      "note": 64,
      "start": 6.3854,
      "duration": 0.0161,
      "velocity": 124,
      "chip": "ym2612"
    },
    {
      "channel": 0,
      "note": 37,
      "start": 6.387,
      "duration": 0.0161,
      "velocity": 115,
      "chip": "ym2612"
    },
    {
      "channel": 2,
      "note": 50,
      "start": 6.3905,
      "duration": 0.0161,
      "velocity": 100,
      "chip": "ym2612"
    },
    {
      "channel": 1,
      "note": 64,
      "start": 6.4015,
      "duration": 0.0161,
      "velocity": 124,
      "chip": "ym2612"
    },
    {
      "channel": 0,
      "note": 37,
      "start": 6.4031,
      "duration": 0.0161,
      "velocity": 115,
      "chip": "ym2612"
    },
    {
      "channel": 2,
      "note": 50,
      "start": 6.4065,
      "duration": 0.0161,
      "velocity": 100,
      "chip": "ym2612"
    },
    {
      "channel": 1,
      "note": 64,
      "start": 6.4176,
      "duration": 0.0161,
      "velocity": 124,
      "chip": "ym2612"
    },
    {
      "channel": 0,
      "note": 38,
      "start": 6.4192,
      "duration": 0.0161,
      "velocity": 115,
      "chip": "ym2612"
    },
    {
      "channel": 2,
      "note": 50,
      "start": 6.4226,
      "duration": 0.0162,
      "velocity": 100,
      "chip": "ym2612"
    },
    {
      "channel": 1,
      "note": 64,
      "start": 6.4336,
      "duration": 0.0161,
      "velocity": 124,
      "chip": "ym2612"
    },
    {
      "channel": 0,
      "note": 38,
      "start": 6.4354,
      "duration": 0.0161,
      "velocity": 115,
      "chip": "ym2612"
    },
    {
      "channel": 2,
      "note": 50,
      "start": 6.4388,
      "duration": 0.0161,
      "velocity": 100,
      "chip": "ym2612"
    },
    {
      "channel": 1,
      "note": 64,
      "start": 6.4497,
      "duration": 0.0178,
      "velocity": 105,
      "chip": "ym2612"
    },
    {
      "channel": 0,
      "note": 39,
      "start": 6.4515,
      "duration": 0.0178,
      "velocity": 115,
      "chip": "ym2612"
    },
    {
      "channel": 2,
      "note": 50,
      "start": 6.4549,
      "duration": 0.0181,
      "velocity": 100,
      "chip": "ym2612"
    },
    {
      "channel": 1,
      "note": 105,
      "start": 6.4676,
      "duration": 0.0144,
      "velocity": 105,
      "chip": "ym2612"
    },
    {
      "channel": 0,
      "note": 39,
      "start": 6.4693,
      "duration": 0.0144,
      "velocity": 115,
      "chip": "ym2612"
    },
    {
      "channel": 2,
      "note": 50,
      "start": 6.473,
      "duration": 0.0142,
      "velocity": 100,
      "chip": "ym2612"
    },
    {
      "channel": 1,
      "note": 105,
      "start": 6.482,
      "duration": 0.0161,
      "velocity": 105,
      "chip": "ym2612"
    },
    {
      "channel": 0,
      "note": 40,
      "start": 6.4837,
      "duration": 0.016,
      "velocity": 115,
      "chip": "ym2612"
    },
    {
      "channel": 2,
      "note": 50,
      "start": 6.4872,
      "duration": 0.016,
      "velocity": 100,
      "chip": "ym2612"
    },
    {
      "channel": 1,
      "note": 105,
      "start": 6.4981,
      "duration": 0.0161,
      "velocity": 105,
      "chip": "ym2612"
    },
    {
      "channel": 0,
      "note": 40,
      "start": 6.4997,
      "duration": 0.0161,
      "velocity": 115,
      "chip": "ym2612"
    },
    {
      "channel": 2,
      "note": 50,
      "start": 6.5032,
      "duration": 0.0161,
      "velocity": 100,
      "chip": "ym2612"
    },
    {
      "channel": 1,
      "note": 105,
      "start": 6.5142,
      "duration": 0.0161,
      "velocity": 105,
      "chip": "ym2612"
    },
    {
      "channel": 0,
      "note": 40,
      "start": 6.5158,
      "duration": 0.0161,
      "velocity": 115,
      "chip": "ym2612"
    },
    {
      "channel": 2,
      "note": 50,
      "start": 6.5193,
      "duration": 0.0162,
      "velocity": 100,
      "chip": "ym2612"
    },
    {
      "channel": 1,
      "note": 105,
      "start": 6.5303,
      "duration": 0.0161,
      "velocity": 105,
      "chip": "ym2612"
    },
    {
      "channel": 0,
      "note": 41,
      "start": 6.532,
      "duration": 0.016,
      "velocity": 115,
      "chip": "ym2612"
    },
    {
      "channel": 2,
      "note": 50,
      "start": 6.5354,
      "duration": 0.016,
      "velocity": 100,
      "chip": "ym2612"
    },
    {
      "channel": 1,
      "note": 105,
      "start": 6.5463,
      "duration": 0.0176,
      "velocity": 105,
      "chip": "ym2612"
    },
    {
      "channel": 0,
      "note": 41,
      "start": 6.548,
      "duration": 0.0176,
      "velocity": 115,
      "chip": "ym2612"
    },
    {
      "channel": 2,
      "note": 50,
      "start": 6.5515,
      "duration": 0.0176,
      "velocity": 100,
      "chip": "ym2612"
    },
    {
      "channel": 1,
      "note": 105,
      "start": 6.564,
      "duration": 0.0183,
      "velocity": 124,
      "chip": "ym2612"
    },
    {
      "channel": 0,
      "note": 42,
      "start": 6.5656,
      "duration": 0.0184,
      "velocity": 115,
      "chip": "ym2612"
    },
    {
      "channel": 2,
      "note": 50,
      "start": 6.5691,
      "duration": 0.0187,
      "velocity": 100,
      "chip": "ym2612"
    },
    {
      "channel": 1,
      "note": 64,
      "start": 6.5824,
      "duration": 0.0146,
      "velocity": 124,
      "chip": "ym2612"
    },
    {
      "channel": 0,
      "note": 42,
      "start": 6.584,
      "duration": 0.0146,
      "velocity": 115,
      "chip": "ym2612"
    },
    {
      "channel": 2,
      "note": 50,
      "start": 6.5878,
      "duration": 0.0143,
      "velocity": 100,
      "chip": "ym2612"
    },
    {
      "channel": 1,
      "note": 64,
      "start": 6.597,
      "duration": 0.0141,
      "velocity": 124,
      "chip": "ym2612"
    },
    {
      "channel": 0,
      "note": 43,
      "start": 6.5986,
      "duration": 0.0141,
      "velocity": 115,
      "chip": "ym2612"
    },
    {
      "channel": 2,
      "note": 50,
      "start": 6.6022,
      "duration": 0.0141,
      "velocity": 100,
      "chip": "ym2612"
    },
    {
      "channel": 1,
      "note": 64,
      "start": 6.6111,
      "duration": 0.0186,
      "velocity": 124,
      "chip": "ym2612"
    },
    {
      "channel": 0,
      "note": 43,
      "start": 6.6128,
      "duration": 0.0185,
      "velocity": 115,
      "chip": "ym2612"
    },
    {
      "channel": 2,
      "note": 50,
      "start": 6.6162,
      "duration": 0.0185,
      "velocity": 100,
      "chip": "ym2612"
    },
    {
      "channel": 1,
      "note": 64,
      "start": 6.6296,
      "duration": 0.0134,
      "velocity": 124,
      "chip": "ym2612"
    },
    {
      "channel": 0,
      "note": 44,
      "start": 6.6313,
      "duration": 0.0161,
      "velocity": 115,
      "chip": "ym2612"
    },
    {
      "channel": 2,
      "note": 50,
      "start": 6.6347,
      "duration": 0.0161,
      "velocity": 100,
      "chip": "ym2612"
    },
    {
      "channel": 1,
      "note": 64,
      "start": 6.643,
      "duration": 0.0161,
      "velocity": 124,
      "chip": "ym2612"
    },
    {
      "channel": 0,
      "note": 44,
      "start": 6.6474,
      "duration": 0.0158,
      "velocity": 115,
      "chip": "ym2612"
    },
    {
      "channel": 2,
      "note": 50,
      "start": 6.6508,
      "duration": 0.0158,
      "velocity": 100,
      "chip": "ym2612"
    },
    {
      "channel": 1,
      "note": 64,
      "start": 6.6591,
      "duration": 0.0161,
      "velocity": 124,
      "chip": "ym2612"
    },
    {
      "channel": 0,
      "note": 44,
      "start": 6.6632,
      "duration": 0.0141,
      "velocity": 115,
      "chip": "ym2612"
    },
    {
      "channel": 2,
      "note": 50,
      "start": 6.6666,
      "duration": 0.0141,
      "velocity": 100,
      "chip": "ym2612"
    },
    {
      "channel": 1,
      "note": 64,
      "start": 6.6752,
      "duration": 0.0178,
      "velocity": 105,
      "chip": "ym2612"
    },
    {
      "channel": 0,
      "note": 45,
      "start": 6.6772,
      "duration": 0.0202,
      "velocity": 115,
      "chip": "ym2612"
    },
    {
      "channel": 2,
      "note": 50,
      "start": 6.6807,
      "duration": 0.0205,
      "velocity": 100,
      "chip": "ym2612"
    },
    {
      "channel": 1,
      "note": 105,
      "start": 6.693,
      "duration": 0.0144,
      "velocity": 105,
      "chip": "ym2612"
    },
    {
      "channel": 0,
      "note": 45,
      "start": 6.6974,
      "duration": 0.0117,
      "velocity": 115,
      "chip": "ym2612"
    },
    {
      "channel": 2,
      "note": 50,
      "start": 6.7012,
      "duration": 0.0141,
      "velocity": 100,
      "chip": "ym2612"
    },
    {
      "channel": 1,
      "note": 105,
      "start": 6.7074,
      "duration": 0.016,
      "velocity": 105,
      "chip": "ym2612"
    },
    {
      "channel": 0,
      "note": 46,
      "start": 6.7091,
      "duration": 0.016,
      "velocity": 115,
      "chip": "ym2612"
    },
    {
      "channel": 2,
      "note": 50,
      "start": 6.7153,
      "duration": 0.0157,
      "velocity": 100,
      "chip": "ym2612"
    },
    {
      "channel": 1,
      "note": 105,
      "start": 6.7235,
      "duration": 0.0161,
      "velocity": 105,
      "chip": "ym2612"
    },
    {
      "channel": 0,
      "note": 46,
      "start": 6.7251,
      "duration": 0.0161,
      "velocity": 115,
      "chip": "ym2612"
    },
    {
      "channel": 2,
      "note": 50,
      "start": 6.731,
      "duration": 0.014,
      "velocity": 100,
      "chip": "ym2612"
    },
    {
      "channel": 1,
      "note": 105,
      "start": 6.7395,
      "duration": 0.0161,
      "velocity": 105,
      "chip": "ym2612"
    },
    {
      "channel": 0,
      "note": 47,
      "start": 6.7412,
      "duration": 0.0161,
      "velocity": 115,
      "chip": "ym2612"
    },
    {
      "channel": 2,
      "note": 50,
      "start": 6.745,
      "duration": 0.0186,
      "velocity": 100,
      "chip": "ym2612"
    },
    {
      "channel": 1,
      "note": 105,
      "start": 6.7556,
      "duration": 0.0161,
      "velocity": 105,
      "chip": "ym2612"
    },
    {
      "channel": 0,
      "note": 47,
      "start": 6.7573,
      "duration": 0.0161,
      "velocity": 115,
      "chip": "ym2612"
    },
    {
      "channel": 2,
      "note": 50,
      "start": 6.7635,
      "duration": 0.0161,
      "velocity": 100,
      "chip": "ym2612"
    },
    {
      "channel": 1,
      "note": 105,
      "start": 6.7717,
      "duration": 0.0161,
      "velocity": 105,
      "chip": "ym2612"
    },
    {
      "channel": 0,
      "note": 47,
      "start": 6.7734,
      "duration": 0.0161,
      "velocity": 115,
      "chip": "ym2612"
    },
    {
      "channel": 2,
      "note": 50,
      "start": 6.7796,
      "duration": 0.0134,
      "velocity": 100,
      "chip": "ym2612"
    },
    {
      "channel": 1,
      "note": 105,
      "start": 6.7879,
      "duration": 0.0183,
      "velocity": 124,
      "chip": "ym2612"
    },
    {
      "channel": 0,
      "note": 48,
      "start": 6.7895,
      "duration": 0.0191,
      "velocity": 115,
      "chip": "ym2612"
    },
    {
      "channel": 2,
      "note": 50,
      "start": 6.793,
      "duration": 0.0197,
      "velocity": 100,
      "chip": "ym2612"
    },
    {
      "channel": 1,
      "note": 78,
      "start": 6.8063,
      "duration": 0.0144,
      "velocity": 124,
      "chip": "ym2612"
    },
    {
      "channel": 0,
      "note": 48,
      "start": 6.8086,
      "duration": 0.0139,
      "velocity": 115,
      "chip": "ym2612"
    },
    {
      "channel": 2,
      "note": 48,
      "start": 6.8127,
      "duration": 0.0134,
      "velocity": 100,
      "chip": "ym2612"
    },
    {
      "channel": 1,
      "note": 76,
      "start": 6.8207,
      "duration": 0.016,
      "velocity": 124,
      "chip": "ym2612"
    },
    {
      "channel": 0,
      "note": 49,
      "start": 6.8226,
      "duration": 0.0152,
      "velocity": 1,
      "chip": "ym2612"
    },
    {
      "channel": 2,
      "note": 48,
      "start": 6.8261,
      "duration": 0.0151,
      "velocity": 100,
      "chip": "ym2612"
    },
    {
      "channel": 1,
      "note": 75,
      "start": 6.8367,
      "duration": 0.0161,
      "velocity": 124,
      "chip": "ym2612"
    },
    {
      "channel": 2,
      "note": 48,
      "start": 6.8412,
      "duration": 0.0153,
      "velocity": 100,
      "chip": "ym2612"
    },
    {
      "channel": 1,
      "note": 74,
      "start": 6.8528,
      "duration": 0.0161,
      "velocity": 124,
      "chip": "ym2612"
    },
    {
      "channel": 2,
      "note": 48,
      "start": 6.8565,
      "duration": 0.0161,
      "velocity": 100,
      "chip": "ym2612"
    },
    {
      "channel": 1,
      "note": 72,
      "start": 6.8689,
      "duration": 0.0161,
      "velocity": 124,
      "chip": "ym2612"
    },
    {
      "channel": 2,
      "note": 48,
      "start": 6.8726,
      "duration": 0.0161,
      "velocity": 100,
      "chip": "ym2612"
    },
    {
      "channel": 1,
      "note": 71,
      "start": 6.885,
      "duration": 0.0161,
      "velocity": 124,
      "chip": "ym2612"
    },
    {
      "channel": 2,
      "note": 48,
      "start": 6.8887,
      "duration": 0.0161,
      "velocity": 100,
      "chip": "ym2612"
    },
    {
      "channel": 1,
      "note": 70,
      "start": 6.9011,
      "duration": 0.0161,
      "velocity": 124,
      "chip": "ym2612"
    },
    {
      "channel": 2,
      "note": 48,
      "start": 6.9048,
      "duration": 0.0168,
      "velocity": 100,
      "chip": "ym2612"
    },
    {
      "channel": 1,
      "note": 69,
      "start": 6.9172,
      "duration": 0.0161,
      "velocity": 124,
      "chip": "ym2612"
    },
    {
      "channel": 2,
      "note": 48,
      "start": 6.9216,
      "duration": 0.0155,
      "velocity": 100,
      "chip": "ym2612"
    },
    {
      "channel": 1,
      "note": 68,
      "start": 6.9333,
      "duration": 0.0161,
      "velocity": 124,
      "chip": "ym2612"
    },
    {
      "channel": 2,
      "note": 48,
      "start": 6.9371,
      "duration": 0.016,
      "velocity": 100,
      "chip": "ym2612"
    },
    {
      "channel": 1,
      "note": 66,
      "start": 6.9493,
      "duration": 0.0162,
      "velocity": 124,
      "chip": "ym2612"
    },
    {
      "channel": 2,
      "note": 48,
      "start": 6.953,
      "duration": 0.0161,
      "velocity": 100,
      "chip": "ym2612"
    },
    {
      "channel": 1,
      "note": 65,
      "start": 6.9655,
      "duration": 0.0161,
      "velocity": 124,
      "chip": "ym2612"
    },
    {
      "channel": 2,
      "note": 48,
      "start": 6.9691,
      "duration": 0.0161,
      "velocity": 100,
      "chip": "ym2612"
    },
    {
      "channel": 1,
      "note": 64,
      "start": 6.9816,
      "duration": 0.0161,
      "velocity": 124,
      "chip": "ym2612"
    },
    {
      "channel": 2,
      "note": 48,
      "start": 6.9852,
      "duration": 0.0161,
      "velocity": 100,
      "chip": "ym2612"
    },
    {
      "channel": 1,
      "note": 62,
      "start": 6.9977,
      "duration": 0.0161,
      "velocity": 124,
      "chip": "ym2612"
    },
    {
      "channel": 2,
      "note": 48,
      "start": 7.0014,
      "duration": 0.016,
      "velocity": 100,
      "chip": "ym2612"
    },
    {
      "channel": 1,
      "note": 61,
      "start": 7.0138,
      "duration": 0.0173,
      "velocity": 124,
      "chip": "ym2612"
    },
    {
      "channel": 2,
      "note": 48,
      "start": 7.0174,
      "duration": 0.0181,
      "velocity": 100,
      "chip": "ym2612"
    },
    {
      "channel": 1,
      "note": 60,
      "start": 7.0311,
      "duration": 0.0167,
      "velocity": 124,
      "chip": "ym2612"
    },
    {
      "channel": 2,
      "note": 48,
      "start": 7.0356,
      "duration": 0.016,
      "velocity": 100,
      "chip": "ym2612"
    },
    {
      "channel": 1,
      "note": 59,
      "start": 7.0478,
      "duration": 0.0163,
      "velocity": 124,
      "chip": "ym2612"
    },
    {
      "channel": 2,
      "note": 48,
      "start": 7.0516,
      "duration": 0.0161,
      "velocity": 100,
      "chip": "ym2612"
    },
    {
      "channel": 1,
      "note": 57,
      "start": 7.0641,
      "duration": 0.0144,
      "velocity": 124,
      "chip": "ym2612"
    },
    {
      "channel": 2,
      "note": 48,
      "start": 7.0677,
      "duration": 0.0144,
      "velocity": 100,
      "chip": "ym2612"
    },
    {
      "channel": 1,
      "note": 56,
      "start": 7.0785,
      "duration": 0.0186,
      "velocity": 124,
      "chip": "ym2612"
    },
    {
      "channel": 2,
      "note": 48,
      "start": 7.0822,
      "duration": 0.0185,
      "velocity": 100,
      "chip": "ym2612"
    },
    {
      "channel": 1,
      "note": 55,
      "start": 7.0971,
      "duration": 0.0161,
      "velocity": 124,
      "chip": "ym2612"
    },
    {
      "channel": 2,
      "note": 48,
      "start": 7.1007,
      "duration": 0.0161,
      "velocity": 100,
      "chip": "ym2612"
    },
    {
      "channel": 1,
      "note": 53,
      "start": 7.1132,
      "duration": 0.0157,
      "velocity": 124,
      "chip": "ym2612"
    },
    {
      "channel": 2,
      "note": 48,
      "start": 7.1168,
      "duration": 0.0158,
      "velocity": 100,
      "chip": "ym2612"
    },
    {
      "channel": 1,
      "note": 52,
      "start": 7.1289,
      "duration": 0.0137,
      "velocity": 124,
      "chip": "ym2612"
    },
    {
      "channel": 2,
      "note": 48,
      "start": 7.1326,
      "duration": 0.0183,
      "velocity": 100,
      "chip": "ym2612"
    },
    {
      "channel": 1,
      "note": 51,
      "start": 7.1426,
      "duration": 0.0153,
      "velocity": 1,
      "chip": "ym2612"
    },
    {
      "channel": 0,
      "note": 78,
      "start": 7.1472,
      "duration": 0.0174,
      "velocity": 127,
      "chip": "ym2612"
    },
    {
      "channel": 2,
      "note": 48,
      "start": 7.1509,
      "duration": 0.0172,
      "velocity": 100,
      "chip": "ym2612"
    },
    {
      "channel": 1,
      "note": 51,
      "start": 7.1628,
      "duration": 0.0115,
      "velocity": 105,
      "chip": "ym2612"
    },
    {
      "channel": 0,
      "note": 76,
      "start": 7.1646,
      "duration": 0.0114,
      "velocity": 127,
      "chip": "ym2612"
    },
    {
      "channel": 2,
      "note": 48,
      "start": 7.168,
      "duration": 0.0141,
      "velocity": 100,
      "chip": "ym2612"
    },
    {
      "channel": 1,
      "note": 105,
      "start": 7.1743,
      "duration": 0.0161,
      "velocity": 105,
      "chip": "ym2612"
    },
    {
      "channel": 0,
      "note": 75,
      "start": 7.1759,
      "duration": 0.0161,
      "velocity": 127,
      "chip": "ym2612"
    },
    {
      "channel": 2,
      "note": 48,
      "start": 7.1822,
      "duration": 0.0157,
      "velocity": 100,
      "chip": "ym2612"
    },
    {
      "channel": 1,
      "note": 105,
      "start": 7.1904,
      "duration": 0.0161,
      "velocity": 105,
      "chip": "ym2612"
    },
    {
      "channel": 0,
      "note": 73,
      "start": 7.192,
      "duration": 0.0161,
      "velocity": 127,
      "chip": "ym2612"
    },
    {
      "channel": 2,
      "note": 48,
      "start": 7.1979,
      "duration": 0.0141,
      "velocity": 100,
      "chip": "ym2612"
    },
    {
      "channel": 1,
      "note": 105,
      "start": 7.2065,
      "duration": 0.0161,
      "velocity": 105,
      "chip": "ym2612"
    },
    {
      "channel": 0,
      "note": 71,
      "start": 7.2082,
      "duration": 0.0161,
      "velocity": 127,
      "chip": "ym2612"
    },
    {
      "channel": 2,
      "note": 48,
      "start": 7.212,
      "duration": 0.0185,
      "velocity": 100,
      "chip": "ym2612"
    },
    {
      "channel": 1,
      "note": 105,
      "start": 7.2226,
      "duration": 0.0162,
      "velocity": 105,
      "chip": "ym2612"
    },
    {
      "channel": 0,
      "note": 70,
      "start": 7.2243,
      "duration": 0.0161,
      "velocity": 127,
      "chip": "ym2612"
    },
    {
      "channel": 2,
      "note": 48,
      "start": 7.2305,
      "duration": 0.0161,
      "velocity": 100,
      "chip": "ym2612"
    },
    {
      "channel": 1,
      "note": 105,
      "start": 7.2387,
      "duration": 0.0178,
      "velocity": 124,
      "chip": "ym2612"
    },
    {
      "channel": 0,
      "note": 68,
      "start": 7.2404,
      "duration": 0.022,
      "velocity": 115,
      "chip": "ym2612"
    },
    {
      "channel": 2,
      "note": 48,
      "start": 7.2466,
      "duration": 0.0196,
      "velocity": 100,
      "chip": "ym2612"
    },
    {
      "channel": 1,
      "note": 64,
      "start": 7.2565,
      "duration": 0.0144,
      "velocity": 124,
      "chip": "ym2612"
    },
    {
      "channel": 0,
      "note": 36,
      "start": 7.2624,
      "duration": 0.0103,
      "velocity": 115,
      "chip": "ym2612"
    },
    {
      "channel": 2,
      "note": 57,
      "start": 7.2661,
      "duration": 0.01,
      "velocity": 100,
      "chip": "ym2612"
    },
    {
      "channel": 1,
      "note": 64,
      "start": 7.271,
      "duration": 0.016,
      "velocity": 124,
      "chip": "ym2612"
    },
    {
      "channel": 0,
      "note": 36,
      "start": 7.2727,
      "duration": 0.016,
      "velocity": 115,
      "chip": "ym2612"
    },
    {
      "channel": 2,
      "note": 57,
      "start": 7.2762,
      "duration": 0.0159,
      "velocity": 100,
      "chip": "ym2612"
    },
    {
      "channel": 1,
      "note": 64,
      "start": 7.287,
      "duration": 0.0161,
      "velocity": 124,
      "chip": "ym2612"
    },
    {
      "channel": 0,
      "note": 37,
      "start": 7.2887,
      "duration": 0.0161,
      "velocity": 115,
      "chip": "ym2612"
    },
    {
      "channel": 2,
      "note": 57,
      "start": 7.2921,
      "duration": 0.0161,
      "velocity": 100,
      "chip": "ym2612"
    },
    {
      "channel": 1,
      "note": 64,
      "start": 7.3031,
      "duration": 0.0161,
      "velocity": 124,
      "chip": "ym2612"
    },
    {
      "channel": 0,
      "note": 37,
      "start": 7.3048,
      "duration": 0.0161,
      "velocity": 115,
      "chip": "ym2612"
    },
    {
      "channel": 2,
      "note": 57,
      "start": 7.3082,
      "duration": 0.0162,
      "velocity": 100,
      "chip": "ym2612"
    },
    {
      "channel": 1,
      "note": 64,
      "start": 7.3192,
      "duration": 0.0161,
      "velocity": 124,
      "chip": "ym2612"
    },
    {
      "channel": 0,
      "note": 38,
      "start": 7.3209,
      "duration": 0.0161,
      "velocity": 115,
      "chip": "ym2612"
    },
    {
      "channel": 2,
      "note": 57,
      "start": 7.3244,
      "duration": 0.0161,
      "velocity": 100,
      "chip": "ym2612"
    },
    {
      "channel": 1,
      "note": 64,
      "start": 7.3353,
      "duration": 0.0162,
      "velocity": 124,
      "chip": "ym2612"
    },
    {
      "channel": 0,
      "note": 38,
      "start": 7.337,
      "duration": 0.0161,
      "velocity": 115,
      "chip": "ym2612"
    },
    {
      "channel": 2,
      "note": 57,
      "start": 7.3405,
      "duration": 0.0161,
      "velocity": 100,
      "chip": "ym2612"
    },
    {
      "channel": 1,
      "note": 64,
      "start": 7.3515,
      "duration": 0.0178,
      "velocity": 105,
      "chip": "ym2612"
    },
    {
      "channel": 0,
      "note": 39,
      "start": 7.3531,
      "duration": 0.0178,
      "velocity": 115,
      "chip": "ym2612"
    },
    {
      "channel": 2,
      "note": 57,
      "start": 7.3565,
      "duration": 0.0183,
      "velocity": 100,
      "chip": "ym2612"
    },
    {
      "channel": 1,
      "note": 105,
      "start": 7.3693,
      "duration": 0.0144,
      "velocity": 105,
      "chip": "ym2612"
    },
    {
      "channel": 0,
      "note": 39,
      "start": 7.3709,
      "duration": 0.0144,
      "velocity": 115,
      "chip": "ym2612"
    },
    {
      "channel": 2,
      "note": 57,
      "start": 7.3749,
      "duration": 0.014,
      "velocity": 100,
      "chip": "ym2612"
    },
    {
      "channel": 1,
      "note": 105,
      "start": 7.3836,
      "duration": 0.0161,
      "velocity": 105,
      "chip": "ym2612"
    },
    {
      "channel": 0,
      "note": 40,
      "start": 7.3854,
      "duration": 0.016,
      "velocity": 115,
      "chip": "ym2612"
    },
    {
      "channel": 2,
      "note": 57,
      "start": 7.3888,
      "duration": 0.016,
      "velocity": 100,
      "chip": "ym2612"
    },
    {
      "channel": 1,
      "note": 105,
      "start": 7.3997,
      "duration": 0.0161,
      "velocity": 105,
      "chip": "ym2612"
    },
    {
      "channel": 0,
      "note": 40,
      "start": 7.4014,
      "duration": 0.0161,
      "velocity": 115,
      "chip": "ym2612"
    },
    {
      "channel": 2,
      "note": 57,
      "start": 7.4048,
      "duration": 0.0161,
      "velocity": 100,
      "chip": "ym2612"
    },
    {
      "channel": 1,
      "note": 105,
      "start": 7.4158,
      "duration": 0.0161,
      "velocity": 105,
      "chip": "ym2612"
    },
    {
      "channel": 0,
      "note": 40,
      "start": 7.4175,
      "duration": 0.0161,
      "velocity": 115,
      "chip": "ym2612"
    },
    {
      "channel": 2,
      "note": 57,
      "start": 7.4209,
      "duration": 0.0161,
      "velocity": 100,
      "chip": "ym2612"
    },
    {
      "channel": 1,
      "note": 105,
      "start": 7.4319,
      "duration": 0.0161,
      "velocity": 105,
      "chip": "ym2612"
    },
    {
      "channel": 0,
      "note": 41,
      "start": 7.4336,
      "duration": 0.0161,
      "velocity": 115,
      "chip": "ym2612"
    },
    {
      "channel": 2,
      "note": 57,
      "start": 7.437,
      "duration": 0.0161,
      "velocity": 100,
      "chip": "ym2612"
    },
    {
      "channel": 1,
      "note": 105,
      "start": 7.448,
      "duration": 0.0161,
      "velocity": 105,
      "chip": "ym2612"
    },
    {
      "channel": 0,
      "note": 41,
      "start": 7.4497,
      "duration": 0.0161,
      "velocity": 115,
      "chip": "ym2612"
    },
    {
      "channel": 2,
      "note": 57,
      "start": 7.4531,
      "duration": 0.0161,
      "velocity": 100,
      "chip": "ym2612"
    },
    {
      "channel": 1,
      "note": 105,
      "start": 7.4641,
      "duration": 0.0178,
      "velocity": 124,
      "chip": "ym2612"
    },
    {
      "channel": 0,
      "note": 42,
      "start": 7.4658,
      "duration": 0.0179,
      "velocity": 115,
      "chip": "ym2612"
    },
    {
      "channel": 2,
      "note": 57,
      "start": 7.4692,
      "duration": 0.0183,
      "velocity": 100,
      "chip": "ym2612"
    },
    {
      "channel": 1,
      "note": 64,
      "start": 7.482,
      "duration": 0.0154,
      "velocity": 124,
      "chip": "ym2612"
    },
    {
      "channel": 0,
      "note": 42,
      "start": 7.4836,
      "duration": 0.0154,
      "velocity": 115,
      "chip": "ym2612"
    },
    {
      "channel": 2,
      "note": 57,
      "start": 7.4876,
      "duration": 0.015,
      "velocity": 100,
      "chip": "ym2612"
    },
    {
      "channel": 1,
      "note": 64,
      "start": 7.4974,
      "duration": 0.0166,
      "velocity": 124,
      "chip": "ym2612"
    },
    {
      "channel": 0,
      "note": 43,
      "start": 7.499,
      "duration": 0.0166,
      "velocity": 115,
      "chip": "ym2612"
    },
    {
      "channel": 2,
      "note": 57,
      "start": 7.5026,
      "duration": 0.0165,
      "velocity": 100,
      "chip": "ym2612"
    },
    {
      "channel": 1,
      "note": 64,
      "start": 7.514,
      "duration": 0.0163,
      "velocity": 124,
      "chip": "ym2612"
    },
    {
      "channel": 0,
      "note": 43,
      "start": 7.5156,
      "duration": 0.0163,
      "velocity": 115,
      "chip": "ym2612"
    },
    {
      "channel": 2,
      "note": 57,
      "start": 7.5191,
      "duration": 0.0163,
      "velocity": 100,
      "chip": "ym2612"
    },
    {
      "channel": 1,
      "note": 64,
      "start": 7.5303,
      "duration": 0.0146,
      "velocity": 124,
      "chip": "ym2612"
    },
    {
      "channel": 0,
      "note": 44,
      "start": 7.5319,
      "duration": 0.0146,
      "velocity": 115,
      "chip": "ym2612"
    },
    {
      "channel": 2,
      "note": 57,
      "start": 7.5354,
      "duration": 0.0146,
      "velocity": 100,
      "chip": "ym2612"
    },
    {
      "channel": 1,
      "note": 64,
      "start": 7.5449,
      "duration": 0.0186,
      "velocity": 124,
      "chip": "ym2612"
    },
    {
      "channel": 0,
      "note": 44,
      "start": 7.5466,
      "duration": 0.0186,
      "velocity": 115,
      "chip": "ym2612"
    },
    {
      "channel": 2,
      "note": 57,
      "start": 7.55,
      "duration": 0.0186,
      "velocity": 100,
      "chip": "ym2612"
    },
    {
      "channel": 1,
      "note": 64,
      "start": 7.5635,
      "duration": 0.0161,
      "velocity": 124,
      "chip": "ym2612"
    },
    {
      "channel": 0,
      "note": 44,
      "start": 7.5652,
      "duration": 0.016,
      "velocity": 115,
      "chip": "ym2612"
    },
    {
      "channel": 2,
      "note": 57,
      "start": 7.5686,
      "duration": 0.016,
      "velocity": 100,
      "chip": "ym2612"
    },
    {
      "channel": 1,
      "note": 64,
      "start": 7.5796,
      "duration": 0.0174,
      "velocity": 105,
      "chip": "ym2612"
    },
    {
      "channel": 0,
      "note": 45,
      "start": 7.5812,
      "duration": 0.0175,
      "velocity": 115,
      "chip": "ym2612"
    },
    {
      "channel": 2,
      "note": 57,
      "start": 7.5846,
      "duration": 0.0178,
      "velocity": 100,
      "chip": "ym2612"
    },
    {
      "channel": 1,
      "note": 105,
      "start": 7.5971,
      "duration": 0.012,
      "velocity": 105,
      "chip": "ym2612"
    },
    {
      "channel": 0,
      "note": 45,
      "start": 7.5987,
      "duration": 0.0124,
      "velocity": 115,
      "chip": "ym2612"
    },
    {
      "channel": 2,
      "note": 57,
      "start": 7.6025,
      "duration": 0.0121,
      "velocity": 100,
      "chip": "ym2612"
    },
    {
      "channel": 1,
      "note": 105,
      "start": 7.6091,
      "duration": 0.016,
      "velocity": 105,
      "chip": "ym2612"
    },
    {
      "channel": 0,
      "note": 46,
      "start": 7.6111,
      "duration": 0.0185,
      "velocity": 115,
      "chip": "ym2612"
    },
    {
      "channel": 2,
      "note": 57,
      "start": 7.6146,
      "duration": 0.0184,
      "velocity": 100,
      "chip": "ym2612"
    },
    {
      "channel": 1,
      "note": 105,
      "start": 7.6251,
      "duration": 0.0161,
      "velocity": 105,
      "chip": "ym2612"
    },
    {
      "channel": 0,
      "note": 46,
      "start": 7.6296,
      "duration": 0.0133,
      "velocity": 115,
      "chip": "ym2612"
    },
    {
      "channel": 2,
      "note": 57,
      "start": 7.633,
      "duration": 0.0161,
      "velocity": 100,
      "chip": "ym2612"
    },
    {
      "channel": 1,
      "note": 105,
      "start": 7.6412,
      "duration": 0.0161,
      "velocity": 105,
      "chip": "ym2612"
    },
    {
      "channel": 0,
      "note": 47,
      "start": 7.6429,
      "duration": 0.0161,
      "velocity": 115,
      "chip": "ym2612"
    },
    {
      "channel": 2,
      "note": 57,
      "start": 7.6491,
      "duration": 0.0157,
      "velocity": 100,
      "chip": "ym2612"
    },
    {
      "channel": 1,
      "note": 105,
      "start": 7.6573,
      "duration": 0.0162,
      "velocity": 105,
      "chip": "ym2612"
    },
    {
      "channel": 0,
      "note": 47,
      "start": 7.659,
      "duration": 0.0162,
      "velocity": 115,
      "chip": "ym2612"
    },
    {
      "channel": 2,
      "note": 57,
      "start": 7.6648,
      "duration": 0.0141,
      "velocity": 100,
      "chip": "ym2612"
    },
    {
      "channel": 1,
      "note": 105,
      "start": 7.6735,
      "duration": 0.0161,
      "velocity": 105,
      "chip": "ym2612"
    },
    {
      "channel": 0,
      "note": 47,
      "start": 7.6751,
      "duration": 0.0161,
      "velocity": 115,
      "chip": "ym2612"
    },
    {
      "channel": 2,
      "note": 57,
      "start": 7.6789,
      "duration": 0.0185,
      "velocity": 100,
      "chip": "ym2612"
    },
    {
      "channel": 1,
      "note": 105,
      "start": 7.6895,
      "duration": 0.0183,
      "velocity": 124,
      "chip": "ym2612"
    },
    {
      "channel": 0,
      "note": 48,
      "start": 7.6912,
      "duration": 0.0219,
      "velocity": 115,
      "chip": "ym2612"
    },
    {
      "channel": 2,
      "note": 57,
      "start": 7.6974,
      "duration": 0.0194,
      "velocity": 100,
      "chip": "ym2612"
    },
    {
      "channel": 1,
      "note": 78,
      "start": 7.7079,
      "duration": 0.0144,
      "velocity": 124,
      "chip": "ym2612"
    },
    {
      "channel": 0,
      "note": 48,
      "start": 7.7131,
      "duration": 0.0111,
      "velocity": 115,
      "chip": "ym2612"
    },
    {
      "channel": 2,
      "note": 57,
      "start": 7.7168,
      "duration": 0.0132,
      "velocity": 100,
      "chip": "ym2612"
    },
    {
      "channel": 1,
      "note": 76,
      "start": 7.7223,
      "duration": 0.016,
      "velocity": 124,
      "chip": "ym2612"
    },
    {
      "channel": 0,
      "note": 49,
      "start": 7.7242,
      "duration": 0.0152,
      "velocity": 1,
      "chip": "ym2612"
    },
    {
      "channel": 2,
      "note": 57,
      "start": 7.7301,
      "duration": 0.0128,
      "velocity": 100,
      "chip": "ym2612"
    },
    {
      "channel": 1,
      "note": 75,
      "start": 7.7383,
      "duration": 0.0161,
      "velocity": 124,
      "chip": "ym2612"
    },
    {
      "channel": 2,
      "note": 57,
      "start": 7.7429,
      "duration": 0.0153,
      "velocity": 100,
      "chip": "ym2612"
    },
    {
      "channel": 1,
      "note": 74,
      "start": 7.7544,
      "duration": 0.0161,
      "velocity": 124,
      "chip": "ym2612"
    },
    {
      "channel": 2,
      "note": 57,
      "start": 7.7581,
      "duration": 0.0161,
      "velocity": 100,
      "chip": "ym2612"
    },
    {
      "channel": 1,
      "note": 72,
      "start": 7.7705,
      "duration": 0.0161,
      "velocity": 124,
      "chip": "ym2612"
    },
    {
      "channel": 2,
      "note": 57,
      "start": 7.7742,
      "duration": 0.0161,
      "velocity": 100,
      "chip": "ym2612"
    },
    {
      "channel": 1,
      "note": 71,
      "start": 7.7866,
      "duration": 0.0161,
      "velocity": 124,
      "chip": "ym2612"
    },
    {
      "channel": 2,
      "note": 57,
      "start": 7.7903,
      "duration": 0.0161,
      "velocity": 100,
      "chip": "ym2612"
    },
    {
      "channel": 1,
      "note": 70,
      "start": 7.8027,
      "duration": 0.0161,
      "velocity": 124,
      "chip": "ym2612"
    },
    {
      "channel": 2,
      "note": 57,
      "start": 7.8064,
      "duration": 0.0169,
      "velocity": 100,
      "chip": "ym2612"
    },
    {
      "channel": 1,
      "note": 69,
      "start": 7.8188,
      "duration": 0.0161,
      "velocity": 124,
      "chip": "ym2612"
    },
    {
      "channel": 2,
      "note": 57,
      "start": 7.8233,
      "duration": 0.0154,
      "velocity": 100,
      "chip": "ym2612"
    },
    {
      "channel": 1,
      "note": 68,
      "start": 7.8349,
      "duration": 0.0161,
      "velocity": 124,
      "chip": "ym2612"
    },
    {
      "channel": 2,
      "note": 57,
      "start": 7.8387,
      "duration": 0.016,
      "velocity": 100,
      "chip": "ym2612"
    },
    {
      "channel": 1,
      "note": 66,
      "start": 7.8511,
      "duration": 0.0161,
      "velocity": 124,
      "chip": "ym2612"
    },
    {
      "channel": 2,
      "note": 57,
      "start": 7.8547,
      "duration": 0.0161,
      "velocity": 100,
      "chip": "ym2612"
    },
    {
      "channel": 1,
      "note": 65,
      "start": 7.8672,
      "duration": 0.0161,
      "velocity": 124,
      "chip": "ym2612"
    },
    {
      "channel": 2,
      "note": 57,
      "start": 7.8708,
      "duration": 0.0161,
      "velocity": 100,
      "chip": "ym2612"
    },
    {
      "channel": 1,
      "note": 64,
      "start": 7.8833,
      "duration": 0.0161,
      "velocity": 124,
      "chip": "ym2612"
    },
    {
      "channel": 2,
      "note": 57,
      "start": 7.8869,
      "duration": 0.0161,
      "velocity": 100,
      "chip": "ym2612"
    },
    {
      "channel": 1,
      "note": 62,
      "start": 7.8993,
      "duration": 0.0161,
      "velocity": 124,
      "chip": "ym2612"
    },
    {
      "channel": 2,
      "note": 57,
      "start": 7.903,
      "duration": 0.0162,
      "velocity": 100,
      "chip": "ym2612"
    },
    {
      "channel": 1,
      "note": 61,
      "start": 7.9154,
      "duration": 0.0161,
      "velocity": 124,
      "chip": "ym2612"
    },
    {
      "channel": 2,
      "note": 57,
      "start": 7.9191,
      "duration": 0.0168,
      "velocity": 100,
      "chip": "ym2612"
    },
    {
      "channel": 1,
      "note": 60,
      "start": 7.9315,
      "duration": 0.0161,
      "velocity": 124,
      "chip": "ym2612"
    },
    {
      "channel": 2,
      "note": 57,
      "start": 7.9361,
      "duration": 0.0153,
      "velocity": 100,
      "chip": "ym2612"
    },
    {
      "channel": 1,
      "note": 59,
      "start": 7.9476,
      "duration": 0.0168,
      "velocity": 124,
      "chip": "ym2612"
    },
    {
      "channel": 2,
      "note": 57,
      "start": 7.9514,
      "duration": 0.0167,
      "velocity": 100,
      "chip": "ym2612"
    },
    {
      "channel": 1,
      "note": 57,
      "start": 7.9644,
      "duration": 0.0167,
      "velocity": 124,
      "chip": "ym2612"
    },
    {
      "channel": 2,
      "note": 57,
      "start": 7.9681,
      "duration": 0.0167,
      "velocity": 100,
      "chip": "ym2612"
    },
    {
      "channel": 1,
      "note": 56,
      "start": 7.9812,
      "duration": 0.0163,
      "velocity": 124,
      "chip": "ym2612"
    },
    {
      "channel": 2,
      "note": 57,
      "start": 7.9848,
      "duration": 0.0163,
      "velocity": 100,
      "chip": "ym2612"
    },
    {
      "channel": 1,
      "note": 55,
      "start": 7.9974,
      "duration": 0.0147,
      "velocity": 124,
      "chip": "ym2612"
    },
    {
      "channel": 2,
      "note": 57,
      "start": 8.0011,
      "duration": 0.0148,
      "velocity": 100,
      "chip": "ym2612"
    },
    {
      "channel": 1,
      "note": 53,
      "start": 8.0121,
      "duration": 0.0188,
      "velocity": 124,
      "chip": "ym2612"
    },
    {
      "channel": 2,
      "note": 57,
      "start": 8.0158,
      "duration": 0.0188,
      "velocity": 100,
      "chip": "ym2612"
    },
    {
      "channel": 1,
      "note": 52,
      "start": 8.0309,
      "duration": 0.0161,
      "velocity": 124,
      "chip": "ym2612"
    },
    {
      "channel": 2,
      "note": 57,
      "start": 8.0346,
      "duration": 0.0203,
      "velocity": 100,
      "chip": "ym2612"
    },
    {
      "channel": 1,
      "note": 51,
      "start": 8.047,
      "duration": 0.0125,
      "velocity": 1,
      "chip": "ym2612"
    },
    {
      "channel": 0,
      "note": 36,
      "start": 8.0512,
      "duration": 0.0146,
      "velocity": 115,
      "chip": "ym2612"
    },
    {
      "channel": 2,
      "note": 57,
      "start": 8.0549,
      "duration": 0.0144,
      "velocity": 100,
      "chip": "ym2612"
    },
    {
      "channel": 1,
      "note": 51,
      "start": 8.0641,
      "duration": 0.0118,
      "velocity": 105,
      "chip": "ym2612"
    },
    {
      "channel": 0,
      "note": 36,
      "start": 8.0658,
      "duration": 0.0121,
      "velocity": 115,
      "chip": "ym2612"
    },
    {
      "channel": 2,
      "note": 57,
      "start": 8.0693,
      "duration": 0.0121,
      "velocity": 100,
      "chip": "ym2612"
    },
    {
      "channel": 1,
      "note": 105,
      "start": 8.0759,
      "duration": 0.0161,
      "velocity": 105,
      "chip": "ym2612"
    },
    {
      "channel": 0,
      "note": 37,
      "start": 8.0779,
      "duration": 0.0186,
      "velocity": 115,
      "chip": "ym2612"
    },
    {
      "channel": 2,
      "note": 57,
      "start": 8.0814,
      "duration": 0.0185,
      "velocity": 100,
      "chip": "ym2612"
    },
    {
      "channel": 1,
      "note": 105,
      "start": 8.092,
      "duration": 0.0161,
      "velocity": 105,
      "chip": "ym2612"
    },
    {
      "channel": 0,
      "note": 37,
      "start": 8.0965,
      "duration": 0.0161,
      "velocity": 115,
      "chip": "ym2612"
    },
    {
      "channel": 2,
      "note": 57,
      "start": 8.0999,
      "duration": 0.0161,
      "velocity": 100,
      "chip": "ym2612"
    },
    {
      "channel": 1,
      "note": 105,
      "start": 8.1081,
      "duration": 0.0162,
      "velocity": 105,
      "chip": "ym2612"
    },
    {
      "channel": 0,
      "note": 38,
      "start": 8.1126,
      "duration": 0.0134,
      "velocity": 115,
      "chip": "ym2612"
    },
    {
      "channel": 2,
      "note": 57,
      "start": 8.116,
      "duration": 0.0158,
      "velocity": 100,
      "chip": "ym2612"
    },
    {
      "channel": 1,
      "note": 105,
      "start": 8.1243,
      "duration": 0.0161,
      "velocity": 105,
      "chip": "ym2612"
    },
    {
      "channel": 0,
      "note": 38,
      "start": 8.1259,
      "duration": 0.0161,
      "velocity": 115,
      "chip": "ym2612"
    },
    {
      "channel": 2,
      "note": 57,
      "start": 8.1318,
      "duration": 0.014,
      "velocity": 100,
      "chip": "ym2612"
    },
    {
      "channel": 1,
      "note": 105,
      "start": 8.1404,
      "duration": 0.0178,
      "velocity": 124,
      "chip": "ym2612"
    },
    {
      "channel": 0,
      "note": 39,
      "start": 8.142,
      "duration": 0.0224,
      "velocity": 115,
      "chip": "ym2612"
    },
    {
      "channel": 2,
      "note": 57,
      "start": 8.1458,
      "duration": 0.0224,
      "velocity": 100,
      "chip": "ym2612"
    },
    {
      "channel": 1,
      "note": 64,
      "start": 8.1582,
      "duration": 0.0144,
      "velocity": 124,
      "chip": "ym2612"
    },
    {
      "channel": 0,
      "note": 36,
      "start": 8.1644,
      "duration": 0.0099,
      "velocity": 115,
      "chip": "ym2612"
    },
    {
      "channel": 2,
      "note": 57,
      "start": 8.1682,
      "duration": 0.0124,
      "velocity": 100,
      "chip": "ym2612"
    },
    {
      "channel": 1,
      "note": 64,
      "start": 8.1726,
      "duration": 0.016,
      "velocity": 124,
      "chip": "ym2612"
    },
    {
      "channel": 0,
      "note": 36,
      "start": 8.1744,
      "duration": 0.016,
      "velocity": 115,
      "chip": "ym2612"
    },
    {
      "channel": 2,
      "note": 57,
      "start": 8.1806,
      "duration": 0.0156,
      "velocity": 100,
      "chip": "ym2612"
    },
    {
      "channel": 1,
      "note": 64,
      "start": 8.1887,
      "duration": 0.0161,
      "velocity": 124,
      "chip": "ym2612"
    },
    {
      "channel": 0,
      "note": 37,
      "start": 8.1903,
      "duration": 0.0162,
      "velocity": 115,
      "chip": "ym2612"
    },
    {
      "channel": 2,
      "note": 57,
      "start": 8.1962,
      "duration": 0.0141,
      "velocity": 100,
      "chip": "ym2612"
    },
    {
      "channel": 1,
      "note": 64,
      "start": 8.2048,
      "duration": 0.0161,
      "velocity": 124,
      "chip": "ym2612"
    },
    {
      "channel": 0,
      "note": 37,
      "start": 8.2065,
      "duration": 0.0161,
      "velocity": 115,
      "chip": "ym2612"
    },
    {
      "channel": 2,
      "note": 57,
      "start": 8.2102,
      "duration": 0.0158,
      "velocity": 100,
      "chip": "ym2612"
    },
    {
      "channel": 1,
      "note": 64,
      "start": 8.2209,
      "duration": 0.0161,
      "velocity": 124,
      "chip": "ym2612"
    },
    {
      "channel": 0,
      "note": 38,
      "start": 8.2226,
      "duration": 0.0161,
      "velocity": 115,
      "chip": "ym2612"
    },
    {
      "channel": 2,
      "note": 57,
      "start": 8.226,
      "duration": 0.0161,
      "velocity": 100,
      "chip": "ym2612"
    },
    {
      "channel": 1,
      "note": 64,
      "start": 8.2369,
      "duration": 0.0162,
      "velocity": 124,
      "chip": "ym2612"
    },
    {
      "channel": 0,
      "note": 38,
      "start": 8.2387,
      "duration": 0.0161,
      "velocity": 115,
      "chip": "ym2612"
    },
    {
      "channel": 2,
      "note": 57,
      "start": 8.2421,
      "duration": 0.0161,
      "velocity": 100,
      "chip": "ym2612"
    },
    {
      "channel": 1,
      "note": 64,
      "start": 8.2531,
      "duration": 0.0178,
      "velocity": 105,
      "chip": "ym2612"
    },
    {
      "channel": 0,
      "note": 39,
      "start": 8.2548,
      "duration": 0.0178,
      "velocity": 115,
      "chip": "ym2612"
    },
    {
      "channel": 2,
      "note": 57,
      "start": 8.2582,
      "duration": 0.0181,
      "velocity": 100,
      "chip": "ym2612"
    },
    {
      "channel": 1,
      "note": 105,
      "start": 8.2709,
      "duration": 0.0144,
      "velocity": 105,
      "chip": "ym2612"
    },
    {
      "channel": 0,
      "note": 39,
      "start": 8.2726,
      "duration": 0.0144,
      "velocity": 115,
      "chip": "ym2612"
    },
    {
      "channel": 2,
      "note": 57,
      "start": 8.2763,
      "duration": 0.0142,
      "velocity": 100,
      "chip": "ym2612"
    },
    {
      "channel": 1,
      "note": 105,
      "start": 8.2853,
      "duration": 0.0161,
      "velocity": 105,
      "chip": "ym2612"
    },
    {
      "channel": 0,
      "note": 40,
      "start": 8.287,
      "duration": 0.016,
      "velocity": 115,
      "chip": "ym2612"
    },
    {
      "channel": 2,
      "note": 57,
      "start": 8.2905,
      "duration": 0.016,
      "velocity": 100,
      "chip": "ym2612"
    },
    {
      "channel": 1,
      "note": 105,
      "start": 8.3014,
      "duration": 0.0161,
      "velocity": 105,
      "chip": "ym2612"
    },
    {
      "channel": 0,
      "note": 40,
      "start": 8.303,
      "duration": 0.0161,
      "velocity": 115,
      "chip": "ym2612"
    },
    {
      "channel": 2,
      "note": 57,
      "start": 8.3065,
      "duration": 0.0161,
      "velocity": 100,
      "chip": "ym2612"
    },
    {
      "channel": 1,
      "note": 105,
      "start": 8.3175,
      "duration": 0.0161,
      "velocity": 105,
      "chip": "ym2612"
    },
    {
      "channel": 0,
      "note": 40,
      "start": 8.3191,
      "duration": 0.0161,
      "velocity": 115,
      "chip": "ym2612"
    },
    {
      "channel": 2,
      "note": 57,
      "start": 8.3226,
      "duration": 0.0161,
      "velocity": 100,
      "chip": "ym2612"
    },
    {
      "channel": 1,
      "note": 105,
      "start": 8.3336,
      "duration": 0.0161,
      "velocity": 105,
      "chip": "ym2612"
    },
    {
      "channel": 0,
      "note": 41,
      "start": 8.3352,
      "duration": 0.0161,
      "velocity": 115,
      "chip": "ym2612"
    },
    {
      "channel": 2,
      "note": 57,
      "start": 8.3387,
      "duration": 0.0161,
      "velocity": 100,
      "chip": "ym2612"
    },
    {
      "channel": 1,
      "note": 105,
      "start": 8.3497,
      "duration": 0.0161,
      "velocity": 105,
      "chip": "ym2612"
    },
    {
      "channel": 0,
      "note": 41,
      "start": 8.3513,
      "duration": 0.0161,
      "velocity": 115,
      "chip": "ym2612"
    },
    {
      "channel": 2,
      "note": 57,
      "start": 8.3548,
      "duration": 0.0161,
      "velocity": 100,
      "chip": "ym2612"
    },
    {
      "channel": 1,
      "note": 105,
      "start": 8.3658,
      "duration": 0.0178,
      "velocity": 124,
      "chip": "ym2612"
    },
    {
      "channel": 0,
      "note": 42,
      "start": 8.3674,
      "duration": 0.0179,
      "velocity": 115,
      "chip": "ym2612"
    },
    {
      "channel": 2,
      "note": 57,
      "start": 8.3709,
      "duration": 0.0181,
      "velocity": 100,
      "chip": "ym2612"
    },
    {
      "channel": 1,
      "note": 64,
      "start": 8.3836,
      "duration": 0.0144,
      "velocity": 124,
      "chip": "ym2612"
    },
    {
      "channel": 0,
      "note": 42,
      "start": 8.3853,
      "duration": 0.0144,
      "velocity": 115,
      "chip": "ym2612"
    },
    {
      "channel": 2,
      "note": 57,
      "start": 8.389,
      "duration": 0.0142,
      "velocity": 100,
      "chip": "ym2612"
    },
    {
      "channel": 1,
      "note": 64,
      "start": 8.398,
      "duration": 0.0161,
      "velocity": 124,
      "chip": "ym2612"
    },
    {
      "channel": 0,
      "note": 43,
      "start": 8.3997,
      "duration": 0.016,
      "velocity": 115,
      "chip": "ym2612"
    },
    {
      "channel": 2,
      "note": 57,
      "start": 8.4032,
      "duration": 0.016,
      "velocity": 100,
      "chip": "ym2612"
    },
    {
      "channel": 1,
      "note": 64,
      "start": 8.4141,
      "duration": 0.0166,
      "velocity": 124,
      "chip": "ym2612"
    },
    {
      "channel": 0,
      "note": 43,
      "start": 8.4158,
      "duration": 0.0166,
      "velocity": 115,
      "chip": "ym2612"
    },
    {
      "channel": 2,
      "note": 57,
      "start": 8.4192,
      "duration": 0.0165,
      "velocity": 100,
      "chip": "ym2612"
    },
    {
      "channel": 1,
      "note": 64,
      "start": 8.4307,
      "duration": 0.0167,
      "velocity": 124,
      "chip": "ym2612"
    },
    {
      "channel": 0,
      "note": 44,
      "start": 8.4323,
      "duration": 0.0167,
      "velocity": 115,
      "chip": "ym2612"
    },
    {
      "channel": 2,
      "note": 57,
      "start": 8.4357,
      "duration": 0.0167,
      "velocity": 100,
      "chip": "ym2612"
    },
    {
      "channel": 1,
      "note": 64,
      "start": 8.4473,
      "duration": 0.0163,
      "velocity": 124,
      "chip": "ym2612"
    },
    {
      "channel": 0,
      "note": 44,
      "start": 8.449,
      "duration": 0.0163,
      "velocity": 115,
      "chip": "ym2612"
    },
    {
      "channel": 2,
      "note": 57,
      "start": 8.4524,
      "duration": 0.0163,
      "velocity": 100,
      "chip": "ym2612"
    },
    {
      "channel": 1,
      "note": 64,
      "start": 8.4636,
      "duration": 0.0149,
      "velocity": 124,
      "chip": "ym2612"
    },
    {
      "channel": 0,
      "note": 44,
      "start": 8.4653,
      "duration": 0.0149,
      "velocity": 115,
      "chip": "ym2612"
    },
    {
      "channel": 2,
      "note": 57,
      "start": 8.4687,
      "duration": 0.0149,
      "velocity": 100,
      "chip": "ym2612"
    },
    {
      "channel": 1,
      "note": 64,
      "start": 8.4785,
      "duration": 0.0205,
      "velocity": 105,
      "chip": "ym2612"
    },
    {
      "channel": 0,
      "note": 45,
      "start": 8.4801,
      "duration": 0.0205,
      "velocity": 115,
      "chip": "ym2612"
    },
    {
      "channel": 2,
      "note": 57,
      "start": 8.4836,
      "duration": 0.0208,
      "velocity": 100,
      "chip": "ym2612"
    },
    {
      "channel": 1,
      "note": 105,
      "start": 8.499,
      "duration": 0.0144,
      "velocity": 105,
      "chip": "ym2612"
    },
    {
      "channel": 0,
      "note": 45,
      "start": 8.5007,
      "duration": 0.0144,
      "velocity": 115,
      "chip": "ym2612"
    },
    {
      "channel": 2,
      "note": 57,
      "start": 8.5044,
      "duration": 0.0142,
      "velocity": 100,
      "chip": "ym2612"
    },
    {
      "channel": 1,
      "note": 105,
      "start": 8.5135,
      "duration": 0.0157,
      "velocity": 105,
      "chip": "ym2612"
    },
    {
      "channel": 0,
      "note": 46,
      "start": 8.5151,
      "duration": 0.0157,
      "velocity": 115,
      "chip": "ym2612"
    },
    {
      "channel": 2,
      "note": 57,
      "start": 8.5186,
      "duration": 0.0156,
      "velocity": 100,
      "chip": "ym2612"
    },
    {
      "channel": 1,
      "note": 105,
      "start": 8.5292,
      "duration": 0.0137,
      "velocity": 105,
      "chip": "ym2612"
    },
    {
      "channel": 0,
      "note": 46,
      "start": 8.5308,
      "duration": 0.0141,
      "velocity": 115,
      "chip": "ym2612"
    },
    {
      "channel": 2,
      "note": 57,
      "start": 8.5343,
      "duration": 0.0141,
      "velocity": 100,
      "chip": "ym2612"
    },
    {
      "channel": 1,
      "note": 105,
      "start": 8.5429,
      "duration": 0.0162,
      "velocity": 105,
      "chip": "ym2612"
    },
    {
      "channel": 0,
      "note": 47,
      "start": 8.5449,
      "duration": 0.0185,
      "velocity": 115,
      "chip": "ym2612"
    },
    {
      "channel": 2,
      "note": 57,
      "start": 8.5483,
      "duration": 0.0185,
      "velocity": 100,
      "chip": "ym2612"
    },
    {
      "channel": 1,
      "note": 105,
      "start": 8.559,
      "duration": 0.0161,
      "velocity": 105,
      "chip": "ym2612"
    },
    {
      "channel": 0,
      "note": 47,
      "start": 8.5634,
      "duration": 0.0161,
      "velocity": 115,
      "chip": "ym2612"
    },
    {
      "channel": 2,
      "note": 57,
      "start": 8.5668,
      "duration": 0.0161,
      "velocity": 100,
      "chip": "ym2612"
    },
    {
      "channel": 1,
      "note": 105,
      "start": 8.5751,
      "duration": 0.0161,
      "velocity": 105,
      "chip": "ym2612"
    },
    {
      "channel": 0,
      "note": 47,
      "start": 8.5795,
      "duration": 0.0134,
      "velocity": 115,
      "chip": "ym2612"
    },
    {
      "channel": 2,
      "note": 57,
      "start": 8.5829,
      "duration": 0.0158,
      "velocity": 100,
      "chip": "ym2612"
    },
    {
      "channel": 1,
      "note": 105,
      "start": 8.5912,
      "duration": 0.0183,
      "velocity": 124,
      "chip": "ym2612"
    },
    {
      "channel": 0,
      "note": 48,
      "start": 8.5929,
      "duration": 0.0195,
      "velocity": 115,
      "chip": "ym2612"
    },
    {
      "channel": 2,
      "note": 57,
      "start": 8.5987,
      "duration": 0.0173,
      "velocity": 100,
      "chip": "ym2612"
    },
    {
      "channel": 1,
      "note": 78,
      "start": 8.6096,
      "duration": 0.0144,
      "velocity": 124,
      "chip": "ym2612"
    },
    {
      "channel": 0,
      "note": 48,
      "start": 8.6123,
      "duration": 0.0135,
      "velocity": 115,
      "chip": "ym2612"
    },
    {
      "channel": 2,
      "note": 57,
      "start": 8.6161,
      "duration": 0.016,
      "velocity": 100,
      "chip": "ym2612"
    },
    {
      "channel": 1,
      "note": 76,
      "start": 8.624,
      "duration": 0.016,
      "velocity": 124,
      "chip": "ym2612"
    },
    {
      "channel": 0,
      "note": 49,
      "start": 8.6259,
      "duration": 0.0152,
      "velocity": 1,
      "chip": "ym2612"
    },
    {
      "channel": 2,
      "note": 57,
      "start": 8.6321,
      "duration": 0.0151,
      "velocity": 100,
      "chip": "ym2612"
    },
    {
      "channel": 1,
      "note": 75,
      "start": 8.64,
      "duration": 0.0161,
      "velocity": 124,
      "chip": "ym2612"
    },
    {
      "channel": 2,
      "note": 57,
      "start": 8.6473,
      "duration": 0.0125,
      "velocity": 100,
      "chip": "ym2612"
    },
    {
      "channel": 1,
      "note": 74,
      "start": 8.6561,
      "duration": 0.0161,
      "velocity": 124,
      "chip": "ym2612"
    },
    {
      "channel": 2,
      "note": 57,
      "start": 8.6598,
      "duration": 0.0161,
      "velocity": 100,
      "chip": "ym2612"
    },
    {
      "channel": 1,
      "note": 72,
      "start": 8.6722,
      "duration": 0.0161,
      "velocity": 124,
      "chip": "ym2612"
    },
    {
      "channel": 2,
      "note": 57,
      "start": 8.6759,
      "duration": 0.0161,
      "velocity": 100,
      "chip": "ym2612"
    },
    {
      "channel": 1,
      "note": 71,
      "start": 8.6883,
      "duration": 0.0161,
      "velocity": 124,
      "chip": "ym2612"
    },
    {
      "channel": 2,
      "note": 57,
      "start": 8.692,
      "duration": 0.0161,
      "velocity": 100,
      "chip": "ym2612"
    },
    {
      "channel": 1,
      "note": 70,
      "start": 8.7044,
      "duration": 0.0161,
      "velocity": 124,
      "chip": "ym2612"
    },
    {
      "channel": 2,
      "note": 57,
      "start": 8.7081,
      "duration": 0.0169,
      "velocity": 100,
      "chip": "ym2612"
    },
    {
      "channel": 1,
      "note": 69,
      "start": 8.7205,
      "duration": 0.0161,
      "velocity": 124,
      "chip": "ym2612"
    },
    {
      "channel": 2,
      "note": 57,
      "start": 8.725,
      "duration": 0.0154,
      "velocity": 100,
      "chip": "ym2612"
    },
    {
      "channel": 1,
      "note": 68,
      "start": 8.7366,
      "duration": 0.0162,
      "velocity": 124,
      "chip": "ym2612"
    },
    {
      "channel": 2,
      "note": 57,
      "start": 8.7404,
      "duration": 0.016,
      "velocity": 100,
      "chip": "ym2612"
    },
    {
      "channel": 1,
      "note": 66,
      "start": 8.7527,
      "duration": 0.0161,
      "velocity": 124,
      "chip": "ym2612"
    },
    {
      "channel": 2,
      "note": 57,
      "start": 8.7563,
      "duration": 0.0161,
      "velocity": 100,
      "chip": "ym2612"
    },
    {
      "channel": 1,
      "note": 65,
      "start": 8.7688,
      "duration": 0.0161,
      "velocity": 124,
      "chip": "ym2612"
    },
    {
      "channel": 2,
      "note": 57,
      "start": 8.7724,
      "duration": 0.0161,
      "velocity": 100,
      "chip": "ym2612"
    },
    {
      "channel": 1,
      "note": 64,
      "start": 8.7849,
      "duration": 0.0161,
      "velocity": 124,
      "chip": "ym2612"
    },
    {
      "channel": 2,
      "note": 57,
      "start": 8.7886,
      "duration": 0.0161,
      "velocity": 100,
      "chip": "ym2612"
    },
    {
      "channel": 1,
      "note": 62,
      "start": 8.801,
      "duration": 0.0161,
      "velocity": 124,
      "chip": "ym2612"
    },
    {
      "channel": 2,
      "note": 57,
      "start": 8.8047,
      "duration": 0.0161,
      "velocity": 100,
      "chip": "ym2612"
    },
    {
      "channel": 1,
      "note": 61,
      "start": 8.8171,
      "duration": 0.0161,
      "velocity": 124,
      "chip": "ym2612"
    },
    {
      "channel": 2,
      "note": 57,
      "start": 8.8208,
      "duration": 0.0168,
      "velocity": 100,
      "chip": "ym2612"
    },
    {
      "channel": 1,
      "note": 60,
      "start": 8.8332,
      "duration": 0.0161,
      "velocity": 124,
      "chip": "ym2612"
    },
    {
      "channel": 2,
      "note": 50,
      "start": 8.8377,
      "duration": 0.0154,
      "velocity": 100,
      "chip": "ym2612"
    },
    {
      "channel": 1,
      "note": 59,
      "start": 8.8493,
      "duration": 0.0161,
      "velocity": 124,
      "chip": "ym2612"
    },
    {
      "channel": 2,
      "note": 50,
      "start": 8.8531,
      "duration": 0.016,
      "velocity": 100,
      "chip": "ym2612"
    },
    {
      "channel": 1,
      "note": 57,
      "start": 8.8654,
      "duration": 0.0161,
      "velocity": 124,
      "chip": "ym2612"
    },
    {
      "channel": 2,
      "note": 50,
      "start": 8.8691,
      "duration": 0.0161,
      "velocity": 100,
      "chip": "ym2612"
    },
    {
      "channel": 1,
      "note": 56,
      "start": 8.8815,
      "duration": 0.0163,
      "velocity": 124,
      "chip": "ym2612"
    },
    {
      "channel": 2,
      "note": 50,
      "start": 8.8852,
      "duration": 0.0163,
      "velocity": 100,
      "chip": "ym2612"
    },
    {
      "channel": 1,
      "note": 55,
      "start": 8.8978,
      "duration": 0.0167,
      "velocity": 124,
      "chip": "ym2612"
    },
    {
      "channel": 2,
      "note": 50,
      "start": 8.9015,
      "duration": 0.0167,
      "velocity": 100,
      "chip": "ym2612"
    },
    {
      "channel": 1,
      "note": 53,
      "start": 8.9144,
      "duration": 0.0163,
      "velocity": 124,
      "chip": "ym2612"
    },
    {
      "channel": 2,
      "note": 50,
      "start": 8.9181,
      "duration": 0.0163,
      "velocity": 100,
      "chip": "ym2612"
    },
    {
      "channel": 1,
      "note": 52,
      "start": 8.9308,
      "duration": 0.0151,
      "velocity": 124,
      "chip": "ym2612"
    },
    {
      "channel": 2,
      "note": 50,
      "start": 8.9344,
      "duration": 0.0194,
      "velocity": 100,
      "chip": "ym2612"
    },
    {
      "channel": 1,
      "note": 51,
      "start": 8.9459,
      "duration": 0.0178,
      "velocity": 1,
      "chip": "ym2612"
    },
    {
      "channel": 0,
      "note": 78,
      "start": 8.9502,
      "duration": 0.0174,
      "velocity": 127,
      "chip": "ym2612"
    },
    {
      "channel": 2,
      "note": 50,
      "start": 8.9539,
      "duration": 0.0172,
      "velocity": 100,
      "chip": "ym2612"
    },
    {
      "channel": 1,
      "note": 51,
      "start": 8.9658,
      "duration": 0.0145,
      "velocity": 105,
      "chip": "ym2612"
    },
    {
      "channel": 0,
      "note": 76,
      "start": 8.9676,
      "duration": 0.0145,
      "velocity": 127,
      "chip": "ym2612"
    },
    {
      "channel": 2,
      "note": 50,
      "start": 8.971,
      "duration": 0.0144,
      "velocity": 100,
      "chip": "ym2612"
    },
    {
      "channel": 1,
      "note": 105,
      "start": 8.9803,
      "duration": 0.0158,
      "velocity": 105,
      "chip": "ym2612"
    },
    {
      "channel": 0,
      "note": 75,
      "start": 8.982,
      "duration": 0.0157,
      "velocity": 127,
      "chip": "ym2612"
    },
    {
      "channel": 2,
      "note": 50,
      "start": 8.9855,
      "duration": 0.0157,
      "velocity": 100,
      "chip": "ym2612"
    },
    {
      "channel": 1,
      "note": 105,
      "start": 8.9961,
      "duration": 0.0138,
      "velocity": 105,
      "chip": "ym2612"
    },
    {
      "channel": 0,
      "note": 73,
      "start": 8.9978,
      "duration": 0.0141,
      "velocity": 127,
      "chip": "ym2612"
    },
    {
      "channel": 2,
      "note": 50,
      "start": 9.0012,
      "duration": 0.0141,
      "velocity": 100,
      "chip": "ym2612"
    },
    {
      "channel": 1,
      "note": 105,
      "start": 9.0099,
      "duration": 0.016,
      "velocity": 105,
      "chip": "ym2612"
    },
    {
      "channel": 0,
      "note": 71,
      "start": 9.0118,
      "duration": 0.0185,
      "velocity": 127,
      "chip": "ym2612"
    },
    {
      "channel": 2,
      "note": 50,
      "start": 9.0153,
      "duration": 0.0185,
      "velocity": 100,
      "chip": "ym2612"
    },
    {
      "channel": 1,
      "note": 105,
      "start": 9.0259,
      "duration": 0.0161,
      "velocity": 105,
      "chip": "ym2612"
    },
    {
      "channel": 0,
      "note": 70,
      "start": 9.0303,
      "duration": 0.0161,
      "velocity": 127,
      "chip": "ym2612"
    },
    {
      "channel": 2,
      "note": 50,
      "start": 9.0338,
      "duration": 0.0161,
      "velocity": 100,
      "chip": "ym2612"
    },
    {
      "channel": 1,
      "note": 105,
      "start": 9.042,
      "duration": 0.0202,
      "velocity": 124,
      "chip": "ym2612"
    },
    {
      "channel": 0,
      "note": 68,
      "start": 9.0464,
      "duration": 0.0193,
      "velocity": 115,
      "chip": "ym2612"
    },
    {
      "channel": 2,
      "note": 50,
      "start": 9.0499,
      "duration": 0.0195,
      "velocity": 100,
      "chip": "ym2612"
    },
    {
      "channel": 1,
      "note": 64,
      "start": 9.0623,
      "duration": 0.012,
      "velocity": 124,
      "chip": "ym2612"
    },
    {
      "channel": 0,
      "note": 36,
      "start": 9.0657,
      "duration": 0.0103,
      "velocity": 115,
      "chip": "ym2612"
    },
    {
      "channel": 2,
      "note": 52,
      "start": 9.0695,
      "duration": 0.0104,
      "velocity": 100,
      "chip": "ym2612"
    },
    {
      "channel": 1,
      "note": 64,
      "start": 9.0743,
      "duration": 0.016,
      "velocity": 124,
      "chip": "ym2612"
    },
    {
      "channel": 0,
      "note": 36,
      "start": 9.076,
      "duration": 0.016,
      "velocity": 115,
      "chip": "ym2612"
    },
    {
      "channel": 2,
      "note": 52,
      "start": 9.0798,
      "duration": 0.0184,
      "velocity": 100,
      "chip": "ym2612"
    },
    {
      "channel": 1,
      "note": 64,
      "start": 9.0903,
      "duration": 0.0161,
      "velocity": 124,
      "chip": "ym2612"
    },
    {
      "channel": 0,
      "note": 37,
      "start": 9.092,
      "duration": 0.0161,
      "velocity": 115,
      "chip": "ym2612"
    },
    {
      "channel": 2,
      "note": 52,
      "start": 9.0982,
      "duration": 0.0161,
      "velocity": 100,
      "chip": "ym2612"
    },
    {
      "channel": 1,
      "note": 64,
      "start": 9.1064,
      "duration": 0.0161,
      "velocity": 124,
      "chip": "ym2612"
    },
    {
      "channel": 0,
      "note": 37,
      "start": 9.1081,
      "duration": 0.0161,
      "velocity": 115,
      "chip": "ym2612"
    },
    {
      "channel": 2,
      "note": 52,
      "start": 9.1143,
      "duration": 0.0157,
      "velocity": 100,
      "chip": "ym2612"
    },
    {
      "channel": 1,
      "note": 64,
      "start": 9.1225,
      "duration": 0.0161,
      "velocity": 124,
      "chip": "ym2612"
    },
    {
      "channel": 0,
      "note": 38,
      "start": 9.1242,
      "duration": 0.0161,
      "velocity": 115,
      "chip": "ym2612"
    },
    {
      "channel": 2,
      "note": 52,
      "start": 9.13,
      "duration": 0.0141,
      "velocity": 100,
      "chip": "ym2612"
    },
    {
      "channel": 1,
      "note": 64,
      "start": 9.1386,
      "duration": 0.0162,
      "velocity": 124,
      "chip": "ym2612"
    },
    {
      "channel": 0,
      "note": 38,
      "start": 9.1403,
      "duration": 0.0161,
      "velocity": 115,
      "chip": "ym2612"
    },
    {
      "channel": 2,
      "note": 52,
      "start": 9.1441,
      "duration": 0.0185,
      "velocity": 100,
      "chip": "ym2612"
    },
    {
      "channel": 1,
      "note": 64,
      "start": 9.1548,
      "duration": 0.0177,
      "velocity": 105,
      "chip": "ym2612"
    },
    {
      "channel": 0,
      "note": 39,
      "start": 9.1564,
      "duration": 0.0178,
      "velocity": 115,
      "chip": "ym2612"
    },
    {
      "channel": 2,
      "note": 52,
      "start": 9.1626,
      "duration": 0.0183,
      "velocity": 100,
      "chip": "ym2612"
    },
    {
      "channel": 1,
      "note": 105,
      "start": 9.1726,
      "duration": 0.0144,
      "velocity": 105,
      "chip": "ym2612"
    },
    {
      "channel": 0,
      "note": 39,
      "start": 9.1742,
      "duration": 0.0144,
      "velocity": 115,
      "chip": "ym2612"
    },
    {
      "channel": 2,
      "note": 52,
      "start": 9.1809,
      "duration": 0.0113,
      "velocity": 100,
      "chip": "ym2612"
    },
    {
      "channel": 1,
      "note": 105,
      "start": 9.187,
      "duration": 0.016,
      "velocity": 105,
      "chip": "ym2612"
    },
    {
      "channel": 0,
      "note": 40,
      "start": 9.1887,
      "duration": 0.016,
      "velocity": 115,
      "chip": "ym2612"
    },
    {
      "channel": 2,
      "note": 52,
      "start": 9.1922,
      "duration": 0.0159,
      "velocity": 100,
      "chip": "ym2612"
    },
    {
      "channel": 1,
      "note": 105,
      "start": 9.203,
      "duration": 0.0161,
      "velocity": 105,
      "chip": "ym2612"
    },
    {
      "channel": 0,
      "note": 40,
      "start": 9.2047,
      "duration": 0.0161,
      "velocity": 115,
      "chip": "ym2612"
    },
    {
      "channel": 2,
      "note": 52,
      "start": 9.2081,
      "duration": 0.0161,
      "velocity": 100,
      "chip": "ym2612"
    },
    {
      "channel": 1,
      "note": 105,
      "start": 9.2191,
      "duration": 0.0161,
      "velocity": 105,
      "chip": "ym2612"
    },
    {
      "channel": 0,
      "note": 40,
      "start": 9.2208,
      "duration": 0.0161,
      "velocity": 115,
      "chip": "ym2612"
    },
    {
      "channel": 2,
      "note": 52,
      "start": 9.2242,
      "duration": 0.0161,
      "velocity": 100,
      "chip": "ym2612"
    },
    {
      "channel": 1,
      "note": 105,
      "start": 9.2352,
      "duration": 0.0161,
      "velocity": 105,
      "chip": "ym2612"
    },
    {
      "channel": 0,
      "note": 41,
      "start": 9.2369,
      "duration": 0.0161,
      "velocity": 115,
      "chip": "ym2612"
    },
    {
      "channel": 2,
      "note": 52,
      "start": 9.2403,
      "duration": 0.0161,
      "velocity": 100,
      "chip": "ym2612"
    },
    {
      "channel": 1,
      "note": 105,
      "start": 9.2513,
      "duration": 0.0161,
      "velocity": 105,
      "chip": "ym2612"
    },
    {
      "channel": 0,
      "note": 41,
      "start": 9.253,
      "duration": 0.0161,
      "velocity": 115,
      "chip": "ym2612"
    },
    {
      "channel": 2,
      "note": 52,
      "start": 9.2564,
      "duration": 0.0161,
      "velocity": 100,
      "chip": "ym2612"
    },
    {
      "channel": 1,
      "note": 105,
      "start": 9.2674,
      "duration": 0.0178,
      "velocity": 124,
      "chip": "ym2612"
    },
    {
      "channel": 0,
      "note": 42,
      "start": 9.2691,
      "duration": 0.0179,
      "velocity": 115,
      "chip": "ym2612"
    },
    {
      "channel": 2,
      "note": 52,
      "start": 9.2725,
      "duration": 0.0184,
      "velocity": 100,
      "chip": "ym2612"
    },
    {
      "channel": 1,
      "note": 64,
      "start": 9.2853,
      "duration": 0.0144,
      "velocity": 124,
      "chip": "ym2612"
    },
    {
      "channel": 0,
      "note": 42,
      "start": 9.2869,
      "duration": 0.0144,
      "velocity": 115,
      "chip": "ym2612"
    },
    {
      "channel": 2,
      "note": 52,
      "start": 9.2909,
      "duration": 0.0141,
      "velocity": 100,
      "chip": "ym2612"
    },
    {
      "channel": 1,
      "note": 64,
      "start": 9.2997,
      "duration": 0.016,
      "velocity": 124,
      "chip": "ym2612"
    },
    {
      "channel": 0,
      "note": 43,
      "start": 9.3014,
      "duration": 0.016,
      "velocity": 115,
      "chip": "ym2612"
    },
    {
      "channel": 2,
      "note": 52,
      "start": 9.3049,
      "duration": 0.0159,
      "velocity": 100,
      "chip": "ym2612"
    },
    {
      "channel": 1,
      "note": 64,
      "start": 9.3158,
      "duration": 0.0161,
      "velocity": 124,
      "chip": "ym2612"
    },
    {
      "channel": 0,
      "note": 43,
      "start": 9.3174,
      "duration": 0.0161,
      "velocity": 115,
      "chip": "ym2612"
    },
    {
      "channel": 2,
      "note": 52,
      "start": 9.3209,
      "duration": 0.0161,
      "velocity": 100,
      "chip": "ym2612"
    },
    {
      "channel": 1,
      "note": 64,
      "start": 9.3319,
      "duration": 0.0161,
      "velocity": 124,
      "chip": "ym2612"
    },
    {
      "channel": 0,
      "note": 44,
      "start": 9.3335,
      "duration": 0.0161,
      "velocity": 115,
      "chip": "ym2612"
    },
    {
      "channel": 2,
      "note": 52,
      "start": 9.3369,
      "duration": 0.0161,
      "velocity": 100,
      "chip": "ym2612"
    },
    {
      "channel": 1,
      "note": 64,
      "start": 9.348,
      "duration": 0.0161,
      "velocity": 124,
      "chip": "ym2612"
    },
    {
      "channel": 0,
      "note": 44,
      "start": 9.3496,
      "duration": 0.0161,
      "velocity": 115,
      "chip": "ym2612"
    },
    {
      "channel": 2,
      "note": 52,
      "start": 9.353,
      "duration": 0.0161,
      "velocity": 100,
      "chip": "ym2612"
    },
    {
      "channel": 1,
      "note": 64,
      "start": 9.364,
      "duration": 0.0166,
      "velocity": 124,
      "chip": "ym2612"
    },
    {
      "channel": 0,
      "note": 44,
      "start": 9.3657,
      "duration": 0.0166,
      "velocity": 115,
      "chip": "ym2612"
    },
    {
      "channel": 2,
      "note": 52,
      "start": 9.3691,
      "duration": 0.0166,
      "velocity": 100,
      "chip": "ym2612"
    },
    {
      "channel": 1,
      "note": 64,
      "start": 9.3807,
      "duration": 0.0179,
      "velocity": 105,
      "chip": "ym2612"
    },
    {
      "channel": 0,
      "note": 45,
      "start": 9.3823,
      "duration": 0.018,
      "velocity": 115,
      "chip": "ym2612"
    },
    {
      "channel": 2,
      "note": 52,
      "start": 9.3857,
      "duration": 0.0183,
      "velocity": 100,
      "chip": "ym2612"
    },
    {
      "channel": 1,
      "note": 105,
      "start": 9.3986,
      "duration": 0.0137,
      "velocity": 105,
      "chip": "ym2612"
    },
    {
      "channel": 0,
      "note": 45,
      "start": 9.4003,
      "duration": 0.0137,
      "velocity": 115,
      "chip": "ym2612"
    },
    {
      "channel": 2,
      "note": 52,
      "start": 9.4041,
      "duration": 0.0135,
      "velocity": 100,
      "chip": "ym2612"
    },
    {
      "channel": 1,
      "note": 105,
      "start": 9.4124,
      "duration": 0.0183,
      "velocity": 105,
      "chip": "ym2612"
    },
    {
      "channel": 0,
      "note": 46,
      "start": 9.414,
      "duration": 0.0183,
      "velocity": 115,
      "chip": "ym2612"
    },
    {
      "channel": 2,
      "note": 52,
      "start": 9.4176,
      "duration": 0.0182,
      "velocity": 100,
      "chip": "ym2612"
    },
    {
      "channel": 1,
      "note": 105,
      "start": 9.4307,
      "duration": 0.0167,
      "velocity": 105,
      "chip": "ym2612"
    },
    {
      "channel": 0,
      "note": 46,
      "start": 9.4323,
      "duration": 0.0167,
      "velocity": 115,
      "chip": "ym2612"
    },
    {
      "channel": 2,
      "note": 52,
      "start": 9.4357,
      "duration": 0.0167,
      "velocity": 100,
      "chip": "ym2612"
    },
    {
      "channel": 1,
      "note": 105,
      "start": 9.4473,
      "duration": 0.0157,
      "velocity": 105,
      "chip": "ym2612"
    },
    {
      "channel": 0,
      "note": 47,
      "start": 9.449,
      "duration": 0.0157,
      "velocity": 115,
      "chip": "ym2612"
    },
    {
      "channel": 2,
      "note": 52,
      "start": 9.4524,
      "duration": 0.0157,
      "velocity": 100,
      "chip": "ym2612"
    },
    {
      "channel": 1,
      "note": 105,
      "start": 9.463,
      "duration": 0.0141,
      "velocity": 105,
      "chip": "ym2612"
    },
    {
      "channel": 0,
      "note": 47,
      "start": 9.4647,
      "duration": 0.0141,
      "velocity": 115,
      "chip": "ym2612"
    },
    {
      "channel": 2,
      "note": 52,
      "start": 9.4681,
      "duration": 0.0141,
      "velocity": 100,
      "chip": "ym2612"
    },
    {
      "channel": 1,
      "note": 105,
      "start": 9.4771,
      "duration": 0.0158,
      "velocity": 105,
      "chip": "ym2612"
    },
    {
      "channel": 0,
      "note": 47,
      "start": 9.4787,
      "duration": 0.0185,
      "velocity": 115,
      "chip": "ym2612"
    },
    {
      "channel": 2,
      "note": 52,
      "start": 9.4822,
      "duration": 0.0185,
      "velocity": 100,
      "chip": "ym2612"
    },
    {
      "channel": 1,
      "note": 105,
      "start": 9.4929,
      "duration": 0.0211,
      "velocity": 124,
      "chip": "ym2612"
    },
    {
      "channel": 0,
      "note": 48,
      "start": 9.4973,
      "duration": 0.0191,
      "velocity": 115,
      "chip": "ym2612"
    },
    {
      "channel": 2,
      "note": 52,
      "start": 9.5007,
      "duration": 0.0194,
      "velocity": 100,
      "chip": "ym2612"
    },
    {
      "channel": 1,
      "note": 78,
      "start": 9.514,
      "duration": 0.0116,
      "velocity": 124,
      "chip": "ym2612"
    },
    {
      "channel": 0,
      "note": 48,
      "start": 9.5164,
      "duration": 0.0135,
      "velocity": 115,
      "chip": "ym2612"
    },
    {
      "channel": 2,
      "note": 52,
      "start": 9.5202,
      "duration": 0.0132,
      "velocity": 100,
      "chip": "ym2612"
    },
    {
      "channel": 1,
      "note": 76,
      "start": 9.5256,
      "duration": 0.016,
      "velocity": 124,
      "chip": "ym2612"
    },
    {
      "channel": 0,
      "note": 49,
      "start": 9.5299,
      "duration": 0.0129,
      "velocity": 1,
      "chip": "ym2612"
    },
    {
      "channel": 2,
      "note": 52,
      "start": 9.5334,
      "duration": 0.0131,
      "velocity": 100,
      "chip": "ym2612"
    },
    {
      "channel": 1,
      "note": 75,
      "start": 9.5417,
      "duration": 0.0161,
      "velocity": 124,
      "chip": "ym2612"
    },
    {
      "channel": 2,
      "note": 52,
      "start": 9.5465,
      "duration": 0.0177,
      "velocity": 100,
      "chip": "ym2612"
    },
    {
      "channel": 1,
      "note": 74,
      "start": 9.5578,
      "duration": 0.0161,
      "velocity": 124,
      "chip": "ym2612"
    },
    {
      "channel": 2,
      "note": 52,
      "start": 9.5642,
      "duration": 0.0161,
      "velocity": 100,
      "chip": "ym2612"
    },
    {
      "channel": 1,
      "note": 72,
      "start": 9.5738,
      "duration": 0.0161,
      "velocity": 124,
      "chip": "ym2612"
    },
    {
      "channel": 2,
      "note": 52,
      "start": 9.5803,
      "duration": 0.0157,
      "velocity": 100,
      "chip": "ym2612"
    },
    {
      "channel": 1,
      "note": 71,
      "start": 9.5899,
      "duration": 0.0161,
      "velocity": 124,
      "chip": "ym2612"
    },
    {
      "channel": 2,
      "note": 52,
      "start": 9.596,
      "duration": 0.0137,
      "velocity": 100,
      "chip": "ym2612"
    },
    {
      "channel": 1,
      "note": 70,
      "start": 9.606,
      "duration": 0.0161,
      "velocity": 124,
      "chip": "ym2612"
    },
    {
      "channel": 2,
      "note": 52,
      "start": 9.6097,
      "duration": 0.0196,
      "velocity": 100,
      "chip": "ym2612"
    },
    {
      "channel": 1,
      "note": 69,
      "start": 9.6222,
      "duration": 0.0161,
      "velocity": 124,
      "chip": "ym2612"
    },
    {
      "channel": 2,
      "note": 52,
      "start": 9.6294,
      "duration": 0.0126,
      "velocity": 100,
      "chip": "ym2612"
    },
    {
      "channel": 1,
      "note": 68,
      "start": 9.6383,
      "duration": 0.0161,
      "velocity": 124,
      "chip": "ym2612"
    },
    {
      "channel": 2,
      "note": 52,
      "start": 9.642,
      "duration": 0.016,
      "velocity": 100,
      "chip": "ym2612"
    },
    {
      "channel": 1,
      "note": 66,
      "start": 9.6544,
      "duration": 0.0161,
      "velocity": 124,
      "chip": "ym2612"
    },
    {
      "channel": 2,
      "note": 52,
      "start": 9.658,
      "duration": 0.0161,
      "velocity": 100,
      "chip": "ym2612"
    },
    {
      "channel": 1,
      "note": 65,
      "start": 9.6705,
      "duration": 0.0161,
      "velocity": 124,
      "chip": "ym2612"
    },
    {
      "channel": 2,
      "note": 52,
      "start": 9.6741,
      "duration": 0.0161,
      "velocity": 100,
      "chip": "ym2612"
    },
    {
      "channel": 1,
      "note": 64,
      "start": 9.6866,
      "duration": 0.0161,
      "velocity": 124,
      "chip": "ym2612"
    },
    {
      "channel": 2,
      "note": 52,
      "start": 9.6902,
      "duration": 0.0161,
      "velocity": 100,
      "chip": "ym2612"
    },
    {
      "channel": 1,
      "note": 62,
      "start": 9.7027,
      "duration": 0.0161,
      "velocity": 124,
      "chip": "ym2612"
    },
    {
      "channel": 2,
      "note": 52,
      "start": 9.7063,
      "duration": 0.0161,
      "velocity": 100,
      "chip": "ym2612"
    },
    {
      "channel": 1,
      "note": 61,
      "start": 9.7188,
      "duration": 0.0161,
      "velocity": 124,
      "chip": "ym2612"
    },
    {
      "channel": 2,
      "note": 52,
      "start": 9.7224,
      "duration": 0.0168,
      "velocity": 100,
      "chip": "ym2612"
    },
    {
      "channel": 1,
      "note": 60,
      "start": 9.7349,
      "duration": 0.0161,
      "velocity": 124,
      "chip": "ym2612"
    },
    {
      "channel": 2,
      "note": 52,
      "start": 9.7394,
      "duration": 0.0154,
      "velocity": 100,
      "chip": "ym2612"
    },
    {
      "channel": 1,
      "note": 59,
      "start": 9.7509,
      "duration": 0.0161,
      "velocity": 124,
      "chip": "ym2612"
    },
    {
      "channel": 2,
      "note": 52,
      "start": 9.7548,
      "duration": 0.016,
      "velocity": 100,
      "chip": "ym2612"
    },
    {
      "channel": 1,
      "note": 57,
      "start": 9.767,
      "duration": 0.0162,
      "velocity": 124,
      "chip": "ym2612"
    },
    {
      "channel": 2,
      "note": 52,
      "start": 9.7707,
      "duration": 0.0161,
      "velocity": 100,
      "chip": "ym2612"
    },
    {
      "channel": 1,
      "note": 56,
      "start": 9.7832,
      "duration": 0.0161,
      "velocity": 124,
      "chip": "ym2612"
    },
    {
      "channel": 2,
      "note": 52,
      "start": 9.7868,
      "duration": 0.0161,
      "velocity": 100,
      "chip": "ym2612"
    },
    {
      "channel": 1,
      "note": 55,
      "start": 9.7993,
      "duration": 0.0161,
      "velocity": 124,
      "chip": "ym2612"
    },
    {
      "channel": 2,
      "note": 52,
      "start": 9.8029,
      "duration": 0.0162,
      "velocity": 100,
      "chip": "ym2612"
    },
    {
      "channel": 1,
      "note": 53,
      "start": 9.8154,
      "duration": 0.0161,
      "velocity": 124,
      "chip": "ym2612"
    },
    {
      "channel": 2,
      "note": 52,
      "start": 9.8191,
      "duration": 0.0161,
      "velocity": 100,
      "chip": "ym2612"
    },
    {
      "channel": 1,
      "note": 52,
      "start": 9.8315,
      "duration": 0.0163,
      "velocity": 124,
      "chip": "ym2612"
    },
    {
      "channel": 2,
      "note": 52,
      "start": 9.8352,
      "duration": 0.0205,
      "velocity": 100,
      "chip": "ym2612"
    },
    {
      "channel": 1,
      "note": 51,
      "start": 9.8478,
      "duration": 0.0155,
      "velocity": 1,
      "chip": "ym2612"
    },
    {
      "channel": 0,
      "note": 36,
      "start": 9.852,
      "duration": 0.0152,
      "velocity": 115,
      "chip": "ym2612"
    },
    {
      "channel": 2,
      "note": 52,
      "start": 9.8558,
      "duration": 0.0149,
      "velocity": 100,
      "chip": "ym2612"
    },
    {
      "channel": 1,
      "note": 51,
      "start": 9.8654,
      "duration": 0.0139,
      "velocity": 105,
      "chip": "ym2612"
    },
    {
      "channel": 0,
      "note": 36,
      "start": 9.8672,
      "duration": 0.0138,
      "velocity": 115,
      "chip": "ym2612"
    },
    {
      "channel": 2,
      "note": 52,
      "start": 9.8707,
      "duration": 0.0137,
      "velocity": 100,
      "chip": "ym2612"
    },
    {
      "channel": 1,
      "note": 105,
      "start": 9.8793,
      "duration": 0.0179,
      "velocity": 105,
      "chip": "ym2612"
    },
    {
      "channel": 0,
      "note": 37,
      "start": 9.881,
      "duration": 0.018,
      "velocity": 115,
      "chip": "ym2612"
    },
    {
      "channel": 2,
      "note": 52,
      "start": 9.8844,
      "duration": 0.018,
      "velocity": 100,
      "chip": "ym2612"
    },
    {
      "channel": 1,
      "note": 105,
      "start": 9.8973,
      "duration": 0.0167,
      "velocity": 105,
      "chip": "ym2612"
    },
    {
      "channel": 0,
      "note": 37,
      "start": 9.899,
      "duration": 0.0167,
      "velocity": 115,
      "chip": "ym2612"
    },
    {
      "channel": 2,
      "note": 52,
      "start": 9.9024,
      "duration": 0.0167,
      "velocity": 100,
      "chip": "ym2612"
    },
    {
      "channel": 1,
      "note": 105,
      "start": 9.914,
      "duration": 0.016,
      "velocity": 105,
      "chip": "ym2612"
    },
    {
      "channel": 0,
      "note": 38,
      "start": 9.9156,
      "duration": 0.016,
      "velocity": 115,
      "chip": "ym2612"
    },
    {
      "channel": 2,
      "note": 52,
      "start": 9.9191,
      "duration": 0.016,
      "velocity": 100,
      "chip": "ym2612"
    },
    {
      "channel": 1,
      "note": 105,
      "start": 9.93,
      "duration": 0.0141,
      "velocity": 105,
      "chip": "ym2612"
    },
    {
      "channel": 0,
      "note": 38,
      "start": 9.9316,
      "duration": 0.0141,
      "velocity": 115,
      "chip": "ym2612"
    },
    {
      "channel": 2,
      "note": 52,
      "start": 9.935,
      "duration": 0.0141,
      "velocity": 100,
      "chip": "ym2612"
    },
    {
      "channel": 1,
      "note": 105,
      "start": 9.944,
      "duration": 0.0202,
      "velocity": 124,
      "chip": "ym2612"
    },
    {
      "channel": 0,
      "note": 39,
      "start": 9.9457,
      "duration": 0.0221,
      "velocity": 115,
      "chip": "ym2612"
    },
    {
      "channel": 2,
      "note": 52,
      "start": 9.9491,
      "duration": 0.0224,
      "velocity": 100,
      "chip": "ym2612"
    },
    {
      "channel": 1,
      "note": 64,
      "start": 9.9643,
      "duration": 0.0116,
      "velocity": 124,
      "chip": "ym2612"
    },
    {
      "channel": 0,
      "note": 36,
      "start": 9.9677,
      "duration": 0.0127,
      "velocity": 115,
      "chip": "ym2612"
    },
    {
      "channel": 2,
      "note": 52,
      "start": 9.9715,
      "duration": 0.0124,
      "velocity": 100,
      "chip": "ym2612"
    },
    {
      "channel": 1,
      "note": 64,
      "start": 9.9759,
      "duration": 0.016,
      "velocity": 124,
      "chip": "ym2612"
    },
    {
      "channel": 0,
      "note": 36,
      "start": 9.9805,
      "duration": 0.0156,
      "velocity": 115,
      "chip": "ym2612"
    },
    {
      "channel": 2,
      "note": 52,
      "start": 9.9839,
      "duration": 0.0155,
      "velocity": 100,
      "chip": "ym2612"
    },
    {
      "channel": 1,
      "note": 64,
      "start": 9.992,
      "duration": 0.0161,
      "velocity": 124,
      "chip": "ym2612"
    },
    {
      "channel": 0,
      "note": 37,
      "start": 9.996,
      "duration": 0.0137,
      "velocity": 115,
      "chip": "ym2612"
    },
    {
      "channel": 2,
      "note": 52,
      "start": 9.9995,
      "duration": 0.0141,
      "velocity": 100,
      "chip": "ym2612"
    },
    {
      "channel": 1,
      "note": 64,
      "start": 10.0081,
      "duration": 0.0161,
      "velocity": 124,
      "chip": "ym2612"
    },
    {
      "channel": 0,
      "note": 37,
      "start": 10.0098,
      "duration": 0.0161,
      "velocity": 115,
      "chip": "ym2612"
    },
    {
      "channel": 2,
      "note": 52,
      "start": 10.0135,
      "duration": 0.0185,
      "velocity": 100,
      "chip": "ym2612"
    },
    {
      "channel": 1,
      "note": 64,
      "start": 10.0242,
      "duration": 0.0161,
      "velocity": 124,
      "chip": "ym2612"
    },
    {
      "channel": 0,
      "note": 38,
      "start": 10.0259,
      "duration": 0.0161,
      "velocity": 115,
      "chip": "ym2612"
    },
    {
      "channel": 2,
      "note": 52,
      "start": 10.032,
      "duration": 0.0161,
      "velocity": 100,
      "chip": "ym2612"
    },
    {
      "channel": 1,
      "note": 64,
      "start": 10.0403,
      "duration": 0.0161,
      "velocity": 124,
      "chip": "ym2612"
    },
    {
      "channel": 0,
      "note": 38,
      "start": 10.042,
      "duration": 0.0161,
      "velocity": 115,
      "chip": "ym2612"
    },
    {
      "channel": 2,
      "note": 52,
      "start": 10.0481,
      "duration": 0.0158,
      "velocity": 100,
      "chip": "ym2612"
    },
    {
      "channel": 1,
      "note": 64,
      "start": 10.0564,
      "duration": 0.0177,
      "velocity": 105,
      "chip": "ym2612"
    },
    {
      "channel": 0,
      "note": 39,
      "start": 10.0581,
      "duration": 0.0178,
      "velocity": 115,
      "chip": "ym2612"
    },
    {
      "channel": 2,
      "note": 52,
      "start": 10.0639,
      "duration": 0.016,
      "velocity": 100,
      "chip": "ym2612"
    },
    {
      "channel": 1,
      "note": 105,
      "start": 10.0742,
      "duration": 0.0144,
      "velocity": 105,
      "chip": "ym2612"
    },
    {
      "channel": 0,
      "note": 39,
      "start": 10.0759,
      "duration": 0.0144,
      "velocity": 115,
      "chip": "ym2612"
    },
    {
      "channel": 2,
      "note": 52,
      "start": 10.08,
      "duration": 0.0166,
      "velocity": 100,
      "chip": "ym2612"
    },
    {
      "channel": 1,
      "note": 105,
      "start": 10.0887,
      "duration": 0.016,
      "velocity": 105,
      "chip": "ym2612"
    },
    {
      "channel": 0,
      "note": 40,
      "start": 10.0903,
      "duration": 0.016,
      "velocity": 115,
      "chip": "ym2612"
    },
    {
      "channel": 2,
      "note": 52,
      "start": 10.0966,
      "duration": 0.016,
      "velocity": 100,
      "chip": "ym2612"
    },
    {
      "channel": 1,
      "note": 105,
      "start": 10.1047,
      "duration": 0.0161,
      "velocity": 105,
      "chip": "ym2612"
    },
    {
      "channel": 0,
      "note": 40,
      "start": 10.1063,
      "duration": 0.0161,
      "velocity": 115,
      "chip": "ym2612"
    },
    {
      "channel": 2,
      "note": 52,
      "start": 10.1125,
      "duration": 0.0134,
      "velocity": 100,
      "chip": "ym2612"
    },
    {
      "channel": 1,
      "note": 105,
      "start": 10.1208,
      "duration": 0.0161,
      "velocity": 105,
      "chip": "ym2612"
    },
    {
      "channel": 0,
      "note": 40,
      "start": 10.1224,
      "duration": 0.0161,
      "velocity": 115,
      "chip": "ym2612"
    },
    {
      "channel": 2,
      "note": 52,
      "start": 10.1259,
      "duration": 0.0161,
      "velocity": 100,
      "chip": "ym2612"
    },
    {
      "channel": 1,
      "note": 105,
      "start": 10.1369,
      "duration": 0.0161,
      "velocity": 105,
      "chip": "ym2612"
    },
    {
      "channel": 0,
      "note": 41,
      "start": 10.1385,
      "duration": 0.0161,
      "velocity": 115,
      "chip": "ym2612"
    },
    {
      "channel": 2,
      "note": 52,
      "start": 10.142,
      "duration": 0.0161,
      "velocity": 100,
      "chip": "ym2612"
    },
    {
      "channel": 1,
      "note": 105,
      "start": 10.153,
      "duration": 0.0161,
      "velocity": 105,
      "chip": "ym2612"
    },
    {
      "channel": 0,
      "note": 41,
      "start": 10.1546,
      "duration": 0.0161,
      "velocity": 115,
      "chip": "ym2612"
    },
    {
      "channel": 2,
      "note": 52,
      "start": 10.1581,
      "duration": 0.0161,
      "velocity": 100,
      "chip": "ym2612"
    },
    {
      "channel": 1,
      "note": 105,
      "start": 10.1691,
      "duration": 0.0178,
      "velocity": 124,
      "chip": "ym2612"
    },
    {
      "channel": 0,
      "note": 42,
      "start": 10.1707,
      "duration": 0.0179,
      "velocity": 115,
      "chip": "ym2612"
    },
    {
      "channel": 2,
      "note": 52,
      "start": 10.1741,
      "duration": 0.0182,
      "velocity": 100,
      "chip": "ym2612"
    },
    {
      "channel": 1,
      "note": 64,
      "start": 10.1869,
      "duration": 0.0144,
      "velocity": 124,
      "chip": "ym2612"
    },
    {
      "channel": 0,
      "note": 42,
      "start": 10.1886,
      "duration": 0.0144,
      "velocity": 115,
      "chip": "ym2612"
    },
    {
      "channel": 2,
      "note": 52,
      "start": 10.1924,
      "duration": 0.0142,
      "velocity": 100,
      "chip": "ym2612"
    },
    {
      "channel": 1,
      "note": 64,
      "start": 10.2014,
      "duration": 0.016,
      "velocity": 124,
      "chip": "ym2612"
    },
    {
      "channel": 0,
      "note": 43,
      "start": 10.203,
      "duration": 0.016,
      "velocity": 115,
      "chip": "ym2612"
    },
    {
      "channel": 2,
      "note": 52,
      "start": 10.2065,
      "duration": 0.016,
      "velocity": 100,
      "chip": "ym2612"
    },
    {
      "channel": 1,
      "note": 64,
      "start": 10.2174,
      "duration": 0.0161,
      "velocity": 124,
      "chip": "ym2612"
    },
    {
      "channel": 0,
      "note": 43,
      "start": 10.2191,
      "duration": 0.0161,
      "velocity": 115,
      "chip": "ym2612"
    },
    {
      "channel": 2,
      "note": 52,
      "start": 10.2225,
      "duration": 0.0161,
      "velocity": 100,
      "chip": "ym2612"
    },
    {
      "channel": 1,
      "note": 64,
      "start": 10.2335,
      "duration": 0.0161,
      "velocity": 124,
      "chip": "ym2612"
    },
    {
      "channel": 0,
      "note": 44,
      "start": 10.2352,
      "duration": 0.0161,
      "velocity": 115,
      "chip": "ym2612"
    },
    {
      "channel": 2,
      "note": 52,
      "start": 10.2386,
      "duration": 0.0161,
      "velocity": 100,
      "chip": "ym2612"
    },
    {
      "channel": 1,
      "note": 64,
      "start": 10.2496,
      "duration": 0.0161,
      "velocity": 124,
      "chip": "ym2612"
    },
    {
      "channel": 0,
      "note": 44,
      "start": 10.2513,
      "duration": 0.0161,
      "velocity": 115,
      "chip": "ym2612"
    },
    {
      "channel": 2,
      "note": 52,
      "start": 10.2547,
      "duration": 0.0161,
      "velocity": 100,
      "chip": "ym2612"
    },
    {
      "channel": 1,
      "note": 64,
      "start": 10.2657,
      "duration": 0.0161,
      "velocity": 124,
      "chip": "ym2612"
    },
    {
      "channel": 0,
      "note": 44,
      "start": 10.2673,
      "duration": 0.0162,
      "velocity": 115,
      "chip": "ym2612"
    },
    {
      "channel": 2,
      "note": 52,
      "start": 10.2708,
      "duration": 0.0161,
      "velocity": 100,
      "chip": "ym2612"
    },
    {
      "channel": 1,
      "note": 64,
      "start": 10.2818,
      "duration": 0.0178,
      "velocity": 105,
      "chip": "ym2612"
    },
    {
      "channel": 0,
      "note": 45,
      "start": 10.2835,
      "duration": 0.0178,
      "velocity": 115,
      "chip": "ym2612"
    },
    {
      "channel": 2,
      "note": 52,
      "start": 10.2869,
      "duration": 0.0181,
      "velocity": 100,
      "chip": "ym2612"
    },
    {
      "channel": 1,
      "note": 105,
      "start": 10.2996,
      "duration": 0.0144,
      "velocity": 105,
      "chip": "ym2612"
    },
    {
      "channel": 0,
      "note": 45,
      "start": 10.3013,
      "duration": 0.0144,
      "velocity": 115,
      "chip": "ym2612"
    },
    {
      "channel": 2,
      "note": 52,
      "start": 10.3051,
      "duration": 0.0142,
      "velocity": 100,
      "chip": "ym2612"
    },
    {
      "channel": 1,
      "note": 105,
      "start": 10.314,
      "duration": 0.0162,
      "velocity": 105,
      "chip": "ym2612"
    },
    {
      "channel": 0,
      "note": 46,
      "start": 10.3158,
      "duration": 0.0162,
      "velocity": 115,
      "chip": "ym2612"
    },
    {
      "channel": 2,
      "note": 52,
      "start": 10.3193,
      "duration": 0.0161,
      "velocity": 100,
      "chip": "ym2612"
    },
    {
      "channel": 1,
      "note": 105,
      "start": 10.3303,
      "duration": 0.016,
      "velocity": 105,
      "chip": "ym2612"
    },
    {
      "channel": 0,
      "note": 46,
      "start": 10.3319,
      "duration": 0.016,
      "velocity": 115,
      "chip": "ym2612"
    },
    {
      "channel": 2,
      "note": 52,
      "start": 10.3354,
      "duration": 0.016,
      "velocity": 100,
      "chip": "ym2612"
    },
    {
      "channel": 1,
      "note": 105,
      "start": 10.3462,
      "duration": 0.0178,
      "velocity": 105,
      "chip": "ym2612"
    },
    {
      "channel": 0,
      "note": 47,
      "start": 10.3479,
      "duration": 0.0178,
      "velocity": 115,
      "chip": "ym2612"
    },
    {
      "channel": 2,
      "note": 52,
      "start": 10.3513,
      "duration": 0.0178,
      "velocity": 100,
      "chip": "ym2612"
    },
    {
      "channel": 1,
      "note": 105,
      "start": 10.364,
      "duration": 0.0167,
      "velocity": 105,
      "chip": "ym2612"
    },
    {
      "channel": 0,
      "note": 47,
      "start": 10.3656,
      "duration": 0.0167,
      "velocity": 115,
      "chip": "ym2612"
    },
    {
      "channel": 2,
      "note": 52,
      "start": 10.3691,
      "duration": 0.0167,
      "velocity": 100,
      "chip": "ym2612"
    },
    {
      "channel": 1,
      "note": 105,
      "start": 10.3807,
      "duration": 0.0162,
      "velocity": 105,
      "chip": "ym2612"
    },
    {
      "channel": 0,
      "note": 47,
      "start": 10.3823,
      "duration": 0.0163,
      "velocity": 115,
      "chip": "ym2612"
    },
    {
      "channel": 2,
      "note": 52,
      "start": 10.3857,
      "duration": 0.0163,
      "velocity": 100,
      "chip": "ym2612"
    },
    {
      "channel": 1,
      "note": 105,
      "start": 10.3969,
      "duration": 0.0163,
      "velocity": 124,
      "chip": "ym2612"
    },
    {
      "channel": 0,
      "note": 48,
      "start": 10.3986,
      "duration": 0.0171,
      "velocity": 115,
      "chip": "ym2612"
    },
    {
      "channel": 2,
      "note": 52,
      "start": 10.402,
      "duration": 0.0173,
      "velocity": 100,
      "chip": "ym2612"
    },
    {
      "channel": 1,
      "note": 78,
      "start": 10.4132,
      "duration": 0.0168,
      "velocity": 124,
      "chip": "ym2612"
    },
    {
      "channel": 0,
      "note": 48,
      "start": 10.4156,
      "duration": 0.0163,
      "velocity": 115,
      "chip": "ym2612"
    },
    {
      "channel": 2,
      "note": 52,
      "start": 10.4194,
      "duration": 0.016,
      "velocity": 100,
      "chip": "ym2612"
    },
    {
      "channel": 1,
      "note": 76,
      "start": 10.43,
      "duration": 0.016,
      "velocity": 124,
      "chip": "ym2612"
    },
    {
      "channel": 0,
      "note": 49,
      "start": 10.4319,
      "duration": 0.0152,
      "velocity": 1,
      "chip": "ym2612"
    },
    {
      "channel": 2,
      "note": 52,
      "start": 10.4354,
      "duration": 0.0151,
      "velocity": 100,
      "chip": "ym2612"
    },
    {
      "channel": 1,
      "note": 75,
      "start": 10.446,
      "duration": 0.0134,
      "velocity": 124,
      "chip": "ym2612"
    },
    {
      "channel": 2,
      "note": 52,
      "start": 10.4506,
      "duration": 0.0149,
      "velocity": 100,
      "chip": "ym2612"
    },
    {
      "channel": 1,
      "note": 74,
      "start": 10.4594,
      "duration": 0.0161,
      "velocity": 124,
      "chip": "ym2612"
    },
    {
      "channel": 2,
      "note": 52,
      "start": 10.4654,
      "duration": 0.0141,
      "velocity": 100,
      "chip": "ym2612"
    },
    {
      "channel": 1,
      "note": 72,
      "start": 10.4755,
      "duration": 0.0161,
      "velocity": 124,
      "chip": "ym2612"
    },
    {
      "channel": 2,
      "note": 52,
      "start": 10.4795,
      "duration": 0.0185,
      "velocity": 100,
      "chip": "ym2612"
    },
    {
      "channel": 1,
      "note": 71,
      "start": 10.4916,
      "duration": 0.0161,
      "velocity": 124,
      "chip": "ym2612"
    },
    {
      "channel": 2,
      "note": 52,
      "start": 10.498,
      "duration": 0.0161,
      "velocity": 100,
      "chip": "ym2612"
    },
    {
      "channel": 1,
      "note": 70,
      "start": 10.5077,
      "duration": 0.0161,
      "velocity": 124,
      "chip": "ym2612"
    },
    {
      "channel": 2,
      "note": 52,
      "start": 10.5141,
      "duration": 0.0166,
      "velocity": 100,
      "chip": "ym2612"
    },
    {
      "channel": 1,
      "note": 69,
      "start": 10.5238,
      "duration": 0.0161,
      "velocity": 124,
      "chip": "ym2612"
    },
    {
      "channel": 2,
      "note": 52,
      "start": 10.5307,
      "duration": 0.0133,
      "velocity": 100,
      "chip": "ym2612"
    },
    {
      "channel": 1,
      "note": 68,
      "start": 10.5399,
      "duration": 0.0161,
      "velocity": 124,
      "chip": "ym2612"
    },
    {
      "channel": 2,
      "note": 52,
      "start": 10.544,
      "duration": 0.0157,
      "velocity": 100,
      "chip": "ym2612"
    },
    {
      "channel": 1,
      "note": 66,
      "start": 10.556,
      "duration": 0.0161,
      "velocity": 124,
      "chip": "ym2612"
    },
    {
      "channel": 2,
      "note": 52,
      "start": 10.5597,
      "duration": 0.0161,
      "velocity": 100,
      "chip": "ym2612"
    },
    {
      "channel": 1,
      "note": 65,
      "start": 10.5721,
      "duration": 0.0161,
      "velocity": 124,
      "chip": "ym2612"
    },
    {
      "channel": 2,
      "note": 52,
      "start": 10.5758,
      "duration": 0.0161,
      "velocity": 100,
      "chip": "ym2612"
    },
    {
      "channel": 1,
      "note": 64,
      "start": 10.5882,
      "duration": 0.0161,
      "velocity": 124,
      "chip": "ym2612"
    },
    {
      "channel": 2,
      "note": 52,
      "start": 10.5919,
      "duration": 0.0161,
      "velocity": 100,
      "chip": "ym2612"
    },
    {
      "channel": 1,
      "note": 62,
      "start": 10.6043,
      "duration": 0.0161,
      "velocity": 124,
      "chip": "ym2612"
    },
    {
      "channel": 2,
      "note": 52,
      "start": 10.608,
      "duration": 0.0161,
      "velocity": 100,
      "chip": "ym2612"
    },
    {
      "channel": 1,
      "note": 61,
      "start": 10.6204,
      "duration": 0.0161,
      "velocity": 124,
      "chip": "ym2612"
    },
    {
      "channel": 2,
      "note": 52,
      "start": 10.6241,
      "duration": 0.0168,
      "velocity": 100,
      "chip": "ym2612"
    },
    {
      "channel": 1,
      "note": 60,
      "start": 10.6365,
      "duration": 0.0161,
      "velocity": 124,
      "chip": "ym2612"
    },
    {
      "channel": 2,
      "note": 52,
      "start": 10.641,
      "duration": 0.0154,
      "velocity": 100,
      "chip": "ym2612"
    },
    {
      "channel": 1,
      "note": 59,
      "start": 10.6527,
      "duration": 0.0161,
      "velocity": 124,
      "chip": "ym2612"
    },
    {
      "channel": 2,
      "note": 52,
      "start": 10.6564,
      "duration": 0.016,
      "velocity": 100,
      "chip": "ym2612"
    },
    {
      "channel": 1,
      "note": 57,
      "start": 10.6688,
      "duration": 0.0161,
      "velocity": 124,
      "chip": "ym2612"
    },
    {
      "channel": 2,
      "note": 52,
      "start": 10.6724,
      "duration": 0.0161,
      "velocity": 100,
      "chip": "ym2612"
    },
    {
      "channel": 1,
      "note": 56,
      "start": 10.6849,
      "duration": 0.0161,
      "velocity": 124,
      "chip": "ym2612"
    },
    {
      "channel": 2,
      "note": 52,
      "start": 10.6885,
      "duration": 0.0161,
      "velocity": 100,
      "chip": "ym2612"
    },
    {
      "channel": 1,
      "note": 55,
      "start": 10.7009,
      "duration": 0.0161,
      "velocity": 124,
      "chip": "ym2612"
    },
    {
      "channel": 2,
      "note": 52,
      "start": 10.7046,
      "duration": 0.0162,
      "velocity": 100,
      "chip": "ym2612"
    },
    {
      "channel": 1,
      "note": 53,
      "start": 10.717,
      "duration": 0.0161,
      "velocity": 124,
      "chip": "ym2612"
    },
    {
      "channel": 2,
      "note": 52,
      "start": 10.7207,
      "duration": 0.0161,
      "velocity": 100,
      "chip": "ym2612"
    },
    {
      "channel": 1,
      "note": 52,
      "start": 10.7331,
      "duration": 0.0161,
      "velocity": 124,
      "chip": "ym2612"
    },
    {
      "channel": 2,
      "note": 52,
      "start": 10.7368,
      "duration": 0.0203,
      "velocity": 100,
      "chip": "ym2612"
    },
    {
      "channel": 1,
      "note": 51,
      "start": 10.7492,
      "duration": 0.0153,
      "velocity": 1,
      "chip": "ym2612"
    },
    {
      "channel": 0,
      "note": 78,
      "start": 10.7535,
      "duration": 0.0149,
      "velocity": 127,
      "chip": "ym2612"
    },
    {
      "channel": 2,
      "note": 52,
      "start": 10.7572,
      "duration": 0.0147,
      "velocity": 100,
      "chip": "ym2612"
    },
    {
      "channel": 1,
      "note": 51,
      "start": 10.7667,
      "duration": 0.0143,
      "velocity": 105,
      "chip": "ym2612"
    },
    {
      "channel": 0,
      "note": 76,
      "start": 10.7684,
      "duration": 0.0142,
      "velocity": 127,
      "chip": "ym2612"
    },
    {
      "channel": 2,
      "note": 52,
      "start": 10.7719,
      "duration": 0.0141,
      "velocity": 100,
      "chip": "ym2612"
    },
    {
      "channel": 1,
      "note": 105,
      "start": 10.781,
      "duration": 0.0161,
      "velocity": 105,
      "chip": "ym2612"
    },
    {
      "channel": 0,
      "note": 75,
      "start": 10.7826,
      "duration": 0.0161,
      "velocity": 127,
      "chip": "ym2612"
    },
    {
      "channel": 2,
      "note": 52,
      "start": 10.7861,
      "duration": 0.0161,
      "velocity": 100,
      "chip": "ym2612"
    },
    {
      "channel": 1,
      "note": 105,
      "start": 10.7971,
      "duration": 0.0161,
      "velocity": 105,
      "chip": "ym2612"
    },
    {
      "channel": 0,
      "note": 73,
      "start": 10.7987,
      "duration": 0.0161,
      "velocity": 127,
      "chip": "ym2612"
    },
    {
      "channel": 2,
      "note": 52,
      "start": 10.8022,
      "duration": 0.0161,
      "velocity": 100,
      "chip": "ym2612"
    },
    {
      "channel": 1,
      "note": 105,
      "start": 10.8132,
      "duration": 0.0174,
      "velocity": 105,
      "chip": "ym2612"
    },
    {
      "channel": 0,
      "note": 71,
      "start": 10.8148,
      "duration": 0.0175,
      "velocity": 127,
      "chip": "ym2612"
    },
    {
      "channel": 2,
      "note": 52,
      "start": 10.8183,
      "duration": 0.0175,
      "velocity": 100,
      "chip": "ym2612"
    },
    {
      "channel": 1,
      "note": 105,
      "start": 10.8306,
      "duration": 0.0167,
      "velocity": 105,
      "chip": "ym2612"
    },
    {
      "channel": 0,
      "note": 70,
      "start": 10.8323,
      "duration": 0.0167,
      "velocity": 127,
      "chip": "ym2612"
    },
    {
      "channel": 2,
      "note": 52,
      "start": 10.8357,
      "duration": 0.0167,
      "velocity": 100,
      "chip": "ym2612"
    },
    {
      "channel": 1,
      "note": 105,
      "start": 10.8473,
      "duration": 0.018,
      "velocity": 124,
      "chip": "ym2612"
    },
    {
      "channel": 0,
      "note": 68,
      "start": 10.849,
      "duration": 0.0198,
      "velocity": 115,
      "chip": "ym2612"
    },
    {
      "channel": 2,
      "note": 52,
      "start": 10.8524,
      "duration": 0.0202,
      "velocity": 100,
      "chip": "ym2612"
    },
    {
      "channel": 1,
      "note": 64,
      "start": 10.8653,
      "duration": 0.0126,
      "velocity": 124,
      "chip": "ym2612"
    },
    {
      "channel": 0,
      "note": 36,
      "start": 10.8688,
      "duration": 0.0109,
      "velocity": 115,
      "chip": "ym2612"
    },
    {
      "channel": 2,
      "note": 55,
      "start": 10.8726,
      "duration": 0.0106,
      "velocity": 100,
      "chip": "ym2612"
    },
    {
      "channel": 1,
      "note": 64,
      "start": 10.8779,
      "duration": 0.0185,
      "velocity": 124,
      "chip": "ym2612"
    },
    {
      "channel": 0,
      "note": 36,
      "start": 10.8797,
      "duration": 0.0184,
      "velocity": 115,
      "chip": "ym2612"
    },
    {
      "channel": 2,
      "note": 55,
      "start": 10.8832,
      "duration": 0.0183,
      "velocity": 100,
      "chip": "ym2612"
    },
    {
      "channel": 1,
      "note": 64,
      "start": 10.8964,
      "duration": 0.0134,
      "velocity": 124,
      "chip": "ym2612"
    },
    {
      "channel": 0,
      "note": 37,
      "start": 10.8981,
      "duration": 0.0161,
      "velocity": 115,
      "chip": "ym2612"
    },
    {
      "channel": 2,
      "note": 55,
      "start": 10.9015,
      "duration": 0.0161,
      "velocity": 100,
      "chip": "ym2612"
    },
    {
      "channel": 1,
      "note": 64,
      "start": 10.9098,
      "duration": 0.0161,
      "velocity": 124,
      "chip": "ym2612"
    },
    {
      "channel": 0,
      "note": 37,
      "start": 10.9142,
      "duration": 0.0158,
      "velocity": 115,
      "chip": "ym2612"
    },
    {
      "channel": 2,
      "note": 55,
      "start": 10.9176,
      "duration": 0.0158,
      "velocity": 100,
      "chip": "ym2612"
    },
    {
      "channel": 1,
      "note": 64,
      "start": 10.9259,
      "duration": 0.0161,
      "velocity": 124,
      "chip": "ym2612"
    },
    {
      "channel": 0,
      "note": 38,
      "start": 10.93,
      "duration": 0.014,
      "velocity": 115,
      "chip": "ym2612"
    },
    {
      "channel": 2,
      "note": 55,
      "start": 10.9334,
      "duration": 0.014,
      "velocity": 100,
      "chip": "ym2612"
    },
    {
      "channel": 1,
      "note": 64,
      "start": 10.942,
      "duration": 0.0161,
      "velocity": 124,
      "chip": "ym2612"
    },
    {
      "channel": 0,
      "note": 38,
      "start": 10.9439,
      "duration": 0.0158,
      "velocity": 115,
      "chip": "ym2612"
    },
    {
      "channel": 2,
      "note": 55,
      "start": 10.9474,
      "duration": 0.0186,
      "velocity": 100,
      "chip": "ym2612"
    },
    {
      "channel": 1,
      "note": 64,
      "start": 10.9581,
      "duration": 0.0177,
      "velocity": 105,
      "chip": "ym2612"
    },
    {
      "channel": 0,
      "note": 39,
      "start": 10.9597,
      "duration": 0.0205,
      "velocity": 115,
      "chip": "ym2612"
    },
    {
      "channel": 2,
      "note": 55,
      "start": 10.966,
      "duration": 0.0183,
      "velocity": 100,
      "chip": "ym2612"
    },
    {
      "channel": 1,
      "note": 105,
      "start": 10.9759,
      "duration": 0.0144,
      "velocity": 105,
      "chip": "ym2612"
    },
    {
      "channel": 0,
      "note": 39,
      "start": 10.9803,
      "duration": 0.0117,
      "velocity": 115,
      "chip": "ym2612"
    },
    {
      "channel": 2,
      "note": 55,
      "start": 10.9842,
      "duration": 0.0137,
      "velocity": 100,
      "chip": "ym2612"
    },
    {
      "channel": 1,
      "note": 105,
      "start": 10.9903,
      "duration": 0.016,
      "velocity": 105,
      "chip": "ym2612"
    },
    {
      "channel": 0,
      "note": 40,
      "start": 10.992,
      "duration": 0.016,
      "velocity": 115,
      "chip": "ym2612"
    },
    {
      "channel": 2,
      "note": 55,
      "start": 10.9979,
      "duration": 0.0139,
      "velocity": 100,
      "chip": "ym2612"
    },
    {
      "channel": 1,
      "note": 105,
      "start": 11.0063,
      "duration": 0.0161,
      "velocity": 105,
      "chip": "ym2612"
    },
    {
      "channel": 0,
      "note": 40,
      "start": 11.008,
      "duration": 0.0161,
      "velocity": 115,
      "chip": "ym2612"
    },
    {
      "channel": 2,
      "note": 55,
      "start": 11.0117,
      "duration": 0.0186,
      "velocity": 100,
      "chip": "ym2612"
    },
    {
      "channel": 1,
      "note": 105,
      "start": 11.0224,
      "duration": 0.0161,
      "velocity": 105,
      "chip": "ym2612"
    },
    {
      "channel": 0,
      "note": 40,
      "start": 11.0241,
      "duration": 0.0161,
      "velocity": 115,
      "chip": "ym2612"
    },
    {
      "channel": 2,
      "note": 55,
      "start": 11.0303,
      "duration": 0.0161,
      "velocity": 100,
      "chip": "ym2612"
    },
    {
      "channel": 1,
      "note": 105,
      "start": 11.0385,
      "duration": 0.0161,
      "velocity": 105,
      "chip": "ym2612"
    },
    {
      "channel": 0,
      "note": 41,
      "start": 11.0402,
      "duration": 0.0162,
      "velocity": 115,
      "chip": "ym2612"
    },
    {
      "channel": 2,
      "note": 55,
      "start": 11.0464,
      "duration": 0.0134,
      "velocity": 100,
      "chip": "ym2612"
    },
    {
      "channel": 1,
      "note": 105,
      "start": 11.0546,
      "duration": 0.0162,
      "velocity": 105,
      "chip": "ym2612"
    },
    {
      "channel": 0,
      "note": 41,
      "start": 11.0563,
      "duration": 0.0161,
      "velocity": 115,
      "chip": "ym2612"
    },
    {
      "channel": 2,
      "note": 55,
      "start": 11.0598,
      "duration": 0.0161,
      "velocity": 100,
      "chip": "ym2612"
    },
    {
      "channel": 1,
      "note": 105,
      "start": 11.0708,
      "duration": 0.0177,
      "velocity": 124,
      "chip": "ym2612"
    },
    {
      "channel": 0,
      "note": 42,
      "start": 11.0724,
      "duration": 0.0178,
      "velocity": 115,
      "chip": "ym2612"
    },
    {
      "channel": 2,
      "note": 55,
      "start": 11.0759,
      "duration": 0.0211,
      "velocity": 100,
      "chip": "ym2612"
    },
    {
      "channel": 1,
      "note": 64,
      "start": 11.0886,
      "duration": 0.0144,
      "velocity": 124,
      "chip": "ym2612"
    },
    {
      "channel": 0,
      "note": 42,
      "start": 11.0902,
      "duration": 0.0144,
      "velocity": 115,
      "chip": "ym2612"
    },
    {
      "channel": 2,
      "note": 55,
      "start": 11.097,
      "duration": 0.0112,
      "velocity": 100,
      "chip": "ym2612"
    },
    {
      "channel": 1,
      "note": 64,
      "start": 11.103,
      "duration": 0.016,
      "velocity": 124,
      "chip": "ym2612"
    },
    {
      "channel": 0,
      "note": 43,
      "start": 11.1047,
      "duration": 0.016,
      "velocity": 115,
      "chip": "ym2612"
    },
    {
      "channel": 2,
      "note": 55,
      "start": 11.1083,
      "duration": 0.0159,
      "velocity": 100,
      "chip": "ym2612"
    },
    {
      "channel": 1,
      "note": 64,
      "start": 11.1191,
      "duration": 0.0161,
      "velocity": 124,
      "chip": "ym2612"
    },
    {
      "channel": 0,
      "note": 43,
      "start": 11.1207,
      "duration": 0.0161,
      "velocity": 115,
      "chip": "ym2612"
    },
    {
      "channel": 2,
      "note": 55,
      "start": 11.1241,
      "duration": 0.0161,
      "velocity": 100,
      "chip": "ym2612"
    },
    {
      "channel": 1,
      "note": 64,
      "start": 11.1352,
      "duration": 0.0161,
      "velocity": 124,
      "chip": "ym2612"
    },
    {
      "channel": 0,
      "note": 44,
      "start": 11.1368,
      "duration": 0.0161,
      "velocity": 115,
      "chip": "ym2612"
    },
    {
      "channel": 2,
      "note": 55,
      "start": 11.1402,
      "duration": 0.0161,
      "velocity": 100,
      "chip": "ym2612"
    },
    {
      "channel": 1,
      "note": 64,
      "start": 11.1513,
      "duration": 0.0161,
      "velocity": 124,
      "chip": "ym2612"
    },
    {
      "channel": 0,
      "note": 44,
      "start": 11.1529,
      "duration": 0.0162,
      "velocity": 115,
      "chip": "ym2612"
    },
    {
      "channel": 2,
      "note": 55,
      "start": 11.1563,
      "duration": 0.0161,
      "velocity": 100,
      "chip": "ym2612"
    },
    {
      "channel": 1,
      "note": 64,
      "start": 11.1673,
      "duration": 0.0161,
      "velocity": 124,
      "chip": "ym2612"
    },
    {
      "channel": 0,
      "note": 44,
      "start": 11.1691,
      "duration": 0.0161,
      "velocity": 115,
      "chip": "ym2612"
    },
    {
      "channel": 2,
      "note": 55,
      "start": 11.1725,
      "duration": 0.0161,
      "velocity": 100,
      "chip": "ym2612"
    },
    {
      "channel": 1,
      "note": 64,
      "start": 11.1834,
      "duration": 0.0178,
      "velocity": 105,
      "chip": "ym2612"
    },
    {
      "channel": 0,
      "note": 45,
      "start": 11.1852,
      "duration": 0.0178,
      "velocity": 115,
      "chip": "ym2612"
    },
    {
      "channel": 2,
      "note": 55,
      "start": 11.1886,
      "duration": 0.0181,
      "velocity": 100,
      "chip": "ym2612"
    },
    {
      "channel": 1,
      "note": 105,
      "start": 11.2013,
      "duration": 0.0144,
      "velocity": 105,
      "chip": "ym2612"
    },
    {
      "channel": 0,
      "note": 45,
      "start": 11.203,
      "duration": 0.0144,
      "velocity": 115,
      "chip": "ym2612"
    },
    {
      "channel": 2,
      "note": 55,
      "start": 11.2067,
      "duration": 0.0142,
      "velocity": 100,
      "chip": "ym2612"
    },
    {
      "channel": 1,
      "note": 105,
      "start": 11.2157,
      "duration": 0.0161,
      "velocity": 105,
      "chip": "ym2612"
    },
    {
      "channel": 0,
      "note": 46,
      "start": 11.2174,
      "duration": 0.016,
      "velocity": 115,
      "chip": "ym2612"
    },
    {
      "channel": 2,
      "note": 55,
      "start": 11.2209,
      "duration": 0.016,
      "velocity": 100,
      "chip": "ym2612"
    },
    {
      "channel": 1,
      "note": 105,
      "start": 11.2318,
      "duration": 0.0161,
      "velocity": 105,
      "chip": "ym2612"
    },
    {
      "channel": 0,
      "note": 46,
      "start": 11.2334,
      "duration": 0.0161,
      "velocity": 115,
      "chip": "ym2612"
    },
    {
      "channel": 2,
      "note": 55,
      "start": 11.2369,
      "duration": 0.0161,
      "velocity": 100,
      "chip": "ym2612"
    },
    {
      "channel": 1,
      "note": 105,
      "start": 11.2479,
      "duration": 0.0161,
      "velocity": 105,
      "chip": "ym2612"
    },
    {
      "channel": 0,
      "note": 47,
      "start": 11.2495,
      "duration": 0.0161,
      "velocity": 115,
      "chip": "ym2612"
    },
    {
      "channel": 2,
      "note": 55,
      "start": 11.253,
      "duration": 0.0161,
      "velocity": 100,
      "chip": "ym2612"
    },
    {
      "channel": 1,
      "note": 105,
      "start": 11.264,
      "duration": 0.0161,
      "velocity": 105,
      "chip": "ym2612"
    },
    {
      "channel": 0,
      "note": 47,
      "start": 11.2656,
      "duration": 0.0161,
      "velocity": 115,
      "chip": "ym2612"
    },
    {
      "channel": 2,
      "note": 55,
      "start": 11.2691,
      "duration": 0.0161,
      "velocity": 100,
      "chip": "ym2612"
    },
    {
      "channel": 1,
      "note": 105,
      "start": 11.2801,
      "duration": 0.0173,
      "velocity": 105,
      "chip": "ym2612"
    },
    {
      "channel": 0,
      "note": 47,
      "start": 11.2817,
      "duration": 0.0173,
      "velocity": 115,
      "chip": "ym2612"
    },
    {
      "channel": 2,
      "note": 55,
      "start": 11.2852,
      "duration": 0.0172,
      "velocity": 100,
      "chip": "ym2612"
    },
    {
      "channel": 1,
      "note": 105,
      "start": 11.2973,
      "duration": 0.0189,
      "velocity": 124,
      "chip": "ym2612"
    },
    {
      "channel": 0,
      "note": 48,
      "start": 11.299,
      "duration": 0.0196,
      "velocity": 115,
      "chip": "ym2612"
    },
    {
      "channel": 2,
      "note": 55,
      "start": 11.3024,
      "duration": 0.02,
      "velocity": 100,
      "chip": "ym2612"
    },
    {
      "channel": 1,
      "note": 78,
      "start": 11.3163,
      "duration": 0.0146,
      "velocity": 124,
      "chip": "ym2612"
    },
    {
      "channel": 0,
      "note": 48,
      "start": 11.3186,
      "duration": 0.0141,
      "velocity": 115,
      "chip": "ym2612"
    },
    {
      "channel": 2,
      "note": 55,
      "start": 11.3224,
      "duration": 0.0139,
      "velocity": 100,
      "chip": "ym2612"
    },
    {
      "channel": 1,
      "note": 76,
      "start": 11.3308,
      "duration": 0.0144,
      "velocity": 124,
      "chip": "ym2612"
    },
    {
      "channel": 0,
      "note": 49,
      "start": 11.3327,
      "duration": 0.0136,
      "velocity": 1,
      "chip": "ym2612"
    },
    {
      "channel": 2,
      "note": 55,
      "start": 11.3362,
      "duration": 0.0136,
      "velocity": 100,
      "chip": "ym2612"
    },
    {
      "channel": 1,
      "note": 75,
      "start": 11.3453,
      "duration": 0.0186,
      "velocity": 124,
      "chip": "ym2612"
    },
    {
      "channel": 2,
      "note": 55,
      "start": 11.3498,
      "duration": 0.0177,
      "velocity": 100,
      "chip": "ym2612"
    },
    {
      "channel": 1,
      "note": 74,
      "start": 11.3639,
      "duration": 0.0161,
      "velocity": 124,
      "chip": "ym2612"
    },
    {
      "channel": 2,
      "note": 55,
      "start": 11.3675,
      "duration": 0.0161,
      "velocity": 100,
      "chip": "ym2612"
    },
    {
      "channel": 1,
      "note": 72,
      "start": 11.38,
      "duration": 0.0157,
      "velocity": 124,
      "chip": "ym2612"
    },
    {
      "channel": 2,
      "note": 55,
      "start": 11.3836,
      "duration": 0.0158,
      "velocity": 100,
      "chip": "ym2612"
    },
    {
      "channel": 1,
      "note": 71,
      "start": 11.3957,
      "duration": 0.0137,
      "velocity": 124,
      "chip": "ym2612"
    },
    {
      "channel": 2,
      "note": 55,
      "start": 11.3993,
      "duration": 0.014,
      "velocity": 100,
      "chip": "ym2612"
    },
    {
      "channel": 1,
      "note": 70,
      "start": 11.4094,
      "duration": 0.0161,
      "velocity": 124,
      "chip": "ym2612"
    },
    {
      "channel": 2,
      "note": 55,
      "start": 11.4134,
      "duration": 0.0193,
      "velocity": 100,
      "chip": "ym2612"
    },
    {
      "channel": 1,
      "note": 69,
      "start": 11.4255,
      "duration": 0.0161,
      "velocity": 124,
      "chip": "ym2612"
    },
    {
      "channel": 2,
      "note": 55,
      "start": 11.4327,
      "duration": 0.0153,
      "velocity": 100,
      "chip": "ym2612"
    },
    {
      "channel": 1,
      "note": 68,
      "start": 11.4416,
      "duration": 0.0161,
      "velocity": 124,
      "chip": "ym2612"
    },
    {
      "channel": 2,
      "note": 55,
      "start": 11.4481,
      "duration": 0.0156,
      "velocity": 100,
      "chip": "ym2612"
    },
    {
      "channel": 1,
      "note": 66,
      "start": 11.4577,
      "duration": 0.0161,
      "velocity": 124,
      "chip": "ym2612"
    },
    {
      "channel": 2,
      "note": 55,
      "start": 11.4637,
      "duration": 0.0141,
      "velocity": 100,
      "chip": "ym2612"
    },
    {
      "channel": 1,
      "note": 65,
      "start": 11.4738,
      "duration": 0.0161,
      "velocity": 124,
      "chip": "ym2612"
    },
    {
      "channel": 2,
      "note": 55,
      "start": 11.4778,
      "duration": 0.0185,
      "velocity": 100,
      "chip": "ym2612"
    },
    {
      "channel": 1,
      "note": 64,
      "start": 11.4899,
      "duration": 0.0161,
      "velocity": 124,
      "chip": "ym2612"
    },
    {
      "channel": 2,
      "note": 55,
      "start": 11.4963,
      "duration": 0.0134,
      "velocity": 100,
      "chip": "ym2612"
    },
    {
      "channel": 1,
      "note": 62,
      "start": 11.506,
      "duration": 0.0161,
      "velocity": 124,
      "chip": "ym2612"
    },
    {
      "channel": 2,
      "note": 55,
      "start": 11.5097,
      "duration": 0.0161,
      "velocity": 100,
      "chip": "ym2612"
    },
    {
      "channel": 1,
      "note": 61,
      "start": 11.5221,
      "duration": 0.0161,
      "velocity": 124,
      "chip": "ym2612"
    },
    {
      "channel": 2,
      "note": 55,
      "start": 11.5258,
      "duration": 0.0168,
      "velocity": 100,
      "chip": "ym2612"
    },
    {
      "channel": 1,
      "note": 60,
      "start": 11.5382,
      "duration": 0.0161,
      "velocity": 124,
      "chip": "ym2612"
    },
    {
      "channel": 2,
      "note": 55,
      "start": 11.5427,
      "duration": 0.0154,
      "velocity": 100,
      "chip": "ym2612"
    },
    {
      "channel": 1,
      "note": 59,
      "start": 11.5543,
      "duration": 0.0161,
      "velocity": 124,
      "chip": "ym2612"
    },
    {
      "channel": 2,
      "note": 55,
      "start": 11.5581,
      "duration": 0.016,
      "velocity": 100,
      "chip": "ym2612"
    },
    {
      "channel": 1,
      "note": 57,
      "start": 11.5704,
      "duration": 0.0161,
      "velocity": 124,
      "chip": "ym2612"
    },
    {
      "channel": 2,
      "note": 55,
      "start": 11.574,
      "duration": 0.0161,
      "velocity": 100,
      "chip": "ym2612"
    },
    {
      "channel": 1,
      "note": 56,
      "start": 11.5865,
      "duration": 0.0161,
      "velocity": 124,
      "chip": "ym2612"
    },
    {
      "channel": 2,
      "note": 55,
      "start": 11.5902,
      "duration": 0.0161,
      "velocity": 100,
      "chip": "ym2612"
    },
    {
      "channel": 1,
      "note": 55,
      "start": 11.6026,
      "duration": 0.0161,
      "velocity": 124,
      "chip": "ym2612"
    },
    {
      "channel": 2,
      "note": 55,
      "start": 11.6063,
      "duration": 0.0161,
      "velocity": 100,
      "chip": "ym2612"
    },
    {
      "channel": 1,
      "note": 53,
      "start": 11.6187,
      "duration": 0.0161,
      "velocity": 124,
      "chip": "ym2612"
    },
    {
      "channel": 2,
      "note": 55,
      "start": 11.6224,
      "duration": 0.0161,
      "velocity": 100,
      "chip": "ym2612"
    },
    {
      "channel": 1,
      "note": 52,
      "start": 11.6348,
      "duration": 0.0161,
      "velocity": 124,
      "chip": "ym2612"
    },
    {
      "channel": 2,
      "note": 55,
      "start": 11.6385,
      "duration": 0.0203,
      "velocity": 100,
      "chip": "ym2612"
    },
    {
      "channel": 1,
      "note": 51,
      "start": 11.6509,
      "duration": 0.0153,
      "velocity": 1,
      "chip": "ym2612"
    },
    {
      "channel": 0,
      "note": 36,
      "start": 11.6551,
      "duration": 0.015,
      "velocity": 115,
      "chip": "ym2612"
    },
    {
      "channel": 2,
      "note": 55,
      "start": 11.6588,
      "duration": 0.0148,
      "velocity": 100,
      "chip": "ym2612"
    },
    {
      "channel": 1,
      "note": 51,
      "start": 11.6684,
      "duration": 0.0143,
      "velocity": 105,
      "chip": "ym2612"
    },
    {
      "channel": 0,
      "note": 36,
      "start": 11.6701,
      "duration": 0.0142,
      "velocity": 115,
      "chip": "ym2612"
    },
    {
      "channel": 2,
      "note": 55,
      "start": 11.6736,
      "duration": 0.0141,
      "velocity": 100,
      "chip": "ym2612"
    },
    {
      "channel": 1,
      "note": 105,
      "start": 11.6826,
      "duration": 0.0161,
      "velocity": 105,
      "chip": "ym2612"
    },
    {
      "channel": 0,
      "note": 37,
      "start": 11.6843,
      "duration": 0.0161,
      "velocity": 115,
      "chip": "ym2612"
    },
    {
      "channel": 2,
      "note": 55,
      "start": 11.6877,
      "duration": 0.0161,
      "velocity": 100,
      "chip": "ym2612"
    },
    {
      "channel": 1,
      "note": 105,
      "start": 11.6987,
      "duration": 0.0161,
      "velocity": 105,
      "chip": "ym2612"
    },
    {
      "channel": 0,
      "note": 37,
      "start": 11.7004,
      "duration": 0.0161,
      "velocity": 115,
      "chip": "ym2612"
    },
    {
      "channel": 2,
      "note": 55,
      "start": 11.7038,
      "duration": 0.0161,
      "velocity": 100,
      "chip": "ym2612"
    },
    {
      "channel": 1,
      "note": 105,
      "start": 11.7148,
      "duration": 0.0161,
      "velocity": 105,
      "chip": "ym2612"
    },
    {
      "channel": 0,
      "note": 38,
      "start": 11.7165,
      "duration": 0.0161,
      "velocity": 115,
      "chip": "ym2612"
    },
    {
      "channel": 2,
      "note": 55,
      "start": 11.7199,
      "duration": 0.0161,
      "velocity": 100,
      "chip": "ym2612"
    },
    {
      "channel": 1,
      "note": 105,
      "start": 11.7309,
      "duration": 0.0161,
      "velocity": 105,
      "chip": "ym2612"
    },
    {
      "channel": 0,
      "note": 38,
      "start": 11.7326,
      "duration": 0.0161,
      "velocity": 115,
      "chip": "ym2612"
    },
    {
      "channel": 2,
      "note": 55,
      "start": 11.736,
      "duration": 0.0161,
      "velocity": 100,
      "chip": "ym2612"
    },
    {
      "channel": 1,
      "note": 105,
      "start": 11.747,
      "duration": 0.0186,
      "velocity": 124,
      "chip": "ym2612"
    },
    {
      "channel": 0,
      "note": 39,
      "start": 11.7486,
      "duration": 0.0205,
      "velocity": 115,
      "chip": "ym2612"
    },
    {
      "channel": 2,
      "note": 55,
      "start": 11.7521,
      "duration": 0.0208,
      "velocity": 100,
      "chip": "ym2612"
    },
    {
      "channel": 1,
      "note": 64,
      "start": 11.7657,
      "duration": 0.015,
      "velocity": 124,
      "chip": "ym2612"
    },
    {
      "channel": 0,
      "note": 36,
      "start": 11.7692,
      "duration": 0.0132,
      "velocity": 115,
      "chip": "ym2612"
    },
    {
      "channel": 2,
      "note": 55,
      "start": 11.7729,
      "duration": 0.013,
      "velocity": 100,
      "chip": "ym2612"
    },
    {
      "channel": 1,
      "note": 64,
      "start": 11.7807,
      "duration": 0.0162,
      "velocity": 124,
      "chip": "ym2612"
    },
    {
      "channel": 0,
      "note": 36,
      "start": 11.7824,
      "duration": 0.0162,
      "velocity": 115,
      "chip": "ym2612"
    },
    {
      "channel": 2,
      "note": 55,
      "start": 11.7859,
      "duration": 0.0161,
      "velocity": 100,
      "chip": "ym2612"
    },
    {
      "channel": 1,
      "note": 64,
      "start": 11.7969,
      "duration": 0.0147,
      "velocity": 124,
      "chip": "ym2612"
    },
    {
      "channel": 0,
      "note": 37,
      "start": 11.7986,
      "duration": 0.0147,
      "velocity": 115,
      "chip": "ym2612"
    },
    {
      "channel": 2,
      "note": 55,
      "start": 11.802,
      "duration": 0.0147,
      "velocity": 100,
      "chip": "ym2612"
    },
    {
      "channel": 1,
      "note": 64,
      "start": 11.8116,
      "duration": 0.0186,
      "velocity": 124,
      "chip": "ym2612"
    },
    {
      "channel": 0,
      "note": 37,
      "start": 11.8133,
      "duration": 0.0186,
      "velocity": 115,
      "chip": "ym2612"
    },
    {
      "channel": 2,
      "note": 55,
      "start": 11.8167,
      "duration": 0.0186,
      "velocity": 100,
      "chip": "ym2612"
    },
    {
      "channel": 1,
      "note": 64,
      "start": 11.8303,
      "duration": 0.0161,
      "velocity": 124,
      "chip": "ym2612"
    },
    {
      "channel": 0,
      "note": 38,
      "start": 11.8319,
      "duration": 0.0161,
      "velocity": 115,
      "chip": "ym2612"
    },
    {
      "channel": 2,
      "note": 55,
      "start": 11.8354,
      "duration": 0.0161,
      "velocity": 100,
      "chip": "ym2612"
    },
    {
      "channel": 1,
      "note": 64,
      "start": 11.8463,
      "duration": 0.0134,
      "velocity": 124,
      "chip": "ym2612"
    },
    {
      "channel": 0,
      "note": 38,
      "start": 11.848,
      "duration": 0.0158,
      "velocity": 115,
      "chip": "ym2612"
    },
    {
      "channel": 2,
      "note": 55,
      "start": 11.8515,
      "duration": 0.0158,
      "velocity": 100,
      "chip": "ym2612"
    },
    {
      "channel": 1,
      "note": 64,
      "start": 11.8597,
      "duration": 0.018,
      "velocity": 105,
      "chip": "ym2612"
    },
    {
      "channel": 0,
      "note": 39,
      "start": 11.8638,
      "duration": 0.0157,
      "velocity": 115,
      "chip": "ym2612"
    },
    {
      "channel": 2,
      "note": 55,
      "start": 11.8672,
      "duration": 0.016,
      "velocity": 100,
      "chip": "ym2612"
    },
    {
      "channel": 1,
      "note": 105,
      "start": 11.8778,
      "duration": 0.0141,
      "velocity": 105,
      "chip": "ym2612"
    },
    {
      "channel": 0,
      "note": 39,
      "start": 11.8795,
      "duration": 0.0168,
      "velocity": 115,
      "chip": "ym2612"
    },
    {
      "channel": 2,
      "note": 55,
      "start": 11.8833,
      "duration": 0.0166,
      "velocity": 100,
      "chip": "ym2612"
    },
    {
      "channel": 1,
      "note": 105,
      "start": 11.892,
      "duration": 0.016,
      "velocity": 105,
      "chip": "ym2612"
    },
    {
      "channel": 0,
      "note": 40,
      "start": 11.8963,
      "duration": 0.0133,
      "velocity": 115,
      "chip": "ym2612"
    },
    {
      "channel": 2,
      "note": 55,
      "start": 11.8999,
      "duration": 0.016,
      "velocity": 100,
      "chip": "ym2612"
    },
    {
      "channel": 1,
      "note": 105,
      "start": 11.908,
      "duration": 0.0161,
      "velocity": 105,
      "chip": "ym2612"
    },
    {
      "channel": 0,
      "note": 40,
      "start": 11.9097,
      "duration": 0.0161,
      "velocity": 115,
      "chip": "ym2612"
    },
    {
      "channel": 2,
      "note": 55,
      "start": 11.9159,
      "duration": 0.0157,
      "velocity": 100,
      "chip": "ym2612"
    },
    {
      "channel": 1,
      "note": 105,
      "start": 11.9241,
      "duration": 0.0161,
      "velocity": 105,
      "chip": "ym2612"
    },
    {
      "channel": 0,
      "note": 40,
      "start": 11.9258,
      "duration": 0.0161,
      "velocity": 115,
      "chip": "ym2612"
    },
    {
      "channel": 2,
      "note": 55,
      "start": 11.9316,
      "duration": 0.0141,
      "velocity": 100,
      "chip": "ym2612"
    },
    {
      "channel": 1,
      "note": 105,
      "start": 11.9402,
      "duration": 0.0161,
      "velocity": 105,
      "chip": "ym2612"
    },
    {
      "channel": 0,
      "note": 41,
      "start": 11.9418,
      "duration": 0.0162,
      "velocity": 115,
      "chip": "ym2612"
    },
    {
      "channel": 2,
      "note": 55,
      "start": 11.9457,
      "duration": 0.0185,
      "velocity": 100,
      "chip": "ym2612"
    },
    {
      "channel": 1,
      "note": 105,
      "start": 11.9563,
      "duration": 0.0162,
      "velocity": 105,
      "chip": "ym2612"
    },
    {
      "channel": 0,
      "note": 41,
      "start": 11.958,
      "duration": 0.0161,
      "velocity": 115,
      "chip": "ym2612"
    },
    {
      "channel": 2,
      "note": 55,
      "start": 11.9642,
      "duration": 0.0161,
      "velocity": 100,
      "chip": "ym2612"
    },
    {
      "channel": 1,
      "note": 105,
      "start": 11.9724,
      "duration": 0.0177,
      "velocity": 124,
      "chip": "ym2612"
    },
    {
      "channel": 0,
      "note": 42,
      "start": 11.9741,
      "duration": 0.0178,
      "velocity": 115,
      "chip": "ym2612"
    },
    {
      "channel": 2,
      "note": 55,
      "start": 11.9803,
      "duration": 0.0177,
      "velocity": 100,
      "chip": "ym2612"
    },
    {
      "channel": 1,
      "note": 64,
      "start": 11.9902,
      "duration": 0.0144,
      "velocity": 124,
      "chip": "ym2612"
    },
    {
      "channel": 0,
      "note": 42,
      "start": 11.9919,
      "duration": 0.0144,
      "velocity": 115,
      "chip": "ym2612"
    },
    {
      "channel": 2,
      "note": 55,
      "start": 11.9981,
      "duration": 0.0119,
      "velocity": 100,
      "chip": "ym2612"
    },
    {
      "channel": 1,
      "note": 64,
      "start": 12.0047,
      "duration": 0.016,
      "velocity": 124,
      "chip": "ym2612"
    },
    {
      "channel": 0,
      "note": 43,
      "start": 12.0063,
      "duration": 0.016,
      "velocity": 115,
      "chip": "ym2612"
    },
    {
      "channel": 2,
      "note": 55,
      "start": 12.01,
      "duration": 0.0158,
      "velocity": 100,
      "chip": "ym2612"
    },
    {
      "channel": 1,
      "note": 64,
      "start": 12.0207,
      "duration": 0.0161,
      "velocity": 124,
      "chip": "ym2612"
    },
    {
      "channel": 0,
      "note": 43,
      "start": 12.0224,
      "duration": 0.0161,
      "velocity": 115,
      "chip": "ym2612"
    },
    {
      "channel": 2,
      "note": 55,
      "start": 12.0258,
      "duration": 0.0161,
      "velocity": 100,
      "chip": "ym2612"
    },
    {
      "channel": 1,
      "note": 64,
      "start": 12.0368,
      "duration": 0.0161,
      "velocity": 124,
      "chip": "ym2612"
    },
    {
      "channel": 0,
      "note": 44,
      "start": 12.0385,
      "duration": 0.0161,
      "velocity": 115,
      "chip": "ym2612"
    },
    {
      "channel": 2,
      "note": 55,
      "start": 12.0419,
      "duration": 0.0161,
      "velocity": 100,
      "chip": "ym2612"
    },
    {
      "channel": 1,
      "note": 64,
      "start": 12.0529,
      "duration": 0.0161,
      "velocity": 124,
      "chip": "ym2612"
    },
    {
      "channel": 0,
      "note": 44,
      "start": 12.0546,
      "duration": 0.0162,
      "velocity": 115,
      "chip": "ym2612"
    },
    {
      "channel": 2,
      "note": 55,
      "start": 12.058,
      "duration": 0.0161,
      "velocity": 100,
      "chip": "ym2612"
    },
    {
      "channel": 1,
      "note": 64,
      "start": 12.069,
      "duration": 0.0161,
      "velocity": 124,
      "chip": "ym2612"
    },
    {
      "channel": 0,
      "note": 44,
      "start": 12.0707,
      "duration": 0.0161,
      "velocity": 115,
      "chip": "ym2612"
    },
    {
      "channel": 2,
      "note": 55,
      "start": 12.0741,
      "duration": 0.0161,
      "velocity": 100,
      "chip": "ym2612"
    },
    {
      "channel": 1,
      "note": 64,
      "start": 12.0851,
      "duration": 0.0178,
      "velocity": 105,
      "chip": "ym2612"
    },
    {
      "channel": 0,
      "note": 45,
      "start": 12.0868,
      "duration": 0.0178,
      "velocity": 115,
      "chip": "ym2612"
    },
    {
      "channel": 2,
      "note": 55,
      "start": 12.0902,
      "duration": 0.0181,
      "velocity": 100,
      "chip": "ym2612"
    },
    {
      "channel": 1,
      "note": 105,
      "start": 12.1029,
      "duration": 0.0144,
      "velocity": 105,
      "chip": "ym2612"
    },
    {
      "channel": 0,
      "note": 45,
      "start": 12.1046,
      "duration": 0.0144,
      "velocity": 115,
      "chip": "ym2612"
    },
    {
      "channel": 2,
      "note": 55,
      "start": 12.1084,
      "duration": 0.0142,
      "velocity": 100,
      "chip": "ym2612"
    },
    {
      "channel": 1,
      "note": 105,
      "start": 12.1173,
      "duration": 0.0161,
      "velocity": 105,
      "chip": "ym2612"
    },
    {
      "channel": 0,
      "note": 46,
      "start": 12.1191,
      "duration": 0.016,
      "velocity": 115,
      "chip": "ym2612"
    },
    {
      "channel": 2,
      "note": 55,
      "start": 12.1226,
      "duration": 0.016,
      "velocity": 100,
      "chip": "ym2612"
    },
    {
      "channel": 1,
      "note": 105,
      "start": 12.1334,
      "duration": 0.0161,
      "velocity": 105,
      "chip": "ym2612"
    },
    {
      "channel": 0,
      "note": 46,
      "start": 12.1351,
      "duration": 0.0161,
      "velocity": 115,
      "chip": "ym2612"
    },
    {
      "channel": 2,
      "note": 55,
      "start": 12.1385,
      "duration": 0.0161,
      "velocity": 100,
      "chip": "ym2612"
    },
    {
      "channel": 1,
      "note": 105,
      "start": 12.1495,
      "duration": 0.0161,
      "velocity": 105,
      "chip": "ym2612"
    },
    {
      "channel": 0,
      "note": 47,
      "start": 12.1512,
      "duration": 0.0161,
      "velocity": 115,
      "chip": "ym2612"
    },
    {
      "channel": 2,
      "note": 55,
      "start": 12.1546,
      "duration": 0.0161,
      "velocity": 100,
      "chip": "ym2612"
    },
    {
      "channel": 1,
      "note": 105,
      "start": 12.1656,
      "duration": 0.0161,
      "velocity": 105,
      "chip": "ym2612"
    },
    {
      "channel": 0,
      "note": 47,
      "start": 12.1673,
      "duration": 0.0161,
      "velocity": 115,
      "chip": "ym2612"
    },
    {
      "channel": 2,
      "note": 55,
      "start": 12.1707,
      "duration": 0.0161,
      "velocity": 100,
      "chip": "ym2612"
    },
    {
      "channel": 1,
      "note": 105,
      "start": 12.1817,
      "duration": 0.0161,
      "velocity": 105,
      "chip": "ym2612"
    },
    {
      "channel": 0,
      "note": 47,
      "start": 12.1834,
      "duration": 0.0161,
      "velocity": 115,
      "chip": "ym2612"
    },
    {
      "channel": 2,
      "note": 55,
      "start": 12.1868,
      "duration": 0.0161,
      "velocity": 100,
      "chip": "ym2612"
    },
    {
      "channel": 1,
      "note": 105,
      "start": 12.1978,
      "duration": 0.0184,
      "velocity": 124,
      "chip": "ym2612"
    },
    {
      "channel": 0,
      "note": 48,
      "start": 12.1995,
      "duration": 0.0191,
      "velocity": 115,
      "chip": "ym2612"
    },
    {
      "channel": 2,
      "note": 55,
      "start": 12.2029,
      "duration": 0.0194,
      "velocity": 100,
      "chip": "ym2612"
    },
    {
      "channel": 1,
      "note": 78,
      "start": 12.2162,
      "duration": 0.015,
      "velocity": 124,
      "chip": "ym2612"
    },
    {
      "channel": 0,
      "note": 48,
      "start": 12.2186,
      "duration": 0.0145,
      "velocity": 115,
      "chip": "ym2612"
    },
    {
      "channel": 2,
      "note": 55,
      "start": 12.2224,
      "duration": 0.0142,
      "velocity": 100,
      "chip": "ym2612"
    },
    {
      "channel": 1,
      "note": 76,
      "start": 12.2312,
      "duration": 0.0165,
      "velocity": 124,
      "chip": "ym2612"
    },
    {
      "channel": 0,
      "note": 49,
      "start": 12.2331,
      "duration": 0.0157,
      "velocity": 1,
      "chip": "ym2612"
    },
    {
      "channel": 2,
      "note": 55,
      "start": 12.2366,
      "duration": 0.0156,
      "velocity": 100,
      "chip": "ym2612"
    },
    {
      "channel": 1,
      "note": 75,
      "start": 12.2478,
      "duration": 0.0163,
      "velocity": 124,
      "chip": "ym2612"
    },
    {
      "channel": 2,
      "note": 55,
      "start": 12.2523,
      "duration": 0.0155,
      "velocity": 100,
      "chip": "ym2612"
    },
    {
      "channel": 1,
      "note": 74,
      "start": 12.2641,
      "duration": 0.0148,
      "velocity": 124,
      "chip": "ym2612"
    },
    {
      "channel": 2,
      "note": 55,
      "start": 12.2678,
      "duration": 0.0147,
      "velocity": 100,
      "chip": "ym2612"
    },
    {
      "channel": 1,
      "note": 72,
      "start": 12.2789,
      "duration": 0.0188,
      "velocity": 124,
      "chip": "ym2612"
    },
    {
      "channel": 2,
      "note": 55,
      "start": 12.2825,
      "duration": 0.0189,
      "velocity": 100,
      "chip": "ym2612"
    },
    {
      "channel": 1,
      "note": 71,
      "start": 12.2977,
      "duration": 0.0161,
      "velocity": 124,
      "chip": "ym2612"
    },
    {
      "channel": 2,
      "note": 55,
      "start": 12.3014,
      "duration": 0.0161,
      "velocity": 100,
      "chip": "ym2612"
    },
    {
      "channel": 1,
      "note": 70,
      "start": 12.3138,
      "duration": 0.0157,
      "velocity": 124,
      "chip": "ym2612"
    },
    {
      "channel": 2,
      "note": 55,
      "start": 12.3175,
      "duration": 0.0165,
      "velocity": 100,
      "chip": "ym2612"
    },
    {
      "channel": 1,
      "note": 69,
      "start": 12.3295,
      "duration": 0.0141,
      "velocity": 124,
      "chip": "ym2612"
    },
    {
      "channel": 2,
      "note": 55,
      "start": 12.334,
      "duration": 0.0133,
      "velocity": 100,
      "chip": "ym2612"
    },
    {
      "channel": 1,
      "note": 68,
      "start": 12.3436,
      "duration": 0.0158,
      "velocity": 124,
      "chip": "ym2612"
    },
    {
      "channel": 2,
      "note": 55,
      "start": 12.3473,
      "duration": 0.0184,
      "velocity": 100,
      "chip": "ym2612"
    },
    {
      "channel": 1,
      "note": 66,
      "start": 12.3593,
      "duration": 0.0161,
      "velocity": 124,
      "chip": "ym2612"
    },
    {
      "channel": 2,
      "note": 55,
      "start": 12.3658,
      "duration": 0.0161,
      "velocity": 100,
      "chip": "ym2612"
    },
    {
      "channel": 1,
      "note": 65,
      "start": 12.3754,
      "duration": 0.0161,
      "velocity": 124,
      "chip": "ym2612"
    },
    {
      "channel": 2,
      "note": 55,
      "start": 12.3819,
      "duration": 0.0157,
      "velocity": 100,
      "chip": "ym2612"
    },
    {
      "channel": 1,
      "note": 64,
      "start": 12.3915,
      "duration": 0.0161,
      "velocity": 124,
      "chip": "ym2612"
    },
    {
      "channel": 2,
      "note": 55,
      "start": 12.3976,
      "duration": 0.0141,
      "velocity": 100,
      "chip": "ym2612"
    },
    {
      "channel": 1,
      "note": 62,
      "start": 12.4076,
      "duration": 0.0161,
      "velocity": 124,
      "chip": "ym2612"
    },
    {
      "channel": 2,
      "note": 55,
      "start": 12.4116,
      "duration": 0.0185,
      "velocity": 100,
      "chip": "ym2612"
    },
    {
      "channel": 1,
      "note": 61,
      "start": 12.4237,
      "duration": 0.0161,
      "velocity": 124,
      "chip": "ym2612"
    },
    {
      "channel": 2,
      "note": 55,
      "start": 12.4301,
      "duration": 0.0169,
      "velocity": 100,
      "chip": "ym2612"
    },
    {
      "channel": 1,
      "note": 60,
      "start": 12.4399,
      "duration": 0.0161,
      "velocity": 124,
      "chip": "ym2612"
    },
    {
      "channel": 2,
      "note": 48,
      "start": 12.4471,
      "duration": 0.0126,
      "velocity": 100,
      "chip": "ym2612"
    },
    {
      "channel": 1,
      "note": 59,
      "start": 12.456,
      "duration": 0.0161,
      "velocity": 124,
      "chip": "ym2612"
    },
    {
      "channel": 2,
      "note": 48,
      "start": 12.4597,
      "duration": 0.016,
      "velocity": 100,
      "chip": "ym2612"
    },
    {
      "channel": 1,
      "note": 57,
      "start": 12.4721,
      "duration": 0.0161,
      "velocity": 124,
      "chip": "ym2612"
    },
    {
      "channel": 2,
      "note": 48,
      "start": 12.4757,
      "duration": 0.0161,
      "velocity": 100,
      "chip": "ym2612"
    },
    {
      "channel": 1,
      "note": 56,
      "start": 12.4882,
      "duration": 0.0161,
      "velocity": 124,
      "chip": "ym2612"
    },
    {
      "channel": 2,
      "note": 48,
      "start": 12.4918,
      "duration": 0.0161,
      "velocity": 100,
      "chip": "ym2612"
    },
    {
      "channel": 1,
      "note": 55,
      "start": 12.5042,
      "duration": 0.0161,
      "velocity": 124,
      "chip": "ym2612"
    },
    {
      "channel": 2,
      "note": 48,
      "start": 12.5079,
      "duration": 0.0161,
      "velocity": 100,
      "chip": "ym2612"
    },
    {
      "channel": 1,
      "note": 53,
      "start": 12.5203,
      "duration": 0.0161,
      "velocity": 124,
      "chip": "ym2612"
    },
    {
      "channel": 2,
      "note": 48,
      "start": 12.524,
      "duration": 0.0161,
      "velocity": 100,
      "chip": "ym2612"
    },
    {
      "channel": 1,
      "note": 52,
      "start": 12.5364,
      "duration": 0.0161,
      "velocity": 124,
      "chip": "ym2612"
    },
    {
      "channel": 2,
      "note": 48,
      "start": 12.5401,
      "duration": 0.0231,
      "velocity": 100,
      "chip": "ym2612"
    },
    {
      "channel": 1,
      "note": 51,
      "start": 12.5525,
      "duration": 0.0153,
      "velocity": 1,
      "chip": "ym2612"
    },
    {
      "channel": 0,
      "note": 78,
      "start": 12.5568,
      "duration": 0.0149,
      "velocity": 127,
      "chip": "ym2612"
    },
    {
      "channel": 2,
      "note": 48,
      "start": 12.5632,
      "duration": 0.012,
      "velocity": 100,
      "chip": "ym2612"
    },
    {
      "channel": 1,
      "note": 51,
      "start": 12.57,
      "duration": 0.0142,
      "velocity": 105,
      "chip": "ym2612"
    },
    {
      "channel": 0,
      "note": 76,
      "start": 12.5717,
      "duration": 0.0142,
      "velocity": 127,
      "chip": "ym2612"
    },
    {
      "channel": 2,
      "note": 48,
      "start": 12.5752,
      "duration": 0.0141,
      "velocity": 100,
      "chip": "ym2612"
    },
    {
      "channel": 1,
      "note": 105,
      "start": 12.5843,
      "duration": 0.0161,
      "velocity": 105,
      "chip": "ym2612"
    },
    {
      "channel": 0,
      "note": 75,
      "start": 12.5859,
      "duration": 0.0161,
      "velocity": 127,
      "chip": "ym2612"
    },
    {
      "channel": 2,
      "note": 48,
      "start": 12.5894,
      "duration": 0.0161,
      "velocity": 100,
      "chip": "ym2612"
    },
    {
      "channel": 1,
      "note": 105,
      "start": 12.6004,
      "duration": 0.0161,
      "velocity": 105,
      "chip": "ym2612"
    },
    {
      "channel": 0,
      "note": 73,
      "start": 12.602,
      "duration": 0.0161,
      "velocity": 127,
      "chip": "ym2612"
    },
    {
      "channel": 2,
      "note": 48,
      "start": 12.6055,
      "duration": 0.0161,
      "velocity": 100,
      "chip": "ym2612"
    },
    {
      "channel": 1,
      "note": 105,
      "start": 12.6165,
      "duration": 0.0161,
      "velocity": 105,
      "chip": "ym2612"
    },
    {
      "channel": 0,
      "note": 71,
      "start": 12.6181,
      "duration": 0.0161,
      "velocity": 127,
      "chip": "ym2612"
    },
    {
      "channel": 2,
      "note": 48,
      "start": 12.6215,
      "duration": 0.0161,
      "velocity": 100,
      "chip": "ym2612"
    },
    {
      "channel": 1,
      "note": 105,
      "start": 12.6326,
      "duration": 0.0161,
      "velocity": 105,
      "chip": "ym2612"
    },
    {
      "channel": 0,
      "note": 70,
      "start": 12.6342,
      "duration": 0.0161,
      "velocity": 127,
      "chip": "ym2612"
    },
    {
      "channel": 2,
      "note": 48,
      "start": 12.6376,
      "duration": 0.0161,
      "velocity": 100,
      "chip": "ym2612"
    },
    {
      "channel": 1,
      "note": 105,
      "start": 12.6486,
      "duration": 0.0178,
      "velocity": 124,
      "chip": "ym2612"
    },
    {
      "channel": 0,
      "note": 68,
      "start": 12.6503,
      "duration": 0.0197,
      "velocity": 115,
      "chip": "ym2612"
    },
    {
      "channel": 2,
      "note": 48,
      "start": 12.6537,
      "duration": 0.0199,
      "velocity": 100,
      "chip": "ym2612"
    },
    {
      "channel": 1,
      "note": 64,
      "start": 12.6665,
      "duration": 0.0144,
      "velocity": 124,
      "chip": "ym2612"
    },
    {
      "channel": 0,
      "note": 36,
      "start": 12.67,
      "duration": 0.0127,
      "velocity": 115,
      "chip": "ym2612"
    },
    {
      "channel": 2,
      "note": 50,
      "start": 12.6737,
      "duration": 0.0125,
      "velocity": 100,
      "chip": "ym2612"
    },
    {
      "channel": 1,
      "note": 64,
      "start": 12.6809,
      "duration": 0.0164,
      "velocity": 124,
      "chip": "ym2612"
    },
    {
      "channel": 0,
      "note": 36,
      "start": 12.6827,
      "duration": 0.0163,
      "velocity": 115,
      "chip": "ym2612"
    },
    {
      "channel": 2,
      "note": 50,
      "start": 12.6862,
      "duration": 0.0162,
      "velocity": 100,
      "chip": "ym2612"
    },
    {
      "channel": 1,
      "note": 64,
      "start": 12.6973,
      "duration": 0.0167,
      "velocity": 124,
      "chip": "ym2612"
    },
    {
      "channel": 0,
      "note": 37,
      "start": 12.699,
      "duration": 0.0167,
      "velocity": 115,
      "chip": "ym2612"
    },
    {
      "channel": 2,
      "note": 50,
      "start": 12.7024,
      "duration": 0.0167,
      "velocity": 100,
      "chip": "ym2612"
    },
    {
      "channel": 1,
      "note": 64,
      "start": 12.714,
      "duration": 0.0163,
      "velocity": 124,
      "chip": "ym2612"
    },
    {
      "channel": 0,
      "note": 37,
      "start": 12.7156,
      "duration": 0.0163,
      "velocity": 115,
      "chip": "ym2612"
    },
    {
      "channel": 2,
      "note": 50,
      "start": 12.7191,
      "duration": 0.0163,
      "velocity": 100,
      "chip": "ym2612"
    },
    {
      "channel": 1,
      "note": 64,
      "start": 12.7303,
      "duration": 0.015,
      "velocity": 124,
      "chip": "ym2612"
    },
    {
      "channel": 0,
      "note": 38,
      "start": 12.7319,
      "duration": 0.015,
      "velocity": 115,
      "chip": "ym2612"
    },
    {
      "channel": 2,
      "note": 50,
      "start": 12.7354,
      "duration": 0.015,
      "velocity": 100,
      "chip": "ym2612"
    },
    {
      "channel": 1,
      "note": 64,
      "start": 12.7453,
      "duration": 0.0187,
      "velocity": 124,
      "chip": "ym2612"
    },
    {
      "channel": 0,
      "note": 38,
      "start": 12.7469,
      "duration": 0.0187,
      "velocity": 115,
      "chip": "ym2612"
    },
    {
      "channel": 2,
      "note": 50,
      "start": 12.7504,
      "duration": 0.0187,
      "velocity": 100,
      "chip": "ym2612"
    },
    {
      "channel": 1,
      "note": 64,
      "start": 12.764,
      "duration": 0.0179,
      "velocity": 105,
      "chip": "ym2612"
    },
    {
      "channel": 0,
      "note": 39,
      "start": 12.7656,
      "duration": 0.018,
      "velocity": 115,
      "chip": "ym2612"
    },
    {
      "channel": 2,
      "note": 50,
      "start": 12.7691,
      "duration": 0.0185,
      "velocity": 100,
      "chip": "ym2612"
    },
    {
      "channel": 1,
      "note": 105,
      "start": 12.7819,
      "duration": 0.0141,
      "velocity": 105,
      "chip": "ym2612"
    },
    {
      "channel": 0,
      "note": 39,
      "start": 12.7836,
      "duration": 0.0141,
      "velocity": 115,
      "chip": "ym2612"
    },
    {
      "channel": 2,
      "note": 50,
      "start": 12.7876,
      "duration": 0.0137,
      "velocity": 100,
      "chip": "ym2612"
    },
    {
      "channel": 1,
      "note": 105,
      "start": 12.796,
      "duration": 0.0136,
      "velocity": 105,
      "chip": "ym2612"
    },
    {
      "channel": 0,
      "note": 40,
      "start": 12.7977,
      "duration": 0.0139,
      "velocity": 115,
      "chip": "ym2612"
    },
    {
      "channel": 2,
      "note": 50,
      "start": 12.8013,
      "duration": 0.0139,
      "velocity": 100,
      "chip": "ym2612"
    },
    {
      "channel": 1,
      "note": 105,
      "start": 12.8097,
      "duration": 0.0161,
      "velocity": 105,
      "chip": "ym2612"
    },
    {
      "channel": 0,
      "note": 40,
      "start": 12.8116,
      "duration": 0.0186,
      "velocity": 115,
      "chip": "ym2612"
    },
    {
      "channel": 2,
      "note": 50,
      "start": 12.8151,
      "duration": 0.0185,
      "velocity": 100,
      "chip": "ym2612"
    },
    {
      "channel": 1,
      "note": 105,
      "start": 12.8258,
      "duration": 0.0161,
      "velocity": 105,
      "chip": "ym2612"
    },
    {
      "channel": 0,
      "note": 40,
      "start": 12.8302,
      "duration": 0.0161,
      "velocity": 115,
      "chip": "ym2612"
    },
    {
      "channel": 2,
      "note": 50,
      "start": 12.8336,
      "duration": 0.0161,
      "velocity": 100,
      "chip": "ym2612"
    },
    {
      "channel": 1,
      "note": 105,
      "start": 12.8418,
      "duration": 0.0162,
      "velocity": 105,
      "chip": "ym2612"
    },
    {
      "channel": 0,
      "note": 41,
      "start": 12.8463,
      "duration": 0.0134,
      "velocity": 115,
      "chip": "ym2612"
    },
    {
      "channel": 2,
      "note": 50,
      "start": 12.8497,
      "duration": 0.0158,
      "velocity": 100,
      "chip": "ym2612"
    },
    {
      "channel": 1,
      "note": 105,
      "start": 12.858,
      "duration": 0.0161,
      "velocity": 105,
      "chip": "ym2612"
    },
    {
      "channel": 0,
      "note": 41,
      "start": 12.8597,
      "duration": 0.0161,
      "velocity": 115,
      "chip": "ym2612"
    },
    {
      "channel": 2,
      "note": 50,
      "start": 12.8655,
      "duration": 0.014,
      "velocity": 100,
      "chip": "ym2612"
    },
    {
      "channel": 1,
      "note": 105,
      "start": 12.8741,
      "duration": 0.0178,
      "velocity": 124,
      "chip": "ym2612"
    },
    {
      "channel": 0,
      "note": 42,
      "start": 12.8758,
      "duration": 0.0206,
      "velocity": 115,
      "chip": "ym2612"
    },
    {
      "channel": 2,
      "note": 50,
      "start": 12.8795,
      "duration": 0.0207,
      "velocity": 100,
      "chip": "ym2612"
    },
    {
      "channel": 1,
      "note": 64,
      "start": 12.8919,
      "duration": 0.0144,
      "velocity": 124,
      "chip": "ym2612"
    },
    {
      "channel": 0,
      "note": 42,
      "start": 12.8963,
      "duration": 0.0117,
      "velocity": 115,
      "chip": "ym2612"
    },
    {
      "channel": 2,
      "note": 50,
      "start": 12.9003,
      "duration": 0.014,
      "velocity": 100,
      "chip": "ym2612"
    },
    {
      "channel": 1,
      "note": 64,
      "start": 12.9063,
      "duration": 0.016,
      "velocity": 124,
      "chip": "ym2612"
    },
    {
      "channel": 0,
      "note": 43,
      "start": 12.908,
      "duration": 0.016,
      "velocity": 115,
      "chip": "ym2612"
    },
    {
      "channel": 2,
      "note": 50,
      "start": 12.9143,
      "duration": 0.0156,
      "velocity": 100,
      "chip": "ym2612"
    },
    {
      "channel": 1,
      "note": 64,
      "start": 12.9224,
      "duration": 0.0161,
      "velocity": 124,
      "chip": "ym2612"
    },
    {
      "channel": 0,
      "note": 43,
      "start": 12.924,
      "duration": 0.0161,
      "velocity": 115,
      "chip": "ym2612"
    },
    {
      "channel": 2,
      "note": 50,
      "start": 12.9299,
      "duration": 0.0141,
      "velocity": 100,
      "chip": "ym2612"
    },
    {
      "channel": 1,
      "note": 64,
      "start": 12.9385,
      "duration": 0.0161,
      "velocity": 124,
      "chip": "ym2612"
    },
    {
      "channel": 0,
      "note": 44,
      "start": 12.9401,
      "duration": 0.0161,
      "velocity": 115,
      "chip": "ym2612"
    },
    {
      "channel": 2,
      "note": 50,
      "start": 12.9439,
      "duration": 0.0158,
      "velocity": 100,
      "chip": "ym2612"
    },
    {
      "channel": 1,
      "note": 64,
      "start": 12.9546,
      "duration": 0.0161,
      "velocity": 124,
      "chip": "ym2612"
    },
    {
      "channel": 0,
      "note": 44,
      "start": 12.9563,
      "duration": 0.0161,
      "velocity": 115,
      "chip": "ym2612"
    },
    {
      "channel": 2,
      "note": 50,
      "start": 12.9597,
      "duration": 0.0161,
      "velocity": 100,
      "chip": "ym2612"
    },
    {
      "channel": 1,
      "note": 64,
      "start": 12.9707,
      "duration": 0.0162,
      "velocity": 124,
      "chip": "ym2612"
    },
    {
      "channel": 0,
      "note": 44,
      "start": 12.9724,
      "duration": 0.0161,
      "velocity": 115,
      "chip": "ym2612"
    },
    {
      "channel": 2,
      "note": 50,
      "start": 12.9758,
      "duration": 0.0161,
      "velocity": 100,
      "chip": "ym2612"
    },
    {
      "channel": 1,
      "note": 64,
      "start": 12.9868,
      "duration": 0.0177,
      "velocity": 105,
      "chip": "ym2612"
    },
    {
      "channel": 0,
      "note": 45,
      "start": 12.9885,
      "duration": 0.0178,
      "velocity": 115,
      "chip": "ym2612"
    },
    {
      "channel": 2,
      "note": 50,
      "start": 12.9919,
      "duration": 0.0184,
      "velocity": 100,
      "chip": "ym2612"
    },
    {
      "channel": 1,
      "note": 105,
      "start": 13.0046,
      "duration": 0.0144,
      "velocity": 105,
      "chip": "ym2612"
    },
    {
      "channel": 0,
      "note": 45,
      "start": 13.0063,
      "duration": 0.0144,
      "velocity": 115,
      "chip": "ym2612"
    },
    {
      "channel": 2,
      "note": 50,
      "start": 13.0104,
      "duration": 0.0139,
      "velocity": 100,
      "chip": "ym2612"
    },
    {
      "channel": 1,
      "note": 105,
      "start": 13.019,
      "duration": 0.0161,
      "velocity": 105,
      "chip": "ym2612"
    },
    {
      "channel": 0,
      "note": 46,
      "start": 13.0207,
      "duration": 0.016,
      "velocity": 115,
      "chip": "ym2612"
    },
    {
      "channel": 2,
      "note": 50,
      "start": 13.0242,
      "duration": 0.016,
      "velocity": 100,
      "chip": "ym2612"
    },
    {
      "channel": 1,
      "note": 105,
      "start": 13.0351,
      "duration": 0.0161,
      "velocity": 105,
      "chip": "ym2612"
    },
    {
      "channel": 0,
      "note": 46,
      "start": 13.0368,
      "duration": 0.0161,
      "velocity": 115,
      "chip": "ym2612"
    },
    {
      "channel": 2,
      "note": 50,
      "start": 13.0402,
      "duration": 0.0161,
      "velocity": 100,
      "chip": "ym2612"
    },
    {
      "channel": 1,
      "note": 105,
      "start": 13.0512,
      "duration": 0.0161,
      "velocity": 105,
      "chip": "ym2612"
    },
    {
      "channel": 0,
      "note": 47,
      "start": 13.0529,
      "duration": 0.0161,
      "velocity": 115,
      "chip": "ym2612"
    },
    {
      "channel": 2,
      "note": 50,
      "start": 13.0563,
      "duration": 0.0161,
      "velocity": 100,
      "chip": "ym2612"
    },
    {
      "channel": 1,
      "note": 105,
      "start": 13.0673,
      "duration": 0.0161,
      "velocity": 105,
      "chip": "ym2612"
    },
    {
      "channel": 0,
      "note": 47,
      "start": 13.0689,
      "duration": 0.0161,
      "velocity": 115,
      "chip": "ym2612"
    },
    {
      "channel": 2,
      "note": 50,
      "start": 13.0724,
      "duration": 0.0161,
      "velocity": 100,
      "chip": "ym2612"
    },
    {
      "channel": 1,
      "note": 105,
      "start": 13.0834,
      "duration": 0.0161,
      "velocity": 105,
      "chip": "ym2612"
    },
    {
      "channel": 0,
      "note": 47,
      "start": 13.085,
      "duration": 0.0161,
      "velocity": 115,
      "chip": "ym2612"
    },
    {
      "channel": 2,
      "note": 50,
      "start": 13.0885,
      "duration": 0.0161,
      "velocity": 100,
      "chip": "ym2612"
    },
    {
      "channel": 1,
      "note": 105,
      "start": 13.0995,
      "duration": 0.0184,
      "velocity": 124,
      "chip": "ym2612"
    },
    {
      "channel": 0,
      "note": 48,
      "start": 13.1011,
      "duration": 0.0191,
      "velocity": 115,
      "chip": "ym2612"
    },
    {
      "channel": 2,
      "note": 50,
      "start": 13.1046,
      "duration": 0.0194,
      "velocity": 100,
      "chip": "ym2612"
    },
    {
      "channel": 1,
      "note": 78,
      "start": 13.1179,
      "duration": 0.0144,
      "velocity": 124,
      "chip": "ym2612"
    },
    {
      "channel": 0,
      "note": 48,
      "start": 13.1203,
      "duration": 0.0139,
      "velocity": 115,
      "chip": "ym2612"
    },
    {
      "channel": 2,
      "note": 50,
      "start": 13.124,
      "duration": 0.0136,
      "velocity": 100,
      "chip": "ym2612"
    },
    {
      "channel": 1,
      "note": 76,
      "start": 13.1322,
      "duration": 0.016,
      "velocity": 124,
      "chip": "ym2612"
    },
    {
      "channel": 0,
      "note": 49,
      "start": 13.1341,
      "duration": 0.0152,
      "velocity": 1,
      "chip": "ym2612"
    },
    {
      "channel": 2,
      "note": 50,
      "start": 13.1376,
      "duration": 0.0151,
      "velocity": 100,
      "chip": "ym2612"
    },
    {
      "channel": 1,
      "note": 75,
      "start": 13.1483,
      "duration": 0.0162,
      "velocity": 124,
      "chip": "ym2612"
    },
    {
      "channel": 2,
      "note": 50,
      "start": 13.1528,
      "duration": 0.0153,
      "velocity": 100,
      "chip": "ym2612"
    },
    {
      "channel": 1,
      "note": 74,
      "start": 13.1645,
      "duration": 0.0166,
      "velocity": 124,
      "chip": "ym2612"
    },
    {
      "channel": 2,
      "note": 50,
      "start": 13.1681,
      "duration": 0.0167,
      "velocity": 100,
      "chip": "ym2612"
    },
    {
      "channel": 1,
      "note": 72,
      "start": 13.1811,
      "duration": 0.0163,
      "velocity": 124,
      "chip": "ym2612"
    },
    {
      "channel": 2,
      "note": 50,
      "start": 13.1848,
      "duration": 0.0163,
      "velocity": 100,
      "chip": "ym2612"
    },
    {
      "channel": 1,
      "note": 71,
      "start": 13.1974,
      "duration": 0.0153,
      "velocity": 124,
      "chip": "ym2612"
    },
    {
      "channel": 2,
      "note": 50,
      "start": 13.2011,
      "duration": 0.0152,
      "velocity": 100,
      "chip": "ym2612"
    },
    {
      "channel": 1,
      "note": 70,
      "start": 13.2127,
      "duration": 0.0185,
      "velocity": 124,
      "chip": "ym2612"
    },
    {
      "channel": 2,
      "note": 50,
      "start": 13.2163,
      "duration": 0.0193,
      "velocity": 100,
      "chip": "ym2612"
    },
    {
      "channel": 1,
      "note": 69,
      "start": 13.2312,
      "duration": 0.0165,
      "velocity": 124,
      "chip": "ym2612"
    },
    {
      "channel": 2,
      "note": 50,
      "start": 13.2357,
      "duration": 0.0158,
      "velocity": 100,
      "chip": "ym2612"
    },
    {
      "channel": 1,
      "note": 68,
      "start": 13.2476,
      "duration": 0.0158,
      "velocity": 124,
      "chip": "ym2612"
    },
    {
      "channel": 2,
      "note": 50,
      "start": 13.2515,
      "duration": 0.0156,
      "velocity": 100,
      "chip": "ym2612"
    },
    {
      "channel": 1,
      "note": 66,
      "start": 13.2634,
      "duration": 0.014,
      "velocity": 124,
      "chip": "ym2612"
    },
    {
      "channel": 2,
      "note": 50,
      "start": 13.267,
      "duration": 0.0141,
      "velocity": 100,
      "chip": "ym2612"
    },
    {
      "channel": 1,
      "note": 65,
      "start": 13.2774,
      "duration": 0.0186,
      "velocity": 124,
      "chip": "ym2612"
    },
    {
      "channel": 2,
      "note": 50,
      "start": 13.2811,
      "duration": 0.0185,
      "velocity": 100,
      "chip": "ym2612"
    },
    {
      "channel": 1,
      "note": 64,
      "start": 13.296,
      "duration": 0.0133,
      "velocity": 124,
      "chip": "ym2612"
    },
    {
      "channel": 2,
      "note": 50,
      "start": 13.2996,
      "duration": 0.0161,
      "velocity": 100,
      "chip": "ym2612"
    },
    {
      "channel": 1,
      "note": 62,
      "start": 13.3093,
      "duration": 0.0162,
      "velocity": 124,
      "chip": "ym2612"
    },
    {
      "channel": 2,
      "note": 50,
      "start": 13.3157,
      "duration": 0.0158,
      "velocity": 100,
      "chip": "ym2612"
    },
    {
      "channel": 1,
      "note": 61,
      "start": 13.3254,
      "duration": 0.0161,
      "velocity": 124,
      "chip": "ym2612"
    },
    {
      "channel": 2,
      "note": 50,
      "start": 13.3315,
      "duration": 0.0148,
      "velocity": 100,
      "chip": "ym2612"
    },
    {
      "channel": 1,
      "note": 60,
      "start": 13.3415,
      "duration": 0.0161,
      "velocity": 124,
      "chip": "ym2612"
    },
    {
      "channel": 2,
      "note": 50,
      "start": 13.3463,
      "duration": 0.0178,
      "velocity": 100,
      "chip": "ym2612"
    },
    {
      "channel": 1,
      "note": 59,
      "start": 13.3576,
      "duration": 0.0161,
      "velocity": 124,
      "chip": "ym2612"
    },
    {
      "channel": 2,
      "note": 50,
      "start": 13.3641,
      "duration": 0.016,
      "velocity": 100,
      "chip": "ym2612"
    },
    {
      "channel": 1,
      "note": 57,
      "start": 13.3737,
      "duration": 0.0161,
      "velocity": 124,
      "chip": "ym2612"
    },
    {
      "channel": 2,
      "note": 50,
      "start": 13.3801,
      "duration": 0.0157,
      "velocity": 100,
      "chip": "ym2612"
    },
    {
      "channel": 1,
      "note": 56,
      "start": 13.3898,
      "duration": 0.0161,
      "velocity": 124,
      "chip": "ym2612"
    },
    {
      "channel": 2,
      "note": 50,
      "start": 13.3959,
      "duration": 0.0137,
      "velocity": 100,
      "chip": "ym2612"
    },
    {
      "channel": 1,
      "note": 55,
      "start": 13.4059,
      "duration": 0.0161,
      "velocity": 124,
      "chip": "ym2612"
    },
    {
      "channel": 2,
      "note": 50,
      "start": 13.4096,
      "duration": 0.0161,
      "velocity": 100,
      "chip": "ym2612"
    },
    {
      "channel": 1,
      "note": 53,
      "start": 13.422,
      "duration": 0.0161,
      "velocity": 124,
      "chip": "ym2612"
    },
    {
      "channel": 2,
      "note": 50,
      "start": 13.4257,
      "duration": 0.0161,
      "velocity": 100,
      "chip": "ym2612"
    },
    {
      "channel": 1,
      "note": 52,
      "start": 13.4381,
      "duration": 0.0161,
      "velocity": 124,
      "chip": "ym2612"
    },
    {
      "channel": 2,
      "note": 50,
      "start": 13.4418,
      "duration": 0.0227,
      "velocity": 100,
      "chip": "ym2612"
    },
    {
      "channel": 1,
      "note": 51,
      "start": 13.4542,
      "duration": 0.0153,
      "velocity": 1,
      "chip": "ym2612"
    },
    {
      "channel": 0,
      "note": 36,
      "start": 13.4584,
      "duration": 0.015,
      "velocity": 115,
      "chip": "ym2612"
    },
    {
      "channel": 2,
      "note": 50,
      "start": 13.4646,
      "duration": 0.0127,
      "velocity": 100,
      "chip": "ym2612"
    },
    {
      "channel": 1,
      "note": 51,
      "start": 13.4717,
      "duration": 0.0142,
      "velocity": 105,
      "chip": "ym2612"
    },
    {
      "channel": 0,
      "note": 36,
      "start": 13.4734,
      "duration": 0.0142,
      "velocity": 115,
      "chip": "ym2612"
    },
    {
      "channel": 2,
      "note": 50,
      "start": 13.4772,
      "duration": 0.0138,
      "velocity": 100,
      "chip": "ym2612"
    },
    {
      "channel": 1,
      "note": 105,
      "start": 13.4859,
      "duration": 0.0161,
      "velocity": 105,
      "chip": "ym2612"
    },
    {
      "channel": 0,
      "note": 37,
      "start": 13.4876,
      "duration": 0.0161,
      "velocity": 115,
      "chip": "ym2612"
    },
    {
      "channel": 2,
      "note": 50,
      "start": 13.491,
      "duration": 0.0161,
      "velocity": 100,
      "chip": "ym2612"
    },
    {
      "channel": 1,
      "note": 105,
      "start": 13.502,
      "duration": 0.0161,
      "velocity": 105,
      "chip": "ym2612"
    },
    {
      "channel": 0,
      "note": 37,
      "start": 13.5037,
      "duration": 0.0161,
      "velocity": 115,
      "chip": "ym2612"
    },
    {
      "channel": 2,
      "note": 50,
      "start": 13.5071,
      "duration": 0.0161,
      "velocity": 100,
      "chip": "ym2612"
    },
    {
      "channel": 1,
      "note": 105,
      "start": 13.5181,
      "duration": 0.0161,
      "velocity": 105,
      "chip": "ym2612"
    },
    {
      "channel": 0,
      "note": 38,
      "start": 13.5198,
      "duration": 0.0161,
      "velocity": 115,
      "chip": "ym2612"
    },
    {
      "channel": 2,
      "note": 50,
      "start": 13.5232,
      "duration": 0.0161,
      "velocity": 100,
      "chip": "ym2612"
    },
    {
      "channel": 1,
      "note": 105,
      "start": 13.5342,
      "duration": 0.0161,
      "velocity": 105,
      "chip": "ym2612"
    },
    {
      "channel": 0,
      "note": 38,
      "start": 13.5359,
      "duration": 0.0161,
      "velocity": 115,
      "chip": "ym2612"
    },
    {
      "channel": 2,
      "note": 50,
      "start": 13.5393,
      "duration": 0.0161,
      "velocity": 100,
      "chip": "ym2612"
    },
    {
      "channel": 1,
      "note": 105,
      "start": 13.5503,
      "duration": 0.0178,
      "velocity": 124,
      "chip": "ym2612"
    },
    {
      "channel": 0,
      "note": 39,
      "start": 13.552,
      "duration": 0.0197,
      "velocity": 115,
      "chip": "ym2612"
    },
    {
      "channel": 2,
      "note": 50,
      "start": 13.5554,
      "duration": 0.02,
      "velocity": 100,
      "chip": "ym2612"
    },
    {
      "channel": 1,
      "note": 64,
      "start": 13.5682,
      "duration": 0.0144,
      "velocity": 124,
      "chip": "ym2612"
    },
    {
      "channel": 0,
      "note": 36,
      "start": 13.5716,
      "duration": 0.0127,
      "velocity": 115,
      "chip": "ym2612"
    },
    {
      "channel": 2,
      "note": 50,
      "start": 13.5754,
      "duration": 0.0124,
      "velocity": 100,
      "chip": "ym2612"
    },
    {
      "channel": 1,
      "note": 64,
      "start": 13.5826,
      "duration": 0.016,
      "velocity": 124,
      "chip": "ym2612"
    },
    {
      "channel": 0,
      "note": 36,
      "start": 13.5843,
      "duration": 0.016,
      "velocity": 115,
      "chip": "ym2612"
    },
    {
      "channel": 2,
      "note": 50,
      "start": 13.5878,
      "duration": 0.0159,
      "velocity": 100,
      "chip": "ym2612"
    },
    {
      "channel": 1,
      "note": 64,
      "start": 13.5986,
      "duration": 0.0161,
      "velocity": 124,
      "chip": "ym2612"
    },
    {
      "channel": 0,
      "note": 37,
      "start": 13.6003,
      "duration": 0.0161,
      "velocity": 115,
      "chip": "ym2612"
    },
    {
      "channel": 2,
      "note": 50,
      "start": 13.6037,
      "duration": 0.0161,
      "velocity": 100,
      "chip": "ym2612"
    },
    {
      "channel": 1,
      "note": 64,
      "start": 13.6147,
      "duration": 0.0161,
      "velocity": 124,
      "chip": "ym2612"
    },
    {
      "channel": 0,
      "note": 37,
      "start": 13.6164,
      "duration": 0.0161,
      "velocity": 115,
      "chip": "ym2612"
    },
    {
      "channel": 2,
      "note": 50,
      "start": 13.6198,
      "duration": 0.0161,
      "velocity": 100,
      "chip": "ym2612"
    },
    {
      "channel": 1,
      "note": 64,
      "start": 13.6308,
      "duration": 0.0165,
      "velocity": 124,
      "chip": "ym2612"
    },
    {
      "channel": 0,
      "note": 38,
      "start": 13.6325,
      "duration": 0.0165,
      "velocity": 115,
      "chip": "ym2612"
    },
    {
      "channel": 2,
      "note": 50,
      "start": 13.6359,
      "duration": 0.0165,
      "velocity": 100,
      "chip": "ym2612"
    },
    {
      "channel": 1,
      "note": 64,
      "start": 13.6473,
      "duration": 0.0163,
      "velocity": 124,
      "chip": "ym2612"
    },
    {
      "channel": 0,
      "note": 38,
      "start": 13.649,
      "duration": 0.0163,
      "velocity": 115,
      "chip": "ym2612"
    },
    {
      "channel": 2,
      "note": 50,
      "start": 13.6524,
      "duration": 0.0163,
      "velocity": 100,
      "chip": "ym2612"
    },
    {
      "channel": 1,
      "note": 64,
      "start": 13.6636,
      "duration": 0.0172,
      "velocity": 105,
      "chip": "ym2612"
    },
    {
      "channel": 0,
      "note": 39,
      "start": 13.6653,
      "duration": 0.0172,
      "velocity": 115,
      "chip": "ym2612"
    },
    {
      "channel": 2,
      "note": 50,
      "start": 13.6687,
      "duration": 0.0176,
      "velocity": 100,
      "chip": "ym2612"
    },
    {
      "channel": 1,
      "note": 105,
      "start": 13.6808,
      "duration": 0.0165,
      "velocity": 105,
      "chip": "ym2612"
    },
    {
      "channel": 0,
      "note": 39,
      "start": 13.6825,
      "duration": 0.0165,
      "velocity": 115,
      "chip": "ym2612"
    },
    {
      "channel": 2,
      "note": 50,
      "start": 13.6862,
      "duration": 0.0163,
      "velocity": 100,
      "chip": "ym2612"
    },
    {
      "channel": 1,
      "note": 105,
      "start": 13.6973,
      "duration": 0.0167,
      "velocity": 105,
      "chip": "ym2612"
    },
    {
      "channel": 0,
      "note": 40,
      "start": 13.699,
      "duration": 0.0166,
      "velocity": 115,
      "chip": "ym2612"
    },
    {
      "channel": 2,
      "note": 50,
      "start": 13.7025,
      "duration": 0.0165,
      "velocity": 100,
      "chip": "ym2612"
    },
    {
      "channel": 1,
      "note": 105,
      "start": 13.714,
      "duration": 0.0158,
      "velocity": 105,
      "chip": "ym2612"
    },
    {
      "channel": 0,
      "note": 40,
      "start": 13.7156,
      "duration": 0.0158,
      "velocity": 115,
      "chip": "ym2612"
    },
    {
      "channel": 2,
      "note": 50,
      "start": 13.7191,
      "duration": 0.0159,
      "velocity": 100,
      "chip": "ym2612"
    },
    {
      "channel": 1,
      "note": 105,
      "start": 13.7298,
      "duration": 0.0141,
      "velocity": 105,
      "chip": "ym2612"
    },
    {
      "channel": 0,
      "note": 40,
      "start": 13.7315,
      "duration": 0.0141,
      "velocity": 115,
      "chip": "ym2612"
    },
    {
      "channel": 2,
      "note": 50,
      "start": 13.7349,
      "duration": 0.0141,
      "velocity": 100,
      "chip": "ym2612"
    },
    {
      "channel": 1,
      "note": 105,
      "start": 13.7439,
      "duration": 0.0158,
      "velocity": 105,
      "chip": "ym2612"
    },
    {
      "channel": 0,
      "note": 41,
      "start": 13.7455,
      "duration": 0.0185,
      "velocity": 115,
      "chip": "ym2612"
    },
    {
      "channel": 2,
      "note": 50,
      "start": 13.749,
      "duration": 0.0185,
      "velocity": 100,
      "chip": "ym2612"
    },
    {
      "channel": 1,
      "note": 105,
      "start": 13.7597,
      "duration": 0.0161,
      "velocity": 105,
      "chip": "ym2612"
    },
    {
      "channel": 0,
      "note": 41,
      "start": 13.764,
      "duration": 0.0161,
      "velocity": 115,
      "chip": "ym2612"
    },
    {
      "channel": 2,
      "note": 50,
      "start": 13.7675,
      "duration": 0.0161,
      "velocity": 100,
      "chip": "ym2612"
    },
    {
      "channel": 1,
      "note": 105,
      "start": 13.7758,
      "duration": 0.0202,
      "velocity": 124,
      "chip": "ym2612"
    },
    {
      "channel": 0,
      "note": 42,
      "start": 13.7801,
      "duration": 0.0175,
      "velocity": 115,
      "chip": "ym2612"
    },
    {
      "channel": 2,
      "note": 50,
      "start": 13.7836,
      "duration": 0.0178,
      "velocity": 100,
      "chip": "ym2612"
    },
    {
      "channel": 1,
      "note": 64,
      "start": 13.796,
      "duration": 0.012,
      "velocity": 124,
      "chip": "ym2612"
    },
    {
      "channel": 0,
      "note": 42,
      "start": 13.7976,
      "duration": 0.012,
      "velocity": 115,
      "chip": "ym2612"
    },
    {
      "channel": 2,
      "note": 50,
      "start": 13.8014,
      "duration": 0.0121,
      "velocity": 100,
      "chip": "ym2612"
    },
    {
      "channel": 1,
      "note": 64,
      "start": 13.808,
      "duration": 0.016,
      "velocity": 124,
      "chip": "ym2612"
    },
    {
      "channel": 0,
      "note": 43,
      "start": 13.8097,
      "duration": 0.016,
      "velocity": 115,
      "chip": "ym2612"
    },
    {
      "channel": 2,
      "note": 50,
      "start": 13.8135,
      "duration": 0.0185,
      "velocity": 100,
      "chip": "ym2612"
    },
    {
      "channel": 1,
      "note": 64,
      "start": 13.824,
      "duration": 0.0161,
      "velocity": 124,
      "chip": "ym2612"
    },
    {
      "channel": 0,
      "note": 43,
      "start": 13.8257,
      "duration": 0.0161,
      "velocity": 115,
      "chip": "ym2612"
    },
    {
      "channel": 2,
      "note": 50,
      "start": 13.8319,
      "duration": 0.0161,
      "velocity": 100,
      "chip": "ym2612"
    },
    {
      "channel": 1,
      "note": 64,
      "start": 13.8401,
      "duration": 0.0161,
      "velocity": 124,
      "chip": "ym2612"
    },
    {
      "channel": 0,
      "note": 44,
      "start": 13.8418,
      "duration": 0.0161,
      "velocity": 115,
      "chip": "ym2612"
    },
    {
      "channel": 2,
      "note": 50,
      "start": 13.848,
      "duration": 0.0157,
      "velocity": 100,
      "chip": "ym2612"
    },
    {
      "channel": 1,
      "note": 64,
      "start": 13.8562,
      "duration": 0.0161,
      "velocity": 124,
      "chip": "ym2612"
    },
    {
      "channel": 0,
      "note": 44,
      "start": 13.8579,
      "duration": 0.0161,
      "velocity": 115,
      "chip": "ym2612"
    },
    {
      "channel": 2,
      "note": 50,
      "start": 13.8637,
      "duration": 0.0141,
      "velocity": 100,
      "chip": "ym2612"
    },
    {
      "channel": 1,
      "note": 64,
      "start": 13.8723,
      "duration": 0.0162,
      "velocity": 124,
      "chip": "ym2612"
    },
    {
      "channel": 0,
      "note": 44,
      "start": 13.874,
      "duration": 0.0161,
      "velocity": 115,
      "chip": "ym2612"
    },
    {
      "channel": 2,
      "note": 50,
      "start": 13.8778,
      "duration": 0.0185,
      "velocity": 100,
      "chip": "ym2612"
    },
    {
      "channel": 1,
      "note": 64,
      "start": 13.8885,
      "duration": 0.0177,
      "velocity": 105,
      "chip": "ym2612"
    },
    {
      "channel": 0,
      "note": 45,
      "start": 13.8901,
      "duration": 0.0178,
      "velocity": 115,
      "chip": "ym2612"
    },
    {
      "channel": 2,
      "note": 50,
      "start": 13.8963,
      "duration": 0.018,
      "velocity": 100,
      "chip": "ym2612"
    },
    {
      "channel": 1,
      "note": 105,
      "start": 13.9063,
      "duration": 0.0144,
      "velocity": 105,
      "chip": "ym2612"
    },
    {
      "channel": 0,
      "note": 45,
      "start": 13.9079,
      "duration": 0.0144,
      "velocity": 115,
      "chip": "ym2612"
    },
    {
      "channel": 2,
      "note": 50,
      "start": 13.9144,
      "duration": 0.0115,
      "velocity": 100,
      "chip": "ym2612"
    },
    {
      "channel": 1,
      "note": 105,
      "start": 13.9207,
      "duration": 0.016,
      "velocity": 105,
      "chip": "ym2612"
    },
    {
      "channel": 0,
      "note": 46,
      "start": 13.9224,
      "duration": 0.016,
      "velocity": 115,
      "chip": "ym2612"
    },
    {
      "channel": 2,
      "note": 50,
      "start": 13.9259,
      "duration": 0.016,
      "velocity": 100,
      "chip": "ym2612"
    },
    {
      "channel": 1,
      "note": 105,
      "start": 13.9368,
      "duration": 0.0161,
      "velocity": 105,
      "chip": "ym2612"
    },
    {
      "channel": 0,
      "note": 46,
      "start": 13.9384,
      "duration": 0.0161,
      "velocity": 115,
      "chip": "ym2612"
    },
    {
      "channel": 2,
      "note": 50,
      "start": 13.9418,
      "duration": 0.0161,
      "velocity": 100,
      "chip": "ym2612"
    },
    {
      "channel": 1,
      "note": 105,
      "start": 13.9529,
      "duration": 0.0161,
      "velocity": 105,
      "chip": "ym2612"
    },
    {
      "channel": 0,
      "note": 47,
      "start": 13.9545,
      "duration": 0.0161,
      "velocity": 115,
      "chip": "ym2612"
    },
    {
      "channel": 2,
      "note": 50,
      "start": 13.9579,
      "duration": 0.0161,
      "velocity": 100,
      "chip": "ym2612"
    },
    {
      "channel": 1,
      "note": 105,
      "start": 13.9689,
      "duration": 0.0161,
      "velocity": 105,
      "chip": "ym2612"
    },
    {
      "channel": 0,
      "note": 47,
      "start": 13.9706,
      "duration": 0.0161,
      "velocity": 115,
      "chip": "ym2612"
    },
    {
      "channel": 2,
      "note": 50,
      "start": 13.974,
      "duration": 0.0161,
      "velocity": 100,
      "chip": "ym2612"
    },
    {
      "channel": 1,
      "note": 105,
      "start": 13.985,
      "duration": 0.0161,
      "velocity": 105,
      "chip": "ym2612"
    },
    {
      "channel": 0,
      "note": 47,
      "start": 13.9867,
      "duration": 0.0161,
      "velocity": 115,
      "chip": "ym2612"
    },
    {
      "channel": 2,
      "note": 50,
      "start": 13.9901,
      "duration": 0.0161,
      "velocity": 100,
      "chip": "ym2612"
    },
    {
      "channel": 1,
      "note": 105,
      "start": 14.0011,
      "duration": 0.0184,
      "velocity": 124,
      "chip": "ym2612"
    },
    {
      "channel": 0,
      "note": 48,
      "start": 14.0028,
      "duration": 0.0191,
      "velocity": 115,
      "chip": "ym2612"
    },
    {
      "channel": 2,
      "note": 50,
      "start": 14.0062,
      "duration": 0.0194,
      "velocity": 100,
      "chip": "ym2612"
    },
    {
      "channel": 1,
      "note": 78,
      "start": 14.0195,
      "duration": 0.0144,
      "velocity": 124,
      "chip": "ym2612"
    },
    {
      "channel": 0,
      "note": 48,
      "start": 14.0219,
      "duration": 0.0139,
      "velocity": 115,
      "chip": "ym2612"
    },
    {
      "channel": 2,
      "note": 48,
      "start": 14.0257,
      "duration": 0.0136,
      "velocity": 100,
      "chip": "ym2612"
    },
    {
      "channel": 1,
      "note": 76,
      "start": 14.0339,
      "duration": 0.016,
      "velocity": 124,
      "chip": "ym2612"
    },
    {
      "channel": 0,
      "note": 49,
      "start": 14.0358,
      "duration": 0.0152,
      "velocity": 1,
      "chip": "ym2612"
    },
    {
      "channel": 2,
      "note": 48,
      "start": 14.0393,
      "duration": 0.0151,
      "velocity": 100,
      "chip": "ym2612"
    },
    {
      "channel": 1,
      "note": 75,
      "start": 14.0499,
      "duration": 0.0161,
      "velocity": 124,
      "chip": "ym2612"
    },
    {
      "channel": 2,
      "note": 48,
      "start": 14.0544,
      "duration": 0.0153,
      "velocity": 100,
      "chip": "ym2612"
    },
    {
      "channel": 1,
      "note": 74,
      "start": 14.0661,
      "duration": 0.0161,
      "velocity": 124,
      "chip": "ym2612"
    },
    {
      "channel": 2,
      "note": 48,
      "start": 14.0697,
      "duration": 0.0161,
      "velocity": 100,
      "chip": "ym2612"
    },
    {
      "channel": 1,
      "note": 72,
      "start": 14.0822,
      "duration": 0.0161,
      "velocity": 124,
      "chip": "ym2612"
    },
    {
      "channel": 2,
      "note": 48,
      "start": 14.0858,
      "duration": 0.0161,
      "velocity": 100,
      "chip": "ym2612"
    },
    {
      "channel": 1,
      "note": 71,
      "start": 14.0983,
      "duration": 0.0161,
      "velocity": 124,
      "chip": "ym2612"
    },
    {
      "channel": 2,
      "note": 48,
      "start": 14.1019,
      "duration": 0.0162,
      "velocity": 100,
      "chip": "ym2612"
    },
    {
      "channel": 1,
      "note": 70,
      "start": 14.1144,
      "duration": 0.0163,
      "velocity": 124,
      "chip": "ym2612"
    },
    {
      "channel": 2,
      "note": 48,
      "start": 14.1181,
      "duration": 0.0171,
      "velocity": 100,
      "chip": "ym2612"
    },
    {
      "channel": 1,
      "note": 69,
      "start": 14.1308,
      "duration": 0.0158,
      "velocity": 124,
      "chip": "ym2612"
    },
    {
      "channel": 2,
      "note": 48,
      "start": 14.1352,
      "duration": 0.0151,
      "velocity": 100,
      "chip": "ym2612"
    },
    {
      "channel": 1,
      "note": 68,
      "start": 14.1466,
      "duration": 0.0179,
      "velocity": 124,
      "chip": "ym2612"
    },
    {
      "channel": 2,
      "note": 48,
      "start": 14.1503,
      "duration": 0.0178,
      "velocity": 100,
      "chip": "ym2612"
    },
    {
      "channel": 1,
      "note": 66,
      "start": 14.1645,
      "duration": 0.0166,
      "velocity": 124,
      "chip": "ym2612"
    },
    {
      "channel": 2,
      "note": 48,
      "start": 14.1681,
      "duration": 0.0167,
      "velocity": 100,
      "chip": "ym2612"
    },
    {
      "channel": 1,
      "note": 65,
      "start": 14.1811,
      "duration": 0.0162,
      "velocity": 124,
      "chip": "ym2612"
    },
    {
      "channel": 2,
      "note": 48,
      "start": 14.1848,
      "duration": 0.0161,
      "velocity": 100,
      "chip": "ym2612"
    },
    {
      "channel": 1,
      "note": 64,
      "start": 14.1973,
      "duration": 0.0141,
      "velocity": 124,
      "chip": "ym2612"
    },
    {
      "channel": 2,
      "note": 48,
      "start": 14.2009,
      "duration": 0.014,
      "velocity": 100,
      "chip": "ym2612"
    },
    {
      "channel": 1,
      "note": 62,
      "start": 14.2113,
      "duration": 0.0185,
      "velocity": 124,
      "chip": "ym2612"
    },
    {
      "channel": 2,
      "note": 48,
      "start": 14.2149,
      "duration": 0.0186,
      "velocity": 100,
      "chip": "ym2612"
    },
    {
      "channel": 1,
      "note": 61,
      "start": 14.2298,
      "duration": 0.0161,
      "velocity": 124,
      "chip": "ym2612"
    },
    {
      "channel": 2,
      "note": 48,
      "start": 14.2335,
      "duration": 0.0168,
      "velocity": 100,
      "chip": "ym2612"
    },
    {
      "channel": 1,
      "note": 60,
      "start": 14.2459,
      "duration": 0.0134,
      "velocity": 124,
      "chip": "ym2612"
    },
    {
      "channel": 2,
      "note": 48,
      "start": 14.2504,
      "duration": 0.0151,
      "velocity": 100,
      "chip": "ym2612"
    },
    {
      "channel": 1,
      "note": 59,
      "start": 14.2593,
      "duration": 0.0161,
      "velocity": 124,
      "chip": "ym2612"
    },
    {
      "channel": 2,
      "note": 48,
      "start": 14.2654,
      "duration": 0.0139,
      "velocity": 100,
      "chip": "ym2612"
    },
    {
      "channel": 1,
      "note": 57,
      "start": 14.2754,
      "duration": 0.0161,
      "velocity": 124,
      "chip": "ym2612"
    },
    {
      "channel": 2,
      "note": 48,
      "start": 14.2794,
      "duration": 0.0185,
      "velocity": 100,
      "chip": "ym2612"
    },
    {
      "channel": 1,
      "note": 56,
      "start": 14.2915,
      "duration": 0.0161,
      "velocity": 124,
      "chip": "ym2612"
    },
    {
      "channel": 2,
      "note": 48,
      "start": 14.2979,
      "duration": 0.0161,
      "velocity": 100,
      "chip": "ym2612"
    },
    {
      "channel": 1,
      "note": 55,
      "start": 14.3076,
      "duration": 0.0161,
      "velocity": 124,
      "chip": "ym2612"
    },
    {
      "channel": 2,
      "note": 48,
      "start": 14.314,
      "duration": 0.0157,
      "velocity": 100,
      "chip": "ym2612"
    },
    {
      "channel": 1,
      "note": 53,
      "start": 14.3237,
      "duration": 0.0161,
      "velocity": 124,
      "chip": "ym2612"
    },
    {
      "channel": 2,
      "note": 48,
      "start": 14.3297,
      "duration": 0.0141,
      "velocity": 100,
      "chip": "ym2612"
    },
    {
      "channel": 1,
      "note": 52,
      "start": 14.3398,
      "duration": 0.0161,
      "velocity": 124,
      "chip": "ym2612"
    },
    {
      "channel": 2,
      "note": 48,
      "start": 14.3437,
      "duration": 0.0228,
      "velocity": 100,
      "chip": "ym2612"
    },
    {
      "channel": 1,
      "note": 51,
      "start": 14.3559,
      "duration": 0.0153,
      "velocity": 1,
      "chip": "ym2612"
    },
    {
      "channel": 0,
      "note": 78,
      "start": 14.3628,
      "duration": 0.0122,
      "velocity": 127,
      "chip": "ym2612"
    },
    {
      "channel": 2,
      "note": 48,
      "start": 14.3666,
      "duration": 0.0147,
      "velocity": 100,
      "chip": "ym2612"
    },
    {
      "channel": 1,
      "note": 51,
      "start": 14.3733,
      "duration": 0.0142,
      "velocity": 105,
      "chip": "ym2612"
    },
    {
      "channel": 0,
      "note": 76,
      "start": 14.3751,
      "duration": 0.0142,
      "velocity": 127,
      "chip": "ym2612"
    },
    {
      "channel": 2,
      "note": 48,
      "start": 14.3813,
      "duration": 0.0114,
      "velocity": 100,
      "chip": "ym2612"
    },
    {
      "channel": 1,
      "note": 105,
      "start": 14.3876,
      "duration": 0.0161,
      "velocity": 105,
      "chip": "ym2612"
    },
    {
      "channel": 0,
      "note": 75,
      "start": 14.3892,
      "duration": 0.0161,
      "velocity": 127,
      "chip": "ym2612"
    },
    {
      "channel": 2,
      "note": 48,
      "start": 14.3927,
      "duration": 0.0161,
      "velocity": 100,
      "chip": "ym2612"
    },
    {
      "channel": 1,
      "note": 105,
      "start": 14.4037,
      "duration": 0.0161,
      "velocity": 105,
      "chip": "ym2612"
    },
    {
      "channel": 0,
      "note": 73,
      "start": 14.4053,
      "duration": 0.0161,
      "velocity": 127,
      "chip": "ym2612"
    },
    {
      "channel": 2,
      "note": 48,
      "start": 14.4088,
      "duration": 0.0161,
      "velocity": 100,
      "chip": "ym2612"
    },
    {
      "channel": 1,
      "note": 105,
      "start": 14.4198,
      "duration": 0.0161,
      "velocity": 105,
      "chip": "ym2612"
    },
    {
      "channel": 0,
      "note": 71,
      "start": 14.4214,
      "duration": 0.0161,
      "velocity": 127,
      "chip": "ym2612"
    },
    {
      "channel": 2,
      "note": 48,
      "start": 14.4249,
      "duration": 0.0161,
      "velocity": 100,
      "chip": "ym2612"
    },
    {
      "channel": 1,
      "note": 105,
      "start": 14.4359,
      "duration": 0.0161,
      "velocity": 105,
      "chip": "ym2612"
    },
    {
      "channel": 0,
      "note": 70,
      "start": 14.4375,
      "duration": 0.0161,
      "velocity": 127,
      "chip": "ym2612"
    },
    {
      "channel": 2,
      "note": 48,
      "start": 14.441,
      "duration": 0.0161,
      "velocity": 100,
      "chip": "ym2612"
    },
    {
      "channel": 1,
      "note": 105,
      "start": 14.452,
      "duration": 0.0178,
      "velocity": 124,
      "chip": "ym2612"
    },
    {
      "channel": 0,
      "note": 68,
      "start": 14.4536,
      "duration": 0.0197,
      "velocity": 115,
      "chip": "ym2612"
    },
    {
      "channel": 2,
      "note": 48,
      "start": 14.4571,
      "duration": 0.0202,
      "velocity": 100,
      "chip": "ym2612"
    },
    {
      "channel": 1,
      "note": 64,
      "start": 14.4698,
      "duration": 0.0144,
      "velocity": 124,
      "chip": "ym2612"
    },
    {
      "channel": 0,
      "note": 36,
      "start": 14.4733,
      "duration": 0.0127,
      "velocity": 115,
      "chip": "ym2612"
    },
    {
      "channel": 2,
      "note": 57,
      "start": 14.4773,
      "duration": 0.0122,
      "velocity": 100,
      "chip": "ym2612"
    },
    {
      "channel": 1,
      "note": 64,
      "start": 14.4843,
      "duration": 0.016,
      "velocity": 124,
      "chip": "ym2612"
    },
    {
      "channel": 0,
      "note": 36,
      "start": 14.486,
      "duration": 0.016,
      "velocity": 115,
      "chip": "ym2612"
    },
    {
      "channel": 2,
      "note": 57,
      "start": 14.4895,
      "duration": 0.0159,
      "velocity": 100,
      "chip": "ym2612"
    },
    {
      "channel": 1,
      "note": 64,
      "start": 14.5003,
      "duration": 0.0161,
      "velocity": 124,
      "chip": "ym2612"
    },
    {
      "channel": 0,
      "note": 37,
      "start": 14.502,
      "duration": 0.0161,
      "velocity": 115,
      "chip": "ym2612"
    },
    {
      "channel": 2,
      "note": 57,
      "start": 14.5054,
      "duration": 0.0161,
      "velocity": 100,
      "chip": "ym2612"
    },
    {
      "channel": 1,
      "note": 64,
      "start": 14.5164,
      "duration": 0.0161,
      "velocity": 124,
      "chip": "ym2612"
    },
    {
      "channel": 0,
      "note": 37,
      "start": 14.518,
      "duration": 0.0161,
      "velocity": 115,
      "chip": "ym2612"
    },
    {
      "channel": 2,
      "note": 57,
      "start": 14.5215,
      "duration": 0.0161,
      "velocity": 100,
      "chip": "ym2612"
    },
    {
      "channel": 1,
      "note": 64,
      "start": 14.5325,
      "duration": 0.0161,
      "velocity": 124,
      "chip": "ym2612"
    },
    {
      "channel": 0,
      "note": 38,
      "start": 14.5341,
      "duration": 0.0161,
      "velocity": 115,
      "chip": "ym2612"
    },
    {
      "channel": 2,
      "note": 57,
      "start": 14.5376,
      "duration": 0.0161,
      "velocity": 100,
      "chip": "ym2612"
    },
    {
      "channel": 1,
      "note": 64,
      "start": 14.5486,
      "duration": 0.0161,
      "velocity": 124,
      "chip": "ym2612"
    },
    {
      "channel": 0,
      "note": 38,
      "start": 14.5502,
      "duration": 0.0161,
      "velocity": 115,
      "chip": "ym2612"
    },
    {
      "channel": 2,
      "note": 57,
      "start": 14.5537,
      "duration": 0.0162,
      "velocity": 100,
      "chip": "ym2612"
    },
    {
      "channel": 1,
      "note": 64,
      "start": 14.5647,
      "duration": 0.0178,
      "velocity": 105,
      "chip": "ym2612"
    },
    {
      "channel": 0,
      "note": 39,
      "start": 14.5664,
      "duration": 0.0178,
      "velocity": 115,
      "chip": "ym2612"
    },
    {
      "channel": 2,
      "note": 57,
      "start": 14.5698,
      "duration": 0.0184,
      "velocity": 100,
      "chip": "ym2612"
    },
    {
      "channel": 1,
      "note": 105,
      "start": 14.5825,
      "duration": 0.0145,
      "velocity": 105,
      "chip": "ym2612"
    },
    {
      "channel": 0,
      "note": 39,
      "start": 14.5842,
      "duration": 0.0144,
      "velocity": 115,
      "chip": "ym2612"
    },
    {
      "channel": 4,
      "note": 81,
      "start": 14.5857,
      "duration": 0.0141,
      "velocity": 94,
      "chip": "ym2612"
    },
    {
      "channel": 2,
      "note": 57,
      "start": 14.5883,
      "duration": 0.0139,
      "velocity": 100,
      "chip": "ym2612"
    },
    {
      "channel": 1,
      "note": 105,
      "start": 14.597,
      "duration": 0.016,
      "velocity": 105,
      "chip": "ym2612"
    },
    {
      "channel": 0,
      "note": 40,
      "start": 14.5986,
      "duration": 0.016,
      "velocity": 115,
      "chip": "ym2612"
    },
    {
      "channel": 4,
      "note": 81,
      "start": 14.5999,
      "duration": 0.016,
      "velocity": 94,
      "chip": "ym2612"
    },
    {
      "channel": 2,
      "note": 57,
      "start": 14.6022,
      "duration": 0.0158,
      "velocity": 100,
      "chip": "ym2612"
    },
    {
      "channel": 1,
      "note": 105,
      "start": 14.613,
      "duration": 0.0176,
      "velocity": 105,
      "chip": "ym2612"
    },
    {
      "channel": 0,
      "note": 40,
      "start": 14.6146,
      "duration": 0.0177,
      "velocity": 115,
      "chip": "ym2612"
    },
    {
      "channel": 4,
      "note": 81,
      "start": 14.6158,
      "duration": 0.0176,
      "velocity": 94,
      "chip": "ym2612"
    },
    {
      "channel": 2,
      "note": 57,
      "start": 14.618,
      "duration": 0.0177,
      "velocity": 100,
      "chip": "ym2612"
    },
    {
      "channel": 1,
      "note": 105,
      "start": 14.6306,
      "duration": 0.0167,
      "velocity": 105,
      "chip": "ym2612"
    },
    {
      "channel": 0,
      "note": 40,
      "start": 14.6323,
      "duration": 0.0167,
      "velocity": 115,
      "chip": "ym2612"
    },
    {
      "channel": 4,
      "note": 81,
      "start": 14.6334,
      "duration": 0.0167,
      "velocity": 94,
      "chip": "ym2612"
    },
    {
      "channel": 2,
      "note": 57,
      "start": 14.6357,
      "duration": 0.0167,
      "velocity": 100,
      "chip": "ym2612"
    },
    {
      "channel": 1,
      "note": 105,
      "start": 14.6473,
      "duration": 0.0163,
      "velocity": 105,
      "chip": "ym2612"
    },
    {
      "channel": 0,
      "note": 41,
      "start": 14.649,
      "duration": 0.0163,
      "velocity": 115,
      "chip": "ym2612"
    },
    {
      "channel": 4,
      "note": 81,
      "start": 14.6501,
      "duration": 0.0163,
      "velocity": 94,
      "chip": "ym2612"
    },
    {
      "channel": 2,
      "note": 57,
      "start": 14.6524,
      "duration": 0.0163,
      "velocity": 100,
      "chip": "ym2612"
    },
    {
      "channel": 1,
      "note": 105,
      "start": 14.6636,
      "duration": 0.0141,
      "velocity": 105,
      "chip": "ym2612"
    },
    {
      "channel": 0,
      "note": 41,
      "start": 14.6653,
      "duration": 0.0141,
      "velocity": 115,
      "chip": "ym2612"
    },
    {
      "channel": 4,
      "note": 81,
      "start": 14.6664,
      "duration": 0.0141,
      "velocity": 94,
      "chip": "ym2612"
    },
    {
      "channel": 2,
      "note": 57,
      "start": 14.6687,
      "duration": 0.0141,
      "velocity": 100,
      "chip": "ym2612"
    },
    {
      "channel": 1,
      "note": 105,
      "start": 14.6777,
      "duration": 0.0202,
      "velocity": 124,
      "chip": "ym2612"
    },
    {
      "channel": 0,
      "note": 42,
      "start": 14.6794,
      "duration": 0.0203,
      "velocity": 115,
      "chip": "ym2612"
    },
    {
      "channel": 4,
      "note": 81,
      "start": 14.6805,
      "duration": 0.0203,
      "velocity": 94,
      "chip": "ym2612"
    },
    {
      "channel": 2,
      "note": 57,
      "start": 14.6828,
      "duration": 0.0209,
      "velocity": 100,
      "chip": "ym2612"
    },
    {
      "channel": 1,
      "note": 64,
      "start": 14.698,
      "duration": 0.0117,
      "velocity": 124,
      "chip": "ym2612"
    },
    {
      "channel": 0,
      "note": 42,
      "start": 14.6997,
      "duration": 0.0144,
      "velocity": 115,
      "chip": "ym2612"
    },
    {
      "channel": 4,
      "note": 81,
      "start": 14.7008,
      "duration": 0.0144,
      "velocity": 94,
      "chip": "ym2612"
    },
    {
      "channel": 3,
      "note": 81,
      "start": 14.7023,
      "duration": 0.0141,
      "velocity": 94,
      "chip": "ym2612"
    },
    {
      "channel": 2,
      "note": 57,
      "start": 14.7038,
      "duration": 0.0138,
      "velocity": 100,
      "chip": "ym2612"
    },
    {
      "channel": 1,
      "note": 64,
      "start": 14.7097,
      "duration": 0.016,
      "velocity": 124,
      "chip": "ym2612"
    },
    {
      "channel": 0,
      "note": 43,
      "start": 14.7141,
      "duration": 0.0156,
      "velocity": 115,
      "chip": "ym2612"
    },
    {
      "channel": 4,
      "note": 81,
      "start": 14.7153,
      "duration": 0.0156,
      "velocity": 94,
      "chip": "ym2612"
    },
    {
      "channel": 3,
      "note": 81,
      "start": 14.7165,
      "duration": 0.0156,
      "velocity": 94,
      "chip": "ym2612"
    },
    {
      "channel": 2,
      "note": 57,
      "start": 14.7176,
      "duration": 0.0156,
      "velocity": 100,
      "chip": "ym2612"
    },
    {
      "channel": 1,
      "note": 64,
      "start": 14.7257,
      "duration": 0.0161,
      "velocity": 124,
      "chip": "ym2612"
    },
    {
      "channel": 0,
      "note": 43,
      "start": 14.7298,
      "duration": 0.0141,
      "velocity": 115,
      "chip": "ym2612"
    },
    {
      "channel": 4,
      "note": 81,
      "start": 14.7309,
      "duration": 0.0141,
      "velocity": 94,
      "chip": "ym2612"
    },
    {
      "channel": 3,
      "note": 81,
      "start": 14.732,
      "duration": 0.0141,
      "velocity": 94,
      "chip": "ym2612"
    },
    {
      "channel": 2,
      "note": 57,
      "start": 14.7332,
      "duration": 0.0141,
      "velocity": 100,
      "chip": "ym2612"
    },
    {
      "channel": 1,
      "note": 64,
      "start": 14.7418,
      "duration": 0.0161,
      "velocity": 124,
      "chip": "ym2612"
    },
    {
      "channel": 0,
      "note": 44,
      "start": 14.7438,
      "duration": 0.0158,
      "velocity": 115,
      "chip": "ym2612"
    },
    {
      "channel": 4,
      "note": 81,
      "start": 14.745,
      "duration": 0.0186,
      "velocity": 94,
      "chip": "ym2612"
    },
    {
      "channel": 3,
      "note": 81,
      "start": 14.7461,
      "duration": 0.0186,
      "velocity": 94,
      "chip": "ym2612"
    },
    {
      "channel": 2,
      "note": 57,
      "start": 14.7473,
      "duration": 0.0185,
      "velocity": 100,
      "chip": "ym2612"
    },
    {
      "channel": 1,
      "note": 64,
      "start": 14.7579,
      "duration": 0.0161,
      "velocity": 124,
      "chip": "ym2612"
    },
    {
      "channel": 0,
      "note": 44,
      "start": 14.7596,
      "duration": 0.0161,
      "velocity": 115,
      "chip": "ym2612"
    },
    {
      "channel": 4,
      "note": 81,
      "start": 14.7635,
      "duration": 0.0161,
      "velocity": 94,
      "chip": "ym2612"
    },
    {
      "channel": 3,
      "note": 81,
      "start": 14.7647,
      "duration": 0.0161,
      "velocity": 94,
      "chip": "ym2612"
    },
    {
      "channel": 2,
      "note": 57,
      "start": 14.7658,
      "duration": 0.0161,
      "velocity": 100,
      "chip": "ym2612"
    },
    {
      "channel": 1,
      "note": 64,
      "start": 14.774,
      "duration": 0.0161,
      "velocity": 124,
      "chip": "ym2612"
    },
    {
      "channel": 0,
      "note": 44,
      "start": 14.7757,
      "duration": 0.0161,
      "velocity": 115,
      "chip": "ym2612"
    },
    {
      "channel": 4,
      "note": 81,
      "start": 14.7796,
      "duration": 0.0133,
      "velocity": 94,
      "chip": "ym2612"
    },
    {
      "channel": 3,
      "note": 81,
      "start": 14.7808,
      "duration": 0.0157,
      "velocity": 94,
      "chip": "ym2612"
    },
    {
      "channel": 2,
      "note": 57,
      "start": 14.7819,
      "duration": 0.0158,
      "velocity": 100,
      "chip": "ym2612"
    },
    {
      "channel": 1,
      "note": 64,
      "start": 14.7901,
      "duration": 0.0177,
      "velocity": 105,
      "chip": "ym2612"
    },
    {
      "channel": 0,
      "note": 45,
      "start": 14.7918,
      "duration": 0.0178,
      "velocity": 115,
      "chip": "ym2612"
    },
    {
      "channel": 4,
      "note": 81,
      "start": 14.7929,
      "duration": 0.0182,
      "velocity": 94,
      "chip": "ym2612"
    },
    {
      "channel": 3,
      "note": 81,
      "start": 14.7965,
      "duration": 0.0158,
      "velocity": 94,
      "chip": "ym2612"
    },
    {
      "channel": 2,
      "note": 57,
      "start": 14.7976,
      "duration": 0.016,
      "velocity": 100,
      "chip": "ym2612"
    },
    {
      "channel": 1,
      "note": 105,
      "start": 14.8079,
      "duration": 0.0144,
      "velocity": 105,
      "chip": "ym2612"
    },
    {
      "channel": 0,
      "note": 45,
      "start": 14.8096,
      "duration": 0.0144,
      "velocity": 115,
      "chip": "ym2612"
    },
    {
      "channel": 4,
      "note": 81,
      "start": 14.8111,
      "duration": 0.0141,
      "velocity": 94,
      "chip": "ym2612"
    },
    {
      "channel": 3,
      "note": 81,
      "start": 14.8123,
      "duration": 0.0141,
      "velocity": 94,
      "chip": "ym2612"
    },
    {
      "channel": 2,
      "note": 57,
      "start": 14.8137,
      "duration": 0.0166,
      "velocity": 100,
      "chip": "ym2612"
    },
    {
      "channel": 1,
      "note": 105,
      "start": 14.8224,
      "duration": 0.016,
      "velocity": 105,
      "chip": "ym2612"
    },
    {
      "channel": 0,
      "note": 46,
      "start": 14.824,
      "duration": 0.016,
      "velocity": 115,
      "chip": "ym2612"
    },
    {
      "channel": 4,
      "note": 81,
      "start": 14.8252,
      "duration": 0.016,
      "velocity": 94,
      "chip": "ym2612"
    },
    {
      "channel": 3,
      "note": 81,
      "start": 14.8263,
      "duration": 0.016,
      "velocity": 94,
      "chip": "ym2612"
    },
    {
      "channel": 2,
      "note": 57,
      "start": 14.8303,
      "duration": 0.016,
      "velocity": 100,
      "chip": "ym2612"
    },
    {
      "channel": 1,
      "note": 105,
      "start": 14.8384,
      "duration": 0.0161,
      "velocity": 105,
      "chip": "ym2612"
    },
    {
      "channel": 0,
      "note": 46,
      "start": 14.8401,
      "duration": 0.0161,
      "velocity": 115,
      "chip": "ym2612"
    },
    {
      "channel": 4,
      "note": 81,
      "start": 14.8412,
      "duration": 0.0162,
      "velocity": 94,
      "chip": "ym2612"
    },
    {
      "channel": 3,
      "note": 81,
      "start": 14.8424,
      "duration": 0.0161,
      "velocity": 94,
      "chip": "ym2612"
    },
    {
      "channel": 2,
      "note": 57,
      "start": 14.8462,
      "duration": 0.0134,
      "velocity": 100,
      "chip": "ym2612"
    },
    {
      "channel": 1,
      "note": 105,
      "start": 14.8545,
      "duration": 0.0161,
      "velocity": 105,
      "chip": "ym2612"
    },
    {
      "channel": 0,
      "note": 47,
      "start": 14.8562,
      "duration": 0.0161,
      "velocity": 115,
      "chip": "ym2612"
    },
    {
      "channel": 4,
      "note": 81,
      "start": 14.8574,
      "duration": 0.0161,
      "velocity": 94,
      "chip": "ym2612"
    },
    {
      "channel": 3,
      "note": 81,
      "start": 14.8585,
      "duration": 0.0161,
      "velocity": 94,
      "chip": "ym2612"
    },
    {
      "channel": 2,
      "note": 57,
      "start": 14.8596,
      "duration": 0.0161,
      "velocity": 100,
      "chip": "ym2612"
    },
    {
      "channel": 1,
      "note": 105,
      "start": 14.8706,
      "duration": 0.0161,
      "velocity": 105,
      "chip": "ym2612"
    },
    {
      "channel": 0,
      "note": 47,
      "start": 14.8722,
      "duration": 0.0161,
      "velocity": 115,
      "chip": "ym2612"
    },
    {
      "channel": 4,
      "note": 81,
      "start": 14.8735,
      "duration": 0.0161,
      "velocity": 94,
      "chip": "ym2612"
    },
    {
      "channel": 3,
      "note": 81,
      "start": 14.8746,
      "duration": 0.0161,
      "velocity": 94,
      "chip": "ym2612"
    },
    {
      "channel": 2,
      "note": 57,
      "start": 14.8757,
      "duration": 0.0161,
      "velocity": 100,
      "chip": "ym2612"
    },
    {
      "channel": 1,
      "note": 105,
      "start": 14.8867,
      "duration": 0.0161,
      "velocity": 105,
      "chip": "ym2612"
    },
    {
      "channel": 0,
      "note": 47,
      "start": 14.8883,
      "duration": 0.0161,
      "velocity": 115,
      "chip": "ym2612"
    },
    {
      "channel": 4,
      "note": 81,
      "start": 14.8895,
      "duration": 0.0161,
      "velocity": 94,
      "chip": "ym2612"
    },
    {
      "channel": 3,
      "note": 81,
      "start": 14.8907,
      "duration": 0.0161,
      "velocity": 94,
      "chip": "ym2612"
    },
    {
      "channel": 2,
      "note": 57,
      "start": 14.8918,
      "duration": 0.0161,
      "velocity": 100,
      "chip": "ym2612"
    },
    {
      "channel": 1,
      "note": 105,
      "start": 14.9028,
      "duration": 0.0184,
      "velocity": 124,
      "chip": "ym2612"
    },
    {
      "channel": 0,
      "note": 48,
      "start": 14.9044,
      "duration": 0.0191,
      "velocity": 115,
      "chip": "ym2612"
    },
    {
      "channel": 4,
      "note": 81,
      "start": 14.9056,
      "duration": 0.0191,
      "velocity": 94,
      "chip": "ym2612"
    },
    {
      "channel": 3,
      "note": 81,
      "start": 14.9068,
      "duration": 0.0191,
      "velocity": 94,
      "chip": "ym2612"
    },
    {
      "channel": 2,
      "note": 57,
      "start": 14.9079,
      "duration": 0.0218,
      "velocity": 100,
      "chip": "ym2612"
    },
    {
      "channel": 1,
      "note": 78,
      "start": 14.9212,
      "duration": 0.0143,
      "velocity": 124,
      "chip": "ym2612"
    },
    {
      "channel": 0,
      "note": 48,
      "start": 14.9236,
      "duration": 0.0139,
      "velocity": 115,
      "chip": "ym2612"
    },
    {
      "channel": 4,
      "note": 81,
      "start": 14.9248,
      "duration": 0.0139,
      "velocity": 94,
      "chip": "ym2612"
    },
    {
      "channel": 3,
      "note": 81,
      "start": 14.9259,
      "duration": 0.0139,
      "velocity": 94,
      "chip": "ym2612"
    },
    {
      "channel": 2,
      "note": 57,
      "start": 14.9298,
      "duration": 0.0112,
      "velocity": 100,
      "chip": "ym2612"
    },
    {
      "channel": 1,
      "note": 76,
      "start": 14.9356,
      "duration": 0.0161,
      "velocity": 124,
      "chip": "ym2612"
    },
    {
      "channel": 0,
      "note": 49,
      "start": 14.9375,
      "duration": 0.0153,
      "velocity": 1,
      "chip": "ym2612"
    },
    {
      "channel": 4,
      "note": 81,
      "start": 14.9387,
      "duration": 0.0152,
      "velocity": 94,
      "chip": "ym2612"
    },
    {
      "channel": 3,
      "note": 81,
      "start": 14.9398,
      "duration": 0.0152,
      "velocity": 94,
      "chip": "ym2612"
    },
    {
      "channel": 2,
      "note": 57,
      "start": 14.941,
      "duration": 0.0152,
      "velocity": 100,
      "chip": "ym2612"
    },
    {
      "channel": 1,
      "note": 75,
      "start": 14.9516,
      "duration": 0.0161,
      "velocity": 124,
      "chip": "ym2612"
    },
    {
      "channel": 4,
      "note": 81,
      "start": 14.9539,
      "duration": 0.0153,
      "velocity": 94,
      "chip": "ym2612"
    },
    {
      "channel": 3,
      "note": 81,
      "start": 14.955,
      "duration": 0.0153,
      "velocity": 94,
      "chip": "ym2612"
    },
    {
      "channel": 2,
      "note": 57,
      "start": 14.9562,
      "duration": 0.0152,
      "velocity": 100,
      "chip": "ym2612"
    },
    {
      "channel": 1,
      "note": 74,
      "start": 14.9677,
      "duration": 0.0161,
      "velocity": 124,
      "chip": "ym2612"
    },
    {
      "channel": 4,
      "note": 81,
      "start": 14.9691,
      "duration": 0.0161,
      "velocity": 94,
      "chip": "ym2612"
    },
    {
      "channel": 3,
      "note": 81,
      "start": 14.9703,
      "duration": 0.0161,
      "velocity": 94,
      "chip": "ym2612"
    },
    {
      "channel": 2,
      "note": 57,
      "start": 14.9714,
      "duration": 0.0162,
      "velocity": 100,
      "chip": "ym2612"
    },
    {
      "channel": 1,
      "note": 72,
      "start": 14.9838,
      "duration": 0.0161,
      "velocity": 124,
      "chip": "ym2612"
    },
    {
      "channel": 4,
      "note": 81,
      "start": 14.9852,
      "duration": 0.0161,
      "velocity": 94,
      "chip": "ym2612"
    },
    {
      "channel": 3,
      "note": 81,
      "start": 14.9864,
      "duration": 0.0161,
      "velocity": 94,
      "chip": "ym2612"
    },
    {
      "channel": 2,
      "note": 57,
      "start": 14.9875,
      "duration": 0.0161,
      "velocity": 100,
      "chip": "ym2612"
    },
    {
      "channel": 1,
      "note": 71,
      "start": 14.9999,
      "duration": 0.0161,
      "velocity": 124,
      "chip": "ym2612"
    },
    {
      "channel": 4,
      "note": 81,
      "start": 15.0013,
      "duration": 0.0161,
      "velocity": 94,
      "chip": "ym2612"
    },
    {
      "channel": 3,
      "note": 81,
      "start": 15.0025,
      "duration": 0.0161,
      "velocity": 94,
      "chip": "ym2612"
    },
    {
      "channel": 2,
      "note": 57,
      "start": 15.0036,
      "duration": 0.0161,
      "velocity": 100,
      "chip": "ym2612"
    },
    {
      "channel": 1,
      "note": 70,
      "start": 15.016,
      "duration": 0.0161,
      "velocity": 124,
      "chip": "ym2612"
    },
    {
      "channel": 4,
      "note": 81,
      "start": 15.0174,
      "duration": 0.0166,
      "velocity": 94,
      "chip": "ym2612"
    },
    {
      "channel": 3,
      "note": 81,
      "start": 15.0186,
      "duration": 0.0166,
      "velocity": 94,
      "chip": "ym2612"
    },
    {
      "channel": 2,
      "note": 57,
      "start": 15.0197,
      "duration": 0.0168,
      "velocity": 100,
      "chip": "ym2612"
    },
    {
      "channel": 1,
      "note": 69,
      "start": 15.0321,
      "duration": 0.0161,
      "velocity": 124,
      "chip": "ym2612"
    },
    {
      "channel": 4,
      "note": 81,
      "start": 15.034,
      "duration": 0.0156,
      "velocity": 94,
      "chip": "ym2612"
    },
    {
      "channel": 3,
      "note": 81,
      "start": 15.0352,
      "duration": 0.0156,
      "velocity": 94,
      "chip": "ym2612"
    },
    {
      "channel": 2,
      "note": 57,
      "start": 15.0366,
      "duration": 0.0154,
      "velocity": 100,
      "chip": "ym2612"
    },
    {
      "channel": 1,
      "note": 68,
      "start": 15.0482,
      "duration": 0.0161,
      "velocity": 124,
      "chip": "ym2612"
    },
    {
      "channel": 4,
      "note": 81,
      "start": 15.0497,
      "duration": 0.016,
      "velocity": 94,
      "chip": "ym2612"
    },
    {
      "channel": 3,
      "note": 81,
      "start": 15.0508,
      "duration": 0.016,
      "velocity": 94,
      "chip": "ym2612"
    },
    {
      "channel": 2,
      "note": 57,
      "start": 15.052,
      "duration": 0.016,
      "velocity": 100,
      "chip": "ym2612"
    },
    {
      "channel": 1,
      "note": 66,
      "start": 15.0644,
      "duration": 0.016,
      "velocity": 124,
      "chip": "ym2612"
    },
    {
      "channel": 4,
      "note": 81,
      "start": 15.0657,
      "duration": 0.0161,
      "velocity": 94,
      "chip": "ym2612"
    },
    {
      "channel": 3,
      "note": 81,
      "start": 15.0668,
      "duration": 0.0161,
      "velocity": 94,
      "chip": "ym2612"
    },
    {
      "channel": 2,
      "note": 57,
      "start": 15.068,
      "duration": 0.0161,
      "velocity": 100,
      "chip": "ym2612"
    },
    {
      "channel": 1,
      "note": 65,
      "start": 15.0804,
      "duration": 0.0174,
      "velocity": 124,
      "chip": "ym2612"
    },
    {
      "channel": 4,
      "note": 81,
      "start": 15.0818,
      "duration": 0.0174,
      "velocity": 94,
      "chip": "ym2612"
    },
    {
      "channel": 3,
      "note": 81,
      "start": 15.0829,
      "duration": 0.0173,
      "velocity": 94,
      "chip": "ym2612"
    },
    {
      "channel": 2,
      "note": 57,
      "start": 15.0841,
      "duration": 0.0174,
      "velocity": 100,
      "chip": "ym2612"
    },
    {
      "channel": 1,
      "note": 64,
      "start": 15.0978,
      "duration": 0.0167,
      "velocity": 124,
      "chip": "ym2612"
    },
    {
      "channel": 4,
      "note": 81,
      "start": 15.0992,
      "duration": 0.0167,
      "velocity": 94,
      "chip": "ym2612"
    },
    {
      "channel": 3,
      "note": 81,
      "start": 15.1003,
      "duration": 0.0167,
      "velocity": 94,
      "chip": "ym2612"
    },
    {
      "channel": 2,
      "note": 57,
      "start": 15.1015,
      "duration": 0.0167,
      "velocity": 100,
      "chip": "ym2612"
    },
    {
      "channel": 1,
      "note": 62,
      "start": 15.1144,
      "duration": 0.0163,
      "velocity": 124,
      "chip": "ym2612"
    },
    {
      "channel": 4,
      "note": 81,
      "start": 15.1158,
      "duration": 0.0163,
      "velocity": 94,
      "chip": "ym2612"
    },
    {
      "channel": 3,
      "note": 81,
      "start": 15.117,
      "duration": 0.0163,
      "velocity": 94,
      "chip": "ym2612"
    },
    {
      "channel": 2,
      "note": 57,
      "start": 15.1181,
      "duration": 0.0163,
      "velocity": 100,
      "chip": "ym2612"
    },
    {
      "channel": 1,
      "note": 61,
      "start": 15.1308,
      "duration": 0.0144,
      "velocity": 124,
      "chip": "ym2612"
    },
    {
      "channel": 4,
      "note": 81,
      "start": 15.1322,
      "duration": 0.0149,
      "velocity": 94,
      "chip": "ym2612"
    },
    {
      "channel": 3,
      "note": 81,
      "start": 15.1333,
      "duration": 0.0149,
      "velocity": 94,
      "chip": "ym2612"
    },
    {
      "channel": 2,
      "note": 57,
      "start": 15.1344,
      "duration": 0.0152,
      "velocity": 100,
      "chip": "ym2612"
    },
    {
      "channel": 1,
      "note": 60,
      "start": 15.1451,
      "duration": 0.0185,
      "velocity": 124,
      "chip": "ym2612"
    },
    {
      "channel": 4,
      "note": 81,
      "start": 15.1471,
      "duration": 0.0181,
      "velocity": 94,
      "chip": "ym2612"
    },
    {
      "channel": 3,
      "note": 81,
      "start": 15.1482,
      "duration": 0.0181,
      "velocity": 94,
      "chip": "ym2612"
    },
    {
      "channel": 2,
      "note": 57,
      "start": 15.1497,
      "duration": 0.0178,
      "velocity": 100,
      "chip": "ym2612"
    },
    {
      "channel": 1,
      "note": 59,
      "start": 15.1637,
      "duration": 0.0161,
      "velocity": 124,
      "chip": "ym2612"
    },
    {
      "channel": 4,
      "note": 81,
      "start": 15.1651,
      "duration": 0.016,
      "velocity": 94,
      "chip": "ym2612"
    },
    {
      "channel": 3,
      "note": 81,
      "start": 15.1663,
      "duration": 0.016,
      "velocity": 94,
      "chip": "ym2612"
    },
    {
      "channel": 2,
      "note": 57,
      "start": 15.1674,
      "duration": 0.016,
      "velocity": 100,
      "chip": "ym2612"
    },
    {
      "channel": 1,
      "note": 57,
      "start": 15.1798,
      "duration": 0.0134,
      "velocity": 124,
      "chip": "ym2612"
    },
    {
      "channel": 4,
      "note": 81,
      "start": 15.1812,
      "duration": 0.0157,
      "velocity": 94,
      "chip": "ym2612"
    },
    {
      "channel": 3,
      "note": 81,
      "start": 15.1823,
      "duration": 0.0157,
      "velocity": 94,
      "chip": "ym2612"
    },
    {
      "channel": 2,
      "note": 57,
      "start": 15.1834,
      "duration": 0.0157,
      "velocity": 100,
      "chip": "ym2612"
    },
    {
      "channel": 1,
      "note": 56,
      "start": 15.1931,
      "duration": 0.0161,
      "velocity": 124,
      "chip": "ym2612"
    },
    {
      "channel": 4,
      "note": 81,
      "start": 15.1969,
      "duration": 0.0141,
      "velocity": 94,
      "chip": "ym2612"
    },
    {
      "channel": 3,
      "note": 81,
      "start": 15.198,
      "duration": 0.0141,
      "velocity": 94,
      "chip": "ym2612"
    },
    {
      "channel": 2,
      "note": 57,
      "start": 15.1992,
      "duration": 0.0141,
      "velocity": 100,
      "chip": "ym2612"
    },
    {
      "channel": 1,
      "note": 55,
      "start": 15.2092,
      "duration": 0.0161,
      "velocity": 124,
      "chip": "ym2612"
    },
    {
      "channel": 4,
      "note": 81,
      "start": 15.2109,
      "duration": 0.0185,
      "velocity": 94,
      "chip": "ym2612"
    },
    {
      "channel": 3,
      "note": 81,
      "start": 15.2121,
      "duration": 0.0185,
      "velocity": 94,
      "chip": "ym2612"
    },
    {
      "channel": 2,
      "note": 57,
      "start": 15.2132,
      "duration": 0.0185,
      "velocity": 100,
      "chip": "ym2612"
    },
    {
      "channel": 1,
      "note": 53,
      "start": 15.2253,
      "duration": 0.0161,
      "velocity": 124,
      "chip": "ym2612"
    },
    {
      "channel": 4,
      "note": 81,
      "start": 15.2294,
      "duration": 0.0134,
      "velocity": 94,
      "chip": "ym2612"
    },
    {
      "channel": 3,
      "note": 81,
      "start": 15.2306,
      "duration": 0.0161,
      "velocity": 94,
      "chip": "ym2612"
    },
    {
      "channel": 2,
      "note": 57,
      "start": 15.2317,
      "duration": 0.0161,
      "velocity": 100,
      "chip": "ym2612"
    },
    {
      "channel": 1,
      "note": 52,
      "start": 15.2414,
      "duration": 0.0161,
      "velocity": 124,
      "chip": "ym2612"
    },
    {
      "channel": 4,
      "note": 81,
      "start": 15.2428,
      "duration": 0.0227,
      "velocity": 94,
      "chip": "ym2612"
    },
    {
      "channel": 3,
      "note": 81,
      "start": 15.2467,
      "duration": 0.02,
      "velocity": 94,
      "chip": "ym2612"
    },
    {
      "channel": 2,
      "note": 57,
      "start": 15.2478,
      "duration": 0.0203,
      "velocity": 100,
      "chip": "ym2612"
    },
    {
      "channel": 1,
      "note": 51,
      "start": 15.2576,
      "duration": 0.0153,
      "velocity": 1,
      "chip": "ym2612"
    },
    {
      "channel": 0,
      "note": 36,
      "start": 15.2641,
      "duration": 0.0129,
      "velocity": 115,
      "chip": "ym2612"
    },
    {
      "channel": 4,
      "note": 84,
      "start": 15.2656,
      "duration": 0.0127,
      "velocity": 94,
      "chip": "ym2612"
    },
    {
      "channel": 3,
      "note": 81,
      "start": 15.2667,
      "duration": 0.0127,
      "velocity": 94,
      "chip": "ym2612"
    },
    {
      "channel": 2,
      "note": 57,
      "start": 15.2681,
      "duration": 0.0125,
      "velocity": 100,
      "chip": "ym2612"
    },
    {
      "channel": 1,
      "note": 51,
      "start": 15.275,
      "duration": 0.0142,
      "velocity": 105,
      "chip": "ym2612"
    },
    {
      "channel": 0,
      "note": 36,
      "start": 15.277,
      "duration": 0.0139,
      "velocity": 115,
      "chip": "ym2612"
    },
    {
      "channel": 4,
      "note": 84,
      "start": 15.2783,
      "duration": 0.0138,
      "velocity": 94,
      "chip": "ym2612"
    },
    {
      "channel": 3,
      "note": 81,
      "start": 15.2794,
      "duration": 0.0166,
      "velocity": 94,
      "chip": "ym2612"
    },
    {
      "channel": 2,
      "note": 57,
      "start": 15.2806,
      "duration": 0.0165,
      "velocity": 100,
      "chip": "ym2612"
    },
    {
      "channel": 1,
      "note": 105,
      "start": 15.2892,
      "duration": 0.0161,
      "velocity": 105,
      "chip": "ym2612"
    },
    {
      "channel": 0,
      "note": 37,
      "start": 15.2909,
      "duration": 0.0161,
      "velocity": 115,
      "chip": "ym2612"
    },
    {
      "channel": 4,
      "note": 84,
      "start": 15.2921,
      "duration": 0.0161,
      "velocity": 94,
      "chip": "ym2612"
    },
    {
      "channel": 3,
      "note": 81,
      "start": 15.296,
      "duration": 0.0134,
      "velocity": 94,
      "chip": "ym2612"
    },
    {
      "channel": 2,
      "note": 57,
      "start": 15.2971,
      "duration": 0.0161,
      "velocity": 100,
      "chip": "ym2612"
    },
    {
      "channel": 1,
      "note": 105,
      "start": 15.3053,
      "duration": 0.0161,
      "velocity": 105,
      "chip": "ym2612"
    },
    {
      "channel": 0,
      "note": 37,
      "start": 15.307,
      "duration": 0.0161,
      "velocity": 115,
      "chip": "ym2612"
    },
    {
      "channel": 4,
      "note": 84,
      "start": 15.3082,
      "duration": 0.0161,
      "velocity": 94,
      "chip": "ym2612"
    },
    {
      "channel": 3,
      "note": 81,
      "start": 15.3093,
      "duration": 0.0161,
      "velocity": 94,
      "chip": "ym2612"
    },
    {
      "channel": 2,
      "note": 57,
      "start": 15.3132,
      "duration": 0.0157,
      "velocity": 100,
      "chip": "ym2612"
    },
    {
      "channel": 1,
      "note": 105,
      "start": 15.3214,
      "duration": 0.0161,
      "velocity": 105,
      "chip": "ym2612"
    },
    {
      "channel": 0,
      "note": 38,
      "start": 15.3231,
      "duration": 0.0161,
      "velocity": 115,
      "chip": "ym2612"
    },
    {
      "channel": 4,
      "note": 84,
      "start": 15.3243,
      "duration": 0.0161,
      "velocity": 94,
      "chip": "ym2612"
    },
    {
      "channel": 3,
      "note": 81,
      "start": 15.3254,
      "duration": 0.0161,
      "velocity": 94,
      "chip": "ym2612"
    },
    {
      "channel": 2,
      "note": 57,
      "start": 15.3289,
      "duration": 0.0137,
      "velocity": 100,
      "chip": "ym2612"
    },
    {
      "channel": 1,
      "note": 105,
      "start": 15.3375,
      "duration": 0.0161,
      "velocity": 105,
      "chip": "ym2612"
    },
    {
      "channel": 0,
      "note": 38,
      "start": 15.3392,
      "duration": 0.0162,
      "velocity": 115,
      "chip": "ym2612"
    },
    {
      "channel": 4,
      "note": 84,
      "start": 15.3404,
      "duration": 0.0161,
      "velocity": 94,
      "chip": "ym2612"
    },
    {
      "channel": 3,
      "note": 81,
      "start": 15.3415,
      "duration": 0.0161,
      "velocity": 94,
      "chip": "ym2612"
    },
    {
      "channel": 2,
      "note": 57,
      "start": 15.3426,
      "duration": 0.0162,
      "velocity": 100,
      "chip": "ym2612"
    },
    {
      "channel": 1,
      "note": 105,
      "start": 15.3537,
      "duration": 0.0178,
      "velocity": 124,
      "chip": "ym2612"
    },
    {
      "channel": 0,
      "note": 39,
      "start": 15.3553,
      "duration": 0.0196,
      "velocity": 115,
      "chip": "ym2612"
    },
    {
      "channel": 4,
      "note": 84,
      "start": 15.3565,
      "duration": 0.0196,
      "velocity": 94,
      "chip": "ym2612"
    },
    {
      "channel": 3,
      "note": 81,
      "start": 15.3576,
      "duration": 0.0226,
      "velocity": 94,
      "chip": "ym2612"
    },
    {
      "channel": 2,
      "note": 57,
      "start": 15.3588,
      "duration": 0.0229,
      "velocity": 100,
      "chip": "ym2612"
    },
    {
      "channel": 1,
      "note": 64,
      "start": 15.3715,
      "duration": 0.0144,
      "velocity": 124,
      "chip": "ym2612"
    },
    {
      "channel": 0,
      "note": 36,
      "start": 15.3749,
      "duration": 0.0127,
      "velocity": 115,
      "chip": "ym2612"
    },
    {
      "channel": 4,
      "note": 84,
      "start": 15.3761,
      "duration": 0.0127,
      "velocity": 94,
      "chip": "ym2612"
    },
    {
      "channel": 3,
      "note": 84,
      "start": 15.3803,
      "duration": 0.0097,
      "velocity": 94,
      "chip": "ym2612"
    },
    {
      "channel": 2,
      "note": 57,
      "start": 15.3817,
      "duration": 0.0095,
      "velocity": 100,
      "chip": "ym2612"
    },
    {
      "channel": 1,
      "note": 64,
      "start": 15.3859,
      "duration": 0.016,
      "velocity": 124,
      "chip": "ym2612"
    },
    {
      "channel": 0,
      "note": 36,
      "start": 15.3876,
      "duration": 0.016,
      "velocity": 115,
      "chip": "ym2612"
    },
    {
      "channel": 4,
      "note": 84,
      "start": 15.3888,
      "duration": 0.016,
      "velocity": 94,
      "chip": "ym2612"
    },
    {
      "channel": 3,
      "note": 84,
      "start": 15.39,
      "duration": 0.0159,
      "velocity": 94,
      "chip": "ym2612"
    },
    {
      "channel": 2,
      "note": 57,
      "start": 15.3912,
      "duration": 0.0159,
      "velocity": 100,
      "chip": "ym2612"
    },
    {
      "channel": 1,
      "note": 64,
      "start": 15.402,
      "duration": 0.0161,
      "velocity": 124,
      "chip": "ym2612"
    },
    {
      "channel": 0,
      "note": 37,
      "start": 15.4036,
      "duration": 0.0161,
      "velocity": 115,
      "chip": "ym2612"
    },
    {
      "channel": 4,
      "note": 84,
      "start": 15.4048,
      "duration": 0.0161,
      "velocity": 94,
      "chip": "ym2612"
    },
    {
      "channel": 3,
      "note": 84,
      "start": 15.4059,
      "duration": 0.0162,
      "velocity": 94,
      "chip": "ym2612"
    },
    {
      "channel": 2,
      "note": 57,
      "start": 15.4071,
      "duration": 0.0161,
      "velocity": 100,
      "chip": "ym2612"
    },
    {
      "channel": 1,
      "note": 64,
      "start": 15.418,
      "duration": 0.0161,
      "velocity": 124,
      "chip": "ym2612"
    },
    {
      "channel": 0,
      "note": 37,
      "start": 15.4197,
      "duration": 0.0161,
      "velocity": 115,
      "chip": "ym2612"
    },
    {
      "channel": 4,
      "note": 84,
      "start": 15.4209,
      "duration": 0.0161,
      "velocity": 94,
      "chip": "ym2612"
    },
    {
      "channel": 3,
      "note": 84,
      "start": 15.4221,
      "duration": 0.0161,
      "velocity": 94,
      "chip": "ym2612"
    },
    {
      "channel": 2,
      "note": 57,
      "start": 15.4232,
      "duration": 0.0161,
      "velocity": 100,
      "chip": "ym2612"
    },
    {
      "channel": 1,
      "note": 64,
      "start": 15.4341,
      "duration": 0.0161,
      "velocity": 124,
      "chip": "ym2612"
    },
    {
      "channel": 0,
      "note": 38,
      "start": 15.4358,
      "duration": 0.0161,
      "velocity": 115,
      "chip": "ym2612"
    },
    {
      "channel": 4,
      "note": 84,
      "start": 15.437,
      "duration": 0.0161,
      "velocity": 94,
      "chip": "ym2612"
    },
    {
      "channel": 3,
      "note": 84,
      "start": 15.4382,
      "duration": 0.0161,
      "velocity": 94,
      "chip": "ym2612"
    },
    {
      "channel": 2,
      "note": 57,
      "start": 15.4392,
      "duration": 0.0161,
      "velocity": 100,
      "chip": "ym2612"
    },
    {
      "channel": 1,
      "note": 64,
      "start": 15.4502,
      "duration": 0.0161,
      "velocity": 124,
      "chip": "ym2612"
    },
    {
      "channel": 0,
      "note": 38,
      "start": 15.4519,
      "duration": 0.0161,
      "velocity": 115,
      "chip": "ym2612"
    },
    {
      "channel": 4,
      "note": 84,
      "start": 15.4531,
      "duration": 0.0161,
      "velocity": 94,
      "chip": "ym2612"
    },
    {
      "channel": 3,
      "note": 84,
      "start": 15.4542,
      "duration": 0.0161,
      "velocity": 94,
      "chip": "ym2612"
    },
    {
      "channel": 2,
      "note": 57,
      "start": 15.4553,
      "duration": 0.0162,
      "velocity": 100,
      "chip": "ym2612"
    },
    {
      "channel": 1,
      "note": 64,
      "start": 15.4663,
      "duration": 0.0178,
      "velocity": 105,
      "chip": "ym2612"
    },
    {
      "channel": 0,
      "note": 39,
      "start": 15.468,
      "duration": 0.0178,
      "velocity": 115,
      "chip": "ym2612"
    },
    {
      "channel": 4,
      "note": 84,
      "start": 15.4692,
      "duration": 0.0178,
      "velocity": 94,
      "chip": "ym2612"
    },
    {
      "channel": 3,
      "note": 84,
      "start": 15.4703,
      "duration": 0.0178,
      "velocity": 94,
      "chip": "ym2612"
    },
    {
      "channel": 2,
      "note": 57,
      "start": 15.4715,
      "duration": 0.018,
      "velocity": 100,
      "chip": "ym2612"
    },
    {
      "channel": 1,
      "note": 105,
      "start": 15.4841,
      "duration": 0.0144,
      "velocity": 105,
      "chip": "ym2612"
    },
    {
      "channel": 0,
      "note": 39,
      "start": 15.4859,
      "duration": 0.0144,
      "velocity": 115,
      "chip": "ym2612"
    },
    {
      "channel": 4,
      "note": 84,
      "start": 15.487,
      "duration": 0.0144,
      "velocity": 94,
      "chip": "ym2612"
    },
    {
      "channel": 3,
      "note": 84,
      "start": 15.4882,
      "duration": 0.0144,
      "velocity": 94,
      "chip": "ym2612"
    },
    {
      "channel": 2,
      "note": 57,
      "start": 15.4896,
      "duration": 0.0141,
      "velocity": 100,
      "chip": "ym2612"
    },
    {
      "channel": 1,
      "note": 105,
      "start": 15.4986,
      "duration": 0.0161,
      "velocity": 105,
      "chip": "ym2612"
    },
    {
      "channel": 0,
      "note": 40,
      "start": 15.5002,
      "duration": 0.0161,
      "velocity": 115,
      "chip": "ym2612"
    },
    {
      "channel": 4,
      "note": 84,
      "start": 15.5015,
      "duration": 0.016,
      "velocity": 94,
      "chip": "ym2612"
    },
    {
      "channel": 3,
      "note": 84,
      "start": 15.5026,
      "duration": 0.016,
      "velocity": 94,
      "chip": "ym2612"
    },
    {
      "channel": 2,
      "note": 57,
      "start": 15.5037,
      "duration": 0.016,
      "velocity": 100,
      "chip": "ym2612"
    },
    {
      "channel": 1,
      "note": 105,
      "start": 15.5147,
      "duration": 0.0161,
      "velocity": 105,
      "chip": "ym2612"
    },
    {
      "channel": 0,
      "note": 40,
      "start": 15.5163,
      "duration": 0.0161,
      "velocity": 115,
      "chip": "ym2612"
    },
    {
      "channel": 4,
      "note": 84,
      "start": 15.5175,
      "duration": 0.0161,
      "velocity": 94,
      "chip": "ym2612"
    },
    {
      "channel": 3,
      "note": 84,
      "start": 15.5186,
      "duration": 0.0161,
      "velocity": 94,
      "chip": "ym2612"
    },
    {
      "channel": 2,
      "note": 57,
      "start": 15.5198,
      "duration": 0.0161,
      "velocity": 100,
      "chip": "ym2612"
    },
    {
      "channel": 1,
      "note": 105,
      "start": 15.5308,
      "duration": 0.0161,
      "velocity": 105,
      "chip": "ym2612"
    },
    {
      "channel": 0,
      "note": 40,
      "start": 15.5324,
      "duration": 0.0161,
      "velocity": 115,
      "chip": "ym2612"
    },
    {
      "channel": 4,
      "note": 84,
      "start": 15.5336,
      "duration": 0.0161,
      "velocity": 94,
      "chip": "ym2612"
    },
    {
      "channel": 3,
      "note": 84,
      "start": 15.5347,
      "duration": 0.0161,
      "velocity": 94,
      "chip": "ym2612"
    },
    {
      "channel": 2,
      "note": 57,
      "start": 15.5359,
      "duration": 0.0161,
      "velocity": 100,
      "chip": "ym2612"
    },
    {
      "channel": 1,
      "note": 105,
      "start": 15.5469,
      "duration": 0.0171,
      "velocity": 105,
      "chip": "ym2612"
    },
    {
      "channel": 0,
      "note": 41,
      "start": 15.5485,
      "duration": 0.0171,
      "velocity": 115,
      "chip": "ym2612"
    },
    {
      "channel": 4,
      "note": 84,
      "start": 15.5497,
      "duration": 0.0171,
      "velocity": 94,
      "chip": "ym2612"
    },
    {
      "channel": 3,
      "note": 84,
      "start": 15.5508,
      "duration": 0.0171,
      "velocity": 94,
      "chip": "ym2612"
    },
    {
      "channel": 2,
      "note": 57,
      "start": 15.552,
      "duration": 0.0171,
      "velocity": 100,
      "chip": "ym2612"
    },
    {
      "channel": 1,
      "note": 105,
      "start": 15.564,
      "duration": 0.0167,
      "velocity": 105,
      "chip": "ym2612"
    },
    {
      "channel": 0,
      "note": 41,
      "start": 15.5656,
      "duration": 0.0167,
      "velocity": 115,
      "chip": "ym2612"
    },
    {
      "channel": 4,
      "note": 84,
      "start": 15.5668,
      "duration": 0.0167,
      "velocity": 94,
      "chip": "ym2612"
    },
    {
      "channel": 3,
      "note": 84,
      "start": 15.5679,
      "duration": 0.0167,
      "velocity": 94,
      "chip": "ym2612"
    },
    {
      "channel": 2,
      "note": 57,
      "start": 15.5691,
      "duration": 0.0167,
      "velocity": 100,
      "chip": "ym2612"
    },
    {
      "channel": 1,
      "note": 105,
      "start": 15.5807,
      "duration": 0.018,
      "velocity": 124,
      "chip": "ym2612"
    },
    {
      "channel": 0,
      "note": 42,
      "start": 15.5823,
      "duration": 0.018,
      "velocity": 115,
      "chip": "ym2612"
    },
    {
      "channel": 4,
      "note": 84,
      "start": 15.5834,
      "duration": 0.0181,
      "velocity": 94,
      "chip": "ym2612"
    },
    {
      "channel": 3,
      "note": 84,
      "start": 15.5846,
      "duration": 0.018,
      "velocity": 94,
      "chip": "ym2612"
    },
    {
      "channel": 2,
      "note": 57,
      "start": 15.5857,
      "duration": 0.0183,
      "velocity": 100,
      "chip": "ym2612"
    },
    {
      "channel": 1,
      "note": 64,
      "start": 15.5986,
      "duration": 0.013,
      "velocity": 124,
      "chip": "ym2612"
    },
    {
      "channel": 0,
      "note": 42,
      "start": 15.6004,
      "duration": 0.0129,
      "velocity": 115,
      "chip": "ym2612"
    },
    {
      "channel": 4,
      "note": 84,
      "start": 15.6015,
      "duration": 0.0129,
      "velocity": 94,
      "chip": "ym2612"
    },
    {
      "channel": 3,
      "note": 84,
      "start": 15.6027,
      "duration": 0.0129,
      "velocity": 94,
      "chip": "ym2612"
    },
    {
      "channel": 2,
      "note": 57,
      "start": 15.6041,
      "duration": 0.0127,
      "velocity": 100,
      "chip": "ym2612"
    },
    {
      "channel": 1,
      "note": 64,
      "start": 15.6116,
      "duration": 0.0185,
      "velocity": 124,
      "chip": "ym2612"
    },
    {
      "channel": 0,
      "note": 43,
      "start": 15.6133,
      "duration": 0.0185,
      "velocity": 115,
      "chip": "ym2612"
    },
    {
      "channel": 4,
      "note": 84,
      "start": 15.6144,
      "duration": 0.0185,
      "velocity": 94,
      "chip": "ym2612"
    },
    {
      "channel": 3,
      "note": 84,
      "start": 15.6156,
      "duration": 0.0185,
      "velocity": 94,
      "chip": "ym2612"
    },
    {
      "channel": 2,
      "note": 57,
      "start": 15.6168,
      "duration": 0.0185,
      "velocity": 100,
      "chip": "ym2612"
    },
    {
      "channel": 1,
      "note": 64,
      "start": 15.6301,
      "duration": 0.0161,
      "velocity": 124,
      "chip": "ym2612"
    },
    {
      "channel": 0,
      "note": 43,
      "start": 15.6318,
      "duration": 0.0161,
      "velocity": 115,
      "chip": "ym2612"
    },
    {
      "channel": 4,
      "note": 84,
      "start": 15.6329,
      "duration": 0.0161,
      "velocity": 94,
      "chip": "ym2612"
    },
    {
      "channel": 3,
      "note": 84,
      "start": 15.6341,
      "duration": 0.0161,
      "velocity": 94,
      "chip": "ym2612"
    },
    {
      "channel": 2,
      "note": 57,
      "start": 15.6352,
      "duration": 0.0161,
      "velocity": 100,
      "chip": "ym2612"
    },
    {
      "channel": 1,
      "note": 64,
      "start": 15.6462,
      "duration": 0.0134,
      "velocity": 124,
      "chip": "ym2612"
    },
    {
      "channel": 0,
      "note": 44,
      "start": 15.6479,
      "duration": 0.0158,
      "velocity": 115,
      "chip": "ym2612"
    },
    {
      "channel": 4,
      "note": 84,
      "start": 15.649,
      "duration": 0.0158,
      "velocity": 94,
      "chip": "ym2612"
    },
    {
      "channel": 3,
      "note": 84,
      "start": 15.6502,
      "duration": 0.0158,
      "velocity": 94,
      "chip": "ym2612"
    },
    {
      "channel": 2,
      "note": 57,
      "start": 15.6513,
      "duration": 0.0158,
      "velocity": 100,
      "chip": "ym2612"
    },
    {
      "channel": 1,
      "note": 64,
      "start": 15.6596,
      "duration": 0.0161,
      "velocity": 124,
      "chip": "ym2612"
    },
    {
      "channel": 0,
      "note": 44,
      "start": 15.6637,
      "duration": 0.014,
      "velocity": 115,
      "chip": "ym2612"
    },
    {
      "channel": 4,
      "note": 84,
      "start": 15.6648,
      "duration": 0.0141,
      "velocity": 94,
      "chip": "ym2612"
    },
    {
      "channel": 3,
      "note": 84,
      "start": 15.666,
      "duration": 0.0141,
      "velocity": 94,
      "chip": "ym2612"
    },
    {
      "channel": 2,
      "note": 57,
      "start": 15.6671,
      "duration": 0.014,
      "velocity": 100,
      "chip": "ym2612"
    },
    {
      "channel": 1,
      "note": 64,
      "start": 15.6757,
      "duration": 0.0161,
      "velocity": 124,
      "chip": "ym2612"
    },
    {
      "channel": 0,
      "note": 44,
      "start": 15.6777,
      "duration": 0.0186,
      "velocity": 115,
      "chip": "ym2612"
    },
    {
      "channel": 4,
      "note": 84,
      "start": 15.6789,
      "duration": 0.0185,
      "velocity": 94,
      "chip": "ym2612"
    },
    {
      "channel": 3,
      "note": 84,
      "start": 15.68,
      "duration": 0.0185,
      "velocity": 94,
      "chip": "ym2612"
    },
    {
      "channel": 2,
      "note": 57,
      "start": 15.6811,
      "duration": 0.0186,
      "velocity": 100,
      "chip": "ym2612"
    },
    {
      "channel": 1,
      "note": 64,
      "start": 15.6918,
      "duration": 0.0177,
      "velocity": 105,
      "chip": "ym2612"
    },
    {
      "channel": 0,
      "note": 45,
      "start": 15.6962,
      "duration": 0.0178,
      "velocity": 115,
      "chip": "ym2612"
    },
    {
      "channel": 4,
      "note": 84,
      "start": 15.6974,
      "duration": 0.0178,
      "velocity": 94,
      "chip": "ym2612"
    },
    {
      "channel": 3,
      "note": 84,
      "start": 15.6985,
      "duration": 0.0178,
      "velocity": 94,
      "chip": "ym2612"
    },
    {
      "channel": 2,
      "note": 57,
      "start": 15.6997,
      "duration": 0.0181,
      "velocity": 100,
      "chip": "ym2612"
    },
    {
      "channel": 1,
      "note": 105,
      "start": 15.7096,
      "duration": 0.0144,
      "velocity": 105,
      "chip": "ym2612"
    },
    {
      "channel": 0,
      "note": 45,
      "start": 15.714,
      "duration": 0.0117,
      "velocity": 115,
      "chip": "ym2612"
    },
    {
      "channel": 4,
      "note": 84,
      "start": 15.7152,
      "duration": 0.0141,
      "velocity": 94,
      "chip": "ym2612"
    },
    {
      "channel": 3,
      "note": 84,
      "start": 15.7163,
      "duration": 0.0141,
      "velocity": 94,
      "chip": "ym2612"
    },
    {
      "channel": 2,
      "note": 57,
      "start": 15.7177,
      "duration": 0.0138,
      "velocity": 100,
      "chip": "ym2612"
    },
    {
      "channel": 1,
      "note": 105,
      "start": 15.724,
      "duration": 0.016,
      "velocity": 105,
      "chip": "ym2612"
    },
    {
      "channel": 0,
      "note": 46,
      "start": 15.7257,
      "duration": 0.016,
      "velocity": 115,
      "chip": "ym2612"
    },
    {
      "channel": 4,
      "note": 84,
      "start": 15.7293,
      "duration": 0.0137,
      "velocity": 94,
      "chip": "ym2612"
    },
    {
      "channel": 3,
      "note": 84,
      "start": 15.7304,
      "duration": 0.014,
      "velocity": 94,
      "chip": "ym2612"
    },
    {
      "channel": 2,
      "note": 57,
      "start": 15.7315,
      "duration": 0.014,
      "velocity": 100,
      "chip": "ym2612"
    },
    {
      "channel": 1,
      "note": 105,
      "start": 15.7401,
      "duration": 0.0161,
      "velocity": 105,
      "chip": "ym2612"
    },
    {
      "channel": 0,
      "note": 46,
      "start": 15.7417,
      "duration": 0.0161,
      "velocity": 115,
      "chip": "ym2612"
    },
    {
      "channel": 4,
      "note": 84,
      "start": 15.7429,
      "duration": 0.0161,
      "velocity": 94,
      "chip": "ym2612"
    },
    {
      "channel": 3,
      "note": 84,
      "start": 15.7444,
      "duration": 0.0185,
      "velocity": 94,
      "chip": "ym2612"
    },
    {
      "channel": 2,
      "note": 57,
      "start": 15.7455,
      "duration": 0.0185,
      "velocity": 100,
      "chip": "ym2612"
    },
    {
      "channel": 1,
      "note": 105,
      "start": 15.7562,
      "duration": 0.0161,
      "velocity": 105,
      "chip": "ym2612"
    },
    {
      "channel": 0,
      "note": 47,
      "start": 15.7578,
      "duration": 0.0161,
      "velocity": 115,
      "chip": "ym2612"
    },
    {
      "channel": 4,
      "note": 84,
      "start": 15.759,
      "duration": 0.0161,
      "velocity": 94,
      "chip": "ym2612"
    },
    {
      "channel": 3,
      "note": 84,
      "start": 15.7629,
      "duration": 0.0134,
      "velocity": 94,
      "chip": "ym2612"
    },
    {
      "channel": 2,
      "note": 57,
      "start": 15.764,
      "duration": 0.0161,
      "velocity": 100,
      "chip": "ym2612"
    },
    {
      "channel": 1,
      "note": 105,
      "start": 15.7722,
      "duration": 0.0161,
      "velocity": 105,
      "chip": "ym2612"
    },
    {
      "channel": 0,
      "note": 47,
      "start": 15.7739,
      "duration": 0.0161,
      "velocity": 115,
      "chip": "ym2612"
    },
    {
      "channel": 4,
      "note": 84,
      "start": 15.7751,
      "duration": 0.0161,
      "velocity": 94,
      "chip": "ym2612"
    },
    {
      "channel": 3,
      "note": 84,
      "start": 15.7763,
      "duration": 0.0161,
      "velocity": 94,
      "chip": "ym2612"
    },
    {
      "channel": 2,
      "note": 57,
      "start": 15.7801,
      "duration": 0.0157,
      "velocity": 100,
      "chip": "ym2612"
    },
    {
      "channel": 1,
      "note": 105,
      "start": 15.7883,
      "duration": 0.0161,
      "velocity": 105,
      "chip": "ym2612"
    },
    {
      "channel": 0,
      "note": 47,
      "start": 15.79,
      "duration": 0.0162,
      "velocity": 115,
      "chip": "ym2612"
    },
    {
      "channel": 4,
      "note": 84,
      "start": 15.7912,
      "duration": 0.0161,
      "velocity": 94,
      "chip": "ym2612"
    },
    {
      "channel": 3,
      "note": 84,
      "start": 15.7924,
      "duration": 0.0161,
      "velocity": 94,
      "chip": "ym2612"
    },
    {
      "channel": 2,
      "note": 57,
      "start": 15.7959,
      "duration": 0.0137,
      "velocity": 100,
      "chip": "ym2612"
    },
    {
      "channel": 1,
      "note": 105,
      "start": 15.8044,
      "duration": 0.0184,
      "velocity": 124,
      "chip": "ym2612"
    },
    {
      "channel": 0,
      "note": 48,
      "start": 15.8062,
      "duration": 0.0191,
      "velocity": 115,
      "chip": "ym2612"
    },
    {
      "channel": 4,
      "note": 84,
      "start": 15.8073,
      "duration": 0.0191,
      "velocity": 94,
      "chip": "ym2612"
    },
    {
      "channel": 3,
      "note": 84,
      "start": 15.8085,
      "duration": 0.0219,
      "velocity": 94,
      "chip": "ym2612"
    },
    {
      "channel": 2,
      "note": 57,
      "start": 15.8096,
      "duration": 0.0221,
      "velocity": 100,
      "chip": "ym2612"
    },
    {
      "channel": 1,
      "note": 78,
      "start": 15.8229,
      "duration": 0.0143,
      "velocity": 124,
      "chip": "ym2612"
    },
    {
      "channel": 0,
      "note": 48,
      "start": 15.8252,
      "duration": 0.0139,
      "velocity": 115,
      "chip": "ym2612"
    },
    {
      "channel": 4,
      "note": 84,
      "start": 15.8264,
      "duration": 0.0139,
      "velocity": 94,
      "chip": "ym2612"
    },
    {
      "channel": 3,
      "note": 84,
      "start": 15.8303,
      "duration": 0.0111,
      "velocity": 94,
      "chip": "ym2612"
    },
    {
      "channel": 2,
      "note": 57,
      "start": 15.8317,
      "duration": 0.0109,
      "velocity": 100,
      "chip": "ym2612"
    },
    {
      "channel": 1,
      "note": 76,
      "start": 15.8372,
      "duration": 0.0161,
      "velocity": 124,
      "chip": "ym2612"
    },
    {
      "channel": 0,
      "note": 49,
      "start": 15.8391,
      "duration": 0.0153,
      "velocity": 1,
      "chip": "ym2612"
    },
    {
      "channel": 4,
      "note": 84,
      "start": 15.8403,
      "duration": 0.0152,
      "velocity": 94,
      "chip": "ym2612"
    },
    {
      "channel": 3,
      "note": 84,
      "start": 15.8415,
      "duration": 0.0152,
      "velocity": 94,
      "chip": "ym2612"
    },
    {
      "channel": 2,
      "note": 57,
      "start": 15.8426,
      "duration": 0.0152,
      "velocity": 100,
      "chip": "ym2612"
    },
    {
      "channel": 1,
      "note": 75,
      "start": 15.8533,
      "duration": 0.0161,
      "velocity": 124,
      "chip": "ym2612"
    },
    {
      "channel": 4,
      "note": 84,
      "start": 15.8555,
      "duration": 0.0153,
      "velocity": 94,
      "chip": "ym2612"
    },
    {
      "channel": 3,
      "note": 84,
      "start": 15.8567,
      "duration": 0.0153,
      "velocity": 94,
      "chip": "ym2612"
    },
    {
      "channel": 2,
      "note": 57,
      "start": 15.8578,
      "duration": 0.0152,
      "velocity": 100,
      "chip": "ym2612"
    },
    {
      "channel": 1,
      "note": 74,
      "start": 15.8694,
      "duration": 0.0161,
      "velocity": 124,
      "chip": "ym2612"
    },
    {
      "channel": 4,
      "note": 84,
      "start": 15.8708,
      "duration": 0.0161,
      "velocity": 94,
      "chip": "ym2612"
    },
    {
      "channel": 3,
      "note": 84,
      "start": 15.8719,
      "duration": 0.0161,
      "velocity": 94,
      "chip": "ym2612"
    },
    {
      "channel": 2,
      "note": 57,
      "start": 15.873,
      "duration": 0.0161,
      "velocity": 100,
      "chip": "ym2612"
    },
    {
      "channel": 1,
      "note": 72,
      "start": 15.8855,
      "duration": 0.0161,
      "velocity": 124,
      "chip": "ym2612"
    },
    {
      "channel": 4,
      "note": 84,
      "start": 15.8869,
      "duration": 0.0161,
      "velocity": 94,
      "chip": "ym2612"
    },
    {
      "channel": 3,
      "note": 84,
      "start": 15.888,
      "duration": 0.0161,
      "velocity": 94,
      "chip": "ym2612"
    },
    {
      "channel": 2,
      "note": 57,
      "start": 15.8892,
      "duration": 0.0161,
      "velocity": 100,
      "chip": "ym2612"
    },
    {
      "channel": 1,
      "note": 71,
      "start": 15.9016,
      "duration": 0.0161,
      "velocity": 124,
      "chip": "ym2612"
    },
    {
      "channel": 4,
      "note": 84,
      "start": 15.903,
      "duration": 0.0161,
      "velocity": 94,
      "chip": "ym2612"
    },
    {
      "channel": 3,
      "note": 84,
      "start": 15.9041,
      "duration": 0.0161,
      "velocity": 94,
      "chip": "ym2612"
    },
    {
      "channel": 2,
      "note": 57,
      "start": 15.9053,
      "duration": 0.0161,
      "velocity": 100,
      "chip": "ym2612"
    },
    {
      "channel": 1,
      "note": 70,
      "start": 15.9177,
      "duration": 0.0161,
      "velocity": 124,
      "chip": "ym2612"
    },
    {
      "channel": 4,
      "note": 84,
      "start": 15.9191,
      "duration": 0.0168,
      "velocity": 94,
      "chip": "ym2612"
    },
    {
      "channel": 3,
      "note": 84,
      "start": 15.9202,
      "duration": 0.0169,
      "velocity": 94,
      "chip": "ym2612"
    },
    {
      "channel": 2,
      "note": 57,
      "start": 15.9214,
      "duration": 0.0171,
      "velocity": 100,
      "chip": "ym2612"
    },
    {
      "channel": 1,
      "note": 69,
      "start": 15.9338,
      "duration": 0.0161,
      "velocity": 124,
      "chip": "ym2612"
    },
    {
      "channel": 4,
      "note": 81,
      "start": 15.9359,
      "duration": 0.0155,
      "velocity": 94,
      "chip": "ym2612"
    },
    {
      "channel": 3,
      "note": 84,
      "start": 15.9371,
      "duration": 0.0155,
      "velocity": 94,
      "chip": "ym2612"
    },
    {
      "channel": 2,
      "note": 57,
      "start": 15.9385,
      "duration": 0.0151,
      "velocity": 100,
      "chip": "ym2612"
    },
    {
      "channel": 1,
      "note": 68,
      "start": 15.9499,
      "duration": 0.0161,
      "velocity": 124,
      "chip": "ym2612"
    },
    {
      "channel": 4,
      "note": 81,
      "start": 15.9514,
      "duration": 0.016,
      "velocity": 94,
      "chip": "ym2612"
    },
    {
      "channel": 3,
      "note": 84,
      "start": 15.9525,
      "duration": 0.016,
      "velocity": 94,
      "chip": "ym2612"
    },
    {
      "channel": 2,
      "note": 57,
      "start": 15.9537,
      "duration": 0.016,
      "velocity": 100,
      "chip": "ym2612"
    },
    {
      "channel": 1,
      "note": 66,
      "start": 15.966,
      "duration": 0.0161,
      "velocity": 124,
      "chip": "ym2612"
    },
    {
      "channel": 4,
      "note": 81,
      "start": 15.9673,
      "duration": 0.0161,
      "velocity": 94,
      "chip": "ym2612"
    },
    {
      "channel": 3,
      "note": 84,
      "start": 15.9685,
      "duration": 0.0161,
      "velocity": 94,
      "chip": "ym2612"
    },
    {
      "channel": 2,
      "note": 57,
      "start": 15.9696,
      "duration": 0.0161,
      "velocity": 100,
      "chip": "ym2612"
    },
    {
      "channel": 1,
      "note": 65,
      "start": 15.9821,
      "duration": 0.0161,
      "velocity": 124,
      "chip": "ym2612"
    },
    {
      "channel": 4,
      "note": 81,
      "start": 15.9834,
      "duration": 0.0161,
      "velocity": 94,
      "chip": "ym2612"
    },
    {
      "channel": 3,
      "note": 84,
      "start": 15.9846,
      "duration": 0.0161,
      "velocity": 94,
      "chip": "ym2612"
    },
    {
      "channel": 2,
      "note": 57,
      "start": 15.9857,
      "duration": 0.0161,
      "velocity": 100,
      "chip": "ym2612"
    },
    {
      "channel": 1,
      "note": 64,
      "start": 15.9982,
      "duration": 0.0161,
      "velocity": 124,
      "chip": "ym2612"
    },
    {
      "channel": 4,
      "note": 81,
      "start": 15.9995,
      "duration": 0.0161,
      "velocity": 94,
      "chip": "ym2612"
    },
    {
      "channel": 3,
      "note": 84,
      "start": 16.0007,
      "duration": 0.0161,
      "velocity": 94,
      "chip": "ym2612"
    },
    {
      "channel": 2,
      "note": 57,
      "start": 16.0018,
      "duration": 0.0161,
      "velocity": 100,
      "chip": "ym2612"
    },
    {
      "channel": 1,
      "note": 62,
      "start": 16.0143,
      "duration": 0.0168,
      "velocity": 124,
      "chip": "ym2612"
    },
    {
      "channel": 4,
      "note": 81,
      "start": 16.0156,
      "duration": 0.0168,
      "velocity": 94,
      "chip": "ym2612"
    },
    {
      "channel": 3,
      "note": 84,
      "start": 16.0168,
      "duration": 0.0168,
      "velocity": 94,
      "chip": "ym2612"
    },
    {
      "channel": 2,
      "note": 57,
      "start": 16.0179,
      "duration": 0.0168,
      "velocity": 100,
      "chip": "ym2612"
    },
    {
      "channel": 1,
      "note": 61,
      "start": 16.0311,
      "duration": 0.0167,
      "velocity": 124,
      "chip": "ym2612"
    },
    {
      "channel": 4,
      "note": 81,
      "start": 16.0325,
      "duration": 0.0172,
      "velocity": 94,
      "chip": "ym2612"
    },
    {
      "channel": 3,
      "note": 84,
      "start": 16.0336,
      "duration": 0.0174,
      "velocity": 94,
      "chip": "ym2612"
    },
    {
      "channel": 2,
      "note": 57,
      "start": 16.0348,
      "duration": 0.0178,
      "velocity": 100,
      "chip": "ym2612"
    },
    {
      "channel": 1,
      "note": 60,
      "start": 16.0478,
      "duration": 0.0163,
      "velocity": 124,
      "chip": "ym2612"
    },
    {
      "channel": 4,
      "note": 81,
      "start": 16.0497,
      "duration": 0.0159,
      "velocity": 94,
      "chip": "ym2612"
    },
    {
      "channel": 3,
      "note": 81,
      "start": 16.0511,
      "duration": 0.0156,
      "velocity": 94,
      "chip": "ym2612"
    },
    {
      "channel": 2,
      "note": 50,
      "start": 16.0525,
      "duration": 0.0154,
      "velocity": 100,
      "chip": "ym2612"
    },
    {
      "channel": 1,
      "note": 59,
      "start": 16.0641,
      "duration": 0.0147,
      "velocity": 124,
      "chip": "ym2612"
    },
    {
      "channel": 4,
      "note": 81,
      "start": 16.0655,
      "duration": 0.0147,
      "velocity": 94,
      "chip": "ym2612"
    },
    {
      "channel": 3,
      "note": 81,
      "start": 16.0667,
      "duration": 0.0146,
      "velocity": 94,
      "chip": "ym2612"
    },
    {
      "channel": 2,
      "note": 50,
      "start": 16.0679,
      "duration": 0.0145,
      "velocity": 100,
      "chip": "ym2612"
    },
    {
      "channel": 1,
      "note": 57,
      "start": 16.0788,
      "duration": 0.0187,
      "velocity": 124,
      "chip": "ym2612"
    },
    {
      "channel": 4,
      "note": 81,
      "start": 16.0802,
      "duration": 0.0187,
      "velocity": 94,
      "chip": "ym2612"
    },
    {
      "channel": 3,
      "note": 81,
      "start": 16.0813,
      "duration": 0.0187,
      "velocity": 94,
      "chip": "ym2612"
    },
    {
      "channel": 2,
      "note": 50,
      "start": 16.0824,
      "duration": 0.0188,
      "velocity": 100,
      "chip": "ym2612"
    },
    {
      "channel": 1,
      "note": 56,
      "start": 16.0975,
      "duration": 0.0162,
      "velocity": 124,
      "chip": "ym2612"
    },
    {
      "channel": 4,
      "note": 81,
      "start": 16.0989,
      "duration": 0.0161,
      "velocity": 94,
      "chip": "ym2612"
    },
    {
      "channel": 3,
      "note": 81,
      "start": 16.1,
      "duration": 0.0161,
      "velocity": 94,
      "chip": "ym2612"
    },
    {
      "channel": 2,
      "note": 50,
      "start": 16.1012,
      "duration": 0.0161,
      "velocity": 100,
      "chip": "ym2612"
    },
    {
      "channel": 1,
      "note": 55,
      "start": 16.1137,
      "duration": 0.0157,
      "velocity": 124,
      "chip": "ym2612"
    },
    {
      "channel": 4,
      "note": 81,
      "start": 16.115,
      "duration": 0.0158,
      "velocity": 94,
      "chip": "ym2612"
    },
    {
      "channel": 3,
      "note": 81,
      "start": 16.1161,
      "duration": 0.0158,
      "velocity": 94,
      "chip": "ym2612"
    },
    {
      "channel": 2,
      "note": 50,
      "start": 16.1173,
      "duration": 0.0158,
      "velocity": 100,
      "chip": "ym2612"
    },
    {
      "channel": 1,
      "note": 53,
      "start": 16.1294,
      "duration": 0.0137,
      "velocity": 124,
      "chip": "ym2612"
    },
    {
      "channel": 4,
      "note": 81,
      "start": 16.1308,
      "duration": 0.014,
      "velocity": 94,
      "chip": "ym2612"
    },
    {
      "channel": 3,
      "note": 81,
      "start": 16.1319,
      "duration": 0.014,
      "velocity": 94,
      "chip": "ym2612"
    },
    {
      "channel": 2,
      "note": 50,
      "start": 16.1331,
      "duration": 0.014,
      "velocity": 100,
      "chip": "ym2612"
    },
    {
      "channel": 1,
      "note": 52,
      "start": 16.1431,
      "duration": 0.0161,
      "velocity": 124,
      "chip": "ym2612"
    },
    {
      "channel": 4,
      "note": 81,
      "start": 16.1448,
      "duration": 0.0226,
      "velocity": 94,
      "chip": "ym2612"
    },
    {
      "channel": 3,
      "note": 81,
      "start": 16.1459,
      "duration": 0.0226,
      "velocity": 94,
      "chip": "ym2612"
    },
    {
      "channel": 2,
      "note": 50,
      "start": 16.1471,
      "duration": 0.0228,
      "velocity": 100,
      "chip": "ym2612"
    },
    {
      "channel": 1,
      "note": 51,
      "start": 16.1592,
      "duration": 0.0153,
      "velocity": 1,
      "chip": "ym2612"
    },
    {
      "channel": 0,
      "note": 78,
      "start": 16.1662,
      "duration": 0.0149,
      "velocity": 127,
      "chip": "ym2612"
    },
    {
      "channel": 4,
      "note": 81,
      "start": 16.1673,
      "duration": 0.015,
      "velocity": 94,
      "chip": "ym2612"
    },
    {
      "channel": 3,
      "note": 81,
      "start": 16.1685,
      "duration": 0.0149,
      "velocity": 94,
      "chip": "ym2612"
    },
    {
      "channel": 2,
      "note": 50,
      "start": 16.1699,
      "duration": 0.0147,
      "velocity": 100,
      "chip": "ym2612"
    },
    {
      "channel": 1,
      "note": 51,
      "start": 16.1794,
      "duration": 0.0115,
      "velocity": 105,
      "chip": "ym2612"
    },
    {
      "channel": 0,
      "note": 76,
      "start": 16.1811,
      "duration": 0.0115,
      "velocity": 127,
      "chip": "ym2612"
    },
    {
      "channel": 4,
      "note": 81,
      "start": 16.1823,
      "duration": 0.0138,
      "velocity": 94,
      "chip": "ym2612"
    },
    {
      "channel": 3,
      "note": 81,
      "start": 16.1834,
      "duration": 0.0138,
      "velocity": 94,
      "chip": "ym2612"
    },
    {
      "channel": 2,
      "note": 50,
      "start": 16.1846,
      "duration": 0.0138,
      "velocity": 100,
      "chip": "ym2612"
    },
    {
      "channel": 1,
      "note": 105,
      "start": 16.1909,
      "duration": 0.0161,
      "velocity": 105,
      "chip": "ym2612"
    },
    {
      "channel": 0,
      "note": 75,
      "start": 16.1925,
      "duration": 0.0161,
      "velocity": 127,
      "chip": "ym2612"
    },
    {
      "channel": 4,
      "note": 81,
      "start": 16.1961,
      "duration": 0.0139,
      "velocity": 94,
      "chip": "ym2612"
    },
    {
      "channel": 3,
      "note": 81,
      "start": 16.1973,
      "duration": 0.0141,
      "velocity": 94,
      "chip": "ym2612"
    },
    {
      "channel": 2,
      "note": 50,
      "start": 16.1984,
      "duration": 0.014,
      "velocity": 100,
      "chip": "ym2612"
    },
    {
      "channel": 1,
      "note": 105,
      "start": 16.207,
      "duration": 0.0161,
      "velocity": 105,
      "chip": "ym2612"
    },
    {
      "channel": 0,
      "note": 73,
      "start": 16.2086,
      "duration": 0.0161,
      "velocity": 127,
      "chip": "ym2612"
    },
    {
      "channel": 4,
      "note": 81,
      "start": 16.21,
      "duration": 0.016,
      "velocity": 94,
      "chip": "ym2612"
    },
    {
      "channel": 3,
      "note": 81,
      "start": 16.2113,
      "duration": 0.0185,
      "velocity": 94,
      "chip": "ym2612"
    },
    {
      "channel": 2,
      "note": 50,
      "start": 16.2124,
      "duration": 0.0186,
      "velocity": 100,
      "chip": "ym2612"
    },
    {
      "channel": 1,
      "note": 105,
      "start": 16.2231,
      "duration": 0.0161,
      "velocity": 105,
      "chip": "ym2612"
    },
    {
      "channel": 0,
      "note": 71,
      "start": 16.2247,
      "duration": 0.0161,
      "velocity": 127,
      "chip": "ym2612"
    },
    {
      "channel": 4,
      "note": 81,
      "start": 16.2259,
      "duration": 0.0161,
      "velocity": 94,
      "chip": "ym2612"
    },
    {
      "channel": 3,
      "note": 81,
      "start": 16.2298,
      "duration": 0.0161,
      "velocity": 94,
      "chip": "ym2612"
    },
    {
      "channel": 2,
      "note": 50,
      "start": 16.231,
      "duration": 0.0161,
      "velocity": 100,
      "chip": "ym2612"
    },
    {
      "channel": 1,
      "note": 105,
      "start": 16.2392,
      "duration": 0.0162,
      "velocity": 105,
      "chip": "ym2612"
    },
    {
      "channel": 0,
      "note": 70,
      "start": 16.2408,
      "duration": 0.0162,
      "velocity": 127,
      "chip": "ym2612"
    },
    {
      "channel": 4,
      "note": 81,
      "start": 16.242,
      "duration": 0.0161,
      "velocity": 94,
      "chip": "ym2612"
    },
    {
      "channel": 3,
      "note": 81,
      "start": 16.2459,
      "duration": 0.0134,
      "velocity": 94,
      "chip": "ym2612"
    },
    {
      "channel": 2,
      "note": 50,
      "start": 16.2471,
      "duration": 0.0157,
      "velocity": 100,
      "chip": "ym2612"
    },
    {
      "channel": 1,
      "note": 105,
      "start": 16.2553,
      "duration": 0.0178,
      "velocity": 124,
      "chip": "ym2612"
    },
    {
      "channel": 0,
      "note": 68,
      "start": 16.257,
      "duration": 0.0199,
      "velocity": 115,
      "chip": "ym2612"
    },
    {
      "channel": 4,
      "note": 81,
      "start": 16.2581,
      "duration": 0.02,
      "velocity": 94,
      "chip": "ym2612"
    },
    {
      "channel": 3,
      "note": 81,
      "start": 16.2593,
      "duration": 0.02,
      "velocity": 94,
      "chip": "ym2612"
    },
    {
      "channel": 2,
      "note": 50,
      "start": 16.2628,
      "duration": 0.0178,
      "velocity": 100,
      "chip": "ym2612"
    },
    {
      "channel": 1,
      "note": 64,
      "start": 16.2732,
      "duration": 0.0144,
      "velocity": 124,
      "chip": "ym2612"
    },
    {
      "channel": 0,
      "note": 36,
      "start": 16.277,
      "duration": 0.0123,
      "velocity": 115,
      "chip": "ym2612"
    },
    {
      "channel": 4,
      "note": 81,
      "start": 16.2781,
      "duration": 0.0124,
      "velocity": 94,
      "chip": "ym2612"
    },
    {
      "channel": 3,
      "note": 81,
      "start": 16.2793,
      "duration": 0.0123,
      "velocity": 94,
      "chip": "ym2612"
    },
    {
      "channel": 2,
      "note": 52,
      "start": 16.2807,
      "duration": 0.0121,
      "velocity": 100,
      "chip": "ym2612"
    },
    {
      "channel": 1,
      "note": 64,
      "start": 16.2876,
      "duration": 0.016,
      "velocity": 124,
      "chip": "ym2612"
    },
    {
      "channel": 0,
      "note": 36,
      "start": 16.2893,
      "duration": 0.016,
      "velocity": 115,
      "chip": "ym2612"
    },
    {
      "channel": 4,
      "note": 81,
      "start": 16.2905,
      "duration": 0.016,
      "velocity": 94,
      "chip": "ym2612"
    },
    {
      "channel": 3,
      "note": 81,
      "start": 16.2916,
      "duration": 0.016,
      "velocity": 94,
      "chip": "ym2612"
    },
    {
      "channel": 2,
      "note": 52,
      "start": 16.2928,
      "duration": 0.0159,
      "velocity": 100,
      "chip": "ym2612"
    },
    {
      "channel": 1,
      "note": 64,
      "start": 16.3036,
      "duration": 0.0161,
      "velocity": 124,
      "chip": "ym2612"
    },
    {
      "channel": 0,
      "note": 37,
      "start": 16.3053,
      "duration": 0.0161,
      "velocity": 115,
      "chip": "ym2612"
    },
    {
      "channel": 4,
      "note": 81,
      "start": 16.3065,
      "duration": 0.0161,
      "velocity": 94,
      "chip": "ym2612"
    },
    {
      "channel": 3,
      "note": 81,
      "start": 16.3076,
      "duration": 0.0161,
      "velocity": 94,
      "chip": "ym2612"
    },
    {
      "channel": 2,
      "note": 52,
      "start": 16.3087,
      "duration": 0.0161,
      "velocity": 100,
      "chip": "ym2612"
    },
    {
      "channel": 1,
      "note": 64,
      "start": 16.3197,
      "duration": 0.0161,
      "velocity": 124,
      "chip": "ym2612"
    },
    {
      "channel": 0,
      "note": 37,
      "start": 16.3214,
      "duration": 0.0162,
      "velocity": 115,
      "chip": "ym2612"
    },
    {
      "channel": 4,
      "note": 81,
      "start": 16.3226,
      "duration": 0.0161,
      "velocity": 94,
      "chip": "ym2612"
    },
    {
      "channel": 3,
      "note": 81,
      "start": 16.3237,
      "duration": 0.0161,
      "velocity": 94,
      "chip": "ym2612"
    },
    {
      "channel": 2,
      "note": 52,
      "start": 16.3248,
      "duration": 0.0162,
      "velocity": 100,
      "chip": "ym2612"
    },
    {
      "channel": 1,
      "note": 64,
      "start": 16.3358,
      "duration": 0.0161,
      "velocity": 124,
      "chip": "ym2612"
    },
    {
      "channel": 0,
      "note": 38,
      "start": 16.3375,
      "duration": 0.0161,
      "velocity": 115,
      "chip": "ym2612"
    },
    {
      "channel": 4,
      "note": 81,
      "start": 16.3387,
      "duration": 0.0161,
      "velocity": 94,
      "chip": "ym2612"
    },
    {
      "channel": 3,
      "note": 81,
      "start": 16.3398,
      "duration": 0.0161,
      "velocity": 94,
      "chip": "ym2612"
    },
    {
      "channel": 2,
      "note": 52,
      "start": 16.341,
      "duration": 0.0161,
      "velocity": 100,
      "chip": "ym2612"
    },
    {
      "channel": 1,
      "note": 64,
      "start": 16.3519,
      "duration": 0.0161,
      "velocity": 124,
      "chip": "ym2612"
    },
    {
      "channel": 0,
      "note": 38,
      "start": 16.3536,
      "duration": 0.0161,
      "velocity": 115,
      "chip": "ym2612"
    },
    {
      "channel": 4,
      "note": 81,
      "start": 16.3548,
      "duration": 0.0161,
      "velocity": 94,
      "chip": "ym2612"
    },
    {
      "channel": 3,
      "note": 81,
      "start": 16.3559,
      "duration": 0.0161,
      "velocity": 94,
      "chip": "ym2612"
    },
    {
      "channel": 2,
      "note": 52,
      "start": 16.3571,
      "duration": 0.0161,
      "velocity": 100,
      "chip": "ym2612"
    },
    {
      "channel": 1,
      "note": 64,
      "start": 16.368,
      "duration": 0.0178,
      "velocity": 105,
      "chip": "ym2612"
    },
    {
      "channel": 0,
      "note": 39,
      "start": 16.3697,
      "duration": 0.0178,
      "velocity": 115,
      "chip": "ym2612"
    },
    {
      "channel": 4,
      "note": 81,
      "start": 16.3709,
      "duration": 0.018,
      "velocity": 94,
      "chip": "ym2612"
    },
    {
      "channel": 3,
      "note": 81,
      "start": 16.372,
      "duration": 0.0181,
      "velocity": 94,
      "chip": "ym2612"
    },
    {
      "channel": 2,
      "note": 52,
      "start": 16.3732,
      "duration": 0.0184,
      "velocity": 100,
      "chip": "ym2612"
    },
    {
      "channel": 1,
      "note": 105,
      "start": 16.3858,
      "duration": 0.0144,
      "velocity": 105,
      "chip": "ym2612"
    },
    {
      "channel": 0,
      "note": 39,
      "start": 16.3875,
      "duration": 0.0144,
      "velocity": 115,
      "chip": "ym2612"
    },
    {
      "channel": 4,
      "note": 88,
      "start": 16.389,
      "duration": 0.0142,
      "velocity": 94,
      "chip": "ym2612"
    },
    {
      "channel": 3,
      "note": 81,
      "start": 16.3901,
      "duration": 0.0142,
      "velocity": 94,
      "chip": "ym2612"
    },
    {
      "channel": 2,
      "note": 52,
      "start": 16.3915,
      "duration": 0.0139,
      "velocity": 100,
      "chip": "ym2612"
    },
    {
      "channel": 1,
      "note": 105,
      "start": 16.4002,
      "duration": 0.0161,
      "velocity": 105,
      "chip": "ym2612"
    },
    {
      "channel": 0,
      "note": 40,
      "start": 16.402,
      "duration": 0.016,
      "velocity": 115,
      "chip": "ym2612"
    },
    {
      "channel": 4,
      "note": 88,
      "start": 16.4032,
      "duration": 0.016,
      "velocity": 94,
      "chip": "ym2612"
    },
    {
      "channel": 3,
      "note": 81,
      "start": 16.4043,
      "duration": 0.016,
      "velocity": 94,
      "chip": "ym2612"
    },
    {
      "channel": 2,
      "note": 52,
      "start": 16.4055,
      "duration": 0.016,
      "velocity": 100,
      "chip": "ym2612"
    },
    {
      "channel": 1,
      "note": 105,
      "start": 16.4163,
      "duration": 0.0161,
      "velocity": 105,
      "chip": "ym2612"
    },
    {
      "channel": 0,
      "note": 40,
      "start": 16.418,
      "duration": 0.0161,
      "velocity": 115,
      "chip": "ym2612"
    },
    {
      "channel": 4,
      "note": 88,
      "start": 16.4191,
      "duration": 0.0161,
      "velocity": 94,
      "chip": "ym2612"
    },
    {
      "channel": 3,
      "note": 81,
      "start": 16.4203,
      "duration": 0.0161,
      "velocity": 94,
      "chip": "ym2612"
    },
    {
      "channel": 2,
      "note": 52,
      "start": 16.4214,
      "duration": 0.0161,
      "velocity": 100,
      "chip": "ym2612"
    },
    {
      "channel": 1,
      "note": 105,
      "start": 16.4324,
      "duration": 0.0161,
      "velocity": 105,
      "chip": "ym2612"
    },
    {
      "channel": 0,
      "note": 40,
      "start": 16.4341,
      "duration": 0.0161,
      "velocity": 115,
      "chip": "ym2612"
    },
    {
      "channel": 4,
      "note": 88,
      "start": 16.4352,
      "duration": 0.0161,
      "velocity": 94,
      "chip": "ym2612"
    },
    {
      "channel": 3,
      "note": 81,
      "start": 16.4364,
      "duration": 0.0161,
      "velocity": 94,
      "chip": "ym2612"
    },
    {
      "channel": 2,
      "note": 52,
      "start": 16.4375,
      "duration": 0.0161,
      "velocity": 100,
      "chip": "ym2612"
    },
    {
      "channel": 1,
      "note": 105,
      "start": 16.4485,
      "duration": 0.0161,
      "velocity": 105,
      "chip": "ym2612"
    },
    {
      "channel": 0,
      "note": 41,
      "start": 16.4502,
      "duration": 0.0161,
      "velocity": 115,
      "chip": "ym2612"
    },
    {
      "channel": 4,
      "note": 88,
      "start": 16.4513,
      "duration": 0.0161,
      "velocity": 94,
      "chip": "ym2612"
    },
    {
      "channel": 3,
      "note": 81,
      "start": 16.4525,
      "duration": 0.0161,
      "velocity": 94,
      "chip": "ym2612"
    },
    {
      "channel": 2,
      "note": 52,
      "start": 16.4536,
      "duration": 0.0161,
      "velocity": 100,
      "chip": "ym2612"
    },
    {
      "channel": 1,
      "note": 105,
      "start": 16.4646,
      "duration": 0.0161,
      "velocity": 105,
      "chip": "ym2612"
    },
    {
      "channel": 0,
      "note": 41,
      "start": 16.4663,
      "duration": 0.0161,
      "velocity": 115,
      "chip": "ym2612"
    },
    {
      "channel": 4,
      "note": 88,
      "start": 16.4674,
      "duration": 0.0162,
      "velocity": 94,
      "chip": "ym2612"
    },
    {
      "channel": 3,
      "note": 81,
      "start": 16.4686,
      "duration": 0.0161,
      "velocity": 94,
      "chip": "ym2612"
    },
    {
      "channel": 2,
      "note": 52,
      "start": 16.4697,
      "duration": 0.0161,
      "velocity": 100,
      "chip": "ym2612"
    },
    {
      "channel": 1,
      "note": 105,
      "start": 16.4807,
      "duration": 0.0183,
      "velocity": 124,
      "chip": "ym2612"
    },
    {
      "channel": 0,
      "note": 42,
      "start": 16.4824,
      "duration": 0.0183,
      "velocity": 115,
      "chip": "ym2612"
    },
    {
      "channel": 4,
      "note": 88,
      "start": 16.4836,
      "duration": 0.0185,
      "velocity": 94,
      "chip": "ym2612"
    },
    {
      "channel": 3,
      "note": 81,
      "start": 16.4847,
      "duration": 0.0188,
      "velocity": 94,
      "chip": "ym2612"
    },
    {
      "channel": 2,
      "note": 52,
      "start": 16.4858,
      "duration": 0.0192,
      "velocity": 100,
      "chip": "ym2612"
    },
    {
      "channel": 1,
      "note": 64,
      "start": 16.499,
      "duration": 0.015,
      "velocity": 124,
      "chip": "ym2612"
    },
    {
      "channel": 0,
      "note": 42,
      "start": 16.5007,
      "duration": 0.015,
      "velocity": 115,
      "chip": "ym2612"
    },
    {
      "channel": 4,
      "note": 89,
      "start": 16.5022,
      "duration": 0.0148,
      "velocity": 94,
      "chip": "ym2612"
    },
    {
      "channel": 3,
      "note": 88,
      "start": 16.5036,
      "duration": 0.0145,
      "velocity": 94,
      "chip": "ym2612"
    },
    {
      "channel": 2,
      "note": 52,
      "start": 16.505,
      "duration": 0.0143,
      "velocity": 100,
      "chip": "ym2612"
    },
    {
      "channel": 1,
      "note": 64,
      "start": 16.514,
      "duration": 0.0162,
      "velocity": 124,
      "chip": "ym2612"
    },
    {
      "channel": 0,
      "note": 43,
      "start": 16.5157,
      "duration": 0.0162,
      "velocity": 115,
      "chip": "ym2612"
    },
    {
      "channel": 4,
      "note": 89,
      "start": 16.5169,
      "duration": 0.0162,
      "velocity": 94,
      "chip": "ym2612"
    },
    {
      "channel": 3,
      "note": 88,
      "start": 16.5181,
      "duration": 0.0161,
      "velocity": 94,
      "chip": "ym2612"
    },
    {
      "channel": 2,
      "note": 52,
      "start": 16.5193,
      "duration": 0.016,
      "velocity": 100,
      "chip": "ym2612"
    },
    {
      "channel": 1,
      "note": 64,
      "start": 16.5303,
      "duration": 0.0149,
      "velocity": 124,
      "chip": "ym2612"
    },
    {
      "channel": 0,
      "note": 43,
      "start": 16.5319,
      "duration": 0.0149,
      "velocity": 115,
      "chip": "ym2612"
    },
    {
      "channel": 4,
      "note": 89,
      "start": 16.5331,
      "duration": 0.0148,
      "velocity": 94,
      "chip": "ym2612"
    },
    {
      "channel": 3,
      "note": 88,
      "start": 16.5343,
      "duration": 0.0148,
      "velocity": 94,
      "chip": "ym2612"
    },
    {
      "channel": 2,
      "note": 52,
      "start": 16.5354,
      "duration": 0.0149,
      "velocity": 100,
      "chip": "ym2612"
    },
    {
      "channel": 1,
      "note": 64,
      "start": 16.5451,
      "duration": 0.0188,
      "velocity": 124,
      "chip": "ym2612"
    },
    {
      "channel": 0,
      "note": 44,
      "start": 16.5468,
      "duration": 0.0188,
      "velocity": 115,
      "chip": "ym2612"
    },
    {
      "channel": 4,
      "note": 89,
      "start": 16.548,
      "duration": 0.0188,
      "velocity": 94,
      "chip": "ym2612"
    },
    {
      "channel": 3,
      "note": 88,
      "start": 16.5491,
      "duration": 0.0188,
      "velocity": 94,
      "chip": "ym2612"
    },
    {
      "channel": 2,
      "note": 52,
      "start": 16.5502,
      "duration": 0.0188,
      "velocity": 100,
      "chip": "ym2612"
    },
    {
      "channel": 1,
      "note": 64,
      "start": 16.564,
      "duration": 0.0161,
      "velocity": 124,
      "chip": "ym2612"
    },
    {
      "channel": 0,
      "note": 44,
      "start": 16.5656,
      "duration": 0.0161,
      "velocity": 115,
      "chip": "ym2612"
    },
    {
      "channel": 4,
      "note": 89,
      "start": 16.5668,
      "duration": 0.0162,
      "velocity": 94,
      "chip": "ym2612"
    },
    {
      "channel": 3,
      "note": 88,
      "start": 16.5679,
      "duration": 0.0161,
      "velocity": 94,
      "chip": "ym2612"
    },
    {
      "channel": 2,
      "note": 52,
      "start": 16.5691,
      "duration": 0.0162,
      "velocity": 100,
      "chip": "ym2612"
    },
    {
      "channel": 1,
      "note": 64,
      "start": 16.5801,
      "duration": 0.0158,
      "velocity": 124,
      "chip": "ym2612"
    },
    {
      "channel": 0,
      "note": 44,
      "start": 16.5818,
      "duration": 0.0157,
      "velocity": 115,
      "chip": "ym2612"
    },
    {
      "channel": 4,
      "note": 89,
      "start": 16.5829,
      "duration": 0.0157,
      "velocity": 94,
      "chip": "ym2612"
    },
    {
      "channel": 3,
      "note": 88,
      "start": 16.5841,
      "duration": 0.0157,
      "velocity": 94,
      "chip": "ym2612"
    },
    {
      "channel": 2,
      "note": 52,
      "start": 16.5852,
      "duration": 0.0157,
      "velocity": 100,
      "chip": "ym2612"
    },
    {
      "channel": 1,
      "note": 64,
      "start": 16.5959,
      "duration": 0.0156,
      "velocity": 105,
      "chip": "ym2612"
    },
    {
      "channel": 0,
      "note": 45,
      "start": 16.5975,
      "duration": 0.0158,
      "velocity": 115,
      "chip": "ym2612"
    },
    {
      "channel": 4,
      "note": 89,
      "start": 16.5986,
      "duration": 0.016,
      "velocity": 94,
      "chip": "ym2612"
    },
    {
      "channel": 3,
      "note": 88,
      "start": 16.5998,
      "duration": 0.0163,
      "velocity": 94,
      "chip": "ym2612"
    },
    {
      "channel": 2,
      "note": 52,
      "start": 16.6009,
      "duration": 0.0166,
      "velocity": 100,
      "chip": "ym2612"
    },
    {
      "channel": 1,
      "note": 105,
      "start": 16.6116,
      "duration": 0.0141,
      "velocity": 105,
      "chip": "ym2612"
    },
    {
      "channel": 0,
      "note": 45,
      "start": 16.6133,
      "duration": 0.0168,
      "velocity": 115,
      "chip": "ym2612"
    },
    {
      "channel": 4,
      "note": 88,
      "start": 16.6147,
      "duration": 0.0167,
      "velocity": 94,
      "chip": "ym2612"
    },
    {
      "channel": 3,
      "note": 89,
      "start": 16.6161,
      "duration": 0.0164,
      "velocity": 94,
      "chip": "ym2612"
    },
    {
      "channel": 2,
      "note": 52,
      "start": 16.6176,
      "duration": 0.0161,
      "velocity": 100,
      "chip": "ym2612"
    },
    {
      "channel": 1,
      "note": 105,
      "start": 16.6257,
      "duration": 0.016,
      "velocity": 105,
      "chip": "ym2612"
    },
    {
      "channel": 0,
      "note": 46,
      "start": 16.6301,
      "duration": 0.0161,
      "velocity": 115,
      "chip": "ym2612"
    },
    {
      "channel": 4,
      "note": 88,
      "start": 16.6313,
      "duration": 0.016,
      "velocity": 94,
      "chip": "ym2612"
    },
    {
      "channel": 3,
      "note": 89,
      "start": 16.6325,
      "duration": 0.016,
      "velocity": 94,
      "chip": "ym2612"
    },
    {
      "channel": 2,
      "note": 52,
      "start": 16.6337,
      "duration": 0.0159,
      "velocity": 100,
      "chip": "ym2612"
    },
    {
      "channel": 1,
      "note": 105,
      "start": 16.6417,
      "duration": 0.0161,
      "velocity": 105,
      "chip": "ym2612"
    },
    {
      "channel": 0,
      "note": 46,
      "start": 16.6462,
      "duration": 0.0133,
      "velocity": 115,
      "chip": "ym2612"
    },
    {
      "channel": 4,
      "note": 88,
      "start": 16.6473,
      "duration": 0.0157,
      "velocity": 94,
      "chip": "ym2612"
    },
    {
      "channel": 3,
      "note": 89,
      "start": 16.6485,
      "duration": 0.0157,
      "velocity": 94,
      "chip": "ym2612"
    },
    {
      "channel": 2,
      "note": 52,
      "start": 16.6496,
      "duration": 0.0157,
      "velocity": 100,
      "chip": "ym2612"
    },
    {
      "channel": 1,
      "note": 105,
      "start": 16.6578,
      "duration": 0.0161,
      "velocity": 105,
      "chip": "ym2612"
    },
    {
      "channel": 0,
      "note": 47,
      "start": 16.6595,
      "duration": 0.0162,
      "velocity": 115,
      "chip": "ym2612"
    },
    {
      "channel": 4,
      "note": 88,
      "start": 16.663,
      "duration": 0.0141,
      "velocity": 94,
      "chip": "ym2612"
    },
    {
      "channel": 3,
      "note": 89,
      "start": 16.6642,
      "duration": 0.0141,
      "velocity": 94,
      "chip": "ym2612"
    },
    {
      "channel": 2,
      "note": 52,
      "start": 16.6653,
      "duration": 0.0141,
      "velocity": 100,
      "chip": "ym2612"
    },
    {
      "channel": 1,
      "note": 105,
      "start": 16.6739,
      "duration": 0.0161,
      "velocity": 105,
      "chip": "ym2612"
    },
    {
      "channel": 0,
      "note": 47,
      "start": 16.6756,
      "duration": 0.0161,
      "velocity": 115,
      "chip": "ym2612"
    },
    {
      "channel": 4,
      "note": 88,
      "start": 16.6771,
      "duration": 0.0158,
      "velocity": 94,
      "chip": "ym2612"
    },
    {
      "channel": 3,
      "note": 89,
      "start": 16.6782,
      "duration": 0.0185,
      "velocity": 94,
      "chip": "ym2612"
    },
    {
      "channel": 2,
      "note": 52,
      "start": 16.6794,
      "duration": 0.0185,
      "velocity": 100,
      "chip": "ym2612"
    },
    {
      "channel": 1,
      "note": 105,
      "start": 16.69,
      "duration": 0.0162,
      "velocity": 105,
      "chip": "ym2612"
    },
    {
      "channel": 0,
      "note": 47,
      "start": 16.6917,
      "duration": 0.0161,
      "velocity": 115,
      "chip": "ym2612"
    },
    {
      "channel": 4,
      "note": 88,
      "start": 16.6929,
      "duration": 0.0161,
      "velocity": 94,
      "chip": "ym2612"
    },
    {
      "channel": 3,
      "note": 89,
      "start": 16.6967,
      "duration": 0.0162,
      "velocity": 94,
      "chip": "ym2612"
    },
    {
      "channel": 2,
      "note": 52,
      "start": 16.6979,
      "duration": 0.0161,
      "velocity": 100,
      "chip": "ym2612"
    },
    {
      "channel": 1,
      "note": 105,
      "start": 16.7062,
      "duration": 0.0183,
      "velocity": 124,
      "chip": "ym2612"
    },
    {
      "channel": 0,
      "note": 48,
      "start": 16.7078,
      "duration": 0.0215,
      "velocity": 115,
      "chip": "ym2612"
    },
    {
      "channel": 4,
      "note": 88,
      "start": 16.709,
      "duration": 0.0217,
      "velocity": 94,
      "chip": "ym2612"
    },
    {
      "channel": 3,
      "note": 89,
      "start": 16.7129,
      "duration": 0.0192,
      "velocity": 94,
      "chip": "ym2612"
    },
    {
      "channel": 2,
      "note": 52,
      "start": 16.714,
      "duration": 0.0196,
      "velocity": 100,
      "chip": "ym2612"
    },
    {
      "channel": 1,
      "note": 78,
      "start": 16.7245,
      "duration": 0.0144,
      "velocity": 124,
      "chip": "ym2612"
    },
    {
      "channel": 0,
      "note": 48,
      "start": 16.7293,
      "duration": 0.0115,
      "velocity": 115,
      "chip": "ym2612"
    },
    {
      "channel": 4,
      "note": 89,
      "start": 16.7307,
      "duration": 0.0113,
      "velocity": 94,
      "chip": "ym2612"
    },
    {
      "channel": 3,
      "note": 88,
      "start": 16.7321,
      "duration": 0.0115,
      "velocity": 94,
      "chip": "ym2612"
    },
    {
      "channel": 2,
      "note": 52,
      "start": 16.7336,
      "duration": 0.0112,
      "velocity": 100,
      "chip": "ym2612"
    },
    {
      "channel": 1,
      "note": 76,
      "start": 16.7389,
      "duration": 0.016,
      "velocity": 124,
      "chip": "ym2612"
    },
    {
      "channel": 0,
      "note": 49,
      "start": 16.7408,
      "duration": 0.0152,
      "velocity": 1,
      "chip": "ym2612"
    },
    {
      "channel": 4,
      "note": 89,
      "start": 16.742,
      "duration": 0.0151,
      "velocity": 94,
      "chip": "ym2612"
    },
    {
      "channel": 3,
      "note": 88,
      "start": 16.7436,
      "duration": 0.0148,
      "velocity": 94,
      "chip": "ym2612"
    },
    {
      "channel": 2,
      "note": 52,
      "start": 16.7448,
      "duration": 0.0147,
      "velocity": 100,
      "chip": "ym2612"
    },
    {
      "channel": 1,
      "note": 75,
      "start": 16.7549,
      "duration": 0.0161,
      "velocity": 124,
      "chip": "ym2612"
    },
    {
      "channel": 4,
      "note": 89,
      "start": 16.7572,
      "duration": 0.0153,
      "velocity": 94,
      "chip": "ym2612"
    },
    {
      "channel": 3,
      "note": 88,
      "start": 16.7583,
      "duration": 0.0153,
      "velocity": 94,
      "chip": "ym2612"
    },
    {
      "channel": 2,
      "note": 52,
      "start": 16.7595,
      "duration": 0.0153,
      "velocity": 100,
      "chip": "ym2612"
    },
    {
      "channel": 1,
      "note": 74,
      "start": 16.771,
      "duration": 0.0161,
      "velocity": 124,
      "chip": "ym2612"
    },
    {
      "channel": 4,
      "note": 89,
      "start": 16.7724,
      "duration": 0.0161,
      "velocity": 94,
      "chip": "ym2612"
    },
    {
      "channel": 3,
      "note": 88,
      "start": 16.7736,
      "duration": 0.0161,
      "velocity": 94,
      "chip": "ym2612"
    },
    {
      "channel": 2,
      "note": 52,
      "start": 16.7747,
      "duration": 0.0161,
      "velocity": 100,
      "chip": "ym2612"
    },
    {
      "channel": 1,
      "note": 72,
      "start": 16.7871,
      "duration": 0.0161,
      "velocity": 124,
      "chip": "ym2612"
    },
    {
      "channel": 4,
      "note": 89,
      "start": 16.7885,
      "duration": 0.0161,
      "velocity": 94,
      "chip": "ym2612"
    },
    {
      "channel": 3,
      "note": 88,
      "start": 16.7897,
      "duration": 0.0161,
      "velocity": 94,
      "chip": "ym2612"
    },
    {
      "channel": 2,
      "note": 52,
      "start": 16.7908,
      "duration": 0.0161,
      "velocity": 100,
      "chip": "ym2612"
    },
    {
      "channel": 1,
      "note": 71,
      "start": 16.8032,
      "duration": 0.0161,
      "velocity": 124,
      "chip": "ym2612"
    },
    {
      "channel": 4,
      "note": 89,
      "start": 16.8046,
      "duration": 0.0161,
      "velocity": 94,
      "chip": "ym2612"
    },
    {
      "channel": 3,
      "note": 88,
      "start": 16.8058,
      "duration": 0.0161,
      "velocity": 94,
      "chip": "ym2612"
    },
    {
      "channel": 2,
      "note": 52,
      "start": 16.8069,
      "duration": 0.0161,
      "velocity": 100,
      "chip": "ym2612"
    },
    {
      "channel": 1,
      "note": 70,
      "start": 16.8193,
      "duration": 0.0161,
      "velocity": 124,
      "chip": "ym2612"
    },
    {
      "channel": 4,
      "note": 89,
      "start": 16.8207,
      "duration": 0.0169,
      "velocity": 94,
      "chip": "ym2612"
    },
    {
      "channel": 3,
      "note": 88,
      "start": 16.8219,
      "duration": 0.0172,
      "velocity": 94,
      "chip": "ym2612"
    },
    {
      "channel": 2,
      "note": 52,
      "start": 16.823,
      "duration": 0.0175,
      "velocity": 100,
      "chip": "ym2612"
    },
    {
      "channel": 1,
      "note": 69,
      "start": 16.8354,
      "duration": 0.0161,
      "velocity": 124,
      "chip": "ym2612"
    },
    {
      "channel": 4,
      "note": 88,
      "start": 16.8376,
      "duration": 0.0154,
      "velocity": 94,
      "chip": "ym2612"
    },
    {
      "channel": 3,
      "note": 89,
      "start": 16.839,
      "duration": 0.0152,
      "velocity": 94,
      "chip": "ym2612"
    },
    {
      "channel": 2,
      "note": 52,
      "start": 16.8405,
      "duration": 0.0149,
      "velocity": 100,
      "chip": "ym2612"
    },
    {
      "channel": 1,
      "note": 68,
      "start": 16.8515,
      "duration": 0.0161,
      "velocity": 124,
      "chip": "ym2612"
    },
    {
      "channel": 4,
      "note": 88,
      "start": 16.853,
      "duration": 0.016,
      "velocity": 94,
      "chip": "ym2612"
    },
    {
      "channel": 3,
      "note": 89,
      "start": 16.8542,
      "duration": 0.0159,
      "velocity": 94,
      "chip": "ym2612"
    },
    {
      "channel": 2,
      "note": 52,
      "start": 16.8554,
      "duration": 0.0159,
      "velocity": 100,
      "chip": "ym2612"
    },
    {
      "channel": 1,
      "note": 66,
      "start": 16.8677,
      "duration": 0.0161,
      "velocity": 124,
      "chip": "ym2612"
    },
    {
      "channel": 4,
      "note": 88,
      "start": 16.869,
      "duration": 0.0161,
      "velocity": 94,
      "chip": "ym2612"
    },
    {
      "channel": 3,
      "note": 89,
      "start": 16.8702,
      "duration": 0.0161,
      "velocity": 94,
      "chip": "ym2612"
    },
    {
      "channel": 2,
      "note": 52,
      "start": 16.8713,
      "duration": 0.0161,
      "velocity": 100,
      "chip": "ym2612"
    },
    {
      "channel": 1,
      "note": 65,
      "start": 16.8838,
      "duration": 0.0161,
      "velocity": 124,
      "chip": "ym2612"
    },
    {
      "channel": 4,
      "note": 88,
      "start": 16.8851,
      "duration": 0.0161,
      "velocity": 94,
      "chip": "ym2612"
    },
    {
      "channel": 3,
      "note": 89,
      "start": 16.8862,
      "duration": 0.0161,
      "velocity": 94,
      "chip": "ym2612"
    },
    {
      "channel": 2,
      "note": 52,
      "start": 16.8874,
      "duration": 0.0161,
      "velocity": 100,
      "chip": "ym2612"
    },
    {
      "channel": 1,
      "note": 64,
      "start": 16.8999,
      "duration": 0.0161,
      "velocity": 124,
      "chip": "ym2612"
    },
    {
      "channel": 4,
      "note": 88,
      "start": 16.9012,
      "duration": 0.0161,
      "velocity": 94,
      "chip": "ym2612"
    },
    {
      "channel": 3,
      "note": 89,
      "start": 16.9023,
      "duration": 0.0162,
      "velocity": 94,
      "chip": "ym2612"
    },
    {
      "channel": 2,
      "note": 52,
      "start": 16.9035,
      "duration": 0.0161,
      "velocity": 100,
      "chip": "ym2612"
    },
    {
      "channel": 1,
      "note": 62,
      "start": 16.916,
      "duration": 0.0161,
      "velocity": 124,
      "chip": "ym2612"
    },
    {
      "channel": 4,
      "note": 88,
      "start": 16.9173,
      "duration": 0.0161,
      "velocity": 94,
      "chip": "ym2612"
    },
    {
      "channel": 3,
      "note": 89,
      "start": 16.9185,
      "duration": 0.0161,
      "velocity": 94,
      "chip": "ym2612"
    },
    {
      "channel": 2,
      "note": 52,
      "start": 16.9196,
      "duration": 0.0162,
      "velocity": 100,
      "chip": "ym2612"
    },
    {
      "channel": 1,
      "note": 61,
      "start": 16.932,
      "duration": 0.0161,
      "velocity": 124,
      "chip": "ym2612"
    },
    {
      "channel": 4,
      "note": 88,
      "start": 16.9334,
      "duration": 0.0166,
      "velocity": 94,
      "chip": "ym2612"
    },
    {
      "channel": 3,
      "note": 89,
      "start": 16.9346,
      "duration": 0.0168,
      "velocity": 94,
      "chip": "ym2612"
    },
    {
      "channel": 2,
      "note": 52,
      "start": 16.9357,
      "duration": 0.0172,
      "velocity": 100,
      "chip": "ym2612"
    },
    {
      "channel": 1,
      "note": 60,
      "start": 16.9481,
      "duration": 0.0163,
      "velocity": 124,
      "chip": "ym2612"
    },
    {
      "channel": 4,
      "note": 88,
      "start": 16.95,
      "duration": 0.0159,
      "velocity": 94,
      "chip": "ym2612"
    },
    {
      "channel": 3,
      "note": 88,
      "start": 16.9515,
      "duration": 0.0156,
      "velocity": 94,
      "chip": "ym2612"
    },
    {
      "channel": 2,
      "note": 52,
      "start": 16.9529,
      "duration": 0.0154,
      "velocity": 100,
      "chip": "ym2612"
    },
    {
      "channel": 1,
      "note": 59,
      "start": 16.9645,
      "duration": 0.0166,
      "velocity": 124,
      "chip": "ym2612"
    },
    {
      "channel": 4,
      "note": 88,
      "start": 16.9659,
      "duration": 0.0166,
      "velocity": 94,
      "chip": "ym2612"
    },
    {
      "channel": 3,
      "note": 88,
      "start": 16.9671,
      "duration": 0.0165,
      "velocity": 94,
      "chip": "ym2612"
    },
    {
      "channel": 2,
      "note": 52,
      "start": 16.9683,
      "duration": 0.0165,
      "velocity": 100,
      "chip": "ym2612"
    },
    {
      "channel": 1,
      "note": 57,
      "start": 16.9811,
      "duration": 0.0163,
      "velocity": 124,
      "chip": "ym2612"
    },
    {
      "channel": 4,
      "note": 88,
      "start": 16.9825,
      "duration": 0.0163,
      "velocity": 94,
      "chip": "ym2612"
    },
    {
      "channel": 3,
      "note": 88,
      "start": 16.9836,
      "duration": 0.0163,
      "velocity": 94,
      "chip": "ym2612"
    },
    {
      "channel": 2,
      "note": 52,
      "start": 16.9848,
      "duration": 0.0163,
      "velocity": 100,
      "chip": "ym2612"
    },
    {
      "channel": 1,
      "note": 56,
      "start": 16.9974,
      "duration": 0.0151,
      "velocity": 124,
      "chip": "ym2612"
    },
    {
      "channel": 4,
      "note": 88,
      "start": 16.9988,
      "duration": 0.0151,
      "velocity": 94,
      "chip": "ym2612"
    },
    {
      "channel": 3,
      "note": 88,
      "start": 17.0,
      "duration": 0.0151,
      "velocity": 94,
      "chip": "ym2612"
    },
    {
      "channel": 2,
      "note": 52,
      "start": 17.0011,
      "duration": 0.0151,
      "velocity": 100,
      "chip": "ym2612"
    },
    {
      "channel": 1,
      "note": 55,
      "start": 17.0125,
      "duration": 0.0186,
      "velocity": 124,
      "chip": "ym2612"
    },
    {
      "channel": 4,
      "note": 88,
      "start": 17.0139,
      "duration": 0.0186,
      "velocity": 94,
      "chip": "ym2612"
    },
    {
      "channel": 3,
      "note": 88,
      "start": 17.0151,
      "duration": 0.0186,
      "velocity": 94,
      "chip": "ym2612"
    },
    {
      "channel": 2,
      "note": 52,
      "start": 17.0162,
      "duration": 0.0186,
      "velocity": 100,
      "chip": "ym2612"
    },
    {
      "channel": 1,
      "note": 53,
      "start": 17.0311,
      "duration": 0.0164,
      "velocity": 124,
      "chip": "ym2612"
    },
    {
      "channel": 4,
      "note": 88,
      "start": 17.0325,
      "duration": 0.0164,
      "velocity": 94,
      "chip": "ym2612"
    },
    {
      "channel": 3,
      "note": 88,
      "start": 17.0336,
      "duration": 0.0164,
      "velocity": 94,
      "chip": "ym2612"
    },
    {
      "channel": 2,
      "note": 52,
      "start": 17.0348,
      "duration": 0.0164,
      "velocity": 100,
      "chip": "ym2612"
    },
    {
      "channel": 1,
      "note": 52,
      "start": 17.0475,
      "duration": 0.0157,
      "velocity": 124,
      "chip": "ym2612"
    },
    {
      "channel": 4,
      "note": 88,
      "start": 17.0489,
      "duration": 0.0199,
      "velocity": 94,
      "chip": "ym2612"
    },
    {
      "channel": 3,
      "note": 88,
      "start": 17.05,
      "duration": 0.02,
      "velocity": 94,
      "chip": "ym2612"
    },
    {
      "channel": 2,
      "note": 52,
      "start": 17.0512,
      "duration": 0.0202,
      "velocity": 100,
      "chip": "ym2612"
    },
    {
      "channel": 1,
      "note": 51,
      "start": 17.0632,
      "duration": 0.0129,
      "velocity": 1,
      "chip": "ym2612"
    },
    {
      "channel": 0,
      "note": 36,
      "start": 17.0674,
      "duration": 0.013,
      "velocity": 115,
      "chip": "ym2612"
    },
    {
      "channel": 4,
      "note": 84,
      "start": 17.0689,
      "duration": 0.0127,
      "velocity": 94,
      "chip": "ym2612"
    },
    {
      "channel": 3,
      "note": 88,
      "start": 17.07,
      "duration": 0.0127,
      "velocity": 94,
      "chip": "ym2612"
    },
    {
      "channel": 2,
      "note": 52,
      "start": 17.0714,
      "duration": 0.0125,
      "velocity": 100,
      "chip": "ym2612"
    },
    {
      "channel": 1,
      "note": 51,
      "start": 17.0786,
      "duration": 0.0139,
      "velocity": 105,
      "chip": "ym2612"
    },
    {
      "channel": 0,
      "note": 36,
      "start": 17.0804,
      "duration": 0.0166,
      "velocity": 115,
      "chip": "ym2612"
    },
    {
      "channel": 4,
      "note": 84,
      "start": 17.0816,
      "duration": 0.0165,
      "velocity": 94,
      "chip": "ym2612"
    },
    {
      "channel": 3,
      "note": 88,
      "start": 17.0827,
      "duration": 0.0166,
      "velocity": 94,
      "chip": "ym2612"
    },
    {
      "channel": 2,
      "note": 52,
      "start": 17.0839,
      "duration": 0.0165,
      "velocity": 100,
      "chip": "ym2612"
    },
    {
      "channel": 1,
      "note": 105,
      "start": 17.0925,
      "duration": 0.0161,
      "velocity": 105,
      "chip": "ym2612"
    },
    {
      "channel": 0,
      "note": 37,
      "start": 17.097,
      "duration": 0.0161,
      "velocity": 115,
      "chip": "ym2612"
    },
    {
      "channel": 4,
      "note": 84,
      "start": 17.0981,
      "duration": 0.0161,
      "velocity": 94,
      "chip": "ym2612"
    },
    {
      "channel": 3,
      "note": 88,
      "start": 17.0993,
      "duration": 0.0161,
      "velocity": 94,
      "chip": "ym2612"
    },
    {
      "channel": 2,
      "note": 52,
      "start": 17.1004,
      "duration": 0.0161,
      "velocity": 100,
      "chip": "ym2612"
    },
    {
      "channel": 1,
      "note": 105,
      "start": 17.1086,
      "duration": 0.0161,
      "velocity": 105,
      "chip": "ym2612"
    },
    {
      "channel": 0,
      "note": 37,
      "start": 17.1131,
      "duration": 0.0134,
      "velocity": 115,
      "chip": "ym2612"
    },
    {
      "channel": 4,
      "note": 84,
      "start": 17.1142,
      "duration": 0.0158,
      "velocity": 94,
      "chip": "ym2612"
    },
    {
      "channel": 3,
      "note": 88,
      "start": 17.1154,
      "duration": 0.0158,
      "velocity": 94,
      "chip": "ym2612"
    },
    {
      "channel": 2,
      "note": 52,
      "start": 17.1165,
      "duration": 0.0158,
      "velocity": 100,
      "chip": "ym2612"
    },
    {
      "channel": 1,
      "note": 105,
      "start": 17.1247,
      "duration": 0.0161,
      "velocity": 105,
      "chip": "ym2612"
    },
    {
      "channel": 0,
      "note": 38,
      "start": 17.1264,
      "duration": 0.0161,
      "velocity": 115,
      "chip": "ym2612"
    },
    {
      "channel": 4,
      "note": 84,
      "start": 17.13,
      "duration": 0.014,
      "velocity": 94,
      "chip": "ym2612"
    },
    {
      "channel": 3,
      "note": 88,
      "start": 17.1312,
      "duration": 0.014,
      "velocity": 94,
      "chip": "ym2612"
    },
    {
      "channel": 2,
      "note": 52,
      "start": 17.1323,
      "duration": 0.014,
      "velocity": 100,
      "chip": "ym2612"
    },
    {
      "channel": 1,
      "note": 105,
      "start": 17.1409,
      "duration": 0.0161,
      "velocity": 105,
      "chip": "ym2612"
    },
    {
      "channel": 0,
      "note": 38,
      "start": 17.1425,
      "duration": 0.0161,
      "velocity": 115,
      "chip": "ym2612"
    },
    {
      "channel": 4,
      "note": 84,
      "start": 17.144,
      "duration": 0.0185,
      "velocity": 94,
      "chip": "ym2612"
    },
    {
      "channel": 3,
      "note": 88,
      "start": 17.1451,
      "duration": 0.0185,
      "velocity": 94,
      "chip": "ym2612"
    },
    {
      "channel": 2,
      "note": 52,
      "start": 17.1463,
      "duration": 0.0185,
      "velocity": 100,
      "chip": "ym2612"
    },
    {
      "channel": 1,
      "note": 105,
      "start": 17.157,
      "duration": 0.0178,
      "velocity": 124,
      "chip": "ym2612"
    },
    {
      "channel": 0,
      "note": 39,
      "start": 17.1586,
      "duration": 0.0224,
      "velocity": 115,
      "chip": "ym2612"
    },
    {
      "channel": 4,
      "note": 84,
      "start": 17.1625,
      "duration": 0.0199,
      "velocity": 94,
      "chip": "ym2612"
    },
    {
      "channel": 3,
      "note": 88,
      "start": 17.1637,
      "duration": 0.0202,
      "velocity": 94,
      "chip": "ym2612"
    },
    {
      "channel": 2,
      "note": 52,
      "start": 17.1648,
      "duration": 0.0205,
      "velocity": 100,
      "chip": "ym2612"
    },
    {
      "channel": 1,
      "note": 64,
      "start": 17.1748,
      "duration": 0.0146,
      "velocity": 124,
      "chip": "ym2612"
    },
    {
      "channel": 0,
      "note": 36,
      "start": 17.181,
      "duration": 0.0101,
      "velocity": 115,
      "chip": "ym2612"
    },
    {
      "channel": 4,
      "note": 86,
      "start": 17.1825,
      "duration": 0.0099,
      "velocity": 94,
      "chip": "ym2612"
    },
    {
      "channel": 3,
      "note": 84,
      "start": 17.1839,
      "duration": 0.0121,
      "velocity": 94,
      "chip": "ym2612"
    },
    {
      "channel": 2,
      "note": 52,
      "start": 17.1853,
      "duration": 0.0118,
      "velocity": 100,
      "chip": "ym2612"
    },
    {
      "channel": 1,
      "note": 64,
      "start": 17.1894,
      "duration": 0.0158,
      "velocity": 124,
      "chip": "ym2612"
    },
    {
      "channel": 0,
      "note": 36,
      "start": 17.1911,
      "duration": 0.0158,
      "velocity": 115,
      "chip": "ym2612"
    },
    {
      "channel": 4,
      "note": 86,
      "start": 17.1924,
      "duration": 0.0158,
      "velocity": 94,
      "chip": "ym2612"
    },
    {
      "channel": 3,
      "note": 84,
      "start": 17.196,
      "duration": 0.0133,
      "velocity": 94,
      "chip": "ym2612"
    },
    {
      "channel": 2,
      "note": 52,
      "start": 17.1971,
      "duration": 0.0136,
      "velocity": 100,
      "chip": "ym2612"
    },
    {
      "channel": 1,
      "note": 64,
      "start": 17.2053,
      "duration": 0.0161,
      "velocity": 124,
      "chip": "ym2612"
    },
    {
      "channel": 0,
      "note": 37,
      "start": 17.2069,
      "duration": 0.0161,
      "velocity": 115,
      "chip": "ym2612"
    },
    {
      "channel": 4,
      "note": 86,
      "start": 17.2081,
      "duration": 0.0161,
      "velocity": 94,
      "chip": "ym2612"
    },
    {
      "channel": 3,
      "note": 84,
      "start": 17.2093,
      "duration": 0.0161,
      "velocity": 94,
      "chip": "ym2612"
    },
    {
      "channel": 2,
      "note": 52,
      "start": 17.2107,
      "duration": 0.0184,
      "velocity": 100,
      "chip": "ym2612"
    },
    {
      "channel": 1,
      "note": 64,
      "start": 17.2214,
      "duration": 0.0161,
      "velocity": 124,
      "chip": "ym2612"
    },
    {
      "channel": 0,
      "note": 37,
      "start": 17.223,
      "duration": 0.0161,
      "velocity": 115,
      "chip": "ym2612"
    },
    {
      "channel": 4,
      "note": 86,
      "start": 17.2242,
      "duration": 0.0161,
      "velocity": 94,
      "chip": "ym2612"
    },
    {
      "channel": 3,
      "note": 84,
      "start": 17.2254,
      "duration": 0.0161,
      "velocity": 94,
      "chip": "ym2612"
    },
    {
      "channel": 2,
      "note": 52,
      "start": 17.2292,
      "duration": 0.0134,
      "velocity": 100,
      "chip": "ym2612"
    },
    {
      "channel": 1,
      "note": 64,
      "start": 17.2375,
      "duration": 0.0161,
      "velocity": 124,
      "chip": "ym2612"
    },
    {
      "channel": 0,
      "note": 38,
      "start": 17.2392,
      "duration": 0.0161,
      "velocity": 115,
      "chip": "ym2612"
    },
    {
      "channel": 4,
      "note": 86,
      "start": 17.2403,
      "duration": 0.0161,
      "velocity": 94,
      "chip": "ym2612"
    },
    {
      "channel": 3,
      "note": 84,
      "start": 17.2415,
      "duration": 0.0161,
      "velocity": 94,
      "chip": "ym2612"
    },
    {
      "channel": 2,
      "note": 52,
      "start": 17.2426,
      "duration": 0.0161,
      "velocity": 100,
      "chip": "ym2612"
    },
    {
      "channel": 1,
      "note": 64,
      "start": 17.2535,
      "duration": 0.0162,
      "velocity": 124,
      "chip": "ym2612"
    },
    {
      "channel": 0,
      "note": 38,
      "start": 17.2553,
      "duration": 0.0161,
      "velocity": 115,
      "chip": "ym2612"
    },
    {
      "channel": 4,
      "note": 86,
      "start": 17.2564,
      "duration": 0.0161,
      "velocity": 94,
      "chip": "ym2612"
    },
    {
      "channel": 3,
      "note": 84,
      "start": 17.2576,
      "duration": 0.0161,
      "velocity": 94,
      "chip": "ym2612"
    },
    {
      "channel": 2,
      "note": 52,
      "start": 17.2587,
      "duration": 0.0161,
      "velocity": 100,
      "chip": "ym2612"
    },
    {
      "channel": 1,
      "note": 64,
      "start": 17.2697,
      "duration": 0.0178,
      "velocity": 105,
      "chip": "ym2612"
    },
    {
      "channel": 0,
      "note": 39,
      "start": 17.2714,
      "duration": 0.0178,
      "velocity": 115,
      "chip": "ym2612"
    },
    {
      "channel": 4,
      "note": 86,
      "start": 17.2725,
      "duration": 0.0178,
      "velocity": 94,
      "chip": "ym2612"
    },
    {
      "channel": 3,
      "note": 84,
      "start": 17.2737,
      "duration": 0.0181,
      "velocity": 94,
      "chip": "ym2612"
    },
    {
      "channel": 2,
      "note": 52,
      "start": 17.2748,
      "duration": 0.0211,
      "velocity": 100,
      "chip": "ym2612"
    },
    {
      "channel": 1,
      "note": 105,
      "start": 17.2875,
      "duration": 0.0144,
      "velocity": 105,
      "chip": "ym2612"
    },
    {
      "channel": 0,
      "note": 39,
      "start": 17.2892,
      "duration": 0.0144,
      "velocity": 115,
      "chip": "ym2612"
    },
    {
      "channel": 4,
      "note": 86,
      "start": 17.2903,
      "duration": 0.0144,
      "velocity": 94,
      "chip": "ym2612"
    },
    {
      "channel": 3,
      "note": 86,
      "start": 17.2917,
      "duration": 0.0142,
      "velocity": 94,
      "chip": "ym2612"
    },
    {
      "channel": 2,
      "note": 52,
      "start": 17.296,
      "duration": 0.0111,
      "velocity": 100,
      "chip": "ym2612"
    },
    {
      "channel": 1,
      "note": 105,
      "start": 17.3019,
      "duration": 0.0161,
      "velocity": 105,
      "chip": "ym2612"
    },
    {
      "channel": 0,
      "note": 40,
      "start": 17.3036,
      "duration": 0.016,
      "velocity": 115,
      "chip": "ym2612"
    },
    {
      "channel": 4,
      "note": 86,
      "start": 17.3048,
      "duration": 0.016,
      "velocity": 94,
      "chip": "ym2612"
    },
    {
      "channel": 3,
      "note": 86,
      "start": 17.306,
      "duration": 0.016,
      "velocity": 94,
      "chip": "ym2612"
    },
    {
      "channel": 2,
      "note": 52,
      "start": 17.3071,
      "duration": 0.016,
      "velocity": 100,
      "chip": "ym2612"
    },
    {
      "channel": 1,
      "note": 105,
      "start": 17.318,
      "duration": 0.0161,
      "velocity": 105,
      "chip": "ym2612"
    },
    {
      "channel": 0,
      "note": 40,
      "start": 17.3196,
      "duration": 0.0161,
      "velocity": 115,
      "chip": "ym2612"
    },
    {
      "channel": 4,
      "note": 86,
      "start": 17.3208,
      "duration": 0.0161,
      "velocity": 94,
      "chip": "ym2612"
    },
    {
      "channel": 3,
      "note": 86,
      "start": 17.3219,
      "duration": 0.0161,
      "velocity": 94,
      "chip": "ym2612"
    },
    {
      "channel": 2,
      "note": 52,
      "start": 17.3231,
      "duration": 0.0161,
      "velocity": 100,
      "chip": "ym2612"
    },
    {
      "channel": 1,
      "note": 105,
      "start": 17.3341,
      "duration": 0.0161,
      "velocity": 105,
      "chip": "ym2612"
    },
    {
      "channel": 0,
      "note": 40,
      "start": 17.3357,
      "duration": 0.0161,
      "velocity": 115,
      "chip": "ym2612"
    },
    {
      "channel": 4,
      "note": 86,
      "start": 17.3369,
      "duration": 0.0161,
      "velocity": 94,
      "chip": "ym2612"
    },
    {
      "channel": 3,
      "note": 86,
      "start": 17.338,
      "duration": 0.0161,
      "velocity": 94,
      "chip": "ym2612"
    },
    {
      "channel": 2,
      "note": 52,
      "start": 17.3392,
      "duration": 0.0161,
      "velocity": 100,
      "chip": "ym2612"
    },
    {
      "channel": 1,
      "note": 105,
      "start": 17.3502,
      "duration": 0.0161,
      "velocity": 105,
      "chip": "ym2612"
    },
    {
      "channel": 0,
      "note": 41,
      "start": 17.3518,
      "duration": 0.0161,
      "velocity": 115,
      "chip": "ym2612"
    },
    {
      "channel": 4,
      "note": 86,
      "start": 17.353,
      "duration": 0.0162,
      "velocity": 94,
      "chip": "ym2612"
    },
    {
      "channel": 3,
      "note": 86,
      "start": 17.3541,
      "duration": 0.0161,
      "velocity": 94,
      "chip": "ym2612"
    },
    {
      "channel": 2,
      "note": 52,
      "start": 17.3553,
      "duration": 0.0161,
      "velocity": 100,
      "chip": "ym2612"
    },
    {
      "channel": 1,
      "note": 105,
      "start": 17.3663,
      "duration": 0.0161,
      "velocity": 105,
      "chip": "ym2612"
    },
    {
      "channel": 0,
      "note": 41,
      "start": 17.3679,
      "duration": 0.0161,
      "velocity": 115,
      "chip": "ym2612"
    },
    {
      "channel": 4,
      "note": 86,
      "start": 17.3691,
      "duration": 0.0161,
      "velocity": 94,
      "chip": "ym2612"
    },
    {
      "channel": 3,
      "note": 86,
      "start": 17.3703,
      "duration": 0.0161,
      "velocity": 94,
      "chip": "ym2612"
    },
    {
      "channel": 2,
      "note": 52,
      "start": 17.3714,
      "duration": 0.0161,
      "velocity": 100,
      "chip": "ym2612"
    },
    {
      "channel": 1,
      "note": 105,
      "start": 17.3824,
      "duration": 0.0178,
      "velocity": 124,
      "chip": "ym2612"
    },
    {
      "channel": 0,
      "note": 42,
      "start": 17.384,
      "duration": 0.0179,
      "velocity": 115,
      "chip": "ym2612"
    },
    {
      "channel": 4,
      "note": 86,
      "start": 17.3852,
      "duration": 0.0178,
      "velocity": 94,
      "chip": "ym2612"
    },
    {
      "channel": 3,
      "note": 86,
      "start": 17.3864,
      "duration": 0.0178,
      "velocity": 94,
      "chip": "ym2612"
    },
    {
      "channel": 2,
      "note": 52,
      "start": 17.3875,
      "duration": 0.0181,
      "velocity": 100,
      "chip": "ym2612"
    },
    {
      "channel": 1,
      "note": 64,
      "start": 17.4002,
      "duration": 0.0144,
      "velocity": 124,
      "chip": "ym2612"
    },
    {
      "channel": 0,
      "note": 42,
      "start": 17.4019,
      "duration": 0.0144,
      "velocity": 115,
      "chip": "ym2612"
    },
    {
      "channel": 4,
      "note": 86,
      "start": 17.403,
      "duration": 0.0144,
      "velocity": 94,
      "chip": "ym2612"
    },
    {
      "channel": 3,
      "note": 86,
      "start": 17.4042,
      "duration": 0.0144,
      "velocity": 94,
      "chip": "ym2612"
    },
    {
      "channel": 2,
      "note": 52,
      "start": 17.4056,
      "duration": 0.0142,
      "velocity": 100,
      "chip": "ym2612"
    },
    {
      "channel": 1,
      "note": 64,
      "start": 17.4146,
      "duration": 0.0161,
      "velocity": 124,
      "chip": "ym2612"
    },
    {
      "channel": 0,
      "note": 43,
      "start": 17.4163,
      "duration": 0.016,
      "velocity": 115,
      "chip": "ym2612"
    },
    {
      "channel": 4,
      "note": 86,
      "start": 17.4175,
      "duration": 0.016,
      "velocity": 94,
      "chip": "ym2612"
    },
    {
      "channel": 3,
      "note": 86,
      "start": 17.4186,
      "duration": 0.016,
      "velocity": 94,
      "chip": "ym2612"
    },
    {
      "channel": 2,
      "note": 52,
      "start": 17.4198,
      "duration": 0.016,
      "velocity": 100,
      "chip": "ym2612"
    },
    {
      "channel": 1,
      "note": 64,
      "start": 17.4307,
      "duration": 0.0166,
      "velocity": 124,
      "chip": "ym2612"
    },
    {
      "channel": 0,
      "note": 43,
      "start": 17.4324,
      "duration": 0.0166,
      "velocity": 115,
      "chip": "ym2612"
    },
    {
      "channel": 4,
      "note": 86,
      "start": 17.4335,
      "duration": 0.0167,
      "velocity": 94,
      "chip": "ym2612"
    },
    {
      "channel": 3,
      "note": 86,
      "start": 17.4346,
      "duration": 0.0167,
      "velocity": 94,
      "chip": "ym2612"
    },
    {
      "channel": 2,
      "note": 52,
      "start": 17.4358,
      "duration": 0.0166,
      "velocity": 100,
      "chip": "ym2612"
    },
    {
      "channel": 1,
      "note": 64,
      "start": 17.4473,
      "duration": 0.0163,
      "velocity": 124,
      "chip": "ym2612"
    },
    {
      "channel": 0,
      "note": 44,
      "start": 17.449,
      "duration": 0.0163,
      "velocity": 115,
      "chip": "ym2612"
    },
    {
      "channel": 4,
      "note": 86,
      "start": 17.4502,
      "duration": 0.0163,
      "velocity": 94,
      "chip": "ym2612"
    },
    {
      "channel": 3,
      "note": 86,
      "start": 17.4513,
      "duration": 0.0163,
      "velocity": 94,
      "chip": "ym2612"
    },
    {
      "channel": 2,
      "note": 52,
      "start": 17.4524,
      "duration": 0.0163,
      "velocity": 100,
      "chip": "ym2612"
    },
    {
      "channel": 1,
      "note": 64,
      "start": 17.4636,
      "duration": 0.0154,
      "velocity": 124,
      "chip": "ym2612"
    },
    {
      "channel": 0,
      "note": 44,
      "start": 17.4653,
      "duration": 0.0154,
      "velocity": 115,
      "chip": "ym2612"
    },
    {
      "channel": 4,
      "note": 86,
      "start": 17.4665,
      "duration": 0.0154,
      "velocity": 94,
      "chip": "ym2612"
    },
    {
      "channel": 3,
      "note": 86,
      "start": 17.4676,
      "duration": 0.0154,
      "velocity": 94,
      "chip": "ym2612"
    },
    {
      "channel": 2,
      "note": 52,
      "start": 17.4687,
      "duration": 0.0154,
      "velocity": 100,
      "chip": "ym2612"
    },
    {
      "channel": 1,
      "note": 64,
      "start": 17.479,
      "duration": 0.0183,
      "velocity": 124,
      "chip": "ym2612"
    },
    {
      "channel": 0,
      "note": 44,
      "start": 17.4807,
      "duration": 0.0183,
      "velocity": 115,
      "chip": "ym2612"
    },
    {
      "channel": 4,
      "note": 86,
      "start": 17.4819,
      "duration": 0.0183,
      "velocity": 94,
      "chip": "ym2612"
    },
    {
      "channel": 3,
      "note": 86,
      "start": 17.483,
      "duration": 0.0183,
      "velocity": 94,
      "chip": "ym2612"
    },
    {
      "channel": 2,
      "note": 52,
      "start": 17.4841,
      "duration": 0.0183,
      "velocity": 100,
      "chip": "ym2612"
    },
    {
      "channel": 1,
      "note": 64,
      "start": 17.4973,
      "duration": 0.0183,
      "velocity": 105,
      "chip": "ym2612"
    },
    {
      "channel": 0,
      "note": 45,
      "start": 17.499,
      "duration": 0.0184,
      "velocity": 115,
      "chip": "ym2612"
    },
    {
      "channel": 4,
      "note": 86,
      "start": 17.5001,
      "duration": 0.0186,
      "velocity": 94,
      "chip": "ym2612"
    },
    {
      "channel": 3,
      "note": 86,
      "start": 17.5013,
      "duration": 0.0186,
      "velocity": 94,
      "chip": "ym2612"
    },
    {
      "channel": 2,
      "note": 52,
      "start": 17.5024,
      "duration": 0.0189,
      "velocity": 100,
      "chip": "ym2612"
    },
    {
      "channel": 1,
      "note": 105,
      "start": 17.5156,
      "duration": 0.014,
      "velocity": 105,
      "chip": "ym2612"
    },
    {
      "channel": 0,
      "note": 45,
      "start": 17.5173,
      "duration": 0.0141,
      "velocity": 115,
      "chip": "ym2612"
    },
    {
      "channel": 4,
      "note": 81,
      "start": 17.5188,
      "duration": 0.0139,
      "velocity": 94,
      "chip": "ym2612"
    },
    {
      "channel": 3,
      "note": 86,
      "start": 17.5199,
      "duration": 0.0139,
      "velocity": 94,
      "chip": "ym2612"
    },
    {
      "channel": 2,
      "note": 52,
      "start": 17.5214,
      "duration": 0.0136,
      "velocity": 100,
      "chip": "ym2612"
    },
    {
      "channel": 1,
      "note": 105,
      "start": 17.5297,
      "duration": 0.014,
      "velocity": 105,
      "chip": "ym2612"
    },
    {
      "channel": 0,
      "note": 46,
      "start": 17.5314,
      "duration": 0.014,
      "velocity": 115,
      "chip": "ym2612"
    },
    {
      "channel": 4,
      "note": 81,
      "start": 17.5326,
      "duration": 0.0139,
      "velocity": 94,
      "chip": "ym2612"
    },
    {
      "channel": 3,
      "note": 86,
      "start": 17.5338,
      "duration": 0.0139,
      "velocity": 94,
      "chip": "ym2612"
    },
    {
      "channel": 2,
      "note": 52,
      "start": 17.535,
      "duration": 0.0139,
      "velocity": 100,
      "chip": "ym2612"
    },
    {
      "channel": 1,
      "note": 105,
      "start": 17.5437,
      "duration": 0.0158,
      "velocity": 105,
      "chip": "ym2612"
    },
    {
      "channel": 0,
      "note": 46,
      "start": 17.5454,
      "duration": 0.0185,
      "velocity": 115,
      "chip": "ym2612"
    },
    {
      "channel": 4,
      "note": 81,
      "start": 17.5466,
      "duration": 0.0185,
      "velocity": 94,
      "chip": "ym2612"
    },
    {
      "channel": 3,
      "note": 86,
      "start": 17.5477,
      "duration": 0.0185,
      "velocity": 94,
      "chip": "ym2612"
    },
    {
      "channel": 2,
      "note": 52,
      "start": 17.5488,
      "duration": 0.0185,
      "velocity": 100,
      "chip": "ym2612"
    },
    {
      "channel": 1,
      "note": 105,
      "start": 17.5595,
      "duration": 0.0162,
      "velocity": 105,
      "chip": "ym2612"
    },
    {
      "channel": 0,
      "note": 47,
      "start": 17.5639,
      "duration": 0.0161,
      "velocity": 115,
      "chip": "ym2612"
    },
    {
      "channel": 4,
      "note": 81,
      "start": 17.5651,
      "duration": 0.0162,
      "velocity": 94,
      "chip": "ym2612"
    },
    {
      "channel": 3,
      "note": 86,
      "start": 17.5662,
      "duration": 0.0161,
      "velocity": 94,
      "chip": "ym2612"
    },
    {
      "channel": 2,
      "note": 52,
      "start": 17.5673,
      "duration": 0.0161,
      "velocity": 100,
      "chip": "ym2612"
    },
    {
      "channel": 1,
      "note": 105,
      "start": 17.5756,
      "duration": 0.0161,
      "velocity": 105,
      "chip": "ym2612"
    },
    {
      "channel": 0,
      "note": 47,
      "start": 17.58,
      "duration": 0.0157,
      "velocity": 115,
      "chip": "ym2612"
    },
    {
      "channel": 4,
      "note": 81,
      "start": 17.5812,
      "duration": 0.0157,
      "velocity": 94,
      "chip": "ym2612"
    },
    {
      "channel": 3,
      "note": 86,
      "start": 17.5824,
      "duration": 0.0157,
      "velocity": 94,
      "chip": "ym2612"
    },
    {
      "channel": 2,
      "note": 52,
      "start": 17.5834,
      "duration": 0.0158,
      "velocity": 100,
      "chip": "ym2612"
    },
    {
      "channel": 1,
      "note": 105,
      "start": 17.5917,
      "duration": 0.0161,
      "velocity": 105,
      "chip": "ym2612"
    },
    {
      "channel": 0,
      "note": 47,
      "start": 17.5957,
      "duration": 0.0137,
      "velocity": 115,
      "chip": "ym2612"
    },
    {
      "channel": 4,
      "note": 81,
      "start": 17.5969,
      "duration": 0.0141,
      "velocity": 94,
      "chip": "ym2612"
    },
    {
      "channel": 3,
      "note": 86,
      "start": 17.5981,
      "duration": 0.0141,
      "velocity": 94,
      "chip": "ym2612"
    },
    {
      "channel": 2,
      "note": 52,
      "start": 17.5992,
      "duration": 0.014,
      "velocity": 100,
      "chip": "ym2612"
    },
    {
      "channel": 1,
      "note": 105,
      "start": 17.6078,
      "duration": 0.0183,
      "velocity": 124,
      "chip": "ym2612"
    },
    {
      "channel": 0,
      "note": 48,
      "start": 17.6095,
      "duration": 0.0219,
      "velocity": 115,
      "chip": "ym2612"
    },
    {
      "channel": 4,
      "note": 81,
      "start": 17.611,
      "duration": 0.0216,
      "velocity": 94,
      "chip": "ym2612"
    },
    {
      "channel": 3,
      "note": 86,
      "start": 17.6121,
      "duration": 0.0219,
      "velocity": 94,
      "chip": "ym2612"
    },
    {
      "channel": 2,
      "note": 52,
      "start": 17.6132,
      "duration": 0.0222,
      "velocity": 100,
      "chip": "ym2612"
    },
    {
      "channel": 1,
      "note": 78,
      "start": 17.6262,
      "duration": 0.0144,
      "velocity": 124,
      "chip": "ym2612"
    },
    {
      "channel": 0,
      "note": 48,
      "start": 17.6313,
      "duration": 0.0111,
      "velocity": 115,
      "chip": "ym2612"
    },
    {
      "channel": 4,
      "note": 81,
      "start": 17.6326,
      "duration": 0.0138,
      "velocity": 94,
      "chip": "ym2612"
    },
    {
      "channel": 3,
      "note": 81,
      "start": 17.634,
      "duration": 0.0136,
      "velocity": 94,
      "chip": "ym2612"
    },
    {
      "channel": 2,
      "note": 52,
      "start": 17.6355,
      "duration": 0.0134,
      "velocity": 100,
      "chip": "ym2612"
    },
    {
      "channel": 1,
      "note": 76,
      "start": 17.6406,
      "duration": 0.016,
      "velocity": 124,
      "chip": "ym2612"
    },
    {
      "channel": 0,
      "note": 49,
      "start": 17.6425,
      "duration": 0.0152,
      "velocity": 1,
      "chip": "ym2612"
    },
    {
      "channel": 4,
      "note": 81,
      "start": 17.6464,
      "duration": 0.0124,
      "velocity": 94,
      "chip": "ym2612"
    },
    {
      "channel": 3,
      "note": 81,
      "start": 17.6476,
      "duration": 0.0147,
      "velocity": 94,
      "chip": "ym2612"
    },
    {
      "channel": 2,
      "note": 52,
      "start": 17.6488,
      "duration": 0.0146,
      "velocity": 100,
      "chip": "ym2612"
    },
    {
      "channel": 1,
      "note": 75,
      "start": 17.6566,
      "duration": 0.0161,
      "velocity": 124,
      "chip": "ym2612"
    },
    {
      "channel": 4,
      "note": 81,
      "start": 17.6588,
      "duration": 0.0153,
      "velocity": 94,
      "chip": "ym2612"
    },
    {
      "channel": 3,
      "note": 81,
      "start": 17.6623,
      "duration": 0.0129,
      "velocity": 94,
      "chip": "ym2612"
    },
    {
      "channel": 2,
      "note": 52,
      "start": 17.6635,
      "duration": 0.0129,
      "velocity": 100,
      "chip": "ym2612"
    },
    {
      "channel": 1,
      "note": 74,
      "start": 17.6727,
      "duration": 0.0161,
      "velocity": 124,
      "chip": "ym2612"
    },
    {
      "channel": 4,
      "note": 81,
      "start": 17.6741,
      "duration": 0.0161,
      "velocity": 94,
      "chip": "ym2612"
    },
    {
      "channel": 3,
      "note": 81,
      "start": 17.6752,
      "duration": 0.0161,
      "velocity": 94,
      "chip": "ym2612"
    },
    {
      "channel": 2,
      "note": 52,
      "start": 17.6764,
      "duration": 0.0161,
      "velocity": 100,
      "chip": "ym2612"
    },
    {
      "channel": 1,
      "note": 72,
      "start": 17.6888,
      "duration": 0.0161,
      "velocity": 124,
      "chip": "ym2612"
    },
    {
      "channel": 4,
      "note": 81,
      "start": 17.6902,
      "duration": 0.0161,
      "velocity": 94,
      "chip": "ym2612"
    },
    {
      "channel": 3,
      "note": 81,
      "start": 17.6913,
      "duration": 0.0161,
      "velocity": 94,
      "chip": "ym2612"
    },
    {
      "channel": 2,
      "note": 52,
      "start": 17.6925,
      "duration": 0.0161,
      "velocity": 100,
      "chip": "ym2612"
    },
    {
      "channel": 1,
      "note": 71,
      "start": 17.7049,
      "duration": 0.0161,
      "velocity": 124,
      "chip": "ym2612"
    },
    {
      "channel": 4,
      "note": 81,
      "start": 17.7063,
      "duration": 0.0161,
      "velocity": 94,
      "chip": "ym2612"
    },
    {
      "channel": 3,
      "note": 81,
      "start": 17.7074,
      "duration": 0.0161,
      "velocity": 94,
      "chip": "ym2612"
    },
    {
      "channel": 2,
      "note": 52,
      "start": 17.7086,
      "duration": 0.0161,
      "velocity": 100,
      "chip": "ym2612"
    },
    {
      "channel": 1,
      "note": 70,
      "start": 17.721,
      "duration": 0.0161,
      "velocity": 124,
      "chip": "ym2612"
    },
    {
      "channel": 4,
      "note": 81,
      "start": 17.7224,
      "duration": 0.0168,
      "velocity": 94,
      "chip": "ym2612"
    },
    {
      "channel": 3,
      "note": 81,
      "start": 17.7235,
      "duration": 0.0171,
      "velocity": 94,
      "chip": "ym2612"
    },
    {
      "channel": 2,
      "note": 52,
      "start": 17.7247,
      "duration": 0.0173,
      "velocity": 100,
      "chip": "ym2612"
    },
    {
      "channel": 1,
      "note": 69,
      "start": 17.7371,
      "duration": 0.0161,
      "velocity": 124,
      "chip": "ym2612"
    },
    {
      "channel": 4,
      "note": 81,
      "start": 17.7393,
      "duration": 0.0154,
      "velocity": 94,
      "chip": "ym2612"
    },
    {
      "channel": 3,
      "note": 81,
      "start": 17.7406,
      "duration": 0.0153,
      "velocity": 94,
      "chip": "ym2612"
    },
    {
      "channel": 2,
      "note": 52,
      "start": 17.742,
      "duration": 0.0151,
      "velocity": 100,
      "chip": "ym2612"
    },
    {
      "channel": 1,
      "note": 68,
      "start": 17.7532,
      "duration": 0.0161,
      "velocity": 124,
      "chip": "ym2612"
    },
    {
      "channel": 4,
      "note": 81,
      "start": 17.7547,
      "duration": 0.016,
      "velocity": 94,
      "chip": "ym2612"
    },
    {
      "channel": 3,
      "note": 81,
      "start": 17.7559,
      "duration": 0.0159,
      "velocity": 94,
      "chip": "ym2612"
    },
    {
      "channel": 2,
      "note": 52,
      "start": 17.7571,
      "duration": 0.0159,
      "velocity": 100,
      "chip": "ym2612"
    },
    {
      "channel": 1,
      "note": 66,
      "start": 17.7693,
      "duration": 0.0161,
      "velocity": 124,
      "chip": "ym2612"
    },
    {
      "channel": 4,
      "note": 81,
      "start": 17.7707,
      "duration": 0.0161,
      "velocity": 94,
      "chip": "ym2612"
    },
    {
      "channel": 3,
      "note": 81,
      "start": 17.7718,
      "duration": 0.0161,
      "velocity": 94,
      "chip": "ym2612"
    },
    {
      "channel": 2,
      "note": 52,
      "start": 17.7729,
      "duration": 0.0161,
      "velocity": 100,
      "chip": "ym2612"
    },
    {
      "channel": 1,
      "note": 65,
      "start": 17.7854,
      "duration": 0.0161,
      "velocity": 124,
      "chip": "ym2612"
    },
    {
      "channel": 4,
      "note": 81,
      "start": 17.7868,
      "duration": 0.0161,
      "velocity": 94,
      "chip": "ym2612"
    },
    {
      "channel": 3,
      "note": 81,
      "start": 17.7879,
      "duration": 0.0161,
      "velocity": 94,
      "chip": "ym2612"
    },
    {
      "channel": 2,
      "note": 52,
      "start": 17.789,
      "duration": 0.0161,
      "velocity": 100,
      "chip": "ym2612"
    },
    {
      "channel": 1,
      "note": 64,
      "start": 17.8015,
      "duration": 0.0161,
      "velocity": 124,
      "chip": "ym2612"
    },
    {
      "channel": 4,
      "note": 81,
      "start": 17.8029,
      "duration": 0.0161,
      "velocity": 94,
      "chip": "ym2612"
    },
    {
      "channel": 3,
      "note": 81,
      "start": 17.804,
      "duration": 0.0162,
      "velocity": 94,
      "chip": "ym2612"
    },
    {
      "channel": 2,
      "note": 52,
      "start": 17.8051,
      "duration": 0.0161,
      "velocity": 100,
      "chip": "ym2612"
    },
    {
      "channel": 1,
      "note": 62,
      "start": 17.8176,
      "duration": 0.0161,
      "velocity": 124,
      "chip": "ym2612"
    },
    {
      "channel": 4,
      "note": 81,
      "start": 17.819,
      "duration": 0.0161,
      "velocity": 94,
      "chip": "ym2612"
    },
    {
      "channel": 3,
      "note": 81,
      "start": 17.8202,
      "duration": 0.0161,
      "velocity": 94,
      "chip": "ym2612"
    },
    {
      "channel": 2,
      "note": 52,
      "start": 17.8213,
      "duration": 0.0161,
      "velocity": 100,
      "chip": "ym2612"
    },
    {
      "channel": 1,
      "note": 61,
      "start": 17.8337,
      "duration": 0.0161,
      "velocity": 124,
      "chip": "ym2612"
    },
    {
      "channel": 4,
      "note": 81,
      "start": 17.8351,
      "duration": 0.0166,
      "velocity": 94,
      "chip": "ym2612"
    },
    {
      "channel": 3,
      "note": 81,
      "start": 17.8362,
      "duration": 0.0169,
      "velocity": 94,
      "chip": "ym2612"
    },
    {
      "channel": 2,
      "note": 52,
      "start": 17.8374,
      "duration": 0.0171,
      "velocity": 100,
      "chip": "ym2612"
    },
    {
      "channel": 1,
      "note": 60,
      "start": 17.8498,
      "duration": 0.0161,
      "velocity": 124,
      "chip": "ym2612"
    },
    {
      "channel": 4,
      "note": 81,
      "start": 17.8517,
      "duration": 0.0156,
      "velocity": 94,
      "chip": "ym2612"
    },
    {
      "channel": 3,
      "note": 81,
      "start": 17.8531,
      "duration": 0.0155,
      "velocity": 94,
      "chip": "ym2612"
    },
    {
      "channel": 2,
      "note": 52,
      "start": 17.8546,
      "duration": 0.0151,
      "velocity": 100,
      "chip": "ym2612"
    },
    {
      "channel": 1,
      "note": 59,
      "start": 17.8659,
      "duration": 0.0161,
      "velocity": 124,
      "chip": "ym2612"
    },
    {
      "channel": 4,
      "note": 81,
      "start": 17.8673,
      "duration": 0.016,
      "velocity": 94,
      "chip": "ym2612"
    },
    {
      "channel": 3,
      "note": 81,
      "start": 17.8686,
      "duration": 0.016,
      "velocity": 94,
      "chip": "ym2612"
    },
    {
      "channel": 2,
      "note": 52,
      "start": 17.8697,
      "duration": 0.016,
      "velocity": 100,
      "chip": "ym2612"
    },
    {
      "channel": 1,
      "note": 57,
      "start": 17.882,
      "duration": 0.0161,
      "velocity": 124,
      "chip": "ym2612"
    },
    {
      "channel": 4,
      "note": 81,
      "start": 17.8834,
      "duration": 0.0161,
      "velocity": 94,
      "chip": "ym2612"
    },
    {
      "channel": 3,
      "note": 81,
      "start": 17.8845,
      "duration": 0.0161,
      "velocity": 94,
      "chip": "ym2612"
    },
    {
      "channel": 2,
      "note": 52,
      "start": 17.8857,
      "duration": 0.0161,
      "velocity": 100,
      "chip": "ym2612"
    },
    {
      "channel": 1,
      "note": 56,
      "start": 17.8981,
      "duration": 0.0163,
      "velocity": 124,
      "chip": "ym2612"
    },
    {
      "channel": 4,
      "note": 81,
      "start": 17.8995,
      "duration": 0.0163,
      "velocity": 94,
      "chip": "ym2612"
    },
    {
      "channel": 3,
      "note": 81,
      "start": 17.9006,
      "duration": 0.0163,
      "velocity": 94,
      "chip": "ym2612"
    },
    {
      "channel": 2,
      "note": 52,
      "start": 17.9018,
      "duration": 0.0163,
      "velocity": 100,
      "chip": "ym2612"
    },
    {
      "channel": 1,
      "note": 55,
      "start": 17.9144,
      "duration": 0.0163,
      "velocity": 124,
      "chip": "ym2612"
    },
    {
      "channel": 4,
      "note": 81,
      "start": 17.9158,
      "duration": 0.0163,
      "velocity": 94,
      "chip": "ym2612"
    },
    {
      "channel": 3,
      "note": 81,
      "start": 17.917,
      "duration": 0.0163,
      "velocity": 94,
      "chip": "ym2612"
    },
    {
      "channel": 2,
      "note": 52,
      "start": 17.9181,
      "duration": 0.0163,
      "velocity": 100,
      "chip": "ym2612"
    },
    {
      "channel": 1,
      "note": 53,
      "start": 17.9308,
      "duration": 0.0156,
      "velocity": 124,
      "chip": "ym2612"
    },
    {
      "channel": 4,
      "note": 81,
      "start": 17.9322,
      "duration": 0.0156,
      "velocity": 94,
      "chip": "ym2612"
    },
    {
      "channel": 3,
      "note": 81,
      "start": 17.9333,
      "duration": 0.0156,
      "velocity": 94,
      "chip": "ym2612"
    },
    {
      "channel": 2,
      "note": 52,
      "start": 17.9344,
      "duration": 0.0156,
      "velocity": 100,
      "chip": "ym2612"
    },
    {
      "channel": 1,
      "note": 52,
      "start": 17.9464,
      "duration": 0.0181,
      "velocity": 124,
      "chip": "ym2612"
    },
    {
      "channel": 4,
      "note": 81,
      "start": 17.9478,
      "duration": 0.0223,
      "velocity": 94,
      "chip": "ym2612"
    },
    {
      "channel": 3,
      "note": 81,
      "start": 17.9489,
      "duration": 0.0224,
      "velocity": 94,
      "chip": "ym2612"
    },
    {
      "channel": 2,
      "note": 52,
      "start": 17.95,
      "duration": 0.0227,
      "velocity": 100,
      "chip": "ym2612"
    },
    {
      "channel": 1,
      "note": 51,
      "start": 17.9645,
      "duration": 0.0159,
      "velocity": 1,
      "chip": "ym2612"
    },
    {
      "channel": 0,
      "note": 78,
      "start": 17.9687,
      "duration": 0.0155,
      "velocity": 127,
      "chip": "ym2612"
    },
    {
      "channel": 4,
      "note": 79,
      "start": 17.9702,
      "duration": 0.0153,
      "velocity": 94,
      "chip": "ym2612"
    },
    {
      "channel": 3,
      "note": 81,
      "start": 17.9713,
      "duration": 0.0153,
      "velocity": 94,
      "chip": "ym2612"
    },
    {
      "channel": 2,
      "note": 52,
      "start": 17.9728,
      "duration": 0.015,
      "velocity": 100,
      "chip": "ym2612"
    },
    {
      "channel": 1,
      "note": 51,
      "start": 17.9825,
      "duration": 0.0141,
      "velocity": 105,
      "chip": "ym2612"
    },
    {
      "channel": 0,
      "note": 76,
      "start": 17.9842,
      "duration": 0.0141,
      "velocity": 127,
      "chip": "ym2612"
    },
    {
      "channel": 4,
      "note": 79,
      "start": 17.9854,
      "duration": 0.014,
      "velocity": 94,
      "chip": "ym2612"
    },
    {
      "channel": 3,
      "note": 81,
      "start": 17.9866,
      "duration": 0.014,
      "velocity": 94,
      "chip": "ym2612"
    },
    {
      "channel": 2,
      "note": 52,
      "start": 17.9878,
      "duration": 0.0139,
      "velocity": 100,
      "chip": "ym2612"
    },
    {
      "channel": 1,
      "note": 105,
      "start": 17.9966,
      "duration": 0.014,
      "velocity": 105,
      "chip": "ym2612"
    },
    {
      "channel": 0,
      "note": 75,
      "start": 17.9983,
      "duration": 0.014,
      "velocity": 127,
      "chip": "ym2612"
    },
    {
      "channel": 4,
      "note": 79,
      "start": 17.9994,
      "duration": 0.0141,
      "velocity": 94,
      "chip": "ym2612"
    },
    {
      "channel": 3,
      "note": 81,
      "start": 18.0006,
      "duration": 0.0141,
      "velocity": 94,
      "chip": "ym2612"
    },
    {
      "channel": 2,
      "note": 52,
      "start": 18.0017,
      "duration": 0.0141,
      "velocity": 100,
      "chip": "ym2612"
    },
    {
      "channel": 1,
      "note": 105,
      "start": 18.0106,
      "duration": 0.0158,
      "velocity": 105,
      "chip": "ym2612"
    },
    {
      "channel": 0,
      "note": 73,
      "start": 18.0123,
      "duration": 0.0186,
      "velocity": 127,
      "chip": "ym2612"
    },
    {
      "channel": 4,
      "note": 79,
      "start": 18.0135,
      "duration": 0.0185,
      "velocity": 94,
      "chip": "ym2612"
    },
    {
      "channel": 3,
      "note": 81,
      "start": 18.0146,
      "duration": 0.0185,
      "velocity": 94,
      "chip": "ym2612"
    },
    {
      "channel": 2,
      "note": 52,
      "start": 18.0158,
      "duration": 0.0185,
      "velocity": 100,
      "chip": "ym2612"
    },
    {
      "channel": 1,
      "note": 105,
      "start": 18.0264,
      "duration": 0.0161,
      "velocity": 105,
      "chip": "ym2612"
    },
    {
      "channel": 0,
      "note": 71,
      "start": 18.0308,
      "duration": 0.0161,
      "velocity": 127,
      "chip": "ym2612"
    },
    {
      "channel": 4,
      "note": 79,
      "start": 18.032,
      "duration": 0.0161,
      "velocity": 94,
      "chip": "ym2612"
    },
    {
      "channel": 3,
      "note": 81,
      "start": 18.0331,
      "duration": 0.0161,
      "velocity": 94,
      "chip": "ym2612"
    },
    {
      "channel": 2,
      "note": 52,
      "start": 18.0343,
      "duration": 0.0161,
      "velocity": 100,
      "chip": "ym2612"
    },
    {
      "channel": 1,
      "note": 105,
      "start": 18.0425,
      "duration": 0.0161,
      "velocity": 105,
      "chip": "ym2612"
    },
    {
      "channel": 0,
      "note": 70,
      "start": 18.0469,
      "duration": 0.0157,
      "velocity": 127,
      "chip": "ym2612"
    },
    {
      "channel": 4,
      "note": 79,
      "start": 18.0481,
      "duration": 0.0158,
      "velocity": 94,
      "chip": "ym2612"
    },
    {
      "channel": 3,
      "note": 81,
      "start": 18.0492,
      "duration": 0.0158,
      "velocity": 94,
      "chip": "ym2612"
    },
    {
      "channel": 2,
      "note": 52,
      "start": 18.0504,
      "duration": 0.0158,
      "velocity": 100,
      "chip": "ym2612"
    },
    {
      "channel": 1,
      "note": 105,
      "start": 18.0586,
      "duration": 0.0178,
      "velocity": 124,
      "chip": "ym2612"
    },
    {
      "channel": 0,
      "note": 68,
      "start": 18.0627,
      "duration": 0.0176,
      "velocity": 115,
      "chip": "ym2612"
    },
    {
      "channel": 4,
      "note": 79,
      "start": 18.0639,
      "duration": 0.0176,
      "velocity": 94,
      "chip": "ym2612"
    },
    {
      "channel": 3,
      "note": 81,
      "start": 18.065,
      "duration": 0.0178,
      "velocity": 94,
      "chip": "ym2612"
    },
    {
      "channel": 2,
      "note": 52,
      "start": 18.0661,
      "duration": 0.0181,
      "velocity": 100,
      "chip": "ym2612"
    },
    {
      "channel": 1,
      "note": 64,
      "start": 18.0766,
      "duration": 0.0143,
      "velocity": 124,
      "chip": "ym2612"
    },
    {
      "channel": 0,
      "note": 36,
      "start": 18.0803,
      "duration": 0.0123,
      "velocity": 115,
      "chip": "ym2612"
    },
    {
      "channel": 4,
      "note": 79,
      "start": 18.0815,
      "duration": 0.0151,
      "velocity": 94,
      "chip": "ym2612"
    },
    {
      "channel": 3,
      "note": 79,
      "start": 18.0829,
      "duration": 0.0149,
      "velocity": 94,
      "chip": "ym2612"
    },
    {
      "channel": 2,
      "note": 55,
      "start": 18.0843,
      "duration": 0.0146,
      "velocity": 100,
      "chip": "ym2612"
    },
    {
      "channel": 1,
      "note": 64,
      "start": 18.0909,
      "duration": 0.016,
      "velocity": 124,
      "chip": "ym2612"
    },
    {
      "channel": 0,
      "note": 36,
      "start": 18.0926,
      "duration": 0.016,
      "velocity": 115,
      "chip": "ym2612"
    },
    {
      "channel": 4,
      "note": 79,
      "start": 18.0966,
      "duration": 0.0132,
      "velocity": 94,
      "chip": "ym2612"
    },
    {
      "channel": 3,
      "note": 79,
      "start": 18.0978,
      "duration": 0.0159,
      "velocity": 94,
      "chip": "ym2612"
    },
    {
      "channel": 2,
      "note": 55,
      "start": 18.099,
      "duration": 0.0158,
      "velocity": 100,
      "chip": "ym2612"
    },
    {
      "channel": 1,
      "note": 64,
      "start": 18.1069,
      "duration": 0.0161,
      "velocity": 124,
      "chip": "ym2612"
    },
    {
      "channel": 0,
      "note": 37,
      "start": 18.1086,
      "duration": 0.0162,
      "velocity": 115,
      "chip": "ym2612"
    },
    {
      "channel": 4,
      "note": 79,
      "start": 18.1098,
      "duration": 0.0161,
      "velocity": 94,
      "chip": "ym2612"
    },
    {
      "channel": 3,
      "note": 79,
      "start": 18.1137,
      "duration": 0.0158,
      "velocity": 94,
      "chip": "ym2612"
    },
    {
      "channel": 2,
      "note": 55,
      "start": 18.1148,
      "duration": 0.0157,
      "velocity": 100,
      "chip": "ym2612"
    },
    {
      "channel": 1,
      "note": 64,
      "start": 18.123,
      "duration": 0.0161,
      "velocity": 124,
      "chip": "ym2612"
    },
    {
      "channel": 0,
      "note": 37,
      "start": 18.1247,
      "duration": 0.0161,
      "velocity": 115,
      "chip": "ym2612"
    },
    {
      "channel": 4,
      "note": 79,
      "start": 18.1259,
      "duration": 0.0161,
      "velocity": 94,
      "chip": "ym2612"
    },
    {
      "channel": 3,
      "note": 79,
      "start": 18.1294,
      "duration": 0.0137,
      "velocity": 94,
      "chip": "ym2612"
    },
    {
      "channel": 2,
      "note": 55,
      "start": 18.1305,
      "duration": 0.0141,
      "velocity": 100,
      "chip": "ym2612"
    },
    {
      "channel": 1,
      "note": 64,
      "start": 18.1391,
      "duration": 0.0161,
      "velocity": 124,
      "chip": "ym2612"
    },
    {
      "channel": 0,
      "note": 38,
      "start": 18.1408,
      "duration": 0.0161,
      "velocity": 115,
      "chip": "ym2612"
    },
    {
      "channel": 4,
      "note": 79,
      "start": 18.142,
      "duration": 0.0161,
      "velocity": 94,
      "chip": "ym2612"
    },
    {
      "channel": 3,
      "note": 79,
      "start": 18.1431,
      "duration": 0.0161,
      "velocity": 94,
      "chip": "ym2612"
    },
    {
      "channel": 2,
      "note": 55,
      "start": 18.1446,
      "duration": 0.0185,
      "velocity": 100,
      "chip": "ym2612"
    },
    {
      "channel": 1,
      "note": 64,
      "start": 18.1552,
      "duration": 0.0162,
      "velocity": 124,
      "chip": "ym2612"
    },
    {
      "channel": 0,
      "note": 38,
      "start": 18.1569,
      "duration": 0.0161,
      "velocity": 115,
      "chip": "ym2612"
    },
    {
      "channel": 4,
      "note": 79,
      "start": 18.1581,
      "duration": 0.0161,
      "velocity": 94,
      "chip": "ym2612"
    },
    {
      "channel": 3,
      "note": 79,
      "start": 18.1592,
      "duration": 0.0161,
      "velocity": 94,
      "chip": "ym2612"
    },
    {
      "channel": 2,
      "note": 55,
      "start": 18.1631,
      "duration": 0.0161,
      "velocity": 100,
      "chip": "ym2612"
    },
    {
      "channel": 1,
      "note": 64,
      "start": 18.1714,
      "duration": 0.0178,
      "velocity": 105,
      "chip": "ym2612"
    },
    {
      "channel": 0,
      "note": 39,
      "start": 18.173,
      "duration": 0.0178,
      "velocity": 115,
      "chip": "ym2612"
    },
    {
      "channel": 4,
      "note": 79,
      "start": 18.1741,
      "duration": 0.0181,
      "velocity": 94,
      "chip": "ym2612"
    },
    {
      "channel": 3,
      "note": 79,
      "start": 18.1753,
      "duration": 0.0205,
      "velocity": 94,
      "chip": "ym2612"
    },
    {
      "channel": 2,
      "note": 55,
      "start": 18.1792,
      "duration": 0.018,
      "velocity": 100,
      "chip": "ym2612"
    },
    {
      "channel": 1,
      "note": 105,
      "start": 18.1892,
      "duration": 0.0144,
      "velocity": 105,
      "chip": "ym2612"
    },
    {
      "channel": 0,
      "note": 39,
      "start": 18.1908,
      "duration": 0.0144,
      "velocity": 115,
      "chip": "ym2612"
    },
    {
      "channel": 4,
      "note": 81,
      "start": 18.1922,
      "duration": 0.0143,
      "velocity": 94,
      "chip": "ym2612"
    },
    {
      "channel": 3,
      "note": 79,
      "start": 18.1958,
      "duration": 0.0118,
      "velocity": 94,
      "chip": "ym2612"
    },
    {
      "channel": 2,
      "note": 55,
      "start": 18.1973,
      "duration": 0.0116,
      "velocity": 100,
      "chip": "ym2612"
    },
    {
      "channel": 1,
      "note": 105,
      "start": 18.2035,
      "duration": 0.0161,
      "velocity": 105,
      "chip": "ym2612"
    },
    {
      "channel": 0,
      "note": 40,
      "start": 18.2053,
      "duration": 0.016,
      "velocity": 115,
      "chip": "ym2612"
    },
    {
      "channel": 4,
      "note": 81,
      "start": 18.2065,
      "duration": 0.016,
      "velocity": 94,
      "chip": "ym2612"
    },
    {
      "channel": 3,
      "note": 79,
      "start": 18.2076,
      "duration": 0.016,
      "velocity": 94,
      "chip": "ym2612"
    },
    {
      "channel": 2,
      "note": 55,
      "start": 18.2088,
      "duration": 0.0159,
      "velocity": 100,
      "chip": "ym2612"
    },
    {
      "channel": 1,
      "note": 105,
      "start": 18.2196,
      "duration": 0.0161,
      "velocity": 105,
      "chip": "ym2612"
    },
    {
      "channel": 0,
      "note": 40,
      "start": 18.2213,
      "duration": 0.0161,
      "velocity": 115,
      "chip": "ym2612"
    },
    {
      "channel": 4,
      "note": 81,
      "start": 18.2224,
      "duration": 0.0161,
      "velocity": 94,
      "chip": "ym2612"
    },
    {
      "channel": 3,
      "note": 79,
      "start": 18.2236,
      "duration": 0.0161,
      "velocity": 94,
      "chip": "ym2612"
    },
    {
      "channel": 2,
      "note": 55,
      "start": 18.2247,
      "duration": 0.0161,
      "velocity": 100,
      "chip": "ym2612"
    },
    {
      "channel": 1,
      "note": 105,
      "start": 18.2357,
      "duration": 0.0161,
      "velocity": 105,
      "chip": "ym2612"
    },
    {
      "channel": 0,
      "note": 40,
      "start": 18.2374,
      "duration": 0.0161,
      "velocity": 115,
      "chip": "ym2612"
    },
    {
      "channel": 4,
      "note": 81,
      "start": 18.2385,
      "duration": 0.0162,
      "velocity": 94,
      "chip": "ym2612"
    },
    {
      "channel": 3,
      "note": 79,
      "start": 18.2397,
      "duration": 0.0161,
      "velocity": 94,
      "chip": "ym2612"
    },
    {
      "channel": 2,
      "note": 55,
      "start": 18.2408,
      "duration": 0.0161,
      "velocity": 100,
      "chip": "ym2612"
    },
    {
      "channel": 1,
      "note": 105,
      "start": 18.2518,
      "duration": 0.0161,
      "velocity": 105,
      "chip": "ym2612"
    },
    {
      "channel": 0,
      "note": 41,
      "start": 18.2535,
      "duration": 0.0161,
      "velocity": 115,
      "chip": "ym2612"
    },
    {
      "channel": 4,
      "note": 81,
      "start": 18.2547,
      "duration": 0.0161,
      "velocity": 94,
      "chip": "ym2612"
    },
    {
      "channel": 3,
      "note": 79,
      "start": 18.2558,
      "duration": 0.0161,
      "velocity": 94,
      "chip": "ym2612"
    },
    {
      "channel": 2,
      "note": 55,
      "start": 18.2569,
      "duration": 0.0161,
      "velocity": 100,
      "chip": "ym2612"
    },
    {
      "channel": 1,
      "note": 105,
      "start": 18.2679,
      "duration": 0.0161,
      "velocity": 105,
      "chip": "ym2612"
    },
    {
      "channel": 0,
      "note": 41,
      "start": 18.2696,
      "duration": 0.0161,
      "velocity": 115,
      "chip": "ym2612"
    },
    {
      "channel": 4,
      "note": 81,
      "start": 18.2708,
      "duration": 0.0161,
      "velocity": 94,
      "chip": "ym2612"
    },
    {
      "channel": 3,
      "note": 79,
      "start": 18.2719,
      "duration": 0.0161,
      "velocity": 94,
      "chip": "ym2612"
    },
    {
      "channel": 2,
      "note": 55,
      "start": 18.273,
      "duration": 0.0161,
      "velocity": 100,
      "chip": "ym2612"
    },
    {
      "channel": 1,
      "note": 105,
      "start": 18.284,
      "duration": 0.0178,
      "velocity": 124,
      "chip": "ym2612"
    },
    {
      "channel": 0,
      "note": 42,
      "start": 18.2857,
      "duration": 0.0179,
      "velocity": 115,
      "chip": "ym2612"
    },
    {
      "channel": 4,
      "note": 81,
      "start": 18.2869,
      "duration": 0.0179,
      "velocity": 94,
      "chip": "ym2612"
    },
    {
      "channel": 3,
      "note": 79,
      "start": 18.288,
      "duration": 0.0181,
      "velocity": 94,
      "chip": "ym2612"
    },
    {
      "channel": 2,
      "note": 55,
      "start": 18.2891,
      "duration": 0.0184,
      "velocity": 100,
      "chip": "ym2612"
    },
    {
      "channel": 1,
      "note": 64,
      "start": 18.3019,
      "duration": 0.0144,
      "velocity": 124,
      "chip": "ym2612"
    },
    {
      "channel": 0,
      "note": 42,
      "start": 18.3035,
      "duration": 0.0144,
      "velocity": 115,
      "chip": "ym2612"
    },
    {
      "channel": 4,
      "note": 81,
      "start": 18.3048,
      "duration": 0.0144,
      "velocity": 94,
      "chip": "ym2612"
    },
    {
      "channel": 3,
      "note": 81,
      "start": 18.3062,
      "duration": 0.0142,
      "velocity": 94,
      "chip": "ym2612"
    },
    {
      "channel": 2,
      "note": 55,
      "start": 18.3076,
      "duration": 0.014,
      "velocity": 100,
      "chip": "ym2612"
    },
    {
      "channel": 1,
      "note": 64,
      "start": 18.3163,
      "duration": 0.016,
      "velocity": 124,
      "chip": "ym2612"
    },
    {
      "channel": 0,
      "note": 43,
      "start": 18.318,
      "duration": 0.016,
      "velocity": 115,
      "chip": "ym2612"
    },
    {
      "channel": 4,
      "note": 81,
      "start": 18.3191,
      "duration": 0.016,
      "velocity": 94,
      "chip": "ym2612"
    },
    {
      "channel": 3,
      "note": 81,
      "start": 18.3203,
      "duration": 0.016,
      "velocity": 94,
      "chip": "ym2612"
    },
    {
      "channel": 2,
      "note": 55,
      "start": 18.3215,
      "duration": 0.0159,
      "velocity": 100,
      "chip": "ym2612"
    },
    {
      "channel": 1,
      "note": 64,
      "start": 18.3324,
      "duration": 0.0161,
      "velocity": 124,
      "chip": "ym2612"
    },
    {
      "channel": 0,
      "note": 43,
      "start": 18.334,
      "duration": 0.0161,
      "velocity": 115,
      "chip": "ym2612"
    },
    {
      "channel": 4,
      "note": 81,
      "start": 18.3352,
      "duration": 0.0161,
      "velocity": 94,
      "chip": "ym2612"
    },
    {
      "channel": 3,
      "note": 81,
      "start": 18.3363,
      "duration": 0.0161,
      "velocity": 94,
      "chip": "ym2612"
    },
    {
      "channel": 2,
      "note": 55,
      "start": 18.3375,
      "duration": 0.0161,
      "velocity": 100,
      "chip": "ym2612"
    },
    {
      "channel": 1,
      "note": 64,
      "start": 18.3485,
      "duration": 0.0161,
      "velocity": 124,
      "chip": "ym2612"
    },
    {
      "channel": 0,
      "note": 44,
      "start": 18.3501,
      "duration": 0.0161,
      "velocity": 115,
      "chip": "ym2612"
    },
    {
      "channel": 4,
      "note": 81,
      "start": 18.3513,
      "duration": 0.0161,
      "velocity": 94,
      "chip": "ym2612"
    },
    {
      "channel": 3,
      "note": 81,
      "start": 18.3524,
      "duration": 0.0162,
      "velocity": 94,
      "chip": "ym2612"
    },
    {
      "channel": 2,
      "note": 55,
      "start": 18.3535,
      "duration": 0.0161,
      "velocity": 100,
      "chip": "ym2612"
    },
    {
      "channel": 1,
      "note": 64,
      "start": 18.3646,
      "duration": 0.0161,
      "velocity": 124,
      "chip": "ym2612"
    },
    {
      "channel": 0,
      "note": 44,
      "start": 18.3662,
      "duration": 0.0161,
      "velocity": 115,
      "chip": "ym2612"
    },
    {
      "channel": 4,
      "note": 81,
      "start": 18.3674,
      "duration": 0.0161,
      "velocity": 94,
      "chip": "ym2612"
    },
    {
      "channel": 3,
      "note": 81,
      "start": 18.3686,
      "duration": 0.0161,
      "velocity": 94,
      "chip": "ym2612"
    },
    {
      "channel": 2,
      "note": 55,
      "start": 18.3696,
      "duration": 0.0162,
      "velocity": 100,
      "chip": "ym2612"
    },
    {
      "channel": 1,
      "note": 64,
      "start": 18.3807,
      "duration": 0.0163,
      "velocity": 124,
      "chip": "ym2612"
    },
    {
      "channel": 0,
      "note": 44,
      "start": 18.3824,
      "duration": 0.0162,
      "velocity": 115,
      "chip": "ym2612"
    },
    {
      "channel": 4,
      "note": 81,
      "start": 18.3835,
      "duration": 0.0163,
      "velocity": 94,
      "chip": "ym2612"
    },
    {
      "channel": 3,
      "note": 81,
      "start": 18.3846,
      "duration": 0.0163,
      "velocity": 94,
      "chip": "ym2612"
    },
    {
      "channel": 2,
      "note": 55,
      "start": 18.3858,
      "duration": 0.0162,
      "velocity": 100,
      "chip": "ym2612"
    },
    {
      "channel": 1,
      "note": 64,
      "start": 18.3969,
      "duration": 0.0176,
      "velocity": 105,
      "chip": "ym2612"
    },
    {
      "channel": 0,
      "note": 45,
      "start": 18.3986,
      "duration": 0.0176,
      "velocity": 115,
      "chip": "ym2612"
    },
    {
      "channel": 4,
      "note": 81,
      "start": 18.3998,
      "duration": 0.0176,
      "velocity": 94,
      "chip": "ym2612"
    },
    {
      "channel": 3,
      "note": 81,
      "start": 18.4009,
      "duration": 0.0176,
      "velocity": 94,
      "chip": "ym2612"
    },
    {
      "channel": 2,
      "note": 55,
      "start": 18.402,
      "duration": 0.0179,
      "velocity": 100,
      "chip": "ym2612"
    },
    {
      "channel": 1,
      "note": 105,
      "start": 18.4146,
      "duration": 0.0161,
      "velocity": 105,
      "chip": "ym2612"
    },
    {
      "channel": 0,
      "note": 45,
      "start": 18.4162,
      "duration": 0.0161,
      "velocity": 115,
      "chip": "ym2612"
    },
    {
      "channel": 4,
      "note": 81,
      "start": 18.4174,
      "duration": 0.0161,
      "velocity": 94,
      "chip": "ym2612"
    },
    {
      "channel": 3,
      "note": 81,
      "start": 18.4186,
      "duration": 0.0161,
      "velocity": 94,
      "chip": "ym2612"
    },
    {
      "channel": 2,
      "note": 55,
      "start": 18.42,
      "duration": 0.0159,
      "velocity": 100,
      "chip": "ym2612"
    },
    {
      "channel": 1,
      "note": 105,
      "start": 18.4307,
      "duration": 0.0167,
      "velocity": 105,
      "chip": "ym2612"
    },
    {
      "channel": 0,
      "note": 46,
      "start": 18.4324,
      "duration": 0.0166,
      "velocity": 115,
      "chip": "ym2612"
    },
    {
      "channel": 4,
      "note": 81,
      "start": 18.4335,
      "duration": 0.0166,
      "velocity": 94,
      "chip": "ym2612"
    },
    {
      "channel": 3,
      "note": 81,
      "start": 18.4346,
      "duration": 0.0166,
      "velocity": 94,
      "chip": "ym2612"
    },
    {
      "channel": 2,
      "note": 55,
      "start": 18.4359,
      "duration": 0.0165,
      "velocity": 100,
      "chip": "ym2612"
    },
    {
      "channel": 1,
      "note": 105,
      "start": 18.4473,
      "duration": 0.0162,
      "velocity": 105,
      "chip": "ym2612"
    },
    {
      "channel": 0,
      "note": 46,
      "start": 18.449,
      "duration": 0.0162,
      "velocity": 115,
      "chip": "ym2612"
    },
    {
      "channel": 4,
      "note": 81,
      "start": 18.4501,
      "duration": 0.0162,
      "velocity": 94,
      "chip": "ym2612"
    },
    {
      "channel": 3,
      "note": 81,
      "start": 18.4513,
      "duration": 0.0162,
      "velocity": 94,
      "chip": "ym2612"
    },
    {
      "channel": 2,
      "note": 55,
      "start": 18.4524,
      "duration": 0.0162,
      "velocity": 100,
      "chip": "ym2612"
    },
    {
      "channel": 1,
      "note": 105,
      "start": 18.4635,
      "duration": 0.0141,
      "velocity": 105,
      "chip": "ym2612"
    },
    {
      "channel": 0,
      "note": 47,
      "start": 18.4652,
      "duration": 0.0141,
      "velocity": 115,
      "chip": "ym2612"
    },
    {
      "channel": 4,
      "note": 81,
      "start": 18.4663,
      "duration": 0.0141,
      "velocity": 94,
      "chip": "ym2612"
    },
    {
      "channel": 3,
      "note": 81,
      "start": 18.4675,
      "duration": 0.0141,
      "velocity": 94,
      "chip": "ym2612"
    },
    {
      "channel": 2,
      "note": 55,
      "start": 18.4686,
      "duration": 0.0141,
      "velocity": 100,
      "chip": "ym2612"
    },
    {
      "channel": 1,
      "note": 105,
      "start": 18.4776,
      "duration": 0.0185,
      "velocity": 105,
      "chip": "ym2612"
    },
    {
      "channel": 0,
      "note": 47,
      "start": 18.4793,
      "duration": 0.0185,
      "velocity": 115,
      "chip": "ym2612"
    },
    {
      "channel": 4,
      "note": 81,
      "start": 18.4804,
      "duration": 0.0185,
      "velocity": 94,
      "chip": "ym2612"
    },
    {
      "channel": 3,
      "note": 81,
      "start": 18.4815,
      "duration": 0.0185,
      "velocity": 94,
      "chip": "ym2612"
    },
    {
      "channel": 2,
      "note": 55,
      "start": 18.4827,
      "duration": 0.0185,
      "velocity": 100,
      "chip": "ym2612"
    },
    {
      "channel": 1,
      "note": 105,
      "start": 18.4961,
      "duration": 0.0134,
      "velocity": 105,
      "chip": "ym2612"
    },
    {
      "channel": 0,
      "note": 47,
      "start": 18.4978,
      "duration": 0.0161,
      "velocity": 115,
      "chip": "ym2612"
    },
    {
      "channel": 4,
      "note": 81,
      "start": 18.4989,
      "duration": 0.0161,
      "velocity": 94,
      "chip": "ym2612"
    },
    {
      "channel": 3,
      "note": 81,
      "start": 18.5,
      "duration": 0.0162,
      "velocity": 94,
      "chip": "ym2612"
    },
    {
      "channel": 2,
      "note": 55,
      "start": 18.5012,
      "duration": 0.0161,
      "velocity": 100,
      "chip": "ym2612"
    },
    {
      "channel": 1,
      "note": 105,
      "start": 18.5095,
      "duration": 0.0207,
      "velocity": 124,
      "chip": "ym2612"
    },
    {
      "channel": 0,
      "note": 48,
      "start": 18.5139,
      "duration": 0.0188,
      "velocity": 115,
      "chip": "ym2612"
    },
    {
      "channel": 4,
      "note": 81,
      "start": 18.5151,
      "duration": 0.0187,
      "velocity": 94,
      "chip": "ym2612"
    },
    {
      "channel": 3,
      "note": 81,
      "start": 18.5162,
      "duration": 0.0187,
      "velocity": 94,
      "chip": "ym2612"
    },
    {
      "channel": 2,
      "note": 55,
      "start": 18.5173,
      "duration": 0.019,
      "velocity": 100,
      "chip": "ym2612"
    },
    {
      "channel": 1,
      "note": 78,
      "start": 18.5302,
      "duration": 0.012,
      "velocity": 124,
      "chip": "ym2612"
    },
    {
      "channel": 0,
      "note": 48,
      "start": 18.5326,
      "duration": 0.0118,
      "velocity": 115,
      "chip": "ym2612"
    },
    {
      "channel": 4,
      "note": 81,
      "start": 18.5338,
      "duration": 0.0118,
      "velocity": 94,
      "chip": "ym2612"
    },
    {
      "channel": 3,
      "note": 81,
      "start": 18.5349,
      "duration": 0.0118,
      "velocity": 94,
      "chip": "ym2612"
    },
    {
      "channel": 2,
      "note": 55,
      "start": 18.5364,
      "duration": 0.0116,
      "velocity": 100,
      "chip": "ym2612"
    },
    {
      "channel": 1,
      "note": 76,
      "start": 18.5422,
      "duration": 0.016,
      "velocity": 124,
      "chip": "ym2612"
    },
    {
      "channel": 0,
      "note": 49,
      "start": 18.5444,
      "duration": 0.0149,
      "velocity": 1,
      "chip": "ym2612"
    },
    {
      "channel": 4,
      "note": 81,
      "start": 18.5456,
      "duration": 0.0176,
      "velocity": 94,
      "chip": "ym2612"
    },
    {
      "channel": 3,
      "note": 81,
      "start": 18.5467,
      "duration": 0.0176,
      "velocity": 94,
      "chip": "ym2612"
    },
    {
      "channel": 2,
      "note": 55,
      "start": 18.548,
      "duration": 0.0176,
      "velocity": 100,
      "chip": "ym2612"
    },
    {
      "channel": 1,
      "note": 75,
      "start": 18.5583,
      "duration": 0.0161,
      "velocity": 124,
      "chip": "ym2612"
    },
    {
      "channel": 4,
      "note": 81,
      "start": 18.5632,
      "duration": 0.0125,
      "velocity": 94,
      "chip": "ym2612"
    },
    {
      "channel": 3,
      "note": 81,
      "start": 18.5644,
      "duration": 0.0153,
      "velocity": 94,
      "chip": "ym2612"
    },
    {
      "channel": 2,
      "note": 55,
      "start": 18.5655,
      "duration": 0.0153,
      "velocity": 100,
      "chip": "ym2612"
    },
    {
      "channel": 1,
      "note": 74,
      "start": 18.5744,
      "duration": 0.0161,
      "velocity": 124,
      "chip": "ym2612"
    },
    {
      "channel": 4,
      "note": 81,
      "start": 18.5758,
      "duration": 0.0161,
      "velocity": 94,
      "chip": "ym2612"
    },
    {
      "channel": 3,
      "note": 81,
      "start": 18.5796,
      "duration": 0.0134,
      "velocity": 94,
      "chip": "ym2612"
    },
    {
      "channel": 2,
      "note": 55,
      "start": 18.5808,
      "duration": 0.0157,
      "velocity": 100,
      "chip": "ym2612"
    },
    {
      "channel": 1,
      "note": 72,
      "start": 18.5905,
      "duration": 0.0161,
      "velocity": 124,
      "chip": "ym2612"
    },
    {
      "channel": 4,
      "note": 81,
      "start": 18.5918,
      "duration": 0.0161,
      "velocity": 94,
      "chip": "ym2612"
    },
    {
      "channel": 3,
      "note": 81,
      "start": 18.593,
      "duration": 0.0161,
      "velocity": 94,
      "chip": "ym2612"
    },
    {
      "channel": 2,
      "note": 55,
      "start": 18.5965,
      "duration": 0.0141,
      "velocity": 100,
      "chip": "ym2612"
    },
    {
      "channel": 1,
      "note": 71,
      "start": 18.6065,
      "duration": 0.0161,
      "velocity": 124,
      "chip": "ym2612"
    },
    {
      "channel": 4,
      "note": 81,
      "start": 18.6079,
      "duration": 0.0161,
      "velocity": 94,
      "chip": "ym2612"
    },
    {
      "channel": 3,
      "note": 81,
      "start": 18.6091,
      "duration": 0.0161,
      "velocity": 94,
      "chip": "ym2612"
    },
    {
      "channel": 2,
      "note": 55,
      "start": 18.6105,
      "duration": 0.0158,
      "velocity": 100,
      "chip": "ym2612"
    },
    {
      "channel": 1,
      "note": 70,
      "start": 18.6226,
      "duration": 0.0162,
      "velocity": 124,
      "chip": "ym2612"
    },
    {
      "channel": 4,
      "note": 81,
      "start": 18.624,
      "duration": 0.0167,
      "velocity": 94,
      "chip": "ym2612"
    },
    {
      "channel": 3,
      "note": 81,
      "start": 18.6252,
      "duration": 0.0167,
      "velocity": 94,
      "chip": "ym2612"
    },
    {
      "channel": 2,
      "note": 55,
      "start": 18.6263,
      "duration": 0.0197,
      "velocity": 100,
      "chip": "ym2612"
    },
    {
      "channel": 1,
      "note": 69,
      "start": 18.6388,
      "duration": 0.0161,
      "velocity": 124,
      "chip": "ym2612"
    },
    {
      "channel": 4,
      "note": 81,
      "start": 18.6407,
      "duration": 0.0156,
      "velocity": 94,
      "chip": "ym2612"
    },
    {
      "channel": 3,
      "note": 81,
      "start": 18.6418,
      "duration": 0.0156,
      "velocity": 94,
      "chip": "ym2612"
    },
    {
      "channel": 2,
      "note": 55,
      "start": 18.646,
      "duration": 0.0126,
      "velocity": 100,
      "chip": "ym2612"
    },
    {
      "channel": 1,
      "note": 68,
      "start": 18.6549,
      "duration": 0.0161,
      "velocity": 124,
      "chip": "ym2612"
    },
    {
      "channel": 4,
      "note": 81,
      "start": 18.6563,
      "duration": 0.016,
      "velocity": 94,
      "chip": "ym2612"
    },
    {
      "channel": 3,
      "note": 81,
      "start": 18.6574,
      "duration": 0.016,
      "velocity": 94,
      "chip": "ym2612"
    },
    {
      "channel": 2,
      "note": 55,
      "start": 18.6586,
      "duration": 0.016,
      "velocity": 100,
      "chip": "ym2612"
    },
    {
      "channel": 1,
      "note": 66,
      "start": 18.671,
      "duration": 0.0161,
      "velocity": 124,
      "chip": "ym2612"
    },
    {
      "channel": 4,
      "note": 81,
      "start": 18.6723,
      "duration": 0.0162,
      "velocity": 94,
      "chip": "ym2612"
    },
    {
      "channel": 3,
      "note": 81,
      "start": 18.6735,
      "duration": 0.0161,
      "velocity": 94,
      "chip": "ym2612"
    },
    {
      "channel": 2,
      "note": 55,
      "start": 18.6746,
      "duration": 0.0161,
      "velocity": 100,
      "chip": "ym2612"
    },
    {
      "channel": 1,
      "note": 65,
      "start": 18.6871,
      "duration": 0.0161,
      "velocity": 124,
      "chip": "ym2612"
    },
    {
      "channel": 4,
      "note": 81,
      "start": 18.6885,
      "duration": 0.0161,
      "velocity": 94,
      "chip": "ym2612"
    },
    {
      "channel": 3,
      "note": 81,
      "start": 18.6896,
      "duration": 0.0161,
      "velocity": 94,
      "chip": "ym2612"
    },
    {
      "channel": 2,
      "note": 55,
      "start": 18.6907,
      "duration": 0.0161,
      "velocity": 100,
      "chip": "ym2612"
    },
    {
      "channel": 1,
      "note": 64,
      "start": 18.7032,
      "duration": 0.0161,
      "velocity": 124,
      "chip": "ym2612"
    },
    {
      "channel": 4,
      "note": 81,
      "start": 18.7046,
      "duration": 0.0161,
      "velocity": 94,
      "chip": "ym2612"
    },
    {
      "channel": 3,
      "note": 81,
      "start": 18.7057,
      "duration": 0.0161,
      "velocity": 94,
      "chip": "ym2612"
    },
    {
      "channel": 2,
      "note": 55,
      "start": 18.7068,
      "duration": 0.0161,
      "velocity": 100,
      "chip": "ym2612"
    },
    {
      "channel": 1,
      "note": 62,
      "start": 18.7193,
      "duration": 0.0161,
      "velocity": 124,
      "chip": "ym2612"
    },
    {
      "channel": 4,
      "note": 81,
      "start": 18.7207,
      "duration": 0.0161,
      "velocity": 94,
      "chip": "ym2612"
    },
    {
      "channel": 3,
      "note": 81,
      "start": 18.7218,
      "duration": 0.0161,
      "velocity": 94,
      "chip": "ym2612"
    },
    {
      "channel": 2,
      "note": 55,
      "start": 18.7229,
      "duration": 0.0161,
      "velocity": 100,
      "chip": "ym2612"
    },
    {
      "channel": 1,
      "note": 61,
      "start": 18.7354,
      "duration": 0.0161,
      "velocity": 124,
      "chip": "ym2612"
    },
    {
      "channel": 4,
      "note": 81,
      "start": 18.7368,
      "duration": 0.0166,
      "velocity": 94,
      "chip": "ym2612"
    },
    {
      "channel": 3,
      "note": 81,
      "start": 18.7379,
      "duration": 0.0166,
      "velocity": 94,
      "chip": "ym2612"
    },
    {
      "channel": 2,
      "note": 55,
      "start": 18.739,
      "duration": 0.0168,
      "velocity": 100,
      "chip": "ym2612"
    },
    {
      "channel": 1,
      "note": 60,
      "start": 18.7515,
      "duration": 0.0161,
      "velocity": 124,
      "chip": "ym2612"
    },
    {
      "channel": 4,
      "note": 81,
      "start": 18.7534,
      "duration": 0.0156,
      "velocity": 94,
      "chip": "ym2612"
    },
    {
      "channel": 3,
      "note": 81,
      "start": 18.7545,
      "duration": 0.0156,
      "velocity": 94,
      "chip": "ym2612"
    },
    {
      "channel": 2,
      "note": 55,
      "start": 18.756,
      "duration": 0.0154,
      "velocity": 100,
      "chip": "ym2612"
    },
    {
      "channel": 1,
      "note": 59,
      "start": 18.7676,
      "duration": 0.0161,
      "velocity": 124,
      "chip": "ym2612"
    },
    {
      "channel": 4,
      "note": 81,
      "start": 18.769,
      "duration": 0.016,
      "velocity": 94,
      "chip": "ym2612"
    },
    {
      "channel": 3,
      "note": 81,
      "start": 18.7702,
      "duration": 0.016,
      "velocity": 94,
      "chip": "ym2612"
    },
    {
      "channel": 2,
      "note": 55,
      "start": 18.7714,
      "duration": 0.016,
      "velocity": 100,
      "chip": "ym2612"
    },
    {
      "channel": 1,
      "note": 57,
      "start": 18.7836,
      "duration": 0.0162,
      "velocity": 124,
      "chip": "ym2612"
    },
    {
      "channel": 4,
      "note": 81,
      "start": 18.785,
      "duration": 0.0161,
      "velocity": 94,
      "chip": "ym2612"
    },
    {
      "channel": 3,
      "note": 81,
      "start": 18.7862,
      "duration": 0.0161,
      "velocity": 94,
      "chip": "ym2612"
    },
    {
      "channel": 2,
      "note": 55,
      "start": 18.7873,
      "duration": 0.0161,
      "velocity": 100,
      "chip": "ym2612"
    },
    {
      "channel": 1,
      "note": 56,
      "start": 18.7998,
      "duration": 0.0161,
      "velocity": 124,
      "chip": "ym2612"
    },
    {
      "channel": 4,
      "note": 81,
      "start": 18.8011,
      "duration": 0.0161,
      "velocity": 94,
      "chip": "ym2612"
    },
    {
      "channel": 3,
      "note": 81,
      "start": 18.8023,
      "duration": 0.0161,
      "velocity": 94,
      "chip": "ym2612"
    },
    {
      "channel": 2,
      "note": 55,
      "start": 18.8034,
      "duration": 0.0161,
      "velocity": 100,
      "chip": "ym2612"
    },
    {
      "channel": 1,
      "note": 55,
      "start": 18.8159,
      "duration": 0.0161,
      "velocity": 124,
      "chip": "ym2612"
    },
    {
      "channel": 4,
      "note": 81,
      "start": 18.8172,
      "duration": 0.0161,
      "velocity": 94,
      "chip": "ym2612"
    },
    {
      "channel": 3,
      "note": 81,
      "start": 18.8184,
      "duration": 0.0161,
      "velocity": 94,
      "chip": "ym2612"
    },
    {
      "channel": 2,
      "note": 55,
      "start": 18.8195,
      "duration": 0.0161,
      "velocity": 100,
      "chip": "ym2612"
    },
    {
      "channel": 1,
      "note": 53,
      "start": 18.832,
      "duration": 0.0161,
      "velocity": 124,
      "chip": "ym2612"
    },
    {
      "channel": 4,
      "note": 81,
      "start": 18.8333,
      "duration": 0.0162,
      "velocity": 94,
      "chip": "ym2612"
    },
    {
      "channel": 3,
      "note": 81,
      "start": 18.8345,
      "duration": 0.0161,
      "velocity": 94,
      "chip": "ym2612"
    },
    {
      "channel": 2,
      "note": 55,
      "start": 18.8356,
      "duration": 0.0162,
      "velocity": 100,
      "chip": "ym2612"
    },
    {
      "channel": 1,
      "note": 52,
      "start": 18.8481,
      "duration": 0.0161,
      "velocity": 124,
      "chip": "ym2612"
    },
    {
      "channel": 4,
      "note": 81,
      "start": 18.8495,
      "duration": 0.0203,
      "velocity": 94,
      "chip": "ym2612"
    },
    {
      "channel": 3,
      "note": 81,
      "start": 18.8506,
      "duration": 0.0204,
      "velocity": 94,
      "chip": "ym2612"
    },
    {
      "channel": 2,
      "note": 55,
      "start": 18.8518,
      "duration": 0.0206,
      "velocity": 100,
      "chip": "ym2612"
    },
    {
      "channel": 1,
      "note": 51,
      "start": 18.8642,
      "duration": 0.0153,
      "velocity": 1,
      "chip": "ym2612"
    },
    {
      "channel": 0,
      "note": 36,
      "start": 18.8684,
      "duration": 0.015,
      "velocity": 115,
      "chip": "ym2612"
    },
    {
      "channel": 4,
      "note": 84,
      "start": 18.8698,
      "duration": 0.0148,
      "velocity": 94,
      "chip": "ym2612"
    },
    {
      "channel": 3,
      "note": 81,
      "start": 18.871,
      "duration": 0.0148,
      "velocity": 94,
      "chip": "ym2612"
    },
    {
      "channel": 2,
      "note": 55,
      "start": 18.8724,
      "duration": 0.0146,
      "velocity": 100,
      "chip": "ym2612"
    },
    {
      "channel": 1,
      "note": 51,
      "start": 18.8817,
      "duration": 0.0157,
      "velocity": 105,
      "chip": "ym2612"
    },
    {
      "channel": 0,
      "note": 36,
      "start": 18.8834,
      "duration": 0.0156,
      "velocity": 115,
      "chip": "ym2612"
    },
    {
      "channel": 4,
      "note": 84,
      "start": 18.8846,
      "duration": 0.0155,
      "velocity": 94,
      "chip": "ym2612"
    },
    {
      "channel": 3,
      "note": 81,
      "start": 18.8857,
      "duration": 0.0155,
      "velocity": 94,
      "chip": "ym2612"
    },
    {
      "channel": 2,
      "note": 55,
      "start": 18.8869,
      "duration": 0.0155,
      "velocity": 100,
      "chip": "ym2612"
    },
    {
      "channel": 1,
      "note": 105,
      "start": 18.8973,
      "duration": 0.0167,
      "velocity": 105,
      "chip": "ym2612"
    },
    {
      "channel": 0,
      "note": 37,
      "start": 18.899,
      "duration": 0.0167,
      "velocity": 115,
      "chip": "ym2612"
    },
    {
      "channel": 4,
      "note": 84,
      "start": 18.9001,
      "duration": 0.0167,
      "velocity": 94,
      "chip": "ym2612"
    },
    {
      "channel": 3,
      "note": 81,
      "start": 18.9013,
      "duration": 0.0167,
      "velocity": 94,
      "chip": "ym2612"
    },
    {
      "channel": 2,
      "note": 55,
      "start": 18.9024,
      "duration": 0.0167,
      "velocity": 100,
      "chip": "ym2612"
    },
    {
      "channel": 1,
      "note": 105,
      "start": 18.914,
      "duration": 0.0163,
      "velocity": 105,
      "chip": "ym2612"
    },
    {
      "channel": 0,
      "note": 37,
      "start": 18.9156,
      "duration": 0.0163,
      "velocity": 115,
      "chip": "ym2612"
    },
    {
      "channel": 4,
      "note": 84,
      "start": 18.9168,
      "duration": 0.0163,
      "velocity": 94,
      "chip": "ym2612"
    },
    {
      "channel": 3,
      "note": 81,
      "start": 18.9179,
      "duration": 0.0163,
      "velocity": 94,
      "chip": "ym2612"
    },
    {
      "channel": 2,
      "note": 55,
      "start": 18.9191,
      "duration": 0.0163,
      "velocity": 100,
      "chip": "ym2612"
    },
    {
      "channel": 1,
      "note": 105,
      "start": 18.9303,
      "duration": 0.0142,
      "velocity": 105,
      "chip": "ym2612"
    },
    {
      "channel": 0,
      "note": 38,
      "start": 18.9319,
      "duration": 0.0142,
      "velocity": 115,
      "chip": "ym2612"
    },
    {
      "channel": 4,
      "note": 84,
      "start": 18.9331,
      "duration": 0.0143,
      "velocity": 94,
      "chip": "ym2612"
    },
    {
      "channel": 3,
      "note": 81,
      "start": 18.9342,
      "duration": 0.0142,
      "velocity": 94,
      "chip": "ym2612"
    },
    {
      "channel": 2,
      "note": 55,
      "start": 18.9354,
      "duration": 0.0143,
      "velocity": 100,
      "chip": "ym2612"
    },
    {
      "channel": 1,
      "note": 105,
      "start": 18.9445,
      "duration": 0.0185,
      "velocity": 105,
      "chip": "ym2612"
    },
    {
      "channel": 0,
      "note": 38,
      "start": 18.9462,
      "duration": 0.0185,
      "velocity": 115,
      "chip": "ym2612"
    },
    {
      "channel": 4,
      "note": 84,
      "start": 18.9473,
      "duration": 0.0186,
      "velocity": 94,
      "chip": "ym2612"
    },
    {
      "channel": 3,
      "note": 81,
      "start": 18.9485,
      "duration": 0.0186,
      "velocity": 94,
      "chip": "ym2612"
    },
    {
      "channel": 2,
      "note": 55,
      "start": 18.9496,
      "duration": 0.0185,
      "velocity": 100,
      "chip": "ym2612"
    },
    {
      "channel": 1,
      "note": 105,
      "start": 18.963,
      "duration": 0.0178,
      "velocity": 124,
      "chip": "ym2612"
    },
    {
      "channel": 0,
      "note": 39,
      "start": 18.9647,
      "duration": 0.0197,
      "velocity": 115,
      "chip": "ym2612"
    },
    {
      "channel": 4,
      "note": 84,
      "start": 18.9659,
      "duration": 0.0197,
      "velocity": 94,
      "chip": "ym2612"
    },
    {
      "channel": 3,
      "note": 81,
      "start": 18.967,
      "duration": 0.0198,
      "velocity": 94,
      "chip": "ym2612"
    },
    {
      "channel": 2,
      "note": 55,
      "start": 18.9681,
      "duration": 0.0202,
      "velocity": 100,
      "chip": "ym2612"
    },
    {
      "channel": 1,
      "note": 64,
      "start": 18.9809,
      "duration": 0.0116,
      "velocity": 124,
      "chip": "ym2612"
    },
    {
      "channel": 0,
      "note": 36,
      "start": 18.9843,
      "duration": 0.0124,
      "velocity": 115,
      "chip": "ym2612"
    },
    {
      "channel": 4,
      "note": 84,
      "start": 18.9856,
      "duration": 0.0123,
      "velocity": 94,
      "chip": "ym2612"
    },
    {
      "channel": 3,
      "note": 84,
      "start": 18.9869,
      "duration": 0.0121,
      "velocity": 94,
      "chip": "ym2612"
    },
    {
      "channel": 2,
      "note": 55,
      "start": 18.9883,
      "duration": 0.0118,
      "velocity": 100,
      "chip": "ym2612"
    },
    {
      "channel": 1,
      "note": 64,
      "start": 18.9925,
      "duration": 0.016,
      "velocity": 124,
      "chip": "ym2612"
    },
    {
      "channel": 0,
      "note": 36,
      "start": 18.9967,
      "duration": 0.0139,
      "velocity": 115,
      "chip": "ym2612"
    },
    {
      "channel": 4,
      "note": 84,
      "start": 18.9978,
      "duration": 0.0139,
      "velocity": 94,
      "chip": "ym2612"
    },
    {
      "channel": 3,
      "note": 84,
      "start": 18.999,
      "duration": 0.0139,
      "velocity": 94,
      "chip": "ym2612"
    },
    {
      "channel": 2,
      "note": 55,
      "start": 19.0002,
      "duration": 0.0139,
      "velocity": 100,
      "chip": "ym2612"
    },
    {
      "channel": 1,
      "note": 64,
      "start": 19.0086,
      "duration": 0.0161,
      "velocity": 124,
      "chip": "ym2612"
    },
    {
      "channel": 0,
      "note": 37,
      "start": 19.0106,
      "duration": 0.0158,
      "velocity": 115,
      "chip": "ym2612"
    },
    {
      "channel": 4,
      "note": 84,
      "start": 19.0117,
      "duration": 0.0185,
      "velocity": 94,
      "chip": "ym2612"
    },
    {
      "channel": 3,
      "note": 84,
      "start": 19.0129,
      "duration": 0.0185,
      "velocity": 94,
      "chip": "ym2612"
    },
    {
      "channel": 2,
      "note": 55,
      "start": 19.014,
      "duration": 0.0185,
      "velocity": 100,
      "chip": "ym2612"
    },
    {
      "channel": 1,
      "note": 64,
      "start": 19.0247,
      "duration": 0.0161,
      "velocity": 124,
      "chip": "ym2612"
    },
    {
      "channel": 0,
      "note": 37,
      "start": 19.0264,
      "duration": 0.0161,
      "velocity": 115,
      "chip": "ym2612"
    },
    {
      "channel": 4,
      "note": 84,
      "start": 19.0303,
      "duration": 0.0161,
      "velocity": 94,
      "chip": "ym2612"
    },
    {
      "channel": 3,
      "note": 84,
      "start": 19.0314,
      "duration": 0.0161,
      "velocity": 94,
      "chip": "ym2612"
    },
    {
      "channel": 2,
      "note": 55,
      "start": 19.0326,
      "duration": 0.0161,
      "velocity": 100,
      "chip": "ym2612"
    },
    {
      "channel": 1,
      "note": 64,
      "start": 19.0408,
      "duration": 0.0161,
      "velocity": 124,
      "chip": "ym2612"
    },
    {
      "channel": 0,
      "note": 38,
      "start": 19.0425,
      "duration": 0.0161,
      "velocity": 115,
      "chip": "ym2612"
    },
    {
      "channel": 4,
      "note": 84,
      "start": 19.0463,
      "duration": 0.0134,
      "velocity": 94,
      "chip": "ym2612"
    },
    {
      "channel": 3,
      "note": 84,
      "start": 19.0475,
      "duration": 0.0158,
      "velocity": 94,
      "chip": "ym2612"
    },
    {
      "channel": 2,
      "note": 55,
      "start": 19.0486,
      "duration": 0.0158,
      "velocity": 100,
      "chip": "ym2612"
    },
    {
      "channel": 1,
      "note": 64,
      "start": 19.0569,
      "duration": 0.0161,
      "velocity": 124,
      "chip": "ym2612"
    },
    {
      "channel": 0,
      "note": 38,
      "start": 19.0586,
      "duration": 0.0161,
      "velocity": 115,
      "chip": "ym2612"
    },
    {
      "channel": 4,
      "note": 84,
      "start": 19.0597,
      "duration": 0.0161,
      "velocity": 94,
      "chip": "ym2612"
    },
    {
      "channel": 3,
      "note": 84,
      "start": 19.0633,
      "duration": 0.014,
      "velocity": 94,
      "chip": "ym2612"
    },
    {
      "channel": 2,
      "note": 55,
      "start": 19.0644,
      "duration": 0.014,
      "velocity": 100,
      "chip": "ym2612"
    },
    {
      "channel": 1,
      "note": 64,
      "start": 19.073,
      "duration": 0.0178,
      "velocity": 105,
      "chip": "ym2612"
    },
    {
      "channel": 0,
      "note": 39,
      "start": 19.0747,
      "duration": 0.0178,
      "velocity": 115,
      "chip": "ym2612"
    },
    {
      "channel": 4,
      "note": 84,
      "start": 19.0758,
      "duration": 0.0206,
      "velocity": 94,
      "chip": "ym2612"
    },
    {
      "channel": 3,
      "note": 84,
      "start": 19.0773,
      "duration": 0.0203,
      "velocity": 94,
      "chip": "ym2612"
    },
    {
      "channel": 2,
      "note": 55,
      "start": 19.0784,
      "duration": 0.0206,
      "velocity": 100,
      "chip": "ym2612"
    },
    {
      "channel": 1,
      "note": 105,
      "start": 19.0908,
      "duration": 0.0144,
      "velocity": 105,
      "chip": "ym2612"
    },
    {
      "channel": 0,
      "note": 39,
      "start": 19.0925,
      "duration": 0.0144,
      "velocity": 115,
      "chip": "ym2612"
    },
    {
      "channel": 4,
      "note": 84,
      "start": 19.0964,
      "duration": 0.0117,
      "velocity": 94,
      "chip": "ym2612"
    },
    {
      "channel": 3,
      "note": 84,
      "start": 19.0976,
      "duration": 0.0116,
      "velocity": 94,
      "chip": "ym2612"
    },
    {
      "channel": 2,
      "note": 55,
      "start": 19.099,
      "duration": 0.0142,
      "velocity": 100,
      "chip": "ym2612"
    },
    {
      "channel": 1,
      "note": 105,
      "start": 19.1053,
      "duration": 0.016,
      "velocity": 105,
      "chip": "ym2612"
    },
    {
      "channel": 0,
      "note": 40,
      "start": 19.1069,
      "duration": 0.016,
      "velocity": 115,
      "chip": "ym2612"
    },
    {
      "channel": 4,
      "note": 84,
      "start": 19.1081,
      "duration": 0.0161,
      "velocity": 94,
      "chip": "ym2612"
    },
    {
      "channel": 3,
      "note": 84,
      "start": 19.1092,
      "duration": 0.0161,
      "velocity": 94,
      "chip": "ym2612"
    },
    {
      "channel": 2,
      "note": 55,
      "start": 19.1132,
      "duration": 0.0132,
      "velocity": 100,
      "chip": "ym2612"
    },
    {
      "channel": 1,
      "note": 105,
      "start": 19.1213,
      "duration": 0.0161,
      "velocity": 105,
      "chip": "ym2612"
    },
    {
      "channel": 0,
      "note": 40,
      "start": 19.1229,
      "duration": 0.0161,
      "velocity": 115,
      "chip": "ym2612"
    },
    {
      "channel": 4,
      "note": 84,
      "start": 19.1241,
      "duration": 0.0161,
      "velocity": 94,
      "chip": "ym2612"
    },
    {
      "channel": 3,
      "note": 84,
      "start": 19.1253,
      "duration": 0.0161,
      "velocity": 94,
      "chip": "ym2612"
    },
    {
      "channel": 2,
      "note": 55,
      "start": 19.1264,
      "duration": 0.0161,
      "velocity": 100,
      "chip": "ym2612"
    },
    {
      "channel": 1,
      "note": 105,
      "start": 19.1374,
      "duration": 0.0161,
      "velocity": 105,
      "chip": "ym2612"
    },
    {
      "channel": 0,
      "note": 40,
      "start": 19.139,
      "duration": 0.0161,
      "velocity": 115,
      "chip": "ym2612"
    },
    {
      "channel": 4,
      "note": 84,
      "start": 19.1402,
      "duration": 0.0161,
      "velocity": 94,
      "chip": "ym2612"
    },
    {
      "channel": 3,
      "note": 84,
      "start": 19.1414,
      "duration": 0.0161,
      "velocity": 94,
      "chip": "ym2612"
    },
    {
      "channel": 2,
      "note": 55,
      "start": 19.1425,
      "duration": 0.0161,
      "velocity": 100,
      "chip": "ym2612"
    },
    {
      "channel": 1,
      "note": 105,
      "start": 19.1535,
      "duration": 0.0161,
      "velocity": 105,
      "chip": "ym2612"
    },
    {
      "channel": 0,
      "note": 41,
      "start": 19.1551,
      "duration": 0.0161,
      "velocity": 115,
      "chip": "ym2612"
    },
    {
      "channel": 4,
      "note": 84,
      "start": 19.1563,
      "duration": 0.0161,
      "velocity": 94,
      "chip": "ym2612"
    },
    {
      "channel": 3,
      "note": 84,
      "start": 19.1575,
      "duration": 0.0161,
      "velocity": 94,
      "chip": "ym2612"
    },
    {
      "channel": 2,
      "note": 55,
      "start": 19.1586,
      "duration": 0.0161,
      "velocity": 100,
      "chip": "ym2612"
    },
    {
      "channel": 1,
      "note": 105,
      "start": 19.1696,
      "duration": 0.0161,
      "velocity": 105,
      "chip": "ym2612"
    },
    {
      "channel": 0,
      "note": 41,
      "start": 19.1712,
      "duration": 0.0161,
      "velocity": 115,
      "chip": "ym2612"
    },
    {
      "channel": 4,
      "note": 84,
      "start": 19.1724,
      "duration": 0.0161,
      "velocity": 94,
      "chip": "ym2612"
    },
    {
      "channel": 3,
      "note": 84,
      "start": 19.1736,
      "duration": 0.0161,
      "velocity": 94,
      "chip": "ym2612"
    },
    {
      "channel": 2,
      "note": 55,
      "start": 19.1747,
      "duration": 0.0161,
      "velocity": 100,
      "chip": "ym2612"
    },
    {
      "channel": 1,
      "note": 105,
      "start": 19.1857,
      "duration": 0.0178,
      "velocity": 124,
      "chip": "ym2612"
    },
    {
      "channel": 0,
      "note": 42,
      "start": 19.1873,
      "duration": 0.0179,
      "velocity": 115,
      "chip": "ym2612"
    },
    {
      "channel": 4,
      "note": 84,
      "start": 19.1885,
      "duration": 0.0179,
      "velocity": 94,
      "chip": "ym2612"
    },
    {
      "channel": 3,
      "note": 84,
      "start": 19.1897,
      "duration": 0.0179,
      "velocity": 94,
      "chip": "ym2612"
    },
    {
      "channel": 2,
      "note": 55,
      "start": 19.1908,
      "duration": 0.0182,
      "velocity": 100,
      "chip": "ym2612"
    },
    {
      "channel": 1,
      "note": 64,
      "start": 19.2035,
      "duration": 0.0144,
      "velocity": 124,
      "chip": "ym2612"
    },
    {
      "channel": 0,
      "note": 42,
      "start": 19.2052,
      "duration": 0.0144,
      "velocity": 115,
      "chip": "ym2612"
    },
    {
      "channel": 4,
      "note": 84,
      "start": 19.2064,
      "duration": 0.0144,
      "velocity": 94,
      "chip": "ym2612"
    },
    {
      "channel": 3,
      "note": 84,
      "start": 19.2076,
      "duration": 0.0144,
      "velocity": 94,
      "chip": "ym2612"
    },
    {
      "channel": 2,
      "note": 55,
      "start": 19.209,
      "duration": 0.0142,
      "velocity": 100,
      "chip": "ym2612"
    },
    {
      "channel": 1,
      "note": 64,
      "start": 19.218,
      "duration": 0.016,
      "velocity": 124,
      "chip": "ym2612"
    },
    {
      "channel": 0,
      "note": 43,
      "start": 19.2196,
      "duration": 0.016,
      "velocity": 115,
      "chip": "ym2612"
    },
    {
      "channel": 4,
      "note": 84,
      "start": 19.2208,
      "duration": 0.016,
      "velocity": 94,
      "chip": "ym2612"
    },
    {
      "channel": 3,
      "note": 84,
      "start": 19.2219,
      "duration": 0.016,
      "velocity": 94,
      "chip": "ym2612"
    },
    {
      "channel": 2,
      "note": 55,
      "start": 19.2232,
      "duration": 0.016,
      "velocity": 100,
      "chip": "ym2612"
    },
    {
      "channel": 1,
      "note": 64,
      "start": 19.234,
      "duration": 0.0161,
      "velocity": 124,
      "chip": "ym2612"
    },
    {
      "channel": 0,
      "note": 43,
      "start": 19.2357,
      "duration": 0.0161,
      "velocity": 115,
      "chip": "ym2612"
    },
    {
      "channel": 4,
      "note": 84,
      "start": 19.2368,
      "duration": 0.0161,
      "velocity": 94,
      "chip": "ym2612"
    },
    {
      "channel": 3,
      "note": 84,
      "start": 19.238,
      "duration": 0.0162,
      "velocity": 94,
      "chip": "ym2612"
    },
    {
      "channel": 2,
      "note": 55,
      "start": 19.2391,
      "duration": 0.0161,
      "velocity": 100,
      "chip": "ym2612"
    },
    {
      "channel": 1,
      "note": 64,
      "start": 19.2501,
      "duration": 0.0161,
      "velocity": 124,
      "chip": "ym2612"
    },
    {
      "channel": 0,
      "note": 44,
      "start": 19.2518,
      "duration": 0.0161,
      "velocity": 115,
      "chip": "ym2612"
    },
    {
      "channel": 4,
      "note": 84,
      "start": 19.253,
      "duration": 0.0161,
      "velocity": 94,
      "chip": "ym2612"
    },
    {
      "channel": 3,
      "note": 84,
      "start": 19.2541,
      "duration": 0.0161,
      "velocity": 94,
      "chip": "ym2612"
    },
    {
      "channel": 2,
      "note": 55,
      "start": 19.2552,
      "duration": 0.0161,
      "velocity": 100,
      "chip": "ym2612"
    },
    {
      "channel": 1,
      "note": 64,
      "start": 19.2662,
      "duration": 0.0161,
      "velocity": 124,
      "chip": "ym2612"
    },
    {
      "channel": 0,
      "note": 44,
      "start": 19.2679,
      "duration": 0.0161,
      "velocity": 115,
      "chip": "ym2612"
    },
    {
      "channel": 4,
      "note": 84,
      "start": 19.2691,
      "duration": 0.0161,
      "velocity": 94,
      "chip": "ym2612"
    },
    {
      "channel": 3,
      "note": 84,
      "start": 19.2702,
      "duration": 0.0161,
      "velocity": 94,
      "chip": "ym2612"
    },
    {
      "channel": 2,
      "note": 55,
      "start": 19.2713,
      "duration": 0.0161,
      "velocity": 100,
      "chip": "ym2612"
    },
    {
      "channel": 1,
      "note": 64,
      "start": 19.2823,
      "duration": 0.0161,
      "velocity": 124,
      "chip": "ym2612"
    },
    {
      "channel": 0,
      "note": 44,
      "start": 19.2839,
      "duration": 0.0161,
      "velocity": 115,
      "chip": "ym2612"
    },
    {
      "channel": 4,
      "note": 84,
      "start": 19.2852,
      "duration": 0.0161,
      "velocity": 94,
      "chip": "ym2612"
    },
    {
      "channel": 3,
      "note": 84,
      "start": 19.2863,
      "duration": 0.0161,
      "velocity": 94,
      "chip": "ym2612"
    },
    {
      "channel": 2,
      "note": 55,
      "start": 19.2874,
      "duration": 0.0161,
      "velocity": 100,
      "chip": "ym2612"
    },
    {
      "channel": 1,
      "note": 64,
      "start": 19.2984,
      "duration": 0.0178,
      "velocity": 105,
      "chip": "ym2612"
    },
    {
      "channel": 0,
      "note": 45,
      "start": 19.3,
      "duration": 0.0179,
      "velocity": 115,
      "chip": "ym2612"
    },
    {
      "channel": 4,
      "note": 84,
      "start": 19.3013,
      "duration": 0.0178,
      "velocity": 94,
      "chip": "ym2612"
    },
    {
      "channel": 3,
      "note": 84,
      "start": 19.3024,
      "duration": 0.0178,
      "velocity": 94,
      "chip": "ym2612"
    },
    {
      "channel": 2,
      "note": 55,
      "start": 19.3035,
      "duration": 0.0181,
      "velocity": 100,
      "chip": "ym2612"
    },
    {
      "channel": 1,
      "note": 105,
      "start": 19.3162,
      "duration": 0.0144,
      "velocity": 105,
      "chip": "ym2612"
    },
    {
      "channel": 0,
      "note": 45,
      "start": 19.3179,
      "duration": 0.0144,
      "velocity": 115,
      "chip": "ym2612"
    },
    {
      "channel": 4,
      "note": 84,
      "start": 19.3191,
      "duration": 0.0144,
      "velocity": 94,
      "chip": "ym2612"
    },
    {
      "channel": 3,
      "note": 84,
      "start": 19.3202,
      "duration": 0.0144,
      "velocity": 94,
      "chip": "ym2612"
    },
    {
      "channel": 2,
      "note": 55,
      "start": 19.3217,
      "duration": 0.0141,
      "velocity": 100,
      "chip": "ym2612"
    },
    {
      "channel": 1,
      "note": 105,
      "start": 19.3307,
      "duration": 0.016,
      "velocity": 105,
      "chip": "ym2612"
    },
    {
      "channel": 0,
      "note": 46,
      "start": 19.3323,
      "duration": 0.016,
      "velocity": 115,
      "chip": "ym2612"
    },
    {
      "channel": 4,
      "note": 84,
      "start": 19.3335,
      "duration": 0.016,
      "velocity": 94,
      "chip": "ym2612"
    },
    {
      "channel": 3,
      "note": 84,
      "start": 19.3346,
      "duration": 0.016,
      "velocity": 94,
      "chip": "ym2612"
    },
    {
      "channel": 2,
      "note": 55,
      "start": 19.3358,
      "duration": 0.016,
      "velocity": 100,
      "chip": "ym2612"
    },
    {
      "channel": 1,
      "note": 105,
      "start": 19.3467,
      "duration": 0.0173,
      "velocity": 105,
      "chip": "ym2612"
    },
    {
      "channel": 0,
      "note": 46,
      "start": 19.3483,
      "duration": 0.0173,
      "velocity": 115,
      "chip": "ym2612"
    },
    {
      "channel": 4,
      "note": 84,
      "start": 19.3495,
      "duration": 0.0172,
      "velocity": 94,
      "chip": "ym2612"
    },
    {
      "channel": 3,
      "note": 84,
      "start": 19.3507,
      "duration": 0.0173,
      "velocity": 94,
      "chip": "ym2612"
    },
    {
      "channel": 2,
      "note": 55,
      "start": 19.3518,
      "duration": 0.0173,
      "velocity": 100,
      "chip": "ym2612"
    },
    {
      "channel": 1,
      "note": 105,
      "start": 19.364,
      "duration": 0.0167,
      "velocity": 105,
      "chip": "ym2612"
    },
    {
      "channel": 0,
      "note": 47,
      "start": 19.3656,
      "duration": 0.0167,
      "velocity": 115,
      "chip": "ym2612"
    },
    {
      "channel": 4,
      "note": 84,
      "start": 19.3668,
      "duration": 0.0167,
      "velocity": 94,
      "chip": "ym2612"
    },
    {
      "channel": 3,
      "note": 84,
      "start": 19.3679,
      "duration": 0.0167,
      "velocity": 94,
      "chip": "ym2612"
    },
    {
      "channel": 2,
      "note": 55,
      "start": 19.3691,
      "duration": 0.0167,
      "velocity": 100,
      "chip": "ym2612"
    },
    {
      "channel": 1,
      "note": 105,
      "start": 19.3807,
      "duration": 0.0163,
      "velocity": 105,
      "chip": "ym2612"
    },
    {
      "channel": 0,
      "note": 47,
      "start": 19.3823,
      "duration": 0.0163,
      "velocity": 115,
      "chip": "ym2612"
    },
    {
      "channel": 4,
      "note": 84,
      "start": 19.3834,
      "duration": 0.0163,
      "velocity": 94,
      "chip": "ym2612"
    },
    {
      "channel": 3,
      "note": 84,
      "start": 19.3846,
      "duration": 0.0163,
      "velocity": 94,
      "chip": "ym2612"
    },
    {
      "channel": 2,
      "note": 55,
      "start": 19.3857,
      "duration": 0.0163,
      "velocity": 100,
      "chip": "ym2612"
    },
    {
      "channel": 1,
      "note": 105,
      "start": 19.3969,
      "duration": 0.0145,
      "velocity": 105,
      "chip": "ym2612"
    },
    {
      "channel": 0,
      "note": 47,
      "start": 19.3986,
      "duration": 0.0145,
      "velocity": 115,
      "chip": "ym2612"
    },
    {
      "channel": 4,
      "note": 84,
      "start": 19.3997,
      "duration": 0.0146,
      "velocity": 94,
      "chip": "ym2612"
    },
    {
      "channel": 3,
      "note": 84,
      "start": 19.4009,
      "duration": 0.0146,
      "velocity": 94,
      "chip": "ym2612"
    },
    {
      "channel": 2,
      "note": 55,
      "start": 19.402,
      "duration": 0.0145,
      "velocity": 100,
      "chip": "ym2612"
    },
    {
      "channel": 1,
      "note": 105,
      "start": 19.4114,
      "duration": 0.0208,
      "velocity": 124,
      "chip": "ym2612"
    },
    {
      "channel": 0,
      "note": 48,
      "start": 19.4131,
      "duration": 0.0216,
      "velocity": 115,
      "chip": "ym2612"
    },
    {
      "channel": 4,
      "note": 84,
      "start": 19.4143,
      "duration": 0.0215,
      "velocity": 94,
      "chip": "ym2612"
    },
    {
      "channel": 3,
      "note": 84,
      "start": 19.4154,
      "duration": 0.0215,
      "velocity": 94,
      "chip": "ym2612"
    },
    {
      "channel": 2,
      "note": 55,
      "start": 19.4165,
      "duration": 0.0218,
      "velocity": 100,
      "chip": "ym2612"
    },
    {
      "channel": 1,
      "note": 78,
      "start": 19.4322,
      "duration": 0.0144,
      "velocity": 124,
      "chip": "ym2612"
    },
    {
      "channel": 0,
      "note": 48,
      "start": 19.4346,
      "duration": 0.0139,
      "velocity": 115,
      "chip": "ym2612"
    },
    {
      "channel": 4,
      "note": 84,
      "start": 19.4358,
      "duration": 0.0139,
      "velocity": 94,
      "chip": "ym2612"
    },
    {
      "channel": 3,
      "note": 84,
      "start": 19.4369,
      "duration": 0.0139,
      "velocity": 94,
      "chip": "ym2612"
    },
    {
      "channel": 2,
      "note": 55,
      "start": 19.4384,
      "duration": 0.0136,
      "velocity": 100,
      "chip": "ym2612"
    },
    {
      "channel": 1,
      "note": 76,
      "start": 19.4466,
      "duration": 0.0156,
      "velocity": 124,
      "chip": "ym2612"
    },
    {
      "channel": 0,
      "note": 49,
      "start": 19.4485,
      "duration": 0.0149,
      "velocity": 1,
      "chip": "ym2612"
    },
    {
      "channel": 4,
      "note": 84,
      "start": 19.4497,
      "duration": 0.0148,
      "velocity": 94,
      "chip": "ym2612"
    },
    {
      "channel": 3,
      "note": 84,
      "start": 19.4509,
      "duration": 0.0148,
      "velocity": 94,
      "chip": "ym2612"
    },
    {
      "channel": 2,
      "note": 55,
      "start": 19.452,
      "duration": 0.0148,
      "velocity": 100,
      "chip": "ym2612"
    },
    {
      "channel": 1,
      "note": 75,
      "start": 19.4623,
      "duration": 0.0137,
      "velocity": 124,
      "chip": "ym2612"
    },
    {
      "channel": 4,
      "note": 84,
      "start": 19.4646,
      "duration": 0.0132,
      "velocity": 94,
      "chip": "ym2612"
    },
    {
      "channel": 3,
      "note": 84,
      "start": 19.4657,
      "duration": 0.0132,
      "velocity": 94,
      "chip": "ym2612"
    },
    {
      "channel": 2,
      "note": 55,
      "start": 19.4668,
      "duration": 0.0132,
      "velocity": 100,
      "chip": "ym2612"
    },
    {
      "channel": 1,
      "note": 74,
      "start": 19.476,
      "duration": 0.0161,
      "velocity": 124,
      "chip": "ym2612"
    },
    {
      "channel": 4,
      "note": 84,
      "start": 19.4777,
      "duration": 0.0185,
      "velocity": 94,
      "chip": "ym2612"
    },
    {
      "channel": 3,
      "note": 84,
      "start": 19.4789,
      "duration": 0.0185,
      "velocity": 94,
      "chip": "ym2612"
    },
    {
      "channel": 2,
      "note": 55,
      "start": 19.48,
      "duration": 0.0185,
      "velocity": 100,
      "chip": "ym2612"
    },
    {
      "channel": 1,
      "note": 72,
      "start": 19.4921,
      "duration": 0.0161,
      "velocity": 124,
      "chip": "ym2612"
    },
    {
      "channel": 4,
      "note": 84,
      "start": 19.4962,
      "duration": 0.0134,
      "velocity": 94,
      "chip": "ym2612"
    },
    {
      "channel": 3,
      "note": 84,
      "start": 19.4974,
      "duration": 0.0161,
      "velocity": 94,
      "chip": "ym2612"
    },
    {
      "channel": 2,
      "note": 55,
      "start": 19.4985,
      "duration": 0.0161,
      "velocity": 100,
      "chip": "ym2612"
    },
    {
      "channel": 1,
      "note": 71,
      "start": 19.5082,
      "duration": 0.0161,
      "velocity": 124,
      "chip": "ym2612"
    },
    {
      "channel": 4,
      "note": 84,
      "start": 19.5096,
      "duration": 0.0161,
      "velocity": 94,
      "chip": "ym2612"
    },
    {
      "channel": 3,
      "note": 84,
      "start": 19.5135,
      "duration": 0.0158,
      "velocity": 94,
      "chip": "ym2612"
    },
    {
      "channel": 2,
      "note": 55,
      "start": 19.5146,
      "duration": 0.0157,
      "velocity": 100,
      "chip": "ym2612"
    },
    {
      "channel": 1,
      "note": 70,
      "start": 19.5243,
      "duration": 0.0162,
      "velocity": 124,
      "chip": "ym2612"
    },
    {
      "channel": 4,
      "note": 84,
      "start": 19.5257,
      "duration": 0.0169,
      "velocity": 94,
      "chip": "ym2612"
    },
    {
      "channel": 3,
      "note": 84,
      "start": 19.5293,
      "duration": 0.0148,
      "velocity": 94,
      "chip": "ym2612"
    },
    {
      "channel": 2,
      "note": 55,
      "start": 19.5303,
      "duration": 0.0151,
      "velocity": 100,
      "chip": "ym2612"
    },
    {
      "channel": 1,
      "note": 69,
      "start": 19.5405,
      "duration": 0.0161,
      "velocity": 124,
      "chip": "ym2612"
    },
    {
      "channel": 4,
      "note": 83,
      "start": 19.5426,
      "duration": 0.0154,
      "velocity": 94,
      "chip": "ym2612"
    },
    {
      "channel": 3,
      "note": 84,
      "start": 19.5441,
      "duration": 0.0151,
      "velocity": 94,
      "chip": "ym2612"
    },
    {
      "channel": 2,
      "note": 55,
      "start": 19.5455,
      "duration": 0.0176,
      "velocity": 100,
      "chip": "ym2612"
    },
    {
      "channel": 1,
      "note": 68,
      "start": 19.5565,
      "duration": 0.0161,
      "velocity": 124,
      "chip": "ym2612"
    },
    {
      "channel": 4,
      "note": 83,
      "start": 19.558,
      "duration": 0.016,
      "velocity": 94,
      "chip": "ym2612"
    },
    {
      "channel": 3,
      "note": 84,
      "start": 19.5591,
      "duration": 0.016,
      "velocity": 94,
      "chip": "ym2612"
    },
    {
      "channel": 2,
      "note": 55,
      "start": 19.5631,
      "duration": 0.0132,
      "velocity": 100,
      "chip": "ym2612"
    },
    {
      "channel": 1,
      "note": 66,
      "start": 19.5726,
      "duration": 0.0161,
      "velocity": 124,
      "chip": "ym2612"
    },
    {
      "channel": 4,
      "note": 83,
      "start": 19.574,
      "duration": 0.0161,
      "velocity": 94,
      "chip": "ym2612"
    },
    {
      "channel": 3,
      "note": 84,
      "start": 19.5752,
      "duration": 0.0161,
      "velocity": 94,
      "chip": "ym2612"
    },
    {
      "channel": 2,
      "note": 55,
      "start": 19.5763,
      "duration": 0.0161,
      "velocity": 100,
      "chip": "ym2612"
    },
    {
      "channel": 1,
      "note": 65,
      "start": 19.5887,
      "duration": 0.0161,
      "velocity": 124,
      "chip": "ym2612"
    },
    {
      "channel": 4,
      "note": 83,
      "start": 19.5901,
      "duration": 0.0161,
      "velocity": 94,
      "chip": "ym2612"
    },
    {
      "channel": 3,
      "note": 84,
      "start": 19.5913,
      "duration": 0.0161,
      "velocity": 94,
      "chip": "ym2612"
    },
    {
      "channel": 2,
      "note": 55,
      "start": 19.5924,
      "duration": 0.0161,
      "velocity": 100,
      "chip": "ym2612"
    },
    {
      "channel": 1,
      "note": 64,
      "start": 19.6048,
      "duration": 0.0161,
      "velocity": 124,
      "chip": "ym2612"
    },
    {
      "channel": 4,
      "note": 83,
      "start": 19.6062,
      "duration": 0.0161,
      "velocity": 94,
      "chip": "ym2612"
    },
    {
      "channel": 3,
      "note": 84,
      "start": 19.6074,
      "duration": 0.0161,
      "velocity": 94,
      "chip": "ym2612"
    },
    {
      "channel": 2,
      "note": 55,
      "start": 19.6085,
      "duration": 0.0161,
      "velocity": 100,
      "chip": "ym2612"
    },
    {
      "channel": 1,
      "note": 62,
      "start": 19.6209,
      "duration": 0.0161,
      "velocity": 124,
      "chip": "ym2612"
    },
    {
      "channel": 4,
      "note": 83,
      "start": 19.6223,
      "duration": 0.0161,
      "velocity": 94,
      "chip": "ym2612"
    },
    {
      "channel": 3,
      "note": 84,
      "start": 19.6235,
      "duration": 0.0161,
      "velocity": 94,
      "chip": "ym2612"
    },
    {
      "channel": 2,
      "note": 55,
      "start": 19.6246,
      "duration": 0.0161,
      "velocity": 100,
      "chip": "ym2612"
    },
    {
      "channel": 1,
      "note": 61,
      "start": 19.637,
      "duration": 0.0161,
      "velocity": 124,
      "chip": "ym2612"
    },
    {
      "channel": 4,
      "note": 83,
      "start": 19.6384,
      "duration": 0.0166,
      "velocity": 94,
      "chip": "ym2612"
    },
    {
      "channel": 3,
      "note": 84,
      "start": 19.6395,
      "duration": 0.0169,
      "velocity": 94,
      "chip": "ym2612"
    },
    {
      "channel": 2,
      "note": 55,
      "start": 19.6407,
      "duration": 0.0172,
      "velocity": 100,
      "chip": "ym2612"
    },
    {
      "channel": 1,
      "note": 60,
      "start": 19.6531,
      "duration": 0.0161,
      "velocity": 124,
      "chip": "ym2612"
    },
    {
      "channel": 4,
      "note": 83,
      "start": 19.655,
      "duration": 0.0156,
      "velocity": 94,
      "chip": "ym2612"
    },
    {
      "channel": 3,
      "note": 83,
      "start": 19.6565,
      "duration": 0.0154,
      "velocity": 94,
      "chip": "ym2612"
    },
    {
      "channel": 2,
      "note": 48,
      "start": 19.6579,
      "duration": 0.0151,
      "velocity": 100,
      "chip": "ym2612"
    },
    {
      "channel": 1,
      "note": 59,
      "start": 19.6692,
      "duration": 0.0161,
      "velocity": 124,
      "chip": "ym2612"
    },
    {
      "channel": 4,
      "note": 83,
      "start": 19.6707,
      "duration": 0.016,
      "velocity": 94,
      "chip": "ym2612"
    },
    {
      "channel": 3,
      "note": 83,
      "start": 19.6719,
      "duration": 0.016,
      "velocity": 94,
      "chip": "ym2612"
    },
    {
      "channel": 2,
      "note": 48,
      "start": 19.673,
      "duration": 0.016,
      "velocity": 100,
      "chip": "ym2612"
    },
    {
      "channel": 1,
      "note": 57,
      "start": 19.6854,
      "duration": 0.0161,
      "velocity": 124,
      "chip": "ym2612"
    },
    {
      "channel": 4,
      "note": 83,
      "start": 19.6867,
      "duration": 0.0161,
      "velocity": 94,
      "chip": "ym2612"
    },
    {
      "channel": 3,
      "note": 83,
      "start": 19.6878,
      "duration": 0.0161,
      "velocity": 94,
      "chip": "ym2612"
    },
    {
      "channel": 2,
      "note": 48,
      "start": 19.689,
      "duration": 0.0161,
      "velocity": 100,
      "chip": "ym2612"
    },
    {
      "channel": 1,
      "note": 56,
      "start": 19.7015,
      "duration": 0.0161,
      "velocity": 124,
      "chip": "ym2612"
    },
    {
      "channel": 4,
      "note": 83,
      "start": 19.7028,
      "duration": 0.0161,
      "velocity": 94,
      "chip": "ym2612"
    },
    {
      "channel": 3,
      "note": 83,
      "start": 19.7039,
      "duration": 0.0162,
      "velocity": 94,
      "chip": "ym2612"
    },
    {
      "channel": 2,
      "note": 48,
      "start": 19.7051,
      "duration": 0.0161,
      "velocity": 100,
      "chip": "ym2612"
    },
    {
      "channel": 1,
      "note": 55,
      "start": 19.7176,
      "duration": 0.0161,
      "velocity": 124,
      "chip": "ym2612"
    },
    {
      "channel": 4,
      "note": 83,
      "start": 19.7189,
      "duration": 0.0161,
      "velocity": 94,
      "chip": "ym2612"
    },
    {
      "channel": 3,
      "note": 83,
      "start": 19.7201,
      "duration": 0.0161,
      "velocity": 94,
      "chip": "ym2612"
    },
    {
      "channel": 2,
      "note": 48,
      "start": 19.7212,
      "duration": 0.0161,
      "velocity": 100,
      "chip": "ym2612"
    },
    {
      "channel": 1,
      "note": 53,
      "start": 19.7336,
      "duration": 0.0161,
      "velocity": 124,
      "chip": "ym2612"
    },
    {
      "channel": 4,
      "note": 83,
      "start": 19.735,
      "duration": 0.0161,
      "velocity": 94,
      "chip": "ym2612"
    },
    {
      "channel": 3,
      "note": 83,
      "start": 19.7362,
      "duration": 0.0161,
      "velocity": 94,
      "chip": "ym2612"
    },
    {
      "channel": 2,
      "note": 48,
      "start": 19.7373,
      "duration": 0.0161,
      "velocity": 100,
      "chip": "ym2612"
    },
    {
      "channel": 1,
      "note": 52,
      "start": 19.7497,
      "duration": 0.0161,
      "velocity": 124,
      "chip": "ym2612"
    },
    {
      "channel": 4,
      "note": 83,
      "start": 19.7511,
      "duration": 0.0201,
      "velocity": 94,
      "chip": "ym2612"
    },
    {
      "channel": 3,
      "note": 83,
      "start": 19.7523,
      "duration": 0.0201,
      "velocity": 94,
      "chip": "ym2612"
    },
    {
      "channel": 2,
      "note": 48,
      "start": 19.7534,
      "duration": 0.0203,
      "velocity": 100,
      "chip": "ym2612"
    },
    {
      "channel": 1,
      "note": 51,
      "start": 19.7658,
      "duration": 0.0153,
      "velocity": 1,
      "chip": "ym2612"
    },
    {
      "channel": 0,
      "note": 78,
      "start": 19.7701,
      "duration": 0.0149,
      "velocity": 127,
      "chip": "ym2612"
    },
    {
      "channel": 4,
      "note": 83,
      "start": 19.7712,
      "duration": 0.015,
      "velocity": 94,
      "chip": "ym2612"
    },
    {
      "channel": 3,
      "note": 83,
      "start": 19.7724,
      "duration": 0.0149,
      "velocity": 94,
      "chip": "ym2612"
    },
    {
      "channel": 2,
      "note": 48,
      "start": 19.7738,
      "duration": 0.0147,
      "velocity": 100,
      "chip": "ym2612"
    },
    {
      "channel": 1,
      "note": 51,
      "start": 19.7833,
      "duration": 0.0142,
      "velocity": 105,
      "chip": "ym2612"
    },
    {
      "channel": 0,
      "note": 76,
      "start": 19.785,
      "duration": 0.0142,
      "velocity": 127,
      "chip": "ym2612"
    },
    {
      "channel": 4,
      "note": 83,
      "start": 19.7862,
      "duration": 0.0142,
      "velocity": 94,
      "chip": "ym2612"
    },
    {
      "channel": 3,
      "note": 83,
      "start": 19.7873,
      "duration": 0.0142,
      "velocity": 94,
      "chip": "ym2612"
    },
    {
      "channel": 2,
      "note": 48,
      "start": 19.7885,
      "duration": 0.0141,
      "velocity": 100,
      "chip": "ym2612"
    },
    {
      "channel": 1,
      "note": 105,
      "start": 19.7975,
      "duration": 0.0162,
      "velocity": 105,
      "chip": "ym2612"
    },
    {
      "channel": 0,
      "note": 75,
      "start": 19.7992,
      "duration": 0.0161,
      "velocity": 127,
      "chip": "ym2612"
    },
    {
      "channel": 4,
      "note": 83,
      "start": 19.8004,
      "duration": 0.0161,
      "velocity": 94,
      "chip": "ym2612"
    },
    {
      "channel": 3,
      "note": 83,
      "start": 19.8015,
      "duration": 0.0161,
      "velocity": 94,
      "chip": "ym2612"
    },
    {
      "channel": 2,
      "note": 48,
      "start": 19.8027,
      "duration": 0.0161,
      "velocity": 100,
      "chip": "ym2612"
    },
    {
      "channel": 1,
      "note": 105,
      "start": 19.8137,
      "duration": 0.017,
      "velocity": 105,
      "chip": "ym2612"
    },
    {
      "channel": 0,
      "note": 73,
      "start": 19.8153,
      "duration": 0.017,
      "velocity": 127,
      "chip": "ym2612"
    },
    {
      "channel": 4,
      "note": 83,
      "start": 19.8165,
      "duration": 0.017,
      "velocity": 94,
      "chip": "ym2612"
    },
    {
      "channel": 3,
      "note": 83,
      "start": 19.8176,
      "duration": 0.017,
      "velocity": 94,
      "chip": "ym2612"
    },
    {
      "channel": 2,
      "note": 48,
      "start": 19.8188,
      "duration": 0.017,
      "velocity": 100,
      "chip": "ym2612"
    },
    {
      "channel": 1,
      "note": 105,
      "start": 19.8307,
      "duration": 0.0167,
      "velocity": 105,
      "chip": "ym2612"
    },
    {
      "channel": 0,
      "note": 71,
      "start": 19.8323,
      "duration": 0.0167,
      "velocity": 127,
      "chip": "ym2612"
    },
    {
      "channel": 4,
      "note": 83,
      "start": 19.8334,
      "duration": 0.0167,
      "velocity": 94,
      "chip": "ym2612"
    },
    {
      "channel": 3,
      "note": 83,
      "start": 19.8346,
      "duration": 0.0167,
      "velocity": 94,
      "chip": "ym2612"
    },
    {
      "channel": 2,
      "note": 48,
      "start": 19.8357,
      "duration": 0.0167,
      "velocity": 100,
      "chip": "ym2612"
    },
    {
      "channel": 1,
      "note": 105,
      "start": 19.8473,
      "duration": 0.0163,
      "velocity": 105,
      "chip": "ym2612"
    },
    {
      "channel": 0,
      "note": 70,
      "start": 19.849,
      "duration": 0.0163,
      "velocity": 127,
      "chip": "ym2612"
    },
    {
      "channel": 4,
      "note": 83,
      "start": 19.8501,
      "duration": 0.0163,
      "velocity": 94,
      "chip": "ym2612"
    },
    {
      "channel": 3,
      "note": 83,
      "start": 19.8513,
      "duration": 0.0163,
      "velocity": 94,
      "chip": "ym2612"
    },
    {
      "channel": 2,
      "note": 48,
      "start": 19.8524,
      "duration": 0.0163,
      "velocity": 100,
      "chip": "ym2612"
    },
    {
      "channel": 1,
      "note": 105,
      "start": 19.8636,
      "duration": 0.0163,
      "velocity": 124,
      "chip": "ym2612"
    },
    {
      "channel": 0,
      "note": 68,
      "start": 19.8653,
      "duration": 0.0182,
      "velocity": 115,
      "chip": "ym2612"
    },
    {
      "channel": 4,
      "note": 83,
      "start": 19.8664,
      "duration": 0.0183,
      "velocity": 94,
      "chip": "ym2612"
    },
    {
      "channel": 3,
      "note": 83,
      "start": 19.8676,
      "duration": 0.0183,
      "velocity": 94,
      "chip": "ym2612"
    },
    {
      "channel": 2,
      "note": 48,
      "start": 19.8687,
      "duration": 0.0185,
      "velocity": 100,
      "chip": "ym2612"
    },
    {
      "channel": 1,
      "note": 64,
      "start": 19.88,
      "duration": 0.0169,
      "velocity": 124,
      "chip": "ym2612"
    },
    {
      "channel": 0,
      "note": 36,
      "start": 19.8834,
      "duration": 0.0153,
      "velocity": 115,
      "chip": "ym2612"
    },
    {
      "channel": 4,
      "note": 83,
      "start": 19.8846,
      "duration": 0.0152,
      "velocity": 94,
      "chip": "ym2612"
    },
    {
      "channel": 3,
      "note": 83,
      "start": 19.8858,
      "duration": 0.0152,
      "velocity": 94,
      "chip": "ym2612"
    },
    {
      "channel": 2,
      "note": 50,
      "start": 19.8872,
      "duration": 0.015,
      "velocity": 100,
      "chip": "ym2612"
    },
    {
      "channel": 1,
      "note": 64,
      "start": 19.8969,
      "duration": 0.0161,
      "velocity": 124,
      "chip": "ym2612"
    },
    {
      "channel": 0,
      "note": 36,
      "start": 19.8987,
      "duration": 0.016,
      "velocity": 115,
      "chip": "ym2612"
    },
    {
      "channel": 4,
      "note": 83,
      "start": 19.8999,
      "duration": 0.016,
      "velocity": 94,
      "chip": "ym2612"
    },
    {
      "channel": 3,
      "note": 83,
      "start": 19.901,
      "duration": 0.016,
      "velocity": 94,
      "chip": "ym2612"
    },
    {
      "channel": 2,
      "note": 50,
      "start": 19.9022,
      "duration": 0.0159,
      "velocity": 100,
      "chip": "ym2612"
    },
    {
      "channel": 1,
      "note": 64,
      "start": 19.913,
      "duration": 0.0133,
      "velocity": 124,
      "chip": "ym2612"
    },
    {
      "channel": 0,
      "note": 37,
      "start": 19.9147,
      "duration": 0.0157,
      "velocity": 115,
      "chip": "ym2612"
    },
    {
      "channel": 4,
      "note": 83,
      "start": 19.9158,
      "duration": 0.0158,
      "velocity": 94,
      "chip": "ym2612"
    },
    {
      "channel": 3,
      "note": 83,
      "start": 19.917,
      "duration": 0.0158,
      "velocity": 94,
      "chip": "ym2612"
    },
    {
      "channel": 2,
      "note": 50,
      "start": 19.9181,
      "duration": 0.0157,
      "velocity": 100,
      "chip": "ym2612"
    },
    {
      "channel": 1,
      "note": 64,
      "start": 19.9263,
      "duration": 0.0161,
      "velocity": 124,
      "chip": "ym2612"
    },
    {
      "channel": 0,
      "note": 37,
      "start": 19.9304,
      "duration": 0.0141,
      "velocity": 115,
      "chip": "ym2612"
    },
    {
      "channel": 4,
      "note": 83,
      "start": 19.9316,
      "duration": 0.014,
      "velocity": 94,
      "chip": "ym2612"
    },
    {
      "channel": 3,
      "note": 83,
      "start": 19.9327,
      "duration": 0.014,
      "velocity": 94,
      "chip": "ym2612"
    },
    {
      "channel": 2,
      "note": 50,
      "start": 19.9338,
      "duration": 0.0141,
      "velocity": 100,
      "chip": "ym2612"
    },
    {
      "channel": 1,
      "note": 64,
      "start": 19.9425,
      "duration": 0.0161,
      "velocity": 124,
      "chip": "ym2612"
    },
    {
      "channel": 0,
      "note": 38,
      "start": 19.9444,
      "duration": 0.0185,
      "velocity": 115,
      "chip": "ym2612"
    },
    {
      "channel": 4,
      "note": 83,
      "start": 19.9456,
      "duration": 0.0186,
      "velocity": 94,
      "chip": "ym2612"
    },
    {
      "channel": 3,
      "note": 83,
      "start": 19.9467,
      "duration": 0.0186,
      "velocity": 94,
      "chip": "ym2612"
    },
    {
      "channel": 2,
      "note": 50,
      "start": 19.9479,
      "duration": 0.0185,
      "velocity": 100,
      "chip": "ym2612"
    },
    {
      "channel": 1,
      "note": 64,
      "start": 19.9586,
      "duration": 0.0161,
      "velocity": 124,
      "chip": "ym2612"
    },
    {
      "channel": 0,
      "note": 38,
      "start": 19.963,
      "duration": 0.0134,
      "velocity": 115,
      "chip": "ym2612"
    },
    {
      "channel": 4,
      "note": 83,
      "start": 19.9642,
      "duration": 0.0161,
      "velocity": 94,
      "chip": "ym2612"
    },
    {
      "channel": 3,
      "note": 83,
      "start": 19.9653,
      "duration": 0.0161,
      "velocity": 94,
      "chip": "ym2612"
    },
    {
      "channel": 2,
      "note": 50,
      "start": 19.9664,
      "duration": 0.0161,
      "velocity": 100,
      "chip": "ym2612"
    },
    {
      "channel": 1,
      "note": 64,
      "start": 19.9747,
      "duration": 0.0178,
      "velocity": 105,
      "chip": "ym2612"
    },
    {
      "channel": 0,
      "note": 39,
      "start": 19.9763,
      "duration": 0.0202,
      "velocity": 115,
      "chip": "ym2612"
    },
    {
      "channel": 4,
      "note": 83,
      "start": 19.9803,
      "duration": 0.0177,
      "velocity": 94,
      "chip": "ym2612"
    },
    {
      "channel": 3,
      "note": 83,
      "start": 19.9814,
      "duration": 0.0177,
      "velocity": 94,
      "chip": "ym2612"
    },
    {
      "channel": 2,
      "note": 50,
      "start": 19.9825,
      "duration": 0.018,
      "velocity": 100,
      "chip": "ym2612"
    },
    {
      "channel": 1,
      "note": 105,
      "start": 19.9925,
      "duration": 0.0144,
      "velocity": 105,
      "chip": "ym2612"
    },
    {
      "channel": 0,
      "note": 39,
      "start": 19.9966,
      "duration": 0.012,
      "velocity": 115,
      "chip": "ym2612"
    },
    {
      "channel": 4,
      "note": 83,
      "start": 19.998,
      "duration": 0.012,
      "velocity": 94,
      "chip": "ym2612"
    },
    {
      "channel": 3,
      "note": 83,
      "start": 19.9991,
      "duration": 0.0122,
      "velocity": 94,
      "chip": "ym2612"
    },
    {
      "channel": 2,
      "note": 50,
      "start": 20.0006,
      "duration": 0.0119,
      "velocity": 100,
      "chip": "ym2612"
    },
    {
      "channel": 1,
      "note": 105,
      "start": 20.0069,
      "duration": 0.016,
      "velocity": 105,
      "chip": "ym2612"
    },
    {
      "channel": 0,
      "note": 40,
      "start": 20.0086,
      "duration": 0.016,
      "velocity": 115,
      "chip": "ym2612"
    },
    {
      "channel": 4,
      "note": 83,
      "start": 20.0099,
      "duration": 0.0159,
      "velocity": 94,
      "chip": "ym2612"
    },
    {
      "channel": 3,
      "note": 83,
      "start": 20.0112,
      "duration": 0.0184,
      "velocity": 94,
      "chip": "ym2612"
    },
    {
      "channel": 2,
      "note": 50,
      "start": 20.0124,
      "duration": 0.0184,
      "velocity": 100,
      "chip": "ym2612"
    },
    {
      "channel": 1,
      "note": 105,
      "start": 20.0229,
      "duration": 0.0161,
      "velocity": 105,
      "chip": "ym2612"
    },
    {
      "channel": 0,
      "note": 40,
      "start": 20.0246,
      "duration": 0.0161,
      "velocity": 115,
      "chip": "ym2612"
    },
    {
      "channel": 4,
      "note": 83,
      "start": 20.0258,
      "duration": 0.0161,
      "velocity": 94,
      "chip": "ym2612"
    },
    {
      "channel": 3,
      "note": 83,
      "start": 20.0297,
      "duration": 0.0134,
      "velocity": 94,
      "chip": "ym2612"
    },
    {
      "channel": 2,
      "note": 50,
      "start": 20.0308,
      "duration": 0.0161,
      "velocity": 100,
      "chip": "ym2612"
    },
    {
      "channel": 1,
      "note": 105,
      "start": 20.039,
      "duration": 0.0161,
      "velocity": 105,
      "chip": "ym2612"
    },
    {
      "channel": 0,
      "note": 40,
      "start": 20.0407,
      "duration": 0.0161,
      "velocity": 115,
      "chip": "ym2612"
    },
    {
      "channel": 4,
      "note": 83,
      "start": 20.0419,
      "duration": 0.0161,
      "velocity": 94,
      "chip": "ym2612"
    },
    {
      "channel": 3,
      "note": 83,
      "start": 20.0431,
      "duration": 0.0161,
      "velocity": 94,
      "chip": "ym2612"
    },
    {
      "channel": 2,
      "note": 50,
      "start": 20.0469,
      "duration": 0.0157,
      "velocity": 100,
      "chip": "ym2612"
    },
    {
      "channel": 1,
      "note": 105,
      "start": 20.0551,
      "duration": 0.0161,
      "velocity": 105,
      "chip": "ym2612"
    },
    {
      "channel": 0,
      "note": 41,
      "start": 20.0568,
      "duration": 0.0161,
      "velocity": 115,
      "chip": "ym2612"
    },
    {
      "channel": 4,
      "note": 83,
      "start": 20.058,
      "duration": 0.0161,
      "velocity": 94,
      "chip": "ym2612"
    },
    {
      "channel": 3,
      "note": 83,
      "start": 20.0591,
      "duration": 0.0161,
      "velocity": 94,
      "chip": "ym2612"
    },
    {
      "channel": 2,
      "note": 50,
      "start": 20.0627,
      "duration": 0.0137,
      "velocity": 100,
      "chip": "ym2612"
    },
    {
      "channel": 1,
      "note": 105,
      "start": 20.0712,
      "duration": 0.0162,
      "velocity": 105,
      "chip": "ym2612"
    },
    {
      "channel": 0,
      "note": 41,
      "start": 20.0729,
      "duration": 0.0162,
      "velocity": 115,
      "chip": "ym2612"
    },
    {
      "channel": 4,
      "note": 83,
      "start": 20.0741,
      "duration": 0.0161,
      "velocity": 94,
      "chip": "ym2612"
    },
    {
      "channel": 3,
      "note": 83,
      "start": 20.0752,
      "duration": 0.0161,
      "velocity": 94,
      "chip": "ym2612"
    },
    {
      "channel": 2,
      "note": 50,
      "start": 20.0763,
      "duration": 0.0161,
      "velocity": 100,
      "chip": "ym2612"
    },
    {
      "channel": 1,
      "note": 105,
      "start": 20.0874,
      "duration": 0.0178,
      "velocity": 124,
      "chip": "ym2612"
    },
    {
      "channel": 0,
      "note": 42,
      "start": 20.089,
      "duration": 0.0178,
      "velocity": 115,
      "chip": "ym2612"
    },
    {
      "channel": 4,
      "note": 83,
      "start": 20.0902,
      "duration": 0.0179,
      "velocity": 94,
      "chip": "ym2612"
    },
    {
      "channel": 3,
      "note": 83,
      "start": 20.0913,
      "duration": 0.0181,
      "velocity": 94,
      "chip": "ym2612"
    },
    {
      "channel": 2,
      "note": 50,
      "start": 20.0925,
      "duration": 0.0211,
      "velocity": 100,
      "chip": "ym2612"
    },
    {
      "channel": 1,
      "note": 64,
      "start": 20.1052,
      "duration": 0.0144,
      "velocity": 124,
      "chip": "ym2612"
    },
    {
      "channel": 0,
      "note": 42,
      "start": 20.1068,
      "duration": 0.0144,
      "velocity": 115,
      "chip": "ym2612"
    },
    {
      "channel": 4,
      "note": 83,
      "start": 20.1081,
      "duration": 0.0144,
      "velocity": 94,
      "chip": "ym2612"
    },
    {
      "channel": 3,
      "note": 83,
      "start": 20.1095,
      "duration": 0.0142,
      "velocity": 94,
      "chip": "ym2612"
    },
    {
      "channel": 2,
      "note": 50,
      "start": 20.1137,
      "duration": 0.0112,
      "velocity": 100,
      "chip": "ym2612"
    },
    {
      "channel": 1,
      "note": 64,
      "start": 20.1196,
      "duration": 0.016,
      "velocity": 124,
      "chip": "ym2612"
    },
    {
      "channel": 0,
      "note": 43,
      "start": 20.1213,
      "duration": 0.016,
      "velocity": 115,
      "chip": "ym2612"
    },
    {
      "channel": 4,
      "note": 83,
      "start": 20.1224,
      "duration": 0.016,
      "velocity": 94,
      "chip": "ym2612"
    },
    {
      "channel": 3,
      "note": 83,
      "start": 20.1237,
      "duration": 0.016,
      "velocity": 94,
      "chip": "ym2612"
    },
    {
      "channel": 2,
      "note": 50,
      "start": 20.1249,
      "duration": 0.0159,
      "velocity": 100,
      "chip": "ym2612"
    },
    {
      "channel": 1,
      "note": 64,
      "start": 20.1357,
      "duration": 0.0161,
      "velocity": 124,
      "chip": "ym2612"
    },
    {
      "channel": 0,
      "note": 43,
      "start": 20.1373,
      "duration": 0.0161,
      "velocity": 115,
      "chip": "ym2612"
    },
    {
      "channel": 4,
      "note": 83,
      "start": 20.1385,
      "duration": 0.0161,
      "velocity": 94,
      "chip": "ym2612"
    },
    {
      "channel": 3,
      "note": 83,
      "start": 20.1396,
      "duration": 0.0162,
      "velocity": 94,
      "chip": "ym2612"
    },
    {
      "channel": 2,
      "note": 50,
      "start": 20.1408,
      "duration": 0.0161,
      "velocity": 100,
      "chip": "ym2612"
    },
    {
      "channel": 1,
      "note": 64,
      "start": 20.1518,
      "duration": 0.0161,
      "velocity": 124,
      "chip": "ym2612"
    },
    {
      "channel": 0,
      "note": 44,
      "start": 20.1534,
      "duration": 0.0161,
      "velocity": 115,
      "chip": "ym2612"
    },
    {
      "channel": 4,
      "note": 83,
      "start": 20.1546,
      "duration": 0.0161,
      "velocity": 94,
      "chip": "ym2612"
    },
    {
      "channel": 3,
      "note": 83,
      "start": 20.1558,
      "duration": 0.0161,
      "velocity": 94,
      "chip": "ym2612"
    },
    {
      "channel": 2,
      "note": 50,
      "start": 20.1568,
      "duration": 0.0161,
      "velocity": 100,
      "chip": "ym2612"
    },
    {
      "channel": 1,
      "note": 64,
      "start": 20.1679,
      "duration": 0.0161,
      "velocity": 124,
      "chip": "ym2612"
    },
    {
      "channel": 0,
      "note": 44,
      "start": 20.1695,
      "duration": 0.0161,
      "velocity": 115,
      "chip": "ym2612"
    },
    {
      "channel": 4,
      "note": 83,
      "start": 20.1707,
      "duration": 0.0161,
      "velocity": 94,
      "chip": "ym2612"
    },
    {
      "channel": 3,
      "note": 83,
      "start": 20.1719,
      "duration": 0.0161,
      "velocity": 94,
      "chip": "ym2612"
    },
    {
      "channel": 2,
      "note": 50,
      "start": 20.1729,
      "duration": 0.0161,
      "velocity": 100,
      "chip": "ym2612"
    },
    {
      "channel": 1,
      "note": 64,
      "start": 20.1839,
      "duration": 0.0161,
      "velocity": 124,
      "chip": "ym2612"
    },
    {
      "channel": 0,
      "note": 44,
      "start": 20.1856,
      "duration": 0.0162,
      "velocity": 115,
      "chip": "ym2612"
    },
    {
      "channel": 4,
      "note": 83,
      "start": 20.1868,
      "duration": 0.0161,
      "velocity": 94,
      "chip": "ym2612"
    },
    {
      "channel": 3,
      "note": 83,
      "start": 20.188,
      "duration": 0.0161,
      "velocity": 94,
      "chip": "ym2612"
    },
    {
      "channel": 2,
      "note": 50,
      "start": 20.189,
      "duration": 0.0161,
      "velocity": 100,
      "chip": "ym2612"
    },
    {
      "channel": 1,
      "note": 64,
      "start": 20.2,
      "duration": 0.0178,
      "velocity": 105,
      "chip": "ym2612"
    },
    {
      "channel": 0,
      "note": 45,
      "start": 20.2018,
      "duration": 0.0178,
      "velocity": 115,
      "chip": "ym2612"
    },
    {
      "channel": 4,
      "note": 83,
      "start": 20.2029,
      "duration": 0.0178,
      "velocity": 94,
      "chip": "ym2612"
    },
    {
      "channel": 3,
      "note": 83,
      "start": 20.2041,
      "duration": 0.0178,
      "velocity": 94,
      "chip": "ym2612"
    },
    {
      "channel": 2,
      "note": 50,
      "start": 20.2052,
      "duration": 0.0181,
      "velocity": 100,
      "chip": "ym2612"
    },
    {
      "channel": 1,
      "note": 105,
      "start": 20.2179,
      "duration": 0.0144,
      "velocity": 105,
      "chip": "ym2612"
    },
    {
      "channel": 0,
      "note": 45,
      "start": 20.2196,
      "duration": 0.0144,
      "velocity": 115,
      "chip": "ym2612"
    },
    {
      "channel": 4,
      "note": 83,
      "start": 20.2207,
      "duration": 0.0144,
      "velocity": 94,
      "chip": "ym2612"
    },
    {
      "channel": 3,
      "note": 83,
      "start": 20.2219,
      "duration": 0.0144,
      "velocity": 94,
      "chip": "ym2612"
    },
    {
      "channel": 2,
      "note": 50,
      "start": 20.2233,
      "duration": 0.0141,
      "velocity": 100,
      "chip": "ym2612"
    },
    {
      "channel": 1,
      "note": 105,
      "start": 20.2323,
      "duration": 0.0161,
      "velocity": 105,
      "chip": "ym2612"
    },
    {
      "channel": 0,
      "note": 46,
      "start": 20.2339,
      "duration": 0.0161,
      "velocity": 115,
      "chip": "ym2612"
    },
    {
      "channel": 4,
      "note": 83,
      "start": 20.2352,
      "duration": 0.016,
      "velocity": 94,
      "chip": "ym2612"
    },
    {
      "channel": 3,
      "note": 83,
      "start": 20.2363,
      "duration": 0.016,
      "velocity": 94,
      "chip": "ym2612"
    },
    {
      "channel": 2,
      "note": 50,
      "start": 20.2375,
      "duration": 0.016,
      "velocity": 100,
      "chip": "ym2612"
    },
    {
      "channel": 1,
      "note": 105,
      "start": 20.2484,
      "duration": 0.0161,
      "velocity": 105,
      "chip": "ym2612"
    },
    {
      "channel": 0,
      "note": 46,
      "start": 20.25,
      "duration": 0.0161,
      "velocity": 115,
      "chip": "ym2612"
    },
    {
      "channel": 4,
      "note": 83,
      "start": 20.2512,
      "duration": 0.0161,
      "velocity": 94,
      "chip": "ym2612"
    },
    {
      "channel": 3,
      "note": 83,
      "start": 20.2523,
      "duration": 0.0161,
      "velocity": 94,
      "chip": "ym2612"
    },
    {
      "channel": 2,
      "note": 50,
      "start": 20.2535,
      "duration": 0.0161,
      "velocity": 100,
      "chip": "ym2612"
    },
    {
      "channel": 1,
      "note": 105,
      "start": 20.2645,
      "duration": 0.0161,
      "velocity": 105,
      "chip": "ym2612"
    },
    {
      "channel": 0,
      "note": 47,
      "start": 20.2661,
      "duration": 0.0161,
      "velocity": 115,
      "chip": "ym2612"
    },
    {
      "channel": 4,
      "note": 83,
      "start": 20.2673,
      "duration": 0.0161,
      "velocity": 94,
      "chip": "ym2612"
    },
    {
      "channel": 3,
      "note": 83,
      "start": 20.2684,
      "duration": 0.0161,
      "velocity": 94,
      "chip": "ym2612"
    },
    {
      "channel": 2,
      "note": 50,
      "start": 20.2696,
      "duration": 0.0161,
      "velocity": 100,
      "chip": "ym2612"
    },
    {
      "channel": 1,
      "note": 105,
      "start": 20.2806,
      "duration": 0.0167,
      "velocity": 105,
      "chip": "ym2612"
    },
    {
      "channel": 0,
      "note": 47,
      "start": 20.2822,
      "duration": 0.0167,
      "velocity": 115,
      "chip": "ym2612"
    },
    {
      "channel": 4,
      "note": 83,
      "start": 20.2834,
      "duration": 0.0167,
      "velocity": 94,
      "chip": "ym2612"
    },
    {
      "channel": 3,
      "note": 83,
      "start": 20.2845,
      "duration": 0.0167,
      "velocity": 94,
      "chip": "ym2612"
    },
    {
      "channel": 2,
      "note": 50,
      "start": 20.2857,
      "duration": 0.0167,
      "velocity": 100,
      "chip": "ym2612"
    },
    {
      "channel": 1,
      "note": 105,
      "start": 20.2973,
      "duration": 0.0167,
      "velocity": 105,
      "chip": "ym2612"
    },
    {
      "channel": 0,
      "note": 47,
      "start": 20.299,
      "duration": 0.0167,
      "velocity": 115,
      "chip": "ym2612"
    },
    {
      "channel": 4,
      "note": 83,
      "start": 20.3001,
      "duration": 0.0167,
      "velocity": 94,
      "chip": "ym2612"
    },
    {
      "channel": 3,
      "note": 83,
      "start": 20.3013,
      "duration": 0.0167,
      "velocity": 94,
      "chip": "ym2612"
    },
    {
      "channel": 2,
      "note": 50,
      "start": 20.3024,
      "duration": 0.0167,
      "velocity": 100,
      "chip": "ym2612"
    },
    {
      "channel": 1,
      "note": 105,
      "start": 20.314,
      "duration": 0.0185,
      "velocity": 124,
      "chip": "ym2612"
    },
    {
      "channel": 0,
      "note": 48,
      "start": 20.3156,
      "duration": 0.0193,
      "velocity": 115,
      "chip": "ym2612"
    },
    {
      "channel": 4,
      "note": 83,
      "start": 20.3168,
      "duration": 0.0193,
      "velocity": 94,
      "chip": "ym2612"
    },
    {
      "channel": 3,
      "note": 83,
      "start": 20.3179,
      "duration": 0.0193,
      "velocity": 94,
      "chip": "ym2612"
    },
    {
      "channel": 2,
      "note": 50,
      "start": 20.3191,
      "duration": 0.0196,
      "velocity": 100,
      "chip": "ym2612"
    },
    {
      "channel": 1,
      "note": 78,
      "start": 20.3326,
      "duration": 0.013,
      "velocity": 124,
      "chip": "ym2612"
    },
    {
      "channel": 0,
      "note": 48,
      "start": 20.335,
      "duration": 0.0125,
      "velocity": 115,
      "chip": "ym2612"
    },
    {
      "channel": 4,
      "note": 83,
      "start": 20.3361,
      "duration": 0.0125,
      "velocity": 94,
      "chip": "ym2612"
    },
    {
      "channel": 3,
      "note": 83,
      "start": 20.3373,
      "duration": 0.0125,
      "velocity": 94,
      "chip": "ym2612"
    },
    {
      "channel": 2,
      "note": 50,
      "start": 20.3387,
      "duration": 0.0122,
      "velocity": 100,
      "chip": "ym2612"
    },
    {
      "channel": 1,
      "note": 76,
      "start": 20.3455,
      "duration": 0.0188,
      "velocity": 124,
      "chip": "ym2612"
    },
    {
      "channel": 0,
      "note": 49,
      "start": 20.3474,
      "duration": 0.0179,
      "velocity": 1,
      "chip": "ym2612"
    },
    {
      "channel": 4,
      "note": 83,
      "start": 20.3486,
      "duration": 0.0179,
      "velocity": 94,
      "chip": "ym2612"
    },
    {
      "channel": 3,
      "note": 83,
      "start": 20.3498,
      "duration": 0.0179,
      "velocity": 94,
      "chip": "ym2612"
    },
    {
      "channel": 2,
      "note": 50,
      "start": 20.3509,
      "duration": 0.0179,
      "velocity": 100,
      "chip": "ym2612"
    },
    {
      "channel": 1,
      "note": 75,
      "start": 20.3643,
      "duration": 0.0161,
      "velocity": 124,
      "chip": "ym2612"
    },
    {
      "channel": 4,
      "note": 83,
      "start": 20.3665,
      "duration": 0.0153,
      "velocity": 94,
      "chip": "ym2612"
    },
    {
      "channel": 3,
      "note": 83,
      "start": 20.3677,
      "duration": 0.0153,
      "velocity": 94,
      "chip": "ym2612"
    },
    {
      "channel": 2,
      "note": 50,
      "start": 20.3688,
      "duration": 0.0153,
      "velocity": 100,
      "chip": "ym2612"
    },
    {
      "channel": 1,
      "note": 74,
      "start": 20.3804,
      "duration": 0.0158,
      "velocity": 124,
      "chip": "ym2612"
    },
    {
      "channel": 4,
      "note": 83,
      "start": 20.3818,
      "duration": 0.0158,
      "velocity": 94,
      "chip": "ym2612"
    },
    {
      "channel": 3,
      "note": 83,
      "start": 20.3829,
      "duration": 0.0158,
      "velocity": 94,
      "chip": "ym2612"
    },
    {
      "channel": 2,
      "note": 50,
      "start": 20.3841,
      "duration": 0.0157,
      "velocity": 100,
      "chip": "ym2612"
    },
    {
      "channel": 1,
      "note": 72,
      "start": 20.3962,
      "duration": 0.0139,
      "velocity": 124,
      "chip": "ym2612"
    },
    {
      "channel": 4,
      "note": 83,
      "start": 20.3976,
      "duration": 0.014,
      "velocity": 94,
      "chip": "ym2612"
    },
    {
      "channel": 3,
      "note": 83,
      "start": 20.3987,
      "duration": 0.014,
      "velocity": 94,
      "chip": "ym2612"
    },
    {
      "channel": 2,
      "note": 50,
      "start": 20.3998,
      "duration": 0.0141,
      "velocity": 100,
      "chip": "ym2612"
    },
    {
      "channel": 1,
      "note": 71,
      "start": 20.41,
      "duration": 0.016,
      "velocity": 124,
      "chip": "ym2612"
    },
    {
      "channel": 4,
      "note": 83,
      "start": 20.4116,
      "duration": 0.0186,
      "velocity": 94,
      "chip": "ym2612"
    },
    {
      "channel": 3,
      "note": 83,
      "start": 20.4127,
      "duration": 0.0186,
      "velocity": 94,
      "chip": "ym2612"
    },
    {
      "channel": 2,
      "note": 50,
      "start": 20.4139,
      "duration": 0.0186,
      "velocity": 100,
      "chip": "ym2612"
    },
    {
      "channel": 1,
      "note": 70,
      "start": 20.426,
      "duration": 0.0161,
      "velocity": 124,
      "chip": "ym2612"
    },
    {
      "channel": 4,
      "note": 83,
      "start": 20.4301,
      "duration": 0.0169,
      "velocity": 94,
      "chip": "ym2612"
    },
    {
      "channel": 3,
      "note": 83,
      "start": 20.4313,
      "duration": 0.0168,
      "velocity": 94,
      "chip": "ym2612"
    },
    {
      "channel": 2,
      "note": 50,
      "start": 20.4324,
      "duration": 0.0171,
      "velocity": 100,
      "chip": "ym2612"
    },
    {
      "channel": 1,
      "note": 69,
      "start": 20.4421,
      "duration": 0.0161,
      "velocity": 124,
      "chip": "ym2612"
    },
    {
      "channel": 4,
      "note": 84,
      "start": 20.447,
      "duration": 0.0127,
      "velocity": 94,
      "chip": "ym2612"
    },
    {
      "channel": 3,
      "note": 83,
      "start": 20.4481,
      "duration": 0.0151,
      "velocity": 94,
      "chip": "ym2612"
    },
    {
      "channel": 2,
      "note": 50,
      "start": 20.4496,
      "duration": 0.0147,
      "velocity": 100,
      "chip": "ym2612"
    },
    {
      "channel": 1,
      "note": 68,
      "start": 20.4582,
      "duration": 0.0161,
      "velocity": 124,
      "chip": "ym2612"
    },
    {
      "channel": 4,
      "note": 84,
      "start": 20.4597,
      "duration": 0.016,
      "velocity": 94,
      "chip": "ym2612"
    },
    {
      "channel": 3,
      "note": 83,
      "start": 20.4632,
      "duration": 0.0139,
      "velocity": 94,
      "chip": "ym2612"
    },
    {
      "channel": 2,
      "note": 50,
      "start": 20.4644,
      "duration": 0.0139,
      "velocity": 100,
      "chip": "ym2612"
    },
    {
      "channel": 1,
      "note": 66,
      "start": 20.4743,
      "duration": 0.0161,
      "velocity": 124,
      "chip": "ym2612"
    },
    {
      "channel": 4,
      "note": 84,
      "start": 20.4757,
      "duration": 0.0161,
      "velocity": 94,
      "chip": "ym2612"
    },
    {
      "channel": 3,
      "note": 83,
      "start": 20.4771,
      "duration": 0.0158,
      "velocity": 94,
      "chip": "ym2612"
    },
    {
      "channel": 2,
      "note": 50,
      "start": 20.4782,
      "duration": 0.0186,
      "velocity": 100,
      "chip": "ym2612"
    },
    {
      "channel": 1,
      "note": 65,
      "start": 20.4904,
      "duration": 0.0161,
      "velocity": 124,
      "chip": "ym2612"
    },
    {
      "channel": 4,
      "note": 84,
      "start": 20.4918,
      "duration": 0.0161,
      "velocity": 94,
      "chip": "ym2612"
    },
    {
      "channel": 3,
      "note": 83,
      "start": 20.4929,
      "duration": 0.0161,
      "velocity": 94,
      "chip": "ym2612"
    },
    {
      "channel": 2,
      "note": 50,
      "start": 20.4968,
      "duration": 0.0161,
      "velocity": 100,
      "chip": "ym2612"
    },
    {
      "channel": 1,
      "note": 64,
      "start": 20.5065,
      "duration": 0.0161,
      "velocity": 124,
      "chip": "ym2612"
    },
    {
      "channel": 4,
      "note": 84,
      "start": 20.5079,
      "duration": 0.0161,
      "velocity": 94,
      "chip": "ym2612"
    },
    {
      "channel": 3,
      "note": 83,
      "start": 20.509,
      "duration": 0.0161,
      "velocity": 94,
      "chip": "ym2612"
    },
    {
      "channel": 2,
      "note": 50,
      "start": 20.5129,
      "duration": 0.0134,
      "velocity": 100,
      "chip": "ym2612"
    },
    {
      "channel": 1,
      "note": 62,
      "start": 20.5226,
      "duration": 0.0161,
      "velocity": 124,
      "chip": "ym2612"
    },
    {
      "channel": 4,
      "note": 84,
      "start": 20.524,
      "duration": 0.0161,
      "velocity": 94,
      "chip": "ym2612"
    },
    {
      "channel": 3,
      "note": 83,
      "start": 20.5251,
      "duration": 0.0161,
      "velocity": 94,
      "chip": "ym2612"
    },
    {
      "channel": 2,
      "note": 50,
      "start": 20.5263,
      "duration": 0.0161,
      "velocity": 100,
      "chip": "ym2612"
    },
    {
      "channel": 1,
      "note": 61,
      "start": 20.5387,
      "duration": 0.0161,
      "velocity": 124,
      "chip": "ym2612"
    },
    {
      "channel": 4,
      "note": 84,
      "start": 20.5401,
      "duration": 0.0166,
      "velocity": 94,
      "chip": "ym2612"
    },
    {
      "channel": 3,
      "note": 83,
      "start": 20.5412,
      "duration": 0.0169,
      "velocity": 94,
      "chip": "ym2612"
    },
    {
      "channel": 2,
      "note": 50,
      "start": 20.5424,
      "duration": 0.0172,
      "velocity": 100,
      "chip": "ym2612"
    },
    {
      "channel": 1,
      "note": 60,
      "start": 20.5548,
      "duration": 0.0161,
      "velocity": 124,
      "chip": "ym2612"
    },
    {
      "channel": 4,
      "note": 84,
      "start": 20.5567,
      "duration": 0.0156,
      "velocity": 94,
      "chip": "ym2612"
    },
    {
      "channel": 3,
      "note": 84,
      "start": 20.5581,
      "duration": 0.0154,
      "velocity": 94,
      "chip": "ym2612"
    },
    {
      "channel": 2,
      "note": 50,
      "start": 20.5595,
      "duration": 0.0151,
      "velocity": 100,
      "chip": "ym2612"
    },
    {
      "channel": 1,
      "note": 59,
      "start": 20.5709,
      "duration": 0.0161,
      "velocity": 124,
      "chip": "ym2612"
    },
    {
      "channel": 4,
      "note": 84,
      "start": 20.5723,
      "duration": 0.016,
      "velocity": 94,
      "chip": "ym2612"
    },
    {
      "channel": 3,
      "note": 84,
      "start": 20.5735,
      "duration": 0.016,
      "velocity": 94,
      "chip": "ym2612"
    },
    {
      "channel": 2,
      "note": 50,
      "start": 20.5747,
      "duration": 0.016,
      "velocity": 100,
      "chip": "ym2612"
    },
    {
      "channel": 1,
      "note": 57,
      "start": 20.587,
      "duration": 0.0161,
      "velocity": 124,
      "chip": "ym2612"
    },
    {
      "channel": 4,
      "note": 84,
      "start": 20.5883,
      "duration": 0.0162,
      "velocity": 94,
      "chip": "ym2612"
    },
    {
      "channel": 3,
      "note": 84,
      "start": 20.5895,
      "duration": 0.0161,
      "velocity": 94,
      "chip": "ym2612"
    },
    {
      "channel": 2,
      "note": 50,
      "start": 20.5906,
      "duration": 0.0162,
      "velocity": 100,
      "chip": "ym2612"
    },
    {
      "channel": 1,
      "note": 56,
      "start": 20.6031,
      "duration": 0.0161,
      "velocity": 124,
      "chip": "ym2612"
    },
    {
      "channel": 4,
      "note": 84,
      "start": 20.6045,
      "duration": 0.0161,
      "velocity": 94,
      "chip": "ym2612"
    },
    {
      "channel": 3,
      "note": 84,
      "start": 20.6056,
      "duration": 0.0161,
      "velocity": 94,
      "chip": "ym2612"
    },
    {
      "channel": 2,
      "note": 50,
      "start": 20.6068,
      "duration": 0.0161,
      "velocity": 100,
      "chip": "ym2612"
    },
    {
      "channel": 1,
      "note": 55,
      "start": 20.6192,
      "duration": 0.0161,
      "velocity": 124,
      "chip": "ym2612"
    },
    {
      "channel": 4,
      "note": 84,
      "start": 20.6206,
      "duration": 0.0161,
      "velocity": 94,
      "chip": "ym2612"
    },
    {
      "channel": 3,
      "note": 84,
      "start": 20.6217,
      "duration": 0.0161,
      "velocity": 94,
      "chip": "ym2612"
    },
    {
      "channel": 2,
      "note": 50,
      "start": 20.6229,
      "duration": 0.0161,
      "velocity": 100,
      "chip": "ym2612"
    },
    {
      "channel": 1,
      "note": 53,
      "start": 20.6353,
      "duration": 0.0161,
      "velocity": 124,
      "chip": "ym2612"
    },
    {
      "channel": 4,
      "note": 84,
      "start": 20.6367,
      "duration": 0.0161,
      "velocity": 94,
      "chip": "ym2612"
    },
    {
      "channel": 3,
      "note": 84,
      "start": 20.6378,
      "duration": 0.0161,
      "velocity": 94,
      "chip": "ym2612"
    },
    {
      "channel": 2,
      "note": 50,
      "start": 20.639,
      "duration": 0.0161,
      "velocity": 100,
      "chip": "ym2612"
    },
    {
      "channel": 1,
      "note": 52,
      "start": 20.6514,
      "duration": 0.0161,
      "velocity": 124,
      "chip": "ym2612"
    },
    {
      "channel": 4,
      "note": 84,
      "start": 20.6528,
      "duration": 0.0203,
      "velocity": 94,
      "chip": "ym2612"
    },
    {
      "channel": 3,
      "note": 84,
      "start": 20.6539,
      "duration": 0.0204,
      "velocity": 94,
      "chip": "ym2612"
    },
    {
      "channel": 2,
      "note": 50,
      "start": 20.6551,
      "duration": 0.0206,
      "velocity": 100,
      "chip": "ym2612"
    },
    {
      "channel": 1,
      "note": 51,
      "start": 20.6675,
      "duration": 0.0153,
      "velocity": 1,
      "chip": "ym2612"
    },
    {
      "channel": 0,
      "note": 36,
      "start": 20.6717,
      "duration": 0.015,
      "velocity": 115,
      "chip": "ym2612"
    },
    {
      "channel": 4,
      "note": 81,
      "start": 20.6732,
      "duration": 0.0147,
      "velocity": 94,
      "chip": "ym2612"
    },
    {
      "channel": 3,
      "note": 84,
      "start": 20.6743,
      "duration": 0.0148,
      "velocity": 94,
      "chip": "ym2612"
    },
    {
      "channel": 2,
      "note": 50,
      "start": 20.6757,
      "duration": 0.0146,
      "velocity": 100,
      "chip": "ym2612"
    },
    {
      "channel": 1,
      "note": 51,
      "start": 20.685,
      "duration": 0.0143,
      "velocity": 105,
      "chip": "ym2612"
    },
    {
      "channel": 0,
      "note": 36,
      "start": 20.6867,
      "duration": 0.0142,
      "velocity": 115,
      "chip": "ym2612"
    },
    {
      "channel": 4,
      "note": 81,
      "start": 20.6879,
      "duration": 0.0141,
      "velocity": 94,
      "chip": "ym2612"
    },
    {
      "channel": 3,
      "note": 84,
      "start": 20.689,
      "duration": 0.0141,
      "velocity": 94,
      "chip": "ym2612"
    },
    {
      "channel": 2,
      "note": 50,
      "start": 20.6902,
      "duration": 0.0141,
      "velocity": 100,
      "chip": "ym2612"
    },
    {
      "channel": 1,
      "note": 105,
      "start": 20.6992,
      "duration": 0.0161,
      "velocity": 105,
      "chip": "ym2612"
    },
    {
      "channel": 0,
      "note": 37,
      "start": 20.7009,
      "duration": 0.0161,
      "velocity": 115,
      "chip": "ym2612"
    },
    {
      "channel": 4,
      "note": 81,
      "start": 20.702,
      "duration": 0.0161,
      "velocity": 94,
      "chip": "ym2612"
    },
    {
      "channel": 3,
      "note": 84,
      "start": 20.7032,
      "duration": 0.0161,
      "velocity": 94,
      "chip": "ym2612"
    },
    {
      "channel": 2,
      "note": 50,
      "start": 20.7043,
      "duration": 0.0161,
      "velocity": 100,
      "chip": "ym2612"
    },
    {
      "channel": 1,
      "note": 105,
      "start": 20.7153,
      "duration": 0.0161,
      "velocity": 105,
      "chip": "ym2612"
    },
    {
      "channel": 0,
      "note": 37,
      "start": 20.717,
      "duration": 0.0161,
      "velocity": 115,
      "chip": "ym2612"
    },
    {
      "channel": 4,
      "note": 81,
      "start": 20.7181,
      "duration": 0.0161,
      "velocity": 94,
      "chip": "ym2612"
    },
    {
      "channel": 3,
      "note": 84,
      "start": 20.7193,
      "duration": 0.0161,
      "velocity": 94,
      "chip": "ym2612"
    },
    {
      "channel": 2,
      "note": 50,
      "start": 20.7204,
      "duration": 0.0161,
      "velocity": 100,
      "chip": "ym2612"
    },
    {
      "channel": 1,
      "note": 105,
      "start": 20.7314,
      "duration": 0.0161,
      "velocity": 105,
      "chip": "ym2612"
    },
    {
      "channel": 0,
      "note": 38,
      "start": 20.7331,
      "duration": 0.0161,
      "velocity": 115,
      "chip": "ym2612"
    },
    {
      "channel": 4,
      "note": 81,
      "start": 20.7342,
      "duration": 0.0161,
      "velocity": 94,
      "chip": "ym2612"
    },
    {
      "channel": 3,
      "note": 84,
      "start": 20.7354,
      "duration": 0.0161,
      "velocity": 94,
      "chip": "ym2612"
    },
    {
      "channel": 2,
      "note": 50,
      "start": 20.7365,
      "duration": 0.0161,
      "velocity": 100,
      "chip": "ym2612"
    },
    {
      "channel": 1,
      "note": 105,
      "start": 20.7475,
      "duration": 0.0165,
      "velocity": 105,
      "chip": "ym2612"
    },
    {
      "channel": 0,
      "note": 38,
      "start": 20.7492,
      "duration": 0.0165,
      "velocity": 115,
      "chip": "ym2612"
    },
    {
      "channel": 4,
      "note": 81,
      "start": 20.7503,
      "duration": 0.0165,
      "velocity": 94,
      "chip": "ym2612"
    },
    {
      "channel": 3,
      "note": 84,
      "start": 20.7515,
      "duration": 0.0165,
      "velocity": 94,
      "chip": "ym2612"
    },
    {
      "channel": 2,
      "note": 50,
      "start": 20.7526,
      "duration": 0.0165,
      "velocity": 100,
      "chip": "ym2612"
    },
    {
      "channel": 1,
      "note": 105,
      "start": 20.764,
      "duration": 0.0183,
      "velocity": 124,
      "chip": "ym2612"
    },
    {
      "channel": 0,
      "note": 39,
      "start": 20.7656,
      "duration": 0.0202,
      "velocity": 115,
      "chip": "ym2612"
    },
    {
      "channel": 4,
      "note": 81,
      "start": 20.7668,
      "duration": 0.0202,
      "velocity": 94,
      "chip": "ym2612"
    },
    {
      "channel": 3,
      "note": 84,
      "start": 20.7679,
      "duration": 0.0205,
      "velocity": 94,
      "chip": "ym2612"
    },
    {
      "channel": 2,
      "note": 50,
      "start": 20.7691,
      "duration": 0.0207,
      "velocity": 100,
      "chip": "ym2612"
    },
    {
      "channel": 1,
      "note": 64,
      "start": 20.7824,
      "duration": 0.0146,
      "velocity": 124,
      "chip": "ym2612"
    },
    {
      "channel": 0,
      "note": 36,
      "start": 20.7859,
      "duration": 0.0128,
      "velocity": 115,
      "chip": "ym2612"
    },
    {
      "channel": 4,
      "note": 81,
      "start": 20.787,
      "duration": 0.0129,
      "velocity": 94,
      "chip": "ym2612"
    },
    {
      "channel": 3,
      "note": 81,
      "start": 20.7884,
      "duration": 0.0127,
      "velocity": 94,
      "chip": "ym2612"
    },
    {
      "channel": 2,
      "note": 50,
      "start": 20.7899,
      "duration": 0.0124,
      "velocity": 100,
      "chip": "ym2612"
    },
    {
      "channel": 1,
      "note": 64,
      "start": 20.797,
      "duration": 0.0149,
      "velocity": 124,
      "chip": "ym2612"
    },
    {
      "channel": 0,
      "note": 36,
      "start": 20.7987,
      "duration": 0.0149,
      "velocity": 115,
      "chip": "ym2612"
    },
    {
      "channel": 4,
      "note": 81,
      "start": 20.7999,
      "duration": 0.0149,
      "velocity": 94,
      "chip": "ym2612"
    },
    {
      "channel": 3,
      "note": 81,
      "start": 20.8011,
      "duration": 0.0148,
      "velocity": 94,
      "chip": "ym2612"
    },
    {
      "channel": 2,
      "note": 50,
      "start": 20.8023,
      "duration": 0.0148,
      "velocity": 100,
      "chip": "ym2612"
    },
    {
      "channel": 1,
      "note": 64,
      "start": 20.8119,
      "duration": 0.0188,
      "velocity": 124,
      "chip": "ym2612"
    },
    {
      "channel": 0,
      "note": 37,
      "start": 20.8136,
      "duration": 0.0187,
      "velocity": 115,
      "chip": "ym2612"
    },
    {
      "channel": 4,
      "note": 81,
      "start": 20.8147,
      "duration": 0.0188,
      "velocity": 94,
      "chip": "ym2612"
    },
    {
      "channel": 3,
      "note": 81,
      "start": 20.8159,
      "duration": 0.0188,
      "velocity": 94,
      "chip": "ym2612"
    },
    {
      "channel": 2,
      "note": 50,
      "start": 20.817,
      "duration": 0.0187,
      "velocity": 100,
      "chip": "ym2612"
    },
    {
      "channel": 1,
      "note": 64,
      "start": 20.8307,
      "duration": 0.0162,
      "velocity": 124,
      "chip": "ym2612"
    },
    {
      "channel": 0,
      "note": 37,
      "start": 20.8323,
      "duration": 0.0162,
      "velocity": 115,
      "chip": "ym2612"
    },
    {
      "channel": 4,
      "note": 81,
      "start": 20.8335,
      "duration": 0.0161,
      "velocity": 94,
      "chip": "ym2612"
    },
    {
      "channel": 3,
      "note": 81,
      "start": 20.8346,
      "duration": 0.0162,
      "velocity": 94,
      "chip": "ym2612"
    },
    {
      "channel": 2,
      "note": 50,
      "start": 20.8357,
      "duration": 0.0162,
      "velocity": 100,
      "chip": "ym2612"
    },
    {
      "channel": 1,
      "note": 64,
      "start": 20.8469,
      "duration": 0.0157,
      "velocity": 124,
      "chip": "ym2612"
    },
    {
      "channel": 0,
      "note": 38,
      "start": 20.8485,
      "duration": 0.0158,
      "velocity": 115,
      "chip": "ym2612"
    },
    {
      "channel": 4,
      "note": 81,
      "start": 20.8497,
      "duration": 0.0158,
      "velocity": 94,
      "chip": "ym2612"
    },
    {
      "channel": 3,
      "note": 81,
      "start": 20.8508,
      "duration": 0.0158,
      "velocity": 94,
      "chip": "ym2612"
    },
    {
      "channel": 2,
      "note": 50,
      "start": 20.852,
      "duration": 0.0158,
      "velocity": 100,
      "chip": "ym2612"
    },
    {
      "channel": 1,
      "note": 64,
      "start": 20.8626,
      "duration": 0.0137,
      "velocity": 124,
      "chip": "ym2612"
    },
    {
      "channel": 0,
      "note": 38,
      "start": 20.8643,
      "duration": 0.014,
      "velocity": 115,
      "chip": "ym2612"
    },
    {
      "channel": 4,
      "note": 81,
      "start": 20.8654,
      "duration": 0.0141,
      "velocity": 94,
      "chip": "ym2612"
    },
    {
      "channel": 3,
      "note": 81,
      "start": 20.8666,
      "duration": 0.0141,
      "velocity": 94,
      "chip": "ym2612"
    },
    {
      "channel": 2,
      "note": 50,
      "start": 20.8677,
      "duration": 0.014,
      "velocity": 100,
      "chip": "ym2612"
    },
    {
      "channel": 1,
      "note": 64,
      "start": 20.8763,
      "duration": 0.0205,
      "velocity": 105,
      "chip": "ym2612"
    },
    {
      "channel": 0,
      "note": 39,
      "start": 20.8783,
      "duration": 0.0203,
      "velocity": 115,
      "chip": "ym2612"
    },
    {
      "channel": 4,
      "note": 81,
      "start": 20.8795,
      "duration": 0.0202,
      "velocity": 94,
      "chip": "ym2612"
    },
    {
      "channel": 3,
      "note": 81,
      "start": 20.8807,
      "duration": 0.0202,
      "velocity": 94,
      "chip": "ym2612"
    },
    {
      "channel": 2,
      "note": 50,
      "start": 20.8817,
      "duration": 0.0205,
      "velocity": 100,
      "chip": "ym2612"
    },
    {
      "channel": 1,
      "note": 105,
      "start": 20.8969,
      "duration": 0.0117,
      "velocity": 105,
      "chip": "ym2612"
    },
    {
      "channel": 0,
      "note": 39,
      "start": 20.8986,
      "duration": 0.0144,
      "velocity": 115,
      "chip": "ym2612"
    },
    {
      "channel": 4,
      "note": 81,
      "start": 20.8997,
      "duration": 0.0144,
      "velocity": 94,
      "chip": "ym2612"
    },
    {
      "channel": 3,
      "note": 81,
      "start": 20.9009,
      "duration": 0.0144,
      "velocity": 94,
      "chip": "ym2612"
    },
    {
      "channel": 2,
      "note": 50,
      "start": 20.9023,
      "duration": 0.0141,
      "velocity": 100,
      "chip": "ym2612"
    },
    {
      "channel": 1,
      "note": 105,
      "start": 20.9086,
      "duration": 0.016,
      "velocity": 105,
      "chip": "ym2612"
    },
    {
      "channel": 0,
      "note": 40,
      "start": 20.913,
      "duration": 0.0133,
      "velocity": 115,
      "chip": "ym2612"
    },
    {
      "channel": 4,
      "note": 81,
      "start": 20.9142,
      "duration": 0.0156,
      "velocity": 94,
      "chip": "ym2612"
    },
    {
      "channel": 3,
      "note": 81,
      "start": 20.9153,
      "duration": 0.0157,
      "velocity": 94,
      "chip": "ym2612"
    },
    {
      "channel": 2,
      "note": 50,
      "start": 20.9165,
      "duration": 0.0156,
      "velocity": 100,
      "chip": "ym2612"
    },
    {
      "channel": 1,
      "note": 105,
      "start": 20.9246,
      "duration": 0.0161,
      "velocity": 105,
      "chip": "ym2612"
    },
    {
      "channel": 0,
      "note": 40,
      "start": 20.9263,
      "duration": 0.0161,
      "velocity": 115,
      "chip": "ym2612"
    },
    {
      "channel": 4,
      "note": 81,
      "start": 20.9298,
      "duration": 0.0141,
      "velocity": 94,
      "chip": "ym2612"
    },
    {
      "channel": 3,
      "note": 81,
      "start": 20.931,
      "duration": 0.0141,
      "velocity": 94,
      "chip": "ym2612"
    },
    {
      "channel": 2,
      "note": 50,
      "start": 20.9321,
      "duration": 0.014,
      "velocity": 100,
      "chip": "ym2612"
    },
    {
      "channel": 1,
      "note": 105,
      "start": 20.9407,
      "duration": 0.0161,
      "velocity": 105,
      "chip": "ym2612"
    },
    {
      "channel": 0,
      "note": 40,
      "start": 20.9424,
      "duration": 0.0161,
      "velocity": 115,
      "chip": "ym2612"
    },
    {
      "channel": 4,
      "note": 81,
      "start": 20.9439,
      "duration": 0.0158,
      "velocity": 94,
      "chip": "ym2612"
    },
    {
      "channel": 3,
      "note": 81,
      "start": 20.945,
      "duration": 0.0185,
      "velocity": 94,
      "chip": "ym2612"
    },
    {
      "channel": 2,
      "note": 50,
      "start": 20.9461,
      "duration": 0.0186,
      "velocity": 100,
      "chip": "ym2612"
    },
    {
      "channel": 1,
      "note": 105,
      "start": 20.9568,
      "duration": 0.0161,
      "velocity": 105,
      "chip": "ym2612"
    },
    {
      "channel": 0,
      "note": 41,
      "start": 20.9585,
      "duration": 0.0161,
      "velocity": 115,
      "chip": "ym2612"
    },
    {
      "channel": 4,
      "note": 81,
      "start": 20.9597,
      "duration": 0.0161,
      "velocity": 94,
      "chip": "ym2612"
    },
    {
      "channel": 3,
      "note": 81,
      "start": 20.9635,
      "duration": 0.0161,
      "velocity": 94,
      "chip": "ym2612"
    },
    {
      "channel": 2,
      "note": 50,
      "start": 20.9647,
      "duration": 0.0161,
      "velocity": 100,
      "chip": "ym2612"
    },
    {
      "channel": 1,
      "note": 105,
      "start": 20.9729,
      "duration": 0.0162,
      "velocity": 105,
      "chip": "ym2612"
    },
    {
      "channel": 0,
      "note": 41,
      "start": 20.9745,
      "duration": 0.0162,
      "velocity": 115,
      "chip": "ym2612"
    },
    {
      "channel": 4,
      "note": 81,
      "start": 20.9758,
      "duration": 0.0161,
      "velocity": 94,
      "chip": "ym2612"
    },
    {
      "channel": 3,
      "note": 81,
      "start": 20.9796,
      "duration": 0.0134,
      "velocity": 94,
      "chip": "ym2612"
    },
    {
      "channel": 2,
      "note": 50,
      "start": 20.9808,
      "duration": 0.0158,
      "velocity": 100,
      "chip": "ym2612"
    },
    {
      "channel": 1,
      "note": 105,
      "start": 20.989,
      "duration": 0.0178,
      "velocity": 124,
      "chip": "ym2612"
    },
    {
      "channel": 0,
      "note": 42,
      "start": 20.9907,
      "duration": 0.0178,
      "velocity": 115,
      "chip": "ym2612"
    },
    {
      "channel": 4,
      "note": 81,
      "start": 20.9918,
      "duration": 0.0179,
      "velocity": 94,
      "chip": "ym2612"
    },
    {
      "channel": 3,
      "note": 81,
      "start": 20.993,
      "duration": 0.0182,
      "velocity": 94,
      "chip": "ym2612"
    },
    {
      "channel": 2,
      "note": 50,
      "start": 20.9966,
      "duration": 0.016,
      "velocity": 100,
      "chip": "ym2612"
    },
    {
      "channel": 1,
      "note": 64,
      "start": 21.0068,
      "duration": 0.0144,
      "velocity": 124,
      "chip": "ym2612"
    },
    {
      "channel": 0,
      "note": 42,
      "start": 21.0085,
      "duration": 0.0144,
      "velocity": 115,
      "chip": "ym2612"
    },
    {
      "channel": 4,
      "note": 81,
      "start": 21.0097,
      "duration": 0.0144,
      "velocity": 94,
      "chip": "ym2612"
    },
    {
      "channel": 3,
      "note": 81,
      "start": 21.0112,
      "duration": 0.0141,
      "velocity": 94,
      "chip": "ym2612"
    },
    {
      "channel": 2,
      "note": 50,
      "start": 21.0127,
      "duration": 0.0138,
      "velocity": 100,
      "chip": "ym2612"
    },
    {
      "channel": 1,
      "note": 64,
      "start": 21.0213,
      "duration": 0.016,
      "velocity": 124,
      "chip": "ym2612"
    },
    {
      "channel": 0,
      "note": 43,
      "start": 21.0229,
      "duration": 0.016,
      "velocity": 115,
      "chip": "ym2612"
    },
    {
      "channel": 4,
      "note": 81,
      "start": 21.0241,
      "duration": 0.0161,
      "velocity": 94,
      "chip": "ym2612"
    },
    {
      "channel": 3,
      "note": 81,
      "start": 21.0252,
      "duration": 0.0161,
      "velocity": 94,
      "chip": "ym2612"
    },
    {
      "channel": 2,
      "note": 50,
      "start": 21.0264,
      "duration": 0.016,
      "velocity": 100,
      "chip": "ym2612"
    },
    {
      "channel": 1,
      "note": 64,
      "start": 21.0373,
      "duration": 0.0161,
      "velocity": 124,
      "chip": "ym2612"
    },
    {
      "channel": 0,
      "note": 43,
      "start": 21.039,
      "duration": 0.0161,
      "velocity": 115,
      "chip": "ym2612"
    },
    {
      "channel": 4,
      "note": 81,
      "start": 21.0402,
      "duration": 0.0161,
      "velocity": 94,
      "chip": "ym2612"
    },
    {
      "channel": 3,
      "note": 81,
      "start": 21.0413,
      "duration": 0.0161,
      "velocity": 94,
      "chip": "ym2612"
    },
    {
      "channel": 2,
      "note": 50,
      "start": 21.0424,
      "duration": 0.0161,
      "velocity": 100,
      "chip": "ym2612"
    },
    {
      "channel": 1,
      "note": 64,
      "start": 21.0534,
      "duration": 0.0161,
      "velocity": 124,
      "chip": "ym2612"
    },
    {
      "channel": 0,
      "note": 44,
      "start": 21.0551,
      "duration": 0.0161,
      "velocity": 115,
      "chip": "ym2612"
    },
    {
      "channel": 4,
      "note": 81,
      "start": 21.0563,
      "duration": 0.0161,
      "velocity": 94,
      "chip": "ym2612"
    },
    {
      "channel": 3,
      "note": 81,
      "start": 21.0574,
      "duration": 0.0161,
      "velocity": 94,
      "chip": "ym2612"
    },
    {
      "channel": 2,
      "note": 50,
      "start": 21.0585,
      "duration": 0.0161,
      "velocity": 100,
      "chip": "ym2612"
    },
    {
      "channel": 1,
      "note": 64,
      "start": 21.0695,
      "duration": 0.0161,
      "velocity": 124,
      "chip": "ym2612"
    },
    {
      "channel": 0,
      "note": 44,
      "start": 21.0712,
      "duration": 0.0161,
      "velocity": 115,
      "chip": "ym2612"
    },
    {
      "channel": 4,
      "note": 81,
      "start": 21.0724,
      "duration": 0.0161,
      "velocity": 94,
      "chip": "ym2612"
    },
    {
      "channel": 3,
      "note": 81,
      "start": 21.0735,
      "duration": 0.0161,
      "velocity": 94,
      "chip": "ym2612"
    },
    {
      "channel": 2,
      "note": 50,
      "start": 21.0746,
      "duration": 0.0162,
      "velocity": 100,
      "chip": "ym2612"
    },
    {
      "channel": 1,
      "note": 64,
      "start": 21.0856,
      "duration": 0.0161,
      "velocity": 124,
      "chip": "ym2612"
    },
    {
      "channel": 0,
      "note": 44,
      "start": 21.0873,
      "duration": 0.0161,
      "velocity": 115,
      "chip": "ym2612"
    },
    {
      "channel": 4,
      "note": 81,
      "start": 21.0885,
      "duration": 0.0161,
      "velocity": 94,
      "chip": "ym2612"
    },
    {
      "channel": 3,
      "note": 81,
      "start": 21.0896,
      "duration": 0.0161,
      "velocity": 94,
      "chip": "ym2612"
    },
    {
      "channel": 2,
      "note": 50,
      "start": 21.0908,
      "duration": 0.0161,
      "velocity": 100,
      "chip": "ym2612"
    },
    {
      "channel": 1,
      "note": 64,
      "start": 21.1017,
      "duration": 0.0178,
      "velocity": 105,
      "chip": "ym2612"
    },
    {
      "channel": 0,
      "note": 45,
      "start": 21.1034,
      "duration": 0.0178,
      "velocity": 115,
      "chip": "ym2612"
    },
    {
      "channel": 4,
      "note": 81,
      "start": 21.1046,
      "duration": 0.0181,
      "velocity": 94,
      "chip": "ym2612"
    },
    {
      "channel": 3,
      "note": 81,
      "start": 21.1057,
      "duration": 0.0181,
      "velocity": 94,
      "chip": "ym2612"
    },
    {
      "channel": 2,
      "note": 50,
      "start": 21.1068,
      "duration": 0.0183,
      "velocity": 100,
      "chip": "ym2612"
    },
    {
      "channel": 1,
      "note": 105,
      "start": 21.1195,
      "duration": 0.0144,
      "velocity": 105,
      "chip": "ym2612"
    },
    {
      "channel": 0,
      "note": 45,
      "start": 21.1212,
      "duration": 0.0144,
      "velocity": 115,
      "chip": "ym2612"
    },
    {
      "channel": 4,
      "note": 81,
      "start": 21.1226,
      "duration": 0.0142,
      "velocity": 94,
      "chip": "ym2612"
    },
    {
      "channel": 3,
      "note": 81,
      "start": 21.1238,
      "duration": 0.0142,
      "velocity": 94,
      "chip": "ym2612"
    },
    {
      "channel": 2,
      "note": 50,
      "start": 21.1252,
      "duration": 0.014,
      "velocity": 100,
      "chip": "ym2612"
    },
    {
      "channel": 1,
      "note": 105,
      "start": 21.1339,
      "duration": 0.0161,
      "velocity": 105,
      "chip": "ym2612"
    },
    {
      "channel": 0,
      "note": 46,
      "start": 21.1357,
      "duration": 0.016,
      "velocity": 115,
      "chip": "ym2612"
    },
    {
      "channel": 4,
      "note": 81,
      "start": 21.1369,
      "duration": 0.016,
      "velocity": 94,
      "chip": "ym2612"
    },
    {
      "channel": 3,
      "note": 81,
      "start": 21.138,
      "duration": 0.016,
      "velocity": 94,
      "chip": "ym2612"
    },
    {
      "channel": 2,
      "note": 50,
      "start": 21.1392,
      "duration": 0.0159,
      "velocity": 100,
      "chip": "ym2612"
    },
    {
      "channel": 1,
      "note": 105,
      "start": 21.15,
      "duration": 0.0161,
      "velocity": 105,
      "chip": "ym2612"
    },
    {
      "channel": 0,
      "note": 46,
      "start": 21.1517,
      "duration": 0.0161,
      "velocity": 115,
      "chip": "ym2612"
    },
    {
      "channel": 4,
      "note": 81,
      "start": 21.1529,
      "duration": 0.0161,
      "velocity": 94,
      "chip": "ym2612"
    },
    {
      "channel": 3,
      "note": 81,
      "start": 21.154,
      "duration": 0.0161,
      "velocity": 94,
      "chip": "ym2612"
    },
    {
      "channel": 2,
      "note": 50,
      "start": 21.1551,
      "duration": 0.0161,
      "velocity": 100,
      "chip": "ym2612"
    },
    {
      "channel": 1,
      "note": 105,
      "start": 21.1661,
      "duration": 0.0161,
      "velocity": 105,
      "chip": "ym2612"
    },
    {
      "channel": 0,
      "note": 47,
      "start": 21.1678,
      "duration": 0.0161,
      "velocity": 115,
      "chip": "ym2612"
    },
    {
      "channel": 4,
      "note": 81,
      "start": 21.1689,
      "duration": 0.0161,
      "velocity": 94,
      "chip": "ym2612"
    },
    {
      "channel": 3,
      "note": 81,
      "start": 21.1701,
      "duration": 0.0161,
      "velocity": 94,
      "chip": "ym2612"
    },
    {
      "channel": 2,
      "note": 50,
      "start": 21.1712,
      "duration": 0.0161,
      "velocity": 100,
      "chip": "ym2612"
    },
    {
      "channel": 1,
      "note": 105,
      "start": 21.1822,
      "duration": 0.0161,
      "velocity": 105,
      "chip": "ym2612"
    },
    {
      "channel": 0,
      "note": 47,
      "start": 21.1839,
      "duration": 0.0161,
      "velocity": 115,
      "chip": "ym2612"
    },
    {
      "channel": 4,
      "note": 81,
      "start": 21.185,
      "duration": 0.0161,
      "velocity": 94,
      "chip": "ym2612"
    },
    {
      "channel": 3,
      "note": 81,
      "start": 21.1862,
      "duration": 0.0161,
      "velocity": 94,
      "chip": "ym2612"
    },
    {
      "channel": 2,
      "note": 50,
      "start": 21.1873,
      "duration": 0.0161,
      "velocity": 100,
      "chip": "ym2612"
    },
    {
      "channel": 1,
      "note": 105,
      "start": 21.1983,
      "duration": 0.0161,
      "velocity": 105,
      "chip": "ym2612"
    },
    {
      "channel": 0,
      "note": 47,
      "start": 21.2,
      "duration": 0.0161,
      "velocity": 115,
      "chip": "ym2612"
    },
    {
      "channel": 4,
      "note": 81,
      "start": 21.2011,
      "duration": 0.0161,
      "velocity": 94,
      "chip": "ym2612"
    },
    {
      "channel": 3,
      "note": 81,
      "start": 21.2023,
      "duration": 0.0162,
      "velocity": 94,
      "chip": "ym2612"
    },
    {
      "channel": 2,
      "note": 50,
      "start": 21.2034,
      "duration": 0.0161,
      "velocity": 100,
      "chip": "ym2612"
    },
    {
      "channel": 1,
      "note": 105,
      "start": 21.2144,
      "duration": 0.0185,
      "velocity": 124,
      "chip": "ym2612"
    },
    {
      "channel": 0,
      "note": 48,
      "start": 21.2161,
      "duration": 0.0192,
      "velocity": 115,
      "chip": "ym2612"
    },
    {
      "channel": 4,
      "note": 81,
      "start": 21.2173,
      "duration": 0.0193,
      "velocity": 94,
      "chip": "ym2612"
    },
    {
      "channel": 3,
      "note": 81,
      "start": 21.2184,
      "duration": 0.0195,
      "velocity": 94,
      "chip": "ym2612"
    },
    {
      "channel": 2,
      "note": 50,
      "start": 21.2195,
      "duration": 0.0198,
      "velocity": 100,
      "chip": "ym2612"
    },
    {
      "channel": 1,
      "note": 78,
      "start": 21.2329,
      "duration": 0.0149,
      "velocity": 124,
      "chip": "ym2612"
    },
    {
      "channel": 0,
      "note": 48,
      "start": 21.2353,
      "duration": 0.0144,
      "velocity": 115,
      "chip": "ym2612"
    },
    {
      "channel": 4,
      "note": 81,
      "start": 21.2366,
      "duration": 0.0144,
      "velocity": 94,
      "chip": "ym2612"
    },
    {
      "channel": 3,
      "note": 81,
      "start": 21.238,
      "duration": 0.0142,
      "velocity": 94,
      "chip": "ym2612"
    },
    {
      "channel": 2,
      "note": 48,
      "start": 21.2394,
      "duration": 0.0139,
      "velocity": 100,
      "chip": "ym2612"
    },
    {
      "channel": 1,
      "note": 76,
      "start": 21.2478,
      "duration": 0.0163,
      "velocity": 124,
      "chip": "ym2612"
    },
    {
      "channel": 0,
      "note": 49,
      "start": 21.2497,
      "duration": 0.0155,
      "velocity": 1,
      "chip": "ym2612"
    },
    {
      "channel": 4,
      "note": 81,
      "start": 21.251,
      "duration": 0.0153,
      "velocity": 94,
      "chip": "ym2612"
    },
    {
      "channel": 3,
      "note": 81,
      "start": 21.2522,
      "duration": 0.0153,
      "velocity": 94,
      "chip": "ym2612"
    },
    {
      "channel": 2,
      "note": 48,
      "start": 21.2534,
      "duration": 0.0153,
      "velocity": 100,
      "chip": "ym2612"
    },
    {
      "channel": 1,
      "note": 75,
      "start": 21.2641,
      "duration": 0.0152,
      "velocity": 124,
      "chip": "ym2612"
    },
    {
      "channel": 4,
      "note": 81,
      "start": 21.2663,
      "duration": 0.0144,
      "velocity": 94,
      "chip": "ym2612"
    },
    {
      "channel": 3,
      "note": 81,
      "start": 21.2675,
      "duration": 0.0144,
      "velocity": 94,
      "chip": "ym2612"
    },
    {
      "channel": 2,
      "note": 48,
      "start": 21.2686,
      "duration": 0.0144,
      "velocity": 100,
      "chip": "ym2612"
    },
    {
      "channel": 1,
      "note": 74,
      "start": 21.2793,
      "duration": 0.0184,
      "velocity": 124,
      "chip": "ym2612"
    },
    {
      "channel": 4,
      "note": 81,
      "start": 21.2807,
      "duration": 0.0185,
      "velocity": 94,
      "chip": "ym2612"
    },
    {
      "channel": 3,
      "note": 81,
      "start": 21.2819,
      "duration": 0.0184,
      "velocity": 94,
      "chip": "ym2612"
    },
    {
      "channel": 2,
      "note": 48,
      "start": 21.283,
      "duration": 0.0185,
      "velocity": 100,
      "chip": "ym2612"
    },
    {
      "channel": 1,
      "note": 72,
      "start": 21.2978,
      "duration": 0.0166,
      "velocity": 124,
      "chip": "ym2612"
    },
    {
      "channel": 4,
      "note": 81,
      "start": 21.2992,
      "duration": 0.0165,
      "velocity": 94,
      "chip": "ym2612"
    },
    {
      "channel": 3,
      "note": 81,
      "start": 21.3003,
      "duration": 0.0166,
      "velocity": 94,
      "chip": "ym2612"
    },
    {
      "channel": 2,
      "note": 48,
      "start": 21.3015,
      "duration": 0.0165,
      "velocity": 100,
      "chip": "ym2612"
    },
    {
      "channel": 1,
      "note": 71,
      "start": 21.3143,
      "duration": 0.0157,
      "velocity": 124,
      "chip": "ym2612"
    },
    {
      "channel": 4,
      "note": 81,
      "start": 21.3157,
      "duration": 0.0157,
      "velocity": 94,
      "chip": "ym2612"
    },
    {
      "channel": 3,
      "note": 81,
      "start": 21.3168,
      "duration": 0.0157,
      "velocity": 94,
      "chip": "ym2612"
    },
    {
      "channel": 2,
      "note": 48,
      "start": 21.3179,
      "duration": 0.0158,
      "velocity": 100,
      "chip": "ym2612"
    },
    {
      "channel": 1,
      "note": 70,
      "start": 21.33,
      "duration": 0.0141,
      "velocity": 124,
      "chip": "ym2612"
    },
    {
      "channel": 4,
      "note": 81,
      "start": 21.3314,
      "duration": 0.0148,
      "velocity": 94,
      "chip": "ym2612"
    },
    {
      "channel": 3,
      "note": 81,
      "start": 21.3326,
      "duration": 0.0149,
      "velocity": 94,
      "chip": "ym2612"
    },
    {
      "channel": 2,
      "note": 48,
      "start": 21.3337,
      "duration": 0.0151,
      "velocity": 100,
      "chip": "ym2612"
    },
    {
      "channel": 1,
      "note": 69,
      "start": 21.3441,
      "duration": 0.0185,
      "velocity": 124,
      "chip": "ym2612"
    },
    {
      "channel": 4,
      "note": 81,
      "start": 21.3462,
      "duration": 0.0179,
      "velocity": 94,
      "chip": "ym2612"
    },
    {
      "channel": 3,
      "note": 81,
      "start": 21.3475,
      "duration": 0.0178,
      "velocity": 94,
      "chip": "ym2612"
    },
    {
      "channel": 2,
      "note": 48,
      "start": 21.3489,
      "duration": 0.0176,
      "velocity": 100,
      "chip": "ym2612"
    },
    {
      "channel": 1,
      "note": 68,
      "start": 21.3626,
      "duration": 0.0134,
      "velocity": 124,
      "chip": "ym2612"
    },
    {
      "channel": 4,
      "note": 81,
      "start": 21.3641,
      "duration": 0.016,
      "velocity": 94,
      "chip": "ym2612"
    },
    {
      "channel": 3,
      "note": 81,
      "start": 21.3653,
      "duration": 0.016,
      "velocity": 94,
      "chip": "ym2612"
    },
    {
      "channel": 2,
      "note": 48,
      "start": 21.3665,
      "duration": 0.0159,
      "velocity": 100,
      "chip": "ym2612"
    },
    {
      "channel": 1,
      "note": 66,
      "start": 21.3759,
      "duration": 0.0161,
      "velocity": 124,
      "chip": "ym2612"
    },
    {
      "channel": 4,
      "note": 81,
      "start": 21.3801,
      "duration": 0.0157,
      "velocity": 94,
      "chip": "ym2612"
    },
    {
      "channel": 3,
      "note": 81,
      "start": 21.3812,
      "duration": 0.0157,
      "velocity": 94,
      "chip": "ym2612"
    },
    {
      "channel": 2,
      "note": 48,
      "start": 21.3824,
      "duration": 0.0157,
      "velocity": 100,
      "chip": "ym2612"
    },
    {
      "channel": 1,
      "note": 65,
      "start": 21.392,
      "duration": 0.0161,
      "velocity": 124,
      "chip": "ym2612"
    },
    {
      "channel": 4,
      "note": 81,
      "start": 21.3958,
      "duration": 0.0137,
      "velocity": 94,
      "chip": "ym2612"
    },
    {
      "channel": 3,
      "note": 81,
      "start": 21.3969,
      "duration": 0.0141,
      "velocity": 94,
      "chip": "ym2612"
    },
    {
      "channel": 2,
      "note": 48,
      "start": 21.3981,
      "duration": 0.0141,
      "velocity": 100,
      "chip": "ym2612"
    },
    {
      "channel": 1,
      "note": 64,
      "start": 21.4081,
      "duration": 0.0161,
      "velocity": 124,
      "chip": "ym2612"
    },
    {
      "channel": 4,
      "note": 81,
      "start": 21.4095,
      "duration": 0.0161,
      "velocity": 94,
      "chip": "ym2612"
    },
    {
      "channel": 3,
      "note": 81,
      "start": 21.411,
      "duration": 0.0185,
      "velocity": 94,
      "chip": "ym2612"
    },
    {
      "channel": 2,
      "note": 48,
      "start": 21.4121,
      "duration": 0.0185,
      "velocity": 100,
      "chip": "ym2612"
    },
    {
      "channel": 1,
      "note": 62,
      "start": 21.4242,
      "duration": 0.0161,
      "velocity": 124,
      "chip": "ym2612"
    },
    {
      "channel": 4,
      "note": 81,
      "start": 21.4256,
      "duration": 0.0161,
      "velocity": 94,
      "chip": "ym2612"
    },
    {
      "channel": 3,
      "note": 81,
      "start": 21.4295,
      "duration": 0.0134,
      "velocity": 94,
      "chip": "ym2612"
    },
    {
      "channel": 2,
      "note": 48,
      "start": 21.4307,
      "duration": 0.0161,
      "velocity": 100,
      "chip": "ym2612"
    },
    {
      "channel": 1,
      "note": 61,
      "start": 21.4403,
      "duration": 0.0162,
      "velocity": 124,
      "chip": "ym2612"
    },
    {
      "channel": 4,
      "note": 81,
      "start": 21.4417,
      "duration": 0.0167,
      "velocity": 94,
      "chip": "ym2612"
    },
    {
      "channel": 3,
      "note": 81,
      "start": 21.4429,
      "duration": 0.0169,
      "velocity": 94,
      "chip": "ym2612"
    },
    {
      "channel": 2,
      "note": 48,
      "start": 21.4467,
      "duration": 0.0168,
      "velocity": 100,
      "chip": "ym2612"
    },
    {
      "channel": 1,
      "note": 60,
      "start": 21.4565,
      "duration": 0.0161,
      "velocity": 124,
      "chip": "ym2612"
    },
    {
      "channel": 4,
      "note": 81,
      "start": 21.4584,
      "duration": 0.0156,
      "velocity": 94,
      "chip": "ym2612"
    },
    {
      "channel": 3,
      "note": 81,
      "start": 21.4598,
      "duration": 0.0154,
      "velocity": 94,
      "chip": "ym2612"
    },
    {
      "channel": 2,
      "note": 48,
      "start": 21.4636,
      "duration": 0.0127,
      "velocity": 100,
      "chip": "ym2612"
    },
    {
      "channel": 1,
      "note": 59,
      "start": 21.4726,
      "duration": 0.0161,
      "velocity": 124,
      "chip": "ym2612"
    },
    {
      "channel": 4,
      "note": 81,
      "start": 21.474,
      "duration": 0.016,
      "velocity": 94,
      "chip": "ym2612"
    },
    {
      "channel": 3,
      "note": 81,
      "start": 21.4752,
      "duration": 0.016,
      "velocity": 94,
      "chip": "ym2612"
    },
    {
      "channel": 2,
      "note": 48,
      "start": 21.4763,
      "duration": 0.016,
      "velocity": 100,
      "chip": "ym2612"
    },
    {
      "channel": 1,
      "note": 57,
      "start": 21.4887,
      "duration": 0.0161,
      "velocity": 124,
      "chip": "ym2612"
    },
    {
      "channel": 4,
      "note": 81,
      "start": 21.49,
      "duration": 0.0162,
      "velocity": 94,
      "chip": "ym2612"
    },
    {
      "channel": 3,
      "note": 81,
      "start": 21.4911,
      "duration": 0.0162,
      "velocity": 94,
      "chip": "ym2612"
    },
    {
      "channel": 2,
      "note": 48,
      "start": 21.4923,
      "duration": 0.0162,
      "velocity": 100,
      "chip": "ym2612"
    },
    {
      "channel": 1,
      "note": 56,
      "start": 21.5048,
      "duration": 0.0161,
      "velocity": 124,
      "chip": "ym2612"
    },
    {
      "channel": 4,
      "note": 81,
      "start": 21.5062,
      "duration": 0.0161,
      "velocity": 94,
      "chip": "ym2612"
    },
    {
      "channel": 3,
      "note": 81,
      "start": 21.5073,
      "duration": 0.0161,
      "velocity": 94,
      "chip": "ym2612"
    },
    {
      "channel": 2,
      "note": 48,
      "start": 21.5085,
      "duration": 0.0161,
      "velocity": 100,
      "chip": "ym2612"
    },
    {
      "channel": 1,
      "note": 55,
      "start": 21.5209,
      "duration": 0.0161,
      "velocity": 124,
      "chip": "ym2612"
    },
    {
      "channel": 4,
      "note": 81,
      "start": 21.5222,
      "duration": 0.0161,
      "velocity": 94,
      "chip": "ym2612"
    },
    {
      "channel": 3,
      "note": 81,
      "start": 21.5234,
      "duration": 0.0161,
      "velocity": 94,
      "chip": "ym2612"
    },
    {
      "channel": 2,
      "note": 48,
      "start": 21.5245,
      "duration": 0.0161,
      "velocity": 100,
      "chip": "ym2612"
    },
    {
      "channel": 1,
      "note": 53,
      "start": 21.5369,
      "duration": 0.0161,
      "velocity": 124,
      "chip": "ym2612"
    },
    {
      "channel": 4,
      "note": 81,
      "start": 21.5383,
      "duration": 0.0161,
      "velocity": 94,
      "chip": "ym2612"
    },
    {
      "channel": 3,
      "note": 81,
      "start": 21.5395,
      "duration": 0.0161,
      "velocity": 94,
      "chip": "ym2612"
    },
    {
      "channel": 2,
      "note": 48,
      "start": 21.5406,
      "duration": 0.0161,
      "velocity": 100,
      "chip": "ym2612"
    },
    {
      "channel": 1,
      "note": 52,
      "start": 21.553,
      "duration": 0.0161,
      "velocity": 124,
      "chip": "ym2612"
    },
    {
      "channel": 4,
      "note": 81,
      "start": 21.5544,
      "duration": 0.0203,
      "velocity": 94,
      "chip": "ym2612"
    },
    {
      "channel": 3,
      "note": 81,
      "start": 21.5556,
      "duration": 0.0204,
      "velocity": 94,
      "chip": "ym2612"
    },
    {
      "channel": 2,
      "note": 48,
      "start": 21.5567,
      "duration": 0.0233,
      "velocity": 100,
      "chip": "ym2612"
    },
    {
      "channel": 1,
      "note": 51,
      "start": 21.5691,
      "duration": 0.0153,
      "velocity": 1,
      "chip": "ym2612"
    },
    {
      "channel": 0,
      "note": 78,
      "start": 21.5734,
      "duration": 0.0149,
      "velocity": 127,
      "chip": "ym2612"
    },
    {
      "channel": 4,
      "note": 79,
      "start": 21.5749,
      "duration": 0.0147,
      "velocity": 94,
      "chip": "ym2612"
    },
    {
      "channel": 3,
      "note": 81,
      "start": 21.576,
      "duration": 0.0147,
      "velocity": 94,
      "chip": "ym2612"
    },
    {
      "channel": 2,
      "note": 48,
      "start": 21.5801,
      "duration": 0.0118,
      "velocity": 100,
      "chip": "ym2612"
    },
    {
      "channel": 1,
      "note": 51,
      "start": 21.5866,
      "duration": 0.0143,
      "velocity": 105,
      "chip": "ym2612"
    },
    {
      "channel": 0,
      "note": 76,
      "start": 21.5883,
      "duration": 0.0142,
      "velocity": 127,
      "chip": "ym2612"
    },
    {
      "channel": 4,
      "note": 79,
      "start": 21.5895,
      "duration": 0.0141,
      "velocity": 94,
      "chip": "ym2612"
    },
    {
      "channel": 3,
      "note": 81,
      "start": 21.5907,
      "duration": 0.0141,
      "velocity": 94,
      "chip": "ym2612"
    },
    {
      "channel": 2,
      "note": 48,
      "start": 21.5919,
      "duration": 0.0141,
      "velocity": 100,
      "chip": "ym2612"
    },
    {
      "channel": 1,
      "note": 105,
      "start": 21.6009,
      "duration": 0.0161,
      "velocity": 105,
      "chip": "ym2612"
    },
    {
      "channel": 0,
      "note": 75,
      "start": 21.6025,
      "duration": 0.0161,
      "velocity": 127,
      "chip": "ym2612"
    },
    {
      "channel": 4,
      "note": 79,
      "start": 21.6037,
      "duration": 0.0161,
      "velocity": 94,
      "chip": "ym2612"
    },
    {
      "channel": 3,
      "note": 81,
      "start": 21.6048,
      "duration": 0.0161,
      "velocity": 94,
      "chip": "ym2612"
    },
    {
      "channel": 2,
      "note": 48,
      "start": 21.606,
      "duration": 0.0161,
      "velocity": 100,
      "chip": "ym2612"
    },
    {
      "channel": 1,
      "note": 105,
      "start": 21.617,
      "duration": 0.0161,
      "velocity": 105,
      "chip": "ym2612"
    },
    {
      "channel": 0,
      "note": 73,
      "start": 21.6186,
      "duration": 0.0161,
      "velocity": 127,
      "chip": "ym2612"
    },
    {
      "channel": 4,
      "note": 79,
      "start": 21.6198,
      "duration": 0.0161,
      "velocity": 94,
      "chip": "ym2612"
    },
    {
      "channel": 3,
      "note": 81,
      "start": 21.6209,
      "duration": 0.0161,
      "velocity": 94,
      "chip": "ym2612"
    },
    {
      "channel": 2,
      "note": 48,
      "start": 21.6221,
      "duration": 0.0161,
      "velocity": 100,
      "chip": "ym2612"
    },
    {
      "channel": 1,
      "note": 105,
      "start": 21.6331,
      "duration": 0.0161,
      "velocity": 105,
      "chip": "ym2612"
    },
    {
      "channel": 0,
      "note": 71,
      "start": 21.6347,
      "duration": 0.0161,
      "velocity": 127,
      "chip": "ym2612"
    },
    {
      "channel": 4,
      "note": 79,
      "start": 21.6359,
      "duration": 0.0161,
      "velocity": 94,
      "chip": "ym2612"
    },
    {
      "channel": 3,
      "note": 81,
      "start": 21.637,
      "duration": 0.0162,
      "velocity": 94,
      "chip": "ym2612"
    },
    {
      "channel": 2,
      "note": 48,
      "start": 21.6382,
      "duration": 0.0161,
      "velocity": 100,
      "chip": "ym2612"
    },
    {
      "channel": 1,
      "note": 105,
      "start": 21.6492,
      "duration": 0.0161,
      "velocity": 105,
      "chip": "ym2612"
    },
    {
      "channel": 0,
      "note": 70,
      "start": 21.6508,
      "duration": 0.0161,
      "velocity": 127,
      "chip": "ym2612"
    },
    {
      "channel": 4,
      "note": 79,
      "start": 21.652,
      "duration": 0.0161,
      "velocity": 94,
      "chip": "ym2612"
    },
    {
      "channel": 3,
      "note": 81,
      "start": 21.6532,
      "duration": 0.0161,
      "velocity": 94,
      "chip": "ym2612"
    },
    {
      "channel": 2,
      "note": 48,
      "start": 21.6542,
      "duration": 0.0161,
      "velocity": 100,
      "chip": "ym2612"
    },
    {
      "channel": 1,
      "note": 105,
      "start": 21.6653,
      "duration": 0.0178,
      "velocity": 124,
      "chip": "ym2612"
    },
    {
      "channel": 0,
      "note": 68,
      "start": 21.6669,
      "duration": 0.0196,
      "velocity": 115,
      "chip": "ym2612"
    },
    {
      "channel": 4,
      "note": 79,
      "start": 21.6681,
      "duration": 0.0197,
      "velocity": 94,
      "chip": "ym2612"
    },
    {
      "channel": 3,
      "note": 81,
      "start": 21.6693,
      "duration": 0.0199,
      "velocity": 94,
      "chip": "ym2612"
    },
    {
      "channel": 2,
      "note": 48,
      "start": 21.6703,
      "duration": 0.0202,
      "velocity": 100,
      "chip": "ym2612"
    },
    {
      "channel": 1,
      "note": 64,
      "start": 21.6831,
      "duration": 0.0145,
      "velocity": 124,
      "chip": "ym2612"
    },
    {
      "channel": 0,
      "note": 36,
      "start": 21.6866,
      "duration": 0.0128,
      "velocity": 115,
      "chip": "ym2612"
    },
    {
      "channel": 4,
      "note": 79,
      "start": 21.6878,
      "duration": 0.0128,
      "velocity": 94,
      "chip": "ym2612"
    },
    {
      "channel": 3,
      "note": 79,
      "start": 21.6892,
      "duration": 0.0126,
      "velocity": 94,
      "chip": "ym2612"
    },
    {
      "channel": 2,
      "note": 57,
      "start": 21.6906,
      "duration": 0.0123,
      "velocity": 100,
      "chip": "ym2612"
    },
    {
      "channel": 1,
      "note": 64,
      "start": 21.6976,
      "duration": 0.0163,
      "velocity": 124,
      "chip": "ym2612"
    },
    {
      "channel": 0,
      "note": 36,
      "start": 21.6993,
      "duration": 0.0163,
      "velocity": 115,
      "chip": "ym2612"
    },
    {
      "channel": 4,
      "note": 79,
      "start": 21.7006,
      "duration": 0.0163,
      "velocity": 94,
      "chip": "ym2612"
    },
    {
      "channel": 3,
      "note": 79,
      "start": 21.7018,
      "duration": 0.0162,
      "velocity": 94,
      "chip": "ym2612"
    },
    {
      "channel": 2,
      "note": 57,
      "start": 21.7029,
      "duration": 0.0162,
      "velocity": 100,
      "chip": "ym2612"
    },
    {
      "channel": 1,
      "note": 64,
      "start": 21.714,
      "duration": 0.0163,
      "velocity": 124,
      "chip": "ym2612"
    },
    {
      "channel": 0,
      "note": 37,
      "start": 21.7156,
      "duration": 0.0163,
      "velocity": 115,
      "chip": "ym2612"
    },
    {
      "channel": 4,
      "note": 79,
      "start": 21.7168,
      "duration": 0.0163,
      "velocity": 94,
      "chip": "ym2612"
    },
    {
      "channel": 3,
      "note": 79,
      "start": 21.718,
      "duration": 0.0163,
      "velocity": 94,
      "chip": "ym2612"
    },
    {
      "channel": 2,
      "note": 57,
      "start": 21.7191,
      "duration": 0.0163,
      "velocity": 100,
      "chip": "ym2612"
    },
    {
      "channel": 1,
      "note": 64,
      "start": 21.7303,
      "duration": 0.0155,
      "velocity": 124,
      "chip": "ym2612"
    },
    {
      "channel": 0,
      "note": 37,
      "start": 21.7319,
      "duration": 0.0155,
      "velocity": 115,
      "chip": "ym2612"
    },
    {
      "channel": 4,
      "note": 79,
      "start": 21.7331,
      "duration": 0.0155,
      "velocity": 94,
      "chip": "ym2612"
    },
    {
      "channel": 3,
      "note": 79,
      "start": 21.7343,
      "duration": 0.0155,
      "velocity": 94,
      "chip": "ym2612"
    },
    {
      "channel": 2,
      "note": 57,
      "start": 21.7354,
      "duration": 0.0155,
      "velocity": 100,
      "chip": "ym2612"
    },
    {
      "channel": 1,
      "note": 64,
      "start": 21.7458,
      "duration": 0.0182,
      "velocity": 124,
      "chip": "ym2612"
    },
    {
      "channel": 0,
      "note": 38,
      "start": 21.7474,
      "duration": 0.0182,
      "velocity": 115,
      "chip": "ym2612"
    },
    {
      "channel": 4,
      "note": 79,
      "start": 21.7486,
      "duration": 0.0182,
      "velocity": 94,
      "chip": "ym2612"
    },
    {
      "channel": 3,
      "note": 79,
      "start": 21.7498,
      "duration": 0.0182,
      "velocity": 94,
      "chip": "ym2612"
    },
    {
      "channel": 2,
      "note": 57,
      "start": 21.7509,
      "duration": 0.0182,
      "velocity": 100,
      "chip": "ym2612"
    },
    {
      "channel": 1,
      "note": 64,
      "start": 21.764,
      "duration": 0.0167,
      "velocity": 124,
      "chip": "ym2612"
    },
    {
      "channel": 0,
      "note": 38,
      "start": 21.7656,
      "duration": 0.0167,
      "velocity": 115,
      "chip": "ym2612"
    },
    {
      "channel": 4,
      "note": 79,
      "start": 21.7668,
      "duration": 0.0167,
      "velocity": 94,
      "chip": "ym2612"
    },
    {
      "channel": 3,
      "note": 79,
      "start": 21.768,
      "duration": 0.0167,
      "velocity": 94,
      "chip": "ym2612"
    },
    {
      "channel": 2,
      "note": 57,
      "start": 21.7691,
      "duration": 0.0167,
      "velocity": 100,
      "chip": "ym2612"
    },
    {
      "channel": 1,
      "note": 64,
      "start": 21.7807,
      "duration": 0.0175,
      "velocity": 105,
      "chip": "ym2612"
    },
    {
      "channel": 0,
      "note": 39,
      "start": 21.7823,
      "duration": 0.0176,
      "velocity": 115,
      "chip": "ym2612"
    },
    {
      "channel": 4,
      "note": 79,
      "start": 21.7835,
      "duration": 0.0178,
      "velocity": 94,
      "chip": "ym2612"
    },
    {
      "channel": 3,
      "note": 79,
      "start": 21.7846,
      "duration": 0.0178,
      "velocity": 94,
      "chip": "ym2612"
    },
    {
      "channel": 2,
      "note": 57,
      "start": 21.7857,
      "duration": 0.0181,
      "velocity": 100,
      "chip": "ym2612"
    },
    {
      "channel": 1,
      "note": 105,
      "start": 21.7982,
      "duration": 0.0123,
      "velocity": 105,
      "chip": "ym2612"
    },
    {
      "channel": 0,
      "note": 39,
      "start": 21.7999,
      "duration": 0.0123,
      "velocity": 115,
      "chip": "ym2612"
    },
    {
      "channel": 4,
      "note": 81,
      "start": 21.8013,
      "duration": 0.0121,
      "velocity": 94,
      "chip": "ym2612"
    },
    {
      "channel": 3,
      "note": 79,
      "start": 21.8025,
      "duration": 0.0121,
      "velocity": 94,
      "chip": "ym2612"
    },
    {
      "channel": 2,
      "note": 57,
      "start": 21.8039,
      "duration": 0.0119,
      "velocity": 100,
      "chip": "ym2612"
    },
    {
      "channel": 1,
      "note": 105,
      "start": 21.8105,
      "duration": 0.0157,
      "velocity": 105,
      "chip": "ym2612"
    },
    {
      "channel": 0,
      "note": 40,
      "start": 21.8122,
      "duration": 0.0185,
      "velocity": 115,
      "chip": "ym2612"
    },
    {
      "channel": 4,
      "note": 81,
      "start": 21.8134,
      "duration": 0.0185,
      "velocity": 94,
      "chip": "ym2612"
    },
    {
      "channel": 3,
      "note": 79,
      "start": 21.8146,
      "duration": 0.0184,
      "velocity": 94,
      "chip": "ym2612"
    },
    {
      "channel": 2,
      "note": 57,
      "start": 21.8158,
      "duration": 0.0184,
      "velocity": 100,
      "chip": "ym2612"
    },
    {
      "channel": 1,
      "note": 105,
      "start": 21.8263,
      "duration": 0.0161,
      "velocity": 105,
      "chip": "ym2612"
    },
    {
      "channel": 0,
      "note": 40,
      "start": 21.8307,
      "duration": 0.0161,
      "velocity": 115,
      "chip": "ym2612"
    },
    {
      "channel": 4,
      "note": 81,
      "start": 21.8319,
      "duration": 0.0161,
      "velocity": 94,
      "chip": "ym2612"
    },
    {
      "channel": 3,
      "note": 79,
      "start": 21.833,
      "duration": 0.0161,
      "velocity": 94,
      "chip": "ym2612"
    },
    {
      "channel": 2,
      "note": 57,
      "start": 21.8341,
      "duration": 0.0161,
      "velocity": 100,
      "chip": "ym2612"
    },
    {
      "channel": 1,
      "note": 105,
      "start": 21.8424,
      "duration": 0.0161,
      "velocity": 105,
      "chip": "ym2612"
    },
    {
      "channel": 0,
      "note": 40,
      "start": 21.8468,
      "duration": 0.0157,
      "velocity": 115,
      "chip": "ym2612"
    },
    {
      "channel": 4,
      "note": 81,
      "start": 21.848,
      "duration": 0.0157,
      "velocity": 94,
      "chip": "ym2612"
    },
    {
      "channel": 3,
      "note": 79,
      "start": 21.8491,
      "duration": 0.0157,
      "velocity": 94,
      "chip": "ym2612"
    },
    {
      "channel": 2,
      "note": 57,
      "start": 21.8502,
      "duration": 0.0157,
      "velocity": 100,
      "chip": "ym2612"
    },
    {
      "channel": 1,
      "note": 105,
      "start": 21.8585,
      "duration": 0.0161,
      "velocity": 105,
      "chip": "ym2612"
    },
    {
      "channel": 0,
      "note": 41,
      "start": 21.8625,
      "duration": 0.0137,
      "velocity": 115,
      "chip": "ym2612"
    },
    {
      "channel": 4,
      "note": 81,
      "start": 21.8637,
      "duration": 0.0141,
      "velocity": 94,
      "chip": "ym2612"
    },
    {
      "channel": 3,
      "note": 79,
      "start": 21.8648,
      "duration": 0.0141,
      "velocity": 94,
      "chip": "ym2612"
    },
    {
      "channel": 2,
      "note": 57,
      "start": 21.866,
      "duration": 0.0141,
      "velocity": 100,
      "chip": "ym2612"
    },
    {
      "channel": 1,
      "note": 105,
      "start": 21.8745,
      "duration": 0.0162,
      "velocity": 105,
      "chip": "ym2612"
    },
    {
      "channel": 0,
      "note": 41,
      "start": 21.8763,
      "duration": 0.0161,
      "velocity": 115,
      "chip": "ym2612"
    },
    {
      "channel": 4,
      "note": 81,
      "start": 21.8777,
      "duration": 0.0186,
      "velocity": 94,
      "chip": "ym2612"
    },
    {
      "channel": 3,
      "note": 79,
      "start": 21.8789,
      "duration": 0.0186,
      "velocity": 94,
      "chip": "ym2612"
    },
    {
      "channel": 2,
      "note": 57,
      "start": 21.88,
      "duration": 0.0185,
      "velocity": 100,
      "chip": "ym2612"
    },
    {
      "channel": 1,
      "note": 105,
      "start": 21.8907,
      "duration": 0.0178,
      "velocity": 124,
      "chip": "ym2612"
    },
    {
      "channel": 0,
      "note": 42,
      "start": 21.8924,
      "duration": 0.0206,
      "velocity": 115,
      "chip": "ym2612"
    },
    {
      "channel": 4,
      "note": 81,
      "start": 21.8963,
      "duration": 0.0178,
      "velocity": 94,
      "chip": "ym2612"
    },
    {
      "channel": 3,
      "note": 79,
      "start": 21.8974,
      "duration": 0.0181,
      "velocity": 94,
      "chip": "ym2612"
    },
    {
      "channel": 2,
      "note": 57,
      "start": 21.8985,
      "duration": 0.0184,
      "velocity": 100,
      "chip": "ym2612"
    },
    {
      "channel": 1,
      "note": 64,
      "start": 21.9085,
      "duration": 0.0144,
      "velocity": 124,
      "chip": "ym2612"
    },
    {
      "channel": 0,
      "note": 42,
      "start": 21.913,
      "duration": 0.0116,
      "velocity": 115,
      "chip": "ym2612"
    },
    {
      "channel": 4,
      "note": 81,
      "start": 21.9141,
      "duration": 0.0117,
      "velocity": 94,
      "chip": "ym2612"
    },
    {
      "channel": 3,
      "note": 81,
      "start": 21.9155,
      "duration": 0.0139,
      "velocity": 94,
      "chip": "ym2612"
    },
    {
      "channel": 2,
      "note": 57,
      "start": 21.917,
      "duration": 0.0136,
      "velocity": 100,
      "chip": "ym2612"
    },
    {
      "channel": 1,
      "note": 64,
      "start": 21.9229,
      "duration": 0.016,
      "velocity": 124,
      "chip": "ym2612"
    },
    {
      "channel": 0,
      "note": 43,
      "start": 21.9246,
      "duration": 0.016,
      "velocity": 115,
      "chip": "ym2612"
    },
    {
      "channel": 4,
      "note": 81,
      "start": 21.9258,
      "duration": 0.0161,
      "velocity": 94,
      "chip": "ym2612"
    },
    {
      "channel": 3,
      "note": 81,
      "start": 21.9294,
      "duration": 0.0136,
      "velocity": 94,
      "chip": "ym2612"
    },
    {
      "channel": 2,
      "note": 57,
      "start": 21.9305,
      "duration": 0.0139,
      "velocity": 100,
      "chip": "ym2612"
    },
    {
      "channel": 1,
      "note": 64,
      "start": 21.939,
      "duration": 0.0161,
      "velocity": 124,
      "chip": "ym2612"
    },
    {
      "channel": 0,
      "note": 43,
      "start": 21.9406,
      "duration": 0.0161,
      "velocity": 115,
      "chip": "ym2612"
    },
    {
      "channel": 4,
      "note": 81,
      "start": 21.9418,
      "duration": 0.0161,
      "velocity": 94,
      "chip": "ym2612"
    },
    {
      "channel": 3,
      "note": 81,
      "start": 21.943,
      "duration": 0.0161,
      "velocity": 94,
      "chip": "ym2612"
    },
    {
      "channel": 2,
      "note": 57,
      "start": 21.9444,
      "duration": 0.0185,
      "velocity": 100,
      "chip": "ym2612"
    },
    {
      "channel": 1,
      "note": 64,
      "start": 21.9551,
      "duration": 0.0161,
      "velocity": 124,
      "chip": "ym2612"
    },
    {
      "channel": 0,
      "note": 44,
      "start": 21.9567,
      "duration": 0.0161,
      "velocity": 115,
      "chip": "ym2612"
    },
    {
      "channel": 4,
      "note": 81,
      "start": 21.9579,
      "duration": 0.0161,
      "velocity": 94,
      "chip": "ym2612"
    },
    {
      "channel": 3,
      "note": 81,
      "start": 21.9591,
      "duration": 0.0161,
      "velocity": 94,
      "chip": "ym2612"
    },
    {
      "channel": 2,
      "note": 57,
      "start": 21.963,
      "duration": 0.0134,
      "velocity": 100,
      "chip": "ym2612"
    },
    {
      "channel": 1,
      "note": 64,
      "start": 21.9712,
      "duration": 0.0161,
      "velocity": 124,
      "chip": "ym2612"
    },
    {
      "channel": 0,
      "note": 44,
      "start": 21.9729,
      "duration": 0.0161,
      "velocity": 115,
      "chip": "ym2612"
    },
    {
      "channel": 4,
      "note": 81,
      "start": 21.974,
      "duration": 0.0161,
      "velocity": 94,
      "chip": "ym2612"
    },
    {
      "channel": 3,
      "note": 81,
      "start": 21.9752,
      "duration": 0.0161,
      "velocity": 94,
      "chip": "ym2612"
    },
    {
      "channel": 2,
      "note": 57,
      "start": 21.9763,
      "duration": 0.0161,
      "velocity": 100,
      "chip": "ym2612"
    },
    {
      "channel": 1,
      "note": 64,
      "start": 21.9873,
      "duration": 0.0161,
      "velocity": 124,
      "chip": "ym2612"
    },
    {
      "channel": 0,
      "note": 44,
      "start": 21.989,
      "duration": 0.0161,
      "velocity": 115,
      "chip": "ym2612"
    },
    {
      "channel": 4,
      "note": 81,
      "start": 21.9901,
      "duration": 0.0161,
      "velocity": 94,
      "chip": "ym2612"
    },
    {
      "channel": 3,
      "note": 81,
      "start": 21.9913,
      "duration": 0.0161,
      "velocity": 94,
      "chip": "ym2612"
    },
    {
      "channel": 2,
      "note": 57,
      "start": 21.9924,
      "duration": 0.0161,
      "velocity": 100,
      "chip": "ym2612"
    },
    {
      "channel": 1,
      "note": 64,
      "start": 22.0034,
      "duration": 0.0178,
      "velocity": 105,
      "chip": "ym2612"
    },
    {
      "channel": 0,
      "note": 45,
      "start": 22.0051,
      "duration": 0.0178,
      "velocity": 115,
      "chip": "ym2612"
    },
    {
      "channel": 4,
      "note": 81,
      "start": 22.0062,
      "duration": 0.0178,
      "velocity": 94,
      "chip": "ym2612"
    },
    {
      "channel": 3,
      "note": 81,
      "start": 22.0074,
      "duration": 0.0178,
      "velocity": 94,
      "chip": "ym2612"
    },
    {
      "channel": 2,
      "note": 57,
      "start": 22.0085,
      "duration": 0.0208,
      "velocity": 100,
      "chip": "ym2612"
    },
    {
      "channel": 1,
      "note": 105,
      "start": 22.0212,
      "duration": 0.0144,
      "velocity": 105,
      "chip": "ym2612"
    },
    {
      "channel": 0,
      "note": 45,
      "start": 22.0229,
      "duration": 0.0144,
      "velocity": 115,
      "chip": "ym2612"
    },
    {
      "channel": 4,
      "note": 81,
      "start": 22.024,
      "duration": 0.0144,
      "velocity": 94,
      "chip": "ym2612"
    },
    {
      "channel": 3,
      "note": 81,
      "start": 22.0252,
      "duration": 0.0144,
      "velocity": 94,
      "chip": "ym2612"
    },
    {
      "channel": 2,
      "note": 57,
      "start": 22.0294,
      "duration": 0.0115,
      "velocity": 100,
      "chip": "ym2612"
    },
    {
      "channel": 1,
      "note": 105,
      "start": 22.0356,
      "duration": 0.0161,
      "velocity": 105,
      "chip": "ym2612"
    },
    {
      "channel": 0,
      "note": 46,
      "start": 22.0373,
      "duration": 0.016,
      "velocity": 115,
      "chip": "ym2612"
    },
    {
      "channel": 4,
      "note": 81,
      "start": 22.0385,
      "duration": 0.016,
      "velocity": 94,
      "chip": "ym2612"
    },
    {
      "channel": 3,
      "note": 81,
      "start": 22.0396,
      "duration": 0.016,
      "velocity": 94,
      "chip": "ym2612"
    },
    {
      "channel": 2,
      "note": 57,
      "start": 22.0408,
      "duration": 0.016,
      "velocity": 100,
      "chip": "ym2612"
    },
    {
      "channel": 1,
      "note": 105,
      "start": 22.0517,
      "duration": 0.0161,
      "velocity": 105,
      "chip": "ym2612"
    },
    {
      "channel": 0,
      "note": 46,
      "start": 22.0534,
      "duration": 0.0161,
      "velocity": 115,
      "chip": "ym2612"
    },
    {
      "channel": 4,
      "note": 81,
      "start": 22.0545,
      "duration": 0.0161,
      "velocity": 94,
      "chip": "ym2612"
    },
    {
      "channel": 3,
      "note": 81,
      "start": 22.0556,
      "duration": 0.0161,
      "velocity": 94,
      "chip": "ym2612"
    },
    {
      "channel": 2,
      "note": 57,
      "start": 22.0568,
      "duration": 0.0161,
      "velocity": 100,
      "chip": "ym2612"
    },
    {
      "channel": 1,
      "note": 105,
      "start": 22.0678,
      "duration": 0.0161,
      "velocity": 105,
      "chip": "ym2612"
    },
    {
      "channel": 0,
      "note": 47,
      "start": 22.0695,
      "duration": 0.0161,
      "velocity": 115,
      "chip": "ym2612"
    },
    {
      "channel": 4,
      "note": 81,
      "start": 22.0706,
      "duration": 0.0161,
      "velocity": 94,
      "chip": "ym2612"
    },
    {
      "channel": 3,
      "note": 81,
      "start": 22.0717,
      "duration": 0.0161,
      "velocity": 94,
      "chip": "ym2612"
    },
    {
      "channel": 2,
      "note": 57,
      "start": 22.0729,
      "duration": 0.0161,
      "velocity": 100,
      "chip": "ym2612"
    },
    {
      "channel": 1,
      "note": 105,
      "start": 22.0839,
      "duration": 0.0161,
      "velocity": 105,
      "chip": "ym2612"
    },
    {
      "channel": 0,
      "note": 47,
      "start": 22.0856,
      "duration": 0.0161,
      "velocity": 115,
      "chip": "ym2612"
    },
    {
      "channel": 4,
      "note": 81,
      "start": 22.0867,
      "duration": 0.0162,
      "velocity": 94,
      "chip": "ym2612"
    },
    {
      "channel": 3,
      "note": 81,
      "start": 22.0878,
      "duration": 0.0161,
      "velocity": 94,
      "chip": "ym2612"
    },
    {
      "channel": 2,
      "note": 57,
      "start": 22.089,
      "duration": 0.0161,
      "velocity": 100,
      "chip": "ym2612"
    },
    {
      "channel": 1,
      "note": 105,
      "start": 22.1,
      "duration": 0.0161,
      "velocity": 105,
      "chip": "ym2612"
    },
    {
      "channel": 0,
      "note": 47,
      "start": 22.1016,
      "duration": 0.0161,
      "velocity": 115,
      "chip": "ym2612"
    },
    {
      "channel": 4,
      "note": 81,
      "start": 22.1029,
      "duration": 0.0161,
      "velocity": 94,
      "chip": "ym2612"
    },
    {
      "channel": 3,
      "note": 81,
      "start": 22.104,
      "duration": 0.0161,
      "velocity": 94,
      "chip": "ym2612"
    },
    {
      "channel": 2,
      "note": 57,
      "start": 22.1051,
      "duration": 0.0161,
      "velocity": 100,
      "chip": "ym2612"
    },
    {
      "channel": 1,
      "note": 105,
      "start": 22.1161,
      "duration": 0.0184,
      "velocity": 124,
      "chip": "ym2612"
    },
    {
      "channel": 0,
      "note": 48,
      "start": 22.1177,
      "duration": 0.0191,
      "velocity": 115,
      "chip": "ym2612"
    },
    {
      "channel": 4,
      "note": 81,
      "start": 22.1189,
      "duration": 0.0191,
      "velocity": 94,
      "chip": "ym2612"
    },
    {
      "channel": 3,
      "note": 81,
      "start": 22.1201,
      "duration": 0.0191,
      "velocity": 94,
      "chip": "ym2612"
    },
    {
      "channel": 2,
      "note": 57,
      "start": 22.1212,
      "duration": 0.0194,
      "velocity": 100,
      "chip": "ym2612"
    },
    {
      "channel": 1,
      "note": 78,
      "start": 22.1345,
      "duration": 0.0144,
      "velocity": 124,
      "chip": "ym2612"
    },
    {
      "channel": 0,
      "note": 48,
      "start": 22.1369,
      "duration": 0.0139,
      "velocity": 115,
      "chip": "ym2612"
    },
    {
      "channel": 4,
      "note": 81,
      "start": 22.138,
      "duration": 0.0139,
      "velocity": 94,
      "chip": "ym2612"
    },
    {
      "channel": 3,
      "note": 81,
      "start": 22.1392,
      "duration": 0.0139,
      "velocity": 94,
      "chip": "ym2612"
    },
    {
      "channel": 2,
      "note": 57,
      "start": 22.1406,
      "duration": 0.0136,
      "velocity": 100,
      "chip": "ym2612"
    },
    {
      "channel": 1,
      "note": 76,
      "start": 22.1488,
      "duration": 0.016,
      "velocity": 124,
      "chip": "ym2612"
    },
    {
      "channel": 0,
      "note": 49,
      "start": 22.1507,
      "duration": 0.0152,
      "velocity": 1,
      "chip": "ym2612"
    },
    {
      "channel": 4,
      "note": 81,
      "start": 22.152,
      "duration": 0.0151,
      "velocity": 94,
      "chip": "ym2612"
    },
    {
      "channel": 3,
      "note": 81,
      "start": 22.1531,
      "duration": 0.0151,
      "velocity": 94,
      "chip": "ym2612"
    },
    {
      "channel": 2,
      "note": 57,
      "start": 22.1542,
      "duration": 0.0151,
      "velocity": 100,
      "chip": "ym2612"
    },
    {
      "channel": 1,
      "note": 75,
      "start": 22.1649,
      "duration": 0.0162,
      "velocity": 124,
      "chip": "ym2612"
    },
    {
      "channel": 4,
      "note": 81,
      "start": 22.1671,
      "duration": 0.0154,
      "velocity": 94,
      "chip": "ym2612"
    },
    {
      "channel": 3,
      "note": 81,
      "start": 22.1683,
      "duration": 0.0154,
      "velocity": 94,
      "chip": "ym2612"
    },
    {
      "channel": 2,
      "note": 57,
      "start": 22.1694,
      "duration": 0.0154,
      "velocity": 100,
      "chip": "ym2612"
    },
    {
      "channel": 1,
      "note": 74,
      "start": 22.1811,
      "duration": 0.0163,
      "velocity": 124,
      "chip": "ym2612"
    },
    {
      "channel": 4,
      "note": 81,
      "start": 22.1825,
      "duration": 0.0163,
      "velocity": 94,
      "chip": "ym2612"
    },
    {
      "channel": 3,
      "note": 81,
      "start": 22.1836,
      "duration": 0.0163,
      "velocity": 94,
      "chip": "ym2612"
    },
    {
      "channel": 2,
      "note": 57,
      "start": 22.1848,
      "duration": 0.0163,
      "velocity": 100,
      "chip": "ym2612"
    },
    {
      "channel": 1,
      "note": 72,
      "start": 22.1974,
      "duration": 0.0158,
      "velocity": 124,
      "chip": "ym2612"
    },
    {
      "channel": 4,
      "note": 81,
      "start": 22.1988,
      "duration": 0.0158,
      "velocity": 94,
      "chip": "ym2612"
    },
    {
      "channel": 3,
      "note": 81,
      "start": 22.2,
      "duration": 0.0158,
      "velocity": 94,
      "chip": "ym2612"
    },
    {
      "channel": 2,
      "note": 57,
      "start": 22.2011,
      "duration": 0.0157,
      "velocity": 100,
      "chip": "ym2612"
    },
    {
      "channel": 1,
      "note": 71,
      "start": 22.2132,
      "duration": 0.0179,
      "velocity": 124,
      "chip": "ym2612"
    },
    {
      "channel": 4,
      "note": 81,
      "start": 22.2146,
      "duration": 0.0179,
      "velocity": 94,
      "chip": "ym2612"
    },
    {
      "channel": 3,
      "note": 81,
      "start": 22.2158,
      "duration": 0.0179,
      "velocity": 94,
      "chip": "ym2612"
    },
    {
      "channel": 2,
      "note": 57,
      "start": 22.2168,
      "duration": 0.0179,
      "velocity": 100,
      "chip": "ym2612"
    },
    {
      "channel": 1,
      "note": 70,
      "start": 22.2311,
      "duration": 0.0167,
      "velocity": 124,
      "chip": "ym2612"
    },
    {
      "channel": 4,
      "note": 81,
      "start": 22.2325,
      "duration": 0.0172,
      "velocity": 94,
      "chip": "ym2612"
    },
    {
      "channel": 3,
      "note": 81,
      "start": 22.2336,
      "duration": 0.0173,
      "velocity": 94,
      "chip": "ym2612"
    },
    {
      "channel": 2,
      "note": 57,
      "start": 22.2348,
      "duration": 0.0175,
      "velocity": 100,
      "chip": "ym2612"
    },
    {
      "channel": 1,
      "note": 69,
      "start": 22.2478,
      "duration": 0.016,
      "velocity": 124,
      "chip": "ym2612"
    },
    {
      "channel": 4,
      "note": 81,
      "start": 22.2497,
      "duration": 0.0156,
      "velocity": 94,
      "chip": "ym2612"
    },
    {
      "channel": 3,
      "note": 81,
      "start": 22.2509,
      "duration": 0.0156,
      "velocity": 94,
      "chip": "ym2612"
    },
    {
      "channel": 2,
      "note": 57,
      "start": 22.2523,
      "duration": 0.0153,
      "velocity": 100,
      "chip": "ym2612"
    },
    {
      "channel": 1,
      "note": 68,
      "start": 22.2639,
      "duration": 0.0141,
      "velocity": 124,
      "chip": "ym2612"
    },
    {
      "channel": 4,
      "note": 81,
      "start": 22.2653,
      "duration": 0.014,
      "velocity": 94,
      "chip": "ym2612"
    },
    {
      "channel": 3,
      "note": 81,
      "start": 22.2665,
      "duration": 0.014,
      "velocity": 94,
      "chip": "ym2612"
    },
    {
      "channel": 2,
      "note": 57,
      "start": 22.2677,
      "duration": 0.0139,
      "velocity": 100,
      "chip": "ym2612"
    },
    {
      "channel": 1,
      "note": 66,
      "start": 22.2779,
      "duration": 0.0185,
      "velocity": 124,
      "chip": "ym2612"
    },
    {
      "channel": 4,
      "note": 81,
      "start": 22.2793,
      "duration": 0.0185,
      "velocity": 94,
      "chip": "ym2612"
    },
    {
      "channel": 3,
      "note": 81,
      "start": 22.2805,
      "duration": 0.0185,
      "velocity": 94,
      "chip": "ym2612"
    },
    {
      "channel": 2,
      "note": 57,
      "start": 22.2816,
      "duration": 0.0185,
      "velocity": 100,
      "chip": "ym2612"
    },
    {
      "channel": 1,
      "note": 65,
      "start": 22.2964,
      "duration": 0.0161,
      "velocity": 124,
      "chip": "ym2612"
    },
    {
      "channel": 4,
      "note": 81,
      "start": 22.2978,
      "duration": 0.0161,
      "velocity": 94,
      "chip": "ym2612"
    },
    {
      "channel": 3,
      "note": 81,
      "start": 22.299,
      "duration": 0.0161,
      "velocity": 94,
      "chip": "ym2612"
    },
    {
      "channel": 2,
      "note": 57,
      "start": 22.3001,
      "duration": 0.0161,
      "velocity": 100,
      "chip": "ym2612"
    },
    {
      "channel": 1,
      "note": 64,
      "start": 22.3125,
      "duration": 0.0134,
      "velocity": 124,
      "chip": "ym2612"
    },
    {
      "channel": 4,
      "note": 81,
      "start": 22.3139,
      "duration": 0.0158,
      "velocity": 94,
      "chip": "ym2612"
    },
    {
      "channel": 3,
      "note": 81,
      "start": 22.3151,
      "duration": 0.0158,
      "velocity": 94,
      "chip": "ym2612"
    },
    {
      "channel": 2,
      "note": 57,
      "start": 22.3162,
      "duration": 0.0157,
      "velocity": 100,
      "chip": "ym2612"
    },
    {
      "channel": 1,
      "note": 62,
      "start": 22.3259,
      "duration": 0.0161,
      "velocity": 124,
      "chip": "ym2612"
    },
    {
      "channel": 4,
      "note": 81,
      "start": 22.3297,
      "duration": 0.014,
      "velocity": 94,
      "chip": "ym2612"
    },
    {
      "channel": 3,
      "note": 81,
      "start": 22.3308,
      "duration": 0.014,
      "velocity": 94,
      "chip": "ym2612"
    },
    {
      "channel": 2,
      "note": 57,
      "start": 22.3319,
      "duration": 0.0141,
      "velocity": 100,
      "chip": "ym2612"
    },
    {
      "channel": 1,
      "note": 61,
      "start": 22.342,
      "duration": 0.0161,
      "velocity": 124,
      "chip": "ym2612"
    },
    {
      "channel": 4,
      "note": 81,
      "start": 22.3437,
      "duration": 0.0191,
      "velocity": 94,
      "chip": "ym2612"
    },
    {
      "channel": 3,
      "note": 81,
      "start": 22.3448,
      "duration": 0.0191,
      "velocity": 94,
      "chip": "ym2612"
    },
    {
      "channel": 2,
      "note": 57,
      "start": 22.346,
      "duration": 0.0193,
      "velocity": 100,
      "chip": "ym2612"
    },
    {
      "channel": 1,
      "note": 60,
      "start": 22.3581,
      "duration": 0.0161,
      "velocity": 124,
      "chip": "ym2612"
    },
    {
      "channel": 4,
      "note": 81,
      "start": 22.3628,
      "duration": 0.0129,
      "velocity": 94,
      "chip": "ym2612"
    },
    {
      "channel": 3,
      "note": 81,
      "start": 22.3639,
      "duration": 0.0156,
      "velocity": 94,
      "chip": "ym2612"
    },
    {
      "channel": 2,
      "note": 57,
      "start": 22.3654,
      "duration": 0.0153,
      "velocity": 100,
      "chip": "ym2612"
    },
    {
      "channel": 1,
      "note": 59,
      "start": 22.3742,
      "duration": 0.0161,
      "velocity": 124,
      "chip": "ym2612"
    },
    {
      "channel": 4,
      "note": 81,
      "start": 22.3756,
      "duration": 0.016,
      "velocity": 94,
      "chip": "ym2612"
    },
    {
      "channel": 3,
      "note": 81,
      "start": 22.3796,
      "duration": 0.0132,
      "velocity": 94,
      "chip": "ym2612"
    },
    {
      "channel": 2,
      "note": 57,
      "start": 22.3807,
      "duration": 0.0156,
      "velocity": 100,
      "chip": "ym2612"
    },
    {
      "channel": 1,
      "note": 57,
      "start": 22.3903,
      "duration": 0.0161,
      "velocity": 124,
      "chip": "ym2612"
    },
    {
      "channel": 4,
      "note": 81,
      "start": 22.3917,
      "duration": 0.0161,
      "velocity": 94,
      "chip": "ym2612"
    },
    {
      "channel": 3,
      "note": 81,
      "start": 22.3928,
      "duration": 0.0162,
      "velocity": 94,
      "chip": "ym2612"
    },
    {
      "channel": 2,
      "note": 57,
      "start": 22.3963,
      "duration": 0.0141,
      "velocity": 100,
      "chip": "ym2612"
    },
    {
      "channel": 1,
      "note": 56,
      "start": 22.4064,
      "duration": 0.0161,
      "velocity": 124,
      "chip": "ym2612"
    },
    {
      "channel": 4,
      "note": 81,
      "start": 22.4078,
      "duration": 0.0161,
      "velocity": 94,
      "chip": "ym2612"
    },
    {
      "channel": 3,
      "note": 81,
      "start": 22.409,
      "duration": 0.0161,
      "velocity": 94,
      "chip": "ym2612"
    },
    {
      "channel": 2,
      "note": 57,
      "start": 22.4104,
      "duration": 0.0158,
      "velocity": 100,
      "chip": "ym2612"
    },
    {
      "channel": 1,
      "note": 55,
      "start": 22.4225,
      "duration": 0.0161,
      "velocity": 124,
      "chip": "ym2612"
    },
    {
      "channel": 4,
      "note": 81,
      "start": 22.4239,
      "duration": 0.0161,
      "velocity": 94,
      "chip": "ym2612"
    },
    {
      "channel": 3,
      "note": 81,
      "start": 22.4251,
      "duration": 0.0161,
      "velocity": 94,
      "chip": "ym2612"
    },
    {
      "channel": 2,
      "note": 57,
      "start": 22.4262,
      "duration": 0.0161,
      "velocity": 100,
      "chip": "ym2612"
    },
    {
      "channel": 1,
      "note": 53,
      "start": 22.4386,
      "duration": 0.0161,
      "velocity": 124,
      "chip": "ym2612"
    },
    {
      "channel": 4,
      "note": 81,
      "start": 22.44,
      "duration": 0.0161,
      "velocity": 94,
      "chip": "ym2612"
    },
    {
      "channel": 3,
      "note": 81,
      "start": 22.4411,
      "duration": 0.0161,
      "velocity": 94,
      "chip": "ym2612"
    },
    {
      "channel": 2,
      "note": 57,
      "start": 22.4423,
      "duration": 0.0161,
      "velocity": 100,
      "chip": "ym2612"
    },
    {
      "channel": 1,
      "note": 52,
      "start": 22.4547,
      "duration": 0.0161,
      "velocity": 124,
      "chip": "ym2612"
    },
    {
      "channel": 4,
      "note": 81,
      "start": 22.4561,
      "duration": 0.0203,
      "velocity": 94,
      "chip": "ym2612"
    },
    {
      "channel": 3,
      "note": 81,
      "start": 22.4572,
      "duration": 0.0207,
      "velocity": 94,
      "chip": "ym2612"
    },
    {
      "channel": 2,
      "note": 57,
      "start": 22.4584,
      "duration": 0.0209,
      "velocity": 100,
      "chip": "ym2612"
    },
    {
      "channel": 1,
      "note": 51,
      "start": 22.4708,
      "duration": 0.0153,
      "velocity": 1,
      "chip": "ym2612"
    },
    {
      "channel": 0,
      "note": 36,
      "start": 22.475,
      "duration": 0.015,
      "velocity": 115,
      "chip": "ym2612"
    },
    {
      "channel": 4,
      "note": 84,
      "start": 22.4764,
      "duration": 0.0148,
      "velocity": 94,
      "chip": "ym2612"
    },
    {
      "channel": 3,
      "note": 81,
      "start": 22.4779,
      "duration": 0.0145,
      "velocity": 94,
      "chip": "ym2612"
    },
    {
      "channel": 2,
      "note": 57,
      "start": 22.4793,
      "duration": 0.017,
      "velocity": 100,
      "chip": "ym2612"
    },
    {
      "channel": 1,
      "note": 51,
      "start": 22.4883,
      "duration": 0.0143,
      "velocity": 105,
      "chip": "ym2612"
    },
    {
      "channel": 0,
      "note": 36,
      "start": 22.49,
      "duration": 0.0142,
      "velocity": 115,
      "chip": "ym2612"
    },
    {
      "channel": 4,
      "note": 84,
      "start": 22.4913,
      "duration": 0.0141,
      "velocity": 94,
      "chip": "ym2612"
    },
    {
      "channel": 3,
      "note": 81,
      "start": 22.4924,
      "duration": 0.0141,
      "velocity": 94,
      "chip": "ym2612"
    },
    {
      "channel": 2,
      "note": 57,
      "start": 22.4963,
      "duration": 0.0113,
      "velocity": 100,
      "chip": "ym2612"
    },
    {
      "channel": 1,
      "note": 105,
      "start": 22.5025,
      "duration": 0.0161,
      "velocity": 105,
      "chip": "ym2612"
    },
    {
      "channel": 0,
      "note": 37,
      "start": 22.5042,
      "duration": 0.0161,
      "velocity": 115,
      "chip": "ym2612"
    },
    {
      "channel": 4,
      "note": 84,
      "start": 22.5053,
      "duration": 0.0161,
      "velocity": 94,
      "chip": "ym2612"
    },
    {
      "channel": 3,
      "note": 81,
      "start": 22.5065,
      "duration": 0.0161,
      "velocity": 94,
      "chip": "ym2612"
    },
    {
      "channel": 2,
      "note": 57,
      "start": 22.5076,
      "duration": 0.0161,
      "velocity": 100,
      "chip": "ym2612"
    },
    {
      "channel": 1,
      "note": 105,
      "start": 22.5186,
      "duration": 0.0161,
      "velocity": 105,
      "chip": "ym2612"
    },
    {
      "channel": 0,
      "note": 37,
      "start": 22.5203,
      "duration": 0.0161,
      "velocity": 115,
      "chip": "ym2612"
    },
    {
      "channel": 4,
      "note": 84,
      "start": 22.5214,
      "duration": 0.0161,
      "velocity": 94,
      "chip": "ym2612"
    },
    {
      "channel": 3,
      "note": 81,
      "start": 22.5226,
      "duration": 0.0162,
      "velocity": 94,
      "chip": "ym2612"
    },
    {
      "channel": 2,
      "note": 57,
      "start": 22.5237,
      "duration": 0.0161,
      "velocity": 100,
      "chip": "ym2612"
    },
    {
      "channel": 1,
      "note": 105,
      "start": 22.5347,
      "duration": 0.0161,
      "velocity": 105,
      "chip": "ym2612"
    },
    {
      "channel": 0,
      "note": 38,
      "start": 22.5364,
      "duration": 0.0161,
      "velocity": 115,
      "chip": "ym2612"
    },
    {
      "channel": 4,
      "note": 84,
      "start": 22.5376,
      "duration": 0.0161,
      "velocity": 94,
      "chip": "ym2612"
    },
    {
      "channel": 3,
      "note": 81,
      "start": 22.5387,
      "duration": 0.0161,
      "velocity": 94,
      "chip": "ym2612"
    },
    {
      "channel": 2,
      "note": 57,
      "start": 22.5398,
      "duration": 0.0161,
      "velocity": 100,
      "chip": "ym2612"
    },
    {
      "channel": 1,
      "note": 105,
      "start": 22.5508,
      "duration": 0.0161,
      "velocity": 105,
      "chip": "ym2612"
    },
    {
      "channel": 0,
      "note": 38,
      "start": 22.5525,
      "duration": 0.0161,
      "velocity": 115,
      "chip": "ym2612"
    },
    {
      "channel": 4,
      "note": 84,
      "start": 22.5537,
      "duration": 0.0161,
      "velocity": 94,
      "chip": "ym2612"
    },
    {
      "channel": 3,
      "note": 81,
      "start": 22.5548,
      "duration": 0.0161,
      "velocity": 94,
      "chip": "ym2612"
    },
    {
      "channel": 2,
      "note": 57,
      "start": 22.5559,
      "duration": 0.0161,
      "velocity": 100,
      "chip": "ym2612"
    },
    {
      "channel": 1,
      "note": 105,
      "start": 22.5669,
      "duration": 0.0178,
      "velocity": 124,
      "chip": "ym2612"
    },
    {
      "channel": 0,
      "note": 39,
      "start": 22.5686,
      "duration": 0.0196,
      "velocity": 115,
      "chip": "ym2612"
    },
    {
      "channel": 4,
      "note": 84,
      "start": 22.5698,
      "duration": 0.0197,
      "velocity": 94,
      "chip": "ym2612"
    },
    {
      "channel": 3,
      "note": 81,
      "start": 22.5709,
      "duration": 0.0199,
      "velocity": 94,
      "chip": "ym2612"
    },
    {
      "channel": 2,
      "note": 57,
      "start": 22.572,
      "duration": 0.0202,
      "velocity": 100,
      "chip": "ym2612"
    },
    {
      "channel": 1,
      "note": 64,
      "start": 22.5848,
      "duration": 0.0144,
      "velocity": 124,
      "chip": "ym2612"
    },
    {
      "channel": 0,
      "note": 36,
      "start": 22.5882,
      "duration": 0.0127,
      "velocity": 115,
      "chip": "ym2612"
    },
    {
      "channel": 4,
      "note": 84,
      "start": 22.5894,
      "duration": 0.0127,
      "velocity": 94,
      "chip": "ym2612"
    },
    {
      "channel": 3,
      "note": 84,
      "start": 22.5908,
      "duration": 0.0125,
      "velocity": 94,
      "chip": "ym2612"
    },
    {
      "channel": 2,
      "note": 57,
      "start": 22.5922,
      "duration": 0.0122,
      "velocity": 100,
      "chip": "ym2612"
    },
    {
      "channel": 1,
      "note": 64,
      "start": 22.5992,
      "duration": 0.016,
      "velocity": 124,
      "chip": "ym2612"
    },
    {
      "channel": 0,
      "note": 36,
      "start": 22.6009,
      "duration": 0.016,
      "velocity": 115,
      "chip": "ym2612"
    },
    {
      "channel": 4,
      "note": 84,
      "start": 22.6021,
      "duration": 0.016,
      "velocity": 94,
      "chip": "ym2612"
    },
    {
      "channel": 3,
      "note": 84,
      "start": 22.6033,
      "duration": 0.0159,
      "velocity": 94,
      "chip": "ym2612"
    },
    {
      "channel": 2,
      "note": 57,
      "start": 22.6044,
      "duration": 0.0159,
      "velocity": 100,
      "chip": "ym2612"
    },
    {
      "channel": 1,
      "note": 64,
      "start": 22.6153,
      "duration": 0.0161,
      "velocity": 124,
      "chip": "ym2612"
    },
    {
      "channel": 0,
      "note": 37,
      "start": 22.6169,
      "duration": 0.0161,
      "velocity": 115,
      "chip": "ym2612"
    },
    {
      "channel": 4,
      "note": 84,
      "start": 22.618,
      "duration": 0.0161,
      "velocity": 94,
      "chip": "ym2612"
    },
    {
      "channel": 3,
      "note": 84,
      "start": 22.6192,
      "duration": 0.0161,
      "velocity": 94,
      "chip": "ym2612"
    },
    {
      "channel": 2,
      "note": 57,
      "start": 22.6203,
      "duration": 0.0161,
      "velocity": 100,
      "chip": "ym2612"
    },
    {
      "channel": 1,
      "note": 64,
      "start": 22.6313,
      "duration": 0.0161,
      "velocity": 124,
      "chip": "ym2612"
    },
    {
      "channel": 0,
      "note": 37,
      "start": 22.633,
      "duration": 0.0161,
      "velocity": 115,
      "chip": "ym2612"
    },
    {
      "channel": 4,
      "note": 84,
      "start": 22.6341,
      "duration": 0.0161,
      "velocity": 94,
      "chip": "ym2612"
    },
    {
      "channel": 3,
      "note": 84,
      "start": 22.6353,
      "duration": 0.0162,
      "velocity": 94,
      "chip": "ym2612"
    },
    {
      "channel": 2,
      "note": 57,
      "start": 22.6364,
      "duration": 0.0161,
      "velocity": 100,
      "chip": "ym2612"
    },
    {
      "channel": 1,
      "note": 64,
      "start": 22.6474,
      "duration": 0.0162,
      "velocity": 124,
      "chip": "ym2612"
    },
    {
      "channel": 0,
      "note": 38,
      "start": 22.6491,
      "duration": 0.0162,
      "velocity": 115,
      "chip": "ym2612"
    },
    {
      "channel": 4,
      "note": 84,
      "start": 22.6503,
      "duration": 0.0162,
      "velocity": 94,
      "chip": "ym2612"
    },
    {
      "channel": 3,
      "note": 84,
      "start": 22.6515,
      "duration": 0.0161,
      "velocity": 94,
      "chip": "ym2612"
    },
    {
      "channel": 2,
      "note": 57,
      "start": 22.6525,
      "duration": 0.0161,
      "velocity": 100,
      "chip": "ym2612"
    },
    {
      "channel": 1,
      "note": 64,
      "start": 22.6636,
      "duration": 0.016,
      "velocity": 124,
      "chip": "ym2612"
    },
    {
      "channel": 0,
      "note": 38,
      "start": 22.6653,
      "duration": 0.016,
      "velocity": 115,
      "chip": "ym2612"
    },
    {
      "channel": 4,
      "note": 84,
      "start": 22.6665,
      "duration": 0.016,
      "velocity": 94,
      "chip": "ym2612"
    },
    {
      "channel": 3,
      "note": 84,
      "start": 22.6676,
      "duration": 0.016,
      "velocity": 94,
      "chip": "ym2612"
    },
    {
      "channel": 2,
      "note": 57,
      "start": 22.6687,
      "duration": 0.016,
      "velocity": 100,
      "chip": "ym2612"
    },
    {
      "channel": 1,
      "note": 64,
      "start": 22.6796,
      "duration": 0.0193,
      "velocity": 105,
      "chip": "ym2612"
    },
    {
      "channel": 0,
      "note": 39,
      "start": 22.6813,
      "duration": 0.0194,
      "velocity": 115,
      "chip": "ym2612"
    },
    {
      "channel": 4,
      "note": 84,
      "start": 22.6825,
      "duration": 0.0193,
      "velocity": 94,
      "chip": "ym2612"
    },
    {
      "channel": 3,
      "note": 84,
      "start": 22.6836,
      "duration": 0.0193,
      "velocity": 94,
      "chip": "ym2612"
    },
    {
      "channel": 2,
      "note": 57,
      "start": 22.6847,
      "duration": 0.0197,
      "velocity": 100,
      "chip": "ym2612"
    },
    {
      "channel": 1,
      "note": 105,
      "start": 22.699,
      "duration": 0.015,
      "velocity": 105,
      "chip": "ym2612"
    },
    {
      "channel": 0,
      "note": 39,
      "start": 22.7007,
      "duration": 0.015,
      "velocity": 115,
      "chip": "ym2612"
    },
    {
      "channel": 4,
      "note": 84,
      "start": 22.7018,
      "duration": 0.015,
      "velocity": 94,
      "chip": "ym2612"
    },
    {
      "channel": 3,
      "note": 84,
      "start": 22.703,
      "duration": 0.015,
      "velocity": 94,
      "chip": "ym2612"
    },
    {
      "channel": 2,
      "note": 57,
      "start": 22.7044,
      "duration": 0.0148,
      "velocity": 100,
      "chip": "ym2612"
    },
    {
      "channel": 1,
      "note": 105,
      "start": 22.714,
      "duration": 0.0163,
      "velocity": 105,
      "chip": "ym2612"
    },
    {
      "channel": 0,
      "note": 40,
      "start": 22.7157,
      "duration": 0.0162,
      "velocity": 115,
      "chip": "ym2612"
    },
    {
      "channel": 4,
      "note": 84,
      "start": 22.7168,
      "duration": 0.0162,
      "velocity": 94,
      "chip": "ym2612"
    },
    {
      "channel": 3,
      "note": 84,
      "start": 22.718,
      "duration": 0.0162,
      "velocity": 94,
      "chip": "ym2612"
    },
    {
      "channel": 2,
      "note": 57,
      "start": 22.7192,
      "duration": 0.0161,
      "velocity": 100,
      "chip": "ym2612"
    },
    {
      "channel": 1,
      "note": 105,
      "start": 22.7303,
      "duration": 0.0141,
      "velocity": 105,
      "chip": "ym2612"
    },
    {
      "channel": 0,
      "note": 40,
      "start": 22.7319,
      "duration": 0.0141,
      "velocity": 115,
      "chip": "ym2612"
    },
    {
      "channel": 4,
      "note": 84,
      "start": 22.7331,
      "duration": 0.0141,
      "velocity": 94,
      "chip": "ym2612"
    },
    {
      "channel": 3,
      "note": 84,
      "start": 22.7342,
      "duration": 0.0141,
      "velocity": 94,
      "chip": "ym2612"
    },
    {
      "channel": 2,
      "note": 57,
      "start": 22.7354,
      "duration": 0.0141,
      "velocity": 100,
      "chip": "ym2612"
    },
    {
      "channel": 1,
      "note": 105,
      "start": 22.7443,
      "duration": 0.0186,
      "velocity": 105,
      "chip": "ym2612"
    },
    {
      "channel": 0,
      "note": 40,
      "start": 22.746,
      "duration": 0.0186,
      "velocity": 115,
      "chip": "ym2612"
    },
    {
      "channel": 4,
      "note": 84,
      "start": 22.7472,
      "duration": 0.0185,
      "velocity": 94,
      "chip": "ym2612"
    },
    {
      "channel": 3,
      "note": 84,
      "start": 22.7483,
      "duration": 0.0185,
      "velocity": 94,
      "chip": "ym2612"
    },
    {
      "channel": 2,
      "note": 57,
      "start": 22.7495,
      "duration": 0.0185,
      "velocity": 100,
      "chip": "ym2612"
    },
    {
      "channel": 1,
      "note": 105,
      "start": 22.7629,
      "duration": 0.0134,
      "velocity": 105,
      "chip": "ym2612"
    },
    {
      "channel": 0,
      "note": 41,
      "start": 22.7646,
      "duration": 0.0161,
      "velocity": 115,
      "chip": "ym2612"
    },
    {
      "channel": 4,
      "note": 84,
      "start": 22.7657,
      "duration": 0.0162,
      "velocity": 94,
      "chip": "ym2612"
    },
    {
      "channel": 3,
      "note": 84,
      "start": 22.7668,
      "duration": 0.0161,
      "velocity": 94,
      "chip": "ym2612"
    },
    {
      "channel": 2,
      "note": 57,
      "start": 22.768,
      "duration": 0.0161,
      "velocity": 100,
      "chip": "ym2612"
    },
    {
      "channel": 1,
      "note": 105,
      "start": 22.7763,
      "duration": 0.0161,
      "velocity": 105,
      "chip": "ym2612"
    },
    {
      "channel": 0,
      "note": 41,
      "start": 22.7807,
      "duration": 0.0158,
      "velocity": 115,
      "chip": "ym2612"
    },
    {
      "channel": 4,
      "note": 84,
      "start": 22.7819,
      "duration": 0.0157,
      "velocity": 94,
      "chip": "ym2612"
    },
    {
      "channel": 3,
      "note": 84,
      "start": 22.783,
      "duration": 0.0157,
      "velocity": 94,
      "chip": "ym2612"
    },
    {
      "channel": 2,
      "note": 57,
      "start": 22.7841,
      "duration": 0.0158,
      "velocity": 100,
      "chip": "ym2612"
    },
    {
      "channel": 1,
      "note": 105,
      "start": 22.7924,
      "duration": 0.0181,
      "velocity": 124,
      "chip": "ym2612"
    },
    {
      "channel": 0,
      "note": 42,
      "start": 22.7964,
      "duration": 0.0158,
      "velocity": 115,
      "chip": "ym2612"
    },
    {
      "channel": 4,
      "note": 84,
      "start": 22.7976,
      "duration": 0.0158,
      "velocity": 94,
      "chip": "ym2612"
    },
    {
      "channel": 3,
      "note": 84,
      "start": 22.7987,
      "duration": 0.0158,
      "velocity": 94,
      "chip": "ym2612"
    },
    {
      "channel": 2,
      "note": 57,
      "start": 22.7999,
      "duration": 0.016,
      "velocity": 100,
      "chip": "ym2612"
    },
    {
      "channel": 1,
      "note": 64,
      "start": 22.8105,
      "duration": 0.0141,
      "velocity": 124,
      "chip": "ym2612"
    },
    {
      "channel": 0,
      "note": 42,
      "start": 22.8122,
      "duration": 0.0141,
      "velocity": 115,
      "chip": "ym2612"
    },
    {
      "channel": 4,
      "note": 84,
      "start": 22.8134,
      "duration": 0.0168,
      "velocity": 94,
      "chip": "ym2612"
    },
    {
      "channel": 3,
      "note": 84,
      "start": 22.8145,
      "duration": 0.0168,
      "velocity": 94,
      "chip": "ym2612"
    },
    {
      "channel": 2,
      "note": 57,
      "start": 22.816,
      "duration": 0.0165,
      "velocity": 100,
      "chip": "ym2612"
    },
    {
      "channel": 1,
      "note": 64,
      "start": 22.8246,
      "duration": 0.016,
      "velocity": 124,
      "chip": "ym2612"
    },
    {
      "channel": 0,
      "note": 43,
      "start": 22.8263,
      "duration": 0.016,
      "velocity": 115,
      "chip": "ym2612"
    },
    {
      "channel": 4,
      "note": 84,
      "start": 22.8302,
      "duration": 0.016,
      "velocity": 94,
      "chip": "ym2612"
    },
    {
      "channel": 3,
      "note": 84,
      "start": 22.8313,
      "duration": 0.016,
      "velocity": 94,
      "chip": "ym2612"
    },
    {
      "channel": 2,
      "note": 57,
      "start": 22.8325,
      "duration": 0.016,
      "velocity": 100,
      "chip": "ym2612"
    },
    {
      "channel": 1,
      "note": 64,
      "start": 22.8406,
      "duration": 0.0161,
      "velocity": 124,
      "chip": "ym2612"
    },
    {
      "channel": 0,
      "note": 43,
      "start": 22.8423,
      "duration": 0.0162,
      "velocity": 115,
      "chip": "ym2612"
    },
    {
      "channel": 4,
      "note": 84,
      "start": 22.8462,
      "duration": 0.0134,
      "velocity": 94,
      "chip": "ym2612"
    },
    {
      "channel": 3,
      "note": 84,
      "start": 22.8474,
      "duration": 0.0158,
      "velocity": 94,
      "chip": "ym2612"
    },
    {
      "channel": 2,
      "note": 57,
      "start": 22.8485,
      "duration": 0.0157,
      "velocity": 100,
      "chip": "ym2612"
    },
    {
      "channel": 1,
      "note": 64,
      "start": 22.8567,
      "duration": 0.0161,
      "velocity": 124,
      "chip": "ym2612"
    },
    {
      "channel": 0,
      "note": 44,
      "start": 22.8585,
      "duration": 0.0161,
      "velocity": 115,
      "chip": "ym2612"
    },
    {
      "channel": 4,
      "note": 84,
      "start": 22.8596,
      "duration": 0.0161,
      "velocity": 94,
      "chip": "ym2612"
    },
    {
      "channel": 3,
      "note": 84,
      "start": 22.8632,
      "duration": 0.014,
      "velocity": 94,
      "chip": "ym2612"
    },
    {
      "channel": 2,
      "note": 57,
      "start": 22.8642,
      "duration": 0.0141,
      "velocity": 100,
      "chip": "ym2612"
    },
    {
      "channel": 1,
      "note": 64,
      "start": 22.8728,
      "duration": 0.0161,
      "velocity": 124,
      "chip": "ym2612"
    },
    {
      "channel": 0,
      "note": 44,
      "start": 22.8745,
      "duration": 0.0161,
      "velocity": 115,
      "chip": "ym2612"
    },
    {
      "channel": 4,
      "note": 84,
      "start": 22.8757,
      "duration": 0.0161,
      "velocity": 94,
      "chip": "ym2612"
    },
    {
      "channel": 3,
      "note": 84,
      "start": 22.8771,
      "duration": 0.0158,
      "velocity": 94,
      "chip": "ym2612"
    },
    {
      "channel": 2,
      "note": 57,
      "start": 22.8783,
      "duration": 0.0185,
      "velocity": 100,
      "chip": "ym2612"
    },
    {
      "channel": 1,
      "note": 64,
      "start": 22.889,
      "duration": 0.0161,
      "velocity": 124,
      "chip": "ym2612"
    },
    {
      "channel": 0,
      "note": 44,
      "start": 22.8906,
      "duration": 0.0161,
      "velocity": 115,
      "chip": "ym2612"
    },
    {
      "channel": 4,
      "note": 84,
      "start": 22.8918,
      "duration": 0.0161,
      "velocity": 94,
      "chip": "ym2612"
    },
    {
      "channel": 3,
      "note": 84,
      "start": 22.8929,
      "duration": 0.0161,
      "velocity": 94,
      "chip": "ym2612"
    },
    {
      "channel": 2,
      "note": 57,
      "start": 22.8968,
      "duration": 0.0161,
      "velocity": 100,
      "chip": "ym2612"
    },
    {
      "channel": 1,
      "note": 64,
      "start": 22.9051,
      "duration": 0.0178,
      "velocity": 105,
      "chip": "ym2612"
    },
    {
      "channel": 0,
      "note": 45,
      "start": 22.9067,
      "duration": 0.0178,
      "velocity": 115,
      "chip": "ym2612"
    },
    {
      "channel": 4,
      "note": 84,
      "start": 22.9079,
      "duration": 0.0178,
      "velocity": 94,
      "chip": "ym2612"
    },
    {
      "channel": 3,
      "note": 84,
      "start": 22.909,
      "duration": 0.0202,
      "velocity": 94,
      "chip": "ym2612"
    },
    {
      "channel": 2,
      "note": 57,
      "start": 22.9129,
      "duration": 0.0178,
      "velocity": 100,
      "chip": "ym2612"
    },
    {
      "channel": 1,
      "note": 105,
      "start": 22.9229,
      "duration": 0.0144,
      "velocity": 105,
      "chip": "ym2612"
    },
    {
      "channel": 0,
      "note": 45,
      "start": 22.9245,
      "duration": 0.0144,
      "velocity": 115,
      "chip": "ym2612"
    },
    {
      "channel": 4,
      "note": 84,
      "start": 22.9257,
      "duration": 0.0144,
      "velocity": 94,
      "chip": "ym2612"
    },
    {
      "channel": 3,
      "note": 84,
      "start": 22.9293,
      "duration": 0.012,
      "velocity": 94,
      "chip": "ym2612"
    },
    {
      "channel": 2,
      "note": 57,
      "start": 22.9307,
      "duration": 0.0118,
      "velocity": 100,
      "chip": "ym2612"
    },
    {
      "channel": 1,
      "note": 105,
      "start": 22.9373,
      "duration": 0.0161,
      "velocity": 105,
      "chip": "ym2612"
    },
    {
      "channel": 0,
      "note": 46,
      "start": 22.939,
      "duration": 0.016,
      "velocity": 115,
      "chip": "ym2612"
    },
    {
      "channel": 4,
      "note": 84,
      "start": 22.9401,
      "duration": 0.016,
      "velocity": 94,
      "chip": "ym2612"
    },
    {
      "channel": 3,
      "note": 84,
      "start": 22.9413,
      "duration": 0.016,
      "velocity": 94,
      "chip": "ym2612"
    },
    {
      "channel": 2,
      "note": 57,
      "start": 22.9425,
      "duration": 0.016,
      "velocity": 100,
      "chip": "ym2612"
    },
    {
      "channel": 1,
      "note": 105,
      "start": 22.9534,
      "duration": 0.0161,
      "velocity": 105,
      "chip": "ym2612"
    },
    {
      "channel": 0,
      "note": 46,
      "start": 22.955,
      "duration": 0.0161,
      "velocity": 115,
      "chip": "ym2612"
    },
    {
      "channel": 4,
      "note": 84,
      "start": 22.9562,
      "duration": 0.0161,
      "velocity": 94,
      "chip": "ym2612"
    },
    {
      "channel": 3,
      "note": 84,
      "start": 22.9573,
      "duration": 0.0161,
      "velocity": 94,
      "chip": "ym2612"
    },
    {
      "channel": 2,
      "note": 57,
      "start": 22.9585,
      "duration": 0.0161,
      "velocity": 100,
      "chip": "ym2612"
    },
    {
      "channel": 1,
      "note": 105,
      "start": 22.9695,
      "duration": 0.0161,
      "velocity": 105,
      "chip": "ym2612"
    },
    {
      "channel": 0,
      "note": 47,
      "start": 22.9711,
      "duration": 0.0161,
      "velocity": 115,
      "chip": "ym2612"
    },
    {
      "channel": 4,
      "note": 84,
      "start": 22.9722,
      "duration": 0.0162,
      "velocity": 94,
      "chip": "ym2612"
    },
    {
      "channel": 3,
      "note": 84,
      "start": 22.9734,
      "duration": 0.0161,
      "velocity": 94,
      "chip": "ym2612"
    },
    {
      "channel": 2,
      "note": 57,
      "start": 22.9745,
      "duration": 0.0161,
      "velocity": 100,
      "chip": "ym2612"
    },
    {
      "channel": 1,
      "note": 105,
      "start": 22.9856,
      "duration": 0.0161,
      "velocity": 105,
      "chip": "ym2612"
    },
    {
      "channel": 0,
      "note": 47,
      "start": 22.9872,
      "duration": 0.0161,
      "velocity": 115,
      "chip": "ym2612"
    },
    {
      "channel": 4,
      "note": 84,
      "start": 22.9884,
      "duration": 0.0161,
      "velocity": 94,
      "chip": "ym2612"
    },
    {
      "channel": 3,
      "note": 84,
      "start": 22.9895,
      "duration": 0.0161,
      "velocity": 94,
      "chip": "ym2612"
    },
    {
      "channel": 2,
      "note": 57,
      "start": 22.9906,
      "duration": 0.0161,
      "velocity": 100,
      "chip": "ym2612"
    },
    {
      "channel": 1,
      "note": 105,
      "start": 23.0016,
      "duration": 0.0161,
      "velocity": 105,
      "chip": "ym2612"
    },
    {
      "channel": 0,
      "note": 47,
      "start": 23.0033,
      "duration": 0.0161,
      "velocity": 115,
      "chip": "ym2612"
    },
    {
      "channel": 4,
      "note": 84,
      "start": 23.0045,
      "duration": 0.0161,
      "velocity": 94,
      "chip": "ym2612"
    },
    {
      "channel": 3,
      "note": 84,
      "start": 23.0056,
      "duration": 0.0161,
      "velocity": 94,
      "chip": "ym2612"
    },
    {
      "channel": 2,
      "note": 57,
      "start": 23.0067,
      "duration": 0.0161,
      "velocity": 100,
      "chip": "ym2612"
    },
    {
      "channel": 1,
      "note": 105,
      "start": 23.0177,
      "duration": 0.0184,
      "velocity": 124,
      "chip": "ym2612"
    },
    {
      "channel": 0,
      "note": 48,
      "start": 23.0194,
      "duration": 0.0191,
      "velocity": 115,
      "chip": "ym2612"
    },
    {
      "channel": 4,
      "note": 84,
      "start": 23.0206,
      "duration": 0.0191,
      "velocity": 94,
      "chip": "ym2612"
    },
    {
      "channel": 3,
      "note": 84,
      "start": 23.0217,
      "duration": 0.0191,
      "velocity": 94,
      "chip": "ym2612"
    },
    {
      "channel": 2,
      "note": 57,
      "start": 23.0228,
      "duration": 0.0194,
      "velocity": 100,
      "chip": "ym2612"
    },
    {
      "channel": 1,
      "note": 78,
      "start": 23.0361,
      "duration": 0.0144,
      "velocity": 124,
      "chip": "ym2612"
    },
    {
      "channel": 0,
      "note": 48,
      "start": 23.0385,
      "duration": 0.0139,
      "velocity": 115,
      "chip": "ym2612"
    },
    {
      "channel": 4,
      "note": 84,
      "start": 23.0397,
      "duration": 0.0139,
      "velocity": 94,
      "chip": "ym2612"
    },
    {
      "channel": 3,
      "note": 84,
      "start": 23.0408,
      "duration": 0.0139,
      "velocity": 94,
      "chip": "ym2612"
    },
    {
      "channel": 2,
      "note": 57,
      "start": 23.0423,
      "duration": 0.0136,
      "velocity": 100,
      "chip": "ym2612"
    },
    {
      "channel": 1,
      "note": 76,
      "start": 23.0505,
      "duration": 0.016,
      "velocity": 124,
      "chip": "ym2612"
    },
    {
      "channel": 0,
      "note": 49,
      "start": 23.0524,
      "duration": 0.0152,
      "velocity": 1,
      "chip": "ym2612"
    },
    {
      "channel": 4,
      "note": 84,
      "start": 23.0536,
      "duration": 0.0151,
      "velocity": 94,
      "chip": "ym2612"
    },
    {
      "channel": 3,
      "note": 84,
      "start": 23.0548,
      "duration": 0.0151,
      "velocity": 94,
      "chip": "ym2612"
    },
    {
      "channel": 2,
      "note": 57,
      "start": 23.0559,
      "duration": 0.0151,
      "velocity": 100,
      "chip": "ym2612"
    },
    {
      "channel": 1,
      "note": 75,
      "start": 23.0665,
      "duration": 0.0161,
      "velocity": 124,
      "chip": "ym2612"
    },
    {
      "channel": 4,
      "note": 84,
      "start": 23.0688,
      "duration": 0.0153,
      "velocity": 94,
      "chip": "ym2612"
    },
    {
      "channel": 3,
      "note": 84,
      "start": 23.0699,
      "duration": 0.0153,
      "velocity": 94,
      "chip": "ym2612"
    },
    {
      "channel": 2,
      "note": 57,
      "start": 23.071,
      "duration": 0.0153,
      "velocity": 100,
      "chip": "ym2612"
    },
    {
      "channel": 1,
      "note": 74,
      "start": 23.0826,
      "duration": 0.0161,
      "velocity": 124,
      "chip": "ym2612"
    },
    {
      "channel": 4,
      "note": 84,
      "start": 23.084,
      "duration": 0.0162,
      "velocity": 94,
      "chip": "ym2612"
    },
    {
      "channel": 3,
      "note": 84,
      "start": 23.0852,
      "duration": 0.0161,
      "velocity": 94,
      "chip": "ym2612"
    },
    {
      "channel": 2,
      "note": 57,
      "start": 23.0863,
      "duration": 0.0161,
      "velocity": 100,
      "chip": "ym2612"
    },
    {
      "channel": 1,
      "note": 72,
      "start": 23.0988,
      "duration": 0.0161,
      "velocity": 124,
      "chip": "ym2612"
    },
    {
      "channel": 4,
      "note": 84,
      "start": 23.1002,
      "duration": 0.0161,
      "velocity": 94,
      "chip": "ym2612"
    },
    {
      "channel": 3,
      "note": 84,
      "start": 23.1013,
      "duration": 0.0161,
      "velocity": 94,
      "chip": "ym2612"
    },
    {
      "channel": 2,
      "note": 57,
      "start": 23.1024,
      "duration": 0.0161,
      "velocity": 100,
      "chip": "ym2612"
    },
    {
      "channel": 1,
      "note": 71,
      "start": 23.1149,
      "duration": 0.0161,
      "velocity": 124,
      "chip": "ym2612"
    },
    {
      "channel": 4,
      "note": 84,
      "start": 23.1163,
      "duration": 0.0161,
      "velocity": 94,
      "chip": "ym2612"
    },
    {
      "channel": 3,
      "note": 84,
      "start": 23.1174,
      "duration": 0.0161,
      "velocity": 94,
      "chip": "ym2612"
    },
    {
      "channel": 2,
      "note": 57,
      "start": 23.1185,
      "duration": 0.0161,
      "velocity": 100,
      "chip": "ym2612"
    },
    {
      "channel": 1,
      "note": 70,
      "start": 23.131,
      "duration": 0.0161,
      "velocity": 124,
      "chip": "ym2612"
    },
    {
      "channel": 4,
      "note": 84,
      "start": 23.1324,
      "duration": 0.0169,
      "velocity": 94,
      "chip": "ym2612"
    },
    {
      "channel": 3,
      "note": 84,
      "start": 23.1335,
      "duration": 0.0168,
      "velocity": 94,
      "chip": "ym2612"
    },
    {
      "channel": 2,
      "note": 57,
      "start": 23.1346,
      "duration": 0.0171,
      "velocity": 100,
      "chip": "ym2612"
    },
    {
      "channel": 1,
      "note": 69,
      "start": 23.1471,
      "duration": 0.0174,
      "velocity": 124,
      "chip": "ym2612"
    },
    {
      "channel": 4,
      "note": 81,
      "start": 23.1492,
      "duration": 0.0167,
      "velocity": 94,
      "chip": "ym2612"
    },
    {
      "channel": 3,
      "note": 84,
      "start": 23.1504,
      "duration": 0.0167,
      "velocity": 94,
      "chip": "ym2612"
    },
    {
      "channel": 2,
      "note": 57,
      "start": 23.1518,
      "duration": 0.0165,
      "velocity": 100,
      "chip": "ym2612"
    },
    {
      "channel": 1,
      "note": 68,
      "start": 23.1644,
      "duration": 0.0167,
      "velocity": 124,
      "chip": "ym2612"
    },
    {
      "channel": 4,
      "note": 81,
      "start": 23.166,
      "duration": 0.0165,
      "velocity": 94,
      "chip": "ym2612"
    },
    {
      "channel": 3,
      "note": 84,
      "start": 23.1671,
      "duration": 0.0165,
      "velocity": 94,
      "chip": "ym2612"
    },
    {
      "channel": 2,
      "note": 57,
      "start": 23.1683,
      "duration": 0.0165,
      "velocity": 100,
      "chip": "ym2612"
    },
    {
      "channel": 1,
      "note": 66,
      "start": 23.1812,
      "duration": 0.0163,
      "velocity": 124,
      "chip": "ym2612"
    },
    {
      "channel": 4,
      "note": 81,
      "start": 23.1825,
      "duration": 0.0163,
      "velocity": 94,
      "chip": "ym2612"
    },
    {
      "channel": 3,
      "note": 84,
      "start": 23.1836,
      "duration": 0.0163,
      "velocity": 94,
      "chip": "ym2612"
    },
    {
      "channel": 2,
      "note": 57,
      "start": 23.1848,
      "duration": 0.0163,
      "velocity": 100,
      "chip": "ym2612"
    },
    {
      "channel": 1,
      "note": 65,
      "start": 23.1974,
      "duration": 0.0143,
      "velocity": 124,
      "chip": "ym2612"
    },
    {
      "channel": 4,
      "note": 81,
      "start": 23.1988,
      "duration": 0.0143,
      "velocity": 94,
      "chip": "ym2612"
    },
    {
      "channel": 3,
      "note": 84,
      "start": 23.2,
      "duration": 0.0143,
      "velocity": 94,
      "chip": "ym2612"
    },
    {
      "channel": 2,
      "note": 57,
      "start": 23.2011,
      "duration": 0.0144,
      "velocity": 100,
      "chip": "ym2612"
    },
    {
      "channel": 1,
      "note": 64,
      "start": 23.2117,
      "duration": 0.0186,
      "velocity": 124,
      "chip": "ym2612"
    },
    {
      "channel": 4,
      "note": 81,
      "start": 23.2132,
      "duration": 0.0185,
      "velocity": 94,
      "chip": "ym2612"
    },
    {
      "channel": 3,
      "note": 84,
      "start": 23.2143,
      "duration": 0.0185,
      "velocity": 94,
      "chip": "ym2612"
    },
    {
      "channel": 2,
      "note": 57,
      "start": 23.2154,
      "duration": 0.0185,
      "velocity": 100,
      "chip": "ym2612"
    },
    {
      "channel": 1,
      "note": 62,
      "start": 23.2303,
      "duration": 0.0161,
      "velocity": 124,
      "chip": "ym2612"
    },
    {
      "channel": 4,
      "note": 81,
      "start": 23.2317,
      "duration": 0.0162,
      "velocity": 94,
      "chip": "ym2612"
    },
    {
      "channel": 3,
      "note": 84,
      "start": 23.2328,
      "duration": 0.0162,
      "velocity": 94,
      "chip": "ym2612"
    },
    {
      "channel": 2,
      "note": 57,
      "start": 23.2339,
      "duration": 0.0161,
      "velocity": 100,
      "chip": "ym2612"
    },
    {
      "channel": 1,
      "note": 61,
      "start": 23.2464,
      "duration": 0.0134,
      "velocity": 124,
      "chip": "ym2612"
    },
    {
      "channel": 4,
      "note": 81,
      "start": 23.2478,
      "duration": 0.0162,
      "velocity": 94,
      "chip": "ym2612"
    },
    {
      "channel": 3,
      "note": 84,
      "start": 23.249,
      "duration": 0.0165,
      "velocity": 94,
      "chip": "ym2612"
    },
    {
      "channel": 2,
      "note": 57,
      "start": 23.25,
      "duration": 0.0168,
      "velocity": 100,
      "chip": "ym2612"
    },
    {
      "channel": 1,
      "note": 60,
      "start": 23.2598,
      "duration": 0.0161,
      "velocity": 124,
      "chip": "ym2612"
    },
    {
      "channel": 4,
      "note": 81,
      "start": 23.264,
      "duration": 0.0136,
      "velocity": 94,
      "chip": "ym2612"
    },
    {
      "channel": 3,
      "note": 81,
      "start": 23.2654,
      "duration": 0.0134,
      "velocity": 94,
      "chip": "ym2612"
    },
    {
      "channel": 2,
      "note": 50,
      "start": 23.2669,
      "duration": 0.0131,
      "velocity": 100,
      "chip": "ym2612"
    },
    {
      "channel": 1,
      "note": 59,
      "start": 23.2759,
      "duration": 0.0161,
      "velocity": 124,
      "chip": "ym2612"
    },
    {
      "channel": 4,
      "note": 81,
      "start": 23.2777,
      "duration": 0.0184,
      "velocity": 94,
      "chip": "ym2612"
    },
    {
      "channel": 3,
      "note": 81,
      "start": 23.2788,
      "duration": 0.0185,
      "velocity": 94,
      "chip": "ym2612"
    },
    {
      "channel": 2,
      "note": 50,
      "start": 23.28,
      "duration": 0.0184,
      "velocity": 100,
      "chip": "ym2612"
    },
    {
      "channel": 1,
      "note": 57,
      "start": 23.292,
      "duration": 0.0161,
      "velocity": 124,
      "chip": "ym2612"
    },
    {
      "channel": 4,
      "note": 81,
      "start": 23.2961,
      "duration": 0.0134,
      "velocity": 94,
      "chip": "ym2612"
    },
    {
      "channel": 3,
      "note": 81,
      "start": 23.2973,
      "duration": 0.0161,
      "velocity": 94,
      "chip": "ym2612"
    },
    {
      "channel": 2,
      "note": 50,
      "start": 23.2984,
      "duration": 0.0161,
      "velocity": 100,
      "chip": "ym2612"
    },
    {
      "channel": 1,
      "note": 56,
      "start": 23.3081,
      "duration": 0.0161,
      "velocity": 124,
      "chip": "ym2612"
    },
    {
      "channel": 4,
      "note": 81,
      "start": 23.3095,
      "duration": 0.0161,
      "velocity": 94,
      "chip": "ym2612"
    },
    {
      "channel": 3,
      "note": 81,
      "start": 23.3134,
      "duration": 0.0157,
      "velocity": 94,
      "chip": "ym2612"
    },
    {
      "channel": 2,
      "note": 50,
      "start": 23.3145,
      "duration": 0.0157,
      "velocity": 100,
      "chip": "ym2612"
    },
    {
      "channel": 1,
      "note": 55,
      "start": 23.3241,
      "duration": 0.0161,
      "velocity": 124,
      "chip": "ym2612"
    },
    {
      "channel": 4,
      "note": 81,
      "start": 23.3256,
      "duration": 0.0161,
      "velocity": 94,
      "chip": "ym2612"
    },
    {
      "channel": 3,
      "note": 81,
      "start": 23.329,
      "duration": 0.0137,
      "velocity": 94,
      "chip": "ym2612"
    },
    {
      "channel": 2,
      "note": 50,
      "start": 23.3302,
      "duration": 0.0141,
      "velocity": 100,
      "chip": "ym2612"
    },
    {
      "channel": 1,
      "note": 53,
      "start": 23.3402,
      "duration": 0.0161,
      "velocity": 124,
      "chip": "ym2612"
    },
    {
      "channel": 4,
      "note": 81,
      "start": 23.3417,
      "duration": 0.0161,
      "velocity": 94,
      "chip": "ym2612"
    },
    {
      "channel": 3,
      "note": 81,
      "start": 23.3428,
      "duration": 0.0161,
      "velocity": 94,
      "chip": "ym2612"
    },
    {
      "channel": 2,
      "note": 50,
      "start": 23.3443,
      "duration": 0.0185,
      "velocity": 100,
      "chip": "ym2612"
    },
    {
      "channel": 1,
      "note": 52,
      "start": 23.3563,
      "duration": 0.0161,
      "velocity": 124,
      "chip": "ym2612"
    },
    {
      "channel": 4,
      "note": 81,
      "start": 23.3578,
      "duration": 0.0229,
      "velocity": 94,
      "chip": "ym2612"
    },
    {
      "channel": 3,
      "note": 81,
      "start": 23.3589,
      "duration": 0.0229,
      "velocity": 94,
      "chip": "ym2612"
    },
    {
      "channel": 2,
      "note": 50,
      "start": 23.3628,
      "duration": 0.0204,
      "velocity": 100,
      "chip": "ym2612"
    },
    {
      "channel": 1,
      "note": 51,
      "start": 23.3724,
      "duration": 0.0153,
      "velocity": 1,
      "chip": "ym2612"
    },
    {
      "channel": 0,
      "note": 78,
      "start": 23.3795,
      "duration": 0.0122,
      "velocity": 127,
      "chip": "ym2612"
    },
    {
      "channel": 4,
      "note": 81,
      "start": 23.3807,
      "duration": 0.0121,
      "velocity": 94,
      "chip": "ym2612"
    },
    {
      "channel": 3,
      "note": 81,
      "start": 23.3818,
      "duration": 0.0146,
      "velocity": 94,
      "chip": "ym2612"
    },
    {
      "channel": 2,
      "note": 50,
      "start": 23.3832,
      "duration": 0.0143,
      "velocity": 100,
      "chip": "ym2612"
    },
    {
      "channel": 1,
      "note": 51,
      "start": 23.3899,
      "duration": 0.0143,
      "velocity": 105,
      "chip": "ym2612"
    },
    {
      "channel": 0,
      "note": 76,
      "start": 23.3917,
      "duration": 0.0142,
      "velocity": 127,
      "chip": "ym2612"
    },
    {
      "channel": 4,
      "note": 81,
      "start": 23.3928,
      "duration": 0.0142,
      "velocity": 94,
      "chip": "ym2612"
    },
    {
      "channel": 3,
      "note": 81,
      "start": 23.3963,
      "duration": 0.0118,
      "velocity": 94,
      "chip": "ym2612"
    },
    {
      "channel": 2,
      "note": 50,
      "start": 23.3975,
      "duration": 0.0118,
      "velocity": 100,
      "chip": "ym2612"
    },
    {
      "channel": 1,
      "note": 105,
      "start": 23.4042,
      "duration": 0.0161,
      "velocity": 105,
      "chip": "ym2612"
    },
    {
      "channel": 0,
      "note": 75,
      "start": 23.4058,
      "duration": 0.0161,
      "velocity": 127,
      "chip": "ym2612"
    },
    {
      "channel": 4,
      "note": 81,
      "start": 23.407,
      "duration": 0.0162,
      "velocity": 94,
      "chip": "ym2612"
    },
    {
      "channel": 3,
      "note": 81,
      "start": 23.4081,
      "duration": 0.0162,
      "velocity": 94,
      "chip": "ym2612"
    },
    {
      "channel": 2,
      "note": 50,
      "start": 23.4093,
      "duration": 0.0161,
      "velocity": 100,
      "chip": "ym2612"
    },
    {
      "channel": 1,
      "note": 105,
      "start": 23.4203,
      "duration": 0.0161,
      "velocity": 105,
      "chip": "ym2612"
    },
    {
      "channel": 0,
      "note": 73,
      "start": 23.4219,
      "duration": 0.0161,
      "velocity": 127,
      "chip": "ym2612"
    },
    {
      "channel": 4,
      "note": 81,
      "start": 23.4232,
      "duration": 0.0161,
      "velocity": 94,
      "chip": "ym2612"
    },
    {
      "channel": 3,
      "note": 81,
      "start": 23.4243,
      "duration": 0.0161,
      "velocity": 94,
      "chip": "ym2612"
    },
    {
      "channel": 2,
      "note": 50,
      "start": 23.4254,
      "duration": 0.0161,
      "velocity": 100,
      "chip": "ym2612"
    },
    {
      "channel": 1,
      "note": 105,
      "start": 23.4364,
      "duration": 0.0161,
      "velocity": 105,
      "chip": "ym2612"
    },
    {
      "channel": 0,
      "note": 71,
      "start": 23.438,
      "duration": 0.0161,
      "velocity": 127,
      "chip": "ym2612"
    },
    {
      "channel": 4,
      "note": 81,
      "start": 23.4392,
      "duration": 0.0161,
      "velocity": 94,
      "chip": "ym2612"
    },
    {
      "channel": 3,
      "note": 81,
      "start": 23.4404,
      "duration": 0.0161,
      "velocity": 94,
      "chip": "ym2612"
    },
    {
      "channel": 2,
      "note": 50,
      "start": 23.4415,
      "duration": 0.0161,
      "velocity": 100,
      "chip": "ym2612"
    },
    {
      "channel": 1,
      "note": 105,
      "start": 23.4525,
      "duration": 0.0161,
      "velocity": 105,
      "chip": "ym2612"
    },
    {
      "channel": 0,
      "note": 70,
      "start": 23.4541,
      "duration": 0.0161,
      "velocity": 127,
      "chip": "ym2612"
    },
    {
      "channel": 4,
      "note": 81,
      "start": 23.4553,
      "duration": 0.0161,
      "velocity": 94,
      "chip": "ym2612"
    },
    {
      "channel": 3,
      "note": 81,
      "start": 23.4565,
      "duration": 0.0161,
      "velocity": 94,
      "chip": "ym2612"
    },
    {
      "channel": 2,
      "note": 50,
      "start": 23.4576,
      "duration": 0.0161,
      "velocity": 100,
      "chip": "ym2612"
    },
    {
      "channel": 1,
      "note": 105,
      "start": 23.4686,
      "duration": 0.0178,
      "velocity": 124,
      "chip": "ym2612"
    },
    {
      "channel": 0,
      "note": 68,
      "start": 23.4702,
      "duration": 0.0197,
      "velocity": 115,
      "chip": "ym2612"
    },
    {
      "channel": 4,
      "note": 81,
      "start": 23.4714,
      "duration": 0.0197,
      "velocity": 94,
      "chip": "ym2612"
    },
    {
      "channel": 3,
      "note": 81,
      "start": 23.4726,
      "duration": 0.0197,
      "velocity": 94,
      "chip": "ym2612"
    },
    {
      "channel": 2,
      "note": 50,
      "start": 23.4737,
      "duration": 0.0227,
      "velocity": 100,
      "chip": "ym2612"
    },
    {
      "channel": 1,
      "note": 64,
      "start": 23.4864,
      "duration": 0.0144,
      "velocity": 124,
      "chip": "ym2612"
    },
    {
      "channel": 0,
      "note": 36,
      "start": 23.4899,
      "duration": 0.0127,
      "velocity": 115,
      "chip": "ym2612"
    },
    {
      "channel": 4,
      "note": 81,
      "start": 23.4911,
      "duration": 0.0127,
      "velocity": 94,
      "chip": "ym2612"
    },
    {
      "channel": 3,
      "note": 81,
      "start": 23.4922,
      "duration": 0.0127,
      "velocity": 94,
      "chip": "ym2612"
    },
    {
      "channel": 2,
      "note": 52,
      "start": 23.4963,
      "duration": 0.0098,
      "velocity": 100,
      "chip": "ym2612"
    },
    {
      "channel": 1,
      "note": 64,
      "start": 23.5009,
      "duration": 0.016,
      "velocity": 124,
      "chip": "ym2612"
    },
    {
      "channel": 0,
      "note": 36,
      "start": 23.5026,
      "duration": 0.016,
      "velocity": 115,
      "chip": "ym2612"
    },
    {
      "channel": 4,
      "note": 81,
      "start": 23.5037,
      "duration": 0.016,
      "velocity": 94,
      "chip": "ym2612"
    },
    {
      "channel": 3,
      "note": 81,
      "start": 23.5049,
      "duration": 0.016,
      "velocity": 94,
      "chip": "ym2612"
    },
    {
      "channel": 2,
      "note": 52,
      "start": 23.5061,
      "duration": 0.0159,
      "velocity": 100,
      "chip": "ym2612"
    },
    {
      "channel": 1,
      "note": 64,
      "start": 23.5169,
      "duration": 0.0161,
      "velocity": 124,
      "chip": "ym2612"
    },
    {
      "channel": 0,
      "note": 37,
      "start": 23.5186,
      "duration": 0.0161,
      "velocity": 115,
      "chip": "ym2612"
    },
    {
      "channel": 4,
      "note": 81,
      "start": 23.5197,
      "duration": 0.0162,
      "velocity": 94,
      "chip": "ym2612"
    },
    {
      "channel": 3,
      "note": 81,
      "start": 23.5209,
      "duration": 0.0161,
      "velocity": 94,
      "chip": "ym2612"
    },
    {
      "channel": 2,
      "note": 52,
      "start": 23.522,
      "duration": 0.0161,
      "velocity": 100,
      "chip": "ym2612"
    },
    {
      "channel": 1,
      "note": 64,
      "start": 23.533,
      "duration": 0.0161,
      "velocity": 124,
      "chip": "ym2612"
    },
    {
      "channel": 0,
      "note": 37,
      "start": 23.5346,
      "duration": 0.0161,
      "velocity": 115,
      "chip": "ym2612"
    },
    {
      "channel": 4,
      "note": 81,
      "start": 23.5359,
      "duration": 0.0161,
      "velocity": 94,
      "chip": "ym2612"
    },
    {
      "channel": 3,
      "note": 81,
      "start": 23.537,
      "duration": 0.0161,
      "velocity": 94,
      "chip": "ym2612"
    },
    {
      "channel": 2,
      "note": 52,
      "start": 23.5381,
      "duration": 0.0161,
      "velocity": 100,
      "chip": "ym2612"
    },
    {
      "channel": 1,
      "note": 64,
      "start": 23.5491,
      "duration": 0.0161,
      "velocity": 124,
      "chip": "ym2612"
    },
    {
      "channel": 0,
      "note": 38,
      "start": 23.5507,
      "duration": 0.0161,
      "velocity": 115,
      "chip": "ym2612"
    },
    {
      "channel": 4,
      "note": 81,
      "start": 23.552,
      "duration": 0.0161,
      "velocity": 94,
      "chip": "ym2612"
    },
    {
      "channel": 3,
      "note": 81,
      "start": 23.5531,
      "duration": 0.0161,
      "velocity": 94,
      "chip": "ym2612"
    },
    {
      "channel": 2,
      "note": 52,
      "start": 23.5542,
      "duration": 0.0161,
      "velocity": 100,
      "chip": "ym2612"
    },
    {
      "channel": 1,
      "note": 64,
      "start": 23.5652,
      "duration": 0.0161,
      "velocity": 124,
      "chip": "ym2612"
    },
    {
      "channel": 0,
      "note": 38,
      "start": 23.5668,
      "duration": 0.0161,
      "velocity": 115,
      "chip": "ym2612"
    },
    {
      "channel": 4,
      "note": 81,
      "start": 23.568,
      "duration": 0.0161,
      "velocity": 94,
      "chip": "ym2612"
    },
    {
      "channel": 3,
      "note": 81,
      "start": 23.5692,
      "duration": 0.0161,
      "velocity": 94,
      "chip": "ym2612"
    },
    {
      "channel": 2,
      "note": 52,
      "start": 23.5703,
      "duration": 0.0161,
      "velocity": 100,
      "chip": "ym2612"
    },
    {
      "channel": 1,
      "note": 64,
      "start": 23.5813,
      "duration": 0.0178,
      "velocity": 105,
      "chip": "ym2612"
    },
    {
      "channel": 0,
      "note": 39,
      "start": 23.5829,
      "duration": 0.0179,
      "velocity": 115,
      "chip": "ym2612"
    },
    {
      "channel": 4,
      "note": 81,
      "start": 23.5841,
      "duration": 0.0181,
      "velocity": 94,
      "chip": "ym2612"
    },
    {
      "channel": 3,
      "note": 81,
      "start": 23.5853,
      "duration": 0.0181,
      "velocity": 94,
      "chip": "ym2612"
    },
    {
      "channel": 2,
      "note": 52,
      "start": 23.5864,
      "duration": 0.0185,
      "velocity": 100,
      "chip": "ym2612"
    },
    {
      "channel": 1,
      "note": 105,
      "start": 23.5991,
      "duration": 0.0144,
      "velocity": 105,
      "chip": "ym2612"
    },
    {
      "channel": 0,
      "note": 39,
      "start": 23.6008,
      "duration": 0.0144,
      "velocity": 115,
      "chip": "ym2612"
    },
    {
      "channel": 4,
      "note": 88,
      "start": 23.6023,
      "duration": 0.0142,
      "velocity": 94,
      "chip": "ym2612"
    },
    {
      "channel": 3,
      "note": 81,
      "start": 23.6034,
      "duration": 0.0142,
      "velocity": 94,
      "chip": "ym2612"
    },
    {
      "channel": 2,
      "note": 52,
      "start": 23.6048,
      "duration": 0.0139,
      "velocity": 100,
      "chip": "ym2612"
    },
    {
      "channel": 1,
      "note": 105,
      "start": 23.6135,
      "duration": 0.0171,
      "velocity": 105,
      "chip": "ym2612"
    },
    {
      "channel": 0,
      "note": 40,
      "start": 23.6152,
      "duration": 0.0171,
      "velocity": 115,
      "chip": "ym2612"
    },
    {
      "channel": 4,
      "note": 88,
      "start": 23.6165,
      "duration": 0.017,
      "velocity": 94,
      "chip": "ym2612"
    },
    {
      "channel": 3,
      "note": 81,
      "start": 23.6176,
      "duration": 0.017,
      "velocity": 94,
      "chip": "ym2612"
    },
    {
      "channel": 2,
      "note": 52,
      "start": 23.6188,
      "duration": 0.017,
      "velocity": 100,
      "chip": "ym2612"
    },
    {
      "channel": 1,
      "note": 105,
      "start": 23.6307,
      "duration": 0.0167,
      "velocity": 105,
      "chip": "ym2612"
    },
    {
      "channel": 0,
      "note": 40,
      "start": 23.6323,
      "duration": 0.0167,
      "velocity": 115,
      "chip": "ym2612"
    },
    {
      "channel": 4,
      "note": 88,
      "start": 23.6334,
      "duration": 0.0167,
      "velocity": 94,
      "chip": "ym2612"
    },
    {
      "channel": 3,
      "note": 81,
      "start": 23.6346,
      "duration": 0.0167,
      "velocity": 94,
      "chip": "ym2612"
    },
    {
      "channel": 2,
      "note": 52,
      "start": 23.6357,
      "duration": 0.0167,
      "velocity": 100,
      "chip": "ym2612"
    },
    {
      "channel": 1,
      "note": 105,
      "start": 23.6473,
      "duration": 0.0163,
      "velocity": 105,
      "chip": "ym2612"
    },
    {
      "channel": 0,
      "note": 40,
      "start": 23.649,
      "duration": 0.0163,
      "velocity": 115,
      "chip": "ym2612"
    },
    {
      "channel": 4,
      "note": 88,
      "start": 23.6501,
      "duration": 0.0163,
      "velocity": 94,
      "chip": "ym2612"
    },
    {
      "channel": 3,
      "note": 81,
      "start": 23.6513,
      "duration": 0.0163,
      "velocity": 94,
      "chip": "ym2612"
    },
    {
      "channel": 2,
      "note": 52,
      "start": 23.6524,
      "duration": 0.0163,
      "velocity": 100,
      "chip": "ym2612"
    },
    {
      "channel": 1,
      "note": 105,
      "start": 23.6636,
      "duration": 0.0146,
      "velocity": 105,
      "chip": "ym2612"
    },
    {
      "channel": 0,
      "note": 41,
      "start": 23.6653,
      "duration": 0.0146,
      "velocity": 115,
      "chip": "ym2612"
    },
    {
      "channel": 4,
      "note": 88,
      "start": 23.6664,
      "duration": 0.0146,
      "velocity": 94,
      "chip": "ym2612"
    },
    {
      "channel": 3,
      "note": 81,
      "start": 23.6676,
      "duration": 0.0146,
      "velocity": 94,
      "chip": "ym2612"
    },
    {
      "channel": 2,
      "note": 52,
      "start": 23.6687,
      "duration": 0.0146,
      "velocity": 100,
      "chip": "ym2612"
    },
    {
      "channel": 1,
      "note": 105,
      "start": 23.6782,
      "duration": 0.0185,
      "velocity": 105,
      "chip": "ym2612"
    },
    {
      "channel": 0,
      "note": 41,
      "start": 23.6799,
      "duration": 0.0185,
      "velocity": 115,
      "chip": "ym2612"
    },
    {
      "channel": 4,
      "note": 88,
      "start": 23.681,
      "duration": 0.0186,
      "velocity": 94,
      "chip": "ym2612"
    },
    {
      "channel": 3,
      "note": 81,
      "start": 23.6822,
      "duration": 0.0186,
      "velocity": 94,
      "chip": "ym2612"
    },
    {
      "channel": 2,
      "note": 52,
      "start": 23.6833,
      "duration": 0.0185,
      "velocity": 100,
      "chip": "ym2612"
    },
    {
      "channel": 1,
      "note": 105,
      "start": 23.6967,
      "duration": 0.0178,
      "velocity": 124,
      "chip": "ym2612"
    },
    {
      "channel": 0,
      "note": 42,
      "start": 23.6984,
      "duration": 0.0179,
      "velocity": 115,
      "chip": "ym2612"
    },
    {
      "channel": 4,
      "note": 88,
      "start": 23.6996,
      "duration": 0.018,
      "velocity": 94,
      "chip": "ym2612"
    },
    {
      "channel": 3,
      "note": 81,
      "start": 23.7007,
      "duration": 0.0183,
      "velocity": 94,
      "chip": "ym2612"
    },
    {
      "channel": 2,
      "note": 52,
      "start": 23.7018,
      "duration": 0.0187,
      "velocity": 100,
      "chip": "ym2612"
    },
    {
      "channel": 1,
      "note": 64,
      "start": 23.7146,
      "duration": 0.0116,
      "velocity": 124,
      "chip": "ym2612"
    },
    {
      "channel": 0,
      "note": 42,
      "start": 23.7163,
      "duration": 0.0141,
      "velocity": 115,
      "chip": "ym2612"
    },
    {
      "channel": 4,
      "note": 89,
      "start": 23.7177,
      "duration": 0.0139,
      "velocity": 94,
      "chip": "ym2612"
    },
    {
      "channel": 3,
      "note": 88,
      "start": 23.7191,
      "duration": 0.0136,
      "velocity": 94,
      "chip": "ym2612"
    },
    {
      "channel": 2,
      "note": 52,
      "start": 23.7206,
      "duration": 0.0134,
      "velocity": 100,
      "chip": "ym2612"
    },
    {
      "channel": 1,
      "note": 64,
      "start": 23.7263,
      "duration": 0.016,
      "velocity": 124,
      "chip": "ym2612"
    },
    {
      "channel": 0,
      "note": 43,
      "start": 23.7303,
      "duration": 0.014,
      "velocity": 115,
      "chip": "ym2612"
    },
    {
      "channel": 4,
      "note": 89,
      "start": 23.7315,
      "duration": 0.0139,
      "velocity": 94,
      "chip": "ym2612"
    },
    {
      "channel": 3,
      "note": 88,
      "start": 23.7327,
      "duration": 0.0139,
      "velocity": 94,
      "chip": "ym2612"
    },
    {
      "channel": 2,
      "note": 52,
      "start": 23.7339,
      "duration": 0.0138,
      "velocity": 100,
      "chip": "ym2612"
    },
    {
      "channel": 1,
      "note": 64,
      "start": 23.7423,
      "duration": 0.0161,
      "velocity": 124,
      "chip": "ym2612"
    },
    {
      "channel": 0,
      "note": 43,
      "start": 23.7443,
      "duration": 0.0185,
      "velocity": 115,
      "chip": "ym2612"
    },
    {
      "channel": 4,
      "note": 89,
      "start": 23.7455,
      "duration": 0.0185,
      "velocity": 94,
      "chip": "ym2612"
    },
    {
      "channel": 3,
      "note": 88,
      "start": 23.7466,
      "duration": 0.0185,
      "velocity": 94,
      "chip": "ym2612"
    },
    {
      "channel": 2,
      "note": 52,
      "start": 23.7478,
      "duration": 0.0185,
      "velocity": 100,
      "chip": "ym2612"
    },
    {
      "channel": 1,
      "note": 64,
      "start": 23.7584,
      "duration": 0.0161,
      "velocity": 124,
      "chip": "ym2612"
    },
    {
      "channel": 0,
      "note": 44,
      "start": 23.7628,
      "duration": 0.0134,
      "velocity": 115,
      "chip": "ym2612"
    },
    {
      "channel": 4,
      "note": 89,
      "start": 23.764,
      "duration": 0.0161,
      "velocity": 94,
      "chip": "ym2612"
    },
    {
      "channel": 3,
      "note": 88,
      "start": 23.7651,
      "duration": 0.0161,
      "velocity": 94,
      "chip": "ym2612"
    },
    {
      "channel": 2,
      "note": 52,
      "start": 23.7663,
      "duration": 0.0161,
      "velocity": 100,
      "chip": "ym2612"
    },
    {
      "channel": 1,
      "note": 64,
      "start": 23.7745,
      "duration": 0.0162,
      "velocity": 124,
      "chip": "ym2612"
    },
    {
      "channel": 0,
      "note": 44,
      "start": 23.7762,
      "duration": 0.0161,
      "velocity": 115,
      "chip": "ym2612"
    },
    {
      "channel": 4,
      "note": 89,
      "start": 23.7801,
      "duration": 0.0158,
      "velocity": 94,
      "chip": "ym2612"
    },
    {
      "channel": 3,
      "note": 88,
      "start": 23.7812,
      "duration": 0.0158,
      "velocity": 94,
      "chip": "ym2612"
    },
    {
      "channel": 2,
      "note": 52,
      "start": 23.7824,
      "duration": 0.0158,
      "velocity": 100,
      "chip": "ym2612"
    },
    {
      "channel": 1,
      "note": 64,
      "start": 23.7906,
      "duration": 0.0161,
      "velocity": 124,
      "chip": "ym2612"
    },
    {
      "channel": 0,
      "note": 44,
      "start": 23.7923,
      "duration": 0.0161,
      "velocity": 115,
      "chip": "ym2612"
    },
    {
      "channel": 4,
      "note": 89,
      "start": 23.7959,
      "duration": 0.0137,
      "velocity": 94,
      "chip": "ym2612"
    },
    {
      "channel": 3,
      "note": 88,
      "start": 23.797,
      "duration": 0.0141,
      "velocity": 94,
      "chip": "ym2612"
    },
    {
      "channel": 2,
      "note": 52,
      "start": 23.7981,
      "duration": 0.014,
      "velocity": 100,
      "chip": "ym2612"
    },
    {
      "channel": 1,
      "note": 64,
      "start": 23.8067,
      "duration": 0.0177,
      "velocity": 105,
      "chip": "ym2612"
    },
    {
      "channel": 0,
      "note": 45,
      "start": 23.8084,
      "duration": 0.0178,
      "velocity": 115,
      "chip": "ym2612"
    },
    {
      "channel": 4,
      "note": 89,
      "start": 23.8095,
      "duration": 0.0208,
      "velocity": 94,
      "chip": "ym2612"
    },
    {
      "channel": 3,
      "note": 88,
      "start": 23.8111,
      "duration": 0.0207,
      "velocity": 94,
      "chip": "ym2612"
    },
    {
      "channel": 2,
      "note": 52,
      "start": 23.8121,
      "duration": 0.0211,
      "velocity": 100,
      "chip": "ym2612"
    },
    {
      "channel": 1,
      "note": 105,
      "start": 23.8245,
      "duration": 0.0144,
      "velocity": 105,
      "chip": "ym2612"
    },
    {
      "channel": 0,
      "note": 45,
      "start": 23.8262,
      "duration": 0.0144,
      "velocity": 115,
      "chip": "ym2612"
    },
    {
      "channel": 4,
      "note": 88,
      "start": 23.8304,
      "duration": 0.0115,
      "velocity": 94,
      "chip": "ym2612"
    },
    {
      "channel": 3,
      "note": 89,
      "start": 23.8318,
      "duration": 0.0113,
      "velocity": 94,
      "chip": "ym2612"
    },
    {
      "channel": 2,
      "note": 52,
      "start": 23.8332,
      "duration": 0.0138,
      "velocity": 100,
      "chip": "ym2612"
    },
    {
      "channel": 1,
      "note": 105,
      "start": 23.839,
      "duration": 0.016,
      "velocity": 105,
      "chip": "ym2612"
    },
    {
      "channel": 0,
      "note": 46,
      "start": 23.8406,
      "duration": 0.016,
      "velocity": 115,
      "chip": "ym2612"
    },
    {
      "channel": 4,
      "note": 88,
      "start": 23.8418,
      "duration": 0.016,
      "velocity": 94,
      "chip": "ym2612"
    },
    {
      "channel": 3,
      "note": 89,
      "start": 23.8431,
      "duration": 0.0159,
      "velocity": 94,
      "chip": "ym2612"
    },
    {
      "channel": 2,
      "note": 52,
      "start": 23.847,
      "duration": 0.0155,
      "velocity": 100,
      "chip": "ym2612"
    },
    {
      "channel": 1,
      "note": 105,
      "start": 23.855,
      "duration": 0.0161,
      "velocity": 105,
      "chip": "ym2612"
    },
    {
      "channel": 0,
      "note": 46,
      "start": 23.8567,
      "duration": 0.0161,
      "velocity": 115,
      "chip": "ym2612"
    },
    {
      "channel": 4,
      "note": 88,
      "start": 23.8578,
      "duration": 0.0161,
      "velocity": 94,
      "chip": "ym2612"
    },
    {
      "channel": 3,
      "note": 89,
      "start": 23.859,
      "duration": 0.0161,
      "velocity": 94,
      "chip": "ym2612"
    },
    {
      "channel": 2,
      "note": 52,
      "start": 23.8625,
      "duration": 0.0137,
      "velocity": 100,
      "chip": "ym2612"
    },
    {
      "channel": 1,
      "note": 105,
      "start": 23.8711,
      "duration": 0.0161,
      "velocity": 105,
      "chip": "ym2612"
    },
    {
      "channel": 0,
      "note": 47,
      "start": 23.8728,
      "duration": 0.0161,
      "velocity": 115,
      "chip": "ym2612"
    },
    {
      "channel": 4,
      "note": 88,
      "start": 23.8739,
      "duration": 0.0162,
      "velocity": 94,
      "chip": "ym2612"
    },
    {
      "channel": 3,
      "note": 89,
      "start": 23.8751,
      "duration": 0.0161,
      "velocity": 94,
      "chip": "ym2612"
    },
    {
      "channel": 2,
      "note": 52,
      "start": 23.8762,
      "duration": 0.0161,
      "velocity": 100,
      "chip": "ym2612"
    },
    {
      "channel": 1,
      "note": 105,
      "start": 23.8872,
      "duration": 0.0161,
      "velocity": 105,
      "chip": "ym2612"
    },
    {
      "channel": 0,
      "note": 47,
      "start": 23.8888,
      "duration": 0.0161,
      "velocity": 115,
      "chip": "ym2612"
    },
    {
      "channel": 4,
      "note": 88,
      "start": 23.8901,
      "duration": 0.0161,
      "velocity": 94,
      "chip": "ym2612"
    },
    {
      "channel": 3,
      "note": 89,
      "start": 23.8912,
      "duration": 0.0161,
      "velocity": 94,
      "chip": "ym2612"
    },
    {
      "channel": 2,
      "note": 52,
      "start": 23.8923,
      "duration": 0.0161,
      "velocity": 100,
      "chip": "ym2612"
    },
    {
      "channel": 1,
      "note": 105,
      "start": 23.9033,
      "duration": 0.0161,
      "velocity": 105,
      "chip": "ym2612"
    },
    {
      "channel": 0,
      "note": 47,
      "start": 23.9049,
      "duration": 0.0161,
      "velocity": 115,
      "chip": "ym2612"
    },
    {
      "channel": 4,
      "note": 88,
      "start": 23.9062,
      "duration": 0.0161,
      "velocity": 94,
      "chip": "ym2612"
    },
    {
      "channel": 3,
      "note": 89,
      "start": 23.9073,
      "duration": 0.0161,
      "velocity": 94,
      "chip": "ym2612"
    },
    {
      "channel": 2,
      "note": 52,
      "start": 23.9084,
      "duration": 0.0161,
      "velocity": 100,
      "chip": "ym2612"
    },
    {
      "channel": 1,
      "note": 105,
      "start": 23.9194,
      "duration": 0.0184,
      "velocity": 124,
      "chip": "ym2612"
    },
    {
      "channel": 0,
      "note": 48,
      "start": 23.921,
      "duration": 0.0191,
      "velocity": 115,
      "chip": "ym2612"
    },
    {
      "channel": 4,
      "note": 88,
      "start": 23.9222,
      "duration": 0.0193,
      "velocity": 94,
      "chip": "ym2612"
    },
    {
      "channel": 3,
      "note": 89,
      "start": 23.9234,
      "duration": 0.0196,
      "velocity": 94,
      "chip": "ym2612"
    },
    {
      "channel": 2,
      "note": 52,
      "start": 23.9245,
      "duration": 0.0203,
      "velocity": 100,
      "chip": "ym2612"
    },
    {
      "channel": 1,
      "note": 78,
      "start": 23.9378,
      "duration": 0.0144,
      "velocity": 124,
      "chip": "ym2612"
    },
    {
      "channel": 0,
      "note": 48,
      "start": 23.9402,
      "duration": 0.0139,
      "velocity": 115,
      "chip": "ym2612"
    },
    {
      "channel": 4,
      "note": 89,
      "start": 23.9416,
      "duration": 0.0137,
      "velocity": 94,
      "chip": "ym2612"
    },
    {
      "channel": 3,
      "note": 88,
      "start": 23.943,
      "duration": 0.0135,
      "velocity": 94,
      "chip": "ym2612"
    },
    {
      "channel": 2,
      "note": 52,
      "start": 23.9448,
      "duration": 0.0129,
      "velocity": 100,
      "chip": "ym2612"
    },
    {
      "channel": 1,
      "note": 76,
      "start": 23.9522,
      "duration": 0.016,
      "velocity": 124,
      "chip": "ym2612"
    },
    {
      "channel": 0,
      "note": 49,
      "start": 23.9541,
      "duration": 0.0152,
      "velocity": 1,
      "chip": "ym2612"
    },
    {
      "channel": 4,
      "note": 89,
      "start": 23.9553,
      "duration": 0.0151,
      "velocity": 94,
      "chip": "ym2612"
    },
    {
      "channel": 3,
      "note": 88,
      "start": 23.9565,
      "duration": 0.015,
      "velocity": 94,
      "chip": "ym2612"
    },
    {
      "channel": 2,
      "note": 52,
      "start": 23.9577,
      "duration": 0.015,
      "velocity": 100,
      "chip": "ym2612"
    },
    {
      "channel": 1,
      "note": 75,
      "start": 23.9682,
      "duration": 0.0161,
      "velocity": 124,
      "chip": "ym2612"
    },
    {
      "channel": 4,
      "note": 89,
      "start": 23.9704,
      "duration": 0.0153,
      "velocity": 94,
      "chip": "ym2612"
    },
    {
      "channel": 3,
      "note": 88,
      "start": 23.9715,
      "duration": 0.0153,
      "velocity": 94,
      "chip": "ym2612"
    },
    {
      "channel": 2,
      "note": 52,
      "start": 23.9727,
      "duration": 0.0153,
      "velocity": 100,
      "chip": "ym2612"
    },
    {
      "channel": 1,
      "note": 74,
      "start": 23.9843,
      "duration": 0.0161,
      "velocity": 124,
      "chip": "ym2612"
    },
    {
      "channel": 4,
      "note": 89,
      "start": 23.9857,
      "duration": 0.0161,
      "velocity": 94,
      "chip": "ym2612"
    },
    {
      "channel": 3,
      "note": 88,
      "start": 23.9869,
      "duration": 0.0161,
      "velocity": 94,
      "chip": "ym2612"
    },
    {
      "channel": 2,
      "note": 52,
      "start": 23.988,
      "duration": 0.0161,
      "velocity": 100,
      "chip": "ym2612"
    },
    {
      "channel": 1,
      "note": 72,
      "start": 24.0004,
      "duration": 0.0161,
      "velocity": 124,
      "chip": "ym2612"
    },
    {
      "channel": 4,
      "note": 89,
      "start": 24.0018,
      "duration": 0.0161,
      "velocity": 94,
      "chip": "ym2612"
    },
    {
      "channel": 3,
      "note": 88,
      "start": 24.003,
      "duration": 0.0161,
      "velocity": 94,
      "chip": "ym2612"
    },
    {
      "channel": 2,
      "note": 52,
      "start": 24.0041,
      "duration": 0.0161,
      "velocity": 100,
      "chip": "ym2612"
    },
    {
      "channel": 1,
      "note": 71,
      "start": 24.0165,
      "duration": 0.0161,
      "velocity": 124,
      "chip": "ym2612"
    },
    {
      "channel": 4,
      "note": 89,
      "start": 24.0179,
      "duration": 0.0161,
      "velocity": 94,
      "chip": "ym2612"
    },
    {
      "channel": 3,
      "note": 88,
      "start": 24.0191,
      "duration": 0.0161,
      "velocity": 94,
      "chip": "ym2612"
    },
    {
      "channel": 2,
      "note": 52,
      "start": 24.0202,
      "duration": 0.0161,
      "velocity": 100,
      "chip": "ym2612"
    },
    {
      "channel": 1,
      "note": 70,
      "start": 24.0326,
      "duration": 0.0161,
      "velocity": 124,
      "chip": "ym2612"
    },
    {
      "channel": 4,
      "note": 89,
      "start": 24.034,
      "duration": 0.0169,
      "velocity": 94,
      "chip": "ym2612"
    },
    {
      "channel": 3,
      "note": 88,
      "start": 24.0352,
      "duration": 0.0171,
      "velocity": 94,
      "chip": "ym2612"
    },
    {
      "channel": 2,
      "note": 52,
      "start": 24.0363,
      "duration": 0.0174,
      "velocity": 100,
      "chip": "ym2612"
    },
    {
      "channel": 1,
      "note": 69,
      "start": 24.0487,
      "duration": 0.0161,
      "velocity": 124,
      "chip": "ym2612"
    },
    {
      "channel": 4,
      "note": 88,
      "start": 24.0509,
      "duration": 0.0154,
      "velocity": 94,
      "chip": "ym2612"
    },
    {
      "channel": 3,
      "note": 89,
      "start": 24.0523,
      "duration": 0.0151,
      "velocity": 94,
      "chip": "ym2612"
    },
    {
      "channel": 2,
      "note": 52,
      "start": 24.0538,
      "duration": 0.0149,
      "velocity": 100,
      "chip": "ym2612"
    },
    {
      "channel": 1,
      "note": 68,
      "start": 24.0648,
      "duration": 0.0161,
      "velocity": 124,
      "chip": "ym2612"
    },
    {
      "channel": 4,
      "note": 88,
      "start": 24.0663,
      "duration": 0.016,
      "velocity": 94,
      "chip": "ym2612"
    },
    {
      "channel": 3,
      "note": 89,
      "start": 24.0675,
      "duration": 0.016,
      "velocity": 94,
      "chip": "ym2612"
    },
    {
      "channel": 2,
      "note": 52,
      "start": 24.0687,
      "duration": 0.0159,
      "velocity": 100,
      "chip": "ym2612"
    },
    {
      "channel": 1,
      "note": 66,
      "start": 24.0809,
      "duration": 0.0168,
      "velocity": 124,
      "chip": "ym2612"
    },
    {
      "channel": 4,
      "note": 88,
      "start": 24.0823,
      "duration": 0.0168,
      "velocity": 94,
      "chip": "ym2612"
    },
    {
      "channel": 3,
      "note": 89,
      "start": 24.0834,
      "duration": 0.0168,
      "velocity": 94,
      "chip": "ym2612"
    },
    {
      "channel": 2,
      "note": 52,
      "start": 24.0846,
      "duration": 0.0168,
      "velocity": 100,
      "chip": "ym2612"
    },
    {
      "channel": 1,
      "note": 65,
      "start": 24.0978,
      "duration": 0.0167,
      "velocity": 124,
      "chip": "ym2612"
    },
    {
      "channel": 4,
      "note": 88,
      "start": 24.0992,
      "duration": 0.0167,
      "velocity": 94,
      "chip": "ym2612"
    },
    {
      "channel": 3,
      "note": 89,
      "start": 24.1003,
      "duration": 0.0167,
      "velocity": 94,
      "chip": "ym2612"
    },
    {
      "channel": 2,
      "note": 52,
      "start": 24.1015,
      "duration": 0.0167,
      "velocity": 100,
      "chip": "ym2612"
    },
    {
      "channel": 1,
      "note": 64,
      "start": 24.1145,
      "duration": 0.0163,
      "velocity": 124,
      "chip": "ym2612"
    },
    {
      "channel": 4,
      "note": 88,
      "start": 24.1158,
      "duration": 0.0163,
      "velocity": 94,
      "chip": "ym2612"
    },
    {
      "channel": 3,
      "note": 89,
      "start": 24.117,
      "duration": 0.0163,
      "velocity": 94,
      "chip": "ym2612"
    },
    {
      "channel": 2,
      "note": 52,
      "start": 24.1181,
      "duration": 0.0163,
      "velocity": 100,
      "chip": "ym2612"
    },
    {
      "channel": 1,
      "note": 62,
      "start": 24.1308,
      "duration": 0.0147,
      "velocity": 124,
      "chip": "ym2612"
    },
    {
      "channel": 4,
      "note": 88,
      "start": 24.1322,
      "duration": 0.0147,
      "velocity": 94,
      "chip": "ym2612"
    },
    {
      "channel": 3,
      "note": 89,
      "start": 24.1333,
      "duration": 0.0147,
      "velocity": 94,
      "chip": "ym2612"
    },
    {
      "channel": 2,
      "note": 52,
      "start": 24.1344,
      "duration": 0.0147,
      "velocity": 100,
      "chip": "ym2612"
    },
    {
      "channel": 1,
      "note": 61,
      "start": 24.1455,
      "duration": 0.0187,
      "velocity": 124,
      "chip": "ym2612"
    },
    {
      "channel": 4,
      "note": 88,
      "start": 24.1469,
      "duration": 0.0192,
      "velocity": 94,
      "chip": "ym2612"
    },
    {
      "channel": 3,
      "note": 89,
      "start": 24.148,
      "duration": 0.0195,
      "velocity": 94,
      "chip": "ym2612"
    },
    {
      "channel": 2,
      "note": 52,
      "start": 24.1491,
      "duration": 0.0198,
      "velocity": 100,
      "chip": "ym2612"
    },
    {
      "channel": 1,
      "note": 60,
      "start": 24.1642,
      "duration": 0.0161,
      "velocity": 124,
      "chip": "ym2612"
    },
    {
      "channel": 4,
      "note": 88,
      "start": 24.1661,
      "duration": 0.0156,
      "velocity": 94,
      "chip": "ym2612"
    },
    {
      "channel": 3,
      "note": 88,
      "start": 24.1676,
      "duration": 0.0154,
      "velocity": 94,
      "chip": "ym2612"
    },
    {
      "channel": 2,
      "note": 52,
      "start": 24.1689,
      "duration": 0.0151,
      "velocity": 100,
      "chip": "ym2612"
    },
    {
      "channel": 1,
      "note": 59,
      "start": 24.1803,
      "duration": 0.0157,
      "velocity": 124,
      "chip": "ym2612"
    },
    {
      "channel": 4,
      "note": 88,
      "start": 24.1817,
      "duration": 0.0156,
      "velocity": 94,
      "chip": "ym2612"
    },
    {
      "channel": 3,
      "note": 88,
      "start": 24.1829,
      "duration": 0.0156,
      "velocity": 94,
      "chip": "ym2612"
    },
    {
      "channel": 2,
      "note": 52,
      "start": 24.1841,
      "duration": 0.0156,
      "velocity": 100,
      "chip": "ym2612"
    },
    {
      "channel": 1,
      "note": 57,
      "start": 24.196,
      "duration": 0.0137,
      "velocity": 124,
      "chip": "ym2612"
    },
    {
      "channel": 4,
      "note": 88,
      "start": 24.1974,
      "duration": 0.0141,
      "velocity": 94,
      "chip": "ym2612"
    },
    {
      "channel": 3,
      "note": 88,
      "start": 24.1985,
      "duration": 0.0141,
      "velocity": 94,
      "chip": "ym2612"
    },
    {
      "channel": 2,
      "note": 52,
      "start": 24.1997,
      "duration": 0.0141,
      "velocity": 100,
      "chip": "ym2612"
    },
    {
      "channel": 1,
      "note": 56,
      "start": 24.2097,
      "duration": 0.0161,
      "velocity": 124,
      "chip": "ym2612"
    },
    {
      "channel": 4,
      "note": 88,
      "start": 24.2114,
      "duration": 0.0185,
      "velocity": 94,
      "chip": "ym2612"
    },
    {
      "channel": 3,
      "note": 88,
      "start": 24.2126,
      "duration": 0.0185,
      "velocity": 94,
      "chip": "ym2612"
    },
    {
      "channel": 2,
      "note": 52,
      "start": 24.2137,
      "duration": 0.0185,
      "velocity": 100,
      "chip": "ym2612"
    },
    {
      "channel": 1,
      "note": 55,
      "start": 24.2258,
      "duration": 0.0161,
      "velocity": 124,
      "chip": "ym2612"
    },
    {
      "channel": 4,
      "note": 88,
      "start": 24.23,
      "duration": 0.0161,
      "velocity": 94,
      "chip": "ym2612"
    },
    {
      "channel": 3,
      "note": 88,
      "start": 24.2311,
      "duration": 0.0161,
      "velocity": 94,
      "chip": "ym2612"
    },
    {
      "channel": 2,
      "note": 52,
      "start": 24.2322,
      "duration": 0.0161,
      "velocity": 100,
      "chip": "ym2612"
    },
    {
      "channel": 1,
      "note": 53,
      "start": 24.2419,
      "duration": 0.0161,
      "velocity": 124,
      "chip": "ym2612"
    },
    {
      "channel": 4,
      "note": 88,
      "start": 24.246,
      "duration": 0.0134,
      "velocity": 94,
      "chip": "ym2612"
    },
    {
      "channel": 3,
      "note": 88,
      "start": 24.2472,
      "duration": 0.0158,
      "velocity": 94,
      "chip": "ym2612"
    },
    {
      "channel": 2,
      "note": 52,
      "start": 24.2483,
      "duration": 0.0157,
      "velocity": 100,
      "chip": "ym2612"
    },
    {
      "channel": 1,
      "note": 52,
      "start": 24.258,
      "duration": 0.0161,
      "velocity": 124,
      "chip": "ym2612"
    },
    {
      "channel": 4,
      "note": 88,
      "start": 24.2594,
      "duration": 0.0206,
      "velocity": 94,
      "chip": "ym2612"
    },
    {
      "channel": 3,
      "note": 88,
      "start": 24.263,
      "duration": 0.0183,
      "velocity": 94,
      "chip": "ym2612"
    },
    {
      "channel": 2,
      "note": 52,
      "start": 24.264,
      "duration": 0.0186,
      "velocity": 100,
      "chip": "ym2612"
    },
    {
      "channel": 1,
      "note": 51,
      "start": 24.2741,
      "duration": 0.0153,
      "velocity": 1,
      "chip": "ym2612"
    },
    {
      "channel": 0,
      "note": 36,
      "start": 24.2786,
      "duration": 0.0174,
      "velocity": 115,
      "chip": "ym2612"
    },
    {
      "channel": 4,
      "note": 84,
      "start": 24.2801,
      "duration": 0.0173,
      "velocity": 94,
      "chip": "ym2612"
    },
    {
      "channel": 3,
      "note": 88,
      "start": 24.2812,
      "duration": 0.0172,
      "velocity": 94,
      "chip": "ym2612"
    },
    {
      "channel": 2,
      "note": 52,
      "start": 24.2827,
      "duration": 0.0169,
      "velocity": 100,
      "chip": "ym2612"
    },
    {
      "channel": 1,
      "note": 51,
      "start": 24.2916,
      "duration": 0.0142,
      "velocity": 105,
      "chip": "ym2612"
    },
    {
      "channel": 0,
      "note": 36,
      "start": 24.296,
      "duration": 0.0115,
      "velocity": 115,
      "chip": "ym2612"
    },
    {
      "channel": 4,
      "note": 84,
      "start": 24.2973,
      "duration": 0.0113,
      "velocity": 94,
      "chip": "ym2612"
    },
    {
      "channel": 3,
      "note": 88,
      "start": 24.2985,
      "duration": 0.0141,
      "velocity": 94,
      "chip": "ym2612"
    },
    {
      "channel": 2,
      "note": 52,
      "start": 24.2996,
      "duration": 0.0141,
      "velocity": 100,
      "chip": "ym2612"
    },
    {
      "channel": 1,
      "note": 105,
      "start": 24.3058,
      "duration": 0.0161,
      "velocity": 105,
      "chip": "ym2612"
    },
    {
      "channel": 0,
      "note": 37,
      "start": 24.3075,
      "duration": 0.0161,
      "velocity": 115,
      "chip": "ym2612"
    },
    {
      "channel": 4,
      "note": 84,
      "start": 24.3086,
      "duration": 0.0161,
      "velocity": 94,
      "chip": "ym2612"
    },
    {
      "channel": 3,
      "note": 88,
      "start": 24.3125,
      "duration": 0.0134,
      "velocity": 94,
      "chip": "ym2612"
    },
    {
      "channel": 2,
      "note": 52,
      "start": 24.3137,
      "duration": 0.0158,
      "velocity": 100,
      "chip": "ym2612"
    },
    {
      "channel": 1,
      "note": 105,
      "start": 24.3219,
      "duration": 0.0161,
      "velocity": 105,
      "chip": "ym2612"
    },
    {
      "channel": 0,
      "note": 37,
      "start": 24.3236,
      "duration": 0.0161,
      "velocity": 115,
      "chip": "ym2612"
    },
    {
      "channel": 4,
      "note": 84,
      "start": 24.3248,
      "duration": 0.0161,
      "velocity": 94,
      "chip": "ym2612"
    },
    {
      "channel": 3,
      "note": 88,
      "start": 24.3259,
      "duration": 0.0161,
      "velocity": 94,
      "chip": "ym2612"
    },
    {
      "channel": 2,
      "note": 52,
      "start": 24.3294,
      "duration": 0.0138,
      "velocity": 100,
      "chip": "ym2612"
    },
    {
      "channel": 1,
      "note": 105,
      "start": 24.338,
      "duration": 0.0161,
      "velocity": 105,
      "chip": "ym2612"
    },
    {
      "channel": 0,
      "note": 38,
      "start": 24.3397,
      "duration": 0.0161,
      "velocity": 115,
      "chip": "ym2612"
    },
    {
      "channel": 4,
      "note": 84,
      "start": 24.3409,
      "duration": 0.0161,
      "velocity": 94,
      "chip": "ym2612"
    },
    {
      "channel": 3,
      "note": 88,
      "start": 24.342,
      "duration": 0.0161,
      "velocity": 94,
      "chip": "ym2612"
    },
    {
      "channel": 2,
      "note": 52,
      "start": 24.3432,
      "duration": 0.016,
      "velocity": 100,
      "chip": "ym2612"
    },
    {
      "channel": 1,
      "note": 105,
      "start": 24.3541,
      "duration": 0.0161,
      "velocity": 105,
      "chip": "ym2612"
    },
    {
      "channel": 0,
      "note": 38,
      "start": 24.3558,
      "duration": 0.0161,
      "velocity": 115,
      "chip": "ym2612"
    },
    {
      "channel": 4,
      "note": 84,
      "start": 24.357,
      "duration": 0.0161,
      "velocity": 94,
      "chip": "ym2612"
    },
    {
      "channel": 3,
      "note": 88,
      "start": 24.3581,
      "duration": 0.0161,
      "velocity": 94,
      "chip": "ym2612"
    },
    {
      "channel": 2,
      "note": 52,
      "start": 24.3592,
      "duration": 0.0161,
      "velocity": 100,
      "chip": "ym2612"
    },
    {
      "channel": 1,
      "note": 105,
      "start": 24.3702,
      "duration": 0.0178,
      "velocity": 124,
      "chip": "ym2612"
    },
    {
      "channel": 0,
      "note": 39,
      "start": 24.3719,
      "duration": 0.0197,
      "velocity": 115,
      "chip": "ym2612"
    },
    {
      "channel": 4,
      "note": 84,
      "start": 24.3731,
      "duration": 0.0198,
      "velocity": 94,
      "chip": "ym2612"
    },
    {
      "channel": 3,
      "note": 88,
      "start": 24.3742,
      "duration": 0.0225,
      "velocity": 94,
      "chip": "ym2612"
    },
    {
      "channel": 2,
      "note": 52,
      "start": 24.3753,
      "duration": 0.0229,
      "velocity": 100,
      "chip": "ym2612"
    },
    {
      "channel": 1,
      "note": 64,
      "start": 24.3881,
      "duration": 0.0144,
      "velocity": 124,
      "chip": "ym2612"
    },
    {
      "channel": 0,
      "note": 36,
      "start": 24.3915,
      "duration": 0.0127,
      "velocity": 115,
      "chip": "ym2612"
    },
    {
      "channel": 4,
      "note": 86,
      "start": 24.393,
      "duration": 0.0125,
      "velocity": 94,
      "chip": "ym2612"
    },
    {
      "channel": 3,
      "note": 84,
      "start": 24.3968,
      "duration": 0.0099,
      "velocity": 94,
      "chip": "ym2612"
    },
    {
      "channel": 2,
      "note": 52,
      "start": 24.3982,
      "duration": 0.0097,
      "velocity": 100,
      "chip": "ym2612"
    },
    {
      "channel": 1,
      "note": 64,
      "start": 24.4025,
      "duration": 0.016,
      "velocity": 124,
      "chip": "ym2612"
    },
    {
      "channel": 0,
      "note": 36,
      "start": 24.4042,
      "duration": 0.016,
      "velocity": 115,
      "chip": "ym2612"
    },
    {
      "channel": 4,
      "note": 86,
      "start": 24.4055,
      "duration": 0.0159,
      "velocity": 94,
      "chip": "ym2612"
    },
    {
      "channel": 3,
      "note": 84,
      "start": 24.4067,
      "duration": 0.0158,
      "velocity": 94,
      "chip": "ym2612"
    },
    {
      "channel": 2,
      "note": 52,
      "start": 24.4079,
      "duration": 0.0158,
      "velocity": 100,
      "chip": "ym2612"
    },
    {
      "channel": 1,
      "note": 64,
      "start": 24.4186,
      "duration": 0.0161,
      "velocity": 124,
      "chip": "ym2612"
    },
    {
      "channel": 0,
      "note": 37,
      "start": 24.4202,
      "duration": 0.0161,
      "velocity": 115,
      "chip": "ym2612"
    },
    {
      "channel": 4,
      "note": 86,
      "start": 24.4214,
      "duration": 0.0162,
      "velocity": 94,
      "chip": "ym2612"
    },
    {
      "channel": 3,
      "note": 84,
      "start": 24.4225,
      "duration": 0.0162,
      "velocity": 94,
      "chip": "ym2612"
    },
    {
      "channel": 2,
      "note": 52,
      "start": 24.4237,
      "duration": 0.0161,
      "velocity": 100,
      "chip": "ym2612"
    },
    {
      "channel": 1,
      "note": 64,
      "start": 24.4346,
      "duration": 0.0161,
      "velocity": 124,
      "chip": "ym2612"
    },
    {
      "channel": 0,
      "note": 37,
      "start": 24.4363,
      "duration": 0.0161,
      "velocity": 115,
      "chip": "ym2612"
    },
    {
      "channel": 4,
      "note": 86,
      "start": 24.4375,
      "duration": 0.0161,
      "velocity": 94,
      "chip": "ym2612"
    },
    {
      "channel": 3,
      "note": 84,
      "start": 24.4387,
      "duration": 0.0161,
      "velocity": 94,
      "chip": "ym2612"
    },
    {
      "channel": 2,
      "note": 52,
      "start": 24.4398,
      "duration": 0.0161,
      "velocity": 100,
      "chip": "ym2612"
    },
    {
      "channel": 1,
      "note": 64,
      "start": 24.4507,
      "duration": 0.0161,
      "velocity": 124,
      "chip": "ym2612"
    },
    {
      "channel": 0,
      "note": 38,
      "start": 24.4524,
      "duration": 0.0161,
      "velocity": 115,
      "chip": "ym2612"
    },
    {
      "channel": 4,
      "note": 86,
      "start": 24.4536,
      "duration": 0.0161,
      "velocity": 94,
      "chip": "ym2612"
    },
    {
      "channel": 3,
      "note": 84,
      "start": 24.4548,
      "duration": 0.0161,
      "velocity": 94,
      "chip": "ym2612"
    },
    {
      "channel": 2,
      "note": 52,
      "start": 24.4558,
      "duration": 0.0161,
      "velocity": 100,
      "chip": "ym2612"
    },
    {
      "channel": 1,
      "note": 64,
      "start": 24.4668,
      "duration": 0.0161,
      "velocity": 124,
      "chip": "ym2612"
    },
    {
      "channel": 0,
      "note": 38,
      "start": 24.4685,
      "duration": 0.0161,
      "velocity": 115,
      "chip": "ym2612"
    },
    {
      "channel": 4,
      "note": 86,
      "start": 24.4697,
      "duration": 0.0161,
      "velocity": 94,
      "chip": "ym2612"
    },
    {
      "channel": 3,
      "note": 84,
      "start": 24.4709,
      "duration": 0.0161,
      "velocity": 94,
      "chip": "ym2612"
    },
    {
      "channel": 2,
      "note": 52,
      "start": 24.4719,
      "duration": 0.0162,
      "velocity": 100,
      "chip": "ym2612"
    },
    {
      "channel": 1,
      "note": 64,
      "start": 24.4829,
      "duration": 0.0178,
      "velocity": 105,
      "chip": "ym2612"
    },
    {
      "channel": 0,
      "note": 39,
      "start": 24.4846,
      "duration": 0.0178,
      "velocity": 115,
      "chip": "ym2612"
    },
    {
      "channel": 4,
      "note": 86,
      "start": 24.4858,
      "duration": 0.0178,
      "velocity": 94,
      "chip": "ym2612"
    },
    {
      "channel": 3,
      "note": 84,
      "start": 24.4869,
      "duration": 0.0181,
      "velocity": 94,
      "chip": "ym2612"
    },
    {
      "channel": 2,
      "note": 52,
      "start": 24.4881,
      "duration": 0.0183,
      "velocity": 100,
      "chip": "ym2612"
    },
    {
      "channel": 1,
      "note": 105,
      "start": 24.5007,
      "duration": 0.0144,
      "velocity": 105,
      "chip": "ym2612"
    },
    {
      "channel": 0,
      "note": 39,
      "start": 24.5025,
      "duration": 0.0144,
      "velocity": 115,
      "chip": "ym2612"
    },
    {
      "channel": 4,
      "note": 86,
      "start": 24.5036,
      "duration": 0.0144,
      "velocity": 94,
      "chip": "ym2612"
    },
    {
      "channel": 3,
      "note": 86,
      "start": 24.505,
      "duration": 0.0142,
      "velocity": 94,
      "chip": "ym2612"
    },
    {
      "channel": 2,
      "note": 52,
      "start": 24.5065,
      "duration": 0.0139,
      "velocity": 100,
      "chip": "ym2612"
    },
    {
      "channel": 1,
      "note": 105,
      "start": 24.5152,
      "duration": 0.0161,
      "velocity": 105,
      "chip": "ym2612"
    },
    {
      "channel": 0,
      "note": 40,
      "start": 24.5169,
      "duration": 0.016,
      "velocity": 115,
      "chip": "ym2612"
    },
    {
      "channel": 4,
      "note": 86,
      "start": 24.518,
      "duration": 0.016,
      "velocity": 94,
      "chip": "ym2612"
    },
    {
      "channel": 3,
      "note": 86,
      "start": 24.5193,
      "duration": 0.016,
      "velocity": 94,
      "chip": "ym2612"
    },
    {
      "channel": 2,
      "note": 52,
      "start": 24.5204,
      "duration": 0.016,
      "velocity": 100,
      "chip": "ym2612"
    },
    {
      "channel": 1,
      "note": 105,
      "start": 24.5313,
      "duration": 0.0161,
      "velocity": 105,
      "chip": "ym2612"
    },
    {
      "channel": 0,
      "note": 40,
      "start": 24.5329,
      "duration": 0.0161,
      "velocity": 115,
      "chip": "ym2612"
    },
    {
      "channel": 4,
      "note": 86,
      "start": 24.5341,
      "duration": 0.0161,
      "velocity": 94,
      "chip": "ym2612"
    },
    {
      "channel": 3,
      "note": 86,
      "start": 24.5352,
      "duration": 0.0161,
      "velocity": 94,
      "chip": "ym2612"
    },
    {
      "channel": 2,
      "note": 52,
      "start": 24.5364,
      "duration": 0.0161,
      "velocity": 100,
      "chip": "ym2612"
    },
    {
      "channel": 1,
      "note": 105,
      "start": 24.5474,
      "duration": 0.0166,
      "velocity": 105,
      "chip": "ym2612"
    },
    {
      "channel": 0,
      "note": 40,
      "start": 24.549,
      "duration": 0.0166,
      "velocity": 115,
      "chip": "ym2612"
    },
    {
      "channel": 4,
      "note": 86,
      "start": 24.5502,
      "duration": 0.0166,
      "velocity": 94,
      "chip": "ym2612"
    },
    {
      "channel": 3,
      "note": 86,
      "start": 24.5513,
      "duration": 0.0166,
      "velocity": 94,
      "chip": "ym2612"
    },
    {
      "channel": 2,
      "note": 52,
      "start": 24.5525,
      "duration": 0.0166,
      "velocity": 100,
      "chip": "ym2612"
    },
    {
      "channel": 1,
      "note": 105,
      "start": 24.564,
      "duration": 0.0167,
      "velocity": 105,
      "chip": "ym2612"
    },
    {
      "channel": 0,
      "note": 41,
      "start": 24.5656,
      "duration": 0.0167,
      "velocity": 115,
      "chip": "ym2612"
    },
    {
      "channel": 4,
      "note": 86,
      "start": 24.5668,
      "duration": 0.0167,
      "velocity": 94,
      "chip": "ym2612"
    },
    {
      "channel": 3,
      "note": 86,
      "start": 24.5679,
      "duration": 0.0167,
      "velocity": 94,
      "chip": "ym2612"
    },
    {
      "channel": 2,
      "note": 52,
      "start": 24.5691,
      "duration": 0.0167,
      "velocity": 100,
      "chip": "ym2612"
    },
    {
      "channel": 1,
      "note": 105,
      "start": 24.5807,
      "duration": 0.0163,
      "velocity": 105,
      "chip": "ym2612"
    },
    {
      "channel": 0,
      "note": 41,
      "start": 24.5823,
      "duration": 0.0163,
      "velocity": 115,
      "chip": "ym2612"
    },
    {
      "channel": 4,
      "note": 86,
      "start": 24.5834,
      "duration": 0.0163,
      "velocity": 94,
      "chip": "ym2612"
    },
    {
      "channel": 3,
      "note": 86,
      "start": 24.5846,
      "duration": 0.0163,
      "velocity": 94,
      "chip": "ym2612"
    },
    {
      "channel": 2,
      "note": 52,
      "start": 24.5857,
      "duration": 0.0163,
      "velocity": 100,
      "chip": "ym2612"
    },
    {
      "channel": 1,
      "note": 105,
      "start": 24.5969,
      "duration": 0.0165,
      "velocity": 124,
      "chip": "ym2612"
    },
    {
      "channel": 0,
      "note": 42,
      "start": 24.5986,
      "duration": 0.0166,
      "velocity": 115,
      "chip": "ym2612"
    },
    {
      "channel": 4,
      "note": 86,
      "start": 24.5997,
      "duration": 0.0166,
      "velocity": 94,
      "chip": "ym2612"
    },
    {
      "channel": 3,
      "note": 86,
      "start": 24.6009,
      "duration": 0.0166,
      "velocity": 94,
      "chip": "ym2612"
    },
    {
      "channel": 2,
      "note": 52,
      "start": 24.602,
      "duration": 0.0169,
      "velocity": 100,
      "chip": "ym2612"
    },
    {
      "channel": 1,
      "note": 64,
      "start": 24.6135,
      "duration": 0.0172,
      "velocity": 124,
      "chip": "ym2612"
    },
    {
      "channel": 0,
      "note": 42,
      "start": 24.6152,
      "duration": 0.0172,
      "velocity": 115,
      "chip": "ym2612"
    },
    {
      "channel": 4,
      "note": 86,
      "start": 24.6163,
      "duration": 0.0172,
      "velocity": 94,
      "chip": "ym2612"
    },
    {
      "channel": 3,
      "note": 86,
      "start": 24.6175,
      "duration": 0.0172,
      "velocity": 94,
      "chip": "ym2612"
    },
    {
      "channel": 2,
      "note": 52,
      "start": 24.6189,
      "duration": 0.0169,
      "velocity": 100,
      "chip": "ym2612"
    },
    {
      "channel": 1,
      "note": 64,
      "start": 24.6307,
      "duration": 0.016,
      "velocity": 124,
      "chip": "ym2612"
    },
    {
      "channel": 0,
      "note": 43,
      "start": 24.6324,
      "duration": 0.016,
      "velocity": 115,
      "chip": "ym2612"
    },
    {
      "channel": 4,
      "note": 86,
      "start": 24.6335,
      "duration": 0.016,
      "velocity": 94,
      "chip": "ym2612"
    },
    {
      "channel": 3,
      "note": 86,
      "start": 24.6346,
      "duration": 0.016,
      "velocity": 94,
      "chip": "ym2612"
    },
    {
      "channel": 2,
      "note": 52,
      "start": 24.6359,
      "duration": 0.016,
      "velocity": 100,
      "chip": "ym2612"
    },
    {
      "channel": 1,
      "note": 64,
      "start": 24.6467,
      "duration": 0.0157,
      "velocity": 124,
      "chip": "ym2612"
    },
    {
      "channel": 0,
      "note": 43,
      "start": 24.6484,
      "duration": 0.0157,
      "velocity": 115,
      "chip": "ym2612"
    },
    {
      "channel": 4,
      "note": 86,
      "start": 24.6495,
      "duration": 0.0158,
      "velocity": 94,
      "chip": "ym2612"
    },
    {
      "channel": 3,
      "note": 86,
      "start": 24.6507,
      "duration": 0.0158,
      "velocity": 94,
      "chip": "ym2612"
    },
    {
      "channel": 2,
      "note": 52,
      "start": 24.6518,
      "duration": 0.0157,
      "velocity": 100,
      "chip": "ym2612"
    },
    {
      "channel": 1,
      "note": 64,
      "start": 24.6624,
      "duration": 0.0137,
      "velocity": 124,
      "chip": "ym2612"
    },
    {
      "channel": 0,
      "note": 44,
      "start": 24.6641,
      "duration": 0.0141,
      "velocity": 115,
      "chip": "ym2612"
    },
    {
      "channel": 4,
      "note": 86,
      "start": 24.6653,
      "duration": 0.014,
      "velocity": 94,
      "chip": "ym2612"
    },
    {
      "channel": 3,
      "note": 86,
      "start": 24.6665,
      "duration": 0.014,
      "velocity": 94,
      "chip": "ym2612"
    },
    {
      "channel": 2,
      "note": 52,
      "start": 24.6676,
      "duration": 0.0141,
      "velocity": 100,
      "chip": "ym2612"
    },
    {
      "channel": 1,
      "note": 64,
      "start": 24.6762,
      "duration": 0.0161,
      "velocity": 124,
      "chip": "ym2612"
    },
    {
      "channel": 0,
      "note": 44,
      "start": 24.6782,
      "duration": 0.0185,
      "velocity": 115,
      "chip": "ym2612"
    },
    {
      "channel": 4,
      "note": 86,
      "start": 24.6793,
      "duration": 0.0186,
      "velocity": 94,
      "chip": "ym2612"
    },
    {
      "channel": 3,
      "note": 86,
      "start": 24.6805,
      "duration": 0.0186,
      "velocity": 94,
      "chip": "ym2612"
    },
    {
      "channel": 2,
      "note": 52,
      "start": 24.6816,
      "duration": 0.0185,
      "velocity": 100,
      "chip": "ym2612"
    },
    {
      "channel": 1,
      "note": 64,
      "start": 24.6923,
      "duration": 0.0161,
      "velocity": 124,
      "chip": "ym2612"
    },
    {
      "channel": 0,
      "note": 44,
      "start": 24.6967,
      "duration": 0.0161,
      "velocity": 115,
      "chip": "ym2612"
    },
    {
      "channel": 4,
      "note": 86,
      "start": 24.6979,
      "duration": 0.0161,
      "velocity": 94,
      "chip": "ym2612"
    },
    {
      "channel": 3,
      "note": 86,
      "start": 24.699,
      "duration": 0.0161,
      "velocity": 94,
      "chip": "ym2612"
    },
    {
      "channel": 2,
      "note": 52,
      "start": 24.7001,
      "duration": 0.0161,
      "velocity": 100,
      "chip": "ym2612"
    },
    {
      "channel": 1,
      "note": 64,
      "start": 24.7084,
      "duration": 0.0177,
      "velocity": 105,
      "chip": "ym2612"
    },
    {
      "channel": 0,
      "note": 45,
      "start": 24.7128,
      "duration": 0.0175,
      "velocity": 115,
      "chip": "ym2612"
    },
    {
      "channel": 4,
      "note": 86,
      "start": 24.714,
      "duration": 0.0177,
      "velocity": 94,
      "chip": "ym2612"
    },
    {
      "channel": 3,
      "note": 86,
      "start": 24.7151,
      "duration": 0.0177,
      "velocity": 94,
      "chip": "ym2612"
    },
    {
      "channel": 2,
      "note": 52,
      "start": 24.7162,
      "duration": 0.018,
      "velocity": 100,
      "chip": "ym2612"
    },
    {
      "channel": 1,
      "note": 105,
      "start": 24.7262,
      "duration": 0.0144,
      "velocity": 105,
      "chip": "ym2612"
    },
    {
      "channel": 0,
      "note": 45,
      "start": 24.7303,
      "duration": 0.012,
      "velocity": 115,
      "chip": "ym2612"
    },
    {
      "channel": 4,
      "note": 81,
      "start": 24.7317,
      "duration": 0.0122,
      "velocity": 94,
      "chip": "ym2612"
    },
    {
      "channel": 3,
      "note": 86,
      "start": 24.7328,
      "duration": 0.0122,
      "velocity": 94,
      "chip": "ym2612"
    },
    {
      "channel": 2,
      "note": 52,
      "start": 24.7343,
      "duration": 0.0119,
      "velocity": 100,
      "chip": "ym2612"
    },
    {
      "channel": 1,
      "note": 105,
      "start": 24.7406,
      "duration": 0.016,
      "velocity": 105,
      "chip": "ym2612"
    },
    {
      "channel": 0,
      "note": 46,
      "start": 24.7423,
      "duration": 0.016,
      "velocity": 115,
      "chip": "ym2612"
    },
    {
      "channel": 4,
      "note": 81,
      "start": 24.7438,
      "duration": 0.0157,
      "velocity": 94,
      "chip": "ym2612"
    },
    {
      "channel": 3,
      "note": 86,
      "start": 24.745,
      "duration": 0.0184,
      "velocity": 94,
      "chip": "ym2612"
    },
    {
      "channel": 2,
      "note": 52,
      "start": 24.7462,
      "duration": 0.0184,
      "velocity": 100,
      "chip": "ym2612"
    },
    {
      "channel": 1,
      "note": 105,
      "start": 24.7567,
      "duration": 0.0161,
      "velocity": 105,
      "chip": "ym2612"
    },
    {
      "channel": 0,
      "note": 46,
      "start": 24.7583,
      "duration": 0.0161,
      "velocity": 115,
      "chip": "ym2612"
    },
    {
      "channel": 4,
      "note": 81,
      "start": 24.7595,
      "duration": 0.0161,
      "velocity": 94,
      "chip": "ym2612"
    },
    {
      "channel": 3,
      "note": 86,
      "start": 24.7634,
      "duration": 0.0161,
      "velocity": 94,
      "chip": "ym2612"
    },
    {
      "channel": 2,
      "note": 52,
      "start": 24.7646,
      "duration": 0.0161,
      "velocity": 100,
      "chip": "ym2612"
    },
    {
      "channel": 1,
      "note": 105,
      "start": 24.7728,
      "duration": 0.0161,
      "velocity": 105,
      "chip": "ym2612"
    },
    {
      "channel": 0,
      "note": 47,
      "start": 24.7744,
      "duration": 0.0161,
      "velocity": 115,
      "chip": "ym2612"
    },
    {
      "channel": 4,
      "note": 81,
      "start": 24.7756,
      "duration": 0.0161,
      "velocity": 94,
      "chip": "ym2612"
    },
    {
      "channel": 3,
      "note": 86,
      "start": 24.7795,
      "duration": 0.0134,
      "velocity": 94,
      "chip": "ym2612"
    },
    {
      "channel": 2,
      "note": 52,
      "start": 24.7807,
      "duration": 0.0157,
      "velocity": 100,
      "chip": "ym2612"
    },
    {
      "channel": 1,
      "note": 105,
      "start": 24.7888,
      "duration": 0.0161,
      "velocity": 105,
      "chip": "ym2612"
    },
    {
      "channel": 0,
      "note": 47,
      "start": 24.7905,
      "duration": 0.0161,
      "velocity": 115,
      "chip": "ym2612"
    },
    {
      "channel": 4,
      "note": 81,
      "start": 24.7917,
      "duration": 0.0161,
      "velocity": 94,
      "chip": "ym2612"
    },
    {
      "channel": 3,
      "note": 86,
      "start": 24.7929,
      "duration": 0.0161,
      "velocity": 94,
      "chip": "ym2612"
    },
    {
      "channel": 2,
      "note": 52,
      "start": 24.7963,
      "duration": 0.014,
      "velocity": 100,
      "chip": "ym2612"
    },
    {
      "channel": 1,
      "note": 105,
      "start": 24.8049,
      "duration": 0.0161,
      "velocity": 105,
      "chip": "ym2612"
    },
    {
      "channel": 0,
      "note": 47,
      "start": 24.8066,
      "duration": 0.0161,
      "velocity": 115,
      "chip": "ym2612"
    },
    {
      "channel": 4,
      "note": 81,
      "start": 24.8078,
      "duration": 0.0161,
      "velocity": 94,
      "chip": "ym2612"
    },
    {
      "channel": 3,
      "note": 86,
      "start": 24.809,
      "duration": 0.0161,
      "velocity": 94,
      "chip": "ym2612"
    },
    {
      "channel": 2,
      "note": 52,
      "start": 24.8104,
      "duration": 0.0158,
      "velocity": 100,
      "chip": "ym2612"
    },
    {
      "channel": 1,
      "note": 105,
      "start": 24.821,
      "duration": 0.0184,
      "velocity": 124,
      "chip": "ym2612"
    },
    {
      "channel": 0,
      "note": 48,
      "start": 24.8227,
      "duration": 0.0191,
      "velocity": 115,
      "chip": "ym2612"
    },
    {
      "channel": 4,
      "note": 81,
      "start": 24.8239,
      "duration": 0.022,
      "velocity": 94,
      "chip": "ym2612"
    },
    {
      "channel": 3,
      "note": 86,
      "start": 24.8251,
      "duration": 0.0222,
      "velocity": 94,
      "chip": "ym2612"
    },
    {
      "channel": 2,
      "note": 52,
      "start": 24.8261,
      "duration": 0.0226,
      "velocity": 100,
      "chip": "ym2612"
    },
    {
      "channel": 1,
      "note": 78,
      "start": 24.8395,
      "duration": 0.0143,
      "velocity": 124,
      "chip": "ym2612"
    },
    {
      "channel": 0,
      "note": 48,
      "start": 24.8418,
      "duration": 0.0139,
      "velocity": 115,
      "chip": "ym2612"
    },
    {
      "channel": 4,
      "note": 81,
      "start": 24.8459,
      "duration": 0.0111,
      "velocity": 94,
      "chip": "ym2612"
    },
    {
      "channel": 3,
      "note": 81,
      "start": 24.8473,
      "duration": 0.0108,
      "velocity": 94,
      "chip": "ym2612"
    },
    {
      "channel": 2,
      "note": 52,
      "start": 24.8488,
      "duration": 0.0106,
      "velocity": 100,
      "chip": "ym2612"
    },
    {
      "channel": 1,
      "note": 76,
      "start": 24.8538,
      "duration": 0.0161,
      "velocity": 124,
      "chip": "ym2612"
    },
    {
      "channel": 0,
      "note": 49,
      "start": 24.8557,
      "duration": 0.0153,
      "velocity": 1,
      "chip": "ym2612"
    },
    {
      "channel": 4,
      "note": 81,
      "start": 24.857,
      "duration": 0.0151,
      "velocity": 94,
      "chip": "ym2612"
    },
    {
      "channel": 3,
      "note": 81,
      "start": 24.8581,
      "duration": 0.0151,
      "velocity": 94,
      "chip": "ym2612"
    },
    {
      "channel": 2,
      "note": 52,
      "start": 24.8593,
      "duration": 0.0151,
      "velocity": 100,
      "chip": "ym2612"
    },
    {
      "channel": 1,
      "note": 75,
      "start": 24.8699,
      "duration": 0.0161,
      "velocity": 124,
      "chip": "ym2612"
    },
    {
      "channel": 4,
      "note": 81,
      "start": 24.8721,
      "duration": 0.0153,
      "velocity": 94,
      "chip": "ym2612"
    },
    {
      "channel": 3,
      "note": 81,
      "start": 24.8733,
      "duration": 0.0153,
      "velocity": 94,
      "chip": "ym2612"
    },
    {
      "channel": 2,
      "note": 52,
      "start": 24.8744,
      "duration": 0.0152,
      "velocity": 100,
      "chip": "ym2612"
    },
    {
      "channel": 1,
      "note": 74,
      "start": 24.886,
      "duration": 0.0161,
      "velocity": 124,
      "chip": "ym2612"
    },
    {
      "channel": 4,
      "note": 81,
      "start": 24.8874,
      "duration": 0.0161,
      "velocity": 94,
      "chip": "ym2612"
    },
    {
      "channel": 3,
      "note": 81,
      "start": 24.8885,
      "duration": 0.0161,
      "velocity": 94,
      "chip": "ym2612"
    },
    {
      "channel": 2,
      "note": 52,
      "start": 24.8896,
      "duration": 0.0161,
      "velocity": 100,
      "chip": "ym2612"
    },
    {
      "channel": 1,
      "note": 72,
      "start": 24.9021,
      "duration": 0.0161,
      "velocity": 124,
      "chip": "ym2612"
    },
    {
      "channel": 4,
      "note": 81,
      "start": 24.9035,
      "duration": 0.0161,
      "velocity": 94,
      "chip": "ym2612"
    },
    {
      "channel": 3,
      "note": 81,
      "start": 24.9046,
      "duration": 0.0161,
      "velocity": 94,
      "chip": "ym2612"
    },
    {
      "channel": 2,
      "note": 52,
      "start": 24.9057,
      "duration": 0.0161,
      "velocity": 100,
      "chip": "ym2612"
    },
    {
      "channel": 1,
      "note": 71,
      "start": 24.9182,
      "duration": 0.0161,
      "velocity": 124,
      "chip": "ym2612"
    },
    {
      "channel": 4,
      "note": 81,
      "start": 24.9196,
      "duration": 0.0161,
      "velocity": 94,
      "chip": "ym2612"
    },
    {
      "channel": 3,
      "note": 81,
      "start": 24.9207,
      "duration": 0.0161,
      "velocity": 94,
      "chip": "ym2612"
    },
    {
      "channel": 2,
      "note": 52,
      "start": 24.9219,
      "duration": 0.0161,
      "velocity": 100,
      "chip": "ym2612"
    },
    {
      "channel": 1,
      "note": 70,
      "start": 24.9343,
      "duration": 0.0161,
      "velocity": 124,
      "chip": "ym2612"
    },
    {
      "channel": 4,
      "note": 81,
      "start": 24.9357,
      "duration": 0.0169,
      "velocity": 94,
      "chip": "ym2612"
    },
    {
      "channel": 3,
      "note": 81,
      "start": 24.9368,
      "duration": 0.017,
      "velocity": 94,
      "chip": "ym2612"
    },
    {
      "channel": 2,
      "note": 52,
      "start": 24.938,
      "duration": 0.0172,
      "velocity": 100,
      "chip": "ym2612"
    },
    {
      "channel": 1,
      "note": 69,
      "start": 24.9504,
      "duration": 0.0161,
      "velocity": 124,
      "chip": "ym2612"
    },
    {
      "channel": 4,
      "note": 81,
      "start": 24.9525,
      "duration": 0.0154,
      "velocity": 94,
      "chip": "ym2612"
    },
    {
      "channel": 3,
      "note": 81,
      "start": 24.9538,
      "duration": 0.0153,
      "velocity": 94,
      "chip": "ym2612"
    },
    {
      "channel": 2,
      "note": 52,
      "start": 24.9553,
      "duration": 0.0151,
      "velocity": 100,
      "chip": "ym2612"
    },
    {
      "channel": 1,
      "note": 68,
      "start": 24.9665,
      "duration": 0.0161,
      "velocity": 124,
      "chip": "ym2612"
    },
    {
      "channel": 4,
      "note": 81,
      "start": 24.968,
      "duration": 0.016,
      "velocity": 94,
      "chip": "ym2612"
    },
    {
      "channel": 3,
      "note": 81,
      "start": 24.9691,
      "duration": 0.016,
      "velocity": 94,
      "chip": "ym2612"
    },
    {
      "channel": 2,
      "note": 52,
      "start": 24.9703,
      "duration": 0.0159,
      "velocity": 100,
      "chip": "ym2612"
    },
    {
      "channel": 1,
      "note": 66,
      "start": 24.9826,
      "duration": 0.0161,
      "velocity": 124,
      "chip": "ym2612"
    },
    {
      "channel": 4,
      "note": 81,
      "start": 24.9839,
      "duration": 0.0161,
      "velocity": 94,
      "chip": "ym2612"
    },
    {
      "channel": 3,
      "note": 81,
      "start": 24.9851,
      "duration": 0.0161,
      "velocity": 94,
      "chip": "ym2612"
    },
    {
      "channel": 2,
      "note": 52,
      "start": 24.9862,
      "duration": 0.0161,
      "velocity": 100,
      "chip": "ym2612"
    },
    {
      "channel": 1,
      "note": 65,
      "start": 24.9986,
      "duration": 0.0162,
      "velocity": 124,
      "chip": "ym2612"
    },
    {
      "channel": 4,
      "note": 81,
      "start": 25.0,
      "duration": 0.0161,
      "velocity": 94,
      "chip": "ym2612"
    },
    {
      "channel": 3,
      "note": 81,
      "start": 25.0012,
      "duration": 0.0161,
      "velocity": 94,
      "chip": "ym2612"
    },
    {
      "channel": 2,
      "note": 52,
      "start": 25.0023,
      "duration": 0.0161,
      "velocity": 100,
      "chip": "ym2612"
    },
    {
      "channel": 1,
      "note": 64,
      "start": 25.0148,
      "duration": 0.0163,
      "velocity": 124,
      "chip": "ym2612"
    },
    {
      "channel": 4,
      "note": 81,
      "start": 25.0161,
      "duration": 0.0163,
      "velocity": 94,
      "chip": "ym2612"
    },
    {
      "channel": 3,
      "note": 81,
      "start": 25.0173,
      "duration": 0.0163,
      "velocity": 94,
      "chip": "ym2612"
    },
    {
      "channel": 2,
      "note": 52,
      "start": 25.0184,
      "duration": 0.0163,
      "velocity": 100,
      "chip": "ym2612"
    },
    {
      "channel": 1,
      "note": 62,
      "start": 25.0311,
      "duration": 0.0167,
      "velocity": 124,
      "chip": "ym2612"
    },
    {
      "channel": 4,
      "note": 81,
      "start": 25.0325,
      "duration": 0.0167,
      "velocity": 94,
      "chip": "ym2612"
    },
    {
      "channel": 3,
      "note": 81,
      "start": 25.0336,
      "duration": 0.0167,
      "velocity": 94,
      "chip": "ym2612"
    },
    {
      "channel": 2,
      "note": 52,
      "start": 25.0348,
      "duration": 0.0167,
      "velocity": 100,
      "chip": "ym2612"
    },
    {
      "channel": 1,
      "note": 61,
      "start": 25.0478,
      "duration": 0.0163,
      "velocity": 124,
      "chip": "ym2612"
    },
    {
      "channel": 4,
      "note": 81,
      "start": 25.0492,
      "duration": 0.0168,
      "velocity": 94,
      "chip": "ym2612"
    },
    {
      "channel": 3,
      "note": 81,
      "start": 25.0503,
      "duration": 0.0171,
      "velocity": 94,
      "chip": "ym2612"
    },
    {
      "channel": 2,
      "note": 52,
      "start": 25.0515,
      "duration": 0.0174,
      "velocity": 100,
      "chip": "ym2612"
    },
    {
      "channel": 1,
      "note": 60,
      "start": 25.0641,
      "duration": 0.0151,
      "velocity": 124,
      "chip": "ym2612"
    },
    {
      "channel": 4,
      "note": 81,
      "start": 25.066,
      "duration": 0.0146,
      "velocity": 94,
      "chip": "ym2612"
    },
    {
      "channel": 3,
      "note": 81,
      "start": 25.0674,
      "duration": 0.0144,
      "velocity": 94,
      "chip": "ym2612"
    },
    {
      "channel": 2,
      "note": 52,
      "start": 25.0689,
      "duration": 0.0141,
      "velocity": 100,
      "chip": "ym2612"
    },
    {
      "channel": 1,
      "note": 59,
      "start": 25.0792,
      "duration": 0.0186,
      "velocity": 124,
      "chip": "ym2612"
    },
    {
      "channel": 4,
      "note": 81,
      "start": 25.0807,
      "duration": 0.0185,
      "velocity": 94,
      "chip": "ym2612"
    },
    {
      "channel": 3,
      "note": 81,
      "start": 25.0819,
      "duration": 0.0184,
      "velocity": 94,
      "chip": "ym2612"
    },
    {
      "channel": 2,
      "note": 52,
      "start": 25.083,
      "duration": 0.0185,
      "velocity": 100,
      "chip": "ym2612"
    },
    {
      "channel": 1,
      "note": 57,
      "start": 25.0978,
      "duration": 0.0163,
      "velocity": 124,
      "chip": "ym2612"
    },
    {
      "channel": 4,
      "note": 81,
      "start": 25.0992,
      "duration": 0.0163,
      "velocity": 94,
      "chip": "ym2612"
    },
    {
      "channel": 3,
      "note": 81,
      "start": 25.1003,
      "duration": 0.0163,
      "velocity": 94,
      "chip": "ym2612"
    },
    {
      "channel": 2,
      "note": 52,
      "start": 25.1015,
      "duration": 0.0163,
      "velocity": 100,
      "chip": "ym2612"
    },
    {
      "channel": 1,
      "note": 56,
      "start": 25.1141,
      "duration": 0.0158,
      "velocity": 124,
      "chip": "ym2612"
    },
    {
      "channel": 4,
      "note": 81,
      "start": 25.1155,
      "duration": 0.0158,
      "velocity": 94,
      "chip": "ym2612"
    },
    {
      "channel": 3,
      "note": 81,
      "start": 25.1166,
      "duration": 0.0158,
      "velocity": 94,
      "chip": "ym2612"
    },
    {
      "channel": 2,
      "note": 52,
      "start": 25.1178,
      "duration": 0.0158,
      "velocity": 100,
      "chip": "ym2612"
    },
    {
      "channel": 1,
      "note": 55,
      "start": 25.1299,
      "duration": 0.014,
      "velocity": 124,
      "chip": "ym2612"
    },
    {
      "channel": 4,
      "note": 81,
      "start": 25.1313,
      "duration": 0.014,
      "velocity": 94,
      "chip": "ym2612"
    },
    {
      "channel": 3,
      "note": 81,
      "start": 25.1324,
      "duration": 0.014,
      "velocity": 94,
      "chip": "ym2612"
    },
    {
      "channel": 2,
      "note": 52,
      "start": 25.1336,
      "duration": 0.014,
      "velocity": 100,
      "chip": "ym2612"
    },
    {
      "channel": 1,
      "note": 53,
      "start": 25.1439,
      "duration": 0.0158,
      "velocity": 124,
      "chip": "ym2612"
    },
    {
      "channel": 4,
      "note": 81,
      "start": 25.1453,
      "duration": 0.0185,
      "velocity": 94,
      "chip": "ym2612"
    },
    {
      "channel": 3,
      "note": 81,
      "start": 25.1464,
      "duration": 0.0185,
      "velocity": 94,
      "chip": "ym2612"
    },
    {
      "channel": 2,
      "note": 52,
      "start": 25.1476,
      "duration": 0.0185,
      "velocity": 100,
      "chip": "ym2612"
    },
    {
      "channel": 1,
      "note": 52,
      "start": 25.1597,
      "duration": 0.0161,
      "velocity": 124,
      "chip": "ym2612"
    },
    {
      "channel": 4,
      "note": 81,
      "start": 25.1638,
      "duration": 0.0204,
      "velocity": 94,
      "chip": "ym2612"
    },
    {
      "channel": 3,
      "note": 81,
      "start": 25.1649,
      "duration": 0.0204,
      "velocity": 94,
      "chip": "ym2612"
    },
    {
      "channel": 2,
      "note": 52,
      "start": 25.1661,
      "duration": 0.0207,
      "velocity": 100,
      "chip": "ym2612"
    },
    {
      "channel": 1,
      "note": 51,
      "start": 25.1758,
      "duration": 0.0153,
      "velocity": 1,
      "chip": "ym2612"
    },
    {
      "channel": 0,
      "note": 78,
      "start": 25.1828,
      "duration": 0.0146,
      "velocity": 127,
      "chip": "ym2612"
    },
    {
      "channel": 4,
      "note": 79,
      "start": 25.1842,
      "duration": 0.0144,
      "velocity": 94,
      "chip": "ym2612"
    },
    {
      "channel": 3,
      "note": 81,
      "start": 25.1854,
      "duration": 0.0144,
      "velocity": 94,
      "chip": "ym2612"
    },
    {
      "channel": 2,
      "note": 52,
      "start": 25.1868,
      "duration": 0.0141,
      "velocity": 100,
      "chip": "ym2612"
    },
    {
      "channel": 1,
      "note": 51,
      "start": 25.1957,
      "duration": 0.0118,
      "velocity": 105,
      "chip": "ym2612"
    },
    {
      "channel": 0,
      "note": 76,
      "start": 25.1974,
      "duration": 0.0118,
      "velocity": 127,
      "chip": "ym2612"
    },
    {
      "channel": 4,
      "note": 79,
      "start": 25.1986,
      "duration": 0.0121,
      "velocity": 94,
      "chip": "ym2612"
    },
    {
      "channel": 3,
      "note": 81,
      "start": 25.1997,
      "duration": 0.0121,
      "velocity": 94,
      "chip": "ym2612"
    },
    {
      "channel": 2,
      "note": 52,
      "start": 25.2009,
      "duration": 0.012,
      "velocity": 100,
      "chip": "ym2612"
    },
    {
      "channel": 1,
      "note": 105,
      "start": 25.2075,
      "duration": 0.0161,
      "velocity": 105,
      "chip": "ym2612"
    },
    {
      "channel": 0,
      "note": 75,
      "start": 25.2091,
      "duration": 0.0161,
      "velocity": 127,
      "chip": "ym2612"
    },
    {
      "channel": 4,
      "note": 79,
      "start": 25.2107,
      "duration": 0.0158,
      "velocity": 94,
      "chip": "ym2612"
    },
    {
      "channel": 3,
      "note": 81,
      "start": 25.2118,
      "duration": 0.0185,
      "velocity": 94,
      "chip": "ym2612"
    },
    {
      "channel": 2,
      "note": 52,
      "start": 25.213,
      "duration": 0.0185,
      "velocity": 100,
      "chip": "ym2612"
    },
    {
      "channel": 1,
      "note": 105,
      "start": 25.2236,
      "duration": 0.0161,
      "velocity": 105,
      "chip": "ym2612"
    },
    {
      "channel": 0,
      "note": 73,
      "start": 25.2252,
      "duration": 0.0161,
      "velocity": 127,
      "chip": "ym2612"
    },
    {
      "channel": 4,
      "note": 79,
      "start": 25.2264,
      "duration": 0.0161,
      "velocity": 94,
      "chip": "ym2612"
    },
    {
      "channel": 3,
      "note": 81,
      "start": 25.2303,
      "duration": 0.0161,
      "velocity": 94,
      "chip": "ym2612"
    },
    {
      "channel": 2,
      "note": 52,
      "start": 25.2315,
      "duration": 0.0161,
      "velocity": 100,
      "chip": "ym2612"
    },
    {
      "channel": 1,
      "note": 105,
      "start": 25.2397,
      "duration": 0.0161,
      "velocity": 105,
      "chip": "ym2612"
    },
    {
      "channel": 0,
      "note": 71,
      "start": 25.2413,
      "duration": 0.0161,
      "velocity": 127,
      "chip": "ym2612"
    },
    {
      "channel": 4,
      "note": 79,
      "start": 25.2425,
      "duration": 0.0161,
      "velocity": 94,
      "chip": "ym2612"
    },
    {
      "channel": 3,
      "note": 81,
      "start": 25.2464,
      "duration": 0.0134,
      "velocity": 94,
      "chip": "ym2612"
    },
    {
      "channel": 2,
      "note": 52,
      "start": 25.2476,
      "duration": 0.0157,
      "velocity": 100,
      "chip": "ym2612"
    },
    {
      "channel": 1,
      "note": 105,
      "start": 25.2558,
      "duration": 0.0161,
      "velocity": 105,
      "chip": "ym2612"
    },
    {
      "channel": 0,
      "note": 70,
      "start": 25.2574,
      "duration": 0.0161,
      "velocity": 127,
      "chip": "ym2612"
    },
    {
      "channel": 4,
      "note": 79,
      "start": 25.2586,
      "duration": 0.0161,
      "velocity": 94,
      "chip": "ym2612"
    },
    {
      "channel": 3,
      "note": 81,
      "start": 25.2598,
      "duration": 0.0161,
      "velocity": 94,
      "chip": "ym2612"
    },
    {
      "channel": 2,
      "note": 52,
      "start": 25.2633,
      "duration": 0.0141,
      "velocity": 100,
      "chip": "ym2612"
    },
    {
      "channel": 1,
      "note": 105,
      "start": 25.2719,
      "duration": 0.0178,
      "velocity": 124,
      "chip": "ym2612"
    },
    {
      "channel": 0,
      "note": 68,
      "start": 25.2736,
      "duration": 0.0223,
      "velocity": 115,
      "chip": "ym2612"
    },
    {
      "channel": 4,
      "note": 79,
      "start": 25.2747,
      "duration": 0.0224,
      "velocity": 94,
      "chip": "ym2612"
    },
    {
      "channel": 3,
      "note": 81,
      "start": 25.2759,
      "duration": 0.0227,
      "velocity": 94,
      "chip": "ym2612"
    },
    {
      "channel": 2,
      "note": 52,
      "start": 25.2773,
      "duration": 0.0226,
      "velocity": 100,
      "chip": "ym2612"
    },
    {
      "channel": 1,
      "note": 64,
      "start": 25.2898,
      "duration": 0.0146,
      "velocity": 124,
      "chip": "ym2612"
    },
    {
      "channel": 0,
      "note": 36,
      "start": 25.296,
      "duration": 0.01,
      "velocity": 115,
      "chip": "ym2612"
    },
    {
      "channel": 4,
      "note": 79,
      "start": 25.2971,
      "duration": 0.01,
      "velocity": 94,
      "chip": "ym2612"
    },
    {
      "channel": 3,
      "note": 79,
      "start": 25.2985,
      "duration": 0.0099,
      "velocity": 94,
      "chip": "ym2612"
    },
    {
      "channel": 2,
      "note": 55,
      "start": 25.3,
      "duration": 0.0096,
      "velocity": 100,
      "chip": "ym2612"
    },
    {
      "channel": 1,
      "note": 64,
      "start": 25.3043,
      "duration": 0.0159,
      "velocity": 124,
      "chip": "ym2612"
    },
    {
      "channel": 0,
      "note": 36,
      "start": 25.306,
      "duration": 0.0158,
      "velocity": 115,
      "chip": "ym2612"
    },
    {
      "channel": 4,
      "note": 79,
      "start": 25.3072,
      "duration": 0.0159,
      "velocity": 94,
      "chip": "ym2612"
    },
    {
      "channel": 3,
      "note": 79,
      "start": 25.3084,
      "duration": 0.0158,
      "velocity": 94,
      "chip": "ym2612"
    },
    {
      "channel": 2,
      "note": 55,
      "start": 25.3096,
      "duration": 0.0157,
      "velocity": 100,
      "chip": "ym2612"
    },
    {
      "channel": 1,
      "note": 64,
      "start": 25.3202,
      "duration": 0.0161,
      "velocity": 124,
      "chip": "ym2612"
    },
    {
      "channel": 0,
      "note": 37,
      "start": 25.3219,
      "duration": 0.0161,
      "velocity": 115,
      "chip": "ym2612"
    },
    {
      "channel": 4,
      "note": 79,
      "start": 25.3231,
      "duration": 0.0161,
      "velocity": 94,
      "chip": "ym2612"
    },
    {
      "channel": 3,
      "note": 79,
      "start": 25.3242,
      "duration": 0.0161,
      "velocity": 94,
      "chip": "ym2612"
    },
    {
      "channel": 2,
      "note": 55,
      "start": 25.3253,
      "duration": 0.0161,
      "velocity": 100,
      "chip": "ym2612"
    },
    {
      "channel": 1,
      "note": 64,
      "start": 25.3363,
      "duration": 0.0161,
      "velocity": 124,
      "chip": "ym2612"
    },
    {
      "channel": 0,
      "note": 37,
      "start": 25.338,
      "duration": 0.0161,
      "velocity": 115,
      "chip": "ym2612"
    },
    {
      "channel": 4,
      "note": 79,
      "start": 25.3392,
      "duration": 0.0161,
      "velocity": 94,
      "chip": "ym2612"
    },
    {
      "channel": 3,
      "note": 79,
      "start": 25.3403,
      "duration": 0.0161,
      "velocity": 94,
      "chip": "ym2612"
    },
    {
      "channel": 2,
      "note": 55,
      "start": 25.3414,
      "duration": 0.0161,
      "velocity": 100,
      "chip": "ym2612"
    },
    {
      "channel": 1,
      "note": 64,
      "start": 25.3524,
      "duration": 0.0161,
      "velocity": 124,
      "chip": "ym2612"
    },
    {
      "channel": 0,
      "note": 38,
      "start": 25.3541,
      "duration": 0.0161,
      "velocity": 115,
      "chip": "ym2612"
    },
    {
      "channel": 4,
      "note": 79,
      "start": 25.3553,
      "duration": 0.0161,
      "velocity": 94,
      "chip": "ym2612"
    },
    {
      "channel": 3,
      "note": 79,
      "start": 25.3564,
      "duration": 0.0161,
      "velocity": 94,
      "chip": "ym2612"
    },
    {
      "channel": 2,
      "note": 55,
      "start": 25.3575,
      "duration": 0.0162,
      "velocity": 100,
      "chip": "ym2612"
    },
    {
      "channel": 1,
      "note": 64,
      "start": 25.3685,
      "duration": 0.0161,
      "velocity": 124,
      "chip": "ym2612"
    },
    {
      "channel": 0,
      "note": 38,
      "start": 25.3702,
      "duration": 0.0161,
      "velocity": 115,
      "chip": "ym2612"
    },
    {
      "channel": 4,
      "note": 79,
      "start": 25.3714,
      "duration": 0.0161,
      "velocity": 94,
      "chip": "ym2612"
    },
    {
      "channel": 3,
      "note": 79,
      "start": 25.3725,
      "duration": 0.0161,
      "velocity": 94,
      "chip": "ym2612"
    },
    {
      "channel": 2,
      "note": 55,
      "start": 25.3737,
      "duration": 0.0161,
      "velocity": 100,
      "chip": "ym2612"
    },
    {
      "channel": 1,
      "note": 64,
      "start": 25.3846,
      "duration": 0.0178,
      "velocity": 105,
      "chip": "ym2612"
    },
    {
      "channel": 0,
      "note": 39,
      "start": 25.3863,
      "duration": 0.0178,
      "velocity": 115,
      "chip": "ym2612"
    },
    {
      "channel": 4,
      "note": 79,
      "start": 25.3875,
      "duration": 0.018,
      "velocity": 94,
      "chip": "ym2612"
    },
    {
      "channel": 3,
      "note": 79,
      "start": 25.3886,
      "duration": 0.0181,
      "velocity": 94,
      "chip": "ym2612"
    },
    {
      "channel": 2,
      "note": 55,
      "start": 25.3898,
      "duration": 0.0183,
      "velocity": 100,
      "chip": "ym2612"
    },
    {
      "channel": 1,
      "note": 105,
      "start": 25.4024,
      "duration": 0.0144,
      "velocity": 105,
      "chip": "ym2612"
    },
    {
      "channel": 0,
      "note": 39,
      "start": 25.4041,
      "duration": 0.0144,
      "velocity": 115,
      "chip": "ym2612"
    },
    {
      "channel": 4,
      "note": 81,
      "start": 25.4055,
      "duration": 0.0143,
      "velocity": 94,
      "chip": "ym2612"
    },
    {
      "channel": 3,
      "note": 79,
      "start": 25.4067,
      "duration": 0.0142,
      "velocity": 94,
      "chip": "ym2612"
    },
    {
      "channel": 2,
      "note": 55,
      "start": 25.4081,
      "duration": 0.0139,
      "velocity": 100,
      "chip": "ym2612"
    },
    {
      "channel": 1,
      "note": 105,
      "start": 25.4168,
      "duration": 0.0161,
      "velocity": 105,
      "chip": "ym2612"
    },
    {
      "channel": 0,
      "note": 40,
      "start": 25.4186,
      "duration": 0.016,
      "velocity": 115,
      "chip": "ym2612"
    },
    {
      "channel": 4,
      "note": 81,
      "start": 25.4198,
      "duration": 0.016,
      "velocity": 94,
      "chip": "ym2612"
    },
    {
      "channel": 3,
      "note": 79,
      "start": 25.4209,
      "duration": 0.016,
      "velocity": 94,
      "chip": "ym2612"
    },
    {
      "channel": 2,
      "note": 55,
      "start": 25.4221,
      "duration": 0.016,
      "velocity": 100,
      "chip": "ym2612"
    },
    {
      "channel": 1,
      "note": 105,
      "start": 25.4329,
      "duration": 0.0161,
      "velocity": 105,
      "chip": "ym2612"
    },
    {
      "channel": 0,
      "note": 40,
      "start": 25.4346,
      "duration": 0.0161,
      "velocity": 115,
      "chip": "ym2612"
    },
    {
      "channel": 4,
      "note": 81,
      "start": 25.4357,
      "duration": 0.0161,
      "velocity": 94,
      "chip": "ym2612"
    },
    {
      "channel": 3,
      "note": 79,
      "start": 25.4369,
      "duration": 0.0161,
      "velocity": 94,
      "chip": "ym2612"
    },
    {
      "channel": 2,
      "note": 55,
      "start": 25.438,
      "duration": 0.0161,
      "velocity": 100,
      "chip": "ym2612"
    },
    {
      "channel": 1,
      "note": 105,
      "start": 25.449,
      "duration": 0.0161,
      "velocity": 105,
      "chip": "ym2612"
    },
    {
      "channel": 0,
      "note": 40,
      "start": 25.4507,
      "duration": 0.0161,
      "velocity": 115,
      "chip": "ym2612"
    },
    {
      "channel": 4,
      "note": 81,
      "start": 25.4518,
      "duration": 0.0161,
      "velocity": 94,
      "chip": "ym2612"
    },
    {
      "channel": 3,
      "note": 79,
      "start": 25.453,
      "duration": 0.0161,
      "velocity": 94,
      "chip": "ym2612"
    },
    {
      "channel": 2,
      "note": 55,
      "start": 25.4541,
      "duration": 0.0161,
      "velocity": 100,
      "chip": "ym2612"
    },
    {
      "channel": 1,
      "note": 105,
      "start": 25.4651,
      "duration": 0.0161,
      "velocity": 105,
      "chip": "ym2612"
    },
    {
      "channel": 0,
      "note": 41,
      "start": 25.4668,
      "duration": 0.0161,
      "velocity": 115,
      "chip": "ym2612"
    },
    {
      "channel": 4,
      "note": 81,
      "start": 25.4679,
      "duration": 0.0161,
      "velocity": 94,
      "chip": "ym2612"
    },
    {
      "channel": 3,
      "note": 79,
      "start": 25.4691,
      "duration": 0.0161,
      "velocity": 94,
      "chip": "ym2612"
    },
    {
      "channel": 2,
      "note": 55,
      "start": 25.4702,
      "duration": 0.0161,
      "velocity": 100,
      "chip": "ym2612"
    },
    {
      "channel": 1,
      "note": 105,
      "start": 25.4812,
      "duration": 0.0161,
      "velocity": 105,
      "chip": "ym2612"
    },
    {
      "channel": 0,
      "note": 41,
      "start": 25.4829,
      "duration": 0.0161,
      "velocity": 115,
      "chip": "ym2612"
    },
    {
      "channel": 4,
      "note": 81,
      "start": 25.484,
      "duration": 0.0162,
      "velocity": 94,
      "chip": "ym2612"
    },
    {
      "channel": 3,
      "note": 79,
      "start": 25.4852,
      "duration": 0.0161,
      "velocity": 94,
      "chip": "ym2612"
    },
    {
      "channel": 2,
      "note": 55,
      "start": 25.4863,
      "duration": 0.0161,
      "velocity": 100,
      "chip": "ym2612"
    },
    {
      "channel": 1,
      "note": 105,
      "start": 25.4973,
      "duration": 0.0183,
      "velocity": 124,
      "chip": "ym2612"
    },
    {
      "channel": 0,
      "note": 42,
      "start": 25.499,
      "duration": 0.0184,
      "velocity": 115,
      "chip": "ym2612"
    },
    {
      "channel": 4,
      "note": 81,
      "start": 25.5002,
      "duration": 0.0184,
      "velocity": 94,
      "chip": "ym2612"
    },
    {
      "channel": 3,
      "note": 79,
      "start": 25.5013,
      "duration": 0.0186,
      "velocity": 94,
      "chip": "ym2612"
    },
    {
      "channel": 2,
      "note": 55,
      "start": 25.5024,
      "duration": 0.019,
      "velocity": 100,
      "chip": "ym2612"
    },
    {
      "channel": 1,
      "note": 64,
      "start": 25.5157,
      "duration": 0.0146,
      "velocity": 124,
      "chip": "ym2612"
    },
    {
      "channel": 0,
      "note": 42,
      "start": 25.5173,
      "duration": 0.0146,
      "velocity": 115,
      "chip": "ym2612"
    },
    {
      "channel": 4,
      "note": 81,
      "start": 25.5186,
      "duration": 0.0146,
      "velocity": 94,
      "chip": "ym2612"
    },
    {
      "channel": 3,
      "note": 81,
      "start": 25.52,
      "duration": 0.0144,
      "velocity": 94,
      "chip": "ym2612"
    },
    {
      "channel": 2,
      "note": 55,
      "start": 25.5214,
      "duration": 0.0141,
      "velocity": 100,
      "chip": "ym2612"
    },
    {
      "channel": 1,
      "note": 64,
      "start": 25.5303,
      "duration": 0.0153,
      "velocity": 124,
      "chip": "ym2612"
    },
    {
      "channel": 0,
      "note": 43,
      "start": 25.532,
      "duration": 0.0154,
      "velocity": 115,
      "chip": "ym2612"
    },
    {
      "channel": 4,
      "note": 81,
      "start": 25.5331,
      "duration": 0.0153,
      "velocity": 94,
      "chip": "ym2612"
    },
    {
      "channel": 3,
      "note": 81,
      "start": 25.5343,
      "duration": 0.0153,
      "velocity": 94,
      "chip": "ym2612"
    },
    {
      "channel": 2,
      "note": 55,
      "start": 25.5356,
      "duration": 0.0152,
      "velocity": 100,
      "chip": "ym2612"
    },
    {
      "channel": 1,
      "note": 64,
      "start": 25.5456,
      "duration": 0.0184,
      "velocity": 124,
      "chip": "ym2612"
    },
    {
      "channel": 0,
      "note": 43,
      "start": 25.5473,
      "duration": 0.0183,
      "velocity": 115,
      "chip": "ym2612"
    },
    {
      "channel": 4,
      "note": 81,
      "start": 25.5485,
      "duration": 0.0184,
      "velocity": 94,
      "chip": "ym2612"
    },
    {
      "channel": 3,
      "note": 81,
      "start": 25.5496,
      "duration": 0.0184,
      "velocity": 94,
      "chip": "ym2612"
    },
    {
      "channel": 2,
      "note": 55,
      "start": 25.5507,
      "duration": 0.0183,
      "velocity": 100,
      "chip": "ym2612"
    },
    {
      "channel": 1,
      "note": 64,
      "start": 25.564,
      "duration": 0.0166,
      "velocity": 124,
      "chip": "ym2612"
    },
    {
      "channel": 0,
      "note": 44,
      "start": 25.5656,
      "duration": 0.0166,
      "velocity": 115,
      "chip": "ym2612"
    },
    {
      "channel": 4,
      "note": 81,
      "start": 25.5668,
      "duration": 0.0166,
      "velocity": 94,
      "chip": "ym2612"
    },
    {
      "channel": 3,
      "note": 81,
      "start": 25.568,
      "duration": 0.0166,
      "velocity": 94,
      "chip": "ym2612"
    },
    {
      "channel": 2,
      "note": 55,
      "start": 25.5691,
      "duration": 0.0166,
      "velocity": 100,
      "chip": "ym2612"
    },
    {
      "channel": 1,
      "note": 64,
      "start": 25.5806,
      "duration": 0.0157,
      "velocity": 124,
      "chip": "ym2612"
    },
    {
      "channel": 0,
      "note": 44,
      "start": 25.5822,
      "duration": 0.0157,
      "velocity": 115,
      "chip": "ym2612"
    },
    {
      "channel": 4,
      "note": 81,
      "start": 25.5834,
      "duration": 0.0157,
      "velocity": 94,
      "chip": "ym2612"
    },
    {
      "channel": 3,
      "note": 81,
      "start": 25.5846,
      "duration": 0.0157,
      "velocity": 94,
      "chip": "ym2612"
    },
    {
      "channel": 2,
      "note": 55,
      "start": 25.5857,
      "duration": 0.0157,
      "velocity": 100,
      "chip": "ym2612"
    },
    {
      "channel": 1,
      "note": 64,
      "start": 25.5963,
      "duration": 0.0141,
      "velocity": 124,
      "chip": "ym2612"
    },
    {
      "channel": 0,
      "note": 44,
      "start": 25.598,
      "duration": 0.0141,
      "velocity": 115,
      "chip": "ym2612"
    },
    {
      "channel": 4,
      "note": 81,
      "start": 25.5992,
      "duration": 0.0141,
      "velocity": 94,
      "chip": "ym2612"
    },
    {
      "channel": 3,
      "note": 81,
      "start": 25.6003,
      "duration": 0.0141,
      "velocity": 94,
      "chip": "ym2612"
    },
    {
      "channel": 2,
      "note": 55,
      "start": 25.6014,
      "duration": 0.0141,
      "velocity": 100,
      "chip": "ym2612"
    },
    {
      "channel": 1,
      "note": 64,
      "start": 25.6104,
      "duration": 0.0202,
      "velocity": 105,
      "chip": "ym2612"
    },
    {
      "channel": 0,
      "note": 45,
      "start": 25.612,
      "duration": 0.0203,
      "velocity": 115,
      "chip": "ym2612"
    },
    {
      "channel": 4,
      "note": 81,
      "start": 25.6132,
      "duration": 0.0202,
      "velocity": 94,
      "chip": "ym2612"
    },
    {
      "channel": 3,
      "note": 81,
      "start": 25.6144,
      "duration": 0.0202,
      "velocity": 94,
      "chip": "ym2612"
    },
    {
      "channel": 2,
      "note": 55,
      "start": 25.6155,
      "duration": 0.0205,
      "velocity": 100,
      "chip": "ym2612"
    },
    {
      "channel": 1,
      "note": 105,
      "start": 25.6306,
      "duration": 0.0117,
      "velocity": 105,
      "chip": "ym2612"
    },
    {
      "channel": 0,
      "note": 45,
      "start": 25.6323,
      "duration": 0.0144,
      "velocity": 115,
      "chip": "ym2612"
    },
    {
      "channel": 4,
      "note": 81,
      "start": 25.6334,
      "duration": 0.0144,
      "velocity": 94,
      "chip": "ym2612"
    },
    {
      "channel": 3,
      "note": 81,
      "start": 25.6346,
      "duration": 0.0144,
      "velocity": 94,
      "chip": "ym2612"
    },
    {
      "channel": 2,
      "note": 55,
      "start": 25.6361,
      "duration": 0.0141,
      "velocity": 100,
      "chip": "ym2612"
    },
    {
      "channel": 1,
      "note": 105,
      "start": 25.6423,
      "duration": 0.016,
      "velocity": 105,
      "chip": "ym2612"
    },
    {
      "channel": 0,
      "note": 46,
      "start": 25.6467,
      "duration": 0.0157,
      "velocity": 115,
      "chip": "ym2612"
    },
    {
      "channel": 4,
      "note": 81,
      "start": 25.6479,
      "duration": 0.0156,
      "velocity": 94,
      "chip": "ym2612"
    },
    {
      "channel": 3,
      "note": 81,
      "start": 25.649,
      "duration": 0.0156,
      "velocity": 94,
      "chip": "ym2612"
    },
    {
      "channel": 2,
      "note": 55,
      "start": 25.6502,
      "duration": 0.0156,
      "velocity": 100,
      "chip": "ym2612"
    },
    {
      "channel": 1,
      "note": 105,
      "start": 25.6583,
      "duration": 0.0161,
      "velocity": 105,
      "chip": "ym2612"
    },
    {
      "channel": 0,
      "note": 46,
      "start": 25.6624,
      "duration": 0.0137,
      "velocity": 115,
      "chip": "ym2612"
    },
    {
      "channel": 4,
      "note": 81,
      "start": 25.6635,
      "duration": 0.0141,
      "velocity": 94,
      "chip": "ym2612"
    },
    {
      "channel": 3,
      "note": 81,
      "start": 25.6647,
      "duration": 0.0141,
      "velocity": 94,
      "chip": "ym2612"
    },
    {
      "channel": 2,
      "note": 55,
      "start": 25.6658,
      "duration": 0.0141,
      "velocity": 100,
      "chip": "ym2612"
    },
    {
      "channel": 1,
      "note": 105,
      "start": 25.6744,
      "duration": 0.0161,
      "velocity": 105,
      "chip": "ym2612"
    },
    {
      "channel": 0,
      "note": 47,
      "start": 25.6761,
      "duration": 0.0161,
      "velocity": 115,
      "chip": "ym2612"
    },
    {
      "channel": 4,
      "note": 81,
      "start": 25.6776,
      "duration": 0.0185,
      "velocity": 94,
      "chip": "ym2612"
    },
    {
      "channel": 3,
      "note": 81,
      "start": 25.6787,
      "duration": 0.0185,
      "velocity": 94,
      "chip": "ym2612"
    },
    {
      "channel": 2,
      "note": 55,
      "start": 25.6799,
      "duration": 0.0185,
      "velocity": 100,
      "chip": "ym2612"
    },
    {
      "channel": 1,
      "note": 105,
      "start": 25.6905,
      "duration": 0.0161,
      "velocity": 105,
      "chip": "ym2612"
    },
    {
      "channel": 0,
      "note": 47,
      "start": 25.6922,
      "duration": 0.0161,
      "velocity": 115,
      "chip": "ym2612"
    },
    {
      "channel": 4,
      "note": 81,
      "start": 25.6961,
      "duration": 0.0134,
      "velocity": 94,
      "chip": "ym2612"
    },
    {
      "channel": 3,
      "note": 81,
      "start": 25.6973,
      "duration": 0.0161,
      "velocity": 94,
      "chip": "ym2612"
    },
    {
      "channel": 2,
      "note": 55,
      "start": 25.6984,
      "duration": 0.0161,
      "velocity": 100,
      "chip": "ym2612"
    },
    {
      "channel": 1,
      "note": 105,
      "start": 25.7066,
      "duration": 0.0162,
      "velocity": 105,
      "chip": "ym2612"
    },
    {
      "channel": 0,
      "note": 47,
      "start": 25.7083,
      "duration": 0.0162,
      "velocity": 115,
      "chip": "ym2612"
    },
    {
      "channel": 4,
      "note": 81,
      "start": 25.7095,
      "duration": 0.0161,
      "velocity": 94,
      "chip": "ym2612"
    },
    {
      "channel": 3,
      "note": 81,
      "start": 25.7134,
      "duration": 0.0158,
      "velocity": 94,
      "chip": "ym2612"
    },
    {
      "channel": 2,
      "note": 55,
      "start": 25.7145,
      "duration": 0.0158,
      "velocity": 100,
      "chip": "ym2612"
    },
    {
      "channel": 1,
      "note": 105,
      "start": 25.7228,
      "duration": 0.0183,
      "velocity": 124,
      "chip": "ym2612"
    },
    {
      "channel": 0,
      "note": 48,
      "start": 25.7244,
      "duration": 0.0195,
      "velocity": 115,
      "chip": "ym2612"
    },
    {
      "channel": 4,
      "note": 81,
      "start": 25.7256,
      "duration": 0.0195,
      "velocity": 94,
      "chip": "ym2612"
    },
    {
      "channel": 3,
      "note": 81,
      "start": 25.7291,
      "duration": 0.0171,
      "velocity": 94,
      "chip": "ym2612"
    },
    {
      "channel": 2,
      "note": 55,
      "start": 25.7303,
      "duration": 0.0173,
      "velocity": 100,
      "chip": "ym2612"
    },
    {
      "channel": 1,
      "note": 78,
      "start": 25.7411,
      "duration": 0.0144,
      "velocity": 124,
      "chip": "ym2612"
    },
    {
      "channel": 0,
      "note": 48,
      "start": 25.7439,
      "duration": 0.0136,
      "velocity": 115,
      "chip": "ym2612"
    },
    {
      "channel": 4,
      "note": 81,
      "start": 25.745,
      "duration": 0.0135,
      "velocity": 94,
      "chip": "ym2612"
    },
    {
      "channel": 3,
      "note": 81,
      "start": 25.7462,
      "duration": 0.0136,
      "velocity": 94,
      "chip": "ym2612"
    },
    {
      "channel": 2,
      "note": 55,
      "start": 25.7476,
      "duration": 0.016,
      "velocity": 100,
      "chip": "ym2612"
    },
    {
      "channel": 1,
      "note": 76,
      "start": 25.7555,
      "duration": 0.016,
      "velocity": 124,
      "chip": "ym2612"
    },
    {
      "channel": 0,
      "note": 49,
      "start": 25.7574,
      "duration": 0.0152,
      "velocity": 1,
      "chip": "ym2612"
    },
    {
      "channel": 4,
      "note": 81,
      "start": 25.7586,
      "duration": 0.0152,
      "velocity": 94,
      "chip": "ym2612"
    },
    {
      "channel": 3,
      "note": 81,
      "start": 25.7597,
      "duration": 0.0152,
      "velocity": 94,
      "chip": "ym2612"
    },
    {
      "channel": 2,
      "note": 55,
      "start": 25.7637,
      "duration": 0.0124,
      "velocity": 100,
      "chip": "ym2612"
    },
    {
      "channel": 1,
      "note": 75,
      "start": 25.7715,
      "duration": 0.0161,
      "velocity": 124,
      "chip": "ym2612"
    },
    {
      "channel": 4,
      "note": 81,
      "start": 25.7738,
      "duration": 0.0153,
      "velocity": 94,
      "chip": "ym2612"
    },
    {
      "channel": 3,
      "note": 81,
      "start": 25.7749,
      "duration": 0.0153,
      "velocity": 94,
      "chip": "ym2612"
    },
    {
      "channel": 2,
      "note": 55,
      "start": 25.7761,
      "duration": 0.0153,
      "velocity": 100,
      "chip": "ym2612"
    },
    {
      "channel": 1,
      "note": 74,
      "start": 25.7876,
      "duration": 0.0161,
      "velocity": 124,
      "chip": "ym2612"
    },
    {
      "channel": 4,
      "note": 81,
      "start": 25.789,
      "duration": 0.0161,
      "velocity": 94,
      "chip": "ym2612"
    },
    {
      "channel": 3,
      "note": 81,
      "start": 25.7902,
      "duration": 0.0161,
      "velocity": 94,
      "chip": "ym2612"
    },
    {
      "channel": 2,
      "note": 55,
      "start": 25.7913,
      "duration": 0.0161,
      "velocity": 100,
      "chip": "ym2612"
    },
    {
      "channel": 1,
      "note": 72,
      "start": 25.8037,
      "duration": 0.0161,
      "velocity": 124,
      "chip": "ym2612"
    },
    {
      "channel": 4,
      "note": 81,
      "start": 25.8051,
      "duration": 0.0161,
      "velocity": 94,
      "chip": "ym2612"
    },
    {
      "channel": 3,
      "note": 81,
      "start": 25.8063,
      "duration": 0.0161,
      "velocity": 94,
      "chip": "ym2612"
    },
    {
      "channel": 2,
      "note": 55,
      "start": 25.8074,
      "duration": 0.0161,
      "velocity": 100,
      "chip": "ym2612"
    },
    {
      "channel": 1,
      "note": 71,
      "start": 25.8198,
      "duration": 0.0161,
      "velocity": 124,
      "chip": "ym2612"
    },
    {
      "channel": 4,
      "note": 81,
      "start": 25.8212,
      "duration": 0.0161,
      "velocity": 94,
      "chip": "ym2612"
    },
    {
      "channel": 3,
      "note": 81,
      "start": 25.8224,
      "duration": 0.0161,
      "velocity": 94,
      "chip": "ym2612"
    },
    {
      "channel": 2,
      "note": 55,
      "start": 25.8235,
      "duration": 0.0161,
      "velocity": 100,
      "chip": "ym2612"
    },
    {
      "channel": 1,
      "note": 70,
      "start": 25.8359,
      "duration": 0.0161,
      "velocity": 124,
      "chip": "ym2612"
    },
    {
      "channel": 4,
      "note": 81,
      "start": 25.8373,
      "duration": 0.0166,
      "velocity": 94,
      "chip": "ym2612"
    },
    {
      "channel": 3,
      "note": 81,
      "start": 25.8385,
      "duration": 0.0166,
      "velocity": 94,
      "chip": "ym2612"
    },
    {
      "channel": 2,
      "note": 55,
      "start": 25.8396,
      "duration": 0.0169,
      "velocity": 100,
      "chip": "ym2612"
    },
    {
      "channel": 1,
      "note": 69,
      "start": 25.852,
      "duration": 0.0161,
      "velocity": 124,
      "chip": "ym2612"
    },
    {
      "channel": 4,
      "note": 81,
      "start": 25.8539,
      "duration": 0.0156,
      "velocity": 94,
      "chip": "ym2612"
    },
    {
      "channel": 3,
      "note": 81,
      "start": 25.8551,
      "duration": 0.0156,
      "velocity": 94,
      "chip": "ym2612"
    },
    {
      "channel": 2,
      "note": 55,
      "start": 25.8565,
      "duration": 0.0154,
      "velocity": 100,
      "chip": "ym2612"
    },
    {
      "channel": 1,
      "note": 68,
      "start": 25.8681,
      "duration": 0.0161,
      "velocity": 124,
      "chip": "ym2612"
    },
    {
      "channel": 4,
      "note": 81,
      "start": 25.8696,
      "duration": 0.016,
      "velocity": 94,
      "chip": "ym2612"
    },
    {
      "channel": 3,
      "note": 81,
      "start": 25.8707,
      "duration": 0.016,
      "velocity": 94,
      "chip": "ym2612"
    },
    {
      "channel": 2,
      "note": 55,
      "start": 25.8719,
      "duration": 0.016,
      "velocity": 100,
      "chip": "ym2612"
    },
    {
      "channel": 1,
      "note": 66,
      "start": 25.8842,
      "duration": 0.0161,
      "velocity": 124,
      "chip": "ym2612"
    },
    {
      "channel": 4,
      "note": 81,
      "start": 25.8856,
      "duration": 0.0161,
      "velocity": 94,
      "chip": "ym2612"
    },
    {
      "channel": 3,
      "note": 81,
      "start": 25.8868,
      "duration": 0.0161,
      "velocity": 94,
      "chip": "ym2612"
    },
    {
      "channel": 2,
      "note": 55,
      "start": 25.8879,
      "duration": 0.0161,
      "velocity": 100,
      "chip": "ym2612"
    },
    {
      "channel": 1,
      "note": 65,
      "start": 25.9003,
      "duration": 0.0162,
      "velocity": 124,
      "chip": "ym2612"
    },
    {
      "channel": 4,
      "note": 81,
      "start": 25.9017,
      "duration": 0.0161,
      "velocity": 94,
      "chip": "ym2612"
    },
    {
      "channel": 3,
      "note": 81,
      "start": 25.9029,
      "duration": 0.0161,
      "velocity": 94,
      "chip": "ym2612"
    },
    {
      "channel": 2,
      "note": 55,
      "start": 25.904,
      "duration": 0.0161,
      "velocity": 100,
      "chip": "ym2612"
    },
    {
      "channel": 1,
      "note": 64,
      "start": 25.9165,
      "duration": 0.0161,
      "velocity": 124,
      "chip": "ym2612"
    },
    {
      "channel": 4,
      "note": 81,
      "start": 25.9178,
      "duration": 0.0161,
      "velocity": 94,
      "chip": "ym2612"
    },
    {
      "channel": 3,
      "note": 81,
      "start": 25.9189,
      "duration": 0.0162,
      "velocity": 94,
      "chip": "ym2612"
    },
    {
      "channel": 2,
      "note": 55,
      "start": 25.9201,
      "duration": 0.0161,
      "velocity": 100,
      "chip": "ym2612"
    },
    {
      "channel": 1,
      "note": 62,
      "start": 25.9326,
      "duration": 0.0161,
      "velocity": 124,
      "chip": "ym2612"
    },
    {
      "channel": 4,
      "note": 81,
      "start": 25.9339,
      "duration": 0.0161,
      "velocity": 94,
      "chip": "ym2612"
    },
    {
      "channel": 3,
      "note": 81,
      "start": 25.9351,
      "duration": 0.0161,
      "velocity": 94,
      "chip": "ym2612"
    },
    {
      "channel": 2,
      "note": 55,
      "start": 25.9362,
      "duration": 0.0161,
      "velocity": 100,
      "chip": "ym2612"
    },
    {
      "channel": 1,
      "note": 61,
      "start": 25.9486,
      "duration": 0.0161,
      "velocity": 124,
      "chip": "ym2612"
    },
    {
      "channel": 4,
      "note": 81,
      "start": 25.95,
      "duration": 0.0166,
      "velocity": 94,
      "chip": "ym2612"
    },
    {
      "channel": 3,
      "note": 81,
      "start": 25.9512,
      "duration": 0.0166,
      "velocity": 94,
      "chip": "ym2612"
    },
    {
      "channel": 2,
      "note": 55,
      "start": 25.9523,
      "duration": 0.0169,
      "velocity": 100,
      "chip": "ym2612"
    },
    {
      "channel": 1,
      "note": 60,
      "start": 25.9647,
      "duration": 0.0164,
      "velocity": 124,
      "chip": "ym2612"
    },
    {
      "channel": 4,
      "note": 81,
      "start": 25.9666,
      "duration": 0.0159,
      "velocity": 94,
      "chip": "ym2612"
    },
    {
      "channel": 3,
      "note": 81,
      "start": 25.9678,
      "duration": 0.0159,
      "velocity": 94,
      "chip": "ym2612"
    },
    {
      "channel": 2,
      "note": 55,
      "start": 25.9693,
      "duration": 0.0157,
      "velocity": 100,
      "chip": "ym2612"
    },
    {
      "channel": 1,
      "note": 59,
      "start": 25.9812,
      "duration": 0.0163,
      "velocity": 124,
      "chip": "ym2612"
    },
    {
      "channel": 4,
      "note": 81,
      "start": 25.9826,
      "duration": 0.0163,
      "velocity": 94,
      "chip": "ym2612"
    },
    {
      "channel": 3,
      "note": 81,
      "start": 25.9837,
      "duration": 0.0163,
      "velocity": 94,
      "chip": "ym2612"
    },
    {
      "channel": 2,
      "note": 55,
      "start": 25.9849,
      "duration": 0.0161,
      "velocity": 100,
      "chip": "ym2612"
    },
    {
      "channel": 1,
      "note": 57,
      "start": 25.9974,
      "duration": 0.0156,
      "velocity": 124,
      "chip": "ym2612"
    },
    {
      "channel": 4,
      "note": 81,
      "start": 25.9988,
      "duration": 0.0156,
      "velocity": 94,
      "chip": "ym2612"
    },
    {
      "channel": 3,
      "note": 81,
      "start": 26.0,
      "duration": 0.0156,
      "velocity": 94,
      "chip": "ym2612"
    },
    {
      "channel": 2,
      "note": 55,
      "start": 26.0011,
      "duration": 0.0156,
      "velocity": 100,
      "chip": "ym2612"
    },
    {
      "channel": 1,
      "note": 56,
      "start": 26.013,
      "duration": 0.0181,
      "velocity": 124,
      "chip": "ym2612"
    },
    {
      "channel": 4,
      "note": 81,
      "start": 26.0144,
      "duration": 0.0181,
      "velocity": 94,
      "chip": "ym2612"
    },
    {
      "channel": 3,
      "note": 81,
      "start": 26.0156,
      "duration": 0.018,
      "velocity": 94,
      "chip": "ym2612"
    },
    {
      "channel": 2,
      "note": 55,
      "start": 26.0167,
      "duration": 0.0181,
      "velocity": 100,
      "chip": "ym2612"
    },
    {
      "channel": 1,
      "note": 55,
      "start": 26.0311,
      "duration": 0.0167,
      "velocity": 124,
      "chip": "ym2612"
    },
    {
      "channel": 4,
      "note": 81,
      "start": 26.0325,
      "duration": 0.0167,
      "velocity": 94,
      "chip": "ym2612"
    },
    {
      "channel": 3,
      "note": 81,
      "start": 26.0336,
      "duration": 0.0167,
      "velocity": 94,
      "chip": "ym2612"
    },
    {
      "channel": 2,
      "note": 55,
      "start": 26.0348,
      "duration": 0.0167,
      "velocity": 100,
      "chip": "ym2612"
    },
    {
      "channel": 1,
      "note": 53,
      "start": 26.0478,
      "duration": 0.016,
      "velocity": 124,
      "chip": "ym2612"
    },
    {
      "channel": 4,
      "note": 81,
      "start": 26.0492,
      "duration": 0.016,
      "velocity": 94,
      "chip": "ym2612"
    },
    {
      "channel": 3,
      "note": 81,
      "start": 26.0503,
      "duration": 0.016,
      "velocity": 94,
      "chip": "ym2612"
    },
    {
      "channel": 2,
      "note": 55,
      "start": 26.0515,
      "duration": 0.016,
      "velocity": 100,
      "chip": "ym2612"
    },
    {
      "channel": 1,
      "note": 52,
      "start": 26.0637,
      "duration": 0.0141,
      "velocity": 124,
      "chip": "ym2612"
    },
    {
      "channel": 4,
      "note": 81,
      "start": 26.0651,
      "duration": 0.0183,
      "velocity": 94,
      "chip": "ym2612"
    },
    {
      "channel": 3,
      "note": 81,
      "start": 26.0663,
      "duration": 0.0183,
      "velocity": 94,
      "chip": "ym2612"
    },
    {
      "channel": 2,
      "note": 55,
      "start": 26.0674,
      "duration": 0.0185,
      "velocity": 100,
      "chip": "ym2612"
    },
    {
      "channel": 1,
      "note": 51,
      "start": 26.0778,
      "duration": 0.015,
      "velocity": 1,
      "chip": "ym2612"
    },
    {
      "channel": 0,
      "note": 36,
      "start": 26.082,
      "duration": 0.0174,
      "velocity": 115,
      "chip": "ym2612"
    },
    {
      "channel": 4,
      "note": 84,
      "start": 26.0834,
      "duration": 0.0172,
      "velocity": 94,
      "chip": "ym2612"
    },
    {
      "channel": 3,
      "note": 81,
      "start": 26.0845,
      "duration": 0.0172,
      "velocity": 94,
      "chip": "ym2612"
    },
    {
      "channel": 2,
      "note": 55,
      "start": 26.086,
      "duration": 0.017,
      "velocity": 100,
      "chip": "ym2612"
    },
    {
      "channel": 1,
      "note": 51,
      "start": 26.0977,
      "duration": 0.0115,
      "velocity": 105,
      "chip": "ym2612"
    },
    {
      "channel": 0,
      "note": 36,
      "start": 26.0994,
      "duration": 0.0141,
      "velocity": 115,
      "chip": "ym2612"
    },
    {
      "channel": 4,
      "note": 84,
      "start": 26.1006,
      "duration": 0.0141,
      "velocity": 94,
      "chip": "ym2612"
    },
    {
      "channel": 3,
      "note": 81,
      "start": 26.1018,
      "duration": 0.0141,
      "velocity": 94,
      "chip": "ym2612"
    },
    {
      "channel": 2,
      "note": 55,
      "start": 26.103,
      "duration": 0.0141,
      "velocity": 100,
      "chip": "ym2612"
    },
    {
      "channel": 1,
      "note": 105,
      "start": 26.1091,
      "duration": 0.0161,
      "velocity": 105,
      "chip": "ym2612"
    },
    {
      "channel": 0,
      "note": 37,
      "start": 26.1135,
      "duration": 0.0158,
      "velocity": 115,
      "chip": "ym2612"
    },
    {
      "channel": 4,
      "note": 84,
      "start": 26.1147,
      "duration": 0.0157,
      "velocity": 94,
      "chip": "ym2612"
    },
    {
      "channel": 3,
      "note": 81,
      "start": 26.1159,
      "duration": 0.0157,
      "velocity": 94,
      "chip": "ym2612"
    },
    {
      "channel": 2,
      "note": 55,
      "start": 26.117,
      "duration": 0.0157,
      "velocity": 100,
      "chip": "ym2612"
    },
    {
      "channel": 1,
      "note": 105,
      "start": 26.1252,
      "duration": 0.0161,
      "velocity": 105,
      "chip": "ym2612"
    },
    {
      "channel": 0,
      "note": 37,
      "start": 26.1293,
      "duration": 0.0137,
      "velocity": 115,
      "chip": "ym2612"
    },
    {
      "channel": 4,
      "note": 84,
      "start": 26.1305,
      "duration": 0.0141,
      "velocity": 94,
      "chip": "ym2612"
    },
    {
      "channel": 3,
      "note": 81,
      "start": 26.1316,
      "duration": 0.0141,
      "velocity": 94,
      "chip": "ym2612"
    },
    {
      "channel": 2,
      "note": 55,
      "start": 26.1327,
      "duration": 0.0141,
      "velocity": 100,
      "chip": "ym2612"
    },
    {
      "channel": 1,
      "note": 105,
      "start": 26.1413,
      "duration": 0.0161,
      "velocity": 105,
      "chip": "ym2612"
    },
    {
      "channel": 0,
      "note": 38,
      "start": 26.143,
      "duration": 0.0161,
      "velocity": 115,
      "chip": "ym2612"
    },
    {
      "channel": 4,
      "note": 84,
      "start": 26.1445,
      "duration": 0.0185,
      "velocity": 94,
      "chip": "ym2612"
    },
    {
      "channel": 3,
      "note": 81,
      "start": 26.1457,
      "duration": 0.0185,
      "velocity": 94,
      "chip": "ym2612"
    },
    {
      "channel": 2,
      "note": 55,
      "start": 26.1468,
      "duration": 0.0185,
      "velocity": 100,
      "chip": "ym2612"
    },
    {
      "channel": 1,
      "note": 105,
      "start": 26.1574,
      "duration": 0.0161,
      "velocity": 105,
      "chip": "ym2612"
    },
    {
      "channel": 0,
      "note": 38,
      "start": 26.1591,
      "duration": 0.0161,
      "velocity": 115,
      "chip": "ym2612"
    },
    {
      "channel": 4,
      "note": 84,
      "start": 26.163,
      "duration": 0.0134,
      "velocity": 94,
      "chip": "ym2612"
    },
    {
      "channel": 3,
      "note": 81,
      "start": 26.1642,
      "duration": 0.0162,
      "velocity": 94,
      "chip": "ym2612"
    },
    {
      "channel": 2,
      "note": 55,
      "start": 26.1653,
      "duration": 0.0161,
      "velocity": 100,
      "chip": "ym2612"
    },
    {
      "channel": 1,
      "note": 105,
      "start": 26.1736,
      "duration": 0.0178,
      "velocity": 124,
      "chip": "ym2612"
    },
    {
      "channel": 0,
      "note": 39,
      "start": 26.1752,
      "duration": 0.022,
      "velocity": 115,
      "chip": "ym2612"
    },
    {
      "channel": 4,
      "note": 84,
      "start": 26.1764,
      "duration": 0.0221,
      "velocity": 94,
      "chip": "ym2612"
    },
    {
      "channel": 3,
      "note": 81,
      "start": 26.1803,
      "duration": 0.0195,
      "velocity": 94,
      "chip": "ym2612"
    },
    {
      "channel": 2,
      "note": 55,
      "start": 26.1814,
      "duration": 0.0199,
      "velocity": 100,
      "chip": "ym2612"
    },
    {
      "channel": 1,
      "note": 64,
      "start": 26.1914,
      "duration": 0.0144,
      "velocity": 124,
      "chip": "ym2612"
    },
    {
      "channel": 0,
      "note": 36,
      "start": 26.1973,
      "duration": 0.0103,
      "velocity": 115,
      "chip": "ym2612"
    },
    {
      "channel": 4,
      "note": 84,
      "start": 26.1985,
      "duration": 0.0102,
      "velocity": 94,
      "chip": "ym2612"
    },
    {
      "channel": 3,
      "note": 84,
      "start": 26.1999,
      "duration": 0.0104,
      "velocity": 94,
      "chip": "ym2612"
    },
    {
      "channel": 2,
      "note": 55,
      "start": 26.2013,
      "duration": 0.0102,
      "velocity": 100,
      "chip": "ym2612"
    },
    {
      "channel": 1,
      "note": 64,
      "start": 26.2058,
      "duration": 0.016,
      "velocity": 124,
      "chip": "ym2612"
    },
    {
      "channel": 0,
      "note": 36,
      "start": 26.2076,
      "duration": 0.016,
      "velocity": 115,
      "chip": "ym2612"
    },
    {
      "channel": 4,
      "note": 84,
      "start": 26.2087,
      "duration": 0.016,
      "velocity": 94,
      "chip": "ym2612"
    },
    {
      "channel": 3,
      "note": 84,
      "start": 26.2102,
      "duration": 0.0156,
      "velocity": 94,
      "chip": "ym2612"
    },
    {
      "channel": 2,
      "note": 55,
      "start": 26.2114,
      "duration": 0.0183,
      "velocity": 100,
      "chip": "ym2612"
    },
    {
      "channel": 1,
      "note": 64,
      "start": 26.2219,
      "duration": 0.0161,
      "velocity": 124,
      "chip": "ym2612"
    },
    {
      "channel": 0,
      "note": 37,
      "start": 26.2235,
      "duration": 0.0161,
      "velocity": 115,
      "chip": "ym2612"
    },
    {
      "channel": 4,
      "note": 84,
      "start": 26.2247,
      "duration": 0.0161,
      "velocity": 94,
      "chip": "ym2612"
    },
    {
      "channel": 3,
      "note": 84,
      "start": 26.2259,
      "duration": 0.0161,
      "velocity": 94,
      "chip": "ym2612"
    },
    {
      "channel": 2,
      "note": 55,
      "start": 26.2298,
      "duration": 0.0133,
      "velocity": 100,
      "chip": "ym2612"
    },
    {
      "channel": 1,
      "note": 64,
      "start": 26.238,
      "duration": 0.0161,
      "velocity": 124,
      "chip": "ym2612"
    },
    {
      "channel": 0,
      "note": 37,
      "start": 26.2396,
      "duration": 0.0161,
      "velocity": 115,
      "chip": "ym2612"
    },
    {
      "channel": 4,
      "note": 84,
      "start": 26.2408,
      "duration": 0.0161,
      "velocity": 94,
      "chip": "ym2612"
    },
    {
      "channel": 3,
      "note": 84,
      "start": 26.242,
      "duration": 0.0161,
      "velocity": 94,
      "chip": "ym2612"
    },
    {
      "channel": 2,
      "note": 55,
      "start": 26.2431,
      "duration": 0.0161,
      "velocity": 100,
      "chip": "ym2612"
    },
    {
      "channel": 1,
      "note": 64,
      "start": 26.2541,
      "duration": 0.0161,
      "velocity": 124,
      "chip": "ym2612"
    },
    {
      "channel": 0,
      "note": 38,
      "start": 26.2557,
      "duration": 0.0161,
      "velocity": 115,
      "chip": "ym2612"
    },
    {
      "channel": 4,
      "note": 84,
      "start": 26.2569,
      "duration": 0.0161,
      "velocity": 94,
      "chip": "ym2612"
    },
    {
      "channel": 3,
      "note": 84,
      "start": 26.2581,
      "duration": 0.0161,
      "velocity": 94,
      "chip": "ym2612"
    },
    {
      "channel": 2,
      "note": 55,
      "start": 26.2591,
      "duration": 0.0162,
      "velocity": 100,
      "chip": "ym2612"
    },
    {
      "channel": 1,
      "note": 64,
      "start": 26.2702,
      "duration": 0.0161,
      "velocity": 124,
      "chip": "ym2612"
    },
    {
      "channel": 0,
      "note": 38,
      "start": 26.2719,
      "duration": 0.0161,
      "velocity": 115,
      "chip": "ym2612"
    },
    {
      "channel": 4,
      "note": 84,
      "start": 26.273,
      "duration": 0.0161,
      "velocity": 94,
      "chip": "ym2612"
    },
    {
      "channel": 3,
      "note": 84,
      "start": 26.2741,
      "duration": 0.0161,
      "velocity": 94,
      "chip": "ym2612"
    },
    {
      "channel": 2,
      "note": 55,
      "start": 26.2753,
      "duration": 0.0161,
      "velocity": 100,
      "chip": "ym2612"
    },
    {
      "channel": 1,
      "note": 64,
      "start": 26.2862,
      "duration": 0.0178,
      "velocity": 105,
      "chip": "ym2612"
    },
    {
      "channel": 0,
      "note": 39,
      "start": 26.288,
      "duration": 0.0178,
      "velocity": 115,
      "chip": "ym2612"
    },
    {
      "channel": 4,
      "note": 84,
      "start": 26.2891,
      "duration": 0.0178,
      "velocity": 94,
      "chip": "ym2612"
    },
    {
      "channel": 3,
      "note": 84,
      "start": 26.2902,
      "duration": 0.0178,
      "velocity": 94,
      "chip": "ym2612"
    },
    {
      "channel": 2,
      "note": 55,
      "start": 26.2914,
      "duration": 0.018,
      "velocity": 100,
      "chip": "ym2612"
    },
    {
      "channel": 1,
      "note": 105,
      "start": 26.3041,
      "duration": 0.0144,
      "velocity": 105,
      "chip": "ym2612"
    },
    {
      "channel": 0,
      "note": 39,
      "start": 26.3058,
      "duration": 0.0144,
      "velocity": 115,
      "chip": "ym2612"
    },
    {
      "channel": 4,
      "note": 84,
      "start": 26.3069,
      "duration": 0.0144,
      "velocity": 94,
      "chip": "ym2612"
    },
    {
      "channel": 3,
      "note": 84,
      "start": 26.3081,
      "duration": 0.0144,
      "velocity": 94,
      "chip": "ym2612"
    },
    {
      "channel": 2,
      "note": 55,
      "start": 26.3095,
      "duration": 0.0142,
      "velocity": 100,
      "chip": "ym2612"
    },
    {
      "channel": 1,
      "note": 105,
      "start": 26.3185,
      "duration": 0.0161,
      "velocity": 105,
      "chip": "ym2612"
    },
    {
      "channel": 0,
      "note": 40,
      "start": 26.3202,
      "duration": 0.016,
      "velocity": 115,
      "chip": "ym2612"
    },
    {
      "channel": 4,
      "note": 84,
      "start": 26.3214,
      "duration": 0.016,
      "velocity": 94,
      "chip": "ym2612"
    },
    {
      "channel": 3,
      "note": 84,
      "start": 26.3225,
      "duration": 0.016,
      "velocity": 94,
      "chip": "ym2612"
    },
    {
      "channel": 2,
      "note": 55,
      "start": 26.3237,
      "duration": 0.016,
      "velocity": 100,
      "chip": "ym2612"
    },
    {
      "channel": 1,
      "note": 105,
      "start": 26.3346,
      "duration": 0.0161,
      "velocity": 105,
      "chip": "ym2612"
    },
    {
      "channel": 0,
      "note": 40,
      "start": 26.3362,
      "duration": 0.0161,
      "velocity": 115,
      "chip": "ym2612"
    },
    {
      "channel": 4,
      "note": 84,
      "start": 26.3374,
      "duration": 0.0161,
      "velocity": 94,
      "chip": "ym2612"
    },
    {
      "channel": 3,
      "note": 84,
      "start": 26.3385,
      "duration": 0.0161,
      "velocity": 94,
      "chip": "ym2612"
    },
    {
      "channel": 2,
      "note": 55,
      "start": 26.3397,
      "duration": 0.0161,
      "velocity": 100,
      "chip": "ym2612"
    },
    {
      "channel": 1,
      "note": 105,
      "start": 26.3507,
      "duration": 0.0161,
      "velocity": 105,
      "chip": "ym2612"
    },
    {
      "channel": 0,
      "note": 40,
      "start": 26.3523,
      "duration": 0.0161,
      "velocity": 115,
      "chip": "ym2612"
    },
    {
      "channel": 4,
      "note": 84,
      "start": 26.3535,
      "duration": 0.0161,
      "velocity": 94,
      "chip": "ym2612"
    },
    {
      "channel": 3,
      "note": 84,
      "start": 26.3546,
      "duration": 0.0161,
      "velocity": 94,
      "chip": "ym2612"
    },
    {
      "channel": 2,
      "note": 55,
      "start": 26.3558,
      "duration": 0.0161,
      "velocity": 100,
      "chip": "ym2612"
    },
    {
      "channel": 1,
      "note": 105,
      "start": 26.3668,
      "duration": 0.0161,
      "velocity": 105,
      "chip": "ym2612"
    },
    {
      "channel": 0,
      "note": 41,
      "start": 26.3684,
      "duration": 0.0161,
      "velocity": 115,
      "chip": "ym2612"
    },
    {
      "channel": 4,
      "note": 84,
      "start": 26.3696,
      "duration": 0.0162,
      "velocity": 94,
      "chip": "ym2612"
    },
    {
      "channel": 3,
      "note": 84,
      "start": 26.3707,
      "duration": 0.0161,
      "velocity": 94,
      "chip": "ym2612"
    },
    {
      "channel": 2,
      "note": 55,
      "start": 26.3719,
      "duration": 0.0161,
      "velocity": 100,
      "chip": "ym2612"
    },
    {
      "channel": 1,
      "note": 105,
      "start": 26.3829,
      "duration": 0.0161,
      "velocity": 105,
      "chip": "ym2612"
    },
    {
      "channel": 0,
      "note": 41,
      "start": 26.3845,
      "duration": 0.0161,
      "velocity": 115,
      "chip": "ym2612"
    },
    {
      "channel": 4,
      "note": 84,
      "start": 26.3857,
      "duration": 0.0161,
      "velocity": 94,
      "chip": "ym2612"
    },
    {
      "channel": 3,
      "note": 84,
      "start": 26.3869,
      "duration": 0.0161,
      "velocity": 94,
      "chip": "ym2612"
    },
    {
      "channel": 2,
      "note": 55,
      "start": 26.388,
      "duration": 0.0161,
      "velocity": 100,
      "chip": "ym2612"
    },
    {
      "channel": 1,
      "note": 105,
      "start": 26.399,
      "duration": 0.0178,
      "velocity": 124,
      "chip": "ym2612"
    },
    {
      "channel": 0,
      "note": 42,
      "start": 26.4006,
      "duration": 0.0179,
      "velocity": 115,
      "chip": "ym2612"
    },
    {
      "channel": 4,
      "note": 84,
      "start": 26.4018,
      "duration": 0.0178,
      "velocity": 94,
      "chip": "ym2612"
    },
    {
      "channel": 3,
      "note": 84,
      "start": 26.403,
      "duration": 0.0178,
      "velocity": 94,
      "chip": "ym2612"
    },
    {
      "channel": 2,
      "note": 55,
      "start": 26.4041,
      "duration": 0.0181,
      "velocity": 100,
      "chip": "ym2612"
    },
    {
      "channel": 1,
      "note": 64,
      "start": 26.4168,
      "duration": 0.0144,
      "velocity": 124,
      "chip": "ym2612"
    },
    {
      "channel": 0,
      "note": 42,
      "start": 26.4185,
      "duration": 0.0144,
      "velocity": 115,
      "chip": "ym2612"
    },
    {
      "channel": 4,
      "note": 84,
      "start": 26.4196,
      "duration": 0.0144,
      "velocity": 94,
      "chip": "ym2612"
    },
    {
      "channel": 3,
      "note": 84,
      "start": 26.4208,
      "duration": 0.0144,
      "velocity": 94,
      "chip": "ym2612"
    },
    {
      "channel": 2,
      "note": 55,
      "start": 26.4222,
      "duration": 0.0142,
      "velocity": 100,
      "chip": "ym2612"
    },
    {
      "channel": 1,
      "note": 64,
      "start": 26.4312,
      "duration": 0.0161,
      "velocity": 124,
      "chip": "ym2612"
    },
    {
      "channel": 0,
      "note": 43,
      "start": 26.4329,
      "duration": 0.016,
      "velocity": 115,
      "chip": "ym2612"
    },
    {
      "channel": 4,
      "note": 84,
      "start": 26.4341,
      "duration": 0.016,
      "velocity": 94,
      "chip": "ym2612"
    },
    {
      "channel": 3,
      "note": 84,
      "start": 26.4352,
      "duration": 0.016,
      "velocity": 94,
      "chip": "ym2612"
    },
    {
      "channel": 2,
      "note": 55,
      "start": 26.4364,
      "duration": 0.016,
      "velocity": 100,
      "chip": "ym2612"
    },
    {
      "channel": 1,
      "note": 64,
      "start": 26.4473,
      "duration": 0.0163,
      "velocity": 124,
      "chip": "ym2612"
    },
    {
      "channel": 0,
      "note": 43,
      "start": 26.449,
      "duration": 0.0163,
      "velocity": 115,
      "chip": "ym2612"
    },
    {
      "channel": 4,
      "note": 84,
      "start": 26.4501,
      "duration": 0.0163,
      "velocity": 94,
      "chip": "ym2612"
    },
    {
      "channel": 3,
      "note": 84,
      "start": 26.4513,
      "duration": 0.0163,
      "velocity": 94,
      "chip": "ym2612"
    },
    {
      "channel": 2,
      "note": 55,
      "start": 26.4524,
      "duration": 0.0163,
      "velocity": 100,
      "chip": "ym2612"
    },
    {
      "channel": 1,
      "note": 64,
      "start": 26.4636,
      "duration": 0.0159,
      "velocity": 124,
      "chip": "ym2612"
    },
    {
      "channel": 0,
      "note": 44,
      "start": 26.4653,
      "duration": 0.0159,
      "velocity": 115,
      "chip": "ym2612"
    },
    {
      "channel": 4,
      "note": 84,
      "start": 26.4665,
      "duration": 0.0159,
      "velocity": 94,
      "chip": "ym2612"
    },
    {
      "channel": 3,
      "note": 84,
      "start": 26.4676,
      "duration": 0.0159,
      "velocity": 94,
      "chip": "ym2612"
    },
    {
      "channel": 2,
      "note": 55,
      "start": 26.4687,
      "duration": 0.0159,
      "velocity": 100,
      "chip": "ym2612"
    },
    {
      "channel": 1,
      "note": 64,
      "start": 26.4795,
      "duration": 0.0178,
      "velocity": 124,
      "chip": "ym2612"
    },
    {
      "channel": 0,
      "note": 44,
      "start": 26.4812,
      "duration": 0.0178,
      "velocity": 115,
      "chip": "ym2612"
    },
    {
      "channel": 4,
      "note": 84,
      "start": 26.4823,
      "duration": 0.0179,
      "velocity": 94,
      "chip": "ym2612"
    },
    {
      "channel": 3,
      "note": 84,
      "start": 26.4834,
      "duration": 0.0179,
      "velocity": 94,
      "chip": "ym2612"
    },
    {
      "channel": 2,
      "note": 55,
      "start": 26.4846,
      "duration": 0.0178,
      "velocity": 100,
      "chip": "ym2612"
    },
    {
      "channel": 1,
      "note": 64,
      "start": 26.4973,
      "duration": 0.0167,
      "velocity": 124,
      "chip": "ym2612"
    },
    {
      "channel": 0,
      "note": 44,
      "start": 26.499,
      "duration": 0.0167,
      "velocity": 115,
      "chip": "ym2612"
    },
    {
      "channel": 4,
      "note": 84,
      "start": 26.5002,
      "duration": 0.0166,
      "velocity": 94,
      "chip": "ym2612"
    },
    {
      "channel": 3,
      "note": 84,
      "start": 26.5013,
      "duration": 0.0166,
      "velocity": 94,
      "chip": "ym2612"
    },
    {
      "channel": 2,
      "note": 55,
      "start": 26.5024,
      "duration": 0.0167,
      "velocity": 100,
      "chip": "ym2612"
    },
    {
      "channel": 1,
      "note": 64,
      "start": 26.514,
      "duration": 0.0179,
      "velocity": 105,
      "chip": "ym2612"
    },
    {
      "channel": 0,
      "note": 45,
      "start": 26.5156,
      "duration": 0.0179,
      "velocity": 115,
      "chip": "ym2612"
    },
    {
      "channel": 4,
      "note": 84,
      "start": 26.5168,
      "duration": 0.0179,
      "velocity": 94,
      "chip": "ym2612"
    },
    {
      "channel": 3,
      "note": 84,
      "start": 26.5179,
      "duration": 0.0179,
      "velocity": 94,
      "chip": "ym2612"
    },
    {
      "channel": 2,
      "note": 55,
      "start": 26.5191,
      "duration": 0.0182,
      "velocity": 100,
      "chip": "ym2612"
    },
    {
      "channel": 1,
      "note": 105,
      "start": 26.5319,
      "duration": 0.0124,
      "velocity": 105,
      "chip": "ym2612"
    },
    {
      "channel": 0,
      "note": 45,
      "start": 26.5336,
      "duration": 0.0123,
      "velocity": 115,
      "chip": "ym2612"
    },
    {
      "channel": 4,
      "note": 84,
      "start": 26.5347,
      "duration": 0.0124,
      "velocity": 94,
      "chip": "ym2612"
    },
    {
      "channel": 3,
      "note": 84,
      "start": 26.5359,
      "duration": 0.0124,
      "velocity": 94,
      "chip": "ym2612"
    },
    {
      "channel": 2,
      "note": 55,
      "start": 26.5373,
      "duration": 0.0121,
      "velocity": 100,
      "chip": "ym2612"
    },
    {
      "channel": 1,
      "note": 105,
      "start": 26.5443,
      "duration": 0.0184,
      "velocity": 105,
      "chip": "ym2612"
    },
    {
      "channel": 0,
      "note": 46,
      "start": 26.5459,
      "duration": 0.0185,
      "velocity": 115,
      "chip": "ym2612"
    },
    {
      "channel": 4,
      "note": 84,
      "start": 26.5471,
      "duration": 0.0185,
      "velocity": 94,
      "chip": "ym2612"
    },
    {
      "channel": 3,
      "note": 84,
      "start": 26.5483,
      "duration": 0.0184,
      "velocity": 94,
      "chip": "ym2612"
    },
    {
      "channel": 2,
      "note": 55,
      "start": 26.5494,
      "duration": 0.0185,
      "velocity": 100,
      "chip": "ym2612"
    },
    {
      "channel": 1,
      "note": 105,
      "start": 26.5627,
      "duration": 0.0134,
      "velocity": 105,
      "chip": "ym2612"
    },
    {
      "channel": 0,
      "note": 46,
      "start": 26.5644,
      "duration": 0.0161,
      "velocity": 115,
      "chip": "ym2612"
    },
    {
      "channel": 4,
      "note": 84,
      "start": 26.5656,
      "duration": 0.0161,
      "velocity": 94,
      "chip": "ym2612"
    },
    {
      "channel": 3,
      "note": 84,
      "start": 26.5667,
      "duration": 0.0161,
      "velocity": 94,
      "chip": "ym2612"
    },
    {
      "channel": 2,
      "note": 55,
      "start": 26.5679,
      "duration": 0.0161,
      "velocity": 100,
      "chip": "ym2612"
    },
    {
      "channel": 1,
      "note": 105,
      "start": 26.5761,
      "duration": 0.0161,
      "velocity": 105,
      "chip": "ym2612"
    },
    {
      "channel": 0,
      "note": 47,
      "start": 26.5805,
      "duration": 0.0157,
      "velocity": 115,
      "chip": "ym2612"
    },
    {
      "channel": 4,
      "note": 84,
      "start": 26.5817,
      "duration": 0.0157,
      "velocity": 94,
      "chip": "ym2612"
    },
    {
      "channel": 3,
      "note": 84,
      "start": 26.5828,
      "duration": 0.0157,
      "velocity": 94,
      "chip": "ym2612"
    },
    {
      "channel": 2,
      "note": 55,
      "start": 26.5839,
      "duration": 0.0157,
      "velocity": 100,
      "chip": "ym2612"
    },
    {
      "channel": 1,
      "note": 105,
      "start": 26.5922,
      "duration": 0.0161,
      "velocity": 105,
      "chip": "ym2612"
    },
    {
      "channel": 0,
      "note": 47,
      "start": 26.5962,
      "duration": 0.0141,
      "velocity": 115,
      "chip": "ym2612"
    },
    {
      "channel": 4,
      "note": 84,
      "start": 26.5974,
      "duration": 0.0141,
      "velocity": 94,
      "chip": "ym2612"
    },
    {
      "channel": 3,
      "note": 84,
      "start": 26.5985,
      "duration": 0.0141,
      "velocity": 94,
      "chip": "ym2612"
    },
    {
      "channel": 2,
      "note": 55,
      "start": 26.5997,
      "duration": 0.0141,
      "velocity": 100,
      "chip": "ym2612"
    },
    {
      "channel": 1,
      "note": 105,
      "start": 26.6083,
      "duration": 0.0162,
      "velocity": 105,
      "chip": "ym2612"
    },
    {
      "channel": 0,
      "note": 47,
      "start": 26.6103,
      "duration": 0.0158,
      "velocity": 115,
      "chip": "ym2612"
    },
    {
      "channel": 4,
      "note": 84,
      "start": 26.6114,
      "duration": 0.0186,
      "velocity": 94,
      "chip": "ym2612"
    },
    {
      "channel": 3,
      "note": 84,
      "start": 26.6126,
      "duration": 0.0186,
      "velocity": 94,
      "chip": "ym2612"
    },
    {
      "channel": 2,
      "note": 55,
      "start": 26.6137,
      "duration": 0.0185,
      "velocity": 100,
      "chip": "ym2612"
    },
    {
      "channel": 1,
      "note": 105,
      "start": 26.6244,
      "duration": 0.0183,
      "velocity": 124,
      "chip": "ym2612"
    },
    {
      "channel": 0,
      "note": 48,
      "start": 26.6261,
      "duration": 0.0219,
      "velocity": 115,
      "chip": "ym2612"
    },
    {
      "channel": 4,
      "note": 84,
      "start": 26.63,
      "duration": 0.0191,
      "velocity": 94,
      "chip": "ym2612"
    },
    {
      "channel": 3,
      "note": 84,
      "start": 26.6312,
      "duration": 0.0191,
      "velocity": 94,
      "chip": "ym2612"
    },
    {
      "channel": 2,
      "note": 55,
      "start": 26.6322,
      "duration": 0.0194,
      "velocity": 100,
      "chip": "ym2612"
    },
    {
      "channel": 1,
      "note": 78,
      "start": 26.6428,
      "duration": 0.0144,
      "velocity": 124,
      "chip": "ym2612"
    },
    {
      "channel": 0,
      "note": 48,
      "start": 26.648,
      "duration": 0.0111,
      "velocity": 115,
      "chip": "ym2612"
    },
    {
      "channel": 4,
      "note": 84,
      "start": 26.6491,
      "duration": 0.0136,
      "velocity": 94,
      "chip": "ym2612"
    },
    {
      "channel": 3,
      "note": 84,
      "start": 26.6502,
      "duration": 0.0135,
      "velocity": 94,
      "chip": "ym2612"
    },
    {
      "channel": 2,
      "note": 55,
      "start": 26.6517,
      "duration": 0.0132,
      "velocity": 100,
      "chip": "ym2612"
    },
    {
      "channel": 1,
      "note": 76,
      "start": 26.6572,
      "duration": 0.016,
      "velocity": 124,
      "chip": "ym2612"
    },
    {
      "channel": 0,
      "note": 49,
      "start": 26.6591,
      "duration": 0.0152,
      "velocity": 1,
      "chip": "ym2612"
    },
    {
      "channel": 4,
      "note": 84,
      "start": 26.6627,
      "duration": 0.0128,
      "velocity": 94,
      "chip": "ym2612"
    },
    {
      "channel": 3,
      "note": 84,
      "start": 26.6638,
      "duration": 0.0131,
      "velocity": 94,
      "chip": "ym2612"
    },
    {
      "channel": 2,
      "note": 55,
      "start": 26.6649,
      "duration": 0.0131,
      "velocity": 100,
      "chip": "ym2612"
    },
    {
      "channel": 1,
      "note": 75,
      "start": 26.6732,
      "duration": 0.0161,
      "velocity": 124,
      "chip": "ym2612"
    },
    {
      "channel": 4,
      "note": 84,
      "start": 26.6754,
      "duration": 0.0153,
      "velocity": 94,
      "chip": "ym2612"
    },
    {
      "channel": 3,
      "note": 84,
      "start": 26.6769,
      "duration": 0.0149,
      "velocity": 94,
      "chip": "ym2612"
    },
    {
      "channel": 2,
      "note": 55,
      "start": 26.678,
      "duration": 0.0149,
      "velocity": 100,
      "chip": "ym2612"
    },
    {
      "channel": 1,
      "note": 74,
      "start": 26.6893,
      "duration": 0.0161,
      "velocity": 124,
      "chip": "ym2612"
    },
    {
      "channel": 4,
      "note": 84,
      "start": 26.6907,
      "duration": 0.0161,
      "velocity": 94,
      "chip": "ym2612"
    },
    {
      "channel": 3,
      "note": 84,
      "start": 26.6918,
      "duration": 0.0161,
      "velocity": 94,
      "chip": "ym2612"
    },
    {
      "channel": 2,
      "note": 55,
      "start": 26.693,
      "duration": 0.0161,
      "velocity": 100,
      "chip": "ym2612"
    },
    {
      "channel": 1,
      "note": 72,
      "start": 26.7054,
      "duration": 0.0161,
      "velocity": 124,
      "chip": "ym2612"
    },
    {
      "channel": 4,
      "note": 84,
      "start": 26.7068,
      "duration": 0.0161,
      "velocity": 94,
      "chip": "ym2612"
    },
    {
      "channel": 3,
      "note": 84,
      "start": 26.7079,
      "duration": 0.0161,
      "velocity": 94,
      "chip": "ym2612"
    },
    {
      "channel": 2,
      "note": 55,
      "start": 26.7091,
      "duration": 0.0161,
      "velocity": 100,
      "chip": "ym2612"
    },
    {
      "channel": 1,
      "note": 71,
      "start": 26.7215,
      "duration": 0.0161,
      "velocity": 124,
      "chip": "ym2612"
    },
    {
      "channel": 4,
      "note": 84,
      "start": 26.7229,
      "duration": 0.0161,
      "velocity": 94,
      "chip": "ym2612"
    },
    {
      "channel": 3,
      "note": 84,
      "start": 26.724,
      "duration": 0.0161,
      "velocity": 94,
      "chip": "ym2612"
    },
    {
      "channel": 2,
      "note": 55,
      "start": 26.7252,
      "duration": 0.0161,
      "velocity": 100,
      "chip": "ym2612"
    },
    {
      "channel": 1,
      "note": 70,
      "start": 26.7376,
      "duration": 0.0161,
      "velocity": 124,
      "chip": "ym2612"
    },
    {
      "channel": 4,
      "note": 84,
      "start": 26.739,
      "duration": 0.0168,
      "velocity": 94,
      "chip": "ym2612"
    },
    {
      "channel": 3,
      "note": 84,
      "start": 26.7401,
      "duration": 0.0169,
      "velocity": 94,
      "chip": "ym2612"
    },
    {
      "channel": 2,
      "note": 55,
      "start": 26.7413,
      "duration": 0.0172,
      "velocity": 100,
      "chip": "ym2612"
    },
    {
      "channel": 1,
      "note": 69,
      "start": 26.7537,
      "duration": 0.0161,
      "velocity": 124,
      "chip": "ym2612"
    },
    {
      "channel": 4,
      "note": 88,
      "start": 26.7559,
      "duration": 0.0154,
      "velocity": 94,
      "chip": "ym2612"
    },
    {
      "channel": 3,
      "note": 84,
      "start": 26.7571,
      "duration": 0.0154,
      "velocity": 94,
      "chip": "ym2612"
    },
    {
      "channel": 2,
      "note": 55,
      "start": 26.7585,
      "duration": 0.0152,
      "velocity": 100,
      "chip": "ym2612"
    },
    {
      "channel": 1,
      "note": 68,
      "start": 26.7698,
      "duration": 0.0161,
      "velocity": 124,
      "chip": "ym2612"
    },
    {
      "channel": 4,
      "note": 88,
      "start": 26.7713,
      "duration": 0.016,
      "velocity": 94,
      "chip": "ym2612"
    },
    {
      "channel": 3,
      "note": 84,
      "start": 26.7724,
      "duration": 0.016,
      "velocity": 94,
      "chip": "ym2612"
    },
    {
      "channel": 2,
      "note": 55,
      "start": 26.7737,
      "duration": 0.0159,
      "velocity": 100,
      "chip": "ym2612"
    },
    {
      "channel": 1,
      "note": 66,
      "start": 26.7859,
      "duration": 0.0161,
      "velocity": 124,
      "chip": "ym2612"
    },
    {
      "channel": 4,
      "note": 88,
      "start": 26.7873,
      "duration": 0.0161,
      "velocity": 94,
      "chip": "ym2612"
    },
    {
      "channel": 3,
      "note": 84,
      "start": 26.7884,
      "duration": 0.0161,
      "velocity": 94,
      "chip": "ym2612"
    },
    {
      "channel": 2,
      "note": 55,
      "start": 26.7895,
      "duration": 0.0161,
      "velocity": 100,
      "chip": "ym2612"
    },
    {
      "channel": 1,
      "note": 65,
      "start": 26.802,
      "duration": 0.0161,
      "velocity": 124,
      "chip": "ym2612"
    },
    {
      "channel": 4,
      "note": 88,
      "start": 26.8034,
      "duration": 0.0161,
      "velocity": 94,
      "chip": "ym2612"
    },
    {
      "channel": 3,
      "note": 84,
      "start": 26.8045,
      "duration": 0.0161,
      "velocity": 94,
      "chip": "ym2612"
    },
    {
      "channel": 2,
      "note": 55,
      "start": 26.8056,
      "duration": 0.0161,
      "velocity": 100,
      "chip": "ym2612"
    },
    {
      "channel": 1,
      "note": 64,
      "start": 26.8181,
      "duration": 0.0161,
      "velocity": 124,
      "chip": "ym2612"
    },
    {
      "channel": 4,
      "note": 88,
      "start": 26.8195,
      "duration": 0.0161,
      "velocity": 94,
      "chip": "ym2612"
    },
    {
      "channel": 3,
      "note": 84,
      "start": 26.8206,
      "duration": 0.0162,
      "velocity": 94,
      "chip": "ym2612"
    },
    {
      "channel": 2,
      "note": 55,
      "start": 26.8217,
      "duration": 0.0161,
      "velocity": 100,
      "chip": "ym2612"
    },
    {
      "channel": 1,
      "note": 62,
      "start": 26.8342,
      "duration": 0.0161,
      "velocity": 124,
      "chip": "ym2612"
    },
    {
      "channel": 4,
      "note": 88,
      "start": 26.8356,
      "duration": 0.0161,
      "velocity": 94,
      "chip": "ym2612"
    },
    {
      "channel": 3,
      "note": 84,
      "start": 26.8368,
      "duration": 0.0161,
      "velocity": 94,
      "chip": "ym2612"
    },
    {
      "channel": 2,
      "note": 55,
      "start": 26.8378,
      "duration": 0.0161,
      "velocity": 100,
      "chip": "ym2612"
    },
    {
      "channel": 1,
      "note": 61,
      "start": 26.8503,
      "duration": 0.0161,
      "velocity": 124,
      "chip": "ym2612"
    },
    {
      "channel": 4,
      "note": 88,
      "start": 26.8517,
      "duration": 0.0169,
      "velocity": 94,
      "chip": "ym2612"
    },
    {
      "channel": 3,
      "note": 84,
      "start": 26.8529,
      "duration": 0.0171,
      "velocity": 94,
      "chip": "ym2612"
    },
    {
      "channel": 2,
      "note": 55,
      "start": 26.854,
      "duration": 0.0174,
      "velocity": 100,
      "chip": "ym2612"
    },
    {
      "channel": 1,
      "note": 60,
      "start": 26.8664,
      "duration": 0.0161,
      "velocity": 124,
      "chip": "ym2612"
    },
    {
      "channel": 4,
      "note": 88,
      "start": 26.8686,
      "duration": 0.0154,
      "velocity": 94,
      "chip": "ym2612"
    },
    {
      "channel": 3,
      "note": 88,
      "start": 26.87,
      "duration": 0.0152,
      "velocity": 94,
      "chip": "ym2612"
    },
    {
      "channel": 2,
      "note": 48,
      "start": 26.8714,
      "duration": 0.0149,
      "velocity": 100,
      "chip": "ym2612"
    },
    {
      "channel": 1,
      "note": 59,
      "start": 26.8825,
      "duration": 0.0161,
      "velocity": 124,
      "chip": "ym2612"
    },
    {
      "channel": 4,
      "note": 88,
      "start": 26.884,
      "duration": 0.016,
      "velocity": 94,
      "chip": "ym2612"
    },
    {
      "channel": 3,
      "note": 88,
      "start": 26.8852,
      "duration": 0.016,
      "velocity": 94,
      "chip": "ym2612"
    },
    {
      "channel": 2,
      "note": 48,
      "start": 26.8864,
      "duration": 0.0159,
      "velocity": 100,
      "chip": "ym2612"
    },
    {
      "channel": 1,
      "note": 57,
      "start": 26.8986,
      "duration": 0.0161,
      "velocity": 124,
      "chip": "ym2612"
    },
    {
      "channel": 4,
      "note": 88,
      "start": 26.9,
      "duration": 0.0161,
      "velocity": 94,
      "chip": "ym2612"
    },
    {
      "channel": 3,
      "note": 88,
      "start": 26.9011,
      "duration": 0.0161,
      "velocity": 94,
      "chip": "ym2612"
    },
    {
      "channel": 2,
      "note": 48,
      "start": 26.9023,
      "duration": 0.0161,
      "velocity": 100,
      "chip": "ym2612"
    },
    {
      "channel": 1,
      "note": 56,
      "start": 26.9147,
      "duration": 0.0162,
      "velocity": 124,
      "chip": "ym2612"
    },
    {
      "channel": 4,
      "note": 88,
      "start": 26.9161,
      "duration": 0.0162,
      "velocity": 94,
      "chip": "ym2612"
    },
    {
      "channel": 3,
      "note": 88,
      "start": 26.9172,
      "duration": 0.0161,
      "velocity": 94,
      "chip": "ym2612"
    },
    {
      "channel": 2,
      "note": 48,
      "start": 26.9184,
      "duration": 0.0162,
      "velocity": 100,
      "chip": "ym2612"
    },
    {
      "channel": 1,
      "note": 55,
      "start": 26.9308,
      "duration": 0.0161,
      "velocity": 124,
      "chip": "ym2612"
    },
    {
      "channel": 4,
      "note": 88,
      "start": 26.9322,
      "duration": 0.016,
      "velocity": 94,
      "chip": "ym2612"
    },
    {
      "channel": 3,
      "note": 88,
      "start": 26.9334,
      "duration": 0.016,
      "velocity": 94,
      "chip": "ym2612"
    },
    {
      "channel": 2,
      "note": 48,
      "start": 26.9345,
      "duration": 0.016,
      "velocity": 100,
      "chip": "ym2612"
    },
    {
      "channel": 1,
      "note": 53,
      "start": 26.9469,
      "duration": 0.0175,
      "velocity": 124,
      "chip": "ym2612"
    },
    {
      "channel": 4,
      "note": 88,
      "start": 26.9483,
      "duration": 0.0176,
      "velocity": 94,
      "chip": "ym2612"
    },
    {
      "channel": 3,
      "note": 88,
      "start": 26.9494,
      "duration": 0.0176,
      "velocity": 94,
      "chip": "ym2612"
    },
    {
      "channel": 2,
      "note": 48,
      "start": 26.9506,
      "duration": 0.0176,
      "velocity": 100,
      "chip": "ym2612"
    },
    {
      "channel": 1,
      "note": 52,
      "start": 26.9644,
      "duration": 0.0167,
      "velocity": 124,
      "chip": "ym2612"
    },
    {
      "channel": 4,
      "note": 88,
      "start": 26.9658,
      "duration": 0.0207,
      "velocity": 94,
      "chip": "ym2612"
    },
    {
      "channel": 3,
      "note": 88,
      "start": 26.967,
      "duration": 0.0209,
      "velocity": 94,
      "chip": "ym2612"
    },
    {
      "channel": 2,
      "note": 48,
      "start": 26.9681,
      "duration": 0.0212,
      "velocity": 100,
      "chip": "ym2612"
    },
    {
      "channel": 1,
      "note": 51,
      "start": 26.9811,
      "duration": 0.0155,
      "velocity": 1,
      "chip": "ym2612"
    },
    {
      "channel": 0,
      "note": 78,
      "start": 26.9854,
      "duration": 0.0151,
      "velocity": 127,
      "chip": "ym2612"
    },
    {
      "channel": 4,
      "note": 88,
      "start": 26.9865,
      "duration": 0.0152,
      "velocity": 94,
      "chip": "ym2612"
    },
    {
      "channel": 3,
      "note": 88,
      "start": 26.9879,
      "duration": 0.015,
      "velocity": 94,
      "chip": "ym2612"
    },
    {
      "channel": 2,
      "note": 48,
      "start": 26.9893,
      "duration": 0.0148,
      "velocity": 100,
      "chip": "ym2612"
    },
    {
      "channel": 1,
      "note": 51,
      "start": 26.9988,
      "duration": 0.0123,
      "velocity": 105,
      "chip": "ym2612"
    },
    {
      "channel": 0,
      "note": 76,
      "start": 27.0005,
      "duration": 0.0123,
      "velocity": 127,
      "chip": "ym2612"
    },
    {
      "channel": 4,
      "note": 88,
      "start": 27.0017,
      "duration": 0.0123,
      "velocity": 94,
      "chip": "ym2612"
    },
    {
      "channel": 3,
      "note": 88,
      "start": 27.0029,
      "duration": 0.0122,
      "velocity": 94,
      "chip": "ym2612"
    },
    {
      "channel": 2,
      "note": 48,
      "start": 27.0041,
      "duration": 0.0122,
      "velocity": 100,
      "chip": "ym2612"
    },
    {
      "channel": 1,
      "note": 105,
      "start": 27.0111,
      "duration": 0.0185,
      "velocity": 105,
      "chip": "ym2612"
    },
    {
      "channel": 0,
      "note": 75,
      "start": 27.0128,
      "duration": 0.0185,
      "velocity": 127,
      "chip": "ym2612"
    },
    {
      "channel": 4,
      "note": 88,
      "start": 27.014,
      "duration": 0.0185,
      "velocity": 94,
      "chip": "ym2612"
    },
    {
      "channel": 3,
      "note": 88,
      "start": 27.0151,
      "duration": 0.0185,
      "velocity": 94,
      "chip": "ym2612"
    },
    {
      "channel": 2,
      "note": 48,
      "start": 27.0163,
      "duration": 0.0185,
      "velocity": 100,
      "chip": "ym2612"
    },
    {
      "channel": 1,
      "note": 105,
      "start": 27.0296,
      "duration": 0.0134,
      "velocity": 105,
      "chip": "ym2612"
    },
    {
      "channel": 0,
      "note": 73,
      "start": 27.0313,
      "duration": 0.0161,
      "velocity": 127,
      "chip": "ym2612"
    },
    {
      "channel": 4,
      "note": 88,
      "start": 27.0325,
      "duration": 0.0161,
      "velocity": 94,
      "chip": "ym2612"
    },
    {
      "channel": 3,
      "note": 88,
      "start": 27.0336,
      "duration": 0.0162,
      "velocity": 94,
      "chip": "ym2612"
    },
    {
      "channel": 2,
      "note": 48,
      "start": 27.0348,
      "duration": 0.0161,
      "velocity": 100,
      "chip": "ym2612"
    },
    {
      "channel": 1,
      "note": 105,
      "start": 27.0431,
      "duration": 0.0161,
      "velocity": 105,
      "chip": "ym2612"
    },
    {
      "channel": 0,
      "note": 71,
      "start": 27.0474,
      "duration": 0.0157,
      "velocity": 127,
      "chip": "ym2612"
    },
    {
      "channel": 4,
      "note": 88,
      "start": 27.0486,
      "duration": 0.0157,
      "velocity": 94,
      "chip": "ym2612"
    },
    {
      "channel": 3,
      "note": 88,
      "start": 27.0498,
      "duration": 0.0157,
      "velocity": 94,
      "chip": "ym2612"
    },
    {
      "channel": 2,
      "note": 48,
      "start": 27.0509,
      "duration": 0.0158,
      "velocity": 100,
      "chip": "ym2612"
    },
    {
      "channel": 1,
      "note": 105,
      "start": 27.0591,
      "duration": 0.0161,
      "velocity": 105,
      "chip": "ym2612"
    },
    {
      "channel": 0,
      "note": 70,
      "start": 27.0632,
      "duration": 0.0141,
      "velocity": 127,
      "chip": "ym2612"
    },
    {
      "channel": 4,
      "note": 88,
      "start": 27.0644,
      "duration": 0.014,
      "velocity": 94,
      "chip": "ym2612"
    },
    {
      "channel": 3,
      "note": 88,
      "start": 27.0655,
      "duration": 0.014,
      "velocity": 94,
      "chip": "ym2612"
    },
    {
      "channel": 2,
      "note": 48,
      "start": 27.0666,
      "duration": 0.014,
      "velocity": 100,
      "chip": "ym2612"
    },
    {
      "channel": 1,
      "note": 105,
      "start": 27.0752,
      "duration": 0.0178,
      "velocity": 124,
      "chip": "ym2612"
    },
    {
      "channel": 0,
      "note": 68,
      "start": 27.0772,
      "duration": 0.0221,
      "velocity": 115,
      "chip": "ym2612"
    },
    {
      "channel": 4,
      "note": 88,
      "start": 27.0784,
      "duration": 0.0221,
      "velocity": 94,
      "chip": "ym2612"
    },
    {
      "channel": 3,
      "note": 88,
      "start": 27.0795,
      "duration": 0.0221,
      "velocity": 94,
      "chip": "ym2612"
    },
    {
      "channel": 2,
      "note": 48,
      "start": 27.0807,
      "duration": 0.0223,
      "velocity": 100,
      "chip": "ym2612"
    },
    {
      "channel": 1,
      "note": 64,
      "start": 27.0931,
      "duration": 0.0145,
      "velocity": 124,
      "chip": "ym2612"
    },
    {
      "channel": 0,
      "note": 36,
      "start": 27.0993,
      "duration": 0.01,
      "velocity": 115,
      "chip": "ym2612"
    },
    {
      "channel": 4,
      "note": 88,
      "start": 27.1005,
      "duration": 0.0127,
      "velocity": 94,
      "chip": "ym2612"
    },
    {
      "channel": 3,
      "note": 88,
      "start": 27.1016,
      "duration": 0.0127,
      "velocity": 94,
      "chip": "ym2612"
    },
    {
      "channel": 2,
      "note": 50,
      "start": 27.103,
      "duration": 0.0125,
      "velocity": 100,
      "chip": "ym2612"
    },
    {
      "channel": 1,
      "note": 64,
      "start": 27.1076,
      "duration": 0.016,
      "velocity": 124,
      "chip": "ym2612"
    },
    {
      "channel": 0,
      "note": 36,
      "start": 27.1093,
      "duration": 0.0159,
      "velocity": 115,
      "chip": "ym2612"
    },
    {
      "channel": 4,
      "note": 88,
      "start": 27.1132,
      "duration": 0.0132,
      "velocity": 94,
      "chip": "ym2612"
    },
    {
      "channel": 3,
      "note": 88,
      "start": 27.1144,
      "duration": 0.0155,
      "velocity": 94,
      "chip": "ym2612"
    },
    {
      "channel": 2,
      "note": 50,
      "start": 27.1155,
      "duration": 0.0155,
      "velocity": 100,
      "chip": "ym2612"
    },
    {
      "channel": 1,
      "note": 64,
      "start": 27.1235,
      "duration": 0.0161,
      "velocity": 124,
      "chip": "ym2612"
    },
    {
      "channel": 0,
      "note": 37,
      "start": 27.1252,
      "duration": 0.0161,
      "velocity": 115,
      "chip": "ym2612"
    },
    {
      "channel": 4,
      "note": 88,
      "start": 27.1264,
      "duration": 0.0161,
      "velocity": 94,
      "chip": "ym2612"
    },
    {
      "channel": 3,
      "note": 88,
      "start": 27.1299,
      "duration": 0.0141,
      "velocity": 94,
      "chip": "ym2612"
    },
    {
      "channel": 2,
      "note": 50,
      "start": 27.131,
      "duration": 0.014,
      "velocity": 100,
      "chip": "ym2612"
    },
    {
      "channel": 1,
      "note": 64,
      "start": 27.1396,
      "duration": 0.0161,
      "velocity": 124,
      "chip": "ym2612"
    },
    {
      "channel": 0,
      "note": 37,
      "start": 27.1413,
      "duration": 0.0162,
      "velocity": 115,
      "chip": "ym2612"
    },
    {
      "channel": 4,
      "note": 88,
      "start": 27.1425,
      "duration": 0.0161,
      "velocity": 94,
      "chip": "ym2612"
    },
    {
      "channel": 3,
      "note": 88,
      "start": 27.1439,
      "duration": 0.0158,
      "velocity": 94,
      "chip": "ym2612"
    },
    {
      "channel": 2,
      "note": 50,
      "start": 27.145,
      "duration": 0.0186,
      "velocity": 100,
      "chip": "ym2612"
    },
    {
      "channel": 1,
      "note": 64,
      "start": 27.1557,
      "duration": 0.0161,
      "velocity": 124,
      "chip": "ym2612"
    },
    {
      "channel": 0,
      "note": 38,
      "start": 27.1574,
      "duration": 0.0161,
      "velocity": 115,
      "chip": "ym2612"
    },
    {
      "channel": 4,
      "note": 88,
      "start": 27.1586,
      "duration": 0.0161,
      "velocity": 94,
      "chip": "ym2612"
    },
    {
      "channel": 3,
      "note": 88,
      "start": 27.1597,
      "duration": 0.0161,
      "velocity": 94,
      "chip": "ym2612"
    },
    {
      "channel": 2,
      "note": 50,
      "start": 27.1636,
      "duration": 0.0161,
      "velocity": 100,
      "chip": "ym2612"
    },
    {
      "channel": 1,
      "note": 64,
      "start": 27.1718,
      "duration": 0.0161,
      "velocity": 124,
      "chip": "ym2612"
    },
    {
      "channel": 0,
      "note": 38,
      "start": 27.1735,
      "duration": 0.0161,
      "velocity": 115,
      "chip": "ym2612"
    },
    {
      "channel": 4,
      "note": 88,
      "start": 27.1747,
      "duration": 0.0161,
      "velocity": 94,
      "chip": "ym2612"
    },
    {
      "channel": 3,
      "note": 88,
      "start": 27.1758,
      "duration": 0.0161,
      "velocity": 94,
      "chip": "ym2612"
    },
    {
      "channel": 2,
      "note": 50,
      "start": 27.1797,
      "duration": 0.0134,
      "velocity": 100,
      "chip": "ym2612"
    },
    {
      "channel": 1,
      "note": 64,
      "start": 27.1879,
      "duration": 0.0178,
      "velocity": 105,
      "chip": "ym2612"
    },
    {
      "channel": 0,
      "note": 39,
      "start": 27.1896,
      "duration": 0.0178,
      "velocity": 115,
      "chip": "ym2612"
    },
    {
      "channel": 4,
      "note": 88,
      "start": 27.1908,
      "duration": 0.018,
      "velocity": 94,
      "chip": "ym2612"
    },
    {
      "channel": 3,
      "note": 88,
      "start": 27.1919,
      "duration": 0.0185,
      "velocity": 94,
      "chip": "ym2612"
    },
    {
      "channel": 2,
      "note": 50,
      "start": 27.1931,
      "duration": 0.0187,
      "velocity": 100,
      "chip": "ym2612"
    },
    {
      "channel": 1,
      "note": 105,
      "start": 27.2058,
      "duration": 0.0144,
      "velocity": 105,
      "chip": "ym2612"
    },
    {
      "channel": 0,
      "note": 39,
      "start": 27.2074,
      "duration": 0.0144,
      "velocity": 115,
      "chip": "ym2612"
    },
    {
      "channel": 4,
      "note": 88,
      "start": 27.2088,
      "duration": 0.0143,
      "velocity": 94,
      "chip": "ym2612"
    },
    {
      "channel": 3,
      "note": 88,
      "start": 27.2104,
      "duration": 0.0139,
      "velocity": 94,
      "chip": "ym2612"
    },
    {
      "channel": 2,
      "note": 50,
      "start": 27.2117,
      "duration": 0.0137,
      "velocity": 100,
      "chip": "ym2612"
    },
    {
      "channel": 1,
      "note": 105,
      "start": 27.2202,
      "duration": 0.0161,
      "velocity": 105,
      "chip": "ym2612"
    },
    {
      "channel": 0,
      "note": 40,
      "start": 27.2219,
      "duration": 0.016,
      "velocity": 115,
      "chip": "ym2612"
    },
    {
      "channel": 4,
      "note": 88,
      "start": 27.2231,
      "duration": 0.016,
      "velocity": 94,
      "chip": "ym2612"
    },
    {
      "channel": 3,
      "note": 88,
      "start": 27.2242,
      "duration": 0.016,
      "velocity": 94,
      "chip": "ym2612"
    },
    {
      "channel": 2,
      "note": 50,
      "start": 27.2254,
      "duration": 0.0159,
      "velocity": 100,
      "chip": "ym2612"
    },
    {
      "channel": 1,
      "note": 105,
      "start": 27.2362,
      "duration": 0.0161,
      "velocity": 105,
      "chip": "ym2612"
    },
    {
      "channel": 0,
      "note": 40,
      "start": 27.2379,
      "duration": 0.0161,
      "velocity": 115,
      "chip": "ym2612"
    },
    {
      "channel": 4,
      "note": 88,
      "start": 27.239,
      "duration": 0.0161,
      "velocity": 94,
      "chip": "ym2612"
    },
    {
      "channel": 3,
      "note": 88,
      "start": 27.2402,
      "duration": 0.0161,
      "velocity": 94,
      "chip": "ym2612"
    },
    {
      "channel": 2,
      "note": 50,
      "start": 27.2413,
      "duration": 0.0161,
      "velocity": 100,
      "chip": "ym2612"
    },
    {
      "channel": 1,
      "note": 105,
      "start": 27.2523,
      "duration": 0.0161,
      "velocity": 105,
      "chip": "ym2612"
    },
    {
      "channel": 0,
      "note": 40,
      "start": 27.254,
      "duration": 0.0161,
      "velocity": 115,
      "chip": "ym2612"
    },
    {
      "channel": 4,
      "note": 88,
      "start": 27.2551,
      "duration": 0.0161,
      "velocity": 94,
      "chip": "ym2612"
    },
    {
      "channel": 3,
      "note": 88,
      "start": 27.2563,
      "duration": 0.0162,
      "velocity": 94,
      "chip": "ym2612"
    },
    {
      "channel": 2,
      "note": 50,
      "start": 27.2574,
      "duration": 0.0161,
      "velocity": 100,
      "chip": "ym2612"
    },
    {
      "channel": 1,
      "note": 105,
      "start": 27.2684,
      "duration": 0.0161,
      "velocity": 105,
      "chip": "ym2612"
    },
    {
      "channel": 0,
      "note": 41,
      "start": 27.2701,
      "duration": 0.0161,
      "velocity": 115,
      "chip": "ym2612"
    },
    {
      "channel": 4,
      "note": 88,
      "start": 27.2713,
      "duration": 0.0161,
      "velocity": 94,
      "chip": "ym2612"
    },
    {
      "channel": 3,
      "note": 88,
      "start": 27.2724,
      "duration": 0.0161,
      "velocity": 94,
      "chip": "ym2612"
    },
    {
      "channel": 2,
      "note": 50,
      "start": 27.2735,
      "duration": 0.0161,
      "velocity": 100,
      "chip": "ym2612"
    },
    {
      "channel": 1,
      "note": 105,
      "start": 27.2845,
      "duration": 0.0161,
      "velocity": 105,
      "chip": "ym2612"
    },
    {
      "channel": 0,
      "note": 41,
      "start": 27.2862,
      "duration": 0.0161,
      "velocity": 115,
      "chip": "ym2612"
    },
    {
      "channel": 4,
      "note": 88,
      "start": 27.2874,
      "duration": 0.0161,
      "velocity": 94,
      "chip": "ym2612"
    },
    {
      "channel": 3,
      "note": 88,
      "start": 27.2885,
      "duration": 0.0161,
      "velocity": 94,
      "chip": "ym2612"
    },
    {
      "channel": 2,
      "note": 50,
      "start": 27.2896,
      "duration": 0.0161,
      "velocity": 100,
      "chip": "ym2612"
    },
    {
      "channel": 1,
      "note": 105,
      "start": 27.3006,
      "duration": 0.0178,
      "velocity": 124,
      "chip": "ym2612"
    },
    {
      "channel": 0,
      "note": 42,
      "start": 27.3023,
      "duration": 0.0179,
      "velocity": 115,
      "chip": "ym2612"
    },
    {
      "channel": 4,
      "note": 88,
      "start": 27.3035,
      "duration": 0.0178,
      "velocity": 94,
      "chip": "ym2612"
    },
    {
      "channel": 3,
      "note": 88,
      "start": 27.3046,
      "duration": 0.0181,
      "velocity": 94,
      "chip": "ym2612"
    },
    {
      "channel": 2,
      "note": 50,
      "start": 27.3057,
      "duration": 0.0184,
      "velocity": 100,
      "chip": "ym2612"
    },
    {
      "channel": 1,
      "note": 64,
      "start": 27.3185,
      "duration": 0.0144,
      "velocity": 124,
      "chip": "ym2612"
    },
    {
      "channel": 0,
      "note": 42,
      "start": 27.3202,
      "duration": 0.0144,
      "velocity": 115,
      "chip": "ym2612"
    },
    {
      "channel": 4,
      "note": 88,
      "start": 27.3213,
      "duration": 0.0144,
      "velocity": 94,
      "chip": "ym2612"
    },
    {
      "channel": 3,
      "note": 88,
      "start": 27.3227,
      "duration": 0.0142,
      "velocity": 94,
      "chip": "ym2612"
    },
    {
      "channel": 2,
      "note": 50,
      "start": 27.3241,
      "duration": 0.014,
      "velocity": 100,
      "chip": "ym2612"
    },
    {
      "channel": 1,
      "note": 64,
      "start": 27.3329,
      "duration": 0.016,
      "velocity": 124,
      "chip": "ym2612"
    },
    {
      "channel": 0,
      "note": 43,
      "start": 27.3346,
      "duration": 0.016,
      "velocity": 115,
      "chip": "ym2612"
    },
    {
      "channel": 4,
      "note": 88,
      "start": 27.3357,
      "duration": 0.016,
      "velocity": 94,
      "chip": "ym2612"
    },
    {
      "channel": 3,
      "note": 88,
      "start": 27.3369,
      "duration": 0.016,
      "velocity": 94,
      "chip": "ym2612"
    },
    {
      "channel": 2,
      "note": 50,
      "start": 27.3382,
      "duration": 0.0159,
      "velocity": 100,
      "chip": "ym2612"
    },
    {
      "channel": 1,
      "note": 64,
      "start": 27.349,
      "duration": 0.0161,
      "velocity": 124,
      "chip": "ym2612"
    },
    {
      "channel": 0,
      "note": 43,
      "start": 27.3506,
      "duration": 0.0161,
      "velocity": 115,
      "chip": "ym2612"
    },
    {
      "channel": 4,
      "note": 88,
      "start": 27.3518,
      "duration": 0.0161,
      "velocity": 94,
      "chip": "ym2612"
    },
    {
      "channel": 3,
      "note": 88,
      "start": 27.3529,
      "duration": 0.0161,
      "velocity": 94,
      "chip": "ym2612"
    },
    {
      "channel": 2,
      "note": 50,
      "start": 27.3541,
      "duration": 0.0161,
      "velocity": 100,
      "chip": "ym2612"
    },
    {
      "channel": 1,
      "note": 64,
      "start": 27.3651,
      "duration": 0.0161,
      "velocity": 124,
      "chip": "ym2612"
    },
    {
      "channel": 0,
      "note": 44,
      "start": 27.3667,
      "duration": 0.0161,
      "velocity": 115,
      "chip": "ym2612"
    },
    {
      "channel": 4,
      "note": 88,
      "start": 27.3679,
      "duration": 0.0161,
      "velocity": 94,
      "chip": "ym2612"
    },
    {
      "channel": 3,
      "note": 88,
      "start": 27.369,
      "duration": 0.0162,
      "velocity": 94,
      "chip": "ym2612"
    },
    {
      "channel": 2,
      "note": 50,
      "start": 27.3702,
      "duration": 0.0161,
      "velocity": 100,
      "chip": "ym2612"
    },
    {
      "channel": 1,
      "note": 64,
      "start": 27.3812,
      "duration": 0.0161,
      "velocity": 124,
      "chip": "ym2612"
    },
    {
      "channel": 0,
      "note": 44,
      "start": 27.3828,
      "duration": 0.0161,
      "velocity": 115,
      "chip": "ym2612"
    },
    {
      "channel": 4,
      "note": 88,
      "start": 27.384,
      "duration": 0.0161,
      "velocity": 94,
      "chip": "ym2612"
    },
    {
      "channel": 3,
      "note": 88,
      "start": 27.3852,
      "duration": 0.0161,
      "velocity": 94,
      "chip": "ym2612"
    },
    {
      "channel": 2,
      "note": 50,
      "start": 27.3862,
      "duration": 0.0161,
      "velocity": 100,
      "chip": "ym2612"
    },
    {
      "channel": 1,
      "note": 64,
      "start": 27.3973,
      "duration": 0.0161,
      "velocity": 124,
      "chip": "ym2612"
    },
    {
      "channel": 0,
      "note": 44,
      "start": 27.3989,
      "duration": 0.0161,
      "velocity": 115,
      "chip": "ym2612"
    },
    {
      "channel": 4,
      "note": 88,
      "start": 27.4001,
      "duration": 0.0161,
      "velocity": 94,
      "chip": "ym2612"
    },
    {
      "channel": 3,
      "note": 88,
      "start": 27.4013,
      "duration": 0.0161,
      "velocity": 94,
      "chip": "ym2612"
    },
    {
      "channel": 2,
      "note": 50,
      "start": 27.4023,
      "duration": 0.0161,
      "velocity": 100,
      "chip": "ym2612"
    },
    {
      "channel": 1,
      "note": 64,
      "start": 27.4134,
      "duration": 0.019,
      "velocity": 105,
      "chip": "ym2612"
    },
    {
      "channel": 0,
      "note": 45,
      "start": 27.415,
      "duration": 0.019,
      "velocity": 115,
      "chip": "ym2612"
    },
    {
      "channel": 4,
      "note": 88,
      "start": 27.4162,
      "duration": 0.019,
      "velocity": 94,
      "chip": "ym2612"
    },
    {
      "channel": 3,
      "note": 88,
      "start": 27.4173,
      "duration": 0.019,
      "velocity": 94,
      "chip": "ym2612"
    },
    {
      "channel": 2,
      "note": 50,
      "start": 27.4184,
      "duration": 0.0193,
      "velocity": 100,
      "chip": "ym2612"
    },
    {
      "channel": 1,
      "note": 105,
      "start": 27.4324,
      "duration": 0.015,
      "velocity": 105,
      "chip": "ym2612"
    },
    {
      "channel": 0,
      "note": 45,
      "start": 27.434,
      "duration": 0.015,
      "velocity": 115,
      "chip": "ym2612"
    },
    {
      "channel": 4,
      "note": 88,
      "start": 27.4352,
      "duration": 0.015,
      "velocity": 94,
      "chip": "ym2612"
    },
    {
      "channel": 3,
      "note": 88,
      "start": 27.4363,
      "duration": 0.015,
      "velocity": 94,
      "chip": "ym2612"
    },
    {
      "channel": 2,
      "note": 50,
      "start": 27.4378,
      "duration": 0.0148,
      "velocity": 100,
      "chip": "ym2612"
    },
    {
      "channel": 1,
      "note": 105,
      "start": 27.4473,
      "duration": 0.0163,
      "velocity": 105,
      "chip": "ym2612"
    },
    {
      "channel": 0,
      "note": 46,
      "start": 27.449,
      "duration": 0.0162,
      "velocity": 115,
      "chip": "ym2612"
    },
    {
      "channel": 4,
      "note": 88,
      "start": 27.4502,
      "duration": 0.0162,
      "velocity": 94,
      "chip": "ym2612"
    },
    {
      "channel": 3,
      "note": 88,
      "start": 27.4513,
      "duration": 0.0162,
      "velocity": 94,
      "chip": "ym2612"
    },
    {
      "channel": 2,
      "note": 50,
      "start": 27.4525,
      "duration": 0.0161,
      "velocity": 100,
      "chip": "ym2612"
    },
    {
      "channel": 1,
      "note": 105,
      "start": 27.4636,
      "duration": 0.0144,
      "velocity": 105,
      "chip": "ym2612"
    },
    {
      "channel": 0,
      "note": 46,
      "start": 27.4653,
      "duration": 0.0145,
      "velocity": 115,
      "chip": "ym2612"
    },
    {
      "channel": 4,
      "note": 88,
      "start": 27.4664,
      "duration": 0.0145,
      "velocity": 94,
      "chip": "ym2612"
    },
    {
      "channel": 3,
      "note": 88,
      "start": 27.4676,
      "duration": 0.0145,
      "velocity": 94,
      "chip": "ym2612"
    },
    {
      "channel": 2,
      "note": 50,
      "start": 27.4687,
      "duration": 0.0145,
      "velocity": 100,
      "chip": "ym2612"
    },
    {
      "channel": 1,
      "note": 105,
      "start": 27.478,
      "duration": 0.0186,
      "velocity": 105,
      "chip": "ym2612"
    },
    {
      "channel": 0,
      "note": 47,
      "start": 27.4798,
      "duration": 0.0185,
      "velocity": 115,
      "chip": "ym2612"
    },
    {
      "channel": 4,
      "note": 88,
      "start": 27.4809,
      "duration": 0.0185,
      "velocity": 94,
      "chip": "ym2612"
    },
    {
      "channel": 3,
      "note": 88,
      "start": 27.482,
      "duration": 0.0185,
      "velocity": 94,
      "chip": "ym2612"
    },
    {
      "channel": 2,
      "note": 50,
      "start": 27.4832,
      "duration": 0.0185,
      "velocity": 100,
      "chip": "ym2612"
    },
    {
      "channel": 1,
      "note": 105,
      "start": 27.4966,
      "duration": 0.0161,
      "velocity": 105,
      "chip": "ym2612"
    },
    {
      "channel": 0,
      "note": 47,
      "start": 27.4983,
      "duration": 0.0161,
      "velocity": 115,
      "chip": "ym2612"
    },
    {
      "channel": 4,
      "note": 88,
      "start": 27.4994,
      "duration": 0.0161,
      "velocity": 94,
      "chip": "ym2612"
    },
    {
      "channel": 3,
      "note": 88,
      "start": 27.5006,
      "duration": 0.0161,
      "velocity": 94,
      "chip": "ym2612"
    },
    {
      "channel": 2,
      "note": 50,
      "start": 27.5017,
      "duration": 0.0161,
      "velocity": 100,
      "chip": "ym2612"
    },
    {
      "channel": 1,
      "note": 105,
      "start": 27.5127,
      "duration": 0.0134,
      "velocity": 105,
      "chip": "ym2612"
    },
    {
      "channel": 0,
      "note": 47,
      "start": 27.5144,
      "duration": 0.0158,
      "velocity": 115,
      "chip": "ym2612"
    },
    {
      "channel": 4,
      "note": 88,
      "start": 27.5155,
      "duration": 0.0158,
      "velocity": 94,
      "chip": "ym2612"
    },
    {
      "channel": 3,
      "note": 88,
      "start": 27.5166,
      "duration": 0.0158,
      "velocity": 94,
      "chip": "ym2612"
    },
    {
      "channel": 2,
      "note": 50,
      "start": 27.5178,
      "duration": 0.0158,
      "velocity": 100,
      "chip": "ym2612"
    },
    {
      "channel": 1,
      "note": 105,
      "start": 27.5261,
      "duration": 0.0186,
      "velocity": 124,
      "chip": "ym2612"
    },
    {
      "channel": 0,
      "note": 48,
      "start": 27.5301,
      "duration": 0.0171,
      "velocity": 115,
      "chip": "ym2612"
    },
    {
      "channel": 4,
      "note": 88,
      "start": 27.5313,
      "duration": 0.017,
      "velocity": 94,
      "chip": "ym2612"
    },
    {
      "channel": 3,
      "note": 88,
      "start": 27.5324,
      "duration": 0.0171,
      "velocity": 94,
      "chip": "ym2612"
    },
    {
      "channel": 2,
      "note": 50,
      "start": 27.5336,
      "duration": 0.0173,
      "velocity": 100,
      "chip": "ym2612"
    },
    {
      "channel": 1,
      "note": 78,
      "start": 27.5448,
      "duration": 0.0141,
      "velocity": 124,
      "chip": "ym2612"
    },
    {
      "channel": 0,
      "note": 48,
      "start": 27.5472,
      "duration": 0.0163,
      "velocity": 115,
      "chip": "ym2612"
    },
    {
      "channel": 4,
      "note": 88,
      "start": 27.5483,
      "duration": 0.0163,
      "velocity": 94,
      "chip": "ym2612"
    },
    {
      "channel": 3,
      "note": 88,
      "start": 27.5495,
      "duration": 0.0163,
      "velocity": 94,
      "chip": "ym2612"
    },
    {
      "channel": 2,
      "note": 50,
      "start": 27.5509,
      "duration": 0.016,
      "velocity": 100,
      "chip": "ym2612"
    },
    {
      "channel": 1,
      "note": 76,
      "start": 27.5588,
      "duration": 0.016,
      "velocity": 124,
      "chip": "ym2612"
    },
    {
      "channel": 0,
      "note": 49,
      "start": 27.5635,
      "duration": 0.0125,
      "velocity": 1,
      "chip": "ym2612"
    },
    {
      "channel": 4,
      "note": 88,
      "start": 27.5646,
      "duration": 0.0152,
      "velocity": 94,
      "chip": "ym2612"
    },
    {
      "channel": 3,
      "note": 88,
      "start": 27.5658,
      "duration": 0.0152,
      "velocity": 94,
      "chip": "ym2612"
    },
    {
      "channel": 2,
      "note": 50,
      "start": 27.567,
      "duration": 0.0151,
      "velocity": 100,
      "chip": "ym2612"
    },
    {
      "channel": 1,
      "note": 75,
      "start": 27.5749,
      "duration": 0.0161,
      "velocity": 124,
      "chip": "ym2612"
    },
    {
      "channel": 4,
      "note": 88,
      "start": 27.5798,
      "duration": 0.0125,
      "velocity": 94,
      "chip": "ym2612"
    },
    {
      "channel": 3,
      "note": 88,
      "start": 27.581,
      "duration": 0.0149,
      "velocity": 94,
      "chip": "ym2612"
    },
    {
      "channel": 2,
      "note": 50,
      "start": 27.5821,
      "duration": 0.0149,
      "velocity": 100,
      "chip": "ym2612"
    },
    {
      "channel": 1,
      "note": 74,
      "start": 27.591,
      "duration": 0.0161,
      "velocity": 124,
      "chip": "ym2612"
    },
    {
      "channel": 4,
      "note": 88,
      "start": 27.5924,
      "duration": 0.0161,
      "velocity": 94,
      "chip": "ym2612"
    },
    {
      "channel": 3,
      "note": 88,
      "start": 27.5959,
      "duration": 0.0137,
      "velocity": 94,
      "chip": "ym2612"
    },
    {
      "channel": 2,
      "note": 50,
      "start": 27.597,
      "duration": 0.0141,
      "velocity": 100,
      "chip": "ym2612"
    },
    {
      "channel": 1,
      "note": 72,
      "start": 27.6071,
      "duration": 0.0161,
      "velocity": 124,
      "chip": "ym2612"
    },
    {
      "channel": 4,
      "note": 88,
      "start": 27.6085,
      "duration": 0.0161,
      "velocity": 94,
      "chip": "ym2612"
    },
    {
      "channel": 3,
      "note": 88,
      "start": 27.6096,
      "duration": 0.0161,
      "velocity": 94,
      "chip": "ym2612"
    },
    {
      "channel": 2,
      "note": 50,
      "start": 27.6111,
      "duration": 0.0185,
      "velocity": 100,
      "chip": "ym2612"
    },
    {
      "channel": 1,
      "note": 71,
      "start": 27.6232,
      "duration": 0.0161,
      "velocity": 124,
      "chip": "ym2612"
    },
    {
      "channel": 4,
      "note": 88,
      "start": 27.6245,
      "duration": 0.0161,
      "velocity": 94,
      "chip": "ym2612"
    },
    {
      "channel": 3,
      "note": 88,
      "start": 27.6257,
      "duration": 0.0161,
      "velocity": 94,
      "chip": "ym2612"
    },
    {
      "channel": 2,
      "note": 50,
      "start": 27.6296,
      "duration": 0.0134,
      "velocity": 100,
      "chip": "ym2612"
    },
    {
      "channel": 1,
      "note": 70,
      "start": 27.6392,
      "duration": 0.0161,
      "velocity": 124,
      "chip": "ym2612"
    },
    {
      "channel": 4,
      "note": 88,
      "start": 27.6406,
      "duration": 0.0168,
      "velocity": 94,
      "chip": "ym2612"
    },
    {
      "channel": 3,
      "note": 88,
      "start": 27.6418,
      "duration": 0.0169,
      "velocity": 94,
      "chip": "ym2612"
    },
    {
      "channel": 2,
      "note": 50,
      "start": 27.6429,
      "duration": 0.0195,
      "velocity": 100,
      "chip": "ym2612"
    },
    {
      "channel": 1,
      "note": 69,
      "start": 27.6553,
      "duration": 0.0161,
      "velocity": 124,
      "chip": "ym2612"
    },
    {
      "channel": 4,
      "note": 86,
      "start": 27.6576,
      "duration": 0.0154,
      "velocity": 94,
      "chip": "ym2612"
    },
    {
      "channel": 3,
      "note": 88,
      "start": 27.6587,
      "duration": 0.0154,
      "velocity": 94,
      "chip": "ym2612"
    },
    {
      "channel": 2,
      "note": 50,
      "start": 27.6625,
      "duration": 0.0128,
      "velocity": 100,
      "chip": "ym2612"
    },
    {
      "channel": 1,
      "note": 68,
      "start": 27.6714,
      "duration": 0.0161,
      "velocity": 124,
      "chip": "ym2612"
    },
    {
      "channel": 4,
      "note": 86,
      "start": 27.6729,
      "duration": 0.016,
      "velocity": 94,
      "chip": "ym2612"
    },
    {
      "channel": 3,
      "note": 88,
      "start": 27.6741,
      "duration": 0.016,
      "velocity": 94,
      "chip": "ym2612"
    },
    {
      "channel": 2,
      "note": 50,
      "start": 27.6753,
      "duration": 0.0159,
      "velocity": 100,
      "chip": "ym2612"
    },
    {
      "channel": 1,
      "note": 66,
      "start": 27.6876,
      "duration": 0.0161,
      "velocity": 124,
      "chip": "ym2612"
    },
    {
      "channel": 4,
      "note": 86,
      "start": 27.6889,
      "duration": 0.0161,
      "velocity": 94,
      "chip": "ym2612"
    },
    {
      "channel": 3,
      "note": 88,
      "start": 27.6901,
      "duration": 0.0161,
      "velocity": 94,
      "chip": "ym2612"
    },
    {
      "channel": 2,
      "note": 50,
      "start": 27.6912,
      "duration": 0.0161,
      "velocity": 100,
      "chip": "ym2612"
    },
    {
      "channel": 1,
      "note": 65,
      "start": 27.7037,
      "duration": 0.0161,
      "velocity": 124,
      "chip": "ym2612"
    },
    {
      "channel": 4,
      "note": 86,
      "start": 27.705,
      "duration": 0.0162,
      "velocity": 94,
      "chip": "ym2612"
    },
    {
      "channel": 3,
      "note": 88,
      "start": 27.7062,
      "duration": 0.0161,
      "velocity": 94,
      "chip": "ym2612"
    },
    {
      "channel": 2,
      "note": 50,
      "start": 27.7073,
      "duration": 0.0162,
      "velocity": 100,
      "chip": "ym2612"
    },
    {
      "channel": 1,
      "note": 64,
      "start": 27.7198,
      "duration": 0.0161,
      "velocity": 124,
      "chip": "ym2612"
    },
    {
      "channel": 4,
      "note": 86,
      "start": 27.7212,
      "duration": 0.0161,
      "velocity": 94,
      "chip": "ym2612"
    },
    {
      "channel": 3,
      "note": 88,
      "start": 27.7223,
      "duration": 0.0161,
      "velocity": 94,
      "chip": "ym2612"
    },
    {
      "channel": 2,
      "note": 50,
      "start": 27.7235,
      "duration": 0.0161,
      "velocity": 100,
      "chip": "ym2612"
    },
    {
      "channel": 1,
      "note": 62,
      "start": 27.7359,
      "duration": 0.0161,
      "velocity": 124,
      "chip": "ym2612"
    },
    {
      "channel": 4,
      "note": 86,
      "start": 27.7373,
      "duration": 0.0161,
      "velocity": 94,
      "chip": "ym2612"
    },
    {
      "channel": 3,
      "note": 88,
      "start": 27.7384,
      "duration": 0.0161,
      "velocity": 94,
      "chip": "ym2612"
    },
    {
      "channel": 2,
      "note": 50,
      "start": 27.7395,
      "duration": 0.0161,
      "velocity": 100,
      "chip": "ym2612"
    },
    {
      "channel": 1,
      "note": 61,
      "start": 27.752,
      "duration": 0.0161,
      "velocity": 124,
      "chip": "ym2612"
    },
    {
      "channel": 4,
      "note": 86,
      "start": 27.7534,
      "duration": 0.0166,
      "velocity": 94,
      "chip": "ym2612"
    },
    {
      "channel": 3,
      "note": 88,
      "start": 27.7545,
      "duration": 0.0168,
      "velocity": 94,
      "chip": "ym2612"
    },
    {
      "channel": 2,
      "note": 50,
      "start": 27.7556,
      "duration": 0.0171,
      "velocity": 100,
      "chip": "ym2612"
    },
    {
      "channel": 1,
      "note": 60,
      "start": 27.768,
      "duration": 0.0161,
      "velocity": 124,
      "chip": "ym2612"
    },
    {
      "channel": 4,
      "note": 86,
      "start": 27.77,
      "duration": 0.0156,
      "velocity": 94,
      "chip": "ym2612"
    },
    {
      "channel": 3,
      "note": 86,
      "start": 27.7714,
      "duration": 0.0155,
      "velocity": 94,
      "chip": "ym2612"
    },
    {
      "channel": 2,
      "note": 50,
      "start": 27.7728,
      "duration": 0.0151,
      "velocity": 100,
      "chip": "ym2612"
    },
    {
      "channel": 1,
      "note": 59,
      "start": 27.7841,
      "duration": 0.0161,
      "velocity": 124,
      "chip": "ym2612"
    },
    {
      "channel": 4,
      "note": 86,
      "start": 27.7856,
      "duration": 0.016,
      "velocity": 94,
      "chip": "ym2612"
    },
    {
      "channel": 3,
      "note": 86,
      "start": 27.7868,
      "duration": 0.016,
      "velocity": 94,
      "chip": "ym2612"
    },
    {
      "channel": 2,
      "note": 50,
      "start": 27.788,
      "duration": 0.016,
      "velocity": 100,
      "chip": "ym2612"
    },
    {
      "channel": 1,
      "note": 57,
      "start": 27.8002,
      "duration": 0.0161,
      "velocity": 124,
      "chip": "ym2612"
    },
    {
      "channel": 4,
      "note": 86,
      "start": 27.8016,
      "duration": 0.0161,
      "velocity": 94,
      "chip": "ym2612"
    },
    {
      "channel": 3,
      "note": 86,
      "start": 27.8028,
      "duration": 0.0161,
      "velocity": 94,
      "chip": "ym2612"
    },
    {
      "channel": 2,
      "note": 50,
      "start": 27.8039,
      "duration": 0.0161,
      "velocity": 100,
      "chip": "ym2612"
    },
    {
      "channel": 1,
      "note": 56,
      "start": 27.8163,
      "duration": 0.0162,
      "velocity": 124,
      "chip": "ym2612"
    },
    {
      "channel": 4,
      "note": 86,
      "start": 27.8177,
      "duration": 0.0161,
      "velocity": 94,
      "chip": "ym2612"
    },
    {
      "channel": 3,
      "note": 86,
      "start": 27.8189,
      "duration": 0.0161,
      "velocity": 94,
      "chip": "ym2612"
    },
    {
      "channel": 2,
      "note": 50,
      "start": 27.82,
      "duration": 0.0161,
      "velocity": 100,
      "chip": "ym2612"
    },
    {
      "channel": 1,
      "note": 55,
      "start": 27.8325,
      "duration": 0.0161,
      "velocity": 124,
      "chip": "ym2612"
    },
    {
      "channel": 4,
      "note": 86,
      "start": 27.8338,
      "duration": 0.0161,
      "velocity": 94,
      "chip": "ym2612"
    },
    {
      "channel": 3,
      "note": 86,
      "start": 27.835,
      "duration": 0.0162,
      "velocity": 94,
      "chip": "ym2612"
    },
    {
      "channel": 2,
      "note": 50,
      "start": 27.8361,
      "duration": 0.0161,
      "velocity": 100,
      "chip": "ym2612"
    },
    {
      "channel": 1,
      "note": 53,
      "start": 27.8486,
      "duration": 0.0161,
      "velocity": 124,
      "chip": "ym2612"
    },
    {
      "channel": 4,
      "note": 86,
      "start": 27.85,
      "duration": 0.0161,
      "velocity": 94,
      "chip": "ym2612"
    },
    {
      "channel": 3,
      "note": 86,
      "start": 27.8511,
      "duration": 0.0161,
      "velocity": 94,
      "chip": "ym2612"
    },
    {
      "channel": 2,
      "note": 50,
      "start": 27.8523,
      "duration": 0.0161,
      "velocity": 100,
      "chip": "ym2612"
    },
    {
      "channel": 1,
      "note": 52,
      "start": 27.8647,
      "duration": 0.0161,
      "velocity": 124,
      "chip": "ym2612"
    },
    {
      "channel": 4,
      "note": 86,
      "start": 27.8661,
      "duration": 0.0203,
      "velocity": 94,
      "chip": "ym2612"
    },
    {
      "channel": 3,
      "note": 86,
      "start": 27.8672,
      "duration": 0.0203,
      "velocity": 94,
      "chip": "ym2612"
    },
    {
      "channel": 2,
      "note": 50,
      "start": 27.8684,
      "duration": 0.0205,
      "velocity": 100,
      "chip": "ym2612"
    },
    {
      "channel": 1,
      "note": 51,
      "start": 27.8808,
      "duration": 0.0162,
      "velocity": 1,
      "chip": "ym2612"
    },
    {
      "channel": 0,
      "note": 36,
      "start": 27.885,
      "duration": 0.0159,
      "velocity": 115,
      "chip": "ym2612"
    },
    {
      "channel": 4,
      "note": 86,
      "start": 27.8864,
      "duration": 0.0158,
      "velocity": 94,
      "chip": "ym2612"
    },
    {
      "channel": 3,
      "note": 86,
      "start": 27.8875,
      "duration": 0.0158,
      "velocity": 94,
      "chip": "ym2612"
    },
    {
      "channel": 2,
      "note": 50,
      "start": 27.889,
      "duration": 0.0155,
      "velocity": 100,
      "chip": "ym2612"
    },
    {
      "channel": 1,
      "note": 51,
      "start": 27.8992,
      "duration": 0.0148,
      "velocity": 105,
      "chip": "ym2612"
    },
    {
      "channel": 0,
      "note": 36,
      "start": 27.9009,
      "duration": 0.0148,
      "velocity": 115,
      "chip": "ym2612"
    },
    {
      "channel": 4,
      "note": 86,
      "start": 27.9022,
      "duration": 0.0146,
      "velocity": 94,
      "chip": "ym2612"
    },
    {
      "channel": 3,
      "note": 86,
      "start": 27.9033,
      "duration": 0.0146,
      "velocity": 94,
      "chip": "ym2612"
    },
    {
      "channel": 2,
      "note": 50,
      "start": 27.9044,
      "duration": 0.0146,
      "velocity": 100,
      "chip": "ym2612"
    },
    {
      "channel": 1,
      "note": 105,
      "start": 27.914,
      "duration": 0.0163,
      "velocity": 105,
      "chip": "ym2612"
    },
    {
      "channel": 0,
      "note": 37,
      "start": 27.9156,
      "duration": 0.0163,
      "velocity": 115,
      "chip": "ym2612"
    },
    {
      "channel": 4,
      "note": 86,
      "start": 27.9168,
      "duration": 0.0163,
      "velocity": 94,
      "chip": "ym2612"
    },
    {
      "channel": 3,
      "note": 86,
      "start": 27.9179,
      "duration": 0.0163,
      "velocity": 94,
      "chip": "ym2612"
    },
    {
      "channel": 2,
      "note": 50,
      "start": 27.9191,
      "duration": 0.0163,
      "velocity": 100,
      "chip": "ym2612"
    },
    {
      "channel": 1,
      "note": 105,
      "start": 27.9303,
      "duration": 0.0146,
      "velocity": 105,
      "chip": "ym2612"
    },
    {
      "channel": 0,
      "note": 37,
      "start": 27.9319,
      "duration": 0.0146,
      "velocity": 115,
      "chip": "ym2612"
    },
    {
      "channel": 4,
      "note": 86,
      "start": 27.9331,
      "duration": 0.0147,
      "velocity": 94,
      "chip": "ym2612"
    },
    {
      "channel": 3,
      "note": 86,
      "start": 27.9342,
      "duration": 0.0147,
      "velocity": 94,
      "chip": "ym2612"
    },
    {
      "channel": 2,
      "note": 50,
      "start": 27.9354,
      "duration": 0.0146,
      "velocity": 100,
      "chip": "ym2612"
    },
    {
      "channel": 1,
      "note": 105,
      "start": 27.9449,
      "duration": 0.0186,
      "velocity": 105,
      "chip": "ym2612"
    },
    {
      "channel": 0,
      "note": 38,
      "start": 27.9466,
      "duration": 0.0186,
      "velocity": 115,
      "chip": "ym2612"
    },
    {
      "channel": 4,
      "note": 86,
      "start": 27.9478,
      "duration": 0.0186,
      "velocity": 94,
      "chip": "ym2612"
    },
    {
      "channel": 3,
      "note": 86,
      "start": 27.9489,
      "duration": 0.0186,
      "velocity": 94,
      "chip": "ym2612"
    },
    {
      "channel": 2,
      "note": 50,
      "start": 27.95,
      "duration": 0.0186,
      "velocity": 100,
      "chip": "ym2612"
    },
    {
      "channel": 1,
      "note": 105,
      "start": 27.9635,
      "duration": 0.0161,
      "velocity": 105,
      "chip": "ym2612"
    },
    {
      "channel": 0,
      "note": 38,
      "start": 27.9652,
      "duration": 0.0161,
      "velocity": 115,
      "chip": "ym2612"
    },
    {
      "channel": 4,
      "note": 86,
      "start": 27.9663,
      "duration": 0.0162,
      "velocity": 94,
      "chip": "ym2612"
    },
    {
      "channel": 3,
      "note": 86,
      "start": 27.9675,
      "duration": 0.0161,
      "velocity": 94,
      "chip": "ym2612"
    },
    {
      "channel": 2,
      "note": 50,
      "start": 27.9686,
      "duration": 0.0161,
      "velocity": 100,
      "chip": "ym2612"
    },
    {
      "channel": 1,
      "note": 105,
      "start": 27.9796,
      "duration": 0.0174,
      "velocity": 124,
      "chip": "ym2612"
    },
    {
      "channel": 0,
      "note": 39,
      "start": 27.9813,
      "duration": 0.0193,
      "velocity": 115,
      "chip": "ym2612"
    },
    {
      "channel": 4,
      "note": 86,
      "start": 27.9825,
      "duration": 0.0193,
      "velocity": 94,
      "chip": "ym2612"
    },
    {
      "channel": 3,
      "note": 86,
      "start": 27.9836,
      "duration": 0.0195,
      "velocity": 94,
      "chip": "ym2612"
    },
    {
      "channel": 2,
      "note": 50,
      "start": 27.9847,
      "duration": 0.0198,
      "velocity": 100,
      "chip": "ym2612"
    },
    {
      "channel": 1,
      "note": 64,
      "start": 27.9971,
      "duration": 0.012,
      "velocity": 124,
      "chip": "ym2612"
    },
    {
      "channel": 0,
      "note": 36,
      "start": 28.0006,
      "duration": 0.0106,
      "velocity": 115,
      "chip": "ym2612"
    },
    {
      "channel": 4,
      "note": 86,
      "start": 28.0018,
      "duration": 0.0106,
      "velocity": 94,
      "chip": "ym2612"
    },
    {
      "channel": 3,
      "note": 86,
      "start": 28.0032,
      "duration": 0.0104,
      "velocity": 94,
      "chip": "ym2612"
    },
    {
      "channel": 2,
      "note": 50,
      "start": 28.0046,
      "duration": 0.0101,
      "velocity": 100,
      "chip": "ym2612"
    },
    {
      "channel": 1,
      "note": 64,
      "start": 28.0091,
      "duration": 0.016,
      "velocity": 124,
      "chip": "ym2612"
    },
    {
      "channel": 0,
      "note": 36,
      "start": 28.0112,
      "duration": 0.0185,
      "velocity": 115,
      "chip": "ym2612"
    },
    {
      "channel": 4,
      "note": 86,
      "start": 28.0124,
      "duration": 0.0184,
      "velocity": 94,
      "chip": "ym2612"
    },
    {
      "channel": 3,
      "note": 86,
      "start": 28.0136,
      "duration": 0.0183,
      "velocity": 94,
      "chip": "ym2612"
    },
    {
      "channel": 2,
      "note": 50,
      "start": 28.0147,
      "duration": 0.0183,
      "velocity": 100,
      "chip": "ym2612"
    },
    {
      "channel": 1,
      "note": 64,
      "start": 28.0252,
      "duration": 0.0161,
      "velocity": 124,
      "chip": "ym2612"
    },
    {
      "channel": 0,
      "note": 37,
      "start": 28.0296,
      "duration": 0.0134,
      "velocity": 115,
      "chip": "ym2612"
    },
    {
      "channel": 4,
      "note": 86,
      "start": 28.0308,
      "duration": 0.0161,
      "velocity": 94,
      "chip": "ym2612"
    },
    {
      "channel": 3,
      "note": 86,
      "start": 28.0319,
      "duration": 0.0161,
      "velocity": 94,
      "chip": "ym2612"
    },
    {
      "channel": 2,
      "note": 50,
      "start": 28.0331,
      "duration": 0.0161,
      "velocity": 100,
      "chip": "ym2612"
    },
    {
      "channel": 1,
      "note": 64,
      "start": 28.0413,
      "duration": 0.0161,
      "velocity": 124,
      "chip": "ym2612"
    },
    {
      "channel": 0,
      "note": 37,
      "start": 28.043,
      "duration": 0.0161,
      "velocity": 115,
      "chip": "ym2612"
    },
    {
      "channel": 4,
      "note": 86,
      "start": 28.0469,
      "duration": 0.0158,
      "velocity": 94,
      "chip": "ym2612"
    },
    {
      "channel": 3,
      "note": 86,
      "start": 28.048,
      "duration": 0.0158,
      "velocity": 94,
      "chip": "ym2612"
    },
    {
      "channel": 2,
      "note": 50,
      "start": 28.0492,
      "duration": 0.0157,
      "velocity": 100,
      "chip": "ym2612"
    },
    {
      "channel": 1,
      "note": 64,
      "start": 28.0574,
      "duration": 0.0161,
      "velocity": 124,
      "chip": "ym2612"
    },
    {
      "channel": 0,
      "note": 38,
      "start": 28.0591,
      "duration": 0.0161,
      "velocity": 115,
      "chip": "ym2612"
    },
    {
      "channel": 4,
      "note": 86,
      "start": 28.0627,
      "duration": 0.0137,
      "velocity": 94,
      "chip": "ym2612"
    },
    {
      "channel": 3,
      "note": 86,
      "start": 28.0638,
      "duration": 0.014,
      "velocity": 94,
      "chip": "ym2612"
    },
    {
      "channel": 2,
      "note": 50,
      "start": 28.0649,
      "duration": 0.0141,
      "velocity": 100,
      "chip": "ym2612"
    },
    {
      "channel": 1,
      "note": 64,
      "start": 28.0735,
      "duration": 0.0161,
      "velocity": 124,
      "chip": "ym2612"
    },
    {
      "channel": 0,
      "note": 38,
      "start": 28.0752,
      "duration": 0.0161,
      "velocity": 115,
      "chip": "ym2612"
    },
    {
      "channel": 4,
      "note": 86,
      "start": 28.0763,
      "duration": 0.0161,
      "velocity": 94,
      "chip": "ym2612"
    },
    {
      "channel": 3,
      "note": 86,
      "start": 28.0778,
      "duration": 0.0186,
      "velocity": 94,
      "chip": "ym2612"
    },
    {
      "channel": 2,
      "note": 50,
      "start": 28.0789,
      "duration": 0.0185,
      "velocity": 100,
      "chip": "ym2612"
    },
    {
      "channel": 1,
      "note": 64,
      "start": 28.0896,
      "duration": 0.0178,
      "velocity": 105,
      "chip": "ym2612"
    },
    {
      "channel": 0,
      "note": 39,
      "start": 28.0913,
      "duration": 0.0178,
      "velocity": 115,
      "chip": "ym2612"
    },
    {
      "channel": 4,
      "note": 86,
      "start": 28.0924,
      "duration": 0.0206,
      "velocity": 94,
      "chip": "ym2612"
    },
    {
      "channel": 3,
      "note": 86,
      "start": 28.0963,
      "duration": 0.0178,
      "velocity": 94,
      "chip": "ym2612"
    },
    {
      "channel": 2,
      "note": 50,
      "start": 28.0974,
      "duration": 0.0181,
      "velocity": 100,
      "chip": "ym2612"
    },
    {
      "channel": 1,
      "note": 105,
      "start": 28.1074,
      "duration": 0.0144,
      "velocity": 105,
      "chip": "ym2612"
    },
    {
      "channel": 0,
      "note": 39,
      "start": 28.1091,
      "duration": 0.0144,
      "velocity": 115,
      "chip": "ym2612"
    },
    {
      "channel": 4,
      "note": 86,
      "start": 28.113,
      "duration": 0.0117,
      "velocity": 94,
      "chip": "ym2612"
    },
    {
      "channel": 3,
      "note": 86,
      "start": 28.1142,
      "duration": 0.0116,
      "velocity": 94,
      "chip": "ym2612"
    },
    {
      "channel": 2,
      "note": 50,
      "start": 28.1156,
      "duration": 0.0138,
      "velocity": 100,
      "chip": "ym2612"
    },
    {
      "channel": 1,
      "note": 105,
      "start": 28.1218,
      "duration": 0.0161,
      "velocity": 105,
      "chip": "ym2612"
    },
    {
      "channel": 0,
      "note": 40,
      "start": 28.1235,
      "duration": 0.016,
      "velocity": 115,
      "chip": "ym2612"
    },
    {
      "channel": 4,
      "note": 86,
      "start": 28.1247,
      "duration": 0.016,
      "velocity": 94,
      "chip": "ym2612"
    },
    {
      "channel": 3,
      "note": 86,
      "start": 28.1258,
      "duration": 0.016,
      "velocity": 94,
      "chip": "ym2612"
    },
    {
      "channel": 2,
      "note": 50,
      "start": 28.1294,
      "duration": 0.0136,
      "velocity": 100,
      "chip": "ym2612"
    },
    {
      "channel": 1,
      "note": 105,
      "start": 28.1379,
      "duration": 0.0161,
      "velocity": 105,
      "chip": "ym2612"
    },
    {
      "channel": 0,
      "note": 40,
      "start": 28.1395,
      "duration": 0.0161,
      "velocity": 115,
      "chip": "ym2612"
    },
    {
      "channel": 4,
      "note": 86,
      "start": 28.1407,
      "duration": 0.0161,
      "velocity": 94,
      "chip": "ym2612"
    },
    {
      "channel": 3,
      "note": 86,
      "start": 28.1418,
      "duration": 0.0162,
      "velocity": 94,
      "chip": "ym2612"
    },
    {
      "channel": 2,
      "note": 50,
      "start": 28.143,
      "duration": 0.0161,
      "velocity": 100,
      "chip": "ym2612"
    },
    {
      "channel": 1,
      "note": 105,
      "start": 28.154,
      "duration": 0.0161,
      "velocity": 105,
      "chip": "ym2612"
    },
    {
      "channel": 0,
      "note": 40,
      "start": 28.1556,
      "duration": 0.0161,
      "velocity": 115,
      "chip": "ym2612"
    },
    {
      "channel": 4,
      "note": 86,
      "start": 28.1568,
      "duration": 0.0161,
      "velocity": 94,
      "chip": "ym2612"
    },
    {
      "channel": 3,
      "note": 86,
      "start": 28.158,
      "duration": 0.0161,
      "velocity": 94,
      "chip": "ym2612"
    },
    {
      "channel": 2,
      "note": 50,
      "start": 28.1591,
      "duration": 0.0161,
      "velocity": 100,
      "chip": "ym2612"
    },
    {
      "channel": 1,
      "note": 105,
      "start": 28.1701,
      "duration": 0.0161,
      "velocity": 105,
      "chip": "ym2612"
    },
    {
      "channel": 0,
      "note": 41,
      "start": 28.1717,
      "duration": 0.0161,
      "velocity": 115,
      "chip": "ym2612"
    },
    {
      "channel": 4,
      "note": 86,
      "start": 28.1729,
      "duration": 0.0161,
      "velocity": 94,
      "chip": "ym2612"
    },
    {
      "channel": 3,
      "note": 86,
      "start": 28.1741,
      "duration": 0.0161,
      "velocity": 94,
      "chip": "ym2612"
    },
    {
      "channel": 2,
      "note": 50,
      "start": 28.1752,
      "duration": 0.0161,
      "velocity": 100,
      "chip": "ym2612"
    },
    {
      "channel": 1,
      "note": 105,
      "start": 28.1862,
      "duration": 0.0161,
      "velocity": 105,
      "chip": "ym2612"
    },
    {
      "channel": 0,
      "note": 41,
      "start": 28.1878,
      "duration": 0.0161,
      "velocity": 115,
      "chip": "ym2612"
    },
    {
      "channel": 4,
      "note": 86,
      "start": 28.189,
      "duration": 0.0161,
      "velocity": 94,
      "chip": "ym2612"
    },
    {
      "channel": 3,
      "note": 86,
      "start": 28.1902,
      "duration": 0.0161,
      "velocity": 94,
      "chip": "ym2612"
    },
    {
      "channel": 2,
      "note": 50,
      "start": 28.1913,
      "duration": 0.0161,
      "velocity": 100,
      "chip": "ym2612"
    },
    {
      "channel": 1,
      "note": 105,
      "start": 28.2023,
      "duration": 0.0178,
      "velocity": 124,
      "chip": "ym2612"
    },
    {
      "channel": 0,
      "note": 42,
      "start": 28.2039,
      "duration": 0.0179,
      "velocity": 115,
      "chip": "ym2612"
    },
    {
      "channel": 4,
      "note": 86,
      "start": 28.2051,
      "duration": 0.0178,
      "velocity": 94,
      "chip": "ym2612"
    },
    {
      "channel": 3,
      "note": 86,
      "start": 28.2063,
      "duration": 0.0178,
      "velocity": 94,
      "chip": "ym2612"
    },
    {
      "channel": 2,
      "note": 50,
      "start": 28.2074,
      "duration": 0.0181,
      "velocity": 100,
      "chip": "ym2612"
    },
    {
      "channel": 1,
      "note": 64,
      "start": 28.2202,
      "duration": 0.0144,
      "velocity": 124,
      "chip": "ym2612"
    },
    {
      "channel": 0,
      "note": 42,
      "start": 28.2218,
      "duration": 0.0144,
      "velocity": 115,
      "chip": "ym2612"
    },
    {
      "channel": 4,
      "note": 86,
      "start": 28.2229,
      "duration": 0.0144,
      "velocity": 94,
      "chip": "ym2612"
    },
    {
      "channel": 3,
      "note": 86,
      "start": 28.2241,
      "duration": 0.0144,
      "velocity": 94,
      "chip": "ym2612"
    },
    {
      "channel": 2,
      "note": 50,
      "start": 28.2256,
      "duration": 0.0142,
      "velocity": 100,
      "chip": "ym2612"
    },
    {
      "channel": 1,
      "note": 64,
      "start": 28.2346,
      "duration": 0.016,
      "velocity": 124,
      "chip": "ym2612"
    },
    {
      "channel": 0,
      "note": 43,
      "start": 28.2362,
      "duration": 0.016,
      "velocity": 115,
      "chip": "ym2612"
    },
    {
      "channel": 4,
      "note": 86,
      "start": 28.2374,
      "duration": 0.016,
      "velocity": 94,
      "chip": "ym2612"
    },
    {
      "channel": 3,
      "note": 86,
      "start": 28.2385,
      "duration": 0.016,
      "velocity": 94,
      "chip": "ym2612"
    },
    {
      "channel": 2,
      "note": 50,
      "start": 28.2398,
      "duration": 0.016,
      "velocity": 100,
      "chip": "ym2612"
    },
    {
      "channel": 1,
      "note": 64,
      "start": 28.2506,
      "duration": 0.0161,
      "velocity": 124,
      "chip": "ym2612"
    },
    {
      "channel": 0,
      "note": 43,
      "start": 28.2523,
      "duration": 0.0161,
      "velocity": 115,
      "chip": "ym2612"
    },
    {
      "channel": 4,
      "note": 86,
      "start": 28.2534,
      "duration": 0.0161,
      "velocity": 94,
      "chip": "ym2612"
    },
    {
      "channel": 3,
      "note": 86,
      "start": 28.2546,
      "duration": 0.0162,
      "velocity": 94,
      "chip": "ym2612"
    },
    {
      "channel": 2,
      "note": 50,
      "start": 28.2557,
      "duration": 0.0161,
      "velocity": 100,
      "chip": "ym2612"
    },
    {
      "channel": 1,
      "note": 64,
      "start": 28.2667,
      "duration": 0.0161,
      "velocity": 124,
      "chip": "ym2612"
    },
    {
      "channel": 0,
      "note": 44,
      "start": 28.2684,
      "duration": 0.0161,
      "velocity": 115,
      "chip": "ym2612"
    },
    {
      "channel": 4,
      "note": 86,
      "start": 28.2696,
      "duration": 0.0161,
      "velocity": 94,
      "chip": "ym2612"
    },
    {
      "channel": 3,
      "note": 86,
      "start": 28.2707,
      "duration": 0.0161,
      "velocity": 94,
      "chip": "ym2612"
    },
    {
      "channel": 2,
      "note": 50,
      "start": 28.2718,
      "duration": 0.0161,
      "velocity": 100,
      "chip": "ym2612"
    },
    {
      "channel": 1,
      "note": 64,
      "start": 28.2828,
      "duration": 0.0161,
      "velocity": 124,
      "chip": "ym2612"
    },
    {
      "channel": 0,
      "note": 44,
      "start": 28.2845,
      "duration": 0.0161,
      "velocity": 115,
      "chip": "ym2612"
    },
    {
      "channel": 4,
      "note": 86,
      "start": 28.2857,
      "duration": 0.0161,
      "velocity": 94,
      "chip": "ym2612"
    },
    {
      "channel": 3,
      "note": 86,
      "start": 28.2868,
      "duration": 0.0161,
      "velocity": 94,
      "chip": "ym2612"
    },
    {
      "channel": 2,
      "note": 50,
      "start": 28.2879,
      "duration": 0.0161,
      "velocity": 100,
      "chip": "ym2612"
    },
    {
      "channel": 1,
      "note": 64,
      "start": 28.2989,
      "duration": 0.0161,
      "velocity": 124,
      "chip": "ym2612"
    },
    {
      "channel": 0,
      "note": 44,
      "start": 28.3006,
      "duration": 0.0161,
      "velocity": 115,
      "chip": "ym2612"
    },
    {
      "channel": 4,
      "note": 86,
      "start": 28.3018,
      "duration": 0.0161,
      "velocity": 94,
      "chip": "ym2612"
    },
    {
      "channel": 3,
      "note": 86,
      "start": 28.3029,
      "duration": 0.0161,
      "velocity": 94,
      "chip": "ym2612"
    },
    {
      "channel": 2,
      "note": 50,
      "start": 28.304,
      "duration": 0.0161,
      "velocity": 100,
      "chip": "ym2612"
    },
    {
      "channel": 1,
      "note": 64,
      "start": 28.315,
      "duration": 0.0178,
      "velocity": 105,
      "chip": "ym2612"
    },
    {
      "channel": 0,
      "note": 45,
      "start": 28.3166,
      "duration": 0.0179,
      "velocity": 115,
      "chip": "ym2612"
    },
    {
      "channel": 4,
      "note": 86,
      "start": 28.3179,
      "duration": 0.018,
      "velocity": 94,
      "chip": "ym2612"
    },
    {
      "channel": 3,
      "note": 86,
      "start": 28.319,
      "duration": 0.0181,
      "velocity": 94,
      "chip": "ym2612"
    },
    {
      "channel": 2,
      "note": 50,
      "start": 28.3201,
      "duration": 0.0184,
      "velocity": 100,
      "chip": "ym2612"
    },
    {
      "channel": 1,
      "note": 105,
      "start": 28.3328,
      "duration": 0.0144,
      "velocity": 105,
      "chip": "ym2612"
    },
    {
      "channel": 0,
      "note": 45,
      "start": 28.3345,
      "duration": 0.0144,
      "velocity": 115,
      "chip": "ym2612"
    },
    {
      "channel": 4,
      "note": 81,
      "start": 28.3359,
      "duration": 0.0143,
      "velocity": 94,
      "chip": "ym2612"
    },
    {
      "channel": 3,
      "note": 86,
      "start": 28.3371,
      "duration": 0.0142,
      "velocity": 94,
      "chip": "ym2612"
    },
    {
      "channel": 2,
      "note": 50,
      "start": 28.3385,
      "duration": 0.0139,
      "velocity": 100,
      "chip": "ym2612"
    },
    {
      "channel": 1,
      "note": 105,
      "start": 28.3473,
      "duration": 0.0167,
      "velocity": 105,
      "chip": "ym2612"
    },
    {
      "channel": 0,
      "note": 46,
      "start": 28.3489,
      "duration": 0.0167,
      "velocity": 115,
      "chip": "ym2612"
    },
    {
      "channel": 4,
      "note": 81,
      "start": 28.3502,
      "duration": 0.0166,
      "velocity": 94,
      "chip": "ym2612"
    },
    {
      "channel": 3,
      "note": 86,
      "start": 28.3513,
      "duration": 0.0166,
      "velocity": 94,
      "chip": "ym2612"
    },
    {
      "channel": 2,
      "note": 50,
      "start": 28.3525,
      "duration": 0.0166,
      "velocity": 100,
      "chip": "ym2612"
    },
    {
      "channel": 1,
      "note": 105,
      "start": 28.364,
      "duration": 0.0167,
      "velocity": 105,
      "chip": "ym2612"
    },
    {
      "channel": 0,
      "note": 46,
      "start": 28.3656,
      "duration": 0.0167,
      "velocity": 115,
      "chip": "ym2612"
    },
    {
      "channel": 4,
      "note": 81,
      "start": 28.3668,
      "duration": 0.0167,
      "velocity": 94,
      "chip": "ym2612"
    },
    {
      "channel": 3,
      "note": 86,
      "start": 28.3679,
      "duration": 0.0167,
      "velocity": 94,
      "chip": "ym2612"
    },
    {
      "channel": 2,
      "note": 50,
      "start": 28.3691,
      "duration": 0.0167,
      "velocity": 100,
      "chip": "ym2612"
    },
    {
      "channel": 1,
      "note": 105,
      "start": 28.3807,
      "duration": 0.0163,
      "velocity": 105,
      "chip": "ym2612"
    },
    {
      "channel": 0,
      "note": 47,
      "start": 28.3823,
      "duration": 0.0163,
      "velocity": 115,
      "chip": "ym2612"
    },
    {
      "channel": 4,
      "note": 81,
      "start": 28.3834,
      "duration": 0.0163,
      "velocity": 94,
      "chip": "ym2612"
    },
    {
      "channel": 3,
      "note": 86,
      "start": 28.3846,
      "duration": 0.0163,
      "velocity": 94,
      "chip": "ym2612"
    },
    {
      "channel": 2,
      "note": 50,
      "start": 28.3857,
      "duration": 0.0163,
      "velocity": 100,
      "chip": "ym2612"
    },
    {
      "channel": 1,
      "note": 105,
      "start": 28.3969,
      "duration": 0.0147,
      "velocity": 105,
      "chip": "ym2612"
    },
    {
      "channel": 0,
      "note": 47,
      "start": 28.3986,
      "duration": 0.0147,
      "velocity": 115,
      "chip": "ym2612"
    },
    {
      "channel": 4,
      "note": 81,
      "start": 28.3997,
      "duration": 0.0148,
      "velocity": 94,
      "chip": "ym2612"
    },
    {
      "channel": 3,
      "note": 86,
      "start": 28.4009,
      "duration": 0.0148,
      "velocity": 94,
      "chip": "ym2612"
    },
    {
      "channel": 2,
      "note": 50,
      "start": 28.402,
      "duration": 0.0147,
      "velocity": 100,
      "chip": "ym2612"
    },
    {
      "channel": 1,
      "note": 105,
      "start": 28.4116,
      "duration": 0.0188,
      "velocity": 105,
      "chip": "ym2612"
    },
    {
      "channel": 0,
      "note": 47,
      "start": 28.4133,
      "duration": 0.0188,
      "velocity": 115,
      "chip": "ym2612"
    },
    {
      "channel": 4,
      "note": 81,
      "start": 28.4145,
      "duration": 0.0188,
      "velocity": 94,
      "chip": "ym2612"
    },
    {
      "channel": 3,
      "note": 86,
      "start": 28.4156,
      "duration": 0.0188,
      "velocity": 94,
      "chip": "ym2612"
    },
    {
      "channel": 2,
      "note": 50,
      "start": 28.4167,
      "duration": 0.0188,
      "velocity": 100,
      "chip": "ym2612"
    },
    {
      "channel": 1,
      "note": 105,
      "start": 28.4305,
      "duration": 0.0183,
      "velocity": 124,
      "chip": "ym2612"
    },
    {
      "channel": 0,
      "note": 48,
      "start": 28.4321,
      "duration": 0.0192,
      "velocity": 115,
      "chip": "ym2612"
    },
    {
      "channel": 4,
      "note": 81,
      "start": 28.4333,
      "duration": 0.0191,
      "velocity": 94,
      "chip": "ym2612"
    },
    {
      "channel": 3,
      "note": 86,
      "start": 28.4345,
      "duration": 0.0193,
      "velocity": 94,
      "chip": "ym2612"
    },
    {
      "channel": 2,
      "note": 50,
      "start": 28.4356,
      "duration": 0.0196,
      "velocity": 100,
      "chip": "ym2612"
    },
    {
      "channel": 1,
      "note": 78,
      "start": 28.4488,
      "duration": 0.014,
      "velocity": 124,
      "chip": "ym2612"
    },
    {
      "channel": 0,
      "note": 48,
      "start": 28.4513,
      "duration": 0.0135,
      "velocity": 115,
      "chip": "ym2612"
    },
    {
      "channel": 4,
      "note": 81,
      "start": 28.4524,
      "duration": 0.0136,
      "velocity": 94,
      "chip": "ym2612"
    },
    {
      "channel": 3,
      "note": 81,
      "start": 28.4538,
      "duration": 0.0134,
      "velocity": 94,
      "chip": "ym2612"
    },
    {
      "channel": 2,
      "note": 48,
      "start": 28.4553,
      "duration": 0.013,
      "velocity": 100,
      "chip": "ym2612"
    },
    {
      "channel": 1,
      "note": 76,
      "start": 28.4628,
      "duration": 0.0138,
      "velocity": 124,
      "chip": "ym2612"
    },
    {
      "channel": 0,
      "note": 49,
      "start": 28.4647,
      "duration": 0.0132,
      "velocity": 1,
      "chip": "ym2612"
    },
    {
      "channel": 4,
      "note": 81,
      "start": 28.466,
      "duration": 0.0131,
      "velocity": 94,
      "chip": "ym2612"
    },
    {
      "channel": 3,
      "note": 81,
      "start": 28.4672,
      "duration": 0.013,
      "velocity": 94,
      "chip": "ym2612"
    },
    {
      "channel": 2,
      "note": 48,
      "start": 28.4683,
      "duration": 0.013,
      "velocity": 100,
      "chip": "ym2612"
    },
    {
      "channel": 1,
      "note": 75,
      "start": 28.4766,
      "duration": 0.016,
      "velocity": 124,
      "chip": "ym2612"
    },
    {
      "channel": 4,
      "note": 81,
      "start": 28.479,
      "duration": 0.0177,
      "velocity": 94,
      "chip": "ym2612"
    },
    {
      "channel": 3,
      "note": 81,
      "start": 28.4802,
      "duration": 0.0177,
      "velocity": 94,
      "chip": "ym2612"
    },
    {
      "channel": 2,
      "note": 48,
      "start": 28.4813,
      "duration": 0.0177,
      "velocity": 100,
      "chip": "ym2612"
    },
    {
      "channel": 1,
      "note": 74,
      "start": 28.4926,
      "duration": 0.0161,
      "velocity": 124,
      "chip": "ym2612"
    },
    {
      "channel": 4,
      "note": 81,
      "start": 28.4967,
      "duration": 0.0161,
      "velocity": 94,
      "chip": "ym2612"
    },
    {
      "channel": 3,
      "note": 81,
      "start": 28.4979,
      "duration": 0.0161,
      "velocity": 94,
      "chip": "ym2612"
    },
    {
      "channel": 2,
      "note": 48,
      "start": 28.499,
      "duration": 0.0161,
      "velocity": 100,
      "chip": "ym2612"
    },
    {
      "channel": 1,
      "note": 72,
      "start": 28.5087,
      "duration": 0.0161,
      "velocity": 124,
      "chip": "ym2612"
    },
    {
      "channel": 4,
      "note": 81,
      "start": 28.5128,
      "duration": 0.0134,
      "velocity": 94,
      "chip": "ym2612"
    },
    {
      "channel": 3,
      "note": 81,
      "start": 28.514,
      "duration": 0.0158,
      "velocity": 94,
      "chip": "ym2612"
    },
    {
      "channel": 2,
      "note": 48,
      "start": 28.5151,
      "duration": 0.0157,
      "velocity": 100,
      "chip": "ym2612"
    },
    {
      "channel": 1,
      "note": 71,
      "start": 28.5248,
      "duration": 0.0161,
      "velocity": 124,
      "chip": "ym2612"
    },
    {
      "channel": 4,
      "note": 81,
      "start": 28.5262,
      "duration": 0.0161,
      "velocity": 94,
      "chip": "ym2612"
    },
    {
      "channel": 3,
      "note": 81,
      "start": 28.5298,
      "duration": 0.014,
      "velocity": 94,
      "chip": "ym2612"
    },
    {
      "channel": 2,
      "note": 48,
      "start": 28.5308,
      "duration": 0.0141,
      "velocity": 100,
      "chip": "ym2612"
    },
    {
      "channel": 1,
      "note": 70,
      "start": 28.5409,
      "duration": 0.0162,
      "velocity": 124,
      "chip": "ym2612"
    },
    {
      "channel": 4,
      "note": 81,
      "start": 28.5423,
      "duration": 0.0169,
      "velocity": 94,
      "chip": "ym2612"
    },
    {
      "channel": 3,
      "note": 81,
      "start": 28.5437,
      "duration": 0.0193,
      "velocity": 94,
      "chip": "ym2612"
    },
    {
      "channel": 2,
      "note": 48,
      "start": 28.5449,
      "duration": 0.0196,
      "velocity": 100,
      "chip": "ym2612"
    },
    {
      "channel": 1,
      "note": 69,
      "start": 28.5571,
      "duration": 0.0161,
      "velocity": 124,
      "chip": "ym2612"
    },
    {
      "channel": 4,
      "note": 81,
      "start": 28.5592,
      "duration": 0.0154,
      "velocity": 94,
      "chip": "ym2612"
    },
    {
      "channel": 3,
      "note": 81,
      "start": 28.5631,
      "duration": 0.0127,
      "velocity": 94,
      "chip": "ym2612"
    },
    {
      "channel": 2,
      "note": 48,
      "start": 28.5645,
      "duration": 0.0152,
      "velocity": 100,
      "chip": "ym2612"
    },
    {
      "channel": 1,
      "note": 68,
      "start": 28.5732,
      "duration": 0.0161,
      "velocity": 124,
      "chip": "ym2612"
    },
    {
      "channel": 4,
      "note": 81,
      "start": 28.5746,
      "duration": 0.016,
      "velocity": 94,
      "chip": "ym2612"
    },
    {
      "channel": 3,
      "note": 81,
      "start": 28.5758,
      "duration": 0.016,
      "velocity": 94,
      "chip": "ym2612"
    },
    {
      "channel": 2,
      "note": 48,
      "start": 28.5797,
      "duration": 0.0132,
      "velocity": 100,
      "chip": "ym2612"
    },
    {
      "channel": 1,
      "note": 66,
      "start": 28.5892,
      "duration": 0.0161,
      "velocity": 124,
      "chip": "ym2612"
    },
    {
      "channel": 4,
      "note": 81,
      "start": 28.5906,
      "duration": 0.0161,
      "velocity": 94,
      "chip": "ym2612"
    },
    {
      "channel": 3,
      "note": 81,
      "start": 28.5917,
      "duration": 0.0161,
      "velocity": 94,
      "chip": "ym2612"
    },
    {
      "channel": 2,
      "note": 48,
      "start": 28.5929,
      "duration": 0.0161,
      "velocity": 100,
      "chip": "ym2612"
    },
    {
      "channel": 1,
      "note": 65,
      "start": 28.6053,
      "duration": 0.0161,
      "velocity": 124,
      "chip": "ym2612"
    },
    {
      "channel": 4,
      "note": 81,
      "start": 28.6067,
      "duration": 0.0162,
      "velocity": 94,
      "chip": "ym2612"
    },
    {
      "channel": 3,
      "note": 81,
      "start": 28.6078,
      "duration": 0.0162,
      "velocity": 94,
      "chip": "ym2612"
    },
    {
      "channel": 2,
      "note": 48,
      "start": 28.609,
      "duration": 0.0162,
      "velocity": 100,
      "chip": "ym2612"
    },
    {
      "channel": 1,
      "note": 64,
      "start": 28.6214,
      "duration": 0.0161,
      "velocity": 124,
      "chip": "ym2612"
    },
    {
      "channel": 4,
      "note": 81,
      "start": 28.6228,
      "duration": 0.0161,
      "velocity": 94,
      "chip": "ym2612"
    },
    {
      "channel": 3,
      "note": 81,
      "start": 28.624,
      "duration": 0.0161,
      "velocity": 94,
      "chip": "ym2612"
    },
    {
      "channel": 2,
      "note": 48,
      "start": 28.6251,
      "duration": 0.0161,
      "velocity": 100,
      "chip": "ym2612"
    },
    {
      "channel": 1,
      "note": 62,
      "start": 28.6375,
      "duration": 0.0161,
      "velocity": 124,
      "chip": "ym2612"
    },
    {
      "channel": 4,
      "note": 81,
      "start": 28.6389,
      "duration": 0.0161,
      "velocity": 94,
      "chip": "ym2612"
    },
    {
      "channel": 3,
      "note": 81,
      "start": 28.6401,
      "duration": 0.0161,
      "velocity": 94,
      "chip": "ym2612"
    },
    {
      "channel": 2,
      "note": 48,
      "start": 28.6412,
      "duration": 0.0161,
      "velocity": 100,
      "chip": "ym2612"
    },
    {
      "channel": 1,
      "note": 61,
      "start": 28.6536,
      "duration": 0.0161,
      "velocity": 124,
      "chip": "ym2612"
    },
    {
      "channel": 4,
      "note": 81,
      "start": 28.655,
      "duration": 0.0166,
      "velocity": 94,
      "chip": "ym2612"
    },
    {
      "channel": 3,
      "note": 81,
      "start": 28.6562,
      "duration": 0.0168,
      "velocity": 94,
      "chip": "ym2612"
    },
    {
      "channel": 2,
      "note": 48,
      "start": 28.6573,
      "duration": 0.0171,
      "velocity": 100,
      "chip": "ym2612"
    },
    {
      "channel": 1,
      "note": 60,
      "start": 28.6697,
      "duration": 0.0161,
      "velocity": 124,
      "chip": "ym2612"
    },
    {
      "channel": 4,
      "note": 81,
      "start": 28.6716,
      "duration": 0.0156,
      "velocity": 94,
      "chip": "ym2612"
    },
    {
      "channel": 3,
      "note": 81,
      "start": 28.6731,
      "duration": 0.0154,
      "velocity": 94,
      "chip": "ym2612"
    },
    {
      "channel": 2,
      "note": 48,
      "start": 28.6745,
      "duration": 0.0151,
      "velocity": 100,
      "chip": "ym2612"
    },
    {
      "channel": 1,
      "note": 59,
      "start": 28.6858,
      "duration": 0.0161,
      "velocity": 124,
      "chip": "ym2612"
    },
    {
      "channel": 4,
      "note": 81,
      "start": 28.6873,
      "duration": 0.016,
      "velocity": 94,
      "chip": "ym2612"
    },
    {
      "channel": 3,
      "note": 81,
      "start": 28.6885,
      "duration": 0.016,
      "velocity": 94,
      "chip": "ym2612"
    },
    {
      "channel": 2,
      "note": 48,
      "start": 28.6896,
      "duration": 0.016,
      "velocity": 100,
      "chip": "ym2612"
    },
    {
      "channel": 1,
      "note": 57,
      "start": 28.7019,
      "duration": 0.0161,
      "velocity": 124,
      "chip": "ym2612"
    },
    {
      "channel": 4,
      "note": 81,
      "start": 28.7033,
      "duration": 0.0161,
      "velocity": 94,
      "chip": "ym2612"
    },
    {
      "channel": 3,
      "note": 81,
      "start": 28.7044,
      "duration": 0.0161,
      "velocity": 94,
      "chip": "ym2612"
    },
    {
      "channel": 2,
      "note": 48,
      "start": 28.7056,
      "duration": 0.0161,
      "velocity": 100,
      "chip": "ym2612"
    },
    {
      "channel": 1,
      "note": 56,
      "start": 28.718,
      "duration": 0.0161,
      "velocity": 124,
      "chip": "ym2612"
    },
    {
      "channel": 4,
      "note": 81,
      "start": 28.7194,
      "duration": 0.0161,
      "velocity": 94,
      "chip": "ym2612"
    },
    {
      "channel": 3,
      "note": 81,
      "start": 28.7205,
      "duration": 0.0161,
      "velocity": 94,
      "chip": "ym2612"
    },
    {
      "channel": 2,
      "note": 48,
      "start": 28.7217,
      "duration": 0.0161,
      "velocity": 100,
      "chip": "ym2612"
    },
    {
      "channel": 1,
      "note": 55,
      "start": 28.7341,
      "duration": 0.0161,
      "velocity": 124,
      "chip": "ym2612"
    },
    {
      "channel": 4,
      "note": 81,
      "start": 28.7355,
      "duration": 0.0161,
      "velocity": 94,
      "chip": "ym2612"
    },
    {
      "channel": 3,
      "note": 81,
      "start": 28.7366,
      "duration": 0.0162,
      "velocity": 94,
      "chip": "ym2612"
    },
    {
      "channel": 2,
      "note": 48,
      "start": 28.7378,
      "duration": 0.0161,
      "velocity": 100,
      "chip": "ym2612"
    },
    {
      "channel": 1,
      "note": 53,
      "start": 28.7502,
      "duration": 0.0161,
      "velocity": 124,
      "chip": "ym2612"
    },
    {
      "channel": 4,
      "note": 81,
      "start": 28.7516,
      "duration": 0.0161,
      "velocity": 94,
      "chip": "ym2612"
    },
    {
      "channel": 3,
      "note": 81,
      "start": 28.7528,
      "duration": 0.0161,
      "velocity": 94,
      "chip": "ym2612"
    },
    {
      "channel": 2,
      "note": 48,
      "start": 28.7539,
      "duration": 0.0161,
      "velocity": 100,
      "chip": "ym2612"
    },
    {
      "channel": 1,
      "note": 52,
      "start": 28.7663,
      "duration": 0.0161,
      "velocity": 124,
      "chip": "ym2612"
    },
    {
      "channel": 4,
      "note": 81,
      "start": 28.7677,
      "duration": 0.0204,
      "velocity": 94,
      "chip": "ym2612"
    },
    {
      "channel": 3,
      "note": 81,
      "start": 28.7689,
      "duration": 0.0203,
      "velocity": 94,
      "chip": "ym2612"
    },
    {
      "channel": 2,
      "note": 48,
      "start": 28.77,
      "duration": 0.0206,
      "velocity": 100,
      "chip": "ym2612"
    },
    {
      "channel": 1,
      "note": 51,
      "start": 28.7824,
      "duration": 0.0153,
      "velocity": 1,
      "chip": "ym2612"
    },
    {
      "channel": 0,
      "note": 78,
      "start": 28.7867,
      "duration": 0.0149,
      "velocity": 127,
      "chip": "ym2612"
    },
    {
      "channel": 4,
      "note": 79,
      "start": 28.7881,
      "duration": 0.0148,
      "velocity": 94,
      "chip": "ym2612"
    },
    {
      "channel": 3,
      "note": 81,
      "start": 28.7892,
      "duration": 0.0148,
      "velocity": 94,
      "chip": "ym2612"
    },
    {
      "channel": 2,
      "note": 48,
      "start": 28.7906,
      "duration": 0.0146,
      "velocity": 100,
      "chip": "ym2612"
    },
    {
      "channel": 1,
      "note": 51,
      "start": 28.7999,
      "duration": 0.0142,
      "velocity": 105,
      "chip": "ym2612"
    },
    {
      "channel": 0,
      "note": 76,
      "start": 28.8016,
      "duration": 0.0141,
      "velocity": 127,
      "chip": "ym2612"
    },
    {
      "channel": 4,
      "note": 79,
      "start": 28.8029,
      "duration": 0.0141,
      "velocity": 94,
      "chip": "ym2612"
    },
    {
      "channel": 3,
      "note": 81,
      "start": 28.804,
      "duration": 0.0141,
      "velocity": 94,
      "chip": "ym2612"
    },
    {
      "channel": 2,
      "note": 48,
      "start": 28.8052,
      "duration": 0.014,
      "velocity": 100,
      "chip": "ym2612"
    },
    {
      "channel": 1,
      "note": 105,
      "start": 28.8141,
      "duration": 0.0165,
      "velocity": 105,
      "chip": "ym2612"
    },
    {
      "channel": 0,
      "note": 75,
      "start": 28.8158,
      "duration": 0.0166,
      "velocity": 127,
      "chip": "ym2612"
    },
    {
      "channel": 4,
      "note": 79,
      "start": 28.817,
      "duration": 0.0165,
      "velocity": 94,
      "chip": "ym2612"
    },
    {
      "channel": 3,
      "note": 81,
      "start": 28.8181,
      "duration": 0.0165,
      "velocity": 94,
      "chip": "ym2612"
    },
    {
      "channel": 2,
      "note": 48,
      "start": 28.8192,
      "duration": 0.0165,
      "velocity": 100,
      "chip": "ym2612"
    },
    {
      "channel": 1,
      "note": 105,
      "start": 28.8306,
      "duration": 0.0167,
      "velocity": 105,
      "chip": "ym2612"
    },
    {
      "channel": 0,
      "note": 73,
      "start": 28.8323,
      "duration": 0.0167,
      "velocity": 127,
      "chip": "ym2612"
    },
    {
      "channel": 4,
      "note": 79,
      "start": 28.8334,
      "duration": 0.0167,
      "velocity": 94,
      "chip": "ym2612"
    },
    {
      "channel": 3,
      "note": 81,
      "start": 28.8346,
      "duration": 0.0167,
      "velocity": 94,
      "chip": "ym2612"
    },
    {
      "channel": 2,
      "note": 48,
      "start": 28.8357,
      "duration": 0.0167,
      "velocity": 100,
      "chip": "ym2612"
    },
    {
      "channel": 1,
      "note": 105,
      "start": 28.8473,
      "duration": 0.0163,
      "velocity": 105,
      "chip": "ym2612"
    },
    {
      "channel": 0,
      "note": 71,
      "start": 28.849,
      "duration": 0.0163,
      "velocity": 127,
      "chip": "ym2612"
    },
    {
      "channel": 4,
      "note": 79,
      "start": 28.8501,
      "duration": 0.0163,
      "velocity": 94,
      "chip": "ym2612"
    },
    {
      "channel": 3,
      "note": 81,
      "start": 28.8513,
      "duration": 0.0163,
      "velocity": 94,
      "chip": "ym2612"
    },
    {
      "channel": 2,
      "note": 48,
      "start": 28.8524,
      "duration": 0.0163,
      "velocity": 100,
      "chip": "ym2612"
    },
    {
      "channel": 1,
      "note": 105,
      "start": 28.8636,
      "duration": 0.0149,
      "velocity": 105,
      "chip": "ym2612"
    },
    {
      "channel": 0,
      "note": 70,
      "start": 28.8653,
      "duration": 0.0149,
      "velocity": 127,
      "chip": "ym2612"
    },
    {
      "channel": 4,
      "note": 79,
      "start": 28.8665,
      "duration": 0.0149,
      "velocity": 94,
      "chip": "ym2612"
    },
    {
      "channel": 3,
      "note": 81,
      "start": 28.8676,
      "duration": 0.015,
      "velocity": 94,
      "chip": "ym2612"
    },
    {
      "channel": 2,
      "note": 48,
      "start": 28.8687,
      "duration": 0.0149,
      "velocity": 100,
      "chip": "ym2612"
    },
    {
      "channel": 1,
      "note": 105,
      "start": 28.8785,
      "duration": 0.0204,
      "velocity": 124,
      "chip": "ym2612"
    },
    {
      "channel": 0,
      "note": 68,
      "start": 28.8802,
      "duration": 0.0223,
      "velocity": 115,
      "chip": "ym2612"
    },
    {
      "channel": 4,
      "note": 79,
      "start": 28.8814,
      "duration": 0.0223,
      "velocity": 94,
      "chip": "ym2612"
    },
    {
      "channel": 3,
      "note": 81,
      "start": 28.8826,
      "duration": 0.0225,
      "velocity": 94,
      "chip": "ym2612"
    },
    {
      "channel": 2,
      "note": 48,
      "start": 28.8836,
      "duration": 0.0229,
      "velocity": 100,
      "chip": "ym2612"
    },
    {
      "channel": 1,
      "note": 64,
      "start": 28.899,
      "duration": 0.0145,
      "velocity": 124,
      "chip": "ym2612"
    },
    {
      "channel": 0,
      "note": 36,
      "start": 28.9025,
      "duration": 0.0128,
      "velocity": 115,
      "chip": "ym2612"
    },
    {
      "channel": 4,
      "note": 79,
      "start": 28.9037,
      "duration": 0.0128,
      "velocity": 94,
      "chip": "ym2612"
    },
    {
      "channel": 3,
      "note": 79,
      "start": 28.9051,
      "duration": 0.0126,
      "velocity": 94,
      "chip": "ym2612"
    },
    {
      "channel": 2,
      "note": 57,
      "start": 28.9065,
      "duration": 0.0124,
      "velocity": 100,
      "chip": "ym2612"
    },
    {
      "channel": 1,
      "note": 64,
      "start": 28.9135,
      "duration": 0.0157,
      "velocity": 124,
      "chip": "ym2612"
    },
    {
      "channel": 0,
      "note": 36,
      "start": 28.9153,
      "duration": 0.0156,
      "velocity": 115,
      "chip": "ym2612"
    },
    {
      "channel": 4,
      "note": 79,
      "start": 28.9165,
      "duration": 0.0156,
      "velocity": 94,
      "chip": "ym2612"
    },
    {
      "channel": 3,
      "note": 79,
      "start": 28.9177,
      "duration": 0.0156,
      "velocity": 94,
      "chip": "ym2612"
    },
    {
      "channel": 2,
      "note": 57,
      "start": 28.9189,
      "duration": 0.0154,
      "velocity": 100,
      "chip": "ym2612"
    },
    {
      "channel": 1,
      "note": 64,
      "start": 28.9293,
      "duration": 0.0137,
      "velocity": 124,
      "chip": "ym2612"
    },
    {
      "channel": 0,
      "note": 37,
      "start": 28.9309,
      "duration": 0.0141,
      "velocity": 115,
      "chip": "ym2612"
    },
    {
      "channel": 4,
      "note": 79,
      "start": 28.9321,
      "duration": 0.014,
      "velocity": 94,
      "chip": "ym2612"
    },
    {
      "channel": 3,
      "note": 79,
      "start": 28.9333,
      "duration": 0.014,
      "velocity": 94,
      "chip": "ym2612"
    },
    {
      "channel": 2,
      "note": 57,
      "start": 28.9343,
      "duration": 0.0141,
      "velocity": 100,
      "chip": "ym2612"
    },
    {
      "channel": 1,
      "note": 64,
      "start": 28.9429,
      "duration": 0.0161,
      "velocity": 124,
      "chip": "ym2612"
    },
    {
      "channel": 0,
      "note": 37,
      "start": 28.945,
      "duration": 0.0185,
      "velocity": 115,
      "chip": "ym2612"
    },
    {
      "channel": 4,
      "note": 79,
      "start": 28.9461,
      "duration": 0.0185,
      "velocity": 94,
      "chip": "ym2612"
    },
    {
      "channel": 3,
      "note": 79,
      "start": 28.9473,
      "duration": 0.0185,
      "velocity": 94,
      "chip": "ym2612"
    },
    {
      "channel": 2,
      "note": 57,
      "start": 28.9484,
      "duration": 0.0185,
      "velocity": 100,
      "chip": "ym2612"
    },
    {
      "channel": 1,
      "note": 64,
      "start": 28.959,
      "duration": 0.0161,
      "velocity": 124,
      "chip": "ym2612"
    },
    {
      "channel": 0,
      "note": 38,
      "start": 28.9635,
      "duration": 0.0161,
      "velocity": 115,
      "chip": "ym2612"
    },
    {
      "channel": 4,
      "note": 79,
      "start": 28.9646,
      "duration": 0.0161,
      "velocity": 94,
      "chip": "ym2612"
    },
    {
      "channel": 3,
      "note": 79,
      "start": 28.9658,
      "duration": 0.0162,
      "velocity": 94,
      "chip": "ym2612"
    },
    {
      "channel": 2,
      "note": 57,
      "start": 28.9669,
      "duration": 0.0161,
      "velocity": 100,
      "chip": "ym2612"
    },
    {
      "channel": 1,
      "note": 64,
      "start": 28.9752,
      "duration": 0.0161,
      "velocity": 124,
      "chip": "ym2612"
    },
    {
      "channel": 0,
      "note": 38,
      "start": 28.9796,
      "duration": 0.0134,
      "velocity": 115,
      "chip": "ym2612"
    },
    {
      "channel": 4,
      "note": 79,
      "start": 28.9808,
      "duration": 0.0157,
      "velocity": 94,
      "chip": "ym2612"
    },
    {
      "channel": 3,
      "note": 79,
      "start": 28.9819,
      "duration": 0.0157,
      "velocity": 94,
      "chip": "ym2612"
    },
    {
      "channel": 2,
      "note": 57,
      "start": 28.9831,
      "duration": 0.0157,
      "velocity": 100,
      "chip": "ym2612"
    },
    {
      "channel": 1,
      "note": 64,
      "start": 28.9913,
      "duration": 0.0178,
      "velocity": 105,
      "chip": "ym2612"
    },
    {
      "channel": 0,
      "note": 39,
      "start": 28.9929,
      "duration": 0.0181,
      "velocity": 115,
      "chip": "ym2612"
    },
    {
      "channel": 4,
      "note": 79,
      "start": 28.9965,
      "duration": 0.016,
      "velocity": 94,
      "chip": "ym2612"
    },
    {
      "channel": 3,
      "note": 79,
      "start": 28.9976,
      "duration": 0.016,
      "velocity": 94,
      "chip": "ym2612"
    },
    {
      "channel": 2,
      "note": 57,
      "start": 28.9988,
      "duration": 0.0163,
      "velocity": 100,
      "chip": "ym2612"
    },
    {
      "channel": 1,
      "note": 105,
      "start": 29.0091,
      "duration": 0.0144,
      "velocity": 105,
      "chip": "ym2612"
    },
    {
      "channel": 0,
      "note": 39,
      "start": 29.0111,
      "duration": 0.0141,
      "velocity": 115,
      "chip": "ym2612"
    },
    {
      "channel": 4,
      "note": 81,
      "start": 29.0125,
      "duration": 0.0139,
      "velocity": 94,
      "chip": "ym2612"
    },
    {
      "channel": 3,
      "note": 79,
      "start": 29.0137,
      "duration": 0.0167,
      "velocity": 94,
      "chip": "ym2612"
    },
    {
      "channel": 2,
      "note": 57,
      "start": 29.0151,
      "duration": 0.0164,
      "velocity": 100,
      "chip": "ym2612"
    },
    {
      "channel": 1,
      "note": 105,
      "start": 29.0235,
      "duration": 0.016,
      "velocity": 105,
      "chip": "ym2612"
    },
    {
      "channel": 0,
      "note": 40,
      "start": 29.0252,
      "duration": 0.016,
      "velocity": 115,
      "chip": "ym2612"
    },
    {
      "channel": 4,
      "note": 81,
      "start": 29.0264,
      "duration": 0.016,
      "velocity": 94,
      "chip": "ym2612"
    },
    {
      "channel": 3,
      "note": 79,
      "start": 29.0303,
      "duration": 0.016,
      "velocity": 94,
      "chip": "ym2612"
    },
    {
      "channel": 2,
      "note": 57,
      "start": 29.0315,
      "duration": 0.016,
      "velocity": 100,
      "chip": "ym2612"
    },
    {
      "channel": 1,
      "note": 105,
      "start": 29.0395,
      "duration": 0.0161,
      "velocity": 105,
      "chip": "ym2612"
    },
    {
      "channel": 0,
      "note": 40,
      "start": 29.0412,
      "duration": 0.0161,
      "velocity": 115,
      "chip": "ym2612"
    },
    {
      "channel": 4,
      "note": 81,
      "start": 29.0424,
      "duration": 0.0161,
      "velocity": 94,
      "chip": "ym2612"
    },
    {
      "channel": 3,
      "note": 79,
      "start": 29.0463,
      "duration": 0.0134,
      "velocity": 94,
      "chip": "ym2612"
    },
    {
      "channel": 2,
      "note": 57,
      "start": 29.0474,
      "duration": 0.0157,
      "velocity": 100,
      "chip": "ym2612"
    },
    {
      "channel": 1,
      "note": 105,
      "start": 29.0556,
      "duration": 0.0161,
      "velocity": 105,
      "chip": "ym2612"
    },
    {
      "channel": 0,
      "note": 40,
      "start": 29.0573,
      "duration": 0.0161,
      "velocity": 115,
      "chip": "ym2612"
    },
    {
      "channel": 4,
      "note": 81,
      "start": 29.0585,
      "duration": 0.0161,
      "velocity": 94,
      "chip": "ym2612"
    },
    {
      "channel": 3,
      "note": 79,
      "start": 29.0597,
      "duration": 0.0161,
      "velocity": 94,
      "chip": "ym2612"
    },
    {
      "channel": 2,
      "note": 57,
      "start": 29.0632,
      "duration": 0.0141,
      "velocity": 100,
      "chip": "ym2612"
    },
    {
      "channel": 1,
      "note": 105,
      "start": 29.0717,
      "duration": 0.0161,
      "velocity": 105,
      "chip": "ym2612"
    },
    {
      "channel": 0,
      "note": 41,
      "start": 29.0734,
      "duration": 0.0161,
      "velocity": 115,
      "chip": "ym2612"
    },
    {
      "channel": 4,
      "note": 81,
      "start": 29.0746,
      "duration": 0.0161,
      "velocity": 94,
      "chip": "ym2612"
    },
    {
      "channel": 3,
      "note": 79,
      "start": 29.0758,
      "duration": 0.0161,
      "velocity": 94,
      "chip": "ym2612"
    },
    {
      "channel": 2,
      "note": 57,
      "start": 29.0772,
      "duration": 0.0157,
      "velocity": 100,
      "chip": "ym2612"
    },
    {
      "channel": 1,
      "note": 105,
      "start": 29.0878,
      "duration": 0.0161,
      "velocity": 105,
      "chip": "ym2612"
    },
    {
      "channel": 0,
      "note": 41,
      "start": 29.0895,
      "duration": 0.0161,
      "velocity": 115,
      "chip": "ym2612"
    },
    {
      "channel": 4,
      "note": 81,
      "start": 29.0907,
      "duration": 0.0161,
      "velocity": 94,
      "chip": "ym2612"
    },
    {
      "channel": 3,
      "note": 79,
      "start": 29.0918,
      "duration": 0.0161,
      "velocity": 94,
      "chip": "ym2612"
    },
    {
      "channel": 2,
      "note": 57,
      "start": 29.0929,
      "duration": 0.0161,
      "velocity": 100,
      "chip": "ym2612"
    },
    {
      "channel": 1,
      "note": 105,
      "start": 29.1039,
      "duration": 0.0178,
      "velocity": 124,
      "chip": "ym2612"
    },
    {
      "channel": 0,
      "note": 42,
      "start": 29.1056,
      "duration": 0.0179,
      "velocity": 115,
      "chip": "ym2612"
    },
    {
      "channel": 4,
      "note": 81,
      "start": 29.1068,
      "duration": 0.0179,
      "velocity": 94,
      "chip": "ym2612"
    },
    {
      "channel": 3,
      "note": 79,
      "start": 29.1079,
      "duration": 0.0181,
      "velocity": 94,
      "chip": "ym2612"
    },
    {
      "channel": 2,
      "note": 57,
      "start": 29.109,
      "duration": 0.0208,
      "velocity": 100,
      "chip": "ym2612"
    },
    {
      "channel": 1,
      "note": 64,
      "start": 29.1218,
      "duration": 0.0144,
      "velocity": 124,
      "chip": "ym2612"
    },
    {
      "channel": 0,
      "note": 42,
      "start": 29.1235,
      "duration": 0.0144,
      "velocity": 115,
      "chip": "ym2612"
    },
    {
      "channel": 4,
      "note": 81,
      "start": 29.1247,
      "duration": 0.0144,
      "velocity": 94,
      "chip": "ym2612"
    },
    {
      "channel": 3,
      "note": 81,
      "start": 29.1261,
      "duration": 0.0142,
      "velocity": 94,
      "chip": "ym2612"
    },
    {
      "channel": 2,
      "note": 57,
      "start": 29.1299,
      "duration": 0.0116,
      "velocity": 100,
      "chip": "ym2612"
    },
    {
      "channel": 1,
      "note": 64,
      "start": 29.1362,
      "duration": 0.016,
      "velocity": 124,
      "chip": "ym2612"
    },
    {
      "channel": 0,
      "note": 43,
      "start": 29.1379,
      "duration": 0.016,
      "velocity": 115,
      "chip": "ym2612"
    },
    {
      "channel": 4,
      "note": 81,
      "start": 29.139,
      "duration": 0.0161,
      "velocity": 94,
      "chip": "ym2612"
    },
    {
      "channel": 3,
      "note": 81,
      "start": 29.1402,
      "duration": 0.016,
      "velocity": 94,
      "chip": "ym2612"
    },
    {
      "channel": 2,
      "note": 57,
      "start": 29.1415,
      "duration": 0.0159,
      "velocity": 100,
      "chip": "ym2612"
    },
    {
      "channel": 1,
      "note": 64,
      "start": 29.1523,
      "duration": 0.0161,
      "velocity": 124,
      "chip": "ym2612"
    },
    {
      "channel": 0,
      "note": 43,
      "start": 29.1539,
      "duration": 0.0161,
      "velocity": 115,
      "chip": "ym2612"
    },
    {
      "channel": 4,
      "note": 81,
      "start": 29.1551,
      "duration": 0.0161,
      "velocity": 94,
      "chip": "ym2612"
    },
    {
      "channel": 3,
      "note": 81,
      "start": 29.1563,
      "duration": 0.0161,
      "velocity": 94,
      "chip": "ym2612"
    },
    {
      "channel": 2,
      "note": 57,
      "start": 29.1574,
      "duration": 0.0161,
      "velocity": 100,
      "chip": "ym2612"
    },
    {
      "channel": 1,
      "note": 64,
      "start": 29.1684,
      "duration": 0.0161,
      "velocity": 124,
      "chip": "ym2612"
    },
    {
      "channel": 0,
      "note": 44,
      "start": 29.17,
      "duration": 0.0161,
      "velocity": 115,
      "chip": "ym2612"
    },
    {
      "channel": 4,
      "note": 81,
      "start": 29.1712,
      "duration": 0.0161,
      "velocity": 94,
      "chip": "ym2612"
    },
    {
      "channel": 3,
      "note": 81,
      "start": 29.1724,
      "duration": 0.0161,
      "velocity": 94,
      "chip": "ym2612"
    },
    {
      "channel": 2,
      "note": 57,
      "start": 29.1735,
      "duration": 0.0161,
      "velocity": 100,
      "chip": "ym2612"
    },
    {
      "channel": 1,
      "note": 64,
      "start": 29.1845,
      "duration": 0.0161,
      "velocity": 124,
      "chip": "ym2612"
    },
    {
      "channel": 0,
      "note": 44,
      "start": 29.1861,
      "duration": 0.0161,
      "velocity": 115,
      "chip": "ym2612"
    },
    {
      "channel": 4,
      "note": 81,
      "start": 29.1873,
      "duration": 0.0161,
      "velocity": 94,
      "chip": "ym2612"
    },
    {
      "channel": 3,
      "note": 81,
      "start": 29.1885,
      "duration": 0.0161,
      "velocity": 94,
      "chip": "ym2612"
    },
    {
      "channel": 2,
      "note": 57,
      "start": 29.1895,
      "duration": 0.0161,
      "velocity": 100,
      "chip": "ym2612"
    },
    {
      "channel": 1,
      "note": 64,
      "start": 29.2006,
      "duration": 0.0161,
      "velocity": 124,
      "chip": "ym2612"
    },
    {
      "channel": 0,
      "note": 44,
      "start": 29.2022,
      "duration": 0.0161,
      "velocity": 115,
      "chip": "ym2612"
    },
    {
      "channel": 4,
      "note": 81,
      "start": 29.2034,
      "duration": 0.0161,
      "velocity": 94,
      "chip": "ym2612"
    },
    {
      "channel": 3,
      "note": 81,
      "start": 29.2046,
      "duration": 0.0161,
      "velocity": 94,
      "chip": "ym2612"
    },
    {
      "channel": 2,
      "note": 57,
      "start": 29.2056,
      "duration": 0.0162,
      "velocity": 100,
      "chip": "ym2612"
    },
    {
      "channel": 1,
      "note": 64,
      "start": 29.2166,
      "duration": 0.0178,
      "velocity": 105,
      "chip": "ym2612"
    },
    {
      "channel": 0,
      "note": 45,
      "start": 29.2184,
      "duration": 0.0178,
      "velocity": 115,
      "chip": "ym2612"
    },
    {
      "channel": 4,
      "note": 81,
      "start": 29.2195,
      "duration": 0.0178,
      "velocity": 94,
      "chip": "ym2612"
    },
    {
      "channel": 3,
      "note": 81,
      "start": 29.2207,
      "duration": 0.0178,
      "velocity": 94,
      "chip": "ym2612"
    },
    {
      "channel": 2,
      "note": 57,
      "start": 29.2218,
      "duration": 0.018,
      "velocity": 100,
      "chip": "ym2612"
    },
    {
      "channel": 1,
      "note": 105,
      "start": 29.2345,
      "duration": 0.0144,
      "velocity": 105,
      "chip": "ym2612"
    },
    {
      "channel": 0,
      "note": 45,
      "start": 29.2362,
      "duration": 0.0144,
      "velocity": 115,
      "chip": "ym2612"
    },
    {
      "channel": 4,
      "note": 81,
      "start": 29.2373,
      "duration": 0.0144,
      "velocity": 94,
      "chip": "ym2612"
    },
    {
      "channel": 3,
      "note": 81,
      "start": 29.2385,
      "duration": 0.0144,
      "velocity": 94,
      "chip": "ym2612"
    },
    {
      "channel": 2,
      "note": 57,
      "start": 29.2399,
      "duration": 0.0142,
      "velocity": 100,
      "chip": "ym2612"
    },
    {
      "channel": 1,
      "note": 105,
      "start": 29.2489,
      "duration": 0.0161,
      "velocity": 105,
      "chip": "ym2612"
    },
    {
      "channel": 0,
      "note": 46,
      "start": 29.2506,
      "duration": 0.016,
      "velocity": 115,
      "chip": "ym2612"
    },
    {
      "channel": 4,
      "note": 81,
      "start": 29.2518,
      "duration": 0.016,
      "velocity": 94,
      "chip": "ym2612"
    },
    {
      "channel": 3,
      "note": 81,
      "start": 29.2529,
      "duration": 0.016,
      "velocity": 94,
      "chip": "ym2612"
    },
    {
      "channel": 2,
      "note": 57,
      "start": 29.2541,
      "duration": 0.016,
      "velocity": 100,
      "chip": "ym2612"
    },
    {
      "channel": 1,
      "note": 105,
      "start": 29.265,
      "duration": 0.0161,
      "velocity": 105,
      "chip": "ym2612"
    },
    {
      "channel": 0,
      "note": 46,
      "start": 29.2666,
      "duration": 0.0161,
      "velocity": 115,
      "chip": "ym2612"
    },
    {
      "channel": 4,
      "note": 81,
      "start": 29.2678,
      "duration": 0.0161,
      "velocity": 94,
      "chip": "ym2612"
    },
    {
      "channel": 3,
      "note": 81,
      "start": 29.2689,
      "duration": 0.0161,
      "velocity": 94,
      "chip": "ym2612"
    },
    {
      "channel": 2,
      "note": 57,
      "start": 29.2701,
      "duration": 0.0161,
      "velocity": 100,
      "chip": "ym2612"
    },
    {
      "channel": 1,
      "note": 105,
      "start": 29.2811,
      "duration": 0.0162,
      "velocity": 105,
      "chip": "ym2612"
    },
    {
      "channel": 0,
      "note": 47,
      "start": 29.2827,
      "duration": 0.0162,
      "velocity": 115,
      "chip": "ym2612"
    },
    {
      "channel": 4,
      "note": 81,
      "start": 29.2839,
      "duration": 0.0162,
      "velocity": 94,
      "chip": "ym2612"
    },
    {
      "channel": 3,
      "note": 81,
      "start": 29.285,
      "duration": 0.0162,
      "velocity": 94,
      "chip": "ym2612"
    },
    {
      "channel": 2,
      "note": 57,
      "start": 29.2862,
      "duration": 0.0162,
      "velocity": 100,
      "chip": "ym2612"
    },
    {
      "channel": 1,
      "note": 105,
      "start": 29.2973,
      "duration": 0.0167,
      "velocity": 105,
      "chip": "ym2612"
    },
    {
      "channel": 0,
      "note": 47,
      "start": 29.299,
      "duration": 0.0167,
      "velocity": 115,
      "chip": "ym2612"
    },
    {
      "channel": 4,
      "note": 81,
      "start": 29.3001,
      "duration": 0.0167,
      "velocity": 94,
      "chip": "ym2612"
    },
    {
      "channel": 3,
      "note": 81,
      "start": 29.3013,
      "duration": 0.0167,
      "velocity": 94,
      "chip": "ym2612"
    },
    {
      "channel": 2,
      "note": 57,
      "start": 29.3024,
      "duration": 0.0167,
      "velocity": 100,
      "chip": "ym2612"
    },
    {
      "channel": 1,
      "note": 105,
      "start": 29.314,
      "duration": 0.0163,
      "velocity": 105,
      "chip": "ym2612"
    },
    {
      "channel": 0,
      "note": 47,
      "start": 29.3156,
      "duration": 0.0163,
      "velocity": 115,
      "chip": "ym2612"
    },
    {
      "channel": 4,
      "note": 81,
      "start": 29.3168,
      "duration": 0.0163,
      "velocity": 94,
      "chip": "ym2612"
    },
    {
      "channel": 3,
      "note": 81,
      "start": 29.3179,
      "duration": 0.0163,
      "velocity": 94,
      "chip": "ym2612"
    },
    {
      "channel": 2,
      "note": 57,
      "start": 29.3191,
      "duration": 0.0163,
      "velocity": 100,
      "chip": "ym2612"
    },
    {
      "channel": 1,
      "note": 105,
      "start": 29.3303,
      "duration": 0.0174,
      "velocity": 124,
      "chip": "ym2612"
    },
    {
      "channel": 0,
      "note": 48,
      "start": 29.3319,
      "duration": 0.0183,
      "velocity": 115,
      "chip": "ym2612"
    },
    {
      "channel": 4,
      "note": 81,
      "start": 29.3331,
      "duration": 0.0183,
      "velocity": 94,
      "chip": "ym2612"
    },
    {
      "channel": 3,
      "note": 81,
      "start": 29.3342,
      "duration": 0.0183,
      "velocity": 94,
      "chip": "ym2612"
    },
    {
      "channel": 2,
      "note": 57,
      "start": 29.3354,
      "duration": 0.0185,
      "velocity": 100,
      "chip": "ym2612"
    },
    {
      "channel": 1,
      "note": 78,
      "start": 29.3478,
      "duration": 0.0168,
      "velocity": 124,
      "chip": "ym2612"
    },
    {
      "channel": 0,
      "note": 48,
      "start": 29.3502,
      "duration": 0.0163,
      "velocity": 115,
      "chip": "ym2612"
    },
    {
      "channel": 4,
      "note": 81,
      "start": 29.3513,
      "duration": 0.0163,
      "velocity": 94,
      "chip": "ym2612"
    },
    {
      "channel": 3,
      "note": 81,
      "start": 29.3525,
      "duration": 0.0163,
      "velocity": 94,
      "chip": "ym2612"
    },
    {
      "channel": 2,
      "note": 57,
      "start": 29.3539,
      "duration": 0.016,
      "velocity": 100,
      "chip": "ym2612"
    },
    {
      "channel": 1,
      "note": 76,
      "start": 29.3646,
      "duration": 0.0163,
      "velocity": 124,
      "chip": "ym2612"
    },
    {
      "channel": 0,
      "note": 49,
      "start": 29.3665,
      "duration": 0.0155,
      "velocity": 1,
      "chip": "ym2612"
    },
    {
      "channel": 4,
      "note": 81,
      "start": 29.3676,
      "duration": 0.0155,
      "velocity": 94,
      "chip": "ym2612"
    },
    {
      "channel": 3,
      "note": 81,
      "start": 29.3688,
      "duration": 0.0155,
      "velocity": 94,
      "chip": "ym2612"
    },
    {
      "channel": 2,
      "note": 57,
      "start": 29.37,
      "duration": 0.0155,
      "velocity": 100,
      "chip": "ym2612"
    },
    {
      "channel": 1,
      "note": 75,
      "start": 29.3809,
      "duration": 0.0158,
      "velocity": 124,
      "chip": "ym2612"
    },
    {
      "channel": 4,
      "note": 81,
      "start": 29.3831,
      "duration": 0.0149,
      "velocity": 94,
      "chip": "ym2612"
    },
    {
      "channel": 3,
      "note": 81,
      "start": 29.3843,
      "duration": 0.015,
      "velocity": 94,
      "chip": "ym2612"
    },
    {
      "channel": 2,
      "note": 57,
      "start": 29.3854,
      "duration": 0.0149,
      "velocity": 100,
      "chip": "ym2612"
    },
    {
      "channel": 1,
      "note": 74,
      "start": 29.3967,
      "duration": 0.014,
      "velocity": 124,
      "chip": "ym2612"
    },
    {
      "channel": 4,
      "note": 81,
      "start": 29.3981,
      "duration": 0.014,
      "velocity": 94,
      "chip": "ym2612"
    },
    {
      "channel": 3,
      "note": 81,
      "start": 29.3992,
      "duration": 0.014,
      "velocity": 94,
      "chip": "ym2612"
    },
    {
      "channel": 2,
      "note": 57,
      "start": 29.4003,
      "duration": 0.0141,
      "velocity": 100,
      "chip": "ym2612"
    },
    {
      "channel": 1,
      "note": 72,
      "start": 29.4107,
      "duration": 0.0185,
      "velocity": 124,
      "chip": "ym2612"
    },
    {
      "channel": 4,
      "note": 81,
      "start": 29.4121,
      "duration": 0.0185,
      "velocity": 94,
      "chip": "ym2612"
    },
    {
      "channel": 3,
      "note": 81,
      "start": 29.4132,
      "duration": 0.0185,
      "velocity": 94,
      "chip": "ym2612"
    },
    {
      "channel": 2,
      "note": 57,
      "start": 29.4144,
      "duration": 0.0185,
      "velocity": 100,
      "chip": "ym2612"
    },
    {
      "channel": 1,
      "note": 71,
      "start": 29.4292,
      "duration": 0.0134,
      "velocity": 124,
      "chip": "ym2612"
    },
    {
      "channel": 4,
      "note": 81,
      "start": 29.4306,
      "duration": 0.0161,
      "velocity": 94,
      "chip": "ym2612"
    },
    {
      "channel": 3,
      "note": 81,
      "start": 29.4317,
      "duration": 0.0161,
      "velocity": 94,
      "chip": "ym2612"
    },
    {
      "channel": 2,
      "note": 57,
      "start": 29.4329,
      "duration": 0.0161,
      "velocity": 100,
      "chip": "ym2612"
    },
    {
      "channel": 1,
      "note": 70,
      "start": 29.4425,
      "duration": 0.0162,
      "velocity": 124,
      "chip": "ym2612"
    },
    {
      "channel": 4,
      "note": 81,
      "start": 29.4467,
      "duration": 0.0163,
      "velocity": 94,
      "chip": "ym2612"
    },
    {
      "channel": 3,
      "note": 81,
      "start": 29.4478,
      "duration": 0.0163,
      "velocity": 94,
      "chip": "ym2612"
    },
    {
      "channel": 2,
      "note": 57,
      "start": 29.449,
      "duration": 0.0166,
      "velocity": 100,
      "chip": "ym2612"
    },
    {
      "channel": 1,
      "note": 69,
      "start": 29.4587,
      "duration": 0.0161,
      "velocity": 124,
      "chip": "ym2612"
    },
    {
      "channel": 4,
      "note": 81,
      "start": 29.463,
      "duration": 0.0132,
      "velocity": 94,
      "chip": "ym2612"
    },
    {
      "channel": 3,
      "note": 81,
      "start": 29.4642,
      "duration": 0.0135,
      "velocity": 94,
      "chip": "ym2612"
    },
    {
      "channel": 2,
      "note": 57,
      "start": 29.4656,
      "duration": 0.0133,
      "velocity": 100,
      "chip": "ym2612"
    },
    {
      "channel": 1,
      "note": 68,
      "start": 29.4748,
      "duration": 0.0161,
      "velocity": 124,
      "chip": "ym2612"
    },
    {
      "channel": 4,
      "note": 81,
      "start": 29.4762,
      "duration": 0.0161,
      "velocity": 94,
      "chip": "ym2612"
    },
    {
      "channel": 3,
      "note": 81,
      "start": 29.4777,
      "duration": 0.0185,
      "velocity": 94,
      "chip": "ym2612"
    },
    {
      "channel": 2,
      "note": 57,
      "start": 29.4789,
      "duration": 0.0185,
      "velocity": 100,
      "chip": "ym2612"
    },
    {
      "channel": 1,
      "note": 66,
      "start": 29.4909,
      "duration": 0.0161,
      "velocity": 124,
      "chip": "ym2612"
    },
    {
      "channel": 4,
      "note": 81,
      "start": 29.4923,
      "duration": 0.0161,
      "velocity": 94,
      "chip": "ym2612"
    },
    {
      "channel": 3,
      "note": 81,
      "start": 29.4962,
      "duration": 0.0134,
      "velocity": 94,
      "chip": "ym2612"
    },
    {
      "channel": 2,
      "note": 57,
      "start": 29.4973,
      "duration": 0.0161,
      "velocity": 100,
      "chip": "ym2612"
    },
    {
      "channel": 1,
      "note": 65,
      "start": 29.507,
      "duration": 0.0161,
      "velocity": 124,
      "chip": "ym2612"
    },
    {
      "channel": 4,
      "note": 81,
      "start": 29.5084,
      "duration": 0.0161,
      "velocity": 94,
      "chip": "ym2612"
    },
    {
      "channel": 3,
      "note": 81,
      "start": 29.5095,
      "duration": 0.0161,
      "velocity": 94,
      "chip": "ym2612"
    },
    {
      "channel": 2,
      "note": 57,
      "start": 29.5134,
      "duration": 0.0157,
      "velocity": 100,
      "chip": "ym2612"
    },
    {
      "channel": 1,
      "note": 64,
      "start": 29.5231,
      "duration": 0.0161,
      "velocity": 124,
      "chip": "ym2612"
    },
    {
      "channel": 4,
      "note": 81,
      "start": 29.5245,
      "duration": 0.0161,
      "velocity": 94,
      "chip": "ym2612"
    },
    {
      "channel": 3,
      "note": 81,
      "start": 29.5256,
      "duration": 0.0161,
      "velocity": 94,
      "chip": "ym2612"
    },
    {
      "channel": 2,
      "note": 57,
      "start": 29.5291,
      "duration": 0.0137,
      "velocity": 100,
      "chip": "ym2612"
    },
    {
      "channel": 1,
      "note": 62,
      "start": 29.5392,
      "duration": 0.0161,
      "velocity": 124,
      "chip": "ym2612"
    },
    {
      "channel": 4,
      "note": 81,
      "start": 29.5406,
      "duration": 0.0161,
      "velocity": 94,
      "chip": "ym2612"
    },
    {
      "channel": 3,
      "note": 81,
      "start": 29.5417,
      "duration": 0.0161,
      "velocity": 94,
      "chip": "ym2612"
    },
    {
      "channel": 2,
      "note": 57,
      "start": 29.5429,
      "duration": 0.0161,
      "velocity": 100,
      "chip": "ym2612"
    },
    {
      "channel": 1,
      "note": 61,
      "start": 29.5553,
      "duration": 0.0161,
      "velocity": 124,
      "chip": "ym2612"
    },
    {
      "channel": 4,
      "note": 81,
      "start": 29.5567,
      "duration": 0.0166,
      "velocity": 94,
      "chip": "ym2612"
    },
    {
      "channel": 3,
      "note": 81,
      "start": 29.5578,
      "duration": 0.0166,
      "velocity": 94,
      "chip": "ym2612"
    },
    {
      "channel": 2,
      "note": 57,
      "start": 29.559,
      "duration": 0.0168,
      "velocity": 100,
      "chip": "ym2612"
    },
    {
      "channel": 1,
      "note": 60,
      "start": 29.5714,
      "duration": 0.0161,
      "velocity": 124,
      "chip": "ym2612"
    },
    {
      "channel": 4,
      "note": 81,
      "start": 29.5733,
      "duration": 0.0156,
      "velocity": 94,
      "chip": "ym2612"
    },
    {
      "channel": 3,
      "note": 81,
      "start": 29.5744,
      "duration": 0.0156,
      "velocity": 94,
      "chip": "ym2612"
    },
    {
      "channel": 2,
      "note": 57,
      "start": 29.5759,
      "duration": 0.0154,
      "velocity": 100,
      "chip": "ym2612"
    },
    {
      "channel": 1,
      "note": 59,
      "start": 29.5875,
      "duration": 0.0161,
      "velocity": 124,
      "chip": "ym2612"
    },
    {
      "channel": 4,
      "note": 81,
      "start": 29.5889,
      "duration": 0.016,
      "velocity": 94,
      "chip": "ym2612"
    },
    {
      "channel": 3,
      "note": 81,
      "start": 29.5901,
      "duration": 0.016,
      "velocity": 94,
      "chip": "ym2612"
    },
    {
      "channel": 2,
      "note": 57,
      "start": 29.5913,
      "duration": 0.016,
      "velocity": 100,
      "chip": "ym2612"
    },
    {
      "channel": 1,
      "note": 57,
      "start": 29.6036,
      "duration": 0.0161,
      "velocity": 124,
      "chip": "ym2612"
    },
    {
      "channel": 4,
      "note": 81,
      "start": 29.6049,
      "duration": 0.0161,
      "velocity": 94,
      "chip": "ym2612"
    },
    {
      "channel": 3,
      "note": 81,
      "start": 29.6061,
      "duration": 0.0161,
      "velocity": 94,
      "chip": "ym2612"
    },
    {
      "channel": 2,
      "note": 57,
      "start": 29.6072,
      "duration": 0.0161,
      "velocity": 100,
      "chip": "ym2612"
    },
    {
      "channel": 1,
      "note": 56,
      "start": 29.6197,
      "duration": 0.0161,
      "velocity": 124,
      "chip": "ym2612"
    },
    {
      "channel": 4,
      "note": 81,
      "start": 29.621,
      "duration": 0.0162,
      "velocity": 94,
      "chip": "ym2612"
    },
    {
      "channel": 3,
      "note": 81,
      "start": 29.6222,
      "duration": 0.0162,
      "velocity": 94,
      "chip": "ym2612"
    },
    {
      "channel": 2,
      "note": 57,
      "start": 29.6233,
      "duration": 0.0162,
      "velocity": 100,
      "chip": "ym2612"
    },
    {
      "channel": 1,
      "note": 55,
      "start": 29.6358,
      "duration": 0.0161,
      "velocity": 124,
      "chip": "ym2612"
    },
    {
      "channel": 4,
      "note": 81,
      "start": 29.6372,
      "duration": 0.0161,
      "velocity": 94,
      "chip": "ym2612"
    },
    {
      "channel": 3,
      "note": 81,
      "start": 29.6383,
      "duration": 0.0161,
      "velocity": 94,
      "chip": "ym2612"
    },
    {
      "channel": 2,
      "note": 57,
      "start": 29.6395,
      "duration": 0.0161,
      "velocity": 100,
      "chip": "ym2612"
    },
    {
      "channel": 1,
      "note": 53,
      "start": 29.6519,
      "duration": 0.0161,
      "velocity": 124,
      "chip": "ym2612"
    },
    {
      "channel": 4,
      "note": 81,
      "start": 29.6533,
      "duration": 0.0161,
      "velocity": 94,
      "chip": "ym2612"
    },
    {
      "channel": 3,
      "note": 81,
      "start": 29.6544,
      "duration": 0.0161,
      "velocity": 94,
      "chip": "ym2612"
    },
    {
      "channel": 2,
      "note": 57,
      "start": 29.6556,
      "duration": 0.0161,
      "velocity": 100,
      "chip": "ym2612"
    },
    {
      "channel": 1,
      "note": 52,
      "start": 29.668,
      "duration": 0.0161,
      "velocity": 124,
      "chip": "ym2612"
    },
    {
      "channel": 4,
      "note": 81,
      "start": 29.6694,
      "duration": 0.0203,
      "velocity": 94,
      "chip": "ym2612"
    },
    {
      "channel": 3,
      "note": 81,
      "start": 29.6705,
      "duration": 0.0203,
      "velocity": 94,
      "chip": "ym2612"
    },
    {
      "channel": 2,
      "note": 57,
      "start": 29.6717,
      "duration": 0.0206,
      "velocity": 100,
      "chip": "ym2612"
    },
    {
      "channel": 1,
      "note": 51,
      "start": 29.6841,
      "duration": 0.0153,
      "velocity": 1,
      "chip": "ym2612"
    },
    {
      "channel": 0,
      "note": 36,
      "start": 29.6883,
      "duration": 0.015,
      "velocity": 115,
      "chip": "ym2612"
    },
    {
      "channel": 4,
      "note": 84,
      "start": 29.6898,
      "duration": 0.0148,
      "velocity": 94,
      "chip": "ym2612"
    },
    {
      "channel": 3,
      "note": 81,
      "start": 29.6909,
      "duration": 0.0148,
      "velocity": 94,
      "chip": "ym2612"
    },
    {
      "channel": 2,
      "note": 57,
      "start": 29.6923,
      "duration": 0.0146,
      "velocity": 100,
      "chip": "ym2612"
    },
    {
      "channel": 1,
      "note": 51,
      "start": 29.7016,
      "duration": 0.0142,
      "velocity": 105,
      "chip": "ym2612"
    },
    {
      "channel": 0,
      "note": 36,
      "start": 29.7033,
      "duration": 0.0142,
      "velocity": 115,
      "chip": "ym2612"
    },
    {
      "channel": 4,
      "note": 84,
      "start": 29.7045,
      "duration": 0.0141,
      "velocity": 94,
      "chip": "ym2612"
    },
    {
      "channel": 3,
      "note": 81,
      "start": 29.7056,
      "duration": 0.0141,
      "velocity": 94,
      "chip": "ym2612"
    },
    {
      "channel": 2,
      "note": 57,
      "start": 29.7068,
      "duration": 0.0141,
      "velocity": 100,
      "chip": "ym2612"
    },
    {
      "channel": 1,
      "note": 105,
      "start": 29.7158,
      "duration": 0.0161,
      "velocity": 105,
      "chip": "ym2612"
    },
    {
      "channel": 0,
      "note": 37,
      "start": 29.7175,
      "duration": 0.0161,
      "velocity": 115,
      "chip": "ym2612"
    },
    {
      "channel": 4,
      "note": 84,
      "start": 29.7186,
      "duration": 0.0161,
      "velocity": 94,
      "chip": "ym2612"
    },
    {
      "channel": 3,
      "note": 81,
      "start": 29.7198,
      "duration": 0.0161,
      "velocity": 94,
      "chip": "ym2612"
    },
    {
      "channel": 2,
      "note": 57,
      "start": 29.7209,
      "duration": 0.0161,
      "velocity": 100,
      "chip": "ym2612"
    },
    {
      "channel": 1,
      "note": 105,
      "start": 29.7319,
      "duration": 0.0161,
      "velocity": 105,
      "chip": "ym2612"
    },
    {
      "channel": 0,
      "note": 37,
      "start": 29.7336,
      "duration": 0.0161,
      "velocity": 115,
      "chip": "ym2612"
    },
    {
      "channel": 4,
      "note": 84,
      "start": 29.7347,
      "duration": 0.0161,
      "velocity": 94,
      "chip": "ym2612"
    },
    {
      "channel": 3,
      "note": 81,
      "start": 29.7359,
      "duration": 0.0161,
      "velocity": 94,
      "chip": "ym2612"
    },
    {
      "channel": 2,
      "note": 57,
      "start": 29.737,
      "duration": 0.0161,
      "velocity": 100,
      "chip": "ym2612"
    },
    {
      "channel": 1,
      "note": 105,
      "start": 29.748,
      "duration": 0.0161,
      "velocity": 105,
      "chip": "ym2612"
    },
    {
      "channel": 0,
      "note": 38,
      "start": 29.7497,
      "duration": 0.0161,
      "velocity": 115,
      "chip": "ym2612"
    },
    {
      "channel": 4,
      "note": 84,
      "start": 29.7508,
      "duration": 0.0161,
      "velocity": 94,
      "chip": "ym2612"
    },
    {
      "channel": 3,
      "note": 81,
      "start": 29.752,
      "duration": 0.0161,
      "velocity": 94,
      "chip": "ym2612"
    },
    {
      "channel": 2,
      "note": 57,
      "start": 29.7531,
      "duration": 0.0161,
      "velocity": 100,
      "chip": "ym2612"
    },
    {
      "channel": 1,
      "note": 105,
      "start": 29.7641,
      "duration": 0.0166,
      "velocity": 105,
      "chip": "ym2612"
    },
    {
      "channel": 0,
      "note": 38,
      "start": 29.7658,
      "duration": 0.0166,
      "velocity": 115,
      "chip": "ym2612"
    },
    {
      "channel": 4,
      "note": 84,
      "start": 29.7669,
      "duration": 0.0165,
      "velocity": 94,
      "chip": "ym2612"
    },
    {
      "channel": 3,
      "note": 81,
      "start": 29.768,
      "duration": 0.0166,
      "velocity": 94,
      "chip": "ym2612"
    },
    {
      "channel": 2,
      "note": 57,
      "start": 29.7692,
      "duration": 0.0165,
      "velocity": 100,
      "chip": "ym2612"
    },
    {
      "channel": 1,
      "note": 105,
      "start": 29.7807,
      "duration": 0.018,
      "velocity": 124,
      "chip": "ym2612"
    },
    {
      "channel": 0,
      "note": 39,
      "start": 29.7823,
      "duration": 0.0198,
      "velocity": 115,
      "chip": "ym2612"
    },
    {
      "channel": 4,
      "note": 84,
      "start": 29.7834,
      "duration": 0.0199,
      "velocity": 94,
      "chip": "ym2612"
    },
    {
      "channel": 3,
      "note": 81,
      "start": 29.7846,
      "duration": 0.0201,
      "velocity": 94,
      "chip": "ym2612"
    },
    {
      "channel": 2,
      "note": 57,
      "start": 29.7857,
      "duration": 0.0204,
      "velocity": 100,
      "chip": "ym2612"
    },
    {
      "channel": 1,
      "note": 64,
      "start": 29.7986,
      "duration": 0.0138,
      "velocity": 124,
      "chip": "ym2612"
    },
    {
      "channel": 0,
      "note": 36,
      "start": 29.8022,
      "duration": 0.0121,
      "velocity": 115,
      "chip": "ym2612"
    },
    {
      "channel": 4,
      "note": 84,
      "start": 29.8034,
      "duration": 0.012,
      "velocity": 94,
      "chip": "ym2612"
    },
    {
      "channel": 3,
      "note": 84,
      "start": 29.8048,
      "duration": 0.0118,
      "velocity": 94,
      "chip": "ym2612"
    },
    {
      "channel": 2,
      "note": 57,
      "start": 29.8062,
      "duration": 0.0116,
      "velocity": 100,
      "chip": "ym2612"
    },
    {
      "channel": 1,
      "note": 64,
      "start": 29.8124,
      "duration": 0.0182,
      "velocity": 124,
      "chip": "ym2612"
    },
    {
      "channel": 0,
      "note": 36,
      "start": 29.8142,
      "duration": 0.0181,
      "velocity": 115,
      "chip": "ym2612"
    },
    {
      "channel": 4,
      "note": 84,
      "start": 29.8154,
      "duration": 0.0181,
      "velocity": 94,
      "chip": "ym2612"
    },
    {
      "channel": 3,
      "note": 84,
      "start": 29.8166,
      "duration": 0.018,
      "velocity": 94,
      "chip": "ym2612"
    },
    {
      "channel": 2,
      "note": 57,
      "start": 29.8177,
      "duration": 0.018,
      "velocity": 100,
      "chip": "ym2612"
    },
    {
      "channel": 1,
      "note": 64,
      "start": 29.8307,
      "duration": 0.0167,
      "velocity": 124,
      "chip": "ym2612"
    },
    {
      "channel": 0,
      "note": 37,
      "start": 29.8323,
      "duration": 0.0167,
      "velocity": 115,
      "chip": "ym2612"
    },
    {
      "channel": 4,
      "note": 84,
      "start": 29.8334,
      "duration": 0.0167,
      "velocity": 94,
      "chip": "ym2612"
    },
    {
      "channel": 3,
      "note": 84,
      "start": 29.8346,
      "duration": 0.0167,
      "velocity": 94,
      "chip": "ym2612"
    },
    {
      "channel": 2,
      "note": 57,
      "start": 29.8357,
      "duration": 0.0167,
      "velocity": 100,
      "chip": "ym2612"
    },
    {
      "channel": 1,
      "note": 64,
      "start": 29.8473,
      "duration": 0.0158,
      "velocity": 124,
      "chip": "ym2612"
    },
    {
      "channel": 0,
      "note": 37,
      "start": 29.849,
      "duration": 0.0158,
      "velocity": 115,
      "chip": "ym2612"
    },
    {
      "channel": 4,
      "note": 84,
      "start": 29.8501,
      "duration": 0.0159,
      "velocity": 94,
      "chip": "ym2612"
    },
    {
      "channel": 3,
      "note": 84,
      "start": 29.8513,
      "duration": 0.0158,
      "velocity": 94,
      "chip": "ym2612"
    },
    {
      "channel": 2,
      "note": 57,
      "start": 29.8524,
      "duration": 0.0158,
      "velocity": 100,
      "chip": "ym2612"
    },
    {
      "channel": 1,
      "note": 64,
      "start": 29.8631,
      "duration": 0.0141,
      "velocity": 124,
      "chip": "ym2612"
    },
    {
      "channel": 0,
      "note": 38,
      "start": 29.8647,
      "duration": 0.0141,
      "velocity": 115,
      "chip": "ym2612"
    },
    {
      "channel": 4,
      "note": 84,
      "start": 29.866,
      "duration": 0.0141,
      "velocity": 94,
      "chip": "ym2612"
    },
    {
      "channel": 3,
      "note": 84,
      "start": 29.8671,
      "duration": 0.0141,
      "velocity": 94,
      "chip": "ym2612"
    },
    {
      "channel": 2,
      "note": 57,
      "start": 29.8682,
      "duration": 0.0141,
      "velocity": 100,
      "chip": "ym2612"
    },
    {
      "channel": 1,
      "note": 64,
      "start": 29.8771,
      "duration": 0.0158,
      "velocity": 124,
      "chip": "ym2612"
    },
    {
      "channel": 0,
      "note": 38,
      "start": 29.8788,
      "duration": 0.0185,
      "velocity": 115,
      "chip": "ym2612"
    },
    {
      "channel": 4,
      "note": 84,
      "start": 29.88,
      "duration": 0.0185,
      "velocity": 94,
      "chip": "ym2612"
    },
    {
      "channel": 3,
      "note": 84,
      "start": 29.8812,
      "duration": 0.0185,
      "velocity": 94,
      "chip": "ym2612"
    },
    {
      "channel": 2,
      "note": 57,
      "start": 29.8822,
      "duration": 0.0186,
      "velocity": 100,
      "chip": "ym2612"
    },
    {
      "channel": 1,
      "note": 64,
      "start": 29.8929,
      "duration": 0.0205,
      "velocity": 105,
      "chip": "ym2612"
    },
    {
      "channel": 0,
      "note": 39,
      "start": 29.8973,
      "duration": 0.0178,
      "velocity": 115,
      "chip": "ym2612"
    },
    {
      "channel": 4,
      "note": 84,
      "start": 29.8985,
      "duration": 0.0178,
      "velocity": 94,
      "chip": "ym2612"
    },
    {
      "channel": 3,
      "note": 84,
      "start": 29.8997,
      "duration": 0.0178,
      "velocity": 94,
      "chip": "ym2612"
    },
    {
      "channel": 2,
      "note": 57,
      "start": 29.9008,
      "duration": 0.0181,
      "velocity": 100,
      "chip": "ym2612"
    },
    {
      "channel": 1,
      "note": 105,
      "start": 29.9135,
      "duration": 0.0117,
      "velocity": 105,
      "chip": "ym2612"
    },
    {
      "channel": 0,
      "note": 39,
      "start": 29.9151,
      "duration": 0.0141,
      "velocity": 115,
      "chip": "ym2612"
    },
    {
      "channel": 4,
      "note": 84,
      "start": 29.9163,
      "duration": 0.0141,
      "velocity": 94,
      "chip": "ym2612"
    },
    {
      "channel": 3,
      "note": 84,
      "start": 29.9175,
      "duration": 0.0141,
      "velocity": 94,
      "chip": "ym2612"
    },
    {
      "channel": 2,
      "note": 57,
      "start": 29.9189,
      "duration": 0.0139,
      "velocity": 100,
      "chip": "ym2612"
    },
    {
      "channel": 1,
      "note": 105,
      "start": 29.9252,
      "duration": 0.016,
      "velocity": 105,
      "chip": "ym2612"
    },
    {
      "channel": 0,
      "note": 40,
      "start": 29.9293,
      "duration": 0.0136,
      "velocity": 115,
      "chip": "ym2612"
    },
    {
      "channel": 4,
      "note": 84,
      "start": 29.9304,
      "duration": 0.014,
      "velocity": 94,
      "chip": "ym2612"
    },
    {
      "channel": 3,
      "note": 84,
      "start": 29.9315,
      "duration": 0.014,
      "velocity": 94,
      "chip": "ym2612"
    },
    {
      "channel": 2,
      "note": 57,
      "start": 29.9327,
      "duration": 0.0139,
      "velocity": 100,
      "chip": "ym2612"
    },
    {
      "channel": 1,
      "note": 105,
      "start": 29.9412,
      "duration": 0.0161,
      "velocity": 105,
      "chip": "ym2612"
    },
    {
      "channel": 0,
      "note": 40,
      "start": 29.9429,
      "duration": 0.0161,
      "velocity": 115,
      "chip": "ym2612"
    },
    {
      "channel": 4,
      "note": 84,
      "start": 29.9444,
      "duration": 0.0185,
      "velocity": 94,
      "chip": "ym2612"
    },
    {
      "channel": 3,
      "note": 84,
      "start": 29.9455,
      "duration": 0.0185,
      "velocity": 94,
      "chip": "ym2612"
    },
    {
      "channel": 2,
      "note": 57,
      "start": 29.9467,
      "duration": 0.0185,
      "velocity": 100,
      "chip": "ym2612"
    },
    {
      "channel": 1,
      "note": 105,
      "start": 29.9573,
      "duration": 0.0161,
      "velocity": 105,
      "chip": "ym2612"
    },
    {
      "channel": 0,
      "note": 40,
      "start": 29.959,
      "duration": 0.0161,
      "velocity": 115,
      "chip": "ym2612"
    },
    {
      "channel": 4,
      "note": 84,
      "start": 29.9629,
      "duration": 0.0134,
      "velocity": 94,
      "chip": "ym2612"
    },
    {
      "channel": 3,
      "note": 84,
      "start": 29.964,
      "duration": 0.0161,
      "velocity": 94,
      "chip": "ym2612"
    },
    {
      "channel": 2,
      "note": 57,
      "start": 29.9652,
      "duration": 0.0161,
      "velocity": 100,
      "chip": "ym2612"
    },
    {
      "channel": 1,
      "note": 105,
      "start": 29.9734,
      "duration": 0.0161,
      "velocity": 105,
      "chip": "ym2612"
    },
    {
      "channel": 0,
      "note": 41,
      "start": 29.9751,
      "duration": 0.0161,
      "velocity": 115,
      "chip": "ym2612"
    },
    {
      "channel": 4,
      "note": 84,
      "start": 29.9763,
      "duration": 0.0161,
      "velocity": 94,
      "chip": "ym2612"
    },
    {
      "channel": 3,
      "note": 84,
      "start": 29.9801,
      "duration": 0.0157,
      "velocity": 94,
      "chip": "ym2612"
    },
    {
      "channel": 2,
      "note": 57,
      "start": 29.9813,
      "duration": 0.0157,
      "velocity": 100,
      "chip": "ym2612"
    },
    {
      "channel": 1,
      "note": 105,
      "start": 29.9895,
      "duration": 0.0161,
      "velocity": 105,
      "chip": "ym2612"
    },
    {
      "channel": 0,
      "note": 41,
      "start": 29.9911,
      "duration": 0.0162,
      "velocity": 115,
      "chip": "ym2612"
    },
    {
      "channel": 4,
      "note": 84,
      "start": 29.9924,
      "duration": 0.0161,
      "velocity": 94,
      "chip": "ym2612"
    },
    {
      "channel": 3,
      "note": 84,
      "start": 29.9959,
      "duration": 0.0137,
      "velocity": 94,
      "chip": "ym2612"
    },
    {
      "channel": 2,
      "note": 57,
      "start": 29.997,
      "duration": 0.0141,
      "velocity": 100,
      "chip": "ym2612"
    },
    {
      "channel": 1,
      "note": 105,
      "start": 30.0056,
      "duration": 0.0178,
      "velocity": 124,
      "chip": "ym2612"
    },
    {
      "channel": 0,
      "note": 42,
      "start": 30.0073,
      "duration": 0.0178,
      "velocity": 115,
      "chip": "ym2612"
    },
    {
      "channel": 4,
      "note": 84,
      "start": 30.0085,
      "duration": 0.0179,
      "velocity": 94,
      "chip": "ym2612"
    },
    {
      "channel": 3,
      "note": 84,
      "start": 30.0096,
      "duration": 0.0206,
      "velocity": 94,
      "chip": "ym2612"
    },
    {
      "channel": 2,
      "note": 57,
      "start": 30.0111,
      "duration": 0.0205,
      "velocity": 100,
      "chip": "ym2612"
    },
    {
      "channel": 1,
      "note": 64,
      "start": 30.0235,
      "duration": 0.0144,
      "velocity": 124,
      "chip": "ym2612"
    },
    {
      "channel": 0,
      "note": 42,
      "start": 30.0251,
      "duration": 0.0144,
      "velocity": 115,
      "chip": "ym2612"
    },
    {
      "channel": 4,
      "note": 84,
      "start": 30.0263,
      "duration": 0.0144,
      "velocity": 94,
      "chip": "ym2612"
    },
    {
      "channel": 3,
      "note": 84,
      "start": 30.0302,
      "duration": 0.0116,
      "velocity": 94,
      "chip": "ym2612"
    },
    {
      "channel": 2,
      "note": 57,
      "start": 30.0317,
      "duration": 0.0114,
      "velocity": 100,
      "chip": "ym2612"
    },
    {
      "channel": 1,
      "note": 64,
      "start": 30.0379,
      "duration": 0.016,
      "velocity": 124,
      "chip": "ym2612"
    },
    {
      "channel": 0,
      "note": 43,
      "start": 30.0395,
      "duration": 0.016,
      "velocity": 115,
      "chip": "ym2612"
    },
    {
      "channel": 4,
      "note": 84,
      "start": 30.0407,
      "duration": 0.0161,
      "velocity": 94,
      "chip": "ym2612"
    },
    {
      "channel": 3,
      "note": 84,
      "start": 30.0418,
      "duration": 0.0161,
      "velocity": 94,
      "chip": "ym2612"
    },
    {
      "channel": 2,
      "note": 57,
      "start": 30.0431,
      "duration": 0.016,
      "velocity": 100,
      "chip": "ym2612"
    },
    {
      "channel": 1,
      "note": 64,
      "start": 30.0539,
      "duration": 0.0161,
      "velocity": 124,
      "chip": "ym2612"
    },
    {
      "channel": 0,
      "note": 43,
      "start": 30.0556,
      "duration": 0.0161,
      "velocity": 115,
      "chip": "ym2612"
    },
    {
      "channel": 4,
      "note": 84,
      "start": 30.0568,
      "duration": 0.0161,
      "velocity": 94,
      "chip": "ym2612"
    },
    {
      "channel": 3,
      "note": 84,
      "start": 30.0579,
      "duration": 0.0161,
      "velocity": 94,
      "chip": "ym2612"
    },
    {
      "channel": 2,
      "note": 57,
      "start": 30.059,
      "duration": 0.0161,
      "velocity": 100,
      "chip": "ym2612"
    },
    {
      "channel": 1,
      "note": 64,
      "start": 30.07,
      "duration": 0.0161,
      "velocity": 124,
      "chip": "ym2612"
    },
    {
      "channel": 0,
      "note": 44,
      "start": 30.0717,
      "duration": 0.0161,
      "velocity": 115,
      "chip": "ym2612"
    },
    {
      "channel": 4,
      "note": 84,
      "start": 30.0729,
      "duration": 0.0161,
      "velocity": 94,
      "chip": "ym2612"
    },
    {
      "channel": 3,
      "note": 84,
      "start": 30.074,
      "duration": 0.0161,
      "velocity": 94,
      "chip": "ym2612"
    },
    {
      "channel": 2,
      "note": 57,
      "start": 30.0751,
      "duration": 0.0161,
      "velocity": 100,
      "chip": "ym2612"
    },
    {
      "channel": 1,
      "note": 64,
      "start": 30.0861,
      "duration": 0.0161,
      "velocity": 124,
      "chip": "ym2612"
    },
    {
      "channel": 0,
      "note": 44,
      "start": 30.0878,
      "duration": 0.0161,
      "velocity": 115,
      "chip": "ym2612"
    },
    {
      "channel": 4,
      "note": 84,
      "start": 30.089,
      "duration": 0.0161,
      "velocity": 94,
      "chip": "ym2612"
    },
    {
      "channel": 3,
      "note": 84,
      "start": 30.0901,
      "duration": 0.0161,
      "velocity": 94,
      "chip": "ym2612"
    },
    {
      "channel": 2,
      "note": 57,
      "start": 30.0912,
      "duration": 0.0161,
      "velocity": 100,
      "chip": "ym2612"
    },
    {
      "channel": 1,
      "note": 64,
      "start": 30.1022,
      "duration": 0.0161,
      "velocity": 124,
      "chip": "ym2612"
    },
    {
      "channel": 0,
      "note": 44,
      "start": 30.1039,
      "duration": 0.0161,
      "velocity": 115,
      "chip": "ym2612"
    },
    {
      "channel": 4,
      "note": 84,
      "start": 30.1051,
      "duration": 0.0161,
      "velocity": 94,
      "chip": "ym2612"
    },
    {
      "channel": 3,
      "note": 84,
      "start": 30.1062,
      "duration": 0.0161,
      "velocity": 94,
      "chip": "ym2612"
    },
    {
      "channel": 2,
      "note": 57,
      "start": 30.1073,
      "duration": 0.0162,
      "velocity": 100,
      "chip": "ym2612"
    },
    {
      "channel": 1,
      "note": 64,
      "start": 30.1183,
      "duration": 0.0178,
      "velocity": 105,
      "chip": "ym2612"
    },
    {
      "channel": 0,
      "note": 45,
      "start": 30.12,
      "duration": 0.0178,
      "velocity": 115,
      "chip": "ym2612"
    },
    {
      "channel": 4,
      "note": 84,
      "start": 30.1212,
      "duration": 0.0178,
      "velocity": 94,
      "chip": "ym2612"
    },
    {
      "channel": 3,
      "note": 84,
      "start": 30.1223,
      "duration": 0.0178,
      "velocity": 94,
      "chip": "ym2612"
    },
    {
      "channel": 2,
      "note": 57,
      "start": 30.1235,
      "duration": 0.018,
      "velocity": 100,
      "chip": "ym2612"
    },
    {
      "channel": 1,
      "note": 105,
      "start": 30.1361,
      "duration": 0.0144,
      "velocity": 105,
      "chip": "ym2612"
    },
    {
      "channel": 0,
      "note": 45,
      "start": 30.1378,
      "duration": 0.0144,
      "velocity": 115,
      "chip": "ym2612"
    },
    {
      "channel": 4,
      "note": 84,
      "start": 30.139,
      "duration": 0.0144,
      "velocity": 94,
      "chip": "ym2612"
    },
    {
      "channel": 3,
      "note": 84,
      "start": 30.1401,
      "duration": 0.0144,
      "velocity": 94,
      "chip": "ym2612"
    },
    {
      "channel": 2,
      "note": 57,
      "start": 30.1416,
      "duration": 0.0142,
      "velocity": 100,
      "chip": "ym2612"
    },
    {
      "channel": 1,
      "note": 105,
      "start": 30.1506,
      "duration": 0.0161,
      "velocity": 105,
      "chip": "ym2612"
    },
    {
      "channel": 0,
      "note": 46,
      "start": 30.1523,
      "duration": 0.016,
      "velocity": 115,
      "chip": "ym2612"
    },
    {
      "channel": 4,
      "note": 84,
      "start": 30.1534,
      "duration": 0.016,
      "velocity": 94,
      "chip": "ym2612"
    },
    {
      "channel": 3,
      "note": 84,
      "start": 30.1546,
      "duration": 0.016,
      "velocity": 94,
      "chip": "ym2612"
    },
    {
      "channel": 2,
      "note": 57,
      "start": 30.1558,
      "duration": 0.016,
      "velocity": 100,
      "chip": "ym2612"
    },
    {
      "channel": 1,
      "note": 105,
      "start": 30.1666,
      "duration": 0.0161,
      "velocity": 105,
      "chip": "ym2612"
    },
    {
      "channel": 0,
      "note": 46,
      "start": 30.1683,
      "duration": 0.0161,
      "velocity": 115,
      "chip": "ym2612"
    },
    {
      "channel": 4,
      "note": 84,
      "start": 30.1695,
      "duration": 0.0161,
      "velocity": 94,
      "chip": "ym2612"
    },
    {
      "channel": 3,
      "note": 84,
      "start": 30.1706,
      "duration": 0.0161,
      "velocity": 94,
      "chip": "ym2612"
    },
    {
      "channel": 2,
      "note": 57,
      "start": 30.1717,
      "duration": 0.0161,
      "velocity": 100,
      "chip": "ym2612"
    },
    {
      "channel": 1,
      "note": 105,
      "start": 30.1827,
      "duration": 0.0161,
      "velocity": 105,
      "chip": "ym2612"
    },
    {
      "channel": 0,
      "note": 47,
      "start": 30.1844,
      "duration": 0.0161,
      "velocity": 115,
      "chip": "ym2612"
    },
    {
      "channel": 4,
      "note": 84,
      "start": 30.1856,
      "duration": 0.0161,
      "velocity": 94,
      "chip": "ym2612"
    },
    {
      "channel": 3,
      "note": 84,
      "start": 30.1867,
      "duration": 0.0161,
      "velocity": 94,
      "chip": "ym2612"
    },
    {
      "channel": 2,
      "note": 57,
      "start": 30.1878,
      "duration": 0.0161,
      "velocity": 100,
      "chip": "ym2612"
    },
    {
      "channel": 1,
      "note": 105,
      "start": 30.1988,
      "duration": 0.0161,
      "velocity": 105,
      "chip": "ym2612"
    },
    {
      "channel": 0,
      "note": 47,
      "start": 30.2005,
      "duration": 0.0161,
      "velocity": 115,
      "chip": "ym2612"
    },
    {
      "channel": 4,
      "note": 84,
      "start": 30.2016,
      "duration": 0.0161,
      "velocity": 94,
      "chip": "ym2612"
    },
    {
      "channel": 3,
      "note": 84,
      "start": 30.2028,
      "duration": 0.0161,
      "velocity": 94,
      "chip": "ym2612"
    },
    {
      "channel": 2,
      "note": 57,
      "start": 30.2039,
      "duration": 0.0161,
      "velocity": 100,
      "chip": "ym2612"
    },
    {
      "channel": 1,
      "note": 105,
      "start": 30.2149,
      "duration": 0.0161,
      "velocity": 105,
      "chip": "ym2612"
    },
    {
      "channel": 0,
      "note": 47,
      "start": 30.2166,
      "duration": 0.0161,
      "velocity": 115,
      "chip": "ym2612"
    },
    {
      "channel": 4,
      "note": 84,
      "start": 30.2177,
      "duration": 0.0162,
      "velocity": 94,
      "chip": "ym2612"
    },
    {
      "channel": 3,
      "note": 84,
      "start": 30.2189,
      "duration": 0.0161,
      "velocity": 94,
      "chip": "ym2612"
    },
    {
      "channel": 2,
      "note": 57,
      "start": 30.22,
      "duration": 0.0161,
      "velocity": 100,
      "chip": "ym2612"
    },
    {
      "channel": 1,
      "note": 105,
      "start": 30.231,
      "duration": 0.0185,
      "velocity": 124,
      "chip": "ym2612"
    },
    {
      "channel": 0,
      "note": 48,
      "start": 30.2327,
      "duration": 0.0193,
      "velocity": 115,
      "chip": "ym2612"
    },
    {
      "channel": 4,
      "note": 84,
      "start": 30.2339,
      "duration": 0.0193,
      "velocity": 94,
      "chip": "ym2612"
    },
    {
      "channel": 3,
      "note": 84,
      "start": 30.235,
      "duration": 0.0193,
      "velocity": 94,
      "chip": "ym2612"
    },
    {
      "channel": 2,
      "note": 57,
      "start": 30.2361,
      "duration": 0.0196,
      "velocity": 100,
      "chip": "ym2612"
    },
    {
      "channel": 1,
      "note": 78,
      "start": 30.2496,
      "duration": 0.0146,
      "velocity": 124,
      "chip": "ym2612"
    },
    {
      "channel": 0,
      "note": 48,
      "start": 30.252,
      "duration": 0.0141,
      "velocity": 115,
      "chip": "ym2612"
    },
    {
      "channel": 4,
      "note": 84,
      "start": 30.2532,
      "duration": 0.0141,
      "velocity": 94,
      "chip": "ym2612"
    },
    {
      "channel": 3,
      "note": 84,
      "start": 30.2543,
      "duration": 0.0141,
      "velocity": 94,
      "chip": "ym2612"
    },
    {
      "channel": 2,
      "note": 57,
      "start": 30.2557,
      "duration": 0.0139,
      "velocity": 100,
      "chip": "ym2612"
    },
    {
      "channel": 1,
      "note": 76,
      "start": 30.2642,
      "duration": 0.0156,
      "velocity": 124,
      "chip": "ym2612"
    },
    {
      "channel": 0,
      "note": 49,
      "start": 30.2661,
      "duration": 0.0148,
      "velocity": 1,
      "chip": "ym2612"
    },
    {
      "channel": 4,
      "note": 84,
      "start": 30.2672,
      "duration": 0.0148,
      "velocity": 94,
      "chip": "ym2612"
    },
    {
      "channel": 3,
      "note": 84,
      "start": 30.2684,
      "duration": 0.0148,
      "velocity": 94,
      "chip": "ym2612"
    },
    {
      "channel": 2,
      "note": 57,
      "start": 30.2696,
      "duration": 0.0148,
      "velocity": 100,
      "chip": "ym2612"
    },
    {
      "channel": 1,
      "note": 75,
      "start": 30.2798,
      "duration": 0.018,
      "velocity": 124,
      "chip": "ym2612"
    },
    {
      "channel": 4,
      "note": 84,
      "start": 30.282,
      "duration": 0.0171,
      "velocity": 94,
      "chip": "ym2612"
    },
    {
      "channel": 3,
      "note": 84,
      "start": 30.2832,
      "duration": 0.0171,
      "velocity": 94,
      "chip": "ym2612"
    },
    {
      "channel": 2,
      "note": 57,
      "start": 30.2843,
      "duration": 0.0171,
      "velocity": 100,
      "chip": "ym2612"
    },
    {
      "channel": 1,
      "note": 74,
      "start": 30.2978,
      "duration": 0.0166,
      "velocity": 124,
      "chip": "ym2612"
    },
    {
      "channel": 4,
      "note": 84,
      "start": 30.2992,
      "duration": 0.0167,
      "velocity": 94,
      "chip": "ym2612"
    },
    {
      "channel": 3,
      "note": 84,
      "start": 30.3003,
      "duration": 0.0167,
      "velocity": 94,
      "chip": "ym2612"
    },
    {
      "channel": 2,
      "note": 57,
      "start": 30.3015,
      "duration": 0.0167,
      "velocity": 100,
      "chip": "ym2612"
    },
    {
      "channel": 1,
      "note": 72,
      "start": 30.3144,
      "duration": 0.0161,
      "velocity": 124,
      "chip": "ym2612"
    },
    {
      "channel": 4,
      "note": 84,
      "start": 30.3158,
      "duration": 0.0161,
      "velocity": 94,
      "chip": "ym2612"
    },
    {
      "channel": 3,
      "note": 84,
      "start": 30.317,
      "duration": 0.0161,
      "velocity": 94,
      "chip": "ym2612"
    },
    {
      "channel": 2,
      "note": 57,
      "start": 30.3181,
      "duration": 0.0161,
      "velocity": 100,
      "chip": "ym2612"
    },
    {
      "channel": 1,
      "note": 71,
      "start": 30.3305,
      "duration": 0.0141,
      "velocity": 124,
      "chip": "ym2612"
    },
    {
      "channel": 4,
      "note": 84,
      "start": 30.3319,
      "duration": 0.014,
      "velocity": 94,
      "chip": "ym2612"
    },
    {
      "channel": 3,
      "note": 84,
      "start": 30.3331,
      "duration": 0.014,
      "velocity": 94,
      "chip": "ym2612"
    },
    {
      "channel": 2,
      "note": 57,
      "start": 30.3342,
      "duration": 0.014,
      "velocity": 100,
      "chip": "ym2612"
    },
    {
      "channel": 1,
      "note": 70,
      "start": 30.3446,
      "duration": 0.0185,
      "velocity": 124,
      "chip": "ym2612"
    },
    {
      "channel": 4,
      "note": 84,
      "start": 30.3459,
      "duration": 0.0193,
      "velocity": 94,
      "chip": "ym2612"
    },
    {
      "channel": 3,
      "note": 84,
      "start": 30.3471,
      "duration": 0.0193,
      "velocity": 94,
      "chip": "ym2612"
    },
    {
      "channel": 2,
      "note": 57,
      "start": 30.3482,
      "duration": 0.0196,
      "velocity": 100,
      "chip": "ym2612"
    },
    {
      "channel": 1,
      "note": 69,
      "start": 30.3631,
      "duration": 0.0134,
      "velocity": 124,
      "chip": "ym2612"
    },
    {
      "channel": 4,
      "note": 81,
      "start": 30.3653,
      "duration": 0.0154,
      "velocity": 94,
      "chip": "ym2612"
    },
    {
      "channel": 3,
      "note": 84,
      "start": 30.3664,
      "duration": 0.0155,
      "velocity": 94,
      "chip": "ym2612"
    },
    {
      "channel": 2,
      "note": 57,
      "start": 30.3679,
      "duration": 0.0151,
      "velocity": 100,
      "chip": "ym2612"
    },
    {
      "channel": 1,
      "note": 68,
      "start": 30.3764,
      "duration": 0.0161,
      "velocity": 124,
      "chip": "ym2612"
    },
    {
      "channel": 4,
      "note": 81,
      "start": 30.3807,
      "duration": 0.0156,
      "velocity": 94,
      "chip": "ym2612"
    },
    {
      "channel": 3,
      "note": 84,
      "start": 30.3819,
      "duration": 0.0156,
      "velocity": 94,
      "chip": "ym2612"
    },
    {
      "channel": 2,
      "note": 57,
      "start": 30.383,
      "duration": 0.0156,
      "velocity": 100,
      "chip": "ym2612"
    },
    {
      "channel": 1,
      "note": 66,
      "start": 30.3925,
      "duration": 0.0161,
      "velocity": 124,
      "chip": "ym2612"
    },
    {
      "channel": 4,
      "note": 81,
      "start": 30.3963,
      "duration": 0.0141,
      "velocity": 94,
      "chip": "ym2612"
    },
    {
      "channel": 3,
      "note": 84,
      "start": 30.3974,
      "duration": 0.0141,
      "velocity": 94,
      "chip": "ym2612"
    },
    {
      "channel": 2,
      "note": 57,
      "start": 30.3986,
      "duration": 0.0141,
      "velocity": 100,
      "chip": "ym2612"
    },
    {
      "channel": 1,
      "note": 65,
      "start": 30.4086,
      "duration": 0.0161,
      "velocity": 124,
      "chip": "ym2612"
    },
    {
      "channel": 4,
      "note": 81,
      "start": 30.4104,
      "duration": 0.0158,
      "velocity": 94,
      "chip": "ym2612"
    },
    {
      "channel": 3,
      "note": 84,
      "start": 30.4115,
      "duration": 0.0185,
      "velocity": 94,
      "chip": "ym2612"
    },
    {
      "channel": 2,
      "note": 57,
      "start": 30.4127,
      "duration": 0.0185,
      "velocity": 100,
      "chip": "ym2612"
    },
    {
      "channel": 1,
      "note": 64,
      "start": 30.4247,
      "duration": 0.0161,
      "velocity": 124,
      "chip": "ym2612"
    },
    {
      "channel": 4,
      "note": 81,
      "start": 30.4261,
      "duration": 0.0161,
      "velocity": 94,
      "chip": "ym2612"
    },
    {
      "channel": 3,
      "note": 84,
      "start": 30.43,
      "duration": 0.0161,
      "velocity": 94,
      "chip": "ym2612"
    },
    {
      "channel": 2,
      "note": 57,
      "start": 30.4312,
      "duration": 0.0161,
      "velocity": 100,
      "chip": "ym2612"
    },
    {
      "channel": 1,
      "note": 62,
      "start": 30.4408,
      "duration": 0.0161,
      "velocity": 124,
      "chip": "ym2612"
    },
    {
      "channel": 4,
      "note": 81,
      "start": 30.4422,
      "duration": 0.0161,
      "velocity": 94,
      "chip": "ym2612"
    },
    {
      "channel": 3,
      "note": 84,
      "start": 30.4461,
      "duration": 0.0134,
      "velocity": 94,
      "chip": "ym2612"
    },
    {
      "channel": 2,
      "note": 57,
      "start": 30.4473,
      "duration": 0.0157,
      "velocity": 100,
      "chip": "ym2612"
    },
    {
      "channel": 1,
      "note": 61,
      "start": 30.4569,
      "duration": 0.0161,
      "velocity": 124,
      "chip": "ym2612"
    },
    {
      "channel": 4,
      "note": 81,
      "start": 30.4583,
      "duration": 0.0166,
      "velocity": 94,
      "chip": "ym2612"
    },
    {
      "channel": 3,
      "note": 84,
      "start": 30.4595,
      "duration": 0.0169,
      "velocity": 94,
      "chip": "ym2612"
    },
    {
      "channel": 2,
      "note": 57,
      "start": 30.463,
      "duration": 0.0151,
      "velocity": 100,
      "chip": "ym2612"
    },
    {
      "channel": 1,
      "note": 60,
      "start": 30.473,
      "duration": 0.0161,
      "velocity": 124,
      "chip": "ym2612"
    },
    {
      "channel": 4,
      "note": 81,
      "start": 30.4749,
      "duration": 0.0156,
      "velocity": 94,
      "chip": "ym2612"
    },
    {
      "channel": 3,
      "note": 81,
      "start": 30.4764,
      "duration": 0.0154,
      "velocity": 94,
      "chip": "ym2612"
    },
    {
      "channel": 2,
      "note": 50,
      "start": 30.4781,
      "duration": 0.0148,
      "velocity": 100,
      "chip": "ym2612"
    },
    {
      "channel": 1,
      "note": 59,
      "start": 30.4892,
      "duration": 0.0161,
      "velocity": 124,
      "chip": "ym2612"
    },
    {
      "channel": 4,
      "note": 81,
      "start": 30.4906,
      "duration": 0.016,
      "velocity": 94,
      "chip": "ym2612"
    },
    {
      "channel": 3,
      "note": 81,
      "start": 30.4918,
      "duration": 0.016,
      "velocity": 94,
      "chip": "ym2612"
    },
    {
      "channel": 2,
      "note": 50,
      "start": 30.4929,
      "duration": 0.016,
      "velocity": 100,
      "chip": "ym2612"
    },
    {
      "channel": 1,
      "note": 57,
      "start": 30.5053,
      "duration": 0.0161,
      "velocity": 124,
      "chip": "ym2612"
    },
    {
      "channel": 4,
      "note": 81,
      "start": 30.5066,
      "duration": 0.0162,
      "velocity": 94,
      "chip": "ym2612"
    },
    {
      "channel": 3,
      "note": 81,
      "start": 30.5078,
      "duration": 0.0161,
      "velocity": 94,
      "chip": "ym2612"
    },
    {
      "channel": 2,
      "note": 50,
      "start": 30.5089,
      "duration": 0.0162,
      "velocity": 100,
      "chip": "ym2612"
    },
    {
      "channel": 1,
      "note": 56,
      "start": 30.5214,
      "duration": 0.0161,
      "velocity": 124,
      "chip": "ym2612"
    },
    {
      "channel": 4,
      "note": 81,
      "start": 30.5228,
      "duration": 0.0161,
      "velocity": 94,
      "chip": "ym2612"
    },
    {
      "channel": 3,
      "note": 81,
      "start": 30.5239,
      "duration": 0.0161,
      "velocity": 94,
      "chip": "ym2612"
    },
    {
      "channel": 2,
      "note": 50,
      "start": 30.5251,
      "duration": 0.0161,
      "velocity": 100,
      "chip": "ym2612"
    },
    {
      "channel": 1,
      "note": 55,
      "start": 30.5375,
      "duration": 0.0161,
      "velocity": 124,
      "chip": "ym2612"
    },
    {
      "channel": 4,
      "note": 81,
      "start": 30.5388,
      "duration": 0.0161,
      "velocity": 94,
      "chip": "ym2612"
    },
    {
      "channel": 3,
      "note": 81,
      "start": 30.54,
      "duration": 0.0161,
      "velocity": 94,
      "chip": "ym2612"
    },
    {
      "channel": 2,
      "note": 50,
      "start": 30.5411,
      "duration": 0.0161,
      "velocity": 100,
      "chip": "ym2612"
    },
    {
      "channel": 1,
      "note": 53,
      "start": 30.5535,
      "duration": 0.0161,
      "velocity": 124,
      "chip": "ym2612"
    },
    {
      "channel": 4,
      "note": 81,
      "start": 30.5549,
      "duration": 0.0161,
      "velocity": 94,
      "chip": "ym2612"
    },
    {
      "channel": 3,
      "note": 81,
      "start": 30.5561,
      "duration": 0.0161,
      "velocity": 94,
      "chip": "ym2612"
    },
    {
      "channel": 2,
      "note": 50,
      "start": 30.5572,
      "duration": 0.0161,
      "velocity": 100,
      "chip": "ym2612"
    },
    {
      "channel": 1,
      "note": 52,
      "start": 30.5696,
      "duration": 0.0161,
      "velocity": 124,
      "chip": "ym2612"
    },
    {
      "channel": 4,
      "note": 81,
      "start": 30.571,
      "duration": 0.0201,
      "velocity": 94,
      "chip": "ym2612"
    },
    {
      "channel": 3,
      "note": 81,
      "start": 30.5722,
      "duration": 0.0201,
      "velocity": 94,
      "chip": "ym2612"
    },
    {
      "channel": 2,
      "note": 50,
      "start": 30.5733,
      "duration": 0.0227,
      "velocity": 100,
      "chip": "ym2612"
    },
    {
      "channel": 1,
      "note": 51,
      "start": 30.5857,
      "duration": 0.0153,
      "velocity": 1,
      "chip": "ym2612"
    },
    {
      "channel": 0,
      "note": 78,
      "start": 30.59,
      "duration": 0.0149,
      "velocity": 127,
      "chip": "ym2612"
    },
    {
      "channel": 4,
      "note": 81,
      "start": 30.5911,
      "duration": 0.015,
      "velocity": 94,
      "chip": "ym2612"
    },
    {
      "channel": 3,
      "note": 81,
      "start": 30.5923,
      "duration": 0.0149,
      "velocity": 94,
      "chip": "ym2612"
    },
    {
      "channel": 2,
      "note": 50,
      "start": 30.5961,
      "duration": 0.0124,
      "velocity": 100,
      "chip": "ym2612"
    },
    {
      "channel": 1,
      "note": 51,
      "start": 30.6032,
      "duration": 0.0143,
      "velocity": 105,
      "chip": "ym2612"
    },
    {
      "channel": 0,
      "note": 76,
      "start": 30.6049,
      "duration": 0.0142,
      "velocity": 127,
      "chip": "ym2612"
    },
    {
      "channel": 4,
      "note": 81,
      "start": 30.6061,
      "duration": 0.0142,
      "velocity": 94,
      "chip": "ym2612"
    },
    {
      "channel": 3,
      "note": 81,
      "start": 30.6072,
      "duration": 0.0142,
      "velocity": 94,
      "chip": "ym2612"
    },
    {
      "channel": 2,
      "note": 50,
      "start": 30.6085,
      "duration": 0.0141,
      "velocity": 100,
      "chip": "ym2612"
    },
    {
      "channel": 1,
      "note": 105,
      "start": 30.6175,
      "duration": 0.0161,
      "velocity": 105,
      "chip": "ym2612"
    },
    {
      "channel": 0,
      "note": 75,
      "start": 30.6191,
      "duration": 0.0161,
      "velocity": 127,
      "chip": "ym2612"
    },
    {
      "channel": 4,
      "note": 81,
      "start": 30.6203,
      "duration": 0.0161,
      "velocity": 94,
      "chip": "ym2612"
    },
    {
      "channel": 3,
      "note": 81,
      "start": 30.6214,
      "duration": 0.0161,
      "velocity": 94,
      "chip": "ym2612"
    },
    {
      "channel": 2,
      "note": 50,
      "start": 30.6226,
      "duration": 0.0161,
      "velocity": 100,
      "chip": "ym2612"
    },
    {
      "channel": 1,
      "note": 105,
      "start": 30.6336,
      "duration": 0.0161,
      "velocity": 105,
      "chip": "ym2612"
    },
    {
      "channel": 0,
      "note": 73,
      "start": 30.6352,
      "duration": 0.0161,
      "velocity": 127,
      "chip": "ym2612"
    },
    {
      "channel": 4,
      "note": 81,
      "start": 30.6364,
      "duration": 0.0161,
      "velocity": 94,
      "chip": "ym2612"
    },
    {
      "channel": 3,
      "note": 81,
      "start": 30.6375,
      "duration": 0.0161,
      "velocity": 94,
      "chip": "ym2612"
    },
    {
      "channel": 2,
      "note": 50,
      "start": 30.6387,
      "duration": 0.0161,
      "velocity": 100,
      "chip": "ym2612"
    },
    {
      "channel": 1,
      "note": 105,
      "start": 30.6497,
      "duration": 0.0161,
      "velocity": 105,
      "chip": "ym2612"
    },
    {
      "channel": 0,
      "note": 71,
      "start": 30.6513,
      "duration": 0.0161,
      "velocity": 127,
      "chip": "ym2612"
    },
    {
      "channel": 4,
      "note": 81,
      "start": 30.6525,
      "duration": 0.0161,
      "velocity": 94,
      "chip": "ym2612"
    },
    {
      "channel": 3,
      "note": 81,
      "start": 30.6536,
      "duration": 0.0162,
      "velocity": 94,
      "chip": "ym2612"
    },
    {
      "channel": 2,
      "note": 50,
      "start": 30.6548,
      "duration": 0.0161,
      "velocity": 100,
      "chip": "ym2612"
    },
    {
      "channel": 1,
      "note": 105,
      "start": 30.6658,
      "duration": 0.0161,
      "velocity": 105,
      "chip": "ym2612"
    },
    {
      "channel": 0,
      "note": 70,
      "start": 30.6674,
      "duration": 0.0161,
      "velocity": 127,
      "chip": "ym2612"
    },
    {
      "channel": 4,
      "note": 81,
      "start": 30.6686,
      "duration": 0.016,
      "velocity": 94,
      "chip": "ym2612"
    },
    {
      "channel": 3,
      "note": 81,
      "start": 30.6698,
      "duration": 0.016,
      "velocity": 94,
      "chip": "ym2612"
    },
    {
      "channel": 2,
      "note": 50,
      "start": 30.6709,
      "duration": 0.0161,
      "velocity": 100,
      "chip": "ym2612"
    },
    {
      "channel": 1,
      "note": 105,
      "start": 30.6819,
      "duration": 0.0178,
      "velocity": 124,
      "chip": "ym2612"
    },
    {
      "channel": 0,
      "note": 68,
      "start": 30.6835,
      "duration": 0.0197,
      "velocity": 115,
      "chip": "ym2612"
    },
    {
      "channel": 4,
      "note": 81,
      "start": 30.6846,
      "duration": 0.0197,
      "velocity": 94,
      "chip": "ym2612"
    },
    {
      "channel": 3,
      "note": 81,
      "start": 30.6858,
      "duration": 0.0197,
      "velocity": 94,
      "chip": "ym2612"
    },
    {
      "channel": 2,
      "note": 50,
      "start": 30.6869,
      "duration": 0.0199,
      "velocity": 100,
      "chip": "ym2612"
    },
    {
      "channel": 1,
      "note": 64,
      "start": 30.6997,
      "duration": 0.0144,
      "velocity": 124,
      "chip": "ym2612"
    },
    {
      "channel": 0,
      "note": 36,
      "start": 30.7032,
      "duration": 0.0127,
      "velocity": 115,
      "chip": "ym2612"
    },
    {
      "channel": 4,
      "note": 81,
      "start": 30.7044,
      "duration": 0.0127,
      "velocity": 94,
      "chip": "ym2612"
    },
    {
      "channel": 3,
      "note": 81,
      "start": 30.7055,
      "duration": 0.0127,
      "velocity": 94,
      "chip": "ym2612"
    },
    {
      "channel": 2,
      "note": 52,
      "start": 30.7069,
      "duration": 0.0125,
      "velocity": 100,
      "chip": "ym2612"
    },
    {
      "channel": 1,
      "note": 64,
      "start": 30.7141,
      "duration": 0.0162,
      "velocity": 124,
      "chip": "ym2612"
    },
    {
      "channel": 0,
      "note": 36,
      "start": 30.7159,
      "duration": 0.016,
      "velocity": 115,
      "chip": "ym2612"
    },
    {
      "channel": 4,
      "note": 81,
      "start": 30.717,
      "duration": 0.0161,
      "velocity": 94,
      "chip": "ym2612"
    },
    {
      "channel": 3,
      "note": 81,
      "start": 30.7182,
      "duration": 0.0161,
      "velocity": 94,
      "chip": "ym2612"
    },
    {
      "channel": 2,
      "note": 52,
      "start": 30.7194,
      "duration": 0.016,
      "velocity": 100,
      "chip": "ym2612"
    },
    {
      "channel": 1,
      "note": 64,
      "start": 30.7303,
      "duration": 0.016,
      "velocity": 124,
      "chip": "ym2612"
    },
    {
      "channel": 0,
      "note": 37,
      "start": 30.7319,
      "duration": 0.016,
      "velocity": 115,
      "chip": "ym2612"
    },
    {
      "channel": 4,
      "note": 81,
      "start": 30.7331,
      "duration": 0.016,
      "velocity": 94,
      "chip": "ym2612"
    },
    {
      "channel": 3,
      "note": 81,
      "start": 30.7343,
      "duration": 0.016,
      "velocity": 94,
      "chip": "ym2612"
    },
    {
      "channel": 2,
      "note": 52,
      "start": 30.7354,
      "duration": 0.016,
      "velocity": 100,
      "chip": "ym2612"
    },
    {
      "channel": 1,
      "note": 64,
      "start": 30.7463,
      "duration": 0.0177,
      "velocity": 124,
      "chip": "ym2612"
    },
    {
      "channel": 0,
      "note": 37,
      "start": 30.748,
      "duration": 0.0177,
      "velocity": 115,
      "chip": "ym2612"
    },
    {
      "channel": 4,
      "note": 81,
      "start": 30.7491,
      "duration": 0.0177,
      "velocity": 94,
      "chip": "ym2612"
    },
    {
      "channel": 3,
      "note": 81,
      "start": 30.7502,
      "duration": 0.0177,
      "velocity": 94,
      "chip": "ym2612"
    },
    {
      "channel": 2,
      "note": 52,
      "start": 30.7514,
      "duration": 0.0177,
      "velocity": 100,
      "chip": "ym2612"
    },
    {
      "channel": 1,
      "note": 64,
      "start": 30.764,
      "duration": 0.0167,
      "velocity": 124,
      "chip": "ym2612"
    },
    {
      "channel": 0,
      "note": 38,
      "start": 30.7656,
      "duration": 0.0167,
      "velocity": 115,
      "chip": "ym2612"
    },
    {
      "channel": 4,
      "note": 81,
      "start": 30.7668,
      "duration": 0.0167,
      "velocity": 94,
      "chip": "ym2612"
    },
    {
      "channel": 3,
      "note": 81,
      "start": 30.7679,
      "duration": 0.0167,
      "velocity": 94,
      "chip": "ym2612"
    },
    {
      "channel": 2,
      "note": 52,
      "start": 30.7691,
      "duration": 0.0167,
      "velocity": 100,
      "chip": "ym2612"
    },
    {
      "channel": 1,
      "note": 64,
      "start": 30.7807,
      "duration": 0.0163,
      "velocity": 124,
      "chip": "ym2612"
    },
    {
      "channel": 0,
      "note": 38,
      "start": 30.7823,
      "duration": 0.0163,
      "velocity": 115,
      "chip": "ym2612"
    },
    {
      "channel": 4,
      "note": 81,
      "start": 30.7835,
      "duration": 0.0163,
      "velocity": 94,
      "chip": "ym2612"
    },
    {
      "channel": 3,
      "note": 81,
      "start": 30.7846,
      "duration": 0.0163,
      "velocity": 94,
      "chip": "ym2612"
    },
    {
      "channel": 2,
      "note": 52,
      "start": 30.7857,
      "duration": 0.0163,
      "velocity": 100,
      "chip": "ym2612"
    },
    {
      "channel": 1,
      "note": 64,
      "start": 30.7969,
      "duration": 0.0157,
      "velocity": 105,
      "chip": "ym2612"
    },
    {
      "channel": 0,
      "note": 39,
      "start": 30.7986,
      "duration": 0.0158,
      "velocity": 115,
      "chip": "ym2612"
    },
    {
      "channel": 4,
      "note": 81,
      "start": 30.7998,
      "duration": 0.016,
      "velocity": 94,
      "chip": "ym2612"
    },
    {
      "channel": 3,
      "note": 81,
      "start": 30.8009,
      "duration": 0.016,
      "velocity": 94,
      "chip": "ym2612"
    },
    {
      "channel": 2,
      "note": 52,
      "start": 30.802,
      "duration": 0.0163,
      "velocity": 100,
      "chip": "ym2612"
    },
    {
      "channel": 1,
      "note": 105,
      "start": 30.8127,
      "duration": 0.0169,
      "velocity": 105,
      "chip": "ym2612"
    },
    {
      "channel": 0,
      "note": 39,
      "start": 30.8144,
      "duration": 0.0169,
      "velocity": 115,
      "chip": "ym2612"
    },
    {
      "channel": 4,
      "note": 88,
      "start": 30.8158,
      "duration": 0.0167,
      "velocity": 94,
      "chip": "ym2612"
    },
    {
      "channel": 3,
      "note": 81,
      "start": 30.817,
      "duration": 0.0167,
      "velocity": 94,
      "chip": "ym2612"
    },
    {
      "channel": 2,
      "note": 52,
      "start": 30.8184,
      "duration": 0.0163,
      "velocity": 100,
      "chip": "ym2612"
    },
    {
      "channel": 1,
      "note": 105,
      "start": 30.8296,
      "duration": 0.0133,
      "velocity": 105,
      "chip": "ym2612"
    },
    {
      "channel": 0,
      "note": 40,
      "start": 30.8312,
      "duration": 0.0161,
      "velocity": 115,
      "chip": "ym2612"
    },
    {
      "channel": 4,
      "note": 88,
      "start": 30.8325,
      "duration": 0.016,
      "velocity": 94,
      "chip": "ym2612"
    },
    {
      "channel": 3,
      "note": 81,
      "start": 30.8336,
      "duration": 0.016,
      "velocity": 94,
      "chip": "ym2612"
    },
    {
      "channel": 2,
      "note": 52,
      "start": 30.8348,
      "duration": 0.016,
      "velocity": 100,
      "chip": "ym2612"
    },
    {
      "channel": 1,
      "note": 105,
      "start": 30.8429,
      "duration": 0.0161,
      "velocity": 105,
      "chip": "ym2612"
    },
    {
      "channel": 0,
      "note": 40,
      "start": 30.8473,
      "duration": 0.0157,
      "velocity": 115,
      "chip": "ym2612"
    },
    {
      "channel": 4,
      "note": 88,
      "start": 30.8485,
      "duration": 0.0157,
      "velocity": 94,
      "chip": "ym2612"
    },
    {
      "channel": 3,
      "note": 81,
      "start": 30.8496,
      "duration": 0.0157,
      "velocity": 94,
      "chip": "ym2612"
    },
    {
      "channel": 2,
      "note": 52,
      "start": 30.8507,
      "duration": 0.0157,
      "velocity": 100,
      "chip": "ym2612"
    },
    {
      "channel": 1,
      "note": 105,
      "start": 30.859,
      "duration": 0.0161,
      "velocity": 105,
      "chip": "ym2612"
    },
    {
      "channel": 0,
      "note": 40,
      "start": 30.863,
      "duration": 0.0141,
      "velocity": 115,
      "chip": "ym2612"
    },
    {
      "channel": 4,
      "note": 88,
      "start": 30.8642,
      "duration": 0.0141,
      "velocity": 94,
      "chip": "ym2612"
    },
    {
      "channel": 3,
      "note": 81,
      "start": 30.8653,
      "duration": 0.0141,
      "velocity": 94,
      "chip": "ym2612"
    },
    {
      "channel": 2,
      "note": 52,
      "start": 30.8665,
      "duration": 0.0141,
      "velocity": 100,
      "chip": "ym2612"
    },
    {
      "channel": 1,
      "note": 105,
      "start": 30.8751,
      "duration": 0.0161,
      "velocity": 105,
      "chip": "ym2612"
    },
    {
      "channel": 0,
      "note": 41,
      "start": 30.8771,
      "duration": 0.0158,
      "velocity": 115,
      "chip": "ym2612"
    },
    {
      "channel": 4,
      "note": 88,
      "start": 30.8782,
      "duration": 0.0185,
      "velocity": 94,
      "chip": "ym2612"
    },
    {
      "channel": 3,
      "note": 81,
      "start": 30.8794,
      "duration": 0.0185,
      "velocity": 94,
      "chip": "ym2612"
    },
    {
      "channel": 2,
      "note": 52,
      "start": 30.8805,
      "duration": 0.0185,
      "velocity": 100,
      "chip": "ym2612"
    },
    {
      "channel": 1,
      "note": 105,
      "start": 30.8911,
      "duration": 0.0162,
      "velocity": 105,
      "chip": "ym2612"
    },
    {
      "channel": 0,
      "note": 41,
      "start": 30.8929,
      "duration": 0.0161,
      "velocity": 115,
      "chip": "ym2612"
    },
    {
      "channel": 4,
      "note": 88,
      "start": 30.8967,
      "duration": 0.0162,
      "velocity": 94,
      "chip": "ym2612"
    },
    {
      "channel": 3,
      "note": 81,
      "start": 30.8979,
      "duration": 0.0161,
      "velocity": 94,
      "chip": "ym2612"
    },
    {
      "channel": 2,
      "note": 52,
      "start": 30.899,
      "duration": 0.0161,
      "velocity": 100,
      "chip": "ym2612"
    },
    {
      "channel": 1,
      "note": 105,
      "start": 30.9073,
      "duration": 0.0178,
      "velocity": 124,
      "chip": "ym2612"
    },
    {
      "channel": 0,
      "note": 42,
      "start": 30.909,
      "duration": 0.0202,
      "velocity": 115,
      "chip": "ym2612"
    },
    {
      "channel": 4,
      "note": 88,
      "start": 30.9129,
      "duration": 0.0177,
      "velocity": 94,
      "chip": "ym2612"
    },
    {
      "channel": 3,
      "note": 81,
      "start": 30.914,
      "duration": 0.0179,
      "velocity": 94,
      "chip": "ym2612"
    },
    {
      "channel": 2,
      "note": 52,
      "start": 30.9151,
      "duration": 0.0183,
      "velocity": 100,
      "chip": "ym2612"
    },
    {
      "channel": 1,
      "note": 64,
      "start": 30.9251,
      "duration": 0.0144,
      "velocity": 124,
      "chip": "ym2612"
    },
    {
      "channel": 0,
      "note": 42,
      "start": 30.9292,
      "duration": 0.012,
      "velocity": 115,
      "chip": "ym2612"
    },
    {
      "channel": 4,
      "note": 89,
      "start": 30.9306,
      "duration": 0.0118,
      "velocity": 94,
      "chip": "ym2612"
    },
    {
      "channel": 3,
      "note": 88,
      "start": 30.932,
      "duration": 0.0119,
      "velocity": 94,
      "chip": "ym2612"
    },
    {
      "channel": 2,
      "note": 52,
      "start": 30.9335,
      "duration": 0.0116,
      "velocity": 100,
      "chip": "ym2612"
    },
    {
      "channel": 1,
      "note": 64,
      "start": 30.9395,
      "duration": 0.016,
      "velocity": 124,
      "chip": "ym2612"
    },
    {
      "channel": 0,
      "note": 43,
      "start": 30.9412,
      "duration": 0.016,
      "velocity": 115,
      "chip": "ym2612"
    },
    {
      "channel": 4,
      "note": 89,
      "start": 30.9424,
      "duration": 0.016,
      "velocity": 94,
      "chip": "ym2612"
    },
    {
      "channel": 3,
      "note": 88,
      "start": 30.9439,
      "duration": 0.0156,
      "velocity": 94,
      "chip": "ym2612"
    },
    {
      "channel": 2,
      "note": 52,
      "start": 30.9451,
      "duration": 0.0183,
      "velocity": 100,
      "chip": "ym2612"
    },
    {
      "channel": 1,
      "note": 64,
      "start": 30.9556,
      "duration": 0.0161,
      "velocity": 124,
      "chip": "ym2612"
    },
    {
      "channel": 0,
      "note": 43,
      "start": 30.9572,
      "duration": 0.0161,
      "velocity": 115,
      "chip": "ym2612"
    },
    {
      "channel": 4,
      "note": 89,
      "start": 30.9585,
      "duration": 0.0161,
      "velocity": 94,
      "chip": "ym2612"
    },
    {
      "channel": 3,
      "note": 88,
      "start": 30.9596,
      "duration": 0.0161,
      "velocity": 94,
      "chip": "ym2612"
    },
    {
      "channel": 2,
      "note": 52,
      "start": 30.9635,
      "duration": 0.0161,
      "velocity": 100,
      "chip": "ym2612"
    },
    {
      "channel": 1,
      "note": 64,
      "start": 30.9717,
      "duration": 0.0161,
      "velocity": 124,
      "chip": "ym2612"
    },
    {
      "channel": 0,
      "note": 44,
      "start": 30.9733,
      "duration": 0.0161,
      "velocity": 115,
      "chip": "ym2612"
    },
    {
      "channel": 4,
      "note": 89,
      "start": 30.9745,
      "duration": 0.0161,
      "velocity": 94,
      "chip": "ym2612"
    },
    {
      "channel": 3,
      "note": 88,
      "start": 30.9757,
      "duration": 0.0161,
      "velocity": 94,
      "chip": "ym2612"
    },
    {
      "channel": 2,
      "note": 52,
      "start": 30.9796,
      "duration": 0.0133,
      "velocity": 100,
      "chip": "ym2612"
    },
    {
      "channel": 1,
      "note": 64,
      "start": 30.9878,
      "duration": 0.0161,
      "velocity": 124,
      "chip": "ym2612"
    },
    {
      "channel": 0,
      "note": 44,
      "start": 30.9894,
      "duration": 0.0161,
      "velocity": 115,
      "chip": "ym2612"
    },
    {
      "channel": 4,
      "note": 89,
      "start": 30.9906,
      "duration": 0.0161,
      "velocity": 94,
      "chip": "ym2612"
    },
    {
      "channel": 3,
      "note": 88,
      "start": 30.9918,
      "duration": 0.0161,
      "velocity": 94,
      "chip": "ym2612"
    },
    {
      "channel": 2,
      "note": 52,
      "start": 30.9929,
      "duration": 0.0162,
      "velocity": 100,
      "chip": "ym2612"
    },
    {
      "channel": 1,
      "note": 64,
      "start": 31.0039,
      "duration": 0.0161,
      "velocity": 124,
      "chip": "ym2612"
    },
    {
      "channel": 0,
      "note": 44,
      "start": 31.0056,
      "duration": 0.0161,
      "velocity": 115,
      "chip": "ym2612"
    },
    {
      "channel": 4,
      "note": 89,
      "start": 31.0067,
      "duration": 0.0161,
      "velocity": 94,
      "chip": "ym2612"
    },
    {
      "channel": 3,
      "note": 88,
      "start": 31.0079,
      "duration": 0.0161,
      "velocity": 94,
      "chip": "ym2612"
    },
    {
      "channel": 2,
      "note": 52,
      "start": 31.009,
      "duration": 0.0161,
      "velocity": 100,
      "chip": "ym2612"
    },
    {
      "channel": 1,
      "note": 64,
      "start": 31.02,
      "duration": 0.0178,
      "velocity": 105,
      "chip": "ym2612"
    },
    {
      "channel": 0,
      "note": 45,
      "start": 31.0217,
      "duration": 0.0178,
      "velocity": 115,
      "chip": "ym2612"
    },
    {
      "channel": 4,
      "note": 89,
      "start": 31.0228,
      "duration": 0.018,
      "velocity": 94,
      "chip": "ym2612"
    },
    {
      "channel": 3,
      "note": 88,
      "start": 31.024,
      "duration": 0.0183,
      "velocity": 94,
      "chip": "ym2612"
    },
    {
      "channel": 2,
      "note": 52,
      "start": 31.0251,
      "duration": 0.0214,
      "velocity": 100,
      "chip": "ym2612"
    },
    {
      "channel": 1,
      "note": 105,
      "start": 31.0378,
      "duration": 0.0144,
      "velocity": 105,
      "chip": "ym2612"
    },
    {
      "channel": 0,
      "note": 45,
      "start": 31.0395,
      "duration": 0.0144,
      "velocity": 115,
      "chip": "ym2612"
    },
    {
      "channel": 4,
      "note": 88,
      "start": 31.0409,
      "duration": 0.0143,
      "velocity": 94,
      "chip": "ym2612"
    },
    {
      "channel": 3,
      "note": 89,
      "start": 31.0423,
      "duration": 0.0141,
      "velocity": 94,
      "chip": "ym2612"
    },
    {
      "channel": 2,
      "note": 52,
      "start": 31.0465,
      "duration": 0.011,
      "velocity": 100,
      "chip": "ym2612"
    },
    {
      "channel": 1,
      "note": 105,
      "start": 31.0522,
      "duration": 0.0161,
      "velocity": 105,
      "chip": "ym2612"
    },
    {
      "channel": 0,
      "note": 46,
      "start": 31.0539,
      "duration": 0.016,
      "velocity": 115,
      "chip": "ym2612"
    },
    {
      "channel": 4,
      "note": 88,
      "start": 31.0551,
      "duration": 0.016,
      "velocity": 94,
      "chip": "ym2612"
    },
    {
      "channel": 3,
      "note": 89,
      "start": 31.0563,
      "duration": 0.0159,
      "velocity": 94,
      "chip": "ym2612"
    },
    {
      "channel": 2,
      "note": 52,
      "start": 31.0575,
      "duration": 0.0159,
      "velocity": 100,
      "chip": "ym2612"
    },
    {
      "channel": 1,
      "note": 105,
      "start": 31.0683,
      "duration": 0.0161,
      "velocity": 105,
      "chip": "ym2612"
    },
    {
      "channel": 0,
      "note": 46,
      "start": 31.07,
      "duration": 0.0161,
      "velocity": 115,
      "chip": "ym2612"
    },
    {
      "channel": 4,
      "note": 88,
      "start": 31.0711,
      "duration": 0.0161,
      "velocity": 94,
      "chip": "ym2612"
    },
    {
      "channel": 3,
      "note": 89,
      "start": 31.0722,
      "duration": 0.0161,
      "velocity": 94,
      "chip": "ym2612"
    },
    {
      "channel": 2,
      "note": 52,
      "start": 31.0734,
      "duration": 0.0161,
      "velocity": 100,
      "chip": "ym2612"
    },
    {
      "channel": 1,
      "note": 105,
      "start": 31.0844,
      "duration": 0.0161,
      "velocity": 105,
      "chip": "ym2612"
    },
    {
      "channel": 0,
      "note": 47,
      "start": 31.0861,
      "duration": 0.0161,
      "velocity": 115,
      "chip": "ym2612"
    },
    {
      "channel": 4,
      "note": 88,
      "start": 31.0872,
      "duration": 0.0161,
      "velocity": 94,
      "chip": "ym2612"
    },
    {
      "channel": 3,
      "note": 89,
      "start": 31.0883,
      "duration": 0.0161,
      "velocity": 94,
      "chip": "ym2612"
    },
    {
      "channel": 2,
      "note": 52,
      "start": 31.0895,
      "duration": 0.0161,
      "velocity": 100,
      "chip": "ym2612"
    },
    {
      "channel": 1,
      "note": 105,
      "start": 31.1005,
      "duration": 0.0161,
      "velocity": 105,
      "chip": "ym2612"
    },
    {
      "channel": 0,
      "note": 47,
      "start": 31.1022,
      "duration": 0.0161,
      "velocity": 115,
      "chip": "ym2612"
    },
    {
      "channel": 4,
      "note": 88,
      "start": 31.1033,
      "duration": 0.0162,
      "velocity": 94,
      "chip": "ym2612"
    },
    {
      "channel": 3,
      "note": 89,
      "start": 31.1044,
      "duration": 0.0161,
      "velocity": 94,
      "chip": "ym2612"
    },
    {
      "channel": 2,
      "note": 52,
      "start": 31.1056,
      "duration": 0.0161,
      "velocity": 100,
      "chip": "ym2612"
    },
    {
      "channel": 1,
      "note": 105,
      "start": 31.1166,
      "duration": 0.0161,
      "velocity": 105,
      "chip": "ym2612"
    },
    {
      "channel": 0,
      "note": 47,
      "start": 31.1183,
      "duration": 0.0161,
      "velocity": 115,
      "chip": "ym2612"
    },
    {
      "channel": 4,
      "note": 88,
      "start": 31.1195,
      "duration": 0.0161,
      "velocity": 94,
      "chip": "ym2612"
    },
    {
      "channel": 3,
      "note": 89,
      "start": 31.1206,
      "duration": 0.0161,
      "velocity": 94,
      "chip": "ym2612"
    },
    {
      "channel": 2,
      "note": 52,
      "start": 31.1217,
      "duration": 0.0161,
      "velocity": 100,
      "chip": "ym2612"
    },
    {
      "channel": 1,
      "note": 105,
      "start": 31.1327,
      "duration": 0.0184,
      "velocity": 124,
      "chip": "ym2612"
    },
    {
      "channel": 0,
      "note": 48,
      "start": 31.1343,
      "duration": 0.0192,
      "velocity": 115,
      "chip": "ym2612"
    },
    {
      "channel": 4,
      "note": 88,
      "start": 31.1356,
      "duration": 0.0193,
      "velocity": 94,
      "chip": "ym2612"
    },
    {
      "channel": 3,
      "note": 89,
      "start": 31.1367,
      "duration": 0.0196,
      "velocity": 94,
      "chip": "ym2612"
    },
    {
      "channel": 2,
      "note": 52,
      "start": 31.1378,
      "duration": 0.02,
      "velocity": 100,
      "chip": "ym2612"
    },
    {
      "channel": 1,
      "note": 78,
      "start": 31.1511,
      "duration": 0.0145,
      "velocity": 124,
      "chip": "ym2612"
    },
    {
      "channel": 0,
      "note": 48,
      "start": 31.1535,
      "duration": 0.014,
      "velocity": 115,
      "chip": "ym2612"
    },
    {
      "channel": 4,
      "note": 89,
      "start": 31.1549,
      "duration": 0.0138,
      "velocity": 94,
      "chip": "ym2612"
    },
    {
      "channel": 3,
      "note": 88,
      "start": 31.1563,
      "duration": 0.0136,
      "velocity": 94,
      "chip": "ym2612"
    },
    {
      "channel": 2,
      "note": 52,
      "start": 31.1578,
      "duration": 0.0134,
      "velocity": 100,
      "chip": "ym2612"
    },
    {
      "channel": 1,
      "note": 76,
      "start": 31.1656,
      "duration": 0.0159,
      "velocity": 124,
      "chip": "ym2612"
    },
    {
      "channel": 0,
      "note": 49,
      "start": 31.1675,
      "duration": 0.0151,
      "velocity": 1,
      "chip": "ym2612"
    },
    {
      "channel": 4,
      "note": 89,
      "start": 31.1687,
      "duration": 0.015,
      "velocity": 94,
      "chip": "ym2612"
    },
    {
      "channel": 3,
      "note": 88,
      "start": 31.1699,
      "duration": 0.015,
      "velocity": 94,
      "chip": "ym2612"
    },
    {
      "channel": 2,
      "note": 52,
      "start": 31.1711,
      "duration": 0.0149,
      "velocity": 100,
      "chip": "ym2612"
    },
    {
      "channel": 1,
      "note": 75,
      "start": 31.1815,
      "duration": 0.0162,
      "velocity": 124,
      "chip": "ym2612"
    },
    {
      "channel": 4,
      "note": 89,
      "start": 31.1837,
      "duration": 0.0153,
      "velocity": 94,
      "chip": "ym2612"
    },
    {
      "channel": 3,
      "note": 88,
      "start": 31.1849,
      "duration": 0.0153,
      "velocity": 94,
      "chip": "ym2612"
    },
    {
      "channel": 2,
      "note": 52,
      "start": 31.186,
      "duration": 0.0153,
      "velocity": 100,
      "chip": "ym2612"
    },
    {
      "channel": 1,
      "note": 74,
      "start": 31.1976,
      "duration": 0.016,
      "velocity": 124,
      "chip": "ym2612"
    },
    {
      "channel": 4,
      "note": 89,
      "start": 31.199,
      "duration": 0.016,
      "velocity": 94,
      "chip": "ym2612"
    },
    {
      "channel": 3,
      "note": 88,
      "start": 31.2002,
      "duration": 0.016,
      "velocity": 94,
      "chip": "ym2612"
    },
    {
      "channel": 2,
      "note": 52,
      "start": 31.2013,
      "duration": 0.0161,
      "velocity": 100,
      "chip": "ym2612"
    },
    {
      "channel": 1,
      "note": 72,
      "start": 31.2137,
      "duration": 0.0174,
      "velocity": 124,
      "chip": "ym2612"
    },
    {
      "channel": 4,
      "note": 89,
      "start": 31.2151,
      "duration": 0.0174,
      "velocity": 94,
      "chip": "ym2612"
    },
    {
      "channel": 3,
      "note": 88,
      "start": 31.2162,
      "duration": 0.0174,
      "velocity": 94,
      "chip": "ym2612"
    },
    {
      "channel": 2,
      "note": 52,
      "start": 31.2173,
      "duration": 0.0174,
      "velocity": 100,
      "chip": "ym2612"
    },
    {
      "channel": 1,
      "note": 71,
      "start": 31.2311,
      "duration": 0.0167,
      "velocity": 124,
      "chip": "ym2612"
    },
    {
      "channel": 4,
      "note": 89,
      "start": 31.2325,
      "duration": 0.0167,
      "velocity": 94,
      "chip": "ym2612"
    },
    {
      "channel": 3,
      "note": 88,
      "start": 31.2336,
      "duration": 0.0167,
      "velocity": 94,
      "chip": "ym2612"
    },
    {
      "channel": 2,
      "note": 52,
      "start": 31.2348,
      "duration": 0.0167,
      "velocity": 100,
      "chip": "ym2612"
    },
    {
      "channel": 1,
      "note": 70,
      "start": 31.2478,
      "duration": 0.0163,
      "velocity": 124,
      "chip": "ym2612"
    },
    {
      "channel": 4,
      "note": 89,
      "start": 31.2492,
      "duration": 0.0171,
      "velocity": 94,
      "chip": "ym2612"
    },
    {
      "channel": 3,
      "note": 88,
      "start": 31.2503,
      "duration": 0.0174,
      "velocity": 94,
      "chip": "ym2612"
    },
    {
      "channel": 2,
      "note": 52,
      "start": 31.2515,
      "duration": 0.0177,
      "velocity": 100,
      "chip": "ym2612"
    },
    {
      "channel": 1,
      "note": 69,
      "start": 31.2641,
      "duration": 0.0143,
      "velocity": 124,
      "chip": "ym2612"
    },
    {
      "channel": 4,
      "note": 88,
      "start": 31.2663,
      "duration": 0.0136,
      "velocity": 94,
      "chip": "ym2612"
    },
    {
      "channel": 3,
      "note": 89,
      "start": 31.2677,
      "duration": 0.0134,
      "velocity": 94,
      "chip": "ym2612"
    },
    {
      "channel": 2,
      "note": 52,
      "start": 31.2691,
      "duration": 0.0132,
      "velocity": 100,
      "chip": "ym2612"
    },
    {
      "channel": 1,
      "note": 68,
      "start": 31.2784,
      "duration": 0.0185,
      "velocity": 124,
      "chip": "ym2612"
    },
    {
      "channel": 4,
      "note": 88,
      "start": 31.28,
      "duration": 0.0184,
      "velocity": 94,
      "chip": "ym2612"
    },
    {
      "channel": 3,
      "note": 89,
      "start": 31.2811,
      "duration": 0.0184,
      "velocity": 94,
      "chip": "ym2612"
    },
    {
      "channel": 2,
      "note": 52,
      "start": 31.2823,
      "duration": 0.0183,
      "velocity": 100,
      "chip": "ym2612"
    },
    {
      "channel": 1,
      "note": 66,
      "start": 31.2969,
      "duration": 0.0161,
      "velocity": 124,
      "chip": "ym2612"
    },
    {
      "channel": 4,
      "note": 88,
      "start": 31.2983,
      "duration": 0.0161,
      "velocity": 94,
      "chip": "ym2612"
    },
    {
      "channel": 3,
      "note": 89,
      "start": 31.2995,
      "duration": 0.0161,
      "velocity": 94,
      "chip": "ym2612"
    },
    {
      "channel": 2,
      "note": 52,
      "start": 31.3006,
      "duration": 0.0161,
      "velocity": 100,
      "chip": "ym2612"
    },
    {
      "channel": 1,
      "note": 65,
      "start": 31.313,
      "duration": 0.0134,
      "velocity": 124,
      "chip": "ym2612"
    },
    {
      "channel": 4,
      "note": 88,
      "start": 31.3144,
      "duration": 0.0158,
      "velocity": 94,
      "chip": "ym2612"
    },
    {
      "channel": 3,
      "note": 89,
      "start": 31.3156,
      "duration": 0.0158,
      "velocity": 94,
      "chip": "ym2612"
    },
    {
      "channel": 2,
      "note": 52,
      "start": 31.3167,
      "duration": 0.0157,
      "velocity": 100,
      "chip": "ym2612"
    },
    {
      "channel": 1,
      "note": 64,
      "start": 31.3264,
      "duration": 0.0161,
      "velocity": 124,
      "chip": "ym2612"
    },
    {
      "channel": 4,
      "note": 88,
      "start": 31.3302,
      "duration": 0.014,
      "velocity": 94,
      "chip": "ym2612"
    },
    {
      "channel": 3,
      "note": 89,
      "start": 31.3313,
      "duration": 0.014,
      "velocity": 94,
      "chip": "ym2612"
    },
    {
      "channel": 2,
      "note": 52,
      "start": 31.3324,
      "duration": 0.0141,
      "velocity": 100,
      "chip": "ym2612"
    },
    {
      "channel": 1,
      "note": 62,
      "start": 31.3425,
      "duration": 0.0161,
      "velocity": 124,
      "chip": "ym2612"
    },
    {
      "channel": 4,
      "note": 88,
      "start": 31.3442,
      "duration": 0.0185,
      "velocity": 94,
      "chip": "ym2612"
    },
    {
      "channel": 3,
      "note": 89,
      "start": 31.3454,
      "duration": 0.0185,
      "velocity": 94,
      "chip": "ym2612"
    },
    {
      "channel": 2,
      "note": 52,
      "start": 31.3465,
      "duration": 0.0185,
      "velocity": 100,
      "chip": "ym2612"
    },
    {
      "channel": 1,
      "note": 61,
      "start": 31.3586,
      "duration": 0.0161,
      "velocity": 124,
      "chip": "ym2612"
    },
    {
      "channel": 4,
      "note": 88,
      "start": 31.3627,
      "duration": 0.0167,
      "velocity": 94,
      "chip": "ym2612"
    },
    {
      "channel": 3,
      "note": 89,
      "start": 31.3639,
      "duration": 0.0169,
      "velocity": 94,
      "chip": "ym2612"
    },
    {
      "channel": 2,
      "note": 52,
      "start": 31.365,
      "duration": 0.0173,
      "velocity": 100,
      "chip": "ym2612"
    },
    {
      "channel": 1,
      "note": 60,
      "start": 31.3747,
      "duration": 0.0161,
      "velocity": 124,
      "chip": "ym2612"
    },
    {
      "channel": 4,
      "note": 88,
      "start": 31.3794,
      "duration": 0.0129,
      "velocity": 94,
      "chip": "ym2612"
    },
    {
      "channel": 3,
      "note": 88,
      "start": 31.3808,
      "duration": 0.015,
      "velocity": 94,
      "chip": "ym2612"
    },
    {
      "channel": 2,
      "note": 52,
      "start": 31.3822,
      "duration": 0.0148,
      "velocity": 100,
      "chip": "ym2612"
    },
    {
      "channel": 1,
      "note": 59,
      "start": 31.3908,
      "duration": 0.0161,
      "velocity": 124,
      "chip": "ym2612"
    },
    {
      "channel": 4,
      "note": 88,
      "start": 31.3922,
      "duration": 0.0161,
      "velocity": 94,
      "chip": "ym2612"
    },
    {
      "channel": 3,
      "note": 88,
      "start": 31.3958,
      "duration": 0.0137,
      "velocity": 94,
      "chip": "ym2612"
    },
    {
      "channel": 2,
      "note": 52,
      "start": 31.397,
      "duration": 0.0139,
      "velocity": 100,
      "chip": "ym2612"
    },
    {
      "channel": 1,
      "note": 57,
      "start": 31.4069,
      "duration": 0.0161,
      "velocity": 124,
      "chip": "ym2612"
    },
    {
      "channel": 4,
      "note": 88,
      "start": 31.4083,
      "duration": 0.0161,
      "velocity": 94,
      "chip": "ym2612"
    },
    {
      "channel": 3,
      "note": 88,
      "start": 31.4095,
      "duration": 0.0161,
      "velocity": 94,
      "chip": "ym2612"
    },
    {
      "channel": 2,
      "note": 52,
      "start": 31.4109,
      "duration": 0.0185,
      "velocity": 100,
      "chip": "ym2612"
    },
    {
      "channel": 1,
      "note": 56,
      "start": 31.423,
      "duration": 0.0161,
      "velocity": 124,
      "chip": "ym2612"
    },
    {
      "channel": 4,
      "note": 88,
      "start": 31.4244,
      "duration": 0.0161,
      "velocity": 94,
      "chip": "ym2612"
    },
    {
      "channel": 3,
      "note": 88,
      "start": 31.4256,
      "duration": 0.0161,
      "velocity": 94,
      "chip": "ym2612"
    },
    {
      "channel": 2,
      "note": 52,
      "start": 31.4294,
      "duration": 0.0134,
      "velocity": 100,
      "chip": "ym2612"
    },
    {
      "channel": 1,
      "note": 55,
      "start": 31.4391,
      "duration": 0.0161,
      "velocity": 124,
      "chip": "ym2612"
    },
    {
      "channel": 4,
      "note": 88,
      "start": 31.4405,
      "duration": 0.0161,
      "velocity": 94,
      "chip": "ym2612"
    },
    {
      "channel": 3,
      "note": 88,
      "start": 31.4417,
      "duration": 0.0161,
      "velocity": 94,
      "chip": "ym2612"
    },
    {
      "channel": 2,
      "note": 52,
      "start": 31.4428,
      "duration": 0.0161,
      "velocity": 100,
      "chip": "ym2612"
    },
    {
      "channel": 1,
      "note": 53,
      "start": 31.4552,
      "duration": 0.0161,
      "velocity": 124,
      "chip": "ym2612"
    },
    {
      "channel": 4,
      "note": 88,
      "start": 31.4566,
      "duration": 0.0161,
      "velocity": 94,
      "chip": "ym2612"
    },
    {
      "channel": 3,
      "note": 88,
      "start": 31.4578,
      "duration": 0.0161,
      "velocity": 94,
      "chip": "ym2612"
    },
    {
      "channel": 2,
      "note": 52,
      "start": 31.4589,
      "duration": 0.0161,
      "velocity": 100,
      "chip": "ym2612"
    },
    {
      "channel": 1,
      "note": 52,
      "start": 31.4713,
      "duration": 0.0161,
      "velocity": 124,
      "chip": "ym2612"
    },
    {
      "channel": 4,
      "note": 88,
      "start": 31.4727,
      "duration": 0.0203,
      "velocity": 94,
      "chip": "ym2612"
    },
    {
      "channel": 3,
      "note": 88,
      "start": 31.4738,
      "duration": 0.0231,
      "velocity": 94,
      "chip": "ym2612"
    },
    {
      "channel": 2,
      "note": 52,
      "start": 31.475,
      "duration": 0.0233,
      "velocity": 100,
      "chip": "ym2612"
    },
    {
      "channel": 1,
      "note": 51,
      "start": 31.4874,
      "duration": 0.0153,
      "velocity": 1,
      "chip": "ym2612"
    },
    {
      "channel": 0,
      "note": 36,
      "start": 31.4916,
      "duration": 0.015,
      "velocity": 115,
      "chip": "ym2612"
    },
    {
      "channel": 4,
      "note": 84,
      "start": 31.4931,
      "duration": 0.0148,
      "velocity": 94,
      "chip": "ym2612"
    },
    {
      "channel": 3,
      "note": 88,
      "start": 31.4969,
      "duration": 0.0121,
      "velocity": 94,
      "chip": "ym2612"
    },
    {
      "channel": 2,
      "note": 52,
      "start": 31.4984,
      "duration": 0.0145,
      "velocity": 100,
      "chip": "ym2612"
    },
    {
      "channel": 1,
      "note": 51,
      "start": 31.5049,
      "duration": 0.0143,
      "velocity": 105,
      "chip": "ym2612"
    },
    {
      "channel": 0,
      "note": 36,
      "start": 31.5066,
      "duration": 0.0142,
      "velocity": 115,
      "chip": "ym2612"
    },
    {
      "channel": 4,
      "note": 84,
      "start": 31.5079,
      "duration": 0.0141,
      "velocity": 94,
      "chip": "ym2612"
    },
    {
      "channel": 3,
      "note": 88,
      "start": 31.509,
      "duration": 0.0141,
      "velocity": 94,
      "chip": "ym2612"
    },
    {
      "channel": 2,
      "note": 52,
      "start": 31.5129,
      "duration": 0.0113,
      "velocity": 100,
      "chip": "ym2612"
    },
    {
      "channel": 1,
      "note": 105,
      "start": 31.5191,
      "duration": 0.0161,
      "velocity": 105,
      "chip": "ym2612"
    },
    {
      "channel": 0,
      "note": 37,
      "start": 31.5208,
      "duration": 0.0161,
      "velocity": 115,
      "chip": "ym2612"
    },
    {
      "channel": 4,
      "note": 84,
      "start": 31.5219,
      "duration": 0.0161,
      "velocity": 94,
      "chip": "ym2612"
    },
    {
      "channel": 3,
      "note": 88,
      "start": 31.5231,
      "duration": 0.0161,
      "velocity": 94,
      "chip": "ym2612"
    },
    {
      "channel": 2,
      "note": 52,
      "start": 31.5242,
      "duration": 0.0161,
      "velocity": 100,
      "chip": "ym2612"
    },
    {
      "channel": 1,
      "note": 105,
      "start": 31.5352,
      "duration": 0.0161,
      "velocity": 105,
      "chip": "ym2612"
    },
    {
      "channel": 0,
      "note": 37,
      "start": 31.5369,
      "duration": 0.0161,
      "velocity": 115,
      "chip": "ym2612"
    },
    {
      "channel": 4,
      "note": 84,
      "start": 31.538,
      "duration": 0.0161,
      "velocity": 94,
      "chip": "ym2612"
    },
    {
      "channel": 3,
      "note": 88,
      "start": 31.5392,
      "duration": 0.0161,
      "velocity": 94,
      "chip": "ym2612"
    },
    {
      "channel": 2,
      "note": 52,
      "start": 31.5403,
      "duration": 0.0161,
      "velocity": 100,
      "chip": "ym2612"
    },
    {
      "channel": 1,
      "note": 105,
      "start": 31.5513,
      "duration": 0.0161,
      "velocity": 105,
      "chip": "ym2612"
    },
    {
      "channel": 0,
      "note": 38,
      "start": 31.553,
      "duration": 0.0161,
      "velocity": 115,
      "chip": "ym2612"
    },
    {
      "channel": 4,
      "note": 84,
      "start": 31.5541,
      "duration": 0.0161,
      "velocity": 94,
      "chip": "ym2612"
    },
    {
      "channel": 3,
      "note": 88,
      "start": 31.5553,
      "duration": 0.0162,
      "velocity": 94,
      "chip": "ym2612"
    },
    {
      "channel": 2,
      "note": 52,
      "start": 31.5564,
      "duration": 0.0161,
      "velocity": 100,
      "chip": "ym2612"
    },
    {
      "channel": 1,
      "note": 105,
      "start": 31.5674,
      "duration": 0.0161,
      "velocity": 105,
      "chip": "ym2612"
    },
    {
      "channel": 0,
      "note": 38,
      "start": 31.5691,
      "duration": 0.0161,
      "velocity": 115,
      "chip": "ym2612"
    },
    {
      "channel": 4,
      "note": 84,
      "start": 31.5703,
      "duration": 0.0161,
      "velocity": 94,
      "chip": "ym2612"
    },
    {
      "channel": 3,
      "note": 88,
      "start": 31.5714,
      "duration": 0.0161,
      "velocity": 94,
      "chip": "ym2612"
    },
    {
      "channel": 2,
      "note": 52,
      "start": 31.5725,
      "duration": 0.0161,
      "velocity": 100,
      "chip": "ym2612"
    },
    {
      "channel": 1,
      "note": 105,
      "start": 31.5835,
      "duration": 0.0178,
      "velocity": 124,
      "chip": "ym2612"
    },
    {
      "channel": 0,
      "note": 39,
      "start": 31.5852,
      "duration": 0.0197,
      "velocity": 115,
      "chip": "ym2612"
    },
    {
      "channel": 4,
      "note": 84,
      "start": 31.5864,
      "duration": 0.0198,
      "velocity": 94,
      "chip": "ym2612"
    },
    {
      "channel": 3,
      "note": 88,
      "start": 31.5875,
      "duration": 0.0201,
      "velocity": 94,
      "chip": "ym2612"
    },
    {
      "channel": 2,
      "note": 52,
      "start": 31.5886,
      "duration": 0.0205,
      "velocity": 100,
      "chip": "ym2612"
    },
    {
      "channel": 1,
      "note": 64,
      "start": 31.6014,
      "duration": 0.0144,
      "velocity": 124,
      "chip": "ym2612"
    },
    {
      "channel": 0,
      "note": 36,
      "start": 31.6048,
      "duration": 0.0127,
      "velocity": 115,
      "chip": "ym2612"
    },
    {
      "channel": 4,
      "note": 86,
      "start": 31.6063,
      "duration": 0.0125,
      "velocity": 94,
      "chip": "ym2612"
    },
    {
      "channel": 3,
      "note": 84,
      "start": 31.6077,
      "duration": 0.0123,
      "velocity": 94,
      "chip": "ym2612"
    },
    {
      "channel": 2,
      "note": 52,
      "start": 31.6091,
      "duration": 0.012,
      "velocity": 100,
      "chip": "ym2612"
    },
    {
      "channel": 1,
      "note": 64,
      "start": 31.6158,
      "duration": 0.0161,
      "velocity": 124,
      "chip": "ym2612"
    },
    {
      "channel": 0,
      "note": 36,
      "start": 31.6176,
      "duration": 0.016,
      "velocity": 115,
      "chip": "ym2612"
    },
    {
      "channel": 4,
      "note": 86,
      "start": 31.6188,
      "duration": 0.0159,
      "velocity": 94,
      "chip": "ym2612"
    },
    {
      "channel": 3,
      "note": 84,
      "start": 31.62,
      "duration": 0.0159,
      "velocity": 94,
      "chip": "ym2612"
    },
    {
      "channel": 2,
      "note": 52,
      "start": 31.6211,
      "duration": 0.0158,
      "velocity": 100,
      "chip": "ym2612"
    },
    {
      "channel": 1,
      "note": 64,
      "start": 31.6319,
      "duration": 0.0161,
      "velocity": 124,
      "chip": "ym2612"
    },
    {
      "channel": 0,
      "note": 37,
      "start": 31.6335,
      "duration": 0.0161,
      "velocity": 115,
      "chip": "ym2612"
    },
    {
      "channel": 4,
      "note": 86,
      "start": 31.6346,
      "duration": 0.0161,
      "velocity": 94,
      "chip": "ym2612"
    },
    {
      "channel": 3,
      "note": 84,
      "start": 31.6358,
      "duration": 0.0161,
      "velocity": 94,
      "chip": "ym2612"
    },
    {
      "channel": 2,
      "note": 52,
      "start": 31.6369,
      "duration": 0.0161,
      "velocity": 100,
      "chip": "ym2612"
    },
    {
      "channel": 1,
      "note": 64,
      "start": 31.648,
      "duration": 0.0161,
      "velocity": 124,
      "chip": "ym2612"
    },
    {
      "channel": 0,
      "note": 37,
      "start": 31.6496,
      "duration": 0.0161,
      "velocity": 115,
      "chip": "ym2612"
    },
    {
      "channel": 4,
      "note": 86,
      "start": 31.6507,
      "duration": 0.0162,
      "velocity": 94,
      "chip": "ym2612"
    },
    {
      "channel": 3,
      "note": 84,
      "start": 31.6519,
      "duration": 0.0161,
      "velocity": 94,
      "chip": "ym2612"
    },
    {
      "channel": 2,
      "note": 52,
      "start": 31.653,
      "duration": 0.0161,
      "velocity": 100,
      "chip": "ym2612"
    },
    {
      "channel": 1,
      "note": 64,
      "start": 31.664,
      "duration": 0.0161,
      "velocity": 124,
      "chip": "ym2612"
    },
    {
      "channel": 0,
      "note": 38,
      "start": 31.6657,
      "duration": 0.0161,
      "velocity": 115,
      "chip": "ym2612"
    },
    {
      "channel": 4,
      "note": 86,
      "start": 31.6669,
      "duration": 0.0161,
      "velocity": 94,
      "chip": "ym2612"
    },
    {
      "channel": 3,
      "note": 84,
      "start": 31.668,
      "duration": 0.0161,
      "velocity": 94,
      "chip": "ym2612"
    },
    {
      "channel": 2,
      "note": 52,
      "start": 31.6691,
      "duration": 0.0161,
      "velocity": 100,
      "chip": "ym2612"
    },
    {
      "channel": 1,
      "note": 64,
      "start": 31.6801,
      "duration": 0.0172,
      "velocity": 124,
      "chip": "ym2612"
    },
    {
      "channel": 0,
      "note": 38,
      "start": 31.6818,
      "duration": 0.0172,
      "velocity": 115,
      "chip": "ym2612"
    },
    {
      "channel": 4,
      "note": 86,
      "start": 31.683,
      "duration": 0.0171,
      "velocity": 94,
      "chip": "ym2612"
    },
    {
      "channel": 3,
      "note": 84,
      "start": 31.6841,
      "duration": 0.0171,
      "velocity": 94,
      "chip": "ym2612"
    },
    {
      "channel": 2,
      "note": 52,
      "start": 31.6852,
      "duration": 0.0172,
      "velocity": 100,
      "chip": "ym2612"
    },
    {
      "channel": 1,
      "note": 64,
      "start": 31.6973,
      "duration": 0.0183,
      "velocity": 105,
      "chip": "ym2612"
    },
    {
      "channel": 0,
      "note": 39,
      "start": 31.699,
      "duration": 0.0184,
      "velocity": 115,
      "chip": "ym2612"
    },
    {
      "channel": 4,
      "note": 86,
      "start": 31.7001,
      "duration": 0.0184,
      "velocity": 94,
      "chip": "ym2612"
    },
    {
      "channel": 3,
      "note": 84,
      "start": 31.7013,
      "duration": 0.0186,
      "velocity": 94,
      "chip": "ym2612"
    },
    {
      "channel": 2,
      "note": 52,
      "start": 31.7024,
      "duration": 0.019,
      "velocity": 100,
      "chip": "ym2612"
    },
    {
      "channel": 1,
      "note": 105,
      "start": 31.7157,
      "duration": 0.0146,
      "velocity": 105,
      "chip": "ym2612"
    },
    {
      "channel": 0,
      "note": 39,
      "start": 31.7173,
      "duration": 0.0146,
      "velocity": 115,
      "chip": "ym2612"
    },
    {
      "channel": 4,
      "note": 86,
      "start": 31.7185,
      "duration": 0.0146,
      "velocity": 94,
      "chip": "ym2612"
    },
    {
      "channel": 3,
      "note": 86,
      "start": 31.7199,
      "duration": 0.0144,
      "velocity": 94,
      "chip": "ym2612"
    },
    {
      "channel": 2,
      "note": 52,
      "start": 31.7214,
      "duration": 0.0142,
      "velocity": 100,
      "chip": "ym2612"
    },
    {
      "channel": 1,
      "note": 105,
      "start": 31.7303,
      "duration": 0.0145,
      "velocity": 105,
      "chip": "ym2612"
    },
    {
      "channel": 0,
      "note": 40,
      "start": 31.732,
      "duration": 0.0146,
      "velocity": 115,
      "chip": "ym2612"
    },
    {
      "channel": 4,
      "note": 86,
      "start": 31.7331,
      "duration": 0.0146,
      "velocity": 94,
      "chip": "ym2612"
    },
    {
      "channel": 3,
      "note": 86,
      "start": 31.7343,
      "duration": 0.0145,
      "velocity": 94,
      "chip": "ym2612"
    },
    {
      "channel": 2,
      "note": 52,
      "start": 31.7356,
      "duration": 0.0144,
      "velocity": 100,
      "chip": "ym2612"
    },
    {
      "channel": 1,
      "note": 105,
      "start": 31.7448,
      "duration": 0.0185,
      "velocity": 105,
      "chip": "ym2612"
    },
    {
      "channel": 0,
      "note": 40,
      "start": 31.7466,
      "duration": 0.0185,
      "velocity": 115,
      "chip": "ym2612"
    },
    {
      "channel": 4,
      "note": 86,
      "start": 31.7477,
      "duration": 0.0185,
      "velocity": 94,
      "chip": "ym2612"
    },
    {
      "channel": 3,
      "note": 86,
      "start": 31.7488,
      "duration": 0.0185,
      "velocity": 94,
      "chip": "ym2612"
    },
    {
      "channel": 2,
      "note": 52,
      "start": 31.75,
      "duration": 0.0185,
      "velocity": 100,
      "chip": "ym2612"
    },
    {
      "channel": 1,
      "note": 105,
      "start": 31.7634,
      "duration": 0.0161,
      "velocity": 105,
      "chip": "ym2612"
    },
    {
      "channel": 0,
      "note": 40,
      "start": 31.7651,
      "duration": 0.0161,
      "velocity": 115,
      "chip": "ym2612"
    },
    {
      "channel": 4,
      "note": 86,
      "start": 31.7662,
      "duration": 0.0161,
      "velocity": 94,
      "chip": "ym2612"
    },
    {
      "channel": 3,
      "note": 86,
      "start": 31.7673,
      "duration": 0.0161,
      "velocity": 94,
      "chip": "ym2612"
    },
    {
      "channel": 2,
      "note": 52,
      "start": 31.7685,
      "duration": 0.0161,
      "velocity": 100,
      "chip": "ym2612"
    },
    {
      "channel": 1,
      "note": 105,
      "start": 31.7795,
      "duration": 0.0133,
      "velocity": 105,
      "chip": "ym2612"
    },
    {
      "channel": 0,
      "note": 41,
      "start": 31.7812,
      "duration": 0.0157,
      "velocity": 115,
      "chip": "ym2612"
    },
    {
      "channel": 4,
      "note": 86,
      "start": 31.7823,
      "duration": 0.0157,
      "velocity": 94,
      "chip": "ym2612"
    },
    {
      "channel": 3,
      "note": 86,
      "start": 31.7834,
      "duration": 0.0157,
      "velocity": 94,
      "chip": "ym2612"
    },
    {
      "channel": 2,
      "note": 52,
      "start": 31.7846,
      "duration": 0.0157,
      "velocity": 100,
      "chip": "ym2612"
    },
    {
      "channel": 1,
      "note": 105,
      "start": 31.7928,
      "duration": 0.0162,
      "velocity": 105,
      "chip": "ym2612"
    },
    {
      "channel": 0,
      "note": 41,
      "start": 31.7969,
      "duration": 0.0141,
      "velocity": 115,
      "chip": "ym2612"
    },
    {
      "channel": 4,
      "note": 86,
      "start": 31.798,
      "duration": 0.0141,
      "velocity": 94,
      "chip": "ym2612"
    },
    {
      "channel": 3,
      "note": 86,
      "start": 31.7992,
      "duration": 0.0141,
      "velocity": 94,
      "chip": "ym2612"
    },
    {
      "channel": 2,
      "note": 52,
      "start": 31.8003,
      "duration": 0.0141,
      "velocity": 100,
      "chip": "ym2612"
    },
    {
      "channel": 1,
      "note": 105,
      "start": 31.809,
      "duration": 0.0205,
      "velocity": 124,
      "chip": "ym2612"
    },
    {
      "channel": 0,
      "note": 42,
      "start": 31.8109,
      "duration": 0.0203,
      "velocity": 115,
      "chip": "ym2612"
    },
    {
      "channel": 4,
      "note": 86,
      "start": 31.8121,
      "duration": 0.0203,
      "velocity": 94,
      "chip": "ym2612"
    },
    {
      "channel": 3,
      "note": 86,
      "start": 31.8132,
      "duration": 0.0203,
      "velocity": 94,
      "chip": "ym2612"
    },
    {
      "channel": 2,
      "note": 52,
      "start": 31.8144,
      "duration": 0.0206,
      "velocity": 100,
      "chip": "ym2612"
    },
    {
      "channel": 1,
      "note": 64,
      "start": 31.8296,
      "duration": 0.0116,
      "velocity": 124,
      "chip": "ym2612"
    },
    {
      "channel": 0,
      "note": 42,
      "start": 31.8312,
      "duration": 0.0116,
      "velocity": 115,
      "chip": "ym2612"
    },
    {
      "channel": 4,
      "note": 86,
      "start": 31.8324,
      "duration": 0.0144,
      "velocity": 94,
      "chip": "ym2612"
    },
    {
      "channel": 3,
      "note": 86,
      "start": 31.8335,
      "duration": 0.0144,
      "velocity": 94,
      "chip": "ym2612"
    },
    {
      "channel": 2,
      "note": 52,
      "start": 31.835,
      "duration": 0.0141,
      "velocity": 100,
      "chip": "ym2612"
    },
    {
      "channel": 1,
      "note": 64,
      "start": 31.8412,
      "duration": 0.016,
      "velocity": 124,
      "chip": "ym2612"
    },
    {
      "channel": 0,
      "note": 43,
      "start": 31.8429,
      "duration": 0.016,
      "velocity": 115,
      "chip": "ym2612"
    },
    {
      "channel": 4,
      "note": 86,
      "start": 31.8468,
      "duration": 0.0156,
      "velocity": 94,
      "chip": "ym2612"
    },
    {
      "channel": 3,
      "note": 86,
      "start": 31.848,
      "duration": 0.0156,
      "velocity": 94,
      "chip": "ym2612"
    },
    {
      "channel": 2,
      "note": 52,
      "start": 31.8491,
      "duration": 0.0156,
      "velocity": 100,
      "chip": "ym2612"
    },
    {
      "channel": 1,
      "note": 64,
      "start": 31.8572,
      "duration": 0.0161,
      "velocity": 124,
      "chip": "ym2612"
    },
    {
      "channel": 0,
      "note": 43,
      "start": 31.8589,
      "duration": 0.0161,
      "velocity": 115,
      "chip": "ym2612"
    },
    {
      "channel": 4,
      "note": 86,
      "start": 31.8624,
      "duration": 0.0137,
      "velocity": 94,
      "chip": "ym2612"
    },
    {
      "channel": 3,
      "note": 86,
      "start": 31.8636,
      "duration": 0.0141,
      "velocity": 94,
      "chip": "ym2612"
    },
    {
      "channel": 2,
      "note": 52,
      "start": 31.8647,
      "duration": 0.014,
      "velocity": 100,
      "chip": "ym2612"
    },
    {
      "channel": 1,
      "note": 64,
      "start": 31.8733,
      "duration": 0.0161,
      "velocity": 124,
      "chip": "ym2612"
    },
    {
      "channel": 0,
      "note": 44,
      "start": 31.875,
      "duration": 0.0161,
      "velocity": 115,
      "chip": "ym2612"
    },
    {
      "channel": 4,
      "note": 86,
      "start": 31.8762,
      "duration": 0.0161,
      "velocity": 94,
      "chip": "ym2612"
    },
    {
      "channel": 3,
      "note": 86,
      "start": 31.8777,
      "duration": 0.0185,
      "velocity": 94,
      "chip": "ym2612"
    },
    {
      "channel": 2,
      "note": 52,
      "start": 31.8787,
      "duration": 0.0186,
      "velocity": 100,
      "chip": "ym2612"
    },
    {
      "channel": 1,
      "note": 64,
      "start": 31.8894,
      "duration": 0.0161,
      "velocity": 124,
      "chip": "ym2612"
    },
    {
      "channel": 0,
      "note": 44,
      "start": 31.8911,
      "duration": 0.0161,
      "velocity": 115,
      "chip": "ym2612"
    },
    {
      "channel": 4,
      "note": 86,
      "start": 31.8923,
      "duration": 0.0161,
      "velocity": 94,
      "chip": "ym2612"
    },
    {
      "channel": 3,
      "note": 86,
      "start": 31.8962,
      "duration": 0.0134,
      "velocity": 94,
      "chip": "ym2612"
    },
    {
      "channel": 2,
      "note": 52,
      "start": 31.8973,
      "duration": 0.0161,
      "velocity": 100,
      "chip": "ym2612"
    },
    {
      "channel": 1,
      "note": 64,
      "start": 31.9055,
      "duration": 0.0161,
      "velocity": 124,
      "chip": "ym2612"
    },
    {
      "channel": 0,
      "note": 44,
      "start": 31.9072,
      "duration": 0.0161,
      "velocity": 115,
      "chip": "ym2612"
    },
    {
      "channel": 4,
      "note": 86,
      "start": 31.9084,
      "duration": 0.0161,
      "velocity": 94,
      "chip": "ym2612"
    },
    {
      "channel": 3,
      "note": 86,
      "start": 31.9095,
      "duration": 0.0161,
      "velocity": 94,
      "chip": "ym2612"
    },
    {
      "channel": 2,
      "note": 52,
      "start": 31.9134,
      "duration": 0.0157,
      "velocity": 100,
      "chip": "ym2612"
    },
    {
      "channel": 1,
      "note": 64,
      "start": 31.9216,
      "duration": 0.0178,
      "velocity": 105,
      "chip": "ym2612"
    },
    {
      "channel": 0,
      "note": 45,
      "start": 31.9233,
      "duration": 0.0178,
      "velocity": 115,
      "chip": "ym2612"
    },
    {
      "channel": 4,
      "note": 86,
      "start": 31.9245,
      "duration": 0.0181,
      "velocity": 94,
      "chip": "ym2612"
    },
    {
      "channel": 3,
      "note": 86,
      "start": 31.9256,
      "duration": 0.0184,
      "velocity": 94,
      "chip": "ym2612"
    },
    {
      "channel": 2,
      "note": 52,
      "start": 31.9291,
      "duration": 0.0163,
      "velocity": 100,
      "chip": "ym2612"
    },
    {
      "channel": 1,
      "note": 105,
      "start": 31.9395,
      "duration": 0.0144,
      "velocity": 105,
      "chip": "ym2612"
    },
    {
      "channel": 0,
      "note": 45,
      "start": 31.9411,
      "duration": 0.0144,
      "velocity": 115,
      "chip": "ym2612"
    },
    {
      "channel": 4,
      "note": 81,
      "start": 31.9425,
      "duration": 0.0143,
      "velocity": 94,
      "chip": "ym2612"
    },
    {
      "channel": 3,
      "note": 86,
      "start": 31.944,
      "duration": 0.0139,
      "velocity": 94,
      "chip": "ym2612"
    },
    {
      "channel": 2,
      "note": 52,
      "start": 31.9455,
      "duration": 0.0137,
      "velocity": 100,
      "chip": "ym2612"
    },
    {
      "channel": 1,
      "note": 105,
      "start": 31.9539,
      "duration": 0.0161,
      "velocity": 105,
      "chip": "ym2612"
    },
    {
      "channel": 0,
      "note": 46,
      "start": 31.9556,
      "duration": 0.016,
      "velocity": 115,
      "chip": "ym2612"
    },
    {
      "channel": 4,
      "note": 81,
      "start": 31.9568,
      "duration": 0.016,
      "velocity": 94,
      "chip": "ym2612"
    },
    {
      "channel": 3,
      "note": 86,
      "start": 31.9579,
      "duration": 0.016,
      "velocity": 94,
      "chip": "ym2612"
    },
    {
      "channel": 2,
      "note": 52,
      "start": 31.9591,
      "duration": 0.0159,
      "velocity": 100,
      "chip": "ym2612"
    },
    {
      "channel": 1,
      "note": 105,
      "start": 31.97,
      "duration": 0.0161,
      "velocity": 105,
      "chip": "ym2612"
    },
    {
      "channel": 0,
      "note": 46,
      "start": 31.9716,
      "duration": 0.0161,
      "velocity": 115,
      "chip": "ym2612"
    },
    {
      "channel": 4,
      "note": 81,
      "start": 31.9728,
      "duration": 0.0161,
      "velocity": 94,
      "chip": "ym2612"
    },
    {
      "channel": 3,
      "note": 86,
      "start": 31.9739,
      "duration": 0.0161,
      "velocity": 94,
      "chip": "ym2612"
    },
    {
      "channel": 2,
      "note": 52,
      "start": 31.9751,
      "duration": 0.0161,
      "velocity": 100,
      "chip": "ym2612"
    },
    {
      "channel": 1,
      "note": 105,
      "start": 31.9861,
      "duration": 0.0161,
      "velocity": 105,
      "chip": "ym2612"
    },
    {
      "channel": 0,
      "note": 47,
      "start": 31.9877,
      "duration": 0.0161,
      "velocity": 115,
      "chip": "ym2612"
    },
    {
      "channel": 4,
      "note": 81,
      "start": 31.9888,
      "duration": 0.0162,
      "velocity": 94,
      "chip": "ym2612"
    },
    {
      "channel": 3,
      "note": 86,
      "start": 31.99,
      "duration": 0.0162,
      "velocity": 94,
      "chip": "ym2612"
    },
    {
      "channel": 2,
      "note": 52,
      "start": 31.9911,
      "duration": 0.0161,
      "velocity": 100,
      "chip": "ym2612"
    },
    {
      "channel": 1,
      "note": 105,
      "start": 32.0022,
      "duration": 0.0161,
      "velocity": 105,
      "chip": "ym2612"
    },
    {
      "channel": 0,
      "note": 47,
      "start": 32.0038,
      "duration": 0.0161,
      "velocity": 115,
      "chip": "ym2612"
    },
    {
      "channel": 4,
      "note": 81,
      "start": 32.005,
      "duration": 0.0161,
      "velocity": 94,
      "chip": "ym2612"
    },
    {
      "channel": 3,
      "note": 86,
      "start": 32.0062,
      "duration": 0.0161,
      "velocity": 94,
      "chip": "ym2612"
    },
    {
      "channel": 2,
      "note": 52,
      "start": 32.0072,
      "duration": 0.0161,
      "velocity": 100,
      "chip": "ym2612"
    },
    {
      "channel": 1,
      "note": 105,
      "start": 32.0183,
      "duration": 0.0161,
      "velocity": 105,
      "chip": "ym2612"
    },
    {
      "channel": 0,
      "note": 47,
      "start": 32.0199,
      "duration": 0.0161,
      "velocity": 115,
      "chip": "ym2612"
    },
    {
      "channel": 4,
      "note": 81,
      "start": 32.0211,
      "duration": 0.0161,
      "velocity": 94,
      "chip": "ym2612"
    },
    {
      "channel": 3,
      "note": 86,
      "start": 32.0222,
      "duration": 0.0161,
      "velocity": 94,
      "chip": "ym2612"
    },
    {
      "channel": 2,
      "note": 52,
      "start": 32.0233,
      "duration": 0.0161,
      "velocity": 100,
      "chip": "ym2612"
    },
    {
      "channel": 1,
      "note": 105,
      "start": 32.0343,
      "duration": 0.0184,
      "velocity": 124,
      "chip": "ym2612"
    },
    {
      "channel": 0,
      "note": 48,
      "start": 32.036,
      "duration": 0.0192,
      "velocity": 115,
      "chip": "ym2612"
    },
    {
      "channel": 4,
      "note": 81,
      "start": 32.0372,
      "duration": 0.0192,
      "velocity": 94,
      "chip": "ym2612"
    },
    {
      "channel": 3,
      "note": 86,
      "start": 32.0383,
      "duration": 0.0195,
      "velocity": 94,
      "chip": "ym2612"
    },
    {
      "channel": 2,
      "note": 52,
      "start": 32.0394,
      "duration": 0.0198,
      "velocity": 100,
      "chip": "ym2612"
    },
    {
      "channel": 1,
      "note": 78,
      "start": 32.0527,
      "duration": 0.0144,
      "velocity": 124,
      "chip": "ym2612"
    },
    {
      "channel": 0,
      "note": 48,
      "start": 32.0551,
      "duration": 0.0139,
      "velocity": 115,
      "chip": "ym2612"
    },
    {
      "channel": 4,
      "note": 81,
      "start": 32.0564,
      "duration": 0.0138,
      "velocity": 94,
      "chip": "ym2612"
    },
    {
      "channel": 3,
      "note": 81,
      "start": 32.0578,
      "duration": 0.0136,
      "velocity": 94,
      "chip": "ym2612"
    },
    {
      "channel": 2,
      "note": 52,
      "start": 32.0593,
      "duration": 0.0134,
      "velocity": 100,
      "chip": "ym2612"
    },
    {
      "channel": 1,
      "note": 76,
      "start": 32.0671,
      "duration": 0.016,
      "velocity": 124,
      "chip": "ym2612"
    },
    {
      "channel": 0,
      "note": 49,
      "start": 32.069,
      "duration": 0.0152,
      "velocity": 1,
      "chip": "ym2612"
    },
    {
      "channel": 4,
      "note": 81,
      "start": 32.0702,
      "duration": 0.0151,
      "velocity": 94,
      "chip": "ym2612"
    },
    {
      "channel": 3,
      "note": 81,
      "start": 32.0714,
      "duration": 0.0151,
      "velocity": 94,
      "chip": "ym2612"
    },
    {
      "channel": 2,
      "note": 52,
      "start": 32.0726,
      "duration": 0.015,
      "velocity": 100,
      "chip": "ym2612"
    },
    {
      "channel": 1,
      "note": 75,
      "start": 32.0831,
      "duration": 0.0161,
      "velocity": 124,
      "chip": "ym2612"
    },
    {
      "channel": 4,
      "note": 81,
      "start": 32.0854,
      "duration": 0.0153,
      "velocity": 94,
      "chip": "ym2612"
    },
    {
      "channel": 3,
      "note": 81,
      "start": 32.0865,
      "duration": 0.0153,
      "velocity": 94,
      "chip": "ym2612"
    },
    {
      "channel": 2,
      "note": 52,
      "start": 32.0876,
      "duration": 0.0153,
      "velocity": 100,
      "chip": "ym2612"
    },
    {
      "channel": 1,
      "note": 74,
      "start": 32.0992,
      "duration": 0.0161,
      "velocity": 124,
      "chip": "ym2612"
    },
    {
      "channel": 4,
      "note": 81,
      "start": 32.1006,
      "duration": 0.0161,
      "velocity": 94,
      "chip": "ym2612"
    },
    {
      "channel": 3,
      "note": 81,
      "start": 32.1018,
      "duration": 0.0161,
      "velocity": 94,
      "chip": "ym2612"
    },
    {
      "channel": 2,
      "note": 52,
      "start": 32.1029,
      "duration": 0.0161,
      "velocity": 100,
      "chip": "ym2612"
    },
    {
      "channel": 1,
      "note": 72,
      "start": 32.1154,
      "duration": 0.0161,
      "velocity": 124,
      "chip": "ym2612"
    },
    {
      "channel": 4,
      "note": 81,
      "start": 32.1167,
      "duration": 0.0162,
      "velocity": 94,
      "chip": "ym2612"
    },
    {
      "channel": 3,
      "note": 81,
      "start": 32.1179,
      "duration": 0.0161,
      "velocity": 94,
      "chip": "ym2612"
    },
    {
      "channel": 2,
      "note": 52,
      "start": 32.119,
      "duration": 0.0161,
      "velocity": 100,
      "chip": "ym2612"
    },
    {
      "channel": 1,
      "note": 71,
      "start": 32.1315,
      "duration": 0.0161,
      "velocity": 124,
      "chip": "ym2612"
    },
    {
      "channel": 4,
      "note": 81,
      "start": 32.1329,
      "duration": 0.0161,
      "velocity": 94,
      "chip": "ym2612"
    },
    {
      "channel": 3,
      "note": 81,
      "start": 32.134,
      "duration": 0.0161,
      "velocity": 94,
      "chip": "ym2612"
    },
    {
      "channel": 2,
      "note": 52,
      "start": 32.1351,
      "duration": 0.0161,
      "velocity": 100,
      "chip": "ym2612"
    },
    {
      "channel": 1,
      "note": 70,
      "start": 32.1476,
      "duration": 0.0168,
      "velocity": 124,
      "chip": "ym2612"
    },
    {
      "channel": 4,
      "note": 81,
      "start": 32.149,
      "duration": 0.0176,
      "velocity": 94,
      "chip": "ym2612"
    },
    {
      "channel": 3,
      "note": 81,
      "start": 32.1501,
      "duration": 0.0178,
      "velocity": 94,
      "chip": "ym2612"
    },
    {
      "channel": 2,
      "note": 52,
      "start": 32.1512,
      "duration": 0.0181,
      "velocity": 100,
      "chip": "ym2612"
    },
    {
      "channel": 1,
      "note": 69,
      "start": 32.1644,
      "duration": 0.0167,
      "velocity": 124,
      "chip": "ym2612"
    },
    {
      "channel": 4,
      "note": 81,
      "start": 32.1666,
      "duration": 0.016,
      "velocity": 94,
      "chip": "ym2612"
    },
    {
      "channel": 3,
      "note": 81,
      "start": 32.1679,
      "duration": 0.0159,
      "velocity": 94,
      "chip": "ym2612"
    },
    {
      "channel": 2,
      "note": 52,
      "start": 32.1693,
      "duration": 0.0156,
      "velocity": 100,
      "chip": "ym2612"
    },
    {
      "channel": 1,
      "note": 68,
      "start": 32.1811,
      "duration": 0.0163,
      "velocity": 124,
      "chip": "ym2612"
    },
    {
      "channel": 4,
      "note": 81,
      "start": 32.1826,
      "duration": 0.0162,
      "velocity": 94,
      "chip": "ym2612"
    },
    {
      "channel": 3,
      "note": 81,
      "start": 32.1838,
      "duration": 0.0161,
      "velocity": 94,
      "chip": "ym2612"
    },
    {
      "channel": 2,
      "note": 52,
      "start": 32.185,
      "duration": 0.0161,
      "velocity": 100,
      "chip": "ym2612"
    },
    {
      "channel": 1,
      "note": 66,
      "start": 32.1974,
      "duration": 0.0147,
      "velocity": 124,
      "chip": "ym2612"
    },
    {
      "channel": 4,
      "note": 81,
      "start": 32.1988,
      "duration": 0.0147,
      "velocity": 94,
      "chip": "ym2612"
    },
    {
      "channel": 3,
      "note": 81,
      "start": 32.2,
      "duration": 0.0147,
      "velocity": 94,
      "chip": "ym2612"
    },
    {
      "channel": 2,
      "note": 52,
      "start": 32.2011,
      "duration": 0.0147,
      "velocity": 100,
      "chip": "ym2612"
    },
    {
      "channel": 1,
      "note": 65,
      "start": 32.2121,
      "duration": 0.0186,
      "velocity": 124,
      "chip": "ym2612"
    },
    {
      "channel": 4,
      "note": 81,
      "start": 32.2135,
      "duration": 0.0186,
      "velocity": 94,
      "chip": "ym2612"
    },
    {
      "channel": 3,
      "note": 81,
      "start": 32.2147,
      "duration": 0.0186,
      "velocity": 94,
      "chip": "ym2612"
    },
    {
      "channel": 2,
      "note": 52,
      "start": 32.2158,
      "duration": 0.0187,
      "velocity": 100,
      "chip": "ym2612"
    },
    {
      "channel": 1,
      "note": 64,
      "start": 32.2308,
      "duration": 0.0162,
      "velocity": 124,
      "chip": "ym2612"
    },
    {
      "channel": 4,
      "note": 81,
      "start": 32.2322,
      "duration": 0.0161,
      "velocity": 94,
      "chip": "ym2612"
    },
    {
      "channel": 3,
      "note": 81,
      "start": 32.2333,
      "duration": 0.0161,
      "velocity": 94,
      "chip": "ym2612"
    },
    {
      "channel": 2,
      "note": 52,
      "start": 32.2345,
      "duration": 0.0161,
      "velocity": 100,
      "chip": "ym2612"
    },
    {
      "channel": 1,
      "note": 62,
      "start": 32.2469,
      "duration": 0.0157,
      "velocity": 124,
      "chip": "ym2612"
    },
    {
      "channel": 4,
      "note": 81,
      "start": 32.2483,
      "duration": 0.0158,
      "velocity": 94,
      "chip": "ym2612"
    },
    {
      "channel": 3,
      "note": 81,
      "start": 32.2494,
      "duration": 0.0158,
      "velocity": 94,
      "chip": "ym2612"
    },
    {
      "channel": 2,
      "note": 52,
      "start": 32.2506,
      "duration": 0.0158,
      "velocity": 100,
      "chip": "ym2612"
    },
    {
      "channel": 1,
      "note": 61,
      "start": 32.2627,
      "duration": 0.0137,
      "velocity": 124,
      "chip": "ym2612"
    },
    {
      "channel": 4,
      "note": 81,
      "start": 32.264,
      "duration": 0.0146,
      "velocity": 94,
      "chip": "ym2612"
    },
    {
      "channel": 3,
      "note": 81,
      "start": 32.2652,
      "duration": 0.0148,
      "velocity": 94,
      "chip": "ym2612"
    },
    {
      "channel": 2,
      "note": 52,
      "start": 32.2663,
      "duration": 0.0151,
      "velocity": 100,
      "chip": "ym2612"
    },
    {
      "channel": 1,
      "note": 60,
      "start": 32.2764,
      "duration": 0.0161,
      "velocity": 124,
      "chip": "ym2612"
    },
    {
      "channel": 4,
      "note": 81,
      "start": 32.2786,
      "duration": 0.0181,
      "velocity": 94,
      "chip": "ym2612"
    },
    {
      "channel": 3,
      "note": 81,
      "start": 32.28,
      "duration": 0.0179,
      "velocity": 94,
      "chip": "ym2612"
    },
    {
      "channel": 2,
      "note": 52,
      "start": 32.2815,
      "duration": 0.0176,
      "velocity": 100,
      "chip": "ym2612"
    },
    {
      "channel": 1,
      "note": 59,
      "start": 32.2925,
      "duration": 0.0161,
      "velocity": 124,
      "chip": "ym2612"
    },
    {
      "channel": 4,
      "note": 81,
      "start": 32.2967,
      "duration": 0.016,
      "velocity": 94,
      "chip": "ym2612"
    },
    {
      "channel": 3,
      "note": 81,
      "start": 32.2979,
      "duration": 0.016,
      "velocity": 94,
      "chip": "ym2612"
    },
    {
      "channel": 2,
      "note": 52,
      "start": 32.299,
      "duration": 0.016,
      "velocity": 100,
      "chip": "ym2612"
    },
    {
      "channel": 1,
      "note": 57,
      "start": 32.3086,
      "duration": 0.0161,
      "velocity": 124,
      "chip": "ym2612"
    },
    {
      "channel": 4,
      "note": 81,
      "start": 32.3127,
      "duration": 0.0134,
      "velocity": 94,
      "chip": "ym2612"
    },
    {
      "channel": 3,
      "note": 81,
      "start": 32.3139,
      "duration": 0.0157,
      "velocity": 94,
      "chip": "ym2612"
    },
    {
      "channel": 2,
      "note": 52,
      "start": 32.315,
      "duration": 0.0157,
      "velocity": 100,
      "chip": "ym2612"
    },
    {
      "channel": 1,
      "note": 56,
      "start": 32.3247,
      "duration": 0.0161,
      "velocity": 124,
      "chip": "ym2612"
    },
    {
      "channel": 4,
      "note": 81,
      "start": 32.3261,
      "duration": 0.0161,
      "velocity": 94,
      "chip": "ym2612"
    },
    {
      "channel": 3,
      "note": 81,
      "start": 32.3296,
      "duration": 0.0141,
      "velocity": 94,
      "chip": "ym2612"
    },
    {
      "channel": 2,
      "note": 52,
      "start": 32.3307,
      "duration": 0.0141,
      "velocity": 100,
      "chip": "ym2612"
    },
    {
      "channel": 1,
      "note": 55,
      "start": 32.3408,
      "duration": 0.0161,
      "velocity": 124,
      "chip": "ym2612"
    },
    {
      "channel": 4,
      "note": 81,
      "start": 32.3422,
      "duration": 0.0161,
      "velocity": 94,
      "chip": "ym2612"
    },
    {
      "channel": 3,
      "note": 81,
      "start": 32.3436,
      "duration": 0.0158,
      "velocity": 94,
      "chip": "ym2612"
    },
    {
      "channel": 2,
      "note": 52,
      "start": 32.3448,
      "duration": 0.0185,
      "velocity": 100,
      "chip": "ym2612"
    },
    {
      "channel": 1,
      "note": 53,
      "start": 32.3568,
      "duration": 0.0161,
      "velocity": 124,
      "chip": "ym2612"
    },
    {
      "channel": 4,
      "note": 81,
      "start": 32.3583,
      "duration": 0.0161,
      "velocity": 94,
      "chip": "ym2612"
    },
    {
      "channel": 3,
      "note": 81,
      "start": 32.3594,
      "duration": 0.0161,
      "velocity": 94,
      "chip": "ym2612"
    },
    {
      "channel": 2,
      "note": 52,
      "start": 32.3633,
      "duration": 0.0161,
      "velocity": 100,
      "chip": "ym2612"
    },
    {
      "channel": 1,
      "note": 52,
      "start": 32.3729,
      "duration": 0.0161,
      "velocity": 124,
      "chip": "ym2612"
    },
    {
      "channel": 4,
      "note": 81,
      "start": 32.3744,
      "duration": 0.0228,
      "velocity": 94,
      "chip": "ym2612"
    },
    {
      "channel": 3,
      "note": 81,
      "start": 32.3755,
      "duration": 0.0228,
      "velocity": 94,
      "chip": "ym2612"
    },
    {
      "channel": 2,
      "note": 52,
      "start": 32.3794,
      "duration": 0.0203,
      "velocity": 100,
      "chip": "ym2612"
    },
    {
      "channel": 1,
      "note": 51,
      "start": 32.389,
      "duration": 0.0153,
      "velocity": 1,
      "chip": "ym2612"
    },
    {
      "channel": 0,
      "note": 78,
      "start": 32.3957,
      "duration": 0.0126,
      "velocity": 127,
      "chip": "ym2612"
    },
    {
      "channel": 4,
      "note": 79,
      "start": 32.3971,
      "duration": 0.0123,
      "velocity": 94,
      "chip": "ym2612"
    },
    {
      "channel": 3,
      "note": 81,
      "start": 32.3983,
      "duration": 0.0127,
      "velocity": 94,
      "chip": "ym2612"
    },
    {
      "channel": 2,
      "note": 52,
      "start": 32.3997,
      "duration": 0.0124,
      "velocity": 100,
      "chip": "ym2612"
    },
    {
      "channel": 1,
      "note": 51,
      "start": 32.4065,
      "duration": 0.0143,
      "velocity": 105,
      "chip": "ym2612"
    },
    {
      "channel": 0,
      "note": 76,
      "start": 32.4083,
      "duration": 0.0142,
      "velocity": 127,
      "chip": "ym2612"
    },
    {
      "channel": 4,
      "note": 79,
      "start": 32.4095,
      "duration": 0.0141,
      "velocity": 94,
      "chip": "ym2612"
    },
    {
      "channel": 3,
      "note": 81,
      "start": 32.411,
      "duration": 0.0137,
      "velocity": 94,
      "chip": "ym2612"
    },
    {
      "channel": 2,
      "note": 52,
      "start": 32.4121,
      "duration": 0.0137,
      "velocity": 100,
      "chip": "ym2612"
    },
    {
      "channel": 1,
      "note": 105,
      "start": 32.4208,
      "duration": 0.0161,
      "velocity": 105,
      "chip": "ym2612"
    },
    {
      "channel": 0,
      "note": 75,
      "start": 32.4224,
      "duration": 0.0161,
      "velocity": 127,
      "chip": "ym2612"
    },
    {
      "channel": 4,
      "note": 79,
      "start": 32.4236,
      "duration": 0.0162,
      "velocity": 94,
      "chip": "ym2612"
    },
    {
      "channel": 3,
      "note": 81,
      "start": 32.4247,
      "duration": 0.0161,
      "velocity": 94,
      "chip": "ym2612"
    },
    {
      "channel": 2,
      "note": 52,
      "start": 32.4259,
      "duration": 0.0161,
      "velocity": 100,
      "chip": "ym2612"
    },
    {
      "channel": 1,
      "note": 105,
      "start": 32.4369,
      "duration": 0.0161,
      "velocity": 105,
      "chip": "ym2612"
    },
    {
      "channel": 0,
      "note": 73,
      "start": 32.4385,
      "duration": 0.0161,
      "velocity": 127,
      "chip": "ym2612"
    },
    {
      "channel": 4,
      "note": 79,
      "start": 32.4398,
      "duration": 0.0161,
      "velocity": 94,
      "chip": "ym2612"
    },
    {
      "channel": 3,
      "note": 81,
      "start": 32.4409,
      "duration": 0.0161,
      "velocity": 94,
      "chip": "ym2612"
    },
    {
      "channel": 2,
      "note": 52,
      "start": 32.442,
      "duration": 0.0161,
      "velocity": 100,
      "chip": "ym2612"
    },
    {
      "channel": 1,
      "note": 105,
      "start": 32.453,
      "duration": 0.0161,
      "velocity": 105,
      "chip": "ym2612"
    },
    {
      "channel": 0,
      "note": 71,
      "start": 32.4546,
      "duration": 0.0161,
      "velocity": 127,
      "chip": "ym2612"
    },
    {
      "channel": 4,
      "note": 79,
      "start": 32.4558,
      "duration": 0.0161,
      "velocity": 94,
      "chip": "ym2612"
    },
    {
      "channel": 3,
      "note": 81,
      "start": 32.457,
      "duration": 0.0161,
      "velocity": 94,
      "chip": "ym2612"
    },
    {
      "channel": 2,
      "note": 52,
      "start": 32.4581,
      "duration": 0.0161,
      "velocity": 100,
      "chip": "ym2612"
    },
    {
      "channel": 1,
      "note": 105,
      "start": 32.4691,
      "duration": 0.0161,
      "velocity": 105,
      "chip": "ym2612"
    },
    {
      "channel": 0,
      "note": 70,
      "start": 32.4707,
      "duration": 0.0161,
      "velocity": 127,
      "chip": "ym2612"
    },
    {
      "channel": 4,
      "note": 79,
      "start": 32.4719,
      "duration": 0.0161,
      "velocity": 94,
      "chip": "ym2612"
    },
    {
      "channel": 3,
      "note": 81,
      "start": 32.4731,
      "duration": 0.0161,
      "velocity": 94,
      "chip": "ym2612"
    },
    {
      "channel": 2,
      "note": 52,
      "start": 32.4741,
      "duration": 0.0161,
      "velocity": 100,
      "chip": "ym2612"
    },
    {
      "channel": 1,
      "note": 105,
      "start": 32.4852,
      "duration": 0.0178,
      "velocity": 124,
      "chip": "ym2612"
    },
    {
      "channel": 0,
      "note": 68,
      "start": 32.4868,
      "duration": 0.0197,
      "velocity": 115,
      "chip": "ym2612"
    },
    {
      "channel": 4,
      "note": 79,
      "start": 32.488,
      "duration": 0.0197,
      "velocity": 94,
      "chip": "ym2612"
    },
    {
      "channel": 3,
      "note": 81,
      "start": 32.4892,
      "duration": 0.0199,
      "velocity": 94,
      "chip": "ym2612"
    },
    {
      "channel": 2,
      "note": 52,
      "start": 32.4902,
      "duration": 0.023,
      "velocity": 100,
      "chip": "ym2612"
    },
    {
      "channel": 1,
      "note": 64,
      "start": 32.503,
      "duration": 0.0145,
      "velocity": 124,
      "chip": "ym2612"
    },
    {
      "channel": 0,
      "note": 36,
      "start": 32.5065,
      "duration": 0.0128,
      "velocity": 115,
      "chip": "ym2612"
    },
    {
      "channel": 4,
      "note": 79,
      "start": 32.5077,
      "duration": 0.0128,
      "velocity": 94,
      "chip": "ym2612"
    },
    {
      "channel": 3,
      "note": 79,
      "start": 32.5091,
      "duration": 0.0126,
      "velocity": 94,
      "chip": "ym2612"
    },
    {
      "channel": 2,
      "note": 55,
      "start": 32.5133,
      "duration": 0.0096,
      "velocity": 100,
      "chip": "ym2612"
    },
    {
      "channel": 1,
      "note": 64,
      "start": 32.5176,
      "duration": 0.016,
      "velocity": 124,
      "chip": "ym2612"
    },
    {
      "channel": 0,
      "note": 36,
      "start": 32.5193,
      "duration": 0.0159,
      "velocity": 115,
      "chip": "ym2612"
    },
    {
      "channel": 4,
      "note": 79,
      "start": 32.5205,
      "duration": 0.0158,
      "velocity": 94,
      "chip": "ym2612"
    },
    {
      "channel": 3,
      "note": 79,
      "start": 32.5217,
      "duration": 0.0158,
      "velocity": 94,
      "chip": "ym2612"
    },
    {
      "channel": 2,
      "note": 55,
      "start": 32.5229,
      "duration": 0.0157,
      "velocity": 100,
      "chip": "ym2612"
    },
    {
      "channel": 1,
      "note": 64,
      "start": 32.5335,
      "duration": 0.0161,
      "velocity": 124,
      "chip": "ym2612"
    },
    {
      "channel": 0,
      "note": 37,
      "start": 32.5352,
      "duration": 0.0161,
      "velocity": 115,
      "chip": "ym2612"
    },
    {
      "channel": 4,
      "note": 79,
      "start": 32.5363,
      "duration": 0.0162,
      "velocity": 94,
      "chip": "ym2612"
    },
    {
      "channel": 3,
      "note": 79,
      "start": 32.5375,
      "duration": 0.0161,
      "velocity": 94,
      "chip": "ym2612"
    },
    {
      "channel": 2,
      "note": 55,
      "start": 32.5386,
      "duration": 0.0161,
      "velocity": 100,
      "chip": "ym2612"
    },
    {
      "channel": 1,
      "note": 64,
      "start": 32.5496,
      "duration": 0.0161,
      "velocity": 124,
      "chip": "ym2612"
    },
    {
      "channel": 0,
      "note": 37,
      "start": 32.5513,
      "duration": 0.0161,
      "velocity": 115,
      "chip": "ym2612"
    },
    {
      "channel": 4,
      "note": 79,
      "start": 32.5525,
      "duration": 0.0161,
      "velocity": 94,
      "chip": "ym2612"
    },
    {
      "channel": 3,
      "note": 79,
      "start": 32.5536,
      "duration": 0.0161,
      "velocity": 94,
      "chip": "ym2612"
    },
    {
      "channel": 2,
      "note": 55,
      "start": 32.5547,
      "duration": 0.0161,
      "velocity": 100,
      "chip": "ym2612"
    },
    {
      "channel": 1,
      "note": 64,
      "start": 32.5657,
      "duration": 0.0161,
      "velocity": 124,
      "chip": "ym2612"
    },
    {
      "channel": 0,
      "note": 38,
      "start": 32.5673,
      "duration": 0.0161,
      "velocity": 115,
      "chip": "ym2612"
    },
    {
      "channel": 4,
      "note": 79,
      "start": 32.5686,
      "duration": 0.0161,
      "velocity": 94,
      "chip": "ym2612"
    },
    {
      "channel": 3,
      "note": 79,
      "start": 32.5697,
      "duration": 0.0161,
      "velocity": 94,
      "chip": "ym2612"
    },
    {
      "channel": 2,
      "note": 55,
      "start": 32.5708,
      "duration": 0.0161,
      "velocity": 100,
      "chip": "ym2612"
    },
    {
      "channel": 1,
      "note": 64,
      "start": 32.5818,
      "duration": 0.0161,
      "velocity": 124,
      "chip": "ym2612"
    },
    {
      "channel": 0,
      "note": 38,
      "start": 32.5834,
      "duration": 0.0161,
      "velocity": 115,
      "chip": "ym2612"
    },
    {
      "channel": 4,
      "note": 79,
      "start": 32.5846,
      "duration": 0.0161,
      "velocity": 94,
      "chip": "ym2612"
    },
    {
      "channel": 3,
      "note": 79,
      "start": 32.5858,
      "duration": 0.0161,
      "velocity": 94,
      "chip": "ym2612"
    },
    {
      "channel": 2,
      "note": 55,
      "start": 32.5869,
      "duration": 0.0161,
      "velocity": 100,
      "chip": "ym2612"
    },
    {
      "channel": 1,
      "note": 64,
      "start": 32.5979,
      "duration": 0.0178,
      "velocity": 105,
      "chip": "ym2612"
    },
    {
      "channel": 0,
      "note": 39,
      "start": 32.5995,
      "duration": 0.0178,
      "velocity": 115,
      "chip": "ym2612"
    },
    {
      "channel": 4,
      "note": 79,
      "start": 32.6007,
      "duration": 0.018,
      "velocity": 94,
      "chip": "ym2612"
    },
    {
      "channel": 3,
      "note": 79,
      "start": 32.6019,
      "duration": 0.018,
      "velocity": 94,
      "chip": "ym2612"
    },
    {
      "channel": 2,
      "note": 55,
      "start": 32.603,
      "duration": 0.0184,
      "velocity": 100,
      "chip": "ym2612"
    },
    {
      "channel": 1,
      "note": 105,
      "start": 32.6157,
      "duration": 0.015,
      "velocity": 105,
      "chip": "ym2612"
    },
    {
      "channel": 0,
      "note": 39,
      "start": 32.6173,
      "duration": 0.015,
      "velocity": 115,
      "chip": "ym2612"
    },
    {
      "channel": 4,
      "note": 81,
      "start": 32.6188,
      "duration": 0.0148,
      "velocity": 94,
      "chip": "ym2612"
    },
    {
      "channel": 3,
      "note": 79,
      "start": 32.62,
      "duration": 0.0148,
      "velocity": 94,
      "chip": "ym2612"
    },
    {
      "channel": 2,
      "note": 55,
      "start": 32.6214,
      "duration": 0.0146,
      "velocity": 100,
      "chip": "ym2612"
    },
    {
      "channel": 1,
      "note": 105,
      "start": 32.6307,
      "duration": 0.0167,
      "velocity": 105,
      "chip": "ym2612"
    },
    {
      "channel": 0,
      "note": 40,
      "start": 32.6324,
      "duration": 0.0166,
      "velocity": 115,
      "chip": "ym2612"
    },
    {
      "channel": 4,
      "note": 81,
      "start": 32.6336,
      "duration": 0.0165,
      "velocity": 94,
      "chip": "ym2612"
    },
    {
      "channel": 3,
      "note": 79,
      "start": 32.6347,
      "duration": 0.0166,
      "velocity": 94,
      "chip": "ym2612"
    },
    {
      "channel": 2,
      "note": 55,
      "start": 32.6359,
      "duration": 0.0165,
      "velocity": 100,
      "chip": "ym2612"
    },
    {
      "channel": 1,
      "note": 105,
      "start": 32.6473,
      "duration": 0.0163,
      "velocity": 105,
      "chip": "ym2612"
    },
    {
      "channel": 0,
      "note": 40,
      "start": 32.649,
      "duration": 0.0163,
      "velocity": 115,
      "chip": "ym2612"
    },
    {
      "channel": 4,
      "note": 81,
      "start": 32.6501,
      "duration": 0.0163,
      "velocity": 94,
      "chip": "ym2612"
    },
    {
      "channel": 3,
      "note": 79,
      "start": 32.6513,
      "duration": 0.0163,
      "velocity": 94,
      "chip": "ym2612"
    },
    {
      "channel": 2,
      "note": 55,
      "start": 32.6524,
      "duration": 0.0163,
      "velocity": 100,
      "chip": "ym2612"
    },
    {
      "channel": 1,
      "note": 105,
      "start": 32.6636,
      "duration": 0.0148,
      "velocity": 105,
      "chip": "ym2612"
    },
    {
      "channel": 0,
      "note": 40,
      "start": 32.6653,
      "duration": 0.0148,
      "velocity": 115,
      "chip": "ym2612"
    },
    {
      "channel": 4,
      "note": 81,
      "start": 32.6664,
      "duration": 0.0148,
      "velocity": 94,
      "chip": "ym2612"
    },
    {
      "channel": 3,
      "note": 79,
      "start": 32.6676,
      "duration": 0.0148,
      "velocity": 94,
      "chip": "ym2612"
    },
    {
      "channel": 2,
      "note": 55,
      "start": 32.6687,
      "duration": 0.0148,
      "velocity": 100,
      "chip": "ym2612"
    },
    {
      "channel": 1,
      "note": 105,
      "start": 32.6784,
      "duration": 0.0188,
      "velocity": 105,
      "chip": "ym2612"
    },
    {
      "channel": 0,
      "note": 41,
      "start": 32.6801,
      "duration": 0.0188,
      "velocity": 115,
      "chip": "ym2612"
    },
    {
      "channel": 4,
      "note": 81,
      "start": 32.6812,
      "duration": 0.0188,
      "velocity": 94,
      "chip": "ym2612"
    },
    {
      "channel": 3,
      "note": 79,
      "start": 32.6824,
      "duration": 0.0188,
      "velocity": 94,
      "chip": "ym2612"
    },
    {
      "channel": 2,
      "note": 55,
      "start": 32.6835,
      "duration": 0.0188,
      "velocity": 100,
      "chip": "ym2612"
    },
    {
      "channel": 1,
      "note": 105,
      "start": 32.6973,
      "duration": 0.0161,
      "velocity": 105,
      "chip": "ym2612"
    },
    {
      "channel": 0,
      "note": 41,
      "start": 32.6989,
      "duration": 0.0161,
      "velocity": 115,
      "chip": "ym2612"
    },
    {
      "channel": 4,
      "note": 81,
      "start": 32.7,
      "duration": 0.0162,
      "velocity": 94,
      "chip": "ym2612"
    },
    {
      "channel": 3,
      "note": 79,
      "start": 32.7012,
      "duration": 0.0161,
      "velocity": 94,
      "chip": "ym2612"
    },
    {
      "channel": 2,
      "note": 55,
      "start": 32.7023,
      "duration": 0.0161,
      "velocity": 100,
      "chip": "ym2612"
    },
    {
      "channel": 1,
      "note": 105,
      "start": 32.7134,
      "duration": 0.0174,
      "velocity": 124,
      "chip": "ym2612"
    },
    {
      "channel": 0,
      "note": 42,
      "start": 32.715,
      "duration": 0.0175,
      "velocity": 115,
      "chip": "ym2612"
    },
    {
      "channel": 4,
      "note": 81,
      "start": 32.7162,
      "duration": 0.0175,
      "velocity": 94,
      "chip": "ym2612"
    },
    {
      "channel": 3,
      "note": 79,
      "start": 32.7173,
      "duration": 0.0177,
      "velocity": 94,
      "chip": "ym2612"
    },
    {
      "channel": 2,
      "note": 55,
      "start": 32.7184,
      "duration": 0.0181,
      "velocity": 100,
      "chip": "ym2612"
    },
    {
      "channel": 1,
      "note": 64,
      "start": 32.7308,
      "duration": 0.012,
      "velocity": 124,
      "chip": "ym2612"
    },
    {
      "channel": 0,
      "note": 42,
      "start": 32.7325,
      "duration": 0.0123,
      "velocity": 115,
      "chip": "ym2612"
    },
    {
      "channel": 4,
      "note": 81,
      "start": 32.7337,
      "duration": 0.0123,
      "velocity": 94,
      "chip": "ym2612"
    },
    {
      "channel": 3,
      "note": 81,
      "start": 32.7351,
      "duration": 0.0121,
      "velocity": 94,
      "chip": "ym2612"
    },
    {
      "channel": 2,
      "note": 55,
      "start": 32.7366,
      "duration": 0.0118,
      "velocity": 100,
      "chip": "ym2612"
    },
    {
      "channel": 1,
      "note": 64,
      "start": 32.7429,
      "duration": 0.016,
      "velocity": 124,
      "chip": "ym2612"
    },
    {
      "channel": 0,
      "note": 43,
      "start": 32.7448,
      "duration": 0.0185,
      "velocity": 115,
      "chip": "ym2612"
    },
    {
      "channel": 4,
      "note": 81,
      "start": 32.746,
      "duration": 0.0185,
      "velocity": 94,
      "chip": "ym2612"
    },
    {
      "channel": 3,
      "note": 81,
      "start": 32.7472,
      "duration": 0.0185,
      "velocity": 94,
      "chip": "ym2612"
    },
    {
      "channel": 2,
      "note": 55,
      "start": 32.7484,
      "duration": 0.0184,
      "velocity": 100,
      "chip": "ym2612"
    },
    {
      "channel": 1,
      "note": 64,
      "start": 32.7589,
      "duration": 0.0161,
      "velocity": 124,
      "chip": "ym2612"
    },
    {
      "channel": 0,
      "note": 43,
      "start": 32.7634,
      "duration": 0.0161,
      "velocity": 115,
      "chip": "ym2612"
    },
    {
      "channel": 4,
      "note": 81,
      "start": 32.7645,
      "duration": 0.0161,
      "velocity": 94,
      "chip": "ym2612"
    },
    {
      "channel": 3,
      "note": 81,
      "start": 32.7656,
      "duration": 0.0161,
      "velocity": 94,
      "chip": "ym2612"
    },
    {
      "channel": 2,
      "note": 55,
      "start": 32.7668,
      "duration": 0.0161,
      "velocity": 100,
      "chip": "ym2612"
    },
    {
      "channel": 1,
      "note": 64,
      "start": 32.775,
      "duration": 0.0161,
      "velocity": 124,
      "chip": "ym2612"
    },
    {
      "channel": 0,
      "note": 44,
      "start": 32.7794,
      "duration": 0.0134,
      "velocity": 115,
      "chip": "ym2612"
    },
    {
      "channel": 4,
      "note": 81,
      "start": 32.7806,
      "duration": 0.0158,
      "velocity": 94,
      "chip": "ym2612"
    },
    {
      "channel": 3,
      "note": 81,
      "start": 32.7817,
      "duration": 0.0158,
      "velocity": 94,
      "chip": "ym2612"
    },
    {
      "channel": 2,
      "note": 55,
      "start": 32.7829,
      "duration": 0.0157,
      "velocity": 100,
      "chip": "ym2612"
    },
    {
      "channel": 1,
      "note": 64,
      "start": 32.7911,
      "duration": 0.0161,
      "velocity": 124,
      "chip": "ym2612"
    },
    {
      "channel": 0,
      "note": 44,
      "start": 32.7928,
      "duration": 0.0161,
      "velocity": 115,
      "chip": "ym2612"
    },
    {
      "channel": 4,
      "note": 81,
      "start": 32.7963,
      "duration": 0.014,
      "velocity": 94,
      "chip": "ym2612"
    },
    {
      "channel": 3,
      "note": 81,
      "start": 32.7975,
      "duration": 0.014,
      "velocity": 94,
      "chip": "ym2612"
    },
    {
      "channel": 2,
      "note": 55,
      "start": 32.7986,
      "duration": 0.0141,
      "velocity": 100,
      "chip": "ym2612"
    },
    {
      "channel": 1,
      "note": 64,
      "start": 32.8072,
      "duration": 0.0162,
      "velocity": 124,
      "chip": "ym2612"
    },
    {
      "channel": 0,
      "note": 44,
      "start": 32.8089,
      "duration": 0.0161,
      "velocity": 115,
      "chip": "ym2612"
    },
    {
      "channel": 4,
      "note": 81,
      "start": 32.8104,
      "duration": 0.0158,
      "velocity": 94,
      "chip": "ym2612"
    },
    {
      "channel": 3,
      "note": 81,
      "start": 32.8115,
      "duration": 0.0186,
      "velocity": 94,
      "chip": "ym2612"
    },
    {
      "channel": 2,
      "note": 55,
      "start": 32.8127,
      "duration": 0.0185,
      "velocity": 100,
      "chip": "ym2612"
    },
    {
      "channel": 1,
      "note": 64,
      "start": 32.8233,
      "duration": 0.0178,
      "velocity": 105,
      "chip": "ym2612"
    },
    {
      "channel": 0,
      "note": 45,
      "start": 32.825,
      "duration": 0.0178,
      "velocity": 115,
      "chip": "ym2612"
    },
    {
      "channel": 4,
      "note": 81,
      "start": 32.8261,
      "duration": 0.0206,
      "velocity": 94,
      "chip": "ym2612"
    },
    {
      "channel": 3,
      "note": 81,
      "start": 32.8301,
      "duration": 0.0178,
      "velocity": 94,
      "chip": "ym2612"
    },
    {
      "channel": 2,
      "note": 55,
      "start": 32.8312,
      "duration": 0.0181,
      "velocity": 100,
      "chip": "ym2612"
    },
    {
      "channel": 1,
      "note": 105,
      "start": 32.8411,
      "duration": 0.0144,
      "velocity": 105,
      "chip": "ym2612"
    },
    {
      "channel": 0,
      "note": 45,
      "start": 32.8428,
      "duration": 0.0144,
      "velocity": 115,
      "chip": "ym2612"
    },
    {
      "channel": 4,
      "note": 81,
      "start": 32.8467,
      "duration": 0.0117,
      "velocity": 94,
      "chip": "ym2612"
    },
    {
      "channel": 3,
      "note": 81,
      "start": 32.8479,
      "duration": 0.0116,
      "velocity": 94,
      "chip": "ym2612"
    },
    {
      "channel": 2,
      "note": 55,
      "start": 32.8493,
      "duration": 0.0138,
      "velocity": 100,
      "chip": "ym2612"
    },
    {
      "channel": 1,
      "note": 105,
      "start": 32.8555,
      "duration": 0.0161,
      "velocity": 105,
      "chip": "ym2612"
    },
    {
      "channel": 0,
      "note": 46,
      "start": 32.8572,
      "duration": 0.016,
      "velocity": 115,
      "chip": "ym2612"
    },
    {
      "channel": 4,
      "note": 81,
      "start": 32.8584,
      "duration": 0.016,
      "velocity": 94,
      "chip": "ym2612"
    },
    {
      "channel": 3,
      "note": 81,
      "start": 32.8595,
      "duration": 0.016,
      "velocity": 94,
      "chip": "ym2612"
    },
    {
      "channel": 2,
      "note": 55,
      "start": 32.8631,
      "duration": 0.0139,
      "velocity": 100,
      "chip": "ym2612"
    },
    {
      "channel": 1,
      "note": 105,
      "start": 32.8716,
      "duration": 0.0161,
      "velocity": 105,
      "chip": "ym2612"
    },
    {
      "channel": 0,
      "note": 46,
      "start": 32.8733,
      "duration": 0.0161,
      "velocity": 115,
      "chip": "ym2612"
    },
    {
      "channel": 4,
      "note": 81,
      "start": 32.8744,
      "duration": 0.0161,
      "velocity": 94,
      "chip": "ym2612"
    },
    {
      "channel": 3,
      "note": 81,
      "start": 32.8756,
      "duration": 0.0162,
      "velocity": 94,
      "chip": "ym2612"
    },
    {
      "channel": 2,
      "note": 55,
      "start": 32.877,
      "duration": 0.0158,
      "velocity": 100,
      "chip": "ym2612"
    },
    {
      "channel": 1,
      "note": 105,
      "start": 32.8877,
      "duration": 0.0161,
      "velocity": 105,
      "chip": "ym2612"
    },
    {
      "channel": 0,
      "note": 47,
      "start": 32.8894,
      "duration": 0.0161,
      "velocity": 115,
      "chip": "ym2612"
    },
    {
      "channel": 4,
      "note": 81,
      "start": 32.8906,
      "duration": 0.0161,
      "velocity": 94,
      "chip": "ym2612"
    },
    {
      "channel": 3,
      "note": 81,
      "start": 32.8917,
      "duration": 0.0161,
      "velocity": 94,
      "chip": "ym2612"
    },
    {
      "channel": 2,
      "note": 55,
      "start": 32.8928,
      "duration": 0.0161,
      "velocity": 100,
      "chip": "ym2612"
    },
    {
      "channel": 1,
      "note": 105,
      "start": 32.9038,
      "duration": 0.0161,
      "velocity": 105,
      "chip": "ym2612"
    },
    {
      "channel": 0,
      "note": 47,
      "start": 32.9055,
      "duration": 0.0161,
      "velocity": 115,
      "chip": "ym2612"
    },
    {
      "channel": 4,
      "note": 81,
      "start": 32.9067,
      "duration": 0.0161,
      "velocity": 94,
      "chip": "ym2612"
    },
    {
      "channel": 3,
      "note": 81,
      "start": 32.9078,
      "duration": 0.0161,
      "velocity": 94,
      "chip": "ym2612"
    },
    {
      "channel": 2,
      "note": 55,
      "start": 32.9089,
      "duration": 0.0161,
      "velocity": 100,
      "chip": "ym2612"
    },
    {
      "channel": 1,
      "note": 105,
      "start": 32.9199,
      "duration": 0.0161,
      "velocity": 105,
      "chip": "ym2612"
    },
    {
      "channel": 0,
      "note": 47,
      "start": 32.9215,
      "duration": 0.0161,
      "velocity": 115,
      "chip": "ym2612"
    },
    {
      "channel": 4,
      "note": 81,
      "start": 32.9228,
      "duration": 0.0161,
      "velocity": 94,
      "chip": "ym2612"
    },
    {
      "channel": 3,
      "note": 81,
      "start": 32.9239,
      "duration": 0.0161,
      "velocity": 94,
      "chip": "ym2612"
    },
    {
      "channel": 2,
      "note": 55,
      "start": 32.925,
      "duration": 0.0161,
      "velocity": 100,
      "chip": "ym2612"
    },
    {
      "channel": 1,
      "note": 105,
      "start": 32.936,
      "duration": 0.0184,
      "velocity": 124,
      "chip": "ym2612"
    },
    {
      "channel": 0,
      "note": 48,
      "start": 32.9376,
      "duration": 0.0192,
      "velocity": 115,
      "chip": "ym2612"
    },
    {
      "channel": 4,
      "note": 81,
      "start": 32.9388,
      "duration": 0.0191,
      "velocity": 94,
      "chip": "ym2612"
    },
    {
      "channel": 3,
      "note": 81,
      "start": 32.94,
      "duration": 0.0191,
      "velocity": 94,
      "chip": "ym2612"
    },
    {
      "channel": 2,
      "note": 55,
      "start": 32.9411,
      "duration": 0.0222,
      "velocity": 100,
      "chip": "ym2612"
    },
    {
      "channel": 1,
      "note": 78,
      "start": 32.9544,
      "duration": 0.0144,
      "velocity": 124,
      "chip": "ym2612"
    },
    {
      "channel": 0,
      "note": 48,
      "start": 32.9568,
      "duration": 0.0139,
      "velocity": 115,
      "chip": "ym2612"
    },
    {
      "channel": 4,
      "note": 81,
      "start": 32.9579,
      "duration": 0.0139,
      "velocity": 94,
      "chip": "ym2612"
    },
    {
      "channel": 3,
      "note": 81,
      "start": 32.9591,
      "duration": 0.0139,
      "velocity": 94,
      "chip": "ym2612"
    },
    {
      "channel": 2,
      "note": 55,
      "start": 32.9633,
      "duration": 0.0109,
      "velocity": 100,
      "chip": "ym2612"
    },
    {
      "channel": 1,
      "note": 76,
      "start": 32.9688,
      "duration": 0.016,
      "velocity": 124,
      "chip": "ym2612"
    },
    {
      "channel": 0,
      "note": 49,
      "start": 32.9707,
      "duration": 0.0152,
      "velocity": 1,
      "chip": "ym2612"
    },
    {
      "channel": 4,
      "note": 81,
      "start": 32.9719,
      "duration": 0.0151,
      "velocity": 94,
      "chip": "ym2612"
    },
    {
      "channel": 3,
      "note": 81,
      "start": 32.973,
      "duration": 0.0151,
      "velocity": 94,
      "chip": "ym2612"
    },
    {
      "channel": 2,
      "note": 55,
      "start": 32.9741,
      "duration": 0.0151,
      "velocity": 100,
      "chip": "ym2612"
    },
    {
      "channel": 1,
      "note": 75,
      "start": 32.9848,
      "duration": 0.0161,
      "velocity": 124,
      "chip": "ym2612"
    },
    {
      "channel": 4,
      "note": 81,
      "start": 32.987,
      "duration": 0.0153,
      "velocity": 94,
      "chip": "ym2612"
    },
    {
      "channel": 3,
      "note": 81,
      "start": 32.9882,
      "duration": 0.0153,
      "velocity": 94,
      "chip": "ym2612"
    },
    {
      "channel": 2,
      "note": 55,
      "start": 32.9893,
      "duration": 0.0153,
      "velocity": 100,
      "chip": "ym2612"
    },
    {
      "channel": 1,
      "note": 74,
      "start": 33.0009,
      "duration": 0.0161,
      "velocity": 124,
      "chip": "ym2612"
    },
    {
      "channel": 4,
      "note": 81,
      "start": 33.0023,
      "duration": 0.0162,
      "velocity": 94,
      "chip": "ym2612"
    },
    {
      "channel": 3,
      "note": 81,
      "start": 33.0034,
      "duration": 0.0161,
      "velocity": 94,
      "chip": "ym2612"
    },
    {
      "channel": 2,
      "note": 55,
      "start": 33.0046,
      "duration": 0.0161,
      "velocity": 100,
      "chip": "ym2612"
    },
    {
      "channel": 1,
      "note": 72,
      "start": 33.017,
      "duration": 0.0161,
      "velocity": 124,
      "chip": "ym2612"
    },
    {
      "channel": 4,
      "note": 81,
      "start": 33.0184,
      "duration": 0.0161,
      "velocity": 94,
      "chip": "ym2612"
    },
    {
      "channel": 3,
      "note": 81,
      "start": 33.0196,
      "duration": 0.0161,
      "velocity": 94,
      "chip": "ym2612"
    },
    {
      "channel": 2,
      "note": 55,
      "start": 33.0207,
      "duration": 0.0161,
      "velocity": 100,
      "chip": "ym2612"
    },
    {
      "channel": 1,
      "note": 71,
      "start": 33.0331,
      "duration": 0.0161,
      "velocity": 124,
      "chip": "ym2612"
    },
    {
      "channel": 4,
      "note": 81,
      "start": 33.0345,
      "duration": 0.0161,
      "velocity": 94,
      "chip": "ym2612"
    },
    {
      "channel": 3,
      "note": 81,
      "start": 33.0357,
      "duration": 0.0161,
      "velocity": 94,
      "chip": "ym2612"
    },
    {
      "channel": 2,
      "note": 55,
      "start": 33.0368,
      "duration": 0.0161,
      "velocity": 100,
      "chip": "ym2612"
    },
    {
      "channel": 1,
      "note": 70,
      "start": 33.0492,
      "duration": 0.0161,
      "velocity": 124,
      "chip": "ym2612"
    },
    {
      "channel": 4,
      "note": 81,
      "start": 33.0506,
      "duration": 0.0166,
      "velocity": 94,
      "chip": "ym2612"
    },
    {
      "channel": 3,
      "note": 81,
      "start": 33.0518,
      "duration": 0.0166,
      "velocity": 94,
      "chip": "ym2612"
    },
    {
      "channel": 2,
      "note": 55,
      "start": 33.0529,
      "duration": 0.0169,
      "velocity": 100,
      "chip": "ym2612"
    },
    {
      "channel": 1,
      "note": 69,
      "start": 33.0653,
      "duration": 0.0161,
      "velocity": 124,
      "chip": "ym2612"
    },
    {
      "channel": 4,
      "note": 81,
      "start": 33.0672,
      "duration": 0.0156,
      "velocity": 94,
      "chip": "ym2612"
    },
    {
      "channel": 3,
      "note": 81,
      "start": 33.0684,
      "duration": 0.0156,
      "velocity": 94,
      "chip": "ym2612"
    },
    {
      "channel": 2,
      "note": 55,
      "start": 33.0698,
      "duration": 0.0153,
      "velocity": 100,
      "chip": "ym2612"
    },
    {
      "channel": 1,
      "note": 68,
      "start": 33.0814,
      "duration": 0.0163,
      "velocity": 124,
      "chip": "ym2612"
    },
    {
      "channel": 4,
      "note": 81,
      "start": 33.0829,
      "duration": 0.0163,
      "velocity": 94,
      "chip": "ym2612"
    },
    {
      "channel": 3,
      "note": 81,
      "start": 33.084,
      "duration": 0.0163,
      "velocity": 94,
      "chip": "ym2612"
    },
    {
      "channel": 2,
      "note": 55,
      "start": 33.0852,
      "duration": 0.0163,
      "velocity": 100,
      "chip": "ym2612"
    },
    {
      "channel": 1,
      "note": 66,
      "start": 33.0978,
      "duration": 0.0167,
      "velocity": 124,
      "chip": "ym2612"
    },
    {
      "channel": 4,
      "note": 81,
      "start": 33.0992,
      "duration": 0.0167,
      "velocity": 94,
      "chip": "ym2612"
    },
    {
      "channel": 3,
      "note": 81,
      "start": 33.1003,
      "duration": 0.0167,
      "velocity": 94,
      "chip": "ym2612"
    },
    {
      "channel": 2,
      "note": 55,
      "start": 33.1015,
      "duration": 0.0167,
      "velocity": 100,
      "chip": "ym2612"
    },
    {
      "channel": 1,
      "note": 65,
      "start": 33.1144,
      "duration": 0.0163,
      "velocity": 124,
      "chip": "ym2612"
    },
    {
      "channel": 4,
      "note": 81,
      "start": 33.1158,
      "duration": 0.0163,
      "velocity": 94,
      "chip": "ym2612"
    },
    {
      "channel": 3,
      "note": 81,
      "start": 33.117,
      "duration": 0.0163,
      "velocity": 94,
      "chip": "ym2612"
    },
    {
      "channel": 2,
      "note": 55,
      "start": 33.1181,
      "duration": 0.0163,
      "velocity": 100,
      "chip": "ym2612"
    },
    {
      "channel": 1,
      "note": 64,
      "start": 33.1308,
      "duration": 0.015,
      "velocity": 124,
      "chip": "ym2612"
    },
    {
      "channel": 4,
      "note": 81,
      "start": 33.1322,
      "duration": 0.015,
      "velocity": 94,
      "chip": "ym2612"
    },
    {
      "channel": 3,
      "note": 81,
      "start": 33.1333,
      "duration": 0.015,
      "velocity": 94,
      "chip": "ym2612"
    },
    {
      "channel": 2,
      "note": 55,
      "start": 33.1344,
      "duration": 0.0151,
      "velocity": 100,
      "chip": "ym2612"
    },
    {
      "channel": 1,
      "note": 62,
      "start": 33.1458,
      "duration": 0.0187,
      "velocity": 124,
      "chip": "ym2612"
    },
    {
      "channel": 4,
      "note": 81,
      "start": 33.1472,
      "duration": 0.0186,
      "velocity": 94,
      "chip": "ym2612"
    },
    {
      "channel": 3,
      "note": 81,
      "start": 33.1483,
      "duration": 0.0186,
      "velocity": 94,
      "chip": "ym2612"
    },
    {
      "channel": 2,
      "note": 55,
      "start": 33.1495,
      "duration": 0.0186,
      "velocity": 100,
      "chip": "ym2612"
    },
    {
      "channel": 1,
      "note": 61,
      "start": 33.1645,
      "duration": 0.0163,
      "velocity": 124,
      "chip": "ym2612"
    },
    {
      "channel": 4,
      "note": 81,
      "start": 33.1658,
      "duration": 0.0168,
      "velocity": 94,
      "chip": "ym2612"
    },
    {
      "channel": 3,
      "note": 81,
      "start": 33.167,
      "duration": 0.0169,
      "velocity": 94,
      "chip": "ym2612"
    },
    {
      "channel": 2,
      "note": 55,
      "start": 33.1681,
      "duration": 0.0171,
      "velocity": 100,
      "chip": "ym2612"
    },
    {
      "channel": 1,
      "note": 60,
      "start": 33.1808,
      "duration": 0.0157,
      "velocity": 124,
      "chip": "ym2612"
    },
    {
      "channel": 4,
      "note": 81,
      "start": 33.1827,
      "duration": 0.0153,
      "velocity": 94,
      "chip": "ym2612"
    },
    {
      "channel": 3,
      "note": 81,
      "start": 33.1838,
      "duration": 0.0153,
      "velocity": 94,
      "chip": "ym2612"
    },
    {
      "channel": 2,
      "note": 55,
      "start": 33.1853,
      "duration": 0.015,
      "velocity": 100,
      "chip": "ym2612"
    },
    {
      "channel": 1,
      "note": 59,
      "start": 33.1965,
      "duration": 0.0141,
      "velocity": 124,
      "chip": "ym2612"
    },
    {
      "channel": 4,
      "note": 81,
      "start": 33.198,
      "duration": 0.014,
      "velocity": 94,
      "chip": "ym2612"
    },
    {
      "channel": 3,
      "note": 81,
      "start": 33.1991,
      "duration": 0.014,
      "velocity": 94,
      "chip": "ym2612"
    },
    {
      "channel": 2,
      "note": 55,
      "start": 33.2003,
      "duration": 0.0139,
      "velocity": 100,
      "chip": "ym2612"
    },
    {
      "channel": 1,
      "note": 57,
      "start": 33.2105,
      "duration": 0.0158,
      "velocity": 124,
      "chip": "ym2612"
    },
    {
      "channel": 4,
      "note": 81,
      "start": 33.212,
      "duration": 0.0185,
      "velocity": 94,
      "chip": "ym2612"
    },
    {
      "channel": 3,
      "note": 81,
      "start": 33.2131,
      "duration": 0.0185,
      "velocity": 94,
      "chip": "ym2612"
    },
    {
      "channel": 2,
      "note": 55,
      "start": 33.2142,
      "duration": 0.0186,
      "velocity": 100,
      "chip": "ym2612"
    },
    {
      "channel": 1,
      "note": 56,
      "start": 33.2263,
      "duration": 0.0161,
      "velocity": 124,
      "chip": "ym2612"
    },
    {
      "channel": 4,
      "note": 81,
      "start": 33.2305,
      "duration": 0.0161,
      "velocity": 94,
      "chip": "ym2612"
    },
    {
      "channel": 3,
      "note": 81,
      "start": 33.2316,
      "duration": 0.0161,
      "velocity": 94,
      "chip": "ym2612"
    },
    {
      "channel": 2,
      "note": 55,
      "start": 33.2327,
      "duration": 0.0161,
      "velocity": 100,
      "chip": "ym2612"
    },
    {
      "channel": 1,
      "note": 55,
      "start": 33.2424,
      "duration": 0.0161,
      "velocity": 124,
      "chip": "ym2612"
    },
    {
      "channel": 4,
      "note": 81,
      "start": 33.2466,
      "duration": 0.0157,
      "velocity": 94,
      "chip": "ym2612"
    },
    {
      "channel": 3,
      "note": 81,
      "start": 33.2477,
      "duration": 0.0157,
      "velocity": 94,
      "chip": "ym2612"
    },
    {
      "channel": 2,
      "note": 55,
      "start": 33.2488,
      "duration": 0.0157,
      "velocity": 100,
      "chip": "ym2612"
    },
    {
      "channel": 1,
      "note": 53,
      "start": 33.2585,
      "duration": 0.0161,
      "velocity": 124,
      "chip": "ym2612"
    },
    {
      "channel": 4,
      "note": 81,
      "start": 33.2623,
      "duration": 0.0137,
      "velocity": 94,
      "chip": "ym2612"
    },
    {
      "channel": 3,
      "note": 81,
      "start": 33.2634,
      "duration": 0.0141,
      "velocity": 94,
      "chip": "ym2612"
    },
    {
      "channel": 2,
      "note": 55,
      "start": 33.2646,
      "duration": 0.0141,
      "velocity": 100,
      "chip": "ym2612"
    },
    {
      "channel": 1,
      "note": 52,
      "start": 33.2746,
      "duration": 0.0162,
      "velocity": 124,
      "chip": "ym2612"
    },
    {
      "channel": 4,
      "note": 81,
      "start": 33.276,
      "duration": 0.0231,
      "velocity": 94,
      "chip": "ym2612"
    },
    {
      "channel": 3,
      "note": 81,
      "start": 33.2775,
      "duration": 0.0228,
      "velocity": 94,
      "chip": "ym2612"
    },
    {
      "channel": 2,
      "note": 55,
      "start": 33.2786,
      "duration": 0.023,
      "velocity": 100,
      "chip": "ym2612"
    },
    {
      "channel": 1,
      "note": 51,
      "start": 33.2908,
      "duration": 0.0153,
      "velocity": 1,
      "chip": "ym2612"
    },
    {
      "channel": 0,
      "note": 36,
      "start": 33.2977,
      "duration": 0.015,
      "velocity": 115,
      "chip": "ym2612"
    },
    {
      "channel": 4,
      "note": 84,
      "start": 33.2991,
      "duration": 0.0148,
      "velocity": 94,
      "chip": "ym2612"
    },
    {
      "channel": 3,
      "note": 81,
      "start": 33.3002,
      "duration": 0.0148,
      "velocity": 94,
      "chip": "ym2612"
    },
    {
      "channel": 2,
      "note": 55,
      "start": 33.3017,
      "duration": 0.0145,
      "velocity": 100,
      "chip": "ym2612"
    },
    {
      "channel": 1,
      "note": 51,
      "start": 33.3082,
      "duration": 0.0143,
      "velocity": 105,
      "chip": "ym2612"
    },
    {
      "channel": 0,
      "note": 36,
      "start": 33.3127,
      "duration": 0.0115,
      "velocity": 115,
      "chip": "ym2612"
    },
    {
      "channel": 4,
      "note": 84,
      "start": 33.3139,
      "duration": 0.0113,
      "velocity": 94,
      "chip": "ym2612"
    },
    {
      "channel": 3,
      "note": 81,
      "start": 33.3151,
      "duration": 0.0113,
      "velocity": 94,
      "chip": "ym2612"
    },
    {
      "channel": 2,
      "note": 55,
      "start": 33.3162,
      "duration": 0.0137,
      "velocity": 100,
      "chip": "ym2612"
    },
    {
      "channel": 1,
      "note": 105,
      "start": 33.3224,
      "duration": 0.0161,
      "velocity": 105,
      "chip": "ym2612"
    },
    {
      "channel": 0,
      "note": 37,
      "start": 33.3241,
      "duration": 0.0161,
      "velocity": 115,
      "chip": "ym2612"
    },
    {
      "channel": 4,
      "note": 84,
      "start": 33.3252,
      "duration": 0.0162,
      "velocity": 94,
      "chip": "ym2612"
    },
    {
      "channel": 3,
      "note": 81,
      "start": 33.3264,
      "duration": 0.0161,
      "velocity": 94,
      "chip": "ym2612"
    },
    {
      "channel": 2,
      "note": 55,
      "start": 33.33,
      "duration": 0.0141,
      "velocity": 100,
      "chip": "ym2612"
    },
    {
      "channel": 1,
      "note": 105,
      "start": 33.3385,
      "duration": 0.0161,
      "velocity": 105,
      "chip": "ym2612"
    },
    {
      "channel": 0,
      "note": 37,
      "start": 33.3402,
      "duration": 0.0161,
      "velocity": 115,
      "chip": "ym2612"
    },
    {
      "channel": 4,
      "note": 84,
      "start": 33.3414,
      "duration": 0.0161,
      "velocity": 94,
      "chip": "ym2612"
    },
    {
      "channel": 3,
      "note": 81,
      "start": 33.3425,
      "duration": 0.0161,
      "velocity": 94,
      "chip": "ym2612"
    },
    {
      "channel": 2,
      "note": 55,
      "start": 33.344,
      "duration": 0.0157,
      "velocity": 100,
      "chip": "ym2612"
    },
    {
      "channel": 1,
      "note": 105,
      "start": 33.3546,
      "duration": 0.0161,
      "velocity": 105,
      "chip": "ym2612"
    },
    {
      "channel": 0,
      "note": 38,
      "start": 33.3563,
      "duration": 0.0161,
      "velocity": 115,
      "chip": "ym2612"
    },
    {
      "channel": 4,
      "note": 84,
      "start": 33.3575,
      "duration": 0.0161,
      "velocity": 94,
      "chip": "ym2612"
    },
    {
      "channel": 3,
      "note": 81,
      "start": 33.3586,
      "duration": 0.0161,
      "velocity": 94,
      "chip": "ym2612"
    },
    {
      "channel": 2,
      "note": 55,
      "start": 33.3597,
      "duration": 0.0161,
      "velocity": 100,
      "chip": "ym2612"
    },
    {
      "channel": 1,
      "note": 105,
      "start": 33.3707,
      "duration": 0.0161,
      "velocity": 105,
      "chip": "ym2612"
    },
    {
      "channel": 0,
      "note": 38,
      "start": 33.3724,
      "duration": 0.0161,
      "velocity": 115,
      "chip": "ym2612"
    },
    {
      "channel": 4,
      "note": 84,
      "start": 33.3736,
      "duration": 0.0161,
      "velocity": 94,
      "chip": "ym2612"
    },
    {
      "channel": 3,
      "note": 81,
      "start": 33.3747,
      "duration": 0.0161,
      "velocity": 94,
      "chip": "ym2612"
    },
    {
      "channel": 2,
      "note": 55,
      "start": 33.3758,
      "duration": 0.0161,
      "velocity": 100,
      "chip": "ym2612"
    },
    {
      "channel": 1,
      "note": 105,
      "start": 33.3868,
      "duration": 0.0178,
      "velocity": 124,
      "chip": "ym2612"
    },
    {
      "channel": 0,
      "note": 39,
      "start": 33.3885,
      "duration": 0.0196,
      "velocity": 115,
      "chip": "ym2612"
    },
    {
      "channel": 4,
      "note": 84,
      "start": 33.3897,
      "duration": 0.0197,
      "velocity": 94,
      "chip": "ym2612"
    },
    {
      "channel": 3,
      "note": 81,
      "start": 33.3908,
      "duration": 0.0202,
      "velocity": 94,
      "chip": "ym2612"
    },
    {
      "channel": 2,
      "note": 55,
      "start": 33.3919,
      "duration": 0.0205,
      "velocity": 100,
      "chip": "ym2612"
    },
    {
      "channel": 1,
      "note": 64,
      "start": 33.4047,
      "duration": 0.0144,
      "velocity": 124,
      "chip": "ym2612"
    },
    {
      "channel": 0,
      "note": 36,
      "start": 33.4081,
      "duration": 0.0127,
      "velocity": 115,
      "chip": "ym2612"
    },
    {
      "channel": 4,
      "note": 84,
      "start": 33.4093,
      "duration": 0.0127,
      "velocity": 94,
      "chip": "ym2612"
    },
    {
      "channel": 3,
      "note": 84,
      "start": 33.4111,
      "duration": 0.0121,
      "velocity": 94,
      "chip": "ym2612"
    },
    {
      "channel": 2,
      "note": 55,
      "start": 33.4125,
      "duration": 0.0119,
      "velocity": 100,
      "chip": "ym2612"
    },
    {
      "channel": 1,
      "note": 64,
      "start": 33.4191,
      "duration": 0.016,
      "velocity": 124,
      "chip": "ym2612"
    },
    {
      "channel": 0,
      "note": 36,
      "start": 33.4209,
      "duration": 0.016,
      "velocity": 115,
      "chip": "ym2612"
    },
    {
      "channel": 4,
      "note": 84,
      "start": 33.422,
      "duration": 0.016,
      "velocity": 94,
      "chip": "ym2612"
    },
    {
      "channel": 3,
      "note": 84,
      "start": 33.4232,
      "duration": 0.0159,
      "velocity": 94,
      "chip": "ym2612"
    },
    {
      "channel": 2,
      "note": 55,
      "start": 33.4244,
      "duration": 0.0158,
      "velocity": 100,
      "chip": "ym2612"
    },
    {
      "channel": 1,
      "note": 64,
      "start": 33.4352,
      "duration": 0.0161,
      "velocity": 124,
      "chip": "ym2612"
    },
    {
      "channel": 0,
      "note": 37,
      "start": 33.4368,
      "duration": 0.0161,
      "velocity": 115,
      "chip": "ym2612"
    },
    {
      "channel": 4,
      "note": 84,
      "start": 33.438,
      "duration": 0.0162,
      "velocity": 94,
      "chip": "ym2612"
    },
    {
      "channel": 3,
      "note": 84,
      "start": 33.4391,
      "duration": 0.0161,
      "velocity": 94,
      "chip": "ym2612"
    },
    {
      "channel": 2,
      "note": 55,
      "start": 33.4402,
      "duration": 0.0161,
      "velocity": 100,
      "chip": "ym2612"
    },
    {
      "channel": 1,
      "note": 64,
      "start": 33.4513,
      "duration": 0.0161,
      "velocity": 124,
      "chip": "ym2612"
    },
    {
      "channel": 0,
      "note": 37,
      "start": 33.4529,
      "duration": 0.0161,
      "velocity": 115,
      "chip": "ym2612"
    },
    {
      "channel": 4,
      "note": 84,
      "start": 33.4541,
      "duration": 0.0161,
      "velocity": 94,
      "chip": "ym2612"
    },
    {
      "channel": 3,
      "note": 84,
      "start": 33.4553,
      "duration": 0.0161,
      "velocity": 94,
      "chip": "ym2612"
    },
    {
      "channel": 2,
      "note": 55,
      "start": 33.4563,
      "duration": 0.0161,
      "velocity": 100,
      "chip": "ym2612"
    },
    {
      "channel": 1,
      "note": 64,
      "start": 33.4673,
      "duration": 0.0161,
      "velocity": 124,
      "chip": "ym2612"
    },
    {
      "channel": 0,
      "note": 38,
      "start": 33.469,
      "duration": 0.0161,
      "velocity": 115,
      "chip": "ym2612"
    },
    {
      "channel": 4,
      "note": 84,
      "start": 33.4702,
      "duration": 0.0161,
      "velocity": 94,
      "chip": "ym2612"
    },
    {
      "channel": 3,
      "note": 84,
      "start": 33.4714,
      "duration": 0.0161,
      "velocity": 94,
      "chip": "ym2612"
    },
    {
      "channel": 2,
      "note": 55,
      "start": 33.4724,
      "duration": 0.0161,
      "velocity": 100,
      "chip": "ym2612"
    },
    {
      "channel": 1,
      "note": 64,
      "start": 33.4834,
      "duration": 0.0161,
      "velocity": 124,
      "chip": "ym2612"
    },
    {
      "channel": 0,
      "note": 38,
      "start": 33.4851,
      "duration": 0.0161,
      "velocity": 115,
      "chip": "ym2612"
    },
    {
      "channel": 4,
      "note": 84,
      "start": 33.4863,
      "duration": 0.0161,
      "velocity": 94,
      "chip": "ym2612"
    },
    {
      "channel": 3,
      "note": 84,
      "start": 33.4875,
      "duration": 0.0161,
      "velocity": 94,
      "chip": "ym2612"
    },
    {
      "channel": 2,
      "note": 55,
      "start": 33.4885,
      "duration": 0.0161,
      "velocity": 100,
      "chip": "ym2612"
    },
    {
      "channel": 1,
      "note": 64,
      "start": 33.4995,
      "duration": 0.0178,
      "velocity": 105,
      "chip": "ym2612"
    },
    {
      "channel": 0,
      "note": 39,
      "start": 33.5012,
      "duration": 0.0179,
      "velocity": 115,
      "chip": "ym2612"
    },
    {
      "channel": 4,
      "note": 84,
      "start": 33.5024,
      "duration": 0.0178,
      "velocity": 94,
      "chip": "ym2612"
    },
    {
      "channel": 3,
      "note": 84,
      "start": 33.5035,
      "duration": 0.0178,
      "velocity": 94,
      "chip": "ym2612"
    },
    {
      "channel": 2,
      "note": 55,
      "start": 33.5046,
      "duration": 0.0181,
      "velocity": 100,
      "chip": "ym2612"
    },
    {
      "channel": 1,
      "note": 105,
      "start": 33.5173,
      "duration": 0.0144,
      "velocity": 105,
      "chip": "ym2612"
    },
    {
      "channel": 0,
      "note": 39,
      "start": 33.5191,
      "duration": 0.0144,
      "velocity": 115,
      "chip": "ym2612"
    },
    {
      "channel": 4,
      "note": 84,
      "start": 33.5202,
      "duration": 0.0144,
      "velocity": 94,
      "chip": "ym2612"
    },
    {
      "channel": 3,
      "note": 84,
      "start": 33.5214,
      "duration": 0.0144,
      "velocity": 94,
      "chip": "ym2612"
    },
    {
      "channel": 2,
      "note": 55,
      "start": 33.5228,
      "duration": 0.0141,
      "velocity": 100,
      "chip": "ym2612"
    },
    {
      "channel": 1,
      "note": 105,
      "start": 33.5318,
      "duration": 0.016,
      "velocity": 105,
      "chip": "ym2612"
    },
    {
      "channel": 0,
      "note": 40,
      "start": 33.5334,
      "duration": 0.016,
      "velocity": 115,
      "chip": "ym2612"
    },
    {
      "channel": 4,
      "note": 84,
      "start": 33.5346,
      "duration": 0.016,
      "velocity": 94,
      "chip": "ym2612"
    },
    {
      "channel": 3,
      "note": 84,
      "start": 33.5358,
      "duration": 0.016,
      "velocity": 94,
      "chip": "ym2612"
    },
    {
      "channel": 2,
      "note": 55,
      "start": 33.5369,
      "duration": 0.016,
      "velocity": 100,
      "chip": "ym2612"
    },
    {
      "channel": 1,
      "note": 105,
      "start": 33.5478,
      "duration": 0.0162,
      "velocity": 105,
      "chip": "ym2612"
    },
    {
      "channel": 0,
      "note": 40,
      "start": 33.5495,
      "duration": 0.0162,
      "velocity": 115,
      "chip": "ym2612"
    },
    {
      "channel": 4,
      "note": 84,
      "start": 33.5507,
      "duration": 0.0161,
      "velocity": 94,
      "chip": "ym2612"
    },
    {
      "channel": 3,
      "note": 84,
      "start": 33.5518,
      "duration": 0.0161,
      "velocity": 94,
      "chip": "ym2612"
    },
    {
      "channel": 2,
      "note": 55,
      "start": 33.5529,
      "duration": 0.0162,
      "velocity": 100,
      "chip": "ym2612"
    },
    {
      "channel": 1,
      "note": 105,
      "start": 33.564,
      "duration": 0.0167,
      "velocity": 105,
      "chip": "ym2612"
    },
    {
      "channel": 0,
      "note": 40,
      "start": 33.5656,
      "duration": 0.0167,
      "velocity": 115,
      "chip": "ym2612"
    },
    {
      "channel": 4,
      "note": 84,
      "start": 33.5668,
      "duration": 0.0167,
      "velocity": 94,
      "chip": "ym2612"
    },
    {
      "channel": 3,
      "note": 84,
      "start": 33.5679,
      "duration": 0.0167,
      "velocity": 94,
      "chip": "ym2612"
    },
    {
      "channel": 2,
      "note": 55,
      "start": 33.5691,
      "duration": 0.0167,
      "velocity": 100,
      "chip": "ym2612"
    },
    {
      "channel": 1,
      "note": 105,
      "start": 33.5807,
      "duration": 0.0163,
      "velocity": 105,
      "chip": "ym2612"
    },
    {
      "channel": 0,
      "note": 41,
      "start": 33.5823,
      "duration": 0.0163,
      "velocity": 115,
      "chip": "ym2612"
    },
    {
      "channel": 4,
      "note": 84,
      "start": 33.5834,
      "duration": 0.0163,
      "velocity": 94,
      "chip": "ym2612"
    },
    {
      "channel": 3,
      "note": 84,
      "start": 33.5846,
      "duration": 0.0163,
      "velocity": 94,
      "chip": "ym2612"
    },
    {
      "channel": 2,
      "note": 55,
      "start": 33.5857,
      "duration": 0.0163,
      "velocity": 100,
      "chip": "ym2612"
    },
    {
      "channel": 1,
      "note": 105,
      "start": 33.5969,
      "duration": 0.0153,
      "velocity": 105,
      "chip": "ym2612"
    },
    {
      "channel": 0,
      "note": 41,
      "start": 33.5986,
      "duration": 0.0153,
      "velocity": 115,
      "chip": "ym2612"
    },
    {
      "channel": 4,
      "note": 84,
      "start": 33.5997,
      "duration": 0.0153,
      "velocity": 94,
      "chip": "ym2612"
    },
    {
      "channel": 3,
      "note": 84,
      "start": 33.6009,
      "duration": 0.0153,
      "velocity": 94,
      "chip": "ym2612"
    },
    {
      "channel": 2,
      "note": 55,
      "start": 33.602,
      "duration": 0.0153,
      "velocity": 100,
      "chip": "ym2612"
    },
    {
      "channel": 1,
      "note": 105,
      "start": 33.6123,
      "duration": 0.02,
      "velocity": 124,
      "chip": "ym2612"
    },
    {
      "channel": 0,
      "note": 42,
      "start": 33.6139,
      "duration": 0.0201,
      "velocity": 115,
      "chip": "ym2612"
    },
    {
      "channel": 4,
      "note": 84,
      "start": 33.6151,
      "duration": 0.0202,
      "velocity": 94,
      "chip": "ym2612"
    },
    {
      "channel": 3,
      "note": 84,
      "start": 33.6162,
      "duration": 0.0202,
      "velocity": 94,
      "chip": "ym2612"
    },
    {
      "channel": 2,
      "note": 55,
      "start": 33.6173,
      "duration": 0.0204,
      "velocity": 100,
      "chip": "ym2612"
    },
    {
      "channel": 1,
      "note": 64,
      "start": 33.6324,
      "duration": 0.015,
      "velocity": 124,
      "chip": "ym2612"
    },
    {
      "channel": 0,
      "note": 42,
      "start": 33.634,
      "duration": 0.015,
      "velocity": 115,
      "chip": "ym2612"
    },
    {
      "channel": 4,
      "note": 84,
      "start": 33.6352,
      "duration": 0.0149,
      "velocity": 94,
      "chip": "ym2612"
    },
    {
      "channel": 3,
      "note": 84,
      "start": 33.6364,
      "duration": 0.0149,
      "velocity": 94,
      "chip": "ym2612"
    },
    {
      "channel": 2,
      "note": 55,
      "start": 33.6378,
      "duration": 0.0146,
      "velocity": 100,
      "chip": "ym2612"
    },
    {
      "channel": 1,
      "note": 64,
      "start": 33.6473,
      "duration": 0.0156,
      "velocity": 124,
      "chip": "ym2612"
    },
    {
      "channel": 0,
      "note": 43,
      "start": 33.649,
      "duration": 0.0156,
      "velocity": 115,
      "chip": "ym2612"
    },
    {
      "channel": 4,
      "note": 84,
      "start": 33.6501,
      "duration": 0.0156,
      "velocity": 94,
      "chip": "ym2612"
    },
    {
      "channel": 3,
      "note": 84,
      "start": 33.6513,
      "duration": 0.0156,
      "velocity": 94,
      "chip": "ym2612"
    },
    {
      "channel": 2,
      "note": 55,
      "start": 33.6525,
      "duration": 0.0156,
      "velocity": 100,
      "chip": "ym2612"
    },
    {
      "channel": 1,
      "note": 64,
      "start": 33.663,
      "duration": 0.0141,
      "velocity": 124,
      "chip": "ym2612"
    },
    {
      "channel": 0,
      "note": 43,
      "start": 33.6646,
      "duration": 0.0141,
      "velocity": 115,
      "chip": "ym2612"
    },
    {
      "channel": 4,
      "note": 84,
      "start": 33.6658,
      "duration": 0.0141,
      "velocity": 94,
      "chip": "ym2612"
    },
    {
      "channel": 3,
      "note": 84,
      "start": 33.6669,
      "duration": 0.0141,
      "velocity": 94,
      "chip": "ym2612"
    },
    {
      "channel": 2,
      "note": 55,
      "start": 33.668,
      "duration": 0.0141,
      "velocity": 100,
      "chip": "ym2612"
    },
    {
      "channel": 1,
      "note": 64,
      "start": 33.677,
      "duration": 0.0157,
      "velocity": 124,
      "chip": "ym2612"
    },
    {
      "channel": 0,
      "note": 44,
      "start": 33.6787,
      "duration": 0.0185,
      "velocity": 115,
      "chip": "ym2612"
    },
    {
      "channel": 4,
      "note": 84,
      "start": 33.6798,
      "duration": 0.0185,
      "velocity": 94,
      "chip": "ym2612"
    },
    {
      "channel": 3,
      "note": 84,
      "start": 33.681,
      "duration": 0.0185,
      "velocity": 94,
      "chip": "ym2612"
    },
    {
      "channel": 2,
      "note": 55,
      "start": 33.6821,
      "duration": 0.0185,
      "velocity": 100,
      "chip": "ym2612"
    },
    {
      "channel": 1,
      "note": 64,
      "start": 33.6927,
      "duration": 0.0161,
      "velocity": 124,
      "chip": "ym2612"
    },
    {
      "channel": 0,
      "note": 44,
      "start": 33.6972,
      "duration": 0.0161,
      "velocity": 115,
      "chip": "ym2612"
    },
    {
      "channel": 4,
      "note": 84,
      "start": 33.6983,
      "duration": 0.0162,
      "velocity": 94,
      "chip": "ym2612"
    },
    {
      "channel": 3,
      "note": 84,
      "start": 33.6995,
      "duration": 0.0162,
      "velocity": 94,
      "chip": "ym2612"
    },
    {
      "channel": 2,
      "note": 55,
      "start": 33.7006,
      "duration": 0.0161,
      "velocity": 100,
      "chip": "ym2612"
    },
    {
      "channel": 1,
      "note": 64,
      "start": 33.7089,
      "duration": 0.0161,
      "velocity": 124,
      "chip": "ym2612"
    },
    {
      "channel": 0,
      "note": 44,
      "start": 33.7133,
      "duration": 0.0157,
      "velocity": 115,
      "chip": "ym2612"
    },
    {
      "channel": 4,
      "note": 84,
      "start": 33.7145,
      "duration": 0.0157,
      "velocity": 94,
      "chip": "ym2612"
    },
    {
      "channel": 3,
      "note": 84,
      "start": 33.7156,
      "duration": 0.0157,
      "velocity": 94,
      "chip": "ym2612"
    },
    {
      "channel": 2,
      "note": 55,
      "start": 33.7167,
      "duration": 0.0158,
      "velocity": 100,
      "chip": "ym2612"
    },
    {
      "channel": 1,
      "note": 64,
      "start": 33.725,
      "duration": 0.0178,
      "velocity": 105,
      "chip": "ym2612"
    },
    {
      "channel": 0,
      "note": 45,
      "start": 33.729,
      "duration": 0.0158,
      "velocity": 115,
      "chip": "ym2612"
    },
    {
      "channel": 4,
      "note": 84,
      "start": 33.7302,
      "duration": 0.0158,
      "velocity": 94,
      "chip": "ym2612"
    },
    {
      "channel": 3,
      "note": 84,
      "start": 33.7313,
      "duration": 0.0158,
      "velocity": 94,
      "chip": "ym2612"
    },
    {
      "channel": 2,
      "note": 55,
      "start": 33.7325,
      "duration": 0.016,
      "velocity": 100,
      "chip": "ym2612"
    },
    {
      "channel": 1,
      "note": 105,
      "start": 33.7428,
      "duration": 0.0144,
      "velocity": 105,
      "chip": "ym2612"
    },
    {
      "channel": 0,
      "note": 45,
      "start": 33.7448,
      "duration": 0.0141,
      "velocity": 115,
      "chip": "ym2612"
    },
    {
      "channel": 4,
      "note": 84,
      "start": 33.746,
      "duration": 0.0168,
      "velocity": 94,
      "chip": "ym2612"
    },
    {
      "channel": 3,
      "note": 84,
      "start": 33.7471,
      "duration": 0.0169,
      "velocity": 94,
      "chip": "ym2612"
    },
    {
      "channel": 2,
      "note": 55,
      "start": 33.7485,
      "duration": 0.0166,
      "velocity": 100,
      "chip": "ym2612"
    },
    {
      "channel": 1,
      "note": 105,
      "start": 33.7572,
      "duration": 0.016,
      "velocity": 105,
      "chip": "ym2612"
    },
    {
      "channel": 0,
      "note": 46,
      "start": 33.7589,
      "duration": 0.016,
      "velocity": 115,
      "chip": "ym2612"
    },
    {
      "channel": 4,
      "note": 84,
      "start": 33.7628,
      "duration": 0.0133,
      "velocity": 94,
      "chip": "ym2612"
    },
    {
      "channel": 3,
      "note": 84,
      "start": 33.764,
      "duration": 0.016,
      "velocity": 94,
      "chip": "ym2612"
    },
    {
      "channel": 2,
      "note": 55,
      "start": 33.7651,
      "duration": 0.016,
      "velocity": 100,
      "chip": "ym2612"
    },
    {
      "channel": 1,
      "note": 105,
      "start": 33.7733,
      "duration": 0.0161,
      "velocity": 105,
      "chip": "ym2612"
    },
    {
      "channel": 0,
      "note": 46,
      "start": 33.7749,
      "duration": 0.0161,
      "velocity": 115,
      "chip": "ym2612"
    },
    {
      "channel": 4,
      "note": 84,
      "start": 33.7761,
      "duration": 0.0161,
      "velocity": 94,
      "chip": "ym2612"
    },
    {
      "channel": 3,
      "note": 84,
      "start": 33.78,
      "duration": 0.0157,
      "velocity": 94,
      "chip": "ym2612"
    },
    {
      "channel": 2,
      "note": 55,
      "start": 33.7812,
      "duration": 0.0157,
      "velocity": 100,
      "chip": "ym2612"
    },
    {
      "channel": 1,
      "note": 105,
      "start": 33.7894,
      "duration": 0.0161,
      "velocity": 105,
      "chip": "ym2612"
    },
    {
      "channel": 0,
      "note": 47,
      "start": 33.791,
      "duration": 0.0161,
      "velocity": 115,
      "chip": "ym2612"
    },
    {
      "channel": 4,
      "note": 84,
      "start": 33.7922,
      "duration": 0.0161,
      "velocity": 94,
      "chip": "ym2612"
    },
    {
      "channel": 3,
      "note": 84,
      "start": 33.7957,
      "duration": 0.0137,
      "velocity": 94,
      "chip": "ym2612"
    },
    {
      "channel": 2,
      "note": 55,
      "start": 33.7969,
      "duration": 0.0141,
      "velocity": 100,
      "chip": "ym2612"
    },
    {
      "channel": 1,
      "note": 105,
      "start": 33.8055,
      "duration": 0.0161,
      "velocity": 105,
      "chip": "ym2612"
    },
    {
      "channel": 0,
      "note": 47,
      "start": 33.8071,
      "duration": 0.0161,
      "velocity": 115,
      "chip": "ym2612"
    },
    {
      "channel": 4,
      "note": 84,
      "start": 33.8083,
      "duration": 0.0161,
      "velocity": 94,
      "chip": "ym2612"
    },
    {
      "channel": 3,
      "note": 84,
      "start": 33.8095,
      "duration": 0.0161,
      "velocity": 94,
      "chip": "ym2612"
    },
    {
      "channel": 2,
      "note": 55,
      "start": 33.8109,
      "duration": 0.0185,
      "velocity": 100,
      "chip": "ym2612"
    },
    {
      "channel": 1,
      "note": 105,
      "start": 33.8215,
      "duration": 0.0161,
      "velocity": 105,
      "chip": "ym2612"
    },
    {
      "channel": 0,
      "note": 47,
      "start": 33.8232,
      "duration": 0.0162,
      "velocity": 115,
      "chip": "ym2612"
    },
    {
      "channel": 4,
      "note": 84,
      "start": 33.8244,
      "duration": 0.0161,
      "velocity": 94,
      "chip": "ym2612"
    },
    {
      "channel": 3,
      "note": 84,
      "start": 33.8256,
      "duration": 0.0161,
      "velocity": 94,
      "chip": "ym2612"
    },
    {
      "channel": 2,
      "note": 55,
      "start": 33.8294,
      "duration": 0.0134,
      "velocity": 100,
      "chip": "ym2612"
    },
    {
      "channel": 1,
      "note": 105,
      "start": 33.8376,
      "duration": 0.0184,
      "velocity": 124,
      "chip": "ym2612"
    },
    {
      "channel": 0,
      "note": 48,
      "start": 33.8394,
      "duration": 0.0191,
      "velocity": 115,
      "chip": "ym2612"
    },
    {
      "channel": 4,
      "note": 84,
      "start": 33.8405,
      "duration": 0.0191,
      "velocity": 94,
      "chip": "ym2612"
    },
    {
      "channel": 3,
      "note": 84,
      "start": 33.8417,
      "duration": 0.0215,
      "velocity": 94,
      "chip": "ym2612"
    },
    {
      "channel": 2,
      "note": 55,
      "start": 33.8428,
      "duration": 0.0218,
      "velocity": 100,
      "chip": "ym2612"
    },
    {
      "channel": 1,
      "note": 78,
      "start": 33.856,
      "duration": 0.0144,
      "velocity": 124,
      "chip": "ym2612"
    },
    {
      "channel": 0,
      "note": 48,
      "start": 33.8585,
      "duration": 0.0139,
      "velocity": 115,
      "chip": "ym2612"
    },
    {
      "channel": 4,
      "note": 84,
      "start": 33.8596,
      "duration": 0.0139,
      "velocity": 94,
      "chip": "ym2612"
    },
    {
      "channel": 3,
      "note": 84,
      "start": 33.8632,
      "duration": 0.0115,
      "velocity": 94,
      "chip": "ym2612"
    },
    {
      "channel": 2,
      "note": 55,
      "start": 33.8646,
      "duration": 0.0112,
      "velocity": 100,
      "chip": "ym2612"
    },
    {
      "channel": 1,
      "note": 76,
      "start": 33.8704,
      "duration": 0.016,
      "velocity": 124,
      "chip": "ym2612"
    },
    {
      "channel": 0,
      "note": 49,
      "start": 33.8723,
      "duration": 0.0152,
      "velocity": 1,
      "chip": "ym2612"
    },
    {
      "channel": 4,
      "note": 84,
      "start": 33.8735,
      "duration": 0.0151,
      "velocity": 94,
      "chip": "ym2612"
    },
    {
      "channel": 3,
      "note": 84,
      "start": 33.8747,
      "duration": 0.0151,
      "velocity": 94,
      "chip": "ym2612"
    },
    {
      "channel": 2,
      "note": 55,
      "start": 33.8758,
      "duration": 0.0151,
      "velocity": 100,
      "chip": "ym2612"
    },
    {
      "channel": 1,
      "note": 75,
      "start": 33.8864,
      "duration": 0.0161,
      "velocity": 124,
      "chip": "ym2612"
    },
    {
      "channel": 4,
      "note": 84,
      "start": 33.8887,
      "duration": 0.0153,
      "velocity": 94,
      "chip": "ym2612"
    },
    {
      "channel": 3,
      "note": 84,
      "start": 33.8898,
      "duration": 0.0153,
      "velocity": 94,
      "chip": "ym2612"
    },
    {
      "channel": 2,
      "note": 55,
      "start": 33.891,
      "duration": 0.0153,
      "velocity": 100,
      "chip": "ym2612"
    },
    {
      "channel": 1,
      "note": 74,
      "start": 33.9026,
      "duration": 0.0161,
      "velocity": 124,
      "chip": "ym2612"
    },
    {
      "channel": 4,
      "note": 84,
      "start": 33.904,
      "duration": 0.0161,
      "velocity": 94,
      "chip": "ym2612"
    },
    {
      "channel": 3,
      "note": 84,
      "start": 33.9051,
      "duration": 0.0161,
      "velocity": 94,
      "chip": "ym2612"
    },
    {
      "channel": 2,
      "note": 55,
      "start": 33.9062,
      "duration": 0.0161,
      "velocity": 100,
      "chip": "ym2612"
    },
    {
      "channel": 1,
      "note": 72,
      "start": 33.9187,
      "duration": 0.0161,
      "velocity": 124,
      "chip": "ym2612"
    },
    {
      "channel": 4,
      "note": 84,
      "start": 33.9201,
      "duration": 0.0161,
      "velocity": 94,
      "chip": "ym2612"
    },
    {
      "channel": 3,
      "note": 84,
      "start": 33.9212,
      "duration": 0.0161,
      "velocity": 94,
      "chip": "ym2612"
    },
    {
      "channel": 2,
      "note": 55,
      "start": 33.9223,
      "duration": 0.0162,
      "velocity": 100,
      "chip": "ym2612"
    },
    {
      "channel": 1,
      "note": 71,
      "start": 33.9348,
      "duration": 0.0161,
      "velocity": 124,
      "chip": "ym2612"
    },
    {
      "channel": 4,
      "note": 84,
      "start": 33.9362,
      "duration": 0.0161,
      "velocity": 94,
      "chip": "ym2612"
    },
    {
      "channel": 3,
      "note": 84,
      "start": 33.9373,
      "duration": 0.0161,
      "velocity": 94,
      "chip": "ym2612"
    },
    {
      "channel": 2,
      "note": 55,
      "start": 33.9385,
      "duration": 0.0161,
      "velocity": 100,
      "chip": "ym2612"
    },
    {
      "channel": 1,
      "note": 70,
      "start": 33.9509,
      "duration": 0.0161,
      "velocity": 124,
      "chip": "ym2612"
    },
    {
      "channel": 4,
      "note": 84,
      "start": 33.9523,
      "duration": 0.0169,
      "velocity": 94,
      "chip": "ym2612"
    },
    {
      "channel": 3,
      "note": 84,
      "start": 33.9534,
      "duration": 0.0168,
      "velocity": 94,
      "chip": "ym2612"
    },
    {
      "channel": 2,
      "note": 55,
      "start": 33.9546,
      "duration": 0.0171,
      "velocity": 100,
      "chip": "ym2612"
    },
    {
      "channel": 1,
      "note": 69,
      "start": 33.967,
      "duration": 0.0161,
      "velocity": 124,
      "chip": "ym2612"
    },
    {
      "channel": 4,
      "note": 83,
      "start": 33.9691,
      "duration": 0.0155,
      "velocity": 94,
      "chip": "ym2612"
    },
    {
      "channel": 3,
      "note": 84,
      "start": 33.9703,
      "duration": 0.0155,
      "velocity": 94,
      "chip": "ym2612"
    },
    {
      "channel": 2,
      "note": 55,
      "start": 33.9717,
      "duration": 0.0151,
      "velocity": 100,
      "chip": "ym2612"
    },
    {
      "channel": 1,
      "note": 68,
      "start": 33.9831,
      "duration": 0.0161,
      "velocity": 124,
      "chip": "ym2612"
    },
    {
      "channel": 4,
      "note": 83,
      "start": 33.9846,
      "duration": 0.016,
      "velocity": 94,
      "chip": "ym2612"
    },
    {
      "channel": 3,
      "note": 84,
      "start": 33.9857,
      "duration": 0.016,
      "velocity": 94,
      "chip": "ym2612"
    },
    {
      "channel": 2,
      "note": 55,
      "start": 33.9869,
      "duration": 0.016,
      "velocity": 100,
      "chip": "ym2612"
    },
    {
      "channel": 1,
      "note": 66,
      "start": 33.9992,
      "duration": 0.0161,
      "velocity": 124,
      "chip": "ym2612"
    },
    {
      "channel": 4,
      "note": 83,
      "start": 34.0006,
      "duration": 0.0161,
      "velocity": 94,
      "chip": "ym2612"
    },
    {
      "channel": 3,
      "note": 84,
      "start": 34.0017,
      "duration": 0.0161,
      "velocity": 94,
      "chip": "ym2612"
    },
    {
      "channel": 2,
      "note": 55,
      "start": 34.0029,
      "duration": 0.0161,
      "velocity": 100,
      "chip": "ym2612"
    },
    {
      "channel": 1,
      "note": 65,
      "start": 34.0153,
      "duration": 0.0161,
      "velocity": 124,
      "chip": "ym2612"
    },
    {
      "channel": 4,
      "note": 83,
      "start": 34.0166,
      "duration": 0.0161,
      "velocity": 94,
      "chip": "ym2612"
    },
    {
      "channel": 3,
      "note": 84,
      "start": 34.0178,
      "duration": 0.0161,
      "velocity": 94,
      "chip": "ym2612"
    },
    {
      "channel": 2,
      "note": 55,
      "start": 34.0189,
      "duration": 0.0161,
      "velocity": 100,
      "chip": "ym2612"
    },
    {
      "channel": 1,
      "note": 64,
      "start": 34.0313,
      "duration": 0.0164,
      "velocity": 124,
      "chip": "ym2612"
    },
    {
      "channel": 4,
      "note": 83,
      "start": 34.0327,
      "duration": 0.0164,
      "velocity": 94,
      "chip": "ym2612"
    },
    {
      "channel": 3,
      "note": 84,
      "start": 34.0339,
      "duration": 0.0164,
      "velocity": 94,
      "chip": "ym2612"
    },
    {
      "channel": 2,
      "note": 55,
      "start": 34.035,
      "duration": 0.0164,
      "velocity": 100,
      "chip": "ym2612"
    },
    {
      "channel": 1,
      "note": 62,
      "start": 34.0478,
      "duration": 0.0163,
      "velocity": 124,
      "chip": "ym2612"
    },
    {
      "channel": 4,
      "note": 83,
      "start": 34.0492,
      "duration": 0.0163,
      "velocity": 94,
      "chip": "ym2612"
    },
    {
      "channel": 3,
      "note": 84,
      "start": 34.0503,
      "duration": 0.0163,
      "velocity": 94,
      "chip": "ym2612"
    },
    {
      "channel": 2,
      "note": 55,
      "start": 34.0515,
      "duration": 0.0163,
      "velocity": 100,
      "chip": "ym2612"
    },
    {
      "channel": 1,
      "note": 61,
      "start": 34.0641,
      "duration": 0.0156,
      "velocity": 124,
      "chip": "ym2612"
    },
    {
      "channel": 4,
      "note": 83,
      "start": 34.0655,
      "duration": 0.0161,
      "velocity": 94,
      "chip": "ym2612"
    },
    {
      "channel": 3,
      "note": 84,
      "start": 34.0666,
      "duration": 0.0163,
      "velocity": 94,
      "chip": "ym2612"
    },
    {
      "channel": 2,
      "note": 55,
      "start": 34.0677,
      "duration": 0.0167,
      "velocity": 100,
      "chip": "ym2612"
    },
    {
      "channel": 1,
      "note": 60,
      "start": 34.0797,
      "duration": 0.0181,
      "velocity": 124,
      "chip": "ym2612"
    },
    {
      "channel": 4,
      "note": 83,
      "start": 34.0816,
      "duration": 0.0176,
      "velocity": 94,
      "chip": "ym2612"
    },
    {
      "channel": 3,
      "note": 83,
      "start": 34.083,
      "duration": 0.0174,
      "velocity": 94,
      "chip": "ym2612"
    },
    {
      "channel": 2,
      "note": 48,
      "start": 34.0845,
      "duration": 0.0171,
      "velocity": 100,
      "chip": "ym2612"
    },
    {
      "channel": 1,
      "note": 59,
      "start": 34.0978,
      "duration": 0.0166,
      "velocity": 124,
      "chip": "ym2612"
    },
    {
      "channel": 4,
      "note": 83,
      "start": 34.0992,
      "duration": 0.0166,
      "velocity": 94,
      "chip": "ym2612"
    },
    {
      "channel": 3,
      "note": 83,
      "start": 34.1004,
      "duration": 0.0165,
      "velocity": 94,
      "chip": "ym2612"
    },
    {
      "channel": 2,
      "note": 48,
      "start": 34.1016,
      "duration": 0.0165,
      "velocity": 100,
      "chip": "ym2612"
    },
    {
      "channel": 1,
      "note": 57,
      "start": 34.1144,
      "duration": 0.016,
      "velocity": 124,
      "chip": "ym2612"
    },
    {
      "channel": 4,
      "note": 83,
      "start": 34.1158,
      "duration": 0.0159,
      "velocity": 94,
      "chip": "ym2612"
    },
    {
      "channel": 3,
      "note": 83,
      "start": 34.117,
      "duration": 0.0159,
      "velocity": 94,
      "chip": "ym2612"
    },
    {
      "channel": 2,
      "note": 48,
      "start": 34.1181,
      "duration": 0.0159,
      "velocity": 100,
      "chip": "ym2612"
    },
    {
      "channel": 1,
      "note": 56,
      "start": 34.1304,
      "duration": 0.014,
      "velocity": 124,
      "chip": "ym2612"
    },
    {
      "channel": 4,
      "note": 83,
      "start": 34.1317,
      "duration": 0.0141,
      "velocity": 94,
      "chip": "ym2612"
    },
    {
      "channel": 3,
      "note": 83,
      "start": 34.1329,
      "duration": 0.0141,
      "velocity": 94,
      "chip": "ym2612"
    },
    {
      "channel": 2,
      "note": 48,
      "start": 34.134,
      "duration": 0.0141,
      "velocity": 100,
      "chip": "ym2612"
    },
    {
      "channel": 1,
      "note": 55,
      "start": 34.1444,
      "duration": 0.0186,
      "velocity": 124,
      "chip": "ym2612"
    },
    {
      "channel": 4,
      "note": 83,
      "start": 34.1458,
      "duration": 0.0185,
      "velocity": 94,
      "chip": "ym2612"
    },
    {
      "channel": 3,
      "note": 83,
      "start": 34.1469,
      "duration": 0.0185,
      "velocity": 94,
      "chip": "ym2612"
    },
    {
      "channel": 2,
      "note": 48,
      "start": 34.1481,
      "duration": 0.0185,
      "velocity": 100,
      "chip": "ym2612"
    },
    {
      "channel": 1,
      "note": 53,
      "start": 34.163,
      "duration": 0.0133,
      "velocity": 124,
      "chip": "ym2612"
    },
    {
      "channel": 4,
      "note": 83,
      "start": 34.1643,
      "duration": 0.0161,
      "velocity": 94,
      "chip": "ym2612"
    },
    {
      "channel": 3,
      "note": 83,
      "start": 34.1654,
      "duration": 0.0161,
      "velocity": 94,
      "chip": "ym2612"
    },
    {
      "channel": 2,
      "note": 48,
      "start": 34.1666,
      "duration": 0.0161,
      "velocity": 100,
      "chip": "ym2612"
    },
    {
      "channel": 1,
      "note": 52,
      "start": 34.1763,
      "duration": 0.0162,
      "velocity": 124,
      "chip": "ym2612"
    },
    {
      "channel": 4,
      "note": 83,
      "start": 34.1804,
      "duration": 0.0198,
      "velocity": 94,
      "chip": "ym2612"
    },
    {
      "channel": 3,
      "note": 83,
      "start": 34.1815,
      "duration": 0.0198,
      "velocity": 94,
      "chip": "ym2612"
    },
    {
      "channel": 2,
      "note": 48,
      "start": 34.1827,
      "duration": 0.02,
      "velocity": 100,
      "chip": "ym2612"
    },
    {
      "channel": 1,
      "note": 51,
      "start": 34.1924,
      "duration": 0.0153,
      "velocity": 1,
      "chip": "ym2612"
    },
    {
      "channel": 0,
      "note": 78,
      "start": 34.199,
      "duration": 0.0129,
      "velocity": 127,
      "chip": "ym2612"
    },
    {
      "channel": 4,
      "note": 83,
      "start": 34.2002,
      "duration": 0.0129,
      "velocity": 94,
      "chip": "ym2612"
    },
    {
      "channel": 3,
      "note": 83,
      "start": 34.2013,
      "duration": 0.0129,
      "velocity": 94,
      "chip": "ym2612"
    },
    {
      "channel": 2,
      "note": 48,
      "start": 34.2027,
      "duration": 0.0127,
      "velocity": 100,
      "chip": "ym2612"
    },
    {
      "channel": 1,
      "note": 51,
      "start": 34.21,
      "duration": 0.0141,
      "velocity": 105,
      "chip": "ym2612"
    },
    {
      "channel": 0,
      "note": 76,
      "start": 34.2119,
      "duration": 0.0139,
      "velocity": 127,
      "chip": "ym2612"
    },
    {
      "channel": 4,
      "note": 83,
      "start": 34.2131,
      "duration": 0.0166,
      "velocity": 94,
      "chip": "ym2612"
    },
    {
      "channel": 3,
      "note": 83,
      "start": 34.2142,
      "duration": 0.0166,
      "velocity": 94,
      "chip": "ym2612"
    },
    {
      "channel": 2,
      "note": 48,
      "start": 34.2154,
      "duration": 0.0166,
      "velocity": 100,
      "chip": "ym2612"
    },
    {
      "channel": 1,
      "note": 105,
      "start": 34.2241,
      "duration": 0.0161,
      "velocity": 105,
      "chip": "ym2612"
    },
    {
      "channel": 0,
      "note": 75,
      "start": 34.2258,
      "duration": 0.0161,
      "velocity": 127,
      "chip": "ym2612"
    },
    {
      "channel": 4,
      "note": 83,
      "start": 34.2297,
      "duration": 0.0134,
      "velocity": 94,
      "chip": "ym2612"
    },
    {
      "channel": 3,
      "note": 83,
      "start": 34.2308,
      "duration": 0.0161,
      "velocity": 94,
      "chip": "ym2612"
    },
    {
      "channel": 2,
      "note": 48,
      "start": 34.232,
      "duration": 0.0161,
      "velocity": 100,
      "chip": "ym2612"
    },
    {
      "channel": 1,
      "note": 105,
      "start": 34.2402,
      "duration": 0.0161,
      "velocity": 105,
      "chip": "ym2612"
    },
    {
      "channel": 0,
      "note": 73,
      "start": 34.2418,
      "duration": 0.0161,
      "velocity": 127,
      "chip": "ym2612"
    },
    {
      "channel": 4,
      "note": 83,
      "start": 34.2431,
      "duration": 0.0161,
      "velocity": 94,
      "chip": "ym2612"
    },
    {
      "channel": 3,
      "note": 83,
      "start": 34.2469,
      "duration": 0.0157,
      "velocity": 94,
      "chip": "ym2612"
    },
    {
      "channel": 2,
      "note": 48,
      "start": 34.2481,
      "duration": 0.0157,
      "velocity": 100,
      "chip": "ym2612"
    },
    {
      "channel": 1,
      "note": 105,
      "start": 34.2563,
      "duration": 0.0161,
      "velocity": 105,
      "chip": "ym2612"
    },
    {
      "channel": 0,
      "note": 71,
      "start": 34.2579,
      "duration": 0.0161,
      "velocity": 127,
      "chip": "ym2612"
    },
    {
      "channel": 4,
      "note": 83,
      "start": 34.2591,
      "duration": 0.0161,
      "velocity": 94,
      "chip": "ym2612"
    },
    {
      "channel": 3,
      "note": 83,
      "start": 34.2627,
      "duration": 0.0137,
      "velocity": 94,
      "chip": "ym2612"
    },
    {
      "channel": 2,
      "note": 48,
      "start": 34.2638,
      "duration": 0.0141,
      "velocity": 100,
      "chip": "ym2612"
    },
    {
      "channel": 1,
      "note": 105,
      "start": 34.2724,
      "duration": 0.0161,
      "velocity": 105,
      "chip": "ym2612"
    },
    {
      "channel": 0,
      "note": 70,
      "start": 34.274,
      "duration": 0.0161,
      "velocity": 127,
      "chip": "ym2612"
    },
    {
      "channel": 4,
      "note": 83,
      "start": 34.2752,
      "duration": 0.0161,
      "velocity": 94,
      "chip": "ym2612"
    },
    {
      "channel": 3,
      "note": 83,
      "start": 34.2764,
      "duration": 0.0161,
      "velocity": 94,
      "chip": "ym2612"
    },
    {
      "channel": 2,
      "note": 48,
      "start": 34.2778,
      "duration": 0.0185,
      "velocity": 100,
      "chip": "ym2612"
    },
    {
      "channel": 1,
      "note": 105,
      "start": 34.2885,
      "duration": 0.0178,
      "velocity": 124,
      "chip": "ym2612"
    },
    {
      "channel": 0,
      "note": 68,
      "start": 34.2902,
      "duration": 0.0196,
      "velocity": 115,
      "chip": "ym2612"
    },
    {
      "channel": 4,
      "note": 83,
      "start": 34.2913,
      "duration": 0.0224,
      "velocity": 94,
      "chip": "ym2612"
    },
    {
      "channel": 3,
      "note": 83,
      "start": 34.2925,
      "duration": 0.0224,
      "velocity": 94,
      "chip": "ym2612"
    },
    {
      "channel": 2,
      "note": 48,
      "start": 34.2963,
      "duration": 0.0199,
      "velocity": 100,
      "chip": "ym2612"
    },
    {
      "channel": 1,
      "note": 64,
      "start": 34.3063,
      "duration": 0.0144,
      "velocity": 124,
      "chip": "ym2612"
    },
    {
      "channel": 0,
      "note": 36,
      "start": 34.3126,
      "duration": 0.0099,
      "velocity": 115,
      "chip": "ym2612"
    },
    {
      "channel": 4,
      "note": 83,
      "start": 34.3137,
      "duration": 0.0099,
      "velocity": 94,
      "chip": "ym2612"
    },
    {
      "channel": 3,
      "note": 83,
      "start": 34.3149,
      "duration": 0.0099,
      "velocity": 94,
      "chip": "ym2612"
    },
    {
      "channel": 2,
      "note": 50,
      "start": 34.3163,
      "duration": 0.0097,
      "velocity": 100,
      "chip": "ym2612"
    },
    {
      "channel": 1,
      "note": 64,
      "start": 34.3208,
      "duration": 0.016,
      "velocity": 124,
      "chip": "ym2612"
    },
    {
      "channel": 0,
      "note": 36,
      "start": 34.3225,
      "duration": 0.016,
      "velocity": 115,
      "chip": "ym2612"
    },
    {
      "channel": 4,
      "note": 83,
      "start": 34.3237,
      "duration": 0.016,
      "velocity": 94,
      "chip": "ym2612"
    },
    {
      "channel": 3,
      "note": 83,
      "start": 34.3248,
      "duration": 0.016,
      "velocity": 94,
      "chip": "ym2612"
    },
    {
      "channel": 2,
      "note": 50,
      "start": 34.326,
      "duration": 0.0159,
      "velocity": 100,
      "chip": "ym2612"
    },
    {
      "channel": 1,
      "note": 64,
      "start": 34.3368,
      "duration": 0.0161,
      "velocity": 124,
      "chip": "ym2612"
    },
    {
      "channel": 0,
      "note": 37,
      "start": 34.3385,
      "duration": 0.0161,
      "velocity": 115,
      "chip": "ym2612"
    },
    {
      "channel": 4,
      "note": 83,
      "start": 34.3397,
      "duration": 0.0161,
      "velocity": 94,
      "chip": "ym2612"
    },
    {
      "channel": 3,
      "note": 83,
      "start": 34.3408,
      "duration": 0.0161,
      "velocity": 94,
      "chip": "ym2612"
    },
    {
      "channel": 2,
      "note": 50,
      "start": 34.3419,
      "duration": 0.0161,
      "velocity": 100,
      "chip": "ym2612"
    },
    {
      "channel": 1,
      "note": 64,
      "start": 34.3529,
      "duration": 0.0161,
      "velocity": 124,
      "chip": "ym2612"
    },
    {
      "channel": 0,
      "note": 37,
      "start": 34.3546,
      "duration": 0.0161,
      "velocity": 115,
      "chip": "ym2612"
    },
    {
      "channel": 4,
      "note": 83,
      "start": 34.3558,
      "duration": 0.0161,
      "velocity": 94,
      "chip": "ym2612"
    },
    {
      "channel": 3,
      "note": 83,
      "start": 34.3569,
      "duration": 0.0161,
      "velocity": 94,
      "chip": "ym2612"
    },
    {
      "channel": 2,
      "note": 50,
      "start": 34.358,
      "duration": 0.0161,
      "velocity": 100,
      "chip": "ym2612"
    },
    {
      "channel": 1,
      "note": 64,
      "start": 34.369,
      "duration": 0.0161,
      "velocity": 124,
      "chip": "ym2612"
    },
    {
      "channel": 0,
      "note": 38,
      "start": 34.3707,
      "duration": 0.0161,
      "velocity": 115,
      "chip": "ym2612"
    },
    {
      "channel": 4,
      "note": 83,
      "start": 34.3719,
      "duration": 0.0161,
      "velocity": 94,
      "chip": "ym2612"
    },
    {
      "channel": 3,
      "note": 83,
      "start": 34.373,
      "duration": 0.0161,
      "velocity": 94,
      "chip": "ym2612"
    },
    {
      "channel": 2,
      "note": 50,
      "start": 34.3741,
      "duration": 0.0161,
      "velocity": 100,
      "chip": "ym2612"
    },
    {
      "channel": 1,
      "note": 64,
      "start": 34.3851,
      "duration": 0.0161,
      "velocity": 124,
      "chip": "ym2612"
    },
    {
      "channel": 0,
      "note": 38,
      "start": 34.3868,
      "duration": 0.0161,
      "velocity": 115,
      "chip": "ym2612"
    },
    {
      "channel": 4,
      "note": 83,
      "start": 34.388,
      "duration": 0.0161,
      "velocity": 94,
      "chip": "ym2612"
    },
    {
      "channel": 3,
      "note": 83,
      "start": 34.3891,
      "duration": 0.0161,
      "velocity": 94,
      "chip": "ym2612"
    },
    {
      "channel": 2,
      "note": 50,
      "start": 34.3902,
      "duration": 0.0162,
      "velocity": 100,
      "chip": "ym2612"
    },
    {
      "channel": 1,
      "note": 64,
      "start": 34.4012,
      "duration": 0.0178,
      "velocity": 105,
      "chip": "ym2612"
    },
    {
      "channel": 0,
      "note": 39,
      "start": 34.4029,
      "duration": 0.0178,
      "velocity": 115,
      "chip": "ym2612"
    },
    {
      "channel": 4,
      "note": 83,
      "start": 34.4041,
      "duration": 0.0181,
      "velocity": 94,
      "chip": "ym2612"
    },
    {
      "channel": 3,
      "note": 83,
      "start": 34.4052,
      "duration": 0.0181,
      "velocity": 94,
      "chip": "ym2612"
    },
    {
      "channel": 2,
      "note": 50,
      "start": 34.4063,
      "duration": 0.0183,
      "velocity": 100,
      "chip": "ym2612"
    },
    {
      "channel": 1,
      "note": 105,
      "start": 34.419,
      "duration": 0.0144,
      "velocity": 105,
      "chip": "ym2612"
    },
    {
      "channel": 0,
      "note": 39,
      "start": 34.4207,
      "duration": 0.0144,
      "velocity": 115,
      "chip": "ym2612"
    },
    {
      "channel": 4,
      "note": 83,
      "start": 34.4221,
      "duration": 0.0142,
      "velocity": 94,
      "chip": "ym2612"
    },
    {
      "channel": 3,
      "note": 83,
      "start": 34.4233,
      "duration": 0.0143,
      "velocity": 94,
      "chip": "ym2612"
    },
    {
      "channel": 2,
      "note": 50,
      "start": 34.4247,
      "duration": 0.0139,
      "velocity": 100,
      "chip": "ym2612"
    },
    {
      "channel": 1,
      "note": 105,
      "start": 34.4334,
      "duration": 0.0161,
      "velocity": 105,
      "chip": "ym2612"
    },
    {
      "channel": 0,
      "note": 40,
      "start": 34.4352,
      "duration": 0.016,
      "velocity": 115,
      "chip": "ym2612"
    },
    {
      "channel": 4,
      "note": 83,
      "start": 34.4364,
      "duration": 0.016,
      "velocity": 94,
      "chip": "ym2612"
    },
    {
      "channel": 3,
      "note": 83,
      "start": 34.4375,
      "duration": 0.016,
      "velocity": 94,
      "chip": "ym2612"
    },
    {
      "channel": 2,
      "note": 50,
      "start": 34.4387,
      "duration": 0.016,
      "velocity": 100,
      "chip": "ym2612"
    },
    {
      "channel": 1,
      "note": 105,
      "start": 34.4495,
      "duration": 0.0161,
      "velocity": 105,
      "chip": "ym2612"
    },
    {
      "channel": 0,
      "note": 40,
      "start": 34.4512,
      "duration": 0.0161,
      "velocity": 115,
      "chip": "ym2612"
    },
    {
      "channel": 4,
      "note": 83,
      "start": 34.4523,
      "duration": 0.0161,
      "velocity": 94,
      "chip": "ym2612"
    },
    {
      "channel": 3,
      "note": 83,
      "start": 34.4535,
      "duration": 0.0161,
      "velocity": 94,
      "chip": "ym2612"
    },
    {
      "channel": 2,
      "note": 50,
      "start": 34.4546,
      "duration": 0.0161,
      "velocity": 100,
      "chip": "ym2612"
    },
    {
      "channel": 1,
      "note": 105,
      "start": 34.4656,
      "duration": 0.0161,
      "velocity": 105,
      "chip": "ym2612"
    },
    {
      "channel": 0,
      "note": 40,
      "start": 34.4673,
      "duration": 0.0161,
      "velocity": 115,
      "chip": "ym2612"
    },
    {
      "channel": 4,
      "note": 83,
      "start": 34.4684,
      "duration": 0.0161,
      "velocity": 94,
      "chip": "ym2612"
    },
    {
      "channel": 3,
      "note": 83,
      "start": 34.4696,
      "duration": 0.0161,
      "velocity": 94,
      "chip": "ym2612"
    },
    {
      "channel": 2,
      "note": 50,
      "start": 34.4707,
      "duration": 0.0161,
      "velocity": 100,
      "chip": "ym2612"
    },
    {
      "channel": 1,
      "note": 105,
      "start": 34.4817,
      "duration": 0.0161,
      "velocity": 105,
      "chip": "ym2612"
    },
    {
      "channel": 0,
      "note": 41,
      "start": 34.4834,
      "duration": 0.0161,
      "velocity": 115,
      "chip": "ym2612"
    },
    {
      "channel": 4,
      "note": 83,
      "start": 34.4845,
      "duration": 0.0161,
      "velocity": 94,
      "chip": "ym2612"
    },
    {
      "channel": 3,
      "note": 83,
      "start": 34.4857,
      "duration": 0.0161,
      "velocity": 94,
      "chip": "ym2612"
    },
    {
      "channel": 2,
      "note": 50,
      "start": 34.4868,
      "duration": 0.0161,
      "velocity": 100,
      "chip": "ym2612"
    },
    {
      "channel": 1,
      "note": 105,
      "start": 34.4978,
      "duration": 0.0162,
      "velocity": 105,
      "chip": "ym2612"
    },
    {
      "channel": 0,
      "note": 41,
      "start": 34.4995,
      "duration": 0.0162,
      "velocity": 115,
      "chip": "ym2612"
    },
    {
      "channel": 4,
      "note": 83,
      "start": 34.5006,
      "duration": 0.0162,
      "velocity": 94,
      "chip": "ym2612"
    },
    {
      "channel": 3,
      "note": 83,
      "start": 34.5018,
      "duration": 0.0162,
      "velocity": 94,
      "chip": "ym2612"
    },
    {
      "channel": 2,
      "note": 50,
      "start": 34.5029,
      "duration": 0.0162,
      "velocity": 100,
      "chip": "ym2612"
    },
    {
      "channel": 1,
      "note": 105,
      "start": 34.514,
      "duration": 0.018,
      "velocity": 124,
      "chip": "ym2612"
    },
    {
      "channel": 0,
      "note": 42,
      "start": 34.5156,
      "duration": 0.018,
      "velocity": 115,
      "chip": "ym2612"
    },
    {
      "channel": 4,
      "note": 83,
      "start": 34.5168,
      "duration": 0.0181,
      "velocity": 94,
      "chip": "ym2612"
    },
    {
      "channel": 3,
      "note": 83,
      "start": 34.5179,
      "duration": 0.0183,
      "velocity": 94,
      "chip": "ym2612"
    },
    {
      "channel": 2,
      "note": 50,
      "start": 34.5191,
      "duration": 0.0186,
      "velocity": 100,
      "chip": "ym2612"
    },
    {
      "channel": 1,
      "note": 64,
      "start": 34.532,
      "duration": 0.0142,
      "velocity": 124,
      "chip": "ym2612"
    },
    {
      "channel": 0,
      "note": 42,
      "start": 34.5337,
      "duration": 0.0142,
      "velocity": 115,
      "chip": "ym2612"
    },
    {
      "channel": 4,
      "note": 83,
      "start": 34.5349,
      "duration": 0.0142,
      "velocity": 94,
      "chip": "ym2612"
    },
    {
      "channel": 3,
      "note": 83,
      "start": 34.5362,
      "duration": 0.014,
      "velocity": 94,
      "chip": "ym2612"
    },
    {
      "channel": 2,
      "note": 50,
      "start": 34.5377,
      "duration": 0.0137,
      "velocity": 100,
      "chip": "ym2612"
    },
    {
      "channel": 1,
      "note": 64,
      "start": 34.5462,
      "duration": 0.0178,
      "velocity": 124,
      "chip": "ym2612"
    },
    {
      "channel": 0,
      "note": 43,
      "start": 34.5479,
      "duration": 0.0178,
      "velocity": 115,
      "chip": "ym2612"
    },
    {
      "channel": 4,
      "note": 83,
      "start": 34.549,
      "duration": 0.0178,
      "velocity": 94,
      "chip": "ym2612"
    },
    {
      "channel": 3,
      "note": 83,
      "start": 34.5502,
      "duration": 0.0177,
      "velocity": 94,
      "chip": "ym2612"
    },
    {
      "channel": 2,
      "note": 50,
      "start": 34.5514,
      "duration": 0.0177,
      "velocity": 100,
      "chip": "ym2612"
    },
    {
      "channel": 1,
      "note": 64,
      "start": 34.564,
      "duration": 0.0167,
      "velocity": 124,
      "chip": "ym2612"
    },
    {
      "channel": 0,
      "note": 43,
      "start": 34.5656,
      "duration": 0.0167,
      "velocity": 115,
      "chip": "ym2612"
    },
    {
      "channel": 4,
      "note": 83,
      "start": 34.5668,
      "duration": 0.0167,
      "velocity": 94,
      "chip": "ym2612"
    },
    {
      "channel": 3,
      "note": 83,
      "start": 34.5679,
      "duration": 0.0167,
      "velocity": 94,
      "chip": "ym2612"
    },
    {
      "channel": 2,
      "note": 50,
      "start": 34.5691,
      "duration": 0.0167,
      "velocity": 100,
      "chip": "ym2612"
    },
    {
      "channel": 1,
      "note": 64,
      "start": 34.5807,
      "duration": 0.0161,
      "velocity": 124,
      "chip": "ym2612"
    },
    {
      "channel": 0,
      "note": 44,
      "start": 34.5823,
      "duration": 0.0162,
      "velocity": 115,
      "chip": "ym2612"
    },
    {
      "channel": 4,
      "note": 83,
      "start": 34.5834,
      "duration": 0.0162,
      "velocity": 94,
      "chip": "ym2612"
    },
    {
      "channel": 3,
      "note": 83,
      "start": 34.5846,
      "duration": 0.0162,
      "velocity": 94,
      "chip": "ym2612"
    },
    {
      "channel": 2,
      "note": 50,
      "start": 34.5857,
      "duration": 0.0162,
      "velocity": 100,
      "chip": "ym2612"
    },
    {
      "channel": 1,
      "note": 64,
      "start": 34.5968,
      "duration": 0.0141,
      "velocity": 124,
      "chip": "ym2612"
    },
    {
      "channel": 0,
      "note": 44,
      "start": 34.5985,
      "duration": 0.014,
      "velocity": 115,
      "chip": "ym2612"
    },
    {
      "channel": 4,
      "note": 83,
      "start": 34.5997,
      "duration": 0.014,
      "velocity": 94,
      "chip": "ym2612"
    },
    {
      "channel": 3,
      "note": 83,
      "start": 34.6008,
      "duration": 0.014,
      "velocity": 94,
      "chip": "ym2612"
    },
    {
      "channel": 2,
      "note": 50,
      "start": 34.602,
      "duration": 0.014,
      "velocity": 100,
      "chip": "ym2612"
    },
    {
      "channel": 1,
      "note": 64,
      "start": 34.6109,
      "duration": 0.0185,
      "velocity": 124,
      "chip": "ym2612"
    },
    {
      "channel": 0,
      "note": 44,
      "start": 34.6125,
      "duration": 0.0185,
      "velocity": 115,
      "chip": "ym2612"
    },
    {
      "channel": 4,
      "note": 83,
      "start": 34.6137,
      "duration": 0.0186,
      "velocity": 94,
      "chip": "ym2612"
    },
    {
      "channel": 3,
      "note": 83,
      "start": 34.6148,
      "duration": 0.0186,
      "velocity": 94,
      "chip": "ym2612"
    },
    {
      "channel": 2,
      "note": 50,
      "start": 34.616,
      "duration": 0.0185,
      "velocity": 100,
      "chip": "ym2612"
    },
    {
      "channel": 1,
      "note": 64,
      "start": 34.6294,
      "duration": 0.0178,
      "velocity": 105,
      "chip": "ym2612"
    },
    {
      "channel": 0,
      "note": 45,
      "start": 34.631,
      "duration": 0.0178,
      "velocity": 115,
      "chip": "ym2612"
    },
    {
      "channel": 4,
      "note": 83,
      "start": 34.6322,
      "duration": 0.0178,
      "velocity": 94,
      "chip": "ym2612"
    },
    {
      "channel": 3,
      "note": 83,
      "start": 34.6334,
      "duration": 0.0178,
      "velocity": 94,
      "chip": "ym2612"
    },
    {
      "channel": 2,
      "note": 50,
      "start": 34.6345,
      "duration": 0.0181,
      "velocity": 100,
      "chip": "ym2612"
    },
    {
      "channel": 1,
      "note": 105,
      "start": 34.6472,
      "duration": 0.0117,
      "velocity": 105,
      "chip": "ym2612"
    },
    {
      "channel": 0,
      "note": 45,
      "start": 34.6488,
      "duration": 0.0141,
      "velocity": 115,
      "chip": "ym2612"
    },
    {
      "channel": 4,
      "note": 83,
      "start": 34.65,
      "duration": 0.0141,
      "velocity": 94,
      "chip": "ym2612"
    },
    {
      "channel": 3,
      "note": 83,
      "start": 34.6512,
      "duration": 0.0141,
      "velocity": 94,
      "chip": "ym2612"
    },
    {
      "channel": 2,
      "note": 50,
      "start": 34.6526,
      "duration": 0.0139,
      "velocity": 100,
      "chip": "ym2612"
    },
    {
      "channel": 1,
      "note": 105,
      "start": 34.6589,
      "duration": 0.016,
      "velocity": 105,
      "chip": "ym2612"
    },
    {
      "channel": 0,
      "note": 46,
      "start": 34.663,
      "duration": 0.0139,
      "velocity": 115,
      "chip": "ym2612"
    },
    {
      "channel": 4,
      "note": 83,
      "start": 34.6641,
      "duration": 0.014,
      "velocity": 94,
      "chip": "ym2612"
    },
    {
      "channel": 3,
      "note": 83,
      "start": 34.6653,
      "duration": 0.014,
      "velocity": 94,
      "chip": "ym2612"
    },
    {
      "channel": 2,
      "note": 50,
      "start": 34.6665,
      "duration": 0.0139,
      "velocity": 100,
      "chip": "ym2612"
    },
    {
      "channel": 1,
      "note": 105,
      "start": 34.6749,
      "duration": 0.0161,
      "velocity": 105,
      "chip": "ym2612"
    },
    {
      "channel": 0,
      "note": 46,
      "start": 34.6769,
      "duration": 0.0158,
      "velocity": 115,
      "chip": "ym2612"
    },
    {
      "channel": 4,
      "note": 83,
      "start": 34.6781,
      "duration": 0.0185,
      "velocity": 94,
      "chip": "ym2612"
    },
    {
      "channel": 3,
      "note": 83,
      "start": 34.6793,
      "duration": 0.0185,
      "velocity": 94,
      "chip": "ym2612"
    },
    {
      "channel": 2,
      "note": 50,
      "start": 34.6803,
      "duration": 0.0186,
      "velocity": 100,
      "chip": "ym2612"
    },
    {
      "channel": 1,
      "note": 105,
      "start": 34.691,
      "duration": 0.0161,
      "velocity": 105,
      "chip": "ym2612"
    },
    {
      "channel": 0,
      "note": 47,
      "start": 34.6927,
      "duration": 0.0161,
      "velocity": 115,
      "chip": "ym2612"
    },
    {
      "channel": 4,
      "note": 83,
      "start": 34.6966,
      "duration": 0.0161,
      "velocity": 94,
      "chip": "ym2612"
    },
    {
      "channel": 3,
      "note": 83,
      "start": 34.6978,
      "duration": 0.0161,
      "velocity": 94,
      "chip": "ym2612"
    },
    {
      "channel": 2,
      "note": 50,
      "start": 34.6989,
      "duration": 0.0161,
      "velocity": 100,
      "chip": "ym2612"
    },
    {
      "channel": 1,
      "note": 105,
      "start": 34.7071,
      "duration": 0.0161,
      "velocity": 105,
      "chip": "ym2612"
    },
    {
      "channel": 0,
      "note": 47,
      "start": 34.7088,
      "duration": 0.0161,
      "velocity": 115,
      "chip": "ym2612"
    },
    {
      "channel": 4,
      "note": 83,
      "start": 34.7127,
      "duration": 0.0134,
      "velocity": 94,
      "chip": "ym2612"
    },
    {
      "channel": 3,
      "note": 83,
      "start": 34.7139,
      "duration": 0.0157,
      "velocity": 94,
      "chip": "ym2612"
    },
    {
      "channel": 2,
      "note": 50,
      "start": 34.715,
      "duration": 0.0157,
      "velocity": 100,
      "chip": "ym2612"
    },
    {
      "channel": 1,
      "note": 105,
      "start": 34.7232,
      "duration": 0.0162,
      "velocity": 105,
      "chip": "ym2612"
    },
    {
      "channel": 0,
      "note": 47,
      "start": 34.7249,
      "duration": 0.0162,
      "velocity": 115,
      "chip": "ym2612"
    },
    {
      "channel": 4,
      "note": 83,
      "start": 34.7261,
      "duration": 0.0161,
      "velocity": 94,
      "chip": "ym2612"
    },
    {
      "channel": 3,
      "note": 83,
      "start": 34.7296,
      "duration": 0.0141,
      "velocity": 94,
      "chip": "ym2612"
    },
    {
      "channel": 2,
      "note": 50,
      "start": 34.7307,
      "duration": 0.0141,
      "velocity": 100,
      "chip": "ym2612"
    },
    {
      "channel": 1,
      "note": 105,
      "start": 34.7394,
      "duration": 0.0183,
      "velocity": 124,
      "chip": "ym2612"
    },
    {
      "channel": 0,
      "note": 48,
      "start": 34.741,
      "duration": 0.0219,
      "velocity": 115,
      "chip": "ym2612"
    },
    {
      "channel": 4,
      "note": 83,
      "start": 34.7422,
      "duration": 0.0219,
      "velocity": 94,
      "chip": "ym2612"
    },
    {
      "channel": 3,
      "note": 83,
      "start": 34.7437,
      "duration": 0.0215,
      "velocity": 94,
      "chip": "ym2612"
    },
    {
      "channel": 2,
      "note": 50,
      "start": 34.7448,
      "duration": 0.0218,
      "velocity": 100,
      "chip": "ym2612"
    },
    {
      "channel": 1,
      "note": 78,
      "start": 34.7578,
      "duration": 0.0144,
      "velocity": 124,
      "chip": "ym2612"
    },
    {
      "channel": 0,
      "note": 48,
      "start": 34.7629,
      "duration": 0.0111,
      "velocity": 115,
      "chip": "ym2612"
    },
    {
      "channel": 4,
      "note": 83,
      "start": 34.764,
      "duration": 0.0111,
      "velocity": 94,
      "chip": "ym2612"
    },
    {
      "channel": 3,
      "note": 83,
      "start": 34.7652,
      "duration": 0.0111,
      "velocity": 94,
      "chip": "ym2612"
    },
    {
      "channel": 2,
      "note": 50,
      "start": 34.7666,
      "duration": 0.0136,
      "velocity": 100,
      "chip": "ym2612"
    },
    {
      "channel": 1,
      "note": 76,
      "start": 34.7721,
      "duration": 0.016,
      "velocity": 124,
      "chip": "ym2612"
    },
    {
      "channel": 0,
      "note": 49,
      "start": 34.774,
      "duration": 0.0152,
      "velocity": 1,
      "chip": "ym2612"
    },
    {
      "channel": 4,
      "note": 83,
      "start": 34.7752,
      "duration": 0.0152,
      "velocity": 94,
      "chip": "ym2612"
    },
    {
      "channel": 3,
      "note": 83,
      "start": 34.7763,
      "duration": 0.0152,
      "velocity": 94,
      "chip": "ym2612"
    },
    {
      "channel": 2,
      "note": 50,
      "start": 34.7803,
      "duration": 0.0124,
      "velocity": 100,
      "chip": "ym2612"
    },
    {
      "channel": 1,
      "note": 75,
      "start": 34.7882,
      "duration": 0.0161,
      "velocity": 124,
      "chip": "ym2612"
    },
    {
      "channel": 4,
      "note": 83,
      "start": 34.7904,
      "duration": 0.0153,
      "velocity": 94,
      "chip": "ym2612"
    },
    {
      "channel": 3,
      "note": 83,
      "start": 34.7915,
      "duration": 0.0153,
      "velocity": 94,
      "chip": "ym2612"
    },
    {
      "channel": 2,
      "note": 50,
      "start": 34.7927,
      "duration": 0.0152,
      "velocity": 100,
      "chip": "ym2612"
    },
    {
      "channel": 1,
      "note": 74,
      "start": 34.8042,
      "duration": 0.0161,
      "velocity": 124,
      "chip": "ym2612"
    },
    {
      "channel": 4,
      "note": 83,
      "start": 34.8056,
      "duration": 0.0161,
      "velocity": 94,
      "chip": "ym2612"
    },
    {
      "channel": 3,
      "note": 83,
      "start": 34.8068,
      "duration": 0.0161,
      "velocity": 94,
      "chip": "ym2612"
    },
    {
      "channel": 2,
      "note": 50,
      "start": 34.8079,
      "duration": 0.0162,
      "velocity": 100,
      "chip": "ym2612"
    },
    {
      "channel": 1,
      "note": 72,
      "start": 34.8203,
      "duration": 0.0161,
      "velocity": 124,
      "chip": "ym2612"
    },
    {
      "channel": 4,
      "note": 83,
      "start": 34.8217,
      "duration": 0.0161,
      "velocity": 94,
      "chip": "ym2612"
    },
    {
      "channel": 3,
      "note": 83,
      "start": 34.8229,
      "duration": 0.0161,
      "velocity": 94,
      "chip": "ym2612"
    },
    {
      "channel": 2,
      "note": 50,
      "start": 34.824,
      "duration": 0.0161,
      "velocity": 100,
      "chip": "ym2612"
    },
    {
      "channel": 1,
      "note": 71,
      "start": 34.8364,
      "duration": 0.0161,
      "velocity": 124,
      "chip": "ym2612"
    },
    {
      "channel": 4,
      "note": 83,
      "start": 34.8378,
      "duration": 0.0161,
      "velocity": 94,
      "chip": "ym2612"
    },
    {
      "channel": 3,
      "note": 83,
      "start": 34.839,
      "duration": 0.0161,
      "velocity": 94,
      "chip": "ym2612"
    },
    {
      "channel": 2,
      "note": 50,
      "start": 34.8401,
      "duration": 0.0161,
      "velocity": 100,
      "chip": "ym2612"
    },
    {
      "channel": 1,
      "note": 70,
      "start": 34.8525,
      "duration": 0.0161,
      "velocity": 124,
      "chip": "ym2612"
    },
    {
      "channel": 4,
      "note": 83,
      "start": 34.8539,
      "duration": 0.0169,
      "velocity": 94,
      "chip": "ym2612"
    },
    {
      "channel": 3,
      "note": 83,
      "start": 34.8551,
      "duration": 0.0168,
      "velocity": 94,
      "chip": "ym2612"
    },
    {
      "channel": 2,
      "note": 50,
      "start": 34.8562,
      "duration": 0.0171,
      "velocity": 100,
      "chip": "ym2612"
    },
    {
      "channel": 1,
      "note": 69,
      "start": 34.8686,
      "duration": 0.0161,
      "velocity": 124,
      "chip": "ym2612"
    },
    {
      "channel": 4,
      "note": 84,
      "start": 34.8708,
      "duration": 0.0154,
      "velocity": 94,
      "chip": "ym2612"
    },
    {
      "channel": 3,
      "note": 83,
      "start": 34.8719,
      "duration": 0.0155,
      "velocity": 94,
      "chip": "ym2612"
    },
    {
      "channel": 2,
      "note": 50,
      "start": 34.8734,
      "duration": 0.0151,
      "velocity": 100,
      "chip": "ym2612"
    },
    {
      "channel": 1,
      "note": 68,
      "start": 34.8847,
      "duration": 0.0161,
      "velocity": 124,
      "chip": "ym2612"
    },
    {
      "channel": 4,
      "note": 84,
      "start": 34.8862,
      "duration": 0.016,
      "velocity": 94,
      "chip": "ym2612"
    },
    {
      "channel": 3,
      "note": 83,
      "start": 34.8874,
      "duration": 0.016,
      "velocity": 94,
      "chip": "ym2612"
    },
    {
      "channel": 2,
      "note": 50,
      "start": 34.8885,
      "duration": 0.016,
      "velocity": 100,
      "chip": "ym2612"
    },
    {
      "channel": 1,
      "note": 66,
      "start": 34.9008,
      "duration": 0.0161,
      "velocity": 124,
      "chip": "ym2612"
    },
    {
      "channel": 4,
      "note": 84,
      "start": 34.9022,
      "duration": 0.0161,
      "velocity": 94,
      "chip": "ym2612"
    },
    {
      "channel": 3,
      "note": 83,
      "start": 34.9034,
      "duration": 0.0161,
      "velocity": 94,
      "chip": "ym2612"
    },
    {
      "channel": 2,
      "note": 50,
      "start": 34.9045,
      "duration": 0.0161,
      "velocity": 100,
      "chip": "ym2612"
    },
    {
      "channel": 1,
      "note": 65,
      "start": 34.9169,
      "duration": 0.0161,
      "velocity": 124,
      "chip": "ym2612"
    },
    {
      "channel": 4,
      "note": 84,
      "start": 34.9183,
      "duration": 0.0161,
      "velocity": 94,
      "chip": "ym2612"
    },
    {
      "channel": 3,
      "note": 83,
      "start": 34.9195,
      "duration": 0.0161,
      "velocity": 94,
      "chip": "ym2612"
    },
    {
      "channel": 2,
      "note": 50,
      "start": 34.9206,
      "duration": 0.0161,
      "velocity": 100,
      "chip": "ym2612"
    },
    {
      "channel": 1,
      "note": 64,
      "start": 34.9331,
      "duration": 0.0161,
      "velocity": 124,
      "chip": "ym2612"
    },
    {
      "channel": 4,
      "note": 84,
      "start": 34.9344,
      "duration": 0.0161,
      "velocity": 94,
      "chip": "ym2612"
    },
    {
      "channel": 3,
      "note": 83,
      "start": 34.9356,
      "duration": 0.0161,
      "velocity": 94,
      "chip": "ym2612"
    },
    {
      "channel": 2,
      "note": 50,
      "start": 34.9367,
      "duration": 0.0161,
      "velocity": 100,
      "chip": "ym2612"
    },
    {
      "channel": 1,
      "note": 62,
      "start": 34.9492,
      "duration": 0.0161,
      "velocity": 124,
      "chip": "ym2612"
    },
    {
      "channel": 4,
      "note": 84,
      "start": 34.9505,
      "duration": 0.0161,
      "velocity": 94,
      "chip": "ym2612"
    },
    {
      "channel": 3,
      "note": 83,
      "start": 34.9516,
      "duration": 0.0162,
      "velocity": 94,
      "chip": "ym2612"
    },
    {
      "channel": 2,
      "note": 50,
      "start": 34.9528,
      "duration": 0.0161,
      "velocity": 100,
      "chip": "ym2612"
    },
    {
      "channel": 1,
      "note": 61,
      "start": 34.9653,
      "duration": 0.0161,
      "velocity": 124,
      "chip": "ym2612"
    },
    {
      "channel": 4,
      "note": 84,
      "start": 34.9666,
      "duration": 0.0166,
      "velocity": 94,
      "chip": "ym2612"
    },
    {
      "channel": 3,
      "note": 83,
      "start": 34.9678,
      "duration": 0.0168,
      "velocity": 94,
      "chip": "ym2612"
    },
    {
      "channel": 2,
      "note": 50,
      "start": 34.9689,
      "duration": 0.0172,
      "velocity": 100,
      "chip": "ym2612"
    },
    {
      "channel": 1,
      "note": 60,
      "start": 34.9813,
      "duration": 0.0162,
      "velocity": 124,
      "chip": "ym2612"
    },
    {
      "channel": 4,
      "note": 84,
      "start": 34.9833,
      "duration": 0.0156,
      "velocity": 94,
      "chip": "ym2612"
    },
    {
      "channel": 3,
      "note": 84,
      "start": 34.9846,
      "duration": 0.0155,
      "velocity": 94,
      "chip": "ym2612"
    },
    {
      "channel": 2,
      "note": 50,
      "start": 34.9861,
      "duration": 0.0152,
      "velocity": 100,
      "chip": "ym2612"
    },
    {
      "channel": 1,
      "note": 59,
      "start": 34.9975,
      "duration": 0.016,
      "velocity": 124,
      "chip": "ym2612"
    },
    {
      "channel": 4,
      "note": 84,
      "start": 34.9989,
      "duration": 0.016,
      "velocity": 94,
      "chip": "ym2612"
    },
    {
      "channel": 3,
      "note": 84,
      "start": 35.0001,
      "duration": 0.016,
      "velocity": 94,
      "chip": "ym2612"
    },
    {
      "channel": 2,
      "note": 50,
      "start": 35.0013,
      "duration": 0.0159,
      "velocity": 100,
      "chip": "ym2612"
    },
    {
      "channel": 1,
      "note": 57,
      "start": 35.0135,
      "duration": 0.0176,
      "velocity": 124,
      "chip": "ym2612"
    },
    {
      "channel": 4,
      "note": 84,
      "start": 35.0149,
      "duration": 0.0176,
      "velocity": 94,
      "chip": "ym2612"
    },
    {
      "channel": 3,
      "note": 84,
      "start": 35.0161,
      "duration": 0.0176,
      "velocity": 94,
      "chip": "ym2612"
    },
    {
      "channel": 2,
      "note": 50,
      "start": 35.0172,
      "duration": 0.0176,
      "velocity": 100,
      "chip": "ym2612"
    },
    {
      "channel": 1,
      "note": 56,
      "start": 35.0312,
      "duration": 0.0166,
      "velocity": 124,
      "chip": "ym2612"
    },
    {
      "channel": 4,
      "note": 84,
      "start": 35.0325,
      "duration": 0.0167,
      "velocity": 94,
      "chip": "ym2612"
    },
    {
      "channel": 3,
      "note": 84,
      "start": 35.0336,
      "duration": 0.0167,
      "velocity": 94,
      "chip": "ym2612"
    },
    {
      "channel": 2,
      "note": 50,
      "start": 35.0348,
      "duration": 0.0167,
      "velocity": 100,
      "chip": "ym2612"
    },
    {
      "channel": 1,
      "note": 55,
      "start": 35.0478,
      "duration": 0.0163,
      "velocity": 124,
      "chip": "ym2612"
    },
    {
      "channel": 4,
      "note": 84,
      "start": 35.0492,
      "duration": 0.0163,
      "velocity": 94,
      "chip": "ym2612"
    },
    {
      "channel": 3,
      "note": 84,
      "start": 35.0503,
      "duration": 0.0163,
      "velocity": 94,
      "chip": "ym2612"
    },
    {
      "channel": 2,
      "note": 50,
      "start": 35.0515,
      "duration": 0.0163,
      "velocity": 100,
      "chip": "ym2612"
    },
    {
      "channel": 1,
      "note": 53,
      "start": 35.0641,
      "duration": 0.0142,
      "velocity": 124,
      "chip": "ym2612"
    },
    {
      "channel": 4,
      "note": 84,
      "start": 35.0655,
      "duration": 0.0142,
      "velocity": 94,
      "chip": "ym2612"
    },
    {
      "channel": 3,
      "note": 84,
      "start": 35.0666,
      "duration": 0.0142,
      "velocity": 94,
      "chip": "ym2612"
    },
    {
      "channel": 2,
      "note": 50,
      "start": 35.0677,
      "duration": 0.0142,
      "velocity": 100,
      "chip": "ym2612"
    },
    {
      "channel": 1,
      "note": 52,
      "start": 35.0783,
      "duration": 0.0185,
      "velocity": 124,
      "chip": "ym2612"
    },
    {
      "channel": 4,
      "note": 84,
      "start": 35.0797,
      "duration": 0.0227,
      "velocity": 94,
      "chip": "ym2612"
    },
    {
      "channel": 3,
      "note": 84,
      "start": 35.0808,
      "duration": 0.0227,
      "velocity": 94,
      "chip": "ym2612"
    },
    {
      "channel": 2,
      "note": 50,
      "start": 35.0819,
      "duration": 0.023,
      "velocity": 100,
      "chip": "ym2612"
    },
    {
      "channel": 1,
      "note": 51,
      "start": 35.0968,
      "duration": 0.0125,
      "velocity": 1,
      "chip": "ym2612"
    },
    {
      "channel": 0,
      "note": 36,
      "start": 35.101,
      "duration": 0.015,
      "velocity": 115,
      "chip": "ym2612"
    },
    {
      "channel": 4,
      "note": 81,
      "start": 35.1024,
      "duration": 0.0148,
      "velocity": 94,
      "chip": "ym2612"
    },
    {
      "channel": 3,
      "note": 84,
      "start": 35.1035,
      "duration": 0.0148,
      "velocity": 94,
      "chip": "ym2612"
    },
    {
      "channel": 2,
      "note": 50,
      "start": 35.105,
      "duration": 0.0146,
      "velocity": 100,
      "chip": "ym2612"
    },
    {
      "channel": 1,
      "note": 51,
      "start": 35.1143,
      "duration": 0.0115,
      "velocity": 105,
      "chip": "ym2612"
    },
    {
      "channel": 0,
      "note": 36,
      "start": 35.116,
      "duration": 0.0138,
      "velocity": 115,
      "chip": "ym2612"
    },
    {
      "channel": 4,
      "note": 81,
      "start": 35.1172,
      "duration": 0.0137,
      "velocity": 94,
      "chip": "ym2612"
    },
    {
      "channel": 3,
      "note": 84,
      "start": 35.1184,
      "duration": 0.0137,
      "velocity": 94,
      "chip": "ym2612"
    },
    {
      "channel": 2,
      "note": 50,
      "start": 35.1196,
      "duration": 0.0137,
      "velocity": 100,
      "chip": "ym2612"
    },
    {
      "channel": 1,
      "note": 105,
      "start": 35.1258,
      "duration": 0.0161,
      "velocity": 105,
      "chip": "ym2612"
    },
    {
      "channel": 0,
      "note": 37,
      "start": 35.1298,
      "duration": 0.0141,
      "velocity": 115,
      "chip": "ym2612"
    },
    {
      "channel": 4,
      "note": 81,
      "start": 35.131,
      "duration": 0.0141,
      "velocity": 94,
      "chip": "ym2612"
    },
    {
      "channel": 3,
      "note": 84,
      "start": 35.1321,
      "duration": 0.0141,
      "velocity": 94,
      "chip": "ym2612"
    },
    {
      "channel": 2,
      "note": 50,
      "start": 35.1333,
      "duration": 0.0141,
      "velocity": 100,
      "chip": "ym2612"
    },
    {
      "channel": 1,
      "note": 105,
      "start": 35.1418,
      "duration": 0.0161,
      "velocity": 105,
      "chip": "ym2612"
    },
    {
      "channel": 0,
      "note": 37,
      "start": 35.1439,
      "duration": 0.0157,
      "velocity": 115,
      "chip": "ym2612"
    },
    {
      "channel": 4,
      "note": 81,
      "start": 35.145,
      "duration": 0.0185,
      "velocity": 94,
      "chip": "ym2612"
    },
    {
      "channel": 3,
      "note": 84,
      "start": 35.1462,
      "duration": 0.0185,
      "velocity": 94,
      "chip": "ym2612"
    },
    {
      "channel": 2,
      "note": 50,
      "start": 35.1473,
      "duration": 0.0185,
      "velocity": 100,
      "chip": "ym2612"
    },
    {
      "channel": 1,
      "note": 105,
      "start": 35.1579,
      "duration": 0.0161,
      "velocity": 105,
      "chip": "ym2612"
    },
    {
      "channel": 0,
      "note": 38,
      "start": 35.1596,
      "duration": 0.0161,
      "velocity": 115,
      "chip": "ym2612"
    },
    {
      "channel": 4,
      "note": 81,
      "start": 35.1635,
      "duration": 0.0161,
      "velocity": 94,
      "chip": "ym2612"
    },
    {
      "channel": 3,
      "note": 84,
      "start": 35.1647,
      "duration": 0.0161,
      "velocity": 94,
      "chip": "ym2612"
    },
    {
      "channel": 2,
      "note": 50,
      "start": 35.1658,
      "duration": 0.0161,
      "velocity": 100,
      "chip": "ym2612"
    },
    {
      "channel": 1,
      "note": 105,
      "start": 35.174,
      "duration": 0.0161,
      "velocity": 105,
      "chip": "ym2612"
    },
    {
      "channel": 0,
      "note": 38,
      "start": 35.1757,
      "duration": 0.0161,
      "velocity": 115,
      "chip": "ym2612"
    },
    {
      "channel": 4,
      "note": 81,
      "start": 35.1796,
      "duration": 0.0134,
      "velocity": 94,
      "chip": "ym2612"
    },
    {
      "channel": 3,
      "note": 84,
      "start": 35.1808,
      "duration": 0.0158,
      "velocity": 94,
      "chip": "ym2612"
    },
    {
      "channel": 2,
      "note": 50,
      "start": 35.1819,
      "duration": 0.0158,
      "velocity": 100,
      "chip": "ym2612"
    },
    {
      "channel": 1,
      "note": 105,
      "start": 35.1902,
      "duration": 0.0178,
      "velocity": 124,
      "chip": "ym2612"
    },
    {
      "channel": 0,
      "note": 39,
      "start": 35.1918,
      "duration": 0.0199,
      "velocity": 115,
      "chip": "ym2612"
    },
    {
      "channel": 4,
      "note": 81,
      "start": 35.193,
      "duration": 0.02,
      "velocity": 94,
      "chip": "ym2612"
    },
    {
      "channel": 3,
      "note": 84,
      "start": 35.1966,
      "duration": 0.0178,
      "velocity": 94,
      "chip": "ym2612"
    },
    {
      "channel": 2,
      "note": 50,
      "start": 35.1977,
      "duration": 0.0181,
      "velocity": 100,
      "chip": "ym2612"
    },
    {
      "channel": 1,
      "note": 64,
      "start": 35.208,
      "duration": 0.0144,
      "velocity": 124,
      "chip": "ym2612"
    },
    {
      "channel": 0,
      "note": 36,
      "start": 35.2118,
      "duration": 0.0123,
      "velocity": 115,
      "chip": "ym2612"
    },
    {
      "channel": 4,
      "note": 81,
      "start": 35.213,
      "duration": 0.0123,
      "velocity": 94,
      "chip": "ym2612"
    },
    {
      "channel": 3,
      "note": 81,
      "start": 35.2144,
      "duration": 0.0149,
      "velocity": 94,
      "chip": "ym2612"
    },
    {
      "channel": 2,
      "note": 50,
      "start": 35.2158,
      "duration": 0.0146,
      "velocity": 100,
      "chip": "ym2612"
    },
    {
      "channel": 1,
      "note": 64,
      "start": 35.2224,
      "duration": 0.016,
      "velocity": 124,
      "chip": "ym2612"
    },
    {
      "channel": 0,
      "note": 36,
      "start": 35.2241,
      "duration": 0.016,
      "velocity": 115,
      "chip": "ym2612"
    },
    {
      "channel": 4,
      "note": 81,
      "start": 35.2253,
      "duration": 0.016,
      "velocity": 94,
      "chip": "ym2612"
    },
    {
      "channel": 3,
      "note": 81,
      "start": 35.2293,
      "duration": 0.0132,
      "velocity": 94,
      "chip": "ym2612"
    },
    {
      "channel": 2,
      "note": 50,
      "start": 35.2305,
      "duration": 0.0159,
      "velocity": 100,
      "chip": "ym2612"
    },
    {
      "channel": 1,
      "note": 64,
      "start": 35.2385,
      "duration": 0.0161,
      "velocity": 124,
      "chip": "ym2612"
    },
    {
      "channel": 0,
      "note": 37,
      "start": 35.2401,
      "duration": 0.0161,
      "velocity": 115,
      "chip": "ym2612"
    },
    {
      "channel": 4,
      "note": 81,
      "start": 35.2413,
      "duration": 0.0161,
      "velocity": 94,
      "chip": "ym2612"
    },
    {
      "channel": 3,
      "note": 81,
      "start": 35.2425,
      "duration": 0.0161,
      "velocity": 94,
      "chip": "ym2612"
    },
    {
      "channel": 2,
      "note": 50,
      "start": 35.2463,
      "duration": 0.0133,
      "velocity": 100,
      "chip": "ym2612"
    },
    {
      "channel": 1,
      "note": 64,
      "start": 35.2546,
      "duration": 0.0161,
      "velocity": 124,
      "chip": "ym2612"
    },
    {
      "channel": 0,
      "note": 37,
      "start": 35.2562,
      "duration": 0.0161,
      "velocity": 115,
      "chip": "ym2612"
    },
    {
      "channel": 4,
      "note": 81,
      "start": 35.2574,
      "duration": 0.0161,
      "velocity": 94,
      "chip": "ym2612"
    },
    {
      "channel": 3,
      "note": 81,
      "start": 35.2586,
      "duration": 0.0161,
      "velocity": 94,
      "chip": "ym2612"
    },
    {
      "channel": 2,
      "note": 50,
      "start": 35.2597,
      "duration": 0.0161,
      "velocity": 100,
      "chip": "ym2612"
    },
    {
      "channel": 1,
      "note": 64,
      "start": 35.2707,
      "duration": 0.0161,
      "velocity": 124,
      "chip": "ym2612"
    },
    {
      "channel": 0,
      "note": 38,
      "start": 35.2723,
      "duration": 0.0162,
      "velocity": 115,
      "chip": "ym2612"
    },
    {
      "channel": 4,
      "note": 81,
      "start": 35.2735,
      "duration": 0.0161,
      "velocity": 94,
      "chip": "ym2612"
    },
    {
      "channel": 3,
      "note": 81,
      "start": 35.2747,
      "duration": 0.0161,
      "velocity": 94,
      "chip": "ym2612"
    },
    {
      "channel": 2,
      "note": 50,
      "start": 35.2758,
      "duration": 0.0161,
      "velocity": 100,
      "chip": "ym2612"
    },
    {
      "channel": 1,
      "note": 64,
      "start": 35.2868,
      "duration": 0.0161,
      "velocity": 124,
      "chip": "ym2612"
    },
    {
      "channel": 0,
      "note": 38,
      "start": 35.2885,
      "duration": 0.0161,
      "velocity": 115,
      "chip": "ym2612"
    },
    {
      "channel": 4,
      "note": 81,
      "start": 35.2896,
      "duration": 0.0161,
      "velocity": 94,
      "chip": "ym2612"
    },
    {
      "channel": 3,
      "note": 81,
      "start": 35.2908,
      "duration": 0.0161,
      "velocity": 94,
      "chip": "ym2612"
    },
    {
      "channel": 2,
      "note": 50,
      "start": 35.2919,
      "duration": 0.0161,
      "velocity": 100,
      "chip": "ym2612"
    },
    {
      "channel": 1,
      "note": 64,
      "start": 35.3029,
      "duration": 0.0178,
      "velocity": 105,
      "chip": "ym2612"
    },
    {
      "channel": 0,
      "note": 39,
      "start": 35.3046,
      "duration": 0.0178,
      "velocity": 115,
      "chip": "ym2612"
    },
    {
      "channel": 4,
      "note": 81,
      "start": 35.3057,
      "duration": 0.0178,
      "velocity": 94,
      "chip": "ym2612"
    },
    {
      "channel": 3,
      "note": 81,
      "start": 35.3068,
      "duration": 0.0178,
      "velocity": 94,
      "chip": "ym2612"
    },
    {
      "channel": 2,
      "note": 50,
      "start": 35.308,
      "duration": 0.0181,
      "velocity": 100,
      "chip": "ym2612"
    },
    {
      "channel": 1,
      "note": 105,
      "start": 35.3207,
      "duration": 0.0144,
      "velocity": 105,
      "chip": "ym2612"
    },
    {
      "channel": 0,
      "note": 39,
      "start": 35.3224,
      "duration": 0.0144,
      "velocity": 115,
      "chip": "ym2612"
    },
    {
      "channel": 4,
      "note": 81,
      "start": 35.3235,
      "duration": 0.0144,
      "velocity": 94,
      "chip": "ym2612"
    },
    {
      "channel": 3,
      "note": 81,
      "start": 35.3247,
      "duration": 0.0144,
      "velocity": 94,
      "chip": "ym2612"
    },
    {
      "channel": 2,
      "note": 50,
      "start": 35.3261,
      "duration": 0.0142,
      "velocity": 100,
      "chip": "ym2612"
    },
    {
      "channel": 1,
      "note": 105,
      "start": 35.3351,
      "duration": 0.0161,
      "velocity": 105,
      "chip": "ym2612"
    },
    {
      "channel": 0,
      "note": 40,
      "start": 35.3368,
      "duration": 0.016,
      "velocity": 115,
      "chip": "ym2612"
    },
    {
      "channel": 4,
      "note": 81,
      "start": 35.338,
      "duration": 0.016,
      "velocity": 94,
      "chip": "ym2612"
    },
    {
      "channel": 3,
      "note": 81,
      "start": 35.3391,
      "duration": 0.016,
      "velocity": 94,
      "chip": "ym2612"
    },
    {
      "channel": 2,
      "note": 50,
      "start": 35.3403,
      "duration": 0.016,
      "velocity": 100,
      "chip": "ym2612"
    },
    {
      "channel": 1,
      "note": 105,
      "start": 35.3512,
      "duration": 0.0161,
      "velocity": 105,
      "chip": "ym2612"
    },
    {
      "channel": 0,
      "note": 40,
      "start": 35.3529,
      "duration": 0.0161,
      "velocity": 115,
      "chip": "ym2612"
    },
    {
      "channel": 4,
      "note": 81,
      "start": 35.354,
      "duration": 0.0161,
      "velocity": 94,
      "chip": "ym2612"
    },
    {
      "channel": 3,
      "note": 81,
      "start": 35.3551,
      "duration": 0.0161,
      "velocity": 94,
      "chip": "ym2612"
    },
    {
      "channel": 2,
      "note": 50,
      "start": 35.3563,
      "duration": 0.0161,
      "velocity": 100,
      "chip": "ym2612"
    },
    {
      "channel": 1,
      "note": 105,
      "start": 35.3673,
      "duration": 0.0161,
      "velocity": 105,
      "chip": "ym2612"
    },
    {
      "channel": 0,
      "note": 40,
      "start": 35.3689,
      "duration": 0.0161,
      "velocity": 115,
      "chip": "ym2612"
    },
    {
      "channel": 4,
      "note": 81,
      "start": 35.3701,
      "duration": 0.0161,
      "velocity": 94,
      "chip": "ym2612"
    },
    {
      "channel": 3,
      "note": 81,
      "start": 35.3712,
      "duration": 0.0161,
      "velocity": 94,
      "chip": "ym2612"
    },
    {
      "channel": 2,
      "note": 50,
      "start": 35.3724,
      "duration": 0.0161,
      "velocity": 100,
      "chip": "ym2612"
    },
    {
      "channel": 1,
      "note": 105,
      "start": 35.3834,
      "duration": 0.0161,
      "velocity": 105,
      "chip": "ym2612"
    },
    {
      "channel": 0,
      "note": 41,
      "start": 35.385,
      "duration": 0.0161,
      "velocity": 115,
      "chip": "ym2612"
    },
    {
      "channel": 4,
      "note": 81,
      "start": 35.3862,
      "duration": 0.0161,
      "velocity": 94,
      "chip": "ym2612"
    },
    {
      "channel": 3,
      "note": 81,
      "start": 35.3873,
      "duration": 0.0162,
      "velocity": 94,
      "chip": "ym2612"
    },
    {
      "channel": 2,
      "note": 50,
      "start": 35.3885,
      "duration": 0.0161,
      "velocity": 100,
      "chip": "ym2612"
    },
    {
      "channel": 1,
      "note": 105,
      "start": 35.3995,
      "duration": 0.0161,
      "velocity": 105,
      "chip": "ym2612"
    },
    {
      "channel": 0,
      "note": 41,
      "start": 35.4011,
      "duration": 0.0161,
      "velocity": 115,
      "chip": "ym2612"
    },
    {
      "channel": 4,
      "note": 81,
      "start": 35.4023,
      "duration": 0.0161,
      "velocity": 94,
      "chip": "ym2612"
    },
    {
      "channel": 3,
      "note": 81,
      "start": 35.4035,
      "duration": 0.0161,
      "velocity": 94,
      "chip": "ym2612"
    },
    {
      "channel": 2,
      "note": 50,
      "start": 35.4046,
      "duration": 0.0161,
      "velocity": 100,
      "chip": "ym2612"
    },
    {
      "channel": 1,
      "note": 105,
      "start": 35.4156,
      "duration": 0.0178,
      "velocity": 124,
      "chip": "ym2612"
    },
    {
      "channel": 0,
      "note": 42,
      "start": 35.4172,
      "duration": 0.0179,
      "velocity": 115,
      "chip": "ym2612"
    },
    {
      "channel": 4,
      "note": 81,
      "start": 35.4184,
      "duration": 0.0178,
      "velocity": 94,
      "chip": "ym2612"
    },
    {
      "channel": 3,
      "note": 81,
      "start": 35.4196,
      "duration": 0.0178,
      "velocity": 94,
      "chip": "ym2612"
    },
    {
      "channel": 2,
      "note": 50,
      "start": 35.4207,
      "duration": 0.0181,
      "velocity": 100,
      "chip": "ym2612"
    },
    {
      "channel": 1,
      "note": 64,
      "start": 35.4334,
      "duration": 0.0144,
      "velocity": 124,
      "chip": "ym2612"
    },
    {
      "channel": 0,
      "note": 42,
      "start": 35.4351,
      "duration": 0.0144,
      "velocity": 115,
      "chip": "ym2612"
    },
    {
      "channel": 4,
      "note": 81,
      "start": 35.4362,
      "duration": 0.0144,
      "velocity": 94,
      "chip": "ym2612"
    },
    {
      "channel": 3,
      "note": 81,
      "start": 35.4374,
      "duration": 0.0144,
      "velocity": 94,
      "chip": "ym2612"
    },
    {
      "channel": 2,
      "note": 50,
      "start": 35.4388,
      "duration": 0.0142,
      "velocity": 100,
      "chip": "ym2612"
    },
    {
      "channel": 1,
      "note": 64,
      "start": 35.4478,
      "duration": 0.016,
      "velocity": 124,
      "chip": "ym2612"
    },
    {
      "channel": 0,
      "note": 43,
      "start": 35.4495,
      "duration": 0.016,
      "velocity": 115,
      "chip": "ym2612"
    },
    {
      "channel": 4,
      "note": 81,
      "start": 35.4507,
      "duration": 0.016,
      "velocity": 94,
      "chip": "ym2612"
    },
    {
      "channel": 3,
      "note": 81,
      "start": 35.4518,
      "duration": 0.016,
      "velocity": 94,
      "chip": "ym2612"
    },
    {
      "channel": 2,
      "note": 50,
      "start": 35.453,
      "duration": 0.016,
      "velocity": 100,
      "chip": "ym2612"
    },
    {
      "channel": 1,
      "note": 64,
      "start": 35.4639,
      "duration": 0.0162,
      "velocity": 124,
      "chip": "ym2612"
    },
    {
      "channel": 0,
      "note": 43,
      "start": 35.4656,
      "duration": 0.0161,
      "velocity": 115,
      "chip": "ym2612"
    },
    {
      "channel": 4,
      "note": 81,
      "start": 35.4667,
      "duration": 0.0161,
      "velocity": 94,
      "chip": "ym2612"
    },
    {
      "channel": 3,
      "note": 81,
      "start": 35.4679,
      "duration": 0.0161,
      "velocity": 94,
      "chip": "ym2612"
    },
    {
      "channel": 2,
      "note": 50,
      "start": 35.469,
      "duration": 0.0161,
      "velocity": 100,
      "chip": "ym2612"
    },
    {
      "channel": 1,
      "note": 64,
      "start": 35.48,
      "duration": 0.0173,
      "velocity": 124,
      "chip": "ym2612"
    },
    {
      "channel": 0,
      "note": 44,
      "start": 35.4817,
      "duration": 0.0173,
      "velocity": 115,
      "chip": "ym2612"
    },
    {
      "channel": 4,
      "note": 81,
      "start": 35.4828,
      "duration": 0.0173,
      "velocity": 94,
      "chip": "ym2612"
    },
    {
      "channel": 3,
      "note": 81,
      "start": 35.4839,
      "duration": 0.0173,
      "velocity": 94,
      "chip": "ym2612"
    },
    {
      "channel": 2,
      "note": 50,
      "start": 35.4851,
      "duration": 0.0173,
      "velocity": 100,
      "chip": "ym2612"
    },
    {
      "channel": 1,
      "note": 64,
      "start": 35.4973,
      "duration": 0.0167,
      "velocity": 124,
      "chip": "ym2612"
    },
    {
      "channel": 0,
      "note": 44,
      "start": 35.499,
      "duration": 0.0167,
      "velocity": 115,
      "chip": "ym2612"
    },
    {
      "channel": 4,
      "note": 81,
      "start": 35.5001,
      "duration": 0.0167,
      "velocity": 94,
      "chip": "ym2612"
    },
    {
      "channel": 3,
      "note": 81,
      "start": 35.5013,
      "duration": 0.0167,
      "velocity": 94,
      "chip": "ym2612"
    },
    {
      "channel": 2,
      "note": 50,
      "start": 35.5024,
      "duration": 0.0167,
      "velocity": 100,
      "chip": "ym2612"
    },
    {
      "channel": 1,
      "note": 64,
      "start": 35.514,
      "duration": 0.0163,
      "velocity": 124,
      "chip": "ym2612"
    },
    {
      "channel": 0,
      "note": 44,
      "start": 35.5156,
      "duration": 0.0163,
      "velocity": 115,
      "chip": "ym2612"
    },
    {
      "channel": 4,
      "note": 81,
      "start": 35.5168,
      "duration": 0.0163,
      "velocity": 94,
      "chip": "ym2612"
    },
    {
      "channel": 3,
      "note": 81,
      "start": 35.518,
      "duration": 0.0163,
      "velocity": 94,
      "chip": "ym2612"
    },
    {
      "channel": 2,
      "note": 50,
      "start": 35.5191,
      "duration": 0.0163,
      "velocity": 100,
      "chip": "ym2612"
    },
    {
      "channel": 1,
      "note": 64,
      "start": 35.5303,
      "duration": 0.0161,
      "velocity": 105,
      "chip": "ym2612"
    },
    {
      "channel": 0,
      "note": 45,
      "start": 35.5319,
      "duration": 0.0161,
      "velocity": 115,
      "chip": "ym2612"
    },
    {
      "channel": 4,
      "note": 81,
      "start": 35.5331,
      "duration": 0.0163,
      "velocity": 94,
      "chip": "ym2612"
    },
    {
      "channel": 3,
      "note": 81,
      "start": 35.5343,
      "duration": 0.0164,
      "velocity": 94,
      "chip": "ym2612"
    },
    {
      "channel": 2,
      "note": 50,
      "start": 35.5354,
      "duration": 0.0167,
      "velocity": 100,
      "chip": "ym2612"
    },
    {
      "channel": 1,
      "note": 105,
      "start": 35.5464,
      "duration": 0.0169,
      "velocity": 105,
      "chip": "ym2612"
    },
    {
      "channel": 0,
      "note": 45,
      "start": 35.5481,
      "duration": 0.0169,
      "velocity": 115,
      "chip": "ym2612"
    },
    {
      "channel": 4,
      "note": 81,
      "start": 35.5495,
      "duration": 0.0167,
      "velocity": 94,
      "chip": "ym2612"
    },
    {
      "channel": 3,
      "note": 81,
      "start": 35.5507,
      "duration": 0.0167,
      "velocity": 94,
      "chip": "ym2612"
    },
    {
      "channel": 2,
      "note": 50,
      "start": 35.5521,
      "duration": 0.0164,
      "velocity": 100,
      "chip": "ym2612"
    },
    {
      "channel": 1,
      "note": 105,
      "start": 35.5633,
      "duration": 0.016,
      "velocity": 105,
      "chip": "ym2612"
    },
    {
      "channel": 0,
      "note": 46,
      "start": 35.5649,
      "duration": 0.0161,
      "velocity": 115,
      "chip": "ym2612"
    },
    {
      "channel": 4,
      "note": 81,
      "start": 35.5662,
      "duration": 0.016,
      "velocity": 94,
      "chip": "ym2612"
    },
    {
      "channel": 3,
      "note": 81,
      "start": 35.5673,
      "duration": 0.016,
      "velocity": 94,
      "chip": "ym2612"
    },
    {
      "channel": 2,
      "note": 50,
      "start": 35.5685,
      "duration": 0.016,
      "velocity": 100,
      "chip": "ym2612"
    },
    {
      "channel": 1,
      "note": 105,
      "start": 35.5793,
      "duration": 0.0134,
      "velocity": 105,
      "chip": "ym2612"
    },
    {
      "channel": 0,
      "note": 46,
      "start": 35.581,
      "duration": 0.0157,
      "velocity": 115,
      "chip": "ym2612"
    },
    {
      "channel": 4,
      "note": 81,
      "start": 35.5822,
      "duration": 0.0157,
      "velocity": 94,
      "chip": "ym2612"
    },
    {
      "channel": 3,
      "note": 81,
      "start": 35.5833,
      "duration": 0.0157,
      "velocity": 94,
      "chip": "ym2612"
    },
    {
      "channel": 2,
      "note": 50,
      "start": 35.5845,
      "duration": 0.0157,
      "velocity": 100,
      "chip": "ym2612"
    },
    {
      "channel": 1,
      "note": 105,
      "start": 35.5927,
      "duration": 0.0161,
      "velocity": 105,
      "chip": "ym2612"
    },
    {
      "channel": 0,
      "note": 47,
      "start": 35.5967,
      "duration": 0.014,
      "velocity": 115,
      "chip": "ym2612"
    },
    {
      "channel": 4,
      "note": 81,
      "start": 35.5979,
      "duration": 0.0141,
      "velocity": 94,
      "chip": "ym2612"
    },
    {
      "channel": 3,
      "note": 81,
      "start": 35.599,
      "duration": 0.0141,
      "velocity": 94,
      "chip": "ym2612"
    },
    {
      "channel": 2,
      "note": 50,
      "start": 35.6002,
      "duration": 0.014,
      "velocity": 100,
      "chip": "ym2612"
    },
    {
      "channel": 1,
      "note": 105,
      "start": 35.6088,
      "duration": 0.0161,
      "velocity": 105,
      "chip": "ym2612"
    },
    {
      "channel": 0,
      "note": 47,
      "start": 35.6107,
      "duration": 0.0186,
      "velocity": 115,
      "chip": "ym2612"
    },
    {
      "channel": 4,
      "note": 81,
      "start": 35.612,
      "duration": 0.0185,
      "velocity": 94,
      "chip": "ym2612"
    },
    {
      "channel": 3,
      "note": 81,
      "start": 35.6131,
      "duration": 0.0185,
      "velocity": 94,
      "chip": "ym2612"
    },
    {
      "channel": 2,
      "note": 50,
      "start": 35.6142,
      "duration": 0.0186,
      "velocity": 100,
      "chip": "ym2612"
    },
    {
      "channel": 1,
      "note": 105,
      "start": 35.6249,
      "duration": 0.0162,
      "velocity": 105,
      "chip": "ym2612"
    },
    {
      "channel": 0,
      "note": 47,
      "start": 35.6293,
      "duration": 0.0134,
      "velocity": 115,
      "chip": "ym2612"
    },
    {
      "channel": 4,
      "note": 81,
      "start": 35.6305,
      "duration": 0.0162,
      "velocity": 94,
      "chip": "ym2612"
    },
    {
      "channel": 3,
      "note": 81,
      "start": 35.6316,
      "duration": 0.0161,
      "velocity": 94,
      "chip": "ym2612"
    },
    {
      "channel": 2,
      "note": 50,
      "start": 35.6327,
      "duration": 0.0161,
      "velocity": 100,
      "chip": "ym2612"
    },
    {
      "channel": 1,
      "note": 105,
      "start": 35.641,
      "duration": 0.0183,
      "velocity": 124,
      "chip": "ym2612"
    },
    {
      "channel": 0,
      "note": 48,
      "start": 35.6427,
      "duration": 0.0215,
      "velocity": 115,
      "chip": "ym2612"
    },
    {
      "channel": 4,
      "note": 81,
      "start": 35.6466,
      "duration": 0.0188,
      "velocity": 94,
      "chip": "ym2612"
    },
    {
      "channel": 3,
      "note": 81,
      "start": 35.6478,
      "duration": 0.0191,
      "velocity": 94,
      "chip": "ym2612"
    },
    {
      "channel": 2,
      "note": 50,
      "start": 35.6488,
      "duration": 0.0194,
      "velocity": 100,
      "chip": "ym2612"
    },
    {
      "channel": 1,
      "note": 78,
      "start": 35.6594,
      "duration": 0.0144,
      "velocity": 124,
      "chip": "ym2612"
    },
    {
      "channel": 0,
      "note": 48,
      "start": 35.6642,
      "duration": 0.0115,
      "velocity": 115,
      "chip": "ym2612"
    },
    {
      "channel": 4,
      "note": 81,
      "start": 35.6654,
      "duration": 0.0118,
      "velocity": 94,
      "chip": "ym2612"
    },
    {
      "channel": 3,
      "note": 81,
      "start": 35.6668,
      "duration": 0.0116,
      "velocity": 94,
      "chip": "ym2612"
    },
    {
      "channel": 2,
      "note": 48,
      "start": 35.6683,
      "duration": 0.0113,
      "velocity": 100,
      "chip": "ym2612"
    },
    {
      "channel": 1,
      "note": 76,
      "start": 35.6738,
      "duration": 0.016,
      "velocity": 124,
      "chip": "ym2612"
    },
    {
      "channel": 0,
      "note": 49,
      "start": 35.6757,
      "duration": 0.0152,
      "velocity": 1,
      "chip": "ym2612"
    },
    {
      "channel": 4,
      "note": 81,
      "start": 35.6772,
      "duration": 0.0148,
      "velocity": 94,
      "chip": "ym2612"
    },
    {
      "channel": 3,
      "note": 81,
      "start": 35.6784,
      "duration": 0.0175,
      "velocity": 94,
      "chip": "ym2612"
    },
    {
      "channel": 2,
      "note": 48,
      "start": 35.6796,
      "duration": 0.0174,
      "velocity": 100,
      "chip": "ym2612"
    },
    {
      "channel": 1,
      "note": 75,
      "start": 35.6898,
      "duration": 0.0161,
      "velocity": 124,
      "chip": "ym2612"
    },
    {
      "channel": 4,
      "note": 81,
      "start": 35.692,
      "duration": 0.0153,
      "velocity": 94,
      "chip": "ym2612"
    },
    {
      "channel": 3,
      "note": 81,
      "start": 35.6959,
      "duration": 0.0125,
      "velocity": 94,
      "chip": "ym2612"
    },
    {
      "channel": 2,
      "note": 48,
      "start": 35.6971,
      "duration": 0.0125,
      "velocity": 100,
      "chip": "ym2612"
    },
    {
      "channel": 1,
      "note": 74,
      "start": 35.7059,
      "duration": 0.0161,
      "velocity": 124,
      "chip": "ym2612"
    },
    {
      "channel": 4,
      "note": 81,
      "start": 35.7073,
      "duration": 0.0161,
      "velocity": 94,
      "chip": "ym2612"
    },
    {
      "channel": 3,
      "note": 81,
      "start": 35.7085,
      "duration": 0.0161,
      "velocity": 94,
      "chip": "ym2612"
    },
    {
      "channel": 2,
      "note": 48,
      "start": 35.7096,
      "duration": 0.0161,
      "velocity": 100,
      "chip": "ym2612"
    },
    {
      "channel": 1,
      "note": 72,
      "start": 35.722,
      "duration": 0.0161,
      "velocity": 124,
      "chip": "ym2612"
    },
    {
      "channel": 4,
      "note": 81,
      "start": 35.7234,
      "duration": 0.0161,
      "velocity": 94,
      "chip": "ym2612"
    },
    {
      "channel": 3,
      "note": 81,
      "start": 35.7245,
      "duration": 0.0161,
      "velocity": 94,
      "chip": "ym2612"
    },
    {
      "channel": 2,
      "note": 48,
      "start": 35.7257,
      "duration": 0.0161,
      "velocity": 100,
      "chip": "ym2612"
    },
    {
      "channel": 1,
      "note": 71,
      "start": 35.7381,
      "duration": 0.0161,
      "velocity": 124,
      "chip": "ym2612"
    },
    {
      "channel": 4,
      "note": 81,
      "start": 35.7395,
      "duration": 0.0161,
      "velocity": 94,
      "chip": "ym2612"
    },
    {
      "channel": 3,
      "note": 81,
      "start": 35.7406,
      "duration": 0.0161,
      "velocity": 94,
      "chip": "ym2612"
    },
    {
      "channel": 2,
      "note": 48,
      "start": 35.7418,
      "duration": 0.0161,
      "velocity": 100,
      "chip": "ym2612"
    },
    {
      "channel": 1,
      "note": 70,
      "start": 35.7542,
      "duration": 0.0161,
      "velocity": 124,
      "chip": "ym2612"
    },
    {
      "channel": 4,
      "note": 81,
      "start": 35.7556,
      "duration": 0.0169,
      "velocity": 94,
      "chip": "ym2612"
    },
    {
      "channel": 3,
      "note": 81,
      "start": 35.7567,
      "duration": 0.0171,
      "velocity": 94,
      "chip": "ym2612"
    },
    {
      "channel": 2,
      "note": 48,
      "start": 35.7579,
      "duration": 0.0173,
      "velocity": 100,
      "chip": "ym2612"
    },
    {
      "channel": 1,
      "note": 69,
      "start": 35.7703,
      "duration": 0.0161,
      "velocity": 124,
      "chip": "ym2612"
    },
    {
      "channel": 4,
      "note": 81,
      "start": 35.7725,
      "duration": 0.0154,
      "velocity": 94,
      "chip": "ym2612"
    },
    {
      "channel": 3,
      "note": 81,
      "start": 35.7738,
      "duration": 0.0153,
      "velocity": 94,
      "chip": "ym2612"
    },
    {
      "channel": 2,
      "note": 48,
      "start": 35.7752,
      "duration": 0.0151,
      "velocity": 100,
      "chip": "ym2612"
    },
    {
      "channel": 1,
      "note": 68,
      "start": 35.7864,
      "duration": 0.0161,
      "velocity": 124,
      "chip": "ym2612"
    },
    {
      "channel": 4,
      "note": 81,
      "start": 35.7879,
      "duration": 0.016,
      "velocity": 94,
      "chip": "ym2612"
    },
    {
      "channel": 3,
      "note": 81,
      "start": 35.7891,
      "duration": 0.0159,
      "velocity": 94,
      "chip": "ym2612"
    },
    {
      "channel": 2,
      "note": 48,
      "start": 35.7902,
      "duration": 0.0159,
      "velocity": 100,
      "chip": "ym2612"
    },
    {
      "channel": 1,
      "note": 66,
      "start": 35.8025,
      "duration": 0.0161,
      "velocity": 124,
      "chip": "ym2612"
    },
    {
      "channel": 4,
      "note": 81,
      "start": 35.8039,
      "duration": 0.0161,
      "velocity": 94,
      "chip": "ym2612"
    },
    {
      "channel": 3,
      "note": 81,
      "start": 35.805,
      "duration": 0.0161,
      "velocity": 94,
      "chip": "ym2612"
    },
    {
      "channel": 2,
      "note": 48,
      "start": 35.8062,
      "duration": 0.0161,
      "velocity": 100,
      "chip": "ym2612"
    },
    {
      "channel": 1,
      "note": 65,
      "start": 35.8186,
      "duration": 0.0161,
      "velocity": 124,
      "chip": "ym2612"
    },
    {
      "channel": 4,
      "note": 81,
      "start": 35.82,
      "duration": 0.0161,
      "velocity": 94,
      "chip": "ym2612"
    },
    {
      "channel": 3,
      "note": 81,
      "start": 35.8211,
      "duration": 0.0161,
      "velocity": 94,
      "chip": "ym2612"
    },
    {
      "channel": 2,
      "note": 48,
      "start": 35.8222,
      "duration": 0.0161,
      "velocity": 100,
      "chip": "ym2612"
    },
    {
      "channel": 1,
      "note": 64,
      "start": 35.8347,
      "duration": 0.0161,
      "velocity": 124,
      "chip": "ym2612"
    },
    {
      "channel": 4,
      "note": 81,
      "start": 35.8361,
      "duration": 0.0161,
      "velocity": 94,
      "chip": "ym2612"
    },
    {
      "channel": 3,
      "note": 81,
      "start": 35.8372,
      "duration": 0.0161,
      "velocity": 94,
      "chip": "ym2612"
    },
    {
      "channel": 2,
      "note": 48,
      "start": 35.8383,
      "duration": 0.0161,
      "velocity": 100,
      "chip": "ym2612"
    },
    {
      "channel": 1,
      "note": 62,
      "start": 35.8508,
      "duration": 0.0161,
      "velocity": 124,
      "chip": "ym2612"
    },
    {
      "channel": 4,
      "note": 81,
      "start": 35.8522,
      "duration": 0.0161,
      "velocity": 94,
      "chip": "ym2612"
    },
    {
      "channel": 3,
      "note": 81,
      "start": 35.8533,
      "duration": 0.0162,
      "velocity": 94,
      "chip": "ym2612"
    },
    {
      "channel": 2,
      "note": 48,
      "start": 35.8544,
      "duration": 0.0161,
      "velocity": 100,
      "chip": "ym2612"
    },
    {
      "channel": 1,
      "note": 61,
      "start": 35.8669,
      "duration": 0.0161,
      "velocity": 124,
      "chip": "ym2612"
    },
    {
      "channel": 4,
      "note": 81,
      "start": 35.8683,
      "duration": 0.0166,
      "velocity": 94,
      "chip": "ym2612"
    },
    {
      "channel": 3,
      "note": 81,
      "start": 35.8695,
      "duration": 0.0168,
      "velocity": 94,
      "chip": "ym2612"
    },
    {
      "channel": 2,
      "note": 48,
      "start": 35.8706,
      "duration": 0.0171,
      "velocity": 100,
      "chip": "ym2612"
    },
    {
      "channel": 1,
      "note": 60,
      "start": 35.883,
      "duration": 0.0161,
      "velocity": 124,
      "chip": "ym2612"
    },
    {
      "channel": 4,
      "note": 81,
      "start": 35.8849,
      "duration": 0.0156,
      "velocity": 94,
      "chip": "ym2612"
    },
    {
      "channel": 3,
      "note": 81,
      "start": 35.8863,
      "duration": 0.0155,
      "velocity": 94,
      "chip": "ym2612"
    },
    {
      "channel": 2,
      "note": 48,
      "start": 35.8877,
      "duration": 0.0152,
      "velocity": 100,
      "chip": "ym2612"
    },
    {
      "channel": 1,
      "note": 59,
      "start": 35.8991,
      "duration": 0.0161,
      "velocity": 124,
      "chip": "ym2612"
    },
    {
      "channel": 4,
      "note": 81,
      "start": 35.9006,
      "duration": 0.016,
      "velocity": 94,
      "chip": "ym2612"
    },
    {
      "channel": 3,
      "note": 81,
      "start": 35.9018,
      "duration": 0.016,
      "velocity": 94,
      "chip": "ym2612"
    },
    {
      "channel": 2,
      "note": 48,
      "start": 35.9029,
      "duration": 0.016,
      "velocity": 100,
      "chip": "ym2612"
    },
    {
      "channel": 1,
      "note": 57,
      "start": 35.9152,
      "duration": 0.0161,
      "velocity": 124,
      "chip": "ym2612"
    },
    {
      "channel": 4,
      "note": 81,
      "start": 35.9166,
      "duration": 0.0161,
      "velocity": 94,
      "chip": "ym2612"
    },
    {
      "channel": 3,
      "note": 81,
      "start": 35.9177,
      "duration": 0.0161,
      "velocity": 94,
      "chip": "ym2612"
    },
    {
      "channel": 2,
      "note": 48,
      "start": 35.9189,
      "duration": 0.0161,
      "velocity": 100,
      "chip": "ym2612"
    },
    {
      "channel": 1,
      "note": 56,
      "start": 35.9313,
      "duration": 0.0161,
      "velocity": 124,
      "chip": "ym2612"
    },
    {
      "channel": 4,
      "note": 81,
      "start": 35.9327,
      "duration": 0.0161,
      "velocity": 94,
      "chip": "ym2612"
    },
    {
      "channel": 3,
      "note": 81,
      "start": 35.9338,
      "duration": 0.0161,
      "velocity": 94,
      "chip": "ym2612"
    },
    {
      "channel": 2,
      "note": 48,
      "start": 35.935,
      "duration": 0.0161,
      "velocity": 100,
      "chip": "ym2612"
    },
    {
      "channel": 1,
      "note": 55,
      "start": 35.9474,
      "duration": 0.0171,
      "velocity": 124,
      "chip": "ym2612"
    },
    {
      "channel": 4,
      "note": 81,
      "start": 35.9488,
      "duration": 0.0171,
      "velocity": 94,
      "chip": "ym2612"
    },
    {
      "channel": 3,
      "note": 81,
      "start": 35.9499,
      "duration": 0.017,
      "velocity": 94,
      "chip": "ym2612"
    },
    {
      "channel": 2,
      "note": 48,
      "start": 35.9511,
      "duration": 0.0171,
      "velocity": 100,
      "chip": "ym2612"
    },
    {
      "channel": 1,
      "note": 53,
      "start": 35.9644,
      "duration": 0.0167,
      "velocity": 124,
      "chip": "ym2612"
    },
    {
      "channel": 4,
      "note": 81,
      "start": 35.9658,
      "duration": 0.0167,
      "velocity": 94,
      "chip": "ym2612"
    },
    {
      "channel": 3,
      "note": 81,
      "start": 35.967,
      "duration": 0.0167,
      "velocity": 94,
      "chip": "ym2612"
    },
    {
      "channel": 2,
      "note": 48,
      "start": 35.9681,
      "duration": 0.0167,
      "velocity": 100,
      "chip": "ym2612"
    },
    {
      "channel": 1,
      "note": 52,
      "start": 35.9811,
      "duration": 0.0163,
      "velocity": 124,
      "chip": "ym2612"
    },
    {
      "channel": 4,
      "note": 81,
      "start": 35.9825,
      "duration": 0.0206,
      "velocity": 94,
      "chip": "ym2612"
    },
    {
      "channel": 3,
      "note": 81,
      "start": 35.9836,
      "duration": 0.0206,
      "velocity": 94,
      "chip": "ym2612"
    },
    {
      "channel": 2,
      "note": 48,
      "start": 35.9848,
      "duration": 0.0209,
      "velocity": 100,
      "chip": "ym2612"
    },
    {
      "channel": 1,
      "note": 51,
      "start": 35.9974,
      "duration": 0.0138,
      "velocity": 1,
      "chip": "ym2612"
    },
    {
      "channel": 0,
      "note": 78,
      "start": 36.0017,
      "duration": 0.0134,
      "velocity": 127,
      "chip": "ym2612"
    },
    {
      "channel": 4,
      "note": 79,
      "start": 36.0031,
      "duration": 0.0132,
      "velocity": 94,
      "chip": "ym2612"
    },
    {
      "channel": 3,
      "note": 81,
      "start": 36.0042,
      "duration": 0.0132,
      "velocity": 94,
      "chip": "ym2612"
    },
    {
      "channel": 2,
      "note": 48,
      "start": 36.0056,
      "duration": 0.013,
      "velocity": 100,
      "chip": "ym2612"
    },
    {
      "channel": 1,
      "note": 51,
      "start": 36.0134,
      "duration": 0.0167,
      "velocity": 105,
      "chip": "ym2612"
    },
    {
      "channel": 0,
      "note": 76,
      "start": 36.0151,
      "duration": 0.0167,
      "velocity": 127,
      "chip": "ym2612"
    },
    {
      "channel": 4,
      "note": 79,
      "start": 36.0163,
      "duration": 0.0167,
      "velocity": 94,
      "chip": "ym2612"
    },
    {
      "channel": 3,
      "note": 81,
      "start": 36.0175,
      "duration": 0.0167,
      "velocity": 94,
      "chip": "ym2612"
    },
    {
      "channel": 2,
      "note": 48,
      "start": 36.0187,
      "duration": 0.0166,
      "velocity": 100,
      "chip": "ym2612"
    },
    {
      "channel": 1,
      "note": 105,
      "start": 36.0301,
      "duration": 0.0161,
      "velocity": 105,
      "chip": "ym2612"
    },
    {
      "channel": 0,
      "note": 75,
      "start": 36.0319,
      "duration": 0.0161,
      "velocity": 127,
      "chip": "ym2612"
    },
    {
      "channel": 4,
      "note": 79,
      "start": 36.033,
      "duration": 0.0161,
      "velocity": 94,
      "chip": "ym2612"
    },
    {
      "channel": 3,
      "note": 81,
      "start": 36.0341,
      "duration": 0.0161,
      "velocity": 94,
      "chip": "ym2612"
    },
    {
      "channel": 2,
      "note": 48,
      "start": 36.0353,
      "duration": 0.0161,
      "velocity": 100,
      "chip": "ym2612"
    },
    {
      "channel": 1,
      "note": 105,
      "start": 36.0462,
      "duration": 0.0134,
      "velocity": 105,
      "chip": "ym2612"
    },
    {
      "channel": 0,
      "note": 73,
      "start": 36.048,
      "duration": 0.0157,
      "velocity": 127,
      "chip": "ym2612"
    },
    {
      "channel": 4,
      "note": 79,
      "start": 36.0491,
      "duration": 0.0157,
      "velocity": 94,
      "chip": "ym2612"
    },
    {
      "channel": 3,
      "note": 81,
      "start": 36.0502,
      "duration": 0.0157,
      "velocity": 94,
      "chip": "ym2612"
    },
    {
      "channel": 2,
      "note": 48,
      "start": 36.0514,
      "duration": 0.0157,
      "velocity": 100,
      "chip": "ym2612"
    },
    {
      "channel": 1,
      "note": 105,
      "start": 36.0596,
      "duration": 0.0161,
      "velocity": 105,
      "chip": "ym2612"
    },
    {
      "channel": 0,
      "note": 71,
      "start": 36.0637,
      "duration": 0.0141,
      "velocity": 127,
      "chip": "ym2612"
    },
    {
      "channel": 4,
      "note": 79,
      "start": 36.0648,
      "duration": 0.0141,
      "velocity": 94,
      "chip": "ym2612"
    },
    {
      "channel": 3,
      "note": 81,
      "start": 36.066,
      "duration": 0.0141,
      "velocity": 94,
      "chip": "ym2612"
    },
    {
      "channel": 2,
      "note": 48,
      "start": 36.0671,
      "duration": 0.0141,
      "velocity": 100,
      "chip": "ym2612"
    },
    {
      "channel": 1,
      "note": 105,
      "start": 36.0757,
      "duration": 0.0161,
      "velocity": 105,
      "chip": "ym2612"
    },
    {
      "channel": 0,
      "note": 70,
      "start": 36.0777,
      "duration": 0.0185,
      "velocity": 127,
      "chip": "ym2612"
    },
    {
      "channel": 4,
      "note": 79,
      "start": 36.0789,
      "duration": 0.0186,
      "velocity": 94,
      "chip": "ym2612"
    },
    {
      "channel": 3,
      "note": 81,
      "start": 36.08,
      "duration": 0.0186,
      "velocity": 94,
      "chip": "ym2612"
    },
    {
      "channel": 2,
      "note": 48,
      "start": 36.0812,
      "duration": 0.0185,
      "velocity": 100,
      "chip": "ym2612"
    },
    {
      "channel": 1,
      "note": 105,
      "start": 36.0918,
      "duration": 0.0178,
      "velocity": 124,
      "chip": "ym2612"
    },
    {
      "channel": 0,
      "note": 68,
      "start": 36.0962,
      "duration": 0.0196,
      "velocity": 115,
      "chip": "ym2612"
    },
    {
      "channel": 4,
      "note": 79,
      "start": 36.0974,
      "duration": 0.0196,
      "velocity": 94,
      "chip": "ym2612"
    },
    {
      "channel": 3,
      "note": 81,
      "start": 36.0986,
      "duration": 0.0198,
      "velocity": 94,
      "chip": "ym2612"
    },
    {
      "channel": 2,
      "note": 48,
      "start": 36.0997,
      "duration": 0.0202,
      "velocity": 100,
      "chip": "ym2612"
    },
    {
      "channel": 1,
      "note": 64,
      "start": 36.1097,
      "duration": 0.0146,
      "velocity": 124,
      "chip": "ym2612"
    },
    {
      "channel": 0,
      "note": 36,
      "start": 36.1159,
      "duration": 0.01,
      "velocity": 115,
      "chip": "ym2612"
    },
    {
      "channel": 4,
      "note": 79,
      "start": 36.117,
      "duration": 0.0125,
      "velocity": 94,
      "chip": "ym2612"
    },
    {
      "channel": 3,
      "note": 79,
      "start": 36.1184,
      "duration": 0.0123,
      "velocity": 94,
      "chip": "ym2612"
    },
    {
      "channel": 2,
      "note": 57,
      "start": 36.1199,
      "duration": 0.012,
      "velocity": 100,
      "chip": "ym2612"
    },
    {
      "channel": 1,
      "note": 64,
      "start": 36.1242,
      "duration": 0.0159,
      "velocity": 124,
      "chip": "ym2612"
    },
    {
      "channel": 0,
      "note": 36,
      "start": 36.1259,
      "duration": 0.0159,
      "velocity": 115,
      "chip": "ym2612"
    },
    {
      "channel": 4,
      "note": 79,
      "start": 36.1295,
      "duration": 0.0135,
      "velocity": 94,
      "chip": "ym2612"
    },
    {
      "channel": 3,
      "note": 79,
      "start": 36.1307,
      "duration": 0.0137,
      "velocity": 94,
      "chip": "ym2612"
    },
    {
      "channel": 2,
      "note": 57,
      "start": 36.1319,
      "duration": 0.0137,
      "velocity": 100,
      "chip": "ym2612"
    },
    {
      "channel": 1,
      "note": 64,
      "start": 36.1401,
      "duration": 0.0161,
      "velocity": 124,
      "chip": "ym2612"
    },
    {
      "channel": 0,
      "note": 37,
      "start": 36.1418,
      "duration": 0.0161,
      "velocity": 115,
      "chip": "ym2612"
    },
    {
      "channel": 4,
      "note": 79,
      "start": 36.143,
      "duration": 0.0161,
      "velocity": 94,
      "chip": "ym2612"
    },
    {
      "channel": 3,
      "note": 79,
      "start": 36.1444,
      "duration": 0.0185,
      "velocity": 94,
      "chip": "ym2612"
    },
    {
      "channel": 2,
      "note": 57,
      "start": 36.1456,
      "duration": 0.0185,
      "velocity": 100,
      "chip": "ym2612"
    },
    {
      "channel": 1,
      "note": 64,
      "start": 36.1562,
      "duration": 0.0161,
      "velocity": 124,
      "chip": "ym2612"
    },
    {
      "channel": 0,
      "note": 37,
      "start": 36.1579,
      "duration": 0.0162,
      "velocity": 115,
      "chip": "ym2612"
    },
    {
      "channel": 4,
      "note": 79,
      "start": 36.1591,
      "duration": 0.0161,
      "velocity": 94,
      "chip": "ym2612"
    },
    {
      "channel": 3,
      "note": 79,
      "start": 36.163,
      "duration": 0.0134,
      "velocity": 94,
      "chip": "ym2612"
    },
    {
      "channel": 2,
      "note": 57,
      "start": 36.1641,
      "duration": 0.0161,
      "velocity": 100,
      "chip": "ym2612"
    },
    {
      "channel": 1,
      "note": 64,
      "start": 36.1723,
      "duration": 0.0161,
      "velocity": 124,
      "chip": "ym2612"
    },
    {
      "channel": 0,
      "note": 38,
      "start": 36.174,
      "duration": 0.0161,
      "velocity": 115,
      "chip": "ym2612"
    },
    {
      "channel": 4,
      "note": 79,
      "start": 36.1752,
      "duration": 0.0161,
      "velocity": 94,
      "chip": "ym2612"
    },
    {
      "channel": 3,
      "note": 79,
      "start": 36.1763,
      "duration": 0.0161,
      "velocity": 94,
      "chip": "ym2612"
    },
    {
      "channel": 2,
      "note": 57,
      "start": 36.1802,
      "duration": 0.0157,
      "velocity": 100,
      "chip": "ym2612"
    },
    {
      "channel": 1,
      "note": 64,
      "start": 36.1884,
      "duration": 0.0161,
      "velocity": 124,
      "chip": "ym2612"
    },
    {
      "channel": 0,
      "note": 38,
      "start": 36.1901,
      "duration": 0.0161,
      "velocity": 115,
      "chip": "ym2612"
    },
    {
      "channel": 4,
      "note": 79,
      "start": 36.1913,
      "duration": 0.0161,
      "velocity": 94,
      "chip": "ym2612"
    },
    {
      "channel": 3,
      "note": 79,
      "start": 36.1924,
      "duration": 0.0161,
      "velocity": 94,
      "chip": "ym2612"
    },
    {
      "channel": 2,
      "note": 57,
      "start": 36.1959,
      "duration": 0.0137,
      "velocity": 100,
      "chip": "ym2612"
    },
    {
      "channel": 1,
      "note": 64,
      "start": 36.2045,
      "duration": 0.0178,
      "velocity": 105,
      "chip": "ym2612"
    },
    {
      "channel": 0,
      "note": 39,
      "start": 36.2062,
      "duration": 0.0178,
      "velocity": 115,
      "chip": "ym2612"
    },
    {
      "channel": 4,
      "note": 79,
      "start": 36.2074,
      "duration": 0.0181,
      "velocity": 94,
      "chip": "ym2612"
    },
    {
      "channel": 3,
      "note": 79,
      "start": 36.2085,
      "duration": 0.0209,
      "velocity": 94,
      "chip": "ym2612"
    },
    {
      "channel": 2,
      "note": 57,
      "start": 36.2097,
      "duration": 0.0211,
      "velocity": 100,
      "chip": "ym2612"
    },
    {
      "channel": 1,
      "note": 105,
      "start": 36.2223,
      "duration": 0.0144,
      "velocity": 105,
      "chip": "ym2612"
    },
    {
      "channel": 0,
      "note": 39,
      "start": 36.224,
      "duration": 0.0144,
      "velocity": 115,
      "chip": "ym2612"
    },
    {
      "channel": 4,
      "note": 81,
      "start": 36.2254,
      "duration": 0.0142,
      "velocity": 94,
      "chip": "ym2612"
    },
    {
      "channel": 3,
      "note": 79,
      "start": 36.2294,
      "duration": 0.0115,
      "velocity": 94,
      "chip": "ym2612"
    },
    {
      "channel": 2,
      "note": 57,
      "start": 36.2308,
      "duration": 0.0113,
      "velocity": 100,
      "chip": "ym2612"
    },
    {
      "channel": 1,
      "note": 105,
      "start": 36.2368,
      "duration": 0.0161,
      "velocity": 105,
      "chip": "ym2612"
    },
    {
      "channel": 0,
      "note": 40,
      "start": 36.2385,
      "duration": 0.016,
      "velocity": 115,
      "chip": "ym2612"
    },
    {
      "channel": 4,
      "note": 81,
      "start": 36.2397,
      "duration": 0.016,
      "velocity": 94,
      "chip": "ym2612"
    },
    {
      "channel": 3,
      "note": 79,
      "start": 36.2408,
      "duration": 0.016,
      "velocity": 94,
      "chip": "ym2612"
    },
    {
      "channel": 2,
      "note": 57,
      "start": 36.242,
      "duration": 0.0159,
      "velocity": 100,
      "chip": "ym2612"
    },
    {
      "channel": 1,
      "note": 105,
      "start": 36.2529,
      "duration": 0.0161,
      "velocity": 105,
      "chip": "ym2612"
    },
    {
      "channel": 0,
      "note": 40,
      "start": 36.2545,
      "duration": 0.0161,
      "velocity": 115,
      "chip": "ym2612"
    },
    {
      "channel": 4,
      "note": 81,
      "start": 36.2556,
      "duration": 0.0161,
      "velocity": 94,
      "chip": "ym2612"
    },
    {
      "channel": 3,
      "note": 79,
      "start": 36.2568,
      "duration": 0.0161,
      "velocity": 94,
      "chip": "ym2612"
    },
    {
      "channel": 2,
      "note": 57,
      "start": 36.2579,
      "duration": 0.0161,
      "velocity": 100,
      "chip": "ym2612"
    },
    {
      "channel": 1,
      "note": 105,
      "start": 36.2689,
      "duration": 0.0161,
      "velocity": 105,
      "chip": "ym2612"
    },
    {
      "channel": 0,
      "note": 40,
      "start": 36.2706,
      "duration": 0.0161,
      "velocity": 115,
      "chip": "ym2612"
    },
    {
      "channel": 4,
      "note": 81,
      "start": 36.2717,
      "duration": 0.0161,
      "velocity": 94,
      "chip": "ym2612"
    },
    {
      "channel": 3,
      "note": 79,
      "start": 36.2729,
      "duration": 0.0161,
      "velocity": 94,
      "chip": "ym2612"
    },
    {
      "channel": 2,
      "note": 57,
      "start": 36.274,
      "duration": 0.0161,
      "velocity": 100,
      "chip": "ym2612"
    },
    {
      "channel": 1,
      "note": 105,
      "start": 36.285,
      "duration": 0.0161,
      "velocity": 105,
      "chip": "ym2612"
    },
    {
      "channel": 0,
      "note": 41,
      "start": 36.2867,
      "duration": 0.0161,
      "velocity": 115,
      "chip": "ym2612"
    },
    {
      "channel": 4,
      "note": 81,
      "start": 36.2878,
      "duration": 0.0161,
      "velocity": 94,
      "chip": "ym2612"
    },
    {
      "channel": 3,
      "note": 79,
      "start": 36.289,
      "duration": 0.0162,
      "velocity": 94,
      "chip": "ym2612"
    },
    {
      "channel": 2,
      "note": 57,
      "start": 36.2901,
      "duration": 0.0161,
      "velocity": 100,
      "chip": "ym2612"
    },
    {
      "channel": 1,
      "note": 105,
      "start": 36.3011,
      "duration": 0.0161,
      "velocity": 105,
      "chip": "ym2612"
    },
    {
      "channel": 0,
      "note": 41,
      "start": 36.3028,
      "duration": 0.0161,
      "velocity": 115,
      "chip": "ym2612"
    },
    {
      "channel": 4,
      "note": 81,
      "start": 36.304,
      "duration": 0.0161,
      "velocity": 94,
      "chip": "ym2612"
    },
    {
      "channel": 3,
      "note": 79,
      "start": 36.3051,
      "duration": 0.0161,
      "velocity": 94,
      "chip": "ym2612"
    },
    {
      "channel": 2,
      "note": 57,
      "start": 36.3062,
      "duration": 0.0161,
      "velocity": 100,
      "chip": "ym2612"
    },
    {
      "channel": 1,
      "note": 105,
      "start": 36.3172,
      "duration": 0.0178,
      "velocity": 124,
      "chip": "ym2612"
    },
    {
      "channel": 0,
      "note": 42,
      "start": 36.3189,
      "duration": 0.0179,
      "velocity": 115,
      "chip": "ym2612"
    },
    {
      "channel": 4,
      "note": 81,
      "start": 36.3201,
      "duration": 0.0178,
      "velocity": 94,
      "chip": "ym2612"
    },
    {
      "channel": 3,
      "note": 79,
      "start": 36.3212,
      "duration": 0.0181,
      "velocity": 94,
      "chip": "ym2612"
    },
    {
      "channel": 2,
      "note": 57,
      "start": 36.3223,
      "duration": 0.0184,
      "velocity": 100,
      "chip": "ym2612"
    },
    {
      "channel": 1,
      "note": 64,
      "start": 36.3351,
      "duration": 0.0144,
      "velocity": 124,
      "chip": "ym2612"
    },
    {
      "channel": 0,
      "note": 42,
      "start": 36.3368,
      "duration": 0.0144,
      "velocity": 115,
      "chip": "ym2612"
    },
    {
      "channel": 4,
      "note": 81,
      "start": 36.3379,
      "duration": 0.0144,
      "velocity": 94,
      "chip": "ym2612"
    },
    {
      "channel": 3,
      "note": 81,
      "start": 36.3393,
      "duration": 0.0142,
      "velocity": 94,
      "chip": "ym2612"
    },
    {
      "channel": 2,
      "note": 57,
      "start": 36.3408,
      "duration": 0.0139,
      "velocity": 100,
      "chip": "ym2612"
    },
    {
      "channel": 1,
      "note": 64,
      "start": 36.3495,
      "duration": 0.0161,
      "velocity": 124,
      "chip": "ym2612"
    },
    {
      "channel": 0,
      "note": 43,
      "start": 36.3512,
      "duration": 0.016,
      "velocity": 115,
      "chip": "ym2612"
    },
    {
      "channel": 4,
      "note": 81,
      "start": 36.3523,
      "duration": 0.016,
      "velocity": 94,
      "chip": "ym2612"
    },
    {
      "channel": 3,
      "note": 81,
      "start": 36.3535,
      "duration": 0.016,
      "velocity": 94,
      "chip": "ym2612"
    },
    {
      "channel": 2,
      "note": 57,
      "start": 36.3547,
      "duration": 0.016,
      "velocity": 100,
      "chip": "ym2612"
    },
    {
      "channel": 1,
      "note": 64,
      "start": 36.3656,
      "duration": 0.0161,
      "velocity": 124,
      "chip": "ym2612"
    },
    {
      "channel": 0,
      "note": 43,
      "start": 36.3672,
      "duration": 0.0161,
      "velocity": 115,
      "chip": "ym2612"
    },
    {
      "channel": 4,
      "note": 81,
      "start": 36.3684,
      "duration": 0.0161,
      "velocity": 94,
      "chip": "ym2612"
    },
    {
      "channel": 3,
      "note": 81,
      "start": 36.3695,
      "duration": 0.0161,
      "velocity": 94,
      "chip": "ym2612"
    },
    {
      "channel": 2,
      "note": 57,
      "start": 36.3707,
      "duration": 0.0161,
      "velocity": 100,
      "chip": "ym2612"
    },
    {
      "channel": 1,
      "note": 64,
      "start": 36.3817,
      "duration": 0.0161,
      "velocity": 124,
      "chip": "ym2612"
    },
    {
      "channel": 0,
      "note": 44,
      "start": 36.3833,
      "duration": 0.0161,
      "velocity": 115,
      "chip": "ym2612"
    },
    {
      "channel": 4,
      "note": 81,
      "start": 36.3845,
      "duration": 0.0161,
      "velocity": 94,
      "chip": "ym2612"
    },
    {
      "channel": 3,
      "note": 81,
      "start": 36.3856,
      "duration": 0.0161,
      "velocity": 94,
      "chip": "ym2612"
    },
    {
      "channel": 2,
      "note": 57,
      "start": 36.3868,
      "duration": 0.0161,
      "velocity": 100,
      "chip": "ym2612"
    },
    {
      "channel": 1,
      "note": 64,
      "start": 36.3978,
      "duration": 0.0161,
      "velocity": 124,
      "chip": "ym2612"
    },
    {
      "channel": 0,
      "note": 44,
      "start": 36.3994,
      "duration": 0.0161,
      "velocity": 115,
      "chip": "ym2612"
    },
    {
      "channel": 4,
      "note": 81,
      "start": 36.4006,
      "duration": 0.0161,
      "velocity": 94,
      "chip": "ym2612"
    },
    {
      "channel": 3,
      "note": 81,
      "start": 36.4017,
      "duration": 0.0162,
      "velocity": 94,
      "chip": "ym2612"
    },
    {
      "channel": 2,
      "note": 57,
      "start": 36.4029,
      "duration": 0.0161,
      "velocity": 100,
      "chip": "ym2612"
    },
    {
      "channel": 1,
      "note": 64,
      "start": 36.4139,
      "duration": 0.0168,
      "velocity": 124,
      "chip": "ym2612"
    },
    {
      "channel": 0,
      "note": 44,
      "start": 36.4155,
      "duration": 0.0168,
      "velocity": 115,
      "chip": "ym2612"
    },
    {
      "channel": 4,
      "note": 81,
      "start": 36.4167,
      "duration": 0.0167,
      "velocity": 94,
      "chip": "ym2612"
    },
    {
      "channel": 3,
      "note": 81,
      "start": 36.4179,
      "duration": 0.0167,
      "velocity": 94,
      "chip": "ym2612"
    },
    {
      "channel": 2,
      "note": 57,
      "start": 36.4189,
      "duration": 0.0168,
      "velocity": 100,
      "chip": "ym2612"
    },
    {
      "channel": 1,
      "note": 64,
      "start": 36.4307,
      "duration": 0.0183,
      "velocity": 105,
      "chip": "ym2612"
    },
    {
      "channel": 0,
      "note": 45,
      "start": 36.4323,
      "duration": 0.0184,
      "velocity": 115,
      "chip": "ym2612"
    },
    {
      "channel": 4,
      "note": 81,
      "start": 36.4334,
      "duration": 0.0184,
      "velocity": 94,
      "chip": "ym2612"
    },
    {
      "channel": 3,
      "note": 81,
      "start": 36.4346,
      "duration": 0.0184,
      "velocity": 94,
      "chip": "ym2612"
    },
    {
      "channel": 2,
      "note": 57,
      "start": 36.4357,
      "duration": 0.0186,
      "velocity": 100,
      "chip": "ym2612"
    },
    {
      "channel": 1,
      "note": 105,
      "start": 36.449,
      "duration": 0.0146,
      "velocity": 105,
      "chip": "ym2612"
    },
    {
      "channel": 0,
      "note": 45,
      "start": 36.4507,
      "duration": 0.0146,
      "velocity": 115,
      "chip": "ym2612"
    },
    {
      "channel": 4,
      "note": 81,
      "start": 36.4518,
      "duration": 0.0146,
      "velocity": 94,
      "chip": "ym2612"
    },
    {
      "channel": 3,
      "note": 81,
      "start": 36.453,
      "duration": 0.0146,
      "velocity": 94,
      "chip": "ym2612"
    },
    {
      "channel": 2,
      "note": 57,
      "start": 36.4544,
      "duration": 0.0144,
      "velocity": 100,
      "chip": "ym2612"
    },
    {
      "channel": 1,
      "note": 105,
      "start": 36.4637,
      "duration": 0.0146,
      "velocity": 105,
      "chip": "ym2612"
    },
    {
      "channel": 0,
      "note": 46,
      "start": 36.4653,
      "duration": 0.0146,
      "velocity": 115,
      "chip": "ym2612"
    },
    {
      "channel": 4,
      "note": 81,
      "start": 36.4665,
      "duration": 0.0147,
      "velocity": 94,
      "chip": "ym2612"
    },
    {
      "channel": 3,
      "note": 81,
      "start": 36.4676,
      "duration": 0.0147,
      "velocity": 94,
      "chip": "ym2612"
    },
    {
      "channel": 2,
      "note": 57,
      "start": 36.4688,
      "duration": 0.0146,
      "velocity": 100,
      "chip": "ym2612"
    },
    {
      "channel": 1,
      "note": 105,
      "start": 36.4783,
      "duration": 0.0188,
      "velocity": 105,
      "chip": "ym2612"
    },
    {
      "channel": 0,
      "note": 46,
      "start": 36.48,
      "duration": 0.0188,
      "velocity": 115,
      "chip": "ym2612"
    },
    {
      "channel": 4,
      "note": 81,
      "start": 36.4812,
      "duration": 0.0188,
      "velocity": 94,
      "chip": "ym2612"
    },
    {
      "channel": 3,
      "note": 81,
      "start": 36.4823,
      "duration": 0.0188,
      "velocity": 94,
      "chip": "ym2612"
    },
    {
      "channel": 2,
      "note": 57,
      "start": 36.4834,
      "duration": 0.0188,
      "velocity": 100,
      "chip": "ym2612"
    },
    {
      "channel": 1,
      "note": 105,
      "start": 36.4971,
      "duration": 0.0162,
      "velocity": 105,
      "chip": "ym2612"
    },
    {
      "channel": 0,
      "note": 47,
      "start": 36.4988,
      "duration": 0.0161,
      "velocity": 115,
      "chip": "ym2612"
    },
    {
      "channel": 4,
      "note": 81,
      "start": 36.4999,
      "duration": 0.0161,
      "velocity": 94,
      "chip": "ym2612"
    },
    {
      "channel": 3,
      "note": 81,
      "start": 36.5011,
      "duration": 0.0161,
      "velocity": 94,
      "chip": "ym2612"
    },
    {
      "channel": 2,
      "note": 57,
      "start": 36.5022,
      "duration": 0.0161,
      "velocity": 100,
      "chip": "ym2612"
    },
    {
      "channel": 1,
      "note": 105,
      "start": 36.5132,
      "duration": 0.0157,
      "velocity": 105,
      "chip": "ym2612"
    },
    {
      "channel": 0,
      "note": 47,
      "start": 36.5149,
      "duration": 0.0157,
      "velocity": 115,
      "chip": "ym2612"
    },
    {
      "channel": 4,
      "note": 81,
      "start": 36.516,
      "duration": 0.0158,
      "velocity": 94,
      "chip": "ym2612"
    },
    {
      "channel": 3,
      "note": 81,
      "start": 36.5172,
      "duration": 0.0158,
      "velocity": 94,
      "chip": "ym2612"
    },
    {
      "channel": 2,
      "note": 57,
      "start": 36.5183,
      "duration": 0.0157,
      "velocity": 100,
      "chip": "ym2612"
    },
    {
      "channel": 1,
      "note": 105,
      "start": 36.5289,
      "duration": 0.0137,
      "velocity": 105,
      "chip": "ym2612"
    },
    {
      "channel": 0,
      "note": 47,
      "start": 36.5306,
      "duration": 0.0141,
      "velocity": 115,
      "chip": "ym2612"
    },
    {
      "channel": 4,
      "note": 81,
      "start": 36.5318,
      "duration": 0.014,
      "velocity": 94,
      "chip": "ym2612"
    },
    {
      "channel": 3,
      "note": 81,
      "start": 36.5329,
      "duration": 0.014,
      "velocity": 94,
      "chip": "ym2612"
    },
    {
      "channel": 2,
      "note": 57,
      "start": 36.534,
      "duration": 0.0141,
      "velocity": 100,
      "chip": "ym2612"
    },
    {
      "channel": 1,
      "note": 105,
      "start": 36.5427,
      "duration": 0.021,
      "velocity": 124,
      "chip": "ym2612"
    },
    {
      "channel": 0,
      "note": 48,
      "start": 36.5446,
      "duration": 0.0216,
      "velocity": 115,
      "chip": "ym2612"
    },
    {
      "channel": 4,
      "note": 81,
      "start": 36.5458,
      "duration": 0.0216,
      "velocity": 94,
      "chip": "ym2612"
    },
    {
      "channel": 3,
      "note": 81,
      "start": 36.5469,
      "duration": 0.0216,
      "velocity": 94,
      "chip": "ym2612"
    },
    {
      "channel": 2,
      "note": 57,
      "start": 36.5481,
      "duration": 0.0218,
      "velocity": 100,
      "chip": "ym2612"
    },
    {
      "channel": 1,
      "note": 78,
      "start": 36.5638,
      "duration": 0.0117,
      "velocity": 124,
      "chip": "ym2612"
    },
    {
      "channel": 0,
      "note": 48,
      "start": 36.5662,
      "duration": 0.0139,
      "velocity": 115,
      "chip": "ym2612"
    },
    {
      "channel": 4,
      "note": 81,
      "start": 36.5673,
      "duration": 0.0139,
      "velocity": 94,
      "chip": "ym2612"
    },
    {
      "channel": 3,
      "note": 81,
      "start": 36.5685,
      "duration": 0.0139,
      "velocity": 94,
      "chip": "ym2612"
    },
    {
      "channel": 2,
      "note": 57,
      "start": 36.57,
      "duration": 0.0136,
      "velocity": 100,
      "chip": "ym2612"
    },
    {
      "channel": 1,
      "note": 76,
      "start": 36.5754,
      "duration": 0.016,
      "velocity": 124,
      "chip": "ym2612"
    },
    {
      "channel": 0,
      "note": 49,
      "start": 36.5801,
      "duration": 0.0125,
      "velocity": 1,
      "chip": "ym2612"
    },
    {
      "channel": 4,
      "note": 81,
      "start": 36.5812,
      "duration": 0.0149,
      "velocity": 94,
      "chip": "ym2612"
    },
    {
      "channel": 3,
      "note": 81,
      "start": 36.5824,
      "duration": 0.0149,
      "velocity": 94,
      "chip": "ym2612"
    },
    {
      "channel": 2,
      "note": 57,
      "start": 36.5836,
      "duration": 0.0147,
      "velocity": 100,
      "chip": "ym2612"
    },
    {
      "channel": 1,
      "note": 75,
      "start": 36.5915,
      "duration": 0.0161,
      "velocity": 124,
      "chip": "ym2612"
    },
    {
      "channel": 4,
      "note": 81,
      "start": 36.5961,
      "duration": 0.0129,
      "velocity": 94,
      "chip": "ym2612"
    },
    {
      "channel": 3,
      "note": 81,
      "start": 36.5973,
      "duration": 0.0132,
      "velocity": 94,
      "chip": "ym2612"
    },
    {
      "channel": 2,
      "note": 57,
      "start": 36.5983,
      "duration": 0.0132,
      "velocity": 100,
      "chip": "ym2612"
    },
    {
      "channel": 1,
      "note": 74,
      "start": 36.6076,
      "duration": 0.0161,
      "velocity": 124,
      "chip": "ym2612"
    },
    {
      "channel": 4,
      "note": 81,
      "start": 36.609,
      "duration": 0.0161,
      "velocity": 94,
      "chip": "ym2612"
    },
    {
      "channel": 3,
      "note": 81,
      "start": 36.6104,
      "duration": 0.0158,
      "velocity": 94,
      "chip": "ym2612"
    },
    {
      "channel": 2,
      "note": 57,
      "start": 36.6116,
      "duration": 0.0185,
      "velocity": 100,
      "chip": "ym2612"
    },
    {
      "channel": 1,
      "note": 72,
      "start": 36.6237,
      "duration": 0.0161,
      "velocity": 124,
      "chip": "ym2612"
    },
    {
      "channel": 4,
      "note": 81,
      "start": 36.6251,
      "duration": 0.0161,
      "velocity": 94,
      "chip": "ym2612"
    },
    {
      "channel": 3,
      "note": 81,
      "start": 36.6262,
      "duration": 0.0161,
      "velocity": 94,
      "chip": "ym2612"
    },
    {
      "channel": 2,
      "note": 57,
      "start": 36.6301,
      "duration": 0.0161,
      "velocity": 100,
      "chip": "ym2612"
    },
    {
      "channel": 1,
      "note": 71,
      "start": 36.6398,
      "duration": 0.0161,
      "velocity": 124,
      "chip": "ym2612"
    },
    {
      "channel": 4,
      "note": 81,
      "start": 36.6411,
      "duration": 0.0161,
      "velocity": 94,
      "chip": "ym2612"
    },
    {
      "channel": 3,
      "note": 81,
      "start": 36.6423,
      "duration": 0.0161,
      "velocity": 94,
      "chip": "ym2612"
    },
    {
      "channel": 2,
      "note": 57,
      "start": 36.6462,
      "duration": 0.0134,
      "velocity": 100,
      "chip": "ym2612"
    },
    {
      "channel": 1,
      "note": 70,
      "start": 36.6558,
      "duration": 0.0161,
      "velocity": 124,
      "chip": "ym2612"
    },
    {
      "channel": 4,
      "note": 81,
      "start": 36.6572,
      "duration": 0.0167,
      "velocity": 94,
      "chip": "ym2612"
    },
    {
      "channel": 3,
      "note": 81,
      "start": 36.6584,
      "duration": 0.0167,
      "velocity": 94,
      "chip": "ym2612"
    },
    {
      "channel": 2,
      "note": 57,
      "start": 36.6595,
      "duration": 0.0169,
      "velocity": 100,
      "chip": "ym2612"
    },
    {
      "channel": 1,
      "note": 69,
      "start": 36.6719,
      "duration": 0.0161,
      "velocity": 124,
      "chip": "ym2612"
    },
    {
      "channel": 4,
      "note": 81,
      "start": 36.6739,
      "duration": 0.0156,
      "velocity": 94,
      "chip": "ym2612"
    },
    {
      "channel": 3,
      "note": 81,
      "start": 36.6751,
      "duration": 0.0156,
      "velocity": 94,
      "chip": "ym2612"
    },
    {
      "channel": 2,
      "note": 57,
      "start": 36.6766,
      "duration": 0.0153,
      "velocity": 100,
      "chip": "ym2612"
    },
    {
      "channel": 1,
      "note": 68,
      "start": 36.688,
      "duration": 0.0162,
      "velocity": 124,
      "chip": "ym2612"
    },
    {
      "channel": 4,
      "note": 81,
      "start": 36.6895,
      "duration": 0.016,
      "velocity": 94,
      "chip": "ym2612"
    },
    {
      "channel": 3,
      "note": 81,
      "start": 36.6906,
      "duration": 0.016,
      "velocity": 94,
      "chip": "ym2612"
    },
    {
      "channel": 2,
      "note": 57,
      "start": 36.6918,
      "duration": 0.016,
      "velocity": 100,
      "chip": "ym2612"
    },
    {
      "channel": 1,
      "note": 66,
      "start": 36.7042,
      "duration": 0.0161,
      "velocity": 124,
      "chip": "ym2612"
    },
    {
      "channel": 4,
      "note": 81,
      "start": 36.7055,
      "duration": 0.0161,
      "velocity": 94,
      "chip": "ym2612"
    },
    {
      "channel": 3,
      "note": 81,
      "start": 36.7067,
      "duration": 0.0161,
      "velocity": 94,
      "chip": "ym2612"
    },
    {
      "channel": 2,
      "note": 57,
      "start": 36.7078,
      "duration": 0.0161,
      "velocity": 100,
      "chip": "ym2612"
    },
    {
      "channel": 1,
      "note": 65,
      "start": 36.7203,
      "duration": 0.0161,
      "velocity": 124,
      "chip": "ym2612"
    },
    {
      "channel": 4,
      "note": 81,
      "start": 36.7216,
      "duration": 0.0162,
      "velocity": 94,
      "chip": "ym2612"
    },
    {
      "channel": 3,
      "note": 81,
      "start": 36.7228,
      "duration": 0.0161,
      "velocity": 94,
      "chip": "ym2612"
    },
    {
      "channel": 2,
      "note": 57,
      "start": 36.7239,
      "duration": 0.0161,
      "velocity": 100,
      "chip": "ym2612"
    },
    {
      "channel": 1,
      "note": 64,
      "start": 36.7364,
      "duration": 0.0161,
      "velocity": 124,
      "chip": "ym2612"
    },
    {
      "channel": 4,
      "note": 81,
      "start": 36.7378,
      "duration": 0.0161,
      "velocity": 94,
      "chip": "ym2612"
    },
    {
      "channel": 3,
      "note": 81,
      "start": 36.7389,
      "duration": 0.0161,
      "velocity": 94,
      "chip": "ym2612"
    },
    {
      "channel": 2,
      "note": 57,
      "start": 36.74,
      "duration": 0.0162,
      "velocity": 100,
      "chip": "ym2612"
    },
    {
      "channel": 1,
      "note": 62,
      "start": 36.7525,
      "duration": 0.0161,
      "velocity": 124,
      "chip": "ym2612"
    },
    {
      "channel": 4,
      "note": 81,
      "start": 36.7539,
      "duration": 0.0161,
      "velocity": 94,
      "chip": "ym2612"
    },
    {
      "channel": 3,
      "note": 81,
      "start": 36.755,
      "duration": 0.0161,
      "velocity": 94,
      "chip": "ym2612"
    },
    {
      "channel": 2,
      "note": 57,
      "start": 36.7562,
      "duration": 0.0161,
      "velocity": 100,
      "chip": "ym2612"
    },
    {
      "channel": 1,
      "note": 61,
      "start": 36.7686,
      "duration": 0.0161,
      "velocity": 124,
      "chip": "ym2612"
    },
    {
      "channel": 4,
      "note": 81,
      "start": 36.77,
      "duration": 0.0166,
      "velocity": 94,
      "chip": "ym2612"
    },
    {
      "channel": 3,
      "note": 81,
      "start": 36.7711,
      "duration": 0.0166,
      "velocity": 94,
      "chip": "ym2612"
    },
    {
      "channel": 2,
      "note": 57,
      "start": 36.7722,
      "duration": 0.0169,
      "velocity": 100,
      "chip": "ym2612"
    },
    {
      "channel": 1,
      "note": 60,
      "start": 36.7846,
      "duration": 0.0161,
      "velocity": 124,
      "chip": "ym2612"
    },
    {
      "channel": 4,
      "note": 81,
      "start": 36.7866,
      "duration": 0.0157,
      "velocity": 94,
      "chip": "ym2612"
    },
    {
      "channel": 3,
      "note": 81,
      "start": 36.7877,
      "duration": 0.0156,
      "velocity": 94,
      "chip": "ym2612"
    },
    {
      "channel": 2,
      "note": 57,
      "start": 36.7892,
      "duration": 0.0154,
      "velocity": 100,
      "chip": "ym2612"
    },
    {
      "channel": 1,
      "note": 59,
      "start": 36.8007,
      "duration": 0.0161,
      "velocity": 124,
      "chip": "ym2612"
    },
    {
      "channel": 4,
      "note": 81,
      "start": 36.8022,
      "duration": 0.016,
      "velocity": 94,
      "chip": "ym2612"
    },
    {
      "channel": 3,
      "note": 81,
      "start": 36.8034,
      "duration": 0.016,
      "velocity": 94,
      "chip": "ym2612"
    },
    {
      "channel": 2,
      "note": 57,
      "start": 36.8045,
      "duration": 0.016,
      "velocity": 100,
      "chip": "ym2612"
    },
    {
      "channel": 1,
      "note": 57,
      "start": 36.8168,
      "duration": 0.0161,
      "velocity": 124,
      "chip": "ym2612"
    },
    {
      "channel": 4,
      "note": 81,
      "start": 36.8183,
      "duration": 0.0161,
      "velocity": 94,
      "chip": "ym2612"
    },
    {
      "channel": 3,
      "note": 81,
      "start": 36.8194,
      "duration": 0.0161,
      "velocity": 94,
      "chip": "ym2612"
    },
    {
      "channel": 2,
      "note": 57,
      "start": 36.8205,
      "duration": 0.0161,
      "velocity": 100,
      "chip": "ym2612"
    },
    {
      "channel": 1,
      "note": 56,
      "start": 36.8329,
      "duration": 0.0161,
      "velocity": 124,
      "chip": "ym2612"
    },
    {
      "channel": 4,
      "note": 81,
      "start": 36.8343,
      "duration": 0.0161,
      "velocity": 94,
      "chip": "ym2612"
    },
    {
      "channel": 3,
      "note": 81,
      "start": 36.8355,
      "duration": 0.0161,
      "velocity": 94,
      "chip": "ym2612"
    },
    {
      "channel": 2,
      "note": 57,
      "start": 36.8366,
      "duration": 0.0161,
      "velocity": 100,
      "chip": "ym2612"
    },
    {
      "channel": 1,
      "note": 55,
      "start": 36.8491,
      "duration": 0.0161,
      "velocity": 124,
      "chip": "ym2612"
    },
    {
      "channel": 4,
      "note": 81,
      "start": 36.8504,
      "duration": 0.0161,
      "velocity": 94,
      "chip": "ym2612"
    },
    {
      "channel": 3,
      "note": 81,
      "start": 36.8516,
      "duration": 0.0161,
      "velocity": 94,
      "chip": "ym2612"
    },
    {
      "channel": 2,
      "note": 57,
      "start": 36.8527,
      "duration": 0.0161,
      "velocity": 100,
      "chip": "ym2612"
    },
    {
      "channel": 1,
      "note": 53,
      "start": 36.8652,
      "duration": 0.0161,
      "velocity": 124,
      "chip": "ym2612"
    },
    {
      "channel": 4,
      "note": 81,
      "start": 36.8665,
      "duration": 0.0161,
      "velocity": 94,
      "chip": "ym2612"
    },
    {
      "channel": 3,
      "note": 81,
      "start": 36.8677,
      "duration": 0.0161,
      "velocity": 94,
      "chip": "ym2612"
    },
    {
      "channel": 2,
      "note": 57,
      "start": 36.8688,
      "duration": 0.0161,
      "velocity": 100,
      "chip": "ym2612"
    },
    {
      "channel": 1,
      "note": 52,
      "start": 36.8813,
      "duration": 0.0165,
      "velocity": 124,
      "chip": "ym2612"
    },
    {
      "channel": 4,
      "note": 81,
      "start": 36.8826,
      "duration": 0.0207,
      "velocity": 94,
      "chip": "ym2612"
    },
    {
      "channel": 3,
      "note": 81,
      "start": 36.8838,
      "duration": 0.0208,
      "velocity": 94,
      "chip": "ym2612"
    },
    {
      "channel": 2,
      "note": 57,
      "start": 36.8849,
      "duration": 0.021,
      "velocity": 100,
      "chip": "ym2612"
    },
    {
      "channel": 1,
      "note": 51,
      "start": 36.8978,
      "duration": 0.0159,
      "velocity": 1,
      "chip": "ym2612"
    },
    {
      "channel": 0,
      "note": 36,
      "start": 36.902,
      "duration": 0.0156,
      "velocity": 115,
      "chip": "ym2612"
    },
    {
      "channel": 4,
      "note": 84,
      "start": 36.9034,
      "duration": 0.0154,
      "velocity": 94,
      "chip": "ym2612"
    },
    {
      "channel": 3,
      "note": 81,
      "start": 36.9046,
      "duration": 0.0154,
      "velocity": 94,
      "chip": "ym2612"
    },
    {
      "channel": 2,
      "note": 57,
      "start": 36.906,
      "duration": 0.0151,
      "velocity": 100,
      "chip": "ym2612"
    },
    {
      "channel": 1,
      "note": 51,
      "start": 36.9158,
      "duration": 0.0144,
      "velocity": 105,
      "chip": "ym2612"
    },
    {
      "channel": 0,
      "note": 36,
      "start": 36.9176,
      "duration": 0.0144,
      "velocity": 115,
      "chip": "ym2612"
    },
    {
      "channel": 4,
      "note": 84,
      "start": 36.9188,
      "duration": 0.0142,
      "velocity": 94,
      "chip": "ym2612"
    },
    {
      "channel": 3,
      "note": 81,
      "start": 36.92,
      "duration": 0.0143,
      "velocity": 94,
      "chip": "ym2612"
    },
    {
      "channel": 2,
      "note": 57,
      "start": 36.9211,
      "duration": 0.0142,
      "velocity": 100,
      "chip": "ym2612"
    },
    {
      "channel": 1,
      "note": 105,
      "start": 36.9303,
      "duration": 0.0149,
      "velocity": 105,
      "chip": "ym2612"
    },
    {
      "channel": 0,
      "note": 37,
      "start": 36.9319,
      "duration": 0.0149,
      "velocity": 115,
      "chip": "ym2612"
    },
    {
      "channel": 4,
      "note": 84,
      "start": 36.9331,
      "duration": 0.0149,
      "velocity": 94,
      "chip": "ym2612"
    },
    {
      "channel": 3,
      "note": 81,
      "start": 36.9342,
      "duration": 0.0149,
      "velocity": 94,
      "chip": "ym2612"
    },
    {
      "channel": 2,
      "note": 57,
      "start": 36.9354,
      "duration": 0.0149,
      "velocity": 100,
      "chip": "ym2612"
    },
    {
      "channel": 1,
      "note": 105,
      "start": 36.9451,
      "duration": 0.0188,
      "velocity": 105,
      "chip": "ym2612"
    },
    {
      "channel": 0,
      "note": 37,
      "start": 36.9468,
      "duration": 0.0188,
      "velocity": 115,
      "chip": "ym2612"
    },
    {
      "channel": 4,
      "note": 84,
      "start": 36.948,
      "duration": 0.0188,
      "velocity": 94,
      "chip": "ym2612"
    },
    {
      "channel": 3,
      "note": 81,
      "start": 36.9492,
      "duration": 0.0188,
      "velocity": 94,
      "chip": "ym2612"
    },
    {
      "channel": 2,
      "note": 57,
      "start": 36.9502,
      "duration": 0.0188,
      "velocity": 100,
      "chip": "ym2612"
    },
    {
      "channel": 1,
      "note": 105,
      "start": 36.964,
      "duration": 0.0161,
      "velocity": 105,
      "chip": "ym2612"
    },
    {
      "channel": 0,
      "note": 38,
      "start": 36.9656,
      "duration": 0.0161,
      "velocity": 115,
      "chip": "ym2612"
    },
    {
      "channel": 4,
      "note": 84,
      "start": 36.9668,
      "duration": 0.0162,
      "velocity": 94,
      "chip": "ym2612"
    },
    {
      "channel": 3,
      "note": 81,
      "start": 36.9679,
      "duration": 0.0161,
      "velocity": 94,
      "chip": "ym2612"
    },
    {
      "channel": 2,
      "note": 57,
      "start": 36.9691,
      "duration": 0.0162,
      "velocity": 100,
      "chip": "ym2612"
    },
    {
      "channel": 1,
      "note": 105,
      "start": 36.9801,
      "duration": 0.0157,
      "velocity": 105,
      "chip": "ym2612"
    },
    {
      "channel": 0,
      "note": 38,
      "start": 36.9818,
      "duration": 0.0157,
      "velocity": 115,
      "chip": "ym2612"
    },
    {
      "channel": 4,
      "note": 84,
      "start": 36.9829,
      "duration": 0.0158,
      "velocity": 94,
      "chip": "ym2612"
    },
    {
      "channel": 3,
      "note": 81,
      "start": 36.9841,
      "duration": 0.0158,
      "velocity": 94,
      "chip": "ym2612"
    },
    {
      "channel": 2,
      "note": 57,
      "start": 36.9852,
      "duration": 0.0157,
      "velocity": 100,
      "chip": "ym2612"
    },
    {
      "channel": 1,
      "note": 105,
      "start": 36.9959,
      "duration": 0.0158,
      "velocity": 124,
      "chip": "ym2612"
    },
    {
      "channel": 0,
      "note": 39,
      "start": 36.9975,
      "duration": 0.0176,
      "velocity": 115,
      "chip": "ym2612"
    },
    {
      "channel": 4,
      "note": 84,
      "start": 36.9987,
      "duration": 0.0176,
      "velocity": 94,
      "chip": "ym2612"
    },
    {
      "channel": 3,
      "note": 81,
      "start": 36.9999,
      "duration": 0.0178,
      "velocity": 94,
      "chip": "ym2612"
    },
    {
      "channel": 2,
      "note": 57,
      "start": 37.0009,
      "duration": 0.0182,
      "velocity": 100,
      "chip": "ym2612"
    },
    {
      "channel": 1,
      "note": 64,
      "start": 37.0116,
      "duration": 0.0141,
      "velocity": 124,
      "chip": "ym2612"
    },
    {
      "channel": 0,
      "note": 36,
      "start": 37.0151,
      "duration": 0.0151,
      "velocity": 115,
      "chip": "ym2612"
    },
    {
      "channel": 4,
      "note": 84,
      "start": 37.0163,
      "duration": 0.0151,
      "velocity": 94,
      "chip": "ym2612"
    },
    {
      "channel": 3,
      "note": 84,
      "start": 37.0177,
      "duration": 0.0149,
      "velocity": 94,
      "chip": "ym2612"
    },
    {
      "channel": 2,
      "note": 57,
      "start": 37.0191,
      "duration": 0.0146,
      "velocity": 100,
      "chip": "ym2612"
    },
    {
      "channel": 1,
      "note": 64,
      "start": 37.0258,
      "duration": 0.016,
      "velocity": 124,
      "chip": "ym2612"
    },
    {
      "channel": 0,
      "note": 36,
      "start": 37.0302,
      "duration": 0.016,
      "velocity": 115,
      "chip": "ym2612"
    },
    {
      "channel": 4,
      "note": 84,
      "start": 37.0314,
      "duration": 0.016,
      "velocity": 94,
      "chip": "ym2612"
    },
    {
      "channel": 3,
      "note": 84,
      "start": 37.0326,
      "duration": 0.0159,
      "velocity": 94,
      "chip": "ym2612"
    },
    {
      "channel": 2,
      "note": 57,
      "start": 37.0338,
      "duration": 0.0159,
      "velocity": 100,
      "chip": "ym2612"
    },
    {
      "channel": 1,
      "note": 64,
      "start": 37.0418,
      "duration": 0.0161,
      "velocity": 124,
      "chip": "ym2612"
    },
    {
      "channel": 0,
      "note": 37,
      "start": 37.0462,
      "duration": 0.0133,
      "velocity": 115,
      "chip": "ym2612"
    },
    {
      "channel": 4,
      "note": 84,
      "start": 37.0474,
      "duration": 0.0157,
      "velocity": 94,
      "chip": "ym2612"
    },
    {
      "channel": 3,
      "note": 84,
      "start": 37.0485,
      "duration": 0.0157,
      "velocity": 94,
      "chip": "ym2612"
    },
    {
      "channel": 2,
      "note": 57,
      "start": 37.0497,
      "duration": 0.0157,
      "velocity": 100,
      "chip": "ym2612"
    },
    {
      "channel": 1,
      "note": 64,
      "start": 37.0579,
      "duration": 0.0161,
      "velocity": 124,
      "chip": "ym2612"
    },
    {
      "channel": 0,
      "note": 37,
      "start": 37.0595,
      "duration": 0.0162,
      "velocity": 115,
      "chip": "ym2612"
    },
    {
      "channel": 4,
      "note": 84,
      "start": 37.0631,
      "duration": 0.0141,
      "velocity": 94,
      "chip": "ym2612"
    },
    {
      "channel": 3,
      "note": 84,
      "start": 37.0642,
      "duration": 0.0141,
      "velocity": 94,
      "chip": "ym2612"
    },
    {
      "channel": 2,
      "note": 57,
      "start": 37.0654,
      "duration": 0.0141,
      "velocity": 100,
      "chip": "ym2612"
    },
    {
      "channel": 1,
      "note": 64,
      "start": 37.074,
      "duration": 0.0161,
      "velocity": 124,
      "chip": "ym2612"
    },
    {
      "channel": 0,
      "note": 38,
      "start": 37.0757,
      "duration": 0.0161,
      "velocity": 115,
      "chip": "ym2612"
    },
    {
      "channel": 4,
      "note": 84,
      "start": 37.0771,
      "duration": 0.0158,
      "velocity": 94,
      "chip": "ym2612"
    },
    {
      "channel": 3,
      "note": 84,
      "start": 37.0783,
      "duration": 0.0185,
      "velocity": 94,
      "chip": "ym2612"
    },
    {
      "channel": 2,
      "note": 57,
      "start": 37.0794,
      "duration": 0.0185,
      "velocity": 100,
      "chip": "ym2612"
    },
    {
      "channel": 1,
      "note": 64,
      "start": 37.0901,
      "duration": 0.0161,
      "velocity": 124,
      "chip": "ym2612"
    },
    {
      "channel": 0,
      "note": 38,
      "start": 37.0918,
      "duration": 0.0161,
      "velocity": 115,
      "chip": "ym2612"
    },
    {
      "channel": 4,
      "note": 84,
      "start": 37.0929,
      "duration": 0.0161,
      "velocity": 94,
      "chip": "ym2612"
    },
    {
      "channel": 3,
      "note": 84,
      "start": 37.0968,
      "duration": 0.0162,
      "velocity": 94,
      "chip": "ym2612"
    },
    {
      "channel": 2,
      "note": 57,
      "start": 37.098,
      "duration": 0.0161,
      "velocity": 100,
      "chip": "ym2612"
    },
    {
      "channel": 1,
      "note": 64,
      "start": 37.1062,
      "duration": 0.0178,
      "velocity": 105,
      "chip": "ym2612"
    },
    {
      "channel": 0,
      "note": 39,
      "start": 37.1079,
      "duration": 0.0178,
      "velocity": 115,
      "chip": "ym2612"
    },
    {
      "channel": 4,
      "note": 84,
      "start": 37.109,
      "duration": 0.0202,
      "velocity": 94,
      "chip": "ym2612"
    },
    {
      "channel": 3,
      "note": 84,
      "start": 37.113,
      "duration": 0.0174,
      "velocity": 94,
      "chip": "ym2612"
    },
    {
      "channel": 2,
      "note": 57,
      "start": 37.114,
      "duration": 0.0178,
      "velocity": 100,
      "chip": "ym2612"
    },
    {
      "channel": 1,
      "note": 105,
      "start": 37.124,
      "duration": 0.0144,
      "velocity": 105,
      "chip": "ym2612"
    },
    {
      "channel": 0,
      "note": 39,
      "start": 37.1257,
      "duration": 0.0144,
      "velocity": 115,
      "chip": "ym2612"
    },
    {
      "channel": 4,
      "note": 84,
      "start": 37.1293,
      "duration": 0.012,
      "velocity": 94,
      "chip": "ym2612"
    },
    {
      "channel": 3,
      "note": 84,
      "start": 37.1304,
      "duration": 0.012,
      "velocity": 94,
      "chip": "ym2612"
    },
    {
      "channel": 2,
      "note": 57,
      "start": 37.1318,
      "duration": 0.0122,
      "velocity": 100,
      "chip": "ym2612"
    },
    {
      "channel": 1,
      "note": 105,
      "start": 37.1384,
      "duration": 0.0161,
      "velocity": 105,
      "chip": "ym2612"
    },
    {
      "channel": 0,
      "note": 40,
      "start": 37.1401,
      "duration": 0.016,
      "velocity": 115,
      "chip": "ym2612"
    },
    {
      "channel": 4,
      "note": 84,
      "start": 37.1413,
      "duration": 0.016,
      "velocity": 94,
      "chip": "ym2612"
    },
    {
      "channel": 3,
      "note": 84,
      "start": 37.1424,
      "duration": 0.016,
      "velocity": 94,
      "chip": "ym2612"
    },
    {
      "channel": 2,
      "note": 57,
      "start": 37.1439,
      "duration": 0.0156,
      "velocity": 100,
      "chip": "ym2612"
    },
    {
      "channel": 1,
      "note": 105,
      "start": 37.1545,
      "duration": 0.0161,
      "velocity": 105,
      "chip": "ym2612"
    },
    {
      "channel": 0,
      "note": 40,
      "start": 37.1562,
      "duration": 0.0161,
      "velocity": 115,
      "chip": "ym2612"
    },
    {
      "channel": 4,
      "note": 84,
      "start": 37.1573,
      "duration": 0.0161,
      "velocity": 94,
      "chip": "ym2612"
    },
    {
      "channel": 3,
      "note": 84,
      "start": 37.1585,
      "duration": 0.0161,
      "velocity": 94,
      "chip": "ym2612"
    },
    {
      "channel": 2,
      "note": 57,
      "start": 37.1596,
      "duration": 0.0161,
      "velocity": 100,
      "chip": "ym2612"
    },
    {
      "channel": 1,
      "note": 105,
      "start": 37.1706,
      "duration": 0.0161,
      "velocity": 105,
      "chip": "ym2612"
    },
    {
      "channel": 0,
      "note": 40,
      "start": 37.1722,
      "duration": 0.0161,
      "velocity": 115,
      "chip": "ym2612"
    },
    {
      "channel": 4,
      "note": 84,
      "start": 37.1734,
      "duration": 0.0161,
      "velocity": 94,
      "chip": "ym2612"
    },
    {
      "channel": 3,
      "note": 84,
      "start": 37.1745,
      "duration": 0.0162,
      "velocity": 94,
      "chip": "ym2612"
    },
    {
      "channel": 2,
      "note": 57,
      "start": 37.1757,
      "duration": 0.0161,
      "velocity": 100,
      "chip": "ym2612"
    },
    {
      "channel": 1,
      "note": 105,
      "start": 37.1867,
      "duration": 0.0161,
      "velocity": 105,
      "chip": "ym2612"
    },
    {
      "channel": 0,
      "note": 41,
      "start": 37.1883,
      "duration": 0.0161,
      "velocity": 115,
      "chip": "ym2612"
    },
    {
      "channel": 4,
      "note": 84,
      "start": 37.1895,
      "duration": 0.0161,
      "velocity": 94,
      "chip": "ym2612"
    },
    {
      "channel": 3,
      "note": 84,
      "start": 37.1907,
      "duration": 0.0161,
      "velocity": 94,
      "chip": "ym2612"
    },
    {
      "channel": 2,
      "note": 57,
      "start": 37.1918,
      "duration": 0.0161,
      "velocity": 100,
      "chip": "ym2612"
    },
    {
      "channel": 1,
      "note": 105,
      "start": 37.2028,
      "duration": 0.0161,
      "velocity": 105,
      "chip": "ym2612"
    },
    {
      "channel": 0,
      "note": 41,
      "start": 37.2044,
      "duration": 0.0161,
      "velocity": 115,
      "chip": "ym2612"
    },
    {
      "channel": 4,
      "note": 84,
      "start": 37.2056,
      "duration": 0.0161,
      "velocity": 94,
      "chip": "ym2612"
    },
    {
      "channel": 3,
      "note": 84,
      "start": 37.2068,
      "duration": 0.0161,
      "velocity": 94,
      "chip": "ym2612"
    },
    {
      "channel": 2,
      "note": 57,
      "start": 37.2079,
      "duration": 0.0161,
      "velocity": 100,
      "chip": "ym2612"
    },
    {
      "channel": 1,
      "note": 105,
      "start": 37.2189,
      "duration": 0.0178,
      "velocity": 124,
      "chip": "ym2612"
    },
    {
      "channel": 0,
      "note": 42,
      "start": 37.2205,
      "duration": 0.0179,
      "velocity": 115,
      "chip": "ym2612"
    },
    {
      "channel": 4,
      "note": 84,
      "start": 37.2217,
      "duration": 0.0178,
      "velocity": 94,
      "chip": "ym2612"
    },
    {
      "channel": 3,
      "note": 84,
      "start": 37.2229,
      "duration": 0.0178,
      "velocity": 94,
      "chip": "ym2612"
    },
    {
      "channel": 2,
      "note": 57,
      "start": 37.224,
      "duration": 0.0181,
      "velocity": 100,
      "chip": "ym2612"
    },
    {
      "channel": 1,
      "note": 64,
      "start": 37.2368,
      "duration": 0.0144,
      "velocity": 124,
      "chip": "ym2612"
    },
    {
      "channel": 0,
      "note": 42,
      "start": 37.2384,
      "duration": 0.0144,
      "velocity": 115,
      "chip": "ym2612"
    },
    {
      "channel": 4,
      "note": 84,
      "start": 37.2395,
      "duration": 0.0144,
      "velocity": 94,
      "chip": "ym2612"
    },
    {
      "channel": 3,
      "note": 84,
      "start": 37.2407,
      "duration": 0.0144,
      "velocity": 94,
      "chip": "ym2612"
    },
    {
      "channel": 2,
      "note": 57,
      "start": 37.2422,
      "duration": 0.0142,
      "velocity": 100,
      "chip": "ym2612"
    },
    {
      "channel": 1,
      "note": 64,
      "start": 37.2512,
      "duration": 0.016,
      "velocity": 124,
      "chip": "ym2612"
    },
    {
      "channel": 0,
      "note": 43,
      "start": 37.2529,
      "duration": 0.016,
      "velocity": 115,
      "chip": "ym2612"
    },
    {
      "channel": 4,
      "note": 84,
      "start": 37.254,
      "duration": 0.016,
      "velocity": 94,
      "chip": "ym2612"
    },
    {
      "channel": 3,
      "note": 84,
      "start": 37.2551,
      "duration": 0.016,
      "velocity": 94,
      "chip": "ym2612"
    },
    {
      "channel": 2,
      "note": 57,
      "start": 37.2563,
      "duration": 0.016,
      "velocity": 100,
      "chip": "ym2612"
    },
    {
      "channel": 1,
      "note": 64,
      "start": 37.2672,
      "duration": 0.0161,
      "velocity": 124,
      "chip": "ym2612"
    },
    {
      "channel": 0,
      "note": 43,
      "start": 37.2689,
      "duration": 0.0161,
      "velocity": 115,
      "chip": "ym2612"
    },
    {
      "channel": 4,
      "note": 84,
      "start": 37.27,
      "duration": 0.0161,
      "velocity": 94,
      "chip": "ym2612"
    },
    {
      "channel": 3,
      "note": 84,
      "start": 37.2712,
      "duration": 0.0161,
      "velocity": 94,
      "chip": "ym2612"
    },
    {
      "channel": 2,
      "note": 57,
      "start": 37.2723,
      "duration": 0.0161,
      "velocity": 100,
      "chip": "ym2612"
    },
    {
      "channel": 1,
      "note": 64,
      "start": 37.2833,
      "duration": 0.0161,
      "velocity": 124,
      "chip": "ym2612"
    },
    {
      "channel": 0,
      "note": 44,
      "start": 37.285,
      "duration": 0.0161,
      "velocity": 115,
      "chip": "ym2612"
    },
    {
      "channel": 4,
      "note": 84,
      "start": 37.2861,
      "duration": 0.0161,
      "velocity": 94,
      "chip": "ym2612"
    },
    {
      "channel": 3,
      "note": 84,
      "start": 37.2873,
      "duration": 0.0162,
      "velocity": 94,
      "chip": "ym2612"
    },
    {
      "channel": 2,
      "note": 57,
      "start": 37.2884,
      "duration": 0.0161,
      "velocity": 100,
      "chip": "ym2612"
    },
    {
      "channel": 1,
      "note": 64,
      "start": 37.2994,
      "duration": 0.0161,
      "velocity": 124,
      "chip": "ym2612"
    },
    {
      "channel": 0,
      "note": 44,
      "start": 37.3011,
      "duration": 0.0161,
      "velocity": 115,
      "chip": "ym2612"
    },
    {
      "channel": 4,
      "note": 84,
      "start": 37.3023,
      "duration": 0.0161,
      "velocity": 94,
      "chip": "ym2612"
    },
    {
      "channel": 3,
      "note": 84,
      "start": 37.3034,
      "duration": 0.0161,
      "velocity": 94,
      "chip": "ym2612"
    },
    {
      "channel": 2,
      "note": 57,
      "start": 37.3045,
      "duration": 0.0161,
      "velocity": 100,
      "chip": "ym2612"
    },
    {
      "channel": 1,
      "note": 64,
      "start": 37.3155,
      "duration": 0.0161,
      "velocity": 124,
      "chip": "ym2612"
    },
    {
      "channel": 0,
      "note": 44,
      "start": 37.3172,
      "duration": 0.0161,
      "velocity": 115,
      "chip": "ym2612"
    },
    {
      "channel": 4,
      "note": 84,
      "start": 37.3184,
      "duration": 0.0161,
      "velocity": 94,
      "chip": "ym2612"
    },
    {
      "channel": 3,
      "note": 84,
      "start": 37.3195,
      "duration": 0.0161,
      "velocity": 94,
      "chip": "ym2612"
    },
    {
      "channel": 2,
      "note": 57,
      "start": 37.3206,
      "duration": 0.0161,
      "velocity": 100,
      "chip": "ym2612"
    },
    {
      "channel": 1,
      "note": 64,
      "start": 37.3316,
      "duration": 0.0177,
      "velocity": 105,
      "chip": "ym2612"
    },
    {
      "channel": 0,
      "note": 45,
      "start": 37.3333,
      "duration": 0.0178,
      "velocity": 115,
      "chip": "ym2612"
    },
    {
      "channel": 4,
      "note": 84,
      "start": 37.3345,
      "duration": 0.0178,
      "velocity": 94,
      "chip": "ym2612"
    },
    {
      "channel": 3,
      "note": 84,
      "start": 37.3356,
      "duration": 0.0178,
      "velocity": 94,
      "chip": "ym2612"
    },
    {
      "channel": 2,
      "note": 57,
      "start": 37.3367,
      "duration": 0.0181,
      "velocity": 100,
      "chip": "ym2612"
    },
    {
      "channel": 1,
      "note": 105,
      "start": 37.3494,
      "duration": 0.0146,
      "velocity": 105,
      "chip": "ym2612"
    },
    {
      "channel": 0,
      "note": 45,
      "start": 37.3511,
      "duration": 0.0146,
      "velocity": 115,
      "chip": "ym2612"
    },
    {
      "channel": 4,
      "note": 84,
      "start": 37.3523,
      "duration": 0.0146,
      "velocity": 94,
      "chip": "ym2612"
    },
    {
      "channel": 3,
      "note": 84,
      "start": 37.3534,
      "duration": 0.0146,
      "velocity": 94,
      "chip": "ym2612"
    },
    {
      "channel": 2,
      "note": 57,
      "start": 37.3548,
      "duration": 0.0144,
      "velocity": 100,
      "chip": "ym2612"
    },
    {
      "channel": 1,
      "note": 105,
      "start": 37.364,
      "duration": 0.0167,
      "velocity": 105,
      "chip": "ym2612"
    },
    {
      "channel": 0,
      "note": 46,
      "start": 37.3657,
      "duration": 0.0166,
      "velocity": 115,
      "chip": "ym2612"
    },
    {
      "channel": 4,
      "note": 84,
      "start": 37.3668,
      "duration": 0.0166,
      "velocity": 94,
      "chip": "ym2612"
    },
    {
      "channel": 3,
      "note": 84,
      "start": 37.368,
      "duration": 0.0166,
      "velocity": 94,
      "chip": "ym2612"
    },
    {
      "channel": 2,
      "note": 57,
      "start": 37.3692,
      "duration": 0.0165,
      "velocity": 100,
      "chip": "ym2612"
    },
    {
      "channel": 1,
      "note": 105,
      "start": 37.3807,
      "duration": 0.0163,
      "velocity": 105,
      "chip": "ym2612"
    },
    {
      "channel": 0,
      "note": 46,
      "start": 37.3823,
      "duration": 0.0163,
      "velocity": 115,
      "chip": "ym2612"
    },
    {
      "channel": 4,
      "note": 84,
      "start": 37.3834,
      "duration": 0.0163,
      "velocity": 94,
      "chip": "ym2612"
    },
    {
      "channel": 3,
      "note": 84,
      "start": 37.3846,
      "duration": 0.0163,
      "velocity": 94,
      "chip": "ym2612"
    },
    {
      "channel": 2,
      "note": 57,
      "start": 37.3857,
      "duration": 0.0163,
      "velocity": 100,
      "chip": "ym2612"
    },
    {
      "channel": 1,
      "note": 105,
      "start": 37.3969,
      "duration": 0.0152,
      "velocity": 105,
      "chip": "ym2612"
    },
    {
      "channel": 0,
      "note": 47,
      "start": 37.3986,
      "duration": 0.0152,
      "velocity": 115,
      "chip": "ym2612"
    },
    {
      "channel": 4,
      "note": 84,
      "start": 37.3997,
      "duration": 0.0152,
      "velocity": 94,
      "chip": "ym2612"
    },
    {
      "channel": 3,
      "note": 84,
      "start": 37.4009,
      "duration": 0.0152,
      "velocity": 94,
      "chip": "ym2612"
    },
    {
      "channel": 2,
      "note": 57,
      "start": 37.402,
      "duration": 0.0152,
      "velocity": 100,
      "chip": "ym2612"
    },
    {
      "channel": 1,
      "note": 105,
      "start": 37.4121,
      "duration": 0.0185,
      "velocity": 105,
      "chip": "ym2612"
    },
    {
      "channel": 0,
      "note": 47,
      "start": 37.4138,
      "duration": 0.0185,
      "velocity": 115,
      "chip": "ym2612"
    },
    {
      "channel": 4,
      "note": 84,
      "start": 37.4149,
      "duration": 0.0185,
      "velocity": 94,
      "chip": "ym2612"
    },
    {
      "channel": 3,
      "note": 84,
      "start": 37.4161,
      "duration": 0.0185,
      "velocity": 94,
      "chip": "ym2612"
    },
    {
      "channel": 2,
      "note": 57,
      "start": 37.4172,
      "duration": 0.0185,
      "velocity": 100,
      "chip": "ym2612"
    },
    {
      "channel": 1,
      "note": 105,
      "start": 37.4307,
      "duration": 0.0164,
      "velocity": 105,
      "chip": "ym2612"
    },
    {
      "channel": 0,
      "note": 47,
      "start": 37.4323,
      "duration": 0.0164,
      "velocity": 115,
      "chip": "ym2612"
    },
    {
      "channel": 4,
      "note": 84,
      "start": 37.4334,
      "duration": 0.0164,
      "velocity": 94,
      "chip": "ym2612"
    },
    {
      "channel": 3,
      "note": 84,
      "start": 37.4346,
      "duration": 0.0164,
      "velocity": 94,
      "chip": "ym2612"
    },
    {
      "channel": 2,
      "note": 57,
      "start": 37.4357,
      "duration": 0.0164,
      "velocity": 100,
      "chip": "ym2612"
    },
    {
      "channel": 1,
      "note": 105,
      "start": 37.4471,
      "duration": 0.018,
      "velocity": 124,
      "chip": "ym2612"
    },
    {
      "channel": 0,
      "note": 48,
      "start": 37.4487,
      "duration": 0.0188,
      "velocity": 115,
      "chip": "ym2612"
    },
    {
      "channel": 4,
      "note": 84,
      "start": 37.4499,
      "duration": 0.0188,
      "velocity": 94,
      "chip": "ym2612"
    },
    {
      "channel": 3,
      "note": 84,
      "start": 37.451,
      "duration": 0.0188,
      "velocity": 94,
      "chip": "ym2612"
    },
    {
      "channel": 2,
      "note": 57,
      "start": 37.4522,
      "duration": 0.019,
      "velocity": 100,
      "chip": "ym2612"
    },
    {
      "channel": 1,
      "note": 78,
      "start": 37.4651,
      "duration": 0.0124,
      "velocity": 124,
      "chip": "ym2612"
    },
    {
      "channel": 0,
      "note": 48,
      "start": 37.4675,
      "duration": 0.0118,
      "velocity": 115,
      "chip": "ym2612"
    },
    {
      "channel": 4,
      "note": 84,
      "start": 37.4686,
      "duration": 0.0118,
      "velocity": 94,
      "chip": "ym2612"
    },
    {
      "channel": 3,
      "note": 84,
      "start": 37.4698,
      "duration": 0.0118,
      "velocity": 94,
      "chip": "ym2612"
    },
    {
      "channel": 2,
      "note": 57,
      "start": 37.4712,
      "duration": 0.0116,
      "velocity": 100,
      "chip": "ym2612"
    },
    {
      "channel": 1,
      "note": 76,
      "start": 37.4774,
      "duration": 0.0157,
      "velocity": 124,
      "chip": "ym2612"
    },
    {
      "channel": 0,
      "note": 49,
      "start": 37.4793,
      "duration": 0.0176,
      "velocity": 1,
      "chip": "ym2612"
    },
    {
      "channel": 4,
      "note": 84,
      "start": 37.4805,
      "duration": 0.0176,
      "velocity": 94,
      "chip": "ym2612"
    },
    {
      "channel": 3,
      "note": 84,
      "start": 37.4816,
      "duration": 0.0176,
      "velocity": 94,
      "chip": "ym2612"
    },
    {
      "channel": 2,
      "note": 57,
      "start": 37.4828,
      "duration": 0.0176,
      "velocity": 100,
      "chip": "ym2612"
    },
    {
      "channel": 1,
      "note": 75,
      "start": 37.4931,
      "duration": 0.0161,
      "velocity": 124,
      "chip": "ym2612"
    },
    {
      "channel": 4,
      "note": 84,
      "start": 37.4981,
      "duration": 0.0153,
      "velocity": 94,
      "chip": "ym2612"
    },
    {
      "channel": 3,
      "note": 84,
      "start": 37.4992,
      "duration": 0.0153,
      "velocity": 94,
      "chip": "ym2612"
    },
    {
      "channel": 2,
      "note": 57,
      "start": 37.5004,
      "duration": 0.0153,
      "velocity": 100,
      "chip": "ym2612"
    },
    {
      "channel": 1,
      "note": 74,
      "start": 37.5092,
      "duration": 0.0161,
      "velocity": 124,
      "chip": "ym2612"
    },
    {
      "channel": 4,
      "note": 84,
      "start": 37.5134,
      "duration": 0.0157,
      "velocity": 94,
      "chip": "ym2612"
    },
    {
      "channel": 3,
      "note": 84,
      "start": 37.5145,
      "duration": 0.0157,
      "velocity": 94,
      "chip": "ym2612"
    },
    {
      "channel": 2,
      "note": 57,
      "start": 37.5156,
      "duration": 0.0157,
      "velocity": 100,
      "chip": "ym2612"
    },
    {
      "channel": 1,
      "note": 72,
      "start": 37.5253,
      "duration": 0.0161,
      "velocity": 124,
      "chip": "ym2612"
    },
    {
      "channel": 4,
      "note": 84,
      "start": 37.529,
      "duration": 0.0137,
      "velocity": 94,
      "chip": "ym2612"
    },
    {
      "channel": 3,
      "note": 84,
      "start": 37.5302,
      "duration": 0.0141,
      "velocity": 94,
      "chip": "ym2612"
    },
    {
      "channel": 2,
      "note": 57,
      "start": 37.5313,
      "duration": 0.0141,
      "velocity": 100,
      "chip": "ym2612"
    },
    {
      "channel": 1,
      "note": 71,
      "start": 37.5414,
      "duration": 0.0161,
      "velocity": 124,
      "chip": "ym2612"
    },
    {
      "channel": 4,
      "note": 84,
      "start": 37.5428,
      "duration": 0.0161,
      "velocity": 94,
      "chip": "ym2612"
    },
    {
      "channel": 3,
      "note": 84,
      "start": 37.5443,
      "duration": 0.0185,
      "velocity": 94,
      "chip": "ym2612"
    },
    {
      "channel": 2,
      "note": 57,
      "start": 37.5454,
      "duration": 0.0185,
      "velocity": 100,
      "chip": "ym2612"
    },
    {
      "channel": 1,
      "note": 70,
      "start": 37.5575,
      "duration": 0.0161,
      "velocity": 124,
      "chip": "ym2612"
    },
    {
      "channel": 4,
      "note": 84,
      "start": 37.5589,
      "duration": 0.0169,
      "velocity": 94,
      "chip": "ym2612"
    },
    {
      "channel": 3,
      "note": 84,
      "start": 37.5628,
      "duration": 0.0169,
      "velocity": 94,
      "chip": "ym2612"
    },
    {
      "channel": 2,
      "note": 57,
      "start": 37.5639,
      "duration": 0.0172,
      "velocity": 100,
      "chip": "ym2612"
    },
    {
      "channel": 1,
      "note": 69,
      "start": 37.5736,
      "duration": 0.0162,
      "velocity": 124,
      "chip": "ym2612"
    },
    {
      "channel": 4,
      "note": 81,
      "start": 37.5758,
      "duration": 0.0154,
      "velocity": 94,
      "chip": "ym2612"
    },
    {
      "channel": 3,
      "note": 84,
      "start": 37.5797,
      "duration": 0.0127,
      "velocity": 94,
      "chip": "ym2612"
    },
    {
      "channel": 2,
      "note": 57,
      "start": 37.5811,
      "duration": 0.0148,
      "velocity": 100,
      "chip": "ym2612"
    },
    {
      "channel": 1,
      "note": 68,
      "start": 37.5898,
      "duration": 0.0161,
      "velocity": 124,
      "chip": "ym2612"
    },
    {
      "channel": 4,
      "note": 81,
      "start": 37.5912,
      "duration": 0.016,
      "velocity": 94,
      "chip": "ym2612"
    },
    {
      "channel": 3,
      "note": 84,
      "start": 37.5924,
      "duration": 0.016,
      "velocity": 94,
      "chip": "ym2612"
    },
    {
      "channel": 2,
      "note": 57,
      "start": 37.5959,
      "duration": 0.0135,
      "velocity": 100,
      "chip": "ym2612"
    },
    {
      "channel": 1,
      "note": 66,
      "start": 37.6058,
      "duration": 0.0161,
      "velocity": 124,
      "chip": "ym2612"
    },
    {
      "channel": 4,
      "note": 81,
      "start": 37.6072,
      "duration": 0.0161,
      "velocity": 94,
      "chip": "ym2612"
    },
    {
      "channel": 3,
      "note": 84,
      "start": 37.6083,
      "duration": 0.0161,
      "velocity": 94,
      "chip": "ym2612"
    },
    {
      "channel": 2,
      "note": 57,
      "start": 37.6095,
      "duration": 0.0161,
      "velocity": 100,
      "chip": "ym2612"
    },
    {
      "channel": 1,
      "note": 65,
      "start": 37.6219,
      "duration": 0.0161,
      "velocity": 124,
      "chip": "ym2612"
    },
    {
      "channel": 4,
      "note": 81,
      "start": 37.6233,
      "duration": 0.0162,
      "velocity": 94,
      "chip": "ym2612"
    },
    {
      "channel": 3,
      "note": 84,
      "start": 37.6244,
      "duration": 0.0161,
      "velocity": 94,
      "chip": "ym2612"
    },
    {
      "channel": 2,
      "note": 57,
      "start": 37.6256,
      "duration": 0.0162,
      "velocity": 100,
      "chip": "ym2612"
    },
    {
      "channel": 1,
      "note": 64,
      "start": 37.638,
      "duration": 0.0161,
      "velocity": 124,
      "chip": "ym2612"
    },
    {
      "channel": 4,
      "note": 81,
      "start": 37.6394,
      "duration": 0.0161,
      "velocity": 94,
      "chip": "ym2612"
    },
    {
      "channel": 3,
      "note": 84,
      "start": 37.6406,
      "duration": 0.0161,
      "velocity": 94,
      "chip": "ym2612"
    },
    {
      "channel": 2,
      "note": 57,
      "start": 37.6417,
      "duration": 0.0161,
      "velocity": 100,
      "chip": "ym2612"
    },
    {
      "channel": 1,
      "note": 62,
      "start": 37.6541,
      "duration": 0.0161,
      "velocity": 124,
      "chip": "ym2612"
    },
    {
      "channel": 4,
      "note": 81,
      "start": 37.6555,
      "duration": 0.0161,
      "velocity": 94,
      "chip": "ym2612"
    },
    {
      "channel": 3,
      "note": 84,
      "start": 37.6567,
      "duration": 0.0161,
      "velocity": 94,
      "chip": "ym2612"
    },
    {
      "channel": 2,
      "note": 57,
      "start": 37.6578,
      "duration": 0.0161,
      "velocity": 100,
      "chip": "ym2612"
    },
    {
      "channel": 1,
      "note": 61,
      "start": 37.6702,
      "duration": 0.0161,
      "velocity": 124,
      "chip": "ym2612"
    },
    {
      "channel": 4,
      "note": 81,
      "start": 37.6716,
      "duration": 0.0166,
      "velocity": 94,
      "chip": "ym2612"
    },
    {
      "channel": 3,
      "note": 84,
      "start": 37.6728,
      "duration": 0.0168,
      "velocity": 94,
      "chip": "ym2612"
    },
    {
      "channel": 2,
      "note": 57,
      "start": 37.6739,
      "duration": 0.0171,
      "velocity": 100,
      "chip": "ym2612"
    },
    {
      "channel": 1,
      "note": 60,
      "start": 37.6863,
      "duration": 0.0161,
      "velocity": 124,
      "chip": "ym2612"
    },
    {
      "channel": 4,
      "note": 81,
      "start": 37.6882,
      "duration": 0.0157,
      "velocity": 94,
      "chip": "ym2612"
    },
    {
      "channel": 3,
      "note": 81,
      "start": 37.6896,
      "duration": 0.0155,
      "velocity": 94,
      "chip": "ym2612"
    },
    {
      "channel": 2,
      "note": 50,
      "start": 37.6911,
      "duration": 0.0151,
      "velocity": 100,
      "chip": "ym2612"
    },
    {
      "channel": 1,
      "note": 59,
      "start": 37.7024,
      "duration": 0.0161,
      "velocity": 124,
      "chip": "ym2612"
    },
    {
      "channel": 4,
      "note": 81,
      "start": 37.7039,
      "duration": 0.016,
      "velocity": 94,
      "chip": "ym2612"
    },
    {
      "channel": 3,
      "note": 81,
      "start": 37.7051,
      "duration": 0.016,
      "velocity": 94,
      "chip": "ym2612"
    },
    {
      "channel": 2,
      "note": 50,
      "start": 37.7062,
      "duration": 0.016,
      "velocity": 100,
      "chip": "ym2612"
    },
    {
      "channel": 1,
      "note": 57,
      "start": 37.7185,
      "duration": 0.0161,
      "velocity": 124,
      "chip": "ym2612"
    },
    {
      "channel": 4,
      "note": 81,
      "start": 37.7199,
      "duration": 0.0161,
      "velocity": 94,
      "chip": "ym2612"
    },
    {
      "channel": 3,
      "note": 81,
      "start": 37.721,
      "duration": 0.0161,
      "velocity": 94,
      "chip": "ym2612"
    },
    {
      "channel": 2,
      "note": 50,
      "start": 37.7222,
      "duration": 0.0161,
      "velocity": 100,
      "chip": "ym2612"
    },
    {
      "channel": 1,
      "note": 56,
      "start": 37.7346,
      "duration": 0.0161,
      "velocity": 124,
      "chip": "ym2612"
    },
    {
      "channel": 4,
      "note": 81,
      "start": 37.736,
      "duration": 0.0161,
      "velocity": 94,
      "chip": "ym2612"
    },
    {
      "channel": 3,
      "note": 81,
      "start": 37.7371,
      "duration": 0.0161,
      "velocity": 94,
      "chip": "ym2612"
    },
    {
      "channel": 2,
      "note": 50,
      "start": 37.7383,
      "duration": 0.0161,
      "velocity": 100,
      "chip": "ym2612"
    },
    {
      "channel": 1,
      "note": 55,
      "start": 37.7507,
      "duration": 0.0161,
      "velocity": 124,
      "chip": "ym2612"
    },
    {
      "channel": 4,
      "note": 81,
      "start": 37.7521,
      "duration": 0.0161,
      "velocity": 94,
      "chip": "ym2612"
    },
    {
      "channel": 3,
      "note": 81,
      "start": 37.7532,
      "duration": 0.0161,
      "velocity": 94,
      "chip": "ym2612"
    },
    {
      "channel": 2,
      "note": 50,
      "start": 37.7544,
      "duration": 0.0161,
      "velocity": 100,
      "chip": "ym2612"
    },
    {
      "channel": 1,
      "note": 53,
      "start": 37.7668,
      "duration": 0.0161,
      "velocity": 124,
      "chip": "ym2612"
    },
    {
      "channel": 4,
      "note": 81,
      "start": 37.7682,
      "duration": 0.0161,
      "velocity": 94,
      "chip": "ym2612"
    },
    {
      "channel": 3,
      "note": 81,
      "start": 37.7693,
      "duration": 0.0162,
      "velocity": 94,
      "chip": "ym2612"
    },
    {
      "channel": 2,
      "note": 50,
      "start": 37.7705,
      "duration": 0.0161,
      "velocity": 100,
      "chip": "ym2612"
    },
    {
      "channel": 1,
      "note": 52,
      "start": 37.7829,
      "duration": 0.0161,
      "velocity": 124,
      "chip": "ym2612"
    },
    {
      "channel": 4,
      "note": 81,
      "start": 37.7843,
      "duration": 0.0201,
      "velocity": 94,
      "chip": "ym2612"
    },
    {
      "channel": 3,
      "note": 81,
      "start": 37.7855,
      "duration": 0.0201,
      "velocity": 94,
      "chip": "ym2612"
    },
    {
      "channel": 2,
      "note": 50,
      "start": 37.7866,
      "duration": 0.0203,
      "velocity": 100,
      "chip": "ym2612"
    },
    {
      "channel": 1,
      "note": 51,
      "start": 37.799,
      "duration": 0.0153,
      "velocity": 1,
      "chip": "ym2612"
    },
    {
      "channel": 0,
      "note": 78,
      "start": 37.8033,
      "duration": 0.015,
      "velocity": 127,
      "chip": "ym2612"
    },
    {
      "channel": 4,
      "note": 81,
      "start": 37.8044,
      "duration": 0.0149,
      "velocity": 94,
      "chip": "ym2612"
    },
    {
      "channel": 3,
      "note": 81,
      "start": 37.8056,
      "duration": 0.015,
      "velocity": 94,
      "chip": "ym2612"
    },
    {
      "channel": 2,
      "note": 50,
      "start": 37.807,
      "duration": 0.0148,
      "velocity": 100,
      "chip": "ym2612"
    },
    {
      "channel": 1,
      "note": 51,
      "start": 37.8165,
      "duration": 0.0142,
      "velocity": 105,
      "chip": "ym2612"
    },
    {
      "channel": 0,
      "note": 76,
      "start": 37.8183,
      "duration": 0.0141,
      "velocity": 127,
      "chip": "ym2612"
    },
    {
      "channel": 4,
      "note": 81,
      "start": 37.8194,
      "duration": 0.0142,
      "velocity": 94,
      "chip": "ym2612"
    },
    {
      "channel": 3,
      "note": 81,
      "start": 37.8205,
      "duration": 0.0142,
      "velocity": 94,
      "chip": "ym2612"
    },
    {
      "channel": 2,
      "note": 50,
      "start": 37.8217,
      "duration": 0.0141,
      "velocity": 100,
      "chip": "ym2612"
    },
    {
      "channel": 1,
      "note": 105,
      "start": 37.8307,
      "duration": 0.0166,
      "velocity": 105,
      "chip": "ym2612"
    },
    {
      "channel": 0,
      "note": 75,
      "start": 37.8324,
      "duration": 0.0166,
      "velocity": 127,
      "chip": "ym2612"
    },
    {
      "channel": 4,
      "note": 81,
      "start": 37.8336,
      "duration": 0.0165,
      "velocity": 94,
      "chip": "ym2612"
    },
    {
      "channel": 3,
      "note": 81,
      "start": 37.8347,
      "duration": 0.0166,
      "velocity": 94,
      "chip": "ym2612"
    },
    {
      "channel": 2,
      "note": 50,
      "start": 37.8358,
      "duration": 0.0166,
      "velocity": 100,
      "chip": "ym2612"
    },
    {
      "channel": 1,
      "note": 105,
      "start": 37.8473,
      "duration": 0.0163,
      "velocity": 105,
      "chip": "ym2612"
    },
    {
      "channel": 0,
      "note": 73,
      "start": 37.849,
      "duration": 0.0163,
      "velocity": 127,
      "chip": "ym2612"
    },
    {
      "channel": 4,
      "note": 81,
      "start": 37.8501,
      "duration": 0.0163,
      "velocity": 94,
      "chip": "ym2612"
    },
    {
      "channel": 3,
      "note": 81,
      "start": 37.8513,
      "duration": 0.0163,
      "velocity": 94,
      "chip": "ym2612"
    },
    {
      "channel": 2,
      "note": 50,
      "start": 37.8524,
      "duration": 0.0163,
      "velocity": 100,
      "chip": "ym2612"
    },
    {
      "channel": 1,
      "note": 105,
      "start": 37.8636,
      "duration": 0.0154,
      "velocity": 105,
      "chip": "ym2612"
    },
    {
      "channel": 0,
      "note": 71,
      "start": 37.8653,
      "duration": 0.0154,
      "velocity": 127,
      "chip": "ym2612"
    },
    {
      "channel": 4,
      "note": 81,
      "start": 37.8664,
      "duration": 0.0155,
      "velocity": 94,
      "chip": "ym2612"
    },
    {
      "channel": 3,
      "note": 81,
      "start": 37.8676,
      "duration": 0.0154,
      "velocity": 94,
      "chip": "ym2612"
    },
    {
      "channel": 2,
      "note": 50,
      "start": 37.8687,
      "duration": 0.0155,
      "velocity": 100,
      "chip": "ym2612"
    },
    {
      "channel": 1,
      "note": 105,
      "start": 37.879,
      "duration": 0.0183,
      "velocity": 105,
      "chip": "ym2612"
    },
    {
      "channel": 0,
      "note": 70,
      "start": 37.8807,
      "duration": 0.0183,
      "velocity": 127,
      "chip": "ym2612"
    },
    {
      "channel": 4,
      "note": 81,
      "start": 37.8819,
      "duration": 0.0183,
      "velocity": 94,
      "chip": "ym2612"
    },
    {
      "channel": 3,
      "note": 81,
      "start": 37.883,
      "duration": 0.0183,
      "velocity": 94,
      "chip": "ym2612"
    },
    {
      "channel": 2,
      "note": 50,
      "start": 37.8841,
      "duration": 0.0183,
      "velocity": 100,
      "chip": "ym2612"
    },
    {
      "channel": 1,
      "note": 105,
      "start": 37.8973,
      "duration": 0.0183,
      "velocity": 124,
      "chip": "ym2612"
    },
    {
      "channel": 0,
      "note": 68,
      "start": 37.899,
      "duration": 0.0202,
      "velocity": 115,
      "chip": "ym2612"
    },
    {
      "channel": 4,
      "note": 81,
      "start": 37.9001,
      "duration": 0.0202,
      "velocity": 94,
      "chip": "ym2612"
    },
    {
      "channel": 3,
      "note": 81,
      "start": 37.9013,
      "duration": 0.0202,
      "velocity": 94,
      "chip": "ym2612"
    },
    {
      "channel": 2,
      "note": 50,
      "start": 37.9024,
      "duration": 0.0204,
      "velocity": 100,
      "chip": "ym2612"
    },
    {
      "channel": 1,
      "note": 64,
      "start": 37.9157,
      "duration": 0.0141,
      "velocity": 124,
      "chip": "ym2612"
    },
    {
      "channel": 0,
      "note": 36,
      "start": 37.9192,
      "duration": 0.0123,
      "velocity": 115,
      "chip": "ym2612"
    },
    {
      "channel": 4,
      "note": 81,
      "start": 37.9203,
      "duration": 0.0123,
      "velocity": 94,
      "chip": "ym2612"
    },
    {
      "channel": 3,
      "note": 81,
      "start": 37.9215,
      "duration": 0.0123,
      "velocity": 94,
      "chip": "ym2612"
    },
    {
      "channel": 2,
      "note": 52,
      "start": 37.9229,
      "duration": 0.0122,
      "velocity": 100,
      "chip": "ym2612"
    },
    {
      "channel": 1,
      "note": 64,
      "start": 37.9298,
      "duration": 0.0139,
      "velocity": 124,
      "chip": "ym2612"
    },
    {
      "channel": 0,
      "note": 36,
      "start": 37.9315,
      "duration": 0.0139,
      "velocity": 115,
      "chip": "ym2612"
    },
    {
      "channel": 4,
      "note": 81,
      "start": 37.9327,
      "duration": 0.0139,
      "velocity": 94,
      "chip": "ym2612"
    },
    {
      "channel": 3,
      "note": 81,
      "start": 37.9338,
      "duration": 0.0139,
      "velocity": 94,
      "chip": "ym2612"
    },
    {
      "channel": 2,
      "note": 52,
      "start": 37.935,
      "duration": 0.0139,
      "velocity": 100,
      "chip": "ym2612"
    },
    {
      "channel": 1,
      "note": 64,
      "start": 37.9437,
      "duration": 0.0158,
      "velocity": 124,
      "chip": "ym2612"
    },
    {
      "channel": 0,
      "note": 37,
      "start": 37.9455,
      "duration": 0.0185,
      "velocity": 115,
      "chip": "ym2612"
    },
    {
      "channel": 4,
      "note": 81,
      "start": 37.9466,
      "duration": 0.0185,
      "velocity": 94,
      "chip": "ym2612"
    },
    {
      "channel": 3,
      "note": 81,
      "start": 37.9478,
      "duration": 0.0185,
      "velocity": 94,
      "chip": "ym2612"
    },
    {
      "channel": 2,
      "note": 52,
      "start": 37.9489,
      "duration": 0.0185,
      "velocity": 100,
      "chip": "ym2612"
    },
    {
      "channel": 1,
      "note": 64,
      "start": 37.9595,
      "duration": 0.0161,
      "velocity": 124,
      "chip": "ym2612"
    },
    {
      "channel": 0,
      "note": 37,
      "start": 37.964,
      "duration": 0.0161,
      "velocity": 115,
      "chip": "ym2612"
    },
    {
      "channel": 4,
      "note": 81,
      "start": 37.9651,
      "duration": 0.0161,
      "velocity": 94,
      "chip": "ym2612"
    },
    {
      "channel": 3,
      "note": 81,
      "start": 37.9663,
      "duration": 0.0161,
      "velocity": 94,
      "chip": "ym2612"
    },
    {
      "channel": 2,
      "note": 52,
      "start": 37.9674,
      "duration": 0.0161,
      "velocity": 100,
      "chip": "ym2612"
    },
    {
      "channel": 1,
      "note": 64,
      "start": 37.9756,
      "duration": 0.0162,
      "velocity": 124,
      "chip": "ym2612"
    },
    {
      "channel": 0,
      "note": 38,
      "start": 37.9801,
      "duration": 0.0158,
      "velocity": 115,
      "chip": "ym2612"
    },
    {
      "channel": 4,
      "note": 81,
      "start": 37.9812,
      "duration": 0.0158,
      "velocity": 94,
      "chip": "ym2612"
    },
    {
      "channel": 3,
      "note": 81,
      "start": 37.9824,
      "duration": 0.0158,
      "velocity": 94,
      "chip": "ym2612"
    },
    {
      "channel": 2,
      "note": 52,
      "start": 37.9835,
      "duration": 0.0158,
      "velocity": 100,
      "chip": "ym2612"
    },
    {
      "channel": 1,
      "note": 64,
      "start": 37.9918,
      "duration": 0.0161,
      "velocity": 124,
      "chip": "ym2612"
    },
    {
      "channel": 0,
      "note": 38,
      "start": 37.9959,
      "duration": 0.0137,
      "velocity": 115,
      "chip": "ym2612"
    },
    {
      "channel": 4,
      "note": 81,
      "start": 37.997,
      "duration": 0.0141,
      "velocity": 94,
      "chip": "ym2612"
    },
    {
      "channel": 3,
      "note": 81,
      "start": 37.9981,
      "duration": 0.0141,
      "velocity": 94,
      "chip": "ym2612"
    },
    {
      "channel": 2,
      "note": 52,
      "start": 37.9993,
      "duration": 0.014,
      "velocity": 100,
      "chip": "ym2612"
    },
    {
      "channel": 1,
      "note": 64,
      "start": 38.0079,
      "duration": 0.0178,
      "velocity": 105,
      "chip": "ym2612"
    },
    {
      "channel": 0,
      "note": 39,
      "start": 38.0095,
      "duration": 0.0205,
      "velocity": 115,
      "chip": "ym2612"
    },
    {
      "channel": 4,
      "note": 81,
      "start": 38.0111,
      "duration": 0.0204,
      "velocity": 94,
      "chip": "ym2612"
    },
    {
      "channel": 3,
      "note": 81,
      "start": 38.0122,
      "duration": 0.0205,
      "velocity": 94,
      "chip": "ym2612"
    },
    {
      "channel": 2,
      "note": 52,
      "start": 38.0133,
      "duration": 0.0208,
      "velocity": 100,
      "chip": "ym2612"
    },
    {
      "channel": 1,
      "note": 105,
      "start": 38.0257,
      "duration": 0.0144,
      "velocity": 105,
      "chip": "ym2612"
    },
    {
      "channel": 0,
      "note": 39,
      "start": 38.0301,
      "duration": 0.0117,
      "velocity": 115,
      "chip": "ym2612"
    },
    {
      "channel": 4,
      "note": 88,
      "start": 38.0315,
      "duration": 0.0115,
      "velocity": 94,
      "chip": "ym2612"
    },
    {
      "channel": 3,
      "note": 81,
      "start": 38.0327,
      "duration": 0.0142,
      "velocity": 94,
      "chip": "ym2612"
    },
    {
      "channel": 2,
      "note": 52,
      "start": 38.0341,
      "duration": 0.014,
      "velocity": 100,
      "chip": "ym2612"
    },
    {
      "channel": 1,
      "note": 105,
      "start": 38.0401,
      "duration": 0.016,
      "velocity": 105,
      "chip": "ym2612"
    },
    {
      "channel": 0,
      "note": 40,
      "start": 38.0418,
      "duration": 0.016,
      "velocity": 115,
      "chip": "ym2612"
    },
    {
      "channel": 4,
      "note": 88,
      "start": 38.043,
      "duration": 0.016,
      "velocity": 94,
      "chip": "ym2612"
    },
    {
      "channel": 3,
      "note": 81,
      "start": 38.0469,
      "duration": 0.0156,
      "velocity": 94,
      "chip": "ym2612"
    },
    {
      "channel": 2,
      "note": 52,
      "start": 38.0481,
      "duration": 0.0156,
      "velocity": 100,
      "chip": "ym2612"
    },
    {
      "channel": 1,
      "note": 105,
      "start": 38.0562,
      "duration": 0.0161,
      "velocity": 105,
      "chip": "ym2612"
    },
    {
      "channel": 0,
      "note": 40,
      "start": 38.0578,
      "duration": 0.0161,
      "velocity": 115,
      "chip": "ym2612"
    },
    {
      "channel": 4,
      "note": 88,
      "start": 38.059,
      "duration": 0.016,
      "velocity": 94,
      "chip": "ym2612"
    },
    {
      "channel": 3,
      "note": 81,
      "start": 38.0625,
      "duration": 0.0137,
      "velocity": 94,
      "chip": "ym2612"
    },
    {
      "channel": 2,
      "note": 52,
      "start": 38.0637,
      "duration": 0.014,
      "velocity": 100,
      "chip": "ym2612"
    },
    {
      "channel": 1,
      "note": 105,
      "start": 38.0722,
      "duration": 0.0161,
      "velocity": 105,
      "chip": "ym2612"
    },
    {
      "channel": 0,
      "note": 40,
      "start": 38.0739,
      "duration": 0.0161,
      "velocity": 115,
      "chip": "ym2612"
    },
    {
      "channel": 4,
      "note": 88,
      "start": 38.0751,
      "duration": 0.0161,
      "velocity": 94,
      "chip": "ym2612"
    },
    {
      "channel": 3,
      "note": 81,
      "start": 38.0762,
      "duration": 0.0162,
      "velocity": 94,
      "chip": "ym2612"
    },
    {
      "channel": 2,
      "note": 52,
      "start": 38.0777,
      "duration": 0.0186,
      "velocity": 100,
      "chip": "ym2612"
    },
    {
      "channel": 1,
      "note": 105,
      "start": 38.0883,
      "duration": 0.0161,
      "velocity": 105,
      "chip": "ym2612"
    },
    {
      "channel": 0,
      "note": 41,
      "start": 38.09,
      "duration": 0.0161,
      "velocity": 115,
      "chip": "ym2612"
    },
    {
      "channel": 4,
      "note": 88,
      "start": 38.0912,
      "duration": 0.0161,
      "velocity": 94,
      "chip": "ym2612"
    },
    {
      "channel": 3,
      "note": 81,
      "start": 38.0924,
      "duration": 0.0161,
      "velocity": 94,
      "chip": "ym2612"
    },
    {
      "channel": 2,
      "note": 52,
      "start": 38.0962,
      "duration": 0.0133,
      "velocity": 100,
      "chip": "ym2612"
    },
    {
      "channel": 1,
      "note": 105,
      "start": 38.1044,
      "duration": 0.0161,
      "velocity": 105,
      "chip": "ym2612"
    },
    {
      "channel": 0,
      "note": 41,
      "start": 38.1061,
      "duration": 0.0161,
      "velocity": 115,
      "chip": "ym2612"
    },
    {
      "channel": 4,
      "note": 88,
      "start": 38.1073,
      "duration": 0.0161,
      "velocity": 94,
      "chip": "ym2612"
    },
    {
      "channel": 3,
      "note": 81,
      "start": 38.1085,
      "duration": 0.0161,
      "velocity": 94,
      "chip": "ym2612"
    },
    {
      "channel": 2,
      "note": 52,
      "start": 38.1095,
      "duration": 0.0161,
      "velocity": 100,
      "chip": "ym2612"
    },
    {
      "channel": 1,
      "note": 105,
      "start": 38.1205,
      "duration": 0.0178,
      "velocity": 124,
      "chip": "ym2612"
    },
    {
      "channel": 0,
      "note": 42,
      "start": 38.1222,
      "duration": 0.0179,
      "velocity": 115,
      "chip": "ym2612"
    },
    {
      "channel": 4,
      "note": 88,
      "start": 38.1234,
      "duration": 0.0179,
      "velocity": 94,
      "chip": "ym2612"
    },
    {
      "channel": 3,
      "note": 81,
      "start": 38.1245,
      "duration": 0.0181,
      "velocity": 94,
      "chip": "ym2612"
    },
    {
      "channel": 2,
      "note": 52,
      "start": 38.1256,
      "duration": 0.0188,
      "velocity": 100,
      "chip": "ym2612"
    },
    {
      "channel": 1,
      "note": 64,
      "start": 38.1384,
      "duration": 0.0144,
      "velocity": 124,
      "chip": "ym2612"
    },
    {
      "channel": 0,
      "note": 42,
      "start": 38.1401,
      "duration": 0.0144,
      "velocity": 115,
      "chip": "ym2612"
    },
    {
      "channel": 4,
      "note": 88,
      "start": 38.1413,
      "duration": 0.0144,
      "velocity": 94,
      "chip": "ym2612"
    },
    {
      "channel": 3,
      "note": 88,
      "start": 38.1427,
      "duration": 0.0142,
      "velocity": 94,
      "chip": "ym2612"
    },
    {
      "channel": 2,
      "note": 52,
      "start": 38.1444,
      "duration": 0.0137,
      "velocity": 100,
      "chip": "ym2612"
    },
    {
      "channel": 1,
      "note": 64,
      "start": 38.1529,
      "duration": 0.016,
      "velocity": 124,
      "chip": "ym2612"
    },
    {
      "channel": 0,
      "note": 43,
      "start": 38.1545,
      "duration": 0.016,
      "velocity": 115,
      "chip": "ym2612"
    },
    {
      "channel": 4,
      "note": 88,
      "start": 38.1556,
      "duration": 0.016,
      "velocity": 94,
      "chip": "ym2612"
    },
    {
      "channel": 3,
      "note": 88,
      "start": 38.1568,
      "duration": 0.016,
      "velocity": 94,
      "chip": "ym2612"
    },
    {
      "channel": 2,
      "note": 52,
      "start": 38.1581,
      "duration": 0.0159,
      "velocity": 100,
      "chip": "ym2612"
    },
    {
      "channel": 1,
      "note": 64,
      "start": 38.1689,
      "duration": 0.0161,
      "velocity": 124,
      "chip": "ym2612"
    },
    {
      "channel": 0,
      "note": 43,
      "start": 38.1705,
      "duration": 0.0161,
      "velocity": 115,
      "chip": "ym2612"
    },
    {
      "channel": 4,
      "note": 88,
      "start": 38.1717,
      "duration": 0.0162,
      "velocity": 94,
      "chip": "ym2612"
    },
    {
      "channel": 3,
      "note": 88,
      "start": 38.1728,
      "duration": 0.0161,
      "velocity": 94,
      "chip": "ym2612"
    },
    {
      "channel": 2,
      "note": 52,
      "start": 38.174,
      "duration": 0.0161,
      "velocity": 100,
      "chip": "ym2612"
    },
    {
      "channel": 1,
      "note": 64,
      "start": 38.185,
      "duration": 0.0161,
      "velocity": 124,
      "chip": "ym2612"
    },
    {
      "channel": 0,
      "note": 44,
      "start": 38.1866,
      "duration": 0.0161,
      "velocity": 115,
      "chip": "ym2612"
    },
    {
      "channel": 4,
      "note": 88,
      "start": 38.1878,
      "duration": 0.0161,
      "velocity": 94,
      "chip": "ym2612"
    },
    {
      "channel": 3,
      "note": 88,
      "start": 38.189,
      "duration": 0.0161,
      "velocity": 94,
      "chip": "ym2612"
    },
    {
      "channel": 2,
      "note": 52,
      "start": 38.1901,
      "duration": 0.0161,
      "velocity": 100,
      "chip": "ym2612"
    },
    {
      "channel": 1,
      "note": 64,
      "start": 38.2011,
      "duration": 0.0161,
      "velocity": 124,
      "chip": "ym2612"
    },
    {
      "channel": 0,
      "note": 44,
      "start": 38.2027,
      "duration": 0.0161,
      "velocity": 115,
      "chip": "ym2612"
    },
    {
      "channel": 4,
      "note": 88,
      "start": 38.2039,
      "duration": 0.0161,
      "velocity": 94,
      "chip": "ym2612"
    },
    {
      "channel": 3,
      "note": 88,
      "start": 38.2051,
      "duration": 0.0161,
      "velocity": 94,
      "chip": "ym2612"
    },
    {
      "channel": 2,
      "note": 52,
      "start": 38.2062,
      "duration": 0.0161,
      "velocity": 100,
      "chip": "ym2612"
    },
    {
      "channel": 1,
      "note": 64,
      "start": 38.2172,
      "duration": 0.0161,
      "velocity": 124,
      "chip": "ym2612"
    },
    {
      "channel": 0,
      "note": 44,
      "start": 38.2188,
      "duration": 0.0161,
      "velocity": 115,
      "chip": "ym2612"
    },
    {
      "channel": 4,
      "note": 88,
      "start": 38.22,
      "duration": 0.0161,
      "velocity": 94,
      "chip": "ym2612"
    },
    {
      "channel": 3,
      "note": 88,
      "start": 38.2212,
      "duration": 0.0161,
      "velocity": 94,
      "chip": "ym2612"
    },
    {
      "channel": 2,
      "note": 52,
      "start": 38.2222,
      "duration": 0.0161,
      "velocity": 100,
      "chip": "ym2612"
    },
    {
      "channel": 1,
      "note": 64,
      "start": 38.2333,
      "duration": 0.0178,
      "velocity": 105,
      "chip": "ym2612"
    },
    {
      "channel": 0,
      "note": 45,
      "start": 38.2349,
      "duration": 0.0179,
      "velocity": 115,
      "chip": "ym2612"
    },
    {
      "channel": 4,
      "note": 88,
      "start": 38.2361,
      "duration": 0.0178,
      "velocity": 94,
      "chip": "ym2612"
    },
    {
      "channel": 3,
      "note": 88,
      "start": 38.2373,
      "duration": 0.0178,
      "velocity": 94,
      "chip": "ym2612"
    },
    {
      "channel": 2,
      "note": 52,
      "start": 38.2383,
      "duration": 0.0181,
      "velocity": 100,
      "chip": "ym2612"
    },
    {
      "channel": 1,
      "note": 105,
      "start": 38.2511,
      "duration": 0.0144,
      "velocity": 105,
      "chip": "ym2612"
    },
    {
      "channel": 0,
      "note": 45,
      "start": 38.2528,
      "duration": 0.0144,
      "velocity": 115,
      "chip": "ym2612"
    },
    {
      "channel": 4,
      "note": 88,
      "start": 38.2539,
      "duration": 0.0144,
      "velocity": 94,
      "chip": "ym2612"
    },
    {
      "channel": 3,
      "note": 88,
      "start": 38.2551,
      "duration": 0.0144,
      "velocity": 94,
      "chip": "ym2612"
    },
    {
      "channel": 2,
      "note": 52,
      "start": 38.2565,
      "duration": 0.0141,
      "velocity": 100,
      "chip": "ym2612"
    },
    {
      "channel": 1,
      "note": 105,
      "start": 38.2655,
      "duration": 0.016,
      "velocity": 105,
      "chip": "ym2612"
    },
    {
      "channel": 0,
      "note": 46,
      "start": 38.2672,
      "duration": 0.016,
      "velocity": 115,
      "chip": "ym2612"
    },
    {
      "channel": 4,
      "note": 88,
      "start": 38.2684,
      "duration": 0.016,
      "velocity": 94,
      "chip": "ym2612"
    },
    {
      "channel": 3,
      "note": 88,
      "start": 38.2695,
      "duration": 0.016,
      "velocity": 94,
      "chip": "ym2612"
    },
    {
      "channel": 2,
      "note": 52,
      "start": 38.2707,
      "duration": 0.016,
      "velocity": 100,
      "chip": "ym2612"
    },
    {
      "channel": 1,
      "note": 105,
      "start": 38.2815,
      "duration": 0.0161,
      "velocity": 105,
      "chip": "ym2612"
    },
    {
      "channel": 0,
      "note": 46,
      "start": 38.2832,
      "duration": 0.0161,
      "velocity": 115,
      "chip": "ym2612"
    },
    {
      "channel": 4,
      "note": 88,
      "start": 38.2844,
      "duration": 0.0161,
      "velocity": 94,
      "chip": "ym2612"
    },
    {
      "channel": 3,
      "note": 88,
      "start": 38.2856,
      "duration": 0.0161,
      "velocity": 94,
      "chip": "ym2612"
    },
    {
      "channel": 2,
      "note": 52,
      "start": 38.2866,
      "duration": 0.0162,
      "velocity": 100,
      "chip": "ym2612"
    },
    {
      "channel": 1,
      "note": 105,
      "start": 38.2976,
      "duration": 0.0163,
      "velocity": 105,
      "chip": "ym2612"
    },
    {
      "channel": 0,
      "note": 47,
      "start": 38.2993,
      "duration": 0.0163,
      "velocity": 115,
      "chip": "ym2612"
    },
    {
      "channel": 4,
      "note": 88,
      "start": 38.3005,
      "duration": 0.0163,
      "velocity": 94,
      "chip": "ym2612"
    },
    {
      "channel": 3,
      "note": 88,
      "start": 38.3016,
      "duration": 0.0163,
      "velocity": 94,
      "chip": "ym2612"
    },
    {
      "channel": 2,
      "note": 52,
      "start": 38.3028,
      "duration": 0.0163,
      "velocity": 100,
      "chip": "ym2612"
    },
    {
      "channel": 1,
      "note": 105,
      "start": 38.314,
      "duration": 0.0163,
      "velocity": 105,
      "chip": "ym2612"
    },
    {
      "channel": 0,
      "note": 47,
      "start": 38.3156,
      "duration": 0.0163,
      "velocity": 115,
      "chip": "ym2612"
    },
    {
      "channel": 4,
      "note": 88,
      "start": 38.3168,
      "duration": 0.0163,
      "velocity": 94,
      "chip": "ym2612"
    },
    {
      "channel": 3,
      "note": 88,
      "start": 38.3179,
      "duration": 0.0163,
      "velocity": 94,
      "chip": "ym2612"
    },
    {
      "channel": 2,
      "note": 52,
      "start": 38.3191,
      "duration": 0.0163,
      "velocity": 100,
      "chip": "ym2612"
    },
    {
      "channel": 1,
      "note": 105,
      "start": 38.3303,
      "duration": 0.0157,
      "velocity": 105,
      "chip": "ym2612"
    },
    {
      "channel": 0,
      "note": 47,
      "start": 38.3319,
      "duration": 0.0157,
      "velocity": 115,
      "chip": "ym2612"
    },
    {
      "channel": 4,
      "note": 88,
      "start": 38.3331,
      "duration": 0.0157,
      "velocity": 94,
      "chip": "ym2612"
    },
    {
      "channel": 3,
      "note": 88,
      "start": 38.3342,
      "duration": 0.0157,
      "velocity": 94,
      "chip": "ym2612"
    },
    {
      "channel": 2,
      "note": 52,
      "start": 38.3354,
      "duration": 0.0157,
      "velocity": 100,
      "chip": "ym2612"
    },
    {
      "channel": 1,
      "note": 105,
      "start": 38.346,
      "duration": 0.0202,
      "velocity": 124,
      "chip": "ym2612"
    },
    {
      "channel": 0,
      "note": 48,
      "start": 38.3476,
      "duration": 0.021,
      "velocity": 115,
      "chip": "ym2612"
    },
    {
      "channel": 4,
      "note": 88,
      "start": 38.3488,
      "duration": 0.021,
      "velocity": 94,
      "chip": "ym2612"
    },
    {
      "channel": 3,
      "note": 88,
      "start": 38.3499,
      "duration": 0.021,
      "velocity": 94,
      "chip": "ym2612"
    },
    {
      "channel": 2,
      "note": 52,
      "start": 38.3511,
      "duration": 0.0212,
      "velocity": 100,
      "chip": "ym2612"
    },
    {
      "channel": 1,
      "note": 78,
      "start": 38.3662,
      "duration": 0.0149,
      "velocity": 124,
      "chip": "ym2612"
    },
    {
      "channel": 0,
      "note": 48,
      "start": 38.3686,
      "duration": 0.0144,
      "velocity": 115,
      "chip": "ym2612"
    },
    {
      "channel": 4,
      "note": 88,
      "start": 38.3698,
      "duration": 0.0145,
      "velocity": 94,
      "chip": "ym2612"
    },
    {
      "channel": 3,
      "note": 88,
      "start": 38.3709,
      "duration": 0.0145,
      "velocity": 94,
      "chip": "ym2612"
    },
    {
      "channel": 2,
      "note": 52,
      "start": 38.3724,
      "duration": 0.0142,
      "velocity": 100,
      "chip": "ym2612"
    },
    {
      "channel": 1,
      "note": 76,
      "start": 38.3812,
      "duration": 0.016,
      "velocity": 124,
      "chip": "ym2612"
    },
    {
      "channel": 0,
      "note": 49,
      "start": 38.3831,
      "duration": 0.0151,
      "velocity": 1,
      "chip": "ym2612"
    },
    {
      "channel": 4,
      "note": 88,
      "start": 38.3843,
      "duration": 0.0151,
      "velocity": 94,
      "chip": "ym2612"
    },
    {
      "channel": 3,
      "note": 88,
      "start": 38.3854,
      "duration": 0.0151,
      "velocity": 94,
      "chip": "ym2612"
    },
    {
      "channel": 2,
      "note": 52,
      "start": 38.3866,
      "duration": 0.0151,
      "velocity": 100,
      "chip": "ym2612"
    },
    {
      "channel": 1,
      "note": 75,
      "start": 38.3971,
      "duration": 0.0141,
      "velocity": 124,
      "chip": "ym2612"
    },
    {
      "channel": 4,
      "note": 88,
      "start": 38.3993,
      "duration": 0.0132,
      "velocity": 94,
      "chip": "ym2612"
    },
    {
      "channel": 3,
      "note": 88,
      "start": 38.4005,
      "duration": 0.0132,
      "velocity": 94,
      "chip": "ym2612"
    },
    {
      "channel": 2,
      "note": 52,
      "start": 38.4016,
      "duration": 0.0132,
      "velocity": 100,
      "chip": "ym2612"
    },
    {
      "channel": 1,
      "note": 74,
      "start": 38.4112,
      "duration": 0.0185,
      "velocity": 124,
      "chip": "ym2612"
    },
    {
      "channel": 4,
      "note": 88,
      "start": 38.4126,
      "duration": 0.0185,
      "velocity": 94,
      "chip": "ym2612"
    },
    {
      "channel": 3,
      "note": 88,
      "start": 38.4137,
      "duration": 0.0185,
      "velocity": 94,
      "chip": "ym2612"
    },
    {
      "channel": 2,
      "note": 52,
      "start": 38.4149,
      "duration": 0.0185,
      "velocity": 100,
      "chip": "ym2612"
    },
    {
      "channel": 1,
      "note": 72,
      "start": 38.4297,
      "duration": 0.0134,
      "velocity": 124,
      "chip": "ym2612"
    },
    {
      "channel": 4,
      "note": 88,
      "start": 38.4311,
      "duration": 0.0161,
      "velocity": 94,
      "chip": "ym2612"
    },
    {
      "channel": 3,
      "note": 88,
      "start": 38.4322,
      "duration": 0.0161,
      "velocity": 94,
      "chip": "ym2612"
    },
    {
      "channel": 2,
      "note": 52,
      "start": 38.4334,
      "duration": 0.0161,
      "velocity": 100,
      "chip": "ym2612"
    },
    {
      "channel": 1,
      "note": 71,
      "start": 38.4431,
      "duration": 0.0161,
      "velocity": 124,
      "chip": "ym2612"
    },
    {
      "channel": 4,
      "note": 88,
      "start": 38.4472,
      "duration": 0.0158,
      "velocity": 94,
      "chip": "ym2612"
    },
    {
      "channel": 3,
      "note": 88,
      "start": 38.4483,
      "duration": 0.0158,
      "velocity": 94,
      "chip": "ym2612"
    },
    {
      "channel": 2,
      "note": 52,
      "start": 38.4495,
      "duration": 0.0158,
      "velocity": 100,
      "chip": "ym2612"
    },
    {
      "channel": 1,
      "note": 70,
      "start": 38.4591,
      "duration": 0.0162,
      "velocity": 124,
      "chip": "ym2612"
    },
    {
      "channel": 4,
      "note": 88,
      "start": 38.463,
      "duration": 0.0148,
      "velocity": 94,
      "chip": "ym2612"
    },
    {
      "channel": 3,
      "note": 88,
      "start": 38.4641,
      "duration": 0.0148,
      "velocity": 94,
      "chip": "ym2612"
    },
    {
      "channel": 2,
      "note": 52,
      "start": 38.4653,
      "duration": 0.0151,
      "velocity": 100,
      "chip": "ym2612"
    },
    {
      "channel": 1,
      "note": 69,
      "start": 38.4753,
      "duration": 0.0161,
      "velocity": 124,
      "chip": "ym2612"
    },
    {
      "channel": 4,
      "note": 86,
      "start": 38.4778,
      "duration": 0.0151,
      "velocity": 94,
      "chip": "ym2612"
    },
    {
      "channel": 3,
      "note": 88,
      "start": 38.4789,
      "duration": 0.0179,
      "velocity": 94,
      "chip": "ym2612"
    },
    {
      "channel": 2,
      "note": 52,
      "start": 38.4804,
      "duration": 0.0176,
      "velocity": 100,
      "chip": "ym2612"
    },
    {
      "channel": 1,
      "note": 68,
      "start": 38.4914,
      "duration": 0.0161,
      "velocity": 124,
      "chip": "ym2612"
    },
    {
      "channel": 4,
      "note": 86,
      "start": 38.4929,
      "duration": 0.016,
      "velocity": 94,
      "chip": "ym2612"
    },
    {
      "channel": 3,
      "note": 88,
      "start": 38.4968,
      "duration": 0.016,
      "velocity": 94,
      "chip": "ym2612"
    },
    {
      "channel": 2,
      "note": 52,
      "start": 38.498,
      "duration": 0.016,
      "velocity": 100,
      "chip": "ym2612"
    },
    {
      "channel": 1,
      "note": 66,
      "start": 38.5075,
      "duration": 0.0161,
      "velocity": 124,
      "chip": "ym2612"
    },
    {
      "channel": 4,
      "note": 86,
      "start": 38.5089,
      "duration": 0.0161,
      "velocity": 94,
      "chip": "ym2612"
    },
    {
      "channel": 3,
      "note": 88,
      "start": 38.5128,
      "duration": 0.0134,
      "velocity": 94,
      "chip": "ym2612"
    },
    {
      "channel": 2,
      "note": 52,
      "start": 38.5139,
      "duration": 0.0157,
      "velocity": 100,
      "chip": "ym2612"
    },
    {
      "channel": 1,
      "note": 65,
      "start": 38.5236,
      "duration": 0.0161,
      "velocity": 124,
      "chip": "ym2612"
    },
    {
      "channel": 4,
      "note": 86,
      "start": 38.525,
      "duration": 0.0161,
      "velocity": 94,
      "chip": "ym2612"
    },
    {
      "channel": 3,
      "note": 88,
      "start": 38.5261,
      "duration": 0.0161,
      "velocity": 94,
      "chip": "ym2612"
    },
    {
      "channel": 2,
      "note": 52,
      "start": 38.5296,
      "duration": 0.0141,
      "velocity": 100,
      "chip": "ym2612"
    },
    {
      "channel": 1,
      "note": 64,
      "start": 38.5397,
      "duration": 0.0161,
      "velocity": 124,
      "chip": "ym2612"
    },
    {
      "channel": 4,
      "note": 86,
      "start": 38.5411,
      "duration": 0.0161,
      "velocity": 94,
      "chip": "ym2612"
    },
    {
      "channel": 3,
      "note": 88,
      "start": 38.5422,
      "duration": 0.0161,
      "velocity": 94,
      "chip": "ym2612"
    },
    {
      "channel": 2,
      "note": 52,
      "start": 38.5437,
      "duration": 0.0158,
      "velocity": 100,
      "chip": "ym2612"
    },
    {
      "channel": 1,
      "note": 62,
      "start": 38.5558,
      "duration": 0.0161,
      "velocity": 124,
      "chip": "ym2612"
    },
    {
      "channel": 4,
      "note": 86,
      "start": 38.5572,
      "duration": 0.0161,
      "velocity": 94,
      "chip": "ym2612"
    },
    {
      "channel": 3,
      "note": 88,
      "start": 38.5583,
      "duration": 0.0161,
      "velocity": 94,
      "chip": "ym2612"
    },
    {
      "channel": 2,
      "note": 52,
      "start": 38.5595,
      "duration": 0.0161,
      "velocity": 100,
      "chip": "ym2612"
    },
    {
      "channel": 1,
      "note": 61,
      "start": 38.5719,
      "duration": 0.0161,
      "velocity": 124,
      "chip": "ym2612"
    },
    {
      "channel": 4,
      "note": 86,
      "start": 38.5733,
      "duration": 0.0166,
      "velocity": 94,
      "chip": "ym2612"
    },
    {
      "channel": 3,
      "note": 88,
      "start": 38.5744,
      "duration": 0.0168,
      "velocity": 94,
      "chip": "ym2612"
    },
    {
      "channel": 2,
      "note": 52,
      "start": 38.5756,
      "duration": 0.0172,
      "velocity": 100,
      "chip": "ym2612"
    },
    {
      "channel": 1,
      "note": 60,
      "start": 38.588,
      "duration": 0.0161,
      "velocity": 124,
      "chip": "ym2612"
    },
    {
      "channel": 4,
      "note": 86,
      "start": 38.5899,
      "duration": 0.0156,
      "velocity": 94,
      "chip": "ym2612"
    },
    {
      "channel": 3,
      "note": 86,
      "start": 38.5913,
      "duration": 0.0154,
      "velocity": 94,
      "chip": "ym2612"
    },
    {
      "channel": 2,
      "note": 52,
      "start": 38.5927,
      "duration": 0.0151,
      "velocity": 100,
      "chip": "ym2612"
    },
    {
      "channel": 1,
      "note": 59,
      "start": 38.6041,
      "duration": 0.0161,
      "velocity": 124,
      "chip": "ym2612"
    },
    {
      "channel": 4,
      "note": 86,
      "start": 38.6055,
      "duration": 0.016,
      "velocity": 94,
      "chip": "ym2612"
    },
    {
      "channel": 3,
      "note": 86,
      "start": 38.6067,
      "duration": 0.016,
      "velocity": 94,
      "chip": "ym2612"
    },
    {
      "channel": 2,
      "note": 52,
      "start": 38.6079,
      "duration": 0.016,
      "velocity": 100,
      "chip": "ym2612"
    },
    {
      "channel": 1,
      "note": 57,
      "start": 38.6202,
      "duration": 0.0161,
      "velocity": 124,
      "chip": "ym2612"
    },
    {
      "channel": 4,
      "note": 86,
      "start": 38.6215,
      "duration": 0.0161,
      "velocity": 94,
      "chip": "ym2612"
    },
    {
      "channel": 3,
      "note": 86,
      "start": 38.6227,
      "duration": 0.0161,
      "velocity": 94,
      "chip": "ym2612"
    },
    {
      "channel": 2,
      "note": 52,
      "start": 38.6238,
      "duration": 0.0161,
      "velocity": 100,
      "chip": "ym2612"
    },
    {
      "channel": 1,
      "note": 56,
      "start": 38.6363,
      "duration": 0.0161,
      "velocity": 124,
      "chip": "ym2612"
    },
    {
      "channel": 4,
      "note": 86,
      "start": 38.6376,
      "duration": 0.0161,
      "velocity": 94,
      "chip": "ym2612"
    },
    {
      "channel": 3,
      "note": 86,
      "start": 38.6388,
      "duration": 0.0161,
      "velocity": 94,
      "chip": "ym2612"
    },
    {
      "channel": 2,
      "note": 52,
      "start": 38.6399,
      "duration": 0.0161,
      "velocity": 100,
      "chip": "ym2612"
    },
    {
      "channel": 1,
      "note": 55,
      "start": 38.6524,
      "duration": 0.0161,
      "velocity": 124,
      "chip": "ym2612"
    },
    {
      "channel": 4,
      "note": 86,
      "start": 38.6537,
      "duration": 0.0161,
      "velocity": 94,
      "chip": "ym2612"
    },
    {
      "channel": 3,
      "note": 86,
      "start": 38.6549,
      "duration": 0.0162,
      "velocity": 94,
      "chip": "ym2612"
    },
    {
      "channel": 2,
      "note": 52,
      "start": 38.656,
      "duration": 0.0161,
      "velocity": 100,
      "chip": "ym2612"
    },
    {
      "channel": 1,
      "note": 53,
      "start": 38.6685,
      "duration": 0.0161,
      "velocity": 124,
      "chip": "ym2612"
    },
    {
      "channel": 4,
      "note": 86,
      "start": 38.6699,
      "duration": 0.0161,
      "velocity": 94,
      "chip": "ym2612"
    },
    {
      "channel": 3,
      "note": 86,
      "start": 38.671,
      "duration": 0.0161,
      "velocity": 94,
      "chip": "ym2612"
    },
    {
      "channel": 2,
      "note": 52,
      "start": 38.6722,
      "duration": 0.0161,
      "velocity": 100,
      "chip": "ym2612"
    },
    {
      "channel": 1,
      "note": 52,
      "start": 38.6846,
      "duration": 0.0161,
      "velocity": 124,
      "chip": "ym2612"
    },
    {
      "channel": 4,
      "note": 86,
      "start": 38.686,
      "duration": 0.0203,
      "velocity": 94,
      "chip": "ym2612"
    },
    {
      "channel": 3,
      "note": 86,
      "start": 38.6871,
      "duration": 0.0203,
      "velocity": 94,
      "chip": "ym2612"
    },
    {
      "channel": 2,
      "note": 52,
      "start": 38.6883,
      "duration": 0.0205,
      "velocity": 100,
      "chip": "ym2612"
    },
    {
      "channel": 1,
      "note": 51,
      "start": 38.7007,
      "duration": 0.0153,
      "velocity": 1,
      "chip": "ym2612"
    },
    {
      "channel": 0,
      "note": 36,
      "start": 38.7049,
      "duration": 0.015,
      "velocity": 115,
      "chip": "ym2612"
    },
    {
      "channel": 4,
      "note": 83,
      "start": 38.7063,
      "duration": 0.0148,
      "velocity": 94,
      "chip": "ym2612"
    },
    {
      "channel": 3,
      "note": 86,
      "start": 38.7074,
      "duration": 0.0148,
      "velocity": 94,
      "chip": "ym2612"
    },
    {
      "channel": 2,
      "note": 52,
      "start": 38.7089,
      "duration": 0.0146,
      "velocity": 100,
      "chip": "ym2612"
    },
    {
      "channel": 1,
      "note": 51,
      "start": 38.7182,
      "duration": 0.0142,
      "velocity": 105,
      "chip": "ym2612"
    },
    {
      "channel": 0,
      "note": 36,
      "start": 38.7199,
      "duration": 0.0142,
      "velocity": 115,
      "chip": "ym2612"
    },
    {
      "channel": 4,
      "note": 83,
      "start": 38.7211,
      "duration": 0.0141,
      "velocity": 94,
      "chip": "ym2612"
    },
    {
      "channel": 3,
      "note": 86,
      "start": 38.7222,
      "duration": 0.0141,
      "velocity": 94,
      "chip": "ym2612"
    },
    {
      "channel": 2,
      "note": 52,
      "start": 38.7235,
      "duration": 0.0141,
      "velocity": 100,
      "chip": "ym2612"
    },
    {
      "channel": 1,
      "note": 105,
      "start": 38.7324,
      "duration": 0.0161,
      "velocity": 105,
      "chip": "ym2612"
    },
    {
      "channel": 0,
      "note": 37,
      "start": 38.7341,
      "duration": 0.0161,
      "velocity": 115,
      "chip": "ym2612"
    },
    {
      "channel": 4,
      "note": 83,
      "start": 38.7352,
      "duration": 0.0161,
      "velocity": 94,
      "chip": "ym2612"
    },
    {
      "channel": 3,
      "note": 86,
      "start": 38.7364,
      "duration": 0.0161,
      "velocity": 94,
      "chip": "ym2612"
    },
    {
      "channel": 2,
      "note": 52,
      "start": 38.7375,
      "duration": 0.0161,
      "velocity": 100,
      "chip": "ym2612"
    },
    {
      "channel": 1,
      "note": 105,
      "start": 38.7485,
      "duration": 0.0161,
      "velocity": 105,
      "chip": "ym2612"
    },
    {
      "channel": 0,
      "note": 37,
      "start": 38.7502,
      "duration": 0.0161,
      "velocity": 115,
      "chip": "ym2612"
    },
    {
      "channel": 4,
      "note": 83,
      "start": 38.7513,
      "duration": 0.0161,
      "velocity": 94,
      "chip": "ym2612"
    },
    {
      "channel": 3,
      "note": 86,
      "start": 38.7525,
      "duration": 0.0161,
      "velocity": 94,
      "chip": "ym2612"
    },
    {
      "channel": 2,
      "note": 52,
      "start": 38.7536,
      "duration": 0.0161,
      "velocity": 100,
      "chip": "ym2612"
    },
    {
      "channel": 1,
      "note": 105,
      "start": 38.7646,
      "duration": 0.0161,
      "velocity": 105,
      "chip": "ym2612"
    },
    {
      "channel": 0,
      "note": 38,
      "start": 38.7663,
      "duration": 0.0161,
      "velocity": 115,
      "chip": "ym2612"
    },
    {
      "channel": 4,
      "note": 83,
      "start": 38.7674,
      "duration": 0.0161,
      "velocity": 94,
      "chip": "ym2612"
    },
    {
      "channel": 3,
      "note": 86,
      "start": 38.7686,
      "duration": 0.0161,
      "velocity": 94,
      "chip": "ym2612"
    },
    {
      "channel": 2,
      "note": 52,
      "start": 38.7697,
      "duration": 0.0161,
      "velocity": 100,
      "chip": "ym2612"
    },
    {
      "channel": 1,
      "note": 105,
      "start": 38.7807,
      "duration": 0.0162,
      "velocity": 105,
      "chip": "ym2612"
    },
    {
      "channel": 0,
      "note": 38,
      "start": 38.7824,
      "duration": 0.0162,
      "velocity": 115,
      "chip": "ym2612"
    },
    {
      "channel": 4,
      "note": 83,
      "start": 38.7835,
      "duration": 0.0162,
      "velocity": 94,
      "chip": "ym2612"
    },
    {
      "channel": 3,
      "note": 86,
      "start": 38.7846,
      "duration": 0.0162,
      "velocity": 94,
      "chip": "ym2612"
    },
    {
      "channel": 2,
      "note": 52,
      "start": 38.7858,
      "duration": 0.0162,
      "velocity": 100,
      "chip": "ym2612"
    },
    {
      "channel": 1,
      "note": 105,
      "start": 38.7969,
      "duration": 0.0177,
      "velocity": 124,
      "chip": "ym2612"
    },
    {
      "channel": 0,
      "note": 39,
      "start": 38.7986,
      "duration": 0.0195,
      "velocity": 115,
      "chip": "ym2612"
    },
    {
      "channel": 4,
      "note": 83,
      "start": 38.7997,
      "duration": 0.0196,
      "velocity": 94,
      "chip": "ym2612"
    },
    {
      "channel": 3,
      "note": 86,
      "start": 38.8009,
      "duration": 0.0198,
      "velocity": 94,
      "chip": "ym2612"
    },
    {
      "channel": 2,
      "note": 52,
      "start": 38.802,
      "duration": 0.0201,
      "velocity": 100,
      "chip": "ym2612"
    },
    {
      "channel": 1,
      "note": 64,
      "start": 38.8147,
      "duration": 0.016,
      "velocity": 124,
      "chip": "ym2612"
    },
    {
      "channel": 0,
      "note": 36,
      "start": 38.8181,
      "duration": 0.0143,
      "velocity": 115,
      "chip": "ym2612"
    },
    {
      "channel": 4,
      "note": 83,
      "start": 38.8193,
      "duration": 0.0143,
      "velocity": 94,
      "chip": "ym2612"
    },
    {
      "channel": 3,
      "note": 83,
      "start": 38.8207,
      "duration": 0.0141,
      "velocity": 94,
      "chip": "ym2612"
    },
    {
      "channel": 2,
      "note": 52,
      "start": 38.8221,
      "duration": 0.0139,
      "velocity": 100,
      "chip": "ym2612"
    },
    {
      "channel": 1,
      "note": 64,
      "start": 38.8307,
      "duration": 0.0166,
      "velocity": 124,
      "chip": "ym2612"
    },
    {
      "channel": 0,
      "note": 36,
      "start": 38.8324,
      "duration": 0.0166,
      "velocity": 115,
      "chip": "ym2612"
    },
    {
      "channel": 4,
      "note": 83,
      "start": 38.8336,
      "duration": 0.0165,
      "velocity": 94,
      "chip": "ym2612"
    },
    {
      "channel": 3,
      "note": 83,
      "start": 38.8348,
      "duration": 0.0165,
      "velocity": 94,
      "chip": "ym2612"
    },
    {
      "channel": 2,
      "note": 52,
      "start": 38.836,
      "duration": 0.0164,
      "velocity": 100,
      "chip": "ym2612"
    },
    {
      "channel": 1,
      "note": 64,
      "start": 38.8473,
      "duration": 0.0163,
      "velocity": 124,
      "chip": "ym2612"
    },
    {
      "channel": 0,
      "note": 37,
      "start": 38.849,
      "duration": 0.0163,
      "velocity": 115,
      "chip": "ym2612"
    },
    {
      "channel": 4,
      "note": 83,
      "start": 38.8501,
      "duration": 0.0163,
      "velocity": 94,
      "chip": "ym2612"
    },
    {
      "channel": 3,
      "note": 83,
      "start": 38.8513,
      "duration": 0.0163,
      "velocity": 94,
      "chip": "ym2612"
    },
    {
      "channel": 2,
      "note": 52,
      "start": 38.8524,
      "duration": 0.0163,
      "velocity": 100,
      "chip": "ym2612"
    },
    {
      "channel": 1,
      "note": 64,
      "start": 38.8636,
      "duration": 0.0141,
      "velocity": 124,
      "chip": "ym2612"
    },
    {
      "channel": 0,
      "note": 37,
      "start": 38.8653,
      "duration": 0.0141,
      "velocity": 115,
      "chip": "ym2612"
    },
    {
      "channel": 4,
      "note": 83,
      "start": 38.8665,
      "duration": 0.014,
      "velocity": 94,
      "chip": "ym2612"
    },
    {
      "channel": 3,
      "note": 83,
      "start": 38.8676,
      "duration": 0.014,
      "velocity": 94,
      "chip": "ym2612"
    },
    {
      "channel": 2,
      "note": 52,
      "start": 38.8687,
      "duration": 0.0141,
      "velocity": 100,
      "chip": "ym2612"
    },
    {
      "channel": 1,
      "note": 64,
      "start": 38.8777,
      "duration": 0.0185,
      "velocity": 124,
      "chip": "ym2612"
    },
    {
      "channel": 0,
      "note": 38,
      "start": 38.8793,
      "duration": 0.0185,
      "velocity": 115,
      "chip": "ym2612"
    },
    {
      "channel": 4,
      "note": 83,
      "start": 38.8805,
      "duration": 0.0186,
      "velocity": 94,
      "chip": "ym2612"
    },
    {
      "channel": 3,
      "note": 83,
      "start": 38.8816,
      "duration": 0.0186,
      "velocity": 94,
      "chip": "ym2612"
    },
    {
      "channel": 2,
      "note": 52,
      "start": 38.8827,
      "duration": 0.0185,
      "velocity": 100,
      "chip": "ym2612"
    },
    {
      "channel": 1,
      "note": 64,
      "start": 38.8962,
      "duration": 0.0134,
      "velocity": 124,
      "chip": "ym2612"
    },
    {
      "channel": 0,
      "note": 38,
      "start": 38.8978,
      "duration": 0.0161,
      "velocity": 115,
      "chip": "ym2612"
    },
    {
      "channel": 4,
      "note": 83,
      "start": 38.899,
      "duration": 0.0161,
      "velocity": 94,
      "chip": "ym2612"
    },
    {
      "channel": 3,
      "note": 83,
      "start": 38.9002,
      "duration": 0.0161,
      "velocity": 94,
      "chip": "ym2612"
    },
    {
      "channel": 2,
      "note": 52,
      "start": 38.9013,
      "duration": 0.0161,
      "velocity": 100,
      "chip": "ym2612"
    },
    {
      "channel": 1,
      "note": 64,
      "start": 38.9095,
      "duration": 0.0202,
      "velocity": 105,
      "chip": "ym2612"
    },
    {
      "channel": 0,
      "note": 39,
      "start": 38.9139,
      "duration": 0.0175,
      "velocity": 115,
      "chip": "ym2612"
    },
    {
      "channel": 4,
      "note": 83,
      "start": 38.9151,
      "duration": 0.0174,
      "velocity": 94,
      "chip": "ym2612"
    },
    {
      "channel": 3,
      "note": 83,
      "start": 38.9163,
      "duration": 0.0174,
      "velocity": 94,
      "chip": "ym2612"
    },
    {
      "channel": 2,
      "note": 52,
      "start": 38.9173,
      "duration": 0.0178,
      "velocity": 100,
      "chip": "ym2612"
    },
    {
      "channel": 1,
      "note": 105,
      "start": 38.9297,
      "duration": 0.0121,
      "velocity": 105,
      "chip": "ym2612"
    },
    {
      "channel": 0,
      "note": 39,
      "start": 38.9314,
      "duration": 0.0123,
      "velocity": 115,
      "chip": "ym2612"
    },
    {
      "channel": 4,
      "note": 83,
      "start": 38.9326,
      "duration": 0.0124,
      "velocity": 94,
      "chip": "ym2612"
    },
    {
      "channel": 3,
      "note": 83,
      "start": 38.9337,
      "duration": 0.0124,
      "velocity": 94,
      "chip": "ym2612"
    },
    {
      "channel": 2,
      "note": 52,
      "start": 38.9352,
      "duration": 0.0121,
      "velocity": 100,
      "chip": "ym2612"
    },
    {
      "channel": 1,
      "note": 105,
      "start": 38.9418,
      "duration": 0.016,
      "velocity": 105,
      "chip": "ym2612"
    },
    {
      "channel": 0,
      "note": 40,
      "start": 38.9437,
      "duration": 0.0157,
      "velocity": 115,
      "chip": "ym2612"
    },
    {
      "channel": 4,
      "note": 83,
      "start": 38.945,
      "duration": 0.0184,
      "velocity": 94,
      "chip": "ym2612"
    },
    {
      "channel": 3,
      "note": 83,
      "start": 38.9461,
      "duration": 0.0185,
      "velocity": 94,
      "chip": "ym2612"
    },
    {
      "channel": 2,
      "note": 52,
      "start": 38.9473,
      "duration": 0.0184,
      "velocity": 100,
      "chip": "ym2612"
    },
    {
      "channel": 1,
      "note": 105,
      "start": 38.9578,
      "duration": 0.0161,
      "velocity": 105,
      "chip": "ym2612"
    },
    {
      "channel": 0,
      "note": 40,
      "start": 38.9595,
      "duration": 0.0161,
      "velocity": 115,
      "chip": "ym2612"
    },
    {
      "channel": 4,
      "note": 83,
      "start": 38.9634,
      "duration": 0.0161,
      "velocity": 94,
      "chip": "ym2612"
    },
    {
      "channel": 3,
      "note": 83,
      "start": 38.9646,
      "duration": 0.0161,
      "velocity": 94,
      "chip": "ym2612"
    },
    {
      "channel": 2,
      "note": 52,
      "start": 38.9657,
      "duration": 0.0161,
      "velocity": 100,
      "chip": "ym2612"
    },
    {
      "channel": 1,
      "note": 105,
      "start": 38.9739,
      "duration": 0.0161,
      "velocity": 105,
      "chip": "ym2612"
    },
    {
      "channel": 0,
      "note": 40,
      "start": 38.9756,
      "duration": 0.0161,
      "velocity": 115,
      "chip": "ym2612"
    },
    {
      "channel": 4,
      "note": 83,
      "start": 38.9795,
      "duration": 0.0134,
      "velocity": 94,
      "chip": "ym2612"
    },
    {
      "channel": 3,
      "note": 83,
      "start": 38.9807,
      "duration": 0.0157,
      "velocity": 94,
      "chip": "ym2612"
    },
    {
      "channel": 2,
      "note": 52,
      "start": 38.9818,
      "duration": 0.0157,
      "velocity": 100,
      "chip": "ym2612"
    },
    {
      "channel": 1,
      "note": 105,
      "start": 38.99,
      "duration": 0.0161,
      "velocity": 105,
      "chip": "ym2612"
    },
    {
      "channel": 0,
      "note": 41,
      "start": 38.9917,
      "duration": 0.0161,
      "velocity": 115,
      "chip": "ym2612"
    },
    {
      "channel": 4,
      "note": 83,
      "start": 38.9929,
      "duration": 0.0161,
      "velocity": 94,
      "chip": "ym2612"
    },
    {
      "channel": 3,
      "note": 83,
      "start": 38.9963,
      "duration": 0.0141,
      "velocity": 94,
      "chip": "ym2612"
    },
    {
      "channel": 2,
      "note": 52,
      "start": 38.9975,
      "duration": 0.014,
      "velocity": 100,
      "chip": "ym2612"
    },
    {
      "channel": 1,
      "note": 105,
      "start": 39.0061,
      "duration": 0.0161,
      "velocity": 105,
      "chip": "ym2612"
    },
    {
      "channel": 0,
      "note": 41,
      "start": 39.0078,
      "duration": 0.0161,
      "velocity": 115,
      "chip": "ym2612"
    },
    {
      "channel": 4,
      "note": 83,
      "start": 39.009,
      "duration": 0.0161,
      "velocity": 94,
      "chip": "ym2612"
    },
    {
      "channel": 3,
      "note": 83,
      "start": 39.0104,
      "duration": 0.0158,
      "velocity": 94,
      "chip": "ym2612"
    },
    {
      "channel": 2,
      "note": 52,
      "start": 39.0115,
      "duration": 0.0186,
      "velocity": 100,
      "chip": "ym2612"
    },
    {
      "channel": 1,
      "note": 105,
      "start": 39.0222,
      "duration": 0.0178,
      "velocity": 124,
      "chip": "ym2612"
    },
    {
      "channel": 0,
      "note": 42,
      "start": 39.0239,
      "duration": 0.0178,
      "velocity": 115,
      "chip": "ym2612"
    },
    {
      "channel": 4,
      "note": 83,
      "start": 39.0251,
      "duration": 0.0179,
      "velocity": 94,
      "chip": "ym2612"
    },
    {
      "channel": 3,
      "note": 83,
      "start": 39.0262,
      "duration": 0.0206,
      "velocity": 94,
      "chip": "ym2612"
    },
    {
      "channel": 2,
      "note": 52,
      "start": 39.0301,
      "duration": 0.0181,
      "velocity": 100,
      "chip": "ym2612"
    },
    {
      "channel": 1,
      "note": 64,
      "start": 39.0401,
      "duration": 0.0144,
      "velocity": 124,
      "chip": "ym2612"
    },
    {
      "channel": 0,
      "note": 42,
      "start": 39.0417,
      "duration": 0.0144,
      "velocity": 115,
      "chip": "ym2612"
    },
    {
      "channel": 4,
      "note": 83,
      "start": 39.0429,
      "duration": 0.0144,
      "velocity": 94,
      "chip": "ym2612"
    },
    {
      "channel": 3,
      "note": 83,
      "start": 39.0468,
      "duration": 0.0117,
      "velocity": 94,
      "chip": "ym2612"
    },
    {
      "channel": 2,
      "note": 52,
      "start": 39.0483,
      "duration": 0.0114,
      "velocity": 100,
      "chip": "ym2612"
    },
    {
      "channel": 1,
      "note": 64,
      "start": 39.0545,
      "duration": 0.016,
      "velocity": 124,
      "chip": "ym2612"
    },
    {
      "channel": 0,
      "note": 43,
      "start": 39.0562,
      "duration": 0.016,
      "velocity": 115,
      "chip": "ym2612"
    },
    {
      "channel": 4,
      "note": 83,
      "start": 39.0573,
      "duration": 0.016,
      "velocity": 94,
      "chip": "ym2612"
    },
    {
      "channel": 3,
      "note": 83,
      "start": 39.0585,
      "duration": 0.016,
      "velocity": 94,
      "chip": "ym2612"
    },
    {
      "channel": 2,
      "note": 52,
      "start": 39.0597,
      "duration": 0.016,
      "velocity": 100,
      "chip": "ym2612"
    },
    {
      "channel": 1,
      "note": 64,
      "start": 39.0705,
      "duration": 0.0161,
      "velocity": 124,
      "chip": "ym2612"
    },
    {
      "channel": 0,
      "note": 43,
      "start": 39.0722,
      "duration": 0.0161,
      "velocity": 115,
      "chip": "ym2612"
    },
    {
      "channel": 4,
      "note": 83,
      "start": 39.0733,
      "duration": 0.0162,
      "velocity": 94,
      "chip": "ym2612"
    },
    {
      "channel": 3,
      "note": 83,
      "start": 39.0745,
      "duration": 0.0162,
      "velocity": 94,
      "chip": "ym2612"
    },
    {
      "channel": 2,
      "note": 52,
      "start": 39.0756,
      "duration": 0.0161,
      "velocity": 100,
      "chip": "ym2612"
    },
    {
      "channel": 1,
      "note": 64,
      "start": 39.0866,
      "duration": 0.0161,
      "velocity": 124,
      "chip": "ym2612"
    },
    {
      "channel": 0,
      "note": 44,
      "start": 39.0883,
      "duration": 0.0161,
      "velocity": 115,
      "chip": "ym2612"
    },
    {
      "channel": 4,
      "note": 83,
      "start": 39.0895,
      "duration": 0.0161,
      "velocity": 94,
      "chip": "ym2612"
    },
    {
      "channel": 3,
      "note": 83,
      "start": 39.0906,
      "duration": 0.0161,
      "velocity": 94,
      "chip": "ym2612"
    },
    {
      "channel": 2,
      "note": 52,
      "start": 39.0917,
      "duration": 0.0161,
      "velocity": 100,
      "chip": "ym2612"
    },
    {
      "channel": 1,
      "note": 64,
      "start": 39.1027,
      "duration": 0.0161,
      "velocity": 124,
      "chip": "ym2612"
    },
    {
      "channel": 0,
      "note": 44,
      "start": 39.1044,
      "duration": 0.0162,
      "velocity": 115,
      "chip": "ym2612"
    },
    {
      "channel": 4,
      "note": 83,
      "start": 39.1056,
      "duration": 0.0161,
      "velocity": 94,
      "chip": "ym2612"
    },
    {
      "channel": 3,
      "note": 83,
      "start": 39.1067,
      "duration": 0.0161,
      "velocity": 94,
      "chip": "ym2612"
    },
    {
      "channel": 2,
      "note": 52,
      "start": 39.1078,
      "duration": 0.0162,
      "velocity": 100,
      "chip": "ym2612"
    },
    {
      "channel": 1,
      "note": 64,
      "start": 39.1188,
      "duration": 0.0161,
      "velocity": 124,
      "chip": "ym2612"
    },
    {
      "channel": 0,
      "note": 44,
      "start": 39.1205,
      "duration": 0.0161,
      "velocity": 115,
      "chip": "ym2612"
    },
    {
      "channel": 4,
      "note": 83,
      "start": 39.1217,
      "duration": 0.0161,
      "velocity": 94,
      "chip": "ym2612"
    },
    {
      "channel": 3,
      "note": 83,
      "start": 39.1228,
      "duration": 0.0161,
      "velocity": 94,
      "chip": "ym2612"
    },
    {
      "channel": 2,
      "note": 52,
      "start": 39.124,
      "duration": 0.0161,
      "velocity": 100,
      "chip": "ym2612"
    },
    {
      "channel": 1,
      "note": 64,
      "start": 39.1349,
      "duration": 0.0178,
      "velocity": 105,
      "chip": "ym2612"
    },
    {
      "channel": 0,
      "note": 45,
      "start": 39.1366,
      "duration": 0.0178,
      "velocity": 115,
      "chip": "ym2612"
    },
    {
      "channel": 4,
      "note": 83,
      "start": 39.1378,
      "duration": 0.018,
      "velocity": 94,
      "chip": "ym2612"
    },
    {
      "channel": 3,
      "note": 83,
      "start": 39.1389,
      "duration": 0.0181,
      "velocity": 94,
      "chip": "ym2612"
    },
    {
      "channel": 2,
      "note": 52,
      "start": 39.1401,
      "duration": 0.0183,
      "velocity": 100,
      "chip": "ym2612"
    },
    {
      "channel": 1,
      "note": 105,
      "start": 39.1527,
      "duration": 0.0144,
      "velocity": 105,
      "chip": "ym2612"
    },
    {
      "channel": 0,
      "note": 45,
      "start": 39.1544,
      "duration": 0.0144,
      "velocity": 115,
      "chip": "ym2612"
    },
    {
      "channel": 4,
      "note": 81,
      "start": 39.1558,
      "duration": 0.0143,
      "velocity": 94,
      "chip": "ym2612"
    },
    {
      "channel": 3,
      "note": 83,
      "start": 39.157,
      "duration": 0.0142,
      "velocity": 94,
      "chip": "ym2612"
    },
    {
      "channel": 2,
      "note": 52,
      "start": 39.1585,
      "duration": 0.0139,
      "velocity": 100,
      "chip": "ym2612"
    },
    {
      "channel": 1,
      "note": 105,
      "start": 39.1672,
      "duration": 0.0161,
      "velocity": 105,
      "chip": "ym2612"
    },
    {
      "channel": 0,
      "note": 46,
      "start": 39.1688,
      "duration": 0.0161,
      "velocity": 115,
      "chip": "ym2612"
    },
    {
      "channel": 4,
      "note": 81,
      "start": 39.1701,
      "duration": 0.016,
      "velocity": 94,
      "chip": "ym2612"
    },
    {
      "channel": 3,
      "note": 83,
      "start": 39.1712,
      "duration": 0.016,
      "velocity": 94,
      "chip": "ym2612"
    },
    {
      "channel": 2,
      "note": 52,
      "start": 39.1724,
      "duration": 0.016,
      "velocity": 100,
      "chip": "ym2612"
    },
    {
      "channel": 1,
      "note": 105,
      "start": 39.1833,
      "duration": 0.0161,
      "velocity": 105,
      "chip": "ym2612"
    },
    {
      "channel": 0,
      "note": 46,
      "start": 39.1849,
      "duration": 0.0161,
      "velocity": 115,
      "chip": "ym2612"
    },
    {
      "channel": 4,
      "note": 81,
      "start": 39.1861,
      "duration": 0.0161,
      "velocity": 94,
      "chip": "ym2612"
    },
    {
      "channel": 3,
      "note": 83,
      "start": 39.1872,
      "duration": 0.0161,
      "velocity": 94,
      "chip": "ym2612"
    },
    {
      "channel": 2,
      "note": 52,
      "start": 39.1883,
      "duration": 0.0161,
      "velocity": 100,
      "chip": "ym2612"
    },
    {
      "channel": 1,
      "note": 105,
      "start": 39.1993,
      "duration": 0.0161,
      "velocity": 105,
      "chip": "ym2612"
    },
    {
      "channel": 0,
      "note": 47,
      "start": 39.201,
      "duration": 0.0161,
      "velocity": 115,
      "chip": "ym2612"
    },
    {
      "channel": 4,
      "note": 81,
      "start": 39.2022,
      "duration": 0.0161,
      "velocity": 94,
      "chip": "ym2612"
    },
    {
      "channel": 3,
      "note": 83,
      "start": 39.2033,
      "duration": 0.0161,
      "velocity": 94,
      "chip": "ym2612"
    },
    {
      "channel": 2,
      "note": 52,
      "start": 39.2044,
      "duration": 0.0161,
      "velocity": 100,
      "chip": "ym2612"
    },
    {
      "channel": 1,
      "note": 105,
      "start": 39.2154,
      "duration": 0.0161,
      "velocity": 105,
      "chip": "ym2612"
    },
    {
      "channel": 0,
      "note": 47,
      "start": 39.2171,
      "duration": 0.0161,
      "velocity": 115,
      "chip": "ym2612"
    },
    {
      "channel": 4,
      "note": 81,
      "start": 39.2183,
      "duration": 0.0161,
      "velocity": 94,
      "chip": "ym2612"
    },
    {
      "channel": 3,
      "note": 83,
      "start": 39.2194,
      "duration": 0.0161,
      "velocity": 94,
      "chip": "ym2612"
    },
    {
      "channel": 2,
      "note": 52,
      "start": 39.2205,
      "duration": 0.0161,
      "velocity": 100,
      "chip": "ym2612"
    },
    {
      "channel": 1,
      "note": 105,
      "start": 39.2315,
      "duration": 0.0161,
      "velocity": 105,
      "chip": "ym2612"
    },
    {
      "channel": 0,
      "note": 47,
      "start": 39.2332,
      "duration": 0.0161,
      "velocity": 115,
      "chip": "ym2612"
    },
    {
      "channel": 4,
      "note": 81,
      "start": 39.2343,
      "duration": 0.0161,
      "velocity": 94,
      "chip": "ym2612"
    },
    {
      "channel": 3,
      "note": 83,
      "start": 39.2355,
      "duration": 0.0161,
      "velocity": 94,
      "chip": "ym2612"
    },
    {
      "channel": 2,
      "note": 52,
      "start": 39.2366,
      "duration": 0.0161,
      "velocity": 100,
      "chip": "ym2612"
    },
    {
      "channel": 1,
      "note": 105,
      "start": 39.2476,
      "duration": 0.0184,
      "velocity": 124,
      "chip": "ym2612"
    },
    {
      "channel": 0,
      "note": 48,
      "start": 39.2493,
      "duration": 0.0191,
      "velocity": 115,
      "chip": "ym2612"
    },
    {
      "channel": 4,
      "note": 81,
      "start": 39.2504,
      "duration": 0.0191,
      "velocity": 94,
      "chip": "ym2612"
    },
    {
      "channel": 3,
      "note": 83,
      "start": 39.2516,
      "duration": 0.0194,
      "velocity": 94,
      "chip": "ym2612"
    },
    {
      "channel": 2,
      "note": 52,
      "start": 39.2527,
      "duration": 0.0197,
      "velocity": 100,
      "chip": "ym2612"
    },
    {
      "channel": 1,
      "note": 78,
      "start": 39.266,
      "duration": 0.0144,
      "velocity": 124,
      "chip": "ym2612"
    },
    {
      "channel": 0,
      "note": 48,
      "start": 39.2684,
      "duration": 0.0139,
      "velocity": 115,
      "chip": "ym2612"
    },
    {
      "channel": 4,
      "note": 81,
      "start": 39.2696,
      "duration": 0.0139,
      "velocity": 94,
      "chip": "ym2612"
    },
    {
      "channel": 3,
      "note": 81,
      "start": 39.271,
      "duration": 0.0137,
      "velocity": 94,
      "chip": "ym2612"
    },
    {
      "channel": 2,
      "note": 52,
      "start": 39.2724,
      "duration": 0.0134,
      "velocity": 100,
      "chip": "ym2612"
    },
    {
      "channel": 1,
      "note": 76,
      "start": 39.2804,
      "duration": 0.0174,
      "velocity": 124,
      "chip": "ym2612"
    },
    {
      "channel": 0,
      "note": 49,
      "start": 39.2823,
      "duration": 0.0165,
      "velocity": 1,
      "chip": "ym2612"
    },
    {
      "channel": 4,
      "note": 81,
      "start": 39.2834,
      "duration": 0.0165,
      "velocity": 94,
      "chip": "ym2612"
    },
    {
      "channel": 3,
      "note": 81,
      "start": 39.2846,
      "duration": 0.0165,
      "velocity": 94,
      "chip": "ym2612"
    },
    {
      "channel": 2,
      "note": 52,
      "start": 39.2859,
      "duration": 0.0164,
      "velocity": 100,
      "chip": "ym2612"
    },
    {
      "channel": 1,
      "note": 75,
      "start": 39.2978,
      "duration": 0.0167,
      "velocity": 124,
      "chip": "ym2612"
    },
    {
      "channel": 4,
      "note": 81,
      "start": 39.3,
      "duration": 0.0159,
      "velocity": 94,
      "chip": "ym2612"
    },
    {
      "channel": 3,
      "note": 81,
      "start": 39.3011,
      "duration": 0.0158,
      "velocity": 94,
      "chip": "ym2612"
    },
    {
      "channel": 2,
      "note": 52,
      "start": 39.3023,
      "duration": 0.0159,
      "velocity": 100,
      "chip": "ym2612"
    },
    {
      "channel": 1,
      "note": 74,
      "start": 39.3145,
      "duration": 0.0163,
      "velocity": 124,
      "chip": "ym2612"
    },
    {
      "channel": 4,
      "note": 81,
      "start": 39.3158,
      "duration": 0.0163,
      "velocity": 94,
      "chip": "ym2612"
    },
    {
      "channel": 3,
      "note": 81,
      "start": 39.317,
      "duration": 0.0163,
      "velocity": 94,
      "chip": "ym2612"
    },
    {
      "channel": 2,
      "note": 52,
      "start": 39.3181,
      "duration": 0.0163,
      "velocity": 100,
      "chip": "ym2612"
    },
    {
      "channel": 1,
      "note": 72,
      "start": 39.3308,
      "duration": 0.0143,
      "velocity": 124,
      "chip": "ym2612"
    },
    {
      "channel": 4,
      "note": 81,
      "start": 39.3322,
      "duration": 0.0142,
      "velocity": 94,
      "chip": "ym2612"
    },
    {
      "channel": 3,
      "note": 81,
      "start": 39.3333,
      "duration": 0.0143,
      "velocity": 94,
      "chip": "ym2612"
    },
    {
      "channel": 2,
      "note": 52,
      "start": 39.3345,
      "duration": 0.0142,
      "velocity": 100,
      "chip": "ym2612"
    },
    {
      "channel": 1,
      "note": 71,
      "start": 39.345,
      "duration": 0.0186,
      "velocity": 124,
      "chip": "ym2612"
    },
    {
      "channel": 4,
      "note": 81,
      "start": 39.3464,
      "duration": 0.0186,
      "velocity": 94,
      "chip": "ym2612"
    },
    {
      "channel": 3,
      "note": 81,
      "start": 39.3476,
      "duration": 0.0186,
      "velocity": 94,
      "chip": "ym2612"
    },
    {
      "channel": 2,
      "note": 52,
      "start": 39.3487,
      "duration": 0.0186,
      "velocity": 100,
      "chip": "ym2612"
    },
    {
      "channel": 1,
      "note": 70,
      "start": 39.3636,
      "duration": 0.0161,
      "velocity": 124,
      "chip": "ym2612"
    },
    {
      "channel": 4,
      "note": 81,
      "start": 39.365,
      "duration": 0.0169,
      "velocity": 94,
      "chip": "ym2612"
    },
    {
      "channel": 3,
      "note": 81,
      "start": 39.3661,
      "duration": 0.0168,
      "velocity": 94,
      "chip": "ym2612"
    },
    {
      "channel": 2,
      "note": 52,
      "start": 39.3673,
      "duration": 0.0171,
      "velocity": 100,
      "chip": "ym2612"
    },
    {
      "channel": 1,
      "note": 69,
      "start": 39.3797,
      "duration": 0.0134,
      "velocity": 124,
      "chip": "ym2612"
    },
    {
      "channel": 4,
      "note": 79,
      "start": 39.3819,
      "duration": 0.0151,
      "velocity": 94,
      "chip": "ym2612"
    },
    {
      "channel": 3,
      "note": 81,
      "start": 39.383,
      "duration": 0.0151,
      "velocity": 94,
      "chip": "ym2612"
    },
    {
      "channel": 2,
      "note": 52,
      "start": 39.3845,
      "duration": 0.0148,
      "velocity": 100,
      "chip": "ym2612"
    },
    {
      "channel": 1,
      "note": 68,
      "start": 39.3931,
      "duration": 0.0161,
      "velocity": 124,
      "chip": "ym2612"
    },
    {
      "channel": 4,
      "note": 79,
      "start": 39.3969,
      "duration": 0.0139,
      "velocity": 94,
      "chip": "ym2612"
    },
    {
      "channel": 3,
      "note": 81,
      "start": 39.3981,
      "duration": 0.0139,
      "velocity": 94,
      "chip": "ym2612"
    },
    {
      "channel": 2,
      "note": 52,
      "start": 39.3992,
      "duration": 0.0139,
      "velocity": 100,
      "chip": "ym2612"
    },
    {
      "channel": 1,
      "note": 66,
      "start": 39.4091,
      "duration": 0.0161,
      "velocity": 124,
      "chip": "ym2612"
    },
    {
      "channel": 4,
      "note": 79,
      "start": 39.4109,
      "duration": 0.0185,
      "velocity": 94,
      "chip": "ym2612"
    },
    {
      "channel": 3,
      "note": 81,
      "start": 39.412,
      "duration": 0.0185,
      "velocity": 94,
      "chip": "ym2612"
    },
    {
      "channel": 2,
      "note": 52,
      "start": 39.4132,
      "duration": 0.0185,
      "velocity": 100,
      "chip": "ym2612"
    },
    {
      "channel": 1,
      "note": 65,
      "start": 39.4252,
      "duration": 0.0161,
      "velocity": 124,
      "chip": "ym2612"
    },
    {
      "channel": 4,
      "note": 79,
      "start": 39.4294,
      "duration": 0.0134,
      "velocity": 94,
      "chip": "ym2612"
    },
    {
      "channel": 3,
      "note": 81,
      "start": 39.4305,
      "duration": 0.0161,
      "velocity": 94,
      "chip": "ym2612"
    },
    {
      "channel": 2,
      "note": 52,
      "start": 39.4317,
      "duration": 0.0161,
      "velocity": 100,
      "chip": "ym2612"
    },
    {
      "channel": 1,
      "note": 64,
      "start": 39.4413,
      "duration": 0.0161,
      "velocity": 124,
      "chip": "ym2612"
    },
    {
      "channel": 4,
      "note": 79,
      "start": 39.4427,
      "duration": 0.0161,
      "velocity": 94,
      "chip": "ym2612"
    },
    {
      "channel": 3,
      "note": 81,
      "start": 39.4466,
      "duration": 0.0157,
      "velocity": 94,
      "chip": "ym2612"
    },
    {
      "channel": 2,
      "note": 52,
      "start": 39.4478,
      "duration": 0.0157,
      "velocity": 100,
      "chip": "ym2612"
    },
    {
      "channel": 1,
      "note": 62,
      "start": 39.4574,
      "duration": 0.0161,
      "velocity": 124,
      "chip": "ym2612"
    },
    {
      "channel": 4,
      "note": 79,
      "start": 39.4588,
      "duration": 0.0161,
      "velocity": 94,
      "chip": "ym2612"
    },
    {
      "channel": 3,
      "note": 81,
      "start": 39.4623,
      "duration": 0.0137,
      "velocity": 94,
      "chip": "ym2612"
    },
    {
      "channel": 2,
      "note": 52,
      "start": 39.4635,
      "duration": 0.0141,
      "velocity": 100,
      "chip": "ym2612"
    },
    {
      "channel": 1,
      "note": 61,
      "start": 39.4735,
      "duration": 0.0161,
      "velocity": 124,
      "chip": "ym2612"
    },
    {
      "channel": 4,
      "note": 79,
      "start": 39.4749,
      "duration": 0.0167,
      "velocity": 94,
      "chip": "ym2612"
    },
    {
      "channel": 3,
      "note": 81,
      "start": 39.4761,
      "duration": 0.0168,
      "velocity": 94,
      "chip": "ym2612"
    },
    {
      "channel": 2,
      "note": 52,
      "start": 39.4775,
      "duration": 0.0196,
      "velocity": 100,
      "chip": "ym2612"
    },
    {
      "channel": 1,
      "note": 60,
      "start": 39.4896,
      "duration": 0.0162,
      "velocity": 124,
      "chip": "ym2612"
    },
    {
      "channel": 4,
      "note": 79,
      "start": 39.4916,
      "duration": 0.0156,
      "velocity": 94,
      "chip": "ym2612"
    },
    {
      "channel": 3,
      "note": 79,
      "start": 39.493,
      "duration": 0.0154,
      "velocity": 94,
      "chip": "ym2612"
    },
    {
      "channel": 2,
      "note": 52,
      "start": 39.4972,
      "duration": 0.0124,
      "velocity": 100,
      "chip": "ym2612"
    },
    {
      "channel": 1,
      "note": 59,
      "start": 39.5058,
      "duration": 0.0161,
      "velocity": 124,
      "chip": "ym2612"
    },
    {
      "channel": 4,
      "note": 79,
      "start": 39.5072,
      "duration": 0.016,
      "velocity": 94,
      "chip": "ym2612"
    },
    {
      "channel": 3,
      "note": 79,
      "start": 39.5084,
      "duration": 0.016,
      "velocity": 94,
      "chip": "ym2612"
    },
    {
      "channel": 2,
      "note": 52,
      "start": 39.5096,
      "duration": 0.0159,
      "velocity": 100,
      "chip": "ym2612"
    },
    {
      "channel": 1,
      "note": 57,
      "start": 39.5219,
      "duration": 0.0161,
      "velocity": 124,
      "chip": "ym2612"
    },
    {
      "channel": 4,
      "note": 79,
      "start": 39.5232,
      "duration": 0.0161,
      "velocity": 94,
      "chip": "ym2612"
    },
    {
      "channel": 3,
      "note": 79,
      "start": 39.5244,
      "duration": 0.0161,
      "velocity": 94,
      "chip": "ym2612"
    },
    {
      "channel": 2,
      "note": 52,
      "start": 39.5255,
      "duration": 0.0161,
      "velocity": 100,
      "chip": "ym2612"
    },
    {
      "channel": 1,
      "note": 56,
      "start": 39.538,
      "duration": 0.0161,
      "velocity": 124,
      "chip": "ym2612"
    },
    {
      "channel": 4,
      "note": 79,
      "start": 39.5393,
      "duration": 0.0162,
      "velocity": 94,
      "chip": "ym2612"
    },
    {
      "channel": 3,
      "note": 79,
      "start": 39.5405,
      "duration": 0.0161,
      "velocity": 94,
      "chip": "ym2612"
    },
    {
      "channel": 2,
      "note": 52,
      "start": 39.5416,
      "duration": 0.0162,
      "velocity": 100,
      "chip": "ym2612"
    },
    {
      "channel": 1,
      "note": 55,
      "start": 39.5541,
      "duration": 0.0161,
      "velocity": 124,
      "chip": "ym2612"
    },
    {
      "channel": 4,
      "note": 79,
      "start": 39.5555,
      "duration": 0.0161,
      "velocity": 94,
      "chip": "ym2612"
    },
    {
      "channel": 3,
      "note": 79,
      "start": 39.5566,
      "duration": 0.0161,
      "velocity": 94,
      "chip": "ym2612"
    },
    {
      "channel": 2,
      "note": 52,
      "start": 39.5578,
      "duration": 0.0161,
      "velocity": 100,
      "chip": "ym2612"
    },
    {
      "channel": 1,
      "note": 53,
      "start": 39.5702,
      "duration": 0.0161,
      "velocity": 124,
      "chip": "ym2612"
    },
    {
      "channel": 4,
      "note": 79,
      "start": 39.5715,
      "duration": 0.0161,
      "velocity": 94,
      "chip": "ym2612"
    },
    {
      "channel": 3,
      "note": 79,
      "start": 39.5727,
      "duration": 0.0161,
      "velocity": 94,
      "chip": "ym2612"
    },
    {
      "channel": 2,
      "note": 52,
      "start": 39.5738,
      "duration": 0.0161,
      "velocity": 100,
      "chip": "ym2612"
    },
    {
      "channel": 1,
      "note": 52,
      "start": 39.5862,
      "duration": 0.0161,
      "velocity": 124,
      "chip": "ym2612"
    },
    {
      "channel": 4,
      "note": 79,
      "start": 39.5876,
      "duration": 0.0201,
      "velocity": 94,
      "chip": "ym2612"
    },
    {
      "channel": 3,
      "note": 79,
      "start": 39.5888,
      "duration": 0.0201,
      "velocity": 94,
      "chip": "ym2612"
    },
    {
      "channel": 2,
      "note": 52,
      "start": 39.5899,
      "duration": 0.0207,
      "velocity": 100,
      "chip": "ym2612"
    },
    {
      "channel": 1,
      "note": 51,
      "start": 39.6023,
      "duration": 0.0153,
      "velocity": 1,
      "chip": "ym2612"
    },
    {
      "channel": 0,
      "note": 78,
      "start": 39.6066,
      "duration": 0.0149,
      "velocity": 127,
      "chip": "ym2612"
    },
    {
      "channel": 4,
      "note": 79,
      "start": 39.6078,
      "duration": 0.0149,
      "velocity": 94,
      "chip": "ym2612"
    },
    {
      "channel": 3,
      "note": 79,
      "start": 39.6089,
      "duration": 0.0149,
      "velocity": 94,
      "chip": "ym2612"
    },
    {
      "channel": 2,
      "note": 52,
      "start": 39.6107,
      "duration": 0.0144,
      "velocity": 100,
      "chip": "ym2612"
    },
    {
      "channel": 1,
      "note": 51,
      "start": 39.6198,
      "duration": 0.0142,
      "velocity": 105,
      "chip": "ym2612"
    },
    {
      "channel": 0,
      "note": 76,
      "start": 39.6215,
      "duration": 0.0142,
      "velocity": 127,
      "chip": "ym2612"
    },
    {
      "channel": 4,
      "note": 79,
      "start": 39.6227,
      "duration": 0.0142,
      "velocity": 94,
      "chip": "ym2612"
    },
    {
      "channel": 3,
      "note": 79,
      "start": 39.6238,
      "duration": 0.0142,
      "velocity": 94,
      "chip": "ym2612"
    },
    {
      "channel": 2,
      "note": 52,
      "start": 39.6251,
      "duration": 0.0141,
      "velocity": 100,
      "chip": "ym2612"
    },
    {
      "channel": 1,
      "note": 105,
      "start": 39.6341,
      "duration": 0.0161,
      "velocity": 105,
      "chip": "ym2612"
    },
    {
      "channel": 0,
      "note": 75,
      "start": 39.6357,
      "duration": 0.0161,
      "velocity": 127,
      "chip": "ym2612"
    },
    {
      "channel": 4,
      "note": 79,
      "start": 39.6369,
      "duration": 0.0161,
      "velocity": 94,
      "chip": "ym2612"
    },
    {
      "channel": 3,
      "note": 79,
      "start": 39.638,
      "duration": 0.0161,
      "velocity": 94,
      "chip": "ym2612"
    },
    {
      "channel": 2,
      "note": 52,
      "start": 39.6392,
      "duration": 0.0161,
      "velocity": 100,
      "chip": "ym2612"
    },
    {
      "channel": 1,
      "note": 105,
      "start": 39.6502,
      "duration": 0.0161,
      "velocity": 105,
      "chip": "ym2612"
    },
    {
      "channel": 0,
      "note": 73,
      "start": 39.6518,
      "duration": 0.0161,
      "velocity": 127,
      "chip": "ym2612"
    },
    {
      "channel": 4,
      "note": 79,
      "start": 39.653,
      "duration": 0.0161,
      "velocity": 94,
      "chip": "ym2612"
    },
    {
      "channel": 3,
      "note": 79,
      "start": 39.6541,
      "duration": 0.0161,
      "velocity": 94,
      "chip": "ym2612"
    },
    {
      "channel": 2,
      "note": 52,
      "start": 39.6553,
      "duration": 0.0161,
      "velocity": 100,
      "chip": "ym2612"
    },
    {
      "channel": 1,
      "note": 105,
      "start": 39.6663,
      "duration": 0.0161,
      "velocity": 105,
      "chip": "ym2612"
    },
    {
      "channel": 0,
      "note": 71,
      "start": 39.6679,
      "duration": 0.0161,
      "velocity": 127,
      "chip": "ym2612"
    },
    {
      "channel": 4,
      "note": 79,
      "start": 39.6691,
      "duration": 0.0162,
      "velocity": 94,
      "chip": "ym2612"
    },
    {
      "channel": 3,
      "note": 79,
      "start": 39.6702,
      "duration": 0.0162,
      "velocity": 94,
      "chip": "ym2612"
    },
    {
      "channel": 2,
      "note": 52,
      "start": 39.6714,
      "duration": 0.0161,
      "velocity": 100,
      "chip": "ym2612"
    },
    {
      "channel": 1,
      "note": 105,
      "start": 39.6824,
      "duration": 0.0161,
      "velocity": 105,
      "chip": "ym2612"
    },
    {
      "channel": 0,
      "note": 70,
      "start": 39.684,
      "duration": 0.0161,
      "velocity": 127,
      "chip": "ym2612"
    },
    {
      "channel": 4,
      "note": 79,
      "start": 39.6852,
      "duration": 0.0161,
      "velocity": 94,
      "chip": "ym2612"
    },
    {
      "channel": 3,
      "note": 79,
      "start": 39.6864,
      "duration": 0.0161,
      "velocity": 94,
      "chip": "ym2612"
    },
    {
      "channel": 2,
      "note": 52,
      "start": 39.6875,
      "duration": 0.0161,
      "velocity": 100,
      "chip": "ym2612"
    },
    {
      "channel": 1,
      "note": 105,
      "start": 39.6985,
      "duration": 0.0178,
      "velocity": 124,
      "chip": "ym2612"
    },
    {
      "channel": 0,
      "note": 68,
      "start": 39.7001,
      "duration": 0.0197,
      "velocity": 115,
      "chip": "ym2612"
    },
    {
      "channel": 4,
      "note": 79,
      "start": 39.7013,
      "duration": 0.0197,
      "velocity": 94,
      "chip": "ym2612"
    },
    {
      "channel": 3,
      "note": 79,
      "start": 39.7025,
      "duration": 0.0197,
      "velocity": 94,
      "chip": "ym2612"
    },
    {
      "channel": 2,
      "note": 52,
      "start": 39.7035,
      "duration": 0.02,
      "velocity": 100,
      "chip": "ym2612"
    },
    {
      "channel": 1,
      "note": 64,
      "start": 39.7163,
      "duration": 0.0144,
      "velocity": 124,
      "chip": "ym2612"
    },
    {
      "channel": 0,
      "note": 36,
      "start": 39.7198,
      "duration": 0.0127,
      "velocity": 115,
      "chip": "ym2612"
    },
    {
      "channel": 4,
      "note": 79,
      "start": 39.721,
      "duration": 0.0127,
      "velocity": 94,
      "chip": "ym2612"
    },
    {
      "channel": 3,
      "note": 79,
      "start": 39.7221,
      "duration": 0.0127,
      "velocity": 94,
      "chip": "ym2612"
    },
    {
      "channel": 2,
      "note": 55,
      "start": 39.7235,
      "duration": 0.0125,
      "velocity": 100,
      "chip": "ym2612"
    },
    {
      "channel": 1,
      "note": 64,
      "start": 39.7307,
      "duration": 0.016,
      "velocity": 124,
      "chip": "ym2612"
    },
    {
      "channel": 0,
      "note": 36,
      "start": 39.7325,
      "duration": 0.016,
      "velocity": 115,
      "chip": "ym2612"
    },
    {
      "channel": 4,
      "note": 79,
      "start": 39.7336,
      "duration": 0.016,
      "velocity": 94,
      "chip": "ym2612"
    },
    {
      "channel": 3,
      "note": 79,
      "start": 39.7348,
      "duration": 0.016,
      "velocity": 94,
      "chip": "ym2612"
    },
    {
      "channel": 2,
      "note": 55,
      "start": 39.736,
      "duration": 0.0159,
      "velocity": 100,
      "chip": "ym2612"
    },
    {
      "channel": 1,
      "note": 64,
      "start": 39.7467,
      "duration": 0.0173,
      "velocity": 124,
      "chip": "ym2612"
    },
    {
      "channel": 0,
      "note": 37,
      "start": 39.7485,
      "duration": 0.0172,
      "velocity": 115,
      "chip": "ym2612"
    },
    {
      "channel": 4,
      "note": 79,
      "start": 39.7496,
      "duration": 0.0172,
      "velocity": 94,
      "chip": "ym2612"
    },
    {
      "channel": 3,
      "note": 79,
      "start": 39.7507,
      "duration": 0.0172,
      "velocity": 94,
      "chip": "ym2612"
    },
    {
      "channel": 2,
      "note": 55,
      "start": 39.7519,
      "duration": 0.0172,
      "velocity": 100,
      "chip": "ym2612"
    },
    {
      "channel": 1,
      "note": 64,
      "start": 39.764,
      "duration": 0.0167,
      "velocity": 124,
      "chip": "ym2612"
    },
    {
      "channel": 0,
      "note": 37,
      "start": 39.7656,
      "duration": 0.0167,
      "velocity": 115,
      "chip": "ym2612"
    },
    {
      "channel": 4,
      "note": 79,
      "start": 39.7668,
      "duration": 0.0167,
      "velocity": 94,
      "chip": "ym2612"
    },
    {
      "channel": 3,
      "note": 79,
      "start": 39.768,
      "duration": 0.0167,
      "velocity": 94,
      "chip": "ym2612"
    },
    {
      "channel": 2,
      "note": 55,
      "start": 39.7691,
      "duration": 0.0167,
      "velocity": 100,
      "chip": "ym2612"
    },
    {
      "channel": 1,
      "note": 64,
      "start": 39.7807,
      "duration": 0.0163,
      "velocity": 124,
      "chip": "ym2612"
    },
    {
      "channel": 0,
      "note": 38,
      "start": 39.7823,
      "duration": 0.0163,
      "velocity": 115,
      "chip": "ym2612"
    },
    {
      "channel": 4,
      "note": 79,
      "start": 39.7835,
      "duration": 0.0163,
      "velocity": 94,
      "chip": "ym2612"
    },
    {
      "channel": 3,
      "note": 79,
      "start": 39.7846,
      "duration": 0.0163,
      "velocity": 94,
      "chip": "ym2612"
    },
    {
      "channel": 2,
      "note": 55,
      "start": 39.7857,
      "duration": 0.0163,
      "velocity": 100,
      "chip": "ym2612"
    },
    {
      "channel": 1,
      "note": 64,
      "start": 39.7969,
      "duration": 0.0146,
      "velocity": 124,
      "chip": "ym2612"
    },
    {
      "channel": 0,
      "note": 38,
      "start": 39.7986,
      "duration": 0.0146,
      "velocity": 115,
      "chip": "ym2612"
    },
    {
      "channel": 4,
      "note": 79,
      "start": 39.7998,
      "duration": 0.0146,
      "velocity": 94,
      "chip": "ym2612"
    },
    {
      "channel": 3,
      "note": 79,
      "start": 39.8009,
      "duration": 0.0146,
      "velocity": 94,
      "chip": "ym2612"
    },
    {
      "channel": 2,
      "note": 55,
      "start": 39.802,
      "duration": 0.0146,
      "velocity": 100,
      "chip": "ym2612"
    },
    {
      "channel": 1,
      "note": 64,
      "start": 39.8115,
      "duration": 0.0202,
      "velocity": 105,
      "chip": "ym2612"
    },
    {
      "channel": 0,
      "note": 39,
      "start": 39.8132,
      "duration": 0.0202,
      "velocity": 115,
      "chip": "ym2612"
    },
    {
      "channel": 4,
      "note": 79,
      "start": 39.8144,
      "duration": 0.0204,
      "velocity": 94,
      "chip": "ym2612"
    },
    {
      "channel": 3,
      "note": 79,
      "start": 39.8155,
      "duration": 0.0205,
      "velocity": 94,
      "chip": "ym2612"
    },
    {
      "channel": 2,
      "note": 55,
      "start": 39.8166,
      "duration": 0.0208,
      "velocity": 100,
      "chip": "ym2612"
    },
    {
      "channel": 1,
      "note": 105,
      "start": 39.8317,
      "duration": 0.0144,
      "velocity": 105,
      "chip": "ym2612"
    },
    {
      "channel": 0,
      "note": 39,
      "start": 39.8334,
      "duration": 0.0144,
      "velocity": 115,
      "chip": "ym2612"
    },
    {
      "channel": 4,
      "note": 83,
      "start": 39.8349,
      "duration": 0.0142,
      "velocity": 94,
      "chip": "ym2612"
    },
    {
      "channel": 3,
      "note": 79,
      "start": 39.836,
      "duration": 0.0143,
      "velocity": 94,
      "chip": "ym2612"
    },
    {
      "channel": 2,
      "note": 55,
      "start": 39.8374,
      "duration": 0.014,
      "velocity": 100,
      "chip": "ym2612"
    },
    {
      "channel": 1,
      "note": 105,
      "start": 39.8462,
      "duration": 0.0133,
      "velocity": 105,
      "chip": "ym2612"
    },
    {
      "channel": 0,
      "note": 40,
      "start": 39.8478,
      "duration": 0.0157,
      "velocity": 115,
      "chip": "ym2612"
    },
    {
      "channel": 4,
      "note": 83,
      "start": 39.8491,
      "duration": 0.0156,
      "velocity": 94,
      "chip": "ym2612"
    },
    {
      "channel": 3,
      "note": 79,
      "start": 39.8502,
      "duration": 0.0156,
      "velocity": 94,
      "chip": "ym2612"
    },
    {
      "channel": 2,
      "note": 55,
      "start": 39.8514,
      "duration": 0.0156,
      "velocity": 100,
      "chip": "ym2612"
    },
    {
      "channel": 1,
      "note": 105,
      "start": 39.8595,
      "duration": 0.0161,
      "velocity": 105,
      "chip": "ym2612"
    },
    {
      "channel": 0,
      "note": 40,
      "start": 39.8635,
      "duration": 0.014,
      "velocity": 115,
      "chip": "ym2612"
    },
    {
      "channel": 4,
      "note": 83,
      "start": 39.8647,
      "duration": 0.0141,
      "velocity": 94,
      "chip": "ym2612"
    },
    {
      "channel": 3,
      "note": 79,
      "start": 39.8658,
      "duration": 0.0141,
      "velocity": 94,
      "chip": "ym2612"
    },
    {
      "channel": 2,
      "note": 55,
      "start": 39.867,
      "duration": 0.0141,
      "velocity": 100,
      "chip": "ym2612"
    },
    {
      "channel": 1,
      "note": 105,
      "start": 39.8756,
      "duration": 0.0161,
      "velocity": 105,
      "chip": "ym2612"
    },
    {
      "channel": 0,
      "note": 40,
      "start": 39.8775,
      "duration": 0.0186,
      "velocity": 115,
      "chip": "ym2612"
    },
    {
      "channel": 4,
      "note": 83,
      "start": 39.8787,
      "duration": 0.0185,
      "velocity": 94,
      "chip": "ym2612"
    },
    {
      "channel": 3,
      "note": 79,
      "start": 39.8799,
      "duration": 0.0185,
      "velocity": 94,
      "chip": "ym2612"
    },
    {
      "channel": 2,
      "note": 55,
      "start": 39.881,
      "duration": 0.0185,
      "velocity": 100,
      "chip": "ym2612"
    },
    {
      "channel": 1,
      "note": 105,
      "start": 39.8917,
      "duration": 0.0161,
      "velocity": 105,
      "chip": "ym2612"
    },
    {
      "channel": 0,
      "note": 41,
      "start": 39.8961,
      "duration": 0.0134,
      "velocity": 115,
      "chip": "ym2612"
    },
    {
      "channel": 4,
      "note": 83,
      "start": 39.8973,
      "duration": 0.0161,
      "velocity": 94,
      "chip": "ym2612"
    },
    {
      "channel": 3,
      "note": 79,
      "start": 39.8984,
      "duration": 0.0161,
      "velocity": 94,
      "chip": "ym2612"
    },
    {
      "channel": 2,
      "note": 55,
      "start": 39.8995,
      "duration": 0.0161,
      "velocity": 100,
      "chip": "ym2612"
    },
    {
      "channel": 1,
      "note": 105,
      "start": 39.9078,
      "duration": 0.0161,
      "velocity": 105,
      "chip": "ym2612"
    },
    {
      "channel": 0,
      "note": 41,
      "start": 39.9095,
      "duration": 0.0161,
      "velocity": 115,
      "chip": "ym2612"
    },
    {
      "channel": 4,
      "note": 83,
      "start": 39.9134,
      "duration": 0.0158,
      "velocity": 94,
      "chip": "ym2612"
    },
    {
      "channel": 3,
      "note": 79,
      "start": 39.9145,
      "duration": 0.0158,
      "velocity": 94,
      "chip": "ym2612"
    },
    {
      "channel": 2,
      "note": 55,
      "start": 39.9156,
      "duration": 0.0158,
      "velocity": 100,
      "chip": "ym2612"
    },
    {
      "channel": 1,
      "note": 105,
      "start": 39.9239,
      "duration": 0.0178,
      "velocity": 124,
      "chip": "ym2612"
    },
    {
      "channel": 0,
      "note": 42,
      "start": 39.9256,
      "duration": 0.0181,
      "velocity": 115,
      "chip": "ym2612"
    },
    {
      "channel": 4,
      "note": 83,
      "start": 39.9291,
      "duration": 0.0158,
      "velocity": 94,
      "chip": "ym2612"
    },
    {
      "channel": 3,
      "note": 79,
      "start": 39.9303,
      "duration": 0.016,
      "velocity": 94,
      "chip": "ym2612"
    },
    {
      "channel": 2,
      "note": 55,
      "start": 39.9314,
      "duration": 0.0163,
      "velocity": 100,
      "chip": "ym2612"
    },
    {
      "channel": 1,
      "note": 64,
      "start": 39.9417,
      "duration": 0.0144,
      "velocity": 124,
      "chip": "ym2612"
    },
    {
      "channel": 0,
      "note": 42,
      "start": 39.9437,
      "duration": 0.0141,
      "velocity": 115,
      "chip": "ym2612"
    },
    {
      "channel": 4,
      "note": 83,
      "start": 39.9449,
      "duration": 0.0141,
      "velocity": 94,
      "chip": "ym2612"
    },
    {
      "channel": 3,
      "note": 83,
      "start": 39.9463,
      "duration": 0.0166,
      "velocity": 94,
      "chip": "ym2612"
    },
    {
      "channel": 2,
      "note": 55,
      "start": 39.9478,
      "duration": 0.0163,
      "velocity": 100,
      "chip": "ym2612"
    },
    {
      "channel": 1,
      "note": 64,
      "start": 39.9562,
      "duration": 0.016,
      "velocity": 124,
      "chip": "ym2612"
    },
    {
      "channel": 0,
      "note": 43,
      "start": 39.9578,
      "duration": 0.016,
      "velocity": 115,
      "chip": "ym2612"
    },
    {
      "channel": 4,
      "note": 83,
      "start": 39.959,
      "duration": 0.0161,
      "velocity": 94,
      "chip": "ym2612"
    },
    {
      "channel": 3,
      "note": 83,
      "start": 39.9629,
      "duration": 0.0133,
      "velocity": 94,
      "chip": "ym2612"
    },
    {
      "channel": 2,
      "note": 55,
      "start": 39.9641,
      "duration": 0.016,
      "velocity": 100,
      "chip": "ym2612"
    },
    {
      "channel": 1,
      "note": 64,
      "start": 39.9722,
      "duration": 0.0161,
      "velocity": 124,
      "chip": "ym2612"
    },
    {
      "channel": 0,
      "note": 43,
      "start": 39.9738,
      "duration": 0.0161,
      "velocity": 115,
      "chip": "ym2612"
    },
    {
      "channel": 4,
      "note": 83,
      "start": 39.9751,
      "duration": 0.0161,
      "velocity": 94,
      "chip": "ym2612"
    },
    {
      "channel": 3,
      "note": 83,
      "start": 39.9762,
      "duration": 0.0161,
      "velocity": 94,
      "chip": "ym2612"
    },
    {
      "channel": 2,
      "note": 55,
      "start": 39.9801,
      "duration": 0.0157,
      "velocity": 100,
      "chip": "ym2612"
    },
    {
      "channel": 1,
      "note": 64,
      "start": 39.9883,
      "duration": 0.0161,
      "velocity": 124,
      "chip": "ym2612"
    },
    {
      "channel": 0,
      "note": 44,
      "start": 39.9899,
      "duration": 0.0161,
      "velocity": 115,
      "chip": "ym2612"
    },
    {
      "channel": 4,
      "note": 83,
      "start": 39.9911,
      "duration": 0.0161,
      "velocity": 94,
      "chip": "ym2612"
    },
    {
      "channel": 3,
      "note": 83,
      "start": 39.9923,
      "duration": 0.0161,
      "velocity": 94,
      "chip": "ym2612"
    },
    {
      "channel": 2,
      "note": 55,
      "start": 39.9958,
      "duration": 0.0137,
      "velocity": 100,
      "chip": "ym2612"
    },
    {
      "channel": 1,
      "note": 64,
      "start": 40.0044,
      "duration": 0.0161,
      "velocity": 124,
      "chip": "ym2612"
    },
    {
      "channel": 0,
      "note": 44,
      "start": 40.006,
      "duration": 0.0161,
      "velocity": 115,
      "chip": "ym2612"
    },
    {
      "channel": 4,
      "note": 83,
      "start": 40.0072,
      "duration": 0.0161,
      "velocity": 94,
      "chip": "ym2612"
    },
    {
      "channel": 3,
      "note": 83,
      "start": 40.0084,
      "duration": 0.0161,
      "velocity": 94,
      "chip": "ym2612"
    },
    {
      "channel": 2,
      "note": 55,
      "start": 40.0095,
      "duration": 0.0162,
      "velocity": 100,
      "chip": "ym2612"
    },
    {
      "channel": 1,
      "note": 64,
      "start": 40.0205,
      "duration": 0.0161,
      "velocity": 124,
      "chip": "ym2612"
    },
    {
      "channel": 0,
      "note": 44,
      "start": 40.0222,
      "duration": 0.0161,
      "velocity": 115,
      "chip": "ym2612"
    },
    {
      "channel": 4,
      "note": 83,
      "start": 40.0233,
      "duration": 0.0161,
      "velocity": 94,
      "chip": "ym2612"
    },
    {
      "channel": 3,
      "note": 83,
      "start": 40.0245,
      "duration": 0.0161,
      "velocity": 94,
      "chip": "ym2612"
    },
    {
      "channel": 2,
      "note": 55,
      "start": 40.0256,
      "duration": 0.0161,
      "velocity": 100,
      "chip": "ym2612"
    },
    {
      "channel": 1,
      "note": 64,
      "start": 40.0366,
      "duration": 0.0178,
      "velocity": 105,
      "chip": "ym2612"
    },
    {
      "channel": 0,
      "note": 45,
      "start": 40.0383,
      "duration": 0.0178,
      "velocity": 115,
      "chip": "ym2612"
    },
    {
      "channel": 4,
      "note": 83,
      "start": 40.0394,
      "duration": 0.0178,
      "velocity": 94,
      "chip": "ym2612"
    },
    {
      "channel": 3,
      "note": 83,
      "start": 40.0406,
      "duration": 0.0178,
      "velocity": 94,
      "chip": "ym2612"
    },
    {
      "channel": 2,
      "note": 55,
      "start": 40.0417,
      "duration": 0.018,
      "velocity": 100,
      "chip": "ym2612"
    },
    {
      "channel": 1,
      "note": 105,
      "start": 40.0544,
      "duration": 0.0144,
      "velocity": 105,
      "chip": "ym2612"
    },
    {
      "channel": 0,
      "note": 45,
      "start": 40.0561,
      "duration": 0.0144,
      "velocity": 115,
      "chip": "ym2612"
    },
    {
      "channel": 4,
      "note": 83,
      "start": 40.0572,
      "duration": 0.0144,
      "velocity": 94,
      "chip": "ym2612"
    },
    {
      "channel": 3,
      "note": 83,
      "start": 40.0584,
      "duration": 0.0144,
      "velocity": 94,
      "chip": "ym2612"
    },
    {
      "channel": 2,
      "note": 55,
      "start": 40.0622,
      "duration": 0.0118,
      "velocity": 100,
      "chip": "ym2612"
    },
    {
      "channel": 1,
      "note": 105,
      "start": 40.0688,
      "duration": 0.0161,
      "velocity": 105,
      "chip": "ym2612"
    },
    {
      "channel": 0,
      "note": 46,
      "start": 40.0705,
      "duration": 0.016,
      "velocity": 115,
      "chip": "ym2612"
    },
    {
      "channel": 4,
      "note": 83,
      "start": 40.0717,
      "duration": 0.016,
      "velocity": 94,
      "chip": "ym2612"
    },
    {
      "channel": 3,
      "note": 83,
      "start": 40.0728,
      "duration": 0.016,
      "velocity": 94,
      "chip": "ym2612"
    },
    {
      "channel": 2,
      "note": 55,
      "start": 40.074,
      "duration": 0.016,
      "velocity": 100,
      "chip": "ym2612"
    },
    {
      "channel": 1,
      "note": 105,
      "start": 40.0849,
      "duration": 0.0161,
      "velocity": 105,
      "chip": "ym2612"
    },
    {
      "channel": 0,
      "note": 46,
      "start": 40.0866,
      "duration": 0.0161,
      "velocity": 115,
      "chip": "ym2612"
    },
    {
      "channel": 4,
      "note": 83,
      "start": 40.0877,
      "duration": 0.0161,
      "velocity": 94,
      "chip": "ym2612"
    },
    {
      "channel": 3,
      "note": 83,
      "start": 40.0888,
      "duration": 0.0161,
      "velocity": 94,
      "chip": "ym2612"
    },
    {
      "channel": 2,
      "note": 55,
      "start": 40.09,
      "duration": 0.0161,
      "velocity": 100,
      "chip": "ym2612"
    },
    {
      "channel": 1,
      "note": 105,
      "start": 40.101,
      "duration": 0.0161,
      "velocity": 105,
      "chip": "ym2612"
    },
    {
      "channel": 0,
      "note": 47,
      "start": 40.1027,
      "duration": 0.0161,
      "velocity": 115,
      "chip": "ym2612"
    },
    {
      "channel": 4,
      "note": 83,
      "start": 40.1038,
      "duration": 0.0161,
      "velocity": 94,
      "chip": "ym2612"
    },
    {
      "channel": 3,
      "note": 83,
      "start": 40.1049,
      "duration": 0.0161,
      "velocity": 94,
      "chip": "ym2612"
    },
    {
      "channel": 2,
      "note": 55,
      "start": 40.1061,
      "duration": 0.0161,
      "velocity": 100,
      "chip": "ym2612"
    },
    {
      "channel": 1,
      "note": 105,
      "start": 40.1171,
      "duration": 0.0161,
      "velocity": 105,
      "chip": "ym2612"
    },
    {
      "channel": 0,
      "note": 47,
      "start": 40.1188,
      "duration": 0.0161,
      "velocity": 115,
      "chip": "ym2612"
    },
    {
      "channel": 4,
      "note": 83,
      "start": 40.1199,
      "duration": 0.0161,
      "velocity": 94,
      "chip": "ym2612"
    },
    {
      "channel": 3,
      "note": 83,
      "start": 40.121,
      "duration": 0.0161,
      "velocity": 94,
      "chip": "ym2612"
    },
    {
      "channel": 2,
      "note": 55,
      "start": 40.1222,
      "duration": 0.0161,
      "velocity": 100,
      "chip": "ym2612"
    },
    {
      "channel": 1,
      "note": 105,
      "start": 40.1332,
      "duration": 0.0161,
      "velocity": 105,
      "chip": "ym2612"
    },
    {
      "channel": 0,
      "note": 47,
      "start": 40.1349,
      "duration": 0.0161,
      "velocity": 115,
      "chip": "ym2612"
    },
    {
      "channel": 4,
      "note": 83,
      "start": 40.136,
      "duration": 0.0162,
      "velocity": 94,
      "chip": "ym2612"
    },
    {
      "channel": 3,
      "note": 83,
      "start": 40.1371,
      "duration": 0.0161,
      "velocity": 94,
      "chip": "ym2612"
    },
    {
      "channel": 2,
      "note": 55,
      "start": 40.1383,
      "duration": 0.0161,
      "velocity": 100,
      "chip": "ym2612"
    },
    {
      "channel": 1,
      "note": 105,
      "start": 40.1493,
      "duration": 0.0184,
      "velocity": 124,
      "chip": "ym2612"
    },
    {
      "channel": 0,
      "note": 48,
      "start": 40.1509,
      "duration": 0.0192,
      "velocity": 115,
      "chip": "ym2612"
    },
    {
      "channel": 4,
      "note": 83,
      "start": 40.1522,
      "duration": 0.0191,
      "velocity": 94,
      "chip": "ym2612"
    },
    {
      "channel": 3,
      "note": 83,
      "start": 40.1533,
      "duration": 0.0191,
      "velocity": 94,
      "chip": "ym2612"
    },
    {
      "channel": 2,
      "note": 55,
      "start": 40.1544,
      "duration": 0.0194,
      "velocity": 100,
      "chip": "ym2612"
    },
    {
      "channel": 1,
      "note": 78,
      "start": 40.1677,
      "duration": 0.0144,
      "velocity": 124,
      "chip": "ym2612"
    },
    {
      "channel": 0,
      "note": 48,
      "start": 40.1701,
      "duration": 0.0139,
      "velocity": 115,
      "chip": "ym2612"
    },
    {
      "channel": 4,
      "note": 83,
      "start": 40.1712,
      "duration": 0.0139,
      "velocity": 94,
      "chip": "ym2612"
    },
    {
      "channel": 3,
      "note": 83,
      "start": 40.1724,
      "duration": 0.0139,
      "velocity": 94,
      "chip": "ym2612"
    },
    {
      "channel": 2,
      "note": 55,
      "start": 40.1738,
      "duration": 0.0136,
      "velocity": 100,
      "chip": "ym2612"
    },
    {
      "channel": 1,
      "note": 76,
      "start": 40.182,
      "duration": 0.016,
      "velocity": 124,
      "chip": "ym2612"
    },
    {
      "channel": 0,
      "note": 49,
      "start": 40.1839,
      "duration": 0.0152,
      "velocity": 1,
      "chip": "ym2612"
    },
    {
      "channel": 4,
      "note": 83,
      "start": 40.1852,
      "duration": 0.0151,
      "velocity": 94,
      "chip": "ym2612"
    },
    {
      "channel": 3,
      "note": 83,
      "start": 40.1863,
      "duration": 0.0151,
      "velocity": 94,
      "chip": "ym2612"
    },
    {
      "channel": 2,
      "note": 55,
      "start": 40.1875,
      "duration": 0.0151,
      "velocity": 100,
      "chip": "ym2612"
    },
    {
      "channel": 1,
      "note": 75,
      "start": 40.1981,
      "duration": 0.0161,
      "velocity": 124,
      "chip": "ym2612"
    },
    {
      "channel": 4,
      "note": 83,
      "start": 40.2003,
      "duration": 0.0153,
      "velocity": 94,
      "chip": "ym2612"
    },
    {
      "channel": 3,
      "note": 83,
      "start": 40.2015,
      "duration": 0.0153,
      "velocity": 94,
      "chip": "ym2612"
    },
    {
      "channel": 2,
      "note": 55,
      "start": 40.2026,
      "duration": 0.0153,
      "velocity": 100,
      "chip": "ym2612"
    },
    {
      "channel": 1,
      "note": 74,
      "start": 40.2142,
      "duration": 0.0169,
      "velocity": 124,
      "chip": "ym2612"
    },
    {
      "channel": 4,
      "note": 83,
      "start": 40.2156,
      "duration": 0.0169,
      "velocity": 94,
      "chip": "ym2612"
    },
    {
      "channel": 3,
      "note": 83,
      "start": 40.2167,
      "duration": 0.0169,
      "velocity": 94,
      "chip": "ym2612"
    },
    {
      "channel": 2,
      "note": 55,
      "start": 40.2179,
      "duration": 0.0169,
      "velocity": 100,
      "chip": "ym2612"
    },
    {
      "channel": 1,
      "note": 72,
      "start": 40.2311,
      "duration": 0.0167,
      "velocity": 124,
      "chip": "ym2612"
    },
    {
      "channel": 4,
      "note": 83,
      "start": 40.2325,
      "duration": 0.0167,
      "velocity": 94,
      "chip": "ym2612"
    },
    {
      "channel": 3,
      "note": 83,
      "start": 40.2336,
      "duration": 0.0167,
      "velocity": 94,
      "chip": "ym2612"
    },
    {
      "channel": 2,
      "note": 55,
      "start": 40.2348,
      "duration": 0.0167,
      "velocity": 100,
      "chip": "ym2612"
    },
    {
      "channel": 1,
      "note": 71,
      "start": 40.2478,
      "duration": 0.0163,
      "velocity": 124,
      "chip": "ym2612"
    },
    {
      "channel": 4,
      "note": 83,
      "start": 40.2492,
      "duration": 0.0163,
      "velocity": 94,
      "chip": "ym2612"
    },
    {
      "channel": 3,
      "note": 83,
      "start": 40.2503,
      "duration": 0.0163,
      "velocity": 94,
      "chip": "ym2612"
    },
    {
      "channel": 2,
      "note": 55,
      "start": 40.2515,
      "duration": 0.0163,
      "velocity": 100,
      "chip": "ym2612"
    },
    {
      "channel": 1,
      "note": 70,
      "start": 40.2641,
      "duration": 0.0147,
      "velocity": 124,
      "chip": "ym2612"
    },
    {
      "channel": 4,
      "note": 83,
      "start": 40.2655,
      "duration": 0.0152,
      "velocity": 94,
      "chip": "ym2612"
    },
    {
      "channel": 3,
      "note": 83,
      "start": 40.2666,
      "duration": 0.0152,
      "velocity": 94,
      "chip": "ym2612"
    },
    {
      "channel": 2,
      "note": 55,
      "start": 40.2678,
      "duration": 0.0155,
      "velocity": 100,
      "chip": "ym2612"
    },
    {
      "channel": 1,
      "note": 69,
      "start": 40.2788,
      "duration": 0.0186,
      "velocity": 124,
      "chip": "ym2612"
    },
    {
      "channel": 4,
      "note": 83,
      "start": 40.2807,
      "duration": 0.0182,
      "velocity": 94,
      "chip": "ym2612"
    },
    {
      "channel": 3,
      "note": 83,
      "start": 40.2819,
      "duration": 0.0182,
      "velocity": 94,
      "chip": "ym2612"
    },
    {
      "channel": 2,
      "note": 55,
      "start": 40.2833,
      "duration": 0.0179,
      "velocity": 100,
      "chip": "ym2612"
    },
    {
      "channel": 1,
      "note": 68,
      "start": 40.2974,
      "duration": 0.0161,
      "velocity": 124,
      "chip": "ym2612"
    },
    {
      "channel": 4,
      "note": 83,
      "start": 40.2989,
      "duration": 0.016,
      "velocity": 94,
      "chip": "ym2612"
    },
    {
      "channel": 3,
      "note": 83,
      "start": 40.3,
      "duration": 0.016,
      "velocity": 94,
      "chip": "ym2612"
    },
    {
      "channel": 2,
      "note": 55,
      "start": 40.3012,
      "duration": 0.016,
      "velocity": 100,
      "chip": "ym2612"
    },
    {
      "channel": 1,
      "note": 66,
      "start": 40.3135,
      "duration": 0.0158,
      "velocity": 124,
      "chip": "ym2612"
    },
    {
      "channel": 4,
      "note": 83,
      "start": 40.3149,
      "duration": 0.0157,
      "velocity": 94,
      "chip": "ym2612"
    },
    {
      "channel": 3,
      "note": 83,
      "start": 40.3161,
      "duration": 0.0157,
      "velocity": 94,
      "chip": "ym2612"
    },
    {
      "channel": 2,
      "note": 55,
      "start": 40.3172,
      "duration": 0.0157,
      "velocity": 100,
      "chip": "ym2612"
    },
    {
      "channel": 1,
      "note": 65,
      "start": 40.3293,
      "duration": 0.0137,
      "velocity": 124,
      "chip": "ym2612"
    },
    {
      "channel": 4,
      "note": 83,
      "start": 40.3307,
      "duration": 0.0141,
      "velocity": 94,
      "chip": "ym2612"
    },
    {
      "channel": 3,
      "note": 83,
      "start": 40.3318,
      "duration": 0.0141,
      "velocity": 94,
      "chip": "ym2612"
    },
    {
      "channel": 2,
      "note": 55,
      "start": 40.3329,
      "duration": 0.0141,
      "velocity": 100,
      "chip": "ym2612"
    },
    {
      "channel": 1,
      "note": 64,
      "start": 40.343,
      "duration": 0.0161,
      "velocity": 124,
      "chip": "ym2612"
    },
    {
      "channel": 4,
      "note": 83,
      "start": 40.3447,
      "duration": 0.0185,
      "velocity": 94,
      "chip": "ym2612"
    },
    {
      "channel": 3,
      "note": 83,
      "start": 40.3459,
      "duration": 0.0185,
      "velocity": 94,
      "chip": "ym2612"
    },
    {
      "channel": 2,
      "note": 55,
      "start": 40.347,
      "duration": 0.0185,
      "velocity": 100,
      "chip": "ym2612"
    },
    {
      "channel": 1,
      "note": 62,
      "start": 40.3591,
      "duration": 0.0161,
      "velocity": 124,
      "chip": "ym2612"
    },
    {
      "channel": 4,
      "note": 83,
      "start": 40.3632,
      "duration": 0.0161,
      "velocity": 94,
      "chip": "ym2612"
    },
    {
      "channel": 3,
      "note": 83,
      "start": 40.3644,
      "duration": 0.0161,
      "velocity": 94,
      "chip": "ym2612"
    },
    {
      "channel": 2,
      "note": 55,
      "start": 40.3655,
      "duration": 0.0161,
      "velocity": 100,
      "chip": "ym2612"
    },
    {
      "channel": 1,
      "note": 61,
      "start": 40.3752,
      "duration": 0.0161,
      "velocity": 124,
      "chip": "ym2612"
    },
    {
      "channel": 4,
      "note": 83,
      "start": 40.3793,
      "duration": 0.0163,
      "velocity": 94,
      "chip": "ym2612"
    },
    {
      "channel": 3,
      "note": 83,
      "start": 40.3805,
      "duration": 0.0163,
      "velocity": 94,
      "chip": "ym2612"
    },
    {
      "channel": 2,
      "note": 55,
      "start": 40.3816,
      "duration": 0.0165,
      "velocity": 100,
      "chip": "ym2612"
    },
    {
      "channel": 1,
      "note": 60,
      "start": 40.3913,
      "duration": 0.0162,
      "velocity": 124,
      "chip": "ym2612"
    },
    {
      "channel": 4,
      "note": 83,
      "start": 40.3956,
      "duration": 0.0132,
      "velocity": 94,
      "chip": "ym2612"
    },
    {
      "channel": 3,
      "note": 83,
      "start": 40.3967,
      "duration": 0.0136,
      "velocity": 94,
      "chip": "ym2612"
    },
    {
      "channel": 2,
      "note": 55,
      "start": 40.3982,
      "duration": 0.0133,
      "velocity": 100,
      "chip": "ym2612"
    },
    {
      "channel": 1,
      "note": 59,
      "start": 40.4074,
      "duration": 0.0161,
      "velocity": 124,
      "chip": "ym2612"
    },
    {
      "channel": 4,
      "note": 83,
      "start": 40.4088,
      "duration": 0.016,
      "velocity": 94,
      "chip": "ym2612"
    },
    {
      "channel": 3,
      "note": 83,
      "start": 40.4103,
      "duration": 0.0157,
      "velocity": 94,
      "chip": "ym2612"
    },
    {
      "channel": 2,
      "note": 55,
      "start": 40.4115,
      "duration": 0.0184,
      "velocity": 100,
      "chip": "ym2612"
    },
    {
      "channel": 1,
      "note": 57,
      "start": 40.4235,
      "duration": 0.0161,
      "velocity": 124,
      "chip": "ym2612"
    },
    {
      "channel": 4,
      "note": 83,
      "start": 40.4249,
      "duration": 0.0162,
      "velocity": 94,
      "chip": "ym2612"
    },
    {
      "channel": 3,
      "note": 83,
      "start": 40.426,
      "duration": 0.0161,
      "velocity": 94,
      "chip": "ym2612"
    },
    {
      "channel": 2,
      "note": 55,
      "start": 40.4299,
      "duration": 0.0161,
      "velocity": 100,
      "chip": "ym2612"
    },
    {
      "channel": 1,
      "note": 56,
      "start": 40.4396,
      "duration": 0.0161,
      "velocity": 124,
      "chip": "ym2612"
    },
    {
      "channel": 4,
      "note": 83,
      "start": 40.441,
      "duration": 0.0161,
      "velocity": 94,
      "chip": "ym2612"
    },
    {
      "channel": 3,
      "note": 83,
      "start": 40.4422,
      "duration": 0.0161,
      "velocity": 94,
      "chip": "ym2612"
    },
    {
      "channel": 2,
      "note": 55,
      "start": 40.446,
      "duration": 0.0134,
      "velocity": 100,
      "chip": "ym2612"
    },
    {
      "channel": 1,
      "note": 55,
      "start": 40.4557,
      "duration": 0.0161,
      "velocity": 124,
      "chip": "ym2612"
    },
    {
      "channel": 4,
      "note": 83,
      "start": 40.4571,
      "duration": 0.0161,
      "velocity": 94,
      "chip": "ym2612"
    },
    {
      "channel": 3,
      "note": 83,
      "start": 40.4583,
      "duration": 0.0161,
      "velocity": 94,
      "chip": "ym2612"
    },
    {
      "channel": 2,
      "note": 55,
      "start": 40.4594,
      "duration": 0.0161,
      "velocity": 100,
      "chip": "ym2612"
    },
    {
      "channel": 1,
      "note": 53,
      "start": 40.4718,
      "duration": 0.0161,
      "velocity": 124,
      "chip": "ym2612"
    },
    {
      "channel": 4,
      "note": 83,
      "start": 40.4732,
      "duration": 0.0161,
      "velocity": 94,
      "chip": "ym2612"
    },
    {
      "channel": 3,
      "note": 83,
      "start": 40.4744,
      "duration": 0.0161,
      "velocity": 94,
      "chip": "ym2612"
    },
    {
      "channel": 2,
      "note": 55,
      "start": 40.4755,
      "duration": 0.0161,
      "velocity": 100,
      "chip": "ym2612"
    },
    {
      "channel": 1,
      "note": 52,
      "start": 40.4879,
      "duration": 0.0161,
      "velocity": 124,
      "chip": "ym2612"
    },
    {
      "channel": 4,
      "note": 83,
      "start": 40.4893,
      "duration": 0.0201,
      "velocity": 94,
      "chip": "ym2612"
    },
    {
      "channel": 3,
      "note": 83,
      "start": 40.4905,
      "duration": 0.0228,
      "velocity": 94,
      "chip": "ym2612"
    },
    {
      "channel": 2,
      "note": 55,
      "start": 40.4916,
      "duration": 0.0231,
      "velocity": 100,
      "chip": "ym2612"
    },
    {
      "channel": 1,
      "note": 51,
      "start": 40.504,
      "duration": 0.0153,
      "velocity": 1,
      "chip": "ym2612"
    },
    {
      "channel": 0,
      "note": 36,
      "start": 40.5082,
      "duration": 0.015,
      "velocity": 115,
      "chip": "ym2612"
    },
    {
      "channel": 4,
      "note": 83,
      "start": 40.5094,
      "duration": 0.0149,
      "velocity": 94,
      "chip": "ym2612"
    },
    {
      "channel": 3,
      "note": 83,
      "start": 40.5133,
      "duration": 0.0122,
      "velocity": 94,
      "chip": "ym2612"
    },
    {
      "channel": 2,
      "note": 55,
      "start": 40.5147,
      "duration": 0.0143,
      "velocity": 100,
      "chip": "ym2612"
    },
    {
      "channel": 1,
      "note": 51,
      "start": 40.5215,
      "duration": 0.0142,
      "velocity": 105,
      "chip": "ym2612"
    },
    {
      "channel": 0,
      "note": 36,
      "start": 40.5232,
      "duration": 0.0142,
      "velocity": 115,
      "chip": "ym2612"
    },
    {
      "channel": 4,
      "note": 83,
      "start": 40.5244,
      "duration": 0.0142,
      "velocity": 94,
      "chip": "ym2612"
    },
    {
      "channel": 3,
      "note": 83,
      "start": 40.5255,
      "duration": 0.0142,
      "velocity": 94,
      "chip": "ym2612"
    },
    {
      "channel": 2,
      "note": 55,
      "start": 40.529,
      "duration": 0.0118,
      "velocity": 100,
      "chip": "ym2612"
    },
    {
      "channel": 1,
      "note": 105,
      "start": 40.5357,
      "duration": 0.0161,
      "velocity": 105,
      "chip": "ym2612"
    },
    {
      "channel": 0,
      "note": 37,
      "start": 40.5374,
      "duration": 0.0161,
      "velocity": 115,
      "chip": "ym2612"
    },
    {
      "channel": 4,
      "note": 83,
      "start": 40.5385,
      "duration": 0.0161,
      "velocity": 94,
      "chip": "ym2612"
    },
    {
      "channel": 3,
      "note": 83,
      "start": 40.5397,
      "duration": 0.0161,
      "velocity": 94,
      "chip": "ym2612"
    },
    {
      "channel": 2,
      "note": 55,
      "start": 40.5408,
      "duration": 0.0161,
      "velocity": 100,
      "chip": "ym2612"
    },
    {
      "channel": 1,
      "note": 105,
      "start": 40.5518,
      "duration": 0.0161,
      "velocity": 105,
      "chip": "ym2612"
    },
    {
      "channel": 0,
      "note": 37,
      "start": 40.5535,
      "duration": 0.0161,
      "velocity": 115,
      "chip": "ym2612"
    },
    {
      "channel": 4,
      "note": 83,
      "start": 40.5546,
      "duration": 0.0161,
      "velocity": 94,
      "chip": "ym2612"
    },
    {
      "channel": 3,
      "note": 83,
      "start": 40.5558,
      "duration": 0.0161,
      "velocity": 94,
      "chip": "ym2612"
    },
    {
      "channel": 2,
      "note": 55,
      "start": 40.5569,
      "duration": 0.0161,
      "velocity": 100,
      "chip": "ym2612"
    },
    {
      "channel": 1,
      "note": 105,
      "start": 40.5679,
      "duration": 0.0161,
      "velocity": 105,
      "chip": "ym2612"
    },
    {
      "channel": 0,
      "note": 38,
      "start": 40.5696,
      "duration": 0.0161,
      "velocity": 115,
      "chip": "ym2612"
    },
    {
      "channel": 4,
      "note": 83,
      "start": 40.5707,
      "duration": 0.0161,
      "velocity": 94,
      "chip": "ym2612"
    },
    {
      "channel": 3,
      "note": 83,
      "start": 40.5719,
      "duration": 0.0161,
      "velocity": 94,
      "chip": "ym2612"
    },
    {
      "channel": 2,
      "note": 55,
      "start": 40.573,
      "duration": 0.0161,
      "velocity": 100,
      "chip": "ym2612"
    },
    {
      "channel": 1,
      "note": 105,
      "start": 40.584,
      "duration": 0.0161,
      "velocity": 105,
      "chip": "ym2612"
    },
    {
      "channel": 0,
      "note": 38,
      "start": 40.5857,
      "duration": 0.0161,
      "velocity": 115,
      "chip": "ym2612"
    },
    {
      "channel": 4,
      "note": 83,
      "start": 40.5868,
      "duration": 0.0161,
      "velocity": 94,
      "chip": "ym2612"
    },
    {
      "channel": 3,
      "note": 83,
      "start": 40.588,
      "duration": 0.0162,
      "velocity": 94,
      "chip": "ym2612"
    },
    {
      "channel": 2,
      "note": 55,
      "start": 40.5891,
      "duration": 0.0161,
      "velocity": 100,
      "chip": "ym2612"
    },
    {
      "channel": 1,
      "note": 105,
      "start": 40.6001,
      "duration": 0.0178,
      "velocity": 124,
      "chip": "ym2612"
    },
    {
      "channel": 0,
      "note": 39,
      "start": 40.6018,
      "duration": 0.0197,
      "velocity": 115,
      "chip": "ym2612"
    },
    {
      "channel": 4,
      "note": 83,
      "start": 40.603,
      "duration": 0.0197,
      "velocity": 94,
      "chip": "ym2612"
    },
    {
      "channel": 3,
      "note": 83,
      "start": 40.6041,
      "duration": 0.0197,
      "velocity": 94,
      "chip": "ym2612"
    },
    {
      "channel": 2,
      "note": 55,
      "start": 40.6052,
      "duration": 0.02,
      "velocity": 100,
      "chip": "ym2612"
    },
    {
      "channel": 1,
      "note": 64,
      "start": 40.618,
      "duration": 0.0144,
      "velocity": 124,
      "chip": "ym2612"
    },
    {
      "channel": 0,
      "note": 36,
      "start": 40.6214,
      "duration": 0.0127,
      "velocity": 115,
      "chip": "ym2612"
    },
    {
      "channel": 4,
      "note": 83,
      "start": 40.6226,
      "duration": 0.0127,
      "velocity": 94,
      "chip": "ym2612"
    },
    {
      "channel": 3,
      "note": 83,
      "start": 40.6238,
      "duration": 0.0127,
      "velocity": 94,
      "chip": "ym2612"
    },
    {
      "channel": 2,
      "note": 55,
      "start": 40.6252,
      "duration": 0.0125,
      "velocity": 100,
      "chip": "ym2612"
    },
    {
      "channel": 1,
      "note": 64,
      "start": 40.6324,
      "duration": 0.0161,
      "velocity": 124,
      "chip": "ym2612"
    },
    {
      "channel": 0,
      "note": 36,
      "start": 40.6341,
      "duration": 0.016,
      "velocity": 115,
      "chip": "ym2612"
    },
    {
      "channel": 4,
      "note": 83,
      "start": 40.6353,
      "duration": 0.016,
      "velocity": 94,
      "chip": "ym2612"
    },
    {
      "channel": 3,
      "note": 83,
      "start": 40.6364,
      "duration": 0.016,
      "velocity": 94,
      "chip": "ym2612"
    },
    {
      "channel": 2,
      "note": 55,
      "start": 40.6376,
      "duration": 0.0159,
      "velocity": 100,
      "chip": "ym2612"
    },
    {
      "channel": 1,
      "note": 64,
      "start": 40.6485,
      "duration": 0.0161,
      "velocity": 124,
      "chip": "ym2612"
    },
    {
      "channel": 0,
      "note": 37,
      "start": 40.6501,
      "duration": 0.0161,
      "velocity": 115,
      "chip": "ym2612"
    },
    {
      "channel": 4,
      "note": 83,
      "start": 40.6513,
      "duration": 0.0161,
      "velocity": 94,
      "chip": "ym2612"
    },
    {
      "channel": 3,
      "note": 83,
      "start": 40.6524,
      "duration": 0.0161,
      "velocity": 94,
      "chip": "ym2612"
    },
    {
      "channel": 2,
      "note": 55,
      "start": 40.6535,
      "duration": 0.0161,
      "velocity": 100,
      "chip": "ym2612"
    },
    {
      "channel": 1,
      "note": 64,
      "start": 40.6646,
      "duration": 0.0161,
      "velocity": 124,
      "chip": "ym2612"
    },
    {
      "channel": 0,
      "note": 37,
      "start": 40.6662,
      "duration": 0.0161,
      "velocity": 115,
      "chip": "ym2612"
    },
    {
      "channel": 4,
      "note": 83,
      "start": 40.6673,
      "duration": 0.0161,
      "velocity": 94,
      "chip": "ym2612"
    },
    {
      "channel": 3,
      "note": 83,
      "start": 40.6685,
      "duration": 0.0161,
      "velocity": 94,
      "chip": "ym2612"
    },
    {
      "channel": 2,
      "note": 55,
      "start": 40.6696,
      "duration": 0.0161,
      "velocity": 100,
      "chip": "ym2612"
    },
    {
      "channel": 1,
      "note": 64,
      "start": 40.6807,
      "duration": 0.0167,
      "velocity": 124,
      "chip": "ym2612"
    },
    {
      "channel": 0,
      "note": 38,
      "start": 40.6823,
      "duration": 0.0167,
      "velocity": 115,
      "chip": "ym2612"
    },
    {
      "channel": 4,
      "note": 83,
      "start": 40.6834,
      "duration": 0.0167,
      "velocity": 94,
      "chip": "ym2612"
    },
    {
      "channel": 3,
      "note": 83,
      "start": 40.6846,
      "duration": 0.0167,
      "velocity": 94,
      "chip": "ym2612"
    },
    {
      "channel": 2,
      "note": 55,
      "start": 40.6857,
      "duration": 0.0167,
      "velocity": 100,
      "chip": "ym2612"
    },
    {
      "channel": 1,
      "note": 64,
      "start": 40.6973,
      "duration": 0.0167,
      "velocity": 124,
      "chip": "ym2612"
    },
    {
      "channel": 0,
      "note": 38,
      "start": 40.699,
      "duration": 0.0167,
      "velocity": 115,
      "chip": "ym2612"
    },
    {
      "channel": 4,
      "note": 83,
      "start": 40.7002,
      "duration": 0.0166,
      "velocity": 94,
      "chip": "ym2612"
    },
    {
      "channel": 3,
      "note": 83,
      "start": 40.7013,
      "duration": 0.0166,
      "velocity": 94,
      "chip": "ym2612"
    },
    {
      "channel": 2,
      "note": 55,
      "start": 40.7024,
      "duration": 0.0167,
      "velocity": 100,
      "chip": "ym2612"
    },
    {
      "channel": 1,
      "note": 64,
      "start": 40.714,
      "duration": 0.0179,
      "velocity": 105,
      "chip": "ym2612"
    },
    {
      "channel": 0,
      "note": 39,
      "start": 40.7156,
      "duration": 0.018,
      "velocity": 115,
      "chip": "ym2612"
    },
    {
      "channel": 4,
      "note": 83,
      "start": 40.7168,
      "duration": 0.0182,
      "velocity": 94,
      "chip": "ym2612"
    },
    {
      "channel": 3,
      "note": 83,
      "start": 40.7179,
      "duration": 0.0182,
      "velocity": 94,
      "chip": "ym2612"
    },
    {
      "channel": 2,
      "note": 55,
      "start": 40.7191,
      "duration": 0.0185,
      "velocity": 100,
      "chip": "ym2612"
    },
    {
      "channel": 1,
      "note": 105,
      "start": 40.732,
      "duration": 0.0131,
      "velocity": 105,
      "chip": "ym2612"
    },
    {
      "channel": 0,
      "note": 39,
      "start": 40.7336,
      "duration": 0.0131,
      "velocity": 115,
      "chip": "ym2612"
    },
    {
      "channel": 4,
      "note": 83,
      "start": 40.735,
      "duration": 0.013,
      "velocity": 94,
      "chip": "ym2612"
    },
    {
      "channel": 3,
      "note": 83,
      "start": 40.7361,
      "duration": 0.013,
      "velocity": 94,
      "chip": "ym2612"
    },
    {
      "channel": 2,
      "note": 55,
      "start": 40.7375,
      "duration": 0.0128,
      "velocity": 100,
      "chip": "ym2612"
    },
    {
      "channel": 1,
      "note": 105,
      "start": 40.7451,
      "duration": 0.0188,
      "velocity": 105,
      "chip": "ym2612"
    },
    {
      "channel": 0,
      "note": 40,
      "start": 40.7467,
      "duration": 0.0188,
      "velocity": 115,
      "chip": "ym2612"
    },
    {
      "channel": 4,
      "note": 83,
      "start": 40.748,
      "duration": 0.0188,
      "velocity": 94,
      "chip": "ym2612"
    },
    {
      "channel": 3,
      "note": 83,
      "start": 40.7491,
      "duration": 0.0188,
      "velocity": 94,
      "chip": "ym2612"
    },
    {
      "channel": 2,
      "note": 55,
      "start": 40.7503,
      "duration": 0.0187,
      "velocity": 100,
      "chip": "ym2612"
    },
    {
      "channel": 1,
      "note": 105,
      "start": 40.7639,
      "duration": 0.0161,
      "velocity": 105,
      "chip": "ym2612"
    },
    {
      "channel": 0,
      "note": 40,
      "start": 40.7656,
      "duration": 0.0161,
      "velocity": 115,
      "chip": "ym2612"
    },
    {
      "channel": 4,
      "note": 83,
      "start": 40.7667,
      "duration": 0.0161,
      "velocity": 94,
      "chip": "ym2612"
    },
    {
      "channel": 3,
      "note": 83,
      "start": 40.7679,
      "duration": 0.0161,
      "velocity": 94,
      "chip": "ym2612"
    },
    {
      "channel": 2,
      "note": 55,
      "start": 40.769,
      "duration": 0.0161,
      "velocity": 100,
      "chip": "ym2612"
    },
    {
      "channel": 1,
      "note": 105,
      "start": 40.78,
      "duration": 0.0158,
      "velocity": 105,
      "chip": "ym2612"
    },
    {
      "channel": 0,
      "note": 40,
      "start": 40.7817,
      "duration": 0.0157,
      "velocity": 115,
      "chip": "ym2612"
    },
    {
      "channel": 4,
      "note": 83,
      "start": 40.7828,
      "duration": 0.0158,
      "velocity": 94,
      "chip": "ym2612"
    },
    {
      "channel": 3,
      "note": 83,
      "start": 40.7839,
      "duration": 0.0158,
      "velocity": 94,
      "chip": "ym2612"
    },
    {
      "channel": 2,
      "note": 55,
      "start": 40.7851,
      "duration": 0.0157,
      "velocity": 100,
      "chip": "ym2612"
    },
    {
      "channel": 1,
      "note": 105,
      "start": 40.7957,
      "duration": 0.0137,
      "velocity": 105,
      "chip": "ym2612"
    },
    {
      "channel": 0,
      "note": 41,
      "start": 40.7974,
      "duration": 0.0141,
      "velocity": 115,
      "chip": "ym2612"
    },
    {
      "channel": 4,
      "note": 83,
      "start": 40.7986,
      "duration": 0.014,
      "velocity": 94,
      "chip": "ym2612"
    },
    {
      "channel": 3,
      "note": 83,
      "start": 40.7997,
      "duration": 0.014,
      "velocity": 94,
      "chip": "ym2612"
    },
    {
      "channel": 2,
      "note": 55,
      "start": 40.8008,
      "duration": 0.0141,
      "velocity": 100,
      "chip": "ym2612"
    },
    {
      "channel": 1,
      "note": 105,
      "start": 40.8094,
      "duration": 0.0161,
      "velocity": 105,
      "chip": "ym2612"
    },
    {
      "channel": 0,
      "note": 41,
      "start": 40.8114,
      "duration": 0.0185,
      "velocity": 115,
      "chip": "ym2612"
    },
    {
      "channel": 4,
      "note": 83,
      "start": 40.8126,
      "duration": 0.0186,
      "velocity": 94,
      "chip": "ym2612"
    },
    {
      "channel": 3,
      "note": 83,
      "start": 40.8137,
      "duration": 0.0186,
      "velocity": 94,
      "chip": "ym2612"
    },
    {
      "channel": 2,
      "note": 55,
      "start": 40.8149,
      "duration": 0.0185,
      "velocity": 100,
      "chip": "ym2612"
    },
    {
      "channel": 1,
      "note": 105,
      "start": 40.8256,
      "duration": 0.0205,
      "velocity": 124,
      "chip": "ym2612"
    },
    {
      "channel": 0,
      "note": 42,
      "start": 40.83,
      "duration": 0.0179,
      "velocity": 115,
      "chip": "ym2612"
    },
    {
      "channel": 4,
      "note": 83,
      "start": 40.8312,
      "duration": 0.0178,
      "velocity": 94,
      "chip": "ym2612"
    },
    {
      "channel": 3,
      "note": 83,
      "start": 40.8323,
      "duration": 0.0179,
      "velocity": 94,
      "chip": "ym2612"
    },
    {
      "channel": 2,
      "note": 55,
      "start": 40.8334,
      "duration": 0.0183,
      "velocity": 100,
      "chip": "ym2612"
    },
    {
      "channel": 1,
      "note": 64,
      "start": 40.8461,
      "duration": 0.0117,
      "velocity": 124,
      "chip": "ym2612"
    },
    {
      "channel": 0,
      "note": 42,
      "start": 40.8478,
      "duration": 0.0116,
      "velocity": 115,
      "chip": "ym2612"
    },
    {
      "channel": 4,
      "note": 83,
      "start": 40.849,
      "duration": 0.014,
      "velocity": 94,
      "chip": "ym2612"
    },
    {
      "channel": 3,
      "note": 83,
      "start": 40.8502,
      "duration": 0.014,
      "velocity": 94,
      "chip": "ym2612"
    },
    {
      "channel": 2,
      "note": 55,
      "start": 40.8517,
      "duration": 0.0137,
      "velocity": 100,
      "chip": "ym2612"
    },
    {
      "channel": 1,
      "note": 64,
      "start": 40.8578,
      "duration": 0.016,
      "velocity": 124,
      "chip": "ym2612"
    },
    {
      "channel": 0,
      "note": 43,
      "start": 40.8595,
      "duration": 0.016,
      "velocity": 115,
      "chip": "ym2612"
    },
    {
      "channel": 4,
      "note": 83,
      "start": 40.863,
      "duration": 0.014,
      "velocity": 94,
      "chip": "ym2612"
    },
    {
      "channel": 3,
      "note": 83,
      "start": 40.8642,
      "duration": 0.0139,
      "velocity": 94,
      "chip": "ym2612"
    },
    {
      "channel": 2,
      "note": 55,
      "start": 40.8654,
      "duration": 0.0139,
      "velocity": 100,
      "chip": "ym2612"
    },
    {
      "channel": 1,
      "note": 64,
      "start": 40.8738,
      "duration": 0.0161,
      "velocity": 124,
      "chip": "ym2612"
    },
    {
      "channel": 0,
      "note": 43,
      "start": 40.8755,
      "duration": 0.0161,
      "velocity": 115,
      "chip": "ym2612"
    },
    {
      "channel": 4,
      "note": 83,
      "start": 40.877,
      "duration": 0.0158,
      "velocity": 94,
      "chip": "ym2612"
    },
    {
      "channel": 3,
      "note": 83,
      "start": 40.8781,
      "duration": 0.0186,
      "velocity": 94,
      "chip": "ym2612"
    },
    {
      "channel": 2,
      "note": 55,
      "start": 40.8793,
      "duration": 0.0186,
      "velocity": 100,
      "chip": "ym2612"
    },
    {
      "channel": 1,
      "note": 64,
      "start": 40.8899,
      "duration": 0.0161,
      "velocity": 124,
      "chip": "ym2612"
    },
    {
      "channel": 0,
      "note": 44,
      "start": 40.8916,
      "duration": 0.0162,
      "velocity": 115,
      "chip": "ym2612"
    },
    {
      "channel": 4,
      "note": 83,
      "start": 40.8928,
      "duration": 0.0161,
      "velocity": 94,
      "chip": "ym2612"
    },
    {
      "channel": 3,
      "note": 83,
      "start": 40.8967,
      "duration": 0.0161,
      "velocity": 94,
      "chip": "ym2612"
    },
    {
      "channel": 2,
      "note": 55,
      "start": 40.8978,
      "duration": 0.0161,
      "velocity": 100,
      "chip": "ym2612"
    },
    {
      "channel": 1,
      "note": 64,
      "start": 40.906,
      "duration": 0.0161,
      "velocity": 124,
      "chip": "ym2612"
    },
    {
      "channel": 0,
      "note": 44,
      "start": 40.9078,
      "duration": 0.0161,
      "velocity": 115,
      "chip": "ym2612"
    },
    {
      "channel": 4,
      "note": 83,
      "start": 40.9089,
      "duration": 0.0161,
      "velocity": 94,
      "chip": "ym2612"
    },
    {
      "channel": 3,
      "note": 83,
      "start": 40.9128,
      "duration": 0.0134,
      "velocity": 94,
      "chip": "ym2612"
    },
    {
      "channel": 2,
      "note": 55,
      "start": 40.9139,
      "duration": 0.0157,
      "velocity": 100,
      "chip": "ym2612"
    },
    {
      "channel": 1,
      "note": 64,
      "start": 40.9221,
      "duration": 0.0161,
      "velocity": 124,
      "chip": "ym2612"
    },
    {
      "channel": 0,
      "note": 44,
      "start": 40.9238,
      "duration": 0.0161,
      "velocity": 115,
      "chip": "ym2612"
    },
    {
      "channel": 4,
      "note": 83,
      "start": 40.925,
      "duration": 0.0161,
      "velocity": 94,
      "chip": "ym2612"
    },
    {
      "channel": 3,
      "note": 83,
      "start": 40.9261,
      "duration": 0.0161,
      "velocity": 94,
      "chip": "ym2612"
    },
    {
      "channel": 2,
      "note": 55,
      "start": 40.9296,
      "duration": 0.0141,
      "velocity": 100,
      "chip": "ym2612"
    },
    {
      "channel": 1,
      "note": 64,
      "start": 40.9382,
      "duration": 0.0178,
      "velocity": 105,
      "chip": "ym2612"
    },
    {
      "channel": 0,
      "note": 45,
      "start": 40.9399,
      "duration": 0.0178,
      "velocity": 115,
      "chip": "ym2612"
    },
    {
      "channel": 4,
      "note": 83,
      "start": 40.9411,
      "duration": 0.0178,
      "velocity": 94,
      "chip": "ym2612"
    },
    {
      "channel": 3,
      "note": 83,
      "start": 40.9422,
      "duration": 0.0205,
      "velocity": 94,
      "chip": "ym2612"
    },
    {
      "channel": 2,
      "note": 55,
      "start": 40.9437,
      "duration": 0.0205,
      "velocity": 100,
      "chip": "ym2612"
    },
    {
      "channel": 1,
      "note": 105,
      "start": 40.9561,
      "duration": 0.0144,
      "velocity": 105,
      "chip": "ym2612"
    },
    {
      "channel": 0,
      "note": 45,
      "start": 40.9578,
      "duration": 0.0144,
      "velocity": 115,
      "chip": "ym2612"
    },
    {
      "channel": 4,
      "note": 83,
      "start": 40.9589,
      "duration": 0.0144,
      "velocity": 94,
      "chip": "ym2612"
    },
    {
      "channel": 3,
      "note": 83,
      "start": 40.9628,
      "duration": 0.0117,
      "velocity": 94,
      "chip": "ym2612"
    },
    {
      "channel": 2,
      "note": 55,
      "start": 40.9642,
      "duration": 0.0114,
      "velocity": 100,
      "chip": "ym2612"
    },
    {
      "channel": 1,
      "note": 105,
      "start": 40.9705,
      "duration": 0.0161,
      "velocity": 105,
      "chip": "ym2612"
    },
    {
      "channel": 0,
      "note": 46,
      "start": 40.9722,
      "duration": 0.016,
      "velocity": 115,
      "chip": "ym2612"
    },
    {
      "channel": 4,
      "note": 83,
      "start": 40.9733,
      "duration": 0.016,
      "velocity": 94,
      "chip": "ym2612"
    },
    {
      "channel": 3,
      "note": 83,
      "start": 40.9745,
      "duration": 0.016,
      "velocity": 94,
      "chip": "ym2612"
    },
    {
      "channel": 2,
      "note": 55,
      "start": 40.9756,
      "duration": 0.016,
      "velocity": 100,
      "chip": "ym2612"
    },
    {
      "channel": 1,
      "note": 105,
      "start": 40.9866,
      "duration": 0.0161,
      "velocity": 105,
      "chip": "ym2612"
    },
    {
      "channel": 0,
      "note": 46,
      "start": 40.9882,
      "duration": 0.0161,
      "velocity": 115,
      "chip": "ym2612"
    },
    {
      "channel": 4,
      "note": 83,
      "start": 40.9894,
      "duration": 0.0161,
      "velocity": 94,
      "chip": "ym2612"
    },
    {
      "channel": 3,
      "note": 83,
      "start": 40.9905,
      "duration": 0.0161,
      "velocity": 94,
      "chip": "ym2612"
    },
    {
      "channel": 2,
      "note": 55,
      "start": 40.9917,
      "duration": 0.0161,
      "velocity": 100,
      "chip": "ym2612"
    },
    {
      "channel": 1,
      "note": 105,
      "start": 41.0027,
      "duration": 0.0161,
      "velocity": 105,
      "chip": "ym2612"
    },
    {
      "channel": 0,
      "note": 47,
      "start": 41.0043,
      "duration": 0.0161,
      "velocity": 115,
      "chip": "ym2612"
    },
    {
      "channel": 4,
      "note": 83,
      "start": 41.0055,
      "duration": 0.0161,
      "velocity": 94,
      "chip": "ym2612"
    },
    {
      "channel": 3,
      "note": 83,
      "start": 41.0066,
      "duration": 0.0161,
      "velocity": 94,
      "chip": "ym2612"
    },
    {
      "channel": 2,
      "note": 55,
      "start": 41.0078,
      "duration": 0.0161,
      "velocity": 100,
      "chip": "ym2612"
    },
    {
      "channel": 1,
      "note": 105,
      "start": 41.0188,
      "duration": 0.0161,
      "velocity": 105,
      "chip": "ym2612"
    },
    {
      "channel": 0,
      "note": 47,
      "start": 41.0204,
      "duration": 0.0161,
      "velocity": 115,
      "chip": "ym2612"
    },
    {
      "channel": 4,
      "note": 83,
      "start": 41.0216,
      "duration": 0.0161,
      "velocity": 94,
      "chip": "ym2612"
    },
    {
      "channel": 3,
      "note": 83,
      "start": 41.0227,
      "duration": 0.0161,
      "velocity": 94,
      "chip": "ym2612"
    },
    {
      "channel": 2,
      "note": 55,
      "start": 41.0238,
      "duration": 0.0161,
      "velocity": 100,
      "chip": "ym2612"
    },
    {
      "channel": 1,
      "note": 105,
      "start": 41.0349,
      "duration": 0.0161,
      "velocity": 105,
      "chip": "ym2612"
    },
    {
      "channel": 0,
      "note": 47,
      "start": 41.0365,
      "duration": 0.0161,
      "velocity": 115,
      "chip": "ym2612"
    },
    {
      "channel": 4,
      "note": 83,
      "start": 41.0377,
      "duration": 0.0161,
      "velocity": 94,
      "chip": "ym2612"
    },
    {
      "channel": 3,
      "note": 83,
      "start": 41.0388,
      "duration": 0.0161,
      "velocity": 94,
      "chip": "ym2612"
    },
    {
      "channel": 2,
      "note": 55,
      "start": 41.0399,
      "duration": 0.0161,
      "velocity": 100,
      "chip": "ym2612"
    },
    {
      "channel": 1,
      "note": 105,
      "start": 41.0509,
      "duration": 0.0184,
      "velocity": 124,
      "chip": "ym2612"
    },
    {
      "channel": 0,
      "note": 48,
      "start": 41.0526,
      "duration": 0.0192,
      "velocity": 115,
      "chip": "ym2612"
    },
    {
      "channel": 4,
      "note": 83,
      "start": 41.0538,
      "duration": 0.0191,
      "velocity": 94,
      "chip": "ym2612"
    },
    {
      "channel": 3,
      "note": 83,
      "start": 41.0549,
      "duration": 0.0192,
      "velocity": 94,
      "chip": "ym2612"
    },
    {
      "channel": 2,
      "note": 55,
      "start": 41.056,
      "duration": 0.0194,
      "velocity": 100,
      "chip": "ym2612"
    },
    {
      "channel": 1,
      "note": 78,
      "start": 41.0693,
      "duration": 0.0144,
      "velocity": 124,
      "chip": "ym2612"
    },
    {
      "channel": 0,
      "note": 48,
      "start": 41.0717,
      "duration": 0.0139,
      "velocity": 115,
      "chip": "ym2612"
    },
    {
      "channel": 4,
      "note": 83,
      "start": 41.0729,
      "duration": 0.0139,
      "velocity": 94,
      "chip": "ym2612"
    },
    {
      "channel": 3,
      "note": 83,
      "start": 41.074,
      "duration": 0.0139,
      "velocity": 94,
      "chip": "ym2612"
    },
    {
      "channel": 2,
      "note": 55,
      "start": 41.0755,
      "duration": 0.0136,
      "velocity": 100,
      "chip": "ym2612"
    },
    {
      "channel": 1,
      "note": 76,
      "start": 41.0837,
      "duration": 0.016,
      "velocity": 124,
      "chip": "ym2612"
    },
    {
      "channel": 0,
      "note": 49,
      "start": 41.0856,
      "duration": 0.0152,
      "velocity": 1,
      "chip": "ym2612"
    },
    {
      "channel": 4,
      "note": 83,
      "start": 41.0868,
      "duration": 0.0151,
      "velocity": 94,
      "chip": "ym2612"
    },
    {
      "channel": 3,
      "note": 83,
      "start": 41.0879,
      "duration": 0.0152,
      "velocity": 94,
      "chip": "ym2612"
    },
    {
      "channel": 2,
      "note": 55,
      "start": 41.0891,
      "duration": 0.0151,
      "velocity": 100,
      "chip": "ym2612"
    },
    {
      "channel": 1,
      "note": 75,
      "start": 41.0997,
      "duration": 0.0161,
      "velocity": 124,
      "chip": "ym2612"
    },
    {
      "channel": 4,
      "note": 83,
      "start": 41.102,
      "duration": 0.0153,
      "velocity": 94,
      "chip": "ym2612"
    },
    {
      "channel": 3,
      "note": 83,
      "start": 41.1031,
      "duration": 0.0153,
      "velocity": 94,
      "chip": "ym2612"
    },
    {
      "channel": 2,
      "note": 55,
      "start": 41.1042,
      "duration": 0.0153,
      "velocity": 100,
      "chip": "ym2612"
    },
    {
      "channel": 1,
      "note": 74,
      "start": 41.1158,
      "duration": 0.0161,
      "velocity": 124,
      "chip": "ym2612"
    },
    {
      "channel": 4,
      "note": 83,
      "start": 41.1172,
      "duration": 0.0161,
      "velocity": 94,
      "chip": "ym2612"
    },
    {
      "channel": 3,
      "note": 83,
      "start": 41.1184,
      "duration": 0.0161,
      "velocity": 94,
      "chip": "ym2612"
    },
    {
      "channel": 2,
      "note": 55,
      "start": 41.1195,
      "duration": 0.0161,
      "velocity": 100,
      "chip": "ym2612"
    },
    {
      "channel": 1,
      "note": 72,
      "start": 41.1319,
      "duration": 0.0161,
      "velocity": 124,
      "chip": "ym2612"
    },
    {
      "channel": 4,
      "note": 83,
      "start": 41.1333,
      "duration": 0.0161,
      "velocity": 94,
      "chip": "ym2612"
    },
    {
      "channel": 3,
      "note": 83,
      "start": 41.1345,
      "duration": 0.0161,
      "velocity": 94,
      "chip": "ym2612"
    },
    {
      "channel": 2,
      "note": 55,
      "start": 41.1356,
      "duration": 0.0161,
      "velocity": 100,
      "chip": "ym2612"
    },
    {
      "channel": 1,
      "note": 71,
      "start": 41.1481,
      "duration": 0.0163,
      "velocity": 124,
      "chip": "ym2612"
    },
    {
      "channel": 4,
      "note": 83,
      "start": 41.1494,
      "duration": 0.0164,
      "velocity": 94,
      "chip": "ym2612"
    },
    {
      "channel": 3,
      "note": 83,
      "start": 41.1506,
      "duration": 0.0164,
      "velocity": 94,
      "chip": "ym2612"
    },
    {
      "channel": 2,
      "note": 55,
      "start": 41.1517,
      "duration": 0.0164,
      "velocity": 100,
      "chip": "ym2612"
    },
    {
      "channel": 1,
      "note": 70,
      "start": 41.1644,
      "duration": 0.0167,
      "velocity": 124,
      "chip": "ym2612"
    },
    {
      "channel": 4,
      "note": 83,
      "start": 41.1658,
      "duration": 0.0175,
      "velocity": 94,
      "chip": "ym2612"
    },
    {
      "channel": 3,
      "note": 83,
      "start": 41.167,
      "duration": 0.0175,
      "velocity": 94,
      "chip": "ym2612"
    },
    {
      "channel": 2,
      "note": 55,
      "start": 41.1681,
      "duration": 0.0178,
      "velocity": 100,
      "chip": "ym2612"
    },
    {
      "channel": 1,
      "note": 69,
      "start": 41.1812,
      "duration": 0.0163,
      "velocity": 124,
      "chip": "ym2612"
    },
    {
      "channel": 4,
      "note": 91,
      "start": 41.1833,
      "duration": 0.0156,
      "velocity": 94,
      "chip": "ym2612"
    },
    {
      "channel": 3,
      "note": 83,
      "start": 41.1845,
      "duration": 0.0156,
      "velocity": 94,
      "chip": "ym2612"
    },
    {
      "channel": 2,
      "note": 55,
      "start": 41.1859,
      "duration": 0.0154,
      "velocity": 100,
      "chip": "ym2612"
    },
    {
      "channel": 1,
      "note": 68,
      "start": 41.1974,
      "duration": 0.015,
      "velocity": 124,
      "chip": "ym2612"
    },
    {
      "channel": 4,
      "note": 91,
      "start": 41.1989,
      "duration": 0.0149,
      "velocity": 94,
      "chip": "ym2612"
    },
    {
      "channel": 3,
      "note": 83,
      "start": 41.2,
      "duration": 0.0149,
      "velocity": 94,
      "chip": "ym2612"
    },
    {
      "channel": 2,
      "note": 55,
      "start": 41.2013,
      "duration": 0.0149,
      "velocity": 100,
      "chip": "ym2612"
    },
    {
      "channel": 1,
      "note": 66,
      "start": 41.2124,
      "duration": 0.0186,
      "velocity": 124,
      "chip": "ym2612"
    },
    {
      "channel": 4,
      "note": 91,
      "start": 41.2139,
      "duration": 0.0186,
      "velocity": 94,
      "chip": "ym2612"
    },
    {
      "channel": 3,
      "note": 83,
      "start": 41.215,
      "duration": 0.0186,
      "velocity": 94,
      "chip": "ym2612"
    },
    {
      "channel": 2,
      "note": 55,
      "start": 41.2161,
      "duration": 0.0186,
      "velocity": 100,
      "chip": "ym2612"
    },
    {
      "channel": 1,
      "note": 65,
      "start": 41.2311,
      "duration": 0.0163,
      "velocity": 124,
      "chip": "ym2612"
    },
    {
      "channel": 4,
      "note": 91,
      "start": 41.2325,
      "duration": 0.0163,
      "velocity": 94,
      "chip": "ym2612"
    },
    {
      "channel": 3,
      "note": 83,
      "start": 41.2336,
      "duration": 0.0163,
      "velocity": 94,
      "chip": "ym2612"
    },
    {
      "channel": 2,
      "note": 55,
      "start": 41.2348,
      "duration": 0.0163,
      "velocity": 100,
      "chip": "ym2612"
    },
    {
      "channel": 1,
      "note": 64,
      "start": 41.2474,
      "duration": 0.0157,
      "velocity": 124,
      "chip": "ym2612"
    },
    {
      "channel": 4,
      "note": 91,
      "start": 41.2488,
      "duration": 0.0158,
      "velocity": 94,
      "chip": "ym2612"
    },
    {
      "channel": 3,
      "note": 83,
      "start": 41.2499,
      "duration": 0.0158,
      "velocity": 94,
      "chip": "ym2612"
    },
    {
      "channel": 2,
      "note": 55,
      "start": 41.2511,
      "duration": 0.0158,
      "velocity": 100,
      "chip": "ym2612"
    },
    {
      "channel": 1,
      "note": 62,
      "start": 41.2632,
      "duration": 0.0141,
      "velocity": 124,
      "chip": "ym2612"
    },
    {
      "channel": 4,
      "note": 91,
      "start": 41.2646,
      "duration": 0.014,
      "velocity": 94,
      "chip": "ym2612"
    },
    {
      "channel": 3,
      "note": 83,
      "start": 41.2657,
      "duration": 0.014,
      "velocity": 94,
      "chip": "ym2612"
    },
    {
      "channel": 2,
      "note": 55,
      "start": 41.2668,
      "duration": 0.014,
      "velocity": 100,
      "chip": "ym2612"
    },
    {
      "channel": 1,
      "note": 61,
      "start": 41.2772,
      "duration": 0.0158,
      "velocity": 124,
      "chip": "ym2612"
    },
    {
      "channel": 4,
      "note": 91,
      "start": 41.2785,
      "duration": 0.0191,
      "velocity": 94,
      "chip": "ym2612"
    },
    {
      "channel": 3,
      "note": 83,
      "start": 41.2797,
      "duration": 0.0193,
      "velocity": 94,
      "chip": "ym2612"
    },
    {
      "channel": 2,
      "note": 55,
      "start": 41.2808,
      "duration": 0.0196,
      "velocity": 100,
      "chip": "ym2612"
    },
    {
      "channel": 1,
      "note": 60,
      "start": 41.293,
      "duration": 0.0161,
      "velocity": 124,
      "chip": "ym2612"
    },
    {
      "channel": 4,
      "note": 91,
      "start": 41.2976,
      "duration": 0.0156,
      "velocity": 94,
      "chip": "ym2612"
    },
    {
      "channel": 3,
      "note": 91,
      "start": 41.299,
      "duration": 0.0155,
      "velocity": 94,
      "chip": "ym2612"
    },
    {
      "channel": 2,
      "note": 48,
      "start": 41.3005,
      "duration": 0.0151,
      "velocity": 100,
      "chip": "ym2612"
    },
    {
      "channel": 1,
      "note": 59,
      "start": 41.3091,
      "duration": 0.0161,
      "velocity": 124,
      "chip": "ym2612"
    },
    {
      "channel": 4,
      "note": 91,
      "start": 41.3133,
      "duration": 0.0156,
      "velocity": 94,
      "chip": "ym2612"
    },
    {
      "channel": 3,
      "note": 91,
      "start": 41.3145,
      "duration": 0.0156,
      "velocity": 94,
      "chip": "ym2612"
    },
    {
      "channel": 2,
      "note": 48,
      "start": 41.3156,
      "duration": 0.0156,
      "velocity": 100,
      "chip": "ym2612"
    },
    {
      "channel": 1,
      "note": 57,
      "start": 41.3252,
      "duration": 0.0161,
      "velocity": 124,
      "chip": "ym2612"
    },
    {
      "channel": 4,
      "note": 91,
      "start": 41.3289,
      "duration": 0.0138,
      "velocity": 94,
      "chip": "ym2612"
    },
    {
      "channel": 3,
      "note": 91,
      "start": 41.3301,
      "duration": 0.0141,
      "velocity": 94,
      "chip": "ym2612"
    },
    {
      "channel": 2,
      "note": 48,
      "start": 41.3312,
      "duration": 0.0141,
      "velocity": 100,
      "chip": "ym2612"
    },
    {
      "channel": 1,
      "note": 56,
      "start": 41.3413,
      "duration": 0.0161,
      "velocity": 124,
      "chip": "ym2612"
    },
    {
      "channel": 4,
      "note": 91,
      "start": 41.3427,
      "duration": 0.0161,
      "velocity": 94,
      "chip": "ym2612"
    },
    {
      "channel": 3,
      "note": 91,
      "start": 41.3441,
      "duration": 0.0185,
      "velocity": 94,
      "chip": "ym2612"
    },
    {
      "channel": 2,
      "note": 48,
      "start": 41.3453,
      "duration": 0.0185,
      "velocity": 100,
      "chip": "ym2612"
    },
    {
      "channel": 1,
      "note": 55,
      "start": 41.3574,
      "duration": 0.0161,
      "velocity": 124,
      "chip": "ym2612"
    },
    {
      "channel": 4,
      "note": 91,
      "start": 41.3588,
      "duration": 0.0161,
      "velocity": 94,
      "chip": "ym2612"
    },
    {
      "channel": 3,
      "note": 91,
      "start": 41.3627,
      "duration": 0.0134,
      "velocity": 94,
      "chip": "ym2612"
    },
    {
      "channel": 2,
      "note": 48,
      "start": 41.3638,
      "duration": 0.0161,
      "velocity": 100,
      "chip": "ym2612"
    },
    {
      "channel": 1,
      "note": 53,
      "start": 41.3735,
      "duration": 0.0161,
      "velocity": 124,
      "chip": "ym2612"
    },
    {
      "channel": 4,
      "note": 91,
      "start": 41.3749,
      "duration": 0.0161,
      "velocity": 94,
      "chip": "ym2612"
    },
    {
      "channel": 3,
      "note": 91,
      "start": 41.376,
      "duration": 0.0161,
      "velocity": 94,
      "chip": "ym2612"
    },
    {
      "channel": 2,
      "note": 48,
      "start": 41.3799,
      "duration": 0.0157,
      "velocity": 100,
      "chip": "ym2612"
    },
    {
      "channel": 1,
      "note": 52,
      "start": 41.3895,
      "duration": 0.0161,
      "velocity": 124,
      "chip": "ym2612"
    },
    {
      "channel": 4,
      "note": 91,
      "start": 41.391,
      "duration": 0.0204,
      "velocity": 94,
      "chip": "ym2612"
    },
    {
      "channel": 3,
      "note": 91,
      "start": 41.3921,
      "duration": 0.0204,
      "velocity": 94,
      "chip": "ym2612"
    },
    {
      "channel": 2,
      "note": 48,
      "start": 41.3956,
      "duration": 0.0183,
      "velocity": 100,
      "chip": "ym2612"
    },
    {
      "channel": 1,
      "note": 51,
      "start": 41.4056,
      "duration": 0.0153,
      "velocity": 1,
      "chip": "ym2612"
    },
    {
      "channel": 0,
      "note": 78,
      "start": 41.4102,
      "duration": 0.0146,
      "velocity": 127,
      "chip": "ym2612"
    },
    {
      "channel": 4,
      "note": 91,
      "start": 41.4114,
      "duration": 0.0146,
      "velocity": 94,
      "chip": "ym2612"
    },
    {
      "channel": 3,
      "note": 91,
      "start": 41.4125,
      "duration": 0.0174,
      "velocity": 94,
      "chip": "ym2612"
    },
    {
      "channel": 2,
      "note": 48,
      "start": 41.4139,
      "duration": 0.0172,
      "velocity": 100,
      "chip": "ym2612"
    },
    {
      "channel": 1,
      "note": 51,
      "start": 41.4232,
      "duration": 0.0142,
      "velocity": 105,
      "chip": "ym2612"
    },
    {
      "channel": 0,
      "note": 76,
      "start": 41.4249,
      "duration": 0.0142,
      "velocity": 127,
      "chip": "ym2612"
    },
    {
      "channel": 4,
      "note": 91,
      "start": 41.426,
      "duration": 0.0142,
      "velocity": 94,
      "chip": "ym2612"
    },
    {
      "channel": 3,
      "note": 91,
      "start": 41.43,
      "duration": 0.0114,
      "velocity": 94,
      "chip": "ym2612"
    },
    {
      "channel": 2,
      "note": 48,
      "start": 41.4311,
      "duration": 0.0114,
      "velocity": 100,
      "chip": "ym2612"
    },
    {
      "channel": 1,
      "note": 105,
      "start": 41.4374,
      "duration": 0.0161,
      "velocity": 105,
      "chip": "ym2612"
    },
    {
      "channel": 0,
      "note": 75,
      "start": 41.439,
      "duration": 0.0161,
      "velocity": 127,
      "chip": "ym2612"
    },
    {
      "channel": 4,
      "note": 91,
      "start": 41.4402,
      "duration": 0.0161,
      "velocity": 94,
      "chip": "ym2612"
    },
    {
      "channel": 3,
      "note": 91,
      "start": 41.4413,
      "duration": 0.0161,
      "velocity": 94,
      "chip": "ym2612"
    },
    {
      "channel": 2,
      "note": 48,
      "start": 41.4425,
      "duration": 0.0161,
      "velocity": 100,
      "chip": "ym2612"
    },
    {
      "channel": 1,
      "note": 105,
      "start": 41.4535,
      "duration": 0.0161,
      "velocity": 105,
      "chip": "ym2612"
    },
    {
      "channel": 0,
      "note": 73,
      "start": 41.4551,
      "duration": 0.0161,
      "velocity": 127,
      "chip": "ym2612"
    },
    {
      "channel": 4,
      "note": 91,
      "start": 41.4563,
      "duration": 0.0161,
      "velocity": 94,
      "chip": "ym2612"
    },
    {
      "channel": 3,
      "note": 91,
      "start": 41.4574,
      "duration": 0.0161,
      "velocity": 94,
      "chip": "ym2612"
    },
    {
      "channel": 2,
      "note": 48,
      "start": 41.4586,
      "duration": 0.0161,
      "velocity": 100,
      "chip": "ym2612"
    },
    {
      "channel": 1,
      "note": 105,
      "start": 41.4696,
      "duration": 0.0161,
      "velocity": 105,
      "chip": "ym2612"
    },
    {
      "channel": 0,
      "note": 71,
      "start": 41.4712,
      "duration": 0.0161,
      "velocity": 127,
      "chip": "ym2612"
    },
    {
      "channel": 4,
      "note": 91,
      "start": 41.4724,
      "duration": 0.0161,
      "velocity": 94,
      "chip": "ym2612"
    },
    {
      "channel": 3,
      "note": 91,
      "start": 41.4735,
      "duration": 0.0162,
      "velocity": 94,
      "chip": "ym2612"
    },
    {
      "channel": 2,
      "note": 48,
      "start": 41.4747,
      "duration": 0.0161,
      "velocity": 100,
      "chip": "ym2612"
    },
    {
      "channel": 1,
      "note": 105,
      "start": 41.4857,
      "duration": 0.0161,
      "velocity": 105,
      "chip": "ym2612"
    },
    {
      "channel": 0,
      "note": 70,
      "start": 41.4873,
      "duration": 0.0161,
      "velocity": 127,
      "chip": "ym2612"
    },
    {
      "channel": 4,
      "note": 91,
      "start": 41.4885,
      "duration": 0.0161,
      "velocity": 94,
      "chip": "ym2612"
    },
    {
      "channel": 3,
      "note": 91,
      "start": 41.4897,
      "duration": 0.0161,
      "velocity": 94,
      "chip": "ym2612"
    },
    {
      "channel": 2,
      "note": 48,
      "start": 41.4908,
      "duration": 0.0161,
      "velocity": 100,
      "chip": "ym2612"
    },
    {
      "channel": 1,
      "note": 105,
      "start": 41.5018,
      "duration": 0.0178,
      "velocity": 124,
      "chip": "ym2612"
    },
    {
      "channel": 0,
      "note": 68,
      "start": 41.5034,
      "duration": 0.0197,
      "velocity": 115,
      "chip": "ym2612"
    },
    {
      "channel": 4,
      "note": 91,
      "start": 41.5046,
      "duration": 0.0197,
      "velocity": 94,
      "chip": "ym2612"
    },
    {
      "channel": 3,
      "note": 91,
      "start": 41.5058,
      "duration": 0.0197,
      "velocity": 94,
      "chip": "ym2612"
    },
    {
      "channel": 2,
      "note": 48,
      "start": 41.5068,
      "duration": 0.0223,
      "velocity": 100,
      "chip": "ym2612"
    },
    {
      "channel": 1,
      "note": 64,
      "start": 41.5196,
      "duration": 0.0144,
      "velocity": 124,
      "chip": "ym2612"
    },
    {
      "channel": 0,
      "note": 36,
      "start": 41.5231,
      "duration": 0.0127,
      "velocity": 115,
      "chip": "ym2612"
    },
    {
      "channel": 4,
      "note": 91,
      "start": 41.5243,
      "duration": 0.0127,
      "velocity": 94,
      "chip": "ym2612"
    },
    {
      "channel": 3,
      "note": 91,
      "start": 41.5254,
      "duration": 0.0127,
      "velocity": 94,
      "chip": "ym2612"
    },
    {
      "channel": 2,
      "note": 50,
      "start": 41.5292,
      "duration": 0.0101,
      "velocity": 100,
      "chip": "ym2612"
    },
    {
      "channel": 1,
      "note": 64,
      "start": 41.534,
      "duration": 0.0161,
      "velocity": 124,
      "chip": "ym2612"
    },
    {
      "channel": 0,
      "note": 36,
      "start": 41.5358,
      "duration": 0.016,
      "velocity": 115,
      "chip": "ym2612"
    },
    {
      "channel": 4,
      "note": 91,
      "start": 41.5369,
      "duration": 0.016,
      "velocity": 94,
      "chip": "ym2612"
    },
    {
      "channel": 3,
      "note": 91,
      "start": 41.5381,
      "duration": 0.016,
      "velocity": 94,
      "chip": "ym2612"
    },
    {
      "channel": 2,
      "note": 50,
      "start": 41.5393,
      "duration": 0.0159,
      "velocity": 100,
      "chip": "ym2612"
    },
    {
      "channel": 1,
      "note": 64,
      "start": 41.5501,
      "duration": 0.0161,
      "velocity": 124,
      "chip": "ym2612"
    },
    {
      "channel": 0,
      "note": 37,
      "start": 41.5518,
      "duration": 0.0161,
      "velocity": 115,
      "chip": "ym2612"
    },
    {
      "channel": 4,
      "note": 91,
      "start": 41.5529,
      "duration": 0.0161,
      "velocity": 94,
      "chip": "ym2612"
    },
    {
      "channel": 3,
      "note": 91,
      "start": 41.5541,
      "duration": 0.0161,
      "velocity": 94,
      "chip": "ym2612"
    },
    {
      "channel": 2,
      "note": 50,
      "start": 41.5552,
      "duration": 0.0161,
      "velocity": 100,
      "chip": "ym2612"
    },
    {
      "channel": 1,
      "note": 64,
      "start": 41.5662,
      "duration": 0.0161,
      "velocity": 124,
      "chip": "ym2612"
    },
    {
      "channel": 0,
      "note": 37,
      "start": 41.5679,
      "duration": 0.0161,
      "velocity": 115,
      "chip": "ym2612"
    },
    {
      "channel": 4,
      "note": 91,
      "start": 41.569,
      "duration": 0.0162,
      "velocity": 94,
      "chip": "ym2612"
    },
    {
      "channel": 3,
      "note": 91,
      "start": 41.5702,
      "duration": 0.0161,
      "velocity": 94,
      "chip": "ym2612"
    },
    {
      "channel": 2,
      "note": 50,
      "start": 41.5713,
      "duration": 0.0161,
      "velocity": 100,
      "chip": "ym2612"
    },
    {
      "channel": 1,
      "note": 64,
      "start": 41.5823,
      "duration": 0.0161,
      "velocity": 124,
      "chip": "ym2612"
    },
    {
      "channel": 0,
      "note": 38,
      "start": 41.5839,
      "duration": 0.0161,
      "velocity": 115,
      "chip": "ym2612"
    },
    {
      "channel": 4,
      "note": 91,
      "start": 41.5852,
      "duration": 0.0161,
      "velocity": 94,
      "chip": "ym2612"
    },
    {
      "channel": 3,
      "note": 91,
      "start": 41.5863,
      "duration": 0.0161,
      "velocity": 94,
      "chip": "ym2612"
    },
    {
      "channel": 2,
      "note": 50,
      "start": 41.5874,
      "duration": 0.0161,
      "velocity": 100,
      "chip": "ym2612"
    },
    {
      "channel": 1,
      "note": 64,
      "start": 41.5984,
      "duration": 0.0161,
      "velocity": 124,
      "chip": "ym2612"
    },
    {
      "channel": 0,
      "note": 38,
      "start": 41.6,
      "duration": 0.0161,
      "velocity": 115,
      "chip": "ym2612"
    },
    {
      "channel": 4,
      "note": 91,
      "start": 41.6013,
      "duration": 0.0161,
      "velocity": 94,
      "chip": "ym2612"
    },
    {
      "channel": 3,
      "note": 91,
      "start": 41.6024,
      "duration": 0.0161,
      "velocity": 94,
      "chip": "ym2612"
    },
    {
      "channel": 2,
      "note": 50,
      "start": 41.6035,
      "duration": 0.0161,
      "velocity": 100,
      "chip": "ym2612"
    },
    {
      "channel": 1,
      "note": 64,
      "start": 41.6145,
      "duration": 0.0178,
      "velocity": 105,
      "chip": "ym2612"
    },
    {
      "channel": 0,
      "note": 39,
      "start": 41.6161,
      "duration": 0.0179,
      "velocity": 115,
      "chip": "ym2612"
    },
    {
      "channel": 4,
      "note": 91,
      "start": 41.6173,
      "duration": 0.0181,
      "velocity": 94,
      "chip": "ym2612"
    },
    {
      "channel": 3,
      "note": 91,
      "start": 41.6185,
      "duration": 0.0181,
      "velocity": 94,
      "chip": "ym2612"
    },
    {
      "channel": 2,
      "note": 50,
      "start": 41.6196,
      "duration": 0.0185,
      "velocity": 100,
      "chip": "ym2612"
    },
    {
      "channel": 1,
      "note": 105,
      "start": 41.6324,
      "duration": 0.015,
      "velocity": 105,
      "chip": "ym2612"
    },
    {
      "channel": 0,
      "note": 39,
      "start": 41.634,
      "duration": 0.015,
      "velocity": 115,
      "chip": "ym2612"
    },
    {
      "channel": 4,
      "note": 93,
      "start": 41.6355,
      "duration": 0.0148,
      "velocity": 94,
      "chip": "ym2612"
    },
    {
      "channel": 3,
      "note": 91,
      "start": 41.6366,
      "duration": 0.0148,
      "velocity": 94,
      "chip": "ym2612"
    },
    {
      "channel": 2,
      "note": 50,
      "start": 41.6381,
      "duration": 0.0145,
      "velocity": 100,
      "chip": "ym2612"
    },
    {
      "channel": 1,
      "note": 105,
      "start": 41.6473,
      "duration": 0.0163,
      "velocity": 105,
      "chip": "ym2612"
    },
    {
      "channel": 0,
      "note": 40,
      "start": 41.649,
      "duration": 0.0162,
      "velocity": 115,
      "chip": "ym2612"
    },
    {
      "channel": 4,
      "note": 93,
      "start": 41.6502,
      "duration": 0.0161,
      "velocity": 94,
      "chip": "ym2612"
    },
    {
      "channel": 3,
      "note": 91,
      "start": 41.6514,
      "duration": 0.0162,
      "velocity": 94,
      "chip": "ym2612"
    },
    {
      "channel": 2,
      "note": 50,
      "start": 41.6526,
      "duration": 0.0161,
      "velocity": 100,
      "chip": "ym2612"
    },
    {
      "channel": 1,
      "note": 105,
      "start": 41.6636,
      "duration": 0.0153,
      "velocity": 105,
      "chip": "ym2612"
    },
    {
      "channel": 0,
      "note": 40,
      "start": 41.6653,
      "duration": 0.0153,
      "velocity": 115,
      "chip": "ym2612"
    },
    {
      "channel": 4,
      "note": 93,
      "start": 41.6664,
      "duration": 0.0153,
      "velocity": 94,
      "chip": "ym2612"
    },
    {
      "channel": 3,
      "note": 91,
      "start": 41.6676,
      "duration": 0.0153,
      "velocity": 94,
      "chip": "ym2612"
    },
    {
      "channel": 2,
      "note": 50,
      "start": 41.6687,
      "duration": 0.0153,
      "velocity": 100,
      "chip": "ym2612"
    },
    {
      "channel": 1,
      "note": 105,
      "start": 41.6789,
      "duration": 0.0185,
      "velocity": 105,
      "chip": "ym2612"
    },
    {
      "channel": 0,
      "note": 40,
      "start": 41.6805,
      "duration": 0.0185,
      "velocity": 115,
      "chip": "ym2612"
    },
    {
      "channel": 4,
      "note": 93,
      "start": 41.6817,
      "duration": 0.0184,
      "velocity": 94,
      "chip": "ym2612"
    },
    {
      "channel": 3,
      "note": 91,
      "start": 41.6829,
      "duration": 0.0184,
      "velocity": 94,
      "chip": "ym2612"
    },
    {
      "channel": 2,
      "note": 50,
      "start": 41.6839,
      "duration": 0.0185,
      "velocity": 100,
      "chip": "ym2612"
    },
    {
      "channel": 1,
      "note": 105,
      "start": 41.6973,
      "duration": 0.0165,
      "velocity": 105,
      "chip": "ym2612"
    },
    {
      "channel": 0,
      "note": 41,
      "start": 41.699,
      "duration": 0.0165,
      "velocity": 115,
      "chip": "ym2612"
    },
    {
      "channel": 4,
      "note": 93,
      "start": 41.7001,
      "duration": 0.0165,
      "velocity": 94,
      "chip": "ym2612"
    },
    {
      "channel": 3,
      "note": 91,
      "start": 41.7013,
      "duration": 0.0165,
      "velocity": 94,
      "chip": "ym2612"
    },
    {
      "channel": 2,
      "note": 50,
      "start": 41.7024,
      "duration": 0.0165,
      "velocity": 100,
      "chip": "ym2612"
    },
    {
      "channel": 1,
      "note": 105,
      "start": 41.7139,
      "duration": 0.0157,
      "velocity": 105,
      "chip": "ym2612"
    },
    {
      "channel": 0,
      "note": 41,
      "start": 41.7155,
      "duration": 0.0157,
      "velocity": 115,
      "chip": "ym2612"
    },
    {
      "channel": 4,
      "note": 93,
      "start": 41.7166,
      "duration": 0.0158,
      "velocity": 94,
      "chip": "ym2612"
    },
    {
      "channel": 3,
      "note": 91,
      "start": 41.7178,
      "duration": 0.0158,
      "velocity": 94,
      "chip": "ym2612"
    },
    {
      "channel": 2,
      "note": 50,
      "start": 41.7189,
      "duration": 0.0157,
      "velocity": 100,
      "chip": "ym2612"
    },
    {
      "channel": 1,
      "note": 105,
      "start": 41.7296,
      "duration": 0.0158,
      "velocity": 124,
      "chip": "ym2612"
    },
    {
      "channel": 0,
      "note": 42,
      "start": 41.7312,
      "duration": 0.0158,
      "velocity": 115,
      "chip": "ym2612"
    },
    {
      "channel": 4,
      "note": 93,
      "start": 41.7324,
      "duration": 0.0158,
      "velocity": 94,
      "chip": "ym2612"
    },
    {
      "channel": 3,
      "note": 91,
      "start": 41.7336,
      "duration": 0.016,
      "velocity": 94,
      "chip": "ym2612"
    },
    {
      "channel": 2,
      "note": 50,
      "start": 41.7346,
      "duration": 0.0164,
      "velocity": 100,
      "chip": "ym2612"
    },
    {
      "channel": 1,
      "note": 64,
      "start": 41.7454,
      "duration": 0.0141,
      "velocity": 124,
      "chip": "ym2612"
    },
    {
      "channel": 0,
      "note": 42,
      "start": 41.7471,
      "duration": 0.0168,
      "velocity": 115,
      "chip": "ym2612"
    },
    {
      "channel": 4,
      "note": 93,
      "start": 41.7482,
      "duration": 0.0168,
      "velocity": 94,
      "chip": "ym2612"
    },
    {
      "channel": 3,
      "note": 93,
      "start": 41.7497,
      "duration": 0.0166,
      "velocity": 94,
      "chip": "ym2612"
    },
    {
      "channel": 2,
      "note": 50,
      "start": 41.7511,
      "duration": 0.0163,
      "velocity": 100,
      "chip": "ym2612"
    },
    {
      "channel": 1,
      "note": 64,
      "start": 41.7595,
      "duration": 0.016,
      "velocity": 124,
      "chip": "ym2612"
    },
    {
      "channel": 0,
      "note": 43,
      "start": 41.7639,
      "duration": 0.0161,
      "velocity": 115,
      "chip": "ym2612"
    },
    {
      "channel": 4,
      "note": 93,
      "start": 41.7651,
      "duration": 0.016,
      "velocity": 94,
      "chip": "ym2612"
    },
    {
      "channel": 3,
      "note": 93,
      "start": 41.7663,
      "duration": 0.016,
      "velocity": 94,
      "chip": "ym2612"
    },
    {
      "channel": 2,
      "note": 50,
      "start": 41.7674,
      "duration": 0.016,
      "velocity": 100,
      "chip": "ym2612"
    },
    {
      "channel": 1,
      "note": 64,
      "start": 41.7755,
      "duration": 0.0161,
      "velocity": 124,
      "chip": "ym2612"
    },
    {
      "channel": 0,
      "note": 43,
      "start": 41.78,
      "duration": 0.0157,
      "velocity": 115,
      "chip": "ym2612"
    },
    {
      "channel": 4,
      "note": 93,
      "start": 41.7811,
      "duration": 0.0157,
      "velocity": 94,
      "chip": "ym2612"
    },
    {
      "channel": 3,
      "note": 93,
      "start": 41.7822,
      "duration": 0.0157,
      "velocity": 94,
      "chip": "ym2612"
    },
    {
      "channel": 2,
      "note": 50,
      "start": 41.7834,
      "duration": 0.0157,
      "velocity": 100,
      "chip": "ym2612"
    },
    {
      "channel": 1,
      "note": 64,
      "start": 41.7916,
      "duration": 0.0161,
      "velocity": 124,
      "chip": "ym2612"
    },
    {
      "channel": 0,
      "note": 44,
      "start": 41.7957,
      "duration": 0.0137,
      "velocity": 115,
      "chip": "ym2612"
    },
    {
      "channel": 4,
      "note": 93,
      "start": 41.7968,
      "duration": 0.0141,
      "velocity": 94,
      "chip": "ym2612"
    },
    {
      "channel": 3,
      "note": 93,
      "start": 41.798,
      "duration": 0.0141,
      "velocity": 94,
      "chip": "ym2612"
    },
    {
      "channel": 2,
      "note": 50,
      "start": 41.7991,
      "duration": 0.0141,
      "velocity": 100,
      "chip": "ym2612"
    },
    {
      "channel": 1,
      "note": 64,
      "start": 41.8077,
      "duration": 0.0161,
      "velocity": 124,
      "chip": "ym2612"
    },
    {
      "channel": 0,
      "note": 44,
      "start": 41.8094,
      "duration": 0.0161,
      "velocity": 115,
      "chip": "ym2612"
    },
    {
      "channel": 4,
      "note": 93,
      "start": 41.8109,
      "duration": 0.0185,
      "velocity": 94,
      "chip": "ym2612"
    },
    {
      "channel": 3,
      "note": 93,
      "start": 41.812,
      "duration": 0.0185,
      "velocity": 94,
      "chip": "ym2612"
    },
    {
      "channel": 2,
      "note": 50,
      "start": 41.8132,
      "duration": 0.0185,
      "velocity": 100,
      "chip": "ym2612"
    },
    {
      "channel": 1,
      "note": 64,
      "start": 41.8238,
      "duration": 0.0161,
      "velocity": 124,
      "chip": "ym2612"
    },
    {
      "channel": 0,
      "note": 44,
      "start": 41.8255,
      "duration": 0.0161,
      "velocity": 115,
      "chip": "ym2612"
    },
    {
      "channel": 4,
      "note": 93,
      "start": 41.8294,
      "duration": 0.0134,
      "velocity": 94,
      "chip": "ym2612"
    },
    {
      "channel": 3,
      "note": 93,
      "start": 41.8305,
      "duration": 0.0162,
      "velocity": 94,
      "chip": "ym2612"
    },
    {
      "channel": 2,
      "note": 50,
      "start": 41.8317,
      "duration": 0.0161,
      "velocity": 100,
      "chip": "ym2612"
    },
    {
      "channel": 1,
      "note": 64,
      "start": 41.8399,
      "duration": 0.0178,
      "velocity": 105,
      "chip": "ym2612"
    },
    {
      "channel": 0,
      "note": 45,
      "start": 41.8416,
      "duration": 0.0178,
      "velocity": 115,
      "chip": "ym2612"
    },
    {
      "channel": 4,
      "note": 93,
      "start": 41.8427,
      "duration": 0.0203,
      "velocity": 94,
      "chip": "ym2612"
    },
    {
      "channel": 3,
      "note": 93,
      "start": 41.8467,
      "duration": 0.0176,
      "velocity": 94,
      "chip": "ym2612"
    },
    {
      "channel": 2,
      "note": 50,
      "start": 41.8478,
      "duration": 0.0179,
      "velocity": 100,
      "chip": "ym2612"
    },
    {
      "channel": 1,
      "note": 105,
      "start": 41.8578,
      "duration": 0.0144,
      "velocity": 105,
      "chip": "ym2612"
    },
    {
      "channel": 0,
      "note": 45,
      "start": 41.8594,
      "duration": 0.0144,
      "velocity": 115,
      "chip": "ym2612"
    },
    {
      "channel": 4,
      "note": 93,
      "start": 41.8631,
      "duration": 0.012,
      "velocity": 94,
      "chip": "ym2612"
    },
    {
      "channel": 3,
      "note": 93,
      "start": 41.8642,
      "duration": 0.012,
      "velocity": 94,
      "chip": "ym2612"
    },
    {
      "channel": 2,
      "note": 50,
      "start": 41.8657,
      "duration": 0.012,
      "velocity": 100,
      "chip": "ym2612"
    },
    {
      "channel": 1,
      "note": 105,
      "start": 41.8721,
      "duration": 0.0161,
      "velocity": 105,
      "chip": "ym2612"
    },
    {
      "channel": 0,
      "note": 46,
      "start": 41.8738,
      "duration": 0.016,
      "velocity": 115,
      "chip": "ym2612"
    },
    {
      "channel": 4,
      "note": 93,
      "start": 41.8751,
      "duration": 0.016,
      "velocity": 94,
      "chip": "ym2612"
    },
    {
      "channel": 3,
      "note": 93,
      "start": 41.8762,
      "duration": 0.016,
      "velocity": 94,
      "chip": "ym2612"
    },
    {
      "channel": 2,
      "note": 50,
      "start": 41.8777,
      "duration": 0.0183,
      "velocity": 100,
      "chip": "ym2612"
    },
    {
      "channel": 1,
      "note": 105,
      "start": 41.8882,
      "duration": 0.0161,
      "velocity": 105,
      "chip": "ym2612"
    },
    {
      "channel": 0,
      "note": 46,
      "start": 41.8899,
      "duration": 0.0161,
      "velocity": 115,
      "chip": "ym2612"
    },
    {
      "channel": 4,
      "note": 93,
      "start": 41.891,
      "duration": 0.0161,
      "velocity": 94,
      "chip": "ym2612"
    },
    {
      "channel": 3,
      "note": 93,
      "start": 41.8922,
      "duration": 0.0161,
      "velocity": 94,
      "chip": "ym2612"
    },
    {
      "channel": 2,
      "note": 50,
      "start": 41.896,
      "duration": 0.0134,
      "velocity": 100,
      "chip": "ym2612"
    },
    {
      "channel": 1,
      "note": 105,
      "start": 41.9043,
      "duration": 0.0161,
      "velocity": 105,
      "chip": "ym2612"
    },
    {
      "channel": 0,
      "note": 47,
      "start": 41.906,
      "duration": 0.0161,
      "velocity": 115,
      "chip": "ym2612"
    },
    {
      "channel": 4,
      "note": 93,
      "start": 41.9071,
      "duration": 0.0161,
      "velocity": 94,
      "chip": "ym2612"
    },
    {
      "channel": 3,
      "note": 93,
      "start": 41.9083,
      "duration": 0.0162,
      "velocity": 94,
      "chip": "ym2612"
    },
    {
      "channel": 2,
      "note": 50,
      "start": 41.9094,
      "duration": 0.0161,
      "velocity": 100,
      "chip": "ym2612"
    },
    {
      "channel": 1,
      "note": 105,
      "start": 41.9204,
      "duration": 0.0161,
      "velocity": 105,
      "chip": "ym2612"
    },
    {
      "channel": 0,
      "note": 47,
      "start": 41.9221,
      "duration": 0.0161,
      "velocity": 115,
      "chip": "ym2612"
    },
    {
      "channel": 4,
      "note": 93,
      "start": 41.9233,
      "duration": 0.0161,
      "velocity": 94,
      "chip": "ym2612"
    },
    {
      "channel": 3,
      "note": 93,
      "start": 41.9244,
      "duration": 0.0161,
      "velocity": 94,
      "chip": "ym2612"
    },
    {
      "channel": 2,
      "note": 50,
      "start": 41.9255,
      "duration": 0.0161,
      "velocity": 100,
      "chip": "ym2612"
    },
    {
      "channel": 1,
      "note": 105,
      "start": 41.9365,
      "duration": 0.0161,
      "velocity": 105,
      "chip": "ym2612"
    },
    {
      "channel": 0,
      "note": 47,
      "start": 41.9382,
      "duration": 0.0161,
      "velocity": 115,
      "chip": "ym2612"
    },
    {
      "channel": 4,
      "note": 93,
      "start": 41.9394,
      "duration": 0.0161,
      "velocity": 94,
      "chip": "ym2612"
    },
    {
      "channel": 3,
      "note": 93,
      "start": 41.9405,
      "duration": 0.0161,
      "velocity": 94,
      "chip": "ym2612"
    },
    {
      "channel": 2,
      "note": 50,
      "start": 41.9416,
      "duration": 0.0161,
      "velocity": 100,
      "chip": "ym2612"
    },
    {
      "channel": 1,
      "note": 105,
      "start": 41.9526,
      "duration": 0.0184,
      "velocity": 124,
      "chip": "ym2612"
    },
    {
      "channel": 0,
      "note": 48,
      "start": 41.9542,
      "duration": 0.0192,
      "velocity": 115,
      "chip": "ym2612"
    },
    {
      "channel": 4,
      "note": 93,
      "start": 41.9555,
      "duration": 0.0191,
      "velocity": 94,
      "chip": "ym2612"
    },
    {
      "channel": 3,
      "note": 93,
      "start": 41.9566,
      "duration": 0.0192,
      "velocity": 94,
      "chip": "ym2612"
    },
    {
      "channel": 2,
      "note": 50,
      "start": 41.9577,
      "duration": 0.0223,
      "velocity": 100,
      "chip": "ym2612"
    },
    {
      "channel": 1,
      "note": 78,
      "start": 41.971,
      "duration": 0.0144,
      "velocity": 124,
      "chip": "ym2612"
    },
    {
      "channel": 0,
      "note": 48,
      "start": 41.9734,
      "duration": 0.0139,
      "velocity": 115,
      "chip": "ym2612"
    },
    {
      "channel": 4,
      "note": 93,
      "start": 41.9745,
      "duration": 0.0139,
      "velocity": 94,
      "chip": "ym2612"
    },
    {
      "channel": 3,
      "note": 93,
      "start": 41.9758,
      "duration": 0.0139,
      "velocity": 94,
      "chip": "ym2612"
    },
    {
      "channel": 2,
      "note": 50,
      "start": 41.98,
      "duration": 0.0108,
      "velocity": 100,
      "chip": "ym2612"
    },
    {
      "channel": 1,
      "note": 76,
      "start": 41.9854,
      "duration": 0.016,
      "velocity": 124,
      "chip": "ym2612"
    },
    {
      "channel": 0,
      "note": 49,
      "start": 41.9873,
      "duration": 0.0152,
      "velocity": 1,
      "chip": "ym2612"
    },
    {
      "channel": 4,
      "note": 93,
      "start": 41.9885,
      "duration": 0.0151,
      "velocity": 94,
      "chip": "ym2612"
    },
    {
      "channel": 3,
      "note": 93,
      "start": 41.9897,
      "duration": 0.0151,
      "velocity": 94,
      "chip": "ym2612"
    },
    {
      "channel": 2,
      "note": 50,
      "start": 41.9908,
      "duration": 0.0151,
      "velocity": 100,
      "chip": "ym2612"
    },
    {
      "channel": 1,
      "note": 75,
      "start": 42.0014,
      "duration": 0.0161,
      "velocity": 124,
      "chip": "ym2612"
    },
    {
      "channel": 4,
      "note": 93,
      "start": 42.0036,
      "duration": 0.0153,
      "velocity": 94,
      "chip": "ym2612"
    },
    {
      "channel": 3,
      "note": 93,
      "start": 42.0048,
      "duration": 0.0153,
      "velocity": 94,
      "chip": "ym2612"
    },
    {
      "channel": 2,
      "note": 50,
      "start": 42.0059,
      "duration": 0.0153,
      "velocity": 100,
      "chip": "ym2612"
    },
    {
      "channel": 1,
      "note": 74,
      "start": 42.0175,
      "duration": 0.0161,
      "velocity": 124,
      "chip": "ym2612"
    },
    {
      "channel": 4,
      "note": 93,
      "start": 42.0189,
      "duration": 0.0161,
      "velocity": 94,
      "chip": "ym2612"
    },
    {
      "channel": 3,
      "note": 93,
      "start": 42.02,
      "duration": 0.0161,
      "velocity": 94,
      "chip": "ym2612"
    },
    {
      "channel": 2,
      "note": 50,
      "start": 42.0212,
      "duration": 0.0161,
      "velocity": 100,
      "chip": "ym2612"
    },
    {
      "channel": 1,
      "note": 72,
      "start": 42.0336,
      "duration": 0.0161,
      "velocity": 124,
      "chip": "ym2612"
    },
    {
      "channel": 4,
      "note": 93,
      "start": 42.035,
      "duration": 0.0162,
      "velocity": 94,
      "chip": "ym2612"
    },
    {
      "channel": 3,
      "note": 93,
      "start": 42.0361,
      "duration": 0.0161,
      "velocity": 94,
      "chip": "ym2612"
    },
    {
      "channel": 2,
      "note": 50,
      "start": 42.0373,
      "duration": 0.0162,
      "velocity": 100,
      "chip": "ym2612"
    },
    {
      "channel": 1,
      "note": 71,
      "start": 42.0497,
      "duration": 0.0161,
      "velocity": 124,
      "chip": "ym2612"
    },
    {
      "channel": 4,
      "note": 93,
      "start": 42.0511,
      "duration": 0.0161,
      "velocity": 94,
      "chip": "ym2612"
    },
    {
      "channel": 3,
      "note": 93,
      "start": 42.0523,
      "duration": 0.0161,
      "velocity": 94,
      "chip": "ym2612"
    },
    {
      "channel": 2,
      "note": 50,
      "start": 42.0534,
      "duration": 0.0161,
      "velocity": 100,
      "chip": "ym2612"
    },
    {
      "channel": 1,
      "note": 70,
      "start": 42.0658,
      "duration": 0.0161,
      "velocity": 124,
      "chip": "ym2612"
    },
    {
      "channel": 4,
      "note": 93,
      "start": 42.0672,
      "duration": 0.0168,
      "velocity": 94,
      "chip": "ym2612"
    },
    {
      "channel": 3,
      "note": 93,
      "start": 42.0684,
      "duration": 0.0169,
      "velocity": 94,
      "chip": "ym2612"
    },
    {
      "channel": 2,
      "note": 50,
      "start": 42.0695,
      "duration": 0.0171,
      "velocity": 100,
      "chip": "ym2612"
    },
    {
      "channel": 1,
      "note": 69,
      "start": 42.0819,
      "duration": 0.0161,
      "velocity": 124,
      "chip": "ym2612"
    },
    {
      "channel": 4,
      "note": 93,
      "start": 42.0841,
      "duration": 0.0155,
      "velocity": 94,
      "chip": "ym2612"
    },
    {
      "channel": 3,
      "note": 93,
      "start": 42.0852,
      "duration": 0.0154,
      "velocity": 94,
      "chip": "ym2612"
    },
    {
      "channel": 2,
      "note": 50,
      "start": 42.0867,
      "duration": 0.0151,
      "velocity": 100,
      "chip": "ym2612"
    },
    {
      "channel": 1,
      "note": 68,
      "start": 42.098,
      "duration": 0.0164,
      "velocity": 124,
      "chip": "ym2612"
    },
    {
      "channel": 4,
      "note": 93,
      "start": 42.0995,
      "duration": 0.0163,
      "velocity": 94,
      "chip": "ym2612"
    },
    {
      "channel": 3,
      "note": 93,
      "start": 42.1006,
      "duration": 0.0163,
      "velocity": 94,
      "chip": "ym2612"
    },
    {
      "channel": 2,
      "note": 50,
      "start": 42.1018,
      "duration": 0.0163,
      "velocity": 100,
      "chip": "ym2612"
    },
    {
      "channel": 1,
      "note": 66,
      "start": 42.1144,
      "duration": 0.0163,
      "velocity": 124,
      "chip": "ym2612"
    },
    {
      "channel": 4,
      "note": 93,
      "start": 42.1158,
      "duration": 0.0163,
      "velocity": 94,
      "chip": "ym2612"
    },
    {
      "channel": 3,
      "note": 93,
      "start": 42.117,
      "duration": 0.0163,
      "velocity": 94,
      "chip": "ym2612"
    },
    {
      "channel": 2,
      "note": 50,
      "start": 42.1181,
      "duration": 0.0163,
      "velocity": 100,
      "chip": "ym2612"
    },
    {
      "channel": 1,
      "note": 65,
      "start": 42.1308,
      "duration": 0.0155,
      "velocity": 124,
      "chip": "ym2612"
    },
    {
      "channel": 4,
      "note": 93,
      "start": 42.1322,
      "duration": 0.0155,
      "velocity": 94,
      "chip": "ym2612"
    },
    {
      "channel": 3,
      "note": 93,
      "start": 42.1333,
      "duration": 0.0155,
      "velocity": 94,
      "chip": "ym2612"
    },
    {
      "channel": 2,
      "note": 50,
      "start": 42.1344,
      "duration": 0.0156,
      "velocity": 100,
      "chip": "ym2612"
    },
    {
      "channel": 1,
      "note": 64,
      "start": 42.1463,
      "duration": 0.0181,
      "velocity": 124,
      "chip": "ym2612"
    },
    {
      "channel": 4,
      "note": 93,
      "start": 42.1477,
      "duration": 0.0181,
      "velocity": 94,
      "chip": "ym2612"
    },
    {
      "channel": 3,
      "note": 93,
      "start": 42.1488,
      "duration": 0.0181,
      "velocity": 94,
      "chip": "ym2612"
    },
    {
      "channel": 2,
      "note": 50,
      "start": 42.15,
      "duration": 0.0181,
      "velocity": 100,
      "chip": "ym2612"
    },
    {
      "channel": 1,
      "note": 62,
      "start": 42.1644,
      "duration": 0.0167,
      "velocity": 124,
      "chip": "ym2612"
    },
    {
      "channel": 4,
      "note": 93,
      "start": 42.1658,
      "duration": 0.0167,
      "velocity": 94,
      "chip": "ym2612"
    },
    {
      "channel": 3,
      "note": 93,
      "start": 42.167,
      "duration": 0.0167,
      "velocity": 94,
      "chip": "ym2612"
    },
    {
      "channel": 2,
      "note": 50,
      "start": 42.1681,
      "duration": 0.0167,
      "velocity": 100,
      "chip": "ym2612"
    },
    {
      "channel": 1,
      "note": 61,
      "start": 42.1811,
      "duration": 0.0159,
      "velocity": 124,
      "chip": "ym2612"
    },
    {
      "channel": 4,
      "note": 93,
      "start": 42.1825,
      "duration": 0.0164,
      "velocity": 94,
      "chip": "ym2612"
    },
    {
      "channel": 3,
      "note": 93,
      "start": 42.1836,
      "duration": 0.0166,
      "velocity": 94,
      "chip": "ym2612"
    },
    {
      "channel": 2,
      "note": 50,
      "start": 42.1848,
      "duration": 0.0169,
      "velocity": 100,
      "chip": "ym2612"
    },
    {
      "channel": 1,
      "note": 60,
      "start": 42.197,
      "duration": 0.0141,
      "velocity": 124,
      "chip": "ym2612"
    },
    {
      "channel": 4,
      "note": 93,
      "start": 42.1989,
      "duration": 0.0136,
      "velocity": 94,
      "chip": "ym2612"
    },
    {
      "channel": 3,
      "note": 93,
      "start": 42.2003,
      "duration": 0.0134,
      "velocity": 94,
      "chip": "ym2612"
    },
    {
      "channel": 2,
      "note": 50,
      "start": 42.2018,
      "duration": 0.0131,
      "velocity": 100,
      "chip": "ym2612"
    },
    {
      "channel": 1,
      "note": 59,
      "start": 42.2111,
      "duration": 0.0185,
      "velocity": 124,
      "chip": "ym2612"
    },
    {
      "channel": 4,
      "note": 93,
      "start": 42.2125,
      "duration": 0.0185,
      "velocity": 94,
      "chip": "ym2612"
    },
    {
      "channel": 3,
      "note": 93,
      "start": 42.2137,
      "duration": 0.0184,
      "velocity": 94,
      "chip": "ym2612"
    },
    {
      "channel": 2,
      "note": 50,
      "start": 42.2149,
      "duration": 0.0184,
      "velocity": 100,
      "chip": "ym2612"
    },
    {
      "channel": 1,
      "note": 57,
      "start": 42.2296,
      "duration": 0.0134,
      "velocity": 124,
      "chip": "ym2612"
    },
    {
      "channel": 4,
      "note": 93,
      "start": 42.231,
      "duration": 0.0161,
      "velocity": 94,
      "chip": "ym2612"
    },
    {
      "channel": 3,
      "note": 93,
      "start": 42.2321,
      "duration": 0.0161,
      "velocity": 94,
      "chip": "ym2612"
    },
    {
      "channel": 2,
      "note": 50,
      "start": 42.2333,
      "duration": 0.0161,
      "velocity": 100,
      "chip": "ym2612"
    },
    {
      "channel": 1,
      "note": 56,
      "start": 42.2429,
      "duration": 0.0161,
      "velocity": 124,
      "chip": "ym2612"
    },
    {
      "channel": 4,
      "note": 93,
      "start": 42.2471,
      "duration": 0.0157,
      "velocity": 94,
      "chip": "ym2612"
    },
    {
      "channel": 3,
      "note": 93,
      "start": 42.2482,
      "duration": 0.0157,
      "velocity": 94,
      "chip": "ym2612"
    },
    {
      "channel": 2,
      "note": 50,
      "start": 42.2493,
      "duration": 0.0157,
      "velocity": 100,
      "chip": "ym2612"
    },
    {
      "channel": 1,
      "note": 55,
      "start": 42.259,
      "duration": 0.0161,
      "velocity": 124,
      "chip": "ym2612"
    },
    {
      "channel": 4,
      "note": 93,
      "start": 42.2628,
      "duration": 0.0139,
      "velocity": 94,
      "chip": "ym2612"
    },
    {
      "channel": 3,
      "note": 93,
      "start": 42.2639,
      "duration": 0.0141,
      "velocity": 94,
      "chip": "ym2612"
    },
    {
      "channel": 2,
      "note": 50,
      "start": 42.2651,
      "duration": 0.0141,
      "velocity": 100,
      "chip": "ym2612"
    },
    {
      "channel": 1,
      "note": 53,
      "start": 42.2751,
      "duration": 0.0161,
      "velocity": 124,
      "chip": "ym2612"
    },
    {
      "channel": 4,
      "note": 93,
      "start": 42.2766,
      "duration": 0.016,
      "velocity": 94,
      "chip": "ym2612"
    },
    {
      "channel": 3,
      "note": 93,
      "start": 42.278,
      "duration": 0.0185,
      "velocity": 94,
      "chip": "ym2612"
    },
    {
      "channel": 2,
      "note": 50,
      "start": 42.2791,
      "duration": 0.0185,
      "velocity": 100,
      "chip": "ym2612"
    },
    {
      "channel": 1,
      "note": 52,
      "start": 42.2912,
      "duration": 0.0161,
      "velocity": 124,
      "chip": "ym2612"
    },
    {
      "channel": 4,
      "note": 93,
      "start": 42.2926,
      "duration": 0.023,
      "velocity": 94,
      "chip": "ym2612"
    },
    {
      "channel": 3,
      "note": 93,
      "start": 42.2965,
      "duration": 0.0202,
      "velocity": 94,
      "chip": "ym2612"
    },
    {
      "channel": 2,
      "note": 50,
      "start": 42.2976,
      "duration": 0.0205,
      "velocity": 100,
      "chip": "ym2612"
    },
    {
      "channel": 1,
      "note": 51,
      "start": 42.3073,
      "duration": 0.0153,
      "velocity": 1,
      "chip": "ym2612"
    },
    {
      "channel": 0,
      "note": 36,
      "start": 42.3142,
      "duration": 0.0146,
      "velocity": 115,
      "chip": "ym2612"
    },
    {
      "channel": 4,
      "note": 93,
      "start": 42.3156,
      "duration": 0.0146,
      "velocity": 94,
      "chip": "ym2612"
    },
    {
      "channel": 3,
      "note": 93,
      "start": 42.3167,
      "duration": 0.0146,
      "velocity": 94,
      "chip": "ym2612"
    },
    {
      "channel": 2,
      "note": 50,
      "start": 42.3182,
      "duration": 0.0142,
      "velocity": 100,
      "chip": "ym2612"
    },
    {
      "channel": 1,
      "note": 51,
      "start": 42.3248,
      "duration": 0.0143,
      "velocity": 105,
      "chip": "ym2612"
    },
    {
      "channel": 0,
      "note": 36,
      "start": 42.3289,
      "duration": 0.0118,
      "velocity": 115,
      "chip": "ym2612"
    },
    {
      "channel": 4,
      "note": 93,
      "start": 42.3301,
      "duration": 0.0117,
      "velocity": 94,
      "chip": "ym2612"
    },
    {
      "channel": 3,
      "note": 93,
      "start": 42.3313,
      "duration": 0.0117,
      "velocity": 94,
      "chip": "ym2612"
    },
    {
      "channel": 2,
      "note": 50,
      "start": 42.3324,
      "duration": 0.012,
      "velocity": 100,
      "chip": "ym2612"
    },
    {
      "channel": 1,
      "note": 105,
      "start": 42.339,
      "duration": 0.0161,
      "velocity": 105,
      "chip": "ym2612"
    },
    {
      "channel": 0,
      "note": 37,
      "start": 42.3407,
      "duration": 0.0161,
      "velocity": 115,
      "chip": "ym2612"
    },
    {
      "channel": 4,
      "note": 93,
      "start": 42.3418,
      "duration": 0.0161,
      "velocity": 94,
      "chip": "ym2612"
    },
    {
      "channel": 3,
      "note": 93,
      "start": 42.343,
      "duration": 0.0161,
      "velocity": 94,
      "chip": "ym2612"
    },
    {
      "channel": 2,
      "note": 50,
      "start": 42.3444,
      "duration": 0.0185,
      "velocity": 100,
      "chip": "ym2612"
    },
    {
      "channel": 1,
      "note": 105,
      "start": 42.3551,
      "duration": 0.0161,
      "velocity": 105,
      "chip": "ym2612"
    },
    {
      "channel": 0,
      "note": 37,
      "start": 42.3568,
      "duration": 0.0161,
      "velocity": 115,
      "chip": "ym2612"
    },
    {
      "channel": 4,
      "note": 93,
      "start": 42.3579,
      "duration": 0.0162,
      "velocity": 94,
      "chip": "ym2612"
    },
    {
      "channel": 3,
      "note": 93,
      "start": 42.3591,
      "duration": 0.0161,
      "velocity": 94,
      "chip": "ym2612"
    },
    {
      "channel": 2,
      "note": 50,
      "start": 42.363,
      "duration": 0.0134,
      "velocity": 100,
      "chip": "ym2612"
    },
    {
      "channel": 1,
      "note": 105,
      "start": 42.3712,
      "duration": 0.0161,
      "velocity": 105,
      "chip": "ym2612"
    },
    {
      "channel": 0,
      "note": 38,
      "start": 42.3729,
      "duration": 0.0161,
      "velocity": 115,
      "chip": "ym2612"
    },
    {
      "channel": 4,
      "note": 93,
      "start": 42.3741,
      "duration": 0.0161,
      "velocity": 94,
      "chip": "ym2612"
    },
    {
      "channel": 3,
      "note": 93,
      "start": 42.3752,
      "duration": 0.0161,
      "velocity": 94,
      "chip": "ym2612"
    },
    {
      "channel": 2,
      "note": 50,
      "start": 42.3763,
      "duration": 0.0161,
      "velocity": 100,
      "chip": "ym2612"
    },
    {
      "channel": 1,
      "note": 105,
      "start": 42.3873,
      "duration": 0.0161,
      "velocity": 105,
      "chip": "ym2612"
    },
    {
      "channel": 0,
      "note": 38,
      "start": 42.389,
      "duration": 0.0161,
      "velocity": 115,
      "chip": "ym2612"
    },
    {
      "channel": 4,
      "note": 93,
      "start": 42.3902,
      "duration": 0.0161,
      "velocity": 94,
      "chip": "ym2612"
    },
    {
      "channel": 3,
      "note": 93,
      "start": 42.3913,
      "duration": 0.0161,
      "velocity": 94,
      "chip": "ym2612"
    },
    {
      "channel": 2,
      "note": 50,
      "start": 42.3924,
      "duration": 0.0161,
      "velocity": 100,
      "chip": "ym2612"
    },
    {
      "channel": 1,
      "note": 105,
      "start": 42.4034,
      "duration": 0.0178,
      "velocity": 124,
      "chip": "ym2612"
    },
    {
      "channel": 0,
      "note": 39,
      "start": 42.4051,
      "duration": 0.0197,
      "velocity": 115,
      "chip": "ym2612"
    },
    {
      "channel": 4,
      "note": 93,
      "start": 42.4063,
      "duration": 0.0197,
      "velocity": 94,
      "chip": "ym2612"
    },
    {
      "channel": 3,
      "note": 93,
      "start": 42.4074,
      "duration": 0.0225,
      "velocity": 94,
      "chip": "ym2612"
    },
    {
      "channel": 2,
      "note": 50,
      "start": 42.4085,
      "duration": 0.0228,
      "velocity": 100,
      "chip": "ym2612"
    },
    {
      "channel": 1,
      "note": 64,
      "start": 42.4213,
      "duration": 0.0144,
      "velocity": 124,
      "chip": "ym2612"
    },
    {
      "channel": 0,
      "note": 36,
      "start": 42.4247,
      "duration": 0.0127,
      "velocity": 115,
      "chip": "ym2612"
    },
    {
      "channel": 4,
      "note": 93,
      "start": 42.4259,
      "duration": 0.0127,
      "velocity": 94,
      "chip": "ym2612"
    },
    {
      "channel": 3,
      "note": 93,
      "start": 42.43,
      "duration": 0.0099,
      "velocity": 94,
      "chip": "ym2612"
    },
    {
      "channel": 2,
      "note": 50,
      "start": 42.4314,
      "duration": 0.0096,
      "velocity": 100,
      "chip": "ym2612"
    },
    {
      "channel": 1,
      "note": 64,
      "start": 42.4357,
      "duration": 0.016,
      "velocity": 124,
      "chip": "ym2612"
    },
    {
      "channel": 0,
      "note": 36,
      "start": 42.4375,
      "duration": 0.016,
      "velocity": 115,
      "chip": "ym2612"
    },
    {
      "channel": 4,
      "note": 93,
      "start": 42.4386,
      "duration": 0.016,
      "velocity": 94,
      "chip": "ym2612"
    },
    {
      "channel": 3,
      "note": 93,
      "start": 42.4398,
      "duration": 0.0159,
      "velocity": 94,
      "chip": "ym2612"
    },
    {
      "channel": 2,
      "note": 50,
      "start": 42.441,
      "duration": 0.0158,
      "velocity": 100,
      "chip": "ym2612"
    },
    {
      "channel": 1,
      "note": 64,
      "start": 42.4518,
      "duration": 0.0161,
      "velocity": 124,
      "chip": "ym2612"
    },
    {
      "channel": 0,
      "note": 37,
      "start": 42.4534,
      "duration": 0.0161,
      "velocity": 115,
      "chip": "ym2612"
    },
    {
      "channel": 4,
      "note": 93,
      "start": 42.4546,
      "duration": 0.0162,
      "velocity": 94,
      "chip": "ym2612"
    },
    {
      "channel": 3,
      "note": 93,
      "start": 42.4557,
      "duration": 0.0161,
      "velocity": 94,
      "chip": "ym2612"
    },
    {
      "channel": 2,
      "note": 50,
      "start": 42.4568,
      "duration": 0.0161,
      "velocity": 100,
      "chip": "ym2612"
    },
    {
      "channel": 1,
      "note": 64,
      "start": 42.4679,
      "duration": 0.0161,
      "velocity": 124,
      "chip": "ym2612"
    },
    {
      "channel": 0,
      "note": 37,
      "start": 42.4695,
      "duration": 0.0161,
      "velocity": 115,
      "chip": "ym2612"
    },
    {
      "channel": 4,
      "note": 93,
      "start": 42.4707,
      "duration": 0.0161,
      "velocity": 94,
      "chip": "ym2612"
    },
    {
      "channel": 3,
      "note": 93,
      "start": 42.4718,
      "duration": 0.0161,
      "velocity": 94,
      "chip": "ym2612"
    },
    {
      "channel": 2,
      "note": 50,
      "start": 42.4729,
      "duration": 0.0161,
      "velocity": 100,
      "chip": "ym2612"
    },
    {
      "channel": 1,
      "note": 64,
      "start": 42.4839,
      "duration": 0.0161,
      "velocity": 124,
      "chip": "ym2612"
    },
    {
      "channel": 0,
      "note": 38,
      "start": 42.4856,
      "duration": 0.0161,
      "velocity": 115,
      "chip": "ym2612"
    },
    {
      "channel": 4,
      "note": 93,
      "start": 42.4868,
      "duration": 0.0161,
      "velocity": 94,
      "chip": "ym2612"
    },
    {
      "channel": 3,
      "note": 93,
      "start": 42.4879,
      "duration": 0.0161,
      "velocity": 94,
      "chip": "ym2612"
    },
    {
      "channel": 2,
      "note": 50,
      "start": 42.489,
      "duration": 0.0161,
      "velocity": 100,
      "chip": "ym2612"
    },
    {
      "channel": 1,
      "note": 64,
      "start": 42.5,
      "duration": 0.0161,
      "velocity": 124,
      "chip": "ym2612"
    },
    {
      "channel": 0,
      "note": 38,
      "start": 42.5017,
      "duration": 0.0161,
      "velocity": 115,
      "chip": "ym2612"
    },
    {
      "channel": 4,
      "note": 93,
      "start": 42.5029,
      "duration": 0.0161,
      "velocity": 94,
      "chip": "ym2612"
    },
    {
      "channel": 3,
      "note": 93,
      "start": 42.504,
      "duration": 0.0161,
      "velocity": 94,
      "chip": "ym2612"
    },
    {
      "channel": 2,
      "note": 50,
      "start": 42.5051,
      "duration": 0.0161,
      "velocity": 100,
      "chip": "ym2612"
    },
    {
      "channel": 1,
      "note": 64,
      "start": 42.5161,
      "duration": 0.0178,
      "velocity": 105,
      "chip": "ym2612"
    },
    {
      "channel": 0,
      "note": 39,
      "start": 42.5178,
      "duration": 0.0179,
      "velocity": 115,
      "chip": "ym2612"
    },
    {
      "channel": 4,
      "note": 93,
      "start": 42.519,
      "duration": 0.018,
      "velocity": 94,
      "chip": "ym2612"
    },
    {
      "channel": 3,
      "note": 93,
      "start": 42.5201,
      "duration": 0.0181,
      "velocity": 94,
      "chip": "ym2612"
    },
    {
      "channel": 2,
      "note": 50,
      "start": 42.5212,
      "duration": 0.0184,
      "velocity": 100,
      "chip": "ym2612"
    },
    {
      "channel": 1,
      "note": 105,
      "start": 42.5339,
      "duration": 0.0144,
      "velocity": 105,
      "chip": "ym2612"
    },
    {
      "channel": 0,
      "note": 39,
      "start": 42.5357,
      "duration": 0.0144,
      "velocity": 115,
      "chip": "ym2612"
    },
    {
      "channel": 4,
      "note": 93,
      "start": 42.5371,
      "duration": 0.0142,
      "velocity": 94,
      "chip": "ym2612"
    },
    {
      "channel": 3,
      "note": 93,
      "start": 42.5382,
      "duration": 0.0142,
      "velocity": 94,
      "chip": "ym2612"
    },
    {
      "channel": 2,
      "note": 50,
      "start": 42.5397,
      "duration": 0.0139,
      "velocity": 100,
      "chip": "ym2612"
    },
    {
      "channel": 1,
      "note": 105,
      "start": 42.5484,
      "duration": 0.016,
      "velocity": 105,
      "chip": "ym2612"
    },
    {
      "channel": 0,
      "note": 40,
      "start": 42.55,
      "duration": 0.016,
      "velocity": 115,
      "chip": "ym2612"
    },
    {
      "channel": 4,
      "note": 93,
      "start": 42.5513,
      "duration": 0.016,
      "velocity": 94,
      "chip": "ym2612"
    },
    {
      "channel": 3,
      "note": 93,
      "start": 42.5524,
      "duration": 0.016,
      "velocity": 94,
      "chip": "ym2612"
    },
    {
      "channel": 2,
      "note": 50,
      "start": 42.5536,
      "duration": 0.0159,
      "velocity": 100,
      "chip": "ym2612"
    },
    {
      "channel": 1,
      "note": 105,
      "start": 42.5644,
      "duration": 0.0162,
      "velocity": 105,
      "chip": "ym2612"
    },
    {
      "channel": 0,
      "note": 40,
      "start": 42.5661,
      "duration": 0.0162,
      "velocity": 115,
      "chip": "ym2612"
    },
    {
      "channel": 4,
      "note": 93,
      "start": 42.5673,
      "duration": 0.0162,
      "velocity": 94,
      "chip": "ym2612"
    },
    {
      "channel": 3,
      "note": 93,
      "start": 42.5684,
      "duration": 0.0162,
      "velocity": 94,
      "chip": "ym2612"
    },
    {
      "channel": 2,
      "note": 50,
      "start": 42.5695,
      "duration": 0.0162,
      "velocity": 100,
      "chip": "ym2612"
    },
    {
      "channel": 1,
      "note": 105,
      "start": 42.5807,
      "duration": 0.0163,
      "velocity": 105,
      "chip": "ym2612"
    },
    {
      "channel": 0,
      "note": 40,
      "start": 42.5823,
      "duration": 0.0163,
      "velocity": 115,
      "chip": "ym2612"
    },
    {
      "channel": 4,
      "note": 93,
      "start": 42.5834,
      "duration": 0.0163,
      "velocity": 94,
      "chip": "ym2612"
    },
    {
      "channel": 3,
      "note": 93,
      "start": 42.5846,
      "duration": 0.0163,
      "velocity": 94,
      "chip": "ym2612"
    },
    {
      "channel": 2,
      "note": 50,
      "start": 42.5857,
      "duration": 0.0163,
      "velocity": 100,
      "chip": "ym2612"
    },
    {
      "channel": 1,
      "note": 105,
      "start": 42.5969,
      "duration": 0.0158,
      "velocity": 105,
      "chip": "ym2612"
    },
    {
      "channel": 0,
      "note": 41,
      "start": 42.5986,
      "duration": 0.0158,
      "velocity": 115,
      "chip": "ym2612"
    },
    {
      "channel": 4,
      "note": 93,
      "start": 42.5997,
      "duration": 0.0159,
      "velocity": 94,
      "chip": "ym2612"
    },
    {
      "channel": 3,
      "note": 93,
      "start": 42.6009,
      "duration": 0.0158,
      "velocity": 94,
      "chip": "ym2612"
    },
    {
      "channel": 2,
      "note": 50,
      "start": 42.602,
      "duration": 0.0159,
      "velocity": 100,
      "chip": "ym2612"
    },
    {
      "channel": 1,
      "note": 105,
      "start": 42.6128,
      "duration": 0.0179,
      "velocity": 105,
      "chip": "ym2612"
    },
    {
      "channel": 0,
      "note": 41,
      "start": 42.6144,
      "duration": 0.0179,
      "velocity": 115,
      "chip": "ym2612"
    },
    {
      "channel": 4,
      "note": 93,
      "start": 42.6156,
      "duration": 0.0179,
      "velocity": 94,
      "chip": "ym2612"
    },
    {
      "channel": 3,
      "note": 93,
      "start": 42.6167,
      "duration": 0.0179,
      "velocity": 94,
      "chip": "ym2612"
    },
    {
      "channel": 2,
      "note": 50,
      "start": 42.6179,
      "duration": 0.0179,
      "velocity": 100,
      "chip": "ym2612"
    },
    {
      "channel": 1,
      "note": 105,
      "start": 42.6307,
      "duration": 0.0183,
      "velocity": 124,
      "chip": "ym2612"
    },
    {
      "channel": 0,
      "note": 42,
      "start": 42.6323,
      "duration": 0.0184,
      "velocity": 115,
      "chip": "ym2612"
    },
    {
      "channel": 4,
      "note": 93,
      "start": 42.6334,
      "duration": 0.0185,
      "velocity": 94,
      "chip": "ym2612"
    },
    {
      "channel": 3,
      "note": 93,
      "start": 42.6346,
      "duration": 0.0186,
      "velocity": 94,
      "chip": "ym2612"
    },
    {
      "channel": 2,
      "note": 50,
      "start": 42.6357,
      "duration": 0.019,
      "velocity": 100,
      "chip": "ym2612"
    },
    {
      "channel": 1,
      "note": 64,
      "start": 42.649,
      "duration": 0.0145,
      "velocity": 124,
      "chip": "ym2612"
    },
    {
      "channel": 0,
      "note": 42,
      "start": 42.6507,
      "duration": 0.0145,
      "velocity": 115,
      "chip": "ym2612"
    },
    {
      "channel": 4,
      "note": 93,
      "start": 42.6519,
      "duration": 0.0144,
      "velocity": 94,
      "chip": "ym2612"
    },
    {
      "channel": 3,
      "note": 93,
      "start": 42.6533,
      "duration": 0.0143,
      "velocity": 94,
      "chip": "ym2612"
    },
    {
      "channel": 2,
      "note": 50,
      "start": 42.6548,
      "duration": 0.014,
      "velocity": 100,
      "chip": "ym2612"
    },
    {
      "channel": 1,
      "note": 64,
      "start": 42.6635,
      "duration": 0.0139,
      "velocity": 124,
      "chip": "ym2612"
    },
    {
      "channel": 0,
      "note": 43,
      "start": 42.6652,
      "duration": 0.014,
      "velocity": 115,
      "chip": "ym2612"
    },
    {
      "channel": 4,
      "note": 93,
      "start": 42.6663,
      "duration": 0.014,
      "velocity": 94,
      "chip": "ym2612"
    },
    {
      "channel": 3,
      "note": 93,
      "start": 42.6676,
      "duration": 0.0139,
      "velocity": 94,
      "chip": "ym2612"
    },
    {
      "channel": 2,
      "note": 50,
      "start": 42.6688,
      "duration": 0.0139,
      "velocity": 100,
      "chip": "ym2612"
    },
    {
      "channel": 1,
      "note": 64,
      "start": 42.6775,
      "duration": 0.0186,
      "velocity": 124,
      "chip": "ym2612"
    },
    {
      "channel": 0,
      "note": 43,
      "start": 42.6792,
      "duration": 0.0185,
      "velocity": 115,
      "chip": "ym2612"
    },
    {
      "channel": 4,
      "note": 93,
      "start": 42.6803,
      "duration": 0.0185,
      "velocity": 94,
      "chip": "ym2612"
    },
    {
      "channel": 3,
      "note": 93,
      "start": 42.6815,
      "duration": 0.0185,
      "velocity": 94,
      "chip": "ym2612"
    },
    {
      "channel": 2,
      "note": 50,
      "start": 42.6826,
      "duration": 0.0185,
      "velocity": 100,
      "chip": "ym2612"
    },
    {
      "channel": 1,
      "note": 64,
      "start": 42.696,
      "duration": 0.0133,
      "velocity": 124,
      "chip": "ym2612"
    },
    {
      "channel": 0,
      "note": 44,
      "start": 42.6977,
      "duration": 0.0161,
      "velocity": 115,
      "chip": "ym2612"
    },
    {
      "channel": 4,
      "note": 93,
      "start": 42.6988,
      "duration": 0.0161,
      "velocity": 94,
      "chip": "ym2612"
    },
    {
      "channel": 3,
      "note": 93,
      "start": 42.7,
      "duration": 0.0161,
      "velocity": 94,
      "chip": "ym2612"
    },
    {
      "channel": 2,
      "note": 50,
      "start": 42.7011,
      "duration": 0.0161,
      "velocity": 100,
      "chip": "ym2612"
    },
    {
      "channel": 1,
      "note": 64,
      "start": 42.7093,
      "duration": 0.0161,
      "velocity": 124,
      "chip": "ym2612"
    },
    {
      "channel": 0,
      "note": 44,
      "start": 42.7138,
      "duration": 0.0158,
      "velocity": 115,
      "chip": "ym2612"
    },
    {
      "channel": 4,
      "note": 93,
      "start": 42.7149,
      "duration": 0.0158,
      "velocity": 94,
      "chip": "ym2612"
    },
    {
      "channel": 3,
      "note": 93,
      "start": 42.7161,
      "duration": 0.0158,
      "velocity": 94,
      "chip": "ym2612"
    },
    {
      "channel": 2,
      "note": 50,
      "start": 42.7172,
      "duration": 0.0158,
      "velocity": 100,
      "chip": "ym2612"
    },
    {
      "channel": 1,
      "note": 64,
      "start": 42.7255,
      "duration": 0.0161,
      "velocity": 124,
      "chip": "ym2612"
    },
    {
      "channel": 0,
      "note": 44,
      "start": 42.7296,
      "duration": 0.014,
      "velocity": 115,
      "chip": "ym2612"
    },
    {
      "channel": 4,
      "note": 93,
      "start": 42.7307,
      "duration": 0.014,
      "velocity": 94,
      "chip": "ym2612"
    },
    {
      "channel": 3,
      "note": 93,
      "start": 42.7319,
      "duration": 0.014,
      "velocity": 94,
      "chip": "ym2612"
    },
    {
      "channel": 2,
      "note": 50,
      "start": 42.733,
      "duration": 0.014,
      "velocity": 100,
      "chip": "ym2612"
    },
    {
      "channel": 1,
      "note": 64,
      "start": 42.7416,
      "duration": 0.0178,
      "velocity": 105,
      "chip": "ym2612"
    },
    {
      "channel": 0,
      "note": 45,
      "start": 42.7436,
      "duration": 0.0202,
      "velocity": 115,
      "chip": "ym2612"
    },
    {
      "channel": 4,
      "note": 93,
      "start": 42.7447,
      "duration": 0.0204,
      "velocity": 94,
      "chip": "ym2612"
    },
    {
      "channel": 3,
      "note": 93,
      "start": 42.7459,
      "duration": 0.0204,
      "velocity": 94,
      "chip": "ym2612"
    },
    {
      "channel": 2,
      "note": 50,
      "start": 42.747,
      "duration": 0.0207,
      "velocity": 100,
      "chip": "ym2612"
    },
    {
      "channel": 1,
      "note": 105,
      "start": 42.7594,
      "duration": 0.0144,
      "velocity": 105,
      "chip": "ym2612"
    },
    {
      "channel": 0,
      "note": 45,
      "start": 42.7638,
      "duration": 0.0117,
      "velocity": 115,
      "chip": "ym2612"
    },
    {
      "channel": 4,
      "note": 93,
      "start": 42.7651,
      "duration": 0.0143,
      "velocity": 94,
      "chip": "ym2612"
    },
    {
      "channel": 3,
      "note": 93,
      "start": 42.7663,
      "duration": 0.0143,
      "velocity": 94,
      "chip": "ym2612"
    },
    {
      "channel": 2,
      "note": 50,
      "start": 42.7677,
      "duration": 0.0141,
      "velocity": 100,
      "chip": "ym2612"
    },
    {
      "channel": 1,
      "note": 105,
      "start": 42.7738,
      "duration": 0.016,
      "velocity": 105,
      "chip": "ym2612"
    },
    {
      "channel": 0,
      "note": 46,
      "start": 42.7755,
      "duration": 0.016,
      "velocity": 115,
      "chip": "ym2612"
    },
    {
      "channel": 4,
      "note": 93,
      "start": 42.7794,
      "duration": 0.0133,
      "velocity": 94,
      "chip": "ym2612"
    },
    {
      "channel": 3,
      "note": 93,
      "start": 42.7806,
      "duration": 0.0156,
      "velocity": 94,
      "chip": "ym2612"
    },
    {
      "channel": 2,
      "note": 50,
      "start": 42.7818,
      "duration": 0.0156,
      "velocity": 100,
      "chip": "ym2612"
    },
    {
      "channel": 1,
      "note": 105,
      "start": 42.7899,
      "duration": 0.0161,
      "velocity": 105,
      "chip": "ym2612"
    },
    {
      "channel": 0,
      "note": 46,
      "start": 42.7915,
      "duration": 0.0161,
      "velocity": 115,
      "chip": "ym2612"
    },
    {
      "channel": 4,
      "note": 93,
      "start": 42.7927,
      "duration": 0.0161,
      "velocity": 94,
      "chip": "ym2612"
    },
    {
      "channel": 3,
      "note": 93,
      "start": 42.7962,
      "duration": 0.014,
      "velocity": 94,
      "chip": "ym2612"
    },
    {
      "channel": 2,
      "note": 50,
      "start": 42.7974,
      "duration": 0.014,
      "velocity": 100,
      "chip": "ym2612"
    },
    {
      "channel": 1,
      "note": 105,
      "start": 42.806,
      "duration": 0.0161,
      "velocity": 105,
      "chip": "ym2612"
    },
    {
      "channel": 0,
      "note": 47,
      "start": 42.8076,
      "duration": 0.0161,
      "velocity": 115,
      "chip": "ym2612"
    },
    {
      "channel": 4,
      "note": 93,
      "start": 42.8088,
      "duration": 0.0161,
      "velocity": 94,
      "chip": "ym2612"
    },
    {
      "channel": 3,
      "note": 93,
      "start": 42.8102,
      "duration": 0.0159,
      "velocity": 94,
      "chip": "ym2612"
    },
    {
      "channel": 2,
      "note": 50,
      "start": 42.8114,
      "duration": 0.0186,
      "velocity": 100,
      "chip": "ym2612"
    },
    {
      "channel": 1,
      "note": 105,
      "start": 42.8221,
      "duration": 0.0161,
      "velocity": 105,
      "chip": "ym2612"
    },
    {
      "channel": 0,
      "note": 47,
      "start": 42.8237,
      "duration": 0.0161,
      "velocity": 115,
      "chip": "ym2612"
    },
    {
      "channel": 4,
      "note": 93,
      "start": 42.8249,
      "duration": 0.0161,
      "velocity": 94,
      "chip": "ym2612"
    },
    {
      "channel": 3,
      "note": 93,
      "start": 42.8261,
      "duration": 0.0161,
      "velocity": 94,
      "chip": "ym2612"
    },
    {
      "channel": 2,
      "note": 50,
      "start": 42.83,
      "duration": 0.0161,
      "velocity": 100,
      "chip": "ym2612"
    },
    {
      "channel": 1,
      "note": 105,
      "start": 42.8382,
      "duration": 0.0161,
      "velocity": 105,
      "chip": "ym2612"
    },
    {
      "channel": 0,
      "note": 47,
      "start": 42.8398,
      "duration": 0.0161,
      "velocity": 115,
      "chip": "ym2612"
    },
    {
      "channel": 4,
      "note": 93,
      "start": 42.841,
      "duration": 0.0161,
      "velocity": 94,
      "chip": "ym2612"
    },
    {
      "channel": 3,
      "note": 93,
      "start": 42.8422,
      "duration": 0.0161,
      "velocity": 94,
      "chip": "ym2612"
    },
    {
      "channel": 2,
      "note": 50,
      "start": 42.846,
      "duration": 0.0133,
      "velocity": 100,
      "chip": "ym2612"
    },
    {
      "channel": 1,
      "note": 105,
      "start": 42.8542,
      "duration": 0.0184,
      "velocity": 124,
      "chip": "ym2612"
    },
    {
      "channel": 0,
      "note": 48,
      "start": 42.8559,
      "duration": 0.0192,
      "velocity": 115,
      "chip": "ym2612"
    },
    {
      "channel": 4,
      "note": 93,
      "start": 42.8571,
      "duration": 0.0191,
      "velocity": 94,
      "chip": "ym2612"
    },
    {
      "channel": 3,
      "note": 93,
      "start": 42.8583,
      "duration": 0.0195,
      "velocity": 94,
      "chip": "ym2612"
    },
    {
      "channel": 2,
      "note": 50,
      "start": 42.8593,
      "duration": 0.0198,
      "velocity": 100,
      "chip": "ym2612"
    },
    {
      "channel": 1,
      "note": 78,
      "start": 42.8726,
      "duration": 0.0144,
      "velocity": 124,
      "chip": "ym2612"
    },
    {
      "channel": 0,
      "note": 48,
      "start": 42.8751,
      "duration": 0.0139,
      "velocity": 115,
      "chip": "ym2612"
    },
    {
      "channel": 4,
      "note": 93,
      "start": 42.8762,
      "duration": 0.0139,
      "velocity": 94,
      "chip": "ym2612"
    },
    {
      "channel": 3,
      "note": 93,
      "start": 42.8778,
      "duration": 0.0136,
      "velocity": 94,
      "chip": "ym2612"
    },
    {
      "channel": 2,
      "note": 48,
      "start": 42.8793,
      "duration": 0.0132,
      "velocity": 100,
      "chip": "ym2612"
    },
    {
      "channel": 1,
      "note": 76,
      "start": 42.887,
      "duration": 0.016,
      "velocity": 124,
      "chip": "ym2612"
    },
    {
      "channel": 0,
      "note": 49,
      "start": 42.8889,
      "duration": 0.0152,
      "velocity": 1,
      "chip": "ym2612"
    },
    {
      "channel": 4,
      "note": 93,
      "start": 42.8901,
      "duration": 0.0151,
      "velocity": 94,
      "chip": "ym2612"
    },
    {
      "channel": 3,
      "note": 93,
      "start": 42.8913,
      "duration": 0.0151,
      "velocity": 94,
      "chip": "ym2612"
    },
    {
      "channel": 2,
      "note": 48,
      "start": 42.8925,
      "duration": 0.0151,
      "velocity": 100,
      "chip": "ym2612"
    },
    {
      "channel": 1,
      "note": 75,
      "start": 42.903,
      "duration": 0.0162,
      "velocity": 124,
      "chip": "ym2612"
    },
    {
      "channel": 4,
      "note": 93,
      "start": 42.9053,
      "duration": 0.0153,
      "velocity": 94,
      "chip": "ym2612"
    },
    {
      "channel": 3,
      "note": 93,
      "start": 42.9064,
      "duration": 0.0153,
      "velocity": 94,
      "chip": "ym2612"
    },
    {
      "channel": 2,
      "note": 48,
      "start": 42.9076,
      "duration": 0.0153,
      "velocity": 100,
      "chip": "ym2612"
    },
    {
      "channel": 1,
      "note": 74,
      "start": 42.9192,
      "duration": 0.0161,
      "velocity": 124,
      "chip": "ym2612"
    },
    {
      "channel": 4,
      "note": 93,
      "start": 42.9205,
      "duration": 0.0161,
      "velocity": 94,
      "chip": "ym2612"
    },
    {
      "channel": 3,
      "note": 93,
      "start": 42.9217,
      "duration": 0.0161,
      "velocity": 94,
      "chip": "ym2612"
    },
    {
      "channel": 2,
      "note": 48,
      "start": 42.9228,
      "duration": 0.0161,
      "velocity": 100,
      "chip": "ym2612"
    },
    {
      "channel": 1,
      "note": 72,
      "start": 42.9353,
      "duration": 0.0161,
      "velocity": 124,
      "chip": "ym2612"
    },
    {
      "channel": 4,
      "note": 93,
      "start": 42.9367,
      "duration": 0.0161,
      "velocity": 94,
      "chip": "ym2612"
    },
    {
      "channel": 3,
      "note": 93,
      "start": 42.9378,
      "duration": 0.0161,
      "velocity": 94,
      "chip": "ym2612"
    },
    {
      "channel": 2,
      "note": 48,
      "start": 42.9389,
      "duration": 0.0162,
      "velocity": 100,
      "chip": "ym2612"
    },
    {
      "channel": 1,
      "note": 71,
      "start": 42.9514,
      "duration": 0.0161,
      "velocity": 124,
      "chip": "ym2612"
    },
    {
      "channel": 4,
      "note": 93,
      "start": 42.9528,
      "duration": 0.0161,
      "velocity": 94,
      "chip": "ym2612"
    },
    {
      "channel": 3,
      "note": 93,
      "start": 42.9539,
      "duration": 0.0161,
      "velocity": 94,
      "chip": "ym2612"
    },
    {
      "channel": 2,
      "note": 48,
      "start": 42.9551,
      "duration": 0.0161,
      "velocity": 100,
      "chip": "ym2612"
    },
    {
      "channel": 1,
      "note": 70,
      "start": 42.9675,
      "duration": 0.0161,
      "velocity": 124,
      "chip": "ym2612"
    },
    {
      "channel": 4,
      "note": 93,
      "start": 42.9689,
      "duration": 0.0168,
      "velocity": 94,
      "chip": "ym2612"
    },
    {
      "channel": 3,
      "note": 93,
      "start": 42.97,
      "duration": 0.0168,
      "velocity": 94,
      "chip": "ym2612"
    },
    {
      "channel": 2,
      "note": 48,
      "start": 42.9712,
      "duration": 0.017,
      "velocity": 100,
      "chip": "ym2612"
    },
    {
      "channel": 1,
      "note": 69,
      "start": 42.9836,
      "duration": 0.0161,
      "velocity": 124,
      "chip": "ym2612"
    },
    {
      "channel": 4,
      "note": 93,
      "start": 42.9857,
      "duration": 0.0155,
      "velocity": 94,
      "chip": "ym2612"
    },
    {
      "channel": 3,
      "note": 93,
      "start": 42.9869,
      "duration": 0.0154,
      "velocity": 94,
      "chip": "ym2612"
    },
    {
      "channel": 2,
      "note": 48,
      "start": 42.9883,
      "duration": 0.0152,
      "velocity": 100,
      "chip": "ym2612"
    },
    {
      "channel": 1,
      "note": 68,
      "start": 42.9997,
      "duration": 0.0161,
      "velocity": 124,
      "chip": "ym2612"
    },
    {
      "channel": 4,
      "note": 93,
      "start": 43.0012,
      "duration": 0.016,
      "velocity": 94,
      "chip": "ym2612"
    },
    {
      "channel": 3,
      "note": 93,
      "start": 43.0023,
      "duration": 0.016,
      "velocity": 94,
      "chip": "ym2612"
    },
    {
      "channel": 2,
      "note": 48,
      "start": 43.0035,
      "duration": 0.016,
      "velocity": 100,
      "chip": "ym2612"
    },
    {
      "channel": 1,
      "note": 66,
      "start": 43.0158,
      "duration": 0.0161,
      "velocity": 124,
      "chip": "ym2612"
    },
    {
      "channel": 4,
      "note": 93,
      "start": 43.0172,
      "duration": 0.0161,
      "velocity": 94,
      "chip": "ym2612"
    },
    {
      "channel": 3,
      "note": 93,
      "start": 43.0183,
      "duration": 0.0161,
      "velocity": 94,
      "chip": "ym2612"
    },
    {
      "channel": 2,
      "note": 48,
      "start": 43.0195,
      "duration": 0.0161,
      "velocity": 100,
      "chip": "ym2612"
    },
    {
      "channel": 1,
      "note": 65,
      "start": 43.0319,
      "duration": 0.0161,
      "velocity": 124,
      "chip": "ym2612"
    },
    {
      "channel": 4,
      "note": 93,
      "start": 43.0333,
      "duration": 0.0161,
      "velocity": 94,
      "chip": "ym2612"
    },
    {
      "channel": 3,
      "note": 93,
      "start": 43.0344,
      "duration": 0.0161,
      "velocity": 94,
      "chip": "ym2612"
    },
    {
      "channel": 2,
      "note": 48,
      "start": 43.0356,
      "duration": 0.0161,
      "velocity": 100,
      "chip": "ym2612"
    },
    {
      "channel": 1,
      "note": 64,
      "start": 43.048,
      "duration": 0.0161,
      "velocity": 124,
      "chip": "ym2612"
    },
    {
      "channel": 4,
      "note": 93,
      "start": 43.0493,
      "duration": 0.0162,
      "velocity": 94,
      "chip": "ym2612"
    },
    {
      "channel": 3,
      "note": 93,
      "start": 43.0505,
      "duration": 0.0161,
      "velocity": 94,
      "chip": "ym2612"
    },
    {
      "channel": 2,
      "note": 48,
      "start": 43.0516,
      "duration": 0.0162,
      "velocity": 100,
      "chip": "ym2612"
    },
    {
      "channel": 1,
      "note": 62,
      "start": 43.0641,
      "duration": 0.0161,
      "velocity": 124,
      "chip": "ym2612"
    },
    {
      "channel": 4,
      "note": 93,
      "start": 43.0655,
      "duration": 0.016,
      "velocity": 94,
      "chip": "ym2612"
    },
    {
      "channel": 3,
      "note": 93,
      "start": 43.0666,
      "duration": 0.016,
      "velocity": 94,
      "chip": "ym2612"
    },
    {
      "channel": 2,
      "note": 48,
      "start": 43.0678,
      "duration": 0.016,
      "velocity": 100,
      "chip": "ym2612"
    },
    {
      "channel": 1,
      "note": 61,
      "start": 43.0802,
      "duration": 0.0176,
      "velocity": 124,
      "chip": "ym2612"
    },
    {
      "channel": 4,
      "note": 93,
      "start": 43.0815,
      "duration": 0.0181,
      "velocity": 94,
      "chip": "ym2612"
    },
    {
      "channel": 3,
      "note": 93,
      "start": 43.0827,
      "duration": 0.0184,
      "velocity": 94,
      "chip": "ym2612"
    },
    {
      "channel": 2,
      "note": 48,
      "start": 43.0838,
      "duration": 0.0186,
      "velocity": 100,
      "chip": "ym2612"
    },
    {
      "channel": 1,
      "note": 60,
      "start": 43.0978,
      "duration": 0.0167,
      "velocity": 124,
      "chip": "ym2612"
    },
    {
      "channel": 4,
      "note": 93,
      "start": 43.0997,
      "duration": 0.0162,
      "velocity": 94,
      "chip": "ym2612"
    },
    {
      "channel": 3,
      "note": 93,
      "start": 43.1011,
      "duration": 0.016,
      "velocity": 94,
      "chip": "ym2612"
    },
    {
      "channel": 2,
      "note": 48,
      "start": 43.1025,
      "duration": 0.0158,
      "velocity": 100,
      "chip": "ym2612"
    },
    {
      "channel": 1,
      "note": 59,
      "start": 43.1144,
      "duration": 0.0163,
      "velocity": 124,
      "chip": "ym2612"
    },
    {
      "channel": 4,
      "note": 93,
      "start": 43.1159,
      "duration": 0.0163,
      "velocity": 94,
      "chip": "ym2612"
    },
    {
      "channel": 3,
      "note": 93,
      "start": 43.1171,
      "duration": 0.0162,
      "velocity": 94,
      "chip": "ym2612"
    },
    {
      "channel": 2,
      "note": 48,
      "start": 43.1183,
      "duration": 0.0161,
      "velocity": 100,
      "chip": "ym2612"
    },
    {
      "channel": 1,
      "note": 57,
      "start": 43.1308,
      "duration": 0.0141,
      "velocity": 124,
      "chip": "ym2612"
    },
    {
      "channel": 4,
      "note": 93,
      "start": 43.1322,
      "duration": 0.0141,
      "velocity": 94,
      "chip": "ym2612"
    },
    {
      "channel": 3,
      "note": 93,
      "start": 43.1333,
      "duration": 0.0141,
      "velocity": 94,
      "chip": "ym2612"
    },
    {
      "channel": 2,
      "note": 48,
      "start": 43.1344,
      "duration": 0.0142,
      "velocity": 100,
      "chip": "ym2612"
    },
    {
      "channel": 1,
      "note": 56,
      "start": 43.1449,
      "duration": 0.0185,
      "velocity": 124,
      "chip": "ym2612"
    },
    {
      "channel": 4,
      "note": 93,
      "start": 43.1463,
      "duration": 0.0185,
      "velocity": 94,
      "chip": "ym2612"
    },
    {
      "channel": 3,
      "note": 93,
      "start": 43.1474,
      "duration": 0.0185,
      "velocity": 94,
      "chip": "ym2612"
    },
    {
      "channel": 2,
      "note": 48,
      "start": 43.1486,
      "duration": 0.0185,
      "velocity": 100,
      "chip": "ym2612"
    },
    {
      "channel": 1,
      "note": 55,
      "start": 43.1634,
      "duration": 0.0162,
      "velocity": 124,
      "chip": "ym2612"
    },
    {
      "channel": 4,
      "note": 93,
      "start": 43.1648,
      "duration": 0.0161,
      "velocity": 94,
      "chip": "ym2612"
    },
    {
      "channel": 3,
      "note": 93,
      "start": 43.166,
      "duration": 0.0161,
      "velocity": 94,
      "chip": "ym2612"
    },
    {
      "channel": 2,
      "note": 48,
      "start": 43.1671,
      "duration": 0.0161,
      "velocity": 100,
      "chip": "ym2612"
    },
    {
      "channel": 1,
      "note": 53,
      "start": 43.1796,
      "duration": 0.0133,
      "velocity": 124,
      "chip": "ym2612"
    },
    {
      "channel": 4,
      "note": 93,
      "start": 43.1809,
      "duration": 0.0157,
      "velocity": 94,
      "chip": "ym2612"
    },
    {
      "channel": 3,
      "note": 93,
      "start": 43.182,
      "duration": 0.0157,
      "velocity": 94,
      "chip": "ym2612"
    },
    {
      "channel": 2,
      "note": 48,
      "start": 43.1832,
      "duration": 0.0157,
      "velocity": 100,
      "chip": "ym2612"
    },
    {
      "channel": 1,
      "note": 52,
      "start": 43.1929,
      "duration": 0.0162,
      "velocity": 124,
      "chip": "ym2612"
    },
    {
      "channel": 4,
      "note": 93,
      "start": 43.1966,
      "duration": 0.0183,
      "velocity": 94,
      "chip": "ym2612"
    },
    {
      "channel": 3,
      "note": 93,
      "start": 43.1978,
      "duration": 0.0183,
      "velocity": 94,
      "chip": "ym2612"
    },
    {
      "channel": 2,
      "note": 48,
      "start": 43.1989,
      "duration": 0.0184,
      "velocity": 100,
      "chip": "ym2612"
    },
    {
      "channel": 1,
      "note": 51,
      "start": 43.209,
      "duration": 0.0153,
      "velocity": 1,
      "chip": "ym2612"
    },
    {
      "channel": 0,
      "note": 78,
      "start": 43.2135,
      "duration": 0.0174,
      "velocity": 127,
      "chip": "ym2612"
    },
    {
      "channel": 4,
      "note": 93,
      "start": 43.2149,
      "duration": 0.0173,
      "velocity": 94,
      "chip": "ym2612"
    },
    {
      "channel": 3,
      "note": 93,
      "start": 43.216,
      "duration": 0.0173,
      "velocity": 94,
      "chip": "ym2612"
    },
    {
      "channel": 2,
      "note": 48,
      "start": 43.2174,
      "duration": 0.0171,
      "velocity": 100,
      "chip": "ym2612"
    },
    {
      "channel": 1,
      "note": 51,
      "start": 43.2264,
      "duration": 0.0143,
      "velocity": 105,
      "chip": "ym2612"
    },
    {
      "channel": 0,
      "note": 76,
      "start": 43.2309,
      "duration": 0.0115,
      "velocity": 127,
      "chip": "ym2612"
    },
    {
      "channel": 4,
      "note": 93,
      "start": 43.2322,
      "duration": 0.0141,
      "velocity": 94,
      "chip": "ym2612"
    },
    {
      "channel": 3,
      "note": 93,
      "start": 43.2333,
      "duration": 0.0141,
      "velocity": 94,
      "chip": "ym2612"
    },
    {
      "channel": 2,
      "note": 48,
      "start": 43.2345,
      "duration": 0.0141,
      "velocity": 100,
      "chip": "ym2612"
    },
    {
      "channel": 1,
      "note": 105,
      "start": 43.2407,
      "duration": 0.0161,
      "velocity": 105,
      "chip": "ym2612"
    },
    {
      "channel": 0,
      "note": 75,
      "start": 43.2424,
      "duration": 0.0161,
      "velocity": 127,
      "chip": "ym2612"
    },
    {
      "channel": 4,
      "note": 93,
      "start": 43.2463,
      "duration": 0.0134,
      "velocity": 94,
      "chip": "ym2612"
    },
    {
      "channel": 3,
      "note": 93,
      "start": 43.2474,
      "duration": 0.0157,
      "velocity": 94,
      "chip": "ym2612"
    },
    {
      "channel": 2,
      "note": 48,
      "start": 43.2485,
      "duration": 0.0158,
      "velocity": 100,
      "chip": "ym2612"
    },
    {
      "channel": 1,
      "note": 105,
      "start": 43.2568,
      "duration": 0.0161,
      "velocity": 105,
      "chip": "ym2612"
    },
    {
      "channel": 0,
      "note": 73,
      "start": 43.2585,
      "duration": 0.0161,
      "velocity": 127,
      "chip": "ym2612"
    },
    {
      "channel": 4,
      "note": 93,
      "start": 43.2597,
      "duration": 0.0161,
      "velocity": 94,
      "chip": "ym2612"
    },
    {
      "channel": 3,
      "note": 93,
      "start": 43.2632,
      "duration": 0.0141,
      "velocity": 94,
      "chip": "ym2612"
    },
    {
      "channel": 2,
      "note": 48,
      "start": 43.2643,
      "duration": 0.014,
      "velocity": 100,
      "chip": "ym2612"
    },
    {
      "channel": 1,
      "note": 105,
      "start": 43.2729,
      "duration": 0.0161,
      "velocity": 105,
      "chip": "ym2612"
    },
    {
      "channel": 0,
      "note": 71,
      "start": 43.2745,
      "duration": 0.0161,
      "velocity": 127,
      "chip": "ym2612"
    },
    {
      "channel": 4,
      "note": 93,
      "start": 43.2758,
      "duration": 0.0161,
      "velocity": 94,
      "chip": "ym2612"
    },
    {
      "channel": 3,
      "note": 93,
      "start": 43.2772,
      "duration": 0.0158,
      "velocity": 94,
      "chip": "ym2612"
    },
    {
      "channel": 2,
      "note": 48,
      "start": 43.2783,
      "duration": 0.0186,
      "velocity": 100,
      "chip": "ym2612"
    },
    {
      "channel": 1,
      "note": 105,
      "start": 43.289,
      "duration": 0.0161,
      "velocity": 105,
      "chip": "ym2612"
    },
    {
      "channel": 0,
      "note": 70,
      "start": 43.2906,
      "duration": 0.0162,
      "velocity": 127,
      "chip": "ym2612"
    },
    {
      "channel": 4,
      "note": 93,
      "start": 43.2918,
      "duration": 0.0161,
      "velocity": 94,
      "chip": "ym2612"
    },
    {
      "channel": 3,
      "note": 93,
      "start": 43.293,
      "duration": 0.0161,
      "velocity": 94,
      "chip": "ym2612"
    },
    {
      "channel": 2,
      "note": 48,
      "start": 43.2969,
      "duration": 0.0161,
      "velocity": 100,
      "chip": "ym2612"
    },
    {
      "channel": 1,
      "note": 105,
      "start": 43.3051,
      "duration": 0.0178,
      "velocity": 124,
      "chip": "ym2612"
    },
    {
      "channel": 0,
      "note": 68,
      "start": 43.3068,
      "duration": 0.0196,
      "velocity": 115,
      "chip": "ym2612"
    },
    {
      "channel": 4,
      "note": 93,
      "start": 43.3079,
      "duration": 0.022,
      "velocity": 94,
      "chip": "ym2612"
    },
    {
      "channel": 3,
      "note": 93,
      "start": 43.3091,
      "duration": 0.0221,
      "velocity": 94,
      "chip": "ym2612"
    },
    {
      "channel": 2,
      "note": 48,
      "start": 43.313,
      "duration": 0.0197,
      "velocity": 100,
      "chip": "ym2612"
    },
    {
      "channel": 1,
      "note": 64,
      "start": 43.3229,
      "duration": 0.0144,
      "velocity": 124,
      "chip": "ym2612"
    },
    {
      "channel": 0,
      "note": 36,
      "start": 43.3264,
      "duration": 0.0127,
      "velocity": 115,
      "chip": "ym2612"
    },
    {
      "channel": 4,
      "note": 93,
      "start": 43.33,
      "duration": 0.0103,
      "velocity": 94,
      "chip": "ym2612"
    },
    {
      "channel": 3,
      "note": 93,
      "start": 43.3312,
      "duration": 0.0102,
      "velocity": 94,
      "chip": "ym2612"
    },
    {
      "channel": 2,
      "note": 57,
      "start": 43.3326,
      "duration": 0.01,
      "velocity": 100,
      "chip": "ym2612"
    },
    {
      "channel": 1,
      "note": 64,
      "start": 43.3374,
      "duration": 0.016,
      "velocity": 124,
      "chip": "ym2612"
    },
    {
      "channel": 0,
      "note": 36,
      "start": 43.3391,
      "duration": 0.016,
      "velocity": 115,
      "chip": "ym2612"
    },
    {
      "channel": 4,
      "note": 93,
      "start": 43.3402,
      "duration": 0.016,
      "velocity": 94,
      "chip": "ym2612"
    },
    {
      "channel": 3,
      "note": 93,
      "start": 43.3415,
      "duration": 0.0159,
      "velocity": 94,
      "chip": "ym2612"
    },
    {
      "channel": 2,
      "note": 57,
      "start": 43.3427,
      "duration": 0.0158,
      "velocity": 100,
      "chip": "ym2612"
    },
    {
      "channel": 1,
      "note": 64,
      "start": 43.3534,
      "duration": 0.0161,
      "velocity": 124,
      "chip": "ym2612"
    },
    {
      "channel": 0,
      "note": 37,
      "start": 43.3551,
      "duration": 0.0161,
      "velocity": 115,
      "chip": "ym2612"
    },
    {
      "channel": 4,
      "note": 93,
      "start": 43.3562,
      "duration": 0.0162,
      "velocity": 94,
      "chip": "ym2612"
    },
    {
      "channel": 3,
      "note": 93,
      "start": 43.3574,
      "duration": 0.0161,
      "velocity": 94,
      "chip": "ym2612"
    },
    {
      "channel": 2,
      "note": 57,
      "start": 43.3585,
      "duration": 0.0161,
      "velocity": 100,
      "chip": "ym2612"
    },
    {
      "channel": 1,
      "note": 64,
      "start": 43.3695,
      "duration": 0.0161,
      "velocity": 124,
      "chip": "ym2612"
    },
    {
      "channel": 0,
      "note": 37,
      "start": 43.3712,
      "duration": 0.0161,
      "velocity": 115,
      "chip": "ym2612"
    },
    {
      "channel": 4,
      "note": 93,
      "start": 43.3724,
      "duration": 0.0161,
      "velocity": 94,
      "chip": "ym2612"
    },
    {
      "channel": 3,
      "note": 93,
      "start": 43.3735,
      "duration": 0.0161,
      "velocity": 94,
      "chip": "ym2612"
    },
    {
      "channel": 2,
      "note": 57,
      "start": 43.3746,
      "duration": 0.0161,
      "velocity": 100,
      "chip": "ym2612"
    },
    {
      "channel": 1,
      "note": 64,
      "start": 43.3856,
      "duration": 0.0161,
      "velocity": 124,
      "chip": "ym2612"
    },
    {
      "channel": 0,
      "note": 38,
      "start": 43.3873,
      "duration": 0.0161,
      "velocity": 115,
      "chip": "ym2612"
    },
    {
      "channel": 4,
      "note": 93,
      "start": 43.3885,
      "duration": 0.0161,
      "velocity": 94,
      "chip": "ym2612"
    },
    {
      "channel": 3,
      "note": 93,
      "start": 43.3895,
      "duration": 0.0161,
      "velocity": 94,
      "chip": "ym2612"
    },
    {
      "channel": 2,
      "note": 57,
      "start": 43.3907,
      "duration": 0.0161,
      "velocity": 100,
      "chip": "ym2612"
    },
    {
      "channel": 1,
      "note": 64,
      "start": 43.4017,
      "duration": 0.0161,
      "velocity": 124,
      "chip": "ym2612"
    },
    {
      "channel": 0,
      "note": 38,
      "start": 43.4034,
      "duration": 0.0162,
      "velocity": 115,
      "chip": "ym2612"
    },
    {
      "channel": 4,
      "note": 93,
      "start": 43.4046,
      "duration": 0.0161,
      "velocity": 94,
      "chip": "ym2612"
    },
    {
      "channel": 3,
      "note": 93,
      "start": 43.4056,
      "duration": 0.0162,
      "velocity": 94,
      "chip": "ym2612"
    },
    {
      "channel": 2,
      "note": 57,
      "start": 43.4068,
      "duration": 0.0161,
      "velocity": 100,
      "chip": "ym2612"
    },
    {
      "channel": 1,
      "note": 64,
      "start": 43.4178,
      "duration": 0.0178,
      "velocity": 105,
      "chip": "ym2612"
    },
    {
      "channel": 0,
      "note": 39,
      "start": 43.4195,
      "duration": 0.0178,
      "velocity": 115,
      "chip": "ym2612"
    },
    {
      "channel": 4,
      "note": 93,
      "start": 43.4207,
      "duration": 0.0181,
      "velocity": 94,
      "chip": "ym2612"
    },
    {
      "channel": 3,
      "note": 93,
      "start": 43.4218,
      "duration": 0.0182,
      "velocity": 94,
      "chip": "ym2612"
    },
    {
      "channel": 2,
      "note": 57,
      "start": 43.4229,
      "duration": 0.0185,
      "velocity": 100,
      "chip": "ym2612"
    },
    {
      "channel": 1,
      "note": 105,
      "start": 43.4356,
      "duration": 0.0144,
      "velocity": 105,
      "chip": "ym2612"
    },
    {
      "channel": 0,
      "note": 39,
      "start": 43.4373,
      "duration": 0.0144,
      "velocity": 115,
      "chip": "ym2612"
    },
    {
      "channel": 4,
      "note": 76,
      "start": 43.4388,
      "duration": 0.0141,
      "velocity": 94,
      "chip": "ym2612"
    },
    {
      "channel": 3,
      "note": 93,
      "start": 43.44,
      "duration": 0.0141,
      "velocity": 94,
      "chip": "ym2612"
    },
    {
      "channel": 2,
      "note": 57,
      "start": 43.4414,
      "duration": 0.0139,
      "velocity": 100,
      "chip": "ym2612"
    },
    {
      "channel": 1,
      "note": 105,
      "start": 43.45,
      "duration": 0.0161,
      "velocity": 105,
      "chip": "ym2612"
    },
    {
      "channel": 0,
      "note": 40,
      "start": 43.4517,
      "duration": 0.0161,
      "velocity": 115,
      "chip": "ym2612"
    },
    {
      "channel": 4,
      "note": 76,
      "start": 43.453,
      "duration": 0.016,
      "velocity": 94,
      "chip": "ym2612"
    },
    {
      "channel": 3,
      "note": 93,
      "start": 43.4541,
      "duration": 0.016,
      "velocity": 94,
      "chip": "ym2612"
    },
    {
      "channel": 2,
      "note": 57,
      "start": 43.4553,
      "duration": 0.016,
      "velocity": 100,
      "chip": "ym2612"
    },
    {
      "channel": 1,
      "note": 105,
      "start": 43.4661,
      "duration": 0.0161,
      "velocity": 105,
      "chip": "ym2612"
    },
    {
      "channel": 0,
      "note": 40,
      "start": 43.4678,
      "duration": 0.0161,
      "velocity": 115,
      "chip": "ym2612"
    },
    {
      "channel": 4,
      "note": 76,
      "start": 43.4689,
      "duration": 0.0161,
      "velocity": 94,
      "chip": "ym2612"
    },
    {
      "channel": 3,
      "note": 93,
      "start": 43.4701,
      "duration": 0.0161,
      "velocity": 94,
      "chip": "ym2612"
    },
    {
      "channel": 2,
      "note": 57,
      "start": 43.4712,
      "duration": 0.0161,
      "velocity": 100,
      "chip": "ym2612"
    },
    {
      "channel": 1,
      "note": 105,
      "start": 43.4822,
      "duration": 0.0161,
      "velocity": 105,
      "chip": "ym2612"
    },
    {
      "channel": 0,
      "note": 40,
      "start": 43.4839,
      "duration": 0.0161,
      "velocity": 115,
      "chip": "ym2612"
    },
    {
      "channel": 4,
      "note": 76,
      "start": 43.485,
      "duration": 0.0161,
      "velocity": 94,
      "chip": "ym2612"
    },
    {
      "channel": 3,
      "note": 93,
      "start": 43.4862,
      "duration": 0.0161,
      "velocity": 94,
      "chip": "ym2612"
    },
    {
      "channel": 2,
      "note": 57,
      "start": 43.4873,
      "duration": 0.0161,
      "velocity": 100,
      "chip": "ym2612"
    },
    {
      "channel": 1,
      "note": 105,
      "start": 43.4983,
      "duration": 0.0161,
      "velocity": 105,
      "chip": "ym2612"
    },
    {
      "channel": 0,
      "note": 41,
      "start": 43.5,
      "duration": 0.0161,
      "velocity": 115,
      "chip": "ym2612"
    },
    {
      "channel": 4,
      "note": 76,
      "start": 43.5011,
      "duration": 0.0161,
      "velocity": 94,
      "chip": "ym2612"
    },
    {
      "channel": 3,
      "note": 93,
      "start": 43.5023,
      "duration": 0.0161,
      "velocity": 94,
      "chip": "ym2612"
    },
    {
      "channel": 2,
      "note": 57,
      "start": 43.5034,
      "duration": 0.0161,
      "velocity": 100,
      "chip": "ym2612"
    },
    {
      "channel": 1,
      "note": 105,
      "start": 43.5144,
      "duration": 0.0161,
      "velocity": 105,
      "chip": "ym2612"
    },
    {
      "channel": 0,
      "note": 41,
      "start": 43.5161,
      "duration": 0.0161,
      "velocity": 115,
      "chip": "ym2612"
    },
    {
      "channel": 4,
      "note": 76,
      "start": 43.5172,
      "duration": 0.0161,
      "velocity": 94,
      "chip": "ym2612"
    },
    {
      "channel": 3,
      "note": 93,
      "start": 43.5184,
      "duration": 0.0162,
      "velocity": 94,
      "chip": "ym2612"
    },
    {
      "channel": 2,
      "note": 57,
      "start": 43.5195,
      "duration": 0.0161,
      "velocity": 100,
      "chip": "ym2612"
    },
    {
      "channel": 1,
      "note": 105,
      "start": 43.5305,
      "duration": 0.0178,
      "velocity": 124,
      "chip": "ym2612"
    },
    {
      "channel": 0,
      "note": 42,
      "start": 43.5322,
      "duration": 0.0179,
      "velocity": 115,
      "chip": "ym2612"
    },
    {
      "channel": 4,
      "note": 76,
      "start": 43.5334,
      "duration": 0.0179,
      "velocity": 94,
      "chip": "ym2612"
    },
    {
      "channel": 3,
      "note": 93,
      "start": 43.5345,
      "duration": 0.0183,
      "velocity": 94,
      "chip": "ym2612"
    },
    {
      "channel": 2,
      "note": 57,
      "start": 43.5356,
      "duration": 0.0186,
      "velocity": 100,
      "chip": "ym2612"
    },
    {
      "channel": 1,
      "note": 64,
      "start": 43.5484,
      "duration": 0.0156,
      "velocity": 124,
      "chip": "ym2612"
    },
    {
      "channel": 0,
      "note": 42,
      "start": 43.55,
      "duration": 0.0156,
      "velocity": 115,
      "chip": "ym2612"
    },
    {
      "channel": 4,
      "note": 76,
      "start": 43.5513,
      "duration": 0.0156,
      "velocity": 94,
      "chip": "ym2612"
    },
    {
      "channel": 3,
      "note": 76,
      "start": 43.5529,
      "duration": 0.0153,
      "velocity": 94,
      "chip": "ym2612"
    },
    {
      "channel": 2,
      "note": 57,
      "start": 43.5543,
      "duration": 0.015,
      "velocity": 100,
      "chip": "ym2612"
    },
    {
      "channel": 1,
      "note": 64,
      "start": 43.564,
      "duration": 0.0166,
      "velocity": 124,
      "chip": "ym2612"
    },
    {
      "channel": 0,
      "note": 43,
      "start": 43.5657,
      "duration": 0.0166,
      "velocity": 115,
      "chip": "ym2612"
    },
    {
      "channel": 4,
      "note": 76,
      "start": 43.5669,
      "duration": 0.0165,
      "velocity": 94,
      "chip": "ym2612"
    },
    {
      "channel": 3,
      "note": 76,
      "start": 43.5681,
      "duration": 0.0165,
      "velocity": 94,
      "chip": "ym2612"
    },
    {
      "channel": 2,
      "note": 57,
      "start": 43.5693,
      "duration": 0.0164,
      "velocity": 100,
      "chip": "ym2612"
    },
    {
      "channel": 1,
      "note": 64,
      "start": 43.5807,
      "duration": 0.0163,
      "velocity": 124,
      "chip": "ym2612"
    },
    {
      "channel": 0,
      "note": 43,
      "start": 43.5823,
      "duration": 0.0163,
      "velocity": 115,
      "chip": "ym2612"
    },
    {
      "channel": 4,
      "note": 76,
      "start": 43.5834,
      "duration": 0.0163,
      "velocity": 94,
      "chip": "ym2612"
    },
    {
      "channel": 3,
      "note": 76,
      "start": 43.5846,
      "duration": 0.0163,
      "velocity": 94,
      "chip": "ym2612"
    },
    {
      "channel": 2,
      "note": 57,
      "start": 43.5857,
      "duration": 0.0163,
      "velocity": 100,
      "chip": "ym2612"
    },
    {
      "channel": 1,
      "note": 64,
      "start": 43.5969,
      "duration": 0.0144,
      "velocity": 124,
      "chip": "ym2612"
    },
    {
      "channel": 0,
      "note": 44,
      "start": 43.5986,
      "duration": 0.0144,
      "velocity": 115,
      "chip": "ym2612"
    },
    {
      "channel": 4,
      "note": 76,
      "start": 43.5998,
      "duration": 0.0144,
      "velocity": 94,
      "chip": "ym2612"
    },
    {
      "channel": 3,
      "note": 76,
      "start": 43.6009,
      "duration": 0.0144,
      "velocity": 94,
      "chip": "ym2612"
    },
    {
      "channel": 2,
      "note": 57,
      "start": 43.602,
      "duration": 0.0144,
      "velocity": 100,
      "chip": "ym2612"
    },
    {
      "channel": 1,
      "note": 64,
      "start": 43.6114,
      "duration": 0.0185,
      "velocity": 124,
      "chip": "ym2612"
    },
    {
      "channel": 0,
      "note": 44,
      "start": 43.613,
      "duration": 0.0185,
      "velocity": 115,
      "chip": "ym2612"
    },
    {
      "channel": 4,
      "note": 76,
      "start": 43.6142,
      "duration": 0.0186,
      "velocity": 94,
      "chip": "ym2612"
    },
    {
      "channel": 3,
      "note": 76,
      "start": 43.6153,
      "duration": 0.0186,
      "velocity": 94,
      "chip": "ym2612"
    },
    {
      "channel": 2,
      "note": 57,
      "start": 43.6165,
      "duration": 0.0185,
      "velocity": 100,
      "chip": "ym2612"
    },
    {
      "channel": 1,
      "note": 64,
      "start": 43.6299,
      "duration": 0.0161,
      "velocity": 124,
      "chip": "ym2612"
    },
    {
      "channel": 0,
      "note": 44,
      "start": 43.6315,
      "duration": 0.0161,
      "velocity": 115,
      "chip": "ym2612"
    },
    {
      "channel": 4,
      "note": 76,
      "start": 43.6327,
      "duration": 0.0161,
      "velocity": 94,
      "chip": "ym2612"
    },
    {
      "channel": 3,
      "note": 76,
      "start": 43.6339,
      "duration": 0.0161,
      "velocity": 94,
      "chip": "ym2612"
    },
    {
      "channel": 2,
      "note": 57,
      "start": 43.635,
      "duration": 0.0161,
      "velocity": 100,
      "chip": "ym2612"
    },
    {
      "channel": 1,
      "note": 64,
      "start": 43.646,
      "duration": 0.0174,
      "velocity": 105,
      "chip": "ym2612"
    },
    {
      "channel": 0,
      "note": 45,
      "start": 43.6476,
      "duration": 0.0175,
      "velocity": 115,
      "chip": "ym2612"
    },
    {
      "channel": 4,
      "note": 76,
      "start": 43.6488,
      "duration": 0.0176,
      "velocity": 94,
      "chip": "ym2612"
    },
    {
      "channel": 3,
      "note": 76,
      "start": 43.65,
      "duration": 0.0178,
      "velocity": 94,
      "chip": "ym2612"
    },
    {
      "channel": 2,
      "note": 57,
      "start": 43.6511,
      "duration": 0.0181,
      "velocity": 100,
      "chip": "ym2612"
    },
    {
      "channel": 1,
      "note": 105,
      "start": 43.6634,
      "duration": 0.0121,
      "velocity": 105,
      "chip": "ym2612"
    },
    {
      "channel": 0,
      "note": 45,
      "start": 43.6651,
      "duration": 0.0123,
      "velocity": 115,
      "chip": "ym2612"
    },
    {
      "channel": 4,
      "note": 76,
      "start": 43.6665,
      "duration": 0.0122,
      "velocity": 94,
      "chip": "ym2612"
    },
    {
      "channel": 3,
      "note": 76,
      "start": 43.6678,
      "duration": 0.0121,
      "velocity": 94,
      "chip": "ym2612"
    },
    {
      "channel": 2,
      "note": 57,
      "start": 43.6693,
      "duration": 0.0118,
      "velocity": 100,
      "chip": "ym2612"
    },
    {
      "channel": 1,
      "note": 105,
      "start": 43.6755,
      "duration": 0.016,
      "velocity": 105,
      "chip": "ym2612"
    },
    {
      "channel": 0,
      "note": 46,
      "start": 43.6775,
      "duration": 0.0185,
      "velocity": 115,
      "chip": "ym2612"
    },
    {
      "channel": 4,
      "note": 76,
      "start": 43.6787,
      "duration": 0.0184,
      "velocity": 94,
      "chip": "ym2612"
    },
    {
      "channel": 3,
      "note": 76,
      "start": 43.6799,
      "duration": 0.0184,
      "velocity": 94,
      "chip": "ym2612"
    },
    {
      "channel": 2,
      "note": 57,
      "start": 43.6811,
      "duration": 0.0183,
      "velocity": 100,
      "chip": "ym2612"
    },
    {
      "channel": 1,
      "note": 105,
      "start": 43.6915,
      "duration": 0.0161,
      "velocity": 105,
      "chip": "ym2612"
    },
    {
      "channel": 0,
      "note": 46,
      "start": 43.6959,
      "duration": 0.0134,
      "velocity": 115,
      "chip": "ym2612"
    },
    {
      "channel": 4,
      "note": 76,
      "start": 43.6971,
      "duration": 0.0161,
      "velocity": 94,
      "chip": "ym2612"
    },
    {
      "channel": 3,
      "note": 76,
      "start": 43.6983,
      "duration": 0.0161,
      "velocity": 94,
      "chip": "ym2612"
    },
    {
      "channel": 2,
      "note": 57,
      "start": 43.6993,
      "duration": 0.0162,
      "velocity": 100,
      "chip": "ym2612"
    },
    {
      "channel": 1,
      "note": 105,
      "start": 43.7076,
      "duration": 0.0161,
      "velocity": 105,
      "chip": "ym2612"
    },
    {
      "channel": 0,
      "note": 47,
      "start": 43.7093,
      "duration": 0.0161,
      "velocity": 115,
      "chip": "ym2612"
    },
    {
      "channel": 4,
      "note": 76,
      "start": 43.7132,
      "duration": 0.0157,
      "velocity": 94,
      "chip": "ym2612"
    },
    {
      "channel": 3,
      "note": 76,
      "start": 43.7144,
      "duration": 0.0157,
      "velocity": 94,
      "chip": "ym2612"
    },
    {
      "channel": 2,
      "note": 57,
      "start": 43.7155,
      "duration": 0.0157,
      "velocity": 100,
      "chip": "ym2612"
    },
    {
      "channel": 1,
      "note": 105,
      "start": 43.7237,
      "duration": 0.0161,
      "velocity": 105,
      "chip": "ym2612"
    },
    {
      "channel": 0,
      "note": 47,
      "start": 43.7254,
      "duration": 0.0161,
      "velocity": 115,
      "chip": "ym2612"
    },
    {
      "channel": 4,
      "note": 76,
      "start": 43.7289,
      "duration": 0.0137,
      "velocity": 94,
      "chip": "ym2612"
    },
    {
      "channel": 3,
      "note": 76,
      "start": 43.7301,
      "duration": 0.0141,
      "velocity": 94,
      "chip": "ym2612"
    },
    {
      "channel": 2,
      "note": 57,
      "start": 43.7312,
      "duration": 0.014,
      "velocity": 100,
      "chip": "ym2612"
    },
    {
      "channel": 1,
      "note": 105,
      "start": 43.7398,
      "duration": 0.0161,
      "velocity": 105,
      "chip": "ym2612"
    },
    {
      "channel": 0,
      "note": 47,
      "start": 43.7415,
      "duration": 0.0162,
      "velocity": 115,
      "chip": "ym2612"
    },
    {
      "channel": 4,
      "note": 76,
      "start": 43.7427,
      "duration": 0.0161,
      "velocity": 94,
      "chip": "ym2612"
    },
    {
      "channel": 3,
      "note": 76,
      "start": 43.7441,
      "duration": 0.0185,
      "velocity": 94,
      "chip": "ym2612"
    },
    {
      "channel": 2,
      "note": 57,
      "start": 43.7452,
      "duration": 0.0186,
      "velocity": 100,
      "chip": "ym2612"
    },
    {
      "channel": 1,
      "note": 105,
      "start": 43.7559,
      "duration": 0.0184,
      "velocity": 124,
      "chip": "ym2612"
    },
    {
      "channel": 0,
      "note": 48,
      "start": 43.7576,
      "duration": 0.0218,
      "velocity": 115,
      "chip": "ym2612"
    },
    {
      "channel": 4,
      "note": 76,
      "start": 43.7588,
      "duration": 0.022,
      "velocity": 94,
      "chip": "ym2612"
    },
    {
      "channel": 3,
      "note": 76,
      "start": 43.7627,
      "duration": 0.0195,
      "velocity": 94,
      "chip": "ym2612"
    },
    {
      "channel": 2,
      "note": 57,
      "start": 43.7638,
      "duration": 0.0198,
      "velocity": 100,
      "chip": "ym2612"
    },
    {
      "channel": 1,
      "note": 78,
      "start": 43.7743,
      "duration": 0.0144,
      "velocity": 124,
      "chip": "ym2612"
    },
    {
      "channel": 0,
      "note": 48,
      "start": 43.7794,
      "duration": 0.0111,
      "velocity": 115,
      "chip": "ym2612"
    },
    {
      "channel": 4,
      "note": 76,
      "start": 43.7808,
      "duration": 0.0111,
      "velocity": 94,
      "chip": "ym2612"
    },
    {
      "channel": 3,
      "note": 76,
      "start": 43.7822,
      "duration": 0.0109,
      "velocity": 94,
      "chip": "ym2612"
    },
    {
      "channel": 2,
      "note": 57,
      "start": 43.7836,
      "duration": 0.013,
      "velocity": 100,
      "chip": "ym2612"
    },
    {
      "channel": 1,
      "note": 76,
      "start": 43.7887,
      "duration": 0.0161,
      "velocity": 124,
      "chip": "ym2612"
    },
    {
      "channel": 0,
      "note": 49,
      "start": 43.7906,
      "duration": 0.0153,
      "velocity": 1,
      "chip": "ym2612"
    },
    {
      "channel": 4,
      "note": 76,
      "start": 43.7918,
      "duration": 0.0151,
      "velocity": 94,
      "chip": "ym2612"
    },
    {
      "channel": 3,
      "note": 76,
      "start": 43.7931,
      "duration": 0.0151,
      "velocity": 94,
      "chip": "ym2612"
    },
    {
      "channel": 2,
      "note": 57,
      "start": 43.7966,
      "duration": 0.0127,
      "velocity": 100,
      "chip": "ym2612"
    },
    {
      "channel": 1,
      "note": 75,
      "start": 43.8048,
      "duration": 0.0161,
      "velocity": 124,
      "chip": "ym2612"
    },
    {
      "channel": 4,
      "note": 76,
      "start": 43.807,
      "duration": 0.0153,
      "velocity": 94,
      "chip": "ym2612"
    },
    {
      "channel": 3,
      "note": 76,
      "start": 43.8081,
      "duration": 0.0153,
      "velocity": 94,
      "chip": "ym2612"
    },
    {
      "channel": 2,
      "note": 57,
      "start": 43.8093,
      "duration": 0.0152,
      "velocity": 100,
      "chip": "ym2612"
    },
    {
      "channel": 1,
      "note": 74,
      "start": 43.8209,
      "duration": 0.0161,
      "velocity": 124,
      "chip": "ym2612"
    },
    {
      "channel": 4,
      "note": 76,
      "start": 43.8222,
      "duration": 0.0161,
      "velocity": 94,
      "chip": "ym2612"
    },
    {
      "channel": 3,
      "note": 76,
      "start": 43.8234,
      "duration": 0.0161,
      "velocity": 94,
      "chip": "ym2612"
    },
    {
      "channel": 2,
      "note": 57,
      "start": 43.8245,
      "duration": 0.0161,
      "velocity": 100,
      "chip": "ym2612"
    },
    {
      "channel": 1,
      "note": 72,
      "start": 43.8369,
      "duration": 0.0161,
      "velocity": 124,
      "chip": "ym2612"
    },
    {
      "channel": 4,
      "note": 76,
      "start": 43.8383,
      "duration": 0.0161,
      "velocity": 94,
      "chip": "ym2612"
    },
    {
      "channel": 3,
      "note": 76,
      "start": 43.8395,
      "duration": 0.0161,
      "velocity": 94,
      "chip": "ym2612"
    },
    {
      "channel": 2,
      "note": 57,
      "start": 43.8406,
      "duration": 0.0162,
      "velocity": 100,
      "chip": "ym2612"
    },
    {
      "channel": 1,
      "note": 71,
      "start": 43.853,
      "duration": 0.0161,
      "velocity": 124,
      "chip": "ym2612"
    },
    {
      "channel": 4,
      "note": 76,
      "start": 43.8544,
      "duration": 0.0161,
      "velocity": 94,
      "chip": "ym2612"
    },
    {
      "channel": 3,
      "note": 76,
      "start": 43.8556,
      "duration": 0.0161,
      "velocity": 94,
      "chip": "ym2612"
    },
    {
      "channel": 2,
      "note": 57,
      "start": 43.8567,
      "duration": 0.0161,
      "velocity": 100,
      "chip": "ym2612"
    },
    {
      "channel": 1,
      "note": 70,
      "start": 43.8691,
      "duration": 0.0161,
      "velocity": 124,
      "chip": "ym2612"
    },
    {
      "channel": 4,
      "note": 76,
      "start": 43.8705,
      "duration": 0.0168,
      "velocity": 94,
      "chip": "ym2612"
    },
    {
      "channel": 3,
      "note": 76,
      "start": 43.8717,
      "duration": 0.017,
      "velocity": 94,
      "chip": "ym2612"
    },
    {
      "channel": 2,
      "note": 57,
      "start": 43.8728,
      "duration": 0.0172,
      "velocity": 100,
      "chip": "ym2612"
    },
    {
      "channel": 1,
      "note": 69,
      "start": 43.8852,
      "duration": 0.0161,
      "velocity": 124,
      "chip": "ym2612"
    },
    {
      "channel": 4,
      "note": 79,
      "start": 43.8874,
      "duration": 0.0155,
      "velocity": 94,
      "chip": "ym2612"
    },
    {
      "channel": 3,
      "note": 76,
      "start": 43.8887,
      "duration": 0.0153,
      "velocity": 94,
      "chip": "ym2612"
    },
    {
      "channel": 2,
      "note": 57,
      "start": 43.8901,
      "duration": 0.0151,
      "velocity": 100,
      "chip": "ym2612"
    },
    {
      "channel": 1,
      "note": 68,
      "start": 43.9013,
      "duration": 0.0161,
      "velocity": 124,
      "chip": "ym2612"
    },
    {
      "channel": 4,
      "note": 79,
      "start": 43.9029,
      "duration": 0.016,
      "velocity": 94,
      "chip": "ym2612"
    },
    {
      "channel": 3,
      "note": 76,
      "start": 43.904,
      "duration": 0.016,
      "velocity": 94,
      "chip": "ym2612"
    },
    {
      "channel": 2,
      "note": 57,
      "start": 43.9052,
      "duration": 0.0159,
      "velocity": 100,
      "chip": "ym2612"
    },
    {
      "channel": 1,
      "note": 66,
      "start": 43.9174,
      "duration": 0.0161,
      "velocity": 124,
      "chip": "ym2612"
    },
    {
      "channel": 4,
      "note": 79,
      "start": 43.9188,
      "duration": 0.0161,
      "velocity": 94,
      "chip": "ym2612"
    },
    {
      "channel": 3,
      "note": 76,
      "start": 43.92,
      "duration": 0.0161,
      "velocity": 94,
      "chip": "ym2612"
    },
    {
      "channel": 2,
      "note": 57,
      "start": 43.9211,
      "duration": 0.0161,
      "velocity": 100,
      "chip": "ym2612"
    },
    {
      "channel": 1,
      "note": 65,
      "start": 43.9335,
      "duration": 0.0161,
      "velocity": 124,
      "chip": "ym2612"
    },
    {
      "channel": 4,
      "note": 79,
      "start": 43.9349,
      "duration": 0.0161,
      "velocity": 94,
      "chip": "ym2612"
    },
    {
      "channel": 3,
      "note": 76,
      "start": 43.9361,
      "duration": 0.0161,
      "velocity": 94,
      "chip": "ym2612"
    },
    {
      "channel": 2,
      "note": 57,
      "start": 43.9372,
      "duration": 0.0161,
      "velocity": 100,
      "chip": "ym2612"
    },
    {
      "channel": 1,
      "note": 64,
      "start": 43.9497,
      "duration": 0.0161,
      "velocity": 124,
      "chip": "ym2612"
    },
    {
      "channel": 4,
      "note": 79,
      "start": 43.951,
      "duration": 0.0162,
      "velocity": 94,
      "chip": "ym2612"
    },
    {
      "channel": 3,
      "note": 76,
      "start": 43.9522,
      "duration": 0.0161,
      "velocity": 94,
      "chip": "ym2612"
    },
    {
      "channel": 2,
      "note": 57,
      "start": 43.9533,
      "duration": 0.0161,
      "velocity": 100,
      "chip": "ym2612"
    },
    {
      "channel": 1,
      "note": 62,
      "start": 43.9658,
      "duration": 0.0161,
      "velocity": 124,
      "chip": "ym2612"
    },
    {
      "channel": 4,
      "note": 79,
      "start": 43.9672,
      "duration": 0.0161,
      "velocity": 94,
      "chip": "ym2612"
    },
    {
      "channel": 3,
      "note": 76,
      "start": 43.9683,
      "duration": 0.0161,
      "velocity": 94,
      "chip": "ym2612"
    },
    {
      "channel": 2,
      "note": 57,
      "start": 43.9694,
      "duration": 0.0161,
      "velocity": 100,
      "chip": "ym2612"
    },
    {
      "channel": 1,
      "note": 61,
      "start": 43.9819,
      "duration": 0.0161,
      "velocity": 124,
      "chip": "ym2612"
    },
    {
      "channel": 4,
      "note": 79,
      "start": 43.9833,
      "duration": 0.0167,
      "velocity": 94,
      "chip": "ym2612"
    },
    {
      "channel": 3,
      "note": 76,
      "start": 43.9843,
      "duration": 0.017,
      "velocity": 94,
      "chip": "ym2612"
    },
    {
      "channel": 2,
      "note": 57,
      "start": 43.9855,
      "duration": 0.0173,
      "velocity": 100,
      "chip": "ym2612"
    },
    {
      "channel": 1,
      "note": 60,
      "start": 43.998,
      "duration": 0.0161,
      "velocity": 124,
      "chip": "ym2612"
    },
    {
      "channel": 4,
      "note": 79,
      "start": 44.0,
      "duration": 0.0155,
      "velocity": 94,
      "chip": "ym2612"
    },
    {
      "channel": 3,
      "note": 79,
      "start": 44.0014,
      "duration": 0.0153,
      "velocity": 94,
      "chip": "ym2612"
    },
    {
      "channel": 2,
      "note": 57,
      "start": 44.0029,
      "duration": 0.0151,
      "velocity": 100,
      "chip": "ym2612"
    },
    {
      "channel": 1,
      "note": 59,
      "start": 44.014,
      "duration": 0.0171,
      "velocity": 124,
      "chip": "ym2612"
    },
    {
      "channel": 4,
      "note": 79,
      "start": 44.0155,
      "duration": 0.017,
      "velocity": 94,
      "chip": "ym2612"
    },
    {
      "channel": 3,
      "note": 79,
      "start": 44.0167,
      "duration": 0.0169,
      "velocity": 94,
      "chip": "ym2612"
    },
    {
      "channel": 2,
      "note": 57,
      "start": 44.0179,
      "duration": 0.0168,
      "velocity": 100,
      "chip": "ym2612"
    },
    {
      "channel": 1,
      "note": 57,
      "start": 44.0311,
      "duration": 0.0167,
      "velocity": 124,
      "chip": "ym2612"
    },
    {
      "channel": 4,
      "note": 79,
      "start": 44.0325,
      "duration": 0.0167,
      "velocity": 94,
      "chip": "ym2612"
    },
    {
      "channel": 3,
      "note": 79,
      "start": 44.0336,
      "duration": 0.0167,
      "velocity": 94,
      "chip": "ym2612"
    },
    {
      "channel": 2,
      "note": 57,
      "start": 44.0348,
      "duration": 0.0167,
      "velocity": 100,
      "chip": "ym2612"
    },
    {
      "channel": 1,
      "note": 56,
      "start": 44.0478,
      "duration": 0.0163,
      "velocity": 124,
      "chip": "ym2612"
    },
    {
      "channel": 4,
      "note": 79,
      "start": 44.0492,
      "duration": 0.0163,
      "velocity": 94,
      "chip": "ym2612"
    },
    {
      "channel": 3,
      "note": 79,
      "start": 44.0503,
      "duration": 0.0163,
      "velocity": 94,
      "chip": "ym2612"
    },
    {
      "channel": 2,
      "note": 57,
      "start": 44.0515,
      "duration": 0.0163,
      "velocity": 100,
      "chip": "ym2612"
    },
    {
      "channel": 1,
      "note": 55,
      "start": 44.0641,
      "duration": 0.0146,
      "velocity": 124,
      "chip": "ym2612"
    },
    {
      "channel": 4,
      "note": 79,
      "start": 44.0655,
      "duration": 0.0146,
      "velocity": 94,
      "chip": "ym2612"
    },
    {
      "channel": 3,
      "note": 79,
      "start": 44.0666,
      "duration": 0.0146,
      "velocity": 94,
      "chip": "ym2612"
    },
    {
      "channel": 2,
      "note": 57,
      "start": 44.0677,
      "duration": 0.0146,
      "velocity": 100,
      "chip": "ym2612"
    },
    {
      "channel": 1,
      "note": 53,
      "start": 44.0787,
      "duration": 0.0186,
      "velocity": 124,
      "chip": "ym2612"
    },
    {
      "channel": 4,
      "note": 79,
      "start": 44.0801,
      "duration": 0.0186,
      "velocity": 94,
      "chip": "ym2612"
    },
    {
      "channel": 3,
      "note": 79,
      "start": 44.0812,
      "duration": 0.0186,
      "velocity": 94,
      "chip": "ym2612"
    },
    {
      "channel": 2,
      "note": 57,
      "start": 44.0824,
      "duration": 0.0186,
      "velocity": 100,
      "chip": "ym2612"
    },
    {
      "channel": 1,
      "note": 52,
      "start": 44.0973,
      "duration": 0.0161,
      "velocity": 124,
      "chip": "ym2612"
    },
    {
      "channel": 4,
      "note": 79,
      "start": 44.0987,
      "duration": 0.0203,
      "velocity": 94,
      "chip": "ym2612"
    },
    {
      "channel": 3,
      "note": 79,
      "start": 44.0999,
      "duration": 0.0204,
      "velocity": 94,
      "chip": "ym2612"
    },
    {
      "channel": 2,
      "note": 57,
      "start": 44.101,
      "duration": 0.0207,
      "velocity": 100,
      "chip": "ym2612"
    },
    {
      "channel": 1,
      "note": 51,
      "start": 44.1134,
      "duration": 0.0125,
      "velocity": 1,
      "chip": "ym2612"
    },
    {
      "channel": 0,
      "note": 36,
      "start": 44.1176,
      "duration": 0.0146,
      "velocity": 115,
      "chip": "ym2612"
    },
    {
      "channel": 4,
      "note": 76,
      "start": 44.119,
      "duration": 0.0144,
      "velocity": 94,
      "chip": "ym2612"
    },
    {
      "channel": 3,
      "note": 79,
      "start": 44.1203,
      "duration": 0.0144,
      "velocity": 94,
      "chip": "ym2612"
    },
    {
      "channel": 2,
      "note": 57,
      "start": 44.1217,
      "duration": 0.0141,
      "velocity": 100,
      "chip": "ym2612"
    },
    {
      "channel": 1,
      "note": 51,
      "start": 44.1305,
      "duration": 0.0118,
      "velocity": 105,
      "chip": "ym2612"
    },
    {
      "channel": 0,
      "note": 36,
      "start": 44.1322,
      "duration": 0.0121,
      "velocity": 115,
      "chip": "ym2612"
    },
    {
      "channel": 4,
      "note": 76,
      "start": 44.1334,
      "duration": 0.0121,
      "velocity": 94,
      "chip": "ym2612"
    },
    {
      "channel": 3,
      "note": 79,
      "start": 44.1346,
      "duration": 0.012,
      "velocity": 94,
      "chip": "ym2612"
    },
    {
      "channel": 2,
      "note": 57,
      "start": 44.1358,
      "duration": 0.012,
      "velocity": 100,
      "chip": "ym2612"
    },
    {
      "channel": 1,
      "note": 105,
      "start": 44.1424,
      "duration": 0.0161,
      "velocity": 105,
      "chip": "ym2612"
    },
    {
      "channel": 0,
      "note": 37,
      "start": 44.1443,
      "duration": 0.0186,
      "velocity": 115,
      "chip": "ym2612"
    },
    {
      "channel": 4,
      "note": 76,
      "start": 44.1455,
      "duration": 0.0185,
      "velocity": 94,
      "chip": "ym2612"
    },
    {
      "channel": 3,
      "note": 79,
      "start": 44.1467,
      "duration": 0.0185,
      "velocity": 94,
      "chip": "ym2612"
    },
    {
      "channel": 2,
      "note": 57,
      "start": 44.1478,
      "duration": 0.0185,
      "velocity": 100,
      "chip": "ym2612"
    },
    {
      "channel": 1,
      "note": 105,
      "start": 44.1585,
      "duration": 0.0161,
      "velocity": 105,
      "chip": "ym2612"
    },
    {
      "channel": 0,
      "note": 37,
      "start": 44.1629,
      "duration": 0.0133,
      "velocity": 115,
      "chip": "ym2612"
    },
    {
      "channel": 4,
      "note": 76,
      "start": 44.164,
      "duration": 0.0161,
      "velocity": 94,
      "chip": "ym2612"
    },
    {
      "channel": 3,
      "note": 79,
      "start": 44.1652,
      "duration": 0.0161,
      "velocity": 94,
      "chip": "ym2612"
    },
    {
      "channel": 2,
      "note": 57,
      "start": 44.1663,
      "duration": 0.0161,
      "velocity": 100,
      "chip": "ym2612"
    },
    {
      "channel": 1,
      "note": 105,
      "start": 44.1745,
      "duration": 0.0161,
      "velocity": 105,
      "chip": "ym2612"
    },
    {
      "channel": 0,
      "note": 38,
      "start": 44.1762,
      "duration": 0.0161,
      "velocity": 115,
      "chip": "ym2612"
    },
    {
      "channel": 4,
      "note": 76,
      "start": 44.1801,
      "duration": 0.0157,
      "velocity": 94,
      "chip": "ym2612"
    },
    {
      "channel": 3,
      "note": 79,
      "start": 44.1813,
      "duration": 0.0157,
      "velocity": 94,
      "chip": "ym2612"
    },
    {
      "channel": 2,
      "note": 57,
      "start": 44.1824,
      "duration": 0.0157,
      "velocity": 100,
      "chip": "ym2612"
    },
    {
      "channel": 1,
      "note": 105,
      "start": 44.1906,
      "duration": 0.0162,
      "velocity": 105,
      "chip": "ym2612"
    },
    {
      "channel": 0,
      "note": 38,
      "start": 44.1923,
      "duration": 0.0162,
      "velocity": 115,
      "chip": "ym2612"
    },
    {
      "channel": 4,
      "note": 76,
      "start": 44.1959,
      "duration": 0.0137,
      "velocity": 94,
      "chip": "ym2612"
    },
    {
      "channel": 3,
      "note": 79,
      "start": 44.197,
      "duration": 0.0141,
      "velocity": 94,
      "chip": "ym2612"
    },
    {
      "channel": 2,
      "note": 57,
      "start": 44.1981,
      "duration": 0.0141,
      "velocity": 100,
      "chip": "ym2612"
    },
    {
      "channel": 1,
      "note": 105,
      "start": 44.2068,
      "duration": 0.0177,
      "velocity": 124,
      "chip": "ym2612"
    },
    {
      "channel": 0,
      "note": 39,
      "start": 44.2085,
      "duration": 0.0223,
      "velocity": 115,
      "chip": "ym2612"
    },
    {
      "channel": 4,
      "note": 76,
      "start": 44.2096,
      "duration": 0.0227,
      "velocity": 94,
      "chip": "ym2612"
    },
    {
      "channel": 3,
      "note": 79,
      "start": 44.2111,
      "duration": 0.0226,
      "velocity": 94,
      "chip": "ym2612"
    },
    {
      "channel": 2,
      "note": 57,
      "start": 44.2122,
      "duration": 0.0229,
      "velocity": 100,
      "chip": "ym2612"
    },
    {
      "channel": 1,
      "note": 64,
      "start": 44.2246,
      "duration": 0.0149,
      "velocity": 124,
      "chip": "ym2612"
    },
    {
      "channel": 0,
      "note": 36,
      "start": 44.2308,
      "duration": 0.0104,
      "velocity": 115,
      "chip": "ym2612"
    },
    {
      "channel": 4,
      "note": 79,
      "start": 44.2322,
      "duration": 0.0102,
      "velocity": 94,
      "chip": "ym2612"
    },
    {
      "channel": 3,
      "note": 76,
      "start": 44.2337,
      "duration": 0.0127,
      "velocity": 94,
      "chip": "ym2612"
    },
    {
      "channel": 2,
      "note": 57,
      "start": 44.2351,
      "duration": 0.0125,
      "velocity": 100,
      "chip": "ym2612"
    },
    {
      "channel": 1,
      "note": 64,
      "start": 44.2395,
      "duration": 0.0156,
      "velocity": 124,
      "chip": "ym2612"
    },
    {
      "channel": 0,
      "note": 36,
      "start": 44.2412,
      "duration": 0.0155,
      "velocity": 115,
      "chip": "ym2612"
    },
    {
      "channel": 4,
      "note": 79,
      "start": 44.2424,
      "duration": 0.0155,
      "velocity": 94,
      "chip": "ym2612"
    },
    {
      "channel": 3,
      "note": 76,
      "start": 44.2463,
      "duration": 0.0127,
      "velocity": 94,
      "chip": "ym2612"
    },
    {
      "channel": 2,
      "note": 57,
      "start": 44.2476,
      "duration": 0.015,
      "velocity": 100,
      "chip": "ym2612"
    },
    {
      "channel": 1,
      "note": 64,
      "start": 44.2551,
      "duration": 0.0161,
      "velocity": 124,
      "chip": "ym2612"
    },
    {
      "channel": 0,
      "note": 37,
      "start": 44.2567,
      "duration": 0.0161,
      "velocity": 115,
      "chip": "ym2612"
    },
    {
      "channel": 4,
      "note": 79,
      "start": 44.2579,
      "duration": 0.0161,
      "velocity": 94,
      "chip": "ym2612"
    },
    {
      "channel": 3,
      "note": 76,
      "start": 44.2591,
      "duration": 0.0161,
      "velocity": 94,
      "chip": "ym2612"
    },
    {
      "channel": 2,
      "note": 57,
      "start": 44.2626,
      "duration": 0.0137,
      "velocity": 100,
      "chip": "ym2612"
    },
    {
      "channel": 1,
      "note": 64,
      "start": 44.2712,
      "duration": 0.0161,
      "velocity": 124,
      "chip": "ym2612"
    },
    {
      "channel": 0,
      "note": 37,
      "start": 44.2728,
      "duration": 0.0161,
      "velocity": 115,
      "chip": "ym2612"
    },
    {
      "channel": 4,
      "note": 79,
      "start": 44.274,
      "duration": 0.0161,
      "velocity": 94,
      "chip": "ym2612"
    },
    {
      "channel": 3,
      "note": 76,
      "start": 44.2752,
      "duration": 0.0161,
      "velocity": 94,
      "chip": "ym2612"
    },
    {
      "channel": 2,
      "note": 57,
      "start": 44.2763,
      "duration": 0.0161,
      "velocity": 100,
      "chip": "ym2612"
    },
    {
      "channel": 1,
      "note": 64,
      "start": 44.2873,
      "duration": 0.0161,
      "velocity": 124,
      "chip": "ym2612"
    },
    {
      "channel": 0,
      "note": 38,
      "start": 44.2889,
      "duration": 0.0161,
      "velocity": 115,
      "chip": "ym2612"
    },
    {
      "channel": 4,
      "note": 79,
      "start": 44.2901,
      "duration": 0.0161,
      "velocity": 94,
      "chip": "ym2612"
    },
    {
      "channel": 3,
      "note": 76,
      "start": 44.2913,
      "duration": 0.0161,
      "velocity": 94,
      "chip": "ym2612"
    },
    {
      "channel": 2,
      "note": 57,
      "start": 44.2924,
      "duration": 0.0161,
      "velocity": 100,
      "chip": "ym2612"
    },
    {
      "channel": 1,
      "note": 64,
      "start": 44.3034,
      "duration": 0.0161,
      "velocity": 124,
      "chip": "ym2612"
    },
    {
      "channel": 0,
      "note": 38,
      "start": 44.305,
      "duration": 0.0162,
      "velocity": 115,
      "chip": "ym2612"
    },
    {
      "channel": 4,
      "note": 79,
      "start": 44.3062,
      "duration": 0.0161,
      "velocity": 94,
      "chip": "ym2612"
    },
    {
      "channel": 3,
      "note": 76,
      "start": 44.3074,
      "duration": 0.0161,
      "velocity": 94,
      "chip": "ym2612"
    },
    {
      "channel": 2,
      "note": 57,
      "start": 44.3085,
      "duration": 0.0161,
      "velocity": 100,
      "chip": "ym2612"
    },
    {
      "channel": 1,
      "note": 64,
      "start": 44.3195,
      "duration": 0.0178,
      "velocity": 105,
      "chip": "ym2612"
    },
    {
      "channel": 0,
      "note": 39,
      "start": 44.3212,
      "duration": 0.0178,
      "velocity": 115,
      "chip": "ym2612"
    },
    {
      "channel": 4,
      "note": 79,
      "start": 44.3223,
      "duration": 0.0179,
      "velocity": 94,
      "chip": "ym2612"
    },
    {
      "channel": 3,
      "note": 76,
      "start": 44.3235,
      "duration": 0.0181,
      "velocity": 94,
      "chip": "ym2612"
    },
    {
      "channel": 2,
      "note": 57,
      "start": 44.3246,
      "duration": 0.0185,
      "velocity": 100,
      "chip": "ym2612"
    },
    {
      "channel": 1,
      "note": 105,
      "start": 44.3373,
      "duration": 0.0144,
      "velocity": 105,
      "chip": "ym2612"
    },
    {
      "channel": 0,
      "note": 39,
      "start": 44.339,
      "duration": 0.0144,
      "velocity": 115,
      "chip": "ym2612"
    },
    {
      "channel": 4,
      "note": 79,
      "start": 44.3402,
      "duration": 0.0144,
      "velocity": 94,
      "chip": "ym2612"
    },
    {
      "channel": 3,
      "note": 79,
      "start": 44.3417,
      "duration": 0.0142,
      "velocity": 94,
      "chip": "ym2612"
    },
    {
      "channel": 2,
      "note": 57,
      "start": 44.3431,
      "duration": 0.0139,
      "velocity": 100,
      "chip": "ym2612"
    },
    {
      "channel": 1,
      "note": 105,
      "start": 44.3517,
      "duration": 0.0161,
      "velocity": 105,
      "chip": "ym2612"
    },
    {
      "channel": 0,
      "note": 40,
      "start": 44.3534,
      "duration": 0.016,
      "velocity": 115,
      "chip": "ym2612"
    },
    {
      "channel": 4,
      "note": 79,
      "start": 44.3546,
      "duration": 0.016,
      "velocity": 94,
      "chip": "ym2612"
    },
    {
      "channel": 3,
      "note": 79,
      "start": 44.3558,
      "duration": 0.0159,
      "velocity": 94,
      "chip": "ym2612"
    },
    {
      "channel": 2,
      "note": 57,
      "start": 44.357,
      "duration": 0.0159,
      "velocity": 100,
      "chip": "ym2612"
    },
    {
      "channel": 1,
      "note": 105,
      "start": 44.3678,
      "duration": 0.0161,
      "velocity": 105,
      "chip": "ym2612"
    },
    {
      "channel": 0,
      "note": 40,
      "start": 44.3695,
      "duration": 0.0161,
      "velocity": 115,
      "chip": "ym2612"
    },
    {
      "channel": 4,
      "note": 79,
      "start": 44.3706,
      "duration": 0.0161,
      "velocity": 94,
      "chip": "ym2612"
    },
    {
      "channel": 3,
      "note": 79,
      "start": 44.3717,
      "duration": 0.0161,
      "velocity": 94,
      "chip": "ym2612"
    },
    {
      "channel": 2,
      "note": 57,
      "start": 44.3729,
      "duration": 0.0161,
      "velocity": 100,
      "chip": "ym2612"
    },
    {
      "channel": 1,
      "note": 105,
      "start": 44.3839,
      "duration": 0.0161,
      "velocity": 105,
      "chip": "ym2612"
    },
    {
      "channel": 0,
      "note": 40,
      "start": 44.3856,
      "duration": 0.0161,
      "velocity": 115,
      "chip": "ym2612"
    },
    {
      "channel": 4,
      "note": 79,
      "start": 44.3867,
      "duration": 0.0161,
      "velocity": 94,
      "chip": "ym2612"
    },
    {
      "channel": 3,
      "note": 79,
      "start": 44.3878,
      "duration": 0.0161,
      "velocity": 94,
      "chip": "ym2612"
    },
    {
      "channel": 2,
      "note": 57,
      "start": 44.389,
      "duration": 0.0161,
      "velocity": 100,
      "chip": "ym2612"
    },
    {
      "channel": 1,
      "note": 105,
      "start": 44.4,
      "duration": 0.0161,
      "velocity": 105,
      "chip": "ym2612"
    },
    {
      "channel": 0,
      "note": 41,
      "start": 44.4016,
      "duration": 0.0161,
      "velocity": 115,
      "chip": "ym2612"
    },
    {
      "channel": 4,
      "note": 79,
      "start": 44.4028,
      "duration": 0.0161,
      "velocity": 94,
      "chip": "ym2612"
    },
    {
      "channel": 3,
      "note": 79,
      "start": 44.4039,
      "duration": 0.0161,
      "velocity": 94,
      "chip": "ym2612"
    },
    {
      "channel": 2,
      "note": 57,
      "start": 44.4051,
      "duration": 0.0161,
      "velocity": 100,
      "chip": "ym2612"
    },
    {
      "channel": 1,
      "note": 105,
      "start": 44.4161,
      "duration": 0.0161,
      "velocity": 105,
      "chip": "ym2612"
    },
    {
      "channel": 0,
      "note": 41,
      "start": 44.4177,
      "duration": 0.0161,
      "velocity": 115,
      "chip": "ym2612"
    },
    {
      "channel": 4,
      "note": 79,
      "start": 44.4189,
      "duration": 0.0161,
      "velocity": 94,
      "chip": "ym2612"
    },
    {
      "channel": 3,
      "note": 79,
      "start": 44.42,
      "duration": 0.0162,
      "velocity": 94,
      "chip": "ym2612"
    },
    {
      "channel": 2,
      "note": 57,
      "start": 44.4212,
      "duration": 0.0161,
      "velocity": 100,
      "chip": "ym2612"
    },
    {
      "channel": 1,
      "note": 105,
      "start": 44.4322,
      "duration": 0.0178,
      "velocity": 124,
      "chip": "ym2612"
    },
    {
      "channel": 0,
      "note": 42,
      "start": 44.4338,
      "duration": 0.0179,
      "velocity": 115,
      "chip": "ym2612"
    },
    {
      "channel": 4,
      "note": 79,
      "start": 44.435,
      "duration": 0.0181,
      "velocity": 94,
      "chip": "ym2612"
    },
    {
      "channel": 3,
      "note": 79,
      "start": 44.4362,
      "duration": 0.0182,
      "velocity": 94,
      "chip": "ym2612"
    },
    {
      "channel": 2,
      "note": 57,
      "start": 44.4373,
      "duration": 0.0185,
      "velocity": 100,
      "chip": "ym2612"
    },
    {
      "channel": 1,
      "note": 64,
      "start": 44.45,
      "duration": 0.0144,
      "velocity": 124,
      "chip": "ym2612"
    },
    {
      "channel": 0,
      "note": 42,
      "start": 44.4517,
      "duration": 0.0144,
      "velocity": 115,
      "chip": "ym2612"
    },
    {
      "channel": 4,
      "note": 76,
      "start": 44.4531,
      "duration": 0.0142,
      "velocity": 94,
      "chip": "ym2612"
    },
    {
      "channel": 3,
      "note": 79,
      "start": 44.4544,
      "duration": 0.0142,
      "velocity": 94,
      "chip": "ym2612"
    },
    {
      "channel": 2,
      "note": 57,
      "start": 44.4558,
      "duration": 0.0139,
      "velocity": 100,
      "chip": "ym2612"
    },
    {
      "channel": 1,
      "note": 64,
      "start": 44.4644,
      "duration": 0.016,
      "velocity": 124,
      "chip": "ym2612"
    },
    {
      "channel": 0,
      "note": 43,
      "start": 44.4661,
      "duration": 0.016,
      "velocity": 115,
      "chip": "ym2612"
    },
    {
      "channel": 4,
      "note": 76,
      "start": 44.4673,
      "duration": 0.016,
      "velocity": 94,
      "chip": "ym2612"
    },
    {
      "channel": 3,
      "note": 79,
      "start": 44.4686,
      "duration": 0.0159,
      "velocity": 94,
      "chip": "ym2612"
    },
    {
      "channel": 2,
      "note": 57,
      "start": 44.4697,
      "duration": 0.0159,
      "velocity": 100,
      "chip": "ym2612"
    },
    {
      "channel": 1,
      "note": 64,
      "start": 44.4805,
      "duration": 0.0169,
      "velocity": 124,
      "chip": "ym2612"
    },
    {
      "channel": 0,
      "note": 43,
      "start": 44.4822,
      "duration": 0.0168,
      "velocity": 115,
      "chip": "ym2612"
    },
    {
      "channel": 4,
      "note": 76,
      "start": 44.4833,
      "duration": 0.0169,
      "velocity": 94,
      "chip": "ym2612"
    },
    {
      "channel": 3,
      "note": 79,
      "start": 44.4845,
      "duration": 0.0168,
      "velocity": 94,
      "chip": "ym2612"
    },
    {
      "channel": 2,
      "note": 57,
      "start": 44.4856,
      "duration": 0.0168,
      "velocity": 100,
      "chip": "ym2612"
    },
    {
      "channel": 1,
      "note": 64,
      "start": 44.4973,
      "duration": 0.0167,
      "velocity": 124,
      "chip": "ym2612"
    },
    {
      "channel": 0,
      "note": 44,
      "start": 44.499,
      "duration": 0.0167,
      "velocity": 115,
      "chip": "ym2612"
    },
    {
      "channel": 4,
      "note": 76,
      "start": 44.5002,
      "duration": 0.0167,
      "velocity": 94,
      "chip": "ym2612"
    },
    {
      "channel": 3,
      "note": 79,
      "start": 44.5013,
      "duration": 0.0166,
      "velocity": 94,
      "chip": "ym2612"
    },
    {
      "channel": 2,
      "note": 57,
      "start": 44.5024,
      "duration": 0.0167,
      "velocity": 100,
      "chip": "ym2612"
    },
    {
      "channel": 1,
      "note": 64,
      "start": 44.514,
      "duration": 0.0163,
      "velocity": 124,
      "chip": "ym2612"
    },
    {
      "channel": 0,
      "note": 44,
      "start": 44.5156,
      "duration": 0.0163,
      "velocity": 115,
      "chip": "ym2612"
    },
    {
      "channel": 4,
      "note": 76,
      "start": 44.5168,
      "duration": 0.0163,
      "velocity": 94,
      "chip": "ym2612"
    },
    {
      "channel": 3,
      "note": 79,
      "start": 44.5179,
      "duration": 0.0163,
      "velocity": 94,
      "chip": "ym2612"
    },
    {
      "channel": 2,
      "note": 57,
      "start": 44.5191,
      "duration": 0.0163,
      "velocity": 100,
      "chip": "ym2612"
    },
    {
      "channel": 1,
      "note": 64,
      "start": 44.5303,
      "duration": 0.0147,
      "velocity": 124,
      "chip": "ym2612"
    },
    {
      "channel": 0,
      "note": 44,
      "start": 44.5319,
      "duration": 0.0147,
      "velocity": 115,
      "chip": "ym2612"
    },
    {
      "channel": 4,
      "note": 76,
      "start": 44.5331,
      "duration": 0.0147,
      "velocity": 94,
      "chip": "ym2612"
    },
    {
      "channel": 3,
      "note": 79,
      "start": 44.5343,
      "duration": 0.0147,
      "velocity": 94,
      "chip": "ym2612"
    },
    {
      "channel": 2,
      "note": 57,
      "start": 44.5354,
      "duration": 0.0147,
      "velocity": 100,
      "chip": "ym2612"
    },
    {
      "channel": 1,
      "note": 64,
      "start": 44.545,
      "duration": 0.0204,
      "velocity": 105,
      "chip": "ym2612"
    },
    {
      "channel": 0,
      "note": 45,
      "start": 44.5466,
      "duration": 0.0205,
      "velocity": 115,
      "chip": "ym2612"
    },
    {
      "channel": 4,
      "note": 76,
      "start": 44.5478,
      "duration": 0.0207,
      "velocity": 94,
      "chip": "ym2612"
    },
    {
      "channel": 3,
      "note": 79,
      "start": 44.549,
      "duration": 0.0209,
      "velocity": 94,
      "chip": "ym2612"
    },
    {
      "channel": 2,
      "note": 57,
      "start": 44.55,
      "duration": 0.0213,
      "velocity": 100,
      "chip": "ym2612"
    },
    {
      "channel": 1,
      "note": 105,
      "start": 44.5654,
      "duration": 0.0144,
      "velocity": 105,
      "chip": "ym2612"
    },
    {
      "channel": 0,
      "note": 45,
      "start": 44.5671,
      "duration": 0.0144,
      "velocity": 115,
      "chip": "ym2612"
    },
    {
      "channel": 4,
      "note": 79,
      "start": 44.5686,
      "duration": 0.0142,
      "velocity": 94,
      "chip": "ym2612"
    },
    {
      "channel": 3,
      "note": 76,
      "start": 44.57,
      "duration": 0.0141,
      "velocity": 94,
      "chip": "ym2612"
    },
    {
      "channel": 2,
      "note": 57,
      "start": 44.5714,
      "duration": 0.0138,
      "velocity": 100,
      "chip": "ym2612"
    },
    {
      "channel": 1,
      "note": 105,
      "start": 44.5799,
      "duration": 0.0156,
      "velocity": 105,
      "chip": "ym2612"
    },
    {
      "channel": 0,
      "note": 46,
      "start": 44.5815,
      "duration": 0.0157,
      "velocity": 115,
      "chip": "ym2612"
    },
    {
      "channel": 4,
      "note": 79,
      "start": 44.5828,
      "duration": 0.0156,
      "velocity": 94,
      "chip": "ym2612"
    },
    {
      "channel": 3,
      "note": 76,
      "start": 44.584,
      "duration": 0.0155,
      "velocity": 94,
      "chip": "ym2612"
    },
    {
      "channel": 2,
      "note": 57,
      "start": 44.5852,
      "duration": 0.0155,
      "velocity": 100,
      "chip": "ym2612"
    },
    {
      "channel": 1,
      "note": 105,
      "start": 44.5955,
      "duration": 0.0137,
      "velocity": 105,
      "chip": "ym2612"
    },
    {
      "channel": 0,
      "note": 46,
      "start": 44.5973,
      "duration": 0.014,
      "velocity": 115,
      "chip": "ym2612"
    },
    {
      "channel": 4,
      "note": 79,
      "start": 44.5984,
      "duration": 0.0141,
      "velocity": 94,
      "chip": "ym2612"
    },
    {
      "channel": 3,
      "note": 76,
      "start": 44.5995,
      "duration": 0.0141,
      "velocity": 94,
      "chip": "ym2612"
    },
    {
      "channel": 2,
      "note": 57,
      "start": 44.6007,
      "duration": 0.0141,
      "velocity": 100,
      "chip": "ym2612"
    },
    {
      "channel": 1,
      "note": 105,
      "start": 44.6093,
      "duration": 0.0161,
      "velocity": 105,
      "chip": "ym2612"
    },
    {
      "channel": 0,
      "note": 47,
      "start": 44.6112,
      "duration": 0.0186,
      "velocity": 115,
      "chip": "ym2612"
    },
    {
      "channel": 4,
      "note": 79,
      "start": 44.6124,
      "duration": 0.0185,
      "velocity": 94,
      "chip": "ym2612"
    },
    {
      "channel": 3,
      "note": 76,
      "start": 44.6136,
      "duration": 0.0185,
      "velocity": 94,
      "chip": "ym2612"
    },
    {
      "channel": 2,
      "note": 57,
      "start": 44.6147,
      "duration": 0.0185,
      "velocity": 100,
      "chip": "ym2612"
    },
    {
      "channel": 1,
      "note": 105,
      "start": 44.6254,
      "duration": 0.0161,
      "velocity": 105,
      "chip": "ym2612"
    },
    {
      "channel": 0,
      "note": 47,
      "start": 44.6298,
      "duration": 0.016,
      "velocity": 115,
      "chip": "ym2612"
    },
    {
      "channel": 4,
      "note": 79,
      "start": 44.631,
      "duration": 0.0161,
      "velocity": 94,
      "chip": "ym2612"
    },
    {
      "channel": 3,
      "note": 76,
      "start": 44.6321,
      "duration": 0.0161,
      "velocity": 94,
      "chip": "ym2612"
    },
    {
      "channel": 2,
      "note": 57,
      "start": 44.6333,
      "duration": 0.0161,
      "velocity": 100,
      "chip": "ym2612"
    },
    {
      "channel": 1,
      "note": 105,
      "start": 44.6415,
      "duration": 0.0162,
      "velocity": 105,
      "chip": "ym2612"
    },
    {
      "channel": 0,
      "note": 47,
      "start": 44.6459,
      "duration": 0.0134,
      "velocity": 115,
      "chip": "ym2612"
    },
    {
      "channel": 4,
      "note": 79,
      "start": 44.6471,
      "duration": 0.0158,
      "velocity": 94,
      "chip": "ym2612"
    },
    {
      "channel": 3,
      "note": 76,
      "start": 44.6482,
      "duration": 0.0158,
      "velocity": 94,
      "chip": "ym2612"
    },
    {
      "channel": 2,
      "note": 57,
      "start": 44.6493,
      "duration": 0.0158,
      "velocity": 100,
      "chip": "ym2612"
    },
    {
      "channel": 1,
      "note": 105,
      "start": 44.6576,
      "duration": 0.0183,
      "velocity": 124,
      "chip": "ym2612"
    },
    {
      "channel": 0,
      "note": 48,
      "start": 44.6593,
      "duration": 0.0194,
      "velocity": 115,
      "chip": "ym2612"
    },
    {
      "channel": 4,
      "note": 79,
      "start": 44.6628,
      "duration": 0.0172,
      "velocity": 94,
      "chip": "ym2612"
    },
    {
      "channel": 3,
      "note": 76,
      "start": 44.664,
      "duration": 0.0175,
      "velocity": 94,
      "chip": "ym2612"
    },
    {
      "channel": 2,
      "note": 57,
      "start": 44.6651,
      "duration": 0.0178,
      "velocity": 100,
      "chip": "ym2612"
    },
    {
      "channel": 1,
      "note": 78,
      "start": 44.676,
      "duration": 0.0144,
      "velocity": 124,
      "chip": "ym2612"
    },
    {
      "channel": 0,
      "note": 48,
      "start": 44.6787,
      "duration": 0.0136,
      "velocity": 115,
      "chip": "ym2612"
    },
    {
      "channel": 4,
      "note": 76,
      "start": 44.6801,
      "duration": 0.0162,
      "velocity": 94,
      "chip": "ym2612"
    },
    {
      "channel": 3,
      "note": 79,
      "start": 44.6815,
      "duration": 0.016,
      "velocity": 94,
      "chip": "ym2612"
    },
    {
      "channel": 2,
      "note": 57,
      "start": 44.6829,
      "duration": 0.0157,
      "velocity": 100,
      "chip": "ym2612"
    },
    {
      "channel": 1,
      "note": 76,
      "start": 44.6904,
      "duration": 0.016,
      "velocity": 124,
      "chip": "ym2612"
    },
    {
      "channel": 0,
      "note": 49,
      "start": 44.6923,
      "duration": 0.0152,
      "velocity": 1,
      "chip": "ym2612"
    },
    {
      "channel": 4,
      "note": 76,
      "start": 44.6963,
      "duration": 0.0123,
      "velocity": 94,
      "chip": "ym2612"
    },
    {
      "channel": 3,
      "note": 79,
      "start": 44.6975,
      "duration": 0.0123,
      "velocity": 94,
      "chip": "ym2612"
    },
    {
      "channel": 2,
      "note": 57,
      "start": 44.6986,
      "duration": 0.015,
      "velocity": 100,
      "chip": "ym2612"
    },
    {
      "channel": 1,
      "note": 75,
      "start": 44.7064,
      "duration": 0.0161,
      "velocity": 124,
      "chip": "ym2612"
    },
    {
      "channel": 4,
      "note": 76,
      "start": 44.7086,
      "duration": 0.0153,
      "velocity": 94,
      "chip": "ym2612"
    },
    {
      "channel": 3,
      "note": 79,
      "start": 44.7098,
      "duration": 0.0153,
      "velocity": 94,
      "chip": "ym2612"
    },
    {
      "channel": 2,
      "note": 57,
      "start": 44.7137,
      "duration": 0.0125,
      "velocity": 100,
      "chip": "ym2612"
    },
    {
      "channel": 1,
      "note": 74,
      "start": 44.7225,
      "duration": 0.0161,
      "velocity": 124,
      "chip": "ym2612"
    },
    {
      "channel": 4,
      "note": 76,
      "start": 44.7239,
      "duration": 0.0161,
      "velocity": 94,
      "chip": "ym2612"
    },
    {
      "channel": 3,
      "note": 79,
      "start": 44.7251,
      "duration": 0.0161,
      "velocity": 94,
      "chip": "ym2612"
    },
    {
      "channel": 2,
      "note": 57,
      "start": 44.7262,
      "duration": 0.0161,
      "velocity": 100,
      "chip": "ym2612"
    },
    {
      "channel": 1,
      "note": 72,
      "start": 44.7386,
      "duration": 0.0161,
      "velocity": 124,
      "chip": "ym2612"
    },
    {
      "channel": 4,
      "note": 76,
      "start": 44.74,
      "duration": 0.0161,
      "velocity": 94,
      "chip": "ym2612"
    },
    {
      "channel": 3,
      "note": 79,
      "start": 44.7411,
      "duration": 0.0161,
      "velocity": 94,
      "chip": "ym2612"
    },
    {
      "channel": 2,
      "note": 57,
      "start": 44.7423,
      "duration": 0.0161,
      "velocity": 100,
      "chip": "ym2612"
    },
    {
      "channel": 1,
      "note": 71,
      "start": 44.7547,
      "duration": 0.0161,
      "velocity": 124,
      "chip": "ym2612"
    },
    {
      "channel": 4,
      "note": 76,
      "start": 44.7561,
      "duration": 0.0161,
      "velocity": 94,
      "chip": "ym2612"
    },
    {
      "channel": 3,
      "note": 79,
      "start": 44.7572,
      "duration": 0.0161,
      "velocity": 94,
      "chip": "ym2612"
    },
    {
      "channel": 2,
      "note": 57,
      "start": 44.7584,
      "duration": 0.0161,
      "velocity": 100,
      "chip": "ym2612"
    },
    {
      "channel": 1,
      "note": 70,
      "start": 44.7708,
      "duration": 0.0161,
      "velocity": 124,
      "chip": "ym2612"
    },
    {
      "channel": 4,
      "note": 76,
      "start": 44.7722,
      "duration": 0.0169,
      "velocity": 94,
      "chip": "ym2612"
    },
    {
      "channel": 3,
      "note": 79,
      "start": 44.7733,
      "duration": 0.0171,
      "velocity": 94,
      "chip": "ym2612"
    },
    {
      "channel": 2,
      "note": 57,
      "start": 44.7745,
      "duration": 0.0174,
      "velocity": 100,
      "chip": "ym2612"
    },
    {
      "channel": 1,
      "note": 69,
      "start": 44.7869,
      "duration": 0.0161,
      "velocity": 124,
      "chip": "ym2612"
    },
    {
      "channel": 4,
      "note": 79,
      "start": 44.789,
      "duration": 0.0155,
      "velocity": 94,
      "chip": "ym2612"
    },
    {
      "channel": 3,
      "note": 76,
      "start": 44.7905,
      "duration": 0.0152,
      "velocity": 94,
      "chip": "ym2612"
    },
    {
      "channel": 2,
      "note": 57,
      "start": 44.7919,
      "duration": 0.015,
      "velocity": 100,
      "chip": "ym2612"
    },
    {
      "channel": 1,
      "note": 68,
      "start": 44.803,
      "duration": 0.0161,
      "velocity": 124,
      "chip": "ym2612"
    },
    {
      "channel": 4,
      "note": 79,
      "start": 44.8045,
      "duration": 0.016,
      "velocity": 94,
      "chip": "ym2612"
    },
    {
      "channel": 3,
      "note": 76,
      "start": 44.8057,
      "duration": 0.0159,
      "velocity": 94,
      "chip": "ym2612"
    },
    {
      "channel": 2,
      "note": 57,
      "start": 44.8069,
      "duration": 0.0159,
      "velocity": 100,
      "chip": "ym2612"
    },
    {
      "channel": 1,
      "note": 66,
      "start": 44.8191,
      "duration": 0.0161,
      "velocity": 124,
      "chip": "ym2612"
    },
    {
      "channel": 4,
      "note": 79,
      "start": 44.8205,
      "duration": 0.0161,
      "velocity": 94,
      "chip": "ym2612"
    },
    {
      "channel": 3,
      "note": 76,
      "start": 44.8216,
      "duration": 0.0161,
      "velocity": 94,
      "chip": "ym2612"
    },
    {
      "channel": 2,
      "note": 57,
      "start": 44.8228,
      "duration": 0.0161,
      "velocity": 100,
      "chip": "ym2612"
    },
    {
      "channel": 1,
      "note": 65,
      "start": 44.8352,
      "duration": 0.0161,
      "velocity": 124,
      "chip": "ym2612"
    },
    {
      "channel": 4,
      "note": 79,
      "start": 44.8366,
      "duration": 0.0162,
      "velocity": 94,
      "chip": "ym2612"
    },
    {
      "channel": 3,
      "note": 76,
      "start": 44.8377,
      "duration": 0.0162,
      "velocity": 94,
      "chip": "ym2612"
    },
    {
      "channel": 2,
      "note": 57,
      "start": 44.8388,
      "duration": 0.0161,
      "velocity": 100,
      "chip": "ym2612"
    },
    {
      "channel": 1,
      "note": 64,
      "start": 44.8513,
      "duration": 0.0161,
      "velocity": 124,
      "chip": "ym2612"
    },
    {
      "channel": 4,
      "note": 79,
      "start": 44.8527,
      "duration": 0.0161,
      "velocity": 94,
      "chip": "ym2612"
    },
    {
      "channel": 3,
      "note": 76,
      "start": 44.8539,
      "duration": 0.0161,
      "velocity": 94,
      "chip": "ym2612"
    },
    {
      "channel": 2,
      "note": 57,
      "start": 44.8549,
      "duration": 0.0161,
      "velocity": 100,
      "chip": "ym2612"
    },
    {
      "channel": 1,
      "note": 62,
      "start": 44.8674,
      "duration": 0.0161,
      "velocity": 124,
      "chip": "ym2612"
    },
    {
      "channel": 4,
      "note": 79,
      "start": 44.8688,
      "duration": 0.0161,
      "velocity": 94,
      "chip": "ym2612"
    },
    {
      "channel": 3,
      "note": 76,
      "start": 44.87,
      "duration": 0.0161,
      "velocity": 94,
      "chip": "ym2612"
    },
    {
      "channel": 2,
      "note": 57,
      "start": 44.871,
      "duration": 0.0161,
      "velocity": 100,
      "chip": "ym2612"
    },
    {
      "channel": 1,
      "note": 61,
      "start": 44.8835,
      "duration": 0.0161,
      "velocity": 124,
      "chip": "ym2612"
    },
    {
      "channel": 4,
      "note": 79,
      "start": 44.8849,
      "duration": 0.0167,
      "velocity": 94,
      "chip": "ym2612"
    },
    {
      "channel": 3,
      "note": 76,
      "start": 44.8861,
      "duration": 0.0169,
      "velocity": 94,
      "chip": "ym2612"
    },
    {
      "channel": 2,
      "note": 57,
      "start": 44.8871,
      "duration": 0.0173,
      "velocity": 100,
      "chip": "ym2612"
    },
    {
      "channel": 1,
      "note": 60,
      "start": 44.8996,
      "duration": 0.0161,
      "velocity": 124,
      "chip": "ym2612"
    },
    {
      "channel": 4,
      "note": 79,
      "start": 44.9016,
      "duration": 0.0155,
      "velocity": 94,
      "chip": "ym2612"
    },
    {
      "channel": 3,
      "note": 79,
      "start": 44.903,
      "duration": 0.0153,
      "velocity": 94,
      "chip": "ym2612"
    },
    {
      "channel": 2,
      "note": 50,
      "start": 44.9045,
      "duration": 0.0151,
      "velocity": 100,
      "chip": "ym2612"
    },
    {
      "channel": 1,
      "note": 59,
      "start": 44.9157,
      "duration": 0.0161,
      "velocity": 124,
      "chip": "ym2612"
    },
    {
      "channel": 4,
      "note": 79,
      "start": 44.9172,
      "duration": 0.016,
      "velocity": 94,
      "chip": "ym2612"
    },
    {
      "channel": 3,
      "note": 79,
      "start": 44.9184,
      "duration": 0.016,
      "velocity": 94,
      "chip": "ym2612"
    },
    {
      "channel": 2,
      "note": 50,
      "start": 44.9196,
      "duration": 0.0159,
      "velocity": 100,
      "chip": "ym2612"
    },
    {
      "channel": 1,
      "note": 57,
      "start": 44.9318,
      "duration": 0.0161,
      "velocity": 124,
      "chip": "ym2612"
    },
    {
      "channel": 4,
      "note": 79,
      "start": 44.9332,
      "duration": 0.0161,
      "velocity": 94,
      "chip": "ym2612"
    },
    {
      "channel": 3,
      "note": 79,
      "start": 44.9343,
      "duration": 0.0161,
      "velocity": 94,
      "chip": "ym2612"
    },
    {
      "channel": 2,
      "note": 50,
      "start": 44.9355,
      "duration": 0.0161,
      "velocity": 100,
      "chip": "ym2612"
    },
    {
      "channel": 1,
      "note": 56,
      "start": 44.9479,
      "duration": 0.0165,
      "velocity": 124,
      "chip": "ym2612"
    },
    {
      "channel": 4,
      "note": 79,
      "start": 44.9493,
      "duration": 0.0165,
      "velocity": 94,
      "chip": "ym2612"
    },
    {
      "channel": 3,
      "note": 79,
      "start": 44.9504,
      "duration": 0.0165,
      "velocity": 94,
      "chip": "ym2612"
    },
    {
      "channel": 2,
      "note": 50,
      "start": 44.9516,
      "duration": 0.0165,
      "velocity": 100,
      "chip": "ym2612"
    },
    {
      "channel": 1,
      "note": 55,
      "start": 44.9644,
      "duration": 0.0167,
      "velocity": 124,
      "chip": "ym2612"
    },
    {
      "channel": 4,
      "note": 79,
      "start": 44.9658,
      "duration": 0.0167,
      "velocity": 94,
      "chip": "ym2612"
    },
    {
      "channel": 3,
      "note": 79,
      "start": 44.967,
      "duration": 0.0167,
      "velocity": 94,
      "chip": "ym2612"
    },
    {
      "channel": 2,
      "note": 50,
      "start": 44.9681,
      "duration": 0.0167,
      "velocity": 100,
      "chip": "ym2612"
    },
    {
      "channel": 1,
      "note": 53,
      "start": 44.9812,
      "duration": 0.0163,
      "velocity": 124,
      "chip": "ym2612"
    },
    {
      "channel": 4,
      "note": 79,
      "start": 44.9825,
      "duration": 0.0163,
      "velocity": 94,
      "chip": "ym2612"
    },
    {
      "channel": 3,
      "note": 79,
      "start": 44.9836,
      "duration": 0.0163,
      "velocity": 94,
      "chip": "ym2612"
    },
    {
      "channel": 2,
      "note": 50,
      "start": 44.9848,
      "duration": 0.0163,
      "velocity": 100,
      "chip": "ym2612"
    },
    {
      "channel": 1,
      "note": 52,
      "start": 44.9974,
      "duration": 0.0149,
      "velocity": 124,
      "chip": "ym2612"
    },
    {
      "channel": 4,
      "note": 79,
      "start": 44.9988,
      "duration": 0.0191,
      "velocity": 94,
      "chip": "ym2612"
    },
    {
      "channel": 3,
      "note": 79,
      "start": 45.0,
      "duration": 0.0193,
      "velocity": 94,
      "chip": "ym2612"
    },
    {
      "channel": 2,
      "note": 50,
      "start": 45.0011,
      "duration": 0.0196,
      "velocity": 100,
      "chip": "ym2612"
    },
    {
      "channel": 1,
      "note": 51,
      "start": 45.0123,
      "duration": 0.018,
      "velocity": 1,
      "chip": "ym2612"
    },
    {
      "channel": 0,
      "note": 78,
      "start": 45.0166,
      "duration": 0.0176,
      "velocity": 127,
      "chip": "ym2612"
    },
    {
      "channel": 4,
      "note": 76,
      "start": 45.018,
      "duration": 0.0174,
      "velocity": 94,
      "chip": "ym2612"
    },
    {
      "channel": 3,
      "note": 79,
      "start": 45.0193,
      "duration": 0.0174,
      "velocity": 94,
      "chip": "ym2612"
    },
    {
      "channel": 2,
      "note": 50,
      "start": 45.0207,
      "duration": 0.0172,
      "velocity": 100,
      "chip": "ym2612"
    },
    {
      "channel": 1,
      "note": 51,
      "start": 45.0325,
      "duration": 0.0142,
      "velocity": 105,
      "chip": "ym2612"
    },
    {
      "channel": 0,
      "note": 76,
      "start": 45.0342,
      "duration": 0.0142,
      "velocity": 127,
      "chip": "ym2612"
    },
    {
      "channel": 4,
      "note": 76,
      "start": 45.0354,
      "duration": 0.0142,
      "velocity": 94,
      "chip": "ym2612"
    },
    {
      "channel": 3,
      "note": 79,
      "start": 45.0366,
      "duration": 0.0141,
      "velocity": 94,
      "chip": "ym2612"
    },
    {
      "channel": 2,
      "note": 50,
      "start": 45.0378,
      "duration": 0.014,
      "velocity": 100,
      "chip": "ym2612"
    },
    {
      "channel": 1,
      "note": 105,
      "start": 45.0467,
      "duration": 0.0158,
      "velocity": 105,
      "chip": "ym2612"
    },
    {
      "channel": 0,
      "note": 75,
      "start": 45.0484,
      "duration": 0.0158,
      "velocity": 127,
      "chip": "ym2612"
    },
    {
      "channel": 4,
      "note": 76,
      "start": 45.0496,
      "duration": 0.0157,
      "velocity": 94,
      "chip": "ym2612"
    },
    {
      "channel": 3,
      "note": 79,
      "start": 45.0507,
      "duration": 0.0157,
      "velocity": 94,
      "chip": "ym2612"
    },
    {
      "channel": 2,
      "note": 50,
      "start": 45.0518,
      "duration": 0.0158,
      "velocity": 100,
      "chip": "ym2612"
    },
    {
      "channel": 1,
      "note": 105,
      "start": 45.0625,
      "duration": 0.0137,
      "velocity": 105,
      "chip": "ym2612"
    },
    {
      "channel": 0,
      "note": 73,
      "start": 45.0642,
      "duration": 0.014,
      "velocity": 127,
      "chip": "ym2612"
    },
    {
      "channel": 4,
      "note": 76,
      "start": 45.0653,
      "duration": 0.0141,
      "velocity": 94,
      "chip": "ym2612"
    },
    {
      "channel": 3,
      "note": 79,
      "start": 45.0665,
      "duration": 0.0141,
      "velocity": 94,
      "chip": "ym2612"
    },
    {
      "channel": 2,
      "note": 50,
      "start": 45.0676,
      "duration": 0.0141,
      "velocity": 100,
      "chip": "ym2612"
    },
    {
      "channel": 1,
      "note": 105,
      "start": 45.0762,
      "duration": 0.0161,
      "velocity": 105,
      "chip": "ym2612"
    },
    {
      "channel": 0,
      "note": 71,
      "start": 45.0782,
      "duration": 0.0186,
      "velocity": 127,
      "chip": "ym2612"
    },
    {
      "channel": 4,
      "note": 76,
      "start": 45.0794,
      "duration": 0.0185,
      "velocity": 94,
      "chip": "ym2612"
    },
    {
      "channel": 3,
      "note": 79,
      "start": 45.0805,
      "duration": 0.0185,
      "velocity": 94,
      "chip": "ym2612"
    },
    {
      "channel": 2,
      "note": 50,
      "start": 45.0817,
      "duration": 0.0185,
      "velocity": 100,
      "chip": "ym2612"
    },
    {
      "channel": 1,
      "note": 105,
      "start": 45.0923,
      "duration": 0.0162,
      "velocity": 105,
      "chip": "ym2612"
    },
    {
      "channel": 0,
      "note": 70,
      "start": 45.0967,
      "duration": 0.0161,
      "velocity": 127,
      "chip": "ym2612"
    },
    {
      "channel": 4,
      "note": 76,
      "start": 45.0979,
      "duration": 0.0161,
      "velocity": 94,
      "chip": "ym2612"
    },
    {
      "channel": 3,
      "note": 79,
      "start": 45.099,
      "duration": 0.0161,
      "velocity": 94,
      "chip": "ym2612"
    },
    {
      "channel": 2,
      "note": 50,
      "start": 45.1002,
      "duration": 0.0161,
      "velocity": 100,
      "chip": "ym2612"
    },
    {
      "channel": 1,
      "note": 105,
      "start": 45.1085,
      "duration": 0.0177,
      "velocity": 124,
      "chip": "ym2612"
    },
    {
      "channel": 0,
      "note": 68,
      "start": 45.1128,
      "duration": 0.0193,
      "velocity": 115,
      "chip": "ym2612"
    },
    {
      "channel": 4,
      "note": 76,
      "start": 45.114,
      "duration": 0.0194,
      "velocity": 94,
      "chip": "ym2612"
    },
    {
      "channel": 3,
      "note": 79,
      "start": 45.1151,
      "duration": 0.0197,
      "velocity": 94,
      "chip": "ym2612"
    },
    {
      "channel": 2,
      "note": 50,
      "start": 45.1163,
      "duration": 0.0199,
      "velocity": 100,
      "chip": "ym2612"
    },
    {
      "channel": 1,
      "note": 64,
      "start": 45.1263,
      "duration": 0.0144,
      "velocity": 124,
      "chip": "ym2612"
    },
    {
      "channel": 0,
      "note": 36,
      "start": 45.1321,
      "duration": 0.0103,
      "velocity": 115,
      "chip": "ym2612"
    },
    {
      "channel": 4,
      "note": 76,
      "start": 45.1334,
      "duration": 0.0105,
      "velocity": 94,
      "chip": "ym2612"
    },
    {
      "channel": 3,
      "note": 76,
      "start": 45.1349,
      "duration": 0.0103,
      "velocity": 94,
      "chip": "ym2612"
    },
    {
      "channel": 2,
      "note": 52,
      "start": 45.1362,
      "duration": 0.0101,
      "velocity": 100,
      "chip": "ym2612"
    },
    {
      "channel": 1,
      "note": 64,
      "start": 45.1407,
      "duration": 0.016,
      "velocity": 124,
      "chip": "ym2612"
    },
    {
      "channel": 0,
      "note": 36,
      "start": 45.1424,
      "duration": 0.016,
      "velocity": 115,
      "chip": "ym2612"
    },
    {
      "channel": 4,
      "note": 76,
      "start": 45.1439,
      "duration": 0.0156,
      "velocity": 94,
      "chip": "ym2612"
    },
    {
      "channel": 3,
      "note": 76,
      "start": 45.1451,
      "duration": 0.0183,
      "velocity": 94,
      "chip": "ym2612"
    },
    {
      "channel": 2,
      "note": 52,
      "start": 45.1463,
      "duration": 0.0183,
      "velocity": 100,
      "chip": "ym2612"
    },
    {
      "channel": 1,
      "note": 64,
      "start": 45.1567,
      "duration": 0.0161,
      "velocity": 124,
      "chip": "ym2612"
    },
    {
      "channel": 0,
      "note": 37,
      "start": 45.1584,
      "duration": 0.0161,
      "velocity": 115,
      "chip": "ym2612"
    },
    {
      "channel": 4,
      "note": 76,
      "start": 45.1596,
      "duration": 0.0161,
      "velocity": 94,
      "chip": "ym2612"
    },
    {
      "channel": 3,
      "note": 76,
      "start": 45.1635,
      "duration": 0.0161,
      "velocity": 94,
      "chip": "ym2612"
    },
    {
      "channel": 2,
      "note": 52,
      "start": 45.1646,
      "duration": 0.0161,
      "velocity": 100,
      "chip": "ym2612"
    },
    {
      "channel": 1,
      "note": 64,
      "start": 45.1728,
      "duration": 0.0161,
      "velocity": 124,
      "chip": "ym2612"
    },
    {
      "channel": 0,
      "note": 37,
      "start": 45.1745,
      "duration": 0.0161,
      "velocity": 115,
      "chip": "ym2612"
    },
    {
      "channel": 4,
      "note": 76,
      "start": 45.1757,
      "duration": 0.0161,
      "velocity": 94,
      "chip": "ym2612"
    },
    {
      "channel": 3,
      "note": 76,
      "start": 45.1796,
      "duration": 0.0134,
      "velocity": 94,
      "chip": "ym2612"
    },
    {
      "channel": 2,
      "note": 52,
      "start": 45.1807,
      "duration": 0.0157,
      "velocity": 100,
      "chip": "ym2612"
    },
    {
      "channel": 1,
      "note": 64,
      "start": 45.1889,
      "duration": 0.0161,
      "velocity": 124,
      "chip": "ym2612"
    },
    {
      "channel": 0,
      "note": 38,
      "start": 45.1906,
      "duration": 0.0162,
      "velocity": 115,
      "chip": "ym2612"
    },
    {
      "channel": 4,
      "note": 76,
      "start": 45.1918,
      "duration": 0.0161,
      "velocity": 94,
      "chip": "ym2612"
    },
    {
      "channel": 3,
      "note": 76,
      "start": 45.1929,
      "duration": 0.0161,
      "velocity": 94,
      "chip": "ym2612"
    },
    {
      "channel": 2,
      "note": 52,
      "start": 45.1964,
      "duration": 0.0141,
      "velocity": 100,
      "chip": "ym2612"
    },
    {
      "channel": 1,
      "note": 64,
      "start": 45.205,
      "duration": 0.0161,
      "velocity": 124,
      "chip": "ym2612"
    },
    {
      "channel": 0,
      "note": 38,
      "start": 45.2067,
      "duration": 0.0161,
      "velocity": 115,
      "chip": "ym2612"
    },
    {
      "channel": 4,
      "note": 76,
      "start": 45.2079,
      "duration": 0.0161,
      "velocity": 94,
      "chip": "ym2612"
    },
    {
      "channel": 3,
      "note": 76,
      "start": 45.209,
      "duration": 0.0161,
      "velocity": 94,
      "chip": "ym2612"
    },
    {
      "channel": 2,
      "note": 52,
      "start": 45.2105,
      "duration": 0.0158,
      "velocity": 100,
      "chip": "ym2612"
    },
    {
      "channel": 1,
      "note": 64,
      "start": 45.2211,
      "duration": 0.0178,
      "velocity": 105,
      "chip": "ym2612"
    },
    {
      "channel": 0,
      "note": 39,
      "start": 45.2228,
      "duration": 0.0178,
      "velocity": 115,
      "chip": "ym2612"
    },
    {
      "channel": 4,
      "note": 76,
      "start": 45.224,
      "duration": 0.0181,
      "velocity": 94,
      "chip": "ym2612"
    },
    {
      "channel": 3,
      "note": 76,
      "start": 45.2251,
      "duration": 0.021,
      "velocity": 94,
      "chip": "ym2612"
    },
    {
      "channel": 2,
      "note": 52,
      "start": 45.2263,
      "duration": 0.0212,
      "velocity": 100,
      "chip": "ym2612"
    },
    {
      "channel": 1,
      "note": 105,
      "start": 45.2389,
      "duration": 0.0144,
      "velocity": 105,
      "chip": "ym2612"
    },
    {
      "channel": 0,
      "note": 39,
      "start": 45.2406,
      "duration": 0.0144,
      "velocity": 115,
      "chip": "ym2612"
    },
    {
      "channel": 4,
      "note": 76,
      "start": 45.242,
      "duration": 0.0142,
      "velocity": 94,
      "chip": "ym2612"
    },
    {
      "channel": 3,
      "note": 76,
      "start": 45.2461,
      "duration": 0.0114,
      "velocity": 94,
      "chip": "ym2612"
    },
    {
      "channel": 2,
      "note": 52,
      "start": 45.2475,
      "duration": 0.0111,
      "velocity": 100,
      "chip": "ym2612"
    },
    {
      "channel": 1,
      "note": 105,
      "start": 45.2534,
      "duration": 0.0161,
      "velocity": 105,
      "chip": "ym2612"
    },
    {
      "channel": 0,
      "note": 40,
      "start": 45.2551,
      "duration": 0.016,
      "velocity": 115,
      "chip": "ym2612"
    },
    {
      "channel": 4,
      "note": 76,
      "start": 45.2563,
      "duration": 0.016,
      "velocity": 94,
      "chip": "ym2612"
    },
    {
      "channel": 3,
      "note": 76,
      "start": 45.2575,
      "duration": 0.0159,
      "velocity": 94,
      "chip": "ym2612"
    },
    {
      "channel": 2,
      "note": 52,
      "start": 45.2586,
      "duration": 0.0159,
      "velocity": 100,
      "chip": "ym2612"
    },
    {
      "channel": 1,
      "note": 105,
      "start": 45.2695,
      "duration": 0.0161,
      "velocity": 105,
      "chip": "ym2612"
    },
    {
      "channel": 0,
      "note": 40,
      "start": 45.2711,
      "duration": 0.0161,
      "velocity": 115,
      "chip": "ym2612"
    },
    {
      "channel": 4,
      "note": 76,
      "start": 45.2722,
      "duration": 0.0161,
      "velocity": 94,
      "chip": "ym2612"
    },
    {
      "channel": 3,
      "note": 76,
      "start": 45.2734,
      "duration": 0.0161,
      "velocity": 94,
      "chip": "ym2612"
    },
    {
      "channel": 2,
      "note": 52,
      "start": 45.2745,
      "duration": 0.0161,
      "velocity": 100,
      "chip": "ym2612"
    },
    {
      "channel": 1,
      "note": 105,
      "start": 45.2856,
      "duration": 0.0161,
      "velocity": 105,
      "chip": "ym2612"
    },
    {
      "channel": 0,
      "note": 40,
      "start": 45.2872,
      "duration": 0.0161,
      "velocity": 115,
      "chip": "ym2612"
    },
    {
      "channel": 4,
      "note": 76,
      "start": 45.2883,
      "duration": 0.0161,
      "velocity": 94,
      "chip": "ym2612"
    },
    {
      "channel": 3,
      "note": 76,
      "start": 45.2895,
      "duration": 0.0161,
      "velocity": 94,
      "chip": "ym2612"
    },
    {
      "channel": 2,
      "note": 52,
      "start": 45.2906,
      "duration": 0.0161,
      "velocity": 100,
      "chip": "ym2612"
    },
    {
      "channel": 1,
      "note": 105,
      "start": 45.3016,
      "duration": 0.0161,
      "velocity": 105,
      "chip": "ym2612"
    },
    {
      "channel": 0,
      "note": 41,
      "start": 45.3033,
      "duration": 0.0161,
      "velocity": 115,
      "chip": "ym2612"
    },
    {
      "channel": 4,
      "note": 76,
      "start": 45.3044,
      "duration": 0.0161,
      "velocity": 94,
      "chip": "ym2612"
    },
    {
      "channel": 3,
      "note": 76,
      "start": 45.3056,
      "duration": 0.0161,
      "velocity": 94,
      "chip": "ym2612"
    },
    {
      "channel": 2,
      "note": 52,
      "start": 45.3067,
      "duration": 0.0161,
      "velocity": 100,
      "chip": "ym2612"
    },
    {
      "channel": 1,
      "note": 105,
      "start": 45.3177,
      "duration": 0.0161,
      "velocity": 105,
      "chip": "ym2612"
    },
    {
      "channel": 0,
      "note": 41,
      "start": 45.3194,
      "duration": 0.0161,
      "velocity": 115,
      "chip": "ym2612"
    },
    {
      "channel": 4,
      "note": 76,
      "start": 45.3206,
      "duration": 0.0161,
      "velocity": 94,
      "chip": "ym2612"
    },
    {
      "channel": 3,
      "note": 76,
      "start": 45.3217,
      "duration": 0.0162,
      "velocity": 94,
      "chip": "ym2612"
    },
    {
      "channel": 2,
      "note": 52,
      "start": 45.3228,
      "duration": 0.0161,
      "velocity": 100,
      "chip": "ym2612"
    },
    {
      "channel": 1,
      "note": 105,
      "start": 45.3338,
      "duration": 0.0178,
      "velocity": 124,
      "chip": "ym2612"
    },
    {
      "channel": 0,
      "note": 42,
      "start": 45.3355,
      "duration": 0.0179,
      "velocity": 115,
      "chip": "ym2612"
    },
    {
      "channel": 4,
      "note": 76,
      "start": 45.3367,
      "duration": 0.0179,
      "velocity": 94,
      "chip": "ym2612"
    },
    {
      "channel": 3,
      "note": 76,
      "start": 45.3378,
      "duration": 0.0182,
      "velocity": 94,
      "chip": "ym2612"
    },
    {
      "channel": 2,
      "note": 52,
      "start": 45.3389,
      "duration": 0.0186,
      "velocity": 100,
      "chip": "ym2612"
    },
    {
      "channel": 1,
      "note": 64,
      "start": 45.3517,
      "duration": 0.0144,
      "velocity": 124,
      "chip": "ym2612"
    },
    {
      "channel": 0,
      "note": 42,
      "start": 45.3534,
      "duration": 0.0144,
      "velocity": 115,
      "chip": "ym2612"
    },
    {
      "channel": 4,
      "note": 76,
      "start": 45.3546,
      "duration": 0.0144,
      "velocity": 94,
      "chip": "ym2612"
    },
    {
      "channel": 3,
      "note": 76,
      "start": 45.356,
      "duration": 0.0142,
      "velocity": 94,
      "chip": "ym2612"
    },
    {
      "channel": 2,
      "note": 52,
      "start": 45.3575,
      "duration": 0.0139,
      "velocity": 100,
      "chip": "ym2612"
    },
    {
      "channel": 1,
      "note": 64,
      "start": 45.3661,
      "duration": 0.0161,
      "velocity": 124,
      "chip": "ym2612"
    },
    {
      "channel": 0,
      "note": 43,
      "start": 45.3678,
      "duration": 0.016,
      "velocity": 115,
      "chip": "ym2612"
    },
    {
      "channel": 4,
      "note": 76,
      "start": 45.369,
      "duration": 0.016,
      "velocity": 94,
      "chip": "ym2612"
    },
    {
      "channel": 3,
      "note": 76,
      "start": 45.3702,
      "duration": 0.0159,
      "velocity": 94,
      "chip": "ym2612"
    },
    {
      "channel": 2,
      "note": 52,
      "start": 45.3714,
      "duration": 0.0159,
      "velocity": 100,
      "chip": "ym2612"
    },
    {
      "channel": 1,
      "note": 64,
      "start": 45.3822,
      "duration": 0.0161,
      "velocity": 124,
      "chip": "ym2612"
    },
    {
      "channel": 0,
      "note": 43,
      "start": 45.3838,
      "duration": 0.0161,
      "velocity": 115,
      "chip": "ym2612"
    },
    {
      "channel": 4,
      "note": 76,
      "start": 45.385,
      "duration": 0.0161,
      "velocity": 94,
      "chip": "ym2612"
    },
    {
      "channel": 3,
      "note": 76,
      "start": 45.3861,
      "duration": 0.0161,
      "velocity": 94,
      "chip": "ym2612"
    },
    {
      "channel": 2,
      "note": 52,
      "start": 45.3873,
      "duration": 0.0161,
      "velocity": 100,
      "chip": "ym2612"
    },
    {
      "channel": 1,
      "note": 64,
      "start": 45.3983,
      "duration": 0.0161,
      "velocity": 124,
      "chip": "ym2612"
    },
    {
      "channel": 0,
      "note": 44,
      "start": 45.3999,
      "duration": 0.0161,
      "velocity": 115,
      "chip": "ym2612"
    },
    {
      "channel": 4,
      "note": 76,
      "start": 45.4011,
      "duration": 0.0161,
      "velocity": 94,
      "chip": "ym2612"
    },
    {
      "channel": 3,
      "note": 76,
      "start": 45.4022,
      "duration": 0.0161,
      "velocity": 94,
      "chip": "ym2612"
    },
    {
      "channel": 2,
      "note": 52,
      "start": 45.4034,
      "duration": 0.0161,
      "velocity": 100,
      "chip": "ym2612"
    },
    {
      "channel": 1,
      "note": 64,
      "start": 45.4144,
      "duration": 0.0163,
      "velocity": 124,
      "chip": "ym2612"
    },
    {
      "channel": 0,
      "note": 44,
      "start": 45.416,
      "duration": 0.0163,
      "velocity": 115,
      "chip": "ym2612"
    },
    {
      "channel": 4,
      "note": 76,
      "start": 45.4172,
      "duration": 0.0163,
      "velocity": 94,
      "chip": "ym2612"
    },
    {
      "channel": 3,
      "note": 76,
      "start": 45.4183,
      "duration": 0.0163,
      "velocity": 94,
      "chip": "ym2612"
    },
    {
      "channel": 2,
      "note": 52,
      "start": 45.4195,
      "duration": 0.0163,
      "velocity": 100,
      "chip": "ym2612"
    },
    {
      "channel": 1,
      "note": 64,
      "start": 45.4307,
      "duration": 0.0167,
      "velocity": 124,
      "chip": "ym2612"
    },
    {
      "channel": 0,
      "note": 44,
      "start": 45.4323,
      "duration": 0.0167,
      "velocity": 115,
      "chip": "ym2612"
    },
    {
      "channel": 4,
      "note": 76,
      "start": 45.4334,
      "duration": 0.0167,
      "velocity": 94,
      "chip": "ym2612"
    },
    {
      "channel": 3,
      "note": 76,
      "start": 45.4346,
      "duration": 0.0167,
      "velocity": 94,
      "chip": "ym2612"
    },
    {
      "channel": 2,
      "note": 52,
      "start": 45.4357,
      "duration": 0.0167,
      "velocity": 100,
      "chip": "ym2612"
    },
    {
      "channel": 1,
      "note": 64,
      "start": 45.4473,
      "duration": 0.0179,
      "velocity": 105,
      "chip": "ym2612"
    },
    {
      "channel": 0,
      "note": 45,
      "start": 45.449,
      "duration": 0.018,
      "velocity": 115,
      "chip": "ym2612"
    },
    {
      "channel": 4,
      "note": 76,
      "start": 45.4501,
      "duration": 0.0183,
      "velocity": 94,
      "chip": "ym2612"
    },
    {
      "channel": 3,
      "note": 76,
      "start": 45.4513,
      "duration": 0.0184,
      "velocity": 94,
      "chip": "ym2612"
    },
    {
      "channel": 2,
      "note": 52,
      "start": 45.4524,
      "duration": 0.0187,
      "velocity": 100,
      "chip": "ym2612"
    },
    {
      "channel": 1,
      "note": 105,
      "start": 45.4653,
      "duration": 0.0135,
      "velocity": 105,
      "chip": "ym2612"
    },
    {
      "channel": 0,
      "note": 45,
      "start": 45.467,
      "duration": 0.0135,
      "velocity": 115,
      "chip": "ym2612"
    },
    {
      "channel": 4,
      "note": 76,
      "start": 45.4684,
      "duration": 0.0132,
      "velocity": 94,
      "chip": "ym2612"
    },
    {
      "channel": 3,
      "note": 76,
      "start": 45.4697,
      "duration": 0.0132,
      "velocity": 94,
      "chip": "ym2612"
    },
    {
      "channel": 2,
      "note": 52,
      "start": 45.4712,
      "duration": 0.0129,
      "velocity": 100,
      "chip": "ym2612"
    },
    {
      "channel": 1,
      "note": 105,
      "start": 45.4788,
      "duration": 0.0185,
      "velocity": 105,
      "chip": "ym2612"
    },
    {
      "channel": 0,
      "note": 46,
      "start": 45.4805,
      "duration": 0.0185,
      "velocity": 115,
      "chip": "ym2612"
    },
    {
      "channel": 4,
      "note": 76,
      "start": 45.4817,
      "duration": 0.0185,
      "velocity": 94,
      "chip": "ym2612"
    },
    {
      "channel": 3,
      "note": 76,
      "start": 45.4829,
      "duration": 0.0184,
      "velocity": 94,
      "chip": "ym2612"
    },
    {
      "channel": 2,
      "note": 52,
      "start": 45.4841,
      "duration": 0.0183,
      "velocity": 100,
      "chip": "ym2612"
    },
    {
      "channel": 1,
      "note": 105,
      "start": 45.4973,
      "duration": 0.0163,
      "velocity": 105,
      "chip": "ym2612"
    },
    {
      "channel": 0,
      "note": 46,
      "start": 45.499,
      "duration": 0.0164,
      "velocity": 115,
      "chip": "ym2612"
    },
    {
      "channel": 4,
      "note": 76,
      "start": 45.5001,
      "duration": 0.0164,
      "velocity": 94,
      "chip": "ym2612"
    },
    {
      "channel": 3,
      "note": 76,
      "start": 45.5013,
      "duration": 0.0164,
      "velocity": 94,
      "chip": "ym2612"
    },
    {
      "channel": 2,
      "note": 52,
      "start": 45.5024,
      "duration": 0.0164,
      "velocity": 100,
      "chip": "ym2612"
    },
    {
      "channel": 1,
      "note": 105,
      "start": 45.5137,
      "duration": 0.0158,
      "velocity": 105,
      "chip": "ym2612"
    },
    {
      "channel": 0,
      "note": 47,
      "start": 45.5154,
      "duration": 0.0157,
      "velocity": 115,
      "chip": "ym2612"
    },
    {
      "channel": 4,
      "note": 76,
      "start": 45.5165,
      "duration": 0.0157,
      "velocity": 94,
      "chip": "ym2612"
    },
    {
      "channel": 3,
      "note": 76,
      "start": 45.5177,
      "duration": 0.0157,
      "velocity": 94,
      "chip": "ym2612"
    },
    {
      "channel": 2,
      "note": 52,
      "start": 45.5188,
      "duration": 0.0157,
      "velocity": 100,
      "chip": "ym2612"
    },
    {
      "channel": 1,
      "note": 105,
      "start": 45.5294,
      "duration": 0.0138,
      "velocity": 105,
      "chip": "ym2612"
    },
    {
      "channel": 0,
      "note": 47,
      "start": 45.5311,
      "duration": 0.0141,
      "velocity": 115,
      "chip": "ym2612"
    },
    {
      "channel": 4,
      "note": 76,
      "start": 45.5322,
      "duration": 0.0141,
      "velocity": 94,
      "chip": "ym2612"
    },
    {
      "channel": 3,
      "note": 76,
      "start": 45.5334,
      "duration": 0.0141,
      "velocity": 94,
      "chip": "ym2612"
    },
    {
      "channel": 2,
      "note": 52,
      "start": 45.5345,
      "duration": 0.0141,
      "velocity": 100,
      "chip": "ym2612"
    },
    {
      "channel": 1,
      "note": 105,
      "start": 45.5432,
      "duration": 0.016,
      "velocity": 105,
      "chip": "ym2612"
    },
    {
      "channel": 0,
      "note": 47,
      "start": 45.5451,
      "duration": 0.0185,
      "velocity": 115,
      "chip": "ym2612"
    },
    {
      "channel": 4,
      "note": 76,
      "start": 45.5463,
      "duration": 0.0186,
      "velocity": 94,
      "chip": "ym2612"
    },
    {
      "channel": 3,
      "note": 76,
      "start": 45.5474,
      "duration": 0.0185,
      "velocity": 94,
      "chip": "ym2612"
    },
    {
      "channel": 2,
      "note": 52,
      "start": 45.5486,
      "duration": 0.0185,
      "velocity": 100,
      "chip": "ym2612"
    },
    {
      "channel": 1,
      "note": 105,
      "start": 45.5593,
      "duration": 0.0211,
      "velocity": 124,
      "chip": "ym2612"
    },
    {
      "channel": 0,
      "note": 48,
      "start": 45.5637,
      "duration": 0.0191,
      "velocity": 115,
      "chip": "ym2612"
    },
    {
      "channel": 4,
      "note": 76,
      "start": 45.5649,
      "duration": 0.0192,
      "velocity": 94,
      "chip": "ym2612"
    },
    {
      "channel": 3,
      "note": 76,
      "start": 45.566,
      "duration": 0.0195,
      "velocity": 94,
      "chip": "ym2612"
    },
    {
      "channel": 2,
      "note": 52,
      "start": 45.5671,
      "duration": 0.0198,
      "velocity": 100,
      "chip": "ym2612"
    },
    {
      "channel": 1,
      "note": 78,
      "start": 45.5804,
      "duration": 0.0117,
      "velocity": 124,
      "chip": "ym2612"
    },
    {
      "channel": 0,
      "note": 48,
      "start": 45.5828,
      "duration": 0.0135,
      "velocity": 115,
      "chip": "ym2612"
    },
    {
      "channel": 4,
      "note": 76,
      "start": 45.5841,
      "duration": 0.0135,
      "velocity": 94,
      "chip": "ym2612"
    },
    {
      "channel": 3,
      "note": 76,
      "start": 45.5855,
      "duration": 0.0133,
      "velocity": 94,
      "chip": "ym2612"
    },
    {
      "channel": 2,
      "note": 52,
      "start": 45.5869,
      "duration": 0.013,
      "velocity": 100,
      "chip": "ym2612"
    },
    {
      "channel": 1,
      "note": 76,
      "start": 45.592,
      "duration": 0.016,
      "velocity": 124,
      "chip": "ym2612"
    },
    {
      "channel": 0,
      "note": 49,
      "start": 45.5963,
      "duration": 0.0128,
      "velocity": 1,
      "chip": "ym2612"
    },
    {
      "channel": 4,
      "note": 76,
      "start": 45.5976,
      "duration": 0.013,
      "velocity": 94,
      "chip": "ym2612"
    },
    {
      "channel": 3,
      "note": 76,
      "start": 45.5988,
      "duration": 0.013,
      "velocity": 94,
      "chip": "ym2612"
    },
    {
      "channel": 2,
      "note": 52,
      "start": 45.5999,
      "duration": 0.013,
      "velocity": 100,
      "chip": "ym2612"
    },
    {
      "channel": 1,
      "note": 75,
      "start": 45.6081,
      "duration": 0.0161,
      "velocity": 124,
      "chip": "ym2612"
    },
    {
      "channel": 4,
      "note": 76,
      "start": 45.6106,
      "duration": 0.0149,
      "velocity": 94,
      "chip": "ym2612"
    },
    {
      "channel": 3,
      "note": 76,
      "start": 45.6117,
      "duration": 0.0177,
      "velocity": 94,
      "chip": "ym2612"
    },
    {
      "channel": 2,
      "note": 52,
      "start": 45.6129,
      "duration": 0.0177,
      "velocity": 100,
      "chip": "ym2612"
    },
    {
      "channel": 1,
      "note": 74,
      "start": 45.6241,
      "duration": 0.0161,
      "velocity": 124,
      "chip": "ym2612"
    },
    {
      "channel": 4,
      "note": 76,
      "start": 45.6256,
      "duration": 0.0161,
      "velocity": 94,
      "chip": "ym2612"
    },
    {
      "channel": 3,
      "note": 76,
      "start": 45.6294,
      "duration": 0.0134,
      "velocity": 94,
      "chip": "ym2612"
    },
    {
      "channel": 2,
      "note": 52,
      "start": 45.6306,
      "duration": 0.0161,
      "velocity": 100,
      "chip": "ym2612"
    },
    {
      "channel": 1,
      "note": 72,
      "start": 45.6402,
      "duration": 0.0161,
      "velocity": 124,
      "chip": "ym2612"
    },
    {
      "channel": 4,
      "note": 76,
      "start": 45.6417,
      "duration": 0.0161,
      "velocity": 94,
      "chip": "ym2612"
    },
    {
      "channel": 3,
      "note": 76,
      "start": 45.6428,
      "duration": 0.0161,
      "velocity": 94,
      "chip": "ym2612"
    },
    {
      "channel": 2,
      "note": 52,
      "start": 45.6467,
      "duration": 0.0157,
      "velocity": 100,
      "chip": "ym2612"
    },
    {
      "channel": 1,
      "note": 71,
      "start": 45.6563,
      "duration": 0.0161,
      "velocity": 124,
      "chip": "ym2612"
    },
    {
      "channel": 4,
      "note": 76,
      "start": 45.6578,
      "duration": 0.0161,
      "velocity": 94,
      "chip": "ym2612"
    },
    {
      "channel": 3,
      "note": 76,
      "start": 45.6589,
      "duration": 0.0161,
      "velocity": 94,
      "chip": "ym2612"
    },
    {
      "channel": 2,
      "note": 52,
      "start": 45.6624,
      "duration": 0.0137,
      "velocity": 100,
      "chip": "ym2612"
    },
    {
      "channel": 1,
      "note": 70,
      "start": 45.6724,
      "duration": 0.0161,
      "velocity": 124,
      "chip": "ym2612"
    },
    {
      "channel": 4,
      "note": 76,
      "start": 45.6738,
      "duration": 0.0169,
      "velocity": 94,
      "chip": "ym2612"
    },
    {
      "channel": 3,
      "note": 76,
      "start": 45.675,
      "duration": 0.0171,
      "velocity": 94,
      "chip": "ym2612"
    },
    {
      "channel": 2,
      "note": 52,
      "start": 45.6761,
      "duration": 0.02,
      "velocity": 100,
      "chip": "ym2612"
    },
    {
      "channel": 1,
      "note": 69,
      "start": 45.6885,
      "duration": 0.0161,
      "velocity": 124,
      "chip": "ym2612"
    },
    {
      "channel": 4,
      "note": 79,
      "start": 45.6908,
      "duration": 0.0154,
      "velocity": 94,
      "chip": "ym2612"
    },
    {
      "channel": 3,
      "note": 76,
      "start": 45.692,
      "duration": 0.0153,
      "velocity": 94,
      "chip": "ym2612"
    },
    {
      "channel": 2,
      "note": 52,
      "start": 45.6962,
      "duration": 0.0123,
      "velocity": 100,
      "chip": "ym2612"
    },
    {
      "channel": 1,
      "note": 68,
      "start": 45.7046,
      "duration": 0.0162,
      "velocity": 124,
      "chip": "ym2612"
    },
    {
      "channel": 4,
      "note": 79,
      "start": 45.7062,
      "duration": 0.016,
      "velocity": 94,
      "chip": "ym2612"
    },
    {
      "channel": 3,
      "note": 76,
      "start": 45.7074,
      "duration": 0.0159,
      "velocity": 94,
      "chip": "ym2612"
    },
    {
      "channel": 2,
      "note": 52,
      "start": 45.7085,
      "duration": 0.0159,
      "velocity": 100,
      "chip": "ym2612"
    },
    {
      "channel": 1,
      "note": 66,
      "start": 45.7208,
      "duration": 0.0161,
      "velocity": 124,
      "chip": "ym2612"
    },
    {
      "channel": 4,
      "note": 79,
      "start": 45.7221,
      "duration": 0.0161,
      "velocity": 94,
      "chip": "ym2612"
    },
    {
      "channel": 3,
      "note": 76,
      "start": 45.7233,
      "duration": 0.0161,
      "velocity": 94,
      "chip": "ym2612"
    },
    {
      "channel": 2,
      "note": 52,
      "start": 45.7244,
      "duration": 0.0161,
      "velocity": 100,
      "chip": "ym2612"
    },
    {
      "channel": 1,
      "note": 65,
      "start": 45.7369,
      "duration": 0.0161,
      "velocity": 124,
      "chip": "ym2612"
    },
    {
      "channel": 4,
      "note": 79,
      "start": 45.7382,
      "duration": 0.0162,
      "velocity": 94,
      "chip": "ym2612"
    },
    {
      "channel": 3,
      "note": 76,
      "start": 45.7394,
      "duration": 0.0161,
      "velocity": 94,
      "chip": "ym2612"
    },
    {
      "channel": 2,
      "note": 52,
      "start": 45.7405,
      "duration": 0.0161,
      "velocity": 100,
      "chip": "ym2612"
    },
    {
      "channel": 1,
      "note": 64,
      "start": 45.753,
      "duration": 0.0161,
      "velocity": 124,
      "chip": "ym2612"
    },
    {
      "channel": 4,
      "note": 79,
      "start": 45.7544,
      "duration": 0.0161,
      "velocity": 94,
      "chip": "ym2612"
    },
    {
      "channel": 3,
      "note": 76,
      "start": 45.7555,
      "duration": 0.0161,
      "velocity": 94,
      "chip": "ym2612"
    },
    {
      "channel": 2,
      "note": 52,
      "start": 45.7566,
      "duration": 0.0162,
      "velocity": 100,
      "chip": "ym2612"
    },
    {
      "channel": 1,
      "note": 62,
      "start": 45.7691,
      "duration": 0.0161,
      "velocity": 124,
      "chip": "ym2612"
    },
    {
      "channel": 4,
      "note": 79,
      "start": 45.7705,
      "duration": 0.0161,
      "velocity": 94,
      "chip": "ym2612"
    },
    {
      "channel": 3,
      "note": 76,
      "start": 45.7716,
      "duration": 0.0161,
      "velocity": 94,
      "chip": "ym2612"
    },
    {
      "channel": 2,
      "note": 52,
      "start": 45.7728,
      "duration": 0.0161,
      "velocity": 100,
      "chip": "ym2612"
    },
    {
      "channel": 1,
      "note": 61,
      "start": 45.7852,
      "duration": 0.0161,
      "velocity": 124,
      "chip": "ym2612"
    },
    {
      "channel": 4,
      "note": 79,
      "start": 45.7866,
      "duration": 0.0167,
      "velocity": 94,
      "chip": "ym2612"
    },
    {
      "channel": 3,
      "note": 76,
      "start": 45.7877,
      "duration": 0.0169,
      "velocity": 94,
      "chip": "ym2612"
    },
    {
      "channel": 2,
      "note": 52,
      "start": 45.7888,
      "duration": 0.0173,
      "velocity": 100,
      "chip": "ym2612"
    },
    {
      "channel": 1,
      "note": 60,
      "start": 45.8013,
      "duration": 0.0161,
      "velocity": 124,
      "chip": "ym2612"
    },
    {
      "channel": 4,
      "note": 79,
      "start": 45.8033,
      "duration": 0.0155,
      "velocity": 94,
      "chip": "ym2612"
    },
    {
      "channel": 3,
      "note": 79,
      "start": 45.8047,
      "duration": 0.0153,
      "velocity": 94,
      "chip": "ym2612"
    },
    {
      "channel": 2,
      "note": 52,
      "start": 45.8062,
      "duration": 0.0151,
      "velocity": 100,
      "chip": "ym2612"
    },
    {
      "channel": 1,
      "note": 59,
      "start": 45.8173,
      "duration": 0.0161,
      "velocity": 124,
      "chip": "ym2612"
    },
    {
      "channel": 4,
      "note": 79,
      "start": 45.8188,
      "duration": 0.016,
      "velocity": 94,
      "chip": "ym2612"
    },
    {
      "channel": 3,
      "note": 79,
      "start": 45.82,
      "duration": 0.016,
      "velocity": 94,
      "chip": "ym2612"
    },
    {
      "channel": 2,
      "note": 52,
      "start": 45.8212,
      "duration": 0.0159,
      "velocity": 100,
      "chip": "ym2612"
    },
    {
      "channel": 1,
      "note": 57,
      "start": 45.8334,
      "duration": 0.0161,
      "velocity": 124,
      "chip": "ym2612"
    },
    {
      "channel": 4,
      "note": 79,
      "start": 45.8349,
      "duration": 0.0161,
      "velocity": 94,
      "chip": "ym2612"
    },
    {
      "channel": 3,
      "note": 79,
      "start": 45.836,
      "duration": 0.0161,
      "velocity": 94,
      "chip": "ym2612"
    },
    {
      "channel": 2,
      "note": 52,
      "start": 45.8371,
      "duration": 0.0161,
      "velocity": 100,
      "chip": "ym2612"
    },
    {
      "channel": 1,
      "note": 56,
      "start": 45.8495,
      "duration": 0.0161,
      "velocity": 124,
      "chip": "ym2612"
    },
    {
      "channel": 4,
      "note": 79,
      "start": 45.8509,
      "duration": 0.0161,
      "velocity": 94,
      "chip": "ym2612"
    },
    {
      "channel": 3,
      "note": 79,
      "start": 45.8521,
      "duration": 0.0161,
      "velocity": 94,
      "chip": "ym2612"
    },
    {
      "channel": 2,
      "note": 52,
      "start": 45.8532,
      "duration": 0.0161,
      "velocity": 100,
      "chip": "ym2612"
    },
    {
      "channel": 1,
      "note": 55,
      "start": 45.8656,
      "duration": 0.0161,
      "velocity": 124,
      "chip": "ym2612"
    },
    {
      "channel": 4,
      "note": 79,
      "start": 45.867,
      "duration": 0.0161,
      "velocity": 94,
      "chip": "ym2612"
    },
    {
      "channel": 3,
      "note": 79,
      "start": 45.8682,
      "duration": 0.0161,
      "velocity": 94,
      "chip": "ym2612"
    },
    {
      "channel": 2,
      "note": 52,
      "start": 45.8693,
      "duration": 0.0161,
      "velocity": 100,
      "chip": "ym2612"
    },
    {
      "channel": 1,
      "note": 53,
      "start": 45.8818,
      "duration": 0.0161,
      "velocity": 124,
      "chip": "ym2612"
    },
    {
      "channel": 4,
      "note": 79,
      "start": 45.8831,
      "duration": 0.0161,
      "velocity": 94,
      "chip": "ym2612"
    },
    {
      "channel": 3,
      "note": 79,
      "start": 45.8843,
      "duration": 0.0161,
      "velocity": 94,
      "chip": "ym2612"
    },
    {
      "channel": 2,
      "note": 52,
      "start": 45.8854,
      "duration": 0.0161,
      "velocity": 100,
      "chip": "ym2612"
    },
    {
      "channel": 1,
      "note": 52,
      "start": 45.8979,
      "duration": 0.0166,
      "velocity": 124,
      "chip": "ym2612"
    },
    {
      "channel": 4,
      "note": 79,
      "start": 45.8992,
      "duration": 0.0208,
      "velocity": 94,
      "chip": "ym2612"
    },
    {
      "channel": 3,
      "note": 79,
      "start": 45.9004,
      "duration": 0.021,
      "velocity": 94,
      "chip": "ym2612"
    },
    {
      "channel": 2,
      "note": 52,
      "start": 45.9015,
      "duration": 0.0212,
      "velocity": 100,
      "chip": "ym2612"
    },
    {
      "channel": 1,
      "note": 51,
      "start": 45.9145,
      "duration": 0.0155,
      "velocity": 1,
      "chip": "ym2612"
    },
    {
      "channel": 0,
      "note": 36,
      "start": 45.9186,
      "duration": 0.0152,
      "velocity": 115,
      "chip": "ym2612"
    },
    {
      "channel": 4,
      "note": 76,
      "start": 45.9201,
      "duration": 0.015,
      "velocity": 94,
      "chip": "ym2612"
    },
    {
      "channel": 3,
      "note": 79,
      "start": 45.9214,
      "duration": 0.0149,
      "velocity": 94,
      "chip": "ym2612"
    },
    {
      "channel": 2,
      "note": 52,
      "start": 45.9228,
      "duration": 0.0146,
      "velocity": 100,
      "chip": "ym2612"
    },
    {
      "channel": 1,
      "note": 51,
      "start": 45.9321,
      "duration": 0.0136,
      "velocity": 105,
      "chip": "ym2612"
    },
    {
      "channel": 0,
      "note": 36,
      "start": 45.9338,
      "duration": 0.0135,
      "velocity": 115,
      "chip": "ym2612"
    },
    {
      "channel": 4,
      "note": 76,
      "start": 45.9351,
      "duration": 0.0134,
      "velocity": 94,
      "chip": "ym2612"
    },
    {
      "channel": 3,
      "note": 79,
      "start": 45.9362,
      "duration": 0.0134,
      "velocity": 94,
      "chip": "ym2612"
    },
    {
      "channel": 2,
      "note": 52,
      "start": 45.9375,
      "duration": 0.0133,
      "velocity": 100,
      "chip": "ym2612"
    },
    {
      "channel": 1,
      "note": 105,
      "start": 45.9457,
      "duration": 0.0183,
      "velocity": 105,
      "chip": "ym2612"
    },
    {
      "channel": 0,
      "note": 37,
      "start": 45.9473,
      "duration": 0.0183,
      "velocity": 115,
      "chip": "ym2612"
    },
    {
      "channel": 4,
      "note": 76,
      "start": 45.9485,
      "duration": 0.0183,
      "velocity": 94,
      "chip": "ym2612"
    },
    {
      "channel": 3,
      "note": 79,
      "start": 45.9497,
      "duration": 0.0183,
      "velocity": 94,
      "chip": "ym2612"
    },
    {
      "channel": 2,
      "note": 52,
      "start": 45.9507,
      "duration": 0.0183,
      "velocity": 100,
      "chip": "ym2612"
    },
    {
      "channel": 1,
      "note": 105,
      "start": 45.964,
      "duration": 0.0167,
      "velocity": 105,
      "chip": "ym2612"
    },
    {
      "channel": 0,
      "note": 37,
      "start": 45.9656,
      "duration": 0.0167,
      "velocity": 115,
      "chip": "ym2612"
    },
    {
      "channel": 4,
      "note": 76,
      "start": 45.9668,
      "duration": 0.0167,
      "velocity": 94,
      "chip": "ym2612"
    },
    {
      "channel": 3,
      "note": 79,
      "start": 45.9679,
      "duration": 0.0167,
      "velocity": 94,
      "chip": "ym2612"
    },
    {
      "channel": 2,
      "note": 52,
      "start": 45.9691,
      "duration": 0.0167,
      "velocity": 100,
      "chip": "ym2612"
    },
    {
      "channel": 1,
      "note": 105,
      "start": 45.9807,
      "duration": 0.0157,
      "velocity": 105,
      "chip": "ym2612"
    },
    {
      "channel": 0,
      "note": 38,
      "start": 45.9823,
      "duration": 0.0157,
      "velocity": 115,
      "chip": "ym2612"
    },
    {
      "channel": 4,
      "note": 76,
      "start": 45.9834,
      "duration": 0.0158,
      "velocity": 94,
      "chip": "ym2612"
    },
    {
      "channel": 3,
      "note": 79,
      "start": 45.9846,
      "duration": 0.0158,
      "velocity": 94,
      "chip": "ym2612"
    },
    {
      "channel": 2,
      "note": 52,
      "start": 45.9857,
      "duration": 0.0157,
      "velocity": 100,
      "chip": "ym2612"
    },
    {
      "channel": 1,
      "note": 105,
      "start": 45.9963,
      "duration": 0.0141,
      "velocity": 105,
      "chip": "ym2612"
    },
    {
      "channel": 0,
      "note": 38,
      "start": 45.998,
      "duration": 0.0141,
      "velocity": 115,
      "chip": "ym2612"
    },
    {
      "channel": 4,
      "note": 76,
      "start": 45.9992,
      "duration": 0.0141,
      "velocity": 94,
      "chip": "ym2612"
    },
    {
      "channel": 3,
      "note": 79,
      "start": 46.0004,
      "duration": 0.014,
      "velocity": 94,
      "chip": "ym2612"
    },
    {
      "channel": 2,
      "note": 52,
      "start": 46.0015,
      "duration": 0.0141,
      "velocity": 100,
      "chip": "ym2612"
    },
    {
      "channel": 1,
      "note": 105,
      "start": 46.0104,
      "duration": 0.0202,
      "velocity": 124,
      "chip": "ym2612"
    },
    {
      "channel": 0,
      "note": 39,
      "start": 46.0121,
      "duration": 0.022,
      "velocity": 115,
      "chip": "ym2612"
    },
    {
      "channel": 4,
      "note": 76,
      "start": 46.0133,
      "duration": 0.0223,
      "velocity": 94,
      "chip": "ym2612"
    },
    {
      "channel": 3,
      "note": 79,
      "start": 46.0144,
      "duration": 0.0226,
      "velocity": 94,
      "chip": "ym2612"
    },
    {
      "channel": 2,
      "note": 52,
      "start": 46.0155,
      "duration": 0.0229,
      "velocity": 100,
      "chip": "ym2612"
    },
    {
      "channel": 1,
      "note": 64,
      "start": 46.0307,
      "duration": 0.0121,
      "velocity": 124,
      "chip": "ym2612"
    },
    {
      "channel": 0,
      "note": 36,
      "start": 46.0341,
      "duration": 0.0131,
      "velocity": 115,
      "chip": "ym2612"
    },
    {
      "channel": 4,
      "note": 79,
      "start": 46.0356,
      "duration": 0.0129,
      "velocity": 94,
      "chip": "ym2612"
    },
    {
      "channel": 3,
      "note": 76,
      "start": 46.037,
      "duration": 0.0127,
      "velocity": 94,
      "chip": "ym2612"
    },
    {
      "channel": 2,
      "note": 52,
      "start": 46.0384,
      "duration": 0.0125,
      "velocity": 100,
      "chip": "ym2612"
    },
    {
      "channel": 1,
      "note": 64,
      "start": 46.0428,
      "duration": 0.0156,
      "velocity": 124,
      "chip": "ym2612"
    },
    {
      "channel": 0,
      "note": 36,
      "start": 46.0473,
      "duration": 0.0152,
      "velocity": 115,
      "chip": "ym2612"
    },
    {
      "channel": 4,
      "note": 79,
      "start": 46.0485,
      "duration": 0.0151,
      "velocity": 94,
      "chip": "ym2612"
    },
    {
      "channel": 3,
      "note": 76,
      "start": 46.0497,
      "duration": 0.015,
      "velocity": 94,
      "chip": "ym2612"
    },
    {
      "channel": 2,
      "note": 52,
      "start": 46.0509,
      "duration": 0.015,
      "velocity": 100,
      "chip": "ym2612"
    },
    {
      "channel": 1,
      "note": 64,
      "start": 46.0584,
      "duration": 0.0161,
      "velocity": 124,
      "chip": "ym2612"
    },
    {
      "channel": 0,
      "note": 37,
      "start": 46.0624,
      "duration": 0.0137,
      "velocity": 115,
      "chip": "ym2612"
    },
    {
      "channel": 4,
      "note": 79,
      "start": 46.0636,
      "duration": 0.0141,
      "velocity": 94,
      "chip": "ym2612"
    },
    {
      "channel": 3,
      "note": 76,
      "start": 46.0647,
      "duration": 0.0141,
      "velocity": 94,
      "chip": "ym2612"
    },
    {
      "channel": 2,
      "note": 52,
      "start": 46.0659,
      "duration": 0.0141,
      "velocity": 100,
      "chip": "ym2612"
    },
    {
      "channel": 1,
      "note": 64,
      "start": 46.0745,
      "duration": 0.0161,
      "velocity": 124,
      "chip": "ym2612"
    },
    {
      "channel": 0,
      "note": 37,
      "start": 46.0762,
      "duration": 0.0161,
      "velocity": 115,
      "chip": "ym2612"
    },
    {
      "channel": 4,
      "note": 79,
      "start": 46.0777,
      "duration": 0.0185,
      "velocity": 94,
      "chip": "ym2612"
    },
    {
      "channel": 3,
      "note": 76,
      "start": 46.0788,
      "duration": 0.0185,
      "velocity": 94,
      "chip": "ym2612"
    },
    {
      "channel": 2,
      "note": 52,
      "start": 46.08,
      "duration": 0.0185,
      "velocity": 100,
      "chip": "ym2612"
    },
    {
      "channel": 1,
      "note": 64,
      "start": 46.0906,
      "duration": 0.0161,
      "velocity": 124,
      "chip": "ym2612"
    },
    {
      "channel": 0,
      "note": 38,
      "start": 46.0923,
      "duration": 0.0161,
      "velocity": 115,
      "chip": "ym2612"
    },
    {
      "channel": 4,
      "note": 79,
      "start": 46.0962,
      "duration": 0.0134,
      "velocity": 94,
      "chip": "ym2612"
    },
    {
      "channel": 3,
      "note": 76,
      "start": 46.0973,
      "duration": 0.0161,
      "velocity": 94,
      "chip": "ym2612"
    },
    {
      "channel": 2,
      "note": 52,
      "start": 46.0985,
      "duration": 0.0161,
      "velocity": 100,
      "chip": "ym2612"
    },
    {
      "channel": 1,
      "note": 64,
      "start": 46.1067,
      "duration": 0.0161,
      "velocity": 124,
      "chip": "ym2612"
    },
    {
      "channel": 0,
      "note": 38,
      "start": 46.1084,
      "duration": 0.0161,
      "velocity": 115,
      "chip": "ym2612"
    },
    {
      "channel": 4,
      "note": 79,
      "start": 46.1095,
      "duration": 0.0161,
      "velocity": 94,
      "chip": "ym2612"
    },
    {
      "channel": 3,
      "note": 76,
      "start": 46.1134,
      "duration": 0.0158,
      "velocity": 94,
      "chip": "ym2612"
    },
    {
      "channel": 2,
      "note": 52,
      "start": 46.1146,
      "duration": 0.0157,
      "velocity": 100,
      "chip": "ym2612"
    },
    {
      "channel": 1,
      "note": 64,
      "start": 46.1228,
      "duration": 0.0178,
      "velocity": 105,
      "chip": "ym2612"
    },
    {
      "channel": 0,
      "note": 39,
      "start": 46.1245,
      "duration": 0.0178,
      "velocity": 115,
      "chip": "ym2612"
    },
    {
      "channel": 4,
      "note": 79,
      "start": 46.1256,
      "duration": 0.0183,
      "velocity": 94,
      "chip": "ym2612"
    },
    {
      "channel": 3,
      "note": 76,
      "start": 46.1292,
      "duration": 0.0161,
      "velocity": 94,
      "chip": "ym2612"
    },
    {
      "channel": 2,
      "note": 52,
      "start": 46.1303,
      "duration": 0.0165,
      "velocity": 100,
      "chip": "ym2612"
    },
    {
      "channel": 1,
      "note": 105,
      "start": 46.1406,
      "duration": 0.0144,
      "velocity": 105,
      "chip": "ym2612"
    },
    {
      "channel": 0,
      "note": 39,
      "start": 46.1423,
      "duration": 0.0144,
      "velocity": 115,
      "chip": "ym2612"
    },
    {
      "channel": 4,
      "note": 79,
      "start": 46.1439,
      "duration": 0.0141,
      "velocity": 94,
      "chip": "ym2612"
    },
    {
      "channel": 3,
      "note": 79,
      "start": 46.1453,
      "duration": 0.0139,
      "velocity": 94,
      "chip": "ym2612"
    },
    {
      "channel": 2,
      "note": 52,
      "start": 46.1467,
      "duration": 0.0163,
      "velocity": 100,
      "chip": "ym2612"
    },
    {
      "channel": 1,
      "note": 105,
      "start": 46.155,
      "duration": 0.0161,
      "velocity": 105,
      "chip": "ym2612"
    },
    {
      "channel": 0,
      "note": 40,
      "start": 46.1567,
      "duration": 0.016,
      "velocity": 115,
      "chip": "ym2612"
    },
    {
      "channel": 4,
      "note": 79,
      "start": 46.1579,
      "duration": 0.016,
      "velocity": 94,
      "chip": "ym2612"
    },
    {
      "channel": 3,
      "note": 79,
      "start": 46.1591,
      "duration": 0.0159,
      "velocity": 94,
      "chip": "ym2612"
    },
    {
      "channel": 2,
      "note": 52,
      "start": 46.1631,
      "duration": 0.0131,
      "velocity": 100,
      "chip": "ym2612"
    },
    {
      "channel": 1,
      "note": 105,
      "start": 46.1711,
      "duration": 0.0161,
      "velocity": 105,
      "chip": "ym2612"
    },
    {
      "channel": 0,
      "note": 40,
      "start": 46.1728,
      "duration": 0.0161,
      "velocity": 115,
      "chip": "ym2612"
    },
    {
      "channel": 4,
      "note": 79,
      "start": 46.1739,
      "duration": 0.0161,
      "velocity": 94,
      "chip": "ym2612"
    },
    {
      "channel": 3,
      "note": 79,
      "start": 46.1751,
      "duration": 0.0161,
      "velocity": 94,
      "chip": "ym2612"
    },
    {
      "channel": 2,
      "note": 52,
      "start": 46.1762,
      "duration": 0.0161,
      "velocity": 100,
      "chip": "ym2612"
    },
    {
      "channel": 1,
      "note": 105,
      "start": 46.1872,
      "duration": 0.0161,
      "velocity": 105,
      "chip": "ym2612"
    },
    {
      "channel": 0,
      "note": 40,
      "start": 46.1888,
      "duration": 0.0161,
      "velocity": 115,
      "chip": "ym2612"
    },
    {
      "channel": 4,
      "note": 79,
      "start": 46.19,
      "duration": 0.0162,
      "velocity": 94,
      "chip": "ym2612"
    },
    {
      "channel": 3,
      "note": 79,
      "start": 46.1911,
      "duration": 0.0162,
      "velocity": 94,
      "chip": "ym2612"
    },
    {
      "channel": 2,
      "note": 52,
      "start": 46.1923,
      "duration": 0.0161,
      "velocity": 100,
      "chip": "ym2612"
    },
    {
      "channel": 1,
      "note": 105,
      "start": 46.2033,
      "duration": 0.0161,
      "velocity": 105,
      "chip": "ym2612"
    },
    {
      "channel": 0,
      "note": 41,
      "start": 46.2049,
      "duration": 0.0161,
      "velocity": 115,
      "chip": "ym2612"
    },
    {
      "channel": 4,
      "note": 79,
      "start": 46.2062,
      "duration": 0.0161,
      "velocity": 94,
      "chip": "ym2612"
    },
    {
      "channel": 3,
      "note": 79,
      "start": 46.2073,
      "duration": 0.0161,
      "velocity": 94,
      "chip": "ym2612"
    },
    {
      "channel": 2,
      "note": 52,
      "start": 46.2084,
      "duration": 0.0161,
      "velocity": 100,
      "chip": "ym2612"
    },
    {
      "channel": 1,
      "note": 105,
      "start": 46.2194,
      "duration": 0.0161,
      "velocity": 105,
      "chip": "ym2612"
    },
    {
      "channel": 0,
      "note": 41,
      "start": 46.221,
      "duration": 0.0161,
      "velocity": 115,
      "chip": "ym2612"
    },
    {
      "channel": 4,
      "note": 79,
      "start": 46.2222,
      "duration": 0.0161,
      "velocity": 94,
      "chip": "ym2612"
    },
    {
      "channel": 3,
      "note": 79,
      "start": 46.2234,
      "duration": 0.0161,
      "velocity": 94,
      "chip": "ym2612"
    },
    {
      "channel": 2,
      "note": 52,
      "start": 46.2245,
      "duration": 0.0161,
      "velocity": 100,
      "chip": "ym2612"
    },
    {
      "channel": 1,
      "note": 105,
      "start": 46.2355,
      "duration": 0.0178,
      "velocity": 124,
      "chip": "ym2612"
    },
    {
      "channel": 0,
      "note": 42,
      "start": 46.2371,
      "duration": 0.0179,
      "velocity": 115,
      "chip": "ym2612"
    },
    {
      "channel": 4,
      "note": 79,
      "start": 46.2383,
      "duration": 0.0181,
      "velocity": 94,
      "chip": "ym2612"
    },
    {
      "channel": 3,
      "note": 79,
      "start": 46.2395,
      "duration": 0.0182,
      "velocity": 94,
      "chip": "ym2612"
    },
    {
      "channel": 2,
      "note": 52,
      "start": 46.2406,
      "duration": 0.0185,
      "velocity": 100,
      "chip": "ym2612"
    },
    {
      "channel": 1,
      "note": 64,
      "start": 46.2534,
      "duration": 0.0144,
      "velocity": 124,
      "chip": "ym2612"
    },
    {
      "channel": 0,
      "note": 42,
      "start": 46.255,
      "duration": 0.0144,
      "velocity": 115,
      "chip": "ym2612"
    },
    {
      "channel": 4,
      "note": 76,
      "start": 46.2564,
      "duration": 0.0142,
      "velocity": 94,
      "chip": "ym2612"
    },
    {
      "channel": 3,
      "note": 79,
      "start": 46.2577,
      "duration": 0.0142,
      "velocity": 94,
      "chip": "ym2612"
    },
    {
      "channel": 2,
      "note": 52,
      "start": 46.2591,
      "duration": 0.0139,
      "velocity": 100,
      "chip": "ym2612"
    },
    {
      "channel": 1,
      "note": 64,
      "start": 46.2677,
      "duration": 0.0161,
      "velocity": 124,
      "chip": "ym2612"
    },
    {
      "channel": 0,
      "note": 43,
      "start": 46.2695,
      "duration": 0.016,
      "velocity": 115,
      "chip": "ym2612"
    },
    {
      "channel": 4,
      "note": 76,
      "start": 46.2707,
      "duration": 0.016,
      "velocity": 94,
      "chip": "ym2612"
    },
    {
      "channel": 3,
      "note": 79,
      "start": 46.2719,
      "duration": 0.0159,
      "velocity": 94,
      "chip": "ym2612"
    },
    {
      "channel": 2,
      "note": 52,
      "start": 46.273,
      "duration": 0.0159,
      "velocity": 100,
      "chip": "ym2612"
    },
    {
      "channel": 1,
      "note": 64,
      "start": 46.2838,
      "duration": 0.0161,
      "velocity": 124,
      "chip": "ym2612"
    },
    {
      "channel": 0,
      "note": 43,
      "start": 46.2855,
      "duration": 0.0161,
      "velocity": 115,
      "chip": "ym2612"
    },
    {
      "channel": 4,
      "note": 76,
      "start": 46.2867,
      "duration": 0.0161,
      "velocity": 94,
      "chip": "ym2612"
    },
    {
      "channel": 3,
      "note": 79,
      "start": 46.2878,
      "duration": 0.0161,
      "velocity": 94,
      "chip": "ym2612"
    },
    {
      "channel": 2,
      "note": 52,
      "start": 46.2889,
      "duration": 0.0161,
      "velocity": 100,
      "chip": "ym2612"
    },
    {
      "channel": 1,
      "note": 64,
      "start": 46.2999,
      "duration": 0.0161,
      "velocity": 124,
      "chip": "ym2612"
    },
    {
      "channel": 0,
      "note": 44,
      "start": 46.3016,
      "duration": 0.0161,
      "velocity": 115,
      "chip": "ym2612"
    },
    {
      "channel": 4,
      "note": 76,
      "start": 46.3028,
      "duration": 0.0161,
      "velocity": 94,
      "chip": "ym2612"
    },
    {
      "channel": 3,
      "note": 79,
      "start": 46.3039,
      "duration": 0.0161,
      "velocity": 94,
      "chip": "ym2612"
    },
    {
      "channel": 2,
      "note": 52,
      "start": 46.305,
      "duration": 0.0161,
      "velocity": 100,
      "chip": "ym2612"
    },
    {
      "channel": 1,
      "note": 64,
      "start": 46.316,
      "duration": 0.0161,
      "velocity": 124,
      "chip": "ym2612"
    },
    {
      "channel": 0,
      "note": 44,
      "start": 46.3177,
      "duration": 0.0161,
      "velocity": 115,
      "chip": "ym2612"
    },
    {
      "channel": 4,
      "note": 76,
      "start": 46.3189,
      "duration": 0.0161,
      "velocity": 94,
      "chip": "ym2612"
    },
    {
      "channel": 3,
      "note": 79,
      "start": 46.32,
      "duration": 0.0161,
      "velocity": 94,
      "chip": "ym2612"
    },
    {
      "channel": 2,
      "note": 52,
      "start": 46.3211,
      "duration": 0.0161,
      "velocity": 100,
      "chip": "ym2612"
    },
    {
      "channel": 1,
      "note": 64,
      "start": 46.3321,
      "duration": 0.0161,
      "velocity": 124,
      "chip": "ym2612"
    },
    {
      "channel": 0,
      "note": 44,
      "start": 46.3338,
      "duration": 0.0161,
      "velocity": 115,
      "chip": "ym2612"
    },
    {
      "channel": 4,
      "note": 76,
      "start": 46.335,
      "duration": 0.0161,
      "velocity": 94,
      "chip": "ym2612"
    },
    {
      "channel": 3,
      "note": 79,
      "start": 46.3361,
      "duration": 0.0161,
      "velocity": 94,
      "chip": "ym2612"
    },
    {
      "channel": 2,
      "note": 52,
      "start": 46.3372,
      "duration": 0.0161,
      "velocity": 100,
      "chip": "ym2612"
    },
    {
      "channel": 1,
      "note": 64,
      "start": 46.3482,
      "duration": 0.0178,
      "velocity": 105,
      "chip": "ym2612"
    },
    {
      "channel": 0,
      "note": 45,
      "start": 46.3499,
      "duration": 0.0178,
      "velocity": 115,
      "chip": "ym2612"
    },
    {
      "channel": 4,
      "note": 76,
      "start": 46.3511,
      "duration": 0.018,
      "velocity": 94,
      "chip": "ym2612"
    },
    {
      "channel": 3,
      "note": 79,
      "start": 46.3522,
      "duration": 0.0183,
      "velocity": 94,
      "chip": "ym2612"
    },
    {
      "channel": 2,
      "note": 52,
      "start": 46.3533,
      "duration": 0.0186,
      "velocity": 100,
      "chip": "ym2612"
    },
    {
      "channel": 1,
      "note": 105,
      "start": 46.366,
      "duration": 0.0146,
      "velocity": 105,
      "chip": "ym2612"
    },
    {
      "channel": 0,
      "note": 45,
      "start": 46.3677,
      "duration": 0.0147,
      "velocity": 115,
      "chip": "ym2612"
    },
    {
      "channel": 4,
      "note": 79,
      "start": 46.3691,
      "duration": 0.0144,
      "velocity": 94,
      "chip": "ym2612"
    },
    {
      "channel": 3,
      "note": 76,
      "start": 46.3705,
      "duration": 0.0142,
      "velocity": 94,
      "chip": "ym2612"
    },
    {
      "channel": 2,
      "note": 52,
      "start": 46.3719,
      "duration": 0.0141,
      "velocity": 100,
      "chip": "ym2612"
    },
    {
      "channel": 1,
      "note": 105,
      "start": 46.3807,
      "duration": 0.0163,
      "velocity": 105,
      "chip": "ym2612"
    },
    {
      "channel": 0,
      "note": 46,
      "start": 46.3824,
      "duration": 0.0162,
      "velocity": 115,
      "chip": "ym2612"
    },
    {
      "channel": 4,
      "note": 79,
      "start": 46.3836,
      "duration": 0.0162,
      "velocity": 94,
      "chip": "ym2612"
    },
    {
      "channel": 3,
      "note": 76,
      "start": 46.3848,
      "duration": 0.0161,
      "velocity": 94,
      "chip": "ym2612"
    },
    {
      "channel": 2,
      "note": 52,
      "start": 46.386,
      "duration": 0.016,
      "velocity": 100,
      "chip": "ym2612"
    },
    {
      "channel": 1,
      "note": 105,
      "start": 46.3969,
      "duration": 0.0156,
      "velocity": 105,
      "chip": "ym2612"
    },
    {
      "channel": 0,
      "note": 46,
      "start": 46.3986,
      "duration": 0.0156,
      "velocity": 115,
      "chip": "ym2612"
    },
    {
      "channel": 4,
      "note": 79,
      "start": 46.3998,
      "duration": 0.0156,
      "velocity": 94,
      "chip": "ym2612"
    },
    {
      "channel": 3,
      "note": 76,
      "start": 46.4009,
      "duration": 0.0157,
      "velocity": 94,
      "chip": "ym2612"
    },
    {
      "channel": 2,
      "note": 52,
      "start": 46.402,
      "duration": 0.0156,
      "velocity": 100,
      "chip": "ym2612"
    },
    {
      "channel": 1,
      "note": 105,
      "start": 46.4126,
      "duration": 0.0181,
      "velocity": 105,
      "chip": "ym2612"
    },
    {
      "channel": 0,
      "note": 47,
      "start": 46.4142,
      "duration": 0.0181,
      "velocity": 115,
      "chip": "ym2612"
    },
    {
      "channel": 4,
      "note": 79,
      "start": 46.4154,
      "duration": 0.018,
      "velocity": 94,
      "chip": "ym2612"
    },
    {
      "channel": 3,
      "note": 76,
      "start": 46.4166,
      "duration": 0.018,
      "velocity": 94,
      "chip": "ym2612"
    },
    {
      "channel": 2,
      "note": 52,
      "start": 46.4177,
      "duration": 0.0181,
      "velocity": 100,
      "chip": "ym2612"
    },
    {
      "channel": 1,
      "note": 105,
      "start": 46.4307,
      "duration": 0.0167,
      "velocity": 105,
      "chip": "ym2612"
    },
    {
      "channel": 0,
      "note": 47,
      "start": 46.4323,
      "duration": 0.0167,
      "velocity": 115,
      "chip": "ym2612"
    },
    {
      "channel": 4,
      "note": 79,
      "start": 46.4334,
      "duration": 0.0167,
      "velocity": 94,
      "chip": "ym2612"
    },
    {
      "channel": 3,
      "note": 76,
      "start": 46.4346,
      "duration": 0.0167,
      "velocity": 94,
      "chip": "ym2612"
    },
    {
      "channel": 2,
      "note": 52,
      "start": 46.4357,
      "duration": 0.0167,
      "velocity": 100,
      "chip": "ym2612"
    },
    {
      "channel": 1,
      "note": 105,
      "start": 46.4473,
      "duration": 0.016,
      "velocity": 105,
      "chip": "ym2612"
    },
    {
      "channel": 0,
      "note": 47,
      "start": 46.449,
      "duration": 0.016,
      "velocity": 115,
      "chip": "ym2612"
    },
    {
      "channel": 4,
      "note": 79,
      "start": 46.4501,
      "duration": 0.016,
      "velocity": 94,
      "chip": "ym2612"
    },
    {
      "channel": 3,
      "note": 76,
      "start": 46.4513,
      "duration": 0.016,
      "velocity": 94,
      "chip": "ym2612"
    },
    {
      "channel": 2,
      "note": 52,
      "start": 46.4524,
      "duration": 0.016,
      "velocity": 100,
      "chip": "ym2612"
    },
    {
      "channel": 1,
      "note": 105,
      "start": 46.4633,
      "duration": 0.0163,
      "velocity": 124,
      "chip": "ym2612"
    },
    {
      "channel": 0,
      "note": 48,
      "start": 46.4649,
      "duration": 0.0171,
      "velocity": 115,
      "chip": "ym2612"
    },
    {
      "channel": 4,
      "note": 79,
      "start": 46.4661,
      "duration": 0.0172,
      "velocity": 94,
      "chip": "ym2612"
    },
    {
      "channel": 3,
      "note": 76,
      "start": 46.4673,
      "duration": 0.0174,
      "velocity": 94,
      "chip": "ym2612"
    },
    {
      "channel": 2,
      "note": 52,
      "start": 46.4684,
      "duration": 0.0178,
      "velocity": 100,
      "chip": "ym2612"
    },
    {
      "channel": 1,
      "note": 78,
      "start": 46.4796,
      "duration": 0.0168,
      "velocity": 124,
      "chip": "ym2612"
    },
    {
      "channel": 0,
      "note": 48,
      "start": 46.482,
      "duration": 0.0163,
      "velocity": 115,
      "chip": "ym2612"
    },
    {
      "channel": 4,
      "note": 79,
      "start": 46.4833,
      "duration": 0.0162,
      "velocity": 94,
      "chip": "ym2612"
    },
    {
      "channel": 3,
      "note": 79,
      "start": 46.4847,
      "duration": 0.016,
      "velocity": 94,
      "chip": "ym2612"
    },
    {
      "channel": 2,
      "note": 52,
      "start": 46.4862,
      "duration": 0.0158,
      "velocity": 100,
      "chip": "ym2612"
    },
    {
      "channel": 1,
      "note": 76,
      "start": 46.4964,
      "duration": 0.0133,
      "velocity": 124,
      "chip": "ym2612"
    },
    {
      "channel": 0,
      "note": 49,
      "start": 46.4983,
      "duration": 0.0152,
      "velocity": 1,
      "chip": "ym2612"
    },
    {
      "channel": 4,
      "note": 79,
      "start": 46.4995,
      "duration": 0.0151,
      "velocity": 94,
      "chip": "ym2612"
    },
    {
      "channel": 3,
      "note": 79,
      "start": 46.5007,
      "duration": 0.0151,
      "velocity": 94,
      "chip": "ym2612"
    },
    {
      "channel": 2,
      "note": 52,
      "start": 46.502,
      "duration": 0.015,
      "velocity": 100,
      "chip": "ym2612"
    },
    {
      "channel": 1,
      "note": 75,
      "start": 46.5097,
      "duration": 0.0161,
      "velocity": 124,
      "chip": "ym2612"
    },
    {
      "channel": 4,
      "note": 79,
      "start": 46.5147,
      "duration": 0.0149,
      "velocity": 94,
      "chip": "ym2612"
    },
    {
      "channel": 3,
      "note": 79,
      "start": 46.5158,
      "duration": 0.0149,
      "velocity": 94,
      "chip": "ym2612"
    },
    {
      "channel": 2,
      "note": 52,
      "start": 46.517,
      "duration": 0.0149,
      "velocity": 100,
      "chip": "ym2612"
    },
    {
      "channel": 1,
      "note": 74,
      "start": 46.5258,
      "duration": 0.0161,
      "velocity": 124,
      "chip": "ym2612"
    },
    {
      "channel": 4,
      "note": 79,
      "start": 46.5296,
      "duration": 0.0141,
      "velocity": 94,
      "chip": "ym2612"
    },
    {
      "channel": 3,
      "note": 79,
      "start": 46.5307,
      "duration": 0.0141,
      "velocity": 94,
      "chip": "ym2612"
    },
    {
      "channel": 2,
      "note": 52,
      "start": 46.5319,
      "duration": 0.0141,
      "velocity": 100,
      "chip": "ym2612"
    },
    {
      "channel": 1,
      "note": 72,
      "start": 46.5419,
      "duration": 0.0161,
      "velocity": 124,
      "chip": "ym2612"
    },
    {
      "channel": 4,
      "note": 79,
      "start": 46.5436,
      "duration": 0.0158,
      "velocity": 94,
      "chip": "ym2612"
    },
    {
      "channel": 3,
      "note": 79,
      "start": 46.5448,
      "duration": 0.0185,
      "velocity": 94,
      "chip": "ym2612"
    },
    {
      "channel": 2,
      "note": 52,
      "start": 46.5459,
      "duration": 0.0185,
      "velocity": 100,
      "chip": "ym2612"
    },
    {
      "channel": 1,
      "note": 71,
      "start": 46.558,
      "duration": 0.0161,
      "velocity": 124,
      "chip": "ym2612"
    },
    {
      "channel": 4,
      "note": 79,
      "start": 46.5594,
      "duration": 0.0161,
      "velocity": 94,
      "chip": "ym2612"
    },
    {
      "channel": 3,
      "note": 79,
      "start": 46.5633,
      "duration": 0.0161,
      "velocity": 94,
      "chip": "ym2612"
    },
    {
      "channel": 2,
      "note": 52,
      "start": 46.5644,
      "duration": 0.0161,
      "velocity": 100,
      "chip": "ym2612"
    },
    {
      "channel": 1,
      "note": 70,
      "start": 46.5741,
      "duration": 0.0161,
      "velocity": 124,
      "chip": "ym2612"
    },
    {
      "channel": 4,
      "note": 79,
      "start": 46.5755,
      "duration": 0.0169,
      "velocity": 94,
      "chip": "ym2612"
    },
    {
      "channel": 3,
      "note": 79,
      "start": 46.5794,
      "duration": 0.0167,
      "velocity": 94,
      "chip": "ym2612"
    },
    {
      "channel": 2,
      "note": 52,
      "start": 46.5805,
      "duration": 0.0169,
      "velocity": 100,
      "chip": "ym2612"
    },
    {
      "channel": 1,
      "note": 69,
      "start": 46.5902,
      "duration": 0.0161,
      "velocity": 124,
      "chip": "ym2612"
    },
    {
      "channel": 4,
      "note": 81,
      "start": 46.5924,
      "duration": 0.0154,
      "velocity": 94,
      "chip": "ym2612"
    },
    {
      "channel": 3,
      "note": 79,
      "start": 46.596,
      "duration": 0.013,
      "velocity": 94,
      "chip": "ym2612"
    },
    {
      "channel": 2,
      "note": 52,
      "start": 46.5975,
      "duration": 0.013,
      "velocity": 100,
      "chip": "ym2612"
    },
    {
      "channel": 1,
      "note": 68,
      "start": 46.6063,
      "duration": 0.0162,
      "velocity": 124,
      "chip": "ym2612"
    },
    {
      "channel": 4,
      "note": 81,
      "start": 46.6078,
      "duration": 0.016,
      "velocity": 94,
      "chip": "ym2612"
    },
    {
      "channel": 3,
      "note": 79,
      "start": 46.609,
      "duration": 0.0159,
      "velocity": 94,
      "chip": "ym2612"
    },
    {
      "channel": 2,
      "note": 52,
      "start": 46.6105,
      "duration": 0.0155,
      "velocity": 100,
      "chip": "ym2612"
    },
    {
      "channel": 1,
      "note": 66,
      "start": 46.6224,
      "duration": 0.0161,
      "velocity": 124,
      "chip": "ym2612"
    },
    {
      "channel": 4,
      "note": 81,
      "start": 46.6238,
      "duration": 0.0161,
      "velocity": 94,
      "chip": "ym2612"
    },
    {
      "channel": 3,
      "note": 79,
      "start": 46.6249,
      "duration": 0.0161,
      "velocity": 94,
      "chip": "ym2612"
    },
    {
      "channel": 2,
      "note": 52,
      "start": 46.6261,
      "duration": 0.0161,
      "velocity": 100,
      "chip": "ym2612"
    },
    {
      "channel": 1,
      "note": 65,
      "start": 46.6385,
      "duration": 0.0161,
      "velocity": 124,
      "chip": "ym2612"
    },
    {
      "channel": 4,
      "note": 81,
      "start": 46.6399,
      "duration": 0.0162,
      "velocity": 94,
      "chip": "ym2612"
    },
    {
      "channel": 3,
      "note": 79,
      "start": 46.641,
      "duration": 0.0161,
      "velocity": 94,
      "chip": "ym2612"
    },
    {
      "channel": 2,
      "note": 52,
      "start": 46.6422,
      "duration": 0.0162,
      "velocity": 100,
      "chip": "ym2612"
    },
    {
      "channel": 1,
      "note": 64,
      "start": 46.6546,
      "duration": 0.0161,
      "velocity": 124,
      "chip": "ym2612"
    },
    {
      "channel": 4,
      "note": 81,
      "start": 46.656,
      "duration": 0.0161,
      "velocity": 94,
      "chip": "ym2612"
    },
    {
      "channel": 3,
      "note": 79,
      "start": 46.6572,
      "duration": 0.0161,
      "velocity": 94,
      "chip": "ym2612"
    },
    {
      "channel": 2,
      "note": 52,
      "start": 46.6583,
      "duration": 0.0161,
      "velocity": 100,
      "chip": "ym2612"
    },
    {
      "channel": 1,
      "note": 62,
      "start": 46.6707,
      "duration": 0.0161,
      "velocity": 124,
      "chip": "ym2612"
    },
    {
      "channel": 4,
      "note": 81,
      "start": 46.6721,
      "duration": 0.0161,
      "velocity": 94,
      "chip": "ym2612"
    },
    {
      "channel": 3,
      "note": 79,
      "start": 46.6733,
      "duration": 0.0161,
      "velocity": 94,
      "chip": "ym2612"
    },
    {
      "channel": 2,
      "note": 52,
      "start": 46.6744,
      "duration": 0.0161,
      "velocity": 100,
      "chip": "ym2612"
    },
    {
      "channel": 1,
      "note": 61,
      "start": 46.6868,
      "duration": 0.0161,
      "velocity": 124,
      "chip": "ym2612"
    },
    {
      "channel": 4,
      "note": 81,
      "start": 46.6882,
      "duration": 0.0167,
      "velocity": 94,
      "chip": "ym2612"
    },
    {
      "channel": 3,
      "note": 79,
      "start": 46.6894,
      "duration": 0.0169,
      "velocity": 94,
      "chip": "ym2612"
    },
    {
      "channel": 2,
      "note": 52,
      "start": 46.6905,
      "duration": 0.0173,
      "velocity": 100,
      "chip": "ym2612"
    },
    {
      "channel": 1,
      "note": 60,
      "start": 46.7029,
      "duration": 0.0161,
      "velocity": 124,
      "chip": "ym2612"
    },
    {
      "channel": 4,
      "note": 81,
      "start": 46.7049,
      "duration": 0.0156,
      "velocity": 94,
      "chip": "ym2612"
    },
    {
      "channel": 3,
      "note": 81,
      "start": 46.7063,
      "duration": 0.0154,
      "velocity": 94,
      "chip": "ym2612"
    },
    {
      "channel": 2,
      "note": 52,
      "start": 46.7078,
      "duration": 0.0151,
      "velocity": 100,
      "chip": "ym2612"
    },
    {
      "channel": 1,
      "note": 59,
      "start": 46.719,
      "duration": 0.0161,
      "velocity": 124,
      "chip": "ym2612"
    },
    {
      "channel": 4,
      "note": 81,
      "start": 46.7205,
      "duration": 0.016,
      "velocity": 94,
      "chip": "ym2612"
    },
    {
      "channel": 3,
      "note": 81,
      "start": 46.7217,
      "duration": 0.0159,
      "velocity": 94,
      "chip": "ym2612"
    },
    {
      "channel": 2,
      "note": 52,
      "start": 46.7229,
      "duration": 0.0159,
      "velocity": 100,
      "chip": "ym2612"
    },
    {
      "channel": 1,
      "note": 57,
      "start": 46.7351,
      "duration": 0.0161,
      "velocity": 124,
      "chip": "ym2612"
    },
    {
      "channel": 4,
      "note": 81,
      "start": 46.7365,
      "duration": 0.0161,
      "velocity": 94,
      "chip": "ym2612"
    },
    {
      "channel": 3,
      "note": 81,
      "start": 46.7376,
      "duration": 0.0161,
      "velocity": 94,
      "chip": "ym2612"
    },
    {
      "channel": 2,
      "note": 52,
      "start": 46.7388,
      "duration": 0.0161,
      "velocity": 100,
      "chip": "ym2612"
    },
    {
      "channel": 1,
      "note": 56,
      "start": 46.7512,
      "duration": 0.0161,
      "velocity": 124,
      "chip": "ym2612"
    },
    {
      "channel": 4,
      "note": 81,
      "start": 46.7526,
      "duration": 0.0161,
      "velocity": 94,
      "chip": "ym2612"
    },
    {
      "channel": 3,
      "note": 81,
      "start": 46.7537,
      "duration": 0.0161,
      "velocity": 94,
      "chip": "ym2612"
    },
    {
      "channel": 2,
      "note": 52,
      "start": 46.7549,
      "duration": 0.0161,
      "velocity": 100,
      "chip": "ym2612"
    },
    {
      "channel": 1,
      "note": 55,
      "start": 46.7673,
      "duration": 0.0162,
      "velocity": 124,
      "chip": "ym2612"
    },
    {
      "channel": 4,
      "note": 81,
      "start": 46.7687,
      "duration": 0.0161,
      "velocity": 94,
      "chip": "ym2612"
    },
    {
      "channel": 3,
      "note": 81,
      "start": 46.7698,
      "duration": 0.0161,
      "velocity": 94,
      "chip": "ym2612"
    },
    {
      "channel": 2,
      "note": 52,
      "start": 46.771,
      "duration": 0.0161,
      "velocity": 100,
      "chip": "ym2612"
    },
    {
      "channel": 1,
      "note": 53,
      "start": 46.7834,
      "duration": 0.0161,
      "velocity": 124,
      "chip": "ym2612"
    },
    {
      "channel": 4,
      "note": 81,
      "start": 46.7848,
      "duration": 0.0161,
      "velocity": 94,
      "chip": "ym2612"
    },
    {
      "channel": 3,
      "note": 81,
      "start": 46.7859,
      "duration": 0.0162,
      "velocity": 94,
      "chip": "ym2612"
    },
    {
      "channel": 2,
      "note": 52,
      "start": 46.7871,
      "duration": 0.0161,
      "velocity": 100,
      "chip": "ym2612"
    },
    {
      "channel": 1,
      "note": 52,
      "start": 46.7995,
      "duration": 0.0161,
      "velocity": 124,
      "chip": "ym2612"
    },
    {
      "channel": 4,
      "note": 81,
      "start": 46.8009,
      "duration": 0.0204,
      "velocity": 94,
      "chip": "ym2612"
    },
    {
      "channel": 3,
      "note": 81,
      "start": 46.8021,
      "duration": 0.0205,
      "velocity": 94,
      "chip": "ym2612"
    },
    {
      "channel": 2,
      "note": 52,
      "start": 46.8032,
      "duration": 0.0207,
      "velocity": 100,
      "chip": "ym2612"
    },
    {
      "channel": 1,
      "note": 51,
      "start": 46.8156,
      "duration": 0.0153,
      "velocity": 1,
      "chip": "ym2612"
    },
    {
      "channel": 0,
      "note": 78,
      "start": 46.8199,
      "duration": 0.015,
      "velocity": 127,
      "chip": "ym2612"
    },
    {
      "channel": 4,
      "note": 76,
      "start": 46.8213,
      "duration": 0.0148,
      "velocity": 94,
      "chip": "ym2612"
    },
    {
      "channel": 3,
      "note": 81,
      "start": 46.8226,
      "duration": 0.0147,
      "velocity": 94,
      "chip": "ym2612"
    },
    {
      "channel": 2,
      "note": 52,
      "start": 46.824,
      "duration": 0.0144,
      "velocity": 100,
      "chip": "ym2612"
    },
    {
      "channel": 1,
      "note": 51,
      "start": 46.8331,
      "duration": 0.0142,
      "velocity": 105,
      "chip": "ym2612"
    },
    {
      "channel": 0,
      "note": 76,
      "start": 46.8349,
      "duration": 0.0142,
      "velocity": 127,
      "chip": "ym2612"
    },
    {
      "channel": 4,
      "note": 76,
      "start": 46.8361,
      "duration": 0.0141,
      "velocity": 94,
      "chip": "ym2612"
    },
    {
      "channel": 3,
      "note": 81,
      "start": 46.8373,
      "duration": 0.0141,
      "velocity": 94,
      "chip": "ym2612"
    },
    {
      "channel": 2,
      "note": 52,
      "start": 46.8384,
      "duration": 0.0141,
      "velocity": 100,
      "chip": "ym2612"
    },
    {
      "channel": 1,
      "note": 105,
      "start": 46.8473,
      "duration": 0.0163,
      "velocity": 105,
      "chip": "ym2612"
    },
    {
      "channel": 0,
      "note": 75,
      "start": 46.849,
      "duration": 0.0162,
      "velocity": 127,
      "chip": "ym2612"
    },
    {
      "channel": 4,
      "note": 76,
      "start": 46.8502,
      "duration": 0.0163,
      "velocity": 94,
      "chip": "ym2612"
    },
    {
      "channel": 3,
      "note": 81,
      "start": 46.8513,
      "duration": 0.0162,
      "velocity": 94,
      "chip": "ym2612"
    },
    {
      "channel": 2,
      "note": 52,
      "start": 46.8525,
      "duration": 0.0162,
      "velocity": 100,
      "chip": "ym2612"
    },
    {
      "channel": 1,
      "note": 105,
      "start": 46.8636,
      "duration": 0.016,
      "velocity": 105,
      "chip": "ym2612"
    },
    {
      "channel": 0,
      "note": 73,
      "start": 46.8653,
      "duration": 0.016,
      "velocity": 127,
      "chip": "ym2612"
    },
    {
      "channel": 4,
      "note": 76,
      "start": 46.8665,
      "duration": 0.0159,
      "velocity": 94,
      "chip": "ym2612"
    },
    {
      "channel": 3,
      "note": 81,
      "start": 46.8676,
      "duration": 0.016,
      "velocity": 94,
      "chip": "ym2612"
    },
    {
      "channel": 2,
      "note": 52,
      "start": 46.8687,
      "duration": 0.016,
      "velocity": 100,
      "chip": "ym2612"
    },
    {
      "channel": 1,
      "note": 105,
      "start": 46.8796,
      "duration": 0.0178,
      "velocity": 105,
      "chip": "ym2612"
    },
    {
      "channel": 0,
      "note": 71,
      "start": 46.8812,
      "duration": 0.0178,
      "velocity": 127,
      "chip": "ym2612"
    },
    {
      "channel": 4,
      "note": 76,
      "start": 46.8824,
      "duration": 0.0178,
      "velocity": 94,
      "chip": "ym2612"
    },
    {
      "channel": 3,
      "note": 81,
      "start": 46.8835,
      "duration": 0.0178,
      "velocity": 94,
      "chip": "ym2612"
    },
    {
      "channel": 2,
      "note": 52,
      "start": 46.8846,
      "duration": 0.0178,
      "velocity": 100,
      "chip": "ym2612"
    },
    {
      "channel": 1,
      "note": 105,
      "start": 46.8973,
      "duration": 0.0167,
      "velocity": 105,
      "chip": "ym2612"
    },
    {
      "channel": 0,
      "note": 70,
      "start": 46.899,
      "duration": 0.0167,
      "velocity": 127,
      "chip": "ym2612"
    },
    {
      "channel": 4,
      "note": 76,
      "start": 46.9001,
      "duration": 0.0167,
      "velocity": 94,
      "chip": "ym2612"
    },
    {
      "channel": 3,
      "note": 81,
      "start": 46.9013,
      "duration": 0.0167,
      "velocity": 94,
      "chip": "ym2612"
    },
    {
      "channel": 2,
      "note": 52,
      "start": 46.9024,
      "duration": 0.0167,
      "velocity": 100,
      "chip": "ym2612"
    },
    {
      "channel": 1,
      "note": 105,
      "start": 46.914,
      "duration": 0.0179,
      "velocity": 124,
      "chip": "ym2612"
    },
    {
      "channel": 0,
      "note": 68,
      "start": 46.9156,
      "duration": 0.0198,
      "velocity": 115,
      "chip": "ym2612"
    },
    {
      "channel": 4,
      "note": 76,
      "start": 46.9168,
      "duration": 0.02,
      "velocity": 94,
      "chip": "ym2612"
    },
    {
      "channel": 3,
      "note": 81,
      "start": 46.9179,
      "duration": 0.0202,
      "velocity": 94,
      "chip": "ym2612"
    },
    {
      "channel": 2,
      "note": 52,
      "start": 46.9191,
      "duration": 0.0205,
      "velocity": 100,
      "chip": "ym2612"
    },
    {
      "channel": 1,
      "note": 64,
      "start": 46.932,
      "duration": 0.0124,
      "velocity": 124,
      "chip": "ym2612"
    },
    {
      "channel": 0,
      "note": 36,
      "start": 46.9354,
      "duration": 0.0107,
      "velocity": 115,
      "chip": "ym2612"
    },
    {
      "channel": 4,
      "note": 76,
      "start": 46.9368,
      "duration": 0.0106,
      "velocity": 94,
      "chip": "ym2612"
    },
    {
      "channel": 3,
      "note": 76,
      "start": 46.9382,
      "duration": 0.0104,
      "velocity": 94,
      "chip": "ym2612"
    },
    {
      "channel": 2,
      "note": 55,
      "start": 46.9396,
      "duration": 0.01,
      "velocity": 100,
      "chip": "ym2612"
    },
    {
      "channel": 1,
      "note": 64,
      "start": 46.9443,
      "duration": 0.0185,
      "velocity": 124,
      "chip": "ym2612"
    },
    {
      "channel": 0,
      "note": 36,
      "start": 46.9461,
      "duration": 0.0184,
      "velocity": 115,
      "chip": "ym2612"
    },
    {
      "channel": 4,
      "note": 76,
      "start": 46.9473,
      "duration": 0.0183,
      "velocity": 94,
      "chip": "ym2612"
    },
    {
      "channel": 3,
      "note": 76,
      "start": 46.9485,
      "duration": 0.0183,
      "velocity": 94,
      "chip": "ym2612"
    },
    {
      "channel": 2,
      "note": 55,
      "start": 46.9497,
      "duration": 0.0183,
      "velocity": 100,
      "chip": "ym2612"
    },
    {
      "channel": 1,
      "note": 64,
      "start": 46.9628,
      "duration": 0.0133,
      "velocity": 124,
      "chip": "ym2612"
    },
    {
      "channel": 0,
      "note": 37,
      "start": 46.9645,
      "duration": 0.0161,
      "velocity": 115,
      "chip": "ym2612"
    },
    {
      "channel": 4,
      "note": 76,
      "start": 46.9656,
      "duration": 0.0161,
      "velocity": 94,
      "chip": "ym2612"
    },
    {
      "channel": 3,
      "note": 76,
      "start": 46.9668,
      "duration": 0.0161,
      "velocity": 94,
      "chip": "ym2612"
    },
    {
      "channel": 2,
      "note": 55,
      "start": 46.9679,
      "duration": 0.0161,
      "velocity": 100,
      "chip": "ym2612"
    },
    {
      "channel": 1,
      "note": 64,
      "start": 46.9761,
      "duration": 0.0161,
      "velocity": 124,
      "chip": "ym2612"
    },
    {
      "channel": 0,
      "note": 37,
      "start": 46.9806,
      "duration": 0.0157,
      "velocity": 115,
      "chip": "ym2612"
    },
    {
      "channel": 4,
      "note": 76,
      "start": 46.9817,
      "duration": 0.0158,
      "velocity": 94,
      "chip": "ym2612"
    },
    {
      "channel": 3,
      "note": 76,
      "start": 46.9829,
      "duration": 0.0158,
      "velocity": 94,
      "chip": "ym2612"
    },
    {
      "channel": 2,
      "note": 55,
      "start": 46.984,
      "duration": 0.0157,
      "velocity": 100,
      "chip": "ym2612"
    },
    {
      "channel": 1,
      "note": 64,
      "start": 46.9922,
      "duration": 0.0161,
      "velocity": 124,
      "chip": "ym2612"
    },
    {
      "channel": 0,
      "note": 38,
      "start": 46.9963,
      "duration": 0.0141,
      "velocity": 115,
      "chip": "ym2612"
    },
    {
      "channel": 4,
      "note": 76,
      "start": 46.9975,
      "duration": 0.014,
      "velocity": 94,
      "chip": "ym2612"
    },
    {
      "channel": 3,
      "note": 76,
      "start": 46.9986,
      "duration": 0.014,
      "velocity": 94,
      "chip": "ym2612"
    },
    {
      "channel": 2,
      "note": 55,
      "start": 46.9997,
      "duration": 0.0141,
      "velocity": 100,
      "chip": "ym2612"
    },
    {
      "channel": 1,
      "note": 64,
      "start": 47.0083,
      "duration": 0.0161,
      "velocity": 124,
      "chip": "ym2612"
    },
    {
      "channel": 0,
      "note": 38,
      "start": 47.0104,
      "duration": 0.0158,
      "velocity": 115,
      "chip": "ym2612"
    },
    {
      "channel": 4,
      "note": 76,
      "start": 47.0115,
      "duration": 0.0186,
      "velocity": 94,
      "chip": "ym2612"
    },
    {
      "channel": 3,
      "note": 76,
      "start": 47.0127,
      "duration": 0.0186,
      "velocity": 94,
      "chip": "ym2612"
    },
    {
      "channel": 2,
      "note": 55,
      "start": 47.0138,
      "duration": 0.0185,
      "velocity": 100,
      "chip": "ym2612"
    },
    {
      "channel": 1,
      "note": 64,
      "start": 47.0245,
      "duration": 0.0178,
      "velocity": 105,
      "chip": "ym2612"
    },
    {
      "channel": 0,
      "note": 39,
      "start": 47.0261,
      "duration": 0.0206,
      "velocity": 115,
      "chip": "ym2612"
    },
    {
      "channel": 4,
      "note": 76,
      "start": 47.0301,
      "duration": 0.018,
      "velocity": 94,
      "chip": "ym2612"
    },
    {
      "channel": 3,
      "note": 76,
      "start": 47.0312,
      "duration": 0.0182,
      "velocity": 94,
      "chip": "ym2612"
    },
    {
      "channel": 2,
      "note": 55,
      "start": 47.0323,
      "duration": 0.0185,
      "velocity": 100,
      "chip": "ym2612"
    },
    {
      "channel": 1,
      "note": 105,
      "start": 47.0423,
      "duration": 0.0144,
      "velocity": 105,
      "chip": "ym2612"
    },
    {
      "channel": 0,
      "note": 39,
      "start": 47.0467,
      "duration": 0.0117,
      "velocity": 115,
      "chip": "ym2612"
    },
    {
      "channel": 4,
      "note": 76,
      "start": 47.0481,
      "duration": 0.0115,
      "velocity": 94,
      "chip": "ym2612"
    },
    {
      "channel": 3,
      "note": 76,
      "start": 47.0494,
      "duration": 0.0137,
      "velocity": 94,
      "chip": "ym2612"
    },
    {
      "channel": 2,
      "note": 55,
      "start": 47.0509,
      "duration": 0.0135,
      "velocity": 100,
      "chip": "ym2612"
    },
    {
      "channel": 1,
      "note": 105,
      "start": 47.0567,
      "duration": 0.0161,
      "velocity": 105,
      "chip": "ym2612"
    },
    {
      "channel": 0,
      "note": 40,
      "start": 47.0584,
      "duration": 0.016,
      "velocity": 115,
      "chip": "ym2612"
    },
    {
      "channel": 4,
      "note": 76,
      "start": 47.0596,
      "duration": 0.016,
      "velocity": 94,
      "chip": "ym2612"
    },
    {
      "channel": 3,
      "note": 76,
      "start": 47.0632,
      "duration": 0.0139,
      "velocity": 94,
      "chip": "ym2612"
    },
    {
      "channel": 2,
      "note": 55,
      "start": 47.0644,
      "duration": 0.0138,
      "velocity": 100,
      "chip": "ym2612"
    },
    {
      "channel": 1,
      "note": 105,
      "start": 47.0728,
      "duration": 0.0161,
      "velocity": 105,
      "chip": "ym2612"
    },
    {
      "channel": 0,
      "note": 40,
      "start": 47.0744,
      "duration": 0.0161,
      "velocity": 115,
      "chip": "ym2612"
    },
    {
      "channel": 4,
      "note": 76,
      "start": 47.0756,
      "duration": 0.0162,
      "velocity": 94,
      "chip": "ym2612"
    },
    {
      "channel": 3,
      "note": 76,
      "start": 47.0771,
      "duration": 0.0158,
      "velocity": 94,
      "chip": "ym2612"
    },
    {
      "channel": 2,
      "note": 55,
      "start": 47.0782,
      "duration": 0.0186,
      "velocity": 100,
      "chip": "ym2612"
    },
    {
      "channel": 1,
      "note": 105,
      "start": 47.0888,
      "duration": 0.0161,
      "velocity": 105,
      "chip": "ym2612"
    },
    {
      "channel": 0,
      "note": 40,
      "start": 47.0905,
      "duration": 0.0161,
      "velocity": 115,
      "chip": "ym2612"
    },
    {
      "channel": 4,
      "note": 76,
      "start": 47.0917,
      "duration": 0.0161,
      "velocity": 94,
      "chip": "ym2612"
    },
    {
      "channel": 3,
      "note": 76,
      "start": 47.0929,
      "duration": 0.0161,
      "velocity": 94,
      "chip": "ym2612"
    },
    {
      "channel": 2,
      "note": 55,
      "start": 47.0967,
      "duration": 0.0161,
      "velocity": 100,
      "chip": "ym2612"
    },
    {
      "channel": 1,
      "note": 105,
      "start": 47.1049,
      "duration": 0.0161,
      "velocity": 105,
      "chip": "ym2612"
    },
    {
      "channel": 0,
      "note": 41,
      "start": 47.1066,
      "duration": 0.0161,
      "velocity": 115,
      "chip": "ym2612"
    },
    {
      "channel": 4,
      "note": 76,
      "start": 47.1078,
      "duration": 0.0161,
      "velocity": 94,
      "chip": "ym2612"
    },
    {
      "channel": 3,
      "note": 76,
      "start": 47.109,
      "duration": 0.0161,
      "velocity": 94,
      "chip": "ym2612"
    },
    {
      "channel": 2,
      "note": 55,
      "start": 47.1128,
      "duration": 0.0133,
      "velocity": 100,
      "chip": "ym2612"
    },
    {
      "channel": 1,
      "note": 105,
      "start": 47.121,
      "duration": 0.0161,
      "velocity": 105,
      "chip": "ym2612"
    },
    {
      "channel": 0,
      "note": 41,
      "start": 47.1227,
      "duration": 0.0161,
      "velocity": 115,
      "chip": "ym2612"
    },
    {
      "channel": 4,
      "note": 76,
      "start": 47.1239,
      "duration": 0.0161,
      "velocity": 94,
      "chip": "ym2612"
    },
    {
      "channel": 3,
      "note": 76,
      "start": 47.1251,
      "duration": 0.0161,
      "velocity": 94,
      "chip": "ym2612"
    },
    {
      "channel": 2,
      "note": 55,
      "start": 47.1261,
      "duration": 0.0161,
      "velocity": 100,
      "chip": "ym2612"
    },
    {
      "channel": 1,
      "note": 105,
      "start": 47.1371,
      "duration": 0.0178,
      "velocity": 124,
      "chip": "ym2612"
    },
    {
      "channel": 0,
      "note": 42,
      "start": 47.1388,
      "duration": 0.0179,
      "velocity": 115,
      "chip": "ym2612"
    },
    {
      "channel": 4,
      "note": 76,
      "start": 47.14,
      "duration": 0.0179,
      "velocity": 94,
      "chip": "ym2612"
    },
    {
      "channel": 3,
      "note": 76,
      "start": 47.1411,
      "duration": 0.0182,
      "velocity": 94,
      "chip": "ym2612"
    },
    {
      "channel": 2,
      "note": 55,
      "start": 47.1422,
      "duration": 0.0213,
      "velocity": 100,
      "chip": "ym2612"
    },
    {
      "channel": 1,
      "note": 64,
      "start": 47.155,
      "duration": 0.0144,
      "velocity": 124,
      "chip": "ym2612"
    },
    {
      "channel": 0,
      "note": 42,
      "start": 47.1567,
      "duration": 0.0144,
      "velocity": 115,
      "chip": "ym2612"
    },
    {
      "channel": 4,
      "note": 76,
      "start": 47.1579,
      "duration": 0.0144,
      "velocity": 94,
      "chip": "ym2612"
    },
    {
      "channel": 3,
      "note": 76,
      "start": 47.1593,
      "duration": 0.0142,
      "velocity": 94,
      "chip": "ym2612"
    },
    {
      "channel": 2,
      "note": 55,
      "start": 47.1636,
      "duration": 0.0111,
      "velocity": 100,
      "chip": "ym2612"
    },
    {
      "channel": 1,
      "note": 64,
      "start": 47.1695,
      "duration": 0.016,
      "velocity": 124,
      "chip": "ym2612"
    },
    {
      "channel": 0,
      "note": 43,
      "start": 47.1711,
      "duration": 0.016,
      "velocity": 115,
      "chip": "ym2612"
    },
    {
      "channel": 4,
      "note": 76,
      "start": 47.1723,
      "duration": 0.016,
      "velocity": 94,
      "chip": "ym2612"
    },
    {
      "channel": 3,
      "note": 76,
      "start": 47.1735,
      "duration": 0.0159,
      "velocity": 94,
      "chip": "ym2612"
    },
    {
      "channel": 2,
      "note": 55,
      "start": 47.1747,
      "duration": 0.0158,
      "velocity": 100,
      "chip": "ym2612"
    },
    {
      "channel": 1,
      "note": 64,
      "start": 47.1855,
      "duration": 0.0161,
      "velocity": 124,
      "chip": "ym2612"
    },
    {
      "channel": 0,
      "note": 43,
      "start": 47.1871,
      "duration": 0.0161,
      "velocity": 115,
      "chip": "ym2612"
    },
    {
      "channel": 4,
      "note": 76,
      "start": 47.1883,
      "duration": 0.0161,
      "velocity": 94,
      "chip": "ym2612"
    },
    {
      "channel": 3,
      "note": 76,
      "start": 47.1894,
      "duration": 0.0161,
      "velocity": 94,
      "chip": "ym2612"
    },
    {
      "channel": 2,
      "note": 55,
      "start": 47.1906,
      "duration": 0.0161,
      "velocity": 100,
      "chip": "ym2612"
    },
    {
      "channel": 1,
      "note": 64,
      "start": 47.2016,
      "duration": 0.0161,
      "velocity": 124,
      "chip": "ym2612"
    },
    {
      "channel": 0,
      "note": 44,
      "start": 47.2032,
      "duration": 0.0161,
      "velocity": 115,
      "chip": "ym2612"
    },
    {
      "channel": 4,
      "note": 76,
      "start": 47.2044,
      "duration": 0.0162,
      "velocity": 94,
      "chip": "ym2612"
    },
    {
      "channel": 3,
      "note": 76,
      "start": 47.2055,
      "duration": 0.0162,
      "velocity": 94,
      "chip": "ym2612"
    },
    {
      "channel": 2,
      "note": 55,
      "start": 47.2067,
      "duration": 0.0161,
      "velocity": 100,
      "chip": "ym2612"
    },
    {
      "channel": 1,
      "note": 64,
      "start": 47.2177,
      "duration": 0.0161,
      "velocity": 124,
      "chip": "ym2612"
    },
    {
      "channel": 0,
      "note": 44,
      "start": 47.2193,
      "duration": 0.0161,
      "velocity": 115,
      "chip": "ym2612"
    },
    {
      "channel": 4,
      "note": 76,
      "start": 47.2205,
      "duration": 0.0161,
      "velocity": 94,
      "chip": "ym2612"
    },
    {
      "channel": 3,
      "note": 76,
      "start": 47.2217,
      "duration": 0.0161,
      "velocity": 94,
      "chip": "ym2612"
    },
    {
      "channel": 2,
      "note": 55,
      "start": 47.2228,
      "duration": 0.0161,
      "velocity": 100,
      "chip": "ym2612"
    },
    {
      "channel": 1,
      "note": 64,
      "start": 47.2338,
      "duration": 0.0161,
      "velocity": 124,
      "chip": "ym2612"
    },
    {
      "channel": 0,
      "note": 44,
      "start": 47.2354,
      "duration": 0.0161,
      "velocity": 115,
      "chip": "ym2612"
    },
    {
      "channel": 4,
      "note": 76,
      "start": 47.2366,
      "duration": 0.0161,
      "velocity": 94,
      "chip": "ym2612"
    },
    {
      "channel": 3,
      "note": 76,
      "start": 47.2378,
      "duration": 0.0161,
      "velocity": 94,
      "chip": "ym2612"
    },
    {
      "channel": 2,
      "note": 55,
      "start": 47.2388,
      "duration": 0.0161,
      "velocity": 100,
      "chip": "ym2612"
    },
    {
      "channel": 1,
      "note": 64,
      "start": 47.2499,
      "duration": 0.0178,
      "velocity": 105,
      "chip": "ym2612"
    },
    {
      "channel": 0,
      "note": 45,
      "start": 47.2515,
      "duration": 0.0179,
      "velocity": 115,
      "chip": "ym2612"
    },
    {
      "channel": 4,
      "note": 76,
      "start": 47.2527,
      "duration": 0.018,
      "velocity": 94,
      "chip": "ym2612"
    },
    {
      "channel": 3,
      "note": 76,
      "start": 47.2539,
      "duration": 0.0182,
      "velocity": 94,
      "chip": "ym2612"
    },
    {
      "channel": 2,
      "note": 55,
      "start": 47.2549,
      "duration": 0.0185,
      "velocity": 100,
      "chip": "ym2612"
    },
    {
      "channel": 1,
      "note": 105,
      "start": 47.2677,
      "duration": 0.0144,
      "velocity": 105,
      "chip": "ym2612"
    },
    {
      "channel": 0,
      "note": 45,
      "start": 47.2694,
      "duration": 0.0144,
      "velocity": 115,
      "chip": "ym2612"
    },
    {
      "channel": 4,
      "note": 76,
      "start": 47.2708,
      "duration": 0.0142,
      "velocity": 94,
      "chip": "ym2612"
    },
    {
      "channel": 3,
      "note": 76,
      "start": 47.2721,
      "duration": 0.0141,
      "velocity": 94,
      "chip": "ym2612"
    },
    {
      "channel": 2,
      "note": 55,
      "start": 47.2735,
      "duration": 0.0139,
      "velocity": 100,
      "chip": "ym2612"
    },
    {
      "channel": 1,
      "note": 105,
      "start": 47.2821,
      "duration": 0.016,
      "velocity": 105,
      "chip": "ym2612"
    },
    {
      "channel": 0,
      "note": 46,
      "start": 47.2838,
      "duration": 0.016,
      "velocity": 115,
      "chip": "ym2612"
    },
    {
      "channel": 4,
      "note": 76,
      "start": 47.285,
      "duration": 0.016,
      "velocity": 94,
      "chip": "ym2612"
    },
    {
      "channel": 3,
      "note": 76,
      "start": 47.2862,
      "duration": 0.016,
      "velocity": 94,
      "chip": "ym2612"
    },
    {
      "channel": 2,
      "note": 55,
      "start": 47.2874,
      "duration": 0.0158,
      "velocity": 100,
      "chip": "ym2612"
    },
    {
      "channel": 1,
      "note": 105,
      "start": 47.2981,
      "duration": 0.0161,
      "velocity": 105,
      "chip": "ym2612"
    },
    {
      "channel": 0,
      "note": 46,
      "start": 47.2998,
      "duration": 0.0162,
      "velocity": 115,
      "chip": "ym2612"
    },
    {
      "channel": 4,
      "note": 76,
      "start": 47.301,
      "duration": 0.0161,
      "velocity": 94,
      "chip": "ym2612"
    },
    {
      "channel": 3,
      "note": 76,
      "start": 47.3022,
      "duration": 0.0161,
      "velocity": 94,
      "chip": "ym2612"
    },
    {
      "channel": 2,
      "note": 55,
      "start": 47.3032,
      "duration": 0.0162,
      "velocity": 100,
      "chip": "ym2612"
    },
    {
      "channel": 1,
      "note": 105,
      "start": 47.3142,
      "duration": 0.0161,
      "velocity": 105,
      "chip": "ym2612"
    },
    {
      "channel": 0,
      "note": 47,
      "start": 47.316,
      "duration": 0.0161,
      "velocity": 115,
      "chip": "ym2612"
    },
    {
      "channel": 4,
      "note": 76,
      "start": 47.3171,
      "duration": 0.0162,
      "velocity": 94,
      "chip": "ym2612"
    },
    {
      "channel": 3,
      "note": 76,
      "start": 47.3183,
      "duration": 0.0161,
      "velocity": 94,
      "chip": "ym2612"
    },
    {
      "channel": 2,
      "note": 55,
      "start": 47.3194,
      "duration": 0.0161,
      "velocity": 100,
      "chip": "ym2612"
    },
    {
      "channel": 1,
      "note": 105,
      "start": 47.3304,
      "duration": 0.0161,
      "velocity": 105,
      "chip": "ym2612"
    },
    {
      "channel": 0,
      "note": 47,
      "start": 47.332,
      "duration": 0.0161,
      "velocity": 115,
      "chip": "ym2612"
    },
    {
      "channel": 4,
      "note": 76,
      "start": 47.3333,
      "duration": 0.016,
      "velocity": 94,
      "chip": "ym2612"
    },
    {
      "channel": 3,
      "note": 76,
      "start": 47.3344,
      "duration": 0.016,
      "velocity": 94,
      "chip": "ym2612"
    },
    {
      "channel": 2,
      "note": 55,
      "start": 47.3355,
      "duration": 0.0161,
      "velocity": 100,
      "chip": "ym2612"
    },
    {
      "channel": 1,
      "note": 105,
      "start": 47.3465,
      "duration": 0.0175,
      "velocity": 105,
      "chip": "ym2612"
    },
    {
      "channel": 0,
      "note": 47,
      "start": 47.3481,
      "duration": 0.0175,
      "velocity": 115,
      "chip": "ym2612"
    },
    {
      "channel": 4,
      "note": 76,
      "start": 47.3493,
      "duration": 0.0175,
      "velocity": 94,
      "chip": "ym2612"
    },
    {
      "channel": 3,
      "note": 76,
      "start": 47.3504,
      "duration": 0.0175,
      "velocity": 94,
      "chip": "ym2612"
    },
    {
      "channel": 2,
      "note": 55,
      "start": 47.3516,
      "duration": 0.0175,
      "velocity": 100,
      "chip": "ym2612"
    },
    {
      "channel": 1,
      "note": 105,
      "start": 47.364,
      "duration": 0.0189,
      "velocity": 124,
      "chip": "ym2612"
    },
    {
      "channel": 0,
      "note": 48,
      "start": 47.3656,
      "duration": 0.0196,
      "velocity": 115,
      "chip": "ym2612"
    },
    {
      "channel": 4,
      "note": 76,
      "start": 47.3668,
      "duration": 0.0198,
      "velocity": 94,
      "chip": "ym2612"
    },
    {
      "channel": 3,
      "note": 76,
      "start": 47.3679,
      "duration": 0.02,
      "velocity": 94,
      "chip": "ym2612"
    },
    {
      "channel": 2,
      "note": 55,
      "start": 47.3691,
      "duration": 0.0204,
      "velocity": 100,
      "chip": "ym2612"
    },
    {
      "channel": 1,
      "note": 78,
      "start": 47.3829,
      "duration": 0.0146,
      "velocity": 124,
      "chip": "ym2612"
    },
    {
      "channel": 0,
      "note": 48,
      "start": 47.3853,
      "duration": 0.0141,
      "velocity": 115,
      "chip": "ym2612"
    },
    {
      "channel": 4,
      "note": 76,
      "start": 47.3866,
      "duration": 0.014,
      "velocity": 94,
      "chip": "ym2612"
    },
    {
      "channel": 3,
      "note": 76,
      "start": 47.388,
      "duration": 0.0138,
      "velocity": 94,
      "chip": "ym2612"
    },
    {
      "channel": 2,
      "note": 55,
      "start": 47.3895,
      "duration": 0.0135,
      "velocity": 100,
      "chip": "ym2612"
    },
    {
      "channel": 1,
      "note": 76,
      "start": 47.3975,
      "duration": 0.0142,
      "velocity": 124,
      "chip": "ym2612"
    },
    {
      "channel": 0,
      "note": 49,
      "start": 47.3994,
      "duration": 0.0134,
      "velocity": 1,
      "chip": "ym2612"
    },
    {
      "channel": 4,
      "note": 76,
      "start": 47.4006,
      "duration": 0.0133,
      "velocity": 94,
      "chip": "ym2612"
    },
    {
      "channel": 3,
      "note": 76,
      "start": 47.4018,
      "duration": 0.0132,
      "velocity": 94,
      "chip": "ym2612"
    },
    {
      "channel": 2,
      "note": 55,
      "start": 47.403,
      "duration": 0.0132,
      "velocity": 100,
      "chip": "ym2612"
    },
    {
      "channel": 1,
      "note": 75,
      "start": 47.4117,
      "duration": 0.0185,
      "velocity": 124,
      "chip": "ym2612"
    },
    {
      "channel": 4,
      "note": 76,
      "start": 47.4139,
      "duration": 0.0177,
      "velocity": 94,
      "chip": "ym2612"
    },
    {
      "channel": 3,
      "note": 76,
      "start": 47.4151,
      "duration": 0.0177,
      "velocity": 94,
      "chip": "ym2612"
    },
    {
      "channel": 2,
      "note": 55,
      "start": 47.4162,
      "duration": 0.0177,
      "velocity": 100,
      "chip": "ym2612"
    },
    {
      "channel": 1,
      "note": 74,
      "start": 47.4302,
      "duration": 0.0161,
      "velocity": 124,
      "chip": "ym2612"
    },
    {
      "channel": 4,
      "note": 76,
      "start": 47.4316,
      "duration": 0.0161,
      "velocity": 94,
      "chip": "ym2612"
    },
    {
      "channel": 3,
      "note": 76,
      "start": 47.4327,
      "duration": 0.0161,
      "velocity": 94,
      "chip": "ym2612"
    },
    {
      "channel": 2,
      "note": 55,
      "start": 47.4339,
      "duration": 0.0161,
      "velocity": 100,
      "chip": "ym2612"
    },
    {
      "channel": 1,
      "note": 72,
      "start": 47.4463,
      "duration": 0.0134,
      "velocity": 124,
      "chip": "ym2612"
    },
    {
      "channel": 4,
      "note": 76,
      "start": 47.4477,
      "duration": 0.0157,
      "velocity": 94,
      "chip": "ym2612"
    },
    {
      "channel": 3,
      "note": 76,
      "start": 47.4488,
      "duration": 0.0157,
      "velocity": 94,
      "chip": "ym2612"
    },
    {
      "channel": 2,
      "note": 55,
      "start": 47.45,
      "duration": 0.0157,
      "velocity": 100,
      "chip": "ym2612"
    },
    {
      "channel": 1,
      "note": 71,
      "start": 47.4597,
      "duration": 0.0161,
      "velocity": 124,
      "chip": "ym2612"
    },
    {
      "channel": 4,
      "note": 76,
      "start": 47.4634,
      "duration": 0.0141,
      "velocity": 94,
      "chip": "ym2612"
    },
    {
      "channel": 3,
      "note": 76,
      "start": 47.4646,
      "duration": 0.0141,
      "velocity": 94,
      "chip": "ym2612"
    },
    {
      "channel": 2,
      "note": 55,
      "start": 47.4657,
      "duration": 0.0141,
      "velocity": 100,
      "chip": "ym2612"
    },
    {
      "channel": 1,
      "note": 70,
      "start": 47.4758,
      "duration": 0.0161,
      "velocity": 124,
      "chip": "ym2612"
    },
    {
      "channel": 4,
      "note": 76,
      "start": 47.4775,
      "duration": 0.0193,
      "velocity": 94,
      "chip": "ym2612"
    },
    {
      "channel": 3,
      "note": 76,
      "start": 47.4786,
      "duration": 0.0195,
      "velocity": 94,
      "chip": "ym2612"
    },
    {
      "channel": 2,
      "note": 55,
      "start": 47.4798,
      "duration": 0.0197,
      "velocity": 100,
      "chip": "ym2612"
    },
    {
      "channel": 1,
      "note": 69,
      "start": 47.4919,
      "duration": 0.0161,
      "velocity": 124,
      "chip": "ym2612"
    },
    {
      "channel": 4,
      "note": 79,
      "start": 47.4968,
      "duration": 0.0127,
      "velocity": 94,
      "chip": "ym2612"
    },
    {
      "channel": 3,
      "note": 76,
      "start": 47.4981,
      "duration": 0.0153,
      "velocity": 94,
      "chip": "ym2612"
    },
    {
      "channel": 2,
      "note": 55,
      "start": 47.4995,
      "duration": 0.0151,
      "velocity": 100,
      "chip": "ym2612"
    },
    {
      "channel": 1,
      "note": 68,
      "start": 47.508,
      "duration": 0.0161,
      "velocity": 124,
      "chip": "ym2612"
    },
    {
      "channel": 4,
      "note": 79,
      "start": 47.5095,
      "duration": 0.016,
      "velocity": 94,
      "chip": "ym2612"
    },
    {
      "channel": 3,
      "note": 76,
      "start": 47.5134,
      "duration": 0.0156,
      "velocity": 94,
      "chip": "ym2612"
    },
    {
      "channel": 2,
      "note": 55,
      "start": 47.5146,
      "duration": 0.0155,
      "velocity": 100,
      "chip": "ym2612"
    },
    {
      "channel": 1,
      "note": 66,
      "start": 47.5241,
      "duration": 0.0161,
      "velocity": 124,
      "chip": "ym2612"
    },
    {
      "channel": 4,
      "note": 79,
      "start": 47.5255,
      "duration": 0.0161,
      "velocity": 94,
      "chip": "ym2612"
    },
    {
      "channel": 3,
      "note": 76,
      "start": 47.529,
      "duration": 0.0137,
      "velocity": 94,
      "chip": "ym2612"
    },
    {
      "channel": 2,
      "note": 55,
      "start": 47.5301,
      "duration": 0.0141,
      "velocity": 100,
      "chip": "ym2612"
    },
    {
      "channel": 1,
      "note": 65,
      "start": 47.5402,
      "duration": 0.0161,
      "velocity": 124,
      "chip": "ym2612"
    },
    {
      "channel": 4,
      "note": 79,
      "start": 47.5416,
      "duration": 0.0161,
      "velocity": 94,
      "chip": "ym2612"
    },
    {
      "channel": 3,
      "note": 76,
      "start": 47.5427,
      "duration": 0.0161,
      "velocity": 94,
      "chip": "ym2612"
    },
    {
      "channel": 2,
      "note": 55,
      "start": 47.5442,
      "duration": 0.0185,
      "velocity": 100,
      "chip": "ym2612"
    },
    {
      "channel": 1,
      "note": 64,
      "start": 47.5563,
      "duration": 0.0161,
      "velocity": 124,
      "chip": "ym2612"
    },
    {
      "channel": 4,
      "note": 79,
      "start": 47.5577,
      "duration": 0.0161,
      "velocity": 94,
      "chip": "ym2612"
    },
    {
      "channel": 3,
      "note": 76,
      "start": 47.5588,
      "duration": 0.0161,
      "velocity": 94,
      "chip": "ym2612"
    },
    {
      "channel": 2,
      "note": 55,
      "start": 47.5627,
      "duration": 0.0134,
      "velocity": 100,
      "chip": "ym2612"
    },
    {
      "channel": 1,
      "note": 62,
      "start": 47.5724,
      "duration": 0.0161,
      "velocity": 124,
      "chip": "ym2612"
    },
    {
      "channel": 4,
      "note": 79,
      "start": 47.5738,
      "duration": 0.0161,
      "velocity": 94,
      "chip": "ym2612"
    },
    {
      "channel": 3,
      "note": 76,
      "start": 47.5749,
      "duration": 0.0161,
      "velocity": 94,
      "chip": "ym2612"
    },
    {
      "channel": 2,
      "note": 55,
      "start": 47.5761,
      "duration": 0.0161,
      "velocity": 100,
      "chip": "ym2612"
    },
    {
      "channel": 1,
      "note": 61,
      "start": 47.5885,
      "duration": 0.0161,
      "velocity": 124,
      "chip": "ym2612"
    },
    {
      "channel": 4,
      "note": 79,
      "start": 47.5899,
      "duration": 0.0167,
      "velocity": 94,
      "chip": "ym2612"
    },
    {
      "channel": 3,
      "note": 76,
      "start": 47.591,
      "duration": 0.0169,
      "velocity": 94,
      "chip": "ym2612"
    },
    {
      "channel": 2,
      "note": 55,
      "start": 47.5922,
      "duration": 0.0173,
      "velocity": 100,
      "chip": "ym2612"
    },
    {
      "channel": 1,
      "note": 60,
      "start": 47.6046,
      "duration": 0.0161,
      "velocity": 124,
      "chip": "ym2612"
    },
    {
      "channel": 4,
      "note": 79,
      "start": 47.6066,
      "duration": 0.0156,
      "velocity": 94,
      "chip": "ym2612"
    },
    {
      "channel": 3,
      "note": 79,
      "start": 47.608,
      "duration": 0.0154,
      "velocity": 94,
      "chip": "ym2612"
    },
    {
      "channel": 2,
      "note": 55,
      "start": 47.6095,
      "duration": 0.0151,
      "velocity": 100,
      "chip": "ym2612"
    },
    {
      "channel": 1,
      "note": 59,
      "start": 47.6207,
      "duration": 0.0161,
      "velocity": 124,
      "chip": "ym2612"
    },
    {
      "channel": 4,
      "note": 79,
      "start": 47.6222,
      "duration": 0.016,
      "velocity": 94,
      "chip": "ym2612"
    },
    {
      "channel": 3,
      "note": 79,
      "start": 47.6234,
      "duration": 0.0159,
      "velocity": 94,
      "chip": "ym2612"
    },
    {
      "channel": 2,
      "note": 55,
      "start": 47.6245,
      "duration": 0.0159,
      "velocity": 100,
      "chip": "ym2612"
    },
    {
      "channel": 1,
      "note": 57,
      "start": 47.6368,
      "duration": 0.0161,
      "velocity": 124,
      "chip": "ym2612"
    },
    {
      "channel": 4,
      "note": 79,
      "start": 47.6382,
      "duration": 0.0161,
      "velocity": 94,
      "chip": "ym2612"
    },
    {
      "channel": 3,
      "note": 79,
      "start": 47.6393,
      "duration": 0.0161,
      "velocity": 94,
      "chip": "ym2612"
    },
    {
      "channel": 2,
      "note": 55,
      "start": 47.6405,
      "duration": 0.0161,
      "velocity": 100,
      "chip": "ym2612"
    },
    {
      "channel": 1,
      "note": 56,
      "start": 47.6529,
      "duration": 0.0161,
      "velocity": 124,
      "chip": "ym2612"
    },
    {
      "channel": 4,
      "note": 79,
      "start": 47.6542,
      "duration": 0.0161,
      "velocity": 94,
      "chip": "ym2612"
    },
    {
      "channel": 3,
      "note": 79,
      "start": 47.6554,
      "duration": 0.0161,
      "velocity": 94,
      "chip": "ym2612"
    },
    {
      "channel": 2,
      "note": 55,
      "start": 47.6565,
      "duration": 0.0161,
      "velocity": 100,
      "chip": "ym2612"
    },
    {
      "channel": 1,
      "note": 55,
      "start": 47.669,
      "duration": 0.0161,
      "velocity": 124,
      "chip": "ym2612"
    },
    {
      "channel": 4,
      "note": 79,
      "start": 47.6703,
      "duration": 0.0162,
      "velocity": 94,
      "chip": "ym2612"
    },
    {
      "channel": 3,
      "note": 79,
      "start": 47.6715,
      "duration": 0.0161,
      "velocity": 94,
      "chip": "ym2612"
    },
    {
      "channel": 2,
      "note": 55,
      "start": 47.6726,
      "duration": 0.0162,
      "velocity": 100,
      "chip": "ym2612"
    },
    {
      "channel": 1,
      "note": 53,
      "start": 47.6851,
      "duration": 0.0161,
      "velocity": 124,
      "chip": "ym2612"
    },
    {
      "channel": 4,
      "note": 79,
      "start": 47.6865,
      "duration": 0.0161,
      "velocity": 94,
      "chip": "ym2612"
    },
    {
      "channel": 3,
      "note": 79,
      "start": 47.6876,
      "duration": 0.0161,
      "velocity": 94,
      "chip": "ym2612"
    },
    {
      "channel": 2,
      "note": 55,
      "start": 47.6888,
      "duration": 0.0161,
      "velocity": 100,
      "chip": "ym2612"
    },
    {
      "channel": 1,
      "note": 52,
      "start": 47.7012,
      "duration": 0.0161,
      "velocity": 124,
      "chip": "ym2612"
    },
    {
      "channel": 4,
      "note": 79,
      "start": 47.7026,
      "duration": 0.0203,
      "velocity": 94,
      "chip": "ym2612"
    },
    {
      "channel": 3,
      "note": 79,
      "start": 47.7037,
      "duration": 0.0204,
      "velocity": 94,
      "chip": "ym2612"
    },
    {
      "channel": 2,
      "note": 55,
      "start": 47.7049,
      "duration": 0.0207,
      "velocity": 100,
      "chip": "ym2612"
    },
    {
      "channel": 1,
      "note": 51,
      "start": 47.7173,
      "duration": 0.0154,
      "velocity": 1,
      "chip": "ym2612"
    },
    {
      "channel": 0,
      "note": 36,
      "start": 47.7215,
      "duration": 0.015,
      "velocity": 115,
      "chip": "ym2612"
    },
    {
      "channel": 4,
      "note": 76,
      "start": 47.7229,
      "duration": 0.0148,
      "velocity": 94,
      "chip": "ym2612"
    },
    {
      "channel": 3,
      "note": 79,
      "start": 47.7241,
      "duration": 0.0148,
      "velocity": 94,
      "chip": "ym2612"
    },
    {
      "channel": 2,
      "note": 55,
      "start": 47.7256,
      "duration": 0.0144,
      "velocity": 100,
      "chip": "ym2612"
    },
    {
      "channel": 1,
      "note": 51,
      "start": 47.7348,
      "duration": 0.0142,
      "velocity": 105,
      "chip": "ym2612"
    },
    {
      "channel": 0,
      "note": 36,
      "start": 47.7365,
      "duration": 0.0141,
      "velocity": 115,
      "chip": "ym2612"
    },
    {
      "channel": 4,
      "note": 76,
      "start": 47.7377,
      "duration": 0.0141,
      "velocity": 94,
      "chip": "ym2612"
    },
    {
      "channel": 3,
      "note": 79,
      "start": 47.7389,
      "duration": 0.0141,
      "velocity": 94,
      "chip": "ym2612"
    },
    {
      "channel": 2,
      "note": 55,
      "start": 47.7401,
      "duration": 0.014,
      "velocity": 100,
      "chip": "ym2612"
    },
    {
      "channel": 1,
      "note": 105,
      "start": 47.749,
      "duration": 0.0161,
      "velocity": 105,
      "chip": "ym2612"
    },
    {
      "channel": 0,
      "note": 37,
      "start": 47.7506,
      "duration": 0.0162,
      "velocity": 115,
      "chip": "ym2612"
    },
    {
      "channel": 4,
      "note": 76,
      "start": 47.7518,
      "duration": 0.0161,
      "velocity": 94,
      "chip": "ym2612"
    },
    {
      "channel": 3,
      "note": 79,
      "start": 47.753,
      "duration": 0.0161,
      "velocity": 94,
      "chip": "ym2612"
    },
    {
      "channel": 2,
      "note": 55,
      "start": 47.7541,
      "duration": 0.0161,
      "velocity": 100,
      "chip": "ym2612"
    },
    {
      "channel": 1,
      "note": 105,
      "start": 47.7651,
      "duration": 0.0162,
      "velocity": 105,
      "chip": "ym2612"
    },
    {
      "channel": 0,
      "note": 37,
      "start": 47.7668,
      "duration": 0.0161,
      "velocity": 115,
      "chip": "ym2612"
    },
    {
      "channel": 4,
      "note": 76,
      "start": 47.7679,
      "duration": 0.0161,
      "velocity": 94,
      "chip": "ym2612"
    },
    {
      "channel": 3,
      "note": 79,
      "start": 47.7691,
      "duration": 0.0161,
      "velocity": 94,
      "chip": "ym2612"
    },
    {
      "channel": 2,
      "note": 55,
      "start": 47.7702,
      "duration": 0.0161,
      "velocity": 100,
      "chip": "ym2612"
    },
    {
      "channel": 1,
      "note": 105,
      "start": 47.7812,
      "duration": 0.0161,
      "velocity": 105,
      "chip": "ym2612"
    },
    {
      "channel": 0,
      "note": 38,
      "start": 47.7829,
      "duration": 0.0161,
      "velocity": 115,
      "chip": "ym2612"
    },
    {
      "channel": 4,
      "note": 76,
      "start": 47.784,
      "duration": 0.0161,
      "velocity": 94,
      "chip": "ym2612"
    },
    {
      "channel": 3,
      "note": 79,
      "start": 47.7852,
      "duration": 0.0161,
      "velocity": 94,
      "chip": "ym2612"
    },
    {
      "channel": 2,
      "note": 55,
      "start": 47.7863,
      "duration": 0.0161,
      "velocity": 100,
      "chip": "ym2612"
    },
    {
      "channel": 1,
      "note": 105,
      "start": 47.7973,
      "duration": 0.0161,
      "velocity": 105,
      "chip": "ym2612"
    },
    {
      "channel": 0,
      "note": 38,
      "start": 47.799,
      "duration": 0.0161,
      "velocity": 115,
      "chip": "ym2612"
    },
    {
      "channel": 4,
      "note": 76,
      "start": 47.8001,
      "duration": 0.0161,
      "velocity": 94,
      "chip": "ym2612"
    },
    {
      "channel": 3,
      "note": 79,
      "start": 47.8013,
      "duration": 0.0161,
      "velocity": 94,
      "chip": "ym2612"
    },
    {
      "channel": 2,
      "note": 55,
      "start": 47.8024,
      "duration": 0.0161,
      "velocity": 100,
      "chip": "ym2612"
    },
    {
      "channel": 1,
      "note": 105,
      "start": 47.8134,
      "duration": 0.0189,
      "velocity": 124,
      "chip": "ym2612"
    },
    {
      "channel": 0,
      "note": 39,
      "start": 47.8151,
      "duration": 0.0207,
      "velocity": 115,
      "chip": "ym2612"
    },
    {
      "channel": 4,
      "note": 76,
      "start": 47.8162,
      "duration": 0.021,
      "velocity": 94,
      "chip": "ym2612"
    },
    {
      "channel": 3,
      "note": 79,
      "start": 47.8173,
      "duration": 0.0212,
      "velocity": 94,
      "chip": "ym2612"
    },
    {
      "channel": 2,
      "note": 55,
      "start": 47.8185,
      "duration": 0.0216,
      "velocity": 100,
      "chip": "ym2612"
    },
    {
      "channel": 1,
      "note": 64,
      "start": 47.8324,
      "duration": 0.015,
      "velocity": 124,
      "chip": "ym2612"
    },
    {
      "channel": 0,
      "note": 36,
      "start": 47.8358,
      "duration": 0.0133,
      "velocity": 115,
      "chip": "ym2612"
    },
    {
      "channel": 4,
      "note": 79,
      "start": 47.8373,
      "duration": 0.013,
      "velocity": 94,
      "chip": "ym2612"
    },
    {
      "channel": 3,
      "note": 76,
      "start": 47.8387,
      "duration": 0.0129,
      "velocity": 94,
      "chip": "ym2612"
    },
    {
      "channel": 2,
      "note": 55,
      "start": 47.8401,
      "duration": 0.0126,
      "velocity": 100,
      "chip": "ym2612"
    },
    {
      "channel": 1,
      "note": 64,
      "start": 47.8474,
      "duration": 0.0162,
      "velocity": 124,
      "chip": "ym2612"
    },
    {
      "channel": 0,
      "note": 36,
      "start": 47.8491,
      "duration": 0.0162,
      "velocity": 115,
      "chip": "ym2612"
    },
    {
      "channel": 4,
      "note": 79,
      "start": 47.8503,
      "duration": 0.0162,
      "velocity": 94,
      "chip": "ym2612"
    },
    {
      "channel": 3,
      "note": 76,
      "start": 47.8515,
      "duration": 0.0161,
      "velocity": 94,
      "chip": "ym2612"
    },
    {
      "channel": 2,
      "note": 55,
      "start": 47.8527,
      "duration": 0.016,
      "velocity": 100,
      "chip": "ym2612"
    },
    {
      "channel": 1,
      "note": 64,
      "start": 47.8636,
      "duration": 0.0146,
      "velocity": 124,
      "chip": "ym2612"
    },
    {
      "channel": 0,
      "note": 37,
      "start": 47.8653,
      "duration": 0.0146,
      "velocity": 115,
      "chip": "ym2612"
    },
    {
      "channel": 4,
      "note": 79,
      "start": 47.8665,
      "duration": 0.0145,
      "velocity": 94,
      "chip": "ym2612"
    },
    {
      "channel": 3,
      "note": 76,
      "start": 47.8676,
      "duration": 0.0145,
      "velocity": 94,
      "chip": "ym2612"
    },
    {
      "channel": 2,
      "note": 55,
      "start": 47.8687,
      "duration": 0.0146,
      "velocity": 100,
      "chip": "ym2612"
    },
    {
      "channel": 1,
      "note": 64,
      "start": 47.8782,
      "duration": 0.0185,
      "velocity": 124,
      "chip": "ym2612"
    },
    {
      "channel": 0,
      "note": 37,
      "start": 47.8798,
      "duration": 0.0185,
      "velocity": 115,
      "chip": "ym2612"
    },
    {
      "channel": 4,
      "note": 79,
      "start": 47.881,
      "duration": 0.0186,
      "velocity": 94,
      "chip": "ym2612"
    },
    {
      "channel": 3,
      "note": 76,
      "start": 47.8821,
      "duration": 0.0186,
      "velocity": 94,
      "chip": "ym2612"
    },
    {
      "channel": 2,
      "note": 55,
      "start": 47.8833,
      "duration": 0.0185,
      "velocity": 100,
      "chip": "ym2612"
    },
    {
      "channel": 1,
      "note": 64,
      "start": 47.8967,
      "duration": 0.0161,
      "velocity": 124,
      "chip": "ym2612"
    },
    {
      "channel": 0,
      "note": 38,
      "start": 47.8983,
      "duration": 0.0161,
      "velocity": 115,
      "chip": "ym2612"
    },
    {
      "channel": 4,
      "note": 79,
      "start": 47.8995,
      "duration": 0.0161,
      "velocity": 94,
      "chip": "ym2612"
    },
    {
      "channel": 3,
      "note": 76,
      "start": 47.9007,
      "duration": 0.0161,
      "velocity": 94,
      "chip": "ym2612"
    },
    {
      "channel": 2,
      "note": 55,
      "start": 47.9018,
      "duration": 0.0161,
      "velocity": 100,
      "chip": "ym2612"
    },
    {
      "channel": 1,
      "note": 64,
      "start": 47.9128,
      "duration": 0.0134,
      "velocity": 124,
      "chip": "ym2612"
    },
    {
      "channel": 0,
      "note": 38,
      "start": 47.9144,
      "duration": 0.0158,
      "velocity": 115,
      "chip": "ym2612"
    },
    {
      "channel": 4,
      "note": 79,
      "start": 47.9156,
      "duration": 0.0157,
      "velocity": 94,
      "chip": "ym2612"
    },
    {
      "channel": 3,
      "note": 76,
      "start": 47.9168,
      "duration": 0.0157,
      "velocity": 94,
      "chip": "ym2612"
    },
    {
      "channel": 2,
      "note": 55,
      "start": 47.9179,
      "duration": 0.0158,
      "velocity": 100,
      "chip": "ym2612"
    },
    {
      "channel": 1,
      "note": 64,
      "start": 47.9261,
      "duration": 0.0181,
      "velocity": 105,
      "chip": "ym2612"
    },
    {
      "channel": 0,
      "note": 39,
      "start": 47.9302,
      "duration": 0.0157,
      "velocity": 115,
      "chip": "ym2612"
    },
    {
      "channel": 4,
      "note": 79,
      "start": 47.9313,
      "duration": 0.0159,
      "velocity": 94,
      "chip": "ym2612"
    },
    {
      "channel": 3,
      "note": 76,
      "start": 47.9325,
      "duration": 0.0161,
      "velocity": 94,
      "chip": "ym2612"
    },
    {
      "channel": 2,
      "note": 55,
      "start": 47.9336,
      "duration": 0.0164,
      "velocity": 100,
      "chip": "ym2612"
    },
    {
      "channel": 1,
      "note": 105,
      "start": 47.9443,
      "duration": 0.0141,
      "velocity": 105,
      "chip": "ym2612"
    },
    {
      "channel": 0,
      "note": 39,
      "start": 47.9459,
      "duration": 0.0168,
      "velocity": 115,
      "chip": "ym2612"
    },
    {
      "channel": 4,
      "note": 79,
      "start": 47.9473,
      "duration": 0.0167,
      "velocity": 94,
      "chip": "ym2612"
    },
    {
      "channel": 3,
      "note": 79,
      "start": 47.9486,
      "duration": 0.0166,
      "velocity": 94,
      "chip": "ym2612"
    },
    {
      "channel": 2,
      "note": 55,
      "start": 47.95,
      "duration": 0.0163,
      "velocity": 100,
      "chip": "ym2612"
    },
    {
      "channel": 1,
      "note": 105,
      "start": 47.9584,
      "duration": 0.016,
      "velocity": 105,
      "chip": "ym2612"
    },
    {
      "channel": 0,
      "note": 40,
      "start": 47.9628,
      "duration": 0.0133,
      "velocity": 115,
      "chip": "ym2612"
    },
    {
      "channel": 4,
      "note": 79,
      "start": 47.964,
      "duration": 0.016,
      "velocity": 94,
      "chip": "ym2612"
    },
    {
      "channel": 3,
      "note": 79,
      "start": 47.9652,
      "duration": 0.016,
      "velocity": 94,
      "chip": "ym2612"
    },
    {
      "channel": 2,
      "note": 55,
      "start": 47.9664,
      "duration": 0.0159,
      "velocity": 100,
      "chip": "ym2612"
    },
    {
      "channel": 1,
      "note": 105,
      "start": 47.9744,
      "duration": 0.0161,
      "velocity": 105,
      "chip": "ym2612"
    },
    {
      "channel": 0,
      "note": 40,
      "start": 47.9761,
      "duration": 0.0161,
      "velocity": 115,
      "chip": "ym2612"
    },
    {
      "channel": 4,
      "note": 79,
      "start": 47.98,
      "duration": 0.0157,
      "velocity": 94,
      "chip": "ym2612"
    },
    {
      "channel": 3,
      "note": 79,
      "start": 47.9812,
      "duration": 0.0157,
      "velocity": 94,
      "chip": "ym2612"
    },
    {
      "channel": 2,
      "note": 55,
      "start": 47.9822,
      "duration": 0.0158,
      "velocity": 100,
      "chip": "ym2612"
    },
    {
      "channel": 1,
      "note": 105,
      "start": 47.9905,
      "duration": 0.0161,
      "velocity": 105,
      "chip": "ym2612"
    },
    {
      "channel": 0,
      "note": 40,
      "start": 47.9922,
      "duration": 0.0161,
      "velocity": 115,
      "chip": "ym2612"
    },
    {
      "channel": 4,
      "note": 79,
      "start": 47.9957,
      "duration": 0.0137,
      "velocity": 94,
      "chip": "ym2612"
    },
    {
      "channel": 3,
      "note": 79,
      "start": 47.9969,
      "duration": 0.0141,
      "velocity": 94,
      "chip": "ym2612"
    },
    {
      "channel": 2,
      "note": 55,
      "start": 47.998,
      "duration": 0.0141,
      "velocity": 100,
      "chip": "ym2612"
    },
    {
      "channel": 1,
      "note": 105,
      "start": 48.0066,
      "duration": 0.0161,
      "velocity": 105,
      "chip": "ym2612"
    },
    {
      "channel": 0,
      "note": 41,
      "start": 48.0083,
      "duration": 0.0161,
      "velocity": 115,
      "chip": "ym2612"
    },
    {
      "channel": 4,
      "note": 79,
      "start": 48.0095,
      "duration": 0.0161,
      "velocity": 94,
      "chip": "ym2612"
    },
    {
      "channel": 3,
      "note": 79,
      "start": 48.0109,
      "duration": 0.0185,
      "velocity": 94,
      "chip": "ym2612"
    },
    {
      "channel": 2,
      "note": 55,
      "start": 48.0121,
      "duration": 0.0185,
      "velocity": 100,
      "chip": "ym2612"
    },
    {
      "channel": 1,
      "note": 105,
      "start": 48.0227,
      "duration": 0.0161,
      "velocity": 105,
      "chip": "ym2612"
    },
    {
      "channel": 0,
      "note": 41,
      "start": 48.0244,
      "duration": 0.0161,
      "velocity": 115,
      "chip": "ym2612"
    },
    {
      "channel": 4,
      "note": 79,
      "start": 48.0256,
      "duration": 0.0161,
      "velocity": 94,
      "chip": "ym2612"
    },
    {
      "channel": 3,
      "note": 79,
      "start": 48.0294,
      "duration": 0.0134,
      "velocity": 94,
      "chip": "ym2612"
    },
    {
      "channel": 2,
      "note": 55,
      "start": 48.0306,
      "duration": 0.0161,
      "velocity": 100,
      "chip": "ym2612"
    },
    {
      "channel": 1,
      "note": 105,
      "start": 48.0388,
      "duration": 0.0178,
      "velocity": 124,
      "chip": "ym2612"
    },
    {
      "channel": 0,
      "note": 42,
      "start": 48.0405,
      "duration": 0.0179,
      "velocity": 115,
      "chip": "ym2612"
    },
    {
      "channel": 4,
      "note": 79,
      "start": 48.0417,
      "duration": 0.0181,
      "velocity": 94,
      "chip": "ym2612"
    },
    {
      "channel": 3,
      "note": 79,
      "start": 48.0428,
      "duration": 0.0206,
      "velocity": 94,
      "chip": "ym2612"
    },
    {
      "channel": 2,
      "note": 55,
      "start": 48.0467,
      "duration": 0.0181,
      "velocity": 100,
      "chip": "ym2612"
    },
    {
      "channel": 1,
      "note": 64,
      "start": 48.0567,
      "duration": 0.0144,
      "velocity": 124,
      "chip": "ym2612"
    },
    {
      "channel": 0,
      "note": 42,
      "start": 48.0583,
      "duration": 0.0144,
      "velocity": 115,
      "chip": "ym2612"
    },
    {
      "channel": 4,
      "note": 76,
      "start": 48.0598,
      "duration": 0.0142,
      "velocity": 94,
      "chip": "ym2612"
    },
    {
      "channel": 3,
      "note": 79,
      "start": 48.0634,
      "duration": 0.0118,
      "velocity": 94,
      "chip": "ym2612"
    },
    {
      "channel": 2,
      "note": 55,
      "start": 48.0649,
      "duration": 0.0115,
      "velocity": 100,
      "chip": "ym2612"
    },
    {
      "channel": 1,
      "note": 64,
      "start": 48.0711,
      "duration": 0.016,
      "velocity": 124,
      "chip": "ym2612"
    },
    {
      "channel": 0,
      "note": 43,
      "start": 48.0728,
      "duration": 0.016,
      "velocity": 115,
      "chip": "ym2612"
    },
    {
      "channel": 4,
      "note": 76,
      "start": 48.074,
      "duration": 0.016,
      "velocity": 94,
      "chip": "ym2612"
    },
    {
      "channel": 3,
      "note": 79,
      "start": 48.0752,
      "duration": 0.0159,
      "velocity": 94,
      "chip": "ym2612"
    },
    {
      "channel": 2,
      "note": 55,
      "start": 48.0764,
      "duration": 0.0158,
      "velocity": 100,
      "chip": "ym2612"
    },
    {
      "channel": 1,
      "note": 64,
      "start": 48.0871,
      "duration": 0.0161,
      "velocity": 124,
      "chip": "ym2612"
    },
    {
      "channel": 0,
      "note": 43,
      "start": 48.0888,
      "duration": 0.0161,
      "velocity": 115,
      "chip": "ym2612"
    },
    {
      "channel": 4,
      "note": 76,
      "start": 48.09,
      "duration": 0.0161,
      "velocity": 94,
      "chip": "ym2612"
    },
    {
      "channel": 3,
      "note": 79,
      "start": 48.0911,
      "duration": 0.0161,
      "velocity": 94,
      "chip": "ym2612"
    },
    {
      "channel": 2,
      "note": 55,
      "start": 48.0922,
      "duration": 0.0161,
      "velocity": 100,
      "chip": "ym2612"
    },
    {
      "channel": 1,
      "note": 64,
      "start": 48.1032,
      "duration": 0.0161,
      "velocity": 124,
      "chip": "ym2612"
    },
    {
      "channel": 0,
      "note": 44,
      "start": 48.1049,
      "duration": 0.0161,
      "velocity": 115,
      "chip": "ym2612"
    },
    {
      "channel": 4,
      "note": 76,
      "start": 48.1061,
      "duration": 0.0161,
      "velocity": 94,
      "chip": "ym2612"
    },
    {
      "channel": 3,
      "note": 79,
      "start": 48.1072,
      "duration": 0.0161,
      "velocity": 94,
      "chip": "ym2612"
    },
    {
      "channel": 2,
      "note": 55,
      "start": 48.1083,
      "duration": 0.0161,
      "velocity": 100,
      "chip": "ym2612"
    },
    {
      "channel": 1,
      "note": 64,
      "start": 48.1193,
      "duration": 0.0161,
      "velocity": 124,
      "chip": "ym2612"
    },
    {
      "channel": 0,
      "note": 44,
      "start": 48.121,
      "duration": 0.0161,
      "velocity": 115,
      "chip": "ym2612"
    },
    {
      "channel": 4,
      "note": 76,
      "start": 48.1222,
      "duration": 0.0161,
      "velocity": 94,
      "chip": "ym2612"
    },
    {
      "channel": 3,
      "note": 79,
      "start": 48.1233,
      "duration": 0.0161,
      "velocity": 94,
      "chip": "ym2612"
    },
    {
      "channel": 2,
      "note": 55,
      "start": 48.1244,
      "duration": 0.0161,
      "velocity": 100,
      "chip": "ym2612"
    },
    {
      "channel": 1,
      "note": 64,
      "start": 48.1354,
      "duration": 0.0161,
      "velocity": 124,
      "chip": "ym2612"
    },
    {
      "channel": 0,
      "note": 44,
      "start": 48.1371,
      "duration": 0.0161,
      "velocity": 115,
      "chip": "ym2612"
    },
    {
      "channel": 4,
      "note": 76,
      "start": 48.1383,
      "duration": 0.0161,
      "velocity": 94,
      "chip": "ym2612"
    },
    {
      "channel": 3,
      "note": 79,
      "start": 48.1394,
      "duration": 0.0161,
      "velocity": 94,
      "chip": "ym2612"
    },
    {
      "channel": 2,
      "note": 55,
      "start": 48.1405,
      "duration": 0.0162,
      "velocity": 100,
      "chip": "ym2612"
    },
    {
      "channel": 1,
      "note": 64,
      "start": 48.1515,
      "duration": 0.0178,
      "velocity": 105,
      "chip": "ym2612"
    },
    {
      "channel": 0,
      "note": 45,
      "start": 48.1532,
      "duration": 0.0178,
      "velocity": 115,
      "chip": "ym2612"
    },
    {
      "channel": 4,
      "note": 76,
      "start": 48.1544,
      "duration": 0.018,
      "velocity": 94,
      "chip": "ym2612"
    },
    {
      "channel": 3,
      "note": 79,
      "start": 48.1555,
      "duration": 0.0183,
      "velocity": 94,
      "chip": "ym2612"
    },
    {
      "channel": 2,
      "note": 55,
      "start": 48.1567,
      "duration": 0.0186,
      "velocity": 100,
      "chip": "ym2612"
    },
    {
      "channel": 1,
      "note": 105,
      "start": 48.1693,
      "duration": 0.0144,
      "velocity": 105,
      "chip": "ym2612"
    },
    {
      "channel": 0,
      "note": 45,
      "start": 48.171,
      "duration": 0.0144,
      "velocity": 115,
      "chip": "ym2612"
    },
    {
      "channel": 4,
      "note": 79,
      "start": 48.1724,
      "duration": 0.0142,
      "velocity": 94,
      "chip": "ym2612"
    },
    {
      "channel": 3,
      "note": 76,
      "start": 48.1738,
      "duration": 0.0141,
      "velocity": 94,
      "chip": "ym2612"
    },
    {
      "channel": 2,
      "note": 55,
      "start": 48.1753,
      "duration": 0.0137,
      "velocity": 100,
      "chip": "ym2612"
    },
    {
      "channel": 1,
      "note": 105,
      "start": 48.1838,
      "duration": 0.016,
      "velocity": 105,
      "chip": "ym2612"
    },
    {
      "channel": 0,
      "note": 46,
      "start": 48.1854,
      "duration": 0.0161,
      "velocity": 115,
      "chip": "ym2612"
    },
    {
      "channel": 4,
      "note": 79,
      "start": 48.1867,
      "duration": 0.016,
      "velocity": 94,
      "chip": "ym2612"
    },
    {
      "channel": 3,
      "note": 76,
      "start": 48.1879,
      "duration": 0.0159,
      "velocity": 94,
      "chip": "ym2612"
    },
    {
      "channel": 2,
      "note": 55,
      "start": 48.189,
      "duration": 0.0159,
      "velocity": 100,
      "chip": "ym2612"
    },
    {
      "channel": 1,
      "note": 105,
      "start": 48.1998,
      "duration": 0.0162,
      "velocity": 105,
      "chip": "ym2612"
    },
    {
      "channel": 0,
      "note": 46,
      "start": 48.2015,
      "duration": 0.0161,
      "velocity": 115,
      "chip": "ym2612"
    },
    {
      "channel": 4,
      "note": 79,
      "start": 48.2027,
      "duration": 0.0161,
      "velocity": 94,
      "chip": "ym2612"
    },
    {
      "channel": 3,
      "note": 76,
      "start": 48.2038,
      "duration": 0.0161,
      "velocity": 94,
      "chip": "ym2612"
    },
    {
      "channel": 2,
      "note": 55,
      "start": 48.2049,
      "duration": 0.0161,
      "velocity": 100,
      "chip": "ym2612"
    },
    {
      "channel": 1,
      "note": 105,
      "start": 48.216,
      "duration": 0.0161,
      "velocity": 105,
      "chip": "ym2612"
    },
    {
      "channel": 0,
      "note": 47,
      "start": 48.2176,
      "duration": 0.0161,
      "velocity": 115,
      "chip": "ym2612"
    },
    {
      "channel": 4,
      "note": 79,
      "start": 48.2188,
      "duration": 0.0161,
      "velocity": 94,
      "chip": "ym2612"
    },
    {
      "channel": 3,
      "note": 76,
      "start": 48.2199,
      "duration": 0.0161,
      "velocity": 94,
      "chip": "ym2612"
    },
    {
      "channel": 2,
      "note": 55,
      "start": 48.221,
      "duration": 0.0161,
      "velocity": 100,
      "chip": "ym2612"
    },
    {
      "channel": 1,
      "note": 105,
      "start": 48.232,
      "duration": 0.0161,
      "velocity": 105,
      "chip": "ym2612"
    },
    {
      "channel": 0,
      "note": 47,
      "start": 48.2337,
      "duration": 0.0161,
      "velocity": 115,
      "chip": "ym2612"
    },
    {
      "channel": 4,
      "note": 79,
      "start": 48.2349,
      "duration": 0.0161,
      "velocity": 94,
      "chip": "ym2612"
    },
    {
      "channel": 3,
      "note": 76,
      "start": 48.236,
      "duration": 0.0161,
      "velocity": 94,
      "chip": "ym2612"
    },
    {
      "channel": 2,
      "note": 55,
      "start": 48.2371,
      "duration": 0.0161,
      "velocity": 100,
      "chip": "ym2612"
    },
    {
      "channel": 1,
      "note": 105,
      "start": 48.2481,
      "duration": 0.0161,
      "velocity": 105,
      "chip": "ym2612"
    },
    {
      "channel": 0,
      "note": 47,
      "start": 48.2498,
      "duration": 0.0161,
      "velocity": 115,
      "chip": "ym2612"
    },
    {
      "channel": 4,
      "note": 79,
      "start": 48.2509,
      "duration": 0.0161,
      "velocity": 94,
      "chip": "ym2612"
    },
    {
      "channel": 3,
      "note": 76,
      "start": 48.2521,
      "duration": 0.0161,
      "velocity": 94,
      "chip": "ym2612"
    },
    {
      "channel": 2,
      "note": 55,
      "start": 48.2532,
      "duration": 0.0161,
      "velocity": 100,
      "chip": "ym2612"
    },
    {
      "channel": 1,
      "note": 105,
      "start": 48.2642,
      "duration": 0.0183,
      "velocity": 124,
      "chip": "ym2612"
    },
    {
      "channel": 0,
      "note": 48,
      "start": 48.2659,
      "duration": 0.0191,
      "velocity": 115,
      "chip": "ym2612"
    },
    {
      "channel": 4,
      "note": 79,
      "start": 48.267,
      "duration": 0.0193,
      "velocity": 94,
      "chip": "ym2612"
    },
    {
      "channel": 3,
      "note": 76,
      "start": 48.2682,
      "duration": 0.0197,
      "velocity": 94,
      "chip": "ym2612"
    },
    {
      "channel": 2,
      "note": 55,
      "start": 48.2693,
      "duration": 0.0199,
      "velocity": 100,
      "chip": "ym2612"
    },
    {
      "channel": 1,
      "note": 78,
      "start": 48.2826,
      "duration": 0.0152,
      "velocity": 124,
      "chip": "ym2612"
    },
    {
      "channel": 0,
      "note": 48,
      "start": 48.285,
      "duration": 0.0147,
      "velocity": 115,
      "chip": "ym2612"
    },
    {
      "channel": 4,
      "note": 76,
      "start": 48.2864,
      "duration": 0.0146,
      "velocity": 94,
      "chip": "ym2612"
    },
    {
      "channel": 3,
      "note": 79,
      "start": 48.2878,
      "duration": 0.0144,
      "velocity": 94,
      "chip": "ym2612"
    },
    {
      "channel": 2,
      "note": 55,
      "start": 48.2893,
      "duration": 0.0141,
      "velocity": 100,
      "chip": "ym2612"
    },
    {
      "channel": 1,
      "note": 76,
      "start": 48.2978,
      "duration": 0.0166,
      "velocity": 124,
      "chip": "ym2612"
    },
    {
      "channel": 0,
      "note": 49,
      "start": 48.2997,
      "duration": 0.0158,
      "velocity": 1,
      "chip": "ym2612"
    },
    {
      "channel": 4,
      "note": 76,
      "start": 48.301,
      "duration": 0.0157,
      "velocity": 94,
      "chip": "ym2612"
    },
    {
      "channel": 3,
      "note": 79,
      "start": 48.3022,
      "duration": 0.0156,
      "velocity": 94,
      "chip": "ym2612"
    },
    {
      "channel": 2,
      "note": 55,
      "start": 48.3034,
      "duration": 0.0156,
      "velocity": 100,
      "chip": "ym2612"
    },
    {
      "channel": 1,
      "note": 75,
      "start": 48.3144,
      "duration": 0.0163,
      "velocity": 124,
      "chip": "ym2612"
    },
    {
      "channel": 4,
      "note": 76,
      "start": 48.3167,
      "duration": 0.0155,
      "velocity": 94,
      "chip": "ym2612"
    },
    {
      "channel": 3,
      "note": 79,
      "start": 48.3179,
      "duration": 0.0154,
      "velocity": 94,
      "chip": "ym2612"
    },
    {
      "channel": 2,
      "note": 55,
      "start": 48.3189,
      "duration": 0.0155,
      "velocity": 100,
      "chip": "ym2612"
    },
    {
      "channel": 1,
      "note": 74,
      "start": 48.3308,
      "duration": 0.0146,
      "velocity": 124,
      "chip": "ym2612"
    },
    {
      "channel": 4,
      "note": 76,
      "start": 48.3322,
      "duration": 0.0146,
      "velocity": 94,
      "chip": "ym2612"
    },
    {
      "channel": 3,
      "note": 79,
      "start": 48.3333,
      "duration": 0.0146,
      "velocity": 94,
      "chip": "ym2612"
    },
    {
      "channel": 2,
      "note": 55,
      "start": 48.3345,
      "duration": 0.0146,
      "velocity": 100,
      "chip": "ym2612"
    },
    {
      "channel": 1,
      "note": 72,
      "start": 48.3454,
      "duration": 0.0187,
      "velocity": 124,
      "chip": "ym2612"
    },
    {
      "channel": 4,
      "note": 76,
      "start": 48.3468,
      "duration": 0.0186,
      "velocity": 94,
      "chip": "ym2612"
    },
    {
      "channel": 3,
      "note": 79,
      "start": 48.348,
      "duration": 0.0186,
      "velocity": 94,
      "chip": "ym2612"
    },
    {
      "channel": 2,
      "note": 55,
      "start": 48.3491,
      "duration": 0.0186,
      "velocity": 100,
      "chip": "ym2612"
    },
    {
      "channel": 1,
      "note": 71,
      "start": 48.3641,
      "duration": 0.0161,
      "velocity": 124,
      "chip": "ym2612"
    },
    {
      "channel": 4,
      "note": 76,
      "start": 48.3654,
      "duration": 0.0162,
      "velocity": 94,
      "chip": "ym2612"
    },
    {
      "channel": 3,
      "note": 79,
      "start": 48.3666,
      "duration": 0.0161,
      "velocity": 94,
      "chip": "ym2612"
    },
    {
      "channel": 2,
      "note": 55,
      "start": 48.3677,
      "duration": 0.0161,
      "velocity": 100,
      "chip": "ym2612"
    },
    {
      "channel": 1,
      "note": 70,
      "start": 48.3802,
      "duration": 0.0157,
      "velocity": 124,
      "chip": "ym2612"
    },
    {
      "channel": 4,
      "note": 76,
      "start": 48.3816,
      "duration": 0.0165,
      "velocity": 94,
      "chip": "ym2612"
    },
    {
      "channel": 3,
      "note": 79,
      "start": 48.3827,
      "duration": 0.0167,
      "velocity": 94,
      "chip": "ym2612"
    },
    {
      "channel": 2,
      "note": 55,
      "start": 48.3838,
      "duration": 0.0171,
      "velocity": 100,
      "chip": "ym2612"
    },
    {
      "channel": 1,
      "note": 69,
      "start": 48.3959,
      "duration": 0.0137,
      "velocity": 124,
      "chip": "ym2612"
    },
    {
      "channel": 4,
      "note": 79,
      "start": 48.3981,
      "duration": 0.0133,
      "velocity": 94,
      "chip": "ym2612"
    },
    {
      "channel": 3,
      "note": 76,
      "start": 48.3995,
      "duration": 0.0131,
      "velocity": 94,
      "chip": "ym2612"
    },
    {
      "channel": 2,
      "note": 55,
      "start": 48.4009,
      "duration": 0.0129,
      "velocity": 100,
      "chip": "ym2612"
    },
    {
      "channel": 1,
      "note": 68,
      "start": 48.4097,
      "duration": 0.0161,
      "velocity": 124,
      "chip": "ym2612"
    },
    {
      "channel": 4,
      "note": 79,
      "start": 48.4114,
      "duration": 0.0185,
      "velocity": 94,
      "chip": "ym2612"
    },
    {
      "channel": 3,
      "note": 76,
      "start": 48.4127,
      "duration": 0.0184,
      "velocity": 94,
      "chip": "ym2612"
    },
    {
      "channel": 2,
      "note": 55,
      "start": 48.4139,
      "duration": 0.0183,
      "velocity": 100,
      "chip": "ym2612"
    },
    {
      "channel": 1,
      "note": 66,
      "start": 48.4258,
      "duration": 0.0161,
      "velocity": 124,
      "chip": "ym2612"
    },
    {
      "channel": 4,
      "note": 79,
      "start": 48.4299,
      "duration": 0.0161,
      "velocity": 94,
      "chip": "ym2612"
    },
    {
      "channel": 3,
      "note": 76,
      "start": 48.431,
      "duration": 0.0161,
      "velocity": 94,
      "chip": "ym2612"
    },
    {
      "channel": 2,
      "note": 55,
      "start": 48.4322,
      "duration": 0.0161,
      "velocity": 100,
      "chip": "ym2612"
    },
    {
      "channel": 1,
      "note": 65,
      "start": 48.4418,
      "duration": 0.0161,
      "velocity": 124,
      "chip": "ym2612"
    },
    {
      "channel": 4,
      "note": 79,
      "start": 48.446,
      "duration": 0.0134,
      "velocity": 94,
      "chip": "ym2612"
    },
    {
      "channel": 3,
      "note": 76,
      "start": 48.4471,
      "duration": 0.0157,
      "velocity": 94,
      "chip": "ym2612"
    },
    {
      "channel": 2,
      "note": 55,
      "start": 48.4483,
      "duration": 0.0157,
      "velocity": 100,
      "chip": "ym2612"
    },
    {
      "channel": 1,
      "note": 64,
      "start": 48.4579,
      "duration": 0.0161,
      "velocity": 124,
      "chip": "ym2612"
    },
    {
      "channel": 4,
      "note": 79,
      "start": 48.4593,
      "duration": 0.0161,
      "velocity": 94,
      "chip": "ym2612"
    },
    {
      "channel": 3,
      "note": 76,
      "start": 48.4628,
      "duration": 0.0141,
      "velocity": 94,
      "chip": "ym2612"
    },
    {
      "channel": 2,
      "note": 55,
      "start": 48.464,
      "duration": 0.0141,
      "velocity": 100,
      "chip": "ym2612"
    },
    {
      "channel": 1,
      "note": 62,
      "start": 48.474,
      "duration": 0.0161,
      "velocity": 124,
      "chip": "ym2612"
    },
    {
      "channel": 4,
      "note": 79,
      "start": 48.4754,
      "duration": 0.0161,
      "velocity": 94,
      "chip": "ym2612"
    },
    {
      "channel": 3,
      "note": 76,
      "start": 48.4769,
      "duration": 0.0158,
      "velocity": 94,
      "chip": "ym2612"
    },
    {
      "channel": 2,
      "note": 55,
      "start": 48.478,
      "duration": 0.0185,
      "velocity": 100,
      "chip": "ym2612"
    },
    {
      "channel": 1,
      "note": 61,
      "start": 48.4901,
      "duration": 0.0161,
      "velocity": 124,
      "chip": "ym2612"
    },
    {
      "channel": 4,
      "note": 79,
      "start": 48.4915,
      "duration": 0.0167,
      "velocity": 94,
      "chip": "ym2612"
    },
    {
      "channel": 3,
      "note": 76,
      "start": 48.4927,
      "duration": 0.017,
      "velocity": 94,
      "chip": "ym2612"
    },
    {
      "channel": 2,
      "note": 55,
      "start": 48.4966,
      "duration": 0.0173,
      "velocity": 100,
      "chip": "ym2612"
    },
    {
      "channel": 1,
      "note": 60,
      "start": 48.5062,
      "duration": 0.0161,
      "velocity": 124,
      "chip": "ym2612"
    },
    {
      "channel": 4,
      "note": 79,
      "start": 48.5083,
      "duration": 0.0156,
      "velocity": 94,
      "chip": "ym2612"
    },
    {
      "channel": 3,
      "note": 79,
      "start": 48.5097,
      "duration": 0.0153,
      "velocity": 94,
      "chip": "ym2612"
    },
    {
      "channel": 2,
      "note": 48,
      "start": 48.5139,
      "duration": 0.0123,
      "velocity": 100,
      "chip": "ym2612"
    },
    {
      "channel": 1,
      "note": 59,
      "start": 48.5223,
      "duration": 0.0161,
      "velocity": 124,
      "chip": "ym2612"
    },
    {
      "channel": 4,
      "note": 79,
      "start": 48.5238,
      "duration": 0.016,
      "velocity": 94,
      "chip": "ym2612"
    },
    {
      "channel": 3,
      "note": 79,
      "start": 48.5251,
      "duration": 0.0159,
      "velocity": 94,
      "chip": "ym2612"
    },
    {
      "channel": 2,
      "note": 48,
      "start": 48.5262,
      "duration": 0.0159,
      "velocity": 100,
      "chip": "ym2612"
    },
    {
      "channel": 1,
      "note": 57,
      "start": 48.5384,
      "duration": 0.0161,
      "velocity": 124,
      "chip": "ym2612"
    },
    {
      "channel": 4,
      "note": 79,
      "start": 48.5398,
      "duration": 0.0161,
      "velocity": 94,
      "chip": "ym2612"
    },
    {
      "channel": 3,
      "note": 79,
      "start": 48.541,
      "duration": 0.0161,
      "velocity": 94,
      "chip": "ym2612"
    },
    {
      "channel": 2,
      "note": 48,
      "start": 48.5421,
      "duration": 0.0161,
      "velocity": 100,
      "chip": "ym2612"
    },
    {
      "channel": 1,
      "note": 56,
      "start": 48.5546,
      "duration": 0.0161,
      "velocity": 124,
      "chip": "ym2612"
    },
    {
      "channel": 4,
      "note": 79,
      "start": 48.5559,
      "duration": 0.0162,
      "velocity": 94,
      "chip": "ym2612"
    },
    {
      "channel": 3,
      "note": 79,
      "start": 48.5571,
      "duration": 0.0161,
      "velocity": 94,
      "chip": "ym2612"
    },
    {
      "channel": 2,
      "note": 48,
      "start": 48.5582,
      "duration": 0.0162,
      "velocity": 100,
      "chip": "ym2612"
    },
    {
      "channel": 1,
      "note": 55,
      "start": 48.5707,
      "duration": 0.0161,
      "velocity": 124,
      "chip": "ym2612"
    },
    {
      "channel": 4,
      "note": 79,
      "start": 48.5721,
      "duration": 0.0161,
      "velocity": 94,
      "chip": "ym2612"
    },
    {
      "channel": 3,
      "note": 79,
      "start": 48.5732,
      "duration": 0.0161,
      "velocity": 94,
      "chip": "ym2612"
    },
    {
      "channel": 2,
      "note": 48,
      "start": 48.5744,
      "duration": 0.0161,
      "velocity": 100,
      "chip": "ym2612"
    },
    {
      "channel": 1,
      "note": 53,
      "start": 48.5868,
      "duration": 0.0161,
      "velocity": 124,
      "chip": "ym2612"
    },
    {
      "channel": 4,
      "note": 79,
      "start": 48.5882,
      "duration": 0.0161,
      "velocity": 94,
      "chip": "ym2612"
    },
    {
      "channel": 3,
      "note": 79,
      "start": 48.5893,
      "duration": 0.0161,
      "velocity": 94,
      "chip": "ym2612"
    },
    {
      "channel": 2,
      "note": 48,
      "start": 48.5905,
      "duration": 0.0161,
      "velocity": 100,
      "chip": "ym2612"
    },
    {
      "channel": 1,
      "note": 52,
      "start": 48.6029,
      "duration": 0.0161,
      "velocity": 124,
      "chip": "ym2612"
    },
    {
      "channel": 4,
      "note": 79,
      "start": 48.6042,
      "duration": 0.0204,
      "velocity": 94,
      "chip": "ym2612"
    },
    {
      "channel": 3,
      "note": 79,
      "start": 48.6054,
      "duration": 0.0205,
      "velocity": 94,
      "chip": "ym2612"
    },
    {
      "channel": 2,
      "note": 48,
      "start": 48.6065,
      "duration": 0.0235,
      "velocity": 100,
      "chip": "ym2612"
    },
    {
      "channel": 1,
      "note": 51,
      "start": 48.6189,
      "duration": 0.0153,
      "velocity": 1,
      "chip": "ym2612"
    },
    {
      "channel": 0,
      "note": 78,
      "start": 48.6232,
      "duration": 0.015,
      "velocity": 127,
      "chip": "ym2612"
    },
    {
      "channel": 4,
      "note": 76,
      "start": 48.6246,
      "duration": 0.0148,
      "velocity": 94,
      "chip": "ym2612"
    },
    {
      "channel": 3,
      "note": 79,
      "start": 48.6259,
      "duration": 0.0147,
      "velocity": 94,
      "chip": "ym2612"
    },
    {
      "channel": 2,
      "note": 48,
      "start": 48.6301,
      "duration": 0.0117,
      "velocity": 100,
      "chip": "ym2612"
    },
    {
      "channel": 1,
      "note": 51,
      "start": 48.6364,
      "duration": 0.0142,
      "velocity": 105,
      "chip": "ym2612"
    },
    {
      "channel": 0,
      "note": 76,
      "start": 48.6382,
      "duration": 0.0142,
      "velocity": 127,
      "chip": "ym2612"
    },
    {
      "channel": 4,
      "note": 76,
      "start": 48.6394,
      "duration": 0.0141,
      "velocity": 94,
      "chip": "ym2612"
    },
    {
      "channel": 3,
      "note": 79,
      "start": 48.6406,
      "duration": 0.0141,
      "velocity": 94,
      "chip": "ym2612"
    },
    {
      "channel": 2,
      "note": 48,
      "start": 48.6417,
      "duration": 0.0141,
      "velocity": 100,
      "chip": "ym2612"
    },
    {
      "channel": 1,
      "note": 105,
      "start": 48.6507,
      "duration": 0.0161,
      "velocity": 105,
      "chip": "ym2612"
    },
    {
      "channel": 0,
      "note": 75,
      "start": 48.6523,
      "duration": 0.0161,
      "velocity": 127,
      "chip": "ym2612"
    },
    {
      "channel": 4,
      "note": 76,
      "start": 48.6535,
      "duration": 0.0161,
      "velocity": 94,
      "chip": "ym2612"
    },
    {
      "channel": 3,
      "note": 79,
      "start": 48.6546,
      "duration": 0.0161,
      "velocity": 94,
      "chip": "ym2612"
    },
    {
      "channel": 2,
      "note": 48,
      "start": 48.6558,
      "duration": 0.0161,
      "velocity": 100,
      "chip": "ym2612"
    },
    {
      "channel": 1,
      "note": 105,
      "start": 48.6668,
      "duration": 0.0161,
      "velocity": 105,
      "chip": "ym2612"
    },
    {
      "channel": 0,
      "note": 73,
      "start": 48.6684,
      "duration": 0.0161,
      "velocity": 127,
      "chip": "ym2612"
    },
    {
      "channel": 4,
      "note": 76,
      "start": 48.6696,
      "duration": 0.0161,
      "velocity": 94,
      "chip": "ym2612"
    },
    {
      "channel": 3,
      "note": 79,
      "start": 48.6707,
      "duration": 0.0161,
      "velocity": 94,
      "chip": "ym2612"
    },
    {
      "channel": 2,
      "note": 48,
      "start": 48.6719,
      "duration": 0.0161,
      "velocity": 100,
      "chip": "ym2612"
    },
    {
      "channel": 1,
      "note": 105,
      "start": 48.6829,
      "duration": 0.0161,
      "velocity": 105,
      "chip": "ym2612"
    },
    {
      "channel": 0,
      "note": 71,
      "start": 48.6845,
      "duration": 0.0161,
      "velocity": 127,
      "chip": "ym2612"
    },
    {
      "channel": 4,
      "note": 76,
      "start": 48.6857,
      "duration": 0.0161,
      "velocity": 94,
      "chip": "ym2612"
    },
    {
      "channel": 3,
      "note": 79,
      "start": 48.6868,
      "duration": 0.0161,
      "velocity": 94,
      "chip": "ym2612"
    },
    {
      "channel": 2,
      "note": 48,
      "start": 48.688,
      "duration": 0.0161,
      "velocity": 100,
      "chip": "ym2612"
    },
    {
      "channel": 1,
      "note": 105,
      "start": 48.699,
      "duration": 0.0161,
      "velocity": 105,
      "chip": "ym2612"
    },
    {
      "channel": 0,
      "note": 70,
      "start": 48.7006,
      "duration": 0.0161,
      "velocity": 127,
      "chip": "ym2612"
    },
    {
      "channel": 4,
      "note": 76,
      "start": 48.7018,
      "duration": 0.0162,
      "velocity": 94,
      "chip": "ym2612"
    },
    {
      "channel": 3,
      "note": 79,
      "start": 48.7029,
      "duration": 0.0161,
      "velocity": 94,
      "chip": "ym2612"
    },
    {
      "channel": 2,
      "note": 48,
      "start": 48.7041,
      "duration": 0.0161,
      "velocity": 100,
      "chip": "ym2612"
    },
    {
      "channel": 1,
      "note": 105,
      "start": 48.7151,
      "duration": 0.0178,
      "velocity": 124,
      "chip": "ym2612"
    },
    {
      "channel": 0,
      "note": 68,
      "start": 48.7167,
      "duration": 0.0197,
      "velocity": 115,
      "chip": "ym2612"
    },
    {
      "channel": 4,
      "note": 76,
      "start": 48.7179,
      "duration": 0.0198,
      "velocity": 94,
      "chip": "ym2612"
    },
    {
      "channel": 3,
      "note": 79,
      "start": 48.719,
      "duration": 0.02,
      "velocity": 94,
      "chip": "ym2612"
    },
    {
      "channel": 2,
      "note": 48,
      "start": 48.7202,
      "duration": 0.0203,
      "velocity": 100,
      "chip": "ym2612"
    },
    {
      "channel": 1,
      "note": 64,
      "start": 48.7329,
      "duration": 0.0144,
      "velocity": 124,
      "chip": "ym2612"
    },
    {
      "channel": 0,
      "note": 36,
      "start": 48.7364,
      "duration": 0.0127,
      "velocity": 115,
      "chip": "ym2612"
    },
    {
      "channel": 4,
      "note": 76,
      "start": 48.7377,
      "duration": 0.0126,
      "velocity": 94,
      "chip": "ym2612"
    },
    {
      "channel": 3,
      "note": 76,
      "start": 48.7391,
      "duration": 0.0124,
      "velocity": 94,
      "chip": "ym2612"
    },
    {
      "channel": 2,
      "note": 50,
      "start": 48.7405,
      "duration": 0.0122,
      "velocity": 100,
      "chip": "ym2612"
    },
    {
      "channel": 1,
      "note": 64,
      "start": 48.7473,
      "duration": 0.0167,
      "velocity": 124,
      "chip": "ym2612"
    },
    {
      "channel": 0,
      "note": 36,
      "start": 48.7491,
      "duration": 0.0166,
      "velocity": 115,
      "chip": "ym2612"
    },
    {
      "channel": 4,
      "note": 76,
      "start": 48.7503,
      "duration": 0.0165,
      "velocity": 94,
      "chip": "ym2612"
    },
    {
      "channel": 3,
      "note": 76,
      "start": 48.7515,
      "duration": 0.0164,
      "velocity": 94,
      "chip": "ym2612"
    },
    {
      "channel": 2,
      "note": 50,
      "start": 48.7527,
      "duration": 0.0164,
      "velocity": 100,
      "chip": "ym2612"
    },
    {
      "channel": 1,
      "note": 64,
      "start": 48.764,
      "duration": 0.0167,
      "velocity": 124,
      "chip": "ym2612"
    },
    {
      "channel": 0,
      "note": 37,
      "start": 48.7656,
      "duration": 0.0167,
      "velocity": 115,
      "chip": "ym2612"
    },
    {
      "channel": 4,
      "note": 76,
      "start": 48.7668,
      "duration": 0.0167,
      "velocity": 94,
      "chip": "ym2612"
    },
    {
      "channel": 3,
      "note": 76,
      "start": 48.7679,
      "duration": 0.0167,
      "velocity": 94,
      "chip": "ym2612"
    },
    {
      "channel": 2,
      "note": 50,
      "start": 48.7691,
      "duration": 0.0167,
      "velocity": 100,
      "chip": "ym2612"
    },
    {
      "channel": 1,
      "note": 64,
      "start": 48.7807,
      "duration": 0.0163,
      "velocity": 124,
      "chip": "ym2612"
    },
    {
      "channel": 0,
      "note": 37,
      "start": 48.7823,
      "duration": 0.0163,
      "velocity": 115,
      "chip": "ym2612"
    },
    {
      "channel": 4,
      "note": 76,
      "start": 48.7834,
      "duration": 0.0163,
      "velocity": 94,
      "chip": "ym2612"
    },
    {
      "channel": 3,
      "note": 76,
      "start": 48.7846,
      "duration": 0.0163,
      "velocity": 94,
      "chip": "ym2612"
    },
    {
      "channel": 2,
      "note": 50,
      "start": 48.7857,
      "duration": 0.0163,
      "velocity": 100,
      "chip": "ym2612"
    },
    {
      "channel": 1,
      "note": 64,
      "start": 48.7969,
      "duration": 0.0148,
      "velocity": 124,
      "chip": "ym2612"
    },
    {
      "channel": 0,
      "note": 38,
      "start": 48.7986,
      "duration": 0.0148,
      "velocity": 115,
      "chip": "ym2612"
    },
    {
      "channel": 4,
      "note": 76,
      "start": 48.7998,
      "duration": 0.0148,
      "velocity": 94,
      "chip": "ym2612"
    },
    {
      "channel": 3,
      "note": 76,
      "start": 48.8009,
      "duration": 0.0148,
      "velocity": 94,
      "chip": "ym2612"
    },
    {
      "channel": 2,
      "note": 50,
      "start": 48.802,
      "duration": 0.0148,
      "velocity": 100,
      "chip": "ym2612"
    },
    {
      "channel": 1,
      "note": 64,
      "start": 48.8117,
      "duration": 0.0188,
      "velocity": 124,
      "chip": "ym2612"
    },
    {
      "channel": 0,
      "note": 38,
      "start": 48.8134,
      "duration": 0.0188,
      "velocity": 115,
      "chip": "ym2612"
    },
    {
      "channel": 4,
      "note": 76,
      "start": 48.8146,
      "duration": 0.0188,
      "velocity": 94,
      "chip": "ym2612"
    },
    {
      "channel": 3,
      "note": 76,
      "start": 48.8157,
      "duration": 0.0188,
      "velocity": 94,
      "chip": "ym2612"
    },
    {
      "channel": 2,
      "note": 50,
      "start": 48.8168,
      "duration": 0.0188,
      "velocity": 100,
      "chip": "ym2612"
    },
    {
      "channel": 1,
      "note": 64,
      "start": 48.8305,
      "duration": 0.0178,
      "velocity": 105,
      "chip": "ym2612"
    },
    {
      "channel": 0,
      "note": 39,
      "start": 48.8322,
      "duration": 0.0178,
      "velocity": 115,
      "chip": "ym2612"
    },
    {
      "channel": 4,
      "note": 76,
      "start": 48.8334,
      "duration": 0.018,
      "velocity": 94,
      "chip": "ym2612"
    },
    {
      "channel": 3,
      "note": 76,
      "start": 48.8345,
      "duration": 0.0182,
      "velocity": 94,
      "chip": "ym2612"
    },
    {
      "channel": 2,
      "note": 50,
      "start": 48.8356,
      "duration": 0.0185,
      "velocity": 100,
      "chip": "ym2612"
    },
    {
      "channel": 1,
      "note": 105,
      "start": 48.8483,
      "duration": 0.0141,
      "velocity": 105,
      "chip": "ym2612"
    },
    {
      "channel": 0,
      "note": 39,
      "start": 48.85,
      "duration": 0.0141,
      "velocity": 115,
      "chip": "ym2612"
    },
    {
      "channel": 4,
      "note": 74,
      "start": 48.8515,
      "duration": 0.0139,
      "velocity": 94,
      "chip": "ym2612"
    },
    {
      "channel": 3,
      "note": 76,
      "start": 48.8527,
      "duration": 0.0138,
      "velocity": 94,
      "chip": "ym2612"
    },
    {
      "channel": 2,
      "note": 50,
      "start": 48.8542,
      "duration": 0.0135,
      "velocity": 100,
      "chip": "ym2612"
    },
    {
      "channel": 1,
      "note": 105,
      "start": 48.8624,
      "duration": 0.0137,
      "velocity": 105,
      "chip": "ym2612"
    },
    {
      "channel": 0,
      "note": 40,
      "start": 48.8641,
      "duration": 0.0139,
      "velocity": 115,
      "chip": "ym2612"
    },
    {
      "channel": 4,
      "note": 74,
      "start": 48.8653,
      "duration": 0.0139,
      "velocity": 94,
      "chip": "ym2612"
    },
    {
      "channel": 3,
      "note": 76,
      "start": 48.8665,
      "duration": 0.0139,
      "velocity": 94,
      "chip": "ym2612"
    },
    {
      "channel": 2,
      "note": 50,
      "start": 48.8677,
      "duration": 0.0138,
      "velocity": 100,
      "chip": "ym2612"
    },
    {
      "channel": 1,
      "note": 105,
      "start": 48.8761,
      "duration": 0.0161,
      "velocity": 105,
      "chip": "ym2612"
    },
    {
      "channel": 0,
      "note": 40,
      "start": 48.878,
      "duration": 0.0185,
      "velocity": 115,
      "chip": "ym2612"
    },
    {
      "channel": 4,
      "note": 74,
      "start": 48.8793,
      "duration": 0.0185,
      "velocity": 94,
      "chip": "ym2612"
    },
    {
      "channel": 3,
      "note": 76,
      "start": 48.8804,
      "duration": 0.0185,
      "velocity": 94,
      "chip": "ym2612"
    },
    {
      "channel": 2,
      "note": 50,
      "start": 48.8815,
      "duration": 0.0186,
      "velocity": 100,
      "chip": "ym2612"
    },
    {
      "channel": 1,
      "note": 105,
      "start": 48.8922,
      "duration": 0.0161,
      "velocity": 105,
      "chip": "ym2612"
    },
    {
      "channel": 0,
      "note": 40,
      "start": 48.8966,
      "duration": 0.0161,
      "velocity": 115,
      "chip": "ym2612"
    },
    {
      "channel": 4,
      "note": 74,
      "start": 48.8978,
      "duration": 0.0161,
      "velocity": 94,
      "chip": "ym2612"
    },
    {
      "channel": 3,
      "note": 76,
      "start": 48.8989,
      "duration": 0.0161,
      "velocity": 94,
      "chip": "ym2612"
    },
    {
      "channel": 2,
      "note": 50,
      "start": 48.9,
      "duration": 0.0161,
      "velocity": 100,
      "chip": "ym2612"
    },
    {
      "channel": 1,
      "note": 105,
      "start": 48.9083,
      "duration": 0.0161,
      "velocity": 105,
      "chip": "ym2612"
    },
    {
      "channel": 0,
      "note": 41,
      "start": 48.9127,
      "duration": 0.0133,
      "velocity": 115,
      "chip": "ym2612"
    },
    {
      "channel": 4,
      "note": 74,
      "start": 48.9139,
      "duration": 0.0157,
      "velocity": 94,
      "chip": "ym2612"
    },
    {
      "channel": 3,
      "note": 76,
      "start": 48.915,
      "duration": 0.0157,
      "velocity": 94,
      "chip": "ym2612"
    },
    {
      "channel": 2,
      "note": 50,
      "start": 48.9161,
      "duration": 0.0157,
      "velocity": 100,
      "chip": "ym2612"
    },
    {
      "channel": 1,
      "note": 105,
      "start": 48.9244,
      "duration": 0.0161,
      "velocity": 105,
      "chip": "ym2612"
    },
    {
      "channel": 0,
      "note": 41,
      "start": 48.926,
      "duration": 0.0161,
      "velocity": 115,
      "chip": "ym2612"
    },
    {
      "channel": 4,
      "note": 74,
      "start": 48.9296,
      "duration": 0.0141,
      "velocity": 94,
      "chip": "ym2612"
    },
    {
      "channel": 3,
      "note": 76,
      "start": 48.9307,
      "duration": 0.0141,
      "velocity": 94,
      "chip": "ym2612"
    },
    {
      "channel": 2,
      "note": 50,
      "start": 48.9319,
      "duration": 0.0141,
      "velocity": 100,
      "chip": "ym2612"
    },
    {
      "channel": 1,
      "note": 105,
      "start": 48.9405,
      "duration": 0.0178,
      "velocity": 124,
      "chip": "ym2612"
    },
    {
      "channel": 0,
      "note": 42,
      "start": 48.9422,
      "duration": 0.0206,
      "velocity": 115,
      "chip": "ym2612"
    },
    {
      "channel": 4,
      "note": 74,
      "start": 48.9437,
      "duration": 0.0203,
      "velocity": 94,
      "chip": "ym2612"
    },
    {
      "channel": 3,
      "note": 76,
      "start": 48.9448,
      "duration": 0.0206,
      "velocity": 94,
      "chip": "ym2612"
    },
    {
      "channel": 2,
      "note": 50,
      "start": 48.9459,
      "duration": 0.0209,
      "velocity": 100,
      "chip": "ym2612"
    },
    {
      "channel": 1,
      "note": 64,
      "start": 48.9583,
      "duration": 0.0144,
      "velocity": 124,
      "chip": "ym2612"
    },
    {
      "channel": 0,
      "note": 42,
      "start": 48.9628,
      "duration": 0.0117,
      "velocity": 115,
      "chip": "ym2612"
    },
    {
      "channel": 4,
      "note": 74,
      "start": 48.964,
      "duration": 0.0116,
      "velocity": 94,
      "chip": "ym2612"
    },
    {
      "channel": 3,
      "note": 74,
      "start": 48.9654,
      "duration": 0.0141,
      "velocity": 94,
      "chip": "ym2612"
    },
    {
      "channel": 2,
      "note": 50,
      "start": 48.9669,
      "duration": 0.0139,
      "velocity": 100,
      "chip": "ym2612"
    },
    {
      "channel": 1,
      "note": 64,
      "start": 48.9728,
      "duration": 0.016,
      "velocity": 124,
      "chip": "ym2612"
    },
    {
      "channel": 0,
      "note": 43,
      "start": 48.9744,
      "duration": 0.016,
      "velocity": 115,
      "chip": "ym2612"
    },
    {
      "channel": 4,
      "note": 74,
      "start": 48.9756,
      "duration": 0.016,
      "velocity": 94,
      "chip": "ym2612"
    },
    {
      "channel": 3,
      "note": 74,
      "start": 48.9796,
      "duration": 0.0132,
      "velocity": 94,
      "chip": "ym2612"
    },
    {
      "channel": 2,
      "note": 50,
      "start": 48.9808,
      "duration": 0.0155,
      "velocity": 100,
      "chip": "ym2612"
    },
    {
      "channel": 1,
      "note": 64,
      "start": 48.9888,
      "duration": 0.0161,
      "velocity": 124,
      "chip": "ym2612"
    },
    {
      "channel": 0,
      "note": 43,
      "start": 48.9905,
      "duration": 0.0161,
      "velocity": 115,
      "chip": "ym2612"
    },
    {
      "channel": 4,
      "note": 74,
      "start": 48.9917,
      "duration": 0.0161,
      "velocity": 94,
      "chip": "ym2612"
    },
    {
      "channel": 3,
      "note": 74,
      "start": 48.9928,
      "duration": 0.0161,
      "velocity": 94,
      "chip": "ym2612"
    },
    {
      "channel": 2,
      "note": 50,
      "start": 48.9963,
      "duration": 0.0141,
      "velocity": 100,
      "chip": "ym2612"
    },
    {
      "channel": 1,
      "note": 64,
      "start": 49.0049,
      "duration": 0.0161,
      "velocity": 124,
      "chip": "ym2612"
    },
    {
      "channel": 0,
      "note": 44,
      "start": 49.0065,
      "duration": 0.0161,
      "velocity": 115,
      "chip": "ym2612"
    },
    {
      "channel": 4,
      "note": 74,
      "start": 49.0078,
      "duration": 0.0161,
      "velocity": 94,
      "chip": "ym2612"
    },
    {
      "channel": 3,
      "note": 74,
      "start": 49.0089,
      "duration": 0.0161,
      "velocity": 94,
      "chip": "ym2612"
    },
    {
      "channel": 2,
      "note": 50,
      "start": 49.0104,
      "duration": 0.0157,
      "velocity": 100,
      "chip": "ym2612"
    },
    {
      "channel": 1,
      "note": 64,
      "start": 49.021,
      "duration": 0.0161,
      "velocity": 124,
      "chip": "ym2612"
    },
    {
      "channel": 0,
      "note": 44,
      "start": 49.0226,
      "duration": 0.0161,
      "velocity": 115,
      "chip": "ym2612"
    },
    {
      "channel": 4,
      "note": 74,
      "start": 49.0238,
      "duration": 0.0161,
      "velocity": 94,
      "chip": "ym2612"
    },
    {
      "channel": 3,
      "note": 74,
      "start": 49.025,
      "duration": 0.0161,
      "velocity": 94,
      "chip": "ym2612"
    },
    {
      "channel": 2,
      "note": 50,
      "start": 49.0261,
      "duration": 0.0161,
      "velocity": 100,
      "chip": "ym2612"
    },
    {
      "channel": 1,
      "note": 64,
      "start": 49.0371,
      "duration": 0.0161,
      "velocity": 124,
      "chip": "ym2612"
    },
    {
      "channel": 0,
      "note": 44,
      "start": 49.0387,
      "duration": 0.0161,
      "velocity": 115,
      "chip": "ym2612"
    },
    {
      "channel": 4,
      "note": 74,
      "start": 49.0399,
      "duration": 0.0161,
      "velocity": 94,
      "chip": "ym2612"
    },
    {
      "channel": 3,
      "note": 74,
      "start": 49.0411,
      "duration": 0.0161,
      "velocity": 94,
      "chip": "ym2612"
    },
    {
      "channel": 2,
      "note": 50,
      "start": 49.0422,
      "duration": 0.0162,
      "velocity": 100,
      "chip": "ym2612"
    },
    {
      "channel": 1,
      "note": 64,
      "start": 49.0532,
      "duration": 0.0178,
      "velocity": 105,
      "chip": "ym2612"
    },
    {
      "channel": 0,
      "note": 45,
      "start": 49.0549,
      "duration": 0.0178,
      "velocity": 115,
      "chip": "ym2612"
    },
    {
      "channel": 4,
      "note": 74,
      "start": 49.056,
      "duration": 0.018,
      "velocity": 94,
      "chip": "ym2612"
    },
    {
      "channel": 3,
      "note": 74,
      "start": 49.0572,
      "duration": 0.0182,
      "velocity": 94,
      "chip": "ym2612"
    },
    {
      "channel": 2,
      "note": 50,
      "start": 49.0583,
      "duration": 0.0188,
      "velocity": 100,
      "chip": "ym2612"
    },
    {
      "channel": 1,
      "note": 105,
      "start": 49.071,
      "duration": 0.0144,
      "velocity": 105,
      "chip": "ym2612"
    },
    {
      "channel": 0,
      "note": 45,
      "start": 49.0727,
      "duration": 0.0144,
      "velocity": 115,
      "chip": "ym2612"
    },
    {
      "channel": 4,
      "note": 74,
      "start": 49.0741,
      "duration": 0.0142,
      "velocity": 94,
      "chip": "ym2612"
    },
    {
      "channel": 3,
      "note": 74,
      "start": 49.0754,
      "duration": 0.0142,
      "velocity": 94,
      "chip": "ym2612"
    },
    {
      "channel": 2,
      "note": 50,
      "start": 49.0771,
      "duration": 0.0136,
      "velocity": 100,
      "chip": "ym2612"
    },
    {
      "channel": 1,
      "note": 105,
      "start": 49.0854,
      "duration": 0.0161,
      "velocity": 105,
      "chip": "ym2612"
    },
    {
      "channel": 0,
      "note": 46,
      "start": 49.0871,
      "duration": 0.016,
      "velocity": 115,
      "chip": "ym2612"
    },
    {
      "channel": 4,
      "note": 74,
      "start": 49.0883,
      "duration": 0.016,
      "velocity": 94,
      "chip": "ym2612"
    },
    {
      "channel": 3,
      "note": 74,
      "start": 49.0895,
      "duration": 0.0159,
      "velocity": 94,
      "chip": "ym2612"
    },
    {
      "channel": 2,
      "note": 50,
      "start": 49.0907,
      "duration": 0.0159,
      "velocity": 100,
      "chip": "ym2612"
    },
    {
      "channel": 1,
      "note": 105,
      "start": 49.1015,
      "duration": 0.0161,
      "velocity": 105,
      "chip": "ym2612"
    },
    {
      "channel": 0,
      "note": 46,
      "start": 49.1032,
      "duration": 0.0161,
      "velocity": 115,
      "chip": "ym2612"
    },
    {
      "channel": 4,
      "note": 74,
      "start": 49.1043,
      "duration": 0.0161,
      "velocity": 94,
      "chip": "ym2612"
    },
    {
      "channel": 3,
      "note": 74,
      "start": 49.1055,
      "duration": 0.0161,
      "velocity": 94,
      "chip": "ym2612"
    },
    {
      "channel": 2,
      "note": 50,
      "start": 49.1066,
      "duration": 0.0161,
      "velocity": 100,
      "chip": "ym2612"
    },
    {
      "channel": 1,
      "note": 105,
      "start": 49.1176,
      "duration": 0.0161,
      "velocity": 105,
      "chip": "ym2612"
    },
    {
      "channel": 0,
      "note": 47,
      "start": 49.1193,
      "duration": 0.0161,
      "velocity": 115,
      "chip": "ym2612"
    },
    {
      "channel": 4,
      "note": 74,
      "start": 49.1204,
      "duration": 0.0161,
      "velocity": 94,
      "chip": "ym2612"
    },
    {
      "channel": 3,
      "note": 74,
      "start": 49.1215,
      "duration": 0.0161,
      "velocity": 94,
      "chip": "ym2612"
    },
    {
      "channel": 2,
      "note": 50,
      "start": 49.1227,
      "duration": 0.0161,
      "velocity": 100,
      "chip": "ym2612"
    },
    {
      "channel": 1,
      "note": 105,
      "start": 49.1337,
      "duration": 0.0161,
      "velocity": 105,
      "chip": "ym2612"
    },
    {
      "channel": 0,
      "note": 47,
      "start": 49.1354,
      "duration": 0.0161,
      "velocity": 115,
      "chip": "ym2612"
    },
    {
      "channel": 4,
      "note": 74,
      "start": 49.1365,
      "duration": 0.0161,
      "velocity": 94,
      "chip": "ym2612"
    },
    {
      "channel": 3,
      "note": 74,
      "start": 49.1376,
      "duration": 0.0161,
      "velocity": 94,
      "chip": "ym2612"
    },
    {
      "channel": 2,
      "note": 50,
      "start": 49.1388,
      "duration": 0.0161,
      "velocity": 100,
      "chip": "ym2612"
    },
    {
      "channel": 1,
      "note": 105,
      "start": 49.1498,
      "duration": 0.0161,
      "velocity": 105,
      "chip": "ym2612"
    },
    {
      "channel": 0,
      "note": 47,
      "start": 49.1515,
      "duration": 0.0161,
      "velocity": 115,
      "chip": "ym2612"
    },
    {
      "channel": 4,
      "note": 74,
      "start": 49.1527,
      "duration": 0.0161,
      "velocity": 94,
      "chip": "ym2612"
    },
    {
      "channel": 3,
      "note": 74,
      "start": 49.1537,
      "duration": 0.0161,
      "velocity": 94,
      "chip": "ym2612"
    },
    {
      "channel": 2,
      "note": 50,
      "start": 49.1549,
      "duration": 0.0161,
      "velocity": 100,
      "chip": "ym2612"
    },
    {
      "channel": 1,
      "note": 105,
      "start": 49.1659,
      "duration": 0.0184,
      "velocity": 124,
      "chip": "ym2612"
    },
    {
      "channel": 0,
      "note": 48,
      "start": 49.1676,
      "duration": 0.0191,
      "velocity": 115,
      "chip": "ym2612"
    },
    {
      "channel": 4,
      "note": 74,
      "start": 49.1688,
      "duration": 0.0192,
      "velocity": 94,
      "chip": "ym2612"
    },
    {
      "channel": 3,
      "note": 74,
      "start": 49.1699,
      "duration": 0.0195,
      "velocity": 94,
      "chip": "ym2612"
    },
    {
      "channel": 2,
      "note": 50,
      "start": 49.171,
      "duration": 0.0198,
      "velocity": 100,
      "chip": "ym2612"
    },
    {
      "channel": 1,
      "note": 78,
      "start": 49.1843,
      "duration": 0.0144,
      "velocity": 124,
      "chip": "ym2612"
    },
    {
      "channel": 0,
      "note": 48,
      "start": 49.1867,
      "duration": 0.0139,
      "velocity": 115,
      "chip": "ym2612"
    },
    {
      "channel": 4,
      "note": 74,
      "start": 49.188,
      "duration": 0.0138,
      "velocity": 94,
      "chip": "ym2612"
    },
    {
      "channel": 3,
      "note": 74,
      "start": 49.1894,
      "duration": 0.0136,
      "velocity": 94,
      "chip": "ym2612"
    },
    {
      "channel": 2,
      "note": 50,
      "start": 49.1908,
      "duration": 0.0134,
      "velocity": 100,
      "chip": "ym2612"
    },
    {
      "channel": 1,
      "note": 76,
      "start": 49.1986,
      "duration": 0.016,
      "velocity": 124,
      "chip": "ym2612"
    },
    {
      "channel": 0,
      "note": 49,
      "start": 49.2006,
      "duration": 0.0152,
      "velocity": 1,
      "chip": "ym2612"
    },
    {
      "channel": 4,
      "note": 74,
      "start": 49.2018,
      "duration": 0.0151,
      "velocity": 94,
      "chip": "ym2612"
    },
    {
      "channel": 3,
      "note": 74,
      "start": 49.203,
      "duration": 0.0151,
      "velocity": 94,
      "chip": "ym2612"
    },
    {
      "channel": 2,
      "note": 50,
      "start": 49.2042,
      "duration": 0.015,
      "velocity": 100,
      "chip": "ym2612"
    },
    {
      "channel": 1,
      "note": 75,
      "start": 49.2147,
      "duration": 0.0165,
      "velocity": 124,
      "chip": "ym2612"
    },
    {
      "channel": 4,
      "note": 74,
      "start": 49.2169,
      "duration": 0.0156,
      "velocity": 94,
      "chip": "ym2612"
    },
    {
      "channel": 3,
      "note": 74,
      "start": 49.218,
      "duration": 0.0156,
      "velocity": 94,
      "chip": "ym2612"
    },
    {
      "channel": 2,
      "note": 50,
      "start": 49.2192,
      "duration": 0.0156,
      "velocity": 100,
      "chip": "ym2612"
    },
    {
      "channel": 1,
      "note": 74,
      "start": 49.2312,
      "duration": 0.0166,
      "velocity": 124,
      "chip": "ym2612"
    },
    {
      "channel": 4,
      "note": 74,
      "start": 49.2325,
      "duration": 0.0167,
      "velocity": 94,
      "chip": "ym2612"
    },
    {
      "channel": 3,
      "note": 74,
      "start": 49.2336,
      "duration": 0.0167,
      "velocity": 94,
      "chip": "ym2612"
    },
    {
      "channel": 2,
      "note": 50,
      "start": 49.2348,
      "duration": 0.0167,
      "velocity": 100,
      "chip": "ym2612"
    },
    {
      "channel": 1,
      "note": 72,
      "start": 49.2478,
      "duration": 0.0163,
      "velocity": 124,
      "chip": "ym2612"
    },
    {
      "channel": 4,
      "note": 74,
      "start": 49.2492,
      "duration": 0.0163,
      "velocity": 94,
      "chip": "ym2612"
    },
    {
      "channel": 3,
      "note": 74,
      "start": 49.2503,
      "duration": 0.0163,
      "velocity": 94,
      "chip": "ym2612"
    },
    {
      "channel": 2,
      "note": 50,
      "start": 49.2515,
      "duration": 0.0163,
      "velocity": 100,
      "chip": "ym2612"
    },
    {
      "channel": 1,
      "note": 71,
      "start": 49.2641,
      "duration": 0.015,
      "velocity": 124,
      "chip": "ym2612"
    },
    {
      "channel": 4,
      "note": 74,
      "start": 49.2655,
      "duration": 0.0149,
      "velocity": 94,
      "chip": "ym2612"
    },
    {
      "channel": 3,
      "note": 74,
      "start": 49.2666,
      "duration": 0.015,
      "velocity": 94,
      "chip": "ym2612"
    },
    {
      "channel": 2,
      "note": 50,
      "start": 49.2678,
      "duration": 0.0149,
      "velocity": 100,
      "chip": "ym2612"
    },
    {
      "channel": 1,
      "note": 70,
      "start": 49.2791,
      "duration": 0.0187,
      "velocity": 124,
      "chip": "ym2612"
    },
    {
      "channel": 4,
      "note": 74,
      "start": 49.2805,
      "duration": 0.0195,
      "velocity": 94,
      "chip": "ym2612"
    },
    {
      "channel": 3,
      "note": 74,
      "start": 49.2816,
      "duration": 0.0197,
      "velocity": 94,
      "chip": "ym2612"
    },
    {
      "channel": 2,
      "note": 50,
      "start": 49.2827,
      "duration": 0.0199,
      "velocity": 100,
      "chip": "ym2612"
    },
    {
      "channel": 1,
      "note": 69,
      "start": 49.2978,
      "duration": 0.0162,
      "velocity": 124,
      "chip": "ym2612"
    },
    {
      "channel": 4,
      "note": 74,
      "start": 49.3,
      "duration": 0.0156,
      "velocity": 94,
      "chip": "ym2612"
    },
    {
      "channel": 3,
      "note": 74,
      "start": 49.3013,
      "duration": 0.0154,
      "velocity": 94,
      "chip": "ym2612"
    },
    {
      "channel": 2,
      "note": 50,
      "start": 49.3027,
      "duration": 0.0152,
      "velocity": 100,
      "chip": "ym2612"
    },
    {
      "channel": 1,
      "note": 68,
      "start": 49.314,
      "duration": 0.0157,
      "velocity": 124,
      "chip": "ym2612"
    },
    {
      "channel": 4,
      "note": 74,
      "start": 49.3156,
      "duration": 0.0156,
      "velocity": 94,
      "chip": "ym2612"
    },
    {
      "channel": 3,
      "note": 74,
      "start": 49.3167,
      "duration": 0.0156,
      "velocity": 94,
      "chip": "ym2612"
    },
    {
      "channel": 2,
      "note": 50,
      "start": 49.3179,
      "duration": 0.0155,
      "velocity": 100,
      "chip": "ym2612"
    },
    {
      "channel": 1,
      "note": 66,
      "start": 49.3298,
      "duration": 0.0141,
      "velocity": 124,
      "chip": "ym2612"
    },
    {
      "channel": 4,
      "note": 74,
      "start": 49.3312,
      "duration": 0.0141,
      "velocity": 94,
      "chip": "ym2612"
    },
    {
      "channel": 3,
      "note": 74,
      "start": 49.3323,
      "duration": 0.014,
      "velocity": 94,
      "chip": "ym2612"
    },
    {
      "channel": 2,
      "note": 50,
      "start": 49.3334,
      "duration": 0.0141,
      "velocity": 100,
      "chip": "ym2612"
    },
    {
      "channel": 1,
      "note": 65,
      "start": 49.3438,
      "duration": 0.0158,
      "velocity": 124,
      "chip": "ym2612"
    },
    {
      "channel": 4,
      "note": 74,
      "start": 49.3452,
      "duration": 0.0185,
      "velocity": 94,
      "chip": "ym2612"
    },
    {
      "channel": 3,
      "note": 74,
      "start": 49.3463,
      "duration": 0.0185,
      "velocity": 94,
      "chip": "ym2612"
    },
    {
      "channel": 2,
      "note": 50,
      "start": 49.3475,
      "duration": 0.0185,
      "velocity": 100,
      "chip": "ym2612"
    },
    {
      "channel": 1,
      "note": 64,
      "start": 49.3596,
      "duration": 0.0161,
      "velocity": 124,
      "chip": "ym2612"
    },
    {
      "channel": 4,
      "note": 74,
      "start": 49.3637,
      "duration": 0.0161,
      "velocity": 94,
      "chip": "ym2612"
    },
    {
      "channel": 3,
      "note": 74,
      "start": 49.3649,
      "duration": 0.0161,
      "velocity": 94,
      "chip": "ym2612"
    },
    {
      "channel": 2,
      "note": 50,
      "start": 49.366,
      "duration": 0.0161,
      "velocity": 100,
      "chip": "ym2612"
    },
    {
      "channel": 1,
      "note": 62,
      "start": 49.3757,
      "duration": 0.0161,
      "velocity": 124,
      "chip": "ym2612"
    },
    {
      "channel": 4,
      "note": 74,
      "start": 49.3798,
      "duration": 0.0157,
      "velocity": 94,
      "chip": "ym2612"
    },
    {
      "channel": 3,
      "note": 74,
      "start": 49.381,
      "duration": 0.0158,
      "velocity": 94,
      "chip": "ym2612"
    },
    {
      "channel": 2,
      "note": 50,
      "start": 49.3821,
      "duration": 0.0158,
      "velocity": 100,
      "chip": "ym2612"
    },
    {
      "channel": 1,
      "note": 61,
      "start": 49.3918,
      "duration": 0.0161,
      "velocity": 124,
      "chip": "ym2612"
    },
    {
      "channel": 4,
      "note": 74,
      "start": 49.3955,
      "duration": 0.0148,
      "velocity": 94,
      "chip": "ym2612"
    },
    {
      "channel": 3,
      "note": 74,
      "start": 49.3967,
      "duration": 0.015,
      "velocity": 94,
      "chip": "ym2612"
    },
    {
      "channel": 2,
      "note": 50,
      "start": 49.3979,
      "duration": 0.0153,
      "velocity": 100,
      "chip": "ym2612"
    },
    {
      "channel": 1,
      "note": 60,
      "start": 49.4079,
      "duration": 0.0162,
      "velocity": 124,
      "chip": "ym2612"
    },
    {
      "channel": 4,
      "note": 81,
      "start": 49.4104,
      "duration": 0.0151,
      "velocity": 94,
      "chip": "ym2612"
    },
    {
      "channel": 3,
      "note": 74,
      "start": 49.4118,
      "duration": 0.0176,
      "velocity": 94,
      "chip": "ym2612"
    },
    {
      "channel": 2,
      "note": 50,
      "start": 49.4132,
      "duration": 0.0174,
      "velocity": 100,
      "chip": "ym2612"
    },
    {
      "channel": 1,
      "note": 59,
      "start": 49.424,
      "duration": 0.0161,
      "velocity": 124,
      "chip": "ym2612"
    },
    {
      "channel": 4,
      "note": 81,
      "start": 49.4255,
      "duration": 0.016,
      "velocity": 94,
      "chip": "ym2612"
    },
    {
      "channel": 3,
      "note": 74,
      "start": 49.4294,
      "duration": 0.0132,
      "velocity": 94,
      "chip": "ym2612"
    },
    {
      "channel": 2,
      "note": 50,
      "start": 49.4307,
      "duration": 0.0158,
      "velocity": 100,
      "chip": "ym2612"
    },
    {
      "channel": 1,
      "note": 57,
      "start": 49.4401,
      "duration": 0.0161,
      "velocity": 124,
      "chip": "ym2612"
    },
    {
      "channel": 4,
      "note": 81,
      "start": 49.4415,
      "duration": 0.0162,
      "velocity": 94,
      "chip": "ym2612"
    },
    {
      "channel": 3,
      "note": 74,
      "start": 49.4426,
      "duration": 0.0162,
      "velocity": 94,
      "chip": "ym2612"
    },
    {
      "channel": 2,
      "note": 50,
      "start": 49.4465,
      "duration": 0.0158,
      "velocity": 100,
      "chip": "ym2612"
    },
    {
      "channel": 1,
      "note": 56,
      "start": 49.4562,
      "duration": 0.0161,
      "velocity": 124,
      "chip": "ym2612"
    },
    {
      "channel": 4,
      "note": 81,
      "start": 49.4576,
      "duration": 0.0161,
      "velocity": 94,
      "chip": "ym2612"
    },
    {
      "channel": 3,
      "note": 74,
      "start": 49.4588,
      "duration": 0.0161,
      "velocity": 94,
      "chip": "ym2612"
    },
    {
      "channel": 2,
      "note": 50,
      "start": 49.4623,
      "duration": 0.0137,
      "velocity": 100,
      "chip": "ym2612"
    },
    {
      "channel": 1,
      "note": 55,
      "start": 49.4723,
      "duration": 0.0161,
      "velocity": 124,
      "chip": "ym2612"
    },
    {
      "channel": 4,
      "note": 81,
      "start": 49.4737,
      "duration": 0.0161,
      "velocity": 94,
      "chip": "ym2612"
    },
    {
      "channel": 3,
      "note": 74,
      "start": 49.4749,
      "duration": 0.0161,
      "velocity": 94,
      "chip": "ym2612"
    },
    {
      "channel": 2,
      "note": 50,
      "start": 49.476,
      "duration": 0.0161,
      "velocity": 100,
      "chip": "ym2612"
    },
    {
      "channel": 1,
      "note": 53,
      "start": 49.4884,
      "duration": 0.0161,
      "velocity": 124,
      "chip": "ym2612"
    },
    {
      "channel": 4,
      "note": 81,
      "start": 49.4898,
      "duration": 0.0161,
      "velocity": 94,
      "chip": "ym2612"
    },
    {
      "channel": 3,
      "note": 74,
      "start": 49.491,
      "duration": 0.0161,
      "velocity": 94,
      "chip": "ym2612"
    },
    {
      "channel": 2,
      "note": 50,
      "start": 49.4921,
      "duration": 0.0161,
      "velocity": 100,
      "chip": "ym2612"
    },
    {
      "channel": 1,
      "note": 52,
      "start": 49.5045,
      "duration": 0.0161,
      "velocity": 124,
      "chip": "ym2612"
    },
    {
      "channel": 4,
      "note": 81,
      "start": 49.5059,
      "duration": 0.0202,
      "velocity": 94,
      "chip": "ym2612"
    },
    {
      "channel": 3,
      "note": 74,
      "start": 49.5071,
      "duration": 0.0228,
      "velocity": 94,
      "chip": "ym2612"
    },
    {
      "channel": 2,
      "note": 50,
      "start": 49.5082,
      "duration": 0.0231,
      "velocity": 100,
      "chip": "ym2612"
    },
    {
      "channel": 1,
      "note": 51,
      "start": 49.5206,
      "duration": 0.0153,
      "velocity": 1,
      "chip": "ym2612"
    },
    {
      "channel": 0,
      "note": 36,
      "start": 49.5248,
      "duration": 0.015,
      "velocity": 115,
      "chip": "ym2612"
    },
    {
      "channel": 4,
      "note": 81,
      "start": 49.5261,
      "duration": 0.0149,
      "velocity": 94,
      "chip": "ym2612"
    },
    {
      "channel": 3,
      "note": 81,
      "start": 49.5299,
      "duration": 0.0123,
      "velocity": 94,
      "chip": "ym2612"
    },
    {
      "channel": 2,
      "note": 50,
      "start": 49.5313,
      "duration": 0.0124,
      "velocity": 100,
      "chip": "ym2612"
    },
    {
      "channel": 1,
      "note": 51,
      "start": 49.5381,
      "duration": 0.0142,
      "velocity": 105,
      "chip": "ym2612"
    },
    {
      "channel": 0,
      "note": 36,
      "start": 49.5398,
      "duration": 0.0142,
      "velocity": 115,
      "chip": "ym2612"
    },
    {
      "channel": 4,
      "note": 81,
      "start": 49.541,
      "duration": 0.0141,
      "velocity": 94,
      "chip": "ym2612"
    },
    {
      "channel": 3,
      "note": 81,
      "start": 49.5422,
      "duration": 0.0141,
      "velocity": 94,
      "chip": "ym2612"
    },
    {
      "channel": 2,
      "note": 50,
      "start": 49.5437,
      "duration": 0.0137,
      "velocity": 100,
      "chip": "ym2612"
    },
    {
      "channel": 1,
      "note": 105,
      "start": 49.5523,
      "duration": 0.0161,
      "velocity": 105,
      "chip": "ym2612"
    },
    {
      "channel": 0,
      "note": 37,
      "start": 49.554,
      "duration": 0.0161,
      "velocity": 115,
      "chip": "ym2612"
    },
    {
      "channel": 4,
      "note": 81,
      "start": 49.5551,
      "duration": 0.0161,
      "velocity": 94,
      "chip": "ym2612"
    },
    {
      "channel": 3,
      "note": 81,
      "start": 49.5563,
      "duration": 0.0161,
      "velocity": 94,
      "chip": "ym2612"
    },
    {
      "channel": 2,
      "note": 50,
      "start": 49.5574,
      "duration": 0.0161,
      "velocity": 100,
      "chip": "ym2612"
    },
    {
      "channel": 1,
      "note": 105,
      "start": 49.5684,
      "duration": 0.0161,
      "velocity": 105,
      "chip": "ym2612"
    },
    {
      "channel": 0,
      "note": 37,
      "start": 49.5701,
      "duration": 0.0161,
      "velocity": 115,
      "chip": "ym2612"
    },
    {
      "channel": 4,
      "note": 81,
      "start": 49.5712,
      "duration": 0.0161,
      "velocity": 94,
      "chip": "ym2612"
    },
    {
      "channel": 3,
      "note": 81,
      "start": 49.5724,
      "duration": 0.0161,
      "velocity": 94,
      "chip": "ym2612"
    },
    {
      "channel": 2,
      "note": 50,
      "start": 49.5735,
      "duration": 0.0161,
      "velocity": 100,
      "chip": "ym2612"
    },
    {
      "channel": 1,
      "note": 105,
      "start": 49.5845,
      "duration": 0.0161,
      "velocity": 105,
      "chip": "ym2612"
    },
    {
      "channel": 0,
      "note": 38,
      "start": 49.5862,
      "duration": 0.0161,
      "velocity": 115,
      "chip": "ym2612"
    },
    {
      "channel": 4,
      "note": 81,
      "start": 49.5873,
      "duration": 0.0161,
      "velocity": 94,
      "chip": "ym2612"
    },
    {
      "channel": 3,
      "note": 81,
      "start": 49.5885,
      "duration": 0.0161,
      "velocity": 94,
      "chip": "ym2612"
    },
    {
      "channel": 2,
      "note": 50,
      "start": 49.5896,
      "duration": 0.0161,
      "velocity": 100,
      "chip": "ym2612"
    },
    {
      "channel": 1,
      "note": 105,
      "start": 49.6006,
      "duration": 0.0161,
      "velocity": 105,
      "chip": "ym2612"
    },
    {
      "channel": 0,
      "note": 38,
      "start": 49.6023,
      "duration": 0.0161,
      "velocity": 115,
      "chip": "ym2612"
    },
    {
      "channel": 4,
      "note": 81,
      "start": 49.6034,
      "duration": 0.0161,
      "velocity": 94,
      "chip": "ym2612"
    },
    {
      "channel": 3,
      "note": 81,
      "start": 49.6046,
      "duration": 0.0162,
      "velocity": 94,
      "chip": "ym2612"
    },
    {
      "channel": 2,
      "note": 50,
      "start": 49.6057,
      "duration": 0.0161,
      "velocity": 100,
      "chip": "ym2612"
    },
    {
      "channel": 1,
      "note": 105,
      "start": 49.6167,
      "duration": 0.0178,
      "velocity": 124,
      "chip": "ym2612"
    },
    {
      "channel": 0,
      "note": 39,
      "start": 49.6184,
      "duration": 0.0197,
      "velocity": 115,
      "chip": "ym2612"
    },
    {
      "channel": 4,
      "note": 81,
      "start": 49.6196,
      "duration": 0.0199,
      "velocity": 94,
      "chip": "ym2612"
    },
    {
      "channel": 3,
      "note": 81,
      "start": 49.6207,
      "duration": 0.02,
      "velocity": 94,
      "chip": "ym2612"
    },
    {
      "channel": 2,
      "note": 50,
      "start": 49.6218,
      "duration": 0.0203,
      "velocity": 100,
      "chip": "ym2612"
    },
    {
      "channel": 1,
      "note": 64,
      "start": 49.6346,
      "duration": 0.0147,
      "velocity": 124,
      "chip": "ym2612"
    },
    {
      "channel": 0,
      "note": 36,
      "start": 49.638,
      "duration": 0.0131,
      "velocity": 115,
      "chip": "ym2612"
    },
    {
      "channel": 4,
      "note": 74,
      "start": 49.6395,
      "duration": 0.0128,
      "velocity": 94,
      "chip": "ym2612"
    },
    {
      "channel": 3,
      "note": 81,
      "start": 49.6408,
      "duration": 0.0128,
      "velocity": 94,
      "chip": "ym2612"
    },
    {
      "channel": 2,
      "note": 50,
      "start": 49.6422,
      "duration": 0.0125,
      "velocity": 100,
      "chip": "ym2612"
    },
    {
      "channel": 1,
      "note": 64,
      "start": 49.6493,
      "duration": 0.0156,
      "velocity": 124,
      "chip": "ym2612"
    },
    {
      "channel": 0,
      "note": 36,
      "start": 49.6511,
      "duration": 0.0156,
      "velocity": 115,
      "chip": "ym2612"
    },
    {
      "channel": 4,
      "note": 74,
      "start": 49.6523,
      "duration": 0.0155,
      "velocity": 94,
      "chip": "ym2612"
    },
    {
      "channel": 3,
      "note": 81,
      "start": 49.6535,
      "duration": 0.0155,
      "velocity": 94,
      "chip": "ym2612"
    },
    {
      "channel": 2,
      "note": 50,
      "start": 49.6547,
      "duration": 0.0155,
      "velocity": 100,
      "chip": "ym2612"
    },
    {
      "channel": 1,
      "note": 64,
      "start": 49.665,
      "duration": 0.0162,
      "velocity": 124,
      "chip": "ym2612"
    },
    {
      "channel": 0,
      "note": 37,
      "start": 49.6667,
      "duration": 0.0161,
      "velocity": 115,
      "chip": "ym2612"
    },
    {
      "channel": 4,
      "note": 74,
      "start": 49.6679,
      "duration": 0.0161,
      "velocity": 94,
      "chip": "ym2612"
    },
    {
      "channel": 3,
      "note": 81,
      "start": 49.669,
      "duration": 0.0161,
      "velocity": 94,
      "chip": "ym2612"
    },
    {
      "channel": 2,
      "note": 50,
      "start": 49.6702,
      "duration": 0.0161,
      "velocity": 100,
      "chip": "ym2612"
    },
    {
      "channel": 1,
      "note": 64,
      "start": 49.6812,
      "duration": 0.0162,
      "velocity": 124,
      "chip": "ym2612"
    },
    {
      "channel": 0,
      "note": 37,
      "start": 49.6828,
      "duration": 0.0162,
      "velocity": 115,
      "chip": "ym2612"
    },
    {
      "channel": 4,
      "note": 74,
      "start": 49.6839,
      "duration": 0.0162,
      "velocity": 94,
      "chip": "ym2612"
    },
    {
      "channel": 3,
      "note": 81,
      "start": 49.6851,
      "duration": 0.0162,
      "velocity": 94,
      "chip": "ym2612"
    },
    {
      "channel": 2,
      "note": 50,
      "start": 49.6862,
      "duration": 0.0162,
      "velocity": 100,
      "chip": "ym2612"
    },
    {
      "channel": 1,
      "note": 64,
      "start": 49.6973,
      "duration": 0.0167,
      "velocity": 124,
      "chip": "ym2612"
    },
    {
      "channel": 0,
      "note": 38,
      "start": 49.699,
      "duration": 0.0167,
      "velocity": 115,
      "chip": "ym2612"
    },
    {
      "channel": 4,
      "note": 74,
      "start": 49.7002,
      "duration": 0.0167,
      "velocity": 94,
      "chip": "ym2612"
    },
    {
      "channel": 3,
      "note": 81,
      "start": 49.7013,
      "duration": 0.0167,
      "velocity": 94,
      "chip": "ym2612"
    },
    {
      "channel": 2,
      "note": 50,
      "start": 49.7024,
      "duration": 0.0167,
      "velocity": 100,
      "chip": "ym2612"
    },
    {
      "channel": 1,
      "note": 64,
      "start": 49.714,
      "duration": 0.0163,
      "velocity": 124,
      "chip": "ym2612"
    },
    {
      "channel": 0,
      "note": 38,
      "start": 49.7156,
      "duration": 0.0163,
      "velocity": 115,
      "chip": "ym2612"
    },
    {
      "channel": 4,
      "note": 74,
      "start": 49.7168,
      "duration": 0.0163,
      "velocity": 94,
      "chip": "ym2612"
    },
    {
      "channel": 3,
      "note": 81,
      "start": 49.7179,
      "duration": 0.0163,
      "velocity": 94,
      "chip": "ym2612"
    },
    {
      "channel": 2,
      "note": 50,
      "start": 49.7191,
      "duration": 0.0163,
      "velocity": 100,
      "chip": "ym2612"
    },
    {
      "channel": 1,
      "note": 64,
      "start": 49.7303,
      "duration": 0.0169,
      "velocity": 105,
      "chip": "ym2612"
    },
    {
      "channel": 0,
      "note": 39,
      "start": 49.7319,
      "duration": 0.017,
      "velocity": 115,
      "chip": "ym2612"
    },
    {
      "channel": 4,
      "note": 74,
      "start": 49.7331,
      "duration": 0.0171,
      "velocity": 94,
      "chip": "ym2612"
    },
    {
      "channel": 3,
      "note": 81,
      "start": 49.7343,
      "duration": 0.0173,
      "velocity": 94,
      "chip": "ym2612"
    },
    {
      "channel": 2,
      "note": 50,
      "start": 49.7354,
      "duration": 0.0177,
      "velocity": 100,
      "chip": "ym2612"
    },
    {
      "channel": 1,
      "note": 105,
      "start": 49.7473,
      "duration": 0.0167,
      "velocity": 105,
      "chip": "ym2612"
    },
    {
      "channel": 0,
      "note": 39,
      "start": 49.7489,
      "duration": 0.0168,
      "velocity": 115,
      "chip": "ym2612"
    },
    {
      "channel": 4,
      "note": 74,
      "start": 49.7502,
      "duration": 0.0167,
      "velocity": 94,
      "chip": "ym2612"
    },
    {
      "channel": 3,
      "note": 74,
      "start": 49.7516,
      "duration": 0.0165,
      "velocity": 94,
      "chip": "ym2612"
    },
    {
      "channel": 2,
      "note": 50,
      "start": 49.753,
      "duration": 0.0163,
      "velocity": 100,
      "chip": "ym2612"
    },
    {
      "channel": 1,
      "note": 105,
      "start": 49.764,
      "duration": 0.0165,
      "velocity": 105,
      "chip": "ym2612"
    },
    {
      "channel": 0,
      "note": 40,
      "start": 49.7657,
      "duration": 0.0165,
      "velocity": 115,
      "chip": "ym2612"
    },
    {
      "channel": 4,
      "note": 74,
      "start": 49.7669,
      "duration": 0.0164,
      "velocity": 94,
      "chip": "ym2612"
    },
    {
      "channel": 3,
      "note": 74,
      "start": 49.7681,
      "duration": 0.0163,
      "velocity": 94,
      "chip": "ym2612"
    },
    {
      "channel": 2,
      "note": 50,
      "start": 49.7693,
      "duration": 0.0163,
      "velocity": 100,
      "chip": "ym2612"
    },
    {
      "channel": 1,
      "note": 105,
      "start": 49.7805,
      "duration": 0.0158,
      "velocity": 105,
      "chip": "ym2612"
    },
    {
      "channel": 0,
      "note": 40,
      "start": 49.7822,
      "duration": 0.0157,
      "velocity": 115,
      "chip": "ym2612"
    },
    {
      "channel": 4,
      "note": 74,
      "start": 49.7833,
      "duration": 0.0157,
      "velocity": 94,
      "chip": "ym2612"
    },
    {
      "channel": 3,
      "note": 74,
      "start": 49.7845,
      "duration": 0.0157,
      "velocity": 94,
      "chip": "ym2612"
    },
    {
      "channel": 2,
      "note": 50,
      "start": 49.7856,
      "duration": 0.0157,
      "velocity": 100,
      "chip": "ym2612"
    },
    {
      "channel": 1,
      "note": 105,
      "start": 49.7962,
      "duration": 0.014,
      "velocity": 105,
      "chip": "ym2612"
    },
    {
      "channel": 0,
      "note": 40,
      "start": 49.7979,
      "duration": 0.0141,
      "velocity": 115,
      "chip": "ym2612"
    },
    {
      "channel": 4,
      "note": 74,
      "start": 49.799,
      "duration": 0.0141,
      "velocity": 94,
      "chip": "ym2612"
    },
    {
      "channel": 3,
      "note": 74,
      "start": 49.8002,
      "duration": 0.0141,
      "velocity": 94,
      "chip": "ym2612"
    },
    {
      "channel": 2,
      "note": 50,
      "start": 49.8013,
      "duration": 0.0141,
      "velocity": 100,
      "chip": "ym2612"
    },
    {
      "channel": 1,
      "note": 105,
      "start": 49.8102,
      "duration": 0.0158,
      "velocity": 105,
      "chip": "ym2612"
    },
    {
      "channel": 0,
      "note": 41,
      "start": 49.812,
      "duration": 0.0185,
      "velocity": 115,
      "chip": "ym2612"
    },
    {
      "channel": 4,
      "note": 74,
      "start": 49.8131,
      "duration": 0.0185,
      "velocity": 94,
      "chip": "ym2612"
    },
    {
      "channel": 3,
      "note": 74,
      "start": 49.8142,
      "duration": 0.0185,
      "velocity": 94,
      "chip": "ym2612"
    },
    {
      "channel": 2,
      "note": 50,
      "start": 49.8154,
      "duration": 0.0185,
      "velocity": 100,
      "chip": "ym2612"
    },
    {
      "channel": 1,
      "note": 105,
      "start": 49.826,
      "duration": 0.0161,
      "velocity": 105,
      "chip": "ym2612"
    },
    {
      "channel": 0,
      "note": 41,
      "start": 49.8305,
      "duration": 0.0161,
      "velocity": 115,
      "chip": "ym2612"
    },
    {
      "channel": 4,
      "note": 74,
      "start": 49.8316,
      "duration": 0.0161,
      "velocity": 94,
      "chip": "ym2612"
    },
    {
      "channel": 3,
      "note": 74,
      "start": 49.8327,
      "duration": 0.0162,
      "velocity": 94,
      "chip": "ym2612"
    },
    {
      "channel": 2,
      "note": 50,
      "start": 49.8339,
      "duration": 0.0161,
      "velocity": 100,
      "chip": "ym2612"
    },
    {
      "channel": 1,
      "note": 105,
      "start": 49.8422,
      "duration": 0.0202,
      "velocity": 124,
      "chip": "ym2612"
    },
    {
      "channel": 0,
      "note": 42,
      "start": 49.8466,
      "duration": 0.0175,
      "velocity": 115,
      "chip": "ym2612"
    },
    {
      "channel": 4,
      "note": 74,
      "start": 49.8478,
      "duration": 0.0177,
      "velocity": 94,
      "chip": "ym2612"
    },
    {
      "channel": 3,
      "note": 74,
      "start": 49.8489,
      "duration": 0.0178,
      "velocity": 94,
      "chip": "ym2612"
    },
    {
      "channel": 2,
      "note": 50,
      "start": 49.85,
      "duration": 0.0181,
      "velocity": 100,
      "chip": "ym2612"
    },
    {
      "channel": 1,
      "note": 64,
      "start": 49.8623,
      "duration": 0.0121,
      "velocity": 124,
      "chip": "ym2612"
    },
    {
      "channel": 0,
      "note": 42,
      "start": 49.864,
      "duration": 0.012,
      "velocity": 115,
      "chip": "ym2612"
    },
    {
      "channel": 4,
      "note": 74,
      "start": 49.8654,
      "duration": 0.0122,
      "velocity": 94,
      "chip": "ym2612"
    },
    {
      "channel": 3,
      "note": 74,
      "start": 49.8667,
      "duration": 0.0121,
      "velocity": 94,
      "chip": "ym2612"
    },
    {
      "channel": 2,
      "note": 50,
      "start": 49.8682,
      "duration": 0.0118,
      "velocity": 100,
      "chip": "ym2612"
    },
    {
      "channel": 1,
      "note": 64,
      "start": 49.8744,
      "duration": 0.016,
      "velocity": 124,
      "chip": "ym2612"
    },
    {
      "channel": 0,
      "note": 43,
      "start": 49.8761,
      "duration": 0.016,
      "velocity": 115,
      "chip": "ym2612"
    },
    {
      "channel": 4,
      "note": 74,
      "start": 49.8777,
      "duration": 0.0184,
      "velocity": 94,
      "chip": "ym2612"
    },
    {
      "channel": 3,
      "note": 74,
      "start": 49.8788,
      "duration": 0.0184,
      "velocity": 94,
      "chip": "ym2612"
    },
    {
      "channel": 2,
      "note": 50,
      "start": 49.88,
      "duration": 0.0183,
      "velocity": 100,
      "chip": "ym2612"
    },
    {
      "channel": 1,
      "note": 64,
      "start": 49.8905,
      "duration": 0.0161,
      "velocity": 124,
      "chip": "ym2612"
    },
    {
      "channel": 0,
      "note": 43,
      "start": 49.8921,
      "duration": 0.0161,
      "velocity": 115,
      "chip": "ym2612"
    },
    {
      "channel": 4,
      "note": 74,
      "start": 49.896,
      "duration": 0.0134,
      "velocity": 94,
      "chip": "ym2612"
    },
    {
      "channel": 3,
      "note": 74,
      "start": 49.8972,
      "duration": 0.0161,
      "velocity": 94,
      "chip": "ym2612"
    },
    {
      "channel": 2,
      "note": 50,
      "start": 49.8983,
      "duration": 0.0161,
      "velocity": 100,
      "chip": "ym2612"
    },
    {
      "channel": 1,
      "note": 64,
      "start": 49.9065,
      "duration": 0.0161,
      "velocity": 124,
      "chip": "ym2612"
    },
    {
      "channel": 0,
      "note": 44,
      "start": 49.9082,
      "duration": 0.0161,
      "velocity": 115,
      "chip": "ym2612"
    },
    {
      "channel": 4,
      "note": 74,
      "start": 49.9094,
      "duration": 0.0161,
      "velocity": 94,
      "chip": "ym2612"
    },
    {
      "channel": 3,
      "note": 74,
      "start": 49.9133,
      "duration": 0.0157,
      "velocity": 94,
      "chip": "ym2612"
    },
    {
      "channel": 2,
      "note": 50,
      "start": 49.9144,
      "duration": 0.0157,
      "velocity": 100,
      "chip": "ym2612"
    },
    {
      "channel": 1,
      "note": 64,
      "start": 49.9226,
      "duration": 0.0161,
      "velocity": 124,
      "chip": "ym2612"
    },
    {
      "channel": 0,
      "note": 44,
      "start": 49.9243,
      "duration": 0.0162,
      "velocity": 115,
      "chip": "ym2612"
    },
    {
      "channel": 4,
      "note": 74,
      "start": 49.9255,
      "duration": 0.0161,
      "velocity": 94,
      "chip": "ym2612"
    },
    {
      "channel": 3,
      "note": 74,
      "start": 49.929,
      "duration": 0.0137,
      "velocity": 94,
      "chip": "ym2612"
    },
    {
      "channel": 2,
      "note": 50,
      "start": 49.9301,
      "duration": 0.0141,
      "velocity": 100,
      "chip": "ym2612"
    },
    {
      "channel": 1,
      "note": 64,
      "start": 49.9387,
      "duration": 0.0161,
      "velocity": 124,
      "chip": "ym2612"
    },
    {
      "channel": 0,
      "note": 44,
      "start": 49.9405,
      "duration": 0.0161,
      "velocity": 115,
      "chip": "ym2612"
    },
    {
      "channel": 4,
      "note": 74,
      "start": 49.9416,
      "duration": 0.0161,
      "velocity": 94,
      "chip": "ym2612"
    },
    {
      "channel": 3,
      "note": 74,
      "start": 49.9427,
      "duration": 0.0161,
      "velocity": 94,
      "chip": "ym2612"
    },
    {
      "channel": 2,
      "note": 50,
      "start": 49.9442,
      "duration": 0.0185,
      "velocity": 100,
      "chip": "ym2612"
    },
    {
      "channel": 1,
      "note": 64,
      "start": 49.9548,
      "duration": 0.0178,
      "velocity": 105,
      "chip": "ym2612"
    },
    {
      "channel": 0,
      "note": 45,
      "start": 49.9565,
      "duration": 0.0178,
      "velocity": 115,
      "chip": "ym2612"
    },
    {
      "channel": 4,
      "note": 74,
      "start": 49.9577,
      "duration": 0.0179,
      "velocity": 94,
      "chip": "ym2612"
    },
    {
      "channel": 3,
      "note": 74,
      "start": 49.9588,
      "duration": 0.0209,
      "velocity": 94,
      "chip": "ym2612"
    },
    {
      "channel": 2,
      "note": 50,
      "start": 49.9627,
      "duration": 0.0185,
      "velocity": 100,
      "chip": "ym2612"
    },
    {
      "channel": 1,
      "note": 105,
      "start": 49.9727,
      "duration": 0.0144,
      "velocity": 105,
      "chip": "ym2612"
    },
    {
      "channel": 0,
      "note": 45,
      "start": 49.9744,
      "duration": 0.0144,
      "velocity": 115,
      "chip": "ym2612"
    },
    {
      "channel": 4,
      "note": 74,
      "start": 49.9756,
      "duration": 0.0144,
      "velocity": 94,
      "chip": "ym2612"
    },
    {
      "channel": 3,
      "note": 74,
      "start": 49.9798,
      "duration": 0.0114,
      "velocity": 94,
      "chip": "ym2612"
    },
    {
      "channel": 2,
      "note": 50,
      "start": 49.9812,
      "duration": 0.0111,
      "velocity": 100,
      "chip": "ym2612"
    },
    {
      "channel": 1,
      "note": 105,
      "start": 49.9871,
      "duration": 0.0161,
      "velocity": 105,
      "chip": "ym2612"
    },
    {
      "channel": 0,
      "note": 46,
      "start": 49.9888,
      "duration": 0.016,
      "velocity": 115,
      "chip": "ym2612"
    },
    {
      "channel": 4,
      "note": 74,
      "start": 49.99,
      "duration": 0.016,
      "velocity": 94,
      "chip": "ym2612"
    },
    {
      "channel": 3,
      "note": 74,
      "start": 49.9912,
      "duration": 0.0159,
      "velocity": 94,
      "chip": "ym2612"
    },
    {
      "channel": 2,
      "note": 50,
      "start": 49.9924,
      "duration": 0.0159,
      "velocity": 100,
      "chip": "ym2612"
    },
    {
      "channel": 1,
      "note": 105,
      "start": 50.0032,
      "duration": 0.0161,
      "velocity": 105,
      "chip": "ym2612"
    },
    {
      "channel": 0,
      "note": 46,
      "start": 50.0048,
      "duration": 0.0161,
      "velocity": 115,
      "chip": "ym2612"
    },
    {
      "channel": 4,
      "note": 74,
      "start": 50.006,
      "duration": 0.0161,
      "velocity": 94,
      "chip": "ym2612"
    },
    {
      "channel": 3,
      "note": 74,
      "start": 50.0071,
      "duration": 0.0161,
      "velocity": 94,
      "chip": "ym2612"
    },
    {
      "channel": 2,
      "note": 50,
      "start": 50.0083,
      "duration": 0.0161,
      "velocity": 100,
      "chip": "ym2612"
    },
    {
      "channel": 1,
      "note": 105,
      "start": 50.0193,
      "duration": 0.0161,
      "velocity": 105,
      "chip": "ym2612"
    },
    {
      "channel": 0,
      "note": 47,
      "start": 50.0209,
      "duration": 0.0161,
      "velocity": 115,
      "chip": "ym2612"
    },
    {
      "channel": 4,
      "note": 74,
      "start": 50.0221,
      "duration": 0.0161,
      "velocity": 94,
      "chip": "ym2612"
    },
    {
      "channel": 3,
      "note": 74,
      "start": 50.0232,
      "duration": 0.0161,
      "velocity": 94,
      "chip": "ym2612"
    },
    {
      "channel": 2,
      "note": 50,
      "start": 50.0244,
      "duration": 0.0161,
      "velocity": 100,
      "chip": "ym2612"
    },
    {
      "channel": 1,
      "note": 105,
      "start": 50.0354,
      "duration": 0.0161,
      "velocity": 105,
      "chip": "ym2612"
    },
    {
      "channel": 0,
      "note": 47,
      "start": 50.037,
      "duration": 0.0161,
      "velocity": 115,
      "chip": "ym2612"
    },
    {
      "channel": 4,
      "note": 74,
      "start": 50.0382,
      "duration": 0.0161,
      "velocity": 94,
      "chip": "ym2612"
    },
    {
      "channel": 3,
      "note": 74,
      "start": 50.0393,
      "duration": 0.0161,
      "velocity": 94,
      "chip": "ym2612"
    },
    {
      "channel": 2,
      "note": 50,
      "start": 50.0405,
      "duration": 0.0161,
      "velocity": 100,
      "chip": "ym2612"
    },
    {
      "channel": 1,
      "note": 105,
      "start": 50.0515,
      "duration": 0.0161,
      "velocity": 105,
      "chip": "ym2612"
    },
    {
      "channel": 0,
      "note": 47,
      "start": 50.0531,
      "duration": 0.0161,
      "velocity": 115,
      "chip": "ym2612"
    },
    {
      "channel": 4,
      "note": 74,
      "start": 50.0542,
      "duration": 0.0162,
      "velocity": 94,
      "chip": "ym2612"
    },
    {
      "channel": 3,
      "note": 74,
      "start": 50.0554,
      "duration": 0.0161,
      "velocity": 94,
      "chip": "ym2612"
    },
    {
      "channel": 2,
      "note": 50,
      "start": 50.0565,
      "duration": 0.0161,
      "velocity": 100,
      "chip": "ym2612"
    },
    {
      "channel": 1,
      "note": 105,
      "start": 50.0676,
      "duration": 0.0184,
      "velocity": 124,
      "chip": "ym2612"
    },
    {
      "channel": 0,
      "note": 48,
      "start": 50.0692,
      "duration": 0.0191,
      "velocity": 115,
      "chip": "ym2612"
    },
    {
      "channel": 4,
      "note": 74,
      "start": 50.0704,
      "duration": 0.0193,
      "velocity": 94,
      "chip": "ym2612"
    },
    {
      "channel": 3,
      "note": 74,
      "start": 50.0715,
      "duration": 0.0195,
      "velocity": 94,
      "chip": "ym2612"
    },
    {
      "channel": 2,
      "note": 50,
      "start": 50.0726,
      "duration": 0.0198,
      "velocity": 100,
      "chip": "ym2612"
    },
    {
      "channel": 1,
      "note": 78,
      "start": 50.0859,
      "duration": 0.0144,
      "velocity": 124,
      "chip": "ym2612"
    },
    {
      "channel": 0,
      "note": 48,
      "start": 50.0883,
      "duration": 0.0139,
      "velocity": 115,
      "chip": "ym2612"
    },
    {
      "channel": 4,
      "note": 74,
      "start": 50.0898,
      "duration": 0.0137,
      "velocity": 94,
      "chip": "ym2612"
    },
    {
      "channel": 3,
      "note": 74,
      "start": 50.091,
      "duration": 0.0136,
      "velocity": 94,
      "chip": "ym2612"
    },
    {
      "channel": 2,
      "note": 48,
      "start": 50.0925,
      "duration": 0.0134,
      "velocity": 100,
      "chip": "ym2612"
    },
    {
      "channel": 1,
      "note": 76,
      "start": 50.1003,
      "duration": 0.016,
      "velocity": 124,
      "chip": "ym2612"
    },
    {
      "channel": 0,
      "note": 49,
      "start": 50.1022,
      "duration": 0.0152,
      "velocity": 1,
      "chip": "ym2612"
    },
    {
      "channel": 4,
      "note": 74,
      "start": 50.1035,
      "duration": 0.0151,
      "velocity": 94,
      "chip": "ym2612"
    },
    {
      "channel": 3,
      "note": 74,
      "start": 50.1046,
      "duration": 0.0151,
      "velocity": 94,
      "chip": "ym2612"
    },
    {
      "channel": 2,
      "note": 48,
      "start": 50.1058,
      "duration": 0.015,
      "velocity": 100,
      "chip": "ym2612"
    },
    {
      "channel": 1,
      "note": 75,
      "start": 50.1163,
      "duration": 0.0161,
      "velocity": 124,
      "chip": "ym2612"
    },
    {
      "channel": 4,
      "note": 74,
      "start": 50.1186,
      "duration": 0.0153,
      "velocity": 94,
      "chip": "ym2612"
    },
    {
      "channel": 3,
      "note": 74,
      "start": 50.1197,
      "duration": 0.0153,
      "velocity": 94,
      "chip": "ym2612"
    },
    {
      "channel": 2,
      "note": 48,
      "start": 50.1209,
      "duration": 0.0153,
      "velocity": 100,
      "chip": "ym2612"
    },
    {
      "channel": 1,
      "note": 74,
      "start": 50.1324,
      "duration": 0.0161,
      "velocity": 124,
      "chip": "ym2612"
    },
    {
      "channel": 4,
      "note": 74,
      "start": 50.1338,
      "duration": 0.0161,
      "velocity": 94,
      "chip": "ym2612"
    },
    {
      "channel": 3,
      "note": 74,
      "start": 50.135,
      "duration": 0.0161,
      "velocity": 94,
      "chip": "ym2612"
    },
    {
      "channel": 2,
      "note": 48,
      "start": 50.1361,
      "duration": 0.0161,
      "velocity": 100,
      "chip": "ym2612"
    },
    {
      "channel": 1,
      "note": 72,
      "start": 50.1485,
      "duration": 0.0161,
      "velocity": 124,
      "chip": "ym2612"
    },
    {
      "channel": 4,
      "note": 74,
      "start": 50.1499,
      "duration": 0.0161,
      "velocity": 94,
      "chip": "ym2612"
    },
    {
      "channel": 3,
      "note": 74,
      "start": 50.1511,
      "duration": 0.0161,
      "velocity": 94,
      "chip": "ym2612"
    },
    {
      "channel": 2,
      "note": 48,
      "start": 50.1522,
      "duration": 0.0161,
      "velocity": 100,
      "chip": "ym2612"
    },
    {
      "channel": 1,
      "note": 71,
      "start": 50.1647,
      "duration": 0.0164,
      "velocity": 124,
      "chip": "ym2612"
    },
    {
      "channel": 4,
      "note": 74,
      "start": 50.1661,
      "duration": 0.0164,
      "velocity": 94,
      "chip": "ym2612"
    },
    {
      "channel": 3,
      "note": 74,
      "start": 50.1672,
      "duration": 0.0165,
      "velocity": 94,
      "chip": "ym2612"
    },
    {
      "channel": 2,
      "note": 48,
      "start": 50.1683,
      "duration": 0.0165,
      "velocity": 100,
      "chip": "ym2612"
    },
    {
      "channel": 1,
      "note": 70,
      "start": 50.1811,
      "duration": 0.0163,
      "velocity": 124,
      "chip": "ym2612"
    },
    {
      "channel": 4,
      "note": 74,
      "start": 50.1825,
      "duration": 0.0171,
      "velocity": 94,
      "chip": "ym2612"
    },
    {
      "channel": 3,
      "note": 74,
      "start": 50.1836,
      "duration": 0.0174,
      "velocity": 94,
      "chip": "ym2612"
    },
    {
      "channel": 2,
      "note": 48,
      "start": 50.1848,
      "duration": 0.0176,
      "velocity": 100,
      "chip": "ym2612"
    },
    {
      "channel": 1,
      "note": 69,
      "start": 50.1974,
      "duration": 0.0155,
      "velocity": 124,
      "chip": "ym2612"
    },
    {
      "channel": 4,
      "note": 74,
      "start": 50.1996,
      "duration": 0.0148,
      "velocity": 94,
      "chip": "ym2612"
    },
    {
      "channel": 3,
      "note": 74,
      "start": 50.201,
      "duration": 0.0146,
      "velocity": 94,
      "chip": "ym2612"
    },
    {
      "channel": 2,
      "note": 48,
      "start": 50.2024,
      "duration": 0.0144,
      "velocity": 100,
      "chip": "ym2612"
    },
    {
      "channel": 1,
      "note": 68,
      "start": 50.213,
      "duration": 0.0181,
      "velocity": 124,
      "chip": "ym2612"
    },
    {
      "channel": 4,
      "note": 74,
      "start": 50.2144,
      "duration": 0.0181,
      "velocity": 94,
      "chip": "ym2612"
    },
    {
      "channel": 3,
      "note": 74,
      "start": 50.2156,
      "duration": 0.018,
      "velocity": 94,
      "chip": "ym2612"
    },
    {
      "channel": 2,
      "note": 48,
      "start": 50.2168,
      "duration": 0.0179,
      "velocity": 100,
      "chip": "ym2612"
    },
    {
      "channel": 1,
      "note": 66,
      "start": 50.2311,
      "duration": 0.0167,
      "velocity": 124,
      "chip": "ym2612"
    },
    {
      "channel": 4,
      "note": 74,
      "start": 50.2325,
      "duration": 0.0167,
      "velocity": 94,
      "chip": "ym2612"
    },
    {
      "channel": 3,
      "note": 74,
      "start": 50.2336,
      "duration": 0.0167,
      "velocity": 94,
      "chip": "ym2612"
    },
    {
      "channel": 2,
      "note": 48,
      "start": 50.2348,
      "duration": 0.0167,
      "velocity": 100,
      "chip": "ym2612"
    },
    {
      "channel": 1,
      "note": 65,
      "start": 50.2478,
      "duration": 0.0159,
      "velocity": 124,
      "chip": "ym2612"
    },
    {
      "channel": 4,
      "note": 74,
      "start": 50.2492,
      "duration": 0.0159,
      "velocity": 94,
      "chip": "ym2612"
    },
    {
      "channel": 3,
      "note": 74,
      "start": 50.2503,
      "duration": 0.0159,
      "velocity": 94,
      "chip": "ym2612"
    },
    {
      "channel": 2,
      "note": 48,
      "start": 50.2515,
      "duration": 0.0158,
      "velocity": 100,
      "chip": "ym2612"
    },
    {
      "channel": 1,
      "note": 64,
      "start": 50.2637,
      "duration": 0.014,
      "velocity": 124,
      "chip": "ym2612"
    },
    {
      "channel": 4,
      "note": 74,
      "start": 50.2651,
      "duration": 0.014,
      "velocity": 94,
      "chip": "ym2612"
    },
    {
      "channel": 3,
      "note": 74,
      "start": 50.2662,
      "duration": 0.014,
      "velocity": 94,
      "chip": "ym2612"
    },
    {
      "channel": 2,
      "note": 48,
      "start": 50.2673,
      "duration": 0.0141,
      "velocity": 100,
      "chip": "ym2612"
    },
    {
      "channel": 1,
      "note": 62,
      "start": 50.2777,
      "duration": 0.0186,
      "velocity": 124,
      "chip": "ym2612"
    },
    {
      "channel": 4,
      "note": 74,
      "start": 50.279,
      "duration": 0.0185,
      "velocity": 94,
      "chip": "ym2612"
    },
    {
      "channel": 3,
      "note": 74,
      "start": 50.2802,
      "duration": 0.0185,
      "velocity": 94,
      "chip": "ym2612"
    },
    {
      "channel": 2,
      "note": 48,
      "start": 50.2813,
      "duration": 0.0185,
      "velocity": 100,
      "chip": "ym2612"
    },
    {
      "channel": 1,
      "note": 61,
      "start": 50.2962,
      "duration": 0.0133,
      "velocity": 124,
      "chip": "ym2612"
    },
    {
      "channel": 4,
      "note": 74,
      "start": 50.2976,
      "duration": 0.0168,
      "velocity": 94,
      "chip": "ym2612"
    },
    {
      "channel": 3,
      "note": 74,
      "start": 50.2987,
      "duration": 0.017,
      "velocity": 94,
      "chip": "ym2612"
    },
    {
      "channel": 2,
      "note": 48,
      "start": 50.2999,
      "duration": 0.0172,
      "velocity": 100,
      "chip": "ym2612"
    },
    {
      "channel": 1,
      "note": 60,
      "start": 50.3095,
      "duration": 0.0162,
      "velocity": 124,
      "chip": "ym2612"
    },
    {
      "channel": 4,
      "note": 74,
      "start": 50.3144,
      "duration": 0.0152,
      "velocity": 94,
      "chip": "ym2612"
    },
    {
      "channel": 3,
      "note": 74,
      "start": 50.3158,
      "duration": 0.015,
      "velocity": 94,
      "chip": "ym2612"
    },
    {
      "channel": 2,
      "note": 48,
      "start": 50.3172,
      "duration": 0.0148,
      "velocity": 100,
      "chip": "ym2612"
    },
    {
      "channel": 1,
      "note": 59,
      "start": 50.3257,
      "duration": 0.0161,
      "velocity": 124,
      "chip": "ym2612"
    },
    {
      "channel": 4,
      "note": 74,
      "start": 50.3296,
      "duration": 0.0137,
      "velocity": 94,
      "chip": "ym2612"
    },
    {
      "channel": 3,
      "note": 74,
      "start": 50.3308,
      "duration": 0.0139,
      "velocity": 94,
      "chip": "ym2612"
    },
    {
      "channel": 2,
      "note": 48,
      "start": 50.3319,
      "duration": 0.0138,
      "velocity": 100,
      "chip": "ym2612"
    },
    {
      "channel": 1,
      "note": 57,
      "start": 50.3418,
      "duration": 0.0161,
      "velocity": 124,
      "chip": "ym2612"
    },
    {
      "channel": 4,
      "note": 74,
      "start": 50.3432,
      "duration": 0.016,
      "velocity": 94,
      "chip": "ym2612"
    },
    {
      "channel": 3,
      "note": 74,
      "start": 50.3446,
      "duration": 0.0185,
      "velocity": 94,
      "chip": "ym2612"
    },
    {
      "channel": 2,
      "note": 48,
      "start": 50.3457,
      "duration": 0.0186,
      "velocity": 100,
      "chip": "ym2612"
    },
    {
      "channel": 1,
      "note": 56,
      "start": 50.3579,
      "duration": 0.0161,
      "velocity": 124,
      "chip": "ym2612"
    },
    {
      "channel": 4,
      "note": 74,
      "start": 50.3593,
      "duration": 0.0161,
      "velocity": 94,
      "chip": "ym2612"
    },
    {
      "channel": 3,
      "note": 74,
      "start": 50.3632,
      "duration": 0.0161,
      "velocity": 94,
      "chip": "ym2612"
    },
    {
      "channel": 2,
      "note": 48,
      "start": 50.3643,
      "duration": 0.0161,
      "velocity": 100,
      "chip": "ym2612"
    },
    {
      "channel": 1,
      "note": 55,
      "start": 50.374,
      "duration": 0.0161,
      "velocity": 124,
      "chip": "ym2612"
    },
    {
      "channel": 4,
      "note": 74,
      "start": 50.3754,
      "duration": 0.0161,
      "velocity": 94,
      "chip": "ym2612"
    },
    {
      "channel": 3,
      "note": 74,
      "start": 50.3793,
      "duration": 0.0134,
      "velocity": 94,
      "chip": "ym2612"
    },
    {
      "channel": 2,
      "note": 48,
      "start": 50.3804,
      "duration": 0.0157,
      "velocity": 100,
      "chip": "ym2612"
    },
    {
      "channel": 1,
      "note": 53,
      "start": 50.3901,
      "duration": 0.0161,
      "velocity": 124,
      "chip": "ym2612"
    },
    {
      "channel": 4,
      "note": 74,
      "start": 50.3915,
      "duration": 0.0161,
      "velocity": 94,
      "chip": "ym2612"
    },
    {
      "channel": 3,
      "note": 74,
      "start": 50.3926,
      "duration": 0.0161,
      "velocity": 94,
      "chip": "ym2612"
    },
    {
      "channel": 2,
      "note": 48,
      "start": 50.3961,
      "duration": 0.0139,
      "velocity": 100,
      "chip": "ym2612"
    },
    {
      "channel": 1,
      "note": 52,
      "start": 50.4062,
      "duration": 0.0161,
      "velocity": 124,
      "chip": "ym2612"
    },
    {
      "channel": 4,
      "note": 74,
      "start": 50.4076,
      "duration": 0.0231,
      "velocity": 94,
      "chip": "ym2612"
    },
    {
      "channel": 3,
      "note": 74,
      "start": 50.4087,
      "duration": 0.0233,
      "velocity": 94,
      "chip": "ym2612"
    },
    {
      "channel": 2,
      "note": 48,
      "start": 50.41,
      "duration": 0.0233,
      "velocity": 100,
      "chip": "ym2612"
    },
    {
      "channel": 1,
      "note": 51,
      "start": 50.4222,
      "duration": 0.0153,
      "velocity": 1,
      "chip": "ym2612"
    },
    {
      "channel": 0,
      "note": 78,
      "start": 50.4293,
      "duration": 0.0122,
      "velocity": 127,
      "chip": "ym2612"
    },
    {
      "channel": 4,
      "note": 72,
      "start": 50.4307,
      "duration": 0.012,
      "velocity": 94,
      "chip": "ym2612"
    },
    {
      "channel": 3,
      "note": 74,
      "start": 50.432,
      "duration": 0.0146,
      "velocity": 94,
      "chip": "ym2612"
    },
    {
      "channel": 2,
      "note": 48,
      "start": 50.4334,
      "duration": 0.0144,
      "velocity": 100,
      "chip": "ym2612"
    },
    {
      "channel": 1,
      "note": 51,
      "start": 50.4398,
      "duration": 0.0142,
      "velocity": 105,
      "chip": "ym2612"
    },
    {
      "channel": 0,
      "note": 76,
      "start": 50.4415,
      "duration": 0.0142,
      "velocity": 127,
      "chip": "ym2612"
    },
    {
      "channel": 4,
      "note": 72,
      "start": 50.4427,
      "duration": 0.0141,
      "velocity": 94,
      "chip": "ym2612"
    },
    {
      "channel": 3,
      "note": 74,
      "start": 50.4466,
      "duration": 0.0113,
      "velocity": 94,
      "chip": "ym2612"
    },
    {
      "channel": 2,
      "note": 48,
      "start": 50.4478,
      "duration": 0.0113,
      "velocity": 100,
      "chip": "ym2612"
    },
    {
      "channel": 1,
      "note": 105,
      "start": 50.454,
      "duration": 0.0161,
      "velocity": 105,
      "chip": "ym2612"
    },
    {
      "channel": 0,
      "note": 75,
      "start": 50.4556,
      "duration": 0.0161,
      "velocity": 127,
      "chip": "ym2612"
    },
    {
      "channel": 4,
      "note": 72,
      "start": 50.4568,
      "duration": 0.0161,
      "velocity": 94,
      "chip": "ym2612"
    },
    {
      "channel": 3,
      "note": 74,
      "start": 50.4579,
      "duration": 0.0161,
      "velocity": 94,
      "chip": "ym2612"
    },
    {
      "channel": 2,
      "note": 48,
      "start": 50.4591,
      "duration": 0.0161,
      "velocity": 100,
      "chip": "ym2612"
    },
    {
      "channel": 1,
      "note": 105,
      "start": 50.4701,
      "duration": 0.0161,
      "velocity": 105,
      "chip": "ym2612"
    },
    {
      "channel": 0,
      "note": 73,
      "start": 50.4717,
      "duration": 0.0161,
      "velocity": 127,
      "chip": "ym2612"
    },
    {
      "channel": 4,
      "note": 72,
      "start": 50.4729,
      "duration": 0.0162,
      "velocity": 94,
      "chip": "ym2612"
    },
    {
      "channel": 3,
      "note": 74,
      "start": 50.474,
      "duration": 0.0161,
      "velocity": 94,
      "chip": "ym2612"
    },
    {
      "channel": 2,
      "note": 48,
      "start": 50.4752,
      "duration": 0.0161,
      "velocity": 100,
      "chip": "ym2612"
    },
    {
      "channel": 1,
      "note": 105,
      "start": 50.4862,
      "duration": 0.0161,
      "velocity": 105,
      "chip": "ym2612"
    },
    {
      "channel": 0,
      "note": 71,
      "start": 50.4878,
      "duration": 0.0161,
      "velocity": 127,
      "chip": "ym2612"
    },
    {
      "channel": 4,
      "note": 72,
      "start": 50.489,
      "duration": 0.0161,
      "velocity": 94,
      "chip": "ym2612"
    },
    {
      "channel": 3,
      "note": 74,
      "start": 50.4901,
      "duration": 0.0161,
      "velocity": 94,
      "chip": "ym2612"
    },
    {
      "channel": 2,
      "note": 48,
      "start": 50.4913,
      "duration": 0.0161,
      "velocity": 100,
      "chip": "ym2612"
    },
    {
      "channel": 1,
      "note": 105,
      "start": 50.5023,
      "duration": 0.0161,
      "velocity": 105,
      "chip": "ym2612"
    },
    {
      "channel": 0,
      "note": 70,
      "start": 50.5039,
      "duration": 0.0161,
      "velocity": 127,
      "chip": "ym2612"
    },
    {
      "channel": 4,
      "note": 72,
      "start": 50.5051,
      "duration": 0.0161,
      "velocity": 94,
      "chip": "ym2612"
    },
    {
      "channel": 3,
      "note": 74,
      "start": 50.5063,
      "duration": 0.016,
      "velocity": 94,
      "chip": "ym2612"
    },
    {
      "channel": 2,
      "note": 48,
      "start": 50.5074,
      "duration": 0.0161,
      "velocity": 100,
      "chip": "ym2612"
    },
    {
      "channel": 1,
      "note": 105,
      "start": 50.5184,
      "duration": 0.0178,
      "velocity": 124,
      "chip": "ym2612"
    },
    {
      "channel": 0,
      "note": 68,
      "start": 50.52,
      "duration": 0.0197,
      "velocity": 115,
      "chip": "ym2612"
    },
    {
      "channel": 4,
      "note": 72,
      "start": 50.5212,
      "duration": 0.0198,
      "velocity": 94,
      "chip": "ym2612"
    },
    {
      "channel": 3,
      "note": 74,
      "start": 50.5223,
      "duration": 0.02,
      "velocity": 94,
      "chip": "ym2612"
    },
    {
      "channel": 2,
      "note": 48,
      "start": 50.5235,
      "duration": 0.0207,
      "velocity": 100,
      "chip": "ym2612"
    },
    {
      "channel": 1,
      "note": 64,
      "start": 50.5362,
      "duration": 0.0144,
      "velocity": 124,
      "chip": "ym2612"
    },
    {
      "channel": 0,
      "note": 36,
      "start": 50.5397,
      "duration": 0.0127,
      "velocity": 115,
      "chip": "ym2612"
    },
    {
      "channel": 4,
      "note": 72,
      "start": 50.541,
      "duration": 0.0126,
      "velocity": 94,
      "chip": "ym2612"
    },
    {
      "channel": 3,
      "note": 72,
      "start": 50.5424,
      "duration": 0.0124,
      "velocity": 94,
      "chip": "ym2612"
    },
    {
      "channel": 2,
      "note": 57,
      "start": 50.5441,
      "duration": 0.0118,
      "velocity": 100,
      "chip": "ym2612"
    },
    {
      "channel": 1,
      "note": 64,
      "start": 50.5506,
      "duration": 0.0161,
      "velocity": 124,
      "chip": "ym2612"
    },
    {
      "channel": 0,
      "note": 36,
      "start": 50.5524,
      "duration": 0.016,
      "velocity": 115,
      "chip": "ym2612"
    },
    {
      "channel": 4,
      "note": 72,
      "start": 50.5536,
      "duration": 0.0159,
      "velocity": 94,
      "chip": "ym2612"
    },
    {
      "channel": 3,
      "note": 72,
      "start": 50.5548,
      "duration": 0.0158,
      "velocity": 94,
      "chip": "ym2612"
    },
    {
      "channel": 2,
      "note": 57,
      "start": 50.556,
      "duration": 0.0159,
      "velocity": 100,
      "chip": "ym2612"
    },
    {
      "channel": 1,
      "note": 64,
      "start": 50.5667,
      "duration": 0.0161,
      "velocity": 124,
      "chip": "ym2612"
    },
    {
      "channel": 0,
      "note": 37,
      "start": 50.5684,
      "duration": 0.0161,
      "velocity": 115,
      "chip": "ym2612"
    },
    {
      "channel": 4,
      "note": 72,
      "start": 50.5695,
      "duration": 0.0161,
      "velocity": 94,
      "chip": "ym2612"
    },
    {
      "channel": 3,
      "note": 72,
      "start": 50.5707,
      "duration": 0.0161,
      "velocity": 94,
      "chip": "ym2612"
    },
    {
      "channel": 2,
      "note": 57,
      "start": 50.5718,
      "duration": 0.0161,
      "velocity": 100,
      "chip": "ym2612"
    },
    {
      "channel": 1,
      "note": 64,
      "start": 50.5828,
      "duration": 0.0161,
      "velocity": 124,
      "chip": "ym2612"
    },
    {
      "channel": 0,
      "note": 37,
      "start": 50.5845,
      "duration": 0.0161,
      "velocity": 115,
      "chip": "ym2612"
    },
    {
      "channel": 4,
      "note": 72,
      "start": 50.5856,
      "duration": 0.0161,
      "velocity": 94,
      "chip": "ym2612"
    },
    {
      "channel": 3,
      "note": 72,
      "start": 50.5868,
      "duration": 0.0161,
      "velocity": 94,
      "chip": "ym2612"
    },
    {
      "channel": 2,
      "note": 57,
      "start": 50.5879,
      "duration": 0.0161,
      "velocity": 100,
      "chip": "ym2612"
    },
    {
      "channel": 1,
      "note": 64,
      "start": 50.5989,
      "duration": 0.0161,
      "velocity": 124,
      "chip": "ym2612"
    },
    {
      "channel": 0,
      "note": 38,
      "start": 50.6006,
      "duration": 0.0161,
      "velocity": 115,
      "chip": "ym2612"
    },
    {
      "channel": 4,
      "note": 72,
      "start": 50.6017,
      "duration": 0.0162,
      "velocity": 94,
      "chip": "ym2612"
    },
    {
      "channel": 3,
      "note": 72,
      "start": 50.6029,
      "duration": 0.0161,
      "velocity": 94,
      "chip": "ym2612"
    },
    {
      "channel": 2,
      "note": 57,
      "start": 50.604,
      "duration": 0.0161,
      "velocity": 100,
      "chip": "ym2612"
    },
    {
      "channel": 1,
      "note": 64,
      "start": 50.615,
      "duration": 0.0161,
      "velocity": 124,
      "chip": "ym2612"
    },
    {
      "channel": 0,
      "note": 38,
      "start": 50.6166,
      "duration": 0.0161,
      "velocity": 115,
      "chip": "ym2612"
    },
    {
      "channel": 4,
      "note": 72,
      "start": 50.6179,
      "duration": 0.0161,
      "velocity": 94,
      "chip": "ym2612"
    },
    {
      "channel": 3,
      "note": 72,
      "start": 50.619,
      "duration": 0.0161,
      "velocity": 94,
      "chip": "ym2612"
    },
    {
      "channel": 2,
      "note": 57,
      "start": 50.6201,
      "duration": 0.0161,
      "velocity": 100,
      "chip": "ym2612"
    },
    {
      "channel": 1,
      "note": 64,
      "start": 50.6311,
      "duration": 0.0179,
      "velocity": 105,
      "chip": "ym2612"
    },
    {
      "channel": 0,
      "note": 39,
      "start": 50.6327,
      "duration": 0.0179,
      "velocity": 115,
      "chip": "ym2612"
    },
    {
      "channel": 4,
      "note": 72,
      "start": 50.6339,
      "duration": 0.0181,
      "velocity": 94,
      "chip": "ym2612"
    },
    {
      "channel": 3,
      "note": 72,
      "start": 50.6351,
      "duration": 0.0183,
      "velocity": 94,
      "chip": "ym2612"
    },
    {
      "channel": 2,
      "note": 57,
      "start": 50.6362,
      "duration": 0.0186,
      "velocity": 100,
      "chip": "ym2612"
    },
    {
      "channel": 1,
      "note": 105,
      "start": 50.649,
      "duration": 0.0146,
      "velocity": 105,
      "chip": "ym2612"
    },
    {
      "channel": 0,
      "note": 39,
      "start": 50.6507,
      "duration": 0.0146,
      "velocity": 115,
      "chip": "ym2612"
    },
    {
      "channel": 4,
      "note": 81,
      "start": 50.6521,
      "duration": 0.0144,
      "velocity": 94,
      "chip": "ym2612"
    },
    {
      "channel": 3,
      "note": 72,
      "start": 50.6534,
      "duration": 0.0144,
      "velocity": 94,
      "chip": "ym2612"
    },
    {
      "channel": 2,
      "note": 57,
      "start": 50.6548,
      "duration": 0.0141,
      "velocity": 100,
      "chip": "ym2612"
    },
    {
      "channel": 1,
      "note": 105,
      "start": 50.6637,
      "duration": 0.0157,
      "velocity": 105,
      "chip": "ym2612"
    },
    {
      "channel": 0,
      "note": 40,
      "start": 50.6653,
      "duration": 0.0157,
      "velocity": 115,
      "chip": "ym2612"
    },
    {
      "channel": 4,
      "note": 81,
      "start": 50.6665,
      "duration": 0.0157,
      "velocity": 94,
      "chip": "ym2612"
    },
    {
      "channel": 3,
      "note": 72,
      "start": 50.6677,
      "duration": 0.0156,
      "velocity": 94,
      "chip": "ym2612"
    },
    {
      "channel": 2,
      "note": 57,
      "start": 50.6689,
      "duration": 0.0155,
      "velocity": 100,
      "chip": "ym2612"
    },
    {
      "channel": 1,
      "note": 105,
      "start": 50.6794,
      "duration": 0.018,
      "velocity": 105,
      "chip": "ym2612"
    },
    {
      "channel": 0,
      "note": 40,
      "start": 50.681,
      "duration": 0.018,
      "velocity": 115,
      "chip": "ym2612"
    },
    {
      "channel": 4,
      "note": 81,
      "start": 50.6822,
      "duration": 0.0179,
      "velocity": 94,
      "chip": "ym2612"
    },
    {
      "channel": 3,
      "note": 72,
      "start": 50.6834,
      "duration": 0.0179,
      "velocity": 94,
      "chip": "ym2612"
    },
    {
      "channel": 2,
      "note": 57,
      "start": 50.6845,
      "duration": 0.0179,
      "velocity": 100,
      "chip": "ym2612"
    },
    {
      "channel": 1,
      "note": 105,
      "start": 50.6973,
      "duration": 0.0167,
      "velocity": 105,
      "chip": "ym2612"
    },
    {
      "channel": 0,
      "note": 40,
      "start": 50.699,
      "duration": 0.0167,
      "velocity": 115,
      "chip": "ym2612"
    },
    {
      "channel": 4,
      "note": 81,
      "start": 50.7001,
      "duration": 0.0167,
      "velocity": 94,
      "chip": "ym2612"
    },
    {
      "channel": 3,
      "note": 72,
      "start": 50.7013,
      "duration": 0.0167,
      "velocity": 94,
      "chip": "ym2612"
    },
    {
      "channel": 2,
      "note": 57,
      "start": 50.7024,
      "duration": 0.0167,
      "velocity": 100,
      "chip": "ym2612"
    },
    {
      "channel": 1,
      "note": 105,
      "start": 50.714,
      "duration": 0.0161,
      "velocity": 105,
      "chip": "ym2612"
    },
    {
      "channel": 0,
      "note": 41,
      "start": 50.7156,
      "duration": 0.0161,
      "velocity": 115,
      "chip": "ym2612"
    },
    {
      "channel": 4,
      "note": 81,
      "start": 50.7168,
      "duration": 0.0162,
      "velocity": 94,
      "chip": "ym2612"
    },
    {
      "channel": 3,
      "note": 72,
      "start": 50.7179,
      "duration": 0.0161,
      "velocity": 94,
      "chip": "ym2612"
    },
    {
      "channel": 2,
      "note": 57,
      "start": 50.7191,
      "duration": 0.0161,
      "velocity": 100,
      "chip": "ym2612"
    },
    {
      "channel": 1,
      "note": 105,
      "start": 50.7301,
      "duration": 0.0141,
      "velocity": 105,
      "chip": "ym2612"
    },
    {
      "channel": 0,
      "note": 41,
      "start": 50.7317,
      "duration": 0.0141,
      "velocity": 115,
      "chip": "ym2612"
    },
    {
      "channel": 4,
      "note": 81,
      "start": 50.7329,
      "duration": 0.014,
      "velocity": 94,
      "chip": "ym2612"
    },
    {
      "channel": 3,
      "note": 72,
      "start": 50.7341,
      "duration": 0.014,
      "velocity": 94,
      "chip": "ym2612"
    },
    {
      "channel": 2,
      "note": 57,
      "start": 50.7352,
      "duration": 0.0141,
      "velocity": 100,
      "chip": "ym2612"
    },
    {
      "channel": 1,
      "note": 105,
      "start": 50.7441,
      "duration": 0.0202,
      "velocity": 124,
      "chip": "ym2612"
    },
    {
      "channel": 0,
      "note": 42,
      "start": 50.7458,
      "duration": 0.0203,
      "velocity": 115,
      "chip": "ym2612"
    },
    {
      "channel": 4,
      "note": 81,
      "start": 50.7469,
      "duration": 0.0204,
      "velocity": 94,
      "chip": "ym2612"
    },
    {
      "channel": 3,
      "note": 72,
      "start": 50.7481,
      "duration": 0.0207,
      "velocity": 94,
      "chip": "ym2612"
    },
    {
      "channel": 2,
      "note": 57,
      "start": 50.7492,
      "duration": 0.0209,
      "velocity": 100,
      "chip": "ym2612"
    },
    {
      "channel": 1,
      "note": 64,
      "start": 50.7644,
      "duration": 0.0117,
      "velocity": 124,
      "chip": "ym2612"
    },
    {
      "channel": 0,
      "note": 42,
      "start": 50.7661,
      "duration": 0.0144,
      "velocity": 115,
      "chip": "ym2612"
    },
    {
      "channel": 4,
      "note": 81,
      "start": 50.7673,
      "duration": 0.0143,
      "velocity": 94,
      "chip": "ym2612"
    },
    {
      "channel": 3,
      "note": 81,
      "start": 50.7688,
      "duration": 0.0141,
      "velocity": 94,
      "chip": "ym2612"
    },
    {
      "channel": 2,
      "note": 57,
      "start": 50.7702,
      "duration": 0.0139,
      "velocity": 100,
      "chip": "ym2612"
    },
    {
      "channel": 1,
      "note": 64,
      "start": 50.7761,
      "duration": 0.016,
      "velocity": 124,
      "chip": "ym2612"
    },
    {
      "channel": 0,
      "note": 43,
      "start": 50.7805,
      "duration": 0.0157,
      "velocity": 115,
      "chip": "ym2612"
    },
    {
      "channel": 4,
      "note": 81,
      "start": 50.7817,
      "duration": 0.0157,
      "velocity": 94,
      "chip": "ym2612"
    },
    {
      "channel": 3,
      "note": 81,
      "start": 50.7829,
      "duration": 0.0156,
      "velocity": 94,
      "chip": "ym2612"
    },
    {
      "channel": 2,
      "note": 57,
      "start": 50.7841,
      "duration": 0.0155,
      "velocity": 100,
      "chip": "ym2612"
    },
    {
      "channel": 1,
      "note": 64,
      "start": 50.7921,
      "duration": 0.0161,
      "velocity": 124,
      "chip": "ym2612"
    },
    {
      "channel": 0,
      "note": 43,
      "start": 50.7962,
      "duration": 0.0139,
      "velocity": 115,
      "chip": "ym2612"
    },
    {
      "channel": 4,
      "note": 81,
      "start": 50.7973,
      "duration": 0.0141,
      "velocity": 94,
      "chip": "ym2612"
    },
    {
      "channel": 3,
      "note": 81,
      "start": 50.7985,
      "duration": 0.0141,
      "velocity": 94,
      "chip": "ym2612"
    },
    {
      "channel": 2,
      "note": 57,
      "start": 50.7996,
      "duration": 0.0141,
      "velocity": 100,
      "chip": "ym2612"
    },
    {
      "channel": 1,
      "note": 64,
      "start": 50.8082,
      "duration": 0.0161,
      "velocity": 124,
      "chip": "ym2612"
    },
    {
      "channel": 0,
      "note": 44,
      "start": 50.81,
      "duration": 0.016,
      "velocity": 115,
      "chip": "ym2612"
    },
    {
      "channel": 4,
      "note": 81,
      "start": 50.8114,
      "duration": 0.0185,
      "velocity": 94,
      "chip": "ym2612"
    },
    {
      "channel": 3,
      "note": 81,
      "start": 50.8125,
      "duration": 0.0185,
      "velocity": 94,
      "chip": "ym2612"
    },
    {
      "channel": 2,
      "note": 57,
      "start": 50.8137,
      "duration": 0.0185,
      "velocity": 100,
      "chip": "ym2612"
    },
    {
      "channel": 1,
      "note": 64,
      "start": 50.8243,
      "duration": 0.0161,
      "velocity": 124,
      "chip": "ym2612"
    },
    {
      "channel": 0,
      "note": 44,
      "start": 50.826,
      "duration": 0.0161,
      "velocity": 115,
      "chip": "ym2612"
    },
    {
      "channel": 4,
      "note": 81,
      "start": 50.8299,
      "duration": 0.0161,
      "velocity": 94,
      "chip": "ym2612"
    },
    {
      "channel": 3,
      "note": 81,
      "start": 50.831,
      "duration": 0.0161,
      "velocity": 94,
      "chip": "ym2612"
    },
    {
      "channel": 2,
      "note": 57,
      "start": 50.8322,
      "duration": 0.0161,
      "velocity": 100,
      "chip": "ym2612"
    },
    {
      "channel": 1,
      "note": 64,
      "start": 50.8404,
      "duration": 0.0161,
      "velocity": 124,
      "chip": "ym2612"
    },
    {
      "channel": 0,
      "note": 44,
      "start": 50.8421,
      "duration": 0.0161,
      "velocity": 115,
      "chip": "ym2612"
    },
    {
      "channel": 4,
      "note": 81,
      "start": 50.846,
      "duration": 0.0134,
      "velocity": 94,
      "chip": "ym2612"
    },
    {
      "channel": 3,
      "note": 81,
      "start": 50.8471,
      "duration": 0.0157,
      "velocity": 94,
      "chip": "ym2612"
    },
    {
      "channel": 2,
      "note": 57,
      "start": 50.8483,
      "duration": 0.0157,
      "velocity": 100,
      "chip": "ym2612"
    },
    {
      "channel": 1,
      "note": 64,
      "start": 50.8565,
      "duration": 0.0178,
      "velocity": 105,
      "chip": "ym2612"
    },
    {
      "channel": 0,
      "note": 45,
      "start": 50.8582,
      "duration": 0.0178,
      "velocity": 115,
      "chip": "ym2612"
    },
    {
      "channel": 4,
      "note": 81,
      "start": 50.8593,
      "duration": 0.0184,
      "velocity": 94,
      "chip": "ym2612"
    },
    {
      "channel": 3,
      "note": 81,
      "start": 50.8628,
      "duration": 0.0162,
      "velocity": 94,
      "chip": "ym2612"
    },
    {
      "channel": 2,
      "note": 57,
      "start": 50.864,
      "duration": 0.0165,
      "velocity": 100,
      "chip": "ym2612"
    },
    {
      "channel": 1,
      "note": 105,
      "start": 50.8744,
      "duration": 0.0144,
      "velocity": 105,
      "chip": "ym2612"
    },
    {
      "channel": 0,
      "note": 45,
      "start": 50.876,
      "duration": 0.0144,
      "velocity": 115,
      "chip": "ym2612"
    },
    {
      "channel": 4,
      "note": 81,
      "start": 50.8778,
      "duration": 0.0139,
      "velocity": 94,
      "chip": "ym2612"
    },
    {
      "channel": 3,
      "note": 81,
      "start": 50.879,
      "duration": 0.0138,
      "velocity": 94,
      "chip": "ym2612"
    },
    {
      "channel": 2,
      "note": 57,
      "start": 50.8805,
      "duration": 0.0163,
      "velocity": 100,
      "chip": "ym2612"
    },
    {
      "channel": 1,
      "note": 105,
      "start": 50.8887,
      "duration": 0.0161,
      "velocity": 105,
      "chip": "ym2612"
    },
    {
      "channel": 0,
      "note": 46,
      "start": 50.8905,
      "duration": 0.016,
      "velocity": 115,
      "chip": "ym2612"
    },
    {
      "channel": 4,
      "note": 81,
      "start": 50.8917,
      "duration": 0.016,
      "velocity": 94,
      "chip": "ym2612"
    },
    {
      "channel": 3,
      "note": 81,
      "start": 50.8929,
      "duration": 0.0159,
      "velocity": 94,
      "chip": "ym2612"
    },
    {
      "channel": 2,
      "note": 57,
      "start": 50.8968,
      "duration": 0.0159,
      "velocity": 100,
      "chip": "ym2612"
    },
    {
      "channel": 1,
      "note": 105,
      "start": 50.9048,
      "duration": 0.0161,
      "velocity": 105,
      "chip": "ym2612"
    },
    {
      "channel": 0,
      "note": 46,
      "start": 50.9065,
      "duration": 0.0161,
      "velocity": 115,
      "chip": "ym2612"
    },
    {
      "channel": 4,
      "note": 81,
      "start": 50.9076,
      "duration": 0.0161,
      "velocity": 94,
      "chip": "ym2612"
    },
    {
      "channel": 3,
      "note": 81,
      "start": 50.9088,
      "duration": 0.0161,
      "velocity": 94,
      "chip": "ym2612"
    },
    {
      "channel": 2,
      "note": 57,
      "start": 50.9127,
      "duration": 0.0134,
      "velocity": 100,
      "chip": "ym2612"
    },
    {
      "channel": 1,
      "note": 105,
      "start": 50.9209,
      "duration": 0.0161,
      "velocity": 105,
      "chip": "ym2612"
    },
    {
      "channel": 0,
      "note": 47,
      "start": 50.9226,
      "duration": 0.0161,
      "velocity": 115,
      "chip": "ym2612"
    },
    {
      "channel": 4,
      "note": 81,
      "start": 50.9237,
      "duration": 0.0161,
      "velocity": 94,
      "chip": "ym2612"
    },
    {
      "channel": 3,
      "note": 81,
      "start": 50.9249,
      "duration": 0.0161,
      "velocity": 94,
      "chip": "ym2612"
    },
    {
      "channel": 2,
      "note": 57,
      "start": 50.926,
      "duration": 0.0161,
      "velocity": 100,
      "chip": "ym2612"
    },
    {
      "channel": 1,
      "note": 105,
      "start": 50.937,
      "duration": 0.0161,
      "velocity": 105,
      "chip": "ym2612"
    },
    {
      "channel": 0,
      "note": 47,
      "start": 50.9387,
      "duration": 0.0161,
      "velocity": 115,
      "chip": "ym2612"
    },
    {
      "channel": 4,
      "note": 81,
      "start": 50.9398,
      "duration": 0.0161,
      "velocity": 94,
      "chip": "ym2612"
    },
    {
      "channel": 3,
      "note": 81,
      "start": 50.941,
      "duration": 0.0162,
      "velocity": 94,
      "chip": "ym2612"
    },
    {
      "channel": 2,
      "note": 57,
      "start": 50.9421,
      "duration": 0.0161,
      "velocity": 100,
      "chip": "ym2612"
    },
    {
      "channel": 1,
      "note": 105,
      "start": 50.9531,
      "duration": 0.0161,
      "velocity": 105,
      "chip": "ym2612"
    },
    {
      "channel": 0,
      "note": 47,
      "start": 50.9548,
      "duration": 0.0161,
      "velocity": 115,
      "chip": "ym2612"
    },
    {
      "channel": 4,
      "note": 81,
      "start": 50.956,
      "duration": 0.0161,
      "velocity": 94,
      "chip": "ym2612"
    },
    {
      "channel": 3,
      "note": 81,
      "start": 50.9571,
      "duration": 0.0161,
      "velocity": 94,
      "chip": "ym2612"
    },
    {
      "channel": 2,
      "note": 57,
      "start": 50.9582,
      "duration": 0.0161,
      "velocity": 100,
      "chip": "ym2612"
    },
    {
      "channel": 1,
      "note": 105,
      "start": 50.9692,
      "duration": 0.0184,
      "velocity": 124,
      "chip": "ym2612"
    },
    {
      "channel": 0,
      "note": 48,
      "start": 50.9709,
      "duration": 0.0191,
      "velocity": 115,
      "chip": "ym2612"
    },
    {
      "channel": 4,
      "note": 81,
      "start": 50.9721,
      "duration": 0.0192,
      "velocity": 94,
      "chip": "ym2612"
    },
    {
      "channel": 3,
      "note": 81,
      "start": 50.9732,
      "duration": 0.0195,
      "velocity": 94,
      "chip": "ym2612"
    },
    {
      "channel": 2,
      "note": 57,
      "start": 50.9743,
      "duration": 0.0222,
      "velocity": 100,
      "chip": "ym2612"
    },
    {
      "channel": 1,
      "note": 78,
      "start": 50.9876,
      "duration": 0.0144,
      "velocity": 124,
      "chip": "ym2612"
    },
    {
      "channel": 0,
      "note": 48,
      "start": 50.99,
      "duration": 0.0139,
      "velocity": 115,
      "chip": "ym2612"
    },
    {
      "channel": 4,
      "note": 81,
      "start": 50.9913,
      "duration": 0.0138,
      "velocity": 94,
      "chip": "ym2612"
    },
    {
      "channel": 3,
      "note": 81,
      "start": 50.9927,
      "duration": 0.0136,
      "velocity": 94,
      "chip": "ym2612"
    },
    {
      "channel": 2,
      "note": 57,
      "start": 50.9965,
      "duration": 0.011,
      "velocity": 100,
      "chip": "ym2612"
    },
    {
      "channel": 1,
      "note": 76,
      "start": 51.002,
      "duration": 0.016,
      "velocity": 124,
      "chip": "ym2612"
    },
    {
      "channel": 0,
      "note": 49,
      "start": 51.0039,
      "duration": 0.0152,
      "velocity": 1,
      "chip": "ym2612"
    },
    {
      "channel": 4,
      "note": 81,
      "start": 51.0051,
      "duration": 0.0151,
      "velocity": 94,
      "chip": "ym2612"
    },
    {
      "channel": 3,
      "note": 81,
      "start": 51.0063,
      "duration": 0.0151,
      "velocity": 94,
      "chip": "ym2612"
    },
    {
      "channel": 2,
      "note": 57,
      "start": 51.0075,
      "duration": 0.015,
      "velocity": 100,
      "chip": "ym2612"
    },
    {
      "channel": 1,
      "note": 75,
      "start": 51.018,
      "duration": 0.0161,
      "velocity": 124,
      "chip": "ym2612"
    },
    {
      "channel": 4,
      "note": 81,
      "start": 51.0202,
      "duration": 0.0153,
      "velocity": 94,
      "chip": "ym2612"
    },
    {
      "channel": 3,
      "note": 81,
      "start": 51.0214,
      "duration": 0.0153,
      "velocity": 94,
      "chip": "ym2612"
    },
    {
      "channel": 2,
      "note": 57,
      "start": 51.0225,
      "duration": 0.0153,
      "velocity": 100,
      "chip": "ym2612"
    },
    {
      "channel": 1,
      "note": 74,
      "start": 51.0341,
      "duration": 0.0162,
      "velocity": 124,
      "chip": "ym2612"
    },
    {
      "channel": 4,
      "note": 81,
      "start": 51.0355,
      "duration": 0.0161,
      "velocity": 94,
      "chip": "ym2612"
    },
    {
      "channel": 3,
      "note": 81,
      "start": 51.0366,
      "duration": 0.0161,
      "velocity": 94,
      "chip": "ym2612"
    },
    {
      "channel": 2,
      "note": 57,
      "start": 51.0378,
      "duration": 0.0161,
      "velocity": 100,
      "chip": "ym2612"
    },
    {
      "channel": 1,
      "note": 72,
      "start": 51.0502,
      "duration": 0.0161,
      "velocity": 124,
      "chip": "ym2612"
    },
    {
      "channel": 4,
      "note": 81,
      "start": 51.0516,
      "duration": 0.0161,
      "velocity": 94,
      "chip": "ym2612"
    },
    {
      "channel": 3,
      "note": 81,
      "start": 51.0527,
      "duration": 0.0161,
      "velocity": 94,
      "chip": "ym2612"
    },
    {
      "channel": 2,
      "note": 57,
      "start": 51.0539,
      "duration": 0.0161,
      "velocity": 100,
      "chip": "ym2612"
    },
    {
      "channel": 1,
      "note": 71,
      "start": 51.0663,
      "duration": 0.0161,
      "velocity": 124,
      "chip": "ym2612"
    },
    {
      "channel": 4,
      "note": 81,
      "start": 51.0677,
      "duration": 0.0162,
      "velocity": 94,
      "chip": "ym2612"
    },
    {
      "channel": 3,
      "note": 81,
      "start": 51.0688,
      "duration": 0.0161,
      "velocity": 94,
      "chip": "ym2612"
    },
    {
      "channel": 2,
      "note": 57,
      "start": 51.07,
      "duration": 0.0161,
      "velocity": 100,
      "chip": "ym2612"
    },
    {
      "channel": 1,
      "note": 70,
      "start": 51.0824,
      "duration": 0.0161,
      "velocity": 124,
      "chip": "ym2612"
    },
    {
      "channel": 4,
      "note": 81,
      "start": 51.0838,
      "duration": 0.0168,
      "velocity": 94,
      "chip": "ym2612"
    },
    {
      "channel": 3,
      "note": 81,
      "start": 51.085,
      "duration": 0.017,
      "velocity": 94,
      "chip": "ym2612"
    },
    {
      "channel": 2,
      "note": 57,
      "start": 51.0861,
      "duration": 0.0173,
      "velocity": 100,
      "chip": "ym2612"
    },
    {
      "channel": 1,
      "note": 69,
      "start": 51.0985,
      "duration": 0.0161,
      "velocity": 124,
      "chip": "ym2612"
    },
    {
      "channel": 4,
      "note": 76,
      "start": 51.1007,
      "duration": 0.0155,
      "velocity": 94,
      "chip": "ym2612"
    },
    {
      "channel": 3,
      "note": 81,
      "start": 51.102,
      "duration": 0.0153,
      "velocity": 94,
      "chip": "ym2612"
    },
    {
      "channel": 2,
      "note": 57,
      "start": 51.1034,
      "duration": 0.0151,
      "velocity": 100,
      "chip": "ym2612"
    },
    {
      "channel": 1,
      "note": 68,
      "start": 51.1146,
      "duration": 0.0161,
      "velocity": 124,
      "chip": "ym2612"
    },
    {
      "channel": 4,
      "note": 76,
      "start": 51.1161,
      "duration": 0.016,
      "velocity": 94,
      "chip": "ym2612"
    },
    {
      "channel": 3,
      "note": 81,
      "start": 51.1173,
      "duration": 0.016,
      "velocity": 94,
      "chip": "ym2612"
    },
    {
      "channel": 2,
      "note": 57,
      "start": 51.1185,
      "duration": 0.0159,
      "velocity": 100,
      "chip": "ym2612"
    },
    {
      "channel": 1,
      "note": 66,
      "start": 51.1308,
      "duration": 0.016,
      "velocity": 124,
      "chip": "ym2612"
    },
    {
      "channel": 4,
      "note": 76,
      "start": 51.1322,
      "duration": 0.016,
      "velocity": 94,
      "chip": "ym2612"
    },
    {
      "channel": 3,
      "note": 81,
      "start": 51.1333,
      "duration": 0.016,
      "velocity": 94,
      "chip": "ym2612"
    },
    {
      "channel": 2,
      "note": 57,
      "start": 51.1344,
      "duration": 0.0161,
      "velocity": 100,
      "chip": "ym2612"
    },
    {
      "channel": 1,
      "note": 65,
      "start": 51.1468,
      "duration": 0.0177,
      "velocity": 124,
      "chip": "ym2612"
    },
    {
      "channel": 4,
      "note": 76,
      "start": 51.1482,
      "duration": 0.0176,
      "velocity": 94,
      "chip": "ym2612"
    },
    {
      "channel": 3,
      "note": 81,
      "start": 51.1493,
      "duration": 0.0176,
      "velocity": 94,
      "chip": "ym2612"
    },
    {
      "channel": 2,
      "note": 57,
      "start": 51.1505,
      "duration": 0.0176,
      "velocity": 100,
      "chip": "ym2612"
    },
    {
      "channel": 1,
      "note": 64,
      "start": 51.1645,
      "duration": 0.0166,
      "velocity": 124,
      "chip": "ym2612"
    },
    {
      "channel": 4,
      "note": 76,
      "start": 51.1658,
      "duration": 0.0167,
      "velocity": 94,
      "chip": "ym2612"
    },
    {
      "channel": 3,
      "note": 81,
      "start": 51.167,
      "duration": 0.0167,
      "velocity": 94,
      "chip": "ym2612"
    },
    {
      "channel": 2,
      "note": 57,
      "start": 51.1681,
      "duration": 0.0167,
      "velocity": 100,
      "chip": "ym2612"
    },
    {
      "channel": 1,
      "note": 62,
      "start": 51.1811,
      "duration": 0.0163,
      "velocity": 124,
      "chip": "ym2612"
    },
    {
      "channel": 4,
      "note": 76,
      "start": 51.1825,
      "duration": 0.0163,
      "velocity": 94,
      "chip": "ym2612"
    },
    {
      "channel": 3,
      "note": 81,
      "start": 51.1836,
      "duration": 0.0163,
      "velocity": 94,
      "chip": "ym2612"
    },
    {
      "channel": 2,
      "note": 57,
      "start": 51.1848,
      "duration": 0.0163,
      "velocity": 100,
      "chip": "ym2612"
    },
    {
      "channel": 1,
      "note": 61,
      "start": 51.1974,
      "duration": 0.0141,
      "velocity": 124,
      "chip": "ym2612"
    },
    {
      "channel": 4,
      "note": 76,
      "start": 51.1988,
      "duration": 0.0148,
      "velocity": 94,
      "chip": "ym2612"
    },
    {
      "channel": 3,
      "note": 81,
      "start": 51.2,
      "duration": 0.015,
      "velocity": 94,
      "chip": "ym2612"
    },
    {
      "channel": 2,
      "note": 57,
      "start": 51.2011,
      "duration": 0.0153,
      "velocity": 100,
      "chip": "ym2612"
    },
    {
      "channel": 1,
      "note": 60,
      "start": 51.2116,
      "duration": 0.0185,
      "velocity": 124,
      "chip": "ym2612"
    },
    {
      "channel": 4,
      "note": 76,
      "start": 51.2136,
      "duration": 0.018,
      "velocity": 94,
      "chip": "ym2612"
    },
    {
      "channel": 3,
      "note": 76,
      "start": 51.215,
      "duration": 0.0178,
      "velocity": 94,
      "chip": "ym2612"
    },
    {
      "channel": 2,
      "note": 57,
      "start": 51.2165,
      "duration": 0.0175,
      "velocity": 100,
      "chip": "ym2612"
    },
    {
      "channel": 1,
      "note": 59,
      "start": 51.2301,
      "duration": 0.0161,
      "velocity": 124,
      "chip": "ym2612"
    },
    {
      "channel": 4,
      "note": 76,
      "start": 51.2316,
      "duration": 0.016,
      "velocity": 94,
      "chip": "ym2612"
    },
    {
      "channel": 3,
      "note": 76,
      "start": 51.2328,
      "duration": 0.0159,
      "velocity": 94,
      "chip": "ym2612"
    },
    {
      "channel": 2,
      "note": 57,
      "start": 51.2339,
      "duration": 0.0159,
      "velocity": 100,
      "chip": "ym2612"
    },
    {
      "channel": 1,
      "note": 57,
      "start": 51.2462,
      "duration": 0.0134,
      "velocity": 124,
      "chip": "ym2612"
    },
    {
      "channel": 4,
      "note": 76,
      "start": 51.2476,
      "duration": 0.0157,
      "velocity": 94,
      "chip": "ym2612"
    },
    {
      "channel": 3,
      "note": 76,
      "start": 51.2487,
      "duration": 0.0157,
      "velocity": 94,
      "chip": "ym2612"
    },
    {
      "channel": 2,
      "note": 57,
      "start": 51.2499,
      "duration": 0.0157,
      "velocity": 100,
      "chip": "ym2612"
    },
    {
      "channel": 1,
      "note": 56,
      "start": 51.2595,
      "duration": 0.0161,
      "velocity": 124,
      "chip": "ym2612"
    },
    {
      "channel": 4,
      "note": 76,
      "start": 51.2633,
      "duration": 0.0141,
      "velocity": 94,
      "chip": "ym2612"
    },
    {
      "channel": 3,
      "note": 76,
      "start": 51.2644,
      "duration": 0.0141,
      "velocity": 94,
      "chip": "ym2612"
    },
    {
      "channel": 2,
      "note": 57,
      "start": 51.2656,
      "duration": 0.0141,
      "velocity": 100,
      "chip": "ym2612"
    },
    {
      "channel": 1,
      "note": 55,
      "start": 51.2756,
      "duration": 0.0161,
      "velocity": 124,
      "chip": "ym2612"
    },
    {
      "channel": 4,
      "note": 76,
      "start": 51.2773,
      "duration": 0.0158,
      "velocity": 94,
      "chip": "ym2612"
    },
    {
      "channel": 3,
      "note": 76,
      "start": 51.2785,
      "duration": 0.0185,
      "velocity": 94,
      "chip": "ym2612"
    },
    {
      "channel": 2,
      "note": 57,
      "start": 51.2796,
      "duration": 0.0185,
      "velocity": 100,
      "chip": "ym2612"
    },
    {
      "channel": 1,
      "note": 53,
      "start": 51.2917,
      "duration": 0.0161,
      "velocity": 124,
      "chip": "ym2612"
    },
    {
      "channel": 4,
      "note": 76,
      "start": 51.2931,
      "duration": 0.0161,
      "velocity": 94,
      "chip": "ym2612"
    },
    {
      "channel": 3,
      "note": 76,
      "start": 51.297,
      "duration": 0.0161,
      "velocity": 94,
      "chip": "ym2612"
    },
    {
      "channel": 2,
      "note": 57,
      "start": 51.2981,
      "duration": 0.0161,
      "velocity": 100,
      "chip": "ym2612"
    },
    {
      "channel": 1,
      "note": 52,
      "start": 51.3078,
      "duration": 0.0161,
      "velocity": 124,
      "chip": "ym2612"
    },
    {
      "channel": 4,
      "note": 76,
      "start": 51.3092,
      "duration": 0.0227,
      "velocity": 94,
      "chip": "ym2612"
    },
    {
      "channel": 3,
      "note": 76,
      "start": 51.3131,
      "duration": 0.0201,
      "velocity": 94,
      "chip": "ym2612"
    },
    {
      "channel": 2,
      "note": 57,
      "start": 51.3142,
      "duration": 0.0204,
      "velocity": 100,
      "chip": "ym2612"
    },
    {
      "channel": 1,
      "note": 51,
      "start": 51.3239,
      "duration": 0.0153,
      "velocity": 1,
      "chip": "ym2612"
    },
    {
      "channel": 0,
      "note": 36,
      "start": 51.3305,
      "duration": 0.0126,
      "velocity": 115,
      "chip": "ym2612"
    },
    {
      "channel": 4,
      "note": 76,
      "start": 51.3319,
      "duration": 0.0128,
      "velocity": 94,
      "chip": "ym2612"
    },
    {
      "channel": 3,
      "note": 76,
      "start": 51.3332,
      "duration": 0.0127,
      "velocity": 94,
      "chip": "ym2612"
    },
    {
      "channel": 2,
      "note": 57,
      "start": 51.3346,
      "duration": 0.0124,
      "velocity": 100,
      "chip": "ym2612"
    },
    {
      "channel": 1,
      "note": 51,
      "start": 51.3414,
      "duration": 0.0142,
      "velocity": 105,
      "chip": "ym2612"
    },
    {
      "channel": 0,
      "note": 36,
      "start": 51.3431,
      "duration": 0.0142,
      "velocity": 115,
      "chip": "ym2612"
    },
    {
      "channel": 4,
      "note": 76,
      "start": 51.3447,
      "duration": 0.0137,
      "velocity": 94,
      "chip": "ym2612"
    },
    {
      "channel": 3,
      "note": 76,
      "start": 51.3459,
      "duration": 0.0137,
      "velocity": 94,
      "chip": "ym2612"
    },
    {
      "channel": 2,
      "note": 57,
      "start": 51.3471,
      "duration": 0.0164,
      "velocity": 100,
      "chip": "ym2612"
    },
    {
      "channel": 1,
      "note": 105,
      "start": 51.3556,
      "duration": 0.0161,
      "velocity": 105,
      "chip": "ym2612"
    },
    {
      "channel": 0,
      "note": 37,
      "start": 51.3573,
      "duration": 0.0161,
      "velocity": 115,
      "chip": "ym2612"
    },
    {
      "channel": 4,
      "note": 76,
      "start": 51.3585,
      "duration": 0.0161,
      "velocity": 94,
      "chip": "ym2612"
    },
    {
      "channel": 3,
      "note": 76,
      "start": 51.3596,
      "duration": 0.0161,
      "velocity": 94,
      "chip": "ym2612"
    },
    {
      "channel": 2,
      "note": 57,
      "start": 51.3635,
      "duration": 0.0161,
      "velocity": 100,
      "chip": "ym2612"
    },
    {
      "channel": 1,
      "note": 105,
      "start": 51.3717,
      "duration": 0.0161,
      "velocity": 105,
      "chip": "ym2612"
    },
    {
      "channel": 0,
      "note": 37,
      "start": 51.3734,
      "duration": 0.0161,
      "velocity": 115,
      "chip": "ym2612"
    },
    {
      "channel": 4,
      "note": 76,
      "start": 51.3746,
      "duration": 0.0161,
      "velocity": 94,
      "chip": "ym2612"
    },
    {
      "channel": 3,
      "note": 76,
      "start": 51.3757,
      "duration": 0.0161,
      "velocity": 94,
      "chip": "ym2612"
    },
    {
      "channel": 2,
      "note": 57,
      "start": 51.3796,
      "duration": 0.0134,
      "velocity": 100,
      "chip": "ym2612"
    },
    {
      "channel": 1,
      "note": 105,
      "start": 51.3878,
      "duration": 0.0161,
      "velocity": 105,
      "chip": "ym2612"
    },
    {
      "channel": 0,
      "note": 38,
      "start": 51.3895,
      "duration": 0.0161,
      "velocity": 115,
      "chip": "ym2612"
    },
    {
      "channel": 4,
      "note": 76,
      "start": 51.3907,
      "duration": 0.0161,
      "velocity": 94,
      "chip": "ym2612"
    },
    {
      "channel": 3,
      "note": 76,
      "start": 51.3918,
      "duration": 0.0161,
      "velocity": 94,
      "chip": "ym2612"
    },
    {
      "channel": 2,
      "note": 57,
      "start": 51.3929,
      "duration": 0.0161,
      "velocity": 100,
      "chip": "ym2612"
    },
    {
      "channel": 1,
      "note": 105,
      "start": 51.4039,
      "duration": 0.0161,
      "velocity": 105,
      "chip": "ym2612"
    },
    {
      "channel": 0,
      "note": 38,
      "start": 51.4056,
      "duration": 0.0161,
      "velocity": 115,
      "chip": "ym2612"
    },
    {
      "channel": 4,
      "note": 76,
      "start": 51.4068,
      "duration": 0.0161,
      "velocity": 94,
      "chip": "ym2612"
    },
    {
      "channel": 3,
      "note": 76,
      "start": 51.4079,
      "duration": 0.0161,
      "velocity": 94,
      "chip": "ym2612"
    },
    {
      "channel": 2,
      "note": 57,
      "start": 51.409,
      "duration": 0.0161,
      "velocity": 100,
      "chip": "ym2612"
    },
    {
      "channel": 1,
      "note": 105,
      "start": 51.42,
      "duration": 0.0178,
      "velocity": 124,
      "chip": "ym2612"
    },
    {
      "channel": 0,
      "note": 39,
      "start": 51.4217,
      "duration": 0.0197,
      "velocity": 115,
      "chip": "ym2612"
    },
    {
      "channel": 4,
      "note": 76,
      "start": 51.4229,
      "duration": 0.0199,
      "velocity": 94,
      "chip": "ym2612"
    },
    {
      "channel": 3,
      "note": 76,
      "start": 51.424,
      "duration": 0.0228,
      "velocity": 94,
      "chip": "ym2612"
    },
    {
      "channel": 2,
      "note": 57,
      "start": 51.4251,
      "duration": 0.0232,
      "velocity": 100,
      "chip": "ym2612"
    },
    {
      "channel": 1,
      "note": 64,
      "start": 51.4379,
      "duration": 0.0148,
      "velocity": 124,
      "chip": "ym2612"
    },
    {
      "channel": 0,
      "note": 36,
      "start": 51.4413,
      "duration": 0.0132,
      "velocity": 115,
      "chip": "ym2612"
    },
    {
      "channel": 4,
      "note": 81,
      "start": 51.4428,
      "duration": 0.0129,
      "velocity": 94,
      "chip": "ym2612"
    },
    {
      "channel": 3,
      "note": 76,
      "start": 51.4469,
      "duration": 0.01,
      "velocity": 94,
      "chip": "ym2612"
    },
    {
      "channel": 2,
      "note": 57,
      "start": 51.4484,
      "duration": 0.0097,
      "velocity": 100,
      "chip": "ym2612"
    },
    {
      "channel": 1,
      "note": 64,
      "start": 51.4527,
      "duration": 0.0156,
      "velocity": 124,
      "chip": "ym2612"
    },
    {
      "channel": 0,
      "note": 36,
      "start": 51.4545,
      "duration": 0.0155,
      "velocity": 115,
      "chip": "ym2612"
    },
    {
      "channel": 4,
      "note": 81,
      "start": 51.4557,
      "duration": 0.0155,
      "velocity": 94,
      "chip": "ym2612"
    },
    {
      "channel": 3,
      "note": 76,
      "start": 51.4569,
      "duration": 0.0154,
      "velocity": 94,
      "chip": "ym2612"
    },
    {
      "channel": 2,
      "note": 57,
      "start": 51.4581,
      "duration": 0.0154,
      "velocity": 100,
      "chip": "ym2612"
    },
    {
      "channel": 1,
      "note": 64,
      "start": 51.4684,
      "duration": 0.0161,
      "velocity": 124,
      "chip": "ym2612"
    },
    {
      "channel": 0,
      "note": 37,
      "start": 51.47,
      "duration": 0.0161,
      "velocity": 115,
      "chip": "ym2612"
    },
    {
      "channel": 4,
      "note": 81,
      "start": 51.4712,
      "duration": 0.0161,
      "velocity": 94,
      "chip": "ym2612"
    },
    {
      "channel": 3,
      "note": 76,
      "start": 51.4723,
      "duration": 0.0161,
      "velocity": 94,
      "chip": "ym2612"
    },
    {
      "channel": 2,
      "note": 57,
      "start": 51.4735,
      "duration": 0.0161,
      "velocity": 100,
      "chip": "ym2612"
    },
    {
      "channel": 1,
      "note": 64,
      "start": 51.4845,
      "duration": 0.0161,
      "velocity": 124,
      "chip": "ym2612"
    },
    {
      "channel": 0,
      "note": 37,
      "start": 51.4861,
      "duration": 0.0161,
      "velocity": 115,
      "chip": "ym2612"
    },
    {
      "channel": 4,
      "note": 81,
      "start": 51.4873,
      "duration": 0.0161,
      "velocity": 94,
      "chip": "ym2612"
    },
    {
      "channel": 3,
      "note": 76,
      "start": 51.4884,
      "duration": 0.0161,
      "velocity": 94,
      "chip": "ym2612"
    },
    {
      "channel": 2,
      "note": 57,
      "start": 51.4895,
      "duration": 0.0161,
      "velocity": 100,
      "chip": "ym2612"
    },
    {
      "channel": 1,
      "note": 64,
      "start": 51.5006,
      "duration": 0.0161,
      "velocity": 124,
      "chip": "ym2612"
    },
    {
      "channel": 0,
      "note": 38,
      "start": 51.5022,
      "duration": 0.0161,
      "velocity": 115,
      "chip": "ym2612"
    },
    {
      "channel": 4,
      "note": 81,
      "start": 51.5034,
      "duration": 0.0162,
      "velocity": 94,
      "chip": "ym2612"
    },
    {
      "channel": 3,
      "note": 76,
      "start": 51.5045,
      "duration": 0.0161,
      "velocity": 94,
      "chip": "ym2612"
    },
    {
      "channel": 2,
      "note": 57,
      "start": 51.5056,
      "duration": 0.0161,
      "velocity": 100,
      "chip": "ym2612"
    },
    {
      "channel": 1,
      "note": 64,
      "start": 51.5166,
      "duration": 0.0161,
      "velocity": 124,
      "chip": "ym2612"
    },
    {
      "channel": 0,
      "note": 38,
      "start": 51.5183,
      "duration": 0.0161,
      "velocity": 115,
      "chip": "ym2612"
    },
    {
      "channel": 4,
      "note": 81,
      "start": 51.5195,
      "duration": 0.0161,
      "velocity": 94,
      "chip": "ym2612"
    },
    {
      "channel": 3,
      "note": 76,
      "start": 51.5207,
      "duration": 0.0161,
      "velocity": 94,
      "chip": "ym2612"
    },
    {
      "channel": 2,
      "note": 57,
      "start": 51.5217,
      "duration": 0.0161,
      "velocity": 100,
      "chip": "ym2612"
    },
    {
      "channel": 1,
      "note": 64,
      "start": 51.5327,
      "duration": 0.0178,
      "velocity": 105,
      "chip": "ym2612"
    },
    {
      "channel": 0,
      "note": 39,
      "start": 51.5344,
      "duration": 0.0178,
      "velocity": 115,
      "chip": "ym2612"
    },
    {
      "channel": 4,
      "note": 81,
      "start": 51.5356,
      "duration": 0.0179,
      "velocity": 94,
      "chip": "ym2612"
    },
    {
      "channel": 3,
      "note": 76,
      "start": 51.5368,
      "duration": 0.0181,
      "velocity": 94,
      "chip": "ym2612"
    },
    {
      "channel": 2,
      "note": 57,
      "start": 51.5378,
      "duration": 0.0185,
      "velocity": 100,
      "chip": "ym2612"
    },
    {
      "channel": 1,
      "note": 105,
      "start": 51.5506,
      "duration": 0.0144,
      "velocity": 105,
      "chip": "ym2612"
    },
    {
      "channel": 0,
      "note": 39,
      "start": 51.5522,
      "duration": 0.0144,
      "velocity": 115,
      "chip": "ym2612"
    },
    {
      "channel": 4,
      "note": 81,
      "start": 51.5535,
      "duration": 0.0143,
      "velocity": 94,
      "chip": "ym2612"
    },
    {
      "channel": 3,
      "note": 81,
      "start": 51.5549,
      "duration": 0.0141,
      "velocity": 94,
      "chip": "ym2612"
    },
    {
      "channel": 2,
      "note": 57,
      "start": 51.5563,
      "duration": 0.0139,
      "velocity": 100,
      "chip": "ym2612"
    },
    {
      "channel": 1,
      "note": 105,
      "start": 51.565,
      "duration": 0.016,
      "velocity": 105,
      "chip": "ym2612"
    },
    {
      "channel": 0,
      "note": 40,
      "start": 51.5666,
      "duration": 0.016,
      "velocity": 115,
      "chip": "ym2612"
    },
    {
      "channel": 4,
      "note": 81,
      "start": 51.5679,
      "duration": 0.016,
      "velocity": 94,
      "chip": "ym2612"
    },
    {
      "channel": 3,
      "note": 81,
      "start": 51.5691,
      "duration": 0.016,
      "velocity": 94,
      "chip": "ym2612"
    },
    {
      "channel": 2,
      "note": 57,
      "start": 51.5703,
      "duration": 0.0159,
      "velocity": 100,
      "chip": "ym2612"
    },
    {
      "channel": 1,
      "note": 105,
      "start": 51.581,
      "duration": 0.0162,
      "velocity": 105,
      "chip": "ym2612"
    },
    {
      "channel": 0,
      "note": 40,
      "start": 51.5827,
      "duration": 0.0162,
      "velocity": 115,
      "chip": "ym2612"
    },
    {
      "channel": 4,
      "note": 81,
      "start": 51.5839,
      "duration": 0.0161,
      "velocity": 94,
      "chip": "ym2612"
    },
    {
      "channel": 3,
      "note": 81,
      "start": 51.585,
      "duration": 0.0161,
      "velocity": 94,
      "chip": "ym2612"
    },
    {
      "channel": 2,
      "note": 57,
      "start": 51.5861,
      "duration": 0.0161,
      "velocity": 100,
      "chip": "ym2612"
    },
    {
      "channel": 1,
      "note": 105,
      "start": 51.5972,
      "duration": 0.0161,
      "velocity": 105,
      "chip": "ym2612"
    },
    {
      "channel": 0,
      "note": 40,
      "start": 51.5988,
      "duration": 0.0161,
      "velocity": 115,
      "chip": "ym2612"
    },
    {
      "channel": 4,
      "note": 81,
      "start": 51.6,
      "duration": 0.0161,
      "velocity": 94,
      "chip": "ym2612"
    },
    {
      "channel": 3,
      "note": 81,
      "start": 51.6011,
      "duration": 0.0161,
      "velocity": 94,
      "chip": "ym2612"
    },
    {
      "channel": 2,
      "note": 57,
      "start": 51.6023,
      "duration": 0.0161,
      "velocity": 100,
      "chip": "ym2612"
    },
    {
      "channel": 1,
      "note": 105,
      "start": 51.6133,
      "duration": 0.0174,
      "velocity": 105,
      "chip": "ym2612"
    },
    {
      "channel": 0,
      "note": 41,
      "start": 51.6149,
      "duration": 0.0174,
      "velocity": 115,
      "chip": "ym2612"
    },
    {
      "channel": 4,
      "note": 81,
      "start": 51.6161,
      "duration": 0.0174,
      "velocity": 94,
      "chip": "ym2612"
    },
    {
      "channel": 3,
      "note": 81,
      "start": 51.6172,
      "duration": 0.0174,
      "velocity": 94,
      "chip": "ym2612"
    },
    {
      "channel": 2,
      "note": 57,
      "start": 51.6184,
      "duration": 0.0174,
      "velocity": 100,
      "chip": "ym2612"
    },
    {
      "channel": 1,
      "note": 105,
      "start": 51.6307,
      "duration": 0.0167,
      "velocity": 105,
      "chip": "ym2612"
    },
    {
      "channel": 0,
      "note": 41,
      "start": 51.6323,
      "duration": 0.0167,
      "velocity": 115,
      "chip": "ym2612"
    },
    {
      "channel": 4,
      "note": 81,
      "start": 51.6334,
      "duration": 0.0167,
      "velocity": 94,
      "chip": "ym2612"
    },
    {
      "channel": 3,
      "note": 81,
      "start": 51.6346,
      "duration": 0.0167,
      "velocity": 94,
      "chip": "ym2612"
    },
    {
      "channel": 2,
      "note": 57,
      "start": 51.6357,
      "duration": 0.0167,
      "velocity": 100,
      "chip": "ym2612"
    },
    {
      "channel": 1,
      "note": 105,
      "start": 51.6473,
      "duration": 0.018,
      "velocity": 124,
      "chip": "ym2612"
    },
    {
      "channel": 0,
      "note": 42,
      "start": 51.649,
      "duration": 0.018,
      "velocity": 115,
      "chip": "ym2612"
    },
    {
      "channel": 4,
      "note": 81,
      "start": 51.6501,
      "duration": 0.0183,
      "velocity": 94,
      "chip": "ym2612"
    },
    {
      "channel": 3,
      "note": 81,
      "start": 51.6513,
      "duration": 0.0184,
      "velocity": 94,
      "chip": "ym2612"
    },
    {
      "channel": 2,
      "note": 57,
      "start": 51.6524,
      "duration": 0.0187,
      "velocity": 100,
      "chip": "ym2612"
    },
    {
      "channel": 1,
      "note": 64,
      "start": 51.6653,
      "duration": 0.0127,
      "velocity": 124,
      "chip": "ym2612"
    },
    {
      "channel": 0,
      "note": 42,
      "start": 51.667,
      "duration": 0.0127,
      "velocity": 115,
      "chip": "ym2612"
    },
    {
      "channel": 4,
      "note": 81,
      "start": 51.6684,
      "duration": 0.0125,
      "velocity": 94,
      "chip": "ym2612"
    },
    {
      "channel": 3,
      "note": 81,
      "start": 51.6697,
      "duration": 0.0125,
      "velocity": 94,
      "chip": "ym2612"
    },
    {
      "channel": 2,
      "note": 57,
      "start": 51.6712,
      "duration": 0.0121,
      "velocity": 100,
      "chip": "ym2612"
    },
    {
      "channel": 1,
      "note": 64,
      "start": 51.678,
      "duration": 0.0184,
      "velocity": 124,
      "chip": "ym2612"
    },
    {
      "channel": 0,
      "note": 43,
      "start": 51.6798,
      "duration": 0.0185,
      "velocity": 115,
      "chip": "ym2612"
    },
    {
      "channel": 4,
      "note": 81,
      "start": 51.681,
      "duration": 0.0184,
      "velocity": 94,
      "chip": "ym2612"
    },
    {
      "channel": 3,
      "note": 81,
      "start": 51.6822,
      "duration": 0.0183,
      "velocity": 94,
      "chip": "ym2612"
    },
    {
      "channel": 2,
      "note": 57,
      "start": 51.6833,
      "duration": 0.0183,
      "velocity": 100,
      "chip": "ym2612"
    },
    {
      "channel": 1,
      "note": 64,
      "start": 51.6965,
      "duration": 0.0161,
      "velocity": 124,
      "chip": "ym2612"
    },
    {
      "channel": 0,
      "note": 43,
      "start": 51.6982,
      "duration": 0.0161,
      "velocity": 115,
      "chip": "ym2612"
    },
    {
      "channel": 4,
      "note": 81,
      "start": 51.6993,
      "duration": 0.0161,
      "velocity": 94,
      "chip": "ym2612"
    },
    {
      "channel": 3,
      "note": 81,
      "start": 51.7005,
      "duration": 0.0161,
      "velocity": 94,
      "chip": "ym2612"
    },
    {
      "channel": 2,
      "note": 57,
      "start": 51.7016,
      "duration": 0.0161,
      "velocity": 100,
      "chip": "ym2612"
    },
    {
      "channel": 1,
      "note": 64,
      "start": 51.7126,
      "duration": 0.0134,
      "velocity": 124,
      "chip": "ym2612"
    },
    {
      "channel": 0,
      "note": 44,
      "start": 51.7143,
      "duration": 0.0157,
      "velocity": 115,
      "chip": "ym2612"
    },
    {
      "channel": 4,
      "note": 81,
      "start": 51.7154,
      "duration": 0.0158,
      "velocity": 94,
      "chip": "ym2612"
    },
    {
      "channel": 3,
      "note": 81,
      "start": 51.7166,
      "duration": 0.0158,
      "velocity": 94,
      "chip": "ym2612"
    },
    {
      "channel": 2,
      "note": 57,
      "start": 51.7177,
      "duration": 0.0157,
      "velocity": 100,
      "chip": "ym2612"
    },
    {
      "channel": 1,
      "note": 64,
      "start": 51.7259,
      "duration": 0.0161,
      "velocity": 124,
      "chip": "ym2612"
    },
    {
      "channel": 0,
      "note": 44,
      "start": 51.73,
      "duration": 0.0141,
      "velocity": 115,
      "chip": "ym2612"
    },
    {
      "channel": 4,
      "note": 81,
      "start": 51.7312,
      "duration": 0.014,
      "velocity": 94,
      "chip": "ym2612"
    },
    {
      "channel": 3,
      "note": 81,
      "start": 51.7324,
      "duration": 0.014,
      "velocity": 94,
      "chip": "ym2612"
    },
    {
      "channel": 2,
      "note": 57,
      "start": 51.7334,
      "duration": 0.0141,
      "velocity": 100,
      "chip": "ym2612"
    },
    {
      "channel": 1,
      "note": 64,
      "start": 51.742,
      "duration": 0.0161,
      "velocity": 124,
      "chip": "ym2612"
    },
    {
      "channel": 0,
      "note": 44,
      "start": 51.7441,
      "duration": 0.0185,
      "velocity": 115,
      "chip": "ym2612"
    },
    {
      "channel": 4,
      "note": 81,
      "start": 51.7452,
      "duration": 0.0186,
      "velocity": 94,
      "chip": "ym2612"
    },
    {
      "channel": 3,
      "note": 81,
      "start": 51.7463,
      "duration": 0.0186,
      "velocity": 94,
      "chip": "ym2612"
    },
    {
      "channel": 2,
      "note": 57,
      "start": 51.7475,
      "duration": 0.0185,
      "velocity": 100,
      "chip": "ym2612"
    },
    {
      "channel": 1,
      "note": 64,
      "start": 51.7582,
      "duration": 0.0178,
      "velocity": 105,
      "chip": "ym2612"
    },
    {
      "channel": 0,
      "note": 45,
      "start": 51.7626,
      "duration": 0.0178,
      "velocity": 115,
      "chip": "ym2612"
    },
    {
      "channel": 4,
      "note": 81,
      "start": 51.7638,
      "duration": 0.018,
      "velocity": 94,
      "chip": "ym2612"
    },
    {
      "channel": 3,
      "note": 81,
      "start": 51.7649,
      "duration": 0.0183,
      "velocity": 94,
      "chip": "ym2612"
    },
    {
      "channel": 2,
      "note": 57,
      "start": 51.766,
      "duration": 0.0186,
      "velocity": 100,
      "chip": "ym2612"
    },
    {
      "channel": 1,
      "note": 105,
      "start": 51.776,
      "duration": 0.0144,
      "velocity": 105,
      "chip": "ym2612"
    },
    {
      "channel": 0,
      "note": 45,
      "start": 51.7804,
      "duration": 0.0117,
      "velocity": 115,
      "chip": "ym2612"
    },
    {
      "channel": 4,
      "note": 81,
      "start": 51.7819,
      "duration": 0.0138,
      "velocity": 94,
      "chip": "ym2612"
    },
    {
      "channel": 3,
      "note": 81,
      "start": 51.7833,
      "duration": 0.0136,
      "velocity": 94,
      "chip": "ym2612"
    },
    {
      "channel": 2,
      "note": 57,
      "start": 51.7846,
      "duration": 0.0134,
      "velocity": 100,
      "chip": "ym2612"
    },
    {
      "channel": 1,
      "note": 105,
      "start": 51.7904,
      "duration": 0.0161,
      "velocity": 105,
      "chip": "ym2612"
    },
    {
      "channel": 0,
      "note": 46,
      "start": 51.7921,
      "duration": 0.016,
      "velocity": 115,
      "chip": "ym2612"
    },
    {
      "channel": 4,
      "note": 81,
      "start": 51.7957,
      "duration": 0.0136,
      "velocity": 94,
      "chip": "ym2612"
    },
    {
      "channel": 3,
      "note": 81,
      "start": 51.7969,
      "duration": 0.0139,
      "velocity": 94,
      "chip": "ym2612"
    },
    {
      "channel": 2,
      "note": 57,
      "start": 51.7981,
      "duration": 0.0138,
      "velocity": 100,
      "chip": "ym2612"
    },
    {
      "channel": 1,
      "note": 105,
      "start": 51.8065,
      "duration": 0.0161,
      "velocity": 105,
      "chip": "ym2612"
    },
    {
      "channel": 0,
      "note": 46,
      "start": 51.8081,
      "duration": 0.0161,
      "velocity": 115,
      "chip": "ym2612"
    },
    {
      "channel": 4,
      "note": 81,
      "start": 51.8093,
      "duration": 0.0161,
      "velocity": 94,
      "chip": "ym2612"
    },
    {
      "channel": 3,
      "note": 81,
      "start": 51.8107,
      "duration": 0.0186,
      "velocity": 94,
      "chip": "ym2612"
    },
    {
      "channel": 2,
      "note": 57,
      "start": 51.8119,
      "duration": 0.0185,
      "velocity": 100,
      "chip": "ym2612"
    },
    {
      "channel": 1,
      "note": 105,
      "start": 51.8226,
      "duration": 0.0161,
      "velocity": 105,
      "chip": "ym2612"
    },
    {
      "channel": 0,
      "note": 47,
      "start": 51.8242,
      "duration": 0.0161,
      "velocity": 115,
      "chip": "ym2612"
    },
    {
      "channel": 4,
      "note": 81,
      "start": 51.8254,
      "duration": 0.0161,
      "velocity": 94,
      "chip": "ym2612"
    },
    {
      "channel": 3,
      "note": 81,
      "start": 51.8293,
      "duration": 0.0134,
      "velocity": 94,
      "chip": "ym2612"
    },
    {
      "channel": 2,
      "note": 57,
      "start": 51.8304,
      "duration": 0.0162,
      "velocity": 100,
      "chip": "ym2612"
    },
    {
      "channel": 1,
      "note": 105,
      "start": 51.8387,
      "duration": 0.0161,
      "velocity": 105,
      "chip": "ym2612"
    },
    {
      "channel": 0,
      "note": 47,
      "start": 51.8403,
      "duration": 0.0161,
      "velocity": 115,
      "chip": "ym2612"
    },
    {
      "channel": 4,
      "note": 81,
      "start": 51.8415,
      "duration": 0.0161,
      "velocity": 94,
      "chip": "ym2612"
    },
    {
      "channel": 3,
      "note": 81,
      "start": 51.8427,
      "duration": 0.0161,
      "velocity": 94,
      "chip": "ym2612"
    },
    {
      "channel": 2,
      "note": 57,
      "start": 51.8466,
      "duration": 0.0157,
      "velocity": 100,
      "chip": "ym2612"
    },
    {
      "channel": 1,
      "note": 105,
      "start": 51.8548,
      "duration": 0.0161,
      "velocity": 105,
      "chip": "ym2612"
    },
    {
      "channel": 0,
      "note": 47,
      "start": 51.8564,
      "duration": 0.0161,
      "velocity": 115,
      "chip": "ym2612"
    },
    {
      "channel": 4,
      "note": 81,
      "start": 51.8576,
      "duration": 0.0161,
      "velocity": 94,
      "chip": "ym2612"
    },
    {
      "channel": 3,
      "note": 81,
      "start": 51.8588,
      "duration": 0.0161,
      "velocity": 94,
      "chip": "ym2612"
    },
    {
      "channel": 2,
      "note": 57,
      "start": 51.8623,
      "duration": 0.0137,
      "velocity": 100,
      "chip": "ym2612"
    },
    {
      "channel": 1,
      "note": 105,
      "start": 51.8709,
      "duration": 0.0184,
      "velocity": 124,
      "chip": "ym2612"
    },
    {
      "channel": 0,
      "note": 48,
      "start": 51.8725,
      "duration": 0.0192,
      "velocity": 115,
      "chip": "ym2612"
    },
    {
      "channel": 4,
      "note": 81,
      "start": 51.8737,
      "duration": 0.0192,
      "velocity": 94,
      "chip": "ym2612"
    },
    {
      "channel": 3,
      "note": 81,
      "start": 51.8749,
      "duration": 0.0222,
      "velocity": 94,
      "chip": "ym2612"
    },
    {
      "channel": 2,
      "note": 57,
      "start": 51.8759,
      "duration": 0.0225,
      "velocity": 100,
      "chip": "ym2612"
    },
    {
      "channel": 1,
      "note": 78,
      "start": 51.8892,
      "duration": 0.0144,
      "velocity": 124,
      "chip": "ym2612"
    },
    {
      "channel": 0,
      "note": 48,
      "start": 51.8917,
      "duration": 0.0139,
      "velocity": 115,
      "chip": "ym2612"
    },
    {
      "channel": 4,
      "note": 81,
      "start": 51.8929,
      "duration": 0.0139,
      "velocity": 94,
      "chip": "ym2612"
    },
    {
      "channel": 3,
      "note": 81,
      "start": 51.8971,
      "duration": 0.0109,
      "velocity": 94,
      "chip": "ym2612"
    },
    {
      "channel": 2,
      "note": 57,
      "start": 51.8985,
      "duration": 0.0106,
      "velocity": 100,
      "chip": "ym2612"
    },
    {
      "channel": 1,
      "note": 76,
      "start": 51.9036,
      "duration": 0.016,
      "velocity": 124,
      "chip": "ym2612"
    },
    {
      "channel": 0,
      "note": 49,
      "start": 51.9055,
      "duration": 0.0152,
      "velocity": 1,
      "chip": "ym2612"
    },
    {
      "channel": 4,
      "note": 81,
      "start": 51.9068,
      "duration": 0.0151,
      "velocity": 94,
      "chip": "ym2612"
    },
    {
      "channel": 3,
      "note": 81,
      "start": 51.9079,
      "duration": 0.0151,
      "velocity": 94,
      "chip": "ym2612"
    },
    {
      "channel": 2,
      "note": 57,
      "start": 51.9091,
      "duration": 0.015,
      "velocity": 100,
      "chip": "ym2612"
    },
    {
      "channel": 1,
      "note": 75,
      "start": 51.9196,
      "duration": 0.0162,
      "velocity": 124,
      "chip": "ym2612"
    },
    {
      "channel": 4,
      "note": 81,
      "start": 51.9219,
      "duration": 0.0153,
      "velocity": 94,
      "chip": "ym2612"
    },
    {
      "channel": 3,
      "note": 81,
      "start": 51.923,
      "duration": 0.0153,
      "velocity": 94,
      "chip": "ym2612"
    },
    {
      "channel": 2,
      "note": 57,
      "start": 51.9241,
      "duration": 0.0153,
      "velocity": 100,
      "chip": "ym2612"
    },
    {
      "channel": 1,
      "note": 74,
      "start": 51.9358,
      "duration": 0.0161,
      "velocity": 124,
      "chip": "ym2612"
    },
    {
      "channel": 4,
      "note": 81,
      "start": 51.9371,
      "duration": 0.0161,
      "velocity": 94,
      "chip": "ym2612"
    },
    {
      "channel": 3,
      "note": 81,
      "start": 51.9383,
      "duration": 0.0162,
      "velocity": 94,
      "chip": "ym2612"
    },
    {
      "channel": 2,
      "note": 57,
      "start": 51.9394,
      "duration": 0.0161,
      "velocity": 100,
      "chip": "ym2612"
    },
    {
      "channel": 1,
      "note": 72,
      "start": 51.9519,
      "duration": 0.0161,
      "velocity": 124,
      "chip": "ym2612"
    },
    {
      "channel": 4,
      "note": 81,
      "start": 51.9533,
      "duration": 0.0161,
      "velocity": 94,
      "chip": "ym2612"
    },
    {
      "channel": 3,
      "note": 81,
      "start": 51.9544,
      "duration": 0.0161,
      "velocity": 94,
      "chip": "ym2612"
    },
    {
      "channel": 2,
      "note": 57,
      "start": 51.9555,
      "duration": 0.0161,
      "velocity": 100,
      "chip": "ym2612"
    },
    {
      "channel": 1,
      "note": 71,
      "start": 51.968,
      "duration": 0.0161,
      "velocity": 124,
      "chip": "ym2612"
    },
    {
      "channel": 4,
      "note": 81,
      "start": 51.9694,
      "duration": 0.0161,
      "velocity": 94,
      "chip": "ym2612"
    },
    {
      "channel": 3,
      "note": 81,
      "start": 51.9705,
      "duration": 0.0161,
      "velocity": 94,
      "chip": "ym2612"
    },
    {
      "channel": 2,
      "note": 57,
      "start": 51.9716,
      "duration": 0.0162,
      "velocity": 100,
      "chip": "ym2612"
    },
    {
      "channel": 1,
      "note": 70,
      "start": 51.9841,
      "duration": 0.0161,
      "velocity": 124,
      "chip": "ym2612"
    },
    {
      "channel": 4,
      "note": 81,
      "start": 51.9855,
      "duration": 0.0168,
      "velocity": 94,
      "chip": "ym2612"
    },
    {
      "channel": 3,
      "note": 81,
      "start": 51.9866,
      "duration": 0.017,
      "velocity": 94,
      "chip": "ym2612"
    },
    {
      "channel": 2,
      "note": 57,
      "start": 51.9878,
      "duration": 0.0172,
      "velocity": 100,
      "chip": "ym2612"
    },
    {
      "channel": 1,
      "note": 69,
      "start": 52.0002,
      "duration": 0.0161,
      "velocity": 124,
      "chip": "ym2612"
    },
    {
      "channel": 4,
      "note": 76,
      "start": 52.0023,
      "duration": 0.0155,
      "velocity": 94,
      "chip": "ym2612"
    },
    {
      "channel": 3,
      "note": 81,
      "start": 52.0036,
      "duration": 0.0153,
      "velocity": 94,
      "chip": "ym2612"
    },
    {
      "channel": 2,
      "note": 57,
      "start": 52.0051,
      "duration": 0.0151,
      "velocity": 100,
      "chip": "ym2612"
    },
    {
      "channel": 1,
      "note": 68,
      "start": 52.0163,
      "duration": 0.0161,
      "velocity": 124,
      "chip": "ym2612"
    },
    {
      "channel": 4,
      "note": 76,
      "start": 52.0178,
      "duration": 0.016,
      "velocity": 94,
      "chip": "ym2612"
    },
    {
      "channel": 3,
      "note": 81,
      "start": 52.0189,
      "duration": 0.016,
      "velocity": 94,
      "chip": "ym2612"
    },
    {
      "channel": 2,
      "note": 57,
      "start": 52.0202,
      "duration": 0.0159,
      "velocity": 100,
      "chip": "ym2612"
    },
    {
      "channel": 1,
      "note": 66,
      "start": 52.0324,
      "duration": 0.0161,
      "velocity": 124,
      "chip": "ym2612"
    },
    {
      "channel": 4,
      "note": 76,
      "start": 52.0338,
      "duration": 0.0161,
      "velocity": 94,
      "chip": "ym2612"
    },
    {
      "channel": 3,
      "note": 81,
      "start": 52.0349,
      "duration": 0.0161,
      "velocity": 94,
      "chip": "ym2612"
    },
    {
      "channel": 2,
      "note": 57,
      "start": 52.0361,
      "duration": 0.0161,
      "velocity": 100,
      "chip": "ym2612"
    },
    {
      "channel": 1,
      "note": 65,
      "start": 52.0485,
      "duration": 0.0161,
      "velocity": 124,
      "chip": "ym2612"
    },
    {
      "channel": 4,
      "note": 76,
      "start": 52.0499,
      "duration": 0.0161,
      "velocity": 94,
      "chip": "ym2612"
    },
    {
      "channel": 3,
      "note": 81,
      "start": 52.051,
      "duration": 0.0161,
      "velocity": 94,
      "chip": "ym2612"
    },
    {
      "channel": 2,
      "note": 57,
      "start": 52.0522,
      "duration": 0.0161,
      "velocity": 100,
      "chip": "ym2612"
    },
    {
      "channel": 1,
      "note": 64,
      "start": 52.0646,
      "duration": 0.0161,
      "velocity": 124,
      "chip": "ym2612"
    },
    {
      "channel": 4,
      "note": 76,
      "start": 52.066,
      "duration": 0.0161,
      "velocity": 94,
      "chip": "ym2612"
    },
    {
      "channel": 3,
      "note": 81,
      "start": 52.0671,
      "duration": 0.0161,
      "velocity": 94,
      "chip": "ym2612"
    },
    {
      "channel": 2,
      "note": 57,
      "start": 52.0683,
      "duration": 0.0161,
      "velocity": 100,
      "chip": "ym2612"
    },
    {
      "channel": 1,
      "note": 62,
      "start": 52.0807,
      "duration": 0.0171,
      "velocity": 124,
      "chip": "ym2612"
    },
    {
      "channel": 4,
      "note": 76,
      "start": 52.082,
      "duration": 0.0171,
      "velocity": 94,
      "chip": "ym2612"
    },
    {
      "channel": 3,
      "note": 81,
      "start": 52.0832,
      "duration": 0.0171,
      "velocity": 94,
      "chip": "ym2612"
    },
    {
      "channel": 2,
      "note": 57,
      "start": 52.0843,
      "duration": 0.0171,
      "velocity": 100,
      "chip": "ym2612"
    },
    {
      "channel": 1,
      "note": 61,
      "start": 52.0978,
      "duration": 0.0167,
      "velocity": 124,
      "chip": "ym2612"
    },
    {
      "channel": 4,
      "note": 76,
      "start": 52.0992,
      "duration": 0.0173,
      "velocity": 94,
      "chip": "ym2612"
    },
    {
      "channel": 3,
      "note": 81,
      "start": 52.1003,
      "duration": 0.0176,
      "velocity": 94,
      "chip": "ym2612"
    },
    {
      "channel": 2,
      "note": 57,
      "start": 52.1015,
      "duration": 0.0179,
      "velocity": 100,
      "chip": "ym2612"
    },
    {
      "channel": 1,
      "note": 60,
      "start": 52.1144,
      "duration": 0.0163,
      "velocity": 124,
      "chip": "ym2612"
    },
    {
      "channel": 4,
      "note": 76,
      "start": 52.1165,
      "duration": 0.0158,
      "velocity": 94,
      "chip": "ym2612"
    },
    {
      "channel": 3,
      "note": 76,
      "start": 52.1179,
      "duration": 0.0155,
      "velocity": 94,
      "chip": "ym2612"
    },
    {
      "channel": 2,
      "note": 50,
      "start": 52.1193,
      "duration": 0.0153,
      "velocity": 100,
      "chip": "ym2612"
    },
    {
      "channel": 1,
      "note": 59,
      "start": 52.1308,
      "duration": 0.0146,
      "velocity": 124,
      "chip": "ym2612"
    },
    {
      "channel": 4,
      "note": 76,
      "start": 52.1322,
      "duration": 0.0145,
      "velocity": 94,
      "chip": "ym2612"
    },
    {
      "channel": 3,
      "note": 76,
      "start": 52.1334,
      "duration": 0.0144,
      "velocity": 94,
      "chip": "ym2612"
    },
    {
      "channel": 2,
      "note": 50,
      "start": 52.1346,
      "duration": 0.0144,
      "velocity": 100,
      "chip": "ym2612"
    },
    {
      "channel": 1,
      "note": 57,
      "start": 52.1454,
      "duration": 0.0185,
      "velocity": 124,
      "chip": "ym2612"
    },
    {
      "channel": 4,
      "note": 76,
      "start": 52.1467,
      "duration": 0.0186,
      "velocity": 94,
      "chip": "ym2612"
    },
    {
      "channel": 3,
      "note": 76,
      "start": 52.1479,
      "duration": 0.0186,
      "velocity": 94,
      "chip": "ym2612"
    },
    {
      "channel": 2,
      "note": 50,
      "start": 52.149,
      "duration": 0.0186,
      "velocity": 100,
      "chip": "ym2612"
    },
    {
      "channel": 1,
      "note": 56,
      "start": 52.1639,
      "duration": 0.0161,
      "velocity": 124,
      "chip": "ym2612"
    },
    {
      "channel": 4,
      "note": 76,
      "start": 52.1653,
      "duration": 0.0161,
      "velocity": 94,
      "chip": "ym2612"
    },
    {
      "channel": 3,
      "note": 76,
      "start": 52.1665,
      "duration": 0.0161,
      "velocity": 94,
      "chip": "ym2612"
    },
    {
      "channel": 2,
      "note": 50,
      "start": 52.1676,
      "duration": 0.0161,
      "velocity": 100,
      "chip": "ym2612"
    },
    {
      "channel": 1,
      "note": 55,
      "start": 52.18,
      "duration": 0.0158,
      "velocity": 124,
      "chip": "ym2612"
    },
    {
      "channel": 4,
      "note": 76,
      "start": 52.1814,
      "duration": 0.0158,
      "velocity": 94,
      "chip": "ym2612"
    },
    {
      "channel": 3,
      "note": 76,
      "start": 52.1826,
      "duration": 0.0158,
      "velocity": 94,
      "chip": "ym2612"
    },
    {
      "channel": 2,
      "note": 50,
      "start": 52.1837,
      "duration": 0.0157,
      "velocity": 100,
      "chip": "ym2612"
    },
    {
      "channel": 1,
      "note": 53,
      "start": 52.1958,
      "duration": 0.0137,
      "velocity": 124,
      "chip": "ym2612"
    },
    {
      "channel": 4,
      "note": 76,
      "start": 52.1972,
      "duration": 0.014,
      "velocity": 94,
      "chip": "ym2612"
    },
    {
      "channel": 3,
      "note": 76,
      "start": 52.1983,
      "duration": 0.014,
      "velocity": 94,
      "chip": "ym2612"
    },
    {
      "channel": 2,
      "note": 50,
      "start": 52.1994,
      "duration": 0.0141,
      "velocity": 100,
      "chip": "ym2612"
    },
    {
      "channel": 1,
      "note": 52,
      "start": 52.2095,
      "duration": 0.0162,
      "velocity": 124,
      "chip": "ym2612"
    },
    {
      "channel": 4,
      "note": 76,
      "start": 52.2112,
      "duration": 0.0228,
      "velocity": 94,
      "chip": "ym2612"
    },
    {
      "channel": 3,
      "note": 76,
      "start": 52.2123,
      "duration": 0.0229,
      "velocity": 94,
      "chip": "ym2612"
    },
    {
      "channel": 2,
      "note": 50,
      "start": 52.2135,
      "duration": 0.0232,
      "velocity": 100,
      "chip": "ym2612"
    },
    {
      "channel": 1,
      "note": 51,
      "start": 52.2256,
      "duration": 0.0153,
      "velocity": 1,
      "chip": "ym2612"
    },
    {
      "channel": 0,
      "note": 78,
      "start": 52.2326,
      "duration": 0.0149,
      "velocity": 127,
      "chip": "ym2612"
    },
    {
      "channel": 4,
      "note": 76,
      "start": 52.234,
      "duration": 0.0148,
      "velocity": 94,
      "chip": "ym2612"
    },
    {
      "channel": 3,
      "note": 76,
      "start": 52.2353,
      "duration": 0.0146,
      "velocity": 94,
      "chip": "ym2612"
    },
    {
      "channel": 2,
      "note": 50,
      "start": 52.2367,
      "duration": 0.0144,
      "velocity": 100,
      "chip": "ym2612"
    },
    {
      "channel": 1,
      "note": 51,
      "start": 52.2431,
      "duration": 0.0142,
      "velocity": 105,
      "chip": "ym2612"
    },
    {
      "channel": 0,
      "note": 76,
      "start": 52.2475,
      "duration": 0.0115,
      "velocity": 127,
      "chip": "ym2612"
    },
    {
      "channel": 4,
      "note": 76,
      "start": 52.2488,
      "duration": 0.0137,
      "velocity": 94,
      "chip": "ym2612"
    },
    {
      "channel": 3,
      "note": 76,
      "start": 52.2499,
      "duration": 0.0137,
      "velocity": 94,
      "chip": "ym2612"
    },
    {
      "channel": 2,
      "note": 50,
      "start": 52.2511,
      "duration": 0.0137,
      "velocity": 100,
      "chip": "ym2612"
    },
    {
      "channel": 1,
      "note": 105,
      "start": 52.2573,
      "duration": 0.0161,
      "velocity": 105,
      "chip": "ym2612"
    },
    {
      "channel": 0,
      "note": 75,
      "start": 52.259,
      "duration": 0.0161,
      "velocity": 127,
      "chip": "ym2612"
    },
    {
      "channel": 4,
      "note": 76,
      "start": 52.2625,
      "duration": 0.0137,
      "velocity": 94,
      "chip": "ym2612"
    },
    {
      "channel": 3,
      "note": 76,
      "start": 52.2637,
      "duration": 0.014,
      "velocity": 94,
      "chip": "ym2612"
    },
    {
      "channel": 2,
      "note": 50,
      "start": 52.2648,
      "duration": 0.014,
      "velocity": 100,
      "chip": "ym2612"
    },
    {
      "channel": 1,
      "note": 105,
      "start": 52.2734,
      "duration": 0.0161,
      "velocity": 105,
      "chip": "ym2612"
    },
    {
      "channel": 0,
      "note": 73,
      "start": 52.2751,
      "duration": 0.0161,
      "velocity": 127,
      "chip": "ym2612"
    },
    {
      "channel": 4,
      "note": 76,
      "start": 52.2763,
      "duration": 0.0161,
      "velocity": 94,
      "chip": "ym2612"
    },
    {
      "channel": 3,
      "note": 76,
      "start": 52.2777,
      "duration": 0.0186,
      "velocity": 94,
      "chip": "ym2612"
    },
    {
      "channel": 2,
      "note": 50,
      "start": 52.2788,
      "duration": 0.0186,
      "velocity": 100,
      "chip": "ym2612"
    },
    {
      "channel": 1,
      "note": 105,
      "start": 52.2895,
      "duration": 0.0161,
      "velocity": 105,
      "chip": "ym2612"
    },
    {
      "channel": 0,
      "note": 71,
      "start": 52.2911,
      "duration": 0.0161,
      "velocity": 127,
      "chip": "ym2612"
    },
    {
      "channel": 4,
      "note": 76,
      "start": 52.2924,
      "duration": 0.0161,
      "velocity": 94,
      "chip": "ym2612"
    },
    {
      "channel": 3,
      "note": 76,
      "start": 52.2962,
      "duration": 0.0134,
      "velocity": 94,
      "chip": "ym2612"
    },
    {
      "channel": 2,
      "note": 50,
      "start": 52.2974,
      "duration": 0.0161,
      "velocity": 100,
      "chip": "ym2612"
    },
    {
      "channel": 1,
      "note": 105,
      "start": 52.3056,
      "duration": 0.0161,
      "velocity": 105,
      "chip": "ym2612"
    },
    {
      "channel": 0,
      "note": 70,
      "start": 52.3072,
      "duration": 0.0161,
      "velocity": 127,
      "chip": "ym2612"
    },
    {
      "channel": 4,
      "note": 76,
      "start": 52.3085,
      "duration": 0.0161,
      "velocity": 94,
      "chip": "ym2612"
    },
    {
      "channel": 3,
      "note": 76,
      "start": 52.3096,
      "duration": 0.016,
      "velocity": 94,
      "chip": "ym2612"
    },
    {
      "channel": 2,
      "note": 50,
      "start": 52.3135,
      "duration": 0.0157,
      "velocity": 100,
      "chip": "ym2612"
    },
    {
      "channel": 1,
      "note": 105,
      "start": 52.3217,
      "duration": 0.0178,
      "velocity": 124,
      "chip": "ym2612"
    },
    {
      "channel": 0,
      "note": 68,
      "start": 52.3233,
      "duration": 0.0197,
      "velocity": 115,
      "chip": "ym2612"
    },
    {
      "channel": 4,
      "note": 76,
      "start": 52.3245,
      "duration": 0.0201,
      "velocity": 94,
      "chip": "ym2612"
    },
    {
      "channel": 3,
      "note": 76,
      "start": 52.3256,
      "duration": 0.0204,
      "velocity": 94,
      "chip": "ym2612"
    },
    {
      "channel": 2,
      "note": 50,
      "start": 52.3292,
      "duration": 0.0182,
      "velocity": 100,
      "chip": "ym2612"
    },
    {
      "channel": 1,
      "note": 64,
      "start": 52.3395,
      "duration": 0.0144,
      "velocity": 124,
      "chip": "ym2612"
    },
    {
      "channel": 0,
      "note": 36,
      "start": 52.343,
      "duration": 0.0127,
      "velocity": 115,
      "chip": "ym2612"
    },
    {
      "channel": 4,
      "note": 76,
      "start": 52.3446,
      "duration": 0.0123,
      "velocity": 94,
      "chip": "ym2612"
    },
    {
      "channel": 3,
      "note": 76,
      "start": 52.346,
      "duration": 0.0121,
      "velocity": 94,
      "chip": "ym2612"
    },
    {
      "channel": 2,
      "note": 52,
      "start": 52.3474,
      "duration": 0.0119,
      "velocity": 100,
      "chip": "ym2612"
    },
    {
      "channel": 1,
      "note": 64,
      "start": 52.354,
      "duration": 0.016,
      "velocity": 124,
      "chip": "ym2612"
    },
    {
      "channel": 0,
      "note": 36,
      "start": 52.3557,
      "duration": 0.016,
      "velocity": 115,
      "chip": "ym2612"
    },
    {
      "channel": 4,
      "note": 76,
      "start": 52.3569,
      "duration": 0.0159,
      "velocity": 94,
      "chip": "ym2612"
    },
    {
      "channel": 3,
      "note": 76,
      "start": 52.3581,
      "duration": 0.0159,
      "velocity": 94,
      "chip": "ym2612"
    },
    {
      "channel": 2,
      "note": 52,
      "start": 52.3593,
      "duration": 0.0158,
      "velocity": 100,
      "chip": "ym2612"
    },
    {
      "channel": 1,
      "note": 64,
      "start": 52.37,
      "duration": 0.0161,
      "velocity": 124,
      "chip": "ym2612"
    },
    {
      "channel": 0,
      "note": 37,
      "start": 52.3717,
      "duration": 0.0161,
      "velocity": 115,
      "chip": "ym2612"
    },
    {
      "channel": 4,
      "note": 76,
      "start": 52.3728,
      "duration": 0.0161,
      "velocity": 94,
      "chip": "ym2612"
    },
    {
      "channel": 3,
      "note": 76,
      "start": 52.374,
      "duration": 0.0162,
      "velocity": 94,
      "chip": "ym2612"
    },
    {
      "channel": 2,
      "note": 52,
      "start": 52.3751,
      "duration": 0.0161,
      "velocity": 100,
      "chip": "ym2612"
    },
    {
      "channel": 1,
      "note": 64,
      "start": 52.3861,
      "duration": 0.0161,
      "velocity": 124,
      "chip": "ym2612"
    },
    {
      "channel": 0,
      "note": 37,
      "start": 52.3878,
      "duration": 0.0161,
      "velocity": 115,
      "chip": "ym2612"
    },
    {
      "channel": 4,
      "note": 76,
      "start": 52.389,
      "duration": 0.0161,
      "velocity": 94,
      "chip": "ym2612"
    },
    {
      "channel": 3,
      "note": 76,
      "start": 52.3901,
      "duration": 0.0161,
      "velocity": 94,
      "chip": "ym2612"
    },
    {
      "channel": 2,
      "note": 52,
      "start": 52.3912,
      "duration": 0.0161,
      "velocity": 100,
      "chip": "ym2612"
    },
    {
      "channel": 1,
      "note": 64,
      "start": 52.4022,
      "duration": 0.0161,
      "velocity": 124,
      "chip": "ym2612"
    },
    {
      "channel": 0,
      "note": 38,
      "start": 52.4039,
      "duration": 0.0161,
      "velocity": 115,
      "chip": "ym2612"
    },
    {
      "channel": 4,
      "note": 76,
      "start": 52.4051,
      "duration": 0.0161,
      "velocity": 94,
      "chip": "ym2612"
    },
    {
      "channel": 3,
      "note": 76,
      "start": 52.4062,
      "duration": 0.0161,
      "velocity": 94,
      "chip": "ym2612"
    },
    {
      "channel": 2,
      "note": 52,
      "start": 52.4073,
      "duration": 0.0161,
      "velocity": 100,
      "chip": "ym2612"
    },
    {
      "channel": 1,
      "note": 64,
      "start": 52.4183,
      "duration": 0.0161,
      "velocity": 124,
      "chip": "ym2612"
    },
    {
      "channel": 0,
      "note": 38,
      "start": 52.42,
      "duration": 0.0162,
      "velocity": 115,
      "chip": "ym2612"
    },
    {
      "channel": 4,
      "note": 76,
      "start": 52.4212,
      "duration": 0.0161,
      "velocity": 94,
      "chip": "ym2612"
    },
    {
      "channel": 3,
      "note": 76,
      "start": 52.4223,
      "duration": 0.0161,
      "velocity": 94,
      "chip": "ym2612"
    },
    {
      "channel": 2,
      "note": 52,
      "start": 52.4234,
      "duration": 0.0161,
      "velocity": 100,
      "chip": "ym2612"
    },
    {
      "channel": 1,
      "note": 64,
      "start": 52.4344,
      "duration": 0.0178,
      "velocity": 105,
      "chip": "ym2612"
    },
    {
      "channel": 0,
      "note": 39,
      "start": 52.4361,
      "duration": 0.0178,
      "velocity": 115,
      "chip": "ym2612"
    },
    {
      "channel": 4,
      "note": 76,
      "start": 52.4373,
      "duration": 0.018,
      "velocity": 94,
      "chip": "ym2612"
    },
    {
      "channel": 3,
      "note": 76,
      "start": 52.4384,
      "duration": 0.0182,
      "velocity": 94,
      "chip": "ym2612"
    },
    {
      "channel": 2,
      "note": 52,
      "start": 52.4395,
      "duration": 0.0185,
      "velocity": 100,
      "chip": "ym2612"
    },
    {
      "channel": 1,
      "note": 105,
      "start": 52.4522,
      "duration": 0.0144,
      "velocity": 105,
      "chip": "ym2612"
    },
    {
      "channel": 0,
      "note": 39,
      "start": 52.4539,
      "duration": 0.0144,
      "velocity": 115,
      "chip": "ym2612"
    },
    {
      "channel": 4,
      "note": 81,
      "start": 52.4553,
      "duration": 0.0142,
      "velocity": 94,
      "chip": "ym2612"
    },
    {
      "channel": 3,
      "note": 76,
      "start": 52.4566,
      "duration": 0.0141,
      "velocity": 94,
      "chip": "ym2612"
    },
    {
      "channel": 2,
      "note": 52,
      "start": 52.4581,
      "duration": 0.0139,
      "velocity": 100,
      "chip": "ym2612"
    },
    {
      "channel": 1,
      "note": 105,
      "start": 52.4666,
      "duration": 0.016,
      "velocity": 105,
      "chip": "ym2612"
    },
    {
      "channel": 0,
      "note": 40,
      "start": 52.4683,
      "duration": 0.016,
      "velocity": 115,
      "chip": "ym2612"
    },
    {
      "channel": 4,
      "note": 81,
      "start": 52.4696,
      "duration": 0.016,
      "velocity": 94,
      "chip": "ym2612"
    },
    {
      "channel": 3,
      "note": 76,
      "start": 52.4707,
      "duration": 0.016,
      "velocity": 94,
      "chip": "ym2612"
    },
    {
      "channel": 2,
      "note": 52,
      "start": 52.4719,
      "duration": 0.0159,
      "velocity": 100,
      "chip": "ym2612"
    },
    {
      "channel": 1,
      "note": 105,
      "start": 52.4827,
      "duration": 0.0161,
      "velocity": 105,
      "chip": "ym2612"
    },
    {
      "channel": 0,
      "note": 40,
      "start": 52.4843,
      "duration": 0.0162,
      "velocity": 115,
      "chip": "ym2612"
    },
    {
      "channel": 4,
      "note": 81,
      "start": 52.4856,
      "duration": 0.0161,
      "velocity": 94,
      "chip": "ym2612"
    },
    {
      "channel": 3,
      "note": 76,
      "start": 52.4867,
      "duration": 0.0161,
      "velocity": 94,
      "chip": "ym2612"
    },
    {
      "channel": 2,
      "note": 52,
      "start": 52.4878,
      "duration": 0.0161,
      "velocity": 100,
      "chip": "ym2612"
    },
    {
      "channel": 1,
      "note": 105,
      "start": 52.4988,
      "duration": 0.0162,
      "velocity": 105,
      "chip": "ym2612"
    },
    {
      "channel": 0,
      "note": 40,
      "start": 52.5005,
      "duration": 0.0161,
      "velocity": 115,
      "chip": "ym2612"
    },
    {
      "channel": 4,
      "note": 81,
      "start": 52.5016,
      "duration": 0.0161,
      "velocity": 94,
      "chip": "ym2612"
    },
    {
      "channel": 3,
      "note": 76,
      "start": 52.5028,
      "duration": 0.0161,
      "velocity": 94,
      "chip": "ym2612"
    },
    {
      "channel": 2,
      "note": 52,
      "start": 52.5039,
      "duration": 0.0161,
      "velocity": 100,
      "chip": "ym2612"
    },
    {
      "channel": 1,
      "note": 105,
      "start": 52.5149,
      "duration": 0.0161,
      "velocity": 105,
      "chip": "ym2612"
    },
    {
      "channel": 0,
      "note": 41,
      "start": 52.5166,
      "duration": 0.0161,
      "velocity": 115,
      "chip": "ym2612"
    },
    {
      "channel": 4,
      "note": 81,
      "start": 52.5177,
      "duration": 0.0161,
      "velocity": 94,
      "chip": "ym2612"
    },
    {
      "channel": 3,
      "note": 76,
      "start": 52.5189,
      "duration": 0.0161,
      "velocity": 94,
      "chip": "ym2612"
    },
    {
      "channel": 2,
      "note": 52,
      "start": 52.52,
      "duration": 0.0161,
      "velocity": 100,
      "chip": "ym2612"
    },
    {
      "channel": 1,
      "note": 105,
      "start": 52.531,
      "duration": 0.0161,
      "velocity": 105,
      "chip": "ym2612"
    },
    {
      "channel": 0,
      "note": 41,
      "start": 52.5327,
      "duration": 0.0161,
      "velocity": 115,
      "chip": "ym2612"
    },
    {
      "channel": 4,
      "note": 81,
      "start": 52.5338,
      "duration": 0.0161,
      "velocity": 94,
      "chip": "ym2612"
    },
    {
      "channel": 3,
      "note": 76,
      "start": 52.535,
      "duration": 0.0161,
      "velocity": 94,
      "chip": "ym2612"
    },
    {
      "channel": 2,
      "note": 52,
      "start": 52.5361,
      "duration": 0.0161,
      "velocity": 100,
      "chip": "ym2612"
    },
    {
      "channel": 1,
      "note": 105,
      "start": 52.5471,
      "duration": 0.0185,
      "velocity": 124,
      "chip": "ym2612"
    },
    {
      "channel": 0,
      "note": 42,
      "start": 52.5488,
      "duration": 0.0186,
      "velocity": 115,
      "chip": "ym2612"
    },
    {
      "channel": 4,
      "note": 81,
      "start": 52.5499,
      "duration": 0.0188,
      "velocity": 94,
      "chip": "ym2612"
    },
    {
      "channel": 3,
      "note": 76,
      "start": 52.5511,
      "duration": 0.019,
      "velocity": 94,
      "chip": "ym2612"
    },
    {
      "channel": 2,
      "note": 52,
      "start": 52.5522,
      "duration": 0.0193,
      "velocity": 100,
      "chip": "ym2612"
    },
    {
      "channel": 1,
      "note": 64,
      "start": 52.5657,
      "duration": 0.015,
      "velocity": 124,
      "chip": "ym2612"
    },
    {
      "channel": 0,
      "note": 42,
      "start": 52.5673,
      "duration": 0.015,
      "velocity": 115,
      "chip": "ym2612"
    },
    {
      "channel": 4,
      "note": 81,
      "start": 52.5687,
      "duration": 0.0149,
      "velocity": 94,
      "chip": "ym2612"
    },
    {
      "channel": 3,
      "note": 81,
      "start": 52.5701,
      "duration": 0.0147,
      "velocity": 94,
      "chip": "ym2612"
    },
    {
      "channel": 2,
      "note": 52,
      "start": 52.5715,
      "duration": 0.0144,
      "velocity": 100,
      "chip": "ym2612"
    },
    {
      "channel": 1,
      "note": 64,
      "start": 52.5807,
      "duration": 0.0162,
      "velocity": 124,
      "chip": "ym2612"
    },
    {
      "channel": 0,
      "note": 43,
      "start": 52.5824,
      "duration": 0.0162,
      "velocity": 115,
      "chip": "ym2612"
    },
    {
      "channel": 4,
      "note": 81,
      "start": 52.5836,
      "duration": 0.0162,
      "velocity": 94,
      "chip": "ym2612"
    },
    {
      "channel": 3,
      "note": 81,
      "start": 52.5848,
      "duration": 0.0161,
      "velocity": 94,
      "chip": "ym2612"
    },
    {
      "channel": 2,
      "note": 52,
      "start": 52.586,
      "duration": 0.016,
      "velocity": 100,
      "chip": "ym2612"
    },
    {
      "channel": 1,
      "note": 64,
      "start": 52.5969,
      "duration": 0.0147,
      "velocity": 124,
      "chip": "ym2612"
    },
    {
      "channel": 0,
      "note": 43,
      "start": 52.5986,
      "duration": 0.0147,
      "velocity": 115,
      "chip": "ym2612"
    },
    {
      "channel": 4,
      "note": 81,
      "start": 52.5998,
      "duration": 0.0147,
      "velocity": 94,
      "chip": "ym2612"
    },
    {
      "channel": 3,
      "note": 81,
      "start": 52.6009,
      "duration": 0.0147,
      "velocity": 94,
      "chip": "ym2612"
    },
    {
      "channel": 2,
      "note": 52,
      "start": 52.602,
      "duration": 0.0147,
      "velocity": 100,
      "chip": "ym2612"
    },
    {
      "channel": 1,
      "note": 64,
      "start": 52.6116,
      "duration": 0.0188,
      "velocity": 124,
      "chip": "ym2612"
    },
    {
      "channel": 0,
      "note": 44,
      "start": 52.6133,
      "duration": 0.0188,
      "velocity": 115,
      "chip": "ym2612"
    },
    {
      "channel": 4,
      "note": 81,
      "start": 52.6145,
      "duration": 0.0187,
      "velocity": 94,
      "chip": "ym2612"
    },
    {
      "channel": 3,
      "note": 81,
      "start": 52.6156,
      "duration": 0.0187,
      "velocity": 94,
      "chip": "ym2612"
    },
    {
      "channel": 2,
      "note": 52,
      "start": 52.6167,
      "duration": 0.0188,
      "velocity": 100,
      "chip": "ym2612"
    },
    {
      "channel": 1,
      "note": 64,
      "start": 52.6304,
      "duration": 0.0161,
      "velocity": 124,
      "chip": "ym2612"
    },
    {
      "channel": 0,
      "note": 44,
      "start": 52.632,
      "duration": 0.0161,
      "velocity": 115,
      "chip": "ym2612"
    },
    {
      "channel": 4,
      "note": 81,
      "start": 52.6332,
      "duration": 0.0161,
      "velocity": 94,
      "chip": "ym2612"
    },
    {
      "channel": 3,
      "note": 81,
      "start": 52.6343,
      "duration": 0.0161,
      "velocity": 94,
      "chip": "ym2612"
    },
    {
      "channel": 2,
      "note": 52,
      "start": 52.6355,
      "duration": 0.0161,
      "velocity": 100,
      "chip": "ym2612"
    },
    {
      "channel": 1,
      "note": 64,
      "start": 52.6465,
      "duration": 0.0157,
      "velocity": 124,
      "chip": "ym2612"
    },
    {
      "channel": 0,
      "note": 44,
      "start": 52.6481,
      "duration": 0.0158,
      "velocity": 115,
      "chip": "ym2612"
    },
    {
      "channel": 4,
      "note": 81,
      "start": 52.6493,
      "duration": 0.0158,
      "velocity": 94,
      "chip": "ym2612"
    },
    {
      "channel": 3,
      "note": 81,
      "start": 52.6504,
      "duration": 0.0158,
      "velocity": 94,
      "chip": "ym2612"
    },
    {
      "channel": 2,
      "note": 52,
      "start": 52.6516,
      "duration": 0.0158,
      "velocity": 100,
      "chip": "ym2612"
    },
    {
      "channel": 1,
      "note": 64,
      "start": 52.6622,
      "duration": 0.0157,
      "velocity": 105,
      "chip": "ym2612"
    },
    {
      "channel": 0,
      "note": 45,
      "start": 52.6639,
      "duration": 0.0157,
      "velocity": 115,
      "chip": "ym2612"
    },
    {
      "channel": 4,
      "note": 81,
      "start": 52.6651,
      "duration": 0.016,
      "velocity": 94,
      "chip": "ym2612"
    },
    {
      "channel": 3,
      "note": 81,
      "start": 52.6662,
      "duration": 0.0161,
      "velocity": 94,
      "chip": "ym2612"
    },
    {
      "channel": 2,
      "note": 52,
      "start": 52.6673,
      "duration": 0.0164,
      "velocity": 100,
      "chip": "ym2612"
    },
    {
      "channel": 1,
      "note": 105,
      "start": 52.678,
      "duration": 0.0141,
      "velocity": 105,
      "chip": "ym2612"
    },
    {
      "channel": 0,
      "note": 45,
      "start": 52.6796,
      "duration": 0.0168,
      "velocity": 115,
      "chip": "ym2612"
    },
    {
      "channel": 4,
      "note": 81,
      "start": 52.6811,
      "duration": 0.0167,
      "velocity": 94,
      "chip": "ym2612"
    },
    {
      "channel": 3,
      "note": 81,
      "start": 52.6824,
      "duration": 0.0166,
      "velocity": 94,
      "chip": "ym2612"
    },
    {
      "channel": 2,
      "note": 52,
      "start": 52.6838,
      "duration": 0.0163,
      "velocity": 100,
      "chip": "ym2612"
    },
    {
      "channel": 1,
      "note": 105,
      "start": 52.6921,
      "duration": 0.016,
      "velocity": 105,
      "chip": "ym2612"
    },
    {
      "channel": 0,
      "note": 46,
      "start": 52.6965,
      "duration": 0.0133,
      "velocity": 115,
      "chip": "ym2612"
    },
    {
      "channel": 4,
      "note": 81,
      "start": 52.6978,
      "duration": 0.016,
      "velocity": 94,
      "chip": "ym2612"
    },
    {
      "channel": 3,
      "note": 81,
      "start": 52.6989,
      "duration": 0.0159,
      "velocity": 94,
      "chip": "ym2612"
    },
    {
      "channel": 2,
      "note": 52,
      "start": 52.7001,
      "duration": 0.0159,
      "velocity": 100,
      "chip": "ym2612"
    },
    {
      "channel": 1,
      "note": 105,
      "start": 52.7081,
      "duration": 0.0161,
      "velocity": 105,
      "chip": "ym2612"
    },
    {
      "channel": 0,
      "note": 46,
      "start": 52.7098,
      "duration": 0.0161,
      "velocity": 115,
      "chip": "ym2612"
    },
    {
      "channel": 4,
      "note": 81,
      "start": 52.7137,
      "duration": 0.0157,
      "velocity": 94,
      "chip": "ym2612"
    },
    {
      "channel": 3,
      "note": 81,
      "start": 52.7148,
      "duration": 0.0158,
      "velocity": 94,
      "chip": "ym2612"
    },
    {
      "channel": 2,
      "note": 52,
      "start": 52.716,
      "duration": 0.0158,
      "velocity": 100,
      "chip": "ym2612"
    },
    {
      "channel": 1,
      "note": 105,
      "start": 52.7242,
      "duration": 0.0161,
      "velocity": 105,
      "chip": "ym2612"
    },
    {
      "channel": 0,
      "note": 47,
      "start": 52.7259,
      "duration": 0.0161,
      "velocity": 115,
      "chip": "ym2612"
    },
    {
      "channel": 4,
      "note": 81,
      "start": 52.7294,
      "duration": 0.0139,
      "velocity": 94,
      "chip": "ym2612"
    },
    {
      "channel": 3,
      "note": 81,
      "start": 52.7306,
      "duration": 0.0141,
      "velocity": 94,
      "chip": "ym2612"
    },
    {
      "channel": 2,
      "note": 52,
      "start": 52.7317,
      "duration": 0.014,
      "velocity": 100,
      "chip": "ym2612"
    },
    {
      "channel": 1,
      "note": 105,
      "start": 52.7403,
      "duration": 0.0161,
      "velocity": 105,
      "chip": "ym2612"
    },
    {
      "channel": 0,
      "note": 47,
      "start": 52.742,
      "duration": 0.0161,
      "velocity": 115,
      "chip": "ym2612"
    },
    {
      "channel": 4,
      "note": 81,
      "start": 52.7433,
      "duration": 0.016,
      "velocity": 94,
      "chip": "ym2612"
    },
    {
      "channel": 3,
      "note": 81,
      "start": 52.7446,
      "duration": 0.0185,
      "velocity": 94,
      "chip": "ym2612"
    },
    {
      "channel": 2,
      "note": 52,
      "start": 52.7457,
      "duration": 0.0186,
      "velocity": 100,
      "chip": "ym2612"
    },
    {
      "channel": 1,
      "note": 105,
      "start": 52.7564,
      "duration": 0.0161,
      "velocity": 105,
      "chip": "ym2612"
    },
    {
      "channel": 0,
      "note": 47,
      "start": 52.7581,
      "duration": 0.0161,
      "velocity": 115,
      "chip": "ym2612"
    },
    {
      "channel": 4,
      "note": 81,
      "start": 52.7593,
      "duration": 0.0161,
      "velocity": 94,
      "chip": "ym2612"
    },
    {
      "channel": 3,
      "note": 81,
      "start": 52.7632,
      "duration": 0.0161,
      "velocity": 94,
      "chip": "ym2612"
    },
    {
      "channel": 2,
      "note": 52,
      "start": 52.7643,
      "duration": 0.016,
      "velocity": 100,
      "chip": "ym2612"
    },
    {
      "channel": 1,
      "note": 105,
      "start": 52.7725,
      "duration": 0.0184,
      "velocity": 124,
      "chip": "ym2612"
    },
    {
      "channel": 0,
      "note": 48,
      "start": 52.7741,
      "duration": 0.0215,
      "velocity": 115,
      "chip": "ym2612"
    },
    {
      "channel": 4,
      "note": 81,
      "start": 52.7754,
      "duration": 0.0216,
      "velocity": 94,
      "chip": "ym2612"
    },
    {
      "channel": 3,
      "note": 81,
      "start": 52.7793,
      "duration": 0.0191,
      "velocity": 94,
      "chip": "ym2612"
    },
    {
      "channel": 2,
      "note": 52,
      "start": 52.7803,
      "duration": 0.0195,
      "velocity": 100,
      "chip": "ym2612"
    },
    {
      "channel": 1,
      "note": 78,
      "start": 52.7909,
      "duration": 0.0144,
      "velocity": 124,
      "chip": "ym2612"
    },
    {
      "channel": 0,
      "note": 48,
      "start": 52.7957,
      "duration": 0.0115,
      "velocity": 115,
      "chip": "ym2612"
    },
    {
      "channel": 4,
      "note": 81,
      "start": 52.797,
      "duration": 0.0115,
      "velocity": 94,
      "chip": "ym2612"
    },
    {
      "channel": 3,
      "note": 81,
      "start": 52.7984,
      "duration": 0.0112,
      "velocity": 94,
      "chip": "ym2612"
    },
    {
      "channel": 2,
      "note": 52,
      "start": 52.7999,
      "duration": 0.0112,
      "velocity": 100,
      "chip": "ym2612"
    },
    {
      "channel": 1,
      "note": 76,
      "start": 52.8053,
      "duration": 0.016,
      "velocity": 124,
      "chip": "ym2612"
    },
    {
      "channel": 0,
      "note": 49,
      "start": 52.8072,
      "duration": 0.0152,
      "velocity": 1,
      "chip": "ym2612"
    },
    {
      "channel": 4,
      "note": 81,
      "start": 52.8085,
      "duration": 0.0151,
      "velocity": 94,
      "chip": "ym2612"
    },
    {
      "channel": 3,
      "note": 81,
      "start": 52.8096,
      "duration": 0.0151,
      "velocity": 94,
      "chip": "ym2612"
    },
    {
      "channel": 2,
      "note": 52,
      "start": 52.8111,
      "duration": 0.0147,
      "velocity": 100,
      "chip": "ym2612"
    },
    {
      "channel": 1,
      "note": 75,
      "start": 52.8213,
      "duration": 0.0162,
      "velocity": 124,
      "chip": "ym2612"
    },
    {
      "channel": 4,
      "note": 81,
      "start": 52.8235,
      "duration": 0.0153,
      "velocity": 94,
      "chip": "ym2612"
    },
    {
      "channel": 3,
      "note": 81,
      "start": 52.8247,
      "duration": 0.0153,
      "velocity": 94,
      "chip": "ym2612"
    },
    {
      "channel": 2,
      "note": 52,
      "start": 52.8258,
      "duration": 0.0153,
      "velocity": 100,
      "chip": "ym2612"
    },
    {
      "channel": 1,
      "note": 74,
      "start": 52.8375,
      "duration": 0.0161,
      "velocity": 124,
      "chip": "ym2612"
    },
    {
      "channel": 4,
      "note": 81,
      "start": 52.8388,
      "duration": 0.0161,
      "velocity": 94,
      "chip": "ym2612"
    },
    {
      "channel": 3,
      "note": 81,
      "start": 52.84,
      "duration": 0.0161,
      "velocity": 94,
      "chip": "ym2612"
    },
    {
      "channel": 2,
      "note": 52,
      "start": 52.8411,
      "duration": 0.0161,
      "velocity": 100,
      "chip": "ym2612"
    },
    {
      "channel": 1,
      "note": 72,
      "start": 52.8535,
      "duration": 0.0161,
      "velocity": 124,
      "chip": "ym2612"
    },
    {
      "channel": 4,
      "note": 81,
      "start": 52.8549,
      "duration": 0.0161,
      "velocity": 94,
      "chip": "ym2612"
    },
    {
      "channel": 3,
      "note": 81,
      "start": 52.8561,
      "duration": 0.0161,
      "velocity": 94,
      "chip": "ym2612"
    },
    {
      "channel": 2,
      "note": 52,
      "start": 52.8572,
      "duration": 0.0162,
      "velocity": 100,
      "chip": "ym2612"
    },
    {
      "channel": 1,
      "note": 71,
      "start": 52.8696,
      "duration": 0.0161,
      "velocity": 124,
      "chip": "ym2612"
    },
    {
      "channel": 4,
      "note": 81,
      "start": 52.871,
      "duration": 0.0161,
      "velocity": 94,
      "chip": "ym2612"
    },
    {
      "channel": 3,
      "note": 81,
      "start": 52.8722,
      "duration": 0.0161,
      "velocity": 94,
      "chip": "ym2612"
    },
    {
      "channel": 2,
      "note": 52,
      "start": 52.8733,
      "duration": 0.0161,
      "velocity": 100,
      "chip": "ym2612"
    },
    {
      "channel": 1,
      "note": 70,
      "start": 52.8857,
      "duration": 0.0161,
      "velocity": 124,
      "chip": "ym2612"
    },
    {
      "channel": 4,
      "note": 81,
      "start": 52.8871,
      "duration": 0.0168,
      "velocity": 94,
      "chip": "ym2612"
    },
    {
      "channel": 3,
      "note": 81,
      "start": 52.8883,
      "duration": 0.017,
      "velocity": 94,
      "chip": "ym2612"
    },
    {
      "channel": 2,
      "note": 52,
      "start": 52.8894,
      "duration": 0.0172,
      "velocity": 100,
      "chip": "ym2612"
    },
    {
      "channel": 1,
      "note": 69,
      "start": 52.9018,
      "duration": 0.0161,
      "velocity": 124,
      "chip": "ym2612"
    },
    {
      "channel": 4,
      "note": 76,
      "start": 52.904,
      "duration": 0.0155,
      "velocity": 94,
      "chip": "ym2612"
    },
    {
      "channel": 3,
      "note": 81,
      "start": 52.9053,
      "duration": 0.0153,
      "velocity": 94,
      "chip": "ym2612"
    },
    {
      "channel": 2,
      "note": 52,
      "start": 52.9067,
      "duration": 0.0151,
      "velocity": 100,
      "chip": "ym2612"
    },
    {
      "channel": 1,
      "note": 68,
      "start": 52.9179,
      "duration": 0.0161,
      "velocity": 124,
      "chip": "ym2612"
    },
    {
      "channel": 4,
      "note": 76,
      "start": 52.9195,
      "duration": 0.016,
      "velocity": 94,
      "chip": "ym2612"
    },
    {
      "channel": 3,
      "note": 81,
      "start": 52.9206,
      "duration": 0.016,
      "velocity": 94,
      "chip": "ym2612"
    },
    {
      "channel": 2,
      "note": 52,
      "start": 52.9218,
      "duration": 0.0159,
      "velocity": 100,
      "chip": "ym2612"
    },
    {
      "channel": 1,
      "note": 66,
      "start": 52.934,
      "duration": 0.0161,
      "velocity": 124,
      "chip": "ym2612"
    },
    {
      "channel": 4,
      "note": 76,
      "start": 52.9354,
      "duration": 0.0161,
      "velocity": 94,
      "chip": "ym2612"
    },
    {
      "channel": 3,
      "note": 81,
      "start": 52.9366,
      "duration": 0.0161,
      "velocity": 94,
      "chip": "ym2612"
    },
    {
      "channel": 2,
      "note": 52,
      "start": 52.9377,
      "duration": 0.0161,
      "velocity": 100,
      "chip": "ym2612"
    },
    {
      "channel": 1,
      "note": 65,
      "start": 52.9501,
      "duration": 0.0161,
      "velocity": 124,
      "chip": "ym2612"
    },
    {
      "channel": 4,
      "note": 76,
      "start": 52.9515,
      "duration": 0.0161,
      "velocity": 94,
      "chip": "ym2612"
    },
    {
      "channel": 3,
      "note": 81,
      "start": 52.9527,
      "duration": 0.0161,
      "velocity": 94,
      "chip": "ym2612"
    },
    {
      "channel": 2,
      "note": 52,
      "start": 52.9538,
      "duration": 0.0161,
      "velocity": 100,
      "chip": "ym2612"
    },
    {
      "channel": 1,
      "note": 64,
      "start": 52.9662,
      "duration": 0.0161,
      "velocity": 124,
      "chip": "ym2612"
    },
    {
      "channel": 4,
      "note": 76,
      "start": 52.9676,
      "duration": 0.0162,
      "velocity": 94,
      "chip": "ym2612"
    },
    {
      "channel": 3,
      "note": 81,
      "start": 52.9688,
      "duration": 0.0161,
      "velocity": 94,
      "chip": "ym2612"
    },
    {
      "channel": 2,
      "note": 52,
      "start": 52.9699,
      "duration": 0.0161,
      "velocity": 100,
      "chip": "ym2612"
    },
    {
      "channel": 1,
      "note": 62,
      "start": 52.9824,
      "duration": 0.0161,
      "velocity": 124,
      "chip": "ym2612"
    },
    {
      "channel": 4,
      "note": 76,
      "start": 52.9838,
      "duration": 0.0161,
      "velocity": 94,
      "chip": "ym2612"
    },
    {
      "channel": 3,
      "note": 81,
      "start": 52.9849,
      "duration": 0.0161,
      "velocity": 94,
      "chip": "ym2612"
    },
    {
      "channel": 2,
      "note": 52,
      "start": 52.986,
      "duration": 0.0161,
      "velocity": 100,
      "chip": "ym2612"
    },
    {
      "channel": 1,
      "note": 61,
      "start": 52.9985,
      "duration": 0.0161,
      "velocity": 124,
      "chip": "ym2612"
    },
    {
      "channel": 4,
      "note": 76,
      "start": 52.9999,
      "duration": 0.0167,
      "velocity": 94,
      "chip": "ym2612"
    },
    {
      "channel": 3,
      "note": 81,
      "start": 53.0009,
      "duration": 0.017,
      "velocity": 94,
      "chip": "ym2612"
    },
    {
      "channel": 2,
      "note": 52,
      "start": 53.0021,
      "duration": 0.0173,
      "velocity": 100,
      "chip": "ym2612"
    },
    {
      "channel": 1,
      "note": 60,
      "start": 53.0146,
      "duration": 0.0166,
      "velocity": 124,
      "chip": "ym2612"
    },
    {
      "channel": 4,
      "note": 76,
      "start": 53.0166,
      "duration": 0.016,
      "velocity": 94,
      "chip": "ym2612"
    },
    {
      "channel": 3,
      "note": 76,
      "start": 53.018,
      "duration": 0.0159,
      "velocity": 94,
      "chip": "ym2612"
    },
    {
      "channel": 2,
      "note": 52,
      "start": 53.0195,
      "duration": 0.0156,
      "velocity": 100,
      "chip": "ym2612"
    },
    {
      "channel": 1,
      "note": 59,
      "start": 53.0312,
      "duration": 0.0166,
      "velocity": 124,
      "chip": "ym2612"
    },
    {
      "channel": 4,
      "note": 76,
      "start": 53.0326,
      "duration": 0.0165,
      "velocity": 94,
      "chip": "ym2612"
    },
    {
      "channel": 3,
      "note": 76,
      "start": 53.0338,
      "duration": 0.0165,
      "velocity": 94,
      "chip": "ym2612"
    },
    {
      "channel": 2,
      "note": 52,
      "start": 53.035,
      "duration": 0.0164,
      "velocity": 100,
      "chip": "ym2612"
    },
    {
      "channel": 1,
      "note": 57,
      "start": 53.0478,
      "duration": 0.0163,
      "velocity": 124,
      "chip": "ym2612"
    },
    {
      "channel": 4,
      "note": 76,
      "start": 53.0492,
      "duration": 0.0163,
      "velocity": 94,
      "chip": "ym2612"
    },
    {
      "channel": 3,
      "note": 76,
      "start": 53.0503,
      "duration": 0.0163,
      "velocity": 94,
      "chip": "ym2612"
    },
    {
      "channel": 2,
      "note": 52,
      "start": 53.0515,
      "duration": 0.0163,
      "velocity": 100,
      "chip": "ym2612"
    },
    {
      "channel": 1,
      "note": 56,
      "start": 53.0641,
      "duration": 0.0148,
      "velocity": 124,
      "chip": "ym2612"
    },
    {
      "channel": 4,
      "note": 76,
      "start": 53.0655,
      "duration": 0.0148,
      "velocity": 94,
      "chip": "ym2612"
    },
    {
      "channel": 3,
      "note": 76,
      "start": 53.0666,
      "duration": 0.0148,
      "velocity": 94,
      "chip": "ym2612"
    },
    {
      "channel": 2,
      "note": 52,
      "start": 53.0677,
      "duration": 0.0149,
      "velocity": 100,
      "chip": "ym2612"
    },
    {
      "channel": 1,
      "note": 55,
      "start": 53.0789,
      "duration": 0.0188,
      "velocity": 124,
      "chip": "ym2612"
    },
    {
      "channel": 4,
      "note": 76,
      "start": 53.0803,
      "duration": 0.0188,
      "velocity": 94,
      "chip": "ym2612"
    },
    {
      "channel": 3,
      "note": 76,
      "start": 53.0815,
      "duration": 0.0188,
      "velocity": 94,
      "chip": "ym2612"
    },
    {
      "channel": 2,
      "note": 52,
      "start": 53.0826,
      "duration": 0.0188,
      "velocity": 100,
      "chip": "ym2612"
    },
    {
      "channel": 1,
      "note": 53,
      "start": 53.0978,
      "duration": 0.0162,
      "velocity": 124,
      "chip": "ym2612"
    },
    {
      "channel": 4,
      "note": 76,
      "start": 53.0992,
      "duration": 0.0161,
      "velocity": 94,
      "chip": "ym2612"
    },
    {
      "channel": 3,
      "note": 76,
      "start": 53.1003,
      "duration": 0.0161,
      "velocity": 94,
      "chip": "ym2612"
    },
    {
      "channel": 2,
      "note": 52,
      "start": 53.1015,
      "duration": 0.0161,
      "velocity": 100,
      "chip": "ym2612"
    },
    {
      "channel": 1,
      "note": 52,
      "start": 53.1139,
      "duration": 0.0157,
      "velocity": 124,
      "chip": "ym2612"
    },
    {
      "channel": 4,
      "note": 76,
      "start": 53.1153,
      "duration": 0.02,
      "velocity": 94,
      "chip": "ym2612"
    },
    {
      "channel": 3,
      "note": 76,
      "start": 53.1164,
      "duration": 0.0202,
      "velocity": 94,
      "chip": "ym2612"
    },
    {
      "channel": 2,
      "note": 52,
      "start": 53.1176,
      "duration": 0.0204,
      "velocity": 100,
      "chip": "ym2612"
    },
    {
      "channel": 1,
      "note": 51,
      "start": 53.1296,
      "duration": 0.0129,
      "velocity": 1,
      "chip": "ym2612"
    },
    {
      "channel": 0,
      "note": 36,
      "start": 53.1338,
      "duration": 0.0129,
      "velocity": 115,
      "chip": "ym2612"
    },
    {
      "channel": 4,
      "note": 76,
      "start": 53.1353,
      "duration": 0.0127,
      "velocity": 94,
      "chip": "ym2612"
    },
    {
      "channel": 3,
      "note": 76,
      "start": 53.1366,
      "duration": 0.0126,
      "velocity": 94,
      "chip": "ym2612"
    },
    {
      "channel": 2,
      "note": 52,
      "start": 53.138,
      "duration": 0.0123,
      "velocity": 100,
      "chip": "ym2612"
    },
    {
      "channel": 1,
      "note": 51,
      "start": 53.145,
      "duration": 0.0139,
      "velocity": 105,
      "chip": "ym2612"
    },
    {
      "channel": 0,
      "note": 36,
      "start": 53.1467,
      "duration": 0.0166,
      "velocity": 115,
      "chip": "ym2612"
    },
    {
      "channel": 4,
      "note": 76,
      "start": 53.148,
      "duration": 0.0166,
      "velocity": 94,
      "chip": "ym2612"
    },
    {
      "channel": 3,
      "note": 76,
      "start": 53.1492,
      "duration": 0.0165,
      "velocity": 94,
      "chip": "ym2612"
    },
    {
      "channel": 2,
      "note": 52,
      "start": 53.1504,
      "duration": 0.0164,
      "velocity": 100,
      "chip": "ym2612"
    },
    {
      "channel": 1,
      "note": 105,
      "start": 53.159,
      "duration": 0.0161,
      "velocity": 105,
      "chip": "ym2612"
    },
    {
      "channel": 0,
      "note": 37,
      "start": 53.1634,
      "duration": 0.0161,
      "velocity": 115,
      "chip": "ym2612"
    },
    {
      "channel": 4,
      "note": 76,
      "start": 53.1646,
      "duration": 0.0161,
      "velocity": 94,
      "chip": "ym2612"
    },
    {
      "channel": 3,
      "note": 76,
      "start": 53.1657,
      "duration": 0.0161,
      "velocity": 94,
      "chip": "ym2612"
    },
    {
      "channel": 2,
      "note": 52,
      "start": 53.1668,
      "duration": 0.0162,
      "velocity": 100,
      "chip": "ym2612"
    },
    {
      "channel": 1,
      "note": 105,
      "start": 53.1751,
      "duration": 0.0161,
      "velocity": 105,
      "chip": "ym2612"
    },
    {
      "channel": 0,
      "note": 37,
      "start": 53.1794,
      "duration": 0.0134,
      "velocity": 115,
      "chip": "ym2612"
    },
    {
      "channel": 4,
      "note": 76,
      "start": 53.1807,
      "duration": 0.0157,
      "velocity": 94,
      "chip": "ym2612"
    },
    {
      "channel": 3,
      "note": 76,
      "start": 53.1818,
      "duration": 0.0157,
      "velocity": 94,
      "chip": "ym2612"
    },
    {
      "channel": 2,
      "note": 52,
      "start": 53.1829,
      "duration": 0.0157,
      "velocity": 100,
      "chip": "ym2612"
    },
    {
      "channel": 1,
      "note": 105,
      "start": 53.1911,
      "duration": 0.0161,
      "velocity": 105,
      "chip": "ym2612"
    },
    {
      "channel": 0,
      "note": 38,
      "start": 53.1928,
      "duration": 0.0161,
      "velocity": 115,
      "chip": "ym2612"
    },
    {
      "channel": 4,
      "note": 76,
      "start": 53.1963,
      "duration": 0.0141,
      "velocity": 94,
      "chip": "ym2612"
    },
    {
      "channel": 3,
      "note": 76,
      "start": 53.1975,
      "duration": 0.0141,
      "velocity": 94,
      "chip": "ym2612"
    },
    {
      "channel": 2,
      "note": 52,
      "start": 53.1986,
      "duration": 0.0141,
      "velocity": 100,
      "chip": "ym2612"
    },
    {
      "channel": 1,
      "note": 105,
      "start": 53.2072,
      "duration": 0.0161,
      "velocity": 105,
      "chip": "ym2612"
    },
    {
      "channel": 0,
      "note": 38,
      "start": 53.2089,
      "duration": 0.0162,
      "velocity": 115,
      "chip": "ym2612"
    },
    {
      "channel": 4,
      "note": 76,
      "start": 53.2104,
      "duration": 0.0158,
      "velocity": 94,
      "chip": "ym2612"
    },
    {
      "channel": 3,
      "note": 76,
      "start": 53.2116,
      "duration": 0.0185,
      "velocity": 94,
      "chip": "ym2612"
    },
    {
      "channel": 2,
      "note": 52,
      "start": 53.2127,
      "duration": 0.0185,
      "velocity": 100,
      "chip": "ym2612"
    },
    {
      "channel": 1,
      "note": 105,
      "start": 53.2233,
      "duration": 0.0178,
      "velocity": 124,
      "chip": "ym2612"
    },
    {
      "channel": 0,
      "note": 39,
      "start": 53.2251,
      "duration": 0.0223,
      "velocity": 115,
      "chip": "ym2612"
    },
    {
      "channel": 4,
      "note": 76,
      "start": 53.2262,
      "duration": 0.0226,
      "velocity": 94,
      "chip": "ym2612"
    },
    {
      "channel": 3,
      "note": 76,
      "start": 53.2301,
      "duration": 0.0202,
      "velocity": 94,
      "chip": "ym2612"
    },
    {
      "channel": 2,
      "note": 52,
      "start": 53.2312,
      "duration": 0.0204,
      "velocity": 100,
      "chip": "ym2612"
    },
    {
      "channel": 1,
      "note": 64,
      "start": 53.2412,
      "duration": 0.0149,
      "velocity": 124,
      "chip": "ym2612"
    },
    {
      "channel": 0,
      "note": 36,
      "start": 53.2474,
      "duration": 0.0104,
      "velocity": 115,
      "chip": "ym2612"
    },
    {
      "channel": 4,
      "note": 81,
      "start": 53.2488,
      "duration": 0.0102,
      "velocity": 94,
      "chip": "ym2612"
    },
    {
      "channel": 3,
      "note": 76,
      "start": 53.2502,
      "duration": 0.0124,
      "velocity": 94,
      "chip": "ym2612"
    },
    {
      "channel": 2,
      "note": 52,
      "start": 53.2517,
      "duration": 0.0121,
      "velocity": 100,
      "chip": "ym2612"
    },
    {
      "channel": 1,
      "note": 64,
      "start": 53.2561,
      "duration": 0.0156,
      "velocity": 124,
      "chip": "ym2612"
    },
    {
      "channel": 0,
      "note": 36,
      "start": 53.2578,
      "duration": 0.0155,
      "velocity": 115,
      "chip": "ym2612"
    },
    {
      "channel": 4,
      "note": 81,
      "start": 53.259,
      "duration": 0.0155,
      "velocity": 94,
      "chip": "ym2612"
    },
    {
      "channel": 3,
      "note": 76,
      "start": 53.2627,
      "duration": 0.013,
      "velocity": 94,
      "chip": "ym2612"
    },
    {
      "channel": 2,
      "note": 52,
      "start": 53.2638,
      "duration": 0.0134,
      "velocity": 100,
      "chip": "ym2612"
    },
    {
      "channel": 1,
      "note": 64,
      "start": 53.2717,
      "duration": 0.0161,
      "velocity": 124,
      "chip": "ym2612"
    },
    {
      "channel": 0,
      "note": 37,
      "start": 53.2733,
      "duration": 0.0161,
      "velocity": 115,
      "chip": "ym2612"
    },
    {
      "channel": 4,
      "note": 81,
      "start": 53.2745,
      "duration": 0.0161,
      "velocity": 94,
      "chip": "ym2612"
    },
    {
      "channel": 3,
      "note": 76,
      "start": 53.2757,
      "duration": 0.0161,
      "velocity": 94,
      "chip": "ym2612"
    },
    {
      "channel": 2,
      "note": 52,
      "start": 53.2771,
      "duration": 0.0157,
      "velocity": 100,
      "chip": "ym2612"
    },
    {
      "channel": 1,
      "note": 64,
      "start": 53.2878,
      "duration": 0.0161,
      "velocity": 124,
      "chip": "ym2612"
    },
    {
      "channel": 0,
      "note": 37,
      "start": 53.2894,
      "duration": 0.0161,
      "velocity": 115,
      "chip": "ym2612"
    },
    {
      "channel": 4,
      "note": 81,
      "start": 53.2906,
      "duration": 0.0161,
      "velocity": 94,
      "chip": "ym2612"
    },
    {
      "channel": 3,
      "note": 76,
      "start": 53.2918,
      "duration": 0.0161,
      "velocity": 94,
      "chip": "ym2612"
    },
    {
      "channel": 2,
      "note": 52,
      "start": 53.2929,
      "duration": 0.0161,
      "velocity": 100,
      "chip": "ym2612"
    },
    {
      "channel": 1,
      "note": 64,
      "start": 53.3039,
      "duration": 0.0161,
      "velocity": 124,
      "chip": "ym2612"
    },
    {
      "channel": 0,
      "note": 38,
      "start": 53.3055,
      "duration": 0.0161,
      "velocity": 115,
      "chip": "ym2612"
    },
    {
      "channel": 4,
      "note": 81,
      "start": 53.3067,
      "duration": 0.0161,
      "velocity": 94,
      "chip": "ym2612"
    },
    {
      "channel": 3,
      "note": 76,
      "start": 53.3079,
      "duration": 0.0161,
      "velocity": 94,
      "chip": "ym2612"
    },
    {
      "channel": 2,
      "note": 52,
      "start": 53.309,
      "duration": 0.0161,
      "velocity": 100,
      "chip": "ym2612"
    },
    {
      "channel": 1,
      "note": 64,
      "start": 53.32,
      "duration": 0.0161,
      "velocity": 124,
      "chip": "ym2612"
    },
    {
      "channel": 0,
      "note": 38,
      "start": 53.3216,
      "duration": 0.0162,
      "velocity": 115,
      "chip": "ym2612"
    },
    {
      "channel": 4,
      "note": 81,
      "start": 53.3228,
      "duration": 0.0161,
      "velocity": 94,
      "chip": "ym2612"
    },
    {
      "channel": 3,
      "note": 76,
      "start": 53.324,
      "duration": 0.0161,
      "velocity": 94,
      "chip": "ym2612"
    },
    {
      "channel": 2,
      "note": 52,
      "start": 53.3251,
      "duration": 0.0161,
      "velocity": 100,
      "chip": "ym2612"
    },
    {
      "channel": 1,
      "note": 64,
      "start": 53.3361,
      "duration": 0.0178,
      "velocity": 105,
      "chip": "ym2612"
    },
    {
      "channel": 0,
      "note": 39,
      "start": 53.3378,
      "duration": 0.0178,
      "velocity": 115,
      "chip": "ym2612"
    },
    {
      "channel": 4,
      "note": 81,
      "start": 53.3389,
      "duration": 0.0179,
      "velocity": 94,
      "chip": "ym2612"
    },
    {
      "channel": 3,
      "note": 76,
      "start": 53.3401,
      "duration": 0.0181,
      "velocity": 94,
      "chip": "ym2612"
    },
    {
      "channel": 2,
      "note": 52,
      "start": 53.3412,
      "duration": 0.0185,
      "velocity": 100,
      "chip": "ym2612"
    },
    {
      "channel": 1,
      "note": 105,
      "start": 53.3539,
      "duration": 0.0144,
      "velocity": 105,
      "chip": "ym2612"
    },
    {
      "channel": 0,
      "note": 39,
      "start": 53.3556,
      "duration": 0.0144,
      "velocity": 115,
      "chip": "ym2612"
    },
    {
      "channel": 4,
      "note": 81,
      "start": 53.3568,
      "duration": 0.0143,
      "velocity": 94,
      "chip": "ym2612"
    },
    {
      "channel": 3,
      "note": 81,
      "start": 53.3583,
      "duration": 0.0141,
      "velocity": 94,
      "chip": "ym2612"
    },
    {
      "channel": 2,
      "note": 52,
      "start": 53.3597,
      "duration": 0.0139,
      "velocity": 100,
      "chip": "ym2612"
    },
    {
      "channel": 1,
      "note": 105,
      "start": 53.3683,
      "duration": 0.0161,
      "velocity": 105,
      "chip": "ym2612"
    },
    {
      "channel": 0,
      "note": 40,
      "start": 53.37,
      "duration": 0.0161,
      "velocity": 115,
      "chip": "ym2612"
    },
    {
      "channel": 4,
      "note": 81,
      "start": 53.3712,
      "duration": 0.016,
      "velocity": 94,
      "chip": "ym2612"
    },
    {
      "channel": 3,
      "note": 81,
      "start": 53.3724,
      "duration": 0.016,
      "velocity": 94,
      "chip": "ym2612"
    },
    {
      "channel": 2,
      "note": 52,
      "start": 53.3736,
      "duration": 0.0159,
      "velocity": 100,
      "chip": "ym2612"
    },
    {
      "channel": 1,
      "note": 105,
      "start": 53.3844,
      "duration": 0.0161,
      "velocity": 105,
      "chip": "ym2612"
    },
    {
      "channel": 0,
      "note": 40,
      "start": 53.3861,
      "duration": 0.0161,
      "velocity": 115,
      "chip": "ym2612"
    },
    {
      "channel": 4,
      "note": 81,
      "start": 53.3872,
      "duration": 0.0161,
      "velocity": 94,
      "chip": "ym2612"
    },
    {
      "channel": 3,
      "note": 81,
      "start": 53.3883,
      "duration": 0.0161,
      "velocity": 94,
      "chip": "ym2612"
    },
    {
      "channel": 2,
      "note": 52,
      "start": 53.3895,
      "duration": 0.0161,
      "velocity": 100,
      "chip": "ym2612"
    },
    {
      "channel": 1,
      "note": 105,
      "start": 53.4005,
      "duration": 0.0161,
      "velocity": 105,
      "chip": "ym2612"
    },
    {
      "channel": 0,
      "note": 40,
      "start": 53.4022,
      "duration": 0.0161,
      "velocity": 115,
      "chip": "ym2612"
    },
    {
      "channel": 4,
      "note": 81,
      "start": 53.4033,
      "duration": 0.0161,
      "velocity": 94,
      "chip": "ym2612"
    },
    {
      "channel": 3,
      "note": 81,
      "start": 53.4044,
      "duration": 0.0161,
      "velocity": 94,
      "chip": "ym2612"
    },
    {
      "channel": 2,
      "note": 52,
      "start": 53.4056,
      "duration": 0.0161,
      "velocity": 100,
      "chip": "ym2612"
    },
    {
      "channel": 1,
      "note": 105,
      "start": 53.4166,
      "duration": 0.0161,
      "velocity": 105,
      "chip": "ym2612"
    },
    {
      "channel": 0,
      "note": 41,
      "start": 53.4183,
      "duration": 0.0161,
      "velocity": 115,
      "chip": "ym2612"
    },
    {
      "channel": 4,
      "note": 81,
      "start": 53.4194,
      "duration": 0.0161,
      "velocity": 94,
      "chip": "ym2612"
    },
    {
      "channel": 3,
      "note": 81,
      "start": 53.4205,
      "duration": 0.0161,
      "velocity": 94,
      "chip": "ym2612"
    },
    {
      "channel": 2,
      "note": 52,
      "start": 53.4217,
      "duration": 0.0161,
      "velocity": 100,
      "chip": "ym2612"
    },
    {
      "channel": 1,
      "note": 105,
      "start": 53.4327,
      "duration": 0.0161,
      "velocity": 105,
      "chip": "ym2612"
    },
    {
      "channel": 0,
      "note": 41,
      "start": 53.4343,
      "duration": 0.0161,
      "velocity": 115,
      "chip": "ym2612"
    },
    {
      "channel": 4,
      "note": 81,
      "start": 53.4355,
      "duration": 0.0161,
      "velocity": 94,
      "chip": "ym2612"
    },
    {
      "channel": 3,
      "note": 81,
      "start": 53.4366,
      "duration": 0.0161,
      "velocity": 94,
      "chip": "ym2612"
    },
    {
      "channel": 2,
      "note": 52,
      "start": 53.4378,
      "duration": 0.0161,
      "velocity": 100,
      "chip": "ym2612"
    },
    {
      "channel": 1,
      "note": 105,
      "start": 53.4488,
      "duration": 0.0178,
      "velocity": 124,
      "chip": "ym2612"
    },
    {
      "channel": 0,
      "note": 42,
      "start": 53.4504,
      "duration": 0.0179,
      "velocity": 115,
      "chip": "ym2612"
    },
    {
      "channel": 4,
      "note": 81,
      "start": 53.4516,
      "duration": 0.0181,
      "velocity": 94,
      "chip": "ym2612"
    },
    {
      "channel": 3,
      "note": 81,
      "start": 53.4527,
      "duration": 0.0183,
      "velocity": 94,
      "chip": "ym2612"
    },
    {
      "channel": 2,
      "note": 52,
      "start": 53.4539,
      "duration": 0.0185,
      "velocity": 100,
      "chip": "ym2612"
    },
    {
      "channel": 1,
      "note": 64,
      "start": 53.4666,
      "duration": 0.0144,
      "velocity": 124,
      "chip": "ym2612"
    },
    {
      "channel": 0,
      "note": 42,
      "start": 53.4683,
      "duration": 0.0144,
      "velocity": 115,
      "chip": "ym2612"
    },
    {
      "channel": 4,
      "note": 81,
      "start": 53.4697,
      "duration": 0.0142,
      "velocity": 94,
      "chip": "ym2612"
    },
    {
      "channel": 3,
      "note": 81,
      "start": 53.471,
      "duration": 0.0141,
      "velocity": 94,
      "chip": "ym2612"
    },
    {
      "channel": 2,
      "note": 52,
      "start": 53.4724,
      "duration": 0.0139,
      "velocity": 100,
      "chip": "ym2612"
    },
    {
      "channel": 1,
      "note": 64,
      "start": 53.481,
      "duration": 0.0163,
      "velocity": 124,
      "chip": "ym2612"
    },
    {
      "channel": 0,
      "note": 43,
      "start": 53.4827,
      "duration": 0.0163,
      "velocity": 115,
      "chip": "ym2612"
    },
    {
      "channel": 4,
      "note": 81,
      "start": 53.4839,
      "duration": 0.0162,
      "velocity": 94,
      "chip": "ym2612"
    },
    {
      "channel": 3,
      "note": 81,
      "start": 53.4851,
      "duration": 0.0162,
      "velocity": 94,
      "chip": "ym2612"
    },
    {
      "channel": 2,
      "note": 52,
      "start": 53.4863,
      "duration": 0.0161,
      "velocity": 100,
      "chip": "ym2612"
    },
    {
      "channel": 1,
      "note": 64,
      "start": 53.4973,
      "duration": 0.0167,
      "velocity": 124,
      "chip": "ym2612"
    },
    {
      "channel": 0,
      "note": 43,
      "start": 53.499,
      "duration": 0.0167,
      "velocity": 115,
      "chip": "ym2612"
    },
    {
      "channel": 4,
      "note": 81,
      "start": 53.5001,
      "duration": 0.0167,
      "velocity": 94,
      "chip": "ym2612"
    },
    {
      "channel": 3,
      "note": 81,
      "start": 53.5013,
      "duration": 0.0167,
      "velocity": 94,
      "chip": "ym2612"
    },
    {
      "channel": 2,
      "note": 52,
      "start": 53.5024,
      "duration": 0.0167,
      "velocity": 100,
      "chip": "ym2612"
    },
    {
      "channel": 1,
      "note": 64,
      "start": 53.514,
      "duration": 0.0163,
      "velocity": 124,
      "chip": "ym2612"
    },
    {
      "channel": 0,
      "note": 44,
      "start": 53.5156,
      "duration": 0.0163,
      "velocity": 115,
      "chip": "ym2612"
    },
    {
      "channel": 4,
      "note": 81,
      "start": 53.5168,
      "duration": 0.0163,
      "velocity": 94,
      "chip": "ym2612"
    },
    {
      "channel": 3,
      "note": 81,
      "start": 53.5179,
      "duration": 0.0163,
      "velocity": 94,
      "chip": "ym2612"
    },
    {
      "channel": 2,
      "note": 52,
      "start": 53.5191,
      "duration": 0.0163,
      "velocity": 100,
      "chip": "ym2612"
    },
    {
      "channel": 1,
      "note": 64,
      "start": 53.5303,
      "duration": 0.0151,
      "velocity": 124,
      "chip": "ym2612"
    },
    {
      "channel": 0,
      "note": 44,
      "start": 53.5319,
      "duration": 0.0151,
      "velocity": 115,
      "chip": "ym2612"
    },
    {
      "channel": 4,
      "note": 81,
      "start": 53.5331,
      "duration": 0.0151,
      "velocity": 94,
      "chip": "ym2612"
    },
    {
      "channel": 3,
      "note": 81,
      "start": 53.5343,
      "duration": 0.0151,
      "velocity": 94,
      "chip": "ym2612"
    },
    {
      "channel": 2,
      "note": 52,
      "start": 53.5354,
      "duration": 0.0151,
      "velocity": 100,
      "chip": "ym2612"
    },
    {
      "channel": 1,
      "note": 64,
      "start": 53.5454,
      "duration": 0.0186,
      "velocity": 124,
      "chip": "ym2612"
    },
    {
      "channel": 0,
      "note": 44,
      "start": 53.5471,
      "duration": 0.0186,
      "velocity": 115,
      "chip": "ym2612"
    },
    {
      "channel": 4,
      "note": 81,
      "start": 53.5482,
      "duration": 0.0186,
      "velocity": 94,
      "chip": "ym2612"
    },
    {
      "channel": 3,
      "note": 81,
      "start": 53.5493,
      "duration": 0.0186,
      "velocity": 94,
      "chip": "ym2612"
    },
    {
      "channel": 2,
      "note": 52,
      "start": 53.5505,
      "duration": 0.0186,
      "velocity": 100,
      "chip": "ym2612"
    },
    {
      "channel": 1,
      "note": 64,
      "start": 53.564,
      "duration": 0.018,
      "velocity": 105,
      "chip": "ym2612"
    },
    {
      "channel": 0,
      "note": 45,
      "start": 53.5656,
      "duration": 0.018,
      "velocity": 115,
      "chip": "ym2612"
    },
    {
      "channel": 4,
      "note": 81,
      "start": 53.5668,
      "duration": 0.0183,
      "velocity": 94,
      "chip": "ym2612"
    },
    {
      "channel": 3,
      "note": 81,
      "start": 53.5679,
      "duration": 0.0186,
      "velocity": 94,
      "chip": "ym2612"
    },
    {
      "channel": 2,
      "note": 52,
      "start": 53.5691,
      "duration": 0.0189,
      "velocity": 100,
      "chip": "ym2612"
    },
    {
      "channel": 1,
      "note": 105,
      "start": 53.582,
      "duration": 0.0141,
      "velocity": 105,
      "chip": "ym2612"
    },
    {
      "channel": 0,
      "note": 45,
      "start": 53.5837,
      "duration": 0.0141,
      "velocity": 115,
      "chip": "ym2612"
    },
    {
      "channel": 4,
      "note": 81,
      "start": 53.5852,
      "duration": 0.0139,
      "velocity": 94,
      "chip": "ym2612"
    },
    {
      "channel": 3,
      "note": 81,
      "start": 53.5866,
      "duration": 0.0137,
      "velocity": 94,
      "chip": "ym2612"
    },
    {
      "channel": 2,
      "note": 52,
      "start": 53.588,
      "duration": 0.0134,
      "velocity": 100,
      "chip": "ym2612"
    },
    {
      "channel": 1,
      "note": 105,
      "start": 53.5961,
      "duration": 0.0137,
      "velocity": 105,
      "chip": "ym2612"
    },
    {
      "channel": 0,
      "note": 46,
      "start": 53.5978,
      "duration": 0.0139,
      "velocity": 115,
      "chip": "ym2612"
    },
    {
      "channel": 4,
      "note": 81,
      "start": 53.599,
      "duration": 0.0139,
      "velocity": 94,
      "chip": "ym2612"
    },
    {
      "channel": 3,
      "note": 81,
      "start": 53.6002,
      "duration": 0.0139,
      "velocity": 94,
      "chip": "ym2612"
    },
    {
      "channel": 2,
      "note": 52,
      "start": 53.6014,
      "duration": 0.0138,
      "velocity": 100,
      "chip": "ym2612"
    },
    {
      "channel": 1,
      "note": 105,
      "start": 53.6098,
      "duration": 0.0161,
      "velocity": 105,
      "chip": "ym2612"
    },
    {
      "channel": 0,
      "note": 46,
      "start": 53.6117,
      "duration": 0.0186,
      "velocity": 115,
      "chip": "ym2612"
    },
    {
      "channel": 4,
      "note": 81,
      "start": 53.613,
      "duration": 0.0185,
      "velocity": 94,
      "chip": "ym2612"
    },
    {
      "channel": 3,
      "note": 81,
      "start": 53.6141,
      "duration": 0.0185,
      "velocity": 94,
      "chip": "ym2612"
    },
    {
      "channel": 2,
      "note": 52,
      "start": 53.6152,
      "duration": 0.0186,
      "velocity": 100,
      "chip": "ym2612"
    },
    {
      "channel": 1,
      "note": 105,
      "start": 53.6259,
      "duration": 0.0161,
      "velocity": 105,
      "chip": "ym2612"
    },
    {
      "channel": 0,
      "note": 47,
      "start": 53.6303,
      "duration": 0.0161,
      "velocity": 115,
      "chip": "ym2612"
    },
    {
      "channel": 4,
      "note": 81,
      "start": 53.6315,
      "duration": 0.0161,
      "velocity": 94,
      "chip": "ym2612"
    },
    {
      "channel": 3,
      "note": 81,
      "start": 53.6326,
      "duration": 0.0161,
      "velocity": 94,
      "chip": "ym2612"
    },
    {
      "channel": 2,
      "note": 52,
      "start": 53.6338,
      "duration": 0.0161,
      "velocity": 100,
      "chip": "ym2612"
    },
    {
      "channel": 1,
      "note": 105,
      "start": 53.642,
      "duration": 0.0161,
      "velocity": 105,
      "chip": "ym2612"
    },
    {
      "channel": 0,
      "note": 47,
      "start": 53.6464,
      "duration": 0.0133,
      "velocity": 115,
      "chip": "ym2612"
    },
    {
      "channel": 4,
      "note": 81,
      "start": 53.6476,
      "duration": 0.0157,
      "velocity": 94,
      "chip": "ym2612"
    },
    {
      "channel": 3,
      "note": 81,
      "start": 53.6487,
      "duration": 0.0157,
      "velocity": 94,
      "chip": "ym2612"
    },
    {
      "channel": 2,
      "note": 52,
      "start": 53.6499,
      "duration": 0.0157,
      "velocity": 100,
      "chip": "ym2612"
    },
    {
      "channel": 1,
      "note": 105,
      "start": 53.6581,
      "duration": 0.0161,
      "velocity": 105,
      "chip": "ym2612"
    },
    {
      "channel": 0,
      "note": 47,
      "start": 53.6597,
      "duration": 0.0161,
      "velocity": 115,
      "chip": "ym2612"
    },
    {
      "channel": 4,
      "note": 81,
      "start": 53.6633,
      "duration": 0.0141,
      "velocity": 94,
      "chip": "ym2612"
    },
    {
      "channel": 3,
      "note": 81,
      "start": 53.6644,
      "duration": 0.0141,
      "velocity": 94,
      "chip": "ym2612"
    },
    {
      "channel": 2,
      "note": 52,
      "start": 53.6656,
      "duration": 0.0141,
      "velocity": 100,
      "chip": "ym2612"
    },
    {
      "channel": 1,
      "note": 105,
      "start": 53.6742,
      "duration": 0.0183,
      "velocity": 124,
      "chip": "ym2612"
    },
    {
      "channel": 0,
      "note": 48,
      "start": 53.6759,
      "duration": 0.0218,
      "velocity": 115,
      "chip": "ym2612"
    },
    {
      "channel": 4,
      "note": 81,
      "start": 53.6773,
      "duration": 0.0216,
      "velocity": 94,
      "chip": "ym2612"
    },
    {
      "channel": 3,
      "note": 81,
      "start": 53.6785,
      "duration": 0.0219,
      "velocity": 94,
      "chip": "ym2612"
    },
    {
      "channel": 2,
      "note": 52,
      "start": 53.6796,
      "duration": 0.0222,
      "velocity": 100,
      "chip": "ym2612"
    },
    {
      "channel": 1,
      "note": 78,
      "start": 53.6925,
      "duration": 0.0144,
      "velocity": 124,
      "chip": "ym2612"
    },
    {
      "channel": 0,
      "note": 48,
      "start": 53.6977,
      "duration": 0.0111,
      "velocity": 115,
      "chip": "ym2612"
    },
    {
      "channel": 4,
      "note": 81,
      "start": 53.699,
      "duration": 0.0139,
      "velocity": 94,
      "chip": "ym2612"
    },
    {
      "channel": 3,
      "note": 81,
      "start": 53.7004,
      "duration": 0.0137,
      "velocity": 94,
      "chip": "ym2612"
    },
    {
      "channel": 2,
      "note": 52,
      "start": 53.7018,
      "duration": 0.0134,
      "velocity": 100,
      "chip": "ym2612"
    },
    {
      "channel": 1,
      "note": 76,
      "start": 53.7069,
      "duration": 0.0161,
      "velocity": 124,
      "chip": "ym2612"
    },
    {
      "channel": 0,
      "note": 49,
      "start": 53.7088,
      "duration": 0.0153,
      "velocity": 1,
      "chip": "ym2612"
    },
    {
      "channel": 4,
      "note": 81,
      "start": 53.7128,
      "duration": 0.0124,
      "velocity": 94,
      "chip": "ym2612"
    },
    {
      "channel": 3,
      "note": 81,
      "start": 53.714,
      "duration": 0.0124,
      "velocity": 94,
      "chip": "ym2612"
    },
    {
      "channel": 2,
      "note": 52,
      "start": 53.7152,
      "duration": 0.0147,
      "velocity": 100,
      "chip": "ym2612"
    },
    {
      "channel": 1,
      "note": 75,
      "start": 53.723,
      "duration": 0.0161,
      "velocity": 124,
      "chip": "ym2612"
    },
    {
      "channel": 4,
      "note": 81,
      "start": 53.7252,
      "duration": 0.0153,
      "velocity": 94,
      "chip": "ym2612"
    },
    {
      "channel": 3,
      "note": 81,
      "start": 53.7264,
      "duration": 0.0153,
      "velocity": 94,
      "chip": "ym2612"
    },
    {
      "channel": 2,
      "note": 52,
      "start": 53.7299,
      "duration": 0.0129,
      "velocity": 100,
      "chip": "ym2612"
    },
    {
      "channel": 1,
      "note": 74,
      "start": 53.7391,
      "duration": 0.0161,
      "velocity": 124,
      "chip": "ym2612"
    },
    {
      "channel": 4,
      "note": 81,
      "start": 53.7405,
      "duration": 0.0161,
      "velocity": 94,
      "chip": "ym2612"
    },
    {
      "channel": 3,
      "note": 81,
      "start": 53.7417,
      "duration": 0.0161,
      "velocity": 94,
      "chip": "ym2612"
    },
    {
      "channel": 2,
      "note": 52,
      "start": 53.7427,
      "duration": 0.0161,
      "velocity": 100,
      "chip": "ym2612"
    },
    {
      "channel": 1,
      "note": 72,
      "start": 53.7552,
      "duration": 0.0161,
      "velocity": 124,
      "chip": "ym2612"
    },
    {
      "channel": 4,
      "note": 81,
      "start": 53.7566,
      "duration": 0.0161,
      "velocity": 94,
      "chip": "ym2612"
    },
    {
      "channel": 3,
      "note": 81,
      "start": 53.7578,
      "duration": 0.0161,
      "velocity": 94,
      "chip": "ym2612"
    },
    {
      "channel": 2,
      "note": 52,
      "start": 53.7589,
      "duration": 0.0161,
      "velocity": 100,
      "chip": "ym2612"
    },
    {
      "channel": 1,
      "note": 71,
      "start": 53.7713,
      "duration": 0.0161,
      "velocity": 124,
      "chip": "ym2612"
    },
    {
      "channel": 4,
      "note": 81,
      "start": 53.7727,
      "duration": 0.0161,
      "velocity": 94,
      "chip": "ym2612"
    },
    {
      "channel": 3,
      "note": 81,
      "start": 53.7738,
      "duration": 0.0161,
      "velocity": 94,
      "chip": "ym2612"
    },
    {
      "channel": 2,
      "note": 52,
      "start": 53.775,
      "duration": 0.0161,
      "velocity": 100,
      "chip": "ym2612"
    },
    {
      "channel": 1,
      "note": 70,
      "start": 53.7874,
      "duration": 0.0161,
      "velocity": 124,
      "chip": "ym2612"
    },
    {
      "channel": 4,
      "note": 81,
      "start": 53.7888,
      "duration": 0.0168,
      "velocity": 94,
      "chip": "ym2612"
    },
    {
      "channel": 3,
      "note": 81,
      "start": 53.7899,
      "duration": 0.017,
      "velocity": 94,
      "chip": "ym2612"
    },
    {
      "channel": 2,
      "note": 52,
      "start": 53.7911,
      "duration": 0.0172,
      "velocity": 100,
      "chip": "ym2612"
    },
    {
      "channel": 1,
      "note": 69,
      "start": 53.8035,
      "duration": 0.0161,
      "velocity": 124,
      "chip": "ym2612"
    },
    {
      "channel": 4,
      "note": 76,
      "start": 53.8056,
      "duration": 0.0155,
      "velocity": 94,
      "chip": "ym2612"
    },
    {
      "channel": 3,
      "note": 81,
      "start": 53.8069,
      "duration": 0.0154,
      "velocity": 94,
      "chip": "ym2612"
    },
    {
      "channel": 2,
      "note": 52,
      "start": 53.8084,
      "duration": 0.0151,
      "velocity": 100,
      "chip": "ym2612"
    },
    {
      "channel": 1,
      "note": 68,
      "start": 53.8196,
      "duration": 0.0161,
      "velocity": 124,
      "chip": "ym2612"
    },
    {
      "channel": 4,
      "note": 76,
      "start": 53.8211,
      "duration": 0.016,
      "velocity": 94,
      "chip": "ym2612"
    },
    {
      "channel": 3,
      "note": 81,
      "start": 53.8223,
      "duration": 0.0159,
      "velocity": 94,
      "chip": "ym2612"
    },
    {
      "channel": 2,
      "note": 52,
      "start": 53.8235,
      "duration": 0.0159,
      "velocity": 100,
      "chip": "ym2612"
    },
    {
      "channel": 1,
      "note": 66,
      "start": 53.8357,
      "duration": 0.0161,
      "velocity": 124,
      "chip": "ym2612"
    },
    {
      "channel": 4,
      "note": 76,
      "start": 53.8371,
      "duration": 0.0161,
      "velocity": 94,
      "chip": "ym2612"
    },
    {
      "channel": 3,
      "note": 81,
      "start": 53.8382,
      "duration": 0.0161,
      "velocity": 94,
      "chip": "ym2612"
    },
    {
      "channel": 2,
      "note": 52,
      "start": 53.8394,
      "duration": 0.0161,
      "velocity": 100,
      "chip": "ym2612"
    },
    {
      "channel": 1,
      "note": 65,
      "start": 53.8518,
      "duration": 0.0162,
      "velocity": 124,
      "chip": "ym2612"
    },
    {
      "channel": 4,
      "note": 76,
      "start": 53.8532,
      "duration": 0.0161,
      "velocity": 94,
      "chip": "ym2612"
    },
    {
      "channel": 3,
      "note": 81,
      "start": 53.8543,
      "duration": 0.0161,
      "velocity": 94,
      "chip": "ym2612"
    },
    {
      "channel": 2,
      "note": 52,
      "start": 53.8555,
      "duration": 0.0161,
      "velocity": 100,
      "chip": "ym2612"
    },
    {
      "channel": 1,
      "note": 64,
      "start": 53.8679,
      "duration": 0.0161,
      "velocity": 124,
      "chip": "ym2612"
    },
    {
      "channel": 4,
      "note": 76,
      "start": 53.8693,
      "duration": 0.0162,
      "velocity": 94,
      "chip": "ym2612"
    },
    {
      "channel": 3,
      "note": 81,
      "start": 53.8704,
      "duration": 0.0161,
      "velocity": 94,
      "chip": "ym2612"
    },
    {
      "channel": 2,
      "note": 52,
      "start": 53.8715,
      "duration": 0.0161,
      "velocity": 100,
      "chip": "ym2612"
    },
    {
      "channel": 1,
      "note": 62,
      "start": 53.884,
      "duration": 0.0161,
      "velocity": 124,
      "chip": "ym2612"
    },
    {
      "channel": 4,
      "note": 76,
      "start": 53.8854,
      "duration": 0.0161,
      "velocity": 94,
      "chip": "ym2612"
    },
    {
      "channel": 3,
      "note": 81,
      "start": 53.8865,
      "duration": 0.0161,
      "velocity": 94,
      "chip": "ym2612"
    },
    {
      "channel": 2,
      "note": 52,
      "start": 53.8876,
      "duration": 0.0161,
      "velocity": 100,
      "chip": "ym2612"
    },
    {
      "channel": 1,
      "note": 61,
      "start": 53.9001,
      "duration": 0.0161,
      "velocity": 124,
      "chip": "ym2612"
    },
    {
      "channel": 4,
      "note": 76,
      "start": 53.9015,
      "duration": 0.0167,
      "velocity": 94,
      "chip": "ym2612"
    },
    {
      "channel": 3,
      "note": 81,
      "start": 53.9027,
      "duration": 0.0169,
      "velocity": 94,
      "chip": "ym2612"
    },
    {
      "channel": 2,
      "note": 52,
      "start": 53.9037,
      "duration": 0.0173,
      "velocity": 100,
      "chip": "ym2612"
    },
    {
      "channel": 1,
      "note": 60,
      "start": 53.9162,
      "duration": 0.0161,
      "velocity": 124,
      "chip": "ym2612"
    },
    {
      "channel": 4,
      "note": 76,
      "start": 53.9183,
      "duration": 0.0155,
      "velocity": 94,
      "chip": "ym2612"
    },
    {
      "channel": 3,
      "note": 76,
      "start": 53.9196,
      "duration": 0.0153,
      "velocity": 94,
      "chip": "ym2612"
    },
    {
      "channel": 2,
      "note": 52,
      "start": 53.9211,
      "duration": 0.0151,
      "velocity": 100,
      "chip": "ym2612"
    },
    {
      "channel": 1,
      "note": 59,
      "start": 53.9323,
      "duration": 0.0161,
      "velocity": 124,
      "chip": "ym2612"
    },
    {
      "channel": 4,
      "note": 76,
      "start": 53.9338,
      "duration": 0.016,
      "velocity": 94,
      "chip": "ym2612"
    },
    {
      "channel": 3,
      "note": 76,
      "start": 53.935,
      "duration": 0.016,
      "velocity": 94,
      "chip": "ym2612"
    },
    {
      "channel": 2,
      "note": 52,
      "start": 53.9362,
      "duration": 0.0159,
      "velocity": 100,
      "chip": "ym2612"
    },
    {
      "channel": 1,
      "note": 57,
      "start": 53.9484,
      "duration": 0.0161,
      "velocity": 124,
      "chip": "ym2612"
    },
    {
      "channel": 4,
      "note": 76,
      "start": 53.9498,
      "duration": 0.0161,
      "velocity": 94,
      "chip": "ym2612"
    },
    {
      "channel": 3,
      "note": 76,
      "start": 53.9509,
      "duration": 0.0161,
      "velocity": 94,
      "chip": "ym2612"
    },
    {
      "channel": 2,
      "note": 52,
      "start": 53.9521,
      "duration": 0.0161,
      "velocity": 100,
      "chip": "ym2612"
    },
    {
      "channel": 1,
      "note": 56,
      "start": 53.9645,
      "duration": 0.0166,
      "velocity": 124,
      "chip": "ym2612"
    },
    {
      "channel": 4,
      "note": 76,
      "start": 53.9659,
      "duration": 0.0166,
      "velocity": 94,
      "chip": "ym2612"
    },
    {
      "channel": 3,
      "note": 76,
      "start": 53.967,
      "duration": 0.0166,
      "velocity": 94,
      "chip": "ym2612"
    },
    {
      "channel": 2,
      "note": 52,
      "start": 53.9682,
      "duration": 0.0166,
      "velocity": 100,
      "chip": "ym2612"
    },
    {
      "channel": 1,
      "note": 55,
      "start": 53.9811,
      "duration": 0.0163,
      "velocity": 124,
      "chip": "ym2612"
    },
    {
      "channel": 4,
      "note": 76,
      "start": 53.9825,
      "duration": 0.0163,
      "velocity": 94,
      "chip": "ym2612"
    },
    {
      "channel": 3,
      "note": 76,
      "start": 53.9836,
      "duration": 0.0163,
      "velocity": 94,
      "chip": "ym2612"
    },
    {
      "channel": 2,
      "note": 52,
      "start": 53.9848,
      "duration": 0.0163,
      "velocity": 100,
      "chip": "ym2612"
    },
    {
      "channel": 1,
      "note": 53,
      "start": 53.9974,
      "duration": 0.0154,
      "velocity": 124,
      "chip": "ym2612"
    },
    {
      "channel": 4,
      "note": 76,
      "start": 53.9988,
      "duration": 0.0153,
      "velocity": 94,
      "chip": "ym2612"
    },
    {
      "channel": 3,
      "note": 76,
      "start": 54.0,
      "duration": 0.0153,
      "velocity": 94,
      "chip": "ym2612"
    },
    {
      "channel": 2,
      "note": 52,
      "start": 54.0011,
      "duration": 0.0154,
      "velocity": 100,
      "chip": "ym2612"
    },
    {
      "channel": 1,
      "note": 52,
      "start": 54.0128,
      "duration": 0.0183,
      "velocity": 124,
      "chip": "ym2612"
    },
    {
      "channel": 4,
      "note": 76,
      "start": 54.0142,
      "duration": 0.0225,
      "velocity": 94,
      "chip": "ym2612"
    },
    {
      "channel": 3,
      "note": 76,
      "start": 54.0153,
      "duration": 0.0227,
      "velocity": 94,
      "chip": "ym2612"
    },
    {
      "channel": 2,
      "note": 52,
      "start": 54.0165,
      "duration": 0.0229,
      "velocity": 100,
      "chip": "ym2612"
    },
    {
      "channel": 1,
      "note": 51,
      "start": 54.0312,
      "duration": 0.0158,
      "velocity": 1,
      "chip": "ym2612"
    },
    {
      "channel": 0,
      "note": 78,
      "start": 54.0354,
      "duration": 0.0155,
      "velocity": 127,
      "chip": "ym2612"
    },
    {
      "channel": 4,
      "note": 76,
      "start": 54.0367,
      "duration": 0.0154,
      "velocity": 94,
      "chip": "ym2612"
    },
    {
      "channel": 3,
      "note": 76,
      "start": 54.038,
      "duration": 0.0153,
      "velocity": 94,
      "chip": "ym2612"
    },
    {
      "channel": 2,
      "note": 52,
      "start": 54.0394,
      "duration": 0.015,
      "velocity": 100,
      "chip": "ym2612"
    },
    {
      "channel": 1,
      "note": 51,
      "start": 54.0491,
      "duration": 0.0139,
      "velocity": 105,
      "chip": "ym2612"
    },
    {
      "channel": 0,
      "note": 76,
      "start": 54.0509,
      "duration": 0.0138,
      "velocity": 127,
      "chip": "ym2612"
    },
    {
      "channel": 4,
      "note": 76,
      "start": 54.0521,
      "duration": 0.0137,
      "velocity": 94,
      "chip": "ym2612"
    },
    {
      "channel": 3,
      "note": 76,
      "start": 54.0533,
      "duration": 0.0137,
      "velocity": 94,
      "chip": "ym2612"
    },
    {
      "channel": 2,
      "note": 52,
      "start": 54.0544,
      "duration": 0.0137,
      "velocity": 100,
      "chip": "ym2612"
    },
    {
      "channel": 1,
      "note": 105,
      "start": 54.063,
      "duration": 0.0141,
      "velocity": 105,
      "chip": "ym2612"
    },
    {
      "channel": 0,
      "note": 75,
      "start": 54.0647,
      "duration": 0.014,
      "velocity": 127,
      "chip": "ym2612"
    },
    {
      "channel": 4,
      "note": 76,
      "start": 54.0658,
      "duration": 0.0141,
      "velocity": 94,
      "chip": "ym2612"
    },
    {
      "channel": 3,
      "note": 76,
      "start": 54.067,
      "duration": 0.0141,
      "velocity": 94,
      "chip": "ym2612"
    },
    {
      "channel": 2,
      "note": 52,
      "start": 54.0681,
      "duration": 0.0141,
      "velocity": 100,
      "chip": "ym2612"
    },
    {
      "channel": 1,
      "note": 105,
      "start": 54.077,
      "duration": 0.0158,
      "velocity": 105,
      "chip": "ym2612"
    },
    {
      "channel": 0,
      "note": 73,
      "start": 54.0787,
      "duration": 0.0185,
      "velocity": 127,
      "chip": "ym2612"
    },
    {
      "channel": 4,
      "note": 76,
      "start": 54.0799,
      "duration": 0.0185,
      "velocity": 94,
      "chip": "ym2612"
    },
    {
      "channel": 3,
      "note": 76,
      "start": 54.081,
      "duration": 0.0185,
      "velocity": 94,
      "chip": "ym2612"
    },
    {
      "channel": 2,
      "note": 52,
      "start": 54.0822,
      "duration": 0.0185,
      "velocity": 100,
      "chip": "ym2612"
    },
    {
      "channel": 1,
      "note": 105,
      "start": 54.0928,
      "duration": 0.0161,
      "velocity": 105,
      "chip": "ym2612"
    },
    {
      "channel": 0,
      "note": 71,
      "start": 54.0972,
      "duration": 0.0161,
      "velocity": 127,
      "chip": "ym2612"
    },
    {
      "channel": 4,
      "note": 76,
      "start": 54.0984,
      "duration": 0.0161,
      "velocity": 94,
      "chip": "ym2612"
    },
    {
      "channel": 3,
      "note": 76,
      "start": 54.0995,
      "duration": 0.0161,
      "velocity": 94,
      "chip": "ym2612"
    },
    {
      "channel": 2,
      "note": 52,
      "start": 54.1007,
      "duration": 0.0161,
      "velocity": 100,
      "chip": "ym2612"
    },
    {
      "channel": 1,
      "note": 105,
      "start": 54.1089,
      "duration": 0.0162,
      "velocity": 105,
      "chip": "ym2612"
    },
    {
      "channel": 0,
      "note": 70,
      "start": 54.1133,
      "duration": 0.0158,
      "velocity": 127,
      "chip": "ym2612"
    },
    {
      "channel": 4,
      "note": 76,
      "start": 54.1145,
      "duration": 0.0158,
      "velocity": 94,
      "chip": "ym2612"
    },
    {
      "channel": 3,
      "note": 76,
      "start": 54.1156,
      "duration": 0.0158,
      "velocity": 94,
      "chip": "ym2612"
    },
    {
      "channel": 2,
      "note": 52,
      "start": 54.1168,
      "duration": 0.0158,
      "velocity": 100,
      "chip": "ym2612"
    },
    {
      "channel": 1,
      "note": 105,
      "start": 54.1251,
      "duration": 0.0177,
      "velocity": 124,
      "chip": "ym2612"
    },
    {
      "channel": 0,
      "note": 68,
      "start": 54.129,
      "duration": 0.0176,
      "velocity": 115,
      "chip": "ym2612"
    },
    {
      "channel": 4,
      "note": 76,
      "start": 54.1303,
      "duration": 0.0177,
      "velocity": 94,
      "chip": "ym2612"
    },
    {
      "channel": 3,
      "note": 76,
      "start": 54.1314,
      "duration": 0.0178,
      "velocity": 94,
      "chip": "ym2612"
    },
    {
      "channel": 2,
      "note": 52,
      "start": 54.1326,
      "duration": 0.018,
      "velocity": 100,
      "chip": "ym2612"
    },
    {
      "channel": 1,
      "note": 64,
      "start": 54.1429,
      "duration": 0.0144,
      "velocity": 124,
      "chip": "ym2612"
    },
    {
      "channel": 0,
      "note": 36,
      "start": 54.1467,
      "duration": 0.0123,
      "velocity": 115,
      "chip": "ym2612"
    },
    {
      "channel": 4,
      "note": 76,
      "start": 54.148,
      "duration": 0.015,
      "velocity": 94,
      "chip": "ym2612"
    },
    {
      "channel": 3,
      "note": 76,
      "start": 54.1492,
      "duration": 0.0149,
      "velocity": 94,
      "chip": "ym2612"
    },
    {
      "channel": 2,
      "note": 55,
      "start": 54.1507,
      "duration": 0.0147,
      "velocity": 100,
      "chip": "ym2612"
    },
    {
      "channel": 1,
      "note": 64,
      "start": 54.1573,
      "duration": 0.016,
      "velocity": 124,
      "chip": "ym2612"
    },
    {
      "channel": 0,
      "note": 36,
      "start": 54.159,
      "duration": 0.016,
      "velocity": 115,
      "chip": "ym2612"
    },
    {
      "channel": 4,
      "note": 76,
      "start": 54.163,
      "duration": 0.0132,
      "velocity": 94,
      "chip": "ym2612"
    },
    {
      "channel": 3,
      "note": 76,
      "start": 54.1642,
      "duration": 0.0159,
      "velocity": 94,
      "chip": "ym2612"
    },
    {
      "channel": 2,
      "note": 55,
      "start": 54.1654,
      "duration": 0.0159,
      "velocity": 100,
      "chip": "ym2612"
    },
    {
      "channel": 1,
      "note": 64,
      "start": 54.1733,
      "duration": 0.0161,
      "velocity": 124,
      "chip": "ym2612"
    },
    {
      "channel": 0,
      "note": 37,
      "start": 54.175,
      "duration": 0.0161,
      "velocity": 115,
      "chip": "ym2612"
    },
    {
      "channel": 4,
      "note": 76,
      "start": 54.1762,
      "duration": 0.0161,
      "velocity": 94,
      "chip": "ym2612"
    },
    {
      "channel": 3,
      "note": 76,
      "start": 54.1801,
      "duration": 0.0157,
      "velocity": 94,
      "chip": "ym2612"
    },
    {
      "channel": 2,
      "note": 55,
      "start": 54.1812,
      "duration": 0.0157,
      "velocity": 100,
      "chip": "ym2612"
    },
    {
      "channel": 1,
      "note": 64,
      "start": 54.1894,
      "duration": 0.0161,
      "velocity": 124,
      "chip": "ym2612"
    },
    {
      "channel": 0,
      "note": 37,
      "start": 54.1911,
      "duration": 0.0161,
      "velocity": 115,
      "chip": "ym2612"
    },
    {
      "channel": 4,
      "note": 76,
      "start": 54.1923,
      "duration": 0.0161,
      "velocity": 94,
      "chip": "ym2612"
    },
    {
      "channel": 3,
      "note": 76,
      "start": 54.1958,
      "duration": 0.0137,
      "velocity": 94,
      "chip": "ym2612"
    },
    {
      "channel": 2,
      "note": 55,
      "start": 54.1969,
      "duration": 0.014,
      "velocity": 100,
      "chip": "ym2612"
    },
    {
      "channel": 1,
      "note": 64,
      "start": 54.2055,
      "duration": 0.0161,
      "velocity": 124,
      "chip": "ym2612"
    },
    {
      "channel": 0,
      "note": 38,
      "start": 54.2072,
      "duration": 0.0162,
      "velocity": 115,
      "chip": "ym2612"
    },
    {
      "channel": 4,
      "note": 76,
      "start": 54.2084,
      "duration": 0.0161,
      "velocity": 94,
      "chip": "ym2612"
    },
    {
      "channel": 3,
      "note": 76,
      "start": 54.2095,
      "duration": 0.0161,
      "velocity": 94,
      "chip": "ym2612"
    },
    {
      "channel": 2,
      "note": 55,
      "start": 54.2109,
      "duration": 0.0186,
      "velocity": 100,
      "chip": "ym2612"
    },
    {
      "channel": 1,
      "note": 64,
      "start": 54.2216,
      "duration": 0.0161,
      "velocity": 124,
      "chip": "ym2612"
    },
    {
      "channel": 0,
      "note": 38,
      "start": 54.2233,
      "duration": 0.0161,
      "velocity": 115,
      "chip": "ym2612"
    },
    {
      "channel": 4,
      "note": 76,
      "start": 54.2245,
      "duration": 0.0161,
      "velocity": 94,
      "chip": "ym2612"
    },
    {
      "channel": 3,
      "note": 76,
      "start": 54.2256,
      "duration": 0.0161,
      "velocity": 94,
      "chip": "ym2612"
    },
    {
      "channel": 2,
      "note": 55,
      "start": 54.2295,
      "duration": 0.0134,
      "velocity": 100,
      "chip": "ym2612"
    },
    {
      "channel": 1,
      "note": 64,
      "start": 54.2377,
      "duration": 0.0178,
      "velocity": 105,
      "chip": "ym2612"
    },
    {
      "channel": 0,
      "note": 39,
      "start": 54.2394,
      "duration": 0.0178,
      "velocity": 115,
      "chip": "ym2612"
    },
    {
      "channel": 4,
      "note": 76,
      "start": 54.2406,
      "duration": 0.0181,
      "velocity": 94,
      "chip": "ym2612"
    },
    {
      "channel": 3,
      "note": 76,
      "start": 54.2417,
      "duration": 0.0206,
      "velocity": 94,
      "chip": "ym2612"
    },
    {
      "channel": 2,
      "note": 55,
      "start": 54.2429,
      "duration": 0.0209,
      "velocity": 100,
      "chip": "ym2612"
    },
    {
      "channel": 1,
      "note": 105,
      "start": 54.2555,
      "duration": 0.0144,
      "velocity": 105,
      "chip": "ym2612"
    },
    {
      "channel": 0,
      "note": 39,
      "start": 54.2572,
      "duration": 0.0144,
      "velocity": 115,
      "chip": "ym2612"
    },
    {
      "channel": 4,
      "note": 79,
      "start": 54.2586,
      "duration": 0.0142,
      "velocity": 94,
      "chip": "ym2612"
    },
    {
      "channel": 3,
      "note": 76,
      "start": 54.2623,
      "duration": 0.0118,
      "velocity": 94,
      "chip": "ym2612"
    },
    {
      "channel": 2,
      "note": 55,
      "start": 54.2638,
      "duration": 0.0115,
      "velocity": 100,
      "chip": "ym2612"
    },
    {
      "channel": 1,
      "note": 105,
      "start": 54.27,
      "duration": 0.0161,
      "velocity": 105,
      "chip": "ym2612"
    },
    {
      "channel": 0,
      "note": 40,
      "start": 54.2717,
      "duration": 0.016,
      "velocity": 115,
      "chip": "ym2612"
    },
    {
      "channel": 4,
      "note": 79,
      "start": 54.2729,
      "duration": 0.016,
      "velocity": 94,
      "chip": "ym2612"
    },
    {
      "channel": 3,
      "note": 76,
      "start": 54.2741,
      "duration": 0.0159,
      "velocity": 94,
      "chip": "ym2612"
    },
    {
      "channel": 2,
      "note": 55,
      "start": 54.2752,
      "duration": 0.0159,
      "velocity": 100,
      "chip": "ym2612"
    },
    {
      "channel": 1,
      "note": 105,
      "start": 54.2861,
      "duration": 0.0161,
      "velocity": 105,
      "chip": "ym2612"
    },
    {
      "channel": 0,
      "note": 40,
      "start": 54.2877,
      "duration": 0.0161,
      "velocity": 115,
      "chip": "ym2612"
    },
    {
      "channel": 4,
      "note": 79,
      "start": 54.2888,
      "duration": 0.0161,
      "velocity": 94,
      "chip": "ym2612"
    },
    {
      "channel": 3,
      "note": 76,
      "start": 54.29,
      "duration": 0.0161,
      "velocity": 94,
      "chip": "ym2612"
    },
    {
      "channel": 2,
      "note": 55,
      "start": 54.2911,
      "duration": 0.0161,
      "velocity": 100,
      "chip": "ym2612"
    },
    {
      "channel": 1,
      "note": 105,
      "start": 54.3022,
      "duration": 0.0161,
      "velocity": 105,
      "chip": "ym2612"
    },
    {
      "channel": 0,
      "note": 40,
      "start": 54.3038,
      "duration": 0.0161,
      "velocity": 115,
      "chip": "ym2612"
    },
    {
      "channel": 4,
      "note": 79,
      "start": 54.3049,
      "duration": 0.0161,
      "velocity": 94,
      "chip": "ym2612"
    },
    {
      "channel": 3,
      "note": 76,
      "start": 54.3061,
      "duration": 0.0161,
      "velocity": 94,
      "chip": "ym2612"
    },
    {
      "channel": 2,
      "note": 55,
      "start": 54.3072,
      "duration": 0.0161,
      "velocity": 100,
      "chip": "ym2612"
    },
    {
      "channel": 1,
      "note": 105,
      "start": 54.3183,
      "duration": 0.0161,
      "velocity": 105,
      "chip": "ym2612"
    },
    {
      "channel": 0,
      "note": 41,
      "start": 54.3199,
      "duration": 0.0161,
      "velocity": 115,
      "chip": "ym2612"
    },
    {
      "channel": 4,
      "note": 79,
      "start": 54.321,
      "duration": 0.0162,
      "velocity": 94,
      "chip": "ym2612"
    },
    {
      "channel": 3,
      "note": 76,
      "start": 54.3222,
      "duration": 0.0161,
      "velocity": 94,
      "chip": "ym2612"
    },
    {
      "channel": 2,
      "note": 55,
      "start": 54.3233,
      "duration": 0.0161,
      "velocity": 100,
      "chip": "ym2612"
    },
    {
      "channel": 1,
      "note": 105,
      "start": 54.3343,
      "duration": 0.0161,
      "velocity": 105,
      "chip": "ym2612"
    },
    {
      "channel": 0,
      "note": 41,
      "start": 54.336,
      "duration": 0.0161,
      "velocity": 115,
      "chip": "ym2612"
    },
    {
      "channel": 4,
      "note": 79,
      "start": 54.3372,
      "duration": 0.0161,
      "velocity": 94,
      "chip": "ym2612"
    },
    {
      "channel": 3,
      "note": 76,
      "start": 54.3383,
      "duration": 0.0162,
      "velocity": 94,
      "chip": "ym2612"
    },
    {
      "channel": 2,
      "note": 55,
      "start": 54.3394,
      "duration": 0.0161,
      "velocity": 100,
      "chip": "ym2612"
    },
    {
      "channel": 1,
      "note": 105,
      "start": 54.3504,
      "duration": 0.0178,
      "velocity": 124,
      "chip": "ym2612"
    },
    {
      "channel": 0,
      "note": 42,
      "start": 54.3521,
      "duration": 0.0179,
      "velocity": 115,
      "chip": "ym2612"
    },
    {
      "channel": 4,
      "note": 79,
      "start": 54.3533,
      "duration": 0.0179,
      "velocity": 94,
      "chip": "ym2612"
    },
    {
      "channel": 3,
      "note": 76,
      "start": 54.3544,
      "duration": 0.0182,
      "velocity": 94,
      "chip": "ym2612"
    },
    {
      "channel": 2,
      "note": 55,
      "start": 54.3555,
      "duration": 0.0186,
      "velocity": 100,
      "chip": "ym2612"
    },
    {
      "channel": 1,
      "note": 64,
      "start": 54.3683,
      "duration": 0.0144,
      "velocity": 124,
      "chip": "ym2612"
    },
    {
      "channel": 0,
      "note": 42,
      "start": 54.37,
      "duration": 0.0144,
      "velocity": 115,
      "chip": "ym2612"
    },
    {
      "channel": 4,
      "note": 79,
      "start": 54.3712,
      "duration": 0.0144,
      "velocity": 94,
      "chip": "ym2612"
    },
    {
      "channel": 3,
      "note": 79,
      "start": 54.3726,
      "duration": 0.0142,
      "velocity": 94,
      "chip": "ym2612"
    },
    {
      "channel": 2,
      "note": 55,
      "start": 54.3741,
      "duration": 0.0139,
      "velocity": 100,
      "chip": "ym2612"
    },
    {
      "channel": 1,
      "note": 64,
      "start": 54.3827,
      "duration": 0.0161,
      "velocity": 124,
      "chip": "ym2612"
    },
    {
      "channel": 0,
      "note": 43,
      "start": 54.3844,
      "duration": 0.016,
      "velocity": 115,
      "chip": "ym2612"
    },
    {
      "channel": 4,
      "note": 79,
      "start": 54.3856,
      "duration": 0.016,
      "velocity": 94,
      "chip": "ym2612"
    },
    {
      "channel": 3,
      "note": 79,
      "start": 54.3868,
      "duration": 0.0159,
      "velocity": 94,
      "chip": "ym2612"
    },
    {
      "channel": 2,
      "note": 55,
      "start": 54.388,
      "duration": 0.0159,
      "velocity": 100,
      "chip": "ym2612"
    },
    {
      "channel": 1,
      "note": 64,
      "start": 54.3988,
      "duration": 0.0161,
      "velocity": 124,
      "chip": "ym2612"
    },
    {
      "channel": 0,
      "note": 43,
      "start": 54.4004,
      "duration": 0.0161,
      "velocity": 115,
      "chip": "ym2612"
    },
    {
      "channel": 4,
      "note": 79,
      "start": 54.4016,
      "duration": 0.0161,
      "velocity": 94,
      "chip": "ym2612"
    },
    {
      "channel": 3,
      "note": 79,
      "start": 54.4027,
      "duration": 0.0161,
      "velocity": 94,
      "chip": "ym2612"
    },
    {
      "channel": 2,
      "note": 55,
      "start": 54.4039,
      "duration": 0.0161,
      "velocity": 100,
      "chip": "ym2612"
    },
    {
      "channel": 1,
      "note": 64,
      "start": 54.4149,
      "duration": 0.0161,
      "velocity": 124,
      "chip": "ym2612"
    },
    {
      "channel": 0,
      "note": 44,
      "start": 54.4165,
      "duration": 0.0161,
      "velocity": 115,
      "chip": "ym2612"
    },
    {
      "channel": 4,
      "note": 79,
      "start": 54.4177,
      "duration": 0.0161,
      "velocity": 94,
      "chip": "ym2612"
    },
    {
      "channel": 3,
      "note": 79,
      "start": 54.4188,
      "duration": 0.0161,
      "velocity": 94,
      "chip": "ym2612"
    },
    {
      "channel": 2,
      "note": 55,
      "start": 54.42,
      "duration": 0.0161,
      "velocity": 100,
      "chip": "ym2612"
    },
    {
      "channel": 1,
      "note": 64,
      "start": 54.431,
      "duration": 0.0163,
      "velocity": 124,
      "chip": "ym2612"
    },
    {
      "channel": 0,
      "note": 44,
      "start": 54.4326,
      "duration": 0.0163,
      "velocity": 115,
      "chip": "ym2612"
    },
    {
      "channel": 4,
      "note": 79,
      "start": 54.4338,
      "duration": 0.0163,
      "velocity": 94,
      "chip": "ym2612"
    },
    {
      "channel": 3,
      "note": 79,
      "start": 54.4349,
      "duration": 0.0163,
      "velocity": 94,
      "chip": "ym2612"
    },
    {
      "channel": 2,
      "note": 55,
      "start": 54.4361,
      "duration": 0.0163,
      "velocity": 100,
      "chip": "ym2612"
    },
    {
      "channel": 1,
      "note": 64,
      "start": 54.4473,
      "duration": 0.0163,
      "velocity": 124,
      "chip": "ym2612"
    },
    {
      "channel": 0,
      "note": 44,
      "start": 54.449,
      "duration": 0.0163,
      "velocity": 115,
      "chip": "ym2612"
    },
    {
      "channel": 4,
      "note": 79,
      "start": 54.4501,
      "duration": 0.0163,
      "velocity": 94,
      "chip": "ym2612"
    },
    {
      "channel": 3,
      "note": 79,
      "start": 54.4513,
      "duration": 0.0163,
      "velocity": 94,
      "chip": "ym2612"
    },
    {
      "channel": 2,
      "note": 55,
      "start": 54.4524,
      "duration": 0.0163,
      "velocity": 100,
      "chip": "ym2612"
    },
    {
      "channel": 1,
      "note": 64,
      "start": 54.4636,
      "duration": 0.0173,
      "velocity": 105,
      "chip": "ym2612"
    },
    {
      "channel": 0,
      "note": 45,
      "start": 54.4653,
      "duration": 0.0174,
      "velocity": 115,
      "chip": "ym2612"
    },
    {
      "channel": 4,
      "note": 79,
      "start": 54.4665,
      "duration": 0.0176,
      "velocity": 94,
      "chip": "ym2612"
    },
    {
      "channel": 3,
      "note": 79,
      "start": 54.4676,
      "duration": 0.0178,
      "velocity": 94,
      "chip": "ym2612"
    },
    {
      "channel": 2,
      "note": 55,
      "start": 54.4687,
      "duration": 0.0181,
      "velocity": 100,
      "chip": "ym2612"
    },
    {
      "channel": 1,
      "note": 105,
      "start": 54.481,
      "duration": 0.0163,
      "velocity": 105,
      "chip": "ym2612"
    },
    {
      "channel": 0,
      "note": 45,
      "start": 54.4826,
      "duration": 0.0164,
      "velocity": 115,
      "chip": "ym2612"
    },
    {
      "channel": 4,
      "note": 79,
      "start": 54.4841,
      "duration": 0.0162,
      "velocity": 94,
      "chip": "ym2612"
    },
    {
      "channel": 3,
      "note": 79,
      "start": 54.4854,
      "duration": 0.0161,
      "velocity": 94,
      "chip": "ym2612"
    },
    {
      "channel": 2,
      "note": 55,
      "start": 54.4868,
      "duration": 0.0158,
      "velocity": 100,
      "chip": "ym2612"
    },
    {
      "channel": 1,
      "note": 105,
      "start": 54.4973,
      "duration": 0.0167,
      "velocity": 105,
      "chip": "ym2612"
    },
    {
      "channel": 0,
      "note": 46,
      "start": 54.499,
      "duration": 0.0166,
      "velocity": 115,
      "chip": "ym2612"
    },
    {
      "channel": 4,
      "note": 79,
      "start": 54.5002,
      "duration": 0.0165,
      "velocity": 94,
      "chip": "ym2612"
    },
    {
      "channel": 3,
      "note": 79,
      "start": 54.5015,
      "duration": 0.0165,
      "velocity": 94,
      "chip": "ym2612"
    },
    {
      "channel": 2,
      "note": 55,
      "start": 54.5026,
      "duration": 0.0165,
      "velocity": 100,
      "chip": "ym2612"
    },
    {
      "channel": 1,
      "note": 105,
      "start": 54.514,
      "duration": 0.016,
      "velocity": 105,
      "chip": "ym2612"
    },
    {
      "channel": 0,
      "note": 46,
      "start": 54.5156,
      "duration": 0.016,
      "velocity": 115,
      "chip": "ym2612"
    },
    {
      "channel": 4,
      "note": 79,
      "start": 54.5168,
      "duration": 0.016,
      "velocity": 94,
      "chip": "ym2612"
    },
    {
      "channel": 3,
      "note": 79,
      "start": 54.5179,
      "duration": 0.016,
      "velocity": 94,
      "chip": "ym2612"
    },
    {
      "channel": 2,
      "note": 55,
      "start": 54.5191,
      "duration": 0.016,
      "velocity": 100,
      "chip": "ym2612"
    },
    {
      "channel": 1,
      "note": 105,
      "start": 54.53,
      "duration": 0.014,
      "velocity": 105,
      "chip": "ym2612"
    },
    {
      "channel": 0,
      "note": 47,
      "start": 54.5316,
      "duration": 0.0141,
      "velocity": 115,
      "chip": "ym2612"
    },
    {
      "channel": 4,
      "note": 79,
      "start": 54.5327,
      "duration": 0.0141,
      "velocity": 94,
      "chip": "ym2612"
    },
    {
      "channel": 3,
      "note": 79,
      "start": 54.5339,
      "duration": 0.0141,
      "velocity": 94,
      "chip": "ym2612"
    },
    {
      "channel": 2,
      "note": 55,
      "start": 54.535,
      "duration": 0.0141,
      "velocity": 100,
      "chip": "ym2612"
    },
    {
      "channel": 1,
      "note": 105,
      "start": 54.5439,
      "duration": 0.0158,
      "velocity": 105,
      "chip": "ym2612"
    },
    {
      "channel": 0,
      "note": 47,
      "start": 54.5457,
      "duration": 0.0185,
      "velocity": 115,
      "chip": "ym2612"
    },
    {
      "channel": 4,
      "note": 79,
      "start": 54.5468,
      "duration": 0.0185,
      "velocity": 94,
      "chip": "ym2612"
    },
    {
      "channel": 3,
      "note": 79,
      "start": 54.548,
      "duration": 0.0185,
      "velocity": 94,
      "chip": "ym2612"
    },
    {
      "channel": 2,
      "note": 55,
      "start": 54.5491,
      "duration": 0.0185,
      "velocity": 100,
      "chip": "ym2612"
    },
    {
      "channel": 1,
      "note": 105,
      "start": 54.5597,
      "duration": 0.0161,
      "velocity": 105,
      "chip": "ym2612"
    },
    {
      "channel": 0,
      "note": 47,
      "start": 54.5642,
      "duration": 0.0161,
      "velocity": 115,
      "chip": "ym2612"
    },
    {
      "channel": 4,
      "note": 79,
      "start": 54.5653,
      "duration": 0.0162,
      "velocity": 94,
      "chip": "ym2612"
    },
    {
      "channel": 3,
      "note": 79,
      "start": 54.5665,
      "duration": 0.0161,
      "velocity": 94,
      "chip": "ym2612"
    },
    {
      "channel": 2,
      "note": 55,
      "start": 54.5676,
      "duration": 0.0161,
      "velocity": 100,
      "chip": "ym2612"
    },
    {
      "channel": 1,
      "note": 105,
      "start": 54.5759,
      "duration": 0.0207,
      "velocity": 124,
      "chip": "ym2612"
    },
    {
      "channel": 0,
      "note": 48,
      "start": 54.5803,
      "duration": 0.0188,
      "velocity": 115,
      "chip": "ym2612"
    },
    {
      "channel": 4,
      "note": 79,
      "start": 54.5815,
      "duration": 0.0188,
      "velocity": 94,
      "chip": "ym2612"
    },
    {
      "channel": 3,
      "note": 79,
      "start": 54.5826,
      "duration": 0.0191,
      "velocity": 94,
      "chip": "ym2612"
    },
    {
      "channel": 2,
      "note": 55,
      "start": 54.5837,
      "duration": 0.0195,
      "velocity": 100,
      "chip": "ym2612"
    },
    {
      "channel": 1,
      "note": 78,
      "start": 54.5966,
      "duration": 0.012,
      "velocity": 124,
      "chip": "ym2612"
    },
    {
      "channel": 0,
      "note": 48,
      "start": 54.599,
      "duration": 0.0118,
      "velocity": 115,
      "chip": "ym2612"
    },
    {
      "channel": 4,
      "note": 79,
      "start": 54.6003,
      "duration": 0.0118,
      "velocity": 94,
      "chip": "ym2612"
    },
    {
      "channel": 3,
      "note": 79,
      "start": 54.6017,
      "duration": 0.0116,
      "velocity": 94,
      "chip": "ym2612"
    },
    {
      "channel": 2,
      "note": 55,
      "start": 54.6032,
      "duration": 0.0113,
      "velocity": 100,
      "chip": "ym2612"
    },
    {
      "channel": 1,
      "note": 76,
      "start": 54.6086,
      "duration": 0.016,
      "velocity": 124,
      "chip": "ym2612"
    },
    {
      "channel": 0,
      "note": 49,
      "start": 54.6109,
      "duration": 0.0149,
      "velocity": 1,
      "chip": "ym2612"
    },
    {
      "channel": 4,
      "note": 79,
      "start": 54.6121,
      "duration": 0.0176,
      "velocity": 94,
      "chip": "ym2612"
    },
    {
      "channel": 3,
      "note": 79,
      "start": 54.6133,
      "duration": 0.0175,
      "velocity": 94,
      "chip": "ym2612"
    },
    {
      "channel": 2,
      "note": 55,
      "start": 54.6145,
      "duration": 0.0174,
      "velocity": 100,
      "chip": "ym2612"
    },
    {
      "channel": 1,
      "note": 75,
      "start": 54.6247,
      "duration": 0.0161,
      "velocity": 124,
      "chip": "ym2612"
    },
    {
      "channel": 4,
      "note": 79,
      "start": 54.6296,
      "duration": 0.0125,
      "velocity": 94,
      "chip": "ym2612"
    },
    {
      "channel": 3,
      "note": 79,
      "start": 54.6308,
      "duration": 0.0153,
      "velocity": 94,
      "chip": "ym2612"
    },
    {
      "channel": 2,
      "note": 55,
      "start": 54.6319,
      "duration": 0.0153,
      "velocity": 100,
      "chip": "ym2612"
    },
    {
      "channel": 1,
      "note": 74,
      "start": 54.6408,
      "duration": 0.0161,
      "velocity": 124,
      "chip": "ym2612"
    },
    {
      "channel": 4,
      "note": 79,
      "start": 54.6422,
      "duration": 0.0161,
      "velocity": 94,
      "chip": "ym2612"
    },
    {
      "channel": 3,
      "note": 79,
      "start": 54.646,
      "duration": 0.0134,
      "velocity": 94,
      "chip": "ym2612"
    },
    {
      "channel": 2,
      "note": 55,
      "start": 54.6472,
      "duration": 0.0157,
      "velocity": 100,
      "chip": "ym2612"
    },
    {
      "channel": 1,
      "note": 72,
      "start": 54.6568,
      "duration": 0.0161,
      "velocity": 124,
      "chip": "ym2612"
    },
    {
      "channel": 4,
      "note": 79,
      "start": 54.6583,
      "duration": 0.0161,
      "velocity": 94,
      "chip": "ym2612"
    },
    {
      "channel": 3,
      "note": 79,
      "start": 54.6594,
      "duration": 0.0161,
      "velocity": 94,
      "chip": "ym2612"
    },
    {
      "channel": 2,
      "note": 55,
      "start": 54.6629,
      "duration": 0.0141,
      "velocity": 100,
      "chip": "ym2612"
    },
    {
      "channel": 1,
      "note": 71,
      "start": 54.6729,
      "duration": 0.0161,
      "velocity": 124,
      "chip": "ym2612"
    },
    {
      "channel": 4,
      "note": 79,
      "start": 54.6744,
      "duration": 0.0161,
      "velocity": 94,
      "chip": "ym2612"
    },
    {
      "channel": 3,
      "note": 79,
      "start": 54.6755,
      "duration": 0.0161,
      "velocity": 94,
      "chip": "ym2612"
    },
    {
      "channel": 2,
      "note": 55,
      "start": 54.677,
      "duration": 0.0158,
      "velocity": 100,
      "chip": "ym2612"
    },
    {
      "channel": 1,
      "note": 70,
      "start": 54.689,
      "duration": 0.0161,
      "velocity": 124,
      "chip": "ym2612"
    },
    {
      "channel": 4,
      "note": 79,
      "start": 54.6905,
      "duration": 0.0168,
      "velocity": 94,
      "chip": "ym2612"
    },
    {
      "channel": 3,
      "note": 79,
      "start": 54.6916,
      "duration": 0.017,
      "velocity": 94,
      "chip": "ym2612"
    },
    {
      "channel": 2,
      "note": 55,
      "start": 54.6927,
      "duration": 0.02,
      "velocity": 100,
      "chip": "ym2612"
    },
    {
      "channel": 1,
      "note": 69,
      "start": 54.7051,
      "duration": 0.0161,
      "velocity": 124,
      "chip": "ym2612"
    },
    {
      "channel": 4,
      "note": 74,
      "start": 54.7073,
      "duration": 0.0155,
      "velocity": 94,
      "chip": "ym2612"
    },
    {
      "channel": 3,
      "note": 79,
      "start": 54.7086,
      "duration": 0.0154,
      "velocity": 94,
      "chip": "ym2612"
    },
    {
      "channel": 2,
      "note": 55,
      "start": 54.7128,
      "duration": 0.0124,
      "velocity": 100,
      "chip": "ym2612"
    },
    {
      "channel": 1,
      "note": 68,
      "start": 54.7212,
      "duration": 0.0161,
      "velocity": 124,
      "chip": "ym2612"
    },
    {
      "channel": 4,
      "note": 74,
      "start": 54.7228,
      "duration": 0.016,
      "velocity": 94,
      "chip": "ym2612"
    },
    {
      "channel": 3,
      "note": 79,
      "start": 54.724,
      "duration": 0.0159,
      "velocity": 94,
      "chip": "ym2612"
    },
    {
      "channel": 2,
      "note": 55,
      "start": 54.7251,
      "duration": 0.0159,
      "velocity": 100,
      "chip": "ym2612"
    },
    {
      "channel": 1,
      "note": 66,
      "start": 54.7373,
      "duration": 0.0162,
      "velocity": 124,
      "chip": "ym2612"
    },
    {
      "channel": 4,
      "note": 74,
      "start": 54.7387,
      "duration": 0.0161,
      "velocity": 94,
      "chip": "ym2612"
    },
    {
      "channel": 3,
      "note": 79,
      "start": 54.7399,
      "duration": 0.0161,
      "velocity": 94,
      "chip": "ym2612"
    },
    {
      "channel": 2,
      "note": 55,
      "start": 54.741,
      "duration": 0.0161,
      "velocity": 100,
      "chip": "ym2612"
    },
    {
      "channel": 1,
      "note": 65,
      "start": 54.7535,
      "duration": 0.0161,
      "velocity": 124,
      "chip": "ym2612"
    },
    {
      "channel": 4,
      "note": 74,
      "start": 54.7548,
      "duration": 0.0161,
      "velocity": 94,
      "chip": "ym2612"
    },
    {
      "channel": 3,
      "note": 79,
      "start": 54.756,
      "duration": 0.0161,
      "velocity": 94,
      "chip": "ym2612"
    },
    {
      "channel": 2,
      "note": 55,
      "start": 54.7571,
      "duration": 0.0161,
      "velocity": 100,
      "chip": "ym2612"
    },
    {
      "channel": 1,
      "note": 64,
      "start": 54.7696,
      "duration": 0.0161,
      "velocity": 124,
      "chip": "ym2612"
    },
    {
      "channel": 4,
      "note": 74,
      "start": 54.771,
      "duration": 0.0161,
      "velocity": 94,
      "chip": "ym2612"
    },
    {
      "channel": 3,
      "note": 79,
      "start": 54.7721,
      "duration": 0.0161,
      "velocity": 94,
      "chip": "ym2612"
    },
    {
      "channel": 2,
      "note": 55,
      "start": 54.7732,
      "duration": 0.0161,
      "velocity": 100,
      "chip": "ym2612"
    },
    {
      "channel": 1,
      "note": 62,
      "start": 54.7857,
      "duration": 0.0161,
      "velocity": 124,
      "chip": "ym2612"
    },
    {
      "channel": 4,
      "note": 74,
      "start": 54.7871,
      "duration": 0.0161,
      "velocity": 94,
      "chip": "ym2612"
    },
    {
      "channel": 3,
      "note": 79,
      "start": 54.7882,
      "duration": 0.0161,
      "velocity": 94,
      "chip": "ym2612"
    },
    {
      "channel": 2,
      "note": 55,
      "start": 54.7893,
      "duration": 0.0162,
      "velocity": 100,
      "chip": "ym2612"
    },
    {
      "channel": 1,
      "note": 61,
      "start": 54.8018,
      "duration": 0.0161,
      "velocity": 124,
      "chip": "ym2612"
    },
    {
      "channel": 4,
      "note": 74,
      "start": 54.8032,
      "duration": 0.0167,
      "velocity": 94,
      "chip": "ym2612"
    },
    {
      "channel": 3,
      "note": 79,
      "start": 54.8043,
      "duration": 0.0169,
      "velocity": 94,
      "chip": "ym2612"
    },
    {
      "channel": 2,
      "note": 55,
      "start": 54.8055,
      "duration": 0.0172,
      "velocity": 100,
      "chip": "ym2612"
    },
    {
      "channel": 1,
      "note": 60,
      "start": 54.8179,
      "duration": 0.0161,
      "velocity": 124,
      "chip": "ym2612"
    },
    {
      "channel": 4,
      "note": 74,
      "start": 54.8199,
      "duration": 0.0155,
      "velocity": 94,
      "chip": "ym2612"
    },
    {
      "channel": 3,
      "note": 74,
      "start": 54.8213,
      "duration": 0.0153,
      "velocity": 94,
      "chip": "ym2612"
    },
    {
      "channel": 2,
      "note": 55,
      "start": 54.8228,
      "duration": 0.0151,
      "velocity": 100,
      "chip": "ym2612"
    },
    {
      "channel": 1,
      "note": 59,
      "start": 54.8339,
      "duration": 0.0161,
      "velocity": 124,
      "chip": "ym2612"
    },
    {
      "channel": 4,
      "note": 74,
      "start": 54.8354,
      "duration": 0.016,
      "velocity": 94,
      "chip": "ym2612"
    },
    {
      "channel": 3,
      "note": 74,
      "start": 54.8366,
      "duration": 0.016,
      "velocity": 94,
      "chip": "ym2612"
    },
    {
      "channel": 2,
      "note": 55,
      "start": 54.8378,
      "duration": 0.0159,
      "velocity": 100,
      "chip": "ym2612"
    },
    {
      "channel": 1,
      "note": 57,
      "start": 54.85,
      "duration": 0.0161,
      "velocity": 124,
      "chip": "ym2612"
    },
    {
      "channel": 4,
      "note": 74,
      "start": 54.8515,
      "duration": 0.0161,
      "velocity": 94,
      "chip": "ym2612"
    },
    {
      "channel": 3,
      "note": 74,
      "start": 54.8526,
      "duration": 0.0161,
      "velocity": 94,
      "chip": "ym2612"
    },
    {
      "channel": 2,
      "note": 55,
      "start": 54.8537,
      "duration": 0.0161,
      "velocity": 100,
      "chip": "ym2612"
    },
    {
      "channel": 1,
      "note": 56,
      "start": 54.8661,
      "duration": 0.0161,
      "velocity": 124,
      "chip": "ym2612"
    },
    {
      "channel": 4,
      "note": 74,
      "start": 54.8676,
      "duration": 0.0161,
      "velocity": 94,
      "chip": "ym2612"
    },
    {
      "channel": 3,
      "note": 74,
      "start": 54.8687,
      "duration": 0.0161,
      "velocity": 94,
      "chip": "ym2612"
    },
    {
      "channel": 2,
      "note": 55,
      "start": 54.8698,
      "duration": 0.0161,
      "velocity": 100,
      "chip": "ym2612"
    },
    {
      "channel": 1,
      "note": 55,
      "start": 54.8822,
      "duration": 0.0161,
      "velocity": 124,
      "chip": "ym2612"
    },
    {
      "channel": 4,
      "note": 74,
      "start": 54.8836,
      "duration": 0.0161,
      "velocity": 94,
      "chip": "ym2612"
    },
    {
      "channel": 3,
      "note": 74,
      "start": 54.8848,
      "duration": 0.0161,
      "velocity": 94,
      "chip": "ym2612"
    },
    {
      "channel": 2,
      "note": 55,
      "start": 54.8859,
      "duration": 0.0161,
      "velocity": 100,
      "chip": "ym2612"
    },
    {
      "channel": 1,
      "note": 53,
      "start": 54.8984,
      "duration": 0.0161,
      "velocity": 124,
      "chip": "ym2612"
    },
    {
      "channel": 4,
      "note": 74,
      "start": 54.8997,
      "duration": 0.0162,
      "velocity": 94,
      "chip": "ym2612"
    },
    {
      "channel": 3,
      "note": 74,
      "start": 54.9009,
      "duration": 0.0161,
      "velocity": 94,
      "chip": "ym2612"
    },
    {
      "channel": 2,
      "note": 55,
      "start": 54.902,
      "duration": 0.0162,
      "velocity": 100,
      "chip": "ym2612"
    },
    {
      "channel": 1,
      "note": 52,
      "start": 54.9145,
      "duration": 0.0163,
      "velocity": 124,
      "chip": "ym2612"
    },
    {
      "channel": 4,
      "note": 74,
      "start": 54.9159,
      "duration": 0.0204,
      "velocity": 94,
      "chip": "ym2612"
    },
    {
      "channel": 3,
      "note": 74,
      "start": 54.917,
      "duration": 0.0206,
      "velocity": 94,
      "chip": "ym2612"
    },
    {
      "channel": 2,
      "note": 55,
      "start": 54.9182,
      "duration": 0.0209,
      "velocity": 100,
      "chip": "ym2612"
    },
    {
      "channel": 1,
      "note": 51,
      "start": 54.9308,
      "duration": 0.0151,
      "velocity": 1,
      "chip": "ym2612"
    },
    {
      "channel": 0,
      "note": 36,
      "start": 54.935,
      "duration": 0.0148,
      "velocity": 115,
      "chip": "ym2612"
    },
    {
      "channel": 4,
      "note": 74,
      "start": 54.9364,
      "duration": 0.0146,
      "velocity": 94,
      "chip": "ym2612"
    },
    {
      "channel": 3,
      "note": 74,
      "start": 54.9376,
      "duration": 0.0146,
      "velocity": 94,
      "chip": "ym2612"
    },
    {
      "channel": 2,
      "note": 55,
      "start": 54.9391,
      "duration": 0.0142,
      "velocity": 100,
      "chip": "ym2612"
    },
    {
      "channel": 1,
      "note": 51,
      "start": 54.948,
      "duration": 0.016,
      "velocity": 105,
      "chip": "ym2612"
    },
    {
      "channel": 0,
      "note": 36,
      "start": 54.9498,
      "duration": 0.0159,
      "velocity": 115,
      "chip": "ym2612"
    },
    {
      "channel": 4,
      "note": 74,
      "start": 54.951,
      "duration": 0.0158,
      "velocity": 94,
      "chip": "ym2612"
    },
    {
      "channel": 3,
      "note": 74,
      "start": 54.9522,
      "duration": 0.0157,
      "velocity": 94,
      "chip": "ym2612"
    },
    {
      "channel": 2,
      "note": 55,
      "start": 54.9534,
      "duration": 0.0157,
      "velocity": 100,
      "chip": "ym2612"
    },
    {
      "channel": 1,
      "note": 105,
      "start": 54.964,
      "duration": 0.0167,
      "velocity": 105,
      "chip": "ym2612"
    },
    {
      "channel": 0,
      "note": 37,
      "start": 54.9656,
      "duration": 0.0167,
      "velocity": 115,
      "chip": "ym2612"
    },
    {
      "channel": 4,
      "note": 74,
      "start": 54.9668,
      "duration": 0.0167,
      "velocity": 94,
      "chip": "ym2612"
    },
    {
      "channel": 3,
      "note": 74,
      "start": 54.9679,
      "duration": 0.0167,
      "velocity": 94,
      "chip": "ym2612"
    },
    {
      "channel": 2,
      "note": 55,
      "start": 54.9691,
      "duration": 0.0167,
      "velocity": 100,
      "chip": "ym2612"
    },
    {
      "channel": 1,
      "note": 105,
      "start": 54.9807,
      "duration": 0.0162,
      "velocity": 105,
      "chip": "ym2612"
    },
    {
      "channel": 0,
      "note": 37,
      "start": 54.9823,
      "duration": 0.0162,
      "velocity": 115,
      "chip": "ym2612"
    },
    {
      "channel": 4,
      "note": 74,
      "start": 54.9834,
      "duration": 0.0162,
      "velocity": 94,
      "chip": "ym2612"
    },
    {
      "channel": 3,
      "note": 74,
      "start": 54.9846,
      "duration": 0.0162,
      "velocity": 94,
      "chip": "ym2612"
    },
    {
      "channel": 2,
      "note": 55,
      "start": 54.9857,
      "duration": 0.0162,
      "velocity": 100,
      "chip": "ym2612"
    },
    {
      "channel": 1,
      "note": 105,
      "start": 54.9969,
      "duration": 0.014,
      "velocity": 105,
      "chip": "ym2612"
    },
    {
      "channel": 0,
      "note": 38,
      "start": 54.9985,
      "duration": 0.0141,
      "velocity": 115,
      "chip": "ym2612"
    },
    {
      "channel": 4,
      "note": 74,
      "start": 54.9997,
      "duration": 0.0141,
      "velocity": 94,
      "chip": "ym2612"
    },
    {
      "channel": 3,
      "note": 74,
      "start": 55.0008,
      "duration": 0.0141,
      "velocity": 94,
      "chip": "ym2612"
    },
    {
      "channel": 2,
      "note": 55,
      "start": 55.002,
      "duration": 0.0141,
      "velocity": 100,
      "chip": "ym2612"
    },
    {
      "channel": 1,
      "note": 105,
      "start": 55.0109,
      "duration": 0.0186,
      "velocity": 105,
      "chip": "ym2612"
    },
    {
      "channel": 0,
      "note": 38,
      "start": 55.0126,
      "duration": 0.0185,
      "velocity": 115,
      "chip": "ym2612"
    },
    {
      "channel": 4,
      "note": 74,
      "start": 55.0137,
      "duration": 0.0186,
      "velocity": 94,
      "chip": "ym2612"
    },
    {
      "channel": 3,
      "note": 74,
      "start": 55.0149,
      "duration": 0.0185,
      "velocity": 94,
      "chip": "ym2612"
    },
    {
      "channel": 2,
      "note": 55,
      "start": 55.016,
      "duration": 0.0185,
      "velocity": 100,
      "chip": "ym2612"
    },
    {
      "channel": 1,
      "note": 105,
      "start": 55.0294,
      "duration": 0.0178,
      "velocity": 124,
      "chip": "ym2612"
    },
    {
      "channel": 0,
      "note": 39,
      "start": 55.0311,
      "duration": 0.0196,
      "velocity": 115,
      "chip": "ym2612"
    },
    {
      "channel": 4,
      "note": 74,
      "start": 55.0323,
      "duration": 0.0198,
      "velocity": 94,
      "chip": "ym2612"
    },
    {
      "channel": 3,
      "note": 74,
      "start": 55.0334,
      "duration": 0.0202,
      "velocity": 94,
      "chip": "ym2612"
    },
    {
      "channel": 2,
      "note": 55,
      "start": 55.0345,
      "duration": 0.0205,
      "velocity": 100,
      "chip": "ym2612"
    },
    {
      "channel": 1,
      "note": 64,
      "start": 55.0473,
      "duration": 0.0122,
      "velocity": 124,
      "chip": "ym2612"
    },
    {
      "channel": 0,
      "note": 36,
      "start": 55.0507,
      "duration": 0.0128,
      "velocity": 115,
      "chip": "ym2612"
    },
    {
      "channel": 4,
      "note": 79,
      "start": 55.0522,
      "duration": 0.0125,
      "velocity": 94,
      "chip": "ym2612"
    },
    {
      "channel": 3,
      "note": 74,
      "start": 55.0536,
      "duration": 0.0124,
      "velocity": 94,
      "chip": "ym2612"
    },
    {
      "channel": 2,
      "note": 55,
      "start": 55.055,
      "duration": 0.0122,
      "velocity": 100,
      "chip": "ym2612"
    },
    {
      "channel": 1,
      "note": 64,
      "start": 55.0594,
      "duration": 0.0156,
      "velocity": 124,
      "chip": "ym2612"
    },
    {
      "channel": 0,
      "note": 36,
      "start": 55.0635,
      "duration": 0.0134,
      "velocity": 115,
      "chip": "ym2612"
    },
    {
      "channel": 4,
      "note": 79,
      "start": 55.0647,
      "duration": 0.0134,
      "velocity": 94,
      "chip": "ym2612"
    },
    {
      "channel": 3,
      "note": 74,
      "start": 55.066,
      "duration": 0.0134,
      "velocity": 94,
      "chip": "ym2612"
    },
    {
      "channel": 2,
      "note": 55,
      "start": 55.0672,
      "duration": 0.0133,
      "velocity": 100,
      "chip": "ym2612"
    },
    {
      "channel": 1,
      "note": 64,
      "start": 55.075,
      "duration": 0.0161,
      "velocity": 124,
      "chip": "ym2612"
    },
    {
      "channel": 0,
      "note": 37,
      "start": 55.077,
      "duration": 0.0158,
      "velocity": 115,
      "chip": "ym2612"
    },
    {
      "channel": 4,
      "note": 79,
      "start": 55.0782,
      "duration": 0.0185,
      "velocity": 94,
      "chip": "ym2612"
    },
    {
      "channel": 3,
      "note": 74,
      "start": 55.0793,
      "duration": 0.0185,
      "velocity": 94,
      "chip": "ym2612"
    },
    {
      "channel": 2,
      "note": 55,
      "start": 55.0805,
      "duration": 0.0185,
      "velocity": 100,
      "chip": "ym2612"
    },
    {
      "channel": 1,
      "note": 64,
      "start": 55.0911,
      "duration": 0.0161,
      "velocity": 124,
      "chip": "ym2612"
    },
    {
      "channel": 0,
      "note": 37,
      "start": 55.0927,
      "duration": 0.0161,
      "velocity": 115,
      "chip": "ym2612"
    },
    {
      "channel": 4,
      "note": 79,
      "start": 55.0967,
      "duration": 0.0161,
      "velocity": 94,
      "chip": "ym2612"
    },
    {
      "channel": 3,
      "note": 74,
      "start": 55.0978,
      "duration": 0.0161,
      "velocity": 94,
      "chip": "ym2612"
    },
    {
      "channel": 2,
      "note": 55,
      "start": 55.099,
      "duration": 0.0161,
      "velocity": 100,
      "chip": "ym2612"
    },
    {
      "channel": 1,
      "note": 64,
      "start": 55.1072,
      "duration": 0.0161,
      "velocity": 124,
      "chip": "ym2612"
    },
    {
      "channel": 0,
      "note": 38,
      "start": 55.1089,
      "duration": 0.0161,
      "velocity": 115,
      "chip": "ym2612"
    },
    {
      "channel": 4,
      "note": 79,
      "start": 55.1128,
      "duration": 0.0134,
      "velocity": 94,
      "chip": "ym2612"
    },
    {
      "channel": 3,
      "note": 74,
      "start": 55.1139,
      "duration": 0.0158,
      "velocity": 94,
      "chip": "ym2612"
    },
    {
      "channel": 2,
      "note": 55,
      "start": 55.1151,
      "duration": 0.0157,
      "velocity": 100,
      "chip": "ym2612"
    },
    {
      "channel": 1,
      "note": 64,
      "start": 55.1233,
      "duration": 0.0161,
      "velocity": 124,
      "chip": "ym2612"
    },
    {
      "channel": 0,
      "note": 38,
      "start": 55.125,
      "duration": 0.0161,
      "velocity": 115,
      "chip": "ym2612"
    },
    {
      "channel": 4,
      "note": 79,
      "start": 55.1261,
      "duration": 0.0161,
      "velocity": 94,
      "chip": "ym2612"
    },
    {
      "channel": 3,
      "note": 74,
      "start": 55.1297,
      "duration": 0.014,
      "velocity": 94,
      "chip": "ym2612"
    },
    {
      "channel": 2,
      "note": 55,
      "start": 55.1308,
      "duration": 0.0141,
      "velocity": 100,
      "chip": "ym2612"
    },
    {
      "channel": 1,
      "note": 64,
      "start": 55.1394,
      "duration": 0.0178,
      "velocity": 105,
      "chip": "ym2612"
    },
    {
      "channel": 0,
      "note": 39,
      "start": 55.1411,
      "duration": 0.0178,
      "velocity": 115,
      "chip": "ym2612"
    },
    {
      "channel": 4,
      "note": 79,
      "start": 55.1422,
      "duration": 0.0207,
      "velocity": 94,
      "chip": "ym2612"
    },
    {
      "channel": 3,
      "note": 74,
      "start": 55.1437,
      "duration": 0.0206,
      "velocity": 94,
      "chip": "ym2612"
    },
    {
      "channel": 2,
      "note": 55,
      "start": 55.1448,
      "duration": 0.0209,
      "velocity": 100,
      "chip": "ym2612"
    },
    {
      "channel": 1,
      "note": 105,
      "start": 55.1572,
      "duration": 0.0144,
      "velocity": 105,
      "chip": "ym2612"
    },
    {
      "channel": 0,
      "note": 39,
      "start": 55.1589,
      "duration": 0.0144,
      "velocity": 115,
      "chip": "ym2612"
    },
    {
      "channel": 4,
      "note": 79,
      "start": 55.1629,
      "duration": 0.0116,
      "velocity": 94,
      "chip": "ym2612"
    },
    {
      "channel": 3,
      "note": 79,
      "start": 55.1643,
      "duration": 0.0115,
      "velocity": 94,
      "chip": "ym2612"
    },
    {
      "channel": 2,
      "note": 55,
      "start": 55.1658,
      "duration": 0.0139,
      "velocity": 100,
      "chip": "ym2612"
    },
    {
      "channel": 1,
      "note": 105,
      "start": 55.1716,
      "duration": 0.0161,
      "velocity": 105,
      "chip": "ym2612"
    },
    {
      "channel": 0,
      "note": 40,
      "start": 55.1733,
      "duration": 0.016,
      "velocity": 115,
      "chip": "ym2612"
    },
    {
      "channel": 4,
      "note": 79,
      "start": 55.1745,
      "duration": 0.016,
      "velocity": 94,
      "chip": "ym2612"
    },
    {
      "channel": 3,
      "note": 79,
      "start": 55.1758,
      "duration": 0.0159,
      "velocity": 94,
      "chip": "ym2612"
    },
    {
      "channel": 2,
      "note": 55,
      "start": 55.1797,
      "duration": 0.0131,
      "velocity": 100,
      "chip": "ym2612"
    },
    {
      "channel": 1,
      "note": 105,
      "start": 55.1877,
      "duration": 0.0161,
      "velocity": 105,
      "chip": "ym2612"
    },
    {
      "channel": 0,
      "note": 40,
      "start": 55.1894,
      "duration": 0.0161,
      "velocity": 115,
      "chip": "ym2612"
    },
    {
      "channel": 4,
      "note": 79,
      "start": 55.1905,
      "duration": 0.0161,
      "velocity": 94,
      "chip": "ym2612"
    },
    {
      "channel": 3,
      "note": 79,
      "start": 55.1917,
      "duration": 0.0161,
      "velocity": 94,
      "chip": "ym2612"
    },
    {
      "channel": 2,
      "note": 55,
      "start": 55.1928,
      "duration": 0.0161,
      "velocity": 100,
      "chip": "ym2612"
    },
    {
      "channel": 1,
      "note": 105,
      "start": 55.2038,
      "duration": 0.0161,
      "velocity": 105,
      "chip": "ym2612"
    },
    {
      "channel": 0,
      "note": 40,
      "start": 55.2055,
      "duration": 0.0161,
      "velocity": 115,
      "chip": "ym2612"
    },
    {
      "channel": 4,
      "note": 79,
      "start": 55.2066,
      "duration": 0.0161,
      "velocity": 94,
      "chip": "ym2612"
    },
    {
      "channel": 3,
      "note": 79,
      "start": 55.2078,
      "duration": 0.0161,
      "velocity": 94,
      "chip": "ym2612"
    },
    {
      "channel": 2,
      "note": 55,
      "start": 55.2089,
      "duration": 0.0161,
      "velocity": 100,
      "chip": "ym2612"
    },
    {
      "channel": 1,
      "note": 105,
      "start": 55.2199,
      "duration": 0.0161,
      "velocity": 105,
      "chip": "ym2612"
    },
    {
      "channel": 0,
      "note": 41,
      "start": 55.2215,
      "duration": 0.0161,
      "velocity": 115,
      "chip": "ym2612"
    },
    {
      "channel": 4,
      "note": 79,
      "start": 55.2227,
      "duration": 0.0161,
      "velocity": 94,
      "chip": "ym2612"
    },
    {
      "channel": 3,
      "note": 79,
      "start": 55.2238,
      "duration": 0.0161,
      "velocity": 94,
      "chip": "ym2612"
    },
    {
      "channel": 2,
      "note": 55,
      "start": 55.225,
      "duration": 0.0161,
      "velocity": 100,
      "chip": "ym2612"
    },
    {
      "channel": 1,
      "note": 105,
      "start": 55.236,
      "duration": 0.0161,
      "velocity": 105,
      "chip": "ym2612"
    },
    {
      "channel": 0,
      "note": 41,
      "start": 55.2376,
      "duration": 0.0161,
      "velocity": 115,
      "chip": "ym2612"
    },
    {
      "channel": 4,
      "note": 79,
      "start": 55.2388,
      "duration": 0.0161,
      "velocity": 94,
      "chip": "ym2612"
    },
    {
      "channel": 3,
      "note": 79,
      "start": 55.2399,
      "duration": 0.0162,
      "velocity": 94,
      "chip": "ym2612"
    },
    {
      "channel": 2,
      "note": 55,
      "start": 55.2411,
      "duration": 0.0161,
      "velocity": 100,
      "chip": "ym2612"
    },
    {
      "channel": 1,
      "note": 105,
      "start": 55.2521,
      "duration": 0.0178,
      "velocity": 124,
      "chip": "ym2612"
    },
    {
      "channel": 0,
      "note": 42,
      "start": 55.2537,
      "duration": 0.0179,
      "velocity": 115,
      "chip": "ym2612"
    },
    {
      "channel": 4,
      "note": 79,
      "start": 55.2549,
      "duration": 0.0181,
      "velocity": 94,
      "chip": "ym2612"
    },
    {
      "channel": 3,
      "note": 79,
      "start": 55.2561,
      "duration": 0.0182,
      "velocity": 94,
      "chip": "ym2612"
    },
    {
      "channel": 2,
      "note": 55,
      "start": 55.2572,
      "duration": 0.0185,
      "velocity": 100,
      "chip": "ym2612"
    },
    {
      "channel": 1,
      "note": 64,
      "start": 55.27,
      "duration": 0.0144,
      "velocity": 124,
      "chip": "ym2612"
    },
    {
      "channel": 0,
      "note": 42,
      "start": 55.2716,
      "duration": 0.0144,
      "velocity": 115,
      "chip": "ym2612"
    },
    {
      "channel": 4,
      "note": 79,
      "start": 55.273,
      "duration": 0.0142,
      "velocity": 94,
      "chip": "ym2612"
    },
    {
      "channel": 3,
      "note": 79,
      "start": 55.2743,
      "duration": 0.0142,
      "velocity": 94,
      "chip": "ym2612"
    },
    {
      "channel": 2,
      "note": 55,
      "start": 55.2758,
      "duration": 0.0139,
      "velocity": 100,
      "chip": "ym2612"
    },
    {
      "channel": 1,
      "note": 64,
      "start": 55.2843,
      "duration": 0.0161,
      "velocity": 124,
      "chip": "ym2612"
    },
    {
      "channel": 0,
      "note": 43,
      "start": 55.2861,
      "duration": 0.016,
      "velocity": 115,
      "chip": "ym2612"
    },
    {
      "channel": 4,
      "note": 79,
      "start": 55.2873,
      "duration": 0.016,
      "velocity": 94,
      "chip": "ym2612"
    },
    {
      "channel": 3,
      "note": 79,
      "start": 55.2885,
      "duration": 0.0159,
      "velocity": 94,
      "chip": "ym2612"
    },
    {
      "channel": 2,
      "note": 55,
      "start": 55.2896,
      "duration": 0.0159,
      "velocity": 100,
      "chip": "ym2612"
    },
    {
      "channel": 1,
      "note": 64,
      "start": 55.3004,
      "duration": 0.0161,
      "velocity": 124,
      "chip": "ym2612"
    },
    {
      "channel": 0,
      "note": 43,
      "start": 55.3021,
      "duration": 0.0161,
      "velocity": 115,
      "chip": "ym2612"
    },
    {
      "channel": 4,
      "note": 79,
      "start": 55.3032,
      "duration": 0.0162,
      "velocity": 94,
      "chip": "ym2612"
    },
    {
      "channel": 3,
      "note": 79,
      "start": 55.3044,
      "duration": 0.0161,
      "velocity": 94,
      "chip": "ym2612"
    },
    {
      "channel": 2,
      "note": 55,
      "start": 55.3055,
      "duration": 0.0161,
      "velocity": 100,
      "chip": "ym2612"
    },
    {
      "channel": 1,
      "note": 64,
      "start": 55.3165,
      "duration": 0.0161,
      "velocity": 124,
      "chip": "ym2612"
    },
    {
      "channel": 0,
      "note": 44,
      "start": 55.3182,
      "duration": 0.0161,
      "velocity": 115,
      "chip": "ym2612"
    },
    {
      "channel": 4,
      "note": 79,
      "start": 55.3194,
      "duration": 0.0161,
      "velocity": 94,
      "chip": "ym2612"
    },
    {
      "channel": 3,
      "note": 79,
      "start": 55.3205,
      "duration": 0.0161,
      "velocity": 94,
      "chip": "ym2612"
    },
    {
      "channel": 2,
      "note": 55,
      "start": 55.3216,
      "duration": 0.0161,
      "velocity": 100,
      "chip": "ym2612"
    },
    {
      "channel": 1,
      "note": 64,
      "start": 55.3326,
      "duration": 0.0161,
      "velocity": 124,
      "chip": "ym2612"
    },
    {
      "channel": 0,
      "note": 44,
      "start": 55.3343,
      "duration": 0.0161,
      "velocity": 115,
      "chip": "ym2612"
    },
    {
      "channel": 4,
      "note": 79,
      "start": 55.3355,
      "duration": 0.0161,
      "velocity": 94,
      "chip": "ym2612"
    },
    {
      "channel": 3,
      "note": 79,
      "start": 55.3366,
      "duration": 0.0162,
      "velocity": 94,
      "chip": "ym2612"
    },
    {
      "channel": 2,
      "note": 55,
      "start": 55.3377,
      "duration": 0.0161,
      "velocity": 100,
      "chip": "ym2612"
    },
    {
      "channel": 1,
      "note": 64,
      "start": 55.3487,
      "duration": 0.0161,
      "velocity": 124,
      "chip": "ym2612"
    },
    {
      "channel": 0,
      "note": 44,
      "start": 55.3504,
      "duration": 0.0161,
      "velocity": 115,
      "chip": "ym2612"
    },
    {
      "channel": 4,
      "note": 79,
      "start": 55.3516,
      "duration": 0.0161,
      "velocity": 94,
      "chip": "ym2612"
    },
    {
      "channel": 3,
      "note": 79,
      "start": 55.3527,
      "duration": 0.0161,
      "velocity": 94,
      "chip": "ym2612"
    },
    {
      "channel": 2,
      "note": 55,
      "start": 55.3538,
      "duration": 0.0161,
      "velocity": 100,
      "chip": "ym2612"
    },
    {
      "channel": 1,
      "note": 64,
      "start": 55.3648,
      "duration": 0.0178,
      "velocity": 105,
      "chip": "ym2612"
    },
    {
      "channel": 0,
      "note": 45,
      "start": 55.3665,
      "duration": 0.0178,
      "velocity": 115,
      "chip": "ym2612"
    },
    {
      "channel": 4,
      "note": 79,
      "start": 55.3677,
      "duration": 0.018,
      "velocity": 94,
      "chip": "ym2612"
    },
    {
      "channel": 3,
      "note": 79,
      "start": 55.3688,
      "duration": 0.0183,
      "velocity": 94,
      "chip": "ym2612"
    },
    {
      "channel": 2,
      "note": 55,
      "start": 55.3699,
      "duration": 0.0186,
      "velocity": 100,
      "chip": "ym2612"
    },
    {
      "channel": 1,
      "note": 105,
      "start": 55.3826,
      "duration": 0.0144,
      "velocity": 105,
      "chip": "ym2612"
    },
    {
      "channel": 0,
      "note": 45,
      "start": 55.3843,
      "duration": 0.0145,
      "velocity": 115,
      "chip": "ym2612"
    },
    {
      "channel": 4,
      "note": 79,
      "start": 55.3857,
      "duration": 0.0142,
      "velocity": 94,
      "chip": "ym2612"
    },
    {
      "channel": 3,
      "note": 79,
      "start": 55.3871,
      "duration": 0.0141,
      "velocity": 94,
      "chip": "ym2612"
    },
    {
      "channel": 2,
      "note": 55,
      "start": 55.3885,
      "duration": 0.0139,
      "velocity": 100,
      "chip": "ym2612"
    },
    {
      "channel": 1,
      "note": 105,
      "start": 55.3971,
      "duration": 0.016,
      "velocity": 105,
      "chip": "ym2612"
    },
    {
      "channel": 0,
      "note": 46,
      "start": 55.3988,
      "duration": 0.016,
      "velocity": 115,
      "chip": "ym2612"
    },
    {
      "channel": 4,
      "note": 79,
      "start": 55.4,
      "duration": 0.016,
      "velocity": 94,
      "chip": "ym2612"
    },
    {
      "channel": 3,
      "note": 79,
      "start": 55.4012,
      "duration": 0.0159,
      "velocity": 94,
      "chip": "ym2612"
    },
    {
      "channel": 2,
      "note": 55,
      "start": 55.4024,
      "duration": 0.0158,
      "velocity": 100,
      "chip": "ym2612"
    },
    {
      "channel": 1,
      "note": 105,
      "start": 55.4131,
      "duration": 0.0176,
      "velocity": 105,
      "chip": "ym2612"
    },
    {
      "channel": 0,
      "note": 46,
      "start": 55.4147,
      "duration": 0.0176,
      "velocity": 115,
      "chip": "ym2612"
    },
    {
      "channel": 4,
      "note": 79,
      "start": 55.416,
      "duration": 0.0175,
      "velocity": 94,
      "chip": "ym2612"
    },
    {
      "channel": 3,
      "note": 79,
      "start": 55.4171,
      "duration": 0.0175,
      "velocity": 94,
      "chip": "ym2612"
    },
    {
      "channel": 2,
      "note": 55,
      "start": 55.4182,
      "duration": 0.0176,
      "velocity": 100,
      "chip": "ym2612"
    },
    {
      "channel": 1,
      "note": 105,
      "start": 55.4307,
      "duration": 0.0167,
      "velocity": 105,
      "chip": "ym2612"
    },
    {
      "channel": 0,
      "note": 47,
      "start": 55.4323,
      "duration": 0.0167,
      "velocity": 115,
      "chip": "ym2612"
    },
    {
      "channel": 4,
      "note": 79,
      "start": 55.4334,
      "duration": 0.0167,
      "velocity": 94,
      "chip": "ym2612"
    },
    {
      "channel": 3,
      "note": 79,
      "start": 55.4346,
      "duration": 0.0167,
      "velocity": 94,
      "chip": "ym2612"
    },
    {
      "channel": 2,
      "note": 55,
      "start": 55.4357,
      "duration": 0.0167,
      "velocity": 100,
      "chip": "ym2612"
    },
    {
      "channel": 1,
      "note": 105,
      "start": 55.4473,
      "duration": 0.0163,
      "velocity": 105,
      "chip": "ym2612"
    },
    {
      "channel": 0,
      "note": 47,
      "start": 55.449,
      "duration": 0.0163,
      "velocity": 115,
      "chip": "ym2612"
    },
    {
      "channel": 4,
      "note": 79,
      "start": 55.4501,
      "duration": 0.0163,
      "velocity": 94,
      "chip": "ym2612"
    },
    {
      "channel": 3,
      "note": 79,
      "start": 55.4513,
      "duration": 0.0163,
      "velocity": 94,
      "chip": "ym2612"
    },
    {
      "channel": 2,
      "note": 55,
      "start": 55.4524,
      "duration": 0.0163,
      "velocity": 100,
      "chip": "ym2612"
    },
    {
      "channel": 1,
      "note": 105,
      "start": 55.4636,
      "duration": 0.0142,
      "velocity": 105,
      "chip": "ym2612"
    },
    {
      "channel": 0,
      "note": 47,
      "start": 55.4653,
      "duration": 0.0142,
      "velocity": 115,
      "chip": "ym2612"
    },
    {
      "channel": 4,
      "note": 79,
      "start": 55.4665,
      "duration": 0.0142,
      "velocity": 94,
      "chip": "ym2612"
    },
    {
      "channel": 3,
      "note": 79,
      "start": 55.4676,
      "duration": 0.0142,
      "velocity": 94,
      "chip": "ym2612"
    },
    {
      "channel": 2,
      "note": 55,
      "start": 55.4687,
      "duration": 0.0143,
      "velocity": 100,
      "chip": "ym2612"
    },
    {
      "channel": 1,
      "note": 105,
      "start": 55.4778,
      "duration": 0.0207,
      "velocity": 124,
      "chip": "ym2612"
    },
    {
      "channel": 0,
      "note": 48,
      "start": 55.4795,
      "duration": 0.0215,
      "velocity": 115,
      "chip": "ym2612"
    },
    {
      "channel": 4,
      "note": 79,
      "start": 55.4807,
      "duration": 0.0217,
      "velocity": 94,
      "chip": "ym2612"
    },
    {
      "channel": 3,
      "note": 79,
      "start": 55.4818,
      "duration": 0.0219,
      "velocity": 94,
      "chip": "ym2612"
    },
    {
      "channel": 2,
      "note": 55,
      "start": 55.4829,
      "duration": 0.0222,
      "velocity": 100,
      "chip": "ym2612"
    },
    {
      "channel": 1,
      "note": 78,
      "start": 55.4986,
      "duration": 0.0144,
      "velocity": 124,
      "chip": "ym2612"
    },
    {
      "channel": 0,
      "note": 48,
      "start": 55.501,
      "duration": 0.0139,
      "velocity": 115,
      "chip": "ym2612"
    },
    {
      "channel": 4,
      "note": 79,
      "start": 55.5023,
      "duration": 0.0138,
      "velocity": 94,
      "chip": "ym2612"
    },
    {
      "channel": 3,
      "note": 79,
      "start": 55.5037,
      "duration": 0.0136,
      "velocity": 94,
      "chip": "ym2612"
    },
    {
      "channel": 2,
      "note": 55,
      "start": 55.5052,
      "duration": 0.0134,
      "velocity": 100,
      "chip": "ym2612"
    },
    {
      "channel": 1,
      "note": 76,
      "start": 55.513,
      "duration": 0.0133,
      "velocity": 124,
      "chip": "ym2612"
    },
    {
      "channel": 0,
      "note": 49,
      "start": 55.5149,
      "duration": 0.0148,
      "velocity": 1,
      "chip": "ym2612"
    },
    {
      "channel": 4,
      "note": 79,
      "start": 55.5161,
      "duration": 0.0148,
      "velocity": 94,
      "chip": "ym2612"
    },
    {
      "channel": 3,
      "note": 79,
      "start": 55.5173,
      "duration": 0.0147,
      "velocity": 94,
      "chip": "ym2612"
    },
    {
      "channel": 2,
      "note": 55,
      "start": 55.5186,
      "duration": 0.0146,
      "velocity": 100,
      "chip": "ym2612"
    },
    {
      "channel": 1,
      "note": 75,
      "start": 55.5263,
      "duration": 0.0161,
      "velocity": 124,
      "chip": "ym2612"
    },
    {
      "channel": 4,
      "note": 79,
      "start": 55.5309,
      "duration": 0.0132,
      "velocity": 94,
      "chip": "ym2612"
    },
    {
      "channel": 3,
      "note": 79,
      "start": 55.532,
      "duration": 0.0132,
      "velocity": 94,
      "chip": "ym2612"
    },
    {
      "channel": 2,
      "note": 55,
      "start": 55.5332,
      "duration": 0.0132,
      "velocity": 100,
      "chip": "ym2612"
    },
    {
      "channel": 1,
      "note": 74,
      "start": 55.5424,
      "duration": 0.0161,
      "velocity": 124,
      "chip": "ym2612"
    },
    {
      "channel": 4,
      "note": 79,
      "start": 55.5441,
      "duration": 0.0185,
      "velocity": 94,
      "chip": "ym2612"
    },
    {
      "channel": 3,
      "note": 79,
      "start": 55.5453,
      "duration": 0.0185,
      "velocity": 94,
      "chip": "ym2612"
    },
    {
      "channel": 2,
      "note": 55,
      "start": 55.5464,
      "duration": 0.0185,
      "velocity": 100,
      "chip": "ym2612"
    },
    {
      "channel": 1,
      "note": 72,
      "start": 55.5585,
      "duration": 0.0161,
      "velocity": 124,
      "chip": "ym2612"
    },
    {
      "channel": 4,
      "note": 79,
      "start": 55.5627,
      "duration": 0.0134,
      "velocity": 94,
      "chip": "ym2612"
    },
    {
      "channel": 3,
      "note": 79,
      "start": 55.5638,
      "duration": 0.0161,
      "velocity": 94,
      "chip": "ym2612"
    },
    {
      "channel": 2,
      "note": 55,
      "start": 55.5649,
      "duration": 0.0161,
      "velocity": 100,
      "chip": "ym2612"
    },
    {
      "channel": 1,
      "note": 71,
      "start": 55.5746,
      "duration": 0.0161,
      "velocity": 124,
      "chip": "ym2612"
    },
    {
      "channel": 4,
      "note": 79,
      "start": 55.576,
      "duration": 0.0161,
      "velocity": 94,
      "chip": "ym2612"
    },
    {
      "channel": 3,
      "note": 79,
      "start": 55.5799,
      "duration": 0.0157,
      "velocity": 94,
      "chip": "ym2612"
    },
    {
      "channel": 2,
      "note": 55,
      "start": 55.581,
      "duration": 0.0157,
      "velocity": 100,
      "chip": "ym2612"
    },
    {
      "channel": 1,
      "note": 70,
      "start": 55.5907,
      "duration": 0.0161,
      "velocity": 124,
      "chip": "ym2612"
    },
    {
      "channel": 4,
      "note": 79,
      "start": 55.5921,
      "duration": 0.0168,
      "velocity": 94,
      "chip": "ym2612"
    },
    {
      "channel": 3,
      "note": 79,
      "start": 55.5956,
      "duration": 0.015,
      "velocity": 94,
      "chip": "ym2612"
    },
    {
      "channel": 2,
      "note": 55,
      "start": 55.5967,
      "duration": 0.0153,
      "velocity": 100,
      "chip": "ym2612"
    },
    {
      "channel": 1,
      "note": 69,
      "start": 55.6068,
      "duration": 0.0161,
      "velocity": 124,
      "chip": "ym2612"
    },
    {
      "channel": 4,
      "note": 74,
      "start": 55.609,
      "duration": 0.0154,
      "velocity": 94,
      "chip": "ym2612"
    },
    {
      "channel": 3,
      "note": 79,
      "start": 55.6106,
      "duration": 0.015,
      "velocity": 94,
      "chip": "ym2612"
    },
    {
      "channel": 2,
      "note": 55,
      "start": 55.612,
      "duration": 0.0176,
      "velocity": 100,
      "chip": "ym2612"
    },
    {
      "channel": 1,
      "note": 68,
      "start": 55.6229,
      "duration": 0.0162,
      "velocity": 124,
      "chip": "ym2612"
    },
    {
      "channel": 4,
      "note": 74,
      "start": 55.6244,
      "duration": 0.016,
      "velocity": 94,
      "chip": "ym2612"
    },
    {
      "channel": 3,
      "note": 79,
      "start": 55.6256,
      "duration": 0.0159,
      "velocity": 94,
      "chip": "ym2612"
    },
    {
      "channel": 2,
      "note": 55,
      "start": 55.6296,
      "duration": 0.0131,
      "velocity": 100,
      "chip": "ym2612"
    },
    {
      "channel": 1,
      "note": 66,
      "start": 55.639,
      "duration": 0.0161,
      "velocity": 124,
      "chip": "ym2612"
    },
    {
      "channel": 4,
      "note": 74,
      "start": 55.6404,
      "duration": 0.0161,
      "velocity": 94,
      "chip": "ym2612"
    },
    {
      "channel": 3,
      "note": 79,
      "start": 55.6415,
      "duration": 0.0161,
      "velocity": 94,
      "chip": "ym2612"
    },
    {
      "channel": 2,
      "note": 55,
      "start": 55.6427,
      "duration": 0.0161,
      "velocity": 100,
      "chip": "ym2612"
    },
    {
      "channel": 1,
      "note": 65,
      "start": 55.6551,
      "duration": 0.0161,
      "velocity": 124,
      "chip": "ym2612"
    },
    {
      "channel": 4,
      "note": 74,
      "start": 55.6565,
      "duration": 0.0161,
      "velocity": 94,
      "chip": "ym2612"
    },
    {
      "channel": 3,
      "note": 79,
      "start": 55.6576,
      "duration": 0.0162,
      "velocity": 94,
      "chip": "ym2612"
    },
    {
      "channel": 2,
      "note": 55,
      "start": 55.6588,
      "duration": 0.0161,
      "velocity": 100,
      "chip": "ym2612"
    },
    {
      "channel": 1,
      "note": 64,
      "start": 55.6712,
      "duration": 0.0161,
      "velocity": 124,
      "chip": "ym2612"
    },
    {
      "channel": 4,
      "note": 74,
      "start": 55.6726,
      "duration": 0.0161,
      "velocity": 94,
      "chip": "ym2612"
    },
    {
      "channel": 3,
      "note": 79,
      "start": 55.6738,
      "duration": 0.0161,
      "velocity": 94,
      "chip": "ym2612"
    },
    {
      "channel": 2,
      "note": 55,
      "start": 55.6749,
      "duration": 0.0161,
      "velocity": 100,
      "chip": "ym2612"
    },
    {
      "channel": 1,
      "note": 62,
      "start": 55.6873,
      "duration": 0.0161,
      "velocity": 124,
      "chip": "ym2612"
    },
    {
      "channel": 4,
      "note": 74,
      "start": 55.6887,
      "duration": 0.0161,
      "velocity": 94,
      "chip": "ym2612"
    },
    {
      "channel": 3,
      "note": 79,
      "start": 55.6899,
      "duration": 0.0161,
      "velocity": 94,
      "chip": "ym2612"
    },
    {
      "channel": 2,
      "note": 55,
      "start": 55.691,
      "duration": 0.0162,
      "velocity": 100,
      "chip": "ym2612"
    },
    {
      "channel": 1,
      "note": 61,
      "start": 55.7034,
      "duration": 0.0161,
      "velocity": 124,
      "chip": "ym2612"
    },
    {
      "channel": 4,
      "note": 74,
      "start": 55.7048,
      "duration": 0.0167,
      "velocity": 94,
      "chip": "ym2612"
    },
    {
      "channel": 3,
      "note": 79,
      "start": 55.706,
      "duration": 0.0169,
      "velocity": 94,
      "chip": "ym2612"
    },
    {
      "channel": 2,
      "note": 55,
      "start": 55.7071,
      "duration": 0.0172,
      "velocity": 100,
      "chip": "ym2612"
    },
    {
      "channel": 1,
      "note": 60,
      "start": 55.7195,
      "duration": 0.0161,
      "velocity": 124,
      "chip": "ym2612"
    },
    {
      "channel": 4,
      "note": 74,
      "start": 55.7215,
      "duration": 0.0155,
      "velocity": 94,
      "chip": "ym2612"
    },
    {
      "channel": 3,
      "note": 74,
      "start": 55.7229,
      "duration": 0.0153,
      "velocity": 94,
      "chip": "ym2612"
    },
    {
      "channel": 2,
      "note": 48,
      "start": 55.7244,
      "duration": 0.0151,
      "velocity": 100,
      "chip": "ym2612"
    },
    {
      "channel": 1,
      "note": 59,
      "start": 55.7356,
      "duration": 0.0161,
      "velocity": 124,
      "chip": "ym2612"
    },
    {
      "channel": 4,
      "note": 74,
      "start": 55.7371,
      "duration": 0.016,
      "velocity": 94,
      "chip": "ym2612"
    },
    {
      "channel": 3,
      "note": 74,
      "start": 55.7383,
      "duration": 0.016,
      "velocity": 94,
      "chip": "ym2612"
    },
    {
      "channel": 2,
      "note": 48,
      "start": 55.7395,
      "duration": 0.0159,
      "velocity": 100,
      "chip": "ym2612"
    },
    {
      "channel": 1,
      "note": 57,
      "start": 55.7517,
      "duration": 0.0161,
      "velocity": 124,
      "chip": "ym2612"
    },
    {
      "channel": 4,
      "note": 74,
      "start": 55.7531,
      "duration": 0.0161,
      "velocity": 94,
      "chip": "ym2612"
    },
    {
      "channel": 3,
      "note": 74,
      "start": 55.7542,
      "duration": 0.0161,
      "velocity": 94,
      "chip": "ym2612"
    },
    {
      "channel": 2,
      "note": 48,
      "start": 55.7554,
      "duration": 0.0161,
      "velocity": 100,
      "chip": "ym2612"
    },
    {
      "channel": 1,
      "note": 56,
      "start": 55.7678,
      "duration": 0.0161,
      "velocity": 124,
      "chip": "ym2612"
    },
    {
      "channel": 4,
      "note": 74,
      "start": 55.7692,
      "duration": 0.0161,
      "velocity": 94,
      "chip": "ym2612"
    },
    {
      "channel": 3,
      "note": 74,
      "start": 55.7703,
      "duration": 0.0161,
      "velocity": 94,
      "chip": "ym2612"
    },
    {
      "channel": 2,
      "note": 48,
      "start": 55.7715,
      "duration": 0.0161,
      "velocity": 100,
      "chip": "ym2612"
    },
    {
      "channel": 1,
      "note": 55,
      "start": 55.7839,
      "duration": 0.0161,
      "velocity": 124,
      "chip": "ym2612"
    },
    {
      "channel": 4,
      "note": 74,
      "start": 55.7853,
      "duration": 0.0161,
      "velocity": 94,
      "chip": "ym2612"
    },
    {
      "channel": 3,
      "note": 74,
      "start": 55.7864,
      "duration": 0.0161,
      "velocity": 94,
      "chip": "ym2612"
    },
    {
      "channel": 2,
      "note": 48,
      "start": 55.7876,
      "duration": 0.0161,
      "velocity": 100,
      "chip": "ym2612"
    },
    {
      "channel": 1,
      "note": 53,
      "start": 55.8,
      "duration": 0.0161,
      "velocity": 124,
      "chip": "ym2612"
    },
    {
      "channel": 4,
      "note": 74,
      "start": 55.8014,
      "duration": 0.0161,
      "velocity": 94,
      "chip": "ym2612"
    },
    {
      "channel": 3,
      "note": 74,
      "start": 55.8025,
      "duration": 0.0161,
      "velocity": 94,
      "chip": "ym2612"
    },
    {
      "channel": 2,
      "note": 48,
      "start": 55.8037,
      "duration": 0.0161,
      "velocity": 100,
      "chip": "ym2612"
    },
    {
      "channel": 1,
      "note": 52,
      "start": 55.8161,
      "duration": 0.0161,
      "velocity": 124,
      "chip": "ym2612"
    },
    {
      "channel": 4,
      "note": 74,
      "start": 55.8175,
      "duration": 0.0204,
      "velocity": 94,
      "chip": "ym2612"
    },
    {
      "channel": 3,
      "note": 74,
      "start": 55.8186,
      "duration": 0.0205,
      "velocity": 94,
      "chip": "ym2612"
    },
    {
      "channel": 2,
      "note": 48,
      "start": 55.8198,
      "duration": 0.0208,
      "velocity": 100,
      "chip": "ym2612"
    },
    {
      "channel": 1,
      "note": 51,
      "start": 55.8322,
      "duration": 0.0153,
      "velocity": 1,
      "chip": "ym2612"
    },
    {
      "channel": 0,
      "note": 78,
      "start": 55.8365,
      "duration": 0.0149,
      "velocity": 127,
      "chip": "ym2612"
    },
    {
      "channel": 4,
      "note": 74,
      "start": 55.8379,
      "duration": 0.0148,
      "velocity": 94,
      "chip": "ym2612"
    },
    {
      "channel": 3,
      "note": 74,
      "start": 55.8392,
      "duration": 0.0147,
      "velocity": 94,
      "chip": "ym2612"
    },
    {
      "channel": 2,
      "note": 48,
      "start": 55.8406,
      "duration": 0.0144,
      "velocity": 100,
      "chip": "ym2612"
    },
    {
      "channel": 1,
      "note": 51,
      "start": 55.8497,
      "duration": 0.0142,
      "velocity": 105,
      "chip": "ym2612"
    },
    {
      "channel": 0,
      "note": 76,
      "start": 55.8515,
      "duration": 0.0141,
      "velocity": 127,
      "chip": "ym2612"
    },
    {
      "channel": 4,
      "note": 74,
      "start": 55.8527,
      "duration": 0.0141,
      "velocity": 94,
      "chip": "ym2612"
    },
    {
      "channel": 3,
      "note": 74,
      "start": 55.8539,
      "duration": 0.0141,
      "velocity": 94,
      "chip": "ym2612"
    },
    {
      "channel": 2,
      "note": 48,
      "start": 55.855,
      "duration": 0.014,
      "velocity": 100,
      "chip": "ym2612"
    },
    {
      "channel": 1,
      "note": 105,
      "start": 55.8639,
      "duration": 0.0161,
      "velocity": 105,
      "chip": "ym2612"
    },
    {
      "channel": 0,
      "note": 75,
      "start": 55.8656,
      "duration": 0.0161,
      "velocity": 127,
      "chip": "ym2612"
    },
    {
      "channel": 4,
      "note": 74,
      "start": 55.8668,
      "duration": 0.0161,
      "velocity": 94,
      "chip": "ym2612"
    },
    {
      "channel": 3,
      "note": 74,
      "start": 55.8679,
      "duration": 0.0161,
      "velocity": 94,
      "chip": "ym2612"
    },
    {
      "channel": 2,
      "note": 48,
      "start": 55.869,
      "duration": 0.0161,
      "velocity": 100,
      "chip": "ym2612"
    },
    {
      "channel": 1,
      "note": 105,
      "start": 55.88,
      "duration": 0.0173,
      "velocity": 105,
      "chip": "ym2612"
    },
    {
      "channel": 0,
      "note": 73,
      "start": 55.8817,
      "duration": 0.0173,
      "velocity": 127,
      "chip": "ym2612"
    },
    {
      "channel": 4,
      "note": 74,
      "start": 55.8829,
      "duration": 0.0172,
      "velocity": 94,
      "chip": "ym2612"
    },
    {
      "channel": 3,
      "note": 74,
      "start": 55.884,
      "duration": 0.0173,
      "velocity": 94,
      "chip": "ym2612"
    },
    {
      "channel": 2,
      "note": 48,
      "start": 55.8851,
      "duration": 0.0173,
      "velocity": 100,
      "chip": "ym2612"
    },
    {
      "channel": 1,
      "note": 105,
      "start": 55.8973,
      "duration": 0.0167,
      "velocity": 105,
      "chip": "ym2612"
    },
    {
      "channel": 0,
      "note": 71,
      "start": 55.899,
      "duration": 0.0167,
      "velocity": 127,
      "chip": "ym2612"
    },
    {
      "channel": 4,
      "note": 74,
      "start": 55.9001,
      "duration": 0.0167,
      "velocity": 94,
      "chip": "ym2612"
    },
    {
      "channel": 3,
      "note": 74,
      "start": 55.9013,
      "duration": 0.0167,
      "velocity": 94,
      "chip": "ym2612"
    },
    {
      "channel": 2,
      "note": 48,
      "start": 55.9024,
      "duration": 0.0167,
      "velocity": 100,
      "chip": "ym2612"
    },
    {
      "channel": 1,
      "note": 105,
      "start": 55.914,
      "duration": 0.0163,
      "velocity": 105,
      "chip": "ym2612"
    },
    {
      "channel": 0,
      "note": 70,
      "start": 55.9156,
      "duration": 0.0163,
      "velocity": 127,
      "chip": "ym2612"
    },
    {
      "channel": 4,
      "note": 74,
      "start": 55.9168,
      "duration": 0.0163,
      "velocity": 94,
      "chip": "ym2612"
    },
    {
      "channel": 3,
      "note": 74,
      "start": 55.9179,
      "duration": 0.0163,
      "velocity": 94,
      "chip": "ym2612"
    },
    {
      "channel": 2,
      "note": 48,
      "start": 55.9191,
      "duration": 0.0163,
      "velocity": 100,
      "chip": "ym2612"
    },
    {
      "channel": 1,
      "note": 105,
      "start": 55.9303,
      "duration": 0.0162,
      "velocity": 124,
      "chip": "ym2612"
    },
    {
      "channel": 0,
      "note": 68,
      "start": 55.9319,
      "duration": 0.018,
      "velocity": 115,
      "chip": "ym2612"
    },
    {
      "channel": 4,
      "note": 74,
      "start": 55.9331,
      "duration": 0.0181,
      "velocity": 94,
      "chip": "ym2612"
    },
    {
      "channel": 3,
      "note": 74,
      "start": 55.9342,
      "duration": 0.0184,
      "velocity": 94,
      "chip": "ym2612"
    },
    {
      "channel": 2,
      "note": 48,
      "start": 55.9354,
      "duration": 0.0187,
      "velocity": 100,
      "chip": "ym2612"
    },
    {
      "channel": 1,
      "note": 64,
      "start": 55.9465,
      "duration": 0.0169,
      "velocity": 124,
      "chip": "ym2612"
    },
    {
      "channel": 0,
      "note": 36,
      "start": 55.95,
      "duration": 0.0151,
      "velocity": 115,
      "chip": "ym2612"
    },
    {
      "channel": 4,
      "note": 74,
      "start": 55.9513,
      "duration": 0.015,
      "velocity": 94,
      "chip": "ym2612"
    },
    {
      "channel": 3,
      "note": 74,
      "start": 55.9527,
      "duration": 0.0148,
      "velocity": 94,
      "chip": "ym2612"
    },
    {
      "channel": 2,
      "note": 50,
      "start": 55.9541,
      "duration": 0.0146,
      "velocity": 100,
      "chip": "ym2612"
    },
    {
      "channel": 1,
      "note": 64,
      "start": 55.9634,
      "duration": 0.016,
      "velocity": 124,
      "chip": "ym2612"
    },
    {
      "channel": 0,
      "note": 36,
      "start": 55.9651,
      "duration": 0.016,
      "velocity": 115,
      "chip": "ym2612"
    },
    {
      "channel": 4,
      "note": 74,
      "start": 55.9663,
      "duration": 0.016,
      "velocity": 94,
      "chip": "ym2612"
    },
    {
      "channel": 3,
      "note": 74,
      "start": 55.9675,
      "duration": 0.0159,
      "velocity": 94,
      "chip": "ym2612"
    },
    {
      "channel": 2,
      "note": 50,
      "start": 55.9687,
      "duration": 0.0159,
      "velocity": 100,
      "chip": "ym2612"
    },
    {
      "channel": 1,
      "note": 64,
      "start": 55.9794,
      "duration": 0.0134,
      "velocity": 124,
      "chip": "ym2612"
    },
    {
      "channel": 0,
      "note": 37,
      "start": 55.9811,
      "duration": 0.0157,
      "velocity": 115,
      "chip": "ym2612"
    },
    {
      "channel": 4,
      "note": 74,
      "start": 55.9822,
      "duration": 0.0157,
      "velocity": 94,
      "chip": "ym2612"
    },
    {
      "channel": 3,
      "note": 74,
      "start": 55.9834,
      "duration": 0.0157,
      "velocity": 94,
      "chip": "ym2612"
    },
    {
      "channel": 2,
      "note": 50,
      "start": 55.9845,
      "duration": 0.0157,
      "velocity": 100,
      "chip": "ym2612"
    },
    {
      "channel": 1,
      "note": 64,
      "start": 55.9927,
      "duration": 0.0161,
      "velocity": 124,
      "chip": "ym2612"
    },
    {
      "channel": 0,
      "note": 37,
      "start": 55.9968,
      "duration": 0.0141,
      "velocity": 115,
      "chip": "ym2612"
    },
    {
      "channel": 4,
      "note": 74,
      "start": 55.998,
      "duration": 0.0141,
      "velocity": 94,
      "chip": "ym2612"
    },
    {
      "channel": 3,
      "note": 74,
      "start": 55.9991,
      "duration": 0.0141,
      "velocity": 94,
      "chip": "ym2612"
    },
    {
      "channel": 2,
      "note": 50,
      "start": 56.0002,
      "duration": 0.0141,
      "velocity": 100,
      "chip": "ym2612"
    },
    {
      "channel": 1,
      "note": 64,
      "start": 56.0088,
      "duration": 0.0161,
      "velocity": 124,
      "chip": "ym2612"
    },
    {
      "channel": 0,
      "note": 38,
      "start": 56.0109,
      "duration": 0.0185,
      "velocity": 115,
      "chip": "ym2612"
    },
    {
      "channel": 4,
      "note": 74,
      "start": 56.012,
      "duration": 0.0185,
      "velocity": 94,
      "chip": "ym2612"
    },
    {
      "channel": 3,
      "note": 74,
      "start": 56.0132,
      "duration": 0.0185,
      "velocity": 94,
      "chip": "ym2612"
    },
    {
      "channel": 2,
      "note": 50,
      "start": 56.0143,
      "duration": 0.0185,
      "velocity": 100,
      "chip": "ym2612"
    },
    {
      "channel": 1,
      "note": 64,
      "start": 56.0249,
      "duration": 0.0162,
      "velocity": 124,
      "chip": "ym2612"
    },
    {
      "channel": 0,
      "note": 38,
      "start": 56.0294,
      "duration": 0.0134,
      "velocity": 115,
      "chip": "ym2612"
    },
    {
      "channel": 4,
      "note": 74,
      "start": 56.0305,
      "duration": 0.0161,
      "velocity": 94,
      "chip": "ym2612"
    },
    {
      "channel": 3,
      "note": 74,
      "start": 56.0317,
      "duration": 0.0161,
      "velocity": 94,
      "chip": "ym2612"
    },
    {
      "channel": 2,
      "note": 50,
      "start": 56.0328,
      "duration": 0.0161,
      "velocity": 100,
      "chip": "ym2612"
    },
    {
      "channel": 1,
      "note": 64,
      "start": 56.0411,
      "duration": 0.0177,
      "velocity": 105,
      "chip": "ym2612"
    },
    {
      "channel": 0,
      "note": 39,
      "start": 56.0427,
      "duration": 0.0202,
      "velocity": 115,
      "chip": "ym2612"
    },
    {
      "channel": 4,
      "note": 74,
      "start": 56.0466,
      "duration": 0.0177,
      "velocity": 94,
      "chip": "ym2612"
    },
    {
      "channel": 3,
      "note": 74,
      "start": 56.0478,
      "duration": 0.0179,
      "velocity": 94,
      "chip": "ym2612"
    },
    {
      "channel": 2,
      "note": 50,
      "start": 56.0489,
      "duration": 0.0181,
      "velocity": 100,
      "chip": "ym2612"
    },
    {
      "channel": 1,
      "note": 105,
      "start": 56.0589,
      "duration": 0.0144,
      "velocity": 105,
      "chip": "ym2612"
    },
    {
      "channel": 0,
      "note": 39,
      "start": 56.063,
      "duration": 0.012,
      "velocity": 115,
      "chip": "ym2612"
    },
    {
      "channel": 4,
      "note": 79,
      "start": 56.0644,
      "duration": 0.0118,
      "velocity": 94,
      "chip": "ym2612"
    },
    {
      "channel": 3,
      "note": 74,
      "start": 56.0656,
      "duration": 0.0121,
      "velocity": 94,
      "chip": "ym2612"
    },
    {
      "channel": 2,
      "note": 50,
      "start": 56.0671,
      "duration": 0.0118,
      "velocity": 100,
      "chip": "ym2612"
    },
    {
      "channel": 1,
      "note": 105,
      "start": 56.0733,
      "duration": 0.0161,
      "velocity": 105,
      "chip": "ym2612"
    },
    {
      "channel": 0,
      "note": 40,
      "start": 56.075,
      "duration": 0.016,
      "velocity": 115,
      "chip": "ym2612"
    },
    {
      "channel": 4,
      "note": 79,
      "start": 56.0762,
      "duration": 0.016,
      "velocity": 94,
      "chip": "ym2612"
    },
    {
      "channel": 3,
      "note": 74,
      "start": 56.0777,
      "duration": 0.0184,
      "velocity": 94,
      "chip": "ym2612"
    },
    {
      "channel": 2,
      "note": 50,
      "start": 56.0789,
      "duration": 0.0183,
      "velocity": 100,
      "chip": "ym2612"
    },
    {
      "channel": 1,
      "note": 105,
      "start": 56.0894,
      "duration": 0.0161,
      "velocity": 105,
      "chip": "ym2612"
    },
    {
      "channel": 0,
      "note": 40,
      "start": 56.091,
      "duration": 0.0161,
      "velocity": 115,
      "chip": "ym2612"
    },
    {
      "channel": 4,
      "note": 79,
      "start": 56.0922,
      "duration": 0.0162,
      "velocity": 94,
      "chip": "ym2612"
    },
    {
      "channel": 3,
      "note": 74,
      "start": 56.0961,
      "duration": 0.0133,
      "velocity": 94,
      "chip": "ym2612"
    },
    {
      "channel": 2,
      "note": 50,
      "start": 56.0972,
      "duration": 0.0161,
      "velocity": 100,
      "chip": "ym2612"
    },
    {
      "channel": 1,
      "note": 105,
      "start": 56.1055,
      "duration": 0.0161,
      "velocity": 105,
      "chip": "ym2612"
    },
    {
      "channel": 0,
      "note": 40,
      "start": 56.1071,
      "duration": 0.0161,
      "velocity": 115,
      "chip": "ym2612"
    },
    {
      "channel": 4,
      "note": 79,
      "start": 56.1083,
      "duration": 0.0161,
      "velocity": 94,
      "chip": "ym2612"
    },
    {
      "channel": 3,
      "note": 74,
      "start": 56.1094,
      "duration": 0.0161,
      "velocity": 94,
      "chip": "ym2612"
    },
    {
      "channel": 2,
      "note": 50,
      "start": 56.1133,
      "duration": 0.0158,
      "velocity": 100,
      "chip": "ym2612"
    },
    {
      "channel": 1,
      "note": 105,
      "start": 56.1215,
      "duration": 0.0161,
      "velocity": 105,
      "chip": "ym2612"
    },
    {
      "channel": 0,
      "note": 41,
      "start": 56.1232,
      "duration": 0.0161,
      "velocity": 115,
      "chip": "ym2612"
    },
    {
      "channel": 4,
      "note": 79,
      "start": 56.1244,
      "duration": 0.0161,
      "velocity": 94,
      "chip": "ym2612"
    },
    {
      "channel": 3,
      "note": 74,
      "start": 56.1256,
      "duration": 0.0161,
      "velocity": 94,
      "chip": "ym2612"
    },
    {
      "channel": 2,
      "note": 50,
      "start": 56.129,
      "duration": 0.0137,
      "velocity": 100,
      "chip": "ym2612"
    },
    {
      "channel": 1,
      "note": 105,
      "start": 56.1376,
      "duration": 0.0161,
      "velocity": 105,
      "chip": "ym2612"
    },
    {
      "channel": 0,
      "note": 41,
      "start": 56.1393,
      "duration": 0.0161,
      "velocity": 115,
      "chip": "ym2612"
    },
    {
      "channel": 4,
      "note": 79,
      "start": 56.1405,
      "duration": 0.0161,
      "velocity": 94,
      "chip": "ym2612"
    },
    {
      "channel": 3,
      "note": 74,
      "start": 56.1417,
      "duration": 0.0161,
      "velocity": 94,
      "chip": "ym2612"
    },
    {
      "channel": 2,
      "note": 50,
      "start": 56.1427,
      "duration": 0.0161,
      "velocity": 100,
      "chip": "ym2612"
    },
    {
      "channel": 1,
      "note": 105,
      "start": 56.1537,
      "duration": 0.0178,
      "velocity": 124,
      "chip": "ym2612"
    },
    {
      "channel": 0,
      "note": 42,
      "start": 56.1554,
      "duration": 0.0179,
      "velocity": 115,
      "chip": "ym2612"
    },
    {
      "channel": 4,
      "note": 79,
      "start": 56.1566,
      "duration": 0.0179,
      "velocity": 94,
      "chip": "ym2612"
    },
    {
      "channel": 3,
      "note": 74,
      "start": 56.1578,
      "duration": 0.0182,
      "velocity": 94,
      "chip": "ym2612"
    },
    {
      "channel": 2,
      "note": 50,
      "start": 56.1588,
      "duration": 0.0213,
      "velocity": 100,
      "chip": "ym2612"
    },
    {
      "channel": 1,
      "note": 64,
      "start": 56.1716,
      "duration": 0.0144,
      "velocity": 124,
      "chip": "ym2612"
    },
    {
      "channel": 0,
      "note": 42,
      "start": 56.1733,
      "duration": 0.0144,
      "velocity": 115,
      "chip": "ym2612"
    },
    {
      "channel": 4,
      "note": 79,
      "start": 56.1745,
      "duration": 0.0144,
      "velocity": 94,
      "chip": "ym2612"
    },
    {
      "channel": 3,
      "note": 79,
      "start": 56.1759,
      "duration": 0.0142,
      "velocity": 94,
      "chip": "ym2612"
    },
    {
      "channel": 2,
      "note": 50,
      "start": 56.1802,
      "duration": 0.0111,
      "velocity": 100,
      "chip": "ym2612"
    },
    {
      "channel": 1,
      "note": 64,
      "start": 56.186,
      "duration": 0.0161,
      "velocity": 124,
      "chip": "ym2612"
    },
    {
      "channel": 0,
      "note": 43,
      "start": 56.1877,
      "duration": 0.016,
      "velocity": 115,
      "chip": "ym2612"
    },
    {
      "channel": 4,
      "note": 79,
      "start": 56.1889,
      "duration": 0.016,
      "velocity": 94,
      "chip": "ym2612"
    },
    {
      "channel": 3,
      "note": 79,
      "start": 56.1901,
      "duration": 0.0159,
      "velocity": 94,
      "chip": "ym2612"
    },
    {
      "channel": 2,
      "note": 50,
      "start": 56.1913,
      "duration": 0.0159,
      "velocity": 100,
      "chip": "ym2612"
    },
    {
      "channel": 1,
      "note": 64,
      "start": 56.2021,
      "duration": 0.0161,
      "velocity": 124,
      "chip": "ym2612"
    },
    {
      "channel": 0,
      "note": 43,
      "start": 56.2037,
      "duration": 0.0161,
      "velocity": 115,
      "chip": "ym2612"
    },
    {
      "channel": 4,
      "note": 79,
      "start": 56.2049,
      "duration": 0.0161,
      "velocity": 94,
      "chip": "ym2612"
    },
    {
      "channel": 3,
      "note": 79,
      "start": 56.206,
      "duration": 0.0161,
      "velocity": 94,
      "chip": "ym2612"
    },
    {
      "channel": 2,
      "note": 50,
      "start": 56.2072,
      "duration": 0.0161,
      "velocity": 100,
      "chip": "ym2612"
    },
    {
      "channel": 1,
      "note": 64,
      "start": 56.2182,
      "duration": 0.0161,
      "velocity": 124,
      "chip": "ym2612"
    },
    {
      "channel": 0,
      "note": 44,
      "start": 56.2198,
      "duration": 0.0161,
      "velocity": 115,
      "chip": "ym2612"
    },
    {
      "channel": 4,
      "note": 79,
      "start": 56.221,
      "duration": 0.0161,
      "velocity": 94,
      "chip": "ym2612"
    },
    {
      "channel": 3,
      "note": 79,
      "start": 56.2221,
      "duration": 0.0161,
      "velocity": 94,
      "chip": "ym2612"
    },
    {
      "channel": 2,
      "note": 50,
      "start": 56.2233,
      "duration": 0.0161,
      "velocity": 100,
      "chip": "ym2612"
    },
    {
      "channel": 1,
      "note": 64,
      "start": 56.2343,
      "duration": 0.0161,
      "velocity": 124,
      "chip": "ym2612"
    },
    {
      "channel": 0,
      "note": 44,
      "start": 56.2359,
      "duration": 0.0161,
      "velocity": 115,
      "chip": "ym2612"
    },
    {
      "channel": 4,
      "note": 79,
      "start": 56.2371,
      "duration": 0.0161,
      "velocity": 94,
      "chip": "ym2612"
    },
    {
      "channel": 3,
      "note": 79,
      "start": 56.2382,
      "duration": 0.0162,
      "velocity": 94,
      "chip": "ym2612"
    },
    {
      "channel": 2,
      "note": 50,
      "start": 56.2394,
      "duration": 0.0161,
      "velocity": 100,
      "chip": "ym2612"
    },
    {
      "channel": 1,
      "note": 64,
      "start": 56.2504,
      "duration": 0.0161,
      "velocity": 124,
      "chip": "ym2612"
    },
    {
      "channel": 0,
      "note": 44,
      "start": 56.252,
      "duration": 0.0161,
      "velocity": 115,
      "chip": "ym2612"
    },
    {
      "channel": 4,
      "note": 79,
      "start": 56.2532,
      "duration": 0.0161,
      "velocity": 94,
      "chip": "ym2612"
    },
    {
      "channel": 3,
      "note": 79,
      "start": 56.2544,
      "duration": 0.0161,
      "velocity": 94,
      "chip": "ym2612"
    },
    {
      "channel": 2,
      "note": 50,
      "start": 56.2555,
      "duration": 0.0161,
      "velocity": 100,
      "chip": "ym2612"
    },
    {
      "channel": 1,
      "note": 64,
      "start": 56.2665,
      "duration": 0.0178,
      "velocity": 105,
      "chip": "ym2612"
    },
    {
      "channel": 0,
      "note": 45,
      "start": 56.2681,
      "duration": 0.0178,
      "velocity": 115,
      "chip": "ym2612"
    },
    {
      "channel": 4,
      "note": 79,
      "start": 56.2693,
      "duration": 0.018,
      "velocity": 94,
      "chip": "ym2612"
    },
    {
      "channel": 3,
      "note": 79,
      "start": 56.2705,
      "duration": 0.0182,
      "velocity": 94,
      "chip": "ym2612"
    },
    {
      "channel": 2,
      "note": 50,
      "start": 56.2715,
      "duration": 0.0185,
      "velocity": 100,
      "chip": "ym2612"
    },
    {
      "channel": 1,
      "note": 105,
      "start": 56.2843,
      "duration": 0.0144,
      "velocity": 105,
      "chip": "ym2612"
    },
    {
      "channel": 0,
      "note": 45,
      "start": 56.2859,
      "duration": 0.0144,
      "velocity": 115,
      "chip": "ym2612"
    },
    {
      "channel": 4,
      "note": 79,
      "start": 56.2874,
      "duration": 0.0142,
      "velocity": 94,
      "chip": "ym2612"
    },
    {
      "channel": 3,
      "note": 79,
      "start": 56.2887,
      "duration": 0.0141,
      "velocity": 94,
      "chip": "ym2612"
    },
    {
      "channel": 2,
      "note": 50,
      "start": 56.2901,
      "duration": 0.0139,
      "velocity": 100,
      "chip": "ym2612"
    },
    {
      "channel": 1,
      "note": 105,
      "start": 56.2987,
      "duration": 0.016,
      "velocity": 105,
      "chip": "ym2612"
    },
    {
      "channel": 0,
      "note": 46,
      "start": 56.3004,
      "duration": 0.016,
      "velocity": 115,
      "chip": "ym2612"
    },
    {
      "channel": 4,
      "note": 79,
      "start": 56.3016,
      "duration": 0.016,
      "velocity": 94,
      "chip": "ym2612"
    },
    {
      "channel": 3,
      "note": 79,
      "start": 56.3028,
      "duration": 0.016,
      "velocity": 94,
      "chip": "ym2612"
    },
    {
      "channel": 2,
      "note": 50,
      "start": 56.304,
      "duration": 0.0159,
      "velocity": 100,
      "chip": "ym2612"
    },
    {
      "channel": 1,
      "note": 105,
      "start": 56.3147,
      "duration": 0.0161,
      "velocity": 105,
      "chip": "ym2612"
    },
    {
      "channel": 0,
      "note": 46,
      "start": 56.3164,
      "duration": 0.0162,
      "velocity": 115,
      "chip": "ym2612"
    },
    {
      "channel": 4,
      "note": 79,
      "start": 56.3176,
      "duration": 0.0161,
      "velocity": 94,
      "chip": "ym2612"
    },
    {
      "channel": 3,
      "note": 79,
      "start": 56.3188,
      "duration": 0.0161,
      "velocity": 94,
      "chip": "ym2612"
    },
    {
      "channel": 2,
      "note": 50,
      "start": 56.3198,
      "duration": 0.0161,
      "velocity": 100,
      "chip": "ym2612"
    },
    {
      "channel": 1,
      "note": 105,
      "start": 56.3308,
      "duration": 0.0162,
      "velocity": 105,
      "chip": "ym2612"
    },
    {
      "channel": 0,
      "note": 47,
      "start": 56.3326,
      "duration": 0.0161,
      "velocity": 115,
      "chip": "ym2612"
    },
    {
      "channel": 4,
      "note": 79,
      "start": 56.3337,
      "duration": 0.0161,
      "velocity": 94,
      "chip": "ym2612"
    },
    {
      "channel": 3,
      "note": 79,
      "start": 56.3349,
      "duration": 0.0161,
      "velocity": 94,
      "chip": "ym2612"
    },
    {
      "channel": 2,
      "note": 50,
      "start": 56.336,
      "duration": 0.0161,
      "velocity": 100,
      "chip": "ym2612"
    },
    {
      "channel": 1,
      "note": 105,
      "start": 56.347,
      "duration": 0.017,
      "velocity": 105,
      "chip": "ym2612"
    },
    {
      "channel": 0,
      "note": 47,
      "start": 56.3486,
      "duration": 0.017,
      "velocity": 115,
      "chip": "ym2612"
    },
    {
      "channel": 4,
      "note": 79,
      "start": 56.3498,
      "duration": 0.017,
      "velocity": 94,
      "chip": "ym2612"
    },
    {
      "channel": 3,
      "note": 79,
      "start": 56.3509,
      "duration": 0.017,
      "velocity": 94,
      "chip": "ym2612"
    },
    {
      "channel": 2,
      "note": 50,
      "start": 56.3521,
      "duration": 0.017,
      "velocity": 100,
      "chip": "ym2612"
    },
    {
      "channel": 1,
      "note": 105,
      "start": 56.364,
      "duration": 0.0167,
      "velocity": 105,
      "chip": "ym2612"
    },
    {
      "channel": 0,
      "note": 47,
      "start": 56.3656,
      "duration": 0.0167,
      "velocity": 115,
      "chip": "ym2612"
    },
    {
      "channel": 4,
      "note": 79,
      "start": 56.3668,
      "duration": 0.0167,
      "velocity": 94,
      "chip": "ym2612"
    },
    {
      "channel": 3,
      "note": 79,
      "start": 56.3679,
      "duration": 0.0167,
      "velocity": 94,
      "chip": "ym2612"
    },
    {
      "channel": 2,
      "note": 50,
      "start": 56.3691,
      "duration": 0.0167,
      "velocity": 100,
      "chip": "ym2612"
    },
    {
      "channel": 1,
      "note": 105,
      "start": 56.3807,
      "duration": 0.0185,
      "velocity": 124,
      "chip": "ym2612"
    },
    {
      "channel": 0,
      "note": 48,
      "start": 56.3823,
      "duration": 0.0193,
      "velocity": 115,
      "chip": "ym2612"
    },
    {
      "channel": 4,
      "note": 79,
      "start": 56.3834,
      "duration": 0.0195,
      "velocity": 94,
      "chip": "ym2612"
    },
    {
      "channel": 3,
      "note": 79,
      "start": 56.3846,
      "duration": 0.0196,
      "velocity": 94,
      "chip": "ym2612"
    },
    {
      "channel": 2,
      "note": 50,
      "start": 56.3857,
      "duration": 0.02,
      "velocity": 100,
      "chip": "ym2612"
    },
    {
      "channel": 1,
      "note": 78,
      "start": 56.3992,
      "duration": 0.0129,
      "velocity": 124,
      "chip": "ym2612"
    },
    {
      "channel": 0,
      "note": 48,
      "start": 56.4016,
      "duration": 0.0124,
      "velocity": 115,
      "chip": "ym2612"
    },
    {
      "channel": 4,
      "note": 79,
      "start": 56.4029,
      "duration": 0.0124,
      "velocity": 94,
      "chip": "ym2612"
    },
    {
      "channel": 3,
      "note": 79,
      "start": 56.4043,
      "duration": 0.0122,
      "velocity": 94,
      "chip": "ym2612"
    },
    {
      "channel": 2,
      "note": 50,
      "start": 56.4058,
      "duration": 0.0119,
      "velocity": 100,
      "chip": "ym2612"
    },
    {
      "channel": 1,
      "note": 76,
      "start": 56.4121,
      "duration": 0.0186,
      "velocity": 124,
      "chip": "ym2612"
    },
    {
      "channel": 0,
      "note": 49,
      "start": 56.414,
      "duration": 0.0178,
      "velocity": 1,
      "chip": "ym2612"
    },
    {
      "channel": 4,
      "note": 79,
      "start": 56.4153,
      "duration": 0.0177,
      "velocity": 94,
      "chip": "ym2612"
    },
    {
      "channel": 3,
      "note": 79,
      "start": 56.4165,
      "duration": 0.0176,
      "velocity": 94,
      "chip": "ym2612"
    },
    {
      "channel": 2,
      "note": 50,
      "start": 56.4177,
      "duration": 0.0176,
      "velocity": 100,
      "chip": "ym2612"
    },
    {
      "channel": 1,
      "note": 75,
      "start": 56.4307,
      "duration": 0.0161,
      "velocity": 124,
      "chip": "ym2612"
    },
    {
      "channel": 4,
      "note": 79,
      "start": 56.4329,
      "duration": 0.0153,
      "velocity": 94,
      "chip": "ym2612"
    },
    {
      "channel": 3,
      "note": 79,
      "start": 56.4341,
      "duration": 0.0153,
      "velocity": 94,
      "chip": "ym2612"
    },
    {
      "channel": 2,
      "note": 50,
      "start": 56.4352,
      "duration": 0.0153,
      "velocity": 100,
      "chip": "ym2612"
    },
    {
      "channel": 1,
      "note": 74,
      "start": 56.4468,
      "duration": 0.0158,
      "velocity": 124,
      "chip": "ym2612"
    },
    {
      "channel": 4,
      "note": 79,
      "start": 56.4482,
      "duration": 0.0157,
      "velocity": 94,
      "chip": "ym2612"
    },
    {
      "channel": 3,
      "note": 79,
      "start": 56.4493,
      "duration": 0.0157,
      "velocity": 94,
      "chip": "ym2612"
    },
    {
      "channel": 2,
      "note": 50,
      "start": 56.4505,
      "duration": 0.0157,
      "velocity": 100,
      "chip": "ym2612"
    },
    {
      "channel": 1,
      "note": 72,
      "start": 56.4626,
      "duration": 0.0137,
      "velocity": 124,
      "chip": "ym2612"
    },
    {
      "channel": 4,
      "note": 79,
      "start": 56.4639,
      "duration": 0.0141,
      "velocity": 94,
      "chip": "ym2612"
    },
    {
      "channel": 3,
      "note": 79,
      "start": 56.4651,
      "duration": 0.0141,
      "velocity": 94,
      "chip": "ym2612"
    },
    {
      "channel": 2,
      "note": 50,
      "start": 56.4662,
      "duration": 0.0141,
      "velocity": 100,
      "chip": "ym2612"
    },
    {
      "channel": 1,
      "note": 71,
      "start": 56.4763,
      "duration": 0.0161,
      "velocity": 124,
      "chip": "ym2612"
    },
    {
      "channel": 4,
      "note": 79,
      "start": 56.478,
      "duration": 0.0185,
      "velocity": 94,
      "chip": "ym2612"
    },
    {
      "channel": 3,
      "note": 79,
      "start": 56.4791,
      "duration": 0.0185,
      "velocity": 94,
      "chip": "ym2612"
    },
    {
      "channel": 2,
      "note": 50,
      "start": 56.4803,
      "duration": 0.0185,
      "velocity": 100,
      "chip": "ym2612"
    },
    {
      "channel": 1,
      "note": 70,
      "start": 56.4924,
      "duration": 0.0161,
      "velocity": 124,
      "chip": "ym2612"
    },
    {
      "channel": 4,
      "note": 79,
      "start": 56.4965,
      "duration": 0.0169,
      "velocity": 94,
      "chip": "ym2612"
    },
    {
      "channel": 3,
      "note": 79,
      "start": 56.4976,
      "duration": 0.017,
      "velocity": 94,
      "chip": "ym2612"
    },
    {
      "channel": 2,
      "note": 50,
      "start": 56.4988,
      "duration": 0.0173,
      "velocity": 100,
      "chip": "ym2612"
    },
    {
      "channel": 1,
      "note": 69,
      "start": 56.5085,
      "duration": 0.0161,
      "velocity": 124,
      "chip": "ym2612"
    },
    {
      "channel": 4,
      "note": 74,
      "start": 56.5134,
      "duration": 0.0127,
      "velocity": 94,
      "chip": "ym2612"
    },
    {
      "channel": 3,
      "note": 79,
      "start": 56.5147,
      "duration": 0.015,
      "velocity": 94,
      "chip": "ym2612"
    },
    {
      "channel": 2,
      "note": 50,
      "start": 56.5161,
      "duration": 0.0147,
      "velocity": 100,
      "chip": "ym2612"
    },
    {
      "channel": 1,
      "note": 68,
      "start": 56.5246,
      "duration": 0.0161,
      "velocity": 124,
      "chip": "ym2612"
    },
    {
      "channel": 4,
      "note": 74,
      "start": 56.5261,
      "duration": 0.016,
      "velocity": 94,
      "chip": "ym2612"
    },
    {
      "channel": 3,
      "note": 79,
      "start": 56.5296,
      "duration": 0.0137,
      "velocity": 94,
      "chip": "ym2612"
    },
    {
      "channel": 2,
      "note": 50,
      "start": 56.5308,
      "duration": 0.0138,
      "velocity": 100,
      "chip": "ym2612"
    },
    {
      "channel": 1,
      "note": 66,
      "start": 56.5407,
      "duration": 0.0161,
      "velocity": 124,
      "chip": "ym2612"
    },
    {
      "channel": 4,
      "note": 74,
      "start": 56.542,
      "duration": 0.0161,
      "velocity": 94,
      "chip": "ym2612"
    },
    {
      "channel": 3,
      "note": 79,
      "start": 56.5434,
      "duration": 0.016,
      "velocity": 94,
      "chip": "ym2612"
    },
    {
      "channel": 2,
      "note": 50,
      "start": 56.5446,
      "duration": 0.0186,
      "velocity": 100,
      "chip": "ym2612"
    },
    {
      "channel": 1,
      "note": 65,
      "start": 56.5568,
      "duration": 0.0161,
      "velocity": 124,
      "chip": "ym2612"
    },
    {
      "channel": 4,
      "note": 74,
      "start": 56.5582,
      "duration": 0.0161,
      "velocity": 94,
      "chip": "ym2612"
    },
    {
      "channel": 3,
      "note": 79,
      "start": 56.5593,
      "duration": 0.0161,
      "velocity": 94,
      "chip": "ym2612"
    },
    {
      "channel": 2,
      "note": 50,
      "start": 56.5632,
      "duration": 0.0161,
      "velocity": 100,
      "chip": "ym2612"
    },
    {
      "channel": 1,
      "note": 64,
      "start": 56.5729,
      "duration": 0.0161,
      "velocity": 124,
      "chip": "ym2612"
    },
    {
      "channel": 4,
      "note": 74,
      "start": 56.5743,
      "duration": 0.0161,
      "velocity": 94,
      "chip": "ym2612"
    },
    {
      "channel": 3,
      "note": 79,
      "start": 56.5754,
      "duration": 0.0161,
      "velocity": 94,
      "chip": "ym2612"
    },
    {
      "channel": 2,
      "note": 50,
      "start": 56.5793,
      "duration": 0.0134,
      "velocity": 100,
      "chip": "ym2612"
    },
    {
      "channel": 1,
      "note": 62,
      "start": 56.589,
      "duration": 0.0161,
      "velocity": 124,
      "chip": "ym2612"
    },
    {
      "channel": 4,
      "note": 74,
      "start": 56.5904,
      "duration": 0.0161,
      "velocity": 94,
      "chip": "ym2612"
    },
    {
      "channel": 3,
      "note": 79,
      "start": 56.5915,
      "duration": 0.0161,
      "velocity": 94,
      "chip": "ym2612"
    },
    {
      "channel": 2,
      "note": 50,
      "start": 56.5927,
      "duration": 0.0161,
      "velocity": 100,
      "chip": "ym2612"
    },
    {
      "channel": 1,
      "note": 61,
      "start": 56.6051,
      "duration": 0.0161,
      "velocity": 124,
      "chip": "ym2612"
    },
    {
      "channel": 4,
      "note": 74,
      "start": 56.6065,
      "duration": 0.0167,
      "velocity": 94,
      "chip": "ym2612"
    },
    {
      "channel": 3,
      "note": 79,
      "start": 56.6076,
      "duration": 0.0169,
      "velocity": 94,
      "chip": "ym2612"
    },
    {
      "channel": 2,
      "note": 50,
      "start": 56.6088,
      "duration": 0.0172,
      "velocity": 100,
      "chip": "ym2612"
    },
    {
      "channel": 1,
      "note": 60,
      "start": 56.6212,
      "duration": 0.0161,
      "velocity": 124,
      "chip": "ym2612"
    },
    {
      "channel": 4,
      "note": 74,
      "start": 56.6232,
      "duration": 0.0156,
      "velocity": 94,
      "chip": "ym2612"
    },
    {
      "channel": 3,
      "note": 74,
      "start": 56.6246,
      "duration": 0.0154,
      "velocity": 94,
      "chip": "ym2612"
    },
    {
      "channel": 2,
      "note": 50,
      "start": 56.6261,
      "duration": 0.0151,
      "velocity": 100,
      "chip": "ym2612"
    },
    {
      "channel": 1,
      "note": 59,
      "start": 56.6373,
      "duration": 0.0161,
      "velocity": 124,
      "chip": "ym2612"
    },
    {
      "channel": 4,
      "note": 74,
      "start": 56.6388,
      "duration": 0.016,
      "velocity": 94,
      "chip": "ym2612"
    },
    {
      "channel": 3,
      "note": 74,
      "start": 56.64,
      "duration": 0.0159,
      "velocity": 94,
      "chip": "ym2612"
    },
    {
      "channel": 2,
      "note": 50,
      "start": 56.6411,
      "duration": 0.0159,
      "velocity": 100,
      "chip": "ym2612"
    },
    {
      "channel": 1,
      "note": 57,
      "start": 56.6534,
      "duration": 0.0161,
      "velocity": 124,
      "chip": "ym2612"
    },
    {
      "channel": 4,
      "note": 74,
      "start": 56.6548,
      "duration": 0.0161,
      "velocity": 94,
      "chip": "ym2612"
    },
    {
      "channel": 3,
      "note": 74,
      "start": 56.6559,
      "duration": 0.0161,
      "velocity": 94,
      "chip": "ym2612"
    },
    {
      "channel": 2,
      "note": 50,
      "start": 56.6571,
      "duration": 0.0161,
      "velocity": 100,
      "chip": "ym2612"
    },
    {
      "channel": 1,
      "note": 56,
      "start": 56.6695,
      "duration": 0.0161,
      "velocity": 124,
      "chip": "ym2612"
    },
    {
      "channel": 4,
      "note": 74,
      "start": 56.6709,
      "duration": 0.0161,
      "velocity": 94,
      "chip": "ym2612"
    },
    {
      "channel": 3,
      "note": 74,
      "start": 56.672,
      "duration": 0.0161,
      "velocity": 94,
      "chip": "ym2612"
    },
    {
      "channel": 2,
      "note": 50,
      "start": 56.6732,
      "duration": 0.0161,
      "velocity": 100,
      "chip": "ym2612"
    },
    {
      "channel": 1,
      "note": 55,
      "start": 56.6856,
      "duration": 0.0161,
      "velocity": 124,
      "chip": "ym2612"
    },
    {
      "channel": 4,
      "note": 74,
      "start": 56.6869,
      "duration": 0.0161,
      "velocity": 94,
      "chip": "ym2612"
    },
    {
      "channel": 3,
      "note": 74,
      "start": 56.6881,
      "duration": 0.0161,
      "velocity": 94,
      "chip": "ym2612"
    },
    {
      "channel": 2,
      "note": 50,
      "start": 56.6892,
      "duration": 0.0161,
      "velocity": 100,
      "chip": "ym2612"
    },
    {
      "channel": 1,
      "note": 53,
      "start": 56.7017,
      "duration": 0.0161,
      "velocity": 124,
      "chip": "ym2612"
    },
    {
      "channel": 4,
      "note": 74,
      "start": 56.703,
      "duration": 0.0162,
      "velocity": 94,
      "chip": "ym2612"
    },
    {
      "channel": 3,
      "note": 74,
      "start": 56.7042,
      "duration": 0.0161,
      "velocity": 94,
      "chip": "ym2612"
    },
    {
      "channel": 2,
      "note": 50,
      "start": 56.7053,
      "duration": 0.0162,
      "velocity": 100,
      "chip": "ym2612"
    },
    {
      "channel": 1,
      "note": 52,
      "start": 56.7178,
      "duration": 0.0161,
      "velocity": 124,
      "chip": "ym2612"
    },
    {
      "channel": 4,
      "note": 74,
      "start": 56.7192,
      "duration": 0.0203,
      "velocity": 94,
      "chip": "ym2612"
    },
    {
      "channel": 3,
      "note": 74,
      "start": 56.7203,
      "duration": 0.0204,
      "velocity": 94,
      "chip": "ym2612"
    },
    {
      "channel": 2,
      "note": 50,
      "start": 56.7215,
      "duration": 0.0207,
      "velocity": 100,
      "chip": "ym2612"
    },
    {
      "channel": 1,
      "note": 51,
      "start": 56.7339,
      "duration": 0.0153,
      "velocity": 1,
      "chip": "ym2612"
    },
    {
      "channel": 0,
      "note": 36,
      "start": 56.7381,
      "duration": 0.015,
      "velocity": 115,
      "chip": "ym2612"
    },
    {
      "channel": 4,
      "note": 74,
      "start": 56.7395,
      "duration": 0.0148,
      "velocity": 94,
      "chip": "ym2612"
    },
    {
      "channel": 3,
      "note": 74,
      "start": 56.7408,
      "duration": 0.0147,
      "velocity": 94,
      "chip": "ym2612"
    },
    {
      "channel": 2,
      "note": 50,
      "start": 56.7422,
      "duration": 0.0144,
      "velocity": 100,
      "chip": "ym2612"
    },
    {
      "channel": 1,
      "note": 51,
      "start": 56.7514,
      "duration": 0.0142,
      "velocity": 105,
      "chip": "ym2612"
    },
    {
      "channel": 0,
      "note": 36,
      "start": 56.7531,
      "duration": 0.0141,
      "velocity": 115,
      "chip": "ym2612"
    },
    {
      "channel": 4,
      "note": 74,
      "start": 56.7543,
      "duration": 0.0141,
      "velocity": 94,
      "chip": "ym2612"
    },
    {
      "channel": 3,
      "note": 74,
      "start": 56.7555,
      "duration": 0.0141,
      "velocity": 94,
      "chip": "ym2612"
    },
    {
      "channel": 2,
      "note": 50,
      "start": 56.7567,
      "duration": 0.014,
      "velocity": 100,
      "chip": "ym2612"
    },
    {
      "channel": 1,
      "note": 105,
      "start": 56.7656,
      "duration": 0.0161,
      "velocity": 105,
      "chip": "ym2612"
    },
    {
      "channel": 0,
      "note": 37,
      "start": 56.7672,
      "duration": 0.0161,
      "velocity": 115,
      "chip": "ym2612"
    },
    {
      "channel": 4,
      "note": 74,
      "start": 56.7684,
      "duration": 0.0161,
      "velocity": 94,
      "chip": "ym2612"
    },
    {
      "channel": 3,
      "note": 74,
      "start": 56.7696,
      "duration": 0.0161,
      "velocity": 94,
      "chip": "ym2612"
    },
    {
      "channel": 2,
      "note": 50,
      "start": 56.7707,
      "duration": 0.0162,
      "velocity": 100,
      "chip": "ym2612"
    },
    {
      "channel": 1,
      "note": 105,
      "start": 56.7817,
      "duration": 0.0162,
      "velocity": 105,
      "chip": "ym2612"
    },
    {
      "channel": 0,
      "note": 37,
      "start": 56.7834,
      "duration": 0.0161,
      "velocity": 115,
      "chip": "ym2612"
    },
    {
      "channel": 4,
      "note": 74,
      "start": 56.7845,
      "duration": 0.0161,
      "velocity": 94,
      "chip": "ym2612"
    },
    {
      "channel": 3,
      "note": 74,
      "start": 56.7857,
      "duration": 0.0161,
      "velocity": 94,
      "chip": "ym2612"
    },
    {
      "channel": 2,
      "note": 50,
      "start": 56.7868,
      "duration": 0.0161,
      "velocity": 100,
      "chip": "ym2612"
    },
    {
      "channel": 1,
      "note": 105,
      "start": 56.7978,
      "duration": 0.0161,
      "velocity": 105,
      "chip": "ym2612"
    },
    {
      "channel": 0,
      "note": 38,
      "start": 56.7995,
      "duration": 0.0161,
      "velocity": 115,
      "chip": "ym2612"
    },
    {
      "channel": 4,
      "note": 74,
      "start": 56.8006,
      "duration": 0.0161,
      "velocity": 94,
      "chip": "ym2612"
    },
    {
      "channel": 3,
      "note": 74,
      "start": 56.8018,
      "duration": 0.0161,
      "velocity": 94,
      "chip": "ym2612"
    },
    {
      "channel": 2,
      "note": 50,
      "start": 56.8029,
      "duration": 0.0161,
      "velocity": 100,
      "chip": "ym2612"
    },
    {
      "channel": 1,
      "note": 105,
      "start": 56.8139,
      "duration": 0.0167,
      "velocity": 105,
      "chip": "ym2612"
    },
    {
      "channel": 0,
      "note": 38,
      "start": 56.8156,
      "duration": 0.0167,
      "velocity": 115,
      "chip": "ym2612"
    },
    {
      "channel": 4,
      "note": 74,
      "start": 56.8167,
      "duration": 0.0167,
      "velocity": 94,
      "chip": "ym2612"
    },
    {
      "channel": 3,
      "note": 74,
      "start": 56.8179,
      "duration": 0.0167,
      "velocity": 94,
      "chip": "ym2612"
    },
    {
      "channel": 2,
      "note": 50,
      "start": 56.819,
      "duration": 0.0167,
      "velocity": 100,
      "chip": "ym2612"
    },
    {
      "channel": 1,
      "note": 105,
      "start": 56.8307,
      "duration": 0.0183,
      "velocity": 124,
      "chip": "ym2612"
    },
    {
      "channel": 0,
      "note": 39,
      "start": 56.8323,
      "duration": 0.0202,
      "velocity": 115,
      "chip": "ym2612"
    },
    {
      "channel": 4,
      "note": 74,
      "start": 56.8334,
      "duration": 0.0204,
      "velocity": 94,
      "chip": "ym2612"
    },
    {
      "channel": 3,
      "note": 74,
      "start": 56.8346,
      "duration": 0.0207,
      "velocity": 94,
      "chip": "ym2612"
    },
    {
      "channel": 2,
      "note": 50,
      "start": 56.8357,
      "duration": 0.021,
      "velocity": 100,
      "chip": "ym2612"
    },
    {
      "channel": 1,
      "note": 64,
      "start": 56.849,
      "duration": 0.0146,
      "velocity": 124,
      "chip": "ym2612"
    },
    {
      "channel": 0,
      "note": 36,
      "start": 56.8525,
      "duration": 0.0128,
      "velocity": 115,
      "chip": "ym2612"
    },
    {
      "channel": 4,
      "note": 79,
      "start": 56.8539,
      "duration": 0.0127,
      "velocity": 94,
      "chip": "ym2612"
    },
    {
      "channel": 3,
      "note": 74,
      "start": 56.8553,
      "duration": 0.0125,
      "velocity": 94,
      "chip": "ym2612"
    },
    {
      "channel": 2,
      "note": 50,
      "start": 56.8568,
      "duration": 0.0122,
      "velocity": 100,
      "chip": "ym2612"
    },
    {
      "channel": 1,
      "note": 64,
      "start": 56.8637,
      "duration": 0.0147,
      "velocity": 124,
      "chip": "ym2612"
    },
    {
      "channel": 0,
      "note": 36,
      "start": 56.8654,
      "duration": 0.0146,
      "velocity": 115,
      "chip": "ym2612"
    },
    {
      "channel": 4,
      "note": 79,
      "start": 56.8666,
      "duration": 0.0146,
      "velocity": 94,
      "chip": "ym2612"
    },
    {
      "channel": 3,
      "note": 74,
      "start": 56.8678,
      "duration": 0.0145,
      "velocity": 94,
      "chip": "ym2612"
    },
    {
      "channel": 2,
      "note": 50,
      "start": 56.869,
      "duration": 0.0144,
      "velocity": 100,
      "chip": "ym2612"
    },
    {
      "channel": 1,
      "note": 64,
      "start": 56.8784,
      "duration": 0.0188,
      "velocity": 124,
      "chip": "ym2612"
    },
    {
      "channel": 0,
      "note": 37,
      "start": 56.88,
      "duration": 0.0188,
      "velocity": 115,
      "chip": "ym2612"
    },
    {
      "channel": 4,
      "note": 79,
      "start": 56.8812,
      "duration": 0.0188,
      "velocity": 94,
      "chip": "ym2612"
    },
    {
      "channel": 3,
      "note": 74,
      "start": 56.8823,
      "duration": 0.0188,
      "velocity": 94,
      "chip": "ym2612"
    },
    {
      "channel": 2,
      "note": 50,
      "start": 56.8834,
      "duration": 0.0188,
      "velocity": 100,
      "chip": "ym2612"
    },
    {
      "channel": 1,
      "note": 64,
      "start": 56.8972,
      "duration": 0.0161,
      "velocity": 124,
      "chip": "ym2612"
    },
    {
      "channel": 0,
      "note": 37,
      "start": 56.8988,
      "duration": 0.0161,
      "velocity": 115,
      "chip": "ym2612"
    },
    {
      "channel": 4,
      "note": 79,
      "start": 56.9,
      "duration": 0.0161,
      "velocity": 94,
      "chip": "ym2612"
    },
    {
      "channel": 3,
      "note": 74,
      "start": 56.9011,
      "duration": 0.0161,
      "velocity": 94,
      "chip": "ym2612"
    },
    {
      "channel": 2,
      "note": 50,
      "start": 56.9023,
      "duration": 0.0161,
      "velocity": 100,
      "chip": "ym2612"
    },
    {
      "channel": 1,
      "note": 64,
      "start": 56.9133,
      "duration": 0.0157,
      "velocity": 124,
      "chip": "ym2612"
    },
    {
      "channel": 0,
      "note": 38,
      "start": 56.9149,
      "duration": 0.0158,
      "velocity": 115,
      "chip": "ym2612"
    },
    {
      "channel": 4,
      "note": 79,
      "start": 56.9161,
      "duration": 0.0158,
      "velocity": 94,
      "chip": "ym2612"
    },
    {
      "channel": 3,
      "note": 74,
      "start": 56.9172,
      "duration": 0.0158,
      "velocity": 94,
      "chip": "ym2612"
    },
    {
      "channel": 2,
      "note": 50,
      "start": 56.9184,
      "duration": 0.0158,
      "velocity": 100,
      "chip": "ym2612"
    },
    {
      "channel": 1,
      "note": 64,
      "start": 56.929,
      "duration": 0.0137,
      "velocity": 124,
      "chip": "ym2612"
    },
    {
      "channel": 0,
      "note": 38,
      "start": 56.9307,
      "duration": 0.014,
      "velocity": 115,
      "chip": "ym2612"
    },
    {
      "channel": 4,
      "note": 79,
      "start": 56.9319,
      "duration": 0.0141,
      "velocity": 94,
      "chip": "ym2612"
    },
    {
      "channel": 3,
      "note": 74,
      "start": 56.933,
      "duration": 0.0141,
      "velocity": 94,
      "chip": "ym2612"
    },
    {
      "channel": 2,
      "note": 50,
      "start": 56.9341,
      "duration": 0.014,
      "velocity": 100,
      "chip": "ym2612"
    },
    {
      "channel": 1,
      "note": 64,
      "start": 56.9427,
      "duration": 0.0205,
      "velocity": 105,
      "chip": "ym2612"
    },
    {
      "channel": 0,
      "note": 39,
      "start": 56.9447,
      "duration": 0.0202,
      "velocity": 115,
      "chip": "ym2612"
    },
    {
      "channel": 4,
      "note": 79,
      "start": 56.9459,
      "duration": 0.0204,
      "velocity": 94,
      "chip": "ym2612"
    },
    {
      "channel": 3,
      "note": 74,
      "start": 56.9471,
      "duration": 0.0205,
      "velocity": 94,
      "chip": "ym2612"
    },
    {
      "channel": 2,
      "note": 50,
      "start": 56.9481,
      "duration": 0.0209,
      "velocity": 100,
      "chip": "ym2612"
    },
    {
      "channel": 1,
      "note": 105,
      "start": 56.9633,
      "duration": 0.0117,
      "velocity": 105,
      "chip": "ym2612"
    },
    {
      "channel": 0,
      "note": 39,
      "start": 56.9649,
      "duration": 0.0144,
      "velocity": 115,
      "chip": "ym2612"
    },
    {
      "channel": 4,
      "note": 79,
      "start": 56.9663,
      "duration": 0.0143,
      "velocity": 94,
      "chip": "ym2612"
    },
    {
      "channel": 3,
      "note": 79,
      "start": 56.9677,
      "duration": 0.0141,
      "velocity": 94,
      "chip": "ym2612"
    },
    {
      "channel": 2,
      "note": 50,
      "start": 56.9691,
      "duration": 0.0139,
      "velocity": 100,
      "chip": "ym2612"
    },
    {
      "channel": 1,
      "note": 105,
      "start": 56.975,
      "duration": 0.016,
      "velocity": 105,
      "chip": "ym2612"
    },
    {
      "channel": 0,
      "note": 40,
      "start": 56.9794,
      "duration": 0.0133,
      "velocity": 115,
      "chip": "ym2612"
    },
    {
      "channel": 4,
      "note": 79,
      "start": 56.9806,
      "duration": 0.0156,
      "velocity": 94,
      "chip": "ym2612"
    },
    {
      "channel": 3,
      "note": 79,
      "start": 56.9818,
      "duration": 0.0156,
      "velocity": 94,
      "chip": "ym2612"
    },
    {
      "channel": 2,
      "note": 50,
      "start": 56.983,
      "duration": 0.0155,
      "velocity": 100,
      "chip": "ym2612"
    },
    {
      "channel": 1,
      "note": 105,
      "start": 56.991,
      "duration": 0.0161,
      "velocity": 105,
      "chip": "ym2612"
    },
    {
      "channel": 0,
      "note": 40,
      "start": 56.9927,
      "duration": 0.0161,
      "velocity": 115,
      "chip": "ym2612"
    },
    {
      "channel": 4,
      "note": 79,
      "start": 56.9962,
      "duration": 0.014,
      "velocity": 94,
      "chip": "ym2612"
    },
    {
      "channel": 3,
      "note": 79,
      "start": 56.9974,
      "duration": 0.0141,
      "velocity": 94,
      "chip": "ym2612"
    },
    {
      "channel": 2,
      "note": 50,
      "start": 56.9985,
      "duration": 0.014,
      "velocity": 100,
      "chip": "ym2612"
    },
    {
      "channel": 1,
      "note": 105,
      "start": 57.0071,
      "duration": 0.0161,
      "velocity": 105,
      "chip": "ym2612"
    },
    {
      "channel": 0,
      "note": 40,
      "start": 57.0088,
      "duration": 0.0161,
      "velocity": 115,
      "chip": "ym2612"
    },
    {
      "channel": 4,
      "note": 79,
      "start": 57.0102,
      "duration": 0.0159,
      "velocity": 94,
      "chip": "ym2612"
    },
    {
      "channel": 3,
      "note": 79,
      "start": 57.0114,
      "duration": 0.0185,
      "velocity": 94,
      "chip": "ym2612"
    },
    {
      "channel": 2,
      "note": 50,
      "start": 57.0125,
      "duration": 0.0186,
      "velocity": 100,
      "chip": "ym2612"
    },
    {
      "channel": 1,
      "note": 105,
      "start": 57.0232,
      "duration": 0.0161,
      "velocity": 105,
      "chip": "ym2612"
    },
    {
      "channel": 0,
      "note": 41,
      "start": 57.0249,
      "duration": 0.0161,
      "velocity": 115,
      "chip": "ym2612"
    },
    {
      "channel": 4,
      "note": 79,
      "start": 57.0261,
      "duration": 0.0161,
      "velocity": 94,
      "chip": "ym2612"
    },
    {
      "channel": 3,
      "note": 79,
      "start": 57.03,
      "duration": 0.0161,
      "velocity": 94,
      "chip": "ym2612"
    },
    {
      "channel": 2,
      "note": 50,
      "start": 57.0311,
      "duration": 0.0161,
      "velocity": 100,
      "chip": "ym2612"
    },
    {
      "channel": 1,
      "note": 105,
      "start": 57.0393,
      "duration": 0.0161,
      "velocity": 105,
      "chip": "ym2612"
    },
    {
      "channel": 0,
      "note": 41,
      "start": 57.041,
      "duration": 0.0161,
      "velocity": 115,
      "chip": "ym2612"
    },
    {
      "channel": 4,
      "note": 79,
      "start": 57.0422,
      "duration": 0.0161,
      "velocity": 94,
      "chip": "ym2612"
    },
    {
      "channel": 3,
      "note": 79,
      "start": 57.046,
      "duration": 0.0134,
      "velocity": 94,
      "chip": "ym2612"
    },
    {
      "channel": 2,
      "note": 50,
      "start": 57.0472,
      "duration": 0.0157,
      "velocity": 100,
      "chip": "ym2612"
    },
    {
      "channel": 1,
      "note": 105,
      "start": 57.0554,
      "duration": 0.0178,
      "velocity": 124,
      "chip": "ym2612"
    },
    {
      "channel": 0,
      "note": 42,
      "start": 57.0571,
      "duration": 0.0179,
      "velocity": 115,
      "chip": "ym2612"
    },
    {
      "channel": 4,
      "note": 79,
      "start": 57.0583,
      "duration": 0.0181,
      "velocity": 94,
      "chip": "ym2612"
    },
    {
      "channel": 3,
      "note": 79,
      "start": 57.0594,
      "duration": 0.0186,
      "velocity": 94,
      "chip": "ym2612"
    },
    {
      "channel": 2,
      "note": 50,
      "start": 57.0629,
      "duration": 0.0165,
      "velocity": 100,
      "chip": "ym2612"
    },
    {
      "channel": 1,
      "note": 64,
      "start": 57.0733,
      "duration": 0.0144,
      "velocity": 124,
      "chip": "ym2612"
    },
    {
      "channel": 0,
      "note": 42,
      "start": 57.0749,
      "duration": 0.0144,
      "velocity": 115,
      "chip": "ym2612"
    },
    {
      "channel": 4,
      "note": 79,
      "start": 57.0764,
      "duration": 0.0142,
      "velocity": 94,
      "chip": "ym2612"
    },
    {
      "channel": 3,
      "note": 79,
      "start": 57.078,
      "duration": 0.0138,
      "velocity": 94,
      "chip": "ym2612"
    },
    {
      "channel": 2,
      "note": 50,
      "start": 57.0794,
      "duration": 0.0136,
      "velocity": 100,
      "chip": "ym2612"
    },
    {
      "channel": 1,
      "note": 64,
      "start": 57.0877,
      "duration": 0.016,
      "velocity": 124,
      "chip": "ym2612"
    },
    {
      "channel": 0,
      "note": 43,
      "start": 57.0894,
      "duration": 0.016,
      "velocity": 115,
      "chip": "ym2612"
    },
    {
      "channel": 4,
      "note": 79,
      "start": 57.0906,
      "duration": 0.016,
      "velocity": 94,
      "chip": "ym2612"
    },
    {
      "channel": 3,
      "note": 79,
      "start": 57.0918,
      "duration": 0.0159,
      "velocity": 94,
      "chip": "ym2612"
    },
    {
      "channel": 2,
      "note": 50,
      "start": 57.093,
      "duration": 0.0158,
      "velocity": 100,
      "chip": "ym2612"
    },
    {
      "channel": 1,
      "note": 64,
      "start": 57.1037,
      "duration": 0.0161,
      "velocity": 124,
      "chip": "ym2612"
    },
    {
      "channel": 0,
      "note": 43,
      "start": 57.1054,
      "duration": 0.0161,
      "velocity": 115,
      "chip": "ym2612"
    },
    {
      "channel": 4,
      "note": 79,
      "start": 57.1066,
      "duration": 0.0161,
      "velocity": 94,
      "chip": "ym2612"
    },
    {
      "channel": 3,
      "note": 79,
      "start": 57.1077,
      "duration": 0.0161,
      "velocity": 94,
      "chip": "ym2612"
    },
    {
      "channel": 2,
      "note": 50,
      "start": 57.1088,
      "duration": 0.0161,
      "velocity": 100,
      "chip": "ym2612"
    },
    {
      "channel": 1,
      "note": 64,
      "start": 57.1198,
      "duration": 0.0161,
      "velocity": 124,
      "chip": "ym2612"
    },
    {
      "channel": 0,
      "note": 44,
      "start": 57.1215,
      "duration": 0.0161,
      "velocity": 115,
      "chip": "ym2612"
    },
    {
      "channel": 4,
      "note": 79,
      "start": 57.1227,
      "duration": 0.0161,
      "velocity": 94,
      "chip": "ym2612"
    },
    {
      "channel": 3,
      "note": 79,
      "start": 57.1238,
      "duration": 0.0161,
      "velocity": 94,
      "chip": "ym2612"
    },
    {
      "channel": 2,
      "note": 50,
      "start": 57.1249,
      "duration": 0.0161,
      "velocity": 100,
      "chip": "ym2612"
    },
    {
      "channel": 1,
      "note": 64,
      "start": 57.1359,
      "duration": 0.0161,
      "velocity": 124,
      "chip": "ym2612"
    },
    {
      "channel": 0,
      "note": 44,
      "start": 57.1376,
      "duration": 0.0161,
      "velocity": 115,
      "chip": "ym2612"
    },
    {
      "channel": 4,
      "note": 79,
      "start": 57.1388,
      "duration": 0.0161,
      "velocity": 94,
      "chip": "ym2612"
    },
    {
      "channel": 3,
      "note": 79,
      "start": 57.1399,
      "duration": 0.0161,
      "velocity": 94,
      "chip": "ym2612"
    },
    {
      "channel": 2,
      "note": 50,
      "start": 57.141,
      "duration": 0.0161,
      "velocity": 100,
      "chip": "ym2612"
    },
    {
      "channel": 1,
      "note": 64,
      "start": 57.152,
      "duration": 0.0161,
      "velocity": 124,
      "chip": "ym2612"
    },
    {
      "channel": 0,
      "note": 44,
      "start": 57.1537,
      "duration": 0.0161,
      "velocity": 115,
      "chip": "ym2612"
    },
    {
      "channel": 4,
      "note": 79,
      "start": 57.1549,
      "duration": 0.0161,
      "velocity": 94,
      "chip": "ym2612"
    },
    {
      "channel": 3,
      "note": 79,
      "start": 57.156,
      "duration": 0.0161,
      "velocity": 94,
      "chip": "ym2612"
    },
    {
      "channel": 2,
      "note": 50,
      "start": 57.1571,
      "duration": 0.0161,
      "velocity": 100,
      "chip": "ym2612"
    },
    {
      "channel": 1,
      "note": 64,
      "start": 57.1681,
      "duration": 0.0178,
      "velocity": 105,
      "chip": "ym2612"
    },
    {
      "channel": 0,
      "note": 45,
      "start": 57.1698,
      "duration": 0.0179,
      "velocity": 115,
      "chip": "ym2612"
    },
    {
      "channel": 4,
      "note": 79,
      "start": 57.171,
      "duration": 0.018,
      "velocity": 94,
      "chip": "ym2612"
    },
    {
      "channel": 3,
      "note": 79,
      "start": 57.1721,
      "duration": 0.0183,
      "velocity": 94,
      "chip": "ym2612"
    },
    {
      "channel": 2,
      "note": 50,
      "start": 57.1732,
      "duration": 0.0186,
      "velocity": 100,
      "chip": "ym2612"
    },
    {
      "channel": 1,
      "note": 105,
      "start": 57.1859,
      "duration": 0.0144,
      "velocity": 105,
      "chip": "ym2612"
    },
    {
      "channel": 0,
      "note": 45,
      "start": 57.1876,
      "duration": 0.0144,
      "velocity": 115,
      "chip": "ym2612"
    },
    {
      "channel": 4,
      "note": 79,
      "start": 57.189,
      "duration": 0.0142,
      "velocity": 94,
      "chip": "ym2612"
    },
    {
      "channel": 3,
      "note": 79,
      "start": 57.1905,
      "duration": 0.0141,
      "velocity": 94,
      "chip": "ym2612"
    },
    {
      "channel": 2,
      "note": 50,
      "start": 57.1919,
      "duration": 0.0137,
      "velocity": 100,
      "chip": "ym2612"
    },
    {
      "channel": 1,
      "note": 105,
      "start": 57.2004,
      "duration": 0.016,
      "velocity": 105,
      "chip": "ym2612"
    },
    {
      "channel": 0,
      "note": 46,
      "start": 57.202,
      "duration": 0.016,
      "velocity": 115,
      "chip": "ym2612"
    },
    {
      "channel": 4,
      "note": 79,
      "start": 57.2033,
      "duration": 0.016,
      "velocity": 94,
      "chip": "ym2612"
    },
    {
      "channel": 3,
      "note": 79,
      "start": 57.2045,
      "duration": 0.0159,
      "velocity": 94,
      "chip": "ym2612"
    },
    {
      "channel": 2,
      "note": 50,
      "start": 57.2056,
      "duration": 0.0159,
      "velocity": 100,
      "chip": "ym2612"
    },
    {
      "channel": 1,
      "note": 105,
      "start": 57.2164,
      "duration": 0.0161,
      "velocity": 105,
      "chip": "ym2612"
    },
    {
      "channel": 0,
      "note": 46,
      "start": 57.218,
      "duration": 0.0162,
      "velocity": 115,
      "chip": "ym2612"
    },
    {
      "channel": 4,
      "note": 79,
      "start": 57.2193,
      "duration": 0.0161,
      "velocity": 94,
      "chip": "ym2612"
    },
    {
      "channel": 3,
      "note": 79,
      "start": 57.2204,
      "duration": 0.0161,
      "velocity": 94,
      "chip": "ym2612"
    },
    {
      "channel": 2,
      "note": 50,
      "start": 57.2215,
      "duration": 0.0161,
      "velocity": 100,
      "chip": "ym2612"
    },
    {
      "channel": 1,
      "note": 105,
      "start": 57.2325,
      "duration": 0.0161,
      "velocity": 105,
      "chip": "ym2612"
    },
    {
      "channel": 0,
      "note": 47,
      "start": 57.2342,
      "duration": 0.0161,
      "velocity": 115,
      "chip": "ym2612"
    },
    {
      "channel": 4,
      "note": 79,
      "start": 57.2354,
      "duration": 0.0161,
      "velocity": 94,
      "chip": "ym2612"
    },
    {
      "channel": 3,
      "note": 79,
      "start": 57.2365,
      "duration": 0.0161,
      "velocity": 94,
      "chip": "ym2612"
    },
    {
      "channel": 2,
      "note": 50,
      "start": 57.2376,
      "duration": 0.0161,
      "velocity": 100,
      "chip": "ym2612"
    },
    {
      "channel": 1,
      "note": 105,
      "start": 57.2486,
      "duration": 0.0161,
      "velocity": 105,
      "chip": "ym2612"
    },
    {
      "channel": 0,
      "note": 47,
      "start": 57.2503,
      "duration": 0.0161,
      "velocity": 115,
      "chip": "ym2612"
    },
    {
      "channel": 4,
      "note": 79,
      "start": 57.2515,
      "duration": 0.0161,
      "velocity": 94,
      "chip": "ym2612"
    },
    {
      "channel": 3,
      "note": 79,
      "start": 57.2526,
      "duration": 0.0161,
      "velocity": 94,
      "chip": "ym2612"
    },
    {
      "channel": 2,
      "note": 50,
      "start": 57.2537,
      "duration": 0.0161,
      "velocity": 100,
      "chip": "ym2612"
    },
    {
      "channel": 1,
      "note": 105,
      "start": 57.2647,
      "duration": 0.0161,
      "velocity": 105,
      "chip": "ym2612"
    },
    {
      "channel": 0,
      "note": 47,
      "start": 57.2664,
      "duration": 0.0161,
      "velocity": 115,
      "chip": "ym2612"
    },
    {
      "channel": 4,
      "note": 79,
      "start": 57.2676,
      "duration": 0.0161,
      "velocity": 94,
      "chip": "ym2612"
    },
    {
      "channel": 3,
      "note": 79,
      "start": 57.2687,
      "duration": 0.0161,
      "velocity": 94,
      "chip": "ym2612"
    },
    {
      "channel": 2,
      "note": 50,
      "start": 57.2698,
      "duration": 0.0161,
      "velocity": 100,
      "chip": "ym2612"
    },
    {
      "channel": 1,
      "note": 105,
      "start": 57.2808,
      "duration": 0.0187,
      "velocity": 124,
      "chip": "ym2612"
    },
    {
      "channel": 0,
      "note": 48,
      "start": 57.2825,
      "duration": 0.0195,
      "velocity": 115,
      "chip": "ym2612"
    },
    {
      "channel": 4,
      "note": 79,
      "start": 57.2836,
      "duration": 0.0196,
      "velocity": 94,
      "chip": "ym2612"
    },
    {
      "channel": 3,
      "note": 79,
      "start": 57.2848,
      "duration": 0.0198,
      "velocity": 94,
      "chip": "ym2612"
    },
    {
      "channel": 2,
      "note": 50,
      "start": 57.2859,
      "duration": 0.0201,
      "velocity": 100,
      "chip": "ym2612"
    },
    {
      "channel": 1,
      "note": 78,
      "start": 57.2995,
      "duration": 0.0149,
      "velocity": 124,
      "chip": "ym2612"
    },
    {
      "channel": 0,
      "note": 48,
      "start": 57.302,
      "duration": 0.0144,
      "velocity": 115,
      "chip": "ym2612"
    },
    {
      "channel": 4,
      "note": 79,
      "start": 57.3032,
      "duration": 0.0144,
      "velocity": 94,
      "chip": "ym2612"
    },
    {
      "channel": 3,
      "note": 79,
      "start": 57.3046,
      "duration": 0.0143,
      "velocity": 94,
      "chip": "ym2612"
    },
    {
      "channel": 2,
      "note": 48,
      "start": 57.3061,
      "duration": 0.0139,
      "velocity": 100,
      "chip": "ym2612"
    },
    {
      "channel": 1,
      "note": 76,
      "start": 57.3145,
      "duration": 0.0163,
      "velocity": 124,
      "chip": "ym2612"
    },
    {
      "channel": 0,
      "note": 49,
      "start": 57.3164,
      "duration": 0.0155,
      "velocity": 1,
      "chip": "ym2612"
    },
    {
      "channel": 4,
      "note": 79,
      "start": 57.3177,
      "duration": 0.0153,
      "velocity": 94,
      "chip": "ym2612"
    },
    {
      "channel": 3,
      "note": 79,
      "start": 57.3189,
      "duration": 0.0153,
      "velocity": 94,
      "chip": "ym2612"
    },
    {
      "channel": 2,
      "note": 48,
      "start": 57.32,
      "duration": 0.0153,
      "velocity": 100,
      "chip": "ym2612"
    },
    {
      "channel": 1,
      "note": 75,
      "start": 57.3308,
      "duration": 0.0149,
      "velocity": 124,
      "chip": "ym2612"
    },
    {
      "channel": 4,
      "note": 79,
      "start": 57.333,
      "duration": 0.0141,
      "velocity": 94,
      "chip": "ym2612"
    },
    {
      "channel": 3,
      "note": 79,
      "start": 57.3341,
      "duration": 0.0141,
      "velocity": 94,
      "chip": "ym2612"
    },
    {
      "channel": 2,
      "note": 48,
      "start": 57.3353,
      "duration": 0.0141,
      "velocity": 100,
      "chip": "ym2612"
    },
    {
      "channel": 1,
      "note": 74,
      "start": 57.3457,
      "duration": 0.0187,
      "velocity": 124,
      "chip": "ym2612"
    },
    {
      "channel": 4,
      "note": 79,
      "start": 57.3471,
      "duration": 0.0187,
      "velocity": 94,
      "chip": "ym2612"
    },
    {
      "channel": 3,
      "note": 79,
      "start": 57.3483,
      "duration": 0.0187,
      "velocity": 94,
      "chip": "ym2612"
    },
    {
      "channel": 2,
      "note": 48,
      "start": 57.3494,
      "duration": 0.0187,
      "velocity": 100,
      "chip": "ym2612"
    },
    {
      "channel": 1,
      "note": 72,
      "start": 57.3644,
      "duration": 0.0163,
      "velocity": 124,
      "chip": "ym2612"
    },
    {
      "channel": 4,
      "note": 79,
      "start": 57.3658,
      "duration": 0.0162,
      "velocity": 94,
      "chip": "ym2612"
    },
    {
      "channel": 3,
      "note": 79,
      "start": 57.367,
      "duration": 0.0162,
      "velocity": 94,
      "chip": "ym2612"
    },
    {
      "channel": 2,
      "note": 48,
      "start": 57.3681,
      "duration": 0.0162,
      "velocity": 100,
      "chip": "ym2612"
    },
    {
      "channel": 1,
      "note": 71,
      "start": 57.3807,
      "duration": 0.0157,
      "velocity": 124,
      "chip": "ym2612"
    },
    {
      "channel": 4,
      "note": 79,
      "start": 57.382,
      "duration": 0.0158,
      "velocity": 94,
      "chip": "ym2612"
    },
    {
      "channel": 3,
      "note": 79,
      "start": 57.3832,
      "duration": 0.0158,
      "velocity": 94,
      "chip": "ym2612"
    },
    {
      "channel": 2,
      "note": 48,
      "start": 57.3843,
      "duration": 0.0158,
      "velocity": 100,
      "chip": "ym2612"
    },
    {
      "channel": 1,
      "note": 70,
      "start": 57.3964,
      "duration": 0.0141,
      "velocity": 124,
      "chip": "ym2612"
    },
    {
      "channel": 4,
      "note": 79,
      "start": 57.3978,
      "duration": 0.0148,
      "velocity": 94,
      "chip": "ym2612"
    },
    {
      "channel": 3,
      "note": 79,
      "start": 57.399,
      "duration": 0.0149,
      "velocity": 94,
      "chip": "ym2612"
    },
    {
      "channel": 2,
      "note": 48,
      "start": 57.4001,
      "duration": 0.0151,
      "velocity": 100,
      "chip": "ym2612"
    },
    {
      "channel": 1,
      "note": 69,
      "start": 57.4105,
      "duration": 0.0158,
      "velocity": 124,
      "chip": "ym2612"
    },
    {
      "channel": 4,
      "note": 74,
      "start": 57.4127,
      "duration": 0.0178,
      "velocity": 94,
      "chip": "ym2612"
    },
    {
      "channel": 3,
      "note": 79,
      "start": 57.4139,
      "duration": 0.0177,
      "velocity": 94,
      "chip": "ym2612"
    },
    {
      "channel": 2,
      "note": 48,
      "start": 57.4153,
      "duration": 0.0176,
      "velocity": 100,
      "chip": "ym2612"
    },
    {
      "channel": 1,
      "note": 68,
      "start": 57.4263,
      "duration": 0.0161,
      "velocity": 124,
      "chip": "ym2612"
    },
    {
      "channel": 4,
      "note": 74,
      "start": 57.4305,
      "duration": 0.016,
      "velocity": 94,
      "chip": "ym2612"
    },
    {
      "channel": 3,
      "note": 79,
      "start": 57.4317,
      "duration": 0.016,
      "velocity": 94,
      "chip": "ym2612"
    },
    {
      "channel": 2,
      "note": 48,
      "start": 57.4329,
      "duration": 0.0158,
      "velocity": 100,
      "chip": "ym2612"
    },
    {
      "channel": 1,
      "note": 66,
      "start": 57.4424,
      "duration": 0.0161,
      "velocity": 124,
      "chip": "ym2612"
    },
    {
      "channel": 4,
      "note": 74,
      "start": 57.4465,
      "duration": 0.0157,
      "velocity": 94,
      "chip": "ym2612"
    },
    {
      "channel": 3,
      "note": 79,
      "start": 57.4476,
      "duration": 0.0157,
      "velocity": 94,
      "chip": "ym2612"
    },
    {
      "channel": 2,
      "note": 48,
      "start": 57.4487,
      "duration": 0.0158,
      "velocity": 100,
      "chip": "ym2612"
    },
    {
      "channel": 1,
      "note": 65,
      "start": 57.4585,
      "duration": 0.0161,
      "velocity": 124,
      "chip": "ym2612"
    },
    {
      "channel": 4,
      "note": 74,
      "start": 57.4622,
      "duration": 0.0137,
      "velocity": 94,
      "chip": "ym2612"
    },
    {
      "channel": 3,
      "note": 79,
      "start": 57.4634,
      "duration": 0.0141,
      "velocity": 94,
      "chip": "ym2612"
    },
    {
      "channel": 2,
      "note": 48,
      "start": 57.4645,
      "duration": 0.0141,
      "velocity": 100,
      "chip": "ym2612"
    },
    {
      "channel": 1,
      "note": 64,
      "start": 57.4745,
      "duration": 0.0161,
      "velocity": 124,
      "chip": "ym2612"
    },
    {
      "channel": 4,
      "note": 74,
      "start": 57.4759,
      "duration": 0.0161,
      "velocity": 94,
      "chip": "ym2612"
    },
    {
      "channel": 3,
      "note": 79,
      "start": 57.4774,
      "duration": 0.0185,
      "velocity": 94,
      "chip": "ym2612"
    },
    {
      "channel": 2,
      "note": 48,
      "start": 57.4785,
      "duration": 0.0185,
      "velocity": 100,
      "chip": "ym2612"
    },
    {
      "channel": 1,
      "note": 62,
      "start": 57.4906,
      "duration": 0.0161,
      "velocity": 124,
      "chip": "ym2612"
    },
    {
      "channel": 4,
      "note": 74,
      "start": 57.492,
      "duration": 0.0161,
      "velocity": 94,
      "chip": "ym2612"
    },
    {
      "channel": 3,
      "note": 79,
      "start": 57.4959,
      "duration": 0.0134,
      "velocity": 94,
      "chip": "ym2612"
    },
    {
      "channel": 2,
      "note": 48,
      "start": 57.4971,
      "duration": 0.0161,
      "velocity": 100,
      "chip": "ym2612"
    },
    {
      "channel": 1,
      "note": 61,
      "start": 57.5067,
      "duration": 0.0161,
      "velocity": 124,
      "chip": "ym2612"
    },
    {
      "channel": 4,
      "note": 74,
      "start": 57.5081,
      "duration": 0.0167,
      "velocity": 94,
      "chip": "ym2612"
    },
    {
      "channel": 3,
      "note": 79,
      "start": 57.5093,
      "duration": 0.017,
      "velocity": 94,
      "chip": "ym2612"
    },
    {
      "channel": 2,
      "note": 48,
      "start": 57.5132,
      "duration": 0.0169,
      "velocity": 100,
      "chip": "ym2612"
    },
    {
      "channel": 1,
      "note": 60,
      "start": 57.5228,
      "duration": 0.0161,
      "velocity": 124,
      "chip": "ym2612"
    },
    {
      "channel": 4,
      "note": 74,
      "start": 57.5249,
      "duration": 0.0156,
      "velocity": 94,
      "chip": "ym2612"
    },
    {
      "channel": 3,
      "note": 74,
      "start": 57.5263,
      "duration": 0.0153,
      "velocity": 94,
      "chip": "ym2612"
    },
    {
      "channel": 2,
      "note": 48,
      "start": 57.5301,
      "duration": 0.0127,
      "velocity": 100,
      "chip": "ym2612"
    },
    {
      "channel": 1,
      "note": 59,
      "start": 57.5389,
      "duration": 0.0161,
      "velocity": 124,
      "chip": "ym2612"
    },
    {
      "channel": 4,
      "note": 74,
      "start": 57.5405,
      "duration": 0.016,
      "velocity": 94,
      "chip": "ym2612"
    },
    {
      "channel": 3,
      "note": 74,
      "start": 57.5417,
      "duration": 0.0159,
      "velocity": 94,
      "chip": "ym2612"
    },
    {
      "channel": 2,
      "note": 48,
      "start": 57.5428,
      "duration": 0.0159,
      "velocity": 100,
      "chip": "ym2612"
    },
    {
      "channel": 1,
      "note": 57,
      "start": 57.555,
      "duration": 0.0162,
      "velocity": 124,
      "chip": "ym2612"
    },
    {
      "channel": 4,
      "note": 74,
      "start": 57.5564,
      "duration": 0.0161,
      "velocity": 94,
      "chip": "ym2612"
    },
    {
      "channel": 3,
      "note": 74,
      "start": 57.5576,
      "duration": 0.0161,
      "velocity": 94,
      "chip": "ym2612"
    },
    {
      "channel": 2,
      "note": 48,
      "start": 57.5587,
      "duration": 0.0161,
      "velocity": 100,
      "chip": "ym2612"
    },
    {
      "channel": 1,
      "note": 56,
      "start": 57.5712,
      "duration": 0.0161,
      "velocity": 124,
      "chip": "ym2612"
    },
    {
      "channel": 4,
      "note": 74,
      "start": 57.5725,
      "duration": 0.0161,
      "velocity": 94,
      "chip": "ym2612"
    },
    {
      "channel": 3,
      "note": 74,
      "start": 57.5737,
      "duration": 0.0161,
      "velocity": 94,
      "chip": "ym2612"
    },
    {
      "channel": 2,
      "note": 48,
      "start": 57.5748,
      "duration": 0.0161,
      "velocity": 100,
      "chip": "ym2612"
    },
    {
      "channel": 1,
      "note": 55,
      "start": 57.5873,
      "duration": 0.0161,
      "velocity": 124,
      "chip": "ym2612"
    },
    {
      "channel": 4,
      "note": 74,
      "start": 57.5886,
      "duration": 0.0162,
      "velocity": 94,
      "chip": "ym2612"
    },
    {
      "channel": 3,
      "note": 74,
      "start": 57.5898,
      "duration": 0.0161,
      "velocity": 94,
      "chip": "ym2612"
    },
    {
      "channel": 2,
      "note": 48,
      "start": 57.5909,
      "duration": 0.0162,
      "velocity": 100,
      "chip": "ym2612"
    },
    {
      "channel": 1,
      "note": 53,
      "start": 57.6034,
      "duration": 0.0161,
      "velocity": 124,
      "chip": "ym2612"
    },
    {
      "channel": 4,
      "note": 74,
      "start": 57.6048,
      "duration": 0.0161,
      "velocity": 94,
      "chip": "ym2612"
    },
    {
      "channel": 3,
      "note": 74,
      "start": 57.6059,
      "duration": 0.0161,
      "velocity": 94,
      "chip": "ym2612"
    },
    {
      "channel": 2,
      "note": 48,
      "start": 57.6071,
      "duration": 0.0161,
      "velocity": 100,
      "chip": "ym2612"
    },
    {
      "channel": 1,
      "note": 52,
      "start": 57.6195,
      "duration": 0.0161,
      "velocity": 124,
      "chip": "ym2612"
    },
    {
      "channel": 4,
      "note": 74,
      "start": 57.6209,
      "duration": 0.0202,
      "velocity": 94,
      "chip": "ym2612"
    },
    {
      "channel": 3,
      "note": 74,
      "start": 57.622,
      "duration": 0.0204,
      "velocity": 94,
      "chip": "ym2612"
    },
    {
      "channel": 2,
      "note": 48,
      "start": 57.6232,
      "duration": 0.0233,
      "velocity": 100,
      "chip": "ym2612"
    },
    {
      "channel": 1,
      "note": 51,
      "start": 57.6356,
      "duration": 0.0153,
      "velocity": 1,
      "chip": "ym2612"
    },
    {
      "channel": 0,
      "note": 78,
      "start": 57.6398,
      "duration": 0.0149,
      "velocity": 127,
      "chip": "ym2612"
    },
    {
      "channel": 4,
      "note": 74,
      "start": 57.6411,
      "duration": 0.0149,
      "velocity": 94,
      "chip": "ym2612"
    },
    {
      "channel": 3,
      "note": 74,
      "start": 57.6424,
      "duration": 0.0148,
      "velocity": 94,
      "chip": "ym2612"
    },
    {
      "channel": 2,
      "note": 48,
      "start": 57.6465,
      "duration": 0.0118,
      "velocity": 100,
      "chip": "ym2612"
    },
    {
      "channel": 1,
      "note": 51,
      "start": 57.653,
      "duration": 0.0142,
      "velocity": 105,
      "chip": "ym2612"
    },
    {
      "channel": 0,
      "note": 76,
      "start": 57.6548,
      "duration": 0.0142,
      "velocity": 127,
      "chip": "ym2612"
    },
    {
      "channel": 4,
      "note": 74,
      "start": 57.656,
      "duration": 0.0141,
      "velocity": 94,
      "chip": "ym2612"
    },
    {
      "channel": 3,
      "note": 74,
      "start": 57.6572,
      "duration": 0.0141,
      "velocity": 94,
      "chip": "ym2612"
    },
    {
      "channel": 2,
      "note": 48,
      "start": 57.6583,
      "duration": 0.0141,
      "velocity": 100,
      "chip": "ym2612"
    },
    {
      "channel": 1,
      "note": 105,
      "start": 57.6672,
      "duration": 0.0161,
      "velocity": 105,
      "chip": "ym2612"
    },
    {
      "channel": 0,
      "note": 75,
      "start": 57.6689,
      "duration": 0.0161,
      "velocity": 127,
      "chip": "ym2612"
    },
    {
      "channel": 4,
      "note": 74,
      "start": 57.6701,
      "duration": 0.0161,
      "velocity": 94,
      "chip": "ym2612"
    },
    {
      "channel": 3,
      "note": 74,
      "start": 57.6712,
      "duration": 0.0161,
      "velocity": 94,
      "chip": "ym2612"
    },
    {
      "channel": 2,
      "note": 48,
      "start": 57.6724,
      "duration": 0.0161,
      "velocity": 100,
      "chip": "ym2612"
    },
    {
      "channel": 1,
      "note": 105,
      "start": 57.6834,
      "duration": 0.0161,
      "velocity": 105,
      "chip": "ym2612"
    },
    {
      "channel": 0,
      "note": 73,
      "start": 57.685,
      "duration": 0.0161,
      "velocity": 127,
      "chip": "ym2612"
    },
    {
      "channel": 4,
      "note": 74,
      "start": 57.6862,
      "duration": 0.0161,
      "velocity": 94,
      "chip": "ym2612"
    },
    {
      "channel": 3,
      "note": 74,
      "start": 57.6873,
      "duration": 0.0161,
      "velocity": 94,
      "chip": "ym2612"
    },
    {
      "channel": 2,
      "note": 48,
      "start": 57.6885,
      "duration": 0.0161,
      "velocity": 100,
      "chip": "ym2612"
    },
    {
      "channel": 1,
      "note": 105,
      "start": 57.6995,
      "duration": 0.0161,
      "velocity": 105,
      "chip": "ym2612"
    },
    {
      "channel": 0,
      "note": 71,
      "start": 57.7011,
      "duration": 0.0161,
      "velocity": 127,
      "chip": "ym2612"
    },
    {
      "channel": 4,
      "note": 74,
      "start": 57.7023,
      "duration": 0.0161,
      "velocity": 94,
      "chip": "ym2612"
    },
    {
      "channel": 3,
      "note": 74,
      "start": 57.7034,
      "duration": 0.0161,
      "velocity": 94,
      "chip": "ym2612"
    },
    {
      "channel": 2,
      "note": 48,
      "start": 57.7046,
      "duration": 0.0161,
      "velocity": 100,
      "chip": "ym2612"
    },
    {
      "channel": 1,
      "note": 105,
      "start": 57.7156,
      "duration": 0.0161,
      "velocity": 105,
      "chip": "ym2612"
    },
    {
      "channel": 0,
      "note": 70,
      "start": 57.7172,
      "duration": 0.0161,
      "velocity": 127,
      "chip": "ym2612"
    },
    {
      "channel": 4,
      "note": 74,
      "start": 57.7184,
      "duration": 0.0161,
      "velocity": 94,
      "chip": "ym2612"
    },
    {
      "channel": 3,
      "note": 74,
      "start": 57.7195,
      "duration": 0.0161,
      "velocity": 94,
      "chip": "ym2612"
    },
    {
      "channel": 2,
      "note": 48,
      "start": 57.7207,
      "duration": 0.0161,
      "velocity": 100,
      "chip": "ym2612"
    },
    {
      "channel": 1,
      "note": 105,
      "start": 57.7317,
      "duration": 0.0178,
      "velocity": 124,
      "chip": "ym2612"
    },
    {
      "channel": 0,
      "note": 68,
      "start": 57.7333,
      "duration": 0.0197,
      "velocity": 115,
      "chip": "ym2612"
    },
    {
      "channel": 4,
      "note": 74,
      "start": 57.7345,
      "duration": 0.0198,
      "velocity": 94,
      "chip": "ym2612"
    },
    {
      "channel": 3,
      "note": 74,
      "start": 57.7356,
      "duration": 0.02,
      "velocity": 94,
      "chip": "ym2612"
    },
    {
      "channel": 2,
      "note": 48,
      "start": 57.7368,
      "duration": 0.0202,
      "velocity": 100,
      "chip": "ym2612"
    },
    {
      "channel": 1,
      "note": 64,
      "start": 57.7495,
      "duration": 0.0147,
      "velocity": 124,
      "chip": "ym2612"
    },
    {
      "channel": 0,
      "note": 36,
      "start": 57.753,
      "duration": 0.013,
      "velocity": 115,
      "chip": "ym2612"
    },
    {
      "channel": 4,
      "note": 74,
      "start": 57.7543,
      "duration": 0.0129,
      "velocity": 94,
      "chip": "ym2612"
    },
    {
      "channel": 3,
      "note": 74,
      "start": 57.7556,
      "duration": 0.0128,
      "velocity": 94,
      "chip": "ym2612"
    },
    {
      "channel": 2,
      "note": 57,
      "start": 57.757,
      "duration": 0.0126,
      "velocity": 100,
      "chip": "ym2612"
    },
    {
      "channel": 1,
      "note": 64,
      "start": 57.7642,
      "duration": 0.0164,
      "velocity": 124,
      "chip": "ym2612"
    },
    {
      "channel": 0,
      "note": 36,
      "start": 57.766,
      "duration": 0.0163,
      "velocity": 115,
      "chip": "ym2612"
    },
    {
      "channel": 4,
      "note": 74,
      "start": 57.7672,
      "duration": 0.0163,
      "velocity": 94,
      "chip": "ym2612"
    },
    {
      "channel": 3,
      "note": 74,
      "start": 57.7684,
      "duration": 0.0162,
      "velocity": 94,
      "chip": "ym2612"
    },
    {
      "channel": 2,
      "note": 57,
      "start": 57.7696,
      "duration": 0.0162,
      "velocity": 100,
      "chip": "ym2612"
    },
    {
      "channel": 1,
      "note": 64,
      "start": 57.7807,
      "duration": 0.0163,
      "velocity": 124,
      "chip": "ym2612"
    },
    {
      "channel": 0,
      "note": 37,
      "start": 57.7823,
      "duration": 0.0163,
      "velocity": 115,
      "chip": "ym2612"
    },
    {
      "channel": 4,
      "note": 74,
      "start": 57.7834,
      "duration": 0.0163,
      "velocity": 94,
      "chip": "ym2612"
    },
    {
      "channel": 3,
      "note": 74,
      "start": 57.7846,
      "duration": 0.0163,
      "velocity": 94,
      "chip": "ym2612"
    },
    {
      "channel": 2,
      "note": 57,
      "start": 57.7857,
      "duration": 0.0163,
      "velocity": 100,
      "chip": "ym2612"
    },
    {
      "channel": 1,
      "note": 64,
      "start": 57.7969,
      "duration": 0.0153,
      "velocity": 124,
      "chip": "ym2612"
    },
    {
      "channel": 0,
      "note": 37,
      "start": 57.7986,
      "duration": 0.0153,
      "velocity": 115,
      "chip": "ym2612"
    },
    {
      "channel": 4,
      "note": 74,
      "start": 57.7998,
      "duration": 0.0152,
      "velocity": 94,
      "chip": "ym2612"
    },
    {
      "channel": 3,
      "note": 74,
      "start": 57.8009,
      "duration": 0.0152,
      "velocity": 94,
      "chip": "ym2612"
    },
    {
      "channel": 2,
      "note": 57,
      "start": 57.802,
      "duration": 0.0153,
      "velocity": 100,
      "chip": "ym2612"
    },
    {
      "channel": 1,
      "note": 64,
      "start": 57.8122,
      "duration": 0.0185,
      "velocity": 124,
      "chip": "ym2612"
    },
    {
      "channel": 0,
      "note": 38,
      "start": 57.8139,
      "duration": 0.0185,
      "velocity": 115,
      "chip": "ym2612"
    },
    {
      "channel": 4,
      "note": 74,
      "start": 57.815,
      "duration": 0.0185,
      "velocity": 94,
      "chip": "ym2612"
    },
    {
      "channel": 3,
      "note": 74,
      "start": 57.8161,
      "duration": 0.0185,
      "velocity": 94,
      "chip": "ym2612"
    },
    {
      "channel": 2,
      "note": 57,
      "start": 57.8173,
      "duration": 0.0185,
      "velocity": 100,
      "chip": "ym2612"
    },
    {
      "channel": 1,
      "note": 64,
      "start": 57.8307,
      "duration": 0.0165,
      "velocity": 124,
      "chip": "ym2612"
    },
    {
      "channel": 0,
      "note": 38,
      "start": 57.8323,
      "duration": 0.0165,
      "velocity": 115,
      "chip": "ym2612"
    },
    {
      "channel": 4,
      "note": 74,
      "start": 57.8334,
      "duration": 0.0165,
      "velocity": 94,
      "chip": "ym2612"
    },
    {
      "channel": 3,
      "note": 74,
      "start": 57.8346,
      "duration": 0.0165,
      "velocity": 94,
      "chip": "ym2612"
    },
    {
      "channel": 2,
      "note": 57,
      "start": 57.8357,
      "duration": 0.0165,
      "velocity": 100,
      "chip": "ym2612"
    },
    {
      "channel": 1,
      "note": 64,
      "start": 57.8471,
      "duration": 0.0174,
      "velocity": 105,
      "chip": "ym2612"
    },
    {
      "channel": 0,
      "note": 39,
      "start": 57.8488,
      "duration": 0.0175,
      "velocity": 115,
      "chip": "ym2612"
    },
    {
      "channel": 4,
      "note": 74,
      "start": 57.85,
      "duration": 0.0177,
      "velocity": 94,
      "chip": "ym2612"
    },
    {
      "channel": 3,
      "note": 74,
      "start": 57.8511,
      "duration": 0.0179,
      "velocity": 94,
      "chip": "ym2612"
    },
    {
      "channel": 2,
      "note": 57,
      "start": 57.8522,
      "duration": 0.0182,
      "velocity": 100,
      "chip": "ym2612"
    },
    {
      "channel": 1,
      "note": 105,
      "start": 57.8646,
      "duration": 0.0124,
      "velocity": 105,
      "chip": "ym2612"
    },
    {
      "channel": 0,
      "note": 39,
      "start": 57.8663,
      "duration": 0.0123,
      "velocity": 115,
      "chip": "ym2612"
    },
    {
      "channel": 4,
      "note": 81,
      "start": 57.8677,
      "duration": 0.0121,
      "velocity": 94,
      "chip": "ym2612"
    },
    {
      "channel": 3,
      "note": 74,
      "start": 57.869,
      "duration": 0.012,
      "velocity": 94,
      "chip": "ym2612"
    },
    {
      "channel": 2,
      "note": 57,
      "start": 57.8704,
      "duration": 0.0118,
      "velocity": 100,
      "chip": "ym2612"
    },
    {
      "channel": 1,
      "note": 105,
      "start": 57.877,
      "duration": 0.0157,
      "velocity": 105,
      "chip": "ym2612"
    },
    {
      "channel": 0,
      "note": 40,
      "start": 57.8786,
      "duration": 0.0184,
      "velocity": 115,
      "chip": "ym2612"
    },
    {
      "channel": 4,
      "note": 81,
      "start": 57.8798,
      "duration": 0.0185,
      "velocity": 94,
      "chip": "ym2612"
    },
    {
      "channel": 3,
      "note": 74,
      "start": 57.881,
      "duration": 0.0184,
      "velocity": 94,
      "chip": "ym2612"
    },
    {
      "channel": 2,
      "note": 57,
      "start": 57.8822,
      "duration": 0.0183,
      "velocity": 100,
      "chip": "ym2612"
    },
    {
      "channel": 1,
      "note": 105,
      "start": 57.8927,
      "duration": 0.0161,
      "velocity": 105,
      "chip": "ym2612"
    },
    {
      "channel": 0,
      "note": 40,
      "start": 57.8971,
      "duration": 0.0161,
      "velocity": 115,
      "chip": "ym2612"
    },
    {
      "channel": 4,
      "note": 81,
      "start": 57.8983,
      "duration": 0.0161,
      "velocity": 94,
      "chip": "ym2612"
    },
    {
      "channel": 3,
      "note": 74,
      "start": 57.8994,
      "duration": 0.0161,
      "velocity": 94,
      "chip": "ym2612"
    },
    {
      "channel": 2,
      "note": 57,
      "start": 57.9005,
      "duration": 0.0161,
      "velocity": 100,
      "chip": "ym2612"
    },
    {
      "channel": 1,
      "note": 105,
      "start": 57.9088,
      "duration": 0.0161,
      "velocity": 105,
      "chip": "ym2612"
    },
    {
      "channel": 0,
      "note": 40,
      "start": 57.9132,
      "duration": 0.0157,
      "velocity": 115,
      "chip": "ym2612"
    },
    {
      "channel": 4,
      "note": 81,
      "start": 57.9144,
      "duration": 0.0157,
      "velocity": 94,
      "chip": "ym2612"
    },
    {
      "channel": 3,
      "note": 74,
      "start": 57.9155,
      "duration": 0.0157,
      "velocity": 94,
      "chip": "ym2612"
    },
    {
      "channel": 2,
      "note": 57,
      "start": 57.9166,
      "duration": 0.0157,
      "velocity": 100,
      "chip": "ym2612"
    },
    {
      "channel": 1,
      "note": 105,
      "start": 57.9249,
      "duration": 0.0161,
      "velocity": 105,
      "chip": "ym2612"
    },
    {
      "channel": 0,
      "note": 41,
      "start": 57.9289,
      "duration": 0.0137,
      "velocity": 115,
      "chip": "ym2612"
    },
    {
      "channel": 4,
      "note": 81,
      "start": 57.9301,
      "duration": 0.0141,
      "velocity": 94,
      "chip": "ym2612"
    },
    {
      "channel": 3,
      "note": 74,
      "start": 57.9312,
      "duration": 0.0141,
      "velocity": 94,
      "chip": "ym2612"
    },
    {
      "channel": 2,
      "note": 57,
      "start": 57.9324,
      "duration": 0.0141,
      "velocity": 100,
      "chip": "ym2612"
    },
    {
      "channel": 1,
      "note": 105,
      "start": 57.941,
      "duration": 0.0161,
      "velocity": 105,
      "chip": "ym2612"
    },
    {
      "channel": 0,
      "note": 41,
      "start": 57.9426,
      "duration": 0.0161,
      "velocity": 115,
      "chip": "ym2612"
    },
    {
      "channel": 4,
      "note": 81,
      "start": 57.9441,
      "duration": 0.0185,
      "velocity": 94,
      "chip": "ym2612"
    },
    {
      "channel": 3,
      "note": 74,
      "start": 57.9453,
      "duration": 0.0185,
      "velocity": 94,
      "chip": "ym2612"
    },
    {
      "channel": 2,
      "note": 57,
      "start": 57.9464,
      "duration": 0.0185,
      "velocity": 100,
      "chip": "ym2612"
    },
    {
      "channel": 1,
      "note": 105,
      "start": 57.9571,
      "duration": 0.0178,
      "velocity": 124,
      "chip": "ym2612"
    },
    {
      "channel": 0,
      "note": 42,
      "start": 57.9587,
      "duration": 0.0206,
      "velocity": 115,
      "chip": "ym2612"
    },
    {
      "channel": 4,
      "note": 81,
      "start": 57.9627,
      "duration": 0.018,
      "velocity": 94,
      "chip": "ym2612"
    },
    {
      "channel": 3,
      "note": 74,
      "start": 57.9638,
      "duration": 0.0183,
      "velocity": 94,
      "chip": "ym2612"
    },
    {
      "channel": 2,
      "note": 57,
      "start": 57.9649,
      "duration": 0.0186,
      "velocity": 100,
      "chip": "ym2612"
    },
    {
      "channel": 1,
      "note": 64,
      "start": 57.9749,
      "duration": 0.0144,
      "velocity": 124,
      "chip": "ym2612"
    },
    {
      "channel": 0,
      "note": 42,
      "start": 57.9793,
      "duration": 0.0117,
      "velocity": 115,
      "chip": "ym2612"
    },
    {
      "channel": 4,
      "note": 81,
      "start": 57.9807,
      "duration": 0.0116,
      "velocity": 94,
      "chip": "ym2612"
    },
    {
      "channel": 3,
      "note": 81,
      "start": 57.9821,
      "duration": 0.0137,
      "velocity": 94,
      "chip": "ym2612"
    },
    {
      "channel": 2,
      "note": 57,
      "start": 57.9835,
      "duration": 0.0135,
      "velocity": 100,
      "chip": "ym2612"
    },
    {
      "channel": 1,
      "note": 64,
      "start": 57.9894,
      "duration": 0.016,
      "velocity": 124,
      "chip": "ym2612"
    },
    {
      "channel": 0,
      "note": 43,
      "start": 57.991,
      "duration": 0.016,
      "velocity": 115,
      "chip": "ym2612"
    },
    {
      "channel": 4,
      "note": 81,
      "start": 57.9922,
      "duration": 0.016,
      "velocity": 94,
      "chip": "ym2612"
    },
    {
      "channel": 3,
      "note": 81,
      "start": 57.9959,
      "duration": 0.0136,
      "velocity": 94,
      "chip": "ym2612"
    },
    {
      "channel": 2,
      "note": 57,
      "start": 57.997,
      "duration": 0.0138,
      "velocity": 100,
      "chip": "ym2612"
    },
    {
      "channel": 1,
      "note": 64,
      "start": 58.0054,
      "duration": 0.0161,
      "velocity": 124,
      "chip": "ym2612"
    },
    {
      "channel": 0,
      "note": 43,
      "start": 58.0071,
      "duration": 0.0161,
      "velocity": 115,
      "chip": "ym2612"
    },
    {
      "channel": 4,
      "note": 81,
      "start": 58.0083,
      "duration": 0.0161,
      "velocity": 94,
      "chip": "ym2612"
    },
    {
      "channel": 3,
      "note": 81,
      "start": 58.0094,
      "duration": 0.0161,
      "velocity": 94,
      "chip": "ym2612"
    },
    {
      "channel": 2,
      "note": 57,
      "start": 58.0108,
      "duration": 0.0186,
      "velocity": 100,
      "chip": "ym2612"
    },
    {
      "channel": 1,
      "note": 64,
      "start": 58.0215,
      "duration": 0.0161,
      "velocity": 124,
      "chip": "ym2612"
    },
    {
      "channel": 0,
      "note": 44,
      "start": 58.0232,
      "duration": 0.0161,
      "velocity": 115,
      "chip": "ym2612"
    },
    {
      "channel": 4,
      "note": 81,
      "start": 58.0244,
      "duration": 0.0161,
      "velocity": 94,
      "chip": "ym2612"
    },
    {
      "channel": 3,
      "note": 81,
      "start": 58.0255,
      "duration": 0.0161,
      "velocity": 94,
      "chip": "ym2612"
    },
    {
      "channel": 2,
      "note": 57,
      "start": 58.0294,
      "duration": 0.0133,
      "velocity": 100,
      "chip": "ym2612"
    },
    {
      "channel": 1,
      "note": 64,
      "start": 58.0376,
      "duration": 0.0161,
      "velocity": 124,
      "chip": "ym2612"
    },
    {
      "channel": 0,
      "note": 44,
      "start": 58.0392,
      "duration": 0.0161,
      "velocity": 115,
      "chip": "ym2612"
    },
    {
      "channel": 4,
      "note": 81,
      "start": 58.0405,
      "duration": 0.0161,
      "velocity": 94,
      "chip": "ym2612"
    },
    {
      "channel": 3,
      "note": 81,
      "start": 58.0416,
      "duration": 0.0161,
      "velocity": 94,
      "chip": "ym2612"
    },
    {
      "channel": 2,
      "note": 57,
      "start": 58.0427,
      "duration": 0.0161,
      "velocity": 100,
      "chip": "ym2612"
    },
    {
      "channel": 1,
      "note": 64,
      "start": 58.0537,
      "duration": 0.0161,
      "velocity": 124,
      "chip": "ym2612"
    },
    {
      "channel": 0,
      "note": 44,
      "start": 58.0553,
      "duration": 0.0162,
      "velocity": 115,
      "chip": "ym2612"
    },
    {
      "channel": 4,
      "note": 81,
      "start": 58.0565,
      "duration": 0.0161,
      "velocity": 94,
      "chip": "ym2612"
    },
    {
      "channel": 3,
      "note": 81,
      "start": 58.0577,
      "duration": 0.0161,
      "velocity": 94,
      "chip": "ym2612"
    },
    {
      "channel": 2,
      "note": 57,
      "start": 58.0588,
      "duration": 0.0161,
      "velocity": 100,
      "chip": "ym2612"
    },
    {
      "channel": 1,
      "note": 64,
      "start": 58.0698,
      "duration": 0.0178,
      "velocity": 105,
      "chip": "ym2612"
    },
    {
      "channel": 0,
      "note": 45,
      "start": 58.0715,
      "duration": 0.0178,
      "velocity": 115,
      "chip": "ym2612"
    },
    {
      "channel": 4,
      "note": 81,
      "start": 58.0726,
      "duration": 0.018,
      "velocity": 94,
      "chip": "ym2612"
    },
    {
      "channel": 3,
      "note": 81,
      "start": 58.0738,
      "duration": 0.0182,
      "velocity": 94,
      "chip": "ym2612"
    },
    {
      "channel": 2,
      "note": 57,
      "start": 58.0749,
      "duration": 0.0212,
      "velocity": 100,
      "chip": "ym2612"
    },
    {
      "channel": 1,
      "note": 105,
      "start": 58.0876,
      "duration": 0.0144,
      "velocity": 105,
      "chip": "ym2612"
    },
    {
      "channel": 0,
      "note": 45,
      "start": 58.0893,
      "duration": 0.0144,
      "velocity": 115,
      "chip": "ym2612"
    },
    {
      "channel": 4,
      "note": 81,
      "start": 58.0907,
      "duration": 0.0142,
      "velocity": 94,
      "chip": "ym2612"
    },
    {
      "channel": 3,
      "note": 81,
      "start": 58.092,
      "duration": 0.0142,
      "velocity": 94,
      "chip": "ym2612"
    },
    {
      "channel": 2,
      "note": 57,
      "start": 58.0962,
      "duration": 0.0111,
      "velocity": 100,
      "chip": "ym2612"
    },
    {
      "channel": 1,
      "note": 105,
      "start": 58.102,
      "duration": 0.0161,
      "velocity": 105,
      "chip": "ym2612"
    },
    {
      "channel": 0,
      "note": 46,
      "start": 58.1037,
      "duration": 0.016,
      "velocity": 115,
      "chip": "ym2612"
    },
    {
      "channel": 4,
      "note": 81,
      "start": 58.1049,
      "duration": 0.016,
      "velocity": 94,
      "chip": "ym2612"
    },
    {
      "channel": 3,
      "note": 81,
      "start": 58.1062,
      "duration": 0.0159,
      "velocity": 94,
      "chip": "ym2612"
    },
    {
      "channel": 2,
      "note": 57,
      "start": 58.1073,
      "duration": 0.0159,
      "velocity": 100,
      "chip": "ym2612"
    },
    {
      "channel": 1,
      "note": 105,
      "start": 58.1181,
      "duration": 0.0161,
      "velocity": 105,
      "chip": "ym2612"
    },
    {
      "channel": 0,
      "note": 46,
      "start": 58.1198,
      "duration": 0.0161,
      "velocity": 115,
      "chip": "ym2612"
    },
    {
      "channel": 4,
      "note": 81,
      "start": 58.1209,
      "duration": 0.0161,
      "velocity": 94,
      "chip": "ym2612"
    },
    {
      "channel": 3,
      "note": 81,
      "start": 58.1221,
      "duration": 0.0161,
      "velocity": 94,
      "chip": "ym2612"
    },
    {
      "channel": 2,
      "note": 57,
      "start": 58.1232,
      "duration": 0.0161,
      "velocity": 100,
      "chip": "ym2612"
    },
    {
      "channel": 1,
      "note": 105,
      "start": 58.1342,
      "duration": 0.0161,
      "velocity": 105,
      "chip": "ym2612"
    },
    {
      "channel": 0,
      "note": 47,
      "start": 58.1359,
      "duration": 0.0161,
      "velocity": 115,
      "chip": "ym2612"
    },
    {
      "channel": 4,
      "note": 81,
      "start": 58.137,
      "duration": 0.0161,
      "velocity": 94,
      "chip": "ym2612"
    },
    {
      "channel": 3,
      "note": 81,
      "start": 58.1382,
      "duration": 0.0161,
      "velocity": 94,
      "chip": "ym2612"
    },
    {
      "channel": 2,
      "note": 57,
      "start": 58.1393,
      "duration": 0.0161,
      "velocity": 100,
      "chip": "ym2612"
    },
    {
      "channel": 1,
      "note": 105,
      "start": 58.1503,
      "duration": 0.0161,
      "velocity": 105,
      "chip": "ym2612"
    },
    {
      "channel": 0,
      "note": 47,
      "start": 58.152,
      "duration": 0.0161,
      "velocity": 115,
      "chip": "ym2612"
    },
    {
      "channel": 4,
      "note": 81,
      "start": 58.1531,
      "duration": 0.0161,
      "velocity": 94,
      "chip": "ym2612"
    },
    {
      "channel": 3,
      "note": 81,
      "start": 58.1542,
      "duration": 0.0161,
      "velocity": 94,
      "chip": "ym2612"
    },
    {
      "channel": 2,
      "note": 57,
      "start": 58.1554,
      "duration": 0.0161,
      "velocity": 100,
      "chip": "ym2612"
    },
    {
      "channel": 1,
      "note": 105,
      "start": 58.1664,
      "duration": 0.0161,
      "velocity": 105,
      "chip": "ym2612"
    },
    {
      "channel": 0,
      "note": 47,
      "start": 58.168,
      "duration": 0.0161,
      "velocity": 115,
      "chip": "ym2612"
    },
    {
      "channel": 4,
      "note": 81,
      "start": 58.1692,
      "duration": 0.0161,
      "velocity": 94,
      "chip": "ym2612"
    },
    {
      "channel": 3,
      "note": 81,
      "start": 58.1703,
      "duration": 0.0161,
      "velocity": 94,
      "chip": "ym2612"
    },
    {
      "channel": 2,
      "note": 57,
      "start": 58.1715,
      "duration": 0.0161,
      "velocity": 100,
      "chip": "ym2612"
    },
    {
      "channel": 1,
      "note": 105,
      "start": 58.1825,
      "duration": 0.0184,
      "velocity": 124,
      "chip": "ym2612"
    },
    {
      "channel": 0,
      "note": 48,
      "start": 58.1841,
      "duration": 0.0191,
      "velocity": 115,
      "chip": "ym2612"
    },
    {
      "channel": 4,
      "note": 81,
      "start": 58.1853,
      "duration": 0.0193,
      "velocity": 94,
      "chip": "ym2612"
    },
    {
      "channel": 3,
      "note": 81,
      "start": 58.1864,
      "duration": 0.0195,
      "velocity": 94,
      "chip": "ym2612"
    },
    {
      "channel": 2,
      "note": 57,
      "start": 58.1876,
      "duration": 0.0198,
      "velocity": 100,
      "chip": "ym2612"
    },
    {
      "channel": 1,
      "note": 78,
      "start": 58.2009,
      "duration": 0.0144,
      "velocity": 124,
      "chip": "ym2612"
    },
    {
      "channel": 0,
      "note": 48,
      "start": 58.2033,
      "duration": 0.0139,
      "velocity": 115,
      "chip": "ym2612"
    },
    {
      "channel": 4,
      "note": 81,
      "start": 58.2046,
      "duration": 0.0138,
      "velocity": 94,
      "chip": "ym2612"
    },
    {
      "channel": 3,
      "note": 81,
      "start": 58.206,
      "duration": 0.0136,
      "velocity": 94,
      "chip": "ym2612"
    },
    {
      "channel": 2,
      "note": 57,
      "start": 58.2074,
      "duration": 0.0134,
      "velocity": 100,
      "chip": "ym2612"
    },
    {
      "channel": 1,
      "note": 76,
      "start": 58.2153,
      "duration": 0.016,
      "velocity": 124,
      "chip": "ym2612"
    },
    {
      "channel": 0,
      "note": 49,
      "start": 58.2172,
      "duration": 0.0152,
      "velocity": 1,
      "chip": "ym2612"
    },
    {
      "channel": 4,
      "note": 81,
      "start": 58.2184,
      "duration": 0.0151,
      "velocity": 94,
      "chip": "ym2612"
    },
    {
      "channel": 3,
      "note": 81,
      "start": 58.2196,
      "duration": 0.0151,
      "velocity": 94,
      "chip": "ym2612"
    },
    {
      "channel": 2,
      "note": 57,
      "start": 58.2208,
      "duration": 0.015,
      "velocity": 100,
      "chip": "ym2612"
    },
    {
      "channel": 1,
      "note": 75,
      "start": 58.2313,
      "duration": 0.0165,
      "velocity": 124,
      "chip": "ym2612"
    },
    {
      "channel": 4,
      "note": 81,
      "start": 58.2335,
      "duration": 0.0156,
      "velocity": 94,
      "chip": "ym2612"
    },
    {
      "channel": 3,
      "note": 81,
      "start": 58.2346,
      "duration": 0.0156,
      "velocity": 94,
      "chip": "ym2612"
    },
    {
      "channel": 2,
      "note": 57,
      "start": 58.2358,
      "duration": 0.0156,
      "velocity": 100,
      "chip": "ym2612"
    },
    {
      "channel": 1,
      "note": 74,
      "start": 58.2478,
      "duration": 0.0163,
      "velocity": 124,
      "chip": "ym2612"
    },
    {
      "channel": 4,
      "note": 81,
      "start": 58.2492,
      "duration": 0.0163,
      "velocity": 94,
      "chip": "ym2612"
    },
    {
      "channel": 3,
      "note": 81,
      "start": 58.2503,
      "duration": 0.0163,
      "velocity": 94,
      "chip": "ym2612"
    },
    {
      "channel": 2,
      "note": 57,
      "start": 58.2515,
      "duration": 0.0163,
      "velocity": 100,
      "chip": "ym2612"
    },
    {
      "channel": 1,
      "note": 72,
      "start": 58.2641,
      "duration": 0.0155,
      "velocity": 124,
      "chip": "ym2612"
    },
    {
      "channel": 4,
      "note": 81,
      "start": 58.2655,
      "duration": 0.0155,
      "velocity": 94,
      "chip": "ym2612"
    },
    {
      "channel": 3,
      "note": 81,
      "start": 58.2666,
      "duration": 0.0155,
      "velocity": 94,
      "chip": "ym2612"
    },
    {
      "channel": 2,
      "note": 57,
      "start": 58.2678,
      "duration": 0.0155,
      "velocity": 100,
      "chip": "ym2612"
    },
    {
      "channel": 1,
      "note": 71,
      "start": 58.2796,
      "duration": 0.0182,
      "velocity": 124,
      "chip": "ym2612"
    },
    {
      "channel": 4,
      "note": 81,
      "start": 58.281,
      "duration": 0.0182,
      "velocity": 94,
      "chip": "ym2612"
    },
    {
      "channel": 3,
      "note": 81,
      "start": 58.2821,
      "duration": 0.0182,
      "velocity": 94,
      "chip": "ym2612"
    },
    {
      "channel": 2,
      "note": 57,
      "start": 58.2833,
      "duration": 0.0182,
      "velocity": 100,
      "chip": "ym2612"
    },
    {
      "channel": 1,
      "note": 70,
      "start": 58.2978,
      "duration": 0.0167,
      "velocity": 124,
      "chip": "ym2612"
    },
    {
      "channel": 4,
      "note": 81,
      "start": 58.2992,
      "duration": 0.0174,
      "velocity": 94,
      "chip": "ym2612"
    },
    {
      "channel": 3,
      "note": 81,
      "start": 58.3003,
      "duration": 0.0176,
      "velocity": 94,
      "chip": "ym2612"
    },
    {
      "channel": 2,
      "note": 57,
      "start": 58.3015,
      "duration": 0.0179,
      "velocity": 100,
      "chip": "ym2612"
    },
    {
      "channel": 1,
      "note": 69,
      "start": 58.3145,
      "duration": 0.0158,
      "velocity": 124,
      "chip": "ym2612"
    },
    {
      "channel": 4,
      "note": 76,
      "start": 58.3166,
      "duration": 0.0151,
      "velocity": 94,
      "chip": "ym2612"
    },
    {
      "channel": 3,
      "note": 81,
      "start": 58.3179,
      "duration": 0.0151,
      "velocity": 94,
      "chip": "ym2612"
    },
    {
      "channel": 2,
      "note": 57,
      "start": 58.3194,
      "duration": 0.0148,
      "velocity": 100,
      "chip": "ym2612"
    },
    {
      "channel": 1,
      "note": 68,
      "start": 58.3303,
      "duration": 0.0141,
      "velocity": 124,
      "chip": "ym2612"
    },
    {
      "channel": 4,
      "note": 76,
      "start": 58.3318,
      "duration": 0.0139,
      "velocity": 94,
      "chip": "ym2612"
    },
    {
      "channel": 3,
      "note": 81,
      "start": 58.333,
      "duration": 0.0139,
      "velocity": 94,
      "chip": "ym2612"
    },
    {
      "channel": 2,
      "note": 57,
      "start": 58.3341,
      "duration": 0.0139,
      "velocity": 100,
      "chip": "ym2612"
    },
    {
      "channel": 1,
      "note": 66,
      "start": 58.3443,
      "duration": 0.0185,
      "velocity": 124,
      "chip": "ym2612"
    },
    {
      "channel": 4,
      "note": 76,
      "start": 58.3457,
      "duration": 0.0185,
      "velocity": 94,
      "chip": "ym2612"
    },
    {
      "channel": 3,
      "note": 81,
      "start": 58.3469,
      "duration": 0.0185,
      "velocity": 94,
      "chip": "ym2612"
    },
    {
      "channel": 2,
      "note": 57,
      "start": 58.348,
      "duration": 0.0185,
      "velocity": 100,
      "chip": "ym2612"
    },
    {
      "channel": 1,
      "note": 65,
      "start": 58.3628,
      "duration": 0.0134,
      "velocity": 124,
      "chip": "ym2612"
    },
    {
      "channel": 4,
      "note": 76,
      "start": 58.3642,
      "duration": 0.0161,
      "velocity": 94,
      "chip": "ym2612"
    },
    {
      "channel": 3,
      "note": 81,
      "start": 58.3654,
      "duration": 0.0161,
      "velocity": 94,
      "chip": "ym2612"
    },
    {
      "channel": 2,
      "note": 57,
      "start": 58.3665,
      "duration": 0.0161,
      "velocity": 100,
      "chip": "ym2612"
    },
    {
      "channel": 1,
      "note": 64,
      "start": 58.3762,
      "duration": 0.0161,
      "velocity": 124,
      "chip": "ym2612"
    },
    {
      "channel": 4,
      "note": 76,
      "start": 58.3803,
      "duration": 0.0157,
      "velocity": 94,
      "chip": "ym2612"
    },
    {
      "channel": 3,
      "note": 81,
      "start": 58.3815,
      "duration": 0.0157,
      "velocity": 94,
      "chip": "ym2612"
    },
    {
      "channel": 2,
      "note": 57,
      "start": 58.3826,
      "duration": 0.0157,
      "velocity": 100,
      "chip": "ym2612"
    },
    {
      "channel": 1,
      "note": 62,
      "start": 58.3923,
      "duration": 0.0161,
      "velocity": 124,
      "chip": "ym2612"
    },
    {
      "channel": 4,
      "note": 76,
      "start": 58.396,
      "duration": 0.0137,
      "velocity": 94,
      "chip": "ym2612"
    },
    {
      "channel": 3,
      "note": 81,
      "start": 58.3972,
      "duration": 0.0141,
      "velocity": 94,
      "chip": "ym2612"
    },
    {
      "channel": 2,
      "note": 57,
      "start": 58.3983,
      "duration": 0.0141,
      "velocity": 100,
      "chip": "ym2612"
    },
    {
      "channel": 1,
      "note": 61,
      "start": 58.4084,
      "duration": 0.0161,
      "velocity": 124,
      "chip": "ym2612"
    },
    {
      "channel": 4,
      "note": 76,
      "start": 58.4098,
      "duration": 0.0195,
      "velocity": 94,
      "chip": "ym2612"
    },
    {
      "channel": 3,
      "note": 81,
      "start": 58.4112,
      "duration": 0.0194,
      "velocity": 94,
      "chip": "ym2612"
    },
    {
      "channel": 2,
      "note": 57,
      "start": 58.4124,
      "duration": 0.0197,
      "velocity": 100,
      "chip": "ym2612"
    },
    {
      "channel": 1,
      "note": 60,
      "start": 58.4245,
      "duration": 0.0161,
      "velocity": 124,
      "chip": "ym2612"
    },
    {
      "channel": 4,
      "note": 76,
      "start": 58.4293,
      "duration": 0.0128,
      "velocity": 94,
      "chip": "ym2612"
    },
    {
      "channel": 3,
      "note": 76,
      "start": 58.4307,
      "duration": 0.0153,
      "velocity": 94,
      "chip": "ym2612"
    },
    {
      "channel": 2,
      "note": 57,
      "start": 58.4321,
      "duration": 0.0151,
      "velocity": 100,
      "chip": "ym2612"
    },
    {
      "channel": 1,
      "note": 59,
      "start": 58.4406,
      "duration": 0.0162,
      "velocity": 124,
      "chip": "ym2612"
    },
    {
      "channel": 4,
      "note": 76,
      "start": 58.4421,
      "duration": 0.016,
      "velocity": 94,
      "chip": "ym2612"
    },
    {
      "channel": 3,
      "note": 76,
      "start": 58.446,
      "duration": 0.0132,
      "velocity": 94,
      "chip": "ym2612"
    },
    {
      "channel": 2,
      "note": 57,
      "start": 58.4472,
      "duration": 0.0156,
      "velocity": 100,
      "chip": "ym2612"
    },
    {
      "channel": 1,
      "note": 57,
      "start": 58.4567,
      "duration": 0.0161,
      "velocity": 124,
      "chip": "ym2612"
    },
    {
      "channel": 4,
      "note": 76,
      "start": 58.4581,
      "duration": 0.0161,
      "velocity": 94,
      "chip": "ym2612"
    },
    {
      "channel": 3,
      "note": 76,
      "start": 58.4592,
      "duration": 0.0162,
      "velocity": 94,
      "chip": "ym2612"
    },
    {
      "channel": 2,
      "note": 57,
      "start": 58.4628,
      "duration": 0.0138,
      "velocity": 100,
      "chip": "ym2612"
    },
    {
      "channel": 1,
      "note": 56,
      "start": 58.4728,
      "duration": 0.0161,
      "velocity": 124,
      "chip": "ym2612"
    },
    {
      "channel": 4,
      "note": 76,
      "start": 58.4742,
      "duration": 0.0161,
      "velocity": 94,
      "chip": "ym2612"
    },
    {
      "channel": 3,
      "note": 76,
      "start": 58.4754,
      "duration": 0.0161,
      "velocity": 94,
      "chip": "ym2612"
    },
    {
      "channel": 2,
      "note": 57,
      "start": 58.4766,
      "duration": 0.016,
      "velocity": 100,
      "chip": "ym2612"
    },
    {
      "channel": 1,
      "note": 55,
      "start": 58.4889,
      "duration": 0.0161,
      "velocity": 124,
      "chip": "ym2612"
    },
    {
      "channel": 4,
      "note": 76,
      "start": 58.4903,
      "duration": 0.0161,
      "velocity": 94,
      "chip": "ym2612"
    },
    {
      "channel": 3,
      "note": 76,
      "start": 58.4915,
      "duration": 0.0161,
      "velocity": 94,
      "chip": "ym2612"
    },
    {
      "channel": 2,
      "note": 57,
      "start": 58.4926,
      "duration": 0.0161,
      "velocity": 100,
      "chip": "ym2612"
    },
    {
      "channel": 1,
      "note": 53,
      "start": 58.505,
      "duration": 0.0161,
      "velocity": 124,
      "chip": "ym2612"
    },
    {
      "channel": 4,
      "note": 76,
      "start": 58.5064,
      "duration": 0.0161,
      "velocity": 94,
      "chip": "ym2612"
    },
    {
      "channel": 3,
      "note": 76,
      "start": 58.5076,
      "duration": 0.0161,
      "velocity": 94,
      "chip": "ym2612"
    },
    {
      "channel": 2,
      "note": 57,
      "start": 58.5087,
      "duration": 0.0161,
      "velocity": 100,
      "chip": "ym2612"
    },
    {
      "channel": 1,
      "note": 52,
      "start": 58.5211,
      "duration": 0.0161,
      "velocity": 124,
      "chip": "ym2612"
    },
    {
      "channel": 4,
      "note": 76,
      "start": 58.5225,
      "duration": 0.0203,
      "velocity": 94,
      "chip": "ym2612"
    },
    {
      "channel": 3,
      "note": 76,
      "start": 58.5237,
      "duration": 0.0208,
      "velocity": 94,
      "chip": "ym2612"
    },
    {
      "channel": 2,
      "note": 57,
      "start": 58.5248,
      "duration": 0.0211,
      "velocity": 100,
      "chip": "ym2612"
    },
    {
      "channel": 1,
      "note": 51,
      "start": 58.5372,
      "duration": 0.0153,
      "velocity": 1,
      "chip": "ym2612"
    },
    {
      "channel": 0,
      "note": 36,
      "start": 58.5414,
      "duration": 0.015,
      "velocity": 115,
      "chip": "ym2612"
    },
    {
      "channel": 4,
      "note": 76,
      "start": 58.5429,
      "duration": 0.0148,
      "velocity": 94,
      "chip": "ym2612"
    },
    {
      "channel": 3,
      "note": 76,
      "start": 58.5444,
      "duration": 0.0144,
      "velocity": 94,
      "chip": "ym2612"
    },
    {
      "channel": 2,
      "note": 57,
      "start": 58.5459,
      "duration": 0.0169,
      "velocity": 100,
      "chip": "ym2612"
    },
    {
      "channel": 1,
      "note": 51,
      "start": 58.5547,
      "duration": 0.0142,
      "velocity": 105,
      "chip": "ym2612"
    },
    {
      "channel": 0,
      "note": 36,
      "start": 58.5564,
      "duration": 0.0142,
      "velocity": 115,
      "chip": "ym2612"
    },
    {
      "channel": 4,
      "note": 76,
      "start": 58.5576,
      "duration": 0.0141,
      "velocity": 94,
      "chip": "ym2612"
    },
    {
      "channel": 3,
      "note": 76,
      "start": 58.5588,
      "duration": 0.0141,
      "velocity": 94,
      "chip": "ym2612"
    },
    {
      "channel": 2,
      "note": 57,
      "start": 58.5628,
      "duration": 0.0113,
      "velocity": 100,
      "chip": "ym2612"
    },
    {
      "channel": 1,
      "note": 105,
      "start": 58.5689,
      "duration": 0.0161,
      "velocity": 105,
      "chip": "ym2612"
    },
    {
      "channel": 0,
      "note": 37,
      "start": 58.5706,
      "duration": 0.0161,
      "velocity": 115,
      "chip": "ym2612"
    },
    {
      "channel": 4,
      "note": 76,
      "start": 58.5717,
      "duration": 0.0161,
      "velocity": 94,
      "chip": "ym2612"
    },
    {
      "channel": 3,
      "note": 76,
      "start": 58.5729,
      "duration": 0.0161,
      "velocity": 94,
      "chip": "ym2612"
    },
    {
      "channel": 2,
      "note": 57,
      "start": 58.574,
      "duration": 0.0161,
      "velocity": 100,
      "chip": "ym2612"
    },
    {
      "channel": 1,
      "note": 105,
      "start": 58.585,
      "duration": 0.0161,
      "velocity": 105,
      "chip": "ym2612"
    },
    {
      "channel": 0,
      "note": 37,
      "start": 58.5867,
      "duration": 0.0161,
      "velocity": 115,
      "chip": "ym2612"
    },
    {
      "channel": 4,
      "note": 76,
      "start": 58.5878,
      "duration": 0.0161,
      "velocity": 94,
      "chip": "ym2612"
    },
    {
      "channel": 3,
      "note": 76,
      "start": 58.589,
      "duration": 0.0161,
      "velocity": 94,
      "chip": "ym2612"
    },
    {
      "channel": 2,
      "note": 57,
      "start": 58.5901,
      "duration": 0.0161,
      "velocity": 100,
      "chip": "ym2612"
    },
    {
      "channel": 1,
      "note": 105,
      "start": 58.6011,
      "duration": 0.0161,
      "velocity": 105,
      "chip": "ym2612"
    },
    {
      "channel": 0,
      "note": 38,
      "start": 58.6028,
      "duration": 0.0161,
      "velocity": 115,
      "chip": "ym2612"
    },
    {
      "channel": 4,
      "note": 76,
      "start": 58.6039,
      "duration": 0.0162,
      "velocity": 94,
      "chip": "ym2612"
    },
    {
      "channel": 3,
      "note": 76,
      "start": 58.6051,
      "duration": 0.0161,
      "velocity": 94,
      "chip": "ym2612"
    },
    {
      "channel": 2,
      "note": 57,
      "start": 58.6062,
      "duration": 0.0161,
      "velocity": 100,
      "chip": "ym2612"
    },
    {
      "channel": 1,
      "note": 105,
      "start": 58.6172,
      "duration": 0.0161,
      "velocity": 105,
      "chip": "ym2612"
    },
    {
      "channel": 0,
      "note": 38,
      "start": 58.6189,
      "duration": 0.0161,
      "velocity": 115,
      "chip": "ym2612"
    },
    {
      "channel": 4,
      "note": 76,
      "start": 58.6201,
      "duration": 0.0161,
      "velocity": 94,
      "chip": "ym2612"
    },
    {
      "channel": 3,
      "note": 76,
      "start": 58.6212,
      "duration": 0.0161,
      "velocity": 94,
      "chip": "ym2612"
    },
    {
      "channel": 2,
      "note": 57,
      "start": 58.6223,
      "duration": 0.0161,
      "velocity": 100,
      "chip": "ym2612"
    },
    {
      "channel": 1,
      "note": 105,
      "start": 58.6333,
      "duration": 0.0178,
      "velocity": 124,
      "chip": "ym2612"
    },
    {
      "channel": 0,
      "note": 39,
      "start": 58.635,
      "duration": 0.0197,
      "velocity": 115,
      "chip": "ym2612"
    },
    {
      "channel": 4,
      "note": 76,
      "start": 58.6362,
      "duration": 0.0198,
      "velocity": 94,
      "chip": "ym2612"
    },
    {
      "channel": 3,
      "note": 76,
      "start": 58.6373,
      "duration": 0.0201,
      "velocity": 94,
      "chip": "ym2612"
    },
    {
      "channel": 2,
      "note": 57,
      "start": 58.6384,
      "duration": 0.0205,
      "velocity": 100,
      "chip": "ym2612"
    },
    {
      "channel": 1,
      "note": 64,
      "start": 58.6512,
      "duration": 0.0145,
      "velocity": 124,
      "chip": "ym2612"
    },
    {
      "channel": 0,
      "note": 36,
      "start": 58.6546,
      "duration": 0.0128,
      "velocity": 115,
      "chip": "ym2612"
    },
    {
      "channel": 4,
      "note": 81,
      "start": 58.6561,
      "duration": 0.0125,
      "velocity": 94,
      "chip": "ym2612"
    },
    {
      "channel": 3,
      "note": 76,
      "start": 58.6575,
      "duration": 0.0124,
      "velocity": 94,
      "chip": "ym2612"
    },
    {
      "channel": 2,
      "note": 57,
      "start": 58.6589,
      "duration": 0.0122,
      "velocity": 100,
      "chip": "ym2612"
    },
    {
      "channel": 1,
      "note": 64,
      "start": 58.6657,
      "duration": 0.0159,
      "velocity": 124,
      "chip": "ym2612"
    },
    {
      "channel": 0,
      "note": 36,
      "start": 58.6674,
      "duration": 0.0159,
      "velocity": 115,
      "chip": "ym2612"
    },
    {
      "channel": 4,
      "note": 81,
      "start": 58.6686,
      "duration": 0.0159,
      "velocity": 94,
      "chip": "ym2612"
    },
    {
      "channel": 3,
      "note": 76,
      "start": 58.6698,
      "duration": 0.0158,
      "velocity": 94,
      "chip": "ym2612"
    },
    {
      "channel": 2,
      "note": 57,
      "start": 58.671,
      "duration": 0.0157,
      "velocity": 100,
      "chip": "ym2612"
    },
    {
      "channel": 1,
      "note": 64,
      "start": 58.6816,
      "duration": 0.0161,
      "velocity": 124,
      "chip": "ym2612"
    },
    {
      "channel": 0,
      "note": 37,
      "start": 58.6833,
      "duration": 0.0161,
      "velocity": 115,
      "chip": "ym2612"
    },
    {
      "channel": 4,
      "note": 81,
      "start": 58.6845,
      "duration": 0.0161,
      "velocity": 94,
      "chip": "ym2612"
    },
    {
      "channel": 3,
      "note": 76,
      "start": 58.6856,
      "duration": 0.0161,
      "velocity": 94,
      "chip": "ym2612"
    },
    {
      "channel": 2,
      "note": 57,
      "start": 58.6868,
      "duration": 0.0161,
      "velocity": 100,
      "chip": "ym2612"
    },
    {
      "channel": 1,
      "note": 64,
      "start": 58.6977,
      "duration": 0.0163,
      "velocity": 124,
      "chip": "ym2612"
    },
    {
      "channel": 0,
      "note": 37,
      "start": 58.6994,
      "duration": 0.0162,
      "velocity": 115,
      "chip": "ym2612"
    },
    {
      "channel": 4,
      "note": 81,
      "start": 58.7006,
      "duration": 0.0162,
      "velocity": 94,
      "chip": "ym2612"
    },
    {
      "channel": 3,
      "note": 76,
      "start": 58.7017,
      "duration": 0.0162,
      "velocity": 94,
      "chip": "ym2612"
    },
    {
      "channel": 2,
      "note": 57,
      "start": 58.7029,
      "duration": 0.0162,
      "velocity": 100,
      "chip": "ym2612"
    },
    {
      "channel": 1,
      "note": 64,
      "start": 58.714,
      "duration": 0.0163,
      "velocity": 124,
      "chip": "ym2612"
    },
    {
      "channel": 0,
      "note": 38,
      "start": 58.7156,
      "duration": 0.0163,
      "velocity": 115,
      "chip": "ym2612"
    },
    {
      "channel": 4,
      "note": 81,
      "start": 58.7168,
      "duration": 0.0163,
      "velocity": 94,
      "chip": "ym2612"
    },
    {
      "channel": 3,
      "note": 76,
      "start": 58.7179,
      "duration": 0.0163,
      "velocity": 94,
      "chip": "ym2612"
    },
    {
      "channel": 2,
      "note": 57,
      "start": 58.7191,
      "duration": 0.0163,
      "velocity": 100,
      "chip": "ym2612"
    },
    {
      "channel": 1,
      "note": 64,
      "start": 58.7303,
      "duration": 0.0158,
      "velocity": 124,
      "chip": "ym2612"
    },
    {
      "channel": 0,
      "note": 38,
      "start": 58.7319,
      "duration": 0.0158,
      "velocity": 115,
      "chip": "ym2612"
    },
    {
      "channel": 4,
      "note": 81,
      "start": 58.7331,
      "duration": 0.0158,
      "velocity": 94,
      "chip": "ym2612"
    },
    {
      "channel": 3,
      "note": 76,
      "start": 58.7343,
      "duration": 0.0158,
      "velocity": 94,
      "chip": "ym2612"
    },
    {
      "channel": 2,
      "note": 57,
      "start": 58.7354,
      "duration": 0.0158,
      "velocity": 100,
      "chip": "ym2612"
    },
    {
      "channel": 1,
      "note": 64,
      "start": 58.746,
      "duration": 0.0196,
      "velocity": 105,
      "chip": "ym2612"
    },
    {
      "channel": 0,
      "note": 39,
      "start": 58.7477,
      "duration": 0.0197,
      "velocity": 115,
      "chip": "ym2612"
    },
    {
      "channel": 4,
      "note": 81,
      "start": 58.7489,
      "duration": 0.0197,
      "velocity": 94,
      "chip": "ym2612"
    },
    {
      "channel": 3,
      "note": 76,
      "start": 58.75,
      "duration": 0.02,
      "velocity": 94,
      "chip": "ym2612"
    },
    {
      "channel": 2,
      "note": 57,
      "start": 58.7511,
      "duration": 0.0203,
      "velocity": 100,
      "chip": "ym2612"
    },
    {
      "channel": 1,
      "note": 105,
      "start": 58.7657,
      "duration": 0.015,
      "velocity": 105,
      "chip": "ym2612"
    },
    {
      "channel": 0,
      "note": 39,
      "start": 58.7673,
      "duration": 0.015,
      "velocity": 115,
      "chip": "ym2612"
    },
    {
      "channel": 4,
      "note": 81,
      "start": 58.7686,
      "duration": 0.015,
      "velocity": 94,
      "chip": "ym2612"
    },
    {
      "channel": 3,
      "note": 81,
      "start": 58.77,
      "duration": 0.0148,
      "velocity": 94,
      "chip": "ym2612"
    },
    {
      "channel": 2,
      "note": 57,
      "start": 58.7715,
      "duration": 0.0144,
      "velocity": 100,
      "chip": "ym2612"
    },
    {
      "channel": 1,
      "note": 105,
      "start": 58.7807,
      "duration": 0.016,
      "velocity": 105,
      "chip": "ym2612"
    },
    {
      "channel": 0,
      "note": 40,
      "start": 58.7824,
      "duration": 0.016,
      "velocity": 115,
      "chip": "ym2612"
    },
    {
      "channel": 4,
      "note": 81,
      "start": 58.7836,
      "duration": 0.016,
      "velocity": 94,
      "chip": "ym2612"
    },
    {
      "channel": 3,
      "note": 81,
      "start": 58.7848,
      "duration": 0.0159,
      "velocity": 94,
      "chip": "ym2612"
    },
    {
      "channel": 2,
      "note": 57,
      "start": 58.7859,
      "duration": 0.0159,
      "velocity": 100,
      "chip": "ym2612"
    },
    {
      "channel": 1,
      "note": 105,
      "start": 58.7967,
      "duration": 0.0141,
      "velocity": 105,
      "chip": "ym2612"
    },
    {
      "channel": 0,
      "note": 40,
      "start": 58.7984,
      "duration": 0.014,
      "velocity": 115,
      "chip": "ym2612"
    },
    {
      "channel": 4,
      "note": 81,
      "start": 58.7995,
      "duration": 0.0141,
      "velocity": 94,
      "chip": "ym2612"
    },
    {
      "channel": 3,
      "note": 81,
      "start": 58.8007,
      "duration": 0.0141,
      "velocity": 94,
      "chip": "ym2612"
    },
    {
      "channel": 2,
      "note": 57,
      "start": 58.8018,
      "duration": 0.014,
      "velocity": 100,
      "chip": "ym2612"
    },
    {
      "channel": 1,
      "note": 105,
      "start": 58.8107,
      "duration": 0.0185,
      "velocity": 105,
      "chip": "ym2612"
    },
    {
      "channel": 0,
      "note": 40,
      "start": 58.8124,
      "duration": 0.0186,
      "velocity": 115,
      "chip": "ym2612"
    },
    {
      "channel": 4,
      "note": 81,
      "start": 58.8136,
      "duration": 0.0185,
      "velocity": 94,
      "chip": "ym2612"
    },
    {
      "channel": 3,
      "note": 81,
      "start": 58.8147,
      "duration": 0.0185,
      "velocity": 94,
      "chip": "ym2612"
    },
    {
      "channel": 2,
      "note": 57,
      "start": 58.8158,
      "duration": 0.0186,
      "velocity": 100,
      "chip": "ym2612"
    },
    {
      "channel": 1,
      "note": 105,
      "start": 58.8293,
      "duration": 0.0134,
      "velocity": 105,
      "chip": "ym2612"
    },
    {
      "channel": 0,
      "note": 41,
      "start": 58.831,
      "duration": 0.0161,
      "velocity": 115,
      "chip": "ym2612"
    },
    {
      "channel": 4,
      "note": 81,
      "start": 58.8321,
      "duration": 0.0161,
      "velocity": 94,
      "chip": "ym2612"
    },
    {
      "channel": 3,
      "note": 81,
      "start": 58.8333,
      "duration": 0.0161,
      "velocity": 94,
      "chip": "ym2612"
    },
    {
      "channel": 2,
      "note": 57,
      "start": 58.8344,
      "duration": 0.0161,
      "velocity": 100,
      "chip": "ym2612"
    },
    {
      "channel": 1,
      "note": 105,
      "start": 58.8426,
      "duration": 0.0162,
      "velocity": 105,
      "chip": "ym2612"
    },
    {
      "channel": 0,
      "note": 41,
      "start": 58.8471,
      "duration": 0.0157,
      "velocity": 115,
      "chip": "ym2612"
    },
    {
      "channel": 4,
      "note": 81,
      "start": 58.8482,
      "duration": 0.0158,
      "velocity": 94,
      "chip": "ym2612"
    },
    {
      "channel": 3,
      "note": 81,
      "start": 58.8493,
      "duration": 0.0158,
      "velocity": 94,
      "chip": "ym2612"
    },
    {
      "channel": 2,
      "note": 57,
      "start": 58.8505,
      "duration": 0.0158,
      "velocity": 100,
      "chip": "ym2612"
    },
    {
      "channel": 1,
      "note": 105,
      "start": 58.8588,
      "duration": 0.0179,
      "velocity": 124,
      "chip": "ym2612"
    },
    {
      "channel": 0,
      "note": 42,
      "start": 58.8628,
      "duration": 0.0159,
      "velocity": 115,
      "chip": "ym2612"
    },
    {
      "channel": 4,
      "note": 81,
      "start": 58.864,
      "duration": 0.016,
      "velocity": 94,
      "chip": "ym2612"
    },
    {
      "channel": 3,
      "note": 81,
      "start": 58.8651,
      "duration": 0.0162,
      "velocity": 94,
      "chip": "ym2612"
    },
    {
      "channel": 2,
      "note": 57,
      "start": 58.8663,
      "duration": 0.0164,
      "velocity": 100,
      "chip": "ym2612"
    },
    {
      "channel": 1,
      "note": 64,
      "start": 58.8769,
      "duration": 0.0141,
      "velocity": 124,
      "chip": "ym2612"
    },
    {
      "channel": 0,
      "note": 42,
      "start": 58.8786,
      "duration": 0.0141,
      "velocity": 115,
      "chip": "ym2612"
    },
    {
      "channel": 4,
      "note": 81,
      "start": 58.88,
      "duration": 0.0167,
      "velocity": 94,
      "chip": "ym2612"
    },
    {
      "channel": 3,
      "note": 81,
      "start": 58.8813,
      "duration": 0.0165,
      "velocity": 94,
      "chip": "ym2612"
    },
    {
      "channel": 2,
      "note": 57,
      "start": 58.8827,
      "duration": 0.0163,
      "velocity": 100,
      "chip": "ym2612"
    },
    {
      "channel": 1,
      "note": 64,
      "start": 58.891,
      "duration": 0.016,
      "velocity": 124,
      "chip": "ym2612"
    },
    {
      "channel": 0,
      "note": 43,
      "start": 58.8927,
      "duration": 0.016,
      "velocity": 115,
      "chip": "ym2612"
    },
    {
      "channel": 4,
      "note": 81,
      "start": 58.8967,
      "duration": 0.016,
      "velocity": 94,
      "chip": "ym2612"
    },
    {
      "channel": 3,
      "note": 81,
      "start": 58.8978,
      "duration": 0.016,
      "velocity": 94,
      "chip": "ym2612"
    },
    {
      "channel": 2,
      "note": 57,
      "start": 58.899,
      "duration": 0.0159,
      "velocity": 100,
      "chip": "ym2612"
    },
    {
      "channel": 1,
      "note": 64,
      "start": 58.9071,
      "duration": 0.0161,
      "velocity": 124,
      "chip": "ym2612"
    },
    {
      "channel": 0,
      "note": 43,
      "start": 58.9087,
      "duration": 0.0161,
      "velocity": 115,
      "chip": "ym2612"
    },
    {
      "channel": 4,
      "note": 81,
      "start": 58.9127,
      "duration": 0.0134,
      "velocity": 94,
      "chip": "ym2612"
    },
    {
      "channel": 3,
      "note": 81,
      "start": 58.9138,
      "duration": 0.0157,
      "velocity": 94,
      "chip": "ym2612"
    },
    {
      "channel": 2,
      "note": 57,
      "start": 58.9149,
      "duration": 0.0157,
      "velocity": 100,
      "chip": "ym2612"
    },
    {
      "channel": 1,
      "note": 64,
      "start": 58.9232,
      "duration": 0.0161,
      "velocity": 124,
      "chip": "ym2612"
    },
    {
      "channel": 0,
      "note": 44,
      "start": 58.9248,
      "duration": 0.0161,
      "velocity": 115,
      "chip": "ym2612"
    },
    {
      "channel": 4,
      "note": 81,
      "start": 58.926,
      "duration": 0.0161,
      "velocity": 94,
      "chip": "ym2612"
    },
    {
      "channel": 3,
      "note": 81,
      "start": 58.9295,
      "duration": 0.0139,
      "velocity": 94,
      "chip": "ym2612"
    },
    {
      "channel": 2,
      "note": 57,
      "start": 58.9307,
      "duration": 0.014,
      "velocity": 100,
      "chip": "ym2612"
    },
    {
      "channel": 1,
      "note": 64,
      "start": 58.9392,
      "duration": 0.0161,
      "velocity": 124,
      "chip": "ym2612"
    },
    {
      "channel": 0,
      "note": 44,
      "start": 58.9409,
      "duration": 0.0161,
      "velocity": 115,
      "chip": "ym2612"
    },
    {
      "channel": 4,
      "note": 81,
      "start": 58.9421,
      "duration": 0.0161,
      "velocity": 94,
      "chip": "ym2612"
    },
    {
      "channel": 3,
      "note": 81,
      "start": 58.9434,
      "duration": 0.016,
      "velocity": 94,
      "chip": "ym2612"
    },
    {
      "channel": 2,
      "note": 57,
      "start": 58.9446,
      "duration": 0.0186,
      "velocity": 100,
      "chip": "ym2612"
    },
    {
      "channel": 1,
      "note": 64,
      "start": 58.9553,
      "duration": 0.0161,
      "velocity": 124,
      "chip": "ym2612"
    },
    {
      "channel": 0,
      "note": 44,
      "start": 58.957,
      "duration": 0.0162,
      "velocity": 115,
      "chip": "ym2612"
    },
    {
      "channel": 4,
      "note": 81,
      "start": 58.9582,
      "duration": 0.0161,
      "velocity": 94,
      "chip": "ym2612"
    },
    {
      "channel": 3,
      "note": 81,
      "start": 58.9593,
      "duration": 0.0161,
      "velocity": 94,
      "chip": "ym2612"
    },
    {
      "channel": 2,
      "note": 57,
      "start": 58.9632,
      "duration": 0.0161,
      "velocity": 100,
      "chip": "ym2612"
    },
    {
      "channel": 1,
      "note": 64,
      "start": 58.9714,
      "duration": 0.0178,
      "velocity": 105,
      "chip": "ym2612"
    },
    {
      "channel": 0,
      "note": 45,
      "start": 58.9732,
      "duration": 0.0178,
      "velocity": 115,
      "chip": "ym2612"
    },
    {
      "channel": 4,
      "note": 81,
      "start": 58.9743,
      "duration": 0.018,
      "velocity": 94,
      "chip": "ym2612"
    },
    {
      "channel": 3,
      "note": 81,
      "start": 58.9754,
      "duration": 0.0207,
      "velocity": 94,
      "chip": "ym2612"
    },
    {
      "channel": 2,
      "note": 57,
      "start": 58.9793,
      "duration": 0.0183,
      "velocity": 100,
      "chip": "ym2612"
    },
    {
      "channel": 1,
      "note": 105,
      "start": 58.9892,
      "duration": 0.0144,
      "velocity": 105,
      "chip": "ym2612"
    },
    {
      "channel": 0,
      "note": 45,
      "start": 58.991,
      "duration": 0.0144,
      "velocity": 115,
      "chip": "ym2612"
    },
    {
      "channel": 4,
      "note": 81,
      "start": 58.9924,
      "duration": 0.0142,
      "velocity": 94,
      "chip": "ym2612"
    },
    {
      "channel": 3,
      "note": 81,
      "start": 58.9962,
      "duration": 0.0116,
      "velocity": 94,
      "chip": "ym2612"
    },
    {
      "channel": 2,
      "note": 57,
      "start": 58.9976,
      "duration": 0.0114,
      "velocity": 100,
      "chip": "ym2612"
    },
    {
      "channel": 1,
      "note": 105,
      "start": 59.0037,
      "duration": 0.0161,
      "velocity": 105,
      "chip": "ym2612"
    },
    {
      "channel": 0,
      "note": 46,
      "start": 59.0054,
      "duration": 0.016,
      "velocity": 115,
      "chip": "ym2612"
    },
    {
      "channel": 4,
      "note": 81,
      "start": 59.0066,
      "duration": 0.016,
      "velocity": 94,
      "chip": "ym2612"
    },
    {
      "channel": 3,
      "note": 81,
      "start": 59.0078,
      "duration": 0.0159,
      "velocity": 94,
      "chip": "ym2612"
    },
    {
      "channel": 2,
      "note": 57,
      "start": 59.009,
      "duration": 0.0159,
      "velocity": 100,
      "chip": "ym2612"
    },
    {
      "channel": 1,
      "note": 105,
      "start": 59.0198,
      "duration": 0.0161,
      "velocity": 105,
      "chip": "ym2612"
    },
    {
      "channel": 0,
      "note": 46,
      "start": 59.0214,
      "duration": 0.0161,
      "velocity": 115,
      "chip": "ym2612"
    },
    {
      "channel": 4,
      "note": 81,
      "start": 59.0226,
      "duration": 0.0161,
      "velocity": 94,
      "chip": "ym2612"
    },
    {
      "channel": 3,
      "note": 81,
      "start": 59.0237,
      "duration": 0.0161,
      "velocity": 94,
      "chip": "ym2612"
    },
    {
      "channel": 2,
      "note": 57,
      "start": 59.0249,
      "duration": 0.0161,
      "velocity": 100,
      "chip": "ym2612"
    },
    {
      "channel": 1,
      "note": 105,
      "start": 59.0359,
      "duration": 0.0161,
      "velocity": 105,
      "chip": "ym2612"
    },
    {
      "channel": 0,
      "note": 47,
      "start": 59.0375,
      "duration": 0.0161,
      "velocity": 115,
      "chip": "ym2612"
    },
    {
      "channel": 4,
      "note": 81,
      "start": 59.0387,
      "duration": 0.0161,
      "velocity": 94,
      "chip": "ym2612"
    },
    {
      "channel": 3,
      "note": 81,
      "start": 59.0398,
      "duration": 0.0161,
      "velocity": 94,
      "chip": "ym2612"
    },
    {
      "channel": 2,
      "note": 57,
      "start": 59.041,
      "duration": 0.0161,
      "velocity": 100,
      "chip": "ym2612"
    },
    {
      "channel": 1,
      "note": 105,
      "start": 59.052,
      "duration": 0.0161,
      "velocity": 105,
      "chip": "ym2612"
    },
    {
      "channel": 0,
      "note": 47,
      "start": 59.0536,
      "duration": 0.0161,
      "velocity": 115,
      "chip": "ym2612"
    },
    {
      "channel": 4,
      "note": 81,
      "start": 59.0548,
      "duration": 0.0161,
      "velocity": 94,
      "chip": "ym2612"
    },
    {
      "channel": 3,
      "note": 81,
      "start": 59.0559,
      "duration": 0.0161,
      "velocity": 94,
      "chip": "ym2612"
    },
    {
      "channel": 2,
      "note": 57,
      "start": 59.0571,
      "duration": 0.0161,
      "velocity": 100,
      "chip": "ym2612"
    },
    {
      "channel": 1,
      "note": 105,
      "start": 59.068,
      "duration": 0.0161,
      "velocity": 105,
      "chip": "ym2612"
    },
    {
      "channel": 0,
      "note": 47,
      "start": 59.0697,
      "duration": 0.0161,
      "velocity": 115,
      "chip": "ym2612"
    },
    {
      "channel": 4,
      "note": 81,
      "start": 59.0709,
      "duration": 0.0161,
      "velocity": 94,
      "chip": "ym2612"
    },
    {
      "channel": 3,
      "note": 81,
      "start": 59.072,
      "duration": 0.0162,
      "velocity": 94,
      "chip": "ym2612"
    },
    {
      "channel": 2,
      "note": 57,
      "start": 59.0732,
      "duration": 0.0161,
      "velocity": 100,
      "chip": "ym2612"
    },
    {
      "channel": 1,
      "note": 105,
      "start": 59.0841,
      "duration": 0.0184,
      "velocity": 124,
      "chip": "ym2612"
    },
    {
      "channel": 0,
      "note": 48,
      "start": 59.0858,
      "duration": 0.0191,
      "velocity": 115,
      "chip": "ym2612"
    },
    {
      "channel": 4,
      "note": 81,
      "start": 59.087,
      "duration": 0.0192,
      "velocity": 94,
      "chip": "ym2612"
    },
    {
      "channel": 3,
      "note": 81,
      "start": 59.0882,
      "duration": 0.0195,
      "velocity": 94,
      "chip": "ym2612"
    },
    {
      "channel": 2,
      "note": 57,
      "start": 59.0892,
      "duration": 0.0198,
      "velocity": 100,
      "chip": "ym2612"
    },
    {
      "channel": 1,
      "note": 78,
      "start": 59.1025,
      "duration": 0.0144,
      "velocity": 124,
      "chip": "ym2612"
    },
    {
      "channel": 0,
      "note": 48,
      "start": 59.1049,
      "duration": 0.0139,
      "velocity": 115,
      "chip": "ym2612"
    },
    {
      "channel": 4,
      "note": 81,
      "start": 59.1062,
      "duration": 0.0138,
      "velocity": 94,
      "chip": "ym2612"
    },
    {
      "channel": 3,
      "note": 81,
      "start": 59.1076,
      "duration": 0.0136,
      "velocity": 94,
      "chip": "ym2612"
    },
    {
      "channel": 2,
      "note": 57,
      "start": 59.1091,
      "duration": 0.0134,
      "velocity": 100,
      "chip": "ym2612"
    },
    {
      "channel": 1,
      "note": 76,
      "start": 59.1169,
      "duration": 0.016,
      "velocity": 124,
      "chip": "ym2612"
    },
    {
      "channel": 0,
      "note": 49,
      "start": 59.1188,
      "duration": 0.0152,
      "velocity": 1,
      "chip": "ym2612"
    },
    {
      "channel": 4,
      "note": 81,
      "start": 59.12,
      "duration": 0.0151,
      "velocity": 94,
      "chip": "ym2612"
    },
    {
      "channel": 3,
      "note": 81,
      "start": 59.1212,
      "duration": 0.0151,
      "velocity": 94,
      "chip": "ym2612"
    },
    {
      "channel": 2,
      "note": 57,
      "start": 59.1224,
      "duration": 0.015,
      "velocity": 100,
      "chip": "ym2612"
    },
    {
      "channel": 1,
      "note": 75,
      "start": 59.1329,
      "duration": 0.0161,
      "velocity": 124,
      "chip": "ym2612"
    },
    {
      "channel": 4,
      "note": 81,
      "start": 59.1352,
      "duration": 0.0153,
      "velocity": 94,
      "chip": "ym2612"
    },
    {
      "channel": 3,
      "note": 81,
      "start": 59.1363,
      "duration": 0.0153,
      "velocity": 94,
      "chip": "ym2612"
    },
    {
      "channel": 2,
      "note": 57,
      "start": 59.1375,
      "duration": 0.0153,
      "velocity": 100,
      "chip": "ym2612"
    },
    {
      "channel": 1,
      "note": 74,
      "start": 59.149,
      "duration": 0.0161,
      "velocity": 124,
      "chip": "ym2612"
    },
    {
      "channel": 4,
      "note": 81,
      "start": 59.1504,
      "duration": 0.0161,
      "velocity": 94,
      "chip": "ym2612"
    },
    {
      "channel": 3,
      "note": 81,
      "start": 59.1516,
      "duration": 0.0161,
      "velocity": 94,
      "chip": "ym2612"
    },
    {
      "channel": 2,
      "note": 57,
      "start": 59.1527,
      "duration": 0.0161,
      "velocity": 100,
      "chip": "ym2612"
    },
    {
      "channel": 1,
      "note": 72,
      "start": 59.1651,
      "duration": 0.0161,
      "velocity": 124,
      "chip": "ym2612"
    },
    {
      "channel": 4,
      "note": 81,
      "start": 59.1665,
      "duration": 0.0161,
      "velocity": 94,
      "chip": "ym2612"
    },
    {
      "channel": 3,
      "note": 81,
      "start": 59.1677,
      "duration": 0.0161,
      "velocity": 94,
      "chip": "ym2612"
    },
    {
      "channel": 2,
      "note": 57,
      "start": 59.1688,
      "duration": 0.0161,
      "velocity": 100,
      "chip": "ym2612"
    },
    {
      "channel": 1,
      "note": 71,
      "start": 59.1812,
      "duration": 0.0162,
      "velocity": 124,
      "chip": "ym2612"
    },
    {
      "channel": 4,
      "note": 81,
      "start": 59.1826,
      "duration": 0.0162,
      "velocity": 94,
      "chip": "ym2612"
    },
    {
      "channel": 3,
      "note": 81,
      "start": 59.1838,
      "duration": 0.0162,
      "velocity": 94,
      "chip": "ym2612"
    },
    {
      "channel": 2,
      "note": 57,
      "start": 59.1849,
      "duration": 0.0162,
      "velocity": 100,
      "chip": "ym2612"
    },
    {
      "channel": 1,
      "note": 70,
      "start": 59.1974,
      "duration": 0.016,
      "velocity": 124,
      "chip": "ym2612"
    },
    {
      "channel": 4,
      "note": 81,
      "start": 59.1988,
      "duration": 0.0167,
      "velocity": 94,
      "chip": "ym2612"
    },
    {
      "channel": 3,
      "note": 81,
      "start": 59.2,
      "duration": 0.0169,
      "velocity": 94,
      "chip": "ym2612"
    },
    {
      "channel": 2,
      "note": 57,
      "start": 59.2011,
      "duration": 0.0172,
      "velocity": 100,
      "chip": "ym2612"
    },
    {
      "channel": 1,
      "note": 69,
      "start": 59.2135,
      "duration": 0.0176,
      "velocity": 124,
      "chip": "ym2612"
    },
    {
      "channel": 4,
      "note": 76,
      "start": 59.2156,
      "duration": 0.017,
      "velocity": 94,
      "chip": "ym2612"
    },
    {
      "channel": 3,
      "note": 81,
      "start": 59.2169,
      "duration": 0.0169,
      "velocity": 94,
      "chip": "ym2612"
    },
    {
      "channel": 2,
      "note": 57,
      "start": 59.2184,
      "duration": 0.0166,
      "velocity": 100,
      "chip": "ym2612"
    },
    {
      "channel": 1,
      "note": 68,
      "start": 59.2311,
      "duration": 0.0167,
      "velocity": 124,
      "chip": "ym2612"
    },
    {
      "channel": 4,
      "note": 76,
      "start": 59.2326,
      "duration": 0.0165,
      "velocity": 94,
      "chip": "ym2612"
    },
    {
      "channel": 3,
      "note": 81,
      "start": 59.2338,
      "duration": 0.0165,
      "velocity": 94,
      "chip": "ym2612"
    },
    {
      "channel": 2,
      "note": 57,
      "start": 59.235,
      "duration": 0.0165,
      "velocity": 100,
      "chip": "ym2612"
    },
    {
      "channel": 1,
      "note": 66,
      "start": 59.2478,
      "duration": 0.0163,
      "velocity": 124,
      "chip": "ym2612"
    },
    {
      "channel": 4,
      "note": 76,
      "start": 59.2492,
      "duration": 0.0163,
      "velocity": 94,
      "chip": "ym2612"
    },
    {
      "channel": 3,
      "note": 81,
      "start": 59.2503,
      "duration": 0.0163,
      "velocity": 94,
      "chip": "ym2612"
    },
    {
      "channel": 2,
      "note": 57,
      "start": 59.2515,
      "duration": 0.0163,
      "velocity": 100,
      "chip": "ym2612"
    },
    {
      "channel": 1,
      "note": 65,
      "start": 59.2641,
      "duration": 0.0141,
      "velocity": 124,
      "chip": "ym2612"
    },
    {
      "channel": 4,
      "note": 76,
      "start": 59.2655,
      "duration": 0.0141,
      "velocity": 94,
      "chip": "ym2612"
    },
    {
      "channel": 3,
      "note": 81,
      "start": 59.2666,
      "duration": 0.0141,
      "velocity": 94,
      "chip": "ym2612"
    },
    {
      "channel": 2,
      "note": 57,
      "start": 59.2677,
      "duration": 0.0141,
      "velocity": 100,
      "chip": "ym2612"
    },
    {
      "channel": 1,
      "note": 64,
      "start": 59.2782,
      "duration": 0.0185,
      "velocity": 124,
      "chip": "ym2612"
    },
    {
      "channel": 4,
      "note": 76,
      "start": 59.2796,
      "duration": 0.0185,
      "velocity": 94,
      "chip": "ym2612"
    },
    {
      "channel": 3,
      "note": 81,
      "start": 59.2807,
      "duration": 0.0185,
      "velocity": 94,
      "chip": "ym2612"
    },
    {
      "channel": 2,
      "note": 57,
      "start": 59.2819,
      "duration": 0.0185,
      "velocity": 100,
      "chip": "ym2612"
    },
    {
      "channel": 1,
      "note": 62,
      "start": 59.2967,
      "duration": 0.0161,
      "velocity": 124,
      "chip": "ym2612"
    },
    {
      "channel": 4,
      "note": 76,
      "start": 59.2981,
      "duration": 0.0162,
      "velocity": 94,
      "chip": "ym2612"
    },
    {
      "channel": 3,
      "note": 81,
      "start": 59.2992,
      "duration": 0.0161,
      "velocity": 94,
      "chip": "ym2612"
    },
    {
      "channel": 2,
      "note": 57,
      "start": 59.3004,
      "duration": 0.0161,
      "velocity": 100,
      "chip": "ym2612"
    },
    {
      "channel": 1,
      "note": 61,
      "start": 59.3128,
      "duration": 0.0133,
      "velocity": 124,
      "chip": "ym2612"
    },
    {
      "channel": 4,
      "note": 76,
      "start": 59.3142,
      "duration": 0.0163,
      "velocity": 94,
      "chip": "ym2612"
    },
    {
      "channel": 3,
      "note": 81,
      "start": 59.3153,
      "duration": 0.0166,
      "velocity": 94,
      "chip": "ym2612"
    },
    {
      "channel": 2,
      "note": 57,
      "start": 59.3165,
      "duration": 0.0169,
      "velocity": 100,
      "chip": "ym2612"
    },
    {
      "channel": 1,
      "note": 60,
      "start": 59.3261,
      "duration": 0.0162,
      "velocity": 124,
      "chip": "ym2612"
    },
    {
      "channel": 4,
      "note": 76,
      "start": 59.3306,
      "duration": 0.0135,
      "velocity": 94,
      "chip": "ym2612"
    },
    {
      "channel": 3,
      "note": 76,
      "start": 59.332,
      "duration": 0.0133,
      "velocity": 94,
      "chip": "ym2612"
    },
    {
      "channel": 2,
      "note": 50,
      "start": 59.3334,
      "duration": 0.013,
      "velocity": 100,
      "chip": "ym2612"
    },
    {
      "channel": 1,
      "note": 59,
      "start": 59.3423,
      "duration": 0.0161,
      "velocity": 124,
      "chip": "ym2612"
    },
    {
      "channel": 4,
      "note": 76,
      "start": 59.3441,
      "duration": 0.0156,
      "velocity": 94,
      "chip": "ym2612"
    },
    {
      "channel": 3,
      "note": 76,
      "start": 59.3453,
      "duration": 0.0184,
      "velocity": 94,
      "chip": "ym2612"
    },
    {
      "channel": 2,
      "note": 50,
      "start": 59.3465,
      "duration": 0.0183,
      "velocity": 100,
      "chip": "ym2612"
    },
    {
      "channel": 1,
      "note": 57,
      "start": 59.3584,
      "duration": 0.0161,
      "velocity": 124,
      "chip": "ym2612"
    },
    {
      "channel": 4,
      "note": 76,
      "start": 59.3597,
      "duration": 0.0161,
      "velocity": 94,
      "chip": "ym2612"
    },
    {
      "channel": 3,
      "note": 76,
      "start": 59.3637,
      "duration": 0.0161,
      "velocity": 94,
      "chip": "ym2612"
    },
    {
      "channel": 2,
      "note": 50,
      "start": 59.3647,
      "duration": 0.0162,
      "velocity": 100,
      "chip": "ym2612"
    },
    {
      "channel": 1,
      "note": 56,
      "start": 59.3745,
      "duration": 0.0161,
      "velocity": 124,
      "chip": "ym2612"
    },
    {
      "channel": 4,
      "note": 76,
      "start": 59.3759,
      "duration": 0.0161,
      "velocity": 94,
      "chip": "ym2612"
    },
    {
      "channel": 3,
      "note": 76,
      "start": 59.3798,
      "duration": 0.0134,
      "velocity": 94,
      "chip": "ym2612"
    },
    {
      "channel": 2,
      "note": 50,
      "start": 59.3809,
      "duration": 0.0157,
      "velocity": 100,
      "chip": "ym2612"
    },
    {
      "channel": 1,
      "note": 55,
      "start": 59.3906,
      "duration": 0.0161,
      "velocity": 124,
      "chip": "ym2612"
    },
    {
      "channel": 4,
      "note": 76,
      "start": 59.392,
      "duration": 0.0161,
      "velocity": 94,
      "chip": "ym2612"
    },
    {
      "channel": 3,
      "note": 76,
      "start": 59.3931,
      "duration": 0.0161,
      "velocity": 94,
      "chip": "ym2612"
    },
    {
      "channel": 2,
      "note": 50,
      "start": 59.3966,
      "duration": 0.0141,
      "velocity": 100,
      "chip": "ym2612"
    },
    {
      "channel": 1,
      "note": 53,
      "start": 59.4067,
      "duration": 0.0161,
      "velocity": 124,
      "chip": "ym2612"
    },
    {
      "channel": 4,
      "note": 76,
      "start": 59.4081,
      "duration": 0.0161,
      "velocity": 94,
      "chip": "ym2612"
    },
    {
      "channel": 3,
      "note": 76,
      "start": 59.4092,
      "duration": 0.0161,
      "velocity": 94,
      "chip": "ym2612"
    },
    {
      "channel": 2,
      "note": 50,
      "start": 59.4107,
      "duration": 0.0158,
      "velocity": 100,
      "chip": "ym2612"
    },
    {
      "channel": 1,
      "note": 52,
      "start": 59.4228,
      "duration": 0.0161,
      "velocity": 124,
      "chip": "ym2612"
    },
    {
      "channel": 4,
      "note": 76,
      "start": 59.4241,
      "duration": 0.0231,
      "velocity": 94,
      "chip": "ym2612"
    },
    {
      "channel": 3,
      "note": 76,
      "start": 59.4253,
      "duration": 0.0233,
      "velocity": 94,
      "chip": "ym2612"
    },
    {
      "channel": 2,
      "note": 50,
      "start": 59.4264,
      "duration": 0.0235,
      "velocity": 100,
      "chip": "ym2612"
    },
    {
      "channel": 1,
      "note": 51,
      "start": 59.4388,
      "duration": 0.0154,
      "velocity": 1,
      "chip": "ym2612"
    },
    {
      "channel": 0,
      "note": 78,
      "start": 59.4431,
      "duration": 0.015,
      "velocity": 127,
      "chip": "ym2612"
    },
    {
      "channel": 4,
      "note": 76,
      "start": 59.4473,
      "duration": 0.012,
      "velocity": 94,
      "chip": "ym2612"
    },
    {
      "channel": 3,
      "note": 76,
      "start": 59.4486,
      "duration": 0.0142,
      "velocity": 94,
      "chip": "ym2612"
    },
    {
      "channel": 2,
      "note": 50,
      "start": 59.45,
      "duration": 0.0141,
      "velocity": 100,
      "chip": "ym2612"
    },
    {
      "channel": 1,
      "note": 51,
      "start": 59.4563,
      "duration": 0.0142,
      "velocity": 105,
      "chip": "ym2612"
    },
    {
      "channel": 0,
      "note": 76,
      "start": 59.4581,
      "duration": 0.0142,
      "velocity": 127,
      "chip": "ym2612"
    },
    {
      "channel": 4,
      "note": 76,
      "start": 59.4593,
      "duration": 0.0141,
      "velocity": 94,
      "chip": "ym2612"
    },
    {
      "channel": 3,
      "note": 76,
      "start": 59.4628,
      "duration": 0.0117,
      "velocity": 94,
      "chip": "ym2612"
    },
    {
      "channel": 2,
      "note": 50,
      "start": 59.464,
      "duration": 0.0117,
      "velocity": 100,
      "chip": "ym2612"
    },
    {
      "channel": 1,
      "note": 105,
      "start": 59.4706,
      "duration": 0.0161,
      "velocity": 105,
      "chip": "ym2612"
    },
    {
      "channel": 0,
      "note": 75,
      "start": 59.4722,
      "duration": 0.0161,
      "velocity": 127,
      "chip": "ym2612"
    },
    {
      "channel": 4,
      "note": 76,
      "start": 59.4734,
      "duration": 0.0161,
      "velocity": 94,
      "chip": "ym2612"
    },
    {
      "channel": 3,
      "note": 76,
      "start": 59.4745,
      "duration": 0.0161,
      "velocity": 94,
      "chip": "ym2612"
    },
    {
      "channel": 2,
      "note": 50,
      "start": 59.4757,
      "duration": 0.0161,
      "velocity": 100,
      "chip": "ym2612"
    },
    {
      "channel": 1,
      "note": 105,
      "start": 59.4867,
      "duration": 0.0161,
      "velocity": 105,
      "chip": "ym2612"
    },
    {
      "channel": 0,
      "note": 73,
      "start": 59.4883,
      "duration": 0.0161,
      "velocity": 127,
      "chip": "ym2612"
    },
    {
      "channel": 4,
      "note": 76,
      "start": 59.4895,
      "duration": 0.0161,
      "velocity": 94,
      "chip": "ym2612"
    },
    {
      "channel": 3,
      "note": 76,
      "start": 59.4906,
      "duration": 0.0161,
      "velocity": 94,
      "chip": "ym2612"
    },
    {
      "channel": 2,
      "note": 50,
      "start": 59.4918,
      "duration": 0.0161,
      "velocity": 100,
      "chip": "ym2612"
    },
    {
      "channel": 1,
      "note": 105,
      "start": 59.5028,
      "duration": 0.0161,
      "velocity": 105,
      "chip": "ym2612"
    },
    {
      "channel": 0,
      "note": 71,
      "start": 59.5044,
      "duration": 0.0161,
      "velocity": 127,
      "chip": "ym2612"
    },
    {
      "channel": 4,
      "note": 76,
      "start": 59.5056,
      "duration": 0.0161,
      "velocity": 94,
      "chip": "ym2612"
    },
    {
      "channel": 3,
      "note": 76,
      "start": 59.5067,
      "duration": 0.0161,
      "velocity": 94,
      "chip": "ym2612"
    },
    {
      "channel": 2,
      "note": 50,
      "start": 59.5079,
      "duration": 0.0161,
      "velocity": 100,
      "chip": "ym2612"
    },
    {
      "channel": 1,
      "note": 105,
      "start": 59.5189,
      "duration": 0.0161,
      "velocity": 105,
      "chip": "ym2612"
    },
    {
      "channel": 0,
      "note": 70,
      "start": 59.5205,
      "duration": 0.0161,
      "velocity": 127,
      "chip": "ym2612"
    },
    {
      "channel": 4,
      "note": 76,
      "start": 59.5217,
      "duration": 0.0161,
      "velocity": 94,
      "chip": "ym2612"
    },
    {
      "channel": 3,
      "note": 76,
      "start": 59.5228,
      "duration": 0.0161,
      "velocity": 94,
      "chip": "ym2612"
    },
    {
      "channel": 2,
      "note": 50,
      "start": 59.524,
      "duration": 0.0161,
      "velocity": 100,
      "chip": "ym2612"
    },
    {
      "channel": 1,
      "note": 105,
      "start": 59.535,
      "duration": 0.0178,
      "velocity": 124,
      "chip": "ym2612"
    },
    {
      "channel": 0,
      "note": 68,
      "start": 59.5366,
      "duration": 0.0197,
      "velocity": 115,
      "chip": "ym2612"
    },
    {
      "channel": 4,
      "note": 76,
      "start": 59.5378,
      "duration": 0.0198,
      "velocity": 94,
      "chip": "ym2612"
    },
    {
      "channel": 3,
      "note": 76,
      "start": 59.5389,
      "duration": 0.02,
      "velocity": 94,
      "chip": "ym2612"
    },
    {
      "channel": 2,
      "note": 50,
      "start": 59.5401,
      "duration": 0.023,
      "velocity": 100,
      "chip": "ym2612"
    },
    {
      "channel": 1,
      "note": 64,
      "start": 59.5529,
      "duration": 0.0147,
      "velocity": 124,
      "chip": "ym2612"
    },
    {
      "channel": 0,
      "note": 36,
      "start": 59.5563,
      "duration": 0.013,
      "velocity": 115,
      "chip": "ym2612"
    },
    {
      "channel": 4,
      "note": 76,
      "start": 59.5576,
      "duration": 0.0129,
      "velocity": 94,
      "chip": "ym2612"
    },
    {
      "channel": 3,
      "note": 76,
      "start": 59.559,
      "duration": 0.0127,
      "velocity": 94,
      "chip": "ym2612"
    },
    {
      "channel": 2,
      "note": 52,
      "start": 59.5632,
      "duration": 0.0098,
      "velocity": 100,
      "chip": "ym2612"
    },
    {
      "channel": 1,
      "note": 64,
      "start": 59.5676,
      "duration": 0.0157,
      "velocity": 124,
      "chip": "ym2612"
    },
    {
      "channel": 0,
      "note": 36,
      "start": 59.5693,
      "duration": 0.0156,
      "velocity": 115,
      "chip": "ym2612"
    },
    {
      "channel": 4,
      "note": 76,
      "start": 59.5705,
      "duration": 0.0156,
      "velocity": 94,
      "chip": "ym2612"
    },
    {
      "channel": 3,
      "note": 76,
      "start": 59.5717,
      "duration": 0.0155,
      "velocity": 94,
      "chip": "ym2612"
    },
    {
      "channel": 2,
      "note": 52,
      "start": 59.5729,
      "duration": 0.0155,
      "velocity": 100,
      "chip": "ym2612"
    },
    {
      "channel": 1,
      "note": 64,
      "start": 59.5833,
      "duration": 0.0161,
      "velocity": 124,
      "chip": "ym2612"
    },
    {
      "channel": 0,
      "note": 37,
      "start": 59.585,
      "duration": 0.0161,
      "velocity": 115,
      "chip": "ym2612"
    },
    {
      "channel": 4,
      "note": 76,
      "start": 59.5861,
      "duration": 0.0161,
      "velocity": 94,
      "chip": "ym2612"
    },
    {
      "channel": 3,
      "note": 76,
      "start": 59.5873,
      "duration": 0.0161,
      "velocity": 94,
      "chip": "ym2612"
    },
    {
      "channel": 2,
      "note": 52,
      "start": 59.5884,
      "duration": 0.0161,
      "velocity": 100,
      "chip": "ym2612"
    },
    {
      "channel": 1,
      "note": 64,
      "start": 59.5994,
      "duration": 0.0161,
      "velocity": 124,
      "chip": "ym2612"
    },
    {
      "channel": 0,
      "note": 37,
      "start": 59.6011,
      "duration": 0.0161,
      "velocity": 115,
      "chip": "ym2612"
    },
    {
      "channel": 4,
      "note": 76,
      "start": 59.6022,
      "duration": 0.0161,
      "velocity": 94,
      "chip": "ym2612"
    },
    {
      "channel": 3,
      "note": 76,
      "start": 59.6034,
      "duration": 0.0161,
      "velocity": 94,
      "chip": "ym2612"
    },
    {
      "channel": 2,
      "note": 52,
      "start": 59.6045,
      "duration": 0.0161,
      "velocity": 100,
      "chip": "ym2612"
    },
    {
      "channel": 1,
      "note": 64,
      "start": 59.6155,
      "duration": 0.0161,
      "velocity": 124,
      "chip": "ym2612"
    },
    {
      "channel": 0,
      "note": 38,
      "start": 59.6172,
      "duration": 0.0161,
      "velocity": 115,
      "chip": "ym2612"
    },
    {
      "channel": 4,
      "note": 76,
      "start": 59.6183,
      "duration": 0.0162,
      "velocity": 94,
      "chip": "ym2612"
    },
    {
      "channel": 3,
      "note": 76,
      "start": 59.6195,
      "duration": 0.0161,
      "velocity": 94,
      "chip": "ym2612"
    },
    {
      "channel": 2,
      "note": 52,
      "start": 59.6206,
      "duration": 0.0161,
      "velocity": 100,
      "chip": "ym2612"
    },
    {
      "channel": 1,
      "note": 64,
      "start": 59.6316,
      "duration": 0.0161,
      "velocity": 124,
      "chip": "ym2612"
    },
    {
      "channel": 0,
      "note": 38,
      "start": 59.6333,
      "duration": 0.0161,
      "velocity": 115,
      "chip": "ym2612"
    },
    {
      "channel": 4,
      "note": 76,
      "start": 59.6345,
      "duration": 0.0161,
      "velocity": 94,
      "chip": "ym2612"
    },
    {
      "channel": 3,
      "note": 76,
      "start": 59.6356,
      "duration": 0.0161,
      "velocity": 94,
      "chip": "ym2612"
    },
    {
      "channel": 2,
      "note": 52,
      "start": 59.6367,
      "duration": 0.0161,
      "velocity": 100,
      "chip": "ym2612"
    },
    {
      "channel": 1,
      "note": 64,
      "start": 59.6477,
      "duration": 0.0178,
      "velocity": 105,
      "chip": "ym2612"
    },
    {
      "channel": 0,
      "note": 39,
      "start": 59.6493,
      "duration": 0.0179,
      "velocity": 115,
      "chip": "ym2612"
    },
    {
      "channel": 4,
      "note": 76,
      "start": 59.6506,
      "duration": 0.018,
      "velocity": 94,
      "chip": "ym2612"
    },
    {
      "channel": 3,
      "note": 76,
      "start": 59.6517,
      "duration": 0.0182,
      "velocity": 94,
      "chip": "ym2612"
    },
    {
      "channel": 2,
      "note": 52,
      "start": 59.6528,
      "duration": 0.0185,
      "velocity": 100,
      "chip": "ym2612"
    },
    {
      "channel": 1,
      "note": 105,
      "start": 59.6655,
      "duration": 0.0144,
      "velocity": 105,
      "chip": "ym2612"
    },
    {
      "channel": 0,
      "note": 39,
      "start": 59.6672,
      "duration": 0.0144,
      "velocity": 115,
      "chip": "ym2612"
    },
    {
      "channel": 4,
      "note": 81,
      "start": 59.6686,
      "duration": 0.0142,
      "velocity": 94,
      "chip": "ym2612"
    },
    {
      "channel": 3,
      "note": 76,
      "start": 59.6699,
      "duration": 0.0141,
      "velocity": 94,
      "chip": "ym2612"
    },
    {
      "channel": 2,
      "note": 52,
      "start": 59.6714,
      "duration": 0.0139,
      "velocity": 100,
      "chip": "ym2612"
    },
    {
      "channel": 1,
      "note": 105,
      "start": 59.68,
      "duration": 0.0174,
      "velocity": 105,
      "chip": "ym2612"
    },
    {
      "channel": 0,
      "note": 40,
      "start": 59.6816,
      "duration": 0.0174,
      "velocity": 115,
      "chip": "ym2612"
    },
    {
      "channel": 4,
      "note": 81,
      "start": 59.6828,
      "duration": 0.0173,
      "velocity": 94,
      "chip": "ym2612"
    },
    {
      "channel": 3,
      "note": 76,
      "start": 59.684,
      "duration": 0.0173,
      "velocity": 94,
      "chip": "ym2612"
    },
    {
      "channel": 2,
      "note": 52,
      "start": 59.6852,
      "duration": 0.0172,
      "velocity": 100,
      "chip": "ym2612"
    },
    {
      "channel": 1,
      "note": 105,
      "start": 59.6973,
      "duration": 0.0167,
      "velocity": 105,
      "chip": "ym2612"
    },
    {
      "channel": 0,
      "note": 40,
      "start": 59.699,
      "duration": 0.0167,
      "velocity": 115,
      "chip": "ym2612"
    },
    {
      "channel": 4,
      "note": 81,
      "start": 59.7001,
      "duration": 0.0167,
      "velocity": 94,
      "chip": "ym2612"
    },
    {
      "channel": 3,
      "note": 76,
      "start": 59.7013,
      "duration": 0.0167,
      "velocity": 94,
      "chip": "ym2612"
    },
    {
      "channel": 2,
      "note": 52,
      "start": 59.7024,
      "duration": 0.0167,
      "velocity": 100,
      "chip": "ym2612"
    },
    {
      "channel": 1,
      "note": 105,
      "start": 59.714,
      "duration": 0.0163,
      "velocity": 105,
      "chip": "ym2612"
    },
    {
      "channel": 0,
      "note": 40,
      "start": 59.7156,
      "duration": 0.0163,
      "velocity": 115,
      "chip": "ym2612"
    },
    {
      "channel": 4,
      "note": 81,
      "start": 59.7168,
      "duration": 0.0163,
      "velocity": 94,
      "chip": "ym2612"
    },
    {
      "channel": 3,
      "note": 76,
      "start": 59.7179,
      "duration": 0.0163,
      "velocity": 94,
      "chip": "ym2612"
    },
    {
      "channel": 2,
      "note": 52,
      "start": 59.7191,
      "duration": 0.0163,
      "velocity": 100,
      "chip": "ym2612"
    },
    {
      "channel": 1,
      "note": 105,
      "start": 59.7303,
      "duration": 0.0143,
      "velocity": 105,
      "chip": "ym2612"
    },
    {
      "channel": 0,
      "note": 41,
      "start": 59.7319,
      "duration": 0.0144,
      "velocity": 115,
      "chip": "ym2612"
    },
    {
      "channel": 4,
      "note": 81,
      "start": 59.7331,
      "duration": 0.0144,
      "velocity": 94,
      "chip": "ym2612"
    },
    {
      "channel": 3,
      "note": 76,
      "start": 59.7342,
      "duration": 0.0144,
      "velocity": 94,
      "chip": "ym2612"
    },
    {
      "channel": 2,
      "note": 52,
      "start": 59.7354,
      "duration": 0.0144,
      "velocity": 100,
      "chip": "ym2612"
    },
    {
      "channel": 1,
      "note": 105,
      "start": 59.7446,
      "duration": 0.0186,
      "velocity": 105,
      "chip": "ym2612"
    },
    {
      "channel": 0,
      "note": 41,
      "start": 59.7463,
      "duration": 0.0185,
      "velocity": 115,
      "chip": "ym2612"
    },
    {
      "channel": 4,
      "note": 81,
      "start": 59.7474,
      "duration": 0.0185,
      "velocity": 94,
      "chip": "ym2612"
    },
    {
      "channel": 3,
      "note": 76,
      "start": 59.7486,
      "duration": 0.0185,
      "velocity": 94,
      "chip": "ym2612"
    },
    {
      "channel": 2,
      "note": 52,
      "start": 59.7497,
      "duration": 0.0185,
      "velocity": 100,
      "chip": "ym2612"
    },
    {
      "channel": 1,
      "note": 105,
      "start": 59.7632,
      "duration": 0.0178,
      "velocity": 124,
      "chip": "ym2612"
    },
    {
      "channel": 0,
      "note": 42,
      "start": 59.7648,
      "duration": 0.0179,
      "velocity": 115,
      "chip": "ym2612"
    },
    {
      "channel": 4,
      "note": 81,
      "start": 59.766,
      "duration": 0.018,
      "velocity": 94,
      "chip": "ym2612"
    },
    {
      "channel": 3,
      "note": 76,
      "start": 59.7671,
      "duration": 0.0182,
      "velocity": 94,
      "chip": "ym2612"
    },
    {
      "channel": 2,
      "note": 52,
      "start": 59.7683,
      "duration": 0.0185,
      "velocity": 100,
      "chip": "ym2612"
    },
    {
      "channel": 1,
      "note": 64,
      "start": 59.781,
      "duration": 0.0117,
      "velocity": 124,
      "chip": "ym2612"
    },
    {
      "channel": 0,
      "note": 42,
      "start": 59.7827,
      "duration": 0.0141,
      "velocity": 115,
      "chip": "ym2612"
    },
    {
      "channel": 4,
      "note": 81,
      "start": 59.7839,
      "duration": 0.014,
      "velocity": 94,
      "chip": "ym2612"
    },
    {
      "channel": 3,
      "note": 81,
      "start": 59.7854,
      "duration": 0.0138,
      "velocity": 94,
      "chip": "ym2612"
    },
    {
      "channel": 2,
      "note": 52,
      "start": 59.7868,
      "duration": 0.0135,
      "velocity": 100,
      "chip": "ym2612"
    },
    {
      "channel": 1,
      "note": 64,
      "start": 59.7927,
      "duration": 0.016,
      "velocity": 124,
      "chip": "ym2612"
    },
    {
      "channel": 0,
      "note": 43,
      "start": 59.7967,
      "duration": 0.0139,
      "velocity": 115,
      "chip": "ym2612"
    },
    {
      "channel": 4,
      "note": 81,
      "start": 59.798,
      "duration": 0.0139,
      "velocity": 94,
      "chip": "ym2612"
    },
    {
      "channel": 3,
      "note": 81,
      "start": 59.7992,
      "duration": 0.0139,
      "velocity": 94,
      "chip": "ym2612"
    },
    {
      "channel": 2,
      "note": 52,
      "start": 59.8003,
      "duration": 0.0138,
      "velocity": 100,
      "chip": "ym2612"
    },
    {
      "channel": 1,
      "note": 64,
      "start": 59.8087,
      "duration": 0.0161,
      "velocity": 124,
      "chip": "ym2612"
    },
    {
      "channel": 0,
      "note": 43,
      "start": 59.8107,
      "duration": 0.0185,
      "velocity": 115,
      "chip": "ym2612"
    },
    {
      "channel": 4,
      "note": 81,
      "start": 59.8119,
      "duration": 0.0185,
      "velocity": 94,
      "chip": "ym2612"
    },
    {
      "channel": 3,
      "note": 81,
      "start": 59.813,
      "duration": 0.0185,
      "velocity": 94,
      "chip": "ym2612"
    },
    {
      "channel": 2,
      "note": 52,
      "start": 59.8141,
      "duration": 0.0186,
      "velocity": 100,
      "chip": "ym2612"
    },
    {
      "channel": 1,
      "note": 64,
      "start": 59.8248,
      "duration": 0.0161,
      "velocity": 124,
      "chip": "ym2612"
    },
    {
      "channel": 0,
      "note": 44,
      "start": 59.8292,
      "duration": 0.0134,
      "velocity": 115,
      "chip": "ym2612"
    },
    {
      "channel": 4,
      "note": 81,
      "start": 59.8304,
      "duration": 0.0161,
      "velocity": 94,
      "chip": "ym2612"
    },
    {
      "channel": 3,
      "note": 81,
      "start": 59.8315,
      "duration": 0.0161,
      "velocity": 94,
      "chip": "ym2612"
    },
    {
      "channel": 2,
      "note": 52,
      "start": 59.8327,
      "duration": 0.0161,
      "velocity": 100,
      "chip": "ym2612"
    },
    {
      "channel": 1,
      "note": 64,
      "start": 59.8409,
      "duration": 0.0161,
      "velocity": 124,
      "chip": "ym2612"
    },
    {
      "channel": 0,
      "note": 44,
      "start": 59.8425,
      "duration": 0.0162,
      "velocity": 115,
      "chip": "ym2612"
    },
    {
      "channel": 4,
      "note": 81,
      "start": 59.8465,
      "duration": 0.0157,
      "velocity": 94,
      "chip": "ym2612"
    },
    {
      "channel": 3,
      "note": 81,
      "start": 59.8476,
      "duration": 0.0157,
      "velocity": 94,
      "chip": "ym2612"
    },
    {
      "channel": 2,
      "note": 52,
      "start": 59.8488,
      "duration": 0.0157,
      "velocity": 100,
      "chip": "ym2612"
    },
    {
      "channel": 1,
      "note": 64,
      "start": 59.857,
      "duration": 0.0161,
      "velocity": 124,
      "chip": "ym2612"
    },
    {
      "channel": 0,
      "note": 44,
      "start": 59.8587,
      "duration": 0.0161,
      "velocity": 115,
      "chip": "ym2612"
    },
    {
      "channel": 4,
      "note": 81,
      "start": 59.8622,
      "duration": 0.0137,
      "velocity": 94,
      "chip": "ym2612"
    },
    {
      "channel": 3,
      "note": 81,
      "start": 59.8634,
      "duration": 0.0141,
      "velocity": 94,
      "chip": "ym2612"
    },
    {
      "channel": 2,
      "note": 52,
      "start": 59.8645,
      "duration": 0.0141,
      "velocity": 100,
      "chip": "ym2612"
    },
    {
      "channel": 1,
      "note": 64,
      "start": 59.8731,
      "duration": 0.0178,
      "velocity": 105,
      "chip": "ym2612"
    },
    {
      "channel": 0,
      "note": 45,
      "start": 59.8748,
      "duration": 0.0178,
      "velocity": 115,
      "chip": "ym2612"
    },
    {
      "channel": 4,
      "note": 81,
      "start": 59.8759,
      "duration": 0.0208,
      "velocity": 94,
      "chip": "ym2612"
    },
    {
      "channel": 3,
      "note": 81,
      "start": 59.8774,
      "duration": 0.0207,
      "velocity": 94,
      "chip": "ym2612"
    },
    {
      "channel": 2,
      "note": 52,
      "start": 59.8785,
      "duration": 0.0209,
      "velocity": 100,
      "chip": "ym2612"
    },
    {
      "channel": 1,
      "note": 105,
      "start": 59.891,
      "duration": 0.0144,
      "velocity": 105,
      "chip": "ym2612"
    },
    {
      "channel": 0,
      "note": 45,
      "start": 59.8926,
      "duration": 0.0144,
      "velocity": 115,
      "chip": "ym2612"
    },
    {
      "channel": 4,
      "note": 81,
      "start": 59.8968,
      "duration": 0.0115,
      "velocity": 94,
      "chip": "ym2612"
    },
    {
      "channel": 3,
      "note": 81,
      "start": 59.8981,
      "duration": 0.0114,
      "velocity": 94,
      "chip": "ym2612"
    },
    {
      "channel": 2,
      "note": 52,
      "start": 59.8995,
      "duration": 0.0139,
      "velocity": 100,
      "chip": "ym2612"
    },
    {
      "channel": 1,
      "note": 105,
      "start": 59.9053,
      "duration": 0.0161,
      "velocity": 105,
      "chip": "ym2612"
    },
    {
      "channel": 0,
      "note": 46,
      "start": 59.9071,
      "duration": 0.016,
      "velocity": 115,
      "chip": "ym2612"
    },
    {
      "channel": 4,
      "note": 81,
      "start": 59.9083,
      "duration": 0.016,
      "velocity": 94,
      "chip": "ym2612"
    },
    {
      "channel": 3,
      "note": 81,
      "start": 59.9095,
      "duration": 0.0159,
      "velocity": 94,
      "chip": "ym2612"
    },
    {
      "channel": 2,
      "note": 52,
      "start": 59.9134,
      "duration": 0.0155,
      "velocity": 100,
      "chip": "ym2612"
    },
    {
      "channel": 1,
      "note": 105,
      "start": 59.9214,
      "duration": 0.0161,
      "velocity": 105,
      "chip": "ym2612"
    },
    {
      "channel": 0,
      "note": 46,
      "start": 59.9231,
      "duration": 0.0161,
      "velocity": 115,
      "chip": "ym2612"
    },
    {
      "channel": 4,
      "note": 81,
      "start": 59.9242,
      "duration": 0.0161,
      "velocity": 94,
      "chip": "ym2612"
    },
    {
      "channel": 3,
      "note": 81,
      "start": 59.9254,
      "duration": 0.0161,
      "velocity": 94,
      "chip": "ym2612"
    },
    {
      "channel": 2,
      "note": 52,
      "start": 59.9289,
      "duration": 0.0137,
      "velocity": 100,
      "chip": "ym2612"
    },
    {
      "channel": 1,
      "note": 105,
      "start": 59.9375,
      "duration": 0.0161,
      "velocity": 105,
      "chip": "ym2612"
    },
    {
      "channel": 0,
      "note": 47,
      "start": 59.9392,
      "duration": 0.0161,
      "velocity": 115,
      "chip": "ym2612"
    },
    {
      "channel": 4,
      "note": 81,
      "start": 59.9403,
      "duration": 0.0161,
      "velocity": 94,
      "chip": "ym2612"
    },
    {
      "channel": 3,
      "note": 81,
      "start": 59.9415,
      "duration": 0.0161,
      "velocity": 94,
      "chip": "ym2612"
    },
    {
      "channel": 2,
      "note": 52,
      "start": 59.9426,
      "duration": 0.0161,
      "velocity": 100,
      "chip": "ym2612"
    },
    {
      "channel": 1,
      "note": 105,
      "start": 59.9536,
      "duration": 0.0161,
      "velocity": 105,
      "chip": "ym2612"
    },
    {
      "channel": 0,
      "note": 47,
      "start": 59.9553,
      "duration": 0.0161,
      "velocity": 115,
      "chip": "ym2612"
    },
    {
      "channel": 4,
      "note": 81,
      "start": 59.9564,
      "duration": 0.0161,
      "velocity": 94,
      "chip": "ym2612"
    },
    {
      "channel": 3,
      "note": 81,
      "start": 59.9576,
      "duration": 0.0162,
      "velocity": 94,
      "chip": "ym2612"
    },
    {
      "channel": 2,
      "note": 52,
      "start": 59.9587,
      "duration": 0.0161,
      "velocity": 100,
      "chip": "ym2612"
    },
    {
      "channel": 1,
      "note": 105,
      "start": 59.9697,
      "duration": 0.0161,
      "velocity": 105,
      "chip": "ym2612"
    },
    {
      "channel": 0,
      "note": 47,
      "start": 59.9714,
      "duration": 0.0161,
      "velocity": 115,
      "chip": "ym2612"
    },
    {
      "channel": 4,
      "note": 81,
      "start": 59.9726,
      "duration": 0.0161,
      "velocity": 94,
      "chip": "ym2612"
    },
    {
      "channel": 3,
      "note": 81,
      "start": 59.9737,
      "duration": 0.0161,
      "velocity": 94,
      "chip": "ym2612"
    },
    {
      "channel": 2,
      "note": 52,
      "start": 59.9748,
      "duration": 0.0161,
      "velocity": 100,
      "chip": "ym2612"
    },
    {
      "channel": 1,
      "note": 105,
      "start": 59.9858,
      "duration": 0.0184,
      "velocity": 124,
      "chip": "ym2612"
    },
    {
      "channel": 0,
      "note": 48,
      "start": 59.9875,
      "duration": 0.0191,
      "velocity": 115,
      "chip": "ym2612"
    },
    {
      "channel": 4,
      "note": 81,
      "start": 59.9887,
      "duration": 0.0192,
      "velocity": 94,
      "chip": "ym2612"
    },
    {
      "channel": 3,
      "note": 81,
      "start": 59.9898,
      "duration": 0.0195,
      "velocity": 94,
      "chip": "ym2612"
    },
    {
      "channel": 2,
      "note": 52,
      "start": 59.9909,
      "duration": 0.0202,
      "velocity": 100,
      "chip": "ym2612"
    },
    {
      "channel": 1,
      "note": 78,
      "start": 60.0042,
      "duration": 0.0144,
      "velocity": 124,
      "chip": "ym2612"
    },
    {
      "channel": 0,
      "note": 48,
      "start": 60.0066,
      "duration": 0.0139,
      "velocity": 115,
      "chip": "ym2612"
    },
    {
      "channel": 4,
      "note": 81,
      "start": 60.0079,
      "duration": 0.0138,
      "velocity": 94,
      "chip": "ym2612"
    },
    {
      "channel": 3,
      "note": 81,
      "start": 60.0093,
      "duration": 0.0136,
      "velocity": 94,
      "chip": "ym2612"
    },
    {
      "channel": 2,
      "note": 52,
      "start": 60.0111,
      "duration": 0.013,
      "velocity": 100,
      "chip": "ym2612"
    },
    {
      "channel": 1,
      "note": 76,
      "start": 60.0186,
      "duration": 0.016,
      "velocity": 124,
      "chip": "ym2612"
    },
    {
      "channel": 0,
      "note": 49,
      "start": 60.0205,
      "duration": 0.0152,
      "velocity": 1,
      "chip": "ym2612"
    },
    {
      "channel": 4,
      "note": 81,
      "start": 60.0217,
      "duration": 0.0151,
      "velocity": 94,
      "chip": "ym2612"
    },
    {
      "channel": 3,
      "note": 81,
      "start": 60.0229,
      "duration": 0.0151,
      "velocity": 94,
      "chip": "ym2612"
    },
    {
      "channel": 2,
      "note": 52,
      "start": 60.0241,
      "duration": 0.015,
      "velocity": 100,
      "chip": "ym2612"
    },
    {
      "channel": 1,
      "note": 75,
      "start": 60.0346,
      "duration": 0.0161,
      "velocity": 124,
      "chip": "ym2612"
    },
    {
      "channel": 4,
      "note": 81,
      "start": 60.0368,
      "duration": 0.0153,
      "velocity": 94,
      "chip": "ym2612"
    },
    {
      "channel": 3,
      "note": 81,
      "start": 60.038,
      "duration": 0.0153,
      "velocity": 94,
      "chip": "ym2612"
    },
    {
      "channel": 2,
      "note": 52,
      "start": 60.0391,
      "duration": 0.0153,
      "velocity": 100,
      "chip": "ym2612"
    },
    {
      "channel": 1,
      "note": 74,
      "start": 60.0507,
      "duration": 0.0161,
      "velocity": 124,
      "chip": "ym2612"
    },
    {
      "channel": 4,
      "note": 81,
      "start": 60.0521,
      "duration": 0.0161,
      "velocity": 94,
      "chip": "ym2612"
    },
    {
      "channel": 3,
      "note": 81,
      "start": 60.0532,
      "duration": 0.0161,
      "velocity": 94,
      "chip": "ym2612"
    },
    {
      "channel": 2,
      "note": 52,
      "start": 60.0544,
      "duration": 0.0161,
      "velocity": 100,
      "chip": "ym2612"
    },
    {
      "channel": 1,
      "note": 72,
      "start": 60.0668,
      "duration": 0.0162,
      "velocity": 124,
      "chip": "ym2612"
    },
    {
      "channel": 4,
      "note": 81,
      "start": 60.0682,
      "duration": 0.0161,
      "velocity": 94,
      "chip": "ym2612"
    },
    {
      "channel": 3,
      "note": 81,
      "start": 60.0693,
      "duration": 0.0161,
      "velocity": 94,
      "chip": "ym2612"
    },
    {
      "channel": 2,
      "note": 52,
      "start": 60.0705,
      "duration": 0.0161,
      "velocity": 100,
      "chip": "ym2612"
    },
    {
      "channel": 1,
      "note": 71,
      "start": 60.0829,
      "duration": 0.0161,
      "velocity": 124,
      "chip": "ym2612"
    },
    {
      "channel": 4,
      "note": 81,
      "start": 60.0843,
      "duration": 0.0162,
      "velocity": 94,
      "chip": "ym2612"
    },
    {
      "channel": 3,
      "note": 81,
      "start": 60.0854,
      "duration": 0.0162,
      "velocity": 94,
      "chip": "ym2612"
    },
    {
      "channel": 2,
      "note": 52,
      "start": 60.0866,
      "duration": 0.0161,
      "velocity": 100,
      "chip": "ym2612"
    },
    {
      "channel": 1,
      "note": 70,
      "start": 60.099,
      "duration": 0.0161,
      "velocity": 124,
      "chip": "ym2612"
    },
    {
      "channel": 4,
      "note": 81,
      "start": 60.1004,
      "duration": 0.0168,
      "velocity": 94,
      "chip": "ym2612"
    },
    {
      "channel": 3,
      "note": 81,
      "start": 60.1016,
      "duration": 0.017,
      "velocity": 94,
      "chip": "ym2612"
    },
    {
      "channel": 2,
      "note": 52,
      "start": 60.1027,
      "duration": 0.0173,
      "velocity": 100,
      "chip": "ym2612"
    },
    {
      "channel": 1,
      "note": 69,
      "start": 60.1151,
      "duration": 0.0161,
      "velocity": 124,
      "chip": "ym2612"
    },
    {
      "channel": 4,
      "note": 76,
      "start": 60.1173,
      "duration": 0.0155,
      "velocity": 94,
      "chip": "ym2612"
    },
    {
      "channel": 3,
      "note": 81,
      "start": 60.1186,
      "duration": 0.0153,
      "velocity": 94,
      "chip": "ym2612"
    },
    {
      "channel": 2,
      "note": 52,
      "start": 60.12,
      "duration": 0.0151,
      "velocity": 100,
      "chip": "ym2612"
    },
    {
      "channel": 1,
      "note": 68,
      "start": 60.1312,
      "duration": 0.0161,
      "velocity": 124,
      "chip": "ym2612"
    },
    {
      "channel": 4,
      "note": 76,
      "start": 60.1327,
      "duration": 0.016,
      "velocity": 94,
      "chip": "ym2612"
    },
    {
      "channel": 3,
      "note": 81,
      "start": 60.1339,
      "duration": 0.016,
      "velocity": 94,
      "chip": "ym2612"
    },
    {
      "channel": 2,
      "note": 52,
      "start": 60.1351,
      "duration": 0.0159,
      "velocity": 100,
      "chip": "ym2612"
    },
    {
      "channel": 1,
      "note": 66,
      "start": 60.1473,
      "duration": 0.0171,
      "velocity": 124,
      "chip": "ym2612"
    },
    {
      "channel": 4,
      "note": 76,
      "start": 60.1487,
      "duration": 0.0171,
      "velocity": 94,
      "chip": "ym2612"
    },
    {
      "channel": 3,
      "note": 81,
      "start": 60.1499,
      "duration": 0.0171,
      "velocity": 94,
      "chip": "ym2612"
    },
    {
      "channel": 2,
      "note": 52,
      "start": 60.151,
      "duration": 0.0171,
      "velocity": 100,
      "chip": "ym2612"
    },
    {
      "channel": 1,
      "note": 65,
      "start": 60.1644,
      "duration": 0.0167,
      "velocity": 124,
      "chip": "ym2612"
    },
    {
      "channel": 4,
      "note": 76,
      "start": 60.1658,
      "duration": 0.0167,
      "velocity": 94,
      "chip": "ym2612"
    },
    {
      "channel": 3,
      "note": 81,
      "start": 60.167,
      "duration": 0.0167,
      "velocity": 94,
      "chip": "ym2612"
    },
    {
      "channel": 2,
      "note": 52,
      "start": 60.1681,
      "duration": 0.0167,
      "velocity": 100,
      "chip": "ym2612"
    },
    {
      "channel": 1,
      "note": 64,
      "start": 60.1812,
      "duration": 0.0163,
      "velocity": 124,
      "chip": "ym2612"
    },
    {
      "channel": 4,
      "note": 76,
      "start": 60.1825,
      "duration": 0.0163,
      "velocity": 94,
      "chip": "ym2612"
    },
    {
      "channel": 3,
      "note": 81,
      "start": 60.1836,
      "duration": 0.0163,
      "velocity": 94,
      "chip": "ym2612"
    },
    {
      "channel": 2,
      "note": 52,
      "start": 60.1848,
      "duration": 0.0163,
      "velocity": 100,
      "chip": "ym2612"
    },
    {
      "channel": 1,
      "note": 62,
      "start": 60.1974,
      "duration": 0.0146,
      "velocity": 124,
      "chip": "ym2612"
    },
    {
      "channel": 4,
      "note": 76,
      "start": 60.1988,
      "duration": 0.0146,
      "velocity": 94,
      "chip": "ym2612"
    },
    {
      "channel": 3,
      "note": 81,
      "start": 60.2,
      "duration": 0.0146,
      "velocity": 94,
      "chip": "ym2612"
    },
    {
      "channel": 2,
      "note": 52,
      "start": 60.2011,
      "duration": 0.0146,
      "velocity": 100,
      "chip": "ym2612"
    },
    {
      "channel": 1,
      "note": 61,
      "start": 60.212,
      "duration": 0.0186,
      "velocity": 124,
      "chip": "ym2612"
    },
    {
      "channel": 4,
      "note": 76,
      "start": 60.2134,
      "duration": 0.0192,
      "velocity": 94,
      "chip": "ym2612"
    },
    {
      "channel": 3,
      "note": 81,
      "start": 60.2146,
      "duration": 0.0194,
      "velocity": 94,
      "chip": "ym2612"
    },
    {
      "channel": 2,
      "note": 52,
      "start": 60.2157,
      "duration": 0.0197,
      "velocity": 100,
      "chip": "ym2612"
    },
    {
      "channel": 1,
      "note": 60,
      "start": 60.2306,
      "duration": 0.0161,
      "velocity": 124,
      "chip": "ym2612"
    },
    {
      "channel": 4,
      "note": 76,
      "start": 60.2326,
      "duration": 0.0155,
      "velocity": 94,
      "chip": "ym2612"
    },
    {
      "channel": 3,
      "note": 76,
      "start": 60.234,
      "duration": 0.0153,
      "velocity": 94,
      "chip": "ym2612"
    },
    {
      "channel": 2,
      "note": 52,
      "start": 60.2355,
      "duration": 0.0151,
      "velocity": 100,
      "chip": "ym2612"
    },
    {
      "channel": 1,
      "note": 59,
      "start": 60.2467,
      "duration": 0.0157,
      "velocity": 124,
      "chip": "ym2612"
    },
    {
      "channel": 4,
      "note": 76,
      "start": 60.2481,
      "duration": 0.0156,
      "velocity": 94,
      "chip": "ym2612"
    },
    {
      "channel": 3,
      "note": 76,
      "start": 60.2493,
      "duration": 0.0156,
      "velocity": 94,
      "chip": "ym2612"
    },
    {
      "channel": 2,
      "note": 52,
      "start": 60.2506,
      "duration": 0.0155,
      "velocity": 100,
      "chip": "ym2612"
    },
    {
      "channel": 1,
      "note": 57,
      "start": 60.2624,
      "duration": 0.0137,
      "velocity": 124,
      "chip": "ym2612"
    },
    {
      "channel": 4,
      "note": 76,
      "start": 60.2638,
      "duration": 0.0141,
      "velocity": 94,
      "chip": "ym2612"
    },
    {
      "channel": 3,
      "note": 76,
      "start": 60.2649,
      "duration": 0.0141,
      "velocity": 94,
      "chip": "ym2612"
    },
    {
      "channel": 2,
      "note": 52,
      "start": 60.2661,
      "duration": 0.0141,
      "velocity": 100,
      "chip": "ym2612"
    },
    {
      "channel": 1,
      "note": 56,
      "start": 60.2761,
      "duration": 0.0161,
      "velocity": 124,
      "chip": "ym2612"
    },
    {
      "channel": 4,
      "note": 76,
      "start": 60.2778,
      "duration": 0.0185,
      "velocity": 94,
      "chip": "ym2612"
    },
    {
      "channel": 3,
      "note": 76,
      "start": 60.279,
      "duration": 0.0185,
      "velocity": 94,
      "chip": "ym2612"
    },
    {
      "channel": 2,
      "note": 52,
      "start": 60.2801,
      "duration": 0.0185,
      "velocity": 100,
      "chip": "ym2612"
    },
    {
      "channel": 1,
      "note": 55,
      "start": 60.2922,
      "duration": 0.0161,
      "velocity": 124,
      "chip": "ym2612"
    },
    {
      "channel": 4,
      "note": 76,
      "start": 60.2963,
      "duration": 0.0134,
      "velocity": 94,
      "chip": "ym2612"
    },
    {
      "channel": 3,
      "note": 76,
      "start": 60.2975,
      "duration": 0.0161,
      "velocity": 94,
      "chip": "ym2612"
    },
    {
      "channel": 2,
      "note": 52,
      "start": 60.2986,
      "duration": 0.0161,
      "velocity": 100,
      "chip": "ym2612"
    },
    {
      "channel": 1,
      "note": 53,
      "start": 60.3083,
      "duration": 0.0161,
      "velocity": 124,
      "chip": "ym2612"
    },
    {
      "channel": 4,
      "note": 76,
      "start": 60.3097,
      "duration": 0.0161,
      "velocity": 94,
      "chip": "ym2612"
    },
    {
      "channel": 3,
      "note": 76,
      "start": 60.3136,
      "duration": 0.0157,
      "velocity": 94,
      "chip": "ym2612"
    },
    {
      "channel": 2,
      "note": 52,
      "start": 60.3147,
      "duration": 0.0157,
      "velocity": 100,
      "chip": "ym2612"
    },
    {
      "channel": 1,
      "note": 52,
      "start": 60.3244,
      "duration": 0.0161,
      "velocity": 124,
      "chip": "ym2612"
    },
    {
      "channel": 4,
      "note": 76,
      "start": 60.3258,
      "duration": 0.0206,
      "velocity": 94,
      "chip": "ym2612"
    },
    {
      "channel": 3,
      "note": 76,
      "start": 60.3293,
      "duration": 0.0184,
      "velocity": 94,
      "chip": "ym2612"
    },
    {
      "channel": 2,
      "note": 52,
      "start": 60.3305,
      "duration": 0.0187,
      "velocity": 100,
      "chip": "ym2612"
    },
    {
      "channel": 1,
      "note": 51,
      "start": 60.3405,
      "duration": 0.0153,
      "velocity": 1,
      "chip": "ym2612"
    },
    {
      "channel": 0,
      "note": 36,
      "start": 60.345,
      "duration": 0.0147,
      "velocity": 115,
      "chip": "ym2612"
    },
    {
      "channel": 4,
      "note": 76,
      "start": 60.3465,
      "duration": 0.0172,
      "velocity": 94,
      "chip": "ym2612"
    },
    {
      "channel": 3,
      "note": 76,
      "start": 60.3478,
      "duration": 0.0172,
      "velocity": 94,
      "chip": "ym2612"
    },
    {
      "channel": 2,
      "note": 52,
      "start": 60.3492,
      "duration": 0.0168,
      "velocity": 100,
      "chip": "ym2612"
    },
    {
      "channel": 1,
      "note": 51,
      "start": 60.358,
      "duration": 0.0142,
      "velocity": 105,
      "chip": "ym2612"
    },
    {
      "channel": 0,
      "note": 36,
      "start": 60.3597,
      "duration": 0.0142,
      "velocity": 115,
      "chip": "ym2612"
    },
    {
      "channel": 4,
      "note": 76,
      "start": 60.3637,
      "duration": 0.0113,
      "velocity": 94,
      "chip": "ym2612"
    },
    {
      "channel": 3,
      "note": 76,
      "start": 60.3649,
      "duration": 0.0112,
      "velocity": 94,
      "chip": "ym2612"
    },
    {
      "channel": 2,
      "note": 52,
      "start": 60.3661,
      "duration": 0.014,
      "velocity": 100,
      "chip": "ym2612"
    },
    {
      "channel": 1,
      "note": 105,
      "start": 60.3722,
      "duration": 0.0161,
      "velocity": 105,
      "chip": "ym2612"
    },
    {
      "channel": 0,
      "note": 37,
      "start": 60.3739,
      "duration": 0.0161,
      "velocity": 115,
      "chip": "ym2612"
    },
    {
      "channel": 4,
      "note": 76,
      "start": 60.3751,
      "duration": 0.0161,
      "velocity": 94,
      "chip": "ym2612"
    },
    {
      "channel": 3,
      "note": 76,
      "start": 60.3762,
      "duration": 0.0161,
      "velocity": 94,
      "chip": "ym2612"
    },
    {
      "channel": 2,
      "note": 52,
      "start": 60.3801,
      "duration": 0.0158,
      "velocity": 100,
      "chip": "ym2612"
    },
    {
      "channel": 1,
      "note": 105,
      "start": 60.3883,
      "duration": 0.0161,
      "velocity": 105,
      "chip": "ym2612"
    },
    {
      "channel": 0,
      "note": 37,
      "start": 60.39,
      "duration": 0.0161,
      "velocity": 115,
      "chip": "ym2612"
    },
    {
      "channel": 4,
      "note": 76,
      "start": 60.3911,
      "duration": 0.0162,
      "velocity": 94,
      "chip": "ym2612"
    },
    {
      "channel": 3,
      "note": 76,
      "start": 60.3923,
      "duration": 0.0162,
      "velocity": 94,
      "chip": "ym2612"
    },
    {
      "channel": 2,
      "note": 52,
      "start": 60.3959,
      "duration": 0.0137,
      "velocity": 100,
      "chip": "ym2612"
    },
    {
      "channel": 1,
      "note": 105,
      "start": 60.4044,
      "duration": 0.0161,
      "velocity": 105,
      "chip": "ym2612"
    },
    {
      "channel": 0,
      "note": 38,
      "start": 60.4061,
      "duration": 0.0161,
      "velocity": 115,
      "chip": "ym2612"
    },
    {
      "channel": 4,
      "note": 76,
      "start": 60.4073,
      "duration": 0.0161,
      "velocity": 94,
      "chip": "ym2612"
    },
    {
      "channel": 3,
      "note": 76,
      "start": 60.4085,
      "duration": 0.0161,
      "velocity": 94,
      "chip": "ym2612"
    },
    {
      "channel": 2,
      "note": 52,
      "start": 60.4095,
      "duration": 0.0161,
      "velocity": 100,
      "chip": "ym2612"
    },
    {
      "channel": 1,
      "note": 105,
      "start": 60.4205,
      "duration": 0.0161,
      "velocity": 105,
      "chip": "ym2612"
    },
    {
      "channel": 0,
      "note": 38,
      "start": 60.4222,
      "duration": 0.0161,
      "velocity": 115,
      "chip": "ym2612"
    },
    {
      "channel": 4,
      "note": 76,
      "start": 60.4234,
      "duration": 0.0161,
      "velocity": 94,
      "chip": "ym2612"
    },
    {
      "channel": 3,
      "note": 76,
      "start": 60.4245,
      "duration": 0.0161,
      "velocity": 94,
      "chip": "ym2612"
    },
    {
      "channel": 2,
      "note": 52,
      "start": 60.4256,
      "duration": 0.0161,
      "velocity": 100,
      "chip": "ym2612"
    },
    {
      "channel": 1,
      "note": 105,
      "start": 60.4366,
      "duration": 0.0178,
      "velocity": 124,
      "chip": "ym2612"
    },
    {
      "channel": 0,
      "note": 39,
      "start": 60.4383,
      "duration": 0.0197,
      "velocity": 115,
      "chip": "ym2612"
    },
    {
      "channel": 4,
      "note": 76,
      "start": 60.4395,
      "duration": 0.0198,
      "velocity": 94,
      "chip": "ym2612"
    },
    {
      "channel": 3,
      "note": 76,
      "start": 60.4406,
      "duration": 0.0224,
      "velocity": 94,
      "chip": "ym2612"
    },
    {
      "channel": 2,
      "note": 52,
      "start": 60.4417,
      "duration": 0.0228,
      "velocity": 100,
      "chip": "ym2612"
    },
    {
      "channel": 1,
      "note": 64,
      "start": 60.4545,
      "duration": 0.0145,
      "velocity": 124,
      "chip": "ym2612"
    },
    {
      "channel": 0,
      "note": 36,
      "start": 60.4579,
      "duration": 0.0128,
      "velocity": 115,
      "chip": "ym2612"
    },
    {
      "channel": 4,
      "note": 81,
      "start": 60.4594,
      "duration": 0.0125,
      "velocity": 94,
      "chip": "ym2612"
    },
    {
      "channel": 3,
      "note": 76,
      "start": 60.4632,
      "duration": 0.01,
      "velocity": 94,
      "chip": "ym2612"
    },
    {
      "channel": 2,
      "note": 52,
      "start": 60.4646,
      "duration": 0.0097,
      "velocity": 100,
      "chip": "ym2612"
    },
    {
      "channel": 1,
      "note": 64,
      "start": 60.469,
      "duration": 0.016,
      "velocity": 124,
      "chip": "ym2612"
    },
    {
      "channel": 0,
      "note": 36,
      "start": 60.4707,
      "duration": 0.0159,
      "velocity": 115,
      "chip": "ym2612"
    },
    {
      "channel": 4,
      "note": 81,
      "start": 60.4719,
      "duration": 0.0159,
      "velocity": 94,
      "chip": "ym2612"
    },
    {
      "channel": 3,
      "note": 76,
      "start": 60.4732,
      "duration": 0.0158,
      "velocity": 94,
      "chip": "ym2612"
    },
    {
      "channel": 2,
      "note": 52,
      "start": 60.4744,
      "duration": 0.0157,
      "velocity": 100,
      "chip": "ym2612"
    },
    {
      "channel": 1,
      "note": 64,
      "start": 60.485,
      "duration": 0.0161,
      "velocity": 124,
      "chip": "ym2612"
    },
    {
      "channel": 0,
      "note": 37,
      "start": 60.4866,
      "duration": 0.0161,
      "velocity": 115,
      "chip": "ym2612"
    },
    {
      "channel": 4,
      "note": 81,
      "start": 60.4878,
      "duration": 0.0161,
      "velocity": 94,
      "chip": "ym2612"
    },
    {
      "channel": 3,
      "note": 76,
      "start": 60.4889,
      "duration": 0.0161,
      "velocity": 94,
      "chip": "ym2612"
    },
    {
      "channel": 2,
      "note": 52,
      "start": 60.4901,
      "duration": 0.0161,
      "velocity": 100,
      "chip": "ym2612"
    },
    {
      "channel": 1,
      "note": 64,
      "start": 60.5011,
      "duration": 0.0161,
      "velocity": 124,
      "chip": "ym2612"
    },
    {
      "channel": 0,
      "note": 37,
      "start": 60.5027,
      "duration": 0.0161,
      "velocity": 115,
      "chip": "ym2612"
    },
    {
      "channel": 4,
      "note": 81,
      "start": 60.5039,
      "duration": 0.0161,
      "velocity": 94,
      "chip": "ym2612"
    },
    {
      "channel": 3,
      "note": 76,
      "start": 60.505,
      "duration": 0.0161,
      "velocity": 94,
      "chip": "ym2612"
    },
    {
      "channel": 2,
      "note": 52,
      "start": 60.5062,
      "duration": 0.0161,
      "velocity": 100,
      "chip": "ym2612"
    },
    {
      "channel": 1,
      "note": 64,
      "start": 60.5172,
      "duration": 0.0161,
      "velocity": 124,
      "chip": "ym2612"
    },
    {
      "channel": 0,
      "note": 38,
      "start": 60.5188,
      "duration": 0.0161,
      "velocity": 115,
      "chip": "ym2612"
    },
    {
      "channel": 4,
      "note": 81,
      "start": 60.52,
      "duration": 0.0162,
      "velocity": 94,
      "chip": "ym2612"
    },
    {
      "channel": 3,
      "note": 76,
      "start": 60.5211,
      "duration": 0.0161,
      "velocity": 94,
      "chip": "ym2612"
    },
    {
      "channel": 2,
      "note": 52,
      "start": 60.5222,
      "duration": 0.0161,
      "velocity": 100,
      "chip": "ym2612"
    },
    {
      "channel": 1,
      "note": 64,
      "start": 60.5333,
      "duration": 0.0161,
      "velocity": 124,
      "chip": "ym2612"
    },
    {
      "channel": 0,
      "note": 38,
      "start": 60.5349,
      "duration": 0.0161,
      "velocity": 115,
      "chip": "ym2612"
    },
    {
      "channel": 4,
      "note": 81,
      "start": 60.5361,
      "duration": 0.0161,
      "velocity": 94,
      "chip": "ym2612"
    },
    {
      "channel": 3,
      "note": 76,
      "start": 60.5373,
      "duration": 0.0161,
      "velocity": 94,
      "chip": "ym2612"
    },
    {
      "channel": 2,
      "note": 52,
      "start": 60.5383,
      "duration": 0.0161,
      "velocity": 100,
      "chip": "ym2612"
    },
    {
      "channel": 1,
      "note": 64,
      "start": 60.5493,
      "duration": 0.0178,
      "velocity": 105,
      "chip": "ym2612"
    },
    {
      "channel": 0,
      "note": 39,
      "start": 60.551,
      "duration": 0.0178,
      "velocity": 115,
      "chip": "ym2612"
    },
    {
      "channel": 4,
      "note": 81,
      "start": 60.5522,
      "duration": 0.0179,
      "velocity": 94,
      "chip": "ym2612"
    },
    {
      "channel": 3,
      "note": 76,
      "start": 60.5534,
      "duration": 0.0181,
      "velocity": 94,
      "chip": "ym2612"
    },
    {
      "channel": 2,
      "note": 52,
      "start": 60.5544,
      "duration": 0.0185,
      "velocity": 100,
      "chip": "ym2612"
    },
    {
      "channel": 1,
      "note": 105,
      "start": 60.5672,
      "duration": 0.0144,
      "velocity": 105,
      "chip": "ym2612"
    },
    {
      "channel": 0,
      "note": 39,
      "start": 60.5688,
      "duration": 0.0144,
      "velocity": 115,
      "chip": "ym2612"
    },
    {
      "channel": 4,
      "note": 81,
      "start": 60.5702,
      "duration": 0.0143,
      "velocity": 94,
      "chip": "ym2612"
    },
    {
      "channel": 3,
      "note": 81,
      "start": 60.5715,
      "duration": 0.0141,
      "velocity": 94,
      "chip": "ym2612"
    },
    {
      "channel": 2,
      "note": 52,
      "start": 60.5729,
      "duration": 0.0139,
      "velocity": 100,
      "chip": "ym2612"
    },
    {
      "channel": 1,
      "note": 105,
      "start": 60.5816,
      "duration": 0.016,
      "velocity": 105,
      "chip": "ym2612"
    },
    {
      "channel": 0,
      "note": 40,
      "start": 60.5833,
      "duration": 0.016,
      "velocity": 115,
      "chip": "ym2612"
    },
    {
      "channel": 4,
      "note": 81,
      "start": 60.5845,
      "duration": 0.016,
      "velocity": 94,
      "chip": "ym2612"
    },
    {
      "channel": 3,
      "note": 81,
      "start": 60.5857,
      "duration": 0.016,
      "velocity": 94,
      "chip": "ym2612"
    },
    {
      "channel": 2,
      "note": 52,
      "start": 60.5869,
      "duration": 0.0159,
      "velocity": 100,
      "chip": "ym2612"
    },
    {
      "channel": 1,
      "note": 105,
      "start": 60.5976,
      "duration": 0.0161,
      "velocity": 105,
      "chip": "ym2612"
    },
    {
      "channel": 0,
      "note": 40,
      "start": 60.5993,
      "duration": 0.0161,
      "velocity": 115,
      "chip": "ym2612"
    },
    {
      "channel": 4,
      "note": 81,
      "start": 60.6005,
      "duration": 0.0161,
      "velocity": 94,
      "chip": "ym2612"
    },
    {
      "channel": 3,
      "note": 81,
      "start": 60.6016,
      "duration": 0.0161,
      "velocity": 94,
      "chip": "ym2612"
    },
    {
      "channel": 2,
      "note": 52,
      "start": 60.6027,
      "duration": 0.0161,
      "velocity": 100,
      "chip": "ym2612"
    },
    {
      "channel": 1,
      "note": 105,
      "start": 60.6137,
      "duration": 0.0169,
      "velocity": 105,
      "chip": "ym2612"
    },
    {
      "channel": 0,
      "note": 40,
      "start": 60.6154,
      "duration": 0.0169,
      "velocity": 115,
      "chip": "ym2612"
    },
    {
      "channel": 4,
      "note": 81,
      "start": 60.6166,
      "duration": 0.0168,
      "velocity": 94,
      "chip": "ym2612"
    },
    {
      "channel": 3,
      "note": 81,
      "start": 60.6177,
      "duration": 0.0169,
      "velocity": 94,
      "chip": "ym2612"
    },
    {
      "channel": 2,
      "note": 52,
      "start": 60.6188,
      "duration": 0.0169,
      "velocity": 100,
      "chip": "ym2612"
    },
    {
      "channel": 1,
      "note": 105,
      "start": 60.6307,
      "duration": 0.0167,
      "velocity": 105,
      "chip": "ym2612"
    },
    {
      "channel": 0,
      "note": 41,
      "start": 60.6323,
      "duration": 0.0167,
      "velocity": 115,
      "chip": "ym2612"
    },
    {
      "channel": 4,
      "note": 81,
      "start": 60.6334,
      "duration": 0.0167,
      "velocity": 94,
      "chip": "ym2612"
    },
    {
      "channel": 3,
      "note": 81,
      "start": 60.6346,
      "duration": 0.0167,
      "velocity": 94,
      "chip": "ym2612"
    },
    {
      "channel": 2,
      "note": 52,
      "start": 60.6357,
      "duration": 0.0167,
      "velocity": 100,
      "chip": "ym2612"
    },
    {
      "channel": 1,
      "note": 105,
      "start": 60.6473,
      "duration": 0.0163,
      "velocity": 105,
      "chip": "ym2612"
    },
    {
      "channel": 0,
      "note": 41,
      "start": 60.649,
      "duration": 0.0163,
      "velocity": 115,
      "chip": "ym2612"
    },
    {
      "channel": 4,
      "note": 81,
      "start": 60.6501,
      "duration": 0.0163,
      "velocity": 94,
      "chip": "ym2612"
    },
    {
      "channel": 3,
      "note": 81,
      "start": 60.6513,
      "duration": 0.0163,
      "velocity": 94,
      "chip": "ym2612"
    },
    {
      "channel": 2,
      "note": 52,
      "start": 60.6524,
      "duration": 0.0163,
      "velocity": 100,
      "chip": "ym2612"
    },
    {
      "channel": 1,
      "note": 105,
      "start": 60.6636,
      "duration": 0.0164,
      "velocity": 124,
      "chip": "ym2612"
    },
    {
      "channel": 0,
      "note": 42,
      "start": 60.6653,
      "duration": 0.0165,
      "velocity": 115,
      "chip": "ym2612"
    },
    {
      "channel": 4,
      "note": 81,
      "start": 60.6664,
      "duration": 0.0167,
      "velocity": 94,
      "chip": "ym2612"
    },
    {
      "channel": 3,
      "note": 81,
      "start": 60.6676,
      "duration": 0.0168,
      "velocity": 94,
      "chip": "ym2612"
    },
    {
      "channel": 2,
      "note": 52,
      "start": 60.6687,
      "duration": 0.0171,
      "velocity": 100,
      "chip": "ym2612"
    },
    {
      "channel": 1,
      "note": 64,
      "start": 60.6801,
      "duration": 0.017,
      "velocity": 124,
      "chip": "ym2612"
    },
    {
      "channel": 0,
      "note": 42,
      "start": 60.6817,
      "duration": 0.017,
      "velocity": 115,
      "chip": "ym2612"
    },
    {
      "channel": 4,
      "note": 81,
      "start": 60.6831,
      "duration": 0.0168,
      "velocity": 94,
      "chip": "ym2612"
    },
    {
      "channel": 3,
      "note": 81,
      "start": 60.6844,
      "duration": 0.0167,
      "velocity": 94,
      "chip": "ym2612"
    },
    {
      "channel": 2,
      "note": 52,
      "start": 60.6859,
      "duration": 0.0165,
      "velocity": 100,
      "chip": "ym2612"
    },
    {
      "channel": 1,
      "note": 64,
      "start": 60.6971,
      "duration": 0.016,
      "velocity": 124,
      "chip": "ym2612"
    },
    {
      "channel": 0,
      "note": 43,
      "start": 60.6987,
      "duration": 0.0161,
      "velocity": 115,
      "chip": "ym2612"
    },
    {
      "channel": 4,
      "note": 81,
      "start": 60.7,
      "duration": 0.016,
      "velocity": 94,
      "chip": "ym2612"
    },
    {
      "channel": 3,
      "note": 81,
      "start": 60.7011,
      "duration": 0.016,
      "velocity": 94,
      "chip": "ym2612"
    },
    {
      "channel": 2,
      "note": 52,
      "start": 60.7023,
      "duration": 0.0159,
      "velocity": 100,
      "chip": "ym2612"
    },
    {
      "channel": 1,
      "note": 64,
      "start": 60.7131,
      "duration": 0.0134,
      "velocity": 124,
      "chip": "ym2612"
    },
    {
      "channel": 0,
      "note": 43,
      "start": 60.7148,
      "duration": 0.0157,
      "velocity": 115,
      "chip": "ym2612"
    },
    {
      "channel": 4,
      "note": 81,
      "start": 60.716,
      "duration": 0.0157,
      "velocity": 94,
      "chip": "ym2612"
    },
    {
      "channel": 3,
      "note": 81,
      "start": 60.7171,
      "duration": 0.0157,
      "velocity": 94,
      "chip": "ym2612"
    },
    {
      "channel": 2,
      "note": 52,
      "start": 60.7183,
      "duration": 0.0157,
      "velocity": 100,
      "chip": "ym2612"
    },
    {
      "channel": 1,
      "note": 64,
      "start": 60.7264,
      "duration": 0.0161,
      "velocity": 124,
      "chip": "ym2612"
    },
    {
      "channel": 0,
      "note": 44,
      "start": 60.7305,
      "duration": 0.0141,
      "velocity": 115,
      "chip": "ym2612"
    },
    {
      "channel": 4,
      "note": 81,
      "start": 60.7317,
      "duration": 0.0141,
      "velocity": 94,
      "chip": "ym2612"
    },
    {
      "channel": 3,
      "note": 81,
      "start": 60.7328,
      "duration": 0.0141,
      "velocity": 94,
      "chip": "ym2612"
    },
    {
      "channel": 2,
      "note": 52,
      "start": 60.7339,
      "duration": 0.0141,
      "velocity": 100,
      "chip": "ym2612"
    },
    {
      "channel": 1,
      "note": 64,
      "start": 60.7425,
      "duration": 0.0161,
      "velocity": 124,
      "chip": "ym2612"
    },
    {
      "channel": 0,
      "note": 44,
      "start": 60.7446,
      "duration": 0.0185,
      "velocity": 115,
      "chip": "ym2612"
    },
    {
      "channel": 4,
      "note": 81,
      "start": 60.7457,
      "duration": 0.0185,
      "velocity": 94,
      "chip": "ym2612"
    },
    {
      "channel": 3,
      "note": 81,
      "start": 60.7469,
      "duration": 0.0185,
      "velocity": 94,
      "chip": "ym2612"
    },
    {
      "channel": 2,
      "note": 52,
      "start": 60.748,
      "duration": 0.0185,
      "velocity": 100,
      "chip": "ym2612"
    },
    {
      "channel": 1,
      "note": 64,
      "start": 60.7586,
      "duration": 0.0161,
      "velocity": 124,
      "chip": "ym2612"
    },
    {
      "channel": 0,
      "note": 44,
      "start": 60.7631,
      "duration": 0.0134,
      "velocity": 115,
      "chip": "ym2612"
    },
    {
      "channel": 4,
      "note": 81,
      "start": 60.7642,
      "duration": 0.0161,
      "velocity": 94,
      "chip": "ym2612"
    },
    {
      "channel": 3,
      "note": 81,
      "start": 60.7654,
      "duration": 0.0161,
      "velocity": 94,
      "chip": "ym2612"
    },
    {
      "channel": 2,
      "note": 52,
      "start": 60.7665,
      "duration": 0.0161,
      "velocity": 100,
      "chip": "ym2612"
    },
    {
      "channel": 1,
      "note": 64,
      "start": 60.7748,
      "duration": 0.0178,
      "velocity": 105,
      "chip": "ym2612"
    },
    {
      "channel": 0,
      "note": 45,
      "start": 60.7764,
      "duration": 0.0202,
      "velocity": 115,
      "chip": "ym2612"
    },
    {
      "channel": 4,
      "note": 81,
      "start": 60.7804,
      "duration": 0.0176,
      "velocity": 94,
      "chip": "ym2612"
    },
    {
      "channel": 3,
      "note": 81,
      "start": 60.7815,
      "duration": 0.0179,
      "velocity": 94,
      "chip": "ym2612"
    },
    {
      "channel": 2,
      "note": 52,
      "start": 60.7826,
      "duration": 0.0183,
      "velocity": 100,
      "chip": "ym2612"
    },
    {
      "channel": 1,
      "note": 105,
      "start": 60.7926,
      "duration": 0.0144,
      "velocity": 105,
      "chip": "ym2612"
    },
    {
      "channel": 0,
      "note": 45,
      "start": 60.7966,
      "duration": 0.0121,
      "velocity": 115,
      "chip": "ym2612"
    },
    {
      "channel": 4,
      "note": 81,
      "start": 60.7981,
      "duration": 0.0122,
      "velocity": 94,
      "chip": "ym2612"
    },
    {
      "channel": 3,
      "note": 81,
      "start": 60.7995,
      "duration": 0.012,
      "velocity": 94,
      "chip": "ym2612"
    },
    {
      "channel": 2,
      "note": 52,
      "start": 60.8009,
      "duration": 0.0117,
      "velocity": 100,
      "chip": "ym2612"
    },
    {
      "channel": 1,
      "note": 105,
      "start": 60.807,
      "duration": 0.0161,
      "velocity": 105,
      "chip": "ym2612"
    },
    {
      "channel": 0,
      "note": 46,
      "start": 60.8087,
      "duration": 0.016,
      "velocity": 115,
      "chip": "ym2612"
    },
    {
      "channel": 4,
      "note": 81,
      "start": 60.8102,
      "duration": 0.0156,
      "velocity": 94,
      "chip": "ym2612"
    },
    {
      "channel": 3,
      "note": 81,
      "start": 60.8114,
      "duration": 0.0184,
      "velocity": 94,
      "chip": "ym2612"
    },
    {
      "channel": 2,
      "note": 52,
      "start": 60.8127,
      "duration": 0.0183,
      "velocity": 100,
      "chip": "ym2612"
    },
    {
      "channel": 1,
      "note": 105,
      "start": 60.8231,
      "duration": 0.0161,
      "velocity": 105,
      "chip": "ym2612"
    },
    {
      "channel": 0,
      "note": 46,
      "start": 60.8247,
      "duration": 0.0161,
      "velocity": 115,
      "chip": "ym2612"
    },
    {
      "channel": 4,
      "note": 81,
      "start": 60.8259,
      "duration": 0.0161,
      "velocity": 94,
      "chip": "ym2612"
    },
    {
      "channel": 3,
      "note": 81,
      "start": 60.8298,
      "duration": 0.016,
      "velocity": 94,
      "chip": "ym2612"
    },
    {
      "channel": 2,
      "note": 52,
      "start": 60.8309,
      "duration": 0.0161,
      "velocity": 100,
      "chip": "ym2612"
    },
    {
      "channel": 1,
      "note": 105,
      "start": 60.8392,
      "duration": 0.0161,
      "velocity": 105,
      "chip": "ym2612"
    },
    {
      "channel": 0,
      "note": 47,
      "start": 60.8408,
      "duration": 0.0161,
      "velocity": 115,
      "chip": "ym2612"
    },
    {
      "channel": 4,
      "note": 81,
      "start": 60.842,
      "duration": 0.0161,
      "velocity": 94,
      "chip": "ym2612"
    },
    {
      "channel": 3,
      "note": 81,
      "start": 60.8459,
      "duration": 0.0134,
      "velocity": 94,
      "chip": "ym2612"
    },
    {
      "channel": 2,
      "note": 52,
      "start": 60.847,
      "duration": 0.0158,
      "velocity": 100,
      "chip": "ym2612"
    },
    {
      "channel": 1,
      "note": 105,
      "start": 60.8553,
      "duration": 0.0161,
      "velocity": 105,
      "chip": "ym2612"
    },
    {
      "channel": 0,
      "note": 47,
      "start": 60.8569,
      "duration": 0.0161,
      "velocity": 115,
      "chip": "ym2612"
    },
    {
      "channel": 4,
      "note": 81,
      "start": 60.8581,
      "duration": 0.0161,
      "velocity": 94,
      "chip": "ym2612"
    },
    {
      "channel": 3,
      "note": 81,
      "start": 60.8593,
      "duration": 0.0161,
      "velocity": 94,
      "chip": "ym2612"
    },
    {
      "channel": 2,
      "note": 52,
      "start": 60.8628,
      "duration": 0.0138,
      "velocity": 100,
      "chip": "ym2612"
    },
    {
      "channel": 1,
      "note": 105,
      "start": 60.8714,
      "duration": 0.0161,
      "velocity": 105,
      "chip": "ym2612"
    },
    {
      "channel": 0,
      "note": 47,
      "start": 60.873,
      "duration": 0.0161,
      "velocity": 115,
      "chip": "ym2612"
    },
    {
      "channel": 4,
      "note": 81,
      "start": 60.8742,
      "duration": 0.0161,
      "velocity": 94,
      "chip": "ym2612"
    },
    {
      "channel": 3,
      "note": 81,
      "start": 60.8754,
      "duration": 0.0161,
      "velocity": 94,
      "chip": "ym2612"
    },
    {
      "channel": 2,
      "note": 52,
      "start": 60.8766,
      "duration": 0.016,
      "velocity": 100,
      "chip": "ym2612"
    },
    {
      "channel": 1,
      "note": 105,
      "start": 60.8875,
      "duration": 0.0184,
      "velocity": 124,
      "chip": "ym2612"
    },
    {
      "channel": 0,
      "note": 48,
      "start": 60.8891,
      "duration": 0.0191,
      "velocity": 115,
      "chip": "ym2612"
    },
    {
      "channel": 4,
      "note": 81,
      "start": 60.8903,
      "duration": 0.0192,
      "velocity": 94,
      "chip": "ym2612"
    },
    {
      "channel": 3,
      "note": 81,
      "start": 60.8915,
      "duration": 0.0222,
      "velocity": 94,
      "chip": "ym2612"
    },
    {
      "channel": 2,
      "note": 52,
      "start": 60.8925,
      "duration": 0.0225,
      "velocity": 100,
      "chip": "ym2612"
    },
    {
      "channel": 1,
      "note": 78,
      "start": 60.9058,
      "duration": 0.0144,
      "velocity": 124,
      "chip": "ym2612"
    },
    {
      "channel": 0,
      "note": 48,
      "start": 60.9083,
      "duration": 0.0139,
      "velocity": 115,
      "chip": "ym2612"
    },
    {
      "channel": 4,
      "note": 81,
      "start": 60.9095,
      "duration": 0.0139,
      "velocity": 94,
      "chip": "ym2612"
    },
    {
      "channel": 3,
      "note": 81,
      "start": 60.9137,
      "duration": 0.0109,
      "velocity": 94,
      "chip": "ym2612"
    },
    {
      "channel": 2,
      "note": 52,
      "start": 60.9151,
      "duration": 0.0106,
      "velocity": 100,
      "chip": "ym2612"
    },
    {
      "channel": 1,
      "note": 76,
      "start": 60.9202,
      "duration": 0.016,
      "velocity": 124,
      "chip": "ym2612"
    },
    {
      "channel": 0,
      "note": 49,
      "start": 60.9221,
      "duration": 0.0152,
      "velocity": 1,
      "chip": "ym2612"
    },
    {
      "channel": 4,
      "note": 81,
      "start": 60.9234,
      "duration": 0.0151,
      "velocity": 94,
      "chip": "ym2612"
    },
    {
      "channel": 3,
      "note": 81,
      "start": 60.9245,
      "duration": 0.0151,
      "velocity": 94,
      "chip": "ym2612"
    },
    {
      "channel": 2,
      "note": 52,
      "start": 60.9258,
      "duration": 0.015,
      "velocity": 100,
      "chip": "ym2612"
    },
    {
      "channel": 1,
      "note": 75,
      "start": 60.9362,
      "duration": 0.0162,
      "velocity": 124,
      "chip": "ym2612"
    },
    {
      "channel": 4,
      "note": 81,
      "start": 60.9385,
      "duration": 0.0153,
      "velocity": 94,
      "chip": "ym2612"
    },
    {
      "channel": 3,
      "note": 81,
      "start": 60.9396,
      "duration": 0.0153,
      "velocity": 94,
      "chip": "ym2612"
    },
    {
      "channel": 2,
      "note": 52,
      "start": 60.9408,
      "duration": 0.0153,
      "velocity": 100,
      "chip": "ym2612"
    },
    {
      "channel": 1,
      "note": 74,
      "start": 60.9524,
      "duration": 0.016,
      "velocity": 124,
      "chip": "ym2612"
    },
    {
      "channel": 4,
      "note": 81,
      "start": 60.9537,
      "duration": 0.0161,
      "velocity": 94,
      "chip": "ym2612"
    },
    {
      "channel": 3,
      "note": 81,
      "start": 60.9549,
      "duration": 0.0161,
      "velocity": 94,
      "chip": "ym2612"
    },
    {
      "channel": 2,
      "note": 52,
      "start": 60.956,
      "duration": 0.0161,
      "velocity": 100,
      "chip": "ym2612"
    },
    {
      "channel": 1,
      "note": 72,
      "start": 60.9684,
      "duration": 0.0162,
      "velocity": 124,
      "chip": "ym2612"
    },
    {
      "channel": 4,
      "note": 81,
      "start": 60.9698,
      "duration": 0.0161,
      "velocity": 94,
      "chip": "ym2612"
    },
    {
      "channel": 3,
      "note": 81,
      "start": 60.971,
      "duration": 0.0162,
      "velocity": 94,
      "chip": "ym2612"
    },
    {
      "channel": 2,
      "note": 52,
      "start": 60.9721,
      "duration": 0.0161,
      "velocity": 100,
      "chip": "ym2612"
    },
    {
      "channel": 1,
      "note": 71,
      "start": 60.9846,
      "duration": 0.0161,
      "velocity": 124,
      "chip": "ym2612"
    },
    {
      "channel": 4,
      "note": 81,
      "start": 60.986,
      "duration": 0.0161,
      "velocity": 94,
      "chip": "ym2612"
    },
    {
      "channel": 3,
      "note": 81,
      "start": 60.9871,
      "duration": 0.0161,
      "velocity": 94,
      "chip": "ym2612"
    },
    {
      "channel": 2,
      "note": 52,
      "start": 60.9882,
      "duration": 0.0161,
      "velocity": 100,
      "chip": "ym2612"
    },
    {
      "channel": 1,
      "note": 70,
      "start": 61.0007,
      "duration": 0.0161,
      "velocity": 124,
      "chip": "ym2612"
    },
    {
      "channel": 4,
      "note": 81,
      "start": 61.0021,
      "duration": 0.0168,
      "velocity": 94,
      "chip": "ym2612"
    },
    {
      "channel": 3,
      "note": 81,
      "start": 61.0032,
      "duration": 0.017,
      "velocity": 94,
      "chip": "ym2612"
    },
    {
      "channel": 2,
      "note": 52,
      "start": 61.0043,
      "duration": 0.0173,
      "velocity": 100,
      "chip": "ym2612"
    },
    {
      "channel": 1,
      "note": 69,
      "start": 61.0168,
      "duration": 0.0161,
      "velocity": 124,
      "chip": "ym2612"
    },
    {
      "channel": 4,
      "note": 76,
      "start": 61.0189,
      "duration": 0.0155,
      "velocity": 94,
      "chip": "ym2612"
    },
    {
      "channel": 3,
      "note": 81,
      "start": 61.0202,
      "duration": 0.0154,
      "velocity": 94,
      "chip": "ym2612"
    },
    {
      "channel": 2,
      "note": 52,
      "start": 61.0217,
      "duration": 0.0151,
      "velocity": 100,
      "chip": "ym2612"
    },
    {
      "channel": 1,
      "note": 68,
      "start": 61.0329,
      "duration": 0.0161,
      "velocity": 124,
      "chip": "ym2612"
    },
    {
      "channel": 4,
      "note": 76,
      "start": 61.0344,
      "duration": 0.016,
      "velocity": 94,
      "chip": "ym2612"
    },
    {
      "channel": 3,
      "note": 81,
      "start": 61.0356,
      "duration": 0.016,
      "velocity": 94,
      "chip": "ym2612"
    },
    {
      "channel": 2,
      "note": 52,
      "start": 61.0368,
      "duration": 0.0159,
      "velocity": 100,
      "chip": "ym2612"
    },
    {
      "channel": 1,
      "note": 66,
      "start": 61.049,
      "duration": 0.0161,
      "velocity": 124,
      "chip": "ym2612"
    },
    {
      "channel": 4,
      "note": 76,
      "start": 61.0504,
      "duration": 0.0161,
      "velocity": 94,
      "chip": "ym2612"
    },
    {
      "channel": 3,
      "note": 81,
      "start": 61.0515,
      "duration": 0.0161,
      "velocity": 94,
      "chip": "ym2612"
    },
    {
      "channel": 2,
      "note": 52,
      "start": 61.0527,
      "duration": 0.0161,
      "velocity": 100,
      "chip": "ym2612"
    },
    {
      "channel": 1,
      "note": 65,
      "start": 61.0651,
      "duration": 0.0161,
      "velocity": 124,
      "chip": "ym2612"
    },
    {
      "channel": 4,
      "note": 76,
      "start": 61.0665,
      "duration": 0.0161,
      "velocity": 94,
      "chip": "ym2612"
    },
    {
      "channel": 3,
      "note": 81,
      "start": 61.0676,
      "duration": 0.0161,
      "velocity": 94,
      "chip": "ym2612"
    },
    {
      "channel": 2,
      "note": 52,
      "start": 61.0688,
      "duration": 0.0161,
      "velocity": 100,
      "chip": "ym2612"
    },
    {
      "channel": 1,
      "note": 64,
      "start": 61.0812,
      "duration": 0.0166,
      "velocity": 124,
      "chip": "ym2612"
    },
    {
      "channel": 4,
      "note": 76,
      "start": 61.0826,
      "duration": 0.0166,
      "velocity": 94,
      "chip": "ym2612"
    },
    {
      "channel": 3,
      "note": 81,
      "start": 61.0837,
      "duration": 0.0166,
      "velocity": 94,
      "chip": "ym2612"
    },
    {
      "channel": 2,
      "note": 52,
      "start": 61.0849,
      "duration": 0.0166,
      "velocity": 100,
      "chip": "ym2612"
    },
    {
      "channel": 1,
      "note": 62,
      "start": 61.0978,
      "duration": 0.0167,
      "velocity": 124,
      "chip": "ym2612"
    },
    {
      "channel": 4,
      "note": 76,
      "start": 61.0992,
      "duration": 0.0167,
      "velocity": 94,
      "chip": "ym2612"
    },
    {
      "channel": 3,
      "note": 81,
      "start": 61.1003,
      "duration": 0.0167,
      "velocity": 94,
      "chip": "ym2612"
    },
    {
      "channel": 2,
      "note": 52,
      "start": 61.1015,
      "duration": 0.0167,
      "velocity": 100,
      "chip": "ym2612"
    },
    {
      "channel": 1,
      "note": 61,
      "start": 61.1145,
      "duration": 0.0163,
      "velocity": 124,
      "chip": "ym2612"
    },
    {
      "channel": 4,
      "note": 76,
      "start": 61.1158,
      "duration": 0.017,
      "velocity": 94,
      "chip": "ym2612"
    },
    {
      "channel": 3,
      "note": 81,
      "start": 61.117,
      "duration": 0.0172,
      "velocity": 94,
      "chip": "ym2612"
    },
    {
      "channel": 2,
      "note": 52,
      "start": 61.1181,
      "duration": 0.0175,
      "velocity": 100,
      "chip": "ym2612"
    },
    {
      "channel": 1,
      "note": 60,
      "start": 61.1308,
      "duration": 0.0148,
      "velocity": 124,
      "chip": "ym2612"
    },
    {
      "channel": 4,
      "note": 76,
      "start": 61.1328,
      "duration": 0.0142,
      "velocity": 94,
      "chip": "ym2612"
    },
    {
      "channel": 3,
      "note": 76,
      "start": 61.1342,
      "duration": 0.0141,
      "velocity": 94,
      "chip": "ym2612"
    },
    {
      "channel": 2,
      "note": 52,
      "start": 61.1357,
      "duration": 0.0138,
      "velocity": 100,
      "chip": "ym2612"
    },
    {
      "channel": 1,
      "note": 59,
      "start": 61.1456,
      "duration": 0.0188,
      "velocity": 124,
      "chip": "ym2612"
    },
    {
      "channel": 4,
      "note": 76,
      "start": 61.1471,
      "duration": 0.0188,
      "velocity": 94,
      "chip": "ym2612"
    },
    {
      "channel": 3,
      "note": 76,
      "start": 61.1483,
      "duration": 0.0187,
      "velocity": 94,
      "chip": "ym2612"
    },
    {
      "channel": 2,
      "note": 52,
      "start": 61.1495,
      "duration": 0.0186,
      "velocity": 100,
      "chip": "ym2612"
    },
    {
      "channel": 1,
      "note": 57,
      "start": 61.1644,
      "duration": 0.0161,
      "velocity": 124,
      "chip": "ym2612"
    },
    {
      "channel": 4,
      "note": 76,
      "start": 61.1658,
      "duration": 0.0161,
      "velocity": 94,
      "chip": "ym2612"
    },
    {
      "channel": 3,
      "note": 76,
      "start": 61.167,
      "duration": 0.0161,
      "velocity": 94,
      "chip": "ym2612"
    },
    {
      "channel": 2,
      "note": 52,
      "start": 61.1681,
      "duration": 0.0161,
      "velocity": 100,
      "chip": "ym2612"
    },
    {
      "channel": 1,
      "note": 56,
      "start": 61.1805,
      "duration": 0.0158,
      "velocity": 124,
      "chip": "ym2612"
    },
    {
      "channel": 4,
      "note": 76,
      "start": 61.1819,
      "duration": 0.0157,
      "velocity": 94,
      "chip": "ym2612"
    },
    {
      "channel": 3,
      "note": 76,
      "start": 61.1831,
      "duration": 0.0157,
      "velocity": 94,
      "chip": "ym2612"
    },
    {
      "channel": 2,
      "note": 52,
      "start": 61.1842,
      "duration": 0.0157,
      "velocity": 100,
      "chip": "ym2612"
    },
    {
      "channel": 1,
      "note": 55,
      "start": 61.1963,
      "duration": 0.014,
      "velocity": 124,
      "chip": "ym2612"
    },
    {
      "channel": 4,
      "note": 76,
      "start": 61.1976,
      "duration": 0.0141,
      "velocity": 94,
      "chip": "ym2612"
    },
    {
      "channel": 3,
      "note": 76,
      "start": 61.1988,
      "duration": 0.0141,
      "velocity": 94,
      "chip": "ym2612"
    },
    {
      "channel": 2,
      "note": 52,
      "start": 61.1999,
      "duration": 0.0141,
      "velocity": 100,
      "chip": "ym2612"
    },
    {
      "channel": 1,
      "note": 53,
      "start": 61.2103,
      "duration": 0.0158,
      "velocity": 124,
      "chip": "ym2612"
    },
    {
      "channel": 4,
      "note": 76,
      "start": 61.2117,
      "duration": 0.0185,
      "velocity": 94,
      "chip": "ym2612"
    },
    {
      "channel": 3,
      "note": 76,
      "start": 61.2128,
      "duration": 0.0185,
      "velocity": 94,
      "chip": "ym2612"
    },
    {
      "channel": 2,
      "note": 52,
      "start": 61.214,
      "duration": 0.0185,
      "velocity": 100,
      "chip": "ym2612"
    },
    {
      "channel": 1,
      "note": 52,
      "start": 61.2261,
      "duration": 0.0161,
      "velocity": 124,
      "chip": "ym2612"
    },
    {
      "channel": 4,
      "note": 76,
      "start": 61.2302,
      "duration": 0.0203,
      "velocity": 94,
      "chip": "ym2612"
    },
    {
      "channel": 3,
      "note": 76,
      "start": 61.2313,
      "duration": 0.0204,
      "velocity": 94,
      "chip": "ym2612"
    },
    {
      "channel": 2,
      "note": 52,
      "start": 61.2325,
      "duration": 0.0207,
      "velocity": 100,
      "chip": "ym2612"
    },
    {
      "channel": 1,
      "note": 51,
      "start": 61.2422,
      "duration": 0.0153,
      "velocity": 1,
      "chip": "ym2612"
    },
    {
      "channel": 0,
      "note": 78,
      "start": 61.2492,
      "duration": 0.0146,
      "velocity": 127,
      "chip": "ym2612"
    },
    {
      "channel": 4,
      "note": 76,
      "start": 61.2505,
      "duration": 0.0145,
      "velocity": 94,
      "chip": "ym2612"
    },
    {
      "channel": 3,
      "note": 76,
      "start": 61.2518,
      "duration": 0.0144,
      "velocity": 94,
      "chip": "ym2612"
    },
    {
      "channel": 2,
      "note": 52,
      "start": 61.2532,
      "duration": 0.0141,
      "velocity": 100,
      "chip": "ym2612"
    },
    {
      "channel": 1,
      "note": 51,
      "start": 61.2597,
      "duration": 0.0142,
      "velocity": 105,
      "chip": "ym2612"
    },
    {
      "channel": 0,
      "note": 76,
      "start": 61.2638,
      "duration": 0.0118,
      "velocity": 127,
      "chip": "ym2612"
    },
    {
      "channel": 4,
      "note": 76,
      "start": 61.265,
      "duration": 0.0121,
      "velocity": 94,
      "chip": "ym2612"
    },
    {
      "channel": 3,
      "note": 76,
      "start": 61.2662,
      "duration": 0.012,
      "velocity": 94,
      "chip": "ym2612"
    },
    {
      "channel": 2,
      "note": 52,
      "start": 61.2673,
      "duration": 0.012,
      "velocity": 100,
      "chip": "ym2612"
    },
    {
      "channel": 1,
      "note": 105,
      "start": 61.2739,
      "duration": 0.0161,
      "velocity": 105,
      "chip": "ym2612"
    },
    {
      "channel": 0,
      "note": 75,
      "start": 61.2756,
      "duration": 0.0161,
      "velocity": 127,
      "chip": "ym2612"
    },
    {
      "channel": 4,
      "note": 76,
      "start": 61.2771,
      "duration": 0.0158,
      "velocity": 94,
      "chip": "ym2612"
    },
    {
      "channel": 3,
      "note": 76,
      "start": 61.2782,
      "duration": 0.0186,
      "velocity": 94,
      "chip": "ym2612"
    },
    {
      "channel": 2,
      "note": 52,
      "start": 61.2793,
      "duration": 0.0186,
      "velocity": 100,
      "chip": "ym2612"
    },
    {
      "channel": 1,
      "note": 105,
      "start": 61.29,
      "duration": 0.0161,
      "velocity": 105,
      "chip": "ym2612"
    },
    {
      "channel": 0,
      "note": 73,
      "start": 61.2917,
      "duration": 0.0161,
      "velocity": 127,
      "chip": "ym2612"
    },
    {
      "channel": 4,
      "note": 76,
      "start": 61.2929,
      "duration": 0.0161,
      "velocity": 94,
      "chip": "ym2612"
    },
    {
      "channel": 3,
      "note": 76,
      "start": 61.2967,
      "duration": 0.0161,
      "velocity": 94,
      "chip": "ym2612"
    },
    {
      "channel": 2,
      "note": 52,
      "start": 61.2979,
      "duration": 0.0161,
      "velocity": 100,
      "chip": "ym2612"
    },
    {
      "channel": 1,
      "note": 105,
      "start": 61.3061,
      "duration": 0.0161,
      "velocity": 105,
      "chip": "ym2612"
    },
    {
      "channel": 0,
      "note": 71,
      "start": 61.3078,
      "duration": 0.0161,
      "velocity": 127,
      "chip": "ym2612"
    },
    {
      "channel": 4,
      "note": 76,
      "start": 61.309,
      "duration": 0.0161,
      "velocity": 94,
      "chip": "ym2612"
    },
    {
      "channel": 3,
      "note": 76,
      "start": 61.3128,
      "duration": 0.0134,
      "velocity": 94,
      "chip": "ym2612"
    },
    {
      "channel": 2,
      "note": 52,
      "start": 61.314,
      "duration": 0.0157,
      "velocity": 100,
      "chip": "ym2612"
    },
    {
      "channel": 1,
      "note": 105,
      "start": 61.3222,
      "duration": 0.0161,
      "velocity": 105,
      "chip": "ym2612"
    },
    {
      "channel": 0,
      "note": 70,
      "start": 61.3238,
      "duration": 0.0161,
      "velocity": 127,
      "chip": "ym2612"
    },
    {
      "channel": 4,
      "note": 76,
      "start": 61.3251,
      "duration": 0.016,
      "velocity": 94,
      "chip": "ym2612"
    },
    {
      "channel": 3,
      "note": 76,
      "start": 61.3262,
      "duration": 0.016,
      "velocity": 94,
      "chip": "ym2612"
    },
    {
      "channel": 2,
      "note": 52,
      "start": 61.3297,
      "duration": 0.014,
      "velocity": 100,
      "chip": "ym2612"
    },
    {
      "channel": 1,
      "note": 105,
      "start": 61.3383,
      "duration": 0.0178,
      "velocity": 124,
      "chip": "ym2612"
    },
    {
      "channel": 0,
      "note": 68,
      "start": 61.3399,
      "duration": 0.0197,
      "velocity": 115,
      "chip": "ym2612"
    },
    {
      "channel": 4,
      "note": 76,
      "start": 61.3411,
      "duration": 0.0226,
      "velocity": 94,
      "chip": "ym2612"
    },
    {
      "channel": 3,
      "note": 76,
      "start": 61.3422,
      "duration": 0.0227,
      "velocity": 94,
      "chip": "ym2612"
    },
    {
      "channel": 2,
      "note": 52,
      "start": 61.3437,
      "duration": 0.0226,
      "velocity": 100,
      "chip": "ym2612"
    },
    {
      "channel": 1,
      "note": 64,
      "start": 61.3562,
      "duration": 0.0146,
      "velocity": 124,
      "chip": "ym2612"
    },
    {
      "channel": 0,
      "note": 36,
      "start": 61.3596,
      "duration": 0.013,
      "velocity": 115,
      "chip": "ym2612"
    },
    {
      "channel": 4,
      "note": 76,
      "start": 61.3637,
      "duration": 0.0101,
      "velocity": 94,
      "chip": "ym2612"
    },
    {
      "channel": 3,
      "note": 76,
      "start": 61.3649,
      "duration": 0.01,
      "velocity": 94,
      "chip": "ym2612"
    },
    {
      "channel": 2,
      "note": 55,
      "start": 61.3664,
      "duration": 0.0097,
      "velocity": 100,
      "chip": "ym2612"
    },
    {
      "channel": 1,
      "note": 64,
      "start": 61.3708,
      "duration": 0.0158,
      "velocity": 124,
      "chip": "ym2612"
    },
    {
      "channel": 0,
      "note": 36,
      "start": 61.3726,
      "duration": 0.0157,
      "velocity": 115,
      "chip": "ym2612"
    },
    {
      "channel": 4,
      "note": 76,
      "start": 61.3738,
      "duration": 0.0156,
      "velocity": 94,
      "chip": "ym2612"
    },
    {
      "channel": 3,
      "note": 76,
      "start": 61.375,
      "duration": 0.0156,
      "velocity": 94,
      "chip": "ym2612"
    },
    {
      "channel": 2,
      "note": 55,
      "start": 61.3761,
      "duration": 0.0156,
      "velocity": 100,
      "chip": "ym2612"
    },
    {
      "channel": 1,
      "note": 64,
      "start": 61.3866,
      "duration": 0.0161,
      "velocity": 124,
      "chip": "ym2612"
    },
    {
      "channel": 0,
      "note": 37,
      "start": 61.3883,
      "duration": 0.0161,
      "velocity": 115,
      "chip": "ym2612"
    },
    {
      "channel": 4,
      "note": 76,
      "start": 61.3894,
      "duration": 0.0161,
      "velocity": 94,
      "chip": "ym2612"
    },
    {
      "channel": 3,
      "note": 76,
      "start": 61.3906,
      "duration": 0.0161,
      "velocity": 94,
      "chip": "ym2612"
    },
    {
      "channel": 2,
      "note": 55,
      "start": 61.3917,
      "duration": 0.0161,
      "velocity": 100,
      "chip": "ym2612"
    },
    {
      "channel": 1,
      "note": 64,
      "start": 61.4027,
      "duration": 0.0161,
      "velocity": 124,
      "chip": "ym2612"
    },
    {
      "channel": 0,
      "note": 37,
      "start": 61.4044,
      "duration": 0.0161,
      "velocity": 115,
      "chip": "ym2612"
    },
    {
      "channel": 4,
      "note": 76,
      "start": 61.4055,
      "duration": 0.0162,
      "velocity": 94,
      "chip": "ym2612"
    },
    {
      "channel": 3,
      "note": 76,
      "start": 61.4067,
      "duration": 0.0162,
      "velocity": 94,
      "chip": "ym2612"
    },
    {
      "channel": 2,
      "note": 55,
      "start": 61.4078,
      "duration": 0.0161,
      "velocity": 100,
      "chip": "ym2612"
    },
    {
      "channel": 1,
      "note": 64,
      "start": 61.4188,
      "duration": 0.0161,
      "velocity": 124,
      "chip": "ym2612"
    },
    {
      "channel": 0,
      "note": 38,
      "start": 61.4205,
      "duration": 0.0161,
      "velocity": 115,
      "chip": "ym2612"
    },
    {
      "channel": 4,
      "note": 76,
      "start": 61.4217,
      "duration": 0.0161,
      "velocity": 94,
      "chip": "ym2612"
    },
    {
      "channel": 3,
      "note": 76,
      "start": 61.4228,
      "duration": 0.0161,
      "velocity": 94,
      "chip": "ym2612"
    },
    {
      "channel": 2,
      "note": 55,
      "start": 61.4239,
      "duration": 0.0161,
      "velocity": 100,
      "chip": "ym2612"
    },
    {
      "channel": 1,
      "note": 64,
      "start": 61.4349,
      "duration": 0.0161,
      "velocity": 124,
      "chip": "ym2612"
    },
    {
      "channel": 0,
      "note": 38,
      "start": 61.4366,
      "duration": 0.0161,
      "velocity": 115,
      "chip": "ym2612"
    },
    {
      "channel": 4,
      "note": 76,
      "start": 61.4378,
      "duration": 0.0161,
      "velocity": 94,
      "chip": "ym2612"
    },
    {
      "channel": 3,
      "note": 76,
      "start": 61.4389,
      "duration": 0.0161,
      "velocity": 94,
      "chip": "ym2612"
    },
    {
      "channel": 2,
      "note": 55,
      "start": 61.44,
      "duration": 0.0161,
      "velocity": 100,
      "chip": "ym2612"
    },
    {
      "channel": 1,
      "note": 64,
      "start": 61.451,
      "duration": 0.0178,
      "velocity": 105,
      "chip": "ym2612"
    },
    {
      "channel": 0,
      "note": 39,
      "start": 61.4527,
      "duration": 0.0179,
      "velocity": 115,
      "chip": "ym2612"
    },
    {
      "channel": 4,
      "note": 76,
      "start": 61.4539,
      "duration": 0.018,
      "velocity": 94,
      "chip": "ym2612"
    },
    {
      "channel": 3,
      "note": 76,
      "start": 61.455,
      "duration": 0.0182,
      "velocity": 94,
      "chip": "ym2612"
    },
    {
      "channel": 2,
      "note": 55,
      "start": 61.4561,
      "duration": 0.0185,
      "velocity": 100,
      "chip": "ym2612"
    },
    {
      "channel": 1,
      "note": 105,
      "start": 61.4688,
      "duration": 0.0144,
      "velocity": 105,
      "chip": "ym2612"
    },
    {
      "channel": 0,
      "note": 39,
      "start": 61.4705,
      "duration": 0.0144,
      "velocity": 115,
      "chip": "ym2612"
    },
    {
      "channel": 4,
      "note": 79,
      "start": 61.4719,
      "duration": 0.0143,
      "velocity": 94,
      "chip": "ym2612"
    },
    {
      "channel": 3,
      "note": 76,
      "start": 61.4732,
      "duration": 0.0141,
      "velocity": 94,
      "chip": "ym2612"
    },
    {
      "channel": 2,
      "note": 55,
      "start": 61.4747,
      "duration": 0.0139,
      "velocity": 100,
      "chip": "ym2612"
    },
    {
      "channel": 1,
      "note": 105,
      "start": 61.4833,
      "duration": 0.016,
      "velocity": 105,
      "chip": "ym2612"
    },
    {
      "channel": 0,
      "note": 40,
      "start": 61.4849,
      "duration": 0.016,
      "velocity": 115,
      "chip": "ym2612"
    },
    {
      "channel": 4,
      "note": 79,
      "start": 61.4862,
      "duration": 0.016,
      "velocity": 94,
      "chip": "ym2612"
    },
    {
      "channel": 3,
      "note": 76,
      "start": 61.4873,
      "duration": 0.016,
      "velocity": 94,
      "chip": "ym2612"
    },
    {
      "channel": 2,
      "note": 55,
      "start": 61.4885,
      "duration": 0.0159,
      "velocity": 100,
      "chip": "ym2612"
    },
    {
      "channel": 1,
      "note": 105,
      "start": 61.4993,
      "duration": 0.0161,
      "velocity": 105,
      "chip": "ym2612"
    },
    {
      "channel": 0,
      "note": 40,
      "start": 61.5009,
      "duration": 0.0162,
      "velocity": 115,
      "chip": "ym2612"
    },
    {
      "channel": 4,
      "note": 79,
      "start": 61.5022,
      "duration": 0.0161,
      "velocity": 94,
      "chip": "ym2612"
    },
    {
      "channel": 3,
      "note": 76,
      "start": 61.5033,
      "duration": 0.0161,
      "velocity": 94,
      "chip": "ym2612"
    },
    {
      "channel": 2,
      "note": 55,
      "start": 61.5044,
      "duration": 0.0162,
      "velocity": 100,
      "chip": "ym2612"
    },
    {
      "channel": 1,
      "note": 105,
      "start": 61.5154,
      "duration": 0.0162,
      "velocity": 105,
      "chip": "ym2612"
    },
    {
      "channel": 0,
      "note": 40,
      "start": 61.5171,
      "duration": 0.0161,
      "velocity": 115,
      "chip": "ym2612"
    },
    {
      "channel": 4,
      "note": 79,
      "start": 61.5183,
      "duration": 0.0161,
      "velocity": 94,
      "chip": "ym2612"
    },
    {
      "channel": 3,
      "note": 76,
      "start": 61.5194,
      "duration": 0.0161,
      "velocity": 94,
      "chip": "ym2612"
    },
    {
      "channel": 2,
      "note": 55,
      "start": 61.5205,
      "duration": 0.0161,
      "velocity": 100,
      "chip": "ym2612"
    },
    {
      "channel": 1,
      "note": 105,
      "start": 61.5315,
      "duration": 0.0161,
      "velocity": 105,
      "chip": "ym2612"
    },
    {
      "channel": 0,
      "note": 41,
      "start": 61.5332,
      "duration": 0.0161,
      "velocity": 115,
      "chip": "ym2612"
    },
    {
      "channel": 4,
      "note": 79,
      "start": 61.5343,
      "duration": 0.0161,
      "velocity": 94,
      "chip": "ym2612"
    },
    {
      "channel": 3,
      "note": 76,
      "start": 61.5355,
      "duration": 0.0161,
      "velocity": 94,
      "chip": "ym2612"
    },
    {
      "channel": 2,
      "note": 55,
      "start": 61.5366,
      "duration": 0.0161,
      "velocity": 100,
      "chip": "ym2612"
    },
    {
      "channel": 1,
      "note": 105,
      "start": 61.5476,
      "duration": 0.0163,
      "velocity": 105,
      "chip": "ym2612"
    },
    {
      "channel": 0,
      "note": 41,
      "start": 61.5493,
      "duration": 0.0163,
      "velocity": 115,
      "chip": "ym2612"
    },
    {
      "channel": 4,
      "note": 79,
      "start": 61.5504,
      "duration": 0.0163,
      "velocity": 94,
      "chip": "ym2612"
    },
    {
      "channel": 3,
      "note": 76,
      "start": 61.5516,
      "duration": 0.0163,
      "velocity": 94,
      "chip": "ym2612"
    },
    {
      "channel": 2,
      "note": 55,
      "start": 61.5527,
      "duration": 0.0163,
      "velocity": 100,
      "chip": "ym2612"
    },
    {
      "channel": 1,
      "note": 105,
      "start": 61.564,
      "duration": 0.0183,
      "velocity": 124,
      "chip": "ym2612"
    },
    {
      "channel": 0,
      "note": 42,
      "start": 61.5656,
      "duration": 0.0184,
      "velocity": 115,
      "chip": "ym2612"
    },
    {
      "channel": 4,
      "note": 79,
      "start": 61.5668,
      "duration": 0.0186,
      "velocity": 94,
      "chip": "ym2612"
    },
    {
      "channel": 3,
      "note": 76,
      "start": 61.5679,
      "duration": 0.0188,
      "velocity": 94,
      "chip": "ym2612"
    },
    {
      "channel": 2,
      "note": 55,
      "start": 61.5691,
      "duration": 0.0191,
      "velocity": 100,
      "chip": "ym2612"
    },
    {
      "channel": 1,
      "note": 64,
      "start": 61.5824,
      "duration": 0.0146,
      "velocity": 124,
      "chip": "ym2612"
    },
    {
      "channel": 0,
      "note": 42,
      "start": 61.584,
      "duration": 0.0146,
      "velocity": 115,
      "chip": "ym2612"
    },
    {
      "channel": 4,
      "note": 79,
      "start": 61.5854,
      "duration": 0.0145,
      "velocity": 94,
      "chip": "ym2612"
    },
    {
      "channel": 3,
      "note": 79,
      "start": 61.5868,
      "duration": 0.0143,
      "velocity": 94,
      "chip": "ym2612"
    },
    {
      "channel": 2,
      "note": 55,
      "start": 61.5882,
      "duration": 0.0141,
      "velocity": 100,
      "chip": "ym2612"
    },
    {
      "channel": 1,
      "note": 64,
      "start": 61.597,
      "duration": 0.015,
      "velocity": 124,
      "chip": "ym2612"
    },
    {
      "channel": 0,
      "note": 43,
      "start": 61.5986,
      "duration": 0.015,
      "velocity": 115,
      "chip": "ym2612"
    },
    {
      "channel": 4,
      "note": 79,
      "start": 61.5999,
      "duration": 0.015,
      "velocity": 94,
      "chip": "ym2612"
    },
    {
      "channel": 3,
      "note": 79,
      "start": 61.6011,
      "duration": 0.0149,
      "velocity": 94,
      "chip": "ym2612"
    },
    {
      "channel": 2,
      "note": 55,
      "start": 61.6023,
      "duration": 0.0148,
      "velocity": 100,
      "chip": "ym2612"
    },
    {
      "channel": 1,
      "note": 64,
      "start": 61.612,
      "duration": 0.0186,
      "velocity": 124,
      "chip": "ym2612"
    },
    {
      "channel": 0,
      "note": 43,
      "start": 61.6137,
      "duration": 0.0186,
      "velocity": 115,
      "chip": "ym2612"
    },
    {
      "channel": 4,
      "note": 79,
      "start": 61.6149,
      "duration": 0.0186,
      "velocity": 94,
      "chip": "ym2612"
    },
    {
      "channel": 3,
      "note": 79,
      "start": 61.616,
      "duration": 0.0186,
      "velocity": 94,
      "chip": "ym2612"
    },
    {
      "channel": 2,
      "note": 55,
      "start": 61.6171,
      "duration": 0.0186,
      "velocity": 100,
      "chip": "ym2612"
    },
    {
      "channel": 1,
      "note": 64,
      "start": 61.6307,
      "duration": 0.0163,
      "velocity": 124,
      "chip": "ym2612"
    },
    {
      "channel": 0,
      "note": 44,
      "start": 61.6323,
      "duration": 0.0163,
      "velocity": 115,
      "chip": "ym2612"
    },
    {
      "channel": 4,
      "note": 79,
      "start": 61.6334,
      "duration": 0.0163,
      "velocity": 94,
      "chip": "ym2612"
    },
    {
      "channel": 3,
      "note": 79,
      "start": 61.6346,
      "duration": 0.0163,
      "velocity": 94,
      "chip": "ym2612"
    },
    {
      "channel": 2,
      "note": 55,
      "start": 61.6357,
      "duration": 0.0163,
      "velocity": 100,
      "chip": "ym2612"
    },
    {
      "channel": 1,
      "note": 64,
      "start": 61.647,
      "duration": 0.0157,
      "velocity": 124,
      "chip": "ym2612"
    },
    {
      "channel": 0,
      "note": 44,
      "start": 61.6486,
      "duration": 0.0158,
      "velocity": 115,
      "chip": "ym2612"
    },
    {
      "channel": 4,
      "note": 79,
      "start": 61.6498,
      "duration": 0.0158,
      "velocity": 94,
      "chip": "ym2612"
    },
    {
      "channel": 3,
      "note": 79,
      "start": 61.6509,
      "duration": 0.0158,
      "velocity": 94,
      "chip": "ym2612"
    },
    {
      "channel": 2,
      "note": 55,
      "start": 61.6521,
      "duration": 0.0158,
      "velocity": 100,
      "chip": "ym2612"
    },
    {
      "channel": 1,
      "note": 64,
      "start": 61.6627,
      "duration": 0.0137,
      "velocity": 124,
      "chip": "ym2612"
    },
    {
      "channel": 0,
      "note": 44,
      "start": 61.6644,
      "duration": 0.014,
      "velocity": 115,
      "chip": "ym2612"
    },
    {
      "channel": 4,
      "note": 79,
      "start": 61.6656,
      "duration": 0.0141,
      "velocity": 94,
      "chip": "ym2612"
    },
    {
      "channel": 3,
      "note": 79,
      "start": 61.6667,
      "duration": 0.0141,
      "velocity": 94,
      "chip": "ym2612"
    },
    {
      "channel": 2,
      "note": 55,
      "start": 61.6679,
      "duration": 0.014,
      "velocity": 100,
      "chip": "ym2612"
    },
    {
      "channel": 1,
      "note": 64,
      "start": 61.6764,
      "duration": 0.0205,
      "velocity": 105,
      "chip": "ym2612"
    },
    {
      "channel": 0,
      "note": 45,
      "start": 61.6784,
      "duration": 0.0202,
      "velocity": 115,
      "chip": "ym2612"
    },
    {
      "channel": 4,
      "note": 79,
      "start": 61.6796,
      "duration": 0.0204,
      "velocity": 94,
      "chip": "ym2612"
    },
    {
      "channel": 3,
      "note": 79,
      "start": 61.6808,
      "duration": 0.0206,
      "velocity": 94,
      "chip": "ym2612"
    },
    {
      "channel": 2,
      "note": 55,
      "start": 61.6819,
      "duration": 0.0209,
      "velocity": 100,
      "chip": "ym2612"
    },
    {
      "channel": 1,
      "note": 105,
      "start": 61.697,
      "duration": 0.0116,
      "velocity": 105,
      "chip": "ym2612"
    },
    {
      "channel": 0,
      "note": 45,
      "start": 61.6986,
      "duration": 0.0144,
      "velocity": 115,
      "chip": "ym2612"
    },
    {
      "channel": 4,
      "note": 79,
      "start": 61.7001,
      "duration": 0.0142,
      "velocity": 94,
      "chip": "ym2612"
    },
    {
      "channel": 3,
      "note": 79,
      "start": 61.7014,
      "duration": 0.0141,
      "velocity": 94,
      "chip": "ym2612"
    },
    {
      "channel": 2,
      "note": 55,
      "start": 61.7029,
      "duration": 0.0139,
      "velocity": 100,
      "chip": "ym2612"
    },
    {
      "channel": 1,
      "note": 105,
      "start": 61.7086,
      "duration": 0.0161,
      "velocity": 105,
      "chip": "ym2612"
    },
    {
      "channel": 0,
      "note": 46,
      "start": 61.7131,
      "duration": 0.0133,
      "velocity": 115,
      "chip": "ym2612"
    },
    {
      "channel": 4,
      "note": 79,
      "start": 61.7143,
      "duration": 0.0156,
      "velocity": 94,
      "chip": "ym2612"
    },
    {
      "channel": 3,
      "note": 79,
      "start": 61.7155,
      "duration": 0.0156,
      "velocity": 94,
      "chip": "ym2612"
    },
    {
      "channel": 2,
      "note": 55,
      "start": 61.7167,
      "duration": 0.0155,
      "velocity": 100,
      "chip": "ym2612"
    },
    {
      "channel": 1,
      "note": 105,
      "start": 61.7247,
      "duration": 0.0161,
      "velocity": 105,
      "chip": "ym2612"
    },
    {
      "channel": 0,
      "note": 46,
      "start": 61.7264,
      "duration": 0.0161,
      "velocity": 115,
      "chip": "ym2612"
    },
    {
      "channel": 4,
      "note": 79,
      "start": 61.73,
      "duration": 0.0141,
      "velocity": 94,
      "chip": "ym2612"
    },
    {
      "channel": 3,
      "note": 79,
      "start": 61.7311,
      "duration": 0.014,
      "velocity": 94,
      "chip": "ym2612"
    },
    {
      "channel": 2,
      "note": 55,
      "start": 61.7322,
      "duration": 0.014,
      "velocity": 100,
      "chip": "ym2612"
    },
    {
      "channel": 1,
      "note": 105,
      "start": 61.7408,
      "duration": 0.0161,
      "velocity": 105,
      "chip": "ym2612"
    },
    {
      "channel": 0,
      "note": 47,
      "start": 61.7425,
      "duration": 0.0161,
      "velocity": 115,
      "chip": "ym2612"
    },
    {
      "channel": 4,
      "note": 79,
      "start": 61.744,
      "duration": 0.0158,
      "velocity": 94,
      "chip": "ym2612"
    },
    {
      "channel": 3,
      "note": 79,
      "start": 61.7451,
      "duration": 0.0186,
      "velocity": 94,
      "chip": "ym2612"
    },
    {
      "channel": 2,
      "note": 55,
      "start": 61.7462,
      "duration": 0.0186,
      "velocity": 100,
      "chip": "ym2612"
    },
    {
      "channel": 1,
      "note": 105,
      "start": 61.7569,
      "duration": 0.0161,
      "velocity": 105,
      "chip": "ym2612"
    },
    {
      "channel": 0,
      "note": 47,
      "start": 61.7586,
      "duration": 0.0161,
      "velocity": 115,
      "chip": "ym2612"
    },
    {
      "channel": 4,
      "note": 79,
      "start": 61.7598,
      "duration": 0.0161,
      "velocity": 94,
      "chip": "ym2612"
    },
    {
      "channel": 3,
      "note": 79,
      "start": 61.7637,
      "duration": 0.0161,
      "velocity": 94,
      "chip": "ym2612"
    },
    {
      "channel": 2,
      "note": 55,
      "start": 61.7648,
      "duration": 0.0161,
      "velocity": 100,
      "chip": "ym2612"
    },
    {
      "channel": 1,
      "note": 105,
      "start": 61.773,
      "duration": 0.0161,
      "velocity": 105,
      "chip": "ym2612"
    },
    {
      "channel": 0,
      "note": 47,
      "start": 61.7747,
      "duration": 0.0161,
      "velocity": 115,
      "chip": "ym2612"
    },
    {
      "channel": 4,
      "note": 79,
      "start": 61.7759,
      "duration": 0.0161,
      "velocity": 94,
      "chip": "ym2612"
    },
    {
      "channel": 3,
      "note": 79,
      "start": 61.7798,
      "duration": 0.0134,
      "velocity": 94,
      "chip": "ym2612"
    },
    {
      "channel": 2,
      "note": 55,
      "start": 61.7809,
      "duration": 0.0157,
      "velocity": 100,
      "chip": "ym2612"
    },
    {
      "channel": 1,
      "note": 105,
      "start": 61.7891,
      "duration": 0.0184,
      "velocity": 124,
      "chip": "ym2612"
    },
    {
      "channel": 0,
      "note": 48,
      "start": 61.7908,
      "duration": 0.0195,
      "velocity": 115,
      "chip": "ym2612"
    },
    {
      "channel": 4,
      "note": 79,
      "start": 61.792,
      "duration": 0.0195,
      "velocity": 94,
      "chip": "ym2612"
    },
    {
      "channel": 3,
      "note": 79,
      "start": 61.7931,
      "duration": 0.0198,
      "velocity": 94,
      "chip": "ym2612"
    },
    {
      "channel": 2,
      "note": 55,
      "start": 61.7966,
      "duration": 0.0177,
      "velocity": 100,
      "chip": "ym2612"
    },
    {
      "channel": 1,
      "note": 78,
      "start": 61.8075,
      "duration": 0.0144,
      "velocity": 124,
      "chip": "ym2612"
    },
    {
      "channel": 0,
      "note": 48,
      "start": 61.8102,
      "duration": 0.0136,
      "velocity": 115,
      "chip": "ym2612"
    },
    {
      "channel": 4,
      "note": 79,
      "start": 61.8115,
      "duration": 0.0136,
      "velocity": 94,
      "chip": "ym2612"
    },
    {
      "channel": 3,
      "note": 79,
      "start": 61.8129,
      "duration": 0.0134,
      "velocity": 94,
      "chip": "ym2612"
    },
    {
      "channel": 2,
      "note": 55,
      "start": 61.8144,
      "duration": 0.0159,
      "velocity": 100,
      "chip": "ym2612"
    },
    {
      "channel": 1,
      "note": 76,
      "start": 61.8219,
      "duration": 0.016,
      "velocity": 124,
      "chip": "ym2612"
    },
    {
      "channel": 0,
      "note": 49,
      "start": 61.8238,
      "duration": 0.0152,
      "velocity": 1,
      "chip": "ym2612"
    },
    {
      "channel": 4,
      "note": 79,
      "start": 61.8251,
      "duration": 0.0151,
      "velocity": 94,
      "chip": "ym2612"
    },
    {
      "channel": 3,
      "note": 79,
      "start": 61.8263,
      "duration": 0.015,
      "velocity": 94,
      "chip": "ym2612"
    },
    {
      "channel": 2,
      "note": 55,
      "start": 61.8302,
      "duration": 0.0122,
      "velocity": 100,
      "chip": "ym2612"
    },
    {
      "channel": 1,
      "note": 75,
      "start": 61.8379,
      "duration": 0.0162,
      "velocity": 124,
      "chip": "ym2612"
    },
    {
      "channel": 4,
      "note": 79,
      "start": 61.8401,
      "duration": 0.0153,
      "velocity": 94,
      "chip": "ym2612"
    },
    {
      "channel": 3,
      "note": 79,
      "start": 61.8413,
      "duration": 0.0153,
      "velocity": 94,
      "chip": "ym2612"
    },
    {
      "channel": 2,
      "note": 55,
      "start": 61.8424,
      "duration": 0.0153,
      "velocity": 100,
      "chip": "ym2612"
    },
    {
      "channel": 1,
      "note": 74,
      "start": 61.8541,
      "duration": 0.0161,
      "velocity": 124,
      "chip": "ym2612"
    },
    {
      "channel": 4,
      "note": 79,
      "start": 61.8554,
      "duration": 0.0161,
      "velocity": 94,
      "chip": "ym2612"
    },
    {
      "channel": 3,
      "note": 79,
      "start": 61.8565,
      "duration": 0.0162,
      "velocity": 94,
      "chip": "ym2612"
    },
    {
      "channel": 2,
      "note": 55,
      "start": 61.8577,
      "duration": 0.0161,
      "velocity": 100,
      "chip": "ym2612"
    },
    {
      "channel": 1,
      "note": 72,
      "start": 61.8702,
      "duration": 0.0161,
      "velocity": 124,
      "chip": "ym2612"
    },
    {
      "channel": 4,
      "note": 79,
      "start": 61.8715,
      "duration": 0.0161,
      "velocity": 94,
      "chip": "ym2612"
    },
    {
      "channel": 3,
      "note": 79,
      "start": 61.8727,
      "duration": 0.0161,
      "velocity": 94,
      "chip": "ym2612"
    },
    {
      "channel": 2,
      "note": 55,
      "start": 61.8738,
      "duration": 0.0161,
      "velocity": 100,
      "chip": "ym2612"
    },
    {
      "channel": 1,
      "note": 71,
      "start": 61.8862,
      "duration": 0.0161,
      "velocity": 124,
      "chip": "ym2612"
    },
    {
      "channel": 4,
      "note": 79,
      "start": 61.8876,
      "duration": 0.0161,
      "velocity": 94,
      "chip": "ym2612"
    },
    {
      "channel": 3,
      "note": 79,
      "start": 61.8888,
      "duration": 0.0161,
      "velocity": 94,
      "chip": "ym2612"
    },
    {
      "channel": 2,
      "note": 55,
      "start": 61.8899,
      "duration": 0.0161,
      "velocity": 100,
      "chip": "ym2612"
    },
    {
      "channel": 1,
      "note": 70,
      "start": 61.9023,
      "duration": 0.0161,
      "velocity": 124,
      "chip": "ym2612"
    },
    {
      "channel": 4,
      "note": 79,
      "start": 61.9037,
      "duration": 0.0168,
      "velocity": 94,
      "chip": "ym2612"
    },
    {
      "channel": 3,
      "note": 79,
      "start": 61.9049,
      "duration": 0.017,
      "velocity": 94,
      "chip": "ym2612"
    },
    {
      "channel": 2,
      "note": 55,
      "start": 61.906,
      "duration": 0.0172,
      "velocity": 100,
      "chip": "ym2612"
    },
    {
      "channel": 1,
      "note": 69,
      "start": 61.9184,
      "duration": 0.0161,
      "velocity": 124,
      "chip": "ym2612"
    },
    {
      "channel": 4,
      "note": 74,
      "start": 61.9206,
      "duration": 0.0155,
      "velocity": 94,
      "chip": "ym2612"
    },
    {
      "channel": 3,
      "note": 79,
      "start": 61.9219,
      "duration": 0.0154,
      "velocity": 94,
      "chip": "ym2612"
    },
    {
      "channel": 2,
      "note": 55,
      "start": 61.9233,
      "duration": 0.0151,
      "velocity": 100,
      "chip": "ym2612"
    },
    {
      "channel": 1,
      "note": 68,
      "start": 61.9345,
      "duration": 0.0161,
      "velocity": 124,
      "chip": "ym2612"
    },
    {
      "channel": 4,
      "note": 74,
      "start": 61.9361,
      "duration": 0.016,
      "velocity": 94,
      "chip": "ym2612"
    },
    {
      "channel": 3,
      "note": 79,
      "start": 61.9372,
      "duration": 0.016,
      "velocity": 94,
      "chip": "ym2612"
    },
    {
      "channel": 2,
      "note": 55,
      "start": 61.9384,
      "duration": 0.0159,
      "velocity": 100,
      "chip": "ym2612"
    },
    {
      "channel": 1,
      "note": 66,
      "start": 61.9506,
      "duration": 0.0161,
      "velocity": 124,
      "chip": "ym2612"
    },
    {
      "channel": 4,
      "note": 74,
      "start": 61.952,
      "duration": 0.0161,
      "velocity": 94,
      "chip": "ym2612"
    },
    {
      "channel": 3,
      "note": 79,
      "start": 61.9532,
      "duration": 0.0161,
      "velocity": 94,
      "chip": "ym2612"
    },
    {
      "channel": 2,
      "note": 55,
      "start": 61.9543,
      "duration": 0.0161,
      "velocity": 100,
      "chip": "ym2612"
    },
    {
      "channel": 1,
      "note": 65,
      "start": 61.9667,
      "duration": 0.0161,
      "velocity": 124,
      "chip": "ym2612"
    },
    {
      "channel": 4,
      "note": 74,
      "start": 61.9681,
      "duration": 0.0161,
      "velocity": 94,
      "chip": "ym2612"
    },
    {
      "channel": 3,
      "note": 79,
      "start": 61.9693,
      "duration": 0.0161,
      "velocity": 94,
      "chip": "ym2612"
    },
    {
      "channel": 2,
      "note": 55,
      "start": 61.9704,
      "duration": 0.0161,
      "velocity": 100,
      "chip": "ym2612"
    },
    {
      "channel": 1,
      "note": 64,
      "start": 61.9828,
      "duration": 0.0162,
      "velocity": 124,
      "chip": "ym2612"
    },
    {
      "channel": 4,
      "note": 74,
      "start": 61.9842,
      "duration": 0.0161,
      "velocity": 94,
      "chip": "ym2612"
    },
    {
      "channel": 3,
      "note": 79,
      "start": 61.9854,
      "duration": 0.0161,
      "velocity": 94,
      "chip": "ym2612"
    },
    {
      "channel": 2,
      "note": 55,
      "start": 61.9865,
      "duration": 0.0161,
      "velocity": 100,
      "chip": "ym2612"
    },
    {
      "channel": 1,
      "note": 62,
      "start": 61.999,
      "duration": 0.0161,
      "velocity": 124,
      "chip": "ym2612"
    },
    {
      "channel": 4,
      "note": 74,
      "start": 62.0003,
      "duration": 0.0161,
      "velocity": 94,
      "chip": "ym2612"
    },
    {
      "channel": 3,
      "note": 79,
      "start": 62.0015,
      "duration": 0.0161,
      "velocity": 94,
      "chip": "ym2612"
    },
    {
      "channel": 2,
      "note": 55,
      "start": 62.0026,
      "duration": 0.0161,
      "velocity": 100,
      "chip": "ym2612"
    },
    {
      "channel": 1,
      "note": 61,
      "start": 62.0151,
      "duration": 0.0161,
      "velocity": 124,
      "chip": "ym2612"
    },
    {
      "channel": 4,
      "note": 74,
      "start": 62.0164,
      "duration": 0.0168,
      "velocity": 94,
      "chip": "ym2612"
    },
    {
      "channel": 3,
      "note": 79,
      "start": 62.0176,
      "duration": 0.017,
      "velocity": 94,
      "chip": "ym2612"
    },
    {
      "channel": 2,
      "note": 55,
      "start": 62.0187,
      "duration": 0.0173,
      "velocity": 100,
      "chip": "ym2612"
    },
    {
      "channel": 1,
      "note": 60,
      "start": 62.0312,
      "duration": 0.0166,
      "velocity": 124,
      "chip": "ym2612"
    },
    {
      "channel": 4,
      "note": 74,
      "start": 62.0332,
      "duration": 0.0161,
      "velocity": 94,
      "chip": "ym2612"
    },
    {
      "channel": 3,
      "note": 74,
      "start": 62.0346,
      "duration": 0.0159,
      "velocity": 94,
      "chip": "ym2612"
    },
    {
      "channel": 2,
      "note": 55,
      "start": 62.0361,
      "duration": 0.0156,
      "velocity": 100,
      "chip": "ym2612"
    },
    {
      "channel": 1,
      "note": 59,
      "start": 62.0478,
      "duration": 0.0163,
      "velocity": 124,
      "chip": "ym2612"
    },
    {
      "channel": 4,
      "note": 74,
      "start": 62.0493,
      "duration": 0.0162,
      "velocity": 94,
      "chip": "ym2612"
    },
    {
      "channel": 3,
      "note": 74,
      "start": 62.0505,
      "duration": 0.0161,
      "velocity": 94,
      "chip": "ym2612"
    },
    {
      "channel": 2,
      "note": 55,
      "start": 62.0516,
      "duration": 0.0161,
      "velocity": 100,
      "chip": "ym2612"
    },
    {
      "channel": 1,
      "note": 57,
      "start": 62.0641,
      "duration": 0.0153,
      "velocity": 124,
      "chip": "ym2612"
    },
    {
      "channel": 4,
      "note": 74,
      "start": 62.0655,
      "duration": 0.0153,
      "velocity": 94,
      "chip": "ym2612"
    },
    {
      "channel": 3,
      "note": 74,
      "start": 62.0666,
      "duration": 0.0153,
      "velocity": 94,
      "chip": "ym2612"
    },
    {
      "channel": 2,
      "note": 55,
      "start": 62.0677,
      "duration": 0.0154,
      "velocity": 100,
      "chip": "ym2612"
    },
    {
      "channel": 1,
      "note": 56,
      "start": 62.0794,
      "duration": 0.0183,
      "velocity": 124,
      "chip": "ym2612"
    },
    {
      "channel": 4,
      "note": 74,
      "start": 62.0808,
      "duration": 0.0183,
      "velocity": 94,
      "chip": "ym2612"
    },
    {
      "channel": 3,
      "note": 74,
      "start": 62.082,
      "duration": 0.0183,
      "velocity": 94,
      "chip": "ym2612"
    },
    {
      "channel": 2,
      "note": 55,
      "start": 62.0831,
      "duration": 0.0183,
      "velocity": 100,
      "chip": "ym2612"
    },
    {
      "channel": 1,
      "note": 55,
      "start": 62.0978,
      "duration": 0.0167,
      "velocity": 124,
      "chip": "ym2612"
    },
    {
      "channel": 4,
      "note": 74,
      "start": 62.0992,
      "duration": 0.0166,
      "velocity": 94,
      "chip": "ym2612"
    },
    {
      "channel": 3,
      "note": 74,
      "start": 62.1003,
      "duration": 0.0166,
      "velocity": 94,
      "chip": "ym2612"
    },
    {
      "channel": 2,
      "note": 55,
      "start": 62.1015,
      "duration": 0.0166,
      "velocity": 100,
      "chip": "ym2612"
    },
    {
      "channel": 1,
      "note": 53,
      "start": 62.1144,
      "duration": 0.0157,
      "velocity": 124,
      "chip": "ym2612"
    },
    {
      "channel": 4,
      "note": 74,
      "start": 62.1158,
      "duration": 0.0158,
      "velocity": 94,
      "chip": "ym2612"
    },
    {
      "channel": 3,
      "note": 74,
      "start": 62.1169,
      "duration": 0.0158,
      "velocity": 94,
      "chip": "ym2612"
    },
    {
      "channel": 2,
      "note": 55,
      "start": 62.118,
      "duration": 0.0158,
      "velocity": 100,
      "chip": "ym2612"
    },
    {
      "channel": 1,
      "note": 52,
      "start": 62.1301,
      "duration": 0.0141,
      "velocity": 124,
      "chip": "ym2612"
    },
    {
      "channel": 4,
      "note": 74,
      "start": 62.1315,
      "duration": 0.0182,
      "velocity": 94,
      "chip": "ym2612"
    },
    {
      "channel": 3,
      "note": 74,
      "start": 62.1327,
      "duration": 0.0184,
      "velocity": 94,
      "chip": "ym2612"
    },
    {
      "channel": 2,
      "note": 55,
      "start": 62.1338,
      "duration": 0.0186,
      "velocity": 100,
      "chip": "ym2612"
    },
    {
      "channel": 1,
      "note": 51,
      "start": 62.1442,
      "duration": 0.0149,
      "velocity": 1,
      "chip": "ym2612"
    },
    {
      "channel": 0,
      "note": 36,
      "start": 62.1483,
      "duration": 0.0174,
      "velocity": 115,
      "chip": "ym2612"
    },
    {
      "channel": 4,
      "note": 74,
      "start": 62.1498,
      "duration": 0.0172,
      "velocity": 94,
      "chip": "ym2612"
    },
    {
      "channel": 3,
      "note": 74,
      "start": 62.1511,
      "duration": 0.0171,
      "velocity": 94,
      "chip": "ym2612"
    },
    {
      "channel": 2,
      "note": 55,
      "start": 62.1525,
      "duration": 0.0168,
      "velocity": 100,
      "chip": "ym2612"
    },
    {
      "channel": 1,
      "note": 51,
      "start": 62.164,
      "duration": 0.0115,
      "velocity": 105,
      "chip": "ym2612"
    },
    {
      "channel": 0,
      "note": 36,
      "start": 62.1658,
      "duration": 0.0142,
      "velocity": 115,
      "chip": "ym2612"
    },
    {
      "channel": 4,
      "note": 74,
      "start": 62.167,
      "duration": 0.0141,
      "velocity": 94,
      "chip": "ym2612"
    },
    {
      "channel": 3,
      "note": 74,
      "start": 62.1682,
      "duration": 0.0141,
      "velocity": 94,
      "chip": "ym2612"
    },
    {
      "channel": 2,
      "note": 55,
      "start": 62.1694,
      "duration": 0.014,
      "velocity": 100,
      "chip": "ym2612"
    },
    {
      "channel": 1,
      "note": 105,
      "start": 62.1756,
      "duration": 0.0161,
      "velocity": 105,
      "chip": "ym2612"
    },
    {
      "channel": 0,
      "note": 37,
      "start": 62.18,
      "duration": 0.0157,
      "velocity": 115,
      "chip": "ym2612"
    },
    {
      "channel": 4,
      "note": 74,
      "start": 62.1812,
      "duration": 0.0157,
      "velocity": 94,
      "chip": "ym2612"
    },
    {
      "channel": 3,
      "note": 74,
      "start": 62.1823,
      "duration": 0.0157,
      "velocity": 94,
      "chip": "ym2612"
    },
    {
      "channel": 2,
      "note": 55,
      "start": 62.1834,
      "duration": 0.0158,
      "velocity": 100,
      "chip": "ym2612"
    },
    {
      "channel": 1,
      "note": 105,
      "start": 62.1917,
      "duration": 0.0161,
      "velocity": 105,
      "chip": "ym2612"
    },
    {
      "channel": 0,
      "note": 37,
      "start": 62.1957,
      "duration": 0.0137,
      "velocity": 115,
      "chip": "ym2612"
    },
    {
      "channel": 4,
      "note": 74,
      "start": 62.1969,
      "duration": 0.0141,
      "velocity": 94,
      "chip": "ym2612"
    },
    {
      "channel": 3,
      "note": 74,
      "start": 62.198,
      "duration": 0.0141,
      "velocity": 94,
      "chip": "ym2612"
    },
    {
      "channel": 2,
      "note": 55,
      "start": 62.1992,
      "duration": 0.0141,
      "velocity": 100,
      "chip": "ym2612"
    },
    {
      "channel": 1,
      "note": 105,
      "start": 62.2078,
      "duration": 0.0161,
      "velocity": 105,
      "chip": "ym2612"
    },
    {
      "channel": 0,
      "note": 38,
      "start": 62.2094,
      "duration": 0.0161,
      "velocity": 115,
      "chip": "ym2612"
    },
    {
      "channel": 4,
      "note": 74,
      "start": 62.2109,
      "duration": 0.0185,
      "velocity": 94,
      "chip": "ym2612"
    },
    {
      "channel": 3,
      "note": 74,
      "start": 62.2121,
      "duration": 0.0185,
      "velocity": 94,
      "chip": "ym2612"
    },
    {
      "channel": 2,
      "note": 55,
      "start": 62.2132,
      "duration": 0.0185,
      "velocity": 100,
      "chip": "ym2612"
    },
    {
      "channel": 1,
      "note": 105,
      "start": 62.2238,
      "duration": 0.0161,
      "velocity": 105,
      "chip": "ym2612"
    },
    {
      "channel": 0,
      "note": 38,
      "start": 62.2255,
      "duration": 0.0161,
      "velocity": 115,
      "chip": "ym2612"
    },
    {
      "channel": 4,
      "note": 74,
      "start": 62.2294,
      "duration": 0.0134,
      "velocity": 94,
      "chip": "ym2612"
    },
    {
      "channel": 3,
      "note": 74,
      "start": 62.2306,
      "duration": 0.0161,
      "velocity": 94,
      "chip": "ym2612"
    },
    {
      "channel": 2,
      "note": 55,
      "start": 62.2317,
      "duration": 0.0161,
      "velocity": 100,
      "chip": "ym2612"
    },
    {
      "channel": 1,
      "note": 105,
      "start": 62.2399,
      "duration": 0.0178,
      "velocity": 124,
      "chip": "ym2612"
    },
    {
      "channel": 0,
      "note": 39,
      "start": 62.2416,
      "duration": 0.022,
      "velocity": 115,
      "chip": "ym2612"
    },
    {
      "channel": 4,
      "note": 74,
      "start": 62.2428,
      "duration": 0.0223,
      "velocity": 94,
      "chip": "ym2612"
    },
    {
      "channel": 3,
      "note": 74,
      "start": 62.2467,
      "duration": 0.0198,
      "velocity": 94,
      "chip": "ym2612"
    },
    {
      "channel": 2,
      "note": 55,
      "start": 62.2478,
      "duration": 0.0201,
      "velocity": 100,
      "chip": "ym2612"
    },
    {
      "channel": 1,
      "note": 64,
      "start": 62.2578,
      "duration": 0.0145,
      "velocity": 124,
      "chip": "ym2612"
    },
    {
      "channel": 0,
      "note": 36,
      "start": 62.2637,
      "duration": 0.0104,
      "velocity": 115,
      "chip": "ym2612"
    },
    {
      "channel": 4,
      "note": 79,
      "start": 62.2651,
      "duration": 0.0101,
      "velocity": 94,
      "chip": "ym2612"
    },
    {
      "channel": 3,
      "note": 74,
      "start": 62.2665,
      "duration": 0.0099,
      "velocity": 94,
      "chip": "ym2612"
    },
    {
      "channel": 2,
      "note": 55,
      "start": 62.2679,
      "duration": 0.01,
      "velocity": 100,
      "chip": "ym2612"
    },
    {
      "channel": 1,
      "note": 64,
      "start": 62.2723,
      "duration": 0.016,
      "velocity": 124,
      "chip": "ym2612"
    },
    {
      "channel": 0,
      "note": 36,
      "start": 62.274,
      "duration": 0.0159,
      "velocity": 115,
      "chip": "ym2612"
    },
    {
      "channel": 4,
      "note": 79,
      "start": 62.2752,
      "duration": 0.0159,
      "velocity": 94,
      "chip": "ym2612"
    },
    {
      "channel": 3,
      "note": 74,
      "start": 62.2764,
      "duration": 0.0159,
      "velocity": 94,
      "chip": "ym2612"
    },
    {
      "channel": 2,
      "note": 55,
      "start": 62.278,
      "duration": 0.0182,
      "velocity": 100,
      "chip": "ym2612"
    },
    {
      "channel": 1,
      "note": 64,
      "start": 62.2883,
      "duration": 0.0161,
      "velocity": 124,
      "chip": "ym2612"
    },
    {
      "channel": 0,
      "note": 37,
      "start": 62.2899,
      "duration": 0.0161,
      "velocity": 115,
      "chip": "ym2612"
    },
    {
      "channel": 4,
      "note": 79,
      "start": 62.2911,
      "duration": 0.0161,
      "velocity": 94,
      "chip": "ym2612"
    },
    {
      "channel": 3,
      "note": 74,
      "start": 62.2923,
      "duration": 0.0161,
      "velocity": 94,
      "chip": "ym2612"
    },
    {
      "channel": 2,
      "note": 55,
      "start": 62.2962,
      "duration": 0.0133,
      "velocity": 100,
      "chip": "ym2612"
    },
    {
      "channel": 1,
      "note": 64,
      "start": 62.3044,
      "duration": 0.0161,
      "velocity": 124,
      "chip": "ym2612"
    },
    {
      "channel": 0,
      "note": 37,
      "start": 62.306,
      "duration": 0.0161,
      "velocity": 115,
      "chip": "ym2612"
    },
    {
      "channel": 4,
      "note": 79,
      "start": 62.3072,
      "duration": 0.0161,
      "velocity": 94,
      "chip": "ym2612"
    },
    {
      "channel": 3,
      "note": 74,
      "start": 62.3084,
      "duration": 0.0161,
      "velocity": 94,
      "chip": "ym2612"
    },
    {
      "channel": 2,
      "note": 55,
      "start": 62.3095,
      "duration": 0.0161,
      "velocity": 100,
      "chip": "ym2612"
    },
    {
      "channel": 1,
      "note": 64,
      "start": 62.3205,
      "duration": 0.0161,
      "velocity": 124,
      "chip": "ym2612"
    },
    {
      "channel": 0,
      "note": 38,
      "start": 62.3221,
      "duration": 0.0161,
      "velocity": 115,
      "chip": "ym2612"
    },
    {
      "channel": 4,
      "note": 79,
      "start": 62.3233,
      "duration": 0.0161,
      "velocity": 94,
      "chip": "ym2612"
    },
    {
      "channel": 3,
      "note": 74,
      "start": 62.3245,
      "duration": 0.0161,
      "velocity": 94,
      "chip": "ym2612"
    },
    {
      "channel": 2,
      "note": 55,
      "start": 62.3256,
      "duration": 0.0161,
      "velocity": 100,
      "chip": "ym2612"
    },
    {
      "channel": 1,
      "note": 64,
      "start": 62.3366,
      "duration": 0.0161,
      "velocity": 124,
      "chip": "ym2612"
    },
    {
      "channel": 0,
      "note": 38,
      "start": 62.3382,
      "duration": 0.0162,
      "velocity": 115,
      "chip": "ym2612"
    },
    {
      "channel": 4,
      "note": 79,
      "start": 62.3394,
      "duration": 0.0161,
      "velocity": 94,
      "chip": "ym2612"
    },
    {
      "channel": 3,
      "note": 74,
      "start": 62.3406,
      "duration": 0.0161,
      "velocity": 94,
      "chip": "ym2612"
    },
    {
      "channel": 2,
      "note": 55,
      "start": 62.3417,
      "duration": 0.0161,
      "velocity": 100,
      "chip": "ym2612"
    },
    {
      "channel": 1,
      "note": 64,
      "start": 62.3527,
      "duration": 0.0178,
      "velocity": 105,
      "chip": "ym2612"
    },
    {
      "channel": 0,
      "note": 39,
      "start": 62.3544,
      "duration": 0.0178,
      "velocity": 115,
      "chip": "ym2612"
    },
    {
      "channel": 4,
      "note": 79,
      "start": 62.3555,
      "duration": 0.018,
      "velocity": 94,
      "chip": "ym2612"
    },
    {
      "channel": 3,
      "note": 74,
      "start": 62.3567,
      "duration": 0.0181,
      "velocity": 94,
      "chip": "ym2612"
    },
    {
      "channel": 2,
      "note": 55,
      "start": 62.3578,
      "duration": 0.0185,
      "velocity": 100,
      "chip": "ym2612"
    },
    {
      "channel": 1,
      "note": 105,
      "start": 62.3705,
      "duration": 0.0144,
      "velocity": 105,
      "chip": "ym2612"
    },
    {
      "channel": 0,
      "note": 39,
      "start": 62.3722,
      "duration": 0.0144,
      "velocity": 115,
      "chip": "ym2612"
    },
    {
      "channel": 4,
      "note": 79,
      "start": 62.3735,
      "duration": 0.0143,
      "velocity": 94,
      "chip": "ym2612"
    },
    {
      "channel": 3,
      "note": 79,
      "start": 62.3749,
      "duration": 0.0141,
      "velocity": 94,
      "chip": "ym2612"
    },
    {
      "channel": 2,
      "note": 55,
      "start": 62.3763,
      "duration": 0.0139,
      "velocity": 100,
      "chip": "ym2612"
    },
    {
      "channel": 1,
      "note": 105,
      "start": 62.3849,
      "duration": 0.016,
      "velocity": 105,
      "chip": "ym2612"
    },
    {
      "channel": 0,
      "note": 40,
      "start": 62.3866,
      "duration": 0.0161,
      "velocity": 115,
      "chip": "ym2612"
    },
    {
      "channel": 4,
      "note": 79,
      "start": 62.3878,
      "duration": 0.016,
      "velocity": 94,
      "chip": "ym2612"
    },
    {
      "channel": 3,
      "note": 79,
      "start": 62.389,
      "duration": 0.016,
      "velocity": 94,
      "chip": "ym2612"
    },
    {
      "channel": 2,
      "note": 55,
      "start": 62.3902,
      "duration": 0.0159,
      "velocity": 100,
      "chip": "ym2612"
    },
    {
      "channel": 1,
      "note": 105,
      "start": 62.4009,
      "duration": 0.0162,
      "velocity": 105,
      "chip": "ym2612"
    },
    {
      "channel": 0,
      "note": 40,
      "start": 62.4027,
      "duration": 0.0161,
      "velocity": 115,
      "chip": "ym2612"
    },
    {
      "channel": 4,
      "note": 79,
      "start": 62.4038,
      "duration": 0.0161,
      "velocity": 94,
      "chip": "ym2612"
    },
    {
      "channel": 3,
      "note": 79,
      "start": 62.4049,
      "duration": 0.0161,
      "velocity": 94,
      "chip": "ym2612"
    },
    {
      "channel": 2,
      "note": 55,
      "start": 62.4061,
      "duration": 0.0161,
      "velocity": 100,
      "chip": "ym2612"
    },
    {
      "channel": 1,
      "note": 105,
      "start": 62.4171,
      "duration": 0.0161,
      "velocity": 105,
      "chip": "ym2612"
    },
    {
      "channel": 0,
      "note": 40,
      "start": 62.4188,
      "duration": 0.0161,
      "velocity": 115,
      "chip": "ym2612"
    },
    {
      "channel": 4,
      "note": 79,
      "start": 62.4199,
      "duration": 0.0161,
      "velocity": 94,
      "chip": "ym2612"
    },
    {
      "channel": 3,
      "note": 79,
      "start": 62.421,
      "duration": 0.0161,
      "velocity": 94,
      "chip": "ym2612"
    },
    {
      "channel": 2,
      "note": 55,
      "start": 62.4222,
      "duration": 0.0161,
      "velocity": 100,
      "chip": "ym2612"
    },
    {
      "channel": 1,
      "note": 105,
      "start": 62.4332,
      "duration": 0.0161,
      "velocity": 105,
      "chip": "ym2612"
    },
    {
      "channel": 0,
      "note": 41,
      "start": 62.4349,
      "duration": 0.0161,
      "velocity": 115,
      "chip": "ym2612"
    },
    {
      "channel": 4,
      "note": 79,
      "start": 62.436,
      "duration": 0.0161,
      "velocity": 94,
      "chip": "ym2612"
    },
    {
      "channel": 3,
      "note": 79,
      "start": 62.4371,
      "duration": 0.0161,
      "velocity": 94,
      "chip": "ym2612"
    },
    {
      "channel": 2,
      "note": 55,
      "start": 62.4383,
      "duration": 0.0161,
      "velocity": 100,
      "chip": "ym2612"
    },
    {
      "channel": 1,
      "note": 105,
      "start": 62.4493,
      "duration": 0.0161,
      "velocity": 105,
      "chip": "ym2612"
    },
    {
      "channel": 0,
      "note": 41,
      "start": 62.4509,
      "duration": 0.0161,
      "velocity": 115,
      "chip": "ym2612"
    },
    {
      "channel": 4,
      "note": 79,
      "start": 62.4521,
      "duration": 0.0161,
      "velocity": 94,
      "chip": "ym2612"
    },
    {
      "channel": 3,
      "note": 79,
      "start": 62.4532,
      "duration": 0.0161,
      "velocity": 94,
      "chip": "ym2612"
    },
    {
      "channel": 2,
      "note": 55,
      "start": 62.4544,
      "duration": 0.0161,
      "velocity": 100,
      "chip": "ym2612"
    },
    {
      "channel": 1,
      "note": 105,
      "start": 62.4654,
      "duration": 0.0178,
      "velocity": 124,
      "chip": "ym2612"
    },
    {
      "channel": 0,
      "note": 42,
      "start": 62.467,
      "duration": 0.0179,
      "velocity": 115,
      "chip": "ym2612"
    },
    {
      "channel": 4,
      "note": 79,
      "start": 62.4682,
      "duration": 0.0181,
      "velocity": 94,
      "chip": "ym2612"
    },
    {
      "channel": 3,
      "note": 79,
      "start": 62.4693,
      "duration": 0.0183,
      "velocity": 94,
      "chip": "ym2612"
    },
    {
      "channel": 2,
      "note": 55,
      "start": 62.4705,
      "duration": 0.0185,
      "velocity": 100,
      "chip": "ym2612"
    },
    {
      "channel": 1,
      "note": 64,
      "start": 62.4833,
      "duration": 0.0144,
      "velocity": 124,
      "chip": "ym2612"
    },
    {
      "channel": 0,
      "note": 42,
      "start": 62.4849,
      "duration": 0.0144,
      "velocity": 115,
      "chip": "ym2612"
    },
    {
      "channel": 4,
      "note": 79,
      "start": 62.4863,
      "duration": 0.0143,
      "velocity": 94,
      "chip": "ym2612"
    },
    {
      "channel": 3,
      "note": 79,
      "start": 62.4876,
      "duration": 0.0141,
      "velocity": 94,
      "chip": "ym2612"
    },
    {
      "channel": 2,
      "note": 55,
      "start": 62.489,
      "duration": 0.0139,
      "velocity": 100,
      "chip": "ym2612"
    },
    {
      "channel": 1,
      "note": 64,
      "start": 62.4976,
      "duration": 0.0163,
      "velocity": 124,
      "chip": "ym2612"
    },
    {
      "channel": 0,
      "note": 43,
      "start": 62.4993,
      "duration": 0.0163,
      "velocity": 115,
      "chip": "ym2612"
    },
    {
      "channel": 4,
      "note": 79,
      "start": 62.5006,
      "duration": 0.0163,
      "velocity": 94,
      "chip": "ym2612"
    },
    {
      "channel": 3,
      "note": 79,
      "start": 62.5017,
      "duration": 0.0162,
      "velocity": 94,
      "chip": "ym2612"
    },
    {
      "channel": 2,
      "note": 55,
      "start": 62.5029,
      "duration": 0.0162,
      "velocity": 100,
      "chip": "ym2612"
    },
    {
      "channel": 1,
      "note": 64,
      "start": 62.514,
      "duration": 0.0163,
      "velocity": 124,
      "chip": "ym2612"
    },
    {
      "channel": 0,
      "note": 43,
      "start": 62.5156,
      "duration": 0.0163,
      "velocity": 115,
      "chip": "ym2612"
    },
    {
      "channel": 4,
      "note": 79,
      "start": 62.5168,
      "duration": 0.0163,
      "velocity": 94,
      "chip": "ym2612"
    },
    {
      "channel": 3,
      "note": 79,
      "start": 62.5179,
      "duration": 0.0163,
      "velocity": 94,
      "chip": "ym2612"
    },
    {
      "channel": 2,
      "note": 55,
      "start": 62.5191,
      "duration": 0.0163,
      "velocity": 100,
      "chip": "ym2612"
    },
    {
      "channel": 1,
      "note": 64,
      "start": 62.5303,
      "duration": 0.0156,
      "velocity": 124,
      "chip": "ym2612"
    },
    {
      "channel": 0,
      "note": 44,
      "start": 62.5319,
      "duration": 0.0156,
      "velocity": 115,
      "chip": "ym2612"
    },
    {
      "channel": 4,
      "note": 79,
      "start": 62.5331,
      "duration": 0.0156,
      "velocity": 94,
      "chip": "ym2612"
    },
    {
      "channel": 3,
      "note": 79,
      "start": 62.5343,
      "duration": 0.0156,
      "velocity": 94,
      "chip": "ym2612"
    },
    {
      "channel": 2,
      "note": 55,
      "start": 62.5354,
      "duration": 0.0156,
      "velocity": 100,
      "chip": "ym2612"
    },
    {
      "channel": 1,
      "note": 64,
      "start": 62.5459,
      "duration": 0.0181,
      "velocity": 124,
      "chip": "ym2612"
    },
    {
      "channel": 0,
      "note": 44,
      "start": 62.5476,
      "duration": 0.0181,
      "velocity": 115,
      "chip": "ym2612"
    },
    {
      "channel": 4,
      "note": 79,
      "start": 62.5487,
      "duration": 0.0181,
      "velocity": 94,
      "chip": "ym2612"
    },
    {
      "channel": 3,
      "note": 79,
      "start": 62.5499,
      "duration": 0.0181,
      "velocity": 94,
      "chip": "ym2612"
    },
    {
      "channel": 2,
      "note": 55,
      "start": 62.551,
      "duration": 0.0181,
      "velocity": 100,
      "chip": "ym2612"
    },
    {
      "channel": 1,
      "note": 64,
      "start": 62.564,
      "duration": 0.0167,
      "velocity": 124,
      "chip": "ym2612"
    },
    {
      "channel": 0,
      "note": 44,
      "start": 62.5656,
      "duration": 0.0167,
      "velocity": 115,
      "chip": "ym2612"
    },
    {
      "channel": 4,
      "note": 79,
      "start": 62.5668,
      "duration": 0.0167,
      "velocity": 94,
      "chip": "ym2612"
    },
    {
      "channel": 3,
      "note": 79,
      "start": 62.5679,
      "duration": 0.0167,
      "velocity": 94,
      "chip": "ym2612"
    },
    {
      "channel": 2,
      "note": 55,
      "start": 62.5691,
      "duration": 0.0167,
      "velocity": 100,
      "chip": "ym2612"
    },
    {
      "channel": 1,
      "note": 64,
      "start": 62.5807,
      "duration": 0.0176,
      "velocity": 105,
      "chip": "ym2612"
    },
    {
      "channel": 0,
      "note": 45,
      "start": 62.5823,
      "duration": 0.0177,
      "velocity": 115,
      "chip": "ym2612"
    },
    {
      "channel": 4,
      "note": 79,
      "start": 62.5835,
      "duration": 0.0178,
      "velocity": 94,
      "chip": "ym2612"
    },
    {
      "channel": 3,
      "note": 79,
      "start": 62.5846,
      "duration": 0.0182,
      "velocity": 94,
      "chip": "ym2612"
    },
    {
      "channel": 2,
      "note": 55,
      "start": 62.5857,
      "duration": 0.0185,
      "velocity": 100,
      "chip": "ym2612"
    },
    {
      "channel": 1,
      "note": 105,
      "start": 62.5983,
      "duration": 0.0124,
      "velocity": 105,
      "chip": "ym2612"
    },
    {
      "channel": 0,
      "note": 45,
      "start": 62.6,
      "duration": 0.0124,
      "velocity": 115,
      "chip": "ym2612"
    },
    {
      "channel": 4,
      "note": 79,
      "start": 62.6014,
      "duration": 0.0122,
      "velocity": 94,
      "chip": "ym2612"
    },
    {
      "channel": 3,
      "note": 79,
      "start": 62.6028,
      "duration": 0.012,
      "velocity": 94,
      "chip": "ym2612"
    },
    {
      "channel": 2,
      "note": 55,
      "start": 62.6042,
      "duration": 0.0117,
      "velocity": 100,
      "chip": "ym2612"
    },
    {
      "channel": 1,
      "note": 105,
      "start": 62.6107,
      "duration": 0.0157,
      "velocity": 105,
      "chip": "ym2612"
    },
    {
      "channel": 0,
      "note": 46,
      "start": 62.6123,
      "duration": 0.0184,
      "velocity": 115,
      "chip": "ym2612"
    },
    {
      "channel": 4,
      "note": 79,
      "start": 62.6135,
      "duration": 0.0184,
      "velocity": 94,
      "chip": "ym2612"
    },
    {
      "channel": 3,
      "note": 79,
      "start": 62.6147,
      "duration": 0.0184,
      "velocity": 94,
      "chip": "ym2612"
    },
    {
      "channel": 2,
      "note": 55,
      "start": 62.616,
      "duration": 0.0183,
      "velocity": 100,
      "chip": "ym2612"
    },
    {
      "channel": 1,
      "note": 105,
      "start": 62.6264,
      "duration": 0.0161,
      "velocity": 105,
      "chip": "ym2612"
    },
    {
      "channel": 0,
      "note": 46,
      "start": 62.6308,
      "duration": 0.0161,
      "velocity": 115,
      "chip": "ym2612"
    },
    {
      "channel": 4,
      "note": 79,
      "start": 62.632,
      "duration": 0.0161,
      "velocity": 94,
      "chip": "ym2612"
    },
    {
      "channel": 3,
      "note": 79,
      "start": 62.6331,
      "duration": 0.0161,
      "velocity": 94,
      "chip": "ym2612"
    },
    {
      "channel": 2,
      "note": 55,
      "start": 62.6342,
      "duration": 0.0161,
      "velocity": 100,
      "chip": "ym2612"
    },
    {
      "channel": 1,
      "note": 105,
      "start": 62.6425,
      "duration": 0.0161,
      "velocity": 105,
      "chip": "ym2612"
    },
    {
      "channel": 0,
      "note": 47,
      "start": 62.6469,
      "duration": 0.0158,
      "velocity": 115,
      "chip": "ym2612"
    },
    {
      "channel": 4,
      "note": 79,
      "start": 62.6481,
      "duration": 0.0157,
      "velocity": 94,
      "chip": "ym2612"
    },
    {
      "channel": 3,
      "note": 79,
      "start": 62.6492,
      "duration": 0.0157,
      "velocity": 94,
      "chip": "ym2612"
    },
    {
      "channel": 2,
      "note": 55,
      "start": 62.6504,
      "duration": 0.0157,
      "velocity": 100,
      "chip": "ym2612"
    },
    {
      "channel": 1,
      "note": 105,
      "start": 62.6586,
      "duration": 0.0161,
      "velocity": 105,
      "chip": "ym2612"
    },
    {
      "channel": 0,
      "note": 47,
      "start": 62.6627,
      "duration": 0.0137,
      "velocity": 115,
      "chip": "ym2612"
    },
    {
      "channel": 4,
      "note": 79,
      "start": 62.6638,
      "duration": 0.0141,
      "velocity": 94,
      "chip": "ym2612"
    },
    {
      "channel": 3,
      "note": 79,
      "start": 62.6649,
      "duration": 0.0141,
      "velocity": 94,
      "chip": "ym2612"
    },
    {
      "channel": 2,
      "note": 55,
      "start": 62.6661,
      "duration": 0.0141,
      "velocity": 100,
      "chip": "ym2612"
    },
    {
      "channel": 1,
      "note": 105,
      "start": 62.6747,
      "duration": 0.0161,
      "velocity": 105,
      "chip": "ym2612"
    },
    {
      "channel": 0,
      "note": 47,
      "start": 62.6763,
      "duration": 0.0161,
      "velocity": 115,
      "chip": "ym2612"
    },
    {
      "channel": 4,
      "note": 79,
      "start": 62.6778,
      "duration": 0.0185,
      "velocity": 94,
      "chip": "ym2612"
    },
    {
      "channel": 3,
      "note": 79,
      "start": 62.679,
      "duration": 0.0185,
      "velocity": 94,
      "chip": "ym2612"
    },
    {
      "channel": 2,
      "note": 55,
      "start": 62.6801,
      "duration": 0.0185,
      "velocity": 100,
      "chip": "ym2612"
    },
    {
      "channel": 1,
      "note": 105,
      "start": 62.6908,
      "duration": 0.0184,
      "velocity": 124,
      "chip": "ym2612"
    },
    {
      "channel": 0,
      "note": 48,
      "start": 62.6924,
      "duration": 0.0219,
      "velocity": 115,
      "chip": "ym2612"
    },
    {
      "channel": 4,
      "note": 79,
      "start": 62.6963,
      "duration": 0.0192,
      "velocity": 94,
      "chip": "ym2612"
    },
    {
      "channel": 3,
      "note": 79,
      "start": 62.6975,
      "duration": 0.0195,
      "velocity": 94,
      "chip": "ym2612"
    },
    {
      "channel": 2,
      "note": 55,
      "start": 62.6986,
      "duration": 0.0198,
      "velocity": 100,
      "chip": "ym2612"
    },
    {
      "channel": 1,
      "note": 78,
      "start": 62.7091,
      "duration": 0.0144,
      "velocity": 124,
      "chip": "ym2612"
    },
    {
      "channel": 0,
      "note": 48,
      "start": 62.7143,
      "duration": 0.0111,
      "velocity": 115,
      "chip": "ym2612"
    },
    {
      "channel": 4,
      "note": 79,
      "start": 62.7156,
      "duration": 0.0135,
      "velocity": 94,
      "chip": "ym2612"
    },
    {
      "channel": 3,
      "note": 79,
      "start": 62.717,
      "duration": 0.0132,
      "velocity": 94,
      "chip": "ym2612"
    },
    {
      "channel": 2,
      "note": 55,
      "start": 62.7184,
      "duration": 0.013,
      "velocity": 100,
      "chip": "ym2612"
    },
    {
      "channel": 1,
      "note": 76,
      "start": 62.7235,
      "duration": 0.0161,
      "velocity": 124,
      "chip": "ym2612"
    },
    {
      "channel": 0,
      "note": 49,
      "start": 62.7254,
      "duration": 0.0153,
      "velocity": 1,
      "chip": "ym2612"
    },
    {
      "channel": 4,
      "note": 79,
      "start": 62.729,
      "duration": 0.0128,
      "velocity": 94,
      "chip": "ym2612"
    },
    {
      "channel": 3,
      "note": 79,
      "start": 62.7303,
      "duration": 0.0127,
      "velocity": 94,
      "chip": "ym2612"
    },
    {
      "channel": 2,
      "note": 55,
      "start": 62.7315,
      "duration": 0.013,
      "velocity": 100,
      "chip": "ym2612"
    },
    {
      "channel": 1,
      "note": 75,
      "start": 62.7396,
      "duration": 0.0161,
      "velocity": 124,
      "chip": "ym2612"
    },
    {
      "channel": 4,
      "note": 79,
      "start": 62.7418,
      "duration": 0.0152,
      "velocity": 94,
      "chip": "ym2612"
    },
    {
      "channel": 3,
      "note": 79,
      "start": 62.743,
      "duration": 0.0152,
      "velocity": 94,
      "chip": "ym2612"
    },
    {
      "channel": 2,
      "note": 55,
      "start": 62.7444,
      "duration": 0.0149,
      "velocity": 100,
      "chip": "ym2612"
    },
    {
      "channel": 1,
      "note": 74,
      "start": 62.7557,
      "duration": 0.0161,
      "velocity": 124,
      "chip": "ym2612"
    },
    {
      "channel": 4,
      "note": 79,
      "start": 62.7571,
      "duration": 0.0161,
      "velocity": 94,
      "chip": "ym2612"
    },
    {
      "channel": 3,
      "note": 79,
      "start": 62.7582,
      "duration": 0.0162,
      "velocity": 94,
      "chip": "ym2612"
    },
    {
      "channel": 2,
      "note": 55,
      "start": 62.7593,
      "duration": 0.0161,
      "velocity": 100,
      "chip": "ym2612"
    },
    {
      "channel": 1,
      "note": 72,
      "start": 62.7718,
      "duration": 0.0161,
      "velocity": 124,
      "chip": "ym2612"
    },
    {
      "channel": 4,
      "note": 79,
      "start": 62.7732,
      "duration": 0.0161,
      "velocity": 94,
      "chip": "ym2612"
    },
    {
      "channel": 3,
      "note": 79,
      "start": 62.7744,
      "duration": 0.0161,
      "velocity": 94,
      "chip": "ym2612"
    },
    {
      "channel": 2,
      "note": 55,
      "start": 62.7755,
      "duration": 0.0161,
      "velocity": 100,
      "chip": "ym2612"
    },
    {
      "channel": 1,
      "note": 71,
      "start": 62.7879,
      "duration": 0.0161,
      "velocity": 124,
      "chip": "ym2612"
    },
    {
      "channel": 4,
      "note": 79,
      "start": 62.7893,
      "duration": 0.0161,
      "velocity": 94,
      "chip": "ym2612"
    },
    {
      "channel": 3,
      "note": 79,
      "start": 62.7905,
      "duration": 0.0161,
      "velocity": 94,
      "chip": "ym2612"
    },
    {
      "channel": 2,
      "note": 55,
      "start": 62.7916,
      "duration": 0.0161,
      "velocity": 100,
      "chip": "ym2612"
    },
    {
      "channel": 1,
      "note": 70,
      "start": 62.804,
      "duration": 0.0161,
      "velocity": 124,
      "chip": "ym2612"
    },
    {
      "channel": 4,
      "note": 79,
      "start": 62.8054,
      "duration": 0.0168,
      "velocity": 94,
      "chip": "ym2612"
    },
    {
      "channel": 3,
      "note": 79,
      "start": 62.8065,
      "duration": 0.017,
      "velocity": 94,
      "chip": "ym2612"
    },
    {
      "channel": 2,
      "note": 55,
      "start": 62.8077,
      "duration": 0.0172,
      "velocity": 100,
      "chip": "ym2612"
    },
    {
      "channel": 1,
      "note": 69,
      "start": 62.8201,
      "duration": 0.0161,
      "velocity": 124,
      "chip": "ym2612"
    },
    {
      "channel": 4,
      "note": 74,
      "start": 62.8222,
      "duration": 0.0155,
      "velocity": 94,
      "chip": "ym2612"
    },
    {
      "channel": 3,
      "note": 79,
      "start": 62.8235,
      "duration": 0.0153,
      "velocity": 94,
      "chip": "ym2612"
    },
    {
      "channel": 2,
      "note": 55,
      "start": 62.825,
      "duration": 0.0151,
      "velocity": 100,
      "chip": "ym2612"
    },
    {
      "channel": 1,
      "note": 68,
      "start": 62.8362,
      "duration": 0.0161,
      "velocity": 124,
      "chip": "ym2612"
    },
    {
      "channel": 4,
      "note": 74,
      "start": 62.8377,
      "duration": 0.016,
      "velocity": 94,
      "chip": "ym2612"
    },
    {
      "channel": 3,
      "note": 79,
      "start": 62.8388,
      "duration": 0.016,
      "velocity": 94,
      "chip": "ym2612"
    },
    {
      "channel": 2,
      "note": 55,
      "start": 62.8401,
      "duration": 0.0159,
      "velocity": 100,
      "chip": "ym2612"
    },
    {
      "channel": 1,
      "note": 66,
      "start": 62.8523,
      "duration": 0.0161,
      "velocity": 124,
      "chip": "ym2612"
    },
    {
      "channel": 4,
      "note": 74,
      "start": 62.8537,
      "duration": 0.0161,
      "velocity": 94,
      "chip": "ym2612"
    },
    {
      "channel": 3,
      "note": 79,
      "start": 62.8548,
      "duration": 0.0161,
      "velocity": 94,
      "chip": "ym2612"
    },
    {
      "channel": 2,
      "note": 55,
      "start": 62.856,
      "duration": 0.0161,
      "velocity": 100,
      "chip": "ym2612"
    },
    {
      "channel": 1,
      "note": 65,
      "start": 62.8684,
      "duration": 0.0162,
      "velocity": 124,
      "chip": "ym2612"
    },
    {
      "channel": 4,
      "note": 74,
      "start": 62.8698,
      "duration": 0.0161,
      "velocity": 94,
      "chip": "ym2612"
    },
    {
      "channel": 3,
      "note": 79,
      "start": 62.8709,
      "duration": 0.0161,
      "velocity": 94,
      "chip": "ym2612"
    },
    {
      "channel": 2,
      "note": 55,
      "start": 62.8721,
      "duration": 0.0161,
      "velocity": 100,
      "chip": "ym2612"
    },
    {
      "channel": 1,
      "note": 64,
      "start": 62.8845,
      "duration": 0.0161,
      "velocity": 124,
      "chip": "ym2612"
    },
    {
      "channel": 4,
      "note": 74,
      "start": 62.8859,
      "duration": 0.0161,
      "velocity": 94,
      "chip": "ym2612"
    },
    {
      "channel": 3,
      "note": 79,
      "start": 62.887,
      "duration": 0.0161,
      "velocity": 94,
      "chip": "ym2612"
    },
    {
      "channel": 2,
      "note": 55,
      "start": 62.8882,
      "duration": 0.0161,
      "velocity": 100,
      "chip": "ym2612"
    },
    {
      "channel": 1,
      "note": 62,
      "start": 62.9006,
      "duration": 0.0161,
      "velocity": 124,
      "chip": "ym2612"
    },
    {
      "channel": 4,
      "note": 74,
      "start": 62.902,
      "duration": 0.0161,
      "velocity": 94,
      "chip": "ym2612"
    },
    {
      "channel": 3,
      "note": 79,
      "start": 62.9031,
      "duration": 0.0161,
      "velocity": 94,
      "chip": "ym2612"
    },
    {
      "channel": 2,
      "note": 55,
      "start": 62.9042,
      "duration": 0.0161,
      "velocity": 100,
      "chip": "ym2612"
    },
    {
      "channel": 1,
      "note": 61,
      "start": 62.9167,
      "duration": 0.0161,
      "velocity": 124,
      "chip": "ym2612"
    },
    {
      "channel": 4,
      "note": 74,
      "start": 62.9181,
      "duration": 0.0167,
      "velocity": 94,
      "chip": "ym2612"
    },
    {
      "channel": 3,
      "note": 79,
      "start": 62.9192,
      "duration": 0.017,
      "velocity": 94,
      "chip": "ym2612"
    },
    {
      "channel": 2,
      "note": 55,
      "start": 62.9203,
      "duration": 0.0173,
      "velocity": 100,
      "chip": "ym2612"
    },
    {
      "channel": 1,
      "note": 60,
      "start": 62.9328,
      "duration": 0.0161,
      "velocity": 124,
      "chip": "ym2612"
    },
    {
      "channel": 4,
      "note": 74,
      "start": 62.9349,
      "duration": 0.0155,
      "velocity": 94,
      "chip": "ym2612"
    },
    {
      "channel": 3,
      "note": 74,
      "start": 62.9362,
      "duration": 0.0154,
      "velocity": 94,
      "chip": "ym2612"
    },
    {
      "channel": 2,
      "note": 48,
      "start": 62.9377,
      "duration": 0.0151,
      "velocity": 100,
      "chip": "ym2612"
    },
    {
      "channel": 1,
      "note": 59,
      "start": 62.9489,
      "duration": 0.0161,
      "velocity": 124,
      "chip": "ym2612"
    },
    {
      "channel": 4,
      "note": 74,
      "start": 62.9504,
      "duration": 0.016,
      "velocity": 94,
      "chip": "ym2612"
    },
    {
      "channel": 3,
      "note": 74,
      "start": 62.9516,
      "duration": 0.016,
      "velocity": 94,
      "chip": "ym2612"
    },
    {
      "channel": 2,
      "note": 48,
      "start": 62.9528,
      "duration": 0.0159,
      "velocity": 100,
      "chip": "ym2612"
    },
    {
      "channel": 1,
      "note": 57,
      "start": 62.965,
      "duration": 0.0161,
      "velocity": 124,
      "chip": "ym2612"
    },
    {
      "channel": 4,
      "note": 74,
      "start": 62.9664,
      "duration": 0.0161,
      "velocity": 94,
      "chip": "ym2612"
    },
    {
      "channel": 3,
      "note": 74,
      "start": 62.9676,
      "duration": 0.0161,
      "velocity": 94,
      "chip": "ym2612"
    },
    {
      "channel": 2,
      "note": 48,
      "start": 62.9687,
      "duration": 0.0161,
      "velocity": 100,
      "chip": "ym2612"
    },
    {
      "channel": 1,
      "note": 56,
      "start": 62.9811,
      "duration": 0.0163,
      "velocity": 124,
      "chip": "ym2612"
    },
    {
      "channel": 4,
      "note": 74,
      "start": 62.9825,
      "duration": 0.0163,
      "velocity": 94,
      "chip": "ym2612"
    },
    {
      "channel": 3,
      "note": 74,
      "start": 62.9836,
      "duration": 0.0163,
      "velocity": 94,
      "chip": "ym2612"
    },
    {
      "channel": 2,
      "note": 48,
      "start": 62.9848,
      "duration": 0.0163,
      "velocity": 100,
      "chip": "ym2612"
    },
    {
      "channel": 1,
      "note": 55,
      "start": 62.9974,
      "duration": 0.0159,
      "velocity": 124,
      "chip": "ym2612"
    },
    {
      "channel": 4,
      "note": 74,
      "start": 62.9988,
      "duration": 0.0158,
      "velocity": 94,
      "chip": "ym2612"
    },
    {
      "channel": 3,
      "note": 74,
      "start": 63.0,
      "duration": 0.0159,
      "velocity": 94,
      "chip": "ym2612"
    },
    {
      "channel": 2,
      "note": 48,
      "start": 63.0011,
      "duration": 0.0159,
      "velocity": 100,
      "chip": "ym2612"
    },
    {
      "channel": 1,
      "note": 53,
      "start": 63.0133,
      "duration": 0.0178,
      "velocity": 124,
      "chip": "ym2612"
    },
    {
      "channel": 4,
      "note": 74,
      "start": 63.0147,
      "duration": 0.0178,
      "velocity": 94,
      "chip": "ym2612"
    },
    {
      "channel": 3,
      "note": 74,
      "start": 63.0158,
      "duration": 0.0178,
      "velocity": 94,
      "chip": "ym2612"
    },
    {
      "channel": 2,
      "note": 48,
      "start": 63.017,
      "duration": 0.0178,
      "velocity": 100,
      "chip": "ym2612"
    },
    {
      "channel": 1,
      "note": 52,
      "start": 63.0311,
      "duration": 0.0167,
      "velocity": 124,
      "chip": "ym2612"
    },
    {
      "channel": 4,
      "note": 74,
      "start": 63.0325,
      "duration": 0.0209,
      "velocity": 94,
      "chip": "ym2612"
    },
    {
      "channel": 3,
      "note": 74,
      "start": 63.0336,
      "duration": 0.0211,
      "velocity": 94,
      "chip": "ym2612"
    },
    {
      "channel": 2,
      "note": 48,
      "start": 63.0348,
      "duration": 0.0213,
      "velocity": 100,
      "chip": "ym2612"
    },
    {
      "channel": 1,
      "note": 51,
      "start": 63.0478,
      "duration": 0.0155,
      "velocity": 1,
      "chip": "ym2612"
    },
    {
      "channel": 0,
      "note": 78,
      "start": 63.052,
      "duration": 0.0151,
      "velocity": 127,
      "chip": "ym2612"
    },
    {
      "channel": 4,
      "note": 74,
      "start": 63.0534,
      "duration": 0.0149,
      "velocity": 94,
      "chip": "ym2612"
    },
    {
      "channel": 3,
      "note": 74,
      "start": 63.0547,
      "duration": 0.0148,
      "velocity": 94,
      "chip": "ym2612"
    },
    {
      "channel": 2,
      "note": 48,
      "start": 63.0561,
      "duration": 0.0146,
      "velocity": 100,
      "chip": "ym2612"
    },
    {
      "channel": 1,
      "note": 51,
      "start": 63.0654,
      "duration": 0.0122,
      "velocity": 105,
      "chip": "ym2612"
    },
    {
      "channel": 0,
      "note": 76,
      "start": 63.0671,
      "duration": 0.0121,
      "velocity": 127,
      "chip": "ym2612"
    },
    {
      "channel": 4,
      "note": 74,
      "start": 63.0683,
      "duration": 0.0121,
      "velocity": 94,
      "chip": "ym2612"
    },
    {
      "channel": 3,
      "note": 74,
      "start": 63.0695,
      "duration": 0.012,
      "velocity": 94,
      "chip": "ym2612"
    },
    {
      "channel": 2,
      "note": 48,
      "start": 63.0707,
      "duration": 0.0119,
      "velocity": 100,
      "chip": "ym2612"
    },
    {
      "channel": 1,
      "note": 105,
      "start": 63.0775,
      "duration": 0.0185,
      "velocity": 105,
      "chip": "ym2612"
    },
    {
      "channel": 0,
      "note": 75,
      "start": 63.0792,
      "duration": 0.0186,
      "velocity": 127,
      "chip": "ym2612"
    },
    {
      "channel": 4,
      "note": 74,
      "start": 63.0804,
      "duration": 0.0185,
      "velocity": 94,
      "chip": "ym2612"
    },
    {
      "channel": 3,
      "note": 74,
      "start": 63.0815,
      "duration": 0.0185,
      "velocity": 94,
      "chip": "ym2612"
    },
    {
      "channel": 2,
      "note": 48,
      "start": 63.0826,
      "duration": 0.0186,
      "velocity": 100,
      "chip": "ym2612"
    },
    {
      "channel": 1,
      "note": 105,
      "start": 63.096,
      "duration": 0.0134,
      "velocity": 105,
      "chip": "ym2612"
    },
    {
      "channel": 0,
      "note": 73,
      "start": 63.0978,
      "duration": 0.016,
      "velocity": 127,
      "chip": "ym2612"
    },
    {
      "channel": 4,
      "note": 74,
      "start": 63.0989,
      "duration": 0.0161,
      "velocity": 94,
      "chip": "ym2612"
    },
    {
      "channel": 3,
      "note": 74,
      "start": 63.1,
      "duration": 0.0161,
      "velocity": 94,
      "chip": "ym2612"
    },
    {
      "channel": 2,
      "note": 48,
      "start": 63.1012,
      "duration": 0.0161,
      "velocity": 100,
      "chip": "ym2612"
    },
    {
      "channel": 1,
      "note": 105,
      "start": 63.1094,
      "duration": 0.0161,
      "velocity": 105,
      "chip": "ym2612"
    },
    {
      "channel": 0,
      "note": 71,
      "start": 63.1138,
      "duration": 0.0158,
      "velocity": 127,
      "chip": "ym2612"
    },
    {
      "channel": 4,
      "note": 74,
      "start": 63.115,
      "duration": 0.0157,
      "velocity": 94,
      "chip": "ym2612"
    },
    {
      "channel": 3,
      "note": 74,
      "start": 63.1161,
      "duration": 0.0157,
      "velocity": 94,
      "chip": "ym2612"
    },
    {
      "channel": 2,
      "note": 48,
      "start": 63.1173,
      "duration": 0.0157,
      "velocity": 100,
      "chip": "ym2612"
    },
    {
      "channel": 1,
      "note": 105,
      "start": 63.1255,
      "duration": 0.0162,
      "velocity": 105,
      "chip": "ym2612"
    },
    {
      "channel": 0,
      "note": 70,
      "start": 63.1296,
      "duration": 0.0141,
      "velocity": 127,
      "chip": "ym2612"
    },
    {
      "channel": 4,
      "note": 74,
      "start": 63.1307,
      "duration": 0.0141,
      "velocity": 94,
      "chip": "ym2612"
    },
    {
      "channel": 3,
      "note": 74,
      "start": 63.1319,
      "duration": 0.0141,
      "velocity": 94,
      "chip": "ym2612"
    },
    {
      "channel": 2,
      "note": 48,
      "start": 63.133,
      "duration": 0.0141,
      "velocity": 100,
      "chip": "ym2612"
    },
    {
      "channel": 1,
      "note": 105,
      "start": 63.1417,
      "duration": 0.0178,
      "velocity": 124,
      "chip": "ym2612"
    },
    {
      "channel": 0,
      "note": 68,
      "start": 63.1436,
      "duration": 0.022,
      "velocity": 115,
      "chip": "ym2612"
    },
    {
      "channel": 4,
      "note": 74,
      "start": 63.1448,
      "duration": 0.0222,
      "velocity": 94,
      "chip": "ym2612"
    },
    {
      "channel": 3,
      "note": 74,
      "start": 63.1459,
      "duration": 0.0224,
      "velocity": 94,
      "chip": "ym2612"
    },
    {
      "channel": 2,
      "note": 48,
      "start": 63.1471,
      "duration": 0.0227,
      "velocity": 100,
      "chip": "ym2612"
    },
    {
      "channel": 1,
      "note": 64,
      "start": 63.1595,
      "duration": 0.0148,
      "velocity": 124,
      "chip": "ym2612"
    },
    {
      "channel": 0,
      "note": 36,
      "start": 63.1657,
      "duration": 0.0102,
      "velocity": 115,
      "chip": "ym2612"
    },
    {
      "channel": 4,
      "note": 74,
      "start": 63.167,
      "duration": 0.0129,
      "velocity": 94,
      "chip": "ym2612"
    },
    {
      "channel": 3,
      "note": 74,
      "start": 63.1684,
      "duration": 0.0127,
      "velocity": 94,
      "chip": "ym2612"
    },
    {
      "channel": 2,
      "note": 50,
      "start": 63.1698,
      "duration": 0.0125,
      "velocity": 100,
      "chip": "ym2612"
    },
    {
      "channel": 1,
      "note": 64,
      "start": 63.1742,
      "duration": 0.0157,
      "velocity": 124,
      "chip": "ym2612"
    },
    {
      "channel": 0,
      "note": 36,
      "start": 63.1759,
      "duration": 0.0156,
      "velocity": 115,
      "chip": "ym2612"
    },
    {
      "channel": 4,
      "note": 74,
      "start": 63.1799,
      "duration": 0.0129,
      "velocity": 94,
      "chip": "ym2612"
    },
    {
      "channel": 3,
      "note": 74,
      "start": 63.1811,
      "duration": 0.0152,
      "velocity": 94,
      "chip": "ym2612"
    },
    {
      "channel": 2,
      "note": 50,
      "start": 63.1823,
      "duration": 0.0151,
      "velocity": 100,
      "chip": "ym2612"
    },
    {
      "channel": 1,
      "note": 64,
      "start": 63.1899,
      "duration": 0.0161,
      "velocity": 124,
      "chip": "ym2612"
    },
    {
      "channel": 0,
      "note": 37,
      "start": 63.1916,
      "duration": 0.0161,
      "velocity": 115,
      "chip": "ym2612"
    },
    {
      "channel": 4,
      "note": 74,
      "start": 63.1928,
      "duration": 0.0161,
      "velocity": 94,
      "chip": "ym2612"
    },
    {
      "channel": 3,
      "note": 74,
      "start": 63.1963,
      "duration": 0.0141,
      "velocity": 94,
      "chip": "ym2612"
    },
    {
      "channel": 2,
      "note": 50,
      "start": 63.1974,
      "duration": 0.0141,
      "velocity": 100,
      "chip": "ym2612"
    },
    {
      "channel": 1,
      "note": 64,
      "start": 63.206,
      "duration": 0.0161,
      "velocity": 124,
      "chip": "ym2612"
    },
    {
      "channel": 0,
      "note": 37,
      "start": 63.2077,
      "duration": 0.0161,
      "velocity": 115,
      "chip": "ym2612"
    },
    {
      "channel": 4,
      "note": 74,
      "start": 63.2089,
      "duration": 0.0161,
      "velocity": 94,
      "chip": "ym2612"
    },
    {
      "channel": 3,
      "note": 74,
      "start": 63.2104,
      "duration": 0.0158,
      "velocity": 94,
      "chip": "ym2612"
    },
    {
      "channel": 2,
      "note": 50,
      "start": 63.2115,
      "duration": 0.0185,
      "velocity": 100,
      "chip": "ym2612"
    },
    {
      "channel": 1,
      "note": 64,
      "start": 63.2221,
      "duration": 0.0161,
      "velocity": 124,
      "chip": "ym2612"
    },
    {
      "channel": 0,
      "note": 38,
      "start": 63.2238,
      "duration": 0.0161,
      "velocity": 115,
      "chip": "ym2612"
    },
    {
      "channel": 4,
      "note": 74,
      "start": 63.225,
      "duration": 0.0161,
      "velocity": 94,
      "chip": "ym2612"
    },
    {
      "channel": 3,
      "note": 74,
      "start": 63.2261,
      "duration": 0.0161,
      "velocity": 94,
      "chip": "ym2612"
    },
    {
      "channel": 2,
      "note": 50,
      "start": 63.23,
      "duration": 0.0161,
      "velocity": 100,
      "chip": "ym2612"
    },
    {
      "channel": 1,
      "note": 64,
      "start": 63.2382,
      "duration": 0.0161,
      "velocity": 124,
      "chip": "ym2612"
    },
    {
      "channel": 0,
      "note": 38,
      "start": 63.2399,
      "duration": 0.0162,
      "velocity": 115,
      "chip": "ym2612"
    },
    {
      "channel": 4,
      "note": 74,
      "start": 63.2411,
      "duration": 0.0161,
      "velocity": 94,
      "chip": "ym2612"
    },
    {
      "channel": 3,
      "note": 74,
      "start": 63.2422,
      "duration": 0.0161,
      "velocity": 94,
      "chip": "ym2612"
    },
    {
      "channel": 2,
      "note": 50,
      "start": 63.2461,
      "duration": 0.0134,
      "velocity": 100,
      "chip": "ym2612"
    },
    {
      "channel": 1,
      "note": 64,
      "start": 63.2543,
      "duration": 0.0178,
      "velocity": 105,
      "chip": "ym2612"
    },
    {
      "channel": 0,
      "note": 39,
      "start": 63.256,
      "duration": 0.0178,
      "velocity": 115,
      "chip": "ym2612"
    },
    {
      "channel": 4,
      "note": 74,
      "start": 63.2572,
      "duration": 0.018,
      "velocity": 94,
      "chip": "ym2612"
    },
    {
      "channel": 3,
      "note": 74,
      "start": 63.2583,
      "duration": 0.0183,
      "velocity": 94,
      "chip": "ym2612"
    },
    {
      "channel": 2,
      "note": 50,
      "start": 63.2595,
      "duration": 0.0188,
      "velocity": 100,
      "chip": "ym2612"
    },
    {
      "channel": 1,
      "note": 105,
      "start": 63.2721,
      "duration": 0.0144,
      "velocity": 105,
      "chip": "ym2612"
    },
    {
      "channel": 0,
      "note": 39,
      "start": 63.2738,
      "duration": 0.0144,
      "velocity": 115,
      "chip": "ym2612"
    },
    {
      "channel": 4,
      "note": 79,
      "start": 63.2752,
      "duration": 0.0143,
      "velocity": 94,
      "chip": "ym2612"
    },
    {
      "channel": 3,
      "note": 74,
      "start": 63.2766,
      "duration": 0.0141,
      "velocity": 94,
      "chip": "ym2612"
    },
    {
      "channel": 2,
      "note": 50,
      "start": 63.2783,
      "duration": 0.0135,
      "velocity": 100,
      "chip": "ym2612"
    },
    {
      "channel": 1,
      "note": 105,
      "start": 63.2866,
      "duration": 0.0161,
      "velocity": 105,
      "chip": "ym2612"
    },
    {
      "channel": 0,
      "note": 40,
      "start": 63.2883,
      "duration": 0.016,
      "velocity": 115,
      "chip": "ym2612"
    },
    {
      "channel": 4,
      "note": 79,
      "start": 63.2895,
      "duration": 0.016,
      "velocity": 94,
      "chip": "ym2612"
    },
    {
      "channel": 3,
      "note": 74,
      "start": 63.2907,
      "duration": 0.0159,
      "velocity": 94,
      "chip": "ym2612"
    },
    {
      "channel": 2,
      "note": 50,
      "start": 63.2918,
      "duration": 0.0159,
      "velocity": 100,
      "chip": "ym2612"
    },
    {
      "channel": 1,
      "note": 105,
      "start": 63.3027,
      "duration": 0.0161,
      "velocity": 105,
      "chip": "ym2612"
    },
    {
      "channel": 0,
      "note": 40,
      "start": 63.3043,
      "duration": 0.0161,
      "velocity": 115,
      "chip": "ym2612"
    },
    {
      "channel": 4,
      "note": 79,
      "start": 63.3055,
      "duration": 0.0161,
      "velocity": 94,
      "chip": "ym2612"
    },
    {
      "channel": 3,
      "note": 74,
      "start": 63.3066,
      "duration": 0.0161,
      "velocity": 94,
      "chip": "ym2612"
    },
    {
      "channel": 2,
      "note": 50,
      "start": 63.3078,
      "duration": 0.0161,
      "velocity": 100,
      "chip": "ym2612"
    },
    {
      "channel": 1,
      "note": 105,
      "start": 63.3188,
      "duration": 0.0161,
      "velocity": 105,
      "chip": "ym2612"
    },
    {
      "channel": 0,
      "note": 40,
      "start": 63.3204,
      "duration": 0.0161,
      "velocity": 115,
      "chip": "ym2612"
    },
    {
      "channel": 4,
      "note": 79,
      "start": 63.3215,
      "duration": 0.0161,
      "velocity": 94,
      "chip": "ym2612"
    },
    {
      "channel": 3,
      "note": 74,
      "start": 63.3227,
      "duration": 0.0161,
      "velocity": 94,
      "chip": "ym2612"
    },
    {
      "channel": 2,
      "note": 50,
      "start": 63.3238,
      "duration": 0.0161,
      "velocity": 100,
      "chip": "ym2612"
    },
    {
      "channel": 1,
      "note": 105,
      "start": 63.3349,
      "duration": 0.0161,
      "velocity": 105,
      "chip": "ym2612"
    },
    {
      "channel": 0,
      "note": 41,
      "start": 63.3365,
      "duration": 0.0161,
      "velocity": 115,
      "chip": "ym2612"
    },
    {
      "channel": 4,
      "note": 79,
      "start": 63.3376,
      "duration": 0.0162,
      "velocity": 94,
      "chip": "ym2612"
    },
    {
      "channel": 3,
      "note": 74,
      "start": 63.3388,
      "duration": 0.0161,
      "velocity": 94,
      "chip": "ym2612"
    },
    {
      "channel": 2,
      "note": 50,
      "start": 63.3399,
      "duration": 0.0161,
      "velocity": 100,
      "chip": "ym2612"
    },
    {
      "channel": 1,
      "note": 105,
      "start": 63.3509,
      "duration": 0.0161,
      "velocity": 105,
      "chip": "ym2612"
    },
    {
      "channel": 0,
      "note": 41,
      "start": 63.3526,
      "duration": 0.0161,
      "velocity": 115,
      "chip": "ym2612"
    },
    {
      "channel": 4,
      "note": 79,
      "start": 63.3538,
      "duration": 0.0161,
      "velocity": 94,
      "chip": "ym2612"
    },
    {
      "channel": 3,
      "note": 74,
      "start": 63.3549,
      "duration": 0.0162,
      "velocity": 94,
      "chip": "ym2612"
    },
    {
      "channel": 2,
      "note": 50,
      "start": 63.356,
      "duration": 0.0161,
      "velocity": 100,
      "chip": "ym2612"
    },
    {
      "channel": 1,
      "note": 105,
      "start": 63.367,
      "duration": 0.0178,
      "velocity": 124,
      "chip": "ym2612"
    },
    {
      "channel": 0,
      "note": 42,
      "start": 63.3687,
      "duration": 0.0179,
      "velocity": 115,
      "chip": "ym2612"
    },
    {
      "channel": 4,
      "note": 79,
      "start": 63.3699,
      "duration": 0.018,
      "velocity": 94,
      "chip": "ym2612"
    },
    {
      "channel": 3,
      "note": 74,
      "start": 63.371,
      "duration": 0.0182,
      "velocity": 94,
      "chip": "ym2612"
    },
    {
      "channel": 2,
      "note": 50,
      "start": 63.3721,
      "duration": 0.0186,
      "velocity": 100,
      "chip": "ym2612"
    },
    {
      "channel": 1,
      "note": 64,
      "start": 63.3849,
      "duration": 0.0144,
      "velocity": 124,
      "chip": "ym2612"
    },
    {
      "channel": 0,
      "note": 42,
      "start": 63.3866,
      "duration": 0.0144,
      "velocity": 115,
      "chip": "ym2612"
    },
    {
      "channel": 4,
      "note": 79,
      "start": 63.3878,
      "duration": 0.0144,
      "velocity": 94,
      "chip": "ym2612"
    },
    {
      "channel": 3,
      "note": 79,
      "start": 63.3892,
      "duration": 0.0142,
      "velocity": 94,
      "chip": "ym2612"
    },
    {
      "channel": 2,
      "note": 50,
      "start": 63.3907,
      "duration": 0.0139,
      "velocity": 100,
      "chip": "ym2612"
    },
    {
      "channel": 1,
      "note": 64,
      "start": 63.3993,
      "duration": 0.016,
      "velocity": 124,
      "chip": "ym2612"
    },
    {
      "channel": 0,
      "note": 43,
      "start": 63.401,
      "duration": 0.016,
      "velocity": 115,
      "chip": "ym2612"
    },
    {
      "channel": 4,
      "note": 79,
      "start": 63.4022,
      "duration": 0.016,
      "velocity": 94,
      "chip": "ym2612"
    },
    {
      "channel": 3,
      "note": 79,
      "start": 63.4034,
      "duration": 0.0159,
      "velocity": 94,
      "chip": "ym2612"
    },
    {
      "channel": 2,
      "note": 50,
      "start": 63.4046,
      "duration": 0.0159,
      "velocity": 100,
      "chip": "ym2612"
    },
    {
      "channel": 1,
      "note": 64,
      "start": 63.4153,
      "duration": 0.0161,
      "velocity": 124,
      "chip": "ym2612"
    },
    {
      "channel": 0,
      "note": 43,
      "start": 63.417,
      "duration": 0.0161,
      "velocity": 115,
      "chip": "ym2612"
    },
    {
      "channel": 4,
      "note": 79,
      "start": 63.4182,
      "duration": 0.0161,
      "velocity": 94,
      "chip": "ym2612"
    },
    {
      "channel": 3,
      "note": 79,
      "start": 63.4193,
      "duration": 0.0161,
      "velocity": 94,
      "chip": "ym2612"
    },
    {
      "channel": 2,
      "note": 50,
      "start": 63.4205,
      "duration": 0.0161,
      "velocity": 100,
      "chip": "ym2612"
    },
    {
      "channel": 1,
      "note": 64,
      "start": 63.4314,
      "duration": 0.0162,
      "velocity": 124,
      "chip": "ym2612"
    },
    {
      "channel": 0,
      "note": 44,
      "start": 63.4331,
      "duration": 0.0161,
      "velocity": 115,
      "chip": "ym2612"
    },
    {
      "channel": 4,
      "note": 79,
      "start": 63.4343,
      "duration": 0.0161,
      "velocity": 94,
      "chip": "ym2612"
    },
    {
      "channel": 3,
      "note": 79,
      "start": 63.4354,
      "duration": 0.0161,
      "velocity": 94,
      "chip": "ym2612"
    },
    {
      "channel": 2,
      "note": 50,
      "start": 63.4366,
      "duration": 0.0161,
      "velocity": 100,
      "chip": "ym2612"
    },
    {
      "channel": 1,
      "note": 64,
      "start": 63.4476,
      "duration": 0.0161,
      "velocity": 124,
      "chip": "ym2612"
    },
    {
      "channel": 0,
      "note": 44,
      "start": 63.4492,
      "duration": 0.0161,
      "velocity": 115,
      "chip": "ym2612"
    },
    {
      "channel": 4,
      "note": 79,
      "start": 63.4504,
      "duration": 0.0162,
      "velocity": 94,
      "chip": "ym2612"
    },
    {
      "channel": 3,
      "note": 79,
      "start": 63.4515,
      "duration": 0.0161,
      "velocity": 94,
      "chip": "ym2612"
    },
    {
      "channel": 2,
      "note": 50,
      "start": 63.4527,
      "duration": 0.0161,
      "velocity": 100,
      "chip": "ym2612"
    },
    {
      "channel": 1,
      "note": 64,
      "start": 63.4637,
      "duration": 0.0161,
      "velocity": 124,
      "chip": "ym2612"
    },
    {
      "channel": 0,
      "note": 44,
      "start": 63.4653,
      "duration": 0.0161,
      "velocity": 115,
      "chip": "ym2612"
    },
    {
      "channel": 4,
      "note": 79,
      "start": 63.4665,
      "duration": 0.0161,
      "velocity": 94,
      "chip": "ym2612"
    },
    {
      "channel": 3,
      "note": 79,
      "start": 63.4677,
      "duration": 0.0161,
      "velocity": 94,
      "chip": "ym2612"
    },
    {
      "channel": 2,
      "note": 50,
      "start": 63.4688,
      "duration": 0.0161,
      "velocity": 100,
      "chip": "ym2612"
    },
    {
      "channel": 1,
      "note": 64,
      "start": 63.4798,
      "duration": 0.0192,
      "velocity": 105,
      "chip": "ym2612"
    },
    {
      "channel": 0,
      "note": 45,
      "start": 63.4814,
      "duration": 0.0193,
      "velocity": 115,
      "chip": "ym2612"
    },
    {
      "channel": 4,
      "note": 79,
      "start": 63.4826,
      "duration": 0.0195,
      "velocity": 94,
      "chip": "ym2612"
    },
    {
      "channel": 3,
      "note": 79,
      "start": 63.4838,
      "duration": 0.0197,
      "velocity": 94,
      "chip": "ym2612"
    },
    {
      "channel": 2,
      "note": 50,
      "start": 63.4849,
      "duration": 0.02,
      "velocity": 100,
      "chip": "ym2612"
    },
    {
      "channel": 1,
      "note": 105,
      "start": 63.499,
      "duration": 0.015,
      "velocity": 105,
      "chip": "ym2612"
    },
    {
      "channel": 0,
      "note": 45,
      "start": 63.5007,
      "duration": 0.015,
      "velocity": 115,
      "chip": "ym2612"
    },
    {
      "channel": 4,
      "note": 79,
      "start": 63.5022,
      "duration": 0.0148,
      "velocity": 94,
      "chip": "ym2612"
    },
    {
      "channel": 3,
      "note": 79,
      "start": 63.5034,
      "duration": 0.0147,
      "velocity": 94,
      "chip": "ym2612"
    },
    {
      "channel": 2,
      "note": 50,
      "start": 63.5048,
      "duration": 0.0144,
      "velocity": 100,
      "chip": "ym2612"
    },
    {
      "channel": 1,
      "note": 105,
      "start": 63.514,
      "duration": 0.0163,
      "velocity": 105,
      "chip": "ym2612"
    },
    {
      "channel": 0,
      "note": 46,
      "start": 63.5157,
      "duration": 0.0162,
      "velocity": 115,
      "chip": "ym2612"
    },
    {
      "channel": 4,
      "note": 79,
      "start": 63.5169,
      "duration": 0.0162,
      "velocity": 94,
      "chip": "ym2612"
    },
    {
      "channel": 3,
      "note": 79,
      "start": 63.5181,
      "duration": 0.0161,
      "velocity": 94,
      "chip": "ym2612"
    },
    {
      "channel": 2,
      "note": 50,
      "start": 63.5193,
      "duration": 0.0161,
      "velocity": 100,
      "chip": "ym2612"
    },
    {
      "channel": 1,
      "note": 105,
      "start": 63.5303,
      "duration": 0.0142,
      "velocity": 105,
      "chip": "ym2612"
    },
    {
      "channel": 0,
      "note": 46,
      "start": 63.5319,
      "duration": 0.0142,
      "velocity": 115,
      "chip": "ym2612"
    },
    {
      "channel": 4,
      "note": 79,
      "start": 63.5331,
      "duration": 0.0142,
      "velocity": 94,
      "chip": "ym2612"
    },
    {
      "channel": 3,
      "note": 79,
      "start": 63.5342,
      "duration": 0.0142,
      "velocity": 94,
      "chip": "ym2612"
    },
    {
      "channel": 2,
      "note": 50,
      "start": 63.5354,
      "duration": 0.0142,
      "velocity": 100,
      "chip": "ym2612"
    },
    {
      "channel": 1,
      "note": 105,
      "start": 63.5444,
      "duration": 0.0185,
      "velocity": 105,
      "chip": "ym2612"
    },
    {
      "channel": 0,
      "note": 47,
      "start": 63.5461,
      "duration": 0.0185,
      "velocity": 115,
      "chip": "ym2612"
    },
    {
      "channel": 4,
      "note": 79,
      "start": 63.5473,
      "duration": 0.0185,
      "velocity": 94,
      "chip": "ym2612"
    },
    {
      "channel": 3,
      "note": 79,
      "start": 63.5485,
      "duration": 0.0185,
      "velocity": 94,
      "chip": "ym2612"
    },
    {
      "channel": 2,
      "note": 50,
      "start": 63.5495,
      "duration": 0.0186,
      "velocity": 100,
      "chip": "ym2612"
    },
    {
      "channel": 1,
      "note": 105,
      "start": 63.563,
      "duration": 0.0134,
      "velocity": 105,
      "chip": "ym2612"
    },
    {
      "channel": 0,
      "note": 47,
      "start": 63.5646,
      "duration": 0.0161,
      "velocity": 115,
      "chip": "ym2612"
    },
    {
      "channel": 4,
      "note": 79,
      "start": 63.5658,
      "duration": 0.0161,
      "velocity": 94,
      "chip": "ym2612"
    },
    {
      "channel": 3,
      "note": 79,
      "start": 63.567,
      "duration": 0.0161,
      "velocity": 94,
      "chip": "ym2612"
    },
    {
      "channel": 2,
      "note": 50,
      "start": 63.5681,
      "duration": 0.0161,
      "velocity": 100,
      "chip": "ym2612"
    },
    {
      "channel": 1,
      "note": 105,
      "start": 63.5763,
      "duration": 0.0161,
      "velocity": 105,
      "chip": "ym2612"
    },
    {
      "channel": 0,
      "note": 47,
      "start": 63.5808,
      "duration": 0.0157,
      "velocity": 115,
      "chip": "ym2612"
    },
    {
      "channel": 4,
      "note": 79,
      "start": 63.5819,
      "duration": 0.0158,
      "velocity": 94,
      "chip": "ym2612"
    },
    {
      "channel": 3,
      "note": 79,
      "start": 63.5831,
      "duration": 0.0158,
      "velocity": 94,
      "chip": "ym2612"
    },
    {
      "channel": 2,
      "note": 50,
      "start": 63.5842,
      "duration": 0.0158,
      "velocity": 100,
      "chip": "ym2612"
    },
    {
      "channel": 1,
      "note": 105,
      "start": 63.5925,
      "duration": 0.0186,
      "velocity": 124,
      "chip": "ym2612"
    },
    {
      "channel": 0,
      "note": 48,
      "start": 63.5965,
      "duration": 0.0171,
      "velocity": 115,
      "chip": "ym2612"
    },
    {
      "channel": 4,
      "note": 79,
      "start": 63.5977,
      "duration": 0.0172,
      "velocity": 94,
      "chip": "ym2612"
    },
    {
      "channel": 3,
      "note": 79,
      "start": 63.5988,
      "duration": 0.0174,
      "velocity": 94,
      "chip": "ym2612"
    },
    {
      "channel": 2,
      "note": 50,
      "start": 63.6,
      "duration": 0.0177,
      "velocity": 100,
      "chip": "ym2612"
    },
    {
      "channel": 1,
      "note": 78,
      "start": 63.6112,
      "duration": 0.0141,
      "velocity": 124,
      "chip": "ym2612"
    },
    {
      "channel": 0,
      "note": 48,
      "start": 63.6135,
      "duration": 0.0163,
      "velocity": 115,
      "chip": "ym2612"
    },
    {
      "channel": 4,
      "note": 79,
      "start": 63.6149,
      "duration": 0.0162,
      "velocity": 94,
      "chip": "ym2612"
    },
    {
      "channel": 3,
      "note": 79,
      "start": 63.6163,
      "duration": 0.016,
      "velocity": 94,
      "chip": "ym2612"
    },
    {
      "channel": 2,
      "note": 50,
      "start": 63.6177,
      "duration": 0.0158,
      "velocity": 100,
      "chip": "ym2612"
    },
    {
      "channel": 1,
      "note": 76,
      "start": 63.6252,
      "duration": 0.016,
      "velocity": 124,
      "chip": "ym2612"
    },
    {
      "channel": 0,
      "note": 49,
      "start": 63.6299,
      "duration": 0.0125,
      "velocity": 1,
      "chip": "ym2612"
    },
    {
      "channel": 4,
      "note": 79,
      "start": 63.6311,
      "duration": 0.0151,
      "velocity": 94,
      "chip": "ym2612"
    },
    {
      "channel": 3,
      "note": 79,
      "start": 63.6323,
      "duration": 0.0151,
      "velocity": 94,
      "chip": "ym2612"
    },
    {
      "channel": 2,
      "note": 50,
      "start": 63.6335,
      "duration": 0.015,
      "velocity": 100,
      "chip": "ym2612"
    },
    {
      "channel": 1,
      "note": 75,
      "start": 63.6413,
      "duration": 0.0161,
      "velocity": 124,
      "chip": "ym2612"
    },
    {
      "channel": 4,
      "note": 79,
      "start": 63.6462,
      "duration": 0.0125,
      "velocity": 94,
      "chip": "ym2612"
    },
    {
      "channel": 3,
      "note": 79,
      "start": 63.6474,
      "duration": 0.0149,
      "velocity": 94,
      "chip": "ym2612"
    },
    {
      "channel": 2,
      "note": 50,
      "start": 63.6485,
      "duration": 0.0149,
      "velocity": 100,
      "chip": "ym2612"
    },
    {
      "channel": 1,
      "note": 74,
      "start": 63.6574,
      "duration": 0.0161,
      "velocity": 124,
      "chip": "ym2612"
    },
    {
      "channel": 4,
      "note": 79,
      "start": 63.6588,
      "duration": 0.0161,
      "velocity": 94,
      "chip": "ym2612"
    },
    {
      "channel": 3,
      "note": 79,
      "start": 63.6623,
      "duration": 0.0137,
      "velocity": 94,
      "chip": "ym2612"
    },
    {
      "channel": 2,
      "note": 50,
      "start": 63.6634,
      "duration": 0.0141,
      "velocity": 100,
      "chip": "ym2612"
    },
    {
      "channel": 1,
      "note": 72,
      "start": 63.6735,
      "duration": 0.0161,
      "velocity": 124,
      "chip": "ym2612"
    },
    {
      "channel": 4,
      "note": 79,
      "start": 63.6749,
      "duration": 0.0161,
      "velocity": 94,
      "chip": "ym2612"
    },
    {
      "channel": 3,
      "note": 79,
      "start": 63.676,
      "duration": 0.0161,
      "velocity": 94,
      "chip": "ym2612"
    },
    {
      "channel": 2,
      "note": 50,
      "start": 63.6775,
      "duration": 0.0185,
      "velocity": 100,
      "chip": "ym2612"
    },
    {
      "channel": 1,
      "note": 71,
      "start": 63.6895,
      "duration": 0.0161,
      "velocity": 124,
      "chip": "ym2612"
    },
    {
      "channel": 4,
      "note": 79,
      "start": 63.691,
      "duration": 0.0161,
      "velocity": 94,
      "chip": "ym2612"
    },
    {
      "channel": 3,
      "note": 79,
      "start": 63.6921,
      "duration": 0.0161,
      "velocity": 94,
      "chip": "ym2612"
    },
    {
      "channel": 2,
      "note": 50,
      "start": 63.696,
      "duration": 0.0134,
      "velocity": 100,
      "chip": "ym2612"
    },
    {
      "channel": 1,
      "note": 70,
      "start": 63.7056,
      "duration": 0.0161,
      "velocity": 124,
      "chip": "ym2612"
    },
    {
      "channel": 4,
      "note": 79,
      "start": 63.7071,
      "duration": 0.0168,
      "velocity": 94,
      "chip": "ym2612"
    },
    {
      "channel": 3,
      "note": 79,
      "start": 63.7082,
      "duration": 0.0171,
      "velocity": 94,
      "chip": "ym2612"
    },
    {
      "channel": 2,
      "note": 50,
      "start": 63.7093,
      "duration": 0.0197,
      "velocity": 100,
      "chip": "ym2612"
    },
    {
      "channel": 1,
      "note": 69,
      "start": 63.7217,
      "duration": 0.0161,
      "velocity": 124,
      "chip": "ym2612"
    },
    {
      "channel": 4,
      "note": 74,
      "start": 63.724,
      "duration": 0.0154,
      "velocity": 94,
      "chip": "ym2612"
    },
    {
      "channel": 3,
      "note": 79,
      "start": 63.7252,
      "duration": 0.0153,
      "velocity": 94,
      "chip": "ym2612"
    },
    {
      "channel": 2,
      "note": 50,
      "start": 63.729,
      "duration": 0.0127,
      "velocity": 100,
      "chip": "ym2612"
    },
    {
      "channel": 1,
      "note": 68,
      "start": 63.7378,
      "duration": 0.0161,
      "velocity": 124,
      "chip": "ym2612"
    },
    {
      "channel": 4,
      "note": 74,
      "start": 63.7394,
      "duration": 0.016,
      "velocity": 94,
      "chip": "ym2612"
    },
    {
      "channel": 3,
      "note": 79,
      "start": 63.7406,
      "duration": 0.0159,
      "velocity": 94,
      "chip": "ym2612"
    },
    {
      "channel": 2,
      "note": 50,
      "start": 63.7417,
      "duration": 0.0159,
      "velocity": 100,
      "chip": "ym2612"
    },
    {
      "channel": 1,
      "note": 66,
      "start": 63.7539,
      "duration": 0.0161,
      "velocity": 124,
      "chip": "ym2612"
    },
    {
      "channel": 4,
      "note": 74,
      "start": 63.7553,
      "duration": 0.0161,
      "velocity": 94,
      "chip": "ym2612"
    },
    {
      "channel": 3,
      "note": 79,
      "start": 63.7565,
      "duration": 0.0161,
      "velocity": 94,
      "chip": "ym2612"
    },
    {
      "channel": 2,
      "note": 50,
      "start": 63.7576,
      "duration": 0.0161,
      "velocity": 100,
      "chip": "ym2612"
    },
    {
      "channel": 1,
      "note": 65,
      "start": 63.77,
      "duration": 0.0162,
      "velocity": 124,
      "chip": "ym2612"
    },
    {
      "channel": 4,
      "note": 74,
      "start": 63.7714,
      "duration": 0.0161,
      "velocity": 94,
      "chip": "ym2612"
    },
    {
      "channel": 3,
      "note": 79,
      "start": 63.7726,
      "duration": 0.0161,
      "velocity": 94,
      "chip": "ym2612"
    },
    {
      "channel": 2,
      "note": 50,
      "start": 63.7737,
      "duration": 0.0161,
      "velocity": 100,
      "chip": "ym2612"
    },
    {
      "channel": 1,
      "note": 64,
      "start": 63.7862,
      "duration": 0.0161,
      "velocity": 124,
      "chip": "ym2612"
    },
    {
      "channel": 4,
      "note": 74,
      "start": 63.7876,
      "duration": 0.0161,
      "velocity": 94,
      "chip": "ym2612"
    },
    {
      "channel": 3,
      "note": 79,
      "start": 63.7887,
      "duration": 0.0161,
      "velocity": 94,
      "chip": "ym2612"
    },
    {
      "channel": 2,
      "note": 50,
      "start": 63.7898,
      "duration": 0.0161,
      "velocity": 100,
      "chip": "ym2612"
    },
    {
      "channel": 1,
      "note": 62,
      "start": 63.8023,
      "duration": 0.0161,
      "velocity": 124,
      "chip": "ym2612"
    },
    {
      "channel": 4,
      "note": 74,
      "start": 63.8037,
      "duration": 0.0161,
      "velocity": 94,
      "chip": "ym2612"
    },
    {
      "channel": 3,
      "note": 79,
      "start": 63.8048,
      "duration": 0.0161,
      "velocity": 94,
      "chip": "ym2612"
    },
    {
      "channel": 2,
      "note": 50,
      "start": 63.8059,
      "duration": 0.0161,
      "velocity": 100,
      "chip": "ym2612"
    },
    {
      "channel": 1,
      "note": 61,
      "start": 63.8184,
      "duration": 0.0161,
      "velocity": 124,
      "chip": "ym2612"
    },
    {
      "channel": 4,
      "note": 74,
      "start": 63.8198,
      "duration": 0.0167,
      "velocity": 94,
      "chip": "ym2612"
    },
    {
      "channel": 3,
      "note": 79,
      "start": 63.8209,
      "duration": 0.0169,
      "velocity": 94,
      "chip": "ym2612"
    },
    {
      "channel": 2,
      "note": 50,
      "start": 63.822,
      "duration": 0.0173,
      "velocity": 100,
      "chip": "ym2612"
    },
    {
      "channel": 1,
      "note": 60,
      "start": 63.8345,
      "duration": 0.0161,
      "velocity": 124,
      "chip": "ym2612"
    },
    {
      "channel": 4,
      "note": 74,
      "start": 63.8365,
      "duration": 0.0155,
      "velocity": 94,
      "chip": "ym2612"
    },
    {
      "channel": 3,
      "note": 74,
      "start": 63.8379,
      "duration": 0.0153,
      "velocity": 94,
      "chip": "ym2612"
    },
    {
      "channel": 2,
      "note": 50,
      "start": 63.8394,
      "duration": 0.0151,
      "velocity": 100,
      "chip": "ym2612"
    },
    {
      "channel": 1,
      "note": 59,
      "start": 63.8506,
      "duration": 0.0161,
      "velocity": 124,
      "chip": "ym2612"
    },
    {
      "channel": 4,
      "note": 74,
      "start": 63.852,
      "duration": 0.016,
      "velocity": 94,
      "chip": "ym2612"
    },
    {
      "channel": 3,
      "note": 74,
      "start": 63.8532,
      "duration": 0.016,
      "velocity": 94,
      "chip": "ym2612"
    },
    {
      "channel": 2,
      "note": 50,
      "start": 63.8544,
      "duration": 0.0159,
      "velocity": 100,
      "chip": "ym2612"
    },
    {
      "channel": 1,
      "note": 57,
      "start": 63.8666,
      "duration": 0.0161,
      "velocity": 124,
      "chip": "ym2612"
    },
    {
      "channel": 4,
      "note": 74,
      "start": 63.868,
      "duration": 0.0161,
      "velocity": 94,
      "chip": "ym2612"
    },
    {
      "channel": 3,
      "note": 74,
      "start": 63.8692,
      "duration": 0.0161,
      "velocity": 94,
      "chip": "ym2612"
    },
    {
      "channel": 2,
      "note": 50,
      "start": 63.8703,
      "duration": 0.0161,
      "velocity": 100,
      "chip": "ym2612"
    },
    {
      "channel": 1,
      "note": 56,
      "start": 63.8827,
      "duration": 0.0161,
      "velocity": 124,
      "chip": "ym2612"
    },
    {
      "channel": 4,
      "note": 74,
      "start": 63.8841,
      "duration": 0.0161,
      "velocity": 94,
      "chip": "ym2612"
    },
    {
      "channel": 3,
      "note": 74,
      "start": 63.8853,
      "duration": 0.0161,
      "velocity": 94,
      "chip": "ym2612"
    },
    {
      "channel": 2,
      "note": 50,
      "start": 63.8864,
      "duration": 0.0161,
      "velocity": 100,
      "chip": "ym2612"
    },
    {
      "channel": 1,
      "note": 55,
      "start": 63.8988,
      "duration": 0.0161,
      "velocity": 124,
      "chip": "ym2612"
    },
    {
      "channel": 4,
      "note": 74,
      "start": 63.9002,
      "duration": 0.0161,
      "velocity": 94,
      "chip": "ym2612"
    },
    {
      "channel": 3,
      "note": 74,
      "start": 63.9014,
      "duration": 0.0161,
      "velocity": 94,
      "chip": "ym2612"
    },
    {
      "channel": 2,
      "note": 50,
      "start": 63.9025,
      "duration": 0.0161,
      "velocity": 100,
      "chip": "ym2612"
    },
    {
      "channel": 1,
      "note": 53,
      "start": 63.9149,
      "duration": 0.0161,
      "velocity": 124,
      "chip": "ym2612"
    },
    {
      "channel": 4,
      "note": 74,
      "start": 63.9163,
      "duration": 0.0161,
      "velocity": 94,
      "chip": "ym2612"
    },
    {
      "channel": 3,
      "note": 74,
      "start": 63.9175,
      "duration": 0.0161,
      "velocity": 94,
      "chip": "ym2612"
    },
    {
      "channel": 2,
      "note": 50,
      "start": 63.9186,
      "duration": 0.0161,
      "velocity": 100,
      "chip": "ym2612"
    },
    {
      "channel": 1,
      "note": 52,
      "start": 63.9311,
      "duration": 0.0161,
      "velocity": 124,
      "chip": "ym2612"
    },
    {
      "channel": 4,
      "note": 74,
      "start": 63.9324,
      "duration": 0.0204,
      "velocity": 94,
      "chip": "ym2612"
    },
    {
      "channel": 3,
      "note": 74,
      "start": 63.9336,
      "duration": 0.0205,
      "velocity": 94,
      "chip": "ym2612"
    },
    {
      "channel": 2,
      "note": 50,
      "start": 63.9347,
      "duration": 0.0207,
      "velocity": 100,
      "chip": "ym2612"
    },
    {
      "channel": 1,
      "note": 51,
      "start": 63.9472,
      "duration": 0.0165,
      "velocity": 1,
      "chip": "ym2612"
    },
    {
      "channel": 0,
      "note": 36,
      "start": 63.9514,
      "duration": 0.0162,
      "velocity": 115,
      "chip": "ym2612"
    },
    {
      "channel": 4,
      "note": 74,
      "start": 63.9528,
      "duration": 0.016,
      "velocity": 94,
      "chip": "ym2612"
    },
    {
      "channel": 3,
      "note": 74,
      "start": 63.9541,
      "duration": 0.0159,
      "velocity": 94,
      "chip": "ym2612"
    },
    {
      "channel": 2,
      "note": 50,
      "start": 63.9555,
      "duration": 0.0157,
      "velocity": 100,
      "chip": "ym2612"
    },
    {
      "channel": 1,
      "note": 51,
      "start": 63.9658,
      "duration": 0.0148,
      "velocity": 105,
      "chip": "ym2612"
    },
    {
      "channel": 0,
      "note": 36,
      "start": 63.9676,
      "duration": 0.0148,
      "velocity": 115,
      "chip": "ym2612"
    },
    {
      "channel": 4,
      "note": 74,
      "start": 63.9688,
      "duration": 0.0146,
      "velocity": 94,
      "chip": "ym2612"
    },
    {
      "channel": 3,
      "note": 74,
      "start": 63.97,
      "duration": 0.0146,
      "velocity": 94,
      "chip": "ym2612"
    },
    {
      "channel": 2,
      "note": 50,
      "start": 63.9712,
      "duration": 0.0146,
      "velocity": 100,
      "chip": "ym2612"
    },
    {
      "channel": 1,
      "note": 105,
      "start": 63.9807,
      "duration": 0.0163,
      "velocity": 105,
      "chip": "ym2612"
    },
    {
      "channel": 0,
      "note": 37,
      "start": 63.9823,
      "duration": 0.0163,
      "velocity": 115,
      "chip": "ym2612"
    },
    {
      "channel": 4,
      "note": 74,
      "start": 63.9834,
      "duration": 0.0163,
      "velocity": 94,
      "chip": "ym2612"
    },
    {
      "channel": 3,
      "note": 74,
      "start": 63.9846,
      "duration": 0.0163,
      "velocity": 94,
      "chip": "ym2612"
    },
    {
      "channel": 2,
      "note": 50,
      "start": 63.9857,
      "duration": 0.0163,
      "velocity": 100,
      "chip": "ym2612"
    },
    {
      "channel": 1,
      "note": 105,
      "start": 63.9969,
      "duration": 0.0144,
      "velocity": 105,
      "chip": "ym2612"
    },
    {
      "channel": 0,
      "note": 37,
      "start": 63.9986,
      "duration": 0.0145,
      "velocity": 115,
      "chip": "ym2612"
    },
    {
      "channel": 4,
      "note": 74,
      "start": 63.9998,
      "duration": 0.0144,
      "velocity": 94,
      "chip": "ym2612"
    },
    {
      "channel": 3,
      "note": 74,
      "start": 64.0009,
      "duration": 0.0145,
      "velocity": 94,
      "chip": "ym2612"
    },
    {
      "channel": 2,
      "note": 50,
      "start": 64.002,
      "duration": 0.0145,
      "velocity": 100,
      "chip": "ym2612"
    },
    {
      "channel": 1,
      "note": 105,
      "start": 64.0114,
      "duration": 0.0186,
      "velocity": 105,
      "chip": "ym2612"
    },
    {
      "channel": 0,
      "note": 38,
      "start": 64.0131,
      "duration": 0.0185,
      "velocity": 115,
      "chip": "ym2612"
    },
    {
      "channel": 4,
      "note": 74,
      "start": 64.0142,
      "duration": 0.0185,
      "velocity": 94,
      "chip": "ym2612"
    },
    {
      "channel": 3,
      "note": 74,
      "start": 64.0154,
      "duration": 0.0185,
      "velocity": 94,
      "chip": "ym2612"
    },
    {
      "channel": 2,
      "note": 50,
      "start": 64.0165,
      "duration": 0.0185,
      "velocity": 100,
      "chip": "ym2612"
    },
    {
      "channel": 1,
      "note": 105,
      "start": 64.03,
      "duration": 0.0161,
      "velocity": 105,
      "chip": "ym2612"
    },
    {
      "channel": 0,
      "note": 38,
      "start": 64.0316,
      "duration": 0.0161,
      "velocity": 115,
      "chip": "ym2612"
    },
    {
      "channel": 4,
      "note": 74,
      "start": 64.0327,
      "duration": 0.0162,
      "velocity": 94,
      "chip": "ym2612"
    },
    {
      "channel": 3,
      "note": 74,
      "start": 64.0339,
      "duration": 0.0161,
      "velocity": 94,
      "chip": "ym2612"
    },
    {
      "channel": 2,
      "note": 50,
      "start": 64.035,
      "duration": 0.0161,
      "velocity": 100,
      "chip": "ym2612"
    },
    {
      "channel": 1,
      "note": 105,
      "start": 64.046,
      "duration": 0.0174,
      "velocity": 124,
      "chip": "ym2612"
    },
    {
      "channel": 0,
      "note": 39,
      "start": 64.0477,
      "duration": 0.0193,
      "velocity": 115,
      "chip": "ym2612"
    },
    {
      "channel": 4,
      "note": 74,
      "start": 64.0489,
      "duration": 0.0195,
      "velocity": 94,
      "chip": "ym2612"
    },
    {
      "channel": 3,
      "note": 74,
      "start": 64.05,
      "duration": 0.0198,
      "velocity": 94,
      "chip": "ym2612"
    },
    {
      "channel": 2,
      "note": 50,
      "start": 64.0511,
      "duration": 0.0201,
      "velocity": 100,
      "chip": "ym2612"
    },
    {
      "channel": 1,
      "note": 64,
      "start": 64.0635,
      "duration": 0.0121,
      "velocity": 124,
      "chip": "ym2612"
    },
    {
      "channel": 0,
      "note": 36,
      "start": 64.067,
      "duration": 0.0107,
      "velocity": 115,
      "chip": "ym2612"
    },
    {
      "channel": 4,
      "note": 79,
      "start": 64.0684,
      "duration": 0.0104,
      "velocity": 94,
      "chip": "ym2612"
    },
    {
      "channel": 3,
      "note": 74,
      "start": 64.0698,
      "duration": 0.0102,
      "velocity": 94,
      "chip": "ym2612"
    },
    {
      "channel": 2,
      "note": 50,
      "start": 64.0712,
      "duration": 0.0101,
      "velocity": 100,
      "chip": "ym2612"
    },
    {
      "channel": 1,
      "note": 64,
      "start": 64.0756,
      "duration": 0.016,
      "velocity": 124,
      "chip": "ym2612"
    },
    {
      "channel": 0,
      "note": 36,
      "start": 64.0777,
      "duration": 0.0183,
      "velocity": 115,
      "chip": "ym2612"
    },
    {
      "channel": 4,
      "note": 79,
      "start": 64.0789,
      "duration": 0.0183,
      "velocity": 94,
      "chip": "ym2612"
    },
    {
      "channel": 3,
      "note": 74,
      "start": 64.0801,
      "duration": 0.0183,
      "velocity": 94,
      "chip": "ym2612"
    },
    {
      "channel": 2,
      "note": 50,
      "start": 64.0813,
      "duration": 0.0182,
      "velocity": 100,
      "chip": "ym2612"
    },
    {
      "channel": 1,
      "note": 64,
      "start": 64.0916,
      "duration": 0.0161,
      "velocity": 124,
      "chip": "ym2612"
    },
    {
      "channel": 0,
      "note": 37,
      "start": 64.096,
      "duration": 0.0134,
      "velocity": 115,
      "chip": "ym2612"
    },
    {
      "channel": 4,
      "note": 79,
      "start": 64.0972,
      "duration": 0.0161,
      "velocity": 94,
      "chip": "ym2612"
    },
    {
      "channel": 3,
      "note": 74,
      "start": 64.0983,
      "duration": 0.0161,
      "velocity": 94,
      "chip": "ym2612"
    },
    {
      "channel": 2,
      "note": 50,
      "start": 64.0995,
      "duration": 0.0161,
      "velocity": 100,
      "chip": "ym2612"
    },
    {
      "channel": 1,
      "note": 64,
      "start": 64.1077,
      "duration": 0.0161,
      "velocity": 124,
      "chip": "ym2612"
    },
    {
      "channel": 0,
      "note": 37,
      "start": 64.1093,
      "duration": 0.0161,
      "velocity": 115,
      "chip": "ym2612"
    },
    {
      "channel": 4,
      "note": 79,
      "start": 64.1133,
      "duration": 0.0157,
      "velocity": 94,
      "chip": "ym2612"
    },
    {
      "channel": 3,
      "note": 74,
      "start": 64.1144,
      "duration": 0.0158,
      "velocity": 94,
      "chip": "ym2612"
    },
    {
      "channel": 2,
      "note": 50,
      "start": 64.1156,
      "duration": 0.0157,
      "velocity": 100,
      "chip": "ym2612"
    },
    {
      "channel": 1,
      "note": 64,
      "start": 64.1238,
      "duration": 0.0161,
      "velocity": 124,
      "chip": "ym2612"
    },
    {
      "channel": 0,
      "note": 38,
      "start": 64.1255,
      "duration": 0.0161,
      "velocity": 115,
      "chip": "ym2612"
    },
    {
      "channel": 4,
      "note": 79,
      "start": 64.129,
      "duration": 0.0137,
      "velocity": 94,
      "chip": "ym2612"
    },
    {
      "channel": 3,
      "note": 74,
      "start": 64.1302,
      "duration": 0.014,
      "velocity": 94,
      "chip": "ym2612"
    },
    {
      "channel": 2,
      "note": 50,
      "start": 64.1313,
      "duration": 0.0141,
      "velocity": 100,
      "chip": "ym2612"
    },
    {
      "channel": 1,
      "note": 64,
      "start": 64.1399,
      "duration": 0.0161,
      "velocity": 124,
      "chip": "ym2612"
    },
    {
      "channel": 0,
      "note": 38,
      "start": 64.1416,
      "duration": 0.0161,
      "velocity": 115,
      "chip": "ym2612"
    },
    {
      "channel": 4,
      "note": 79,
      "start": 64.1427,
      "duration": 0.0161,
      "velocity": 94,
      "chip": "ym2612"
    },
    {
      "channel": 3,
      "note": 74,
      "start": 64.1442,
      "duration": 0.0185,
      "velocity": 94,
      "chip": "ym2612"
    },
    {
      "channel": 2,
      "note": 50,
      "start": 64.1454,
      "duration": 0.0185,
      "velocity": 100,
      "chip": "ym2612"
    },
    {
      "channel": 1,
      "note": 64,
      "start": 64.156,
      "duration": 0.0178,
      "velocity": 105,
      "chip": "ym2612"
    },
    {
      "channel": 0,
      "note": 39,
      "start": 64.1577,
      "duration": 0.0178,
      "velocity": 115,
      "chip": "ym2612"
    },
    {
      "channel": 4,
      "note": 79,
      "start": 64.1588,
      "duration": 0.0207,
      "velocity": 94,
      "chip": "ym2612"
    },
    {
      "channel": 3,
      "note": 74,
      "start": 64.1627,
      "duration": 0.0181,
      "velocity": 94,
      "chip": "ym2612"
    },
    {
      "channel": 2,
      "note": 50,
      "start": 64.1639,
      "duration": 0.0185,
      "velocity": 100,
      "chip": "ym2612"
    },
    {
      "channel": 1,
      "note": 105,
      "start": 64.1738,
      "duration": 0.0144,
      "velocity": 105,
      "chip": "ym2612"
    },
    {
      "channel": 0,
      "note": 39,
      "start": 64.1755,
      "duration": 0.0144,
      "velocity": 115,
      "chip": "ym2612"
    },
    {
      "channel": 4,
      "note": 79,
      "start": 64.1795,
      "duration": 0.0116,
      "velocity": 94,
      "chip": "ym2612"
    },
    {
      "channel": 3,
      "note": 79,
      "start": 64.1809,
      "duration": 0.0115,
      "velocity": 94,
      "chip": "ym2612"
    },
    {
      "channel": 2,
      "note": 50,
      "start": 64.1824,
      "duration": 0.0136,
      "velocity": 100,
      "chip": "ym2612"
    },
    {
      "channel": 1,
      "note": 105,
      "start": 64.1882,
      "duration": 0.0161,
      "velocity": 105,
      "chip": "ym2612"
    },
    {
      "channel": 0,
      "note": 40,
      "start": 64.1899,
      "duration": 0.016,
      "velocity": 115,
      "chip": "ym2612"
    },
    {
      "channel": 4,
      "note": 79,
      "start": 64.1911,
      "duration": 0.016,
      "velocity": 94,
      "chip": "ym2612"
    },
    {
      "channel": 3,
      "note": 79,
      "start": 64.1924,
      "duration": 0.0159,
      "velocity": 94,
      "chip": "ym2612"
    },
    {
      "channel": 2,
      "note": 50,
      "start": 64.1959,
      "duration": 0.0135,
      "velocity": 100,
      "chip": "ym2612"
    },
    {
      "channel": 1,
      "note": 105,
      "start": 64.2043,
      "duration": 0.0161,
      "velocity": 105,
      "chip": "ym2612"
    },
    {
      "channel": 0,
      "note": 40,
      "start": 64.206,
      "duration": 0.0161,
      "velocity": 115,
      "chip": "ym2612"
    },
    {
      "channel": 4,
      "note": 79,
      "start": 64.2071,
      "duration": 0.0161,
      "velocity": 94,
      "chip": "ym2612"
    },
    {
      "channel": 3,
      "note": 79,
      "start": 64.2083,
      "duration": 0.0161,
      "velocity": 94,
      "chip": "ym2612"
    },
    {
      "channel": 2,
      "note": 50,
      "start": 64.2094,
      "duration": 0.0161,
      "velocity": 100,
      "chip": "ym2612"
    },
    {
      "channel": 1,
      "note": 105,
      "start": 64.2204,
      "duration": 0.0161,
      "velocity": 105,
      "chip": "ym2612"
    },
    {
      "channel": 0,
      "note": 40,
      "start": 64.2221,
      "duration": 0.0161,
      "velocity": 115,
      "chip": "ym2612"
    },
    {
      "channel": 4,
      "note": 79,
      "start": 64.2232,
      "duration": 0.0161,
      "velocity": 94,
      "chip": "ym2612"
    },
    {
      "channel": 3,
      "note": 79,
      "start": 64.2244,
      "duration": 0.0161,
      "velocity": 94,
      "chip": "ym2612"
    },
    {
      "channel": 2,
      "note": 50,
      "start": 64.2255,
      "duration": 0.0161,
      "velocity": 100,
      "chip": "ym2612"
    },
    {
      "channel": 1,
      "note": 105,
      "start": 64.2365,
      "duration": 0.0161,
      "velocity": 105,
      "chip": "ym2612"
    },
    {
      "channel": 0,
      "note": 41,
      "start": 64.2382,
      "duration": 0.0161,
      "velocity": 115,
      "chip": "ym2612"
    },
    {
      "channel": 4,
      "note": 79,
      "start": 64.2393,
      "duration": 0.0162,
      "velocity": 94,
      "chip": "ym2612"
    },
    {
      "channel": 3,
      "note": 79,
      "start": 64.2405,
      "duration": 0.0161,
      "velocity": 94,
      "chip": "ym2612"
    },
    {
      "channel": 2,
      "note": 50,
      "start": 64.2416,
      "duration": 0.0161,
      "velocity": 100,
      "chip": "ym2612"
    },
    {
      "channel": 1,
      "note": 105,
      "start": 64.2526,
      "duration": 0.0161,
      "velocity": 105,
      "chip": "ym2612"
    },
    {
      "channel": 0,
      "note": 41,
      "start": 64.2542,
      "duration": 0.0161,
      "velocity": 115,
      "chip": "ym2612"
    },
    {
      "channel": 4,
      "note": 79,
      "start": 64.2555,
      "duration": 0.0161,
      "velocity": 94,
      "chip": "ym2612"
    },
    {
      "channel": 3,
      "note": 79,
      "start": 64.2566,
      "duration": 0.0161,
      "velocity": 94,
      "chip": "ym2612"
    },
    {
      "channel": 2,
      "note": 50,
      "start": 64.2577,
      "duration": 0.0161,
      "velocity": 100,
      "chip": "ym2612"
    },
    {
      "channel": 1,
      "note": 105,
      "start": 64.2687,
      "duration": 0.0178,
      "velocity": 124,
      "chip": "ym2612"
    },
    {
      "channel": 0,
      "note": 42,
      "start": 64.2703,
      "duration": 0.0179,
      "velocity": 115,
      "chip": "ym2612"
    },
    {
      "channel": 4,
      "note": 79,
      "start": 64.2715,
      "duration": 0.0181,
      "velocity": 94,
      "chip": "ym2612"
    },
    {
      "channel": 3,
      "note": 79,
      "start": 64.2727,
      "duration": 0.0182,
      "velocity": 94,
      "chip": "ym2612"
    },
    {
      "channel": 2,
      "note": 50,
      "start": 64.2738,
      "duration": 0.0185,
      "velocity": 100,
      "chip": "ym2612"
    },
    {
      "channel": 1,
      "note": 64,
      "start": 64.2866,
      "duration": 0.0144,
      "velocity": 124,
      "chip": "ym2612"
    },
    {
      "channel": 0,
      "note": 42,
      "start": 64.2882,
      "duration": 0.0144,
      "velocity": 115,
      "chip": "ym2612"
    },
    {
      "channel": 4,
      "note": 79,
      "start": 64.2896,
      "duration": 0.0143,
      "velocity": 94,
      "chip": "ym2612"
    },
    {
      "channel": 3,
      "note": 79,
      "start": 64.2909,
      "duration": 0.0142,
      "velocity": 94,
      "chip": "ym2612"
    },
    {
      "channel": 2,
      "note": 50,
      "start": 64.2924,
      "duration": 0.0139,
      "velocity": 100,
      "chip": "ym2612"
    },
    {
      "channel": 1,
      "note": 64,
      "start": 64.3009,
      "duration": 0.016,
      "velocity": 124,
      "chip": "ym2612"
    },
    {
      "channel": 0,
      "note": 43,
      "start": 64.3027,
      "duration": 0.016,
      "velocity": 115,
      "chip": "ym2612"
    },
    {
      "channel": 4,
      "note": 79,
      "start": 64.3039,
      "duration": 0.016,
      "velocity": 94,
      "chip": "ym2612"
    },
    {
      "channel": 3,
      "note": 79,
      "start": 64.3051,
      "duration": 0.0159,
      "velocity": 94,
      "chip": "ym2612"
    },
    {
      "channel": 2,
      "note": 50,
      "start": 64.3062,
      "duration": 0.0159,
      "velocity": 100,
      "chip": "ym2612"
    },
    {
      "channel": 1,
      "note": 64,
      "start": 64.317,
      "duration": 0.0162,
      "velocity": 124,
      "chip": "ym2612"
    },
    {
      "channel": 0,
      "note": 43,
      "start": 64.3187,
      "duration": 0.0161,
      "velocity": 115,
      "chip": "ym2612"
    },
    {
      "channel": 4,
      "note": 79,
      "start": 64.3198,
      "duration": 0.0161,
      "velocity": 94,
      "chip": "ym2612"
    },
    {
      "channel": 3,
      "note": 79,
      "start": 64.321,
      "duration": 0.0161,
      "velocity": 94,
      "chip": "ym2612"
    },
    {
      "channel": 2,
      "note": 50,
      "start": 64.3221,
      "duration": 0.0161,
      "velocity": 100,
      "chip": "ym2612"
    },
    {
      "channel": 1,
      "note": 64,
      "start": 64.3331,
      "duration": 0.0161,
      "velocity": 124,
      "chip": "ym2612"
    },
    {
      "channel": 0,
      "note": 44,
      "start": 64.3348,
      "duration": 0.0161,
      "velocity": 115,
      "chip": "ym2612"
    },
    {
      "channel": 4,
      "note": 79,
      "start": 64.336,
      "duration": 0.0161,
      "velocity": 94,
      "chip": "ym2612"
    },
    {
      "channel": 3,
      "note": 79,
      "start": 64.3371,
      "duration": 0.0161,
      "velocity": 94,
      "chip": "ym2612"
    },
    {
      "channel": 2,
      "note": 50,
      "start": 64.3382,
      "duration": 0.0161,
      "velocity": 100,
      "chip": "ym2612"
    },
    {
      "channel": 1,
      "note": 64,
      "start": 64.3492,
      "duration": 0.0161,
      "velocity": 124,
      "chip": "ym2612"
    },
    {
      "channel": 0,
      "note": 44,
      "start": 64.3509,
      "duration": 0.0161,
      "velocity": 115,
      "chip": "ym2612"
    },
    {
      "channel": 4,
      "note": 79,
      "start": 64.3521,
      "duration": 0.0161,
      "velocity": 94,
      "chip": "ym2612"
    },
    {
      "channel": 3,
      "note": 79,
      "start": 64.3532,
      "duration": 0.0161,
      "velocity": 94,
      "chip": "ym2612"
    },
    {
      "channel": 2,
      "note": 50,
      "start": 64.3543,
      "duration": 0.0161,
      "velocity": 100,
      "chip": "ym2612"
    },
    {
      "channel": 1,
      "note": 64,
      "start": 64.3653,
      "duration": 0.0161,
      "velocity": 124,
      "chip": "ym2612"
    },
    {
      "channel": 0,
      "note": 44,
      "start": 64.367,
      "duration": 0.0161,
      "velocity": 115,
      "chip": "ym2612"
    },
    {
      "channel": 4,
      "note": 79,
      "start": 64.3682,
      "duration": 0.0161,
      "velocity": 94,
      "chip": "ym2612"
    },
    {
      "channel": 3,
      "note": 79,
      "start": 64.3693,
      "duration": 0.0161,
      "velocity": 94,
      "chip": "ym2612"
    },
    {
      "channel": 2,
      "note": 50,
      "start": 64.3704,
      "duration": 0.0161,
      "velocity": 100,
      "chip": "ym2612"
    },
    {
      "channel": 1,
      "note": 64,
      "start": 64.3814,
      "duration": 0.0178,
      "velocity": 105,
      "chip": "ym2612"
    },
    {
      "channel": 0,
      "note": 45,
      "start": 64.3831,
      "duration": 0.0178,
      "velocity": 115,
      "chip": "ym2612"
    },
    {
      "channel": 4,
      "note": 79,
      "start": 64.3843,
      "duration": 0.018,
      "velocity": 94,
      "chip": "ym2612"
    },
    {
      "channel": 3,
      "note": 79,
      "start": 64.3854,
      "duration": 0.0183,
      "velocity": 94,
      "chip": "ym2612"
    },
    {
      "channel": 2,
      "note": 50,
      "start": 64.3865,
      "duration": 0.0186,
      "velocity": 100,
      "chip": "ym2612"
    },
    {
      "channel": 1,
      "note": 105,
      "start": 64.3992,
      "duration": 0.0144,
      "velocity": 105,
      "chip": "ym2612"
    },
    {
      "channel": 0,
      "note": 45,
      "start": 64.4009,
      "duration": 0.0144,
      "velocity": 115,
      "chip": "ym2612"
    },
    {
      "channel": 4,
      "note": 79,
      "start": 64.4023,
      "duration": 0.0142,
      "velocity": 94,
      "chip": "ym2612"
    },
    {
      "channel": 3,
      "note": 79,
      "start": 64.4037,
      "duration": 0.014,
      "velocity": 94,
      "chip": "ym2612"
    },
    {
      "channel": 2,
      "note": 50,
      "start": 64.4051,
      "duration": 0.0138,
      "velocity": 100,
      "chip": "ym2612"
    },
    {
      "channel": 1,
      "note": 105,
      "start": 64.4137,
      "duration": 0.017,
      "velocity": 105,
      "chip": "ym2612"
    },
    {
      "channel": 0,
      "note": 46,
      "start": 64.4153,
      "duration": 0.017,
      "velocity": 115,
      "chip": "ym2612"
    },
    {
      "channel": 4,
      "note": 79,
      "start": 64.4165,
      "duration": 0.0169,
      "velocity": 94,
      "chip": "ym2612"
    },
    {
      "channel": 3,
      "note": 79,
      "start": 64.4177,
      "duration": 0.0169,
      "velocity": 94,
      "chip": "ym2612"
    },
    {
      "channel": 2,
      "note": 50,
      "start": 64.4189,
      "duration": 0.0168,
      "velocity": 100,
      "chip": "ym2612"
    },
    {
      "channel": 1,
      "note": 105,
      "start": 64.4307,
      "duration": 0.0167,
      "velocity": 105,
      "chip": "ym2612"
    },
    {
      "channel": 0,
      "note": 46,
      "start": 64.4323,
      "duration": 0.0167,
      "velocity": 115,
      "chip": "ym2612"
    },
    {
      "channel": 4,
      "note": 79,
      "start": 64.4334,
      "duration": 0.0167,
      "velocity": 94,
      "chip": "ym2612"
    },
    {
      "channel": 3,
      "note": 79,
      "start": 64.4346,
      "duration": 0.0167,
      "velocity": 94,
      "chip": "ym2612"
    },
    {
      "channel": 2,
      "note": 50,
      "start": 64.4357,
      "duration": 0.0167,
      "velocity": 100,
      "chip": "ym2612"
    },
    {
      "channel": 1,
      "note": 105,
      "start": 64.4473,
      "duration": 0.0163,
      "velocity": 105,
      "chip": "ym2612"
    },
    {
      "channel": 0,
      "note": 47,
      "start": 64.449,
      "duration": 0.0163,
      "velocity": 115,
      "chip": "ym2612"
    },
    {
      "channel": 4,
      "note": 79,
      "start": 64.4501,
      "duration": 0.0163,
      "velocity": 94,
      "chip": "ym2612"
    },
    {
      "channel": 3,
      "note": 79,
      "start": 64.4513,
      "duration": 0.0163,
      "velocity": 94,
      "chip": "ym2612"
    },
    {
      "channel": 2,
      "note": 50,
      "start": 64.4524,
      "duration": 0.0163,
      "velocity": 100,
      "chip": "ym2612"
    },
    {
      "channel": 1,
      "note": 105,
      "start": 64.4636,
      "duration": 0.0146,
      "velocity": 105,
      "chip": "ym2612"
    },
    {
      "channel": 0,
      "note": 47,
      "start": 64.4653,
      "duration": 0.0146,
      "velocity": 115,
      "chip": "ym2612"
    },
    {
      "channel": 4,
      "note": 79,
      "start": 64.4665,
      "duration": 0.0146,
      "velocity": 94,
      "chip": "ym2612"
    },
    {
      "channel": 3,
      "note": 79,
      "start": 64.4676,
      "duration": 0.0146,
      "velocity": 94,
      "chip": "ym2612"
    },
    {
      "channel": 2,
      "note": 50,
      "start": 64.4687,
      "duration": 0.0146,
      "velocity": 100,
      "chip": "ym2612"
    },
    {
      "channel": 1,
      "note": 105,
      "start": 64.4782,
      "duration": 0.0186,
      "velocity": 105,
      "chip": "ym2612"
    },
    {
      "channel": 0,
      "note": 47,
      "start": 64.4799,
      "duration": 0.0186,
      "velocity": 115,
      "chip": "ym2612"
    },
    {
      "channel": 4,
      "note": 79,
      "start": 64.4811,
      "duration": 0.0186,
      "velocity": 94,
      "chip": "ym2612"
    },
    {
      "channel": 3,
      "note": 79,
      "start": 64.4822,
      "duration": 0.0186,
      "velocity": 94,
      "chip": "ym2612"
    },
    {
      "channel": 2,
      "note": 50,
      "start": 64.4833,
      "duration": 0.0186,
      "velocity": 100,
      "chip": "ym2612"
    },
    {
      "channel": 1,
      "note": 105,
      "start": 64.4969,
      "duration": 0.0183,
      "velocity": 124,
      "chip": "ym2612"
    },
    {
      "channel": 0,
      "note": 48,
      "start": 64.4985,
      "duration": 0.0191,
      "velocity": 115,
      "chip": "ym2612"
    },
    {
      "channel": 4,
      "note": 79,
      "start": 64.4997,
      "duration": 0.0193,
      "velocity": 94,
      "chip": "ym2612"
    },
    {
      "channel": 3,
      "note": 79,
      "start": 64.5008,
      "duration": 0.0195,
      "velocity": 94,
      "chip": "ym2612"
    },
    {
      "channel": 2,
      "note": 50,
      "start": 64.502,
      "duration": 0.0198,
      "velocity": 100,
      "chip": "ym2612"
    },
    {
      "channel": 1,
      "note": 78,
      "start": 64.5153,
      "duration": 0.014,
      "velocity": 124,
      "chip": "ym2612"
    },
    {
      "channel": 0,
      "note": 48,
      "start": 64.5177,
      "duration": 0.0135,
      "velocity": 115,
      "chip": "ym2612"
    },
    {
      "channel": 4,
      "note": 79,
      "start": 64.5189,
      "duration": 0.0134,
      "velocity": 94,
      "chip": "ym2612"
    },
    {
      "channel": 3,
      "note": 79,
      "start": 64.5203,
      "duration": 0.0132,
      "velocity": 94,
      "chip": "ym2612"
    },
    {
      "channel": 2,
      "note": 48,
      "start": 64.5218,
      "duration": 0.013,
      "velocity": 100,
      "chip": "ym2612"
    },
    {
      "channel": 1,
      "note": 76,
      "start": 64.5293,
      "duration": 0.0137,
      "velocity": 124,
      "chip": "ym2612"
    },
    {
      "channel": 0,
      "note": 49,
      "start": 64.5312,
      "duration": 0.0132,
      "velocity": 1,
      "chip": "ym2612"
    },
    {
      "channel": 4,
      "note": 79,
      "start": 64.5324,
      "duration": 0.0131,
      "velocity": 94,
      "chip": "ym2612"
    },
    {
      "channel": 3,
      "note": 79,
      "start": 64.5336,
      "duration": 0.013,
      "velocity": 94,
      "chip": "ym2612"
    },
    {
      "channel": 2,
      "note": 48,
      "start": 64.5348,
      "duration": 0.013,
      "velocity": 100,
      "chip": "ym2612"
    },
    {
      "channel": 1,
      "note": 75,
      "start": 64.5429,
      "duration": 0.0161,
      "velocity": 124,
      "chip": "ym2612"
    },
    {
      "channel": 4,
      "note": 79,
      "start": 64.5455,
      "duration": 0.0177,
      "velocity": 94,
      "chip": "ym2612"
    },
    {
      "channel": 3,
      "note": 79,
      "start": 64.5466,
      "duration": 0.0177,
      "velocity": 94,
      "chip": "ym2612"
    },
    {
      "channel": 2,
      "note": 48,
      "start": 64.5478,
      "duration": 0.0177,
      "velocity": 100,
      "chip": "ym2612"
    },
    {
      "channel": 1,
      "note": 74,
      "start": 64.559,
      "duration": 0.0161,
      "velocity": 124,
      "chip": "ym2612"
    },
    {
      "channel": 4,
      "note": 79,
      "start": 64.5632,
      "duration": 0.0161,
      "velocity": 94,
      "chip": "ym2612"
    },
    {
      "channel": 3,
      "note": 79,
      "start": 64.5643,
      "duration": 0.0161,
      "velocity": 94,
      "chip": "ym2612"
    },
    {
      "channel": 2,
      "note": 48,
      "start": 64.5654,
      "duration": 0.0161,
      "velocity": 100,
      "chip": "ym2612"
    },
    {
      "channel": 1,
      "note": 72,
      "start": 64.5751,
      "duration": 0.0161,
      "velocity": 124,
      "chip": "ym2612"
    },
    {
      "channel": 4,
      "note": 79,
      "start": 64.5793,
      "duration": 0.0134,
      "velocity": 94,
      "chip": "ym2612"
    },
    {
      "channel": 3,
      "note": 79,
      "start": 64.5804,
      "duration": 0.0157,
      "velocity": 94,
      "chip": "ym2612"
    },
    {
      "channel": 2,
      "note": 48,
      "start": 64.5815,
      "duration": 0.0157,
      "velocity": 100,
      "chip": "ym2612"
    },
    {
      "channel": 1,
      "note": 71,
      "start": 64.5912,
      "duration": 0.0161,
      "velocity": 124,
      "chip": "ym2612"
    },
    {
      "channel": 4,
      "note": 79,
      "start": 64.5926,
      "duration": 0.0161,
      "velocity": 94,
      "chip": "ym2612"
    },
    {
      "channel": 3,
      "note": 79,
      "start": 64.5961,
      "duration": 0.0139,
      "velocity": 94,
      "chip": "ym2612"
    },
    {
      "channel": 2,
      "note": 48,
      "start": 64.5973,
      "duration": 0.0141,
      "velocity": 100,
      "chip": "ym2612"
    },
    {
      "channel": 1,
      "note": 70,
      "start": 64.6073,
      "duration": 0.0161,
      "velocity": 124,
      "chip": "ym2612"
    },
    {
      "channel": 4,
      "note": 79,
      "start": 64.6087,
      "duration": 0.0168,
      "velocity": 94,
      "chip": "ym2612"
    },
    {
      "channel": 3,
      "note": 79,
      "start": 64.61,
      "duration": 0.0197,
      "velocity": 94,
      "chip": "ym2612"
    },
    {
      "channel": 2,
      "note": 48,
      "start": 64.6113,
      "duration": 0.0197,
      "velocity": 100,
      "chip": "ym2612"
    },
    {
      "channel": 1,
      "note": 69,
      "start": 64.6234,
      "duration": 0.0161,
      "velocity": 124,
      "chip": "ym2612"
    },
    {
      "channel": 4,
      "note": 74,
      "start": 64.6256,
      "duration": 0.0154,
      "velocity": 94,
      "chip": "ym2612"
    },
    {
      "channel": 3,
      "note": 79,
      "start": 64.6296,
      "duration": 0.0126,
      "velocity": 94,
      "chip": "ym2612"
    },
    {
      "channel": 2,
      "note": 48,
      "start": 64.631,
      "duration": 0.0151,
      "velocity": 100,
      "chip": "ym2612"
    },
    {
      "channel": 1,
      "note": 68,
      "start": 64.6395,
      "duration": 0.0161,
      "velocity": 124,
      "chip": "ym2612"
    },
    {
      "channel": 4,
      "note": 74,
      "start": 64.641,
      "duration": 0.016,
      "velocity": 94,
      "chip": "ym2612"
    },
    {
      "channel": 3,
      "note": 79,
      "start": 64.6422,
      "duration": 0.0159,
      "velocity": 94,
      "chip": "ym2612"
    },
    {
      "channel": 2,
      "note": 48,
      "start": 64.6462,
      "duration": 0.0131,
      "velocity": 100,
      "chip": "ym2612"
    },
    {
      "channel": 1,
      "note": 66,
      "start": 64.6556,
      "duration": 0.0162,
      "velocity": 124,
      "chip": "ym2612"
    },
    {
      "channel": 4,
      "note": 74,
      "start": 64.657,
      "duration": 0.0162,
      "velocity": 94,
      "chip": "ym2612"
    },
    {
      "channel": 3,
      "note": 79,
      "start": 64.6581,
      "duration": 0.0161,
      "velocity": 94,
      "chip": "ym2612"
    },
    {
      "channel": 2,
      "note": 48,
      "start": 64.6593,
      "duration": 0.0161,
      "velocity": 100,
      "chip": "ym2612"
    },
    {
      "channel": 1,
      "note": 65,
      "start": 64.6717,
      "duration": 0.0161,
      "velocity": 124,
      "chip": "ym2612"
    },
    {
      "channel": 4,
      "note": 74,
      "start": 64.6732,
      "duration": 0.0161,
      "velocity": 94,
      "chip": "ym2612"
    },
    {
      "channel": 3,
      "note": 79,
      "start": 64.6742,
      "duration": 0.0162,
      "velocity": 94,
      "chip": "ym2612"
    },
    {
      "channel": 2,
      "note": 48,
      "start": 64.6754,
      "duration": 0.0161,
      "velocity": 100,
      "chip": "ym2612"
    },
    {
      "channel": 1,
      "note": 64,
      "start": 64.6878,
      "duration": 0.0161,
      "velocity": 124,
      "chip": "ym2612"
    },
    {
      "channel": 4,
      "note": 74,
      "start": 64.6892,
      "duration": 0.0161,
      "velocity": 94,
      "chip": "ym2612"
    },
    {
      "channel": 3,
      "note": 79,
      "start": 64.6904,
      "duration": 0.016,
      "velocity": 94,
      "chip": "ym2612"
    },
    {
      "channel": 2,
      "note": 48,
      "start": 64.6915,
      "duration": 0.0161,
      "velocity": 100,
      "chip": "ym2612"
    },
    {
      "channel": 1,
      "note": 62,
      "start": 64.7039,
      "duration": 0.0161,
      "velocity": 124,
      "chip": "ym2612"
    },
    {
      "channel": 4,
      "note": 74,
      "start": 64.7053,
      "duration": 0.0161,
      "velocity": 94,
      "chip": "ym2612"
    },
    {
      "channel": 3,
      "note": 79,
      "start": 64.7064,
      "duration": 0.0161,
      "velocity": 94,
      "chip": "ym2612"
    },
    {
      "channel": 2,
      "note": 48,
      "start": 64.7076,
      "duration": 0.0162,
      "velocity": 100,
      "chip": "ym2612"
    },
    {
      "channel": 1,
      "note": 61,
      "start": 64.72,
      "duration": 0.0161,
      "velocity": 124,
      "chip": "ym2612"
    },
    {
      "channel": 4,
      "note": 74,
      "start": 64.7214,
      "duration": 0.0167,
      "velocity": 94,
      "chip": "ym2612"
    },
    {
      "channel": 3,
      "note": 79,
      "start": 64.7226,
      "duration": 0.0169,
      "velocity": 94,
      "chip": "ym2612"
    },
    {
      "channel": 2,
      "note": 48,
      "start": 64.7237,
      "duration": 0.0172,
      "velocity": 100,
      "chip": "ym2612"
    },
    {
      "channel": 1,
      "note": 60,
      "start": 64.7361,
      "duration": 0.0161,
      "velocity": 124,
      "chip": "ym2612"
    },
    {
      "channel": 4,
      "note": 74,
      "start": 64.7382,
      "duration": 0.0155,
      "velocity": 94,
      "chip": "ym2612"
    },
    {
      "channel": 3,
      "note": 74,
      "start": 64.7395,
      "duration": 0.0153,
      "velocity": 94,
      "chip": "ym2612"
    },
    {
      "channel": 2,
      "note": 48,
      "start": 64.741,
      "duration": 0.0151,
      "velocity": 100,
      "chip": "ym2612"
    },
    {
      "channel": 1,
      "note": 59,
      "start": 64.7522,
      "duration": 0.0161,
      "velocity": 124,
      "chip": "ym2612"
    },
    {
      "channel": 4,
      "note": 74,
      "start": 64.7537,
      "duration": 0.016,
      "velocity": 94,
      "chip": "ym2612"
    },
    {
      "channel": 3,
      "note": 74,
      "start": 64.7549,
      "duration": 0.016,
      "velocity": 94,
      "chip": "ym2612"
    },
    {
      "channel": 2,
      "note": 48,
      "start": 64.7561,
      "duration": 0.0159,
      "velocity": 100,
      "chip": "ym2612"
    },
    {
      "channel": 1,
      "note": 57,
      "start": 64.7683,
      "duration": 0.0161,
      "velocity": 124,
      "chip": "ym2612"
    },
    {
      "channel": 4,
      "note": 74,
      "start": 64.7697,
      "duration": 0.0161,
      "velocity": 94,
      "chip": "ym2612"
    },
    {
      "channel": 3,
      "note": 74,
      "start": 64.7709,
      "duration": 0.0161,
      "velocity": 94,
      "chip": "ym2612"
    },
    {
      "channel": 2,
      "note": 48,
      "start": 64.772,
      "duration": 0.0161,
      "velocity": 100,
      "chip": "ym2612"
    },
    {
      "channel": 1,
      "note": 56,
      "start": 64.7844,
      "duration": 0.0161,
      "velocity": 124,
      "chip": "ym2612"
    },
    {
      "channel": 4,
      "note": 74,
      "start": 64.7858,
      "duration": 0.0161,
      "velocity": 94,
      "chip": "ym2612"
    },
    {
      "channel": 3,
      "note": 74,
      "start": 64.7869,
      "duration": 0.0161,
      "velocity": 94,
      "chip": "ym2612"
    },
    {
      "channel": 2,
      "note": 48,
      "start": 64.7881,
      "duration": 0.0161,
      "velocity": 100,
      "chip": "ym2612"
    },
    {
      "channel": 1,
      "note": 55,
      "start": 64.8005,
      "duration": 0.0161,
      "velocity": 124,
      "chip": "ym2612"
    },
    {
      "channel": 4,
      "note": 74,
      "start": 64.8019,
      "duration": 0.0161,
      "velocity": 94,
      "chip": "ym2612"
    },
    {
      "channel": 3,
      "note": 74,
      "start": 64.803,
      "duration": 0.0161,
      "velocity": 94,
      "chip": "ym2612"
    },
    {
      "channel": 2,
      "note": 48,
      "start": 64.8042,
      "duration": 0.0161,
      "velocity": 100,
      "chip": "ym2612"
    },
    {
      "channel": 1,
      "note": 53,
      "start": 64.8166,
      "duration": 0.0161,
      "velocity": 124,
      "chip": "ym2612"
    },
    {
      "channel": 4,
      "note": 74,
      "start": 64.818,
      "duration": 0.0161,
      "velocity": 94,
      "chip": "ym2612"
    },
    {
      "channel": 3,
      "note": 74,
      "start": 64.8191,
      "duration": 0.0161,
      "velocity": 94,
      "chip": "ym2612"
    },
    {
      "channel": 2,
      "note": 48,
      "start": 64.8203,
      "duration": 0.0161,
      "velocity": 100,
      "chip": "ym2612"
    },
    {
      "channel": 1,
      "note": 52,
      "start": 64.8327,
      "duration": 0.0161,
      "velocity": 124,
      "chip": "ym2612"
    },
    {
      "channel": 4,
      "note": 74,
      "start": 64.8341,
      "duration": 0.0203,
      "velocity": 94,
      "chip": "ym2612"
    },
    {
      "channel": 3,
      "note": 74,
      "start": 64.8352,
      "duration": 0.0204,
      "velocity": 94,
      "chip": "ym2612"
    },
    {
      "channel": 2,
      "note": 48,
      "start": 64.8364,
      "duration": 0.0206,
      "velocity": 100,
      "chip": "ym2612"
    },
    {
      "channel": 1,
      "note": 51,
      "start": 64.8488,
      "duration": 0.0153,
      "velocity": 1,
      "chip": "ym2612"
    },
    {
      "channel": 0,
      "note": 78,
      "start": 64.853,
      "duration": 0.015,
      "velocity": 127,
      "chip": "ym2612"
    },
    {
      "channel": 4,
      "note": 74,
      "start": 64.8544,
      "duration": 0.0149,
      "velocity": 94,
      "chip": "ym2612"
    },
    {
      "channel": 3,
      "note": 74,
      "start": 64.8556,
      "duration": 0.0148,
      "velocity": 94,
      "chip": "ym2612"
    },
    {
      "channel": 2,
      "note": 48,
      "start": 64.8571,
      "duration": 0.0146,
      "velocity": 100,
      "chip": "ym2612"
    },
    {
      "channel": 1,
      "note": 51,
      "start": 64.8663,
      "duration": 0.0142,
      "velocity": 105,
      "chip": "ym2612"
    },
    {
      "channel": 0,
      "note": 76,
      "start": 64.868,
      "duration": 0.0141,
      "velocity": 127,
      "chip": "ym2612"
    },
    {
      "channel": 4,
      "note": 74,
      "start": 64.8693,
      "duration": 0.0141,
      "velocity": 94,
      "chip": "ym2612"
    },
    {
      "channel": 3,
      "note": 74,
      "start": 64.8705,
      "duration": 0.0141,
      "velocity": 94,
      "chip": "ym2612"
    },
    {
      "channel": 2,
      "note": 48,
      "start": 64.8716,
      "duration": 0.014,
      "velocity": 100,
      "chip": "ym2612"
    },
    {
      "channel": 1,
      "note": 105,
      "start": 64.8805,
      "duration": 0.0168,
      "velocity": 105,
      "chip": "ym2612"
    },
    {
      "channel": 0,
      "note": 75,
      "start": 64.8822,
      "duration": 0.0168,
      "velocity": 127,
      "chip": "ym2612"
    },
    {
      "channel": 4,
      "note": 74,
      "start": 64.8834,
      "duration": 0.0167,
      "velocity": 94,
      "chip": "ym2612"
    },
    {
      "channel": 3,
      "note": 74,
      "start": 64.8845,
      "duration": 0.0167,
      "velocity": 94,
      "chip": "ym2612"
    },
    {
      "channel": 2,
      "note": 48,
      "start": 64.8856,
      "duration": 0.0168,
      "velocity": 100,
      "chip": "ym2612"
    },
    {
      "channel": 1,
      "note": 105,
      "start": 64.8973,
      "duration": 0.0167,
      "velocity": 105,
      "chip": "ym2612"
    },
    {
      "channel": 0,
      "note": 73,
      "start": 64.899,
      "duration": 0.0167,
      "velocity": 127,
      "chip": "ym2612"
    },
    {
      "channel": 4,
      "note": 74,
      "start": 64.9001,
      "duration": 0.0167,
      "velocity": 94,
      "chip": "ym2612"
    },
    {
      "channel": 3,
      "note": 74,
      "start": 64.9013,
      "duration": 0.0167,
      "velocity": 94,
      "chip": "ym2612"
    },
    {
      "channel": 2,
      "note": 48,
      "start": 64.9024,
      "duration": 0.0167,
      "velocity": 100,
      "chip": "ym2612"
    },
    {
      "channel": 1,
      "note": 105,
      "start": 64.914,
      "duration": 0.0163,
      "velocity": 105,
      "chip": "ym2612"
    },
    {
      "channel": 0,
      "note": 71,
      "start": 64.9156,
      "duration": 0.0163,
      "velocity": 127,
      "chip": "ym2612"
    },
    {
      "channel": 4,
      "note": 74,
      "start": 64.9168,
      "duration": 0.0163,
      "velocity": 94,
      "chip": "ym2612"
    },
    {
      "channel": 3,
      "note": 74,
      "start": 64.9179,
      "duration": 0.0163,
      "velocity": 94,
      "chip": "ym2612"
    },
    {
      "channel": 2,
      "note": 48,
      "start": 64.9191,
      "duration": 0.0163,
      "velocity": 100,
      "chip": "ym2612"
    },
    {
      "channel": 1,
      "note": 105,
      "start": 64.9303,
      "duration": 0.0147,
      "velocity": 105,
      "chip": "ym2612"
    },
    {
      "channel": 0,
      "note": 70,
      "start": 64.9319,
      "duration": 0.0147,
      "velocity": 127,
      "chip": "ym2612"
    },
    {
      "channel": 4,
      "note": 74,
      "start": 64.9331,
      "duration": 0.0147,
      "velocity": 94,
      "chip": "ym2612"
    },
    {
      "channel": 3,
      "note": 74,
      "start": 64.9342,
      "duration": 0.0147,
      "velocity": 94,
      "chip": "ym2612"
    },
    {
      "channel": 2,
      "note": 48,
      "start": 64.9354,
      "duration": 0.0147,
      "velocity": 100,
      "chip": "ym2612"
    },
    {
      "channel": 1,
      "note": 105,
      "start": 64.945,
      "duration": 0.0205,
      "velocity": 124,
      "chip": "ym2612"
    },
    {
      "channel": 0,
      "note": 68,
      "start": 64.9466,
      "duration": 0.0224,
      "velocity": 115,
      "chip": "ym2612"
    },
    {
      "channel": 4,
      "note": 74,
      "start": 64.9478,
      "duration": 0.0226,
      "velocity": 94,
      "chip": "ym2612"
    },
    {
      "channel": 3,
      "note": 74,
      "start": 64.9489,
      "duration": 0.0227,
      "velocity": 94,
      "chip": "ym2612"
    },
    {
      "channel": 2,
      "note": 48,
      "start": 64.95,
      "duration": 0.023,
      "velocity": 100,
      "chip": "ym2612"
    },
    {
      "channel": 1,
      "note": 64,
      "start": 64.9655,
      "duration": 0.0148,
      "velocity": 124,
      "chip": "ym2612"
    },
    {
      "channel": 0,
      "note": 36,
      "start": 64.969,
      "duration": 0.013,
      "velocity": 115,
      "chip": "ym2612"
    },
    {
      "channel": 4,
      "note": 74,
      "start": 64.9703,
      "duration": 0.0129,
      "velocity": 94,
      "chip": "ym2612"
    },
    {
      "channel": 3,
      "note": 74,
      "start": 64.9716,
      "duration": 0.0128,
      "velocity": 94,
      "chip": "ym2612"
    },
    {
      "channel": 2,
      "note": 57,
      "start": 64.973,
      "duration": 0.0126,
      "velocity": 100,
      "chip": "ym2612"
    },
    {
      "channel": 1,
      "note": 64,
      "start": 64.9803,
      "duration": 0.0153,
      "velocity": 124,
      "chip": "ym2612"
    },
    {
      "channel": 0,
      "note": 36,
      "start": 64.982,
      "duration": 0.0154,
      "velocity": 115,
      "chip": "ym2612"
    },
    {
      "channel": 4,
      "note": 74,
      "start": 64.9832,
      "duration": 0.0153,
      "velocity": 94,
      "chip": "ym2612"
    },
    {
      "channel": 3,
      "note": 74,
      "start": 64.9844,
      "duration": 0.0152,
      "velocity": 94,
      "chip": "ym2612"
    },
    {
      "channel": 2,
      "note": 57,
      "start": 64.9856,
      "duration": 0.0151,
      "velocity": 100,
      "chip": "ym2612"
    },
    {
      "channel": 1,
      "note": 64,
      "start": 64.9956,
      "duration": 0.0137,
      "velocity": 124,
      "chip": "ym2612"
    },
    {
      "channel": 0,
      "note": 37,
      "start": 64.9973,
      "duration": 0.014,
      "velocity": 115,
      "chip": "ym2612"
    },
    {
      "channel": 4,
      "note": 74,
      "start": 64.9985,
      "duration": 0.0141,
      "velocity": 94,
      "chip": "ym2612"
    },
    {
      "channel": 3,
      "note": 74,
      "start": 64.9996,
      "duration": 0.0141,
      "velocity": 94,
      "chip": "ym2612"
    },
    {
      "channel": 2,
      "note": 57,
      "start": 65.0007,
      "duration": 0.014,
      "velocity": 100,
      "chip": "ym2612"
    },
    {
      "channel": 1,
      "note": 64,
      "start": 65.0093,
      "duration": 0.0161,
      "velocity": 124,
      "chip": "ym2612"
    },
    {
      "channel": 0,
      "note": 37,
      "start": 65.0113,
      "duration": 0.0186,
      "velocity": 115,
      "chip": "ym2612"
    },
    {
      "channel": 4,
      "note": 74,
      "start": 65.0125,
      "duration": 0.0185,
      "velocity": 94,
      "chip": "ym2612"
    },
    {
      "channel": 3,
      "note": 74,
      "start": 65.0137,
      "duration": 0.0185,
      "velocity": 94,
      "chip": "ym2612"
    },
    {
      "channel": 2,
      "note": 57,
      "start": 65.0147,
      "duration": 0.0186,
      "velocity": 100,
      "chip": "ym2612"
    },
    {
      "channel": 1,
      "note": 64,
      "start": 65.0254,
      "duration": 0.0161,
      "velocity": 124,
      "chip": "ym2612"
    },
    {
      "channel": 0,
      "note": 38,
      "start": 65.0299,
      "duration": 0.0161,
      "velocity": 115,
      "chip": "ym2612"
    },
    {
      "channel": 4,
      "note": 74,
      "start": 65.031,
      "duration": 0.0161,
      "velocity": 94,
      "chip": "ym2612"
    },
    {
      "channel": 3,
      "note": 74,
      "start": 65.0322,
      "duration": 0.0161,
      "velocity": 94,
      "chip": "ym2612"
    },
    {
      "channel": 2,
      "note": 57,
      "start": 65.0333,
      "duration": 0.0161,
      "velocity": 100,
      "chip": "ym2612"
    },
    {
      "channel": 1,
      "note": 64,
      "start": 65.0415,
      "duration": 0.0161,
      "velocity": 124,
      "chip": "ym2612"
    },
    {
      "channel": 0,
      "note": 38,
      "start": 65.046,
      "duration": 0.0134,
      "velocity": 115,
      "chip": "ym2612"
    },
    {
      "channel": 4,
      "note": 74,
      "start": 65.0471,
      "duration": 0.0157,
      "velocity": 94,
      "chip": "ym2612"
    },
    {
      "channel": 3,
      "note": 74,
      "start": 65.0483,
      "duration": 0.0157,
      "velocity": 94,
      "chip": "ym2612"
    },
    {
      "channel": 2,
      "note": 57,
      "start": 65.0494,
      "duration": 0.0157,
      "velocity": 100,
      "chip": "ym2612"
    },
    {
      "channel": 1,
      "note": 64,
      "start": 65.0576,
      "duration": 0.0178,
      "velocity": 105,
      "chip": "ym2612"
    },
    {
      "channel": 0,
      "note": 39,
      "start": 65.0593,
      "duration": 0.0181,
      "velocity": 115,
      "chip": "ym2612"
    },
    {
      "channel": 4,
      "note": 74,
      "start": 65.0628,
      "duration": 0.0161,
      "velocity": 94,
      "chip": "ym2612"
    },
    {
      "channel": 3,
      "note": 74,
      "start": 65.064,
      "duration": 0.0163,
      "velocity": 94,
      "chip": "ym2612"
    },
    {
      "channel": 2,
      "note": 57,
      "start": 65.0651,
      "duration": 0.0165,
      "velocity": 100,
      "chip": "ym2612"
    },
    {
      "channel": 1,
      "note": 105,
      "start": 65.0755,
      "duration": 0.0144,
      "velocity": 105,
      "chip": "ym2612"
    },
    {
      "channel": 0,
      "note": 39,
      "start": 65.0775,
      "duration": 0.0141,
      "velocity": 115,
      "chip": "ym2612"
    },
    {
      "channel": 4,
      "note": 81,
      "start": 65.079,
      "duration": 0.0138,
      "velocity": 94,
      "chip": "ym2612"
    },
    {
      "channel": 3,
      "note": 74,
      "start": 65.0803,
      "duration": 0.0165,
      "velocity": 94,
      "chip": "ym2612"
    },
    {
      "channel": 2,
      "note": 57,
      "start": 65.0817,
      "duration": 0.0163,
      "velocity": 100,
      "chip": "ym2612"
    },
    {
      "channel": 1,
      "note": 105,
      "start": 65.0899,
      "duration": 0.0161,
      "velocity": 105,
      "chip": "ym2612"
    },
    {
      "channel": 0,
      "note": 40,
      "start": 65.0916,
      "duration": 0.016,
      "velocity": 115,
      "chip": "ym2612"
    },
    {
      "channel": 4,
      "note": 81,
      "start": 65.0928,
      "duration": 0.016,
      "velocity": 94,
      "chip": "ym2612"
    },
    {
      "channel": 3,
      "note": 74,
      "start": 65.0967,
      "duration": 0.0159,
      "velocity": 94,
      "chip": "ym2612"
    },
    {
      "channel": 2,
      "note": 57,
      "start": 65.098,
      "duration": 0.0158,
      "velocity": 100,
      "chip": "ym2612"
    },
    {
      "channel": 1,
      "note": 105,
      "start": 65.106,
      "duration": 0.0161,
      "velocity": 105,
      "chip": "ym2612"
    },
    {
      "channel": 0,
      "note": 40,
      "start": 65.1076,
      "duration": 0.0161,
      "velocity": 115,
      "chip": "ym2612"
    },
    {
      "channel": 4,
      "note": 81,
      "start": 65.1088,
      "duration": 0.0161,
      "velocity": 94,
      "chip": "ym2612"
    },
    {
      "channel": 3,
      "note": 74,
      "start": 65.1127,
      "duration": 0.0134,
      "velocity": 94,
      "chip": "ym2612"
    },
    {
      "channel": 2,
      "note": 57,
      "start": 65.1138,
      "duration": 0.0158,
      "velocity": 100,
      "chip": "ym2612"
    },
    {
      "channel": 1,
      "note": 105,
      "start": 65.1221,
      "duration": 0.0161,
      "velocity": 105,
      "chip": "ym2612"
    },
    {
      "channel": 0,
      "note": 40,
      "start": 65.1237,
      "duration": 0.0161,
      "velocity": 115,
      "chip": "ym2612"
    },
    {
      "channel": 4,
      "note": 81,
      "start": 65.1249,
      "duration": 0.0162,
      "velocity": 94,
      "chip": "ym2612"
    },
    {
      "channel": 3,
      "note": 74,
      "start": 65.126,
      "duration": 0.0161,
      "velocity": 94,
      "chip": "ym2612"
    },
    {
      "channel": 2,
      "note": 57,
      "start": 65.1296,
      "duration": 0.014,
      "velocity": 100,
      "chip": "ym2612"
    },
    {
      "channel": 1,
      "note": 105,
      "start": 65.1382,
      "duration": 0.0161,
      "velocity": 105,
      "chip": "ym2612"
    },
    {
      "channel": 0,
      "note": 41,
      "start": 65.1398,
      "duration": 0.0161,
      "velocity": 115,
      "chip": "ym2612"
    },
    {
      "channel": 4,
      "note": 81,
      "start": 65.141,
      "duration": 0.0161,
      "velocity": 94,
      "chip": "ym2612"
    },
    {
      "channel": 3,
      "note": 74,
      "start": 65.1422,
      "duration": 0.0161,
      "velocity": 94,
      "chip": "ym2612"
    },
    {
      "channel": 2,
      "note": 57,
      "start": 65.1436,
      "duration": 0.0158,
      "velocity": 100,
      "chip": "ym2612"
    },
    {
      "channel": 1,
      "note": 105,
      "start": 65.1542,
      "duration": 0.0161,
      "velocity": 105,
      "chip": "ym2612"
    },
    {
      "channel": 0,
      "note": 41,
      "start": 65.1559,
      "duration": 0.0161,
      "velocity": 115,
      "chip": "ym2612"
    },
    {
      "channel": 4,
      "note": 81,
      "start": 65.1571,
      "duration": 0.0161,
      "velocity": 94,
      "chip": "ym2612"
    },
    {
      "channel": 3,
      "note": 74,
      "start": 65.1583,
      "duration": 0.0161,
      "velocity": 94,
      "chip": "ym2612"
    },
    {
      "channel": 2,
      "note": 57,
      "start": 65.1593,
      "duration": 0.0161,
      "velocity": 100,
      "chip": "ym2612"
    },
    {
      "channel": 1,
      "note": 105,
      "start": 65.1703,
      "duration": 0.0178,
      "velocity": 124,
      "chip": "ym2612"
    },
    {
      "channel": 0,
      "note": 42,
      "start": 65.172,
      "duration": 0.0179,
      "velocity": 115,
      "chip": "ym2612"
    },
    {
      "channel": 4,
      "note": 81,
      "start": 65.1732,
      "duration": 0.0179,
      "velocity": 94,
      "chip": "ym2612"
    },
    {
      "channel": 3,
      "note": 74,
      "start": 65.1744,
      "duration": 0.0183,
      "velocity": 94,
      "chip": "ym2612"
    },
    {
      "channel": 2,
      "note": 57,
      "start": 65.1754,
      "duration": 0.021,
      "velocity": 100,
      "chip": "ym2612"
    },
    {
      "channel": 1,
      "note": 64,
      "start": 65.1882,
      "duration": 0.0144,
      "velocity": 124,
      "chip": "ym2612"
    },
    {
      "channel": 0,
      "note": 42,
      "start": 65.1899,
      "duration": 0.0144,
      "velocity": 115,
      "chip": "ym2612"
    },
    {
      "channel": 4,
      "note": 81,
      "start": 65.1911,
      "duration": 0.0144,
      "velocity": 94,
      "chip": "ym2612"
    },
    {
      "channel": 3,
      "note": 81,
      "start": 65.1926,
      "duration": 0.0141,
      "velocity": 94,
      "chip": "ym2612"
    },
    {
      "channel": 2,
      "note": 57,
      "start": 65.1964,
      "duration": 0.0115,
      "velocity": 100,
      "chip": "ym2612"
    },
    {
      "channel": 1,
      "note": 64,
      "start": 65.2027,
      "duration": 0.016,
      "velocity": 124,
      "chip": "ym2612"
    },
    {
      "channel": 0,
      "note": 43,
      "start": 65.2043,
      "duration": 0.016,
      "velocity": 115,
      "chip": "ym2612"
    },
    {
      "channel": 4,
      "note": 81,
      "start": 65.2055,
      "duration": 0.016,
      "velocity": 94,
      "chip": "ym2612"
    },
    {
      "channel": 3,
      "note": 81,
      "start": 65.2067,
      "duration": 0.0159,
      "velocity": 94,
      "chip": "ym2612"
    },
    {
      "channel": 2,
      "note": 57,
      "start": 65.2079,
      "duration": 0.0159,
      "velocity": 100,
      "chip": "ym2612"
    },
    {
      "channel": 1,
      "note": 64,
      "start": 65.2187,
      "duration": 0.0161,
      "velocity": 124,
      "chip": "ym2612"
    },
    {
      "channel": 0,
      "note": 43,
      "start": 65.2203,
      "duration": 0.0161,
      "velocity": 115,
      "chip": "ym2612"
    },
    {
      "channel": 4,
      "note": 81,
      "start": 65.2215,
      "duration": 0.0161,
      "velocity": 94,
      "chip": "ym2612"
    },
    {
      "channel": 3,
      "note": 81,
      "start": 65.2226,
      "duration": 0.0161,
      "velocity": 94,
      "chip": "ym2612"
    },
    {
      "channel": 2,
      "note": 57,
      "start": 65.2238,
      "duration": 0.0161,
      "velocity": 100,
      "chip": "ym2612"
    },
    {
      "channel": 1,
      "note": 64,
      "start": 65.2348,
      "duration": 0.0161,
      "velocity": 124,
      "chip": "ym2612"
    },
    {
      "channel": 0,
      "note": 44,
      "start": 65.2364,
      "duration": 0.0161,
      "velocity": 115,
      "chip": "ym2612"
    },
    {
      "channel": 4,
      "note": 81,
      "start": 65.2376,
      "duration": 0.0162,
      "velocity": 94,
      "chip": "ym2612"
    },
    {
      "channel": 3,
      "note": 81,
      "start": 65.2387,
      "duration": 0.0161,
      "velocity": 94,
      "chip": "ym2612"
    },
    {
      "channel": 2,
      "note": 57,
      "start": 65.2399,
      "duration": 0.0161,
      "velocity": 100,
      "chip": "ym2612"
    },
    {
      "channel": 1,
      "note": 64,
      "start": 65.2509,
      "duration": 0.0161,
      "velocity": 124,
      "chip": "ym2612"
    },
    {
      "channel": 0,
      "note": 44,
      "start": 65.2525,
      "duration": 0.0161,
      "velocity": 115,
      "chip": "ym2612"
    },
    {
      "channel": 4,
      "note": 81,
      "start": 65.2537,
      "duration": 0.0161,
      "velocity": 94,
      "chip": "ym2612"
    },
    {
      "channel": 3,
      "note": 81,
      "start": 65.2549,
      "duration": 0.0161,
      "velocity": 94,
      "chip": "ym2612"
    },
    {
      "channel": 2,
      "note": 57,
      "start": 65.256,
      "duration": 0.0161,
      "velocity": 100,
      "chip": "ym2612"
    },
    {
      "channel": 1,
      "note": 64,
      "start": 65.267,
      "duration": 0.0161,
      "velocity": 124,
      "chip": "ym2612"
    },
    {
      "channel": 0,
      "note": 44,
      "start": 65.2686,
      "duration": 0.0161,
      "velocity": 115,
      "chip": "ym2612"
    },
    {
      "channel": 4,
      "note": 81,
      "start": 65.2698,
      "duration": 0.0161,
      "velocity": 94,
      "chip": "ym2612"
    },
    {
      "channel": 3,
      "note": 81,
      "start": 65.271,
      "duration": 0.0161,
      "velocity": 94,
      "chip": "ym2612"
    },
    {
      "channel": 2,
      "note": 57,
      "start": 65.2721,
      "duration": 0.0161,
      "velocity": 100,
      "chip": "ym2612"
    },
    {
      "channel": 1,
      "note": 64,
      "start": 65.2831,
      "duration": 0.0178,
      "velocity": 105,
      "chip": "ym2612"
    },
    {
      "channel": 0,
      "note": 45,
      "start": 65.2847,
      "duration": 0.0178,
      "velocity": 115,
      "chip": "ym2612"
    },
    {
      "channel": 4,
      "note": 81,
      "start": 65.2859,
      "duration": 0.018,
      "velocity": 94,
      "chip": "ym2612"
    },
    {
      "channel": 3,
      "note": 81,
      "start": 65.2871,
      "duration": 0.0182,
      "velocity": 94,
      "chip": "ym2612"
    },
    {
      "channel": 2,
      "note": 57,
      "start": 65.2882,
      "duration": 0.0185,
      "velocity": 100,
      "chip": "ym2612"
    },
    {
      "channel": 1,
      "note": 105,
      "start": 65.3009,
      "duration": 0.0144,
      "velocity": 105,
      "chip": "ym2612"
    },
    {
      "channel": 0,
      "note": 45,
      "start": 65.3025,
      "duration": 0.0144,
      "velocity": 115,
      "chip": "ym2612"
    },
    {
      "channel": 4,
      "note": 81,
      "start": 65.304,
      "duration": 0.0143,
      "velocity": 94,
      "chip": "ym2612"
    },
    {
      "channel": 3,
      "note": 81,
      "start": 65.3053,
      "duration": 0.0141,
      "velocity": 94,
      "chip": "ym2612"
    },
    {
      "channel": 2,
      "note": 57,
      "start": 65.3067,
      "duration": 0.0139,
      "velocity": 100,
      "chip": "ym2612"
    },
    {
      "channel": 1,
      "note": 105,
      "start": 65.3153,
      "duration": 0.016,
      "velocity": 105,
      "chip": "ym2612"
    },
    {
      "channel": 0,
      "note": 46,
      "start": 65.317,
      "duration": 0.016,
      "velocity": 115,
      "chip": "ym2612"
    },
    {
      "channel": 4,
      "note": 81,
      "start": 65.3183,
      "duration": 0.016,
      "velocity": 94,
      "chip": "ym2612"
    },
    {
      "channel": 3,
      "note": 81,
      "start": 65.3194,
      "duration": 0.016,
      "velocity": 94,
      "chip": "ym2612"
    },
    {
      "channel": 2,
      "note": 57,
      "start": 65.3206,
      "duration": 0.0159,
      "velocity": 100,
      "chip": "ym2612"
    },
    {
      "channel": 1,
      "note": 105,
      "start": 65.3313,
      "duration": 0.0161,
      "velocity": 105,
      "chip": "ym2612"
    },
    {
      "channel": 0,
      "note": 46,
      "start": 65.333,
      "duration": 0.0161,
      "velocity": 115,
      "chip": "ym2612"
    },
    {
      "channel": 4,
      "note": 81,
      "start": 65.3342,
      "duration": 0.0161,
      "velocity": 94,
      "chip": "ym2612"
    },
    {
      "channel": 3,
      "note": 81,
      "start": 65.3354,
      "duration": 0.0161,
      "velocity": 94,
      "chip": "ym2612"
    },
    {
      "channel": 2,
      "note": 57,
      "start": 65.3364,
      "duration": 0.0161,
      "velocity": 100,
      "chip": "ym2612"
    },
    {
      "channel": 1,
      "note": 105,
      "start": 65.3474,
      "duration": 0.0166,
      "velocity": 105,
      "chip": "ym2612"
    },
    {
      "channel": 0,
      "note": 47,
      "start": 65.3491,
      "duration": 0.0166,
      "velocity": 115,
      "chip": "ym2612"
    },
    {
      "channel": 4,
      "note": 81,
      "start": 65.3503,
      "duration": 0.0165,
      "velocity": 94,
      "chip": "ym2612"
    },
    {
      "channel": 3,
      "note": 81,
      "start": 65.3515,
      "duration": 0.0165,
      "velocity": 94,
      "chip": "ym2612"
    },
    {
      "channel": 2,
      "note": 57,
      "start": 65.3525,
      "duration": 0.0165,
      "velocity": 100,
      "chip": "ym2612"
    },
    {
      "channel": 1,
      "note": 105,
      "start": 65.364,
      "duration": 0.0167,
      "velocity": 105,
      "chip": "ym2612"
    },
    {
      "channel": 0,
      "note": 47,
      "start": 65.3656,
      "duration": 0.0167,
      "velocity": 115,
      "chip": "ym2612"
    },
    {
      "channel": 4,
      "note": 81,
      "start": 65.3668,
      "duration": 0.0167,
      "velocity": 94,
      "chip": "ym2612"
    },
    {
      "channel": 3,
      "note": 81,
      "start": 65.3679,
      "duration": 0.0167,
      "velocity": 94,
      "chip": "ym2612"
    },
    {
      "channel": 2,
      "note": 57,
      "start": 65.3691,
      "duration": 0.0167,
      "velocity": 100,
      "chip": "ym2612"
    },
    {
      "channel": 1,
      "note": 105,
      "start": 65.3807,
      "duration": 0.0163,
      "velocity": 105,
      "chip": "ym2612"
    },
    {
      "channel": 0,
      "note": 47,
      "start": 65.3823,
      "duration": 0.0163,
      "velocity": 115,
      "chip": "ym2612"
    },
    {
      "channel": 4,
      "note": 81,
      "start": 65.3834,
      "duration": 0.0163,
      "velocity": 94,
      "chip": "ym2612"
    },
    {
      "channel": 3,
      "note": 81,
      "start": 65.3846,
      "duration": 0.0163,
      "velocity": 94,
      "chip": "ym2612"
    },
    {
      "channel": 2,
      "note": 57,
      "start": 65.3857,
      "duration": 0.0163,
      "velocity": 100,
      "chip": "ym2612"
    },
    {
      "channel": 1,
      "note": 105,
      "start": 65.3969,
      "duration": 0.0172,
      "velocity": 124,
      "chip": "ym2612"
    },
    {
      "channel": 0,
      "note": 48,
      "start": 65.3986,
      "duration": 0.0179,
      "velocity": 115,
      "chip": "ym2612"
    },
    {
      "channel": 4,
      "note": 81,
      "start": 65.3997,
      "duration": 0.0181,
      "velocity": 94,
      "chip": "ym2612"
    },
    {
      "channel": 3,
      "note": 81,
      "start": 65.4009,
      "duration": 0.0183,
      "velocity": 94,
      "chip": "ym2612"
    },
    {
      "channel": 2,
      "note": 57,
      "start": 65.402,
      "duration": 0.0186,
      "velocity": 100,
      "chip": "ym2612"
    },
    {
      "channel": 1,
      "note": 78,
      "start": 65.4142,
      "duration": 0.017,
      "velocity": 124,
      "chip": "ym2612"
    },
    {
      "channel": 0,
      "note": 48,
      "start": 65.4165,
      "duration": 0.0165,
      "velocity": 115,
      "chip": "ym2612"
    },
    {
      "channel": 4,
      "note": 81,
      "start": 65.4179,
      "duration": 0.0165,
      "velocity": 94,
      "chip": "ym2612"
    },
    {
      "channel": 3,
      "note": 81,
      "start": 65.4193,
      "duration": 0.0162,
      "velocity": 94,
      "chip": "ym2612"
    },
    {
      "channel": 2,
      "note": 57,
      "start": 65.4207,
      "duration": 0.016,
      "velocity": 100,
      "chip": "ym2612"
    },
    {
      "channel": 1,
      "note": 76,
      "start": 65.4312,
      "duration": 0.0162,
      "velocity": 124,
      "chip": "ym2612"
    },
    {
      "channel": 0,
      "note": 49,
      "start": 65.4331,
      "duration": 0.0153,
      "velocity": 1,
      "chip": "ym2612"
    },
    {
      "channel": 4,
      "note": 81,
      "start": 65.4343,
      "duration": 0.0152,
      "velocity": 94,
      "chip": "ym2612"
    },
    {
      "channel": 3,
      "note": 81,
      "start": 65.4355,
      "duration": 0.0152,
      "velocity": 94,
      "chip": "ym2612"
    },
    {
      "channel": 2,
      "note": 57,
      "start": 65.4367,
      "duration": 0.0151,
      "velocity": 100,
      "chip": "ym2612"
    },
    {
      "channel": 1,
      "note": 75,
      "start": 65.4473,
      "duration": 0.0158,
      "velocity": 124,
      "chip": "ym2612"
    },
    {
      "channel": 4,
      "note": 81,
      "start": 65.4495,
      "duration": 0.0149,
      "velocity": 94,
      "chip": "ym2612"
    },
    {
      "channel": 3,
      "note": 81,
      "start": 65.4507,
      "duration": 0.0149,
      "velocity": 94,
      "chip": "ym2612"
    },
    {
      "channel": 2,
      "note": 57,
      "start": 65.4518,
      "duration": 0.0149,
      "velocity": 100,
      "chip": "ym2612"
    },
    {
      "channel": 1,
      "note": 74,
      "start": 65.4631,
      "duration": 0.014,
      "velocity": 124,
      "chip": "ym2612"
    },
    {
      "channel": 4,
      "note": 81,
      "start": 65.4644,
      "duration": 0.0141,
      "velocity": 94,
      "chip": "ym2612"
    },
    {
      "channel": 3,
      "note": 81,
      "start": 65.4656,
      "duration": 0.0141,
      "velocity": 94,
      "chip": "ym2612"
    },
    {
      "channel": 2,
      "note": 57,
      "start": 65.4667,
      "duration": 0.0141,
      "velocity": 100,
      "chip": "ym2612"
    },
    {
      "channel": 1,
      "note": 72,
      "start": 65.4771,
      "duration": 0.0158,
      "velocity": 124,
      "chip": "ym2612"
    },
    {
      "channel": 4,
      "note": 81,
      "start": 65.4785,
      "duration": 0.0185,
      "velocity": 94,
      "chip": "ym2612"
    },
    {
      "channel": 3,
      "note": 81,
      "start": 65.4796,
      "duration": 0.0185,
      "velocity": 94,
      "chip": "ym2612"
    },
    {
      "channel": 2,
      "note": 57,
      "start": 65.4808,
      "duration": 0.0185,
      "velocity": 100,
      "chip": "ym2612"
    },
    {
      "channel": 1,
      "note": 71,
      "start": 65.4929,
      "duration": 0.0161,
      "velocity": 124,
      "chip": "ym2612"
    },
    {
      "channel": 4,
      "note": 81,
      "start": 65.497,
      "duration": 0.0161,
      "velocity": 94,
      "chip": "ym2612"
    },
    {
      "channel": 3,
      "note": 81,
      "start": 65.4981,
      "duration": 0.0161,
      "velocity": 94,
      "chip": "ym2612"
    },
    {
      "channel": 2,
      "note": 57,
      "start": 65.4993,
      "duration": 0.0161,
      "velocity": 100,
      "chip": "ym2612"
    },
    {
      "channel": 1,
      "note": 70,
      "start": 65.509,
      "duration": 0.0161,
      "velocity": 124,
      "chip": "ym2612"
    },
    {
      "channel": 4,
      "note": 81,
      "start": 65.5131,
      "duration": 0.0166,
      "velocity": 94,
      "chip": "ym2612"
    },
    {
      "channel": 3,
      "note": 81,
      "start": 65.5142,
      "duration": 0.0167,
      "velocity": 94,
      "chip": "ym2612"
    },
    {
      "channel": 2,
      "note": 57,
      "start": 65.5154,
      "duration": 0.0169,
      "velocity": 100,
      "chip": "ym2612"
    },
    {
      "channel": 1,
      "note": 69,
      "start": 65.5251,
      "duration": 0.0161,
      "velocity": 124,
      "chip": "ym2612"
    },
    {
      "channel": 4,
      "note": 76,
      "start": 65.5296,
      "duration": 0.013,
      "velocity": 94,
      "chip": "ym2612"
    },
    {
      "channel": 3,
      "note": 81,
      "start": 65.5309,
      "duration": 0.0133,
      "velocity": 94,
      "chip": "ym2612"
    },
    {
      "channel": 2,
      "note": 57,
      "start": 65.5324,
      "duration": 0.013,
      "velocity": 100,
      "chip": "ym2612"
    },
    {
      "channel": 1,
      "note": 68,
      "start": 65.5411,
      "duration": 0.0162,
      "velocity": 124,
      "chip": "ym2612"
    },
    {
      "channel": 4,
      "note": 76,
      "start": 65.5427,
      "duration": 0.016,
      "velocity": 94,
      "chip": "ym2612"
    },
    {
      "channel": 3,
      "note": 81,
      "start": 65.5442,
      "duration": 0.0183,
      "velocity": 94,
      "chip": "ym2612"
    },
    {
      "channel": 2,
      "note": 57,
      "start": 65.5454,
      "duration": 0.0183,
      "velocity": 100,
      "chip": "ym2612"
    },
    {
      "channel": 1,
      "note": 66,
      "start": 65.5573,
      "duration": 0.0161,
      "velocity": 124,
      "chip": "ym2612"
    },
    {
      "channel": 4,
      "note": 76,
      "start": 65.5586,
      "duration": 0.0161,
      "velocity": 94,
      "chip": "ym2612"
    },
    {
      "channel": 3,
      "note": 81,
      "start": 65.5625,
      "duration": 0.0134,
      "velocity": 94,
      "chip": "ym2612"
    },
    {
      "channel": 2,
      "note": 57,
      "start": 65.5637,
      "duration": 0.0161,
      "velocity": 100,
      "chip": "ym2612"
    },
    {
      "channel": 1,
      "note": 65,
      "start": 65.5734,
      "duration": 0.0161,
      "velocity": 124,
      "chip": "ym2612"
    },
    {
      "channel": 4,
      "note": 76,
      "start": 65.5748,
      "duration": 0.0161,
      "velocity": 94,
      "chip": "ym2612"
    },
    {
      "channel": 3,
      "note": 81,
      "start": 65.5759,
      "duration": 0.0162,
      "velocity": 94,
      "chip": "ym2612"
    },
    {
      "channel": 2,
      "note": 57,
      "start": 65.5798,
      "duration": 0.0158,
      "velocity": 100,
      "chip": "ym2612"
    },
    {
      "channel": 1,
      "note": 64,
      "start": 65.5895,
      "duration": 0.0161,
      "velocity": 124,
      "chip": "ym2612"
    },
    {
      "channel": 4,
      "note": 76,
      "start": 65.5909,
      "duration": 0.0161,
      "velocity": 94,
      "chip": "ym2612"
    },
    {
      "channel": 3,
      "note": 81,
      "start": 65.592,
      "duration": 0.0161,
      "velocity": 94,
      "chip": "ym2612"
    },
    {
      "channel": 2,
      "note": 57,
      "start": 65.5955,
      "duration": 0.0137,
      "velocity": 100,
      "chip": "ym2612"
    },
    {
      "channel": 1,
      "note": 62,
      "start": 65.6056,
      "duration": 0.0161,
      "velocity": 124,
      "chip": "ym2612"
    },
    {
      "channel": 4,
      "note": 76,
      "start": 65.607,
      "duration": 0.0161,
      "velocity": 94,
      "chip": "ym2612"
    },
    {
      "channel": 3,
      "note": 81,
      "start": 65.6081,
      "duration": 0.0161,
      "velocity": 94,
      "chip": "ym2612"
    },
    {
      "channel": 2,
      "note": 57,
      "start": 65.6093,
      "duration": 0.0161,
      "velocity": 100,
      "chip": "ym2612"
    },
    {
      "channel": 1,
      "note": 61,
      "start": 65.6217,
      "duration": 0.0161,
      "velocity": 124,
      "chip": "ym2612"
    },
    {
      "channel": 4,
      "note": 76,
      "start": 65.6231,
      "duration": 0.0167,
      "velocity": 94,
      "chip": "ym2612"
    },
    {
      "channel": 3,
      "note": 81,
      "start": 65.6242,
      "duration": 0.0169,
      "velocity": 94,
      "chip": "ym2612"
    },
    {
      "channel": 2,
      "note": 57,
      "start": 65.6254,
      "duration": 0.0172,
      "velocity": 100,
      "chip": "ym2612"
    },
    {
      "channel": 1,
      "note": 60,
      "start": 65.6378,
      "duration": 0.0161,
      "velocity": 124,
      "chip": "ym2612"
    },
    {
      "channel": 4,
      "note": 76,
      "start": 65.6398,
      "duration": 0.0156,
      "velocity": 94,
      "chip": "ym2612"
    },
    {
      "channel": 3,
      "note": 76,
      "start": 65.6412,
      "duration": 0.0154,
      "velocity": 94,
      "chip": "ym2612"
    },
    {
      "channel": 2,
      "note": 57,
      "start": 65.6427,
      "duration": 0.0151,
      "velocity": 100,
      "chip": "ym2612"
    },
    {
      "channel": 1,
      "note": 59,
      "start": 65.6539,
      "duration": 0.0161,
      "velocity": 124,
      "chip": "ym2612"
    },
    {
      "channel": 4,
      "note": 76,
      "start": 65.6554,
      "duration": 0.016,
      "velocity": 94,
      "chip": "ym2612"
    },
    {
      "channel": 3,
      "note": 76,
      "start": 65.6566,
      "duration": 0.0159,
      "velocity": 94,
      "chip": "ym2612"
    },
    {
      "channel": 2,
      "note": 57,
      "start": 65.6578,
      "duration": 0.0159,
      "velocity": 100,
      "chip": "ym2612"
    },
    {
      "channel": 1,
      "note": 57,
      "start": 65.67,
      "duration": 0.0162,
      "velocity": 124,
      "chip": "ym2612"
    },
    {
      "channel": 4,
      "note": 76,
      "start": 65.6714,
      "duration": 0.0161,
      "velocity": 94,
      "chip": "ym2612"
    },
    {
      "channel": 3,
      "note": 76,
      "start": 65.6725,
      "duration": 0.0161,
      "velocity": 94,
      "chip": "ym2612"
    },
    {
      "channel": 2,
      "note": 57,
      "start": 65.6737,
      "duration": 0.0161,
      "velocity": 100,
      "chip": "ym2612"
    },
    {
      "channel": 1,
      "note": 56,
      "start": 65.6861,
      "duration": 0.016,
      "velocity": 124,
      "chip": "ym2612"
    },
    {
      "channel": 4,
      "note": 76,
      "start": 65.6875,
      "duration": 0.0161,
      "velocity": 94,
      "chip": "ym2612"
    },
    {
      "channel": 3,
      "note": 76,
      "start": 65.6886,
      "duration": 0.0161,
      "velocity": 94,
      "chip": "ym2612"
    },
    {
      "channel": 2,
      "note": 57,
      "start": 65.6898,
      "duration": 0.0161,
      "velocity": 100,
      "chip": "ym2612"
    },
    {
      "channel": 1,
      "note": 55,
      "start": 65.7022,
      "duration": 0.0161,
      "velocity": 124,
      "chip": "ym2612"
    },
    {
      "channel": 4,
      "note": 76,
      "start": 65.7035,
      "duration": 0.0161,
      "velocity": 94,
      "chip": "ym2612"
    },
    {
      "channel": 3,
      "note": 76,
      "start": 65.7047,
      "duration": 0.0161,
      "velocity": 94,
      "chip": "ym2612"
    },
    {
      "channel": 2,
      "note": 57,
      "start": 65.7058,
      "duration": 0.0161,
      "velocity": 100,
      "chip": "ym2612"
    },
    {
      "channel": 1,
      "note": 53,
      "start": 65.7183,
      "duration": 0.0161,
      "velocity": 124,
      "chip": "ym2612"
    },
    {
      "channel": 4,
      "note": 76,
      "start": 65.7196,
      "duration": 0.0161,
      "velocity": 94,
      "chip": "ym2612"
    },
    {
      "channel": 3,
      "note": 76,
      "start": 65.7208,
      "duration": 0.0161,
      "velocity": 94,
      "chip": "ym2612"
    },
    {
      "channel": 2,
      "note": 57,
      "start": 65.7219,
      "duration": 0.0161,
      "velocity": 100,
      "chip": "ym2612"
    },
    {
      "channel": 1,
      "note": 52,
      "start": 65.7344,
      "duration": 0.0161,
      "velocity": 124,
      "chip": "ym2612"
    },
    {
      "channel": 4,
      "note": 76,
      "start": 65.7357,
      "duration": 0.0204,
      "velocity": 94,
      "chip": "ym2612"
    },
    {
      "channel": 3,
      "note": 76,
      "start": 65.7369,
      "duration": 0.0205,
      "velocity": 94,
      "chip": "ym2612"
    },
    {
      "channel": 2,
      "note": 57,
      "start": 65.738,
      "duration": 0.0207,
      "velocity": 100,
      "chip": "ym2612"
    },
    {
      "channel": 1,
      "note": 51,
      "start": 65.7505,
      "duration": 0.0153,
      "velocity": 1,
      "chip": "ym2612"
    },
    {
      "channel": 0,
      "note": 36,
      "start": 65.7547,
      "duration": 0.015,
      "velocity": 115,
      "chip": "ym2612"
    },
    {
      "channel": 4,
      "note": 76,
      "start": 65.7561,
      "duration": 0.0148,
      "velocity": 94,
      "chip": "ym2612"
    },
    {
      "channel": 3,
      "note": 76,
      "start": 65.7574,
      "duration": 0.0148,
      "velocity": 94,
      "chip": "ym2612"
    },
    {
      "channel": 2,
      "note": 57,
      "start": 65.7588,
      "duration": 0.0144,
      "velocity": 100,
      "chip": "ym2612"
    },
    {
      "channel": 1,
      "note": 51,
      "start": 65.768,
      "duration": 0.0142,
      "velocity": 105,
      "chip": "ym2612"
    },
    {
      "channel": 0,
      "note": 36,
      "start": 65.7697,
      "duration": 0.0141,
      "velocity": 115,
      "chip": "ym2612"
    },
    {
      "channel": 4,
      "note": 76,
      "start": 65.7709,
      "duration": 0.0141,
      "velocity": 94,
      "chip": "ym2612"
    },
    {
      "channel": 3,
      "note": 76,
      "start": 65.7721,
      "duration": 0.0141,
      "velocity": 94,
      "chip": "ym2612"
    },
    {
      "channel": 2,
      "note": 57,
      "start": 65.7733,
      "duration": 0.014,
      "velocity": 100,
      "chip": "ym2612"
    },
    {
      "channel": 1,
      "note": 105,
      "start": 65.7822,
      "duration": 0.0161,
      "velocity": 105,
      "chip": "ym2612"
    },
    {
      "channel": 0,
      "note": 37,
      "start": 65.7838,
      "duration": 0.0161,
      "velocity": 115,
      "chip": "ym2612"
    },
    {
      "channel": 4,
      "note": 76,
      "start": 65.785,
      "duration": 0.0161,
      "velocity": 94,
      "chip": "ym2612"
    },
    {
      "channel": 3,
      "note": 76,
      "start": 65.7862,
      "duration": 0.0161,
      "velocity": 94,
      "chip": "ym2612"
    },
    {
      "channel": 2,
      "note": 57,
      "start": 65.7873,
      "duration": 0.0161,
      "velocity": 100,
      "chip": "ym2612"
    },
    {
      "channel": 1,
      "note": 105,
      "start": 65.7983,
      "duration": 0.0161,
      "velocity": 105,
      "chip": "ym2612"
    },
    {
      "channel": 0,
      "note": 37,
      "start": 65.7999,
      "duration": 0.0161,
      "velocity": 115,
      "chip": "ym2612"
    },
    {
      "channel": 4,
      "note": 76,
      "start": 65.8011,
      "duration": 0.0161,
      "velocity": 94,
      "chip": "ym2612"
    },
    {
      "channel": 3,
      "note": 76,
      "start": 65.8023,
      "duration": 0.0161,
      "velocity": 94,
      "chip": "ym2612"
    },
    {
      "channel": 2,
      "note": 57,
      "start": 65.8034,
      "duration": 0.0162,
      "velocity": 100,
      "chip": "ym2612"
    },
    {
      "channel": 1,
      "note": 105,
      "start": 65.8144,
      "duration": 0.0162,
      "velocity": 105,
      "chip": "ym2612"
    },
    {
      "channel": 0,
      "note": 38,
      "start": 65.8161,
      "duration": 0.0162,
      "velocity": 115,
      "chip": "ym2612"
    },
    {
      "channel": 4,
      "note": 76,
      "start": 65.8172,
      "duration": 0.0162,
      "velocity": 94,
      "chip": "ym2612"
    },
    {
      "channel": 3,
      "note": 76,
      "start": 65.8184,
      "duration": 0.0162,
      "velocity": 94,
      "chip": "ym2612"
    },
    {
      "channel": 2,
      "note": 57,
      "start": 65.8195,
      "duration": 0.0162,
      "velocity": 100,
      "chip": "ym2612"
    },
    {
      "channel": 1,
      "note": 105,
      "start": 65.8307,
      "duration": 0.0167,
      "velocity": 105,
      "chip": "ym2612"
    },
    {
      "channel": 0,
      "note": 38,
      "start": 65.8323,
      "duration": 0.0167,
      "velocity": 115,
      "chip": "ym2612"
    },
    {
      "channel": 4,
      "note": 76,
      "start": 65.8334,
      "duration": 0.0167,
      "velocity": 94,
      "chip": "ym2612"
    },
    {
      "channel": 3,
      "note": 76,
      "start": 65.8346,
      "duration": 0.0167,
      "velocity": 94,
      "chip": "ym2612"
    },
    {
      "channel": 2,
      "note": 57,
      "start": 65.8357,
      "duration": 0.0167,
      "velocity": 100,
      "chip": "ym2612"
    },
    {
      "channel": 1,
      "note": 105,
      "start": 65.8473,
      "duration": 0.018,
      "velocity": 124,
      "chip": "ym2612"
    },
    {
      "channel": 0,
      "note": 39,
      "start": 65.849,
      "duration": 0.0198,
      "velocity": 115,
      "chip": "ym2612"
    },
    {
      "channel": 4,
      "note": 76,
      "start": 65.8501,
      "duration": 0.0201,
      "velocity": 94,
      "chip": "ym2612"
    },
    {
      "channel": 3,
      "note": 76,
      "start": 65.8513,
      "duration": 0.0203,
      "velocity": 94,
      "chip": "ym2612"
    },
    {
      "channel": 2,
      "note": 57,
      "start": 65.8524,
      "duration": 0.0207,
      "velocity": 100,
      "chip": "ym2612"
    },
    {
      "channel": 1,
      "note": 64,
      "start": 65.8653,
      "duration": 0.0136,
      "velocity": 124,
      "chip": "ym2612"
    },
    {
      "channel": 0,
      "note": 36,
      "start": 65.8688,
      "duration": 0.0118,
      "velocity": 115,
      "chip": "ym2612"
    },
    {
      "channel": 4,
      "note": 81,
      "start": 65.8703,
      "duration": 0.0116,
      "velocity": 94,
      "chip": "ym2612"
    },
    {
      "channel": 3,
      "note": 76,
      "start": 65.8717,
      "duration": 0.0114,
      "velocity": 94,
      "chip": "ym2612"
    },
    {
      "channel": 2,
      "note": 57,
      "start": 65.8731,
      "duration": 0.0111,
      "velocity": 100,
      "chip": "ym2612"
    },
    {
      "channel": 1,
      "note": 64,
      "start": 65.8789,
      "duration": 0.0185,
      "velocity": 124,
      "chip": "ym2612"
    },
    {
      "channel": 0,
      "note": 36,
      "start": 65.8806,
      "duration": 0.0184,
      "velocity": 115,
      "chip": "ym2612"
    },
    {
      "channel": 4,
      "note": 81,
      "start": 65.8819,
      "duration": 0.0183,
      "velocity": 94,
      "chip": "ym2612"
    },
    {
      "channel": 3,
      "note": 76,
      "start": 65.8831,
      "duration": 0.0182,
      "velocity": 94,
      "chip": "ym2612"
    },
    {
      "channel": 2,
      "note": 57,
      "start": 65.8842,
      "duration": 0.0182,
      "velocity": 100,
      "chip": "ym2612"
    },
    {
      "channel": 1,
      "note": 64,
      "start": 65.8973,
      "duration": 0.0165,
      "velocity": 124,
      "chip": "ym2612"
    },
    {
      "channel": 0,
      "note": 37,
      "start": 65.899,
      "duration": 0.0165,
      "velocity": 115,
      "chip": "ym2612"
    },
    {
      "channel": 4,
      "note": 81,
      "start": 65.9001,
      "duration": 0.0165,
      "velocity": 94,
      "chip": "ym2612"
    },
    {
      "channel": 3,
      "note": 76,
      "start": 65.9013,
      "duration": 0.0165,
      "velocity": 94,
      "chip": "ym2612"
    },
    {
      "channel": 2,
      "note": 57,
      "start": 65.9024,
      "duration": 0.0165,
      "velocity": 100,
      "chip": "ym2612"
    },
    {
      "channel": 1,
      "note": 64,
      "start": 65.9138,
      "duration": 0.0157,
      "velocity": 124,
      "chip": "ym2612"
    },
    {
      "channel": 0,
      "note": 37,
      "start": 65.9154,
      "duration": 0.0157,
      "velocity": 115,
      "chip": "ym2612"
    },
    {
      "channel": 4,
      "note": 81,
      "start": 65.9166,
      "duration": 0.0157,
      "velocity": 94,
      "chip": "ym2612"
    },
    {
      "channel": 3,
      "note": 76,
      "start": 65.9177,
      "duration": 0.0157,
      "velocity": 94,
      "chip": "ym2612"
    },
    {
      "channel": 2,
      "note": 57,
      "start": 65.9189,
      "duration": 0.0157,
      "velocity": 100,
      "chip": "ym2612"
    },
    {
      "channel": 1,
      "note": 64,
      "start": 65.9295,
      "duration": 0.0141,
      "velocity": 124,
      "chip": "ym2612"
    },
    {
      "channel": 0,
      "note": 38,
      "start": 65.9312,
      "duration": 0.0141,
      "velocity": 115,
      "chip": "ym2612"
    },
    {
      "channel": 4,
      "note": 81,
      "start": 65.9323,
      "duration": 0.014,
      "velocity": 94,
      "chip": "ym2612"
    },
    {
      "channel": 3,
      "note": 76,
      "start": 65.9334,
      "duration": 0.0141,
      "velocity": 94,
      "chip": "ym2612"
    },
    {
      "channel": 2,
      "note": 57,
      "start": 65.9346,
      "duration": 0.014,
      "velocity": 100,
      "chip": "ym2612"
    },
    {
      "channel": 1,
      "note": 64,
      "start": 65.9436,
      "duration": 0.0158,
      "velocity": 124,
      "chip": "ym2612"
    },
    {
      "channel": 0,
      "note": 38,
      "start": 65.9452,
      "duration": 0.0185,
      "velocity": 115,
      "chip": "ym2612"
    },
    {
      "channel": 4,
      "note": 81,
      "start": 65.9463,
      "duration": 0.0186,
      "velocity": 94,
      "chip": "ym2612"
    },
    {
      "channel": 3,
      "note": 76,
      "start": 65.9475,
      "duration": 0.0186,
      "velocity": 94,
      "chip": "ym2612"
    },
    {
      "channel": 2,
      "note": 57,
      "start": 65.9486,
      "duration": 0.0185,
      "velocity": 100,
      "chip": "ym2612"
    },
    {
      "channel": 1,
      "note": 64,
      "start": 65.9593,
      "duration": 0.0205,
      "velocity": 105,
      "chip": "ym2612"
    },
    {
      "channel": 0,
      "note": 39,
      "start": 65.9637,
      "duration": 0.0178,
      "velocity": 115,
      "chip": "ym2612"
    },
    {
      "channel": 4,
      "note": 81,
      "start": 65.9649,
      "duration": 0.0179,
      "velocity": 94,
      "chip": "ym2612"
    },
    {
      "channel": 3,
      "note": 76,
      "start": 65.9661,
      "duration": 0.0181,
      "velocity": 94,
      "chip": "ym2612"
    },
    {
      "channel": 2,
      "note": 57,
      "start": 65.9672,
      "duration": 0.0184,
      "velocity": 100,
      "chip": "ym2612"
    },
    {
      "channel": 1,
      "note": 105,
      "start": 65.9799,
      "duration": 0.0116,
      "velocity": 105,
      "chip": "ym2612"
    },
    {
      "channel": 0,
      "note": 39,
      "start": 65.9815,
      "duration": 0.0141,
      "velocity": 115,
      "chip": "ym2612"
    },
    {
      "channel": 4,
      "note": 81,
      "start": 65.9828,
      "duration": 0.014,
      "velocity": 94,
      "chip": "ym2612"
    },
    {
      "channel": 3,
      "note": 81,
      "start": 65.9842,
      "duration": 0.0138,
      "velocity": 94,
      "chip": "ym2612"
    },
    {
      "channel": 2,
      "note": 57,
      "start": 65.9857,
      "duration": 0.0136,
      "velocity": 100,
      "chip": "ym2612"
    },
    {
      "channel": 1,
      "note": 105,
      "start": 65.9915,
      "duration": 0.0161,
      "velocity": 105,
      "chip": "ym2612"
    },
    {
      "channel": 0,
      "note": 40,
      "start": 65.9956,
      "duration": 0.0137,
      "velocity": 115,
      "chip": "ym2612"
    },
    {
      "channel": 4,
      "note": 81,
      "start": 65.9968,
      "duration": 0.0139,
      "velocity": 94,
      "chip": "ym2612"
    },
    {
      "channel": 3,
      "note": 81,
      "start": 65.998,
      "duration": 0.0139,
      "velocity": 94,
      "chip": "ym2612"
    },
    {
      "channel": 2,
      "note": 57,
      "start": 65.9992,
      "duration": 0.0138,
      "velocity": 100,
      "chip": "ym2612"
    },
    {
      "channel": 1,
      "note": 105,
      "start": 66.0076,
      "duration": 0.0161,
      "velocity": 105,
      "chip": "ym2612"
    },
    {
      "channel": 0,
      "note": 40,
      "start": 66.0093,
      "duration": 0.0161,
      "velocity": 115,
      "chip": "ym2612"
    },
    {
      "channel": 4,
      "note": 81,
      "start": 66.0107,
      "duration": 0.0186,
      "velocity": 94,
      "chip": "ym2612"
    },
    {
      "channel": 3,
      "note": 81,
      "start": 66.0119,
      "duration": 0.0186,
      "velocity": 94,
      "chip": "ym2612"
    },
    {
      "channel": 2,
      "note": 57,
      "start": 66.013,
      "duration": 0.0185,
      "velocity": 100,
      "chip": "ym2612"
    },
    {
      "channel": 1,
      "note": 105,
      "start": 66.0237,
      "duration": 0.0161,
      "velocity": 105,
      "chip": "ym2612"
    },
    {
      "channel": 0,
      "note": 40,
      "start": 66.0254,
      "duration": 0.0161,
      "velocity": 115,
      "chip": "ym2612"
    },
    {
      "channel": 4,
      "note": 81,
      "start": 66.0293,
      "duration": 0.0134,
      "velocity": 94,
      "chip": "ym2612"
    },
    {
      "channel": 3,
      "note": 81,
      "start": 66.0305,
      "duration": 0.0161,
      "velocity": 94,
      "chip": "ym2612"
    },
    {
      "channel": 2,
      "note": 57,
      "start": 66.0315,
      "duration": 0.0161,
      "velocity": 100,
      "chip": "ym2612"
    },
    {
      "channel": 1,
      "note": 105,
      "start": 66.0398,
      "duration": 0.0161,
      "velocity": 105,
      "chip": "ym2612"
    },
    {
      "channel": 0,
      "note": 41,
      "start": 66.0415,
      "duration": 0.0161,
      "velocity": 115,
      "chip": "ym2612"
    },
    {
      "channel": 4,
      "note": 81,
      "start": 66.0427,
      "duration": 0.0161,
      "velocity": 94,
      "chip": "ym2612"
    },
    {
      "channel": 3,
      "note": 81,
      "start": 66.0466,
      "duration": 0.0157,
      "velocity": 94,
      "chip": "ym2612"
    },
    {
      "channel": 2,
      "note": 57,
      "start": 66.0477,
      "duration": 0.0157,
      "velocity": 100,
      "chip": "ym2612"
    },
    {
      "channel": 1,
      "note": 105,
      "start": 66.0559,
      "duration": 0.0161,
      "velocity": 105,
      "chip": "ym2612"
    },
    {
      "channel": 0,
      "note": 41,
      "start": 66.0576,
      "duration": 0.0161,
      "velocity": 115,
      "chip": "ym2612"
    },
    {
      "channel": 4,
      "note": 81,
      "start": 66.0588,
      "duration": 0.0161,
      "velocity": 94,
      "chip": "ym2612"
    },
    {
      "channel": 3,
      "note": 81,
      "start": 66.0623,
      "duration": 0.0137,
      "velocity": 94,
      "chip": "ym2612"
    },
    {
      "channel": 2,
      "note": 57,
      "start": 66.0634,
      "duration": 0.014,
      "velocity": 100,
      "chip": "ym2612"
    },
    {
      "channel": 1,
      "note": 105,
      "start": 66.072,
      "duration": 0.0178,
      "velocity": 124,
      "chip": "ym2612"
    },
    {
      "channel": 0,
      "note": 42,
      "start": 66.0737,
      "duration": 0.0179,
      "velocity": 115,
      "chip": "ym2612"
    },
    {
      "channel": 4,
      "note": 81,
      "start": 66.0749,
      "duration": 0.0181,
      "velocity": 94,
      "chip": "ym2612"
    },
    {
      "channel": 3,
      "note": 81,
      "start": 66.076,
      "duration": 0.021,
      "velocity": 94,
      "chip": "ym2612"
    },
    {
      "channel": 2,
      "note": 57,
      "start": 66.0774,
      "duration": 0.021,
      "velocity": 100,
      "chip": "ym2612"
    },
    {
      "channel": 1,
      "note": 64,
      "start": 66.0899,
      "duration": 0.0144,
      "velocity": 124,
      "chip": "ym2612"
    },
    {
      "channel": 0,
      "note": 42,
      "start": 66.0915,
      "duration": 0.0144,
      "velocity": 115,
      "chip": "ym2612"
    },
    {
      "channel": 4,
      "note": 81,
      "start": 66.0929,
      "duration": 0.0142,
      "velocity": 94,
      "chip": "ym2612"
    },
    {
      "channel": 3,
      "note": 81,
      "start": 66.097,
      "duration": 0.0114,
      "velocity": 94,
      "chip": "ym2612"
    },
    {
      "channel": 2,
      "note": 57,
      "start": 66.0984,
      "duration": 0.0112,
      "velocity": 100,
      "chip": "ym2612"
    },
    {
      "channel": 1,
      "note": 64,
      "start": 66.1043,
      "duration": 0.016,
      "velocity": 124,
      "chip": "ym2612"
    },
    {
      "channel": 0,
      "note": 43,
      "start": 66.106,
      "duration": 0.016,
      "velocity": 115,
      "chip": "ym2612"
    },
    {
      "channel": 4,
      "note": 81,
      "start": 66.1072,
      "duration": 0.016,
      "velocity": 94,
      "chip": "ym2612"
    },
    {
      "channel": 3,
      "note": 81,
      "start": 66.1084,
      "duration": 0.0159,
      "velocity": 94,
      "chip": "ym2612"
    },
    {
      "channel": 2,
      "note": 57,
      "start": 66.1096,
      "duration": 0.0159,
      "velocity": 100,
      "chip": "ym2612"
    },
    {
      "channel": 1,
      "note": 64,
      "start": 66.1203,
      "duration": 0.0161,
      "velocity": 124,
      "chip": "ym2612"
    },
    {
      "channel": 0,
      "note": 43,
      "start": 66.122,
      "duration": 0.0161,
      "velocity": 115,
      "chip": "ym2612"
    },
    {
      "channel": 4,
      "note": 81,
      "start": 66.1232,
      "duration": 0.0161,
      "velocity": 94,
      "chip": "ym2612"
    },
    {
      "channel": 3,
      "note": 81,
      "start": 66.1243,
      "duration": 0.0161,
      "velocity": 94,
      "chip": "ym2612"
    },
    {
      "channel": 2,
      "note": 57,
      "start": 66.1254,
      "duration": 0.0161,
      "velocity": 100,
      "chip": "ym2612"
    },
    {
      "channel": 1,
      "note": 64,
      "start": 66.1364,
      "duration": 0.0161,
      "velocity": 124,
      "chip": "ym2612"
    },
    {
      "channel": 0,
      "note": 44,
      "start": 66.1381,
      "duration": 0.0161,
      "velocity": 115,
      "chip": "ym2612"
    },
    {
      "channel": 4,
      "note": 81,
      "start": 66.1392,
      "duration": 0.0162,
      "velocity": 94,
      "chip": "ym2612"
    },
    {
      "channel": 3,
      "note": 81,
      "start": 66.1404,
      "duration": 0.0161,
      "velocity": 94,
      "chip": "ym2612"
    },
    {
      "channel": 2,
      "note": 57,
      "start": 66.1415,
      "duration": 0.0161,
      "velocity": 100,
      "chip": "ym2612"
    },
    {
      "channel": 1,
      "note": 64,
      "start": 66.1525,
      "duration": 0.0161,
      "velocity": 124,
      "chip": "ym2612"
    },
    {
      "channel": 0,
      "note": 44,
      "start": 66.1542,
      "duration": 0.0161,
      "velocity": 115,
      "chip": "ym2612"
    },
    {
      "channel": 4,
      "note": 81,
      "start": 66.1554,
      "duration": 0.0161,
      "velocity": 94,
      "chip": "ym2612"
    },
    {
      "channel": 3,
      "note": 81,
      "start": 66.1565,
      "duration": 0.0161,
      "velocity": 94,
      "chip": "ym2612"
    },
    {
      "channel": 2,
      "note": 57,
      "start": 66.1576,
      "duration": 0.0161,
      "velocity": 100,
      "chip": "ym2612"
    },
    {
      "channel": 1,
      "note": 64,
      "start": 66.1686,
      "duration": 0.0161,
      "velocity": 124,
      "chip": "ym2612"
    },
    {
      "channel": 0,
      "note": 44,
      "start": 66.1703,
      "duration": 0.0161,
      "velocity": 115,
      "chip": "ym2612"
    },
    {
      "channel": 4,
      "note": 81,
      "start": 66.1715,
      "duration": 0.0161,
      "velocity": 94,
      "chip": "ym2612"
    },
    {
      "channel": 3,
      "note": 81,
      "start": 66.1726,
      "duration": 0.0161,
      "velocity": 94,
      "chip": "ym2612"
    },
    {
      "channel": 2,
      "note": 57,
      "start": 66.1737,
      "duration": 0.0161,
      "velocity": 100,
      "chip": "ym2612"
    },
    {
      "channel": 1,
      "note": 64,
      "start": 66.1847,
      "duration": 0.0178,
      "velocity": 105,
      "chip": "ym2612"
    },
    {
      "channel": 0,
      "note": 45,
      "start": 66.1864,
      "duration": 0.0178,
      "velocity": 115,
      "chip": "ym2612"
    },
    {
      "channel": 4,
      "note": 81,
      "start": 66.1876,
      "duration": 0.018,
      "velocity": 94,
      "chip": "ym2612"
    },
    {
      "channel": 3,
      "note": 81,
      "start": 66.1887,
      "duration": 0.0183,
      "velocity": 94,
      "chip": "ym2612"
    },
    {
      "channel": 2,
      "note": 57,
      "start": 66.1898,
      "duration": 0.0186,
      "velocity": 100,
      "chip": "ym2612"
    },
    {
      "channel": 1,
      "note": 105,
      "start": 66.2025,
      "duration": 0.0144,
      "velocity": 105,
      "chip": "ym2612"
    },
    {
      "channel": 0,
      "note": 45,
      "start": 66.2042,
      "duration": 0.0144,
      "velocity": 115,
      "chip": "ym2612"
    },
    {
      "channel": 4,
      "note": 81,
      "start": 66.2056,
      "duration": 0.0142,
      "velocity": 94,
      "chip": "ym2612"
    },
    {
      "channel": 3,
      "note": 81,
      "start": 66.2071,
      "duration": 0.014,
      "velocity": 94,
      "chip": "ym2612"
    },
    {
      "channel": 2,
      "note": 57,
      "start": 66.2085,
      "duration": 0.0138,
      "velocity": 100,
      "chip": "ym2612"
    },
    {
      "channel": 1,
      "note": 105,
      "start": 66.217,
      "duration": 0.016,
      "velocity": 105,
      "chip": "ym2612"
    },
    {
      "channel": 0,
      "note": 46,
      "start": 66.2186,
      "duration": 0.016,
      "velocity": 115,
      "chip": "ym2612"
    },
    {
      "channel": 4,
      "note": 81,
      "start": 66.2199,
      "duration": 0.016,
      "velocity": 94,
      "chip": "ym2612"
    },
    {
      "channel": 3,
      "note": 81,
      "start": 66.221,
      "duration": 0.016,
      "velocity": 94,
      "chip": "ym2612"
    },
    {
      "channel": 2,
      "note": 57,
      "start": 66.2222,
      "duration": 0.0159,
      "velocity": 100,
      "chip": "ym2612"
    },
    {
      "channel": 1,
      "note": 105,
      "start": 66.233,
      "duration": 0.0161,
      "velocity": 105,
      "chip": "ym2612"
    },
    {
      "channel": 0,
      "note": 46,
      "start": 66.2346,
      "duration": 0.0162,
      "velocity": 115,
      "chip": "ym2612"
    },
    {
      "channel": 4,
      "note": 81,
      "start": 66.2359,
      "duration": 0.0161,
      "velocity": 94,
      "chip": "ym2612"
    },
    {
      "channel": 3,
      "note": 81,
      "start": 66.237,
      "duration": 0.0161,
      "velocity": 94,
      "chip": "ym2612"
    },
    {
      "channel": 2,
      "note": 57,
      "start": 66.2381,
      "duration": 0.0161,
      "velocity": 100,
      "chip": "ym2612"
    },
    {
      "channel": 1,
      "note": 105,
      "start": 66.2491,
      "duration": 0.0162,
      "velocity": 105,
      "chip": "ym2612"
    },
    {
      "channel": 0,
      "note": 47,
      "start": 66.2508,
      "duration": 0.0161,
      "velocity": 115,
      "chip": "ym2612"
    },
    {
      "channel": 4,
      "note": 81,
      "start": 66.252,
      "duration": 0.0161,
      "velocity": 94,
      "chip": "ym2612"
    },
    {
      "channel": 3,
      "note": 81,
      "start": 66.2531,
      "duration": 0.0161,
      "velocity": 94,
      "chip": "ym2612"
    },
    {
      "channel": 2,
      "note": 57,
      "start": 66.2542,
      "duration": 0.0161,
      "velocity": 100,
      "chip": "ym2612"
    },
    {
      "channel": 1,
      "note": 105,
      "start": 66.2653,
      "duration": 0.0161,
      "velocity": 105,
      "chip": "ym2612"
    },
    {
      "channel": 0,
      "note": 47,
      "start": 66.2669,
      "duration": 0.0161,
      "velocity": 115,
      "chip": "ym2612"
    },
    {
      "channel": 4,
      "note": 81,
      "start": 66.268,
      "duration": 0.0161,
      "velocity": 94,
      "chip": "ym2612"
    },
    {
      "channel": 3,
      "note": 81,
      "start": 66.2692,
      "duration": 0.0161,
      "velocity": 94,
      "chip": "ym2612"
    },
    {
      "channel": 2,
      "note": 57,
      "start": 66.2703,
      "duration": 0.0161,
      "velocity": 100,
      "chip": "ym2612"
    },
    {
      "channel": 1,
      "note": 105,
      "start": 66.2813,
      "duration": 0.0161,
      "velocity": 105,
      "chip": "ym2612"
    },
    {
      "channel": 0,
      "note": 47,
      "start": 66.283,
      "duration": 0.0161,
      "velocity": 115,
      "chip": "ym2612"
    },
    {
      "channel": 4,
      "note": 81,
      "start": 66.2841,
      "duration": 0.0161,
      "velocity": 94,
      "chip": "ym2612"
    },
    {
      "channel": 3,
      "note": 81,
      "start": 66.2853,
      "duration": 0.0161,
      "velocity": 94,
      "chip": "ym2612"
    },
    {
      "channel": 2,
      "note": 57,
      "start": 66.2864,
      "duration": 0.0161,
      "velocity": 100,
      "chip": "ym2612"
    },
    {
      "channel": 1,
      "note": 105,
      "start": 66.2974,
      "duration": 0.0188,
      "velocity": 124,
      "chip": "ym2612"
    },
    {
      "channel": 0,
      "note": 48,
      "start": 66.2991,
      "duration": 0.0195,
      "velocity": 115,
      "chip": "ym2612"
    },
    {
      "channel": 4,
      "note": 81,
      "start": 66.3002,
      "duration": 0.0197,
      "velocity": 94,
      "chip": "ym2612"
    },
    {
      "channel": 3,
      "note": 81,
      "start": 66.3014,
      "duration": 0.0199,
      "velocity": 94,
      "chip": "ym2612"
    },
    {
      "channel": 2,
      "note": 57,
      "start": 66.3025,
      "duration": 0.0202,
      "velocity": 100,
      "chip": "ym2612"
    },
    {
      "channel": 1,
      "note": 78,
      "start": 66.3163,
      "duration": 0.0146,
      "velocity": 124,
      "chip": "ym2612"
    },
    {
      "channel": 0,
      "note": 48,
      "start": 66.3186,
      "duration": 0.0141,
      "velocity": 115,
      "chip": "ym2612"
    },
    {
      "channel": 4,
      "note": 81,
      "start": 66.32,
      "duration": 0.014,
      "velocity": 94,
      "chip": "ym2612"
    },
    {
      "channel": 3,
      "note": 81,
      "start": 66.3214,
      "duration": 0.0138,
      "velocity": 94,
      "chip": "ym2612"
    },
    {
      "channel": 2,
      "note": 57,
      "start": 66.3228,
      "duration": 0.0136,
      "velocity": 100,
      "chip": "ym2612"
    },
    {
      "channel": 1,
      "note": 76,
      "start": 66.3308,
      "duration": 0.0154,
      "velocity": 124,
      "chip": "ym2612"
    },
    {
      "channel": 0,
      "note": 49,
      "start": 66.3327,
      "duration": 0.0146,
      "velocity": 1,
      "chip": "ym2612"
    },
    {
      "channel": 4,
      "note": 81,
      "start": 66.3339,
      "duration": 0.0145,
      "velocity": 94,
      "chip": "ym2612"
    },
    {
      "channel": 3,
      "note": 81,
      "start": 66.3352,
      "duration": 0.0144,
      "velocity": 94,
      "chip": "ym2612"
    },
    {
      "channel": 2,
      "note": 57,
      "start": 66.3364,
      "duration": 0.0144,
      "velocity": 100,
      "chip": "ym2612"
    },
    {
      "channel": 1,
      "note": 75,
      "start": 66.3462,
      "duration": 0.0183,
      "velocity": 124,
      "chip": "ym2612"
    },
    {
      "channel": 4,
      "note": 81,
      "start": 66.3485,
      "duration": 0.0174,
      "velocity": 94,
      "chip": "ym2612"
    },
    {
      "channel": 3,
      "note": 81,
      "start": 66.3496,
      "duration": 0.0173,
      "velocity": 94,
      "chip": "ym2612"
    },
    {
      "channel": 2,
      "note": 57,
      "start": 66.3507,
      "duration": 0.0174,
      "velocity": 100,
      "chip": "ym2612"
    },
    {
      "channel": 1,
      "note": 74,
      "start": 66.3645,
      "duration": 0.0166,
      "velocity": 124,
      "chip": "ym2612"
    },
    {
      "channel": 4,
      "note": 81,
      "start": 66.3658,
      "duration": 0.0167,
      "velocity": 94,
      "chip": "ym2612"
    },
    {
      "channel": 3,
      "note": 81,
      "start": 66.367,
      "duration": 0.0167,
      "velocity": 94,
      "chip": "ym2612"
    },
    {
      "channel": 2,
      "note": 57,
      "start": 66.3681,
      "duration": 0.0167,
      "velocity": 100,
      "chip": "ym2612"
    },
    {
      "channel": 1,
      "note": 72,
      "start": 66.3811,
      "duration": 0.0159,
      "velocity": 124,
      "chip": "ym2612"
    },
    {
      "channel": 4,
      "note": 81,
      "start": 66.3825,
      "duration": 0.0158,
      "velocity": 94,
      "chip": "ym2612"
    },
    {
      "channel": 3,
      "note": 81,
      "start": 66.3836,
      "duration": 0.0159,
      "velocity": 94,
      "chip": "ym2612"
    },
    {
      "channel": 2,
      "note": 57,
      "start": 66.3848,
      "duration": 0.0158,
      "velocity": 100,
      "chip": "ym2612"
    },
    {
      "channel": 1,
      "note": 71,
      "start": 66.3969,
      "duration": 0.0141,
      "velocity": 124,
      "chip": "ym2612"
    },
    {
      "channel": 4,
      "note": 81,
      "start": 66.3983,
      "duration": 0.014,
      "velocity": 94,
      "chip": "ym2612"
    },
    {
      "channel": 3,
      "note": 81,
      "start": 66.3995,
      "duration": 0.014,
      "velocity": 94,
      "chip": "ym2612"
    },
    {
      "channel": 2,
      "note": 57,
      "start": 66.4006,
      "duration": 0.014,
      "velocity": 100,
      "chip": "ym2612"
    },
    {
      "channel": 1,
      "note": 70,
      "start": 66.411,
      "duration": 0.0185,
      "velocity": 124,
      "chip": "ym2612"
    },
    {
      "channel": 4,
      "note": 81,
      "start": 66.4123,
      "duration": 0.0193,
      "velocity": 94,
      "chip": "ym2612"
    },
    {
      "channel": 3,
      "note": 81,
      "start": 66.4135,
      "duration": 0.0195,
      "velocity": 94,
      "chip": "ym2612"
    },
    {
      "channel": 2,
      "note": 57,
      "start": 66.4146,
      "duration": 0.0197,
      "velocity": 100,
      "chip": "ym2612"
    },
    {
      "channel": 1,
      "note": 69,
      "start": 66.4295,
      "duration": 0.0134,
      "velocity": 124,
      "chip": "ym2612"
    },
    {
      "channel": 4,
      "note": 76,
      "start": 66.4317,
      "duration": 0.0154,
      "velocity": 94,
      "chip": "ym2612"
    },
    {
      "channel": 3,
      "note": 81,
      "start": 66.4329,
      "duration": 0.0153,
      "velocity": 94,
      "chip": "ym2612"
    },
    {
      "channel": 2,
      "note": 57,
      "start": 66.4343,
      "duration": 0.0151,
      "velocity": 100,
      "chip": "ym2612"
    },
    {
      "channel": 1,
      "note": 68,
      "start": 66.4429,
      "duration": 0.0161,
      "velocity": 124,
      "chip": "ym2612"
    },
    {
      "channel": 4,
      "note": 76,
      "start": 66.4471,
      "duration": 0.0156,
      "velocity": 94,
      "chip": "ym2612"
    },
    {
      "channel": 3,
      "note": 81,
      "start": 66.4483,
      "duration": 0.0156,
      "velocity": 94,
      "chip": "ym2612"
    },
    {
      "channel": 2,
      "note": 57,
      "start": 66.4495,
      "duration": 0.0155,
      "velocity": 100,
      "chip": "ym2612"
    },
    {
      "channel": 1,
      "note": 66,
      "start": 66.459,
      "duration": 0.0161,
      "velocity": 124,
      "chip": "ym2612"
    },
    {
      "channel": 4,
      "note": 76,
      "start": 66.4627,
      "duration": 0.0137,
      "velocity": 94,
      "chip": "ym2612"
    },
    {
      "channel": 3,
      "note": 81,
      "start": 66.4639,
      "duration": 0.014,
      "velocity": 94,
      "chip": "ym2612"
    },
    {
      "channel": 2,
      "note": 57,
      "start": 66.465,
      "duration": 0.014,
      "velocity": 100,
      "chip": "ym2612"
    },
    {
      "channel": 1,
      "note": 65,
      "start": 66.4751,
      "duration": 0.0161,
      "velocity": 124,
      "chip": "ym2612"
    },
    {
      "channel": 4,
      "note": 76,
      "start": 66.4764,
      "duration": 0.0161,
      "velocity": 94,
      "chip": "ym2612"
    },
    {
      "channel": 3,
      "note": 81,
      "start": 66.4778,
      "duration": 0.0186,
      "velocity": 94,
      "chip": "ym2612"
    },
    {
      "channel": 2,
      "note": 57,
      "start": 66.479,
      "duration": 0.0186,
      "velocity": 100,
      "chip": "ym2612"
    },
    {
      "channel": 1,
      "note": 64,
      "start": 66.4911,
      "duration": 0.0161,
      "velocity": 124,
      "chip": "ym2612"
    },
    {
      "channel": 4,
      "note": 76,
      "start": 66.4925,
      "duration": 0.0161,
      "velocity": 94,
      "chip": "ym2612"
    },
    {
      "channel": 3,
      "note": 81,
      "start": 66.4964,
      "duration": 0.0134,
      "velocity": 94,
      "chip": "ym2612"
    },
    {
      "channel": 2,
      "note": 57,
      "start": 66.4976,
      "duration": 0.0161,
      "velocity": 100,
      "chip": "ym2612"
    },
    {
      "channel": 1,
      "note": 62,
      "start": 66.5072,
      "duration": 0.0161,
      "velocity": 124,
      "chip": "ym2612"
    },
    {
      "channel": 4,
      "note": 76,
      "start": 66.5086,
      "duration": 0.0161,
      "velocity": 94,
      "chip": "ym2612"
    },
    {
      "channel": 3,
      "note": 81,
      "start": 66.5098,
      "duration": 0.0161,
      "velocity": 94,
      "chip": "ym2612"
    },
    {
      "channel": 2,
      "note": 57,
      "start": 66.5137,
      "duration": 0.0157,
      "velocity": 100,
      "chip": "ym2612"
    },
    {
      "channel": 1,
      "note": 61,
      "start": 66.5233,
      "duration": 0.0161,
      "velocity": 124,
      "chip": "ym2612"
    },
    {
      "channel": 4,
      "note": 76,
      "start": 66.5247,
      "duration": 0.0167,
      "velocity": 94,
      "chip": "ym2612"
    },
    {
      "channel": 3,
      "note": 81,
      "start": 66.5259,
      "duration": 0.017,
      "velocity": 94,
      "chip": "ym2612"
    },
    {
      "channel": 2,
      "note": 57,
      "start": 66.5294,
      "duration": 0.0153,
      "velocity": 100,
      "chip": "ym2612"
    },
    {
      "channel": 1,
      "note": 60,
      "start": 66.5394,
      "duration": 0.0161,
      "velocity": 124,
      "chip": "ym2612"
    },
    {
      "channel": 4,
      "note": 76,
      "start": 66.5415,
      "duration": 0.0156,
      "velocity": 94,
      "chip": "ym2612"
    },
    {
      "channel": 3,
      "note": 76,
      "start": 66.5429,
      "duration": 0.0153,
      "velocity": 94,
      "chip": "ym2612"
    },
    {
      "channel": 2,
      "note": 50,
      "start": 66.5446,
      "duration": 0.0148,
      "velocity": 100,
      "chip": "ym2612"
    },
    {
      "channel": 1,
      "note": 59,
      "start": 66.5555,
      "duration": 0.0161,
      "velocity": 124,
      "chip": "ym2612"
    },
    {
      "channel": 4,
      "note": 76,
      "start": 66.5571,
      "duration": 0.016,
      "velocity": 94,
      "chip": "ym2612"
    },
    {
      "channel": 3,
      "note": 76,
      "start": 66.5583,
      "duration": 0.0159,
      "velocity": 94,
      "chip": "ym2612"
    },
    {
      "channel": 2,
      "note": 50,
      "start": 66.5594,
      "duration": 0.0159,
      "velocity": 100,
      "chip": "ym2612"
    },
    {
      "channel": 1,
      "note": 57,
      "start": 66.5716,
      "duration": 0.0162,
      "velocity": 124,
      "chip": "ym2612"
    },
    {
      "channel": 4,
      "note": 76,
      "start": 66.573,
      "duration": 0.0161,
      "velocity": 94,
      "chip": "ym2612"
    },
    {
      "channel": 3,
      "note": 76,
      "start": 66.5741,
      "duration": 0.0161,
      "velocity": 94,
      "chip": "ym2612"
    },
    {
      "channel": 2,
      "note": 50,
      "start": 66.5753,
      "duration": 0.0161,
      "velocity": 100,
      "chip": "ym2612"
    },
    {
      "channel": 1,
      "note": 56,
      "start": 66.5878,
      "duration": 0.0161,
      "velocity": 124,
      "chip": "ym2612"
    },
    {
      "channel": 4,
      "note": 76,
      "start": 66.5891,
      "duration": 0.0161,
      "velocity": 94,
      "chip": "ym2612"
    },
    {
      "channel": 3,
      "note": 76,
      "start": 66.5902,
      "duration": 0.0161,
      "velocity": 94,
      "chip": "ym2612"
    },
    {
      "channel": 2,
      "note": 50,
      "start": 66.5914,
      "duration": 0.0161,
      "velocity": 100,
      "chip": "ym2612"
    },
    {
      "channel": 1,
      "note": 55,
      "start": 66.6039,
      "duration": 0.0161,
      "velocity": 124,
      "chip": "ym2612"
    },
    {
      "channel": 4,
      "note": 76,
      "start": 66.6052,
      "duration": 0.0162,
      "velocity": 94,
      "chip": "ym2612"
    },
    {
      "channel": 3,
      "note": 76,
      "start": 66.6063,
      "duration": 0.0161,
      "velocity": 94,
      "chip": "ym2612"
    },
    {
      "channel": 2,
      "note": 50,
      "start": 66.6075,
      "duration": 0.0162,
      "velocity": 100,
      "chip": "ym2612"
    },
    {
      "channel": 1,
      "note": 53,
      "start": 66.62,
      "duration": 0.0161,
      "velocity": 124,
      "chip": "ym2612"
    },
    {
      "channel": 4,
      "note": 76,
      "start": 66.6214,
      "duration": 0.0161,
      "velocity": 94,
      "chip": "ym2612"
    },
    {
      "channel": 3,
      "note": 76,
      "start": 66.6225,
      "duration": 0.0161,
      "velocity": 94,
      "chip": "ym2612"
    },
    {
      "channel": 2,
      "note": 50,
      "start": 66.6237,
      "duration": 0.0161,
      "velocity": 100,
      "chip": "ym2612"
    },
    {
      "channel": 1,
      "note": 52,
      "start": 66.6361,
      "duration": 0.0161,
      "velocity": 124,
      "chip": "ym2612"
    },
    {
      "channel": 4,
      "note": 76,
      "start": 66.6375,
      "duration": 0.0203,
      "velocity": 94,
      "chip": "ym2612"
    },
    {
      "channel": 3,
      "note": 76,
      "start": 66.6386,
      "duration": 0.0205,
      "velocity": 94,
      "chip": "ym2612"
    },
    {
      "channel": 2,
      "note": 50,
      "start": 66.6398,
      "duration": 0.0231,
      "velocity": 100,
      "chip": "ym2612"
    },
    {
      "channel": 1,
      "note": 51,
      "start": 66.6522,
      "duration": 0.0153,
      "velocity": 1,
      "chip": "ym2612"
    },
    {
      "channel": 0,
      "note": 78,
      "start": 66.6564,
      "duration": 0.0149,
      "velocity": 127,
      "chip": "ym2612"
    },
    {
      "channel": 4,
      "note": 76,
      "start": 66.6578,
      "duration": 0.0148,
      "velocity": 94,
      "chip": "ym2612"
    },
    {
      "channel": 3,
      "note": 76,
      "start": 66.6591,
      "duration": 0.0147,
      "velocity": 94,
      "chip": "ym2612"
    },
    {
      "channel": 2,
      "note": 50,
      "start": 66.6629,
      "duration": 0.012,
      "velocity": 100,
      "chip": "ym2612"
    },
    {
      "channel": 1,
      "note": 51,
      "start": 66.6696,
      "duration": 0.0142,
      "velocity": 105,
      "chip": "ym2612"
    },
    {
      "channel": 0,
      "note": 76,
      "start": 66.6714,
      "duration": 0.0141,
      "velocity": 127,
      "chip": "ym2612"
    },
    {
      "channel": 4,
      "note": 76,
      "start": 66.6726,
      "duration": 0.0141,
      "velocity": 94,
      "chip": "ym2612"
    },
    {
      "channel": 3,
      "note": 76,
      "start": 66.6738,
      "duration": 0.0141,
      "velocity": 94,
      "chip": "ym2612"
    },
    {
      "channel": 2,
      "note": 50,
      "start": 66.6749,
      "duration": 0.014,
      "velocity": 100,
      "chip": "ym2612"
    },
    {
      "channel": 1,
      "note": 105,
      "start": 66.6838,
      "duration": 0.0161,
      "velocity": 105,
      "chip": "ym2612"
    },
    {
      "channel": 0,
      "note": 75,
      "start": 66.6855,
      "duration": 0.0161,
      "velocity": 127,
      "chip": "ym2612"
    },
    {
      "channel": 4,
      "note": 76,
      "start": 66.6867,
      "duration": 0.0161,
      "velocity": 94,
      "chip": "ym2612"
    },
    {
      "channel": 3,
      "note": 76,
      "start": 66.6878,
      "duration": 0.0161,
      "velocity": 94,
      "chip": "ym2612"
    },
    {
      "channel": 2,
      "note": 50,
      "start": 66.6889,
      "duration": 0.0162,
      "velocity": 100,
      "chip": "ym2612"
    },
    {
      "channel": 1,
      "note": 105,
      "start": 66.6999,
      "duration": 0.0161,
      "velocity": 105,
      "chip": "ym2612"
    },
    {
      "channel": 0,
      "note": 73,
      "start": 66.7016,
      "duration": 0.0161,
      "velocity": 127,
      "chip": "ym2612"
    },
    {
      "channel": 4,
      "note": 76,
      "start": 66.7028,
      "duration": 0.0161,
      "velocity": 94,
      "chip": "ym2612"
    },
    {
      "channel": 3,
      "note": 76,
      "start": 66.7039,
      "duration": 0.0161,
      "velocity": 94,
      "chip": "ym2612"
    },
    {
      "channel": 2,
      "note": 50,
      "start": 66.7051,
      "duration": 0.0161,
      "velocity": 100,
      "chip": "ym2612"
    },
    {
      "channel": 1,
      "note": 105,
      "start": 66.7161,
      "duration": 0.0161,
      "velocity": 105,
      "chip": "ym2612"
    },
    {
      "channel": 0,
      "note": 71,
      "start": 66.7177,
      "duration": 0.0161,
      "velocity": 127,
      "chip": "ym2612"
    },
    {
      "channel": 4,
      "note": 76,
      "start": 66.7189,
      "duration": 0.0161,
      "velocity": 94,
      "chip": "ym2612"
    },
    {
      "channel": 3,
      "note": 76,
      "start": 66.72,
      "duration": 0.0161,
      "velocity": 94,
      "chip": "ym2612"
    },
    {
      "channel": 2,
      "note": 50,
      "start": 66.7212,
      "duration": 0.0161,
      "velocity": 100,
      "chip": "ym2612"
    },
    {
      "channel": 1,
      "note": 105,
      "start": 66.7322,
      "duration": 0.0161,
      "velocity": 105,
      "chip": "ym2612"
    },
    {
      "channel": 0,
      "note": 70,
      "start": 66.7338,
      "duration": 0.0161,
      "velocity": 127,
      "chip": "ym2612"
    },
    {
      "channel": 4,
      "note": 76,
      "start": 66.735,
      "duration": 0.0161,
      "velocity": 94,
      "chip": "ym2612"
    },
    {
      "channel": 3,
      "note": 76,
      "start": 66.7361,
      "duration": 0.0161,
      "velocity": 94,
      "chip": "ym2612"
    },
    {
      "channel": 2,
      "note": 50,
      "start": 66.7373,
      "duration": 0.0161,
      "velocity": 100,
      "chip": "ym2612"
    },
    {
      "channel": 1,
      "note": 105,
      "start": 66.7483,
      "duration": 0.0178,
      "velocity": 124,
      "chip": "ym2612"
    },
    {
      "channel": 0,
      "note": 68,
      "start": 66.7499,
      "duration": 0.0196,
      "velocity": 115,
      "chip": "ym2612"
    },
    {
      "channel": 4,
      "note": 76,
      "start": 66.7511,
      "duration": 0.0198,
      "velocity": 94,
      "chip": "ym2612"
    },
    {
      "channel": 3,
      "note": 76,
      "start": 66.7522,
      "duration": 0.02,
      "velocity": 94,
      "chip": "ym2612"
    },
    {
      "channel": 2,
      "note": 50,
      "start": 66.7534,
      "duration": 0.0203,
      "velocity": 100,
      "chip": "ym2612"
    },
    {
      "channel": 1,
      "note": 64,
      "start": 66.7661,
      "duration": 0.0148,
      "velocity": 124,
      "chip": "ym2612"
    },
    {
      "channel": 0,
      "note": 36,
      "start": 66.7696,
      "duration": 0.0131,
      "velocity": 115,
      "chip": "ym2612"
    },
    {
      "channel": 4,
      "note": 76,
      "start": 66.7709,
      "duration": 0.0129,
      "velocity": 94,
      "chip": "ym2612"
    },
    {
      "channel": 3,
      "note": 76,
      "start": 66.7723,
      "duration": 0.0127,
      "velocity": 94,
      "chip": "ym2612"
    },
    {
      "channel": 2,
      "note": 52,
      "start": 66.7737,
      "duration": 0.0125,
      "velocity": 100,
      "chip": "ym2612"
    },
    {
      "channel": 1,
      "note": 64,
      "start": 66.7809,
      "duration": 0.016,
      "velocity": 124,
      "chip": "ym2612"
    },
    {
      "channel": 0,
      "note": 36,
      "start": 66.7826,
      "duration": 0.016,
      "velocity": 115,
      "chip": "ym2612"
    },
    {
      "channel": 4,
      "note": 76,
      "start": 66.7838,
      "duration": 0.016,
      "velocity": 94,
      "chip": "ym2612"
    },
    {
      "channel": 3,
      "note": 76,
      "start": 66.785,
      "duration": 0.0159,
      "velocity": 94,
      "chip": "ym2612"
    },
    {
      "channel": 2,
      "note": 52,
      "start": 66.7862,
      "duration": 0.0158,
      "velocity": 100,
      "chip": "ym2612"
    },
    {
      "channel": 1,
      "note": 64,
      "start": 66.7969,
      "duration": 0.0157,
      "velocity": 124,
      "chip": "ym2612"
    },
    {
      "channel": 0,
      "note": 37,
      "start": 66.7986,
      "duration": 0.0158,
      "velocity": 115,
      "chip": "ym2612"
    },
    {
      "channel": 4,
      "note": 76,
      "start": 66.7998,
      "duration": 0.0157,
      "velocity": 94,
      "chip": "ym2612"
    },
    {
      "channel": 3,
      "note": 76,
      "start": 66.8009,
      "duration": 0.0157,
      "velocity": 94,
      "chip": "ym2612"
    },
    {
      "channel": 2,
      "note": 52,
      "start": 66.802,
      "duration": 0.0158,
      "velocity": 100,
      "chip": "ym2612"
    },
    {
      "channel": 1,
      "note": 64,
      "start": 66.8127,
      "duration": 0.018,
      "velocity": 124,
      "chip": "ym2612"
    },
    {
      "channel": 0,
      "note": 37,
      "start": 66.8144,
      "duration": 0.018,
      "velocity": 115,
      "chip": "ym2612"
    },
    {
      "channel": 4,
      "note": 76,
      "start": 66.8155,
      "duration": 0.0179,
      "velocity": 94,
      "chip": "ym2612"
    },
    {
      "channel": 3,
      "note": 76,
      "start": 66.8166,
      "duration": 0.018,
      "velocity": 94,
      "chip": "ym2612"
    },
    {
      "channel": 2,
      "note": 52,
      "start": 66.8178,
      "duration": 0.0179,
      "velocity": 100,
      "chip": "ym2612"
    },
    {
      "channel": 1,
      "note": 64,
      "start": 66.8307,
      "duration": 0.0167,
      "velocity": 124,
      "chip": "ym2612"
    },
    {
      "channel": 0,
      "note": 38,
      "start": 66.8323,
      "duration": 0.0167,
      "velocity": 115,
      "chip": "ym2612"
    },
    {
      "channel": 4,
      "note": 76,
      "start": 66.8334,
      "duration": 0.0167,
      "velocity": 94,
      "chip": "ym2612"
    },
    {
      "channel": 3,
      "note": 76,
      "start": 66.8346,
      "duration": 0.0167,
      "velocity": 94,
      "chip": "ym2612"
    },
    {
      "channel": 2,
      "note": 52,
      "start": 66.8357,
      "duration": 0.0167,
      "velocity": 100,
      "chip": "ym2612"
    },
    {
      "channel": 1,
      "note": 64,
      "start": 66.8473,
      "duration": 0.016,
      "velocity": 124,
      "chip": "ym2612"
    },
    {
      "channel": 0,
      "note": 38,
      "start": 66.849,
      "duration": 0.016,
      "velocity": 115,
      "chip": "ym2612"
    },
    {
      "channel": 4,
      "note": 76,
      "start": 66.8501,
      "duration": 0.0161,
      "velocity": 94,
      "chip": "ym2612"
    },
    {
      "channel": 3,
      "note": 76,
      "start": 66.8513,
      "duration": 0.0161,
      "velocity": 94,
      "chip": "ym2612"
    },
    {
      "channel": 2,
      "note": 52,
      "start": 66.8524,
      "duration": 0.016,
      "velocity": 100,
      "chip": "ym2612"
    },
    {
      "channel": 1,
      "note": 64,
      "start": 66.8634,
      "duration": 0.0157,
      "velocity": 105,
      "chip": "ym2612"
    },
    {
      "channel": 0,
      "note": 39,
      "start": 66.865,
      "duration": 0.0158,
      "velocity": 115,
      "chip": "ym2612"
    },
    {
      "channel": 4,
      "note": 76,
      "start": 66.8662,
      "duration": 0.016,
      "velocity": 94,
      "chip": "ym2612"
    },
    {
      "channel": 3,
      "note": 76,
      "start": 66.8673,
      "duration": 0.0161,
      "velocity": 94,
      "chip": "ym2612"
    },
    {
      "channel": 2,
      "note": 52,
      "start": 66.8684,
      "duration": 0.0164,
      "velocity": 100,
      "chip": "ym2612"
    },
    {
      "channel": 1,
      "note": 105,
      "start": 66.8791,
      "duration": 0.0169,
      "velocity": 105,
      "chip": "ym2612"
    },
    {
      "channel": 0,
      "note": 39,
      "start": 66.8808,
      "duration": 0.0169,
      "velocity": 115,
      "chip": "ym2612"
    },
    {
      "channel": 4,
      "note": 81,
      "start": 66.8822,
      "duration": 0.0167,
      "velocity": 94,
      "chip": "ym2612"
    },
    {
      "channel": 3,
      "note": 76,
      "start": 66.8834,
      "duration": 0.0166,
      "velocity": 94,
      "chip": "ym2612"
    },
    {
      "channel": 2,
      "note": 52,
      "start": 66.8849,
      "duration": 0.0163,
      "velocity": 100,
      "chip": "ym2612"
    },
    {
      "channel": 1,
      "note": 105,
      "start": 66.896,
      "duration": 0.0133,
      "velocity": 105,
      "chip": "ym2612"
    },
    {
      "channel": 0,
      "note": 40,
      "start": 66.8976,
      "duration": 0.016,
      "velocity": 115,
      "chip": "ym2612"
    },
    {
      "channel": 4,
      "note": 81,
      "start": 66.8988,
      "duration": 0.016,
      "velocity": 94,
      "chip": "ym2612"
    },
    {
      "channel": 3,
      "note": 76,
      "start": 66.9,
      "duration": 0.016,
      "velocity": 94,
      "chip": "ym2612"
    },
    {
      "channel": 2,
      "note": 52,
      "start": 66.9013,
      "duration": 0.0158,
      "velocity": 100,
      "chip": "ym2612"
    },
    {
      "channel": 1,
      "note": 105,
      "start": 66.9093,
      "duration": 0.0161,
      "velocity": 105,
      "chip": "ym2612"
    },
    {
      "channel": 0,
      "note": 40,
      "start": 66.9137,
      "duration": 0.0158,
      "velocity": 115,
      "chip": "ym2612"
    },
    {
      "channel": 4,
      "note": 81,
      "start": 66.9149,
      "duration": 0.0157,
      "velocity": 94,
      "chip": "ym2612"
    },
    {
      "channel": 3,
      "note": 76,
      "start": 66.916,
      "duration": 0.0157,
      "velocity": 94,
      "chip": "ym2612"
    },
    {
      "channel": 2,
      "note": 52,
      "start": 66.9171,
      "duration": 0.0158,
      "velocity": 100,
      "chip": "ym2612"
    },
    {
      "channel": 1,
      "note": 105,
      "start": 66.9254,
      "duration": 0.0161,
      "velocity": 105,
      "chip": "ym2612"
    },
    {
      "channel": 0,
      "note": 40,
      "start": 66.9294,
      "duration": 0.0138,
      "velocity": 115,
      "chip": "ym2612"
    },
    {
      "channel": 4,
      "note": 81,
      "start": 66.9306,
      "duration": 0.0141,
      "velocity": 94,
      "chip": "ym2612"
    },
    {
      "channel": 3,
      "note": 76,
      "start": 66.9317,
      "duration": 0.0141,
      "velocity": 94,
      "chip": "ym2612"
    },
    {
      "channel": 2,
      "note": 52,
      "start": 66.9329,
      "duration": 0.0141,
      "velocity": 100,
      "chip": "ym2612"
    },
    {
      "channel": 1,
      "note": 105,
      "start": 66.9415,
      "duration": 0.0161,
      "velocity": 105,
      "chip": "ym2612"
    },
    {
      "channel": 0,
      "note": 41,
      "start": 66.9432,
      "duration": 0.016,
      "velocity": 115,
      "chip": "ym2612"
    },
    {
      "channel": 4,
      "note": 81,
      "start": 66.9446,
      "duration": 0.0185,
      "velocity": 94,
      "chip": "ym2612"
    },
    {
      "channel": 3,
      "note": 76,
      "start": 66.9458,
      "duration": 0.0185,
      "velocity": 94,
      "chip": "ym2612"
    },
    {
      "channel": 2,
      "note": 52,
      "start": 66.9469,
      "duration": 0.0185,
      "velocity": 100,
      "chip": "ym2612"
    },
    {
      "channel": 1,
      "note": 105,
      "start": 66.9576,
      "duration": 0.0161,
      "velocity": 105,
      "chip": "ym2612"
    },
    {
      "channel": 0,
      "note": 41,
      "start": 66.9592,
      "duration": 0.0161,
      "velocity": 115,
      "chip": "ym2612"
    },
    {
      "channel": 4,
      "note": 81,
      "start": 66.9632,
      "duration": 0.0161,
      "velocity": 94,
      "chip": "ym2612"
    },
    {
      "channel": 3,
      "note": 76,
      "start": 66.9643,
      "duration": 0.0161,
      "velocity": 94,
      "chip": "ym2612"
    },
    {
      "channel": 2,
      "note": 52,
      "start": 66.9654,
      "duration": 0.0161,
      "velocity": 100,
      "chip": "ym2612"
    },
    {
      "channel": 1,
      "note": 105,
      "start": 66.9737,
      "duration": 0.0178,
      "velocity": 124,
      "chip": "ym2612"
    },
    {
      "channel": 0,
      "note": 42,
      "start": 66.9753,
      "duration": 0.0202,
      "velocity": 115,
      "chip": "ym2612"
    },
    {
      "channel": 4,
      "note": 81,
      "start": 66.9793,
      "duration": 0.0176,
      "velocity": 94,
      "chip": "ym2612"
    },
    {
      "channel": 3,
      "note": 76,
      "start": 66.9804,
      "duration": 0.0179,
      "velocity": 94,
      "chip": "ym2612"
    },
    {
      "channel": 2,
      "note": 52,
      "start": 66.9815,
      "duration": 0.0181,
      "velocity": 100,
      "chip": "ym2612"
    },
    {
      "channel": 1,
      "note": 64,
      "start": 66.9915,
      "duration": 0.0144,
      "velocity": 124,
      "chip": "ym2612"
    },
    {
      "channel": 0,
      "note": 42,
      "start": 66.9955,
      "duration": 0.0121,
      "velocity": 115,
      "chip": "ym2612"
    },
    {
      "channel": 4,
      "note": 81,
      "start": 66.9969,
      "duration": 0.012,
      "velocity": 94,
      "chip": "ym2612"
    },
    {
      "channel": 3,
      "note": 81,
      "start": 66.9983,
      "duration": 0.0121,
      "velocity": 94,
      "chip": "ym2612"
    },
    {
      "channel": 2,
      "note": 52,
      "start": 66.9997,
      "duration": 0.0118,
      "velocity": 100,
      "chip": "ym2612"
    },
    {
      "channel": 1,
      "note": 64,
      "start": 67.006,
      "duration": 0.016,
      "velocity": 124,
      "chip": "ym2612"
    },
    {
      "channel": 0,
      "note": 43,
      "start": 67.0076,
      "duration": 0.016,
      "velocity": 115,
      "chip": "ym2612"
    },
    {
      "channel": 4,
      "note": 81,
      "start": 67.0088,
      "duration": 0.016,
      "velocity": 94,
      "chip": "ym2612"
    },
    {
      "channel": 3,
      "note": 81,
      "start": 67.0104,
      "duration": 0.0156,
      "velocity": 94,
      "chip": "ym2612"
    },
    {
      "channel": 2,
      "note": 52,
      "start": 67.0116,
      "duration": 0.0183,
      "velocity": 100,
      "chip": "ym2612"
    },
    {
      "channel": 1,
      "note": 64,
      "start": 67.022,
      "duration": 0.0161,
      "velocity": 124,
      "chip": "ym2612"
    },
    {
      "channel": 0,
      "note": 43,
      "start": 67.0237,
      "duration": 0.0161,
      "velocity": 115,
      "chip": "ym2612"
    },
    {
      "channel": 4,
      "note": 81,
      "start": 67.0248,
      "duration": 0.0162,
      "velocity": 94,
      "chip": "ym2612"
    },
    {
      "channel": 3,
      "note": 81,
      "start": 67.0259,
      "duration": 0.0162,
      "velocity": 94,
      "chip": "ym2612"
    },
    {
      "channel": 2,
      "note": 52,
      "start": 67.0298,
      "duration": 0.0162,
      "velocity": 100,
      "chip": "ym2612"
    },
    {
      "channel": 1,
      "note": 64,
      "start": 67.0381,
      "duration": 0.0161,
      "velocity": 124,
      "chip": "ym2612"
    },
    {
      "channel": 0,
      "note": 44,
      "start": 67.0398,
      "duration": 0.0161,
      "velocity": 115,
      "chip": "ym2612"
    },
    {
      "channel": 4,
      "note": 81,
      "start": 67.041,
      "duration": 0.0161,
      "velocity": 94,
      "chip": "ym2612"
    },
    {
      "channel": 3,
      "note": 81,
      "start": 67.0421,
      "duration": 0.0161,
      "velocity": 94,
      "chip": "ym2612"
    },
    {
      "channel": 2,
      "note": 52,
      "start": 67.046,
      "duration": 0.0133,
      "velocity": 100,
      "chip": "ym2612"
    },
    {
      "channel": 1,
      "note": 64,
      "start": 67.0542,
      "duration": 0.0161,
      "velocity": 124,
      "chip": "ym2612"
    },
    {
      "channel": 0,
      "note": 44,
      "start": 67.0558,
      "duration": 0.0161,
      "velocity": 115,
      "chip": "ym2612"
    },
    {
      "channel": 4,
      "note": 81,
      "start": 67.0571,
      "duration": 0.0161,
      "velocity": 94,
      "chip": "ym2612"
    },
    {
      "channel": 3,
      "note": 81,
      "start": 67.0582,
      "duration": 0.0161,
      "velocity": 94,
      "chip": "ym2612"
    },
    {
      "channel": 2,
      "note": 52,
      "start": 67.0593,
      "duration": 0.0161,
      "velocity": 100,
      "chip": "ym2612"
    },
    {
      "channel": 1,
      "note": 64,
      "start": 67.0703,
      "duration": 0.0161,
      "velocity": 124,
      "chip": "ym2612"
    },
    {
      "channel": 0,
      "note": 44,
      "start": 67.0719,
      "duration": 0.0161,
      "velocity": 115,
      "chip": "ym2612"
    },
    {
      "channel": 4,
      "note": 81,
      "start": 67.0732,
      "duration": 0.0161,
      "velocity": 94,
      "chip": "ym2612"
    },
    {
      "channel": 3,
      "note": 81,
      "start": 67.0743,
      "duration": 0.0161,
      "velocity": 94,
      "chip": "ym2612"
    },
    {
      "channel": 2,
      "note": 52,
      "start": 67.0754,
      "duration": 0.0161,
      "velocity": 100,
      "chip": "ym2612"
    },
    {
      "channel": 1,
      "note": 64,
      "start": 67.0864,
      "duration": 0.0178,
      "velocity": 105,
      "chip": "ym2612"
    },
    {
      "channel": 0,
      "note": 45,
      "start": 67.088,
      "duration": 0.0179,
      "velocity": 115,
      "chip": "ym2612"
    },
    {
      "channel": 4,
      "note": 81,
      "start": 67.0892,
      "duration": 0.018,
      "velocity": 94,
      "chip": "ym2612"
    },
    {
      "channel": 3,
      "note": 81,
      "start": 67.0904,
      "duration": 0.0182,
      "velocity": 94,
      "chip": "ym2612"
    },
    {
      "channel": 2,
      "note": 52,
      "start": 67.0915,
      "duration": 0.0212,
      "velocity": 100,
      "chip": "ym2612"
    },
    {
      "channel": 1,
      "note": 105,
      "start": 67.1042,
      "duration": 0.0144,
      "velocity": 105,
      "chip": "ym2612"
    },
    {
      "channel": 0,
      "note": 45,
      "start": 67.1059,
      "duration": 0.0144,
      "velocity": 115,
      "chip": "ym2612"
    },
    {
      "channel": 4,
      "note": 81,
      "start": 67.1073,
      "duration": 0.0142,
      "velocity": 94,
      "chip": "ym2612"
    },
    {
      "channel": 3,
      "note": 81,
      "start": 67.1086,
      "duration": 0.0141,
      "velocity": 94,
      "chip": "ym2612"
    },
    {
      "channel": 2,
      "note": 52,
      "start": 67.1128,
      "duration": 0.0111,
      "velocity": 100,
      "chip": "ym2612"
    },
    {
      "channel": 1,
      "note": 105,
      "start": 67.1186,
      "duration": 0.0161,
      "velocity": 105,
      "chip": "ym2612"
    },
    {
      "channel": 0,
      "note": 46,
      "start": 67.1203,
      "duration": 0.0161,
      "velocity": 115,
      "chip": "ym2612"
    },
    {
      "channel": 4,
      "note": 81,
      "start": 67.1215,
      "duration": 0.016,
      "velocity": 94,
      "chip": "ym2612"
    },
    {
      "channel": 3,
      "note": 81,
      "start": 67.1227,
      "duration": 0.016,
      "velocity": 94,
      "chip": "ym2612"
    },
    {
      "channel": 2,
      "note": 52,
      "start": 67.1239,
      "duration": 0.0159,
      "velocity": 100,
      "chip": "ym2612"
    },
    {
      "channel": 1,
      "note": 105,
      "start": 67.1347,
      "duration": 0.0161,
      "velocity": 105,
      "chip": "ym2612"
    },
    {
      "channel": 0,
      "note": 46,
      "start": 67.1364,
      "duration": 0.0161,
      "velocity": 115,
      "chip": "ym2612"
    },
    {
      "channel": 4,
      "note": 81,
      "start": 67.1375,
      "duration": 0.0161,
      "velocity": 94,
      "chip": "ym2612"
    },
    {
      "channel": 3,
      "note": 81,
      "start": 67.1387,
      "duration": 0.0161,
      "velocity": 94,
      "chip": "ym2612"
    },
    {
      "channel": 2,
      "note": 52,
      "start": 67.1398,
      "duration": 0.0161,
      "velocity": 100,
      "chip": "ym2612"
    },
    {
      "channel": 1,
      "note": 105,
      "start": 67.1508,
      "duration": 0.0161,
      "velocity": 105,
      "chip": "ym2612"
    },
    {
      "channel": 0,
      "note": 47,
      "start": 67.1525,
      "duration": 0.0161,
      "velocity": 115,
      "chip": "ym2612"
    },
    {
      "channel": 4,
      "note": 81,
      "start": 67.1536,
      "duration": 0.0161,
      "velocity": 94,
      "chip": "ym2612"
    },
    {
      "channel": 3,
      "note": 81,
      "start": 67.1548,
      "duration": 0.0161,
      "velocity": 94,
      "chip": "ym2612"
    },
    {
      "channel": 2,
      "note": 52,
      "start": 67.1559,
      "duration": 0.0161,
      "velocity": 100,
      "chip": "ym2612"
    },
    {
      "channel": 1,
      "note": 105,
      "start": 67.1669,
      "duration": 0.0161,
      "velocity": 105,
      "chip": "ym2612"
    },
    {
      "channel": 0,
      "note": 47,
      "start": 67.1686,
      "duration": 0.0161,
      "velocity": 115,
      "chip": "ym2612"
    },
    {
      "channel": 4,
      "note": 81,
      "start": 67.1697,
      "duration": 0.0161,
      "velocity": 94,
      "chip": "ym2612"
    },
    {
      "channel": 3,
      "note": 81,
      "start": 67.1709,
      "duration": 0.0161,
      "velocity": 94,
      "chip": "ym2612"
    },
    {
      "channel": 2,
      "note": 52,
      "start": 67.172,
      "duration": 0.0161,
      "velocity": 100,
      "chip": "ym2612"
    },
    {
      "channel": 1,
      "note": 105,
      "start": 67.183,
      "duration": 0.0161,
      "velocity": 105,
      "chip": "ym2612"
    },
    {
      "channel": 0,
      "note": 47,
      "start": 67.1846,
      "duration": 0.0161,
      "velocity": 115,
      "chip": "ym2612"
    },
    {
      "channel": 4,
      "note": 81,
      "start": 67.1858,
      "duration": 0.0161,
      "velocity": 94,
      "chip": "ym2612"
    },
    {
      "channel": 3,
      "note": 81,
      "start": 67.1869,
      "duration": 0.0161,
      "velocity": 94,
      "chip": "ym2612"
    },
    {
      "channel": 2,
      "note": 52,
      "start": 67.1881,
      "duration": 0.0161,
      "velocity": 100,
      "chip": "ym2612"
    },
    {
      "channel": 1,
      "note": 105,
      "start": 67.1991,
      "duration": 0.0183,
      "velocity": 124,
      "chip": "ym2612"
    },
    {
      "channel": 0,
      "note": 48,
      "start": 67.2007,
      "duration": 0.0191,
      "velocity": 115,
      "chip": "ym2612"
    },
    {
      "channel": 4,
      "note": 81,
      "start": 67.2019,
      "duration": 0.0193,
      "velocity": 94,
      "chip": "ym2612"
    },
    {
      "channel": 3,
      "note": 81,
      "start": 67.203,
      "duration": 0.0195,
      "velocity": 94,
      "chip": "ym2612"
    },
    {
      "channel": 2,
      "note": 52,
      "start": 67.2042,
      "duration": 0.0198,
      "velocity": 100,
      "chip": "ym2612"
    },
    {
      "channel": 1,
      "note": 78,
      "start": 67.2175,
      "duration": 0.0144,
      "velocity": 124,
      "chip": "ym2612"
    },
    {
      "channel": 0,
      "note": 48,
      "start": 67.2199,
      "duration": 0.0139,
      "velocity": 115,
      "chip": "ym2612"
    },
    {
      "channel": 4,
      "note": 81,
      "start": 67.2212,
      "duration": 0.0138,
      "velocity": 94,
      "chip": "ym2612"
    },
    {
      "channel": 3,
      "note": 81,
      "start": 67.2226,
      "duration": 0.0136,
      "velocity": 94,
      "chip": "ym2612"
    },
    {
      "channel": 2,
      "note": 52,
      "start": 67.224,
      "duration": 0.0134,
      "velocity": 100,
      "chip": "ym2612"
    },
    {
      "channel": 1,
      "note": 76,
      "start": 67.2319,
      "duration": 0.016,
      "velocity": 124,
      "chip": "ym2612"
    },
    {
      "channel": 0,
      "note": 49,
      "start": 67.2338,
      "duration": 0.0152,
      "velocity": 1,
      "chip": "ym2612"
    },
    {
      "channel": 4,
      "note": 81,
      "start": 67.235,
      "duration": 0.0151,
      "velocity": 94,
      "chip": "ym2612"
    },
    {
      "channel": 3,
      "note": 81,
      "start": 67.2362,
      "duration": 0.0151,
      "velocity": 94,
      "chip": "ym2612"
    },
    {
      "channel": 2,
      "note": 52,
      "start": 67.2374,
      "duration": 0.015,
      "velocity": 100,
      "chip": "ym2612"
    },
    {
      "channel": 1,
      "note": 75,
      "start": 67.2479,
      "duration": 0.0162,
      "velocity": 124,
      "chip": "ym2612"
    },
    {
      "channel": 4,
      "note": 81,
      "start": 67.2501,
      "duration": 0.0154,
      "velocity": 94,
      "chip": "ym2612"
    },
    {
      "channel": 3,
      "note": 81,
      "start": 67.2513,
      "duration": 0.0154,
      "velocity": 94,
      "chip": "ym2612"
    },
    {
      "channel": 2,
      "note": 52,
      "start": 67.2524,
      "duration": 0.0154,
      "velocity": 100,
      "chip": "ym2612"
    },
    {
      "channel": 1,
      "note": 74,
      "start": 67.2641,
      "duration": 0.016,
      "velocity": 124,
      "chip": "ym2612"
    },
    {
      "channel": 4,
      "note": 81,
      "start": 67.2655,
      "duration": 0.016,
      "velocity": 94,
      "chip": "ym2612"
    },
    {
      "channel": 3,
      "note": 81,
      "start": 67.2666,
      "duration": 0.016,
      "velocity": 94,
      "chip": "ym2612"
    },
    {
      "channel": 2,
      "note": 52,
      "start": 67.2678,
      "duration": 0.016,
      "velocity": 100,
      "chip": "ym2612"
    },
    {
      "channel": 1,
      "note": 72,
      "start": 67.2801,
      "duration": 0.0177,
      "velocity": 124,
      "chip": "ym2612"
    },
    {
      "channel": 4,
      "note": 81,
      "start": 67.2815,
      "duration": 0.0177,
      "velocity": 94,
      "chip": "ym2612"
    },
    {
      "channel": 3,
      "note": 81,
      "start": 67.2826,
      "duration": 0.0177,
      "velocity": 94,
      "chip": "ym2612"
    },
    {
      "channel": 2,
      "note": 52,
      "start": 67.2838,
      "duration": 0.0177,
      "velocity": 100,
      "chip": "ym2612"
    },
    {
      "channel": 1,
      "note": 71,
      "start": 67.2978,
      "duration": 0.0167,
      "velocity": 124,
      "chip": "ym2612"
    },
    {
      "channel": 4,
      "note": 81,
      "start": 67.2992,
      "duration": 0.0167,
      "velocity": 94,
      "chip": "ym2612"
    },
    {
      "channel": 3,
      "note": 81,
      "start": 67.3003,
      "duration": 0.0167,
      "velocity": 94,
      "chip": "ym2612"
    },
    {
      "channel": 2,
      "note": 52,
      "start": 67.3015,
      "duration": 0.0167,
      "velocity": 100,
      "chip": "ym2612"
    },
    {
      "channel": 1,
      "note": 70,
      "start": 67.3144,
      "duration": 0.0163,
      "velocity": 124,
      "chip": "ym2612"
    },
    {
      "channel": 4,
      "note": 81,
      "start": 67.3158,
      "duration": 0.0171,
      "velocity": 94,
      "chip": "ym2612"
    },
    {
      "channel": 3,
      "note": 81,
      "start": 67.317,
      "duration": 0.0173,
      "velocity": 94,
      "chip": "ym2612"
    },
    {
      "channel": 2,
      "note": 52,
      "start": 67.3181,
      "duration": 0.0175,
      "velocity": 100,
      "chip": "ym2612"
    },
    {
      "channel": 1,
      "note": 69,
      "start": 67.3308,
      "duration": 0.0141,
      "velocity": 124,
      "chip": "ym2612"
    },
    {
      "channel": 4,
      "note": 76,
      "start": 67.3329,
      "duration": 0.0134,
      "velocity": 94,
      "chip": "ym2612"
    },
    {
      "channel": 3,
      "note": 81,
      "start": 67.3342,
      "duration": 0.0133,
      "velocity": 94,
      "chip": "ym2612"
    },
    {
      "channel": 2,
      "note": 52,
      "start": 67.3357,
      "duration": 0.013,
      "velocity": 100,
      "chip": "ym2612"
    },
    {
      "channel": 1,
      "note": 68,
      "start": 67.3448,
      "duration": 0.0185,
      "velocity": 124,
      "chip": "ym2612"
    },
    {
      "channel": 4,
      "note": 76,
      "start": 67.3463,
      "duration": 0.0184,
      "velocity": 94,
      "chip": "ym2612"
    },
    {
      "channel": 3,
      "note": 81,
      "start": 67.3475,
      "duration": 0.0184,
      "velocity": 94,
      "chip": "ym2612"
    },
    {
      "channel": 2,
      "note": 52,
      "start": 67.3487,
      "duration": 0.0183,
      "velocity": 100,
      "chip": "ym2612"
    },
    {
      "channel": 1,
      "note": 66,
      "start": 67.3634,
      "duration": 0.0161,
      "velocity": 124,
      "chip": "ym2612"
    },
    {
      "channel": 4,
      "note": 76,
      "start": 67.3647,
      "duration": 0.0161,
      "velocity": 94,
      "chip": "ym2612"
    },
    {
      "channel": 3,
      "note": 81,
      "start": 67.3659,
      "duration": 0.0161,
      "velocity": 94,
      "chip": "ym2612"
    },
    {
      "channel": 2,
      "note": 52,
      "start": 67.367,
      "duration": 0.0161,
      "velocity": 100,
      "chip": "ym2612"
    },
    {
      "channel": 1,
      "note": 65,
      "start": 67.3794,
      "duration": 0.0134,
      "velocity": 124,
      "chip": "ym2612"
    },
    {
      "channel": 4,
      "note": 76,
      "start": 67.3808,
      "duration": 0.0157,
      "velocity": 94,
      "chip": "ym2612"
    },
    {
      "channel": 3,
      "note": 81,
      "start": 67.382,
      "duration": 0.0157,
      "velocity": 94,
      "chip": "ym2612"
    },
    {
      "channel": 2,
      "note": 52,
      "start": 67.3831,
      "duration": 0.0157,
      "velocity": 100,
      "chip": "ym2612"
    },
    {
      "channel": 1,
      "note": 64,
      "start": 67.3928,
      "duration": 0.0161,
      "velocity": 124,
      "chip": "ym2612"
    },
    {
      "channel": 4,
      "note": 76,
      "start": 67.3966,
      "duration": 0.0141,
      "velocity": 94,
      "chip": "ym2612"
    },
    {
      "channel": 3,
      "note": 81,
      "start": 67.3977,
      "duration": 0.0141,
      "velocity": 94,
      "chip": "ym2612"
    },
    {
      "channel": 2,
      "note": 52,
      "start": 67.3988,
      "duration": 0.0141,
      "velocity": 100,
      "chip": "ym2612"
    },
    {
      "channel": 1,
      "note": 62,
      "start": 67.4089,
      "duration": 0.0161,
      "velocity": 124,
      "chip": "ym2612"
    },
    {
      "channel": 4,
      "note": 76,
      "start": 67.4106,
      "duration": 0.0158,
      "velocity": 94,
      "chip": "ym2612"
    },
    {
      "channel": 3,
      "note": 81,
      "start": 67.4117,
      "duration": 0.0185,
      "velocity": 94,
      "chip": "ym2612"
    },
    {
      "channel": 2,
      "note": 52,
      "start": 67.4129,
      "duration": 0.0185,
      "velocity": 100,
      "chip": "ym2612"
    },
    {
      "channel": 1,
      "note": 61,
      "start": 67.425,
      "duration": 0.0161,
      "velocity": 124,
      "chip": "ym2612"
    },
    {
      "channel": 4,
      "note": 76,
      "start": 67.4264,
      "duration": 0.0195,
      "velocity": 94,
      "chip": "ym2612"
    },
    {
      "channel": 3,
      "note": 81,
      "start": 67.4303,
      "duration": 0.017,
      "velocity": 94,
      "chip": "ym2612"
    },
    {
      "channel": 2,
      "note": 52,
      "start": 67.4314,
      "duration": 0.0173,
      "velocity": 100,
      "chip": "ym2612"
    },
    {
      "channel": 1,
      "note": 60,
      "start": 67.4411,
      "duration": 0.0161,
      "velocity": 124,
      "chip": "ym2612"
    },
    {
      "channel": 4,
      "note": 76,
      "start": 67.4459,
      "duration": 0.0129,
      "velocity": 94,
      "chip": "ym2612"
    },
    {
      "channel": 3,
      "note": 76,
      "start": 67.4473,
      "duration": 0.0149,
      "velocity": 94,
      "chip": "ym2612"
    },
    {
      "channel": 2,
      "note": 52,
      "start": 67.4487,
      "duration": 0.0148,
      "velocity": 100,
      "chip": "ym2612"
    },
    {
      "channel": 1,
      "note": 59,
      "start": 67.4572,
      "duration": 0.0162,
      "velocity": 124,
      "chip": "ym2612"
    },
    {
      "channel": 4,
      "note": 76,
      "start": 67.4587,
      "duration": 0.016,
      "velocity": 94,
      "chip": "ym2612"
    },
    {
      "channel": 3,
      "note": 76,
      "start": 67.4623,
      "duration": 0.0135,
      "velocity": 94,
      "chip": "ym2612"
    },
    {
      "channel": 2,
      "note": 52,
      "start": 67.4635,
      "duration": 0.0138,
      "velocity": 100,
      "chip": "ym2612"
    },
    {
      "channel": 1,
      "note": 57,
      "start": 67.4733,
      "duration": 0.0161,
      "velocity": 124,
      "chip": "ym2612"
    },
    {
      "channel": 4,
      "note": 76,
      "start": 67.4747,
      "duration": 0.0161,
      "velocity": 94,
      "chip": "ym2612"
    },
    {
      "channel": 3,
      "note": 76,
      "start": 67.4758,
      "duration": 0.0161,
      "velocity": 94,
      "chip": "ym2612"
    },
    {
      "channel": 2,
      "note": 52,
      "start": 67.4773,
      "duration": 0.0158,
      "velocity": 100,
      "chip": "ym2612"
    },
    {
      "channel": 1,
      "note": 56,
      "start": 67.4894,
      "duration": 0.0161,
      "velocity": 124,
      "chip": "ym2612"
    },
    {
      "channel": 4,
      "note": 76,
      "start": 67.4908,
      "duration": 0.0161,
      "velocity": 94,
      "chip": "ym2612"
    },
    {
      "channel": 3,
      "note": 76,
      "start": 67.4919,
      "duration": 0.0161,
      "velocity": 94,
      "chip": "ym2612"
    },
    {
      "channel": 2,
      "note": 52,
      "start": 67.4931,
      "duration": 0.0161,
      "velocity": 100,
      "chip": "ym2612"
    },
    {
      "channel": 1,
      "note": 55,
      "start": 67.5055,
      "duration": 0.0161,
      "velocity": 124,
      "chip": "ym2612"
    },
    {
      "channel": 4,
      "note": 76,
      "start": 67.5068,
      "duration": 0.0162,
      "velocity": 94,
      "chip": "ym2612"
    },
    {
      "channel": 3,
      "note": 76,
      "start": 67.508,
      "duration": 0.0161,
      "velocity": 94,
      "chip": "ym2612"
    },
    {
      "channel": 2,
      "note": 52,
      "start": 67.5091,
      "duration": 0.0162,
      "velocity": 100,
      "chip": "ym2612"
    },
    {
      "channel": 1,
      "note": 53,
      "start": 67.5216,
      "duration": 0.0161,
      "velocity": 124,
      "chip": "ym2612"
    },
    {
      "channel": 4,
      "note": 76,
      "start": 67.523,
      "duration": 0.0161,
      "velocity": 94,
      "chip": "ym2612"
    },
    {
      "channel": 3,
      "note": 76,
      "start": 67.5241,
      "duration": 0.0161,
      "velocity": 94,
      "chip": "ym2612"
    },
    {
      "channel": 2,
      "note": 52,
      "start": 67.5253,
      "duration": 0.0161,
      "velocity": 100,
      "chip": "ym2612"
    },
    {
      "channel": 1,
      "note": 52,
      "start": 67.5377,
      "duration": 0.0161,
      "velocity": 124,
      "chip": "ym2612"
    },
    {
      "channel": 4,
      "note": 76,
      "start": 67.5391,
      "duration": 0.0203,
      "velocity": 94,
      "chip": "ym2612"
    },
    {
      "channel": 3,
      "note": 76,
      "start": 67.5402,
      "duration": 0.0232,
      "velocity": 94,
      "chip": "ym2612"
    },
    {
      "channel": 2,
      "note": 52,
      "start": 67.5414,
      "duration": 0.0235,
      "velocity": 100,
      "chip": "ym2612"
    },
    {
      "channel": 1,
      "note": 51,
      "start": 67.5538,
      "duration": 0.0153,
      "velocity": 1,
      "chip": "ym2612"
    },
    {
      "channel": 0,
      "note": 36,
      "start": 67.558,
      "duration": 0.015,
      "velocity": 115,
      "chip": "ym2612"
    },
    {
      "channel": 4,
      "note": 76,
      "start": 67.5595,
      "duration": 0.0148,
      "velocity": 94,
      "chip": "ym2612"
    },
    {
      "channel": 3,
      "note": 76,
      "start": 67.5635,
      "duration": 0.012,
      "velocity": 94,
      "chip": "ym2612"
    },
    {
      "channel": 2,
      "note": 52,
      "start": 67.5649,
      "duration": 0.0144,
      "velocity": 100,
      "chip": "ym2612"
    },
    {
      "channel": 1,
      "note": 51,
      "start": 67.5713,
      "duration": 0.0143,
      "velocity": 105,
      "chip": "ym2612"
    },
    {
      "channel": 0,
      "note": 36,
      "start": 67.573,
      "duration": 0.0142,
      "velocity": 115,
      "chip": "ym2612"
    },
    {
      "channel": 4,
      "note": 76,
      "start": 67.5742,
      "duration": 0.0141,
      "velocity": 94,
      "chip": "ym2612"
    },
    {
      "channel": 3,
      "note": 76,
      "start": 67.5754,
      "duration": 0.0141,
      "velocity": 94,
      "chip": "ym2612"
    },
    {
      "channel": 2,
      "note": 52,
      "start": 67.5794,
      "duration": 0.0113,
      "velocity": 100,
      "chip": "ym2612"
    },
    {
      "channel": 1,
      "note": 105,
      "start": 67.5856,
      "duration": 0.0161,
      "velocity": 105,
      "chip": "ym2612"
    },
    {
      "channel": 0,
      "note": 37,
      "start": 67.5872,
      "duration": 0.0161,
      "velocity": 115,
      "chip": "ym2612"
    },
    {
      "channel": 4,
      "note": 76,
      "start": 67.5883,
      "duration": 0.0161,
      "velocity": 94,
      "chip": "ym2612"
    },
    {
      "channel": 3,
      "note": 76,
      "start": 67.5895,
      "duration": 0.0161,
      "velocity": 94,
      "chip": "ym2612"
    },
    {
      "channel": 2,
      "note": 52,
      "start": 67.5906,
      "duration": 0.0161,
      "velocity": 100,
      "chip": "ym2612"
    },
    {
      "channel": 1,
      "note": 105,
      "start": 67.6016,
      "duration": 0.0161,
      "velocity": 105,
      "chip": "ym2612"
    },
    {
      "channel": 0,
      "note": 37,
      "start": 67.6033,
      "duration": 0.0161,
      "velocity": 115,
      "chip": "ym2612"
    },
    {
      "channel": 4,
      "note": 76,
      "start": 67.6044,
      "duration": 0.0161,
      "velocity": 94,
      "chip": "ym2612"
    },
    {
      "channel": 3,
      "note": 76,
      "start": 67.6056,
      "duration": 0.0161,
      "velocity": 94,
      "chip": "ym2612"
    },
    {
      "channel": 2,
      "note": 52,
      "start": 67.6067,
      "duration": 0.0161,
      "velocity": 100,
      "chip": "ym2612"
    },
    {
      "channel": 1,
      "note": 105,
      "start": 67.6177,
      "duration": 0.0161,
      "velocity": 105,
      "chip": "ym2612"
    },
    {
      "channel": 0,
      "note": 38,
      "start": 67.6194,
      "duration": 0.0161,
      "velocity": 115,
      "chip": "ym2612"
    },
    {
      "channel": 4,
      "note": 76,
      "start": 67.6205,
      "duration": 0.0161,
      "velocity": 94,
      "chip": "ym2612"
    },
    {
      "channel": 3,
      "note": 76,
      "start": 67.6217,
      "duration": 0.0161,
      "velocity": 94,
      "chip": "ym2612"
    },
    {
      "channel": 2,
      "note": 52,
      "start": 67.6228,
      "duration": 0.0161,
      "velocity": 100,
      "chip": "ym2612"
    },
    {
      "channel": 1,
      "note": 105,
      "start": 67.6338,
      "duration": 0.0161,
      "velocity": 105,
      "chip": "ym2612"
    },
    {
      "channel": 0,
      "note": 38,
      "start": 67.6355,
      "duration": 0.0161,
      "velocity": 115,
      "chip": "ym2612"
    },
    {
      "channel": 4,
      "note": 76,
      "start": 67.6366,
      "duration": 0.0162,
      "velocity": 94,
      "chip": "ym2612"
    },
    {
      "channel": 3,
      "note": 76,
      "start": 67.6378,
      "duration": 0.0161,
      "velocity": 94,
      "chip": "ym2612"
    },
    {
      "channel": 2,
      "note": 52,
      "start": 67.6389,
      "duration": 0.0161,
      "velocity": 100,
      "chip": "ym2612"
    },
    {
      "channel": 1,
      "note": 105,
      "start": 67.6499,
      "duration": 0.0178,
      "velocity": 124,
      "chip": "ym2612"
    },
    {
      "channel": 0,
      "note": 39,
      "start": 67.6516,
      "duration": 0.0196,
      "velocity": 115,
      "chip": "ym2612"
    },
    {
      "channel": 4,
      "note": 76,
      "start": 67.6528,
      "duration": 0.0198,
      "velocity": 94,
      "chip": "ym2612"
    },
    {
      "channel": 3,
      "note": 76,
      "start": 67.6539,
      "duration": 0.0202,
      "velocity": 94,
      "chip": "ym2612"
    },
    {
      "channel": 2,
      "note": 52,
      "start": 67.655,
      "duration": 0.0205,
      "velocity": 100,
      "chip": "ym2612"
    },
    {
      "channel": 1,
      "note": 64,
      "start": 67.6678,
      "duration": 0.0144,
      "velocity": 124,
      "chip": "ym2612"
    },
    {
      "channel": 0,
      "note": 36,
      "start": 67.6712,
      "duration": 0.0127,
      "velocity": 115,
      "chip": "ym2612"
    },
    {
      "channel": 4,
      "note": 81,
      "start": 67.6727,
      "duration": 0.0125,
      "velocity": 94,
      "chip": "ym2612"
    },
    {
      "channel": 3,
      "note": 76,
      "start": 67.6741,
      "duration": 0.0123,
      "velocity": 94,
      "chip": "ym2612"
    },
    {
      "channel": 2,
      "note": 52,
      "start": 67.6755,
      "duration": 0.012,
      "velocity": 100,
      "chip": "ym2612"
    },
    {
      "channel": 1,
      "note": 64,
      "start": 67.6822,
      "duration": 0.016,
      "velocity": 124,
      "chip": "ym2612"
    },
    {
      "channel": 0,
      "note": 36,
      "start": 67.6839,
      "duration": 0.016,
      "velocity": 115,
      "chip": "ym2612"
    },
    {
      "channel": 4,
      "note": 81,
      "start": 67.6852,
      "duration": 0.0159,
      "velocity": 94,
      "chip": "ym2612"
    },
    {
      "channel": 3,
      "note": 76,
      "start": 67.6864,
      "duration": 0.0159,
      "velocity": 94,
      "chip": "ym2612"
    },
    {
      "channel": 2,
      "note": 52,
      "start": 67.6875,
      "duration": 0.0158,
      "velocity": 100,
      "chip": "ym2612"
    },
    {
      "channel": 1,
      "note": 64,
      "start": 67.6982,
      "duration": 0.0161,
      "velocity": 124,
      "chip": "ym2612"
    },
    {
      "channel": 0,
      "note": 37,
      "start": 67.6999,
      "duration": 0.0161,
      "velocity": 115,
      "chip": "ym2612"
    },
    {
      "channel": 4,
      "note": 81,
      "start": 67.7011,
      "duration": 0.0161,
      "velocity": 94,
      "chip": "ym2612"
    },
    {
      "channel": 3,
      "note": 76,
      "start": 67.7022,
      "duration": 0.0161,
      "velocity": 94,
      "chip": "ym2612"
    },
    {
      "channel": 2,
      "note": 52,
      "start": 67.7034,
      "duration": 0.0161,
      "velocity": 100,
      "chip": "ym2612"
    },
    {
      "channel": 1,
      "note": 64,
      "start": 67.7143,
      "duration": 0.0161,
      "velocity": 124,
      "chip": "ym2612"
    },
    {
      "channel": 0,
      "note": 37,
      "start": 67.716,
      "duration": 0.0161,
      "velocity": 115,
      "chip": "ym2612"
    },
    {
      "channel": 4,
      "note": 81,
      "start": 67.7172,
      "duration": 0.0161,
      "velocity": 94,
      "chip": "ym2612"
    },
    {
      "channel": 3,
      "note": 76,
      "start": 67.7183,
      "duration": 0.0162,
      "velocity": 94,
      "chip": "ym2612"
    },
    {
      "channel": 2,
      "note": 52,
      "start": 67.7195,
      "duration": 0.0161,
      "velocity": 100,
      "chip": "ym2612"
    },
    {
      "channel": 1,
      "note": 64,
      "start": 67.7305,
      "duration": 0.0161,
      "velocity": 124,
      "chip": "ym2612"
    },
    {
      "channel": 0,
      "note": 38,
      "start": 67.7321,
      "duration": 0.0161,
      "velocity": 115,
      "chip": "ym2612"
    },
    {
      "channel": 4,
      "note": 81,
      "start": 67.7333,
      "duration": 0.016,
      "velocity": 94,
      "chip": "ym2612"
    },
    {
      "channel": 3,
      "note": 76,
      "start": 67.7345,
      "duration": 0.016,
      "velocity": 94,
      "chip": "ym2612"
    },
    {
      "channel": 2,
      "note": 52,
      "start": 67.7356,
      "duration": 0.0161,
      "velocity": 100,
      "chip": "ym2612"
    },
    {
      "channel": 1,
      "note": 64,
      "start": 67.7466,
      "duration": 0.0174,
      "velocity": 124,
      "chip": "ym2612"
    },
    {
      "channel": 0,
      "note": 38,
      "start": 67.7482,
      "duration": 0.0174,
      "velocity": 115,
      "chip": "ym2612"
    },
    {
      "channel": 4,
      "note": 81,
      "start": 67.7493,
      "duration": 0.0174,
      "velocity": 94,
      "chip": "ym2612"
    },
    {
      "channel": 3,
      "note": 76,
      "start": 67.7505,
      "duration": 0.0174,
      "velocity": 94,
      "chip": "ym2612"
    },
    {
      "channel": 2,
      "note": 52,
      "start": 67.7516,
      "duration": 0.0174,
      "velocity": 100,
      "chip": "ym2612"
    },
    {
      "channel": 1,
      "note": 64,
      "start": 67.764,
      "duration": 0.0183,
      "velocity": 105,
      "chip": "ym2612"
    },
    {
      "channel": 0,
      "note": 39,
      "start": 67.7656,
      "duration": 0.0184,
      "velocity": 115,
      "chip": "ym2612"
    },
    {
      "channel": 4,
      "note": 81,
      "start": 67.7668,
      "duration": 0.0185,
      "velocity": 94,
      "chip": "ym2612"
    },
    {
      "channel": 3,
      "note": 76,
      "start": 67.7679,
      "duration": 0.0188,
      "velocity": 94,
      "chip": "ym2612"
    },
    {
      "channel": 2,
      "note": 52,
      "start": 67.7691,
      "duration": 0.019,
      "velocity": 100,
      "chip": "ym2612"
    },
    {
      "channel": 1,
      "note": 105,
      "start": 67.7824,
      "duration": 0.0146,
      "velocity": 105,
      "chip": "ym2612"
    },
    {
      "channel": 0,
      "note": 39,
      "start": 67.784,
      "duration": 0.0146,
      "velocity": 115,
      "chip": "ym2612"
    },
    {
      "channel": 4,
      "note": 81,
      "start": 67.7853,
      "duration": 0.0146,
      "velocity": 94,
      "chip": "ym2612"
    },
    {
      "channel": 3,
      "note": 81,
      "start": 67.7867,
      "duration": 0.0144,
      "velocity": 94,
      "chip": "ym2612"
    },
    {
      "channel": 2,
      "note": 52,
      "start": 67.7882,
      "duration": 0.0141,
      "velocity": 100,
      "chip": "ym2612"
    },
    {
      "channel": 1,
      "note": 105,
      "start": 67.797,
      "duration": 0.0142,
      "velocity": 105,
      "chip": "ym2612"
    },
    {
      "channel": 0,
      "note": 40,
      "start": 67.7986,
      "duration": 0.0143,
      "velocity": 115,
      "chip": "ym2612"
    },
    {
      "channel": 4,
      "note": 81,
      "start": 67.7999,
      "duration": 0.0142,
      "velocity": 94,
      "chip": "ym2612"
    },
    {
      "channel": 3,
      "note": 81,
      "start": 67.8011,
      "duration": 0.0142,
      "velocity": 94,
      "chip": "ym2612"
    },
    {
      "channel": 2,
      "note": 52,
      "start": 67.8023,
      "duration": 0.0141,
      "velocity": 100,
      "chip": "ym2612"
    },
    {
      "channel": 1,
      "note": 105,
      "start": 67.8112,
      "duration": 0.0185,
      "velocity": 105,
      "chip": "ym2612"
    },
    {
      "channel": 0,
      "note": 40,
      "start": 67.8129,
      "duration": 0.0186,
      "velocity": 115,
      "chip": "ym2612"
    },
    {
      "channel": 4,
      "note": 81,
      "start": 67.8141,
      "duration": 0.0185,
      "velocity": 94,
      "chip": "ym2612"
    },
    {
      "channel": 3,
      "note": 81,
      "start": 67.8153,
      "duration": 0.0185,
      "velocity": 94,
      "chip": "ym2612"
    },
    {
      "channel": 2,
      "note": 52,
      "start": 67.8163,
      "duration": 0.0186,
      "velocity": 100,
      "chip": "ym2612"
    },
    {
      "channel": 1,
      "note": 105,
      "start": 67.8298,
      "duration": 0.0134,
      "velocity": 105,
      "chip": "ym2612"
    },
    {
      "channel": 0,
      "note": 40,
      "start": 67.8315,
      "duration": 0.0161,
      "velocity": 115,
      "chip": "ym2612"
    },
    {
      "channel": 4,
      "note": 81,
      "start": 67.8326,
      "duration": 0.0161,
      "velocity": 94,
      "chip": "ym2612"
    },
    {
      "channel": 3,
      "note": 81,
      "start": 67.8338,
      "duration": 0.0161,
      "velocity": 94,
      "chip": "ym2612"
    },
    {
      "channel": 2,
      "note": 52,
      "start": 67.8349,
      "duration": 0.0161,
      "velocity": 100,
      "chip": "ym2612"
    },
    {
      "channel": 1,
      "note": 105,
      "start": 67.8431,
      "duration": 0.0161,
      "velocity": 105,
      "chip": "ym2612"
    },
    {
      "channel": 0,
      "note": 41,
      "start": 67.8476,
      "duration": 0.0157,
      "velocity": 115,
      "chip": "ym2612"
    },
    {
      "channel": 4,
      "note": 81,
      "start": 67.8487,
      "duration": 0.0157,
      "velocity": 94,
      "chip": "ym2612"
    },
    {
      "channel": 3,
      "note": 81,
      "start": 67.8499,
      "duration": 0.0157,
      "velocity": 94,
      "chip": "ym2612"
    },
    {
      "channel": 2,
      "note": 52,
      "start": 67.851,
      "duration": 0.0157,
      "velocity": 100,
      "chip": "ym2612"
    },
    {
      "channel": 1,
      "note": 105,
      "start": 67.8592,
      "duration": 0.0162,
      "velocity": 105,
      "chip": "ym2612"
    },
    {
      "channel": 0,
      "note": 41,
      "start": 67.8633,
      "duration": 0.0141,
      "velocity": 115,
      "chip": "ym2612"
    },
    {
      "channel": 4,
      "note": 81,
      "start": 67.8644,
      "duration": 0.0141,
      "velocity": 94,
      "chip": "ym2612"
    },
    {
      "channel": 3,
      "note": 81,
      "start": 67.8656,
      "duration": 0.0141,
      "velocity": 94,
      "chip": "ym2612"
    },
    {
      "channel": 2,
      "note": 52,
      "start": 67.8667,
      "duration": 0.0141,
      "velocity": 100,
      "chip": "ym2612"
    },
    {
      "channel": 1,
      "note": 105,
      "start": 67.8754,
      "duration": 0.0205,
      "velocity": 124,
      "chip": "ym2612"
    },
    {
      "channel": 0,
      "note": 42,
      "start": 67.8773,
      "duration": 0.0203,
      "velocity": 115,
      "chip": "ym2612"
    },
    {
      "channel": 4,
      "note": 81,
      "start": 67.8785,
      "duration": 0.0205,
      "velocity": 94,
      "chip": "ym2612"
    },
    {
      "channel": 3,
      "note": 81,
      "start": 67.8796,
      "duration": 0.0207,
      "velocity": 94,
      "chip": "ym2612"
    },
    {
      "channel": 2,
      "note": 52,
      "start": 67.8808,
      "duration": 0.0209,
      "velocity": 100,
      "chip": "ym2612"
    },
    {
      "channel": 1,
      "note": 64,
      "start": 67.8959,
      "duration": 0.0117,
      "velocity": 124,
      "chip": "ym2612"
    },
    {
      "channel": 0,
      "note": 42,
      "start": 67.8976,
      "duration": 0.0116,
      "velocity": 115,
      "chip": "ym2612"
    },
    {
      "channel": 4,
      "note": 81,
      "start": 67.899,
      "duration": 0.0143,
      "velocity": 94,
      "chip": "ym2612"
    },
    {
      "channel": 3,
      "note": 81,
      "start": 67.9003,
      "duration": 0.0141,
      "velocity": 94,
      "chip": "ym2612"
    },
    {
      "channel": 2,
      "note": 52,
      "start": 67.9018,
      "duration": 0.0139,
      "velocity": 100,
      "chip": "ym2612"
    },
    {
      "channel": 1,
      "note": 64,
      "start": 67.9076,
      "duration": 0.016,
      "velocity": 124,
      "chip": "ym2612"
    },
    {
      "channel": 0,
      "note": 43,
      "start": 67.9093,
      "duration": 0.016,
      "velocity": 115,
      "chip": "ym2612"
    },
    {
      "channel": 4,
      "note": 81,
      "start": 67.9133,
      "duration": 0.0156,
      "velocity": 94,
      "chip": "ym2612"
    },
    {
      "channel": 3,
      "note": 81,
      "start": 67.9144,
      "duration": 0.0156,
      "velocity": 94,
      "chip": "ym2612"
    },
    {
      "channel": 2,
      "note": 52,
      "start": 67.9156,
      "duration": 0.0155,
      "velocity": 100,
      "chip": "ym2612"
    },
    {
      "channel": 1,
      "note": 64,
      "start": 67.9237,
      "duration": 0.0161,
      "velocity": 124,
      "chip": "ym2612"
    },
    {
      "channel": 0,
      "note": 43,
      "start": 67.9253,
      "duration": 0.0161,
      "velocity": 115,
      "chip": "ym2612"
    },
    {
      "channel": 4,
      "note": 81,
      "start": 67.9289,
      "duration": 0.0137,
      "velocity": 94,
      "chip": "ym2612"
    },
    {
      "channel": 3,
      "note": 81,
      "start": 67.93,
      "duration": 0.0141,
      "velocity": 94,
      "chip": "ym2612"
    },
    {
      "channel": 2,
      "note": 52,
      "start": 67.9312,
      "duration": 0.014,
      "velocity": 100,
      "chip": "ym2612"
    },
    {
      "channel": 1,
      "note": 64,
      "start": 67.9398,
      "duration": 0.0161,
      "velocity": 124,
      "chip": "ym2612"
    },
    {
      "channel": 0,
      "note": 44,
      "start": 67.9414,
      "duration": 0.0161,
      "velocity": 115,
      "chip": "ym2612"
    },
    {
      "channel": 4,
      "note": 81,
      "start": 67.9426,
      "duration": 0.0161,
      "velocity": 94,
      "chip": "ym2612"
    },
    {
      "channel": 3,
      "note": 81,
      "start": 67.9441,
      "duration": 0.0185,
      "velocity": 94,
      "chip": "ym2612"
    },
    {
      "channel": 2,
      "note": 52,
      "start": 67.9451,
      "duration": 0.0185,
      "velocity": 100,
      "chip": "ym2612"
    },
    {
      "channel": 1,
      "note": 64,
      "start": 67.9558,
      "duration": 0.0161,
      "velocity": 124,
      "chip": "ym2612"
    },
    {
      "channel": 0,
      "note": 44,
      "start": 67.9575,
      "duration": 0.0161,
      "velocity": 115,
      "chip": "ym2612"
    },
    {
      "channel": 4,
      "note": 81,
      "start": 67.9587,
      "duration": 0.0161,
      "velocity": 94,
      "chip": "ym2612"
    },
    {
      "channel": 3,
      "note": 81,
      "start": 67.9626,
      "duration": 0.0134,
      "velocity": 94,
      "chip": "ym2612"
    },
    {
      "channel": 2,
      "note": 52,
      "start": 67.9637,
      "duration": 0.0161,
      "velocity": 100,
      "chip": "ym2612"
    },
    {
      "channel": 1,
      "note": 64,
      "start": 67.9719,
      "duration": 0.0161,
      "velocity": 124,
      "chip": "ym2612"
    },
    {
      "channel": 0,
      "note": 44,
      "start": 67.9736,
      "duration": 0.0162,
      "velocity": 115,
      "chip": "ym2612"
    },
    {
      "channel": 4,
      "note": 81,
      "start": 67.9748,
      "duration": 0.0161,
      "velocity": 94,
      "chip": "ym2612"
    },
    {
      "channel": 3,
      "note": 81,
      "start": 67.9759,
      "duration": 0.0161,
      "velocity": 94,
      "chip": "ym2612"
    },
    {
      "channel": 2,
      "note": 52,
      "start": 67.9798,
      "duration": 0.0157,
      "velocity": 100,
      "chip": "ym2612"
    },
    {
      "channel": 1,
      "note": 64,
      "start": 67.988,
      "duration": 0.0178,
      "velocity": 105,
      "chip": "ym2612"
    },
    {
      "channel": 0,
      "note": 45,
      "start": 67.9898,
      "duration": 0.0178,
      "velocity": 115,
      "chip": "ym2612"
    },
    {
      "channel": 4,
      "note": 81,
      "start": 67.9909,
      "duration": 0.018,
      "velocity": 94,
      "chip": "ym2612"
    },
    {
      "channel": 3,
      "note": 81,
      "start": 67.992,
      "duration": 0.0186,
      "velocity": 94,
      "chip": "ym2612"
    },
    {
      "channel": 2,
      "note": 52,
      "start": 67.9955,
      "duration": 0.0165,
      "velocity": 100,
      "chip": "ym2612"
    },
    {
      "channel": 1,
      "note": 105,
      "start": 68.0058,
      "duration": 0.0144,
      "velocity": 105,
      "chip": "ym2612"
    },
    {
      "channel": 0,
      "note": 45,
      "start": 68.0076,
      "duration": 0.0144,
      "velocity": 115,
      "chip": "ym2612"
    },
    {
      "channel": 4,
      "note": 81,
      "start": 68.009,
      "duration": 0.0142,
      "velocity": 94,
      "chip": "ym2612"
    },
    {
      "channel": 3,
      "note": 81,
      "start": 68.0107,
      "duration": 0.0137,
      "velocity": 94,
      "chip": "ym2612"
    },
    {
      "channel": 2,
      "note": 52,
      "start": 68.0121,
      "duration": 0.0134,
      "velocity": 100,
      "chip": "ym2612"
    },
    {
      "channel": 1,
      "note": 105,
      "start": 68.0203,
      "duration": 0.0161,
      "velocity": 105,
      "chip": "ym2612"
    },
    {
      "channel": 0,
      "note": 46,
      "start": 68.022,
      "duration": 0.016,
      "velocity": 115,
      "chip": "ym2612"
    },
    {
      "channel": 4,
      "note": 81,
      "start": 68.0232,
      "duration": 0.016,
      "velocity": 94,
      "chip": "ym2612"
    },
    {
      "channel": 3,
      "note": 81,
      "start": 68.0244,
      "duration": 0.0159,
      "velocity": 94,
      "chip": "ym2612"
    },
    {
      "channel": 2,
      "note": 52,
      "start": 68.0256,
      "duration": 0.0159,
      "velocity": 100,
      "chip": "ym2612"
    },
    {
      "channel": 1,
      "note": 105,
      "start": 68.0364,
      "duration": 0.0161,
      "velocity": 105,
      "chip": "ym2612"
    },
    {
      "channel": 0,
      "note": 46,
      "start": 68.038,
      "duration": 0.0161,
      "velocity": 115,
      "chip": "ym2612"
    },
    {
      "channel": 4,
      "note": 81,
      "start": 68.0392,
      "duration": 0.0161,
      "velocity": 94,
      "chip": "ym2612"
    },
    {
      "channel": 3,
      "note": 81,
      "start": 68.0403,
      "duration": 0.0161,
      "velocity": 94,
      "chip": "ym2612"
    },
    {
      "channel": 2,
      "note": 52,
      "start": 68.0415,
      "duration": 0.0161,
      "velocity": 100,
      "chip": "ym2612"
    },
    {
      "channel": 1,
      "note": 105,
      "start": 68.0525,
      "duration": 0.0161,
      "velocity": 105,
      "chip": "ym2612"
    },
    {
      "channel": 0,
      "note": 47,
      "start": 68.0541,
      "duration": 0.0161,
      "velocity": 115,
      "chip": "ym2612"
    },
    {
      "channel": 4,
      "note": 81,
      "start": 68.0553,
      "duration": 0.0161,
      "velocity": 94,
      "chip": "ym2612"
    },
    {
      "channel": 3,
      "note": 81,
      "start": 68.0564,
      "duration": 0.0161,
      "velocity": 94,
      "chip": "ym2612"
    },
    {
      "channel": 2,
      "note": 52,
      "start": 68.0576,
      "duration": 0.0161,
      "velocity": 100,
      "chip": "ym2612"
    },
    {
      "channel": 1,
      "note": 105,
      "start": 68.0686,
      "duration": 0.0161,
      "velocity": 105,
      "chip": "ym2612"
    },
    {
      "channel": 0,
      "note": 47,
      "start": 68.0702,
      "duration": 0.0161,
      "velocity": 115,
      "chip": "ym2612"
    },
    {
      "channel": 4,
      "note": 81,
      "start": 68.0714,
      "duration": 0.0161,
      "velocity": 94,
      "chip": "ym2612"
    },
    {
      "channel": 3,
      "note": 81,
      "start": 68.0725,
      "duration": 0.0161,
      "velocity": 94,
      "chip": "ym2612"
    },
    {
      "channel": 2,
      "note": 52,
      "start": 68.0737,
      "duration": 0.0161,
      "velocity": 100,
      "chip": "ym2612"
    },
    {
      "channel": 1,
      "note": 105,
      "start": 68.0846,
      "duration": 0.0161,
      "velocity": 105,
      "chip": "ym2612"
    },
    {
      "channel": 0,
      "note": 47,
      "start": 68.0863,
      "duration": 0.0161,
      "velocity": 115,
      "chip": "ym2612"
    },
    {
      "channel": 4,
      "note": 81,
      "start": 68.0875,
      "duration": 0.0161,
      "velocity": 94,
      "chip": "ym2612"
    },
    {
      "channel": 3,
      "note": 81,
      "start": 68.0886,
      "duration": 0.0162,
      "velocity": 94,
      "chip": "ym2612"
    },
    {
      "channel": 2,
      "note": 52,
      "start": 68.0898,
      "duration": 0.0161,
      "velocity": 100,
      "chip": "ym2612"
    },
    {
      "channel": 1,
      "note": 105,
      "start": 68.1007,
      "duration": 0.0184,
      "velocity": 124,
      "chip": "ym2612"
    },
    {
      "channel": 0,
      "note": 48,
      "start": 68.1024,
      "duration": 0.0191,
      "velocity": 115,
      "chip": "ym2612"
    },
    {
      "channel": 4,
      "note": 81,
      "start": 68.1036,
      "duration": 0.0192,
      "velocity": 94,
      "chip": "ym2612"
    },
    {
      "channel": 3,
      "note": 81,
      "start": 68.1048,
      "duration": 0.0195,
      "velocity": 94,
      "chip": "ym2612"
    },
    {
      "channel": 2,
      "note": 52,
      "start": 68.1058,
      "duration": 0.0198,
      "velocity": 100,
      "chip": "ym2612"
    },
    {
      "channel": 1,
      "note": 78,
      "start": 68.1191,
      "duration": 0.0144,
      "velocity": 124,
      "chip": "ym2612"
    },
    {
      "channel": 0,
      "note": 48,
      "start": 68.1215,
      "duration": 0.0139,
      "velocity": 115,
      "chip": "ym2612"
    },
    {
      "channel": 4,
      "note": 81,
      "start": 68.1228,
      "duration": 0.0138,
      "velocity": 94,
      "chip": "ym2612"
    },
    {
      "channel": 3,
      "note": 81,
      "start": 68.1242,
      "duration": 0.0136,
      "velocity": 94,
      "chip": "ym2612"
    },
    {
      "channel": 2,
      "note": 52,
      "start": 68.1257,
      "duration": 0.0134,
      "velocity": 100,
      "chip": "ym2612"
    },
    {
      "channel": 1,
      "note": 76,
      "start": 68.1335,
      "duration": 0.016,
      "velocity": 124,
      "chip": "ym2612"
    },
    {
      "channel": 0,
      "note": 49,
      "start": 68.1354,
      "duration": 0.0152,
      "velocity": 1,
      "chip": "ym2612"
    },
    {
      "channel": 4,
      "note": 81,
      "start": 68.1366,
      "duration": 0.0151,
      "velocity": 94,
      "chip": "ym2612"
    },
    {
      "channel": 3,
      "note": 81,
      "start": 68.1378,
      "duration": 0.0151,
      "velocity": 94,
      "chip": "ym2612"
    },
    {
      "channel": 2,
      "note": 52,
      "start": 68.139,
      "duration": 0.015,
      "velocity": 100,
      "chip": "ym2612"
    },
    {
      "channel": 1,
      "note": 75,
      "start": 68.1495,
      "duration": 0.0161,
      "velocity": 124,
      "chip": "ym2612"
    },
    {
      "channel": 4,
      "note": 81,
      "start": 68.1518,
      "duration": 0.0153,
      "velocity": 94,
      "chip": "ym2612"
    },
    {
      "channel": 3,
      "note": 81,
      "start": 68.1529,
      "duration": 0.0153,
      "velocity": 94,
      "chip": "ym2612"
    },
    {
      "channel": 2,
      "note": 52,
      "start": 68.1541,
      "duration": 0.0153,
      "velocity": 100,
      "chip": "ym2612"
    },
    {
      "channel": 1,
      "note": 74,
      "start": 68.1656,
      "duration": 0.0161,
      "velocity": 124,
      "chip": "ym2612"
    },
    {
      "channel": 4,
      "note": 81,
      "start": 68.167,
      "duration": 0.0161,
      "velocity": 94,
      "chip": "ym2612"
    },
    {
      "channel": 3,
      "note": 81,
      "start": 68.1682,
      "duration": 0.0161,
      "velocity": 94,
      "chip": "ym2612"
    },
    {
      "channel": 2,
      "note": 52,
      "start": 68.1693,
      "duration": 0.0161,
      "velocity": 100,
      "chip": "ym2612"
    },
    {
      "channel": 1,
      "note": 72,
      "start": 68.1817,
      "duration": 0.0161,
      "velocity": 124,
      "chip": "ym2612"
    },
    {
      "channel": 4,
      "note": 81,
      "start": 68.1831,
      "duration": 0.0161,
      "velocity": 94,
      "chip": "ym2612"
    },
    {
      "channel": 3,
      "note": 81,
      "start": 68.1843,
      "duration": 0.0161,
      "velocity": 94,
      "chip": "ym2612"
    },
    {
      "channel": 2,
      "note": 52,
      "start": 68.1854,
      "duration": 0.0161,
      "velocity": 100,
      "chip": "ym2612"
    },
    {
      "channel": 1,
      "note": 71,
      "start": 68.1978,
      "duration": 0.0162,
      "velocity": 124,
      "chip": "ym2612"
    },
    {
      "channel": 4,
      "note": 81,
      "start": 68.1992,
      "duration": 0.0161,
      "velocity": 94,
      "chip": "ym2612"
    },
    {
      "channel": 3,
      "note": 81,
      "start": 68.2004,
      "duration": 0.0161,
      "velocity": 94,
      "chip": "ym2612"
    },
    {
      "channel": 2,
      "note": 52,
      "start": 68.2015,
      "duration": 0.0161,
      "velocity": 100,
      "chip": "ym2612"
    },
    {
      "channel": 1,
      "note": 70,
      "start": 68.214,
      "duration": 0.0171,
      "velocity": 124,
      "chip": "ym2612"
    },
    {
      "channel": 4,
      "note": 81,
      "start": 68.2153,
      "duration": 0.018,
      "velocity": 94,
      "chip": "ym2612"
    },
    {
      "channel": 3,
      "note": 81,
      "start": 68.2165,
      "duration": 0.0181,
      "velocity": 94,
      "chip": "ym2612"
    },
    {
      "channel": 2,
      "note": 52,
      "start": 68.2176,
      "duration": 0.0184,
      "velocity": 100,
      "chip": "ym2612"
    },
    {
      "channel": 1,
      "note": 69,
      "start": 68.2311,
      "duration": 0.0167,
      "velocity": 124,
      "chip": "ym2612"
    },
    {
      "channel": 4,
      "note": 76,
      "start": 68.2333,
      "duration": 0.016,
      "velocity": 94,
      "chip": "ym2612"
    },
    {
      "channel": 3,
      "note": 81,
      "start": 68.2346,
      "duration": 0.0159,
      "velocity": 94,
      "chip": "ym2612"
    },
    {
      "channel": 2,
      "note": 52,
      "start": 68.236,
      "duration": 0.0156,
      "velocity": 100,
      "chip": "ym2612"
    },
    {
      "channel": 1,
      "note": 68,
      "start": 68.2478,
      "duration": 0.0163,
      "velocity": 124,
      "chip": "ym2612"
    },
    {
      "channel": 4,
      "note": 76,
      "start": 68.2493,
      "duration": 0.0162,
      "velocity": 94,
      "chip": "ym2612"
    },
    {
      "channel": 3,
      "note": 81,
      "start": 68.2505,
      "duration": 0.0161,
      "velocity": 94,
      "chip": "ym2612"
    },
    {
      "channel": 2,
      "note": 52,
      "start": 68.2516,
      "duration": 0.0161,
      "velocity": 100,
      "chip": "ym2612"
    },
    {
      "channel": 1,
      "note": 66,
      "start": 68.2641,
      "duration": 0.0146,
      "velocity": 124,
      "chip": "ym2612"
    },
    {
      "channel": 4,
      "note": 76,
      "start": 68.2655,
      "duration": 0.0146,
      "velocity": 94,
      "chip": "ym2612"
    },
    {
      "channel": 3,
      "note": 81,
      "start": 68.2666,
      "duration": 0.0146,
      "velocity": 94,
      "chip": "ym2612"
    },
    {
      "channel": 2,
      "note": 52,
      "start": 68.2677,
      "duration": 0.0146,
      "velocity": 100,
      "chip": "ym2612"
    },
    {
      "channel": 1,
      "note": 65,
      "start": 68.2787,
      "duration": 0.0185,
      "velocity": 124,
      "chip": "ym2612"
    },
    {
      "channel": 4,
      "note": 76,
      "start": 68.2801,
      "duration": 0.0185,
      "velocity": 94,
      "chip": "ym2612"
    },
    {
      "channel": 3,
      "note": 81,
      "start": 68.2812,
      "duration": 0.0185,
      "velocity": 94,
      "chip": "ym2612"
    },
    {
      "channel": 2,
      "note": 52,
      "start": 68.2824,
      "duration": 0.0185,
      "velocity": 100,
      "chip": "ym2612"
    },
    {
      "channel": 1,
      "note": 64,
      "start": 68.2972,
      "duration": 0.0161,
      "velocity": 124,
      "chip": "ym2612"
    },
    {
      "channel": 4,
      "note": 76,
      "start": 68.2986,
      "duration": 0.0161,
      "velocity": 94,
      "chip": "ym2612"
    },
    {
      "channel": 3,
      "note": 81,
      "start": 68.2997,
      "duration": 0.0161,
      "velocity": 94,
      "chip": "ym2612"
    },
    {
      "channel": 2,
      "note": 52,
      "start": 68.3009,
      "duration": 0.0161,
      "velocity": 100,
      "chip": "ym2612"
    },
    {
      "channel": 1,
      "note": 62,
      "start": 68.3133,
      "duration": 0.0158,
      "velocity": 124,
      "chip": "ym2612"
    },
    {
      "channel": 4,
      "note": 76,
      "start": 68.3147,
      "duration": 0.0158,
      "velocity": 94,
      "chip": "ym2612"
    },
    {
      "channel": 3,
      "note": 81,
      "start": 68.3158,
      "duration": 0.0158,
      "velocity": 94,
      "chip": "ym2612"
    },
    {
      "channel": 2,
      "note": 52,
      "start": 68.317,
      "duration": 0.0158,
      "velocity": 100,
      "chip": "ym2612"
    },
    {
      "channel": 1,
      "note": 61,
      "start": 68.329,
      "duration": 0.0137,
      "velocity": 124,
      "chip": "ym2612"
    },
    {
      "channel": 4,
      "note": 76,
      "start": 68.3305,
      "duration": 0.0146,
      "velocity": 94,
      "chip": "ym2612"
    },
    {
      "channel": 3,
      "note": 81,
      "start": 68.3316,
      "duration": 0.0149,
      "velocity": 94,
      "chip": "ym2612"
    },
    {
      "channel": 2,
      "note": 52,
      "start": 68.3327,
      "duration": 0.0152,
      "velocity": 100,
      "chip": "ym2612"
    },
    {
      "channel": 1,
      "note": 60,
      "start": 68.3427,
      "duration": 0.0161,
      "velocity": 124,
      "chip": "ym2612"
    },
    {
      "channel": 4,
      "note": 76,
      "start": 68.3451,
      "duration": 0.018,
      "velocity": 94,
      "chip": "ym2612"
    },
    {
      "channel": 3,
      "note": 76,
      "start": 68.3466,
      "duration": 0.0178,
      "velocity": 94,
      "chip": "ym2612"
    },
    {
      "channel": 2,
      "note": 52,
      "start": 68.348,
      "duration": 0.0176,
      "velocity": 100,
      "chip": "ym2612"
    },
    {
      "channel": 1,
      "note": 59,
      "start": 68.3588,
      "duration": 0.0162,
      "velocity": 124,
      "chip": "ym2612"
    },
    {
      "channel": 4,
      "note": 76,
      "start": 68.3631,
      "duration": 0.0132,
      "velocity": 94,
      "chip": "ym2612"
    },
    {
      "channel": 3,
      "note": 76,
      "start": 68.3643,
      "duration": 0.016,
      "velocity": 94,
      "chip": "ym2612"
    },
    {
      "channel": 2,
      "note": 52,
      "start": 68.3655,
      "duration": 0.0158,
      "velocity": 100,
      "chip": "ym2612"
    },
    {
      "channel": 1,
      "note": 57,
      "start": 68.375,
      "duration": 0.0161,
      "velocity": 124,
      "chip": "ym2612"
    },
    {
      "channel": 4,
      "note": 76,
      "start": 68.3763,
      "duration": 0.0161,
      "velocity": 94,
      "chip": "ym2612"
    },
    {
      "channel": 3,
      "note": 76,
      "start": 68.3803,
      "duration": 0.0157,
      "velocity": 94,
      "chip": "ym2612"
    },
    {
      "channel": 2,
      "note": 52,
      "start": 68.3813,
      "duration": 0.0158,
      "velocity": 100,
      "chip": "ym2612"
    },
    {
      "channel": 1,
      "note": 56,
      "start": 68.3911,
      "duration": 0.0161,
      "velocity": 124,
      "chip": "ym2612"
    },
    {
      "channel": 4,
      "note": 76,
      "start": 68.3925,
      "duration": 0.0161,
      "velocity": 94,
      "chip": "ym2612"
    },
    {
      "channel": 3,
      "note": 76,
      "start": 68.396,
      "duration": 0.0137,
      "velocity": 94,
      "chip": "ym2612"
    },
    {
      "channel": 2,
      "note": 52,
      "start": 68.3971,
      "duration": 0.0141,
      "velocity": 100,
      "chip": "ym2612"
    },
    {
      "channel": 1,
      "note": 55,
      "start": 68.4072,
      "duration": 0.0161,
      "velocity": 124,
      "chip": "ym2612"
    },
    {
      "channel": 4,
      "note": 76,
      "start": 68.4086,
      "duration": 0.0161,
      "velocity": 94,
      "chip": "ym2612"
    },
    {
      "channel": 3,
      "note": 76,
      "start": 68.4097,
      "duration": 0.0161,
      "velocity": 94,
      "chip": "ym2612"
    },
    {
      "channel": 2,
      "note": 52,
      "start": 68.4112,
      "duration": 0.0185,
      "velocity": 100,
      "chip": "ym2612"
    },
    {
      "channel": 1,
      "note": 53,
      "start": 68.4233,
      "duration": 0.0161,
      "velocity": 124,
      "chip": "ym2612"
    },
    {
      "channel": 4,
      "note": 76,
      "start": 68.4247,
      "duration": 0.0161,
      "velocity": 94,
      "chip": "ym2612"
    },
    {
      "channel": 3,
      "note": 76,
      "start": 68.4258,
      "duration": 0.0161,
      "velocity": 94,
      "chip": "ym2612"
    },
    {
      "channel": 2,
      "note": 52,
      "start": 68.4297,
      "duration": 0.0134,
      "velocity": 100,
      "chip": "ym2612"
    },
    {
      "channel": 1,
      "note": 52,
      "start": 68.4394,
      "duration": 0.0161,
      "velocity": 124,
      "chip": "ym2612"
    },
    {
      "channel": 4,
      "note": 76,
      "start": 68.4408,
      "duration": 0.0226,
      "velocity": 94,
      "chip": "ym2612"
    },
    {
      "channel": 3,
      "note": 76,
      "start": 68.4419,
      "duration": 0.0228,
      "velocity": 94,
      "chip": "ym2612"
    },
    {
      "channel": 2,
      "note": 52,
      "start": 68.4431,
      "duration": 0.023,
      "velocity": 100,
      "chip": "ym2612"
    },
    {
      "channel": 1,
      "note": 51,
      "start": 68.4555,
      "duration": 0.0153,
      "velocity": 1,
      "chip": "ym2612"
    },
    {
      "channel": 0,
      "note": 78,
      "start": 68.4597,
      "duration": 0.0149,
      "velocity": 127,
      "chip": "ym2612"
    },
    {
      "channel": 4,
      "note": 76,
      "start": 68.4634,
      "duration": 0.0125,
      "velocity": 94,
      "chip": "ym2612"
    },
    {
      "channel": 3,
      "note": 76,
      "start": 68.4647,
      "duration": 0.0127,
      "velocity": 94,
      "chip": "ym2612"
    },
    {
      "channel": 2,
      "note": 52,
      "start": 68.4661,
      "duration": 0.0124,
      "velocity": 100,
      "chip": "ym2612"
    },
    {
      "channel": 1,
      "note": 51,
      "start": 68.4729,
      "duration": 0.0143,
      "velocity": 105,
      "chip": "ym2612"
    },
    {
      "channel": 0,
      "note": 76,
      "start": 68.4747,
      "duration": 0.0142,
      "velocity": 127,
      "chip": "ym2612"
    },
    {
      "channel": 4,
      "note": 76,
      "start": 68.4759,
      "duration": 0.0141,
      "velocity": 94,
      "chip": "ym2612"
    },
    {
      "channel": 3,
      "note": 76,
      "start": 68.4774,
      "duration": 0.0137,
      "velocity": 94,
      "chip": "ym2612"
    },
    {
      "channel": 2,
      "note": 52,
      "start": 68.4785,
      "duration": 0.0137,
      "velocity": 100,
      "chip": "ym2612"
    },
    {
      "channel": 1,
      "note": 105,
      "start": 68.4872,
      "duration": 0.0161,
      "velocity": 105,
      "chip": "ym2612"
    },
    {
      "channel": 0,
      "note": 75,
      "start": 68.4888,
      "duration": 0.0161,
      "velocity": 127,
      "chip": "ym2612"
    },
    {
      "channel": 4,
      "note": 76,
      "start": 68.49,
      "duration": 0.0161,
      "velocity": 94,
      "chip": "ym2612"
    },
    {
      "channel": 3,
      "note": 76,
      "start": 68.4911,
      "duration": 0.0161,
      "velocity": 94,
      "chip": "ym2612"
    },
    {
      "channel": 2,
      "note": 52,
      "start": 68.4923,
      "duration": 0.0161,
      "velocity": 100,
      "chip": "ym2612"
    },
    {
      "channel": 1,
      "note": 105,
      "start": 68.5033,
      "duration": 0.0161,
      "velocity": 105,
      "chip": "ym2612"
    },
    {
      "channel": 0,
      "note": 73,
      "start": 68.5049,
      "duration": 0.0161,
      "velocity": 127,
      "chip": "ym2612"
    },
    {
      "channel": 4,
      "note": 76,
      "start": 68.5061,
      "duration": 0.0161,
      "velocity": 94,
      "chip": "ym2612"
    },
    {
      "channel": 3,
      "note": 76,
      "start": 68.5072,
      "duration": 0.0161,
      "velocity": 94,
      "chip": "ym2612"
    },
    {
      "channel": 2,
      "note": 52,
      "start": 68.5084,
      "duration": 0.0161,
      "velocity": 100,
      "chip": "ym2612"
    },
    {
      "channel": 1,
      "note": 105,
      "start": 68.5194,
      "duration": 0.0161,
      "velocity": 105,
      "chip": "ym2612"
    },
    {
      "channel": 0,
      "note": 71,
      "start": 68.521,
      "duration": 0.0161,
      "velocity": 127,
      "chip": "ym2612"
    },
    {
      "channel": 4,
      "note": 76,
      "start": 68.5222,
      "duration": 0.0161,
      "velocity": 94,
      "chip": "ym2612"
    },
    {
      "channel": 3,
      "note": 76,
      "start": 68.5233,
      "duration": 0.0161,
      "velocity": 94,
      "chip": "ym2612"
    },
    {
      "channel": 2,
      "note": 52,
      "start": 68.5245,
      "duration": 0.0161,
      "velocity": 100,
      "chip": "ym2612"
    },
    {
      "channel": 1,
      "note": 105,
      "start": 68.5355,
      "duration": 0.0161,
      "velocity": 105,
      "chip": "ym2612"
    },
    {
      "channel": 0,
      "note": 70,
      "start": 68.5371,
      "duration": 0.0161,
      "velocity": 127,
      "chip": "ym2612"
    },
    {
      "channel": 4,
      "note": 76,
      "start": 68.5383,
      "duration": 0.0161,
      "velocity": 94,
      "chip": "ym2612"
    },
    {
      "channel": 3,
      "note": 76,
      "start": 68.5394,
      "duration": 0.0161,
      "velocity": 94,
      "chip": "ym2612"
    },
    {
      "channel": 2,
      "note": 52,
      "start": 68.5406,
      "duration": 0.0161,
      "velocity": 100,
      "chip": "ym2612"
    },
    {
      "channel": 1,
      "note": 105,
      "start": 68.5516,
      "duration": 0.0178,
      "velocity": 124,
      "chip": "ym2612"
    },
    {
      "channel": 0,
      "note": 68,
      "start": 68.5532,
      "duration": 0.0197,
      "velocity": 115,
      "chip": "ym2612"
    },
    {
      "channel": 4,
      "note": 76,
      "start": 68.5544,
      "duration": 0.0198,
      "velocity": 94,
      "chip": "ym2612"
    },
    {
      "channel": 3,
      "note": 76,
      "start": 68.5555,
      "duration": 0.02,
      "velocity": 94,
      "chip": "ym2612"
    },
    {
      "channel": 2,
      "note": 52,
      "start": 68.5567,
      "duration": 0.023,
      "velocity": 100,
      "chip": "ym2612"
    },
    {
      "channel": 1,
      "note": 64,
      "start": 68.5695,
      "duration": 0.0146,
      "velocity": 124,
      "chip": "ym2612"
    },
    {
      "channel": 0,
      "note": 36,
      "start": 68.5729,
      "duration": 0.013,
      "velocity": 115,
      "chip": "ym2612"
    },
    {
      "channel": 4,
      "note": 76,
      "start": 68.5742,
      "duration": 0.0129,
      "velocity": 94,
      "chip": "ym2612"
    },
    {
      "channel": 3,
      "note": 76,
      "start": 68.5755,
      "duration": 0.0128,
      "velocity": 94,
      "chip": "ym2612"
    },
    {
      "channel": 2,
      "note": 55,
      "start": 68.5797,
      "duration": 0.0098,
      "velocity": 100,
      "chip": "ym2612"
    },
    {
      "channel": 1,
      "note": 64,
      "start": 68.5841,
      "duration": 0.0158,
      "velocity": 124,
      "chip": "ym2612"
    },
    {
      "channel": 0,
      "note": 36,
      "start": 68.5859,
      "duration": 0.0157,
      "velocity": 115,
      "chip": "ym2612"
    },
    {
      "channel": 4,
      "note": 76,
      "start": 68.5871,
      "duration": 0.0156,
      "velocity": 94,
      "chip": "ym2612"
    },
    {
      "channel": 3,
      "note": 76,
      "start": 68.5883,
      "duration": 0.0156,
      "velocity": 94,
      "chip": "ym2612"
    },
    {
      "channel": 2,
      "note": 55,
      "start": 68.5894,
      "duration": 0.0156,
      "velocity": 100,
      "chip": "ym2612"
    },
    {
      "channel": 1,
      "note": 64,
      "start": 68.5999,
      "duration": 0.0161,
      "velocity": 124,
      "chip": "ym2612"
    },
    {
      "channel": 0,
      "note": 37,
      "start": 68.6016,
      "duration": 0.0161,
      "velocity": 115,
      "chip": "ym2612"
    },
    {
      "channel": 4,
      "note": 76,
      "start": 68.6027,
      "duration": 0.0161,
      "velocity": 94,
      "chip": "ym2612"
    },
    {
      "channel": 3,
      "note": 76,
      "start": 68.6039,
      "duration": 0.0161,
      "velocity": 94,
      "chip": "ym2612"
    },
    {
      "channel": 2,
      "note": 55,
      "start": 68.605,
      "duration": 0.0161,
      "velocity": 100,
      "chip": "ym2612"
    },
    {
      "channel": 1,
      "note": 64,
      "start": 68.616,
      "duration": 0.0161,
      "velocity": 124,
      "chip": "ym2612"
    },
    {
      "channel": 0,
      "note": 37,
      "start": 68.6177,
      "duration": 0.0161,
      "velocity": 115,
      "chip": "ym2612"
    },
    {
      "channel": 4,
      "note": 76,
      "start": 68.6188,
      "duration": 0.0161,
      "velocity": 94,
      "chip": "ym2612"
    },
    {
      "channel": 3,
      "note": 76,
      "start": 68.62,
      "duration": 0.0161,
      "velocity": 94,
      "chip": "ym2612"
    },
    {
      "channel": 2,
      "note": 55,
      "start": 68.6211,
      "duration": 0.0161,
      "velocity": 100,
      "chip": "ym2612"
    },
    {
      "channel": 1,
      "note": 64,
      "start": 68.6321,
      "duration": 0.0161,
      "velocity": 124,
      "chip": "ym2612"
    },
    {
      "channel": 0,
      "note": 38,
      "start": 68.6338,
      "duration": 0.0161,
      "velocity": 115,
      "chip": "ym2612"
    },
    {
      "channel": 4,
      "note": 76,
      "start": 68.6349,
      "duration": 0.0161,
      "velocity": 94,
      "chip": "ym2612"
    },
    {
      "channel": 3,
      "note": 76,
      "start": 68.6361,
      "duration": 0.0161,
      "velocity": 94,
      "chip": "ym2612"
    },
    {
      "channel": 2,
      "note": 55,
      "start": 68.6372,
      "duration": 0.0161,
      "velocity": 100,
      "chip": "ym2612"
    },
    {
      "channel": 1,
      "note": 64,
      "start": 68.6482,
      "duration": 0.0161,
      "velocity": 124,
      "chip": "ym2612"
    },
    {
      "channel": 0,
      "note": 38,
      "start": 68.6499,
      "duration": 0.0161,
      "velocity": 115,
      "chip": "ym2612"
    },
    {
      "channel": 4,
      "note": 76,
      "start": 68.651,
      "duration": 0.0162,
      "velocity": 94,
      "chip": "ym2612"
    },
    {
      "channel": 3,
      "note": 76,
      "start": 68.6522,
      "duration": 0.0161,
      "velocity": 94,
      "chip": "ym2612"
    },
    {
      "channel": 2,
      "note": 55,
      "start": 68.6533,
      "duration": 0.0161,
      "velocity": 100,
      "chip": "ym2612"
    },
    {
      "channel": 1,
      "note": 64,
      "start": 68.6643,
      "duration": 0.0177,
      "velocity": 105,
      "chip": "ym2612"
    },
    {
      "channel": 0,
      "note": 39,
      "start": 68.666,
      "duration": 0.0178,
      "velocity": 115,
      "chip": "ym2612"
    },
    {
      "channel": 4,
      "note": 76,
      "start": 68.6672,
      "duration": 0.018,
      "velocity": 94,
      "chip": "ym2612"
    },
    {
      "channel": 3,
      "note": 76,
      "start": 68.6683,
      "duration": 0.0182,
      "velocity": 94,
      "chip": "ym2612"
    },
    {
      "channel": 2,
      "note": 55,
      "start": 68.6694,
      "duration": 0.0185,
      "velocity": 100,
      "chip": "ym2612"
    },
    {
      "channel": 1,
      "note": 105,
      "start": 68.6821,
      "duration": 0.0152,
      "velocity": 105,
      "chip": "ym2612"
    },
    {
      "channel": 0,
      "note": 39,
      "start": 68.6838,
      "duration": 0.0153,
      "velocity": 115,
      "chip": "ym2612"
    },
    {
      "channel": 4,
      "note": 79,
      "start": 68.6852,
      "duration": 0.015,
      "velocity": 94,
      "chip": "ym2612"
    },
    {
      "channel": 3,
      "note": 76,
      "start": 68.6865,
      "duration": 0.0149,
      "velocity": 94,
      "chip": "ym2612"
    },
    {
      "channel": 2,
      "note": 55,
      "start": 68.688,
      "duration": 0.0146,
      "velocity": 100,
      "chip": "ym2612"
    },
    {
      "channel": 1,
      "note": 105,
      "start": 68.6973,
      "duration": 0.0167,
      "velocity": 105,
      "chip": "ym2612"
    },
    {
      "channel": 0,
      "note": 40,
      "start": 68.699,
      "duration": 0.0166,
      "velocity": 115,
      "chip": "ym2612"
    },
    {
      "channel": 4,
      "note": 79,
      "start": 68.7002,
      "duration": 0.0165,
      "velocity": 94,
      "chip": "ym2612"
    },
    {
      "channel": 3,
      "note": 76,
      "start": 68.7015,
      "duration": 0.0165,
      "velocity": 94,
      "chip": "ym2612"
    },
    {
      "channel": 2,
      "note": 55,
      "start": 68.7026,
      "duration": 0.0165,
      "velocity": 100,
      "chip": "ym2612"
    },
    {
      "channel": 1,
      "note": 105,
      "start": 68.714,
      "duration": 0.0163,
      "velocity": 105,
      "chip": "ym2612"
    },
    {
      "channel": 0,
      "note": 40,
      "start": 68.7156,
      "duration": 0.0163,
      "velocity": 115,
      "chip": "ym2612"
    },
    {
      "channel": 4,
      "note": 79,
      "start": 68.7168,
      "duration": 0.0163,
      "velocity": 94,
      "chip": "ym2612"
    },
    {
      "channel": 3,
      "note": 76,
      "start": 68.7179,
      "duration": 0.0163,
      "velocity": 94,
      "chip": "ym2612"
    },
    {
      "channel": 2,
      "note": 55,
      "start": 68.7191,
      "duration": 0.0163,
      "velocity": 100,
      "chip": "ym2612"
    },
    {
      "channel": 1,
      "note": 105,
      "start": 68.7303,
      "duration": 0.0147,
      "velocity": 105,
      "chip": "ym2612"
    },
    {
      "channel": 0,
      "note": 40,
      "start": 68.7319,
      "duration": 0.0147,
      "velocity": 115,
      "chip": "ym2612"
    },
    {
      "channel": 4,
      "note": 79,
      "start": 68.7331,
      "duration": 0.0147,
      "velocity": 94,
      "chip": "ym2612"
    },
    {
      "channel": 3,
      "note": 76,
      "start": 68.7342,
      "duration": 0.0147,
      "velocity": 94,
      "chip": "ym2612"
    },
    {
      "channel": 2,
      "note": 55,
      "start": 68.7354,
      "duration": 0.0147,
      "velocity": 100,
      "chip": "ym2612"
    },
    {
      "channel": 1,
      "note": 105,
      "start": 68.745,
      "duration": 0.0187,
      "velocity": 105,
      "chip": "ym2612"
    },
    {
      "channel": 0,
      "note": 41,
      "start": 68.7466,
      "duration": 0.0187,
      "velocity": 115,
      "chip": "ym2612"
    },
    {
      "channel": 4,
      "note": 79,
      "start": 68.7478,
      "duration": 0.0186,
      "velocity": 94,
      "chip": "ym2612"
    },
    {
      "channel": 3,
      "note": 76,
      "start": 68.7489,
      "duration": 0.0187,
      "velocity": 94,
      "chip": "ym2612"
    },
    {
      "channel": 2,
      "note": 55,
      "start": 68.75,
      "duration": 0.0187,
      "velocity": 100,
      "chip": "ym2612"
    },
    {
      "channel": 1,
      "note": 105,
      "start": 68.7637,
      "duration": 0.0161,
      "velocity": 105,
      "chip": "ym2612"
    },
    {
      "channel": 0,
      "note": 41,
      "start": 68.7653,
      "duration": 0.0161,
      "velocity": 115,
      "chip": "ym2612"
    },
    {
      "channel": 4,
      "note": 79,
      "start": 68.7665,
      "duration": 0.0161,
      "velocity": 94,
      "chip": "ym2612"
    },
    {
      "channel": 3,
      "note": 76,
      "start": 68.7676,
      "duration": 0.0161,
      "velocity": 94,
      "chip": "ym2612"
    },
    {
      "channel": 2,
      "note": 55,
      "start": 68.7688,
      "duration": 0.0161,
      "velocity": 100,
      "chip": "ym2612"
    },
    {
      "channel": 1,
      "note": 105,
      "start": 68.7798,
      "duration": 0.0174,
      "velocity": 124,
      "chip": "ym2612"
    },
    {
      "channel": 0,
      "note": 42,
      "start": 68.7814,
      "duration": 0.0175,
      "velocity": 115,
      "chip": "ym2612"
    },
    {
      "channel": 4,
      "note": 79,
      "start": 68.7826,
      "duration": 0.0176,
      "velocity": 94,
      "chip": "ym2612"
    },
    {
      "channel": 3,
      "note": 76,
      "start": 68.7837,
      "duration": 0.0179,
      "velocity": 94,
      "chip": "ym2612"
    },
    {
      "channel": 2,
      "note": 55,
      "start": 68.7849,
      "duration": 0.0182,
      "velocity": 100,
      "chip": "ym2612"
    },
    {
      "channel": 1,
      "note": 64,
      "start": 68.7973,
      "duration": 0.012,
      "velocity": 124,
      "chip": "ym2612"
    },
    {
      "channel": 0,
      "note": 42,
      "start": 68.7989,
      "duration": 0.0123,
      "velocity": 115,
      "chip": "ym2612"
    },
    {
      "channel": 4,
      "note": 79,
      "start": 68.8002,
      "duration": 0.0123,
      "velocity": 94,
      "chip": "ym2612"
    },
    {
      "channel": 3,
      "note": 79,
      "start": 68.8016,
      "duration": 0.0121,
      "velocity": 94,
      "chip": "ym2612"
    },
    {
      "channel": 2,
      "note": 55,
      "start": 68.803,
      "duration": 0.0118,
      "velocity": 100,
      "chip": "ym2612"
    },
    {
      "channel": 1,
      "note": 64,
      "start": 68.8093,
      "duration": 0.016,
      "velocity": 124,
      "chip": "ym2612"
    },
    {
      "channel": 0,
      "note": 43,
      "start": 68.8112,
      "duration": 0.0185,
      "velocity": 115,
      "chip": "ym2612"
    },
    {
      "channel": 4,
      "note": 79,
      "start": 68.8124,
      "duration": 0.0185,
      "velocity": 94,
      "chip": "ym2612"
    },
    {
      "channel": 3,
      "note": 79,
      "start": 68.8137,
      "duration": 0.0184,
      "velocity": 94,
      "chip": "ym2612"
    },
    {
      "channel": 2,
      "note": 55,
      "start": 68.8149,
      "duration": 0.0183,
      "velocity": 100,
      "chip": "ym2612"
    },
    {
      "channel": 1,
      "note": 64,
      "start": 68.8253,
      "duration": 0.0161,
      "velocity": 124,
      "chip": "ym2612"
    },
    {
      "channel": 0,
      "note": 43,
      "start": 68.8298,
      "duration": 0.0133,
      "velocity": 115,
      "chip": "ym2612"
    },
    {
      "channel": 4,
      "note": 79,
      "start": 68.8309,
      "duration": 0.0161,
      "velocity": 94,
      "chip": "ym2612"
    },
    {
      "channel": 3,
      "note": 79,
      "start": 68.832,
      "duration": 0.0161,
      "velocity": 94,
      "chip": "ym2612"
    },
    {
      "channel": 2,
      "note": 55,
      "start": 68.8332,
      "duration": 0.0161,
      "velocity": 100,
      "chip": "ym2612"
    },
    {
      "channel": 1,
      "note": 64,
      "start": 68.8414,
      "duration": 0.0161,
      "velocity": 124,
      "chip": "ym2612"
    },
    {
      "channel": 0,
      "note": 44,
      "start": 68.8431,
      "duration": 0.0161,
      "velocity": 115,
      "chip": "ym2612"
    },
    {
      "channel": 4,
      "note": 79,
      "start": 68.847,
      "duration": 0.0157,
      "velocity": 94,
      "chip": "ym2612"
    },
    {
      "channel": 3,
      "note": 79,
      "start": 68.8481,
      "duration": 0.0157,
      "velocity": 94,
      "chip": "ym2612"
    },
    {
      "channel": 2,
      "note": 55,
      "start": 68.8493,
      "duration": 0.0157,
      "velocity": 100,
      "chip": "ym2612"
    },
    {
      "channel": 1,
      "note": 64,
      "start": 68.8575,
      "duration": 0.0161,
      "velocity": 124,
      "chip": "ym2612"
    },
    {
      "channel": 0,
      "note": 44,
      "start": 68.8591,
      "duration": 0.0162,
      "velocity": 115,
      "chip": "ym2612"
    },
    {
      "channel": 4,
      "note": 79,
      "start": 68.8627,
      "duration": 0.0137,
      "velocity": 94,
      "chip": "ym2612"
    },
    {
      "channel": 3,
      "note": 79,
      "start": 68.8639,
      "duration": 0.0141,
      "velocity": 94,
      "chip": "ym2612"
    },
    {
      "channel": 2,
      "note": 55,
      "start": 68.865,
      "duration": 0.0141,
      "velocity": 100,
      "chip": "ym2612"
    },
    {
      "channel": 1,
      "note": 64,
      "start": 68.8736,
      "duration": 0.0161,
      "velocity": 124,
      "chip": "ym2612"
    },
    {
      "channel": 0,
      "note": 44,
      "start": 68.8753,
      "duration": 0.0161,
      "velocity": 115,
      "chip": "ym2612"
    },
    {
      "channel": 4,
      "note": 79,
      "start": 68.8764,
      "duration": 0.0161,
      "velocity": 94,
      "chip": "ym2612"
    },
    {
      "channel": 3,
      "note": 79,
      "start": 68.8779,
      "duration": 0.0185,
      "velocity": 94,
      "chip": "ym2612"
    },
    {
      "channel": 2,
      "note": 55,
      "start": 68.879,
      "duration": 0.0185,
      "velocity": 100,
      "chip": "ym2612"
    },
    {
      "channel": 1,
      "note": 64,
      "start": 68.8897,
      "duration": 0.0178,
      "velocity": 105,
      "chip": "ym2612"
    },
    {
      "channel": 0,
      "note": 45,
      "start": 68.8914,
      "duration": 0.0178,
      "velocity": 115,
      "chip": "ym2612"
    },
    {
      "channel": 4,
      "note": 79,
      "start": 68.8925,
      "duration": 0.0208,
      "velocity": 94,
      "chip": "ym2612"
    },
    {
      "channel": 3,
      "note": 79,
      "start": 68.8964,
      "duration": 0.0183,
      "velocity": 94,
      "chip": "ym2612"
    },
    {
      "channel": 2,
      "note": 55,
      "start": 68.8976,
      "duration": 0.0185,
      "velocity": 100,
      "chip": "ym2612"
    },
    {
      "channel": 1,
      "note": 105,
      "start": 68.9075,
      "duration": 0.0144,
      "velocity": 105,
      "chip": "ym2612"
    },
    {
      "channel": 0,
      "note": 45,
      "start": 68.9092,
      "duration": 0.0144,
      "velocity": 115,
      "chip": "ym2612"
    },
    {
      "channel": 4,
      "note": 79,
      "start": 68.9134,
      "duration": 0.0115,
      "velocity": 94,
      "chip": "ym2612"
    },
    {
      "channel": 3,
      "note": 79,
      "start": 68.9147,
      "duration": 0.0114,
      "velocity": 94,
      "chip": "ym2612"
    },
    {
      "channel": 2,
      "note": 55,
      "start": 68.9161,
      "duration": 0.0136,
      "velocity": 100,
      "chip": "ym2612"
    },
    {
      "channel": 1,
      "note": 105,
      "start": 68.9219,
      "duration": 0.0161,
      "velocity": 105,
      "chip": "ym2612"
    },
    {
      "channel": 0,
      "note": 46,
      "start": 68.9237,
      "duration": 0.016,
      "velocity": 115,
      "chip": "ym2612"
    },
    {
      "channel": 4,
      "note": 79,
      "start": 68.9249,
      "duration": 0.016,
      "velocity": 94,
      "chip": "ym2612"
    },
    {
      "channel": 3,
      "note": 79,
      "start": 68.9261,
      "duration": 0.0159,
      "velocity": 94,
      "chip": "ym2612"
    },
    {
      "channel": 2,
      "note": 55,
      "start": 68.9296,
      "duration": 0.0135,
      "velocity": 100,
      "chip": "ym2612"
    },
    {
      "channel": 1,
      "note": 105,
      "start": 68.938,
      "duration": 0.0161,
      "velocity": 105,
      "chip": "ym2612"
    },
    {
      "channel": 0,
      "note": 46,
      "start": 68.9397,
      "duration": 0.0161,
      "velocity": 115,
      "chip": "ym2612"
    },
    {
      "channel": 4,
      "note": 79,
      "start": 68.9408,
      "duration": 0.0161,
      "velocity": 94,
      "chip": "ym2612"
    },
    {
      "channel": 3,
      "note": 79,
      "start": 68.942,
      "duration": 0.0161,
      "velocity": 94,
      "chip": "ym2612"
    },
    {
      "channel": 2,
      "note": 55,
      "start": 68.9431,
      "duration": 0.0161,
      "velocity": 100,
      "chip": "ym2612"
    },
    {
      "channel": 1,
      "note": 105,
      "start": 68.9541,
      "duration": 0.0161,
      "velocity": 105,
      "chip": "ym2612"
    },
    {
      "channel": 0,
      "note": 47,
      "start": 68.9558,
      "duration": 0.0161,
      "velocity": 115,
      "chip": "ym2612"
    },
    {
      "channel": 4,
      "note": 79,
      "start": 68.9569,
      "duration": 0.0161,
      "velocity": 94,
      "chip": "ym2612"
    },
    {
      "channel": 3,
      "note": 79,
      "start": 68.9581,
      "duration": 0.0161,
      "velocity": 94,
      "chip": "ym2612"
    },
    {
      "channel": 2,
      "note": 55,
      "start": 68.9592,
      "duration": 0.0161,
      "velocity": 100,
      "chip": "ym2612"
    },
    {
      "channel": 1,
      "note": 105,
      "start": 68.9702,
      "duration": 0.0161,
      "velocity": 105,
      "chip": "ym2612"
    },
    {
      "channel": 0,
      "note": 47,
      "start": 68.9719,
      "duration": 0.0161,
      "velocity": 115,
      "chip": "ym2612"
    },
    {
      "channel": 4,
      "note": 79,
      "start": 68.973,
      "duration": 0.0161,
      "velocity": 94,
      "chip": "ym2612"
    },
    {
      "channel": 3,
      "note": 79,
      "start": 68.9741,
      "duration": 0.0162,
      "velocity": 94,
      "chip": "ym2612"
    },
    {
      "channel": 2,
      "note": 55,
      "start": 68.9753,
      "duration": 0.0161,
      "velocity": 100,
      "chip": "ym2612"
    },
    {
      "channel": 1,
      "note": 105,
      "start": 68.9863,
      "duration": 0.0161,
      "velocity": 105,
      "chip": "ym2612"
    },
    {
      "channel": 0,
      "note": 47,
      "start": 68.988,
      "duration": 0.0161,
      "velocity": 115,
      "chip": "ym2612"
    },
    {
      "channel": 4,
      "note": 79,
      "start": 68.9892,
      "duration": 0.0161,
      "velocity": 94,
      "chip": "ym2612"
    },
    {
      "channel": 3,
      "note": 79,
      "start": 68.9903,
      "duration": 0.0161,
      "velocity": 94,
      "chip": "ym2612"
    },
    {
      "channel": 2,
      "note": 55,
      "start": 68.9914,
      "duration": 0.0161,
      "velocity": 100,
      "chip": "ym2612"
    },
    {
      "channel": 1,
      "note": 105,
      "start": 69.0024,
      "duration": 0.0184,
      "velocity": 124,
      "chip": "ym2612"
    },
    {
      "channel": 0,
      "note": 48,
      "start": 69.0041,
      "duration": 0.0191,
      "velocity": 115,
      "chip": "ym2612"
    },
    {
      "channel": 4,
      "note": 79,
      "start": 69.0053,
      "duration": 0.0192,
      "velocity": 94,
      "chip": "ym2612"
    },
    {
      "channel": 3,
      "note": 79,
      "start": 69.0064,
      "duration": 0.0195,
      "velocity": 94,
      "chip": "ym2612"
    },
    {
      "channel": 2,
      "note": 55,
      "start": 69.0075,
      "duration": 0.0226,
      "velocity": 100,
      "chip": "ym2612"
    },
    {
      "channel": 1,
      "note": 78,
      "start": 69.0208,
      "duration": 0.0144,
      "velocity": 124,
      "chip": "ym2612"
    },
    {
      "channel": 0,
      "note": 48,
      "start": 69.0232,
      "duration": 0.0139,
      "velocity": 115,
      "chip": "ym2612"
    },
    {
      "channel": 4,
      "note": 79,
      "start": 69.0245,
      "duration": 0.0138,
      "velocity": 94,
      "chip": "ym2612"
    },
    {
      "channel": 3,
      "note": 79,
      "start": 69.0259,
      "duration": 0.0136,
      "velocity": 94,
      "chip": "ym2612"
    },
    {
      "channel": 2,
      "note": 55,
      "start": 69.0301,
      "duration": 0.0106,
      "velocity": 100,
      "chip": "ym2612"
    },
    {
      "channel": 1,
      "note": 76,
      "start": 69.0352,
      "duration": 0.016,
      "velocity": 124,
      "chip": "ym2612"
    },
    {
      "channel": 0,
      "note": 49,
      "start": 69.0371,
      "duration": 0.0152,
      "velocity": 1,
      "chip": "ym2612"
    },
    {
      "channel": 4,
      "note": 79,
      "start": 69.0383,
      "duration": 0.0151,
      "velocity": 94,
      "chip": "ym2612"
    },
    {
      "channel": 3,
      "note": 79,
      "start": 69.0395,
      "duration": 0.0151,
      "velocity": 94,
      "chip": "ym2612"
    },
    {
      "channel": 2,
      "note": 55,
      "start": 69.0407,
      "duration": 0.015,
      "velocity": 100,
      "chip": "ym2612"
    },
    {
      "channel": 1,
      "note": 75,
      "start": 69.0512,
      "duration": 0.0161,
      "velocity": 124,
      "chip": "ym2612"
    },
    {
      "channel": 4,
      "note": 79,
      "start": 69.0534,
      "duration": 0.0153,
      "velocity": 94,
      "chip": "ym2612"
    },
    {
      "channel": 3,
      "note": 79,
      "start": 69.0546,
      "duration": 0.0153,
      "velocity": 94,
      "chip": "ym2612"
    },
    {
      "channel": 2,
      "note": 55,
      "start": 69.0557,
      "duration": 0.0153,
      "velocity": 100,
      "chip": "ym2612"
    },
    {
      "channel": 1,
      "note": 74,
      "start": 69.0673,
      "duration": 0.0161,
      "velocity": 124,
      "chip": "ym2612"
    },
    {
      "channel": 4,
      "note": 79,
      "start": 69.0687,
      "duration": 0.0161,
      "velocity": 94,
      "chip": "ym2612"
    },
    {
      "channel": 3,
      "note": 79,
      "start": 69.0698,
      "duration": 0.0161,
      "velocity": 94,
      "chip": "ym2612"
    },
    {
      "channel": 2,
      "note": 55,
      "start": 69.071,
      "duration": 0.0161,
      "velocity": 100,
      "chip": "ym2612"
    },
    {
      "channel": 1,
      "note": 72,
      "start": 69.0834,
      "duration": 0.0162,
      "velocity": 124,
      "chip": "ym2612"
    },
    {
      "channel": 4,
      "note": 79,
      "start": 69.0848,
      "duration": 0.0161,
      "velocity": 94,
      "chip": "ym2612"
    },
    {
      "channel": 3,
      "note": 79,
      "start": 69.0859,
      "duration": 0.0161,
      "velocity": 94,
      "chip": "ym2612"
    },
    {
      "channel": 2,
      "note": 55,
      "start": 69.0871,
      "duration": 0.0161,
      "velocity": 100,
      "chip": "ym2612"
    },
    {
      "channel": 1,
      "note": 71,
      "start": 69.0995,
      "duration": 0.0161,
      "velocity": 124,
      "chip": "ym2612"
    },
    {
      "channel": 4,
      "note": 79,
      "start": 69.1009,
      "duration": 0.0161,
      "velocity": 94,
      "chip": "ym2612"
    },
    {
      "channel": 3,
      "note": 79,
      "start": 69.102,
      "duration": 0.0162,
      "velocity": 94,
      "chip": "ym2612"
    },
    {
      "channel": 2,
      "note": 55,
      "start": 69.1032,
      "duration": 0.0161,
      "velocity": 100,
      "chip": "ym2612"
    },
    {
      "channel": 1,
      "note": 70,
      "start": 69.1156,
      "duration": 0.0161,
      "velocity": 124,
      "chip": "ym2612"
    },
    {
      "channel": 4,
      "note": 79,
      "start": 69.117,
      "duration": 0.0168,
      "velocity": 94,
      "chip": "ym2612"
    },
    {
      "channel": 3,
      "note": 79,
      "start": 69.1182,
      "duration": 0.017,
      "velocity": 94,
      "chip": "ym2612"
    },
    {
      "channel": 2,
      "note": 55,
      "start": 69.1193,
      "duration": 0.0173,
      "velocity": 100,
      "chip": "ym2612"
    },
    {
      "channel": 1,
      "note": 69,
      "start": 69.1317,
      "duration": 0.0161,
      "velocity": 124,
      "chip": "ym2612"
    },
    {
      "channel": 4,
      "note": 74,
      "start": 69.1339,
      "duration": 0.0154,
      "velocity": 94,
      "chip": "ym2612"
    },
    {
      "channel": 3,
      "note": 79,
      "start": 69.1352,
      "duration": 0.0153,
      "velocity": 94,
      "chip": "ym2612"
    },
    {
      "channel": 2,
      "note": 55,
      "start": 69.1366,
      "duration": 0.0151,
      "velocity": 100,
      "chip": "ym2612"
    },
    {
      "channel": 1,
      "note": 68,
      "start": 69.1478,
      "duration": 0.0166,
      "velocity": 124,
      "chip": "ym2612"
    },
    {
      "channel": 4,
      "note": 74,
      "start": 69.1493,
      "duration": 0.0165,
      "velocity": 94,
      "chip": "ym2612"
    },
    {
      "channel": 3,
      "note": 79,
      "start": 69.1505,
      "duration": 0.0165,
      "velocity": 94,
      "chip": "ym2612"
    },
    {
      "channel": 2,
      "note": 55,
      "start": 69.1517,
      "duration": 0.0164,
      "velocity": 100,
      "chip": "ym2612"
    },
    {
      "channel": 1,
      "note": 66,
      "start": 69.1644,
      "duration": 0.0167,
      "velocity": 124,
      "chip": "ym2612"
    },
    {
      "channel": 4,
      "note": 74,
      "start": 69.1658,
      "duration": 0.0167,
      "velocity": 94,
      "chip": "ym2612"
    },
    {
      "channel": 3,
      "note": 79,
      "start": 69.167,
      "duration": 0.0167,
      "velocity": 94,
      "chip": "ym2612"
    },
    {
      "channel": 2,
      "note": 55,
      "start": 69.1681,
      "duration": 0.0167,
      "velocity": 100,
      "chip": "ym2612"
    },
    {
      "channel": 1,
      "note": 65,
      "start": 69.1811,
      "duration": 0.0163,
      "velocity": 124,
      "chip": "ym2612"
    },
    {
      "channel": 4,
      "note": 74,
      "start": 69.1825,
      "duration": 0.0163,
      "velocity": 94,
      "chip": "ym2612"
    },
    {
      "channel": 3,
      "note": 79,
      "start": 69.1836,
      "duration": 0.0163,
      "velocity": 94,
      "chip": "ym2612"
    },
    {
      "channel": 2,
      "note": 55,
      "start": 69.1848,
      "duration": 0.0163,
      "velocity": 100,
      "chip": "ym2612"
    },
    {
      "channel": 1,
      "note": 64,
      "start": 69.1974,
      "duration": 0.0148,
      "velocity": 124,
      "chip": "ym2612"
    },
    {
      "channel": 4,
      "note": 74,
      "start": 69.1988,
      "duration": 0.0148,
      "velocity": 94,
      "chip": "ym2612"
    },
    {
      "channel": 3,
      "note": 79,
      "start": 69.2,
      "duration": 0.0148,
      "velocity": 94,
      "chip": "ym2612"
    },
    {
      "channel": 2,
      "note": 55,
      "start": 69.2011,
      "duration": 0.0148,
      "velocity": 100,
      "chip": "ym2612"
    },
    {
      "channel": 1,
      "note": 62,
      "start": 69.2122,
      "duration": 0.0189,
      "velocity": 124,
      "chip": "ym2612"
    },
    {
      "channel": 4,
      "note": 74,
      "start": 69.2136,
      "duration": 0.0189,
      "velocity": 94,
      "chip": "ym2612"
    },
    {
      "channel": 3,
      "note": 79,
      "start": 69.2147,
      "duration": 0.0188,
      "velocity": 94,
      "chip": "ym2612"
    },
    {
      "channel": 2,
      "note": 55,
      "start": 69.2159,
      "duration": 0.0188,
      "velocity": 100,
      "chip": "ym2612"
    },
    {
      "channel": 1,
      "note": 61,
      "start": 69.2311,
      "duration": 0.0161,
      "velocity": 124,
      "chip": "ym2612"
    },
    {
      "channel": 4,
      "note": 74,
      "start": 69.2325,
      "duration": 0.0167,
      "velocity": 94,
      "chip": "ym2612"
    },
    {
      "channel": 3,
      "note": 79,
      "start": 69.2336,
      "duration": 0.017,
      "velocity": 94,
      "chip": "ym2612"
    },
    {
      "channel": 2,
      "note": 55,
      "start": 69.2347,
      "duration": 0.0173,
      "velocity": 100,
      "chip": "ym2612"
    },
    {
      "channel": 1,
      "note": 60,
      "start": 69.2472,
      "duration": 0.0157,
      "velocity": 124,
      "chip": "ym2612"
    },
    {
      "channel": 4,
      "note": 74,
      "start": 69.2492,
      "duration": 0.0152,
      "velocity": 94,
      "chip": "ym2612"
    },
    {
      "channel": 3,
      "note": 74,
      "start": 69.2506,
      "duration": 0.015,
      "velocity": 94,
      "chip": "ym2612"
    },
    {
      "channel": 2,
      "note": 55,
      "start": 69.2521,
      "duration": 0.0147,
      "velocity": 100,
      "chip": "ym2612"
    },
    {
      "channel": 1,
      "note": 59,
      "start": 69.2629,
      "duration": 0.014,
      "velocity": 124,
      "chip": "ym2612"
    },
    {
      "channel": 4,
      "note": 74,
      "start": 69.2644,
      "duration": 0.0139,
      "velocity": 94,
      "chip": "ym2612"
    },
    {
      "channel": 3,
      "note": 74,
      "start": 69.2656,
      "duration": 0.0138,
      "velocity": 94,
      "chip": "ym2612"
    },
    {
      "channel": 2,
      "note": 55,
      "start": 69.2668,
      "duration": 0.0138,
      "velocity": 100,
      "chip": "ym2612"
    },
    {
      "channel": 1,
      "note": 57,
      "start": 69.2769,
      "duration": 0.0159,
      "velocity": 124,
      "chip": "ym2612"
    },
    {
      "channel": 4,
      "note": 74,
      "start": 69.2783,
      "duration": 0.0186,
      "velocity": 94,
      "chip": "ym2612"
    },
    {
      "channel": 3,
      "note": 74,
      "start": 69.2794,
      "duration": 0.0186,
      "velocity": 94,
      "chip": "ym2612"
    },
    {
      "channel": 2,
      "note": 55,
      "start": 69.2806,
      "duration": 0.0186,
      "velocity": 100,
      "chip": "ym2612"
    },
    {
      "channel": 1,
      "note": 56,
      "start": 69.2927,
      "duration": 0.0161,
      "velocity": 124,
      "chip": "ym2612"
    },
    {
      "channel": 4,
      "note": 74,
      "start": 69.2969,
      "duration": 0.0161,
      "velocity": 94,
      "chip": "ym2612"
    },
    {
      "channel": 3,
      "note": 74,
      "start": 69.298,
      "duration": 0.0161,
      "velocity": 94,
      "chip": "ym2612"
    },
    {
      "channel": 2,
      "note": 55,
      "start": 69.2992,
      "duration": 0.0161,
      "velocity": 100,
      "chip": "ym2612"
    },
    {
      "channel": 1,
      "note": 55,
      "start": 69.3088,
      "duration": 0.0161,
      "velocity": 124,
      "chip": "ym2612"
    },
    {
      "channel": 4,
      "note": 74,
      "start": 69.313,
      "duration": 0.0134,
      "velocity": 94,
      "chip": "ym2612"
    },
    {
      "channel": 3,
      "note": 74,
      "start": 69.3141,
      "duration": 0.0157,
      "velocity": 94,
      "chip": "ym2612"
    },
    {
      "channel": 2,
      "note": 55,
      "start": 69.3153,
      "duration": 0.0157,
      "velocity": 100,
      "chip": "ym2612"
    },
    {
      "channel": 1,
      "note": 53,
      "start": 69.3249,
      "duration": 0.0161,
      "velocity": 124,
      "chip": "ym2612"
    },
    {
      "channel": 4,
      "note": 74,
      "start": 69.3263,
      "duration": 0.0161,
      "velocity": 94,
      "chip": "ym2612"
    },
    {
      "channel": 3,
      "note": 74,
      "start": 69.3298,
      "duration": 0.0141,
      "velocity": 94,
      "chip": "ym2612"
    },
    {
      "channel": 2,
      "note": 55,
      "start": 69.331,
      "duration": 0.0141,
      "velocity": 100,
      "chip": "ym2612"
    },
    {
      "channel": 1,
      "note": 52,
      "start": 69.341,
      "duration": 0.0161,
      "velocity": 124,
      "chip": "ym2612"
    },
    {
      "channel": 4,
      "note": 74,
      "start": 69.3424,
      "duration": 0.023,
      "velocity": 94,
      "chip": "ym2612"
    },
    {
      "channel": 3,
      "note": 74,
      "start": 69.3439,
      "duration": 0.0229,
      "velocity": 94,
      "chip": "ym2612"
    },
    {
      "channel": 2,
      "note": 55,
      "start": 69.345,
      "duration": 0.0232,
      "velocity": 100,
      "chip": "ym2612"
    },
    {
      "channel": 1,
      "note": 51,
      "start": 69.3571,
      "duration": 0.0153,
      "velocity": 1,
      "chip": "ym2612"
    },
    {
      "channel": 0,
      "note": 36,
      "start": 69.364,
      "duration": 0.0123,
      "velocity": 115,
      "chip": "ym2612"
    },
    {
      "channel": 4,
      "note": 74,
      "start": 69.3655,
      "duration": 0.0148,
      "velocity": 94,
      "chip": "ym2612"
    },
    {
      "channel": 3,
      "note": 74,
      "start": 69.3668,
      "duration": 0.0147,
      "velocity": 94,
      "chip": "ym2612"
    },
    {
      "channel": 2,
      "note": 55,
      "start": 69.3683,
      "duration": 0.0144,
      "velocity": 100,
      "chip": "ym2612"
    },
    {
      "channel": 1,
      "note": 51,
      "start": 69.3746,
      "duration": 0.0142,
      "velocity": 105,
      "chip": "ym2612"
    },
    {
      "channel": 0,
      "note": 36,
      "start": 69.3763,
      "duration": 0.0142,
      "velocity": 115,
      "chip": "ym2612"
    },
    {
      "channel": 4,
      "note": 74,
      "start": 69.3803,
      "duration": 0.0113,
      "velocity": 94,
      "chip": "ym2612"
    },
    {
      "channel": 3,
      "note": 74,
      "start": 69.3815,
      "duration": 0.0113,
      "velocity": 94,
      "chip": "ym2612"
    },
    {
      "channel": 2,
      "note": 55,
      "start": 69.3827,
      "duration": 0.0137,
      "velocity": 100,
      "chip": "ym2612"
    },
    {
      "channel": 1,
      "note": 105,
      "start": 69.3888,
      "duration": 0.0161,
      "velocity": 105,
      "chip": "ym2612"
    },
    {
      "channel": 0,
      "note": 37,
      "start": 69.3905,
      "duration": 0.0161,
      "velocity": 115,
      "chip": "ym2612"
    },
    {
      "channel": 4,
      "note": 74,
      "start": 69.3917,
      "duration": 0.0161,
      "velocity": 94,
      "chip": "ym2612"
    },
    {
      "channel": 3,
      "note": 74,
      "start": 69.3928,
      "duration": 0.0161,
      "velocity": 94,
      "chip": "ym2612"
    },
    {
      "channel": 2,
      "note": 55,
      "start": 69.3963,
      "duration": 0.014,
      "velocity": 100,
      "chip": "ym2612"
    },
    {
      "channel": 1,
      "note": 105,
      "start": 69.4049,
      "duration": 0.0161,
      "velocity": 105,
      "chip": "ym2612"
    },
    {
      "channel": 0,
      "note": 37,
      "start": 69.4066,
      "duration": 0.0161,
      "velocity": 115,
      "chip": "ym2612"
    },
    {
      "channel": 4,
      "note": 74,
      "start": 69.4078,
      "duration": 0.0161,
      "velocity": 94,
      "chip": "ym2612"
    },
    {
      "channel": 3,
      "note": 74,
      "start": 69.4089,
      "duration": 0.0161,
      "velocity": 94,
      "chip": "ym2612"
    },
    {
      "channel": 2,
      "note": 55,
      "start": 69.4104,
      "duration": 0.0158,
      "velocity": 100,
      "chip": "ym2612"
    },
    {
      "channel": 1,
      "note": 105,
      "start": 69.421,
      "duration": 0.0161,
      "velocity": 105,
      "chip": "ym2612"
    },
    {
      "channel": 0,
      "note": 38,
      "start": 69.4227,
      "duration": 0.0161,
      "velocity": 115,
      "chip": "ym2612"
    },
    {
      "channel": 4,
      "note": 74,
      "start": 69.4238,
      "duration": 0.0162,
      "velocity": 94,
      "chip": "ym2612"
    },
    {
      "channel": 3,
      "note": 74,
      "start": 69.425,
      "duration": 0.0161,
      "velocity": 94,
      "chip": "ym2612"
    },
    {
      "channel": 2,
      "note": 55,
      "start": 69.4261,
      "duration": 0.0161,
      "velocity": 100,
      "chip": "ym2612"
    },
    {
      "channel": 1,
      "note": 105,
      "start": 69.4371,
      "duration": 0.0161,
      "velocity": 105,
      "chip": "ym2612"
    },
    {
      "channel": 0,
      "note": 38,
      "start": 69.4388,
      "duration": 0.0161,
      "velocity": 115,
      "chip": "ym2612"
    },
    {
      "channel": 4,
      "note": 74,
      "start": 69.44,
      "duration": 0.0161,
      "velocity": 94,
      "chip": "ym2612"
    },
    {
      "channel": 3,
      "note": 74,
      "start": 69.4411,
      "duration": 0.0161,
      "velocity": 94,
      "chip": "ym2612"
    },
    {
      "channel": 2,
      "note": 55,
      "start": 69.4422,
      "duration": 0.0161,
      "velocity": 100,
      "chip": "ym2612"
    },
    {
      "channel": 1,
      "note": 105,
      "start": 69.4532,
      "duration": 0.0178,
      "velocity": 124,
      "chip": "ym2612"
    },
    {
      "channel": 0,
      "note": 39,
      "start": 69.4549,
      "duration": 0.0197,
      "velocity": 115,
      "chip": "ym2612"
    },
    {
      "channel": 4,
      "note": 74,
      "start": 69.4561,
      "duration": 0.0198,
      "velocity": 94,
      "chip": "ym2612"
    },
    {
      "channel": 3,
      "note": 74,
      "start": 69.4572,
      "duration": 0.0204,
      "velocity": 94,
      "chip": "ym2612"
    },
    {
      "channel": 2,
      "note": 55,
      "start": 69.4583,
      "duration": 0.0208,
      "velocity": 100,
      "chip": "ym2612"
    },
    {
      "channel": 1,
      "note": 64,
      "start": 69.4711,
      "duration": 0.0144,
      "velocity": 124,
      "chip": "ym2612"
    },
    {
      "channel": 0,
      "note": 36,
      "start": 69.4745,
      "duration": 0.0127,
      "velocity": 115,
      "chip": "ym2612"
    },
    {
      "channel": 4,
      "note": 79,
      "start": 69.476,
      "duration": 0.0125,
      "velocity": 94,
      "chip": "ym2612"
    },
    {
      "channel": 3,
      "note": 74,
      "start": 69.4777,
      "duration": 0.012,
      "velocity": 94,
      "chip": "ym2612"
    },
    {
      "channel": 2,
      "note": 55,
      "start": 69.4791,
      "duration": 0.0118,
      "velocity": 100,
      "chip": "ym2612"
    },
    {
      "channel": 1,
      "note": 64,
      "start": 69.4855,
      "duration": 0.016,
      "velocity": 124,
      "chip": "ym2612"
    },
    {
      "channel": 0,
      "note": 36,
      "start": 69.4873,
      "duration": 0.016,
      "velocity": 115,
      "chip": "ym2612"
    },
    {
      "channel": 4,
      "note": 79,
      "start": 69.4885,
      "duration": 0.0159,
      "velocity": 94,
      "chip": "ym2612"
    },
    {
      "channel": 3,
      "note": 74,
      "start": 69.4897,
      "duration": 0.0158,
      "velocity": 94,
      "chip": "ym2612"
    },
    {
      "channel": 2,
      "note": 55,
      "start": 69.4909,
      "duration": 0.0158,
      "velocity": 100,
      "chip": "ym2612"
    },
    {
      "channel": 1,
      "note": 64,
      "start": 69.5015,
      "duration": 0.0161,
      "velocity": 124,
      "chip": "ym2612"
    },
    {
      "channel": 0,
      "note": 37,
      "start": 69.5032,
      "duration": 0.0161,
      "velocity": 115,
      "chip": "ym2612"
    },
    {
      "channel": 4,
      "note": 79,
      "start": 69.5044,
      "duration": 0.0162,
      "velocity": 94,
      "chip": "ym2612"
    },
    {
      "channel": 3,
      "note": 74,
      "start": 69.5055,
      "duration": 0.0162,
      "velocity": 94,
      "chip": "ym2612"
    },
    {
      "channel": 2,
      "note": 55,
      "start": 69.5067,
      "duration": 0.0161,
      "velocity": 100,
      "chip": "ym2612"
    },
    {
      "channel": 1,
      "note": 64,
      "start": 69.5177,
      "duration": 0.0161,
      "velocity": 124,
      "chip": "ym2612"
    },
    {
      "channel": 0,
      "note": 37,
      "start": 69.5193,
      "duration": 0.0161,
      "velocity": 115,
      "chip": "ym2612"
    },
    {
      "channel": 4,
      "note": 79,
      "start": 69.5205,
      "duration": 0.0161,
      "velocity": 94,
      "chip": "ym2612"
    },
    {
      "channel": 3,
      "note": 74,
      "start": 69.5217,
      "duration": 0.0161,
      "velocity": 94,
      "chip": "ym2612"
    },
    {
      "channel": 2,
      "note": 55,
      "start": 69.5228,
      "duration": 0.0161,
      "velocity": 100,
      "chip": "ym2612"
    },
    {
      "channel": 1,
      "note": 64,
      "start": 69.5338,
      "duration": 0.0161,
      "velocity": 124,
      "chip": "ym2612"
    },
    {
      "channel": 0,
      "note": 38,
      "start": 69.5354,
      "duration": 0.0161,
      "velocity": 115,
      "chip": "ym2612"
    },
    {
      "channel": 4,
      "note": 79,
      "start": 69.5366,
      "duration": 0.0161,
      "velocity": 94,
      "chip": "ym2612"
    },
    {
      "channel": 3,
      "note": 74,
      "start": 69.5378,
      "duration": 0.0161,
      "velocity": 94,
      "chip": "ym2612"
    },
    {
      "channel": 2,
      "note": 55,
      "start": 69.5388,
      "duration": 0.0161,
      "velocity": 100,
      "chip": "ym2612"
    },
    {
      "channel": 1,
      "note": 64,
      "start": 69.5499,
      "duration": 0.0161,
      "velocity": 124,
      "chip": "ym2612"
    },
    {
      "channel": 0,
      "note": 38,
      "start": 69.5515,
      "duration": 0.0161,
      "velocity": 115,
      "chip": "ym2612"
    },
    {
      "channel": 4,
      "note": 79,
      "start": 69.5527,
      "duration": 0.0161,
      "velocity": 94,
      "chip": "ym2612"
    },
    {
      "channel": 3,
      "note": 74,
      "start": 69.5539,
      "duration": 0.0161,
      "velocity": 94,
      "chip": "ym2612"
    },
    {
      "channel": 2,
      "note": 55,
      "start": 69.5549,
      "duration": 0.0161,
      "velocity": 100,
      "chip": "ym2612"
    },
    {
      "channel": 1,
      "note": 64,
      "start": 69.566,
      "duration": 0.0177,
      "velocity": 105,
      "chip": "ym2612"
    },
    {
      "channel": 0,
      "note": 39,
      "start": 69.5676,
      "duration": 0.0178,
      "velocity": 115,
      "chip": "ym2612"
    },
    {
      "channel": 4,
      "note": 79,
      "start": 69.5688,
      "duration": 0.0179,
      "velocity": 94,
      "chip": "ym2612"
    },
    {
      "channel": 3,
      "note": 74,
      "start": 69.57,
      "duration": 0.0181,
      "velocity": 94,
      "chip": "ym2612"
    },
    {
      "channel": 2,
      "note": 55,
      "start": 69.571,
      "duration": 0.0185,
      "velocity": 100,
      "chip": "ym2612"
    },
    {
      "channel": 1,
      "note": 105,
      "start": 69.5838,
      "duration": 0.0144,
      "velocity": 105,
      "chip": "ym2612"
    },
    {
      "channel": 0,
      "note": 39,
      "start": 69.5854,
      "duration": 0.0144,
      "velocity": 115,
      "chip": "ym2612"
    },
    {
      "channel": 4,
      "note": 79,
      "start": 69.5868,
      "duration": 0.0143,
      "velocity": 94,
      "chip": "ym2612"
    },
    {
      "channel": 3,
      "note": 79,
      "start": 69.5882,
      "duration": 0.0141,
      "velocity": 94,
      "chip": "ym2612"
    },
    {
      "channel": 2,
      "note": 55,
      "start": 69.5895,
      "duration": 0.0139,
      "velocity": 100,
      "chip": "ym2612"
    },
    {
      "channel": 1,
      "note": 105,
      "start": 69.5982,
      "duration": 0.016,
      "velocity": 105,
      "chip": "ym2612"
    },
    {
      "channel": 0,
      "note": 40,
      "start": 69.5999,
      "duration": 0.016,
      "velocity": 115,
      "chip": "ym2612"
    },
    {
      "channel": 4,
      "note": 79,
      "start": 69.6011,
      "duration": 0.016,
      "velocity": 94,
      "chip": "ym2612"
    },
    {
      "channel": 3,
      "note": 79,
      "start": 69.6023,
      "duration": 0.016,
      "velocity": 94,
      "chip": "ym2612"
    },
    {
      "channel": 2,
      "note": 55,
      "start": 69.6035,
      "duration": 0.0158,
      "velocity": 100,
      "chip": "ym2612"
    },
    {
      "channel": 1,
      "note": 105,
      "start": 69.6142,
      "duration": 0.0164,
      "velocity": 105,
      "chip": "ym2612"
    },
    {
      "channel": 0,
      "note": 40,
      "start": 69.6159,
      "duration": 0.0164,
      "velocity": 115,
      "chip": "ym2612"
    },
    {
      "channel": 4,
      "note": 79,
      "start": 69.6171,
      "duration": 0.0163,
      "velocity": 94,
      "chip": "ym2612"
    },
    {
      "channel": 3,
      "note": 79,
      "start": 69.6183,
      "duration": 0.0163,
      "velocity": 94,
      "chip": "ym2612"
    },
    {
      "channel": 2,
      "note": 55,
      "start": 69.6193,
      "duration": 0.0164,
      "velocity": 100,
      "chip": "ym2612"
    },
    {
      "channel": 1,
      "note": 105,
      "start": 69.6307,
      "duration": 0.0167,
      "velocity": 105,
      "chip": "ym2612"
    },
    {
      "channel": 0,
      "note": 40,
      "start": 69.6323,
      "duration": 0.0167,
      "velocity": 115,
      "chip": "ym2612"
    },
    {
      "channel": 4,
      "note": 79,
      "start": 69.6334,
      "duration": 0.0167,
      "velocity": 94,
      "chip": "ym2612"
    },
    {
      "channel": 3,
      "note": 79,
      "start": 69.6346,
      "duration": 0.0167,
      "velocity": 94,
      "chip": "ym2612"
    },
    {
      "channel": 2,
      "note": 55,
      "start": 69.6357,
      "duration": 0.0167,
      "velocity": 100,
      "chip": "ym2612"
    },
    {
      "channel": 1,
      "note": 105,
      "start": 69.6473,
      "duration": 0.0163,
      "velocity": 105,
      "chip": "ym2612"
    },
    {
      "channel": 0,
      "note": 41,
      "start": 69.649,
      "duration": 0.0163,
      "velocity": 115,
      "chip": "ym2612"
    },
    {
      "channel": 4,
      "note": 79,
      "start": 69.6501,
      "duration": 0.0163,
      "velocity": 94,
      "chip": "ym2612"
    },
    {
      "channel": 3,
      "note": 79,
      "start": 69.6513,
      "duration": 0.0163,
      "velocity": 94,
      "chip": "ym2612"
    },
    {
      "channel": 2,
      "note": 55,
      "start": 69.6524,
      "duration": 0.0163,
      "velocity": 100,
      "chip": "ym2612"
    },
    {
      "channel": 1,
      "note": 105,
      "start": 69.6636,
      "duration": 0.0151,
      "velocity": 105,
      "chip": "ym2612"
    },
    {
      "channel": 0,
      "note": 41,
      "start": 69.6653,
      "duration": 0.0151,
      "velocity": 115,
      "chip": "ym2612"
    },
    {
      "channel": 4,
      "note": 79,
      "start": 69.6664,
      "duration": 0.0151,
      "velocity": 94,
      "chip": "ym2612"
    },
    {
      "channel": 3,
      "note": 79,
      "start": 69.6676,
      "duration": 0.0151,
      "velocity": 94,
      "chip": "ym2612"
    },
    {
      "channel": 2,
      "note": 55,
      "start": 69.6687,
      "duration": 0.0151,
      "velocity": 100,
      "chip": "ym2612"
    },
    {
      "channel": 1,
      "note": 105,
      "start": 69.6787,
      "duration": 0.0203,
      "velocity": 124,
      "chip": "ym2612"
    },
    {
      "channel": 0,
      "note": 42,
      "start": 69.6803,
      "duration": 0.0203,
      "velocity": 115,
      "chip": "ym2612"
    },
    {
      "channel": 4,
      "note": 79,
      "start": 69.6815,
      "duration": 0.0206,
      "velocity": 94,
      "chip": "ym2612"
    },
    {
      "channel": 3,
      "note": 79,
      "start": 69.6826,
      "duration": 0.0208,
      "velocity": 94,
      "chip": "ym2612"
    },
    {
      "channel": 2,
      "note": 55,
      "start": 69.6838,
      "duration": 0.0211,
      "velocity": 100,
      "chip": "ym2612"
    },
    {
      "channel": 1,
      "note": 64,
      "start": 69.699,
      "duration": 0.0146,
      "velocity": 124,
      "chip": "ym2612"
    },
    {
      "channel": 0,
      "note": 42,
      "start": 69.7007,
      "duration": 0.0146,
      "velocity": 115,
      "chip": "ym2612"
    },
    {
      "channel": 4,
      "note": 79,
      "start": 69.7022,
      "duration": 0.0144,
      "velocity": 94,
      "chip": "ym2612"
    },
    {
      "channel": 3,
      "note": 79,
      "start": 69.7034,
      "duration": 0.0143,
      "velocity": 94,
      "chip": "ym2612"
    },
    {
      "channel": 2,
      "note": 55,
      "start": 69.7049,
      "duration": 0.0141,
      "velocity": 100,
      "chip": "ym2612"
    },
    {
      "channel": 1,
      "note": 64,
      "start": 69.7137,
      "duration": 0.0157,
      "velocity": 124,
      "chip": "ym2612"
    },
    {
      "channel": 0,
      "note": 43,
      "start": 69.7153,
      "duration": 0.0157,
      "velocity": 115,
      "chip": "ym2612"
    },
    {
      "channel": 4,
      "note": 79,
      "start": 69.7166,
      "duration": 0.0156,
      "velocity": 94,
      "chip": "ym2612"
    },
    {
      "channel": 3,
      "note": 79,
      "start": 69.7177,
      "duration": 0.0156,
      "velocity": 94,
      "chip": "ym2612"
    },
    {
      "channel": 2,
      "note": 55,
      "start": 69.7189,
      "duration": 0.0155,
      "velocity": 100,
      "chip": "ym2612"
    },
    {
      "channel": 1,
      "note": 64,
      "start": 69.7294,
      "duration": 0.0137,
      "velocity": 124,
      "chip": "ym2612"
    },
    {
      "channel": 0,
      "note": 43,
      "start": 69.731,
      "duration": 0.014,
      "velocity": 115,
      "chip": "ym2612"
    },
    {
      "channel": 4,
      "note": 79,
      "start": 69.7322,
      "duration": 0.0141,
      "velocity": 94,
      "chip": "ym2612"
    },
    {
      "channel": 3,
      "note": 79,
      "start": 69.7333,
      "duration": 0.0141,
      "velocity": 94,
      "chip": "ym2612"
    },
    {
      "channel": 2,
      "note": 55,
      "start": 69.7345,
      "duration": 0.014,
      "velocity": 100,
      "chip": "ym2612"
    },
    {
      "channel": 1,
      "note": 64,
      "start": 69.7431,
      "duration": 0.0161,
      "velocity": 124,
      "chip": "ym2612"
    },
    {
      "channel": 0,
      "note": 44,
      "start": 69.745,
      "duration": 0.0186,
      "velocity": 115,
      "chip": "ym2612"
    },
    {
      "channel": 4,
      "note": 79,
      "start": 69.7462,
      "duration": 0.0185,
      "velocity": 94,
      "chip": "ym2612"
    },
    {
      "channel": 3,
      "note": 79,
      "start": 69.7474,
      "duration": 0.0185,
      "velocity": 94,
      "chip": "ym2612"
    },
    {
      "channel": 2,
      "note": 55,
      "start": 69.7485,
      "duration": 0.0186,
      "velocity": 100,
      "chip": "ym2612"
    },
    {
      "channel": 1,
      "note": 64,
      "start": 69.7591,
      "duration": 0.0161,
      "velocity": 124,
      "chip": "ym2612"
    },
    {
      "channel": 0,
      "note": 44,
      "start": 69.7636,
      "duration": 0.0161,
      "velocity": 115,
      "chip": "ym2612"
    },
    {
      "channel": 4,
      "note": 79,
      "start": 69.7647,
      "duration": 0.0161,
      "velocity": 94,
      "chip": "ym2612"
    },
    {
      "channel": 3,
      "note": 79,
      "start": 69.7659,
      "duration": 0.0161,
      "velocity": 94,
      "chip": "ym2612"
    },
    {
      "channel": 2,
      "note": 55,
      "start": 69.767,
      "duration": 0.0161,
      "velocity": 100,
      "chip": "ym2612"
    },
    {
      "channel": 1,
      "note": 64,
      "start": 69.7752,
      "duration": 0.0161,
      "velocity": 124,
      "chip": "ym2612"
    },
    {
      "channel": 0,
      "note": 44,
      "start": 69.7797,
      "duration": 0.0134,
      "velocity": 115,
      "chip": "ym2612"
    },
    {
      "channel": 4,
      "note": 79,
      "start": 69.7808,
      "duration": 0.0158,
      "velocity": 94,
      "chip": "ym2612"
    },
    {
      "channel": 3,
      "note": 79,
      "start": 69.782,
      "duration": 0.0157,
      "velocity": 94,
      "chip": "ym2612"
    },
    {
      "channel": 2,
      "note": 55,
      "start": 69.7831,
      "duration": 0.0157,
      "velocity": 100,
      "chip": "ym2612"
    },
    {
      "channel": 1,
      "note": 64,
      "start": 69.7913,
      "duration": 0.0178,
      "velocity": 105,
      "chip": "ym2612"
    },
    {
      "channel": 0,
      "note": 45,
      "start": 69.7931,
      "duration": 0.0181,
      "velocity": 115,
      "chip": "ym2612"
    },
    {
      "channel": 4,
      "note": 79,
      "start": 69.7966,
      "duration": 0.016,
      "velocity": 94,
      "chip": "ym2612"
    },
    {
      "channel": 3,
      "note": 79,
      "start": 69.7977,
      "duration": 0.0163,
      "velocity": 94,
      "chip": "ym2612"
    },
    {
      "channel": 2,
      "note": 55,
      "start": 69.7988,
      "duration": 0.0166,
      "velocity": 100,
      "chip": "ym2612"
    },
    {
      "channel": 1,
      "note": 105,
      "start": 69.8092,
      "duration": 0.0144,
      "velocity": 105,
      "chip": "ym2612"
    },
    {
      "channel": 0,
      "note": 45,
      "start": 69.8112,
      "duration": 0.0141,
      "velocity": 115,
      "chip": "ym2612"
    },
    {
      "channel": 4,
      "note": 79,
      "start": 69.8127,
      "duration": 0.0166,
      "velocity": 94,
      "chip": "ym2612"
    },
    {
      "channel": 3,
      "note": 79,
      "start": 69.814,
      "duration": 0.0164,
      "velocity": 94,
      "chip": "ym2612"
    },
    {
      "channel": 2,
      "note": 55,
      "start": 69.8154,
      "duration": 0.0162,
      "velocity": 100,
      "chip": "ym2612"
    },
    {
      "channel": 1,
      "note": 105,
      "start": 69.8236,
      "duration": 0.0161,
      "velocity": 105,
      "chip": "ym2612"
    },
    {
      "channel": 0,
      "note": 46,
      "start": 69.8253,
      "duration": 0.016,
      "velocity": 115,
      "chip": "ym2612"
    },
    {
      "channel": 4,
      "note": 79,
      "start": 69.8293,
      "duration": 0.0132,
      "velocity": 94,
      "chip": "ym2612"
    },
    {
      "channel": 3,
      "note": 79,
      "start": 69.8305,
      "duration": 0.016,
      "velocity": 94,
      "chip": "ym2612"
    },
    {
      "channel": 2,
      "note": 55,
      "start": 69.8317,
      "duration": 0.0159,
      "velocity": 100,
      "chip": "ym2612"
    },
    {
      "channel": 1,
      "note": 105,
      "start": 69.8397,
      "duration": 0.0161,
      "velocity": 105,
      "chip": "ym2612"
    },
    {
      "channel": 0,
      "note": 46,
      "start": 69.8413,
      "duration": 0.0161,
      "velocity": 115,
      "chip": "ym2612"
    },
    {
      "channel": 4,
      "note": 79,
      "start": 69.8425,
      "duration": 0.0161,
      "velocity": 94,
      "chip": "ym2612"
    },
    {
      "channel": 3,
      "note": 79,
      "start": 69.8464,
      "duration": 0.0133,
      "velocity": 94,
      "chip": "ym2612"
    },
    {
      "channel": 2,
      "note": 55,
      "start": 69.8475,
      "duration": 0.0158,
      "velocity": 100,
      "chip": "ym2612"
    },
    {
      "channel": 1,
      "note": 105,
      "start": 69.8558,
      "duration": 0.0161,
      "velocity": 105,
      "chip": "ym2612"
    },
    {
      "channel": 0,
      "note": 47,
      "start": 69.8574,
      "duration": 0.0161,
      "velocity": 115,
      "chip": "ym2612"
    },
    {
      "channel": 4,
      "note": 79,
      "start": 69.8586,
      "duration": 0.0162,
      "velocity": 94,
      "chip": "ym2612"
    },
    {
      "channel": 3,
      "note": 79,
      "start": 69.8597,
      "duration": 0.0161,
      "velocity": 94,
      "chip": "ym2612"
    },
    {
      "channel": 2,
      "note": 55,
      "start": 69.8633,
      "duration": 0.0141,
      "velocity": 100,
      "chip": "ym2612"
    },
    {
      "channel": 1,
      "note": 105,
      "start": 69.8719,
      "duration": 0.0161,
      "velocity": 105,
      "chip": "ym2612"
    },
    {
      "channel": 0,
      "note": 47,
      "start": 69.8735,
      "duration": 0.0161,
      "velocity": 115,
      "chip": "ym2612"
    },
    {
      "channel": 4,
      "note": 79,
      "start": 69.8747,
      "duration": 0.0161,
      "velocity": 94,
      "chip": "ym2612"
    },
    {
      "channel": 3,
      "note": 79,
      "start": 69.8759,
      "duration": 0.0161,
      "velocity": 94,
      "chip": "ym2612"
    },
    {
      "channel": 2,
      "note": 55,
      "start": 69.8773,
      "duration": 0.0157,
      "velocity": 100,
      "chip": "ym2612"
    },
    {
      "channel": 1,
      "note": 105,
      "start": 69.888,
      "duration": 0.0161,
      "velocity": 105,
      "chip": "ym2612"
    },
    {
      "channel": 0,
      "note": 47,
      "start": 69.8896,
      "duration": 0.0161,
      "velocity": 115,
      "chip": "ym2612"
    },
    {
      "channel": 4,
      "note": 79,
      "start": 69.8908,
      "duration": 0.0161,
      "velocity": 94,
      "chip": "ym2612"
    },
    {
      "channel": 3,
      "note": 79,
      "start": 69.892,
      "duration": 0.0161,
      "velocity": 94,
      "chip": "ym2612"
    },
    {
      "channel": 2,
      "note": 55,
      "start": 69.8931,
      "duration": 0.0161,
      "velocity": 100,
      "chip": "ym2612"
    },
    {
      "channel": 1,
      "note": 105,
      "start": 69.9041,
      "duration": 0.0184,
      "velocity": 124,
      "chip": "ym2612"
    },
    {
      "channel": 0,
      "note": 48,
      "start": 69.9057,
      "duration": 0.0191,
      "velocity": 115,
      "chip": "ym2612"
    },
    {
      "channel": 4,
      "note": 79,
      "start": 69.9069,
      "duration": 0.0192,
      "velocity": 94,
      "chip": "ym2612"
    },
    {
      "channel": 3,
      "note": 79,
      "start": 69.9081,
      "duration": 0.0218,
      "velocity": 94,
      "chip": "ym2612"
    },
    {
      "channel": 2,
      "note": 55,
      "start": 69.9091,
      "duration": 0.0222,
      "velocity": 100,
      "chip": "ym2612"
    },
    {
      "channel": 1,
      "note": 78,
      "start": 69.9224,
      "duration": 0.0144,
      "velocity": 124,
      "chip": "ym2612"
    },
    {
      "channel": 0,
      "note": 48,
      "start": 69.9249,
      "duration": 0.0139,
      "velocity": 115,
      "chip": "ym2612"
    },
    {
      "channel": 4,
      "note": 79,
      "start": 69.9261,
      "duration": 0.0138,
      "velocity": 94,
      "chip": "ym2612"
    },
    {
      "channel": 3,
      "note": 79,
      "start": 69.93,
      "duration": 0.0112,
      "velocity": 94,
      "chip": "ym2612"
    },
    {
      "channel": 2,
      "note": 55,
      "start": 69.9314,
      "duration": 0.011,
      "velocity": 100,
      "chip": "ym2612"
    },
    {
      "channel": 1,
      "note": 76,
      "start": 69.9368,
      "duration": 0.016,
      "velocity": 124,
      "chip": "ym2612"
    },
    {
      "channel": 0,
      "note": 49,
      "start": 69.9387,
      "duration": 0.0152,
      "velocity": 1,
      "chip": "ym2612"
    },
    {
      "channel": 4,
      "note": 79,
      "start": 69.9399,
      "duration": 0.0151,
      "velocity": 94,
      "chip": "ym2612"
    },
    {
      "channel": 3,
      "note": 79,
      "start": 69.9411,
      "duration": 0.0151,
      "velocity": 94,
      "chip": "ym2612"
    },
    {
      "channel": 2,
      "note": 55,
      "start": 69.9424,
      "duration": 0.015,
      "velocity": 100,
      "chip": "ym2612"
    },
    {
      "channel": 1,
      "note": 75,
      "start": 69.9529,
      "duration": 0.0161,
      "velocity": 124,
      "chip": "ym2612"
    },
    {
      "channel": 4,
      "note": 79,
      "start": 69.9551,
      "duration": 0.0153,
      "velocity": 94,
      "chip": "ym2612"
    },
    {
      "channel": 3,
      "note": 79,
      "start": 69.9562,
      "duration": 0.0153,
      "velocity": 94,
      "chip": "ym2612"
    },
    {
      "channel": 2,
      "note": 55,
      "start": 69.9574,
      "duration": 0.0153,
      "velocity": 100,
      "chip": "ym2612"
    },
    {
      "channel": 1,
      "note": 74,
      "start": 69.9689,
      "duration": 0.0161,
      "velocity": 124,
      "chip": "ym2612"
    },
    {
      "channel": 4,
      "note": 79,
      "start": 69.9703,
      "duration": 0.0161,
      "velocity": 94,
      "chip": "ym2612"
    },
    {
      "channel": 3,
      "note": 79,
      "start": 69.9715,
      "duration": 0.0161,
      "velocity": 94,
      "chip": "ym2612"
    },
    {
      "channel": 2,
      "note": 55,
      "start": 69.9726,
      "duration": 0.0161,
      "velocity": 100,
      "chip": "ym2612"
    },
    {
      "channel": 1,
      "note": 72,
      "start": 69.985,
      "duration": 0.0162,
      "velocity": 124,
      "chip": "ym2612"
    },
    {
      "channel": 4,
      "note": 79,
      "start": 69.9864,
      "duration": 0.0161,
      "velocity": 94,
      "chip": "ym2612"
    },
    {
      "channel": 3,
      "note": 79,
      "start": 69.9876,
      "duration": 0.0162,
      "velocity": 94,
      "chip": "ym2612"
    },
    {
      "channel": 2,
      "note": 55,
      "start": 69.9887,
      "duration": 0.0161,
      "velocity": 100,
      "chip": "ym2612"
    },
    {
      "channel": 1,
      "note": 71,
      "start": 70.0012,
      "duration": 0.0161,
      "velocity": 124,
      "chip": "ym2612"
    },
    {
      "channel": 4,
      "note": 79,
      "start": 70.0026,
      "duration": 0.0161,
      "velocity": 94,
      "chip": "ym2612"
    },
    {
      "channel": 3,
      "note": 79,
      "start": 70.0037,
      "duration": 0.0161,
      "velocity": 94,
      "chip": "ym2612"
    },
    {
      "channel": 2,
      "note": 55,
      "start": 70.0048,
      "duration": 0.0161,
      "velocity": 100,
      "chip": "ym2612"
    },
    {
      "channel": 1,
      "note": 70,
      "start": 70.0173,
      "duration": 0.0161,
      "velocity": 124,
      "chip": "ym2612"
    },
    {
      "channel": 4,
      "note": 79,
      "start": 70.0187,
      "duration": 0.0168,
      "velocity": 94,
      "chip": "ym2612"
    },
    {
      "channel": 3,
      "note": 79,
      "start": 70.0198,
      "duration": 0.017,
      "velocity": 94,
      "chip": "ym2612"
    },
    {
      "channel": 2,
      "note": 55,
      "start": 70.0209,
      "duration": 0.0173,
      "velocity": 100,
      "chip": "ym2612"
    },
    {
      "channel": 1,
      "note": 69,
      "start": 70.0334,
      "duration": 0.0161,
      "velocity": 124,
      "chip": "ym2612"
    },
    {
      "channel": 4,
      "note": 74,
      "start": 70.0356,
      "duration": 0.0154,
      "velocity": 94,
      "chip": "ym2612"
    },
    {
      "channel": 3,
      "note": 79,
      "start": 70.0368,
      "duration": 0.0153,
      "velocity": 94,
      "chip": "ym2612"
    },
    {
      "channel": 2,
      "note": 55,
      "start": 70.0383,
      "duration": 0.0151,
      "velocity": 100,
      "chip": "ym2612"
    },
    {
      "channel": 1,
      "note": 68,
      "start": 70.0495,
      "duration": 0.0161,
      "velocity": 124,
      "chip": "ym2612"
    },
    {
      "channel": 4,
      "note": 74,
      "start": 70.051,
      "duration": 0.016,
      "velocity": 94,
      "chip": "ym2612"
    },
    {
      "channel": 3,
      "note": 79,
      "start": 70.0522,
      "duration": 0.016,
      "velocity": 94,
      "chip": "ym2612"
    },
    {
      "channel": 2,
      "note": 55,
      "start": 70.0534,
      "duration": 0.0159,
      "velocity": 100,
      "chip": "ym2612"
    },
    {
      "channel": 1,
      "note": 66,
      "start": 70.0656,
      "duration": 0.0161,
      "velocity": 124,
      "chip": "ym2612"
    },
    {
      "channel": 4,
      "note": 74,
      "start": 70.067,
      "duration": 0.0161,
      "velocity": 94,
      "chip": "ym2612"
    },
    {
      "channel": 3,
      "note": 79,
      "start": 70.0681,
      "duration": 0.0161,
      "velocity": 94,
      "chip": "ym2612"
    },
    {
      "channel": 2,
      "note": 55,
      "start": 70.0693,
      "duration": 0.0161,
      "velocity": 100,
      "chip": "ym2612"
    },
    {
      "channel": 1,
      "note": 65,
      "start": 70.0817,
      "duration": 0.0162,
      "velocity": 124,
      "chip": "ym2612"
    },
    {
      "channel": 4,
      "note": 74,
      "start": 70.0831,
      "duration": 0.0161,
      "velocity": 94,
      "chip": "ym2612"
    },
    {
      "channel": 3,
      "note": 79,
      "start": 70.0842,
      "duration": 0.0161,
      "velocity": 94,
      "chip": "ym2612"
    },
    {
      "channel": 2,
      "note": 55,
      "start": 70.0854,
      "duration": 0.0161,
      "velocity": 100,
      "chip": "ym2612"
    },
    {
      "channel": 1,
      "note": 64,
      "start": 70.0978,
      "duration": 0.0166,
      "velocity": 124,
      "chip": "ym2612"
    },
    {
      "channel": 4,
      "note": 74,
      "start": 70.0992,
      "duration": 0.0167,
      "velocity": 94,
      "chip": "ym2612"
    },
    {
      "channel": 3,
      "note": 79,
      "start": 70.1003,
      "duration": 0.0167,
      "velocity": 94,
      "chip": "ym2612"
    },
    {
      "channel": 2,
      "note": 55,
      "start": 70.1015,
      "duration": 0.0167,
      "velocity": 100,
      "chip": "ym2612"
    },
    {
      "channel": 1,
      "note": 62,
      "start": 70.1144,
      "duration": 0.0163,
      "velocity": 124,
      "chip": "ym2612"
    },
    {
      "channel": 4,
      "note": 74,
      "start": 70.1158,
      "duration": 0.0163,
      "velocity": 94,
      "chip": "ym2612"
    },
    {
      "channel": 3,
      "note": 79,
      "start": 70.117,
      "duration": 0.0163,
      "velocity": 94,
      "chip": "ym2612"
    },
    {
      "channel": 2,
      "note": 55,
      "start": 70.1181,
      "duration": 0.0163,
      "velocity": 100,
      "chip": "ym2612"
    },
    {
      "channel": 1,
      "note": 61,
      "start": 70.1308,
      "duration": 0.0153,
      "velocity": 124,
      "chip": "ym2612"
    },
    {
      "channel": 4,
      "note": 74,
      "start": 70.1322,
      "duration": 0.016,
      "velocity": 94,
      "chip": "ym2612"
    },
    {
      "channel": 3,
      "note": 79,
      "start": 70.1333,
      "duration": 0.0162,
      "velocity": 94,
      "chip": "ym2612"
    },
    {
      "channel": 2,
      "note": 55,
      "start": 70.1344,
      "duration": 0.0165,
      "velocity": 100,
      "chip": "ym2612"
    },
    {
      "channel": 1,
      "note": 60,
      "start": 70.1461,
      "duration": 0.0183,
      "velocity": 124,
      "chip": "ym2612"
    },
    {
      "channel": 4,
      "note": 74,
      "start": 70.1481,
      "duration": 0.0178,
      "velocity": 94,
      "chip": "ym2612"
    },
    {
      "channel": 3,
      "note": 74,
      "start": 70.1495,
      "duration": 0.0176,
      "velocity": 94,
      "chip": "ym2612"
    },
    {
      "channel": 2,
      "note": 48,
      "start": 70.151,
      "duration": 0.0173,
      "velocity": 100,
      "chip": "ym2612"
    },
    {
      "channel": 1,
      "note": 59,
      "start": 70.1644,
      "duration": 0.0166,
      "velocity": 124,
      "chip": "ym2612"
    },
    {
      "channel": 4,
      "note": 74,
      "start": 70.166,
      "duration": 0.0165,
      "velocity": 94,
      "chip": "ym2612"
    },
    {
      "channel": 3,
      "note": 74,
      "start": 70.1672,
      "duration": 0.0164,
      "velocity": 94,
      "chip": "ym2612"
    },
    {
      "channel": 2,
      "note": 48,
      "start": 70.1683,
      "duration": 0.0164,
      "velocity": 100,
      "chip": "ym2612"
    },
    {
      "channel": 1,
      "note": 57,
      "start": 70.181,
      "duration": 0.0157,
      "velocity": 124,
      "chip": "ym2612"
    },
    {
      "channel": 4,
      "note": 74,
      "start": 70.1824,
      "duration": 0.0157,
      "velocity": 94,
      "chip": "ym2612"
    },
    {
      "channel": 3,
      "note": 74,
      "start": 70.1836,
      "duration": 0.0157,
      "velocity": 94,
      "chip": "ym2612"
    },
    {
      "channel": 2,
      "note": 48,
      "start": 70.1847,
      "duration": 0.0157,
      "velocity": 100,
      "chip": "ym2612"
    },
    {
      "channel": 1,
      "note": 56,
      "start": 70.1967,
      "duration": 0.0141,
      "velocity": 124,
      "chip": "ym2612"
    },
    {
      "channel": 4,
      "note": 74,
      "start": 70.1981,
      "duration": 0.0141,
      "velocity": 94,
      "chip": "ym2612"
    },
    {
      "channel": 3,
      "note": 74,
      "start": 70.1993,
      "duration": 0.0141,
      "velocity": 94,
      "chip": "ym2612"
    },
    {
      "channel": 2,
      "note": 48,
      "start": 70.2004,
      "duration": 0.0141,
      "velocity": 100,
      "chip": "ym2612"
    },
    {
      "channel": 1,
      "note": 55,
      "start": 70.2108,
      "duration": 0.0185,
      "velocity": 124,
      "chip": "ym2612"
    },
    {
      "channel": 4,
      "note": 74,
      "start": 70.2122,
      "duration": 0.0185,
      "velocity": 94,
      "chip": "ym2612"
    },
    {
      "channel": 3,
      "note": 74,
      "start": 70.2134,
      "duration": 0.0185,
      "velocity": 94,
      "chip": "ym2612"
    },
    {
      "channel": 2,
      "note": 48,
      "start": 70.2145,
      "duration": 0.0185,
      "velocity": 100,
      "chip": "ym2612"
    },
    {
      "channel": 1,
      "note": 53,
      "start": 70.2293,
      "duration": 0.0134,
      "velocity": 124,
      "chip": "ym2612"
    },
    {
      "channel": 4,
      "note": 74,
      "start": 70.2307,
      "duration": 0.0161,
      "velocity": 94,
      "chip": "ym2612"
    },
    {
      "channel": 3,
      "note": 74,
      "start": 70.2319,
      "duration": 0.0161,
      "velocity": 94,
      "chip": "ym2612"
    },
    {
      "channel": 2,
      "note": 48,
      "start": 70.233,
      "duration": 0.0161,
      "velocity": 100,
      "chip": "ym2612"
    },
    {
      "channel": 1,
      "note": 52,
      "start": 70.2427,
      "duration": 0.0161,
      "velocity": 124,
      "chip": "ym2612"
    },
    {
      "channel": 4,
      "note": 74,
      "start": 70.2468,
      "duration": 0.02,
      "velocity": 94,
      "chip": "ym2612"
    },
    {
      "channel": 3,
      "note": 74,
      "start": 70.248,
      "duration": 0.0202,
      "velocity": 94,
      "chip": "ym2612"
    },
    {
      "channel": 2,
      "note": 48,
      "start": 70.2491,
      "duration": 0.0204,
      "velocity": 100,
      "chip": "ym2612"
    },
    {
      "channel": 1,
      "note": 51,
      "start": 70.2588,
      "duration": 0.0153,
      "velocity": 1,
      "chip": "ym2612"
    },
    {
      "channel": 0,
      "note": 78,
      "start": 70.2654,
      "duration": 0.0129,
      "velocity": 127,
      "chip": "ym2612"
    },
    {
      "channel": 4,
      "note": 74,
      "start": 70.2668,
      "duration": 0.0127,
      "velocity": 94,
      "chip": "ym2612"
    },
    {
      "channel": 3,
      "note": 74,
      "start": 70.2681,
      "duration": 0.0126,
      "velocity": 94,
      "chip": "ym2612"
    },
    {
      "channel": 2,
      "note": 48,
      "start": 70.2695,
      "duration": 0.0124,
      "velocity": 100,
      "chip": "ym2612"
    },
    {
      "channel": 1,
      "note": 51,
      "start": 70.2763,
      "duration": 0.0142,
      "velocity": 105,
      "chip": "ym2612"
    },
    {
      "channel": 0,
      "note": 76,
      "start": 70.2783,
      "duration": 0.0139,
      "velocity": 127,
      "chip": "ym2612"
    },
    {
      "channel": 4,
      "note": 74,
      "start": 70.2795,
      "duration": 0.0166,
      "velocity": 94,
      "chip": "ym2612"
    },
    {
      "channel": 3,
      "note": 74,
      "start": 70.2807,
      "duration": 0.0166,
      "velocity": 94,
      "chip": "ym2612"
    },
    {
      "channel": 2,
      "note": 48,
      "start": 70.2819,
      "duration": 0.0164,
      "velocity": 100,
      "chip": "ym2612"
    },
    {
      "channel": 1,
      "note": 105,
      "start": 70.2905,
      "duration": 0.0161,
      "velocity": 105,
      "chip": "ym2612"
    },
    {
      "channel": 0,
      "note": 75,
      "start": 70.2922,
      "duration": 0.0161,
      "velocity": 127,
      "chip": "ym2612"
    },
    {
      "channel": 4,
      "note": 74,
      "start": 70.2961,
      "duration": 0.0134,
      "velocity": 94,
      "chip": "ym2612"
    },
    {
      "channel": 3,
      "note": 74,
      "start": 70.2973,
      "duration": 0.0161,
      "velocity": 94,
      "chip": "ym2612"
    },
    {
      "channel": 2,
      "note": 48,
      "start": 70.2983,
      "duration": 0.0162,
      "velocity": 100,
      "chip": "ym2612"
    },
    {
      "channel": 1,
      "note": 105,
      "start": 70.3066,
      "duration": 0.0161,
      "velocity": 105,
      "chip": "ym2612"
    },
    {
      "channel": 0,
      "note": 73,
      "start": 70.3083,
      "duration": 0.0161,
      "velocity": 127,
      "chip": "ym2612"
    },
    {
      "channel": 4,
      "note": 74,
      "start": 70.3095,
      "duration": 0.0161,
      "velocity": 94,
      "chip": "ym2612"
    },
    {
      "channel": 3,
      "note": 74,
      "start": 70.3134,
      "duration": 0.0157,
      "velocity": 94,
      "chip": "ym2612"
    },
    {
      "channel": 2,
      "note": 48,
      "start": 70.3145,
      "duration": 0.0157,
      "velocity": 100,
      "chip": "ym2612"
    },
    {
      "channel": 1,
      "note": 105,
      "start": 70.3227,
      "duration": 0.0161,
      "velocity": 105,
      "chip": "ym2612"
    },
    {
      "channel": 0,
      "note": 71,
      "start": 70.3244,
      "duration": 0.0161,
      "velocity": 127,
      "chip": "ym2612"
    },
    {
      "channel": 4,
      "note": 74,
      "start": 70.3256,
      "duration": 0.0161,
      "velocity": 94,
      "chip": "ym2612"
    },
    {
      "channel": 3,
      "note": 74,
      "start": 70.329,
      "duration": 0.0137,
      "velocity": 94,
      "chip": "ym2612"
    },
    {
      "channel": 2,
      "note": 48,
      "start": 70.3302,
      "duration": 0.0141,
      "velocity": 100,
      "chip": "ym2612"
    },
    {
      "channel": 1,
      "note": 105,
      "start": 70.3388,
      "duration": 0.0161,
      "velocity": 105,
      "chip": "ym2612"
    },
    {
      "channel": 0,
      "note": 70,
      "start": 70.3405,
      "duration": 0.0161,
      "velocity": 127,
      "chip": "ym2612"
    },
    {
      "channel": 4,
      "note": 74,
      "start": 70.3417,
      "duration": 0.0161,
      "velocity": 94,
      "chip": "ym2612"
    },
    {
      "channel": 3,
      "note": 74,
      "start": 70.3428,
      "duration": 0.016,
      "velocity": 94,
      "chip": "ym2612"
    },
    {
      "channel": 2,
      "note": 48,
      "start": 70.3443,
      "duration": 0.0185,
      "velocity": 100,
      "chip": "ym2612"
    },
    {
      "channel": 1,
      "note": 105,
      "start": 70.3549,
      "duration": 0.0178,
      "velocity": 124,
      "chip": "ym2612"
    },
    {
      "channel": 0,
      "note": 68,
      "start": 70.3565,
      "duration": 0.0197,
      "velocity": 115,
      "chip": "ym2612"
    },
    {
      "channel": 4,
      "note": 74,
      "start": 70.3578,
      "duration": 0.0225,
      "velocity": 94,
      "chip": "ym2612"
    },
    {
      "channel": 3,
      "note": 74,
      "start": 70.3588,
      "duration": 0.0228,
      "velocity": 94,
      "chip": "ym2612"
    },
    {
      "channel": 2,
      "note": 48,
      "start": 70.3628,
      "duration": 0.0202,
      "velocity": 100,
      "chip": "ym2612"
    },
    {
      "channel": 1,
      "note": 64,
      "start": 70.3728,
      "duration": 0.0147,
      "velocity": 124,
      "chip": "ym2612"
    },
    {
      "channel": 0,
      "note": 36,
      "start": 70.3762,
      "duration": 0.013,
      "velocity": 115,
      "chip": "ym2612"
    },
    {
      "channel": 4,
      "note": 74,
      "start": 70.3803,
      "duration": 0.0102,
      "velocity": 94,
      "chip": "ym2612"
    },
    {
      "channel": 3,
      "note": 74,
      "start": 70.3817,
      "duration": 0.01,
      "velocity": 94,
      "chip": "ym2612"
    },
    {
      "channel": 2,
      "note": 50,
      "start": 70.3831,
      "duration": 0.0097,
      "velocity": 100,
      "chip": "ym2612"
    },
    {
      "channel": 1,
      "note": 64,
      "start": 70.3875,
      "duration": 0.0158,
      "velocity": 124,
      "chip": "ym2612"
    },
    {
      "channel": 0,
      "note": 36,
      "start": 70.3892,
      "duration": 0.0156,
      "velocity": 115,
      "chip": "ym2612"
    },
    {
      "channel": 4,
      "note": 74,
      "start": 70.3905,
      "duration": 0.0156,
      "velocity": 94,
      "chip": "ym2612"
    },
    {
      "channel": 3,
      "note": 74,
      "start": 70.3917,
      "duration": 0.0155,
      "velocity": 94,
      "chip": "ym2612"
    },
    {
      "channel": 2,
      "note": 50,
      "start": 70.3928,
      "duration": 0.0155,
      "velocity": 100,
      "chip": "ym2612"
    },
    {
      "channel": 1,
      "note": 64,
      "start": 70.4032,
      "duration": 0.0161,
      "velocity": 124,
      "chip": "ym2612"
    },
    {
      "channel": 0,
      "note": 37,
      "start": 70.4049,
      "duration": 0.0161,
      "velocity": 115,
      "chip": "ym2612"
    },
    {
      "channel": 4,
      "note": 74,
      "start": 70.406,
      "duration": 0.0161,
      "velocity": 94,
      "chip": "ym2612"
    },
    {
      "channel": 3,
      "note": 74,
      "start": 70.4072,
      "duration": 0.0162,
      "velocity": 94,
      "chip": "ym2612"
    },
    {
      "channel": 2,
      "note": 50,
      "start": 70.4083,
      "duration": 0.0161,
      "velocity": 100,
      "chip": "ym2612"
    },
    {
      "channel": 1,
      "note": 64,
      "start": 70.4193,
      "duration": 0.0161,
      "velocity": 124,
      "chip": "ym2612"
    },
    {
      "channel": 0,
      "note": 37,
      "start": 70.421,
      "duration": 0.0161,
      "velocity": 115,
      "chip": "ym2612"
    },
    {
      "channel": 4,
      "note": 74,
      "start": 70.4222,
      "duration": 0.0161,
      "velocity": 94,
      "chip": "ym2612"
    },
    {
      "channel": 3,
      "note": 74,
      "start": 70.4233,
      "duration": 0.0161,
      "velocity": 94,
      "chip": "ym2612"
    },
    {
      "channel": 2,
      "note": 50,
      "start": 70.4244,
      "duration": 0.0161,
      "velocity": 100,
      "chip": "ym2612"
    },
    {
      "channel": 1,
      "note": 64,
      "start": 70.4354,
      "duration": 0.0161,
      "velocity": 124,
      "chip": "ym2612"
    },
    {
      "channel": 0,
      "note": 38,
      "start": 70.4371,
      "duration": 0.0161,
      "velocity": 115,
      "chip": "ym2612"
    },
    {
      "channel": 4,
      "note": 74,
      "start": 70.4383,
      "duration": 0.0161,
      "velocity": 94,
      "chip": "ym2612"
    },
    {
      "channel": 3,
      "note": 74,
      "start": 70.4394,
      "duration": 0.0161,
      "velocity": 94,
      "chip": "ym2612"
    },
    {
      "channel": 2,
      "note": 50,
      "start": 70.4405,
      "duration": 0.0161,
      "velocity": 100,
      "chip": "ym2612"
    },
    {
      "channel": 1,
      "note": 64,
      "start": 70.4515,
      "duration": 0.0161,
      "velocity": 124,
      "chip": "ym2612"
    },
    {
      "channel": 0,
      "note": 38,
      "start": 70.4532,
      "duration": 0.0161,
      "velocity": 115,
      "chip": "ym2612"
    },
    {
      "channel": 4,
      "note": 74,
      "start": 70.4544,
      "duration": 0.0161,
      "velocity": 94,
      "chip": "ym2612"
    },
    {
      "channel": 3,
      "note": 74,
      "start": 70.4555,
      "duration": 0.0161,
      "velocity": 94,
      "chip": "ym2612"
    },
    {
      "channel": 2,
      "note": 50,
      "start": 70.4566,
      "duration": 0.0161,
      "velocity": 100,
      "chip": "ym2612"
    },
    {
      "channel": 1,
      "note": 64,
      "start": 70.4676,
      "duration": 0.0178,
      "velocity": 105,
      "chip": "ym2612"
    },
    {
      "channel": 0,
      "note": 39,
      "start": 70.4693,
      "duration": 0.0178,
      "velocity": 115,
      "chip": "ym2612"
    },
    {
      "channel": 4,
      "note": 74,
      "start": 70.4705,
      "duration": 0.018,
      "velocity": 94,
      "chip": "ym2612"
    },
    {
      "channel": 3,
      "note": 74,
      "start": 70.4716,
      "duration": 0.0182,
      "velocity": 94,
      "chip": "ym2612"
    },
    {
      "channel": 2,
      "note": 50,
      "start": 70.4727,
      "duration": 0.0185,
      "velocity": 100,
      "chip": "ym2612"
    },
    {
      "channel": 1,
      "note": 105,
      "start": 70.4854,
      "duration": 0.0144,
      "velocity": 105,
      "chip": "ym2612"
    },
    {
      "channel": 0,
      "note": 39,
      "start": 70.4871,
      "duration": 0.0144,
      "velocity": 115,
      "chip": "ym2612"
    },
    {
      "channel": 4,
      "note": 79,
      "start": 70.4885,
      "duration": 0.0143,
      "velocity": 94,
      "chip": "ym2612"
    },
    {
      "channel": 3,
      "note": 74,
      "start": 70.4898,
      "duration": 0.0141,
      "velocity": 94,
      "chip": "ym2612"
    },
    {
      "channel": 2,
      "note": 50,
      "start": 70.4913,
      "duration": 0.0139,
      "velocity": 100,
      "chip": "ym2612"
    },
    {
      "channel": 1,
      "note": 105,
      "start": 70.4999,
      "duration": 0.016,
      "velocity": 105,
      "chip": "ym2612"
    },
    {
      "channel": 0,
      "note": 40,
      "start": 70.5015,
      "duration": 0.016,
      "velocity": 115,
      "chip": "ym2612"
    },
    {
      "channel": 4,
      "note": 79,
      "start": 70.5028,
      "duration": 0.016,
      "velocity": 94,
      "chip": "ym2612"
    },
    {
      "channel": 3,
      "note": 74,
      "start": 70.5039,
      "duration": 0.016,
      "velocity": 94,
      "chip": "ym2612"
    },
    {
      "channel": 2,
      "note": 50,
      "start": 70.5051,
      "duration": 0.0158,
      "velocity": 100,
      "chip": "ym2612"
    },
    {
      "channel": 1,
      "note": 105,
      "start": 70.5159,
      "duration": 0.0161,
      "velocity": 105,
      "chip": "ym2612"
    },
    {
      "channel": 0,
      "note": 40,
      "start": 70.5176,
      "duration": 0.0161,
      "velocity": 115,
      "chip": "ym2612"
    },
    {
      "channel": 4,
      "note": 79,
      "start": 70.5188,
      "duration": 0.0161,
      "velocity": 94,
      "chip": "ym2612"
    },
    {
      "channel": 3,
      "note": 74,
      "start": 70.5199,
      "duration": 0.0161,
      "velocity": 94,
      "chip": "ym2612"
    },
    {
      "channel": 2,
      "note": 50,
      "start": 70.521,
      "duration": 0.0161,
      "velocity": 100,
      "chip": "ym2612"
    },
    {
      "channel": 1,
      "note": 105,
      "start": 70.532,
      "duration": 0.0162,
      "velocity": 105,
      "chip": "ym2612"
    },
    {
      "channel": 0,
      "note": 40,
      "start": 70.5336,
      "duration": 0.0162,
      "velocity": 115,
      "chip": "ym2612"
    },
    {
      "channel": 4,
      "note": 79,
      "start": 70.5349,
      "duration": 0.0161,
      "velocity": 94,
      "chip": "ym2612"
    },
    {
      "channel": 3,
      "note": 74,
      "start": 70.536,
      "duration": 0.0161,
      "velocity": 94,
      "chip": "ym2612"
    },
    {
      "channel": 2,
      "note": 50,
      "start": 70.5371,
      "duration": 0.0161,
      "velocity": 100,
      "chip": "ym2612"
    },
    {
      "channel": 1,
      "note": 105,
      "start": 70.5481,
      "duration": 0.0161,
      "velocity": 105,
      "chip": "ym2612"
    },
    {
      "channel": 0,
      "note": 41,
      "start": 70.5498,
      "duration": 0.0161,
      "velocity": 115,
      "chip": "ym2612"
    },
    {
      "channel": 4,
      "note": 79,
      "start": 70.5509,
      "duration": 0.0161,
      "velocity": 94,
      "chip": "ym2612"
    },
    {
      "channel": 3,
      "note": 74,
      "start": 70.5521,
      "duration": 0.0161,
      "velocity": 94,
      "chip": "ym2612"
    },
    {
      "channel": 2,
      "note": 50,
      "start": 70.5532,
      "duration": 0.0161,
      "velocity": 100,
      "chip": "ym2612"
    },
    {
      "channel": 1,
      "note": 105,
      "start": 70.5642,
      "duration": 0.0164,
      "velocity": 105,
      "chip": "ym2612"
    },
    {
      "channel": 0,
      "note": 41,
      "start": 70.5659,
      "duration": 0.0164,
      "velocity": 115,
      "chip": "ym2612"
    },
    {
      "channel": 4,
      "note": 79,
      "start": 70.567,
      "duration": 0.0164,
      "velocity": 94,
      "chip": "ym2612"
    },
    {
      "channel": 3,
      "note": 74,
      "start": 70.5682,
      "duration": 0.0164,
      "velocity": 94,
      "chip": "ym2612"
    },
    {
      "channel": 2,
      "note": 50,
      "start": 70.5693,
      "duration": 0.0164,
      "velocity": 100,
      "chip": "ym2612"
    },
    {
      "channel": 1,
      "note": 105,
      "start": 70.5807,
      "duration": 0.018,
      "velocity": 124,
      "chip": "ym2612"
    },
    {
      "channel": 0,
      "note": 42,
      "start": 70.5823,
      "duration": 0.018,
      "velocity": 115,
      "chip": "ym2612"
    },
    {
      "channel": 4,
      "note": 79,
      "start": 70.5834,
      "duration": 0.0182,
      "velocity": 94,
      "chip": "ym2612"
    },
    {
      "channel": 3,
      "note": 74,
      "start": 70.5846,
      "duration": 0.0184,
      "velocity": 94,
      "chip": "ym2612"
    },
    {
      "channel": 2,
      "note": 50,
      "start": 70.5857,
      "duration": 0.0188,
      "velocity": 100,
      "chip": "ym2612"
    },
    {
      "channel": 1,
      "note": 64,
      "start": 70.5986,
      "duration": 0.0139,
      "velocity": 124,
      "chip": "ym2612"
    },
    {
      "channel": 0,
      "note": 42,
      "start": 70.6004,
      "duration": 0.0139,
      "velocity": 115,
      "chip": "ym2612"
    },
    {
      "channel": 4,
      "note": 79,
      "start": 70.6016,
      "duration": 0.0138,
      "velocity": 94,
      "chip": "ym2612"
    },
    {
      "channel": 3,
      "note": 79,
      "start": 70.603,
      "duration": 0.0136,
      "velocity": 94,
      "chip": "ym2612"
    },
    {
      "channel": 2,
      "note": 50,
      "start": 70.6045,
      "duration": 0.0134,
      "velocity": 100,
      "chip": "ym2612"
    },
    {
      "channel": 1,
      "note": 64,
      "start": 70.6126,
      "duration": 0.0181,
      "velocity": 124,
      "chip": "ym2612"
    },
    {
      "channel": 0,
      "note": 43,
      "start": 70.6142,
      "duration": 0.0181,
      "velocity": 115,
      "chip": "ym2612"
    },
    {
      "channel": 4,
      "note": 79,
      "start": 70.6154,
      "duration": 0.018,
      "velocity": 94,
      "chip": "ym2612"
    },
    {
      "channel": 3,
      "note": 79,
      "start": 70.6166,
      "duration": 0.018,
      "velocity": 94,
      "chip": "ym2612"
    },
    {
      "channel": 2,
      "note": 50,
      "start": 70.6179,
      "duration": 0.0179,
      "velocity": 100,
      "chip": "ym2612"
    },
    {
      "channel": 1,
      "note": 64,
      "start": 70.6307,
      "duration": 0.0167,
      "velocity": 124,
      "chip": "ym2612"
    },
    {
      "channel": 0,
      "note": 43,
      "start": 70.6323,
      "duration": 0.0167,
      "velocity": 115,
      "chip": "ym2612"
    },
    {
      "channel": 4,
      "note": 79,
      "start": 70.6334,
      "duration": 0.0167,
      "velocity": 94,
      "chip": "ym2612"
    },
    {
      "channel": 3,
      "note": 79,
      "start": 70.6346,
      "duration": 0.0167,
      "velocity": 94,
      "chip": "ym2612"
    },
    {
      "channel": 2,
      "note": 50,
      "start": 70.6357,
      "duration": 0.0167,
      "velocity": 100,
      "chip": "ym2612"
    },
    {
      "channel": 1,
      "note": 64,
      "start": 70.6473,
      "duration": 0.0159,
      "velocity": 124,
      "chip": "ym2612"
    },
    {
      "channel": 0,
      "note": 44,
      "start": 70.649,
      "duration": 0.0159,
      "velocity": 115,
      "chip": "ym2612"
    },
    {
      "channel": 4,
      "note": 79,
      "start": 70.6501,
      "duration": 0.016,
      "velocity": 94,
      "chip": "ym2612"
    },
    {
      "channel": 3,
      "note": 79,
      "start": 70.6513,
      "duration": 0.016,
      "velocity": 94,
      "chip": "ym2612"
    },
    {
      "channel": 2,
      "note": 50,
      "start": 70.6524,
      "duration": 0.0159,
      "velocity": 100,
      "chip": "ym2612"
    },
    {
      "channel": 1,
      "note": 64,
      "start": 70.6632,
      "duration": 0.014,
      "velocity": 124,
      "chip": "ym2612"
    },
    {
      "channel": 0,
      "note": 44,
      "start": 70.6649,
      "duration": 0.0141,
      "velocity": 115,
      "chip": "ym2612"
    },
    {
      "channel": 4,
      "note": 79,
      "start": 70.6661,
      "duration": 0.014,
      "velocity": 94,
      "chip": "ym2612"
    },
    {
      "channel": 3,
      "note": 79,
      "start": 70.6672,
      "duration": 0.014,
      "velocity": 94,
      "chip": "ym2612"
    },
    {
      "channel": 2,
      "note": 50,
      "start": 70.6683,
      "duration": 0.0141,
      "velocity": 100,
      "chip": "ym2612"
    },
    {
      "channel": 1,
      "note": 64,
      "start": 70.6772,
      "duration": 0.0159,
      "velocity": 124,
      "chip": "ym2612"
    },
    {
      "channel": 0,
      "note": 44,
      "start": 70.6789,
      "duration": 0.0185,
      "velocity": 115,
      "chip": "ym2612"
    },
    {
      "channel": 4,
      "note": 79,
      "start": 70.6801,
      "duration": 0.0186,
      "velocity": 94,
      "chip": "ym2612"
    },
    {
      "channel": 3,
      "note": 79,
      "start": 70.6812,
      "duration": 0.0186,
      "velocity": 94,
      "chip": "ym2612"
    },
    {
      "channel": 2,
      "note": 50,
      "start": 70.6824,
      "duration": 0.0185,
      "velocity": 100,
      "chip": "ym2612"
    },
    {
      "channel": 1,
      "note": 64,
      "start": 70.6931,
      "duration": 0.0205,
      "velocity": 105,
      "chip": "ym2612"
    },
    {
      "channel": 0,
      "note": 45,
      "start": 70.6974,
      "duration": 0.0178,
      "velocity": 115,
      "chip": "ym2612"
    },
    {
      "channel": 4,
      "note": 79,
      "start": 70.6986,
      "duration": 0.018,
      "velocity": 94,
      "chip": "ym2612"
    },
    {
      "channel": 3,
      "note": 79,
      "start": 70.6998,
      "duration": 0.0181,
      "velocity": 94,
      "chip": "ym2612"
    },
    {
      "channel": 2,
      "note": 50,
      "start": 70.7009,
      "duration": 0.0184,
      "velocity": 100,
      "chip": "ym2612"
    },
    {
      "channel": 1,
      "note": 105,
      "start": 70.7136,
      "duration": 0.0116,
      "velocity": 105,
      "chip": "ym2612"
    },
    {
      "channel": 0,
      "note": 45,
      "start": 70.7153,
      "duration": 0.0141,
      "velocity": 115,
      "chip": "ym2612"
    },
    {
      "channel": 4,
      "note": 79,
      "start": 70.7166,
      "duration": 0.0139,
      "velocity": 94,
      "chip": "ym2612"
    },
    {
      "channel": 3,
      "note": 79,
      "start": 70.7179,
      "duration": 0.0138,
      "velocity": 94,
      "chip": "ym2612"
    },
    {
      "channel": 2,
      "note": 50,
      "start": 70.7194,
      "duration": 0.0136,
      "velocity": 100,
      "chip": "ym2612"
    },
    {
      "channel": 1,
      "note": 105,
      "start": 70.7252,
      "duration": 0.0161,
      "velocity": 105,
      "chip": "ym2612"
    },
    {
      "channel": 0,
      "note": 46,
      "start": 70.7293,
      "duration": 0.0137,
      "velocity": 115,
      "chip": "ym2612"
    },
    {
      "channel": 4,
      "note": 79,
      "start": 70.7306,
      "duration": 0.0139,
      "velocity": 94,
      "chip": "ym2612"
    },
    {
      "channel": 3,
      "note": 79,
      "start": 70.7317,
      "duration": 0.0139,
      "velocity": 94,
      "chip": "ym2612"
    },
    {
      "channel": 2,
      "note": 50,
      "start": 70.7329,
      "duration": 0.0138,
      "velocity": 100,
      "chip": "ym2612"
    },
    {
      "channel": 1,
      "note": 105,
      "start": 70.7413,
      "duration": 0.0161,
      "velocity": 105,
      "chip": "ym2612"
    },
    {
      "channel": 0,
      "note": 46,
      "start": 70.743,
      "duration": 0.0161,
      "velocity": 115,
      "chip": "ym2612"
    },
    {
      "channel": 4,
      "note": 79,
      "start": 70.7445,
      "duration": 0.0185,
      "velocity": 94,
      "chip": "ym2612"
    },
    {
      "channel": 3,
      "note": 79,
      "start": 70.7456,
      "duration": 0.0186,
      "velocity": 94,
      "chip": "ym2612"
    },
    {
      "channel": 2,
      "note": 50,
      "start": 70.7467,
      "duration": 0.0185,
      "velocity": 100,
      "chip": "ym2612"
    },
    {
      "channel": 1,
      "note": 105,
      "start": 70.7574,
      "duration": 0.0161,
      "velocity": 105,
      "chip": "ym2612"
    },
    {
      "channel": 0,
      "note": 47,
      "start": 70.7591,
      "duration": 0.0161,
      "velocity": 115,
      "chip": "ym2612"
    },
    {
      "channel": 4,
      "note": 79,
      "start": 70.763,
      "duration": 0.0134,
      "velocity": 94,
      "chip": "ym2612"
    },
    {
      "channel": 3,
      "note": 79,
      "start": 70.7642,
      "duration": 0.0161,
      "velocity": 94,
      "chip": "ym2612"
    },
    {
      "channel": 2,
      "note": 50,
      "start": 70.7653,
      "duration": 0.0161,
      "velocity": 100,
      "chip": "ym2612"
    },
    {
      "channel": 1,
      "note": 105,
      "start": 70.7735,
      "duration": 0.0161,
      "velocity": 105,
      "chip": "ym2612"
    },
    {
      "channel": 0,
      "note": 47,
      "start": 70.7752,
      "duration": 0.0161,
      "velocity": 115,
      "chip": "ym2612"
    },
    {
      "channel": 4,
      "note": 79,
      "start": 70.7764,
      "duration": 0.0161,
      "velocity": 94,
      "chip": "ym2612"
    },
    {
      "channel": 3,
      "note": 79,
      "start": 70.7803,
      "duration": 0.0157,
      "velocity": 94,
      "chip": "ym2612"
    },
    {
      "channel": 2,
      "note": 50,
      "start": 70.7814,
      "duration": 0.0157,
      "velocity": 100,
      "chip": "ym2612"
    },
    {
      "channel": 1,
      "note": 105,
      "start": 70.7896,
      "duration": 0.0161,
      "velocity": 105,
      "chip": "ym2612"
    },
    {
      "channel": 0,
      "note": 47,
      "start": 70.7913,
      "duration": 0.0161,
      "velocity": 115,
      "chip": "ym2612"
    },
    {
      "channel": 4,
      "note": 79,
      "start": 70.7925,
      "duration": 0.0161,
      "velocity": 94,
      "chip": "ym2612"
    },
    {
      "channel": 3,
      "note": 79,
      "start": 70.796,
      "duration": 0.0137,
      "velocity": 94,
      "chip": "ym2612"
    },
    {
      "channel": 2,
      "note": 50,
      "start": 70.7971,
      "duration": 0.0141,
      "velocity": 100,
      "chip": "ym2612"
    },
    {
      "channel": 1,
      "note": 105,
      "start": 70.8057,
      "duration": 0.0184,
      "velocity": 124,
      "chip": "ym2612"
    },
    {
      "channel": 0,
      "note": 48,
      "start": 70.8074,
      "duration": 0.0219,
      "velocity": 115,
      "chip": "ym2612"
    },
    {
      "channel": 4,
      "note": 79,
      "start": 70.8086,
      "duration": 0.022,
      "velocity": 94,
      "chip": "ym2612"
    },
    {
      "channel": 3,
      "note": 79,
      "start": 70.8097,
      "duration": 0.0222,
      "velocity": 94,
      "chip": "ym2612"
    },
    {
      "channel": 2,
      "note": 50,
      "start": 70.8112,
      "duration": 0.0222,
      "velocity": 100,
      "chip": "ym2612"
    },
    {
      "channel": 1,
      "note": 78,
      "start": 70.8241,
      "duration": 0.0144,
      "velocity": 124,
      "chip": "ym2612"
    },
    {
      "channel": 0,
      "note": 48,
      "start": 70.8293,
      "duration": 0.0111,
      "velocity": 115,
      "chip": "ym2612"
    },
    {
      "channel": 4,
      "note": 79,
      "start": 70.8305,
      "duration": 0.0111,
      "velocity": 94,
      "chip": "ym2612"
    },
    {
      "channel": 3,
      "note": 79,
      "start": 70.832,
      "duration": 0.0109,
      "velocity": 94,
      "chip": "ym2612"
    },
    {
      "channel": 2,
      "note": 50,
      "start": 70.8334,
      "duration": 0.0134,
      "velocity": 100,
      "chip": "ym2612"
    },
    {
      "channel": 1,
      "note": 76,
      "start": 70.8385,
      "duration": 0.016,
      "velocity": 124,
      "chip": "ym2612"
    },
    {
      "channel": 0,
      "note": 49,
      "start": 70.8404,
      "duration": 0.0152,
      "velocity": 1,
      "chip": "ym2612"
    },
    {
      "channel": 4,
      "note": 79,
      "start": 70.8417,
      "duration": 0.0151,
      "velocity": 94,
      "chip": "ym2612"
    },
    {
      "channel": 3,
      "note": 79,
      "start": 70.8429,
      "duration": 0.015,
      "velocity": 94,
      "chip": "ym2612"
    },
    {
      "channel": 2,
      "note": 50,
      "start": 70.8468,
      "duration": 0.0122,
      "velocity": 100,
      "chip": "ym2612"
    },
    {
      "channel": 1,
      "note": 75,
      "start": 70.8545,
      "duration": 0.0161,
      "velocity": 124,
      "chip": "ym2612"
    },
    {
      "channel": 4,
      "note": 79,
      "start": 70.8567,
      "duration": 0.0153,
      "velocity": 94,
      "chip": "ym2612"
    },
    {
      "channel": 3,
      "note": 79,
      "start": 70.8579,
      "duration": 0.0153,
      "velocity": 94,
      "chip": "ym2612"
    },
    {
      "channel": 2,
      "note": 50,
      "start": 70.859,
      "duration": 0.0153,
      "velocity": 100,
      "chip": "ym2612"
    },
    {
      "channel": 1,
      "note": 74,
      "start": 70.8707,
      "duration": 0.0161,
      "velocity": 124,
      "chip": "ym2612"
    },
    {
      "channel": 4,
      "note": 79,
      "start": 70.872,
      "duration": 0.0162,
      "velocity": 94,
      "chip": "ym2612"
    },
    {
      "channel": 3,
      "note": 79,
      "start": 70.8732,
      "duration": 0.0161,
      "velocity": 94,
      "chip": "ym2612"
    },
    {
      "channel": 2,
      "note": 50,
      "start": 70.8743,
      "duration": 0.0161,
      "velocity": 100,
      "chip": "ym2612"
    },
    {
      "channel": 1,
      "note": 72,
      "start": 70.8868,
      "duration": 0.0161,
      "velocity": 124,
      "chip": "ym2612"
    },
    {
      "channel": 4,
      "note": 79,
      "start": 70.8882,
      "duration": 0.0161,
      "velocity": 94,
      "chip": "ym2612"
    },
    {
      "channel": 3,
      "note": 79,
      "start": 70.8893,
      "duration": 0.0161,
      "velocity": 94,
      "chip": "ym2612"
    },
    {
      "channel": 2,
      "note": 50,
      "start": 70.8904,
      "duration": 0.0161,
      "velocity": 100,
      "chip": "ym2612"
    },
    {
      "channel": 1,
      "note": 71,
      "start": 70.9029,
      "duration": 0.0161,
      "velocity": 124,
      "chip": "ym2612"
    },
    {
      "channel": 4,
      "note": 79,
      "start": 70.9042,
      "duration": 0.0161,
      "velocity": 94,
      "chip": "ym2612"
    },
    {
      "channel": 3,
      "note": 79,
      "start": 70.9054,
      "duration": 0.0161,
      "velocity": 94,
      "chip": "ym2612"
    },
    {
      "channel": 2,
      "note": 50,
      "start": 70.9065,
      "duration": 0.0161,
      "velocity": 100,
      "chip": "ym2612"
    },
    {
      "channel": 1,
      "note": 70,
      "start": 70.9189,
      "duration": 0.0161,
      "velocity": 124,
      "chip": "ym2612"
    },
    {
      "channel": 4,
      "note": 79,
      "start": 70.9203,
      "duration": 0.0168,
      "velocity": 94,
      "chip": "ym2612"
    },
    {
      "channel": 3,
      "note": 79,
      "start": 70.9215,
      "duration": 0.017,
      "velocity": 94,
      "chip": "ym2612"
    },
    {
      "channel": 2,
      "note": 50,
      "start": 70.9226,
      "duration": 0.0173,
      "velocity": 100,
      "chip": "ym2612"
    },
    {
      "channel": 1,
      "note": 69,
      "start": 70.935,
      "duration": 0.0161,
      "velocity": 124,
      "chip": "ym2612"
    },
    {
      "channel": 4,
      "note": 74,
      "start": 70.9372,
      "duration": 0.0154,
      "velocity": 94,
      "chip": "ym2612"
    },
    {
      "channel": 3,
      "note": 79,
      "start": 70.9385,
      "duration": 0.0153,
      "velocity": 94,
      "chip": "ym2612"
    },
    {
      "channel": 2,
      "note": 50,
      "start": 70.9399,
      "duration": 0.0151,
      "velocity": 100,
      "chip": "ym2612"
    },
    {
      "channel": 1,
      "note": 68,
      "start": 70.9511,
      "duration": 0.0161,
      "velocity": 124,
      "chip": "ym2612"
    },
    {
      "channel": 4,
      "note": 74,
      "start": 70.9527,
      "duration": 0.016,
      "velocity": 94,
      "chip": "ym2612"
    },
    {
      "channel": 3,
      "note": 79,
      "start": 70.9538,
      "duration": 0.016,
      "velocity": 94,
      "chip": "ym2612"
    },
    {
      "channel": 2,
      "note": 50,
      "start": 70.955,
      "duration": 0.0159,
      "velocity": 100,
      "chip": "ym2612"
    },
    {
      "channel": 1,
      "note": 66,
      "start": 70.9672,
      "duration": 0.0161,
      "velocity": 124,
      "chip": "ym2612"
    },
    {
      "channel": 4,
      "note": 74,
      "start": 70.9686,
      "duration": 0.0161,
      "velocity": 94,
      "chip": "ym2612"
    },
    {
      "channel": 3,
      "note": 79,
      "start": 70.9698,
      "duration": 0.0161,
      "velocity": 94,
      "chip": "ym2612"
    },
    {
      "channel": 2,
      "note": 50,
      "start": 70.9709,
      "duration": 0.0161,
      "velocity": 100,
      "chip": "ym2612"
    },
    {
      "channel": 1,
      "note": 65,
      "start": 70.9833,
      "duration": 0.0161,
      "velocity": 124,
      "chip": "ym2612"
    },
    {
      "channel": 4,
      "note": 74,
      "start": 70.9847,
      "duration": 0.0161,
      "velocity": 94,
      "chip": "ym2612"
    },
    {
      "channel": 3,
      "note": 79,
      "start": 70.9859,
      "duration": 0.0161,
      "velocity": 94,
      "chip": "ym2612"
    },
    {
      "channel": 2,
      "note": 50,
      "start": 70.987,
      "duration": 0.0161,
      "velocity": 100,
      "chip": "ym2612"
    },
    {
      "channel": 1,
      "note": 64,
      "start": 70.9994,
      "duration": 0.0161,
      "velocity": 124,
      "chip": "ym2612"
    },
    {
      "channel": 4,
      "note": 74,
      "start": 71.0008,
      "duration": 0.0161,
      "velocity": 94,
      "chip": "ym2612"
    },
    {
      "channel": 3,
      "note": 79,
      "start": 71.002,
      "duration": 0.0161,
      "velocity": 94,
      "chip": "ym2612"
    },
    {
      "channel": 2,
      "note": 50,
      "start": 71.0031,
      "duration": 0.0161,
      "velocity": 100,
      "chip": "ym2612"
    },
    {
      "channel": 1,
      "note": 62,
      "start": 71.0155,
      "duration": 0.0161,
      "velocity": 124,
      "chip": "ym2612"
    },
    {
      "channel": 4,
      "note": 74,
      "start": 71.0169,
      "duration": 0.0161,
      "velocity": 94,
      "chip": "ym2612"
    },
    {
      "channel": 3,
      "note": 79,
      "start": 71.018,
      "duration": 0.0161,
      "velocity": 94,
      "chip": "ym2612"
    },
    {
      "channel": 2,
      "note": 50,
      "start": 71.0192,
      "duration": 0.0161,
      "velocity": 100,
      "chip": "ym2612"
    },
    {
      "channel": 1,
      "note": 61,
      "start": 71.0317,
      "duration": 0.0161,
      "velocity": 124,
      "chip": "ym2612"
    },
    {
      "channel": 4,
      "note": 74,
      "start": 71.033,
      "duration": 0.0168,
      "velocity": 94,
      "chip": "ym2612"
    },
    {
      "channel": 3,
      "note": 79,
      "start": 71.0341,
      "duration": 0.0171,
      "velocity": 94,
      "chip": "ym2612"
    },
    {
      "channel": 2,
      "note": 50,
      "start": 71.0353,
      "duration": 0.0174,
      "velocity": 100,
      "chip": "ym2612"
    },
    {
      "channel": 1,
      "note": 60,
      "start": 71.0478,
      "duration": 0.0163,
      "velocity": 124,
      "chip": "ym2612"
    },
    {
      "channel": 4,
      "note": 74,
      "start": 71.0498,
      "duration": 0.0158,
      "velocity": 94,
      "chip": "ym2612"
    },
    {
      "channel": 3,
      "note": 74,
      "start": 71.0513,
      "duration": 0.0155,
      "velocity": 94,
      "chip": "ym2612"
    },
    {
      "channel": 2,
      "note": 50,
      "start": 71.0527,
      "duration": 0.0153,
      "velocity": 100,
      "chip": "ym2612"
    },
    {
      "channel": 1,
      "note": 59,
      "start": 71.0641,
      "duration": 0.0159,
      "velocity": 124,
      "chip": "ym2612"
    },
    {
      "channel": 4,
      "note": 74,
      "start": 71.0656,
      "duration": 0.0158,
      "velocity": 94,
      "chip": "ym2612"
    },
    {
      "channel": 3,
      "note": 74,
      "start": 71.0668,
      "duration": 0.0157,
      "velocity": 94,
      "chip": "ym2612"
    },
    {
      "channel": 2,
      "note": 50,
      "start": 71.068,
      "duration": 0.0156,
      "velocity": 100,
      "chip": "ym2612"
    },
    {
      "channel": 1,
      "note": 57,
      "start": 71.08,
      "duration": 0.0178,
      "velocity": 124,
      "chip": "ym2612"
    },
    {
      "channel": 4,
      "note": 74,
      "start": 71.0813,
      "duration": 0.0178,
      "velocity": 94,
      "chip": "ym2612"
    },
    {
      "channel": 3,
      "note": 74,
      "start": 71.0825,
      "duration": 0.0178,
      "velocity": 94,
      "chip": "ym2612"
    },
    {
      "channel": 2,
      "note": 50,
      "start": 71.0836,
      "duration": 0.0178,
      "velocity": 100,
      "chip": "ym2612"
    },
    {
      "channel": 1,
      "note": 56,
      "start": 71.0978,
      "duration": 0.0167,
      "velocity": 124,
      "chip": "ym2612"
    },
    {
      "channel": 4,
      "note": 74,
      "start": 71.0992,
      "duration": 0.0167,
      "velocity": 94,
      "chip": "ym2612"
    },
    {
      "channel": 3,
      "note": 74,
      "start": 71.1003,
      "duration": 0.0167,
      "velocity": 94,
      "chip": "ym2612"
    },
    {
      "channel": 2,
      "note": 50,
      "start": 71.1015,
      "duration": 0.0167,
      "velocity": 100,
      "chip": "ym2612"
    },
    {
      "channel": 1,
      "note": 55,
      "start": 71.1144,
      "duration": 0.0162,
      "velocity": 124,
      "chip": "ym2612"
    },
    {
      "channel": 4,
      "note": 74,
      "start": 71.1158,
      "duration": 0.0161,
      "velocity": 94,
      "chip": "ym2612"
    },
    {
      "channel": 3,
      "note": 74,
      "start": 71.117,
      "duration": 0.0162,
      "velocity": 94,
      "chip": "ym2612"
    },
    {
      "channel": 2,
      "note": 50,
      "start": 71.1181,
      "duration": 0.0161,
      "velocity": 100,
      "chip": "ym2612"
    },
    {
      "channel": 1,
      "note": 53,
      "start": 71.1307,
      "duration": 0.014,
      "velocity": 124,
      "chip": "ym2612"
    },
    {
      "channel": 4,
      "note": 74,
      "start": 71.132,
      "duration": 0.0141,
      "velocity": 94,
      "chip": "ym2612"
    },
    {
      "channel": 3,
      "note": 74,
      "start": 71.1331,
      "duration": 0.0141,
      "velocity": 94,
      "chip": "ym2612"
    },
    {
      "channel": 2,
      "note": 50,
      "start": 71.1343,
      "duration": 0.0141,
      "velocity": 100,
      "chip": "ym2612"
    },
    {
      "channel": 1,
      "note": 52,
      "start": 71.1446,
      "duration": 0.0186,
      "velocity": 124,
      "chip": "ym2612"
    },
    {
      "channel": 4,
      "note": 74,
      "start": 71.146,
      "duration": 0.0227,
      "velocity": 94,
      "chip": "ym2612"
    },
    {
      "channel": 3,
      "note": 74,
      "start": 71.1472,
      "duration": 0.0229,
      "velocity": 94,
      "chip": "ym2612"
    },
    {
      "channel": 2,
      "note": 50,
      "start": 71.1483,
      "duration": 0.0232,
      "velocity": 100,
      "chip": "ym2612"
    },
    {
      "channel": 1,
      "note": 51,
      "start": 71.1632,
      "duration": 0.0125,
      "velocity": 1,
      "chip": "ym2612"
    },
    {
      "channel": 0,
      "note": 36,
      "start": 71.1674,
      "duration": 0.015,
      "velocity": 115,
      "chip": "ym2612"
    },
    {
      "channel": 4,
      "note": 74,
      "start": 71.1688,
      "duration": 0.0148,
      "velocity": 94,
      "chip": "ym2612"
    },
    {
      "channel": 3,
      "note": 74,
      "start": 71.1701,
      "duration": 0.0148,
      "velocity": 94,
      "chip": "ym2612"
    },
    {
      "channel": 2,
      "note": 50,
      "start": 71.1715,
      "duration": 0.0144,
      "velocity": 100,
      "chip": "ym2612"
    },
    {
      "channel": 1,
      "note": 51,
      "start": 71.1807,
      "duration": 0.0115,
      "velocity": 105,
      "chip": "ym2612"
    },
    {
      "channel": 0,
      "note": 36,
      "start": 71.1824,
      "duration": 0.0138,
      "velocity": 115,
      "chip": "ym2612"
    },
    {
      "channel": 4,
      "note": 74,
      "start": 71.1836,
      "duration": 0.0137,
      "velocity": 94,
      "chip": "ym2612"
    },
    {
      "channel": 3,
      "note": 74,
      "start": 71.1849,
      "duration": 0.0137,
      "velocity": 94,
      "chip": "ym2612"
    },
    {
      "channel": 2,
      "note": 50,
      "start": 71.186,
      "duration": 0.0137,
      "velocity": 100,
      "chip": "ym2612"
    },
    {
      "channel": 1,
      "note": 105,
      "start": 71.1922,
      "duration": 0.0161,
      "velocity": 105,
      "chip": "ym2612"
    },
    {
      "channel": 0,
      "note": 37,
      "start": 71.1962,
      "duration": 0.014,
      "velocity": 115,
      "chip": "ym2612"
    },
    {
      "channel": 4,
      "note": 74,
      "start": 71.1974,
      "duration": 0.0141,
      "velocity": 94,
      "chip": "ym2612"
    },
    {
      "channel": 3,
      "note": 74,
      "start": 71.1985,
      "duration": 0.014,
      "velocity": 94,
      "chip": "ym2612"
    },
    {
      "channel": 2,
      "note": 50,
      "start": 71.1997,
      "duration": 0.014,
      "velocity": 100,
      "chip": "ym2612"
    },
    {
      "channel": 1,
      "note": 105,
      "start": 71.2083,
      "duration": 0.0161,
      "velocity": 105,
      "chip": "ym2612"
    },
    {
      "channel": 0,
      "note": 37,
      "start": 71.2102,
      "duration": 0.0158,
      "velocity": 115,
      "chip": "ym2612"
    },
    {
      "channel": 4,
      "note": 74,
      "start": 71.2114,
      "duration": 0.0185,
      "velocity": 94,
      "chip": "ym2612"
    },
    {
      "channel": 3,
      "note": 74,
      "start": 71.2125,
      "duration": 0.0186,
      "velocity": 94,
      "chip": "ym2612"
    },
    {
      "channel": 2,
      "note": 50,
      "start": 71.2137,
      "duration": 0.0186,
      "velocity": 100,
      "chip": "ym2612"
    },
    {
      "channel": 1,
      "note": 105,
      "start": 71.2244,
      "duration": 0.0161,
      "velocity": 105,
      "chip": "ym2612"
    },
    {
      "channel": 0,
      "note": 38,
      "start": 71.226,
      "duration": 0.0161,
      "velocity": 115,
      "chip": "ym2612"
    },
    {
      "channel": 4,
      "note": 74,
      "start": 71.23,
      "duration": 0.0161,
      "velocity": 94,
      "chip": "ym2612"
    },
    {
      "channel": 3,
      "note": 74,
      "start": 71.2311,
      "duration": 0.0161,
      "velocity": 94,
      "chip": "ym2612"
    },
    {
      "channel": 2,
      "note": 50,
      "start": 71.2322,
      "duration": 0.0161,
      "velocity": 100,
      "chip": "ym2612"
    },
    {
      "channel": 1,
      "note": 105,
      "start": 71.2405,
      "duration": 0.0161,
      "velocity": 105,
      "chip": "ym2612"
    },
    {
      "channel": 0,
      "note": 38,
      "start": 71.2421,
      "duration": 0.0161,
      "velocity": 115,
      "chip": "ym2612"
    },
    {
      "channel": 4,
      "note": 74,
      "start": 71.246,
      "duration": 0.0134,
      "velocity": 94,
      "chip": "ym2612"
    },
    {
      "channel": 3,
      "note": 74,
      "start": 71.2472,
      "duration": 0.0157,
      "velocity": 94,
      "chip": "ym2612"
    },
    {
      "channel": 2,
      "note": 50,
      "start": 71.2483,
      "duration": 0.0157,
      "velocity": 100,
      "chip": "ym2612"
    },
    {
      "channel": 1,
      "note": 105,
      "start": 71.2565,
      "duration": 0.0178,
      "velocity": 124,
      "chip": "ym2612"
    },
    {
      "channel": 0,
      "note": 39,
      "start": 71.2582,
      "duration": 0.02,
      "velocity": 115,
      "chip": "ym2612"
    },
    {
      "channel": 4,
      "note": 74,
      "start": 71.2594,
      "duration": 0.0202,
      "velocity": 94,
      "chip": "ym2612"
    },
    {
      "channel": 3,
      "note": 74,
      "start": 71.2629,
      "duration": 0.0181,
      "velocity": 94,
      "chip": "ym2612"
    },
    {
      "channel": 2,
      "note": 50,
      "start": 71.264,
      "duration": 0.0184,
      "velocity": 100,
      "chip": "ym2612"
    },
    {
      "channel": 1,
      "note": 64,
      "start": 71.2744,
      "duration": 0.0144,
      "velocity": 124,
      "chip": "ym2612"
    },
    {
      "channel": 0,
      "note": 36,
      "start": 71.2782,
      "duration": 0.0123,
      "velocity": 115,
      "chip": "ym2612"
    },
    {
      "channel": 4,
      "note": 79,
      "start": 71.2796,
      "duration": 0.0122,
      "velocity": 94,
      "chip": "ym2612"
    },
    {
      "channel": 3,
      "note": 74,
      "start": 71.281,
      "duration": 0.012,
      "velocity": 94,
      "chip": "ym2612"
    },
    {
      "channel": 2,
      "note": 50,
      "start": 71.2825,
      "duration": 0.0144,
      "velocity": 100,
      "chip": "ym2612"
    },
    {
      "channel": 1,
      "note": 64,
      "start": 71.2888,
      "duration": 0.016,
      "velocity": 124,
      "chip": "ym2612"
    },
    {
      "channel": 0,
      "note": 36,
      "start": 71.2906,
      "duration": 0.016,
      "velocity": 115,
      "chip": "ym2612"
    },
    {
      "channel": 4,
      "note": 79,
      "start": 71.2918,
      "duration": 0.016,
      "velocity": 94,
      "chip": "ym2612"
    },
    {
      "channel": 3,
      "note": 74,
      "start": 71.293,
      "duration": 0.0159,
      "velocity": 94,
      "chip": "ym2612"
    },
    {
      "channel": 2,
      "note": 50,
      "start": 71.2969,
      "duration": 0.0158,
      "velocity": 100,
      "chip": "ym2612"
    },
    {
      "channel": 1,
      "note": 64,
      "start": 71.3049,
      "duration": 0.0161,
      "velocity": 124,
      "chip": "ym2612"
    },
    {
      "channel": 0,
      "note": 37,
      "start": 71.3065,
      "duration": 0.0161,
      "velocity": 115,
      "chip": "ym2612"
    },
    {
      "channel": 4,
      "note": 79,
      "start": 71.3078,
      "duration": 0.0161,
      "velocity": 94,
      "chip": "ym2612"
    },
    {
      "channel": 3,
      "note": 74,
      "start": 71.3089,
      "duration": 0.0161,
      "velocity": 94,
      "chip": "ym2612"
    },
    {
      "channel": 2,
      "note": 50,
      "start": 71.3128,
      "duration": 0.0133,
      "velocity": 100,
      "chip": "ym2612"
    },
    {
      "channel": 1,
      "note": 64,
      "start": 71.321,
      "duration": 0.0161,
      "velocity": 124,
      "chip": "ym2612"
    },
    {
      "channel": 0,
      "note": 37,
      "start": 71.3226,
      "duration": 0.0161,
      "velocity": 115,
      "chip": "ym2612"
    },
    {
      "channel": 4,
      "note": 79,
      "start": 71.3238,
      "duration": 0.0161,
      "velocity": 94,
      "chip": "ym2612"
    },
    {
      "channel": 3,
      "note": 74,
      "start": 71.325,
      "duration": 0.0161,
      "velocity": 94,
      "chip": "ym2612"
    },
    {
      "channel": 2,
      "note": 50,
      "start": 71.3261,
      "duration": 0.0161,
      "velocity": 100,
      "chip": "ym2612"
    },
    {
      "channel": 1,
      "note": 64,
      "start": 71.3371,
      "duration": 0.0161,
      "velocity": 124,
      "chip": "ym2612"
    },
    {
      "channel": 0,
      "note": 38,
      "start": 71.3387,
      "duration": 0.0161,
      "velocity": 115,
      "chip": "ym2612"
    },
    {
      "channel": 4,
      "note": 79,
      "start": 71.3399,
      "duration": 0.0161,
      "velocity": 94,
      "chip": "ym2612"
    },
    {
      "channel": 3,
      "note": 74,
      "start": 71.3411,
      "duration": 0.0161,
      "velocity": 94,
      "chip": "ym2612"
    },
    {
      "channel": 2,
      "note": 50,
      "start": 71.3422,
      "duration": 0.0161,
      "velocity": 100,
      "chip": "ym2612"
    },
    {
      "channel": 1,
      "note": 64,
      "start": 71.3532,
      "duration": 0.0161,
      "velocity": 124,
      "chip": "ym2612"
    },
    {
      "channel": 0,
      "note": 38,
      "start": 71.3548,
      "duration": 0.0161,
      "velocity": 115,
      "chip": "ym2612"
    },
    {
      "channel": 4,
      "note": 79,
      "start": 71.356,
      "duration": 0.0161,
      "velocity": 94,
      "chip": "ym2612"
    },
    {
      "channel": 3,
      "note": 74,
      "start": 71.3572,
      "duration": 0.0161,
      "velocity": 94,
      "chip": "ym2612"
    },
    {
      "channel": 2,
      "note": 50,
      "start": 71.3583,
      "duration": 0.0161,
      "velocity": 100,
      "chip": "ym2612"
    },
    {
      "channel": 1,
      "note": 64,
      "start": 71.3693,
      "duration": 0.0178,
      "velocity": 105,
      "chip": "ym2612"
    },
    {
      "channel": 0,
      "note": 39,
      "start": 71.3709,
      "duration": 0.0179,
      "velocity": 115,
      "chip": "ym2612"
    },
    {
      "channel": 4,
      "note": 79,
      "start": 71.3721,
      "duration": 0.0179,
      "velocity": 94,
      "chip": "ym2612"
    },
    {
      "channel": 3,
      "note": 74,
      "start": 71.3733,
      "duration": 0.0181,
      "velocity": 94,
      "chip": "ym2612"
    },
    {
      "channel": 2,
      "note": 50,
      "start": 71.3744,
      "duration": 0.0185,
      "velocity": 100,
      "chip": "ym2612"
    },
    {
      "channel": 1,
      "note": 105,
      "start": 71.3871,
      "duration": 0.0144,
      "velocity": 105,
      "chip": "ym2612"
    },
    {
      "channel": 0,
      "note": 39,
      "start": 71.3888,
      "duration": 0.0144,
      "velocity": 115,
      "chip": "ym2612"
    },
    {
      "channel": 4,
      "note": 79,
      "start": 71.3901,
      "duration": 0.0143,
      "velocity": 94,
      "chip": "ym2612"
    },
    {
      "channel": 3,
      "note": 79,
      "start": 71.3915,
      "duration": 0.0141,
      "velocity": 94,
      "chip": "ym2612"
    },
    {
      "channel": 2,
      "note": 50,
      "start": 71.3929,
      "duration": 0.0139,
      "velocity": 100,
      "chip": "ym2612"
    },
    {
      "channel": 1,
      "note": 105,
      "start": 71.4015,
      "duration": 0.016,
      "velocity": 105,
      "chip": "ym2612"
    },
    {
      "channel": 0,
      "note": 40,
      "start": 71.4032,
      "duration": 0.016,
      "velocity": 115,
      "chip": "ym2612"
    },
    {
      "channel": 4,
      "note": 79,
      "start": 71.4044,
      "duration": 0.016,
      "velocity": 94,
      "chip": "ym2612"
    },
    {
      "channel": 3,
      "note": 79,
      "start": 71.4056,
      "duration": 0.016,
      "velocity": 94,
      "chip": "ym2612"
    },
    {
      "channel": 2,
      "note": 50,
      "start": 71.4068,
      "duration": 0.0158,
      "velocity": 100,
      "chip": "ym2612"
    },
    {
      "channel": 1,
      "note": 105,
      "start": 71.4176,
      "duration": 0.0161,
      "velocity": 105,
      "chip": "ym2612"
    },
    {
      "channel": 0,
      "note": 40,
      "start": 71.4192,
      "duration": 0.0161,
      "velocity": 115,
      "chip": "ym2612"
    },
    {
      "channel": 4,
      "note": 79,
      "start": 71.4204,
      "duration": 0.0161,
      "velocity": 94,
      "chip": "ym2612"
    },
    {
      "channel": 3,
      "note": 79,
      "start": 71.4215,
      "duration": 0.0161,
      "velocity": 94,
      "chip": "ym2612"
    },
    {
      "channel": 2,
      "note": 50,
      "start": 71.4226,
      "duration": 0.0162,
      "velocity": 100,
      "chip": "ym2612"
    },
    {
      "channel": 1,
      "note": 105,
      "start": 71.4336,
      "duration": 0.0162,
      "velocity": 105,
      "chip": "ym2612"
    },
    {
      "channel": 0,
      "note": 40,
      "start": 71.4354,
      "duration": 0.0161,
      "velocity": 115,
      "chip": "ym2612"
    },
    {
      "channel": 4,
      "note": 79,
      "start": 71.4365,
      "duration": 0.0161,
      "velocity": 94,
      "chip": "ym2612"
    },
    {
      "channel": 3,
      "note": 79,
      "start": 71.4376,
      "duration": 0.0161,
      "velocity": 94,
      "chip": "ym2612"
    },
    {
      "channel": 2,
      "note": 50,
      "start": 71.4388,
      "duration": 0.0161,
      "velocity": 100,
      "chip": "ym2612"
    },
    {
      "channel": 1,
      "note": 105,
      "start": 71.4498,
      "duration": 0.0161,
      "velocity": 105,
      "chip": "ym2612"
    },
    {
      "channel": 0,
      "note": 41,
      "start": 71.4515,
      "duration": 0.0161,
      "velocity": 115,
      "chip": "ym2612"
    },
    {
      "channel": 4,
      "note": 79,
      "start": 71.4526,
      "duration": 0.0161,
      "velocity": 94,
      "chip": "ym2612"
    },
    {
      "channel": 3,
      "note": 79,
      "start": 71.4537,
      "duration": 0.0161,
      "velocity": 94,
      "chip": "ym2612"
    },
    {
      "channel": 2,
      "note": 50,
      "start": 71.4549,
      "duration": 0.0161,
      "velocity": 100,
      "chip": "ym2612"
    },
    {
      "channel": 1,
      "note": 105,
      "start": 71.4659,
      "duration": 0.0161,
      "velocity": 105,
      "chip": "ym2612"
    },
    {
      "channel": 0,
      "note": 41,
      "start": 71.4676,
      "duration": 0.0161,
      "velocity": 115,
      "chip": "ym2612"
    },
    {
      "channel": 4,
      "note": 79,
      "start": 71.4687,
      "duration": 0.0161,
      "velocity": 94,
      "chip": "ym2612"
    },
    {
      "channel": 3,
      "note": 79,
      "start": 71.4698,
      "duration": 0.0161,
      "velocity": 94,
      "chip": "ym2612"
    },
    {
      "channel": 2,
      "note": 50,
      "start": 71.471,
      "duration": 0.0161,
      "velocity": 100,
      "chip": "ym2612"
    },
    {
      "channel": 1,
      "note": 105,
      "start": 71.482,
      "duration": 0.0178,
      "velocity": 124,
      "chip": "ym2612"
    },
    {
      "channel": 0,
      "note": 42,
      "start": 71.4836,
      "duration": 0.0179,
      "velocity": 115,
      "chip": "ym2612"
    },
    {
      "channel": 4,
      "note": 79,
      "start": 71.4848,
      "duration": 0.0181,
      "velocity": 94,
      "chip": "ym2612"
    },
    {
      "channel": 3,
      "note": 79,
      "start": 71.4859,
      "duration": 0.0183,
      "velocity": 94,
      "chip": "ym2612"
    },
    {
      "channel": 2,
      "note": 50,
      "start": 71.4871,
      "duration": 0.0185,
      "velocity": 100,
      "chip": "ym2612"
    },
    {
      "channel": 1,
      "note": 64,
      "start": 71.4998,
      "duration": 0.0144,
      "velocity": 124,
      "chip": "ym2612"
    },
    {
      "channel": 0,
      "note": 42,
      "start": 71.5015,
      "duration": 0.0144,
      "velocity": 115,
      "chip": "ym2612"
    },
    {
      "channel": 4,
      "note": 79,
      "start": 71.5029,
      "duration": 0.0143,
      "velocity": 94,
      "chip": "ym2612"
    },
    {
      "channel": 3,
      "note": 79,
      "start": 71.5042,
      "duration": 0.0141,
      "velocity": 94,
      "chip": "ym2612"
    },
    {
      "channel": 2,
      "note": 50,
      "start": 71.5056,
      "duration": 0.0139,
      "velocity": 100,
      "chip": "ym2612"
    },
    {
      "channel": 1,
      "note": 64,
      "start": 71.5142,
      "duration": 0.0161,
      "velocity": 124,
      "chip": "ym2612"
    },
    {
      "channel": 0,
      "note": 43,
      "start": 71.5159,
      "duration": 0.0161,
      "velocity": 115,
      "chip": "ym2612"
    },
    {
      "channel": 4,
      "note": 79,
      "start": 71.5172,
      "duration": 0.016,
      "velocity": 94,
      "chip": "ym2612"
    },
    {
      "channel": 3,
      "note": 79,
      "start": 71.5183,
      "duration": 0.016,
      "velocity": 94,
      "chip": "ym2612"
    },
    {
      "channel": 2,
      "note": 50,
      "start": 71.5195,
      "duration": 0.0159,
      "velocity": 100,
      "chip": "ym2612"
    },
    {
      "channel": 1,
      "note": 64,
      "start": 71.5303,
      "duration": 0.016,
      "velocity": 124,
      "chip": "ym2612"
    },
    {
      "channel": 0,
      "note": 43,
      "start": 71.532,
      "duration": 0.0161,
      "velocity": 115,
      "chip": "ym2612"
    },
    {
      "channel": 4,
      "note": 79,
      "start": 71.5332,
      "duration": 0.016,
      "velocity": 94,
      "chip": "ym2612"
    },
    {
      "channel": 3,
      "note": 79,
      "start": 71.5343,
      "duration": 0.016,
      "velocity": 94,
      "chip": "ym2612"
    },
    {
      "channel": 2,
      "note": 50,
      "start": 71.5354,
      "duration": 0.0161,
      "velocity": 100,
      "chip": "ym2612"
    },
    {
      "channel": 1,
      "note": 64,
      "start": 71.5463,
      "duration": 0.0176,
      "velocity": 124,
      "chip": "ym2612"
    },
    {
      "channel": 0,
      "note": 44,
      "start": 71.5481,
      "duration": 0.0176,
      "velocity": 115,
      "chip": "ym2612"
    },
    {
      "channel": 4,
      "note": 79,
      "start": 71.5492,
      "duration": 0.0176,
      "velocity": 94,
      "chip": "ym2612"
    },
    {
      "channel": 3,
      "note": 79,
      "start": 71.5504,
      "duration": 0.0176,
      "velocity": 94,
      "chip": "ym2612"
    },
    {
      "channel": 2,
      "note": 50,
      "start": 71.5515,
      "duration": 0.0176,
      "velocity": 100,
      "chip": "ym2612"
    },
    {
      "channel": 1,
      "note": 64,
      "start": 71.564,
      "duration": 0.0167,
      "velocity": 124,
      "chip": "ym2612"
    },
    {
      "channel": 0,
      "note": 44,
      "start": 71.5656,
      "duration": 0.0167,
      "velocity": 115,
      "chip": "ym2612"
    },
    {
      "channel": 4,
      "note": 79,
      "start": 71.5668,
      "duration": 0.0167,
      "velocity": 94,
      "chip": "ym2612"
    },
    {
      "channel": 3,
      "note": 79,
      "start": 71.5679,
      "duration": 0.0167,
      "velocity": 94,
      "chip": "ym2612"
    },
    {
      "channel": 2,
      "note": 50,
      "start": 71.5691,
      "duration": 0.0167,
      "velocity": 100,
      "chip": "ym2612"
    },
    {
      "channel": 1,
      "note": 64,
      "start": 71.5807,
      "duration": 0.0163,
      "velocity": 124,
      "chip": "ym2612"
    },
    {
      "channel": 0,
      "note": 44,
      "start": 71.5823,
      "duration": 0.0163,
      "velocity": 115,
      "chip": "ym2612"
    },
    {
      "channel": 4,
      "note": 79,
      "start": 71.5835,
      "duration": 0.0163,
      "velocity": 94,
      "chip": "ym2612"
    },
    {
      "channel": 3,
      "note": 79,
      "start": 71.5846,
      "duration": 0.0163,
      "velocity": 94,
      "chip": "ym2612"
    },
    {
      "channel": 2,
      "note": 50,
      "start": 71.5857,
      "duration": 0.0163,
      "velocity": 100,
      "chip": "ym2612"
    },
    {
      "channel": 1,
      "note": 64,
      "start": 71.5969,
      "duration": 0.0158,
      "velocity": 105,
      "chip": "ym2612"
    },
    {
      "channel": 0,
      "note": 45,
      "start": 71.5986,
      "duration": 0.0159,
      "velocity": 115,
      "chip": "ym2612"
    },
    {
      "channel": 4,
      "note": 79,
      "start": 71.5998,
      "duration": 0.0161,
      "velocity": 94,
      "chip": "ym2612"
    },
    {
      "channel": 3,
      "note": 79,
      "start": 71.6009,
      "duration": 0.0163,
      "velocity": 94,
      "chip": "ym2612"
    },
    {
      "channel": 2,
      "note": 50,
      "start": 71.602,
      "duration": 0.0167,
      "velocity": 100,
      "chip": "ym2612"
    },
    {
      "channel": 1,
      "note": 105,
      "start": 71.6128,
      "duration": 0.0168,
      "velocity": 105,
      "chip": "ym2612"
    },
    {
      "channel": 0,
      "note": 45,
      "start": 71.6145,
      "duration": 0.0168,
      "velocity": 115,
      "chip": "ym2612"
    },
    {
      "channel": 4,
      "note": 79,
      "start": 71.616,
      "duration": 0.0166,
      "velocity": 94,
      "chip": "ym2612"
    },
    {
      "channel": 3,
      "note": 79,
      "start": 71.6173,
      "duration": 0.0164,
      "velocity": 94,
      "chip": "ym2612"
    },
    {
      "channel": 2,
      "note": 50,
      "start": 71.6188,
      "duration": 0.0162,
      "velocity": 100,
      "chip": "ym2612"
    },
    {
      "channel": 1,
      "note": 105,
      "start": 71.6297,
      "duration": 0.0133,
      "velocity": 105,
      "chip": "ym2612"
    },
    {
      "channel": 0,
      "note": 46,
      "start": 71.6313,
      "duration": 0.016,
      "velocity": 115,
      "chip": "ym2612"
    },
    {
      "channel": 4,
      "note": 79,
      "start": 71.6326,
      "duration": 0.016,
      "velocity": 94,
      "chip": "ym2612"
    },
    {
      "channel": 3,
      "note": 79,
      "start": 71.6338,
      "duration": 0.016,
      "velocity": 94,
      "chip": "ym2612"
    },
    {
      "channel": 2,
      "note": 50,
      "start": 71.635,
      "duration": 0.0159,
      "velocity": 100,
      "chip": "ym2612"
    },
    {
      "channel": 1,
      "note": 105,
      "start": 71.643,
      "duration": 0.0161,
      "velocity": 105,
      "chip": "ym2612"
    },
    {
      "channel": 0,
      "note": 46,
      "start": 71.6474,
      "duration": 0.0158,
      "velocity": 115,
      "chip": "ym2612"
    },
    {
      "channel": 4,
      "note": 79,
      "start": 71.6486,
      "duration": 0.0157,
      "velocity": 94,
      "chip": "ym2612"
    },
    {
      "channel": 3,
      "note": 79,
      "start": 71.6497,
      "duration": 0.0157,
      "velocity": 94,
      "chip": "ym2612"
    },
    {
      "channel": 2,
      "note": 50,
      "start": 71.6508,
      "duration": 0.0158,
      "velocity": 100,
      "chip": "ym2612"
    },
    {
      "channel": 1,
      "note": 105,
      "start": 71.6591,
      "duration": 0.0161,
      "velocity": 105,
      "chip": "ym2612"
    },
    {
      "channel": 0,
      "note": 47,
      "start": 71.6632,
      "duration": 0.0141,
      "velocity": 115,
      "chip": "ym2612"
    },
    {
      "channel": 4,
      "note": 79,
      "start": 71.6643,
      "duration": 0.0141,
      "velocity": 94,
      "chip": "ym2612"
    },
    {
      "channel": 3,
      "note": 79,
      "start": 71.6654,
      "duration": 0.0141,
      "velocity": 94,
      "chip": "ym2612"
    },
    {
      "channel": 2,
      "note": 50,
      "start": 71.6666,
      "duration": 0.0141,
      "velocity": 100,
      "chip": "ym2612"
    },
    {
      "channel": 1,
      "note": 105,
      "start": 71.6752,
      "duration": 0.0161,
      "velocity": 105,
      "chip": "ym2612"
    },
    {
      "channel": 0,
      "note": 47,
      "start": 71.6772,
      "duration": 0.0157,
      "velocity": 115,
      "chip": "ym2612"
    },
    {
      "channel": 4,
      "note": 79,
      "start": 71.6784,
      "duration": 0.0185,
      "velocity": 94,
      "chip": "ym2612"
    },
    {
      "channel": 3,
      "note": 79,
      "start": 71.6795,
      "duration": 0.0185,
      "velocity": 94,
      "chip": "ym2612"
    },
    {
      "channel": 2,
      "note": 50,
      "start": 71.6807,
      "duration": 0.0185,
      "velocity": 100,
      "chip": "ym2612"
    },
    {
      "channel": 1,
      "note": 105,
      "start": 71.6913,
      "duration": 0.0161,
      "velocity": 105,
      "chip": "ym2612"
    },
    {
      "channel": 0,
      "note": 47,
      "start": 71.6929,
      "duration": 0.0161,
      "velocity": 115,
      "chip": "ym2612"
    },
    {
      "channel": 4,
      "note": 79,
      "start": 71.6969,
      "duration": 0.0161,
      "velocity": 94,
      "chip": "ym2612"
    },
    {
      "channel": 3,
      "note": 79,
      "start": 71.698,
      "duration": 0.0161,
      "velocity": 94,
      "chip": "ym2612"
    },
    {
      "channel": 2,
      "note": 50,
      "start": 71.6992,
      "duration": 0.0161,
      "velocity": 100,
      "chip": "ym2612"
    },
    {
      "channel": 1,
      "note": 105,
      "start": 71.7074,
      "duration": 0.0184,
      "velocity": 124,
      "chip": "ym2612"
    },
    {
      "channel": 0,
      "note": 48,
      "start": 71.709,
      "duration": 0.0215,
      "velocity": 115,
      "chip": "ym2612"
    },
    {
      "channel": 4,
      "note": 79,
      "start": 71.713,
      "duration": 0.0189,
      "velocity": 94,
      "chip": "ym2612"
    },
    {
      "channel": 3,
      "note": 79,
      "start": 71.7141,
      "duration": 0.0191,
      "velocity": 94,
      "chip": "ym2612"
    },
    {
      "channel": 2,
      "note": 50,
      "start": 71.7153,
      "duration": 0.0194,
      "velocity": 100,
      "chip": "ym2612"
    },
    {
      "channel": 1,
      "note": 78,
      "start": 71.7258,
      "duration": 0.0144,
      "velocity": 124,
      "chip": "ym2612"
    },
    {
      "channel": 0,
      "note": 48,
      "start": 71.7305,
      "duration": 0.0115,
      "velocity": 115,
      "chip": "ym2612"
    },
    {
      "channel": 4,
      "note": 79,
      "start": 71.7319,
      "duration": 0.0118,
      "velocity": 94,
      "chip": "ym2612"
    },
    {
      "channel": 3,
      "note": 79,
      "start": 71.7333,
      "duration": 0.0116,
      "velocity": 94,
      "chip": "ym2612"
    },
    {
      "channel": 2,
      "note": 48,
      "start": 71.7347,
      "duration": 0.0113,
      "velocity": 100,
      "chip": "ym2612"
    },
    {
      "channel": 1,
      "note": 76,
      "start": 71.7401,
      "duration": 0.016,
      "velocity": 124,
      "chip": "ym2612"
    },
    {
      "channel": 0,
      "note": 49,
      "start": 71.742,
      "duration": 0.0152,
      "velocity": 1,
      "chip": "ym2612"
    },
    {
      "channel": 4,
      "note": 79,
      "start": 71.7436,
      "duration": 0.0148,
      "velocity": 94,
      "chip": "ym2612"
    },
    {
      "channel": 3,
      "note": 79,
      "start": 71.7448,
      "duration": 0.0147,
      "velocity": 94,
      "chip": "ym2612"
    },
    {
      "channel": 2,
      "note": 48,
      "start": 71.746,
      "duration": 0.0174,
      "velocity": 100,
      "chip": "ym2612"
    },
    {
      "channel": 1,
      "note": 75,
      "start": 71.7562,
      "duration": 0.0161,
      "velocity": 124,
      "chip": "ym2612"
    },
    {
      "channel": 4,
      "note": 79,
      "start": 71.7584,
      "duration": 0.0153,
      "velocity": 94,
      "chip": "ym2612"
    },
    {
      "channel": 3,
      "note": 79,
      "start": 71.7595,
      "duration": 0.0153,
      "velocity": 94,
      "chip": "ym2612"
    },
    {
      "channel": 2,
      "note": 48,
      "start": 71.7634,
      "duration": 0.0125,
      "velocity": 100,
      "chip": "ym2612"
    },
    {
      "channel": 1,
      "note": 74,
      "start": 71.7723,
      "duration": 0.0161,
      "velocity": 124,
      "chip": "ym2612"
    },
    {
      "channel": 4,
      "note": 79,
      "start": 71.7737,
      "duration": 0.0162,
      "velocity": 94,
      "chip": "ym2612"
    },
    {
      "channel": 3,
      "note": 79,
      "start": 71.7748,
      "duration": 0.0162,
      "velocity": 94,
      "chip": "ym2612"
    },
    {
      "channel": 2,
      "note": 48,
      "start": 71.7759,
      "duration": 0.0161,
      "velocity": 100,
      "chip": "ym2612"
    },
    {
      "channel": 1,
      "note": 72,
      "start": 71.7884,
      "duration": 0.0161,
      "velocity": 124,
      "chip": "ym2612"
    },
    {
      "channel": 4,
      "note": 79,
      "start": 71.7898,
      "duration": 0.0161,
      "velocity": 94,
      "chip": "ym2612"
    },
    {
      "channel": 3,
      "note": 79,
      "start": 71.791,
      "duration": 0.0161,
      "velocity": 94,
      "chip": "ym2612"
    },
    {
      "channel": 2,
      "note": 48,
      "start": 71.792,
      "duration": 0.0161,
      "velocity": 100,
      "chip": "ym2612"
    },
    {
      "channel": 1,
      "note": 71,
      "start": 71.8045,
      "duration": 0.0161,
      "velocity": 124,
      "chip": "ym2612"
    },
    {
      "channel": 4,
      "note": 79,
      "start": 71.8059,
      "duration": 0.0161,
      "velocity": 94,
      "chip": "ym2612"
    },
    {
      "channel": 3,
      "note": 79,
      "start": 71.8071,
      "duration": 0.0161,
      "velocity": 94,
      "chip": "ym2612"
    },
    {
      "channel": 2,
      "note": 48,
      "start": 71.8082,
      "duration": 0.0161,
      "velocity": 100,
      "chip": "ym2612"
    },
    {
      "channel": 1,
      "note": 70,
      "start": 71.8206,
      "duration": 0.0161,
      "velocity": 124,
      "chip": "ym2612"
    },
    {
      "channel": 4,
      "note": 79,
      "start": 71.822,
      "duration": 0.0168,
      "velocity": 94,
      "chip": "ym2612"
    },
    {
      "channel": 3,
      "note": 79,
      "start": 71.8232,
      "duration": 0.017,
      "velocity": 94,
      "chip": "ym2612"
    },
    {
      "channel": 2,
      "note": 48,
      "start": 71.8243,
      "duration": 0.0172,
      "velocity": 100,
      "chip": "ym2612"
    },
    {
      "channel": 1,
      "note": 69,
      "start": 71.8367,
      "duration": 0.0161,
      "velocity": 124,
      "chip": "ym2612"
    },
    {
      "channel": 4,
      "note": 74,
      "start": 71.8388,
      "duration": 0.0155,
      "velocity": 94,
      "chip": "ym2612"
    },
    {
      "channel": 3,
      "note": 79,
      "start": 71.8401,
      "duration": 0.0153,
      "velocity": 94,
      "chip": "ym2612"
    },
    {
      "channel": 2,
      "note": 48,
      "start": 71.8415,
      "duration": 0.0151,
      "velocity": 100,
      "chip": "ym2612"
    },
    {
      "channel": 1,
      "note": 68,
      "start": 71.8528,
      "duration": 0.0161,
      "velocity": 124,
      "chip": "ym2612"
    },
    {
      "channel": 4,
      "note": 74,
      "start": 71.8543,
      "duration": 0.016,
      "velocity": 94,
      "chip": "ym2612"
    },
    {
      "channel": 3,
      "note": 79,
      "start": 71.8555,
      "duration": 0.016,
      "velocity": 94,
      "chip": "ym2612"
    },
    {
      "channel": 2,
      "note": 48,
      "start": 71.8567,
      "duration": 0.0159,
      "velocity": 100,
      "chip": "ym2612"
    },
    {
      "channel": 1,
      "note": 66,
      "start": 71.8689,
      "duration": 0.0161,
      "velocity": 124,
      "chip": "ym2612"
    },
    {
      "channel": 4,
      "note": 74,
      "start": 71.8703,
      "duration": 0.0161,
      "velocity": 94,
      "chip": "ym2612"
    },
    {
      "channel": 3,
      "note": 79,
      "start": 71.8714,
      "duration": 0.0161,
      "velocity": 94,
      "chip": "ym2612"
    },
    {
      "channel": 2,
      "note": 48,
      "start": 71.8726,
      "duration": 0.0161,
      "velocity": 100,
      "chip": "ym2612"
    },
    {
      "channel": 1,
      "note": 65,
      "start": 71.885,
      "duration": 0.0162,
      "velocity": 124,
      "chip": "ym2612"
    },
    {
      "channel": 4,
      "note": 74,
      "start": 71.8864,
      "duration": 0.0161,
      "velocity": 94,
      "chip": "ym2612"
    },
    {
      "channel": 3,
      "note": 79,
      "start": 71.8875,
      "duration": 0.0161,
      "velocity": 94,
      "chip": "ym2612"
    },
    {
      "channel": 2,
      "note": 48,
      "start": 71.8887,
      "duration": 0.0161,
      "velocity": 100,
      "chip": "ym2612"
    },
    {
      "channel": 1,
      "note": 64,
      "start": 71.9011,
      "duration": 0.0161,
      "velocity": 124,
      "chip": "ym2612"
    },
    {
      "channel": 4,
      "note": 74,
      "start": 71.9025,
      "duration": 0.0161,
      "velocity": 94,
      "chip": "ym2612"
    },
    {
      "channel": 3,
      "note": 79,
      "start": 71.9036,
      "duration": 0.0161,
      "velocity": 94,
      "chip": "ym2612"
    },
    {
      "channel": 2,
      "note": 48,
      "start": 71.9048,
      "duration": 0.0161,
      "velocity": 100,
      "chip": "ym2612"
    },
    {
      "channel": 1,
      "note": 62,
      "start": 71.9172,
      "duration": 0.0161,
      "velocity": 124,
      "chip": "ym2612"
    },
    {
      "channel": 4,
      "note": 74,
      "start": 71.9186,
      "duration": 0.0161,
      "velocity": 94,
      "chip": "ym2612"
    },
    {
      "channel": 3,
      "note": 79,
      "start": 71.9197,
      "duration": 0.0161,
      "velocity": 94,
      "chip": "ym2612"
    },
    {
      "channel": 2,
      "note": 48,
      "start": 71.9209,
      "duration": 0.0161,
      "velocity": 100,
      "chip": "ym2612"
    },
    {
      "channel": 1,
      "note": 61,
      "start": 71.9333,
      "duration": 0.0161,
      "velocity": 124,
      "chip": "ym2612"
    },
    {
      "channel": 4,
      "note": 74,
      "start": 71.9347,
      "duration": 0.0167,
      "velocity": 94,
      "chip": "ym2612"
    },
    {
      "channel": 3,
      "note": 79,
      "start": 71.9358,
      "duration": 0.017,
      "velocity": 94,
      "chip": "ym2612"
    },
    {
      "channel": 2,
      "note": 48,
      "start": 71.9369,
      "duration": 0.0173,
      "velocity": 100,
      "chip": "ym2612"
    },
    {
      "channel": 1,
      "note": 60,
      "start": 71.9494,
      "duration": 0.0161,
      "velocity": 124,
      "chip": "ym2612"
    },
    {
      "channel": 4,
      "note": 74,
      "start": 71.9515,
      "duration": 0.0155,
      "velocity": 94,
      "chip": "ym2612"
    },
    {
      "channel": 3,
      "note": 74,
      "start": 71.9529,
      "duration": 0.0153,
      "velocity": 94,
      "chip": "ym2612"
    },
    {
      "channel": 2,
      "note": 48,
      "start": 71.9542,
      "duration": 0.0151,
      "velocity": 100,
      "chip": "ym2612"
    },
    {
      "channel": 1,
      "note": 59,
      "start": 71.9655,
      "duration": 0.0161,
      "velocity": 124,
      "chip": "ym2612"
    },
    {
      "channel": 4,
      "note": 74,
      "start": 71.967,
      "duration": 0.016,
      "velocity": 94,
      "chip": "ym2612"
    },
    {
      "channel": 3,
      "note": 74,
      "start": 71.9682,
      "duration": 0.016,
      "velocity": 94,
      "chip": "ym2612"
    },
    {
      "channel": 2,
      "note": 48,
      "start": 71.9694,
      "duration": 0.0159,
      "velocity": 100,
      "chip": "ym2612"
    },
    {
      "channel": 1,
      "note": 57,
      "start": 71.9816,
      "duration": 0.0161,
      "velocity": 124,
      "chip": "ym2612"
    },
    {
      "channel": 4,
      "note": 74,
      "start": 71.983,
      "duration": 0.0161,
      "velocity": 94,
      "chip": "ym2612"
    },
    {
      "channel": 3,
      "note": 74,
      "start": 71.9841,
      "duration": 0.0161,
      "velocity": 94,
      "chip": "ym2612"
    },
    {
      "channel": 2,
      "note": 48,
      "start": 71.9853,
      "duration": 0.0161,
      "velocity": 100,
      "chip": "ym2612"
    },
    {
      "channel": 1,
      "note": 56,
      "start": 71.9977,
      "duration": 0.0161,
      "velocity": 124,
      "chip": "ym2612"
    },
    {
      "channel": 4,
      "note": 74,
      "start": 71.9991,
      "duration": 0.0161,
      "velocity": 94,
      "chip": "ym2612"
    },
    {
      "channel": 3,
      "note": 74,
      "start": 72.0002,
      "duration": 0.0161,
      "velocity": 94,
      "chip": "ym2612"
    },
    {
      "channel": 2,
      "note": 48,
      "start": 72.0014,
      "duration": 0.0161,
      "velocity": 100,
      "chip": "ym2612"
    },
    {
      "channel": 1,
      "note": 55,
      "start": 72.0138,
      "duration": 0.0173,
      "velocity": 124,
      "chip": "ym2612"
    },
    {
      "channel": 4,
      "note": 74,
      "start": 72.0152,
      "duration": 0.0173,
      "velocity": 94,
      "chip": "ym2612"
    },
    {
      "channel": 3,
      "note": 74,
      "start": 72.0163,
      "duration": 0.0173,
      "velocity": 94,
      "chip": "ym2612"
    },
    {
      "channel": 2,
      "note": 48,
      "start": 72.0175,
      "duration": 0.0173,
      "velocity": 100,
      "chip": "ym2612"
    },
    {
      "channel": 1,
      "note": 53,
      "start": 72.0311,
      "duration": 0.0167,
      "velocity": 124,
      "chip": "ym2612"
    },
    {
      "channel": 4,
      "note": 74,
      "start": 72.0325,
      "duration": 0.0167,
      "velocity": 94,
      "chip": "ym2612"
    },
    {
      "channel": 3,
      "note": 74,
      "start": 72.0336,
      "duration": 0.0167,
      "velocity": 94,
      "chip": "ym2612"
    },
    {
      "channel": 2,
      "note": 48,
      "start": 72.0348,
      "duration": 0.0167,
      "velocity": 100,
      "chip": "ym2612"
    },
    {
      "channel": 1,
      "note": 52,
      "start": 72.0478,
      "duration": 0.0163,
      "velocity": 124,
      "chip": "ym2612"
    },
    {
      "channel": 4,
      "note": 74,
      "start": 72.0492,
      "duration": 0.0205,
      "velocity": 94,
      "chip": "ym2612"
    },
    {
      "channel": 3,
      "note": 74,
      "start": 72.0503,
      "duration": 0.0206,
      "velocity": 94,
      "chip": "ym2612"
    },
    {
      "channel": 2,
      "note": 48,
      "start": 72.0515,
      "duration": 0.0208,
      "velocity": 100,
      "chip": "ym2612"
    },
    {
      "channel": 1,
      "note": 51,
      "start": 72.0641,
      "duration": 0.0136,
      "velocity": 1,
      "chip": "ym2612"
    },
    {
      "channel": 0,
      "note": 78,
      "start": 72.0684,
      "duration": 0.0133,
      "velocity": 127,
      "chip": "ym2612"
    },
    {
      "channel": 4,
      "note": 74,
      "start": 72.0696,
      "duration": 0.0132,
      "velocity": 94,
      "chip": "ym2612"
    },
    {
      "channel": 3,
      "note": 74,
      "start": 72.0709,
      "duration": 0.0132,
      "velocity": 94,
      "chip": "ym2612"
    },
    {
      "channel": 2,
      "note": 48,
      "start": 72.0723,
      "duration": 0.0129,
      "velocity": 100,
      "chip": "ym2612"
    },
    {
      "channel": 1,
      "note": 51,
      "start": 72.0799,
      "duration": 0.0167,
      "velocity": 105,
      "chip": "ym2612"
    },
    {
      "channel": 0,
      "note": 76,
      "start": 72.0817,
      "duration": 0.0166,
      "velocity": 127,
      "chip": "ym2612"
    },
    {
      "channel": 4,
      "note": 74,
      "start": 72.0829,
      "duration": 0.0165,
      "velocity": 94,
      "chip": "ym2612"
    },
    {
      "channel": 3,
      "note": 74,
      "start": 72.0841,
      "duration": 0.0165,
      "velocity": 94,
      "chip": "ym2612"
    },
    {
      "channel": 2,
      "note": 48,
      "start": 72.0852,
      "duration": 0.0164,
      "velocity": 100,
      "chip": "ym2612"
    },
    {
      "channel": 1,
      "note": 105,
      "start": 72.0966,
      "duration": 0.0161,
      "velocity": 105,
      "chip": "ym2612"
    },
    {
      "channel": 0,
      "note": 75,
      "start": 72.0982,
      "duration": 0.0161,
      "velocity": 127,
      "chip": "ym2612"
    },
    {
      "channel": 4,
      "note": 74,
      "start": 72.0994,
      "duration": 0.0161,
      "velocity": 94,
      "chip": "ym2612"
    },
    {
      "channel": 3,
      "note": 74,
      "start": 72.1006,
      "duration": 0.0161,
      "velocity": 94,
      "chip": "ym2612"
    },
    {
      "channel": 2,
      "note": 48,
      "start": 72.1016,
      "duration": 0.0161,
      "velocity": 100,
      "chip": "ym2612"
    },
    {
      "channel": 1,
      "note": 105,
      "start": 72.1127,
      "duration": 0.0134,
      "velocity": 105,
      "chip": "ym2612"
    },
    {
      "channel": 0,
      "note": 73,
      "start": 72.1143,
      "duration": 0.0158,
      "velocity": 127,
      "chip": "ym2612"
    },
    {
      "channel": 4,
      "note": 74,
      "start": 72.1155,
      "duration": 0.0157,
      "velocity": 94,
      "chip": "ym2612"
    },
    {
      "channel": 3,
      "note": 74,
      "start": 72.1166,
      "duration": 0.0157,
      "velocity": 94,
      "chip": "ym2612"
    },
    {
      "channel": 2,
      "note": 48,
      "start": 72.1177,
      "duration": 0.0158,
      "velocity": 100,
      "chip": "ym2612"
    },
    {
      "channel": 1,
      "note": 105,
      "start": 72.126,
      "duration": 0.0161,
      "velocity": 105,
      "chip": "ym2612"
    },
    {
      "channel": 0,
      "note": 71,
      "start": 72.1301,
      "duration": 0.014,
      "velocity": 127,
      "chip": "ym2612"
    },
    {
      "channel": 4,
      "note": 74,
      "start": 72.1312,
      "duration": 0.0141,
      "velocity": 94,
      "chip": "ym2612"
    },
    {
      "channel": 3,
      "note": 74,
      "start": 72.1324,
      "duration": 0.0141,
      "velocity": 94,
      "chip": "ym2612"
    },
    {
      "channel": 2,
      "note": 48,
      "start": 72.1335,
      "duration": 0.014,
      "velocity": 100,
      "chip": "ym2612"
    },
    {
      "channel": 1,
      "note": 105,
      "start": 72.1421,
      "duration": 0.0161,
      "velocity": 105,
      "chip": "ym2612"
    },
    {
      "channel": 0,
      "note": 70,
      "start": 72.1441,
      "duration": 0.0186,
      "velocity": 127,
      "chip": "ym2612"
    },
    {
      "channel": 4,
      "note": 74,
      "start": 72.1453,
      "duration": 0.0185,
      "velocity": 94,
      "chip": "ym2612"
    },
    {
      "channel": 3,
      "note": 74,
      "start": 72.1464,
      "duration": 0.0185,
      "velocity": 94,
      "chip": "ym2612"
    },
    {
      "channel": 2,
      "note": 48,
      "start": 72.1475,
      "duration": 0.0186,
      "velocity": 100,
      "chip": "ym2612"
    },
    {
      "channel": 1,
      "note": 105,
      "start": 72.1582,
      "duration": 0.0178,
      "velocity": 124,
      "chip": "ym2612"
    },
    {
      "channel": 0,
      "note": 68,
      "start": 72.1627,
      "duration": 0.0196,
      "velocity": 115,
      "chip": "ym2612"
    },
    {
      "channel": 4,
      "note": 74,
      "start": 72.1638,
      "duration": 0.0198,
      "velocity": 94,
      "chip": "ym2612"
    },
    {
      "channel": 3,
      "note": 74,
      "start": 72.1649,
      "duration": 0.0199,
      "velocity": 94,
      "chip": "ym2612"
    },
    {
      "channel": 2,
      "note": 48,
      "start": 72.1661,
      "duration": 0.0202,
      "velocity": 100,
      "chip": "ym2612"
    },
    {
      "channel": 1,
      "note": 64,
      "start": 72.1761,
      "duration": 0.0147,
      "velocity": 124,
      "chip": "ym2612"
    },
    {
      "channel": 0,
      "note": 36,
      "start": 72.1823,
      "duration": 0.0102,
      "velocity": 115,
      "chip": "ym2612"
    },
    {
      "channel": 4,
      "note": 74,
      "start": 72.1836,
      "duration": 0.0126,
      "velocity": 94,
      "chip": "ym2612"
    },
    {
      "channel": 3,
      "note": 74,
      "start": 72.1849,
      "duration": 0.0125,
      "velocity": 94,
      "chip": "ym2612"
    },
    {
      "channel": 2,
      "note": 57,
      "start": 72.1862,
      "duration": 0.0123,
      "velocity": 100,
      "chip": "ym2612"
    },
    {
      "channel": 1,
      "note": 64,
      "start": 72.1908,
      "duration": 0.0157,
      "velocity": 124,
      "chip": "ym2612"
    },
    {
      "channel": 0,
      "note": 36,
      "start": 72.1925,
      "duration": 0.0156,
      "velocity": 115,
      "chip": "ym2612"
    },
    {
      "channel": 4,
      "note": 74,
      "start": 72.1962,
      "duration": 0.0132,
      "velocity": 94,
      "chip": "ym2612"
    },
    {
      "channel": 3,
      "note": 74,
      "start": 72.1973,
      "duration": 0.0135,
      "velocity": 94,
      "chip": "ym2612"
    },
    {
      "channel": 2,
      "note": 57,
      "start": 72.1985,
      "duration": 0.0134,
      "velocity": 100,
      "chip": "ym2612"
    },
    {
      "channel": 1,
      "note": 64,
      "start": 72.2065,
      "duration": 0.0161,
      "velocity": 124,
      "chip": "ym2612"
    },
    {
      "channel": 0,
      "note": 37,
      "start": 72.2082,
      "duration": 0.0161,
      "velocity": 115,
      "chip": "ym2612"
    },
    {
      "channel": 4,
      "note": 74,
      "start": 72.2094,
      "duration": 0.0161,
      "velocity": 94,
      "chip": "ym2612"
    },
    {
      "channel": 3,
      "note": 74,
      "start": 72.2109,
      "duration": 0.0185,
      "velocity": 94,
      "chip": "ym2612"
    },
    {
      "channel": 2,
      "note": 57,
      "start": 72.212,
      "duration": 0.0186,
      "velocity": 100,
      "chip": "ym2612"
    },
    {
      "channel": 1,
      "note": 64,
      "start": 72.2226,
      "duration": 0.0161,
      "velocity": 124,
      "chip": "ym2612"
    },
    {
      "channel": 0,
      "note": 37,
      "start": 72.2243,
      "duration": 0.0161,
      "velocity": 115,
      "chip": "ym2612"
    },
    {
      "channel": 4,
      "note": 74,
      "start": 72.2255,
      "duration": 0.0161,
      "velocity": 94,
      "chip": "ym2612"
    },
    {
      "channel": 3,
      "note": 74,
      "start": 72.2294,
      "duration": 0.0134,
      "velocity": 94,
      "chip": "ym2612"
    },
    {
      "channel": 2,
      "note": 57,
      "start": 72.2305,
      "duration": 0.0161,
      "velocity": 100,
      "chip": "ym2612"
    },
    {
      "channel": 1,
      "note": 64,
      "start": 72.2387,
      "duration": 0.0161,
      "velocity": 124,
      "chip": "ym2612"
    },
    {
      "channel": 0,
      "note": 38,
      "start": 72.2404,
      "duration": 0.0161,
      "velocity": 115,
      "chip": "ym2612"
    },
    {
      "channel": 4,
      "note": 74,
      "start": 72.2416,
      "duration": 0.0161,
      "velocity": 94,
      "chip": "ym2612"
    },
    {
      "channel": 3,
      "note": 74,
      "start": 72.2427,
      "duration": 0.0161,
      "velocity": 94,
      "chip": "ym2612"
    },
    {
      "channel": 2,
      "note": 57,
      "start": 72.2466,
      "duration": 0.0157,
      "velocity": 100,
      "chip": "ym2612"
    },
    {
      "channel": 1,
      "note": 64,
      "start": 72.2548,
      "duration": 0.0161,
      "velocity": 124,
      "chip": "ym2612"
    },
    {
      "channel": 0,
      "note": 38,
      "start": 72.2565,
      "duration": 0.0161,
      "velocity": 115,
      "chip": "ym2612"
    },
    {
      "channel": 4,
      "note": 74,
      "start": 72.2577,
      "duration": 0.0161,
      "velocity": 94,
      "chip": "ym2612"
    },
    {
      "channel": 3,
      "note": 74,
      "start": 72.2588,
      "duration": 0.0161,
      "velocity": 94,
      "chip": "ym2612"
    },
    {
      "channel": 2,
      "note": 57,
      "start": 72.2623,
      "duration": 0.0137,
      "velocity": 100,
      "chip": "ym2612"
    },
    {
      "channel": 1,
      "note": 64,
      "start": 72.2709,
      "duration": 0.0178,
      "velocity": 105,
      "chip": "ym2612"
    },
    {
      "channel": 0,
      "note": 39,
      "start": 72.2726,
      "duration": 0.0178,
      "velocity": 115,
      "chip": "ym2612"
    },
    {
      "channel": 4,
      "note": 74,
      "start": 72.2738,
      "duration": 0.018,
      "velocity": 94,
      "chip": "ym2612"
    },
    {
      "channel": 3,
      "note": 74,
      "start": 72.2749,
      "duration": 0.0182,
      "velocity": 94,
      "chip": "ym2612"
    },
    {
      "channel": 2,
      "note": 57,
      "start": 72.2761,
      "duration": 0.0212,
      "velocity": 100,
      "chip": "ym2612"
    },
    {
      "channel": 1,
      "note": 105,
      "start": 72.2887,
      "duration": 0.0144,
      "velocity": 105,
      "chip": "ym2612"
    },
    {
      "channel": 0,
      "note": 39,
      "start": 72.2905,
      "duration": 0.0144,
      "velocity": 115,
      "chip": "ym2612"
    },
    {
      "channel": 4,
      "note": 74,
      "start": 72.2918,
      "duration": 0.0143,
      "velocity": 94,
      "chip": "ym2612"
    },
    {
      "channel": 3,
      "note": 74,
      "start": 72.2931,
      "duration": 0.0142,
      "velocity": 94,
      "chip": "ym2612"
    },
    {
      "channel": 2,
      "note": 57,
      "start": 72.2973,
      "duration": 0.0111,
      "velocity": 100,
      "chip": "ym2612"
    },
    {
      "channel": 1,
      "note": 105,
      "start": 72.3032,
      "duration": 0.0161,
      "velocity": 105,
      "chip": "ym2612"
    },
    {
      "channel": 0,
      "note": 40,
      "start": 72.3049,
      "duration": 0.016,
      "velocity": 115,
      "chip": "ym2612"
    },
    {
      "channel": 4,
      "note": 74,
      "start": 72.3061,
      "duration": 0.016,
      "velocity": 94,
      "chip": "ym2612"
    },
    {
      "channel": 3,
      "note": 74,
      "start": 72.3073,
      "duration": 0.0159,
      "velocity": 94,
      "chip": "ym2612"
    },
    {
      "channel": 2,
      "note": 57,
      "start": 72.3085,
      "duration": 0.0159,
      "velocity": 100,
      "chip": "ym2612"
    },
    {
      "channel": 1,
      "note": 105,
      "start": 72.3193,
      "duration": 0.0161,
      "velocity": 105,
      "chip": "ym2612"
    },
    {
      "channel": 0,
      "note": 40,
      "start": 72.3209,
      "duration": 0.0161,
      "velocity": 115,
      "chip": "ym2612"
    },
    {
      "channel": 4,
      "note": 74,
      "start": 72.3221,
      "duration": 0.0161,
      "velocity": 94,
      "chip": "ym2612"
    },
    {
      "channel": 3,
      "note": 74,
      "start": 72.3232,
      "duration": 0.0161,
      "velocity": 94,
      "chip": "ym2612"
    },
    {
      "channel": 2,
      "note": 57,
      "start": 72.3244,
      "duration": 0.0161,
      "velocity": 100,
      "chip": "ym2612"
    },
    {
      "channel": 1,
      "note": 105,
      "start": 72.3354,
      "duration": 0.0161,
      "velocity": 105,
      "chip": "ym2612"
    },
    {
      "channel": 0,
      "note": 40,
      "start": 72.337,
      "duration": 0.0161,
      "velocity": 115,
      "chip": "ym2612"
    },
    {
      "channel": 4,
      "note": 74,
      "start": 72.3382,
      "duration": 0.0161,
      "velocity": 94,
      "chip": "ym2612"
    },
    {
      "channel": 3,
      "note": 74,
      "start": 72.3393,
      "duration": 0.0161,
      "velocity": 94,
      "chip": "ym2612"
    },
    {
      "channel": 2,
      "note": 57,
      "start": 72.3405,
      "duration": 0.0161,
      "velocity": 100,
      "chip": "ym2612"
    },
    {
      "channel": 1,
      "note": 105,
      "start": 72.3515,
      "duration": 0.0161,
      "velocity": 105,
      "chip": "ym2612"
    },
    {
      "channel": 0,
      "note": 41,
      "start": 72.3531,
      "duration": 0.0161,
      "velocity": 115,
      "chip": "ym2612"
    },
    {
      "channel": 4,
      "note": 74,
      "start": 72.3542,
      "duration": 0.0161,
      "velocity": 94,
      "chip": "ym2612"
    },
    {
      "channel": 3,
      "note": 74,
      "start": 72.3554,
      "duration": 0.0161,
      "velocity": 94,
      "chip": "ym2612"
    },
    {
      "channel": 2,
      "note": 57,
      "start": 72.3565,
      "duration": 0.0161,
      "velocity": 100,
      "chip": "ym2612"
    },
    {
      "channel": 1,
      "note": 105,
      "start": 72.3676,
      "duration": 0.0161,
      "velocity": 105,
      "chip": "ym2612"
    },
    {
      "channel": 0,
      "note": 41,
      "start": 72.3692,
      "duration": 0.0161,
      "velocity": 115,
      "chip": "ym2612"
    },
    {
      "channel": 4,
      "note": 74,
      "start": 72.3703,
      "duration": 0.0161,
      "velocity": 94,
      "chip": "ym2612"
    },
    {
      "channel": 3,
      "note": 74,
      "start": 72.3715,
      "duration": 0.0161,
      "velocity": 94,
      "chip": "ym2612"
    },
    {
      "channel": 2,
      "note": 57,
      "start": 72.3726,
      "duration": 0.0161,
      "velocity": 100,
      "chip": "ym2612"
    },
    {
      "channel": 1,
      "note": 105,
      "start": 72.3836,
      "duration": 0.0178,
      "velocity": 124,
      "chip": "ym2612"
    },
    {
      "channel": 0,
      "note": 42,
      "start": 72.3853,
      "duration": 0.0179,
      "velocity": 115,
      "chip": "ym2612"
    },
    {
      "channel": 4,
      "note": 74,
      "start": 72.3864,
      "duration": 0.0179,
      "velocity": 94,
      "chip": "ym2612"
    },
    {
      "channel": 3,
      "note": 74,
      "start": 72.3876,
      "duration": 0.0181,
      "velocity": 94,
      "chip": "ym2612"
    },
    {
      "channel": 2,
      "note": 57,
      "start": 72.3887,
      "duration": 0.0184,
      "velocity": 100,
      "chip": "ym2612"
    },
    {
      "channel": 1,
      "note": 64,
      "start": 72.4015,
      "duration": 0.0144,
      "velocity": 124,
      "chip": "ym2612"
    },
    {
      "channel": 0,
      "note": 42,
      "start": 72.4032,
      "duration": 0.0144,
      "velocity": 115,
      "chip": "ym2612"
    },
    {
      "channel": 4,
      "note": 74,
      "start": 72.4043,
      "duration": 0.0144,
      "velocity": 94,
      "chip": "ym2612"
    },
    {
      "channel": 3,
      "note": 74,
      "start": 72.4057,
      "duration": 0.0142,
      "velocity": 94,
      "chip": "ym2612"
    },
    {
      "channel": 2,
      "note": 57,
      "start": 72.4072,
      "duration": 0.0139,
      "velocity": 100,
      "chip": "ym2612"
    },
    {
      "channel": 1,
      "note": 64,
      "start": 72.4159,
      "duration": 0.016,
      "velocity": 124,
      "chip": "ym2612"
    },
    {
      "channel": 0,
      "note": 43,
      "start": 72.4176,
      "duration": 0.0161,
      "velocity": 115,
      "chip": "ym2612"
    },
    {
      "channel": 4,
      "note": 74,
      "start": 72.4188,
      "duration": 0.016,
      "velocity": 94,
      "chip": "ym2612"
    },
    {
      "channel": 3,
      "note": 74,
      "start": 72.4199,
      "duration": 0.016,
      "velocity": 94,
      "chip": "ym2612"
    },
    {
      "channel": 2,
      "note": 57,
      "start": 72.4211,
      "duration": 0.016,
      "velocity": 100,
      "chip": "ym2612"
    },
    {
      "channel": 1,
      "note": 64,
      "start": 72.4319,
      "duration": 0.0161,
      "velocity": 124,
      "chip": "ym2612"
    },
    {
      "channel": 0,
      "note": 43,
      "start": 72.4336,
      "duration": 0.0161,
      "velocity": 115,
      "chip": "ym2612"
    },
    {
      "channel": 4,
      "note": 74,
      "start": 72.4348,
      "duration": 0.0161,
      "velocity": 94,
      "chip": "ym2612"
    },
    {
      "channel": 3,
      "note": 74,
      "start": 72.4359,
      "duration": 0.0161,
      "velocity": 94,
      "chip": "ym2612"
    },
    {
      "channel": 2,
      "note": 57,
      "start": 72.4371,
      "duration": 0.0161,
      "velocity": 100,
      "chip": "ym2612"
    },
    {
      "channel": 1,
      "note": 64,
      "start": 72.448,
      "duration": 0.0162,
      "velocity": 124,
      "chip": "ym2612"
    },
    {
      "channel": 0,
      "note": 44,
      "start": 72.4497,
      "duration": 0.0161,
      "velocity": 115,
      "chip": "ym2612"
    },
    {
      "channel": 4,
      "note": 74,
      "start": 72.4509,
      "duration": 0.0161,
      "velocity": 94,
      "chip": "ym2612"
    },
    {
      "channel": 3,
      "note": 74,
      "start": 72.452,
      "duration": 0.0161,
      "velocity": 94,
      "chip": "ym2612"
    },
    {
      "channel": 2,
      "note": 57,
      "start": 72.4532,
      "duration": 0.0161,
      "velocity": 100,
      "chip": "ym2612"
    },
    {
      "channel": 1,
      "note": 64,
      "start": 72.4642,
      "duration": 0.0161,
      "velocity": 124,
      "chip": "ym2612"
    },
    {
      "channel": 0,
      "note": 44,
      "start": 72.4658,
      "duration": 0.0161,
      "velocity": 115,
      "chip": "ym2612"
    },
    {
      "channel": 4,
      "note": 74,
      "start": 72.467,
      "duration": 0.0161,
      "velocity": 94,
      "chip": "ym2612"
    },
    {
      "channel": 3,
      "note": 74,
      "start": 72.4681,
      "duration": 0.0161,
      "velocity": 94,
      "chip": "ym2612"
    },
    {
      "channel": 2,
      "note": 57,
      "start": 72.4693,
      "duration": 0.0161,
      "velocity": 100,
      "chip": "ym2612"
    },
    {
      "channel": 1,
      "note": 64,
      "start": 72.4803,
      "duration": 0.0171,
      "velocity": 124,
      "chip": "ym2612"
    },
    {
      "channel": 0,
      "note": 44,
      "start": 72.4819,
      "duration": 0.0171,
      "velocity": 115,
      "chip": "ym2612"
    },
    {
      "channel": 4,
      "note": 74,
      "start": 72.4831,
      "duration": 0.0171,
      "velocity": 94,
      "chip": "ym2612"
    },
    {
      "channel": 3,
      "note": 74,
      "start": 72.4842,
      "duration": 0.0171,
      "velocity": 94,
      "chip": "ym2612"
    },
    {
      "channel": 2,
      "note": 57,
      "start": 72.4854,
      "duration": 0.0171,
      "velocity": 100,
      "chip": "ym2612"
    },
    {
      "channel": 1,
      "note": 64,
      "start": 72.4973,
      "duration": 0.0183,
      "velocity": 105,
      "chip": "ym2612"
    },
    {
      "channel": 0,
      "note": 45,
      "start": 72.499,
      "duration": 0.0184,
      "velocity": 115,
      "chip": "ym2612"
    },
    {
      "channel": 4,
      "note": 74,
      "start": 72.5001,
      "duration": 0.0184,
      "velocity": 94,
      "chip": "ym2612"
    },
    {
      "channel": 3,
      "note": 74,
      "start": 72.5013,
      "duration": 0.0184,
      "velocity": 94,
      "chip": "ym2612"
    },
    {
      "channel": 2,
      "note": 57,
      "start": 72.5024,
      "duration": 0.0186,
      "velocity": 100,
      "chip": "ym2612"
    },
    {
      "channel": 1,
      "note": 105,
      "start": 72.5157,
      "duration": 0.0146,
      "velocity": 105,
      "chip": "ym2612"
    },
    {
      "channel": 0,
      "note": 45,
      "start": 72.5173,
      "duration": 0.0146,
      "velocity": 115,
      "chip": "ym2612"
    },
    {
      "channel": 4,
      "note": 74,
      "start": 72.5185,
      "duration": 0.0146,
      "velocity": 94,
      "chip": "ym2612"
    },
    {
      "channel": 3,
      "note": 74,
      "start": 72.5196,
      "duration": 0.0146,
      "velocity": 94,
      "chip": "ym2612"
    },
    {
      "channel": 2,
      "note": 57,
      "start": 72.5211,
      "duration": 0.0144,
      "velocity": 100,
      "chip": "ym2612"
    },
    {
      "channel": 1,
      "note": 105,
      "start": 72.5303,
      "duration": 0.0146,
      "velocity": 105,
      "chip": "ym2612"
    },
    {
      "channel": 0,
      "note": 46,
      "start": 72.532,
      "duration": 0.0146,
      "velocity": 115,
      "chip": "ym2612"
    },
    {
      "channel": 4,
      "note": 74,
      "start": 72.5331,
      "duration": 0.0146,
      "velocity": 94,
      "chip": "ym2612"
    },
    {
      "channel": 3,
      "note": 74,
      "start": 72.5343,
      "duration": 0.0146,
      "velocity": 94,
      "chip": "ym2612"
    },
    {
      "channel": 2,
      "note": 57,
      "start": 72.5355,
      "duration": 0.0145,
      "velocity": 100,
      "chip": "ym2612"
    },
    {
      "channel": 1,
      "note": 105,
      "start": 72.5449,
      "duration": 0.0186,
      "velocity": 105,
      "chip": "ym2612"
    },
    {
      "channel": 0,
      "note": 46,
      "start": 72.5466,
      "duration": 0.0186,
      "velocity": 115,
      "chip": "ym2612"
    },
    {
      "channel": 4,
      "note": 74,
      "start": 72.5477,
      "duration": 0.0186,
      "velocity": 94,
      "chip": "ym2612"
    },
    {
      "channel": 3,
      "note": 74,
      "start": 72.5488,
      "duration": 0.0186,
      "velocity": 94,
      "chip": "ym2612"
    },
    {
      "channel": 2,
      "note": 57,
      "start": 72.55,
      "duration": 0.0186,
      "velocity": 100,
      "chip": "ym2612"
    },
    {
      "channel": 1,
      "note": 105,
      "start": 72.5635,
      "duration": 0.0161,
      "velocity": 105,
      "chip": "ym2612"
    },
    {
      "channel": 0,
      "note": 47,
      "start": 72.5651,
      "duration": 0.0162,
      "velocity": 115,
      "chip": "ym2612"
    },
    {
      "channel": 4,
      "note": 74,
      "start": 72.5663,
      "duration": 0.0161,
      "velocity": 94,
      "chip": "ym2612"
    },
    {
      "channel": 3,
      "note": 74,
      "start": 72.5675,
      "duration": 0.0161,
      "velocity": 94,
      "chip": "ym2612"
    },
    {
      "channel": 2,
      "note": 57,
      "start": 72.5686,
      "duration": 0.0161,
      "velocity": 100,
      "chip": "ym2612"
    },
    {
      "channel": 1,
      "note": 105,
      "start": 72.5796,
      "duration": 0.0134,
      "velocity": 105,
      "chip": "ym2612"
    },
    {
      "channel": 0,
      "note": 47,
      "start": 72.5813,
      "duration": 0.0157,
      "velocity": 115,
      "chip": "ym2612"
    },
    {
      "channel": 4,
      "note": 74,
      "start": 72.5824,
      "duration": 0.0157,
      "velocity": 94,
      "chip": "ym2612"
    },
    {
      "channel": 3,
      "note": 74,
      "start": 72.5836,
      "duration": 0.0157,
      "velocity": 94,
      "chip": "ym2612"
    },
    {
      "channel": 2,
      "note": 57,
      "start": 72.5847,
      "duration": 0.0157,
      "velocity": 100,
      "chip": "ym2612"
    },
    {
      "channel": 1,
      "note": 105,
      "start": 72.5929,
      "duration": 0.0161,
      "velocity": 105,
      "chip": "ym2612"
    },
    {
      "channel": 0,
      "note": 47,
      "start": 72.597,
      "duration": 0.0141,
      "velocity": 115,
      "chip": "ym2612"
    },
    {
      "channel": 4,
      "note": 74,
      "start": 72.5981,
      "duration": 0.0141,
      "velocity": 94,
      "chip": "ym2612"
    },
    {
      "channel": 3,
      "note": 74,
      "start": 72.5993,
      "duration": 0.0141,
      "velocity": 94,
      "chip": "ym2612"
    },
    {
      "channel": 2,
      "note": 57,
      "start": 72.6004,
      "duration": 0.0141,
      "velocity": 100,
      "chip": "ym2612"
    },
    {
      "channel": 1,
      "note": 105,
      "start": 72.609,
      "duration": 0.0211,
      "velocity": 124,
      "chip": "ym2612"
    },
    {
      "channel": 0,
      "note": 48,
      "start": 72.6111,
      "duration": 0.0215,
      "velocity": 115,
      "chip": "ym2612"
    },
    {
      "channel": 4,
      "note": 74,
      "start": 72.6122,
      "duration": 0.0216,
      "velocity": 94,
      "chip": "ym2612"
    },
    {
      "channel": 3,
      "note": 74,
      "start": 72.6134,
      "duration": 0.0216,
      "velocity": 94,
      "chip": "ym2612"
    },
    {
      "channel": 2,
      "note": 57,
      "start": 72.6145,
      "duration": 0.0218,
      "velocity": 100,
      "chip": "ym2612"
    },
    {
      "channel": 1,
      "note": 78,
      "start": 72.6302,
      "duration": 0.0116,
      "velocity": 124,
      "chip": "ym2612"
    },
    {
      "channel": 0,
      "note": 48,
      "start": 72.6326,
      "duration": 0.0139,
      "velocity": 115,
      "chip": "ym2612"
    },
    {
      "channel": 4,
      "note": 74,
      "start": 72.6338,
      "duration": 0.0139,
      "velocity": 94,
      "chip": "ym2612"
    },
    {
      "channel": 3,
      "note": 74,
      "start": 72.6349,
      "duration": 0.0139,
      "velocity": 94,
      "chip": "ym2612"
    },
    {
      "channel": 2,
      "note": 57,
      "start": 72.6363,
      "duration": 0.0136,
      "velocity": 100,
      "chip": "ym2612"
    },
    {
      "channel": 1,
      "note": 76,
      "start": 72.6418,
      "duration": 0.0161,
      "velocity": 124,
      "chip": "ym2612"
    },
    {
      "channel": 0,
      "note": 49,
      "start": 72.6465,
      "duration": 0.0125,
      "velocity": 1,
      "chip": "ym2612"
    },
    {
      "channel": 4,
      "note": 74,
      "start": 72.6476,
      "duration": 0.0148,
      "velocity": 94,
      "chip": "ym2612"
    },
    {
      "channel": 3,
      "note": 74,
      "start": 72.6488,
      "duration": 0.0148,
      "velocity": 94,
      "chip": "ym2612"
    },
    {
      "channel": 2,
      "note": 57,
      "start": 72.6499,
      "duration": 0.0148,
      "velocity": 100,
      "chip": "ym2612"
    },
    {
      "channel": 1,
      "note": 75,
      "start": 72.6579,
      "duration": 0.0161,
      "velocity": 124,
      "chip": "ym2612"
    },
    {
      "channel": 4,
      "note": 74,
      "start": 72.6624,
      "duration": 0.0129,
      "velocity": 94,
      "chip": "ym2612"
    },
    {
      "channel": 3,
      "note": 74,
      "start": 72.6636,
      "duration": 0.013,
      "velocity": 94,
      "chip": "ym2612"
    },
    {
      "channel": 2,
      "note": 57,
      "start": 72.6647,
      "duration": 0.0132,
      "velocity": 100,
      "chip": "ym2612"
    },
    {
      "channel": 1,
      "note": 74,
      "start": 72.674,
      "duration": 0.0161,
      "velocity": 124,
      "chip": "ym2612"
    },
    {
      "channel": 4,
      "note": 74,
      "start": 72.6754,
      "duration": 0.0161,
      "velocity": 94,
      "chip": "ym2612"
    },
    {
      "channel": 3,
      "note": 74,
      "start": 72.6766,
      "duration": 0.016,
      "velocity": 94,
      "chip": "ym2612"
    },
    {
      "channel": 2,
      "note": 57,
      "start": 72.6779,
      "duration": 0.0186,
      "velocity": 100,
      "chip": "ym2612"
    },
    {
      "channel": 1,
      "note": 72,
      "start": 72.6901,
      "duration": 0.0161,
      "velocity": 124,
      "chip": "ym2612"
    },
    {
      "channel": 4,
      "note": 74,
      "start": 72.6915,
      "duration": 0.0161,
      "velocity": 94,
      "chip": "ym2612"
    },
    {
      "channel": 3,
      "note": 74,
      "start": 72.6926,
      "duration": 0.0161,
      "velocity": 94,
      "chip": "ym2612"
    },
    {
      "channel": 2,
      "note": 57,
      "start": 72.6965,
      "duration": 0.0161,
      "velocity": 100,
      "chip": "ym2612"
    },
    {
      "channel": 1,
      "note": 71,
      "start": 72.7062,
      "duration": 0.0161,
      "velocity": 124,
      "chip": "ym2612"
    },
    {
      "channel": 4,
      "note": 74,
      "start": 72.7076,
      "duration": 0.0161,
      "velocity": 94,
      "chip": "ym2612"
    },
    {
      "channel": 3,
      "note": 74,
      "start": 72.7087,
      "duration": 0.0161,
      "velocity": 94,
      "chip": "ym2612"
    },
    {
      "channel": 2,
      "note": 57,
      "start": 72.7126,
      "duration": 0.0134,
      "velocity": 100,
      "chip": "ym2612"
    },
    {
      "channel": 1,
      "note": 70,
      "start": 72.7222,
      "duration": 0.0161,
      "velocity": 124,
      "chip": "ym2612"
    },
    {
      "channel": 4,
      "note": 74,
      "start": 72.7237,
      "duration": 0.0166,
      "velocity": 94,
      "chip": "ym2612"
    },
    {
      "channel": 3,
      "note": 74,
      "start": 72.7248,
      "duration": 0.0166,
      "velocity": 94,
      "chip": "ym2612"
    },
    {
      "channel": 2,
      "note": 57,
      "start": 72.7259,
      "duration": 0.0168,
      "velocity": 100,
      "chip": "ym2612"
    },
    {
      "channel": 1,
      "note": 69,
      "start": 72.7383,
      "duration": 0.0161,
      "velocity": 124,
      "chip": "ym2612"
    },
    {
      "channel": 4,
      "note": 74,
      "start": 72.7402,
      "duration": 0.0156,
      "velocity": 94,
      "chip": "ym2612"
    },
    {
      "channel": 3,
      "note": 74,
      "start": 72.7414,
      "duration": 0.0156,
      "velocity": 94,
      "chip": "ym2612"
    },
    {
      "channel": 2,
      "note": 57,
      "start": 72.7428,
      "duration": 0.0154,
      "velocity": 100,
      "chip": "ym2612"
    },
    {
      "channel": 1,
      "note": 68,
      "start": 72.7544,
      "duration": 0.0161,
      "velocity": 124,
      "chip": "ym2612"
    },
    {
      "channel": 4,
      "note": 74,
      "start": 72.7559,
      "duration": 0.016,
      "velocity": 94,
      "chip": "ym2612"
    },
    {
      "channel": 3,
      "note": 74,
      "start": 72.7571,
      "duration": 0.016,
      "velocity": 94,
      "chip": "ym2612"
    },
    {
      "channel": 2,
      "note": 57,
      "start": 72.7582,
      "duration": 0.016,
      "velocity": 100,
      "chip": "ym2612"
    },
    {
      "channel": 1,
      "note": 66,
      "start": 72.7705,
      "duration": 0.0161,
      "velocity": 124,
      "chip": "ym2612"
    },
    {
      "channel": 4,
      "note": 74,
      "start": 72.7719,
      "duration": 0.0161,
      "velocity": 94,
      "chip": "ym2612"
    },
    {
      "channel": 3,
      "note": 74,
      "start": 72.7731,
      "duration": 0.0161,
      "velocity": 94,
      "chip": "ym2612"
    },
    {
      "channel": 2,
      "note": 57,
      "start": 72.7742,
      "duration": 0.0161,
      "velocity": 100,
      "chip": "ym2612"
    },
    {
      "channel": 1,
      "note": 65,
      "start": 72.7866,
      "duration": 0.0162,
      "velocity": 124,
      "chip": "ym2612"
    },
    {
      "channel": 4,
      "note": 74,
      "start": 72.788,
      "duration": 0.0161,
      "velocity": 94,
      "chip": "ym2612"
    },
    {
      "channel": 3,
      "note": 74,
      "start": 72.7892,
      "duration": 0.0161,
      "velocity": 94,
      "chip": "ym2612"
    },
    {
      "channel": 2,
      "note": 57,
      "start": 72.7903,
      "duration": 0.0161,
      "velocity": 100,
      "chip": "ym2612"
    },
    {
      "channel": 1,
      "note": 64,
      "start": 72.8028,
      "duration": 0.0161,
      "velocity": 124,
      "chip": "ym2612"
    },
    {
      "channel": 4,
      "note": 74,
      "start": 72.8041,
      "duration": 0.0161,
      "velocity": 94,
      "chip": "ym2612"
    },
    {
      "channel": 3,
      "note": 74,
      "start": 72.8053,
      "duration": 0.0161,
      "velocity": 94,
      "chip": "ym2612"
    },
    {
      "channel": 2,
      "note": 57,
      "start": 72.8064,
      "duration": 0.0161,
      "velocity": 100,
      "chip": "ym2612"
    },
    {
      "channel": 1,
      "note": 62,
      "start": 72.8189,
      "duration": 0.0161,
      "velocity": 124,
      "chip": "ym2612"
    },
    {
      "channel": 4,
      "note": 74,
      "start": 72.8202,
      "duration": 0.0162,
      "velocity": 94,
      "chip": "ym2612"
    },
    {
      "channel": 3,
      "note": 74,
      "start": 72.8214,
      "duration": 0.0162,
      "velocity": 94,
      "chip": "ym2612"
    },
    {
      "channel": 2,
      "note": 57,
      "start": 72.8225,
      "duration": 0.0161,
      "velocity": 100,
      "chip": "ym2612"
    },
    {
      "channel": 1,
      "note": 61,
      "start": 72.835,
      "duration": 0.0161,
      "velocity": 124,
      "chip": "ym2612"
    },
    {
      "channel": 4,
      "note": 74,
      "start": 72.8364,
      "duration": 0.0166,
      "velocity": 94,
      "chip": "ym2612"
    },
    {
      "channel": 3,
      "note": 74,
      "start": 72.8375,
      "duration": 0.0166,
      "velocity": 94,
      "chip": "ym2612"
    },
    {
      "channel": 2,
      "note": 57,
      "start": 72.8386,
      "duration": 0.0169,
      "velocity": 100,
      "chip": "ym2612"
    },
    {
      "channel": 1,
      "note": 60,
      "start": 72.8511,
      "duration": 0.0161,
      "velocity": 124,
      "chip": "ym2612"
    },
    {
      "channel": 4,
      "note": 74,
      "start": 72.853,
      "duration": 0.0156,
      "velocity": 94,
      "chip": "ym2612"
    },
    {
      "channel": 3,
      "note": 74,
      "start": 72.8541,
      "duration": 0.0156,
      "velocity": 94,
      "chip": "ym2612"
    },
    {
      "channel": 2,
      "note": 57,
      "start": 72.8555,
      "duration": 0.0154,
      "velocity": 100,
      "chip": "ym2612"
    },
    {
      "channel": 1,
      "note": 59,
      "start": 72.8672,
      "duration": 0.0161,
      "velocity": 124,
      "chip": "ym2612"
    },
    {
      "channel": 4,
      "note": 74,
      "start": 72.8686,
      "duration": 0.016,
      "velocity": 94,
      "chip": "ym2612"
    },
    {
      "channel": 3,
      "note": 74,
      "start": 72.8698,
      "duration": 0.016,
      "velocity": 94,
      "chip": "ym2612"
    },
    {
      "channel": 2,
      "note": 57,
      "start": 72.8709,
      "duration": 0.016,
      "velocity": 100,
      "chip": "ym2612"
    },
    {
      "channel": 1,
      "note": 57,
      "start": 72.8833,
      "duration": 0.0161,
      "velocity": 124,
      "chip": "ym2612"
    },
    {
      "channel": 4,
      "note": 74,
      "start": 72.8846,
      "duration": 0.0161,
      "velocity": 94,
      "chip": "ym2612"
    },
    {
      "channel": 3,
      "note": 74,
      "start": 72.8858,
      "duration": 0.0161,
      "velocity": 94,
      "chip": "ym2612"
    },
    {
      "channel": 2,
      "note": 57,
      "start": 72.8869,
      "duration": 0.0161,
      "velocity": 100,
      "chip": "ym2612"
    },
    {
      "channel": 1,
      "note": 56,
      "start": 72.8993,
      "duration": 0.0161,
      "velocity": 124,
      "chip": "ym2612"
    },
    {
      "channel": 4,
      "note": 74,
      "start": 72.9007,
      "duration": 0.0161,
      "velocity": 94,
      "chip": "ym2612"
    },
    {
      "channel": 3,
      "note": 74,
      "start": 72.9019,
      "duration": 0.0161,
      "velocity": 94,
      "chip": "ym2612"
    },
    {
      "channel": 2,
      "note": 57,
      "start": 72.903,
      "duration": 0.0161,
      "velocity": 100,
      "chip": "ym2612"
    },
    {
      "channel": 1,
      "note": 55,
      "start": 72.9154,
      "duration": 0.0161,
      "velocity": 124,
      "chip": "ym2612"
    },
    {
      "channel": 4,
      "note": 74,
      "start": 72.9168,
      "duration": 0.0161,
      "velocity": 94,
      "chip": "ym2612"
    },
    {
      "channel": 3,
      "note": 74,
      "start": 72.918,
      "duration": 0.0161,
      "velocity": 94,
      "chip": "ym2612"
    },
    {
      "channel": 2,
      "note": 57,
      "start": 72.9191,
      "duration": 0.0161,
      "velocity": 100,
      "chip": "ym2612"
    },
    {
      "channel": 1,
      "note": 53,
      "start": 72.9315,
      "duration": 0.0161,
      "velocity": 124,
      "chip": "ym2612"
    },
    {
      "channel": 4,
      "note": 74,
      "start": 72.9329,
      "duration": 0.0161,
      "velocity": 94,
      "chip": "ym2612"
    },
    {
      "channel": 3,
      "note": 74,
      "start": 72.9341,
      "duration": 0.0161,
      "velocity": 94,
      "chip": "ym2612"
    },
    {
      "channel": 2,
      "note": 57,
      "start": 72.9352,
      "duration": 0.0161,
      "velocity": 100,
      "chip": "ym2612"
    },
    {
      "channel": 1,
      "note": 52,
      "start": 72.9477,
      "duration": 0.0167,
      "velocity": 124,
      "chip": "ym2612"
    },
    {
      "channel": 4,
      "note": 74,
      "start": 72.949,
      "duration": 0.0208,
      "velocity": 94,
      "chip": "ym2612"
    },
    {
      "channel": 3,
      "note": 74,
      "start": 72.9502,
      "duration": 0.0208,
      "velocity": 94,
      "chip": "ym2612"
    },
    {
      "channel": 2,
      "note": 57,
      "start": 72.9513,
      "duration": 0.0211,
      "velocity": 100,
      "chip": "ym2612"
    },
    {
      "channel": 1,
      "note": 51,
      "start": 72.9644,
      "duration": 0.0159,
      "velocity": 1,
      "chip": "ym2612"
    },
    {
      "channel": 0,
      "note": 36,
      "start": 72.9686,
      "duration": 0.0156,
      "velocity": 115,
      "chip": "ym2612"
    },
    {
      "channel": 4,
      "note": 74,
      "start": 72.9698,
      "duration": 0.0156,
      "velocity": 94,
      "chip": "ym2612"
    },
    {
      "channel": 3,
      "note": 74,
      "start": 72.971,
      "duration": 0.0156,
      "velocity": 94,
      "chip": "ym2612"
    },
    {
      "channel": 2,
      "note": 57,
      "start": 72.9724,
      "duration": 0.0153,
      "velocity": 100,
      "chip": "ym2612"
    },
    {
      "channel": 1,
      "note": 51,
      "start": 72.9825,
      "duration": 0.0144,
      "velocity": 105,
      "chip": "ym2612"
    },
    {
      "channel": 0,
      "note": 36,
      "start": 72.9842,
      "duration": 0.0144,
      "velocity": 115,
      "chip": "ym2612"
    },
    {
      "channel": 4,
      "note": 74,
      "start": 72.9854,
      "duration": 0.0143,
      "velocity": 94,
      "chip": "ym2612"
    },
    {
      "channel": 3,
      "note": 74,
      "start": 72.9866,
      "duration": 0.0143,
      "velocity": 94,
      "chip": "ym2612"
    },
    {
      "channel": 2,
      "note": 57,
      "start": 72.9877,
      "duration": 0.0143,
      "velocity": 100,
      "chip": "ym2612"
    },
    {
      "channel": 1,
      "note": 105,
      "start": 72.9969,
      "duration": 0.0147,
      "velocity": 105,
      "chip": "ym2612"
    },
    {
      "channel": 0,
      "note": 37,
      "start": 72.9986,
      "duration": 0.0147,
      "velocity": 115,
      "chip": "ym2612"
    },
    {
      "channel": 4,
      "note": 74,
      "start": 72.9997,
      "duration": 0.0148,
      "velocity": 94,
      "chip": "ym2612"
    },
    {
      "channel": 3,
      "note": 74,
      "start": 73.0009,
      "duration": 0.0148,
      "velocity": 94,
      "chip": "ym2612"
    },
    {
      "channel": 2,
      "note": 57,
      "start": 73.002,
      "duration": 0.0147,
      "velocity": 100,
      "chip": "ym2612"
    },
    {
      "channel": 1,
      "note": 105,
      "start": 73.0116,
      "duration": 0.0188,
      "velocity": 105,
      "chip": "ym2612"
    },
    {
      "channel": 0,
      "note": 37,
      "start": 73.0133,
      "duration": 0.0188,
      "velocity": 115,
      "chip": "ym2612"
    },
    {
      "channel": 4,
      "note": 74,
      "start": 73.0145,
      "duration": 0.0188,
      "velocity": 94,
      "chip": "ym2612"
    },
    {
      "channel": 3,
      "note": 74,
      "start": 73.0156,
      "duration": 0.0188,
      "velocity": 94,
      "chip": "ym2612"
    },
    {
      "channel": 2,
      "note": 57,
      "start": 73.0167,
      "duration": 0.0188,
      "velocity": 100,
      "chip": "ym2612"
    },
    {
      "channel": 1,
      "note": 105,
      "start": 73.0304,
      "duration": 0.0161,
      "velocity": 105,
      "chip": "ym2612"
    },
    {
      "channel": 0,
      "note": 38,
      "start": 73.0321,
      "duration": 0.0161,
      "velocity": 115,
      "chip": "ym2612"
    },
    {
      "channel": 4,
      "note": 74,
      "start": 73.0333,
      "duration": 0.0161,
      "velocity": 94,
      "chip": "ym2612"
    },
    {
      "channel": 3,
      "note": 74,
      "start": 73.0344,
      "duration": 0.0161,
      "velocity": 94,
      "chip": "ym2612"
    },
    {
      "channel": 2,
      "note": 57,
      "start": 73.0356,
      "duration": 0.0161,
      "velocity": 100,
      "chip": "ym2612"
    },
    {
      "channel": 1,
      "note": 105,
      "start": 73.0465,
      "duration": 0.0158,
      "velocity": 105,
      "chip": "ym2612"
    },
    {
      "channel": 0,
      "note": 38,
      "start": 73.0482,
      "duration": 0.0158,
      "velocity": 115,
      "chip": "ym2612"
    },
    {
      "channel": 4,
      "note": 74,
      "start": 73.0493,
      "duration": 0.0158,
      "velocity": 94,
      "chip": "ym2612"
    },
    {
      "channel": 3,
      "note": 74,
      "start": 73.0505,
      "duration": 0.0158,
      "velocity": 94,
      "chip": "ym2612"
    },
    {
      "channel": 2,
      "note": 57,
      "start": 73.0516,
      "duration": 0.0158,
      "velocity": 100,
      "chip": "ym2612"
    },
    {
      "channel": 1,
      "note": 105,
      "start": 73.0623,
      "duration": 0.0158,
      "velocity": 124,
      "chip": "ym2612"
    },
    {
      "channel": 0,
      "note": 39,
      "start": 73.064,
      "duration": 0.0175,
      "velocity": 115,
      "chip": "ym2612"
    },
    {
      "channel": 4,
      "note": 74,
      "start": 73.0651,
      "duration": 0.0176,
      "velocity": 94,
      "chip": "ym2612"
    },
    {
      "channel": 3,
      "note": 74,
      "start": 73.0663,
      "duration": 0.0176,
      "velocity": 94,
      "chip": "ym2612"
    },
    {
      "channel": 2,
      "note": 57,
      "start": 73.0674,
      "duration": 0.0178,
      "velocity": 100,
      "chip": "ym2612"
    },
    {
      "channel": 1,
      "note": 64,
      "start": 73.078,
      "duration": 0.0141,
      "velocity": 124,
      "chip": "ym2612"
    },
    {
      "channel": 0,
      "note": 36,
      "start": 73.0815,
      "duration": 0.0151,
      "velocity": 115,
      "chip": "ym2612"
    },
    {
      "channel": 4,
      "note": 74,
      "start": 73.0827,
      "duration": 0.0151,
      "velocity": 94,
      "chip": "ym2612"
    },
    {
      "channel": 3,
      "note": 74,
      "start": 73.0838,
      "duration": 0.0151,
      "velocity": 94,
      "chip": "ym2612"
    },
    {
      "channel": 2,
      "note": 57,
      "start": 73.0852,
      "duration": 0.0149,
      "velocity": 100,
      "chip": "ym2612"
    },
    {
      "channel": 1,
      "note": 64,
      "start": 73.0922,
      "duration": 0.016,
      "velocity": 124,
      "chip": "ym2612"
    },
    {
      "channel": 0,
      "note": 36,
      "start": 73.0966,
      "duration": 0.016,
      "velocity": 115,
      "chip": "ym2612"
    },
    {
      "channel": 4,
      "note": 74,
      "start": 73.0978,
      "duration": 0.016,
      "velocity": 94,
      "chip": "ym2612"
    },
    {
      "channel": 3,
      "note": 74,
      "start": 73.099,
      "duration": 0.016,
      "velocity": 94,
      "chip": "ym2612"
    },
    {
      "channel": 2,
      "note": 57,
      "start": 73.1001,
      "duration": 0.016,
      "velocity": 100,
      "chip": "ym2612"
    },
    {
      "channel": 1,
      "note": 64,
      "start": 73.1082,
      "duration": 0.0161,
      "velocity": 124,
      "chip": "ym2612"
    },
    {
      "channel": 0,
      "note": 37,
      "start": 73.1126,
      "duration": 0.0134,
      "velocity": 115,
      "chip": "ym2612"
    },
    {
      "channel": 4,
      "note": 74,
      "start": 73.1138,
      "duration": 0.0157,
      "velocity": 94,
      "chip": "ym2612"
    },
    {
      "channel": 3,
      "note": 74,
      "start": 73.1149,
      "duration": 0.0157,
      "velocity": 94,
      "chip": "ym2612"
    },
    {
      "channel": 2,
      "note": 57,
      "start": 73.1161,
      "duration": 0.0157,
      "velocity": 100,
      "chip": "ym2612"
    },
    {
      "channel": 1,
      "note": 64,
      "start": 73.1243,
      "duration": 0.0161,
      "velocity": 124,
      "chip": "ym2612"
    },
    {
      "channel": 0,
      "note": 37,
      "start": 73.1259,
      "duration": 0.0161,
      "velocity": 115,
      "chip": "ym2612"
    },
    {
      "channel": 4,
      "note": 74,
      "start": 73.1295,
      "duration": 0.0139,
      "velocity": 94,
      "chip": "ym2612"
    },
    {
      "channel": 3,
      "note": 74,
      "start": 73.1307,
      "duration": 0.0141,
      "velocity": 94,
      "chip": "ym2612"
    },
    {
      "channel": 2,
      "note": 57,
      "start": 73.1318,
      "duration": 0.014,
      "velocity": 100,
      "chip": "ym2612"
    },
    {
      "channel": 1,
      "note": 64,
      "start": 73.1404,
      "duration": 0.0161,
      "velocity": 124,
      "chip": "ym2612"
    },
    {
      "channel": 0,
      "note": 38,
      "start": 73.142,
      "duration": 0.0161,
      "velocity": 115,
      "chip": "ym2612"
    },
    {
      "channel": 4,
      "note": 74,
      "start": 73.1434,
      "duration": 0.016,
      "velocity": 94,
      "chip": "ym2612"
    },
    {
      "channel": 3,
      "note": 74,
      "start": 73.1447,
      "duration": 0.0185,
      "velocity": 94,
      "chip": "ym2612"
    },
    {
      "channel": 2,
      "note": 57,
      "start": 73.1458,
      "duration": 0.0186,
      "velocity": 100,
      "chip": "ym2612"
    },
    {
      "channel": 1,
      "note": 64,
      "start": 73.1565,
      "duration": 0.0161,
      "velocity": 124,
      "chip": "ym2612"
    },
    {
      "channel": 0,
      "note": 38,
      "start": 73.1581,
      "duration": 0.0162,
      "velocity": 115,
      "chip": "ym2612"
    },
    {
      "channel": 4,
      "note": 74,
      "start": 73.1593,
      "duration": 0.0161,
      "velocity": 94,
      "chip": "ym2612"
    },
    {
      "channel": 3,
      "note": 74,
      "start": 73.1632,
      "duration": 0.0161,
      "velocity": 94,
      "chip": "ym2612"
    },
    {
      "channel": 2,
      "note": 57,
      "start": 73.1644,
      "duration": 0.0161,
      "velocity": 100,
      "chip": "ym2612"
    },
    {
      "channel": 1,
      "note": 64,
      "start": 73.1726,
      "duration": 0.0178,
      "velocity": 105,
      "chip": "ym2612"
    },
    {
      "channel": 0,
      "note": 39,
      "start": 73.1743,
      "duration": 0.0178,
      "velocity": 115,
      "chip": "ym2612"
    },
    {
      "channel": 4,
      "note": 74,
      "start": 73.1754,
      "duration": 0.0202,
      "velocity": 94,
      "chip": "ym2612"
    },
    {
      "channel": 3,
      "note": 74,
      "start": 73.1793,
      "duration": 0.0174,
      "velocity": 94,
      "chip": "ym2612"
    },
    {
      "channel": 2,
      "note": 57,
      "start": 73.1805,
      "duration": 0.0177,
      "velocity": 100,
      "chip": "ym2612"
    },
    {
      "channel": 1,
      "note": 105,
      "start": 73.1904,
      "duration": 0.0144,
      "velocity": 105,
      "chip": "ym2612"
    },
    {
      "channel": 0,
      "note": 39,
      "start": 73.1921,
      "duration": 0.0144,
      "velocity": 115,
      "chip": "ym2612"
    },
    {
      "channel": 4,
      "note": 74,
      "start": 73.1956,
      "duration": 0.0121,
      "velocity": 94,
      "chip": "ym2612"
    },
    {
      "channel": 3,
      "note": 74,
      "start": 73.1967,
      "duration": 0.0121,
      "velocity": 94,
      "chip": "ym2612"
    },
    {
      "channel": 2,
      "note": 57,
      "start": 73.1982,
      "duration": 0.0122,
      "velocity": 100,
      "chip": "ym2612"
    },
    {
      "channel": 1,
      "note": 105,
      "start": 73.2048,
      "duration": 0.0161,
      "velocity": 105,
      "chip": "ym2612"
    },
    {
      "channel": 0,
      "note": 40,
      "start": 73.2065,
      "duration": 0.016,
      "velocity": 115,
      "chip": "ym2612"
    },
    {
      "channel": 4,
      "note": 74,
      "start": 73.2077,
      "duration": 0.016,
      "velocity": 94,
      "chip": "ym2612"
    },
    {
      "channel": 3,
      "note": 74,
      "start": 73.2088,
      "duration": 0.016,
      "velocity": 94,
      "chip": "ym2612"
    },
    {
      "channel": 2,
      "note": 57,
      "start": 73.2104,
      "duration": 0.0156,
      "velocity": 100,
      "chip": "ym2612"
    },
    {
      "channel": 1,
      "note": 105,
      "start": 73.2209,
      "duration": 0.0161,
      "velocity": 105,
      "chip": "ym2612"
    },
    {
      "channel": 0,
      "note": 40,
      "start": 73.2226,
      "duration": 0.0161,
      "velocity": 115,
      "chip": "ym2612"
    },
    {
      "channel": 4,
      "note": 74,
      "start": 73.2237,
      "duration": 0.0161,
      "velocity": 94,
      "chip": "ym2612"
    },
    {
      "channel": 3,
      "note": 74,
      "start": 73.2249,
      "duration": 0.0161,
      "velocity": 94,
      "chip": "ym2612"
    },
    {
      "channel": 2,
      "note": 57,
      "start": 73.226,
      "duration": 0.0161,
      "velocity": 100,
      "chip": "ym2612"
    },
    {
      "channel": 1,
      "note": 105,
      "start": 73.237,
      "duration": 0.0161,
      "velocity": 105,
      "chip": "ym2612"
    },
    {
      "channel": 0,
      "note": 40,
      "start": 73.2387,
      "duration": 0.0161,
      "velocity": 115,
      "chip": "ym2612"
    },
    {
      "channel": 4,
      "note": 74,
      "start": 73.2398,
      "duration": 0.0161,
      "velocity": 94,
      "chip": "ym2612"
    },
    {
      "channel": 3,
      "note": 74,
      "start": 73.241,
      "duration": 0.0161,
      "velocity": 94,
      "chip": "ym2612"
    },
    {
      "channel": 2,
      "note": 57,
      "start": 73.2421,
      "duration": 0.0161,
      "velocity": 100,
      "chip": "ym2612"
    },
    {
      "channel": 1,
      "note": 105,
      "start": 73.2531,
      "duration": 0.0161,
      "velocity": 105,
      "chip": "ym2612"
    },
    {
      "channel": 0,
      "note": 41,
      "start": 73.2548,
      "duration": 0.0161,
      "velocity": 115,
      "chip": "ym2612"
    },
    {
      "channel": 4,
      "note": 74,
      "start": 73.2559,
      "duration": 0.0161,
      "velocity": 94,
      "chip": "ym2612"
    },
    {
      "channel": 3,
      "note": 74,
      "start": 73.2571,
      "duration": 0.0161,
      "velocity": 94,
      "chip": "ym2612"
    },
    {
      "channel": 2,
      "note": 57,
      "start": 73.2582,
      "duration": 0.0161,
      "velocity": 100,
      "chip": "ym2612"
    },
    {
      "channel": 1,
      "note": 105,
      "start": 73.2692,
      "duration": 0.0161,
      "velocity": 105,
      "chip": "ym2612"
    },
    {
      "channel": 0,
      "note": 41,
      "start": 73.2709,
      "duration": 0.0161,
      "velocity": 115,
      "chip": "ym2612"
    },
    {
      "channel": 4,
      "note": 74,
      "start": 73.272,
      "duration": 0.0162,
      "velocity": 94,
      "chip": "ym2612"
    },
    {
      "channel": 3,
      "note": 74,
      "start": 73.2732,
      "duration": 0.0161,
      "velocity": 94,
      "chip": "ym2612"
    },
    {
      "channel": 2,
      "note": 57,
      "start": 73.2743,
      "duration": 0.0161,
      "velocity": 100,
      "chip": "ym2612"
    },
    {
      "channel": 1,
      "note": 105,
      "start": 73.2853,
      "duration": 0.0178,
      "velocity": 124,
      "chip": "ym2612"
    },
    {
      "channel": 0,
      "note": 42,
      "start": 73.2869,
      "duration": 0.0179,
      "velocity": 115,
      "chip": "ym2612"
    },
    {
      "channel": 4,
      "note": 74,
      "start": 73.2882,
      "duration": 0.0178,
      "velocity": 94,
      "chip": "ym2612"
    },
    {
      "channel": 3,
      "note": 74,
      "start": 73.2893,
      "duration": 0.0178,
      "velocity": 94,
      "chip": "ym2612"
    },
    {
      "channel": 2,
      "note": 57,
      "start": 73.2904,
      "duration": 0.0181,
      "velocity": 100,
      "chip": "ym2612"
    },
    {
      "channel": 1,
      "note": 64,
      "start": 73.3032,
      "duration": 0.0144,
      "velocity": 124,
      "chip": "ym2612"
    },
    {
      "channel": 0,
      "note": 42,
      "start": 73.3048,
      "duration": 0.0144,
      "velocity": 115,
      "chip": "ym2612"
    },
    {
      "channel": 4,
      "note": 74,
      "start": 73.306,
      "duration": 0.0144,
      "velocity": 94,
      "chip": "ym2612"
    },
    {
      "channel": 3,
      "note": 74,
      "start": 73.3071,
      "duration": 0.0144,
      "velocity": 94,
      "chip": "ym2612"
    },
    {
      "channel": 2,
      "note": 57,
      "start": 73.3086,
      "duration": 0.0141,
      "velocity": 100,
      "chip": "ym2612"
    },
    {
      "channel": 1,
      "note": 64,
      "start": 73.3176,
      "duration": 0.016,
      "velocity": 124,
      "chip": "ym2612"
    },
    {
      "channel": 0,
      "note": 43,
      "start": 73.3193,
      "duration": 0.016,
      "velocity": 115,
      "chip": "ym2612"
    },
    {
      "channel": 4,
      "note": 74,
      "start": 73.3204,
      "duration": 0.016,
      "velocity": 94,
      "chip": "ym2612"
    },
    {
      "channel": 3,
      "note": 74,
      "start": 73.3215,
      "duration": 0.016,
      "velocity": 94,
      "chip": "ym2612"
    },
    {
      "channel": 2,
      "note": 57,
      "start": 73.3227,
      "duration": 0.016,
      "velocity": 100,
      "chip": "ym2612"
    },
    {
      "channel": 1,
      "note": 64,
      "start": 73.3336,
      "duration": 0.0161,
      "velocity": 124,
      "chip": "ym2612"
    },
    {
      "channel": 0,
      "note": 43,
      "start": 73.3353,
      "duration": 0.0161,
      "velocity": 115,
      "chip": "ym2612"
    },
    {
      "channel": 4,
      "note": 74,
      "start": 73.3364,
      "duration": 0.0161,
      "velocity": 94,
      "chip": "ym2612"
    },
    {
      "channel": 3,
      "note": 74,
      "start": 73.3376,
      "duration": 0.0161,
      "velocity": 94,
      "chip": "ym2612"
    },
    {
      "channel": 2,
      "note": 57,
      "start": 73.3387,
      "duration": 0.0161,
      "velocity": 100,
      "chip": "ym2612"
    },
    {
      "channel": 1,
      "note": 64,
      "start": 73.3497,
      "duration": 0.0161,
      "velocity": 124,
      "chip": "ym2612"
    },
    {
      "channel": 0,
      "note": 44,
      "start": 73.3514,
      "duration": 0.0161,
      "velocity": 115,
      "chip": "ym2612"
    },
    {
      "channel": 4,
      "note": 74,
      "start": 73.3525,
      "duration": 0.0161,
      "velocity": 94,
      "chip": "ym2612"
    },
    {
      "channel": 3,
      "note": 74,
      "start": 73.3537,
      "duration": 0.0161,
      "velocity": 94,
      "chip": "ym2612"
    },
    {
      "channel": 2,
      "note": 57,
      "start": 73.3548,
      "duration": 0.0161,
      "velocity": 100,
      "chip": "ym2612"
    },
    {
      "channel": 1,
      "note": 64,
      "start": 73.3658,
      "duration": 0.0161,
      "velocity": 124,
      "chip": "ym2612"
    },
    {
      "channel": 0,
      "note": 44,
      "start": 73.3675,
      "duration": 0.0161,
      "velocity": 115,
      "chip": "ym2612"
    },
    {
      "channel": 4,
      "note": 74,
      "start": 73.3686,
      "duration": 0.0161,
      "velocity": 94,
      "chip": "ym2612"
    },
    {
      "channel": 3,
      "note": 74,
      "start": 73.3698,
      "duration": 0.0161,
      "velocity": 94,
      "chip": "ym2612"
    },
    {
      "channel": 2,
      "note": 57,
      "start": 73.3709,
      "duration": 0.0161,
      "velocity": 100,
      "chip": "ym2612"
    },
    {
      "channel": 1,
      "note": 64,
      "start": 73.3819,
      "duration": 0.0161,
      "velocity": 124,
      "chip": "ym2612"
    },
    {
      "channel": 0,
      "note": 44,
      "start": 73.3836,
      "duration": 0.0161,
      "velocity": 115,
      "chip": "ym2612"
    },
    {
      "channel": 4,
      "note": 74,
      "start": 73.3847,
      "duration": 0.0162,
      "velocity": 94,
      "chip": "ym2612"
    },
    {
      "channel": 3,
      "note": 74,
      "start": 73.3859,
      "duration": 0.0161,
      "velocity": 94,
      "chip": "ym2612"
    },
    {
      "channel": 2,
      "note": 57,
      "start": 73.387,
      "duration": 0.0161,
      "velocity": 100,
      "chip": "ym2612"
    },
    {
      "channel": 1,
      "note": 64,
      "start": 73.398,
      "duration": 0.0178,
      "velocity": 105,
      "chip": "ym2612"
    },
    {
      "channel": 0,
      "note": 45,
      "start": 73.3997,
      "duration": 0.0178,
      "velocity": 115,
      "chip": "ym2612"
    },
    {
      "channel": 4,
      "note": 74,
      "start": 73.4009,
      "duration": 0.0178,
      "velocity": 94,
      "chip": "ym2612"
    },
    {
      "channel": 3,
      "note": 74,
      "start": 73.402,
      "duration": 0.0178,
      "velocity": 94,
      "chip": "ym2612"
    },
    {
      "channel": 2,
      "note": 57,
      "start": 73.4031,
      "duration": 0.0181,
      "velocity": 100,
      "chip": "ym2612"
    },
    {
      "channel": 1,
      "note": 105,
      "start": 73.4158,
      "duration": 0.0148,
      "velocity": 105,
      "chip": "ym2612"
    },
    {
      "channel": 0,
      "note": 45,
      "start": 73.4175,
      "duration": 0.0149,
      "velocity": 115,
      "chip": "ym2612"
    },
    {
      "channel": 4,
      "note": 74,
      "start": 73.4187,
      "duration": 0.0148,
      "velocity": 94,
      "chip": "ym2612"
    },
    {
      "channel": 3,
      "note": 74,
      "start": 73.4198,
      "duration": 0.0148,
      "velocity": 94,
      "chip": "ym2612"
    },
    {
      "channel": 2,
      "note": 57,
      "start": 73.4212,
      "duration": 0.0146,
      "velocity": 100,
      "chip": "ym2612"
    },
    {
      "channel": 1,
      "note": 105,
      "start": 73.4307,
      "duration": 0.0167,
      "velocity": 105,
      "chip": "ym2612"
    },
    {
      "channel": 0,
      "note": 46,
      "start": 73.4324,
      "duration": 0.0166,
      "velocity": 115,
      "chip": "ym2612"
    },
    {
      "channel": 4,
      "note": 74,
      "start": 73.4335,
      "duration": 0.0166,
      "velocity": 94,
      "chip": "ym2612"
    },
    {
      "channel": 3,
      "note": 74,
      "start": 73.4346,
      "duration": 0.0166,
      "velocity": 94,
      "chip": "ym2612"
    },
    {
      "channel": 2,
      "note": 57,
      "start": 73.4358,
      "duration": 0.0166,
      "velocity": 100,
      "chip": "ym2612"
    },
    {
      "channel": 1,
      "note": 105,
      "start": 73.4473,
      "duration": 0.0163,
      "velocity": 105,
      "chip": "ym2612"
    },
    {
      "channel": 0,
      "note": 46,
      "start": 73.449,
      "duration": 0.0163,
      "velocity": 115,
      "chip": "ym2612"
    },
    {
      "channel": 4,
      "note": 74,
      "start": 73.4501,
      "duration": 0.0163,
      "velocity": 94,
      "chip": "ym2612"
    },
    {
      "channel": 3,
      "note": 74,
      "start": 73.4513,
      "duration": 0.0163,
      "velocity": 94,
      "chip": "ym2612"
    },
    {
      "channel": 2,
      "note": 57,
      "start": 73.4524,
      "duration": 0.0163,
      "velocity": 100,
      "chip": "ym2612"
    },
    {
      "channel": 1,
      "note": 105,
      "start": 73.4636,
      "duration": 0.0149,
      "velocity": 105,
      "chip": "ym2612"
    },
    {
      "channel": 0,
      "note": 47,
      "start": 73.4653,
      "duration": 0.0149,
      "velocity": 115,
      "chip": "ym2612"
    },
    {
      "channel": 4,
      "note": 74,
      "start": 73.4664,
      "duration": 0.0149,
      "velocity": 94,
      "chip": "ym2612"
    },
    {
      "channel": 3,
      "note": 74,
      "start": 73.4676,
      "duration": 0.0149,
      "velocity": 94,
      "chip": "ym2612"
    },
    {
      "channel": 2,
      "note": 57,
      "start": 73.4687,
      "duration": 0.0149,
      "velocity": 100,
      "chip": "ym2612"
    },
    {
      "channel": 1,
      "note": 105,
      "start": 73.4785,
      "duration": 0.0188,
      "velocity": 105,
      "chip": "ym2612"
    },
    {
      "channel": 0,
      "note": 47,
      "start": 73.4801,
      "duration": 0.0188,
      "velocity": 115,
      "chip": "ym2612"
    },
    {
      "channel": 4,
      "note": 74,
      "start": 73.4813,
      "duration": 0.0188,
      "velocity": 94,
      "chip": "ym2612"
    },
    {
      "channel": 3,
      "note": 74,
      "start": 73.4825,
      "duration": 0.0188,
      "velocity": 94,
      "chip": "ym2612"
    },
    {
      "channel": 2,
      "note": 57,
      "start": 73.4836,
      "duration": 0.0188,
      "velocity": 100,
      "chip": "ym2612"
    },
    {
      "channel": 1,
      "note": 105,
      "start": 73.4973,
      "duration": 0.0162,
      "velocity": 105,
      "chip": "ym2612"
    },
    {
      "channel": 0,
      "note": 47,
      "start": 73.499,
      "duration": 0.0161,
      "velocity": 115,
      "chip": "ym2612"
    },
    {
      "channel": 4,
      "note": 74,
      "start": 73.5001,
      "duration": 0.0162,
      "velocity": 94,
      "chip": "ym2612"
    },
    {
      "channel": 3,
      "note": 74,
      "start": 73.5013,
      "duration": 0.0161,
      "velocity": 94,
      "chip": "ym2612"
    },
    {
      "channel": 2,
      "note": 57,
      "start": 73.5024,
      "duration": 0.0162,
      "velocity": 100,
      "chip": "ym2612"
    },
    {
      "channel": 1,
      "note": 105,
      "start": 73.5135,
      "duration": 0.018,
      "velocity": 124,
      "chip": "ym2612"
    },
    {
      "channel": 0,
      "note": 48,
      "start": 73.5151,
      "duration": 0.0188,
      "velocity": 115,
      "chip": "ym2612"
    },
    {
      "channel": 4,
      "note": 74,
      "start": 73.5163,
      "duration": 0.0188,
      "velocity": 94,
      "chip": "ym2612"
    },
    {
      "channel": 3,
      "note": 74,
      "start": 73.5174,
      "duration": 0.0188,
      "velocity": 94,
      "chip": "ym2612"
    },
    {
      "channel": 2,
      "note": 57,
      "start": 73.5186,
      "duration": 0.019,
      "velocity": 100,
      "chip": "ym2612"
    },
    {
      "channel": 1,
      "note": 78,
      "start": 73.5315,
      "duration": 0.0123,
      "velocity": 124,
      "chip": "ym2612"
    },
    {
      "channel": 0,
      "note": 48,
      "start": 73.5339,
      "duration": 0.0118,
      "velocity": 115,
      "chip": "ym2612"
    },
    {
      "channel": 4,
      "note": 74,
      "start": 73.535,
      "duration": 0.0118,
      "velocity": 94,
      "chip": "ym2612"
    },
    {
      "channel": 3,
      "note": 74,
      "start": 73.5362,
      "duration": 0.0118,
      "velocity": 94,
      "chip": "ym2612"
    },
    {
      "channel": 2,
      "note": 57,
      "start": 73.5376,
      "duration": 0.0116,
      "velocity": 100,
      "chip": "ym2612"
    },
    {
      "channel": 1,
      "note": 76,
      "start": 73.5438,
      "duration": 0.0157,
      "velocity": 124,
      "chip": "ym2612"
    },
    {
      "channel": 0,
      "note": 49,
      "start": 73.5457,
      "duration": 0.0176,
      "velocity": 1,
      "chip": "ym2612"
    },
    {
      "channel": 4,
      "note": 74,
      "start": 73.5469,
      "duration": 0.0176,
      "velocity": 94,
      "chip": "ym2612"
    },
    {
      "channel": 3,
      "note": 74,
      "start": 73.548,
      "duration": 0.0176,
      "velocity": 94,
      "chip": "ym2612"
    },
    {
      "channel": 2,
      "note": 57,
      "start": 73.5492,
      "duration": 0.0176,
      "velocity": 100,
      "chip": "ym2612"
    },
    {
      "channel": 1,
      "note": 75,
      "start": 73.5595,
      "duration": 0.0161,
      "velocity": 124,
      "chip": "ym2612"
    },
    {
      "channel": 4,
      "note": 74,
      "start": 73.5645,
      "duration": 0.0153,
      "velocity": 94,
      "chip": "ym2612"
    },
    {
      "channel": 3,
      "note": 74,
      "start": 73.5656,
      "duration": 0.0153,
      "velocity": 94,
      "chip": "ym2612"
    },
    {
      "channel": 2,
      "note": 57,
      "start": 73.5668,
      "duration": 0.0153,
      "velocity": 100,
      "chip": "ym2612"
    },
    {
      "channel": 1,
      "note": 74,
      "start": 73.5756,
      "duration": 0.0161,
      "velocity": 124,
      "chip": "ym2612"
    },
    {
      "channel": 4,
      "note": 74,
      "start": 73.5798,
      "duration": 0.0134,
      "velocity": 94,
      "chip": "ym2612"
    },
    {
      "channel": 3,
      "note": 74,
      "start": 73.5809,
      "duration": 0.0157,
      "velocity": 94,
      "chip": "ym2612"
    },
    {
      "channel": 2,
      "note": 57,
      "start": 73.582,
      "duration": 0.0157,
      "velocity": 100,
      "chip": "ym2612"
    },
    {
      "channel": 1,
      "note": 72,
      "start": 73.5917,
      "duration": 0.0161,
      "velocity": 124,
      "chip": "ym2612"
    },
    {
      "channel": 4,
      "note": 74,
      "start": 73.5931,
      "duration": 0.0161,
      "velocity": 94,
      "chip": "ym2612"
    },
    {
      "channel": 3,
      "note": 74,
      "start": 73.5966,
      "duration": 0.0141,
      "velocity": 94,
      "chip": "ym2612"
    },
    {
      "channel": 2,
      "note": 57,
      "start": 73.5978,
      "duration": 0.0141,
      "velocity": 100,
      "chip": "ym2612"
    },
    {
      "channel": 1,
      "note": 71,
      "start": 73.6078,
      "duration": 0.0161,
      "velocity": 124,
      "chip": "ym2612"
    },
    {
      "channel": 4,
      "note": 74,
      "start": 73.6092,
      "duration": 0.0161,
      "velocity": 94,
      "chip": "ym2612"
    },
    {
      "channel": 3,
      "note": 74,
      "start": 73.6107,
      "duration": 0.0158,
      "velocity": 94,
      "chip": "ym2612"
    },
    {
      "channel": 2,
      "note": 57,
      "start": 73.6118,
      "duration": 0.0185,
      "velocity": 100,
      "chip": "ym2612"
    },
    {
      "channel": 1,
      "note": 70,
      "start": 73.6239,
      "duration": 0.0161,
      "velocity": 124,
      "chip": "ym2612"
    },
    {
      "channel": 4,
      "note": 74,
      "start": 73.6253,
      "duration": 0.0166,
      "velocity": 94,
      "chip": "ym2612"
    },
    {
      "channel": 3,
      "note": 74,
      "start": 73.6264,
      "duration": 0.0166,
      "velocity": 94,
      "chip": "ym2612"
    },
    {
      "channel": 2,
      "note": 57,
      "start": 73.6303,
      "duration": 0.0169,
      "velocity": 100,
      "chip": "ym2612"
    },
    {
      "channel": 1,
      "note": 69,
      "start": 73.64,
      "duration": 0.0161,
      "velocity": 124,
      "chip": "ym2612"
    },
    {
      "channel": 4,
      "note": 74,
      "start": 73.6419,
      "duration": 0.0156,
      "velocity": 94,
      "chip": "ym2612"
    },
    {
      "channel": 3,
      "note": 74,
      "start": 73.6431,
      "duration": 0.0156,
      "velocity": 94,
      "chip": "ym2612"
    },
    {
      "channel": 2,
      "note": 57,
      "start": 73.6473,
      "duration": 0.015,
      "velocity": 100,
      "chip": "ym2612"
    },
    {
      "channel": 1,
      "note": 68,
      "start": 73.6561,
      "duration": 0.0161,
      "velocity": 124,
      "chip": "ym2612"
    },
    {
      "channel": 4,
      "note": 74,
      "start": 73.6576,
      "duration": 0.016,
      "velocity": 94,
      "chip": "ym2612"
    },
    {
      "channel": 3,
      "note": 74,
      "start": 73.6587,
      "duration": 0.016,
      "velocity": 94,
      "chip": "ym2612"
    },
    {
      "channel": 2,
      "note": 57,
      "start": 73.6623,
      "duration": 0.0136,
      "velocity": 100,
      "chip": "ym2612"
    },
    {
      "channel": 1,
      "note": 66,
      "start": 73.6722,
      "duration": 0.0161,
      "velocity": 124,
      "chip": "ym2612"
    },
    {
      "channel": 4,
      "note": 74,
      "start": 73.6736,
      "duration": 0.0161,
      "velocity": 94,
      "chip": "ym2612"
    },
    {
      "channel": 3,
      "note": 74,
      "start": 73.6747,
      "duration": 0.0161,
      "velocity": 94,
      "chip": "ym2612"
    },
    {
      "channel": 2,
      "note": 57,
      "start": 73.6759,
      "duration": 0.0161,
      "velocity": 100,
      "chip": "ym2612"
    },
    {
      "channel": 1,
      "note": 65,
      "start": 73.6883,
      "duration": 0.0162,
      "velocity": 124,
      "chip": "ym2612"
    },
    {
      "channel": 4,
      "note": 74,
      "start": 73.6897,
      "duration": 0.0161,
      "velocity": 94,
      "chip": "ym2612"
    },
    {
      "channel": 3,
      "note": 74,
      "start": 73.6908,
      "duration": 0.0161,
      "velocity": 94,
      "chip": "ym2612"
    },
    {
      "channel": 2,
      "note": 57,
      "start": 73.692,
      "duration": 0.0161,
      "velocity": 100,
      "chip": "ym2612"
    },
    {
      "channel": 1,
      "note": 64,
      "start": 73.7044,
      "duration": 0.0161,
      "velocity": 124,
      "chip": "ym2612"
    },
    {
      "channel": 4,
      "note": 74,
      "start": 73.7058,
      "duration": 0.0161,
      "velocity": 94,
      "chip": "ym2612"
    },
    {
      "channel": 3,
      "note": 74,
      "start": 73.7069,
      "duration": 0.0161,
      "velocity": 94,
      "chip": "ym2612"
    },
    {
      "channel": 2,
      "note": 57,
      "start": 73.7081,
      "duration": 0.0161,
      "velocity": 100,
      "chip": "ym2612"
    },
    {
      "channel": 1,
      "note": 62,
      "start": 73.7205,
      "duration": 0.0161,
      "velocity": 124,
      "chip": "ym2612"
    },
    {
      "channel": 4,
      "note": 74,
      "start": 73.7219,
      "duration": 0.0162,
      "velocity": 94,
      "chip": "ym2612"
    },
    {
      "channel": 3,
      "note": 74,
      "start": 73.723,
      "duration": 0.0161,
      "velocity": 94,
      "chip": "ym2612"
    },
    {
      "channel": 2,
      "note": 57,
      "start": 73.7241,
      "duration": 0.0161,
      "velocity": 100,
      "chip": "ym2612"
    },
    {
      "channel": 1,
      "note": 61,
      "start": 73.7366,
      "duration": 0.0161,
      "velocity": 124,
      "chip": "ym2612"
    },
    {
      "channel": 4,
      "note": 74,
      "start": 73.738,
      "duration": 0.0166,
      "velocity": 94,
      "chip": "ym2612"
    },
    {
      "channel": 3,
      "note": 74,
      "start": 73.7392,
      "duration": 0.0166,
      "velocity": 94,
      "chip": "ym2612"
    },
    {
      "channel": 2,
      "note": 57,
      "start": 73.7402,
      "duration": 0.0169,
      "velocity": 100,
      "chip": "ym2612"
    },
    {
      "channel": 1,
      "note": 60,
      "start": 73.7527,
      "duration": 0.0161,
      "velocity": 124,
      "chip": "ym2612"
    },
    {
      "channel": 4,
      "note": 74,
      "start": 73.7546,
      "duration": 0.0156,
      "velocity": 94,
      "chip": "ym2612"
    },
    {
      "channel": 3,
      "note": 74,
      "start": 73.7558,
      "duration": 0.0156,
      "velocity": 94,
      "chip": "ym2612"
    },
    {
      "channel": 2,
      "note": 50,
      "start": 73.7572,
      "duration": 0.0153,
      "velocity": 100,
      "chip": "ym2612"
    },
    {
      "channel": 1,
      "note": 59,
      "start": 73.7688,
      "duration": 0.0161,
      "velocity": 124,
      "chip": "ym2612"
    },
    {
      "channel": 4,
      "note": 74,
      "start": 73.7703,
      "duration": 0.016,
      "velocity": 94,
      "chip": "ym2612"
    },
    {
      "channel": 3,
      "note": 74,
      "start": 73.7714,
      "duration": 0.016,
      "velocity": 94,
      "chip": "ym2612"
    },
    {
      "channel": 2,
      "note": 50,
      "start": 73.7726,
      "duration": 0.016,
      "velocity": 100,
      "chip": "ym2612"
    },
    {
      "channel": 1,
      "note": 57,
      "start": 73.7849,
      "duration": 0.0161,
      "velocity": 124,
      "chip": "ym2612"
    },
    {
      "channel": 4,
      "note": 74,
      "start": 73.7863,
      "duration": 0.0161,
      "velocity": 94,
      "chip": "ym2612"
    },
    {
      "channel": 3,
      "note": 74,
      "start": 73.7875,
      "duration": 0.0161,
      "velocity": 94,
      "chip": "ym2612"
    },
    {
      "channel": 2,
      "note": 50,
      "start": 73.7886,
      "duration": 0.0161,
      "velocity": 100,
      "chip": "ym2612"
    },
    {
      "channel": 1,
      "note": 56,
      "start": 73.801,
      "duration": 0.0161,
      "velocity": 124,
      "chip": "ym2612"
    },
    {
      "channel": 4,
      "note": 74,
      "start": 73.8024,
      "duration": 0.0161,
      "velocity": 94,
      "chip": "ym2612"
    },
    {
      "channel": 3,
      "note": 74,
      "start": 73.8035,
      "duration": 0.0161,
      "velocity": 94,
      "chip": "ym2612"
    },
    {
      "channel": 2,
      "note": 50,
      "start": 73.8047,
      "duration": 0.0161,
      "velocity": 100,
      "chip": "ym2612"
    },
    {
      "channel": 1,
      "note": 55,
      "start": 73.8171,
      "duration": 0.0162,
      "velocity": 124,
      "chip": "ym2612"
    },
    {
      "channel": 4,
      "note": 74,
      "start": 73.8185,
      "duration": 0.0161,
      "velocity": 94,
      "chip": "ym2612"
    },
    {
      "channel": 3,
      "note": 74,
      "start": 73.8196,
      "duration": 0.0161,
      "velocity": 94,
      "chip": "ym2612"
    },
    {
      "channel": 2,
      "note": 50,
      "start": 73.8208,
      "duration": 0.0161,
      "velocity": 100,
      "chip": "ym2612"
    },
    {
      "channel": 1,
      "note": 53,
      "start": 73.8333,
      "duration": 0.0161,
      "velocity": 124,
      "chip": "ym2612"
    },
    {
      "channel": 4,
      "note": 74,
      "start": 73.8346,
      "duration": 0.0161,
      "velocity": 94,
      "chip": "ym2612"
    },
    {
      "channel": 3,
      "note": 74,
      "start": 73.8357,
      "duration": 0.0161,
      "velocity": 94,
      "chip": "ym2612"
    },
    {
      "channel": 2,
      "note": 50,
      "start": 73.8369,
      "duration": 0.0161,
      "velocity": 100,
      "chip": "ym2612"
    },
    {
      "channel": 1,
      "note": 52,
      "start": 73.8493,
      "duration": 0.0161,
      "velocity": 124,
      "chip": "ym2612"
    },
    {
      "channel": 4,
      "note": 74,
      "start": 73.8507,
      "duration": 0.0202,
      "velocity": 94,
      "chip": "ym2612"
    },
    {
      "channel": 3,
      "note": 74,
      "start": 73.8518,
      "duration": 0.0202,
      "velocity": 94,
      "chip": "ym2612"
    },
    {
      "channel": 2,
      "note": 50,
      "start": 73.853,
      "duration": 0.0204,
      "velocity": 100,
      "chip": "ym2612"
    },
    {
      "channel": 1,
      "note": 51,
      "start": 73.8654,
      "duration": 0.0153,
      "velocity": 1,
      "chip": "ym2612"
    },
    {
      "channel": 0,
      "note": 78,
      "start": 73.8696,
      "duration": 0.015,
      "velocity": 127,
      "chip": "ym2612"
    },
    {
      "channel": 4,
      "note": 74,
      "start": 73.8709,
      "duration": 0.0149,
      "velocity": 94,
      "chip": "ym2612"
    },
    {
      "channel": 3,
      "note": 74,
      "start": 73.872,
      "duration": 0.0149,
      "velocity": 94,
      "chip": "ym2612"
    },
    {
      "channel": 2,
      "note": 50,
      "start": 73.8734,
      "duration": 0.0147,
      "velocity": 100,
      "chip": "ym2612"
    },
    {
      "channel": 1,
      "note": 51,
      "start": 73.8829,
      "duration": 0.0144,
      "velocity": 105,
      "chip": "ym2612"
    },
    {
      "channel": 0,
      "note": 76,
      "start": 73.8846,
      "duration": 0.0143,
      "velocity": 127,
      "chip": "ym2612"
    },
    {
      "channel": 4,
      "note": 74,
      "start": 73.8858,
      "duration": 0.0143,
      "velocity": 94,
      "chip": "ym2612"
    },
    {
      "channel": 3,
      "note": 74,
      "start": 73.8869,
      "duration": 0.0143,
      "velocity": 94,
      "chip": "ym2612"
    },
    {
      "channel": 2,
      "note": 50,
      "start": 73.8881,
      "duration": 0.0143,
      "velocity": 100,
      "chip": "ym2612"
    },
    {
      "channel": 1,
      "note": 105,
      "start": 73.8973,
      "duration": 0.0167,
      "velocity": 105,
      "chip": "ym2612"
    },
    {
      "channel": 0,
      "note": 75,
      "start": 73.899,
      "duration": 0.0167,
      "velocity": 127,
      "chip": "ym2612"
    },
    {
      "channel": 4,
      "note": 74,
      "start": 73.9001,
      "duration": 0.0167,
      "velocity": 94,
      "chip": "ym2612"
    },
    {
      "channel": 3,
      "note": 74,
      "start": 73.9013,
      "duration": 0.0167,
      "velocity": 94,
      "chip": "ym2612"
    },
    {
      "channel": 2,
      "note": 50,
      "start": 73.9024,
      "duration": 0.0167,
      "velocity": 100,
      "chip": "ym2612"
    },
    {
      "channel": 1,
      "note": 105,
      "start": 73.914,
      "duration": 0.0163,
      "velocity": 105,
      "chip": "ym2612"
    },
    {
      "channel": 0,
      "note": 73,
      "start": 73.9156,
      "duration": 0.0163,
      "velocity": 127,
      "chip": "ym2612"
    },
    {
      "channel": 4,
      "note": 74,
      "start": 73.9168,
      "duration": 0.0163,
      "velocity": 94,
      "chip": "ym2612"
    },
    {
      "channel": 3,
      "note": 74,
      "start": 73.9179,
      "duration": 0.0163,
      "velocity": 94,
      "chip": "ym2612"
    },
    {
      "channel": 2,
      "note": 50,
      "start": 73.9191,
      "duration": 0.0163,
      "velocity": 100,
      "chip": "ym2612"
    },
    {
      "channel": 1,
      "note": 105,
      "start": 73.9303,
      "duration": 0.0151,
      "velocity": 105,
      "chip": "ym2612"
    },
    {
      "channel": 0,
      "note": 71,
      "start": 73.9319,
      "duration": 0.0152,
      "velocity": 127,
      "chip": "ym2612"
    },
    {
      "channel": 4,
      "note": 74,
      "start": 73.9331,
      "duration": 0.0152,
      "velocity": 94,
      "chip": "ym2612"
    },
    {
      "channel": 3,
      "note": 74,
      "start": 73.9342,
      "duration": 0.0152,
      "velocity": 94,
      "chip": "ym2612"
    },
    {
      "channel": 2,
      "note": 50,
      "start": 73.9354,
      "duration": 0.0152,
      "velocity": 100,
      "chip": "ym2612"
    },
    {
      "channel": 1,
      "note": 105,
      "start": 73.9454,
      "duration": 0.0186,
      "velocity": 105,
      "chip": "ym2612"
    },
    {
      "channel": 0,
      "note": 70,
      "start": 73.9471,
      "duration": 0.0185,
      "velocity": 127,
      "chip": "ym2612"
    },
    {
      "channel": 4,
      "note": 74,
      "start": 73.9483,
      "duration": 0.0185,
      "velocity": 94,
      "chip": "ym2612"
    },
    {
      "channel": 3,
      "note": 74,
      "start": 73.9494,
      "duration": 0.0185,
      "velocity": 94,
      "chip": "ym2612"
    },
    {
      "channel": 2,
      "note": 50,
      "start": 73.9506,
      "duration": 0.0185,
      "velocity": 100,
      "chip": "ym2612"
    },
    {
      "channel": 1,
      "note": 105,
      "start": 73.964,
      "duration": 0.0151,
      "velocity": 105,
      "chip": "ym2612"
    },
    {
      "channel": 0,
      "note": 68,
      "start": 73.9656,
      "duration": 0.0134,
      "velocity": 127,
      "chip": "ym2612"
    },
    {
      "channel": 4,
      "note": 74,
      "start": 73.9668,
      "duration": 0.0123,
      "velocity": 94,
      "chip": "ym2612"
    },
    {
      "channel": 3,
      "note": 74,
      "start": 73.9679,
      "duration": 0.0112,
      "velocity": 94,
      "chip": "ym2612"
    },
    {
      "channel": 2,
      "note": 50,
      "start": 73.9691,
      "duration": 0.01,
      "velocity": 100,
      "chip": "ym2612"
    }
  ]
}