{
  "track_name": "05 - Boss Fight",
  "duration_sec": 35.599,
  "sample_rate": 44100,
  "note_count": 1126,
  "unique_pitches": 68,
  "pitch_range": 95,
  "avg_note_duration": 0.1034,
  "reconstruction_stats": {
    "notes_reconstructed": 1126,
    "keyon_events": 1126,
    "keyoff_events": 1122,
    "orphan_keyons": 4,
    "unique_pitches": 68,
    "pitch_range": 95,
    "avg_duration_sec": 0.1034
  },
  "metadata": {
    "source": "T\\Tiny Toon Adventures - Buster's Hidden Treasure\\05 - Boss Fight.vgz"
  },
  "notes": [
    {
      "channel": 0,
      "note": 47,
      "start": 0.01,
      "duration": 0.2056,
      "velocity": 97,
      "chip": "ym2612"
    },
    {
      "channel": 1,
      "note": 69,
      "start": 0.0122,
      "duration": 0.2036,
      "velocity": 87,
      "chip": "ym2612"
    },
    {
      "channel": 2,
      "note": 72,
      "start": 0.0144,
      "duration": 0.0836,
      "velocity": 115,
      "chip": "ym2612"
    },
    {
      "channel": 3,
      "note": 69,
      "start": 0.0169,
      "duration": 0.1998,
      "velocity": 87,
      "chip": "ym2612"
    },
    {
      "channel": 5,
      "note": 38,
      "start": 0.0202,
      "duration": 0.3345,
      "velocity": 127,
      "chip": "ym2612"
    },
    {
      "channel": 2,
      "note": 71,
      "start": 0.1154,
      "duration": 0.0837,
      "velocity": 115,
      "chip": "ym2612"
    },
    {
      "channel": 2,
      "note": 75,
      "start": 0.2165,
      "duration": 0.0833,
      "velocity": 115,
      "chip": "ym2612"
    },
    {
      "channel": 2,
      "note": 74,
      "start": 0.3171,
      "duration": 0.0837,
      "velocity": 115,
      "chip": "ym2612"
    },
    {
      "channel": 0,
      "note": 48,
      "start": 0.4176,
      "duration": 0.2014,
      "velocity": 97,
      "chip": "ym2612"
    },
    {
      "channel": 1,
      "note": 70,
      "start": 0.4184,
      "duration": 0.2009,
      "velocity": 87,
      "chip": "ym2612"
    },
    {
      "channel": 2,
      "note": 78,
      "start": 0.4191,
      "duration": 0.0826,
      "velocity": 115,
      "chip": "ym2612"
    },
    {
      "channel": 3,
      "note": 70,
      "start": 0.4198,
      "duration": 0.2004,
      "velocity": 87,
      "chip": "ym2612"
    },
    {
      "channel": 5,
      "note": 38,
      "start": 0.4238,
      "duration": 0.3349,
      "velocity": 127,
      "chip": "ym2612"
    },
    {
      "channel": 2,
      "note": 77,
      "start": 0.5189,
      "duration": 0.0837,
      "velocity": 115,
      "chip": "ym2612"
    },
    {
      "channel": 2,
      "note": 81,
      "start": 0.6201,
      "duration": 0.0834,
      "velocity": 115,
      "chip": "ym2612"
    },
    {
      "channel": 2,
      "note": 80,
      "start": 0.7208,
      "duration": 0.0839,
      "velocity": 115,
      "chip": "ym2612"
    },
    {
      "channel": 0,
      "note": 47,
      "start": 0.8216,
      "duration": 0.2015,
      "velocity": 97,
      "chip": "ym2612"
    },
    {
      "channel": 1,
      "note": 69,
      "start": 0.8224,
      "duration": 0.2009,
      "velocity": 87,
      "chip": "ym2612"
    },
    {
      "channel": 2,
      "note": 84,
      "start": 0.8231,
      "duration": 0.0825,
      "velocity": 115,
      "chip": "ym2612"
    },
    {
      "channel": 3,
      "note": 69,
      "start": 0.8239,
      "duration": 0.2003,
      "velocity": 87,
      "chip": "ym2612"
    },
    {
      "channel": 5,
      "note": 38,
      "start": 0.8278,
      "duration": 0.3346,
      "velocity": 127,
      "chip": "ym2612"
    },
    {
      "channel": 2,
      "note": 83,
      "start": 0.9229,
      "duration": 0.0837,
      "velocity": 115,
      "chip": "ym2612"
    },
    {
      "channel": 2,
      "note": 87,
      "start": 1.024,
      "duration": 0.0835,
      "velocity": 115,
      "chip": "ym2612"
    },
    {
      "channel": 2,
      "note": 86,
      "start": 1.1248,
      "duration": 0.0837,
      "velocity": 115,
      "chip": "ym2612"
    },
    {
      "channel": 0,
      "note": 48,
      "start": 1.2254,
      "duration": 0.2014,
      "velocity": 97,
      "chip": "ym2612"
    },
    {
      "channel": 1,
      "note": 70,
      "start": 1.2261,
      "duration": 0.2009,
      "velocity": 87,
      "chip": "ym2612"
    },
    {
      "channel": 2,
      "note": 90,
      "start": 1.2268,
      "duration": 0.0825,
      "velocity": 115,
      "chip": "ym2612"
    },
    {
      "channel": 3,
      "note": 70,
      "start": 1.2276,
      "duration": 0.2003,
      "velocity": 87,
      "chip": "ym2612"
    },
    {
      "channel": 5,
      "note": 38,
      "start": 1.2315,
      "duration": 0.3346,
      "velocity": 127,
      "chip": "ym2612"
    },
    {
      "channel": 2,
      "note": 89,
      "start": 1.3266,
      "duration": 0.0836,
      "velocity": 115,
      "chip": "ym2612"
    },
    {
      "channel": 2,
      "note": 93,
      "start": 1.4278,
      "duration": 0.0834,
      "velocity": 115,
      "chip": "ym2612"
    },
    {
      "channel": 2,
      "note": 92,
      "start": 1.5285,
      "duration": 0.0836,
      "velocity": 115,
      "chip": "ym2612"
    },
    {
      "channel": 0,
      "note": 47,
      "start": 1.629,
      "duration": 0.1005,
      "velocity": 97,
      "chip": "ym2612"
    },
    {
      "channel": 1,
      "note": 69,
      "start": 1.6298,
      "duration": 0.1,
      "velocity": 87,
      "chip": "ym2612"
    },
    {
      "channel": 2,
      "note": 96,
      "start": 1.6305,
      "duration": 0.0825,
      "velocity": 115,
      "chip": "ym2612"
    },
    {
      "channel": 3,
      "note": 69,
      "start": 1.6313,
      "duration": 0.0993,
      "velocity": 87,
      "chip": "ym2612"
    },
    {
      "channel": 5,
      "note": 67,
      "start": 1.6354,
      "duration": 0.1981,
      "velocity": 123,
      "chip": "ym2612"
    },
    {
      "channel": 2,
      "note": 95,
      "start": 1.7304,
      "duration": 0.0836,
      "velocity": 115,
      "chip": "ym2612"
    },
    {
      "channel": 0,
      "note": 48,
      "start": 1.8309,
      "duration": 0.1005,
      "velocity": 97,
      "chip": "ym2612"
    },
    {
      "channel": 1,
      "note": 70,
      "start": 1.8317,
      "duration": 0.1,
      "velocity": 87,
      "chip": "ym2612"
    },
    {
      "channel": 2,
      "note": 99,
      "start": 1.8324,
      "duration": 0.0825,
      "velocity": 115,
      "chip": "ym2612"
    },
    {
      "channel": 3,
      "note": 70,
      "start": 1.8332,
      "duration": 0.0993,
      "velocity": 87,
      "chip": "ym2612"
    },
    {
      "channel": 5,
      "note": 63,
      "start": 1.8371,
      "duration": 0.1984,
      "velocity": 118,
      "chip": "ym2612"
    },
    {
      "channel": 2,
      "note": 98,
      "start": 1.9323,
      "duration": 0.0836,
      "velocity": 115,
      "chip": "ym2612"
    },
    {
      "channel": 0,
      "note": 47,
      "start": 2.0327,
      "duration": 0.1005,
      "velocity": 97,
      "chip": "ym2612"
    },
    {
      "channel": 1,
      "note": 69,
      "start": 2.0335,
      "duration": 0.1,
      "velocity": 87,
      "chip": "ym2612"
    },
    {
      "channel": 2,
      "note": 102,
      "start": 2.0344,
      "duration": 0.0824,
      "velocity": 115,
      "chip": "ym2612"
    },
    {
      "channel": 3,
      "note": 69,
      "start": 2.0351,
      "duration": 0.0993,
      "velocity": 87,
      "chip": "ym2612"
    },
    {
      "channel": 5,
      "note": 67,
      "start": 2.0389,
      "duration": 0.1984,
      "velocity": 123,
      "chip": "ym2612"
    },
    {
      "channel": 2,
      "note": 101,
      "start": 2.1341,
      "duration": 0.0837,
      "velocity": 115,
      "chip": "ym2612"
    },
    {
      "channel": 0,
      "note": 48,
      "start": 2.2347,
      "duration": 0.1004,
      "velocity": 97,
      "chip": "ym2612"
    },
    {
      "channel": 1,
      "note": 70,
      "start": 2.2355,
      "duration": 0.0998,
      "velocity": 87,
      "chip": "ym2612"
    },
    {
      "channel": 2,
      "note": 105,
      "start": 2.2363,
      "duration": 0.0824,
      "velocity": 115,
      "chip": "ym2612"
    },
    {
      "channel": 3,
      "note": 70,
      "start": 2.237,
      "duration": 0.0992,
      "velocity": 87,
      "chip": "ym2612"
    },
    {
      "channel": 5,
      "note": 63,
      "start": 2.2408,
      "duration": 0.1983,
      "velocity": 118,
      "chip": "ym2612"
    },
    {
      "channel": 2,
      "note": 104,
      "start": 2.336,
      "duration": 0.0835,
      "velocity": 115,
      "chip": "ym2612"
    },
    {
      "channel": 0,
      "note": 47,
      "start": 2.4364,
      "duration": 0.1005,
      "velocity": 97,
      "chip": "ym2612"
    },
    {
      "channel": 1,
      "note": 69,
      "start": 2.4372,
      "duration": 0.1,
      "velocity": 87,
      "chip": "ym2612"
    },
    {
      "channel": 2,
      "note": 108,
      "start": 2.438,
      "duration": 0.0824,
      "velocity": 115,
      "chip": "ym2612"
    },
    {
      "channel": 3,
      "note": 69,
      "start": 2.4388,
      "duration": 0.0992,
      "velocity": 87,
      "chip": "ym2612"
    },
    {
      "channel": 5,
      "note": 67,
      "start": 2.4426,
      "duration": 0.1982,
      "velocity": 123,
      "chip": "ym2612"
    },
    {
      "channel": 2,
      "note": 107,
      "start": 2.5378,
      "duration": 0.0835,
      "velocity": 115,
      "chip": "ym2612"
    },
    {
      "channel": 0,
      "note": 48,
      "start": 2.6383,
      "duration": 0.1005,
      "velocity": 97,
      "chip": "ym2612"
    },
    {
      "channel": 1,
      "note": 70,
      "start": 2.639,
      "duration": 0.1,
      "velocity": 87,
      "chip": "ym2612"
    },
    {
      "channel": 2,
      "note": 111,
      "start": 2.6398,
      "duration": 0.0825,
      "velocity": 115,
      "chip": "ym2612"
    },
    {
      "channel": 3,
      "note": 70,
      "start": 2.6405,
      "duration": 0.0993,
      "velocity": 87,
      "chip": "ym2612"
    },
    {
      "channel": 5,
      "note": 63,
      "start": 2.6445,
      "duration": 0.1985,
      "velocity": 118,
      "chip": "ym2612"
    },
    {
      "channel": 2,
      "note": 110,
      "start": 2.7397,
      "duration": 0.0836,
      "velocity": 115,
      "chip": "ym2612"
    },
    {
      "channel": 0,
      "note": 47,
      "start": 2.8405,
      "duration": 0.1005,
      "velocity": 97,
      "chip": "ym2612"
    },
    {
      "channel": 1,
      "note": 69,
      "start": 2.8412,
      "duration": 0.1,
      "velocity": 87,
      "chip": "ym2612"
    },
    {
      "channel": 2,
      "note": 114,
      "start": 2.8419,
      "duration": 0.0825,
      "velocity": 115,
      "chip": "ym2612"
    },
    {
      "channel": 3,
      "note": 69,
      "start": 2.8427,
      "duration": 0.0993,
      "velocity": 87,
      "chip": "ym2612"
    },
    {
      "channel": 5,
      "note": 67,
      "start": 2.8466,
      "duration": 0.1983,
      "velocity": 123,
      "chip": "ym2612"
    },
    {
      "channel": 2,
      "note": 113,
      "start": 2.9418,
      "duration": 0.0836,
      "velocity": 115,
      "chip": "ym2612"
    },
    {
      "channel": 0,
      "note": 48,
      "start": 3.0423,
      "duration": 0.1005,
      "velocity": 97,
      "chip": "ym2612"
    },
    {
      "channel": 1,
      "note": 70,
      "start": 3.043,
      "duration": 0.1,
      "velocity": 87,
      "chip": "ym2612"
    },
    {
      "channel": 2,
      "note": 116,
      "start": 3.0438,
      "duration": 0.0825,
      "velocity": 115,
      "chip": "ym2612"
    },
    {
      "channel": 3,
      "note": 70,
      "start": 3.0446,
      "duration": 0.0997,
      "velocity": 87,
      "chip": "ym2612"
    },
    {
      "channel": 5,
      "note": 63,
      "start": 3.0485,
      "duration": 0.2022,
      "velocity": 118,
      "chip": "ym2612"
    },
    {
      "channel": 2,
      "note": 116,
      "start": 3.1442,
      "duration": 0.0073,
      "velocity": 115,
      "chip": "ym2612"
    },
    {
      "channel": 2,
      "note": 115,
      "start": 3.1941,
      "duration": 0.0078,
      "velocity": 115,
      "chip": "ym2612"
    },
    {
      "channel": 0,
      "note": 63,
      "start": 3.2447,
      "duration": 0.7598,
      "velocity": 97,
      "chip": "ym2612"
    },
    {
      "channel": 1,
      "note": 88,
      "start": 3.2472,
      "duration": 0.7576,
      "velocity": 108,
      "chip": "ym2612"
    },
    {
      "channel": 2,
      "note": 113,
      "start": 3.2478,
      "duration": 0.0082,
      "velocity": 115,
      "chip": "ym2612"
    },
    {
      "channel": 3,
      "note": 83,
      "start": 3.2504,
      "duration": 0.7552,
      "velocity": 108,
      "chip": "ym2612"
    },
    {
      "channel": 5,
      "note": 38,
      "start": 3.2537,
      "duration": 0.3348,
      "velocity": 127,
      "chip": "ym2612"
    },
    {
      "channel": 2,
      "note": 111,
      "start": 3.2983,
      "duration": 0.0078,
      "velocity": 115,
      "chip": "ym2612"
    },
    {
      "channel": 2,
      "note": 110,
      "start": 3.3488,
      "duration": 0.0078,
      "velocity": 115,
      "chip": "ym2612"
    },
    {
      "channel": 2,
      "note": 108,
      "start": 3.3993,
      "duration": 0.0078,
      "velocity": 115,
      "chip": "ym2612"
    },
    {
      "channel": 2,
      "note": 106,
      "start": 3.45,
      "duration": 0.0078,
      "velocity": 115,
      "chip": "ym2612"
    },
    {
      "channel": 2,
      "note": 104,
      "start": 3.5005,
      "duration": 0.0078,
      "velocity": 115,
      "chip": "ym2612"
    },
    {
      "channel": 2,
      "note": 103,
      "start": 3.5509,
      "duration": 0.0078,
      "velocity": 115,
      "chip": "ym2612"
    },
    {
      "channel": 2,
      "note": 101,
      "start": 3.6014,
      "duration": 0.0079,
      "velocity": 115,
      "chip": "ym2612"
    },
    {
      "channel": 2,
      "note": 99,
      "start": 3.6519,
      "duration": 0.0078,
      "velocity": 115,
      "chip": "ym2612"
    },
    {
      "channel": 5,
      "note": 38,
      "start": 3.6572,
      "duration": 0.3353,
      "velocity": 127,
      "chip": "ym2612"
    },
    {
      "channel": 2,
      "note": 98,
      "start": 3.7023,
      "duration": 0.0078,
      "velocity": 115,
      "chip": "ym2612"
    },
    {
      "channel": 2,
      "note": 96,
      "start": 3.7528,
      "duration": 0.0079,
      "velocity": 115,
      "chip": "ym2612"
    },
    {
      "channel": 2,
      "note": 94,
      "start": 3.8034,
      "duration": 0.0077,
      "velocity": 115,
      "chip": "ym2612"
    },
    {
      "channel": 2,
      "note": 92,
      "start": 3.8539,
      "duration": 0.0076,
      "velocity": 115,
      "chip": "ym2612"
    },
    {
      "channel": 2,
      "note": 91,
      "start": 3.9044,
      "duration": 0.0076,
      "velocity": 115,
      "chip": "ym2612"
    },
    {
      "channel": 2,
      "note": 89,
      "start": 3.9549,
      "duration": 0.0079,
      "velocity": 115,
      "chip": "ym2612"
    },
    {
      "channel": 2,
      "note": 87,
      "start": 4.0054,
      "duration": 0.0078,
      "velocity": 115,
      "chip": "ym2612"
    },
    {
      "channel": 0,
      "note": 62,
      "start": 4.0556,
      "duration": 1.5139,
      "velocity": 97,
      "chip": "ym2612"
    },
    {
      "channel": 1,
      "note": 89,
      "start": 4.0566,
      "duration": 1.5132,
      "velocity": 108,
      "chip": "ym2612"
    },
    {
      "channel": 2,
      "note": 86,
      "start": 4.0572,
      "duration": 0.0068,
      "velocity": 115,
      "chip": "ym2612"
    },
    {
      "channel": 3,
      "note": 82,
      "start": 4.0581,
      "duration": 1.5119,
      "velocity": 108,
      "chip": "ym2612"
    },
    {
      "channel": 5,
      "note": 38,
      "start": 4.0617,
      "duration": 0.3345,
      "velocity": 127,
      "chip": "ym2612"
    },
    {
      "channel": 2,
      "note": 84,
      "start": 4.1063,
      "duration": 0.0078,
      "velocity": 115,
      "chip": "ym2612"
    },
    {
      "channel": 2,
      "note": 82,
      "start": 4.1568,
      "duration": 0.0078,
      "velocity": 115,
      "chip": "ym2612"
    },
    {
      "channel": 2,
      "note": 80,
      "start": 4.2073,
      "duration": 0.0078,
      "velocity": 115,
      "chip": "ym2612"
    },
    {
      "channel": 2,
      "note": 79,
      "start": 4.2577,
      "duration": 0.0079,
      "velocity": 115,
      "chip": "ym2612"
    },
    {
      "channel": 2,
      "note": 77,
      "start": 4.3081,
      "duration": 0.0079,
      "velocity": 115,
      "chip": "ym2612"
    },
    {
      "channel": 2,
      "note": 75,
      "start": 4.3586,
      "duration": 0.0079,
      "velocity": 115,
      "chip": "ym2612"
    },
    {
      "channel": 2,
      "note": 74,
      "start": 4.4091,
      "duration": 0.0079,
      "velocity": 115,
      "chip": "ym2612"
    },
    {
      "channel": 2,
      "note": 72,
      "start": 4.4598,
      "duration": 0.0079,
      "velocity": 115,
      "chip": "ym2612"
    },
    {
      "channel": 5,
      "note": 38,
      "start": 4.4651,
      "duration": 0.3351,
      "velocity": 127,
      "chip": "ym2612"
    },
    {
      "channel": 2,
      "note": 70,
      "start": 4.5103,
      "duration": 0.0079,
      "velocity": 115,
      "chip": "ym2612"
    },
    {
      "channel": 2,
      "note": 68,
      "start": 4.5608,
      "duration": 0.0078,
      "velocity": 115,
      "chip": "ym2612"
    },
    {
      "channel": 2,
      "note": 67,
      "start": 4.6113,
      "duration": 0.0078,
      "velocity": 115,
      "chip": "ym2612"
    },
    {
      "channel": 2,
      "note": 65,
      "start": 4.6617,
      "duration": 0.0079,
      "velocity": 115,
      "chip": "ym2612"
    },
    {
      "channel": 2,
      "note": 63,
      "start": 4.7121,
      "duration": 0.0079,
      "velocity": 115,
      "chip": "ym2612"
    },
    {
      "channel": 2,
      "note": 62,
      "start": 4.7626,
      "duration": 0.0079,
      "velocity": 115,
      "chip": "ym2612"
    },
    {
      "channel": 2,
      "note": 60,
      "start": 4.813,
      "duration": 0.0079,
      "velocity": 115,
      "chip": "ym2612"
    },
    {
      "channel": 2,
      "note": 58,
      "start": 4.8635,
      "duration": 0.0081,
      "velocity": 115,
      "chip": "ym2612"
    },
    {
      "channel": 5,
      "note": 67,
      "start": 4.8688,
      "duration": 0.1973,
      "velocity": 123,
      "chip": "ym2612"
    },
    {
      "channel": 2,
      "note": 56,
      "start": 4.9143,
      "duration": 0.0079,
      "velocity": 115,
      "chip": "ym2612"
    },
    {
      "channel": 2,
      "note": 55,
      "start": 4.9647,
      "duration": 0.0079,
      "velocity": 115,
      "chip": "ym2612"
    },
    {
      "channel": 2,
      "note": 53,
      "start": 5.0152,
      "duration": 0.0079,
      "velocity": 115,
      "chip": "ym2612"
    },
    {
      "channel": 2,
      "note": 51,
      "start": 5.0656,
      "duration": 0.0079,
      "velocity": 115,
      "chip": "ym2612"
    },
    {
      "channel": 5,
      "note": 67,
      "start": 5.071,
      "duration": 0.1971,
      "velocity": 127,
      "chip": "ym2612"
    },
    {
      "channel": 2,
      "note": 50,
      "start": 5.1164,
      "duration": 0.0076,
      "velocity": 115,
      "chip": "ym2612"
    },
    {
      "channel": 2,
      "note": 48,
      "start": 5.1666,
      "duration": 0.0079,
      "velocity": 115,
      "chip": "ym2612"
    },
    {
      "channel": 2,
      "note": 46,
      "start": 5.2171,
      "duration": 0.0078,
      "velocity": 115,
      "chip": "ym2612"
    },
    {
      "channel": 2,
      "note": 44,
      "start": 5.2676,
      "duration": 0.0078,
      "velocity": 115,
      "chip": "ym2612"
    },
    {
      "channel": 5,
      "note": 60,
      "start": 5.273,
      "duration": 0.1969,
      "velocity": 127,
      "chip": "ym2612"
    },
    {
      "channel": 2,
      "note": 43,
      "start": 5.318,
      "duration": 0.0078,
      "velocity": 115,
      "chip": "ym2612"
    },
    {
      "channel": 2,
      "note": 41,
      "start": 5.3684,
      "duration": 0.0079,
      "velocity": 115,
      "chip": "ym2612"
    },
    {
      "channel": 2,
      "note": 39,
      "start": 5.419,
      "duration": 0.0078,
      "velocity": 115,
      "chip": "ym2612"
    },
    {
      "channel": 2,
      "note": 38,
      "start": 5.4694,
      "duration": 0.0079,
      "velocity": 115,
      "chip": "ym2612"
    },
    {
      "channel": 5,
      "note": 55,
      "start": 5.4747,
      "duration": 0.2055,
      "velocity": 127,
      "chip": "ym2612"
    },
    {
      "channel": 0,
      "note": 63,
      "start": 5.6726,
      "duration": 0.2057,
      "velocity": 82,
      "chip": "ym2612"
    },
    {
      "channel": 1,
      "note": 76,
      "start": 5.6742,
      "duration": 0.0697,
      "velocity": 108,
      "chip": "ym2612"
    },
    {
      "channel": 2,
      "note": 73,
      "start": 5.6767,
      "duration": 0.0841,
      "velocity": 108,
      "chip": "ym2612"
    },
    {
      "channel": 3,
      "note": 90,
      "start": 5.6797,
      "duration": 0.031,
      "velocity": 115,
      "chip": "ym2612"
    },
    {
      "channel": 5,
      "note": 38,
      "start": 5.6832,
      "duration": 0.1985,
      "velocity": 127,
      "chip": "ym2612"
    },
    {
      "channel": 1,
      "note": 76,
      "start": 5.7785,
      "duration": 0.0664,
      "velocity": 108,
      "chip": "ym2612"
    },
    {
      "channel": 2,
      "note": 73,
      "start": 5.7795,
      "duration": 0.0823,
      "velocity": 108,
      "chip": "ym2612"
    },
    {
      "channel": 3,
      "note": 86,
      "start": 5.7803,
      "duration": 0.0312,
      "velocity": 115,
      "chip": "ym2612"
    },
    {
      "channel": 1,
      "note": 80,
      "start": 5.8794,
      "duration": 0.0663,
      "velocity": 108,
      "chip": "ym2612"
    },
    {
      "channel": 2,
      "note": 73,
      "start": 5.8805,
      "duration": 0.0823,
      "velocity": 108,
      "chip": "ym2612"
    },
    {
      "channel": 3,
      "note": 90,
      "start": 5.8814,
      "duration": 0.0311,
      "velocity": 115,
      "chip": "ym2612"
    },
    {
      "channel": 5,
      "note": 105,
      "start": 5.8853,
      "duration": 0.1986,
      "velocity": 127,
      "chip": "ym2612"
    },
    {
      "channel": 1,
      "note": 80,
      "start": 5.9803,
      "duration": 0.0664,
      "velocity": 108,
      "chip": "ym2612"
    },
    {
      "channel": 2,
      "note": 73,
      "start": 5.9814,
      "duration": 0.0823,
      "velocity": 108,
      "chip": "ym2612"
    },
    {
      "channel": 3,
      "note": 93,
      "start": 5.9822,
      "duration": 0.0312,
      "velocity": 115,
      "chip": "ym2612"
    },
    {
      "channel": 0,
      "note": 58,
      "start": 6.0806,
      "duration": 0.2014,
      "velocity": 82,
      "chip": "ym2612"
    },
    {
      "channel": 1,
      "note": 80,
      "start": 6.0816,
      "duration": 0.066,
      "velocity": 108,
      "chip": "ym2612"
    },
    {
      "channel": 2,
      "note": 73,
      "start": 6.0826,
      "duration": 0.082,
      "velocity": 108,
      "chip": "ym2612"
    },
    {
      "channel": 3,
      "note": 93,
      "start": 6.0835,
      "duration": 0.0308,
      "velocity": 115,
      "chip": "ym2612"
    },
    {
      "channel": 5,
      "note": 67,
      "start": 6.0871,
      "duration": 0.1977,
      "velocity": 123,
      "chip": "ym2612"
    },
    {
      "channel": 1,
      "note": 76,
      "start": 6.1819,
      "duration": 0.0666,
      "velocity": 108,
      "chip": "ym2612"
    },
    {
      "channel": 2,
      "note": 73,
      "start": 6.1827,
      "duration": 0.0829,
      "velocity": 108,
      "chip": "ym2612"
    },
    {
      "channel": 3,
      "note": 90,
      "start": 6.1835,
      "duration": 0.0317,
      "velocity": 115,
      "chip": "ym2612"
    },
    {
      "channel": 1,
      "note": 71,
      "start": 6.2828,
      "duration": 0.0666,
      "velocity": 108,
      "chip": "ym2612"
    },
    {
      "channel": 2,
      "note": 68,
      "start": 6.2836,
      "duration": 0.0829,
      "velocity": 108,
      "chip": "ym2612"
    },
    {
      "channel": 3,
      "note": 86,
      "start": 6.2845,
      "duration": 0.0317,
      "velocity": 115,
      "chip": "ym2612"
    },
    {
      "channel": 5,
      "note": 105,
      "start": 6.2889,
      "duration": 0.1985,
      "velocity": 127,
      "chip": "ym2612"
    },
    {
      "channel": 1,
      "note": 71,
      "start": 6.384,
      "duration": 0.0664,
      "velocity": 108,
      "chip": "ym2612"
    },
    {
      "channel": 2,
      "note": 68,
      "start": 6.3851,
      "duration": 0.0823,
      "velocity": 108,
      "chip": "ym2612"
    },
    {
      "channel": 0,
      "note": 65,
      "start": 6.4843,
      "duration": 0.2014,
      "velocity": 82,
      "chip": "ym2612"
    },
    {
      "channel": 1,
      "note": 74,
      "start": 6.4853,
      "duration": 0.066,
      "velocity": 108,
      "chip": "ym2612"
    },
    {
      "channel": 2,
      "note": 72,
      "start": 6.4863,
      "duration": 0.082,
      "velocity": 108,
      "chip": "ym2612"
    },
    {
      "channel": 3,
      "note": 88,
      "start": 6.4871,
      "duration": 0.0309,
      "velocity": 115,
      "chip": "ym2612"
    },
    {
      "channel": 5,
      "note": 38,
      "start": 6.4909,
      "duration": 0.1981,
      "velocity": 127,
      "chip": "ym2612"
    },
    {
      "channel": 1,
      "note": 74,
      "start": 6.5859,
      "duration": 0.0664,
      "velocity": 108,
      "chip": "ym2612"
    },
    {
      "channel": 2,
      "note": 72,
      "start": 6.5869,
      "duration": 0.0823,
      "velocity": 108,
      "chip": "ym2612"
    },
    {
      "channel": 3,
      "note": 81,
      "start": 6.5878,
      "duration": 0.0312,
      "velocity": 115,
      "chip": "ym2612"
    },
    {
      "channel": 1,
      "note": 77,
      "start": 6.6868,
      "duration": 0.0663,
      "velocity": 108,
      "chip": "ym2612"
    },
    {
      "channel": 2,
      "note": 72,
      "start": 6.6878,
      "duration": 0.0826,
      "velocity": 108,
      "chip": "ym2612"
    },
    {
      "channel": 3,
      "note": 88,
      "start": 6.6886,
      "duration": 0.0312,
      "velocity": 115,
      "chip": "ym2612"
    },
    {
      "channel": 5,
      "note": 105,
      "start": 6.6929,
      "duration": 0.1988,
      "velocity": 127,
      "chip": "ym2612"
    },
    {
      "channel": 1,
      "note": 77,
      "start": 6.788,
      "duration": 0.0664,
      "velocity": 108,
      "chip": "ym2612"
    },
    {
      "channel": 2,
      "note": 72,
      "start": 6.7891,
      "duration": 0.0823,
      "velocity": 108,
      "chip": "ym2612"
    },
    {
      "channel": 3,
      "note": 91,
      "start": 6.79,
      "duration": 0.0311,
      "velocity": 115,
      "chip": "ym2612"
    },
    {
      "channel": 0,
      "note": 58,
      "start": 6.8883,
      "duration": 0.2015,
      "velocity": 82,
      "chip": "ym2612"
    },
    {
      "channel": 1,
      "note": 77,
      "start": 6.8893,
      "duration": 0.066,
      "velocity": 108,
      "chip": "ym2612"
    },
    {
      "channel": 2,
      "note": 72,
      "start": 6.8904,
      "duration": 0.0819,
      "velocity": 108,
      "chip": "ym2612"
    },
    {
      "channel": 3,
      "note": 91,
      "start": 6.8914,
      "duration": 0.0307,
      "velocity": 115,
      "chip": "ym2612"
    },
    {
      "channel": 5,
      "note": 67,
      "start": 6.8948,
      "duration": 0.1978,
      "velocity": 123,
      "chip": "ym2612"
    },
    {
      "channel": 1,
      "note": 74,
      "start": 6.9896,
      "duration": 0.0667,
      "velocity": 108,
      "chip": "ym2612"
    },
    {
      "channel": 2,
      "note": 72,
      "start": 6.9903,
      "duration": 0.0829,
      "velocity": 108,
      "chip": "ym2612"
    },
    {
      "channel": 3,
      "note": 88,
      "start": 6.9915,
      "duration": 0.0315,
      "velocity": 115,
      "chip": "ym2612"
    },
    {
      "channel": 1,
      "note": 70,
      "start": 7.0905,
      "duration": 0.0666,
      "velocity": 108,
      "chip": "ym2612"
    },
    {
      "channel": 2,
      "note": 68,
      "start": 7.0915,
      "duration": 0.0829,
      "velocity": 108,
      "chip": "ym2612"
    },
    {
      "channel": 3,
      "note": 85,
      "start": 7.0923,
      "duration": 0.0316,
      "velocity": 115,
      "chip": "ym2612"
    },
    {
      "channel": 5,
      "note": 105,
      "start": 7.0966,
      "duration": 0.1989,
      "velocity": 127,
      "chip": "ym2612"
    },
    {
      "channel": 1,
      "note": 70,
      "start": 7.1919,
      "duration": 0.0665,
      "velocity": 108,
      "chip": "ym2612"
    },
    {
      "channel": 2,
      "note": 68,
      "start": 7.1929,
      "duration": 0.0824,
      "velocity": 108,
      "chip": "ym2612"
    },
    {
      "channel": 0,
      "note": 63,
      "start": 7.2923,
      "duration": 0.2014,
      "velocity": 82,
      "chip": "ym2612"
    },
    {
      "channel": 1,
      "note": 71,
      "start": 7.2933,
      "duration": 0.066,
      "velocity": 108,
      "chip": "ym2612"
    },
    {
      "channel": 2,
      "note": 68,
      "start": 7.2943,
      "duration": 0.082,
      "velocity": 108,
      "chip": "ym2612"
    },
    {
      "channel": 3,
      "note": 78,
      "start": 7.2953,
      "duration": 0.0308,
      "velocity": 115,
      "chip": "ym2612"
    },
    {
      "channel": 5,
      "note": 38,
      "start": 7.2987,
      "duration": 0.1978,
      "velocity": 127,
      "chip": "ym2612"
    },
    {
      "channel": 1,
      "note": 74,
      "start": 7.3936,
      "duration": 0.0667,
      "velocity": 108,
      "chip": "ym2612"
    },
    {
      "channel": 2,
      "note": 72,
      "start": 7.3943,
      "duration": 0.0829,
      "velocity": 108,
      "chip": "ym2612"
    },
    {
      "channel": 3,
      "note": 81,
      "start": 7.3952,
      "duration": 0.0318,
      "velocity": 115,
      "chip": "ym2612"
    },
    {
      "channel": 1,
      "note": 76,
      "start": 7.4945,
      "duration": 0.0666,
      "velocity": 108,
      "chip": "ym2612"
    },
    {
      "channel": 2,
      "note": 73,
      "start": 7.4953,
      "duration": 0.0829,
      "velocity": 108,
      "chip": "ym2612"
    },
    {
      "channel": 3,
      "note": 83,
      "start": 7.4962,
      "duration": 0.0317,
      "velocity": 115,
      "chip": "ym2612"
    },
    {
      "channel": 5,
      "note": 105,
      "start": 7.5007,
      "duration": 0.1981,
      "velocity": 127,
      "chip": "ym2612"
    },
    {
      "channel": 1,
      "note": 77,
      "start": 7.5954,
      "duration": 0.0666,
      "velocity": 108,
      "chip": "ym2612"
    },
    {
      "channel": 2,
      "note": 75,
      "start": 7.5962,
      "duration": 0.0829,
      "velocity": 108,
      "chip": "ym2612"
    },
    {
      "channel": 3,
      "note": 85,
      "start": 7.597,
      "duration": 0.0318,
      "velocity": 115,
      "chip": "ym2612"
    },
    {
      "channel": 0,
      "note": 58,
      "start": 7.696,
      "duration": 0.2017,
      "velocity": 82,
      "chip": "ym2612"
    },
    {
      "channel": 1,
      "note": 80,
      "start": 7.6968,
      "duration": 0.0665,
      "velocity": 108,
      "chip": "ym2612"
    },
    {
      "channel": 2,
      "note": 78,
      "start": 7.6976,
      "duration": 0.0827,
      "velocity": 108,
      "chip": "ym2612"
    },
    {
      "channel": 3,
      "note": 86,
      "start": 7.6985,
      "duration": 0.0312,
      "velocity": 115,
      "chip": "ym2612"
    },
    {
      "channel": 5,
      "note": 67,
      "start": 7.7025,
      "duration": 0.1983,
      "velocity": 123,
      "chip": "ym2612"
    },
    {
      "channel": 1,
      "note": 80,
      "start": 7.7979,
      "duration": 0.0664,
      "velocity": 108,
      "chip": "ym2612"
    },
    {
      "channel": 1,
      "note": 65,
      "start": 7.8988,
      "duration": 0.0663,
      "velocity": 108,
      "chip": "ym2612"
    },
    {
      "channel": 2,
      "note": 64,
      "start": 7.8996,
      "duration": 0.0825,
      "velocity": 108,
      "chip": "ym2612"
    },
    {
      "channel": 3,
      "note": 78,
      "start": 7.9005,
      "duration": 0.0314,
      "velocity": 115,
      "chip": "ym2612"
    },
    {
      "channel": 5,
      "note": 105,
      "start": 7.9046,
      "duration": 0.1987,
      "velocity": 127,
      "chip": "ym2612"
    },
    {
      "channel": 1,
      "note": 65,
      "start": 7.9997,
      "duration": 0.0664,
      "velocity": 108,
      "chip": "ym2612"
    },
    {
      "channel": 2,
      "note": 64,
      "start": 8.0007,
      "duration": 0.0823,
      "velocity": 108,
      "chip": "ym2612"
    },
    {
      "channel": 0,
      "note": 63,
      "start": 8.1,
      "duration": 0.2017,
      "velocity": 82,
      "chip": "ym2612"
    },
    {
      "channel": 1,
      "note": 76,
      "start": 8.101,
      "duration": 0.066,
      "velocity": 108,
      "chip": "ym2612"
    },
    {
      "channel": 2,
      "note": 73,
      "start": 8.1021,
      "duration": 0.0819,
      "velocity": 108,
      "chip": "ym2612"
    },
    {
      "channel": 3,
      "note": 90,
      "start": 8.1031,
      "duration": 0.0307,
      "velocity": 115,
      "chip": "ym2612"
    },
    {
      "channel": 5,
      "note": 38,
      "start": 8.1065,
      "duration": 0.1986,
      "velocity": 127,
      "chip": "ym2612"
    },
    {
      "channel": 1,
      "note": 76,
      "start": 8.2016,
      "duration": 0.0667,
      "velocity": 108,
      "chip": "ym2612"
    },
    {
      "channel": 2,
      "note": 73,
      "start": 8.2026,
      "duration": 0.0826,
      "velocity": 108,
      "chip": "ym2612"
    },
    {
      "channel": 3,
      "note": 86,
      "start": 8.2034,
      "duration": 0.0315,
      "velocity": 115,
      "chip": "ym2612"
    },
    {
      "channel": 1,
      "note": 80,
      "start": 8.3029,
      "duration": 0.0663,
      "velocity": 108,
      "chip": "ym2612"
    },
    {
      "channel": 2,
      "note": 73,
      "start": 8.3039,
      "duration": 0.0823,
      "velocity": 108,
      "chip": "ym2612"
    },
    {
      "channel": 3,
      "note": 90,
      "start": 8.3048,
      "duration": 0.0311,
      "velocity": 115,
      "chip": "ym2612"
    },
    {
      "channel": 5,
      "note": 105,
      "start": 8.3087,
      "duration": 0.1986,
      "velocity": 127,
      "chip": "ym2612"
    },
    {
      "channel": 1,
      "note": 80,
      "start": 8.4037,
      "duration": 0.0663,
      "velocity": 108,
      "chip": "ym2612"
    },
    {
      "channel": 2,
      "note": 73,
      "start": 8.4048,
      "duration": 0.0823,
      "velocity": 108,
      "chip": "ym2612"
    },
    {
      "channel": 3,
      "note": 93,
      "start": 8.4056,
      "duration": 0.0312,
      "velocity": 115,
      "chip": "ym2612"
    },
    {
      "channel": 0,
      "note": 58,
      "start": 8.504,
      "duration": 0.2014,
      "velocity": 82,
      "chip": "ym2612"
    },
    {
      "channel": 1,
      "note": 80,
      "start": 8.505,
      "duration": 0.066,
      "velocity": 108,
      "chip": "ym2612"
    },
    {
      "channel": 2,
      "note": 73,
      "start": 8.5061,
      "duration": 0.082,
      "velocity": 108,
      "chip": "ym2612"
    },
    {
      "channel": 3,
      "note": 93,
      "start": 8.507,
      "duration": 0.0307,
      "velocity": 115,
      "chip": "ym2612"
    },
    {
      "channel": 5,
      "note": 67,
      "start": 8.5107,
      "duration": 0.1975,
      "velocity": 123,
      "chip": "ym2612"
    },
    {
      "channel": 1,
      "note": 76,
      "start": 8.6053,
      "duration": 0.0666,
      "velocity": 108,
      "chip": "ym2612"
    },
    {
      "channel": 2,
      "note": 73,
      "start": 8.6061,
      "duration": 0.0829,
      "velocity": 108,
      "chip": "ym2612"
    },
    {
      "channel": 3,
      "note": 90,
      "start": 8.6069,
      "duration": 0.0317,
      "velocity": 115,
      "chip": "ym2612"
    },
    {
      "channel": 1,
      "note": 71,
      "start": 8.7062,
      "duration": 0.0669,
      "velocity": 108,
      "chip": "ym2612"
    },
    {
      "channel": 2,
      "note": 68,
      "start": 8.707,
      "duration": 0.0832,
      "velocity": 108,
      "chip": "ym2612"
    },
    {
      "channel": 3,
      "note": 86,
      "start": 8.7079,
      "duration": 0.032,
      "velocity": 115,
      "chip": "ym2612"
    },
    {
      "channel": 5,
      "note": 105,
      "start": 8.7125,
      "duration": 0.1988,
      "velocity": 127,
      "chip": "ym2612"
    },
    {
      "channel": 1,
      "note": 71,
      "start": 8.8077,
      "duration": 0.0664,
      "velocity": 108,
      "chip": "ym2612"
    },
    {
      "channel": 2,
      "note": 68,
      "start": 8.8088,
      "duration": 0.0823,
      "velocity": 108,
      "chip": "ym2612"
    },
    {
      "channel": 0,
      "note": 65,
      "start": 8.908,
      "duration": 0.2014,
      "velocity": 82,
      "chip": "ym2612"
    },
    {
      "channel": 1,
      "note": 74,
      "start": 8.909,
      "duration": 0.066,
      "velocity": 108,
      "chip": "ym2612"
    },
    {
      "channel": 2,
      "note": 72,
      "start": 8.9102,
      "duration": 0.0818,
      "velocity": 108,
      "chip": "ym2612"
    },
    {
      "channel": 3,
      "note": 88,
      "start": 8.911,
      "duration": 0.0307,
      "velocity": 115,
      "chip": "ym2612"
    },
    {
      "channel": 5,
      "note": 67,
      "start": 8.9145,
      "duration": 0.1984,
      "velocity": 123,
      "chip": "ym2612"
    },
    {
      "channel": 1,
      "note": 74,
      "start": 9.0096,
      "duration": 0.0664,
      "velocity": 108,
      "chip": "ym2612"
    },
    {
      "channel": 2,
      "note": 72,
      "start": 9.0108,
      "duration": 0.0821,
      "velocity": 108,
      "chip": "ym2612"
    },
    {
      "channel": 3,
      "note": 81,
      "start": 9.0117,
      "duration": 0.031,
      "velocity": 115,
      "chip": "ym2612"
    },
    {
      "channel": 1,
      "note": 77,
      "start": 9.1107,
      "duration": 0.0663,
      "velocity": 108,
      "chip": "ym2612"
    },
    {
      "channel": 2,
      "note": 72,
      "start": 9.1117,
      "duration": 0.0823,
      "velocity": 108,
      "chip": "ym2612"
    },
    {
      "channel": 3,
      "note": 88,
      "start": 9.1125,
      "duration": 0.0312,
      "velocity": 115,
      "chip": "ym2612"
    },
    {
      "channel": 5,
      "note": 105,
      "start": 9.1164,
      "duration": 0.1988,
      "velocity": 127,
      "chip": "ym2612"
    },
    {
      "channel": 1,
      "note": 77,
      "start": 9.2116,
      "duration": 0.0665,
      "velocity": 108,
      "chip": "ym2612"
    },
    {
      "channel": 2,
      "note": 72,
      "start": 9.2127,
      "duration": 0.0824,
      "velocity": 108,
      "chip": "ym2612"
    },
    {
      "channel": 3,
      "note": 91,
      "start": 9.2136,
      "duration": 0.0312,
      "velocity": 115,
      "chip": "ym2612"
    },
    {
      "channel": 0,
      "note": 58,
      "start": 9.312,
      "duration": 0.2014,
      "velocity": 82,
      "chip": "ym2612"
    },
    {
      "channel": 1,
      "note": 77,
      "start": 9.313,
      "duration": 0.066,
      "velocity": 108,
      "chip": "ym2612"
    },
    {
      "channel": 2,
      "note": 72,
      "start": 9.3141,
      "duration": 0.082,
      "velocity": 108,
      "chip": "ym2612"
    },
    {
      "channel": 3,
      "note": 91,
      "start": 9.3149,
      "duration": 0.0309,
      "velocity": 115,
      "chip": "ym2612"
    },
    {
      "channel": 5,
      "note": 67,
      "start": 9.3185,
      "duration": 0.1976,
      "velocity": 123,
      "chip": "ym2612"
    },
    {
      "channel": 1,
      "note": 74,
      "start": 9.4133,
      "duration": 0.0667,
      "velocity": 108,
      "chip": "ym2612"
    },
    {
      "channel": 2,
      "note": 72,
      "start": 9.414,
      "duration": 0.0829,
      "velocity": 108,
      "chip": "ym2612"
    },
    {
      "channel": 3,
      "note": 88,
      "start": 9.4149,
      "duration": 0.0317,
      "velocity": 115,
      "chip": "ym2612"
    },
    {
      "channel": 1,
      "note": 70,
      "start": 9.5142,
      "duration": 0.0666,
      "velocity": 108,
      "chip": "ym2612"
    },
    {
      "channel": 2,
      "note": 68,
      "start": 9.515,
      "duration": 0.0829,
      "velocity": 108,
      "chip": "ym2612"
    },
    {
      "channel": 3,
      "note": 85,
      "start": 9.5158,
      "duration": 0.0486,
      "velocity": 115,
      "chip": "ym2612"
    },
    {
      "channel": 5,
      "note": 105,
      "start": 9.5204,
      "duration": 0.1991,
      "velocity": 127,
      "chip": "ym2612"
    },
    {
      "channel": 1,
      "note": 70,
      "start": 9.6154,
      "duration": 0.0664,
      "velocity": 108,
      "chip": "ym2612"
    },
    {
      "channel": 2,
      "note": 68,
      "start": 9.6165,
      "duration": 0.0826,
      "velocity": 108,
      "chip": "ym2612"
    },
    {
      "channel": 0,
      "note": 63,
      "start": 9.716,
      "duration": 0.2015,
      "velocity": 82,
      "chip": "ym2612"
    },
    {
      "channel": 1,
      "note": 71,
      "start": 9.7171,
      "duration": 0.0659,
      "velocity": 108,
      "chip": "ym2612"
    },
    {
      "channel": 2,
      "note": 68,
      "start": 9.7182,
      "duration": 0.0818,
      "velocity": 108,
      "chip": "ym2612"
    },
    {
      "channel": 3,
      "note": 78,
      "start": 9.7192,
      "duration": 0.0305,
      "velocity": 115,
      "chip": "ym2612"
    },
    {
      "channel": 5,
      "note": 67,
      "start": 9.7226,
      "duration": 0.1977,
      "velocity": 123,
      "chip": "ym2612"
    },
    {
      "channel": 1,
      "note": 74,
      "start": 9.8173,
      "duration": 0.0667,
      "velocity": 108,
      "chip": "ym2612"
    },
    {
      "channel": 2,
      "note": 72,
      "start": 9.818,
      "duration": 0.0829,
      "velocity": 108,
      "chip": "ym2612"
    },
    {
      "channel": 3,
      "note": 81,
      "start": 9.8189,
      "duration": 0.0318,
      "velocity": 115,
      "chip": "ym2612"
    },
    {
      "channel": 1,
      "note": 76,
      "start": 9.9182,
      "duration": 0.0666,
      "velocity": 108,
      "chip": "ym2612"
    },
    {
      "channel": 2,
      "note": 73,
      "start": 9.919,
      "duration": 0.0829,
      "velocity": 108,
      "chip": "ym2612"
    },
    {
      "channel": 3,
      "note": 83,
      "start": 9.9199,
      "duration": 0.0317,
      "velocity": 115,
      "chip": "ym2612"
    },
    {
      "channel": 5,
      "note": 67,
      "start": 9.9243,
      "duration": 0.3978,
      "velocity": 123,
      "chip": "ym2612"
    },
    {
      "channel": 1,
      "note": 77,
      "start": 10.0191,
      "duration": 0.0667,
      "velocity": 108,
      "chip": "ym2612"
    },
    {
      "channel": 2,
      "note": 75,
      "start": 10.0199,
      "duration": 0.0829,
      "velocity": 108,
      "chip": "ym2612"
    },
    {
      "channel": 3,
      "note": 85,
      "start": 10.0207,
      "duration": 0.0318,
      "velocity": 115,
      "chip": "ym2612"
    },
    {
      "channel": 1,
      "note": 80,
      "start": 10.1203,
      "duration": 0.0664,
      "velocity": 108,
      "chip": "ym2612"
    },
    {
      "channel": 2,
      "note": 78,
      "start": 10.121,
      "duration": 0.0829,
      "velocity": 108,
      "chip": "ym2612"
    },
    {
      "channel": 3,
      "note": 86,
      "start": 10.1219,
      "duration": 0.0314,
      "velocity": 115,
      "chip": "ym2612"
    },
    {
      "channel": 1,
      "note": 80,
      "start": 10.2215,
      "duration": 0.1841,
      "velocity": 108,
      "chip": "ym2612"
    },
    {
      "channel": 2,
      "note": 78,
      "start": 10.2226,
      "duration": 0.2168,
      "velocity": 108,
      "chip": "ym2612"
    },
    {
      "channel": 5,
      "note": 70,
      "start": 10.3274,
      "duration": 0.2003,
      "velocity": 118,
      "chip": "ym2612"
    },
    {
      "channel": 0,
      "note": 63,
      "start": 10.5238,
      "duration": 0.2019,
      "velocity": 82,
      "chip": "ym2612"
    },
    {
      "channel": 1,
      "note": 76,
      "start": 10.5251,
      "duration": 0.0663,
      "velocity": 108,
      "chip": "ym2612"
    },
    {
      "channel": 2,
      "note": 73,
      "start": 10.5263,
      "duration": 0.082,
      "velocity": 108,
      "chip": "ym2612"
    },
    {
      "channel": 3,
      "note": 90,
      "start": 10.5273,
      "duration": 0.0307,
      "velocity": 115,
      "chip": "ym2612"
    },
    {
      "channel": 5,
      "note": 38,
      "start": 10.5309,
      "duration": 0.1982,
      "velocity": 127,
      "chip": "ym2612"
    },
    {
      "channel": 1,
      "note": 76,
      "start": 10.6259,
      "duration": 0.0664,
      "velocity": 108,
      "chip": "ym2612"
    },
    {
      "channel": 2,
      "note": 73,
      "start": 10.6269,
      "duration": 0.0823,
      "velocity": 108,
      "chip": "ym2612"
    },
    {
      "channel": 3,
      "note": 86,
      "start": 10.6278,
      "duration": 0.0312,
      "velocity": 115,
      "chip": "ym2612"
    },
    {
      "channel": 1,
      "note": 80,
      "start": 10.7269,
      "duration": 0.0663,
      "velocity": 108,
      "chip": "ym2612"
    },
    {
      "channel": 2,
      "note": 73,
      "start": 10.7279,
      "duration": 0.0823,
      "velocity": 108,
      "chip": "ym2612"
    },
    {
      "channel": 3,
      "note": 90,
      "start": 10.7288,
      "duration": 0.031,
      "velocity": 115,
      "chip": "ym2612"
    },
    {
      "channel": 5,
      "note": 105,
      "start": 10.7327,
      "duration": 0.1986,
      "velocity": 127,
      "chip": "ym2612"
    },
    {
      "channel": 1,
      "note": 80,
      "start": 10.8277,
      "duration": 0.0664,
      "velocity": 108,
      "chip": "ym2612"
    },
    {
      "channel": 2,
      "note": 73,
      "start": 10.8289,
      "duration": 0.0822,
      "velocity": 108,
      "chip": "ym2612"
    },
    {
      "channel": 3,
      "note": 93,
      "start": 10.8299,
      "duration": 0.0309,
      "velocity": 115,
      "chip": "ym2612"
    },
    {
      "channel": 0,
      "note": 58,
      "start": 10.928,
      "duration": 0.2016,
      "velocity": 82,
      "chip": "ym2612"
    },
    {
      "channel": 1,
      "note": 80,
      "start": 10.9292,
      "duration": 0.0659,
      "velocity": 108,
      "chip": "ym2612"
    },
    {
      "channel": 2,
      "note": 73,
      "start": 10.9302,
      "duration": 0.0818,
      "velocity": 108,
      "chip": "ym2612"
    },
    {
      "channel": 3,
      "note": 93,
      "start": 10.931,
      "duration": 0.0307,
      "velocity": 115,
      "chip": "ym2612"
    },
    {
      "channel": 5,
      "note": 67,
      "start": 10.9345,
      "duration": 0.1978,
      "velocity": 123,
      "chip": "ym2612"
    },
    {
      "channel": 1,
      "note": 76,
      "start": 11.0295,
      "duration": 0.0667,
      "velocity": 108,
      "chip": "ym2612"
    },
    {
      "channel": 2,
      "note": 73,
      "start": 11.0302,
      "duration": 0.0829,
      "velocity": 108,
      "chip": "ym2612"
    },
    {
      "channel": 3,
      "note": 90,
      "start": 11.0312,
      "duration": 0.0317,
      "velocity": 115,
      "chip": "ym2612"
    },
    {
      "channel": 1,
      "note": 71,
      "start": 11.1304,
      "duration": 0.0667,
      "velocity": 108,
      "chip": "ym2612"
    },
    {
      "channel": 2,
      "note": 68,
      "start": 11.1312,
      "duration": 0.083,
      "velocity": 108,
      "chip": "ym2612"
    },
    {
      "channel": 3,
      "note": 86,
      "start": 11.132,
      "duration": 0.0319,
      "velocity": 115,
      "chip": "ym2612"
    },
    {
      "channel": 5,
      "note": 105,
      "start": 11.1367,
      "duration": 0.1986,
      "velocity": 127,
      "chip": "ym2612"
    },
    {
      "channel": 1,
      "note": 71,
      "start": 11.2317,
      "duration": 0.0664,
      "velocity": 108,
      "chip": "ym2612"
    },
    {
      "channel": 2,
      "note": 68,
      "start": 11.2328,
      "duration": 0.0823,
      "velocity": 108,
      "chip": "ym2612"
    },
    {
      "channel": 0,
      "note": 65,
      "start": 11.332,
      "duration": 0.2014,
      "velocity": 82,
      "chip": "ym2612"
    },
    {
      "channel": 1,
      "note": 74,
      "start": 11.333,
      "duration": 0.066,
      "velocity": 108,
      "chip": "ym2612"
    },
    {
      "channel": 2,
      "note": 72,
      "start": 11.3341,
      "duration": 0.082,
      "velocity": 108,
      "chip": "ym2612"
    },
    {
      "channel": 3,
      "note": 88,
      "start": 11.3349,
      "duration": 0.0308,
      "velocity": 115,
      "chip": "ym2612"
    },
    {
      "channel": 5,
      "note": 38,
      "start": 11.3385,
      "duration": 0.1983,
      "velocity": 127,
      "chip": "ym2612"
    },
    {
      "channel": 1,
      "note": 74,
      "start": 11.4336,
      "duration": 0.0664,
      "velocity": 108,
      "chip": "ym2612"
    },
    {
      "channel": 2,
      "note": 72,
      "start": 11.4346,
      "duration": 0.0823,
      "velocity": 108,
      "chip": "ym2612"
    },
    {
      "channel": 3,
      "note": 81,
      "start": 11.4354,
      "duration": 0.0312,
      "velocity": 115,
      "chip": "ym2612"
    },
    {
      "channel": 1,
      "note": 77,
      "start": 11.5345,
      "duration": 0.0663,
      "velocity": 108,
      "chip": "ym2612"
    },
    {
      "channel": 2,
      "note": 72,
      "start": 11.5356,
      "duration": 0.0823,
      "velocity": 108,
      "chip": "ym2612"
    },
    {
      "channel": 3,
      "note": 88,
      "start": 11.5365,
      "duration": 0.0311,
      "velocity": 115,
      "chip": "ym2612"
    },
    {
      "channel": 5,
      "note": 105,
      "start": 11.5404,
      "duration": 0.1989,
      "velocity": 127,
      "chip": "ym2612"
    },
    {
      "channel": 1,
      "note": 77,
      "start": 11.6357,
      "duration": 0.0664,
      "velocity": 108,
      "chip": "ym2612"
    },
    {
      "channel": 2,
      "note": 72,
      "start": 11.6368,
      "duration": 0.0823,
      "velocity": 108,
      "chip": "ym2612"
    },
    {
      "channel": 3,
      "note": 91,
      "start": 11.6376,
      "duration": 0.0312,
      "velocity": 115,
      "chip": "ym2612"
    },
    {
      "channel": 0,
      "note": 58,
      "start": 11.736,
      "duration": 0.2014,
      "velocity": 82,
      "chip": "ym2612"
    },
    {
      "channel": 1,
      "note": 77,
      "start": 11.737,
      "duration": 0.066,
      "velocity": 108,
      "chip": "ym2612"
    },
    {
      "channel": 2,
      "note": 72,
      "start": 11.7381,
      "duration": 0.082,
      "velocity": 108,
      "chip": "ym2612"
    },
    {
      "channel": 3,
      "note": 91,
      "start": 11.739,
      "duration": 0.0308,
      "velocity": 115,
      "chip": "ym2612"
    },
    {
      "channel": 5,
      "note": 67,
      "start": 11.7425,
      "duration": 0.1977,
      "velocity": 123,
      "chip": "ym2612"
    },
    {
      "channel": 1,
      "note": 74,
      "start": 11.8373,
      "duration": 0.0667,
      "velocity": 108,
      "chip": "ym2612"
    },
    {
      "channel": 2,
      "note": 72,
      "start": 11.838,
      "duration": 0.0829,
      "velocity": 108,
      "chip": "ym2612"
    },
    {
      "channel": 3,
      "note": 88,
      "start": 11.8388,
      "duration": 0.0318,
      "velocity": 115,
      "chip": "ym2612"
    },
    {
      "channel": 1,
      "note": 70,
      "start": 11.9383,
      "duration": 0.0666,
      "velocity": 108,
      "chip": "ym2612"
    },
    {
      "channel": 2,
      "note": 68,
      "start": 11.939,
      "duration": 0.0829,
      "velocity": 108,
      "chip": "ym2612"
    },
    {
      "channel": 3,
      "note": 85,
      "start": 11.9399,
      "duration": 0.0317,
      "velocity": 115,
      "chip": "ym2612"
    },
    {
      "channel": 5,
      "note": 105,
      "start": 11.9444,
      "duration": 0.1988,
      "velocity": 127,
      "chip": "ym2612"
    },
    {
      "channel": 1,
      "note": 70,
      "start": 12.0394,
      "duration": 0.0664,
      "velocity": 108,
      "chip": "ym2612"
    },
    {
      "channel": 2,
      "note": 68,
      "start": 12.0405,
      "duration": 0.0826,
      "velocity": 108,
      "chip": "ym2612"
    },
    {
      "channel": 0,
      "note": 63,
      "start": 12.14,
      "duration": 0.2014,
      "velocity": 82,
      "chip": "ym2612"
    },
    {
      "channel": 1,
      "note": 71,
      "start": 12.141,
      "duration": 0.066,
      "velocity": 108,
      "chip": "ym2612"
    },
    {
      "channel": 2,
      "note": 68,
      "start": 12.1421,
      "duration": 0.082,
      "velocity": 108,
      "chip": "ym2612"
    },
    {
      "channel": 3,
      "note": 78,
      "start": 12.1429,
      "duration": 0.0308,
      "velocity": 115,
      "chip": "ym2612"
    },
    {
      "channel": 5,
      "note": 38,
      "start": 12.1465,
      "duration": 0.1976,
      "velocity": 127,
      "chip": "ym2612"
    },
    {
      "channel": 1,
      "note": 74,
      "start": 12.2413,
      "duration": 0.0667,
      "velocity": 108,
      "chip": "ym2612"
    },
    {
      "channel": 2,
      "note": 72,
      "start": 12.242,
      "duration": 0.0829,
      "velocity": 108,
      "chip": "ym2612"
    },
    {
      "channel": 3,
      "note": 81,
      "start": 12.243,
      "duration": 0.0317,
      "velocity": 115,
      "chip": "ym2612"
    },
    {
      "channel": 1,
      "note": 76,
      "start": 12.3422,
      "duration": 0.0666,
      "velocity": 108,
      "chip": "ym2612"
    },
    {
      "channel": 2,
      "note": 73,
      "start": 12.343,
      "duration": 0.0829,
      "velocity": 108,
      "chip": "ym2612"
    },
    {
      "channel": 3,
      "note": 83,
      "start": 12.3438,
      "duration": 0.0318,
      "velocity": 115,
      "chip": "ym2612"
    },
    {
      "channel": 5,
      "note": 105,
      "start": 12.3485,
      "duration": 0.1978,
      "velocity": 127,
      "chip": "ym2612"
    },
    {
      "channel": 1,
      "note": 77,
      "start": 12.4432,
      "duration": 0.0667,
      "velocity": 108,
      "chip": "ym2612"
    },
    {
      "channel": 2,
      "note": 75,
      "start": 12.4439,
      "duration": 0.0829,
      "velocity": 108,
      "chip": "ym2612"
    },
    {
      "channel": 3,
      "note": 85,
      "start": 12.4448,
      "duration": 0.0317,
      "velocity": 115,
      "chip": "ym2612"
    },
    {
      "channel": 0,
      "note": 58,
      "start": 12.5437,
      "duration": 0.2017,
      "velocity": 82,
      "chip": "ym2612"
    },
    {
      "channel": 1,
      "note": 80,
      "start": 12.5445,
      "duration": 0.0662,
      "velocity": 108,
      "chip": "ym2612"
    },
    {
      "channel": 2,
      "note": 78,
      "start": 12.5453,
      "duration": 0.0827,
      "velocity": 108,
      "chip": "ym2612"
    },
    {
      "channel": 3,
      "note": 86,
      "start": 12.5461,
      "duration": 0.0314,
      "velocity": 115,
      "chip": "ym2612"
    },
    {
      "channel": 5,
      "note": 67,
      "start": 12.5504,
      "duration": 0.1983,
      "velocity": 123,
      "chip": "ym2612"
    },
    {
      "channel": 1,
      "note": 80,
      "start": 12.6456,
      "duration": 0.0664,
      "velocity": 108,
      "chip": "ym2612"
    },
    {
      "channel": 1,
      "note": 65,
      "start": 12.7466,
      "duration": 0.0663,
      "velocity": 108,
      "chip": "ym2612"
    },
    {
      "channel": 2,
      "note": 64,
      "start": 12.7473,
      "duration": 0.0825,
      "velocity": 108,
      "chip": "ym2612"
    },
    {
      "channel": 3,
      "note": 78,
      "start": 12.7485,
      "duration": 0.0311,
      "velocity": 115,
      "chip": "ym2612"
    },
    {
      "channel": 5,
      "note": 105,
      "start": 12.7524,
      "duration": 0.1988,
      "velocity": 127,
      "chip": "ym2612"
    },
    {
      "channel": 1,
      "note": 65,
      "start": 12.8474,
      "duration": 0.0664,
      "velocity": 108,
      "chip": "ym2612"
    },
    {
      "channel": 2,
      "note": 64,
      "start": 12.8487,
      "duration": 0.0821,
      "velocity": 108,
      "chip": "ym2612"
    },
    {
      "channel": 0,
      "note": 63,
      "start": 12.9477,
      "duration": 0.2014,
      "velocity": 82,
      "chip": "ym2612"
    },
    {
      "channel": 1,
      "note": 76,
      "start": 12.949,
      "duration": 0.0658,
      "velocity": 108,
      "chip": "ym2612"
    },
    {
      "channel": 2,
      "note": 73,
      "start": 12.95,
      "duration": 0.0819,
      "velocity": 108,
      "chip": "ym2612"
    },
    {
      "channel": 3,
      "note": 90,
      "start": 12.9509,
      "duration": 0.0306,
      "velocity": 115,
      "chip": "ym2612"
    },
    {
      "channel": 5,
      "note": 38,
      "start": 12.9543,
      "duration": 0.1982,
      "velocity": 127,
      "chip": "ym2612"
    },
    {
      "channel": 1,
      "note": 76,
      "start": 13.0495,
      "duration": 0.0663,
      "velocity": 108,
      "chip": "ym2612"
    },
    {
      "channel": 2,
      "note": 73,
      "start": 13.0505,
      "duration": 0.0822,
      "velocity": 108,
      "chip": "ym2612"
    },
    {
      "channel": 3,
      "note": 86,
      "start": 13.0515,
      "duration": 0.0311,
      "velocity": 115,
      "chip": "ym2612"
    },
    {
      "channel": 1,
      "note": 80,
      "start": 13.1503,
      "duration": 0.0663,
      "velocity": 108,
      "chip": "ym2612"
    },
    {
      "channel": 2,
      "note": 73,
      "start": 13.1513,
      "duration": 0.0823,
      "velocity": 108,
      "chip": "ym2612"
    },
    {
      "channel": 3,
      "note": 90,
      "start": 13.1521,
      "duration": 0.0312,
      "velocity": 115,
      "chip": "ym2612"
    },
    {
      "channel": 5,
      "note": 105,
      "start": 13.1561,
      "duration": 0.1985,
      "velocity": 127,
      "chip": "ym2612"
    },
    {
      "channel": 1,
      "note": 80,
      "start": 13.2512,
      "duration": 0.0663,
      "velocity": 108,
      "chip": "ym2612"
    },
    {
      "channel": 2,
      "note": 73,
      "start": 13.2522,
      "duration": 0.0823,
      "velocity": 108,
      "chip": "ym2612"
    },
    {
      "channel": 3,
      "note": 93,
      "start": 13.2531,
      "duration": 0.0311,
      "velocity": 115,
      "chip": "ym2612"
    },
    {
      "channel": 0,
      "note": 58,
      "start": 13.3514,
      "duration": 0.2014,
      "velocity": 82,
      "chip": "ym2612"
    },
    {
      "channel": 1,
      "note": 80,
      "start": 13.3524,
      "duration": 0.066,
      "velocity": 108,
      "chip": "ym2612"
    },
    {
      "channel": 2,
      "note": 73,
      "start": 13.3535,
      "duration": 0.082,
      "velocity": 108,
      "chip": "ym2612"
    },
    {
      "channel": 3,
      "note": 93,
      "start": 13.3543,
      "duration": 0.0309,
      "velocity": 115,
      "chip": "ym2612"
    },
    {
      "channel": 5,
      "note": 67,
      "start": 13.3579,
      "duration": 0.1976,
      "velocity": 123,
      "chip": "ym2612"
    },
    {
      "channel": 1,
      "note": 76,
      "start": 13.4527,
      "duration": 0.0666,
      "velocity": 108,
      "chip": "ym2612"
    },
    {
      "channel": 2,
      "note": 73,
      "start": 13.4535,
      "duration": 0.0829,
      "velocity": 108,
      "chip": "ym2612"
    },
    {
      "channel": 3,
      "note": 90,
      "start": 13.4544,
      "duration": 0.0317,
      "velocity": 115,
      "chip": "ym2612"
    },
    {
      "channel": 1,
      "note": 71,
      "start": 13.5537,
      "duration": 0.0666,
      "velocity": 108,
      "chip": "ym2612"
    },
    {
      "channel": 2,
      "note": 68,
      "start": 13.5544,
      "duration": 0.0832,
      "velocity": 108,
      "chip": "ym2612"
    },
    {
      "channel": 3,
      "note": 86,
      "start": 13.5552,
      "duration": 0.0318,
      "velocity": 115,
      "chip": "ym2612"
    },
    {
      "channel": 5,
      "note": 105,
      "start": 13.5598,
      "duration": 0.1989,
      "velocity": 127,
      "chip": "ym2612"
    },
    {
      "channel": 1,
      "note": 71,
      "start": 13.6551,
      "duration": 0.0664,
      "velocity": 108,
      "chip": "ym2612"
    },
    {
      "channel": 2,
      "note": 68,
      "start": 13.6562,
      "duration": 0.0823,
      "velocity": 108,
      "chip": "ym2612"
    },
    {
      "channel": 0,
      "note": 65,
      "start": 13.7554,
      "duration": 0.2014,
      "velocity": 82,
      "chip": "ym2612"
    },
    {
      "channel": 1,
      "note": 74,
      "start": 13.7564,
      "duration": 0.066,
      "velocity": 108,
      "chip": "ym2612"
    },
    {
      "channel": 2,
      "note": 72,
      "start": 13.7575,
      "duration": 0.082,
      "velocity": 108,
      "chip": "ym2612"
    },
    {
      "channel": 3,
      "note": 88,
      "start": 13.7584,
      "duration": 0.0308,
      "velocity": 115,
      "chip": "ym2612"
    },
    {
      "channel": 5,
      "note": 67,
      "start": 13.7619,
      "duration": 0.1983,
      "velocity": 123,
      "chip": "ym2612"
    },
    {
      "channel": 1,
      "note": 74,
      "start": 13.857,
      "duration": 0.0664,
      "velocity": 108,
      "chip": "ym2612"
    },
    {
      "channel": 2,
      "note": 72,
      "start": 13.858,
      "duration": 0.0823,
      "velocity": 108,
      "chip": "ym2612"
    },
    {
      "channel": 3,
      "note": 81,
      "start": 13.8588,
      "duration": 0.0313,
      "velocity": 115,
      "chip": "ym2612"
    },
    {
      "channel": 1,
      "note": 77,
      "start": 13.9579,
      "duration": 0.0663,
      "velocity": 108,
      "chip": "ym2612"
    },
    {
      "channel": 2,
      "note": 72,
      "start": 13.959,
      "duration": 0.0823,
      "velocity": 108,
      "chip": "ym2612"
    },
    {
      "channel": 3,
      "note": 88,
      "start": 13.9598,
      "duration": 0.0312,
      "velocity": 115,
      "chip": "ym2612"
    },
    {
      "channel": 5,
      "note": 105,
      "start": 13.9638,
      "duration": 0.1989,
      "velocity": 127,
      "chip": "ym2612"
    },
    {
      "channel": 1,
      "note": 77,
      "start": 14.0588,
      "duration": 0.0667,
      "velocity": 108,
      "chip": "ym2612"
    },
    {
      "channel": 2,
      "note": 72,
      "start": 14.0599,
      "duration": 0.0826,
      "velocity": 108,
      "chip": "ym2612"
    },
    {
      "channel": 3,
      "note": 91,
      "start": 14.0607,
      "duration": 0.0312,
      "velocity": 115,
      "chip": "ym2612"
    },
    {
      "channel": 0,
      "note": 58,
      "start": 14.1594,
      "duration": 0.2014,
      "velocity": 82,
      "chip": "ym2612"
    },
    {
      "channel": 1,
      "note": 77,
      "start": 14.1605,
      "duration": 0.066,
      "velocity": 108,
      "chip": "ym2612"
    },
    {
      "channel": 2,
      "note": 72,
      "start": 14.1615,
      "duration": 0.082,
      "velocity": 108,
      "chip": "ym2612"
    },
    {
      "channel": 3,
      "note": 91,
      "start": 14.1624,
      "duration": 0.0308,
      "velocity": 115,
      "chip": "ym2612"
    },
    {
      "channel": 5,
      "note": 67,
      "start": 14.1659,
      "duration": 0.1977,
      "velocity": 123,
      "chip": "ym2612"
    },
    {
      "channel": 1,
      "note": 74,
      "start": 14.2607,
      "duration": 0.0667,
      "velocity": 108,
      "chip": "ym2612"
    },
    {
      "channel": 2,
      "note": 72,
      "start": 14.2615,
      "duration": 0.0829,
      "velocity": 108,
      "chip": "ym2612"
    },
    {
      "channel": 3,
      "note": 88,
      "start": 14.2622,
      "duration": 0.0318,
      "velocity": 115,
      "chip": "ym2612"
    },
    {
      "channel": 1,
      "note": 70,
      "start": 14.3617,
      "duration": 0.0666,
      "velocity": 108,
      "chip": "ym2612"
    },
    {
      "channel": 2,
      "note": 68,
      "start": 14.3624,
      "duration": 0.0829,
      "velocity": 108,
      "chip": "ym2612"
    },
    {
      "channel": 3,
      "note": 85,
      "start": 14.3634,
      "duration": 0.0485,
      "velocity": 115,
      "chip": "ym2612"
    },
    {
      "channel": 5,
      "note": 105,
      "start": 14.3679,
      "duration": 0.1986,
      "velocity": 127,
      "chip": "ym2612"
    },
    {
      "channel": 1,
      "note": 70,
      "start": 14.4628,
      "duration": 0.0664,
      "velocity": 108,
      "chip": "ym2612"
    },
    {
      "channel": 2,
      "note": 68,
      "start": 14.4639,
      "duration": 0.0823,
      "velocity": 108,
      "chip": "ym2612"
    },
    {
      "channel": 0,
      "note": 63,
      "start": 14.5631,
      "duration": 0.2015,
      "velocity": 82,
      "chip": "ym2612"
    },
    {
      "channel": 1,
      "note": 71,
      "start": 14.5642,
      "duration": 0.0659,
      "velocity": 108,
      "chip": "ym2612"
    },
    {
      "channel": 2,
      "note": 68,
      "start": 14.5653,
      "duration": 0.0818,
      "velocity": 108,
      "chip": "ym2612"
    },
    {
      "channel": 3,
      "note": 78,
      "start": 14.5662,
      "duration": 0.0306,
      "velocity": 115,
      "chip": "ym2612"
    },
    {
      "channel": 5,
      "note": 67,
      "start": 14.5698,
      "duration": 0.1976,
      "velocity": 123,
      "chip": "ym2612"
    },
    {
      "channel": 1,
      "note": 74,
      "start": 14.6644,
      "duration": 0.0667,
      "velocity": 108,
      "chip": "ym2612"
    },
    {
      "channel": 2,
      "note": 72,
      "start": 14.6651,
      "duration": 0.0829,
      "velocity": 108,
      "chip": "ym2612"
    },
    {
      "channel": 3,
      "note": 81,
      "start": 14.6661,
      "duration": 0.0317,
      "velocity": 115,
      "chip": "ym2612"
    },
    {
      "channel": 1,
      "note": 76,
      "start": 14.7654,
      "duration": 0.0666,
      "velocity": 108,
      "chip": "ym2612"
    },
    {
      "channel": 2,
      "note": 73,
      "start": 14.7661,
      "duration": 0.0829,
      "velocity": 108,
      "chip": "ym2612"
    },
    {
      "channel": 3,
      "note": 83,
      "start": 14.7669,
      "duration": 0.0318,
      "velocity": 115,
      "chip": "ym2612"
    },
    {
      "channel": 5,
      "note": 67,
      "start": 14.7715,
      "duration": 0.3975,
      "velocity": 123,
      "chip": "ym2612"
    },
    {
      "channel": 1,
      "note": 77,
      "start": 14.8663,
      "duration": 0.0667,
      "velocity": 108,
      "chip": "ym2612"
    },
    {
      "channel": 2,
      "note": 75,
      "start": 14.867,
      "duration": 0.0829,
      "velocity": 108,
      "chip": "ym2612"
    },
    {
      "channel": 3,
      "note": 85,
      "start": 14.868,
      "duration": 0.0316,
      "velocity": 115,
      "chip": "ym2612"
    },
    {
      "channel": 1,
      "note": 80,
      "start": 14.9675,
      "duration": 0.0663,
      "velocity": 108,
      "chip": "ym2612"
    },
    {
      "channel": 2,
      "note": 78,
      "start": 14.9683,
      "duration": 0.0824,
      "velocity": 108,
      "chip": "ym2612"
    },
    {
      "channel": 3,
      "note": 86,
      "start": 14.9691,
      "duration": 0.0314,
      "velocity": 115,
      "chip": "ym2612"
    },
    {
      "channel": 1,
      "note": 80,
      "start": 15.0685,
      "duration": 0.184,
      "velocity": 108,
      "chip": "ym2612"
    },
    {
      "channel": 2,
      "note": 78,
      "start": 15.0695,
      "duration": 0.2167,
      "velocity": 108,
      "chip": "ym2612"
    },
    {
      "channel": 5,
      "note": 70,
      "start": 15.1742,
      "duration": 0.2019,
      "velocity": 118,
      "chip": "ym2612"
    },
    {
      "channel": 0,
      "note": 66,
      "start": 15.371,
      "duration": 0.2539,
      "velocity": 82,
      "chip": "ym2612"
    },
    {
      "channel": 1,
      "note": 80,
      "start": 15.3724,
      "duration": 0.0676,
      "velocity": 108,
      "chip": "ym2612"
    },
    {
      "channel": 2,
      "note": 62,
      "start": 15.3739,
      "duration": 0.083,
      "velocity": 108,
      "chip": "ym2612"
    },
    {
      "channel": 3,
      "note": 81,
      "start": 15.3756,
      "duration": 0.031,
      "velocity": 115,
      "chip": "ym2612"
    },
    {
      "channel": 5,
      "note": 38,
      "start": 15.3792,
      "duration": 0.1985,
      "velocity": 127,
      "chip": "ym2612"
    },
    {
      "channel": 1,
      "note": 80,
      "start": 15.4745,
      "duration": 0.0664,
      "velocity": 108,
      "chip": "ym2612"
    },
    {
      "channel": 2,
      "note": 62,
      "start": 15.4756,
      "duration": 0.0823,
      "velocity": 108,
      "chip": "ym2612"
    },
    {
      "channel": 3,
      "note": 76,
      "start": 15.4763,
      "duration": 0.0312,
      "velocity": 115,
      "chip": "ym2612"
    },
    {
      "channel": 1,
      "note": 83,
      "start": 15.5754,
      "duration": 0.0664,
      "velocity": 108,
      "chip": "ym2612"
    },
    {
      "channel": 2,
      "note": 62,
      "start": 15.5765,
      "duration": 0.0823,
      "velocity": 108,
      "chip": "ym2612"
    },
    {
      "channel": 3,
      "note": 81,
      "start": 15.5774,
      "duration": 0.0312,
      "velocity": 115,
      "chip": "ym2612"
    },
    {
      "channel": 5,
      "note": 105,
      "start": 15.5813,
      "duration": 0.1986,
      "velocity": 127,
      "chip": "ym2612"
    },
    {
      "channel": 1,
      "note": 83,
      "start": 15.6764,
      "duration": 0.0663,
      "velocity": 108,
      "chip": "ym2612"
    },
    {
      "channel": 2,
      "note": 62,
      "start": 15.6774,
      "duration": 0.0823,
      "velocity": 108,
      "chip": "ym2612"
    },
    {
      "channel": 3,
      "note": 84,
      "start": 15.6783,
      "duration": 0.0312,
      "velocity": 115,
      "chip": "ym2612"
    },
    {
      "channel": 0,
      "note": 61,
      "start": 15.7766,
      "duration": 0.2519,
      "velocity": 82,
      "chip": "ym2612"
    },
    {
      "channel": 1,
      "note": 83,
      "start": 15.7777,
      "duration": 0.066,
      "velocity": 108,
      "chip": "ym2612"
    },
    {
      "channel": 2,
      "note": 62,
      "start": 15.7787,
      "duration": 0.082,
      "velocity": 108,
      "chip": "ym2612"
    },
    {
      "channel": 3,
      "note": 84,
      "start": 15.7796,
      "duration": 0.0308,
      "velocity": 115,
      "chip": "ym2612"
    },
    {
      "channel": 5,
      "note": 67,
      "start": 15.7831,
      "duration": 0.1977,
      "velocity": 123,
      "chip": "ym2612"
    },
    {
      "channel": 1,
      "note": 80,
      "start": 15.878,
      "duration": 0.0666,
      "velocity": 108,
      "chip": "ym2612"
    },
    {
      "channel": 2,
      "note": 62,
      "start": 15.8787,
      "duration": 0.0829,
      "velocity": 108,
      "chip": "ym2612"
    },
    {
      "channel": 3,
      "note": 81,
      "start": 15.8795,
      "duration": 0.0317,
      "velocity": 115,
      "chip": "ym2612"
    },
    {
      "channel": 1,
      "note": 75,
      "start": 15.9788,
      "duration": 0.0667,
      "velocity": 108,
      "chip": "ym2612"
    },
    {
      "channel": 2,
      "note": 46,
      "start": 15.9796,
      "duration": 0.0829,
      "velocity": 108,
      "chip": "ym2612"
    },
    {
      "channel": 3,
      "note": 76,
      "start": 15.9805,
      "duration": 0.0317,
      "velocity": 115,
      "chip": "ym2612"
    },
    {
      "channel": 5,
      "note": 105,
      "start": 15.985,
      "duration": 0.1985,
      "velocity": 127,
      "chip": "ym2612"
    },
    {
      "channel": 1,
      "note": 75,
      "start": 16.08,
      "duration": 0.0664,
      "velocity": 108,
      "chip": "ym2612"
    },
    {
      "channel": 2,
      "note": 46,
      "start": 16.0811,
      "duration": 0.0823,
      "velocity": 108,
      "chip": "ym2612"
    },
    {
      "channel": 0,
      "note": 68,
      "start": 16.1803,
      "duration": 0.2519,
      "velocity": 82,
      "chip": "ym2612"
    },
    {
      "channel": 1,
      "note": 77,
      "start": 16.1814,
      "duration": 0.066,
      "velocity": 108,
      "chip": "ym2612"
    },
    {
      "channel": 2,
      "note": 60,
      "start": 16.1824,
      "duration": 0.0819,
      "velocity": 108,
      "chip": "ym2612"
    },
    {
      "channel": 3,
      "note": 79,
      "start": 16.1832,
      "duration": 0.0308,
      "velocity": 115,
      "chip": "ym2612"
    },
    {
      "channel": 5,
      "note": 38,
      "start": 16.187,
      "duration": 0.198,
      "velocity": 127,
      "chip": "ym2612"
    },
    {
      "channel": 1,
      "note": 77,
      "start": 16.2819,
      "duration": 0.0663,
      "velocity": 108,
      "chip": "ym2612"
    },
    {
      "channel": 2,
      "note": 60,
      "start": 16.283,
      "duration": 0.0823,
      "velocity": 108,
      "chip": "ym2612"
    },
    {
      "channel": 3,
      "note": 71,
      "start": 16.2838,
      "duration": 0.0312,
      "velocity": 115,
      "chip": "ym2612"
    },
    {
      "channel": 1,
      "note": 81,
      "start": 16.3828,
      "duration": 0.0664,
      "velocity": 108,
      "chip": "ym2612"
    },
    {
      "channel": 2,
      "note": 60,
      "start": 16.3838,
      "duration": 0.0824,
      "velocity": 108,
      "chip": "ym2612"
    },
    {
      "channel": 3,
      "note": 79,
      "start": 16.3846,
      "duration": 0.0313,
      "velocity": 115,
      "chip": "ym2612"
    },
    {
      "channel": 5,
      "note": 105,
      "start": 16.3889,
      "duration": 0.1985,
      "velocity": 127,
      "chip": "ym2612"
    },
    {
      "channel": 1,
      "note": 81,
      "start": 16.4838,
      "duration": 0.0664,
      "velocity": 108,
      "chip": "ym2612"
    },
    {
      "channel": 2,
      "note": 60,
      "start": 16.4848,
      "duration": 0.0823,
      "velocity": 108,
      "chip": "ym2612"
    },
    {
      "channel": 3,
      "note": 82,
      "start": 16.4857,
      "duration": 0.0312,
      "velocity": 115,
      "chip": "ym2612"
    },
    {
      "channel": 0,
      "note": 61,
      "start": 16.584,
      "duration": 0.2519,
      "velocity": 82,
      "chip": "ym2612"
    },
    {
      "channel": 1,
      "note": 81,
      "start": 16.5851,
      "duration": 0.066,
      "velocity": 108,
      "chip": "ym2612"
    },
    {
      "channel": 2,
      "note": 60,
      "start": 16.5861,
      "duration": 0.082,
      "velocity": 108,
      "chip": "ym2612"
    },
    {
      "channel": 3,
      "note": 82,
      "start": 16.5871,
      "duration": 0.0307,
      "velocity": 115,
      "chip": "ym2612"
    },
    {
      "channel": 5,
      "note": 67,
      "start": 16.5905,
      "duration": 0.1978,
      "velocity": 123,
      "chip": "ym2612"
    },
    {
      "channel": 1,
      "note": 77,
      "start": 16.6853,
      "duration": 0.0666,
      "velocity": 108,
      "chip": "ym2612"
    },
    {
      "channel": 2,
      "note": 60,
      "start": 16.6861,
      "duration": 0.0829,
      "velocity": 108,
      "chip": "ym2612"
    },
    {
      "channel": 3,
      "note": 79,
      "start": 16.6872,
      "duration": 0.0315,
      "velocity": 115,
      "chip": "ym2612"
    },
    {
      "channel": 1,
      "note": 74,
      "start": 16.7862,
      "duration": 0.0667,
      "velocity": 108,
      "chip": "ym2612"
    },
    {
      "channel": 2,
      "note": 46,
      "start": 16.7872,
      "duration": 0.0829,
      "velocity": 108,
      "chip": "ym2612"
    },
    {
      "channel": 3,
      "note": 75,
      "start": 16.788,
      "duration": 0.0317,
      "velocity": 115,
      "chip": "ym2612"
    },
    {
      "channel": 5,
      "note": 105,
      "start": 16.7924,
      "duration": 0.1989,
      "velocity": 127,
      "chip": "ym2612"
    },
    {
      "channel": 1,
      "note": 74,
      "start": 16.8876,
      "duration": 0.0664,
      "velocity": 108,
      "chip": "ym2612"
    },
    {
      "channel": 2,
      "note": 46,
      "start": 16.8887,
      "duration": 0.0824,
      "velocity": 108,
      "chip": "ym2612"
    },
    {
      "channel": 0,
      "note": 66,
      "start": 16.988,
      "duration": 0.2519,
      "velocity": 82,
      "chip": "ym2612"
    },
    {
      "channel": 1,
      "note": 75,
      "start": 16.9891,
      "duration": 0.066,
      "velocity": 108,
      "chip": "ym2612"
    },
    {
      "channel": 2,
      "note": 46,
      "start": 16.9901,
      "duration": 0.082,
      "velocity": 108,
      "chip": "ym2612"
    },
    {
      "channel": 3,
      "note": 68,
      "start": 16.991,
      "duration": 0.0307,
      "velocity": 115,
      "chip": "ym2612"
    },
    {
      "channel": 5,
      "note": 38,
      "start": 16.9945,
      "duration": 0.1977,
      "velocity": 127,
      "chip": "ym2612"
    },
    {
      "channel": 1,
      "note": 77,
      "start": 17.0893,
      "duration": 0.0667,
      "velocity": 108,
      "chip": "ym2612"
    },
    {
      "channel": 2,
      "note": 60,
      "start": 17.0901,
      "duration": 0.0829,
      "velocity": 108,
      "chip": "ym2612"
    },
    {
      "channel": 3,
      "note": 71,
      "start": 17.0909,
      "duration": 0.0318,
      "velocity": 115,
      "chip": "ym2612"
    },
    {
      "channel": 1,
      "note": 80,
      "start": 17.1902,
      "duration": 0.0667,
      "velocity": 108,
      "chip": "ym2612"
    },
    {
      "channel": 2,
      "note": 62,
      "start": 17.191,
      "duration": 0.0829,
      "velocity": 108,
      "chip": "ym2612"
    },
    {
      "channel": 3,
      "note": 73,
      "start": 17.1919,
      "duration": 0.0317,
      "velocity": 115,
      "chip": "ym2612"
    },
    {
      "channel": 5,
      "note": 105,
      "start": 17.1964,
      "duration": 0.1981,
      "velocity": 127,
      "chip": "ym2612"
    },
    {
      "channel": 1,
      "note": 81,
      "start": 17.2912,
      "duration": 0.0667,
      "velocity": 108,
      "chip": "ym2612"
    },
    {
      "channel": 2,
      "note": 67,
      "start": 17.292,
      "duration": 0.0829,
      "velocity": 108,
      "chip": "ym2612"
    },
    {
      "channel": 3,
      "note": 75,
      "start": 17.2927,
      "duration": 0.0318,
      "velocity": 115,
      "chip": "ym2612"
    },
    {
      "channel": 0,
      "note": 61,
      "start": 17.3917,
      "duration": 0.2522,
      "velocity": 82,
      "chip": "ym2612"
    },
    {
      "channel": 1,
      "note": 83,
      "start": 17.3925,
      "duration": 0.0665,
      "velocity": 108,
      "chip": "ym2612"
    },
    {
      "channel": 2,
      "note": 71,
      "start": 17.3933,
      "duration": 0.0827,
      "velocity": 108,
      "chip": "ym2612"
    },
    {
      "channel": 3,
      "note": 76,
      "start": 17.3942,
      "duration": 0.0312,
      "velocity": 115,
      "chip": "ym2612"
    },
    {
      "channel": 5,
      "note": 67,
      "start": 17.3982,
      "duration": 0.1983,
      "velocity": 123,
      "chip": "ym2612"
    },
    {
      "channel": 1,
      "note": 83,
      "start": 17.4936,
      "duration": 0.0664,
      "velocity": 108,
      "chip": "ym2612"
    },
    {
      "channel": 1,
      "note": 69,
      "start": 17.5946,
      "duration": 0.0663,
      "velocity": 108,
      "chip": "ym2612"
    },
    {
      "channel": 2,
      "note": 21,
      "start": 17.5954,
      "duration": 0.0825,
      "velocity": 108,
      "chip": "ym2612"
    },
    {
      "channel": 3,
      "note": 68,
      "start": 17.5962,
      "duration": 0.0315,
      "velocity": 115,
      "chip": "ym2612"
    },
    {
      "channel": 5,
      "note": 105,
      "start": 17.6004,
      "duration": 0.1988,
      "velocity": 127,
      "chip": "ym2612"
    },
    {
      "channel": 1,
      "note": 69,
      "start": 17.6955,
      "duration": 0.0664,
      "velocity": 108,
      "chip": "ym2612"
    },
    {
      "channel": 2,
      "note": 21,
      "start": 17.6965,
      "duration": 0.0823,
      "velocity": 108,
      "chip": "ym2612"
    },
    {
      "channel": 0,
      "note": 66,
      "start": 17.7958,
      "duration": 0.2522,
      "velocity": 82,
      "chip": "ym2612"
    },
    {
      "channel": 1,
      "note": 80,
      "start": 17.7968,
      "duration": 0.0659,
      "velocity": 108,
      "chip": "ym2612"
    },
    {
      "channel": 2,
      "note": 62,
      "start": 17.7979,
      "duration": 0.0819,
      "velocity": 108,
      "chip": "ym2612"
    },
    {
      "channel": 3,
      "note": 81,
      "start": 17.7988,
      "duration": 0.0307,
      "velocity": 115,
      "chip": "ym2612"
    },
    {
      "channel": 5,
      "note": 38,
      "start": 17.8022,
      "duration": 0.1986,
      "velocity": 127,
      "chip": "ym2612"
    },
    {
      "channel": 1,
      "note": 80,
      "start": 17.8973,
      "duration": 0.0667,
      "velocity": 108,
      "chip": "ym2612"
    },
    {
      "channel": 2,
      "note": 62,
      "start": 17.8984,
      "duration": 0.0826,
      "velocity": 108,
      "chip": "ym2612"
    },
    {
      "channel": 3,
      "note": 76,
      "start": 17.8992,
      "duration": 0.0312,
      "velocity": 115,
      "chip": "ym2612"
    },
    {
      "channel": 1,
      "note": 83,
      "start": 17.9986,
      "duration": 0.0663,
      "velocity": 108,
      "chip": "ym2612"
    },
    {
      "channel": 2,
      "note": 62,
      "start": 17.9996,
      "duration": 0.0823,
      "velocity": 108,
      "chip": "ym2612"
    },
    {
      "channel": 3,
      "note": 81,
      "start": 18.0005,
      "duration": 0.0312,
      "velocity": 115,
      "chip": "ym2612"
    },
    {
      "channel": 5,
      "note": 105,
      "start": 18.0044,
      "duration": 0.1986,
      "velocity": 127,
      "chip": "ym2612"
    },
    {
      "channel": 1,
      "note": 83,
      "start": 18.0995,
      "duration": 0.0663,
      "velocity": 108,
      "chip": "ym2612"
    },
    {
      "channel": 2,
      "note": 62,
      "start": 18.1005,
      "duration": 0.0823,
      "velocity": 108,
      "chip": "ym2612"
    },
    {
      "channel": 3,
      "note": 84,
      "start": 18.1014,
      "duration": 0.0312,
      "velocity": 115,
      "chip": "ym2612"
    },
    {
      "channel": 0,
      "note": 61,
      "start": 18.1997,
      "duration": 0.2519,
      "velocity": 82,
      "chip": "ym2612"
    },
    {
      "channel": 1,
      "note": 83,
      "start": 18.2008,
      "duration": 0.066,
      "velocity": 108,
      "chip": "ym2612"
    },
    {
      "channel": 2,
      "note": 62,
      "start": 18.2018,
      "duration": 0.082,
      "velocity": 108,
      "chip": "ym2612"
    },
    {
      "channel": 3,
      "note": 84,
      "start": 18.2027,
      "duration": 0.0307,
      "velocity": 115,
      "chip": "ym2612"
    },
    {
      "channel": 5,
      "note": 67,
      "start": 18.2064,
      "duration": 0.1975,
      "velocity": 123,
      "chip": "ym2612"
    },
    {
      "channel": 1,
      "note": 80,
      "start": 18.3011,
      "duration": 0.0666,
      "velocity": 108,
      "chip": "ym2612"
    },
    {
      "channel": 2,
      "note": 62,
      "start": 18.3018,
      "duration": 0.0829,
      "velocity": 108,
      "chip": "ym2612"
    },
    {
      "channel": 3,
      "note": 81,
      "start": 18.3027,
      "duration": 0.0317,
      "velocity": 115,
      "chip": "ym2612"
    },
    {
      "channel": 1,
      "note": 75,
      "start": 18.402,
      "duration": 0.0667,
      "velocity": 108,
      "chip": "ym2612"
    },
    {
      "channel": 2,
      "note": 46,
      "start": 18.4027,
      "duration": 0.0829,
      "velocity": 108,
      "chip": "ym2612"
    },
    {
      "channel": 3,
      "note": 76,
      "start": 18.4036,
      "duration": 0.0317,
      "velocity": 115,
      "chip": "ym2612"
    },
    {
      "channel": 5,
      "note": 105,
      "start": 18.4083,
      "duration": 0.1985,
      "velocity": 127,
      "chip": "ym2612"
    },
    {
      "channel": 1,
      "note": 75,
      "start": 18.5032,
      "duration": 0.0664,
      "velocity": 108,
      "chip": "ym2612"
    },
    {
      "channel": 2,
      "note": 46,
      "start": 18.5042,
      "duration": 0.0823,
      "velocity": 108,
      "chip": "ym2612"
    },
    {
      "channel": 0,
      "note": 68,
      "start": 18.6034,
      "duration": 0.2519,
      "velocity": 82,
      "chip": "ym2612"
    },
    {
      "channel": 1,
      "note": 77,
      "start": 18.6045,
      "duration": 0.066,
      "velocity": 108,
      "chip": "ym2612"
    },
    {
      "channel": 2,
      "note": 60,
      "start": 18.6057,
      "duration": 0.0818,
      "velocity": 108,
      "chip": "ym2612"
    },
    {
      "channel": 3,
      "note": 79,
      "start": 18.6065,
      "duration": 0.0307,
      "velocity": 115,
      "chip": "ym2612"
    },
    {
      "channel": 5,
      "note": 38,
      "start": 18.6099,
      "duration": 0.1983,
      "velocity": 127,
      "chip": "ym2612"
    },
    {
      "channel": 1,
      "note": 77,
      "start": 18.705,
      "duration": 0.0664,
      "velocity": 108,
      "chip": "ym2612"
    },
    {
      "channel": 2,
      "note": 60,
      "start": 18.7062,
      "duration": 0.0822,
      "velocity": 108,
      "chip": "ym2612"
    },
    {
      "channel": 3,
      "note": 71,
      "start": 18.7071,
      "duration": 0.031,
      "velocity": 115,
      "chip": "ym2612"
    },
    {
      "channel": 1,
      "note": 81,
      "start": 18.8061,
      "duration": 0.0662,
      "velocity": 108,
      "chip": "ym2612"
    },
    {
      "channel": 2,
      "note": 60,
      "start": 18.8071,
      "duration": 0.0823,
      "velocity": 108,
      "chip": "ym2612"
    },
    {
      "channel": 3,
      "note": 79,
      "start": 18.8079,
      "duration": 0.0311,
      "velocity": 115,
      "chip": "ym2612"
    },
    {
      "channel": 5,
      "note": 105,
      "start": 18.8118,
      "duration": 0.1985,
      "velocity": 127,
      "chip": "ym2612"
    },
    {
      "channel": 1,
      "note": 81,
      "start": 18.907,
      "duration": 0.0663,
      "velocity": 108,
      "chip": "ym2612"
    },
    {
      "channel": 2,
      "note": 60,
      "start": 18.9081,
      "duration": 0.0822,
      "velocity": 108,
      "chip": "ym2612"
    },
    {
      "channel": 3,
      "note": 82,
      "start": 18.909,
      "duration": 0.0311,
      "velocity": 115,
      "chip": "ym2612"
    },
    {
      "channel": 0,
      "note": 61,
      "start": 19.0071,
      "duration": 0.2519,
      "velocity": 82,
      "chip": "ym2612"
    },
    {
      "channel": 1,
      "note": 81,
      "start": 19.0082,
      "duration": 0.066,
      "velocity": 108,
      "chip": "ym2612"
    },
    {
      "channel": 2,
      "note": 60,
      "start": 19.0092,
      "duration": 0.082,
      "velocity": 108,
      "chip": "ym2612"
    },
    {
      "channel": 3,
      "note": 82,
      "start": 19.01,
      "duration": 0.0309,
      "velocity": 115,
      "chip": "ym2612"
    },
    {
      "channel": 5,
      "note": 67,
      "start": 19.0136,
      "duration": 0.1976,
      "velocity": 123,
      "chip": "ym2612"
    },
    {
      "channel": 1,
      "note": 77,
      "start": 19.1084,
      "duration": 0.0667,
      "velocity": 108,
      "chip": "ym2612"
    },
    {
      "channel": 2,
      "note": 60,
      "start": 19.1092,
      "duration": 0.0829,
      "velocity": 108,
      "chip": "ym2612"
    },
    {
      "channel": 3,
      "note": 79,
      "start": 19.1101,
      "duration": 0.0317,
      "velocity": 115,
      "chip": "ym2612"
    },
    {
      "channel": 1,
      "note": 74,
      "start": 19.2093,
      "duration": 0.0667,
      "velocity": 108,
      "chip": "ym2612"
    },
    {
      "channel": 2,
      "note": 46,
      "start": 19.2101,
      "duration": 0.0829,
      "velocity": 108,
      "chip": "ym2612"
    },
    {
      "channel": 3,
      "note": 75,
      "start": 19.2109,
      "duration": 0.0487,
      "velocity": 115,
      "chip": "ym2612"
    },
    {
      "channel": 5,
      "note": 105,
      "start": 19.2155,
      "duration": 0.1988,
      "velocity": 127,
      "chip": "ym2612"
    },
    {
      "channel": 1,
      "note": 74,
      "start": 19.3106,
      "duration": 0.0664,
      "velocity": 108,
      "chip": "ym2612"
    },
    {
      "channel": 2,
      "note": 46,
      "start": 19.3116,
      "duration": 0.0823,
      "velocity": 108,
      "chip": "ym2612"
    },
    {
      "channel": 0,
      "note": 66,
      "start": 19.4109,
      "duration": 0.2519,
      "velocity": 82,
      "chip": "ym2612"
    },
    {
      "channel": 1,
      "note": 75,
      "start": 19.412,
      "duration": 0.0659,
      "velocity": 108,
      "chip": "ym2612"
    },
    {
      "channel": 2,
      "note": 46,
      "start": 19.413,
      "duration": 0.0818,
      "velocity": 108,
      "chip": "ym2612"
    },
    {
      "channel": 3,
      "note": 68,
      "start": 19.414,
      "duration": 0.0305,
      "velocity": 115,
      "chip": "ym2612"
    },
    {
      "channel": 5,
      "note": 67,
      "start": 19.4174,
      "duration": 0.1976,
      "velocity": 123,
      "chip": "ym2612"
    },
    {
      "channel": 1,
      "note": 77,
      "start": 19.5121,
      "duration": 0.0667,
      "velocity": 108,
      "chip": "ym2612"
    },
    {
      "channel": 2,
      "note": 60,
      "start": 19.5129,
      "duration": 0.0829,
      "velocity": 108,
      "chip": "ym2612"
    },
    {
      "channel": 3,
      "note": 71,
      "start": 19.5137,
      "duration": 0.0318,
      "velocity": 115,
      "chip": "ym2612"
    },
    {
      "channel": 1,
      "note": 80,
      "start": 19.6131,
      "duration": 0.0667,
      "velocity": 108,
      "chip": "ym2612"
    },
    {
      "channel": 2,
      "note": 62,
      "start": 19.6138,
      "duration": 0.0829,
      "velocity": 108,
      "chip": "ym2612"
    },
    {
      "channel": 3,
      "note": 73,
      "start": 19.6147,
      "duration": 0.0317,
      "velocity": 115,
      "chip": "ym2612"
    },
    {
      "channel": 5,
      "note": 67,
      "start": 19.6192,
      "duration": 0.1978,
      "velocity": 123,
      "chip": "ym2612"
    },
    {
      "channel": 1,
      "note": 81,
      "start": 19.714,
      "duration": 0.0667,
      "velocity": 108,
      "chip": "ym2612"
    },
    {
      "channel": 2,
      "note": 67,
      "start": 19.7148,
      "duration": 0.0829,
      "velocity": 108,
      "chip": "ym2612"
    },
    {
      "channel": 3,
      "note": 75,
      "start": 19.7156,
      "duration": 0.0318,
      "velocity": 115,
      "chip": "ym2612"
    },
    {
      "channel": 1,
      "note": 83,
      "start": 19.8151,
      "duration": 0.0664,
      "velocity": 108,
      "chip": "ym2612"
    },
    {
      "channel": 2,
      "note": 71,
      "start": 19.8159,
      "duration": 0.0826,
      "velocity": 108,
      "chip": "ym2612"
    },
    {
      "channel": 3,
      "note": 76,
      "start": 19.8168,
      "duration": 0.0314,
      "velocity": 115,
      "chip": "ym2612"
    },
    {
      "channel": 1,
      "note": 83,
      "start": 19.9161,
      "duration": 0.1844,
      "velocity": 108,
      "chip": "ym2612"
    },
    {
      "channel": 2,
      "note": 71,
      "start": 19.9171,
      "duration": 0.2172,
      "velocity": 108,
      "chip": "ym2612"
    },
    {
      "channel": 5,
      "note": 70,
      "start": 20.0222,
      "duration": 0.2,
      "velocity": 118,
      "chip": "ym2612"
    },
    {
      "channel": 0,
      "note": 66,
      "start": 20.2186,
      "duration": 0.2524,
      "velocity": 82,
      "chip": "ym2612"
    },
    {
      "channel": 1,
      "note": 80,
      "start": 20.2198,
      "duration": 0.0661,
      "velocity": 108,
      "chip": "ym2612"
    },
    {
      "channel": 2,
      "note": 62,
      "start": 20.2209,
      "duration": 0.082,
      "velocity": 108,
      "chip": "ym2612"
    },
    {
      "channel": 3,
      "note": 81,
      "start": 20.2218,
      "duration": 0.0307,
      "velocity": 115,
      "chip": "ym2612"
    },
    {
      "channel": 5,
      "note": 38,
      "start": 20.2255,
      "duration": 0.198,
      "velocity": 127,
      "chip": "ym2612"
    },
    {
      "channel": 1,
      "note": 80,
      "start": 20.3204,
      "duration": 0.0664,
      "velocity": 108,
      "chip": "ym2612"
    },
    {
      "channel": 2,
      "note": 62,
      "start": 20.3215,
      "duration": 0.0823,
      "velocity": 108,
      "chip": "ym2612"
    },
    {
      "channel": 3,
      "note": 76,
      "start": 20.3224,
      "duration": 0.0312,
      "velocity": 115,
      "chip": "ym2612"
    },
    {
      "channel": 1,
      "note": 83,
      "start": 20.4214,
      "duration": 0.0666,
      "velocity": 108,
      "chip": "ym2612"
    },
    {
      "channel": 2,
      "note": 62,
      "start": 20.4224,
      "duration": 0.0826,
      "velocity": 108,
      "chip": "ym2612"
    },
    {
      "channel": 3,
      "note": 81,
      "start": 20.4232,
      "duration": 0.0312,
      "velocity": 115,
      "chip": "ym2612"
    },
    {
      "channel": 5,
      "note": 105,
      "start": 20.4274,
      "duration": 0.1988,
      "velocity": 127,
      "chip": "ym2612"
    },
    {
      "channel": 1,
      "note": 83,
      "start": 20.5226,
      "duration": 0.0664,
      "velocity": 108,
      "chip": "ym2612"
    },
    {
      "channel": 2,
      "note": 62,
      "start": 20.5236,
      "duration": 0.0823,
      "velocity": 108,
      "chip": "ym2612"
    },
    {
      "channel": 3,
      "note": 84,
      "start": 20.5248,
      "duration": 0.0309,
      "velocity": 115,
      "chip": "ym2612"
    },
    {
      "channel": 0,
      "note": 61,
      "start": 20.6229,
      "duration": 0.2519,
      "velocity": 82,
      "chip": "ym2612"
    },
    {
      "channel": 1,
      "note": 83,
      "start": 20.6239,
      "duration": 0.066,
      "velocity": 108,
      "chip": "ym2612"
    },
    {
      "channel": 2,
      "note": 62,
      "start": 20.6251,
      "duration": 0.0818,
      "velocity": 108,
      "chip": "ym2612"
    },
    {
      "channel": 3,
      "note": 84,
      "start": 20.6259,
      "duration": 0.0307,
      "velocity": 115,
      "chip": "ym2612"
    },
    {
      "channel": 5,
      "note": 67,
      "start": 20.6293,
      "duration": 0.1978,
      "velocity": 123,
      "chip": "ym2612"
    },
    {
      "channel": 1,
      "note": 80,
      "start": 20.7242,
      "duration": 0.0666,
      "velocity": 108,
      "chip": "ym2612"
    },
    {
      "channel": 2,
      "note": 62,
      "start": 20.7251,
      "duration": 0.0826,
      "velocity": 108,
      "chip": "ym2612"
    },
    {
      "channel": 3,
      "note": 81,
      "start": 20.7261,
      "duration": 0.0314,
      "velocity": 115,
      "chip": "ym2612"
    },
    {
      "channel": 1,
      "note": 75,
      "start": 20.8253,
      "duration": 0.0667,
      "velocity": 108,
      "chip": "ym2612"
    },
    {
      "channel": 2,
      "note": 46,
      "start": 20.826,
      "duration": 0.0829,
      "velocity": 108,
      "chip": "ym2612"
    },
    {
      "channel": 3,
      "note": 76,
      "start": 20.8268,
      "duration": 0.0318,
      "velocity": 115,
      "chip": "ym2612"
    },
    {
      "channel": 5,
      "note": 105,
      "start": 20.8312,
      "duration": 0.1989,
      "velocity": 127,
      "chip": "ym2612"
    },
    {
      "channel": 1,
      "note": 75,
      "start": 20.9265,
      "duration": 0.0665,
      "velocity": 108,
      "chip": "ym2612"
    },
    {
      "channel": 2,
      "note": 46,
      "start": 20.9275,
      "duration": 0.0824,
      "velocity": 108,
      "chip": "ym2612"
    },
    {
      "channel": 0,
      "note": 68,
      "start": 21.0269,
      "duration": 0.2519,
      "velocity": 82,
      "chip": "ym2612"
    },
    {
      "channel": 1,
      "note": 77,
      "start": 21.0279,
      "duration": 0.066,
      "velocity": 108,
      "chip": "ym2612"
    },
    {
      "channel": 2,
      "note": 60,
      "start": 21.0289,
      "duration": 0.0819,
      "velocity": 108,
      "chip": "ym2612"
    },
    {
      "channel": 3,
      "note": 79,
      "start": 21.0298,
      "duration": 0.0308,
      "velocity": 115,
      "chip": "ym2612"
    },
    {
      "channel": 5,
      "note": 38,
      "start": 21.0333,
      "duration": 0.1983,
      "velocity": 127,
      "chip": "ym2612"
    },
    {
      "channel": 1,
      "note": 77,
      "start": 21.1284,
      "duration": 0.0664,
      "velocity": 108,
      "chip": "ym2612"
    },
    {
      "channel": 2,
      "note": 60,
      "start": 21.1295,
      "duration": 0.0823,
      "velocity": 108,
      "chip": "ym2612"
    },
    {
      "channel": 3,
      "note": 71,
      "start": 21.1303,
      "duration": 0.0312,
      "velocity": 115,
      "chip": "ym2612"
    },
    {
      "channel": 1,
      "note": 81,
      "start": 21.2293,
      "duration": 0.0664,
      "velocity": 108,
      "chip": "ym2612"
    },
    {
      "channel": 2,
      "note": 60,
      "start": 21.2304,
      "duration": 0.0824,
      "velocity": 108,
      "chip": "ym2612"
    },
    {
      "channel": 3,
      "note": 79,
      "start": 21.2313,
      "duration": 0.0312,
      "velocity": 115,
      "chip": "ym2612"
    },
    {
      "channel": 5,
      "note": 105,
      "start": 21.2352,
      "duration": 0.1986,
      "velocity": 127,
      "chip": "ym2612"
    },
    {
      "channel": 1,
      "note": 81,
      "start": 21.3303,
      "duration": 0.0663,
      "velocity": 108,
      "chip": "ym2612"
    },
    {
      "channel": 2,
      "note": 60,
      "start": 21.3313,
      "duration": 0.0823,
      "velocity": 108,
      "chip": "ym2612"
    },
    {
      "channel": 3,
      "note": 82,
      "start": 21.3321,
      "duration": 0.0312,
      "velocity": 115,
      "chip": "ym2612"
    },
    {
      "channel": 0,
      "note": 61,
      "start": 21.4306,
      "duration": 0.2522,
      "velocity": 82,
      "chip": "ym2612"
    },
    {
      "channel": 1,
      "note": 81,
      "start": 21.4316,
      "duration": 0.0663,
      "velocity": 108,
      "chip": "ym2612"
    },
    {
      "channel": 2,
      "note": 60,
      "start": 21.4326,
      "duration": 0.0822,
      "velocity": 108,
      "chip": "ym2612"
    },
    {
      "channel": 3,
      "note": 82,
      "start": 21.4335,
      "duration": 0.0311,
      "velocity": 115,
      "chip": "ym2612"
    },
    {
      "channel": 5,
      "note": 67,
      "start": 21.4371,
      "duration": 0.1979,
      "velocity": 123,
      "chip": "ym2612"
    },
    {
      "channel": 1,
      "note": 77,
      "start": 21.5322,
      "duration": 0.0666,
      "velocity": 108,
      "chip": "ym2612"
    },
    {
      "channel": 2,
      "note": 60,
      "start": 21.5329,
      "duration": 0.0829,
      "velocity": 108,
      "chip": "ym2612"
    },
    {
      "channel": 3,
      "note": 79,
      "start": 21.5337,
      "duration": 0.0318,
      "velocity": 115,
      "chip": "ym2612"
    },
    {
      "channel": 1,
      "note": 74,
      "start": 21.6331,
      "duration": 0.0667,
      "velocity": 108,
      "chip": "ym2612"
    },
    {
      "channel": 2,
      "note": 46,
      "start": 21.6338,
      "duration": 0.0829,
      "velocity": 108,
      "chip": "ym2612"
    },
    {
      "channel": 3,
      "note": 75,
      "start": 21.6347,
      "duration": 0.0317,
      "velocity": 115,
      "chip": "ym2612"
    },
    {
      "channel": 5,
      "note": 105,
      "start": 21.6392,
      "duration": 0.1985,
      "velocity": 127,
      "chip": "ym2612"
    },
    {
      "channel": 1,
      "note": 74,
      "start": 21.7343,
      "duration": 0.0664,
      "velocity": 108,
      "chip": "ym2612"
    },
    {
      "channel": 2,
      "note": 46,
      "start": 21.7353,
      "duration": 0.0823,
      "velocity": 108,
      "chip": "ym2612"
    },
    {
      "channel": 0,
      "note": 66,
      "start": 21.8346,
      "duration": 0.2519,
      "velocity": 82,
      "chip": "ym2612"
    },
    {
      "channel": 1,
      "note": 75,
      "start": 21.8356,
      "duration": 0.066,
      "velocity": 108,
      "chip": "ym2612"
    },
    {
      "channel": 2,
      "note": 46,
      "start": 21.8366,
      "duration": 0.082,
      "velocity": 108,
      "chip": "ym2612"
    },
    {
      "channel": 3,
      "note": 68,
      "start": 21.8374,
      "duration": 0.0309,
      "velocity": 115,
      "chip": "ym2612"
    },
    {
      "channel": 5,
      "note": 38,
      "start": 21.841,
      "duration": 0.1976,
      "velocity": 127,
      "chip": "ym2612"
    },
    {
      "channel": 1,
      "note": 77,
      "start": 21.9359,
      "duration": 0.0667,
      "velocity": 108,
      "chip": "ym2612"
    },
    {
      "channel": 2,
      "note": 60,
      "start": 21.9366,
      "duration": 0.0829,
      "velocity": 108,
      "chip": "ym2612"
    },
    {
      "channel": 3,
      "note": 71,
      "start": 21.9376,
      "duration": 0.0317,
      "velocity": 115,
      "chip": "ym2612"
    },
    {
      "channel": 1,
      "note": 80,
      "start": 22.0368,
      "duration": 0.0666,
      "velocity": 108,
      "chip": "ym2612"
    },
    {
      "channel": 2,
      "note": 62,
      "start": 22.0375,
      "duration": 0.0829,
      "velocity": 108,
      "chip": "ym2612"
    },
    {
      "channel": 3,
      "note": 73,
      "start": 22.0383,
      "duration": 0.0318,
      "velocity": 115,
      "chip": "ym2612"
    },
    {
      "channel": 5,
      "note": 105,
      "start": 22.0429,
      "duration": 0.198,
      "velocity": 127,
      "chip": "ym2612"
    },
    {
      "channel": 1,
      "note": 81,
      "start": 22.1377,
      "duration": 0.0666,
      "velocity": 108,
      "chip": "ym2612"
    },
    {
      "channel": 2,
      "note": 67,
      "start": 22.1385,
      "duration": 0.0829,
      "velocity": 108,
      "chip": "ym2612"
    },
    {
      "channel": 3,
      "note": 75,
      "start": 22.1393,
      "duration": 0.0317,
      "velocity": 115,
      "chip": "ym2612"
    },
    {
      "channel": 0,
      "note": 61,
      "start": 22.2383,
      "duration": 0.2522,
      "velocity": 82,
      "chip": "ym2612"
    },
    {
      "channel": 1,
      "note": 83,
      "start": 22.2391,
      "duration": 0.0662,
      "velocity": 108,
      "chip": "ym2612"
    },
    {
      "channel": 2,
      "note": 71,
      "start": 22.2398,
      "duration": 0.0824,
      "velocity": 108,
      "chip": "ym2612"
    },
    {
      "channel": 3,
      "note": 76,
      "start": 22.2406,
      "duration": 0.0314,
      "velocity": 115,
      "chip": "ym2612"
    },
    {
      "channel": 5,
      "note": 67,
      "start": 22.2449,
      "duration": 0.1978,
      "velocity": 123,
      "chip": "ym2612"
    },
    {
      "channel": 1,
      "note": 83,
      "start": 22.3398,
      "duration": 0.0664,
      "velocity": 108,
      "chip": "ym2612"
    },
    {
      "channel": 1,
      "note": 69,
      "start": 22.4408,
      "duration": 0.0667,
      "velocity": 108,
      "chip": "ym2612"
    },
    {
      "channel": 2,
      "note": 21,
      "start": 22.4416,
      "duration": 0.0829,
      "velocity": 108,
      "chip": "ym2612"
    },
    {
      "channel": 3,
      "note": 68,
      "start": 22.4425,
      "duration": 0.0317,
      "velocity": 115,
      "chip": "ym2612"
    },
    {
      "channel": 5,
      "note": 105,
      "start": 22.4468,
      "duration": 0.199,
      "velocity": 127,
      "chip": "ym2612"
    },
    {
      "channel": 1,
      "note": 69,
      "start": 22.542,
      "duration": 0.0664,
      "velocity": 108,
      "chip": "ym2612"
    },
    {
      "channel": 2,
      "note": 21,
      "start": 22.543,
      "duration": 0.0823,
      "velocity": 108,
      "chip": "ym2612"
    },
    {
      "channel": 0,
      "note": 66,
      "start": 22.6423,
      "duration": 0.2519,
      "velocity": 82,
      "chip": "ym2612"
    },
    {
      "channel": 1,
      "note": 80,
      "start": 22.6434,
      "duration": 0.0659,
      "velocity": 108,
      "chip": "ym2612"
    },
    {
      "channel": 2,
      "note": 62,
      "start": 22.6446,
      "duration": 0.0817,
      "velocity": 108,
      "chip": "ym2612"
    },
    {
      "channel": 3,
      "note": 81,
      "start": 22.6455,
      "duration": 0.0305,
      "velocity": 115,
      "chip": "ym2612"
    },
    {
      "channel": 5,
      "note": 38,
      "start": 22.6488,
      "duration": 0.1983,
      "velocity": 127,
      "chip": "ym2612"
    },
    {
      "channel": 1,
      "note": 80,
      "start": 22.7439,
      "duration": 0.0663,
      "velocity": 108,
      "chip": "ym2612"
    },
    {
      "channel": 2,
      "note": 62,
      "start": 22.7451,
      "duration": 0.0821,
      "velocity": 108,
      "chip": "ym2612"
    },
    {
      "channel": 3,
      "note": 76,
      "start": 22.746,
      "duration": 0.0309,
      "velocity": 115,
      "chip": "ym2612"
    },
    {
      "channel": 1,
      "note": 83,
      "start": 22.845,
      "duration": 0.0663,
      "velocity": 108,
      "chip": "ym2612"
    },
    {
      "channel": 2,
      "note": 62,
      "start": 22.846,
      "duration": 0.0823,
      "velocity": 108,
      "chip": "ym2612"
    },
    {
      "channel": 3,
      "note": 81,
      "start": 22.8468,
      "duration": 0.0312,
      "velocity": 115,
      "chip": "ym2612"
    },
    {
      "channel": 5,
      "note": 105,
      "start": 22.8507,
      "duration": 0.1985,
      "velocity": 127,
      "chip": "ym2612"
    },
    {
      "channel": 1,
      "note": 83,
      "start": 22.9459,
      "duration": 0.0662,
      "velocity": 108,
      "chip": "ym2612"
    },
    {
      "channel": 2,
      "note": 62,
      "start": 22.9469,
      "duration": 0.0821,
      "velocity": 108,
      "chip": "ym2612"
    },
    {
      "channel": 3,
      "note": 84,
      "start": 22.9478,
      "duration": 0.031,
      "velocity": 115,
      "chip": "ym2612"
    },
    {
      "channel": 0,
      "note": 61,
      "start": 23.046,
      "duration": 0.2519,
      "velocity": 82,
      "chip": "ym2612"
    },
    {
      "channel": 1,
      "note": 83,
      "start": 23.047,
      "duration": 0.066,
      "velocity": 108,
      "chip": "ym2612"
    },
    {
      "channel": 2,
      "note": 62,
      "start": 23.048,
      "duration": 0.082,
      "velocity": 108,
      "chip": "ym2612"
    },
    {
      "channel": 3,
      "note": 84,
      "start": 23.0488,
      "duration": 0.0309,
      "velocity": 115,
      "chip": "ym2612"
    },
    {
      "channel": 5,
      "note": 67,
      "start": 23.0525,
      "duration": 0.1976,
      "velocity": 123,
      "chip": "ym2612"
    },
    {
      "channel": 1,
      "note": 80,
      "start": 23.1473,
      "duration": 0.0666,
      "velocity": 108,
      "chip": "ym2612"
    },
    {
      "channel": 2,
      "note": 62,
      "start": 23.148,
      "duration": 0.0829,
      "velocity": 108,
      "chip": "ym2612"
    },
    {
      "channel": 3,
      "note": 81,
      "start": 23.149,
      "duration": 0.0317,
      "velocity": 115,
      "chip": "ym2612"
    },
    {
      "channel": 1,
      "note": 75,
      "start": 23.2482,
      "duration": 0.0667,
      "velocity": 108,
      "chip": "ym2612"
    },
    {
      "channel": 2,
      "note": 46,
      "start": 23.2489,
      "duration": 0.0829,
      "velocity": 108,
      "chip": "ym2612"
    },
    {
      "channel": 3,
      "note": 76,
      "start": 23.2497,
      "duration": 0.0319,
      "velocity": 115,
      "chip": "ym2612"
    },
    {
      "channel": 5,
      "note": 105,
      "start": 23.2543,
      "duration": 0.1987,
      "velocity": 127,
      "chip": "ym2612"
    },
    {
      "channel": 1,
      "note": 75,
      "start": 23.3494,
      "duration": 0.0664,
      "velocity": 108,
      "chip": "ym2612"
    },
    {
      "channel": 2,
      "note": 46,
      "start": 23.3504,
      "duration": 0.0823,
      "velocity": 108,
      "chip": "ym2612"
    },
    {
      "channel": 0,
      "note": 68,
      "start": 23.4497,
      "duration": 0.2519,
      "velocity": 82,
      "chip": "ym2612"
    },
    {
      "channel": 1,
      "note": 77,
      "start": 23.4507,
      "duration": 0.066,
      "velocity": 108,
      "chip": "ym2612"
    },
    {
      "channel": 2,
      "note": 60,
      "start": 23.4517,
      "duration": 0.0819,
      "velocity": 108,
      "chip": "ym2612"
    },
    {
      "channel": 3,
      "note": 79,
      "start": 23.4527,
      "duration": 0.0307,
      "velocity": 115,
      "chip": "ym2612"
    },
    {
      "channel": 5,
      "note": 38,
      "start": 23.4561,
      "duration": 0.1983,
      "velocity": 127,
      "chip": "ym2612"
    },
    {
      "channel": 1,
      "note": 77,
      "start": 23.5512,
      "duration": 0.0664,
      "velocity": 108,
      "chip": "ym2612"
    },
    {
      "channel": 2,
      "note": 60,
      "start": 23.5523,
      "duration": 0.0823,
      "velocity": 108,
      "chip": "ym2612"
    },
    {
      "channel": 3,
      "note": 71,
      "start": 23.5531,
      "duration": 0.0312,
      "velocity": 115,
      "chip": "ym2612"
    },
    {
      "channel": 1,
      "note": 81,
      "start": 23.6522,
      "duration": 0.0664,
      "velocity": 108,
      "chip": "ym2612"
    },
    {
      "channel": 2,
      "note": 60,
      "start": 23.6532,
      "duration": 0.0824,
      "velocity": 108,
      "chip": "ym2612"
    },
    {
      "channel": 3,
      "note": 79,
      "start": 23.6541,
      "duration": 0.0312,
      "velocity": 115,
      "chip": "ym2612"
    },
    {
      "channel": 5,
      "note": 105,
      "start": 23.658,
      "duration": 0.1986,
      "velocity": 127,
      "chip": "ym2612"
    },
    {
      "channel": 1,
      "note": 81,
      "start": 23.7531,
      "duration": 0.0663,
      "velocity": 108,
      "chip": "ym2612"
    },
    {
      "channel": 2,
      "note": 60,
      "start": 23.7541,
      "duration": 0.0823,
      "velocity": 108,
      "chip": "ym2612"
    },
    {
      "channel": 3,
      "note": 82,
      "start": 23.7549,
      "duration": 0.0312,
      "velocity": 115,
      "chip": "ym2612"
    },
    {
      "channel": 0,
      "note": 61,
      "start": 23.8534,
      "duration": 0.2522,
      "velocity": 82,
      "chip": "ym2612"
    },
    {
      "channel": 1,
      "note": 81,
      "start": 23.8544,
      "duration": 0.066,
      "velocity": 108,
      "chip": "ym2612"
    },
    {
      "channel": 2,
      "note": 60,
      "start": 23.8554,
      "duration": 0.082,
      "velocity": 108,
      "chip": "ym2612"
    },
    {
      "channel": 3,
      "note": 82,
      "start": 23.8563,
      "duration": 0.0308,
      "velocity": 115,
      "chip": "ym2612"
    },
    {
      "channel": 5,
      "note": 67,
      "start": 23.8598,
      "duration": 0.198,
      "velocity": 123,
      "chip": "ym2612"
    },
    {
      "channel": 1,
      "note": 77,
      "start": 23.9547,
      "duration": 0.0669,
      "velocity": 108,
      "chip": "ym2612"
    },
    {
      "channel": 2,
      "note": 60,
      "start": 23.9554,
      "duration": 0.0832,
      "velocity": 108,
      "chip": "ym2612"
    },
    {
      "channel": 3,
      "note": 79,
      "start": 23.9562,
      "duration": 0.0318,
      "velocity": 115,
      "chip": "ym2612"
    },
    {
      "channel": 1,
      "note": 74,
      "start": 24.0559,
      "duration": 0.0667,
      "velocity": 108,
      "chip": "ym2612"
    },
    {
      "channel": 2,
      "note": 46,
      "start": 24.0566,
      "duration": 0.0829,
      "velocity": 108,
      "chip": "ym2612"
    },
    {
      "channel": 3,
      "note": 75,
      "start": 24.0576,
      "duration": 0.0486,
      "velocity": 115,
      "chip": "ym2612"
    },
    {
      "channel": 5,
      "note": 105,
      "start": 24.062,
      "duration": 0.2013,
      "velocity": 127,
      "chip": "ym2612"
    },
    {
      "channel": 1,
      "note": 74,
      "start": 24.1571,
      "duration": 0.0664,
      "velocity": 108,
      "chip": "ym2612"
    },
    {
      "channel": 2,
      "note": 46,
      "start": 24.1581,
      "duration": 0.0823,
      "velocity": 108,
      "chip": "ym2612"
    },
    {
      "channel": 0,
      "note": 66,
      "start": 24.2574,
      "duration": 0.2546,
      "velocity": 82,
      "chip": "ym2612"
    },
    {
      "channel": 1,
      "note": 75,
      "start": 24.2587,
      "duration": 0.0852,
      "velocity": 108,
      "chip": "ym2612"
    },
    {
      "channel": 2,
      "note": 60,
      "start": 24.2603,
      "duration": 0.0838,
      "velocity": 108,
      "chip": "ym2612"
    },
    {
      "channel": 3,
      "note": 84,
      "start": 24.2631,
      "duration": 0.0813,
      "velocity": 108,
      "chip": "ym2612"
    },
    {
      "channel": 5,
      "note": 67,
      "start": 24.2664,
      "duration": 0.1981,
      "velocity": 123,
      "chip": "ym2612"
    },
    {
      "channel": 1,
      "note": 77,
      "start": 24.3614,
      "duration": 0.0834,
      "velocity": 108,
      "chip": "ym2612"
    },
    {
      "channel": 2,
      "note": 65,
      "start": 24.3622,
      "duration": 0.0828,
      "velocity": 108,
      "chip": "ym2612"
    },
    {
      "channel": 3,
      "note": 86,
      "start": 24.3634,
      "duration": 0.0819,
      "velocity": 108,
      "chip": "ym2612"
    },
    {
      "channel": 1,
      "note": 80,
      "start": 24.4623,
      "duration": 0.0834,
      "velocity": 108,
      "chip": "ym2612"
    },
    {
      "channel": 2,
      "note": 69,
      "start": 24.4634,
      "duration": 0.0826,
      "velocity": 108,
      "chip": "ym2612"
    },
    {
      "channel": 3,
      "note": 88,
      "start": 24.4642,
      "duration": 0.082,
      "velocity": 108,
      "chip": "ym2612"
    },
    {
      "channel": 5,
      "note": 67,
      "start": 24.4684,
      "duration": 0.0971,
      "velocity": 123,
      "chip": "ym2612"
    },
    {
      "channel": 1,
      "note": 81,
      "start": 24.5635,
      "duration": 0.0834,
      "velocity": 108,
      "chip": "ym2612"
    },
    {
      "channel": 2,
      "note": 71,
      "start": 24.5643,
      "duration": 0.0828,
      "velocity": 108,
      "chip": "ym2612"
    },
    {
      "channel": 3,
      "note": 89,
      "start": 24.5653,
      "duration": 0.0821,
      "velocity": 108,
      "chip": "ym2612"
    },
    {
      "channel": 5,
      "note": 67,
      "start": 24.5694,
      "duration": 0.0973,
      "velocity": 123,
      "chip": "ym2612"
    },
    {
      "channel": 1,
      "note": 83,
      "start": 24.6646,
      "duration": 1.5133,
      "velocity": 108,
      "chip": "ym2612"
    },
    {
      "channel": 2,
      "note": 74,
      "start": 24.6655,
      "duration": 1.597,
      "velocity": 108,
      "chip": "ym2612"
    },
    {
      "channel": 3,
      "note": 91,
      "start": 24.6664,
      "duration": 1.411,
      "velocity": 108,
      "chip": "ym2612"
    },
    {
      "channel": 5,
      "note": 38,
      "start": 24.6702,
      "duration": 0.3346,
      "velocity": 127,
      "chip": "ym2612"
    },
    {
      "channel": 5,
      "note": 67,
      "start": 25.0734,
      "duration": 0.3987,
      "velocity": 127,
      "chip": "ym2612"
    },
    {
      "channel": 5,
      "note": 60,
      "start": 25.4774,
      "duration": 0.3985,
      "velocity": 127,
      "chip": "ym2612"
    },
    {
      "channel": 5,
      "note": 67,
      "start": 25.8811,
      "duration": 0.0956,
      "velocity": 123,
      "chip": "ym2612"
    },
    {
      "channel": 5,
      "note": 67,
      "start": 25.9822,
      "duration": 0.0955,
      "velocity": 123,
      "chip": "ym2612"
    },
    {
      "channel": 5,
      "note": 67,
      "start": 26.0831,
      "duration": 0.0955,
      "velocity": 123,
      "chip": "ym2612"
    },
    {
      "channel": 5,
      "note": 67,
      "start": 26.1841,
      "duration": 0.1031,
      "velocity": 123,
      "chip": "ym2612"
    },
    {
      "channel": 0,
      "note": 63,
      "start": 26.28,
      "duration": 0.2051,
      "velocity": 82,
      "chip": "ym2612"
    },
    {
      "channel": 1,
      "note": 76,
      "start": 26.2817,
      "duration": 0.069,
      "velocity": 108,
      "chip": "ym2612"
    },
    {
      "channel": 2,
      "note": 73,
      "start": 26.2837,
      "duration": 0.084,
      "velocity": 108,
      "chip": "ym2612"
    },
    {
      "channel": 3,
      "note": 90,
      "start": 26.2866,
      "duration": 0.0308,
      "velocity": 115,
      "chip": "ym2612"
    },
    {
      "channel": 5,
      "note": 38,
      "start": 26.2902,
      "duration": 0.1982,
      "velocity": 127,
      "chip": "ym2612"
    },
    {
      "channel": 1,
      "note": 76,
      "start": 26.3853,
      "duration": 0.0664,
      "velocity": 108,
      "chip": "ym2612"
    },
    {
      "channel": 2,
      "note": 73,
      "start": 26.3863,
      "duration": 0.0823,
      "velocity": 108,
      "chip": "ym2612"
    },
    {
      "channel": 3,
      "note": 86,
      "start": 26.3871,
      "duration": 0.0312,
      "velocity": 115,
      "chip": "ym2612"
    },
    {
      "channel": 1,
      "note": 80,
      "start": 26.4863,
      "duration": 0.0663,
      "velocity": 108,
      "chip": "ym2612"
    },
    {
      "channel": 2,
      "note": 73,
      "start": 26.4873,
      "duration": 0.0823,
      "velocity": 108,
      "chip": "ym2612"
    },
    {
      "channel": 3,
      "note": 90,
      "start": 26.4882,
      "duration": 0.0311,
      "velocity": 115,
      "chip": "ym2612"
    },
    {
      "channel": 5,
      "note": 105,
      "start": 26.4921,
      "duration": 0.1986,
      "velocity": 127,
      "chip": "ym2612"
    },
    {
      "channel": 1,
      "note": 80,
      "start": 26.5871,
      "duration": 0.0664,
      "velocity": 108,
      "chip": "ym2612"
    },
    {
      "channel": 2,
      "note": 73,
      "start": 26.5882,
      "duration": 0.0823,
      "velocity": 108,
      "chip": "ym2612"
    },
    {
      "channel": 3,
      "note": 93,
      "start": 26.589,
      "duration": 0.0312,
      "velocity": 115,
      "chip": "ym2612"
    },
    {
      "channel": 0,
      "note": 58,
      "start": 26.6874,
      "duration": 0.2017,
      "velocity": 82,
      "chip": "ym2612"
    },
    {
      "channel": 1,
      "note": 80,
      "start": 26.6884,
      "duration": 0.0663,
      "velocity": 108,
      "chip": "ym2612"
    },
    {
      "channel": 2,
      "note": 73,
      "start": 26.6895,
      "duration": 0.0822,
      "velocity": 108,
      "chip": "ym2612"
    },
    {
      "channel": 3,
      "note": 93,
      "start": 26.6904,
      "duration": 0.0311,
      "velocity": 115,
      "chip": "ym2612"
    },
    {
      "channel": 5,
      "note": 67,
      "start": 26.6939,
      "duration": 0.198,
      "velocity": 123,
      "chip": "ym2612"
    },
    {
      "channel": 1,
      "note": 76,
      "start": 26.789,
      "duration": 0.0666,
      "velocity": 108,
      "chip": "ym2612"
    },
    {
      "channel": 2,
      "note": 73,
      "start": 26.7898,
      "duration": 0.0829,
      "velocity": 108,
      "chip": "ym2612"
    },
    {
      "channel": 3,
      "note": 90,
      "start": 26.7906,
      "duration": 0.0317,
      "velocity": 115,
      "chip": "ym2612"
    },
    {
      "channel": 1,
      "note": 71,
      "start": 26.8899,
      "duration": 0.0666,
      "velocity": 108,
      "chip": "ym2612"
    },
    {
      "channel": 2,
      "note": 68,
      "start": 26.8907,
      "duration": 0.0829,
      "velocity": 108,
      "chip": "ym2612"
    },
    {
      "channel": 3,
      "note": 86,
      "start": 26.8916,
      "duration": 0.0317,
      "velocity": 115,
      "chip": "ym2612"
    },
    {
      "channel": 5,
      "note": 105,
      "start": 26.8961,
      "duration": 0.1985,
      "velocity": 127,
      "chip": "ym2612"
    },
    {
      "channel": 1,
      "note": 71,
      "start": 26.9911,
      "duration": 0.0664,
      "velocity": 108,
      "chip": "ym2612"
    },
    {
      "channel": 2,
      "note": 68,
      "start": 26.9922,
      "duration": 0.0823,
      "velocity": 108,
      "chip": "ym2612"
    },
    {
      "channel": 0,
      "note": 65,
      "start": 27.0914,
      "duration": 0.2015,
      "velocity": 82,
      "chip": "ym2612"
    },
    {
      "channel": 1,
      "note": 74,
      "start": 27.0924,
      "duration": 0.066,
      "velocity": 108,
      "chip": "ym2612"
    },
    {
      "channel": 2,
      "note": 72,
      "start": 27.0934,
      "duration": 0.082,
      "velocity": 108,
      "chip": "ym2612"
    },
    {
      "channel": 3,
      "note": 88,
      "start": 27.0942,
      "duration": 0.0309,
      "velocity": 115,
      "chip": "ym2612"
    },
    {
      "channel": 5,
      "note": 38,
      "start": 27.0978,
      "duration": 0.1982,
      "velocity": 127,
      "chip": "ym2612"
    },
    {
      "channel": 1,
      "note": 74,
      "start": 27.193,
      "duration": 0.0664,
      "velocity": 108,
      "chip": "ym2612"
    },
    {
      "channel": 2,
      "note": 72,
      "start": 27.194,
      "duration": 0.0823,
      "velocity": 108,
      "chip": "ym2612"
    },
    {
      "channel": 3,
      "note": 81,
      "start": 27.1949,
      "duration": 0.0312,
      "velocity": 115,
      "chip": "ym2612"
    },
    {
      "channel": 1,
      "note": 77,
      "start": 27.2939,
      "duration": 0.0663,
      "velocity": 108,
      "chip": "ym2612"
    },
    {
      "channel": 2,
      "note": 72,
      "start": 27.2949,
      "duration": 0.0823,
      "velocity": 108,
      "chip": "ym2612"
    },
    {
      "channel": 3,
      "note": 88,
      "start": 27.2957,
      "duration": 0.0312,
      "velocity": 115,
      "chip": "ym2612"
    },
    {
      "channel": 5,
      "note": 105,
      "start": 27.2998,
      "duration": 0.1985,
      "velocity": 127,
      "chip": "ym2612"
    },
    {
      "channel": 1,
      "note": 77,
      "start": 27.3948,
      "duration": 0.0664,
      "velocity": 108,
      "chip": "ym2612"
    },
    {
      "channel": 2,
      "note": 72,
      "start": 27.3959,
      "duration": 0.0823,
      "velocity": 108,
      "chip": "ym2612"
    },
    {
      "channel": 3,
      "note": 91,
      "start": 27.3968,
      "duration": 0.0311,
      "velocity": 115,
      "chip": "ym2612"
    },
    {
      "channel": 0,
      "note": 58,
      "start": 27.4951,
      "duration": 0.2015,
      "velocity": 82,
      "chip": "ym2612"
    },
    {
      "channel": 1,
      "note": 77,
      "start": 27.4961,
      "duration": 0.066,
      "velocity": 108,
      "chip": "ym2612"
    },
    {
      "channel": 2,
      "note": 72,
      "start": 27.4971,
      "duration": 0.082,
      "velocity": 108,
      "chip": "ym2612"
    },
    {
      "channel": 3,
      "note": 91,
      "start": 27.498,
      "duration": 0.0309,
      "velocity": 115,
      "chip": "ym2612"
    },
    {
      "channel": 5,
      "note": 67,
      "start": 27.5017,
      "duration": 0.1975,
      "velocity": 123,
      "chip": "ym2612"
    },
    {
      "channel": 1,
      "note": 74,
      "start": 27.5964,
      "duration": 0.0667,
      "velocity": 108,
      "chip": "ym2612"
    },
    {
      "channel": 2,
      "note": 72,
      "start": 27.5971,
      "duration": 0.0829,
      "velocity": 108,
      "chip": "ym2612"
    },
    {
      "channel": 3,
      "note": 88,
      "start": 27.5981,
      "duration": 0.0317,
      "velocity": 115,
      "chip": "ym2612"
    },
    {
      "channel": 1,
      "note": 70,
      "start": 27.6973,
      "duration": 0.0666,
      "velocity": 108,
      "chip": "ym2612"
    },
    {
      "channel": 2,
      "note": 68,
      "start": 27.6981,
      "duration": 0.0829,
      "velocity": 108,
      "chip": "ym2612"
    },
    {
      "channel": 3,
      "note": 85,
      "start": 27.6989,
      "duration": 0.0318,
      "velocity": 115,
      "chip": "ym2612"
    },
    {
      "channel": 5,
      "note": 105,
      "start": 27.7036,
      "duration": 0.1986,
      "velocity": 127,
      "chip": "ym2612"
    },
    {
      "channel": 1,
      "note": 70,
      "start": 27.7985,
      "duration": 0.0664,
      "velocity": 108,
      "chip": "ym2612"
    },
    {
      "channel": 2,
      "note": 68,
      "start": 27.7996,
      "duration": 0.0823,
      "velocity": 108,
      "chip": "ym2612"
    },
    {
      "channel": 0,
      "note": 63,
      "start": 27.8988,
      "duration": 0.2014,
      "velocity": 82,
      "chip": "ym2612"
    },
    {
      "channel": 1,
      "note": 71,
      "start": 27.8998,
      "duration": 0.066,
      "velocity": 108,
      "chip": "ym2612"
    },
    {
      "channel": 2,
      "note": 68,
      "start": 27.901,
      "duration": 0.0818,
      "velocity": 108,
      "chip": "ym2612"
    },
    {
      "channel": 3,
      "note": 77,
      "start": 27.9019,
      "duration": 0.0306,
      "velocity": 115,
      "chip": "ym2612"
    },
    {
      "channel": 5,
      "note": 38,
      "start": 27.9053,
      "duration": 0.1978,
      "velocity": 127,
      "chip": "ym2612"
    },
    {
      "channel": 1,
      "note": 74,
      "start": 28.0001,
      "duration": 0.0667,
      "velocity": 108,
      "chip": "ym2612"
    },
    {
      "channel": 2,
      "note": 72,
      "start": 28.0008,
      "duration": 0.0829,
      "velocity": 108,
      "chip": "ym2612"
    },
    {
      "channel": 3,
      "note": 81,
      "start": 28.0018,
      "duration": 0.0317,
      "velocity": 115,
      "chip": "ym2612"
    },
    {
      "channel": 1,
      "note": 76,
      "start": 28.1012,
      "duration": 0.0665,
      "velocity": 108,
      "chip": "ym2612"
    },
    {
      "channel": 2,
      "note": 73,
      "start": 28.1019,
      "duration": 0.0829,
      "velocity": 108,
      "chip": "ym2612"
    },
    {
      "channel": 3,
      "note": 83,
      "start": 28.1028,
      "duration": 0.0317,
      "velocity": 115,
      "chip": "ym2612"
    },
    {
      "channel": 5,
      "note": 105,
      "start": 28.1072,
      "duration": 0.1981,
      "velocity": 127,
      "chip": "ym2612"
    },
    {
      "channel": 1,
      "note": 77,
      "start": 28.2021,
      "duration": 0.0665,
      "velocity": 108,
      "chip": "ym2612"
    },
    {
      "channel": 2,
      "note": 75,
      "start": 28.2029,
      "duration": 0.0827,
      "velocity": 108,
      "chip": "ym2612"
    },
    {
      "channel": 3,
      "note": 85,
      "start": 28.2037,
      "duration": 0.0318,
      "velocity": 115,
      "chip": "ym2612"
    },
    {
      "channel": 0,
      "note": 58,
      "start": 28.3025,
      "duration": 0.2014,
      "velocity": 82,
      "chip": "ym2612"
    },
    {
      "channel": 1,
      "note": 80,
      "start": 28.3033,
      "duration": 0.0662,
      "velocity": 108,
      "chip": "ym2612"
    },
    {
      "channel": 2,
      "note": 78,
      "start": 28.3041,
      "duration": 0.0824,
      "velocity": 108,
      "chip": "ym2612"
    },
    {
      "channel": 3,
      "note": 86,
      "start": 28.305,
      "duration": 0.0312,
      "velocity": 115,
      "chip": "ym2612"
    },
    {
      "channel": 5,
      "note": 67,
      "start": 28.309,
      "duration": 0.198,
      "velocity": 123,
      "chip": "ym2612"
    },
    {
      "channel": 1,
      "note": 80,
      "start": 28.4041,
      "duration": 0.0664,
      "velocity": 108,
      "chip": "ym2612"
    },
    {
      "channel": 1,
      "note": 65,
      "start": 28.5051,
      "duration": 0.0663,
      "velocity": 108,
      "chip": "ym2612"
    },
    {
      "channel": 2,
      "note": 64,
      "start": 28.5058,
      "duration": 0.0825,
      "velocity": 108,
      "chip": "ym2612"
    },
    {
      "channel": 3,
      "note": 77,
      "start": 28.5067,
      "duration": 0.0314,
      "velocity": 115,
      "chip": "ym2612"
    },
    {
      "channel": 5,
      "note": 105,
      "start": 28.5108,
      "duration": 0.1987,
      "velocity": 127,
      "chip": "ym2612"
    },
    {
      "channel": 1,
      "note": 65,
      "start": 28.6059,
      "duration": 0.0664,
      "velocity": 108,
      "chip": "ym2612"
    },
    {
      "channel": 2,
      "note": 64,
      "start": 28.607,
      "duration": 0.0823,
      "velocity": 108,
      "chip": "ym2612"
    },
    {
      "channel": 0,
      "note": 63,
      "start": 28.7062,
      "duration": 0.2017,
      "velocity": 82,
      "chip": "ym2612"
    },
    {
      "channel": 1,
      "note": 76,
      "start": 28.7073,
      "duration": 0.0663,
      "velocity": 108,
      "chip": "ym2612"
    },
    {
      "channel": 2,
      "note": 73,
      "start": 28.7083,
      "duration": 0.0822,
      "velocity": 108,
      "chip": "ym2612"
    },
    {
      "channel": 3,
      "note": 90,
      "start": 28.7093,
      "duration": 0.0307,
      "velocity": 115,
      "chip": "ym2612"
    },
    {
      "channel": 5,
      "note": 38,
      "start": 28.7127,
      "duration": 0.1986,
      "velocity": 127,
      "chip": "ym2612"
    },
    {
      "channel": 1,
      "note": 76,
      "start": 28.8081,
      "duration": 0.0664,
      "velocity": 108,
      "chip": "ym2612"
    },
    {
      "channel": 2,
      "note": 73,
      "start": 28.8091,
      "duration": 0.0823,
      "velocity": 108,
      "chip": "ym2612"
    },
    {
      "channel": 3,
      "note": 86,
      "start": 28.8099,
      "duration": 0.0312,
      "velocity": 115,
      "chip": "ym2612"
    },
    {
      "channel": 1,
      "note": 80,
      "start": 28.9091,
      "duration": 0.0663,
      "velocity": 108,
      "chip": "ym2612"
    },
    {
      "channel": 2,
      "note": 73,
      "start": 28.9101,
      "duration": 0.0823,
      "velocity": 108,
      "chip": "ym2612"
    },
    {
      "channel": 3,
      "note": 90,
      "start": 28.911,
      "duration": 0.0311,
      "velocity": 115,
      "chip": "ym2612"
    },
    {
      "channel": 5,
      "note": 105,
      "start": 28.9149,
      "duration": 0.1986,
      "velocity": 127,
      "chip": "ym2612"
    },
    {
      "channel": 1,
      "note": 80,
      "start": 29.0099,
      "duration": 0.0664,
      "velocity": 108,
      "chip": "ym2612"
    },
    {
      "channel": 2,
      "note": 73,
      "start": 29.011,
      "duration": 0.0823,
      "velocity": 108,
      "chip": "ym2612"
    },
    {
      "channel": 3,
      "note": 93,
      "start": 29.0118,
      "duration": 0.0312,
      "velocity": 115,
      "chip": "ym2612"
    },
    {
      "channel": 0,
      "note": 58,
      "start": 29.1102,
      "duration": 0.2017,
      "velocity": 82,
      "chip": "ym2612"
    },
    {
      "channel": 1,
      "note": 80,
      "start": 29.1112,
      "duration": 0.066,
      "velocity": 108,
      "chip": "ym2612"
    },
    {
      "channel": 2,
      "note": 73,
      "start": 29.1123,
      "duration": 0.082,
      "velocity": 108,
      "chip": "ym2612"
    },
    {
      "channel": 3,
      "note": 93,
      "start": 29.1132,
      "duration": 0.0307,
      "velocity": 115,
      "chip": "ym2612"
    },
    {
      "channel": 5,
      "note": 67,
      "start": 29.1167,
      "duration": 0.198,
      "velocity": 123,
      "chip": "ym2612"
    },
    {
      "channel": 1,
      "note": 76,
      "start": 29.2115,
      "duration": 0.0669,
      "velocity": 108,
      "chip": "ym2612"
    },
    {
      "channel": 2,
      "note": 73,
      "start": 29.2123,
      "duration": 0.0832,
      "velocity": 108,
      "chip": "ym2612"
    },
    {
      "channel": 3,
      "note": 90,
      "start": 29.2131,
      "duration": 0.0317,
      "velocity": 115,
      "chip": "ym2612"
    },
    {
      "channel": 1,
      "note": 71,
      "start": 29.3127,
      "duration": 0.0666,
      "velocity": 108,
      "chip": "ym2612"
    },
    {
      "channel": 2,
      "note": 68,
      "start": 29.3135,
      "duration": 0.0829,
      "velocity": 108,
      "chip": "ym2612"
    },
    {
      "channel": 3,
      "note": 86,
      "start": 29.3144,
      "duration": 0.0317,
      "velocity": 115,
      "chip": "ym2612"
    },
    {
      "channel": 5,
      "note": 105,
      "start": 29.3189,
      "duration": 0.1985,
      "velocity": 127,
      "chip": "ym2612"
    },
    {
      "channel": 1,
      "note": 71,
      "start": 29.4139,
      "duration": 0.0664,
      "velocity": 108,
      "chip": "ym2612"
    },
    {
      "channel": 2,
      "note": 68,
      "start": 29.415,
      "duration": 0.0823,
      "velocity": 108,
      "chip": "ym2612"
    },
    {
      "channel": 0,
      "note": 65,
      "start": 29.5142,
      "duration": 0.2014,
      "velocity": 82,
      "chip": "ym2612"
    },
    {
      "channel": 1,
      "note": 74,
      "start": 29.5152,
      "duration": 0.066,
      "velocity": 108,
      "chip": "ym2612"
    },
    {
      "channel": 2,
      "note": 72,
      "start": 29.5163,
      "duration": 0.082,
      "velocity": 108,
      "chip": "ym2612"
    },
    {
      "channel": 3,
      "note": 88,
      "start": 29.5171,
      "duration": 0.0309,
      "velocity": 115,
      "chip": "ym2612"
    },
    {
      "channel": 5,
      "note": 67,
      "start": 29.5209,
      "duration": 0.198,
      "velocity": 123,
      "chip": "ym2612"
    },
    {
      "channel": 1,
      "note": 74,
      "start": 29.6158,
      "duration": 0.0664,
      "velocity": 108,
      "chip": "ym2612"
    },
    {
      "channel": 2,
      "note": 72,
      "start": 29.6168,
      "duration": 0.0823,
      "velocity": 108,
      "chip": "ym2612"
    },
    {
      "channel": 3,
      "note": 81,
      "start": 29.6177,
      "duration": 0.0312,
      "velocity": 115,
      "chip": "ym2612"
    },
    {
      "channel": 1,
      "note": 77,
      "start": 29.7167,
      "duration": 0.0666,
      "velocity": 108,
      "chip": "ym2612"
    },
    {
      "channel": 2,
      "note": 72,
      "start": 29.7178,
      "duration": 0.0826,
      "velocity": 108,
      "chip": "ym2612"
    },
    {
      "channel": 3,
      "note": 88,
      "start": 29.7185,
      "duration": 0.0312,
      "velocity": 115,
      "chip": "ym2612"
    },
    {
      "channel": 5,
      "note": 105,
      "start": 29.7228,
      "duration": 0.1988,
      "velocity": 127,
      "chip": "ym2612"
    },
    {
      "channel": 1,
      "note": 77,
      "start": 29.8179,
      "duration": 0.0664,
      "velocity": 108,
      "chip": "ym2612"
    },
    {
      "channel": 2,
      "note": 72,
      "start": 29.819,
      "duration": 0.0823,
      "velocity": 108,
      "chip": "ym2612"
    },
    {
      "channel": 3,
      "note": 91,
      "start": 29.8201,
      "duration": 0.0309,
      "velocity": 115,
      "chip": "ym2612"
    },
    {
      "channel": 0,
      "note": 58,
      "start": 29.9182,
      "duration": 0.2014,
      "velocity": 82,
      "chip": "ym2612"
    },
    {
      "channel": 1,
      "note": 77,
      "start": 29.9192,
      "duration": 0.066,
      "velocity": 108,
      "chip": "ym2612"
    },
    {
      "channel": 2,
      "note": 72,
      "start": 29.9205,
      "duration": 0.0818,
      "velocity": 108,
      "chip": "ym2612"
    },
    {
      "channel": 3,
      "note": 91,
      "start": 29.9213,
      "duration": 0.0307,
      "velocity": 115,
      "chip": "ym2612"
    },
    {
      "channel": 5,
      "note": 67,
      "start": 29.9247,
      "duration": 0.1978,
      "velocity": 123,
      "chip": "ym2612"
    },
    {
      "channel": 1,
      "note": 74,
      "start": 30.0195,
      "duration": 0.0667,
      "velocity": 108,
      "chip": "ym2612"
    },
    {
      "channel": 2,
      "note": 72,
      "start": 30.0204,
      "duration": 0.0827,
      "velocity": 108,
      "chip": "ym2612"
    },
    {
      "channel": 3,
      "note": 88,
      "start": 30.0213,
      "duration": 0.0316,
      "velocity": 115,
      "chip": "ym2612"
    },
    {
      "channel": 1,
      "note": 70,
      "start": 30.1206,
      "duration": 0.0666,
      "velocity": 108,
      "chip": "ym2612"
    },
    {
      "channel": 2,
      "note": 68,
      "start": 30.1214,
      "duration": 0.0829,
      "velocity": 108,
      "chip": "ym2612"
    },
    {
      "channel": 3,
      "note": 85,
      "start": 30.1222,
      "duration": 0.0486,
      "velocity": 115,
      "chip": "ym2612"
    },
    {
      "channel": 5,
      "note": 105,
      "start": 30.1266,
      "duration": 0.1991,
      "velocity": 127,
      "chip": "ym2612"
    },
    {
      "channel": 1,
      "note": 70,
      "start": 30.2218,
      "duration": 0.0665,
      "velocity": 108,
      "chip": "ym2612"
    },
    {
      "channel": 2,
      "note": 68,
      "start": 30.2229,
      "duration": 0.0824,
      "velocity": 108,
      "chip": "ym2612"
    },
    {
      "channel": 0,
      "note": 63,
      "start": 30.3222,
      "duration": 0.2014,
      "velocity": 82,
      "chip": "ym2612"
    },
    {
      "channel": 1,
      "note": 71,
      "start": 30.3233,
      "duration": 0.0659,
      "velocity": 108,
      "chip": "ym2612"
    },
    {
      "channel": 2,
      "note": 68,
      "start": 30.3244,
      "duration": 0.0818,
      "velocity": 108,
      "chip": "ym2612"
    },
    {
      "channel": 3,
      "note": 77,
      "start": 30.3254,
      "duration": 0.0305,
      "velocity": 115,
      "chip": "ym2612"
    },
    {
      "channel": 5,
      "note": 67,
      "start": 30.3288,
      "duration": 0.1977,
      "velocity": 123,
      "chip": "ym2612"
    },
    {
      "channel": 1,
      "note": 74,
      "start": 30.4235,
      "duration": 0.0667,
      "velocity": 108,
      "chip": "ym2612"
    },
    {
      "channel": 2,
      "note": 72,
      "start": 30.4242,
      "duration": 0.0829,
      "velocity": 108,
      "chip": "ym2612"
    },
    {
      "channel": 3,
      "note": 81,
      "start": 30.4251,
      "duration": 0.0318,
      "velocity": 115,
      "chip": "ym2612"
    },
    {
      "channel": 1,
      "note": 76,
      "start": 30.5244,
      "duration": 0.0666,
      "velocity": 108,
      "chip": "ym2612"
    },
    {
      "channel": 2,
      "note": 73,
      "start": 30.5252,
      "duration": 0.0829,
      "velocity": 108,
      "chip": "ym2612"
    },
    {
      "channel": 3,
      "note": 83,
      "start": 30.5261,
      "duration": 0.0317,
      "velocity": 115,
      "chip": "ym2612"
    },
    {
      "channel": 5,
      "note": 67,
      "start": 30.5305,
      "duration": 0.3978,
      "velocity": 123,
      "chip": "ym2612"
    },
    {
      "channel": 1,
      "note": 77,
      "start": 30.6254,
      "duration": 0.0667,
      "velocity": 108,
      "chip": "ym2612"
    },
    {
      "channel": 2,
      "note": 75,
      "start": 30.6261,
      "duration": 0.0829,
      "velocity": 108,
      "chip": "ym2612"
    },
    {
      "channel": 3,
      "note": 85,
      "start": 30.6269,
      "duration": 0.0318,
      "velocity": 115,
      "chip": "ym2612"
    },
    {
      "channel": 1,
      "note": 80,
      "start": 30.7265,
      "duration": 0.0667,
      "velocity": 108,
      "chip": "ym2612"
    },
    {
      "channel": 2,
      "note": 78,
      "start": 30.7273,
      "duration": 0.0829,
      "velocity": 108,
      "chip": "ym2612"
    },
    {
      "channel": 3,
      "note": 86,
      "start": 30.7282,
      "duration": 0.0317,
      "velocity": 115,
      "chip": "ym2612"
    },
    {
      "channel": 1,
      "note": 80,
      "start": 30.8277,
      "duration": 0.1841,
      "velocity": 108,
      "chip": "ym2612"
    },
    {
      "channel": 2,
      "note": 78,
      "start": 30.8288,
      "duration": 0.2168,
      "velocity": 108,
      "chip": "ym2612"
    },
    {
      "channel": 5,
      "note": 70,
      "start": 30.9336,
      "duration": 0.2003,
      "velocity": 118,
      "chip": "ym2612"
    },
    {
      "channel": 0,
      "note": 63,
      "start": 31.13,
      "duration": 0.2019,
      "velocity": 82,
      "chip": "ym2612"
    },
    {
      "channel": 1,
      "note": 76,
      "start": 31.1313,
      "duration": 0.0663,
      "velocity": 108,
      "chip": "ym2612"
    },
    {
      "channel": 2,
      "note": 73,
      "start": 31.1325,
      "duration": 0.082,
      "velocity": 108,
      "chip": "ym2612"
    },
    {
      "channel": 3,
      "note": 90,
      "start": 31.1335,
      "duration": 0.0307,
      "velocity": 115,
      "chip": "ym2612"
    },
    {
      "channel": 5,
      "note": 38,
      "start": 31.137,
      "duration": 0.1982,
      "velocity": 127,
      "chip": "ym2612"
    },
    {
      "channel": 1,
      "note": 76,
      "start": 31.2321,
      "duration": 0.0664,
      "velocity": 108,
      "chip": "ym2612"
    },
    {
      "channel": 2,
      "note": 73,
      "start": 31.2331,
      "duration": 0.0823,
      "velocity": 108,
      "chip": "ym2612"
    },
    {
      "channel": 3,
      "note": 86,
      "start": 31.234,
      "duration": 0.0312,
      "velocity": 115,
      "chip": "ym2612"
    },
    {
      "channel": 1,
      "note": 80,
      "start": 31.3331,
      "duration": 0.0663,
      "velocity": 108,
      "chip": "ym2612"
    },
    {
      "channel": 2,
      "note": 73,
      "start": 31.3341,
      "duration": 0.0823,
      "velocity": 108,
      "chip": "ym2612"
    },
    {
      "channel": 3,
      "note": 90,
      "start": 31.3349,
      "duration": 0.0312,
      "velocity": 115,
      "chip": "ym2612"
    },
    {
      "channel": 5,
      "note": 105,
      "start": 31.3391,
      "duration": 0.1983,
      "velocity": 127,
      "chip": "ym2612"
    },
    {
      "channel": 1,
      "note": 80,
      "start": 31.4339,
      "duration": 0.0664,
      "velocity": 108,
      "chip": "ym2612"
    },
    {
      "channel": 2,
      "note": 73,
      "start": 31.435,
      "duration": 0.0823,
      "velocity": 108,
      "chip": "ym2612"
    },
    {
      "channel": 3,
      "note": 93,
      "start": 31.436,
      "duration": 0.031,
      "velocity": 115,
      "chip": "ym2612"
    },
    {
      "channel": 0,
      "note": 58,
      "start": 31.5342,
      "duration": 0.2014,
      "velocity": 82,
      "chip": "ym2612"
    },
    {
      "channel": 1,
      "note": 80,
      "start": 31.5353,
      "duration": 0.066,
      "velocity": 108,
      "chip": "ym2612"
    },
    {
      "channel": 2,
      "note": 73,
      "start": 31.5363,
      "duration": 0.082,
      "velocity": 108,
      "chip": "ym2612"
    },
    {
      "channel": 3,
      "note": 93,
      "start": 31.5371,
      "duration": 0.0309,
      "velocity": 115,
      "chip": "ym2612"
    },
    {
      "channel": 5,
      "note": 67,
      "start": 31.5409,
      "duration": 0.1974,
      "velocity": 123,
      "chip": "ym2612"
    },
    {
      "channel": 1,
      "note": 76,
      "start": 31.6355,
      "duration": 0.0666,
      "velocity": 108,
      "chip": "ym2612"
    },
    {
      "channel": 2,
      "note": 73,
      "start": 31.6363,
      "duration": 0.0829,
      "velocity": 108,
      "chip": "ym2612"
    },
    {
      "channel": 3,
      "note": 90,
      "start": 31.6372,
      "duration": 0.0317,
      "velocity": 115,
      "chip": "ym2612"
    },
    {
      "channel": 1,
      "note": 71,
      "start": 31.7365,
      "duration": 0.0666,
      "velocity": 108,
      "chip": "ym2612"
    },
    {
      "channel": 2,
      "note": 68,
      "start": 31.7372,
      "duration": 0.0829,
      "velocity": 108,
      "chip": "ym2612"
    },
    {
      "channel": 3,
      "note": 86,
      "start": 31.738,
      "duration": 0.0318,
      "velocity": 115,
      "chip": "ym2612"
    },
    {
      "channel": 5,
      "note": 105,
      "start": 31.7426,
      "duration": 0.1987,
      "velocity": 127,
      "chip": "ym2612"
    },
    {
      "channel": 1,
      "note": 71,
      "start": 31.8376,
      "duration": 0.0664,
      "velocity": 108,
      "chip": "ym2612"
    },
    {
      "channel": 2,
      "note": 68,
      "start": 31.8387,
      "duration": 0.0823,
      "velocity": 108,
      "chip": "ym2612"
    },
    {
      "channel": 0,
      "note": 65,
      "start": 31.9379,
      "duration": 0.2014,
      "velocity": 82,
      "chip": "ym2612"
    },
    {
      "channel": 1,
      "note": 74,
      "start": 31.9389,
      "duration": 0.066,
      "velocity": 108,
      "chip": "ym2612"
    },
    {
      "channel": 2,
      "note": 72,
      "start": 31.9401,
      "duration": 0.0818,
      "velocity": 108,
      "chip": "ym2612"
    },
    {
      "channel": 3,
      "note": 88,
      "start": 31.941,
      "duration": 0.0307,
      "velocity": 115,
      "chip": "ym2612"
    },
    {
      "channel": 5,
      "note": 38,
      "start": 31.9444,
      "duration": 0.1985,
      "velocity": 127,
      "chip": "ym2612"
    },
    {
      "channel": 1,
      "note": 74,
      "start": 32.0396,
      "duration": 0.0662,
      "velocity": 108,
      "chip": "ym2612"
    },
    {
      "channel": 2,
      "note": 72,
      "start": 32.0407,
      "duration": 0.0822,
      "velocity": 108,
      "chip": "ym2612"
    },
    {
      "channel": 3,
      "note": 81,
      "start": 32.0415,
      "duration": 0.0311,
      "velocity": 115,
      "chip": "ym2612"
    },
    {
      "channel": 1,
      "note": 77,
      "start": 32.1406,
      "duration": 0.0663,
      "velocity": 108,
      "chip": "ym2612"
    },
    {
      "channel": 2,
      "note": 72,
      "start": 32.1416,
      "duration": 0.0822,
      "velocity": 108,
      "chip": "ym2612"
    },
    {
      "channel": 3,
      "note": 88,
      "start": 32.1426,
      "duration": 0.0311,
      "velocity": 115,
      "chip": "ym2612"
    },
    {
      "channel": 5,
      "note": 105,
      "start": 32.1463,
      "duration": 0.1986,
      "velocity": 127,
      "chip": "ym2612"
    },
    {
      "channel": 1,
      "note": 77,
      "start": 32.2414,
      "duration": 0.0663,
      "velocity": 108,
      "chip": "ym2612"
    },
    {
      "channel": 2,
      "note": 72,
      "start": 32.2424,
      "duration": 0.0823,
      "velocity": 108,
      "chip": "ym2612"
    },
    {
      "channel": 3,
      "note": 91,
      "start": 32.2432,
      "duration": 0.0312,
      "velocity": 115,
      "chip": "ym2612"
    },
    {
      "channel": 0,
      "note": 58,
      "start": 32.3416,
      "duration": 0.2015,
      "velocity": 82,
      "chip": "ym2612"
    },
    {
      "channel": 1,
      "note": 77,
      "start": 32.3427,
      "duration": 0.066,
      "velocity": 108,
      "chip": "ym2612"
    },
    {
      "channel": 2,
      "note": 72,
      "start": 32.3437,
      "duration": 0.082,
      "velocity": 108,
      "chip": "ym2612"
    },
    {
      "channel": 3,
      "note": 91,
      "start": 32.3446,
      "duration": 0.0308,
      "velocity": 115,
      "chip": "ym2612"
    },
    {
      "channel": 5,
      "note": 67,
      "start": 32.3481,
      "duration": 0.1977,
      "velocity": 123,
      "chip": "ym2612"
    },
    {
      "channel": 1,
      "note": 74,
      "start": 32.4429,
      "duration": 0.0667,
      "velocity": 108,
      "chip": "ym2612"
    },
    {
      "channel": 2,
      "note": 72,
      "start": 32.4437,
      "duration": 0.0829,
      "velocity": 108,
      "chip": "ym2612"
    },
    {
      "channel": 3,
      "note": 88,
      "start": 32.4444,
      "duration": 0.0318,
      "velocity": 115,
      "chip": "ym2612"
    },
    {
      "channel": 1,
      "note": 70,
      "start": 32.5439,
      "duration": 0.0666,
      "velocity": 108,
      "chip": "ym2612"
    },
    {
      "channel": 2,
      "note": 68,
      "start": 32.5446,
      "duration": 0.0829,
      "velocity": 108,
      "chip": "ym2612"
    },
    {
      "channel": 3,
      "note": 85,
      "start": 32.5455,
      "duration": 0.0317,
      "velocity": 115,
      "chip": "ym2612"
    },
    {
      "channel": 5,
      "note": 105,
      "start": 32.55,
      "duration": 0.1988,
      "velocity": 127,
      "chip": "ym2612"
    },
    {
      "channel": 1,
      "note": 70,
      "start": 32.645,
      "duration": 0.0664,
      "velocity": 108,
      "chip": "ym2612"
    },
    {
      "channel": 2,
      "note": 68,
      "start": 32.6461,
      "duration": 0.0823,
      "velocity": 108,
      "chip": "ym2612"
    },
    {
      "channel": 0,
      "note": 63,
      "start": 32.7456,
      "duration": 0.2014,
      "velocity": 82,
      "chip": "ym2612"
    },
    {
      "channel": 1,
      "note": 71,
      "start": 32.7466,
      "duration": 0.066,
      "velocity": 108,
      "chip": "ym2612"
    },
    {
      "channel": 2,
      "note": 68,
      "start": 32.7477,
      "duration": 0.082,
      "velocity": 108,
      "chip": "ym2612"
    },
    {
      "channel": 3,
      "note": 77,
      "start": 32.7485,
      "duration": 0.0309,
      "velocity": 115,
      "chip": "ym2612"
    },
    {
      "channel": 5,
      "note": 38,
      "start": 32.7521,
      "duration": 0.1977,
      "velocity": 127,
      "chip": "ym2612"
    },
    {
      "channel": 1,
      "note": 74,
      "start": 32.8469,
      "duration": 0.0667,
      "velocity": 108,
      "chip": "ym2612"
    },
    {
      "channel": 2,
      "note": 72,
      "start": 32.8476,
      "duration": 0.0829,
      "velocity": 108,
      "chip": "ym2612"
    },
    {
      "channel": 3,
      "note": 81,
      "start": 32.8486,
      "duration": 0.0317,
      "velocity": 115,
      "chip": "ym2612"
    },
    {
      "channel": 1,
      "note": 76,
      "start": 32.9479,
      "duration": 0.0666,
      "velocity": 108,
      "chip": "ym2612"
    },
    {
      "channel": 2,
      "note": 73,
      "start": 32.9486,
      "duration": 0.0829,
      "velocity": 108,
      "chip": "ym2612"
    },
    {
      "channel": 3,
      "note": 83,
      "start": 32.9494,
      "duration": 0.0318,
      "velocity": 115,
      "chip": "ym2612"
    },
    {
      "channel": 5,
      "note": 105,
      "start": 32.954,
      "duration": 0.198,
      "velocity": 127,
      "chip": "ym2612"
    },
    {
      "channel": 1,
      "note": 77,
      "start": 33.0488,
      "duration": 0.0667,
      "velocity": 108,
      "chip": "ym2612"
    },
    {
      "channel": 2,
      "note": 75,
      "start": 33.0495,
      "duration": 0.0829,
      "velocity": 108,
      "chip": "ym2612"
    },
    {
      "channel": 3,
      "note": 85,
      "start": 33.0504,
      "duration": 0.0317,
      "velocity": 115,
      "chip": "ym2612"
    },
    {
      "channel": 0,
      "note": 58,
      "start": 33.1493,
      "duration": 0.2017,
      "velocity": 82,
      "chip": "ym2612"
    },
    {
      "channel": 1,
      "note": 80,
      "start": 33.1501,
      "duration": 0.0662,
      "velocity": 108,
      "chip": "ym2612"
    },
    {
      "channel": 2,
      "note": 78,
      "start": 33.1509,
      "duration": 0.0827,
      "velocity": 108,
      "chip": "ym2612"
    },
    {
      "channel": 3,
      "note": 86,
      "start": 33.1517,
      "duration": 0.0314,
      "velocity": 115,
      "chip": "ym2612"
    },
    {
      "channel": 5,
      "note": 67,
      "start": 33.1558,
      "duration": 0.1984,
      "velocity": 123,
      "chip": "ym2612"
    },
    {
      "channel": 1,
      "note": 80,
      "start": 33.2512,
      "duration": 0.0664,
      "velocity": 108,
      "chip": "ym2612"
    },
    {
      "channel": 1,
      "note": 65,
      "start": 33.3522,
      "duration": 0.0663,
      "velocity": 108,
      "chip": "ym2612"
    },
    {
      "channel": 2,
      "note": 64,
      "start": 33.3529,
      "duration": 0.0825,
      "velocity": 108,
      "chip": "ym2612"
    },
    {
      "channel": 3,
      "note": 77,
      "start": 33.3539,
      "duration": 0.0313,
      "velocity": 115,
      "chip": "ym2612"
    },
    {
      "channel": 5,
      "note": 105,
      "start": 33.3582,
      "duration": 0.1984,
      "velocity": 127,
      "chip": "ym2612"
    },
    {
      "channel": 1,
      "note": 65,
      "start": 33.453,
      "duration": 0.0664,
      "velocity": 108,
      "chip": "ym2612"
    },
    {
      "channel": 2,
      "note": 64,
      "start": 33.4541,
      "duration": 0.0823,
      "velocity": 108,
      "chip": "ym2612"
    },
    {
      "channel": 0,
      "note": 63,
      "start": 33.5533,
      "duration": 0.2017,
      "velocity": 82,
      "chip": "ym2612"
    },
    {
      "channel": 1,
      "note": 76,
      "start": 33.5544,
      "duration": 0.066,
      "velocity": 108,
      "chip": "ym2612"
    },
    {
      "channel": 2,
      "note": 73,
      "start": 33.5554,
      "duration": 0.0819,
      "velocity": 108,
      "chip": "ym2612"
    },
    {
      "channel": 3,
      "note": 90,
      "start": 33.5563,
      "duration": 0.0307,
      "velocity": 115,
      "chip": "ym2612"
    },
    {
      "channel": 5,
      "note": 38,
      "start": 33.56,
      "duration": 0.1985,
      "velocity": 127,
      "chip": "ym2612"
    },
    {
      "channel": 1,
      "note": 76,
      "start": 33.6549,
      "duration": 0.0667,
      "velocity": 108,
      "chip": "ym2612"
    },
    {
      "channel": 2,
      "note": 73,
      "start": 33.6559,
      "duration": 0.0826,
      "velocity": 108,
      "chip": "ym2612"
    },
    {
      "channel": 3,
      "note": 86,
      "start": 33.6569,
      "duration": 0.0311,
      "velocity": 115,
      "chip": "ym2612"
    },
    {
      "channel": 1,
      "note": 80,
      "start": 33.7562,
      "duration": 0.0663,
      "velocity": 108,
      "chip": "ym2612"
    },
    {
      "channel": 2,
      "note": 73,
      "start": 33.7572,
      "duration": 0.0823,
      "velocity": 108,
      "chip": "ym2612"
    },
    {
      "channel": 3,
      "note": 90,
      "start": 33.758,
      "duration": 0.0312,
      "velocity": 115,
      "chip": "ym2612"
    },
    {
      "channel": 5,
      "note": 105,
      "start": 33.762,
      "duration": 0.1987,
      "velocity": 127,
      "chip": "ym2612"
    },
    {
      "channel": 1,
      "note": 80,
      "start": 33.8571,
      "duration": 0.0664,
      "velocity": 108,
      "chip": "ym2612"
    },
    {
      "channel": 2,
      "note": 73,
      "start": 33.8581,
      "duration": 0.0823,
      "velocity": 108,
      "chip": "ym2612"
    },
    {
      "channel": 3,
      "note": 93,
      "start": 33.8593,
      "duration": 0.0309,
      "velocity": 115,
      "chip": "ym2612"
    },
    {
      "channel": 0,
      "note": 58,
      "start": 33.9573,
      "duration": 0.2014,
      "velocity": 82,
      "chip": "ym2612"
    },
    {
      "channel": 1,
      "note": 80,
      "start": 33.9584,
      "duration": 0.066,
      "velocity": 108,
      "chip": "ym2612"
    },
    {
      "channel": 2,
      "note": 73,
      "start": 33.9596,
      "duration": 0.0818,
      "velocity": 108,
      "chip": "ym2612"
    },
    {
      "channel": 3,
      "note": 93,
      "start": 33.9604,
      "duration": 0.0307,
      "velocity": 115,
      "chip": "ym2612"
    },
    {
      "channel": 5,
      "note": 67,
      "start": 33.9638,
      "duration": 0.1978,
      "velocity": 123,
      "chip": "ym2612"
    },
    {
      "channel": 1,
      "note": 76,
      "start": 34.0586,
      "duration": 0.0666,
      "velocity": 108,
      "chip": "ym2612"
    },
    {
      "channel": 2,
      "note": 73,
      "start": 34.0596,
      "duration": 0.0829,
      "velocity": 108,
      "chip": "ym2612"
    },
    {
      "channel": 3,
      "note": 90,
      "start": 34.0605,
      "duration": 0.0315,
      "velocity": 115,
      "chip": "ym2612"
    },
    {
      "channel": 1,
      "note": 71,
      "start": 34.1598,
      "duration": 0.0668,
      "velocity": 108,
      "chip": "ym2612"
    },
    {
      "channel": 2,
      "note": 68,
      "start": 34.1605,
      "duration": 0.083,
      "velocity": 108,
      "chip": "ym2612"
    },
    {
      "channel": 3,
      "note": 86,
      "start": 34.1613,
      "duration": 0.0318,
      "velocity": 115,
      "chip": "ym2612"
    },
    {
      "channel": 5,
      "note": 105,
      "start": 34.1657,
      "duration": 0.1989,
      "velocity": 127,
      "chip": "ym2612"
    },
    {
      "channel": 1,
      "note": 71,
      "start": 34.261,
      "duration": 0.0664,
      "velocity": 108,
      "chip": "ym2612"
    },
    {
      "channel": 2,
      "note": 68,
      "start": 34.2621,
      "duration": 0.0823,
      "velocity": 108,
      "chip": "ym2612"
    },
    {
      "channel": 0,
      "note": 65,
      "start": 34.3613,
      "duration": 0.2014,
      "velocity": 82,
      "chip": "ym2612"
    },
    {
      "channel": 1,
      "note": 74,
      "start": 34.3624,
      "duration": 0.066,
      "velocity": 108,
      "chip": "ym2612"
    },
    {
      "channel": 2,
      "note": 72,
      "start": 34.3634,
      "duration": 0.082,
      "velocity": 108,
      "chip": "ym2612"
    },
    {
      "channel": 3,
      "note": 88,
      "start": 34.3643,
      "duration": 0.0307,
      "velocity": 115,
      "chip": "ym2612"
    },
    {
      "channel": 5,
      "note": 67,
      "start": 34.3678,
      "duration": 0.1983,
      "velocity": 123,
      "chip": "ym2612"
    },
    {
      "channel": 1,
      "note": 74,
      "start": 34.4629,
      "duration": 0.0664,
      "velocity": 108,
      "chip": "ym2612"
    },
    {
      "channel": 2,
      "note": 72,
      "start": 34.4639,
      "duration": 0.0823,
      "velocity": 108,
      "chip": "ym2612"
    },
    {
      "channel": 3,
      "note": 81,
      "start": 34.4647,
      "duration": 0.0312,
      "velocity": 115,
      "chip": "ym2612"
    },
    {
      "channel": 1,
      "note": 77,
      "start": 34.5639,
      "duration": 0.0663,
      "velocity": 108,
      "chip": "ym2612"
    },
    {
      "channel": 2,
      "note": 72,
      "start": 34.5649,
      "duration": 0.0823,
      "velocity": 108,
      "chip": "ym2612"
    },
    {
      "channel": 3,
      "note": 88,
      "start": 34.5658,
      "duration": 0.0312,
      "velocity": 115,
      "chip": "ym2612"
    },
    {
      "channel": 5,
      "note": 105,
      "start": 34.5697,
      "duration": 0.1989,
      "velocity": 127,
      "chip": "ym2612"
    },
    {
      "channel": 1,
      "note": 77,
      "start": 34.6648,
      "duration": 0.0667,
      "velocity": 108,
      "chip": "ym2612"
    },
    {
      "channel": 2,
      "note": 72,
      "start": 34.6658,
      "duration": 0.0826,
      "velocity": 108,
      "chip": "ym2612"
    },
    {
      "channel": 3,
      "note": 91,
      "start": 34.6666,
      "duration": 0.0315,
      "velocity": 115,
      "chip": "ym2612"
    },
    {
      "channel": 0,
      "note": 58,
      "start": 34.7653,
      "duration": 0.2014,
      "velocity": 82,
      "chip": "ym2612"
    },
    {
      "channel": 1,
      "note": 77,
      "start": 34.7664,
      "duration": 0.066,
      "velocity": 108,
      "chip": "ym2612"
    },
    {
      "channel": 2,
      "note": 72,
      "start": 34.7674,
      "duration": 0.082,
      "velocity": 108,
      "chip": "ym2612"
    },
    {
      "channel": 3,
      "note": 91,
      "start": 34.7683,
      "duration": 0.0308,
      "velocity": 115,
      "chip": "ym2612"
    },
    {
      "channel": 5,
      "note": 67,
      "start": 34.7718,
      "duration": 0.1977,
      "velocity": 123,
      "chip": "ym2612"
    },
    {
      "channel": 1,
      "note": 74,
      "start": 34.8666,
      "duration": 0.0667,
      "velocity": 108,
      "chip": "ym2612"
    },
    {
      "channel": 2,
      "note": 72,
      "start": 34.8674,
      "duration": 0.0829,
      "velocity": 108,
      "chip": "ym2612"
    },
    {
      "channel": 3,
      "note": 88,
      "start": 34.8682,
      "duration": 0.0318,
      "velocity": 115,
      "chip": "ym2612"
    },
    {
      "channel": 1,
      "note": 70,
      "start": 34.9676,
      "duration": 0.0666,
      "velocity": 108,
      "chip": "ym2612"
    },
    {
      "channel": 2,
      "note": 68,
      "start": 34.9683,
      "duration": 0.0829,
      "velocity": 108,
      "chip": "ym2612"
    },
    {
      "channel": 3,
      "note": 85,
      "start": 34.9693,
      "duration": 0.0485,
      "velocity": 115,
      "chip": "ym2612"
    },
    {
      "channel": 5,
      "note": 105,
      "start": 34.9737,
      "duration": 0.1987,
      "velocity": 127,
      "chip": "ym2612"
    },
    {
      "channel": 1,
      "note": 70,
      "start": 35.0688,
      "duration": 0.0664,
      "velocity": 108,
      "chip": "ym2612"
    },
    {
      "channel": 2,
      "note": 68,
      "start": 35.0698,
      "duration": 0.0823,
      "velocity": 108,
      "chip": "ym2612"
    },
    {
      "channel": 0,
      "note": 63,
      "start": 35.169,
      "duration": 0.2017,
      "velocity": 82,
      "chip": "ym2612"
    },
    {
      "channel": 1,
      "note": 71,
      "start": 35.1701,
      "duration": 0.0662,
      "velocity": 108,
      "chip": "ym2612"
    },
    {
      "channel": 2,
      "note": 68,
      "start": 35.1712,
      "duration": 0.0821,
      "velocity": 108,
      "chip": "ym2612"
    },
    {
      "channel": 3,
      "note": 77,
      "start": 35.1721,
      "duration": 0.031,
      "velocity": 115,
      "chip": "ym2612"
    },
    {
      "channel": 5,
      "note": 67,
      "start": 35.1755,
      "duration": 0.1979,
      "velocity": 123,
      "chip": "ym2612"
    },
    {
      "channel": 1,
      "note": 74,
      "start": 35.2706,
      "duration": 0.0667,
      "velocity": 108,
      "chip": "ym2612"
    },
    {
      "channel": 2,
      "note": 72,
      "start": 35.2714,
      "duration": 0.0829,
      "velocity": 108,
      "chip": "ym2612"
    },
    {
      "channel": 3,
      "note": 81,
      "start": 35.2723,
      "duration": 0.0317,
      "velocity": 115,
      "chip": "ym2612"
    },
    {
      "channel": 1,
      "note": 76,
      "start": 35.3716,
      "duration": 0.0666,
      "velocity": 108,
      "chip": "ym2612"
    },
    {
      "channel": 2,
      "note": 73,
      "start": 35.3723,
      "duration": 0.0829,
      "velocity": 108,
      "chip": "ym2612"
    },
    {
      "channel": 3,
      "note": 83,
      "start": 35.3731,
      "duration": 0.0318,
      "velocity": 115,
      "chip": "ym2612"
    },
    {
      "channel": 5,
      "note": 67,
      "start": 35.3778,
      "duration": 0.2212,
      "velocity": 123,
      "chip": "ym2612"
    },
    {
      "channel": 1,
      "note": 77,
      "start": 35.4725,
      "duration": 0.0667,
      "velocity": 108,
      "chip": "ym2612"
    },
    {
      "channel": 2,
      "note": 75,
      "start": 35.4732,
      "duration": 0.0829,
      "velocity": 108,
      "chip": "ym2612"
    },
    {
      "channel": 3,
      "note": 85,
      "start": 35.4741,
      "duration": 0.0317,
      "velocity": 115,
      "chip": "ym2612"
    },
    {
      "channel": 1,
      "note": 80,
      "start": 35.5736,
      "duration": 0.0254,
      "velocity": 108,
      "chip": "ym2612"
    },
    {
      "channel": 2,
      "note": 78,
      "start": 35.5744,
      "duration": 0.0246,
      "velocity": 108,
      "chip": "ym2612"
    },
    {
      "channel": 3,
      "note": 86,
      "start": 35.5752,
      "duration": 0.0239,
      "velocity": 115,
      "chip": "ym2612"
    }
  ]
}