{
  "track_name": "05 - Rapmaster Rocket Racket",
  "duration_sec": 111.167,
  "sample_rate": 44100,
  "note_count": 1108,
  "unique_pitches": 45,
  "pitch_range": 53,
  "avg_note_duration": 0.1082,
  "reconstruction_stats": {
    "notes_reconstructed": 1108,
    "keyon_events": 1108,
    "keyoff_events": 1105,
    "orphan_keyons": 0,
    "unique_pitches": 45,
    "pitch_range": 53,
    "avg_duration_sec": 0.1082
  },
  "metadata": {
    "source": "T\\ToeJam and Earl\\05 - Rapmaster Rocket Racket.vgz"
  },
  "notes": [
    {
      "channel": 0,
      "note": 44,
      "start": 0.0,
      "duration": 0.0829,
      "velocity": 125,
      "chip": "ym2612"
    },
    {
      "channel": 4,
      "note": 49,
      "start": 0.0007,
      "duration": 0.2322,
      "velocity": 111,
      "chip": "ym2612"
    },
    {
      "channel": 5,
      "note": 61,
      "start": 0.0012,
      "duration": 0.2317,
      "velocity": 83,
      "chip": "ym2612"
    },
    {
      "channel": 0,
      "note": 44,
      "start": 0.4166,
      "duration": 0.0996,
      "velocity": 125,
      "chip": "ym2612"
    },
    {
      "channel": 2,
      "note": 73,
      "start": 0.4172,
      "duration": 0.049,
      "velocity": 87,
      "chip": "ym2612"
    },
    {
      "channel": 4,
      "note": 58,
      "start": 0.4177,
      "duration": 0.0819,
      "velocity": 111,
      "chip": "ym2612"
    },
    {
      "channel": 5,
      "note": 70,
      "start": 0.4182,
      "duration": 0.0814,
      "velocity": 83,
      "chip": "ym2612"
    },
    {
      "channel": 1,
      "note": 46,
      "start": 0.5666,
      "duration": 0.2834,
      "velocity": 127,
      "chip": "ym2612"
    },
    {
      "channel": 2,
      "note": 78,
      "start": 0.5672,
      "duration": 0.0824,
      "velocity": 87,
      "chip": "ym2612"
    },
    {
      "channel": 4,
      "note": 59,
      "start": 0.5677,
      "duration": 0.0985,
      "velocity": 111,
      "chip": "ym2612"
    },
    {
      "channel": 5,
      "note": 71,
      "start": 0.5682,
      "duration": 0.0981,
      "velocity": 83,
      "chip": "ym2612"
    },
    {
      "channel": 0,
      "note": 44,
      "start": 0.85,
      "duration": 0.0996,
      "velocity": 125,
      "chip": "ym2612"
    },
    {
      "channel": 2,
      "note": 80,
      "start": 0.8505,
      "duration": 0.0657,
      "velocity": 87,
      "chip": "ym2612"
    },
    {
      "channel": 4,
      "note": 58,
      "start": 0.8511,
      "duration": 0.0818,
      "velocity": 111,
      "chip": "ym2612"
    },
    {
      "channel": 5,
      "note": 70,
      "start": 0.8516,
      "duration": 0.0814,
      "velocity": 83,
      "chip": "ym2612"
    },
    {
      "channel": 2,
      "note": 83,
      "start": 1.15,
      "duration": 0.0496,
      "velocity": 87,
      "chip": "ym2612"
    },
    {
      "channel": 4,
      "note": 59,
      "start": 1.1505,
      "duration": 0.0657,
      "velocity": 111,
      "chip": "ym2612"
    },
    {
      "channel": 5,
      "note": 71,
      "start": 1.1511,
      "duration": 0.0653,
      "velocity": 83,
      "chip": "ym2612"
    },
    {
      "channel": 0,
      "note": 44,
      "start": 1.4333,
      "duration": 0.0996,
      "velocity": 125,
      "chip": "ym2612"
    },
    {
      "channel": 2,
      "note": 85,
      "start": 1.4338,
      "duration": 0.0824,
      "velocity": 87,
      "chip": "ym2612"
    },
    {
      "channel": 4,
      "note": 58,
      "start": 1.4344,
      "duration": 0.0986,
      "velocity": 111,
      "chip": "ym2612"
    },
    {
      "channel": 5,
      "note": 70,
      "start": 1.4349,
      "duration": 0.0982,
      "velocity": 83,
      "chip": "ym2612"
    },
    {
      "channel": 2,
      "note": 83,
      "start": 1.5833,
      "duration": 0.0162,
      "velocity": 87,
      "chip": "ym2612"
    },
    {
      "channel": 1,
      "note": 46,
      "start": 1.7166,
      "duration": 0.1662,
      "velocity": 127,
      "chip": "ym2612"
    },
    {
      "channel": 2,
      "note": 89,
      "start": 1.7172,
      "duration": 0.1324,
      "velocity": 87,
      "chip": "ym2612"
    },
    {
      "channel": 4,
      "note": 59,
      "start": 1.7177,
      "duration": 0.0985,
      "velocity": 111,
      "chip": "ym2612"
    },
    {
      "channel": 5,
      "note": 71,
      "start": 1.7182,
      "duration": 0.0981,
      "velocity": 83,
      "chip": "ym2612"
    },
    {
      "channel": 0,
      "note": 44,
      "start": 1.8666,
      "duration": 0.0996,
      "velocity": 125,
      "chip": "ym2612"
    },
    {
      "channel": 2,
      "note": 88,
      "start": 1.8672,
      "duration": 0.5824,
      "velocity": 87,
      "chip": "ym2612"
    },
    {
      "channel": 3,
      "note": 94,
      "start": 1.8677,
      "duration": 0.582,
      "velocity": 127,
      "chip": "ym2612"
    },
    {
      "channel": 4,
      "note": 52,
      "start": 1.8682,
      "duration": 0.198,
      "velocity": 111,
      "chip": "ym2612"
    },
    {
      "channel": 5,
      "note": 64,
      "start": 1.8688,
      "duration": 0.1976,
      "velocity": 83,
      "chip": "ym2612"
    },
    {
      "channel": 0,
      "note": 44,
      "start": 2.15,
      "duration": 0.0996,
      "velocity": 125,
      "chip": "ym2612"
    },
    {
      "channel": 4,
      "note": 54,
      "start": 2.1507,
      "duration": 0.1324,
      "velocity": 111,
      "chip": "ym2612"
    },
    {
      "channel": 5,
      "note": 66,
      "start": 2.1512,
      "duration": 0.1319,
      "velocity": 83,
      "chip": "ym2612"
    },
    {
      "channel": 0,
      "note": 44,
      "start": 2.7333,
      "duration": 0.0996,
      "velocity": 125,
      "chip": "ym2612"
    },
    {
      "channel": 1,
      "note": 46,
      "start": 2.8833,
      "duration": 0.2329,
      "velocity": 127,
      "chip": "ym2612"
    },
    {
      "channel": 0,
      "note": 44,
      "start": 3.1666,
      "duration": 0.0996,
      "velocity": 125,
      "chip": "ym2612"
    },
    {
      "channel": 4,
      "note": 53,
      "start": 3.45,
      "duration": 0.1162,
      "velocity": 111,
      "chip": "ym2612"
    },
    {
      "channel": 5,
      "note": 65,
      "start": 3.4505,
      "duration": 0.1324,
      "velocity": 83,
      "chip": "ym2612"
    },
    {
      "channel": 4,
      "note": 54,
      "start": 3.6,
      "duration": 0.0829,
      "velocity": 111,
      "chip": "ym2612"
    },
    {
      "channel": 5,
      "note": 66,
      "start": 3.6005,
      "duration": 0.0824,
      "velocity": 83,
      "chip": "ym2612"
    },
    {
      "channel": 0,
      "note": 44,
      "start": 3.75,
      "duration": 0.0829,
      "velocity": 125,
      "chip": "ym2612"
    },
    {
      "channel": 4,
      "note": 64,
      "start": 3.7505,
      "duration": 0.1157,
      "velocity": 111,
      "chip": "ym2612"
    },
    {
      "channel": 5,
      "note": 76,
      "start": 3.7511,
      "duration": 0.1153,
      "velocity": 83,
      "chip": "ym2612"
    },
    {
      "channel": 4,
      "note": 54,
      "start": 3.8834,
      "duration": 0.0995,
      "velocity": 111,
      "chip": "ym2612"
    },
    {
      "channel": 5,
      "note": 66,
      "start": 3.8839,
      "duration": 0.0991,
      "velocity": 83,
      "chip": "ym2612"
    },
    {
      "channel": 1,
      "note": 46,
      "start": 4.0333,
      "duration": 0.2662,
      "velocity": 127,
      "chip": "ym2612"
    },
    {
      "channel": 0,
      "note": 44,
      "start": 4.1666,
      "duration": 0.0996,
      "velocity": 125,
      "chip": "ym2612"
    },
    {
      "channel": 0,
      "note": 44,
      "start": 4.4666,
      "duration": 0.0996,
      "velocity": 125,
      "chip": "ym2612"
    },
    {
      "channel": 0,
      "note": 44,
      "start": 4.6,
      "duration": 0.0996,
      "velocity": 125,
      "chip": "ym2612"
    },
    {
      "channel": 4,
      "note": 49,
      "start": 4.6005,
      "duration": 0.4324,
      "velocity": 111,
      "chip": "ym2612"
    },
    {
      "channel": 5,
      "note": 61,
      "start": 4.6011,
      "duration": 0.4152,
      "velocity": 83,
      "chip": "ym2612"
    },
    {
      "channel": 4,
      "note": 58,
      "start": 5.0334,
      "duration": 0.0828,
      "velocity": 111,
      "chip": "ym2612"
    },
    {
      "channel": 5,
      "note": 70,
      "start": 5.0339,
      "duration": 0.0824,
      "velocity": 83,
      "chip": "ym2612"
    },
    {
      "channel": 1,
      "note": 46,
      "start": 5.1833,
      "duration": 0.1329,
      "velocity": 127,
      "chip": "ym2612"
    },
    {
      "channel": 4,
      "note": 59,
      "start": 5.1839,
      "duration": 0.099,
      "velocity": 111,
      "chip": "ym2612"
    },
    {
      "channel": 5,
      "note": 71,
      "start": 5.1844,
      "duration": 0.0986,
      "velocity": 83,
      "chip": "ym2612"
    },
    {
      "channel": 0,
      "note": 44,
      "start": 5.4666,
      "duration": 0.0996,
      "velocity": 125,
      "chip": "ym2612"
    },
    {
      "channel": 4,
      "note": 58,
      "start": 5.4672,
      "duration": 0.0824,
      "velocity": 111,
      "chip": "ym2612"
    },
    {
      "channel": 5,
      "note": 70,
      "start": 5.4677,
      "duration": 0.0819,
      "velocity": 83,
      "chip": "ym2612"
    },
    {
      "channel": 4,
      "note": 59,
      "start": 5.7667,
      "duration": 0.0662,
      "velocity": 111,
      "chip": "ym2612"
    },
    {
      "channel": 5,
      "note": 71,
      "start": 5.7672,
      "duration": 0.0658,
      "velocity": 83,
      "chip": "ym2612"
    },
    {
      "channel": 0,
      "note": 44,
      "start": 6.05,
      "duration": 0.0996,
      "velocity": 125,
      "chip": "ym2612"
    },
    {
      "channel": 4,
      "note": 58,
      "start": 6.0505,
      "duration": 0.0991,
      "velocity": 111,
      "chip": "ym2612"
    },
    {
      "channel": 5,
      "note": 70,
      "start": 6.0511,
      "duration": 0.0987,
      "velocity": 83,
      "chip": "ym2612"
    },
    {
      "channel": 1,
      "note": 46,
      "start": 6.3333,
      "duration": 0.1329,
      "velocity": 127,
      "chip": "ym2612"
    },
    {
      "channel": 4,
      "note": 59,
      "start": 6.3339,
      "duration": 0.099,
      "velocity": 111,
      "chip": "ym2612"
    },
    {
      "channel": 5,
      "note": 71,
      "start": 6.3344,
      "duration": 0.0986,
      "velocity": 83,
      "chip": "ym2612"
    },
    {
      "channel": 0,
      "note": 44,
      "start": 6.4833,
      "duration": 0.0996,
      "velocity": 125,
      "chip": "ym2612"
    },
    {
      "channel": 4,
      "note": 52,
      "start": 6.4839,
      "duration": 0.149,
      "velocity": 111,
      "chip": "ym2612"
    },
    {
      "channel": 5,
      "note": 64,
      "start": 6.4844,
      "duration": 0.1486,
      "velocity": 83,
      "chip": "ym2612"
    },
    {
      "channel": 0,
      "note": 44,
      "start": 6.7666,
      "duration": 0.0996,
      "velocity": 125,
      "chip": "ym2612"
    },
    {
      "channel": 4,
      "note": 54,
      "start": 6.7672,
      "duration": 0.1824,
      "velocity": 111,
      "chip": "ym2612"
    },
    {
      "channel": 5,
      "note": 66,
      "start": 6.7677,
      "duration": 0.1819,
      "velocity": 83,
      "chip": "ym2612"
    },
    {
      "channel": 0,
      "note": 44,
      "start": 7.35,
      "duration": 0.0996,
      "velocity": 125,
      "chip": "ym2612"
    },
    {
      "channel": 1,
      "note": 46,
      "start": 7.5,
      "duration": 0.1829,
      "velocity": 127,
      "chip": "ym2612"
    },
    {
      "channel": 0,
      "note": 44,
      "start": 7.7833,
      "duration": 0.0996,
      "velocity": 125,
      "chip": "ym2612"
    },
    {
      "channel": 4,
      "note": 53,
      "start": 8.0667,
      "duration": 0.1162,
      "velocity": 111,
      "chip": "ym2612"
    },
    {
      "channel": 5,
      "note": 65,
      "start": 8.0672,
      "duration": 0.1158,
      "velocity": 83,
      "chip": "ym2612"
    },
    {
      "channel": 4,
      "note": 54,
      "start": 8.2167,
      "duration": 0.0995,
      "velocity": 111,
      "chip": "ym2612"
    },
    {
      "channel": 5,
      "note": 66,
      "start": 8.2172,
      "duration": 0.1157,
      "velocity": 83,
      "chip": "ym2612"
    },
    {
      "channel": 0,
      "note": 44,
      "start": 8.35,
      "duration": 0.0996,
      "velocity": 125,
      "chip": "ym2612"
    },
    {
      "channel": 3,
      "note": 82,
      "start": 8.3505,
      "duration": 0.1657,
      "velocity": 83,
      "chip": "ym2612"
    },
    {
      "channel": 4,
      "note": 64,
      "start": 8.3511,
      "duration": 0.1319,
      "velocity": 111,
      "chip": "ym2612"
    },
    {
      "channel": 5,
      "note": 76,
      "start": 8.3516,
      "duration": 0.1147,
      "velocity": 83,
      "chip": "ym2612"
    },
    {
      "channel": 4,
      "note": 51,
      "start": 8.5,
      "duration": 0.0995,
      "velocity": 111,
      "chip": "ym2612"
    },
    {
      "channel": 5,
      "note": 63,
      "start": 8.5005,
      "duration": 0.1157,
      "velocity": 83,
      "chip": "ym2612"
    },
    {
      "channel": 1,
      "note": 46,
      "start": 8.65,
      "duration": 0.4996,
      "velocity": 127,
      "chip": "ym2612"
    },
    {
      "channel": 4,
      "note": 52,
      "start": 8.6505,
      "duration": 0.1157,
      "velocity": 111,
      "chip": "ym2612"
    },
    {
      "channel": 5,
      "note": 64,
      "start": 8.6511,
      "duration": 0.1153,
      "velocity": 83,
      "chip": "ym2612"
    },
    {
      "channel": 3,
      "note": 80,
      "start": 8.7833,
      "duration": 0.1662,
      "velocity": 83,
      "chip": "ym2612"
    },
    {
      "channel": 4,
      "note": 62,
      "start": 8.7839,
      "duration": 0.1324,
      "velocity": 111,
      "chip": "ym2612"
    },
    {
      "channel": 5,
      "note": 74,
      "start": 8.7844,
      "duration": 0.0985,
      "velocity": 83,
      "chip": "ym2612"
    },
    {
      "channel": 4,
      "note": 47,
      "start": 8.9334,
      "duration": 0.1329,
      "velocity": 111,
      "chip": "ym2612"
    },
    {
      "channel": 5,
      "note": 59,
      "start": 8.9339,
      "duration": 0.1324,
      "velocity": 83,
      "chip": "ym2612"
    },
    {
      "channel": 0,
      "note": 44,
      "start": 9.0833,
      "duration": 0.0829,
      "velocity": 125,
      "chip": "ym2612"
    },
    {
      "channel": 4,
      "note": 48,
      "start": 9.0839,
      "duration": 0.1157,
      "velocity": 111,
      "chip": "ym2612"
    },
    {
      "channel": 5,
      "note": 60,
      "start": 9.0844,
      "duration": 0.1153,
      "velocity": 83,
      "chip": "ym2612"
    },
    {
      "channel": 0,
      "note": 44,
      "start": 9.2166,
      "duration": 0.0996,
      "velocity": 125,
      "chip": "ym2612"
    },
    {
      "channel": 4,
      "note": 49,
      "start": 9.2172,
      "duration": 0.249,
      "velocity": 111,
      "chip": "ym2612"
    },
    {
      "channel": 5,
      "note": 61,
      "start": 9.2177,
      "duration": 0.2486,
      "velocity": 83,
      "chip": "ym2612"
    },
    {
      "channel": 0,
      "note": 44,
      "start": 9.65,
      "duration": 0.0996,
      "velocity": 125,
      "chip": "ym2612"
    },
    {
      "channel": 2,
      "note": 73,
      "start": 9.6505,
      "duration": 0.049,
      "velocity": 87,
      "chip": "ym2612"
    },
    {
      "channel": 4,
      "note": 58,
      "start": 9.6511,
      "duration": 0.0652,
      "velocity": 111,
      "chip": "ym2612"
    },
    {
      "channel": 5,
      "note": 70,
      "start": 9.6516,
      "duration": 0.0648,
      "velocity": 83,
      "chip": "ym2612"
    },
    {
      "channel": 1,
      "note": 46,
      "start": 9.8,
      "duration": 0.2329,
      "velocity": 127,
      "chip": "ym2612"
    },
    {
      "channel": 2,
      "note": 78,
      "start": 9.8005,
      "duration": 0.0824,
      "velocity": 87,
      "chip": "ym2612"
    },
    {
      "channel": 4,
      "note": 59,
      "start": 9.8011,
      "duration": 0.0985,
      "velocity": 111,
      "chip": "ym2612"
    },
    {
      "channel": 5,
      "note": 71,
      "start": 9.8016,
      "duration": 0.0981,
      "velocity": 83,
      "chip": "ym2612"
    },
    {
      "channel": 0,
      "note": 44,
      "start": 10.0833,
      "duration": 0.0996,
      "velocity": 125,
      "chip": "ym2612"
    },
    {
      "channel": 2,
      "note": 80,
      "start": 10.0838,
      "duration": 0.049,
      "velocity": 87,
      "chip": "ym2612"
    },
    {
      "channel": 4,
      "note": 58,
      "start": 10.0844,
      "duration": 0.0819,
      "velocity": 111,
      "chip": "ym2612"
    },
    {
      "channel": 5,
      "note": 70,
      "start": 10.0849,
      "duration": 0.0814,
      "velocity": 83,
      "chip": "ym2612"
    },
    {
      "channel": 2,
      "note": 83,
      "start": 10.3833,
      "duration": 0.0329,
      "velocity": 87,
      "chip": "ym2612"
    },
    {
      "channel": 4,
      "note": 59,
      "start": 10.3839,
      "duration": 0.049,
      "velocity": 111,
      "chip": "ym2612"
    },
    {
      "channel": 5,
      "note": 71,
      "start": 10.3844,
      "duration": 0.0486,
      "velocity": 83,
      "chip": "ym2612"
    },
    {
      "channel": 0,
      "note": 44,
      "start": 10.6666,
      "duration": 0.0996,
      "velocity": 125,
      "chip": "ym2612"
    },
    {
      "channel": 2,
      "note": 85,
      "start": 10.6672,
      "duration": 0.0824,
      "velocity": 87,
      "chip": "ym2612"
    },
    {
      "channel": 4,
      "note": 58,
      "start": 10.6677,
      "duration": 0.0986,
      "velocity": 111,
      "chip": "ym2612"
    },
    {
      "channel": 5,
      "note": 70,
      "start": 10.6682,
      "duration": 0.0982,
      "velocity": 83,
      "chip": "ym2612"
    },
    {
      "channel": 2,
      "note": 83,
      "start": 10.8166,
      "duration": 0.0162,
      "velocity": 87,
      "chip": "ym2612"
    },
    {
      "channel": 1,
      "note": 46,
      "start": 10.95,
      "duration": 0.1829,
      "velocity": 127,
      "chip": "ym2612"
    },
    {
      "channel": 2,
      "note": 89,
      "start": 10.9505,
      "duration": 0.1324,
      "velocity": 87,
      "chip": "ym2612"
    },
    {
      "channel": 4,
      "note": 59,
      "start": 10.9511,
      "duration": 0.0985,
      "velocity": 111,
      "chip": "ym2612"
    },
    {
      "channel": 5,
      "note": 71,
      "start": 10.9516,
      "duration": 0.0981,
      "velocity": 83,
      "chip": "ym2612"
    },
    {
      "channel": 0,
      "note": 44,
      "start": 11.1,
      "duration": 0.0996,
      "velocity": 125,
      "chip": "ym2612"
    },
    {
      "channel": 2,
      "note": 94,
      "start": 11.1005,
      "duration": 0.5657,
      "velocity": 87,
      "chip": "ym2612"
    },
    {
      "channel": 3,
      "note": 88,
      "start": 11.1011,
      "duration": 0.5652,
      "velocity": 127,
      "chip": "ym2612"
    },
    {
      "channel": 4,
      "note": 52,
      "start": 11.1016,
      "duration": 0.198,
      "velocity": 111,
      "chip": "ym2612"
    },
    {
      "channel": 5,
      "note": 64,
      "start": 11.1021,
      "duration": 0.1976,
      "velocity": 83,
      "chip": "ym2612"
    },
    {
      "channel": 0,
      "note": 44,
      "start": 11.3833,
      "duration": 0.0996,
      "velocity": 125,
      "chip": "ym2612"
    },
    {
      "channel": 4,
      "note": 54,
      "start": 11.384,
      "duration": 0.1324,
      "velocity": 111,
      "chip": "ym2612"
    },
    {
      "channel": 5,
      "note": 66,
      "start": 11.3846,
      "duration": 0.1319,
      "velocity": 83,
      "chip": "ym2612"
    },
    {
      "channel": 0,
      "note": 44,
      "start": 11.9666,
      "duration": 0.0996,
      "velocity": 125,
      "chip": "ym2612"
    },
    {
      "channel": 1,
      "note": 46,
      "start": 12.1,
      "duration": 0.2662,
      "velocity": 127,
      "chip": "ym2612"
    },
    {
      "channel": 0,
      "note": 44,
      "start": 12.4,
      "duration": 0.0996,
      "velocity": 125,
      "chip": "ym2612"
    },
    {
      "channel": 4,
      "note": 53,
      "start": 12.6834,
      "duration": 0.1329,
      "velocity": 111,
      "chip": "ym2612"
    },
    {
      "channel": 5,
      "note": 65,
      "start": 12.6839,
      "duration": 0.1157,
      "velocity": 83,
      "chip": "ym2612"
    },
    {
      "channel": 4,
      "note": 54,
      "start": 12.8334,
      "duration": 0.0829,
      "velocity": 111,
      "chip": "ym2612"
    },
    {
      "channel": 5,
      "note": 66,
      "start": 12.8339,
      "duration": 0.0824,
      "velocity": 83,
      "chip": "ym2612"
    },
    {
      "channel": 0,
      "note": 44,
      "start": 12.9666,
      "duration": 0.0996,
      "velocity": 125,
      "chip": "ym2612"
    },
    {
      "channel": 4,
      "note": 64,
      "start": 12.9672,
      "duration": 0.1324,
      "velocity": 111,
      "chip": "ym2612"
    },
    {
      "channel": 5,
      "note": 76,
      "start": 12.9677,
      "duration": 0.1319,
      "velocity": 83,
      "chip": "ym2612"
    },
    {
      "channel": 4,
      "note": 54,
      "start": 13.1167,
      "duration": 0.0995,
      "velocity": 111,
      "chip": "ym2612"
    },
    {
      "channel": 5,
      "note": 66,
      "start": 13.1172,
      "duration": 0.0991,
      "velocity": 83,
      "chip": "ym2612"
    },
    {
      "channel": 1,
      "note": 46,
      "start": 13.2666,
      "duration": 0.0662,
      "velocity": 127,
      "chip": "ym2612"
    },
    {
      "channel": 1,
      "note": 46,
      "start": 13.4,
      "duration": 0.0662,
      "velocity": 127,
      "chip": "ym2612"
    },
    {
      "channel": 0,
      "note": 44,
      "start": 13.55,
      "duration": 0.0996,
      "velocity": 125,
      "chip": "ym2612"
    },
    {
      "channel": 0,
      "note": 44,
      "start": 13.8333,
      "duration": 0.0996,
      "velocity": 125,
      "chip": "ym2612"
    },
    {
      "channel": 4,
      "note": 49,
      "start": 13.8339,
      "duration": 0.4157,
      "velocity": 111,
      "chip": "ym2612"
    },
    {
      "channel": 5,
      "note": 61,
      "start": 13.8344,
      "duration": 0.3985,
      "velocity": 83,
      "chip": "ym2612"
    },
    {
      "channel": 0,
      "note": 44,
      "start": 14.2666,
      "duration": 0.0996,
      "velocity": 125,
      "chip": "ym2612"
    },
    {
      "channel": 4,
      "note": 58,
      "start": 14.2672,
      "duration": 0.0824,
      "velocity": 111,
      "chip": "ym2612"
    },
    {
      "channel": 5,
      "note": 70,
      "start": 14.2677,
      "duration": 0.0819,
      "velocity": 83,
      "chip": "ym2612"
    },
    {
      "channel": 1,
      "note": 46,
      "start": 14.4166,
      "duration": 0.1662,
      "velocity": 127,
      "chip": "ym2612"
    },
    {
      "channel": 4,
      "note": 59,
      "start": 14.4172,
      "duration": 0.099,
      "velocity": 111,
      "chip": "ym2612"
    },
    {
      "channel": 5,
      "note": 71,
      "start": 14.4177,
      "duration": 0.0986,
      "velocity": 83,
      "chip": "ym2612"
    },
    {
      "channel": 0,
      "note": 44,
      "start": 14.7,
      "duration": 0.0996,
      "velocity": 125,
      "chip": "ym2612"
    },
    {
      "channel": 4,
      "note": 58,
      "start": 14.7005,
      "duration": 0.0657,
      "velocity": 111,
      "chip": "ym2612"
    },
    {
      "channel": 5,
      "note": 70,
      "start": 14.7011,
      "duration": 0.0653,
      "velocity": 83,
      "chip": "ym2612"
    },
    {
      "channel": 4,
      "note": 59,
      "start": 15.0,
      "duration": 0.0662,
      "velocity": 111,
      "chip": "ym2612"
    },
    {
      "channel": 5,
      "note": 71,
      "start": 15.0005,
      "duration": 0.0658,
      "velocity": 83,
      "chip": "ym2612"
    },
    {
      "channel": 0,
      "note": 44,
      "start": 15.2833,
      "duration": 0.0996,
      "velocity": 125,
      "chip": "ym2612"
    },
    {
      "channel": 4,
      "note": 58,
      "start": 15.2839,
      "duration": 0.0991,
      "velocity": 111,
      "chip": "ym2612"
    },
    {
      "channel": 5,
      "note": 70,
      "start": 15.2844,
      "duration": 0.0987,
      "velocity": 83,
      "chip": "ym2612"
    },
    {
      "channel": 1,
      "note": 46,
      "start": 15.5666,
      "duration": 0.0662,
      "velocity": 127,
      "chip": "ym2612"
    },
    {
      "channel": 4,
      "note": 59,
      "start": 15.5672,
      "duration": 0.099,
      "velocity": 111,
      "chip": "ym2612"
    },
    {
      "channel": 5,
      "note": 71,
      "start": 15.5677,
      "duration": 0.0986,
      "velocity": 83,
      "chip": "ym2612"
    },
    {
      "channel": 0,
      "note": 44,
      "start": 15.7166,
      "duration": 0.0996,
      "velocity": 125,
      "chip": "ym2612"
    },
    {
      "channel": 4,
      "note": 52,
      "start": 15.7172,
      "duration": 0.1324,
      "velocity": 111,
      "chip": "ym2612"
    },
    {
      "channel": 5,
      "note": 64,
      "start": 15.7177,
      "duration": 0.1319,
      "velocity": 83,
      "chip": "ym2612"
    },
    {
      "channel": 0,
      "note": 44,
      "start": 16.0,
      "duration": 0.0996,
      "velocity": 125,
      "chip": "ym2612"
    },
    {
      "channel": 4,
      "note": 54,
      "start": 16.0005,
      "duration": 0.1824,
      "velocity": 111,
      "chip": "ym2612"
    },
    {
      "channel": 5,
      "note": 66,
      "start": 16.0011,
      "duration": 0.1819,
      "velocity": 83,
      "chip": "ym2612"
    },
    {
      "channel": 0,
      "note": 44,
      "start": 16.5833,
      "duration": 0.0829,
      "velocity": 125,
      "chip": "ym2612"
    },
    {
      "channel": 1,
      "note": 46,
      "start": 16.7166,
      "duration": 0.2329,
      "velocity": 127,
      "chip": "ym2612"
    },
    {
      "channel": 0,
      "note": 44,
      "start": 17.0166,
      "duration": 0.0829,
      "velocity": 125,
      "chip": "ym2612"
    },
    {
      "channel": 4,
      "note": 53,
      "start": 17.3,
      "duration": 0.1162,
      "velocity": 111,
      "chip": "ym2612"
    },
    {
      "channel": 5,
      "note": 65,
      "start": 17.3005,
      "duration": 0.1158,
      "velocity": 83,
      "chip": "ym2612"
    },
    {
      "channel": 4,
      "note": 54,
      "start": 17.45,
      "duration": 0.0995,
      "velocity": 111,
      "chip": "ym2612"
    },
    {
      "channel": 5,
      "note": 66,
      "start": 17.4505,
      "duration": 0.1157,
      "velocity": 83,
      "chip": "ym2612"
    },
    {
      "channel": 0,
      "note": 44,
      "start": 17.5833,
      "duration": 0.0996,
      "velocity": 125,
      "chip": "ym2612"
    },
    {
      "channel": 3,
      "note": 82,
      "start": 17.5839,
      "duration": 0.1657,
      "velocity": 83,
      "chip": "ym2612"
    },
    {
      "channel": 4,
      "note": 64,
      "start": 17.5844,
      "duration": 0.1319,
      "velocity": 111,
      "chip": "ym2612"
    },
    {
      "channel": 5,
      "note": 76,
      "start": 17.5849,
      "duration": 0.1314,
      "velocity": 83,
      "chip": "ym2612"
    },
    {
      "channel": 4,
      "note": 51,
      "start": 17.7334,
      "duration": 0.1162,
      "velocity": 111,
      "chip": "ym2612"
    },
    {
      "channel": 5,
      "note": 63,
      "start": 17.7339,
      "duration": 0.1158,
      "velocity": 83,
      "chip": "ym2612"
    },
    {
      "channel": 1,
      "note": 46,
      "start": 17.8833,
      "duration": 0.0829,
      "velocity": 127,
      "chip": "ym2612"
    },
    {
      "channel": 4,
      "note": 52,
      "start": 17.8839,
      "duration": 0.1157,
      "velocity": 111,
      "chip": "ym2612"
    },
    {
      "channel": 5,
      "note": 64,
      "start": 17.8844,
      "duration": 0.0985,
      "velocity": 83,
      "chip": "ym2612"
    },
    {
      "channel": 0,
      "note": 44,
      "start": 18.0166,
      "duration": 0.0996,
      "velocity": 125,
      "chip": "ym2612"
    },
    {
      "channel": 3,
      "note": 80,
      "start": 18.0172,
      "duration": 0.1657,
      "velocity": 83,
      "chip": "ym2612"
    },
    {
      "channel": 4,
      "note": 62,
      "start": 18.0177,
      "duration": 0.0986,
      "velocity": 111,
      "chip": "ym2612"
    },
    {
      "channel": 5,
      "note": 74,
      "start": 18.0182,
      "duration": 0.0982,
      "velocity": 83,
      "chip": "ym2612"
    },
    {
      "channel": 1,
      "note": 46,
      "start": 18.1666,
      "duration": 0.1162,
      "velocity": 127,
      "chip": "ym2612"
    },
    {
      "channel": 4,
      "note": 47,
      "start": 18.1672,
      "duration": 0.099,
      "velocity": 111,
      "chip": "ym2612"
    },
    {
      "channel": 5,
      "note": 59,
      "start": 18.1677,
      "duration": 0.1153,
      "velocity": 83,
      "chip": "ym2612"
    },
    {
      "channel": 1,
      "note": 46,
      "start": 18.3166,
      "duration": 0.1496,
      "velocity": 127,
      "chip": "ym2612"
    },
    {
      "channel": 4,
      "note": 48,
      "start": 18.3172,
      "duration": 0.1157,
      "velocity": 111,
      "chip": "ym2612"
    },
    {
      "channel": 5,
      "note": 60,
      "start": 18.3177,
      "duration": 0.1153,
      "velocity": 83,
      "chip": "ym2612"
    },
    {
      "channel": 0,
      "note": 44,
      "start": 18.45,
      "duration": 0.0996,
      "velocity": 125,
      "chip": "ym2612"
    },
    {
      "channel": 2,
      "note": 87,
      "start": 18.4505,
      "duration": 0.0657,
      "velocity": 87,
      "chip": "ym2612"
    },
    {
      "channel": 3,
      "note": 84,
      "start": 18.4511,
      "duration": 0.0652,
      "velocity": 83,
      "chip": "ym2612"
    },
    {
      "channel": 4,
      "note": 53,
      "start": 18.4516,
      "duration": 0.098,
      "velocity": 92,
      "chip": "ym2612"
    },
    {
      "channel": 0,
      "note": 44,
      "start": 18.6,
      "duration": 0.0996,
      "velocity": 125,
      "chip": "ym2612"
    },
    {
      "channel": 2,
      "note": 87,
      "start": 18.6005,
      "duration": 0.0824,
      "velocity": 87,
      "chip": "ym2612"
    },
    {
      "channel": 3,
      "note": 84,
      "start": 18.6011,
      "duration": 0.1151,
      "velocity": 83,
      "chip": "ym2612"
    },
    {
      "channel": 4,
      "note": 53,
      "start": 18.6016,
      "duration": 0.0814,
      "velocity": 92,
      "chip": "ym2612"
    },
    {
      "channel": 2,
      "note": 86,
      "start": 18.75,
      "duration": 0.0829,
      "velocity": 87,
      "chip": "ym2612"
    },
    {
      "channel": 3,
      "note": 82,
      "start": 18.7505,
      "duration": 0.1157,
      "velocity": 83,
      "chip": "ym2612"
    },
    {
      "channel": 0,
      "note": 44,
      "start": 18.8833,
      "duration": 0.0996,
      "velocity": 125,
      "chip": "ym2612"
    },
    {
      "channel": 1,
      "note": 46,
      "start": 19.0333,
      "duration": 0.2834,
      "velocity": 127,
      "chip": "ym2612"
    },
    {
      "channel": 2,
      "note": 84,
      "start": 19.0338,
      "duration": 0.099,
      "velocity": 87,
      "chip": "ym2612"
    },
    {
      "channel": 3,
      "note": 81,
      "start": 19.0344,
      "duration": 0.1151,
      "velocity": 83,
      "chip": "ym2612"
    },
    {
      "channel": 0,
      "note": 44,
      "start": 19.3166,
      "duration": 0.0996,
      "velocity": 125,
      "chip": "ym2612"
    },
    {
      "channel": 2,
      "note": 82,
      "start": 19.3172,
      "duration": 0.099,
      "velocity": 87,
      "chip": "ym2612"
    },
    {
      "channel": 3,
      "note": 79,
      "start": 19.3178,
      "duration": 0.1317,
      "velocity": 83,
      "chip": "ym2612"
    },
    {
      "channel": 4,
      "note": 41,
      "start": 19.3183,
      "duration": 0.1314,
      "velocity": 92,
      "chip": "ym2612"
    },
    {
      "channel": 4,
      "note": 53,
      "start": 19.4667,
      "duration": 0.1339,
      "velocity": 92,
      "chip": "ym2612"
    },
    {
      "channel": 2,
      "note": 80,
      "start": 19.6,
      "duration": 0.1162,
      "velocity": 87,
      "chip": "ym2612"
    },
    {
      "channel": 3,
      "note": 74,
      "start": 19.6005,
      "duration": 0.1157,
      "velocity": 83,
      "chip": "ym2612"
    },
    {
      "channel": 2,
      "note": 81,
      "start": 19.75,
      "duration": 0.1162,
      "velocity": 87,
      "chip": "ym2612"
    },
    {
      "channel": 3,
      "note": 75,
      "start": 19.7505,
      "duration": 0.1157,
      "velocity": 83,
      "chip": "ym2612"
    },
    {
      "channel": 0,
      "note": 44,
      "start": 19.9,
      "duration": 0.0996,
      "velocity": 125,
      "chip": "ym2612"
    },
    {
      "channel": 2,
      "note": 77,
      "start": 19.9005,
      "duration": 0.0824,
      "velocity": 87,
      "chip": "ym2612"
    },
    {
      "channel": 3,
      "note": 74,
      "start": 19.9011,
      "duration": 0.0985,
      "velocity": 83,
      "chip": "ym2612"
    },
    {
      "channel": 4,
      "note": 53,
      "start": 19.9016,
      "duration": 0.2481,
      "velocity": 92,
      "chip": "ym2612"
    },
    {
      "channel": 2,
      "note": 72,
      "start": 20.0333,
      "duration": 0.0662,
      "velocity": 87,
      "chip": "ym2612"
    },
    {
      "channel": 3,
      "note": 69,
      "start": 20.0339,
      "duration": 0.1157,
      "velocity": 83,
      "chip": "ym2612"
    },
    {
      "channel": 1,
      "note": 46,
      "start": 20.1833,
      "duration": 0.1662,
      "velocity": 127,
      "chip": "ym2612"
    },
    {
      "channel": 2,
      "note": 75,
      "start": 20.1838,
      "duration": 0.1157,
      "velocity": 87,
      "chip": "ym2612"
    },
    {
      "channel": 3,
      "note": 72,
      "start": 20.1844,
      "duration": 0.1652,
      "velocity": 83,
      "chip": "ym2612"
    },
    {
      "channel": 4,
      "note": 56,
      "start": 20.1849,
      "duration": 0.248,
      "velocity": 92,
      "chip": "ym2612"
    },
    {
      "channel": 0,
      "note": 44,
      "start": 20.3333,
      "duration": 0.0829,
      "velocity": 125,
      "chip": "ym2612"
    },
    {
      "channel": 0,
      "note": 44,
      "start": 20.4666,
      "duration": 0.0996,
      "velocity": 125,
      "chip": "ym2612"
    },
    {
      "channel": 4,
      "note": 57,
      "start": 20.4672,
      "duration": 0.1824,
      "velocity": 92,
      "chip": "ym2612"
    },
    {
      "channel": 0,
      "note": 44,
      "start": 20.7666,
      "duration": 0.0829,
      "velocity": 125,
      "chip": "ym2612"
    },
    {
      "channel": 4,
      "note": 58,
      "start": 20.7672,
      "duration": 0.1324,
      "velocity": 92,
      "chip": "ym2612"
    },
    {
      "channel": 5,
      "note": 82,
      "start": 20.7677,
      "duration": 0.0819,
      "velocity": 119,
      "chip": "ym2612"
    },
    {
      "channel": 5,
      "note": 82,
      "start": 20.9001,
      "duration": 0.0995,
      "velocity": 119,
      "chip": "ym2612"
    },
    {
      "channel": 5,
      "note": 82,
      "start": 21.05,
      "duration": 0.0995,
      "velocity": 119,
      "chip": "ym2612"
    },
    {
      "channel": 4,
      "note": 70,
      "start": 21.2,
      "duration": 0.0829,
      "velocity": 92,
      "chip": "ym2612"
    },
    {
      "channel": 5,
      "note": 82,
      "start": 21.2005,
      "duration": 0.0824,
      "velocity": 119,
      "chip": "ym2612"
    },
    {
      "channel": 1,
      "note": 46,
      "start": 21.3333,
      "duration": 0.2496,
      "velocity": 127,
      "chip": "ym2612"
    },
    {
      "channel": 5,
      "note": 82,
      "start": 21.4834,
      "duration": 0.0996,
      "velocity": 119,
      "chip": "ym2612"
    },
    {
      "channel": 0,
      "note": 44,
      "start": 21.6333,
      "duration": 0.0829,
      "velocity": 125,
      "chip": "ym2612"
    },
    {
      "channel": 4,
      "note": 68,
      "start": 21.6339,
      "duration": 0.099,
      "velocity": 92,
      "chip": "ym2612"
    },
    {
      "channel": 5,
      "note": 82,
      "start": 21.7667,
      "duration": 0.0995,
      "velocity": 119,
      "chip": "ym2612"
    },
    {
      "channel": 5,
      "note": 82,
      "start": 21.9167,
      "duration": 0.0995,
      "velocity": 119,
      "chip": "ym2612"
    },
    {
      "channel": 4,
      "note": 56,
      "start": 22.0667,
      "duration": 0.0162,
      "velocity": 92,
      "chip": "ym2612"
    },
    {
      "channel": 0,
      "note": 44,
      "start": 22.2,
      "duration": 0.0996,
      "velocity": 125,
      "chip": "ym2612"
    },
    {
      "channel": 4,
      "note": 48,
      "start": 22.2005,
      "duration": 0.2657,
      "velocity": 92,
      "chip": "ym2612"
    },
    {
      "channel": 5,
      "note": 72,
      "start": 22.2011,
      "duration": 0.0986,
      "velocity": 119,
      "chip": "ym2612"
    },
    {
      "channel": 5,
      "note": 72,
      "start": 22.35,
      "duration": 0.0995,
      "velocity": 119,
      "chip": "ym2612"
    },
    {
      "channel": 1,
      "note": 46,
      "start": 22.5,
      "duration": 0.2662,
      "velocity": 127,
      "chip": "ym2612"
    },
    {
      "channel": 4,
      "note": 51,
      "start": 22.5005,
      "duration": 0.249,
      "velocity": 92,
      "chip": "ym2612"
    },
    {
      "channel": 5,
      "note": 75,
      "start": 22.5011,
      "duration": 0.0819,
      "velocity": 119,
      "chip": "ym2612"
    },
    {
      "channel": 0,
      "note": 44,
      "start": 22.6333,
      "duration": 0.0996,
      "velocity": 125,
      "chip": "ym2612"
    },
    {
      "channel": 5,
      "note": 75,
      "start": 22.6339,
      "duration": 0.0991,
      "velocity": 119,
      "chip": "ym2612"
    },
    {
      "channel": 4,
      "note": 52,
      "start": 22.7834,
      "duration": 0.1829,
      "velocity": 92,
      "chip": "ym2612"
    },
    {
      "channel": 5,
      "note": 76,
      "start": 22.7839,
      "duration": 0.099,
      "velocity": 119,
      "chip": "ym2612"
    },
    {
      "channel": 5,
      "note": 76,
      "start": 22.9167,
      "duration": 0.0995,
      "velocity": 119,
      "chip": "ym2612"
    },
    {
      "channel": 0,
      "note": 44,
      "start": 23.0666,
      "duration": 0.0996,
      "velocity": 125,
      "chip": "ym2612"
    },
    {
      "channel": 2,
      "note": 87,
      "start": 23.0672,
      "duration": 0.049,
      "velocity": 87,
      "chip": "ym2612"
    },
    {
      "channel": 3,
      "note": 79,
      "start": 23.0677,
      "duration": 0.0985,
      "velocity": 83,
      "chip": "ym2612"
    },
    {
      "channel": 4,
      "note": 53,
      "start": 23.0682,
      "duration": 0.0982,
      "velocity": 92,
      "chip": "ym2612"
    },
    {
      "channel": 0,
      "note": 44,
      "start": 23.2166,
      "duration": 0.0996,
      "velocity": 125,
      "chip": "ym2612"
    },
    {
      "channel": 2,
      "note": 87,
      "start": 23.2172,
      "duration": 0.0824,
      "velocity": 87,
      "chip": "ym2612"
    },
    {
      "channel": 3,
      "note": 79,
      "start": 23.2177,
      "duration": 0.0985,
      "velocity": 83,
      "chip": "ym2612"
    },
    {
      "channel": 4,
      "note": 53,
      "start": 23.2182,
      "duration": 0.1147,
      "velocity": 92,
      "chip": "ym2612"
    },
    {
      "channel": 2,
      "note": 86,
      "start": 23.35,
      "duration": 0.1162,
      "velocity": 87,
      "chip": "ym2612"
    },
    {
      "channel": 3,
      "note": 89,
      "start": 23.3505,
      "duration": 0.099,
      "velocity": 83,
      "chip": "ym2612"
    },
    {
      "channel": 4,
      "note": 53,
      "start": 23.5,
      "duration": 0.0329,
      "velocity": 92,
      "chip": "ym2612"
    },
    {
      "channel": 1,
      "note": 46,
      "start": 23.65,
      "duration": 0.1329,
      "velocity": 127,
      "chip": "ym2612"
    },
    {
      "channel": 2,
      "note": 84,
      "start": 23.6505,
      "duration": 0.1157,
      "velocity": 87,
      "chip": "ym2612"
    },
    {
      "channel": 3,
      "note": 87,
      "start": 23.6511,
      "duration": 0.0985,
      "velocity": 83,
      "chip": "ym2612"
    },
    {
      "channel": 0,
      "note": 44,
      "start": 23.9333,
      "duration": 0.0996,
      "velocity": 125,
      "chip": "ym2612"
    },
    {
      "channel": 2,
      "note": 82,
      "start": 23.9338,
      "duration": 0.1157,
      "velocity": 87,
      "chip": "ym2612"
    },
    {
      "channel": 3,
      "note": 86,
      "start": 23.9344,
      "duration": 0.0985,
      "velocity": 83,
      "chip": "ym2612"
    },
    {
      "channel": 2,
      "note": 72,
      "start": 24.0833,
      "duration": 0.1162,
      "velocity": 87,
      "chip": "ym2612"
    },
    {
      "channel": 3,
      "note": 75,
      "start": 24.0839,
      "duration": 0.0823,
      "velocity": 83,
      "chip": "ym2612"
    },
    {
      "channel": 4,
      "note": 53,
      "start": 24.0844,
      "duration": 0.0819,
      "velocity": 92,
      "chip": "ym2612"
    },
    {
      "channel": 2,
      "note": 79,
      "start": 24.2166,
      "duration": 0.1329,
      "velocity": 87,
      "chip": "ym2612"
    },
    {
      "channel": 3,
      "note": 82,
      "start": 24.2172,
      "duration": 0.099,
      "velocity": 83,
      "chip": "ym2612"
    },
    {
      "channel": 2,
      "note": 80,
      "start": 24.3666,
      "duration": 0.0996,
      "velocity": 87,
      "chip": "ym2612"
    },
    {
      "channel": 3,
      "note": 83,
      "start": 24.3672,
      "duration": 0.099,
      "velocity": 83,
      "chip": "ym2612"
    },
    {
      "channel": 0,
      "note": 44,
      "start": 24.5166,
      "duration": 0.0829,
      "velocity": 125,
      "chip": "ym2612"
    },
    {
      "channel": 2,
      "note": 81,
      "start": 24.5172,
      "duration": 0.1324,
      "velocity": 87,
      "chip": "ym2612"
    },
    {
      "channel": 3,
      "note": 84,
      "start": 24.5177,
      "duration": 0.0819,
      "velocity": 83,
      "chip": "ym2612"
    },
    {
      "channel": 4,
      "note": 53,
      "start": 24.5182,
      "duration": 0.1147,
      "velocity": 92,
      "chip": "ym2612"
    },
    {
      "channel": 2,
      "note": 89,
      "start": 24.65,
      "duration": 0.4162,
      "velocity": 87,
      "chip": "ym2612"
    },
    {
      "channel": 3,
      "note": 81,
      "start": 24.6506,
      "duration": 0.0989,
      "velocity": 83,
      "chip": "ym2612"
    },
    {
      "channel": 1,
      "note": 46,
      "start": 24.8,
      "duration": 0.1329,
      "velocity": 127,
      "chip": "ym2612"
    },
    {
      "channel": 4,
      "note": 56,
      "start": 24.8005,
      "duration": 0.2157,
      "velocity": 92,
      "chip": "ym2612"
    },
    {
      "channel": 0,
      "note": 44,
      "start": 24.95,
      "duration": 0.0829,
      "velocity": 125,
      "chip": "ym2612"
    },
    {
      "channel": 0,
      "note": 44,
      "start": 25.0833,
      "duration": 0.0996,
      "velocity": 125,
      "chip": "ym2612"
    },
    {
      "channel": 2,
      "note": 86,
      "start": 25.0838,
      "duration": 0.1157,
      "velocity": 87,
      "chip": "ym2612"
    },
    {
      "channel": 3,
      "note": 89,
      "start": 25.0844,
      "duration": 0.0985,
      "velocity": 83,
      "chip": "ym2612"
    },
    {
      "channel": 4,
      "note": 57,
      "start": 25.0849,
      "duration": 0.148,
      "velocity": 92,
      "chip": "ym2612"
    },
    {
      "channel": 0,
      "note": 44,
      "start": 25.3833,
      "duration": 0.0829,
      "velocity": 125,
      "chip": "ym2612"
    },
    {
      "channel": 4,
      "note": 58,
      "start": 25.3839,
      "duration": 0.1157,
      "velocity": 92,
      "chip": "ym2612"
    },
    {
      "channel": 5,
      "note": 82,
      "start": 25.3844,
      "duration": 0.0819,
      "velocity": 119,
      "chip": "ym2612"
    },
    {
      "channel": 5,
      "note": 82,
      "start": 25.5167,
      "duration": 0.0995,
      "velocity": 119,
      "chip": "ym2612"
    },
    {
      "channel": 5,
      "note": 82,
      "start": 25.6667,
      "duration": 0.0995,
      "velocity": 119,
      "chip": "ym2612"
    },
    {
      "channel": 0,
      "note": 44,
      "start": 25.8166,
      "duration": 0.0829,
      "velocity": 125,
      "chip": "ym2612"
    },
    {
      "channel": 4,
      "note": 70,
      "start": 25.8172,
      "duration": 0.0324,
      "velocity": 92,
      "chip": "ym2612"
    },
    {
      "channel": 5,
      "note": 82,
      "start": 25.8177,
      "duration": 0.0819,
      "velocity": 119,
      "chip": "ym2612"
    },
    {
      "channel": 1,
      "note": 46,
      "start": 25.95,
      "duration": 0.1996,
      "velocity": 127,
      "chip": "ym2612"
    },
    {
      "channel": 5,
      "note": 82,
      "start": 26.1,
      "duration": 0.0995,
      "velocity": 119,
      "chip": "ym2612"
    },
    {
      "channel": 0,
      "note": 44,
      "start": 26.25,
      "duration": 0.0829,
      "velocity": 125,
      "chip": "ym2612"
    },
    {
      "channel": 4,
      "note": 68,
      "start": 26.2505,
      "duration": 0.0824,
      "velocity": 92,
      "chip": "ym2612"
    },
    {
      "channel": 5,
      "note": 82,
      "start": 26.3834,
      "duration": 0.0995,
      "velocity": 119,
      "chip": "ym2612"
    },
    {
      "channel": 4,
      "note": 46,
      "start": 26.5334,
      "duration": 0.1329,
      "velocity": 92,
      "chip": "ym2612"
    },
    {
      "channel": 4,
      "note": 58,
      "start": 26.6668,
      "duration": 0.0661,
      "velocity": 92,
      "chip": "ym2612"
    },
    {
      "channel": 5,
      "note": 82,
      "start": 26.6673,
      "duration": 0.099,
      "velocity": 119,
      "chip": "ym2612"
    },
    {
      "channel": 0,
      "note": 44,
      "start": 26.8166,
      "duration": 0.0996,
      "velocity": 125,
      "chip": "ym2612"
    },
    {
      "channel": 5,
      "note": 80,
      "start": 26.8172,
      "duration": 0.0991,
      "velocity": 119,
      "chip": "ym2612"
    },
    {
      "channel": 5,
      "note": 82,
      "start": 26.9667,
      "duration": 0.0995,
      "velocity": 119,
      "chip": "ym2612"
    },
    {
      "channel": 1,
      "note": 46,
      "start": 27.1,
      "duration": 0.5162,
      "velocity": 127,
      "chip": "ym2612"
    },
    {
      "channel": 4,
      "note": 59,
      "start": 27.1005,
      "duration": 0.0824,
      "velocity": 92,
      "chip": "ym2612"
    },
    {
      "channel": 5,
      "note": 83,
      "start": 27.1011,
      "duration": 0.0819,
      "velocity": 119,
      "chip": "ym2612"
    },
    {
      "channel": 4,
      "note": 58,
      "start": 27.2,
      "duration": 0.0829,
      "velocity": 92,
      "chip": "ym2612"
    },
    {
      "channel": 5,
      "note": 82,
      "start": 27.2005,
      "duration": 0.0824,
      "velocity": 119,
      "chip": "ym2612"
    },
    {
      "channel": 4,
      "note": 56,
      "start": 27.3,
      "duration": 0.0995,
      "velocity": 92,
      "chip": "ym2612"
    },
    {
      "channel": 5,
      "note": 80,
      "start": 27.3005,
      "duration": 0.0657,
      "velocity": 119,
      "chip": "ym2612"
    },
    {
      "channel": 4,
      "note": 53,
      "start": 27.4001,
      "duration": 0.1333,
      "velocity": 92,
      "chip": "ym2612"
    },
    {
      "channel": 5,
      "note": 82,
      "start": 27.4006,
      "duration": 0.099,
      "velocity": 119,
      "chip": "ym2612"
    },
    {
      "channel": 2,
      "note": 72,
      "start": 27.5333,
      "duration": 0.0996,
      "velocity": 87,
      "chip": "ym2612"
    },
    {
      "channel": 4,
      "note": 51,
      "start": 27.5339,
      "duration": 0.1323,
      "velocity": 92,
      "chip": "ym2612"
    },
    {
      "channel": 5,
      "note": 80,
      "start": 27.5345,
      "duration": 0.0985,
      "velocity": 119,
      "chip": "ym2612"
    },
    {
      "channel": 0,
      "note": 44,
      "start": 27.6833,
      "duration": 0.0996,
      "velocity": 125,
      "chip": "ym2612"
    },
    {
      "channel": 2,
      "note": 87,
      "start": 27.6838,
      "duration": 0.0824,
      "velocity": 87,
      "chip": "ym2612"
    },
    {
      "channel": 3,
      "note": 84,
      "start": 27.6844,
      "duration": 0.0651,
      "velocity": 83,
      "chip": "ym2612"
    },
    {
      "channel": 4,
      "note": 51,
      "start": 27.6849,
      "duration": 0.1314,
      "velocity": 92,
      "chip": "ym2612"
    },
    {
      "channel": 2,
      "note": 87,
      "start": 27.8333,
      "duration": 0.0996,
      "velocity": 87,
      "chip": "ym2612"
    },
    {
      "channel": 3,
      "note": 84,
      "start": 27.8339,
      "duration": 0.0823,
      "velocity": 83,
      "chip": "ym2612"
    },
    {
      "channel": 4,
      "note": 53,
      "start": 27.8344,
      "duration": 0.0986,
      "velocity": 92,
      "chip": "ym2612"
    },
    {
      "channel": 2,
      "note": 86,
      "start": 27.9666,
      "duration": 0.1162,
      "velocity": 87,
      "chip": "ym2612"
    },
    {
      "channel": 3,
      "note": 82,
      "start": 27.9672,
      "duration": 0.1323,
      "velocity": 83,
      "chip": "ym2612"
    },
    {
      "channel": 4,
      "note": 63,
      "start": 27.9677,
      "duration": 0.1153,
      "velocity": 92,
      "chip": "ym2612"
    },
    {
      "channel": 0,
      "note": 44,
      "start": 28.1166,
      "duration": 0.0996,
      "velocity": 125,
      "chip": "ym2612"
    },
    {
      "channel": 4,
      "note": 53,
      "start": 28.1172,
      "duration": 0.1324,
      "velocity": 92,
      "chip": "ym2612"
    },
    {
      "channel": 1,
      "note": 46,
      "start": 28.2666,
      "duration": 0.2329,
      "velocity": 127,
      "chip": "ym2612"
    },
    {
      "channel": 2,
      "note": 84,
      "start": 28.2672,
      "duration": 0.1157,
      "velocity": 87,
      "chip": "ym2612"
    },
    {
      "channel": 3,
      "note": 81,
      "start": 28.2677,
      "duration": 0.1152,
      "velocity": 83,
      "chip": "ym2612"
    },
    {
      "channel": 4,
      "note": 56,
      "start": 28.2682,
      "duration": 0.1148,
      "velocity": 92,
      "chip": "ym2612"
    },
    {
      "channel": 4,
      "note": 65,
      "start": 28.4,
      "duration": 0.0996,
      "velocity": 92,
      "chip": "ym2612"
    },
    {
      "channel": 0,
      "note": 44,
      "start": 28.55,
      "duration": 0.0996,
      "velocity": 125,
      "chip": "ym2612"
    },
    {
      "channel": 2,
      "note": 82,
      "start": 28.5505,
      "duration": 0.1324,
      "velocity": 87,
      "chip": "ym2612"
    },
    {
      "channel": 3,
      "note": 79,
      "start": 28.5511,
      "duration": 0.0985,
      "velocity": 83,
      "chip": "ym2612"
    },
    {
      "channel": 4,
      "note": 56,
      "start": 28.5516,
      "duration": 0.1314,
      "velocity": 92,
      "chip": "ym2612"
    },
    {
      "channel": 2,
      "note": 79,
      "start": 28.7,
      "duration": 0.0829,
      "velocity": 87,
      "chip": "ym2612"
    },
    {
      "channel": 3,
      "note": 75,
      "start": 28.7005,
      "duration": 0.0824,
      "velocity": 83,
      "chip": "ym2612"
    },
    {
      "channel": 4,
      "note": 58,
      "start": 28.7011,
      "duration": 0.1152,
      "velocity": 92,
      "chip": "ym2612"
    },
    {
      "channel": 2,
      "note": 80,
      "start": 28.8333,
      "duration": 0.1162,
      "velocity": 87,
      "chip": "ym2612"
    },
    {
      "channel": 3,
      "note": 74,
      "start": 28.8339,
      "duration": 0.1157,
      "velocity": 83,
      "chip": "ym2612"
    },
    {
      "channel": 4,
      "note": 68,
      "start": 28.8344,
      "duration": 0.0985,
      "velocity": 92,
      "chip": "ym2612"
    },
    {
      "channel": 2,
      "note": 81,
      "start": 28.9833,
      "duration": 0.1162,
      "velocity": 87,
      "chip": "ym2612"
    },
    {
      "channel": 3,
      "note": 75,
      "start": 28.9839,
      "duration": 0.1157,
      "velocity": 83,
      "chip": "ym2612"
    },
    {
      "channel": 4,
      "note": 56,
      "start": 28.9844,
      "duration": 0.0319,
      "velocity": 92,
      "chip": "ym2612"
    },
    {
      "channel": 0,
      "note": 44,
      "start": 29.1333,
      "duration": 0.0829,
      "velocity": 125,
      "chip": "ym2612"
    },
    {
      "channel": 2,
      "note": 77,
      "start": 29.1338,
      "duration": 0.1157,
      "velocity": 87,
      "chip": "ym2612"
    },
    {
      "channel": 3,
      "note": 74,
      "start": 29.1344,
      "duration": 0.0985,
      "velocity": 83,
      "chip": "ym2612"
    },
    {
      "channel": 4,
      "note": 70,
      "start": 29.1349,
      "duration": 0.0647,
      "velocity": 92,
      "chip": "ym2612"
    },
    {
      "channel": 2,
      "note": 72,
      "start": 29.2666,
      "duration": 0.1329,
      "velocity": 87,
      "chip": "ym2612"
    },
    {
      "channel": 3,
      "note": 69,
      "start": 29.2672,
      "duration": 0.2157,
      "velocity": 83,
      "chip": "ym2612"
    },
    {
      "channel": 4,
      "note": 58,
      "start": 29.2677,
      "duration": 0.0485,
      "velocity": 92,
      "chip": "ym2612"
    },
    {
      "channel": 1,
      "note": 46,
      "start": 29.4166,
      "duration": 0.1662,
      "velocity": 127,
      "chip": "ym2612"
    },
    {
      "channel": 4,
      "note": 56,
      "start": 29.4172,
      "duration": 0.1157,
      "velocity": 92,
      "chip": "ym2612"
    },
    {
      "channel": 0,
      "note": 44,
      "start": 29.5666,
      "duration": 0.0829,
      "velocity": 125,
      "chip": "ym2612"
    },
    {
      "channel": 2,
      "note": 89,
      "start": 29.5672,
      "duration": 0.0824,
      "velocity": 87,
      "chip": "ym2612"
    },
    {
      "channel": 3,
      "note": 87,
      "start": 29.5677,
      "duration": 0.0651,
      "velocity": 83,
      "chip": "ym2612"
    },
    {
      "channel": 4,
      "note": 53,
      "start": 29.5682,
      "duration": 0.1147,
      "velocity": 92,
      "chip": "ym2612"
    },
    {
      "channel": 0,
      "note": 44,
      "start": 29.7,
      "duration": 0.0996,
      "velocity": 125,
      "chip": "ym2612"
    },
    {
      "channel": 4,
      "note": 51,
      "start": 29.7005,
      "duration": 0.249,
      "velocity": 92,
      "chip": "ym2612"
    },
    {
      "channel": 0,
      "note": 44,
      "start": 30.0,
      "duration": 0.0829,
      "velocity": 125,
      "chip": "ym2612"
    },
    {
      "channel": 4,
      "note": 58,
      "start": 30.0005,
      "duration": 0.199,
      "velocity": 92,
      "chip": "ym2612"
    },
    {
      "channel": 5,
      "note": 82,
      "start": 30.1334,
      "duration": 0.0995,
      "velocity": 119,
      "chip": "ym2612"
    },
    {
      "channel": 4,
      "note": 58,
      "start": 30.2834,
      "duration": 0.0162,
      "velocity": 92,
      "chip": "ym2612"
    },
    {
      "channel": 0,
      "note": 44,
      "start": 30.4166,
      "duration": 0.0996,
      "velocity": 125,
      "chip": "ym2612"
    },
    {
      "channel": 4,
      "note": 70,
      "start": 30.4172,
      "duration": 0.049,
      "velocity": 92,
      "chip": "ym2612"
    },
    {
      "channel": 5,
      "note": 82,
      "start": 30.4177,
      "duration": 0.0986,
      "velocity": 119,
      "chip": "ym2612"
    },
    {
      "channel": 1,
      "note": 46,
      "start": 30.5666,
      "duration": 0.2662,
      "velocity": 127,
      "chip": "ym2612"
    },
    {
      "channel": 5,
      "note": 82,
      "start": 30.5672,
      "duration": 0.099,
      "velocity": 119,
      "chip": "ym2612"
    },
    {
      "channel": 0,
      "note": 44,
      "start": 30.85,
      "duration": 0.0996,
      "velocity": 125,
      "chip": "ym2612"
    },
    {
      "channel": 4,
      "note": 68,
      "start": 30.8505,
      "duration": 0.0991,
      "velocity": 92,
      "chip": "ym2612"
    },
    {
      "channel": 5,
      "note": 82,
      "start": 30.8511,
      "duration": 0.0987,
      "velocity": 119,
      "chip": "ym2612"
    },
    {
      "channel": 5,
      "note": 84,
      "start": 31.0,
      "duration": 0.0995,
      "velocity": 119,
      "chip": "ym2612"
    },
    {
      "channel": 4,
      "note": 46,
      "start": 31.15,
      "duration": 0.2838,
      "velocity": 92,
      "chip": "ym2612"
    },
    {
      "channel": 5,
      "note": 84,
      "start": 31.2834,
      "duration": 0.0995,
      "velocity": 119,
      "chip": "ym2612"
    },
    {
      "channel": 0,
      "note": 44,
      "start": 31.4333,
      "duration": 0.0996,
      "velocity": 125,
      "chip": "ym2612"
    },
    {
      "channel": 4,
      "note": 46,
      "start": 31.4339,
      "duration": 0.2157,
      "velocity": 92,
      "chip": "ym2612"
    },
    {
      "channel": 5,
      "note": 87,
      "start": 31.4344,
      "duration": 0.0986,
      "velocity": 119,
      "chip": "ym2612"
    },
    {
      "channel": 5,
      "note": 84,
      "start": 31.5834,
      "duration": 0.0829,
      "velocity": 119,
      "chip": "ym2612"
    },
    {
      "channel": 1,
      "note": 46,
      "start": 31.7166,
      "duration": 0.0829,
      "velocity": 127,
      "chip": "ym2612"
    },
    {
      "channel": 4,
      "note": 49,
      "start": 31.7172,
      "duration": 0.2158,
      "velocity": 92,
      "chip": "ym2612"
    },
    {
      "channel": 5,
      "note": 89,
      "start": 31.7177,
      "duration": 0.0985,
      "velocity": 119,
      "chip": "ym2612"
    },
    {
      "channel": 1,
      "note": 46,
      "start": 31.8666,
      "duration": 0.0662,
      "velocity": 127,
      "chip": "ym2612"
    },
    {
      "channel": 5,
      "note": 87,
      "start": 31.8672,
      "duration": 0.099,
      "velocity": 119,
      "chip": "ym2612"
    },
    {
      "channel": 0,
      "note": 44,
      "start": 32.0166,
      "duration": 0.0829,
      "velocity": 125,
      "chip": "ym2612"
    },
    {
      "channel": 4,
      "note": 50,
      "start": 32.0172,
      "duration": 0.199,
      "velocity": 92,
      "chip": "ym2612"
    },
    {
      "channel": 5,
      "note": 84,
      "start": 32.0177,
      "duration": 0.0819,
      "velocity": 119,
      "chip": "ym2612"
    },
    {
      "channel": 2,
      "note": 72,
      "start": 32.15,
      "duration": 0.0829,
      "velocity": 87,
      "chip": "ym2612"
    },
    {
      "channel": 0,
      "note": 44,
      "start": 32.3,
      "duration": 0.0996,
      "velocity": 125,
      "chip": "ym2612"
    },
    {
      "channel": 2,
      "note": 85,
      "start": 32.3005,
      "duration": 0.0657,
      "velocity": 87,
      "chip": "ym2612"
    },
    {
      "channel": 3,
      "note": 82,
      "start": 32.3011,
      "duration": 0.0485,
      "velocity": 83,
      "chip": "ym2612"
    },
    {
      "channel": 4,
      "note": 51,
      "start": 32.3016,
      "duration": 0.149,
      "velocity": 92,
      "chip": "ym2612"
    },
    {
      "channel": 2,
      "note": 85,
      "start": 32.45,
      "duration": 0.0996,
      "velocity": 87,
      "chip": "ym2612"
    },
    {
      "channel": 3,
      "note": 82,
      "start": 32.4505,
      "duration": 0.0657,
      "velocity": 83,
      "chip": "ym2612"
    },
    {
      "channel": 2,
      "note": 84,
      "start": 32.5833,
      "duration": 0.0996,
      "velocity": 87,
      "chip": "ym2612"
    },
    {
      "channel": 3,
      "note": 80,
      "start": 32.5839,
      "duration": 0.1657,
      "velocity": 83,
      "chip": "ym2612"
    },
    {
      "channel": 0,
      "note": 44,
      "start": 32.7333,
      "duration": 0.0996,
      "velocity": 125,
      "chip": "ym2612"
    },
    {
      "channel": 4,
      "note": 51,
      "start": 32.7339,
      "duration": 0.0158,
      "velocity": 92,
      "chip": "ym2612"
    },
    {
      "channel": 1,
      "note": 46,
      "start": 32.8833,
      "duration": 0.1662,
      "velocity": 127,
      "chip": "ym2612"
    },
    {
      "channel": 2,
      "note": 82,
      "start": 32.8838,
      "duration": 0.1157,
      "velocity": 87,
      "chip": "ym2612"
    },
    {
      "channel": 3,
      "note": 78,
      "start": 32.8844,
      "duration": 0.1318,
      "velocity": 83,
      "chip": "ym2612"
    },
    {
      "channel": 4,
      "note": 63,
      "start": 32.8849,
      "duration": 0.0648,
      "velocity": 92,
      "chip": "ym2612"
    },
    {
      "channel": 0,
      "note": 44,
      "start": 33.1666,
      "duration": 0.0996,
      "velocity": 125,
      "chip": "ym2612"
    },
    {
      "channel": 2,
      "note": 80,
      "start": 33.1672,
      "duration": 0.1157,
      "velocity": 87,
      "chip": "ym2612"
    },
    {
      "channel": 3,
      "note": 77,
      "start": 33.1677,
      "duration": 0.1318,
      "velocity": 83,
      "chip": "ym2612"
    },
    {
      "channel": 4,
      "note": 61,
      "start": 33.1682,
      "duration": 0.1148,
      "velocity": 92,
      "chip": "ym2612"
    },
    {
      "channel": 2,
      "note": 70,
      "start": 33.3166,
      "duration": 0.0996,
      "velocity": 87,
      "chip": "ym2612"
    },
    {
      "channel": 2,
      "note": 77,
      "start": 33.45,
      "duration": 0.1329,
      "velocity": 87,
      "chip": "ym2612"
    },
    {
      "channel": 3,
      "note": 73,
      "start": 33.4505,
      "duration": 0.1324,
      "velocity": 83,
      "chip": "ym2612"
    },
    {
      "channel": 4,
      "note": 56,
      "start": 33.4511,
      "duration": 0.1152,
      "velocity": 92,
      "chip": "ym2612"
    },
    {
      "channel": 2,
      "note": 78,
      "start": 33.6,
      "duration": 0.0996,
      "velocity": 87,
      "chip": "ym2612"
    },
    {
      "channel": 3,
      "note": 74,
      "start": 33.6005,
      "duration": 0.0657,
      "velocity": 83,
      "chip": "ym2612"
    },
    {
      "channel": 4,
      "note": 56,
      "start": 33.6011,
      "duration": 0.1152,
      "velocity": 92,
      "chip": "ym2612"
    },
    {
      "channel": 0,
      "note": 44,
      "start": 33.75,
      "duration": 0.0829,
      "velocity": 125,
      "chip": "ym2612"
    },
    {
      "channel": 2,
      "note": 79,
      "start": 33.7505,
      "duration": 0.099,
      "velocity": 87,
      "chip": "ym2612"
    },
    {
      "channel": 3,
      "note": 75,
      "start": 33.7511,
      "duration": 0.0985,
      "velocity": 83,
      "chip": "ym2612"
    },
    {
      "channel": 4,
      "note": 54,
      "start": 33.7516,
      "duration": 0.1147,
      "velocity": 92,
      "chip": "ym2612"
    },
    {
      "channel": 2,
      "note": 87,
      "start": 33.8833,
      "duration": 0.4162,
      "velocity": 87,
      "chip": "ym2612"
    },
    {
      "channel": 3,
      "note": 78,
      "start": 33.8839,
      "duration": 0.3824,
      "velocity": 83,
      "chip": "ym2612"
    },
    {
      "channel": 4,
      "note": 51,
      "start": 33.8844,
      "duration": 0.1152,
      "velocity": 92,
      "chip": "ym2612"
    },
    {
      "channel": 1,
      "note": 46,
      "start": 34.0333,
      "duration": 0.0662,
      "velocity": 127,
      "chip": "ym2612"
    },
    {
      "channel": 4,
      "note": 49,
      "start": 34.0339,
      "duration": 0.1157,
      "velocity": 92,
      "chip": "ym2612"
    },
    {
      "channel": 0,
      "note": 44,
      "start": 34.1666,
      "duration": 0.0996,
      "velocity": 125,
      "chip": "ym2612"
    },
    {
      "channel": 4,
      "note": 51,
      "start": 34.1672,
      "duration": 0.0992,
      "velocity": 92,
      "chip": "ym2612"
    },
    {
      "channel": 2,
      "note": 84,
      "start": 34.3166,
      "duration": 0.1329,
      "velocity": 87,
      "chip": "ym2612"
    },
    {
      "channel": 3,
      "note": 75,
      "start": 34.3172,
      "duration": 0.149,
      "velocity": 83,
      "chip": "ym2612"
    },
    {
      "channel": 4,
      "note": 54,
      "start": 34.3177,
      "duration": 0.1319,
      "velocity": 92,
      "chip": "ym2612"
    },
    {
      "channel": 4,
      "note": 51,
      "start": 34.4668,
      "duration": 0.0828,
      "velocity": 92,
      "chip": "ym2612"
    },
    {
      "channel": 0,
      "note": 44,
      "start": 34.6,
      "duration": 0.0996,
      "velocity": 125,
      "chip": "ym2612"
    },
    {
      "channel": 4,
      "note": 44,
      "start": 34.6005,
      "duration": 0.1324,
      "velocity": 92,
      "chip": "ym2612"
    },
    {
      "channel": 4,
      "note": 56,
      "start": 34.75,
      "duration": 0.0829,
      "velocity": 92,
      "chip": "ym2612"
    },
    {
      "channel": 0,
      "note": 44,
      "start": 34.9,
      "duration": 0.1329,
      "velocity": 125,
      "chip": "ym2612"
    },
    {
      "channel": 0,
      "note": 44,
      "start": 35.0334,
      "duration": 0.0995,
      "velocity": 125,
      "chip": "ym2612"
    },
    {
      "channel": 2,
      "note": 68,
      "start": 35.0339,
      "duration": 0.0323,
      "velocity": 87,
      "chip": "ym2612"
    },
    {
      "channel": 4,
      "note": 44,
      "start": 35.0345,
      "duration": 0.1318,
      "velocity": 92,
      "chip": "ym2612"
    },
    {
      "channel": 1,
      "note": 46,
      "start": 35.1833,
      "duration": 0.2162,
      "velocity": 127,
      "chip": "ym2612"
    },
    {
      "channel": 2,
      "note": 78,
      "start": 35.1838,
      "duration": 0.0824,
      "velocity": 87,
      "chip": "ym2612"
    },
    {
      "channel": 3,
      "note": 83,
      "start": 35.1844,
      "duration": 0.0819,
      "velocity": 83,
      "chip": "ym2612"
    },
    {
      "channel": 4,
      "note": 44,
      "start": 35.1849,
      "duration": 0.1314,
      "velocity": 92,
      "chip": "ym2612"
    },
    {
      "channel": 4,
      "note": 46,
      "start": 35.3334,
      "duration": 0.1162,
      "velocity": 92,
      "chip": "ym2612"
    },
    {
      "channel": 0,
      "note": 44,
      "start": 35.4666,
      "duration": 0.0996,
      "velocity": 125,
      "chip": "ym2612"
    },
    {
      "channel": 2,
      "note": 78,
      "start": 35.4672,
      "duration": 0.0657,
      "velocity": 87,
      "chip": "ym2612"
    },
    {
      "channel": 3,
      "note": 83,
      "start": 35.4677,
      "duration": 0.0985,
      "velocity": 83,
      "chip": "ym2612"
    },
    {
      "channel": 4,
      "note": 58,
      "start": 35.4682,
      "duration": 0.1314,
      "velocity": 92,
      "chip": "ym2612"
    },
    {
      "channel": 4,
      "note": 46,
      "start": 35.6167,
      "duration": 0.1329,
      "velocity": 92,
      "chip": "ym2612"
    },
    {
      "channel": 2,
      "note": 78,
      "start": 35.7666,
      "duration": 0.0496,
      "velocity": 87,
      "chip": "ym2612"
    },
    {
      "channel": 3,
      "note": 83,
      "start": 35.7672,
      "duration": 0.099,
      "velocity": 83,
      "chip": "ym2612"
    },
    {
      "channel": 4,
      "note": 47,
      "start": 35.7677,
      "duration": 0.1319,
      "velocity": 92,
      "chip": "ym2612"
    },
    {
      "channel": 4,
      "note": 48,
      "start": 35.9001,
      "duration": 0.1328,
      "velocity": 92,
      "chip": "ym2612"
    },
    {
      "channel": 0,
      "note": 44,
      "start": 36.05,
      "duration": 0.0996,
      "velocity": 125,
      "chip": "ym2612"
    },
    {
      "channel": 2,
      "note": 78,
      "start": 36.0505,
      "duration": 0.049,
      "velocity": 87,
      "chip": "ym2612"
    },
    {
      "channel": 3,
      "note": 83,
      "start": 36.0511,
      "duration": 0.0985,
      "velocity": 83,
      "chip": "ym2612"
    },
    {
      "channel": 4,
      "note": 56,
      "start": 36.0516,
      "duration": 0.1314,
      "velocity": 92,
      "chip": "ym2612"
    },
    {
      "channel": 4,
      "note": 58,
      "start": 36.2,
      "duration": 0.1344,
      "velocity": 92,
      "chip": "ym2612"
    },
    {
      "channel": 1,
      "note": 46,
      "start": 36.3333,
      "duration": 0.0996,
      "velocity": 127,
      "chip": "ym2612"
    },
    {
      "channel": 2,
      "note": 78,
      "start": 36.3338,
      "duration": 0.1324,
      "velocity": 87,
      "chip": "ym2612"
    },
    {
      "channel": 3,
      "note": 83,
      "start": 36.3344,
      "duration": 0.1151,
      "velocity": 83,
      "chip": "ym2612"
    },
    {
      "channel": 4,
      "note": 64,
      "start": 36.335,
      "duration": 0.098,
      "velocity": 92,
      "chip": "ym2612"
    },
    {
      "channel": 0,
      "note": 44,
      "start": 36.4833,
      "duration": 0.0996,
      "velocity": 125,
      "chip": "ym2612"
    },
    {
      "channel": 2,
      "note": 80,
      "start": 36.4838,
      "duration": 0.0991,
      "velocity": 87,
      "chip": "ym2612"
    },
    {
      "channel": 3,
      "note": 85,
      "start": 36.4844,
      "duration": 0.0986,
      "velocity": 83,
      "chip": "ym2612"
    },
    {
      "channel": 4,
      "note": 44,
      "start": 36.4849,
      "duration": 0.0982,
      "velocity": 92,
      "chip": "ym2612"
    },
    {
      "channel": 1,
      "note": 46,
      "start": 36.6333,
      "duration": 0.1162,
      "velocity": 127,
      "chip": "ym2612"
    },
    {
      "channel": 4,
      "note": 47,
      "start": 36.6339,
      "duration": 0.1158,
      "velocity": 92,
      "chip": "ym2612"
    },
    {
      "channel": 1,
      "note": 46,
      "start": 36.7666,
      "duration": 0.1502,
      "velocity": 127,
      "chip": "ym2612"
    },
    {
      "channel": 4,
      "note": 48,
      "start": 36.7672,
      "duration": 0.1157,
      "velocity": 92,
      "chip": "ym2612"
    },
    {
      "channel": 0,
      "note": 44,
      "start": 36.9167,
      "duration": 0.0828,
      "velocity": 125,
      "chip": "ym2612"
    },
    {
      "channel": 4,
      "note": 49,
      "start": 36.9177,
      "duration": 0.2319,
      "velocity": 111,
      "chip": "ym2612"
    },
    {
      "channel": 5,
      "note": 61,
      "start": 36.9182,
      "duration": 0.2314,
      "velocity": 83,
      "chip": "ym2612"
    },
    {
      "channel": 0,
      "note": 44,
      "start": 37.3333,
      "duration": 0.0996,
      "velocity": 125,
      "chip": "ym2612"
    },
    {
      "channel": 2,
      "note": 73,
      "start": 37.3338,
      "duration": 0.049,
      "velocity": 87,
      "chip": "ym2612"
    },
    {
      "channel": 4,
      "note": 58,
      "start": 37.3344,
      "duration": 0.0819,
      "velocity": 111,
      "chip": "ym2612"
    },
    {
      "channel": 5,
      "note": 70,
      "start": 37.3349,
      "duration": 0.0814,
      "velocity": 83,
      "chip": "ym2612"
    },
    {
      "channel": 1,
      "note": 46,
      "start": 37.4833,
      "duration": 0.2834,
      "velocity": 127,
      "chip": "ym2612"
    },
    {
      "channel": 2,
      "note": 78,
      "start": 37.4838,
      "duration": 0.0824,
      "velocity": 87,
      "chip": "ym2612"
    },
    {
      "channel": 4,
      "note": 59,
      "start": 37.4844,
      "duration": 0.0985,
      "velocity": 111,
      "chip": "ym2612"
    },
    {
      "channel": 5,
      "note": 71,
      "start": 37.4849,
      "duration": 0.0981,
      "velocity": 83,
      "chip": "ym2612"
    },
    {
      "channel": 0,
      "note": 44,
      "start": 37.7666,
      "duration": 0.0996,
      "velocity": 125,
      "chip": "ym2612"
    },
    {
      "channel": 2,
      "note": 80,
      "start": 37.7672,
      "duration": 0.0657,
      "velocity": 87,
      "chip": "ym2612"
    },
    {
      "channel": 4,
      "note": 58,
      "start": 37.7678,
      "duration": 0.0818,
      "velocity": 111,
      "chip": "ym2612"
    },
    {
      "channel": 5,
      "note": 70,
      "start": 37.7683,
      "duration": 0.0814,
      "velocity": 83,
      "chip": "ym2612"
    },
    {
      "channel": 2,
      "note": 83,
      "start": 38.0666,
      "duration": 0.0496,
      "velocity": 87,
      "chip": "ym2612"
    },
    {
      "channel": 4,
      "note": 59,
      "start": 38.0672,
      "duration": 0.0657,
      "velocity": 111,
      "chip": "ym2612"
    },
    {
      "channel": 5,
      "note": 71,
      "start": 38.0677,
      "duration": 0.0653,
      "velocity": 83,
      "chip": "ym2612"
    },
    {
      "channel": 0,
      "note": 44,
      "start": 38.35,
      "duration": 0.0996,
      "velocity": 125,
      "chip": "ym2612"
    },
    {
      "channel": 2,
      "note": 85,
      "start": 38.3505,
      "duration": 0.0824,
      "velocity": 87,
      "chip": "ym2612"
    },
    {
      "channel": 4,
      "note": 58,
      "start": 38.3511,
      "duration": 0.0986,
      "velocity": 111,
      "chip": "ym2612"
    },
    {
      "channel": 5,
      "note": 70,
      "start": 38.3516,
      "duration": 0.0982,
      "velocity": 83,
      "chip": "ym2612"
    },
    {
      "channel": 2,
      "note": 83,
      "start": 38.5,
      "duration": 0.0162,
      "velocity": 87,
      "chip": "ym2612"
    },
    {
      "channel": 1,
      "note": 46,
      "start": 38.6333,
      "duration": 0.1662,
      "velocity": 127,
      "chip": "ym2612"
    },
    {
      "channel": 2,
      "note": 89,
      "start": 38.6338,
      "duration": 0.1324,
      "velocity": 87,
      "chip": "ym2612"
    },
    {
      "channel": 4,
      "note": 59,
      "start": 38.6344,
      "duration": 0.0985,
      "velocity": 111,
      "chip": "ym2612"
    },
    {
      "channel": 5,
      "note": 71,
      "start": 38.6349,
      "duration": 0.0981,
      "velocity": 83,
      "chip": "ym2612"
    },
    {
      "channel": 0,
      "note": 44,
      "start": 38.7833,
      "duration": 0.0996,
      "velocity": 125,
      "chip": "ym2612"
    },
    {
      "channel": 2,
      "note": 88,
      "start": 38.7838,
      "duration": 0.5824,
      "velocity": 87,
      "chip": "ym2612"
    },
    {
      "channel": 3,
      "note": 94,
      "start": 38.7844,
      "duration": 0.582,
      "velocity": 127,
      "chip": "ym2612"
    },
    {
      "channel": 4,
      "note": 52,
      "start": 38.7849,
      "duration": 0.198,
      "velocity": 111,
      "chip": "ym2612"
    },
    {
      "channel": 5,
      "note": 64,
      "start": 38.7854,
      "duration": 0.1976,
      "velocity": 83,
      "chip": "ym2612"
    },
    {
      "channel": 0,
      "note": 44,
      "start": 39.0666,
      "duration": 0.0996,
      "velocity": 125,
      "chip": "ym2612"
    },
    {
      "channel": 4,
      "note": 54,
      "start": 39.0673,
      "duration": 0.1324,
      "velocity": 111,
      "chip": "ym2612"
    },
    {
      "channel": 5,
      "note": 66,
      "start": 39.0679,
      "duration": 0.1319,
      "velocity": 83,
      "chip": "ym2612"
    },
    {
      "channel": 0,
      "note": 44,
      "start": 39.65,
      "duration": 0.0996,
      "velocity": 125,
      "chip": "ym2612"
    },
    {
      "channel": 1,
      "note": 46,
      "start": 39.8,
      "duration": 0.2329,
      "velocity": 127,
      "chip": "ym2612"
    },
    {
      "channel": 0,
      "note": 44,
      "start": 40.0833,
      "duration": 0.0996,
      "velocity": 125,
      "chip": "ym2612"
    },
    {
      "channel": 4,
      "note": 53,
      "start": 40.3667,
      "duration": 0.1162,
      "velocity": 111,
      "chip": "ym2612"
    },
    {
      "channel": 5,
      "note": 65,
      "start": 40.3672,
      "duration": 0.1324,
      "velocity": 83,
      "chip": "ym2612"
    },
    {
      "channel": 4,
      "note": 54,
      "start": 40.5167,
      "duration": 0.0829,
      "velocity": 111,
      "chip": "ym2612"
    },
    {
      "channel": 5,
      "note": 66,
      "start": 40.5172,
      "duration": 0.0824,
      "velocity": 83,
      "chip": "ym2612"
    },
    {
      "channel": 0,
      "note": 44,
      "start": 40.6666,
      "duration": 0.0829,
      "velocity": 125,
      "chip": "ym2612"
    },
    {
      "channel": 4,
      "note": 64,
      "start": 40.6672,
      "duration": 0.1157,
      "velocity": 111,
      "chip": "ym2612"
    },
    {
      "channel": 5,
      "note": 76,
      "start": 40.6677,
      "duration": 0.1153,
      "velocity": 83,
      "chip": "ym2612"
    },
    {
      "channel": 4,
      "note": 54,
      "start": 40.8,
      "duration": 0.0995,
      "velocity": 111,
      "chip": "ym2612"
    },
    {
      "channel": 5,
      "note": 66,
      "start": 40.8005,
      "duration": 0.0991,
      "velocity": 83,
      "chip": "ym2612"
    },
    {
      "channel": 1,
      "note": 46,
      "start": 40.95,
      "duration": 0.2662,
      "velocity": 127,
      "chip": "ym2612"
    },
    {
      "channel": 0,
      "note": 44,
      "start": 41.0833,
      "duration": 0.0996,
      "velocity": 125,
      "chip": "ym2612"
    },
    {
      "channel": 0,
      "note": 44,
      "start": 41.3833,
      "duration": 0.0996,
      "velocity": 125,
      "chip": "ym2612"
    },
    {
      "channel": 0,
      "note": 44,
      "start": 41.5166,
      "duration": 0.0996,
      "velocity": 125,
      "chip": "ym2612"
    },
    {
      "channel": 4,
      "note": 49,
      "start": 41.5172,
      "duration": 0.4324,
      "velocity": 111,
      "chip": "ym2612"
    },
    {
      "channel": 5,
      "note": 61,
      "start": 41.5177,
      "duration": 0.4152,
      "velocity": 83,
      "chip": "ym2612"
    },
    {
      "channel": 4,
      "note": 58,
      "start": 41.9501,
      "duration": 0.0828,
      "velocity": 111,
      "chip": "ym2612"
    },
    {
      "channel": 5,
      "note": 70,
      "start": 41.9506,
      "duration": 0.0824,
      "velocity": 83,
      "chip": "ym2612"
    },
    {
      "channel": 1,
      "note": 46,
      "start": 42.1,
      "duration": 0.1329,
      "velocity": 127,
      "chip": "ym2612"
    },
    {
      "channel": 4,
      "note": 59,
      "start": 42.1005,
      "duration": 0.099,
      "velocity": 111,
      "chip": "ym2612"
    },
    {
      "channel": 5,
      "note": 71,
      "start": 42.1011,
      "duration": 0.0986,
      "velocity": 83,
      "chip": "ym2612"
    },
    {
      "channel": 0,
      "note": 44,
      "start": 42.3833,
      "duration": 0.0996,
      "velocity": 125,
      "chip": "ym2612"
    },
    {
      "channel": 4,
      "note": 58,
      "start": 42.3839,
      "duration": 0.0824,
      "velocity": 111,
      "chip": "ym2612"
    },
    {
      "channel": 5,
      "note": 70,
      "start": 42.3844,
      "duration": 0.0819,
      "velocity": 83,
      "chip": "ym2612"
    },
    {
      "channel": 4,
      "note": 59,
      "start": 42.6834,
      "duration": 0.0662,
      "velocity": 111,
      "chip": "ym2612"
    },
    {
      "channel": 5,
      "note": 71,
      "start": 42.6839,
      "duration": 0.0658,
      "velocity": 83,
      "chip": "ym2612"
    },
    {
      "channel": 0,
      "note": 44,
      "start": 42.9666,
      "duration": 0.0996,
      "velocity": 125,
      "chip": "ym2612"
    },
    {
      "channel": 4,
      "note": 58,
      "start": 42.9672,
      "duration": 0.0991,
      "velocity": 111,
      "chip": "ym2612"
    },
    {
      "channel": 5,
      "note": 70,
      "start": 42.9677,
      "duration": 0.0987,
      "velocity": 83,
      "chip": "ym2612"
    },
    {
      "channel": 1,
      "note": 46,
      "start": 43.25,
      "duration": 0.1329,
      "velocity": 127,
      "chip": "ym2612"
    },
    {
      "channel": 4,
      "note": 59,
      "start": 43.2505,
      "duration": 0.099,
      "velocity": 111,
      "chip": "ym2612"
    },
    {
      "channel": 5,
      "note": 71,
      "start": 43.2511,
      "duration": 0.0986,
      "velocity": 83,
      "chip": "ym2612"
    },
    {
      "channel": 0,
      "note": 44,
      "start": 43.4,
      "duration": 0.0996,
      "velocity": 125,
      "chip": "ym2612"
    },
    {
      "channel": 4,
      "note": 52,
      "start": 43.4005,
      "duration": 0.149,
      "velocity": 111,
      "chip": "ym2612"
    },
    {
      "channel": 5,
      "note": 64,
      "start": 43.4011,
      "duration": 0.1486,
      "velocity": 83,
      "chip": "ym2612"
    },
    {
      "channel": 0,
      "note": 44,
      "start": 43.6833,
      "duration": 0.0996,
      "velocity": 125,
      "chip": "ym2612"
    },
    {
      "channel": 4,
      "note": 54,
      "start": 43.6839,
      "duration": 0.1824,
      "velocity": 111,
      "chip": "ym2612"
    },
    {
      "channel": 5,
      "note": 66,
      "start": 43.6844,
      "duration": 0.1819,
      "velocity": 83,
      "chip": "ym2612"
    },
    {
      "channel": 0,
      "note": 44,
      "start": 44.2666,
      "duration": 0.0996,
      "velocity": 125,
      "chip": "ym2612"
    },
    {
      "channel": 1,
      "note": 46,
      "start": 44.4166,
      "duration": 0.1829,
      "velocity": 127,
      "chip": "ym2612"
    },
    {
      "channel": 0,
      "note": 44,
      "start": 44.7,
      "duration": 0.0996,
      "velocity": 125,
      "chip": "ym2612"
    },
    {
      "channel": 4,
      "note": 53,
      "start": 44.9834,
      "duration": 0.1162,
      "velocity": 111,
      "chip": "ym2612"
    },
    {
      "channel": 5,
      "note": 65,
      "start": 44.9839,
      "duration": 0.1158,
      "velocity": 83,
      "chip": "ym2612"
    },
    {
      "channel": 4,
      "note": 54,
      "start": 45.1334,
      "duration": 0.0995,
      "velocity": 111,
      "chip": "ym2612"
    },
    {
      "channel": 5,
      "note": 66,
      "start": 45.1339,
      "duration": 0.1157,
      "velocity": 83,
      "chip": "ym2612"
    },
    {
      "channel": 0,
      "note": 44,
      "start": 45.2666,
      "duration": 0.0996,
      "velocity": 125,
      "chip": "ym2612"
    },
    {
      "channel": 3,
      "note": 82,
      "start": 45.2672,
      "duration": 0.1657,
      "velocity": 83,
      "chip": "ym2612"
    },
    {
      "channel": 4,
      "note": 64,
      "start": 45.2677,
      "duration": 0.1319,
      "velocity": 111,
      "chip": "ym2612"
    },
    {
      "channel": 5,
      "note": 76,
      "start": 45.2682,
      "duration": 0.1147,
      "velocity": 83,
      "chip": "ym2612"
    },
    {
      "channel": 4,
      "note": 51,
      "start": 45.4167,
      "duration": 0.0995,
      "velocity": 111,
      "chip": "ym2612"
    },
    {
      "channel": 5,
      "note": 63,
      "start": 45.4172,
      "duration": 0.1157,
      "velocity": 83,
      "chip": "ym2612"
    },
    {
      "channel": 1,
      "note": 46,
      "start": 45.5666,
      "duration": 0.4996,
      "velocity": 127,
      "chip": "ym2612"
    },
    {
      "channel": 4,
      "note": 52,
      "start": 45.5672,
      "duration": 0.1157,
      "velocity": 111,
      "chip": "ym2612"
    },
    {
      "channel": 5,
      "note": 64,
      "start": 45.5677,
      "duration": 0.1153,
      "velocity": 83,
      "chip": "ym2612"
    },
    {
      "channel": 3,
      "note": 80,
      "start": 45.7,
      "duration": 0.1662,
      "velocity": 83,
      "chip": "ym2612"
    },
    {
      "channel": 4,
      "note": 62,
      "start": 45.7005,
      "duration": 0.1324,
      "velocity": 111,
      "chip": "ym2612"
    },
    {
      "channel": 5,
      "note": 74,
      "start": 45.7011,
      "duration": 0.0985,
      "velocity": 83,
      "chip": "ym2612"
    },
    {
      "channel": 4,
      "note": 47,
      "start": 45.85,
      "duration": 0.1329,
      "velocity": 111,
      "chip": "ym2612"
    },
    {
      "channel": 5,
      "note": 59,
      "start": 45.8505,
      "duration": 0.1324,
      "velocity": 83,
      "chip": "ym2612"
    },
    {
      "channel": 0,
      "note": 44,
      "start": 46.0,
      "duration": 0.0829,
      "velocity": 125,
      "chip": "ym2612"
    },
    {
      "channel": 4,
      "note": 48,
      "start": 46.0005,
      "duration": 0.1157,
      "velocity": 111,
      "chip": "ym2612"
    },
    {
      "channel": 5,
      "note": 60,
      "start": 46.0011,
      "duration": 0.1153,
      "velocity": 83,
      "chip": "ym2612"
    },
    {
      "channel": 0,
      "note": 44,
      "start": 46.1333,
      "duration": 0.0996,
      "velocity": 125,
      "chip": "ym2612"
    },
    {
      "channel": 4,
      "note": 49,
      "start": 46.1339,
      "duration": 0.249,
      "velocity": 111,
      "chip": "ym2612"
    },
    {
      "channel": 5,
      "note": 61,
      "start": 46.1344,
      "duration": 0.2486,
      "velocity": 83,
      "chip": "ym2612"
    },
    {
      "channel": 0,
      "note": 44,
      "start": 46.5666,
      "duration": 0.0996,
      "velocity": 125,
      "chip": "ym2612"
    },
    {
      "channel": 2,
      "note": 73,
      "start": 46.5672,
      "duration": 0.049,
      "velocity": 87,
      "chip": "ym2612"
    },
    {
      "channel": 4,
      "note": 58,
      "start": 46.5677,
      "duration": 0.0652,
      "velocity": 111,
      "chip": "ym2612"
    },
    {
      "channel": 5,
      "note": 70,
      "start": 46.5682,
      "duration": 0.0648,
      "velocity": 83,
      "chip": "ym2612"
    },
    {
      "channel": 1,
      "note": 46,
      "start": 46.7166,
      "duration": 0.2329,
      "velocity": 127,
      "chip": "ym2612"
    },
    {
      "channel": 2,
      "note": 78,
      "start": 46.7172,
      "duration": 0.0824,
      "velocity": 87,
      "chip": "ym2612"
    },
    {
      "channel": 4,
      "note": 59,
      "start": 46.7177,
      "duration": 0.0985,
      "velocity": 111,
      "chip": "ym2612"
    },
    {
      "channel": 5,
      "note": 71,
      "start": 46.7182,
      "duration": 0.0981,
      "velocity": 83,
      "chip": "ym2612"
    },
    {
      "channel": 0,
      "note": 44,
      "start": 47.0,
      "duration": 0.0996,
      "velocity": 125,
      "chip": "ym2612"
    },
    {
      "channel": 2,
      "note": 80,
      "start": 47.0005,
      "duration": 0.049,
      "velocity": 87,
      "chip": "ym2612"
    },
    {
      "channel": 4,
      "note": 58,
      "start": 47.0011,
      "duration": 0.0819,
      "velocity": 111,
      "chip": "ym2612"
    },
    {
      "channel": 5,
      "note": 70,
      "start": 47.0016,
      "duration": 0.0814,
      "velocity": 83,
      "chip": "ym2612"
    },
    {
      "channel": 2,
      "note": 83,
      "start": 47.3,
      "duration": 0.0329,
      "velocity": 87,
      "chip": "ym2612"
    },
    {
      "channel": 4,
      "note": 59,
      "start": 47.3005,
      "duration": 0.049,
      "velocity": 111,
      "chip": "ym2612"
    },
    {
      "channel": 5,
      "note": 71,
      "start": 47.3011,
      "duration": 0.0486,
      "velocity": 83,
      "chip": "ym2612"
    },
    {
      "channel": 0,
      "note": 44,
      "start": 47.5833,
      "duration": 0.0996,
      "velocity": 125,
      "chip": "ym2612"
    },
    {
      "channel": 2,
      "note": 85,
      "start": 47.5838,
      "duration": 0.0824,
      "velocity": 87,
      "chip": "ym2612"
    },
    {
      "channel": 4,
      "note": 58,
      "start": 47.5844,
      "duration": 0.0986,
      "velocity": 111,
      "chip": "ym2612"
    },
    {
      "channel": 5,
      "note": 70,
      "start": 47.5849,
      "duration": 0.0982,
      "velocity": 83,
      "chip": "ym2612"
    },
    {
      "channel": 2,
      "note": 83,
      "start": 47.7333,
      "duration": 0.0162,
      "velocity": 87,
      "chip": "ym2612"
    },
    {
      "channel": 1,
      "note": 46,
      "start": 47.8666,
      "duration": 0.1829,
      "velocity": 127,
      "chip": "ym2612"
    },
    {
      "channel": 2,
      "note": 89,
      "start": 47.8672,
      "duration": 0.1324,
      "velocity": 87,
      "chip": "ym2612"
    },
    {
      "channel": 4,
      "note": 59,
      "start": 47.8677,
      "duration": 0.0985,
      "velocity": 111,
      "chip": "ym2612"
    },
    {
      "channel": 5,
      "note": 71,
      "start": 47.8682,
      "duration": 0.0981,
      "velocity": 83,
      "chip": "ym2612"
    },
    {
      "channel": 0,
      "note": 44,
      "start": 48.0166,
      "duration": 0.0996,
      "velocity": 125,
      "chip": "ym2612"
    },
    {
      "channel": 2,
      "note": 94,
      "start": 48.0172,
      "duration": 0.5657,
      "velocity": 87,
      "chip": "ym2612"
    },
    {
      "channel": 3,
      "note": 88,
      "start": 48.0177,
      "duration": 0.5652,
      "velocity": 127,
      "chip": "ym2612"
    },
    {
      "channel": 4,
      "note": 52,
      "start": 48.0182,
      "duration": 0.198,
      "velocity": 111,
      "chip": "ym2612"
    },
    {
      "channel": 5,
      "note": 64,
      "start": 48.0188,
      "duration": 0.1976,
      "velocity": 83,
      "chip": "ym2612"
    },
    {
      "channel": 0,
      "note": 44,
      "start": 48.3,
      "duration": 0.0996,
      "velocity": 125,
      "chip": "ym2612"
    },
    {
      "channel": 4,
      "note": 54,
      "start": 48.3007,
      "duration": 0.1324,
      "velocity": 111,
      "chip": "ym2612"
    },
    {
      "channel": 5,
      "note": 66,
      "start": 48.3012,
      "duration": 0.1319,
      "velocity": 83,
      "chip": "ym2612"
    },
    {
      "channel": 0,
      "note": 44,
      "start": 48.8833,
      "duration": 0.0996,
      "velocity": 125,
      "chip": "ym2612"
    },
    {
      "channel": 1,
      "note": 46,
      "start": 49.0166,
      "duration": 0.2662,
      "velocity": 127,
      "chip": "ym2612"
    },
    {
      "channel": 0,
      "note": 44,
      "start": 49.3166,
      "duration": 0.0996,
      "velocity": 125,
      "chip": "ym2612"
    },
    {
      "channel": 4,
      "note": 53,
      "start": 49.6,
      "duration": 0.1329,
      "velocity": 111,
      "chip": "ym2612"
    },
    {
      "channel": 5,
      "note": 65,
      "start": 49.6005,
      "duration": 0.1157,
      "velocity": 83,
      "chip": "ym2612"
    },
    {
      "channel": 4,
      "note": 54,
      "start": 49.75,
      "duration": 0.0829,
      "velocity": 111,
      "chip": "ym2612"
    },
    {
      "channel": 5,
      "note": 66,
      "start": 49.7505,
      "duration": 0.0824,
      "velocity": 83,
      "chip": "ym2612"
    },
    {
      "channel": 0,
      "note": 44,
      "start": 49.8833,
      "duration": 0.0996,
      "velocity": 125,
      "chip": "ym2612"
    },
    {
      "channel": 4,
      "note": 64,
      "start": 49.8839,
      "duration": 0.1324,
      "velocity": 111,
      "chip": "ym2612"
    },
    {
      "channel": 5,
      "note": 76,
      "start": 49.8844,
      "duration": 0.1319,
      "velocity": 83,
      "chip": "ym2612"
    },
    {
      "channel": 4,
      "note": 54,
      "start": 50.0334,
      "duration": 0.0995,
      "velocity": 111,
      "chip": "ym2612"
    },
    {
      "channel": 5,
      "note": 66,
      "start": 50.0339,
      "duration": 0.0991,
      "velocity": 83,
      "chip": "ym2612"
    },
    {
      "channel": 1,
      "note": 46,
      "start": 50.1833,
      "duration": 0.0662,
      "velocity": 127,
      "chip": "ym2612"
    },
    {
      "channel": 1,
      "note": 46,
      "start": 50.3166,
      "duration": 0.0662,
      "velocity": 127,
      "chip": "ym2612"
    },
    {
      "channel": 0,
      "note": 44,
      "start": 50.4666,
      "duration": 0.0996,
      "velocity": 125,
      "chip": "ym2612"
    },
    {
      "channel": 0,
      "note": 44,
      "start": 50.75,
      "duration": 0.0996,
      "velocity": 125,
      "chip": "ym2612"
    },
    {
      "channel": 4,
      "note": 49,
      "start": 50.7505,
      "duration": 0.4157,
      "velocity": 111,
      "chip": "ym2612"
    },
    {
      "channel": 5,
      "note": 61,
      "start": 50.7511,
      "duration": 0.3985,
      "velocity": 83,
      "chip": "ym2612"
    },
    {
      "channel": 0,
      "note": 44,
      "start": 51.1833,
      "duration": 0.0996,
      "velocity": 125,
      "chip": "ym2612"
    },
    {
      "channel": 4,
      "note": 58,
      "start": 51.1839,
      "duration": 0.0824,
      "velocity": 111,
      "chip": "ym2612"
    },
    {
      "channel": 5,
      "note": 70,
      "start": 51.1844,
      "duration": 0.0819,
      "velocity": 83,
      "chip": "ym2612"
    },
    {
      "channel": 1,
      "note": 46,
      "start": 51.3333,
      "duration": 0.1662,
      "velocity": 127,
      "chip": "ym2612"
    },
    {
      "channel": 4,
      "note": 59,
      "start": 51.3339,
      "duration": 0.099,
      "velocity": 111,
      "chip": "ym2612"
    },
    {
      "channel": 5,
      "note": 71,
      "start": 51.3344,
      "duration": 0.0986,
      "velocity": 83,
      "chip": "ym2612"
    },
    {
      "channel": 0,
      "note": 44,
      "start": 51.6166,
      "duration": 0.0996,
      "velocity": 125,
      "chip": "ym2612"
    },
    {
      "channel": 4,
      "note": 58,
      "start": 51.6172,
      "duration": 0.0657,
      "velocity": 111,
      "chip": "ym2612"
    },
    {
      "channel": 5,
      "note": 70,
      "start": 51.6177,
      "duration": 0.0653,
      "velocity": 83,
      "chip": "ym2612"
    },
    {
      "channel": 4,
      "note": 59,
      "start": 51.9167,
      "duration": 0.0662,
      "velocity": 111,
      "chip": "ym2612"
    },
    {
      "channel": 5,
      "note": 71,
      "start": 51.9172,
      "duration": 0.0658,
      "velocity": 83,
      "chip": "ym2612"
    },
    {
      "channel": 0,
      "note": 44,
      "start": 52.2,
      "duration": 0.0996,
      "velocity": 125,
      "chip": "ym2612"
    },
    {
      "channel": 4,
      "note": 58,
      "start": 52.2005,
      "duration": 0.0991,
      "velocity": 111,
      "chip": "ym2612"
    },
    {
      "channel": 5,
      "note": 70,
      "start": 52.2011,
      "duration": 0.0987,
      "velocity": 83,
      "chip": "ym2612"
    },
    {
      "channel": 1,
      "note": 46,
      "start": 52.4833,
      "duration": 0.0662,
      "velocity": 127,
      "chip": "ym2612"
    },
    {
      "channel": 4,
      "note": 59,
      "start": 52.4839,
      "duration": 0.099,
      "velocity": 111,
      "chip": "ym2612"
    },
    {
      "channel": 5,
      "note": 71,
      "start": 52.4844,
      "duration": 0.0986,
      "velocity": 83,
      "chip": "ym2612"
    },
    {
      "channel": 0,
      "note": 44,
      "start": 52.6333,
      "duration": 0.0996,
      "velocity": 125,
      "chip": "ym2612"
    },
    {
      "channel": 4,
      "note": 52,
      "start": 52.6339,
      "duration": 0.1324,
      "velocity": 111,
      "chip": "ym2612"
    },
    {
      "channel": 5,
      "note": 64,
      "start": 52.6344,
      "duration": 0.1319,
      "velocity": 83,
      "chip": "ym2612"
    },
    {
      "channel": 0,
      "note": 44,
      "start": 52.9166,
      "duration": 0.0996,
      "velocity": 125,
      "chip": "ym2612"
    },
    {
      "channel": 4,
      "note": 54,
      "start": 52.9172,
      "duration": 0.1824,
      "velocity": 111,
      "chip": "ym2612"
    },
    {
      "channel": 5,
      "note": 66,
      "start": 52.9177,
      "duration": 0.1819,
      "velocity": 83,
      "chip": "ym2612"
    },
    {
      "channel": 0,
      "note": 44,
      "start": 53.5,
      "duration": 0.0829,
      "velocity": 125,
      "chip": "ym2612"
    },
    {
      "channel": 1,
      "note": 46,
      "start": 53.6333,
      "duration": 0.2329,
      "velocity": 127,
      "chip": "ym2612"
    },
    {
      "channel": 0,
      "note": 44,
      "start": 53.9333,
      "duration": 0.0829,
      "velocity": 125,
      "chip": "ym2612"
    },
    {
      "channel": 4,
      "note": 53,
      "start": 54.2167,
      "duration": 0.1162,
      "velocity": 111,
      "chip": "ym2612"
    },
    {
      "channel": 5,
      "note": 65,
      "start": 54.2172,
      "duration": 0.1158,
      "velocity": 83,
      "chip": "ym2612"
    },
    {
      "channel": 4,
      "note": 54,
      "start": 54.3667,
      "duration": 0.0995,
      "velocity": 111,
      "chip": "ym2612"
    },
    {
      "channel": 5,
      "note": 66,
      "start": 54.3672,
      "duration": 0.1157,
      "velocity": 83,
      "chip": "ym2612"
    },
    {
      "channel": 0,
      "note": 44,
      "start": 54.5,
      "duration": 0.0996,
      "velocity": 125,
      "chip": "ym2612"
    },
    {
      "channel": 3,
      "note": 82,
      "start": 54.5005,
      "duration": 0.1657,
      "velocity": 83,
      "chip": "ym2612"
    },
    {
      "channel": 4,
      "note": 64,
      "start": 54.5011,
      "duration": 0.1319,
      "velocity": 111,
      "chip": "ym2612"
    },
    {
      "channel": 5,
      "note": 76,
      "start": 54.5016,
      "duration": 0.1314,
      "velocity": 83,
      "chip": "ym2612"
    },
    {
      "channel": 4,
      "note": 51,
      "start": 54.65,
      "duration": 0.1162,
      "velocity": 111,
      "chip": "ym2612"
    },
    {
      "channel": 5,
      "note": 63,
      "start": 54.6505,
      "duration": 0.1158,
      "velocity": 83,
      "chip": "ym2612"
    },
    {
      "channel": 1,
      "note": 46,
      "start": 54.8,
      "duration": 0.0829,
      "velocity": 127,
      "chip": "ym2612"
    },
    {
      "channel": 4,
      "note": 52,
      "start": 54.8005,
      "duration": 0.1157,
      "velocity": 111,
      "chip": "ym2612"
    },
    {
      "channel": 5,
      "note": 64,
      "start": 54.8011,
      "duration": 0.0985,
      "velocity": 83,
      "chip": "ym2612"
    },
    {
      "channel": 0,
      "note": 44,
      "start": 54.9333,
      "duration": 0.0996,
      "velocity": 125,
      "chip": "ym2612"
    },
    {
      "channel": 3,
      "note": 80,
      "start": 54.9339,
      "duration": 0.1657,
      "velocity": 83,
      "chip": "ym2612"
    },
    {
      "channel": 4,
      "note": 62,
      "start": 54.9344,
      "duration": 0.0986,
      "velocity": 111,
      "chip": "ym2612"
    },
    {
      "channel": 5,
      "note": 74,
      "start": 54.9349,
      "duration": 0.0982,
      "velocity": 83,
      "chip": "ym2612"
    },
    {
      "channel": 1,
      "note": 46,
      "start": 55.0833,
      "duration": 0.1162,
      "velocity": 127,
      "chip": "ym2612"
    },
    {
      "channel": 4,
      "note": 47,
      "start": 55.0839,
      "duration": 0.099,
      "velocity": 111,
      "chip": "ym2612"
    },
    {
      "channel": 5,
      "note": 59,
      "start": 55.0844,
      "duration": 0.1153,
      "velocity": 83,
      "chip": "ym2612"
    },
    {
      "channel": 1,
      "note": 46,
      "start": 55.2333,
      "duration": 0.1496,
      "velocity": 127,
      "chip": "ym2612"
    },
    {
      "channel": 4,
      "note": 48,
      "start": 55.2339,
      "duration": 0.1157,
      "velocity": 111,
      "chip": "ym2612"
    },
    {
      "channel": 5,
      "note": 60,
      "start": 55.2344,
      "duration": 0.1153,
      "velocity": 83,
      "chip": "ym2612"
    },
    {
      "channel": 0,
      "note": 44,
      "start": 55.3666,
      "duration": 0.0996,
      "velocity": 125,
      "chip": "ym2612"
    },
    {
      "channel": 2,
      "note": 87,
      "start": 55.3672,
      "duration": 0.0657,
      "velocity": 87,
      "chip": "ym2612"
    },
    {
      "channel": 3,
      "note": 84,
      "start": 55.3677,
      "duration": 0.0652,
      "velocity": 83,
      "chip": "ym2612"
    },
    {
      "channel": 4,
      "note": 53,
      "start": 55.3683,
      "duration": 0.098,
      "velocity": 92,
      "chip": "ym2612"
    },
    {
      "channel": 0,
      "note": 44,
      "start": 55.5166,
      "duration": 0.0996,
      "velocity": 125,
      "chip": "ym2612"
    },
    {
      "channel": 2,
      "note": 87,
      "start": 55.5172,
      "duration": 0.0824,
      "velocity": 87,
      "chip": "ym2612"
    },
    {
      "channel": 3,
      "note": 84,
      "start": 55.5177,
      "duration": 0.1151,
      "velocity": 83,
      "chip": "ym2612"
    },
    {
      "channel": 4,
      "note": 53,
      "start": 55.5182,
      "duration": 0.0814,
      "velocity": 92,
      "chip": "ym2612"
    },
    {
      "channel": 2,
      "note": 86,
      "start": 55.6666,
      "duration": 0.0829,
      "velocity": 87,
      "chip": "ym2612"
    },
    {
      "channel": 3,
      "note": 82,
      "start": 55.6672,
      "duration": 0.1157,
      "velocity": 83,
      "chip": "ym2612"
    },
    {
      "channel": 0,
      "note": 44,
      "start": 55.8,
      "duration": 0.0996,
      "velocity": 125,
      "chip": "ym2612"
    },
    {
      "channel": 1,
      "note": 46,
      "start": 55.95,
      "duration": 0.2834,
      "velocity": 127,
      "chip": "ym2612"
    },
    {
      "channel": 2,
      "note": 84,
      "start": 55.9505,
      "duration": 0.099,
      "velocity": 87,
      "chip": "ym2612"
    },
    {
      "channel": 3,
      "note": 81,
      "start": 55.9511,
      "duration": 0.1151,
      "velocity": 83,
      "chip": "ym2612"
    },
    {
      "channel": 0,
      "note": 44,
      "start": 56.2333,
      "duration": 0.0996,
      "velocity": 125,
      "chip": "ym2612"
    },
    {
      "channel": 2,
      "note": 82,
      "start": 56.2339,
      "duration": 0.099,
      "velocity": 87,
      "chip": "ym2612"
    },
    {
      "channel": 3,
      "note": 79,
      "start": 56.2345,
      "duration": 0.1317,
      "velocity": 83,
      "chip": "ym2612"
    },
    {
      "channel": 4,
      "note": 41,
      "start": 56.235,
      "duration": 0.1314,
      "velocity": 92,
      "chip": "ym2612"
    },
    {
      "channel": 4,
      "note": 53,
      "start": 56.3834,
      "duration": 0.1339,
      "velocity": 92,
      "chip": "ym2612"
    },
    {
      "channel": 2,
      "note": 80,
      "start": 56.5166,
      "duration": 0.1162,
      "velocity": 87,
      "chip": "ym2612"
    },
    {
      "channel": 3,
      "note": 74,
      "start": 56.5172,
      "duration": 0.1157,
      "velocity": 83,
      "chip": "ym2612"
    },
    {
      "channel": 2,
      "note": 81,
      "start": 56.6666,
      "duration": 0.1162,
      "velocity": 87,
      "chip": "ym2612"
    },
    {
      "channel": 3,
      "note": 75,
      "start": 56.6672,
      "duration": 0.1157,
      "velocity": 83,
      "chip": "ym2612"
    },
    {
      "channel": 0,
      "note": 44,
      "start": 56.8166,
      "duration": 0.0996,
      "velocity": 125,
      "chip": "ym2612"
    },
    {
      "channel": 2,
      "note": 77,
      "start": 56.8172,
      "duration": 0.0824,
      "velocity": 87,
      "chip": "ym2612"
    },
    {
      "channel": 3,
      "note": 74,
      "start": 56.8177,
      "duration": 0.0985,
      "velocity": 83,
      "chip": "ym2612"
    },
    {
      "channel": 4,
      "note": 53,
      "start": 56.8182,
      "duration": 0.2481,
      "velocity": 92,
      "chip": "ym2612"
    },
    {
      "channel": 2,
      "note": 72,
      "start": 56.95,
      "duration": 0.0662,
      "velocity": 87,
      "chip": "ym2612"
    },
    {
      "channel": 3,
      "note": 69,
      "start": 56.9505,
      "duration": 0.1157,
      "velocity": 83,
      "chip": "ym2612"
    },
    {
      "channel": 1,
      "note": 46,
      "start": 57.1,
      "duration": 0.1662,
      "velocity": 127,
      "chip": "ym2612"
    },
    {
      "channel": 2,
      "note": 75,
      "start": 57.1005,
      "duration": 0.1157,
      "velocity": 87,
      "chip": "ym2612"
    },
    {
      "channel": 3,
      "note": 72,
      "start": 57.1011,
      "duration": 0.1652,
      "velocity": 83,
      "chip": "ym2612"
    },
    {
      "channel": 4,
      "note": 56,
      "start": 57.1016,
      "duration": 0.248,
      "velocity": 92,
      "chip": "ym2612"
    },
    {
      "channel": 0,
      "note": 44,
      "start": 57.25,
      "duration": 0.0829,
      "velocity": 125,
      "chip": "ym2612"
    },
    {
      "channel": 0,
      "note": 44,
      "start": 57.3833,
      "duration": 0.0996,
      "velocity": 125,
      "chip": "ym2612"
    },
    {
      "channel": 4,
      "note": 57,
      "start": 57.3839,
      "duration": 0.1824,
      "velocity": 92,
      "chip": "ym2612"
    },
    {
      "channel": 0,
      "note": 44,
      "start": 57.6833,
      "duration": 0.0829,
      "velocity": 125,
      "chip": "ym2612"
    },
    {
      "channel": 4,
      "note": 58,
      "start": 57.6839,
      "duration": 0.1324,
      "velocity": 92,
      "chip": "ym2612"
    },
    {
      "channel": 5,
      "note": 82,
      "start": 57.6844,
      "duration": 0.0819,
      "velocity": 119,
      "chip": "ym2612"
    },
    {
      "channel": 5,
      "note": 82,
      "start": 57.8168,
      "duration": 0.0995,
      "velocity": 119,
      "chip": "ym2612"
    },
    {
      "channel": 5,
      "note": 82,
      "start": 57.9667,
      "duration": 0.0995,
      "velocity": 119,
      "chip": "ym2612"
    },
    {
      "channel": 4,
      "note": 70,
      "start": 58.1167,
      "duration": 0.0829,
      "velocity": 92,
      "chip": "ym2612"
    },
    {
      "channel": 5,
      "note": 82,
      "start": 58.1172,
      "duration": 0.0824,
      "velocity": 119,
      "chip": "ym2612"
    },
    {
      "channel": 1,
      "note": 46,
      "start": 58.25,
      "duration": 0.2496,
      "velocity": 127,
      "chip": "ym2612"
    },
    {
      "channel": 5,
      "note": 82,
      "start": 58.4,
      "duration": 0.0996,
      "velocity": 119,
      "chip": "ym2612"
    },
    {
      "channel": 0,
      "note": 44,
      "start": 58.55,
      "duration": 0.0829,
      "velocity": 125,
      "chip": "ym2612"
    },
    {
      "channel": 4,
      "note": 68,
      "start": 58.5505,
      "duration": 0.099,
      "velocity": 92,
      "chip": "ym2612"
    },
    {
      "channel": 5,
      "note": 82,
      "start": 58.6834,
      "duration": 0.0995,
      "velocity": 119,
      "chip": "ym2612"
    },
    {
      "channel": 5,
      "note": 82,
      "start": 58.8334,
      "duration": 0.0995,
      "velocity": 119,
      "chip": "ym2612"
    },
    {
      "channel": 4,
      "note": 56,
      "start": 58.9834,
      "duration": 0.0162,
      "velocity": 92,
      "chip": "ym2612"
    },
    {
      "channel": 0,
      "note": 44,
      "start": 59.1166,
      "duration": 0.0996,
      "velocity": 125,
      "chip": "ym2612"
    },
    {
      "channel": 4,
      "note": 48,
      "start": 59.1172,
      "duration": 0.2657,
      "velocity": 92,
      "chip": "ym2612"
    },
    {
      "channel": 5,
      "note": 72,
      "start": 59.1177,
      "duration": 0.0986,
      "velocity": 119,
      "chip": "ym2612"
    },
    {
      "channel": 5,
      "note": 72,
      "start": 59.2667,
      "duration": 0.0995,
      "velocity": 119,
      "chip": "ym2612"
    },
    {
      "channel": 1,
      "note": 46,
      "start": 59.4166,
      "duration": 0.2662,
      "velocity": 127,
      "chip": "ym2612"
    },
    {
      "channel": 4,
      "note": 51,
      "start": 59.4172,
      "duration": 0.249,
      "velocity": 92,
      "chip": "ym2612"
    },
    {
      "channel": 5,
      "note": 75,
      "start": 59.4177,
      "duration": 0.0819,
      "velocity": 119,
      "chip": "ym2612"
    },
    {
      "channel": 0,
      "note": 44,
      "start": 59.55,
      "duration": 0.0996,
      "velocity": 125,
      "chip": "ym2612"
    },
    {
      "channel": 5,
      "note": 75,
      "start": 59.5505,
      "duration": 0.0991,
      "velocity": 119,
      "chip": "ym2612"
    },
    {
      "channel": 4,
      "note": 52,
      "start": 59.7,
      "duration": 0.1829,
      "velocity": 92,
      "chip": "ym2612"
    },
    {
      "channel": 5,
      "note": 76,
      "start": 59.7005,
      "duration": 0.099,
      "velocity": 119,
      "chip": "ym2612"
    },
    {
      "channel": 5,
      "note": 76,
      "start": 59.8334,
      "duration": 0.0995,
      "velocity": 119,
      "chip": "ym2612"
    },
    {
      "channel": 0,
      "note": 44,
      "start": 59.9833,
      "duration": 0.0996,
      "velocity": 125,
      "chip": "ym2612"
    },
    {
      "channel": 2,
      "note": 87,
      "start": 59.9838,
      "duration": 0.049,
      "velocity": 87,
      "chip": "ym2612"
    },
    {
      "channel": 3,
      "note": 79,
      "start": 59.9844,
      "duration": 0.0985,
      "velocity": 83,
      "chip": "ym2612"
    },
    {
      "channel": 4,
      "note": 53,
      "start": 59.9849,
      "duration": 0.0982,
      "velocity": 92,
      "chip": "ym2612"
    },
    {
      "channel": 0,
      "note": 44,
      "start": 60.1333,
      "duration": 0.0996,
      "velocity": 125,
      "chip": "ym2612"
    },
    {
      "channel": 2,
      "note": 87,
      "start": 60.1338,
      "duration": 0.0824,
      "velocity": 87,
      "chip": "ym2612"
    },
    {
      "channel": 3,
      "note": 79,
      "start": 60.1344,
      "duration": 0.0985,
      "velocity": 83,
      "chip": "ym2612"
    },
    {
      "channel": 4,
      "note": 53,
      "start": 60.1349,
      "duration": 0.1147,
      "velocity": 92,
      "chip": "ym2612"
    },
    {
      "channel": 2,
      "note": 86,
      "start": 60.2666,
      "duration": 0.1162,
      "velocity": 87,
      "chip": "ym2612"
    },
    {
      "channel": 3,
      "note": 89,
      "start": 60.2672,
      "duration": 0.099,
      "velocity": 83,
      "chip": "ym2612"
    },
    {
      "channel": 4,
      "note": 53,
      "start": 60.4167,
      "duration": 0.0329,
      "velocity": 92,
      "chip": "ym2612"
    },
    {
      "channel": 1,
      "note": 46,
      "start": 60.5666,
      "duration": 0.1329,
      "velocity": 127,
      "chip": "ym2612"
    },
    {
      "channel": 2,
      "note": 84,
      "start": 60.5672,
      "duration": 0.1157,
      "velocity": 87,
      "chip": "ym2612"
    },
    {
      "channel": 3,
      "note": 87,
      "start": 60.5677,
      "duration": 0.0985,
      "velocity": 83,
      "chip": "ym2612"
    },
    {
      "channel": 0,
      "note": 44,
      "start": 60.85,
      "duration": 0.0996,
      "velocity": 125,
      "chip": "ym2612"
    },
    {
      "channel": 2,
      "note": 82,
      "start": 60.8505,
      "duration": 0.1157,
      "velocity": 87,
      "chip": "ym2612"
    },
    {
      "channel": 3,
      "note": 86,
      "start": 60.8511,
      "duration": 0.0985,
      "velocity": 83,
      "chip": "ym2612"
    },
    {
      "channel": 2,
      "note": 72,
      "start": 61.0,
      "duration": 0.1162,
      "velocity": 87,
      "chip": "ym2612"
    },
    {
      "channel": 3,
      "note": 75,
      "start": 61.0005,
      "duration": 0.0823,
      "velocity": 83,
      "chip": "ym2612"
    },
    {
      "channel": 4,
      "note": 53,
      "start": 61.0011,
      "duration": 0.0819,
      "velocity": 92,
      "chip": "ym2612"
    },
    {
      "channel": 2,
      "note": 79,
      "start": 61.1333,
      "duration": 0.1329,
      "velocity": 87,
      "chip": "ym2612"
    },
    {
      "channel": 3,
      "note": 82,
      "start": 61.1339,
      "duration": 0.099,
      "velocity": 83,
      "chip": "ym2612"
    },
    {
      "channel": 2,
      "note": 80,
      "start": 61.2833,
      "duration": 0.0996,
      "velocity": 87,
      "chip": "ym2612"
    },
    {
      "channel": 3,
      "note": 83,
      "start": 61.2839,
      "duration": 0.099,
      "velocity": 83,
      "chip": "ym2612"
    },
    {
      "channel": 0,
      "note": 44,
      "start": 61.4333,
      "duration": 0.0829,
      "velocity": 125,
      "chip": "ym2612"
    },
    {
      "channel": 2,
      "note": 81,
      "start": 61.4338,
      "duration": 0.1324,
      "velocity": 87,
      "chip": "ym2612"
    },
    {
      "channel": 3,
      "note": 84,
      "start": 61.4344,
      "duration": 0.0819,
      "velocity": 83,
      "chip": "ym2612"
    },
    {
      "channel": 4,
      "note": 53,
      "start": 61.4349,
      "duration": 0.1147,
      "velocity": 92,
      "chip": "ym2612"
    },
    {
      "channel": 2,
      "note": 89,
      "start": 61.5667,
      "duration": 0.4162,
      "velocity": 87,
      "chip": "ym2612"
    },
    {
      "channel": 3,
      "note": 81,
      "start": 61.5673,
      "duration": 0.0989,
      "velocity": 83,
      "chip": "ym2612"
    },
    {
      "channel": 1,
      "note": 46,
      "start": 61.7166,
      "duration": 0.1329,
      "velocity": 127,
      "chip": "ym2612"
    },
    {
      "channel": 4,
      "note": 56,
      "start": 61.7172,
      "duration": 0.2157,
      "velocity": 92,
      "chip": "ym2612"
    },
    {
      "channel": 0,
      "note": 44,
      "start": 61.8666,
      "duration": 0.0829,
      "velocity": 125,
      "chip": "ym2612"
    },
    {
      "channel": 0,
      "note": 44,
      "start": 62.0,
      "duration": 0.0996,
      "velocity": 125,
      "chip": "ym2612"
    },
    {
      "channel": 2,
      "note": 86,
      "start": 62.0005,
      "duration": 0.1157,
      "velocity": 87,
      "chip": "ym2612"
    },
    {
      "channel": 3,
      "note": 89,
      "start": 62.0011,
      "duration": 0.0985,
      "velocity": 83,
      "chip": "ym2612"
    },
    {
      "channel": 4,
      "note": 57,
      "start": 62.0016,
      "duration": 0.148,
      "velocity": 92,
      "chip": "ym2612"
    },
    {
      "channel": 0,
      "note": 44,
      "start": 62.3,
      "duration": 0.0829,
      "velocity": 125,
      "chip": "ym2612"
    },
    {
      "channel": 4,
      "note": 58,
      "start": 62.3005,
      "duration": 0.1157,
      "velocity": 92,
      "chip": "ym2612"
    },
    {
      "channel": 5,
      "note": 82,
      "start": 62.3011,
      "duration": 0.0819,
      "velocity": 119,
      "chip": "ym2612"
    },
    {
      "channel": 5,
      "note": 82,
      "start": 62.4334,
      "duration": 0.0995,
      "velocity": 119,
      "chip": "ym2612"
    },
    {
      "channel": 5,
      "note": 82,
      "start": 62.5834,
      "duration": 0.0995,
      "velocity": 119,
      "chip": "ym2612"
    },
    {
      "channel": 0,
      "note": 44,
      "start": 62.7333,
      "duration": 0.0829,
      "velocity": 125,
      "chip": "ym2612"
    },
    {
      "channel": 4,
      "note": 70,
      "start": 62.7339,
      "duration": 0.0324,
      "velocity": 92,
      "chip": "ym2612"
    },
    {
      "channel": 5,
      "note": 82,
      "start": 62.7344,
      "duration": 0.0819,
      "velocity": 119,
      "chip": "ym2612"
    },
    {
      "channel": 1,
      "note": 46,
      "start": 62.8666,
      "duration": 0.1996,
      "velocity": 127,
      "chip": "ym2612"
    },
    {
      "channel": 5,
      "note": 82,
      "start": 63.0167,
      "duration": 0.0995,
      "velocity": 119,
      "chip": "ym2612"
    },
    {
      "channel": 0,
      "note": 44,
      "start": 63.1666,
      "duration": 0.0829,
      "velocity": 125,
      "chip": "ym2612"
    },
    {
      "channel": 4,
      "note": 68,
      "start": 63.1672,
      "duration": 0.0824,
      "velocity": 92,
      "chip": "ym2612"
    },
    {
      "channel": 5,
      "note": 82,
      "start": 63.3,
      "duration": 0.0995,
      "velocity": 119,
      "chip": "ym2612"
    },
    {
      "channel": 4,
      "note": 46,
      "start": 63.45,
      "duration": 0.1329,
      "velocity": 92,
      "chip": "ym2612"
    },
    {
      "channel": 4,
      "note": 58,
      "start": 63.5834,
      "duration": 0.0661,
      "velocity": 92,
      "chip": "ym2612"
    },
    {
      "channel": 5,
      "note": 82,
      "start": 63.5839,
      "duration": 0.099,
      "velocity": 119,
      "chip": "ym2612"
    },
    {
      "channel": 0,
      "note": 44,
      "start": 63.7333,
      "duration": 0.0996,
      "velocity": 125,
      "chip": "ym2612"
    },
    {
      "channel": 5,
      "note": 80,
      "start": 63.7339,
      "duration": 0.0991,
      "velocity": 119,
      "chip": "ym2612"
    },
    {
      "channel": 5,
      "note": 82,
      "start": 63.8834,
      "duration": 0.0995,
      "velocity": 119,
      "chip": "ym2612"
    },
    {
      "channel": 1,
      "note": 46,
      "start": 64.0166,
      "duration": 0.5162,
      "velocity": 127,
      "chip": "ym2612"
    },
    {
      "channel": 4,
      "note": 59,
      "start": 64.0172,
      "duration": 0.0824,
      "velocity": 92,
      "chip": "ym2612"
    },
    {
      "channel": 5,
      "note": 83,
      "start": 64.0177,
      "duration": 0.0819,
      "velocity": 119,
      "chip": "ym2612"
    },
    {
      "channel": 4,
      "note": 58,
      "start": 64.1167,
      "duration": 0.0829,
      "velocity": 92,
      "chip": "ym2612"
    },
    {
      "channel": 5,
      "note": 82,
      "start": 64.1172,
      "duration": 0.0824,
      "velocity": 119,
      "chip": "ym2612"
    },
    {
      "channel": 4,
      "note": 56,
      "start": 64.2167,
      "duration": 0.0995,
      "velocity": 92,
      "chip": "ym2612"
    },
    {
      "channel": 5,
      "note": 80,
      "start": 64.2172,
      "duration": 0.0657,
      "velocity": 119,
      "chip": "ym2612"
    },
    {
      "channel": 4,
      "note": 53,
      "start": 64.3168,
      "duration": 0.1333,
      "velocity": 92,
      "chip": "ym2612"
    },
    {
      "channel": 5,
      "note": 82,
      "start": 64.3173,
      "duration": 0.099,
      "velocity": 119,
      "chip": "ym2612"
    },
    {
      "channel": 2,
      "note": 72,
      "start": 64.45,
      "duration": 0.0996,
      "velocity": 87,
      "chip": "ym2612"
    },
    {
      "channel": 4,
      "note": 51,
      "start": 64.4506,
      "duration": 0.1323,
      "velocity": 92,
      "chip": "ym2612"
    },
    {
      "channel": 5,
      "note": 80,
      "start": 64.4511,
      "duration": 0.0985,
      "velocity": 119,
      "chip": "ym2612"
    },
    {
      "channel": 0,
      "note": 44,
      "start": 64.6,
      "duration": 0.0996,
      "velocity": 125,
      "chip": "ym2612"
    },
    {
      "channel": 2,
      "note": 87,
      "start": 64.6005,
      "duration": 0.0824,
      "velocity": 87,
      "chip": "ym2612"
    },
    {
      "channel": 3,
      "note": 84,
      "start": 64.6011,
      "duration": 0.0651,
      "velocity": 83,
      "chip": "ym2612"
    },
    {
      "channel": 4,
      "note": 51,
      "start": 64.6016,
      "duration": 0.1314,
      "velocity": 92,
      "chip": "ym2612"
    },
    {
      "channel": 2,
      "note": 87,
      "start": 64.75,
      "duration": 0.0996,
      "velocity": 87,
      "chip": "ym2612"
    },
    {
      "channel": 3,
      "note": 84,
      "start": 64.7505,
      "duration": 0.0823,
      "velocity": 83,
      "chip": "ym2612"
    },
    {
      "channel": 4,
      "note": 53,
      "start": 64.7511,
      "duration": 0.0986,
      "velocity": 92,
      "chip": "ym2612"
    },
    {
      "channel": 2,
      "note": 86,
      "start": 64.8833,
      "duration": 0.1162,
      "velocity": 87,
      "chip": "ym2612"
    },
    {
      "channel": 3,
      "note": 82,
      "start": 64.8839,
      "duration": 0.1323,
      "velocity": 83,
      "chip": "ym2612"
    },
    {
      "channel": 4,
      "note": 63,
      "start": 64.8844,
      "duration": 0.1153,
      "velocity": 92,
      "chip": "ym2612"
    },
    {
      "channel": 0,
      "note": 44,
      "start": 65.0333,
      "duration": 0.0996,
      "velocity": 125,
      "chip": "ym2612"
    },
    {
      "channel": 4,
      "note": 53,
      "start": 65.0339,
      "duration": 0.1324,
      "velocity": 92,
      "chip": "ym2612"
    },
    {
      "channel": 1,
      "note": 46,
      "start": 65.1833,
      "duration": 0.2329,
      "velocity": 127,
      "chip": "ym2612"
    },
    {
      "channel": 2,
      "note": 84,
      "start": 65.1838,
      "duration": 0.1157,
      "velocity": 87,
      "chip": "ym2612"
    },
    {
      "channel": 3,
      "note": 81,
      "start": 65.1844,
      "duration": 0.1152,
      "velocity": 83,
      "chip": "ym2612"
    },
    {
      "channel": 4,
      "note": 56,
      "start": 65.1849,
      "duration": 0.1148,
      "velocity": 92,
      "chip": "ym2612"
    },
    {
      "channel": 4,
      "note": 65,
      "start": 65.3167,
      "duration": 0.0996,
      "velocity": 92,
      "chip": "ym2612"
    },
    {
      "channel": 0,
      "note": 44,
      "start": 65.4666,
      "duration": 0.0996,
      "velocity": 125,
      "chip": "ym2612"
    },
    {
      "channel": 2,
      "note": 82,
      "start": 65.4672,
      "duration": 0.1324,
      "velocity": 87,
      "chip": "ym2612"
    },
    {
      "channel": 3,
      "note": 79,
      "start": 65.4677,
      "duration": 0.0985,
      "velocity": 83,
      "chip": "ym2612"
    },
    {
      "channel": 4,
      "note": 56,
      "start": 65.4682,
      "duration": 0.1314,
      "velocity": 92,
      "chip": "ym2612"
    },
    {
      "channel": 2,
      "note": 79,
      "start": 65.6166,
      "duration": 0.0829,
      "velocity": 87,
      "chip": "ym2612"
    },
    {
      "channel": 3,
      "note": 75,
      "start": 65.6172,
      "duration": 0.0824,
      "velocity": 83,
      "chip": "ym2612"
    },
    {
      "channel": 4,
      "note": 58,
      "start": 65.6177,
      "duration": 0.1152,
      "velocity": 92,
      "chip": "ym2612"
    },
    {
      "channel": 2,
      "note": 80,
      "start": 65.75,
      "duration": 0.1162,
      "velocity": 87,
      "chip": "ym2612"
    },
    {
      "channel": 3,
      "note": 74,
      "start": 65.7505,
      "duration": 0.1157,
      "velocity": 83,
      "chip": "ym2612"
    },
    {
      "channel": 4,
      "note": 68,
      "start": 65.7511,
      "duration": 0.0985,
      "velocity": 92,
      "chip": "ym2612"
    },
    {
      "channel": 2,
      "note": 81,
      "start": 65.9,
      "duration": 0.1162,
      "velocity": 87,
      "chip": "ym2612"
    },
    {
      "channel": 3,
      "note": 75,
      "start": 65.9005,
      "duration": 0.1157,
      "velocity": 83,
      "chip": "ym2612"
    },
    {
      "channel": 4,
      "note": 56,
      "start": 65.9011,
      "duration": 0.0319,
      "velocity": 92,
      "chip": "ym2612"
    },
    {
      "channel": 0,
      "note": 44,
      "start": 66.05,
      "duration": 0.0829,
      "velocity": 125,
      "chip": "ym2612"
    },
    {
      "channel": 2,
      "note": 77,
      "start": 66.0505,
      "duration": 0.1157,
      "velocity": 87,
      "chip": "ym2612"
    },
    {
      "channel": 3,
      "note": 74,
      "start": 66.0511,
      "duration": 0.0985,
      "velocity": 83,
      "chip": "ym2612"
    },
    {
      "channel": 4,
      "note": 70,
      "start": 66.0516,
      "duration": 0.0647,
      "velocity": 92,
      "chip": "ym2612"
    },
    {
      "channel": 2,
      "note": 72,
      "start": 66.1833,
      "duration": 0.1329,
      "velocity": 87,
      "chip": "ym2612"
    },
    {
      "channel": 3,
      "note": 69,
      "start": 66.1839,
      "duration": 0.2157,
      "velocity": 83,
      "chip": "ym2612"
    },
    {
      "channel": 4,
      "note": 58,
      "start": 66.1844,
      "duration": 0.0485,
      "velocity": 92,
      "chip": "ym2612"
    },
    {
      "channel": 1,
      "note": 46,
      "start": 66.3333,
      "duration": 0.1662,
      "velocity": 127,
      "chip": "ym2612"
    },
    {
      "channel": 4,
      "note": 56,
      "start": 66.3339,
      "duration": 0.1157,
      "velocity": 92,
      "chip": "ym2612"
    },
    {
      "channel": 0,
      "note": 44,
      "start": 66.4833,
      "duration": 0.0829,
      "velocity": 125,
      "chip": "ym2612"
    },
    {
      "channel": 2,
      "note": 89,
      "start": 66.4838,
      "duration": 0.0824,
      "velocity": 87,
      "chip": "ym2612"
    },
    {
      "channel": 3,
      "note": 87,
      "start": 66.4844,
      "duration": 0.0651,
      "velocity": 83,
      "chip": "ym2612"
    },
    {
      "channel": 4,
      "note": 53,
      "start": 66.4849,
      "duration": 0.1147,
      "velocity": 92,
      "chip": "ym2612"
    },
    {
      "channel": 0,
      "note": 44,
      "start": 66.6166,
      "duration": 0.0996,
      "velocity": 125,
      "chip": "ym2612"
    },
    {
      "channel": 4,
      "note": 51,
      "start": 66.6172,
      "duration": 0.249,
      "velocity": 92,
      "chip": "ym2612"
    },
    {
      "channel": 0,
      "note": 44,
      "start": 66.9166,
      "duration": 0.0829,
      "velocity": 125,
      "chip": "ym2612"
    },
    {
      "channel": 4,
      "note": 58,
      "start": 66.9172,
      "duration": 0.199,
      "velocity": 92,
      "chip": "ym2612"
    },
    {
      "channel": 5,
      "note": 82,
      "start": 67.05,
      "duration": 0.0995,
      "velocity": 119,
      "chip": "ym2612"
    },
    {
      "channel": 4,
      "note": 58,
      "start": 67.2,
      "duration": 0.0162,
      "velocity": 92,
      "chip": "ym2612"
    },
    {
      "channel": 0,
      "note": 44,
      "start": 67.3333,
      "duration": 0.0996,
      "velocity": 125,
      "chip": "ym2612"
    },
    {
      "channel": 4,
      "note": 70,
      "start": 67.3339,
      "duration": 0.049,
      "velocity": 92,
      "chip": "ym2612"
    },
    {
      "channel": 5,
      "note": 82,
      "start": 67.3344,
      "duration": 0.0986,
      "velocity": 119,
      "chip": "ym2612"
    },
    {
      "channel": 1,
      "note": 46,
      "start": 67.4833,
      "duration": 0.2662,
      "velocity": 127,
      "chip": "ym2612"
    },
    {
      "channel": 5,
      "note": 82,
      "start": 67.4839,
      "duration": 0.099,
      "velocity": 119,
      "chip": "ym2612"
    },
    {
      "channel": 0,
      "note": 44,
      "start": 67.7666,
      "duration": 0.0996,
      "velocity": 125,
      "chip": "ym2612"
    },
    {
      "channel": 4,
      "note": 68,
      "start": 67.7672,
      "duration": 0.0991,
      "velocity": 92,
      "chip": "ym2612"
    },
    {
      "channel": 5,
      "note": 82,
      "start": 67.7677,
      "duration": 0.0987,
      "velocity": 119,
      "chip": "ym2612"
    },
    {
      "channel": 5,
      "note": 84,
      "start": 67.9167,
      "duration": 0.0995,
      "velocity": 119,
      "chip": "ym2612"
    },
    {
      "channel": 4,
      "note": 46,
      "start": 68.0667,
      "duration": 0.2838,
      "velocity": 92,
      "chip": "ym2612"
    },
    {
      "channel": 5,
      "note": 84,
      "start": 68.2,
      "duration": 0.0995,
      "velocity": 119,
      "chip": "ym2612"
    },
    {
      "channel": 0,
      "note": 44,
      "start": 68.35,
      "duration": 0.0996,
      "velocity": 125,
      "chip": "ym2612"
    },
    {
      "channel": 4,
      "note": 46,
      "start": 68.3505,
      "duration": 0.2157,
      "velocity": 92,
      "chip": "ym2612"
    },
    {
      "channel": 5,
      "note": 87,
      "start": 68.3511,
      "duration": 0.0986,
      "velocity": 119,
      "chip": "ym2612"
    },
    {
      "channel": 5,
      "note": 84,
      "start": 68.5,
      "duration": 0.0829,
      "velocity": 119,
      "chip": "ym2612"
    },
    {
      "channel": 1,
      "note": 46,
      "start": 68.6333,
      "duration": 0.0829,
      "velocity": 127,
      "chip": "ym2612"
    },
    {
      "channel": 4,
      "note": 49,
      "start": 68.6339,
      "duration": 0.2158,
      "velocity": 92,
      "chip": "ym2612"
    },
    {
      "channel": 5,
      "note": 89,
      "start": 68.6344,
      "duration": 0.0985,
      "velocity": 119,
      "chip": "ym2612"
    },
    {
      "channel": 1,
      "note": 46,
      "start": 68.7833,
      "duration": 0.0662,
      "velocity": 127,
      "chip": "ym2612"
    },
    {
      "channel": 5,
      "note": 87,
      "start": 68.7839,
      "duration": 0.099,
      "velocity": 119,
      "chip": "ym2612"
    },
    {
      "channel": 0,
      "note": 44,
      "start": 68.9333,
      "duration": 0.0829,
      "velocity": 125,
      "chip": "ym2612"
    },
    {
      "channel": 4,
      "note": 50,
      "start": 68.9339,
      "duration": 0.199,
      "velocity": 92,
      "chip": "ym2612"
    },
    {
      "channel": 5,
      "note": 84,
      "start": 68.9344,
      "duration": 0.0819,
      "velocity": 119,
      "chip": "ym2612"
    },
    {
      "channel": 2,
      "note": 72,
      "start": 69.0666,
      "duration": 0.0829,
      "velocity": 87,
      "chip": "ym2612"
    },
    {
      "channel": 0,
      "note": 44,
      "start": 69.2166,
      "duration": 0.0996,
      "velocity": 125,
      "chip": "ym2612"
    },
    {
      "channel": 2,
      "note": 85,
      "start": 69.2172,
      "duration": 0.0657,
      "velocity": 87,
      "chip": "ym2612"
    },
    {
      "channel": 3,
      "note": 82,
      "start": 69.2177,
      "duration": 0.0485,
      "velocity": 83,
      "chip": "ym2612"
    },
    {
      "channel": 4,
      "note": 51,
      "start": 69.2182,
      "duration": 0.149,
      "velocity": 92,
      "chip": "ym2612"
    },
    {
      "channel": 2,
      "note": 85,
      "start": 69.3666,
      "duration": 0.0996,
      "velocity": 87,
      "chip": "ym2612"
    },
    {
      "channel": 3,
      "note": 82,
      "start": 69.3672,
      "duration": 0.0657,
      "velocity": 83,
      "chip": "ym2612"
    },
    {
      "channel": 2,
      "note": 84,
      "start": 69.5,
      "duration": 0.0996,
      "velocity": 87,
      "chip": "ym2612"
    },
    {
      "channel": 3,
      "note": 80,
      "start": 69.5005,
      "duration": 0.1657,
      "velocity": 83,
      "chip": "ym2612"
    },
    {
      "channel": 0,
      "note": 44,
      "start": 69.65,
      "duration": 0.0996,
      "velocity": 125,
      "chip": "ym2612"
    },
    {
      "channel": 4,
      "note": 51,
      "start": 69.6505,
      "duration": 0.0158,
      "velocity": 92,
      "chip": "ym2612"
    },
    {
      "channel": 1,
      "note": 46,
      "start": 69.8,
      "duration": 0.1662,
      "velocity": 127,
      "chip": "ym2612"
    },
    {
      "channel": 2,
      "note": 82,
      "start": 69.8005,
      "duration": 0.1157,
      "velocity": 87,
      "chip": "ym2612"
    },
    {
      "channel": 3,
      "note": 78,
      "start": 69.8011,
      "duration": 0.1318,
      "velocity": 83,
      "chip": "ym2612"
    },
    {
      "channel": 4,
      "note": 63,
      "start": 69.8016,
      "duration": 0.0648,
      "velocity": 92,
      "chip": "ym2612"
    },
    {
      "channel": 0,
      "note": 44,
      "start": 70.0833,
      "duration": 0.0996,
      "velocity": 125,
      "chip": "ym2612"
    },
    {
      "channel": 2,
      "note": 80,
      "start": 70.0838,
      "duration": 0.1157,
      "velocity": 87,
      "chip": "ym2612"
    },
    {
      "channel": 3,
      "note": 77,
      "start": 70.0844,
      "duration": 0.1318,
      "velocity": 83,
      "chip": "ym2612"
    },
    {
      "channel": 4,
      "note": 61,
      "start": 70.0849,
      "duration": 0.1148,
      "velocity": 92,
      "chip": "ym2612"
    },
    {
      "channel": 2,
      "note": 70,
      "start": 70.2333,
      "duration": 0.0996,
      "velocity": 87,
      "chip": "ym2612"
    },
    {
      "channel": 2,
      "note": 77,
      "start": 70.3666,
      "duration": 0.1329,
      "velocity": 87,
      "chip": "ym2612"
    },
    {
      "channel": 3,
      "note": 73,
      "start": 70.3672,
      "duration": 0.1324,
      "velocity": 83,
      "chip": "ym2612"
    },
    {
      "channel": 4,
      "note": 56,
      "start": 70.3678,
      "duration": 0.1152,
      "velocity": 92,
      "chip": "ym2612"
    },
    {
      "channel": 2,
      "note": 78,
      "start": 70.5166,
      "duration": 0.0996,
      "velocity": 87,
      "chip": "ym2612"
    },
    {
      "channel": 3,
      "note": 74,
      "start": 70.5172,
      "duration": 0.0657,
      "velocity": 83,
      "chip": "ym2612"
    },
    {
      "channel": 4,
      "note": 56,
      "start": 70.5177,
      "duration": 0.1152,
      "velocity": 92,
      "chip": "ym2612"
    },
    {
      "channel": 0,
      "note": 44,
      "start": 70.6666,
      "duration": 0.0829,
      "velocity": 125,
      "chip": "ym2612"
    },
    {
      "channel": 2,
      "note": 79,
      "start": 70.6672,
      "duration": 0.099,
      "velocity": 87,
      "chip": "ym2612"
    },
    {
      "channel": 3,
      "note": 75,
      "start": 70.6677,
      "duration": 0.0985,
      "velocity": 83,
      "chip": "ym2612"
    },
    {
      "channel": 4,
      "note": 54,
      "start": 70.6682,
      "duration": 0.1147,
      "velocity": 92,
      "chip": "ym2612"
    },
    {
      "channel": 2,
      "note": 87,
      "start": 70.8,
      "duration": 0.4162,
      "velocity": 87,
      "chip": "ym2612"
    },
    {
      "channel": 3,
      "note": 78,
      "start": 70.8005,
      "duration": 0.3824,
      "velocity": 83,
      "chip": "ym2612"
    },
    {
      "channel": 4,
      "note": 51,
      "start": 70.8011,
      "duration": 0.1152,
      "velocity": 92,
      "chip": "ym2612"
    },
    {
      "channel": 1,
      "note": 46,
      "start": 70.95,
      "duration": 0.0662,
      "velocity": 127,
      "chip": "ym2612"
    },
    {
      "channel": 4,
      "note": 49,
      "start": 70.9505,
      "duration": 0.1157,
      "velocity": 92,
      "chip": "ym2612"
    },
    {
      "channel": 0,
      "note": 44,
      "start": 71.0833,
      "duration": 0.0996,
      "velocity": 125,
      "chip": "ym2612"
    },
    {
      "channel": 4,
      "note": 51,
      "start": 71.0839,
      "duration": 0.0992,
      "velocity": 92,
      "chip": "ym2612"
    },
    {
      "channel": 2,
      "note": 84,
      "start": 71.2333,
      "duration": 0.1329,
      "velocity": 87,
      "chip": "ym2612"
    },
    {
      "channel": 3,
      "note": 75,
      "start": 71.2339,
      "duration": 0.149,
      "velocity": 83,
      "chip": "ym2612"
    },
    {
      "channel": 4,
      "note": 54,
      "start": 71.2344,
      "duration": 0.1319,
      "velocity": 92,
      "chip": "ym2612"
    },
    {
      "channel": 4,
      "note": 51,
      "start": 71.3834,
      "duration": 0.0828,
      "velocity": 92,
      "chip": "ym2612"
    },
    {
      "channel": 0,
      "note": 44,
      "start": 71.5166,
      "duration": 0.0996,
      "velocity": 125,
      "chip": "ym2612"
    },
    {
      "channel": 4,
      "note": 44,
      "start": 71.5172,
      "duration": 0.1324,
      "velocity": 92,
      "chip": "ym2612"
    },
    {
      "channel": 4,
      "note": 56,
      "start": 71.6667,
      "duration": 0.0829,
      "velocity": 92,
      "chip": "ym2612"
    },
    {
      "channel": 0,
      "note": 44,
      "start": 71.8166,
      "duration": 0.1329,
      "velocity": 125,
      "chip": "ym2612"
    },
    {
      "channel": 0,
      "note": 44,
      "start": 71.95,
      "duration": 0.0995,
      "velocity": 125,
      "chip": "ym2612"
    },
    {
      "channel": 2,
      "note": 68,
      "start": 71.9505,
      "duration": 0.0323,
      "velocity": 87,
      "chip": "ym2612"
    },
    {
      "channel": 4,
      "note": 44,
      "start": 71.9511,
      "duration": 0.1318,
      "velocity": 92,
      "chip": "ym2612"
    },
    {
      "channel": 1,
      "note": 46,
      "start": 72.1,
      "duration": 0.2162,
      "velocity": 127,
      "chip": "ym2612"
    },
    {
      "channel": 2,
      "note": 78,
      "start": 72.1005,
      "duration": 0.0824,
      "velocity": 87,
      "chip": "ym2612"
    },
    {
      "channel": 3,
      "note": 83,
      "start": 72.1011,
      "duration": 0.0819,
      "velocity": 83,
      "chip": "ym2612"
    },
    {
      "channel": 4,
      "note": 44,
      "start": 72.1016,
      "duration": 0.1314,
      "velocity": 92,
      "chip": "ym2612"
    },
    {
      "channel": 4,
      "note": 46,
      "start": 72.25,
      "duration": 0.1162,
      "velocity": 92,
      "chip": "ym2612"
    },
    {
      "channel": 0,
      "note": 44,
      "start": 72.3833,
      "duration": 0.0996,
      "velocity": 125,
      "chip": "ym2612"
    },
    {
      "channel": 2,
      "note": 78,
      "start": 72.3838,
      "duration": 0.0657,
      "velocity": 87,
      "chip": "ym2612"
    },
    {
      "channel": 3,
      "note": 83,
      "start": 72.3844,
      "duration": 0.0985,
      "velocity": 83,
      "chip": "ym2612"
    },
    {
      "channel": 4,
      "note": 58,
      "start": 72.3849,
      "duration": 0.1314,
      "velocity": 92,
      "chip": "ym2612"
    },
    {
      "channel": 4,
      "note": 46,
      "start": 72.5334,
      "duration": 0.1329,
      "velocity": 92,
      "chip": "ym2612"
    },
    {
      "channel": 2,
      "note": 78,
      "start": 72.6833,
      "duration": 0.0496,
      "velocity": 87,
      "chip": "ym2612"
    },
    {
      "channel": 3,
      "note": 83,
      "start": 72.6839,
      "duration": 0.099,
      "velocity": 83,
      "chip": "ym2612"
    },
    {
      "channel": 4,
      "note": 47,
      "start": 72.6844,
      "duration": 0.1319,
      "velocity": 92,
      "chip": "ym2612"
    },
    {
      "channel": 4,
      "note": 48,
      "start": 72.8168,
      "duration": 0.1328,
      "velocity": 92,
      "chip": "ym2612"
    },
    {
      "channel": 0,
      "note": 44,
      "start": 72.9666,
      "duration": 0.0996,
      "velocity": 125,
      "chip": "ym2612"
    },
    {
      "channel": 2,
      "note": 78,
      "start": 72.9672,
      "duration": 0.049,
      "velocity": 87,
      "chip": "ym2612"
    },
    {
      "channel": 3,
      "note": 83,
      "start": 72.9677,
      "duration": 0.0985,
      "velocity": 83,
      "chip": "ym2612"
    },
    {
      "channel": 4,
      "note": 56,
      "start": 72.9682,
      "duration": 0.1314,
      "velocity": 92,
      "chip": "ym2612"
    },
    {
      "channel": 4,
      "note": 58,
      "start": 73.1167,
      "duration": 0.1344,
      "velocity": 92,
      "chip": "ym2612"
    },
    {
      "channel": 1,
      "note": 46,
      "start": 73.25,
      "duration": 0.0996,
      "velocity": 127,
      "chip": "ym2612"
    },
    {
      "channel": 2,
      "note": 78,
      "start": 73.2505,
      "duration": 0.1324,
      "velocity": 87,
      "chip": "ym2612"
    },
    {
      "channel": 3,
      "note": 83,
      "start": 73.2511,
      "duration": 0.1151,
      "velocity": 83,
      "chip": "ym2612"
    },
    {
      "channel": 4,
      "note": 64,
      "start": 73.2516,
      "duration": 0.098,
      "velocity": 92,
      "chip": "ym2612"
    },
    {
      "channel": 0,
      "note": 44,
      "start": 73.4,
      "duration": 0.0996,
      "velocity": 125,
      "chip": "ym2612"
    },
    {
      "channel": 2,
      "note": 80,
      "start": 73.4005,
      "duration": 0.0991,
      "velocity": 87,
      "chip": "ym2612"
    },
    {
      "channel": 3,
      "note": 85,
      "start": 73.4011,
      "duration": 0.0986,
      "velocity": 83,
      "chip": "ym2612"
    },
    {
      "channel": 4,
      "note": 44,
      "start": 73.4016,
      "duration": 0.0982,
      "velocity": 92,
      "chip": "ym2612"
    },
    {
      "channel": 1,
      "note": 46,
      "start": 73.55,
      "duration": 0.1162,
      "velocity": 127,
      "chip": "ym2612"
    },
    {
      "channel": 4,
      "note": 47,
      "start": 73.5505,
      "duration": 0.1158,
      "velocity": 92,
      "chip": "ym2612"
    },
    {
      "channel": 1,
      "note": 46,
      "start": 73.6833,
      "duration": 0.1504,
      "velocity": 127,
      "chip": "ym2612"
    },
    {
      "channel": 4,
      "note": 48,
      "start": 73.6839,
      "duration": 0.1157,
      "velocity": 92,
      "chip": "ym2612"
    },
    {
      "channel": 0,
      "note": 44,
      "start": 73.8334,
      "duration": 0.0003,
      "velocity": 125,
      "chip": "ym2612"
    },
    {
      "channel": 4,
      "note": 58,
      "start": 73.9828,
      "duration": 0.0005,
      "velocity": 111,
      "chip": "ym2612"
    },
    {
      "channel": 4,
      "note": 59,
      "start": 73.9837,
      "duration": 0.0004,
      "velocity": 111,
      "chip": "ym2612"
    },
    {
      "channel": 4,
      "note": 58,
      "start": 73.9846,
      "duration": 0.0005,
      "velocity": 111,
      "chip": "ym2612"
    },
    {
      "channel": 4,
      "note": 59,
      "start": 74.0176,
      "duration": 0.0662,
      "velocity": 111,
      "chip": "ym2612"
    },
    {
      "channel": 4,
      "note": 58,
      "start": 74.301,
      "duration": 0.0005,
      "velocity": 111,
      "chip": "ym2612"
    },
    {
      "channel": 4,
      "note": 59,
      "start": 74.317,
      "duration": 0.0005,
      "velocity": 111,
      "chip": "ym2612"
    },
    {
      "channel": 4,
      "note": 52,
      "start": 74.318,
      "duration": 0.0001,
      "velocity": 111,
      "chip": "ym2612"
    },
    {
      "channel": 4,
      "note": 54,
      "start": 74.3498,
      "duration": 0.1329,
      "velocity": 111,
      "chip": "ym2612"
    },
    {
      "channel": 4,
      "note": 53,
      "start": 74.6836,
      "duration": 0.1162,
      "velocity": 111,
      "chip": "ym2612"
    },
    {
      "channel": 4,
      "note": 54,
      "start": 74.8336,
      "duration": 0.0829,
      "velocity": 111,
      "chip": "ym2612"
    },
    {
      "channel": 4,
      "note": 64,
      "start": 74.9836,
      "duration": 0.0247,
      "velocity": 111,
      "chip": "ym2612"
    },
    {
      "channel": 4,
      "note": 54,
      "start": 75.0254,
      "duration": 0.008,
      "velocity": 111,
      "chip": "ym2612"
    },
    {
      "channel": 4,
      "note": 49,
      "start": 75.1449,
      "duration": 0.1656,
      "velocity": 111,
      "chip": "ym2612"
    },
    {
      "channel": 4,
      "note": 58,
      "start": 75.3111,
      "duration": 0.0828,
      "velocity": 111,
      "chip": "ym2612"
    },
    {
      "channel": 4,
      "note": 59,
      "start": 75.461,
      "duration": 0.0005,
      "velocity": 111,
      "chip": "ym2612"
    },
    {
      "channel": 4,
      "note": 58,
      "start": 75.462,
      "duration": 0.0005,
      "velocity": 111,
      "chip": "ym2612"
    },
    {
      "channel": 4,
      "note": 59,
      "start": 75.4948,
      "duration": 0.0662,
      "velocity": 111,
      "chip": "ym2612"
    },
    {
      "channel": 4,
      "note": 58,
      "start": 75.6867,
      "duration": 0.0005,
      "velocity": 111,
      "chip": "ym2612"
    },
    {
      "channel": 4,
      "note": 59,
      "start": 75.7028,
      "duration": 0.0005,
      "velocity": 111,
      "chip": "ym2612"
    },
    {
      "channel": 4,
      "note": 52,
      "start": 75.7039,
      "duration": 0.0005,
      "velocity": 111,
      "chip": "ym2612"
    },
    {
      "channel": 4,
      "note": 54,
      "start": 75.7202,
      "duration": 0.0008,
      "velocity": 111,
      "chip": "ym2612"
    },
    {
      "channel": 4,
      "note": 53,
      "start": 75.7404,
      "duration": 0.0025,
      "velocity": 111,
      "chip": "ym2612"
    },
    {
      "channel": 4,
      "note": 54,
      "start": 75.7433,
      "duration": 0.0005,
      "velocity": 111,
      "chip": "ym2612"
    },
    {
      "channel": 4,
      "note": 64,
      "start": 75.7443,
      "duration": 0.0024,
      "velocity": 111,
      "chip": "ym2612"
    },
    {
      "channel": 4,
      "note": 51,
      "start": 75.7472,
      "duration": 0.0005,
      "velocity": 111,
      "chip": "ym2612"
    },
    {
      "channel": 4,
      "note": 52,
      "start": 75.7483,
      "duration": 0.0004,
      "velocity": 111,
      "chip": "ym2612"
    },
    {
      "channel": 4,
      "note": 62,
      "start": 75.7493,
      "duration": 0.0024,
      "velocity": 111,
      "chip": "ym2612"
    },
    {
      "channel": 4,
      "note": 47,
      "start": 75.7522,
      "duration": 0.0004,
      "velocity": 111,
      "chip": "ym2612"
    },
    {
      "channel": 4,
      "note": 48,
      "start": 75.7532,
      "duration": 0.0004,
      "velocity": 111,
      "chip": "ym2612"
    },
    {
      "channel": 4,
      "note": 49,
      "start": 75.7541,
      "duration": 0.0005,
      "velocity": 111,
      "chip": "ym2612"
    },
    {
      "channel": 4,
      "note": 58,
      "start": 75.9203,
      "duration": 0.0005,
      "velocity": 111,
      "chip": "ym2612"
    },
    {
      "channel": 4,
      "note": 59,
      "start": 75.9212,
      "duration": 0.0004,
      "velocity": 111,
      "chip": "ym2612"
    },
    {
      "channel": 4,
      "note": 58,
      "start": 75.9221,
      "duration": 0.0004,
      "velocity": 111,
      "chip": "ym2612"
    },
    {
      "channel": 4,
      "note": 59,
      "start": 75.9549,
      "duration": 0.0496,
      "velocity": 111,
      "chip": "ym2612"
    },
    {
      "channel": 4,
      "note": 58,
      "start": 76.1468,
      "duration": 0.0005,
      "velocity": 111,
      "chip": "ym2612"
    },
    {
      "channel": 4,
      "note": 59,
      "start": 76.163,
      "duration": 0.0005,
      "velocity": 111,
      "chip": "ym2612"
    },
    {
      "channel": 4,
      "note": 52,
      "start": 76.164,
      "duration": 0.0005,
      "velocity": 111,
      "chip": "ym2612"
    },
    {
      "channel": 4,
      "note": 54,
      "start": 76.1803,
      "duration": 0.0005,
      "velocity": 111,
      "chip": "ym2612"
    },
    {
      "channel": 4,
      "note": 53,
      "start": 76.3646,
      "duration": 0.1329,
      "velocity": 111,
      "chip": "ym2612"
    },
    {
      "channel": 4,
      "note": 54,
      "start": 76.5146,
      "duration": 0.0829,
      "velocity": 111,
      "chip": "ym2612"
    },
    {
      "channel": 4,
      "note": 64,
      "start": 76.648,
      "duration": 0.0413,
      "velocity": 111,
      "chip": "ym2612"
    },
    {
      "channel": 4,
      "note": 54,
      "start": 76.7064,
      "duration": 0.008,
      "velocity": 111,
      "chip": "ym2612"
    },
    {
      "channel": 4,
      "note": 49,
      "start": 76.7829,
      "duration": 0.1491,
      "velocity": 111,
      "chip": "ym2612"
    },
    {
      "channel": 4,
      "note": 58,
      "start": 76.949,
      "duration": 0.0005,
      "velocity": 111,
      "chip": "ym2612"
    },
    {
      "channel": 4,
      "note": 59,
      "start": 76.95,
      "duration": 0.0004,
      "velocity": 111,
      "chip": "ym2612"
    },
    {
      "channel": 4,
      "note": 58,
      "start": 76.9511,
      "duration": 0.0005,
      "velocity": 111,
      "chip": "ym2612"
    },
    {
      "channel": 4,
      "note": 59,
      "start": 76.9839,
      "duration": 0.0662,
      "velocity": 111,
      "chip": "ym2612"
    },
    {
      "channel": 4,
      "note": 58,
      "start": 77.1756,
      "duration": 0.0005,
      "velocity": 111,
      "chip": "ym2612"
    },
    {
      "channel": 4,
      "note": 59,
      "start": 77.1919,
      "duration": 0.0005,
      "velocity": 111,
      "chip": "ym2612"
    },
    {
      "channel": 4,
      "note": 52,
      "start": 77.1929,
      "duration": 0.0005,
      "velocity": 111,
      "chip": "ym2612"
    },
    {
      "channel": 4,
      "note": 54,
      "start": 77.2092,
      "duration": 0.0008,
      "velocity": 111,
      "chip": "ym2612"
    },
    {
      "channel": 4,
      "note": 53,
      "start": 77.3459,
      "duration": 0.1162,
      "velocity": 111,
      "chip": "ym2612"
    },
    {
      "channel": 4,
      "note": 54,
      "start": 77.4959,
      "duration": 0.0996,
      "velocity": 111,
      "chip": "ym2612"
    },
    {
      "channel": 4,
      "note": 64,
      "start": 77.6292,
      "duration": 0.0412,
      "velocity": 111,
      "chip": "ym2612"
    },
    {
      "channel": 4,
      "note": 51,
      "start": 77.6876,
      "duration": 0.0247,
      "velocity": 111,
      "chip": "ym2612"
    },
    {
      "channel": 4,
      "note": 52,
      "start": 77.746,
      "duration": 0.0005,
      "velocity": 111,
      "chip": "ym2612"
    },
    {
      "channel": 4,
      "note": 62,
      "start": 77.747,
      "duration": 0.0005,
      "velocity": 111,
      "chip": "ym2612"
    },
    {
      "channel": 4,
      "note": 47,
      "start": 77.748,
      "duration": 0.008,
      "velocity": 111,
      "chip": "ym2612"
    },
    {
      "channel": 4,
      "note": 48,
      "start": 77.8064,
      "duration": 0.0247,
      "velocity": 111,
      "chip": "ym2612"
    },
    {
      "channel": 4,
      "note": 53,
      "start": 77.8483,
      "duration": 0.0006,
      "velocity": 92,
      "chip": "ym2612"
    },
    {
      "channel": 4,
      "note": 53,
      "start": 77.8494,
      "duration": 0.0001,
      "velocity": 92,
      "chip": "ym2612"
    },
    {
      "channel": 4,
      "note": 41,
      "start": 78.0002,
      "duration": 0.0,
      "velocity": 92,
      "chip": "ym2612"
    },
    {
      "channel": 4,
      "note": 53,
      "start": 78.0007,
      "duration": 0.0316,
      "velocity": 92,
      "chip": "ym2612"
    },
    {
      "channel": 4,
      "note": 53,
      "start": 78.3165,
      "duration": 0.0001,
      "velocity": 92,
      "chip": "ym2612"
    },
    {
      "channel": 4,
      "note": 56,
      "start": 78.3327,
      "duration": 0.0001,
      "velocity": 92,
      "chip": "ym2612"
    },
    {
      "channel": 4,
      "note": 57,
      "start": 78.3332,
      "duration": 0.0813,
      "velocity": 92,
      "chip": "ym2612"
    },
    {
      "channel": 4,
      "note": 58,
      "start": 78.5154,
      "duration": 0.0001,
      "velocity": 92,
      "chip": "ym2612"
    },
    {
      "channel": 4,
      "note": 70,
      "start": 78.6816,
      "duration": 0.0001,
      "velocity": 92,
      "chip": "ym2612"
    },
    {
      "channel": 4,
      "note": 68,
      "start": 78.6837,
      "duration": 0.0001,
      "velocity": 92,
      "chip": "ym2612"
    },
    {
      "channel": 4,
      "note": 56,
      "start": 78.8664,
      "duration": 0.0162,
      "velocity": 92,
      "chip": "ym2612"
    },
    {
      "channel": 4,
      "note": 48,
      "start": 78.9997,
      "duration": 0.0832,
      "velocity": 92,
      "chip": "ym2612"
    },
    {
      "channel": 4,
      "note": 51,
      "start": 79.1004,
      "duration": 0.0419,
      "velocity": 92,
      "chip": "ym2612"
    },
    {
      "channel": 4,
      "note": 52,
      "start": 79.1598,
      "duration": 0.0005,
      "velocity": 92,
      "chip": "ym2612"
    },
    {
      "channel": 4,
      "note": 53,
      "start": 79.1616,
      "duration": 0.0001,
      "velocity": 92,
      "chip": "ym2612"
    },
    {
      "channel": 4,
      "note": 53,
      "start": 79.1622,
      "duration": 0.015,
      "velocity": 92,
      "chip": "ym2612"
    },
    {
      "channel": 4,
      "note": 53,
      "start": 79.3442,
      "duration": 0.0329,
      "velocity": 92,
      "chip": "ym2612"
    },
    {
      "channel": 4,
      "note": 53,
      "start": 79.4788,
      "duration": 0.0001,
      "velocity": 92,
      "chip": "ym2612"
    },
    {
      "channel": 4,
      "note": 53,
      "start": 79.7034,
      "duration": 0.0001,
      "velocity": 92,
      "chip": "ym2612"
    },
    {
      "channel": 4,
      "note": 56,
      "start": 79.7196,
      "duration": 0.0006,
      "velocity": 92,
      "chip": "ym2612"
    },
    {
      "channel": 4,
      "note": 57,
      "start": 79.7207,
      "duration": 0.0157,
      "velocity": 92,
      "chip": "ym2612"
    },
    {
      "channel": 4,
      "note": 58,
      "start": 79.7379,
      "duration": 0.0001,
      "velocity": 92,
      "chip": "ym2612"
    },
    {
      "channel": 4,
      "note": 70,
      "start": 79.7544,
      "duration": 0.0001,
      "velocity": 92,
      "chip": "ym2612"
    },
    {
      "channel": 4,
      "note": 68,
      "start": 79.7565,
      "duration": 0.0,
      "velocity": 92,
      "chip": "ym2612"
    },
    {
      "channel": 4,
      "note": 46,
      "start": 79.7593,
      "duration": 0.0002,
      "velocity": 92,
      "chip": "ym2612"
    },
    {
      "channel": 4,
      "note": 58,
      "start": 79.76,
      "duration": 0.0005,
      "velocity": 92,
      "chip": "ym2612"
    },
    {
      "channel": 4,
      "note": 59,
      "start": 79.7646,
      "duration": 0.0005,
      "velocity": 92,
      "chip": "ym2612"
    },
    {
      "channel": 4,
      "note": 58,
      "start": 79.7655,
      "duration": 0.0023,
      "velocity": 92,
      "chip": "ym2612"
    },
    {
      "channel": 4,
      "note": 56,
      "start": 79.7683,
      "duration": 0.0005,
      "velocity": 92,
      "chip": "ym2612"
    },
    {
      "channel": 4,
      "note": 53,
      "start": 79.7693,
      "duration": 0.0001,
      "velocity": 92,
      "chip": "ym2612"
    },
    {
      "channel": 4,
      "note": 51,
      "start": 79.7699,
      "duration": 0.0005,
      "velocity": 92,
      "chip": "ym2612"
    },
    {
      "channel": 4,
      "note": 51,
      "start": 79.7713,
      "duration": 0.0001,
      "velocity": 92,
      "chip": "ym2612"
    },
    {
      "channel": 4,
      "note": 53,
      "start": 79.7718,
      "duration": 0.0001,
      "velocity": 92,
      "chip": "ym2612"
    },
    {
      "channel": 4,
      "note": 63,
      "start": 79.8038,
      "duration": 0.1162,
      "velocity": 92,
      "chip": "ym2612"
    },
    {
      "channel": 4,
      "note": 53,
      "start": 79.9375,
      "duration": 0.0002,
      "velocity": 92,
      "chip": "ym2612"
    },
    {
      "channel": 4,
      "note": 56,
      "start": 79.9384,
      "duration": 0.0001,
      "velocity": 92,
      "chip": "ym2612"
    },
    {
      "channel": 4,
      "note": 65,
      "start": 79.939,
      "duration": 0.0001,
      "velocity": 92,
      "chip": "ym2612"
    },
    {
      "channel": 4,
      "note": 56,
      "start": 79.9398,
      "duration": 0.0001,
      "velocity": 92,
      "chip": "ym2612"
    },
    {
      "channel": 4,
      "note": 58,
      "start": 79.9405,
      "duration": 0.0151,
      "velocity": 92,
      "chip": "ym2612"
    },
    {
      "channel": 4,
      "note": 68,
      "start": 79.9727,
      "duration": 0.0996,
      "velocity": 92,
      "chip": "ym2612"
    },
    {
      "channel": 4,
      "note": 56,
      "start": 80.1064,
      "duration": 0.0001,
      "velocity": 92,
      "chip": "ym2612"
    },
    {
      "channel": 4,
      "note": 70,
      "start": 80.165,
      "duration": 0.0001,
      "velocity": 92,
      "chip": "ym2612"
    },
    {
      "channel": 4,
      "note": 58,
      "start": 80.1656,
      "duration": 0.0001,
      "velocity": 92,
      "chip": "ym2612"
    },
    {
      "channel": 4,
      "note": 56,
      "start": 80.1815,
      "duration": 0.0001,
      "velocity": 92,
      "chip": "ym2612"
    },
    {
      "channel": 4,
      "note": 53,
      "start": 80.1824,
      "duration": 0.0001,
      "velocity": 92,
      "chip": "ym2612"
    },
    {
      "channel": 4,
      "note": 51,
      "start": 80.183,
      "duration": 0.0154,
      "velocity": 92,
      "chip": "ym2612"
    },
    {
      "channel": 4,
      "note": 58,
      "start": 80.1997,
      "duration": 0.0001,
      "velocity": 92,
      "chip": "ym2612"
    },
    {
      "channel": 4,
      "note": 58,
      "start": 80.2324,
      "duration": 0.0162,
      "velocity": 92,
      "chip": "ym2612"
    },
    {
      "channel": 4,
      "note": 70,
      "start": 80.3657,
      "duration": 0.0005,
      "velocity": 92,
      "chip": "ym2612"
    },
    {
      "channel": 4,
      "note": 68,
      "start": 80.3672,
      "duration": 0.0004,
      "velocity": 92,
      "chip": "ym2612"
    },
    {
      "channel": 4,
      "note": 46,
      "start": 80.4001,
      "duration": 0.2671,
      "velocity": 92,
      "chip": "ym2612"
    },
    {
      "channel": 4,
      "note": 46,
      "start": 80.6671,
      "duration": 0.0582,
      "velocity": 92,
      "chip": "ym2612"
    },
    {
      "channel": 4,
      "note": 49,
      "start": 80.7839,
      "duration": 0.0008,
      "velocity": 92,
      "chip": "ym2612"
    },
    {
      "channel": 4,
      "note": 50,
      "start": 80.786,
      "duration": 0.0,
      "velocity": 92,
      "chip": "ym2612"
    },
    {
      "channel": 4,
      "note": 51,
      "start": 80.8021,
      "duration": 0.0001,
      "velocity": 92,
      "chip": "ym2612"
    },
    {
      "channel": 4,
      "note": 51,
      "start": 80.9685,
      "duration": 0.0,
      "velocity": 92,
      "chip": "ym2612"
    },
    {
      "channel": 4,
      "note": 63,
      "start": 80.9697,
      "duration": 0.0001,
      "velocity": 92,
      "chip": "ym2612"
    },
    {
      "channel": 4,
      "note": 61,
      "start": 80.9707,
      "duration": 0.0001,
      "velocity": 92,
      "chip": "ym2612"
    },
    {
      "channel": 4,
      "note": 56,
      "start": 81.0032,
      "duration": 0.1162,
      "velocity": 92,
      "chip": "ym2612"
    },
    {
      "channel": 4,
      "note": 56,
      "start": 81.1369,
      "duration": 0.041,
      "velocity": 92,
      "chip": "ym2612"
    },
    {
      "channel": 4,
      "note": 54,
      "start": 81.1954,
      "duration": 0.0001,
      "velocity": 92,
      "chip": "ym2612"
    },
    {
      "channel": 4,
      "note": 51,
      "start": 81.196,
      "duration": 0.0001,
      "velocity": 92,
      "chip": "ym2612"
    },
    {
      "channel": 4,
      "note": 49,
      "start": 81.2118,
      "duration": 0.0001,
      "velocity": 92,
      "chip": "ym2612"
    },
    {
      "channel": 4,
      "note": 51,
      "start": 81.2124,
      "duration": 0.0005,
      "velocity": 92,
      "chip": "ym2612"
    },
    {
      "channel": 4,
      "note": 54,
      "start": 81.2134,
      "duration": 0.0148,
      "velocity": 92,
      "chip": "ym2612"
    },
    {
      "channel": 4,
      "note": 51,
      "start": 81.2291,
      "duration": 0.0001,
      "velocity": 92,
      "chip": "ym2612"
    },
    {
      "channel": 4,
      "note": 44,
      "start": 81.2297,
      "duration": 0.0005,
      "velocity": 92,
      "chip": "ym2612"
    },
    {
      "channel": 4,
      "note": 56,
      "start": 81.231,
      "duration": 0.0001,
      "velocity": 92,
      "chip": "ym2612"
    },
    {
      "channel": 4,
      "note": 44,
      "start": 81.29,
      "duration": 0.0413,
      "velocity": 92,
      "chip": "ym2612"
    },
    {
      "channel": 4,
      "note": 44,
      "start": 81.3322,
      "duration": 0.0,
      "velocity": 92,
      "chip": "ym2612"
    },
    {
      "channel": 4,
      "note": 46,
      "start": 81.3331,
      "duration": 0.0,
      "velocity": 92,
      "chip": "ym2612"
    },
    {
      "channel": 4,
      "note": 58,
      "start": 81.3337,
      "duration": 0.0001,
      "velocity": 92,
      "chip": "ym2612"
    },
    {
      "channel": 4,
      "note": 46,
      "start": 81.3342,
      "duration": 0.0308,
      "velocity": 92,
      "chip": "ym2612"
    },
    {
      "channel": 4,
      "note": 47,
      "start": 81.3821,
      "duration": 0.1329,
      "velocity": 92,
      "chip": "ym2612"
    },
    {
      "channel": 4,
      "note": 48,
      "start": 81.5155,
      "duration": 0.1328,
      "velocity": 92,
      "chip": "ym2612"
    },
    {
      "channel": 4,
      "note": 56,
      "start": 81.6492,
      "duration": 0.0577,
      "velocity": 92,
      "chip": "ym2612"
    },
    {
      "channel": 4,
      "note": 58,
      "start": 81.7078,
      "duration": 0.0576,
      "velocity": 92,
      "chip": "ym2612"
    },
    {
      "channel": 4,
      "note": 64,
      "start": 81.7659,
      "duration": 0.0005,
      "velocity": 92,
      "chip": "ym2612"
    },
    {
      "channel": 4,
      "note": 44,
      "start": 81.7673,
      "duration": 0.0001,
      "velocity": 92,
      "chip": "ym2612"
    },
    {
      "channel": 4,
      "note": 47,
      "start": 81.7684,
      "duration": 0.0411,
      "velocity": 92,
      "chip": "ym2612"
    },
    {
      "channel": 4,
      "note": 48,
      "start": 81.8266,
      "duration": 0.0246,
      "velocity": 92,
      "chip": "ym2612"
    },
    {
      "channel": 0,
      "note": 44,
      "start": 81.8689,
      "duration": 0.001,
      "velocity": 125,
      "chip": "ym2612"
    },
    {
      "channel": 4,
      "note": 49,
      "start": 81.8693,
      "duration": 0.0005,
      "velocity": 111,
      "chip": "ym2612"
    },
    {
      "channel": 5,
      "note": 61,
      "start": 81.8698,
      "duration": 0.0001,
      "velocity": 83,
      "chip": "ym2612"
    }
  ]
}