{
  "track_name": "05 - Bukimi Warui",
  "duration_sec": 105.233,
  "sample_rate": 44100,
  "note_count": 2905,
  "unique_pitches": 33,
  "pitch_range": 51,
  "avg_note_duration": 0.1866,
  "reconstruction_stats": {
    "notes_reconstructed": 2905,
    "keyon_events": 2905,
    "keyoff_events": 2900,
    "orphan_keyons": 5,
    "unique_pitches": 33,
    "pitch_range": 51,
    "avg_duration_sec": 0.1866
  },
  "metadata": {
    "source": "Y\\Yumimi Mix\\05 - Bukimi Warui.vgm"
  },
  "notes": [
    {
      "channel": 1,
      "note": 66,
      "start": 0.0,
      "duration": 0.0,
      "velocity": 104,
      "chip": "ym2612"
    },
    {
      "channel": 1,
      "note": 66,
      "start": 0.0,
      "duration": 0.0519,
      "velocity": 104,
      "chip": "ym2612"
    },
    {
      "channel": 3,
      "note": 83,
      "start": 0.0,
      "duration": 0.1535,
      "velocity": 91,
      "chip": "ym2612"
    },
    {
      "channel": 4,
      "note": 54,
      "start": 0.0,
      "duration": 0.0544,
      "velocity": 78,
      "chip": "ym2612"
    },
    {
      "channel": 2,
      "note": 42,
      "start": 0.0027,
      "duration": 0.2999,
      "velocity": 90,
      "chip": "ym2612"
    },
    {
      "channel": 1,
      "note": 66,
      "start": 0.0519,
      "duration": 0.0999,
      "velocity": 104,
      "chip": "ym2612"
    },
    {
      "channel": 4,
      "note": 45,
      "start": 0.0544,
      "duration": 0.1999,
      "velocity": 81,
      "chip": "ym2612"
    },
    {
      "channel": 1,
      "note": 66,
      "start": 0.1519,
      "duration": 0.0999,
      "velocity": 104,
      "chip": "ym2612"
    },
    {
      "channel": 3,
      "note": 85,
      "start": 0.1536,
      "duration": 0.3,
      "velocity": 91,
      "chip": "ym2612"
    },
    {
      "channel": 1,
      "note": 66,
      "start": 0.2519,
      "duration": 0.0999,
      "velocity": 104,
      "chip": "ym2612"
    },
    {
      "channel": 4,
      "note": 53,
      "start": 0.2544,
      "duration": 0.2005,
      "velocity": 84,
      "chip": "ym2612"
    },
    {
      "channel": 2,
      "note": 49,
      "start": 0.3027,
      "duration": 0.3,
      "velocity": 90,
      "chip": "ym2612"
    },
    {
      "channel": 1,
      "note": 66,
      "start": 0.3519,
      "duration": 0.1001,
      "velocity": 104,
      "chip": "ym2612"
    },
    {
      "channel": 1,
      "note": 66,
      "start": 0.4521,
      "duration": 0.0999,
      "velocity": 104,
      "chip": "ym2612"
    },
    {
      "channel": 3,
      "note": 83,
      "start": 0.4537,
      "duration": 0.2999,
      "velocity": 91,
      "chip": "ym2612"
    },
    {
      "channel": 4,
      "note": 45,
      "start": 0.4549,
      "duration": 0.1995,
      "velocity": 86,
      "chip": "ym2612"
    },
    {
      "channel": 5,
      "note": 54,
      "start": 0.4562,
      "duration": 0.1995,
      "velocity": 69,
      "chip": "ym2612"
    },
    {
      "channel": 1,
      "note": 66,
      "start": 0.552,
      "duration": 0.1,
      "velocity": 104,
      "chip": "ym2612"
    },
    {
      "channel": 2,
      "note": 48,
      "start": 0.6027,
      "duration": 0.2999,
      "velocity": 90,
      "chip": "ym2612"
    },
    {
      "channel": 1,
      "note": 66,
      "start": 0.652,
      "duration": 0.0999,
      "velocity": 104,
      "chip": "ym2612"
    },
    {
      "channel": 4,
      "note": 54,
      "start": 0.6544,
      "duration": 0.2001,
      "velocity": 88,
      "chip": "ym2612"
    },
    {
      "channel": 5,
      "note": 45,
      "start": 0.6557,
      "duration": 0.2,
      "velocity": 71,
      "chip": "ym2612"
    },
    {
      "channel": 1,
      "note": 66,
      "start": 0.752,
      "duration": 0.1,
      "velocity": 104,
      "chip": "ym2612"
    },
    {
      "channel": 3,
      "note": 78,
      "start": 0.7536,
      "duration": 0.3001,
      "velocity": 91,
      "chip": "ym2612"
    },
    {
      "channel": 1,
      "note": 66,
      "start": 0.852,
      "duration": 0.0999,
      "velocity": 104,
      "chip": "ym2612"
    },
    {
      "channel": 4,
      "note": 45,
      "start": 0.8546,
      "duration": 0.2003,
      "velocity": 89,
      "chip": "ym2612"
    },
    {
      "channel": 5,
      "note": 53,
      "start": 0.8558,
      "duration": 0.2003,
      "velocity": 73,
      "chip": "ym2612"
    },
    {
      "channel": 2,
      "note": 52,
      "start": 0.9027,
      "duration": 0.2999,
      "velocity": 90,
      "chip": "ym2612"
    },
    {
      "channel": 1,
      "note": 66,
      "start": 0.952,
      "duration": 0.1001,
      "velocity": 104,
      "chip": "ym2612"
    },
    {
      "channel": 1,
      "note": 66,
      "start": 1.0521,
      "duration": 0.0998,
      "velocity": 104,
      "chip": "ym2612"
    },
    {
      "channel": 3,
      "note": 81,
      "start": 1.0537,
      "duration": 0.2998,
      "velocity": 91,
      "chip": "ym2612"
    },
    {
      "channel": 4,
      "note": 56,
      "start": 1.0549,
      "duration": 0.1995,
      "velocity": 88,
      "chip": "ym2612"
    },
    {
      "channel": 5,
      "note": 45,
      "start": 1.0562,
      "duration": 0.1995,
      "velocity": 74,
      "chip": "ym2612"
    },
    {
      "channel": 1,
      "note": 66,
      "start": 1.152,
      "duration": 0.1,
      "velocity": 104,
      "chip": "ym2612"
    },
    {
      "channel": 2,
      "note": 51,
      "start": 1.2027,
      "duration": 0.3,
      "velocity": 90,
      "chip": "ym2612"
    },
    {
      "channel": 1,
      "note": 66,
      "start": 1.252,
      "duration": 0.0999,
      "velocity": 104,
      "chip": "ym2612"
    },
    {
      "channel": 4,
      "note": 45,
      "start": 1.2545,
      "duration": 0.1999,
      "velocity": 86,
      "chip": "ym2612"
    },
    {
      "channel": 5,
      "note": 54,
      "start": 1.2557,
      "duration": 0.1999,
      "velocity": 76,
      "chip": "ym2612"
    },
    {
      "channel": 1,
      "note": 66,
      "start": 1.352,
      "duration": 0.1,
      "velocity": 104,
      "chip": "ym2612"
    },
    {
      "channel": 3,
      "note": 83,
      "start": 1.3536,
      "duration": 0.3,
      "velocity": 91,
      "chip": "ym2612"
    },
    {
      "channel": 1,
      "note": 66,
      "start": 1.452,
      "duration": 0.0999,
      "velocity": 104,
      "chip": "ym2612"
    },
    {
      "channel": 4,
      "note": 57,
      "start": 1.4545,
      "duration": 0.2002,
      "velocity": 83,
      "chip": "ym2612"
    },
    {
      "channel": 5,
      "note": 45,
      "start": 1.4557,
      "duration": 0.2003,
      "velocity": 76,
      "chip": "ym2612"
    },
    {
      "channel": 2,
      "note": 54,
      "start": 1.5027,
      "duration": 0.2999,
      "velocity": 90,
      "chip": "ym2612"
    },
    {
      "channel": 1,
      "note": 66,
      "start": 1.552,
      "duration": 0.1,
      "velocity": 104,
      "chip": "ym2612"
    },
    {
      "channel": 1,
      "note": 66,
      "start": 1.652,
      "duration": 0.1,
      "velocity": 104,
      "chip": "ym2612"
    },
    {
      "channel": 3,
      "note": 81,
      "start": 1.6536,
      "duration": 0.3,
      "velocity": 91,
      "chip": "ym2612"
    },
    {
      "channel": 4,
      "note": 45,
      "start": 1.6548,
      "duration": 0.1996,
      "velocity": 80,
      "chip": "ym2612"
    },
    {
      "channel": 5,
      "note": 56,
      "start": 1.6561,
      "duration": 0.1995,
      "velocity": 76,
      "chip": "ym2612"
    },
    {
      "channel": 1,
      "note": 66,
      "start": 1.752,
      "duration": 0.1,
      "velocity": 104,
      "chip": "ym2612"
    },
    {
      "channel": 2,
      "note": 52,
      "start": 1.8027,
      "duration": 0.2833,
      "velocity": 90,
      "chip": "ym2612"
    },
    {
      "channel": 1,
      "note": 66,
      "start": 1.852,
      "duration": 0.0999,
      "velocity": 104,
      "chip": "ym2612"
    },
    {
      "channel": 4,
      "note": 56,
      "start": 1.8545,
      "duration": 0.1833,
      "velocity": 76,
      "chip": "ym2612"
    },
    {
      "channel": 5,
      "note": 45,
      "start": 1.8557,
      "duration": 0.1833,
      "velocity": 74,
      "chip": "ym2612"
    },
    {
      "channel": 1,
      "note": 66,
      "start": 1.952,
      "duration": 0.0833,
      "velocity": 104,
      "chip": "ym2612"
    },
    {
      "channel": 3,
      "note": 76,
      "start": 1.9536,
      "duration": 0.2834,
      "velocity": 91,
      "chip": "ym2612"
    },
    {
      "channel": 1,
      "note": 66,
      "start": 2.0354,
      "duration": 0.0999,
      "velocity": 104,
      "chip": "ym2612"
    },
    {
      "channel": 4,
      "note": 45,
      "start": 2.0378,
      "duration": 0.2004,
      "velocity": 72,
      "chip": "ym2612"
    },
    {
      "channel": 5,
      "note": 57,
      "start": 2.039,
      "duration": 0.2005,
      "velocity": 72,
      "chip": "ym2612"
    },
    {
      "channel": 2,
      "note": 46,
      "start": 2.0861,
      "duration": 0.2999,
      "velocity": 90,
      "chip": "ym2612"
    },
    {
      "channel": 1,
      "note": 66,
      "start": 2.1353,
      "duration": 0.1001,
      "velocity": 104,
      "chip": "ym2612"
    },
    {
      "channel": 1,
      "note": 66,
      "start": 2.2355,
      "duration": 0.0998,
      "velocity": 104,
      "chip": "ym2612"
    },
    {
      "channel": 3,
      "note": 81,
      "start": 2.2371,
      "duration": 0.2998,
      "velocity": 91,
      "chip": "ym2612"
    },
    {
      "channel": 4,
      "note": 54,
      "start": 2.2383,
      "duration": 0.1994,
      "velocity": 68,
      "chip": "ym2612"
    },
    {
      "channel": 5,
      "note": 45,
      "start": 2.2395,
      "duration": 0.1994,
      "velocity": 70,
      "chip": "ym2612"
    },
    {
      "channel": 1,
      "note": 66,
      "start": 2.3353,
      "duration": 0.1,
      "velocity": 104,
      "chip": "ym2612"
    },
    {
      "channel": 2,
      "note": 42,
      "start": 2.3861,
      "duration": 0.3,
      "velocity": 90,
      "chip": "ym2612"
    },
    {
      "channel": 1,
      "note": 66,
      "start": 2.4354,
      "duration": 0.0999,
      "velocity": 104,
      "chip": "ym2612"
    },
    {
      "channel": 4,
      "note": 45,
      "start": 2.4378,
      "duration": 0.1999,
      "velocity": 64,
      "chip": "ym2612"
    },
    {
      "channel": 5,
      "note": 56,
      "start": 2.439,
      "duration": 0.1999,
      "velocity": 68,
      "chip": "ym2612"
    },
    {
      "channel": 1,
      "note": 66,
      "start": 2.5353,
      "duration": 0.1,
      "velocity": 104,
      "chip": "ym2612"
    },
    {
      "channel": 3,
      "note": 83,
      "start": 2.5369,
      "duration": 0.3,
      "velocity": 91,
      "chip": "ym2612"
    },
    {
      "channel": 1,
      "note": 66,
      "start": 2.6354,
      "duration": 0.0999,
      "velocity": 104,
      "chip": "ym2612"
    },
    {
      "channel": 4,
      "note": 53,
      "start": 2.6378,
      "duration": 0.2003,
      "velocity": 61,
      "chip": "ym2612"
    },
    {
      "channel": 5,
      "note": 45,
      "start": 2.639,
      "duration": 0.2003,
      "velocity": 65,
      "chip": "ym2612"
    },
    {
      "channel": 2,
      "note": 49,
      "start": 2.6861,
      "duration": 0.2999,
      "velocity": 90,
      "chip": "ym2612"
    },
    {
      "channel": 1,
      "note": 66,
      "start": 2.7353,
      "duration": 0.1,
      "velocity": 104,
      "chip": "ym2612"
    },
    {
      "channel": 1,
      "note": 66,
      "start": 2.8353,
      "duration": 0.1,
      "velocity": 104,
      "chip": "ym2612"
    },
    {
      "channel": 3,
      "note": 88,
      "start": 2.8369,
      "duration": 0.3,
      "velocity": 91,
      "chip": "ym2612"
    },
    {
      "channel": 4,
      "note": 45,
      "start": 2.8382,
      "duration": 0.1995,
      "velocity": 58,
      "chip": "ym2612"
    },
    {
      "channel": 5,
      "note": 54,
      "start": 2.8394,
      "duration": 0.1995,
      "velocity": 61,
      "chip": "ym2612"
    },
    {
      "channel": 1,
      "note": 66,
      "start": 2.9353,
      "duration": 0.1,
      "velocity": 104,
      "chip": "ym2612"
    },
    {
      "channel": 2,
      "note": 48,
      "start": 2.9861,
      "duration": 0.2999,
      "velocity": 90,
      "chip": "ym2612"
    },
    {
      "channel": 1,
      "note": 66,
      "start": 3.0354,
      "duration": 0.0999,
      "velocity": 104,
      "chip": "ym2612"
    },
    {
      "channel": 4,
      "note": 54,
      "start": 3.0378,
      "duration": 0.2,
      "velocity": 57,
      "chip": "ym2612"
    },
    {
      "channel": 5,
      "note": 45,
      "start": 3.039,
      "duration": 0.1999,
      "velocity": 59,
      "chip": "ym2612"
    },
    {
      "channel": 1,
      "note": 66,
      "start": 3.1353,
      "duration": 0.1,
      "velocity": 104,
      "chip": "ym2612"
    },
    {
      "channel": 3,
      "note": 81,
      "start": 3.1369,
      "duration": 0.3,
      "velocity": 91,
      "chip": "ym2612"
    },
    {
      "channel": 1,
      "note": 66,
      "start": 3.2354,
      "duration": 0.0999,
      "velocity": 104,
      "chip": "ym2612"
    },
    {
      "channel": 4,
      "note": 45,
      "start": 3.2378,
      "duration": 0.2004,
      "velocity": 56,
      "chip": "ym2612"
    },
    {
      "channel": 5,
      "note": 53,
      "start": 3.239,
      "duration": 0.2004,
      "velocity": 57,
      "chip": "ym2612"
    },
    {
      "channel": 2,
      "note": 52,
      "start": 3.2861,
      "duration": 0.2999,
      "velocity": 90,
      "chip": "ym2612"
    },
    {
      "channel": 1,
      "note": 66,
      "start": 3.3353,
      "duration": 0.1001,
      "velocity": 104,
      "chip": "ym2612"
    },
    {
      "channel": 1,
      "note": 66,
      "start": 3.4354,
      "duration": 0.0998,
      "velocity": 104,
      "chip": "ym2612"
    },
    {
      "channel": 3,
      "note": 83,
      "start": 3.437,
      "duration": 0.2999,
      "velocity": 91,
      "chip": "ym2612"
    },
    {
      "channel": 4,
      "note": 53,
      "start": 3.4383,
      "duration": 0.1995,
      "velocity": 57,
      "chip": "ym2612"
    },
    {
      "channel": 5,
      "note": 45,
      "start": 3.4395,
      "duration": 0.1995,
      "velocity": 55,
      "chip": "ym2612"
    },
    {
      "channel": 1,
      "note": 66,
      "start": 3.5353,
      "duration": 0.1,
      "velocity": 104,
      "chip": "ym2612"
    },
    {
      "channel": 2,
      "note": 51,
      "start": 3.5861,
      "duration": 0.2999,
      "velocity": 90,
      "chip": "ym2612"
    },
    {
      "channel": 1,
      "note": 66,
      "start": 3.6354,
      "duration": 0.0999,
      "velocity": 104,
      "chip": "ym2612"
    },
    {
      "channel": 4,
      "note": 45,
      "start": 3.6378,
      "duration": 0.1999,
      "velocity": 59,
      "chip": "ym2612"
    },
    {
      "channel": 5,
      "note": 54,
      "start": 3.639,
      "duration": 0.1999,
      "velocity": 53,
      "chip": "ym2612"
    },
    {
      "channel": 1,
      "note": 66,
      "start": 3.7353,
      "duration": 0.1,
      "velocity": 104,
      "chip": "ym2612"
    },
    {
      "channel": 3,
      "note": 76,
      "start": 3.7369,
      "duration": 0.3,
      "velocity": 91,
      "chip": "ym2612"
    },
    {
      "channel": 1,
      "note": 66,
      "start": 3.8354,
      "duration": 0.0999,
      "velocity": 104,
      "chip": "ym2612"
    },
    {
      "channel": 4,
      "note": 54,
      "start": 3.8378,
      "duration": 0.2002,
      "velocity": 61,
      "chip": "ym2612"
    },
    {
      "channel": 5,
      "note": 45,
      "start": 3.839,
      "duration": 0.2002,
      "velocity": 53,
      "chip": "ym2612"
    },
    {
      "channel": 2,
      "note": 54,
      "start": 3.8861,
      "duration": 0.2833,
      "velocity": 90,
      "chip": "ym2612"
    },
    {
      "channel": 1,
      "note": 66,
      "start": 3.9353,
      "duration": 0.1,
      "velocity": 104,
      "chip": "ym2612"
    },
    {
      "channel": 1,
      "note": 66,
      "start": 4.0353,
      "duration": 0.0833,
      "velocity": 104,
      "chip": "ym2612"
    },
    {
      "channel": 3,
      "note": 78,
      "start": 4.0369,
      "duration": 0.2833,
      "velocity": 91,
      "chip": "ym2612"
    },
    {
      "channel": 4,
      "note": 45,
      "start": 4.0382,
      "duration": 0.1829,
      "velocity": 65,
      "chip": "ym2612"
    },
    {
      "channel": 5,
      "note": 53,
      "start": 4.0394,
      "duration": 0.1829,
      "velocity": 54,
      "chip": "ym2612"
    },
    {
      "channel": 1,
      "note": 66,
      "start": 4.1186,
      "duration": 0.1,
      "velocity": 104,
      "chip": "ym2612"
    },
    {
      "channel": 2,
      "note": 52,
      "start": 4.1694,
      "duration": 0.2999,
      "velocity": 90,
      "chip": "ym2612"
    },
    {
      "channel": 1,
      "note": 66,
      "start": 4.2187,
      "duration": 0.0999,
      "velocity": 104,
      "chip": "ym2612"
    },
    {
      "channel": 4,
      "note": 56,
      "start": 4.2211,
      "duration": 0.2,
      "velocity": 69,
      "chip": "ym2612"
    },
    {
      "channel": 5,
      "note": 45,
      "start": 4.2224,
      "duration": 0.1999,
      "velocity": 55,
      "chip": "ym2612"
    },
    {
      "channel": 1,
      "note": 66,
      "start": 4.3186,
      "duration": 0.1,
      "velocity": 104,
      "chip": "ym2612"
    },
    {
      "channel": 3,
      "note": 71,
      "start": 4.3203,
      "duration": 0.3005,
      "velocity": 91,
      "chip": "ym2612"
    },
    {
      "channel": 1,
      "note": 66,
      "start": 4.4187,
      "duration": 0.0999,
      "velocity": 104,
      "chip": "ym2612"
    },
    {
      "channel": 4,
      "note": 45,
      "start": 4.4212,
      "duration": 0.2007,
      "velocity": 73,
      "chip": "ym2612"
    },
    {
      "channel": 5,
      "note": 54,
      "start": 4.4224,
      "duration": 0.2008,
      "velocity": 57,
      "chip": "ym2612"
    },
    {
      "channel": 2,
      "note": 46,
      "start": 4.4694,
      "duration": 0.2999,
      "velocity": 90,
      "chip": "ym2612"
    },
    {
      "channel": 1,
      "note": 66,
      "start": 4.5186,
      "duration": 0.1005,
      "velocity": 104,
      "chip": "ym2612"
    },
    {
      "channel": 1,
      "note": 66,
      "start": 4.6191,
      "duration": 0.0995,
      "velocity": 104,
      "chip": "ym2612"
    },
    {
      "channel": 3,
      "note": 69,
      "start": 4.6207,
      "duration": 0.2995,
      "velocity": 91,
      "chip": "ym2612"
    },
    {
      "channel": 4,
      "note": 57,
      "start": 4.622,
      "duration": 0.1991,
      "velocity": 78,
      "chip": "ym2612"
    },
    {
      "channel": 5,
      "note": 45,
      "start": 4.6232,
      "duration": 0.1991,
      "velocity": 59,
      "chip": "ym2612"
    },
    {
      "channel": 1,
      "note": 66,
      "start": 4.7186,
      "duration": 0.1,
      "velocity": 104,
      "chip": "ym2612"
    },
    {
      "channel": 2,
      "note": 42,
      "start": 4.7694,
      "duration": 0.3,
      "velocity": 90,
      "chip": "ym2612"
    },
    {
      "channel": 1,
      "note": 66,
      "start": 4.8187,
      "duration": 0.0999,
      "velocity": 104,
      "chip": "ym2612"
    },
    {
      "channel": 4,
      "note": 45,
      "start": 4.8212,
      "duration": 0.1999,
      "velocity": 81,
      "chip": "ym2612"
    },
    {
      "channel": 5,
      "note": 56,
      "start": 4.8224,
      "duration": 0.1999,
      "velocity": 63,
      "chip": "ym2612"
    },
    {
      "channel": 1,
      "note": 66,
      "start": 4.9186,
      "duration": 0.1,
      "velocity": 104,
      "chip": "ym2612"
    },
    {
      "channel": 3,
      "note": 71,
      "start": 4.9203,
      "duration": 0.3,
      "velocity": 91,
      "chip": "ym2612"
    },
    {
      "channel": 1,
      "note": 66,
      "start": 5.0187,
      "duration": 0.0999,
      "velocity": 104,
      "chip": "ym2612"
    },
    {
      "channel": 4,
      "note": 56,
      "start": 5.0212,
      "duration": 0.2003,
      "velocity": 84,
      "chip": "ym2612"
    },
    {
      "channel": 5,
      "note": 45,
      "start": 5.0224,
      "duration": 0.2003,
      "velocity": 65,
      "chip": "ym2612"
    },
    {
      "channel": 2,
      "note": 49,
      "start": 5.0694,
      "duration": 0.2999,
      "velocity": 90,
      "chip": "ym2612"
    },
    {
      "channel": 1,
      "note": 66,
      "start": 5.1186,
      "duration": 0.1,
      "velocity": 104,
      "chip": "ym2612"
    },
    {
      "channel": 1,
      "note": 66,
      "start": 5.2186,
      "duration": 0.1,
      "velocity": 104,
      "chip": "ym2612"
    },
    {
      "channel": 3,
      "note": 76,
      "start": 5.2203,
      "duration": 0.3,
      "velocity": 91,
      "chip": "ym2612"
    },
    {
      "channel": 4,
      "note": 45,
      "start": 5.2216,
      "duration": 0.1995,
      "velocity": 86,
      "chip": "ym2612"
    },
    {
      "channel": 5,
      "note": 57,
      "start": 5.2228,
      "duration": 0.1995,
      "velocity": 69,
      "chip": "ym2612"
    },
    {
      "channel": 1,
      "note": 66,
      "start": 5.3186,
      "duration": 0.1,
      "velocity": 104,
      "chip": "ym2612"
    },
    {
      "channel": 2,
      "note": 48,
      "start": 5.3694,
      "duration": 0.2999,
      "velocity": 90,
      "chip": "ym2612"
    },
    {
      "channel": 1,
      "note": 66,
      "start": 5.4187,
      "duration": 0.0999,
      "velocity": 104,
      "chip": "ym2612"
    },
    {
      "channel": 4,
      "note": 54,
      "start": 5.4211,
      "duration": 0.2,
      "velocity": 88,
      "chip": "ym2612"
    },
    {
      "channel": 5,
      "note": 45,
      "start": 5.4224,
      "duration": 0.1999,
      "velocity": 71,
      "chip": "ym2612"
    },
    {
      "channel": 1,
      "note": 66,
      "start": 5.5186,
      "duration": 0.1,
      "velocity": 104,
      "chip": "ym2612"
    },
    {
      "channel": 3,
      "note": 69,
      "start": 5.5203,
      "duration": 0.3,
      "velocity": 91,
      "chip": "ym2612"
    },
    {
      "channel": 1,
      "note": 66,
      "start": 5.6187,
      "duration": 0.0999,
      "velocity": 104,
      "chip": "ym2612"
    },
    {
      "channel": 4,
      "note": 45,
      "start": 5.6212,
      "duration": 0.2004,
      "velocity": 89,
      "chip": "ym2612"
    },
    {
      "channel": 5,
      "note": 56,
      "start": 5.6224,
      "duration": 0.2004,
      "velocity": 73,
      "chip": "ym2612"
    },
    {
      "channel": 2,
      "note": 52,
      "start": 5.6694,
      "duration": 0.2999,
      "velocity": 90,
      "chip": "ym2612"
    },
    {
      "channel": 1,
      "note": 66,
      "start": 5.7186,
      "duration": 0.1001,
      "velocity": 104,
      "chip": "ym2612"
    },
    {
      "channel": 1,
      "note": 66,
      "start": 5.8188,
      "duration": 0.0998,
      "velocity": 104,
      "chip": "ym2612"
    },
    {
      "channel": 3,
      "note": 71,
      "start": 5.8203,
      "duration": 0.2999,
      "velocity": 91,
      "chip": "ym2612"
    },
    {
      "channel": 4,
      "note": 53,
      "start": 5.8216,
      "duration": 0.1995,
      "velocity": 88,
      "chip": "ym2612"
    },
    {
      "channel": 5,
      "note": 45,
      "start": 5.8228,
      "duration": 0.1995,
      "velocity": 74,
      "chip": "ym2612"
    },
    {
      "channel": 1,
      "note": 66,
      "start": 5.9186,
      "duration": 0.1,
      "velocity": 104,
      "chip": "ym2612"
    },
    {
      "channel": 2,
      "note": 51,
      "start": 5.9694,
      "duration": 0.2833,
      "velocity": 90,
      "chip": "ym2612"
    },
    {
      "channel": 1,
      "note": 66,
      "start": 6.0187,
      "duration": 0.0999,
      "velocity": 104,
      "chip": "ym2612"
    },
    {
      "channel": 4,
      "note": 45,
      "start": 6.0212,
      "duration": 0.1999,
      "velocity": 86,
      "chip": "ym2612"
    },
    {
      "channel": 5,
      "note": 54,
      "start": 6.0224,
      "duration": 0.1999,
      "velocity": 76,
      "chip": "ym2612"
    },
    {
      "channel": 1,
      "note": 66,
      "start": 6.1186,
      "duration": 0.1,
      "velocity": 104,
      "chip": "ym2612"
    },
    {
      "channel": 3,
      "note": 78,
      "start": 6.1203,
      "duration": 0.2823,
      "velocity": 91,
      "chip": "ym2612"
    },
    {
      "channel": 1,
      "note": 66,
      "start": 6.2187,
      "duration": 0.0833,
      "velocity": 104,
      "chip": "ym2612"
    },
    {
      "channel": 4,
      "note": 54,
      "start": 6.2212,
      "duration": 0.1833,
      "velocity": 83,
      "chip": "ym2612"
    },
    {
      "channel": 5,
      "note": 45,
      "start": 6.2224,
      "duration": 0.1833,
      "velocity": 76,
      "chip": "ym2612"
    },
    {
      "channel": 2,
      "note": 54,
      "start": 6.2527,
      "duration": 0.2998,
      "velocity": 90,
      "chip": "ym2612"
    },
    {
      "channel": 1,
      "note": 66,
      "start": 6.302,
      "duration": 0.1,
      "velocity": 104,
      "chip": "ym2612"
    },
    {
      "channel": 1,
      "note": 66,
      "start": 6.402,
      "duration": 0.0999,
      "velocity": 104,
      "chip": "ym2612"
    },
    {
      "channel": 4,
      "note": 45,
      "start": 6.4045,
      "duration": 0.1996,
      "velocity": 80,
      "chip": "ym2612"
    },
    {
      "channel": 5,
      "note": 53,
      "start": 6.4058,
      "duration": 0.1995,
      "velocity": 76,
      "chip": "ym2612"
    },
    {
      "channel": 1,
      "note": 66,
      "start": 6.5019,
      "duration": 0.0999,
      "velocity": 104,
      "chip": "ym2612"
    },
    {
      "channel": 2,
      "note": 52,
      "start": 6.5526,
      "duration": 0.3,
      "velocity": 90,
      "chip": "ym2612"
    },
    {
      "channel": 1,
      "note": 66,
      "start": 6.6019,
      "duration": 0.1,
      "velocity": 104,
      "chip": "ym2612"
    },
    {
      "channel": 4,
      "note": 53,
      "start": 6.6042,
      "duration": 0.2002,
      "velocity": 76,
      "chip": "ym2612"
    },
    {
      "channel": 5,
      "note": 45,
      "start": 6.6054,
      "duration": 0.2002,
      "velocity": 74,
      "chip": "ym2612"
    },
    {
      "channel": 1,
      "note": 66,
      "start": 6.702,
      "duration": 0.1,
      "velocity": 104,
      "chip": "ym2612"
    },
    {
      "channel": 3,
      "note": 71,
      "start": 6.7036,
      "duration": 0.3001,
      "velocity": 91,
      "chip": "ym2612"
    },
    {
      "channel": 1,
      "note": 66,
      "start": 6.802,
      "duration": 0.0999,
      "velocity": 104,
      "chip": "ym2612"
    },
    {
      "channel": 4,
      "note": 45,
      "start": 6.8045,
      "duration": 0.2004,
      "velocity": 72,
      "chip": "ym2612"
    },
    {
      "channel": 5,
      "note": 54,
      "start": 6.8057,
      "duration": 0.2005,
      "velocity": 72,
      "chip": "ym2612"
    },
    {
      "channel": 2,
      "note": 46,
      "start": 6.8527,
      "duration": 0.3,
      "velocity": 90,
      "chip": "ym2612"
    },
    {
      "channel": 1,
      "note": 66,
      "start": 6.902,
      "duration": 0.1001,
      "velocity": 104,
      "chip": "ym2612"
    },
    {
      "channel": 1,
      "note": 66,
      "start": 7.0022,
      "duration": 0.0998,
      "velocity": 104,
      "chip": "ym2612"
    },
    {
      "channel": 3,
      "note": 69,
      "start": 7.0037,
      "duration": 0.2998,
      "velocity": 91,
      "chip": "ym2612"
    },
    {
      "channel": 4,
      "note": 54,
      "start": 7.005,
      "duration": 0.1994,
      "velocity": 68,
      "chip": "ym2612"
    },
    {
      "channel": 5,
      "note": 45,
      "start": 7.0062,
      "duration": 0.1994,
      "velocity": 70,
      "chip": "ym2612"
    },
    {
      "channel": 1,
      "note": 66,
      "start": 7.102,
      "duration": 0.1,
      "velocity": 104,
      "chip": "ym2612"
    },
    {
      "channel": 2,
      "note": 42,
      "start": 7.1527,
      "duration": 0.2999,
      "velocity": 90,
      "chip": "ym2612"
    },
    {
      "channel": 1,
      "note": 66,
      "start": 7.202,
      "duration": 0.0999,
      "velocity": 104,
      "chip": "ym2612"
    },
    {
      "channel": 4,
      "note": 45,
      "start": 7.2045,
      "duration": 0.1999,
      "velocity": 64,
      "chip": "ym2612"
    },
    {
      "channel": 5,
      "note": 53,
      "start": 7.2057,
      "duration": 0.1999,
      "velocity": 68,
      "chip": "ym2612"
    },
    {
      "channel": 1,
      "note": 66,
      "start": 7.302,
      "duration": 0.1,
      "velocity": 104,
      "chip": "ym2612"
    },
    {
      "channel": 3,
      "note": 71,
      "start": 7.3036,
      "duration": 0.3,
      "velocity": 91,
      "chip": "ym2612"
    },
    {
      "channel": 1,
      "note": 66,
      "start": 7.402,
      "duration": 0.0999,
      "velocity": 104,
      "chip": "ym2612"
    },
    {
      "channel": 4,
      "note": 56,
      "start": 7.4045,
      "duration": 0.2003,
      "velocity": 61,
      "chip": "ym2612"
    },
    {
      "channel": 5,
      "note": 45,
      "start": 7.4057,
      "duration": 0.2003,
      "velocity": 65,
      "chip": "ym2612"
    },
    {
      "channel": 2,
      "note": 49,
      "start": 7.4527,
      "duration": 0.2999,
      "velocity": 90,
      "chip": "ym2612"
    },
    {
      "channel": 1,
      "note": 66,
      "start": 7.502,
      "duration": 0.1,
      "velocity": 104,
      "chip": "ym2612"
    },
    {
      "channel": 1,
      "note": 66,
      "start": 7.602,
      "duration": 0.1,
      "velocity": 104,
      "chip": "ym2612"
    },
    {
      "channel": 3,
      "note": 76,
      "start": 7.6036,
      "duration": 0.3,
      "velocity": 91,
      "chip": "ym2612"
    },
    {
      "channel": 4,
      "note": 45,
      "start": 7.6049,
      "duration": 0.1995,
      "velocity": 58,
      "chip": "ym2612"
    },
    {
      "channel": 5,
      "note": 54,
      "start": 7.6061,
      "duration": 0.1995,
      "velocity": 61,
      "chip": "ym2612"
    },
    {
      "channel": 1,
      "note": 66,
      "start": 7.702,
      "duration": 0.1,
      "velocity": 104,
      "chip": "ym2612"
    },
    {
      "channel": 2,
      "note": 48,
      "start": 7.7527,
      "duration": 0.2999,
      "velocity": 90,
      "chip": "ym2612"
    },
    {
      "channel": 1,
      "note": 66,
      "start": 7.802,
      "duration": 0.0999,
      "velocity": 104,
      "chip": "ym2612"
    },
    {
      "channel": 4,
      "note": 57,
      "start": 7.8044,
      "duration": 0.2,
      "velocity": 57,
      "chip": "ym2612"
    },
    {
      "channel": 5,
      "note": 45,
      "start": 7.8057,
      "duration": 0.1999,
      "velocity": 59,
      "chip": "ym2612"
    },
    {
      "channel": 1,
      "note": 66,
      "start": 7.902,
      "duration": 0.1,
      "velocity": 104,
      "chip": "ym2612"
    },
    {
      "channel": 3,
      "note": 69,
      "start": 7.9036,
      "duration": 0.3,
      "velocity": 91,
      "chip": "ym2612"
    },
    {
      "channel": 1,
      "note": 66,
      "start": 8.002,
      "duration": 0.0999,
      "velocity": 104,
      "chip": "ym2612"
    },
    {
      "channel": 4,
      "note": 45,
      "start": 8.0045,
      "duration": 0.2004,
      "velocity": 56,
      "chip": "ym2612"
    },
    {
      "channel": 5,
      "note": 56,
      "start": 8.0057,
      "duration": 0.2004,
      "velocity": 57,
      "chip": "ym2612"
    },
    {
      "channel": 2,
      "note": 52,
      "start": 8.0527,
      "duration": 0.2999,
      "velocity": 90,
      "chip": "ym2612"
    },
    {
      "channel": 1,
      "note": 66,
      "start": 8.102,
      "duration": 0.1001,
      "velocity": 104,
      "chip": "ym2612"
    },
    {
      "channel": 1,
      "note": 66,
      "start": 8.2021,
      "duration": 0.0998,
      "velocity": 104,
      "chip": "ym2612"
    },
    {
      "channel": 3,
      "note": 71,
      "start": 8.2037,
      "duration": 0.2832,
      "velocity": 91,
      "chip": "ym2612"
    },
    {
      "channel": 4,
      "note": 56,
      "start": 8.2049,
      "duration": 0.1828,
      "velocity": 57,
      "chip": "ym2612"
    },
    {
      "channel": 5,
      "note": 45,
      "start": 8.2062,
      "duration": 0.1828,
      "velocity": 55,
      "chip": "ym2612"
    },
    {
      "channel": 1,
      "note": 66,
      "start": 8.302,
      "duration": 0.0833,
      "velocity": 104,
      "chip": "ym2612"
    },
    {
      "channel": 2,
      "note": 51,
      "start": 8.3527,
      "duration": 0.2833,
      "velocity": 90,
      "chip": "ym2612"
    },
    {
      "channel": 1,
      "note": 66,
      "start": 8.3854,
      "duration": 0.0999,
      "velocity": 104,
      "chip": "ym2612"
    },
    {
      "channel": 4,
      "note": 45,
      "start": 8.3878,
      "duration": 0.1999,
      "velocity": 59,
      "chip": "ym2612"
    },
    {
      "channel": 5,
      "note": 57,
      "start": 8.389,
      "duration": 0.1999,
      "velocity": 53,
      "chip": "ym2612"
    },
    {
      "channel": 1,
      "note": 66,
      "start": 8.4853,
      "duration": 0.1,
      "velocity": 104,
      "chip": "ym2612"
    },
    {
      "channel": 3,
      "note": 78,
      "start": 8.4869,
      "duration": 0.3,
      "velocity": 91,
      "chip": "ym2612"
    },
    {
      "channel": 1,
      "note": 66,
      "start": 8.5854,
      "duration": 0.0999,
      "velocity": 104,
      "chip": "ym2612"
    },
    {
      "channel": 4,
      "note": 54,
      "start": 8.5878,
      "duration": 0.2002,
      "velocity": 61,
      "chip": "ym2612"
    },
    {
      "channel": 5,
      "note": 45,
      "start": 8.589,
      "duration": 0.2002,
      "velocity": 53,
      "chip": "ym2612"
    },
    {
      "channel": 2,
      "note": 54,
      "start": 8.6361,
      "duration": 0.2999,
      "velocity": 90,
      "chip": "ym2612"
    },
    {
      "channel": 1,
      "note": 66,
      "start": 8.6853,
      "duration": 0.1,
      "velocity": 104,
      "chip": "ym2612"
    },
    {
      "channel": 1,
      "note": 66,
      "start": 8.7853,
      "duration": 0.1,
      "velocity": 104,
      "chip": "ym2612"
    },
    {
      "channel": 3,
      "note": 83,
      "start": 8.7869,
      "duration": 0.3,
      "velocity": 91,
      "chip": "ym2612"
    },
    {
      "channel": 4,
      "note": 45,
      "start": 8.7882,
      "duration": 0.1996,
      "velocity": 65,
      "chip": "ym2612"
    },
    {
      "channel": 5,
      "note": 56,
      "start": 8.7894,
      "duration": 0.1996,
      "velocity": 54,
      "chip": "ym2612"
    },
    {
      "channel": 1,
      "note": 66,
      "start": 8.8853,
      "duration": 0.1,
      "velocity": 104,
      "chip": "ym2612"
    },
    {
      "channel": 2,
      "note": 52,
      "start": 8.9361,
      "duration": 0.2999,
      "velocity": 90,
      "chip": "ym2612"
    },
    {
      "channel": 1,
      "note": 66,
      "start": 8.9854,
      "duration": 0.0999,
      "velocity": 104,
      "chip": "ym2612"
    },
    {
      "channel": 4,
      "note": 53,
      "start": 8.9878,
      "duration": 0.2,
      "velocity": 69,
      "chip": "ym2612"
    },
    {
      "channel": 5,
      "note": 45,
      "start": 8.989,
      "duration": 0.1999,
      "velocity": 55,
      "chip": "ym2612"
    },
    {
      "channel": 1,
      "note": 66,
      "start": 9.0853,
      "duration": 0.1,
      "velocity": 104,
      "chip": "ym2612"
    },
    {
      "channel": 3,
      "note": 78,
      "start": 9.0869,
      "duration": 0.3006,
      "velocity": 91,
      "chip": "ym2612"
    },
    {
      "channel": 1,
      "note": 66,
      "start": 9.1854,
      "duration": 0.0999,
      "velocity": 104,
      "chip": "ym2612"
    },
    {
      "channel": 4,
      "note": 45,
      "start": 9.1878,
      "duration": 0.2009,
      "velocity": 73,
      "chip": "ym2612"
    },
    {
      "channel": 5,
      "note": 54,
      "start": 9.189,
      "duration": 0.201,
      "velocity": 57,
      "chip": "ym2612"
    },
    {
      "channel": 2,
      "note": 46,
      "start": 9.2361,
      "duration": 0.2999,
      "velocity": 90,
      "chip": "ym2612"
    },
    {
      "channel": 1,
      "note": 66,
      "start": 9.2853,
      "duration": 0.1006,
      "velocity": 104,
      "chip": "ym2612"
    },
    {
      "channel": 1,
      "note": 66,
      "start": 9.3859,
      "duration": 0.0993,
      "velocity": 104,
      "chip": "ym2612"
    },
    {
      "channel": 3,
      "note": 85,
      "start": 9.3876,
      "duration": 0.1495,
      "velocity": 91,
      "chip": "ym2612"
    },
    {
      "channel": 4,
      "note": 54,
      "start": 9.3888,
      "duration": 0.199,
      "velocity": 78,
      "chip": "ym2612"
    },
    {
      "channel": 5,
      "note": 45,
      "start": 9.3901,
      "duration": 0.199,
      "velocity": 59,
      "chip": "ym2612"
    },
    {
      "channel": 1,
      "note": 66,
      "start": 9.4853,
      "duration": 0.1,
      "velocity": 104,
      "chip": "ym2612"
    },
    {
      "channel": 2,
      "note": 42,
      "start": 9.5361,
      "duration": 0.2999,
      "velocity": 90,
      "chip": "ym2612"
    },
    {
      "channel": 3,
      "note": 83,
      "start": 9.5371,
      "duration": 0.1498,
      "velocity": 91,
      "chip": "ym2612"
    },
    {
      "channel": 1,
      "note": 66,
      "start": 9.5854,
      "duration": 0.0999,
      "velocity": 104,
      "chip": "ym2612"
    },
    {
      "channel": 4,
      "note": 45,
      "start": 9.5878,
      "duration": 0.1999,
      "velocity": 81,
      "chip": "ym2612"
    },
    {
      "channel": 5,
      "note": 53,
      "start": 9.5891,
      "duration": 0.1999,
      "velocity": 63,
      "chip": "ym2612"
    },
    {
      "channel": 1,
      "note": 66,
      "start": 9.6853,
      "duration": 0.1,
      "velocity": 104,
      "chip": "ym2612"
    },
    {
      "channel": 3,
      "note": 81,
      "start": 9.6869,
      "duration": 0.1502,
      "velocity": 91,
      "chip": "ym2612"
    },
    {
      "channel": 1,
      "note": 66,
      "start": 9.7854,
      "duration": 0.0999,
      "velocity": 104,
      "chip": "ym2612"
    },
    {
      "channel": 4,
      "note": 53,
      "start": 9.7878,
      "duration": 0.2,
      "velocity": 84,
      "chip": "ym2612"
    },
    {
      "channel": 5,
      "note": 45,
      "start": 9.789,
      "duration": 0.2001,
      "velocity": 65,
      "chip": "ym2612"
    },
    {
      "channel": 2,
      "note": 49,
      "start": 9.8361,
      "duration": 0.2999,
      "velocity": 90,
      "chip": "ym2612"
    },
    {
      "channel": 3,
      "note": 76,
      "start": 9.8372,
      "duration": 0.2999,
      "velocity": 91,
      "chip": "ym2612"
    },
    {
      "channel": 1,
      "note": 66,
      "start": 9.8853,
      "duration": 0.1001,
      "velocity": 104,
      "chip": "ym2612"
    },
    {
      "channel": 1,
      "note": 66,
      "start": 9.9855,
      "duration": 0.0998,
      "velocity": 104,
      "chip": "ym2612"
    },
    {
      "channel": 4,
      "note": 45,
      "start": 9.988,
      "duration": 0.1998,
      "velocity": 86,
      "chip": "ym2612"
    },
    {
      "channel": 5,
      "note": 54,
      "start": 9.9892,
      "duration": 0.1998,
      "velocity": 69,
      "chip": "ym2612"
    },
    {
      "channel": 1,
      "note": 66,
      "start": 10.0853,
      "duration": 0.1,
      "velocity": 104,
      "chip": "ym2612"
    },
    {
      "channel": 2,
      "note": 48,
      "start": 10.1361,
      "duration": 0.2999,
      "velocity": 90,
      "chip": "ym2612"
    },
    {
      "channel": 3,
      "note": 78,
      "start": 10.1371,
      "duration": 0.1498,
      "velocity": 91,
      "chip": "ym2612"
    },
    {
      "channel": 1,
      "note": 66,
      "start": 10.1854,
      "duration": 0.0999,
      "velocity": 104,
      "chip": "ym2612"
    },
    {
      "channel": 4,
      "note": 54,
      "start": 10.1878,
      "duration": 0.2,
      "velocity": 88,
      "chip": "ym2612"
    },
    {
      "channel": 5,
      "note": 45,
      "start": 10.189,
      "duration": 0.2,
      "velocity": 71,
      "chip": "ym2612"
    },
    {
      "channel": 1,
      "note": 66,
      "start": 10.2853,
      "duration": 0.1,
      "velocity": 104,
      "chip": "ym2612"
    },
    {
      "channel": 3,
      "note": 85,
      "start": 10.2869,
      "duration": 0.1501,
      "velocity": 91,
      "chip": "ym2612"
    },
    {
      "channel": 1,
      "note": 66,
      "start": 10.3854,
      "duration": 0.0999,
      "velocity": 104,
      "chip": "ym2612"
    },
    {
      "channel": 4,
      "note": 45,
      "start": 10.3879,
      "duration": 0.1837,
      "velocity": 89,
      "chip": "ym2612"
    },
    {
      "channel": 5,
      "note": 53,
      "start": 10.3891,
      "duration": 0.1837,
      "velocity": 73,
      "chip": "ym2612"
    },
    {
      "channel": 2,
      "note": 52,
      "start": 10.4361,
      "duration": 0.2833,
      "velocity": 90,
      "chip": "ym2612"
    },
    {
      "channel": 3,
      "note": 83,
      "start": 10.4371,
      "duration": 0.1331,
      "velocity": 91,
      "chip": "ym2612"
    },
    {
      "channel": 1,
      "note": 66,
      "start": 10.4853,
      "duration": 0.0834,
      "velocity": 104,
      "chip": "ym2612"
    },
    {
      "channel": 1,
      "note": 66,
      "start": 10.5688,
      "duration": 0.0998,
      "velocity": 104,
      "chip": "ym2612"
    },
    {
      "channel": 3,
      "note": 81,
      "start": 10.5703,
      "duration": 0.1501,
      "velocity": 91,
      "chip": "ym2612"
    },
    {
      "channel": 4,
      "note": 56,
      "start": 10.5716,
      "duration": 0.1995,
      "velocity": 88,
      "chip": "ym2612"
    },
    {
      "channel": 5,
      "note": 45,
      "start": 10.5728,
      "duration": 0.1995,
      "velocity": 74,
      "chip": "ym2612"
    },
    {
      "channel": 1,
      "note": 66,
      "start": 10.6686,
      "duration": 0.1,
      "velocity": 104,
      "chip": "ym2612"
    },
    {
      "channel": 2,
      "note": 51,
      "start": 10.7194,
      "duration": 0.2999,
      "velocity": 90,
      "chip": "ym2612"
    },
    {
      "channel": 3,
      "note": 76,
      "start": 10.7205,
      "duration": 0.2999,
      "velocity": 91,
      "chip": "ym2612"
    },
    {
      "channel": 1,
      "note": 66,
      "start": 10.7687,
      "duration": 0.0999,
      "velocity": 104,
      "chip": "ym2612"
    },
    {
      "channel": 4,
      "note": 45,
      "start": 10.7712,
      "duration": 0.1999,
      "velocity": 86,
      "chip": "ym2612"
    },
    {
      "channel": 5,
      "note": 54,
      "start": 10.7724,
      "duration": 0.1999,
      "velocity": 76,
      "chip": "ym2612"
    },
    {
      "channel": 1,
      "note": 66,
      "start": 10.8686,
      "duration": 0.1,
      "velocity": 104,
      "chip": "ym2612"
    },
    {
      "channel": 1,
      "note": 66,
      "start": 10.9687,
      "duration": 0.0999,
      "velocity": 104,
      "chip": "ym2612"
    },
    {
      "channel": 4,
      "note": 57,
      "start": 10.9712,
      "duration": 0.1999,
      "velocity": 83,
      "chip": "ym2612"
    },
    {
      "channel": 5,
      "note": 45,
      "start": 10.9724,
      "duration": 0.1999,
      "velocity": 76,
      "chip": "ym2612"
    },
    {
      "channel": 2,
      "note": 54,
      "start": 11.0194,
      "duration": 0.2999,
      "velocity": 90,
      "chip": "ym2612"
    },
    {
      "channel": 3,
      "note": 78,
      "start": 11.0205,
      "duration": 0.2999,
      "velocity": 91,
      "chip": "ym2612"
    },
    {
      "channel": 1,
      "note": 66,
      "start": 11.0686,
      "duration": 0.1,
      "velocity": 104,
      "chip": "ym2612"
    },
    {
      "channel": 1,
      "note": 66,
      "start": 11.1686,
      "duration": 0.1,
      "velocity": 104,
      "chip": "ym2612"
    },
    {
      "channel": 4,
      "note": 45,
      "start": 11.1711,
      "duration": 0.2,
      "velocity": 80,
      "chip": "ym2612"
    },
    {
      "channel": 5,
      "note": 56,
      "start": 11.1724,
      "duration": 0.1999,
      "velocity": 76,
      "chip": "ym2612"
    },
    {
      "channel": 1,
      "note": 66,
      "start": 11.2686,
      "duration": 0.1,
      "velocity": 104,
      "chip": "ym2612"
    },
    {
      "channel": 2,
      "note": 52,
      "start": 11.3194,
      "duration": 0.3,
      "velocity": 90,
      "chip": "ym2612"
    },
    {
      "channel": 3,
      "note": 71,
      "start": 11.3205,
      "duration": 0.1498,
      "velocity": 91,
      "chip": "ym2612"
    },
    {
      "channel": 1,
      "note": 66,
      "start": 11.3687,
      "duration": 0.0999,
      "velocity": 104,
      "chip": "ym2612"
    },
    {
      "channel": 4,
      "note": 56,
      "start": 11.3711,
      "duration": 0.2,
      "velocity": 76,
      "chip": "ym2612"
    },
    {
      "channel": 5,
      "note": 45,
      "start": 11.3724,
      "duration": 0.2,
      "velocity": 74,
      "chip": "ym2612"
    },
    {
      "channel": 1,
      "note": 66,
      "start": 11.4686,
      "duration": 0.1,
      "velocity": 104,
      "chip": "ym2612"
    },
    {
      "channel": 3,
      "note": 76,
      "start": 11.4703,
      "duration": 0.3002,
      "velocity": 91,
      "chip": "ym2612"
    },
    {
      "channel": 1,
      "note": 66,
      "start": 11.5687,
      "duration": 0.0999,
      "velocity": 104,
      "chip": "ym2612"
    },
    {
      "channel": 4,
      "note": 45,
      "start": 11.5712,
      "duration": 0.2005,
      "velocity": 72,
      "chip": "ym2612"
    },
    {
      "channel": 5,
      "note": 57,
      "start": 11.5724,
      "duration": 0.2005,
      "velocity": 72,
      "chip": "ym2612"
    },
    {
      "channel": 2,
      "note": 46,
      "start": 11.6194,
      "duration": 0.3001,
      "velocity": 90,
      "chip": "ym2612"
    },
    {
      "channel": 1,
      "note": 66,
      "start": 11.6686,
      "duration": 0.1002,
      "velocity": 104,
      "chip": "ym2612"
    },
    {
      "channel": 1,
      "note": 66,
      "start": 11.7689,
      "duration": 0.0997,
      "velocity": 104,
      "chip": "ym2612"
    },
    {
      "channel": 3,
      "note": 69,
      "start": 11.7705,
      "duration": 0.15,
      "velocity": 91,
      "chip": "ym2612"
    },
    {
      "channel": 4,
      "note": 54,
      "start": 11.7717,
      "duration": 0.1994,
      "velocity": 68,
      "chip": "ym2612"
    },
    {
      "channel": 5,
      "note": 45,
      "start": 11.773,
      "duration": 0.1993,
      "velocity": 70,
      "chip": "ym2612"
    },
    {
      "channel": 1,
      "note": 66,
      "start": 11.8686,
      "duration": 0.1,
      "velocity": 104,
      "chip": "ym2612"
    },
    {
      "channel": 2,
      "note": 42,
      "start": 11.9195,
      "duration": 0.2999,
      "velocity": 90,
      "chip": "ym2612"
    },
    {
      "channel": 3,
      "note": 64,
      "start": 11.9206,
      "duration": 0.1496,
      "velocity": 91,
      "chip": "ym2612"
    },
    {
      "channel": 1,
      "note": 66,
      "start": 11.9687,
      "duration": 0.0999,
      "velocity": 104,
      "chip": "ym2612"
    },
    {
      "channel": 4,
      "note": 45,
      "start": 11.9711,
      "duration": 0.2,
      "velocity": 64,
      "chip": "ym2612"
    },
    {
      "channel": 5,
      "note": 56,
      "start": 11.9724,
      "duration": 0.1999,
      "velocity": 68,
      "chip": "ym2612"
    },
    {
      "channel": 1,
      "note": 66,
      "start": 12.0686,
      "duration": 0.1,
      "velocity": 104,
      "chip": "ym2612"
    },
    {
      "channel": 3,
      "note": 66,
      "start": 12.0703,
      "duration": 0.1502,
      "velocity": 91,
      "chip": "ym2612"
    },
    {
      "channel": 1,
      "note": 66,
      "start": 12.1687,
      "duration": 0.0999,
      "velocity": 104,
      "chip": "ym2612"
    },
    {
      "channel": 4,
      "note": 53,
      "start": 12.1712,
      "duration": 0.2003,
      "velocity": 61,
      "chip": "ym2612"
    },
    {
      "channel": 5,
      "note": 45,
      "start": 12.1724,
      "duration": 0.2003,
      "velocity": 65,
      "chip": "ym2612"
    },
    {
      "channel": 2,
      "note": 49,
      "start": 12.2195,
      "duration": 0.2999,
      "velocity": 90,
      "chip": "ym2612"
    },
    {
      "channel": 3,
      "note": 71,
      "start": 12.2205,
      "duration": 0.1497,
      "velocity": 91,
      "chip": "ym2612"
    },
    {
      "channel": 1,
      "note": 66,
      "start": 12.2686,
      "duration": 0.1,
      "velocity": 104,
      "chip": "ym2612"
    },
    {
      "channel": 1,
      "note": 66,
      "start": 12.3686,
      "duration": 0.1,
      "velocity": 104,
      "chip": "ym2612"
    },
    {
      "channel": 3,
      "note": 76,
      "start": 12.3703,
      "duration": 0.1501,
      "velocity": 91,
      "chip": "ym2612"
    },
    {
      "channel": 4,
      "note": 45,
      "start": 12.3716,
      "duration": 0.1995,
      "velocity": 58,
      "chip": "ym2612"
    },
    {
      "channel": 5,
      "note": 54,
      "start": 12.3728,
      "duration": 0.1995,
      "velocity": 61,
      "chip": "ym2612"
    },
    {
      "channel": 1,
      "note": 66,
      "start": 12.4686,
      "duration": 0.1,
      "velocity": 104,
      "chip": "ym2612"
    },
    {
      "channel": 2,
      "note": 48,
      "start": 12.5194,
      "duration": 0.2832,
      "velocity": 90,
      "chip": "ym2612"
    },
    {
      "channel": 3,
      "note": 78,
      "start": 12.5205,
      "duration": 0.2833,
      "velocity": 91,
      "chip": "ym2612"
    },
    {
      "channel": 1,
      "note": 66,
      "start": 12.5687,
      "duration": 0.0833,
      "velocity": 104,
      "chip": "ym2612"
    },
    {
      "channel": 4,
      "note": 54,
      "start": 12.5711,
      "duration": 0.1833,
      "velocity": 57,
      "chip": "ym2612"
    },
    {
      "channel": 5,
      "note": 45,
      "start": 12.5724,
      "duration": 0.1833,
      "velocity": 59,
      "chip": "ym2612"
    },
    {
      "channel": 1,
      "note": 66,
      "start": 12.652,
      "duration": 0.1,
      "velocity": 104,
      "chip": "ym2612"
    },
    {
      "channel": 1,
      "note": 66,
      "start": 12.752,
      "duration": 0.0999,
      "velocity": 104,
      "chip": "ym2612"
    },
    {
      "channel": 4,
      "note": 45,
      "start": 12.7545,
      "duration": 0.2,
      "velocity": 56,
      "chip": "ym2612"
    },
    {
      "channel": 5,
      "note": 53,
      "start": 12.7557,
      "duration": 0.2001,
      "velocity": 57,
      "chip": "ym2612"
    },
    {
      "channel": 2,
      "note": 52,
      "start": 12.8027,
      "duration": 0.3,
      "velocity": 90,
      "chip": "ym2612"
    },
    {
      "channel": 3,
      "note": 83,
      "start": 12.8038,
      "duration": 0.2999,
      "velocity": 91,
      "chip": "ym2612"
    },
    {
      "channel": 1,
      "note": 66,
      "start": 12.852,
      "duration": 0.1001,
      "velocity": 104,
      "chip": "ym2612"
    },
    {
      "channel": 1,
      "note": 66,
      "start": 12.9521,
      "duration": 0.0998,
      "velocity": 104,
      "chip": "ym2612"
    },
    {
      "channel": 4,
      "note": 53,
      "start": 12.9546,
      "duration": 0.1999,
      "velocity": 57,
      "chip": "ym2612"
    },
    {
      "channel": 5,
      "note": 45,
      "start": 12.9559,
      "duration": 0.1998,
      "velocity": 55,
      "chip": "ym2612"
    },
    {
      "channel": 1,
      "note": 66,
      "start": 13.052,
      "duration": 0.1,
      "velocity": 104,
      "chip": "ym2612"
    },
    {
      "channel": 2,
      "note": 51,
      "start": 13.1027,
      "duration": 0.3,
      "velocity": 90,
      "chip": "ym2612"
    },
    {
      "channel": 3,
      "note": 81,
      "start": 13.1038,
      "duration": 0.3,
      "velocity": 91,
      "chip": "ym2612"
    },
    {
      "channel": 1,
      "note": 66,
      "start": 13.152,
      "duration": 0.0999,
      "velocity": 104,
      "chip": "ym2612"
    },
    {
      "channel": 4,
      "note": 45,
      "start": 13.1545,
      "duration": 0.1999,
      "velocity": 59,
      "chip": "ym2612"
    },
    {
      "channel": 5,
      "note": 54,
      "start": 13.1557,
      "duration": 0.1999,
      "velocity": 53,
      "chip": "ym2612"
    },
    {
      "channel": 1,
      "note": 66,
      "start": 13.252,
      "duration": 0.1,
      "velocity": 104,
      "chip": "ym2612"
    },
    {
      "channel": 1,
      "note": 66,
      "start": 13.352,
      "duration": 0.0999,
      "velocity": 104,
      "chip": "ym2612"
    },
    {
      "channel": 4,
      "note": 54,
      "start": 13.3545,
      "duration": 0.1999,
      "velocity": 61,
      "chip": "ym2612"
    },
    {
      "channel": 5,
      "note": 45,
      "start": 13.3557,
      "duration": 0.1999,
      "velocity": 53,
      "chip": "ym2612"
    },
    {
      "channel": 2,
      "note": 54,
      "start": 13.4027,
      "duration": 0.2999,
      "velocity": 90,
      "chip": "ym2612"
    },
    {
      "channel": 3,
      "note": 88,
      "start": 13.4038,
      "duration": 0.3,
      "velocity": 91,
      "chip": "ym2612"
    },
    {
      "channel": 1,
      "note": 66,
      "start": 13.452,
      "duration": 0.1,
      "velocity": 104,
      "chip": "ym2612"
    },
    {
      "channel": 1,
      "note": 66,
      "start": 13.552,
      "duration": 0.1,
      "velocity": 104,
      "chip": "ym2612"
    },
    {
      "channel": 4,
      "note": 45,
      "start": 13.5544,
      "duration": 0.2,
      "velocity": 65,
      "chip": "ym2612"
    },
    {
      "channel": 5,
      "note": 53,
      "start": 13.5557,
      "duration": 0.1999,
      "velocity": 54,
      "chip": "ym2612"
    },
    {
      "channel": 1,
      "note": 66,
      "start": 13.652,
      "duration": 0.1,
      "velocity": 104,
      "chip": "ym2612"
    },
    {
      "channel": 2,
      "note": 52,
      "start": 13.7027,
      "duration": 0.2999,
      "velocity": 90,
      "chip": "ym2612"
    },
    {
      "channel": 3,
      "note": 81,
      "start": 13.7038,
      "duration": 0.1498,
      "velocity": 91,
      "chip": "ym2612"
    },
    {
      "channel": 1,
      "note": 66,
      "start": 13.752,
      "duration": 0.0999,
      "velocity": 104,
      "chip": "ym2612"
    },
    {
      "channel": 4,
      "note": 56,
      "start": 13.7544,
      "duration": 0.2,
      "velocity": 69,
      "chip": "ym2612"
    },
    {
      "channel": 5,
      "note": 45,
      "start": 13.7557,
      "duration": 0.1999,
      "velocity": 55,
      "chip": "ym2612"
    },
    {
      "channel": 1,
      "note": 66,
      "start": 13.852,
      "duration": 0.1,
      "velocity": 104,
      "chip": "ym2612"
    },
    {
      "channel": 3,
      "note": 83,
      "start": 13.8536,
      "duration": 0.3008,
      "velocity": 91,
      "chip": "ym2612"
    },
    {
      "channel": 1,
      "note": 66,
      "start": 13.952,
      "duration": 0.0999,
      "velocity": 104,
      "chip": "ym2612"
    },
    {
      "channel": 4,
      "note": 45,
      "start": 13.9545,
      "duration": 0.2011,
      "velocity": 73,
      "chip": "ym2612"
    },
    {
      "channel": 5,
      "note": 54,
      "start": 13.9557,
      "duration": 0.2011,
      "velocity": 57,
      "chip": "ym2612"
    },
    {
      "channel": 2,
      "note": 46,
      "start": 14.0027,
      "duration": 0.3003,
      "velocity": 90,
      "chip": "ym2612"
    },
    {
      "channel": 1,
      "note": 66,
      "start": 14.052,
      "duration": 0.1011,
      "velocity": 104,
      "chip": "ym2612"
    },
    {
      "channel": 0,
      "note": 72,
      "start": 14.1521,
      "duration": 2.6828,
      "velocity": 99,
      "chip": "ym2612"
    },
    {
      "channel": 1,
      "note": 66,
      "start": 14.153,
      "duration": 0.0992,
      "velocity": 104,
      "chip": "ym2612"
    },
    {
      "channel": 3,
      "note": 83,
      "start": 14.1544,
      "duration": 0.2995,
      "velocity": 91,
      "chip": "ym2612"
    },
    {
      "channel": 4,
      "note": 57,
      "start": 14.1557,
      "duration": 0.199,
      "velocity": 78,
      "chip": "ym2612"
    },
    {
      "channel": 5,
      "note": 45,
      "start": 14.1569,
      "duration": 0.1991,
      "velocity": 59,
      "chip": "ym2612"
    },
    {
      "channel": 1,
      "note": 66,
      "start": 14.2523,
      "duration": 0.0999,
      "velocity": 104,
      "chip": "ym2612"
    },
    {
      "channel": 2,
      "note": 42,
      "start": 14.3031,
      "duration": 0.2999,
      "velocity": 90,
      "chip": "ym2612"
    },
    {
      "channel": 1,
      "note": 66,
      "start": 14.3523,
      "duration": 0.0999,
      "velocity": 104,
      "chip": "ym2612"
    },
    {
      "channel": 4,
      "note": 45,
      "start": 14.3548,
      "duration": 0.1999,
      "velocity": 81,
      "chip": "ym2612"
    },
    {
      "channel": 5,
      "note": 56,
      "start": 14.3561,
      "duration": 0.1999,
      "velocity": 63,
      "chip": "ym2612"
    },
    {
      "channel": 1,
      "note": 66,
      "start": 14.4523,
      "duration": 0.0999,
      "velocity": 104,
      "chip": "ym2612"
    },
    {
      "channel": 3,
      "note": 85,
      "start": 14.454,
      "duration": 0.2999,
      "velocity": 91,
      "chip": "ym2612"
    },
    {
      "channel": 1,
      "note": 66,
      "start": 14.5523,
      "duration": 0.0999,
      "velocity": 104,
      "chip": "ym2612"
    },
    {
      "channel": 4,
      "note": 56,
      "start": 14.5548,
      "duration": 0.2003,
      "velocity": 84,
      "chip": "ym2612"
    },
    {
      "channel": 5,
      "note": 45,
      "start": 14.5561,
      "duration": 0.2002,
      "velocity": 65,
      "chip": "ym2612"
    },
    {
      "channel": 2,
      "note": 49,
      "start": 14.6031,
      "duration": 0.2833,
      "velocity": 90,
      "chip": "ym2612"
    },
    {
      "channel": 1,
      "note": 66,
      "start": 14.6523,
      "duration": 0.0999,
      "velocity": 104,
      "chip": "ym2612"
    },
    {
      "channel": 1,
      "note": 66,
      "start": 14.7523,
      "duration": 0.0833,
      "velocity": 104,
      "chip": "ym2612"
    },
    {
      "channel": 3,
      "note": 83,
      "start": 14.7539,
      "duration": 0.2833,
      "velocity": 91,
      "chip": "ym2612"
    },
    {
      "channel": 4,
      "note": 45,
      "start": 14.7552,
      "duration": 0.183,
      "velocity": 86,
      "chip": "ym2612"
    },
    {
      "channel": 5,
      "note": 57,
      "start": 14.7564,
      "duration": 0.1831,
      "velocity": 69,
      "chip": "ym2612"
    },
    {
      "channel": 1,
      "note": 66,
      "start": 14.8357,
      "duration": 0.1001,
      "velocity": 104,
      "chip": "ym2612"
    },
    {
      "channel": 2,
      "note": 48,
      "start": 14.8864,
      "duration": 0.2999,
      "velocity": 90,
      "chip": "ym2612"
    },
    {
      "channel": 1,
      "note": 66,
      "start": 14.9358,
      "duration": 0.0998,
      "velocity": 104,
      "chip": "ym2612"
    },
    {
      "channel": 4,
      "note": 54,
      "start": 14.9383,
      "duration": 0.1998,
      "velocity": 88,
      "chip": "ym2612"
    },
    {
      "channel": 5,
      "note": 45,
      "start": 14.9395,
      "duration": 0.1998,
      "velocity": 71,
      "chip": "ym2612"
    },
    {
      "channel": 1,
      "note": 66,
      "start": 15.0356,
      "duration": 0.1,
      "velocity": 104,
      "chip": "ym2612"
    },
    {
      "channel": 3,
      "note": 78,
      "start": 15.0373,
      "duration": 0.3001,
      "velocity": 91,
      "chip": "ym2612"
    },
    {
      "channel": 1,
      "note": 66,
      "start": 15.1357,
      "duration": 0.0999,
      "velocity": 104,
      "chip": "ym2612"
    },
    {
      "channel": 4,
      "note": 45,
      "start": 15.1382,
      "duration": 0.2004,
      "velocity": 89,
      "chip": "ym2612"
    },
    {
      "channel": 5,
      "note": 56,
      "start": 15.1394,
      "duration": 0.2003,
      "velocity": 73,
      "chip": "ym2612"
    },
    {
      "channel": 2,
      "note": 52,
      "start": 15.1864,
      "duration": 0.2999,
      "velocity": 90,
      "chip": "ym2612"
    },
    {
      "channel": 1,
      "note": 66,
      "start": 15.2356,
      "duration": 0.1001,
      "velocity": 104,
      "chip": "ym2612"
    },
    {
      "channel": 1,
      "note": 66,
      "start": 15.3357,
      "duration": 0.0998,
      "velocity": 104,
      "chip": "ym2612"
    },
    {
      "channel": 3,
      "note": 81,
      "start": 15.3374,
      "duration": 0.2998,
      "velocity": 91,
      "chip": "ym2612"
    },
    {
      "channel": 4,
      "note": 53,
      "start": 15.3386,
      "duration": 0.1995,
      "velocity": 88,
      "chip": "ym2612"
    },
    {
      "channel": 5,
      "note": 45,
      "start": 15.3398,
      "duration": 0.1995,
      "velocity": 74,
      "chip": "ym2612"
    },
    {
      "channel": 1,
      "note": 66,
      "start": 15.4356,
      "duration": 0.1,
      "velocity": 104,
      "chip": "ym2612"
    },
    {
      "channel": 2,
      "note": 51,
      "start": 15.4864,
      "duration": 0.2999,
      "velocity": 90,
      "chip": "ym2612"
    },
    {
      "channel": 1,
      "note": 66,
      "start": 15.5357,
      "duration": 0.0999,
      "velocity": 104,
      "chip": "ym2612"
    },
    {
      "channel": 4,
      "note": 45,
      "start": 15.5382,
      "duration": 0.1999,
      "velocity": 86,
      "chip": "ym2612"
    },
    {
      "channel": 5,
      "note": 54,
      "start": 15.5394,
      "duration": 0.1999,
      "velocity": 76,
      "chip": "ym2612"
    },
    {
      "channel": 1,
      "note": 66,
      "start": 15.6356,
      "duration": 0.1,
      "velocity": 104,
      "chip": "ym2612"
    },
    {
      "channel": 3,
      "note": 83,
      "start": 15.6373,
      "duration": 0.3,
      "velocity": 91,
      "chip": "ym2612"
    },
    {
      "channel": 1,
      "note": 66,
      "start": 15.7357,
      "duration": 0.0999,
      "velocity": 104,
      "chip": "ym2612"
    },
    {
      "channel": 4,
      "note": 54,
      "start": 15.7382,
      "duration": 0.2003,
      "velocity": 83,
      "chip": "ym2612"
    },
    {
      "channel": 5,
      "note": 45,
      "start": 15.7394,
      "duration": 0.2002,
      "velocity": 76,
      "chip": "ym2612"
    },
    {
      "channel": 2,
      "note": 54,
      "start": 15.7864,
      "duration": 0.3001,
      "velocity": 90,
      "chip": "ym2612"
    },
    {
      "channel": 1,
      "note": 66,
      "start": 15.8357,
      "duration": 0.0999,
      "velocity": 104,
      "chip": "ym2612"
    },
    {
      "channel": 1,
      "note": 66,
      "start": 15.9356,
      "duration": 0.1,
      "velocity": 104,
      "chip": "ym2612"
    },
    {
      "channel": 3,
      "note": 81,
      "start": 15.9373,
      "duration": 0.3,
      "velocity": 91,
      "chip": "ym2612"
    },
    {
      "channel": 4,
      "note": 45,
      "start": 15.9385,
      "duration": 0.1995,
      "velocity": 80,
      "chip": "ym2612"
    },
    {
      "channel": 5,
      "note": 53,
      "start": 15.9398,
      "duration": 0.1996,
      "velocity": 76,
      "chip": "ym2612"
    },
    {
      "channel": 1,
      "note": 66,
      "start": 16.0357,
      "duration": 0.0999,
      "velocity": 104,
      "chip": "ym2612"
    },
    {
      "channel": 2,
      "note": 52,
      "start": 16.0865,
      "duration": 0.2999,
      "velocity": 90,
      "chip": "ym2612"
    },
    {
      "channel": 1,
      "note": 66,
      "start": 16.1357,
      "duration": 0.0999,
      "velocity": 104,
      "chip": "ym2612"
    },
    {
      "channel": 4,
      "note": 53,
      "start": 16.1382,
      "duration": 0.1999,
      "velocity": 76,
      "chip": "ym2612"
    },
    {
      "channel": 5,
      "note": 45,
      "start": 16.1394,
      "duration": 0.1999,
      "velocity": 74,
      "chip": "ym2612"
    },
    {
      "channel": 1,
      "note": 66,
      "start": 16.2356,
      "duration": 0.1,
      "velocity": 104,
      "chip": "ym2612"
    },
    {
      "channel": 3,
      "note": 76,
      "start": 16.2373,
      "duration": 0.3001,
      "velocity": 91,
      "chip": "ym2612"
    },
    {
      "channel": 1,
      "note": 66,
      "start": 16.3357,
      "duration": 0.0999,
      "velocity": 104,
      "chip": "ym2612"
    },
    {
      "channel": 4,
      "note": 45,
      "start": 16.3382,
      "duration": 0.2004,
      "velocity": 72,
      "chip": "ym2612"
    },
    {
      "channel": 5,
      "note": 54,
      "start": 16.3394,
      "duration": 0.2004,
      "velocity": 72,
      "chip": "ym2612"
    },
    {
      "channel": 2,
      "note": 46,
      "start": 16.3864,
      "duration": 0.2996,
      "velocity": 90,
      "chip": "ym2612"
    },
    {
      "channel": 1,
      "note": 66,
      "start": 16.4357,
      "duration": 0.1001,
      "velocity": 104,
      "chip": "ym2612"
    },
    {
      "channel": 1,
      "note": 66,
      "start": 16.5358,
      "duration": 0.0995,
      "velocity": 104,
      "chip": "ym2612"
    },
    {
      "channel": 3,
      "note": 81,
      "start": 16.5375,
      "duration": 0.2999,
      "velocity": 91,
      "chip": "ym2612"
    },
    {
      "channel": 4,
      "note": 54,
      "start": 16.5387,
      "duration": 0.1991,
      "velocity": 68,
      "chip": "ym2612"
    },
    {
      "channel": 5,
      "note": 45,
      "start": 16.5399,
      "duration": 0.1991,
      "velocity": 70,
      "chip": "ym2612"
    },
    {
      "channel": 1,
      "note": 66,
      "start": 16.6354,
      "duration": 0.0999,
      "velocity": 104,
      "chip": "ym2612"
    },
    {
      "channel": 2,
      "note": 42,
      "start": 16.6861,
      "duration": 0.2833,
      "velocity": 90,
      "chip": "ym2612"
    },
    {
      "channel": 1,
      "note": 66,
      "start": 16.7354,
      "duration": 0.1004,
      "velocity": 104,
      "chip": "ym2612"
    },
    {
      "channel": 4,
      "note": 45,
      "start": 16.7378,
      "duration": 0.1833,
      "velocity": 64,
      "chip": "ym2612"
    },
    {
      "channel": 5,
      "note": 53,
      "start": 16.739,
      "duration": 0.1833,
      "velocity": 68,
      "chip": "ym2612"
    },
    {
      "channel": 0,
      "note": 72,
      "start": 16.8349,
      "duration": 0.2833,
      "velocity": 99,
      "chip": "ym2612"
    },
    {
      "channel": 1,
      "note": 66,
      "start": 16.8357,
      "duration": 0.0829,
      "velocity": 104,
      "chip": "ym2612"
    },
    {
      "channel": 3,
      "note": 83,
      "start": 16.8374,
      "duration": 0.2833,
      "velocity": 91,
      "chip": "ym2612"
    },
    {
      "channel": 1,
      "note": 66,
      "start": 16.9187,
      "duration": 0.0999,
      "velocity": 104,
      "chip": "ym2612"
    },
    {
      "channel": 4,
      "note": 56,
      "start": 16.9212,
      "duration": 0.2007,
      "velocity": 61,
      "chip": "ym2612"
    },
    {
      "channel": 5,
      "note": 45,
      "start": 16.9224,
      "duration": 0.2008,
      "velocity": 65,
      "chip": "ym2612"
    },
    {
      "channel": 2,
      "note": 49,
      "start": 16.9695,
      "duration": 0.2999,
      "velocity": 90,
      "chip": "ym2612"
    },
    {
      "channel": 1,
      "note": 66,
      "start": 17.0187,
      "duration": 0.1004,
      "velocity": 104,
      "chip": "ym2612"
    },
    {
      "channel": 0,
      "note": 72,
      "start": 17.1183,
      "duration": 0.2992,
      "velocity": 99,
      "chip": "ym2612"
    },
    {
      "channel": 1,
      "note": 66,
      "start": 17.1191,
      "duration": 0.0995,
      "velocity": 104,
      "chip": "ym2612"
    },
    {
      "channel": 3,
      "note": 88,
      "start": 17.1207,
      "duration": 0.2998,
      "velocity": 91,
      "chip": "ym2612"
    },
    {
      "channel": 4,
      "note": 45,
      "start": 17.122,
      "duration": 0.1991,
      "velocity": 58,
      "chip": "ym2612"
    },
    {
      "channel": 5,
      "note": 54,
      "start": 17.1232,
      "duration": 0.1991,
      "velocity": 61,
      "chip": "ym2612"
    },
    {
      "channel": 1,
      "note": 66,
      "start": 17.2187,
      "duration": 0.0999,
      "velocity": 104,
      "chip": "ym2612"
    },
    {
      "channel": 2,
      "note": 48,
      "start": 17.2695,
      "duration": 0.2999,
      "velocity": 90,
      "chip": "ym2612"
    },
    {
      "channel": 1,
      "note": 66,
      "start": 17.3187,
      "duration": 0.1002,
      "velocity": 104,
      "chip": "ym2612"
    },
    {
      "channel": 4,
      "note": 57,
      "start": 17.3212,
      "duration": 0.1999,
      "velocity": 57,
      "chip": "ym2612"
    },
    {
      "channel": 5,
      "note": 45,
      "start": 17.3224,
      "duration": 0.1999,
      "velocity": 59,
      "chip": "ym2612"
    },
    {
      "channel": 1,
      "note": 66,
      "start": 17.419,
      "duration": 0.0996,
      "velocity": 104,
      "chip": "ym2612"
    },
    {
      "channel": 3,
      "note": 81,
      "start": 17.4206,
      "duration": 0.2997,
      "velocity": 91,
      "chip": "ym2612"
    },
    {
      "channel": 1,
      "note": 66,
      "start": 17.5187,
      "duration": 0.0999,
      "velocity": 104,
      "chip": "ym2612"
    },
    {
      "channel": 4,
      "note": 45,
      "start": 17.5212,
      "duration": 0.2004,
      "velocity": 56,
      "chip": "ym2612"
    },
    {
      "channel": 5,
      "note": 56,
      "start": 17.5224,
      "duration": 0.2004,
      "velocity": 57,
      "chip": "ym2612"
    },
    {
      "channel": 2,
      "note": 52,
      "start": 17.5694,
      "duration": 0.2999,
      "velocity": 90,
      "chip": "ym2612"
    },
    {
      "channel": 1,
      "note": 66,
      "start": 17.6186,
      "duration": 0.1001,
      "velocity": 104,
      "chip": "ym2612"
    },
    {
      "channel": 1,
      "note": 66,
      "start": 17.7188,
      "duration": 0.0998,
      "velocity": 104,
      "chip": "ym2612"
    },
    {
      "channel": 3,
      "note": 83,
      "start": 17.7203,
      "duration": 0.2999,
      "velocity": 91,
      "chip": "ym2612"
    },
    {
      "channel": 4,
      "note": 56,
      "start": 17.7216,
      "duration": 0.1995,
      "velocity": 57,
      "chip": "ym2612"
    },
    {
      "channel": 5,
      "note": 45,
      "start": 17.7228,
      "duration": 0.1995,
      "velocity": 55,
      "chip": "ym2612"
    },
    {
      "channel": 1,
      "note": 66,
      "start": 17.8186,
      "duration": 0.1,
      "velocity": 104,
      "chip": "ym2612"
    },
    {
      "channel": 2,
      "note": 51,
      "start": 17.8694,
      "duration": 0.2999,
      "velocity": 90,
      "chip": "ym2612"
    },
    {
      "channel": 1,
      "note": 66,
      "start": 17.9187,
      "duration": 0.0999,
      "velocity": 104,
      "chip": "ym2612"
    },
    {
      "channel": 4,
      "note": 45,
      "start": 17.9212,
      "duration": 0.1999,
      "velocity": 59,
      "chip": "ym2612"
    },
    {
      "channel": 5,
      "note": 57,
      "start": 17.9224,
      "duration": 0.1999,
      "velocity": 53,
      "chip": "ym2612"
    },
    {
      "channel": 1,
      "note": 66,
      "start": 18.0186,
      "duration": 0.1,
      "velocity": 104,
      "chip": "ym2612"
    },
    {
      "channel": 3,
      "note": 76,
      "start": 18.0203,
      "duration": 0.3,
      "velocity": 91,
      "chip": "ym2612"
    },
    {
      "channel": 1,
      "note": 66,
      "start": 18.1187,
      "duration": 0.0999,
      "velocity": 104,
      "chip": "ym2612"
    },
    {
      "channel": 4,
      "note": 54,
      "start": 18.1212,
      "duration": 0.2002,
      "velocity": 61,
      "chip": "ym2612"
    },
    {
      "channel": 5,
      "note": 45,
      "start": 18.1224,
      "duration": 0.2002,
      "velocity": 53,
      "chip": "ym2612"
    },
    {
      "channel": 2,
      "note": 54,
      "start": 18.1694,
      "duration": 0.2999,
      "velocity": 90,
      "chip": "ym2612"
    },
    {
      "channel": 1,
      "note": 66,
      "start": 18.2186,
      "duration": 0.1,
      "velocity": 104,
      "chip": "ym2612"
    },
    {
      "channel": 1,
      "note": 66,
      "start": 18.3186,
      "duration": 0.1,
      "velocity": 104,
      "chip": "ym2612"
    },
    {
      "channel": 3,
      "note": 78,
      "start": 18.3202,
      "duration": 0.3,
      "velocity": 91,
      "chip": "ym2612"
    },
    {
      "channel": 4,
      "note": 45,
      "start": 18.3215,
      "duration": 0.1996,
      "velocity": 65,
      "chip": "ym2612"
    },
    {
      "channel": 5,
      "note": 56,
      "start": 18.3227,
      "duration": 0.1996,
      "velocity": 54,
      "chip": "ym2612"
    },
    {
      "channel": 1,
      "note": 66,
      "start": 18.4186,
      "duration": 0.1,
      "velocity": 104,
      "chip": "ym2612"
    },
    {
      "channel": 2,
      "note": 52,
      "start": 18.4694,
      "duration": 0.2999,
      "velocity": 90,
      "chip": "ym2612"
    },
    {
      "channel": 1,
      "note": 66,
      "start": 18.5187,
      "duration": 0.0999,
      "velocity": 104,
      "chip": "ym2612"
    },
    {
      "channel": 4,
      "note": 53,
      "start": 18.5212,
      "duration": 0.1999,
      "velocity": 69,
      "chip": "ym2612"
    },
    {
      "channel": 5,
      "note": 45,
      "start": 18.5224,
      "duration": 0.1999,
      "velocity": 55,
      "chip": "ym2612"
    },
    {
      "channel": 1,
      "note": 66,
      "start": 18.6186,
      "duration": 0.1,
      "velocity": 104,
      "chip": "ym2612"
    },
    {
      "channel": 3,
      "note": 71,
      "start": 18.6203,
      "duration": 0.3005,
      "velocity": 91,
      "chip": "ym2612"
    },
    {
      "channel": 1,
      "note": 66,
      "start": 18.7187,
      "duration": 0.0999,
      "velocity": 104,
      "chip": "ym2612"
    },
    {
      "channel": 4,
      "note": 45,
      "start": 18.7212,
      "duration": 0.2009,
      "velocity": 73,
      "chip": "ym2612"
    },
    {
      "channel": 5,
      "note": 54,
      "start": 18.7224,
      "duration": 0.2009,
      "velocity": 57,
      "chip": "ym2612"
    },
    {
      "channel": 2,
      "note": 46,
      "start": 18.7694,
      "duration": 0.2833,
      "velocity": 90,
      "chip": "ym2612"
    },
    {
      "channel": 1,
      "note": 66,
      "start": 18.8186,
      "duration": 0.1006,
      "velocity": 104,
      "chip": "ym2612"
    },
    {
      "channel": 1,
      "note": 66,
      "start": 18.9193,
      "duration": 0.0993,
      "velocity": 104,
      "chip": "ym2612"
    },
    {
      "channel": 3,
      "note": 69,
      "start": 18.9209,
      "duration": 0.2827,
      "velocity": 91,
      "chip": "ym2612"
    },
    {
      "channel": 4,
      "note": 56,
      "start": 18.9221,
      "duration": 0.1823,
      "velocity": 78,
      "chip": "ym2612"
    },
    {
      "channel": 5,
      "note": 45,
      "start": 18.9233,
      "duration": 0.1823,
      "velocity": 59,
      "chip": "ym2612"
    },
    {
      "channel": 1,
      "note": 66,
      "start": 19.0186,
      "duration": 0.0833,
      "velocity": 104,
      "chip": "ym2612"
    },
    {
      "channel": 2,
      "note": 42,
      "start": 19.0527,
      "duration": 0.2999,
      "velocity": 90,
      "chip": "ym2612"
    },
    {
      "channel": 1,
      "note": 66,
      "start": 19.102,
      "duration": 0.0999,
      "velocity": 104,
      "chip": "ym2612"
    },
    {
      "channel": 4,
      "note": 47,
      "start": 19.1045,
      "duration": 0.1999,
      "velocity": 81,
      "chip": "ym2612"
    },
    {
      "channel": 5,
      "note": 53,
      "start": 19.1057,
      "duration": 0.1999,
      "velocity": 63,
      "chip": "ym2612"
    },
    {
      "channel": 1,
      "note": 66,
      "start": 19.202,
      "duration": 0.1,
      "velocity": 104,
      "chip": "ym2612"
    },
    {
      "channel": 3,
      "note": 71,
      "start": 19.2036,
      "duration": 0.3001,
      "velocity": 91,
      "chip": "ym2612"
    },
    {
      "channel": 1,
      "note": 66,
      "start": 19.302,
      "duration": 0.0999,
      "velocity": 104,
      "chip": "ym2612"
    },
    {
      "channel": 4,
      "note": 55,
      "start": 19.3045,
      "duration": 0.2004,
      "velocity": 84,
      "chip": "ym2612"
    },
    {
      "channel": 5,
      "note": 45,
      "start": 19.3057,
      "duration": 0.2005,
      "velocity": 65,
      "chip": "ym2612"
    },
    {
      "channel": 2,
      "note": 49,
      "start": 19.3527,
      "duration": 0.2999,
      "velocity": 90,
      "chip": "ym2612"
    },
    {
      "channel": 1,
      "note": 66,
      "start": 19.402,
      "duration": 0.1001,
      "velocity": 104,
      "chip": "ym2612"
    },
    {
      "channel": 1,
      "note": 66,
      "start": 19.5021,
      "duration": 0.0999,
      "velocity": 104,
      "chip": "ym2612"
    },
    {
      "channel": 3,
      "note": 76,
      "start": 19.5037,
      "duration": 0.2998,
      "velocity": 91,
      "chip": "ym2612"
    },
    {
      "channel": 4,
      "note": 47,
      "start": 19.5049,
      "duration": 0.1995,
      "velocity": 86,
      "chip": "ym2612"
    },
    {
      "channel": 5,
      "note": 56,
      "start": 19.5062,
      "duration": 0.1994,
      "velocity": 69,
      "chip": "ym2612"
    },
    {
      "channel": 1,
      "note": 66,
      "start": 19.602,
      "duration": 0.1,
      "velocity": 104,
      "chip": "ym2612"
    },
    {
      "channel": 2,
      "note": 48,
      "start": 19.6527,
      "duration": 0.2999,
      "velocity": 90,
      "chip": "ym2612"
    },
    {
      "channel": 1,
      "note": 66,
      "start": 19.702,
      "duration": 0.0999,
      "velocity": 104,
      "chip": "ym2612"
    },
    {
      "channel": 4,
      "note": 56,
      "start": 19.7044,
      "duration": 0.2,
      "velocity": 88,
      "chip": "ym2612"
    },
    {
      "channel": 5,
      "note": 47,
      "start": 19.7057,
      "duration": 0.1999,
      "velocity": 71,
      "chip": "ym2612"
    },
    {
      "channel": 1,
      "note": 66,
      "start": 19.802,
      "duration": 0.1,
      "velocity": 104,
      "chip": "ym2612"
    },
    {
      "channel": 3,
      "note": 69,
      "start": 19.8036,
      "duration": 0.3,
      "velocity": 91,
      "chip": "ym2612"
    },
    {
      "channel": 1,
      "note": 66,
      "start": 19.902,
      "duration": 0.0999,
      "velocity": 104,
      "chip": "ym2612"
    },
    {
      "channel": 4,
      "note": 47,
      "start": 19.9045,
      "duration": 0.2004,
      "velocity": 89,
      "chip": "ym2612"
    },
    {
      "channel": 5,
      "note": 55,
      "start": 19.9057,
      "duration": 0.2004,
      "velocity": 73,
      "chip": "ym2612"
    },
    {
      "channel": 2,
      "note": 52,
      "start": 19.9527,
      "duration": 0.2999,
      "velocity": 90,
      "chip": "ym2612"
    },
    {
      "channel": 1,
      "note": 66,
      "start": 20.002,
      "duration": 0.1001,
      "velocity": 104,
      "chip": "ym2612"
    },
    {
      "channel": 1,
      "note": 66,
      "start": 20.1021,
      "duration": 0.0998,
      "velocity": 104,
      "chip": "ym2612"
    },
    {
      "channel": 3,
      "note": 71,
      "start": 20.1037,
      "duration": 0.2999,
      "velocity": 91,
      "chip": "ym2612"
    },
    {
      "channel": 4,
      "note": 58,
      "start": 20.1049,
      "duration": 0.1995,
      "velocity": 88,
      "chip": "ym2612"
    },
    {
      "channel": 5,
      "note": 47,
      "start": 20.1062,
      "duration": 0.1995,
      "velocity": 74,
      "chip": "ym2612"
    },
    {
      "channel": 1,
      "note": 66,
      "start": 20.202,
      "duration": 0.1,
      "velocity": 104,
      "chip": "ym2612"
    },
    {
      "channel": 2,
      "note": 51,
      "start": 20.2527,
      "duration": 0.2999,
      "velocity": 90,
      "chip": "ym2612"
    },
    {
      "channel": 1,
      "note": 66,
      "start": 20.302,
      "duration": 0.0999,
      "velocity": 104,
      "chip": "ym2612"
    },
    {
      "channel": 4,
      "note": 47,
      "start": 20.3045,
      "duration": 0.1999,
      "velocity": 86,
      "chip": "ym2612"
    },
    {
      "channel": 5,
      "note": 56,
      "start": 20.3057,
      "duration": 0.2,
      "velocity": 76,
      "chip": "ym2612"
    },
    {
      "channel": 1,
      "note": 66,
      "start": 20.402,
      "duration": 0.1,
      "velocity": 104,
      "chip": "ym2612"
    },
    {
      "channel": 3,
      "note": 78,
      "start": 20.4036,
      "duration": 0.299,
      "velocity": 91,
      "chip": "ym2612"
    },
    {
      "channel": 1,
      "note": 66,
      "start": 20.502,
      "duration": 0.0999,
      "velocity": 104,
      "chip": "ym2612"
    },
    {
      "channel": 4,
      "note": 59,
      "start": 20.5045,
      "duration": 0.1999,
      "velocity": 83,
      "chip": "ym2612"
    },
    {
      "channel": 5,
      "note": 47,
      "start": 20.5058,
      "duration": 0.1999,
      "velocity": 76,
      "chip": "ym2612"
    },
    {
      "channel": 2,
      "note": 54,
      "start": 20.5527,
      "duration": 0.2998,
      "velocity": 90,
      "chip": "ym2612"
    },
    {
      "channel": 1,
      "note": 66,
      "start": 20.602,
      "duration": 0.1,
      "velocity": 104,
      "chip": "ym2612"
    },
    {
      "channel": 1,
      "note": 66,
      "start": 20.702,
      "duration": 0.0999,
      "velocity": 104,
      "chip": "ym2612"
    },
    {
      "channel": 4,
      "note": 47,
      "start": 20.7045,
      "duration": 0.1996,
      "velocity": 80,
      "chip": "ym2612"
    },
    {
      "channel": 5,
      "note": 58,
      "start": 20.7058,
      "duration": 0.1995,
      "velocity": 76,
      "chip": "ym2612"
    },
    {
      "channel": 1,
      "note": 66,
      "start": 20.8019,
      "duration": 0.0999,
      "velocity": 104,
      "chip": "ym2612"
    },
    {
      "channel": 2,
      "note": 52,
      "start": 20.8526,
      "duration": 0.3,
      "velocity": 90,
      "chip": "ym2612"
    },
    {
      "channel": 1,
      "note": 66,
      "start": 20.9019,
      "duration": 0.1,
      "velocity": 104,
      "chip": "ym2612"
    },
    {
      "channel": 4,
      "note": 58,
      "start": 20.9042,
      "duration": 0.2002,
      "velocity": 76,
      "chip": "ym2612"
    },
    {
      "channel": 5,
      "note": 47,
      "start": 20.9054,
      "duration": 0.2003,
      "velocity": 74,
      "chip": "ym2612"
    },
    {
      "channel": 1,
      "note": 66,
      "start": 21.002,
      "duration": 0.1,
      "velocity": 104,
      "chip": "ym2612"
    },
    {
      "channel": 3,
      "note": 71,
      "start": 21.0036,
      "duration": 0.2838,
      "velocity": 91,
      "chip": "ym2612"
    },
    {
      "channel": 1,
      "note": 66,
      "start": 21.102,
      "duration": 0.0833,
      "velocity": 104,
      "chip": "ym2612"
    },
    {
      "channel": 4,
      "note": 47,
      "start": 21.1045,
      "duration": 0.1841,
      "velocity": 72,
      "chip": "ym2612"
    },
    {
      "channel": 5,
      "note": 59,
      "start": 21.1058,
      "duration": 0.184,
      "velocity": 72,
      "chip": "ym2612"
    },
    {
      "channel": 2,
      "note": 46,
      "start": 21.1527,
      "duration": 0.2833,
      "velocity": 90,
      "chip": "ym2612"
    },
    {
      "channel": 1,
      "note": 66,
      "start": 21.1853,
      "duration": 0.1005,
      "velocity": 104,
      "chip": "ym2612"
    },
    {
      "channel": 1,
      "note": 66,
      "start": 21.2858,
      "duration": 0.0995,
      "velocity": 104,
      "chip": "ym2612"
    },
    {
      "channel": 3,
      "note": 69,
      "start": 21.2874,
      "duration": 0.2995,
      "velocity": 91,
      "chip": "ym2612"
    },
    {
      "channel": 4,
      "note": 56,
      "start": 21.2887,
      "duration": 0.1991,
      "velocity": 68,
      "chip": "ym2612"
    },
    {
      "channel": 5,
      "note": 47,
      "start": 21.2899,
      "duration": 0.1991,
      "velocity": 70,
      "chip": "ym2612"
    },
    {
      "channel": 1,
      "note": 66,
      "start": 21.3853,
      "duration": 0.1,
      "velocity": 104,
      "chip": "ym2612"
    },
    {
      "channel": 2,
      "note": 42,
      "start": 21.4361,
      "duration": 0.2999,
      "velocity": 90,
      "chip": "ym2612"
    },
    {
      "channel": 1,
      "note": 66,
      "start": 21.4854,
      "duration": 0.0999,
      "velocity": 104,
      "chip": "ym2612"
    },
    {
      "channel": 4,
      "note": 47,
      "start": 21.4878,
      "duration": 0.2,
      "velocity": 64,
      "chip": "ym2612"
    },
    {
      "channel": 5,
      "note": 58,
      "start": 21.489,
      "duration": 0.1999,
      "velocity": 68,
      "chip": "ym2612"
    },
    {
      "channel": 1,
      "note": 66,
      "start": 21.5853,
      "duration": 0.1,
      "velocity": 104,
      "chip": "ym2612"
    },
    {
      "channel": 3,
      "note": 71,
      "start": 21.5869,
      "duration": 0.3,
      "velocity": 91,
      "chip": "ym2612"
    },
    {
      "channel": 1,
      "note": 66,
      "start": 21.6854,
      "duration": 0.0999,
      "velocity": 104,
      "chip": "ym2612"
    },
    {
      "channel": 4,
      "note": 55,
      "start": 21.6878,
      "duration": 0.2003,
      "velocity": 61,
      "chip": "ym2612"
    },
    {
      "channel": 5,
      "note": 47,
      "start": 21.689,
      "duration": 0.2003,
      "velocity": 65,
      "chip": "ym2612"
    },
    {
      "channel": 2,
      "note": 49,
      "start": 21.7361,
      "duration": 0.2999,
      "velocity": 90,
      "chip": "ym2612"
    },
    {
      "channel": 1,
      "note": 66,
      "start": 21.7853,
      "duration": 0.1,
      "velocity": 104,
      "chip": "ym2612"
    },
    {
      "channel": 1,
      "note": 66,
      "start": 21.8853,
      "duration": 0.1,
      "velocity": 104,
      "chip": "ym2612"
    },
    {
      "channel": 3,
      "note": 76,
      "start": 21.8869,
      "duration": 0.3,
      "velocity": 91,
      "chip": "ym2612"
    },
    {
      "channel": 4,
      "note": 47,
      "start": 21.8882,
      "duration": 0.1995,
      "velocity": 58,
      "chip": "ym2612"
    },
    {
      "channel": 5,
      "note": 56,
      "start": 21.8894,
      "duration": 0.1995,
      "velocity": 61,
      "chip": "ym2612"
    },
    {
      "channel": 1,
      "note": 66,
      "start": 21.9853,
      "duration": 0.1,
      "velocity": 104,
      "chip": "ym2612"
    },
    {
      "channel": 2,
      "note": 48,
      "start": 22.0361,
      "duration": 0.2999,
      "velocity": 90,
      "chip": "ym2612"
    },
    {
      "channel": 1,
      "note": 66,
      "start": 22.0854,
      "duration": 0.0999,
      "velocity": 104,
      "chip": "ym2612"
    },
    {
      "channel": 4,
      "note": 56,
      "start": 22.0878,
      "duration": 0.1999,
      "velocity": 57,
      "chip": "ym2612"
    },
    {
      "channel": 5,
      "note": 47,
      "start": 22.089,
      "duration": 0.1999,
      "velocity": 59,
      "chip": "ym2612"
    },
    {
      "channel": 1,
      "note": 66,
      "start": 22.1853,
      "duration": 0.1,
      "velocity": 104,
      "chip": "ym2612"
    },
    {
      "channel": 3,
      "note": 69,
      "start": 22.1869,
      "duration": 0.3,
      "velocity": 91,
      "chip": "ym2612"
    },
    {
      "channel": 1,
      "note": 66,
      "start": 22.2854,
      "duration": 0.0999,
      "velocity": 104,
      "chip": "ym2612"
    },
    {
      "channel": 4,
      "note": 47,
      "start": 22.2878,
      "duration": 0.2004,
      "velocity": 56,
      "chip": "ym2612"
    },
    {
      "channel": 5,
      "note": 55,
      "start": 22.289,
      "duration": 0.2004,
      "velocity": 57,
      "chip": "ym2612"
    },
    {
      "channel": 2,
      "note": 52,
      "start": 22.3361,
      "duration": 0.2999,
      "velocity": 90,
      "chip": "ym2612"
    },
    {
      "channel": 1,
      "note": 66,
      "start": 22.3853,
      "duration": 0.1001,
      "velocity": 104,
      "chip": "ym2612"
    },
    {
      "channel": 1,
      "note": 66,
      "start": 22.4854,
      "duration": 0.0998,
      "velocity": 104,
      "chip": "ym2612"
    },
    {
      "channel": 3,
      "note": 71,
      "start": 22.487,
      "duration": 0.2999,
      "velocity": 91,
      "chip": "ym2612"
    },
    {
      "channel": 4,
      "note": 55,
      "start": 22.4883,
      "duration": 0.1995,
      "velocity": 57,
      "chip": "ym2612"
    },
    {
      "channel": 5,
      "note": 47,
      "start": 22.4895,
      "duration": 0.1995,
      "velocity": 55,
      "chip": "ym2612"
    },
    {
      "channel": 1,
      "note": 66,
      "start": 22.5853,
      "duration": 0.1,
      "velocity": 104,
      "chip": "ym2612"
    },
    {
      "channel": 2,
      "note": 51,
      "start": 22.6361,
      "duration": 0.2999,
      "velocity": 90,
      "chip": "ym2612"
    },
    {
      "channel": 1,
      "note": 66,
      "start": 22.6854,
      "duration": 0.0999,
      "velocity": 104,
      "chip": "ym2612"
    },
    {
      "channel": 4,
      "note": 47,
      "start": 22.6878,
      "duration": 0.1999,
      "velocity": 59,
      "chip": "ym2612"
    },
    {
      "channel": 5,
      "note": 56,
      "start": 22.689,
      "duration": 0.1999,
      "velocity": 53,
      "chip": "ym2612"
    },
    {
      "channel": 1,
      "note": 66,
      "start": 22.7853,
      "duration": 0.1,
      "velocity": 104,
      "chip": "ym2612"
    },
    {
      "channel": 3,
      "note": 78,
      "start": 22.7869,
      "duration": 0.3,
      "velocity": 91,
      "chip": "ym2612"
    },
    {
      "channel": 1,
      "note": 66,
      "start": 22.8854,
      "duration": 0.0999,
      "velocity": 104,
      "chip": "ym2612"
    },
    {
      "channel": 4,
      "note": 56,
      "start": 22.8878,
      "duration": 0.2002,
      "velocity": 61,
      "chip": "ym2612"
    },
    {
      "channel": 5,
      "note": 47,
      "start": 22.889,
      "duration": 0.2002,
      "velocity": 53,
      "chip": "ym2612"
    },
    {
      "channel": 2,
      "note": 54,
      "start": 22.9361,
      "duration": 0.2999,
      "velocity": 90,
      "chip": "ym2612"
    },
    {
      "channel": 1,
      "note": 66,
      "start": 22.9853,
      "duration": 0.1,
      "velocity": 104,
      "chip": "ym2612"
    },
    {
      "channel": 1,
      "note": 66,
      "start": 23.0853,
      "duration": 0.1,
      "velocity": 104,
      "chip": "ym2612"
    },
    {
      "channel": 3,
      "note": 83,
      "start": 23.0869,
      "duration": 0.284,
      "velocity": 91,
      "chip": "ym2612"
    },
    {
      "channel": 4,
      "note": 47,
      "start": 23.0882,
      "duration": 0.2003,
      "velocity": 65,
      "chip": "ym2612"
    },
    {
      "channel": 5,
      "note": 55,
      "start": 23.0894,
      "duration": 0.2003,
      "velocity": 54,
      "chip": "ym2612"
    },
    {
      "channel": 1,
      "note": 66,
      "start": 23.1853,
      "duration": 0.1007,
      "velocity": 104,
      "chip": "ym2612"
    },
    {
      "channel": 2,
      "note": 52,
      "start": 23.2361,
      "duration": 0.2833,
      "velocity": 90,
      "chip": "ym2612"
    },
    {
      "channel": 0,
      "note": 64,
      "start": 23.2852,
      "duration": 0.0832,
      "velocity": 99,
      "chip": "ym2612"
    },
    {
      "channel": 1,
      "note": 66,
      "start": 23.2861,
      "duration": 0.0832,
      "velocity": 104,
      "chip": "ym2612"
    },
    {
      "channel": 4,
      "note": 58,
      "start": 23.2885,
      "duration": 0.1834,
      "velocity": 69,
      "chip": "ym2612"
    },
    {
      "channel": 5,
      "note": 47,
      "start": 23.2898,
      "duration": 0.1834,
      "velocity": 55,
      "chip": "ym2612"
    },
    {
      "channel": 0,
      "note": 68,
      "start": 23.3684,
      "duration": 0.1001,
      "velocity": 99,
      "chip": "ym2612"
    },
    {
      "channel": 1,
      "note": 66,
      "start": 23.3693,
      "duration": 0.1001,
      "velocity": 104,
      "chip": "ym2612"
    },
    {
      "channel": 3,
      "note": 78,
      "start": 23.371,
      "duration": 0.3005,
      "velocity": 91,
      "chip": "ym2612"
    },
    {
      "channel": 0,
      "note": 71,
      "start": 23.4686,
      "duration": 0.0998,
      "velocity": 99,
      "chip": "ym2612"
    },
    {
      "channel": 1,
      "note": 66,
      "start": 23.4695,
      "duration": 0.0998,
      "velocity": 104,
      "chip": "ym2612"
    },
    {
      "channel": 4,
      "note": 47,
      "start": 23.472,
      "duration": 0.2007,
      "velocity": 73,
      "chip": "ym2612"
    },
    {
      "channel": 5,
      "note": 56,
      "start": 23.4732,
      "duration": 0.2008,
      "velocity": 57,
      "chip": "ym2612"
    },
    {
      "channel": 2,
      "note": 46,
      "start": 23.5195,
      "duration": 0.3006,
      "velocity": 90,
      "chip": "ym2612"
    },
    {
      "channel": 0,
      "note": 74,
      "start": 23.5684,
      "duration": 0.1005,
      "velocity": 99,
      "chip": "ym2612"
    },
    {
      "channel": 1,
      "note": 66,
      "start": 23.5693,
      "duration": 0.1005,
      "velocity": 104,
      "chip": "ym2612"
    },
    {
      "channel": 0,
      "note": 75,
      "start": 23.6689,
      "duration": 2.3819,
      "velocity": 99,
      "chip": "ym2612"
    },
    {
      "channel": 1,
      "note": 66,
      "start": 23.6699,
      "duration": 0.0994,
      "velocity": 104,
      "chip": "ym2612"
    },
    {
      "channel": 3,
      "note": 85,
      "start": 23.6716,
      "duration": 0.1495,
      "velocity": 91,
      "chip": "ym2612"
    },
    {
      "channel": 4,
      "note": 59,
      "start": 23.6728,
      "duration": 0.199,
      "velocity": 78,
      "chip": "ym2612"
    },
    {
      "channel": 5,
      "note": 47,
      "start": 23.674,
      "duration": 0.199,
      "velocity": 59,
      "chip": "ym2612"
    },
    {
      "channel": 1,
      "note": 66,
      "start": 23.7694,
      "duration": 0.0999,
      "velocity": 104,
      "chip": "ym2612"
    },
    {
      "channel": 2,
      "note": 42,
      "start": 23.8201,
      "duration": 0.3,
      "velocity": 90,
      "chip": "ym2612"
    },
    {
      "channel": 3,
      "note": 83,
      "start": 23.8212,
      "duration": 0.1497,
      "velocity": 91,
      "chip": "ym2612"
    },
    {
      "channel": 1,
      "note": 66,
      "start": 23.8694,
      "duration": 0.0999,
      "velocity": 104,
      "chip": "ym2612"
    },
    {
      "channel": 4,
      "note": 47,
      "start": 23.8719,
      "duration": 0.2,
      "velocity": 81,
      "chip": "ym2612"
    },
    {
      "channel": 5,
      "note": 58,
      "start": 23.8732,
      "duration": 0.1999,
      "velocity": 63,
      "chip": "ym2612"
    },
    {
      "channel": 1,
      "note": 66,
      "start": 23.9694,
      "duration": 0.1,
      "velocity": 104,
      "chip": "ym2612"
    },
    {
      "channel": 3,
      "note": 81,
      "start": 23.971,
      "duration": 0.1502,
      "velocity": 91,
      "chip": "ym2612"
    },
    {
      "channel": 1,
      "note": 66,
      "start": 24.0694,
      "duration": 0.1001,
      "velocity": 104,
      "chip": "ym2612"
    },
    {
      "channel": 4,
      "note": 58,
      "start": 24.0719,
      "duration": 0.1999,
      "velocity": 84,
      "chip": "ym2612"
    },
    {
      "channel": 5,
      "note": 47,
      "start": 24.0732,
      "duration": 0.1999,
      "velocity": 65,
      "chip": "ym2612"
    },
    {
      "channel": 2,
      "note": 49,
      "start": 24.1202,
      "duration": 0.2998,
      "velocity": 90,
      "chip": "ym2612"
    },
    {
      "channel": 3,
      "note": 76,
      "start": 24.1213,
      "duration": 0.2998,
      "velocity": 91,
      "chip": "ym2612"
    },
    {
      "channel": 1,
      "note": 66,
      "start": 24.1695,
      "duration": 0.0998,
      "velocity": 104,
      "chip": "ym2612"
    },
    {
      "channel": 1,
      "note": 66,
      "start": 24.2694,
      "duration": 0.0999,
      "velocity": 104,
      "chip": "ym2612"
    },
    {
      "channel": 4,
      "note": 47,
      "start": 24.2719,
      "duration": 0.1999,
      "velocity": 86,
      "chip": "ym2612"
    },
    {
      "channel": 5,
      "note": 59,
      "start": 24.2732,
      "duration": 0.1999,
      "velocity": 69,
      "chip": "ym2612"
    },
    {
      "channel": 1,
      "note": 66,
      "start": 24.3694,
      "duration": 0.0999,
      "velocity": 104,
      "chip": "ym2612"
    },
    {
      "channel": 2,
      "note": 48,
      "start": 24.42,
      "duration": 0.3001,
      "velocity": 90,
      "chip": "ym2612"
    },
    {
      "channel": 3,
      "note": 78,
      "start": 24.4211,
      "duration": 0.1499,
      "velocity": 91,
      "chip": "ym2612"
    },
    {
      "channel": 1,
      "note": 66,
      "start": 24.4694,
      "duration": 0.0999,
      "velocity": 104,
      "chip": "ym2612"
    },
    {
      "channel": 4,
      "note": 56,
      "start": 24.4719,
      "duration": 0.1999,
      "velocity": 88,
      "chip": "ym2612"
    },
    {
      "channel": 5,
      "note": 47,
      "start": 24.4732,
      "duration": 0.1999,
      "velocity": 71,
      "chip": "ym2612"
    },
    {
      "channel": 1,
      "note": 66,
      "start": 24.5694,
      "duration": 0.0999,
      "velocity": 104,
      "chip": "ym2612"
    },
    {
      "channel": 3,
      "note": 85,
      "start": 24.571,
      "duration": 0.1501,
      "velocity": 91,
      "chip": "ym2612"
    },
    {
      "channel": 1,
      "note": 66,
      "start": 24.6694,
      "duration": 0.0999,
      "velocity": 104,
      "chip": "ym2612"
    },
    {
      "channel": 4,
      "note": 47,
      "start": 24.6719,
      "duration": 0.2004,
      "velocity": 89,
      "chip": "ym2612"
    },
    {
      "channel": 5,
      "note": 58,
      "start": 24.6732,
      "duration": 0.2004,
      "velocity": 73,
      "chip": "ym2612"
    },
    {
      "channel": 2,
      "note": 52,
      "start": 24.7201,
      "duration": 0.2998,
      "velocity": 90,
      "chip": "ym2612"
    },
    {
      "channel": 3,
      "note": 83,
      "start": 24.7212,
      "duration": 0.1499,
      "velocity": 91,
      "chip": "ym2612"
    },
    {
      "channel": 1,
      "note": 66,
      "start": 24.7693,
      "duration": 0.1001,
      "velocity": 104,
      "chip": "ym2612"
    },
    {
      "channel": 1,
      "note": 66,
      "start": 24.8695,
      "duration": 0.1,
      "velocity": 104,
      "chip": "ym2612"
    },
    {
      "channel": 3,
      "note": 81,
      "start": 24.8711,
      "duration": 0.1499,
      "velocity": 91,
      "chip": "ym2612"
    },
    {
      "channel": 4,
      "note": 55,
      "start": 24.8724,
      "duration": 0.1988,
      "velocity": 88,
      "chip": "ym2612"
    },
    {
      "channel": 5,
      "note": 47,
      "start": 24.8736,
      "duration": 0.1989,
      "velocity": 74,
      "chip": "ym2612"
    },
    {
      "channel": 1,
      "note": 66,
      "start": 24.9695,
      "duration": 0.0992,
      "velocity": 104,
      "chip": "ym2612"
    },
    {
      "channel": 2,
      "note": 51,
      "start": 25.02,
      "duration": 0.3001,
      "velocity": 90,
      "chip": "ym2612"
    },
    {
      "channel": 3,
      "note": 76,
      "start": 25.021,
      "duration": 0.3001,
      "velocity": 91,
      "chip": "ym2612"
    },
    {
      "channel": 1,
      "note": 66,
      "start": 25.0688,
      "duration": 0.1005,
      "velocity": 104,
      "chip": "ym2612"
    },
    {
      "channel": 4,
      "note": 47,
      "start": 25.0713,
      "duration": 0.2005,
      "velocity": 86,
      "chip": "ym2612"
    },
    {
      "channel": 5,
      "note": 56,
      "start": 25.0725,
      "duration": 0.2004,
      "velocity": 76,
      "chip": "ym2612"
    },
    {
      "channel": 1,
      "note": 66,
      "start": 25.1694,
      "duration": 0.0999,
      "velocity": 104,
      "chip": "ym2612"
    },
    {
      "channel": 1,
      "note": 66,
      "start": 25.2694,
      "duration": 0.1001,
      "velocity": 104,
      "chip": "ym2612"
    },
    {
      "channel": 4,
      "note": 56,
      "start": 25.2719,
      "duration": 0.1833,
      "velocity": 83,
      "chip": "ym2612"
    },
    {
      "channel": 5,
      "note": 47,
      "start": 25.273,
      "duration": 0.1833,
      "velocity": 76,
      "chip": "ym2612"
    },
    {
      "channel": 2,
      "note": 54,
      "start": 25.3201,
      "duration": 0.2832,
      "velocity": 90,
      "chip": "ym2612"
    },
    {
      "channel": 3,
      "note": 78,
      "start": 25.3212,
      "duration": 0.2831,
      "velocity": 91,
      "chip": "ym2612"
    },
    {
      "channel": 1,
      "note": 66,
      "start": 25.3695,
      "duration": 0.0831,
      "velocity": 104,
      "chip": "ym2612"
    },
    {
      "channel": 1,
      "note": 66,
      "start": 25.4527,
      "duration": 0.0999,
      "velocity": 104,
      "chip": "ym2612"
    },
    {
      "channel": 4,
      "note": 47,
      "start": 25.4551,
      "duration": 0.2,
      "velocity": 80,
      "chip": "ym2612"
    },
    {
      "channel": 5,
      "note": 55,
      "start": 25.4564,
      "duration": 0.2,
      "velocity": 76,
      "chip": "ym2612"
    },
    {
      "channel": 1,
      "note": 66,
      "start": 25.5527,
      "duration": 0.0999,
      "velocity": 104,
      "chip": "ym2612"
    },
    {
      "channel": 2,
      "note": 52,
      "start": 25.6033,
      "duration": 0.2996,
      "velocity": 90,
      "chip": "ym2612"
    },
    {
      "channel": 3,
      "note": 71,
      "start": 25.6044,
      "duration": 0.1501,
      "velocity": 91,
      "chip": "ym2612"
    },
    {
      "channel": 1,
      "note": 66,
      "start": 25.6527,
      "duration": 0.1001,
      "velocity": 104,
      "chip": "ym2612"
    },
    {
      "channel": 4,
      "note": 55,
      "start": 25.6552,
      "duration": 0.1999,
      "velocity": 76,
      "chip": "ym2612"
    },
    {
      "channel": 5,
      "note": 47,
      "start": 25.6565,
      "duration": 0.1999,
      "velocity": 74,
      "chip": "ym2612"
    },
    {
      "channel": 1,
      "note": 66,
      "start": 25.7529,
      "duration": 0.0998,
      "velocity": 104,
      "chip": "ym2612"
    },
    {
      "channel": 3,
      "note": 76,
      "start": 25.7545,
      "duration": 0.2995,
      "velocity": 91,
      "chip": "ym2612"
    },
    {
      "channel": 1,
      "note": 66,
      "start": 25.8527,
      "duration": 0.0999,
      "velocity": 104,
      "chip": "ym2612"
    },
    {
      "channel": 4,
      "note": 47,
      "start": 25.8552,
      "duration": 0.2,
      "velocity": 72,
      "chip": "ym2612"
    },
    {
      "channel": 5,
      "note": 56,
      "start": 25.8565,
      "duration": 0.2,
      "velocity": 72,
      "chip": "ym2612"
    },
    {
      "channel": 2,
      "note": 46,
      "start": 25.9029,
      "duration": 0.2998,
      "velocity": 90,
      "chip": "ym2612"
    },
    {
      "channel": 1,
      "note": 66,
      "start": 25.9527,
      "duration": 0.0997,
      "velocity": 104,
      "chip": "ym2612"
    },
    {
      "channel": 1,
      "note": 66,
      "start": 26.0525,
      "duration": 0.0995,
      "velocity": 104,
      "chip": "ym2612"
    },
    {
      "channel": 3,
      "note": 69,
      "start": 26.0541,
      "duration": 0.1498,
      "velocity": 91,
      "chip": "ym2612"
    },
    {
      "channel": 4,
      "note": 56,
      "start": 26.0553,
      "duration": 0.1991,
      "velocity": 68,
      "chip": "ym2612"
    },
    {
      "channel": 5,
      "note": 47,
      "start": 26.0565,
      "duration": 0.1991,
      "velocity": 70,
      "chip": "ym2612"
    },
    {
      "channel": 1,
      "note": 66,
      "start": 26.152,
      "duration": 0.1,
      "velocity": 104,
      "chip": "ym2612"
    },
    {
      "channel": 2,
      "note": 42,
      "start": 26.2028,
      "duration": 0.2999,
      "velocity": 90,
      "chip": "ym2612"
    },
    {
      "channel": 3,
      "note": 64,
      "start": 26.2039,
      "duration": 0.1497,
      "velocity": 91,
      "chip": "ym2612"
    },
    {
      "channel": 1,
      "note": 66,
      "start": 26.252,
      "duration": 0.0999,
      "velocity": 104,
      "chip": "ym2612"
    },
    {
      "channel": 4,
      "note": 47,
      "start": 26.2545,
      "duration": 0.1999,
      "velocity": 64,
      "chip": "ym2612"
    },
    {
      "channel": 5,
      "note": 55,
      "start": 26.2557,
      "duration": 0.1999,
      "velocity": 68,
      "chip": "ym2612"
    },
    {
      "channel": 1,
      "note": 66,
      "start": 26.352,
      "duration": 0.1,
      "velocity": 104,
      "chip": "ym2612"
    },
    {
      "channel": 3,
      "note": 66,
      "start": 26.3536,
      "duration": 0.1501,
      "velocity": 91,
      "chip": "ym2612"
    },
    {
      "channel": 1,
      "note": 66,
      "start": 26.452,
      "duration": 0.0999,
      "velocity": 104,
      "chip": "ym2612"
    },
    {
      "channel": 4,
      "note": 58,
      "start": 26.4545,
      "duration": 0.2003,
      "velocity": 61,
      "chip": "ym2612"
    },
    {
      "channel": 5,
      "note": 47,
      "start": 26.4557,
      "duration": 0.2003,
      "velocity": 65,
      "chip": "ym2612"
    },
    {
      "channel": 2,
      "note": 49,
      "start": 26.5027,
      "duration": 0.2999,
      "velocity": 90,
      "chip": "ym2612"
    },
    {
      "channel": 3,
      "note": 71,
      "start": 26.5038,
      "duration": 0.1498,
      "velocity": 91,
      "chip": "ym2612"
    },
    {
      "channel": 1,
      "note": 66,
      "start": 26.552,
      "duration": 0.1,
      "velocity": 104,
      "chip": "ym2612"
    },
    {
      "channel": 1,
      "note": 66,
      "start": 26.652,
      "duration": 0.1,
      "velocity": 104,
      "chip": "ym2612"
    },
    {
      "channel": 3,
      "note": 76,
      "start": 26.6536,
      "duration": 0.1501,
      "velocity": 91,
      "chip": "ym2612"
    },
    {
      "channel": 4,
      "note": 47,
      "start": 26.6549,
      "duration": 0.1995,
      "velocity": 58,
      "chip": "ym2612"
    },
    {
      "channel": 5,
      "note": 56,
      "start": 26.6561,
      "duration": 0.1995,
      "velocity": 61,
      "chip": "ym2612"
    },
    {
      "channel": 1,
      "note": 66,
      "start": 26.752,
      "duration": 0.1,
      "velocity": 104,
      "chip": "ym2612"
    },
    {
      "channel": 2,
      "note": 48,
      "start": 26.8027,
      "duration": 0.2999,
      "velocity": 90,
      "chip": "ym2612"
    },
    {
      "channel": 3,
      "note": 78,
      "start": 26.8038,
      "duration": 0.2999,
      "velocity": 91,
      "chip": "ym2612"
    },
    {
      "channel": 1,
      "note": 66,
      "start": 26.852,
      "duration": 0.0999,
      "velocity": 104,
      "chip": "ym2612"
    },
    {
      "channel": 4,
      "note": 59,
      "start": 26.8544,
      "duration": 0.2,
      "velocity": 57,
      "chip": "ym2612"
    },
    {
      "channel": 5,
      "note": 47,
      "start": 26.8557,
      "duration": 0.1999,
      "velocity": 59,
      "chip": "ym2612"
    },
    {
      "channel": 1,
      "note": 66,
      "start": 26.952,
      "duration": 0.1,
      "velocity": 104,
      "chip": "ym2612"
    },
    {
      "channel": 1,
      "note": 66,
      "start": 27.052,
      "duration": 0.0999,
      "velocity": 104,
      "chip": "ym2612"
    },
    {
      "channel": 4,
      "note": 47,
      "start": 27.0545,
      "duration": 0.2,
      "velocity": 56,
      "chip": "ym2612"
    },
    {
      "channel": 5,
      "note": 58,
      "start": 27.0557,
      "duration": 0.2001,
      "velocity": 57,
      "chip": "ym2612"
    },
    {
      "channel": 2,
      "note": 52,
      "start": 27.1027,
      "duration": 0.2999,
      "velocity": 90,
      "chip": "ym2612"
    },
    {
      "channel": 3,
      "note": 83,
      "start": 27.1038,
      "duration": 0.2999,
      "velocity": 91,
      "chip": "ym2612"
    },
    {
      "channel": 1,
      "note": 66,
      "start": 27.152,
      "duration": 0.1001,
      "velocity": 104,
      "chip": "ym2612"
    },
    {
      "channel": 1,
      "note": 66,
      "start": 27.2521,
      "duration": 0.0998,
      "velocity": 104,
      "chip": "ym2612"
    },
    {
      "channel": 4,
      "note": 58,
      "start": 27.2546,
      "duration": 0.1999,
      "velocity": 57,
      "chip": "ym2612"
    },
    {
      "channel": 5,
      "note": 47,
      "start": 27.2558,
      "duration": 0.1999,
      "velocity": 55,
      "chip": "ym2612"
    },
    {
      "channel": 1,
      "note": 66,
      "start": 27.352,
      "duration": 0.1,
      "velocity": 104,
      "chip": "ym2612"
    },
    {
      "channel": 2,
      "note": 51,
      "start": 27.4027,
      "duration": 0.2833,
      "velocity": 90,
      "chip": "ym2612"
    },
    {
      "channel": 3,
      "note": 81,
      "start": 27.4038,
      "duration": 0.2833,
      "velocity": 91,
      "chip": "ym2612"
    },
    {
      "channel": 1,
      "note": 66,
      "start": 27.452,
      "duration": 0.0999,
      "velocity": 104,
      "chip": "ym2612"
    },
    {
      "channel": 4,
      "note": 47,
      "start": 27.4545,
      "duration": 0.1833,
      "velocity": 59,
      "chip": "ym2612"
    },
    {
      "channel": 5,
      "note": 59,
      "start": 27.4557,
      "duration": 0.1833,
      "velocity": 53,
      "chip": "ym2612"
    },
    {
      "channel": 1,
      "note": 66,
      "start": 27.552,
      "duration": 0.0833,
      "velocity": 104,
      "chip": "ym2612"
    },
    {
      "channel": 1,
      "note": 66,
      "start": 27.6354,
      "duration": 0.0999,
      "velocity": 104,
      "chip": "ym2612"
    },
    {
      "channel": 4,
      "note": 56,
      "start": 27.6378,
      "duration": 0.1999,
      "velocity": 61,
      "chip": "ym2612"
    },
    {
      "channel": 5,
      "note": 47,
      "start": 27.639,
      "duration": 0.1999,
      "velocity": 53,
      "chip": "ym2612"
    },
    {
      "channel": 2,
      "note": 54,
      "start": 27.6861,
      "duration": 0.2999,
      "velocity": 90,
      "chip": "ym2612"
    },
    {
      "channel": 3,
      "note": 88,
      "start": 27.6871,
      "duration": 0.2999,
      "velocity": 91,
      "chip": "ym2612"
    },
    {
      "channel": 1,
      "note": 66,
      "start": 27.7353,
      "duration": 0.1,
      "velocity": 104,
      "chip": "ym2612"
    },
    {
      "channel": 1,
      "note": 66,
      "start": 27.8353,
      "duration": 0.1,
      "velocity": 104,
      "chip": "ym2612"
    },
    {
      "channel": 4,
      "note": 47,
      "start": 27.8378,
      "duration": 0.2,
      "velocity": 65,
      "chip": "ym2612"
    },
    {
      "channel": 5,
      "note": 58,
      "start": 27.839,
      "duration": 0.1999,
      "velocity": 54,
      "chip": "ym2612"
    },
    {
      "channel": 1,
      "note": 66,
      "start": 27.9353,
      "duration": 0.1,
      "velocity": 104,
      "chip": "ym2612"
    },
    {
      "channel": 2,
      "note": 52,
      "start": 27.9861,
      "duration": 0.2999,
      "velocity": 90,
      "chip": "ym2612"
    },
    {
      "channel": 3,
      "note": 81,
      "start": 27.9871,
      "duration": 0.1498,
      "velocity": 91,
      "chip": "ym2612"
    },
    {
      "channel": 1,
      "note": 66,
      "start": 28.0354,
      "duration": 0.0999,
      "velocity": 104,
      "chip": "ym2612"
    },
    {
      "channel": 4,
      "note": 55,
      "start": 28.0378,
      "duration": 0.2,
      "velocity": 69,
      "chip": "ym2612"
    },
    {
      "channel": 5,
      "note": 47,
      "start": 28.039,
      "duration": 0.1999,
      "velocity": 55,
      "chip": "ym2612"
    },
    {
      "channel": 1,
      "note": 66,
      "start": 28.1353,
      "duration": 0.1,
      "velocity": 104,
      "chip": "ym2612"
    },
    {
      "channel": 3,
      "note": 83,
      "start": 28.1369,
      "duration": 0.3003,
      "velocity": 91,
      "chip": "ym2612"
    },
    {
      "channel": 1,
      "note": 66,
      "start": 28.2354,
      "duration": 0.0999,
      "velocity": 104,
      "chip": "ym2612"
    },
    {
      "channel": 4,
      "note": 47,
      "start": 28.2378,
      "duration": 0.2006,
      "velocity": 73,
      "chip": "ym2612"
    },
    {
      "channel": 5,
      "note": 56,
      "start": 28.239,
      "duration": 0.2006,
      "velocity": 57,
      "chip": "ym2612"
    },
    {
      "channel": 2,
      "note": 46,
      "start": 28.2861,
      "duration": 0.2999,
      "velocity": 90,
      "chip": "ym2612"
    },
    {
      "channel": 1,
      "note": 66,
      "start": 28.3353,
      "duration": 0.1003,
      "velocity": 104,
      "chip": "ym2612"
    },
    {
      "channel": 1,
      "note": 66,
      "start": 28.4357,
      "duration": 0.0996,
      "velocity": 104,
      "chip": "ym2612"
    },
    {
      "channel": 3,
      "note": 76,
      "start": 28.4373,
      "duration": 0.2996,
      "velocity": 91,
      "chip": "ym2612"
    },
    {
      "channel": 4,
      "note": 54,
      "start": 28.4385,
      "duration": 0.1992,
      "velocity": 78,
      "chip": "ym2612"
    },
    {
      "channel": 5,
      "note": 47,
      "start": 28.4398,
      "duration": 0.1993,
      "velocity": 59,
      "chip": "ym2612"
    },
    {
      "channel": 1,
      "note": 66,
      "start": 28.5353,
      "duration": 0.1,
      "velocity": 104,
      "chip": "ym2612"
    },
    {
      "channel": 2,
      "note": 42,
      "start": 28.5861,
      "duration": 0.2999,
      "velocity": 90,
      "chip": "ym2612"
    },
    {
      "channel": 1,
      "note": 66,
      "start": 28.6354,
      "duration": 0.0999,
      "velocity": 104,
      "chip": "ym2612"
    },
    {
      "channel": 4,
      "note": 45,
      "start": 28.6378,
      "duration": 0.1999,
      "velocity": 81,
      "chip": "ym2612"
    },
    {
      "channel": 5,
      "note": 55,
      "start": 28.6391,
      "duration": 0.1999,
      "velocity": 63,
      "chip": "ym2612"
    },
    {
      "channel": 1,
      "note": 66,
      "start": 28.7353,
      "duration": 0.1,
      "velocity": 104,
      "chip": "ym2612"
    },
    {
      "channel": 3,
      "note": 78,
      "start": 28.7369,
      "duration": 0.3001,
      "velocity": 91,
      "chip": "ym2612"
    },
    {
      "channel": 1,
      "note": 66,
      "start": 28.8354,
      "duration": 0.0999,
      "velocity": 104,
      "chip": "ym2612"
    },
    {
      "channel": 4,
      "note": 53,
      "start": 28.8378,
      "duration": 0.2004,
      "velocity": 84,
      "chip": "ym2612"
    },
    {
      "channel": 5,
      "note": 47,
      "start": 28.839,
      "duration": 0.2005,
      "velocity": 65,
      "chip": "ym2612"
    },
    {
      "channel": 2,
      "note": 49,
      "start": 28.8861,
      "duration": 0.2999,
      "velocity": 90,
      "chip": "ym2612"
    },
    {
      "channel": 1,
      "note": 66,
      "start": 28.9353,
      "duration": 0.1001,
      "velocity": 104,
      "chip": "ym2612"
    },
    {
      "channel": 1,
      "note": 66,
      "start": 29.0354,
      "duration": 0.0999,
      "velocity": 104,
      "chip": "ym2612"
    },
    {
      "channel": 3,
      "note": 83,
      "start": 29.0371,
      "duration": 0.2998,
      "velocity": 91,
      "chip": "ym2612"
    },
    {
      "channel": 4,
      "note": 45,
      "start": 29.0383,
      "duration": 0.1995,
      "velocity": 86,
      "chip": "ym2612"
    },
    {
      "channel": 5,
      "note": 54,
      "start": 29.0395,
      "duration": 0.1994,
      "velocity": 69,
      "chip": "ym2612"
    },
    {
      "channel": 1,
      "note": 66,
      "start": 29.1353,
      "duration": 0.1,
      "velocity": 104,
      "chip": "ym2612"
    },
    {
      "channel": 2,
      "note": 48,
      "start": 29.1861,
      "duration": 0.2999,
      "velocity": 90,
      "chip": "ym2612"
    },
    {
      "channel": 1,
      "note": 66,
      "start": 29.2354,
      "duration": 0.0999,
      "velocity": 104,
      "chip": "ym2612"
    },
    {
      "channel": 4,
      "note": 54,
      "start": 29.2378,
      "duration": 0.2,
      "velocity": 88,
      "chip": "ym2612"
    },
    {
      "channel": 5,
      "note": 45,
      "start": 29.239,
      "duration": 0.2,
      "velocity": 71,
      "chip": "ym2612"
    },
    {
      "channel": 1,
      "note": 66,
      "start": 29.3353,
      "duration": 0.1,
      "velocity": 104,
      "chip": "ym2612"
    },
    {
      "channel": 3,
      "note": 76,
      "start": 29.3369,
      "duration": 0.3,
      "velocity": 91,
      "chip": "ym2612"
    },
    {
      "channel": 1,
      "note": 66,
      "start": 29.4354,
      "duration": 0.0999,
      "velocity": 104,
      "chip": "ym2612"
    },
    {
      "channel": 4,
      "note": 45,
      "start": 29.4378,
      "duration": 0.2004,
      "velocity": 89,
      "chip": "ym2612"
    },
    {
      "channel": 5,
      "note": 53,
      "start": 29.4391,
      "duration": 0.2003,
      "velocity": 73,
      "chip": "ym2612"
    },
    {
      "channel": 2,
      "note": 52,
      "start": 29.4861,
      "duration": 0.2833,
      "velocity": 90,
      "chip": "ym2612"
    },
    {
      "channel": 1,
      "note": 66,
      "start": 29.5353,
      "duration": 0.1001,
      "velocity": 104,
      "chip": "ym2612"
    },
    {
      "channel": 1,
      "note": 66,
      "start": 29.6354,
      "duration": 0.0832,
      "velocity": 104,
      "chip": "ym2612"
    },
    {
      "channel": 3,
      "note": 78,
      "start": 29.637,
      "duration": 0.2832,
      "velocity": 91,
      "chip": "ym2612"
    },
    {
      "channel": 4,
      "note": 56,
      "start": 29.6383,
      "duration": 0.1828,
      "velocity": 88,
      "chip": "ym2612"
    },
    {
      "channel": 5,
      "note": 45,
      "start": 29.6395,
      "duration": 0.1828,
      "velocity": 74,
      "chip": "ym2612"
    },
    {
      "channel": 1,
      "note": 66,
      "start": 29.7186,
      "duration": 0.1,
      "velocity": 104,
      "chip": "ym2612"
    },
    {
      "channel": 2,
      "note": 51,
      "start": 29.7694,
      "duration": 0.2999,
      "velocity": 90,
      "chip": "ym2612"
    },
    {
      "channel": 1,
      "note": 66,
      "start": 29.8187,
      "duration": 0.0999,
      "velocity": 104,
      "chip": "ym2612"
    },
    {
      "channel": 4,
      "note": 45,
      "start": 29.8212,
      "duration": 0.1999,
      "velocity": 86,
      "chip": "ym2612"
    },
    {
      "channel": 5,
      "note": 54,
      "start": 29.8224,
      "duration": 0.1999,
      "velocity": 76,
      "chip": "ym2612"
    },
    {
      "channel": 1,
      "note": 66,
      "start": 29.9187,
      "duration": 0.0999,
      "velocity": 104,
      "chip": "ym2612"
    },
    {
      "channel": 3,
      "note": 85,
      "start": 29.9203,
      "duration": 0.3,
      "velocity": 91,
      "chip": "ym2612"
    },
    {
      "channel": 1,
      "note": 66,
      "start": 30.0187,
      "duration": 0.0999,
      "velocity": 104,
      "chip": "ym2612"
    },
    {
      "channel": 4,
      "note": 57,
      "start": 30.0212,
      "duration": 0.2002,
      "velocity": 83,
      "chip": "ym2612"
    },
    {
      "channel": 5,
      "note": 45,
      "start": 30.0224,
      "duration": 0.2002,
      "velocity": 76,
      "chip": "ym2612"
    },
    {
      "channel": 2,
      "note": 54,
      "start": 30.0694,
      "duration": 0.2999,
      "velocity": 90,
      "chip": "ym2612"
    },
    {
      "channel": 1,
      "note": 66,
      "start": 30.1186,
      "duration": 0.1,
      "velocity": 104,
      "chip": "ym2612"
    },
    {
      "channel": 1,
      "note": 66,
      "start": 30.2186,
      "duration": 0.1,
      "velocity": 104,
      "chip": "ym2612"
    },
    {
      "channel": 3,
      "note": 83,
      "start": 30.2203,
      "duration": 0.3,
      "velocity": 91,
      "chip": "ym2612"
    },
    {
      "channel": 4,
      "note": 45,
      "start": 30.2215,
      "duration": 0.1996,
      "velocity": 80,
      "chip": "ym2612"
    },
    {
      "channel": 5,
      "note": 56,
      "start": 30.2227,
      "duration": 0.1996,
      "velocity": 76,
      "chip": "ym2612"
    },
    {
      "channel": 1,
      "note": 66,
      "start": 30.3186,
      "duration": 0.1,
      "velocity": 104,
      "chip": "ym2612"
    },
    {
      "channel": 2,
      "note": 52,
      "start": 30.3694,
      "duration": 0.2999,
      "velocity": 90,
      "chip": "ym2612"
    },
    {
      "channel": 1,
      "note": 66,
      "start": 30.4187,
      "duration": 0.0999,
      "velocity": 104,
      "chip": "ym2612"
    },
    {
      "channel": 4,
      "note": 56,
      "start": 30.4211,
      "duration": 0.2,
      "velocity": 76,
      "chip": "ym2612"
    },
    {
      "channel": 5,
      "note": 45,
      "start": 30.4224,
      "duration": 0.1999,
      "velocity": 74,
      "chip": "ym2612"
    },
    {
      "channel": 1,
      "note": 66,
      "start": 30.5186,
      "duration": 0.1,
      "velocity": 104,
      "chip": "ym2612"
    },
    {
      "channel": 3,
      "note": 90,
      "start": 30.5203,
      "duration": 0.3005,
      "velocity": 91,
      "chip": "ym2612"
    },
    {
      "channel": 1,
      "note": 66,
      "start": 30.6187,
      "duration": 0.0999,
      "velocity": 104,
      "chip": "ym2612"
    },
    {
      "channel": 4,
      "note": 45,
      "start": 30.6212,
      "duration": 0.2007,
      "velocity": 72,
      "chip": "ym2612"
    },
    {
      "channel": 5,
      "note": 57,
      "start": 30.6224,
      "duration": 0.2008,
      "velocity": 72,
      "chip": "ym2612"
    },
    {
      "channel": 2,
      "note": 46,
      "start": 30.6694,
      "duration": 0.2999,
      "velocity": 90,
      "chip": "ym2612"
    },
    {
      "channel": 1,
      "note": 66,
      "start": 30.7186,
      "duration": 0.1005,
      "velocity": 104,
      "chip": "ym2612"
    },
    {
      "channel": 1,
      "note": 66,
      "start": 30.8191,
      "duration": 0.0995,
      "velocity": 104,
      "chip": "ym2612"
    },
    {
      "channel": 3,
      "note": 88,
      "start": 30.8208,
      "duration": 0.1497,
      "velocity": 91,
      "chip": "ym2612"
    },
    {
      "channel": 4,
      "note": 54,
      "start": 30.822,
      "duration": 0.1991,
      "velocity": 68,
      "chip": "ym2612"
    },
    {
      "channel": 5,
      "note": 45,
      "start": 30.8232,
      "duration": 0.1991,
      "velocity": 70,
      "chip": "ym2612"
    },
    {
      "channel": 1,
      "note": 66,
      "start": 30.9186,
      "duration": 0.1,
      "velocity": 104,
      "chip": "ym2612"
    },
    {
      "channel": 2,
      "note": 42,
      "start": 30.9694,
      "duration": 0.2999,
      "velocity": 90,
      "chip": "ym2612"
    },
    {
      "channel": 3,
      "note": 93,
      "start": 30.9705,
      "duration": 0.2999,
      "velocity": 91,
      "chip": "ym2612"
    },
    {
      "channel": 1,
      "note": 66,
      "start": 31.0187,
      "duration": 0.0999,
      "velocity": 104,
      "chip": "ym2612"
    },
    {
      "channel": 4,
      "note": 45,
      "start": 31.0212,
      "duration": 0.1999,
      "velocity": 64,
      "chip": "ym2612"
    },
    {
      "channel": 5,
      "note": 56,
      "start": 31.0224,
      "duration": 0.1999,
      "velocity": 68,
      "chip": "ym2612"
    },
    {
      "channel": 1,
      "note": 66,
      "start": 31.1186,
      "duration": 0.1,
      "velocity": 104,
      "chip": "ym2612"
    },
    {
      "channel": 1,
      "note": 66,
      "start": 31.2187,
      "duration": 0.0999,
      "velocity": 104,
      "chip": "ym2612"
    },
    {
      "channel": 4,
      "note": 53,
      "start": 31.2212,
      "duration": 0.2003,
      "velocity": 61,
      "chip": "ym2612"
    },
    {
      "channel": 5,
      "note": 45,
      "start": 31.2224,
      "duration": 0.2003,
      "velocity": 65,
      "chip": "ym2612"
    },
    {
      "channel": 2,
      "note": 49,
      "start": 31.2694,
      "duration": 0.2999,
      "velocity": 90,
      "chip": "ym2612"
    },
    {
      "channel": 3,
      "note": 90,
      "start": 31.2705,
      "duration": 0.1498,
      "velocity": 91,
      "chip": "ym2612"
    },
    {
      "channel": 1,
      "note": 66,
      "start": 31.3186,
      "duration": 0.1,
      "velocity": 104,
      "chip": "ym2612"
    },
    {
      "channel": 1,
      "note": 66,
      "start": 31.4186,
      "duration": 0.1,
      "velocity": 104,
      "chip": "ym2612"
    },
    {
      "channel": 3,
      "note": 81,
      "start": 31.4203,
      "duration": 0.1501,
      "velocity": 91,
      "chip": "ym2612"
    },
    {
      "channel": 4,
      "note": 45,
      "start": 31.4216,
      "duration": 0.1995,
      "velocity": 58,
      "chip": "ym2612"
    },
    {
      "channel": 5,
      "note": 54,
      "start": 31.4228,
      "duration": 0.1995,
      "velocity": 61,
      "chip": "ym2612"
    },
    {
      "channel": 1,
      "note": 66,
      "start": 31.5186,
      "duration": 0.1,
      "velocity": 104,
      "chip": "ym2612"
    },
    {
      "channel": 2,
      "note": 48,
      "start": 31.5694,
      "duration": 0.2833,
      "velocity": 90,
      "chip": "ym2612"
    },
    {
      "channel": 3,
      "note": 83,
      "start": 31.5705,
      "duration": 0.1498,
      "velocity": 91,
      "chip": "ym2612"
    },
    {
      "channel": 1,
      "note": 66,
      "start": 31.6187,
      "duration": 0.0999,
      "velocity": 104,
      "chip": "ym2612"
    },
    {
      "channel": 4,
      "note": 54,
      "start": 31.6212,
      "duration": 0.1999,
      "velocity": 57,
      "chip": "ym2612"
    },
    {
      "channel": 5,
      "note": 45,
      "start": 31.6224,
      "duration": 0.1999,
      "velocity": 59,
      "chip": "ym2612"
    },
    {
      "channel": 1,
      "note": 66,
      "start": 31.7186,
      "duration": 0.1,
      "velocity": 104,
      "chip": "ym2612"
    },
    {
      "channel": 3,
      "note": 81,
      "start": 31.7203,
      "duration": 0.1335,
      "velocity": 91,
      "chip": "ym2612"
    },
    {
      "channel": 1,
      "note": 66,
      "start": 31.8187,
      "duration": 0.0832,
      "velocity": 104,
      "chip": "ym2612"
    },
    {
      "channel": 4,
      "note": 45,
      "start": 31.8212,
      "duration": 0.1837,
      "velocity": 56,
      "chip": "ym2612"
    },
    {
      "channel": 5,
      "note": 53,
      "start": 31.8224,
      "duration": 0.1837,
      "velocity": 57,
      "chip": "ym2612"
    },
    {
      "channel": 2,
      "note": 52,
      "start": 31.8527,
      "duration": 0.2999,
      "velocity": 90,
      "chip": "ym2612"
    },
    {
      "channel": 3,
      "note": 76,
      "start": 31.8538,
      "duration": 0.1498,
      "velocity": 91,
      "chip": "ym2612"
    },
    {
      "channel": 1,
      "note": 66,
      "start": 31.902,
      "duration": 0.1001,
      "velocity": 104,
      "chip": "ym2612"
    },
    {
      "channel": 1,
      "note": 66,
      "start": 32.0021,
      "duration": 0.0998,
      "velocity": 104,
      "chip": "ym2612"
    },
    {
      "channel": 3,
      "note": 78,
      "start": 32.0037,
      "duration": 0.1501,
      "velocity": 91,
      "chip": "ym2612"
    },
    {
      "channel": 4,
      "note": 53,
      "start": 32.0049,
      "duration": 0.1995,
      "velocity": 57,
      "chip": "ym2612"
    },
    {
      "channel": 5,
      "note": 45,
      "start": 32.0062,
      "duration": 0.1995,
      "velocity": 55,
      "chip": "ym2612"
    },
    {
      "channel": 1,
      "note": 66,
      "start": 32.102,
      "duration": 0.1,
      "velocity": 104,
      "chip": "ym2612"
    },
    {
      "channel": 2,
      "note": 51,
      "start": 32.1527,
      "duration": 0.2999,
      "velocity": 90,
      "chip": "ym2612"
    },
    {
      "channel": 3,
      "note": 80,
      "start": 32.1538,
      "duration": 0.1498,
      "velocity": 91,
      "chip": "ym2612"
    },
    {
      "channel": 1,
      "note": 66,
      "start": 32.202,
      "duration": 0.0999,
      "velocity": 104,
      "chip": "ym2612"
    },
    {
      "channel": 4,
      "note": 45,
      "start": 32.2045,
      "duration": 0.1999,
      "velocity": 59,
      "chip": "ym2612"
    },
    {
      "channel": 5,
      "note": 54,
      "start": 32.2057,
      "duration": 0.1999,
      "velocity": 53,
      "chip": "ym2612"
    },
    {
      "channel": 1,
      "note": 66,
      "start": 32.302,
      "duration": 0.1,
      "velocity": 104,
      "chip": "ym2612"
    },
    {
      "channel": 3,
      "note": 78,
      "start": 32.3036,
      "duration": 0.1501,
      "velocity": 91,
      "chip": "ym2612"
    },
    {
      "channel": 1,
      "note": 66,
      "start": 32.402,
      "duration": 0.0999,
      "velocity": 104,
      "chip": "ym2612"
    },
    {
      "channel": 4,
      "note": 54,
      "start": 32.4045,
      "duration": 0.2002,
      "velocity": 61,
      "chip": "ym2612"
    },
    {
      "channel": 5,
      "note": 45,
      "start": 32.4057,
      "duration": 0.2002,
      "velocity": 53,
      "chip": "ym2612"
    },
    {
      "channel": 2,
      "note": 54,
      "start": 32.4527,
      "duration": 0.2999,
      "velocity": 90,
      "chip": "ym2612"
    },
    {
      "channel": 3,
      "note": 73,
      "start": 32.4538,
      "duration": 0.1498,
      "velocity": 91,
      "chip": "ym2612"
    },
    {
      "channel": 1,
      "note": 66,
      "start": 32.502,
      "duration": 0.1,
      "velocity": 104,
      "chip": "ym2612"
    },
    {
      "channel": 1,
      "note": 66,
      "start": 32.602,
      "duration": 0.1,
      "velocity": 104,
      "chip": "ym2612"
    },
    {
      "channel": 3,
      "note": 71,
      "start": 32.6036,
      "duration": 0.1502,
      "velocity": 91,
      "chip": "ym2612"
    },
    {
      "channel": 4,
      "note": 45,
      "start": 32.6048,
      "duration": 0.1996,
      "velocity": 65,
      "chip": "ym2612"
    },
    {
      "channel": 5,
      "note": 53,
      "start": 32.606,
      "duration": 0.1996,
      "velocity": 54,
      "chip": "ym2612"
    },
    {
      "channel": 1,
      "note": 66,
      "start": 32.702,
      "duration": 0.1,
      "velocity": 104,
      "chip": "ym2612"
    },
    {
      "channel": 2,
      "note": 52,
      "start": 32.7527,
      "duration": 0.2999,
      "velocity": 90,
      "chip": "ym2612"
    },
    {
      "channel": 3,
      "note": 69,
      "start": 32.7538,
      "duration": 0.1498,
      "velocity": 91,
      "chip": "ym2612"
    },
    {
      "channel": 1,
      "note": 66,
      "start": 32.802,
      "duration": 0.0999,
      "velocity": 104,
      "chip": "ym2612"
    },
    {
      "channel": 4,
      "note": 56,
      "start": 32.8044,
      "duration": 0.2,
      "velocity": 69,
      "chip": "ym2612"
    },
    {
      "channel": 5,
      "note": 45,
      "start": 32.8057,
      "duration": 0.1999,
      "velocity": 55,
      "chip": "ym2612"
    },
    {
      "channel": 1,
      "note": 66,
      "start": 32.902,
      "duration": 0.1,
      "velocity": 104,
      "chip": "ym2612"
    },
    {
      "channel": 3,
      "note": 71,
      "start": 32.9036,
      "duration": 0.1501,
      "velocity": 91,
      "chip": "ym2612"
    },
    {
      "channel": 1,
      "note": 66,
      "start": 33.002,
      "duration": 0.0999,
      "velocity": 104,
      "chip": "ym2612"
    },
    {
      "channel": 4,
      "note": 45,
      "start": 33.0045,
      "duration": 0.2004,
      "velocity": 73,
      "chip": "ym2612"
    },
    {
      "channel": 5,
      "note": 54,
      "start": 33.0057,
      "duration": 0.2005,
      "velocity": 57,
      "chip": "ym2612"
    },
    {
      "channel": 2,
      "note": 46,
      "start": 33.0527,
      "duration": 0.2999,
      "velocity": 90,
      "chip": "ym2612"
    },
    {
      "channel": 3,
      "note": 76,
      "start": 33.0538,
      "duration": 0.1499,
      "velocity": 91,
      "chip": "ym2612"
    },
    {
      "channel": 1,
      "note": 66,
      "start": 33.102,
      "duration": 0.1001,
      "velocity": 104,
      "chip": "ym2612"
    },
    {
      "channel": 1,
      "note": 66,
      "start": 33.2022,
      "duration": 0.0998,
      "velocity": 104,
      "chip": "ym2612"
    },
    {
      "channel": 3,
      "note": 83,
      "start": 33.2037,
      "duration": 0.2998,
      "velocity": 91,
      "chip": "ym2612"
    },
    {
      "channel": 4,
      "note": 57,
      "start": 33.205,
      "duration": 0.1994,
      "velocity": 78,
      "chip": "ym2612"
    },
    {
      "channel": 5,
      "note": 45,
      "start": 33.2062,
      "duration": 0.1994,
      "velocity": 59,
      "chip": "ym2612"
    },
    {
      "channel": 1,
      "note": 66,
      "start": 33.302,
      "duration": 0.1,
      "velocity": 104,
      "chip": "ym2612"
    },
    {
      "channel": 2,
      "note": 42,
      "start": 33.3527,
      "duration": 0.2999,
      "velocity": 90,
      "chip": "ym2612"
    },
    {
      "channel": 1,
      "note": 66,
      "start": 33.402,
      "duration": 0.0999,
      "velocity": 104,
      "chip": "ym2612"
    },
    {
      "channel": 4,
      "note": 45,
      "start": 33.4045,
      "duration": 0.1999,
      "velocity": 81,
      "chip": "ym2612"
    },
    {
      "channel": 5,
      "note": 56,
      "start": 33.4057,
      "duration": 0.1999,
      "velocity": 63,
      "chip": "ym2612"
    },
    {
      "channel": 1,
      "note": 66,
      "start": 33.502,
      "duration": 0.1,
      "velocity": 104,
      "chip": "ym2612"
    },
    {
      "channel": 3,
      "note": 81,
      "start": 33.5036,
      "duration": 0.3,
      "velocity": 91,
      "chip": "ym2612"
    },
    {
      "channel": 1,
      "note": 66,
      "start": 33.602,
      "duration": 0.0999,
      "velocity": 104,
      "chip": "ym2612"
    },
    {
      "channel": 4,
      "note": 56,
      "start": 33.6045,
      "duration": 0.2003,
      "velocity": 84,
      "chip": "ym2612"
    },
    {
      "channel": 5,
      "note": 45,
      "start": 33.6057,
      "duration": 0.2003,
      "velocity": 65,
      "chip": "ym2612"
    },
    {
      "channel": 2,
      "note": 49,
      "start": 33.6527,
      "duration": 0.2999,
      "velocity": 90,
      "chip": "ym2612"
    },
    {
      "channel": 1,
      "note": 66,
      "start": 33.702,
      "duration": 0.1,
      "velocity": 104,
      "chip": "ym2612"
    },
    {
      "channel": 1,
      "note": 66,
      "start": 33.802,
      "duration": 0.1,
      "velocity": 104,
      "chip": "ym2612"
    },
    {
      "channel": 3,
      "note": 83,
      "start": 33.8036,
      "duration": 0.2833,
      "velocity": 91,
      "chip": "ym2612"
    },
    {
      "channel": 4,
      "note": 45,
      "start": 33.8049,
      "duration": 0.1829,
      "velocity": 86,
      "chip": "ym2612"
    },
    {
      "channel": 5,
      "note": 57,
      "start": 33.8061,
      "duration": 0.1829,
      "velocity": 69,
      "chip": "ym2612"
    },
    {
      "channel": 1,
      "note": 66,
      "start": 33.902,
      "duration": 0.0833,
      "velocity": 104,
      "chip": "ym2612"
    },
    {
      "channel": 2,
      "note": 48,
      "start": 33.9527,
      "duration": 0.2833,
      "velocity": 90,
      "chip": "ym2612"
    },
    {
      "channel": 1,
      "note": 66,
      "start": 33.9854,
      "duration": 0.0999,
      "velocity": 104,
      "chip": "ym2612"
    },
    {
      "channel": 4,
      "note": 54,
      "start": 33.9878,
      "duration": 0.1999,
      "velocity": 88,
      "chip": "ym2612"
    },
    {
      "channel": 5,
      "note": 45,
      "start": 33.989,
      "duration": 0.1999,
      "velocity": 71,
      "chip": "ym2612"
    },
    {
      "channel": 1,
      "note": 66,
      "start": 34.0854,
      "duration": 0.0999,
      "velocity": 104,
      "chip": "ym2612"
    },
    {
      "channel": 3,
      "note": 88,
      "start": 34.0869,
      "duration": 0.3,
      "velocity": 91,
      "chip": "ym2612"
    },
    {
      "channel": 1,
      "note": 66,
      "start": 34.1854,
      "duration": 0.0999,
      "velocity": 104,
      "chip": "ym2612"
    },
    {
      "channel": 4,
      "note": 45,
      "start": 34.1878,
      "duration": 0.2004,
      "velocity": 89,
      "chip": "ym2612"
    },
    {
      "channel": 5,
      "note": 56,
      "start": 34.189,
      "duration": 0.2004,
      "velocity": 73,
      "chip": "ym2612"
    },
    {
      "channel": 2,
      "note": 52,
      "start": 34.2361,
      "duration": 0.2999,
      "velocity": 90,
      "chip": "ym2612"
    },
    {
      "channel": 1,
      "note": 66,
      "start": 34.2853,
      "duration": 0.1001,
      "velocity": 104,
      "chip": "ym2612"
    },
    {
      "channel": 1,
      "note": 66,
      "start": 34.3854,
      "duration": 0.0998,
      "velocity": 104,
      "chip": "ym2612"
    },
    {
      "channel": 3,
      "note": 90,
      "start": 34.387,
      "duration": 0.2999,
      "velocity": 91,
      "chip": "ym2612"
    },
    {
      "channel": 4,
      "note": 53,
      "start": 34.3883,
      "duration": 0.1995,
      "velocity": 88,
      "chip": "ym2612"
    },
    {
      "channel": 5,
      "note": 45,
      "start": 34.3895,
      "duration": 0.1995,
      "velocity": 74,
      "chip": "ym2612"
    },
    {
      "channel": 1,
      "note": 66,
      "start": 34.4853,
      "duration": 0.1,
      "velocity": 104,
      "chip": "ym2612"
    },
    {
      "channel": 2,
      "note": 51,
      "start": 34.5361,
      "duration": 0.2999,
      "velocity": 90,
      "chip": "ym2612"
    },
    {
      "channel": 1,
      "note": 66,
      "start": 34.5854,
      "duration": 0.0999,
      "velocity": 104,
      "chip": "ym2612"
    },
    {
      "channel": 4,
      "note": 45,
      "start": 34.5878,
      "duration": 0.1999,
      "velocity": 86,
      "chip": "ym2612"
    },
    {
      "channel": 5,
      "note": 54,
      "start": 34.589,
      "duration": 0.1999,
      "velocity": 76,
      "chip": "ym2612"
    },
    {
      "channel": 1,
      "note": 66,
      "start": 34.6853,
      "duration": 0.1,
      "velocity": 104,
      "chip": "ym2612"
    },
    {
      "channel": 3,
      "note": 81,
      "start": 34.6869,
      "duration": 0.3,
      "velocity": 91,
      "chip": "ym2612"
    },
    {
      "channel": 1,
      "note": 66,
      "start": 34.7854,
      "duration": 0.0999,
      "velocity": 104,
      "chip": "ym2612"
    },
    {
      "channel": 4,
      "note": 54,
      "start": 34.7878,
      "duration": 0.2002,
      "velocity": 83,
      "chip": "ym2612"
    },
    {
      "channel": 5,
      "note": 45,
      "start": 34.789,
      "duration": 0.2002,
      "velocity": 76,
      "chip": "ym2612"
    },
    {
      "channel": 2,
      "note": 54,
      "start": 34.8361,
      "duration": 0.2999,
      "velocity": 90,
      "chip": "ym2612"
    },
    {
      "channel": 1,
      "note": 66,
      "start": 34.8853,
      "duration": 0.1,
      "velocity": 104,
      "chip": "ym2612"
    },
    {
      "channel": 1,
      "note": 66,
      "start": 34.9853,
      "duration": 0.1,
      "velocity": 104,
      "chip": "ym2612"
    },
    {
      "channel": 3,
      "note": 83,
      "start": 34.9869,
      "duration": 0.3,
      "velocity": 91,
      "chip": "ym2612"
    },
    {
      "channel": 4,
      "note": 45,
      "start": 34.9882,
      "duration": 0.1996,
      "velocity": 80,
      "chip": "ym2612"
    },
    {
      "channel": 5,
      "note": 53,
      "start": 34.9894,
      "duration": 0.1996,
      "velocity": 76,
      "chip": "ym2612"
    },
    {
      "channel": 1,
      "note": 66,
      "start": 35.0853,
      "duration": 0.1,
      "velocity": 104,
      "chip": "ym2612"
    },
    {
      "channel": 2,
      "note": 52,
      "start": 35.1361,
      "duration": 0.3,
      "velocity": 90,
      "chip": "ym2612"
    },
    {
      "channel": 1,
      "note": 66,
      "start": 35.1854,
      "duration": 0.0999,
      "velocity": 104,
      "chip": "ym2612"
    },
    {
      "channel": 4,
      "note": 53,
      "start": 35.1878,
      "duration": 0.2,
      "velocity": 76,
      "chip": "ym2612"
    },
    {
      "channel": 5,
      "note": 45,
      "start": 35.189,
      "duration": 0.2,
      "velocity": 74,
      "chip": "ym2612"
    },
    {
      "channel": 1,
      "note": 66,
      "start": 35.2853,
      "duration": 0.1,
      "velocity": 104,
      "chip": "ym2612"
    },
    {
      "channel": 3,
      "note": 76,
      "start": 35.2869,
      "duration": 0.3005,
      "velocity": 91,
      "chip": "ym2612"
    },
    {
      "channel": 1,
      "note": 66,
      "start": 35.3854,
      "duration": 0.0999,
      "velocity": 104,
      "chip": "ym2612"
    },
    {
      "channel": 4,
      "note": 45,
      "start": 35.3878,
      "duration": 0.2009,
      "velocity": 72,
      "chip": "ym2612"
    },
    {
      "channel": 5,
      "note": 54,
      "start": 35.3891,
      "duration": 0.2008,
      "velocity": 72,
      "chip": "ym2612"
    },
    {
      "channel": 2,
      "note": 46,
      "start": 35.4361,
      "duration": 0.3001,
      "velocity": 90,
      "chip": "ym2612"
    },
    {
      "channel": 1,
      "note": 66,
      "start": 35.4853,
      "duration": 0.1006,
      "velocity": 104,
      "chip": "ym2612"
    },
    {
      "channel": 1,
      "note": 66,
      "start": 35.5859,
      "duration": 0.0994,
      "velocity": 104,
      "chip": "ym2612"
    },
    {
      "channel": 3,
      "note": 71,
      "start": 35.5875,
      "duration": 0.049,
      "velocity": 91,
      "chip": "ym2612"
    },
    {
      "channel": 4,
      "note": 54,
      "start": 35.5888,
      "duration": 0.199,
      "velocity": 68,
      "chip": "ym2612"
    },
    {
      "channel": 5,
      "note": 45,
      "start": 35.59,
      "duration": 0.199,
      "velocity": 70,
      "chip": "ym2612"
    },
    {
      "channel": 3,
      "note": 71,
      "start": 35.6366,
      "duration": 0.2503,
      "velocity": 91,
      "chip": "ym2612"
    },
    {
      "channel": 1,
      "note": 66,
      "start": 35.6853,
      "duration": 0.1,
      "velocity": 104,
      "chip": "ym2612"
    },
    {
      "channel": 2,
      "note": 42,
      "start": 35.7362,
      "duration": 0.2999,
      "velocity": 90,
      "chip": "ym2612"
    },
    {
      "channel": 1,
      "note": 66,
      "start": 35.7854,
      "duration": 0.0999,
      "velocity": 104,
      "chip": "ym2612"
    },
    {
      "channel": 4,
      "note": 45,
      "start": 35.7878,
      "duration": 0.2,
      "velocity": 64,
      "chip": "ym2612"
    },
    {
      "channel": 5,
      "note": 53,
      "start": 35.789,
      "duration": 0.1999,
      "velocity": 68,
      "chip": "ym2612"
    },
    {
      "channel": 1,
      "note": 66,
      "start": 35.8853,
      "duration": 0.1,
      "velocity": 104,
      "chip": "ym2612"
    },
    {
      "channel": 3,
      "note": 73,
      "start": 35.8869,
      "duration": 0.2833,
      "velocity": 91,
      "chip": "ym2612"
    },
    {
      "channel": 1,
      "note": 66,
      "start": 35.9854,
      "duration": 0.0999,
      "velocity": 104,
      "chip": "ym2612"
    },
    {
      "channel": 4,
      "note": 56,
      "start": 35.9878,
      "duration": 0.1837,
      "velocity": 61,
      "chip": "ym2612"
    },
    {
      "channel": 5,
      "note": 45,
      "start": 35.989,
      "duration": 0.1837,
      "velocity": 65,
      "chip": "ym2612"
    },
    {
      "channel": 2,
      "note": 49,
      "start": 36.0361,
      "duration": 0.2832,
      "velocity": 90,
      "chip": "ym2612"
    },
    {
      "channel": 1,
      "note": 66,
      "start": 36.0853,
      "duration": 0.0833,
      "velocity": 104,
      "chip": "ym2612"
    },
    {
      "channel": 1,
      "note": 66,
      "start": 36.1686,
      "duration": 0.1,
      "velocity": 104,
      "chip": "ym2612"
    },
    {
      "channel": 3,
      "note": 76,
      "start": 36.1703,
      "duration": 0.3,
      "velocity": 91,
      "chip": "ym2612"
    },
    {
      "channel": 4,
      "note": 45,
      "start": 36.1716,
      "duration": 0.1995,
      "velocity": 58,
      "chip": "ym2612"
    },
    {
      "channel": 5,
      "note": 54,
      "start": 36.1728,
      "duration": 0.1995,
      "velocity": 61,
      "chip": "ym2612"
    },
    {
      "channel": 1,
      "note": 66,
      "start": 36.2686,
      "duration": 0.1,
      "velocity": 104,
      "chip": "ym2612"
    },
    {
      "channel": 2,
      "note": 48,
      "start": 36.3194,
      "duration": 0.2999,
      "velocity": 90,
      "chip": "ym2612"
    },
    {
      "channel": 1,
      "note": 66,
      "start": 36.3687,
      "duration": 0.0999,
      "velocity": 104,
      "chip": "ym2612"
    },
    {
      "channel": 4,
      "note": 57,
      "start": 36.3711,
      "duration": 0.2,
      "velocity": 57,
      "chip": "ym2612"
    },
    {
      "channel": 5,
      "note": 45,
      "start": 36.3724,
      "duration": 0.1999,
      "velocity": 59,
      "chip": "ym2612"
    },
    {
      "channel": 1,
      "note": 66,
      "start": 36.4686,
      "duration": 0.1,
      "velocity": 104,
      "chip": "ym2612"
    },
    {
      "channel": 3,
      "note": 78,
      "start": 36.4703,
      "duration": 0.3,
      "velocity": 91,
      "chip": "ym2612"
    },
    {
      "channel": 1,
      "note": 66,
      "start": 36.5687,
      "duration": 0.0999,
      "velocity": 104,
      "chip": "ym2612"
    },
    {
      "channel": 4,
      "note": 45,
      "start": 36.5712,
      "duration": 0.2004,
      "velocity": 56,
      "chip": "ym2612"
    },
    {
      "channel": 5,
      "note": 56,
      "start": 36.5724,
      "duration": 0.2004,
      "velocity": 57,
      "chip": "ym2612"
    },
    {
      "channel": 2,
      "note": 52,
      "start": 36.6194,
      "duration": 0.2999,
      "velocity": 90,
      "chip": "ym2612"
    },
    {
      "channel": 1,
      "note": 66,
      "start": 36.6686,
      "duration": 0.1001,
      "velocity": 104,
      "chip": "ym2612"
    },
    {
      "channel": 1,
      "note": 66,
      "start": 36.7688,
      "duration": 0.0998,
      "velocity": 104,
      "chip": "ym2612"
    },
    {
      "channel": 3,
      "note": 81,
      "start": 36.7703,
      "duration": 0.2999,
      "velocity": 91,
      "chip": "ym2612"
    },
    {
      "channel": 4,
      "note": 56,
      "start": 36.7716,
      "duration": 0.1995,
      "velocity": 57,
      "chip": "ym2612"
    },
    {
      "channel": 5,
      "note": 45,
      "start": 36.7728,
      "duration": 0.1995,
      "velocity": 55,
      "chip": "ym2612"
    },
    {
      "channel": 1,
      "note": 66,
      "start": 36.8686,
      "duration": 0.1,
      "velocity": 104,
      "chip": "ym2612"
    },
    {
      "channel": 2,
      "note": 51,
      "start": 36.9193,
      "duration": 0.3,
      "velocity": 90,
      "chip": "ym2612"
    },
    {
      "channel": 1,
      "note": 66,
      "start": 36.9687,
      "duration": 0.0999,
      "velocity": 104,
      "chip": "ym2612"
    },
    {
      "channel": 4,
      "note": 45,
      "start": 36.9712,
      "duration": 0.1999,
      "velocity": 59,
      "chip": "ym2612"
    },
    {
      "channel": 5,
      "note": 57,
      "start": 36.9724,
      "duration": 0.1999,
      "velocity": 53,
      "chip": "ym2612"
    },
    {
      "channel": 1,
      "note": 66,
      "start": 37.0686,
      "duration": 0.1,
      "velocity": 104,
      "chip": "ym2612"
    },
    {
      "channel": 3,
      "note": 78,
      "start": 37.0703,
      "duration": 0.3,
      "velocity": 91,
      "chip": "ym2612"
    },
    {
      "channel": 1,
      "note": 66,
      "start": 37.1687,
      "duration": 0.0999,
      "velocity": 104,
      "chip": "ym2612"
    },
    {
      "channel": 4,
      "note": 54,
      "start": 37.1712,
      "duration": 0.2002,
      "velocity": 61,
      "chip": "ym2612"
    },
    {
      "channel": 5,
      "note": 45,
      "start": 37.1724,
      "duration": 0.2003,
      "velocity": 53,
      "chip": "ym2612"
    },
    {
      "channel": 2,
      "note": 54,
      "start": 37.2194,
      "duration": 0.2999,
      "velocity": 90,
      "chip": "ym2612"
    },
    {
      "channel": 1,
      "note": 66,
      "start": 37.2686,
      "duration": 0.1,
      "velocity": 104,
      "chip": "ym2612"
    },
    {
      "channel": 1,
      "note": 66,
      "start": 37.3686,
      "duration": 0.1,
      "velocity": 104,
      "chip": "ym2612"
    },
    {
      "channel": 3,
      "note": 83,
      "start": 37.3703,
      "duration": 0.3,
      "velocity": 91,
      "chip": "ym2612"
    },
    {
      "channel": 4,
      "note": 45,
      "start": 37.3715,
      "duration": 0.1996,
      "velocity": 65,
      "chip": "ym2612"
    },
    {
      "channel": 5,
      "note": 56,
      "start": 37.3728,
      "duration": 0.1995,
      "velocity": 54,
      "chip": "ym2612"
    },
    {
      "channel": 1,
      "note": 66,
      "start": 37.4686,
      "duration": 0.1,
      "velocity": 104,
      "chip": "ym2612"
    },
    {
      "channel": 2,
      "note": 52,
      "start": 37.5194,
      "duration": 0.2999,
      "velocity": 90,
      "chip": "ym2612"
    },
    {
      "channel": 1,
      "note": 66,
      "start": 37.5687,
      "duration": 0.0999,
      "velocity": 104,
      "chip": "ym2612"
    },
    {
      "channel": 4,
      "note": 53,
      "start": 37.5711,
      "duration": 0.2,
      "velocity": 69,
      "chip": "ym2612"
    },
    {
      "channel": 5,
      "note": 45,
      "start": 37.5724,
      "duration": 0.1999,
      "velocity": 55,
      "chip": "ym2612"
    },
    {
      "channel": 1,
      "note": 66,
      "start": 37.6686,
      "duration": 0.1,
      "velocity": 104,
      "chip": "ym2612"
    },
    {
      "channel": 3,
      "note": 81,
      "start": 37.6703,
      "duration": 0.3008,
      "velocity": 91,
      "chip": "ym2612"
    },
    {
      "channel": 1,
      "note": 66,
      "start": 37.7687,
      "duration": 0.0999,
      "velocity": 104,
      "chip": "ym2612"
    },
    {
      "channel": 4,
      "note": 45,
      "start": 37.7712,
      "duration": 0.2011,
      "velocity": 73,
      "chip": "ym2612"
    },
    {
      "channel": 5,
      "note": 54,
      "start": 37.7724,
      "duration": 0.2011,
      "velocity": 57,
      "chip": "ym2612"
    },
    {
      "channel": 2,
      "note": 46,
      "start": 37.8194,
      "duration": 0.2999,
      "velocity": 90,
      "chip": "ym2612"
    },
    {
      "channel": 1,
      "note": 66,
      "start": 37.8686,
      "duration": 0.1008,
      "velocity": 104,
      "chip": "ym2612"
    },
    {
      "channel": 1,
      "note": 66,
      "start": 37.9695,
      "duration": 0.0991,
      "velocity": 104,
      "chip": "ym2612"
    },
    {
      "channel": 3,
      "note": 83,
      "start": 37.9711,
      "duration": 0.2824,
      "velocity": 91,
      "chip": "ym2612"
    },
    {
      "channel": 4,
      "note": 54,
      "start": 37.9724,
      "duration": 0.1987,
      "velocity": 78,
      "chip": "ym2612"
    },
    {
      "channel": 5,
      "note": 45,
      "start": 37.9736,
      "duration": 0.1988,
      "velocity": 59,
      "chip": "ym2612"
    },
    {
      "channel": 1,
      "note": 66,
      "start": 38.0686,
      "duration": 0.1,
      "velocity": 104,
      "chip": "ym2612"
    },
    {
      "channel": 2,
      "note": 42,
      "start": 38.1194,
      "duration": 0.2833,
      "velocity": 90,
      "chip": "ym2612"
    },
    {
      "channel": 1,
      "note": 66,
      "start": 38.1687,
      "duration": 0.0833,
      "velocity": 104,
      "chip": "ym2612"
    },
    {
      "channel": 4,
      "note": 45,
      "start": 38.1712,
      "duration": 0.1833,
      "velocity": 81,
      "chip": "ym2612"
    },
    {
      "channel": 5,
      "note": 53,
      "start": 38.1724,
      "duration": 0.1832,
      "velocity": 63,
      "chip": "ym2612"
    },
    {
      "channel": 1,
      "note": 66,
      "start": 38.252,
      "duration": 0.0999,
      "velocity": 104,
      "chip": "ym2612"
    },
    {
      "channel": 3,
      "note": 85,
      "start": 38.2536,
      "duration": 0.3001,
      "velocity": 91,
      "chip": "ym2612"
    },
    {
      "channel": 1,
      "note": 66,
      "start": 38.352,
      "duration": 0.0999,
      "velocity": 104,
      "chip": "ym2612"
    },
    {
      "channel": 4,
      "note": 53,
      "start": 38.3545,
      "duration": 0.2004,
      "velocity": 84,
      "chip": "ym2612"
    },
    {
      "channel": 5,
      "note": 45,
      "start": 38.3557,
      "duration": 0.2005,
      "velocity": 65,
      "chip": "ym2612"
    },
    {
      "channel": 2,
      "note": 49,
      "start": 38.4027,
      "duration": 0.2999,
      "velocity": 90,
      "chip": "ym2612"
    },
    {
      "channel": 1,
      "note": 66,
      "start": 38.452,
      "duration": 0.1001,
      "velocity": 104,
      "chip": "ym2612"
    },
    {
      "channel": 1,
      "note": 66,
      "start": 38.5522,
      "duration": 0.0998,
      "velocity": 104,
      "chip": "ym2612"
    },
    {
      "channel": 3,
      "note": 83,
      "start": 38.5537,
      "duration": 0.2998,
      "velocity": 91,
      "chip": "ym2612"
    },
    {
      "channel": 4,
      "note": 45,
      "start": 38.555,
      "duration": 0.1994,
      "velocity": 86,
      "chip": "ym2612"
    },
    {
      "channel": 5,
      "note": 54,
      "start": 38.5562,
      "duration": 0.1994,
      "velocity": 69,
      "chip": "ym2612"
    },
    {
      "channel": 1,
      "note": 66,
      "start": 38.652,
      "duration": 0.1,
      "velocity": 104,
      "chip": "ym2612"
    },
    {
      "channel": 2,
      "note": 48,
      "start": 38.7027,
      "duration": 0.2999,
      "velocity": 90,
      "chip": "ym2612"
    },
    {
      "channel": 1,
      "note": 66,
      "start": 38.752,
      "duration": 0.0999,
      "velocity": 104,
      "chip": "ym2612"
    },
    {
      "channel": 4,
      "note": 54,
      "start": 38.7544,
      "duration": 0.2,
      "velocity": 88,
      "chip": "ym2612"
    },
    {
      "channel": 5,
      "note": 45,
      "start": 38.7557,
      "duration": 0.2,
      "velocity": 71,
      "chip": "ym2612"
    },
    {
      "channel": 1,
      "note": 66,
      "start": 38.852,
      "duration": 0.1,
      "velocity": 104,
      "chip": "ym2612"
    },
    {
      "channel": 3,
      "note": 78,
      "start": 38.8536,
      "duration": 0.3,
      "velocity": 91,
      "chip": "ym2612"
    },
    {
      "channel": 1,
      "note": 66,
      "start": 38.952,
      "duration": 0.0999,
      "velocity": 104,
      "chip": "ym2612"
    },
    {
      "channel": 4,
      "note": 45,
      "start": 38.9545,
      "duration": 0.2004,
      "velocity": 89,
      "chip": "ym2612"
    },
    {
      "channel": 5,
      "note": 53,
      "start": 38.9558,
      "duration": 0.2003,
      "velocity": 73,
      "chip": "ym2612"
    },
    {
      "channel": 2,
      "note": 52,
      "start": 39.0027,
      "duration": 0.2999,
      "velocity": 90,
      "chip": "ym2612"
    },
    {
      "channel": 1,
      "note": 66,
      "start": 39.052,
      "duration": 0.1001,
      "velocity": 104,
      "chip": "ym2612"
    },
    {
      "channel": 1,
      "note": 66,
      "start": 39.1521,
      "duration": 0.0998,
      "velocity": 104,
      "chip": "ym2612"
    },
    {
      "channel": 3,
      "note": 81,
      "start": 39.1537,
      "duration": 0.2999,
      "velocity": 91,
      "chip": "ym2612"
    },
    {
      "channel": 4,
      "note": 56,
      "start": 39.1549,
      "duration": 0.1995,
      "velocity": 88,
      "chip": "ym2612"
    },
    {
      "channel": 5,
      "note": 45,
      "start": 39.1562,
      "duration": 0.1995,
      "velocity": 74,
      "chip": "ym2612"
    },
    {
      "channel": 1,
      "note": 66,
      "start": 39.252,
      "duration": 0.1,
      "velocity": 104,
      "chip": "ym2612"
    },
    {
      "channel": 2,
      "note": 51,
      "start": 39.3027,
      "duration": 0.2999,
      "velocity": 90,
      "chip": "ym2612"
    },
    {
      "channel": 1,
      "note": 66,
      "start": 39.352,
      "duration": 0.0999,
      "velocity": 104,
      "chip": "ym2612"
    },
    {
      "channel": 4,
      "note": 45,
      "start": 39.3545,
      "duration": 0.1999,
      "velocity": 86,
      "chip": "ym2612"
    },
    {
      "channel": 5,
      "note": 54,
      "start": 39.3557,
      "duration": 0.1999,
      "velocity": 76,
      "chip": "ym2612"
    },
    {
      "channel": 1,
      "note": 66,
      "start": 39.452,
      "duration": 0.1,
      "velocity": 104,
      "chip": "ym2612"
    },
    {
      "channel": 3,
      "note": 83,
      "start": 39.4536,
      "duration": 0.3,
      "velocity": 91,
      "chip": "ym2612"
    },
    {
      "channel": 1,
      "note": 66,
      "start": 39.552,
      "duration": 0.0999,
      "velocity": 104,
      "chip": "ym2612"
    },
    {
      "channel": 4,
      "note": 57,
      "start": 39.5545,
      "duration": 0.2002,
      "velocity": 83,
      "chip": "ym2612"
    },
    {
      "channel": 5,
      "note": 45,
      "start": 39.5557,
      "duration": 0.2002,
      "velocity": 76,
      "chip": "ym2612"
    },
    {
      "channel": 2,
      "note": 54,
      "start": 39.6027,
      "duration": 0.2999,
      "velocity": 90,
      "chip": "ym2612"
    },
    {
      "channel": 1,
      "note": 66,
      "start": 39.652,
      "duration": 0.1,
      "velocity": 104,
      "chip": "ym2612"
    },
    {
      "channel": 1,
      "note": 66,
      "start": 39.752,
      "duration": 0.1,
      "velocity": 104,
      "chip": "ym2612"
    },
    {
      "channel": 3,
      "note": 81,
      "start": 39.7536,
      "duration": 0.3,
      "velocity": 91,
      "chip": "ym2612"
    },
    {
      "channel": 4,
      "note": 45,
      "start": 39.7548,
      "duration": 0.1996,
      "velocity": 80,
      "chip": "ym2612"
    },
    {
      "channel": 5,
      "note": 56,
      "start": 39.756,
      "duration": 0.1996,
      "velocity": 76,
      "chip": "ym2612"
    },
    {
      "channel": 1,
      "note": 66,
      "start": 39.852,
      "duration": 0.1,
      "velocity": 104,
      "chip": "ym2612"
    },
    {
      "channel": 2,
      "note": 52,
      "start": 39.9027,
      "duration": 0.2999,
      "velocity": 90,
      "chip": "ym2612"
    },
    {
      "channel": 1,
      "note": 66,
      "start": 39.952,
      "duration": 0.0999,
      "velocity": 104,
      "chip": "ym2612"
    },
    {
      "channel": 4,
      "note": 56,
      "start": 39.9544,
      "duration": 0.2,
      "velocity": 76,
      "chip": "ym2612"
    },
    {
      "channel": 5,
      "note": 45,
      "start": 39.9557,
      "duration": 0.1999,
      "velocity": 74,
      "chip": "ym2612"
    },
    {
      "channel": 1,
      "note": 66,
      "start": 40.052,
      "duration": 0.1,
      "velocity": 104,
      "chip": "ym2612"
    },
    {
      "channel": 3,
      "note": 76,
      "start": 40.0536,
      "duration": 0.3001,
      "velocity": 91,
      "chip": "ym2612"
    },
    {
      "channel": 1,
      "note": 66,
      "start": 40.152,
      "duration": 0.0999,
      "velocity": 104,
      "chip": "ym2612"
    },
    {
      "channel": 4,
      "note": 45,
      "start": 40.1545,
      "duration": 0.2004,
      "velocity": 72,
      "chip": "ym2612"
    },
    {
      "channel": 5,
      "note": 57,
      "start": 40.1557,
      "duration": 0.2005,
      "velocity": 72,
      "chip": "ym2612"
    },
    {
      "channel": 2,
      "note": 46,
      "start": 40.2027,
      "duration": 0.2833,
      "velocity": 90,
      "chip": "ym2612"
    },
    {
      "channel": 1,
      "note": 66,
      "start": 40.252,
      "duration": 0.1001,
      "velocity": 104,
      "chip": "ym2612"
    },
    {
      "channel": 1,
      "note": 66,
      "start": 40.3522,
      "duration": 0.0831,
      "velocity": 104,
      "chip": "ym2612"
    },
    {
      "channel": 3,
      "note": 81,
      "start": 40.3537,
      "duration": 0.2832,
      "velocity": 91,
      "chip": "ym2612"
    },
    {
      "channel": 4,
      "note": 54,
      "start": 40.355,
      "duration": 0.1828,
      "velocity": 68,
      "chip": "ym2612"
    },
    {
      "channel": 5,
      "note": 45,
      "start": 40.3562,
      "duration": 0.1828,
      "velocity": 70,
      "chip": "ym2612"
    },
    {
      "channel": 1,
      "note": 66,
      "start": 40.4353,
      "duration": 0.1,
      "velocity": 104,
      "chip": "ym2612"
    },
    {
      "channel": 2,
      "note": 42,
      "start": 40.4861,
      "duration": 0.2999,
      "velocity": 90,
      "chip": "ym2612"
    },
    {
      "channel": 1,
      "note": 66,
      "start": 40.5354,
      "duration": 0.0999,
      "velocity": 104,
      "chip": "ym2612"
    },
    {
      "channel": 4,
      "note": 45,
      "start": 40.5378,
      "duration": 0.2,
      "velocity": 64,
      "chip": "ym2612"
    },
    {
      "channel": 5,
      "note": 56,
      "start": 40.539,
      "duration": 0.1999,
      "velocity": 68,
      "chip": "ym2612"
    },
    {
      "channel": 1,
      "note": 66,
      "start": 40.6353,
      "duration": 0.1,
      "velocity": 104,
      "chip": "ym2612"
    },
    {
      "channel": 3,
      "note": 83,
      "start": 40.6369,
      "duration": 0.3,
      "velocity": 91,
      "chip": "ym2612"
    },
    {
      "channel": 1,
      "note": 66,
      "start": 40.7354,
      "duration": 0.0999,
      "velocity": 104,
      "chip": "ym2612"
    },
    {
      "channel": 4,
      "note": 53,
      "start": 40.7378,
      "duration": 0.2003,
      "velocity": 61,
      "chip": "ym2612"
    },
    {
      "channel": 5,
      "note": 45,
      "start": 40.739,
      "duration": 0.2003,
      "velocity": 65,
      "chip": "ym2612"
    },
    {
      "channel": 2,
      "note": 49,
      "start": 40.7861,
      "duration": 0.2999,
      "velocity": 90,
      "chip": "ym2612"
    },
    {
      "channel": 1,
      "note": 66,
      "start": 40.8353,
      "duration": 0.1,
      "velocity": 104,
      "chip": "ym2612"
    },
    {
      "channel": 1,
      "note": 66,
      "start": 40.9353,
      "duration": 0.1,
      "velocity": 104,
      "chip": "ym2612"
    },
    {
      "channel": 3,
      "note": 88,
      "start": 40.9369,
      "duration": 0.3,
      "velocity": 91,
      "chip": "ym2612"
    },
    {
      "channel": 4,
      "note": 45,
      "start": 40.9382,
      "duration": 0.1995,
      "velocity": 58,
      "chip": "ym2612"
    },
    {
      "channel": 5,
      "note": 54,
      "start": 40.9394,
      "duration": 0.1995,
      "velocity": 61,
      "chip": "ym2612"
    },
    {
      "channel": 1,
      "note": 66,
      "start": 41.0353,
      "duration": 0.1,
      "velocity": 104,
      "chip": "ym2612"
    },
    {
      "channel": 2,
      "note": 48,
      "start": 41.0861,
      "duration": 0.2999,
      "velocity": 90,
      "chip": "ym2612"
    },
    {
      "channel": 1,
      "note": 66,
      "start": 41.1354,
      "duration": 0.0999,
      "velocity": 104,
      "chip": "ym2612"
    },
    {
      "channel": 4,
      "note": 54,
      "start": 41.1378,
      "duration": 0.2,
      "velocity": 57,
      "chip": "ym2612"
    },
    {
      "channel": 5,
      "note": 45,
      "start": 41.139,
      "duration": 0.1999,
      "velocity": 59,
      "chip": "ym2612"
    },
    {
      "channel": 1,
      "note": 66,
      "start": 41.2353,
      "duration": 0.1,
      "velocity": 104,
      "chip": "ym2612"
    },
    {
      "channel": 3,
      "note": 81,
      "start": 41.2369,
      "duration": 0.3,
      "velocity": 91,
      "chip": "ym2612"
    },
    {
      "channel": 1,
      "note": 66,
      "start": 41.3354,
      "duration": 0.0999,
      "velocity": 104,
      "chip": "ym2612"
    },
    {
      "channel": 4,
      "note": 45,
      "start": 41.3378,
      "duration": 0.2004,
      "velocity": 56,
      "chip": "ym2612"
    },
    {
      "channel": 5,
      "note": 53,
      "start": 41.339,
      "duration": 0.2004,
      "velocity": 57,
      "chip": "ym2612"
    },
    {
      "channel": 2,
      "note": 52,
      "start": 41.3861,
      "duration": 0.2999,
      "velocity": 90,
      "chip": "ym2612"
    },
    {
      "channel": 1,
      "note": 66,
      "start": 41.4353,
      "duration": 0.1001,
      "velocity": 104,
      "chip": "ym2612"
    },
    {
      "channel": 1,
      "note": 66,
      "start": 41.5354,
      "duration": 0.0998,
      "velocity": 104,
      "chip": "ym2612"
    },
    {
      "channel": 3,
      "note": 83,
      "start": 41.537,
      "duration": 0.2999,
      "velocity": 91,
      "chip": "ym2612"
    },
    {
      "channel": 4,
      "note": 53,
      "start": 41.5383,
      "duration": 0.1995,
      "velocity": 57,
      "chip": "ym2612"
    },
    {
      "channel": 5,
      "note": 45,
      "start": 41.5395,
      "duration": 0.1995,
      "velocity": 55,
      "chip": "ym2612"
    },
    {
      "channel": 1,
      "note": 66,
      "start": 41.6353,
      "duration": 0.1,
      "velocity": 104,
      "chip": "ym2612"
    },
    {
      "channel": 2,
      "note": 51,
      "start": 41.6861,
      "duration": 0.2999,
      "velocity": 90,
      "chip": "ym2612"
    },
    {
      "channel": 1,
      "note": 66,
      "start": 41.7354,
      "duration": 0.0999,
      "velocity": 104,
      "chip": "ym2612"
    },
    {
      "channel": 4,
      "note": 45,
      "start": 41.7378,
      "duration": 0.1999,
      "velocity": 59,
      "chip": "ym2612"
    },
    {
      "channel": 5,
      "note": 54,
      "start": 41.739,
      "duration": 0.1999,
      "velocity": 53,
      "chip": "ym2612"
    },
    {
      "channel": 1,
      "note": 66,
      "start": 41.8353,
      "duration": 0.1,
      "velocity": 104,
      "chip": "ym2612"
    },
    {
      "channel": 3,
      "note": 76,
      "start": 41.8369,
      "duration": 0.3,
      "velocity": 91,
      "chip": "ym2612"
    },
    {
      "channel": 1,
      "note": 66,
      "start": 41.9354,
      "duration": 0.0999,
      "velocity": 104,
      "chip": "ym2612"
    },
    {
      "channel": 4,
      "note": 54,
      "start": 41.9378,
      "duration": 0.2002,
      "velocity": 61,
      "chip": "ym2612"
    },
    {
      "channel": 5,
      "note": 45,
      "start": 41.939,
      "duration": 0.2002,
      "velocity": 53,
      "chip": "ym2612"
    },
    {
      "channel": 2,
      "note": 54,
      "start": 41.9861,
      "duration": 0.2999,
      "velocity": 90,
      "chip": "ym2612"
    },
    {
      "channel": 1,
      "note": 66,
      "start": 42.0353,
      "duration": 0.1,
      "velocity": 104,
      "chip": "ym2612"
    },
    {
      "channel": 1,
      "note": 66,
      "start": 42.1353,
      "duration": 0.1,
      "velocity": 104,
      "chip": "ym2612"
    },
    {
      "channel": 3,
      "note": 78,
      "start": 42.1369,
      "duration": 0.3,
      "velocity": 91,
      "chip": "ym2612"
    },
    {
      "channel": 4,
      "note": 45,
      "start": 42.1382,
      "duration": 0.1996,
      "velocity": 65,
      "chip": "ym2612"
    },
    {
      "channel": 5,
      "note": 53,
      "start": 42.1394,
      "duration": 0.1996,
      "velocity": 54,
      "chip": "ym2612"
    },
    {
      "channel": 1,
      "note": 66,
      "start": 42.2353,
      "duration": 0.1,
      "velocity": 104,
      "chip": "ym2612"
    },
    {
      "channel": 2,
      "note": 52,
      "start": 42.2861,
      "duration": 0.2833,
      "velocity": 90,
      "chip": "ym2612"
    },
    {
      "channel": 1,
      "note": 66,
      "start": 42.3354,
      "duration": 0.0999,
      "velocity": 104,
      "chip": "ym2612"
    },
    {
      "channel": 4,
      "note": 56,
      "start": 42.3378,
      "duration": 0.1833,
      "velocity": 69,
      "chip": "ym2612"
    },
    {
      "channel": 5,
      "note": 45,
      "start": 42.339,
      "duration": 0.1833,
      "velocity": 55,
      "chip": "ym2612"
    },
    {
      "channel": 1,
      "note": 66,
      "start": 42.4353,
      "duration": 0.0833,
      "velocity": 104,
      "chip": "ym2612"
    },
    {
      "channel": 3,
      "note": 71,
      "start": 42.4369,
      "duration": 0.2838,
      "velocity": 91,
      "chip": "ym2612"
    },
    {
      "channel": 1,
      "note": 66,
      "start": 42.5187,
      "duration": 0.0999,
      "velocity": 104,
      "chip": "ym2612"
    },
    {
      "channel": 4,
      "note": 45,
      "start": 42.5212,
      "duration": 0.2007,
      "velocity": 73,
      "chip": "ym2612"
    },
    {
      "channel": 5,
      "note": 54,
      "start": 42.5224,
      "duration": 0.2008,
      "velocity": 57,
      "chip": "ym2612"
    },
    {
      "channel": 2,
      "note": 46,
      "start": 42.5694,
      "duration": 0.3,
      "velocity": 90,
      "chip": "ym2612"
    },
    {
      "channel": 1,
      "note": 66,
      "start": 42.6186,
      "duration": 0.1005,
      "velocity": 104,
      "chip": "ym2612"
    },
    {
      "channel": 1,
      "note": 66,
      "start": 42.7191,
      "duration": 0.0995,
      "velocity": 104,
      "chip": "ym2612"
    },
    {
      "channel": 3,
      "note": 69,
      "start": 42.7207,
      "duration": 0.2995,
      "velocity": 91,
      "chip": "ym2612"
    },
    {
      "channel": 4,
      "note": 57,
      "start": 42.722,
      "duration": 0.1991,
      "velocity": 78,
      "chip": "ym2612"
    },
    {
      "channel": 5,
      "note": 45,
      "start": 42.7232,
      "duration": 0.1991,
      "velocity": 59,
      "chip": "ym2612"
    },
    {
      "channel": 1,
      "note": 66,
      "start": 42.8186,
      "duration": 0.1,
      "velocity": 104,
      "chip": "ym2612"
    },
    {
      "channel": 2,
      "note": 42,
      "start": 42.8694,
      "duration": 0.2999,
      "velocity": 90,
      "chip": "ym2612"
    },
    {
      "channel": 1,
      "note": 66,
      "start": 42.9187,
      "duration": 0.0999,
      "velocity": 104,
      "chip": "ym2612"
    },
    {
      "channel": 4,
      "note": 45,
      "start": 42.9212,
      "duration": 0.1999,
      "velocity": 81,
      "chip": "ym2612"
    },
    {
      "channel": 5,
      "note": 56,
      "start": 42.9224,
      "duration": 0.1999,
      "velocity": 63,
      "chip": "ym2612"
    },
    {
      "channel": 1,
      "note": 66,
      "start": 43.0186,
      "duration": 0.1,
      "velocity": 104,
      "chip": "ym2612"
    },
    {
      "channel": 3,
      "note": 71,
      "start": 43.0203,
      "duration": 0.3,
      "velocity": 91,
      "chip": "ym2612"
    },
    {
      "channel": 1,
      "note": 66,
      "start": 43.1187,
      "duration": 0.0999,
      "velocity": 104,
      "chip": "ym2612"
    },
    {
      "channel": 4,
      "note": 56,
      "start": 43.1212,
      "duration": 0.2003,
      "velocity": 84,
      "chip": "ym2612"
    },
    {
      "channel": 5,
      "note": 45,
      "start": 43.1224,
      "duration": 0.2003,
      "velocity": 65,
      "chip": "ym2612"
    },
    {
      "channel": 2,
      "note": 49,
      "start": 43.1694,
      "duration": 0.2999,
      "velocity": 90,
      "chip": "ym2612"
    },
    {
      "channel": 1,
      "note": 66,
      "start": 43.2186,
      "duration": 0.1,
      "velocity": 104,
      "chip": "ym2612"
    },
    {
      "channel": 1,
      "note": 66,
      "start": 43.3186,
      "duration": 0.1,
      "velocity": 104,
      "chip": "ym2612"
    },
    {
      "channel": 3,
      "note": 76,
      "start": 43.3203,
      "duration": 0.3,
      "velocity": 91,
      "chip": "ym2612"
    },
    {
      "channel": 4,
      "note": 45,
      "start": 43.3216,
      "duration": 0.1995,
      "velocity": 86,
      "chip": "ym2612"
    },
    {
      "channel": 5,
      "note": 57,
      "start": 43.3228,
      "duration": 0.1995,
      "velocity": 69,
      "chip": "ym2612"
    },
    {
      "channel": 1,
      "note": 66,
      "start": 43.4186,
      "duration": 0.1,
      "velocity": 104,
      "chip": "ym2612"
    },
    {
      "channel": 2,
      "note": 48,
      "start": 43.4694,
      "duration": 0.2999,
      "velocity": 90,
      "chip": "ym2612"
    },
    {
      "channel": 1,
      "note": 66,
      "start": 43.5187,
      "duration": 0.0999,
      "velocity": 104,
      "chip": "ym2612"
    },
    {
      "channel": 4,
      "note": 54,
      "start": 43.5212,
      "duration": 0.1999,
      "velocity": 88,
      "chip": "ym2612"
    },
    {
      "channel": 5,
      "note": 45,
      "start": 43.5224,
      "duration": 0.1999,
      "velocity": 71,
      "chip": "ym2612"
    },
    {
      "channel": 1,
      "note": 66,
      "start": 43.6186,
      "duration": 0.1,
      "velocity": 104,
      "chip": "ym2612"
    },
    {
      "channel": 3,
      "note": 69,
      "start": 43.6203,
      "duration": 0.3,
      "velocity": 91,
      "chip": "ym2612"
    },
    {
      "channel": 1,
      "note": 66,
      "start": 43.7187,
      "duration": 0.0999,
      "velocity": 104,
      "chip": "ym2612"
    },
    {
      "channel": 4,
      "note": 45,
      "start": 43.7212,
      "duration": 0.2004,
      "velocity": 89,
      "chip": "ym2612"
    },
    {
      "channel": 5,
      "note": 56,
      "start": 43.7224,
      "duration": 0.2004,
      "velocity": 73,
      "chip": "ym2612"
    },
    {
      "channel": 2,
      "note": 52,
      "start": 43.7694,
      "duration": 0.2999,
      "velocity": 90,
      "chip": "ym2612"
    },
    {
      "channel": 1,
      "note": 66,
      "start": 43.8186,
      "duration": 0.1001,
      "velocity": 104,
      "chip": "ym2612"
    },
    {
      "channel": 1,
      "note": 66,
      "start": 43.9188,
      "duration": 0.0998,
      "velocity": 104,
      "chip": "ym2612"
    },
    {
      "channel": 3,
      "note": 71,
      "start": 43.9203,
      "duration": 0.2999,
      "velocity": 91,
      "chip": "ym2612"
    },
    {
      "channel": 4,
      "note": 53,
      "start": 43.9216,
      "duration": 0.1995,
      "velocity": 88,
      "chip": "ym2612"
    },
    {
      "channel": 5,
      "note": 45,
      "start": 43.9228,
      "duration": 0.1995,
      "velocity": 74,
      "chip": "ym2612"
    },
    {
      "channel": 1,
      "note": 66,
      "start": 44.0186,
      "duration": 0.1,
      "velocity": 104,
      "chip": "ym2612"
    },
    {
      "channel": 2,
      "note": 51,
      "start": 44.0694,
      "duration": 0.2999,
      "velocity": 90,
      "chip": "ym2612"
    },
    {
      "channel": 1,
      "note": 66,
      "start": 44.1187,
      "duration": 0.0999,
      "velocity": 104,
      "chip": "ym2612"
    },
    {
      "channel": 4,
      "note": 45,
      "start": 44.1212,
      "duration": 0.1999,
      "velocity": 86,
      "chip": "ym2612"
    },
    {
      "channel": 5,
      "note": 54,
      "start": 44.1224,
      "duration": 0.1999,
      "velocity": 76,
      "chip": "ym2612"
    },
    {
      "channel": 1,
      "note": 66,
      "start": 44.2186,
      "duration": 0.1,
      "velocity": 104,
      "chip": "ym2612"
    },
    {
      "channel": 3,
      "note": 78,
      "start": 44.2203,
      "duration": 0.299,
      "velocity": 91,
      "chip": "ym2612"
    },
    {
      "channel": 1,
      "note": 66,
      "start": 44.3187,
      "duration": 0.0999,
      "velocity": 104,
      "chip": "ym2612"
    },
    {
      "channel": 4,
      "note": 54,
      "start": 44.3212,
      "duration": 0.1999,
      "velocity": 83,
      "chip": "ym2612"
    },
    {
      "channel": 5,
      "note": 45,
      "start": 44.3224,
      "duration": 0.2,
      "velocity": 76,
      "chip": "ym2612"
    },
    {
      "channel": 2,
      "note": 54,
      "start": 44.3694,
      "duration": 0.2832,
      "velocity": 90,
      "chip": "ym2612"
    },
    {
      "channel": 1,
      "note": 66,
      "start": 44.4186,
      "duration": 0.1,
      "velocity": 104,
      "chip": "ym2612"
    },
    {
      "channel": 1,
      "note": 66,
      "start": 44.5186,
      "duration": 0.0999,
      "velocity": 104,
      "chip": "ym2612"
    },
    {
      "channel": 4,
      "note": 45,
      "start": 44.5212,
      "duration": 0.1829,
      "velocity": 80,
      "chip": "ym2612"
    },
    {
      "channel": 5,
      "note": 53,
      "start": 44.5224,
      "duration": 0.1829,
      "velocity": 76,
      "chip": "ym2612"
    },
    {
      "channel": 1,
      "note": 66,
      "start": 44.6186,
      "duration": 0.0833,
      "velocity": 104,
      "chip": "ym2612"
    },
    {
      "channel": 2,
      "note": 52,
      "start": 44.6526,
      "duration": 0.3,
      "velocity": 90,
      "chip": "ym2612"
    },
    {
      "channel": 1,
      "note": 66,
      "start": 44.7019,
      "duration": 0.1,
      "velocity": 104,
      "chip": "ym2612"
    },
    {
      "channel": 4,
      "note": 53,
      "start": 44.7042,
      "duration": 0.2002,
      "velocity": 76,
      "chip": "ym2612"
    },
    {
      "channel": 5,
      "note": 45,
      "start": 44.7054,
      "duration": 0.2002,
      "velocity": 74,
      "chip": "ym2612"
    },
    {
      "channel": 1,
      "note": 66,
      "start": 44.802,
      "duration": 0.1,
      "velocity": 104,
      "chip": "ym2612"
    },
    {
      "channel": 3,
      "note": 71,
      "start": 44.8036,
      "duration": 0.3001,
      "velocity": 91,
      "chip": "ym2612"
    },
    {
      "channel": 1,
      "note": 66,
      "start": 44.902,
      "duration": 0.0999,
      "velocity": 104,
      "chip": "ym2612"
    },
    {
      "channel": 4,
      "note": 45,
      "start": 44.9045,
      "duration": 0.2004,
      "velocity": 72,
      "chip": "ym2612"
    },
    {
      "channel": 5,
      "note": 54,
      "start": 44.9057,
      "duration": 0.2005,
      "velocity": 72,
      "chip": "ym2612"
    },
    {
      "channel": 2,
      "note": 46,
      "start": 44.9527,
      "duration": 0.2999,
      "velocity": 90,
      "chip": "ym2612"
    },
    {
      "channel": 1,
      "note": 66,
      "start": 45.002,
      "duration": 0.1001,
      "velocity": 104,
      "chip": "ym2612"
    },
    {
      "channel": 1,
      "note": 66,
      "start": 45.1022,
      "duration": 0.0998,
      "velocity": 104,
      "chip": "ym2612"
    },
    {
      "channel": 3,
      "note": 69,
      "start": 45.1037,
      "duration": 0.2998,
      "velocity": 91,
      "chip": "ym2612"
    },
    {
      "channel": 4,
      "note": 54,
      "start": 45.105,
      "duration": 0.1994,
      "velocity": 68,
      "chip": "ym2612"
    },
    {
      "channel": 5,
      "note": 45,
      "start": 45.1062,
      "duration": 0.1994,
      "velocity": 70,
      "chip": "ym2612"
    },
    {
      "channel": 1,
      "note": 66,
      "start": 45.202,
      "duration": 0.1,
      "velocity": 104,
      "chip": "ym2612"
    },
    {
      "channel": 2,
      "note": 42,
      "start": 45.2527,
      "duration": 0.2999,
      "velocity": 90,
      "chip": "ym2612"
    },
    {
      "channel": 1,
      "note": 66,
      "start": 45.302,
      "duration": 0.0999,
      "velocity": 104,
      "chip": "ym2612"
    },
    {
      "channel": 4,
      "note": 45,
      "start": 45.3044,
      "duration": 0.2,
      "velocity": 64,
      "chip": "ym2612"
    },
    {
      "channel": 5,
      "note": 53,
      "start": 45.3057,
      "duration": 0.1999,
      "velocity": 68,
      "chip": "ym2612"
    },
    {
      "channel": 1,
      "note": 66,
      "start": 45.402,
      "duration": 0.1,
      "velocity": 104,
      "chip": "ym2612"
    },
    {
      "channel": 3,
      "note": 71,
      "start": 45.4036,
      "duration": 0.3,
      "velocity": 91,
      "chip": "ym2612"
    },
    {
      "channel": 1,
      "note": 66,
      "start": 45.502,
      "duration": 0.0999,
      "velocity": 104,
      "chip": "ym2612"
    },
    {
      "channel": 4,
      "note": 56,
      "start": 45.5045,
      "duration": 0.2003,
      "velocity": 61,
      "chip": "ym2612"
    },
    {
      "channel": 5,
      "note": 45,
      "start": 45.5057,
      "duration": 0.2003,
      "velocity": 65,
      "chip": "ym2612"
    },
    {
      "channel": 2,
      "note": 49,
      "start": 45.5527,
      "duration": 0.2999,
      "velocity": 90,
      "chip": "ym2612"
    },
    {
      "channel": 1,
      "note": 66,
      "start": 45.602,
      "duration": 0.1,
      "velocity": 104,
      "chip": "ym2612"
    },
    {
      "channel": 1,
      "note": 66,
      "start": 45.702,
      "duration": 0.1,
      "velocity": 104,
      "chip": "ym2612"
    },
    {
      "channel": 3,
      "note": 76,
      "start": 45.7036,
      "duration": 0.3,
      "velocity": 91,
      "chip": "ym2612"
    },
    {
      "channel": 4,
      "note": 45,
      "start": 45.7049,
      "duration": 0.1995,
      "velocity": 58,
      "chip": "ym2612"
    },
    {
      "channel": 5,
      "note": 54,
      "start": 45.7061,
      "duration": 0.1996,
      "velocity": 61,
      "chip": "ym2612"
    },
    {
      "channel": 1,
      "note": 66,
      "start": 45.802,
      "duration": 0.1,
      "velocity": 104,
      "chip": "ym2612"
    },
    {
      "channel": 2,
      "note": 48,
      "start": 45.8527,
      "duration": 0.2999,
      "velocity": 90,
      "chip": "ym2612"
    },
    {
      "channel": 1,
      "note": 66,
      "start": 45.902,
      "duration": 0.0999,
      "velocity": 104,
      "chip": "ym2612"
    },
    {
      "channel": 4,
      "note": 57,
      "start": 45.9045,
      "duration": 0.1999,
      "velocity": 57,
      "chip": "ym2612"
    },
    {
      "channel": 5,
      "note": 45,
      "start": 45.9057,
      "duration": 0.1999,
      "velocity": 59,
      "chip": "ym2612"
    },
    {
      "channel": 1,
      "note": 66,
      "start": 46.002,
      "duration": 0.1,
      "velocity": 104,
      "chip": "ym2612"
    },
    {
      "channel": 3,
      "note": 69,
      "start": 46.0036,
      "duration": 0.3,
      "velocity": 91,
      "chip": "ym2612"
    },
    {
      "channel": 1,
      "note": 66,
      "start": 46.102,
      "duration": 0.0999,
      "velocity": 104,
      "chip": "ym2612"
    },
    {
      "channel": 4,
      "note": 45,
      "start": 46.1045,
      "duration": 0.2004,
      "velocity": 56,
      "chip": "ym2612"
    },
    {
      "channel": 5,
      "note": 56,
      "start": 46.1057,
      "duration": 0.2004,
      "velocity": 57,
      "chip": "ym2612"
    },
    {
      "channel": 2,
      "note": 52,
      "start": 46.1527,
      "duration": 0.2999,
      "velocity": 90,
      "chip": "ym2612"
    },
    {
      "channel": 1,
      "note": 66,
      "start": 46.202,
      "duration": 0.1001,
      "velocity": 104,
      "chip": "ym2612"
    },
    {
      "channel": 1,
      "note": 66,
      "start": 46.3021,
      "duration": 0.0998,
      "velocity": 104,
      "chip": "ym2612"
    },
    {
      "channel": 3,
      "note": 71,
      "start": 46.3037,
      "duration": 0.2999,
      "velocity": 91,
      "chip": "ym2612"
    },
    {
      "channel": 4,
      "note": 56,
      "start": 46.3049,
      "duration": 0.1995,
      "velocity": 57,
      "chip": "ym2612"
    },
    {
      "channel": 5,
      "note": 45,
      "start": 46.3062,
      "duration": 0.1995,
      "velocity": 55,
      "chip": "ym2612"
    },
    {
      "channel": 1,
      "note": 66,
      "start": 46.402,
      "duration": 0.1,
      "velocity": 104,
      "chip": "ym2612"
    },
    {
      "channel": 2,
      "note": 51,
      "start": 46.4527,
      "duration": 0.2999,
      "velocity": 90,
      "chip": "ym2612"
    },
    {
      "channel": 1,
      "note": 66,
      "start": 46.502,
      "duration": 0.0999,
      "velocity": 104,
      "chip": "ym2612"
    },
    {
      "channel": 4,
      "note": 45,
      "start": 46.5045,
      "duration": 0.1999,
      "velocity": 59,
      "chip": "ym2612"
    },
    {
      "channel": 5,
      "note": 57,
      "start": 46.5057,
      "duration": 0.1999,
      "velocity": 53,
      "chip": "ym2612"
    },
    {
      "channel": 1,
      "note": 66,
      "start": 46.602,
      "duration": 0.1,
      "velocity": 104,
      "chip": "ym2612"
    },
    {
      "channel": 3,
      "note": 78,
      "start": 46.6036,
      "duration": 0.2833,
      "velocity": 91,
      "chip": "ym2612"
    },
    {
      "channel": 1,
      "note": 66,
      "start": 46.702,
      "duration": 0.0832,
      "velocity": 104,
      "chip": "ym2612"
    },
    {
      "channel": 4,
      "note": 54,
      "start": 46.7045,
      "duration": 0.1836,
      "velocity": 61,
      "chip": "ym2612"
    },
    {
      "channel": 5,
      "note": 45,
      "start": 46.7057,
      "duration": 0.1836,
      "velocity": 53,
      "chip": "ym2612"
    },
    {
      "channel": 2,
      "note": 54,
      "start": 46.7527,
      "duration": 0.2833,
      "velocity": 90,
      "chip": "ym2612"
    },
    {
      "channel": 1,
      "note": 66,
      "start": 46.7853,
      "duration": 0.1,
      "velocity": 104,
      "chip": "ym2612"
    },
    {
      "channel": 1,
      "note": 66,
      "start": 46.8853,
      "duration": 0.1,
      "velocity": 104,
      "chip": "ym2612"
    },
    {
      "channel": 3,
      "note": 83,
      "start": 46.8869,
      "duration": 0.3,
      "velocity": 91,
      "chip": "ym2612"
    },
    {
      "channel": 4,
      "note": 45,
      "start": 46.8882,
      "duration": 0.1996,
      "velocity": 65,
      "chip": "ym2612"
    },
    {
      "channel": 5,
      "note": 56,
      "start": 46.8894,
      "duration": 0.1996,
      "velocity": 54,
      "chip": "ym2612"
    },
    {
      "channel": 1,
      "note": 66,
      "start": 46.9853,
      "duration": 0.1,
      "velocity": 104,
      "chip": "ym2612"
    },
    {
      "channel": 2,
      "note": 52,
      "start": 47.0361,
      "duration": 0.3,
      "velocity": 90,
      "chip": "ym2612"
    },
    {
      "channel": 1,
      "note": 66,
      "start": 47.0854,
      "duration": 0.0999,
      "velocity": 104,
      "chip": "ym2612"
    },
    {
      "channel": 4,
      "note": 53,
      "start": 47.0878,
      "duration": 0.2,
      "velocity": 69,
      "chip": "ym2612"
    },
    {
      "channel": 5,
      "note": 45,
      "start": 47.089,
      "duration": 0.2,
      "velocity": 55,
      "chip": "ym2612"
    },
    {
      "channel": 1,
      "note": 66,
      "start": 47.1853,
      "duration": 0.1,
      "velocity": 104,
      "chip": "ym2612"
    },
    {
      "channel": 3,
      "note": 78,
      "start": 47.1869,
      "duration": 0.3006,
      "velocity": 91,
      "chip": "ym2612"
    },
    {
      "channel": 1,
      "note": 66,
      "start": 47.2854,
      "duration": 0.0999,
      "velocity": 104,
      "chip": "ym2612"
    },
    {
      "channel": 4,
      "note": 45,
      "start": 47.2878,
      "duration": 0.201,
      "velocity": 73,
      "chip": "ym2612"
    },
    {
      "channel": 5,
      "note": 54,
      "start": 47.289,
      "duration": 0.201,
      "velocity": 57,
      "chip": "ym2612"
    },
    {
      "channel": 2,
      "note": 46,
      "start": 47.3361,
      "duration": 0.3001,
      "velocity": 90,
      "chip": "ym2612"
    },
    {
      "channel": 1,
      "note": 66,
      "start": 47.3853,
      "duration": 0.1007,
      "velocity": 104,
      "chip": "ym2612"
    },
    {
      "channel": 1,
      "note": 66,
      "start": 47.4861,
      "duration": 0.0992,
      "velocity": 104,
      "chip": "ym2612"
    },
    {
      "channel": 3,
      "note": 85,
      "start": 47.4876,
      "duration": 0.1496,
      "velocity": 91,
      "chip": "ym2612"
    },
    {
      "channel": 4,
      "note": 54,
      "start": 47.4889,
      "duration": 0.1989,
      "velocity": 78,
      "chip": "ym2612"
    },
    {
      "channel": 5,
      "note": 45,
      "start": 47.4901,
      "duration": 0.1989,
      "velocity": 59,
      "chip": "ym2612"
    },
    {
      "channel": 1,
      "note": 66,
      "start": 47.5853,
      "duration": 0.1,
      "velocity": 104,
      "chip": "ym2612"
    },
    {
      "channel": 2,
      "note": 42,
      "start": 47.6362,
      "duration": 0.2999,
      "velocity": 90,
      "chip": "ym2612"
    },
    {
      "channel": 3,
      "note": 83,
      "start": 47.6373,
      "duration": 0.1496,
      "velocity": 91,
      "chip": "ym2612"
    },
    {
      "channel": 1,
      "note": 66,
      "start": 47.6854,
      "duration": 0.0999,
      "velocity": 104,
      "chip": "ym2612"
    },
    {
      "channel": 4,
      "note": 45,
      "start": 47.6878,
      "duration": 0.1999,
      "velocity": 81,
      "chip": "ym2612"
    },
    {
      "channel": 5,
      "note": 53,
      "start": 47.6891,
      "duration": 0.1999,
      "velocity": 63,
      "chip": "ym2612"
    },
    {
      "channel": 1,
      "note": 66,
      "start": 47.7853,
      "duration": 0.1,
      "velocity": 104,
      "chip": "ym2612"
    },
    {
      "channel": 3,
      "note": 81,
      "start": 47.7869,
      "duration": 0.1502,
      "velocity": 91,
      "chip": "ym2612"
    },
    {
      "channel": 1,
      "note": 66,
      "start": 47.8854,
      "duration": 0.0999,
      "velocity": 104,
      "chip": "ym2612"
    },
    {
      "channel": 4,
      "note": 53,
      "start": 47.8878,
      "duration": 0.2,
      "velocity": 84,
      "chip": "ym2612"
    },
    {
      "channel": 5,
      "note": 45,
      "start": 47.889,
      "duration": 0.2001,
      "velocity": 65,
      "chip": "ym2612"
    },
    {
      "channel": 2,
      "note": 49,
      "start": 47.9361,
      "duration": 0.2999,
      "velocity": 90,
      "chip": "ym2612"
    },
    {
      "channel": 3,
      "note": 76,
      "start": 47.9372,
      "duration": 0.2999,
      "velocity": 91,
      "chip": "ym2612"
    },
    {
      "channel": 1,
      "note": 66,
      "start": 47.9853,
      "duration": 0.1001,
      "velocity": 104,
      "chip": "ym2612"
    },
    {
      "channel": 1,
      "note": 66,
      "start": 48.0855,
      "duration": 0.0998,
      "velocity": 104,
      "chip": "ym2612"
    },
    {
      "channel": 4,
      "note": 45,
      "start": 48.088,
      "duration": 0.1998,
      "velocity": 86,
      "chip": "ym2612"
    },
    {
      "channel": 5,
      "note": 54,
      "start": 48.0892,
      "duration": 0.1998,
      "velocity": 69,
      "chip": "ym2612"
    },
    {
      "channel": 1,
      "note": 66,
      "start": 48.1853,
      "duration": 0.1,
      "velocity": 104,
      "chip": "ym2612"
    },
    {
      "channel": 2,
      "note": 48,
      "start": 48.2361,
      "duration": 0.2999,
      "velocity": 90,
      "chip": "ym2612"
    },
    {
      "channel": 3,
      "note": 78,
      "start": 48.2371,
      "duration": 0.1498,
      "velocity": 91,
      "chip": "ym2612"
    },
    {
      "channel": 1,
      "note": 66,
      "start": 48.2854,
      "duration": 0.0999,
      "velocity": 104,
      "chip": "ym2612"
    },
    {
      "channel": 4,
      "note": 54,
      "start": 48.2878,
      "duration": 0.2,
      "velocity": 88,
      "chip": "ym2612"
    },
    {
      "channel": 5,
      "note": 45,
      "start": 48.289,
      "duration": 0.2,
      "velocity": 71,
      "chip": "ym2612"
    },
    {
      "channel": 1,
      "note": 66,
      "start": 48.3853,
      "duration": 0.1,
      "velocity": 104,
      "chip": "ym2612"
    },
    {
      "channel": 3,
      "note": 85,
      "start": 48.3869,
      "duration": 0.1501,
      "velocity": 91,
      "chip": "ym2612"
    },
    {
      "channel": 1,
      "note": 66,
      "start": 48.4854,
      "duration": 0.0999,
      "velocity": 104,
      "chip": "ym2612"
    },
    {
      "channel": 4,
      "note": 45,
      "start": 48.4878,
      "duration": 0.2004,
      "velocity": 89,
      "chip": "ym2612"
    },
    {
      "channel": 5,
      "note": 53,
      "start": 48.4891,
      "duration": 0.2003,
      "velocity": 73,
      "chip": "ym2612"
    },
    {
      "channel": 2,
      "note": 52,
      "start": 48.536,
      "duration": 0.3,
      "velocity": 90,
      "chip": "ym2612"
    },
    {
      "channel": 3,
      "note": 83,
      "start": 48.5371,
      "duration": 0.1498,
      "velocity": 91,
      "chip": "ym2612"
    },
    {
      "channel": 1,
      "note": 66,
      "start": 48.5853,
      "duration": 0.1001,
      "velocity": 104,
      "chip": "ym2612"
    },
    {
      "channel": 1,
      "note": 66,
      "start": 48.6854,
      "duration": 0.0998,
      "velocity": 104,
      "chip": "ym2612"
    },
    {
      "channel": 3,
      "note": 81,
      "start": 48.687,
      "duration": 0.15,
      "velocity": 91,
      "chip": "ym2612"
    },
    {
      "channel": 4,
      "note": 56,
      "start": 48.6883,
      "duration": 0.1995,
      "velocity": 88,
      "chip": "ym2612"
    },
    {
      "channel": 5,
      "note": 45,
      "start": 48.6895,
      "duration": 0.1995,
      "velocity": 74,
      "chip": "ym2612"
    },
    {
      "channel": 1,
      "note": 66,
      "start": 48.7853,
      "duration": 0.1,
      "velocity": 104,
      "chip": "ym2612"
    },
    {
      "channel": 2,
      "note": 51,
      "start": 48.836,
      "duration": 0.2833,
      "velocity": 90,
      "chip": "ym2612"
    },
    {
      "channel": 3,
      "note": 76,
      "start": 48.8371,
      "duration": 0.2833,
      "velocity": 91,
      "chip": "ym2612"
    },
    {
      "channel": 1,
      "note": 66,
      "start": 48.8854,
      "duration": 0.0833,
      "velocity": 104,
      "chip": "ym2612"
    },
    {
      "channel": 4,
      "note": 45,
      "start": 48.8878,
      "duration": 0.1833,
      "velocity": 86,
      "chip": "ym2612"
    },
    {
      "channel": 5,
      "note": 54,
      "start": 48.889,
      "duration": 0.1833,
      "velocity": 76,
      "chip": "ym2612"
    },
    {
      "channel": 1,
      "note": 66,
      "start": 48.9686,
      "duration": 0.1,
      "velocity": 104,
      "chip": "ym2612"
    },
    {
      "channel": 1,
      "note": 66,
      "start": 49.0687,
      "duration": 0.0999,
      "velocity": 104,
      "chip": "ym2612"
    },
    {
      "channel": 4,
      "note": 57,
      "start": 49.0712,
      "duration": 0.1999,
      "velocity": 83,
      "chip": "ym2612"
    },
    {
      "channel": 5,
      "note": 45,
      "start": 49.0724,
      "duration": 0.1999,
      "velocity": 76,
      "chip": "ym2612"
    },
    {
      "channel": 2,
      "note": 54,
      "start": 49.1193,
      "duration": 0.3,
      "velocity": 90,
      "chip": "ym2612"
    },
    {
      "channel": 3,
      "note": 78,
      "start": 49.1205,
      "duration": 0.2999,
      "velocity": 91,
      "chip": "ym2612"
    },
    {
      "channel": 1,
      "note": 66,
      "start": 49.1686,
      "duration": 0.1,
      "velocity": 104,
      "chip": "ym2612"
    },
    {
      "channel": 1,
      "note": 66,
      "start": 49.2686,
      "duration": 0.1,
      "velocity": 104,
      "chip": "ym2612"
    },
    {
      "channel": 4,
      "note": 45,
      "start": 49.2711,
      "duration": 0.2,
      "velocity": 80,
      "chip": "ym2612"
    },
    {
      "channel": 5,
      "note": 56,
      "start": 49.2724,
      "duration": 0.1999,
      "velocity": 76,
      "chip": "ym2612"
    },
    {
      "channel": 1,
      "note": 66,
      "start": 49.3686,
      "duration": 0.1,
      "velocity": 104,
      "chip": "ym2612"
    },
    {
      "channel": 2,
      "note": 52,
      "start": 49.4194,
      "duration": 0.2999,
      "velocity": 90,
      "chip": "ym2612"
    },
    {
      "channel": 3,
      "note": 71,
      "start": 49.4205,
      "duration": 0.1498,
      "velocity": 91,
      "chip": "ym2612"
    },
    {
      "channel": 1,
      "note": 66,
      "start": 49.4687,
      "duration": 0.0999,
      "velocity": 104,
      "chip": "ym2612"
    },
    {
      "channel": 4,
      "note": 56,
      "start": 49.4711,
      "duration": 0.2,
      "velocity": 76,
      "chip": "ym2612"
    },
    {
      "channel": 5,
      "note": 45,
      "start": 49.4724,
      "duration": 0.1999,
      "velocity": 74,
      "chip": "ym2612"
    },
    {
      "channel": 1,
      "note": 66,
      "start": 49.5686,
      "duration": 0.1,
      "velocity": 104,
      "chip": "ym2612"
    },
    {
      "channel": 3,
      "note": 76,
      "start": 49.5703,
      "duration": 0.3001,
      "velocity": 91,
      "chip": "ym2612"
    },
    {
      "channel": 1,
      "note": 66,
      "start": 49.6687,
      "duration": 0.0999,
      "velocity": 104,
      "chip": "ym2612"
    },
    {
      "channel": 4,
      "note": 45,
      "start": 49.6712,
      "duration": 0.2004,
      "velocity": 72,
      "chip": "ym2612"
    },
    {
      "channel": 5,
      "note": 57,
      "start": 49.6724,
      "duration": 0.2005,
      "velocity": 72,
      "chip": "ym2612"
    },
    {
      "channel": 2,
      "note": 46,
      "start": 49.7194,
      "duration": 0.3,
      "velocity": 90,
      "chip": "ym2612"
    },
    {
      "channel": 1,
      "note": 66,
      "start": 49.7686,
      "duration": 0.1001,
      "velocity": 104,
      "chip": "ym2612"
    },
    {
      "channel": 1,
      "note": 66,
      "start": 49.8688,
      "duration": 0.0998,
      "velocity": 104,
      "chip": "ym2612"
    },
    {
      "channel": 3,
      "note": 69,
      "start": 49.8704,
      "duration": 0.1501,
      "velocity": 91,
      "chip": "ym2612"
    },
    {
      "channel": 4,
      "note": 54,
      "start": 49.8717,
      "duration": 0.1994,
      "velocity": 68,
      "chip": "ym2612"
    },
    {
      "channel": 5,
      "note": 45,
      "start": 49.8729,
      "duration": 0.1994,
      "velocity": 70,
      "chip": "ym2612"
    },
    {
      "channel": 1,
      "note": 66,
      "start": 49.9686,
      "duration": 0.1,
      "velocity": 104,
      "chip": "ym2612"
    },
    {
      "channel": 2,
      "note": 42,
      "start": 50.0195,
      "duration": 0.2999,
      "velocity": 90,
      "chip": "ym2612"
    },
    {
      "channel": 3,
      "note": 64,
      "start": 50.0205,
      "duration": 0.1497,
      "velocity": 91,
      "chip": "ym2612"
    },
    {
      "channel": 1,
      "note": 66,
      "start": 50.0687,
      "duration": 0.0999,
      "velocity": 104,
      "chip": "ym2612"
    },
    {
      "channel": 4,
      "note": 45,
      "start": 50.0712,
      "duration": 0.1999,
      "velocity": 64,
      "chip": "ym2612"
    },
    {
      "channel": 5,
      "note": 56,
      "start": 50.0724,
      "duration": 0.1999,
      "velocity": 68,
      "chip": "ym2612"
    },
    {
      "channel": 1,
      "note": 66,
      "start": 50.1686,
      "duration": 0.1,
      "velocity": 104,
      "chip": "ym2612"
    },
    {
      "channel": 3,
      "note": 66,
      "start": 50.1703,
      "duration": 0.1501,
      "velocity": 91,
      "chip": "ym2612"
    },
    {
      "channel": 1,
      "note": 66,
      "start": 50.2687,
      "duration": 0.0999,
      "velocity": 104,
      "chip": "ym2612"
    },
    {
      "channel": 4,
      "note": 53,
      "start": 50.2712,
      "duration": 0.2003,
      "velocity": 61,
      "chip": "ym2612"
    },
    {
      "channel": 5,
      "note": 45,
      "start": 50.2724,
      "duration": 0.2003,
      "velocity": 65,
      "chip": "ym2612"
    },
    {
      "channel": 2,
      "note": 49,
      "start": 50.3194,
      "duration": 0.2999,
      "velocity": 90,
      "chip": "ym2612"
    },
    {
      "channel": 3,
      "note": 71,
      "start": 50.3205,
      "duration": 0.1498,
      "velocity": 91,
      "chip": "ym2612"
    },
    {
      "channel": 1,
      "note": 66,
      "start": 50.3686,
      "duration": 0.1,
      "velocity": 104,
      "chip": "ym2612"
    },
    {
      "channel": 1,
      "note": 66,
      "start": 50.4686,
      "duration": 0.1,
      "velocity": 104,
      "chip": "ym2612"
    },
    {
      "channel": 3,
      "note": 76,
      "start": 50.4703,
      "duration": 0.1501,
      "velocity": 91,
      "chip": "ym2612"
    },
    {
      "channel": 4,
      "note": 45,
      "start": 50.4716,
      "duration": 0.1995,
      "velocity": 58,
      "chip": "ym2612"
    },
    {
      "channel": 5,
      "note": 54,
      "start": 50.4728,
      "duration": 0.1995,
      "velocity": 61,
      "chip": "ym2612"
    },
    {
      "channel": 1,
      "note": 66,
      "start": 50.5686,
      "duration": 0.1,
      "velocity": 104,
      "chip": "ym2612"
    },
    {
      "channel": 2,
      "note": 48,
      "start": 50.6194,
      "duration": 0.2999,
      "velocity": 90,
      "chip": "ym2612"
    },
    {
      "channel": 3,
      "note": 78,
      "start": 50.6205,
      "duration": 0.2999,
      "velocity": 91,
      "chip": "ym2612"
    },
    {
      "channel": 1,
      "note": 66,
      "start": 50.6687,
      "duration": 0.0999,
      "velocity": 104,
      "chip": "ym2612"
    },
    {
      "channel": 4,
      "note": 54,
      "start": 50.6712,
      "duration": 0.1999,
      "velocity": 57,
      "chip": "ym2612"
    },
    {
      "channel": 5,
      "note": 45,
      "start": 50.6724,
      "duration": 0.1999,
      "velocity": 59,
      "chip": "ym2612"
    },
    {
      "channel": 1,
      "note": 66,
      "start": 50.7686,
      "duration": 0.1,
      "velocity": 104,
      "chip": "ym2612"
    },
    {
      "channel": 1,
      "note": 66,
      "start": 50.8687,
      "duration": 0.0999,
      "velocity": 104,
      "chip": "ym2612"
    },
    {
      "channel": 4,
      "note": 45,
      "start": 50.8712,
      "duration": 0.1833,
      "velocity": 56,
      "chip": "ym2612"
    },
    {
      "channel": 5,
      "note": 53,
      "start": 50.8724,
      "duration": 0.1834,
      "velocity": 57,
      "chip": "ym2612"
    },
    {
      "channel": 2,
      "note": 52,
      "start": 50.9194,
      "duration": 0.2833,
      "velocity": 90,
      "chip": "ym2612"
    },
    {
      "channel": 3,
      "note": 83,
      "start": 50.9205,
      "duration": 0.2833,
      "velocity": 91,
      "chip": "ym2612"
    },
    {
      "channel": 1,
      "note": 66,
      "start": 50.9686,
      "duration": 0.0834,
      "velocity": 104,
      "chip": "ym2612"
    },
    {
      "channel": 1,
      "note": 66,
      "start": 51.0521,
      "duration": 0.0998,
      "velocity": 104,
      "chip": "ym2612"
    },
    {
      "channel": 4,
      "note": 53,
      "start": 51.0546,
      "duration": 0.1999,
      "velocity": 57,
      "chip": "ym2612"
    },
    {
      "channel": 5,
      "note": 45,
      "start": 51.0558,
      "duration": 0.1999,
      "velocity": 55,
      "chip": "ym2612"
    },
    {
      "channel": 1,
      "note": 66,
      "start": 51.152,
      "duration": 0.1,
      "velocity": 104,
      "chip": "ym2612"
    },
    {
      "channel": 2,
      "note": 51,
      "start": 51.2027,
      "duration": 0.2999,
      "velocity": 90,
      "chip": "ym2612"
    },
    {
      "channel": 3,
      "note": 81,
      "start": 51.2038,
      "duration": 0.2999,
      "velocity": 91,
      "chip": "ym2612"
    },
    {
      "channel": 1,
      "note": 66,
      "start": 51.252,
      "duration": 0.0999,
      "velocity": 104,
      "chip": "ym2612"
    },
    {
      "channel": 4,
      "note": 45,
      "start": 51.2545,
      "duration": 0.1999,
      "velocity": 59,
      "chip": "ym2612"
    },
    {
      "channel": 5,
      "note": 54,
      "start": 51.2557,
      "duration": 0.1999,
      "velocity": 53,
      "chip": "ym2612"
    },
    {
      "channel": 1,
      "note": 66,
      "start": 51.352,
      "duration": 0.1,
      "velocity": 104,
      "chip": "ym2612"
    },
    {
      "channel": 1,
      "note": 66,
      "start": 51.452,
      "duration": 0.0999,
      "velocity": 104,
      "chip": "ym2612"
    },
    {
      "channel": 4,
      "note": 54,
      "start": 51.4545,
      "duration": 0.1999,
      "velocity": 61,
      "chip": "ym2612"
    },
    {
      "channel": 5,
      "note": 45,
      "start": 51.4557,
      "duration": 0.1999,
      "velocity": 53,
      "chip": "ym2612"
    },
    {
      "channel": 2,
      "note": 54,
      "start": 51.5027,
      "duration": 0.2999,
      "velocity": 90,
      "chip": "ym2612"
    },
    {
      "channel": 3,
      "note": 88,
      "start": 51.5038,
      "duration": 0.2999,
      "velocity": 91,
      "chip": "ym2612"
    },
    {
      "channel": 1,
      "note": 66,
      "start": 51.552,
      "duration": 0.1,
      "velocity": 104,
      "chip": "ym2612"
    },
    {
      "channel": 1,
      "note": 66,
      "start": 51.652,
      "duration": 0.1,
      "velocity": 104,
      "chip": "ym2612"
    },
    {
      "channel": 4,
      "note": 45,
      "start": 51.6544,
      "duration": 0.2,
      "velocity": 65,
      "chip": "ym2612"
    },
    {
      "channel": 5,
      "note": 53,
      "start": 51.6557,
      "duration": 0.1999,
      "velocity": 54,
      "chip": "ym2612"
    },
    {
      "channel": 1,
      "note": 66,
      "start": 51.752,
      "duration": 0.1,
      "velocity": 104,
      "chip": "ym2612"
    },
    {
      "channel": 2,
      "note": 52,
      "start": 51.8027,
      "duration": 0.2999,
      "velocity": 90,
      "chip": "ym2612"
    },
    {
      "channel": 3,
      "note": 81,
      "start": 51.8038,
      "duration": 0.1498,
      "velocity": 91,
      "chip": "ym2612"
    },
    {
      "channel": 1,
      "note": 66,
      "start": 51.852,
      "duration": 0.0999,
      "velocity": 104,
      "chip": "ym2612"
    },
    {
      "channel": 4,
      "note": 56,
      "start": 51.8544,
      "duration": 0.2,
      "velocity": 69,
      "chip": "ym2612"
    },
    {
      "channel": 5,
      "note": 45,
      "start": 51.8557,
      "duration": 0.1999,
      "velocity": 55,
      "chip": "ym2612"
    },
    {
      "channel": 1,
      "note": 66,
      "start": 51.952,
      "duration": 0.1,
      "velocity": 104,
      "chip": "ym2612"
    },
    {
      "channel": 3,
      "note": 83,
      "start": 51.9536,
      "duration": 0.3008,
      "velocity": 91,
      "chip": "ym2612"
    },
    {
      "channel": 1,
      "note": 66,
      "start": 52.052,
      "duration": 0.0999,
      "velocity": 104,
      "chip": "ym2612"
    },
    {
      "channel": 4,
      "note": 45,
      "start": 52.0545,
      "duration": 0.2011,
      "velocity": 73,
      "chip": "ym2612"
    },
    {
      "channel": 5,
      "note": 54,
      "start": 52.0557,
      "duration": 0.2011,
      "velocity": 57,
      "chip": "ym2612"
    },
    {
      "channel": 2,
      "note": 46,
      "start": 52.1027,
      "duration": 0.3003,
      "velocity": 90,
      "chip": "ym2612"
    },
    {
      "channel": 1,
      "note": 66,
      "start": 52.152,
      "duration": 0.1011,
      "velocity": 104,
      "chip": "ym2612"
    },
    {
      "channel": 0,
      "note": 72,
      "start": 52.2521,
      "duration": 2.6828,
      "velocity": 99,
      "chip": "ym2612"
    },
    {
      "channel": 1,
      "note": 66,
      "start": 52.253,
      "duration": 0.0992,
      "velocity": 104,
      "chip": "ym2612"
    },
    {
      "channel": 3,
      "note": 83,
      "start": 52.2544,
      "duration": 0.2995,
      "velocity": 91,
      "chip": "ym2612"
    },
    {
      "channel": 4,
      "note": 57,
      "start": 52.2557,
      "duration": 0.199,
      "velocity": 78,
      "chip": "ym2612"
    },
    {
      "channel": 5,
      "note": 45,
      "start": 52.2569,
      "duration": 0.1991,
      "velocity": 59,
      "chip": "ym2612"
    },
    {
      "channel": 1,
      "note": 66,
      "start": 52.3523,
      "duration": 0.0999,
      "velocity": 104,
      "chip": "ym2612"
    },
    {
      "channel": 2,
      "note": 42,
      "start": 52.4031,
      "duration": 0.2999,
      "velocity": 90,
      "chip": "ym2612"
    },
    {
      "channel": 1,
      "note": 66,
      "start": 52.4523,
      "duration": 0.0999,
      "velocity": 104,
      "chip": "ym2612"
    },
    {
      "channel": 4,
      "note": 45,
      "start": 52.4548,
      "duration": 0.1999,
      "velocity": 81,
      "chip": "ym2612"
    },
    {
      "channel": 5,
      "note": 56,
      "start": 52.4561,
      "duration": 0.1999,
      "velocity": 63,
      "chip": "ym2612"
    },
    {
      "channel": 1,
      "note": 66,
      "start": 52.5523,
      "duration": 0.0999,
      "velocity": 104,
      "chip": "ym2612"
    },
    {
      "channel": 3,
      "note": 85,
      "start": 52.554,
      "duration": 0.2999,
      "velocity": 91,
      "chip": "ym2612"
    },
    {
      "channel": 1,
      "note": 66,
      "start": 52.6523,
      "duration": 0.0999,
      "velocity": 104,
      "chip": "ym2612"
    },
    {
      "channel": 4,
      "note": 56,
      "start": 52.6548,
      "duration": 0.2003,
      "velocity": 84,
      "chip": "ym2612"
    },
    {
      "channel": 5,
      "note": 45,
      "start": 52.6561,
      "duration": 0.2002,
      "velocity": 65,
      "chip": "ym2612"
    },
    {
      "channel": 2,
      "note": 49,
      "start": 52.7031,
      "duration": 0.2999,
      "velocity": 90,
      "chip": "ym2612"
    },
    {
      "channel": 1,
      "note": 66,
      "start": 52.7523,
      "duration": 0.0999,
      "velocity": 104,
      "chip": "ym2612"
    },
    {
      "channel": 1,
      "note": 66,
      "start": 52.8523,
      "duration": 0.0999,
      "velocity": 104,
      "chip": "ym2612"
    },
    {
      "channel": 3,
      "note": 83,
      "start": 52.8539,
      "duration": 0.3,
      "velocity": 91,
      "chip": "ym2612"
    },
    {
      "channel": 4,
      "note": 45,
      "start": 52.8552,
      "duration": 0.1997,
      "velocity": 86,
      "chip": "ym2612"
    },
    {
      "channel": 5,
      "note": 57,
      "start": 52.8564,
      "duration": 0.1998,
      "velocity": 69,
      "chip": "ym2612"
    },
    {
      "channel": 1,
      "note": 66,
      "start": 52.9523,
      "duration": 0.1001,
      "velocity": 104,
      "chip": "ym2612"
    },
    {
      "channel": 2,
      "note": 48,
      "start": 53.0031,
      "duration": 0.2832,
      "velocity": 90,
      "chip": "ym2612"
    },
    {
      "channel": 1,
      "note": 66,
      "start": 53.0525,
      "duration": 0.0998,
      "velocity": 104,
      "chip": "ym2612"
    },
    {
      "channel": 4,
      "note": 54,
      "start": 53.0549,
      "duration": 0.1829,
      "velocity": 88,
      "chip": "ym2612"
    },
    {
      "channel": 5,
      "note": 45,
      "start": 53.0562,
      "duration": 0.1829,
      "velocity": 71,
      "chip": "ym2612"
    },
    {
      "channel": 1,
      "note": 66,
      "start": 53.1523,
      "duration": 0.0832,
      "velocity": 104,
      "chip": "ym2612"
    },
    {
      "channel": 3,
      "note": 78,
      "start": 53.1539,
      "duration": 0.2834,
      "velocity": 91,
      "chip": "ym2612"
    },
    {
      "channel": 1,
      "note": 66,
      "start": 53.2354,
      "duration": 0.1001,
      "velocity": 104,
      "chip": "ym2612"
    },
    {
      "channel": 4,
      "note": 45,
      "start": 53.238,
      "duration": 0.2006,
      "velocity": 89,
      "chip": "ym2612"
    },
    {
      "channel": 5,
      "note": 56,
      "start": 53.2392,
      "duration": 0.2006,
      "velocity": 73,
      "chip": "ym2612"
    },
    {
      "channel": 2,
      "note": 52,
      "start": 53.2864,
      "duration": 0.2999,
      "velocity": 90,
      "chip": "ym2612"
    },
    {
      "channel": 1,
      "note": 66,
      "start": 53.3356,
      "duration": 0.1001,
      "velocity": 104,
      "chip": "ym2612"
    },
    {
      "channel": 1,
      "note": 66,
      "start": 53.4357,
      "duration": 0.0998,
      "velocity": 104,
      "chip": "ym2612"
    },
    {
      "channel": 3,
      "note": 81,
      "start": 53.4374,
      "duration": 0.2998,
      "velocity": 91,
      "chip": "ym2612"
    },
    {
      "channel": 4,
      "note": 53,
      "start": 53.4386,
      "duration": 0.1995,
      "velocity": 88,
      "chip": "ym2612"
    },
    {
      "channel": 5,
      "note": 45,
      "start": 53.4398,
      "duration": 0.1995,
      "velocity": 74,
      "chip": "ym2612"
    },
    {
      "channel": 1,
      "note": 66,
      "start": 53.5356,
      "duration": 0.1,
      "velocity": 104,
      "chip": "ym2612"
    },
    {
      "channel": 2,
      "note": 51,
      "start": 53.5864,
      "duration": 0.2999,
      "velocity": 90,
      "chip": "ym2612"
    },
    {
      "channel": 1,
      "note": 66,
      "start": 53.6357,
      "duration": 0.0999,
      "velocity": 104,
      "chip": "ym2612"
    },
    {
      "channel": 4,
      "note": 45,
      "start": 53.6382,
      "duration": 0.1999,
      "velocity": 86,
      "chip": "ym2612"
    },
    {
      "channel": 5,
      "note": 54,
      "start": 53.6394,
      "duration": 0.1999,
      "velocity": 76,
      "chip": "ym2612"
    },
    {
      "channel": 1,
      "note": 66,
      "start": 53.7356,
      "duration": 0.1,
      "velocity": 104,
      "chip": "ym2612"
    },
    {
      "channel": 3,
      "note": 83,
      "start": 53.7373,
      "duration": 0.3,
      "velocity": 91,
      "chip": "ym2612"
    },
    {
      "channel": 1,
      "note": 66,
      "start": 53.8357,
      "duration": 0.0999,
      "velocity": 104,
      "chip": "ym2612"
    },
    {
      "channel": 4,
      "note": 54,
      "start": 53.8382,
      "duration": 0.2003,
      "velocity": 83,
      "chip": "ym2612"
    },
    {
      "channel": 5,
      "note": 45,
      "start": 53.8394,
      "duration": 0.2002,
      "velocity": 76,
      "chip": "ym2612"
    },
    {
      "channel": 2,
      "note": 54,
      "start": 53.8864,
      "duration": 0.3001,
      "velocity": 90,
      "chip": "ym2612"
    },
    {
      "channel": 1,
      "note": 66,
      "start": 53.9357,
      "duration": 0.0999,
      "velocity": 104,
      "chip": "ym2612"
    },
    {
      "channel": 1,
      "note": 66,
      "start": 54.0356,
      "duration": 0.1,
      "velocity": 104,
      "chip": "ym2612"
    },
    {
      "channel": 3,
      "note": 81,
      "start": 54.0373,
      "duration": 0.3,
      "velocity": 91,
      "chip": "ym2612"
    },
    {
      "channel": 4,
      "note": 45,
      "start": 54.0385,
      "duration": 0.1993,
      "velocity": 80,
      "chip": "ym2612"
    },
    {
      "channel": 5,
      "note": 53,
      "start": 54.0398,
      "duration": 0.1994,
      "velocity": 76,
      "chip": "ym2612"
    },
    {
      "channel": 1,
      "note": 66,
      "start": 54.1357,
      "duration": 0.0998,
      "velocity": 104,
      "chip": "ym2612"
    },
    {
      "channel": 2,
      "note": 52,
      "start": 54.1865,
      "duration": 0.2999,
      "velocity": 90,
      "chip": "ym2612"
    },
    {
      "channel": 1,
      "note": 66,
      "start": 54.2354,
      "duration": 0.1001,
      "velocity": 104,
      "chip": "ym2612"
    },
    {
      "channel": 4,
      "note": 53,
      "start": 54.2379,
      "duration": 0.2002,
      "velocity": 76,
      "chip": "ym2612"
    },
    {
      "channel": 5,
      "note": 45,
      "start": 54.2392,
      "duration": 0.2002,
      "velocity": 74,
      "chip": "ym2612"
    },
    {
      "channel": 1,
      "note": 66,
      "start": 54.3356,
      "duration": 0.1,
      "velocity": 104,
      "chip": "ym2612"
    },
    {
      "channel": 3,
      "note": 76,
      "start": 54.3373,
      "duration": 0.3001,
      "velocity": 91,
      "chip": "ym2612"
    },
    {
      "channel": 1,
      "note": 66,
      "start": 54.4357,
      "duration": 0.0999,
      "velocity": 104,
      "chip": "ym2612"
    },
    {
      "channel": 4,
      "note": 45,
      "start": 54.4382,
      "duration": 0.2004,
      "velocity": 72,
      "chip": "ym2612"
    },
    {
      "channel": 5,
      "note": 54,
      "start": 54.4394,
      "duration": 0.2004,
      "velocity": 72,
      "chip": "ym2612"
    },
    {
      "channel": 2,
      "note": 46,
      "start": 54.4864,
      "duration": 0.2996,
      "velocity": 90,
      "chip": "ym2612"
    },
    {
      "channel": 1,
      "note": 66,
      "start": 54.5357,
      "duration": 0.1001,
      "velocity": 104,
      "chip": "ym2612"
    },
    {
      "channel": 1,
      "note": 66,
      "start": 54.6358,
      "duration": 0.0995,
      "velocity": 104,
      "chip": "ym2612"
    },
    {
      "channel": 3,
      "note": 81,
      "start": 54.6375,
      "duration": 0.2999,
      "velocity": 91,
      "chip": "ym2612"
    },
    {
      "channel": 4,
      "note": 54,
      "start": 54.6387,
      "duration": 0.1991,
      "velocity": 68,
      "chip": "ym2612"
    },
    {
      "channel": 5,
      "note": 45,
      "start": 54.6399,
      "duration": 0.1991,
      "velocity": 70,
      "chip": "ym2612"
    },
    {
      "channel": 1,
      "note": 66,
      "start": 54.7354,
      "duration": 0.0999,
      "velocity": 104,
      "chip": "ym2612"
    },
    {
      "channel": 2,
      "note": 42,
      "start": 54.7861,
      "duration": 0.2999,
      "velocity": 90,
      "chip": "ym2612"
    },
    {
      "channel": 1,
      "note": 66,
      "start": 54.8354,
      "duration": 0.1004,
      "velocity": 104,
      "chip": "ym2612"
    },
    {
      "channel": 4,
      "note": 45,
      "start": 54.8378,
      "duration": 0.1999,
      "velocity": 64,
      "chip": "ym2612"
    },
    {
      "channel": 5,
      "note": 53,
      "start": 54.839,
      "duration": 0.2,
      "velocity": 68,
      "chip": "ym2612"
    },
    {
      "channel": 0,
      "note": 72,
      "start": 54.9349,
      "duration": 0.3,
      "velocity": 99,
      "chip": "ym2612"
    },
    {
      "channel": 1,
      "note": 66,
      "start": 54.9357,
      "duration": 0.0995,
      "velocity": 104,
      "chip": "ym2612"
    },
    {
      "channel": 3,
      "note": 83,
      "start": 54.9374,
      "duration": 0.2999,
      "velocity": 91,
      "chip": "ym2612"
    },
    {
      "channel": 1,
      "note": 66,
      "start": 55.0354,
      "duration": 0.0999,
      "velocity": 104,
      "chip": "ym2612"
    },
    {
      "channel": 4,
      "note": 56,
      "start": 55.0378,
      "duration": 0.2007,
      "velocity": 61,
      "chip": "ym2612"
    },
    {
      "channel": 5,
      "note": 45,
      "start": 55.039,
      "duration": 0.2008,
      "velocity": 65,
      "chip": "ym2612"
    },
    {
      "channel": 2,
      "note": 49,
      "start": 55.0861,
      "duration": 0.2833,
      "velocity": 90,
      "chip": "ym2612"
    },
    {
      "channel": 1,
      "note": 66,
      "start": 55.1354,
      "duration": 0.1004,
      "velocity": 104,
      "chip": "ym2612"
    },
    {
      "channel": 0,
      "note": 72,
      "start": 55.2349,
      "duration": 0.2825,
      "velocity": 99,
      "chip": "ym2612"
    },
    {
      "channel": 1,
      "note": 66,
      "start": 55.2358,
      "duration": 0.0828,
      "velocity": 104,
      "chip": "ym2612"
    },
    {
      "channel": 3,
      "note": 88,
      "start": 55.2374,
      "duration": 0.2832,
      "velocity": 91,
      "chip": "ym2612"
    },
    {
      "channel": 4,
      "note": 45,
      "start": 55.2387,
      "duration": 0.1824,
      "velocity": 58,
      "chip": "ym2612"
    },
    {
      "channel": 5,
      "note": 54,
      "start": 55.2399,
      "duration": 0.1824,
      "velocity": 61,
      "chip": "ym2612"
    },
    {
      "channel": 1,
      "note": 66,
      "start": 55.3187,
      "duration": 0.0999,
      "velocity": 104,
      "chip": "ym2612"
    },
    {
      "channel": 2,
      "note": 48,
      "start": 55.3695,
      "duration": 0.2999,
      "velocity": 90,
      "chip": "ym2612"
    },
    {
      "channel": 1,
      "note": 66,
      "start": 55.4187,
      "duration": 0.1002,
      "velocity": 104,
      "chip": "ym2612"
    },
    {
      "channel": 4,
      "note": 57,
      "start": 55.4212,
      "duration": 0.1999,
      "velocity": 57,
      "chip": "ym2612"
    },
    {
      "channel": 5,
      "note": 45,
      "start": 55.4224,
      "duration": 0.1999,
      "velocity": 59,
      "chip": "ym2612"
    },
    {
      "channel": 1,
      "note": 66,
      "start": 55.519,
      "duration": 0.0996,
      "velocity": 104,
      "chip": "ym2612"
    },
    {
      "channel": 3,
      "note": 81,
      "start": 55.5206,
      "duration": 0.2997,
      "velocity": 91,
      "chip": "ym2612"
    },
    {
      "channel": 1,
      "note": 66,
      "start": 55.6187,
      "duration": 0.0999,
      "velocity": 104,
      "chip": "ym2612"
    },
    {
      "channel": 4,
      "note": 45,
      "start": 55.6212,
      "duration": 0.2004,
      "velocity": 56,
      "chip": "ym2612"
    },
    {
      "channel": 5,
      "note": 56,
      "start": 55.6224,
      "duration": 0.2004,
      "velocity": 57,
      "chip": "ym2612"
    },
    {
      "channel": 2,
      "note": 52,
      "start": 55.6694,
      "duration": 0.2999,
      "velocity": 90,
      "chip": "ym2612"
    },
    {
      "channel": 1,
      "note": 66,
      "start": 55.7186,
      "duration": 0.1001,
      "velocity": 104,
      "chip": "ym2612"
    },
    {
      "channel": 1,
      "note": 66,
      "start": 55.8188,
      "duration": 0.0998,
      "velocity": 104,
      "chip": "ym2612"
    },
    {
      "channel": 3,
      "note": 83,
      "start": 55.8203,
      "duration": 0.2999,
      "velocity": 91,
      "chip": "ym2612"
    },
    {
      "channel": 4,
      "note": 56,
      "start": 55.8216,
      "duration": 0.1995,
      "velocity": 57,
      "chip": "ym2612"
    },
    {
      "channel": 5,
      "note": 45,
      "start": 55.8228,
      "duration": 0.1995,
      "velocity": 55,
      "chip": "ym2612"
    },
    {
      "channel": 1,
      "note": 66,
      "start": 55.9186,
      "duration": 0.1,
      "velocity": 104,
      "chip": "ym2612"
    },
    {
      "channel": 2,
      "note": 51,
      "start": 55.9694,
      "duration": 0.2999,
      "velocity": 90,
      "chip": "ym2612"
    },
    {
      "channel": 1,
      "note": 66,
      "start": 56.0187,
      "duration": 0.0999,
      "velocity": 104,
      "chip": "ym2612"
    },
    {
      "channel": 4,
      "note": 45,
      "start": 56.0212,
      "duration": 0.1999,
      "velocity": 59,
      "chip": "ym2612"
    },
    {
      "channel": 5,
      "note": 57,
      "start": 56.0224,
      "duration": 0.1999,
      "velocity": 53,
      "chip": "ym2612"
    },
    {
      "channel": 1,
      "note": 66,
      "start": 56.1186,
      "duration": 0.1,
      "velocity": 104,
      "chip": "ym2612"
    },
    {
      "channel": 3,
      "note": 76,
      "start": 56.1203,
      "duration": 0.3,
      "velocity": 91,
      "chip": "ym2612"
    },
    {
      "channel": 1,
      "note": 66,
      "start": 56.2187,
      "duration": 0.0999,
      "velocity": 104,
      "chip": "ym2612"
    },
    {
      "channel": 4,
      "note": 54,
      "start": 56.2212,
      "duration": 0.2002,
      "velocity": 61,
      "chip": "ym2612"
    },
    {
      "channel": 5,
      "note": 45,
      "start": 56.2224,
      "duration": 0.2002,
      "velocity": 53,
      "chip": "ym2612"
    },
    {
      "channel": 2,
      "note": 54,
      "start": 56.2694,
      "duration": 0.2999,
      "velocity": 90,
      "chip": "ym2612"
    },
    {
      "channel": 1,
      "note": 66,
      "start": 56.3186,
      "duration": 0.1,
      "velocity": 104,
      "chip": "ym2612"
    },
    {
      "channel": 1,
      "note": 66,
      "start": 56.4186,
      "duration": 0.1,
      "velocity": 104,
      "chip": "ym2612"
    },
    {
      "channel": 3,
      "note": 78,
      "start": 56.4202,
      "duration": 0.3,
      "velocity": 91,
      "chip": "ym2612"
    },
    {
      "channel": 4,
      "note": 45,
      "start": 56.4215,
      "duration": 0.1996,
      "velocity": 65,
      "chip": "ym2612"
    },
    {
      "channel": 5,
      "note": 56,
      "start": 56.4227,
      "duration": 0.1996,
      "velocity": 54,
      "chip": "ym2612"
    },
    {
      "channel": 1,
      "note": 66,
      "start": 56.5186,
      "duration": 0.1,
      "velocity": 104,
      "chip": "ym2612"
    },
    {
      "channel": 2,
      "note": 52,
      "start": 56.5694,
      "duration": 0.2999,
      "velocity": 90,
      "chip": "ym2612"
    },
    {
      "channel": 1,
      "note": 66,
      "start": 56.6187,
      "duration": 0.0999,
      "velocity": 104,
      "chip": "ym2612"
    },
    {
      "channel": 4,
      "note": 53,
      "start": 56.6211,
      "duration": 0.2,
      "velocity": 69,
      "chip": "ym2612"
    },
    {
      "channel": 5,
      "note": 45,
      "start": 56.6224,
      "duration": 0.1999,
      "velocity": 55,
      "chip": "ym2612"
    },
    {
      "channel": 1,
      "note": 66,
      "start": 56.7186,
      "duration": 0.1,
      "velocity": 104,
      "chip": "ym2612"
    },
    {
      "channel": 3,
      "note": 71,
      "start": 56.7203,
      "duration": 0.3005,
      "velocity": 91,
      "chip": "ym2612"
    },
    {
      "channel": 1,
      "note": 66,
      "start": 56.8187,
      "duration": 0.0999,
      "velocity": 104,
      "chip": "ym2612"
    },
    {
      "channel": 4,
      "note": 45,
      "start": 56.8212,
      "duration": 0.2009,
      "velocity": 73,
      "chip": "ym2612"
    },
    {
      "channel": 5,
      "note": 54,
      "start": 56.8224,
      "duration": 0.2009,
      "velocity": 57,
      "chip": "ym2612"
    },
    {
      "channel": 2,
      "note": 46,
      "start": 56.8694,
      "duration": 0.2999,
      "velocity": 90,
      "chip": "ym2612"
    },
    {
      "channel": 1,
      "note": 66,
      "start": 56.9186,
      "duration": 0.1006,
      "velocity": 104,
      "chip": "ym2612"
    },
    {
      "channel": 1,
      "note": 66,
      "start": 57.0193,
      "duration": 0.0993,
      "velocity": 104,
      "chip": "ym2612"
    },
    {
      "channel": 3,
      "note": 69,
      "start": 57.0209,
      "duration": 0.2994,
      "velocity": 91,
      "chip": "ym2612"
    },
    {
      "channel": 4,
      "note": 56,
      "start": 57.0221,
      "duration": 0.199,
      "velocity": 78,
      "chip": "ym2612"
    },
    {
      "channel": 5,
      "note": 45,
      "start": 57.0233,
      "duration": 0.199,
      "velocity": 59,
      "chip": "ym2612"
    },
    {
      "channel": 1,
      "note": 66,
      "start": 57.1186,
      "duration": 0.1,
      "velocity": 104,
      "chip": "ym2612"
    },
    {
      "channel": 2,
      "note": 42,
      "start": 57.1694,
      "duration": 0.2833,
      "velocity": 90,
      "chip": "ym2612"
    },
    {
      "channel": 1,
      "note": 66,
      "start": 57.2187,
      "duration": 0.0999,
      "velocity": 104,
      "chip": "ym2612"
    },
    {
      "channel": 4,
      "note": 47,
      "start": 57.2211,
      "duration": 0.2,
      "velocity": 81,
      "chip": "ym2612"
    },
    {
      "channel": 5,
      "note": 53,
      "start": 57.2224,
      "duration": 0.1999,
      "velocity": 63,
      "chip": "ym2612"
    },
    {
      "channel": 1,
      "note": 66,
      "start": 57.3186,
      "duration": 0.1,
      "velocity": 104,
      "chip": "ym2612"
    },
    {
      "channel": 3,
      "note": 71,
      "start": 57.3203,
      "duration": 0.2834,
      "velocity": 91,
      "chip": "ym2612"
    },
    {
      "channel": 1,
      "note": 66,
      "start": 57.4187,
      "duration": 0.0833,
      "velocity": 104,
      "chip": "ym2612"
    },
    {
      "channel": 4,
      "note": 55,
      "start": 57.4212,
      "duration": 0.1837,
      "velocity": 84,
      "chip": "ym2612"
    },
    {
      "channel": 5,
      "note": 45,
      "start": 57.4224,
      "duration": 0.1838,
      "velocity": 65,
      "chip": "ym2612"
    },
    {
      "channel": 2,
      "note": 49,
      "start": 57.4527,
      "duration": 0.2999,
      "velocity": 90,
      "chip": "ym2612"
    },
    {
      "channel": 1,
      "note": 66,
      "start": 57.502,
      "duration": 0.1001,
      "velocity": 104,
      "chip": "ym2612"
    },
    {
      "channel": 1,
      "note": 66,
      "start": 57.6021,
      "duration": 0.0999,
      "velocity": 104,
      "chip": "ym2612"
    },
    {
      "channel": 3,
      "note": 76,
      "start": 57.6037,
      "duration": 0.2998,
      "velocity": 91,
      "chip": "ym2612"
    },
    {
      "channel": 4,
      "note": 47,
      "start": 57.6049,
      "duration": 0.1995,
      "velocity": 86,
      "chip": "ym2612"
    },
    {
      "channel": 5,
      "note": 56,
      "start": 57.6062,
      "duration": 0.1994,
      "velocity": 69,
      "chip": "ym2612"
    },
    {
      "channel": 1,
      "note": 66,
      "start": 57.702,
      "duration": 0.1,
      "velocity": 104,
      "chip": "ym2612"
    },
    {
      "channel": 2,
      "note": 48,
      "start": 57.7527,
      "duration": 0.2999,
      "velocity": 90,
      "chip": "ym2612"
    },
    {
      "channel": 1,
      "note": 66,
      "start": 57.802,
      "duration": 0.0999,
      "velocity": 104,
      "chip": "ym2612"
    },
    {
      "channel": 4,
      "note": 56,
      "start": 57.8045,
      "duration": 0.1999,
      "velocity": 88,
      "chip": "ym2612"
    },
    {
      "channel": 5,
      "note": 47,
      "start": 57.8057,
      "duration": 0.1999,
      "velocity": 71,
      "chip": "ym2612"
    },
    {
      "channel": 1,
      "note": 66,
      "start": 57.902,
      "duration": 0.1,
      "velocity": 104,
      "chip": "ym2612"
    },
    {
      "channel": 3,
      "note": 69,
      "start": 57.9036,
      "duration": 0.3,
      "velocity": 91,
      "chip": "ym2612"
    },
    {
      "channel": 1,
      "note": 66,
      "start": 58.002,
      "duration": 0.0999,
      "velocity": 104,
      "chip": "ym2612"
    },
    {
      "channel": 4,
      "note": 47,
      "start": 58.0045,
      "duration": 0.2004,
      "velocity": 89,
      "chip": "ym2612"
    },
    {
      "channel": 5,
      "note": 55,
      "start": 58.0057,
      "duration": 0.2004,
      "velocity": 73,
      "chip": "ym2612"
    },
    {
      "channel": 2,
      "note": 52,
      "start": 58.0527,
      "duration": 0.2999,
      "velocity": 90,
      "chip": "ym2612"
    },
    {
      "channel": 1,
      "note": 66,
      "start": 58.102,
      "duration": 0.1001,
      "velocity": 104,
      "chip": "ym2612"
    },
    {
      "channel": 1,
      "note": 66,
      "start": 58.2021,
      "duration": 0.0998,
      "velocity": 104,
      "chip": "ym2612"
    },
    {
      "channel": 3,
      "note": 71,
      "start": 58.2037,
      "duration": 0.2999,
      "velocity": 91,
      "chip": "ym2612"
    },
    {
      "channel": 4,
      "note": 58,
      "start": 58.2049,
      "duration": 0.1995,
      "velocity": 88,
      "chip": "ym2612"
    },
    {
      "channel": 5,
      "note": 47,
      "start": 58.2062,
      "duration": 0.1995,
      "velocity": 74,
      "chip": "ym2612"
    },
    {
      "channel": 1,
      "note": 66,
      "start": 58.302,
      "duration": 0.1,
      "velocity": 104,
      "chip": "ym2612"
    },
    {
      "channel": 2,
      "note": 51,
      "start": 58.3527,
      "duration": 0.2999,
      "velocity": 90,
      "chip": "ym2612"
    },
    {
      "channel": 1,
      "note": 66,
      "start": 58.402,
      "duration": 0.0999,
      "velocity": 104,
      "chip": "ym2612"
    },
    {
      "channel": 4,
      "note": 47,
      "start": 58.4045,
      "duration": 0.1999,
      "velocity": 86,
      "chip": "ym2612"
    },
    {
      "channel": 5,
      "note": 56,
      "start": 58.4057,
      "duration": 0.2,
      "velocity": 76,
      "chip": "ym2612"
    },
    {
      "channel": 1,
      "note": 66,
      "start": 58.502,
      "duration": 0.1,
      "velocity": 104,
      "chip": "ym2612"
    },
    {
      "channel": 3,
      "note": 78,
      "start": 58.5036,
      "duration": 0.299,
      "velocity": 91,
      "chip": "ym2612"
    },
    {
      "channel": 1,
      "note": 66,
      "start": 58.602,
      "duration": 0.0999,
      "velocity": 104,
      "chip": "ym2612"
    },
    {
      "channel": 4,
      "note": 59,
      "start": 58.6045,
      "duration": 0.1999,
      "velocity": 83,
      "chip": "ym2612"
    },
    {
      "channel": 5,
      "note": 47,
      "start": 58.6058,
      "duration": 0.1999,
      "velocity": 76,
      "chip": "ym2612"
    },
    {
      "channel": 2,
      "note": 54,
      "start": 58.6527,
      "duration": 0.2998,
      "velocity": 90,
      "chip": "ym2612"
    },
    {
      "channel": 1,
      "note": 66,
      "start": 58.702,
      "duration": 0.1,
      "velocity": 104,
      "chip": "ym2612"
    },
    {
      "channel": 1,
      "note": 66,
      "start": 58.802,
      "duration": 0.0999,
      "velocity": 104,
      "chip": "ym2612"
    },
    {
      "channel": 4,
      "note": 47,
      "start": 58.8045,
      "duration": 0.1996,
      "velocity": 80,
      "chip": "ym2612"
    },
    {
      "channel": 5,
      "note": 58,
      "start": 58.8058,
      "duration": 0.1995,
      "velocity": 76,
      "chip": "ym2612"
    },
    {
      "channel": 1,
      "note": 66,
      "start": 58.9019,
      "duration": 0.0999,
      "velocity": 104,
      "chip": "ym2612"
    },
    {
      "channel": 2,
      "note": 52,
      "start": 58.9526,
      "duration": 0.3001,
      "velocity": 90,
      "chip": "ym2612"
    },
    {
      "channel": 1,
      "note": 66,
      "start": 59.0019,
      "duration": 0.1,
      "velocity": 104,
      "chip": "ym2612"
    },
    {
      "channel": 4,
      "note": 58,
      "start": 59.0042,
      "duration": 0.2002,
      "velocity": 76,
      "chip": "ym2612"
    },
    {
      "channel": 5,
      "note": 47,
      "start": 59.0054,
      "duration": 0.2003,
      "velocity": 74,
      "chip": "ym2612"
    },
    {
      "channel": 1,
      "note": 66,
      "start": 59.102,
      "duration": 0.1,
      "velocity": 104,
      "chip": "ym2612"
    },
    {
      "channel": 3,
      "note": 71,
      "start": 59.1036,
      "duration": 0.3005,
      "velocity": 91,
      "chip": "ym2612"
    },
    {
      "channel": 1,
      "note": 66,
      "start": 59.202,
      "duration": 0.0999,
      "velocity": 104,
      "chip": "ym2612"
    },
    {
      "channel": 4,
      "note": 47,
      "start": 59.2045,
      "duration": 0.2009,
      "velocity": 72,
      "chip": "ym2612"
    },
    {
      "channel": 5,
      "note": 59,
      "start": 59.2058,
      "duration": 0.2008,
      "velocity": 72,
      "chip": "ym2612"
    },
    {
      "channel": 2,
      "note": 46,
      "start": 59.2527,
      "duration": 0.3001,
      "velocity": 90,
      "chip": "ym2612"
    },
    {
      "channel": 1,
      "note": 66,
      "start": 59.302,
      "duration": 0.1006,
      "velocity": 104,
      "chip": "ym2612"
    },
    {
      "channel": 1,
      "note": 66,
      "start": 59.4026,
      "duration": 0.0993,
      "velocity": 104,
      "chip": "ym2612"
    },
    {
      "channel": 3,
      "note": 69,
      "start": 59.4042,
      "duration": 0.2827,
      "velocity": 91,
      "chip": "ym2612"
    },
    {
      "channel": 4,
      "note": 56,
      "start": 59.4055,
      "duration": 0.1823,
      "velocity": 68,
      "chip": "ym2612"
    },
    {
      "channel": 5,
      "note": 47,
      "start": 59.4067,
      "duration": 0.1823,
      "velocity": 70,
      "chip": "ym2612"
    },
    {
      "channel": 1,
      "note": 66,
      "start": 59.502,
      "duration": 0.0833,
      "velocity": 104,
      "chip": "ym2612"
    },
    {
      "channel": 2,
      "note": 42,
      "start": 59.5529,
      "duration": 0.2832,
      "velocity": 90,
      "chip": "ym2612"
    },
    {
      "channel": 1,
      "note": 66,
      "start": 59.5854,
      "duration": 0.0999,
      "velocity": 104,
      "chip": "ym2612"
    },
    {
      "channel": 4,
      "note": 47,
      "start": 59.5878,
      "duration": 0.2,
      "velocity": 64,
      "chip": "ym2612"
    },
    {
      "channel": 5,
      "note": 58,
      "start": 59.589,
      "duration": 0.1999,
      "velocity": 68,
      "chip": "ym2612"
    },
    {
      "channel": 1,
      "note": 66,
      "start": 59.6853,
      "duration": 0.1,
      "velocity": 104,
      "chip": "ym2612"
    },
    {
      "channel": 3,
      "note": 71,
      "start": 59.6869,
      "duration": 0.3,
      "velocity": 91,
      "chip": "ym2612"
    },
    {
      "channel": 1,
      "note": 66,
      "start": 59.7854,
      "duration": 0.0999,
      "velocity": 104,
      "chip": "ym2612"
    },
    {
      "channel": 4,
      "note": 55,
      "start": 59.7878,
      "duration": 0.2003,
      "velocity": 61,
      "chip": "ym2612"
    },
    {
      "channel": 5,
      "note": 47,
      "start": 59.789,
      "duration": 0.2003,
      "velocity": 65,
      "chip": "ym2612"
    },
    {
      "channel": 2,
      "note": 49,
      "start": 59.8361,
      "duration": 0.2999,
      "velocity": 90,
      "chip": "ym2612"
    },
    {
      "channel": 1,
      "note": 66,
      "start": 59.8853,
      "duration": 0.1,
      "velocity": 104,
      "chip": "ym2612"
    },
    {
      "channel": 1,
      "note": 66,
      "start": 59.9853,
      "duration": 0.1,
      "velocity": 104,
      "chip": "ym2612"
    },
    {
      "channel": 3,
      "note": 76,
      "start": 59.9869,
      "duration": 0.3,
      "velocity": 91,
      "chip": "ym2612"
    },
    {
      "channel": 4,
      "note": 47,
      "start": 59.9882,
      "duration": 0.1995,
      "velocity": 58,
      "chip": "ym2612"
    },
    {
      "channel": 5,
      "note": 56,
      "start": 59.9894,
      "duration": 0.1995,
      "velocity": 61,
      "chip": "ym2612"
    },
    {
      "channel": 1,
      "note": 66,
      "start": 60.0853,
      "duration": 0.1,
      "velocity": 104,
      "chip": "ym2612"
    },
    {
      "channel": 2,
      "note": 48,
      "start": 60.1361,
      "duration": 0.2999,
      "velocity": 90,
      "chip": "ym2612"
    },
    {
      "channel": 1,
      "note": 66,
      "start": 60.1854,
      "duration": 0.0999,
      "velocity": 104,
      "chip": "ym2612"
    },
    {
      "channel": 4,
      "note": 56,
      "start": 60.1878,
      "duration": 0.2,
      "velocity": 57,
      "chip": "ym2612"
    },
    {
      "channel": 5,
      "note": 47,
      "start": 60.189,
      "duration": 0.1999,
      "velocity": 59,
      "chip": "ym2612"
    },
    {
      "channel": 1,
      "note": 66,
      "start": 60.2853,
      "duration": 0.1,
      "velocity": 104,
      "chip": "ym2612"
    },
    {
      "channel": 3,
      "note": 69,
      "start": 60.2869,
      "duration": 0.3,
      "velocity": 91,
      "chip": "ym2612"
    },
    {
      "channel": 1,
      "note": 66,
      "start": 60.3854,
      "duration": 0.0999,
      "velocity": 104,
      "chip": "ym2612"
    },
    {
      "channel": 4,
      "note": 47,
      "start": 60.3878,
      "duration": 0.2004,
      "velocity": 56,
      "chip": "ym2612"
    },
    {
      "channel": 5,
      "note": 55,
      "start": 60.389,
      "duration": 0.2004,
      "velocity": 57,
      "chip": "ym2612"
    },
    {
      "channel": 2,
      "note": 52,
      "start": 60.4361,
      "duration": 0.2999,
      "velocity": 90,
      "chip": "ym2612"
    },
    {
      "channel": 1,
      "note": 66,
      "start": 60.4853,
      "duration": 0.1001,
      "velocity": 104,
      "chip": "ym2612"
    },
    {
      "channel": 1,
      "note": 66,
      "start": 60.5854,
      "duration": 0.0998,
      "velocity": 104,
      "chip": "ym2612"
    },
    {
      "channel": 3,
      "note": 71,
      "start": 60.587,
      "duration": 0.2999,
      "velocity": 91,
      "chip": "ym2612"
    },
    {
      "channel": 4,
      "note": 55,
      "start": 60.5883,
      "duration": 0.1995,
      "velocity": 57,
      "chip": "ym2612"
    },
    {
      "channel": 5,
      "note": 47,
      "start": 60.5895,
      "duration": 0.1995,
      "velocity": 55,
      "chip": "ym2612"
    },
    {
      "channel": 1,
      "note": 66,
      "start": 60.6853,
      "duration": 0.1,
      "velocity": 104,
      "chip": "ym2612"
    },
    {
      "channel": 2,
      "note": 51,
      "start": 60.736,
      "duration": 0.3,
      "velocity": 90,
      "chip": "ym2612"
    },
    {
      "channel": 1,
      "note": 66,
      "start": 60.7854,
      "duration": 0.0999,
      "velocity": 104,
      "chip": "ym2612"
    },
    {
      "channel": 4,
      "note": 47,
      "start": 60.7878,
      "duration": 0.1999,
      "velocity": 59,
      "chip": "ym2612"
    },
    {
      "channel": 5,
      "note": 56,
      "start": 60.789,
      "duration": 0.1999,
      "velocity": 53,
      "chip": "ym2612"
    },
    {
      "channel": 1,
      "note": 66,
      "start": 60.8853,
      "duration": 0.1,
      "velocity": 104,
      "chip": "ym2612"
    },
    {
      "channel": 3,
      "note": 78,
      "start": 60.8869,
      "duration": 0.3,
      "velocity": 91,
      "chip": "ym2612"
    },
    {
      "channel": 1,
      "note": 66,
      "start": 60.9854,
      "duration": 0.0999,
      "velocity": 104,
      "chip": "ym2612"
    },
    {
      "channel": 4,
      "note": 56,
      "start": 60.9878,
      "duration": 0.2002,
      "velocity": 61,
      "chip": "ym2612"
    },
    {
      "channel": 5,
      "note": 47,
      "start": 60.989,
      "duration": 0.2003,
      "velocity": 53,
      "chip": "ym2612"
    },
    {
      "channel": 2,
      "note": 54,
      "start": 61.0361,
      "duration": 0.2999,
      "velocity": 90,
      "chip": "ym2612"
    },
    {
      "channel": 1,
      "note": 66,
      "start": 61.0853,
      "duration": 0.1,
      "velocity": 104,
      "chip": "ym2612"
    },
    {
      "channel": 1,
      "note": 66,
      "start": 61.1853,
      "duration": 0.1,
      "velocity": 104,
      "chip": "ym2612"
    },
    {
      "channel": 3,
      "note": 83,
      "start": 61.1869,
      "duration": 0.3006,
      "velocity": 91,
      "chip": "ym2612"
    },
    {
      "channel": 4,
      "note": 47,
      "start": 61.1882,
      "duration": 0.2003,
      "velocity": 65,
      "chip": "ym2612"
    },
    {
      "channel": 5,
      "note": 55,
      "start": 61.1894,
      "duration": 0.2002,
      "velocity": 54,
      "chip": "ym2612"
    },
    {
      "channel": 1,
      "note": 66,
      "start": 61.2853,
      "duration": 0.1007,
      "velocity": 104,
      "chip": "ym2612"
    },
    {
      "channel": 2,
      "note": 52,
      "start": 61.3361,
      "duration": 0.3,
      "velocity": 90,
      "chip": "ym2612"
    },
    {
      "channel": 0,
      "note": 64,
      "start": 61.3852,
      "duration": 0.0999,
      "velocity": 99,
      "chip": "ym2612"
    },
    {
      "channel": 1,
      "note": 66,
      "start": 61.3861,
      "duration": 0.0999,
      "velocity": 104,
      "chip": "ym2612"
    },
    {
      "channel": 4,
      "note": 58,
      "start": 61.3885,
      "duration": 0.2001,
      "velocity": 69,
      "chip": "ym2612"
    },
    {
      "channel": 5,
      "note": 47,
      "start": 61.3898,
      "duration": 0.2001,
      "velocity": 55,
      "chip": "ym2612"
    },
    {
      "channel": 0,
      "note": 68,
      "start": 61.4851,
      "duration": 0.1001,
      "velocity": 99,
      "chip": "ym2612"
    },
    {
      "channel": 1,
      "note": 66,
      "start": 61.486,
      "duration": 0.1001,
      "velocity": 104,
      "chip": "ym2612"
    },
    {
      "channel": 3,
      "note": 78,
      "start": 61.4876,
      "duration": 0.2837,
      "velocity": 91,
      "chip": "ym2612"
    },
    {
      "channel": 0,
      "note": 71,
      "start": 61.5853,
      "duration": 0.0998,
      "velocity": 99,
      "chip": "ym2612"
    },
    {
      "channel": 1,
      "note": 66,
      "start": 61.5862,
      "duration": 0.0998,
      "velocity": 104,
      "chip": "ym2612"
    },
    {
      "channel": 4,
      "note": 47,
      "start": 61.5887,
      "duration": 0.184,
      "velocity": 73,
      "chip": "ym2612"
    },
    {
      "channel": 5,
      "note": 56,
      "start": 61.5899,
      "duration": 0.184,
      "velocity": 57,
      "chip": "ym2612"
    },
    {
      "channel": 2,
      "note": 46,
      "start": 61.6361,
      "duration": 0.2838,
      "velocity": 90,
      "chip": "ym2612"
    },
    {
      "channel": 0,
      "note": 74,
      "start": 61.6851,
      "duration": 0.0837,
      "velocity": 99,
      "chip": "ym2612"
    },
    {
      "channel": 1,
      "note": 66,
      "start": 61.686,
      "duration": 0.0838,
      "velocity": 104,
      "chip": "ym2612"
    },
    {
      "channel": 0,
      "note": 75,
      "start": 61.7688,
      "duration": 2.3819,
      "velocity": 99,
      "chip": "ym2612"
    },
    {
      "channel": 1,
      "note": 66,
      "start": 61.7698,
      "duration": 0.0995,
      "velocity": 104,
      "chip": "ym2612"
    },
    {
      "channel": 3,
      "note": 85,
      "start": 61.7714,
      "duration": 0.1496,
      "velocity": 91,
      "chip": "ym2612"
    },
    {
      "channel": 4,
      "note": 59,
      "start": 61.7727,
      "duration": 0.1991,
      "velocity": 78,
      "chip": "ym2612"
    },
    {
      "channel": 5,
      "note": 47,
      "start": 61.7739,
      "duration": 0.1992,
      "velocity": 59,
      "chip": "ym2612"
    },
    {
      "channel": 1,
      "note": 66,
      "start": 61.8694,
      "duration": 0.0999,
      "velocity": 104,
      "chip": "ym2612"
    },
    {
      "channel": 2,
      "note": 42,
      "start": 61.92,
      "duration": 0.3001,
      "velocity": 90,
      "chip": "ym2612"
    },
    {
      "channel": 3,
      "note": 83,
      "start": 61.9211,
      "duration": 0.1492,
      "velocity": 91,
      "chip": "ym2612"
    },
    {
      "channel": 1,
      "note": 66,
      "start": 61.9694,
      "duration": 0.0993,
      "velocity": 104,
      "chip": "ym2612"
    },
    {
      "channel": 4,
      "note": 47,
      "start": 61.9719,
      "duration": 0.2,
      "velocity": 81,
      "chip": "ym2612"
    },
    {
      "channel": 5,
      "note": 58,
      "start": 61.9732,
      "duration": 0.1999,
      "velocity": 63,
      "chip": "ym2612"
    },
    {
      "channel": 1,
      "note": 66,
      "start": 62.0688,
      "duration": 0.1006,
      "velocity": 104,
      "chip": "ym2612"
    },
    {
      "channel": 3,
      "note": 81,
      "start": 62.0704,
      "duration": 0.1508,
      "velocity": 91,
      "chip": "ym2612"
    },
    {
      "channel": 1,
      "note": 66,
      "start": 62.1694,
      "duration": 0.1001,
      "velocity": 104,
      "chip": "ym2612"
    },
    {
      "channel": 4,
      "note": 58,
      "start": 62.1719,
      "duration": 0.1999,
      "velocity": 84,
      "chip": "ym2612"
    },
    {
      "channel": 5,
      "note": 47,
      "start": 62.1732,
      "duration": 0.1999,
      "velocity": 65,
      "chip": "ym2612"
    },
    {
      "channel": 2,
      "note": 49,
      "start": 62.2202,
      "duration": 0.2998,
      "velocity": 90,
      "chip": "ym2612"
    },
    {
      "channel": 3,
      "note": 76,
      "start": 62.2212,
      "duration": 0.2998,
      "velocity": 91,
      "chip": "ym2612"
    },
    {
      "channel": 1,
      "note": 66,
      "start": 62.2695,
      "duration": 0.0998,
      "velocity": 104,
      "chip": "ym2612"
    },
    {
      "channel": 1,
      "note": 66,
      "start": 62.3694,
      "duration": 0.0999,
      "velocity": 104,
      "chip": "ym2612"
    },
    {
      "channel": 4,
      "note": 47,
      "start": 62.3719,
      "duration": 0.1993,
      "velocity": 86,
      "chip": "ym2612"
    },
    {
      "channel": 5,
      "note": 59,
      "start": 62.3732,
      "duration": 0.1993,
      "velocity": 69,
      "chip": "ym2612"
    },
    {
      "channel": 1,
      "note": 66,
      "start": 62.4694,
      "duration": 0.0994,
      "velocity": 104,
      "chip": "ym2612"
    },
    {
      "channel": 2,
      "note": 48,
      "start": 62.52,
      "duration": 0.3001,
      "velocity": 90,
      "chip": "ym2612"
    },
    {
      "channel": 3,
      "note": 78,
      "start": 62.5211,
      "duration": 0.1499,
      "velocity": 91,
      "chip": "ym2612"
    },
    {
      "channel": 1,
      "note": 66,
      "start": 62.5688,
      "duration": 0.1005,
      "velocity": 104,
      "chip": "ym2612"
    },
    {
      "channel": 4,
      "note": 56,
      "start": 62.5713,
      "duration": 0.2005,
      "velocity": 88,
      "chip": "ym2612"
    },
    {
      "channel": 5,
      "note": 47,
      "start": 62.5725,
      "duration": 0.2006,
      "velocity": 71,
      "chip": "ym2612"
    },
    {
      "channel": 1,
      "note": 66,
      "start": 62.6694,
      "duration": 0.0999,
      "velocity": 104,
      "chip": "ym2612"
    },
    {
      "channel": 3,
      "note": 85,
      "start": 62.671,
      "duration": 0.1501,
      "velocity": 91,
      "chip": "ym2612"
    },
    {
      "channel": 1,
      "note": 66,
      "start": 62.7694,
      "duration": 0.0999,
      "velocity": 104,
      "chip": "ym2612"
    },
    {
      "channel": 4,
      "note": 47,
      "start": 62.7719,
      "duration": 0.2004,
      "velocity": 89,
      "chip": "ym2612"
    },
    {
      "channel": 5,
      "note": 58,
      "start": 62.7732,
      "duration": 0.2004,
      "velocity": 73,
      "chip": "ym2612"
    },
    {
      "channel": 2,
      "note": 52,
      "start": 62.8201,
      "duration": 0.2998,
      "velocity": 90,
      "chip": "ym2612"
    },
    {
      "channel": 3,
      "note": 83,
      "start": 62.8212,
      "duration": 0.1498,
      "velocity": 91,
      "chip": "ym2612"
    },
    {
      "channel": 1,
      "note": 66,
      "start": 62.8693,
      "duration": 0.1001,
      "velocity": 104,
      "chip": "ym2612"
    },
    {
      "channel": 1,
      "note": 66,
      "start": 62.9695,
      "duration": 0.1,
      "velocity": 104,
      "chip": "ym2612"
    },
    {
      "channel": 3,
      "note": 81,
      "start": 62.9711,
      "duration": 0.1499,
      "velocity": 91,
      "chip": "ym2612"
    },
    {
      "channel": 4,
      "note": 55,
      "start": 62.9724,
      "duration": 0.1994,
      "velocity": 88,
      "chip": "ym2612"
    },
    {
      "channel": 5,
      "note": 47,
      "start": 62.9736,
      "duration": 0.1995,
      "velocity": 74,
      "chip": "ym2612"
    },
    {
      "channel": 1,
      "note": 66,
      "start": 63.0695,
      "duration": 0.0998,
      "velocity": 104,
      "chip": "ym2612"
    },
    {
      "channel": 2,
      "note": 51,
      "start": 63.12,
      "duration": 0.3001,
      "velocity": 90,
      "chip": "ym2612"
    },
    {
      "channel": 3,
      "note": 76,
      "start": 63.121,
      "duration": 0.3001,
      "velocity": 91,
      "chip": "ym2612"
    },
    {
      "channel": 1,
      "note": 66,
      "start": 63.1694,
      "duration": 0.0999,
      "velocity": 104,
      "chip": "ym2612"
    },
    {
      "channel": 4,
      "note": 47,
      "start": 63.1719,
      "duration": 0.1999,
      "velocity": 86,
      "chip": "ym2612"
    },
    {
      "channel": 5,
      "note": 56,
      "start": 63.1732,
      "duration": 0.1998,
      "velocity": 76,
      "chip": "ym2612"
    },
    {
      "channel": 1,
      "note": 66,
      "start": 63.2694,
      "duration": 0.0999,
      "velocity": 104,
      "chip": "ym2612"
    },
    {
      "channel": 1,
      "note": 66,
      "start": 63.3694,
      "duration": 0.1001,
      "velocity": 104,
      "chip": "ym2612"
    },
    {
      "channel": 4,
      "note": 56,
      "start": 63.3719,
      "duration": 0.1999,
      "velocity": 83,
      "chip": "ym2612"
    },
    {
      "channel": 5,
      "note": 47,
      "start": 63.373,
      "duration": 0.2,
      "velocity": 76,
      "chip": "ym2612"
    },
    {
      "channel": 2,
      "note": 54,
      "start": 63.4202,
      "duration": 0.2998,
      "velocity": 90,
      "chip": "ym2612"
    },
    {
      "channel": 3,
      "note": 78,
      "start": 63.4212,
      "duration": 0.2998,
      "velocity": 91,
      "chip": "ym2612"
    },
    {
      "channel": 1,
      "note": 66,
      "start": 63.4695,
      "duration": 0.0998,
      "velocity": 104,
      "chip": "ym2612"
    },
    {
      "channel": 1,
      "note": 66,
      "start": 63.5694,
      "duration": 0.0999,
      "velocity": 104,
      "chip": "ym2612"
    },
    {
      "channel": 4,
      "note": 47,
      "start": 63.5718,
      "duration": 0.2,
      "velocity": 80,
      "chip": "ym2612"
    },
    {
      "channel": 5,
      "note": 55,
      "start": 63.5731,
      "duration": 0.2,
      "velocity": 76,
      "chip": "ym2612"
    },
    {
      "channel": 1,
      "note": 66,
      "start": 63.6694,
      "duration": 0.0999,
      "velocity": 104,
      "chip": "ym2612"
    },
    {
      "channel": 2,
      "note": 52,
      "start": 63.72,
      "duration": 0.2835,
      "velocity": 90,
      "chip": "ym2612"
    },
    {
      "channel": 3,
      "note": 71,
      "start": 63.721,
      "duration": 0.1334,
      "velocity": 91,
      "chip": "ym2612"
    },
    {
      "channel": 1,
      "note": 66,
      "start": 63.7694,
      "duration": 0.0834,
      "velocity": 104,
      "chip": "ym2612"
    },
    {
      "channel": 4,
      "note": 55,
      "start": 63.7719,
      "duration": 0.1833,
      "velocity": 76,
      "chip": "ym2612"
    },
    {
      "channel": 5,
      "note": 47,
      "start": 63.7732,
      "duration": 0.1833,
      "velocity": 74,
      "chip": "ym2612"
    },
    {
      "channel": 1,
      "note": 66,
      "start": 63.8529,
      "duration": 0.0998,
      "velocity": 104,
      "chip": "ym2612"
    },
    {
      "channel": 3,
      "note": 76,
      "start": 63.8544,
      "duration": 0.2996,
      "velocity": 91,
      "chip": "ym2612"
    },
    {
      "channel": 1,
      "note": 66,
      "start": 63.9527,
      "duration": 0.0999,
      "velocity": 104,
      "chip": "ym2612"
    },
    {
      "channel": 4,
      "note": 47,
      "start": 63.9552,
      "duration": 0.2,
      "velocity": 72,
      "chip": "ym2612"
    },
    {
      "channel": 5,
      "note": 56,
      "start": 63.9565,
      "duration": 0.2,
      "velocity": 72,
      "chip": "ym2612"
    },
    {
      "channel": 2,
      "note": 46,
      "start": 64.0035,
      "duration": 0.2992,
      "velocity": 90,
      "chip": "ym2612"
    },
    {
      "channel": 1,
      "note": 66,
      "start": 64.0527,
      "duration": 0.0997,
      "velocity": 104,
      "chip": "ym2612"
    },
    {
      "channel": 1,
      "note": 66,
      "start": 64.1525,
      "duration": 0.0995,
      "velocity": 104,
      "chip": "ym2612"
    },
    {
      "channel": 3,
      "note": 69,
      "start": 64.1541,
      "duration": 0.1498,
      "velocity": 91,
      "chip": "ym2612"
    },
    {
      "channel": 4,
      "note": 56,
      "start": 64.1553,
      "duration": 0.1991,
      "velocity": 68,
      "chip": "ym2612"
    },
    {
      "channel": 5,
      "note": 47,
      "start": 64.1565,
      "duration": 0.1991,
      "velocity": 70,
      "chip": "ym2612"
    },
    {
      "channel": 1,
      "note": 66,
      "start": 64.252,
      "duration": 0.1,
      "velocity": 104,
      "chip": "ym2612"
    },
    {
      "channel": 2,
      "note": 42,
      "start": 64.3028,
      "duration": 0.2999,
      "velocity": 90,
      "chip": "ym2612"
    },
    {
      "channel": 3,
      "note": 64,
      "start": 64.3039,
      "duration": 0.1497,
      "velocity": 91,
      "chip": "ym2612"
    },
    {
      "channel": 1,
      "note": 66,
      "start": 64.352,
      "duration": 0.0999,
      "velocity": 104,
      "chip": "ym2612"
    },
    {
      "channel": 4,
      "note": 47,
      "start": 64.3544,
      "duration": 0.2,
      "velocity": 64,
      "chip": "ym2612"
    },
    {
      "channel": 5,
      "note": 55,
      "start": 64.3557,
      "duration": 0.1999,
      "velocity": 68,
      "chip": "ym2612"
    },
    {
      "channel": 1,
      "note": 66,
      "start": 64.452,
      "duration": 0.1,
      "velocity": 104,
      "chip": "ym2612"
    },
    {
      "channel": 3,
      "note": 66,
      "start": 64.4536,
      "duration": 0.1501,
      "velocity": 91,
      "chip": "ym2612"
    },
    {
      "channel": 1,
      "note": 66,
      "start": 64.552,
      "duration": 0.0999,
      "velocity": 104,
      "chip": "ym2612"
    },
    {
      "channel": 4,
      "note": 58,
      "start": 64.5545,
      "duration": 0.2003,
      "velocity": 61,
      "chip": "ym2612"
    },
    {
      "channel": 5,
      "note": 47,
      "start": 64.5557,
      "duration": 0.2003,
      "velocity": 65,
      "chip": "ym2612"
    },
    {
      "channel": 2,
      "note": 49,
      "start": 64.6027,
      "duration": 0.2999,
      "velocity": 90,
      "chip": "ym2612"
    },
    {
      "channel": 3,
      "note": 71,
      "start": 64.6038,
      "duration": 0.1498,
      "velocity": 91,
      "chip": "ym2612"
    },
    {
      "channel": 1,
      "note": 66,
      "start": 64.652,
      "duration": 0.1,
      "velocity": 104,
      "chip": "ym2612"
    },
    {
      "channel": 1,
      "note": 66,
      "start": 64.752,
      "duration": 0.1,
      "velocity": 104,
      "chip": "ym2612"
    },
    {
      "channel": 3,
      "note": 76,
      "start": 64.7536,
      "duration": 0.1501,
      "velocity": 91,
      "chip": "ym2612"
    },
    {
      "channel": 4,
      "note": 47,
      "start": 64.7549,
      "duration": 0.1995,
      "velocity": 58,
      "chip": "ym2612"
    },
    {
      "channel": 5,
      "note": 56,
      "start": 64.7561,
      "duration": 0.1995,
      "velocity": 61,
      "chip": "ym2612"
    },
    {
      "channel": 1,
      "note": 66,
      "start": 64.852,
      "duration": 0.1,
      "velocity": 104,
      "chip": "ym2612"
    },
    {
      "channel": 2,
      "note": 48,
      "start": 64.9027,
      "duration": 0.2999,
      "velocity": 90,
      "chip": "ym2612"
    },
    {
      "channel": 3,
      "note": 78,
      "start": 64.9038,
      "duration": 0.2999,
      "velocity": 91,
      "chip": "ym2612"
    },
    {
      "channel": 1,
      "note": 66,
      "start": 64.952,
      "duration": 0.0999,
      "velocity": 104,
      "chip": "ym2612"
    },
    {
      "channel": 4,
      "note": 59,
      "start": 64.9545,
      "duration": 0.1999,
      "velocity": 57,
      "chip": "ym2612"
    },
    {
      "channel": 5,
      "note": 47,
      "start": 64.9557,
      "duration": 0.1999,
      "velocity": 59,
      "chip": "ym2612"
    },
    {
      "channel": 1,
      "note": 66,
      "start": 65.052,
      "duration": 0.1,
      "velocity": 104,
      "chip": "ym2612"
    },
    {
      "channel": 1,
      "note": 66,
      "start": 65.152,
      "duration": 0.0999,
      "velocity": 104,
      "chip": "ym2612"
    },
    {
      "channel": 4,
      "note": 47,
      "start": 65.1545,
      "duration": 0.2,
      "velocity": 56,
      "chip": "ym2612"
    },
    {
      "channel": 5,
      "note": 58,
      "start": 65.1557,
      "duration": 0.2001,
      "velocity": 57,
      "chip": "ym2612"
    },
    {
      "channel": 2,
      "note": 52,
      "start": 65.2027,
      "duration": 0.2999,
      "velocity": 90,
      "chip": "ym2612"
    },
    {
      "channel": 3,
      "note": 83,
      "start": 65.2038,
      "duration": 0.2999,
      "velocity": 91,
      "chip": "ym2612"
    },
    {
      "channel": 1,
      "note": 66,
      "start": 65.252,
      "duration": 0.1001,
      "velocity": 104,
      "chip": "ym2612"
    },
    {
      "channel": 1,
      "note": 66,
      "start": 65.3521,
      "duration": 0.0998,
      "velocity": 104,
      "chip": "ym2612"
    },
    {
      "channel": 4,
      "note": 58,
      "start": 65.3546,
      "duration": 0.1999,
      "velocity": 57,
      "chip": "ym2612"
    },
    {
      "channel": 5,
      "note": 47,
      "start": 65.3558,
      "duration": 0.1999,
      "velocity": 55,
      "chip": "ym2612"
    },
    {
      "channel": 1,
      "note": 66,
      "start": 65.452,
      "duration": 0.1,
      "velocity": 104,
      "chip": "ym2612"
    },
    {
      "channel": 2,
      "note": 51,
      "start": 65.5027,
      "duration": 0.2999,
      "velocity": 90,
      "chip": "ym2612"
    },
    {
      "channel": 3,
      "note": 81,
      "start": 65.5038,
      "duration": 0.2999,
      "velocity": 91,
      "chip": "ym2612"
    },
    {
      "channel": 1,
      "note": 66,
      "start": 65.552,
      "duration": 0.0999,
      "velocity": 104,
      "chip": "ym2612"
    },
    {
      "channel": 4,
      "note": 47,
      "start": 65.5545,
      "duration": 0.1999,
      "velocity": 59,
      "chip": "ym2612"
    },
    {
      "channel": 5,
      "note": 59,
      "start": 65.5557,
      "duration": 0.1999,
      "velocity": 53,
      "chip": "ym2612"
    },
    {
      "channel": 1,
      "note": 66,
      "start": 65.652,
      "duration": 0.1,
      "velocity": 104,
      "chip": "ym2612"
    },
    {
      "channel": 1,
      "note": 66,
      "start": 65.752,
      "duration": 0.0999,
      "velocity": 104,
      "chip": "ym2612"
    },
    {
      "channel": 4,
      "note": 56,
      "start": 65.7545,
      "duration": 0.1999,
      "velocity": 61,
      "chip": "ym2612"
    },
    {
      "channel": 5,
      "note": 47,
      "start": 65.7557,
      "duration": 0.1999,
      "velocity": 53,
      "chip": "ym2612"
    },
    {
      "channel": 2,
      "note": 54,
      "start": 65.8027,
      "duration": 0.2833,
      "velocity": 90,
      "chip": "ym2612"
    },
    {
      "channel": 3,
      "note": 88,
      "start": 65.8038,
      "duration": 0.2833,
      "velocity": 91,
      "chip": "ym2612"
    },
    {
      "channel": 1,
      "note": 66,
      "start": 65.852,
      "duration": 0.1,
      "velocity": 104,
      "chip": "ym2612"
    },
    {
      "channel": 1,
      "note": 66,
      "start": 65.952,
      "duration": 0.0833,
      "velocity": 104,
      "chip": "ym2612"
    },
    {
      "channel": 4,
      "note": 47,
      "start": 65.9544,
      "duration": 0.1833,
      "velocity": 65,
      "chip": "ym2612"
    },
    {
      "channel": 5,
      "note": 58,
      "start": 65.9557,
      "duration": 0.1833,
      "velocity": 54,
      "chip": "ym2612"
    },
    {
      "channel": 1,
      "note": 66,
      "start": 66.0353,
      "duration": 0.1,
      "velocity": 104,
      "chip": "ym2612"
    },
    {
      "channel": 2,
      "note": 52,
      "start": 66.0861,
      "duration": 0.2999,
      "velocity": 90,
      "chip": "ym2612"
    },
    {
      "channel": 3,
      "note": 81,
      "start": 66.0871,
      "duration": 0.1498,
      "velocity": 91,
      "chip": "ym2612"
    },
    {
      "channel": 1,
      "note": 66,
      "start": 66.1354,
      "duration": 0.0999,
      "velocity": 104,
      "chip": "ym2612"
    },
    {
      "channel": 4,
      "note": 55,
      "start": 66.1378,
      "duration": 0.2,
      "velocity": 69,
      "chip": "ym2612"
    },
    {
      "channel": 5,
      "note": 47,
      "start": 66.139,
      "duration": 0.1999,
      "velocity": 55,
      "chip": "ym2612"
    },
    {
      "channel": 1,
      "note": 66,
      "start": 66.2353,
      "duration": 0.1,
      "velocity": 104,
      "chip": "ym2612"
    },
    {
      "channel": 3,
      "note": 83,
      "start": 66.2369,
      "duration": 0.3003,
      "velocity": 91,
      "chip": "ym2612"
    },
    {
      "channel": 1,
      "note": 66,
      "start": 66.3354,
      "duration": 0.0999,
      "velocity": 104,
      "chip": "ym2612"
    },
    {
      "channel": 4,
      "note": 47,
      "start": 66.3378,
      "duration": 0.2006,
      "velocity": 73,
      "chip": "ym2612"
    },
    {
      "channel": 5,
      "note": 56,
      "start": 66.339,
      "duration": 0.2006,
      "velocity": 57,
      "chip": "ym2612"
    },
    {
      "channel": 2,
      "note": 46,
      "start": 66.3861,
      "duration": 0.3,
      "velocity": 90,
      "chip": "ym2612"
    },
    {
      "channel": 1,
      "note": 66,
      "start": 66.4353,
      "duration": 0.1003,
      "velocity": 104,
      "chip": "ym2612"
    },
    {
      "channel": 1,
      "note": 66,
      "start": 66.5357,
      "duration": 0.0996,
      "velocity": 104,
      "chip": "ym2612"
    },
    {
      "channel": 3,
      "note": 76,
      "start": 66.5373,
      "duration": 0.2996,
      "velocity": 91,
      "chip": "ym2612"
    },
    {
      "channel": 4,
      "note": 54,
      "start": 66.5385,
      "duration": 0.1992,
      "velocity": 78,
      "chip": "ym2612"
    },
    {
      "channel": 5,
      "note": 47,
      "start": 66.5398,
      "duration": 0.1993,
      "velocity": 59,
      "chip": "ym2612"
    },
    {
      "channel": 1,
      "note": 66,
      "start": 66.6353,
      "duration": 0.1,
      "velocity": 104,
      "chip": "ym2612"
    },
    {
      "channel": 2,
      "note": 42,
      "start": 66.6861,
      "duration": 0.2999,
      "velocity": 90,
      "chip": "ym2612"
    },
    {
      "channel": 1,
      "note": 66,
      "start": 66.7354,
      "duration": 0.0999,
      "velocity": 104,
      "chip": "ym2612"
    },
    {
      "channel": 4,
      "note": 45,
      "start": 66.7378,
      "duration": 0.1999,
      "velocity": 81,
      "chip": "ym2612"
    },
    {
      "channel": 5,
      "note": 55,
      "start": 66.7391,
      "duration": 0.1999,
      "velocity": 63,
      "chip": "ym2612"
    },
    {
      "channel": 1,
      "note": 66,
      "start": 66.8353,
      "duration": 0.1,
      "velocity": 104,
      "chip": "ym2612"
    },
    {
      "channel": 3,
      "note": 78,
      "start": 66.8369,
      "duration": 0.3001,
      "velocity": 91,
      "chip": "ym2612"
    },
    {
      "channel": 1,
      "note": 66,
      "start": 66.9354,
      "duration": 0.0999,
      "velocity": 104,
      "chip": "ym2612"
    },
    {
      "channel": 4,
      "note": 53,
      "start": 66.9378,
      "duration": 0.2004,
      "velocity": 84,
      "chip": "ym2612"
    },
    {
      "channel": 5,
      "note": 47,
      "start": 66.939,
      "duration": 0.2005,
      "velocity": 65,
      "chip": "ym2612"
    },
    {
      "channel": 2,
      "note": 49,
      "start": 66.9861,
      "duration": 0.2999,
      "velocity": 90,
      "chip": "ym2612"
    },
    {
      "channel": 1,
      "note": 66,
      "start": 67.0353,
      "duration": 0.1001,
      "velocity": 104,
      "chip": "ym2612"
    },
    {
      "channel": 1,
      "note": 66,
      "start": 67.1354,
      "duration": 0.0999,
      "velocity": 104,
      "chip": "ym2612"
    },
    {
      "channel": 3,
      "note": 83,
      "start": 67.1371,
      "duration": 0.2998,
      "velocity": 91,
      "chip": "ym2612"
    },
    {
      "channel": 4,
      "note": 45,
      "start": 67.1383,
      "duration": 0.1995,
      "velocity": 86,
      "chip": "ym2612"
    },
    {
      "channel": 5,
      "note": 54,
      "start": 67.1395,
      "duration": 0.1994,
      "velocity": 69,
      "chip": "ym2612"
    },
    {
      "channel": 1,
      "note": 66,
      "start": 67.2353,
      "duration": 0.1,
      "velocity": 104,
      "chip": "ym2612"
    },
    {
      "channel": 2,
      "note": 48,
      "start": 67.2861,
      "duration": 0.2999,
      "velocity": 90,
      "chip": "ym2612"
    },
    {
      "channel": 1,
      "note": 66,
      "start": 67.3354,
      "duration": 0.0999,
      "velocity": 104,
      "chip": "ym2612"
    },
    {
      "channel": 4,
      "note": 54,
      "start": 67.3378,
      "duration": 0.2,
      "velocity": 88,
      "chip": "ym2612"
    },
    {
      "channel": 5,
      "note": 45,
      "start": 67.339,
      "duration": 0.2,
      "velocity": 71,
      "chip": "ym2612"
    },
    {
      "channel": 1,
      "note": 66,
      "start": 67.4353,
      "duration": 0.1,
      "velocity": 104,
      "chip": "ym2612"
    },
    {
      "channel": 3,
      "note": 76,
      "start": 67.4369,
      "duration": 0.3,
      "velocity": 91,
      "chip": "ym2612"
    },
    {
      "channel": 1,
      "note": 66,
      "start": 67.5354,
      "duration": 0.0999,
      "velocity": 104,
      "chip": "ym2612"
    },
    {
      "channel": 4,
      "note": 45,
      "start": 67.5378,
      "duration": 0.2004,
      "velocity": 89,
      "chip": "ym2612"
    },
    {
      "channel": 5,
      "note": 53,
      "start": 67.5391,
      "duration": 0.2003,
      "velocity": 73,
      "chip": "ym2612"
    },
    {
      "channel": 2,
      "note": 52,
      "start": 67.5861,
      "duration": 0.2999,
      "velocity": 90,
      "chip": "ym2612"
    },
    {
      "channel": 1,
      "note": 66,
      "start": 67.6353,
      "duration": 0.1001,
      "velocity": 104,
      "chip": "ym2612"
    },
    {
      "channel": 1,
      "note": 66,
      "start": 67.7354,
      "duration": 0.0998,
      "velocity": 104,
      "chip": "ym2612"
    },
    {
      "channel": 3,
      "note": 78,
      "start": 67.737,
      "duration": 0.2999,
      "velocity": 91,
      "chip": "ym2612"
    },
    {
      "channel": 4,
      "note": 56,
      "start": 67.7383,
      "duration": 0.1995,
      "velocity": 88,
      "chip": "ym2612"
    },
    {
      "channel": 5,
      "note": 45,
      "start": 67.7395,
      "duration": 0.1995,
      "velocity": 74,
      "chip": "ym2612"
    },
    {
      "channel": 1,
      "note": 66,
      "start": 67.8353,
      "duration": 0.1,
      "velocity": 104,
      "chip": "ym2612"
    },
    {
      "channel": 2,
      "note": 51,
      "start": 67.8861,
      "duration": 0.2833,
      "velocity": 90,
      "chip": "ym2612"
    },
    {
      "channel": 1,
      "note": 66,
      "start": 67.9354,
      "duration": 0.0999,
      "velocity": 104,
      "chip": "ym2612"
    },
    {
      "channel": 4,
      "note": 45,
      "start": 67.9378,
      "duration": 0.1833,
      "velocity": 86,
      "chip": "ym2612"
    },
    {
      "channel": 5,
      "note": 54,
      "start": 67.939,
      "duration": 0.1833,
      "velocity": 76,
      "chip": "ym2612"
    },
    {
      "channel": 1,
      "note": 66,
      "start": 68.0354,
      "duration": 0.0833,
      "velocity": 104,
      "chip": "ym2612"
    },
    {
      "channel": 3,
      "note": 85,
      "start": 68.0369,
      "duration": 0.2833,
      "velocity": 91,
      "chip": "ym2612"
    },
    {
      "channel": 1,
      "note": 66,
      "start": 68.1187,
      "duration": 0.0999,
      "velocity": 104,
      "chip": "ym2612"
    },
    {
      "channel": 4,
      "note": 57,
      "start": 68.1212,
      "duration": 0.2002,
      "velocity": 83,
      "chip": "ym2612"
    },
    {
      "channel": 5,
      "note": 45,
      "start": 68.1224,
      "duration": 0.2002,
      "velocity": 76,
      "chip": "ym2612"
    },
    {
      "channel": 2,
      "note": 54,
      "start": 68.1694,
      "duration": 0.2999,
      "velocity": 90,
      "chip": "ym2612"
    },
    {
      "channel": 1,
      "note": 66,
      "start": 68.2186,
      "duration": 0.1,
      "velocity": 104,
      "chip": "ym2612"
    },
    {
      "channel": 1,
      "note": 66,
      "start": 68.3186,
      "duration": 0.1,
      "velocity": 104,
      "chip": "ym2612"
    },
    {
      "channel": 3,
      "note": 83,
      "start": 68.3203,
      "duration": 0.3,
      "velocity": 91,
      "chip": "ym2612"
    },
    {
      "channel": 4,
      "note": 45,
      "start": 68.3215,
      "duration": 0.1996,
      "velocity": 80,
      "chip": "ym2612"
    },
    {
      "channel": 5,
      "note": 56,
      "start": 68.3227,
      "duration": 0.1996,
      "velocity": 76,
      "chip": "ym2612"
    },
    {
      "channel": 1,
      "note": 66,
      "start": 68.4186,
      "duration": 0.1,
      "velocity": 104,
      "chip": "ym2612"
    },
    {
      "channel": 2,
      "note": 52,
      "start": 68.4694,
      "duration": 0.2999,
      "velocity": 90,
      "chip": "ym2612"
    },
    {
      "channel": 1,
      "note": 66,
      "start": 68.5187,
      "duration": 0.0999,
      "velocity": 104,
      "chip": "ym2612"
    },
    {
      "channel": 4,
      "note": 56,
      "start": 68.5212,
      "duration": 0.1999,
      "velocity": 76,
      "chip": "ym2612"
    },
    {
      "channel": 5,
      "note": 45,
      "start": 68.5224,
      "duration": 0.1999,
      "velocity": 74,
      "chip": "ym2612"
    },
    {
      "channel": 1,
      "note": 66,
      "start": 68.6186,
      "duration": 0.1,
      "velocity": 104,
      "chip": "ym2612"
    },
    {
      "channel": 3,
      "note": 90,
      "start": 68.6203,
      "duration": 0.3005,
      "velocity": 91,
      "chip": "ym2612"
    },
    {
      "channel": 1,
      "note": 66,
      "start": 68.7187,
      "duration": 0.0999,
      "velocity": 104,
      "chip": "ym2612"
    },
    {
      "channel": 4,
      "note": 45,
      "start": 68.7212,
      "duration": 0.2007,
      "velocity": 72,
      "chip": "ym2612"
    },
    {
      "channel": 5,
      "note": 57,
      "start": 68.7224,
      "duration": 0.2008,
      "velocity": 72,
      "chip": "ym2612"
    },
    {
      "channel": 2,
      "note": 46,
      "start": 68.7694,
      "duration": 0.2999,
      "velocity": 90,
      "chip": "ym2612"
    },
    {
      "channel": 1,
      "note": 66,
      "start": 68.8186,
      "duration": 0.1005,
      "velocity": 104,
      "chip": "ym2612"
    },
    {
      "channel": 1,
      "note": 66,
      "start": 68.9191,
      "duration": 0.0995,
      "velocity": 104,
      "chip": "ym2612"
    },
    {
      "channel": 3,
      "note": 88,
      "start": 68.9208,
      "duration": 0.1496,
      "velocity": 91,
      "chip": "ym2612"
    },
    {
      "channel": 4,
      "note": 54,
      "start": 68.922,
      "duration": 0.1991,
      "velocity": 68,
      "chip": "ym2612"
    },
    {
      "channel": 5,
      "note": 45,
      "start": 68.9232,
      "duration": 0.1991,
      "velocity": 70,
      "chip": "ym2612"
    },
    {
      "channel": 1,
      "note": 66,
      "start": 69.0186,
      "duration": 0.1,
      "velocity": 104,
      "chip": "ym2612"
    },
    {
      "channel": 2,
      "note": 42,
      "start": 69.0694,
      "duration": 0.2999,
      "velocity": 90,
      "chip": "ym2612"
    },
    {
      "channel": 3,
      "note": 93,
      "start": 69.0705,
      "duration": 0.2999,
      "velocity": 91,
      "chip": "ym2612"
    },
    {
      "channel": 1,
      "note": 66,
      "start": 69.1187,
      "duration": 0.0999,
      "velocity": 104,
      "chip": "ym2612"
    },
    {
      "channel": 4,
      "note": 45,
      "start": 69.1211,
      "duration": 0.2,
      "velocity": 64,
      "chip": "ym2612"
    },
    {
      "channel": 5,
      "note": 56,
      "start": 69.1224,
      "duration": 0.1999,
      "velocity": 68,
      "chip": "ym2612"
    },
    {
      "channel": 1,
      "note": 66,
      "start": 69.2186,
      "duration": 0.1,
      "velocity": 104,
      "chip": "ym2612"
    },
    {
      "channel": 1,
      "note": 66,
      "start": 69.3187,
      "duration": 0.0999,
      "velocity": 104,
      "chip": "ym2612"
    },
    {
      "channel": 4,
      "note": 53,
      "start": 69.3212,
      "duration": 0.2003,
      "velocity": 61,
      "chip": "ym2612"
    },
    {
      "channel": 5,
      "note": 45,
      "start": 69.3224,
      "duration": 0.2003,
      "velocity": 65,
      "chip": "ym2612"
    },
    {
      "channel": 2,
      "note": 49,
      "start": 69.3694,
      "duration": 0.2999,
      "velocity": 90,
      "chip": "ym2612"
    },
    {
      "channel": 3,
      "note": 90,
      "start": 69.3705,
      "duration": 0.1498,
      "velocity": 91,
      "chip": "ym2612"
    },
    {
      "channel": 1,
      "note": 66,
      "start": 69.4186,
      "duration": 0.1,
      "velocity": 104,
      "chip": "ym2612"
    },
    {
      "channel": 1,
      "note": 66,
      "start": 69.5186,
      "duration": 0.1,
      "velocity": 104,
      "chip": "ym2612"
    },
    {
      "channel": 3,
      "note": 81,
      "start": 69.5203,
      "duration": 0.1501,
      "velocity": 91,
      "chip": "ym2612"
    },
    {
      "channel": 4,
      "note": 45,
      "start": 69.5216,
      "duration": 0.1995,
      "velocity": 58,
      "chip": "ym2612"
    },
    {
      "channel": 5,
      "note": 54,
      "start": 69.5228,
      "duration": 0.1995,
      "velocity": 61,
      "chip": "ym2612"
    },
    {
      "channel": 1,
      "note": 66,
      "start": 69.6186,
      "duration": 0.1,
      "velocity": 104,
      "chip": "ym2612"
    },
    {
      "channel": 2,
      "note": 48,
      "start": 69.6694,
      "duration": 0.2999,
      "velocity": 90,
      "chip": "ym2612"
    },
    {
      "channel": 3,
      "note": 83,
      "start": 69.6705,
      "duration": 0.1498,
      "velocity": 91,
      "chip": "ym2612"
    },
    {
      "channel": 1,
      "note": 66,
      "start": 69.7187,
      "duration": 0.0999,
      "velocity": 104,
      "chip": "ym2612"
    },
    {
      "channel": 4,
      "note": 54,
      "start": 69.7212,
      "duration": 0.1999,
      "velocity": 57,
      "chip": "ym2612"
    },
    {
      "channel": 5,
      "note": 45,
      "start": 69.7224,
      "duration": 0.1999,
      "velocity": 59,
      "chip": "ym2612"
    },
    {
      "channel": 1,
      "note": 66,
      "start": 69.8186,
      "duration": 0.1,
      "velocity": 104,
      "chip": "ym2612"
    },
    {
      "channel": 3,
      "note": 81,
      "start": 69.8203,
      "duration": 0.1501,
      "velocity": 91,
      "chip": "ym2612"
    },
    {
      "channel": 1,
      "note": 66,
      "start": 69.9187,
      "duration": 0.0999,
      "velocity": 104,
      "chip": "ym2612"
    },
    {
      "channel": 4,
      "note": 45,
      "start": 69.9212,
      "duration": 0.2004,
      "velocity": 56,
      "chip": "ym2612"
    },
    {
      "channel": 5,
      "note": 53,
      "start": 69.9224,
      "duration": 0.2004,
      "velocity": 57,
      "chip": "ym2612"
    },
    {
      "channel": 2,
      "note": 52,
      "start": 69.9694,
      "duration": 0.2833,
      "velocity": 90,
      "chip": "ym2612"
    },
    {
      "channel": 3,
      "note": 76,
      "start": 69.9705,
      "duration": 0.1498,
      "velocity": 91,
      "chip": "ym2612"
    },
    {
      "channel": 1,
      "note": 66,
      "start": 70.0186,
      "duration": 0.1001,
      "velocity": 104,
      "chip": "ym2612"
    },
    {
      "channel": 1,
      "note": 66,
      "start": 70.1188,
      "duration": 0.0998,
      "velocity": 104,
      "chip": "ym2612"
    },
    {
      "channel": 3,
      "note": 78,
      "start": 70.1203,
      "duration": 0.1334,
      "velocity": 91,
      "chip": "ym2612"
    },
    {
      "channel": 4,
      "note": 53,
      "start": 70.1216,
      "duration": 0.1828,
      "velocity": 57,
      "chip": "ym2612"
    },
    {
      "channel": 5,
      "note": 45,
      "start": 70.1228,
      "duration": 0.1828,
      "velocity": 55,
      "chip": "ym2612"
    },
    {
      "channel": 1,
      "note": 66,
      "start": 70.2186,
      "duration": 0.0833,
      "velocity": 104,
      "chip": "ym2612"
    },
    {
      "channel": 2,
      "note": 51,
      "start": 70.2527,
      "duration": 0.2999,
      "velocity": 90,
      "chip": "ym2612"
    },
    {
      "channel": 3,
      "note": 80,
      "start": 70.2538,
      "duration": 0.1498,
      "velocity": 91,
      "chip": "ym2612"
    },
    {
      "channel": 1,
      "note": 66,
      "start": 70.302,
      "duration": 0.0999,
      "velocity": 104,
      "chip": "ym2612"
    },
    {
      "channel": 4,
      "note": 45,
      "start": 70.3045,
      "duration": 0.1999,
      "velocity": 59,
      "chip": "ym2612"
    },
    {
      "channel": 5,
      "note": 54,
      "start": 70.3057,
      "duration": 0.1999,
      "velocity": 53,
      "chip": "ym2612"
    },
    {
      "channel": 1,
      "note": 66,
      "start": 70.402,
      "duration": 0.1,
      "velocity": 104,
      "chip": "ym2612"
    },
    {
      "channel": 3,
      "note": 78,
      "start": 70.4036,
      "duration": 0.1501,
      "velocity": 91,
      "chip": "ym2612"
    },
    {
      "channel": 1,
      "note": 66,
      "start": 70.502,
      "duration": 0.0999,
      "velocity": 104,
      "chip": "ym2612"
    },
    {
      "channel": 4,
      "note": 54,
      "start": 70.5045,
      "duration": 0.2002,
      "velocity": 61,
      "chip": "ym2612"
    },
    {
      "channel": 5,
      "note": 45,
      "start": 70.5057,
      "duration": 0.2002,
      "velocity": 53,
      "chip": "ym2612"
    },
    {
      "channel": 2,
      "note": 54,
      "start": 70.5527,
      "duration": 0.2999,
      "velocity": 90,
      "chip": "ym2612"
    },
    {
      "channel": 3,
      "note": 73,
      "start": 70.5538,
      "duration": 0.1498,
      "velocity": 91,
      "chip": "ym2612"
    },
    {
      "channel": 1,
      "note": 66,
      "start": 70.602,
      "duration": 0.1,
      "velocity": 104,
      "chip": "ym2612"
    },
    {
      "channel": 1,
      "note": 66,
      "start": 70.702,
      "duration": 0.1,
      "velocity": 104,
      "chip": "ym2612"
    },
    {
      "channel": 3,
      "note": 71,
      "start": 70.7036,
      "duration": 0.1502,
      "velocity": 91,
      "chip": "ym2612"
    },
    {
      "channel": 4,
      "note": 45,
      "start": 70.7048,
      "duration": 0.1996,
      "velocity": 65,
      "chip": "ym2612"
    },
    {
      "channel": 5,
      "note": 53,
      "start": 70.706,
      "duration": 0.1996,
      "velocity": 54,
      "chip": "ym2612"
    },
    {
      "channel": 1,
      "note": 66,
      "start": 70.802,
      "duration": 0.1,
      "velocity": 104,
      "chip": "ym2612"
    },
    {
      "channel": 2,
      "note": 52,
      "start": 70.8527,
      "duration": 0.2999,
      "velocity": 90,
      "chip": "ym2612"
    },
    {
      "channel": 3,
      "note": 69,
      "start": 70.8538,
      "duration": 0.1498,
      "velocity": 91,
      "chip": "ym2612"
    },
    {
      "channel": 1,
      "note": 66,
      "start": 70.902,
      "duration": 0.0999,
      "velocity": 104,
      "chip": "ym2612"
    },
    {
      "channel": 4,
      "note": 56,
      "start": 70.9044,
      "duration": 0.2,
      "velocity": 69,
      "chip": "ym2612"
    },
    {
      "channel": 5,
      "note": 45,
      "start": 70.9057,
      "duration": 0.2,
      "velocity": 55,
      "chip": "ym2612"
    },
    {
      "channel": 1,
      "note": 66,
      "start": 71.002,
      "duration": 0.1,
      "velocity": 104,
      "chip": "ym2612"
    },
    {
      "channel": 3,
      "note": 71,
      "start": 71.0036,
      "duration": 0.1502,
      "velocity": 91,
      "chip": "ym2612"
    },
    {
      "channel": 1,
      "note": 66,
      "start": 71.102,
      "duration": 0.0999,
      "velocity": 104,
      "chip": "ym2612"
    },
    {
      "channel": 4,
      "note": 45,
      "start": 71.1045,
      "duration": 0.2005,
      "velocity": 73,
      "chip": "ym2612"
    },
    {
      "channel": 5,
      "note": 54,
      "start": 71.1057,
      "duration": 0.2006,
      "velocity": 57,
      "chip": "ym2612"
    },
    {
      "channel": 2,
      "note": 46,
      "start": 71.1527,
      "duration": 0.3001,
      "velocity": 90,
      "chip": "ym2612"
    },
    {
      "channel": 3,
      "note": 76,
      "start": 71.1538,
      "duration": 0.15,
      "velocity": 91,
      "chip": "ym2612"
    },
    {
      "channel": 1,
      "note": 66,
      "start": 71.202,
      "duration": 0.1002,
      "velocity": 104,
      "chip": "ym2612"
    },
    {
      "channel": 1,
      "note": 66,
      "start": 71.3022,
      "duration": 0.0997,
      "velocity": 104,
      "chip": "ym2612"
    },
    {
      "channel": 3,
      "note": 83,
      "start": 71.3039,
      "duration": 0.2997,
      "velocity": 91,
      "chip": "ym2612"
    },
    {
      "channel": 4,
      "note": 57,
      "start": 71.3051,
      "duration": 0.1994,
      "velocity": 78,
      "chip": "ym2612"
    },
    {
      "channel": 5,
      "note": 45,
      "start": 71.3063,
      "duration": 0.1993,
      "velocity": 59,
      "chip": "ym2612"
    },
    {
      "channel": 1,
      "note": 66,
      "start": 71.402,
      "duration": 0.0999,
      "velocity": 104,
      "chip": "ym2612"
    },
    {
      "channel": 2,
      "note": 42,
      "start": 71.4529,
      "duration": 0.2999,
      "velocity": 90,
      "chip": "ym2612"
    },
    {
      "channel": 1,
      "note": 66,
      "start": 71.502,
      "duration": 0.0999,
      "velocity": 104,
      "chip": "ym2612"
    },
    {
      "channel": 4,
      "note": 45,
      "start": 71.5044,
      "duration": 0.2,
      "velocity": 81,
      "chip": "ym2612"
    },
    {
      "channel": 5,
      "note": 56,
      "start": 71.5057,
      "duration": 0.1999,
      "velocity": 63,
      "chip": "ym2612"
    },
    {
      "channel": 1,
      "note": 66,
      "start": 71.602,
      "duration": 0.1,
      "velocity": 104,
      "chip": "ym2612"
    },
    {
      "channel": 3,
      "note": 81,
      "start": 71.6036,
      "duration": 0.3,
      "velocity": 91,
      "chip": "ym2612"
    },
    {
      "channel": 1,
      "note": 66,
      "start": 71.702,
      "duration": 0.0999,
      "velocity": 104,
      "chip": "ym2612"
    },
    {
      "channel": 4,
      "note": 56,
      "start": 71.7045,
      "duration": 0.2003,
      "velocity": 84,
      "chip": "ym2612"
    },
    {
      "channel": 5,
      "note": 45,
      "start": 71.7057,
      "duration": 0.2003,
      "velocity": 65,
      "chip": "ym2612"
    },
    {
      "channel": 2,
      "note": 49,
      "start": 71.7528,
      "duration": 0.2999,
      "velocity": 90,
      "chip": "ym2612"
    },
    {
      "channel": 1,
      "note": 66,
      "start": 71.802,
      "duration": 0.1,
      "velocity": 104,
      "chip": "ym2612"
    },
    {
      "channel": 1,
      "note": 66,
      "start": 71.902,
      "duration": 0.1,
      "velocity": 104,
      "chip": "ym2612"
    },
    {
      "channel": 3,
      "note": 83,
      "start": 71.9036,
      "duration": 0.3,
      "velocity": 91,
      "chip": "ym2612"
    },
    {
      "channel": 4,
      "note": 45,
      "start": 71.9049,
      "duration": 0.1995,
      "velocity": 86,
      "chip": "ym2612"
    },
    {
      "channel": 5,
      "note": 57,
      "start": 71.9061,
      "duration": 0.1995,
      "velocity": 69,
      "chip": "ym2612"
    },
    {
      "channel": 1,
      "note": 66,
      "start": 72.002,
      "duration": 0.1,
      "velocity": 104,
      "chip": "ym2612"
    },
    {
      "channel": 2,
      "note": 48,
      "start": 72.0527,
      "duration": 0.2999,
      "velocity": 90,
      "chip": "ym2612"
    },
    {
      "channel": 1,
      "note": 66,
      "start": 72.102,
      "duration": 0.0999,
      "velocity": 104,
      "chip": "ym2612"
    },
    {
      "channel": 4,
      "note": 54,
      "start": 72.1044,
      "duration": 0.2,
      "velocity": 88,
      "chip": "ym2612"
    },
    {
      "channel": 5,
      "note": 45,
      "start": 72.1057,
      "duration": 0.1999,
      "velocity": 71,
      "chip": "ym2612"
    },
    {
      "channel": 1,
      "note": 66,
      "start": 72.202,
      "duration": 0.0999,
      "velocity": 104,
      "chip": "ym2612"
    },
    {
      "channel": 3,
      "note": 88,
      "start": 72.2036,
      "duration": 0.2833,
      "velocity": 91,
      "chip": "ym2612"
    },
    {
      "channel": 1,
      "note": 66,
      "start": 72.302,
      "duration": 0.0832,
      "velocity": 104,
      "chip": "ym2612"
    },
    {
      "channel": 4,
      "note": 45,
      "start": 72.3045,
      "duration": 0.1837,
      "velocity": 89,
      "chip": "ym2612"
    },
    {
      "channel": 5,
      "note": 56,
      "start": 72.3057,
      "duration": 0.1837,
      "velocity": 73,
      "chip": "ym2612"
    },
    {
      "channel": 2,
      "note": 52,
      "start": 72.3527,
      "duration": 0.2833,
      "velocity": 90,
      "chip": "ym2612"
    },
    {
      "channel": 1,
      "note": 66,
      "start": 72.3853,
      "duration": 0.1001,
      "velocity": 104,
      "chip": "ym2612"
    },
    {
      "channel": 1,
      "note": 66,
      "start": 72.4854,
      "duration": 0.0998,
      "velocity": 104,
      "chip": "ym2612"
    },
    {
      "channel": 3,
      "note": 90,
      "start": 72.487,
      "duration": 0.2999,
      "velocity": 91,
      "chip": "ym2612"
    },
    {
      "channel": 4,
      "note": 53,
      "start": 72.4883,
      "duration": 0.1995,
      "velocity": 88,
      "chip": "ym2612"
    },
    {
      "channel": 5,
      "note": 45,
      "start": 72.4895,
      "duration": 0.1995,
      "velocity": 74,
      "chip": "ym2612"
    },
    {
      "channel": 1,
      "note": 66,
      "start": 72.5853,
      "duration": 0.1,
      "velocity": 104,
      "chip": "ym2612"
    },
    {
      "channel": 2,
      "note": 51,
      "start": 72.636,
      "duration": 0.3,
      "velocity": 90,
      "chip": "ym2612"
    },
    {
      "channel": 1,
      "note": 66,
      "start": 72.6854,
      "duration": 0.0999,
      "velocity": 104,
      "chip": "ym2612"
    },
    {
      "channel": 4,
      "note": 45,
      "start": 72.6878,
      "duration": 0.1999,
      "velocity": 86,
      "chip": "ym2612"
    },
    {
      "channel": 5,
      "note": 54,
      "start": 72.689,
      "duration": 0.1999,
      "velocity": 76,
      "chip": "ym2612"
    },
    {
      "channel": 1,
      "note": 66,
      "start": 72.7853,
      "duration": 0.1,
      "velocity": 104,
      "chip": "ym2612"
    },
    {
      "channel": 3,
      "note": 81,
      "start": 72.7869,
      "duration": 0.3,
      "velocity": 91,
      "chip": "ym2612"
    },
    {
      "channel": 1,
      "note": 66,
      "start": 72.8854,
      "duration": 0.0999,
      "velocity": 104,
      "chip": "ym2612"
    },
    {
      "channel": 4,
      "note": 54,
      "start": 72.8878,
      "duration": 0.2002,
      "velocity": 83,
      "chip": "ym2612"
    },
    {
      "channel": 5,
      "note": 45,
      "start": 72.889,
      "duration": 0.2003,
      "velocity": 76,
      "chip": "ym2612"
    },
    {
      "channel": 2,
      "note": 54,
      "start": 72.9361,
      "duration": 0.2999,
      "velocity": 90,
      "chip": "ym2612"
    },
    {
      "channel": 1,
      "note": 66,
      "start": 72.9853,
      "duration": 0.1,
      "velocity": 104,
      "chip": "ym2612"
    },
    {
      "channel": 1,
      "note": 66,
      "start": 73.0853,
      "duration": 0.1,
      "velocity": 104,
      "chip": "ym2612"
    },
    {
      "channel": 3,
      "note": 83,
      "start": 73.0869,
      "duration": 0.3,
      "velocity": 91,
      "chip": "ym2612"
    },
    {
      "channel": 4,
      "note": 45,
      "start": 73.0882,
      "duration": 0.1996,
      "velocity": 80,
      "chip": "ym2612"
    },
    {
      "channel": 5,
      "note": 53,
      "start": 73.0894,
      "duration": 0.1995,
      "velocity": 76,
      "chip": "ym2612"
    },
    {
      "channel": 1,
      "note": 66,
      "start": 73.1853,
      "duration": 0.1,
      "velocity": 104,
      "chip": "ym2612"
    },
    {
      "channel": 2,
      "note": 52,
      "start": 73.2361,
      "duration": 0.2999,
      "velocity": 90,
      "chip": "ym2612"
    },
    {
      "channel": 1,
      "note": 66,
      "start": 73.2854,
      "duration": 0.0999,
      "velocity": 104,
      "chip": "ym2612"
    },
    {
      "channel": 4,
      "note": 53,
      "start": 73.2878,
      "duration": 0.2,
      "velocity": 76,
      "chip": "ym2612"
    },
    {
      "channel": 5,
      "note": 45,
      "start": 73.289,
      "duration": 0.1999,
      "velocity": 74,
      "chip": "ym2612"
    },
    {
      "channel": 1,
      "note": 66,
      "start": 73.3853,
      "duration": 0.1,
      "velocity": 104,
      "chip": "ym2612"
    },
    {
      "channel": 3,
      "note": 76,
      "start": 73.3869,
      "duration": 0.3005,
      "velocity": 91,
      "chip": "ym2612"
    },
    {
      "channel": 1,
      "note": 66,
      "start": 73.4854,
      "duration": 0.0999,
      "velocity": 104,
      "chip": "ym2612"
    },
    {
      "channel": 4,
      "note": 45,
      "start": 73.4878,
      "duration": 0.2007,
      "velocity": 72,
      "chip": "ym2612"
    },
    {
      "channel": 5,
      "note": 54,
      "start": 73.489,
      "duration": 0.2008,
      "velocity": 72,
      "chip": "ym2612"
    },
    {
      "channel": 2,
      "note": 46,
      "start": 73.5361,
      "duration": 0.2999,
      "velocity": 90,
      "chip": "ym2612"
    },
    {
      "channel": 1,
      "note": 66,
      "start": 73.5853,
      "duration": 0.1005,
      "velocity": 104,
      "chip": "ym2612"
    },
    {
      "channel": 1,
      "note": 66,
      "start": 73.6858,
      "duration": 0.0995,
      "velocity": 104,
      "chip": "ym2612"
    },
    {
      "channel": 3,
      "note": 71,
      "start": 73.6874,
      "duration": 0.0491,
      "velocity": 91,
      "chip": "ym2612"
    },
    {
      "channel": 4,
      "note": 54,
      "start": 73.6887,
      "duration": 0.1991,
      "velocity": 68,
      "chip": "ym2612"
    },
    {
      "channel": 5,
      "note": 45,
      "start": 73.6899,
      "duration": 0.1991,
      "velocity": 70,
      "chip": "ym2612"
    },
    {
      "channel": 3,
      "note": 71,
      "start": 73.7366,
      "duration": 0.2503,
      "velocity": 91,
      "chip": "ym2612"
    },
    {
      "channel": 1,
      "note": 66,
      "start": 73.7853,
      "duration": 0.1,
      "velocity": 104,
      "chip": "ym2612"
    },
    {
      "channel": 2,
      "note": 42,
      "start": 73.8361,
      "duration": 0.2999,
      "velocity": 90,
      "chip": "ym2612"
    },
    {
      "channel": 1,
      "note": 66,
      "start": 73.8854,
      "duration": 0.0999,
      "velocity": 104,
      "chip": "ym2612"
    },
    {
      "channel": 4,
      "note": 45,
      "start": 73.8878,
      "duration": 0.2,
      "velocity": 64,
      "chip": "ym2612"
    },
    {
      "channel": 5,
      "note": 53,
      "start": 73.889,
      "duration": 0.1999,
      "velocity": 68,
      "chip": "ym2612"
    },
    {
      "channel": 1,
      "note": 66,
      "start": 73.9853,
      "duration": 0.1,
      "velocity": 104,
      "chip": "ym2612"
    },
    {
      "channel": 3,
      "note": 73,
      "start": 73.9869,
      "duration": 0.3,
      "velocity": 91,
      "chip": "ym2612"
    },
    {
      "channel": 1,
      "note": 66,
      "start": 74.0854,
      "duration": 0.0999,
      "velocity": 104,
      "chip": "ym2612"
    },
    {
      "channel": 4,
      "note": 56,
      "start": 74.0878,
      "duration": 0.2003,
      "velocity": 61,
      "chip": "ym2612"
    },
    {
      "channel": 5,
      "note": 45,
      "start": 74.089,
      "duration": 0.2003,
      "velocity": 65,
      "chip": "ym2612"
    },
    {
      "channel": 2,
      "note": 49,
      "start": 74.1361,
      "duration": 0.2999,
      "velocity": 90,
      "chip": "ym2612"
    },
    {
      "channel": 1,
      "note": 66,
      "start": 74.1853,
      "duration": 0.1,
      "velocity": 104,
      "chip": "ym2612"
    },
    {
      "channel": 1,
      "note": 66,
      "start": 74.2853,
      "duration": 0.1,
      "velocity": 104,
      "chip": "ym2612"
    },
    {
      "channel": 3,
      "note": 76,
      "start": 74.2869,
      "duration": 0.2833,
      "velocity": 91,
      "chip": "ym2612"
    },
    {
      "channel": 4,
      "note": 45,
      "start": 74.2882,
      "duration": 0.1995,
      "velocity": 58,
      "chip": "ym2612"
    },
    {
      "channel": 5,
      "note": 54,
      "start": 74.2894,
      "duration": 0.1995,
      "velocity": 61,
      "chip": "ym2612"
    },
    {
      "channel": 1,
      "note": 66,
      "start": 74.3853,
      "duration": 0.1,
      "velocity": 104,
      "chip": "ym2612"
    },
    {
      "channel": 2,
      "note": 48,
      "start": 74.4361,
      "duration": 0.2833,
      "velocity": 90,
      "chip": "ym2612"
    },
    {
      "channel": 1,
      "note": 66,
      "start": 74.4854,
      "duration": 0.0832,
      "velocity": 104,
      "chip": "ym2612"
    },
    {
      "channel": 4,
      "note": 57,
      "start": 74.4878,
      "duration": 0.1833,
      "velocity": 57,
      "chip": "ym2612"
    },
    {
      "channel": 5,
      "note": 45,
      "start": 74.489,
      "duration": 0.1833,
      "velocity": 59,
      "chip": "ym2612"
    },
    {
      "channel": 1,
      "note": 66,
      "start": 74.5686,
      "duration": 0.1,
      "velocity": 104,
      "chip": "ym2612"
    },
    {
      "channel": 3,
      "note": 78,
      "start": 74.5703,
      "duration": 0.3,
      "velocity": 91,
      "chip": "ym2612"
    },
    {
      "channel": 1,
      "note": 66,
      "start": 74.6687,
      "duration": 0.0999,
      "velocity": 104,
      "chip": "ym2612"
    },
    {
      "channel": 4,
      "note": 45,
      "start": 74.6712,
      "duration": 0.2004,
      "velocity": 56,
      "chip": "ym2612"
    },
    {
      "channel": 5,
      "note": 56,
      "start": 74.6724,
      "duration": 0.2004,
      "velocity": 57,
      "chip": "ym2612"
    },
    {
      "channel": 2,
      "note": 52,
      "start": 74.7194,
      "duration": 0.2999,
      "velocity": 90,
      "chip": "ym2612"
    },
    {
      "channel": 1,
      "note": 66,
      "start": 74.7686,
      "duration": 0.1001,
      "velocity": 104,
      "chip": "ym2612"
    },
    {
      "channel": 1,
      "note": 66,
      "start": 74.8688,
      "duration": 0.0998,
      "velocity": 104,
      "chip": "ym2612"
    },
    {
      "channel": 3,
      "note": 81,
      "start": 74.8703,
      "duration": 0.2999,
      "velocity": 91,
      "chip": "ym2612"
    },
    {
      "channel": 4,
      "note": 56,
      "start": 74.8716,
      "duration": 0.1995,
      "velocity": 57,
      "chip": "ym2612"
    },
    {
      "channel": 5,
      "note": 45,
      "start": 74.8728,
      "duration": 0.1995,
      "velocity": 55,
      "chip": "ym2612"
    },
    {
      "channel": 1,
      "note": 66,
      "start": 74.9686,
      "duration": 0.1,
      "velocity": 104,
      "chip": "ym2612"
    },
    {
      "channel": 2,
      "note": 51,
      "start": 75.0194,
      "duration": 0.2999,
      "velocity": 90,
      "chip": "ym2612"
    },
    {
      "channel": 1,
      "note": 66,
      "start": 75.0687,
      "duration": 0.0999,
      "velocity": 104,
      "chip": "ym2612"
    },
    {
      "channel": 4,
      "note": 45,
      "start": 75.0712,
      "duration": 0.1999,
      "velocity": 59,
      "chip": "ym2612"
    },
    {
      "channel": 5,
      "note": 57,
      "start": 75.0724,
      "duration": 0.1999,
      "velocity": 53,
      "chip": "ym2612"
    },
    {
      "channel": 1,
      "note": 66,
      "start": 75.1686,
      "duration": 0.1,
      "velocity": 104,
      "chip": "ym2612"
    },
    {
      "channel": 3,
      "note": 78,
      "start": 75.1703,
      "duration": 0.3,
      "velocity": 91,
      "chip": "ym2612"
    },
    {
      "channel": 1,
      "note": 66,
      "start": 75.2687,
      "duration": 0.0999,
      "velocity": 104,
      "chip": "ym2612"
    },
    {
      "channel": 4,
      "note": 54,
      "start": 75.2712,
      "duration": 0.2002,
      "velocity": 61,
      "chip": "ym2612"
    },
    {
      "channel": 5,
      "note": 45,
      "start": 75.2724,
      "duration": 0.2002,
      "velocity": 53,
      "chip": "ym2612"
    },
    {
      "channel": 2,
      "note": 54,
      "start": 75.3194,
      "duration": 0.2999,
      "velocity": 90,
      "chip": "ym2612"
    },
    {
      "channel": 1,
      "note": 66,
      "start": 75.3686,
      "duration": 0.1,
      "velocity": 104,
      "chip": "ym2612"
    },
    {
      "channel": 1,
      "note": 66,
      "start": 75.4686,
      "duration": 0.1,
      "velocity": 104,
      "chip": "ym2612"
    },
    {
      "channel": 3,
      "note": 83,
      "start": 75.4703,
      "duration": 0.3,
      "velocity": 91,
      "chip": "ym2612"
    },
    {
      "channel": 4,
      "note": 45,
      "start": 75.4715,
      "duration": 0.1996,
      "velocity": 65,
      "chip": "ym2612"
    },
    {
      "channel": 5,
      "note": 56,
      "start": 75.4727,
      "duration": 0.1996,
      "velocity": 54,
      "chip": "ym2612"
    },
    {
      "channel": 1,
      "note": 66,
      "start": 75.5686,
      "duration": 0.1,
      "velocity": 104,
      "chip": "ym2612"
    },
    {
      "channel": 2,
      "note": 52,
      "start": 75.6194,
      "duration": 0.2999,
      "velocity": 90,
      "chip": "ym2612"
    },
    {
      "channel": 1,
      "note": 66,
      "start": 75.6687,
      "duration": 0.0999,
      "velocity": 104,
      "chip": "ym2612"
    },
    {
      "channel": 4,
      "note": 53,
      "start": 75.6711,
      "duration": 0.2,
      "velocity": 69,
      "chip": "ym2612"
    },
    {
      "channel": 5,
      "note": 45,
      "start": 75.6724,
      "duration": 0.1999,
      "velocity": 55,
      "chip": "ym2612"
    },
    {
      "channel": 1,
      "note": 66,
      "start": 75.7686,
      "duration": 0.1,
      "velocity": 104,
      "chip": "ym2612"
    },
    {
      "channel": 3,
      "note": 81,
      "start": 75.7703,
      "duration": 0.3005,
      "velocity": 91,
      "chip": "ym2612"
    },
    {
      "channel": 1,
      "note": 66,
      "start": 75.8687,
      "duration": 0.0999,
      "velocity": 104,
      "chip": "ym2612"
    },
    {
      "channel": 4,
      "note": 45,
      "start": 75.8712,
      "duration": 0.2008,
      "velocity": 73,
      "chip": "ym2612"
    },
    {
      "channel": 5,
      "note": 54,
      "start": 75.8724,
      "duration": 0.2008,
      "velocity": 57,
      "chip": "ym2612"
    },
    {
      "channel": 2,
      "note": 46,
      "start": 75.9194,
      "duration": 0.2999,
      "velocity": 90,
      "chip": "ym2612"
    },
    {
      "channel": 1,
      "note": 66,
      "start": 75.9686,
      "duration": 0.1005,
      "velocity": 104,
      "chip": "ym2612"
    },
    {
      "channel": 1,
      "note": 66,
      "start": 76.0692,
      "duration": 0.0994,
      "velocity": 104,
      "chip": "ym2612"
    },
    {
      "channel": 3,
      "note": 83,
      "start": 76.0709,
      "duration": 0.2994,
      "velocity": 91,
      "chip": "ym2612"
    },
    {
      "channel": 4,
      "note": 54,
      "start": 76.0721,
      "duration": 0.199,
      "velocity": 78,
      "chip": "ym2612"
    },
    {
      "channel": 5,
      "note": 45,
      "start": 76.0733,
      "duration": 0.1991,
      "velocity": 59,
      "chip": "ym2612"
    },
    {
      "channel": 1,
      "note": 66,
      "start": 76.1686,
      "duration": 0.1,
      "velocity": 104,
      "chip": "ym2612"
    },
    {
      "channel": 2,
      "note": 42,
      "start": 76.2194,
      "duration": 0.2999,
      "velocity": 90,
      "chip": "ym2612"
    },
    {
      "channel": 1,
      "note": 66,
      "start": 76.2687,
      "duration": 0.0999,
      "velocity": 104,
      "chip": "ym2612"
    },
    {
      "channel": 4,
      "note": 45,
      "start": 76.2712,
      "duration": 0.1999,
      "velocity": 81,
      "chip": "ym2612"
    },
    {
      "channel": 5,
      "note": 53,
      "start": 76.2724,
      "duration": 0.1999,
      "velocity": 63,
      "chip": "ym2612"
    },
    {
      "channel": 1,
      "note": 66,
      "start": 76.3687,
      "duration": 0.0999,
      "velocity": 104,
      "chip": "ym2612"
    },
    {
      "channel": 3,
      "note": 85,
      "start": 76.3703,
      "duration": 0.2834,
      "velocity": 91,
      "chip": "ym2612"
    },
    {
      "channel": 1,
      "note": 66,
      "start": 76.4687,
      "duration": 0.0999,
      "velocity": 104,
      "chip": "ym2612"
    },
    {
      "channel": 4,
      "note": 53,
      "start": 76.4712,
      "duration": 0.1838,
      "velocity": 84,
      "chip": "ym2612"
    },
    {
      "channel": 5,
      "note": 45,
      "start": 76.4724,
      "duration": 0.1838,
      "velocity": 65,
      "chip": "ym2612"
    },
    {
      "channel": 2,
      "note": 49,
      "start": 76.5194,
      "duration": 0.2833,
      "velocity": 90,
      "chip": "ym2612"
    },
    {
      "channel": 1,
      "note": 66,
      "start": 76.5686,
      "duration": 0.0835,
      "velocity": 104,
      "chip": "ym2612"
    },
    {
      "channel": 1,
      "note": 66,
      "start": 76.6522,
      "duration": 0.0998,
      "velocity": 104,
      "chip": "ym2612"
    },
    {
      "channel": 3,
      "note": 83,
      "start": 76.6537,
      "duration": 0.2998,
      "velocity": 91,
      "chip": "ym2612"
    },
    {
      "channel": 4,
      "note": 45,
      "start": 76.655,
      "duration": 0.1994,
      "velocity": 86,
      "chip": "ym2612"
    },
    {
      "channel": 5,
      "note": 54,
      "start": 76.6562,
      "duration": 0.1994,
      "velocity": 69,
      "chip": "ym2612"
    },
    {
      "channel": 1,
      "note": 66,
      "start": 76.752,
      "duration": 0.1,
      "velocity": 104,
      "chip": "ym2612"
    },
    {
      "channel": 2,
      "note": 48,
      "start": 76.8027,
      "duration": 0.2999,
      "velocity": 90,
      "chip": "ym2612"
    },
    {
      "channel": 1,
      "note": 66,
      "start": 76.852,
      "duration": 0.0999,
      "velocity": 104,
      "chip": "ym2612"
    },
    {
      "channel": 4,
      "note": 54,
      "start": 76.8544,
      "duration": 0.2,
      "velocity": 88,
      "chip": "ym2612"
    },
    {
      "channel": 5,
      "note": 45,
      "start": 76.8557,
      "duration": 0.2,
      "velocity": 71,
      "chip": "ym2612"
    },
    {
      "channel": 1,
      "note": 66,
      "start": 76.952,
      "duration": 0.1,
      "velocity": 104,
      "chip": "ym2612"
    },
    {
      "channel": 3,
      "note": 78,
      "start": 76.9536,
      "duration": 0.3,
      "velocity": 91,
      "chip": "ym2612"
    },
    {
      "channel": 1,
      "note": 66,
      "start": 77.052,
      "duration": 0.0999,
      "velocity": 104,
      "chip": "ym2612"
    },
    {
      "channel": 4,
      "note": 45,
      "start": 77.0545,
      "duration": 0.2004,
      "velocity": 89,
      "chip": "ym2612"
    },
    {
      "channel": 5,
      "note": 53,
      "start": 77.0558,
      "duration": 0.2003,
      "velocity": 73,
      "chip": "ym2612"
    },
    {
      "channel": 2,
      "note": 52,
      "start": 77.1027,
      "duration": 0.2999,
      "velocity": 90,
      "chip": "ym2612"
    },
    {
      "channel": 1,
      "note": 66,
      "start": 77.152,
      "duration": 0.1001,
      "velocity": 104,
      "chip": "ym2612"
    },
    {
      "channel": 1,
      "note": 66,
      "start": 77.2521,
      "duration": 0.0998,
      "velocity": 104,
      "chip": "ym2612"
    },
    {
      "channel": 3,
      "note": 81,
      "start": 77.2537,
      "duration": 0.2999,
      "velocity": 91,
      "chip": "ym2612"
    },
    {
      "channel": 4,
      "note": 56,
      "start": 77.2549,
      "duration": 0.1995,
      "velocity": 88,
      "chip": "ym2612"
    },
    {
      "channel": 5,
      "note": 45,
      "start": 77.2562,
      "duration": 0.1995,
      "velocity": 74,
      "chip": "ym2612"
    },
    {
      "channel": 1,
      "note": 66,
      "start": 77.352,
      "duration": 0.1,
      "velocity": 104,
      "chip": "ym2612"
    },
    {
      "channel": 2,
      "note": 51,
      "start": 77.4027,
      "duration": 0.2999,
      "velocity": 90,
      "chip": "ym2612"
    },
    {
      "channel": 1,
      "note": 66,
      "start": 77.452,
      "duration": 0.0999,
      "velocity": 104,
      "chip": "ym2612"
    },
    {
      "channel": 4,
      "note": 45,
      "start": 77.4545,
      "duration": 0.1999,
      "velocity": 86,
      "chip": "ym2612"
    },
    {
      "channel": 5,
      "note": 54,
      "start": 77.4557,
      "duration": 0.1999,
      "velocity": 76,
      "chip": "ym2612"
    },
    {
      "channel": 1,
      "note": 66,
      "start": 77.552,
      "duration": 0.1,
      "velocity": 104,
      "chip": "ym2612"
    },
    {
      "channel": 3,
      "note": 83,
      "start": 77.5536,
      "duration": 0.3,
      "velocity": 91,
      "chip": "ym2612"
    },
    {
      "channel": 1,
      "note": 66,
      "start": 77.652,
      "duration": 0.0999,
      "velocity": 104,
      "chip": "ym2612"
    },
    {
      "channel": 4,
      "note": 57,
      "start": 77.6545,
      "duration": 0.2002,
      "velocity": 83,
      "chip": "ym2612"
    },
    {
      "channel": 5,
      "note": 45,
      "start": 77.6557,
      "duration": 0.2002,
      "velocity": 76,
      "chip": "ym2612"
    },
    {
      "channel": 2,
      "note": 54,
      "start": 77.7027,
      "duration": 0.2999,
      "velocity": 90,
      "chip": "ym2612"
    },
    {
      "channel": 1,
      "note": 66,
      "start": 77.752,
      "duration": 0.1,
      "velocity": 104,
      "chip": "ym2612"
    },
    {
      "channel": 1,
      "note": 66,
      "start": 77.852,
      "duration": 0.1,
      "velocity": 104,
      "chip": "ym2612"
    },
    {
      "channel": 3,
      "note": 81,
      "start": 77.8536,
      "duration": 0.3,
      "velocity": 91,
      "chip": "ym2612"
    },
    {
      "channel": 4,
      "note": 45,
      "start": 77.8548,
      "duration": 0.1996,
      "velocity": 80,
      "chip": "ym2612"
    },
    {
      "channel": 5,
      "note": 56,
      "start": 77.856,
      "duration": 0.1996,
      "velocity": 76,
      "chip": "ym2612"
    },
    {
      "channel": 1,
      "note": 66,
      "start": 77.952,
      "duration": 0.1,
      "velocity": 104,
      "chip": "ym2612"
    },
    {
      "channel": 2,
      "note": 52,
      "start": 78.0027,
      "duration": 0.2999,
      "velocity": 90,
      "chip": "ym2612"
    },
    {
      "channel": 1,
      "note": 66,
      "start": 78.052,
      "duration": 0.0999,
      "velocity": 104,
      "chip": "ym2612"
    },
    {
      "channel": 4,
      "note": 56,
      "start": 78.0545,
      "duration": 0.1999,
      "velocity": 76,
      "chip": "ym2612"
    },
    {
      "channel": 5,
      "note": 45,
      "start": 78.0557,
      "duration": 0.1999,
      "velocity": 74,
      "chip": "ym2612"
    },
    {
      "channel": 1,
      "note": 66,
      "start": 78.152,
      "duration": 0.1,
      "velocity": 104,
      "chip": "ym2612"
    },
    {
      "channel": 3,
      "note": 76,
      "start": 78.1536,
      "duration": 0.3001,
      "velocity": 91,
      "chip": "ym2612"
    },
    {
      "channel": 1,
      "note": 66,
      "start": 78.252,
      "duration": 0.0999,
      "velocity": 104,
      "chip": "ym2612"
    },
    {
      "channel": 4,
      "note": 45,
      "start": 78.2545,
      "duration": 0.2004,
      "velocity": 72,
      "chip": "ym2612"
    },
    {
      "channel": 5,
      "note": 57,
      "start": 78.2557,
      "duration": 0.2005,
      "velocity": 72,
      "chip": "ym2612"
    },
    {
      "channel": 2,
      "note": 46,
      "start": 78.3027,
      "duration": 0.3,
      "velocity": 90,
      "chip": "ym2612"
    },
    {
      "channel": 1,
      "note": 66,
      "start": 78.352,
      "duration": 0.1001,
      "velocity": 104,
      "chip": "ym2612"
    },
    {
      "channel": 1,
      "note": 66,
      "start": 78.4522,
      "duration": 0.0998,
      "velocity": 104,
      "chip": "ym2612"
    },
    {
      "channel": 3,
      "note": 81,
      "start": 78.4537,
      "duration": 0.2998,
      "velocity": 91,
      "chip": "ym2612"
    },
    {
      "channel": 4,
      "note": 54,
      "start": 78.455,
      "duration": 0.1994,
      "velocity": 68,
      "chip": "ym2612"
    },
    {
      "channel": 5,
      "note": 45,
      "start": 78.4562,
      "duration": 0.1994,
      "velocity": 70,
      "chip": "ym2612"
    },
    {
      "channel": 1,
      "note": 66,
      "start": 78.552,
      "duration": 0.1,
      "velocity": 104,
      "chip": "ym2612"
    },
    {
      "channel": 2,
      "note": 42,
      "start": 78.6027,
      "duration": 0.2833,
      "velocity": 90,
      "chip": "ym2612"
    },
    {
      "channel": 1,
      "note": 66,
      "start": 78.652,
      "duration": 0.0999,
      "velocity": 104,
      "chip": "ym2612"
    },
    {
      "channel": 4,
      "note": 45,
      "start": 78.6545,
      "duration": 0.1833,
      "velocity": 64,
      "chip": "ym2612"
    },
    {
      "channel": 5,
      "note": 56,
      "start": 78.6557,
      "duration": 0.1833,
      "velocity": 68,
      "chip": "ym2612"
    },
    {
      "channel": 1,
      "note": 66,
      "start": 78.752,
      "duration": 0.0833,
      "velocity": 104,
      "chip": "ym2612"
    },
    {
      "channel": 3,
      "note": 83,
      "start": 78.7536,
      "duration": 0.2833,
      "velocity": 91,
      "chip": "ym2612"
    },
    {
      "channel": 1,
      "note": 66,
      "start": 78.8354,
      "duration": 0.0999,
      "velocity": 104,
      "chip": "ym2612"
    },
    {
      "channel": 4,
      "note": 53,
      "start": 78.8378,
      "duration": 0.2003,
      "velocity": 61,
      "chip": "ym2612"
    },
    {
      "channel": 5,
      "note": 45,
      "start": 78.839,
      "duration": 0.2003,
      "velocity": 65,
      "chip": "ym2612"
    },
    {
      "channel": 2,
      "note": 49,
      "start": 78.8861,
      "duration": 0.2999,
      "velocity": 90,
      "chip": "ym2612"
    },
    {
      "channel": 1,
      "note": 66,
      "start": 78.9353,
      "duration": 0.1,
      "velocity": 104,
      "chip": "ym2612"
    },
    {
      "channel": 1,
      "note": 66,
      "start": 79.0353,
      "duration": 0.1,
      "velocity": 104,
      "chip": "ym2612"
    },
    {
      "channel": 3,
      "note": 88,
      "start": 79.0369,
      "duration": 0.3,
      "velocity": 91,
      "chip": "ym2612"
    },
    {
      "channel": 4,
      "note": 45,
      "start": 79.0382,
      "duration": 0.1995,
      "velocity": 58,
      "chip": "ym2612"
    },
    {
      "channel": 5,
      "note": 54,
      "start": 79.0394,
      "duration": 0.1995,
      "velocity": 61,
      "chip": "ym2612"
    },
    {
      "channel": 1,
      "note": 66,
      "start": 79.1353,
      "duration": 0.1,
      "velocity": 104,
      "chip": "ym2612"
    },
    {
      "channel": 2,
      "note": 48,
      "start": 79.1861,
      "duration": 0.2999,
      "velocity": 90,
      "chip": "ym2612"
    },
    {
      "channel": 1,
      "note": 66,
      "start": 79.2354,
      "duration": 0.0999,
      "velocity": 104,
      "chip": "ym2612"
    },
    {
      "channel": 4,
      "note": 54,
      "start": 79.2378,
      "duration": 0.2,
      "velocity": 57,
      "chip": "ym2612"
    },
    {
      "channel": 5,
      "note": 45,
      "start": 79.239,
      "duration": 0.1999,
      "velocity": 59,
      "chip": "ym2612"
    },
    {
      "channel": 1,
      "note": 66,
      "start": 79.3353,
      "duration": 0.1,
      "velocity": 104,
      "chip": "ym2612"
    },
    {
      "channel": 3,
      "note": 81,
      "start": 79.3369,
      "duration": 0.3,
      "velocity": 91,
      "chip": "ym2612"
    },
    {
      "channel": 1,
      "note": 66,
      "start": 79.4354,
      "duration": 0.0999,
      "velocity": 104,
      "chip": "ym2612"
    },
    {
      "channel": 4,
      "note": 45,
      "start": 79.4378,
      "duration": 0.2004,
      "velocity": 56,
      "chip": "ym2612"
    },
    {
      "channel": 5,
      "note": 53,
      "start": 79.439,
      "duration": 0.2004,
      "velocity": 57,
      "chip": "ym2612"
    },
    {
      "channel": 2,
      "note": 52,
      "start": 79.4861,
      "duration": 0.2999,
      "velocity": 90,
      "chip": "ym2612"
    },
    {
      "channel": 1,
      "note": 66,
      "start": 79.5353,
      "duration": 0.1001,
      "velocity": 104,
      "chip": "ym2612"
    },
    {
      "channel": 1,
      "note": 66,
      "start": 79.6354,
      "duration": 0.0998,
      "velocity": 104,
      "chip": "ym2612"
    },
    {
      "channel": 3,
      "note": 83,
      "start": 79.637,
      "duration": 0.2999,
      "velocity": 91,
      "chip": "ym2612"
    },
    {
      "channel": 4,
      "note": 53,
      "start": 79.6383,
      "duration": 0.1995,
      "velocity": 57,
      "chip": "ym2612"
    },
    {
      "channel": 5,
      "note": 45,
      "start": 79.6395,
      "duration": 0.1995,
      "velocity": 55,
      "chip": "ym2612"
    },
    {
      "channel": 1,
      "note": 66,
      "start": 79.7353,
      "duration": 0.1,
      "velocity": 104,
      "chip": "ym2612"
    },
    {
      "channel": 2,
      "note": 51,
      "start": 79.7861,
      "duration": 0.2999,
      "velocity": 90,
      "chip": "ym2612"
    },
    {
      "channel": 1,
      "note": 66,
      "start": 79.8354,
      "duration": 0.0999,
      "velocity": 104,
      "chip": "ym2612"
    },
    {
      "channel": 4,
      "note": 45,
      "start": 79.8378,
      "duration": 0.1999,
      "velocity": 59,
      "chip": "ym2612"
    },
    {
      "channel": 5,
      "note": 54,
      "start": 79.839,
      "duration": 0.1999,
      "velocity": 53,
      "chip": "ym2612"
    },
    {
      "channel": 1,
      "note": 66,
      "start": 79.9353,
      "duration": 0.1,
      "velocity": 104,
      "chip": "ym2612"
    },
    {
      "channel": 3,
      "note": 76,
      "start": 79.9369,
      "duration": 0.3,
      "velocity": 91,
      "chip": "ym2612"
    },
    {
      "channel": 1,
      "note": 66,
      "start": 80.0354,
      "duration": 0.0999,
      "velocity": 104,
      "chip": "ym2612"
    },
    {
      "channel": 4,
      "note": 54,
      "start": 80.0378,
      "duration": 0.2002,
      "velocity": 61,
      "chip": "ym2612"
    },
    {
      "channel": 5,
      "note": 45,
      "start": 80.039,
      "duration": 0.2002,
      "velocity": 53,
      "chip": "ym2612"
    },
    {
      "channel": 2,
      "note": 54,
      "start": 80.0861,
      "duration": 0.2999,
      "velocity": 90,
      "chip": "ym2612"
    },
    {
      "channel": 1,
      "note": 66,
      "start": 80.1353,
      "duration": 0.1,
      "velocity": 104,
      "chip": "ym2612"
    },
    {
      "channel": 1,
      "note": 66,
      "start": 80.2353,
      "duration": 0.1,
      "velocity": 104,
      "chip": "ym2612"
    },
    {
      "channel": 3,
      "note": 78,
      "start": 80.2369,
      "duration": 0.3,
      "velocity": 91,
      "chip": "ym2612"
    },
    {
      "channel": 4,
      "note": 45,
      "start": 80.2382,
      "duration": 0.1996,
      "velocity": 65,
      "chip": "ym2612"
    },
    {
      "channel": 5,
      "note": 53,
      "start": 80.2394,
      "duration": 0.1996,
      "velocity": 54,
      "chip": "ym2612"
    },
    {
      "channel": 1,
      "note": 66,
      "start": 80.3353,
      "duration": 0.1,
      "velocity": 104,
      "chip": "ym2612"
    },
    {
      "channel": 2,
      "note": 52,
      "start": 80.3861,
      "duration": 0.2999,
      "velocity": 90,
      "chip": "ym2612"
    },
    {
      "channel": 1,
      "note": 66,
      "start": 80.4354,
      "duration": 0.0999,
      "velocity": 104,
      "chip": "ym2612"
    },
    {
      "channel": 4,
      "note": 56,
      "start": 80.4378,
      "duration": 0.2,
      "velocity": 69,
      "chip": "ym2612"
    },
    {
      "channel": 5,
      "note": 45,
      "start": 80.439,
      "duration": 0.1999,
      "velocity": 55,
      "chip": "ym2612"
    },
    {
      "channel": 1,
      "note": 66,
      "start": 80.5353,
      "duration": 0.1,
      "velocity": 104,
      "chip": "ym2612"
    },
    {
      "channel": 3,
      "note": 71,
      "start": 80.5369,
      "duration": 0.3005,
      "velocity": 91,
      "chip": "ym2612"
    },
    {
      "channel": 1,
      "note": 66,
      "start": 80.6354,
      "duration": 0.0999,
      "velocity": 104,
      "chip": "ym2612"
    },
    {
      "channel": 4,
      "note": 45,
      "start": 80.6378,
      "duration": 0.2007,
      "velocity": 73,
      "chip": "ym2612"
    },
    {
      "channel": 5,
      "note": 54,
      "start": 80.639,
      "duration": 0.2008,
      "velocity": 57,
      "chip": "ym2612"
    },
    {
      "channel": 2,
      "note": 46,
      "start": 80.6861,
      "duration": 0.2833,
      "velocity": 90,
      "chip": "ym2612"
    },
    {
      "channel": 1,
      "note": 66,
      "start": 80.7353,
      "duration": 0.1005,
      "velocity": 104,
      "chip": "ym2612"
    },
    {
      "channel": 1,
      "note": 66,
      "start": 80.8358,
      "duration": 0.0828,
      "velocity": 104,
      "chip": "ym2612"
    },
    {
      "channel": 3,
      "note": 69,
      "start": 80.8374,
      "duration": 0.2828,
      "velocity": 91,
      "chip": "ym2612"
    },
    {
      "channel": 4,
      "note": 57,
      "start": 80.8387,
      "duration": 0.1824,
      "velocity": 78,
      "chip": "ym2612"
    },
    {
      "channel": 5,
      "note": 45,
      "start": 80.8399,
      "duration": 0.1824,
      "velocity": 59,
      "chip": "ym2612"
    },
    {
      "channel": 1,
      "note": 66,
      "start": 80.9186,
      "duration": 0.1,
      "velocity": 104,
      "chip": "ym2612"
    },
    {
      "channel": 2,
      "note": 42,
      "start": 80.9694,
      "duration": 0.2999,
      "velocity": 90,
      "chip": "ym2612"
    },
    {
      "channel": 1,
      "note": 66,
      "start": 81.0187,
      "duration": 0.0999,
      "velocity": 104,
      "chip": "ym2612"
    },
    {
      "channel": 4,
      "note": 45,
      "start": 81.0211,
      "duration": 0.2,
      "velocity": 81,
      "chip": "ym2612"
    },
    {
      "channel": 5,
      "note": 56,
      "start": 81.0224,
      "duration": 0.1999,
      "velocity": 63,
      "chip": "ym2612"
    },
    {
      "channel": 1,
      "note": 66,
      "start": 81.1186,
      "duration": 0.1,
      "velocity": 104,
      "chip": "ym2612"
    },
    {
      "channel": 3,
      "note": 71,
      "start": 81.1203,
      "duration": 0.3,
      "velocity": 91,
      "chip": "ym2612"
    },
    {
      "channel": 1,
      "note": 66,
      "start": 81.2187,
      "duration": 0.0999,
      "velocity": 104,
      "chip": "ym2612"
    },
    {
      "channel": 4,
      "note": 56,
      "start": 81.2212,
      "duration": 0.2003,
      "velocity": 84,
      "chip": "ym2612"
    },
    {
      "channel": 5,
      "note": 45,
      "start": 81.2224,
      "duration": 0.2003,
      "velocity": 65,
      "chip": "ym2612"
    },
    {
      "channel": 2,
      "note": 49,
      "start": 81.2694,
      "duration": 0.2999,
      "velocity": 90,
      "chip": "ym2612"
    },
    {
      "channel": 1,
      "note": 66,
      "start": 81.3186,
      "duration": 0.1,
      "velocity": 104,
      "chip": "ym2612"
    },
    {
      "channel": 1,
      "note": 66,
      "start": 81.4186,
      "duration": 0.1,
      "velocity": 104,
      "chip": "ym2612"
    },
    {
      "channel": 3,
      "note": 76,
      "start": 81.4203,
      "duration": 0.3,
      "velocity": 91,
      "chip": "ym2612"
    },
    {
      "channel": 4,
      "note": 45,
      "start": 81.4216,
      "duration": 0.1995,
      "velocity": 86,
      "chip": "ym2612"
    },
    {
      "channel": 5,
      "note": 57,
      "start": 81.4228,
      "duration": 0.1995,
      "velocity": 69,
      "chip": "ym2612"
    },
    {
      "channel": 1,
      "note": 66,
      "start": 81.5186,
      "duration": 0.1,
      "velocity": 104,
      "chip": "ym2612"
    },
    {
      "channel": 2,
      "note": 48,
      "start": 81.5694,
      "duration": 0.2999,
      "velocity": 90,
      "chip": "ym2612"
    },
    {
      "channel": 1,
      "note": 66,
      "start": 81.6187,
      "duration": 0.0999,
      "velocity": 104,
      "chip": "ym2612"
    },
    {
      "channel": 4,
      "note": 54,
      "start": 81.6212,
      "duration": 0.1999,
      "velocity": 88,
      "chip": "ym2612"
    },
    {
      "channel": 5,
      "note": 45,
      "start": 81.6224,
      "duration": 0.1999,
      "velocity": 71,
      "chip": "ym2612"
    },
    {
      "channel": 1,
      "note": 66,
      "start": 81.7186,
      "duration": 0.1,
      "velocity": 104,
      "chip": "ym2612"
    },
    {
      "channel": 3,
      "note": 69,
      "start": 81.7203,
      "duration": 0.3,
      "velocity": 91,
      "chip": "ym2612"
    },
    {
      "channel": 1,
      "note": 66,
      "start": 81.8187,
      "duration": 0.0999,
      "velocity": 104,
      "chip": "ym2612"
    },
    {
      "channel": 4,
      "note": 45,
      "start": 81.8212,
      "duration": 0.2004,
      "velocity": 89,
      "chip": "ym2612"
    },
    {
      "channel": 5,
      "note": 56,
      "start": 81.8224,
      "duration": 0.2004,
      "velocity": 73,
      "chip": "ym2612"
    },
    {
      "channel": 2,
      "note": 52,
      "start": 81.8694,
      "duration": 0.2999,
      "velocity": 90,
      "chip": "ym2612"
    },
    {
      "channel": 1,
      "note": 66,
      "start": 81.9186,
      "duration": 0.1001,
      "velocity": 104,
      "chip": "ym2612"
    },
    {
      "channel": 1,
      "note": 66,
      "start": 82.0188,
      "duration": 0.0998,
      "velocity": 104,
      "chip": "ym2612"
    },
    {
      "channel": 3,
      "note": 71,
      "start": 82.0203,
      "duration": 0.2999,
      "velocity": 91,
      "chip": "ym2612"
    },
    {
      "channel": 4,
      "note": 53,
      "start": 82.0216,
      "duration": 0.1995,
      "velocity": 88,
      "chip": "ym2612"
    },
    {
      "channel": 5,
      "note": 45,
      "start": 82.0228,
      "duration": 0.1995,
      "velocity": 74,
      "chip": "ym2612"
    },
    {
      "channel": 1,
      "note": 66,
      "start": 82.1186,
      "duration": 0.1,
      "velocity": 104,
      "chip": "ym2612"
    },
    {
      "channel": 2,
      "note": 51,
      "start": 82.1694,
      "duration": 0.2999,
      "velocity": 90,
      "chip": "ym2612"
    },
    {
      "channel": 1,
      "note": 66,
      "start": 82.2187,
      "duration": 0.0999,
      "velocity": 104,
      "chip": "ym2612"
    },
    {
      "channel": 4,
      "note": 45,
      "start": 82.2212,
      "duration": 0.1999,
      "velocity": 86,
      "chip": "ym2612"
    },
    {
      "channel": 5,
      "note": 54,
      "start": 82.2224,
      "duration": 0.1999,
      "velocity": 76,
      "chip": "ym2612"
    },
    {
      "channel": 1,
      "note": 66,
      "start": 82.3186,
      "duration": 0.1,
      "velocity": 104,
      "chip": "ym2612"
    },
    {
      "channel": 3,
      "note": 78,
      "start": 82.3203,
      "duration": 0.299,
      "velocity": 91,
      "chip": "ym2612"
    },
    {
      "channel": 1,
      "note": 66,
      "start": 82.4187,
      "duration": 0.0999,
      "velocity": 104,
      "chip": "ym2612"
    },
    {
      "channel": 4,
      "note": 54,
      "start": 82.4212,
      "duration": 0.1999,
      "velocity": 83,
      "chip": "ym2612"
    },
    {
      "channel": 5,
      "note": 45,
      "start": 82.4224,
      "duration": 0.2,
      "velocity": 76,
      "chip": "ym2612"
    },
    {
      "channel": 2,
      "note": 54,
      "start": 82.4694,
      "duration": 0.2998,
      "velocity": 90,
      "chip": "ym2612"
    },
    {
      "channel": 1,
      "note": 66,
      "start": 82.5186,
      "duration": 0.1,
      "velocity": 104,
      "chip": "ym2612"
    },
    {
      "channel": 1,
      "note": 66,
      "start": 82.6186,
      "duration": 0.0999,
      "velocity": 104,
      "chip": "ym2612"
    },
    {
      "channel": 4,
      "note": 45,
      "start": 82.6212,
      "duration": 0.1996,
      "velocity": 80,
      "chip": "ym2612"
    },
    {
      "channel": 5,
      "note": 53,
      "start": 82.6224,
      "duration": 0.1995,
      "velocity": 76,
      "chip": "ym2612"
    },
    {
      "channel": 1,
      "note": 66,
      "start": 82.7186,
      "duration": 0.0999,
      "velocity": 104,
      "chip": "ym2612"
    },
    {
      "channel": 2,
      "note": 52,
      "start": 82.7693,
      "duration": 0.2834,
      "velocity": 90,
      "chip": "ym2612"
    },
    {
      "channel": 1,
      "note": 66,
      "start": 82.8186,
      "duration": 0.1,
      "velocity": 104,
      "chip": "ym2612"
    },
    {
      "channel": 4,
      "note": 53,
      "start": 82.8209,
      "duration": 0.2002,
      "velocity": 76,
      "chip": "ym2612"
    },
    {
      "channel": 5,
      "note": 45,
      "start": 82.8221,
      "duration": 0.2003,
      "velocity": 74,
      "chip": "ym2612"
    },
    {
      "channel": 1,
      "note": 66,
      "start": 82.9186,
      "duration": 0.1,
      "velocity": 104,
      "chip": "ym2612"
    },
    {
      "channel": 3,
      "note": 71,
      "start": 82.9203,
      "duration": 0.2835,
      "velocity": 91,
      "chip": "ym2612"
    },
    {
      "channel": 1,
      "note": 66,
      "start": 83.0187,
      "duration": 0.0833,
      "velocity": 104,
      "chip": "ym2612"
    },
    {
      "channel": 4,
      "note": 45,
      "start": 83.0212,
      "duration": 0.1838,
      "velocity": 72,
      "chip": "ym2612"
    },
    {
      "channel": 5,
      "note": 54,
      "start": 83.0224,
      "duration": 0.1838,
      "velocity": 72,
      "chip": "ym2612"
    },
    {
      "channel": 2,
      "note": 46,
      "start": 83.0527,
      "duration": 0.3001,
      "velocity": 90,
      "chip": "ym2612"
    },
    {
      "channel": 1,
      "note": 66,
      "start": 83.102,
      "duration": 0.1002,
      "velocity": 104,
      "chip": "ym2612"
    },
    {
      "channel": 1,
      "note": 66,
      "start": 83.2022,
      "duration": 0.0997,
      "velocity": 104,
      "chip": "ym2612"
    },
    {
      "channel": 3,
      "note": 69,
      "start": 83.2039,
      "duration": 0.2997,
      "velocity": 91,
      "chip": "ym2612"
    },
    {
      "channel": 4,
      "note": 54,
      "start": 83.2051,
      "duration": 0.1994,
      "velocity": 68,
      "chip": "ym2612"
    },
    {
      "channel": 5,
      "note": 45,
      "start": 83.2063,
      "duration": 0.1993,
      "velocity": 70,
      "chip": "ym2612"
    },
    {
      "channel": 1,
      "note": 66,
      "start": 83.302,
      "duration": 0.1,
      "velocity": 104,
      "chip": "ym2612"
    },
    {
      "channel": 2,
      "note": 42,
      "start": 83.3529,
      "duration": 0.2999,
      "velocity": 90,
      "chip": "ym2612"
    },
    {
      "channel": 1,
      "note": 66,
      "start": 83.402,
      "duration": 0.0999,
      "velocity": 104,
      "chip": "ym2612"
    },
    {
      "channel": 4,
      "note": 45,
      "start": 83.4044,
      "duration": 0.2,
      "velocity": 64,
      "chip": "ym2612"
    },
    {
      "channel": 5,
      "note": 53,
      "start": 83.4057,
      "duration": 0.1999,
      "velocity": 68,
      "chip": "ym2612"
    },
    {
      "channel": 1,
      "note": 66,
      "start": 83.502,
      "duration": 0.1,
      "velocity": 104,
      "chip": "ym2612"
    },
    {
      "channel": 3,
      "note": 71,
      "start": 83.5036,
      "duration": 0.3,
      "velocity": 91,
      "chip": "ym2612"
    },
    {
      "channel": 1,
      "note": 66,
      "start": 83.602,
      "duration": 0.0999,
      "velocity": 104,
      "chip": "ym2612"
    },
    {
      "channel": 4,
      "note": 56,
      "start": 83.6045,
      "duration": 0.2003,
      "velocity": 61,
      "chip": "ym2612"
    },
    {
      "channel": 5,
      "note": 45,
      "start": 83.6057,
      "duration": 0.2003,
      "velocity": 65,
      "chip": "ym2612"
    },
    {
      "channel": 2,
      "note": 49,
      "start": 83.6528,
      "duration": 0.2999,
      "velocity": 90,
      "chip": "ym2612"
    },
    {
      "channel": 1,
      "note": 66,
      "start": 83.702,
      "duration": 0.1,
      "velocity": 104,
      "chip": "ym2612"
    },
    {
      "channel": 1,
      "note": 66,
      "start": 83.802,
      "duration": 0.1,
      "velocity": 104,
      "chip": "ym2612"
    },
    {
      "channel": 3,
      "note": 76,
      "start": 83.8036,
      "duration": 0.3,
      "velocity": 91,
      "chip": "ym2612"
    },
    {
      "channel": 4,
      "note": 45,
      "start": 83.8049,
      "duration": 0.1995,
      "velocity": 58,
      "chip": "ym2612"
    },
    {
      "channel": 5,
      "note": 54,
      "start": 83.8061,
      "duration": 0.1995,
      "velocity": 61,
      "chip": "ym2612"
    },
    {
      "channel": 1,
      "note": 66,
      "start": 83.902,
      "duration": 0.1,
      "velocity": 104,
      "chip": "ym2612"
    },
    {
      "channel": 2,
      "note": 48,
      "start": 83.9527,
      "duration": 0.2999,
      "velocity": 90,
      "chip": "ym2612"
    },
    {
      "channel": 1,
      "note": 66,
      "start": 84.002,
      "duration": 0.0999,
      "velocity": 104,
      "chip": "ym2612"
    },
    {
      "channel": 4,
      "note": 57,
      "start": 84.0044,
      "duration": 0.2,
      "velocity": 57,
      "chip": "ym2612"
    },
    {
      "channel": 5,
      "note": 45,
      "start": 84.0057,
      "duration": 0.1999,
      "velocity": 59,
      "chip": "ym2612"
    },
    {
      "channel": 1,
      "note": 66,
      "start": 84.102,
      "duration": 0.1,
      "velocity": 104,
      "chip": "ym2612"
    },
    {
      "channel": 3,
      "note": 69,
      "start": 84.1036,
      "duration": 0.3,
      "velocity": 91,
      "chip": "ym2612"
    },
    {
      "channel": 1,
      "note": 66,
      "start": 84.202,
      "duration": 0.0999,
      "velocity": 104,
      "chip": "ym2612"
    },
    {
      "channel": 4,
      "note": 45,
      "start": 84.2045,
      "duration": 0.2004,
      "velocity": 56,
      "chip": "ym2612"
    },
    {
      "channel": 5,
      "note": 56,
      "start": 84.2057,
      "duration": 0.2004,
      "velocity": 57,
      "chip": "ym2612"
    },
    {
      "channel": 2,
      "note": 52,
      "start": 84.2527,
      "duration": 0.2999,
      "velocity": 90,
      "chip": "ym2612"
    },
    {
      "channel": 1,
      "note": 66,
      "start": 84.302,
      "duration": 0.1001,
      "velocity": 104,
      "chip": "ym2612"
    },
    {
      "channel": 1,
      "note": 66,
      "start": 84.4021,
      "duration": 0.0998,
      "velocity": 104,
      "chip": "ym2612"
    },
    {
      "channel": 3,
      "note": 71,
      "start": 84.4037,
      "duration": 0.2999,
      "velocity": 91,
      "chip": "ym2612"
    },
    {
      "channel": 4,
      "note": 56,
      "start": 84.4049,
      "duration": 0.1995,
      "velocity": 57,
      "chip": "ym2612"
    },
    {
      "channel": 5,
      "note": 45,
      "start": 84.4062,
      "duration": 0.1995,
      "velocity": 55,
      "chip": "ym2612"
    },
    {
      "channel": 1,
      "note": 66,
      "start": 84.502,
      "duration": 0.1,
      "velocity": 104,
      "chip": "ym2612"
    },
    {
      "channel": 2,
      "note": 51,
      "start": 84.5527,
      "duration": 0.3,
      "velocity": 90,
      "chip": "ym2612"
    },
    {
      "channel": 1,
      "note": 66,
      "start": 84.602,
      "duration": 0.0999,
      "velocity": 104,
      "chip": "ym2612"
    },
    {
      "channel": 4,
      "note": 45,
      "start": 84.6045,
      "duration": 0.1999,
      "velocity": 59,
      "chip": "ym2612"
    },
    {
      "channel": 5,
      "note": 57,
      "start": 84.6057,
      "duration": 0.1999,
      "velocity": 53,
      "chip": "ym2612"
    },
    {
      "channel": 1,
      "note": 66,
      "start": 84.702,
      "duration": 0.1,
      "velocity": 104,
      "chip": "ym2612"
    },
    {
      "channel": 3,
      "note": 78,
      "start": 84.7036,
      "duration": 0.3,
      "velocity": 91,
      "chip": "ym2612"
    },
    {
      "channel": 1,
      "note": 66,
      "start": 84.802,
      "duration": 0.0999,
      "velocity": 104,
      "chip": "ym2612"
    },
    {
      "channel": 4,
      "note": 54,
      "start": 84.8045,
      "duration": 0.2002,
      "velocity": 61,
      "chip": "ym2612"
    },
    {
      "channel": 5,
      "note": 45,
      "start": 84.8057,
      "duration": 0.2003,
      "velocity": 53,
      "chip": "ym2612"
    },
    {
      "channel": 2,
      "note": 54,
      "start": 84.8527,
      "duration": 0.2999,
      "velocity": 90,
      "chip": "ym2612"
    },
    {
      "channel": 1,
      "note": 66,
      "start": 84.902,
      "duration": 0.1,
      "velocity": 104,
      "chip": "ym2612"
    },
    {
      "channel": 1,
      "note": 66,
      "start": 85.002,
      "duration": 0.1,
      "velocity": 104,
      "chip": "ym2612"
    },
    {
      "channel": 3,
      "note": 83,
      "start": 85.0036,
      "duration": 0.2833,
      "velocity": 91,
      "chip": "ym2612"
    },
    {
      "channel": 4,
      "note": 45,
      "start": 85.0048,
      "duration": 0.1829,
      "velocity": 65,
      "chip": "ym2612"
    },
    {
      "channel": 5,
      "note": 56,
      "start": 85.0061,
      "duration": 0.1829,
      "velocity": 54,
      "chip": "ym2612"
    },
    {
      "channel": 1,
      "note": 66,
      "start": 85.102,
      "duration": 0.0833,
      "velocity": 104,
      "chip": "ym2612"
    },
    {
      "channel": 2,
      "note": 52,
      "start": 85.1527,
      "duration": 0.2833,
      "velocity": 90,
      "chip": "ym2612"
    },
    {
      "channel": 1,
      "note": 66,
      "start": 85.1854,
      "duration": 0.0999,
      "velocity": 104,
      "chip": "ym2612"
    },
    {
      "channel": 4,
      "note": 53,
      "start": 85.1878,
      "duration": 0.2,
      "velocity": 69,
      "chip": "ym2612"
    },
    {
      "channel": 5,
      "note": 45,
      "start": 85.189,
      "duration": 0.1999,
      "velocity": 55,
      "chip": "ym2612"
    },
    {
      "channel": 1,
      "note": 66,
      "start": 85.2853,
      "duration": 0.1,
      "velocity": 104,
      "chip": "ym2612"
    },
    {
      "channel": 3,
      "note": 78,
      "start": 85.2869,
      "duration": 0.3006,
      "velocity": 91,
      "chip": "ym2612"
    },
    {
      "channel": 1,
      "note": 66,
      "start": 85.3854,
      "duration": 0.0999,
      "velocity": 104,
      "chip": "ym2612"
    },
    {
      "channel": 4,
      "note": 45,
      "start": 85.3878,
      "duration": 0.2009,
      "velocity": 73,
      "chip": "ym2612"
    },
    {
      "channel": 5,
      "note": 54,
      "start": 85.389,
      "duration": 0.201,
      "velocity": 57,
      "chip": "ym2612"
    },
    {
      "channel": 2,
      "note": 46,
      "start": 85.4361,
      "duration": 0.2999,
      "velocity": 90,
      "chip": "ym2612"
    },
    {
      "channel": 1,
      "note": 66,
      "start": 85.4853,
      "duration": 0.1006,
      "velocity": 104,
      "chip": "ym2612"
    },
    {
      "channel": 1,
      "note": 66,
      "start": 85.5859,
      "duration": 0.0993,
      "velocity": 104,
      "chip": "ym2612"
    },
    {
      "channel": 3,
      "note": 85,
      "start": 85.5876,
      "duration": 0.1495,
      "velocity": 91,
      "chip": "ym2612"
    },
    {
      "channel": 4,
      "note": 54,
      "start": 85.5888,
      "duration": 0.199,
      "velocity": 78,
      "chip": "ym2612"
    },
    {
      "channel": 5,
      "note": 45,
      "start": 85.5901,
      "duration": 0.199,
      "velocity": 59,
      "chip": "ym2612"
    },
    {
      "channel": 1,
      "note": 66,
      "start": 85.6853,
      "duration": 0.1,
      "velocity": 104,
      "chip": "ym2612"
    },
    {
      "channel": 2,
      "note": 42,
      "start": 85.7361,
      "duration": 0.2999,
      "velocity": 90,
      "chip": "ym2612"
    },
    {
      "channel": 3,
      "note": 83,
      "start": 85.7371,
      "duration": 0.1498,
      "velocity": 91,
      "chip": "ym2612"
    },
    {
      "channel": 1,
      "note": 66,
      "start": 85.7854,
      "duration": 0.0999,
      "velocity": 104,
      "chip": "ym2612"
    },
    {
      "channel": 4,
      "note": 45,
      "start": 85.7878,
      "duration": 0.1999,
      "velocity": 81,
      "chip": "ym2612"
    },
    {
      "channel": 5,
      "note": 53,
      "start": 85.7891,
      "duration": 0.1999,
      "velocity": 63,
      "chip": "ym2612"
    },
    {
      "channel": 1,
      "note": 66,
      "start": 85.8853,
      "duration": 0.1,
      "velocity": 104,
      "chip": "ym2612"
    },
    {
      "channel": 3,
      "note": 81,
      "start": 85.8869,
      "duration": 0.1501,
      "velocity": 91,
      "chip": "ym2612"
    },
    {
      "channel": 1,
      "note": 66,
      "start": 85.9854,
      "duration": 0.0999,
      "velocity": 104,
      "chip": "ym2612"
    },
    {
      "channel": 4,
      "note": 53,
      "start": 85.9878,
      "duration": 0.2,
      "velocity": 84,
      "chip": "ym2612"
    },
    {
      "channel": 5,
      "note": 45,
      "start": 85.989,
      "duration": 0.2001,
      "velocity": 65,
      "chip": "ym2612"
    },
    {
      "channel": 2,
      "note": 49,
      "start": 86.0361,
      "duration": 0.2999,
      "velocity": 90,
      "chip": "ym2612"
    },
    {
      "channel": 3,
      "note": 76,
      "start": 86.0371,
      "duration": 0.2999,
      "velocity": 91,
      "chip": "ym2612"
    },
    {
      "channel": 1,
      "note": 66,
      "start": 86.0853,
      "duration": 0.1001,
      "velocity": 104,
      "chip": "ym2612"
    },
    {
      "channel": 1,
      "note": 66,
      "start": 86.1855,
      "duration": 0.0998,
      "velocity": 104,
      "chip": "ym2612"
    },
    {
      "channel": 4,
      "note": 45,
      "start": 86.188,
      "duration": 0.1998,
      "velocity": 86,
      "chip": "ym2612"
    },
    {
      "channel": 5,
      "note": 54,
      "start": 86.1892,
      "duration": 0.1998,
      "velocity": 69,
      "chip": "ym2612"
    },
    {
      "channel": 1,
      "note": 66,
      "start": 86.2853,
      "duration": 0.1,
      "velocity": 104,
      "chip": "ym2612"
    },
    {
      "channel": 2,
      "note": 48,
      "start": 86.3361,
      "duration": 0.2999,
      "velocity": 90,
      "chip": "ym2612"
    },
    {
      "channel": 3,
      "note": 78,
      "start": 86.3371,
      "duration": 0.1498,
      "velocity": 91,
      "chip": "ym2612"
    },
    {
      "channel": 1,
      "note": 66,
      "start": 86.3854,
      "duration": 0.0999,
      "velocity": 104,
      "chip": "ym2612"
    },
    {
      "channel": 4,
      "note": 54,
      "start": 86.3878,
      "duration": 0.2,
      "velocity": 88,
      "chip": "ym2612"
    },
    {
      "channel": 5,
      "note": 45,
      "start": 86.389,
      "duration": 0.2,
      "velocity": 71,
      "chip": "ym2612"
    },
    {
      "channel": 1,
      "note": 66,
      "start": 86.4853,
      "duration": 0.1,
      "velocity": 104,
      "chip": "ym2612"
    },
    {
      "channel": 3,
      "note": 85,
      "start": 86.4869,
      "duration": 0.1501,
      "velocity": 91,
      "chip": "ym2612"
    },
    {
      "channel": 1,
      "note": 66,
      "start": 86.5854,
      "duration": 0.0999,
      "velocity": 104,
      "chip": "ym2612"
    },
    {
      "channel": 4,
      "note": 45,
      "start": 86.5878,
      "duration": 0.2004,
      "velocity": 89,
      "chip": "ym2612"
    },
    {
      "channel": 5,
      "note": 53,
      "start": 86.5891,
      "duration": 0.2003,
      "velocity": 73,
      "chip": "ym2612"
    },
    {
      "channel": 2,
      "note": 52,
      "start": 86.6361,
      "duration": 0.2999,
      "velocity": 90,
      "chip": "ym2612"
    },
    {
      "channel": 3,
      "note": 83,
      "start": 86.6371,
      "duration": 0.1498,
      "velocity": 91,
      "chip": "ym2612"
    },
    {
      "channel": 1,
      "note": 66,
      "start": 86.6853,
      "duration": 0.1001,
      "velocity": 104,
      "chip": "ym2612"
    },
    {
      "channel": 1,
      "note": 66,
      "start": 86.7854,
      "duration": 0.0998,
      "velocity": 104,
      "chip": "ym2612"
    },
    {
      "channel": 3,
      "note": 81,
      "start": 86.787,
      "duration": 0.1501,
      "velocity": 91,
      "chip": "ym2612"
    },
    {
      "channel": 4,
      "note": 56,
      "start": 86.7883,
      "duration": 0.1995,
      "velocity": 88,
      "chip": "ym2612"
    },
    {
      "channel": 5,
      "note": 45,
      "start": 86.7895,
      "duration": 0.1995,
      "velocity": 74,
      "chip": "ym2612"
    },
    {
      "channel": 1,
      "note": 66,
      "start": 86.8853,
      "duration": 0.1,
      "velocity": 104,
      "chip": "ym2612"
    },
    {
      "channel": 2,
      "note": 51,
      "start": 86.9361,
      "duration": 0.2999,
      "velocity": 90,
      "chip": "ym2612"
    },
    {
      "channel": 3,
      "note": 76,
      "start": 86.9371,
      "duration": 0.2999,
      "velocity": 91,
      "chip": "ym2612"
    },
    {
      "channel": 1,
      "note": 66,
      "start": 86.9854,
      "duration": 0.0999,
      "velocity": 104,
      "chip": "ym2612"
    },
    {
      "channel": 4,
      "note": 45,
      "start": 86.9878,
      "duration": 0.1999,
      "velocity": 86,
      "chip": "ym2612"
    },
    {
      "channel": 5,
      "note": 54,
      "start": 86.989,
      "duration": 0.1999,
      "velocity": 76,
      "chip": "ym2612"
    },
    {
      "channel": 1,
      "note": 66,
      "start": 87.0853,
      "duration": 0.1,
      "velocity": 104,
      "chip": "ym2612"
    },
    {
      "channel": 1,
      "note": 66,
      "start": 87.1854,
      "duration": 0.0999,
      "velocity": 104,
      "chip": "ym2612"
    },
    {
      "channel": 4,
      "note": 57,
      "start": 87.1878,
      "duration": 0.1832,
      "velocity": 83,
      "chip": "ym2612"
    },
    {
      "channel": 5,
      "note": 45,
      "start": 87.189,
      "duration": 0.1833,
      "velocity": 76,
      "chip": "ym2612"
    },
    {
      "channel": 2,
      "note": 54,
      "start": 87.2361,
      "duration": 0.2833,
      "velocity": 90,
      "chip": "ym2612"
    },
    {
      "channel": 3,
      "note": 78,
      "start": 87.2371,
      "duration": 0.2833,
      "velocity": 91,
      "chip": "ym2612"
    },
    {
      "channel": 1,
      "note": 66,
      "start": 87.2853,
      "duration": 0.0833,
      "velocity": 104,
      "chip": "ym2612"
    },
    {
      "channel": 1,
      "note": 66,
      "start": 87.3686,
      "duration": 0.1,
      "velocity": 104,
      "chip": "ym2612"
    },
    {
      "channel": 4,
      "note": 45,
      "start": 87.3711,
      "duration": 0.2,
      "velocity": 80,
      "chip": "ym2612"
    },
    {
      "channel": 5,
      "note": 56,
      "start": 87.3724,
      "duration": 0.1999,
      "velocity": 76,
      "chip": "ym2612"
    },
    {
      "channel": 1,
      "note": 66,
      "start": 87.4686,
      "duration": 0.1,
      "velocity": 104,
      "chip": "ym2612"
    },
    {
      "channel": 2,
      "note": 52,
      "start": 87.5194,
      "duration": 0.2999,
      "velocity": 90,
      "chip": "ym2612"
    },
    {
      "channel": 3,
      "note": 71,
      "start": 87.5205,
      "duration": 0.1498,
      "velocity": 91,
      "chip": "ym2612"
    },
    {
      "channel": 1,
      "note": 66,
      "start": 87.5687,
      "duration": 0.0999,
      "velocity": 104,
      "chip": "ym2612"
    },
    {
      "channel": 4,
      "note": 56,
      "start": 87.5712,
      "duration": 0.1999,
      "velocity": 76,
      "chip": "ym2612"
    },
    {
      "channel": 5,
      "note": 45,
      "start": 87.5724,
      "duration": 0.1999,
      "velocity": 74,
      "chip": "ym2612"
    },
    {
      "channel": 1,
      "note": 66,
      "start": 87.6686,
      "duration": 0.1,
      "velocity": 104,
      "chip": "ym2612"
    },
    {
      "channel": 3,
      "note": 76,
      "start": 87.6703,
      "duration": 0.3001,
      "velocity": 91,
      "chip": "ym2612"
    },
    {
      "channel": 1,
      "note": 66,
      "start": 87.7687,
      "duration": 0.0999,
      "velocity": 104,
      "chip": "ym2612"
    },
    {
      "channel": 4,
      "note": 45,
      "start": 87.7712,
      "duration": 0.2004,
      "velocity": 72,
      "chip": "ym2612"
    },
    {
      "channel": 5,
      "note": 57,
      "start": 87.7724,
      "duration": 0.2005,
      "velocity": 72,
      "chip": "ym2612"
    },
    {
      "channel": 2,
      "note": 46,
      "start": 87.8194,
      "duration": 0.3,
      "velocity": 90,
      "chip": "ym2612"
    },
    {
      "channel": 1,
      "note": 66,
      "start": 87.8686,
      "duration": 0.1001,
      "velocity": 104,
      "chip": "ym2612"
    },
    {
      "channel": 1,
      "note": 66,
      "start": 87.9688,
      "duration": 0.0998,
      "velocity": 104,
      "chip": "ym2612"
    },
    {
      "channel": 3,
      "note": 69,
      "start": 87.9704,
      "duration": 0.1501,
      "velocity": 91,
      "chip": "ym2612"
    },
    {
      "channel": 4,
      "note": 54,
      "start": 87.9717,
      "duration": 0.1994,
      "velocity": 68,
      "chip": "ym2612"
    },
    {
      "channel": 5,
      "note": 45,
      "start": 87.9729,
      "duration": 0.1994,
      "velocity": 70,
      "chip": "ym2612"
    },
    {
      "channel": 1,
      "note": 66,
      "start": 88.0686,
      "duration": 0.1,
      "velocity": 104,
      "chip": "ym2612"
    },
    {
      "channel": 2,
      "note": 42,
      "start": 88.1195,
      "duration": 0.2999,
      "velocity": 90,
      "chip": "ym2612"
    },
    {
      "channel": 3,
      "note": 64,
      "start": 88.1205,
      "duration": 0.1497,
      "velocity": 91,
      "chip": "ym2612"
    },
    {
      "channel": 1,
      "note": 66,
      "start": 88.1687,
      "duration": 0.0999,
      "velocity": 104,
      "chip": "ym2612"
    },
    {
      "channel": 4,
      "note": 45,
      "start": 88.1711,
      "duration": 0.2,
      "velocity": 64,
      "chip": "ym2612"
    },
    {
      "channel": 5,
      "note": 56,
      "start": 88.1724,
      "duration": 0.1999,
      "velocity": 68,
      "chip": "ym2612"
    },
    {
      "channel": 1,
      "note": 66,
      "start": 88.2686,
      "duration": 0.1,
      "velocity": 104,
      "chip": "ym2612"
    },
    {
      "channel": 3,
      "note": 66,
      "start": 88.2703,
      "duration": 0.1501,
      "velocity": 91,
      "chip": "ym2612"
    },
    {
      "channel": 1,
      "note": 66,
      "start": 88.3687,
      "duration": 0.0999,
      "velocity": 104,
      "chip": "ym2612"
    },
    {
      "channel": 4,
      "note": 53,
      "start": 88.3712,
      "duration": 0.2003,
      "velocity": 61,
      "chip": "ym2612"
    },
    {
      "channel": 5,
      "note": 45,
      "start": 88.3724,
      "duration": 0.2003,
      "velocity": 65,
      "chip": "ym2612"
    },
    {
      "channel": 2,
      "note": 49,
      "start": 88.4194,
      "duration": 0.2999,
      "velocity": 90,
      "chip": "ym2612"
    },
    {
      "channel": 3,
      "note": 71,
      "start": 88.4205,
      "duration": 0.1498,
      "velocity": 91,
      "chip": "ym2612"
    },
    {
      "channel": 1,
      "note": 66,
      "start": 88.4686,
      "duration": 0.1,
      "velocity": 104,
      "chip": "ym2612"
    },
    {
      "channel": 1,
      "note": 66,
      "start": 88.5686,
      "duration": 0.1,
      "velocity": 104,
      "chip": "ym2612"
    },
    {
      "channel": 3,
      "note": 76,
      "start": 88.5703,
      "duration": 0.1501,
      "velocity": 91,
      "chip": "ym2612"
    },
    {
      "channel": 4,
      "note": 45,
      "start": 88.5716,
      "duration": 0.1995,
      "velocity": 58,
      "chip": "ym2612"
    },
    {
      "channel": 5,
      "note": 54,
      "start": 88.5728,
      "duration": 0.1995,
      "velocity": 61,
      "chip": "ym2612"
    },
    {
      "channel": 1,
      "note": 66,
      "start": 88.6686,
      "duration": 0.1,
      "velocity": 104,
      "chip": "ym2612"
    },
    {
      "channel": 2,
      "note": 48,
      "start": 88.7194,
      "duration": 0.2999,
      "velocity": 90,
      "chip": "ym2612"
    },
    {
      "channel": 3,
      "note": 78,
      "start": 88.7205,
      "duration": 0.2999,
      "velocity": 91,
      "chip": "ym2612"
    },
    {
      "channel": 1,
      "note": 66,
      "start": 88.7687,
      "duration": 0.0999,
      "velocity": 104,
      "chip": "ym2612"
    },
    {
      "channel": 4,
      "note": 54,
      "start": 88.7711,
      "duration": 0.2,
      "velocity": 57,
      "chip": "ym2612"
    },
    {
      "channel": 5,
      "note": 45,
      "start": 88.7724,
      "duration": 0.1999,
      "velocity": 59,
      "chip": "ym2612"
    },
    {
      "channel": 1,
      "note": 66,
      "start": 88.8686,
      "duration": 0.1,
      "velocity": 104,
      "chip": "ym2612"
    },
    {
      "channel": 1,
      "note": 66,
      "start": 88.9687,
      "duration": 0.0999,
      "velocity": 104,
      "chip": "ym2612"
    },
    {
      "channel": 4,
      "note": 45,
      "start": 88.9712,
      "duration": 0.2,
      "velocity": 56,
      "chip": "ym2612"
    },
    {
      "channel": 5,
      "note": 53,
      "start": 88.9724,
      "duration": 0.2001,
      "velocity": 57,
      "chip": "ym2612"
    },
    {
      "channel": 2,
      "note": 52,
      "start": 89.0194,
      "duration": 0.2999,
      "velocity": 90,
      "chip": "ym2612"
    },
    {
      "channel": 3,
      "note": 83,
      "start": 89.0205,
      "duration": 0.2999,
      "velocity": 91,
      "chip": "ym2612"
    },
    {
      "channel": 1,
      "note": 66,
      "start": 89.0686,
      "duration": 0.1001,
      "velocity": 104,
      "chip": "ym2612"
    },
    {
      "channel": 1,
      "note": 66,
      "start": 89.1688,
      "duration": 0.0998,
      "velocity": 104,
      "chip": "ym2612"
    },
    {
      "channel": 4,
      "note": 53,
      "start": 89.1712,
      "duration": 0.1999,
      "velocity": 57,
      "chip": "ym2612"
    },
    {
      "channel": 5,
      "note": 45,
      "start": 89.1724,
      "duration": 0.1999,
      "velocity": 55,
      "chip": "ym2612"
    },
    {
      "channel": 1,
      "note": 66,
      "start": 89.2686,
      "duration": 0.1,
      "velocity": 104,
      "chip": "ym2612"
    },
    {
      "channel": 2,
      "note": 51,
      "start": 89.3194,
      "duration": 0.2833,
      "velocity": 90,
      "chip": "ym2612"
    },
    {
      "channel": 3,
      "note": 81,
      "start": 89.3205,
      "duration": 0.2833,
      "velocity": 91,
      "chip": "ym2612"
    },
    {
      "channel": 1,
      "note": 66,
      "start": 89.3687,
      "duration": 0.0833,
      "velocity": 104,
      "chip": "ym2612"
    },
    {
      "channel": 4,
      "note": 45,
      "start": 89.3712,
      "duration": 0.1833,
      "velocity": 59,
      "chip": "ym2612"
    },
    {
      "channel": 5,
      "note": 54,
      "start": 89.3724,
      "duration": 0.1833,
      "velocity": 53,
      "chip": "ym2612"
    },
    {
      "channel": 1,
      "note": 66,
      "start": 89.452,
      "duration": 0.1,
      "velocity": 104,
      "chip": "ym2612"
    },
    {
      "channel": 1,
      "note": 66,
      "start": 89.552,
      "duration": 0.0999,
      "velocity": 104,
      "chip": "ym2612"
    },
    {
      "channel": 4,
      "note": 54,
      "start": 89.5545,
      "duration": 0.1999,
      "velocity": 61,
      "chip": "ym2612"
    },
    {
      "channel": 5,
      "note": 45,
      "start": 89.5557,
      "duration": 0.1999,
      "velocity": 53,
      "chip": "ym2612"
    },
    {
      "channel": 2,
      "note": 54,
      "start": 89.6027,
      "duration": 0.2999,
      "velocity": 90,
      "chip": "ym2612"
    },
    {
      "channel": 3,
      "note": 88,
      "start": 89.6038,
      "duration": 0.2999,
      "velocity": 91,
      "chip": "ym2612"
    },
    {
      "channel": 1,
      "note": 66,
      "start": 89.652,
      "duration": 0.1,
      "velocity": 104,
      "chip": "ym2612"
    },
    {
      "channel": 1,
      "note": 66,
      "start": 89.752,
      "duration": 0.1,
      "velocity": 104,
      "chip": "ym2612"
    },
    {
      "channel": 4,
      "note": 45,
      "start": 89.7544,
      "duration": 0.2,
      "velocity": 65,
      "chip": "ym2612"
    },
    {
      "channel": 5,
      "note": 53,
      "start": 89.7557,
      "duration": 0.1999,
      "velocity": 54,
      "chip": "ym2612"
    },
    {
      "channel": 1,
      "note": 66,
      "start": 89.852,
      "duration": 0.1,
      "velocity": 104,
      "chip": "ym2612"
    },
    {
      "channel": 2,
      "note": 52,
      "start": 89.9027,
      "duration": 0.2999,
      "velocity": 90,
      "chip": "ym2612"
    },
    {
      "channel": 3,
      "note": 81,
      "start": 89.9038,
      "duration": 0.1498,
      "velocity": 91,
      "chip": "ym2612"
    },
    {
      "channel": 1,
      "note": 66,
      "start": 89.952,
      "duration": 0.0999,
      "velocity": 104,
      "chip": "ym2612"
    },
    {
      "channel": 4,
      "note": 56,
      "start": 89.9544,
      "duration": 0.2,
      "velocity": 69,
      "chip": "ym2612"
    },
    {
      "channel": 5,
      "note": 45,
      "start": 89.9557,
      "duration": 0.1999,
      "velocity": 55,
      "chip": "ym2612"
    },
    {
      "channel": 1,
      "note": 66,
      "start": 90.052,
      "duration": 0.1,
      "velocity": 104,
      "chip": "ym2612"
    },
    {
      "channel": 3,
      "note": 83,
      "start": 90.0536,
      "duration": 0.3008,
      "velocity": 91,
      "chip": "ym2612"
    },
    {
      "channel": 1,
      "note": 66,
      "start": 90.152,
      "duration": 0.0999,
      "velocity": 104,
      "chip": "ym2612"
    },
    {
      "channel": 4,
      "note": 45,
      "start": 90.1545,
      "duration": 0.2011,
      "velocity": 73,
      "chip": "ym2612"
    },
    {
      "channel": 5,
      "note": 54,
      "start": 90.1557,
      "duration": 0.2011,
      "velocity": 57,
      "chip": "ym2612"
    },
    {
      "channel": 2,
      "note": 46,
      "start": 90.2027,
      "duration": 0.3003,
      "velocity": 90,
      "chip": "ym2612"
    },
    {
      "channel": 1,
      "note": 66,
      "start": 90.252,
      "duration": 0.1011,
      "velocity": 104,
      "chip": "ym2612"
    },
    {
      "channel": 0,
      "note": 72,
      "start": 90.3521,
      "duration": 2.6828,
      "velocity": 99,
      "chip": "ym2612"
    },
    {
      "channel": 1,
      "note": 66,
      "start": 90.353,
      "duration": 0.0992,
      "velocity": 104,
      "chip": "ym2612"
    },
    {
      "channel": 3,
      "note": 83,
      "start": 90.3544,
      "duration": 0.2995,
      "velocity": 91,
      "chip": "ym2612"
    },
    {
      "channel": 4,
      "note": 57,
      "start": 90.3557,
      "duration": 0.199,
      "velocity": 78,
      "chip": "ym2612"
    },
    {
      "channel": 5,
      "note": 45,
      "start": 90.3569,
      "duration": 0.1991,
      "velocity": 59,
      "chip": "ym2612"
    },
    {
      "channel": 1,
      "note": 66,
      "start": 90.4523,
      "duration": 0.0999,
      "velocity": 104,
      "chip": "ym2612"
    },
    {
      "channel": 2,
      "note": 42,
      "start": 90.5031,
      "duration": 0.2999,
      "velocity": 90,
      "chip": "ym2612"
    },
    {
      "channel": 1,
      "note": 66,
      "start": 90.5523,
      "duration": 0.0999,
      "velocity": 104,
      "chip": "ym2612"
    },
    {
      "channel": 4,
      "note": 45,
      "start": 90.5548,
      "duration": 0.1999,
      "velocity": 81,
      "chip": "ym2612"
    },
    {
      "channel": 5,
      "note": 56,
      "start": 90.5561,
      "duration": 0.1999,
      "velocity": 63,
      "chip": "ym2612"
    },
    {
      "channel": 1,
      "note": 66,
      "start": 90.6523,
      "duration": 0.0999,
      "velocity": 104,
      "chip": "ym2612"
    },
    {
      "channel": 3,
      "note": 85,
      "start": 90.654,
      "duration": 0.2999,
      "velocity": 91,
      "chip": "ym2612"
    },
    {
      "channel": 1,
      "note": 66,
      "start": 90.7523,
      "duration": 0.0999,
      "velocity": 104,
      "chip": "ym2612"
    },
    {
      "channel": 4,
      "note": 56,
      "start": 90.7548,
      "duration": 0.2003,
      "velocity": 84,
      "chip": "ym2612"
    },
    {
      "channel": 5,
      "note": 45,
      "start": 90.7561,
      "duration": 0.2002,
      "velocity": 65,
      "chip": "ym2612"
    },
    {
      "channel": 2,
      "note": 49,
      "start": 90.8031,
      "duration": 0.2999,
      "velocity": 90,
      "chip": "ym2612"
    },
    {
      "channel": 1,
      "note": 66,
      "start": 90.8523,
      "duration": 0.0999,
      "velocity": 104,
      "chip": "ym2612"
    },
    {
      "channel": 1,
      "note": 66,
      "start": 90.9523,
      "duration": 0.0999,
      "velocity": 104,
      "chip": "ym2612"
    },
    {
      "channel": 3,
      "note": 83,
      "start": 90.9539,
      "duration": 0.3,
      "velocity": 91,
      "chip": "ym2612"
    },
    {
      "channel": 4,
      "note": 45,
      "start": 90.9552,
      "duration": 0.1997,
      "velocity": 86,
      "chip": "ym2612"
    },
    {
      "channel": 5,
      "note": 57,
      "start": 90.9564,
      "duration": 0.1998,
      "velocity": 69,
      "chip": "ym2612"
    },
    {
      "channel": 1,
      "note": 66,
      "start": 91.0523,
      "duration": 0.1001,
      "velocity": 104,
      "chip": "ym2612"
    },
    {
      "channel": 2,
      "note": 48,
      "start": 91.1031,
      "duration": 0.2999,
      "velocity": 90,
      "chip": "ym2612"
    },
    {
      "channel": 1,
      "note": 66,
      "start": 91.1525,
      "duration": 0.0998,
      "velocity": 104,
      "chip": "ym2612"
    },
    {
      "channel": 4,
      "note": 54,
      "start": 91.1549,
      "duration": 0.1998,
      "velocity": 88,
      "chip": "ym2612"
    },
    {
      "channel": 5,
      "note": 45,
      "start": 91.1562,
      "duration": 0.1998,
      "velocity": 71,
      "chip": "ym2612"
    },
    {
      "channel": 1,
      "note": 66,
      "start": 91.2523,
      "duration": 0.1,
      "velocity": 104,
      "chip": "ym2612"
    },
    {
      "channel": 3,
      "note": 78,
      "start": 91.2539,
      "duration": 0.3001,
      "velocity": 91,
      "chip": "ym2612"
    },
    {
      "channel": 1,
      "note": 66,
      "start": 91.3523,
      "duration": 0.0999,
      "velocity": 104,
      "chip": "ym2612"
    },
    {
      "channel": 4,
      "note": 45,
      "start": 91.3548,
      "duration": 0.2004,
      "velocity": 89,
      "chip": "ym2612"
    },
    {
      "channel": 5,
      "note": 56,
      "start": 91.3561,
      "duration": 0.2003,
      "velocity": 73,
      "chip": "ym2612"
    },
    {
      "channel": 2,
      "note": 52,
      "start": 91.403,
      "duration": 0.2833,
      "velocity": 90,
      "chip": "ym2612"
    },
    {
      "channel": 1,
      "note": 66,
      "start": 91.4523,
      "duration": 0.1001,
      "velocity": 104,
      "chip": "ym2612"
    },
    {
      "channel": 1,
      "note": 66,
      "start": 91.5524,
      "duration": 0.0832,
      "velocity": 104,
      "chip": "ym2612"
    },
    {
      "channel": 3,
      "note": 81,
      "start": 91.5541,
      "duration": 0.2832,
      "velocity": 91,
      "chip": "ym2612"
    },
    {
      "channel": 4,
      "note": 53,
      "start": 91.5553,
      "duration": 0.1828,
      "velocity": 88,
      "chip": "ym2612"
    },
    {
      "channel": 5,
      "note": 45,
      "start": 91.5565,
      "duration": 0.1829,
      "velocity": 74,
      "chip": "ym2612"
    },
    {
      "channel": 1,
      "note": 66,
      "start": 91.6356,
      "duration": 0.1,
      "velocity": 104,
      "chip": "ym2612"
    },
    {
      "channel": 2,
      "note": 51,
      "start": 91.6864,
      "duration": 0.2999,
      "velocity": 90,
      "chip": "ym2612"
    },
    {
      "channel": 1,
      "note": 66,
      "start": 91.7357,
      "duration": 0.0999,
      "velocity": 104,
      "chip": "ym2612"
    },
    {
      "channel": 4,
      "note": 45,
      "start": 91.7382,
      "duration": 0.1999,
      "velocity": 86,
      "chip": "ym2612"
    },
    {
      "channel": 5,
      "note": 54,
      "start": 91.7394,
      "duration": 0.1999,
      "velocity": 76,
      "chip": "ym2612"
    },
    {
      "channel": 1,
      "note": 66,
      "start": 91.8356,
      "duration": 0.1,
      "velocity": 104,
      "chip": "ym2612"
    },
    {
      "channel": 3,
      "note": 83,
      "start": 91.8373,
      "duration": 0.3,
      "velocity": 91,
      "chip": "ym2612"
    },
    {
      "channel": 1,
      "note": 66,
      "start": 91.9357,
      "duration": 0.0999,
      "velocity": 104,
      "chip": "ym2612"
    },
    {
      "channel": 4,
      "note": 54,
      "start": 91.9382,
      "duration": 0.2003,
      "velocity": 83,
      "chip": "ym2612"
    },
    {
      "channel": 5,
      "note": 45,
      "start": 91.9394,
      "duration": 0.2002,
      "velocity": 76,
      "chip": "ym2612"
    },
    {
      "channel": 2,
      "note": 54,
      "start": 91.9864,
      "duration": 0.3001,
      "velocity": 90,
      "chip": "ym2612"
    },
    {
      "channel": 1,
      "note": 66,
      "start": 92.0357,
      "duration": 0.0999,
      "velocity": 104,
      "chip": "ym2612"
    },
    {
      "channel": 1,
      "note": 66,
      "start": 92.1356,
      "duration": 0.1,
      "velocity": 104,
      "chip": "ym2612"
    },
    {
      "channel": 3,
      "note": 81,
      "start": 92.1373,
      "duration": 0.3,
      "velocity": 91,
      "chip": "ym2612"
    },
    {
      "channel": 4,
      "note": 45,
      "start": 92.1385,
      "duration": 0.1995,
      "velocity": 80,
      "chip": "ym2612"
    },
    {
      "channel": 5,
      "note": 53,
      "start": 92.1398,
      "duration": 0.1996,
      "velocity": 76,
      "chip": "ym2612"
    },
    {
      "channel": 1,
      "note": 66,
      "start": 92.2357,
      "duration": 0.0999,
      "velocity": 104,
      "chip": "ym2612"
    },
    {
      "channel": 2,
      "note": 52,
      "start": 92.2865,
      "duration": 0.2999,
      "velocity": 90,
      "chip": "ym2612"
    },
    {
      "channel": 1,
      "note": 66,
      "start": 92.3357,
      "duration": 0.0999,
      "velocity": 104,
      "chip": "ym2612"
    },
    {
      "channel": 4,
      "note": 53,
      "start": 92.3382,
      "duration": 0.1999,
      "velocity": 76,
      "chip": "ym2612"
    },
    {
      "channel": 5,
      "note": 45,
      "start": 92.3394,
      "duration": 0.1999,
      "velocity": 74,
      "chip": "ym2612"
    },
    {
      "channel": 1,
      "note": 66,
      "start": 92.4356,
      "duration": 0.1,
      "velocity": 104,
      "chip": "ym2612"
    },
    {
      "channel": 3,
      "note": 76,
      "start": 92.4373,
      "duration": 0.3001,
      "velocity": 91,
      "chip": "ym2612"
    },
    {
      "channel": 1,
      "note": 66,
      "start": 92.5357,
      "duration": 0.0999,
      "velocity": 104,
      "chip": "ym2612"
    },
    {
      "channel": 4,
      "note": 45,
      "start": 92.5382,
      "duration": 0.2004,
      "velocity": 72,
      "chip": "ym2612"
    },
    {
      "channel": 5,
      "note": 54,
      "start": 92.5394,
      "duration": 0.2004,
      "velocity": 72,
      "chip": "ym2612"
    },
    {
      "channel": 2,
      "note": 46,
      "start": 92.5864,
      "duration": 0.2996,
      "velocity": 90,
      "chip": "ym2612"
    },
    {
      "channel": 1,
      "note": 66,
      "start": 92.6357,
      "duration": 0.1001,
      "velocity": 104,
      "chip": "ym2612"
    },
    {
      "channel": 1,
      "note": 66,
      "start": 92.7358,
      "duration": 0.0995,
      "velocity": 104,
      "chip": "ym2612"
    },
    {
      "channel": 3,
      "note": 81,
      "start": 92.7375,
      "duration": 0.2999,
      "velocity": 91,
      "chip": "ym2612"
    },
    {
      "channel": 4,
      "note": 54,
      "start": 92.7387,
      "duration": 0.1991,
      "velocity": 68,
      "chip": "ym2612"
    },
    {
      "channel": 5,
      "note": 45,
      "start": 92.7399,
      "duration": 0.1991,
      "velocity": 70,
      "chip": "ym2612"
    },
    {
      "channel": 1,
      "note": 66,
      "start": 92.8354,
      "duration": 0.0999,
      "velocity": 104,
      "chip": "ym2612"
    },
    {
      "channel": 2,
      "note": 42,
      "start": 92.8861,
      "duration": 0.2999,
      "velocity": 90,
      "chip": "ym2612"
    },
    {
      "channel": 1,
      "note": 66,
      "start": 92.9354,
      "duration": 0.1004,
      "velocity": 104,
      "chip": "ym2612"
    },
    {
      "channel": 4,
      "note": 45,
      "start": 92.9378,
      "duration": 0.1999,
      "velocity": 64,
      "chip": "ym2612"
    },
    {
      "channel": 5,
      "note": 53,
      "start": 92.939,
      "duration": 0.2,
      "velocity": 68,
      "chip": "ym2612"
    },
    {
      "channel": 0,
      "note": 72,
      "start": 93.0349,
      "duration": 0.3,
      "velocity": 99,
      "chip": "ym2612"
    },
    {
      "channel": 1,
      "note": 66,
      "start": 93.0357,
      "duration": 0.0995,
      "velocity": 104,
      "chip": "ym2612"
    },
    {
      "channel": 3,
      "note": 83,
      "start": 93.0374,
      "duration": 0.2999,
      "velocity": 91,
      "chip": "ym2612"
    },
    {
      "channel": 1,
      "note": 66,
      "start": 93.1354,
      "duration": 0.0999,
      "velocity": 104,
      "chip": "ym2612"
    },
    {
      "channel": 4,
      "note": 56,
      "start": 93.1378,
      "duration": 0.2007,
      "velocity": 61,
      "chip": "ym2612"
    },
    {
      "channel": 5,
      "note": 45,
      "start": 93.139,
      "duration": 0.2008,
      "velocity": 65,
      "chip": "ym2612"
    },
    {
      "channel": 2,
      "note": 49,
      "start": 93.1861,
      "duration": 0.2999,
      "velocity": 90,
      "chip": "ym2612"
    },
    {
      "channel": 1,
      "note": 66,
      "start": 93.2354,
      "duration": 0.1004,
      "velocity": 104,
      "chip": "ym2612"
    },
    {
      "channel": 0,
      "note": 72,
      "start": 93.3349,
      "duration": 0.2992,
      "velocity": 99,
      "chip": "ym2612"
    },
    {
      "channel": 1,
      "note": 66,
      "start": 93.3358,
      "duration": 0.0995,
      "velocity": 104,
      "chip": "ym2612"
    },
    {
      "channel": 3,
      "note": 88,
      "start": 93.3374,
      "duration": 0.2998,
      "velocity": 91,
      "chip": "ym2612"
    },
    {
      "channel": 4,
      "note": 45,
      "start": 93.3387,
      "duration": 0.1991,
      "velocity": 58,
      "chip": "ym2612"
    },
    {
      "channel": 5,
      "note": 54,
      "start": 93.3399,
      "duration": 0.1992,
      "velocity": 61,
      "chip": "ym2612"
    },
    {
      "channel": 1,
      "note": 66,
      "start": 93.4354,
      "duration": 0.0999,
      "velocity": 104,
      "chip": "ym2612"
    },
    {
      "channel": 2,
      "note": 48,
      "start": 93.4861,
      "duration": 0.2832,
      "velocity": 90,
      "chip": "ym2612"
    },
    {
      "channel": 1,
      "note": 66,
      "start": 93.5354,
      "duration": 0.1002,
      "velocity": 104,
      "chip": "ym2612"
    },
    {
      "channel": 4,
      "note": 57,
      "start": 93.5378,
      "duration": 0.1833,
      "velocity": 57,
      "chip": "ym2612"
    },
    {
      "channel": 5,
      "note": 45,
      "start": 93.539,
      "duration": 0.1833,
      "velocity": 59,
      "chip": "ym2612"
    },
    {
      "channel": 1,
      "note": 66,
      "start": 93.6357,
      "duration": 0.0829,
      "velocity": 104,
      "chip": "ym2612"
    },
    {
      "channel": 3,
      "note": 81,
      "start": 93.6373,
      "duration": 0.283,
      "velocity": 91,
      "chip": "ym2612"
    },
    {
      "channel": 1,
      "note": 66,
      "start": 93.7187,
      "duration": 0.0999,
      "velocity": 104,
      "chip": "ym2612"
    },
    {
      "channel": 4,
      "note": 45,
      "start": 93.7212,
      "duration": 0.2004,
      "velocity": 56,
      "chip": "ym2612"
    },
    {
      "channel": 5,
      "note": 56,
      "start": 93.7224,
      "duration": 0.2004,
      "velocity": 57,
      "chip": "ym2612"
    },
    {
      "channel": 2,
      "note": 52,
      "start": 93.7694,
      "duration": 0.2999,
      "velocity": 90,
      "chip": "ym2612"
    },
    {
      "channel": 1,
      "note": 66,
      "start": 93.8186,
      "duration": 0.1001,
      "velocity": 104,
      "chip": "ym2612"
    },
    {
      "channel": 1,
      "note": 66,
      "start": 93.9188,
      "duration": 0.0998,
      "velocity": 104,
      "chip": "ym2612"
    },
    {
      "channel": 3,
      "note": 83,
      "start": 93.9203,
      "duration": 0.2999,
      "velocity": 91,
      "chip": "ym2612"
    },
    {
      "channel": 4,
      "note": 56,
      "start": 93.9216,
      "duration": 0.1995,
      "velocity": 57,
      "chip": "ym2612"
    },
    {
      "channel": 5,
      "note": 45,
      "start": 93.9228,
      "duration": 0.1995,
      "velocity": 55,
      "chip": "ym2612"
    },
    {
      "channel": 1,
      "note": 66,
      "start": 94.0186,
      "duration": 0.1,
      "velocity": 104,
      "chip": "ym2612"
    },
    {
      "channel": 2,
      "note": 51,
      "start": 94.0694,
      "duration": 0.2999,
      "velocity": 90,
      "chip": "ym2612"
    },
    {
      "channel": 1,
      "note": 66,
      "start": 94.1187,
      "duration": 0.0999,
      "velocity": 104,
      "chip": "ym2612"
    },
    {
      "channel": 4,
      "note": 45,
      "start": 94.1212,
      "duration": 0.1999,
      "velocity": 59,
      "chip": "ym2612"
    },
    {
      "channel": 5,
      "note": 57,
      "start": 94.1224,
      "duration": 0.1999,
      "velocity": 53,
      "chip": "ym2612"
    },
    {
      "channel": 1,
      "note": 66,
      "start": 94.2186,
      "duration": 0.1,
      "velocity": 104,
      "chip": "ym2612"
    },
    {
      "channel": 3,
      "note": 76,
      "start": 94.2203,
      "duration": 0.3,
      "velocity": 91,
      "chip": "ym2612"
    },
    {
      "channel": 1,
      "note": 66,
      "start": 94.3187,
      "duration": 0.0999,
      "velocity": 104,
      "chip": "ym2612"
    },
    {
      "channel": 4,
      "note": 54,
      "start": 94.3212,
      "duration": 0.2002,
      "velocity": 61,
      "chip": "ym2612"
    },
    {
      "channel": 5,
      "note": 45,
      "start": 94.3224,
      "duration": 0.2002,
      "velocity": 53,
      "chip": "ym2612"
    },
    {
      "channel": 2,
      "note": 54,
      "start": 94.3694,
      "duration": 0.2999,
      "velocity": 90,
      "chip": "ym2612"
    },
    {
      "channel": 1,
      "note": 66,
      "start": 94.4186,
      "duration": 0.1,
      "velocity": 104,
      "chip": "ym2612"
    },
    {
      "channel": 1,
      "note": 66,
      "start": 94.5186,
      "duration": 0.1,
      "velocity": 104,
      "chip": "ym2612"
    },
    {
      "channel": 3,
      "note": 78,
      "start": 94.5202,
      "duration": 0.3,
      "velocity": 91,
      "chip": "ym2612"
    },
    {
      "channel": 4,
      "note": 45,
      "start": 94.5215,
      "duration": 0.1996,
      "velocity": 65,
      "chip": "ym2612"
    },
    {
      "channel": 5,
      "note": 56,
      "start": 94.5227,
      "duration": 0.1996,
      "velocity": 54,
      "chip": "ym2612"
    },
    {
      "channel": 1,
      "note": 66,
      "start": 94.6186,
      "duration": 0.1,
      "velocity": 104,
      "chip": "ym2612"
    },
    {
      "channel": 2,
      "note": 52,
      "start": 94.6694,
      "duration": 0.3,
      "velocity": 90,
      "chip": "ym2612"
    },
    {
      "channel": 1,
      "note": 66,
      "start": 94.7187,
      "duration": 0.0999,
      "velocity": 104,
      "chip": "ym2612"
    },
    {
      "channel": 4,
      "note": 53,
      "start": 94.7211,
      "duration": 0.2,
      "velocity": 69,
      "chip": "ym2612"
    },
    {
      "channel": 5,
      "note": 45,
      "start": 94.7224,
      "duration": 0.2,
      "velocity": 55,
      "chip": "ym2612"
    },
    {
      "channel": 1,
      "note": 66,
      "start": 94.8186,
      "duration": 0.1,
      "velocity": 104,
      "chip": "ym2612"
    },
    {
      "channel": 3,
      "note": 71,
      "start": 94.8203,
      "duration": 0.3006,
      "velocity": 91,
      "chip": "ym2612"
    },
    {
      "channel": 1,
      "note": 66,
      "start": 94.9187,
      "duration": 0.0999,
      "velocity": 104,
      "chip": "ym2612"
    },
    {
      "channel": 4,
      "note": 45,
      "start": 94.9212,
      "duration": 0.201,
      "velocity": 73,
      "chip": "ym2612"
    },
    {
      "channel": 5,
      "note": 54,
      "start": 94.9224,
      "duration": 0.201,
      "velocity": 57,
      "chip": "ym2612"
    },
    {
      "channel": 2,
      "note": 46,
      "start": 94.9694,
      "duration": 0.3001,
      "velocity": 90,
      "chip": "ym2612"
    },
    {
      "channel": 1,
      "note": 66,
      "start": 95.0186,
      "duration": 0.1007,
      "velocity": 104,
      "chip": "ym2612"
    },
    {
      "channel": 1,
      "note": 66,
      "start": 95.1193,
      "duration": 0.0993,
      "velocity": 104,
      "chip": "ym2612"
    },
    {
      "channel": 3,
      "note": 69,
      "start": 95.121,
      "duration": 0.2993,
      "velocity": 91,
      "chip": "ym2612"
    },
    {
      "channel": 4,
      "note": 56,
      "start": 95.1222,
      "duration": 0.1989,
      "velocity": 78,
      "chip": "ym2612"
    },
    {
      "channel": 5,
      "note": 45,
      "start": 95.1235,
      "duration": 0.1988,
      "velocity": 59,
      "chip": "ym2612"
    },
    {
      "channel": 1,
      "note": 66,
      "start": 95.2186,
      "duration": 0.1,
      "velocity": 104,
      "chip": "ym2612"
    },
    {
      "channel": 2,
      "note": 42,
      "start": 95.2695,
      "duration": 0.2999,
      "velocity": 90,
      "chip": "ym2612"
    },
    {
      "channel": 1,
      "note": 66,
      "start": 95.3187,
      "duration": 0.0999,
      "velocity": 104,
      "chip": "ym2612"
    },
    {
      "channel": 4,
      "note": 47,
      "start": 95.3211,
      "duration": 0.2,
      "velocity": 81,
      "chip": "ym2612"
    },
    {
      "channel": 5,
      "note": 53,
      "start": 95.3224,
      "duration": 0.1999,
      "velocity": 63,
      "chip": "ym2612"
    },
    {
      "channel": 1,
      "note": 66,
      "start": 95.4186,
      "duration": 0.1,
      "velocity": 104,
      "chip": "ym2612"
    },
    {
      "channel": 3,
      "note": 71,
      "start": 95.4203,
      "duration": 0.3001,
      "velocity": 91,
      "chip": "ym2612"
    },
    {
      "channel": 1,
      "note": 66,
      "start": 95.5187,
      "duration": 0.0999,
      "velocity": 104,
      "chip": "ym2612"
    },
    {
      "channel": 4,
      "note": 55,
      "start": 95.5212,
      "duration": 0.2004,
      "velocity": 84,
      "chip": "ym2612"
    },
    {
      "channel": 5,
      "note": 45,
      "start": 95.5224,
      "duration": 0.2005,
      "velocity": 65,
      "chip": "ym2612"
    },
    {
      "channel": 2,
      "note": 49,
      "start": 95.5695,
      "duration": 0.2832,
      "velocity": 90,
      "chip": "ym2612"
    },
    {
      "channel": 1,
      "note": 66,
      "start": 95.6186,
      "duration": 0.1001,
      "velocity": 104,
      "chip": "ym2612"
    },
    {
      "channel": 1,
      "note": 66,
      "start": 95.7188,
      "duration": 0.0999,
      "velocity": 104,
      "chip": "ym2612"
    },
    {
      "channel": 3,
      "note": 76,
      "start": 95.7204,
      "duration": 0.2832,
      "velocity": 91,
      "chip": "ym2612"
    },
    {
      "channel": 4,
      "note": 47,
      "start": 95.7216,
      "duration": 0.1828,
      "velocity": 86,
      "chip": "ym2612"
    },
    {
      "channel": 5,
      "note": 56,
      "start": 95.7229,
      "duration": 0.1828,
      "velocity": 69,
      "chip": "ym2612"
    },
    {
      "channel": 1,
      "note": 66,
      "start": 95.8186,
      "duration": 0.0833,
      "velocity": 104,
      "chip": "ym2612"
    },
    {
      "channel": 2,
      "note": 48,
      "start": 95.8527,
      "duration": 0.2999,
      "velocity": 90,
      "chip": "ym2612"
    },
    {
      "channel": 1,
      "note": 66,
      "start": 95.902,
      "duration": 0.0999,
      "velocity": 104,
      "chip": "ym2612"
    },
    {
      "channel": 4,
      "note": 56,
      "start": 95.9045,
      "duration": 0.1999,
      "velocity": 88,
      "chip": "ym2612"
    },
    {
      "channel": 5,
      "note": 47,
      "start": 95.9057,
      "duration": 0.1999,
      "velocity": 71,
      "chip": "ym2612"
    },
    {
      "channel": 1,
      "note": 66,
      "start": 96.002,
      "duration": 0.1,
      "velocity": 104,
      "chip": "ym2612"
    },
    {
      "channel": 3,
      "note": 69,
      "start": 96.0036,
      "duration": 0.3,
      "velocity": 91,
      "chip": "ym2612"
    },
    {
      "channel": 1,
      "note": 66,
      "start": 96.102,
      "duration": 0.0999,
      "velocity": 104,
      "chip": "ym2612"
    },
    {
      "channel": 4,
      "note": 47,
      "start": 96.1045,
      "duration": 0.2004,
      "velocity": 89,
      "chip": "ym2612"
    },
    {
      "channel": 5,
      "note": 55,
      "start": 96.1057,
      "duration": 0.2004,
      "velocity": 73,
      "chip": "ym2612"
    },
    {
      "channel": 2,
      "note": 52,
      "start": 96.1527,
      "duration": 0.2999,
      "velocity": 90,
      "chip": "ym2612"
    },
    {
      "channel": 1,
      "note": 66,
      "start": 96.202,
      "duration": 0.1001,
      "velocity": 104,
      "chip": "ym2612"
    },
    {
      "channel": 1,
      "note": 66,
      "start": 96.3021,
      "duration": 0.0998,
      "velocity": 104,
      "chip": "ym2612"
    },
    {
      "channel": 3,
      "note": 71,
      "start": 96.3037,
      "duration": 0.2999,
      "velocity": 91,
      "chip": "ym2612"
    },
    {
      "channel": 4,
      "note": 58,
      "start": 96.3049,
      "duration": 0.1995,
      "velocity": 88,
      "chip": "ym2612"
    },
    {
      "channel": 5,
      "note": 47,
      "start": 96.3062,
      "duration": 0.1995,
      "velocity": 74,
      "chip": "ym2612"
    },
    {
      "channel": 1,
      "note": 66,
      "start": 96.402,
      "duration": 0.1,
      "velocity": 104,
      "chip": "ym2612"
    },
    {
      "channel": 2,
      "note": 51,
      "start": 96.4527,
      "duration": 0.3,
      "velocity": 90,
      "chip": "ym2612"
    },
    {
      "channel": 1,
      "note": 66,
      "start": 96.502,
      "duration": 0.0999,
      "velocity": 104,
      "chip": "ym2612"
    },
    {
      "channel": 4,
      "note": 47,
      "start": 96.5045,
      "duration": 0.1999,
      "velocity": 86,
      "chip": "ym2612"
    },
    {
      "channel": 5,
      "note": 56,
      "start": 96.5057,
      "duration": 0.2,
      "velocity": 76,
      "chip": "ym2612"
    },
    {
      "channel": 1,
      "note": 66,
      "start": 96.602,
      "duration": 0.1,
      "velocity": 104,
      "chip": "ym2612"
    },
    {
      "channel": 3,
      "note": 78,
      "start": 96.6036,
      "duration": 0.299,
      "velocity": 91,
      "chip": "ym2612"
    },
    {
      "channel": 1,
      "note": 66,
      "start": 96.702,
      "duration": 0.0999,
      "velocity": 104,
      "chip": "ym2612"
    },
    {
      "channel": 4,
      "note": 59,
      "start": 96.7045,
      "duration": 0.1999,
      "velocity": 83,
      "chip": "ym2612"
    },
    {
      "channel": 5,
      "note": 47,
      "start": 96.7058,
      "duration": 0.1999,
      "velocity": 76,
      "chip": "ym2612"
    },
    {
      "channel": 2,
      "note": 54,
      "start": 96.7527,
      "duration": 0.2998,
      "velocity": 90,
      "chip": "ym2612"
    },
    {
      "channel": 1,
      "note": 66,
      "start": 96.802,
      "duration": 0.1,
      "velocity": 104,
      "chip": "ym2612"
    },
    {
      "channel": 1,
      "note": 66,
      "start": 96.902,
      "duration": 0.0999,
      "velocity": 104,
      "chip": "ym2612"
    },
    {
      "channel": 4,
      "note": 47,
      "start": 96.9045,
      "duration": 0.1996,
      "velocity": 80,
      "chip": "ym2612"
    },
    {
      "channel": 5,
      "note": 58,
      "start": 96.9058,
      "duration": 0.1995,
      "velocity": 76,
      "chip": "ym2612"
    },
    {
      "channel": 1,
      "note": 66,
      "start": 97.0019,
      "duration": 0.0999,
      "velocity": 104,
      "chip": "ym2612"
    },
    {
      "channel": 2,
      "note": 52,
      "start": 97.0526,
      "duration": 0.3,
      "velocity": 90,
      "chip": "ym2612"
    },
    {
      "channel": 1,
      "note": 66,
      "start": 97.1019,
      "duration": 0.1,
      "velocity": 104,
      "chip": "ym2612"
    },
    {
      "channel": 4,
      "note": 58,
      "start": 97.1042,
      "duration": 0.2002,
      "velocity": 76,
      "chip": "ym2612"
    },
    {
      "channel": 5,
      "note": 47,
      "start": 97.1054,
      "duration": 0.2003,
      "velocity": 74,
      "chip": "ym2612"
    },
    {
      "channel": 1,
      "note": 66,
      "start": 97.202,
      "duration": 0.1,
      "velocity": 104,
      "chip": "ym2612"
    },
    {
      "channel": 3,
      "note": 71,
      "start": 97.2036,
      "duration": 0.3005,
      "velocity": 91,
      "chip": "ym2612"
    },
    {
      "channel": 1,
      "note": 66,
      "start": 97.302,
      "duration": 0.0999,
      "velocity": 104,
      "chip": "ym2612"
    },
    {
      "channel": 4,
      "note": 47,
      "start": 97.3045,
      "duration": 0.2007,
      "velocity": 72,
      "chip": "ym2612"
    },
    {
      "channel": 5,
      "note": 59,
      "start": 97.3058,
      "duration": 0.2007,
      "velocity": 72,
      "chip": "ym2612"
    },
    {
      "channel": 2,
      "note": 46,
      "start": 97.3527,
      "duration": 0.2999,
      "velocity": 90,
      "chip": "ym2612"
    },
    {
      "channel": 1,
      "note": 66,
      "start": 97.402,
      "duration": 0.1005,
      "velocity": 104,
      "chip": "ym2612"
    },
    {
      "channel": 1,
      "note": 66,
      "start": 97.5025,
      "duration": 0.0995,
      "velocity": 104,
      "chip": "ym2612"
    },
    {
      "channel": 3,
      "note": 69,
      "start": 97.5041,
      "duration": 0.2995,
      "velocity": 91,
      "chip": "ym2612"
    },
    {
      "channel": 4,
      "note": 56,
      "start": 97.5053,
      "duration": 0.1991,
      "velocity": 68,
      "chip": "ym2612"
    },
    {
      "channel": 5,
      "note": 47,
      "start": 97.5065,
      "duration": 0.1991,
      "velocity": 70,
      "chip": "ym2612"
    },
    {
      "channel": 1,
      "note": 66,
      "start": 97.602,
      "duration": 0.1,
      "velocity": 104,
      "chip": "ym2612"
    },
    {
      "channel": 2,
      "note": 42,
      "start": 97.6527,
      "duration": 0.2999,
      "velocity": 90,
      "chip": "ym2612"
    },
    {
      "channel": 1,
      "note": 66,
      "start": 97.702,
      "duration": 0.0999,
      "velocity": 104,
      "chip": "ym2612"
    },
    {
      "channel": 4,
      "note": 47,
      "start": 97.7044,
      "duration": 0.2,
      "velocity": 64,
      "chip": "ym2612"
    },
    {
      "channel": 5,
      "note": 58,
      "start": 97.7057,
      "duration": 0.1999,
      "velocity": 68,
      "chip": "ym2612"
    },
    {
      "channel": 1,
      "note": 66,
      "start": 97.802,
      "duration": 0.1,
      "velocity": 104,
      "chip": "ym2612"
    },
    {
      "channel": 3,
      "note": 71,
      "start": 97.8036,
      "duration": 0.2833,
      "velocity": 91,
      "chip": "ym2612"
    },
    {
      "channel": 1,
      "note": 66,
      "start": 97.902,
      "duration": 0.0833,
      "velocity": 104,
      "chip": "ym2612"
    },
    {
      "channel": 4,
      "note": 55,
      "start": 97.9045,
      "duration": 0.1837,
      "velocity": 61,
      "chip": "ym2612"
    },
    {
      "channel": 5,
      "note": 47,
      "start": 97.9057,
      "duration": 0.1837,
      "velocity": 65,
      "chip": "ym2612"
    },
    {
      "channel": 2,
      "note": 49,
      "start": 97.9527,
      "duration": 0.2833,
      "velocity": 90,
      "chip": "ym2612"
    },
    {
      "channel": 1,
      "note": 66,
      "start": 97.9853,
      "duration": 0.1,
      "velocity": 104,
      "chip": "ym2612"
    },
    {
      "channel": 1,
      "note": 66,
      "start": 98.0853,
      "duration": 0.1,
      "velocity": 104,
      "chip": "ym2612"
    },
    {
      "channel": 3,
      "note": 76,
      "start": 98.0869,
      "duration": 0.3,
      "velocity": 91,
      "chip": "ym2612"
    },
    {
      "channel": 4,
      "note": 47,
      "start": 98.0882,
      "duration": 0.1995,
      "velocity": 58,
      "chip": "ym2612"
    },
    {
      "channel": 5,
      "note": 56,
      "start": 98.0894,
      "duration": 0.1995,
      "velocity": 61,
      "chip": "ym2612"
    },
    {
      "channel": 1,
      "note": 66,
      "start": 98.1853,
      "duration": 0.1,
      "velocity": 104,
      "chip": "ym2612"
    },
    {
      "channel": 2,
      "note": 48,
      "start": 98.2361,
      "duration": 0.2999,
      "velocity": 90,
      "chip": "ym2612"
    },
    {
      "channel": 1,
      "note": 66,
      "start": 98.2854,
      "duration": 0.0999,
      "velocity": 104,
      "chip": "ym2612"
    },
    {
      "channel": 4,
      "note": 56,
      "start": 98.2878,
      "duration": 0.2,
      "velocity": 57,
      "chip": "ym2612"
    },
    {
      "channel": 5,
      "note": 47,
      "start": 98.289,
      "duration": 0.1999,
      "velocity": 59,
      "chip": "ym2612"
    },
    {
      "channel": 1,
      "note": 66,
      "start": 98.3853,
      "duration": 0.1,
      "velocity": 104,
      "chip": "ym2612"
    },
    {
      "channel": 3,
      "note": 69,
      "start": 98.3869,
      "duration": 0.3,
      "velocity": 91,
      "chip": "ym2612"
    },
    {
      "channel": 1,
      "note": 66,
      "start": 98.4854,
      "duration": 0.0999,
      "velocity": 104,
      "chip": "ym2612"
    },
    {
      "channel": 4,
      "note": 47,
      "start": 98.4878,
      "duration": 0.2004,
      "velocity": 56,
      "chip": "ym2612"
    },
    {
      "channel": 5,
      "note": 55,
      "start": 98.489,
      "duration": 0.2004,
      "velocity": 57,
      "chip": "ym2612"
    },
    {
      "channel": 2,
      "note": 52,
      "start": 98.5361,
      "duration": 0.2999,
      "velocity": 90,
      "chip": "ym2612"
    },
    {
      "channel": 1,
      "note": 66,
      "start": 98.5853,
      "duration": 0.1001,
      "velocity": 104,
      "chip": "ym2612"
    },
    {
      "channel": 1,
      "note": 66,
      "start": 98.6854,
      "duration": 0.0998,
      "velocity": 104,
      "chip": "ym2612"
    },
    {
      "channel": 3,
      "note": 71,
      "start": 98.687,
      "duration": 0.2999,
      "velocity": 91,
      "chip": "ym2612"
    },
    {
      "channel": 4,
      "note": 55,
      "start": 98.6883,
      "duration": 0.1995,
      "velocity": 57,
      "chip": "ym2612"
    },
    {
      "channel": 5,
      "note": 47,
      "start": 98.6895,
      "duration": 0.1995,
      "velocity": 55,
      "chip": "ym2612"
    },
    {
      "channel": 1,
      "note": 66,
      "start": 98.7853,
      "duration": 0.1,
      "velocity": 104,
      "chip": "ym2612"
    },
    {
      "channel": 2,
      "note": 51,
      "start": 98.8361,
      "duration": 0.2999,
      "velocity": 90,
      "chip": "ym2612"
    },
    {
      "channel": 1,
      "note": 66,
      "start": 98.8854,
      "duration": 0.0999,
      "velocity": 104,
      "chip": "ym2612"
    },
    {
      "channel": 4,
      "note": 47,
      "start": 98.8878,
      "duration": 0.1999,
      "velocity": 59,
      "chip": "ym2612"
    },
    {
      "channel": 5,
      "note": 56,
      "start": 98.889,
      "duration": 0.1999,
      "velocity": 53,
      "chip": "ym2612"
    },
    {
      "channel": 1,
      "note": 66,
      "start": 98.9853,
      "duration": 0.1,
      "velocity": 104,
      "chip": "ym2612"
    },
    {
      "channel": 3,
      "note": 78,
      "start": 98.9869,
      "duration": 0.3,
      "velocity": 91,
      "chip": "ym2612"
    },
    {
      "channel": 1,
      "note": 66,
      "start": 99.0854,
      "duration": 0.0999,
      "velocity": 104,
      "chip": "ym2612"
    },
    {
      "channel": 4,
      "note": 56,
      "start": 99.0878,
      "duration": 0.2002,
      "velocity": 61,
      "chip": "ym2612"
    },
    {
      "channel": 5,
      "note": 47,
      "start": 99.089,
      "duration": 0.2002,
      "velocity": 53,
      "chip": "ym2612"
    },
    {
      "channel": 2,
      "note": 54,
      "start": 99.1361,
      "duration": 0.2999,
      "velocity": 90,
      "chip": "ym2612"
    },
    {
      "channel": 1,
      "note": 66,
      "start": 99.1853,
      "duration": 0.1,
      "velocity": 104,
      "chip": "ym2612"
    },
    {
      "channel": 1,
      "note": 66,
      "start": 99.2853,
      "duration": 0.1,
      "velocity": 104,
      "chip": "ym2612"
    },
    {
      "channel": 3,
      "note": 83,
      "start": 99.2869,
      "duration": 0.3006,
      "velocity": 91,
      "chip": "ym2612"
    },
    {
      "channel": 4,
      "note": 47,
      "start": 99.2882,
      "duration": 0.2003,
      "velocity": 65,
      "chip": "ym2612"
    },
    {
      "channel": 5,
      "note": 55,
      "start": 99.2894,
      "duration": 0.2003,
      "velocity": 54,
      "chip": "ym2612"
    },
    {
      "channel": 1,
      "note": 66,
      "start": 99.3853,
      "duration": 0.1007,
      "velocity": 104,
      "chip": "ym2612"
    },
    {
      "channel": 2,
      "note": 52,
      "start": 99.4361,
      "duration": 0.3,
      "velocity": 90,
      "chip": "ym2612"
    },
    {
      "channel": 0,
      "note": 64,
      "start": 99.4852,
      "duration": 0.0999,
      "velocity": 99,
      "chip": "ym2612"
    },
    {
      "channel": 1,
      "note": 66,
      "start": 99.4861,
      "duration": 0.0999,
      "velocity": 104,
      "chip": "ym2612"
    },
    {
      "channel": 4,
      "note": 58,
      "start": 99.4885,
      "duration": 0.2001,
      "velocity": 69,
      "chip": "ym2612"
    },
    {
      "channel": 5,
      "note": 47,
      "start": 99.4898,
      "duration": 0.2001,
      "velocity": 55,
      "chip": "ym2612"
    },
    {
      "channel": 0,
      "note": 68,
      "start": 99.5851,
      "duration": 0.1001,
      "velocity": 99,
      "chip": "ym2612"
    },
    {
      "channel": 1,
      "note": 66,
      "start": 99.586,
      "duration": 0.1001,
      "velocity": 104,
      "chip": "ym2612"
    },
    {
      "channel": 3,
      "note": 78,
      "start": 99.5876,
      "duration": 0.3004,
      "velocity": 91,
      "chip": "ym2612"
    },
    {
      "channel": 0,
      "note": 71,
      "start": 99.6853,
      "duration": 0.0998,
      "velocity": 99,
      "chip": "ym2612"
    },
    {
      "channel": 1,
      "note": 66,
      "start": 99.6862,
      "duration": 0.0998,
      "velocity": 104,
      "chip": "ym2612"
    },
    {
      "channel": 4,
      "note": 47,
      "start": 99.6887,
      "duration": 0.2006,
      "velocity": 73,
      "chip": "ym2612"
    },
    {
      "channel": 5,
      "note": 56,
      "start": 99.6899,
      "duration": 0.2007,
      "velocity": 57,
      "chip": "ym2612"
    },
    {
      "channel": 2,
      "note": 46,
      "start": 99.7361,
      "duration": 0.3005,
      "velocity": 90,
      "chip": "ym2612"
    },
    {
      "channel": 0,
      "note": 74,
      "start": 99.7851,
      "duration": 0.1003,
      "velocity": 99,
      "chip": "ym2612"
    },
    {
      "channel": 1,
      "note": 66,
      "start": 99.786,
      "duration": 0.1005,
      "velocity": 104,
      "chip": "ym2612"
    },
    {
      "channel": 0,
      "note": 75,
      "start": 99.8855,
      "duration": 2.3653,
      "velocity": 99,
      "chip": "ym2612"
    },
    {
      "channel": 1,
      "note": 66,
      "start": 99.8864,
      "duration": 0.0995,
      "velocity": 104,
      "chip": "ym2612"
    },
    {
      "channel": 3,
      "note": 85,
      "start": 99.8881,
      "duration": 0.1496,
      "velocity": 91,
      "chip": "ym2612"
    },
    {
      "channel": 4,
      "note": 59,
      "start": 99.8894,
      "duration": 0.1991,
      "velocity": 78,
      "chip": "ym2612"
    },
    {
      "channel": 5,
      "note": 47,
      "start": 99.8906,
      "duration": 0.1992,
      "velocity": 59,
      "chip": "ym2612"
    },
    {
      "channel": 1,
      "note": 66,
      "start": 99.9861,
      "duration": 0.0999,
      "velocity": 104,
      "chip": "ym2612"
    },
    {
      "channel": 2,
      "note": 42,
      "start": 100.0366,
      "duration": 0.2835,
      "velocity": 90,
      "chip": "ym2612"
    },
    {
      "channel": 3,
      "note": 83,
      "start": 100.0378,
      "duration": 0.1331,
      "velocity": 91,
      "chip": "ym2612"
    },
    {
      "channel": 1,
      "note": 66,
      "start": 100.0861,
      "duration": 0.0833,
      "velocity": 104,
      "chip": "ym2612"
    },
    {
      "channel": 4,
      "note": 47,
      "start": 100.0885,
      "duration": 0.1833,
      "velocity": 81,
      "chip": "ym2612"
    },
    {
      "channel": 5,
      "note": 58,
      "start": 100.0898,
      "duration": 0.1833,
      "velocity": 63,
      "chip": "ym2612"
    },
    {
      "channel": 1,
      "note": 66,
      "start": 100.1694,
      "duration": 0.1,
      "velocity": 104,
      "chip": "ym2612"
    },
    {
      "channel": 3,
      "note": 81,
      "start": 100.171,
      "duration": 0.1502,
      "velocity": 91,
      "chip": "ym2612"
    },
    {
      "channel": 1,
      "note": 66,
      "start": 100.2694,
      "duration": 0.1001,
      "velocity": 104,
      "chip": "ym2612"
    },
    {
      "channel": 4,
      "note": 58,
      "start": 100.2719,
      "duration": 0.1999,
      "velocity": 84,
      "chip": "ym2612"
    },
    {
      "channel": 5,
      "note": 47,
      "start": 100.2732,
      "duration": 0.1999,
      "velocity": 65,
      "chip": "ym2612"
    },
    {
      "channel": 2,
      "note": 49,
      "start": 100.3202,
      "duration": 0.2998,
      "velocity": 90,
      "chip": "ym2612"
    },
    {
      "channel": 3,
      "note": 76,
      "start": 100.3212,
      "duration": 0.2998,
      "velocity": 91,
      "chip": "ym2612"
    },
    {
      "channel": 1,
      "note": 66,
      "start": 100.3695,
      "duration": 0.0998,
      "velocity": 104,
      "chip": "ym2612"
    },
    {
      "channel": 1,
      "note": 66,
      "start": 100.4694,
      "duration": 0.0999,
      "velocity": 104,
      "chip": "ym2612"
    },
    {
      "channel": 4,
      "note": 47,
      "start": 100.4719,
      "duration": 0.1999,
      "velocity": 86,
      "chip": "ym2612"
    },
    {
      "channel": 5,
      "note": 59,
      "start": 100.4732,
      "duration": 0.1999,
      "velocity": 69,
      "chip": "ym2612"
    },
    {
      "channel": 1,
      "note": 66,
      "start": 100.5694,
      "duration": 0.0999,
      "velocity": 104,
      "chip": "ym2612"
    },
    {
      "channel": 2,
      "note": 48,
      "start": 100.62,
      "duration": 0.3001,
      "velocity": 90,
      "chip": "ym2612"
    },
    {
      "channel": 3,
      "note": 78,
      "start": 100.6211,
      "duration": 0.1499,
      "velocity": 91,
      "chip": "ym2612"
    },
    {
      "channel": 1,
      "note": 66,
      "start": 100.6694,
      "duration": 0.0999,
      "velocity": 104,
      "chip": "ym2612"
    },
    {
      "channel": 4,
      "note": 56,
      "start": 100.6719,
      "duration": 0.1999,
      "velocity": 88,
      "chip": "ym2612"
    },
    {
      "channel": 5,
      "note": 47,
      "start": 100.6732,
      "duration": 0.1999,
      "velocity": 71,
      "chip": "ym2612"
    },
    {
      "channel": 1,
      "note": 66,
      "start": 100.7694,
      "duration": 0.0999,
      "velocity": 104,
      "chip": "ym2612"
    },
    {
      "channel": 3,
      "note": 85,
      "start": 100.771,
      "duration": 0.1501,
      "velocity": 91,
      "chip": "ym2612"
    },
    {
      "channel": 1,
      "note": 66,
      "start": 100.8694,
      "duration": 0.0999,
      "velocity": 104,
      "chip": "ym2612"
    },
    {
      "channel": 4,
      "note": 47,
      "start": 100.8719,
      "duration": 0.2004,
      "velocity": 89,
      "chip": "ym2612"
    },
    {
      "channel": 5,
      "note": 58,
      "start": 100.8732,
      "duration": 0.2004,
      "velocity": 73,
      "chip": "ym2612"
    },
    {
      "channel": 2,
      "note": 52,
      "start": 100.9201,
      "duration": 0.2998,
      "velocity": 90,
      "chip": "ym2612"
    },
    {
      "channel": 3,
      "note": 83,
      "start": 100.9212,
      "duration": 0.1498,
      "velocity": 91,
      "chip": "ym2612"
    },
    {
      "channel": 1,
      "note": 66,
      "start": 100.9693,
      "duration": 0.1001,
      "velocity": 104,
      "chip": "ym2612"
    },
    {
      "channel": 1,
      "note": 66,
      "start": 101.0695,
      "duration": 0.1,
      "velocity": 104,
      "chip": "ym2612"
    },
    {
      "channel": 3,
      "note": 81,
      "start": 101.0711,
      "duration": 0.1499,
      "velocity": 91,
      "chip": "ym2612"
    },
    {
      "channel": 4,
      "note": 55,
      "start": 101.0724,
      "duration": 0.1994,
      "velocity": 88,
      "chip": "ym2612"
    },
    {
      "channel": 5,
      "note": 47,
      "start": 101.0736,
      "duration": 0.1995,
      "velocity": 74,
      "chip": "ym2612"
    },
    {
      "channel": 1,
      "note": 66,
      "start": 101.1695,
      "duration": 0.0998,
      "velocity": 104,
      "chip": "ym2612"
    },
    {
      "channel": 2,
      "note": 51,
      "start": 101.22,
      "duration": 0.3001,
      "velocity": 90,
      "chip": "ym2612"
    },
    {
      "channel": 3,
      "note": 76,
      "start": 101.221,
      "duration": 0.3001,
      "velocity": 91,
      "chip": "ym2612"
    },
    {
      "channel": 1,
      "note": 66,
      "start": 101.2694,
      "duration": 0.0999,
      "velocity": 104,
      "chip": "ym2612"
    },
    {
      "channel": 4,
      "note": 47,
      "start": 101.2719,
      "duration": 0.1999,
      "velocity": 86,
      "chip": "ym2612"
    },
    {
      "channel": 5,
      "note": 56,
      "start": 101.2732,
      "duration": 0.1998,
      "velocity": 76,
      "chip": "ym2612"
    },
    {
      "channel": 1,
      "note": 66,
      "start": 101.3694,
      "duration": 0.0999,
      "velocity": 104,
      "chip": "ym2612"
    },
    {
      "channel": 1,
      "note": 66,
      "start": 101.4694,
      "duration": 0.0994,
      "velocity": 104,
      "chip": "ym2612"
    },
    {
      "channel": 4,
      "note": 56,
      "start": 101.4719,
      "duration": 0.1999,
      "velocity": 83,
      "chip": "ym2612"
    },
    {
      "channel": 5,
      "note": 47,
      "start": 101.473,
      "duration": 0.2,
      "velocity": 76,
      "chip": "ym2612"
    },
    {
      "channel": 2,
      "note": 54,
      "start": 101.5202,
      "duration": 0.2998,
      "velocity": 90,
      "chip": "ym2612"
    },
    {
      "channel": 3,
      "note": 78,
      "start": 101.5212,
      "duration": 0.2998,
      "velocity": 91,
      "chip": "ym2612"
    },
    {
      "channel": 1,
      "note": 66,
      "start": 101.5688,
      "duration": 0.1005,
      "velocity": 104,
      "chip": "ym2612"
    },
    {
      "channel": 1,
      "note": 66,
      "start": 101.6694,
      "duration": 0.0999,
      "velocity": 104,
      "chip": "ym2612"
    },
    {
      "channel": 4,
      "note": 47,
      "start": 101.6718,
      "duration": 0.2,
      "velocity": 80,
      "chip": "ym2612"
    },
    {
      "channel": 5,
      "note": 55,
      "start": 101.6731,
      "duration": 0.2,
      "velocity": 76,
      "chip": "ym2612"
    },
    {
      "channel": 1,
      "note": 66,
      "start": 101.7694,
      "duration": 0.0999,
      "velocity": 104,
      "chip": "ym2612"
    },
    {
      "channel": 2,
      "note": 52,
      "start": 101.82,
      "duration": 0.3001,
      "velocity": 90,
      "chip": "ym2612"
    },
    {
      "channel": 3,
      "note": 71,
      "start": 101.821,
      "duration": 0.1501,
      "velocity": 91,
      "chip": "ym2612"
    },
    {
      "channel": 1,
      "note": 66,
      "start": 101.8694,
      "duration": 0.1001,
      "velocity": 104,
      "chip": "ym2612"
    },
    {
      "channel": 4,
      "note": 55,
      "start": 101.8719,
      "duration": 0.1999,
      "velocity": 76,
      "chip": "ym2612"
    },
    {
      "channel": 5,
      "note": 47,
      "start": 101.8732,
      "duration": 0.1999,
      "velocity": 74,
      "chip": "ym2612"
    },
    {
      "channel": 1,
      "note": 66,
      "start": 101.9695,
      "duration": 0.0998,
      "velocity": 104,
      "chip": "ym2612"
    },
    {
      "channel": 3,
      "note": 76,
      "start": 101.9712,
      "duration": 0.2829,
      "velocity": 91,
      "chip": "ym2612"
    },
    {
      "channel": 1,
      "note": 66,
      "start": 102.0694,
      "duration": 0.0999,
      "velocity": 104,
      "chip": "ym2612"
    },
    {
      "channel": 4,
      "note": 47,
      "start": 102.0719,
      "duration": 0.1834,
      "velocity": 72,
      "chip": "ym2612"
    },
    {
      "channel": 5,
      "note": 56,
      "start": 102.0732,
      "duration": 0.1833,
      "velocity": 72,
      "chip": "ym2612"
    },
    {
      "channel": 2,
      "note": 46,
      "start": 102.1202,
      "duration": 0.2826,
      "velocity": 90,
      "chip": "ym2612"
    },
    {
      "channel": 1,
      "note": 66,
      "start": 102.1694,
      "duration": 0.083,
      "velocity": 104,
      "chip": "ym2612"
    },
    {
      "channel": 1,
      "note": 66,
      "start": 102.2525,
      "duration": 0.0995,
      "velocity": 104,
      "chip": "ym2612"
    },
    {
      "channel": 3,
      "note": 69,
      "start": 102.2541,
      "duration": 0.1498,
      "velocity": 91,
      "chip": "ym2612"
    },
    {
      "channel": 4,
      "note": 56,
      "start": 102.2553,
      "duration": 0.1991,
      "velocity": 68,
      "chip": "ym2612"
    },
    {
      "channel": 5,
      "note": 47,
      "start": 102.2565,
      "duration": 0.1991,
      "velocity": 70,
      "chip": "ym2612"
    },
    {
      "channel": 1,
      "note": 66,
      "start": 102.352,
      "duration": 0.1,
      "velocity": 104,
      "chip": "ym2612"
    },
    {
      "channel": 2,
      "note": 42,
      "start": 102.4028,
      "duration": 0.2999,
      "velocity": 90,
      "chip": "ym2612"
    },
    {
      "channel": 3,
      "note": 64,
      "start": 102.4039,
      "duration": 0.1497,
      "velocity": 91,
      "chip": "ym2612"
    },
    {
      "channel": 1,
      "note": 66,
      "start": 102.452,
      "duration": 0.0999,
      "velocity": 104,
      "chip": "ym2612"
    },
    {
      "channel": 4,
      "note": 47,
      "start": 102.4545,
      "duration": 0.1999,
      "velocity": 64,
      "chip": "ym2612"
    },
    {
      "channel": 5,
      "note": 55,
      "start": 102.4557,
      "duration": 0.1999,
      "velocity": 68,
      "chip": "ym2612"
    },
    {
      "channel": 1,
      "note": 66,
      "start": 102.552,
      "duration": 0.1,
      "velocity": 104,
      "chip": "ym2612"
    },
    {
      "channel": 3,
      "note": 66,
      "start": 102.5536,
      "duration": 0.1501,
      "velocity": 91,
      "chip": "ym2612"
    },
    {
      "channel": 1,
      "note": 66,
      "start": 102.652,
      "duration": 0.0999,
      "velocity": 104,
      "chip": "ym2612"
    },
    {
      "channel": 4,
      "note": 58,
      "start": 102.6545,
      "duration": 0.2003,
      "velocity": 61,
      "chip": "ym2612"
    },
    {
      "channel": 5,
      "note": 47,
      "start": 102.6557,
      "duration": 0.2003,
      "velocity": 65,
      "chip": "ym2612"
    },
    {
      "channel": 2,
      "note": 49,
      "start": 102.7027,
      "duration": 0.2999,
      "velocity": 90,
      "chip": "ym2612"
    },
    {
      "channel": 3,
      "note": 71,
      "start": 102.7038,
      "duration": 0.1498,
      "velocity": 91,
      "chip": "ym2612"
    },
    {
      "channel": 1,
      "note": 66,
      "start": 102.752,
      "duration": 0.1,
      "velocity": 104,
      "chip": "ym2612"
    },
    {
      "channel": 1,
      "note": 66,
      "start": 102.852,
      "duration": 0.1,
      "velocity": 104,
      "chip": "ym2612"
    },
    {
      "channel": 3,
      "note": 76,
      "start": 102.8536,
      "duration": 0.1501,
      "velocity": 91,
      "chip": "ym2612"
    },
    {
      "channel": 4,
      "note": 47,
      "start": 102.8549,
      "duration": 0.1995,
      "velocity": 58,
      "chip": "ym2612"
    },
    {
      "channel": 5,
      "note": 56,
      "start": 102.8561,
      "duration": 0.1995,
      "velocity": 61,
      "chip": "ym2612"
    },
    {
      "channel": 1,
      "note": 66,
      "start": 102.952,
      "duration": 0.1,
      "velocity": 104,
      "chip": "ym2612"
    },
    {
      "channel": 2,
      "note": 48,
      "start": 103.0027,
      "duration": 0.2999,
      "velocity": 90,
      "chip": "ym2612"
    },
    {
      "channel": 3,
      "note": 78,
      "start": 103.0038,
      "duration": 0.2999,
      "velocity": 91,
      "chip": "ym2612"
    },
    {
      "channel": 1,
      "note": 66,
      "start": 103.052,
      "duration": 0.0999,
      "velocity": 104,
      "chip": "ym2612"
    },
    {
      "channel": 4,
      "note": 59,
      "start": 103.0544,
      "duration": 0.2,
      "velocity": 57,
      "chip": "ym2612"
    },
    {
      "channel": 5,
      "note": 47,
      "start": 103.0557,
      "duration": 0.1999,
      "velocity": 59,
      "chip": "ym2612"
    },
    {
      "channel": 1,
      "note": 66,
      "start": 103.152,
      "duration": 0.1,
      "velocity": 104,
      "chip": "ym2612"
    },
    {
      "channel": 1,
      "note": 66,
      "start": 103.252,
      "duration": 0.0999,
      "velocity": 104,
      "chip": "ym2612"
    },
    {
      "channel": 4,
      "note": 47,
      "start": 103.2545,
      "duration": 0.2,
      "velocity": 56,
      "chip": "ym2612"
    },
    {
      "channel": 5,
      "note": 58,
      "start": 103.2557,
      "duration": 0.2001,
      "velocity": 57,
      "chip": "ym2612"
    },
    {
      "channel": 2,
      "note": 52,
      "start": 103.3027,
      "duration": 0.2999,
      "velocity": 90,
      "chip": "ym2612"
    },
    {
      "channel": 3,
      "note": 83,
      "start": 103.3038,
      "duration": 0.2999,
      "velocity": 91,
      "chip": "ym2612"
    },
    {
      "channel": 1,
      "note": 66,
      "start": 103.352,
      "duration": 0.1001,
      "velocity": 104,
      "chip": "ym2612"
    },
    {
      "channel": 1,
      "note": 66,
      "start": 103.4521,
      "duration": 0.0998,
      "velocity": 104,
      "chip": "ym2612"
    },
    {
      "channel": 4,
      "note": 58,
      "start": 103.4546,
      "duration": 0.1999,
      "velocity": 57,
      "chip": "ym2612"
    },
    {
      "channel": 5,
      "note": 47,
      "start": 103.4558,
      "duration": 0.1999,
      "velocity": 55,
      "chip": "ym2612"
    },
    {
      "channel": 1,
      "note": 66,
      "start": 103.552,
      "duration": 0.1,
      "velocity": 104,
      "chip": "ym2612"
    },
    {
      "channel": 2,
      "note": 51,
      "start": 103.6027,
      "duration": 0.2999,
      "velocity": 90,
      "chip": "ym2612"
    },
    {
      "channel": 3,
      "note": 81,
      "start": 103.6038,
      "duration": 0.2999,
      "velocity": 91,
      "chip": "ym2612"
    },
    {
      "channel": 1,
      "note": 66,
      "start": 103.652,
      "duration": 0.0999,
      "velocity": 104,
      "chip": "ym2612"
    },
    {
      "channel": 4,
      "note": 47,
      "start": 103.6545,
      "duration": 0.1999,
      "velocity": 59,
      "chip": "ym2612"
    },
    {
      "channel": 5,
      "note": 59,
      "start": 103.6557,
      "duration": 0.1999,
      "velocity": 53,
      "chip": "ym2612"
    },
    {
      "channel": 1,
      "note": 66,
      "start": 103.752,
      "duration": 0.1,
      "velocity": 104,
      "chip": "ym2612"
    },
    {
      "channel": 1,
      "note": 66,
      "start": 103.852,
      "duration": 0.0999,
      "velocity": 104,
      "chip": "ym2612"
    },
    {
      "channel": 4,
      "note": 56,
      "start": 103.8545,
      "duration": 0.1999,
      "velocity": 61,
      "chip": "ym2612"
    },
    {
      "channel": 5,
      "note": 47,
      "start": 103.8557,
      "duration": 0.1999,
      "velocity": 53,
      "chip": "ym2612"
    },
    {
      "channel": 2,
      "note": 54,
      "start": 103.9027,
      "duration": 0.2999,
      "velocity": 90,
      "chip": "ym2612"
    },
    {
      "channel": 3,
      "note": 88,
      "start": 103.9038,
      "duration": 0.2999,
      "velocity": 91,
      "chip": "ym2612"
    },
    {
      "channel": 1,
      "note": 66,
      "start": 103.952,
      "duration": 0.1,
      "velocity": 104,
      "chip": "ym2612"
    },
    {
      "channel": 1,
      "note": 66,
      "start": 104.052,
      "duration": 0.1,
      "velocity": 104,
      "chip": "ym2612"
    },
    {
      "channel": 4,
      "note": 47,
      "start": 104.0544,
      "duration": 0.2,
      "velocity": 65,
      "chip": "ym2612"
    },
    {
      "channel": 5,
      "note": 58,
      "start": 104.0557,
      "duration": 0.1999,
      "velocity": 54,
      "chip": "ym2612"
    },
    {
      "channel": 1,
      "note": 66,
      "start": 104.152,
      "duration": 0.1,
      "velocity": 104,
      "chip": "ym2612"
    },
    {
      "channel": 2,
      "note": 52,
      "start": 104.2027,
      "duration": 0.2833,
      "velocity": 90,
      "chip": "ym2612"
    },
    {
      "channel": 3,
      "note": 81,
      "start": 104.2038,
      "duration": 0.1498,
      "velocity": 91,
      "chip": "ym2612"
    },
    {
      "channel": 1,
      "note": 66,
      "start": 104.252,
      "duration": 0.0999,
      "velocity": 104,
      "chip": "ym2612"
    },
    {
      "channel": 4,
      "note": 55,
      "start": 104.2544,
      "duration": 0.1833,
      "velocity": 69,
      "chip": "ym2612"
    },
    {
      "channel": 5,
      "note": 47,
      "start": 104.2557,
      "duration": 0.1833,
      "velocity": 55,
      "chip": "ym2612"
    },
    {
      "channel": 1,
      "note": 66,
      "start": 104.352,
      "duration": 0.0833,
      "velocity": 104,
      "chip": "ym2612"
    },
    {
      "channel": 3,
      "note": 83,
      "start": 104.3536,
      "duration": 0.2836,
      "velocity": 91,
      "chip": "ym2612"
    },
    {
      "channel": 1,
      "note": 66,
      "start": 104.4354,
      "duration": 0.0999,
      "velocity": 104,
      "chip": "ym2612"
    },
    {
      "channel": 4,
      "note": 47,
      "start": 104.4378,
      "duration": 0.2006,
      "velocity": 73,
      "chip": "ym2612"
    },
    {
      "channel": 5,
      "note": 56,
      "start": 104.439,
      "duration": 0.2006,
      "velocity": 57,
      "chip": "ym2612"
    },
    {
      "channel": 2,
      "note": 46,
      "start": 104.4861,
      "duration": 0.2999,
      "velocity": 90,
      "chip": "ym2612"
    },
    {
      "channel": 1,
      "note": 66,
      "start": 104.5353,
      "duration": 0.1003,
      "velocity": 104,
      "chip": "ym2612"
    },
    {
      "channel": 1,
      "note": 66,
      "start": 104.6357,
      "duration": 0.0996,
      "velocity": 104,
      "chip": "ym2612"
    },
    {
      "channel": 3,
      "note": 76,
      "start": 104.6373,
      "duration": 0.2996,
      "velocity": 91,
      "chip": "ym2612"
    },
    {
      "channel": 4,
      "note": 54,
      "start": 104.6385,
      "duration": 0.1992,
      "velocity": 78,
      "chip": "ym2612"
    },
    {
      "channel": 5,
      "note": 47,
      "start": 104.6398,
      "duration": 0.1993,
      "velocity": 59,
      "chip": "ym2612"
    },
    {
      "channel": 1,
      "note": 66,
      "start": 104.7353,
      "duration": 0.1,
      "velocity": 104,
      "chip": "ym2612"
    },
    {
      "channel": 2,
      "note": 42,
      "start": 104.7861,
      "duration": 0.2999,
      "velocity": 90,
      "chip": "ym2612"
    },
    {
      "channel": 1,
      "note": 66,
      "start": 104.8354,
      "duration": 0.0999,
      "velocity": 104,
      "chip": "ym2612"
    },
    {
      "channel": 4,
      "note": 45,
      "start": 104.8378,
      "duration": 0.1999,
      "velocity": 81,
      "chip": "ym2612"
    },
    {
      "channel": 5,
      "note": 55,
      "start": 104.8391,
      "duration": 0.1999,
      "velocity": 63,
      "chip": "ym2612"
    },
    {
      "channel": 1,
      "note": 66,
      "start": 104.9353,
      "duration": 0.1,
      "velocity": 104,
      "chip": "ym2612"
    },
    {
      "channel": 3,
      "note": 78,
      "start": 104.9369,
      "duration": 0.2964,
      "velocity": 91,
      "chip": "ym2612"
    },
    {
      "channel": 1,
      "note": 66,
      "start": 105.0354,
      "duration": 0.0999,
      "velocity": 104,
      "chip": "ym2612"
    },
    {
      "channel": 4,
      "note": 53,
      "start": 105.0378,
      "duration": 0.1955,
      "velocity": 83,
      "chip": "ym2612"
    },
    {
      "channel": 5,
      "note": 47,
      "start": 105.039,
      "duration": 0.1943,
      "velocity": 65,
      "chip": "ym2612"
    },
    {
      "channel": 2,
      "note": 49,
      "start": 105.0861,
      "duration": 0.1473,
      "velocity": 90,
      "chip": "ym2612"
    },
    {
      "channel": 1,
      "note": 66,
      "start": 105.1353,
      "duration": 0.098,
      "velocity": 104,
      "chip": "ym2612"
    }
  ]
}