{
  "track_name": "05 - Fisherman from 7 Seas",
  "duration_sec": 51.77,
  "sample_rate": 44100,
  "note_count": 422,
  "unique_pitches": 32,
  "pitch_range": 59,
  "avg_note_duration": 0.1656,
  "reconstruction_stats": {
    "notes_reconstructed": 422,
    "keyon_events": 422,
    "keyoff_events": 421,
    "orphan_keyons": 1,
    "unique_pitches": 32,
    "pitch_range": 59,
    "avg_duration_sec": 0.1656
  },
  "metadata": {
    "source": "V\\Virtua Fighter 2\\05 - Fisherman from 7 Seas.vgz"
  },
  "notes": [
    {
      "channel": 3,
      "note": 58,
      "start": 0.0,
      "duration": 0.0306,
      "velocity": 78,
      "chip": "ym2612"
    },
    {
      "channel": 4,
      "note": 70,
      "start": 0.0023,
      "duration": 0.029,
      "velocity": 78,
      "chip": "ym2612"
    },
    {
      "channel": 3,
      "note": 60,
      "start": 0.0311,
      "duration": 0.0422,
      "velocity": 78,
      "chip": "ym2612"
    },
    {
      "channel": 4,
      "note": 72,
      "start": 0.0318,
      "duration": 0.0419,
      "velocity": 78,
      "chip": "ym2612"
    },
    {
      "channel": 3,
      "note": 51,
      "start": 0.1719,
      "duration": 0.0649,
      "velocity": 78,
      "chip": "ym2612"
    },
    {
      "channel": 4,
      "note": 63,
      "start": 0.1725,
      "duration": 0.0645,
      "velocity": 78,
      "chip": "ym2612"
    },
    {
      "channel": 3,
      "note": 53,
      "start": 0.2931,
      "duration": 0.0609,
      "velocity": 78,
      "chip": "ym2612"
    },
    {
      "channel": 4,
      "note": 65,
      "start": 0.2937,
      "duration": 0.0605,
      "velocity": 78,
      "chip": "ym2612"
    },
    {
      "channel": 3,
      "note": 48,
      "start": 0.4104,
      "duration": 0.3202,
      "velocity": 78,
      "chip": "ym2612"
    },
    {
      "channel": 4,
      "note": 60,
      "start": 0.4111,
      "duration": 0.3202,
      "velocity": 78,
      "chip": "ym2612"
    },
    {
      "channel": 3,
      "note": 50,
      "start": 0.7311,
      "duration": 0.2487,
      "velocity": 78,
      "chip": "ym2612"
    },
    {
      "channel": 4,
      "note": 62,
      "start": 0.7318,
      "duration": 0.2486,
      "velocity": 78,
      "chip": "ym2612"
    },
    {
      "channel": 3,
      "note": 58,
      "start": 0.9803,
      "duration": 0.0326,
      "velocity": 78,
      "chip": "ym2612"
    },
    {
      "channel": 4,
      "note": 70,
      "start": 0.981,
      "duration": 0.0326,
      "velocity": 78,
      "chip": "ym2612"
    },
    {
      "channel": 3,
      "note": 60,
      "start": 1.0134,
      "duration": 0.055,
      "velocity": 78,
      "chip": "ym2612"
    },
    {
      "channel": 4,
      "note": 72,
      "start": 1.0141,
      "duration": 0.0546,
      "velocity": 78,
      "chip": "ym2612"
    },
    {
      "channel": 3,
      "note": 51,
      "start": 1.1609,
      "duration": 0.0583,
      "velocity": 78,
      "chip": "ym2612"
    },
    {
      "channel": 4,
      "note": 63,
      "start": 1.1616,
      "duration": 0.058,
      "velocity": 78,
      "chip": "ym2612"
    },
    {
      "channel": 3,
      "note": 53,
      "start": 1.2817,
      "duration": 0.0527,
      "velocity": 78,
      "chip": "ym2612"
    },
    {
      "channel": 4,
      "note": 65,
      "start": 1.2823,
      "duration": 0.0524,
      "velocity": 78,
      "chip": "ym2612"
    },
    {
      "channel": 3,
      "note": 56,
      "start": 1.3974,
      "duration": 0.0994,
      "velocity": 78,
      "chip": "ym2612"
    },
    {
      "channel": 4,
      "note": 68,
      "start": 1.3981,
      "duration": 0.099,
      "velocity": 78,
      "chip": "ym2612"
    },
    {
      "channel": 3,
      "note": 56,
      "start": 1.5255,
      "duration": 0.0319,
      "velocity": 78,
      "chip": "ym2612"
    },
    {
      "channel": 4,
      "note": 68,
      "start": 1.5262,
      "duration": 0.0315,
      "velocity": 78,
      "chip": "ym2612"
    },
    {
      "channel": 3,
      "note": 56,
      "start": 1.5833,
      "duration": 0.0344,
      "velocity": 78,
      "chip": "ym2612"
    },
    {
      "channel": 4,
      "note": 68,
      "start": 1.5839,
      "duration": 0.0341,
      "velocity": 78,
      "chip": "ym2612"
    },
    {
      "channel": 3,
      "note": 56,
      "start": 1.7037,
      "duration": 0.0317,
      "velocity": 78,
      "chip": "ym2612"
    },
    {
      "channel": 4,
      "note": 68,
      "start": 1.7043,
      "duration": 0.0314,
      "velocity": 78,
      "chip": "ym2612"
    },
    {
      "channel": 3,
      "note": 56,
      "start": 1.7886,
      "duration": 0.0337,
      "velocity": 78,
      "chip": "ym2612"
    },
    {
      "channel": 4,
      "note": 68,
      "start": 1.7893,
      "duration": 0.0333,
      "velocity": 78,
      "chip": "ym2612"
    },
    {
      "channel": 3,
      "note": 58,
      "start": 1.8785,
      "duration": 0.3149,
      "velocity": 78,
      "chip": "ym2612"
    },
    {
      "channel": 4,
      "note": 70,
      "start": 1.8793,
      "duration": 0.3149,
      "velocity": 78,
      "chip": "ym2612"
    },
    {
      "channel": 0,
      "note": 55,
      "start": 2.1932,
      "duration": 0.138,
      "velocity": 83,
      "chip": "ym2612"
    },
    {
      "channel": 3,
      "note": 55,
      "start": 2.194,
      "duration": 0.1381,
      "velocity": 78,
      "chip": "ym2612"
    },
    {
      "channel": 4,
      "note": 67,
      "start": 2.1947,
      "duration": 0.1381,
      "velocity": 78,
      "chip": "ym2612"
    },
    {
      "channel": 0,
      "note": 58,
      "start": 2.3318,
      "duration": 0.1267,
      "velocity": 83,
      "chip": "ym2612"
    },
    {
      "channel": 3,
      "note": 58,
      "start": 2.3326,
      "duration": 0.0669,
      "velocity": 78,
      "chip": "ym2612"
    },
    {
      "channel": 4,
      "note": 70,
      "start": 2.3333,
      "duration": 0.0666,
      "velocity": 78,
      "chip": "ym2612"
    },
    {
      "channel": 0,
      "note": 48,
      "start": 2.459,
      "duration": 0.0305,
      "velocity": 83,
      "chip": "ym2612"
    },
    {
      "channel": 3,
      "note": 58,
      "start": 2.46,
      "duration": 0.0298,
      "velocity": 78,
      "chip": "ym2612"
    },
    {
      "channel": 4,
      "note": 70,
      "start": 2.4607,
      "duration": 0.0298,
      "velocity": 78,
      "chip": "ym2612"
    },
    {
      "channel": 3,
      "note": 60,
      "start": 2.4904,
      "duration": 0.0545,
      "velocity": 78,
      "chip": "ym2612"
    },
    {
      "channel": 4,
      "note": 72,
      "start": 2.4911,
      "duration": 0.0541,
      "velocity": 78,
      "chip": "ym2612"
    },
    {
      "channel": 0,
      "note": 48,
      "start": 2.5224,
      "duration": 0.0321,
      "velocity": 83,
      "chip": "ym2612"
    },
    {
      "channel": 0,
      "note": 48,
      "start": 2.5852,
      "duration": 0.0261,
      "velocity": 83,
      "chip": "ym2612"
    },
    {
      "channel": 0,
      "note": 48,
      "start": 2.6411,
      "duration": 0.0367,
      "velocity": 83,
      "chip": "ym2612"
    },
    {
      "channel": 3,
      "note": 51,
      "start": 2.642,
      "duration": 0.0575,
      "velocity": 78,
      "chip": "ym2612"
    },
    {
      "channel": 4,
      "note": 63,
      "start": 2.6427,
      "duration": 0.0571,
      "velocity": 78,
      "chip": "ym2612"
    },
    {
      "channel": 0,
      "note": 48,
      "start": 2.7093,
      "duration": 0.0261,
      "velocity": 83,
      "chip": "ym2612"
    },
    {
      "channel": 0,
      "note": 48,
      "start": 2.7671,
      "duration": 0.0341,
      "velocity": 83,
      "chip": "ym2612"
    },
    {
      "channel": 3,
      "note": 53,
      "start": 2.7678,
      "duration": 0.0548,
      "velocity": 78,
      "chip": "ym2612"
    },
    {
      "channel": 4,
      "note": 65,
      "start": 2.7685,
      "duration": 0.0544,
      "velocity": 78,
      "chip": "ym2612"
    },
    {
      "channel": 0,
      "note": 48,
      "start": 2.8296,
      "duration": 0.0296,
      "velocity": 83,
      "chip": "ym2612"
    },
    {
      "channel": 0,
      "note": 48,
      "start": 2.8876,
      "duration": 0.0341,
      "velocity": 83,
      "chip": "ym2612"
    },
    {
      "channel": 3,
      "note": 51,
      "start": 2.8884,
      "duration": 0.0339,
      "velocity": 78,
      "chip": "ym2612"
    },
    {
      "channel": 4,
      "note": 63,
      "start": 2.8891,
      "duration": 0.0335,
      "velocity": 78,
      "chip": "ym2612"
    },
    {
      "channel": 0,
      "note": 48,
      "start": 2.9477,
      "duration": 0.0372,
      "velocity": 83,
      "chip": "ym2612"
    },
    {
      "channel": 3,
      "note": 58,
      "start": 2.9488,
      "duration": 0.0366,
      "velocity": 78,
      "chip": "ym2612"
    },
    {
      "channel": 4,
      "note": 70,
      "start": 2.9495,
      "duration": 0.0365,
      "velocity": 78,
      "chip": "ym2612"
    },
    {
      "channel": 3,
      "note": 60,
      "start": 2.9859,
      "duration": 0.0551,
      "velocity": 78,
      "chip": "ym2612"
    },
    {
      "channel": 4,
      "note": 72,
      "start": 2.9866,
      "duration": 0.0547,
      "velocity": 78,
      "chip": "ym2612"
    },
    {
      "channel": 0,
      "note": 48,
      "start": 3.0183,
      "duration": 0.0324,
      "velocity": 83,
      "chip": "ym2612"
    },
    {
      "channel": 0,
      "note": 48,
      "start": 3.0763,
      "duration": 0.0296,
      "velocity": 83,
      "chip": "ym2612"
    },
    {
      "channel": 0,
      "note": 48,
      "start": 3.1343,
      "duration": 0.0329,
      "velocity": 83,
      "chip": "ym2612"
    },
    {
      "channel": 3,
      "note": 51,
      "start": 3.1352,
      "duration": 0.0538,
      "velocity": 78,
      "chip": "ym2612"
    },
    {
      "channel": 4,
      "note": 63,
      "start": 3.1359,
      "duration": 0.0534,
      "velocity": 78,
      "chip": "ym2612"
    },
    {
      "channel": 0,
      "note": 48,
      "start": 3.1989,
      "duration": 0.0293,
      "velocity": 83,
      "chip": "ym2612"
    },
    {
      "channel": 0,
      "note": 48,
      "start": 3.2601,
      "duration": 0.0302,
      "velocity": 83,
      "chip": "ym2612"
    },
    {
      "channel": 3,
      "note": 53,
      "start": 3.2609,
      "duration": 0.0512,
      "velocity": 78,
      "chip": "ym2612"
    },
    {
      "channel": 4,
      "note": 65,
      "start": 3.2616,
      "duration": 0.0508,
      "velocity": 78,
      "chip": "ym2612"
    },
    {
      "channel": 0,
      "note": 48,
      "start": 3.3222,
      "duration": 0.0295,
      "velocity": 83,
      "chip": "ym2612"
    },
    {
      "channel": 0,
      "note": 48,
      "start": 3.38,
      "duration": 0.0305,
      "velocity": 83,
      "chip": "ym2612"
    },
    {
      "channel": 3,
      "note": 51,
      "start": 3.3807,
      "duration": 0.0302,
      "velocity": 78,
      "chip": "ym2612"
    },
    {
      "channel": 4,
      "note": 63,
      "start": 3.3815,
      "duration": 0.0298,
      "velocity": 78,
      "chip": "ym2612"
    },
    {
      "channel": 0,
      "note": 48,
      "start": 3.4429,
      "duration": 0.0367,
      "velocity": 83,
      "chip": "ym2612"
    },
    {
      "channel": 3,
      "note": 58,
      "start": 3.4439,
      "duration": 0.0361,
      "velocity": 78,
      "chip": "ym2612"
    },
    {
      "channel": 4,
      "note": 70,
      "start": 3.4446,
      "duration": 0.036,
      "velocity": 78,
      "chip": "ym2612"
    },
    {
      "channel": 3,
      "note": 60,
      "start": 3.4805,
      "duration": 0.0512,
      "velocity": 78,
      "chip": "ym2612"
    },
    {
      "channel": 4,
      "note": 72,
      "start": 3.4812,
      "duration": 0.0508,
      "velocity": 78,
      "chip": "ym2612"
    },
    {
      "channel": 0,
      "note": 48,
      "start": 3.5091,
      "duration": 0.0322,
      "velocity": 83,
      "chip": "ym2612"
    },
    {
      "channel": 0,
      "note": 48,
      "start": 3.5717,
      "duration": 0.0294,
      "velocity": 83,
      "chip": "ym2612"
    },
    {
      "channel": 0,
      "note": 48,
      "start": 3.6276,
      "duration": 0.0366,
      "velocity": 83,
      "chip": "ym2612"
    },
    {
      "channel": 3,
      "note": 51,
      "start": 3.6285,
      "duration": 0.0575,
      "velocity": 78,
      "chip": "ym2612"
    },
    {
      "channel": 4,
      "note": 63,
      "start": 3.6292,
      "duration": 0.0571,
      "velocity": 78,
      "chip": "ym2612"
    },
    {
      "channel": 0,
      "note": 48,
      "start": 3.6961,
      "duration": 0.0297,
      "velocity": 83,
      "chip": "ym2612"
    },
    {
      "channel": 0,
      "note": 48,
      "start": 3.751,
      "duration": 0.0345,
      "velocity": 83,
      "chip": "ym2612"
    },
    {
      "channel": 3,
      "note": 53,
      "start": 3.7518,
      "duration": 0.058,
      "velocity": 78,
      "chip": "ym2612"
    },
    {
      "channel": 4,
      "note": 65,
      "start": 3.7525,
      "duration": 0.0576,
      "velocity": 78,
      "chip": "ym2612"
    },
    {
      "channel": 0,
      "note": 48,
      "start": 3.8197,
      "duration": 0.0263,
      "velocity": 83,
      "chip": "ym2612"
    },
    {
      "channel": 0,
      "note": 56,
      "start": 3.8746,
      "duration": 0.0985,
      "velocity": 83,
      "chip": "ym2612"
    },
    {
      "channel": 3,
      "note": 56,
      "start": 3.8754,
      "duration": 0.0983,
      "velocity": 78,
      "chip": "ym2612"
    },
    {
      "channel": 4,
      "note": 68,
      "start": 3.8761,
      "duration": 0.0979,
      "velocity": 78,
      "chip": "ym2612"
    },
    {
      "channel": 0,
      "note": 56,
      "start": 4.0045,
      "duration": 0.0343,
      "velocity": 83,
      "chip": "ym2612"
    },
    {
      "channel": 3,
      "note": 56,
      "start": 4.0054,
      "duration": 0.034,
      "velocity": 78,
      "chip": "ym2612"
    },
    {
      "channel": 4,
      "note": 68,
      "start": 4.0061,
      "duration": 0.0336,
      "velocity": 78,
      "chip": "ym2612"
    },
    {
      "channel": 0,
      "note": 56,
      "start": 4.0678,
      "duration": 0.0305,
      "velocity": 83,
      "chip": "ym2612"
    },
    {
      "channel": 3,
      "note": 56,
      "start": 4.0686,
      "duration": 0.0301,
      "velocity": 78,
      "chip": "ym2612"
    },
    {
      "channel": 4,
      "note": 68,
      "start": 4.0693,
      "duration": 0.0297,
      "velocity": 78,
      "chip": "ym2612"
    },
    {
      "channel": 0,
      "note": 56,
      "start": 4.127,
      "duration": 0.0296,
      "velocity": 83,
      "chip": "ym2612"
    },
    {
      "channel": 0,
      "note": 56,
      "start": 4.184,
      "duration": 0.0343,
      "velocity": 83,
      "chip": "ym2612"
    },
    {
      "channel": 3,
      "note": 56,
      "start": 4.1849,
      "duration": 0.0339,
      "velocity": 78,
      "chip": "ym2612"
    },
    {
      "channel": 4,
      "note": 68,
      "start": 4.1856,
      "duration": 0.0335,
      "velocity": 78,
      "chip": "ym2612"
    },
    {
      "channel": 0,
      "note": 56,
      "start": 4.2471,
      "duration": 0.0298,
      "velocity": 83,
      "chip": "ym2612"
    },
    {
      "channel": 3,
      "note": 56,
      "start": 4.278,
      "duration": 0.029,
      "velocity": 78,
      "chip": "ym2612"
    },
    {
      "channel": 4,
      "note": 68,
      "start": 4.2786,
      "duration": 0.0287,
      "velocity": 78,
      "chip": "ym2612"
    },
    {
      "channel": 0,
      "note": 56,
      "start": 4.3067,
      "duration": 0.0332,
      "velocity": 83,
      "chip": "ym2612"
    },
    {
      "channel": 0,
      "note": 58,
      "start": 4.3684,
      "duration": 0.0663,
      "velocity": 83,
      "chip": "ym2612"
    },
    {
      "channel": 3,
      "note": 58,
      "start": 4.3693,
      "duration": 0.0665,
      "velocity": 78,
      "chip": "ym2612"
    },
    {
      "channel": 4,
      "note": 70,
      "start": 4.37,
      "duration": 0.0664,
      "velocity": 78,
      "chip": "ym2612"
    },
    {
      "channel": 0,
      "note": 48,
      "start": 4.4352,
      "duration": 0.0596,
      "velocity": 83,
      "chip": "ym2612"
    },
    {
      "channel": 3,
      "note": 58,
      "start": 4.4362,
      "duration": 0.036,
      "velocity": 78,
      "chip": "ym2612"
    },
    {
      "channel": 4,
      "note": 70,
      "start": 4.4369,
      "duration": 0.036,
      "velocity": 78,
      "chip": "ym2612"
    },
    {
      "channel": 3,
      "note": 60,
      "start": 4.4728,
      "duration": 0.0557,
      "velocity": 78,
      "chip": "ym2612"
    },
    {
      "channel": 4,
      "note": 72,
      "start": 4.4735,
      "duration": 0.0553,
      "velocity": 78,
      "chip": "ym2612"
    },
    {
      "channel": 0,
      "note": 48,
      "start": 4.5061,
      "duration": 0.0484,
      "velocity": 83,
      "chip": "ym2612"
    },
    {
      "channel": 0,
      "note": 48,
      "start": 4.5677,
      "duration": 0.0494,
      "velocity": 83,
      "chip": "ym2612"
    },
    {
      "channel": 0,
      "note": 48,
      "start": 4.6272,
      "duration": 0.0543,
      "velocity": 83,
      "chip": "ym2612"
    },
    {
      "channel": 3,
      "note": 51,
      "start": 4.6279,
      "duration": 0.054,
      "velocity": 78,
      "chip": "ym2612"
    },
    {
      "channel": 4,
      "note": 63,
      "start": 4.6286,
      "duration": 0.0536,
      "velocity": 78,
      "chip": "ym2612"
    },
    {
      "channel": 0,
      "note": 48,
      "start": 4.6918,
      "duration": 0.0495,
      "velocity": 83,
      "chip": "ym2612"
    },
    {
      "channel": 0,
      "note": 48,
      "start": 4.7549,
      "duration": 0.053,
      "velocity": 83,
      "chip": "ym2612"
    },
    {
      "channel": 3,
      "note": 53,
      "start": 4.7557,
      "duration": 0.0527,
      "velocity": 78,
      "chip": "ym2612"
    },
    {
      "channel": 4,
      "note": 65,
      "start": 4.7564,
      "duration": 0.0523,
      "velocity": 78,
      "chip": "ym2612"
    },
    {
      "channel": 0,
      "note": 48,
      "start": 4.8184,
      "duration": 0.0494,
      "velocity": 83,
      "chip": "ym2612"
    },
    {
      "channel": 0,
      "note": 48,
      "start": 4.8747,
      "duration": 0.0568,
      "velocity": 83,
      "chip": "ym2612"
    },
    {
      "channel": 3,
      "note": 51,
      "start": 4.8756,
      "duration": 0.0361,
      "velocity": 78,
      "chip": "ym2612"
    },
    {
      "channel": 4,
      "note": 63,
      "start": 4.8763,
      "duration": 0.0357,
      "velocity": 78,
      "chip": "ym2612"
    },
    {
      "channel": 0,
      "note": 48,
      "start": 4.9439,
      "duration": 0.0545,
      "velocity": 83,
      "chip": "ym2612"
    },
    {
      "channel": 3,
      "note": 58,
      "start": 4.945,
      "duration": 0.0341,
      "velocity": 78,
      "chip": "ym2612"
    },
    {
      "channel": 4,
      "note": 70,
      "start": 4.9457,
      "duration": 0.0341,
      "velocity": 78,
      "chip": "ym2612"
    },
    {
      "channel": 3,
      "note": 60,
      "start": 4.9797,
      "duration": 0.0528,
      "velocity": 78,
      "chip": "ym2612"
    },
    {
      "channel": 4,
      "note": 72,
      "start": 4.9803,
      "duration": 0.0525,
      "velocity": 78,
      "chip": "ym2612"
    },
    {
      "channel": 0,
      "note": 48,
      "start": 5.0095,
      "duration": 0.0526,
      "velocity": 83,
      "chip": "ym2612"
    },
    {
      "channel": 0,
      "note": 48,
      "start": 5.0744,
      "duration": 0.0463,
      "velocity": 83,
      "chip": "ym2612"
    },
    {
      "channel": 0,
      "note": 48,
      "start": 5.1307,
      "duration": 0.0565,
      "velocity": 83,
      "chip": "ym2612"
    },
    {
      "channel": 3,
      "note": 51,
      "start": 5.1315,
      "duration": 0.0563,
      "velocity": 78,
      "chip": "ym2612"
    },
    {
      "channel": 4,
      "note": 63,
      "start": 5.1322,
      "duration": 0.0559,
      "velocity": 78,
      "chip": "ym2612"
    },
    {
      "channel": 0,
      "note": 48,
      "start": 5.1975,
      "duration": 0.046,
      "velocity": 83,
      "chip": "ym2612"
    },
    {
      "channel": 0,
      "note": 48,
      "start": 5.2571,
      "duration": 0.0568,
      "velocity": 83,
      "chip": "ym2612"
    },
    {
      "channel": 3,
      "note": 53,
      "start": 5.2579,
      "duration": 0.0564,
      "velocity": 78,
      "chip": "ym2612"
    },
    {
      "channel": 4,
      "note": 65,
      "start": 5.2586,
      "duration": 0.056,
      "velocity": 78,
      "chip": "ym2612"
    },
    {
      "channel": 0,
      "note": 48,
      "start": 5.3244,
      "duration": 0.0495,
      "velocity": 83,
      "chip": "ym2612"
    },
    {
      "channel": 0,
      "note": 48,
      "start": 5.3837,
      "duration": 0.0545,
      "velocity": 83,
      "chip": "ym2612"
    },
    {
      "channel": 3,
      "note": 51,
      "start": 5.3845,
      "duration": 0.0338,
      "velocity": 78,
      "chip": "ym2612"
    },
    {
      "channel": 4,
      "note": 63,
      "start": 5.3852,
      "duration": 0.0334,
      "velocity": 78,
      "chip": "ym2612"
    },
    {
      "channel": 0,
      "note": 48,
      "start": 5.4482,
      "duration": 0.0535,
      "velocity": 83,
      "chip": "ym2612"
    },
    {
      "channel": 3,
      "note": 58,
      "start": 5.4493,
      "duration": 0.03,
      "velocity": 78,
      "chip": "ym2612"
    },
    {
      "channel": 4,
      "note": 70,
      "start": 5.45,
      "duration": 0.0299,
      "velocity": 78,
      "chip": "ym2612"
    },
    {
      "channel": 3,
      "note": 60,
      "start": 5.4797,
      "duration": 0.0556,
      "velocity": 78,
      "chip": "ym2612"
    },
    {
      "channel": 4,
      "note": 72,
      "start": 5.4804,
      "duration": 0.0552,
      "velocity": 78,
      "chip": "ym2612"
    },
    {
      "channel": 0,
      "note": 48,
      "start": 5.5129,
      "duration": 0.0518,
      "velocity": 83,
      "chip": "ym2612"
    },
    {
      "channel": 0,
      "note": 48,
      "start": 5.5746,
      "duration": 0.0493,
      "velocity": 83,
      "chip": "ym2612"
    },
    {
      "channel": 0,
      "note": 48,
      "start": 5.6338,
      "duration": 0.0542,
      "velocity": 83,
      "chip": "ym2612"
    },
    {
      "channel": 3,
      "note": 51,
      "start": 5.6346,
      "duration": 0.054,
      "velocity": 78,
      "chip": "ym2612"
    },
    {
      "channel": 4,
      "note": 63,
      "start": 5.6353,
      "duration": 0.0536,
      "velocity": 78,
      "chip": "ym2612"
    },
    {
      "channel": 0,
      "note": 48,
      "start": 5.6992,
      "duration": 0.0522,
      "velocity": 83,
      "chip": "ym2612"
    },
    {
      "channel": 0,
      "note": 48,
      "start": 5.7612,
      "duration": 0.0544,
      "velocity": 83,
      "chip": "ym2612"
    },
    {
      "channel": 3,
      "note": 53,
      "start": 5.7619,
      "duration": 0.0542,
      "velocity": 78,
      "chip": "ym2612"
    },
    {
      "channel": 4,
      "note": 65,
      "start": 5.7626,
      "duration": 0.0538,
      "velocity": 78,
      "chip": "ym2612"
    },
    {
      "channel": 0,
      "note": 48,
      "start": 5.8262,
      "duration": 0.0532,
      "velocity": 83,
      "chip": "ym2612"
    },
    {
      "channel": 0,
      "note": 56,
      "start": 5.8894,
      "duration": 0.1205,
      "velocity": 83,
      "chip": "ym2612"
    },
    {
      "channel": 3,
      "note": 56,
      "start": 5.8902,
      "duration": 0.0997,
      "velocity": 78,
      "chip": "ym2612"
    },
    {
      "channel": 4,
      "note": 68,
      "start": 5.8909,
      "duration": 0.0993,
      "velocity": 78,
      "chip": "ym2612"
    },
    {
      "channel": 0,
      "note": 56,
      "start": 6.0209,
      "duration": 0.051,
      "velocity": 83,
      "chip": "ym2612"
    },
    {
      "channel": 3,
      "note": 56,
      "start": 6.0217,
      "duration": 0.0302,
      "velocity": 78,
      "chip": "ym2612"
    },
    {
      "channel": 4,
      "note": 68,
      "start": 6.0224,
      "duration": 0.0299,
      "velocity": 78,
      "chip": "ym2612"
    },
    {
      "channel": 0,
      "note": 56,
      "start": 6.0818,
      "duration": 0.0544,
      "velocity": 83,
      "chip": "ym2612"
    },
    {
      "channel": 3,
      "note": 56,
      "start": 6.0826,
      "duration": 0.0338,
      "velocity": 78,
      "chip": "ym2612"
    },
    {
      "channel": 4,
      "note": 68,
      "start": 6.0833,
      "duration": 0.0334,
      "velocity": 78,
      "chip": "ym2612"
    },
    {
      "channel": 0,
      "note": 56,
      "start": 6.146,
      "duration": 0.046,
      "velocity": 83,
      "chip": "ym2612"
    },
    {
      "channel": 0,
      "note": 56,
      "start": 6.2028,
      "duration": 0.0546,
      "velocity": 83,
      "chip": "ym2612"
    },
    {
      "channel": 3,
      "note": 56,
      "start": 6.2036,
      "duration": 0.0338,
      "velocity": 78,
      "chip": "ym2612"
    },
    {
      "channel": 4,
      "note": 68,
      "start": 6.2043,
      "duration": 0.0334,
      "velocity": 78,
      "chip": "ym2612"
    },
    {
      "channel": 0,
      "note": 56,
      "start": 6.2643,
      "duration": 0.0546,
      "velocity": 83,
      "chip": "ym2612"
    },
    {
      "channel": 3,
      "note": 56,
      "start": 6.2949,
      "duration": 0.0245,
      "velocity": 78,
      "chip": "ym2612"
    },
    {
      "channel": 4,
      "note": 68,
      "start": 6.2956,
      "duration": 0.0242,
      "velocity": 78,
      "chip": "ym2612"
    },
    {
      "channel": 0,
      "note": 56,
      "start": 6.3296,
      "duration": 0.0499,
      "velocity": 83,
      "chip": "ym2612"
    },
    {
      "channel": 0,
      "note": 58,
      "start": 6.3895,
      "duration": 0.1212,
      "velocity": 83,
      "chip": "ym2612"
    },
    {
      "channel": 3,
      "note": 58,
      "start": 6.3903,
      "duration": 0.3453,
      "velocity": 78,
      "chip": "ym2612"
    },
    {
      "channel": 4,
      "note": 70,
      "start": 6.391,
      "duration": 0.3453,
      "velocity": 78,
      "chip": "ym2612"
    },
    {
      "channel": 0,
      "note": 58,
      "start": 6.5218,
      "duration": 0.0588,
      "velocity": 83,
      "chip": "ym2612"
    },
    {
      "channel": 0,
      "note": 58,
      "start": 6.5919,
      "duration": 0.0558,
      "velocity": 83,
      "chip": "ym2612"
    },
    {
      "channel": 0,
      "note": 58,
      "start": 6.6592,
      "duration": 0.0639,
      "velocity": 83,
      "chip": "ym2612"
    },
    {
      "channel": 0,
      "note": 55,
      "start": 6.7353,
      "duration": 0.0549,
      "velocity": 83,
      "chip": "ym2612"
    },
    {
      "channel": 3,
      "note": 55,
      "start": 6.7362,
      "duration": 0.138,
      "velocity": 78,
      "chip": "ym2612"
    },
    {
      "channel": 4,
      "note": 67,
      "start": 6.7369,
      "duration": 0.138,
      "velocity": 78,
      "chip": "ym2612"
    },
    {
      "channel": 0,
      "note": 55,
      "start": 6.802,
      "duration": 0.0605,
      "velocity": 83,
      "chip": "ym2612"
    },
    {
      "channel": 0,
      "note": 58,
      "start": 6.8739,
      "duration": 0.0559,
      "velocity": 83,
      "chip": "ym2612"
    },
    {
      "channel": 3,
      "note": 58,
      "start": 6.8747,
      "duration": 0.1308,
      "velocity": 78,
      "chip": "ym2612"
    },
    {
      "channel": 4,
      "note": 70,
      "start": 6.8754,
      "duration": 0.0998,
      "velocity": 78,
      "chip": "ym2612"
    },
    {
      "channel": 0,
      "note": 58,
      "start": 6.9412,
      "duration": 0.0546,
      "velocity": 83,
      "chip": "ym2612"
    },
    {
      "channel": 0,
      "note": 48,
      "start": 7.0032,
      "duration": 0.0217,
      "velocity": 83,
      "chip": "ym2612"
    },
    {
      "channel": 0,
      "note": 48,
      "start": 7.0349,
      "duration": 0.0217,
      "velocity": 83,
      "chip": "ym2612"
    },
    {
      "channel": 0,
      "note": 48,
      "start": 7.0666,
      "duration": 0.0197,
      "velocity": 83,
      "chip": "ym2612"
    },
    {
      "channel": 0,
      "note": 48,
      "start": 7.0963,
      "duration": 0.0189,
      "velocity": 83,
      "chip": "ym2612"
    },
    {
      "channel": 0,
      "note": 48,
      "start": 7.1251,
      "duration": 0.0364,
      "velocity": 83,
      "chip": "ym2612"
    },
    {
      "channel": 1,
      "note": 89,
      "start": 7.1259,
      "duration": 0.036,
      "velocity": 117,
      "chip": "ym2612"
    },
    {
      "channel": 3,
      "note": 48,
      "start": 7.1266,
      "duration": 0.934,
      "velocity": 78,
      "chip": "ym2612"
    },
    {
      "channel": 4,
      "note": 60,
      "start": 7.1273,
      "duration": 0.9337,
      "velocity": 78,
      "chip": "ym2612"
    },
    {
      "channel": 1,
      "note": 86,
      "start": 7.1625,
      "duration": 0.0356,
      "velocity": 117,
      "chip": "ym2612"
    },
    {
      "channel": 2,
      "note": 89,
      "start": 7.1747,
      "duration": 0.0368,
      "velocity": 117,
      "chip": "ym2612"
    },
    {
      "channel": 0,
      "note": 48,
      "start": 7.1979,
      "duration": 0.0384,
      "velocity": 83,
      "chip": "ym2612"
    },
    {
      "channel": 1,
      "note": 82,
      "start": 7.1986,
      "duration": 0.0379,
      "velocity": 117,
      "chip": "ym2612"
    },
    {
      "channel": 2,
      "note": 86,
      "start": 7.2121,
      "duration": 0.0346,
      "velocity": 117,
      "chip": "ym2612"
    },
    {
      "channel": 1,
      "note": 87,
      "start": 7.2371,
      "duration": 0.3288,
      "velocity": 117,
      "chip": "ym2612"
    },
    {
      "channel": 2,
      "note": 82,
      "start": 7.2473,
      "duration": 0.0371,
      "velocity": 117,
      "chip": "ym2612"
    },
    {
      "channel": 0,
      "note": 48,
      "start": 7.2708,
      "duration": 0.038,
      "velocity": 83,
      "chip": "ym2612"
    },
    {
      "channel": 2,
      "note": 87,
      "start": 7.2849,
      "duration": 0.3292,
      "velocity": 117,
      "chip": "ym2612"
    },
    {
      "channel": 0,
      "note": 48,
      "start": 7.3457,
      "duration": 0.0358,
      "velocity": 83,
      "chip": "ym2612"
    },
    {
      "channel": 0,
      "note": 48,
      "start": 7.4199,
      "duration": 0.0372,
      "velocity": 83,
      "chip": "ym2612"
    },
    {
      "channel": 0,
      "note": 48,
      "start": 7.4933,
      "duration": 0.0333,
      "velocity": 83,
      "chip": "ym2612"
    },
    {
      "channel": 0,
      "note": 48,
      "start": 7.5657,
      "duration": 0.0365,
      "velocity": 83,
      "chip": "ym2612"
    },
    {
      "channel": 0,
      "note": 48,
      "start": 7.6355,
      "duration": 0.0331,
      "velocity": 83,
      "chip": "ym2612"
    },
    {
      "channel": 0,
      "note": 48,
      "start": 7.701,
      "duration": 0.0358,
      "velocity": 83,
      "chip": "ym2612"
    },
    {
      "channel": 1,
      "note": 89,
      "start": 7.7017,
      "duration": 0.0354,
      "velocity": 117,
      "chip": "ym2612"
    },
    {
      "channel": 1,
      "note": 86,
      "start": 7.7377,
      "duration": 0.0317,
      "velocity": 117,
      "chip": "ym2612"
    },
    {
      "channel": 2,
      "note": 89,
      "start": 7.7497,
      "duration": 0.0329,
      "velocity": 117,
      "chip": "ym2612"
    },
    {
      "channel": 0,
      "note": 48,
      "start": 7.7692,
      "duration": 0.0384,
      "velocity": 83,
      "chip": "ym2612"
    },
    {
      "channel": 1,
      "note": 82,
      "start": 7.7699,
      "duration": 0.0383,
      "velocity": 117,
      "chip": "ym2612"
    },
    {
      "channel": 2,
      "note": 86,
      "start": 7.7832,
      "duration": 0.0385,
      "velocity": 117,
      "chip": "ym2612"
    },
    {
      "channel": 0,
      "note": 60,
      "start": 7.8081,
      "duration": 0.0381,
      "velocity": 83,
      "chip": "ym2612"
    },
    {
      "channel": 1,
      "note": 87,
      "start": 7.8088,
      "duration": 0.038,
      "velocity": 117,
      "chip": "ym2612"
    },
    {
      "channel": 2,
      "note": 82,
      "start": 7.8222,
      "duration": 0.037,
      "velocity": 117,
      "chip": "ym2612"
    },
    {
      "channel": 0,
      "note": 48,
      "start": 7.8467,
      "duration": 0.0361,
      "velocity": 83,
      "chip": "ym2612"
    },
    {
      "channel": 2,
      "note": 87,
      "start": 7.8597,
      "duration": 0.0372,
      "velocity": 117,
      "chip": "ym2612"
    },
    {
      "channel": 0,
      "note": 60,
      "start": 7.8832,
      "duration": 0.0327,
      "velocity": 83,
      "chip": "ym2612"
    },
    {
      "channel": 1,
      "note": 86,
      "start": 7.8839,
      "duration": 0.2437,
      "velocity": 117,
      "chip": "ym2612"
    },
    {
      "channel": 0,
      "note": 48,
      "start": 7.9164,
      "duration": 0.0371,
      "velocity": 83,
      "chip": "ym2612"
    },
    {
      "channel": 2,
      "note": 86,
      "start": 7.9296,
      "duration": 0.2401,
      "velocity": 117,
      "chip": "ym2612"
    },
    {
      "channel": 0,
      "note": 48,
      "start": 7.9902,
      "duration": 0.0374,
      "velocity": 83,
      "chip": "ym2612"
    },
    {
      "channel": 0,
      "note": 48,
      "start": 8.0599,
      "duration": 0.0339,
      "velocity": 83,
      "chip": "ym2612"
    },
    {
      "channel": 0,
      "note": 48,
      "start": 8.1275,
      "duration": 0.0213,
      "velocity": 83,
      "chip": "ym2612"
    },
    {
      "channel": 0,
      "note": 48,
      "start": 8.1563,
      "duration": 0.0231,
      "velocity": 83,
      "chip": "ym2612"
    },
    {
      "channel": 0,
      "note": 48,
      "start": 8.1895,
      "duration": 0.0197,
      "velocity": 83,
      "chip": "ym2612"
    },
    {
      "channel": 0,
      "note": 48,
      "start": 8.2192,
      "duration": 0.0222,
      "velocity": 83,
      "chip": "ym2612"
    },
    {
      "channel": 0,
      "note": 48,
      "start": 8.2513,
      "duration": 0.0325,
      "velocity": 83,
      "chip": "ym2612"
    },
    {
      "channel": 1,
      "note": 89,
      "start": 8.252,
      "duration": 0.0321,
      "velocity": 117,
      "chip": "ym2612"
    },
    {
      "channel": 3,
      "note": 48,
      "start": 8.2528,
      "duration": 0.2904,
      "velocity": 78,
      "chip": "ym2612"
    },
    {
      "channel": 4,
      "note": 60,
      "start": 8.2534,
      "duration": 0.2904,
      "velocity": 78,
      "chip": "ym2612"
    },
    {
      "channel": 1,
      "note": 86,
      "start": 8.2847,
      "duration": 0.0356,
      "velocity": 117,
      "chip": "ym2612"
    },
    {
      "channel": 2,
      "note": 89,
      "start": 8.2969,
      "duration": 0.0368,
      "velocity": 117,
      "chip": "ym2612"
    },
    {
      "channel": 0,
      "note": 48,
      "start": 8.3202,
      "duration": 0.0384,
      "velocity": 83,
      "chip": "ym2612"
    },
    {
      "channel": 1,
      "note": 82,
      "start": 8.3209,
      "duration": 0.0379,
      "velocity": 117,
      "chip": "ym2612"
    },
    {
      "channel": 2,
      "note": 86,
      "start": 8.3343,
      "duration": 0.0394,
      "velocity": 117,
      "chip": "ym2612"
    },
    {
      "channel": 1,
      "note": 87,
      "start": 8.3594,
      "duration": 0.1828,
      "velocity": 117,
      "chip": "ym2612"
    },
    {
      "channel": 2,
      "note": 82,
      "start": 8.3743,
      "duration": 0.0324,
      "velocity": 117,
      "chip": "ym2612"
    },
    {
      "channel": 0,
      "note": 48,
      "start": 8.3978,
      "duration": 0.0335,
      "velocity": 83,
      "chip": "ym2612"
    },
    {
      "channel": 2,
      "note": 87,
      "start": 8.4073,
      "duration": 0.1904,
      "velocity": 117,
      "chip": "ym2612"
    },
    {
      "channel": 0,
      "note": 60,
      "start": 8.4676,
      "duration": 0.0402,
      "velocity": 83,
      "chip": "ym2612"
    },
    {
      "channel": 0,
      "note": 48,
      "start": 8.5083,
      "duration": 0.0333,
      "velocity": 83,
      "chip": "ym2612"
    },
    {
      "channel": 0,
      "note": 60,
      "start": 8.5421,
      "duration": 0.0418,
      "velocity": 83,
      "chip": "ym2612"
    },
    {
      "channel": 1,
      "note": 86,
      "start": 8.5428,
      "duration": 0.0803,
      "velocity": 117,
      "chip": "ym2612"
    },
    {
      "channel": 3,
      "note": 55,
      "start": 8.5437,
      "duration": 0.0804,
      "velocity": 78,
      "chip": "ym2612"
    },
    {
      "channel": 4,
      "note": 67,
      "start": 8.5444,
      "duration": 0.0804,
      "velocity": 78,
      "chip": "ym2612"
    },
    {
      "channel": 0,
      "note": 48,
      "start": 8.5844,
      "duration": 0.038,
      "velocity": 83,
      "chip": "ym2612"
    },
    {
      "channel": 2,
      "note": 86,
      "start": 8.5982,
      "duration": 0.0761,
      "velocity": 117,
      "chip": "ym2612"
    },
    {
      "channel": 0,
      "note": 53,
      "start": 8.623,
      "duration": 0.1109,
      "velocity": 83,
      "chip": "ym2612"
    },
    {
      "channel": 1,
      "note": 87,
      "start": 8.6237,
      "duration": 0.2546,
      "velocity": 117,
      "chip": "ym2612"
    },
    {
      "channel": 3,
      "note": 53,
      "start": 8.6246,
      "duration": 0.3659,
      "velocity": 78,
      "chip": "ym2612"
    },
    {
      "channel": 4,
      "note": 65,
      "start": 8.6253,
      "duration": 0.3659,
      "velocity": 78,
      "chip": "ym2612"
    },
    {
      "channel": 2,
      "note": 87,
      "start": 8.6749,
      "duration": 0.2534,
      "velocity": 117,
      "chip": "ym2612"
    },
    {
      "channel": 0,
      "note": 53,
      "start": 8.7705,
      "duration": 0.0378,
      "velocity": 83,
      "chip": "ym2612"
    },
    {
      "channel": 0,
      "note": 53,
      "start": 8.8409,
      "duration": 0.0372,
      "velocity": 83,
      "chip": "ym2612"
    },
    {
      "channel": 1,
      "note": 84,
      "start": 8.8789,
      "duration": 0.036,
      "velocity": 117,
      "chip": "ym2612"
    },
    {
      "channel": 0,
      "note": 53,
      "start": 8.9148,
      "duration": 0.0338,
      "velocity": 83,
      "chip": "ym2612"
    },
    {
      "channel": 1,
      "note": 86,
      "start": 8.9154,
      "duration": 0.0335,
      "velocity": 117,
      "chip": "ym2612"
    },
    {
      "channel": 2,
      "note": 84,
      "start": 8.9288,
      "duration": 0.0329,
      "velocity": 117,
      "chip": "ym2612"
    },
    {
      "channel": 1,
      "note": 87,
      "start": 8.9495,
      "duration": 0.0241,
      "velocity": 117,
      "chip": "ym2612"
    },
    {
      "channel": 2,
      "note": 86,
      "start": 8.9624,
      "duration": 0.0415,
      "velocity": 117,
      "chip": "ym2612"
    },
    {
      "channel": 1,
      "note": 89,
      "start": 8.9741,
      "duration": 0.029,
      "velocity": 117,
      "chip": "ym2612"
    },
    {
      "channel": 0,
      "note": 55,
      "start": 8.9898,
      "duration": 0.0386,
      "velocity": 83,
      "chip": "ym2612"
    },
    {
      "channel": 3,
      "note": 55,
      "start": 8.991,
      "duration": 0.1488,
      "velocity": 78,
      "chip": "ym2612"
    },
    {
      "channel": 4,
      "note": 67,
      "start": 8.9917,
      "duration": 0.1484,
      "velocity": 78,
      "chip": "ym2612"
    },
    {
      "channel": 1,
      "note": 90,
      "start": 9.0037,
      "duration": 0.025,
      "velocity": 117,
      "chip": "ym2612"
    },
    {
      "channel": 2,
      "note": 87,
      "start": 9.0043,
      "duration": 0.025,
      "velocity": 117,
      "chip": "ym2612"
    },
    {
      "channel": 1,
      "note": 91,
      "start": 9.0293,
      "duration": 0.097,
      "velocity": 117,
      "chip": "ym2612"
    },
    {
      "channel": 2,
      "note": 89,
      "start": 9.03,
      "duration": 0.0235,
      "velocity": 117,
      "chip": "ym2612"
    },
    {
      "channel": 2,
      "note": 90,
      "start": 9.054,
      "duration": 0.0249,
      "velocity": 117,
      "chip": "ym2612"
    },
    {
      "channel": 0,
      "note": 55,
      "start": 9.0657,
      "duration": 0.0362,
      "velocity": 83,
      "chip": "ym2612"
    },
    {
      "channel": 2,
      "note": 91,
      "start": 9.0795,
      "duration": 0.0954,
      "velocity": 117,
      "chip": "ym2612"
    },
    {
      "channel": 1,
      "note": 90,
      "start": 9.1268,
      "duration": 0.0243,
      "velocity": 117,
      "chip": "ym2612"
    },
    {
      "channel": 0,
      "note": 67,
      "start": 9.139,
      "duration": 0.0346,
      "velocity": 83,
      "chip": "ym2612"
    },
    {
      "channel": 1,
      "note": 89,
      "start": 9.1516,
      "duration": 0.0226,
      "velocity": 117,
      "chip": "ym2612"
    },
    {
      "channel": 0,
      "note": 62,
      "start": 9.1741,
      "duration": 0.0379,
      "velocity": 83,
      "chip": "ym2612"
    },
    {
      "channel": 1,
      "note": 87,
      "start": 9.1748,
      "duration": 0.0379,
      "velocity": 117,
      "chip": "ym2612"
    },
    {
      "channel": 2,
      "note": 90,
      "start": 9.1754,
      "duration": 0.0257,
      "velocity": 117,
      "chip": "ym2612"
    },
    {
      "channel": 2,
      "note": 89,
      "start": 9.2017,
      "duration": 0.0195,
      "velocity": 117,
      "chip": "ym2612"
    },
    {
      "channel": 0,
      "note": 60,
      "start": 9.2125,
      "duration": 0.0305,
      "velocity": 83,
      "chip": "ym2612"
    },
    {
      "channel": 1,
      "note": 89,
      "start": 9.2132,
      "duration": 0.0304,
      "velocity": 117,
      "chip": "ym2612"
    },
    {
      "channel": 2,
      "note": 87,
      "start": 9.2217,
      "duration": 0.034,
      "velocity": 117,
      "chip": "ym2612"
    },
    {
      "channel": 0,
      "note": 55,
      "start": 9.2435,
      "duration": 0.0344,
      "velocity": 83,
      "chip": "ym2612"
    },
    {
      "channel": 1,
      "note": 84,
      "start": 9.2442,
      "duration": 0.0343,
      "velocity": 117,
      "chip": "ym2612"
    },
    {
      "channel": 2,
      "note": 89,
      "start": 9.2563,
      "duration": 0.035,
      "velocity": 117,
      "chip": "ym2612"
    },
    {
      "channel": 0,
      "note": 48,
      "start": 9.2783,
      "duration": 0.0233,
      "velocity": 83,
      "chip": "ym2612"
    },
    {
      "channel": 2,
      "note": 84,
      "start": 9.2918,
      "duration": 0.0351,
      "velocity": 117,
      "chip": "ym2612"
    },
    {
      "channel": 0,
      "note": 48,
      "start": 9.3134,
      "duration": 0.0232,
      "velocity": 83,
      "chip": "ym2612"
    },
    {
      "channel": 0,
      "note": 48,
      "start": 9.3435,
      "duration": 0.0197,
      "velocity": 83,
      "chip": "ym2612"
    },
    {
      "channel": 0,
      "note": 48,
      "start": 9.3731,
      "duration": 0.02,
      "velocity": 83,
      "chip": "ym2612"
    },
    {
      "channel": 0,
      "note": 48,
      "start": 9.4031,
      "duration": 0.0398,
      "velocity": 83,
      "chip": "ym2612"
    },
    {
      "channel": 1,
      "note": 89,
      "start": 9.4037,
      "duration": 0.0395,
      "velocity": 117,
      "chip": "ym2612"
    },
    {
      "channel": 3,
      "note": 48,
      "start": 9.4045,
      "duration": 0.9385,
      "velocity": 78,
      "chip": "ym2612"
    },
    {
      "channel": 4,
      "note": 60,
      "start": 9.4051,
      "duration": 0.9382,
      "velocity": 78,
      "chip": "ym2612"
    },
    {
      "channel": 1,
      "note": 86,
      "start": 9.4438,
      "duration": 0.0317,
      "velocity": 117,
      "chip": "ym2612"
    },
    {
      "channel": 2,
      "note": 89,
      "start": 9.4558,
      "duration": 0.0331,
      "velocity": 117,
      "chip": "ym2612"
    },
    {
      "channel": 0,
      "note": 48,
      "start": 9.4754,
      "duration": 0.0382,
      "velocity": 83,
      "chip": "ym2612"
    },
    {
      "channel": 1,
      "note": 82,
      "start": 9.4761,
      "duration": 0.0377,
      "velocity": 117,
      "chip": "ym2612"
    },
    {
      "channel": 2,
      "note": 86,
      "start": 9.4895,
      "duration": 0.0393,
      "velocity": 117,
      "chip": "ym2612"
    },
    {
      "channel": 1,
      "note": 87,
      "start": 9.5144,
      "duration": 0.3307,
      "velocity": 117,
      "chip": "ym2612"
    },
    {
      "channel": 2,
      "note": 82,
      "start": 9.5294,
      "duration": 0.0365,
      "velocity": 117,
      "chip": "ym2612"
    },
    {
      "channel": 0,
      "note": 48,
      "start": 9.5529,
      "duration": 0.0376,
      "velocity": 83,
      "chip": "ym2612"
    },
    {
      "channel": 2,
      "note": 87,
      "start": 9.5664,
      "duration": 0.3234,
      "velocity": 117,
      "chip": "ym2612"
    },
    {
      "channel": 0,
      "note": 48,
      "start": 9.6232,
      "duration": 0.0374,
      "velocity": 83,
      "chip": "ym2612"
    },
    {
      "channel": 0,
      "note": 48,
      "start": 9.6991,
      "duration": 0.0331,
      "velocity": 83,
      "chip": "ym2612"
    },
    {
      "channel": 0,
      "note": 48,
      "start": 9.7685,
      "duration": 0.0375,
      "velocity": 83,
      "chip": "ym2612"
    },
    {
      "channel": 0,
      "note": 48,
      "start": 9.845,
      "duration": 0.0329,
      "velocity": 83,
      "chip": "ym2612"
    },
    {
      "channel": 0,
      "note": 48,
      "start": 9.911,
      "duration": 0.0366,
      "velocity": 83,
      "chip": "ym2612"
    },
    {
      "channel": 0,
      "note": 48,
      "start": 9.9802,
      "duration": 0.0317,
      "velocity": 83,
      "chip": "ym2612"
    },
    {
      "channel": 1,
      "note": 89,
      "start": 9.9808,
      "duration": 0.0314,
      "velocity": 117,
      "chip": "ym2612"
    },
    {
      "channel": 1,
      "note": 86,
      "start": 10.0128,
      "duration": 0.0355,
      "velocity": 117,
      "chip": "ym2612"
    },
    {
      "channel": 2,
      "note": 89,
      "start": 10.0248,
      "duration": 0.0369,
      "velocity": 117,
      "chip": "ym2612"
    },
    {
      "channel": 0,
      "note": 48,
      "start": 10.0482,
      "duration": 0.0385,
      "velocity": 83,
      "chip": "ym2612"
    },
    {
      "channel": 1,
      "note": 82,
      "start": 10.0489,
      "duration": 0.0385,
      "velocity": 117,
      "chip": "ym2612"
    },
    {
      "channel": 2,
      "note": 86,
      "start": 10.0622,
      "duration": 0.0385,
      "velocity": 117,
      "chip": "ym2612"
    },
    {
      "channel": 0,
      "note": 60,
      "start": 10.0872,
      "duration": 0.0339,
      "velocity": 83,
      "chip": "ym2612"
    },
    {
      "channel": 1,
      "note": 87,
      "start": 10.0879,
      "duration": 0.0339,
      "velocity": 117,
      "chip": "ym2612"
    },
    {
      "channel": 2,
      "note": 82,
      "start": 10.1013,
      "duration": 0.0328,
      "velocity": 117,
      "chip": "ym2612"
    },
    {
      "channel": 0,
      "note": 48,
      "start": 10.1216,
      "duration": 0.0361,
      "velocity": 83,
      "chip": "ym2612"
    },
    {
      "channel": 2,
      "note": 87,
      "start": 10.1346,
      "duration": 0.0397,
      "velocity": 117,
      "chip": "ym2612"
    },
    {
      "channel": 0,
      "note": 60,
      "start": 10.1582,
      "duration": 0.0391,
      "velocity": 83,
      "chip": "ym2612"
    },
    {
      "channel": 1,
      "note": 86,
      "start": 10.1589,
      "duration": 0.1087,
      "velocity": 117,
      "chip": "ym2612"
    },
    {
      "channel": 0,
      "note": 48,
      "start": 10.1978,
      "duration": 0.0371,
      "velocity": 83,
      "chip": "ym2612"
    },
    {
      "channel": 2,
      "note": 86,
      "start": 10.211,
      "duration": 0.1071,
      "velocity": 117,
      "chip": "ym2612"
    },
    {
      "channel": 0,
      "note": 48,
      "start": 10.2675,
      "duration": 0.0378,
      "velocity": 83,
      "chip": "ym2612"
    },
    {
      "channel": 1,
      "note": 87,
      "start": 10.2682,
      "duration": 0.0738,
      "velocity": 117,
      "chip": "ym2612"
    },
    {
      "channel": 2,
      "note": 87,
      "start": 10.3186,
      "duration": 0.0654,
      "velocity": 117,
      "chip": "ym2612"
    },
    {
      "channel": 0,
      "note": 48,
      "start": 10.3419,
      "duration": 0.0341,
      "velocity": 83,
      "chip": "ym2612"
    },
    {
      "channel": 1,
      "note": 89,
      "start": 10.3426,
      "duration": 0.0666,
      "velocity": 117,
      "chip": "ym2612"
    },
    {
      "channel": 2,
      "note": 89,
      "start": 10.3845,
      "duration": 0.0675,
      "velocity": 117,
      "chip": "ym2612"
    },
    {
      "channel": 0,
      "note": 56,
      "start": 10.409,
      "duration": 0.0215,
      "velocity": 83,
      "chip": "ym2612"
    },
    {
      "channel": 0,
      "note": 56,
      "start": 10.4412,
      "duration": 0.0205,
      "velocity": 83,
      "chip": "ym2612"
    },
    {
      "channel": 0,
      "note": 56,
      "start": 10.4717,
      "duration": 0.0198,
      "velocity": 83,
      "chip": "ym2612"
    },
    {
      "channel": 0,
      "note": 56,
      "start": 10.4985,
      "duration": 0.0197,
      "velocity": 83,
      "chip": "ym2612"
    },
    {
      "channel": 0,
      "note": 56,
      "start": 10.5281,
      "duration": 0.04,
      "velocity": 83,
      "chip": "ym2612"
    },
    {
      "channel": 1,
      "note": 89,
      "start": 10.5288,
      "duration": 0.0396,
      "velocity": 117,
      "chip": "ym2612"
    },
    {
      "channel": 3,
      "note": 44,
      "start": 10.5295,
      "duration": 0.2972,
      "velocity": 78,
      "chip": "ym2612"
    },
    {
      "channel": 4,
      "note": 56,
      "start": 10.5302,
      "duration": 0.2972,
      "velocity": 78,
      "chip": "ym2612"
    },
    {
      "channel": 1,
      "note": 86,
      "start": 10.569,
      "duration": 0.0357,
      "velocity": 117,
      "chip": "ym2612"
    },
    {
      "channel": 2,
      "note": 89,
      "start": 10.5811,
      "duration": 0.037,
      "velocity": 117,
      "chip": "ym2612"
    },
    {
      "channel": 0,
      "note": 56,
      "start": 10.6046,
      "duration": 0.0344,
      "velocity": 83,
      "chip": "ym2612"
    },
    {
      "channel": 1,
      "note": 82,
      "start": 10.6052,
      "duration": 0.0211,
      "velocity": 117,
      "chip": "ym2612"
    },
    {
      "channel": 2,
      "note": 86,
      "start": 10.6186,
      "duration": 0.0356,
      "velocity": 117,
      "chip": "ym2612"
    },
    {
      "channel": 1,
      "note": 87,
      "start": 10.6269,
      "duration": 0.0267,
      "velocity": 117,
      "chip": "ym2612"
    },
    {
      "channel": 1,
      "note": 88,
      "start": 10.6541,
      "duration": 0.0242,
      "velocity": 117,
      "chip": "ym2612"
    },
    {
      "channel": 2,
      "note": 82,
      "start": 10.6548,
      "duration": 0.0241,
      "velocity": 117,
      "chip": "ym2612"
    },
    {
      "channel": 0,
      "note": 56,
      "start": 10.6781,
      "duration": 0.0384,
      "velocity": 83,
      "chip": "ym2612"
    },
    {
      "channel": 1,
      "note": 89,
      "start": 10.6788,
      "duration": 0.147,
      "velocity": 117,
      "chip": "ym2612"
    },
    {
      "channel": 2,
      "note": 87,
      "start": 10.6795,
      "duration": 0.0249,
      "velocity": 117,
      "chip": "ym2612"
    },
    {
      "channel": 2,
      "note": 88,
      "start": 10.705,
      "duration": 0.0242,
      "velocity": 117,
      "chip": "ym2612"
    },
    {
      "channel": 2,
      "note": 89,
      "start": 10.7298,
      "duration": 0.1502,
      "velocity": 117,
      "chip": "ym2612"
    },
    {
      "channel": 0,
      "note": 68,
      "start": 10.7533,
      "duration": 0.0339,
      "velocity": 83,
      "chip": "ym2612"
    },
    {
      "channel": 0,
      "note": 56,
      "start": 10.7878,
      "duration": 0.0374,
      "velocity": 83,
      "chip": "ym2612"
    },
    {
      "channel": 0,
      "note": 68,
      "start": 10.8256,
      "duration": 0.0417,
      "velocity": 83,
      "chip": "ym2612"
    },
    {
      "channel": 1,
      "note": 86,
      "start": 10.8263,
      "duration": 0.0292,
      "velocity": 117,
      "chip": "ym2612"
    },
    {
      "channel": 3,
      "note": 48,
      "start": 10.8273,
      "duration": 0.0741,
      "velocity": 78,
      "chip": "ym2612"
    },
    {
      "channel": 4,
      "note": 60,
      "start": 10.8279,
      "duration": 0.0741,
      "velocity": 78,
      "chip": "ym2612"
    },
    {
      "channel": 0,
      "note": 56,
      "start": 10.8678,
      "duration": 0.032,
      "velocity": 83,
      "chip": "ym2612"
    },
    {
      "channel": 2,
      "note": 86,
      "start": 10.8805,
      "duration": 0.0206,
      "velocity": 117,
      "chip": "ym2612"
    },
    {
      "channel": 0,
      "note": 58,
      "start": 10.9003,
      "duration": 0.1151,
      "velocity": 83,
      "chip": "ym2612"
    },
    {
      "channel": 1,
      "note": 87,
      "start": 10.901,
      "duration": 0.1471,
      "velocity": 117,
      "chip": "ym2612"
    },
    {
      "channel": 3,
      "note": 46,
      "start": 10.9019,
      "duration": 0.6844,
      "velocity": 78,
      "chip": "ym2612"
    },
    {
      "channel": 4,
      "note": 58,
      "start": 10.9026,
      "duration": 0.6846,
      "velocity": 78,
      "chip": "ym2612"
    },
    {
      "channel": 2,
      "note": 87,
      "start": 10.9522,
      "duration": 0.1501,
      "velocity": 117,
      "chip": "ym2612"
    },
    {
      "channel": 0,
      "note": 58,
      "start": 11.048,
      "duration": 0.0415,
      "velocity": 83,
      "chip": "ym2612"
    },
    {
      "channel": 1,
      "note": 89,
      "start": 11.0487,
      "duration": 0.0411,
      "velocity": 117,
      "chip": "ym2612"
    },
    {
      "channel": 1,
      "note": 90,
      "start": 11.0902,
      "duration": 0.0365,
      "velocity": 117,
      "chip": "ym2612"
    },
    {
      "channel": 2,
      "note": 89,
      "start": 11.1029,
      "duration": 0.0371,
      "velocity": 117,
      "chip": "ym2612"
    },
    {
      "channel": 0,
      "note": 58,
      "start": 11.1265,
      "duration": 0.0381,
      "velocity": 83,
      "chip": "ym2612"
    },
    {
      "channel": 1,
      "note": 91,
      "start": 11.1272,
      "duration": 0.0377,
      "velocity": 117,
      "chip": "ym2612"
    },
    {
      "channel": 2,
      "note": 90,
      "start": 11.1405,
      "duration": 0.0332,
      "velocity": 117,
      "chip": "ym2612"
    },
    {
      "channel": 1,
      "note": 94,
      "start": 11.1655,
      "duration": 0.0325,
      "velocity": 117,
      "chip": "ym2612"
    },
    {
      "channel": 2,
      "note": 91,
      "start": 11.1743,
      "duration": 0.0371,
      "velocity": 117,
      "chip": "ym2612"
    },
    {
      "channel": 0,
      "note": 58,
      "start": 11.1979,
      "duration": 0.0381,
      "velocity": 83,
      "chip": "ym2612"
    },
    {
      "channel": 1,
      "note": 95,
      "start": 11.1986,
      "duration": 0.0377,
      "velocity": 117,
      "chip": "ym2612"
    },
    {
      "channel": 2,
      "note": 94,
      "start": 11.2119,
      "duration": 0.0371,
      "velocity": 117,
      "chip": "ym2612"
    },
    {
      "channel": 1,
      "note": 96,
      "start": 11.2369,
      "duration": 0.0389,
      "velocity": 117,
      "chip": "ym2612"
    },
    {
      "channel": 2,
      "note": 95,
      "start": 11.2495,
      "duration": 0.0394,
      "velocity": 117,
      "chip": "ym2612"
    },
    {
      "channel": 0,
      "note": 58,
      "start": 11.2756,
      "duration": 0.0337,
      "velocity": 83,
      "chip": "ym2612"
    },
    {
      "channel": 1,
      "note": 99,
      "start": 11.2763,
      "duration": 0.0333,
      "velocity": 117,
      "chip": "ym2612"
    },
    {
      "channel": 2,
      "note": 96,
      "start": 11.2895,
      "duration": 0.0327,
      "velocity": 117,
      "chip": "ym2612"
    },
    {
      "channel": 1,
      "note": 96,
      "start": 11.3102,
      "duration": 0.049,
      "velocity": 117,
      "chip": "ym2612"
    },
    {
      "channel": 2,
      "note": 99,
      "start": 11.3229,
      "duration": 0.0371,
      "velocity": 117,
      "chip": "ym2612"
    },
    {
      "channel": 0,
      "note": 58,
      "start": 11.3464,
      "duration": 0.0418,
      "velocity": 83,
      "chip": "ym2612"
    },
    {
      "channel": 1,
      "note": 99,
      "start": 11.3598,
      "duration": 0.016,
      "velocity": 117,
      "chip": "ym2612"
    },
    {
      "channel": 2,
      "note": 96,
      "start": 11.3605,
      "duration": 0.0565,
      "velocity": 117,
      "chip": "ym2612"
    },
    {
      "channel": 1,
      "note": 101,
      "start": 11.3764,
      "duration": 0.0121,
      "velocity": 117,
      "chip": "ym2612"
    },
    {
      "channel": 1,
      "note": 102,
      "start": 11.3891,
      "duration": 0.0122,
      "velocity": 117,
      "chip": "ym2612"
    },
    {
      "channel": 1,
      "note": 103,
      "start": 11.4018,
      "duration": 0.041,
      "velocity": 117,
      "chip": "ym2612"
    },
    {
      "channel": 2,
      "note": 99,
      "start": 11.4176,
      "duration": 0.0123,
      "velocity": 117,
      "chip": "ym2612"
    },
    {
      "channel": 0,
      "note": 70,
      "start": 11.4295,
      "duration": 0.0353,
      "velocity": 83,
      "chip": "ym2612"
    },
    {
      "channel": 2,
      "note": 101,
      "start": 11.4305,
      "duration": 0.013,
      "velocity": 117,
      "chip": "ym2612"
    },
    {
      "channel": 1,
      "note": 102,
      "start": 11.4434,
      "duration": 0.0084,
      "velocity": 117,
      "chip": "ym2612"
    },
    {
      "channel": 2,
      "note": 102,
      "start": 11.4441,
      "duration": 0.0084,
      "velocity": 117,
      "chip": "ym2612"
    },
    {
      "channel": 1,
      "note": 101,
      "start": 11.4524,
      "duration": 0.0131,
      "velocity": 117,
      "chip": "ym2612"
    },
    {
      "channel": 2,
      "note": 103,
      "start": 11.453,
      "duration": 0.0417,
      "velocity": 117,
      "chip": "ym2612"
    },
    {
      "channel": 0,
      "note": 65,
      "start": 11.4653,
      "duration": 0.0411,
      "velocity": 83,
      "chip": "ym2612"
    },
    {
      "channel": 1,
      "note": 99,
      "start": 11.466,
      "duration": 0.0284,
      "velocity": 117,
      "chip": "ym2612"
    },
    {
      "channel": 2,
      "note": 102,
      "start": 11.4953,
      "duration": 0.0124,
      "velocity": 117,
      "chip": "ym2612"
    },
    {
      "channel": 0,
      "note": 63,
      "start": 11.5069,
      "duration": 0.0383,
      "velocity": 83,
      "chip": "ym2612"
    },
    {
      "channel": 1,
      "note": 101,
      "start": 11.5076,
      "duration": 0.0258,
      "velocity": 117,
      "chip": "ym2612"
    },
    {
      "channel": 2,
      "note": 101,
      "start": 11.5083,
      "duration": 0.0126,
      "velocity": 117,
      "chip": "ym2612"
    },
    {
      "channel": 2,
      "note": 99,
      "start": 11.5215,
      "duration": 0.0251,
      "velocity": 117,
      "chip": "ym2612"
    },
    {
      "channel": 0,
      "note": 58,
      "start": 11.5457,
      "duration": 0.0393,
      "velocity": 83,
      "chip": "ym2612"
    },
    {
      "channel": 1,
      "note": 96,
      "start": 11.5464,
      "duration": 0.0248,
      "velocity": 117,
      "chip": "ym2612"
    },
    {
      "channel": 2,
      "note": 101,
      "start": 11.5592,
      "duration": 0.0268,
      "velocity": 117,
      "chip": "ym2612"
    },
    {
      "channel": 0,
      "note": 48,
      "start": 11.5856,
      "duration": 0.0327,
      "velocity": 83,
      "chip": "ym2612"
    },
    {
      "channel": 3,
      "note": 58,
      "start": 11.5869,
      "duration": 0.032,
      "velocity": 78,
      "chip": "ym2612"
    },
    {
      "channel": 4,
      "note": 70,
      "start": 11.5876,
      "duration": 0.032,
      "velocity": 78,
      "chip": "ym2612"
    },
    {
      "channel": 2,
      "note": 96,
      "start": 11.5953,
      "duration": 0.0234,
      "velocity": 117,
      "chip": "ym2612"
    },
    {
      "channel": 3,
      "note": 60,
      "start": 11.6195,
      "duration": 0.0545,
      "velocity": 78,
      "chip": "ym2612"
    },
    {
      "channel": 4,
      "note": 72,
      "start": 11.6202,
      "duration": 0.0541,
      "velocity": 78,
      "chip": "ym2612"
    },
    {
      "channel": 0,
      "note": 48,
      "start": 11.6515,
      "duration": 0.0322,
      "velocity": 83,
      "chip": "ym2612"
    },
    {
      "channel": 0,
      "note": 48,
      "start": 11.7112,
      "duration": 40.0591,
      "velocity": 83,
      "chip": "ym2612"
    }
  ]
}