{
  "track_name": "05 - Monster Invasion",
  "duration_sec": 29.302,
  "sample_rate": 44100,
  "note_count": 861,
  "unique_pitches": 23,
  "pitch_range": 36,
  "avg_note_duration": 0.1059,
  "reconstruction_stats": {
    "notes_reconstructed": 861,
    "keyon_events": 861,
    "keyoff_events": 860,
    "orphan_keyons": 1,
    "unique_pitches": 23,
    "pitch_range": 36,
    "avg_duration_sec": 0.1059
  },
  "metadata": {
    "source": "S\\Surging Aura\\05 - Monster Invasion.vgz"
  },
  "notes": [
    {
      "channel": 0,
      "note": 62,
      "start": 0.0,
      "duration": 0.0,
      "velocity": 99,
      "chip": "ym2612"
    },
    {
      "channel": 0,
      "note": 65,
      "start": 0.0,
      "duration": 0.0,
      "velocity": 99,
      "chip": "ym2612"
    },
    {
      "channel": 0,
      "note": 65,
      "start": 0.0,
      "duration": 0.0,
      "velocity": 99,
      "chip": "ym2612"
    },
    {
      "channel": 0,
      "note": 57,
      "start": 0.0,
      "duration": 0.0,
      "velocity": 99,
      "chip": "ym2612"
    },
    {
      "channel": 0,
      "note": 57,
      "start": 0.0,
      "duration": 0.0,
      "velocity": 99,
      "chip": "ym2612"
    },
    {
      "channel": 0,
      "note": 60,
      "start": 0.0,
      "duration": 0.0,
      "velocity": 99,
      "chip": "ym2612"
    },
    {
      "channel": 0,
      "note": 60,
      "start": 0.0,
      "duration": 0.0,
      "velocity": 99,
      "chip": "ym2612"
    },
    {
      "channel": 0,
      "note": 59,
      "start": 0.0,
      "duration": 0.0,
      "velocity": 99,
      "chip": "ym2612"
    },
    {
      "channel": 0,
      "note": 59,
      "start": 0.0,
      "duration": 0.0,
      "velocity": 99,
      "chip": "ym2612"
    },
    {
      "channel": 0,
      "note": 62,
      "start": 0.0,
      "duration": 0.0,
      "velocity": 99,
      "chip": "ym2612"
    },
    {
      "channel": 0,
      "note": 62,
      "start": 0.0,
      "duration": 0.0,
      "velocity": 99,
      "chip": "ym2612"
    },
    {
      "channel": 0,
      "note": 60,
      "start": 0.0,
      "duration": 0.0,
      "velocity": 99,
      "chip": "ym2612"
    },
    {
      "channel": 0,
      "note": 60,
      "start": 0.0,
      "duration": 0.0,
      "velocity": 99,
      "chip": "ym2612"
    },
    {
      "channel": 0,
      "note": 64,
      "start": 0.0,
      "duration": 0.0,
      "velocity": 99,
      "chip": "ym2612"
    },
    {
      "channel": 0,
      "note": 64,
      "start": 0.0,
      "duration": 0.0,
      "velocity": 99,
      "chip": "ym2612"
    },
    {
      "channel": 0,
      "note": 62,
      "start": 0.0,
      "duration": 0.0,
      "velocity": 99,
      "chip": "ym2612"
    },
    {
      "channel": 0,
      "note": 62,
      "start": 0.0,
      "duration": 0.0,
      "velocity": 99,
      "chip": "ym2612"
    },
    {
      "channel": 0,
      "note": 65,
      "start": 0.0,
      "duration": 0.0,
      "velocity": 99,
      "chip": "ym2612"
    },
    {
      "channel": 0,
      "note": 65,
      "start": 0.0,
      "duration": 0.0,
      "velocity": 99,
      "chip": "ym2612"
    },
    {
      "channel": 0,
      "note": 57,
      "start": 0.0,
      "duration": 0.0,
      "velocity": 99,
      "chip": "ym2612"
    },
    {
      "channel": 0,
      "note": 57,
      "start": 0.0,
      "duration": 0.0,
      "velocity": 99,
      "chip": "ym2612"
    },
    {
      "channel": 0,
      "note": 60,
      "start": 0.0,
      "duration": 0.0,
      "velocity": 99,
      "chip": "ym2612"
    },
    {
      "channel": 0,
      "note": 60,
      "start": 0.0,
      "duration": 0.0,
      "velocity": 99,
      "chip": "ym2612"
    },
    {
      "channel": 0,
      "note": 59,
      "start": 0.0,
      "duration": 0.0,
      "velocity": 99,
      "chip": "ym2612"
    },
    {
      "channel": 0,
      "note": 59,
      "start": 0.0,
      "duration": 0.0,
      "velocity": 99,
      "chip": "ym2612"
    },
    {
      "channel": 0,
      "note": 62,
      "start": 0.0,
      "duration": 0.0,
      "velocity": 99,
      "chip": "ym2612"
    },
    {
      "channel": 0,
      "note": 62,
      "start": 0.0,
      "duration": 0.0,
      "velocity": 99,
      "chip": "ym2612"
    },
    {
      "channel": 0,
      "note": 60,
      "start": 0.0,
      "duration": 0.0,
      "velocity": 99,
      "chip": "ym2612"
    },
    {
      "channel": 0,
      "note": 60,
      "start": 0.0,
      "duration": 0.0,
      "velocity": 99,
      "chip": "ym2612"
    },
    {
      "channel": 0,
      "note": 64,
      "start": 0.0,
      "duration": 0.0,
      "velocity": 99,
      "chip": "ym2612"
    },
    {
      "channel": 0,
      "note": 64,
      "start": 0.0,
      "duration": 0.0,
      "velocity": 99,
      "chip": "ym2612"
    },
    {
      "channel": 0,
      "note": 62,
      "start": 0.0,
      "duration": 0.0,
      "velocity": 99,
      "chip": "ym2612"
    },
    {
      "channel": 0,
      "note": 62,
      "start": 0.0,
      "duration": 0.0,
      "velocity": 99,
      "chip": "ym2612"
    },
    {
      "channel": 0,
      "note": 65,
      "start": 0.0,
      "duration": 0.0,
      "velocity": 99,
      "chip": "ym2612"
    },
    {
      "channel": 0,
      "note": 65,
      "start": 0.0,
      "duration": 0.0,
      "velocity": 99,
      "chip": "ym2612"
    },
    {
      "channel": 0,
      "note": 57,
      "start": 0.0,
      "duration": 0.0,
      "velocity": 1,
      "chip": "ym2612"
    },
    {
      "channel": 0,
      "note": 74,
      "start": 0.0,
      "duration": 0.0,
      "velocity": 99,
      "chip": "ym2612"
    },
    {
      "channel": 0,
      "note": 79,
      "start": 0.0,
      "duration": 0.0,
      "velocity": 99,
      "chip": "ym2612"
    },
    {
      "channel": 0,
      "note": 78,
      "start": 0.0,
      "duration": 0.0,
      "velocity": 99,
      "chip": "ym2612"
    },
    {
      "channel": 0,
      "note": 76,
      "start": 0.0,
      "duration": 0.0,
      "velocity": 99,
      "chip": "ym2612"
    },
    {
      "channel": 0,
      "note": 78,
      "start": 0.0,
      "duration": 0.0,
      "velocity": 99,
      "chip": "ym2612"
    },
    {
      "channel": 0,
      "note": 79,
      "start": 0.0,
      "duration": 0.0,
      "velocity": 99,
      "chip": "ym2612"
    },
    {
      "channel": 0,
      "note": 81,
      "start": 0.0,
      "duration": 0.0,
      "velocity": 99,
      "chip": "ym2612"
    },
    {
      "channel": 0,
      "note": 83,
      "start": 0.0,
      "duration": 0.0,
      "velocity": 99,
      "chip": "ym2612"
    },
    {
      "channel": 0,
      "note": 86,
      "start": 0.0,
      "duration": 0.0,
      "velocity": 99,
      "chip": "ym2612"
    },
    {
      "channel": 0,
      "note": 81,
      "start": 0.0,
      "duration": 0.0,
      "velocity": 99,
      "chip": "ym2612"
    },
    {
      "channel": 0,
      "note": 79,
      "start": 0.0,
      "duration": 0.0,
      "velocity": 99,
      "chip": "ym2612"
    },
    {
      "channel": 0,
      "note": 83,
      "start": 0.0,
      "duration": 0.0,
      "velocity": 99,
      "chip": "ym2612"
    },
    {
      "channel": 0,
      "note": 86,
      "start": 0.0,
      "duration": 0.0,
      "velocity": 99,
      "chip": "ym2612"
    },
    {
      "channel": 1,
      "note": 80,
      "start": 0.0,
      "duration": 0.0,
      "velocity": 117,
      "chip": "ym2612"
    },
    {
      "channel": 1,
      "note": 72,
      "start": 0.0,
      "duration": 0.0,
      "velocity": 117,
      "chip": "ym2612"
    },
    {
      "channel": 1,
      "note": 76,
      "start": 0.0,
      "duration": 0.0,
      "velocity": 117,
      "chip": "ym2612"
    },
    {
      "channel": 1,
      "note": 63,
      "start": 0.0,
      "duration": 0.0,
      "velocity": 117,
      "chip": "ym2612"
    },
    {
      "channel": 1,
      "note": 63,
      "start": 0.0,
      "duration": 0.0,
      "velocity": 117,
      "chip": "ym2612"
    },
    {
      "channel": 1,
      "note": 63,
      "start": 0.0,
      "duration": 0.0,
      "velocity": 117,
      "chip": "ym2612"
    },
    {
      "channel": 1,
      "note": 63,
      "start": 0.0,
      "duration": 0.0,
      "velocity": 117,
      "chip": "ym2612"
    },
    {
      "channel": 1,
      "note": 64,
      "start": 0.0,
      "duration": 0.0,
      "velocity": 1,
      "chip": "ym2612"
    },
    {
      "channel": 1,
      "note": 74,
      "start": 0.0,
      "duration": 0.0,
      "velocity": 99,
      "chip": "ym2612"
    },
    {
      "channel": 1,
      "note": 79,
      "start": 0.0,
      "duration": 0.0,
      "velocity": 99,
      "chip": "ym2612"
    },
    {
      "channel": 1,
      "note": 78,
      "start": 0.0,
      "duration": 0.0,
      "velocity": 99,
      "chip": "ym2612"
    },
    {
      "channel": 1,
      "note": 76,
      "start": 0.0,
      "duration": 0.0,
      "velocity": 99,
      "chip": "ym2612"
    },
    {
      "channel": 1,
      "note": 78,
      "start": 0.0,
      "duration": 0.0,
      "velocity": 99,
      "chip": "ym2612"
    },
    {
      "channel": 1,
      "note": 79,
      "start": 0.0,
      "duration": 0.0,
      "velocity": 99,
      "chip": "ym2612"
    },
    {
      "channel": 1,
      "note": 81,
      "start": 0.0,
      "duration": 0.0,
      "velocity": 99,
      "chip": "ym2612"
    },
    {
      "channel": 1,
      "note": 83,
      "start": 0.0,
      "duration": 0.0,
      "velocity": 99,
      "chip": "ym2612"
    },
    {
      "channel": 1,
      "note": 86,
      "start": 0.0,
      "duration": 0.0,
      "velocity": 99,
      "chip": "ym2612"
    },
    {
      "channel": 1,
      "note": 81,
      "start": 0.0,
      "duration": 0.0,
      "velocity": 99,
      "chip": "ym2612"
    },
    {
      "channel": 1,
      "note": 79,
      "start": 0.0,
      "duration": 0.0,
      "velocity": 99,
      "chip": "ym2612"
    },
    {
      "channel": 1,
      "note": 83,
      "start": 0.0,
      "duration": 0.0,
      "velocity": 99,
      "chip": "ym2612"
    },
    {
      "channel": 1,
      "note": 86,
      "start": 0.0,
      "duration": 0.0,
      "velocity": 99,
      "chip": "ym2612"
    },
    {
      "channel": 2,
      "note": 80,
      "start": 0.0,
      "duration": 0.0,
      "velocity": 99,
      "chip": "ym2612"
    },
    {
      "channel": 2,
      "note": 83,
      "start": 0.0,
      "duration": 0.0,
      "velocity": 99,
      "chip": "ym2612"
    },
    {
      "channel": 2,
      "note": 83,
      "start": 0.0,
      "duration": 0.0,
      "velocity": 99,
      "chip": "ym2612"
    },
    {
      "channel": 2,
      "note": 93,
      "start": 0.0,
      "duration": 0.0,
      "velocity": 99,
      "chip": "ym2612"
    },
    {
      "channel": 2,
      "note": 93,
      "start": 0.0,
      "duration": 0.0,
      "velocity": 99,
      "chip": "ym2612"
    },
    {
      "channel": 2,
      "note": 87,
      "start": 0.0,
      "duration": 0.0,
      "velocity": 99,
      "chip": "ym2612"
    },
    {
      "channel": 2,
      "note": 87,
      "start": 0.0,
      "duration": 0.0,
      "velocity": 99,
      "chip": "ym2612"
    },
    {
      "channel": 2,
      "note": 88,
      "start": 0.0,
      "duration": 0.0,
      "velocity": 99,
      "chip": "ym2612"
    },
    {
      "channel": 2,
      "note": 88,
      "start": 0.0,
      "duration": 0.0,
      "velocity": 99,
      "chip": "ym2612"
    },
    {
      "channel": 2,
      "note": 84,
      "start": 0.0,
      "duration": 0.0,
      "velocity": 99,
      "chip": "ym2612"
    },
    {
      "channel": 2,
      "note": 84,
      "start": 0.0,
      "duration": 0.0,
      "velocity": 99,
      "chip": "ym2612"
    },
    {
      "channel": 2,
      "note": 86,
      "start": 0.0,
      "duration": 0.0,
      "velocity": 99,
      "chip": "ym2612"
    },
    {
      "channel": 2,
      "note": 86,
      "start": 0.0,
      "duration": 0.0,
      "velocity": 99,
      "chip": "ym2612"
    },
    {
      "channel": 2,
      "note": 81,
      "start": 0.0,
      "duration": 0.0,
      "velocity": 99,
      "chip": "ym2612"
    },
    {
      "channel": 2,
      "note": 81,
      "start": 0.0,
      "duration": 0.0,
      "velocity": 99,
      "chip": "ym2612"
    },
    {
      "channel": 2,
      "note": 80,
      "start": 0.0,
      "duration": 0.0,
      "velocity": 99,
      "chip": "ym2612"
    },
    {
      "channel": 2,
      "note": 80,
      "start": 0.0,
      "duration": 0.0,
      "velocity": 99,
      "chip": "ym2612"
    },
    {
      "channel": 2,
      "note": 83,
      "start": 0.0,
      "duration": 0.0,
      "velocity": 99,
      "chip": "ym2612"
    },
    {
      "channel": 2,
      "note": 83,
      "start": 0.0,
      "duration": 0.0,
      "velocity": 99,
      "chip": "ym2612"
    },
    {
      "channel": 2,
      "note": 93,
      "start": 0.0,
      "duration": 0.0,
      "velocity": 99,
      "chip": "ym2612"
    },
    {
      "channel": 2,
      "note": 93,
      "start": 0.0,
      "duration": 0.0,
      "velocity": 99,
      "chip": "ym2612"
    },
    {
      "channel": 2,
      "note": 87,
      "start": 0.0,
      "duration": 0.0,
      "velocity": 99,
      "chip": "ym2612"
    },
    {
      "channel": 2,
      "note": 87,
      "start": 0.0,
      "duration": 0.0,
      "velocity": 99,
      "chip": "ym2612"
    },
    {
      "channel": 2,
      "note": 88,
      "start": 0.0,
      "duration": 0.0,
      "velocity": 99,
      "chip": "ym2612"
    },
    {
      "channel": 2,
      "note": 88,
      "start": 0.0,
      "duration": 0.0,
      "velocity": 99,
      "chip": "ym2612"
    },
    {
      "channel": 2,
      "note": 84,
      "start": 0.0,
      "duration": 0.0,
      "velocity": 99,
      "chip": "ym2612"
    },
    {
      "channel": 2,
      "note": 84,
      "start": 0.0,
      "duration": 0.0,
      "velocity": 99,
      "chip": "ym2612"
    },
    {
      "channel": 2,
      "note": 86,
      "start": 0.0,
      "duration": 0.0,
      "velocity": 99,
      "chip": "ym2612"
    },
    {
      "channel": 2,
      "note": 86,
      "start": 0.0,
      "duration": 0.0,
      "velocity": 99,
      "chip": "ym2612"
    },
    {
      "channel": 2,
      "note": 81,
      "start": 0.0,
      "duration": 0.0,
      "velocity": 99,
      "chip": "ym2612"
    },
    {
      "channel": 2,
      "note": 81,
      "start": 0.0,
      "duration": 0.0,
      "velocity": 99,
      "chip": "ym2612"
    },
    {
      "channel": 2,
      "note": 80,
      "start": 0.0,
      "duration": 0.0,
      "velocity": 99,
      "chip": "ym2612"
    },
    {
      "channel": 2,
      "note": 80,
      "start": 0.0,
      "duration": 0.0,
      "velocity": 99,
      "chip": "ym2612"
    },
    {
      "channel": 2,
      "note": 83,
      "start": 0.0,
      "duration": 0.0,
      "velocity": 99,
      "chip": "ym2612"
    },
    {
      "channel": 2,
      "note": 83,
      "start": 0.0,
      "duration": 0.0,
      "velocity": 99,
      "chip": "ym2612"
    },
    {
      "channel": 2,
      "note": 74,
      "start": 0.0,
      "duration": 0.0,
      "velocity": 99,
      "chip": "ym2612"
    },
    {
      "channel": 2,
      "note": 79,
      "start": 0.0,
      "duration": 0.0,
      "velocity": 99,
      "chip": "ym2612"
    },
    {
      "channel": 2,
      "note": 78,
      "start": 0.0,
      "duration": 0.0,
      "velocity": 99,
      "chip": "ym2612"
    },
    {
      "channel": 2,
      "note": 76,
      "start": 0.0,
      "duration": 0.0,
      "velocity": 99,
      "chip": "ym2612"
    },
    {
      "channel": 2,
      "note": 78,
      "start": 0.0,
      "duration": 0.0,
      "velocity": 99,
      "chip": "ym2612"
    },
    {
      "channel": 2,
      "note": 79,
      "start": 0.0,
      "duration": 0.0,
      "velocity": 99,
      "chip": "ym2612"
    },
    {
      "channel": 2,
      "note": 81,
      "start": 0.0,
      "duration": 0.0,
      "velocity": 99,
      "chip": "ym2612"
    },
    {
      "channel": 2,
      "note": 83,
      "start": 0.0,
      "duration": 0.0,
      "velocity": 99,
      "chip": "ym2612"
    },
    {
      "channel": 2,
      "note": 86,
      "start": 0.0,
      "duration": 0.0,
      "velocity": 99,
      "chip": "ym2612"
    },
    {
      "channel": 2,
      "note": 81,
      "start": 0.0,
      "duration": 0.0,
      "velocity": 99,
      "chip": "ym2612"
    },
    {
      "channel": 2,
      "note": 79,
      "start": 0.0,
      "duration": 0.0,
      "velocity": 99,
      "chip": "ym2612"
    },
    {
      "channel": 2,
      "note": 83,
      "start": 0.0,
      "duration": 0.0,
      "velocity": 99,
      "chip": "ym2612"
    },
    {
      "channel": 2,
      "note": 86,
      "start": 0.0,
      "duration": 0.0,
      "velocity": 99,
      "chip": "ym2612"
    },
    {
      "channel": 3,
      "note": 80,
      "start": 0.0,
      "duration": 0.0,
      "velocity": 117,
      "chip": "ym2612"
    },
    {
      "channel": 3,
      "note": 72,
      "start": 0.0,
      "duration": 0.0,
      "velocity": 117,
      "chip": "ym2612"
    },
    {
      "channel": 3,
      "note": 76,
      "start": 0.0,
      "duration": 0.0,
      "velocity": 117,
      "chip": "ym2612"
    },
    {
      "channel": 3,
      "note": 63,
      "start": 0.0,
      "duration": 0.0,
      "velocity": 117,
      "chip": "ym2612"
    },
    {
      "channel": 3,
      "note": 63,
      "start": 0.0,
      "duration": 0.0,
      "velocity": 117,
      "chip": "ym2612"
    },
    {
      "channel": 3,
      "note": 63,
      "start": 0.0,
      "duration": 0.0,
      "velocity": 117,
      "chip": "ym2612"
    },
    {
      "channel": 3,
      "note": 63,
      "start": 0.0,
      "duration": 0.0,
      "velocity": 117,
      "chip": "ym2612"
    },
    {
      "channel": 3,
      "note": 57,
      "start": 0.0,
      "duration": 0.0,
      "velocity": 97,
      "chip": "ym2612"
    },
    {
      "channel": 3,
      "note": 62,
      "start": 0.0,
      "duration": 0.0,
      "velocity": 97,
      "chip": "ym2612"
    },
    {
      "channel": 4,
      "note": 80,
      "start": 0.0,
      "duration": 0.0,
      "velocity": 99,
      "chip": "ym2612"
    },
    {
      "channel": 4,
      "note": 83,
      "start": 0.0,
      "duration": 0.0,
      "velocity": 99,
      "chip": "ym2612"
    },
    {
      "channel": 4,
      "note": 83,
      "start": 0.0,
      "duration": 0.0,
      "velocity": 99,
      "chip": "ym2612"
    },
    {
      "channel": 4,
      "note": 93,
      "start": 0.0,
      "duration": 0.0,
      "velocity": 99,
      "chip": "ym2612"
    },
    {
      "channel": 4,
      "note": 93,
      "start": 0.0,
      "duration": 0.0,
      "velocity": 99,
      "chip": "ym2612"
    },
    {
      "channel": 4,
      "note": 87,
      "start": 0.0,
      "duration": 0.0,
      "velocity": 99,
      "chip": "ym2612"
    },
    {
      "channel": 4,
      "note": 87,
      "start": 0.0,
      "duration": 0.0,
      "velocity": 99,
      "chip": "ym2612"
    },
    {
      "channel": 4,
      "note": 88,
      "start": 0.0,
      "duration": 0.0,
      "velocity": 99,
      "chip": "ym2612"
    },
    {
      "channel": 4,
      "note": 88,
      "start": 0.0,
      "duration": 0.0,
      "velocity": 99,
      "chip": "ym2612"
    },
    {
      "channel": 4,
      "note": 84,
      "start": 0.0,
      "duration": 0.0,
      "velocity": 99,
      "chip": "ym2612"
    },
    {
      "channel": 4,
      "note": 84,
      "start": 0.0,
      "duration": 0.0,
      "velocity": 99,
      "chip": "ym2612"
    },
    {
      "channel": 4,
      "note": 86,
      "start": 0.0,
      "duration": 0.0,
      "velocity": 99,
      "chip": "ym2612"
    },
    {
      "channel": 4,
      "note": 86,
      "start": 0.0,
      "duration": 0.0,
      "velocity": 99,
      "chip": "ym2612"
    },
    {
      "channel": 4,
      "note": 81,
      "start": 0.0,
      "duration": 0.0,
      "velocity": 99,
      "chip": "ym2612"
    },
    {
      "channel": 4,
      "note": 81,
      "start": 0.0,
      "duration": 0.0,
      "velocity": 99,
      "chip": "ym2612"
    },
    {
      "channel": 4,
      "note": 80,
      "start": 0.0,
      "duration": 0.0,
      "velocity": 99,
      "chip": "ym2612"
    },
    {
      "channel": 4,
      "note": 80,
      "start": 0.0,
      "duration": 0.0,
      "velocity": 99,
      "chip": "ym2612"
    },
    {
      "channel": 4,
      "note": 83,
      "start": 0.0,
      "duration": 0.0,
      "velocity": 99,
      "chip": "ym2612"
    },
    {
      "channel": 4,
      "note": 83,
      "start": 0.0,
      "duration": 0.0,
      "velocity": 99,
      "chip": "ym2612"
    },
    {
      "channel": 4,
      "note": 93,
      "start": 0.0,
      "duration": 0.0,
      "velocity": 99,
      "chip": "ym2612"
    },
    {
      "channel": 4,
      "note": 93,
      "start": 0.0,
      "duration": 0.0,
      "velocity": 99,
      "chip": "ym2612"
    },
    {
      "channel": 4,
      "note": 87,
      "start": 0.0,
      "duration": 0.0,
      "velocity": 99,
      "chip": "ym2612"
    },
    {
      "channel": 4,
      "note": 87,
      "start": 0.0,
      "duration": 0.0,
      "velocity": 99,
      "chip": "ym2612"
    },
    {
      "channel": 4,
      "note": 88,
      "start": 0.0,
      "duration": 0.0,
      "velocity": 99,
      "chip": "ym2612"
    },
    {
      "channel": 4,
      "note": 88,
      "start": 0.0,
      "duration": 0.0,
      "velocity": 99,
      "chip": "ym2612"
    },
    {
      "channel": 4,
      "note": 84,
      "start": 0.0,
      "duration": 0.0,
      "velocity": 99,
      "chip": "ym2612"
    },
    {
      "channel": 4,
      "note": 84,
      "start": 0.0,
      "duration": 0.0,
      "velocity": 99,
      "chip": "ym2612"
    },
    {
      "channel": 4,
      "note": 86,
      "start": 0.0,
      "duration": 0.0,
      "velocity": 99,
      "chip": "ym2612"
    },
    {
      "channel": 4,
      "note": 86,
      "start": 0.0,
      "duration": 0.0,
      "velocity": 99,
      "chip": "ym2612"
    },
    {
      "channel": 4,
      "note": 81,
      "start": 0.0,
      "duration": 0.0,
      "velocity": 99,
      "chip": "ym2612"
    },
    {
      "channel": 4,
      "note": 81,
      "start": 0.0,
      "duration": 0.0,
      "velocity": 99,
      "chip": "ym2612"
    },
    {
      "channel": 4,
      "note": 80,
      "start": 0.0,
      "duration": 0.0,
      "velocity": 99,
      "chip": "ym2612"
    },
    {
      "channel": 4,
      "note": 80,
      "start": 0.0,
      "duration": 0.0,
      "velocity": 99,
      "chip": "ym2612"
    },
    {
      "channel": 4,
      "note": 83,
      "start": 0.0,
      "duration": 0.0,
      "velocity": 99,
      "chip": "ym2612"
    },
    {
      "channel": 4,
      "note": 83,
      "start": 0.0,
      "duration": 0.0,
      "velocity": 99,
      "chip": "ym2612"
    },
    {
      "channel": 4,
      "note": 62,
      "start": 0.0,
      "duration": 0.0,
      "velocity": 97,
      "chip": "ym2612"
    },
    {
      "channel": 4,
      "note": 66,
      "start": 0.0,
      "duration": 0.0,
      "velocity": 97,
      "chip": "ym2612"
    },
    {
      "channel": 0,
      "note": 57,
      "start": 0.0507,
      "duration": 0.0289,
      "velocity": 99,
      "chip": "ym2612"
    },
    {
      "channel": 2,
      "note": 93,
      "start": 0.0567,
      "duration": 0.0237,
      "velocity": 99,
      "chip": "ym2612"
    },
    {
      "channel": 4,
      "note": 93,
      "start": 0.063,
      "duration": 0.0184,
      "velocity": 99,
      "chip": "ym2612"
    },
    {
      "channel": 0,
      "note": 57,
      "start": 0.0802,
      "duration": 0.0233,
      "velocity": 99,
      "chip": "ym2612"
    },
    {
      "channel": 2,
      "note": 93,
      "start": 0.081,
      "duration": 0.0233,
      "velocity": 99,
      "chip": "ym2612"
    },
    {
      "channel": 4,
      "note": 93,
      "start": 0.0819,
      "duration": 0.0239,
      "velocity": 99,
      "chip": "ym2612"
    },
    {
      "channel": 0,
      "note": 60,
      "start": 0.1041,
      "duration": 0.1161,
      "velocity": 99,
      "chip": "ym2612"
    },
    {
      "channel": 2,
      "note": 87,
      "start": 0.1049,
      "duration": 0.1161,
      "velocity": 99,
      "chip": "ym2612"
    },
    {
      "channel": 4,
      "note": 87,
      "start": 0.1064,
      "duration": 0.1155,
      "velocity": 99,
      "chip": "ym2612"
    },
    {
      "channel": 0,
      "note": 60,
      "start": 0.2208,
      "duration": 0.1187,
      "velocity": 99,
      "chip": "ym2612"
    },
    {
      "channel": 2,
      "note": 87,
      "start": 0.2215,
      "duration": 0.1187,
      "velocity": 99,
      "chip": "ym2612"
    },
    {
      "channel": 4,
      "note": 87,
      "start": 0.2225,
      "duration": 0.1186,
      "velocity": 99,
      "chip": "ym2612"
    },
    {
      "channel": 0,
      "note": 59,
      "start": 0.34,
      "duration": 0.0205,
      "velocity": 99,
      "chip": "ym2612"
    },
    {
      "channel": 2,
      "note": 88,
      "start": 0.3408,
      "duration": 0.0205,
      "velocity": 99,
      "chip": "ym2612"
    },
    {
      "channel": 4,
      "note": 88,
      "start": 0.3417,
      "duration": 0.0205,
      "velocity": 99,
      "chip": "ym2612"
    },
    {
      "channel": 0,
      "note": 59,
      "start": 0.361,
      "duration": 0.048,
      "velocity": 99,
      "chip": "ym2612"
    },
    {
      "channel": 2,
      "note": 88,
      "start": 0.3619,
      "duration": 0.0479,
      "velocity": 99,
      "chip": "ym2612"
    },
    {
      "channel": 4,
      "note": 88,
      "start": 0.3627,
      "duration": 0.048,
      "velocity": 99,
      "chip": "ym2612"
    },
    {
      "channel": 0,
      "note": 62,
      "start": 0.4095,
      "duration": 0.1161,
      "velocity": 99,
      "chip": "ym2612"
    },
    {
      "channel": 2,
      "note": 84,
      "start": 0.4103,
      "duration": 0.1161,
      "velocity": 99,
      "chip": "ym2612"
    },
    {
      "channel": 4,
      "note": 84,
      "start": 0.4113,
      "duration": 0.1161,
      "velocity": 99,
      "chip": "ym2612"
    },
    {
      "channel": 0,
      "note": 62,
      "start": 0.5262,
      "duration": 0.102,
      "velocity": 99,
      "chip": "ym2612"
    },
    {
      "channel": 2,
      "note": 84,
      "start": 0.527,
      "duration": 0.102,
      "velocity": 99,
      "chip": "ym2612"
    },
    {
      "channel": 4,
      "note": 84,
      "start": 0.5279,
      "duration": 0.102,
      "velocity": 99,
      "chip": "ym2612"
    },
    {
      "channel": 0,
      "note": 60,
      "start": 0.6288,
      "duration": 0.0208,
      "velocity": 99,
      "chip": "ym2612"
    },
    {
      "channel": 2,
      "note": 86,
      "start": 0.6296,
      "duration": 0.0207,
      "velocity": 99,
      "chip": "ym2612"
    },
    {
      "channel": 4,
      "note": 86,
      "start": 0.6305,
      "duration": 0.0207,
      "velocity": 99,
      "chip": "ym2612"
    },
    {
      "channel": 0,
      "note": 60,
      "start": 0.6501,
      "duration": 0.0477,
      "velocity": 99,
      "chip": "ym2612"
    },
    {
      "channel": 2,
      "note": 86,
      "start": 0.6509,
      "duration": 0.0476,
      "velocity": 99,
      "chip": "ym2612"
    },
    {
      "channel": 4,
      "note": 86,
      "start": 0.6518,
      "duration": 0.0477,
      "velocity": 99,
      "chip": "ym2612"
    },
    {
      "channel": 0,
      "note": 64,
      "start": 0.6983,
      "duration": 0.1161,
      "velocity": 99,
      "chip": "ym2612"
    },
    {
      "channel": 2,
      "note": 81,
      "start": 0.6991,
      "duration": 0.1161,
      "velocity": 99,
      "chip": "ym2612"
    },
    {
      "channel": 4,
      "note": 81,
      "start": 0.7,
      "duration": 0.1161,
      "velocity": 99,
      "chip": "ym2612"
    },
    {
      "channel": 0,
      "note": 64,
      "start": 0.815,
      "duration": 0.1187,
      "velocity": 99,
      "chip": "ym2612"
    },
    {
      "channel": 2,
      "note": 81,
      "start": 0.8158,
      "duration": 0.1187,
      "velocity": 99,
      "chip": "ym2612"
    },
    {
      "channel": 4,
      "note": 81,
      "start": 0.8167,
      "duration": 0.1186,
      "velocity": 99,
      "chip": "ym2612"
    },
    {
      "channel": 0,
      "note": 62,
      "start": 0.9342,
      "duration": 0.0208,
      "velocity": 99,
      "chip": "ym2612"
    },
    {
      "channel": 2,
      "note": 80,
      "start": 0.935,
      "duration": 0.0207,
      "velocity": 99,
      "chip": "ym2612"
    },
    {
      "channel": 4,
      "note": 80,
      "start": 0.9359,
      "duration": 0.0207,
      "velocity": 99,
      "chip": "ym2612"
    },
    {
      "channel": 0,
      "note": 62,
      "start": 0.9555,
      "duration": 0.0477,
      "velocity": 99,
      "chip": "ym2612"
    },
    {
      "channel": 2,
      "note": 80,
      "start": 0.9563,
      "duration": 0.0476,
      "velocity": 99,
      "chip": "ym2612"
    },
    {
      "channel": 4,
      "note": 80,
      "start": 0.9572,
      "duration": 0.0477,
      "velocity": 99,
      "chip": "ym2612"
    },
    {
      "channel": 0,
      "note": 65,
      "start": 1.0037,
      "duration": 0.0994,
      "velocity": 99,
      "chip": "ym2612"
    },
    {
      "channel": 2,
      "note": 83,
      "start": 1.0045,
      "duration": 0.0994,
      "velocity": 99,
      "chip": "ym2612"
    },
    {
      "channel": 4,
      "note": 83,
      "start": 1.0055,
      "duration": 0.0994,
      "velocity": 99,
      "chip": "ym2612"
    },
    {
      "channel": 0,
      "note": 65,
      "start": 1.1037,
      "duration": 0.1188,
      "velocity": 99,
      "chip": "ym2612"
    },
    {
      "channel": 2,
      "note": 83,
      "start": 1.1045,
      "duration": 0.1191,
      "velocity": 99,
      "chip": "ym2612"
    },
    {
      "channel": 4,
      "note": 83,
      "start": 1.1055,
      "duration": 0.1191,
      "velocity": 99,
      "chip": "ym2612"
    },
    {
      "channel": 0,
      "note": 57,
      "start": 1.2231,
      "duration": 0.021,
      "velocity": 99,
      "chip": "ym2612"
    },
    {
      "channel": 2,
      "note": 93,
      "start": 1.2242,
      "duration": 0.0206,
      "velocity": 99,
      "chip": "ym2612"
    },
    {
      "channel": 4,
      "note": 93,
      "start": 1.2252,
      "duration": 0.0205,
      "velocity": 99,
      "chip": "ym2612"
    },
    {
      "channel": 0,
      "note": 57,
      "start": 1.2446,
      "duration": 0.0473,
      "velocity": 99,
      "chip": "ym2612"
    },
    {
      "channel": 2,
      "note": 93,
      "start": 1.2454,
      "duration": 0.0473,
      "velocity": 99,
      "chip": "ym2612"
    },
    {
      "channel": 4,
      "note": 93,
      "start": 1.2463,
      "duration": 0.0475,
      "velocity": 99,
      "chip": "ym2612"
    },
    {
      "channel": 0,
      "note": 60,
      "start": 1.2925,
      "duration": 0.1161,
      "velocity": 99,
      "chip": "ym2612"
    },
    {
      "channel": 2,
      "note": 87,
      "start": 1.2932,
      "duration": 0.1161,
      "velocity": 99,
      "chip": "ym2612"
    },
    {
      "channel": 4,
      "note": 87,
      "start": 1.2944,
      "duration": 0.1159,
      "velocity": 99,
      "chip": "ym2612"
    },
    {
      "channel": 0,
      "note": 60,
      "start": 1.4091,
      "duration": 0.1187,
      "velocity": 99,
      "chip": "ym2612"
    },
    {
      "channel": 2,
      "note": 87,
      "start": 1.4099,
      "duration": 0.1187,
      "velocity": 99,
      "chip": "ym2612"
    },
    {
      "channel": 4,
      "note": 87,
      "start": 1.4109,
      "duration": 0.1186,
      "velocity": 99,
      "chip": "ym2612"
    },
    {
      "channel": 0,
      "note": 59,
      "start": 1.5283,
      "duration": 0.0195,
      "velocity": 99,
      "chip": "ym2612"
    },
    {
      "channel": 2,
      "note": 88,
      "start": 1.5292,
      "duration": 0.0195,
      "velocity": 99,
      "chip": "ym2612"
    },
    {
      "channel": 4,
      "note": 88,
      "start": 1.5301,
      "duration": 0.0195,
      "velocity": 99,
      "chip": "ym2612"
    },
    {
      "channel": 0,
      "note": 59,
      "start": 1.5484,
      "duration": 0.0323,
      "velocity": 99,
      "chip": "ym2612"
    },
    {
      "channel": 2,
      "note": 88,
      "start": 1.5492,
      "duration": 0.0323,
      "velocity": 99,
      "chip": "ym2612"
    },
    {
      "channel": 4,
      "note": 88,
      "start": 1.5502,
      "duration": 0.0323,
      "velocity": 99,
      "chip": "ym2612"
    },
    {
      "channel": 0,
      "note": 62,
      "start": 1.5813,
      "duration": 0.1161,
      "velocity": 99,
      "chip": "ym2612"
    },
    {
      "channel": 2,
      "note": 84,
      "start": 1.582,
      "duration": 0.1161,
      "velocity": 99,
      "chip": "ym2612"
    },
    {
      "channel": 4,
      "note": 84,
      "start": 1.583,
      "duration": 0.1161,
      "velocity": 99,
      "chip": "ym2612"
    },
    {
      "channel": 0,
      "note": 62,
      "start": 1.6979,
      "duration": 0.1187,
      "velocity": 99,
      "chip": "ym2612"
    },
    {
      "channel": 2,
      "note": 84,
      "start": 1.6987,
      "duration": 0.1187,
      "velocity": 99,
      "chip": "ym2612"
    },
    {
      "channel": 4,
      "note": 84,
      "start": 1.6997,
      "duration": 0.1186,
      "velocity": 99,
      "chip": "ym2612"
    },
    {
      "channel": 0,
      "note": 60,
      "start": 1.8171,
      "duration": 0.0195,
      "velocity": 99,
      "chip": "ym2612"
    },
    {
      "channel": 2,
      "note": 86,
      "start": 1.818,
      "duration": 0.0194,
      "velocity": 99,
      "chip": "ym2612"
    },
    {
      "channel": 4,
      "note": 86,
      "start": 1.8189,
      "duration": 0.0195,
      "velocity": 99,
      "chip": "ym2612"
    },
    {
      "channel": 0,
      "note": 60,
      "start": 1.8372,
      "duration": 0.0489,
      "velocity": 99,
      "chip": "ym2612"
    },
    {
      "channel": 2,
      "note": 86,
      "start": 1.838,
      "duration": 0.0489,
      "velocity": 99,
      "chip": "ym2612"
    },
    {
      "channel": 4,
      "note": 86,
      "start": 1.8389,
      "duration": 0.0489,
      "velocity": 99,
      "chip": "ym2612"
    },
    {
      "channel": 0,
      "note": 64,
      "start": 1.8867,
      "duration": 0.1161,
      "velocity": 99,
      "chip": "ym2612"
    },
    {
      "channel": 2,
      "note": 81,
      "start": 1.8875,
      "duration": 0.1161,
      "velocity": 99,
      "chip": "ym2612"
    },
    {
      "channel": 4,
      "note": 81,
      "start": 1.8884,
      "duration": 0.1161,
      "velocity": 99,
      "chip": "ym2612"
    },
    {
      "channel": 0,
      "note": 64,
      "start": 2.0034,
      "duration": 0.1187,
      "velocity": 99,
      "chip": "ym2612"
    },
    {
      "channel": 2,
      "note": 81,
      "start": 2.0041,
      "duration": 0.1187,
      "velocity": 99,
      "chip": "ym2612"
    },
    {
      "channel": 4,
      "note": 81,
      "start": 2.0051,
      "duration": 0.1186,
      "velocity": 99,
      "chip": "ym2612"
    },
    {
      "channel": 0,
      "note": 62,
      "start": 2.1226,
      "duration": 0.0169,
      "velocity": 99,
      "chip": "ym2612"
    },
    {
      "channel": 2,
      "note": 80,
      "start": 2.1234,
      "duration": 0.0168,
      "velocity": 99,
      "chip": "ym2612"
    },
    {
      "channel": 4,
      "note": 80,
      "start": 2.1243,
      "duration": 0.0168,
      "velocity": 99,
      "chip": "ym2612"
    },
    {
      "channel": 0,
      "note": 62,
      "start": 2.14,
      "duration": 0.0349,
      "velocity": 99,
      "chip": "ym2612"
    },
    {
      "channel": 2,
      "note": 80,
      "start": 2.1408,
      "duration": 0.0349,
      "velocity": 99,
      "chip": "ym2612"
    },
    {
      "channel": 4,
      "note": 80,
      "start": 2.1417,
      "duration": 0.0349,
      "velocity": 99,
      "chip": "ym2612"
    },
    {
      "channel": 0,
      "note": 65,
      "start": 2.1755,
      "duration": 0.1161,
      "velocity": 99,
      "chip": "ym2612"
    },
    {
      "channel": 2,
      "note": 83,
      "start": 2.1762,
      "duration": 0.1161,
      "velocity": 99,
      "chip": "ym2612"
    },
    {
      "channel": 4,
      "note": 83,
      "start": 2.1772,
      "duration": 0.1161,
      "velocity": 99,
      "chip": "ym2612"
    },
    {
      "channel": 0,
      "note": 65,
      "start": 2.2921,
      "duration": 0.1188,
      "velocity": 99,
      "chip": "ym2612"
    },
    {
      "channel": 2,
      "note": 83,
      "start": 2.2929,
      "duration": 0.1191,
      "velocity": 99,
      "chip": "ym2612"
    },
    {
      "channel": 4,
      "note": 83,
      "start": 2.2939,
      "duration": 0.1191,
      "velocity": 99,
      "chip": "ym2612"
    },
    {
      "channel": 0,
      "note": 57,
      "start": 2.4115,
      "duration": 0.0213,
      "velocity": 99,
      "chip": "ym2612"
    },
    {
      "channel": 2,
      "note": 93,
      "start": 2.4126,
      "duration": 0.0209,
      "velocity": 99,
      "chip": "ym2612"
    },
    {
      "channel": 4,
      "note": 93,
      "start": 2.4136,
      "duration": 0.0208,
      "velocity": 99,
      "chip": "ym2612"
    },
    {
      "channel": 0,
      "note": 57,
      "start": 2.4333,
      "duration": 0.0471,
      "velocity": 99,
      "chip": "ym2612"
    },
    {
      "channel": 2,
      "note": 93,
      "start": 2.4341,
      "duration": 0.047,
      "velocity": 99,
      "chip": "ym2612"
    },
    {
      "channel": 4,
      "note": 93,
      "start": 2.435,
      "duration": 0.0473,
      "velocity": 99,
      "chip": "ym2612"
    },
    {
      "channel": 0,
      "note": 60,
      "start": 2.4809,
      "duration": 0.1161,
      "velocity": 99,
      "chip": "ym2612"
    },
    {
      "channel": 2,
      "note": 87,
      "start": 2.4817,
      "duration": 0.1161,
      "velocity": 99,
      "chip": "ym2612"
    },
    {
      "channel": 4,
      "note": 87,
      "start": 2.4828,
      "duration": 0.1159,
      "velocity": 99,
      "chip": "ym2612"
    },
    {
      "channel": 0,
      "note": 60,
      "start": 2.5976,
      "duration": 0.102,
      "velocity": 99,
      "chip": "ym2612"
    },
    {
      "channel": 2,
      "note": 87,
      "start": 2.5984,
      "duration": 0.102,
      "velocity": 99,
      "chip": "ym2612"
    },
    {
      "channel": 4,
      "note": 87,
      "start": 2.5993,
      "duration": 0.102,
      "velocity": 99,
      "chip": "ym2612"
    },
    {
      "channel": 0,
      "note": 59,
      "start": 2.7001,
      "duration": 0.0205,
      "velocity": 99,
      "chip": "ym2612"
    },
    {
      "channel": 2,
      "note": 88,
      "start": 2.701,
      "duration": 0.0205,
      "velocity": 99,
      "chip": "ym2612"
    },
    {
      "channel": 4,
      "note": 88,
      "start": 2.7019,
      "duration": 0.0205,
      "velocity": 99,
      "chip": "ym2612"
    },
    {
      "channel": 0,
      "note": 59,
      "start": 2.7212,
      "duration": 0.048,
      "velocity": 99,
      "chip": "ym2612"
    },
    {
      "channel": 2,
      "note": 88,
      "start": 2.722,
      "duration": 0.0479,
      "velocity": 99,
      "chip": "ym2612"
    },
    {
      "channel": 4,
      "note": 88,
      "start": 2.7229,
      "duration": 0.048,
      "velocity": 99,
      "chip": "ym2612"
    },
    {
      "channel": 0,
      "note": 62,
      "start": 2.7697,
      "duration": 0.1161,
      "velocity": 99,
      "chip": "ym2612"
    },
    {
      "channel": 2,
      "note": 84,
      "start": 2.7705,
      "duration": 0.1161,
      "velocity": 99,
      "chip": "ym2612"
    },
    {
      "channel": 4,
      "note": 84,
      "start": 2.7715,
      "duration": 0.1161,
      "velocity": 99,
      "chip": "ym2612"
    },
    {
      "channel": 0,
      "note": 62,
      "start": 2.8864,
      "duration": 0.1187,
      "velocity": 99,
      "chip": "ym2612"
    },
    {
      "channel": 2,
      "note": 84,
      "start": 2.8872,
      "duration": 0.1187,
      "velocity": 99,
      "chip": "ym2612"
    },
    {
      "channel": 4,
      "note": 84,
      "start": 2.8881,
      "duration": 0.1186,
      "velocity": 99,
      "chip": "ym2612"
    },
    {
      "channel": 0,
      "note": 60,
      "start": 3.0056,
      "duration": 0.0208,
      "velocity": 99,
      "chip": "ym2612"
    },
    {
      "channel": 2,
      "note": 86,
      "start": 3.0064,
      "duration": 0.0207,
      "velocity": 99,
      "chip": "ym2612"
    },
    {
      "channel": 4,
      "note": 86,
      "start": 3.0073,
      "duration": 0.0207,
      "velocity": 99,
      "chip": "ym2612"
    },
    {
      "channel": 0,
      "note": 60,
      "start": 3.0269,
      "duration": 0.0477,
      "velocity": 99,
      "chip": "ym2612"
    },
    {
      "channel": 2,
      "note": 86,
      "start": 3.0277,
      "duration": 0.0476,
      "velocity": 99,
      "chip": "ym2612"
    },
    {
      "channel": 4,
      "note": 86,
      "start": 3.0286,
      "duration": 0.0477,
      "velocity": 99,
      "chip": "ym2612"
    },
    {
      "channel": 0,
      "note": 64,
      "start": 3.0751,
      "duration": 0.0994,
      "velocity": 99,
      "chip": "ym2612"
    },
    {
      "channel": 2,
      "note": 81,
      "start": 3.0759,
      "duration": 0.0994,
      "velocity": 99,
      "chip": "ym2612"
    },
    {
      "channel": 4,
      "note": 81,
      "start": 3.0768,
      "duration": 0.0994,
      "velocity": 99,
      "chip": "ym2612"
    },
    {
      "channel": 0,
      "note": 64,
      "start": 3.1751,
      "duration": 0.1187,
      "velocity": 99,
      "chip": "ym2612"
    },
    {
      "channel": 2,
      "note": 81,
      "start": 3.1759,
      "duration": 0.1187,
      "velocity": 99,
      "chip": "ym2612"
    },
    {
      "channel": 4,
      "note": 81,
      "start": 3.1768,
      "duration": 0.1186,
      "velocity": 99,
      "chip": "ym2612"
    },
    {
      "channel": 0,
      "note": 62,
      "start": 3.2943,
      "duration": 0.0208,
      "velocity": 99,
      "chip": "ym2612"
    },
    {
      "channel": 2,
      "note": 80,
      "start": 3.2952,
      "duration": 0.0207,
      "velocity": 99,
      "chip": "ym2612"
    },
    {
      "channel": 4,
      "note": 80,
      "start": 3.2961,
      "duration": 0.0207,
      "velocity": 99,
      "chip": "ym2612"
    },
    {
      "channel": 0,
      "note": 62,
      "start": 3.3156,
      "duration": 0.0477,
      "velocity": 99,
      "chip": "ym2612"
    },
    {
      "channel": 2,
      "note": 80,
      "start": 3.3165,
      "duration": 0.0476,
      "velocity": 99,
      "chip": "ym2612"
    },
    {
      "channel": 4,
      "note": 80,
      "start": 3.3174,
      "duration": 0.0477,
      "velocity": 99,
      "chip": "ym2612"
    },
    {
      "channel": 0,
      "note": 65,
      "start": 3.3639,
      "duration": 0.1161,
      "velocity": 99,
      "chip": "ym2612"
    },
    {
      "channel": 2,
      "note": 83,
      "start": 3.3646,
      "duration": 0.1161,
      "velocity": 99,
      "chip": "ym2612"
    },
    {
      "channel": 4,
      "note": 83,
      "start": 3.3656,
      "duration": 0.1161,
      "velocity": 99,
      "chip": "ym2612"
    },
    {
      "channel": 0,
      "note": 65,
      "start": 3.4805,
      "duration": 0.1188,
      "velocity": 99,
      "chip": "ym2612"
    },
    {
      "channel": 2,
      "note": 83,
      "start": 3.4813,
      "duration": 0.1191,
      "velocity": 99,
      "chip": "ym2612"
    },
    {
      "channel": 4,
      "note": 83,
      "start": 3.4823,
      "duration": 0.1191,
      "velocity": 99,
      "chip": "ym2612"
    },
    {
      "channel": 0,
      "note": 57,
      "start": 3.5999,
      "duration": 0.0209,
      "velocity": 99,
      "chip": "ym2612"
    },
    {
      "channel": 2,
      "note": 93,
      "start": 3.601,
      "duration": 0.0205,
      "velocity": 99,
      "chip": "ym2612"
    },
    {
      "channel": 4,
      "note": 93,
      "start": 3.602,
      "duration": 0.0204,
      "velocity": 99,
      "chip": "ym2612"
    },
    {
      "channel": 0,
      "note": 57,
      "start": 3.6213,
      "duration": 0.0307,
      "velocity": 99,
      "chip": "ym2612"
    },
    {
      "channel": 2,
      "note": 93,
      "start": 3.6222,
      "duration": 0.0306,
      "velocity": 99,
      "chip": "ym2612"
    },
    {
      "channel": 4,
      "note": 93,
      "start": 3.623,
      "duration": 0.0309,
      "velocity": 99,
      "chip": "ym2612"
    },
    {
      "channel": 0,
      "note": 60,
      "start": 3.6526,
      "duration": 0.1161,
      "velocity": 99,
      "chip": "ym2612"
    },
    {
      "channel": 2,
      "note": 87,
      "start": 3.6533,
      "duration": 0.1161,
      "velocity": 99,
      "chip": "ym2612"
    },
    {
      "channel": 4,
      "note": 87,
      "start": 3.6545,
      "duration": 0.1159,
      "velocity": 99,
      "chip": "ym2612"
    },
    {
      "channel": 0,
      "note": 60,
      "start": 3.7692,
      "duration": 0.1187,
      "velocity": 99,
      "chip": "ym2612"
    },
    {
      "channel": 2,
      "note": 87,
      "start": 3.77,
      "duration": 0.1187,
      "velocity": 99,
      "chip": "ym2612"
    },
    {
      "channel": 4,
      "note": 87,
      "start": 3.771,
      "duration": 0.1186,
      "velocity": 99,
      "chip": "ym2612"
    },
    {
      "channel": 0,
      "note": 59,
      "start": 3.8884,
      "duration": 0.0205,
      "velocity": 99,
      "chip": "ym2612"
    },
    {
      "channel": 2,
      "note": 88,
      "start": 3.8893,
      "duration": 0.0205,
      "velocity": 99,
      "chip": "ym2612"
    },
    {
      "channel": 4,
      "note": 88,
      "start": 3.8902,
      "duration": 0.0205,
      "velocity": 99,
      "chip": "ym2612"
    },
    {
      "channel": 0,
      "note": 59,
      "start": 3.9095,
      "duration": 0.048,
      "velocity": 99,
      "chip": "ym2612"
    },
    {
      "channel": 2,
      "note": 88,
      "start": 3.9103,
      "duration": 0.0479,
      "velocity": 99,
      "chip": "ym2612"
    },
    {
      "channel": 4,
      "note": 88,
      "start": 3.9112,
      "duration": 0.048,
      "velocity": 99,
      "chip": "ym2612"
    },
    {
      "channel": 0,
      "note": 62,
      "start": 3.958,
      "duration": 0.1161,
      "velocity": 99,
      "chip": "ym2612"
    },
    {
      "channel": 2,
      "note": 84,
      "start": 3.9588,
      "duration": 0.1161,
      "velocity": 99,
      "chip": "ym2612"
    },
    {
      "channel": 4,
      "note": 84,
      "start": 3.9598,
      "duration": 0.1161,
      "velocity": 99,
      "chip": "ym2612"
    },
    {
      "channel": 0,
      "note": 62,
      "start": 4.0747,
      "duration": 0.1187,
      "velocity": 99,
      "chip": "ym2612"
    },
    {
      "channel": 2,
      "note": 84,
      "start": 4.0755,
      "duration": 0.1187,
      "velocity": 99,
      "chip": "ym2612"
    },
    {
      "channel": 4,
      "note": 84,
      "start": 4.0764,
      "duration": 0.1186,
      "velocity": 99,
      "chip": "ym2612"
    },
    {
      "channel": 0,
      "note": 60,
      "start": 4.1939,
      "duration": 0.0179,
      "velocity": 99,
      "chip": "ym2612"
    },
    {
      "channel": 2,
      "note": 86,
      "start": 4.1947,
      "duration": 0.0178,
      "velocity": 99,
      "chip": "ym2612"
    },
    {
      "channel": 4,
      "note": 86,
      "start": 4.1956,
      "duration": 0.0178,
      "velocity": 99,
      "chip": "ym2612"
    },
    {
      "channel": 0,
      "note": 60,
      "start": 4.2123,
      "duration": 0.034,
      "velocity": 99,
      "chip": "ym2612"
    },
    {
      "channel": 2,
      "note": 86,
      "start": 4.2131,
      "duration": 0.0339,
      "velocity": 99,
      "chip": "ym2612"
    },
    {
      "channel": 4,
      "note": 86,
      "start": 4.214,
      "duration": 0.034,
      "velocity": 99,
      "chip": "ym2612"
    },
    {
      "channel": 0,
      "note": 64,
      "start": 4.2468,
      "duration": 0.1161,
      "velocity": 99,
      "chip": "ym2612"
    },
    {
      "channel": 2,
      "note": 81,
      "start": 4.2476,
      "duration": 0.1161,
      "velocity": 99,
      "chip": "ym2612"
    },
    {
      "channel": 4,
      "note": 81,
      "start": 4.2486,
      "duration": 0.1161,
      "velocity": 99,
      "chip": "ym2612"
    },
    {
      "channel": 0,
      "note": 64,
      "start": 4.3635,
      "duration": 0.1187,
      "velocity": 99,
      "chip": "ym2612"
    },
    {
      "channel": 2,
      "note": 81,
      "start": 4.3643,
      "duration": 0.1187,
      "velocity": 99,
      "chip": "ym2612"
    },
    {
      "channel": 4,
      "note": 81,
      "start": 4.3652,
      "duration": 0.1186,
      "velocity": 99,
      "chip": "ym2612"
    },
    {
      "channel": 0,
      "note": 62,
      "start": 4.4827,
      "duration": 0.0205,
      "velocity": 99,
      "chip": "ym2612"
    },
    {
      "channel": 2,
      "note": 80,
      "start": 4.4836,
      "duration": 0.0204,
      "velocity": 99,
      "chip": "ym2612"
    },
    {
      "channel": 4,
      "note": 80,
      "start": 4.4844,
      "duration": 0.0204,
      "velocity": 99,
      "chip": "ym2612"
    },
    {
      "channel": 0,
      "note": 62,
      "start": 4.5037,
      "duration": 0.048,
      "velocity": 99,
      "chip": "ym2612"
    },
    {
      "channel": 2,
      "note": 80,
      "start": 4.5046,
      "duration": 0.0479,
      "velocity": 99,
      "chip": "ym2612"
    },
    {
      "channel": 4,
      "note": 80,
      "start": 4.5054,
      "duration": 0.048,
      "velocity": 99,
      "chip": "ym2612"
    },
    {
      "channel": 0,
      "note": 65,
      "start": 4.5523,
      "duration": 0.1161,
      "velocity": 99,
      "chip": "ym2612"
    },
    {
      "channel": 2,
      "note": 83,
      "start": 4.553,
      "duration": 0.1161,
      "velocity": 99,
      "chip": "ym2612"
    },
    {
      "channel": 4,
      "note": 83,
      "start": 4.554,
      "duration": 0.1161,
      "velocity": 99,
      "chip": "ym2612"
    },
    {
      "channel": 0,
      "note": 65,
      "start": 4.6689,
      "duration": 0.1021,
      "velocity": 99,
      "chip": "ym2612"
    },
    {
      "channel": 2,
      "note": 83,
      "start": 4.6697,
      "duration": 0.1029,
      "velocity": 99,
      "chip": "ym2612"
    },
    {
      "channel": 4,
      "note": 83,
      "start": 4.6707,
      "duration": 0.1029,
      "velocity": 99,
      "chip": "ym2612"
    },
    {
      "channel": 0,
      "note": 57,
      "start": 4.7716,
      "duration": 0.0215,
      "velocity": 99,
      "chip": "ym2612"
    },
    {
      "channel": 1,
      "note": 80,
      "start": 4.7723,
      "duration": 0.3744,
      "velocity": 117,
      "chip": "ym2612"
    },
    {
      "channel": 2,
      "note": 93,
      "start": 4.7731,
      "duration": 0.0209,
      "velocity": 99,
      "chip": "ym2612"
    },
    {
      "channel": 4,
      "note": 93,
      "start": 4.7741,
      "duration": 0.0209,
      "velocity": 99,
      "chip": "ym2612"
    },
    {
      "channel": 0,
      "note": 57,
      "start": 4.7936,
      "duration": 0.0469,
      "velocity": 99,
      "chip": "ym2612"
    },
    {
      "channel": 2,
      "note": 93,
      "start": 4.7947,
      "duration": 0.0468,
      "velocity": 99,
      "chip": "ym2612"
    },
    {
      "channel": 4,
      "note": 93,
      "start": 4.7956,
      "duration": 0.0475,
      "velocity": 99,
      "chip": "ym2612"
    },
    {
      "channel": 0,
      "note": 60,
      "start": 4.8411,
      "duration": 0.1161,
      "velocity": 99,
      "chip": "ym2612"
    },
    {
      "channel": 2,
      "note": 87,
      "start": 4.8421,
      "duration": 0.1161,
      "velocity": 99,
      "chip": "ym2612"
    },
    {
      "channel": 3,
      "note": 80,
      "start": 4.8428,
      "duration": 0.5242,
      "velocity": 117,
      "chip": "ym2612"
    },
    {
      "channel": 4,
      "note": 87,
      "start": 4.8436,
      "duration": 0.1157,
      "velocity": 99,
      "chip": "ym2612"
    },
    {
      "channel": 0,
      "note": 60,
      "start": 4.9577,
      "duration": 0.1187,
      "velocity": 99,
      "chip": "ym2612"
    },
    {
      "channel": 2,
      "note": 87,
      "start": 4.9588,
      "duration": 0.1186,
      "velocity": 99,
      "chip": "ym2612"
    },
    {
      "channel": 4,
      "note": 87,
      "start": 4.9599,
      "duration": 0.1186,
      "velocity": 99,
      "chip": "ym2612"
    },
    {
      "channel": 0,
      "note": 59,
      "start": 5.0769,
      "duration": 0.0238,
      "velocity": 99,
      "chip": "ym2612"
    },
    {
      "channel": 2,
      "note": 88,
      "start": 5.078,
      "duration": 0.0238,
      "velocity": 99,
      "chip": "ym2612"
    },
    {
      "channel": 4,
      "note": 88,
      "start": 5.0791,
      "duration": 0.0238,
      "velocity": 99,
      "chip": "ym2612"
    },
    {
      "channel": 0,
      "note": 59,
      "start": 5.1013,
      "duration": 0.0446,
      "velocity": 99,
      "chip": "ym2612"
    },
    {
      "channel": 2,
      "note": 88,
      "start": 5.1024,
      "duration": 0.045,
      "velocity": 99,
      "chip": "ym2612"
    },
    {
      "channel": 4,
      "note": 88,
      "start": 5.1035,
      "duration": 0.045,
      "velocity": 99,
      "chip": "ym2612"
    },
    {
      "channel": 0,
      "note": 62,
      "start": 5.1466,
      "duration": 0.0994,
      "velocity": 99,
      "chip": "ym2612"
    },
    {
      "channel": 1,
      "note": 72,
      "start": 5.1473,
      "duration": 0.5242,
      "velocity": 117,
      "chip": "ym2612"
    },
    {
      "channel": 2,
      "note": 84,
      "start": 5.148,
      "duration": 0.099,
      "velocity": 99,
      "chip": "ym2612"
    },
    {
      "channel": 4,
      "note": 84,
      "start": 5.1491,
      "duration": 0.099,
      "velocity": 99,
      "chip": "ym2612"
    },
    {
      "channel": 0,
      "note": 62,
      "start": 5.2466,
      "duration": 0.1187,
      "velocity": 99,
      "chip": "ym2612"
    },
    {
      "channel": 2,
      "note": 84,
      "start": 5.2476,
      "duration": 0.1186,
      "velocity": 99,
      "chip": "ym2612"
    },
    {
      "channel": 4,
      "note": 84,
      "start": 5.2487,
      "duration": 0.1191,
      "velocity": 99,
      "chip": "ym2612"
    },
    {
      "channel": 0,
      "note": 60,
      "start": 5.3658,
      "duration": 0.0243,
      "velocity": 99,
      "chip": "ym2612"
    },
    {
      "channel": 2,
      "note": 86,
      "start": 5.3668,
      "duration": 0.0243,
      "velocity": 99,
      "chip": "ym2612"
    },
    {
      "channel": 3,
      "note": 72,
      "start": 5.3675,
      "duration": 0.3578,
      "velocity": 117,
      "chip": "ym2612"
    },
    {
      "channel": 4,
      "note": 86,
      "start": 5.3684,
      "duration": 0.0239,
      "velocity": 99,
      "chip": "ym2612"
    },
    {
      "channel": 0,
      "note": 60,
      "start": 5.3906,
      "duration": 0.0442,
      "velocity": 99,
      "chip": "ym2612"
    },
    {
      "channel": 2,
      "note": 86,
      "start": 5.3917,
      "duration": 0.0442,
      "velocity": 99,
      "chip": "ym2612"
    },
    {
      "channel": 4,
      "note": 86,
      "start": 5.3928,
      "duration": 0.0441,
      "velocity": 99,
      "chip": "ym2612"
    },
    {
      "channel": 0,
      "note": 64,
      "start": 5.4354,
      "duration": 0.1161,
      "velocity": 99,
      "chip": "ym2612"
    },
    {
      "channel": 2,
      "note": 81,
      "start": 5.4364,
      "duration": 0.1161,
      "velocity": 99,
      "chip": "ym2612"
    },
    {
      "channel": 4,
      "note": 81,
      "start": 5.4376,
      "duration": 0.1161,
      "velocity": 99,
      "chip": "ym2612"
    },
    {
      "channel": 0,
      "note": 64,
      "start": 5.552,
      "duration": 0.1187,
      "velocity": 99,
      "chip": "ym2612"
    },
    {
      "channel": 2,
      "note": 81,
      "start": 5.5531,
      "duration": 0.1191,
      "velocity": 99,
      "chip": "ym2612"
    },
    {
      "channel": 4,
      "note": 81,
      "start": 5.5542,
      "duration": 0.1191,
      "velocity": 99,
      "chip": "ym2612"
    },
    {
      "channel": 0,
      "note": 62,
      "start": 5.6712,
      "duration": 0.0227,
      "velocity": 99,
      "chip": "ym2612"
    },
    {
      "channel": 1,
      "note": 76,
      "start": 5.672,
      "duration": 0.5937,
      "velocity": 117,
      "chip": "ym2612"
    },
    {
      "channel": 2,
      "note": 80,
      "start": 5.6727,
      "duration": 0.0222,
      "velocity": 99,
      "chip": "ym2612"
    },
    {
      "channel": 4,
      "note": 80,
      "start": 5.6739,
      "duration": 0.0222,
      "velocity": 99,
      "chip": "ym2612"
    },
    {
      "channel": 0,
      "note": 62,
      "start": 5.6944,
      "duration": 0.0291,
      "velocity": 99,
      "chip": "ym2612"
    },
    {
      "channel": 2,
      "note": 80,
      "start": 5.6955,
      "duration": 0.0291,
      "velocity": 99,
      "chip": "ym2612"
    },
    {
      "channel": 4,
      "note": 80,
      "start": 5.6966,
      "duration": 0.0295,
      "velocity": 99,
      "chip": "ym2612"
    },
    {
      "channel": 0,
      "note": 65,
      "start": 5.7241,
      "duration": 0.1161,
      "velocity": 99,
      "chip": "ym2612"
    },
    {
      "channel": 2,
      "note": 83,
      "start": 5.7252,
      "duration": 0.1161,
      "velocity": 99,
      "chip": "ym2612"
    },
    {
      "channel": 3,
      "note": 76,
      "start": 5.7259,
      "duration": 0.5941,
      "velocity": 117,
      "chip": "ym2612"
    },
    {
      "channel": 4,
      "note": 83,
      "start": 5.7267,
      "duration": 0.1157,
      "velocity": 99,
      "chip": "ym2612"
    },
    {
      "channel": 0,
      "note": 65,
      "start": 5.8408,
      "duration": 0.1188,
      "velocity": 99,
      "chip": "ym2612"
    },
    {
      "channel": 2,
      "note": 83,
      "start": 5.8418,
      "duration": 0.1192,
      "velocity": 99,
      "chip": "ym2612"
    },
    {
      "channel": 4,
      "note": 83,
      "start": 5.843,
      "duration": 0.1193,
      "velocity": 99,
      "chip": "ym2612"
    },
    {
      "channel": 0,
      "note": 57,
      "start": 5.9602,
      "duration": 0.0245,
      "velocity": 99,
      "chip": "ym2612"
    },
    {
      "channel": 2,
      "note": 93,
      "start": 5.9617,
      "duration": 0.024,
      "velocity": 99,
      "chip": "ym2612"
    },
    {
      "channel": 4,
      "note": 93,
      "start": 5.9629,
      "duration": 0.0239,
      "velocity": 99,
      "chip": "ym2612"
    },
    {
      "channel": 0,
      "note": 57,
      "start": 5.9852,
      "duration": 0.0439,
      "velocity": 99,
      "chip": "ym2612"
    },
    {
      "channel": 2,
      "note": 93,
      "start": 5.9862,
      "duration": 0.0439,
      "velocity": 99,
      "chip": "ym2612"
    },
    {
      "channel": 4,
      "note": 93,
      "start": 5.9874,
      "duration": 0.0443,
      "velocity": 99,
      "chip": "ym2612"
    },
    {
      "channel": 0,
      "note": 60,
      "start": 6.0297,
      "duration": 0.1161,
      "velocity": 99,
      "chip": "ym2612"
    },
    {
      "channel": 2,
      "note": 87,
      "start": 6.0307,
      "duration": 0.1161,
      "velocity": 99,
      "chip": "ym2612"
    },
    {
      "channel": 4,
      "note": 87,
      "start": 6.0322,
      "duration": 0.1157,
      "velocity": 99,
      "chip": "ym2612"
    },
    {
      "channel": 0,
      "note": 60,
      "start": 6.1463,
      "duration": 0.1187,
      "velocity": 99,
      "chip": "ym2612"
    },
    {
      "channel": 2,
      "note": 87,
      "start": 6.1473,
      "duration": 0.1191,
      "velocity": 99,
      "chip": "ym2612"
    },
    {
      "channel": 4,
      "note": 87,
      "start": 6.1485,
      "duration": 0.1191,
      "velocity": 99,
      "chip": "ym2612"
    },
    {
      "channel": 0,
      "note": 59,
      "start": 6.2655,
      "duration": 0.0202,
      "velocity": 99,
      "chip": "ym2612"
    },
    {
      "channel": 1,
      "note": 63,
      "start": 6.2662,
      "duration": 0.0523,
      "velocity": 117,
      "chip": "ym2612"
    },
    {
      "channel": 2,
      "note": 88,
      "start": 6.267,
      "duration": 0.0196,
      "velocity": 99,
      "chip": "ym2612"
    },
    {
      "channel": 4,
      "note": 88,
      "start": 6.2681,
      "duration": 0.0196,
      "velocity": 99,
      "chip": "ym2612"
    },
    {
      "channel": 0,
      "note": 59,
      "start": 6.2862,
      "duration": 0.0316,
      "velocity": 99,
      "chip": "ym2612"
    },
    {
      "channel": 2,
      "note": 88,
      "start": 6.2872,
      "duration": 0.032,
      "velocity": 99,
      "chip": "ym2612"
    },
    {
      "channel": 4,
      "note": 88,
      "start": 6.2884,
      "duration": 0.0324,
      "velocity": 99,
      "chip": "ym2612"
    },
    {
      "channel": 0,
      "note": 62,
      "start": 6.3184,
      "duration": 0.1161,
      "velocity": 99,
      "chip": "ym2612"
    },
    {
      "channel": 1,
      "note": 63,
      "start": 6.3191,
      "duration": 0.2354,
      "velocity": 117,
      "chip": "ym2612"
    },
    {
      "channel": 2,
      "note": 84,
      "start": 6.3198,
      "duration": 0.1157,
      "velocity": 99,
      "chip": "ym2612"
    },
    {
      "channel": 3,
      "note": 63,
      "start": 6.3205,
      "duration": 0.2354,
      "velocity": 117,
      "chip": "ym2612"
    },
    {
      "channel": 4,
      "note": 84,
      "start": 6.3213,
      "duration": 0.1153,
      "velocity": 99,
      "chip": "ym2612"
    },
    {
      "channel": 0,
      "note": 62,
      "start": 6.4351,
      "duration": 0.1187,
      "velocity": 99,
      "chip": "ym2612"
    },
    {
      "channel": 2,
      "note": 84,
      "start": 6.4361,
      "duration": 0.1191,
      "velocity": 99,
      "chip": "ym2612"
    },
    {
      "channel": 4,
      "note": 84,
      "start": 6.4372,
      "duration": 0.1195,
      "velocity": 99,
      "chip": "ym2612"
    },
    {
      "channel": 0,
      "note": 60,
      "start": 6.5543,
      "duration": 0.0235,
      "velocity": 99,
      "chip": "ym2612"
    },
    {
      "channel": 1,
      "note": 63,
      "start": 6.555,
      "duration": 0.0689,
      "velocity": 117,
      "chip": "ym2612"
    },
    {
      "channel": 2,
      "note": 86,
      "start": 6.5557,
      "duration": 0.023,
      "velocity": 99,
      "chip": "ym2612"
    },
    {
      "channel": 3,
      "note": 63,
      "start": 6.5564,
      "duration": 0.0689,
      "velocity": 117,
      "chip": "ym2612"
    },
    {
      "channel": 4,
      "note": 86,
      "start": 6.5573,
      "duration": 0.0226,
      "velocity": 99,
      "chip": "ym2612"
    },
    {
      "channel": 0,
      "note": 60,
      "start": 6.5783,
      "duration": 0.0448,
      "velocity": 99,
      "chip": "ym2612"
    },
    {
      "channel": 2,
      "note": 86,
      "start": 6.5793,
      "duration": 0.0452,
      "velocity": 99,
      "chip": "ym2612"
    },
    {
      "channel": 4,
      "note": 86,
      "start": 6.5805,
      "duration": 0.0456,
      "velocity": 99,
      "chip": "ym2612"
    },
    {
      "channel": 0,
      "note": 64,
      "start": 6.6237,
      "duration": 0.1161,
      "velocity": 99,
      "chip": "ym2612"
    },
    {
      "channel": 1,
      "note": 63,
      "start": 6.6244,
      "duration": 0.2187,
      "velocity": 117,
      "chip": "ym2612"
    },
    {
      "channel": 2,
      "note": 81,
      "start": 6.6251,
      "duration": 0.1157,
      "velocity": 99,
      "chip": "ym2612"
    },
    {
      "channel": 3,
      "note": 63,
      "start": 6.6258,
      "duration": 0.2183,
      "velocity": 117,
      "chip": "ym2612"
    },
    {
      "channel": 4,
      "note": 81,
      "start": 6.6266,
      "duration": 0.1153,
      "velocity": 99,
      "chip": "ym2612"
    },
    {
      "channel": 0,
      "note": 64,
      "start": 6.7404,
      "duration": 0.102,
      "velocity": 99,
      "chip": "ym2612"
    },
    {
      "channel": 2,
      "note": 81,
      "start": 6.7414,
      "duration": 0.102,
      "velocity": 99,
      "chip": "ym2612"
    },
    {
      "channel": 4,
      "note": 81,
      "start": 6.7425,
      "duration": 0.1024,
      "velocity": 99,
      "chip": "ym2612"
    },
    {
      "channel": 0,
      "note": 62,
      "start": 6.8429,
      "duration": 0.0219,
      "velocity": 99,
      "chip": "ym2612"
    },
    {
      "channel": 2,
      "note": 80,
      "start": 6.8439,
      "duration": 0.0216,
      "velocity": 99,
      "chip": "ym2612"
    },
    {
      "channel": 3,
      "note": 63,
      "start": 6.8446,
      "duration": 0.0687,
      "velocity": 117,
      "chip": "ym2612"
    },
    {
      "channel": 4,
      "note": 80,
      "start": 6.8455,
      "duration": 0.0211,
      "velocity": 99,
      "chip": "ym2612"
    },
    {
      "channel": 0,
      "note": 62,
      "start": 6.8653,
      "duration": 0.0466,
      "velocity": 99,
      "chip": "ym2612"
    },
    {
      "channel": 2,
      "note": 80,
      "start": 6.8661,
      "duration": 0.0466,
      "velocity": 99,
      "chip": "ym2612"
    },
    {
      "channel": 4,
      "note": 80,
      "start": 6.8672,
      "duration": 0.0466,
      "velocity": 99,
      "chip": "ym2612"
    },
    {
      "channel": 0,
      "note": 65,
      "start": 6.9124,
      "duration": 0.1161,
      "velocity": 99,
      "chip": "ym2612"
    },
    {
      "channel": 2,
      "note": 83,
      "start": 6.9132,
      "duration": 0.1161,
      "velocity": 99,
      "chip": "ym2612"
    },
    {
      "channel": 4,
      "note": 83,
      "start": 6.9144,
      "duration": 0.1159,
      "velocity": 99,
      "chip": "ym2612"
    },
    {
      "channel": 0,
      "note": 65,
      "start": 7.0291,
      "duration": 0.1188,
      "velocity": 99,
      "chip": "ym2612"
    },
    {
      "channel": 2,
      "note": 83,
      "start": 7.0299,
      "duration": 0.1195,
      "velocity": 99,
      "chip": "ym2612"
    },
    {
      "channel": 4,
      "note": 83,
      "start": 7.0308,
      "duration": 0.119,
      "velocity": 99,
      "chip": "ym2612"
    },
    {
      "channel": 0,
      "note": 57,
      "start": 7.1485,
      "duration": 0.0175,
      "velocity": 99,
      "chip": "ym2612"
    },
    {
      "channel": 1,
      "note": 64,
      "start": 7.1492,
      "duration": 0.3575,
      "velocity": 117,
      "chip": "ym2612"
    },
    {
      "channel": 0,
      "note": 57,
      "start": 7.1665,
      "duration": 0.0507,
      "velocity": 99,
      "chip": "ym2612"
    },
    {
      "channel": 0,
      "note": 60,
      "start": 7.2177,
      "duration": 0.0994,
      "velocity": 99,
      "chip": "ym2612"
    },
    {
      "channel": 3,
      "note": 64,
      "start": 7.2188,
      "duration": 0.5241,
      "velocity": 117,
      "chip": "ym2612"
    },
    {
      "channel": 0,
      "note": 60,
      "start": 7.3177,
      "duration": 0.1187,
      "velocity": 99,
      "chip": "ym2612"
    },
    {
      "channel": 0,
      "note": 59,
      "start": 7.4369,
      "duration": 0.0197,
      "velocity": 99,
      "chip": "ym2612"
    },
    {
      "channel": 0,
      "note": 59,
      "start": 7.4572,
      "duration": 0.0487,
      "velocity": 99,
      "chip": "ym2612"
    },
    {
      "channel": 0,
      "note": 62,
      "start": 7.5065,
      "duration": 0.1161,
      "velocity": 99,
      "chip": "ym2612"
    },
    {
      "channel": 1,
      "note": 71,
      "start": 7.5072,
      "duration": 0.5242,
      "velocity": 117,
      "chip": "ym2612"
    },
    {
      "channel": 0,
      "note": 62,
      "start": 7.6232,
      "duration": 0.1187,
      "velocity": 99,
      "chip": "ym2612"
    },
    {
      "channel": 0,
      "note": 60,
      "start": 7.7424,
      "duration": 0.02,
      "velocity": 99,
      "chip": "ym2612"
    },
    {
      "channel": 3,
      "note": 71,
      "start": 7.7435,
      "duration": 0.3578,
      "velocity": 117,
      "chip": "ym2612"
    },
    {
      "channel": 0,
      "note": 60,
      "start": 7.763,
      "duration": 0.0318,
      "velocity": 99,
      "chip": "ym2612"
    },
    {
      "channel": 0,
      "note": 64,
      "start": 7.7953,
      "duration": 0.1161,
      "velocity": 99,
      "chip": "ym2612"
    },
    {
      "channel": 0,
      "note": 64,
      "start": 7.912,
      "duration": 0.1187,
      "velocity": 99,
      "chip": "ym2612"
    },
    {
      "channel": 0,
      "note": 62,
      "start": 8.0312,
      "duration": 0.0187,
      "velocity": 99,
      "chip": "ym2612"
    },
    {
      "channel": 1,
      "note": 77,
      "start": 8.032,
      "duration": 0.5937,
      "velocity": 117,
      "chip": "ym2612"
    },
    {
      "channel": 0,
      "note": 62,
      "start": 8.0504,
      "duration": 0.0498,
      "velocity": 99,
      "chip": "ym2612"
    },
    {
      "channel": 0,
      "note": 65,
      "start": 8.1008,
      "duration": 0.1161,
      "velocity": 99,
      "chip": "ym2612"
    },
    {
      "channel": 3,
      "note": 77,
      "start": 8.1019,
      "duration": 0.5941,
      "velocity": 117,
      "chip": "ym2612"
    },
    {
      "channel": 0,
      "note": 65,
      "start": 8.2175,
      "duration": 0.1188,
      "velocity": 99,
      "chip": "ym2612"
    },
    {
      "channel": 0,
      "note": 57,
      "start": 8.3368,
      "duration": 0.0179,
      "velocity": 99,
      "chip": "ym2612"
    },
    {
      "channel": 0,
      "note": 57,
      "start": 8.3552,
      "duration": 0.0339,
      "velocity": 99,
      "chip": "ym2612"
    },
    {
      "channel": 0,
      "note": 60,
      "start": 8.3896,
      "duration": 0.1161,
      "velocity": 99,
      "chip": "ym2612"
    },
    {
      "channel": 0,
      "note": 60,
      "start": 8.5063,
      "duration": 0.1187,
      "velocity": 99,
      "chip": "ym2612"
    },
    {
      "channel": 0,
      "note": 59,
      "start": 8.6255,
      "duration": 0.02,
      "velocity": 99,
      "chip": "ym2612"
    },
    {
      "channel": 1,
      "note": 87,
      "start": 8.6263,
      "duration": 0.069,
      "velocity": 117,
      "chip": "ym2612"
    },
    {
      "channel": 0,
      "note": 59,
      "start": 8.6461,
      "duration": 0.0484,
      "velocity": 99,
      "chip": "ym2612"
    },
    {
      "channel": 0,
      "note": 62,
      "start": 8.6951,
      "duration": 0.1161,
      "velocity": 99,
      "chip": "ym2612"
    },
    {
      "channel": 1,
      "note": 87,
      "start": 8.6958,
      "duration": 0.2187,
      "velocity": 117,
      "chip": "ym2612"
    },
    {
      "channel": 3,
      "note": 87,
      "start": 8.6966,
      "duration": 0.2187,
      "velocity": 117,
      "chip": "ym2612"
    },
    {
      "channel": 0,
      "note": 62,
      "start": 8.8118,
      "duration": 0.102,
      "velocity": 99,
      "chip": "ym2612"
    },
    {
      "channel": 0,
      "note": 60,
      "start": 8.9143,
      "duration": 0.0205,
      "velocity": 99,
      "chip": "ym2612"
    },
    {
      "channel": 1,
      "note": 87,
      "start": 8.9151,
      "duration": 0.0689,
      "velocity": 117,
      "chip": "ym2612"
    },
    {
      "channel": 3,
      "note": 87,
      "start": 8.9159,
      "duration": 0.0689,
      "velocity": 117,
      "chip": "ym2612"
    },
    {
      "channel": 0,
      "note": 60,
      "start": 8.9354,
      "duration": 0.0479,
      "velocity": 99,
      "chip": "ym2612"
    },
    {
      "channel": 0,
      "note": 64,
      "start": 8.9839,
      "duration": 0.1161,
      "velocity": 99,
      "chip": "ym2612"
    },
    {
      "channel": 1,
      "note": 87,
      "start": 8.9846,
      "duration": 0.2354,
      "velocity": 117,
      "chip": "ym2612"
    },
    {
      "channel": 3,
      "note": 87,
      "start": 8.9854,
      "duration": 0.235,
      "velocity": 117,
      "chip": "ym2612"
    },
    {
      "channel": 0,
      "note": 64,
      "start": 9.1006,
      "duration": 0.1187,
      "velocity": 99,
      "chip": "ym2612"
    },
    {
      "channel": 0,
      "note": 62,
      "start": 9.2198,
      "duration": 0.0187,
      "velocity": 99,
      "chip": "ym2612"
    },
    {
      "channel": 3,
      "note": 87,
      "start": 9.2209,
      "duration": 0.0686,
      "velocity": 117,
      "chip": "ym2612"
    },
    {
      "channel": 0,
      "note": 62,
      "start": 9.239,
      "duration": 0.0497,
      "velocity": 99,
      "chip": "ym2612"
    },
    {
      "channel": 0,
      "note": 65,
      "start": 9.2893,
      "duration": 0.0994,
      "velocity": 99,
      "chip": "ym2612"
    },
    {
      "channel": 0,
      "note": 65,
      "start": 9.3893,
      "duration": 0.1189,
      "velocity": 99,
      "chip": "ym2612"
    },
    {
      "channel": 0,
      "note": 57,
      "start": 9.5087,
      "duration": 0.022,
      "velocity": 99,
      "chip": "ym2612"
    },
    {
      "channel": 2,
      "note": 93,
      "start": 9.5099,
      "duration": 0.0217,
      "velocity": 99,
      "chip": "ym2612"
    },
    {
      "channel": 4,
      "note": 93,
      "start": 9.5115,
      "duration": 0.021,
      "velocity": 99,
      "chip": "ym2612"
    },
    {
      "channel": 0,
      "note": 57,
      "start": 9.5313,
      "duration": 0.0461,
      "velocity": 99,
      "chip": "ym2612"
    },
    {
      "channel": 2,
      "note": 93,
      "start": 9.5321,
      "duration": 0.0461,
      "velocity": 99,
      "chip": "ym2612"
    },
    {
      "channel": 4,
      "note": 93,
      "start": 9.533,
      "duration": 0.0467,
      "velocity": 99,
      "chip": "ym2612"
    },
    {
      "channel": 0,
      "note": 60,
      "start": 9.578,
      "duration": 0.1161,
      "velocity": 99,
      "chip": "ym2612"
    },
    {
      "channel": 2,
      "note": 87,
      "start": 9.5788,
      "duration": 0.1161,
      "velocity": 99,
      "chip": "ym2612"
    },
    {
      "channel": 4,
      "note": 87,
      "start": 9.5803,
      "duration": 0.1155,
      "velocity": 99,
      "chip": "ym2612"
    },
    {
      "channel": 0,
      "note": 60,
      "start": 9.6947,
      "duration": 0.1187,
      "velocity": 99,
      "chip": "ym2612"
    },
    {
      "channel": 2,
      "note": 87,
      "start": 9.6955,
      "duration": 0.1187,
      "velocity": 99,
      "chip": "ym2612"
    },
    {
      "channel": 4,
      "note": 87,
      "start": 9.6964,
      "duration": 0.1186,
      "velocity": 99,
      "chip": "ym2612"
    },
    {
      "channel": 0,
      "note": 59,
      "start": 9.8139,
      "duration": 0.0205,
      "velocity": 99,
      "chip": "ym2612"
    },
    {
      "channel": 2,
      "note": 88,
      "start": 9.8147,
      "duration": 0.0205,
      "velocity": 99,
      "chip": "ym2612"
    },
    {
      "channel": 4,
      "note": 88,
      "start": 9.8156,
      "duration": 0.0205,
      "velocity": 99,
      "chip": "ym2612"
    },
    {
      "channel": 0,
      "note": 59,
      "start": 9.835,
      "duration": 0.0312,
      "velocity": 99,
      "chip": "ym2612"
    },
    {
      "channel": 2,
      "note": 88,
      "start": 9.8358,
      "duration": 0.0312,
      "velocity": 99,
      "chip": "ym2612"
    },
    {
      "channel": 4,
      "note": 88,
      "start": 9.8367,
      "duration": 0.0312,
      "velocity": 99,
      "chip": "ym2612"
    },
    {
      "channel": 0,
      "note": 62,
      "start": 9.8668,
      "duration": 0.1161,
      "velocity": 99,
      "chip": "ym2612"
    },
    {
      "channel": 2,
      "note": 84,
      "start": 9.8676,
      "duration": 0.1161,
      "velocity": 99,
      "chip": "ym2612"
    },
    {
      "channel": 4,
      "note": 84,
      "start": 9.8685,
      "duration": 0.1161,
      "velocity": 99,
      "chip": "ym2612"
    },
    {
      "channel": 0,
      "note": 62,
      "start": 9.9834,
      "duration": 0.1187,
      "velocity": 99,
      "chip": "ym2612"
    },
    {
      "channel": 2,
      "note": 84,
      "start": 9.9842,
      "duration": 0.1187,
      "velocity": 99,
      "chip": "ym2612"
    },
    {
      "channel": 4,
      "note": 84,
      "start": 9.9852,
      "duration": 0.1186,
      "velocity": 99,
      "chip": "ym2612"
    },
    {
      "channel": 0,
      "note": 60,
      "start": 10.1027,
      "duration": 0.0208,
      "velocity": 99,
      "chip": "ym2612"
    },
    {
      "channel": 2,
      "note": 86,
      "start": 10.1035,
      "duration": 0.0207,
      "velocity": 99,
      "chip": "ym2612"
    },
    {
      "channel": 4,
      "note": 86,
      "start": 10.1044,
      "duration": 0.0207,
      "velocity": 99,
      "chip": "ym2612"
    },
    {
      "channel": 0,
      "note": 60,
      "start": 10.1239,
      "duration": 0.0477,
      "velocity": 99,
      "chip": "ym2612"
    },
    {
      "channel": 2,
      "note": 86,
      "start": 10.1248,
      "duration": 0.0476,
      "velocity": 99,
      "chip": "ym2612"
    },
    {
      "channel": 4,
      "note": 86,
      "start": 10.1257,
      "duration": 0.0477,
      "velocity": 99,
      "chip": "ym2612"
    },
    {
      "channel": 0,
      "note": 64,
      "start": 10.1722,
      "duration": 0.1161,
      "velocity": 99,
      "chip": "ym2612"
    },
    {
      "channel": 2,
      "note": 81,
      "start": 10.1729,
      "duration": 0.1161,
      "velocity": 99,
      "chip": "ym2612"
    },
    {
      "channel": 4,
      "note": 81,
      "start": 10.1739,
      "duration": 0.1161,
      "velocity": 99,
      "chip": "ym2612"
    },
    {
      "channel": 0,
      "note": 64,
      "start": 10.2888,
      "duration": 0.1187,
      "velocity": 99,
      "chip": "ym2612"
    },
    {
      "channel": 2,
      "note": 81,
      "start": 10.2896,
      "duration": 0.1187,
      "velocity": 99,
      "chip": "ym2612"
    },
    {
      "channel": 4,
      "note": 81,
      "start": 10.2906,
      "duration": 0.1186,
      "velocity": 99,
      "chip": "ym2612"
    },
    {
      "channel": 0,
      "note": 62,
      "start": 10.408,
      "duration": 0.0181,
      "velocity": 99,
      "chip": "ym2612"
    },
    {
      "channel": 2,
      "note": 80,
      "start": 10.4089,
      "duration": 0.018,
      "velocity": 99,
      "chip": "ym2612"
    },
    {
      "channel": 4,
      "note": 80,
      "start": 10.4098,
      "duration": 0.018,
      "velocity": 99,
      "chip": "ym2612"
    },
    {
      "channel": 0,
      "note": 62,
      "start": 10.4267,
      "duration": 0.0337,
      "velocity": 99,
      "chip": "ym2612"
    },
    {
      "channel": 2,
      "note": 80,
      "start": 10.4275,
      "duration": 0.0337,
      "velocity": 99,
      "chip": "ym2612"
    },
    {
      "channel": 4,
      "note": 80,
      "start": 10.4284,
      "duration": 0.0337,
      "velocity": 99,
      "chip": "ym2612"
    },
    {
      "channel": 0,
      "note": 65,
      "start": 10.4609,
      "duration": 0.1161,
      "velocity": 99,
      "chip": "ym2612"
    },
    {
      "channel": 2,
      "note": 83,
      "start": 10.4617,
      "duration": 0.1161,
      "velocity": 99,
      "chip": "ym2612"
    },
    {
      "channel": 4,
      "note": 83,
      "start": 10.4627,
      "duration": 0.1161,
      "velocity": 99,
      "chip": "ym2612"
    },
    {
      "channel": 0,
      "note": 65,
      "start": 10.5776,
      "duration": 0.1188,
      "velocity": 99,
      "chip": "ym2612"
    },
    {
      "channel": 2,
      "note": 83,
      "start": 10.5784,
      "duration": 0.1191,
      "velocity": 99,
      "chip": "ym2612"
    },
    {
      "channel": 4,
      "note": 83,
      "start": 10.5793,
      "duration": 0.1191,
      "velocity": 99,
      "chip": "ym2612"
    },
    {
      "channel": 0,
      "note": 57,
      "start": 10.6969,
      "duration": 0.021,
      "velocity": 99,
      "chip": "ym2612"
    },
    {
      "channel": 2,
      "note": 93,
      "start": 10.6981,
      "duration": 0.0206,
      "velocity": 99,
      "chip": "ym2612"
    },
    {
      "channel": 4,
      "note": 93,
      "start": 10.6991,
      "duration": 0.0205,
      "velocity": 99,
      "chip": "ym2612"
    },
    {
      "channel": 0,
      "note": 57,
      "start": 10.7185,
      "duration": 0.0473,
      "velocity": 99,
      "chip": "ym2612"
    },
    {
      "channel": 2,
      "note": 93,
      "start": 10.7193,
      "duration": 0.0473,
      "velocity": 99,
      "chip": "ym2612"
    },
    {
      "channel": 4,
      "note": 93,
      "start": 10.7202,
      "duration": 0.0475,
      "velocity": 99,
      "chip": "ym2612"
    },
    {
      "channel": 0,
      "note": 60,
      "start": 10.7664,
      "duration": 0.1161,
      "velocity": 99,
      "chip": "ym2612"
    },
    {
      "channel": 2,
      "note": 87,
      "start": 10.7671,
      "duration": 0.1161,
      "velocity": 99,
      "chip": "ym2612"
    },
    {
      "channel": 4,
      "note": 87,
      "start": 10.7683,
      "duration": 0.1159,
      "velocity": 99,
      "chip": "ym2612"
    },
    {
      "channel": 0,
      "note": 60,
      "start": 10.883,
      "duration": 0.102,
      "velocity": 99,
      "chip": "ym2612"
    },
    {
      "channel": 2,
      "note": 87,
      "start": 10.8838,
      "duration": 0.102,
      "velocity": 99,
      "chip": "ym2612"
    },
    {
      "channel": 4,
      "note": 87,
      "start": 10.8848,
      "duration": 0.102,
      "velocity": 99,
      "chip": "ym2612"
    },
    {
      "channel": 0,
      "note": 59,
      "start": 10.9856,
      "duration": 0.0195,
      "velocity": 99,
      "chip": "ym2612"
    },
    {
      "channel": 2,
      "note": 88,
      "start": 10.9864,
      "duration": 0.0195,
      "velocity": 99,
      "chip": "ym2612"
    },
    {
      "channel": 4,
      "note": 88,
      "start": 10.9873,
      "duration": 0.0195,
      "velocity": 99,
      "chip": "ym2612"
    },
    {
      "channel": 0,
      "note": 59,
      "start": 11.0057,
      "duration": 0.0489,
      "velocity": 99,
      "chip": "ym2612"
    },
    {
      "channel": 2,
      "note": 88,
      "start": 11.0064,
      "duration": 0.0489,
      "velocity": 99,
      "chip": "ym2612"
    },
    {
      "channel": 4,
      "note": 88,
      "start": 11.0074,
      "duration": 0.0489,
      "velocity": 99,
      "chip": "ym2612"
    },
    {
      "channel": 0,
      "note": 62,
      "start": 11.0551,
      "duration": 0.1161,
      "velocity": 99,
      "chip": "ym2612"
    },
    {
      "channel": 2,
      "note": 84,
      "start": 11.0559,
      "duration": 0.1161,
      "velocity": 99,
      "chip": "ym2612"
    },
    {
      "channel": 4,
      "note": 84,
      "start": 11.0569,
      "duration": 0.1161,
      "velocity": 99,
      "chip": "ym2612"
    },
    {
      "channel": 0,
      "note": 62,
      "start": 11.1718,
      "duration": 0.1187,
      "velocity": 99,
      "chip": "ym2612"
    },
    {
      "channel": 2,
      "note": 84,
      "start": 11.1726,
      "duration": 0.1187,
      "velocity": 99,
      "chip": "ym2612"
    },
    {
      "channel": 4,
      "note": 84,
      "start": 11.1735,
      "duration": 0.1186,
      "velocity": 99,
      "chip": "ym2612"
    },
    {
      "channel": 0,
      "note": 60,
      "start": 11.291,
      "duration": 0.0195,
      "velocity": 99,
      "chip": "ym2612"
    },
    {
      "channel": 2,
      "note": 86,
      "start": 11.2919,
      "duration": 0.0195,
      "velocity": 99,
      "chip": "ym2612"
    },
    {
      "channel": 4,
      "note": 86,
      "start": 11.2927,
      "duration": 0.0195,
      "velocity": 99,
      "chip": "ym2612"
    },
    {
      "channel": 0,
      "note": 60,
      "start": 11.3111,
      "duration": 0.0489,
      "velocity": 99,
      "chip": "ym2612"
    },
    {
      "channel": 2,
      "note": 86,
      "start": 11.3119,
      "duration": 0.0489,
      "velocity": 99,
      "chip": "ym2612"
    },
    {
      "channel": 4,
      "note": 86,
      "start": 11.3128,
      "duration": 0.0489,
      "velocity": 99,
      "chip": "ym2612"
    },
    {
      "channel": 0,
      "note": 64,
      "start": 11.3606,
      "duration": 0.0994,
      "velocity": 99,
      "chip": "ym2612"
    },
    {
      "channel": 2,
      "note": 81,
      "start": 11.3614,
      "duration": 0.0994,
      "velocity": 99,
      "chip": "ym2612"
    },
    {
      "channel": 4,
      "note": 81,
      "start": 11.3623,
      "duration": 0.0994,
      "velocity": 99,
      "chip": "ym2612"
    },
    {
      "channel": 0,
      "note": 64,
      "start": 11.4606,
      "duration": 0.1187,
      "velocity": 99,
      "chip": "ym2612"
    },
    {
      "channel": 2,
      "note": 81,
      "start": 11.4614,
      "duration": 0.1187,
      "velocity": 99,
      "chip": "ym2612"
    },
    {
      "channel": 4,
      "note": 81,
      "start": 11.4623,
      "duration": 0.1186,
      "velocity": 99,
      "chip": "ym2612"
    },
    {
      "channel": 0,
      "note": 62,
      "start": 11.5798,
      "duration": 0.0195,
      "velocity": 99,
      "chip": "ym2612"
    },
    {
      "channel": 2,
      "note": 80,
      "start": 11.5807,
      "duration": 0.0195,
      "velocity": 99,
      "chip": "ym2612"
    },
    {
      "channel": 4,
      "note": 80,
      "start": 11.5815,
      "duration": 0.0195,
      "velocity": 99,
      "chip": "ym2612"
    },
    {
      "channel": 0,
      "note": 62,
      "start": 11.5999,
      "duration": 0.0489,
      "velocity": 99,
      "chip": "ym2612"
    },
    {
      "channel": 2,
      "note": 80,
      "start": 11.6007,
      "duration": 0.0489,
      "velocity": 99,
      "chip": "ym2612"
    },
    {
      "channel": 4,
      "note": 80,
      "start": 11.6016,
      "duration": 0.049,
      "velocity": 99,
      "chip": "ym2612"
    },
    {
      "channel": 0,
      "note": 65,
      "start": 11.6494,
      "duration": 0.1161,
      "velocity": 99,
      "chip": "ym2612"
    },
    {
      "channel": 2,
      "note": 83,
      "start": 11.6502,
      "duration": 0.1161,
      "velocity": 99,
      "chip": "ym2612"
    },
    {
      "channel": 4,
      "note": 83,
      "start": 11.6511,
      "duration": 0.1161,
      "velocity": 99,
      "chip": "ym2612"
    },
    {
      "channel": 0,
      "note": 65,
      "start": 11.7661,
      "duration": 0.1188,
      "velocity": 99,
      "chip": "ym2612"
    },
    {
      "channel": 2,
      "note": 83,
      "start": 11.7668,
      "duration": 0.1191,
      "velocity": 99,
      "chip": "ym2612"
    },
    {
      "channel": 4,
      "note": 83,
      "start": 11.7678,
      "duration": 0.1191,
      "velocity": 99,
      "chip": "ym2612"
    },
    {
      "channel": 0,
      "note": 57,
      "start": 11.8854,
      "duration": 0.0213,
      "velocity": 99,
      "chip": "ym2612"
    },
    {
      "channel": 2,
      "note": 93,
      "start": 11.8866,
      "duration": 0.0209,
      "velocity": 99,
      "chip": "ym2612"
    },
    {
      "channel": 4,
      "note": 93,
      "start": 11.8876,
      "duration": 0.0208,
      "velocity": 99,
      "chip": "ym2612"
    },
    {
      "channel": 0,
      "note": 57,
      "start": 11.9072,
      "duration": 0.0304,
      "velocity": 99,
      "chip": "ym2612"
    },
    {
      "channel": 2,
      "note": 93,
      "start": 11.908,
      "duration": 0.0304,
      "velocity": 99,
      "chip": "ym2612"
    },
    {
      "channel": 4,
      "note": 93,
      "start": 11.9089,
      "duration": 0.0306,
      "velocity": 99,
      "chip": "ym2612"
    },
    {
      "channel": 0,
      "note": 60,
      "start": 11.9382,
      "duration": 0.1161,
      "velocity": 99,
      "chip": "ym2612"
    },
    {
      "channel": 2,
      "note": 87,
      "start": 11.939,
      "duration": 0.1161,
      "velocity": 99,
      "chip": "ym2612"
    },
    {
      "channel": 4,
      "note": 87,
      "start": 11.9401,
      "duration": 0.1159,
      "velocity": 99,
      "chip": "ym2612"
    },
    {
      "channel": 0,
      "note": 60,
      "start": 12.0549,
      "duration": 0.1187,
      "velocity": 99,
      "chip": "ym2612"
    },
    {
      "channel": 2,
      "note": 87,
      "start": 12.0556,
      "duration": 0.1187,
      "velocity": 99,
      "chip": "ym2612"
    },
    {
      "channel": 4,
      "note": 87,
      "start": 12.0566,
      "duration": 0.1186,
      "velocity": 99,
      "chip": "ym2612"
    },
    {
      "channel": 0,
      "note": 59,
      "start": 12.1741,
      "duration": 0.0205,
      "velocity": 99,
      "chip": "ym2612"
    },
    {
      "channel": 2,
      "note": 88,
      "start": 12.1749,
      "duration": 0.0205,
      "velocity": 99,
      "chip": "ym2612"
    },
    {
      "channel": 4,
      "note": 88,
      "start": 12.1758,
      "duration": 0.0205,
      "velocity": 99,
      "chip": "ym2612"
    },
    {
      "channel": 0,
      "note": 59,
      "start": 12.1951,
      "duration": 0.048,
      "velocity": 99,
      "chip": "ym2612"
    },
    {
      "channel": 2,
      "note": 88,
      "start": 12.1959,
      "duration": 0.0479,
      "velocity": 99,
      "chip": "ym2612"
    },
    {
      "channel": 4,
      "note": 88,
      "start": 12.1968,
      "duration": 0.048,
      "velocity": 99,
      "chip": "ym2612"
    },
    {
      "channel": 0,
      "note": 62,
      "start": 12.2437,
      "duration": 0.1161,
      "velocity": 99,
      "chip": "ym2612"
    },
    {
      "channel": 2,
      "note": 84,
      "start": 12.2444,
      "duration": 0.1161,
      "velocity": 99,
      "chip": "ym2612"
    },
    {
      "channel": 4,
      "note": 84,
      "start": 12.2454,
      "duration": 0.1161,
      "velocity": 99,
      "chip": "ym2612"
    },
    {
      "channel": 0,
      "note": 62,
      "start": 12.3603,
      "duration": 0.1187,
      "velocity": 99,
      "chip": "ym2612"
    },
    {
      "channel": 2,
      "note": 84,
      "start": 12.3611,
      "duration": 0.1187,
      "velocity": 99,
      "chip": "ym2612"
    },
    {
      "channel": 4,
      "note": 84,
      "start": 12.362,
      "duration": 0.1186,
      "velocity": 99,
      "chip": "ym2612"
    },
    {
      "channel": 0,
      "note": 60,
      "start": 12.4795,
      "duration": 0.018,
      "velocity": 99,
      "chip": "ym2612"
    },
    {
      "channel": 2,
      "note": 86,
      "start": 12.4804,
      "duration": 0.018,
      "velocity": 99,
      "chip": "ym2612"
    },
    {
      "channel": 4,
      "note": 86,
      "start": 12.4812,
      "duration": 0.018,
      "velocity": 99,
      "chip": "ym2612"
    },
    {
      "channel": 0,
      "note": 60,
      "start": 12.4981,
      "duration": 0.0336,
      "velocity": 99,
      "chip": "ym2612"
    },
    {
      "channel": 2,
      "note": 86,
      "start": 12.4989,
      "duration": 0.0336,
      "velocity": 99,
      "chip": "ym2612"
    },
    {
      "channel": 4,
      "note": 86,
      "start": 12.4999,
      "duration": 0.0336,
      "velocity": 99,
      "chip": "ym2612"
    },
    {
      "channel": 0,
      "note": 64,
      "start": 12.5323,
      "duration": 0.1161,
      "velocity": 99,
      "chip": "ym2612"
    },
    {
      "channel": 2,
      "note": 81,
      "start": 12.5331,
      "duration": 0.1161,
      "velocity": 99,
      "chip": "ym2612"
    },
    {
      "channel": 4,
      "note": 81,
      "start": 12.5341,
      "duration": 0.1161,
      "velocity": 99,
      "chip": "ym2612"
    },
    {
      "channel": 0,
      "note": 64,
      "start": 12.649,
      "duration": 0.1187,
      "velocity": 99,
      "chip": "ym2612"
    },
    {
      "channel": 2,
      "note": 81,
      "start": 12.6498,
      "duration": 0.1187,
      "velocity": 99,
      "chip": "ym2612"
    },
    {
      "channel": 4,
      "note": 81,
      "start": 12.6507,
      "duration": 0.1186,
      "velocity": 99,
      "chip": "ym2612"
    },
    {
      "channel": 0,
      "note": 62,
      "start": 12.7682,
      "duration": 0.0208,
      "velocity": 99,
      "chip": "ym2612"
    },
    {
      "channel": 2,
      "note": 80,
      "start": 12.769,
      "duration": 0.0207,
      "velocity": 99,
      "chip": "ym2612"
    },
    {
      "channel": 4,
      "note": 80,
      "start": 12.7699,
      "duration": 0.0208,
      "velocity": 99,
      "chip": "ym2612"
    },
    {
      "channel": 0,
      "note": 62,
      "start": 12.7895,
      "duration": 0.0477,
      "velocity": 99,
      "chip": "ym2612"
    },
    {
      "channel": 2,
      "note": 80,
      "start": 12.7904,
      "duration": 0.0476,
      "velocity": 99,
      "chip": "ym2612"
    },
    {
      "channel": 4,
      "note": 80,
      "start": 12.7913,
      "duration": 0.0477,
      "velocity": 99,
      "chip": "ym2612"
    },
    {
      "channel": 0,
      "note": 65,
      "start": 12.8378,
      "duration": 0.1161,
      "velocity": 99,
      "chip": "ym2612"
    },
    {
      "channel": 2,
      "note": 83,
      "start": 12.8386,
      "duration": 0.1161,
      "velocity": 99,
      "chip": "ym2612"
    },
    {
      "channel": 4,
      "note": 83,
      "start": 12.8395,
      "duration": 0.1161,
      "velocity": 99,
      "chip": "ym2612"
    },
    {
      "channel": 0,
      "note": 65,
      "start": 12.9545,
      "duration": 0.1021,
      "velocity": 99,
      "chip": "ym2612"
    },
    {
      "channel": 2,
      "note": 83,
      "start": 12.9552,
      "duration": 0.1024,
      "velocity": 99,
      "chip": "ym2612"
    },
    {
      "channel": 4,
      "note": 83,
      "start": 12.9562,
      "duration": 0.1025,
      "velocity": 99,
      "chip": "ym2612"
    },
    {
      "channel": 0,
      "note": 57,
      "start": 13.0571,
      "duration": 0.021,
      "velocity": 99,
      "chip": "ym2612"
    },
    {
      "channel": 2,
      "note": 93,
      "start": 13.0583,
      "duration": 0.0206,
      "velocity": 99,
      "chip": "ym2612"
    },
    {
      "channel": 4,
      "note": 93,
      "start": 13.0593,
      "duration": 0.0205,
      "velocity": 99,
      "chip": "ym2612"
    },
    {
      "channel": 0,
      "note": 57,
      "start": 13.0786,
      "duration": 0.0474,
      "velocity": 99,
      "chip": "ym2612"
    },
    {
      "channel": 2,
      "note": 93,
      "start": 13.0795,
      "duration": 0.0473,
      "velocity": 99,
      "chip": "ym2612"
    },
    {
      "channel": 4,
      "note": 93,
      "start": 13.0803,
      "duration": 0.0476,
      "velocity": 99,
      "chip": "ym2612"
    },
    {
      "channel": 0,
      "note": 60,
      "start": 13.1266,
      "duration": 0.1161,
      "velocity": 99,
      "chip": "ym2612"
    },
    {
      "channel": 2,
      "note": 87,
      "start": 13.1273,
      "duration": 0.1161,
      "velocity": 99,
      "chip": "ym2612"
    },
    {
      "channel": 4,
      "note": 87,
      "start": 13.1285,
      "duration": 0.1159,
      "velocity": 99,
      "chip": "ym2612"
    },
    {
      "channel": 0,
      "note": 60,
      "start": 13.2432,
      "duration": 0.1187,
      "velocity": 99,
      "chip": "ym2612"
    },
    {
      "channel": 2,
      "note": 87,
      "start": 13.244,
      "duration": 0.1187,
      "velocity": 99,
      "chip": "ym2612"
    },
    {
      "channel": 4,
      "note": 87,
      "start": 13.2449,
      "duration": 0.1186,
      "velocity": 99,
      "chip": "ym2612"
    },
    {
      "channel": 0,
      "note": 59,
      "start": 13.3624,
      "duration": 0.0205,
      "velocity": 99,
      "chip": "ym2612"
    },
    {
      "channel": 2,
      "note": 88,
      "start": 13.3633,
      "duration": 0.0205,
      "velocity": 99,
      "chip": "ym2612"
    },
    {
      "channel": 4,
      "note": 88,
      "start": 13.3641,
      "duration": 0.0205,
      "velocity": 99,
      "chip": "ym2612"
    },
    {
      "channel": 0,
      "note": 59,
      "start": 13.3835,
      "duration": 0.0479,
      "velocity": 99,
      "chip": "ym2612"
    },
    {
      "channel": 2,
      "note": 88,
      "start": 13.3843,
      "duration": 0.0479,
      "velocity": 99,
      "chip": "ym2612"
    },
    {
      "channel": 4,
      "note": 88,
      "start": 13.3852,
      "duration": 0.0479,
      "velocity": 99,
      "chip": "ym2612"
    },
    {
      "channel": 0,
      "note": 62,
      "start": 13.432,
      "duration": 0.0994,
      "velocity": 99,
      "chip": "ym2612"
    },
    {
      "channel": 2,
      "note": 84,
      "start": 13.4327,
      "duration": 0.0994,
      "velocity": 99,
      "chip": "ym2612"
    },
    {
      "channel": 4,
      "note": 84,
      "start": 13.4337,
      "duration": 0.0994,
      "velocity": 99,
      "chip": "ym2612"
    },
    {
      "channel": 0,
      "note": 62,
      "start": 13.532,
      "duration": 0.1187,
      "velocity": 99,
      "chip": "ym2612"
    },
    {
      "channel": 2,
      "note": 84,
      "start": 13.5327,
      "duration": 0.1187,
      "velocity": 99,
      "chip": "ym2612"
    },
    {
      "channel": 4,
      "note": 84,
      "start": 13.5337,
      "duration": 0.1186,
      "velocity": 99,
      "chip": "ym2612"
    },
    {
      "channel": 0,
      "note": 60,
      "start": 13.6512,
      "duration": 0.0205,
      "velocity": 99,
      "chip": "ym2612"
    },
    {
      "channel": 2,
      "note": 86,
      "start": 13.652,
      "duration": 0.0205,
      "velocity": 99,
      "chip": "ym2612"
    },
    {
      "channel": 4,
      "note": 86,
      "start": 13.6529,
      "duration": 0.0205,
      "velocity": 99,
      "chip": "ym2612"
    },
    {
      "channel": 0,
      "note": 60,
      "start": 13.6722,
      "duration": 0.048,
      "velocity": 99,
      "chip": "ym2612"
    },
    {
      "channel": 2,
      "note": 86,
      "start": 13.6731,
      "duration": 0.048,
      "velocity": 99,
      "chip": "ym2612"
    },
    {
      "channel": 4,
      "note": 86,
      "start": 13.6739,
      "duration": 0.048,
      "velocity": 99,
      "chip": "ym2612"
    },
    {
      "channel": 0,
      "note": 64,
      "start": 13.7208,
      "duration": 0.1161,
      "velocity": 99,
      "chip": "ym2612"
    },
    {
      "channel": 2,
      "note": 81,
      "start": 13.7216,
      "duration": 0.1161,
      "velocity": 99,
      "chip": "ym2612"
    },
    {
      "channel": 4,
      "note": 81,
      "start": 13.7225,
      "duration": 0.1161,
      "velocity": 99,
      "chip": "ym2612"
    },
    {
      "channel": 0,
      "note": 64,
      "start": 13.8375,
      "duration": 0.1187,
      "velocity": 99,
      "chip": "ym2612"
    },
    {
      "channel": 2,
      "note": 81,
      "start": 13.8383,
      "duration": 0.1187,
      "velocity": 99,
      "chip": "ym2612"
    },
    {
      "channel": 4,
      "note": 81,
      "start": 13.8392,
      "duration": 0.1186,
      "velocity": 99,
      "chip": "ym2612"
    },
    {
      "channel": 0,
      "note": 62,
      "start": 13.9567,
      "duration": 0.0205,
      "velocity": 99,
      "chip": "ym2612"
    },
    {
      "channel": 2,
      "note": 80,
      "start": 13.9575,
      "duration": 0.0204,
      "velocity": 99,
      "chip": "ym2612"
    },
    {
      "channel": 4,
      "note": 80,
      "start": 13.9584,
      "duration": 0.0204,
      "velocity": 99,
      "chip": "ym2612"
    },
    {
      "channel": 0,
      "note": 62,
      "start": 13.9777,
      "duration": 0.0313,
      "velocity": 99,
      "chip": "ym2612"
    },
    {
      "channel": 2,
      "note": 80,
      "start": 13.9785,
      "duration": 0.0312,
      "velocity": 99,
      "chip": "ym2612"
    },
    {
      "channel": 4,
      "note": 80,
      "start": 13.9794,
      "duration": 0.0313,
      "velocity": 99,
      "chip": "ym2612"
    },
    {
      "channel": 0,
      "note": 65,
      "start": 14.0095,
      "duration": 0.1161,
      "velocity": 99,
      "chip": "ym2612"
    },
    {
      "channel": 2,
      "note": 83,
      "start": 14.0103,
      "duration": 0.1161,
      "velocity": 99,
      "chip": "ym2612"
    },
    {
      "channel": 4,
      "note": 83,
      "start": 14.0113,
      "duration": 0.1161,
      "velocity": 99,
      "chip": "ym2612"
    },
    {
      "channel": 0,
      "note": 65,
      "start": 14.1262,
      "duration": 0.1188,
      "velocity": 99,
      "chip": "ym2612"
    },
    {
      "channel": 2,
      "note": 83,
      "start": 14.127,
      "duration": 0.1195,
      "velocity": 99,
      "chip": "ym2612"
    },
    {
      "channel": 4,
      "note": 83,
      "start": 14.1279,
      "duration": 0.1196,
      "velocity": 99,
      "chip": "ym2612"
    },
    {
      "channel": 0,
      "note": 57,
      "start": 14.2456,
      "duration": 0.0215,
      "velocity": 99,
      "chip": "ym2612"
    },
    {
      "channel": 1,
      "note": 80,
      "start": 14.2463,
      "duration": 0.3577,
      "velocity": 117,
      "chip": "ym2612"
    },
    {
      "channel": 2,
      "note": 93,
      "start": 14.2471,
      "duration": 0.0209,
      "velocity": 99,
      "chip": "ym2612"
    },
    {
      "channel": 4,
      "note": 93,
      "start": 14.2481,
      "duration": 0.0208,
      "velocity": 99,
      "chip": "ym2612"
    },
    {
      "channel": 0,
      "note": 57,
      "start": 14.2675,
      "duration": 0.0469,
      "velocity": 99,
      "chip": "ym2612"
    },
    {
      "channel": 2,
      "note": 93,
      "start": 14.2686,
      "duration": 0.0468,
      "velocity": 99,
      "chip": "ym2612"
    },
    {
      "channel": 4,
      "note": 93,
      "start": 14.2695,
      "duration": 0.0475,
      "velocity": 99,
      "chip": "ym2612"
    },
    {
      "channel": 0,
      "note": 60,
      "start": 14.315,
      "duration": 0.1161,
      "velocity": 99,
      "chip": "ym2612"
    },
    {
      "channel": 2,
      "note": 87,
      "start": 14.316,
      "duration": 0.1161,
      "velocity": 99,
      "chip": "ym2612"
    },
    {
      "channel": 3,
      "note": 80,
      "start": 14.3167,
      "duration": 0.5242,
      "velocity": 117,
      "chip": "ym2612"
    },
    {
      "channel": 4,
      "note": 87,
      "start": 14.3175,
      "duration": 0.1157,
      "velocity": 99,
      "chip": "ym2612"
    },
    {
      "channel": 0,
      "note": 60,
      "start": 14.4317,
      "duration": 0.1187,
      "velocity": 99,
      "chip": "ym2612"
    },
    {
      "channel": 2,
      "note": 87,
      "start": 14.4327,
      "duration": 0.1186,
      "velocity": 99,
      "chip": "ym2612"
    },
    {
      "channel": 4,
      "note": 87,
      "start": 14.4338,
      "duration": 0.1186,
      "velocity": 99,
      "chip": "ym2612"
    },
    {
      "channel": 0,
      "note": 59,
      "start": 14.5509,
      "duration": 0.0207,
      "velocity": 99,
      "chip": "ym2612"
    },
    {
      "channel": 2,
      "note": 88,
      "start": 14.5519,
      "duration": 0.0207,
      "velocity": 99,
      "chip": "ym2612"
    },
    {
      "channel": 4,
      "note": 88,
      "start": 14.553,
      "duration": 0.0207,
      "velocity": 99,
      "chip": "ym2612"
    },
    {
      "channel": 0,
      "note": 59,
      "start": 14.5721,
      "duration": 0.0312,
      "velocity": 99,
      "chip": "ym2612"
    },
    {
      "channel": 2,
      "note": 88,
      "start": 14.5731,
      "duration": 0.0315,
      "velocity": 99,
      "chip": "ym2612"
    },
    {
      "channel": 4,
      "note": 88,
      "start": 14.5743,
      "duration": 0.0315,
      "velocity": 99,
      "chip": "ym2612"
    },
    {
      "channel": 0,
      "note": 62,
      "start": 14.6038,
      "duration": 0.1161,
      "velocity": 99,
      "chip": "ym2612"
    },
    {
      "channel": 1,
      "note": 72,
      "start": 14.6045,
      "duration": 0.5242,
      "velocity": 117,
      "chip": "ym2612"
    },
    {
      "channel": 2,
      "note": 84,
      "start": 14.6052,
      "duration": 0.1157,
      "velocity": 99,
      "chip": "ym2612"
    },
    {
      "channel": 4,
      "note": 84,
      "start": 14.6064,
      "duration": 0.1157,
      "velocity": 99,
      "chip": "ym2612"
    },
    {
      "channel": 0,
      "note": 62,
      "start": 14.7205,
      "duration": 0.1187,
      "velocity": 99,
      "chip": "ym2612"
    },
    {
      "channel": 2,
      "note": 84,
      "start": 14.7215,
      "duration": 0.1186,
      "velocity": 99,
      "chip": "ym2612"
    },
    {
      "channel": 4,
      "note": 84,
      "start": 14.7227,
      "duration": 0.1191,
      "velocity": 99,
      "chip": "ym2612"
    },
    {
      "channel": 0,
      "note": 60,
      "start": 14.8397,
      "duration": 0.0242,
      "velocity": 99,
      "chip": "ym2612"
    },
    {
      "channel": 2,
      "note": 86,
      "start": 14.8407,
      "duration": 0.0242,
      "velocity": 99,
      "chip": "ym2612"
    },
    {
      "channel": 3,
      "note": 72,
      "start": 14.8414,
      "duration": 0.3577,
      "velocity": 117,
      "chip": "ym2612"
    },
    {
      "channel": 4,
      "note": 86,
      "start": 14.8423,
      "duration": 0.0237,
      "velocity": 99,
      "chip": "ym2612"
    },
    {
      "channel": 0,
      "note": 60,
      "start": 14.8645,
      "duration": 0.0443,
      "velocity": 99,
      "chip": "ym2612"
    },
    {
      "channel": 2,
      "note": 86,
      "start": 14.8655,
      "duration": 0.0443,
      "velocity": 99,
      "chip": "ym2612"
    },
    {
      "channel": 4,
      "note": 86,
      "start": 14.8666,
      "duration": 0.0443,
      "velocity": 99,
      "chip": "ym2612"
    },
    {
      "channel": 0,
      "note": 64,
      "start": 14.9093,
      "duration": 0.1161,
      "velocity": 99,
      "chip": "ym2612"
    },
    {
      "channel": 2,
      "note": 81,
      "start": 14.9103,
      "duration": 0.1161,
      "velocity": 99,
      "chip": "ym2612"
    },
    {
      "channel": 4,
      "note": 81,
      "start": 14.9115,
      "duration": 0.1161,
      "velocity": 99,
      "chip": "ym2612"
    },
    {
      "channel": 0,
      "note": 64,
      "start": 15.026,
      "duration": 0.102,
      "velocity": 99,
      "chip": "ym2612"
    },
    {
      "channel": 2,
      "note": 81,
      "start": 15.027,
      "duration": 0.1024,
      "velocity": 99,
      "chip": "ym2612"
    },
    {
      "channel": 4,
      "note": 81,
      "start": 15.0282,
      "duration": 0.1024,
      "velocity": 99,
      "chip": "ym2612"
    },
    {
      "channel": 0,
      "note": 62,
      "start": 15.1285,
      "duration": 0.0227,
      "velocity": 99,
      "chip": "ym2612"
    },
    {
      "channel": 1,
      "note": 76,
      "start": 15.1293,
      "duration": 0.5936,
      "velocity": 117,
      "chip": "ym2612"
    },
    {
      "channel": 2,
      "note": 80,
      "start": 15.13,
      "duration": 0.0223,
      "velocity": 99,
      "chip": "ym2612"
    },
    {
      "channel": 4,
      "note": 80,
      "start": 15.1311,
      "duration": 0.0223,
      "velocity": 99,
      "chip": "ym2612"
    },
    {
      "channel": 0,
      "note": 62,
      "start": 15.1518,
      "duration": 0.0456,
      "velocity": 99,
      "chip": "ym2612"
    },
    {
      "channel": 2,
      "note": 80,
      "start": 15.1528,
      "duration": 0.0456,
      "velocity": 99,
      "chip": "ym2612"
    },
    {
      "channel": 4,
      "note": 80,
      "start": 15.154,
      "duration": 0.046,
      "velocity": 99,
      "chip": "ym2612"
    },
    {
      "channel": 0,
      "note": 65,
      "start": 15.198,
      "duration": 0.1161,
      "velocity": 99,
      "chip": "ym2612"
    },
    {
      "channel": 2,
      "note": 83,
      "start": 15.199,
      "duration": 0.1161,
      "velocity": 99,
      "chip": "ym2612"
    },
    {
      "channel": 3,
      "note": 76,
      "start": 15.1997,
      "duration": 0.594,
      "velocity": 117,
      "chip": "ym2612"
    },
    {
      "channel": 4,
      "note": 83,
      "start": 15.2005,
      "duration": 0.1157,
      "velocity": 99,
      "chip": "ym2612"
    },
    {
      "channel": 0,
      "note": 65,
      "start": 15.3146,
      "duration": 0.1188,
      "velocity": 99,
      "chip": "ym2612"
    },
    {
      "channel": 2,
      "note": 83,
      "start": 15.3157,
      "duration": 0.1192,
      "velocity": 99,
      "chip": "ym2612"
    },
    {
      "channel": 4,
      "note": 83,
      "start": 15.3168,
      "duration": 0.1193,
      "velocity": 99,
      "chip": "ym2612"
    },
    {
      "channel": 0,
      "note": 57,
      "start": 15.434,
      "duration": 0.0245,
      "velocity": 99,
      "chip": "ym2612"
    },
    {
      "channel": 2,
      "note": 93,
      "start": 15.4355,
      "duration": 0.024,
      "velocity": 99,
      "chip": "ym2612"
    },
    {
      "channel": 4,
      "note": 93,
      "start": 15.4367,
      "duration": 0.0239,
      "velocity": 99,
      "chip": "ym2612"
    },
    {
      "channel": 0,
      "note": 57,
      "start": 15.459,
      "duration": 0.0439,
      "velocity": 99,
      "chip": "ym2612"
    },
    {
      "channel": 2,
      "note": 93,
      "start": 15.46,
      "duration": 0.0439,
      "velocity": 99,
      "chip": "ym2612"
    },
    {
      "channel": 4,
      "note": 93,
      "start": 15.4612,
      "duration": 0.0443,
      "velocity": 99,
      "chip": "ym2612"
    },
    {
      "channel": 0,
      "note": 60,
      "start": 15.5035,
      "duration": 0.0994,
      "velocity": 99,
      "chip": "ym2612"
    },
    {
      "channel": 2,
      "note": 87,
      "start": 15.5045,
      "duration": 0.0994,
      "velocity": 99,
      "chip": "ym2612"
    },
    {
      "channel": 4,
      "note": 87,
      "start": 15.506,
      "duration": 0.099,
      "velocity": 99,
      "chip": "ym2612"
    },
    {
      "channel": 0,
      "note": 60,
      "start": 15.6035,
      "duration": 0.1187,
      "velocity": 99,
      "chip": "ym2612"
    },
    {
      "channel": 2,
      "note": 87,
      "start": 15.6045,
      "duration": 0.1191,
      "velocity": 99,
      "chip": "ym2612"
    },
    {
      "channel": 4,
      "note": 87,
      "start": 15.6057,
      "duration": 0.1191,
      "velocity": 99,
      "chip": "ym2612"
    },
    {
      "channel": 0,
      "note": 59,
      "start": 15.7227,
      "duration": 0.0233,
      "velocity": 99,
      "chip": "ym2612"
    },
    {
      "channel": 1,
      "note": 63,
      "start": 15.7234,
      "duration": 0.0689,
      "velocity": 117,
      "chip": "ym2612"
    },
    {
      "channel": 2,
      "note": 88,
      "start": 15.7242,
      "duration": 0.0227,
      "velocity": 99,
      "chip": "ym2612"
    },
    {
      "channel": 4,
      "note": 88,
      "start": 15.7253,
      "duration": 0.0227,
      "velocity": 99,
      "chip": "ym2612"
    },
    {
      "channel": 0,
      "note": 59,
      "start": 15.7465,
      "duration": 0.0452,
      "velocity": 99,
      "chip": "ym2612"
    },
    {
      "channel": 2,
      "note": 88,
      "start": 15.7475,
      "duration": 0.0456,
      "velocity": 99,
      "chip": "ym2612"
    },
    {
      "channel": 4,
      "note": 88,
      "start": 15.7486,
      "duration": 0.0459,
      "velocity": 99,
      "chip": "ym2612"
    },
    {
      "channel": 0,
      "note": 62,
      "start": 15.7922,
      "duration": 0.1161,
      "velocity": 99,
      "chip": "ym2612"
    },
    {
      "channel": 1,
      "note": 63,
      "start": 15.7929,
      "duration": 0.2354,
      "velocity": 117,
      "chip": "ym2612"
    },
    {
      "channel": 2,
      "note": 84,
      "start": 15.7936,
      "duration": 0.1157,
      "velocity": 99,
      "chip": "ym2612"
    },
    {
      "channel": 3,
      "note": 63,
      "start": 15.7943,
      "duration": 0.2354,
      "velocity": 117,
      "chip": "ym2612"
    },
    {
      "channel": 4,
      "note": 84,
      "start": 15.7951,
      "duration": 0.1153,
      "velocity": 99,
      "chip": "ym2612"
    },
    {
      "channel": 0,
      "note": 62,
      "start": 15.9089,
      "duration": 0.1187,
      "velocity": 99,
      "chip": "ym2612"
    },
    {
      "channel": 2,
      "note": 84,
      "start": 15.9099,
      "duration": 0.1191,
      "velocity": 99,
      "chip": "ym2612"
    },
    {
      "channel": 4,
      "note": 84,
      "start": 15.911,
      "duration": 0.1195,
      "velocity": 99,
      "chip": "ym2612"
    },
    {
      "channel": 0,
      "note": 60,
      "start": 16.0281,
      "duration": 0.0235,
      "velocity": 99,
      "chip": "ym2612"
    },
    {
      "channel": 1,
      "note": 63,
      "start": 16.0288,
      "duration": 0.0522,
      "velocity": 117,
      "chip": "ym2612"
    },
    {
      "channel": 2,
      "note": 86,
      "start": 16.0295,
      "duration": 0.0231,
      "velocity": 99,
      "chip": "ym2612"
    },
    {
      "channel": 3,
      "note": 63,
      "start": 16.0302,
      "duration": 0.0522,
      "velocity": 117,
      "chip": "ym2612"
    },
    {
      "channel": 4,
      "note": 86,
      "start": 16.0311,
      "duration": 0.0227,
      "velocity": 99,
      "chip": "ym2612"
    },
    {
      "channel": 0,
      "note": 60,
      "start": 16.0522,
      "duration": 0.0281,
      "velocity": 99,
      "chip": "ym2612"
    },
    {
      "channel": 2,
      "note": 86,
      "start": 16.0532,
      "duration": 0.0285,
      "velocity": 99,
      "chip": "ym2612"
    },
    {
      "channel": 4,
      "note": 86,
      "start": 16.0544,
      "duration": 0.0288,
      "velocity": 99,
      "chip": "ym2612"
    },
    {
      "channel": 0,
      "note": 64,
      "start": 16.0808,
      "duration": 0.1161,
      "velocity": 99,
      "chip": "ym2612"
    },
    {
      "channel": 1,
      "note": 63,
      "start": 16.0815,
      "duration": 0.2354,
      "velocity": 117,
      "chip": "ym2612"
    },
    {
      "channel": 2,
      "note": 81,
      "start": 16.0822,
      "duration": 0.1157,
      "velocity": 99,
      "chip": "ym2612"
    },
    {
      "channel": 3,
      "note": 63,
      "start": 16.0829,
      "duration": 0.235,
      "velocity": 117,
      "chip": "ym2612"
    },
    {
      "channel": 4,
      "note": 81,
      "start": 16.0837,
      "duration": 0.1153,
      "velocity": 99,
      "chip": "ym2612"
    },
    {
      "channel": 0,
      "note": 64,
      "start": 16.1975,
      "duration": 0.1187,
      "velocity": 99,
      "chip": "ym2612"
    },
    {
      "channel": 2,
      "note": 81,
      "start": 16.1985,
      "duration": 0.1186,
      "velocity": 99,
      "chip": "ym2612"
    },
    {
      "channel": 4,
      "note": 81,
      "start": 16.1997,
      "duration": 0.1191,
      "velocity": 99,
      "chip": "ym2612"
    },
    {
      "channel": 0,
      "note": 62,
      "start": 16.3167,
      "duration": 0.0219,
      "velocity": 99,
      "chip": "ym2612"
    },
    {
      "channel": 2,
      "note": 80,
      "start": 16.3177,
      "duration": 0.0216,
      "velocity": 99,
      "chip": "ym2612"
    },
    {
      "channel": 3,
      "note": 63,
      "start": 16.3184,
      "duration": 0.0688,
      "velocity": 117,
      "chip": "ym2612"
    },
    {
      "channel": 4,
      "note": 80,
      "start": 16.3193,
      "duration": 0.0212,
      "velocity": 99,
      "chip": "ym2612"
    },
    {
      "channel": 0,
      "note": 62,
      "start": 16.3391,
      "duration": 0.0466,
      "velocity": 99,
      "chip": "ym2612"
    },
    {
      "channel": 2,
      "note": 80,
      "start": 16.3399,
      "duration": 0.0466,
      "velocity": 99,
      "chip": "ym2612"
    },
    {
      "channel": 4,
      "note": 80,
      "start": 16.341,
      "duration": 0.0466,
      "velocity": 99,
      "chip": "ym2612"
    },
    {
      "channel": 0,
      "note": 65,
      "start": 16.3863,
      "duration": 0.1161,
      "velocity": 99,
      "chip": "ym2612"
    },
    {
      "channel": 2,
      "note": 83,
      "start": 16.3871,
      "duration": 0.1161,
      "velocity": 99,
      "chip": "ym2612"
    },
    {
      "channel": 4,
      "note": 83,
      "start": 16.3882,
      "duration": 0.1159,
      "velocity": 99,
      "chip": "ym2612"
    },
    {
      "channel": 0,
      "note": 65,
      "start": 16.5029,
      "duration": 0.1188,
      "velocity": 99,
      "chip": "ym2612"
    },
    {
      "channel": 2,
      "note": 83,
      "start": 16.5037,
      "duration": 0.1195,
      "velocity": 99,
      "chip": "ym2612"
    },
    {
      "channel": 4,
      "note": 83,
      "start": 16.5047,
      "duration": 0.119,
      "velocity": 99,
      "chip": "ym2612"
    },
    {
      "channel": 0,
      "note": 57,
      "start": 16.6223,
      "duration": 0.0151,
      "velocity": 99,
      "chip": "ym2612"
    },
    {
      "channel": 1,
      "note": 64,
      "start": 16.623,
      "duration": 0.3576,
      "velocity": 117,
      "chip": "ym2612"
    },
    {
      "channel": 0,
      "note": 57,
      "start": 16.638,
      "duration": 0.0363,
      "velocity": 99,
      "chip": "ym2612"
    },
    {
      "channel": 0,
      "note": 60,
      "start": 16.6749,
      "duration": 0.1161,
      "velocity": 99,
      "chip": "ym2612"
    },
    {
      "channel": 3,
      "note": 64,
      "start": 16.676,
      "duration": 0.5242,
      "velocity": 117,
      "chip": "ym2612"
    },
    {
      "channel": 0,
      "note": 60,
      "start": 16.7916,
      "duration": 0.1187,
      "velocity": 99,
      "chip": "ym2612"
    },
    {
      "channel": 0,
      "note": 59,
      "start": 16.9108,
      "duration": 0.0197,
      "velocity": 99,
      "chip": "ym2612"
    },
    {
      "channel": 0,
      "note": 59,
      "start": 16.931,
      "duration": 0.0488,
      "velocity": 99,
      "chip": "ym2612"
    },
    {
      "channel": 0,
      "note": 62,
      "start": 16.9804,
      "duration": 0.1161,
      "velocity": 99,
      "chip": "ym2612"
    },
    {
      "channel": 1,
      "note": 71,
      "start": 16.9811,
      "duration": 0.5242,
      "velocity": 117,
      "chip": "ym2612"
    },
    {
      "channel": 0,
      "note": 62,
      "start": 17.0971,
      "duration": 0.102,
      "velocity": 99,
      "chip": "ym2612"
    },
    {
      "channel": 0,
      "note": 60,
      "start": 17.1996,
      "duration": 0.02,
      "velocity": 99,
      "chip": "ym2612"
    },
    {
      "channel": 3,
      "note": 71,
      "start": 17.2007,
      "duration": 0.3745,
      "velocity": 117,
      "chip": "ym2612"
    },
    {
      "channel": 0,
      "note": 60,
      "start": 17.2202,
      "duration": 0.0484,
      "velocity": 99,
      "chip": "ym2612"
    },
    {
      "channel": 0,
      "note": 64,
      "start": 17.2692,
      "duration": 0.1161,
      "velocity": 99,
      "chip": "ym2612"
    },
    {
      "channel": 0,
      "note": 64,
      "start": 17.3859,
      "duration": 0.1187,
      "velocity": 99,
      "chip": "ym2612"
    },
    {
      "channel": 0,
      "note": 62,
      "start": 17.5051,
      "duration": 0.0187,
      "velocity": 99,
      "chip": "ym2612"
    },
    {
      "channel": 1,
      "note": 77,
      "start": 17.5059,
      "duration": 0.5938,
      "velocity": 117,
      "chip": "ym2612"
    },
    {
      "channel": 0,
      "note": 62,
      "start": 17.5243,
      "duration": 0.0498,
      "velocity": 99,
      "chip": "ym2612"
    },
    {
      "channel": 0,
      "note": 65,
      "start": 17.5747,
      "duration": 0.0994,
      "velocity": 99,
      "chip": "ym2612"
    },
    {
      "channel": 3,
      "note": 77,
      "start": 17.5758,
      "duration": 0.5774,
      "velocity": 117,
      "chip": "ym2612"
    },
    {
      "channel": 0,
      "note": 65,
      "start": 17.6747,
      "duration": 0.1188,
      "velocity": 99,
      "chip": "ym2612"
    },
    {
      "channel": 0,
      "note": 57,
      "start": 17.7941,
      "duration": 0.0206,
      "velocity": 99,
      "chip": "ym2612"
    },
    {
      "channel": 0,
      "note": 57,
      "start": 17.8152,
      "duration": 0.0478,
      "velocity": 99,
      "chip": "ym2612"
    },
    {
      "channel": 0,
      "note": 60,
      "start": 17.8635,
      "duration": 0.1161,
      "velocity": 99,
      "chip": "ym2612"
    },
    {
      "channel": 0,
      "note": 60,
      "start": 17.9802,
      "duration": 0.1187,
      "velocity": 99,
      "chip": "ym2612"
    },
    {
      "channel": 0,
      "note": 59,
      "start": 18.0994,
      "duration": 0.0201,
      "velocity": 99,
      "chip": "ym2612"
    },
    {
      "channel": 1,
      "note": 87,
      "start": 18.1002,
      "duration": 0.0523,
      "velocity": 117,
      "chip": "ym2612"
    },
    {
      "channel": 0,
      "note": 59,
      "start": 18.12,
      "duration": 0.0317,
      "velocity": 99,
      "chip": "ym2612"
    },
    {
      "channel": 0,
      "note": 62,
      "start": 18.1523,
      "duration": 0.1161,
      "velocity": 99,
      "chip": "ym2612"
    },
    {
      "channel": 1,
      "note": 87,
      "start": 18.153,
      "duration": 0.2354,
      "velocity": 117,
      "chip": "ym2612"
    },
    {
      "channel": 3,
      "note": 87,
      "start": 18.1538,
      "duration": 0.2354,
      "velocity": 117,
      "chip": "ym2612"
    },
    {
      "channel": 0,
      "note": 62,
      "start": 18.269,
      "duration": 0.1187,
      "velocity": 99,
      "chip": "ym2612"
    },
    {
      "channel": 0,
      "note": 60,
      "start": 18.3882,
      "duration": 0.0205,
      "velocity": 99,
      "chip": "ym2612"
    },
    {
      "channel": 1,
      "note": 87,
      "start": 18.389,
      "duration": 0.069,
      "velocity": 117,
      "chip": "ym2612"
    },
    {
      "channel": 3,
      "note": 87,
      "start": 18.3897,
      "duration": 0.0689,
      "velocity": 117,
      "chip": "ym2612"
    },
    {
      "channel": 0,
      "note": 60,
      "start": 18.4093,
      "duration": 0.0479,
      "velocity": 99,
      "chip": "ym2612"
    },
    {
      "channel": 0,
      "note": 64,
      "start": 18.4578,
      "duration": 0.1161,
      "velocity": 99,
      "chip": "ym2612"
    },
    {
      "channel": 1,
      "note": 87,
      "start": 18.4585,
      "duration": 0.2354,
      "velocity": 117,
      "chip": "ym2612"
    },
    {
      "channel": 3,
      "note": 87,
      "start": 18.4593,
      "duration": 0.235,
      "velocity": 117,
      "chip": "ym2612"
    },
    {
      "channel": 0,
      "note": 64,
      "start": 18.5744,
      "duration": 0.1187,
      "velocity": 99,
      "chip": "ym2612"
    },
    {
      "channel": 0,
      "note": 62,
      "start": 18.6937,
      "duration": 0.0162,
      "velocity": 99,
      "chip": "ym2612"
    },
    {
      "channel": 3,
      "note": 87,
      "start": 18.6948,
      "duration": 0.0519,
      "velocity": 117,
      "chip": "ym2612"
    },
    {
      "channel": 0,
      "note": 62,
      "start": 18.7104,
      "duration": 0.0355,
      "velocity": 99,
      "chip": "ym2612"
    },
    {
      "channel": 0,
      "note": 65,
      "start": 18.7465,
      "duration": 0.1161,
      "velocity": 99,
      "chip": "ym2612"
    },
    {
      "channel": 0,
      "note": 65,
      "start": 18.8631,
      "duration": 0.1189,
      "velocity": 99,
      "chip": "ym2612"
    },
    {
      "channel": 0,
      "note": 57,
      "start": 18.9826,
      "duration": 10.3194,
      "velocity": 99,
      "chip": "ym2612"
    }
  ]
}