{
  "track_name": "05 - Round 1- Rock, Round 3- Meadow",
  "duration_sec": 73.495,
  "sample_rate": 44100,
  "note_count": 8133,
  "unique_pitches": 35,
  "pitch_range": 57,
  "avg_note_duration": 0.0369,
  "reconstruction_stats": {
    "notes_reconstructed": 8133,
    "keyon_events": 8133,
    "keyoff_events": 1908,
    "orphan_keyons": 2,
    "unique_pitches": 35,
    "pitch_range": 57,
    "avg_duration_sec": 0.0369
  },
  "metadata": {
    "source": "S\\Shadow Blasters\\05 - Round 1- Rock, Round 3- Meadow.vgz"
  },
  "notes": [
    {
      "channel": 1,
      "note": 49,
      "start": 0.0,
      "duration": 0.1942,
      "velocity": 81,
      "chip": "ym2612"
    },
    {
      "channel": 2,
      "note": 41,
      "start": 0.0173,
      "duration": 0.0815,
      "velocity": 122,
      "chip": "ym2612"
    },
    {
      "channel": 2,
      "note": 40,
      "start": 0.1015,
      "duration": 0.0068,
      "velocity": 114,
      "chip": "ym2612"
    },
    {
      "channel": 2,
      "note": 40,
      "start": 0.1083,
      "duration": 0.0125,
      "velocity": 114,
      "chip": "ym2612"
    },
    {
      "channel": 2,
      "note": 40,
      "start": 0.1208,
      "duration": 0.0128,
      "velocity": 114,
      "chip": "ym2612"
    },
    {
      "channel": 2,
      "note": 40,
      "start": 0.1337,
      "duration": 0.0167,
      "velocity": 114,
      "chip": "ym2612"
    },
    {
      "channel": 2,
      "note": 40,
      "start": 0.1504,
      "duration": 0.0078,
      "velocity": 114,
      "chip": "ym2612"
    },
    {
      "channel": 2,
      "note": 40,
      "start": 0.1582,
      "duration": 0.0125,
      "velocity": 114,
      "chip": "ym2612"
    },
    {
      "channel": 2,
      "note": 40,
      "start": 0.1707,
      "duration": 0.0125,
      "velocity": 114,
      "chip": "ym2612"
    },
    {
      "channel": 2,
      "note": 40,
      "start": 0.1832,
      "duration": 0.0149,
      "velocity": 114,
      "chip": "ym2612"
    },
    {
      "channel": 1,
      "note": 61,
      "start": 0.1949,
      "duration": 0.0863,
      "velocity": 81,
      "chip": "ym2612"
    },
    {
      "channel": 2,
      "note": 40,
      "start": 0.2091,
      "duration": 0.0115,
      "velocity": 114,
      "chip": "ym2612"
    },
    {
      "channel": 2,
      "note": 40,
      "start": 0.2206,
      "duration": 0.0125,
      "velocity": 114,
      "chip": "ym2612"
    },
    {
      "channel": 2,
      "note": 40,
      "start": 0.2331,
      "duration": 0.0135,
      "velocity": 114,
      "chip": "ym2612"
    },
    {
      "channel": 2,
      "note": 40,
      "start": 0.2466,
      "duration": 0.0115,
      "velocity": 114,
      "chip": "ym2612"
    },
    {
      "channel": 2,
      "note": 40,
      "start": 0.2581,
      "duration": 0.0125,
      "velocity": 114,
      "chip": "ym2612"
    },
    {
      "channel": 2,
      "note": 40,
      "start": 0.2706,
      "duration": 0.0142,
      "velocity": 114,
      "chip": "ym2612"
    },
    {
      "channel": 1,
      "note": 49,
      "start": 0.2817,
      "duration": 0.1872,
      "velocity": 81,
      "chip": "ym2612"
    },
    {
      "channel": 2,
      "note": 41,
      "start": 0.3,
      "duration": 0.086,
      "velocity": 122,
      "chip": "ym2612"
    },
    {
      "channel": 2,
      "note": 40,
      "start": 0.3887,
      "duration": 0.0077,
      "velocity": 114,
      "chip": "ym2612"
    },
    {
      "channel": 2,
      "note": 40,
      "start": 0.3964,
      "duration": 0.0118,
      "velocity": 114,
      "chip": "ym2612"
    },
    {
      "channel": 2,
      "note": 40,
      "start": 0.4082,
      "duration": 0.0129,
      "velocity": 114,
      "chip": "ym2612"
    },
    {
      "channel": 2,
      "note": 40,
      "start": 0.4212,
      "duration": 0.0121,
      "velocity": 114,
      "chip": "ym2612"
    },
    {
      "channel": 2,
      "note": 40,
      "start": 0.4332,
      "duration": 0.0131,
      "velocity": 114,
      "chip": "ym2612"
    },
    {
      "channel": 2,
      "note": 40,
      "start": 0.4463,
      "duration": 0.0118,
      "velocity": 114,
      "chip": "ym2612"
    },
    {
      "channel": 2,
      "note": 40,
      "start": 0.4582,
      "duration": 0.0143,
      "velocity": 114,
      "chip": "ym2612"
    },
    {
      "channel": 1,
      "note": 61,
      "start": 0.4694,
      "duration": 0.0994,
      "velocity": 81,
      "chip": "ym2612"
    },
    {
      "channel": 2,
      "note": 40,
      "start": 0.4841,
      "duration": 0.0122,
      "velocity": 114,
      "chip": "ym2612"
    },
    {
      "channel": 2,
      "note": 40,
      "start": 0.4963,
      "duration": 0.0118,
      "velocity": 114,
      "chip": "ym2612"
    },
    {
      "channel": 2,
      "note": 40,
      "start": 0.5081,
      "duration": 0.0129,
      "velocity": 114,
      "chip": "ym2612"
    },
    {
      "channel": 2,
      "note": 40,
      "start": 0.521,
      "duration": 0.0121,
      "velocity": 114,
      "chip": "ym2612"
    },
    {
      "channel": 2,
      "note": 40,
      "start": 0.5331,
      "duration": 0.013,
      "velocity": 114,
      "chip": "ym2612"
    },
    {
      "channel": 2,
      "note": 40,
      "start": 0.5461,
      "duration": 0.0119,
      "velocity": 114,
      "chip": "ym2612"
    },
    {
      "channel": 2,
      "note": 40,
      "start": 0.558,
      "duration": 0.0142,
      "velocity": 114,
      "chip": "ym2612"
    },
    {
      "channel": 1,
      "note": 49,
      "start": 0.5693,
      "duration": 0.0869,
      "velocity": 81,
      "chip": "ym2612"
    },
    {
      "channel": 2,
      "note": 41,
      "start": 0.5868,
      "duration": 0.0752,
      "velocity": 122,
      "chip": "ym2612"
    },
    {
      "channel": 1,
      "note": 49,
      "start": 0.6566,
      "duration": 0.0994,
      "velocity": 81,
      "chip": "ym2612"
    },
    {
      "channel": 2,
      "note": 40,
      "start": 0.6647,
      "duration": 0.0057,
      "velocity": 114,
      "chip": "ym2612"
    },
    {
      "channel": 2,
      "note": 40,
      "start": 0.6705,
      "duration": 0.0125,
      "velocity": 114,
      "chip": "ym2612"
    },
    {
      "channel": 2,
      "note": 40,
      "start": 0.6829,
      "duration": 0.0135,
      "velocity": 114,
      "chip": "ym2612"
    },
    {
      "channel": 2,
      "note": 40,
      "start": 0.6964,
      "duration": 0.0114,
      "velocity": 114,
      "chip": "ym2612"
    },
    {
      "channel": 2,
      "note": 40,
      "start": 0.7078,
      "duration": 0.0125,
      "velocity": 114,
      "chip": "ym2612"
    },
    {
      "channel": 2,
      "note": 40,
      "start": 0.7204,
      "duration": 0.0125,
      "velocity": 114,
      "chip": "ym2612"
    },
    {
      "channel": 2,
      "note": 40,
      "start": 0.7329,
      "duration": 0.0131,
      "velocity": 114,
      "chip": "ym2612"
    },
    {
      "channel": 2,
      "note": 40,
      "start": 0.746,
      "duration": 0.014,
      "velocity": 114,
      "chip": "ym2612"
    },
    {
      "channel": 1,
      "note": 51,
      "start": 0.7565,
      "duration": 0.1868,
      "velocity": 81,
      "chip": "ym2612"
    },
    {
      "channel": 2,
      "note": 41,
      "start": 0.7745,
      "duration": 0.074,
      "velocity": 122,
      "chip": "ym2612"
    },
    {
      "channel": 2,
      "note": 40,
      "start": 0.8512,
      "duration": 0.0068,
      "velocity": 114,
      "chip": "ym2612"
    },
    {
      "channel": 2,
      "note": 40,
      "start": 0.858,
      "duration": 0.0125,
      "velocity": 114,
      "chip": "ym2612"
    },
    {
      "channel": 2,
      "note": 40,
      "start": 0.8705,
      "duration": 0.0128,
      "velocity": 114,
      "chip": "ym2612"
    },
    {
      "channel": 2,
      "note": 40,
      "start": 0.8834,
      "duration": 0.0127,
      "velocity": 114,
      "chip": "ym2612"
    },
    {
      "channel": 2,
      "note": 40,
      "start": 0.8961,
      "duration": 0.0119,
      "velocity": 114,
      "chip": "ym2612"
    },
    {
      "channel": 2,
      "note": 40,
      "start": 0.908,
      "duration": 0.0125,
      "velocity": 114,
      "chip": "ym2612"
    },
    {
      "channel": 2,
      "note": 40,
      "start": 0.9205,
      "duration": 0.0125,
      "velocity": 114,
      "chip": "ym2612"
    },
    {
      "channel": 2,
      "note": 40,
      "start": 0.933,
      "duration": 0.0148,
      "velocity": 114,
      "chip": "ym2612"
    },
    {
      "channel": 1,
      "note": 63,
      "start": 0.9437,
      "duration": 0.087,
      "velocity": 81,
      "chip": "ym2612"
    },
    {
      "channel": 2,
      "note": 41,
      "start": 0.9623,
      "duration": 0.074,
      "velocity": 122,
      "chip": "ym2612"
    },
    {
      "channel": 1,
      "note": 51,
      "start": 1.0311,
      "duration": 0.1868,
      "velocity": 81,
      "chip": "ym2612"
    },
    {
      "channel": 2,
      "note": 40,
      "start": 1.039,
      "duration": 0.0069,
      "velocity": 114,
      "chip": "ym2612"
    },
    {
      "channel": 2,
      "note": 40,
      "start": 1.0459,
      "duration": 0.0119,
      "velocity": 114,
      "chip": "ym2612"
    },
    {
      "channel": 2,
      "note": 40,
      "start": 1.0578,
      "duration": 0.0128,
      "velocity": 114,
      "chip": "ym2612"
    },
    {
      "channel": 2,
      "note": 40,
      "start": 1.0706,
      "duration": 0.0122,
      "velocity": 114,
      "chip": "ym2612"
    },
    {
      "channel": 2,
      "note": 40,
      "start": 1.0828,
      "duration": 0.013,
      "velocity": 114,
      "chip": "ym2612"
    },
    {
      "channel": 2,
      "note": 40,
      "start": 1.0958,
      "duration": 0.0119,
      "velocity": 114,
      "chip": "ym2612"
    },
    {
      "channel": 2,
      "note": 40,
      "start": 1.1077,
      "duration": 0.0125,
      "velocity": 114,
      "chip": "ym2612"
    },
    {
      "channel": 2,
      "note": 40,
      "start": 1.1203,
      "duration": 0.0132,
      "velocity": 114,
      "chip": "ym2612"
    },
    {
      "channel": 2,
      "note": 41,
      "start": 1.1496,
      "duration": 0.074,
      "velocity": 122,
      "chip": "ym2612"
    },
    {
      "channel": 1,
      "note": 63,
      "start": 1.2184,
      "duration": 0.0994,
      "velocity": 81,
      "chip": "ym2612"
    },
    {
      "channel": 2,
      "note": 40,
      "start": 1.2263,
      "duration": 0.0063,
      "velocity": 114,
      "chip": "ym2612"
    },
    {
      "channel": 2,
      "note": 40,
      "start": 1.2326,
      "duration": 0.013,
      "velocity": 114,
      "chip": "ym2612"
    },
    {
      "channel": 2,
      "note": 40,
      "start": 1.2456,
      "duration": 0.0123,
      "velocity": 114,
      "chip": "ym2612"
    },
    {
      "channel": 2,
      "note": 40,
      "start": 1.2579,
      "duration": 0.0122,
      "velocity": 114,
      "chip": "ym2612"
    },
    {
      "channel": 2,
      "note": 40,
      "start": 1.2701,
      "duration": 0.0125,
      "velocity": 114,
      "chip": "ym2612"
    },
    {
      "channel": 2,
      "note": 40,
      "start": 1.2826,
      "duration": 0.013,
      "velocity": 114,
      "chip": "ym2612"
    },
    {
      "channel": 2,
      "note": 40,
      "start": 1.2956,
      "duration": 0.0119,
      "velocity": 114,
      "chip": "ym2612"
    },
    {
      "channel": 2,
      "note": 40,
      "start": 1.3075,
      "duration": 0.0142,
      "velocity": 114,
      "chip": "ym2612"
    },
    {
      "channel": 1,
      "note": 51,
      "start": 1.3183,
      "duration": 0.0869,
      "velocity": 81,
      "chip": "ym2612"
    },
    {
      "channel": 2,
      "note": 41,
      "start": 1.3362,
      "duration": 0.0749,
      "velocity": 122,
      "chip": "ym2612"
    },
    {
      "channel": 1,
      "note": 63,
      "start": 1.4057,
      "duration": 0.1005,
      "velocity": 81,
      "chip": "ym2612"
    },
    {
      "channel": 2,
      "note": 40,
      "start": 1.4141,
      "duration": 0.0057,
      "velocity": 114,
      "chip": "ym2612"
    },
    {
      "channel": 2,
      "note": 40,
      "start": 1.4199,
      "duration": 0.0125,
      "velocity": 114,
      "chip": "ym2612"
    },
    {
      "channel": 2,
      "note": 40,
      "start": 1.4324,
      "duration": 0.0134,
      "velocity": 114,
      "chip": "ym2612"
    },
    {
      "channel": 2,
      "note": 40,
      "start": 1.4458,
      "duration": 0.0115,
      "velocity": 114,
      "chip": "ym2612"
    },
    {
      "channel": 2,
      "note": 40,
      "start": 1.4573,
      "duration": 0.0125,
      "velocity": 114,
      "chip": "ym2612"
    },
    {
      "channel": 2,
      "note": 40,
      "start": 1.4698,
      "duration": 0.0125,
      "velocity": 114,
      "chip": "ym2612"
    },
    {
      "channel": 2,
      "note": 40,
      "start": 1.4823,
      "duration": 0.0131,
      "velocity": 114,
      "chip": "ym2612"
    },
    {
      "channel": 2,
      "note": 40,
      "start": 1.4954,
      "duration": 0.0174,
      "velocity": 114,
      "chip": "ym2612"
    },
    {
      "channel": 0,
      "note": 89,
      "start": 1.505,
      "duration": 0.3746,
      "velocity": 95,
      "chip": "ym2612"
    },
    {
      "channel": 1,
      "note": 53,
      "start": 1.5066,
      "duration": 0.1854,
      "velocity": 81,
      "chip": "ym2612"
    },
    {
      "channel": 4,
      "note": 65,
      "start": 1.5104,
      "duration": 0.0826,
      "velocity": 74,
      "chip": "ym2612"
    },
    {
      "channel": 2,
      "note": 40,
      "start": 1.5203,
      "duration": 0.0115,
      "velocity": 114,
      "chip": "ym2612"
    },
    {
      "channel": 2,
      "note": 40,
      "start": 1.5318,
      "duration": 0.0131,
      "velocity": 114,
      "chip": "ym2612"
    },
    {
      "channel": 2,
      "note": 40,
      "start": 1.5449,
      "duration": 0.0122,
      "velocity": 114,
      "chip": "ym2612"
    },
    {
      "channel": 2,
      "note": 40,
      "start": 1.5572,
      "duration": 0.0121,
      "velocity": 114,
      "chip": "ym2612"
    },
    {
      "channel": 2,
      "note": 40,
      "start": 1.5693,
      "duration": 0.0125,
      "velocity": 114,
      "chip": "ym2612"
    },
    {
      "channel": 2,
      "note": 40,
      "start": 1.5818,
      "duration": 0.0143,
      "velocity": 114,
      "chip": "ym2612"
    },
    {
      "channel": 4,
      "note": 75,
      "start": 1.5935,
      "duration": 0.102,
      "velocity": 74,
      "chip": "ym2612"
    },
    {
      "channel": 2,
      "note": 40,
      "start": 1.596,
      "duration": 0.0107,
      "velocity": 114,
      "chip": "ym2612"
    },
    {
      "channel": 2,
      "note": 40,
      "start": 1.6068,
      "duration": 0.0125,
      "velocity": 114,
      "chip": "ym2612"
    },
    {
      "channel": 2,
      "note": 40,
      "start": 1.6193,
      "duration": 0.0125,
      "velocity": 114,
      "chip": "ym2612"
    },
    {
      "channel": 2,
      "note": 40,
      "start": 1.6318,
      "duration": 0.0139,
      "velocity": 114,
      "chip": "ym2612"
    },
    {
      "channel": 5,
      "note": 89,
      "start": 1.6442,
      "duration": 0.3752,
      "velocity": 95,
      "chip": "ym2612"
    },
    {
      "channel": 2,
      "note": 39,
      "start": 1.6457,
      "duration": 0.0106,
      "velocity": 114,
      "chip": "ym2612"
    },
    {
      "channel": 2,
      "note": 39,
      "start": 1.6563,
      "duration": 0.0125,
      "velocity": 114,
      "chip": "ym2612"
    },
    {
      "channel": 2,
      "note": 39,
      "start": 1.6689,
      "duration": 0.0125,
      "velocity": 114,
      "chip": "ym2612"
    },
    {
      "channel": 1,
      "note": 53,
      "start": 1.6925,
      "duration": 0.1879,
      "velocity": 81,
      "chip": "ym2612"
    },
    {
      "channel": 4,
      "note": 77,
      "start": 1.696,
      "duration": 0.0845,
      "velocity": 74,
      "chip": "ym2612"
    },
    {
      "channel": 2,
      "note": 40,
      "start": 1.699,
      "duration": 0.0074,
      "velocity": 114,
      "chip": "ym2612"
    },
    {
      "channel": 2,
      "note": 40,
      "start": 1.7063,
      "duration": 0.0125,
      "velocity": 114,
      "chip": "ym2612"
    },
    {
      "channel": 2,
      "note": 40,
      "start": 1.7189,
      "duration": 0.0129,
      "velocity": 114,
      "chip": "ym2612"
    },
    {
      "channel": 2,
      "note": 40,
      "start": 1.7318,
      "duration": 0.0125,
      "velocity": 114,
      "chip": "ym2612"
    },
    {
      "channel": 2,
      "note": 40,
      "start": 1.7442,
      "duration": 0.0121,
      "velocity": 114,
      "chip": "ym2612"
    },
    {
      "channel": 2,
      "note": 40,
      "start": 1.7563,
      "duration": 0.0125,
      "velocity": 114,
      "chip": "ym2612"
    },
    {
      "channel": 2,
      "note": 40,
      "start": 1.7689,
      "duration": 0.0137,
      "velocity": 114,
      "chip": "ym2612"
    },
    {
      "channel": 4,
      "note": 65,
      "start": 1.781,
      "duration": 0.1024,
      "velocity": 74,
      "chip": "ym2612"
    },
    {
      "channel": 2,
      "note": 40,
      "start": 1.7825,
      "duration": 0.0117,
      "velocity": 114,
      "chip": "ym2612"
    },
    {
      "channel": 2,
      "note": 40,
      "start": 1.7942,
      "duration": 0.0121,
      "velocity": 114,
      "chip": "ym2612"
    },
    {
      "channel": 2,
      "note": 40,
      "start": 1.8063,
      "duration": 0.0125,
      "velocity": 114,
      "chip": "ym2612"
    },
    {
      "channel": 2,
      "note": 39,
      "start": 1.8189,
      "duration": 0.0125,
      "velocity": 114,
      "chip": "ym2612"
    },
    {
      "channel": 2,
      "note": 39,
      "start": 1.8314,
      "duration": 0.0129,
      "velocity": 114,
      "chip": "ym2612"
    },
    {
      "channel": 2,
      "note": 39,
      "start": 1.8442,
      "duration": 0.0121,
      "velocity": 114,
      "chip": "ym2612"
    },
    {
      "channel": 0,
      "note": 89,
      "start": 1.8795,
      "duration": 0.0125,
      "velocity": 95,
      "chip": "ym2612"
    },
    {
      "channel": 1,
      "note": 53,
      "start": 1.881,
      "duration": 0.187,
      "velocity": 81,
      "chip": "ym2612"
    },
    {
      "channel": 4,
      "note": 72,
      "start": 1.8838,
      "duration": 0.0858,
      "velocity": 74,
      "chip": "ym2612"
    },
    {
      "channel": 2,
      "note": 41,
      "start": 1.8895,
      "duration": 0.0837,
      "velocity": 122,
      "chip": "ym2612"
    },
    {
      "channel": 0,
      "note": 89,
      "start": 1.892,
      "duration": 0.0125,
      "velocity": 95,
      "chip": "ym2612"
    },
    {
      "channel": 0,
      "note": 89,
      "start": 1.9045,
      "duration": 0.0125,
      "velocity": 95,
      "chip": "ym2612"
    },
    {
      "channel": 0,
      "note": 89,
      "start": 1.917,
      "duration": 0.0126,
      "velocity": 95,
      "chip": "ym2612"
    },
    {
      "channel": 0,
      "note": 89,
      "start": 1.9295,
      "duration": 0.0125,
      "velocity": 95,
      "chip": "ym2612"
    },
    {
      "channel": 0,
      "note": 89,
      "start": 1.942,
      "duration": 0.0125,
      "velocity": 95,
      "chip": "ym2612"
    },
    {
      "channel": 0,
      "note": 89,
      "start": 1.9545,
      "duration": 0.0125,
      "velocity": 95,
      "chip": "ym2612"
    },
    {
      "channel": 0,
      "note": 89,
      "start": 1.967,
      "duration": 0.0125,
      "velocity": 95,
      "chip": "ym2612"
    },
    {
      "channel": 4,
      "note": 75,
      "start": 1.9701,
      "duration": 0.0998,
      "velocity": 74,
      "chip": "ym2612"
    },
    {
      "channel": 2,
      "note": 40,
      "start": 1.976,
      "duration": 0.0063,
      "velocity": 114,
      "chip": "ym2612"
    },
    {
      "channel": 0,
      "note": 89,
      "start": 1.9795,
      "duration": 0.0125,
      "velocity": 95,
      "chip": "ym2612"
    },
    {
      "channel": 2,
      "note": 40,
      "start": 1.9823,
      "duration": 0.0131,
      "velocity": 114,
      "chip": "ym2612"
    },
    {
      "channel": 0,
      "note": 89,
      "start": 1.992,
      "duration": 0.0125,
      "velocity": 95,
      "chip": "ym2612"
    },
    {
      "channel": 2,
      "note": 40,
      "start": 1.9954,
      "duration": 0.0123,
      "velocity": 114,
      "chip": "ym2612"
    },
    {
      "channel": 0,
      "note": 89,
      "start": 2.0045,
      "duration": 0.0125,
      "velocity": 95,
      "chip": "ym2612"
    },
    {
      "channel": 2,
      "note": 40,
      "start": 2.0077,
      "duration": 0.013,
      "velocity": 114,
      "chip": "ym2612"
    },
    {
      "channel": 0,
      "note": 89,
      "start": 2.017,
      "duration": 0.0126,
      "velocity": 95,
      "chip": "ym2612"
    },
    {
      "channel": 5,
      "note": 89,
      "start": 2.0194,
      "duration": 0.0125,
      "velocity": 95,
      "chip": "ym2612"
    },
    {
      "channel": 2,
      "note": 40,
      "start": 2.0206,
      "duration": 0.0125,
      "velocity": 114,
      "chip": "ym2612"
    },
    {
      "channel": 0,
      "note": 89,
      "start": 2.0295,
      "duration": 0.0125,
      "velocity": 95,
      "chip": "ym2612"
    },
    {
      "channel": 5,
      "note": 89,
      "start": 2.0319,
      "duration": 0.0131,
      "velocity": 95,
      "chip": "ym2612"
    },
    {
      "channel": 2,
      "note": 40,
      "start": 2.0332,
      "duration": 0.0131,
      "velocity": 114,
      "chip": "ym2612"
    },
    {
      "channel": 0,
      "note": 89,
      "start": 2.042,
      "duration": 0.0125,
      "velocity": 95,
      "chip": "ym2612"
    },
    {
      "channel": 5,
      "note": 89,
      "start": 2.045,
      "duration": 0.0119,
      "velocity": 95,
      "chip": "ym2612"
    },
    {
      "channel": 2,
      "note": 40,
      "start": 2.0463,
      "duration": 0.0119,
      "velocity": 114,
      "chip": "ym2612"
    },
    {
      "channel": 0,
      "note": 89,
      "start": 2.0545,
      "duration": 0.0125,
      "velocity": 95,
      "chip": "ym2612"
    },
    {
      "channel": 5,
      "note": 89,
      "start": 2.0569,
      "duration": 0.0148,
      "velocity": 95,
      "chip": "ym2612"
    },
    {
      "channel": 2,
      "note": 40,
      "start": 2.0582,
      "duration": 0.0147,
      "velocity": 114,
      "chip": "ym2612"
    },
    {
      "channel": 0,
      "note": 89,
      "start": 2.067,
      "duration": 0.0126,
      "velocity": 95,
      "chip": "ym2612"
    },
    {
      "channel": 1,
      "note": 53,
      "start": 2.0684,
      "duration": 0.187,
      "velocity": 81,
      "chip": "ym2612"
    },
    {
      "channel": 4,
      "note": 65,
      "start": 2.0705,
      "duration": 0.0859,
      "velocity": 74,
      "chip": "ym2612"
    },
    {
      "channel": 5,
      "note": 89,
      "start": 2.0717,
      "duration": 0.0102,
      "velocity": 95,
      "chip": "ym2612"
    },
    {
      "channel": 2,
      "note": 40,
      "start": 2.0729,
      "duration": 0.0102,
      "velocity": 114,
      "chip": "ym2612"
    },
    {
      "channel": 0,
      "note": 89,
      "start": 2.0795,
      "duration": 0.0125,
      "velocity": 95,
      "chip": "ym2612"
    },
    {
      "channel": 5,
      "note": 89,
      "start": 2.0819,
      "duration": 0.0131,
      "velocity": 95,
      "chip": "ym2612"
    },
    {
      "channel": 2,
      "note": 40,
      "start": 2.0832,
      "duration": 0.0131,
      "velocity": 114,
      "chip": "ym2612"
    },
    {
      "channel": 0,
      "note": 89,
      "start": 2.092,
      "duration": 0.0125,
      "velocity": 95,
      "chip": "ym2612"
    },
    {
      "channel": 5,
      "note": 89,
      "start": 2.095,
      "duration": 0.0119,
      "velocity": 95,
      "chip": "ym2612"
    },
    {
      "channel": 2,
      "note": 39,
      "start": 2.0963,
      "duration": 0.0119,
      "velocity": 114,
      "chip": "ym2612"
    },
    {
      "channel": 0,
      "note": 89,
      "start": 2.1045,
      "duration": 0.0125,
      "velocity": 95,
      "chip": "ym2612"
    },
    {
      "channel": 5,
      "note": 89,
      "start": 2.1069,
      "duration": 0.0125,
      "velocity": 95,
      "chip": "ym2612"
    },
    {
      "channel": 2,
      "note": 39,
      "start": 2.1082,
      "duration": 0.0124,
      "velocity": 114,
      "chip": "ym2612"
    },
    {
      "channel": 0,
      "note": 89,
      "start": 2.117,
      "duration": 0.0126,
      "velocity": 95,
      "chip": "ym2612"
    },
    {
      "channel": 5,
      "note": 89,
      "start": 2.1194,
      "duration": 0.0125,
      "velocity": 95,
      "chip": "ym2612"
    },
    {
      "channel": 2,
      "note": 39,
      "start": 2.1206,
      "duration": 0.0125,
      "velocity": 114,
      "chip": "ym2612"
    },
    {
      "channel": 0,
      "note": 89,
      "start": 2.1295,
      "duration": 0.0125,
      "velocity": 95,
      "chip": "ym2612"
    },
    {
      "channel": 5,
      "note": 89,
      "start": 2.1319,
      "duration": 0.0131,
      "velocity": 95,
      "chip": "ym2612"
    },
    {
      "channel": 0,
      "note": 89,
      "start": 2.142,
      "duration": 0.0125,
      "velocity": 95,
      "chip": "ym2612"
    },
    {
      "channel": 5,
      "note": 89,
      "start": 2.145,
      "duration": 0.013,
      "velocity": 95,
      "chip": "ym2612"
    },
    {
      "channel": 0,
      "note": 89,
      "start": 2.1545,
      "duration": 0.0125,
      "velocity": 95,
      "chip": "ym2612"
    },
    {
      "channel": 4,
      "note": 70,
      "start": 2.1568,
      "duration": 0.1014,
      "velocity": 74,
      "chip": "ym2612"
    },
    {
      "channel": 5,
      "note": 89,
      "start": 2.158,
      "duration": 0.0113,
      "velocity": 95,
      "chip": "ym2612"
    },
    {
      "channel": 0,
      "note": 89,
      "start": 2.167,
      "duration": 0.0126,
      "velocity": 95,
      "chip": "ym2612"
    },
    {
      "channel": 5,
      "note": 89,
      "start": 2.1694,
      "duration": 0.0125,
      "velocity": 95,
      "chip": "ym2612"
    },
    {
      "channel": 0,
      "note": 89,
      "start": 2.1795,
      "duration": 0.0125,
      "velocity": 95,
      "chip": "ym2612"
    },
    {
      "channel": 5,
      "note": 89,
      "start": 2.1819,
      "duration": 0.0131,
      "velocity": 95,
      "chip": "ym2612"
    },
    {
      "channel": 0,
      "note": 89,
      "start": 2.192,
      "duration": 0.0125,
      "velocity": 95,
      "chip": "ym2612"
    },
    {
      "channel": 5,
      "note": 89,
      "start": 2.195,
      "duration": 0.0119,
      "velocity": 95,
      "chip": "ym2612"
    },
    {
      "channel": 0,
      "note": 89,
      "start": 2.2045,
      "duration": 0.0125,
      "velocity": 95,
      "chip": "ym2612"
    },
    {
      "channel": 5,
      "note": 89,
      "start": 2.2069,
      "duration": 0.0125,
      "velocity": 95,
      "chip": "ym2612"
    },
    {
      "channel": 0,
      "note": 89,
      "start": 2.217,
      "duration": 0.0126,
      "velocity": 95,
      "chip": "ym2612"
    },
    {
      "channel": 5,
      "note": 89,
      "start": 2.2194,
      "duration": 0.0125,
      "velocity": 95,
      "chip": "ym2612"
    },
    {
      "channel": 0,
      "note": 89,
      "start": 2.2295,
      "duration": 0.0125,
      "velocity": 95,
      "chip": "ym2612"
    },
    {
      "channel": 5,
      "note": 89,
      "start": 2.2319,
      "duration": 0.0131,
      "velocity": 95,
      "chip": "ym2612"
    },
    {
      "channel": 0,
      "note": 89,
      "start": 2.242,
      "duration": 0.0125,
      "velocity": 95,
      "chip": "ym2612"
    },
    {
      "channel": 5,
      "note": 89,
      "start": 2.245,
      "duration": 0.0149,
      "velocity": 95,
      "chip": "ym2612"
    },
    {
      "channel": 0,
      "note": 89,
      "start": 2.2545,
      "duration": 0.0125,
      "velocity": 95,
      "chip": "ym2612"
    },
    {
      "channel": 1,
      "note": 53,
      "start": 2.2559,
      "duration": 0.187,
      "velocity": 81,
      "chip": "ym2612"
    },
    {
      "channel": 4,
      "note": 72,
      "start": 2.2588,
      "duration": 0.0854,
      "velocity": 74,
      "chip": "ym2612"
    },
    {
      "channel": 5,
      "note": 89,
      "start": 2.26,
      "duration": 0.0094,
      "velocity": 95,
      "chip": "ym2612"
    },
    {
      "channel": 2,
      "note": 40,
      "start": 2.2632,
      "duration": 0.0074,
      "velocity": 114,
      "chip": "ym2612"
    },
    {
      "channel": 0,
      "note": 89,
      "start": 2.267,
      "duration": 0.0126,
      "velocity": 95,
      "chip": "ym2612"
    },
    {
      "channel": 5,
      "note": 89,
      "start": 2.2694,
      "duration": 0.0125,
      "velocity": 95,
      "chip": "ym2612"
    },
    {
      "channel": 2,
      "note": 40,
      "start": 2.2706,
      "duration": 0.0125,
      "velocity": 114,
      "chip": "ym2612"
    },
    {
      "channel": 0,
      "note": 89,
      "start": 2.2795,
      "duration": 0.0125,
      "velocity": 95,
      "chip": "ym2612"
    },
    {
      "channel": 5,
      "note": 89,
      "start": 2.2819,
      "duration": 0.0131,
      "velocity": 95,
      "chip": "ym2612"
    },
    {
      "channel": 2,
      "note": 40,
      "start": 2.2832,
      "duration": 0.0135,
      "velocity": 114,
      "chip": "ym2612"
    },
    {
      "channel": 0,
      "note": 89,
      "start": 2.292,
      "duration": 0.0125,
      "velocity": 95,
      "chip": "ym2612"
    },
    {
      "channel": 5,
      "note": 89,
      "start": 2.295,
      "duration": 0.0119,
      "velocity": 95,
      "chip": "ym2612"
    },
    {
      "channel": 2,
      "note": 40,
      "start": 2.2967,
      "duration": 0.0115,
      "velocity": 114,
      "chip": "ym2612"
    },
    {
      "channel": 0,
      "note": 89,
      "start": 2.3045,
      "duration": 0.0125,
      "velocity": 95,
      "chip": "ym2612"
    },
    {
      "channel": 5,
      "note": 89,
      "start": 2.3069,
      "duration": 0.0125,
      "velocity": 95,
      "chip": "ym2612"
    },
    {
      "channel": 2,
      "note": 40,
      "start": 2.3082,
      "duration": 0.0124,
      "velocity": 114,
      "chip": "ym2612"
    },
    {
      "channel": 0,
      "note": 89,
      "start": 2.317,
      "duration": 0.0126,
      "velocity": 95,
      "chip": "ym2612"
    },
    {
      "channel": 5,
      "note": 89,
      "start": 2.3194,
      "duration": 0.0125,
      "velocity": 95,
      "chip": "ym2612"
    },
    {
      "channel": 2,
      "note": 40,
      "start": 2.3206,
      "duration": 0.0125,
      "velocity": 114,
      "chip": "ym2612"
    },
    {
      "channel": 0,
      "note": 89,
      "start": 2.3295,
      "duration": 0.0125,
      "velocity": 95,
      "chip": "ym2612"
    },
    {
      "channel": 5,
      "note": 89,
      "start": 2.3319,
      "duration": 0.0142,
      "velocity": 95,
      "chip": "ym2612"
    },
    {
      "channel": 2,
      "note": 40,
      "start": 2.3332,
      "duration": 0.0142,
      "velocity": 114,
      "chip": "ym2612"
    },
    {
      "channel": 0,
      "note": 89,
      "start": 2.342,
      "duration": 0.0125,
      "velocity": 95,
      "chip": "ym2612"
    },
    {
      "channel": 4,
      "note": 65,
      "start": 2.3449,
      "duration": 0.1015,
      "velocity": 74,
      "chip": "ym2612"
    },
    {
      "channel": 5,
      "note": 89,
      "start": 2.3461,
      "duration": 0.0107,
      "velocity": 95,
      "chip": "ym2612"
    },
    {
      "channel": 2,
      "note": 40,
      "start": 2.3474,
      "duration": 0.0108,
      "velocity": 114,
      "chip": "ym2612"
    },
    {
      "channel": 0,
      "note": 89,
      "start": 2.3545,
      "duration": 0.0125,
      "velocity": 95,
      "chip": "ym2612"
    },
    {
      "channel": 5,
      "note": 89,
      "start": 2.3569,
      "duration": 0.0125,
      "velocity": 95,
      "chip": "ym2612"
    },
    {
      "channel": 2,
      "note": 40,
      "start": 2.3582,
      "duration": 0.0124,
      "velocity": 114,
      "chip": "ym2612"
    },
    {
      "channel": 0,
      "note": 89,
      "start": 2.367,
      "duration": 0.0126,
      "velocity": 95,
      "chip": "ym2612"
    },
    {
      "channel": 5,
      "note": 89,
      "start": 2.3694,
      "duration": 0.0125,
      "velocity": 95,
      "chip": "ym2612"
    },
    {
      "channel": 2,
      "note": 40,
      "start": 2.3706,
      "duration": 0.0125,
      "velocity": 114,
      "chip": "ym2612"
    },
    {
      "channel": 0,
      "note": 89,
      "start": 2.3795,
      "duration": 0.0125,
      "velocity": 95,
      "chip": "ym2612"
    },
    {
      "channel": 5,
      "note": 89,
      "start": 2.3819,
      "duration": 0.0131,
      "velocity": 95,
      "chip": "ym2612"
    },
    {
      "channel": 2,
      "note": 39,
      "start": 2.3832,
      "duration": 0.0131,
      "velocity": 114,
      "chip": "ym2612"
    },
    {
      "channel": 0,
      "note": 89,
      "start": 2.392,
      "duration": 0.0125,
      "velocity": 95,
      "chip": "ym2612"
    },
    {
      "channel": 5,
      "note": 89,
      "start": 2.395,
      "duration": 0.0119,
      "velocity": 95,
      "chip": "ym2612"
    },
    {
      "channel": 2,
      "note": 39,
      "start": 2.3963,
      "duration": 0.0119,
      "velocity": 114,
      "chip": "ym2612"
    },
    {
      "channel": 0,
      "note": 89,
      "start": 2.4045,
      "duration": 0.0125,
      "velocity": 95,
      "chip": "ym2612"
    },
    {
      "channel": 5,
      "note": 89,
      "start": 2.4069,
      "duration": 0.0125,
      "velocity": 95,
      "chip": "ym2612"
    },
    {
      "channel": 2,
      "note": 39,
      "start": 2.4082,
      "duration": 0.0124,
      "velocity": 114,
      "chip": "ym2612"
    },
    {
      "channel": 0,
      "note": 89,
      "start": 2.417,
      "duration": 0.0126,
      "velocity": 95,
      "chip": "ym2612"
    },
    {
      "channel": 5,
      "note": 89,
      "start": 2.4194,
      "duration": 0.0125,
      "velocity": 95,
      "chip": "ym2612"
    },
    {
      "channel": 0,
      "note": 89,
      "start": 2.4295,
      "duration": 0.0125,
      "velocity": 95,
      "chip": "ym2612"
    },
    {
      "channel": 5,
      "note": 89,
      "start": 2.4319,
      "duration": 0.0161,
      "velocity": 95,
      "chip": "ym2612"
    },
    {
      "channel": 0,
      "note": 89,
      "start": 2.442,
      "duration": 0.0125,
      "velocity": 95,
      "chip": "ym2612"
    },
    {
      "channel": 1,
      "note": 65,
      "start": 2.4434,
      "duration": 0.087,
      "velocity": 81,
      "chip": "ym2612"
    },
    {
      "channel": 4,
      "note": 68,
      "start": 2.4468,
      "duration": 0.0857,
      "velocity": 74,
      "chip": "ym2612"
    },
    {
      "channel": 5,
      "note": 89,
      "start": 2.448,
      "duration": 0.0088,
      "velocity": 95,
      "chip": "ym2612"
    },
    {
      "channel": 2,
      "note": 40,
      "start": 2.4507,
      "duration": 0.0075,
      "velocity": 114,
      "chip": "ym2612"
    },
    {
      "channel": 0,
      "note": 89,
      "start": 2.4545,
      "duration": 0.0125,
      "velocity": 95,
      "chip": "ym2612"
    },
    {
      "channel": 5,
      "note": 89,
      "start": 2.4569,
      "duration": 0.0125,
      "velocity": 95,
      "chip": "ym2612"
    },
    {
      "channel": 2,
      "note": 40,
      "start": 2.4582,
      "duration": 0.0124,
      "velocity": 114,
      "chip": "ym2612"
    },
    {
      "channel": 0,
      "note": 89,
      "start": 2.467,
      "duration": 0.0126,
      "velocity": 95,
      "chip": "ym2612"
    },
    {
      "channel": 5,
      "note": 89,
      "start": 2.4694,
      "duration": 0.0125,
      "velocity": 95,
      "chip": "ym2612"
    },
    {
      "channel": 2,
      "note": 40,
      "start": 2.4706,
      "duration": 0.0129,
      "velocity": 114,
      "chip": "ym2612"
    },
    {
      "channel": 0,
      "note": 89,
      "start": 2.4795,
      "duration": 0.0125,
      "velocity": 95,
      "chip": "ym2612"
    },
    {
      "channel": 5,
      "note": 89,
      "start": 2.4819,
      "duration": 0.0131,
      "velocity": 95,
      "chip": "ym2612"
    },
    {
      "channel": 2,
      "note": 40,
      "start": 2.4836,
      "duration": 0.0127,
      "velocity": 114,
      "chip": "ym2612"
    },
    {
      "channel": 0,
      "note": 89,
      "start": 2.492,
      "duration": 0.0125,
      "velocity": 95,
      "chip": "ym2612"
    },
    {
      "channel": 5,
      "note": 89,
      "start": 2.495,
      "duration": 0.0119,
      "velocity": 95,
      "chip": "ym2612"
    },
    {
      "channel": 2,
      "note": 40,
      "start": 2.4963,
      "duration": 0.0119,
      "velocity": 114,
      "chip": "ym2612"
    },
    {
      "channel": 0,
      "note": 89,
      "start": 2.5045,
      "duration": 0.0125,
      "velocity": 95,
      "chip": "ym2612"
    },
    {
      "channel": 5,
      "note": 89,
      "start": 2.5069,
      "duration": 0.0125,
      "velocity": 95,
      "chip": "ym2612"
    },
    {
      "channel": 2,
      "note": 40,
      "start": 2.5082,
      "duration": 0.0124,
      "velocity": 114,
      "chip": "ym2612"
    },
    {
      "channel": 0,
      "note": 89,
      "start": 2.517,
      "duration": 0.0126,
      "velocity": 95,
      "chip": "ym2612"
    },
    {
      "channel": 5,
      "note": 89,
      "start": 2.5194,
      "duration": 0.0148,
      "velocity": 95,
      "chip": "ym2612"
    },
    {
      "channel": 2,
      "note": 40,
      "start": 2.5206,
      "duration": 0.0148,
      "velocity": 114,
      "chip": "ym2612"
    },
    {
      "channel": 0,
      "note": 89,
      "start": 2.5295,
      "duration": 0.0125,
      "velocity": 95,
      "chip": "ym2612"
    },
    {
      "channel": 1,
      "note": 65,
      "start": 2.531,
      "duration": 0.0995,
      "velocity": 81,
      "chip": "ym2612"
    },
    {
      "channel": 4,
      "note": 70,
      "start": 2.533,
      "duration": 0.1004,
      "velocity": 74,
      "chip": "ym2612"
    },
    {
      "channel": 5,
      "note": 89,
      "start": 2.5342,
      "duration": 0.0108,
      "velocity": 95,
      "chip": "ym2612"
    },
    {
      "channel": 2,
      "note": 40,
      "start": 2.5355,
      "duration": 0.0108,
      "velocity": 114,
      "chip": "ym2612"
    },
    {
      "channel": 0,
      "note": 89,
      "start": 2.542,
      "duration": 0.0125,
      "velocity": 95,
      "chip": "ym2612"
    },
    {
      "channel": 5,
      "note": 89,
      "start": 2.545,
      "duration": 0.0119,
      "velocity": 95,
      "chip": "ym2612"
    },
    {
      "channel": 2,
      "note": 40,
      "start": 2.5463,
      "duration": 0.0119,
      "velocity": 114,
      "chip": "ym2612"
    },
    {
      "channel": 0,
      "note": 89,
      "start": 2.5545,
      "duration": 0.0125,
      "velocity": 95,
      "chip": "ym2612"
    },
    {
      "channel": 5,
      "note": 89,
      "start": 2.5569,
      "duration": 0.0125,
      "velocity": 95,
      "chip": "ym2612"
    },
    {
      "channel": 2,
      "note": 40,
      "start": 2.5582,
      "duration": 0.0124,
      "velocity": 114,
      "chip": "ym2612"
    },
    {
      "channel": 0,
      "note": 89,
      "start": 2.567,
      "duration": 0.0126,
      "velocity": 95,
      "chip": "ym2612"
    },
    {
      "channel": 5,
      "note": 89,
      "start": 2.5694,
      "duration": 0.0125,
      "velocity": 95,
      "chip": "ym2612"
    },
    {
      "channel": 2,
      "note": 39,
      "start": 2.5706,
      "duration": 0.0125,
      "velocity": 114,
      "chip": "ym2612"
    },
    {
      "channel": 0,
      "note": 89,
      "start": 2.5795,
      "duration": 0.0125,
      "velocity": 95,
      "chip": "ym2612"
    },
    {
      "channel": 5,
      "note": 89,
      "start": 2.5819,
      "duration": 0.0131,
      "velocity": 95,
      "chip": "ym2612"
    },
    {
      "channel": 2,
      "note": 39,
      "start": 2.5832,
      "duration": 0.0131,
      "velocity": 114,
      "chip": "ym2612"
    },
    {
      "channel": 0,
      "note": 89,
      "start": 2.592,
      "duration": 0.0125,
      "velocity": 95,
      "chip": "ym2612"
    },
    {
      "channel": 5,
      "note": 89,
      "start": 2.595,
      "duration": 0.0119,
      "velocity": 95,
      "chip": "ym2612"
    },
    {
      "channel": 2,
      "note": 39,
      "start": 2.5963,
      "duration": 0.0118,
      "velocity": 114,
      "chip": "ym2612"
    },
    {
      "channel": 0,
      "note": 89,
      "start": 2.6045,
      "duration": 0.0125,
      "velocity": 95,
      "chip": "ym2612"
    },
    {
      "channel": 5,
      "note": 89,
      "start": 2.6069,
      "duration": 0.0125,
      "velocity": 95,
      "chip": "ym2612"
    },
    {
      "channel": 0,
      "note": 89,
      "start": 2.617,
      "duration": 0.0125,
      "velocity": 95,
      "chip": "ym2612"
    },
    {
      "channel": 5,
      "note": 89,
      "start": 2.6194,
      "duration": 0.0156,
      "velocity": 95,
      "chip": "ym2612"
    },
    {
      "channel": 0,
      "note": 89,
      "start": 2.6295,
      "duration": 0.0127,
      "velocity": 95,
      "chip": "ym2612"
    },
    {
      "channel": 1,
      "note": 53,
      "start": 2.631,
      "duration": 0.187,
      "velocity": 81,
      "chip": "ym2612"
    },
    {
      "channel": 4,
      "note": 65,
      "start": 2.6338,
      "duration": 0.0852,
      "velocity": 74,
      "chip": "ym2612"
    },
    {
      "channel": 5,
      "note": 89,
      "start": 2.635,
      "duration": 0.0102,
      "velocity": 95,
      "chip": "ym2612"
    },
    {
      "channel": 2,
      "note": 41,
      "start": 2.6405,
      "duration": 0.1849,
      "velocity": 122,
      "chip": "ym2612"
    },
    {
      "channel": 0,
      "note": 89,
      "start": 2.6423,
      "duration": 0.0125,
      "velocity": 95,
      "chip": "ym2612"
    },
    {
      "channel": 5,
      "note": 89,
      "start": 2.6453,
      "duration": 0.0119,
      "velocity": 95,
      "chip": "ym2612"
    },
    {
      "channel": 0,
      "note": 89,
      "start": 2.6547,
      "duration": 0.0125,
      "velocity": 95,
      "chip": "ym2612"
    },
    {
      "channel": 5,
      "note": 89,
      "start": 2.6572,
      "duration": 0.0124,
      "velocity": 95,
      "chip": "ym2612"
    },
    {
      "channel": 0,
      "note": 89,
      "start": 2.6672,
      "duration": 0.0125,
      "velocity": 95,
      "chip": "ym2612"
    },
    {
      "channel": 5,
      "note": 89,
      "start": 2.6696,
      "duration": 0.0125,
      "velocity": 95,
      "chip": "ym2612"
    },
    {
      "channel": 0,
      "note": 89,
      "start": 2.6798,
      "duration": 0.0124,
      "velocity": 95,
      "chip": "ym2612"
    },
    {
      "channel": 5,
      "note": 89,
      "start": 2.6821,
      "duration": 0.0131,
      "velocity": 95,
      "chip": "ym2612"
    },
    {
      "channel": 0,
      "note": 89,
      "start": 2.6922,
      "duration": 0.0125,
      "velocity": 95,
      "chip": "ym2612"
    },
    {
      "channel": 5,
      "note": 89,
      "start": 2.6952,
      "duration": 0.0119,
      "velocity": 95,
      "chip": "ym2612"
    },
    {
      "channel": 0,
      "note": 89,
      "start": 2.7047,
      "duration": 0.0125,
      "velocity": 95,
      "chip": "ym2612"
    },
    {
      "channel": 5,
      "note": 89,
      "start": 2.7071,
      "duration": 0.0136,
      "velocity": 95,
      "chip": "ym2612"
    },
    {
      "channel": 0,
      "note": 89,
      "start": 2.7171,
      "duration": 0.0125,
      "velocity": 95,
      "chip": "ym2612"
    },
    {
      "channel": 4,
      "note": 67,
      "start": 2.7195,
      "duration": 0.1013,
      "velocity": 74,
      "chip": "ym2612"
    },
    {
      "channel": 5,
      "note": 89,
      "start": 2.7207,
      "duration": 0.0113,
      "velocity": 95,
      "chip": "ym2612"
    },
    {
      "channel": 0,
      "note": 89,
      "start": 2.7297,
      "duration": 0.0125,
      "velocity": 95,
      "chip": "ym2612"
    },
    {
      "channel": 5,
      "note": 89,
      "start": 2.732,
      "duration": 0.0131,
      "velocity": 95,
      "chip": "ym2612"
    },
    {
      "channel": 0,
      "note": 89,
      "start": 2.7422,
      "duration": 0.0124,
      "velocity": 95,
      "chip": "ym2612"
    },
    {
      "channel": 5,
      "note": 89,
      "start": 2.7451,
      "duration": 0.0119,
      "velocity": 95,
      "chip": "ym2612"
    },
    {
      "channel": 0,
      "note": 89,
      "start": 2.7546,
      "duration": 0.0125,
      "velocity": 95,
      "chip": "ym2612"
    },
    {
      "channel": 5,
      "note": 89,
      "start": 2.757,
      "duration": 0.0125,
      "velocity": 95,
      "chip": "ym2612"
    },
    {
      "channel": 0,
      "note": 89,
      "start": 2.7671,
      "duration": 0.0125,
      "velocity": 95,
      "chip": "ym2612"
    },
    {
      "channel": 5,
      "note": 89,
      "start": 2.7696,
      "duration": 0.0125,
      "velocity": 95,
      "chip": "ym2612"
    },
    {
      "channel": 0,
      "note": 89,
      "start": 2.7796,
      "duration": 0.0125,
      "velocity": 95,
      "chip": "ym2612"
    },
    {
      "channel": 5,
      "note": 89,
      "start": 2.782,
      "duration": 0.013,
      "velocity": 95,
      "chip": "ym2612"
    },
    {
      "channel": 0,
      "note": 89,
      "start": 2.7921,
      "duration": 0.0125,
      "velocity": 95,
      "chip": "ym2612"
    },
    {
      "channel": 5,
      "note": 89,
      "start": 2.7951,
      "duration": 0.0119,
      "velocity": 95,
      "chip": "ym2612"
    },
    {
      "channel": 0,
      "note": 89,
      "start": 2.8046,
      "duration": 0.0124,
      "velocity": 95,
      "chip": "ym2612"
    },
    {
      "channel": 5,
      "note": 89,
      "start": 2.807,
      "duration": 0.0156,
      "velocity": 95,
      "chip": "ym2612"
    },
    {
      "channel": 0,
      "note": 89,
      "start": 2.817,
      "duration": 0.0134,
      "velocity": 95,
      "chip": "ym2612"
    },
    {
      "channel": 1,
      "note": 65,
      "start": 2.8185,
      "duration": 0.0878,
      "velocity": 81,
      "chip": "ym2612"
    },
    {
      "channel": 4,
      "note": 56,
      "start": 2.8213,
      "duration": 0.0878,
      "velocity": 74,
      "chip": "ym2612"
    },
    {
      "channel": 5,
      "note": 89,
      "start": 2.8226,
      "duration": 0.0103,
      "velocity": 95,
      "chip": "ym2612"
    },
    {
      "channel": 2,
      "note": 40,
      "start": 2.8287,
      "duration": 0.0055,
      "velocity": 114,
      "chip": "ym2612"
    },
    {
      "channel": 0,
      "note": 89,
      "start": 2.8304,
      "duration": 0.0125,
      "velocity": 95,
      "chip": "ym2612"
    },
    {
      "channel": 5,
      "note": 89,
      "start": 2.8329,
      "duration": 0.0131,
      "velocity": 95,
      "chip": "ym2612"
    },
    {
      "channel": 2,
      "note": 40,
      "start": 2.8341,
      "duration": 0.0131,
      "velocity": 114,
      "chip": "ym2612"
    },
    {
      "channel": 0,
      "note": 89,
      "start": 2.8429,
      "duration": 0.0125,
      "velocity": 95,
      "chip": "ym2612"
    },
    {
      "channel": 5,
      "note": 89,
      "start": 2.846,
      "duration": 0.0118,
      "velocity": 95,
      "chip": "ym2612"
    },
    {
      "channel": 2,
      "note": 40,
      "start": 2.8472,
      "duration": 0.0122,
      "velocity": 114,
      "chip": "ym2612"
    },
    {
      "channel": 0,
      "note": 89,
      "start": 2.8554,
      "duration": 0.0125,
      "velocity": 95,
      "chip": "ym2612"
    },
    {
      "channel": 5,
      "note": 89,
      "start": 2.8578,
      "duration": 0.0125,
      "velocity": 95,
      "chip": "ym2612"
    },
    {
      "channel": 2,
      "note": 40,
      "start": 2.8595,
      "duration": 0.0121,
      "velocity": 114,
      "chip": "ym2612"
    },
    {
      "channel": 0,
      "note": 89,
      "start": 2.8679,
      "duration": 0.0125,
      "velocity": 95,
      "chip": "ym2612"
    },
    {
      "channel": 5,
      "note": 89,
      "start": 2.8703,
      "duration": 0.0125,
      "velocity": 95,
      "chip": "ym2612"
    },
    {
      "channel": 2,
      "note": 40,
      "start": 2.8716,
      "duration": 0.0125,
      "velocity": 114,
      "chip": "ym2612"
    },
    {
      "channel": 0,
      "note": 89,
      "start": 2.8804,
      "duration": 0.0124,
      "velocity": 95,
      "chip": "ym2612"
    },
    {
      "channel": 5,
      "note": 89,
      "start": 2.8828,
      "duration": 0.0131,
      "velocity": 95,
      "chip": "ym2612"
    },
    {
      "channel": 2,
      "note": 40,
      "start": 2.8841,
      "duration": 0.013,
      "velocity": 114,
      "chip": "ym2612"
    },
    {
      "channel": 0,
      "note": 89,
      "start": 2.8928,
      "duration": 0.0125,
      "velocity": 95,
      "chip": "ym2612"
    },
    {
      "channel": 5,
      "note": 89,
      "start": 2.8959,
      "duration": 0.0155,
      "velocity": 95,
      "chip": "ym2612"
    },
    {
      "channel": 2,
      "note": 40,
      "start": 2.8971,
      "duration": 0.0155,
      "velocity": 114,
      "chip": "ym2612"
    },
    {
      "channel": 0,
      "note": 89,
      "start": 2.9054,
      "duration": 0.0125,
      "velocity": 95,
      "chip": "ym2612"
    },
    {
      "channel": 1,
      "note": 65,
      "start": 2.9068,
      "duration": 0.0992,
      "velocity": 81,
      "chip": "ym2612"
    },
    {
      "channel": 4,
      "note": 63,
      "start": 2.9096,
      "duration": 0.0999,
      "velocity": 74,
      "chip": "ym2612"
    },
    {
      "channel": 5,
      "note": 89,
      "start": 2.9114,
      "duration": 0.0088,
      "velocity": 95,
      "chip": "ym2612"
    },
    {
      "channel": 0,
      "note": 89,
      "start": 2.9178,
      "duration": 0.0125,
      "velocity": 95,
      "chip": "ym2612"
    },
    {
      "channel": 5,
      "note": 89,
      "start": 2.9203,
      "duration": 0.0124,
      "velocity": 95,
      "chip": "ym2612"
    },
    {
      "channel": 2,
      "note": 40,
      "start": 2.9225,
      "duration": 0.0115,
      "velocity": 114,
      "chip": "ym2612"
    },
    {
      "channel": 0,
      "note": 89,
      "start": 2.9304,
      "duration": 0.0124,
      "velocity": 95,
      "chip": "ym2612"
    },
    {
      "channel": 5,
      "note": 89,
      "start": 2.9327,
      "duration": 0.0131,
      "velocity": 95,
      "chip": "ym2612"
    },
    {
      "channel": 2,
      "note": 40,
      "start": 2.934,
      "duration": 0.0131,
      "velocity": 114,
      "chip": "ym2612"
    },
    {
      "channel": 0,
      "note": 89,
      "start": 2.9428,
      "duration": 0.0125,
      "velocity": 95,
      "chip": "ym2612"
    },
    {
      "channel": 5,
      "note": 89,
      "start": 2.9458,
      "duration": 0.0118,
      "velocity": 95,
      "chip": "ym2612"
    },
    {
      "channel": 2,
      "note": 40,
      "start": 2.9471,
      "duration": 0.0123,
      "velocity": 114,
      "chip": "ym2612"
    },
    {
      "channel": 0,
      "note": 89,
      "start": 2.9553,
      "duration": 0.0125,
      "velocity": 95,
      "chip": "ym2612"
    },
    {
      "channel": 5,
      "note": 89,
      "start": 2.9577,
      "duration": 0.0125,
      "velocity": 95,
      "chip": "ym2612"
    },
    {
      "channel": 2,
      "note": 40,
      "start": 2.9593,
      "duration": 0.0122,
      "velocity": 114,
      "chip": "ym2612"
    },
    {
      "channel": 0,
      "note": 89,
      "start": 2.9678,
      "duration": 0.0125,
      "velocity": 95,
      "chip": "ym2612"
    },
    {
      "channel": 5,
      "note": 89,
      "start": 2.9702,
      "duration": 0.0125,
      "velocity": 95,
      "chip": "ym2612"
    },
    {
      "channel": 2,
      "note": 40,
      "start": 2.9715,
      "duration": 0.0125,
      "velocity": 114,
      "chip": "ym2612"
    },
    {
      "channel": 0,
      "note": 89,
      "start": 2.9802,
      "duration": 0.0125,
      "velocity": 95,
      "chip": "ym2612"
    },
    {
      "channel": 5,
      "note": 89,
      "start": 2.9827,
      "duration": 0.0131,
      "velocity": 95,
      "chip": "ym2612"
    },
    {
      "channel": 2,
      "note": 40,
      "start": 2.9839,
      "duration": 0.0131,
      "velocity": 114,
      "chip": "ym2612"
    },
    {
      "channel": 0,
      "note": 89,
      "start": 2.9927,
      "duration": 0.0123,
      "velocity": 95,
      "chip": "ym2612"
    },
    {
      "channel": 5,
      "note": 89,
      "start": 2.9958,
      "duration": 0.0161,
      "velocity": 95,
      "chip": "ym2612"
    },
    {
      "channel": 2,
      "note": 40,
      "start": 2.9971,
      "duration": 0.0159,
      "velocity": 114,
      "chip": "ym2612"
    },
    {
      "channel": 1,
      "note": 53,
      "start": 3.0064,
      "duration": 0.1861,
      "velocity": 81,
      "chip": "ym2612"
    },
    {
      "channel": 4,
      "note": 65,
      "start": 3.01,
      "duration": 0.0835,
      "velocity": 74,
      "chip": "ym2612"
    },
    {
      "channel": 5,
      "note": 89,
      "start": 3.0119,
      "duration": 0.0073,
      "velocity": 95,
      "chip": "ym2612"
    },
    {
      "channel": 5,
      "note": 89,
      "start": 3.0192,
      "duration": 0.0125,
      "velocity": 95,
      "chip": "ym2612"
    },
    {
      "channel": 2,
      "note": 40,
      "start": 3.0214,
      "duration": 0.0115,
      "velocity": 114,
      "chip": "ym2612"
    },
    {
      "channel": 5,
      "note": 89,
      "start": 3.0317,
      "duration": 0.0131,
      "velocity": 95,
      "chip": "ym2612"
    },
    {
      "channel": 2,
      "note": 40,
      "start": 3.0329,
      "duration": 0.0131,
      "velocity": 114,
      "chip": "ym2612"
    },
    {
      "channel": 5,
      "note": 89,
      "start": 3.0448,
      "duration": 0.0119,
      "velocity": 95,
      "chip": "ym2612"
    },
    {
      "channel": 2,
      "note": 40,
      "start": 3.046,
      "duration": 0.0123,
      "velocity": 114,
      "chip": "ym2612"
    },
    {
      "channel": 5,
      "note": 89,
      "start": 3.0566,
      "duration": 0.0125,
      "velocity": 95,
      "chip": "ym2612"
    },
    {
      "channel": 2,
      "note": 40,
      "start": 3.0583,
      "duration": 0.0122,
      "velocity": 114,
      "chip": "ym2612"
    },
    {
      "channel": 5,
      "note": 89,
      "start": 3.0692,
      "duration": 0.0125,
      "velocity": 95,
      "chip": "ym2612"
    },
    {
      "channel": 2,
      "note": 40,
      "start": 3.0705,
      "duration": 0.0124,
      "velocity": 114,
      "chip": "ym2612"
    },
    {
      "channel": 5,
      "note": 89,
      "start": 3.0817,
      "duration": 0.0142,
      "velocity": 95,
      "chip": "ym2612"
    },
    {
      "channel": 2,
      "note": 40,
      "start": 3.0829,
      "duration": 0.0142,
      "velocity": 114,
      "chip": "ym2612"
    },
    {
      "channel": 4,
      "note": 75,
      "start": 3.0944,
      "duration": 0.1016,
      "velocity": 74,
      "chip": "ym2612"
    },
    {
      "channel": 5,
      "note": 89,
      "start": 3.0958,
      "duration": 0.0107,
      "velocity": 95,
      "chip": "ym2612"
    },
    {
      "channel": 2,
      "note": 40,
      "start": 3.0971,
      "duration": 0.0107,
      "velocity": 114,
      "chip": "ym2612"
    },
    {
      "channel": 5,
      "note": 89,
      "start": 3.1066,
      "duration": 0.0125,
      "velocity": 95,
      "chip": "ym2612"
    },
    {
      "channel": 2,
      "note": 40,
      "start": 3.1078,
      "duration": 0.0125,
      "velocity": 114,
      "chip": "ym2612"
    },
    {
      "channel": 5,
      "note": 89,
      "start": 3.119,
      "duration": 0.0125,
      "velocity": 95,
      "chip": "ym2612"
    },
    {
      "channel": 2,
      "note": 40,
      "start": 3.1203,
      "duration": 0.0125,
      "velocity": 114,
      "chip": "ym2612"
    },
    {
      "channel": 5,
      "note": 89,
      "start": 3.1316,
      "duration": 0.0122,
      "velocity": 95,
      "chip": "ym2612"
    },
    {
      "channel": 2,
      "note": 40,
      "start": 3.1329,
      "duration": 0.0128,
      "velocity": 114,
      "chip": "ym2612"
    },
    {
      "channel": 2,
      "note": 39,
      "start": 3.1456,
      "duration": 0.0112,
      "velocity": 114,
      "chip": "ym2612"
    },
    {
      "channel": 2,
      "note": 39,
      "start": 3.1569,
      "duration": 0.0125,
      "velocity": 114,
      "chip": "ym2612"
    },
    {
      "channel": 2,
      "note": 39,
      "start": 3.1694,
      "duration": 0.0124,
      "velocity": 114,
      "chip": "ym2612"
    },
    {
      "channel": 1,
      "note": 53,
      "start": 3.193,
      "duration": 0.188,
      "velocity": 81,
      "chip": "ym2612"
    },
    {
      "channel": 4,
      "note": 77,
      "start": 3.1965,
      "duration": 0.0844,
      "velocity": 74,
      "chip": "ym2612"
    },
    {
      "channel": 2,
      "note": 40,
      "start": 3.1994,
      "duration": 0.0075,
      "velocity": 114,
      "chip": "ym2612"
    },
    {
      "channel": 2,
      "note": 40,
      "start": 3.2068,
      "duration": 0.0124,
      "velocity": 114,
      "chip": "ym2612"
    },
    {
      "channel": 2,
      "note": 40,
      "start": 3.2193,
      "duration": 0.0129,
      "velocity": 114,
      "chip": "ym2612"
    },
    {
      "channel": 2,
      "note": 40,
      "start": 3.2322,
      "duration": 0.0127,
      "velocity": 114,
      "chip": "ym2612"
    },
    {
      "channel": 2,
      "note": 40,
      "start": 3.2449,
      "duration": 0.0119,
      "velocity": 114,
      "chip": "ym2612"
    },
    {
      "channel": 2,
      "note": 40,
      "start": 3.2568,
      "duration": 0.0125,
      "velocity": 114,
      "chip": "ym2612"
    },
    {
      "channel": 2,
      "note": 40,
      "start": 3.2693,
      "duration": 0.0136,
      "velocity": 114,
      "chip": "ym2612"
    },
    {
      "channel": 4,
      "note": 65,
      "start": 3.2813,
      "duration": 0.1026,
      "velocity": 74,
      "chip": "ym2612"
    },
    {
      "channel": 2,
      "note": 40,
      "start": 3.2829,
      "duration": 0.012,
      "velocity": 114,
      "chip": "ym2612"
    },
    {
      "channel": 2,
      "note": 40,
      "start": 3.2948,
      "duration": 0.0119,
      "velocity": 114,
      "chip": "ym2612"
    },
    {
      "channel": 2,
      "note": 40,
      "start": 3.3067,
      "duration": 0.0125,
      "velocity": 114,
      "chip": "ym2612"
    },
    {
      "channel": 2,
      "note": 39,
      "start": 3.3192,
      "duration": 0.0125,
      "velocity": 114,
      "chip": "ym2612"
    },
    {
      "channel": 2,
      "note": 39,
      "start": 3.3317,
      "duration": 0.0128,
      "velocity": 114,
      "chip": "ym2612"
    },
    {
      "channel": 2,
      "note": 39,
      "start": 3.3445,
      "duration": 0.0121,
      "velocity": 114,
      "chip": "ym2612"
    },
    {
      "channel": 0,
      "note": 89,
      "start": 3.3801,
      "duration": 0.3742,
      "velocity": 95,
      "chip": "ym2612"
    },
    {
      "channel": 1,
      "note": 53,
      "start": 3.3815,
      "duration": 0.1855,
      "velocity": 81,
      "chip": "ym2612"
    },
    {
      "channel": 4,
      "note": 72,
      "start": 3.3843,
      "duration": 0.0845,
      "velocity": 74,
      "chip": "ym2612"
    },
    {
      "channel": 2,
      "note": 41,
      "start": 3.3901,
      "duration": 0.0824,
      "velocity": 122,
      "chip": "ym2612"
    },
    {
      "channel": 4,
      "note": 75,
      "start": 3.4694,
      "duration": 0.0998,
      "velocity": 74,
      "chip": "ym2612"
    },
    {
      "channel": 2,
      "note": 40,
      "start": 3.4752,
      "duration": 0.0062,
      "velocity": 114,
      "chip": "ym2612"
    },
    {
      "channel": 2,
      "note": 40,
      "start": 3.4815,
      "duration": 0.0129,
      "velocity": 114,
      "chip": "ym2612"
    },
    {
      "channel": 2,
      "note": 40,
      "start": 3.4943,
      "duration": 0.0125,
      "velocity": 114,
      "chip": "ym2612"
    },
    {
      "channel": 2,
      "note": 40,
      "start": 3.5068,
      "duration": 0.0133,
      "velocity": 114,
      "chip": "ym2612"
    },
    {
      "channel": 5,
      "note": 89,
      "start": 3.5189,
      "duration": 0.3744,
      "velocity": 95,
      "chip": "ym2612"
    },
    {
      "channel": 2,
      "note": 40,
      "start": 3.5201,
      "duration": 0.0112,
      "velocity": 114,
      "chip": "ym2612"
    },
    {
      "channel": 2,
      "note": 40,
      "start": 3.5314,
      "duration": 0.0129,
      "velocity": 114,
      "chip": "ym2612"
    },
    {
      "channel": 2,
      "note": 40,
      "start": 3.5442,
      "duration": 0.0122,
      "velocity": 114,
      "chip": "ym2612"
    },
    {
      "channel": 2,
      "note": 40,
      "start": 3.5564,
      "duration": 0.0148,
      "velocity": 114,
      "chip": "ym2612"
    },
    {
      "channel": 1,
      "note": 53,
      "start": 3.5675,
      "duration": 0.1882,
      "velocity": 81,
      "chip": "ym2612"
    },
    {
      "channel": 4,
      "note": 65,
      "start": 3.5696,
      "duration": 0.0859,
      "velocity": 74,
      "chip": "ym2612"
    },
    {
      "channel": 2,
      "note": 40,
      "start": 3.5712,
      "duration": 0.0102,
      "velocity": 114,
      "chip": "ym2612"
    },
    {
      "channel": 2,
      "note": 40,
      "start": 3.5814,
      "duration": 0.0129,
      "velocity": 114,
      "chip": "ym2612"
    },
    {
      "channel": 2,
      "note": 39,
      "start": 3.5942,
      "duration": 0.0122,
      "velocity": 114,
      "chip": "ym2612"
    },
    {
      "channel": 2,
      "note": 39,
      "start": 3.6064,
      "duration": 0.0125,
      "velocity": 114,
      "chip": "ym2612"
    },
    {
      "channel": 2,
      "note": 39,
      "start": 3.6189,
      "duration": 0.0125,
      "velocity": 114,
      "chip": "ym2612"
    },
    {
      "channel": 4,
      "note": 70,
      "start": 3.6559,
      "duration": 0.1027,
      "velocity": 74,
      "chip": "ym2612"
    },
    {
      "channel": 0,
      "note": 91,
      "start": 3.7548,
      "duration": 0.3746,
      "velocity": 95,
      "chip": "ym2612"
    },
    {
      "channel": 1,
      "note": 53,
      "start": 3.7563,
      "duration": 0.1858,
      "velocity": 81,
      "chip": "ym2612"
    },
    {
      "channel": 4,
      "note": 72,
      "start": 3.7591,
      "duration": 0.0839,
      "velocity": 74,
      "chip": "ym2612"
    },
    {
      "channel": 2,
      "note": 40,
      "start": 3.7626,
      "duration": 0.0062,
      "velocity": 114,
      "chip": "ym2612"
    },
    {
      "channel": 2,
      "note": 40,
      "start": 3.7689,
      "duration": 0.0125,
      "velocity": 114,
      "chip": "ym2612"
    },
    {
      "channel": 2,
      "note": 40,
      "start": 3.7814,
      "duration": 0.0135,
      "velocity": 114,
      "chip": "ym2612"
    },
    {
      "channel": 2,
      "note": 40,
      "start": 3.7949,
      "duration": 0.0115,
      "velocity": 114,
      "chip": "ym2612"
    },
    {
      "channel": 2,
      "note": 40,
      "start": 3.8063,
      "duration": 0.0125,
      "velocity": 114,
      "chip": "ym2612"
    },
    {
      "channel": 2,
      "note": 40,
      "start": 3.8189,
      "duration": 0.0125,
      "velocity": 114,
      "chip": "ym2612"
    },
    {
      "channel": 2,
      "note": 40,
      "start": 3.8314,
      "duration": 0.0142,
      "velocity": 114,
      "chip": "ym2612"
    },
    {
      "channel": 4,
      "note": 65,
      "start": 3.8434,
      "duration": 0.1021,
      "velocity": 74,
      "chip": "ym2612"
    },
    {
      "channel": 2,
      "note": 40,
      "start": 3.8456,
      "duration": 0.0107,
      "velocity": 114,
      "chip": "ym2612"
    },
    {
      "channel": 2,
      "note": 40,
      "start": 3.8563,
      "duration": 0.0125,
      "velocity": 114,
      "chip": "ym2612"
    },
    {
      "channel": 2,
      "note": 40,
      "start": 3.8689,
      "duration": 0.0125,
      "velocity": 114,
      "chip": "ym2612"
    },
    {
      "channel": 2,
      "note": 39,
      "start": 3.8814,
      "duration": 0.0143,
      "velocity": 114,
      "chip": "ym2612"
    },
    {
      "channel": 5,
      "note": 91,
      "start": 3.8942,
      "duration": 0.3741,
      "velocity": 95,
      "chip": "ym2612"
    },
    {
      "channel": 2,
      "note": 39,
      "start": 3.8957,
      "duration": 0.0106,
      "velocity": 114,
      "chip": "ym2612"
    },
    {
      "channel": 2,
      "note": 39,
      "start": 3.9063,
      "duration": 0.0125,
      "velocity": 114,
      "chip": "ym2612"
    },
    {
      "channel": 1,
      "note": 65,
      "start": 3.9425,
      "duration": 0.087,
      "velocity": 81,
      "chip": "ym2612"
    },
    {
      "channel": 4,
      "note": 68,
      "start": 3.946,
      "duration": 0.0856,
      "velocity": 74,
      "chip": "ym2612"
    },
    {
      "channel": 2,
      "note": 40,
      "start": 3.949,
      "duration": 0.0074,
      "velocity": 114,
      "chip": "ym2612"
    },
    {
      "channel": 2,
      "note": 40,
      "start": 3.9563,
      "duration": 0.0125,
      "velocity": 114,
      "chip": "ym2612"
    },
    {
      "channel": 2,
      "note": 40,
      "start": 3.9689,
      "duration": 0.0129,
      "velocity": 114,
      "chip": "ym2612"
    },
    {
      "channel": 2,
      "note": 40,
      "start": 3.9818,
      "duration": 0.0125,
      "velocity": 114,
      "chip": "ym2612"
    },
    {
      "channel": 2,
      "note": 40,
      "start": 3.9942,
      "duration": 0.0121,
      "velocity": 114,
      "chip": "ym2612"
    },
    {
      "channel": 2,
      "note": 40,
      "start": 4.0063,
      "duration": 0.0125,
      "velocity": 114,
      "chip": "ym2612"
    },
    {
      "channel": 2,
      "note": 40,
      "start": 4.0189,
      "duration": 0.0148,
      "velocity": 114,
      "chip": "ym2612"
    },
    {
      "channel": 1,
      "note": 65,
      "start": 4.0301,
      "duration": 0.1007,
      "velocity": 81,
      "chip": "ym2612"
    },
    {
      "channel": 4,
      "note": 70,
      "start": 4.0321,
      "duration": 0.1015,
      "velocity": 74,
      "chip": "ym2612"
    },
    {
      "channel": 2,
      "note": 40,
      "start": 4.0337,
      "duration": 0.0106,
      "velocity": 114,
      "chip": "ym2612"
    },
    {
      "channel": 2,
      "note": 40,
      "start": 4.0442,
      "duration": 0.0121,
      "velocity": 114,
      "chip": "ym2612"
    },
    {
      "channel": 2,
      "note": 40,
      "start": 4.0563,
      "duration": 0.0125,
      "velocity": 114,
      "chip": "ym2612"
    },
    {
      "channel": 2,
      "note": 39,
      "start": 4.0689,
      "duration": 0.0125,
      "velocity": 114,
      "chip": "ym2612"
    },
    {
      "channel": 2,
      "note": 39,
      "start": 4.0814,
      "duration": 0.0129,
      "velocity": 114,
      "chip": "ym2612"
    },
    {
      "channel": 2,
      "note": 39,
      "start": 4.0942,
      "duration": 0.012,
      "velocity": 114,
      "chip": "ym2612"
    },
    {
      "channel": 0,
      "note": 92,
      "start": 4.1299,
      "duration": 0.3745,
      "velocity": 95,
      "chip": "ym2612"
    },
    {
      "channel": 1,
      "note": 53,
      "start": 4.1313,
      "duration": 0.1857,
      "velocity": 81,
      "chip": "ym2612"
    },
    {
      "channel": 4,
      "note": 65,
      "start": 4.1341,
      "duration": 0.0838,
      "velocity": 74,
      "chip": "ym2612"
    },
    {
      "channel": 2,
      "note": 41,
      "start": 4.1399,
      "duration": 0.1836,
      "velocity": 122,
      "chip": "ym2612"
    },
    {
      "channel": 4,
      "note": 67,
      "start": 4.2184,
      "duration": 0.1015,
      "velocity": 74,
      "chip": "ym2612"
    },
    {
      "channel": 5,
      "note": 92,
      "start": 4.2688,
      "duration": 0.3746,
      "velocity": 95,
      "chip": "ym2612"
    },
    {
      "channel": 1,
      "note": 65,
      "start": 4.3175,
      "duration": 0.087,
      "velocity": 81,
      "chip": "ym2612"
    },
    {
      "channel": 4,
      "note": 56,
      "start": 4.3203,
      "duration": 0.087,
      "velocity": 74,
      "chip": "ym2612"
    },
    {
      "channel": 2,
      "note": 40,
      "start": 4.3262,
      "duration": 0.0052,
      "velocity": 114,
      "chip": "ym2612"
    },
    {
      "channel": 2,
      "note": 40,
      "start": 4.3314,
      "duration": 0.0129,
      "velocity": 114,
      "chip": "ym2612"
    },
    {
      "channel": 2,
      "note": 40,
      "start": 4.3442,
      "duration": 0.0125,
      "velocity": 114,
      "chip": "ym2612"
    },
    {
      "channel": 2,
      "note": 40,
      "start": 4.3568,
      "duration": 0.0121,
      "velocity": 114,
      "chip": "ym2612"
    },
    {
      "channel": 2,
      "note": 40,
      "start": 4.3689,
      "duration": 0.0125,
      "velocity": 114,
      "chip": "ym2612"
    },
    {
      "channel": 2,
      "note": 40,
      "start": 4.3814,
      "duration": 0.0129,
      "velocity": 114,
      "chip": "ym2612"
    },
    {
      "channel": 2,
      "note": 40,
      "start": 4.3942,
      "duration": 0.015,
      "velocity": 114,
      "chip": "ym2612"
    },
    {
      "channel": 1,
      "note": 65,
      "start": 4.405,
      "duration": 0.1008,
      "velocity": 81,
      "chip": "ym2612"
    },
    {
      "channel": 4,
      "note": 63,
      "start": 4.4078,
      "duration": 0.1015,
      "velocity": 74,
      "chip": "ym2612"
    },
    {
      "channel": 2,
      "note": 40,
      "start": 4.4198,
      "duration": 0.0116,
      "velocity": 114,
      "chip": "ym2612"
    },
    {
      "channel": 2,
      "note": 40,
      "start": 4.4314,
      "duration": 0.0129,
      "velocity": 114,
      "chip": "ym2612"
    },
    {
      "channel": 2,
      "note": 40,
      "start": 4.4442,
      "duration": 0.0125,
      "velocity": 114,
      "chip": "ym2612"
    },
    {
      "channel": 2,
      "note": 40,
      "start": 4.4567,
      "duration": 0.0122,
      "velocity": 114,
      "chip": "ym2612"
    },
    {
      "channel": 2,
      "note": 40,
      "start": 4.4689,
      "duration": 0.0125,
      "velocity": 114,
      "chip": "ym2612"
    },
    {
      "channel": 2,
      "note": 40,
      "start": 4.4814,
      "duration": 0.0129,
      "velocity": 114,
      "chip": "ym2612"
    },
    {
      "channel": 2,
      "note": 40,
      "start": 4.4942,
      "duration": 0.0176,
      "velocity": 114,
      "chip": "ym2612"
    },
    {
      "channel": 0,
      "note": 89,
      "start": 4.5048,
      "duration": 0.3747,
      "velocity": 95,
      "chip": "ym2612"
    },
    {
      "channel": 1,
      "note": 49,
      "start": 4.5063,
      "duration": 0.1858,
      "velocity": 81,
      "chip": "ym2612"
    },
    {
      "channel": 4,
      "note": 65,
      "start": 4.5099,
      "duration": 0.0831,
      "velocity": 74,
      "chip": "ym2612"
    },
    {
      "channel": 2,
      "note": 40,
      "start": 4.5198,
      "duration": 0.0116,
      "velocity": 114,
      "chip": "ym2612"
    },
    {
      "channel": 2,
      "note": 40,
      "start": 4.5314,
      "duration": 0.0128,
      "velocity": 114,
      "chip": "ym2612"
    },
    {
      "channel": 2,
      "note": 40,
      "start": 4.5442,
      "duration": 0.0125,
      "velocity": 114,
      "chip": "ym2612"
    },
    {
      "channel": 2,
      "note": 40,
      "start": 4.5567,
      "duration": 0.0122,
      "velocity": 114,
      "chip": "ym2612"
    },
    {
      "channel": 2,
      "note": 40,
      "start": 4.5689,
      "duration": 0.0125,
      "velocity": 114,
      "chip": "ym2612"
    },
    {
      "channel": 2,
      "note": 40,
      "start": 4.5814,
      "duration": 0.0142,
      "velocity": 114,
      "chip": "ym2612"
    },
    {
      "channel": 4,
      "note": 75,
      "start": 4.5934,
      "duration": 0.102,
      "velocity": 74,
      "chip": "ym2612"
    },
    {
      "channel": 2,
      "note": 40,
      "start": 4.5956,
      "duration": 0.0107,
      "velocity": 114,
      "chip": "ym2612"
    },
    {
      "channel": 2,
      "note": 40,
      "start": 4.6063,
      "duration": 0.0125,
      "velocity": 114,
      "chip": "ym2612"
    },
    {
      "channel": 2,
      "note": 40,
      "start": 4.6189,
      "duration": 0.0125,
      "velocity": 114,
      "chip": "ym2612"
    },
    {
      "channel": 2,
      "note": 40,
      "start": 4.6314,
      "duration": 0.0143,
      "velocity": 114,
      "chip": "ym2612"
    },
    {
      "channel": 5,
      "note": 89,
      "start": 4.6442,
      "duration": 0.3752,
      "velocity": 95,
      "chip": "ym2612"
    },
    {
      "channel": 2,
      "note": 39,
      "start": 4.6457,
      "duration": 0.0106,
      "velocity": 114,
      "chip": "ym2612"
    },
    {
      "channel": 2,
      "note": 39,
      "start": 4.6563,
      "duration": 0.0125,
      "velocity": 114,
      "chip": "ym2612"
    },
    {
      "channel": 2,
      "note": 39,
      "start": 4.6689,
      "duration": 0.0125,
      "velocity": 114,
      "chip": "ym2612"
    },
    {
      "channel": 1,
      "note": 49,
      "start": 4.6925,
      "duration": 0.1879,
      "velocity": 81,
      "chip": "ym2612"
    },
    {
      "channel": 4,
      "note": 77,
      "start": 4.696,
      "duration": 0.0845,
      "velocity": 74,
      "chip": "ym2612"
    },
    {
      "channel": 2,
      "note": 40,
      "start": 4.6989,
      "duration": 0.0074,
      "velocity": 114,
      "chip": "ym2612"
    },
    {
      "channel": 2,
      "note": 40,
      "start": 4.7063,
      "duration": 0.0125,
      "velocity": 114,
      "chip": "ym2612"
    },
    {
      "channel": 2,
      "note": 40,
      "start": 4.7189,
      "duration": 0.0129,
      "velocity": 114,
      "chip": "ym2612"
    },
    {
      "channel": 2,
      "note": 40,
      "start": 4.7318,
      "duration": 0.0125,
      "velocity": 114,
      "chip": "ym2612"
    },
    {
      "channel": 2,
      "note": 40,
      "start": 4.7442,
      "duration": 0.0121,
      "velocity": 114,
      "chip": "ym2612"
    },
    {
      "channel": 2,
      "note": 40,
      "start": 4.7563,
      "duration": 0.0125,
      "velocity": 114,
      "chip": "ym2612"
    },
    {
      "channel": 2,
      "note": 40,
      "start": 4.7689,
      "duration": 0.0137,
      "velocity": 114,
      "chip": "ym2612"
    },
    {
      "channel": 4,
      "note": 65,
      "start": 4.781,
      "duration": 0.1024,
      "velocity": 74,
      "chip": "ym2612"
    },
    {
      "channel": 2,
      "note": 40,
      "start": 4.7825,
      "duration": 0.0117,
      "velocity": 114,
      "chip": "ym2612"
    },
    {
      "channel": 2,
      "note": 40,
      "start": 4.7942,
      "duration": 0.0121,
      "velocity": 114,
      "chip": "ym2612"
    },
    {
      "channel": 2,
      "note": 40,
      "start": 4.8063,
      "duration": 0.0125,
      "velocity": 114,
      "chip": "ym2612"
    },
    {
      "channel": 2,
      "note": 39,
      "start": 4.8189,
      "duration": 0.0125,
      "velocity": 114,
      "chip": "ym2612"
    },
    {
      "channel": 2,
      "note": 39,
      "start": 4.8314,
      "duration": 0.0129,
      "velocity": 114,
      "chip": "ym2612"
    },
    {
      "channel": 2,
      "note": 39,
      "start": 4.8442,
      "duration": 0.012,
      "velocity": 114,
      "chip": "ym2612"
    },
    {
      "channel": 0,
      "note": 89,
      "start": 4.8795,
      "duration": 0.0125,
      "velocity": 95,
      "chip": "ym2612"
    },
    {
      "channel": 1,
      "note": 49,
      "start": 4.881,
      "duration": 0.187,
      "velocity": 81,
      "chip": "ym2612"
    },
    {
      "channel": 4,
      "note": 73,
      "start": 4.8838,
      "duration": 0.0858,
      "velocity": 74,
      "chip": "ym2612"
    },
    {
      "channel": 2,
      "note": 41,
      "start": 4.8895,
      "duration": 0.0837,
      "velocity": 122,
      "chip": "ym2612"
    },
    {
      "channel": 0,
      "note": 89,
      "start": 4.892,
      "duration": 0.0125,
      "velocity": 95,
      "chip": "ym2612"
    },
    {
      "channel": 0,
      "note": 89,
      "start": 4.9045,
      "duration": 0.0125,
      "velocity": 95,
      "chip": "ym2612"
    },
    {
      "channel": 0,
      "note": 89,
      "start": 4.917,
      "duration": 0.0126,
      "velocity": 95,
      "chip": "ym2612"
    },
    {
      "channel": 0,
      "note": 89,
      "start": 4.9295,
      "duration": 0.0125,
      "velocity": 95,
      "chip": "ym2612"
    },
    {
      "channel": 0,
      "note": 89,
      "start": 4.942,
      "duration": 0.0125,
      "velocity": 95,
      "chip": "ym2612"
    },
    {
      "channel": 0,
      "note": 89,
      "start": 4.9545,
      "duration": 0.0125,
      "velocity": 95,
      "chip": "ym2612"
    },
    {
      "channel": 0,
      "note": 89,
      "start": 4.967,
      "duration": 0.0126,
      "velocity": 95,
      "chip": "ym2612"
    },
    {
      "channel": 4,
      "note": 75,
      "start": 4.9701,
      "duration": 0.0999,
      "velocity": 74,
      "chip": "ym2612"
    },
    {
      "channel": 2,
      "note": 40,
      "start": 4.9759,
      "duration": 0.0064,
      "velocity": 114,
      "chip": "ym2612"
    },
    {
      "channel": 0,
      "note": 89,
      "start": 4.9795,
      "duration": 0.0125,
      "velocity": 95,
      "chip": "ym2612"
    },
    {
      "channel": 2,
      "note": 40,
      "start": 4.9823,
      "duration": 0.0131,
      "velocity": 114,
      "chip": "ym2612"
    },
    {
      "channel": 0,
      "note": 89,
      "start": 4.992,
      "duration": 0.0125,
      "velocity": 95,
      "chip": "ym2612"
    },
    {
      "channel": 2,
      "note": 40,
      "start": 4.9954,
      "duration": 0.0123,
      "velocity": 114,
      "chip": "ym2612"
    },
    {
      "channel": 0,
      "note": 89,
      "start": 5.0045,
      "duration": 0.0125,
      "velocity": 95,
      "chip": "ym2612"
    },
    {
      "channel": 2,
      "note": 40,
      "start": 5.0077,
      "duration": 0.013,
      "velocity": 114,
      "chip": "ym2612"
    },
    {
      "channel": 0,
      "note": 89,
      "start": 5.017,
      "duration": 0.0126,
      "velocity": 95,
      "chip": "ym2612"
    },
    {
      "channel": 5,
      "note": 89,
      "start": 5.0194,
      "duration": 0.0125,
      "velocity": 95,
      "chip": "ym2612"
    },
    {
      "channel": 2,
      "note": 40,
      "start": 5.0206,
      "duration": 0.0125,
      "velocity": 114,
      "chip": "ym2612"
    },
    {
      "channel": 0,
      "note": 89,
      "start": 5.0295,
      "duration": 0.0125,
      "velocity": 95,
      "chip": "ym2612"
    },
    {
      "channel": 5,
      "note": 89,
      "start": 5.0319,
      "duration": 0.0131,
      "velocity": 95,
      "chip": "ym2612"
    },
    {
      "channel": 2,
      "note": 40,
      "start": 5.0332,
      "duration": 0.0131,
      "velocity": 114,
      "chip": "ym2612"
    },
    {
      "channel": 0,
      "note": 89,
      "start": 5.042,
      "duration": 0.0125,
      "velocity": 95,
      "chip": "ym2612"
    },
    {
      "channel": 5,
      "note": 89,
      "start": 5.045,
      "duration": 0.0119,
      "velocity": 95,
      "chip": "ym2612"
    },
    {
      "channel": 2,
      "note": 40,
      "start": 5.0463,
      "duration": 0.0119,
      "velocity": 114,
      "chip": "ym2612"
    },
    {
      "channel": 0,
      "note": 89,
      "start": 5.0545,
      "duration": 0.0125,
      "velocity": 95,
      "chip": "ym2612"
    },
    {
      "channel": 5,
      "note": 89,
      "start": 5.0569,
      "duration": 0.0148,
      "velocity": 95,
      "chip": "ym2612"
    },
    {
      "channel": 2,
      "note": 40,
      "start": 5.0582,
      "duration": 0.0147,
      "velocity": 114,
      "chip": "ym2612"
    },
    {
      "channel": 0,
      "note": 89,
      "start": 5.067,
      "duration": 0.0125,
      "velocity": 95,
      "chip": "ym2612"
    },
    {
      "channel": 1,
      "note": 49,
      "start": 5.0684,
      "duration": 0.187,
      "velocity": 81,
      "chip": "ym2612"
    },
    {
      "channel": 4,
      "note": 65,
      "start": 5.0705,
      "duration": 0.0859,
      "velocity": 74,
      "chip": "ym2612"
    },
    {
      "channel": 5,
      "note": 89,
      "start": 5.0717,
      "duration": 0.0102,
      "velocity": 95,
      "chip": "ym2612"
    },
    {
      "channel": 2,
      "note": 40,
      "start": 5.0729,
      "duration": 0.0102,
      "velocity": 114,
      "chip": "ym2612"
    },
    {
      "channel": 0,
      "note": 89,
      "start": 5.0795,
      "duration": 0.0125,
      "velocity": 95,
      "chip": "ym2612"
    },
    {
      "channel": 5,
      "note": 89,
      "start": 5.0819,
      "duration": 0.0131,
      "velocity": 95,
      "chip": "ym2612"
    },
    {
      "channel": 2,
      "note": 40,
      "start": 5.0832,
      "duration": 0.0131,
      "velocity": 114,
      "chip": "ym2612"
    },
    {
      "channel": 0,
      "note": 89,
      "start": 5.092,
      "duration": 0.0125,
      "velocity": 95,
      "chip": "ym2612"
    },
    {
      "channel": 5,
      "note": 89,
      "start": 5.095,
      "duration": 0.0119,
      "velocity": 95,
      "chip": "ym2612"
    },
    {
      "channel": 2,
      "note": 39,
      "start": 5.0963,
      "duration": 0.0119,
      "velocity": 114,
      "chip": "ym2612"
    },
    {
      "channel": 0,
      "note": 89,
      "start": 5.1045,
      "duration": 0.0125,
      "velocity": 95,
      "chip": "ym2612"
    },
    {
      "channel": 5,
      "note": 89,
      "start": 5.1069,
      "duration": 0.0125,
      "velocity": 95,
      "chip": "ym2612"
    },
    {
      "channel": 2,
      "note": 39,
      "start": 5.1082,
      "duration": 0.0124,
      "velocity": 114,
      "chip": "ym2612"
    },
    {
      "channel": 0,
      "note": 89,
      "start": 5.117,
      "duration": 0.0126,
      "velocity": 95,
      "chip": "ym2612"
    },
    {
      "channel": 5,
      "note": 89,
      "start": 5.1194,
      "duration": 0.0125,
      "velocity": 95,
      "chip": "ym2612"
    },
    {
      "channel": 2,
      "note": 39,
      "start": 5.1206,
      "duration": 0.0125,
      "velocity": 114,
      "chip": "ym2612"
    },
    {
      "channel": 0,
      "note": 89,
      "start": 5.1295,
      "duration": 0.0125,
      "velocity": 95,
      "chip": "ym2612"
    },
    {
      "channel": 5,
      "note": 89,
      "start": 5.1319,
      "duration": 0.0131,
      "velocity": 95,
      "chip": "ym2612"
    },
    {
      "channel": 0,
      "note": 89,
      "start": 5.142,
      "duration": 0.0125,
      "velocity": 95,
      "chip": "ym2612"
    },
    {
      "channel": 5,
      "note": 89,
      "start": 5.145,
      "duration": 0.013,
      "velocity": 95,
      "chip": "ym2612"
    },
    {
      "channel": 0,
      "note": 89,
      "start": 5.1545,
      "duration": 0.0125,
      "velocity": 95,
      "chip": "ym2612"
    },
    {
      "channel": 4,
      "note": 72,
      "start": 5.1568,
      "duration": 0.1014,
      "velocity": 74,
      "chip": "ym2612"
    },
    {
      "channel": 5,
      "note": 89,
      "start": 5.158,
      "duration": 0.0113,
      "velocity": 95,
      "chip": "ym2612"
    },
    {
      "channel": 0,
      "note": 89,
      "start": 5.167,
      "duration": 0.0126,
      "velocity": 95,
      "chip": "ym2612"
    },
    {
      "channel": 5,
      "note": 89,
      "start": 5.1694,
      "duration": 0.0126,
      "velocity": 95,
      "chip": "ym2612"
    },
    {
      "channel": 0,
      "note": 89,
      "start": 5.1795,
      "duration": 0.0125,
      "velocity": 95,
      "chip": "ym2612"
    },
    {
      "channel": 5,
      "note": 89,
      "start": 5.182,
      "duration": 0.013,
      "velocity": 95,
      "chip": "ym2612"
    },
    {
      "channel": 0,
      "note": 89,
      "start": 5.192,
      "duration": 0.0125,
      "velocity": 95,
      "chip": "ym2612"
    },
    {
      "channel": 5,
      "note": 89,
      "start": 5.195,
      "duration": 0.0119,
      "velocity": 95,
      "chip": "ym2612"
    },
    {
      "channel": 0,
      "note": 89,
      "start": 5.2045,
      "duration": 0.0125,
      "velocity": 95,
      "chip": "ym2612"
    },
    {
      "channel": 5,
      "note": 89,
      "start": 5.2069,
      "duration": 0.0125,
      "velocity": 95,
      "chip": "ym2612"
    },
    {
      "channel": 0,
      "note": 89,
      "start": 5.217,
      "duration": 0.0126,
      "velocity": 95,
      "chip": "ym2612"
    },
    {
      "channel": 5,
      "note": 89,
      "start": 5.2194,
      "duration": 0.0125,
      "velocity": 95,
      "chip": "ym2612"
    },
    {
      "channel": 0,
      "note": 89,
      "start": 5.2295,
      "duration": 0.0125,
      "velocity": 95,
      "chip": "ym2612"
    },
    {
      "channel": 5,
      "note": 89,
      "start": 5.2319,
      "duration": 0.0131,
      "velocity": 95,
      "chip": "ym2612"
    },
    {
      "channel": 0,
      "note": 89,
      "start": 5.242,
      "duration": 0.0125,
      "velocity": 95,
      "chip": "ym2612"
    },
    {
      "channel": 5,
      "note": 89,
      "start": 5.245,
      "duration": 0.0149,
      "velocity": 95,
      "chip": "ym2612"
    },
    {
      "channel": 0,
      "note": 89,
      "start": 5.2545,
      "duration": 0.0125,
      "velocity": 95,
      "chip": "ym2612"
    },
    {
      "channel": 1,
      "note": 49,
      "start": 5.2559,
      "duration": 0.187,
      "velocity": 81,
      "chip": "ym2612"
    },
    {
      "channel": 4,
      "note": 73,
      "start": 5.2588,
      "duration": 0.0854,
      "velocity": 74,
      "chip": "ym2612"
    },
    {
      "channel": 5,
      "note": 89,
      "start": 5.26,
      "duration": 0.0094,
      "velocity": 95,
      "chip": "ym2612"
    },
    {
      "channel": 2,
      "note": 40,
      "start": 5.2632,
      "duration": 0.0074,
      "velocity": 114,
      "chip": "ym2612"
    },
    {
      "channel": 0,
      "note": 89,
      "start": 5.267,
      "duration": 0.0126,
      "velocity": 95,
      "chip": "ym2612"
    },
    {
      "channel": 5,
      "note": 89,
      "start": 5.2694,
      "duration": 0.0125,
      "velocity": 95,
      "chip": "ym2612"
    },
    {
      "channel": 2,
      "note": 40,
      "start": 5.2706,
      "duration": 0.0125,
      "velocity": 114,
      "chip": "ym2612"
    },
    {
      "channel": 0,
      "note": 89,
      "start": 5.2795,
      "duration": 0.0125,
      "velocity": 95,
      "chip": "ym2612"
    },
    {
      "channel": 5,
      "note": 89,
      "start": 5.2819,
      "duration": 0.0131,
      "velocity": 95,
      "chip": "ym2612"
    },
    {
      "channel": 2,
      "note": 40,
      "start": 5.2832,
      "duration": 0.0135,
      "velocity": 114,
      "chip": "ym2612"
    },
    {
      "channel": 0,
      "note": 89,
      "start": 5.292,
      "duration": 0.0125,
      "velocity": 95,
      "chip": "ym2612"
    },
    {
      "channel": 5,
      "note": 89,
      "start": 5.295,
      "duration": 0.0119,
      "velocity": 95,
      "chip": "ym2612"
    },
    {
      "channel": 2,
      "note": 40,
      "start": 5.2967,
      "duration": 0.0115,
      "velocity": 114,
      "chip": "ym2612"
    },
    {
      "channel": 0,
      "note": 89,
      "start": 5.3045,
      "duration": 0.0125,
      "velocity": 95,
      "chip": "ym2612"
    },
    {
      "channel": 5,
      "note": 89,
      "start": 5.3069,
      "duration": 0.0125,
      "velocity": 95,
      "chip": "ym2612"
    },
    {
      "channel": 2,
      "note": 40,
      "start": 5.3082,
      "duration": 0.0124,
      "velocity": 114,
      "chip": "ym2612"
    },
    {
      "channel": 0,
      "note": 89,
      "start": 5.317,
      "duration": 0.0126,
      "velocity": 95,
      "chip": "ym2612"
    },
    {
      "channel": 5,
      "note": 89,
      "start": 5.3194,
      "duration": 0.0125,
      "velocity": 95,
      "chip": "ym2612"
    },
    {
      "channel": 2,
      "note": 40,
      "start": 5.3206,
      "duration": 0.0125,
      "velocity": 114,
      "chip": "ym2612"
    },
    {
      "channel": 0,
      "note": 89,
      "start": 5.3295,
      "duration": 0.0125,
      "velocity": 95,
      "chip": "ym2612"
    },
    {
      "channel": 5,
      "note": 89,
      "start": 5.3319,
      "duration": 0.0142,
      "velocity": 95,
      "chip": "ym2612"
    },
    {
      "channel": 2,
      "note": 40,
      "start": 5.3332,
      "duration": 0.0142,
      "velocity": 114,
      "chip": "ym2612"
    },
    {
      "channel": 0,
      "note": 89,
      "start": 5.342,
      "duration": 0.0125,
      "velocity": 95,
      "chip": "ym2612"
    },
    {
      "channel": 4,
      "note": 65,
      "start": 5.3449,
      "duration": 0.1015,
      "velocity": 74,
      "chip": "ym2612"
    },
    {
      "channel": 5,
      "note": 89,
      "start": 5.3461,
      "duration": 0.0107,
      "velocity": 95,
      "chip": "ym2612"
    },
    {
      "channel": 2,
      "note": 40,
      "start": 5.3474,
      "duration": 0.0108,
      "velocity": 114,
      "chip": "ym2612"
    },
    {
      "channel": 0,
      "note": 89,
      "start": 5.3545,
      "duration": 0.0125,
      "velocity": 95,
      "chip": "ym2612"
    },
    {
      "channel": 5,
      "note": 89,
      "start": 5.3569,
      "duration": 0.0125,
      "velocity": 95,
      "chip": "ym2612"
    },
    {
      "channel": 2,
      "note": 40,
      "start": 5.3582,
      "duration": 0.0124,
      "velocity": 114,
      "chip": "ym2612"
    },
    {
      "channel": 0,
      "note": 89,
      "start": 5.367,
      "duration": 0.0126,
      "velocity": 95,
      "chip": "ym2612"
    },
    {
      "channel": 5,
      "note": 89,
      "start": 5.3694,
      "duration": 0.0125,
      "velocity": 95,
      "chip": "ym2612"
    },
    {
      "channel": 2,
      "note": 40,
      "start": 5.3706,
      "duration": 0.0125,
      "velocity": 114,
      "chip": "ym2612"
    },
    {
      "channel": 0,
      "note": 89,
      "start": 5.3795,
      "duration": 0.0125,
      "velocity": 95,
      "chip": "ym2612"
    },
    {
      "channel": 5,
      "note": 89,
      "start": 5.3819,
      "duration": 0.0131,
      "velocity": 95,
      "chip": "ym2612"
    },
    {
      "channel": 2,
      "note": 39,
      "start": 5.3832,
      "duration": 0.0131,
      "velocity": 114,
      "chip": "ym2612"
    },
    {
      "channel": 0,
      "note": 89,
      "start": 5.392,
      "duration": 0.0125,
      "velocity": 95,
      "chip": "ym2612"
    },
    {
      "channel": 5,
      "note": 89,
      "start": 5.395,
      "duration": 0.0119,
      "velocity": 95,
      "chip": "ym2612"
    },
    {
      "channel": 2,
      "note": 39,
      "start": 5.3963,
      "duration": 0.0119,
      "velocity": 114,
      "chip": "ym2612"
    },
    {
      "channel": 0,
      "note": 89,
      "start": 5.4045,
      "duration": 0.0125,
      "velocity": 95,
      "chip": "ym2612"
    },
    {
      "channel": 5,
      "note": 89,
      "start": 5.4069,
      "duration": 0.0125,
      "velocity": 95,
      "chip": "ym2612"
    },
    {
      "channel": 2,
      "note": 39,
      "start": 5.4082,
      "duration": 0.0124,
      "velocity": 114,
      "chip": "ym2612"
    },
    {
      "channel": 0,
      "note": 89,
      "start": 5.417,
      "duration": 0.0125,
      "velocity": 95,
      "chip": "ym2612"
    },
    {
      "channel": 5,
      "note": 89,
      "start": 5.4194,
      "duration": 0.0125,
      "velocity": 95,
      "chip": "ym2612"
    },
    {
      "channel": 0,
      "note": 89,
      "start": 5.4295,
      "duration": 0.0125,
      "velocity": 95,
      "chip": "ym2612"
    },
    {
      "channel": 5,
      "note": 89,
      "start": 5.4319,
      "duration": 0.0161,
      "velocity": 95,
      "chip": "ym2612"
    },
    {
      "channel": 0,
      "note": 89,
      "start": 5.442,
      "duration": 0.0125,
      "velocity": 95,
      "chip": "ym2612"
    },
    {
      "channel": 1,
      "note": 61,
      "start": 5.4434,
      "duration": 0.087,
      "velocity": 81,
      "chip": "ym2612"
    },
    {
      "channel": 4,
      "note": 70,
      "start": 5.4468,
      "duration": 0.0857,
      "velocity": 74,
      "chip": "ym2612"
    },
    {
      "channel": 5,
      "note": 89,
      "start": 5.448,
      "duration": 0.0088,
      "velocity": 95,
      "chip": "ym2612"
    },
    {
      "channel": 2,
      "note": 40,
      "start": 5.4507,
      "duration": 0.0075,
      "velocity": 114,
      "chip": "ym2612"
    },
    {
      "channel": 0,
      "note": 89,
      "start": 5.4545,
      "duration": 0.0125,
      "velocity": 95,
      "chip": "ym2612"
    },
    {
      "channel": 5,
      "note": 89,
      "start": 5.4569,
      "duration": 0.0125,
      "velocity": 95,
      "chip": "ym2612"
    },
    {
      "channel": 2,
      "note": 40,
      "start": 5.4582,
      "duration": 0.0124,
      "velocity": 114,
      "chip": "ym2612"
    },
    {
      "channel": 0,
      "note": 89,
      "start": 5.467,
      "duration": 0.0126,
      "velocity": 95,
      "chip": "ym2612"
    },
    {
      "channel": 5,
      "note": 89,
      "start": 5.4694,
      "duration": 0.0125,
      "velocity": 95,
      "chip": "ym2612"
    },
    {
      "channel": 2,
      "note": 40,
      "start": 5.4706,
      "duration": 0.0129,
      "velocity": 114,
      "chip": "ym2612"
    },
    {
      "channel": 0,
      "note": 89,
      "start": 5.4795,
      "duration": 0.0125,
      "velocity": 95,
      "chip": "ym2612"
    },
    {
      "channel": 5,
      "note": 89,
      "start": 5.4819,
      "duration": 0.0131,
      "velocity": 95,
      "chip": "ym2612"
    },
    {
      "channel": 2,
      "note": 40,
      "start": 5.4836,
      "duration": 0.0127,
      "velocity": 114,
      "chip": "ym2612"
    },
    {
      "channel": 0,
      "note": 89,
      "start": 5.492,
      "duration": 0.0125,
      "velocity": 95,
      "chip": "ym2612"
    },
    {
      "channel": 5,
      "note": 89,
      "start": 5.495,
      "duration": 0.0119,
      "velocity": 95,
      "chip": "ym2612"
    },
    {
      "channel": 2,
      "note": 40,
      "start": 5.4963,
      "duration": 0.0119,
      "velocity": 114,
      "chip": "ym2612"
    },
    {
      "channel": 0,
      "note": 89,
      "start": 5.5045,
      "duration": 0.0125,
      "velocity": 95,
      "chip": "ym2612"
    },
    {
      "channel": 5,
      "note": 89,
      "start": 5.5069,
      "duration": 0.0125,
      "velocity": 95,
      "chip": "ym2612"
    },
    {
      "channel": 2,
      "note": 40,
      "start": 5.5082,
      "duration": 0.0124,
      "velocity": 114,
      "chip": "ym2612"
    },
    {
      "channel": 0,
      "note": 89,
      "start": 5.517,
      "duration": 0.0126,
      "velocity": 95,
      "chip": "ym2612"
    },
    {
      "channel": 5,
      "note": 89,
      "start": 5.5194,
      "duration": 0.0148,
      "velocity": 95,
      "chip": "ym2612"
    },
    {
      "channel": 2,
      "note": 40,
      "start": 5.5206,
      "duration": 0.0148,
      "velocity": 114,
      "chip": "ym2612"
    },
    {
      "channel": 0,
      "note": 89,
      "start": 5.5295,
      "duration": 0.0125,
      "velocity": 95,
      "chip": "ym2612"
    },
    {
      "channel": 1,
      "note": 61,
      "start": 5.531,
      "duration": 0.0995,
      "velocity": 81,
      "chip": "ym2612"
    },
    {
      "channel": 4,
      "note": 72,
      "start": 5.533,
      "duration": 0.1004,
      "velocity": 74,
      "chip": "ym2612"
    },
    {
      "channel": 5,
      "note": 89,
      "start": 5.5342,
      "duration": 0.0108,
      "velocity": 95,
      "chip": "ym2612"
    },
    {
      "channel": 2,
      "note": 40,
      "start": 5.5355,
      "duration": 0.0108,
      "velocity": 114,
      "chip": "ym2612"
    },
    {
      "channel": 0,
      "note": 89,
      "start": 5.542,
      "duration": 0.0125,
      "velocity": 95,
      "chip": "ym2612"
    },
    {
      "channel": 5,
      "note": 89,
      "start": 5.545,
      "duration": 0.0119,
      "velocity": 95,
      "chip": "ym2612"
    },
    {
      "channel": 2,
      "note": 40,
      "start": 5.5463,
      "duration": 0.0119,
      "velocity": 114,
      "chip": "ym2612"
    },
    {
      "channel": 0,
      "note": 89,
      "start": 5.5545,
      "duration": 0.0125,
      "velocity": 95,
      "chip": "ym2612"
    },
    {
      "channel": 5,
      "note": 89,
      "start": 5.5569,
      "duration": 0.0125,
      "velocity": 95,
      "chip": "ym2612"
    },
    {
      "channel": 2,
      "note": 40,
      "start": 5.5582,
      "duration": 0.0124,
      "velocity": 114,
      "chip": "ym2612"
    },
    {
      "channel": 0,
      "note": 89,
      "start": 5.567,
      "duration": 0.0126,
      "velocity": 95,
      "chip": "ym2612"
    },
    {
      "channel": 5,
      "note": 89,
      "start": 5.5694,
      "duration": 0.0125,
      "velocity": 95,
      "chip": "ym2612"
    },
    {
      "channel": 2,
      "note": 39,
      "start": 5.5706,
      "duration": 0.0125,
      "velocity": 114,
      "chip": "ym2612"
    },
    {
      "channel": 0,
      "note": 89,
      "start": 5.5795,
      "duration": 0.0125,
      "velocity": 95,
      "chip": "ym2612"
    },
    {
      "channel": 5,
      "note": 89,
      "start": 5.5819,
      "duration": 0.0131,
      "velocity": 95,
      "chip": "ym2612"
    },
    {
      "channel": 2,
      "note": 39,
      "start": 5.5832,
      "duration": 0.0131,
      "velocity": 114,
      "chip": "ym2612"
    },
    {
      "channel": 0,
      "note": 89,
      "start": 5.592,
      "duration": 0.0125,
      "velocity": 95,
      "chip": "ym2612"
    },
    {
      "channel": 5,
      "note": 89,
      "start": 5.595,
      "duration": 0.0119,
      "velocity": 95,
      "chip": "ym2612"
    },
    {
      "channel": 2,
      "note": 39,
      "start": 5.5963,
      "duration": 0.0118,
      "velocity": 114,
      "chip": "ym2612"
    },
    {
      "channel": 0,
      "note": 89,
      "start": 5.6045,
      "duration": 0.0125,
      "velocity": 95,
      "chip": "ym2612"
    },
    {
      "channel": 5,
      "note": 89,
      "start": 5.6069,
      "duration": 0.0125,
      "velocity": 95,
      "chip": "ym2612"
    },
    {
      "channel": 0,
      "note": 89,
      "start": 5.617,
      "duration": 0.0126,
      "velocity": 95,
      "chip": "ym2612"
    },
    {
      "channel": 5,
      "note": 89,
      "start": 5.6194,
      "duration": 0.0156,
      "velocity": 95,
      "chip": "ym2612"
    },
    {
      "channel": 0,
      "note": 89,
      "start": 5.6295,
      "duration": 0.0127,
      "velocity": 95,
      "chip": "ym2612"
    },
    {
      "channel": 1,
      "note": 49,
      "start": 5.631,
      "duration": 0.187,
      "velocity": 81,
      "chip": "ym2612"
    },
    {
      "channel": 4,
      "note": 65,
      "start": 5.6338,
      "duration": 0.0852,
      "velocity": 74,
      "chip": "ym2612"
    },
    {
      "channel": 5,
      "note": 89,
      "start": 5.635,
      "duration": 0.0102,
      "velocity": 95,
      "chip": "ym2612"
    },
    {
      "channel": 2,
      "note": 41,
      "start": 5.6405,
      "duration": 0.1849,
      "velocity": 122,
      "chip": "ym2612"
    },
    {
      "channel": 0,
      "note": 89,
      "start": 5.6423,
      "duration": 0.0125,
      "velocity": 95,
      "chip": "ym2612"
    },
    {
      "channel": 5,
      "note": 89,
      "start": 5.6453,
      "duration": 0.0119,
      "velocity": 95,
      "chip": "ym2612"
    },
    {
      "channel": 0,
      "note": 89,
      "start": 5.6547,
      "duration": 0.0125,
      "velocity": 95,
      "chip": "ym2612"
    },
    {
      "channel": 5,
      "note": 89,
      "start": 5.6572,
      "duration": 0.0124,
      "velocity": 95,
      "chip": "ym2612"
    },
    {
      "channel": 0,
      "note": 89,
      "start": 5.6672,
      "duration": 0.0125,
      "velocity": 95,
      "chip": "ym2612"
    },
    {
      "channel": 5,
      "note": 89,
      "start": 5.6696,
      "duration": 0.0125,
      "velocity": 95,
      "chip": "ym2612"
    },
    {
      "channel": 0,
      "note": 89,
      "start": 5.6798,
      "duration": 0.0124,
      "velocity": 95,
      "chip": "ym2612"
    },
    {
      "channel": 5,
      "note": 89,
      "start": 5.6821,
      "duration": 0.0131,
      "velocity": 95,
      "chip": "ym2612"
    },
    {
      "channel": 0,
      "note": 89,
      "start": 5.6922,
      "duration": 0.0125,
      "velocity": 95,
      "chip": "ym2612"
    },
    {
      "channel": 5,
      "note": 89,
      "start": 5.6952,
      "duration": 0.0119,
      "velocity": 95,
      "chip": "ym2612"
    },
    {
      "channel": 0,
      "note": 89,
      "start": 5.7047,
      "duration": 0.0125,
      "velocity": 95,
      "chip": "ym2612"
    },
    {
      "channel": 5,
      "note": 89,
      "start": 5.7071,
      "duration": 0.0136,
      "velocity": 95,
      "chip": "ym2612"
    },
    {
      "channel": 0,
      "note": 89,
      "start": 5.7171,
      "duration": 0.0125,
      "velocity": 95,
      "chip": "ym2612"
    },
    {
      "channel": 4,
      "note": 68,
      "start": 5.7195,
      "duration": 0.1013,
      "velocity": 74,
      "chip": "ym2612"
    },
    {
      "channel": 5,
      "note": 89,
      "start": 5.7207,
      "duration": 0.0113,
      "velocity": 95,
      "chip": "ym2612"
    },
    {
      "channel": 0,
      "note": 89,
      "start": 5.7297,
      "duration": 0.0125,
      "velocity": 95,
      "chip": "ym2612"
    },
    {
      "channel": 5,
      "note": 89,
      "start": 5.732,
      "duration": 0.0131,
      "velocity": 95,
      "chip": "ym2612"
    },
    {
      "channel": 0,
      "note": 89,
      "start": 5.7422,
      "duration": 0.0124,
      "velocity": 95,
      "chip": "ym2612"
    },
    {
      "channel": 5,
      "note": 89,
      "start": 5.7451,
      "duration": 0.0119,
      "velocity": 95,
      "chip": "ym2612"
    },
    {
      "channel": 0,
      "note": 89,
      "start": 5.7546,
      "duration": 0.0125,
      "velocity": 95,
      "chip": "ym2612"
    },
    {
      "channel": 5,
      "note": 89,
      "start": 5.757,
      "duration": 0.0125,
      "velocity": 95,
      "chip": "ym2612"
    },
    {
      "channel": 0,
      "note": 89,
      "start": 5.7671,
      "duration": 0.0125,
      "velocity": 95,
      "chip": "ym2612"
    },
    {
      "channel": 5,
      "note": 89,
      "start": 5.7696,
      "duration": 0.0125,
      "velocity": 95,
      "chip": "ym2612"
    },
    {
      "channel": 0,
      "note": 89,
      "start": 5.7796,
      "duration": 0.0125,
      "velocity": 95,
      "chip": "ym2612"
    },
    {
      "channel": 5,
      "note": 89,
      "start": 5.782,
      "duration": 0.013,
      "velocity": 95,
      "chip": "ym2612"
    },
    {
      "channel": 0,
      "note": 89,
      "start": 5.7921,
      "duration": 0.0125,
      "velocity": 95,
      "chip": "ym2612"
    },
    {
      "channel": 5,
      "note": 89,
      "start": 5.7951,
      "duration": 0.0119,
      "velocity": 95,
      "chip": "ym2612"
    },
    {
      "channel": 0,
      "note": 89,
      "start": 5.8046,
      "duration": 0.0125,
      "velocity": 95,
      "chip": "ym2612"
    },
    {
      "channel": 5,
      "note": 89,
      "start": 5.807,
      "duration": 0.0156,
      "velocity": 95,
      "chip": "ym2612"
    },
    {
      "channel": 0,
      "note": 89,
      "start": 5.8171,
      "duration": 0.0134,
      "velocity": 95,
      "chip": "ym2612"
    },
    {
      "channel": 1,
      "note": 61,
      "start": 5.8185,
      "duration": 0.0878,
      "velocity": 81,
      "chip": "ym2612"
    },
    {
      "channel": 4,
      "note": 70,
      "start": 5.8213,
      "duration": 0.0878,
      "velocity": 74,
      "chip": "ym2612"
    },
    {
      "channel": 5,
      "note": 89,
      "start": 5.8226,
      "duration": 0.0103,
      "velocity": 95,
      "chip": "ym2612"
    },
    {
      "channel": 2,
      "note": 40,
      "start": 5.8287,
      "duration": 0.0055,
      "velocity": 114,
      "chip": "ym2612"
    },
    {
      "channel": 0,
      "note": 89,
      "start": 5.8304,
      "duration": 0.0125,
      "velocity": 95,
      "chip": "ym2612"
    },
    {
      "channel": 5,
      "note": 89,
      "start": 5.8329,
      "duration": 0.0131,
      "velocity": 95,
      "chip": "ym2612"
    },
    {
      "channel": 2,
      "note": 40,
      "start": 5.8341,
      "duration": 0.0131,
      "velocity": 114,
      "chip": "ym2612"
    },
    {
      "channel": 0,
      "note": 89,
      "start": 5.8429,
      "duration": 0.0125,
      "velocity": 95,
      "chip": "ym2612"
    },
    {
      "channel": 5,
      "note": 89,
      "start": 5.846,
      "duration": 0.0119,
      "velocity": 95,
      "chip": "ym2612"
    },
    {
      "channel": 2,
      "note": 40,
      "start": 5.8472,
      "duration": 0.0123,
      "velocity": 114,
      "chip": "ym2612"
    },
    {
      "channel": 0,
      "note": 89,
      "start": 5.8554,
      "duration": 0.0125,
      "velocity": 95,
      "chip": "ym2612"
    },
    {
      "channel": 5,
      "note": 89,
      "start": 5.8578,
      "duration": 0.0125,
      "velocity": 95,
      "chip": "ym2612"
    },
    {
      "channel": 2,
      "note": 40,
      "start": 5.8595,
      "duration": 0.0121,
      "velocity": 114,
      "chip": "ym2612"
    },
    {
      "channel": 0,
      "note": 89,
      "start": 5.8679,
      "duration": 0.0125,
      "velocity": 95,
      "chip": "ym2612"
    },
    {
      "channel": 5,
      "note": 89,
      "start": 5.8703,
      "duration": 0.0125,
      "velocity": 95,
      "chip": "ym2612"
    },
    {
      "channel": 2,
      "note": 40,
      "start": 5.8716,
      "duration": 0.0125,
      "velocity": 114,
      "chip": "ym2612"
    },
    {
      "channel": 0,
      "note": 89,
      "start": 5.8804,
      "duration": 0.0124,
      "velocity": 95,
      "chip": "ym2612"
    },
    {
      "channel": 5,
      "note": 89,
      "start": 5.8828,
      "duration": 0.0131,
      "velocity": 95,
      "chip": "ym2612"
    },
    {
      "channel": 2,
      "note": 40,
      "start": 5.8841,
      "duration": 0.0131,
      "velocity": 114,
      "chip": "ym2612"
    },
    {
      "channel": 0,
      "note": 89,
      "start": 5.8928,
      "duration": 0.0125,
      "velocity": 95,
      "chip": "ym2612"
    },
    {
      "channel": 5,
      "note": 89,
      "start": 5.8959,
      "duration": 0.0155,
      "velocity": 95,
      "chip": "ym2612"
    },
    {
      "channel": 2,
      "note": 40,
      "start": 5.8972,
      "duration": 0.0154,
      "velocity": 114,
      "chip": "ym2612"
    },
    {
      "channel": 0,
      "note": 89,
      "start": 5.9054,
      "duration": 0.0125,
      "velocity": 95,
      "chip": "ym2612"
    },
    {
      "channel": 1,
      "note": 61,
      "start": 5.9068,
      "duration": 0.0992,
      "velocity": 81,
      "chip": "ym2612"
    },
    {
      "channel": 4,
      "note": 67,
      "start": 5.9096,
      "duration": 0.0999,
      "velocity": 74,
      "chip": "ym2612"
    },
    {
      "channel": 5,
      "note": 89,
      "start": 5.9114,
      "duration": 0.0088,
      "velocity": 95,
      "chip": "ym2612"
    },
    {
      "channel": 0,
      "note": 89,
      "start": 5.9178,
      "duration": 0.0125,
      "velocity": 95,
      "chip": "ym2612"
    },
    {
      "channel": 5,
      "note": 89,
      "start": 5.9203,
      "duration": 0.0125,
      "velocity": 95,
      "chip": "ym2612"
    },
    {
      "channel": 2,
      "note": 40,
      "start": 5.9225,
      "duration": 0.0115,
      "velocity": 114,
      "chip": "ym2612"
    },
    {
      "channel": 0,
      "note": 89,
      "start": 5.9304,
      "duration": 0.0124,
      "velocity": 95,
      "chip": "ym2612"
    },
    {
      "channel": 5,
      "note": 89,
      "start": 5.9328,
      "duration": 0.013,
      "velocity": 95,
      "chip": "ym2612"
    },
    {
      "channel": 2,
      "note": 40,
      "start": 5.934,
      "duration": 0.0131,
      "velocity": 114,
      "chip": "ym2612"
    },
    {
      "channel": 0,
      "note": 89,
      "start": 5.9428,
      "duration": 0.0125,
      "velocity": 95,
      "chip": "ym2612"
    },
    {
      "channel": 5,
      "note": 89,
      "start": 5.9458,
      "duration": 0.0119,
      "velocity": 95,
      "chip": "ym2612"
    },
    {
      "channel": 2,
      "note": 40,
      "start": 5.9471,
      "duration": 0.0123,
      "velocity": 114,
      "chip": "ym2612"
    },
    {
      "channel": 0,
      "note": 89,
      "start": 5.9553,
      "duration": 0.0125,
      "velocity": 95,
      "chip": "ym2612"
    },
    {
      "channel": 5,
      "note": 89,
      "start": 5.9577,
      "duration": 0.0125,
      "velocity": 95,
      "chip": "ym2612"
    },
    {
      "channel": 2,
      "note": 40,
      "start": 5.9594,
      "duration": 0.0121,
      "velocity": 114,
      "chip": "ym2612"
    },
    {
      "channel": 0,
      "note": 89,
      "start": 5.9678,
      "duration": 0.0125,
      "velocity": 95,
      "chip": "ym2612"
    },
    {
      "channel": 5,
      "note": 89,
      "start": 5.9702,
      "duration": 0.0125,
      "velocity": 95,
      "chip": "ym2612"
    },
    {
      "channel": 2,
      "note": 40,
      "start": 5.9715,
      "duration": 0.0125,
      "velocity": 114,
      "chip": "ym2612"
    },
    {
      "channel": 0,
      "note": 89,
      "start": 5.9802,
      "duration": 0.0125,
      "velocity": 95,
      "chip": "ym2612"
    },
    {
      "channel": 5,
      "note": 89,
      "start": 5.9827,
      "duration": 0.0131,
      "velocity": 95,
      "chip": "ym2612"
    },
    {
      "channel": 2,
      "note": 40,
      "start": 5.9839,
      "duration": 0.0131,
      "velocity": 114,
      "chip": "ym2612"
    },
    {
      "channel": 0,
      "note": 89,
      "start": 5.9928,
      "duration": 0.0122,
      "velocity": 95,
      "chip": "ym2612"
    },
    {
      "channel": 5,
      "note": 89,
      "start": 5.9958,
      "duration": 0.0161,
      "velocity": 95,
      "chip": "ym2612"
    },
    {
      "channel": 2,
      "note": 40,
      "start": 5.9971,
      "duration": 0.0159,
      "velocity": 114,
      "chip": "ym2612"
    },
    {
      "channel": 1,
      "note": 49,
      "start": 6.0064,
      "duration": 0.1861,
      "velocity": 81,
      "chip": "ym2612"
    },
    {
      "channel": 4,
      "note": 65,
      "start": 6.01,
      "duration": 0.0835,
      "velocity": 74,
      "chip": "ym2612"
    },
    {
      "channel": 5,
      "note": 89,
      "start": 6.0119,
      "duration": 0.0074,
      "velocity": 95,
      "chip": "ym2612"
    },
    {
      "channel": 5,
      "note": 89,
      "start": 6.0193,
      "duration": 0.0124,
      "velocity": 95,
      "chip": "ym2612"
    },
    {
      "channel": 2,
      "note": 40,
      "start": 6.0215,
      "duration": 0.0115,
      "velocity": 114,
      "chip": "ym2612"
    },
    {
      "channel": 5,
      "note": 89,
      "start": 6.0317,
      "duration": 0.0131,
      "velocity": 95,
      "chip": "ym2612"
    },
    {
      "channel": 2,
      "note": 40,
      "start": 6.033,
      "duration": 0.0131,
      "velocity": 114,
      "chip": "ym2612"
    },
    {
      "channel": 5,
      "note": 89,
      "start": 6.0448,
      "duration": 0.0118,
      "velocity": 95,
      "chip": "ym2612"
    },
    {
      "channel": 2,
      "note": 40,
      "start": 6.0461,
      "duration": 0.0122,
      "velocity": 114,
      "chip": "ym2612"
    },
    {
      "channel": 5,
      "note": 89,
      "start": 6.0566,
      "duration": 0.0125,
      "velocity": 95,
      "chip": "ym2612"
    },
    {
      "channel": 2,
      "note": 40,
      "start": 6.0583,
      "duration": 0.0122,
      "velocity": 114,
      "chip": "ym2612"
    },
    {
      "channel": 5,
      "note": 89,
      "start": 6.0692,
      "duration": 0.0125,
      "velocity": 95,
      "chip": "ym2612"
    },
    {
      "channel": 2,
      "note": 40,
      "start": 6.0705,
      "duration": 0.0125,
      "velocity": 114,
      "chip": "ym2612"
    },
    {
      "channel": 5,
      "note": 89,
      "start": 6.0817,
      "duration": 0.0142,
      "velocity": 95,
      "chip": "ym2612"
    },
    {
      "channel": 2,
      "note": 40,
      "start": 6.0829,
      "duration": 0.0142,
      "velocity": 114,
      "chip": "ym2612"
    },
    {
      "channel": 4,
      "note": 75,
      "start": 6.0944,
      "duration": 0.1016,
      "velocity": 74,
      "chip": "ym2612"
    },
    {
      "channel": 5,
      "note": 89,
      "start": 6.0958,
      "duration": 0.0107,
      "velocity": 95,
      "chip": "ym2612"
    },
    {
      "channel": 2,
      "note": 40,
      "start": 6.0971,
      "duration": 0.0107,
      "velocity": 114,
      "chip": "ym2612"
    },
    {
      "channel": 5,
      "note": 89,
      "start": 6.1066,
      "duration": 0.0125,
      "velocity": 95,
      "chip": "ym2612"
    },
    {
      "channel": 2,
      "note": 40,
      "start": 6.1078,
      "duration": 0.0125,
      "velocity": 114,
      "chip": "ym2612"
    },
    {
      "channel": 5,
      "note": 89,
      "start": 6.1191,
      "duration": 0.0125,
      "velocity": 95,
      "chip": "ym2612"
    },
    {
      "channel": 2,
      "note": 40,
      "start": 6.1203,
      "duration": 0.0125,
      "velocity": 114,
      "chip": "ym2612"
    },
    {
      "channel": 5,
      "note": 89,
      "start": 6.1316,
      "duration": 0.0122,
      "velocity": 95,
      "chip": "ym2612"
    },
    {
      "channel": 2,
      "note": 40,
      "start": 6.1329,
      "duration": 0.0128,
      "velocity": 114,
      "chip": "ym2612"
    },
    {
      "channel": 2,
      "note": 39,
      "start": 6.1456,
      "duration": 0.0112,
      "velocity": 114,
      "chip": "ym2612"
    },
    {
      "channel": 2,
      "note": 39,
      "start": 6.1569,
      "duration": 0.0125,
      "velocity": 114,
      "chip": "ym2612"
    },
    {
      "channel": 2,
      "note": 39,
      "start": 6.1694,
      "duration": 0.0125,
      "velocity": 114,
      "chip": "ym2612"
    },
    {
      "channel": 1,
      "note": 49,
      "start": 6.193,
      "duration": 0.188,
      "velocity": 81,
      "chip": "ym2612"
    },
    {
      "channel": 4,
      "note": 77,
      "start": 6.1965,
      "duration": 0.0844,
      "velocity": 74,
      "chip": "ym2612"
    },
    {
      "channel": 2,
      "note": 40,
      "start": 6.1995,
      "duration": 0.0074,
      "velocity": 114,
      "chip": "ym2612"
    },
    {
      "channel": 2,
      "note": 40,
      "start": 6.2068,
      "duration": 0.0124,
      "velocity": 114,
      "chip": "ym2612"
    },
    {
      "channel": 2,
      "note": 40,
      "start": 6.2193,
      "duration": 0.0129,
      "velocity": 114,
      "chip": "ym2612"
    },
    {
      "channel": 2,
      "note": 40,
      "start": 6.2322,
      "duration": 0.0127,
      "velocity": 114,
      "chip": "ym2612"
    },
    {
      "channel": 2,
      "note": 40,
      "start": 6.2449,
      "duration": 0.0119,
      "velocity": 114,
      "chip": "ym2612"
    },
    {
      "channel": 2,
      "note": 40,
      "start": 6.2568,
      "duration": 0.0125,
      "velocity": 114,
      "chip": "ym2612"
    },
    {
      "channel": 2,
      "note": 40,
      "start": 6.2693,
      "duration": 0.0137,
      "velocity": 114,
      "chip": "ym2612"
    },
    {
      "channel": 4,
      "note": 65,
      "start": 6.2813,
      "duration": 0.1025,
      "velocity": 74,
      "chip": "ym2612"
    },
    {
      "channel": 2,
      "note": 40,
      "start": 6.2829,
      "duration": 0.0119,
      "velocity": 114,
      "chip": "ym2612"
    },
    {
      "channel": 2,
      "note": 40,
      "start": 6.2948,
      "duration": 0.0119,
      "velocity": 114,
      "chip": "ym2612"
    },
    {
      "channel": 2,
      "note": 40,
      "start": 6.3067,
      "duration": 0.0125,
      "velocity": 114,
      "chip": "ym2612"
    },
    {
      "channel": 2,
      "note": 39,
      "start": 6.3192,
      "duration": 0.0125,
      "velocity": 114,
      "chip": "ym2612"
    },
    {
      "channel": 2,
      "note": 39,
      "start": 6.3317,
      "duration": 0.0131,
      "velocity": 114,
      "chip": "ym2612"
    },
    {
      "channel": 2,
      "note": 39,
      "start": 6.3448,
      "duration": 0.0118,
      "velocity": 114,
      "chip": "ym2612"
    },
    {
      "channel": 0,
      "note": 89,
      "start": 6.3801,
      "duration": 0.3742,
      "velocity": 95,
      "chip": "ym2612"
    },
    {
      "channel": 1,
      "note": 49,
      "start": 6.3815,
      "duration": 0.1856,
      "velocity": 81,
      "chip": "ym2612"
    },
    {
      "channel": 4,
      "note": 73,
      "start": 6.3843,
      "duration": 0.0845,
      "velocity": 74,
      "chip": "ym2612"
    },
    {
      "channel": 2,
      "note": 41,
      "start": 6.3901,
      "duration": 0.0824,
      "velocity": 122,
      "chip": "ym2612"
    },
    {
      "channel": 4,
      "note": 75,
      "start": 6.4694,
      "duration": 0.0998,
      "velocity": 74,
      "chip": "ym2612"
    },
    {
      "channel": 2,
      "note": 40,
      "start": 6.4752,
      "duration": 0.0063,
      "velocity": 114,
      "chip": "ym2612"
    },
    {
      "channel": 2,
      "note": 40,
      "start": 6.4815,
      "duration": 0.0128,
      "velocity": 114,
      "chip": "ym2612"
    },
    {
      "channel": 2,
      "note": 40,
      "start": 6.4943,
      "duration": 0.0125,
      "velocity": 114,
      "chip": "ym2612"
    },
    {
      "channel": 2,
      "note": 40,
      "start": 6.5068,
      "duration": 0.0134,
      "velocity": 114,
      "chip": "ym2612"
    },
    {
      "channel": 5,
      "note": 89,
      "start": 6.5189,
      "duration": 0.3744,
      "velocity": 95,
      "chip": "ym2612"
    },
    {
      "channel": 2,
      "note": 40,
      "start": 6.5202,
      "duration": 0.0112,
      "velocity": 114,
      "chip": "ym2612"
    },
    {
      "channel": 2,
      "note": 40,
      "start": 6.5315,
      "duration": 0.0128,
      "velocity": 114,
      "chip": "ym2612"
    },
    {
      "channel": 2,
      "note": 40,
      "start": 6.5442,
      "duration": 0.0122,
      "velocity": 114,
      "chip": "ym2612"
    },
    {
      "channel": 2,
      "note": 40,
      "start": 6.5564,
      "duration": 0.0148,
      "velocity": 114,
      "chip": "ym2612"
    },
    {
      "channel": 1,
      "note": 49,
      "start": 6.5675,
      "duration": 0.1882,
      "velocity": 81,
      "chip": "ym2612"
    },
    {
      "channel": 4,
      "note": 65,
      "start": 6.5696,
      "duration": 0.0859,
      "velocity": 74,
      "chip": "ym2612"
    },
    {
      "channel": 2,
      "note": 40,
      "start": 6.5712,
      "duration": 0.0102,
      "velocity": 114,
      "chip": "ym2612"
    },
    {
      "channel": 2,
      "note": 40,
      "start": 6.5814,
      "duration": 0.0129,
      "velocity": 114,
      "chip": "ym2612"
    },
    {
      "channel": 2,
      "note": 39,
      "start": 6.5942,
      "duration": 0.0122,
      "velocity": 114,
      "chip": "ym2612"
    },
    {
      "channel": 2,
      "note": 39,
      "start": 6.6064,
      "duration": 0.0125,
      "velocity": 114,
      "chip": "ym2612"
    },
    {
      "channel": 2,
      "note": 39,
      "start": 6.6189,
      "duration": 0.0125,
      "velocity": 114,
      "chip": "ym2612"
    },
    {
      "channel": 4,
      "note": 72,
      "start": 6.6559,
      "duration": 0.1027,
      "velocity": 74,
      "chip": "ym2612"
    },
    {
      "channel": 0,
      "note": 91,
      "start": 6.7548,
      "duration": 0.3746,
      "velocity": 95,
      "chip": "ym2612"
    },
    {
      "channel": 1,
      "note": 49,
      "start": 6.7563,
      "duration": 0.1858,
      "velocity": 81,
      "chip": "ym2612"
    },
    {
      "channel": 4,
      "note": 73,
      "start": 6.7591,
      "duration": 0.0839,
      "velocity": 74,
      "chip": "ym2612"
    },
    {
      "channel": 2,
      "note": 40,
      "start": 6.7626,
      "duration": 0.0062,
      "velocity": 114,
      "chip": "ym2612"
    },
    {
      "channel": 2,
      "note": 40,
      "start": 6.7689,
      "duration": 0.0125,
      "velocity": 114,
      "chip": "ym2612"
    },
    {
      "channel": 2,
      "note": 40,
      "start": 6.7814,
      "duration": 0.0135,
      "velocity": 114,
      "chip": "ym2612"
    },
    {
      "channel": 2,
      "note": 40,
      "start": 6.7949,
      "duration": 0.0115,
      "velocity": 114,
      "chip": "ym2612"
    },
    {
      "channel": 2,
      "note": 40,
      "start": 6.8064,
      "duration": 0.0125,
      "velocity": 114,
      "chip": "ym2612"
    },
    {
      "channel": 2,
      "note": 40,
      "start": 6.8189,
      "duration": 0.0125,
      "velocity": 114,
      "chip": "ym2612"
    },
    {
      "channel": 2,
      "note": 40,
      "start": 6.8314,
      "duration": 0.0142,
      "velocity": 114,
      "chip": "ym2612"
    },
    {
      "channel": 4,
      "note": 65,
      "start": 6.8434,
      "duration": 0.102,
      "velocity": 74,
      "chip": "ym2612"
    },
    {
      "channel": 2,
      "note": 40,
      "start": 6.8456,
      "duration": 0.0107,
      "velocity": 114,
      "chip": "ym2612"
    },
    {
      "channel": 2,
      "note": 40,
      "start": 6.8563,
      "duration": 0.0125,
      "velocity": 114,
      "chip": "ym2612"
    },
    {
      "channel": 2,
      "note": 40,
      "start": 6.8689,
      "duration": 0.0125,
      "velocity": 114,
      "chip": "ym2612"
    },
    {
      "channel": 2,
      "note": 39,
      "start": 6.8814,
      "duration": 0.0143,
      "velocity": 114,
      "chip": "ym2612"
    },
    {
      "channel": 5,
      "note": 91,
      "start": 6.8942,
      "duration": 0.3741,
      "velocity": 95,
      "chip": "ym2612"
    },
    {
      "channel": 2,
      "note": 39,
      "start": 6.8957,
      "duration": 0.0106,
      "velocity": 114,
      "chip": "ym2612"
    },
    {
      "channel": 2,
      "note": 39,
      "start": 6.9063,
      "duration": 0.0125,
      "velocity": 114,
      "chip": "ym2612"
    },
    {
      "channel": 1,
      "note": 61,
      "start": 6.9425,
      "duration": 0.087,
      "velocity": 81,
      "chip": "ym2612"
    },
    {
      "channel": 4,
      "note": 70,
      "start": 6.946,
      "duration": 0.0856,
      "velocity": 74,
      "chip": "ym2612"
    },
    {
      "channel": 2,
      "note": 40,
      "start": 6.949,
      "duration": 0.0074,
      "velocity": 114,
      "chip": "ym2612"
    },
    {
      "channel": 2,
      "note": 40,
      "start": 6.9563,
      "duration": 0.0125,
      "velocity": 114,
      "chip": "ym2612"
    },
    {
      "channel": 2,
      "note": 40,
      "start": 6.9689,
      "duration": 0.0129,
      "velocity": 114,
      "chip": "ym2612"
    },
    {
      "channel": 2,
      "note": 40,
      "start": 6.9818,
      "duration": 0.0125,
      "velocity": 114,
      "chip": "ym2612"
    },
    {
      "channel": 2,
      "note": 40,
      "start": 6.9942,
      "duration": 0.0121,
      "velocity": 114,
      "chip": "ym2612"
    },
    {
      "channel": 2,
      "note": 40,
      "start": 7.0063,
      "duration": 0.0125,
      "velocity": 114,
      "chip": "ym2612"
    },
    {
      "channel": 2,
      "note": 40,
      "start": 7.0189,
      "duration": 0.0148,
      "velocity": 114,
      "chip": "ym2612"
    },
    {
      "channel": 1,
      "note": 61,
      "start": 7.0301,
      "duration": 0.1007,
      "velocity": 81,
      "chip": "ym2612"
    },
    {
      "channel": 4,
      "note": 72,
      "start": 7.0321,
      "duration": 0.1015,
      "velocity": 74,
      "chip": "ym2612"
    },
    {
      "channel": 2,
      "note": 40,
      "start": 7.0337,
      "duration": 0.0106,
      "velocity": 114,
      "chip": "ym2612"
    },
    {
      "channel": 2,
      "note": 40,
      "start": 7.0442,
      "duration": 0.0121,
      "velocity": 114,
      "chip": "ym2612"
    },
    {
      "channel": 2,
      "note": 40,
      "start": 7.0563,
      "duration": 0.0125,
      "velocity": 114,
      "chip": "ym2612"
    },
    {
      "channel": 2,
      "note": 39,
      "start": 7.0689,
      "duration": 0.0125,
      "velocity": 114,
      "chip": "ym2612"
    },
    {
      "channel": 2,
      "note": 39,
      "start": 7.0814,
      "duration": 0.0129,
      "velocity": 114,
      "chip": "ym2612"
    },
    {
      "channel": 2,
      "note": 39,
      "start": 7.0942,
      "duration": 0.0121,
      "velocity": 114,
      "chip": "ym2612"
    },
    {
      "channel": 0,
      "note": 92,
      "start": 7.1299,
      "duration": 0.3745,
      "velocity": 95,
      "chip": "ym2612"
    },
    {
      "channel": 1,
      "note": 49,
      "start": 7.1313,
      "duration": 0.1857,
      "velocity": 81,
      "chip": "ym2612"
    },
    {
      "channel": 4,
      "note": 65,
      "start": 7.1341,
      "duration": 0.0838,
      "velocity": 74,
      "chip": "ym2612"
    },
    {
      "channel": 2,
      "note": 41,
      "start": 7.1399,
      "duration": 0.1836,
      "velocity": 122,
      "chip": "ym2612"
    },
    {
      "channel": 4,
      "note": 68,
      "start": 7.2184,
      "duration": 0.1015,
      "velocity": 74,
      "chip": "ym2612"
    },
    {
      "channel": 5,
      "note": 92,
      "start": 7.2688,
      "duration": 0.3746,
      "velocity": 95,
      "chip": "ym2612"
    },
    {
      "channel": 1,
      "note": 61,
      "start": 7.3175,
      "duration": 0.087,
      "velocity": 81,
      "chip": "ym2612"
    },
    {
      "channel": 4,
      "note": 70,
      "start": 7.3203,
      "duration": 0.087,
      "velocity": 74,
      "chip": "ym2612"
    },
    {
      "channel": 2,
      "note": 40,
      "start": 7.3262,
      "duration": 0.0052,
      "velocity": 114,
      "chip": "ym2612"
    },
    {
      "channel": 2,
      "note": 40,
      "start": 7.3314,
      "duration": 0.0129,
      "velocity": 114,
      "chip": "ym2612"
    },
    {
      "channel": 2,
      "note": 40,
      "start": 7.3442,
      "duration": 0.0125,
      "velocity": 114,
      "chip": "ym2612"
    },
    {
      "channel": 2,
      "note": 40,
      "start": 7.3567,
      "duration": 0.0122,
      "velocity": 114,
      "chip": "ym2612"
    },
    {
      "channel": 2,
      "note": 40,
      "start": 7.3689,
      "duration": 0.0125,
      "velocity": 114,
      "chip": "ym2612"
    },
    {
      "channel": 2,
      "note": 40,
      "start": 7.3814,
      "duration": 0.0129,
      "velocity": 114,
      "chip": "ym2612"
    },
    {
      "channel": 2,
      "note": 40,
      "start": 7.3942,
      "duration": 0.015,
      "velocity": 114,
      "chip": "ym2612"
    },
    {
      "channel": 1,
      "note": 61,
      "start": 7.405,
      "duration": 0.1008,
      "velocity": 81,
      "chip": "ym2612"
    },
    {
      "channel": 4,
      "note": 67,
      "start": 7.4078,
      "duration": 0.1016,
      "velocity": 74,
      "chip": "ym2612"
    },
    {
      "channel": 2,
      "note": 40,
      "start": 7.4198,
      "duration": 0.0116,
      "velocity": 114,
      "chip": "ym2612"
    },
    {
      "channel": 2,
      "note": 40,
      "start": 7.4314,
      "duration": 0.0129,
      "velocity": 114,
      "chip": "ym2612"
    },
    {
      "channel": 2,
      "note": 40,
      "start": 7.4442,
      "duration": 0.0125,
      "velocity": 114,
      "chip": "ym2612"
    },
    {
      "channel": 2,
      "note": 40,
      "start": 7.4568,
      "duration": 0.0121,
      "velocity": 114,
      "chip": "ym2612"
    },
    {
      "channel": 2,
      "note": 40,
      "start": 7.4689,
      "duration": 0.0125,
      "velocity": 114,
      "chip": "ym2612"
    },
    {
      "channel": 2,
      "note": 40,
      "start": 7.4814,
      "duration": 0.0129,
      "velocity": 114,
      "chip": "ym2612"
    },
    {
      "channel": 2,
      "note": 40,
      "start": 7.4942,
      "duration": 0.0177,
      "velocity": 114,
      "chip": "ym2612"
    },
    {
      "channel": 0,
      "note": 91,
      "start": 7.5049,
      "duration": 0.3747,
      "velocity": 95,
      "chip": "ym2612"
    },
    {
      "channel": 1,
      "note": 51,
      "start": 7.5063,
      "duration": 0.1857,
      "velocity": 81,
      "chip": "ym2612"
    },
    {
      "channel": 4,
      "note": 61,
      "start": 7.51,
      "duration": 0.083,
      "velocity": 74,
      "chip": "ym2612"
    },
    {
      "channel": 2,
      "note": 40,
      "start": 7.5198,
      "duration": 0.0116,
      "velocity": 114,
      "chip": "ym2612"
    },
    {
      "channel": 2,
      "note": 40,
      "start": 7.5314,
      "duration": 0.0129,
      "velocity": 114,
      "chip": "ym2612"
    },
    {
      "channel": 2,
      "note": 40,
      "start": 7.5442,
      "duration": 0.0125,
      "velocity": 114,
      "chip": "ym2612"
    },
    {
      "channel": 2,
      "note": 40,
      "start": 7.5567,
      "duration": 0.0122,
      "velocity": 114,
      "chip": "ym2612"
    },
    {
      "channel": 2,
      "note": 40,
      "start": 7.5689,
      "duration": 0.0125,
      "velocity": 114,
      "chip": "ym2612"
    },
    {
      "channel": 2,
      "note": 40,
      "start": 7.5814,
      "duration": 0.0143,
      "velocity": 114,
      "chip": "ym2612"
    },
    {
      "channel": 4,
      "note": 73,
      "start": 7.5935,
      "duration": 0.102,
      "velocity": 74,
      "chip": "ym2612"
    },
    {
      "channel": 2,
      "note": 40,
      "start": 7.5956,
      "duration": 0.0107,
      "velocity": 114,
      "chip": "ym2612"
    },
    {
      "channel": 2,
      "note": 40,
      "start": 7.6064,
      "duration": 0.0125,
      "velocity": 114,
      "chip": "ym2612"
    },
    {
      "channel": 2,
      "note": 40,
      "start": 7.6189,
      "duration": 0.0125,
      "velocity": 114,
      "chip": "ym2612"
    },
    {
      "channel": 2,
      "note": 40,
      "start": 7.6314,
      "duration": 0.0143,
      "velocity": 114,
      "chip": "ym2612"
    },
    {
      "channel": 5,
      "note": 91,
      "start": 7.6442,
      "duration": 0.3752,
      "velocity": 95,
      "chip": "ym2612"
    },
    {
      "channel": 2,
      "note": 39,
      "start": 7.6457,
      "duration": 0.0106,
      "velocity": 114,
      "chip": "ym2612"
    },
    {
      "channel": 2,
      "note": 39,
      "start": 7.6563,
      "duration": 0.0125,
      "velocity": 114,
      "chip": "ym2612"
    },
    {
      "channel": 2,
      "note": 39,
      "start": 7.6689,
      "duration": 0.0125,
      "velocity": 114,
      "chip": "ym2612"
    },
    {
      "channel": 1,
      "note": 51,
      "start": 7.6925,
      "duration": 0.1879,
      "velocity": 81,
      "chip": "ym2612"
    },
    {
      "channel": 4,
      "note": 75,
      "start": 7.696,
      "duration": 0.0845,
      "velocity": 74,
      "chip": "ym2612"
    },
    {
      "channel": 2,
      "note": 40,
      "start": 7.6989,
      "duration": 0.0074,
      "velocity": 114,
      "chip": "ym2612"
    },
    {
      "channel": 2,
      "note": 40,
      "start": 7.7063,
      "duration": 0.0125,
      "velocity": 114,
      "chip": "ym2612"
    },
    {
      "channel": 2,
      "note": 40,
      "start": 7.7189,
      "duration": 0.0129,
      "velocity": 114,
      "chip": "ym2612"
    },
    {
      "channel": 2,
      "note": 40,
      "start": 7.7318,
      "duration": 0.0124,
      "velocity": 114,
      "chip": "ym2612"
    },
    {
      "channel": 2,
      "note": 40,
      "start": 7.7442,
      "duration": 0.0122,
      "velocity": 114,
      "chip": "ym2612"
    },
    {
      "channel": 2,
      "note": 40,
      "start": 7.7563,
      "duration": 0.0125,
      "velocity": 114,
      "chip": "ym2612"
    },
    {
      "channel": 2,
      "note": 40,
      "start": 7.7689,
      "duration": 0.0137,
      "velocity": 114,
      "chip": "ym2612"
    },
    {
      "channel": 4,
      "note": 61,
      "start": 7.781,
      "duration": 0.1024,
      "velocity": 74,
      "chip": "ym2612"
    },
    {
      "channel": 2,
      "note": 40,
      "start": 7.7825,
      "duration": 0.0117,
      "velocity": 114,
      "chip": "ym2612"
    },
    {
      "channel": 2,
      "note": 40,
      "start": 7.7942,
      "duration": 0.0122,
      "velocity": 114,
      "chip": "ym2612"
    },
    {
      "channel": 2,
      "note": 40,
      "start": 7.8064,
      "duration": 0.0125,
      "velocity": 114,
      "chip": "ym2612"
    },
    {
      "channel": 2,
      "note": 39,
      "start": 7.8189,
      "duration": 0.0125,
      "velocity": 114,
      "chip": "ym2612"
    },
    {
      "channel": 2,
      "note": 39,
      "start": 7.8314,
      "duration": 0.0129,
      "velocity": 114,
      "chip": "ym2612"
    },
    {
      "channel": 2,
      "note": 39,
      "start": 7.8442,
      "duration": 0.0121,
      "velocity": 114,
      "chip": "ym2612"
    },
    {
      "channel": 0,
      "note": 91,
      "start": 7.8795,
      "duration": 0.0125,
      "velocity": 95,
      "chip": "ym2612"
    },
    {
      "channel": 1,
      "note": 51,
      "start": 7.881,
      "duration": 0.187,
      "velocity": 81,
      "chip": "ym2612"
    },
    {
      "channel": 4,
      "note": 72,
      "start": 7.8838,
      "duration": 0.0858,
      "velocity": 74,
      "chip": "ym2612"
    },
    {
      "channel": 2,
      "note": 41,
      "start": 7.8895,
      "duration": 0.0837,
      "velocity": 122,
      "chip": "ym2612"
    },
    {
      "channel": 0,
      "note": 91,
      "start": 7.892,
      "duration": 0.0125,
      "velocity": 95,
      "chip": "ym2612"
    },
    {
      "channel": 0,
      "note": 91,
      "start": 7.9045,
      "duration": 0.0125,
      "velocity": 95,
      "chip": "ym2612"
    },
    {
      "channel": 0,
      "note": 91,
      "start": 7.917,
      "duration": 0.0126,
      "velocity": 95,
      "chip": "ym2612"
    },
    {
      "channel": 0,
      "note": 91,
      "start": 7.9295,
      "duration": 0.0125,
      "velocity": 95,
      "chip": "ym2612"
    },
    {
      "channel": 0,
      "note": 91,
      "start": 7.942,
      "duration": 0.0125,
      "velocity": 95,
      "chip": "ym2612"
    },
    {
      "channel": 0,
      "note": 91,
      "start": 7.9545,
      "duration": 0.0125,
      "velocity": 95,
      "chip": "ym2612"
    },
    {
      "channel": 0,
      "note": 91,
      "start": 7.967,
      "duration": 0.0125,
      "velocity": 95,
      "chip": "ym2612"
    },
    {
      "channel": 4,
      "note": 73,
      "start": 7.9701,
      "duration": 0.0998,
      "velocity": 74,
      "chip": "ym2612"
    },
    {
      "channel": 2,
      "note": 40,
      "start": 7.976,
      "duration": 0.0063,
      "velocity": 114,
      "chip": "ym2612"
    },
    {
      "channel": 0,
      "note": 91,
      "start": 7.9795,
      "duration": 0.0125,
      "velocity": 95,
      "chip": "ym2612"
    },
    {
      "channel": 2,
      "note": 40,
      "start": 7.9823,
      "duration": 0.0131,
      "velocity": 114,
      "chip": "ym2612"
    },
    {
      "channel": 0,
      "note": 91,
      "start": 7.992,
      "duration": 0.0125,
      "velocity": 95,
      "chip": "ym2612"
    },
    {
      "channel": 2,
      "note": 40,
      "start": 7.9954,
      "duration": 0.0123,
      "velocity": 114,
      "chip": "ym2612"
    },
    {
      "channel": 0,
      "note": 91,
      "start": 8.0045,
      "duration": 0.0125,
      "velocity": 95,
      "chip": "ym2612"
    },
    {
      "channel": 2,
      "note": 40,
      "start": 8.0077,
      "duration": 0.013,
      "velocity": 114,
      "chip": "ym2612"
    },
    {
      "channel": 0,
      "note": 91,
      "start": 8.017,
      "duration": 0.0126,
      "velocity": 95,
      "chip": "ym2612"
    },
    {
      "channel": 5,
      "note": 91,
      "start": 8.0194,
      "duration": 0.0125,
      "velocity": 95,
      "chip": "ym2612"
    },
    {
      "channel": 2,
      "note": 40,
      "start": 8.0206,
      "duration": 0.0125,
      "velocity": 114,
      "chip": "ym2612"
    },
    {
      "channel": 0,
      "note": 91,
      "start": 8.0295,
      "duration": 0.0125,
      "velocity": 95,
      "chip": "ym2612"
    },
    {
      "channel": 5,
      "note": 91,
      "start": 8.0319,
      "duration": 0.0131,
      "velocity": 95,
      "chip": "ym2612"
    },
    {
      "channel": 2,
      "note": 40,
      "start": 8.0332,
      "duration": 0.0131,
      "velocity": 114,
      "chip": "ym2612"
    },
    {
      "channel": 0,
      "note": 91,
      "start": 8.042,
      "duration": 0.0125,
      "velocity": 95,
      "chip": "ym2612"
    },
    {
      "channel": 5,
      "note": 91,
      "start": 8.045,
      "duration": 0.0119,
      "velocity": 95,
      "chip": "ym2612"
    },
    {
      "channel": 2,
      "note": 40,
      "start": 8.0463,
      "duration": 0.0119,
      "velocity": 114,
      "chip": "ym2612"
    },
    {
      "channel": 0,
      "note": 91,
      "start": 8.0545,
      "duration": 0.0125,
      "velocity": 95,
      "chip": "ym2612"
    },
    {
      "channel": 5,
      "note": 91,
      "start": 8.0569,
      "duration": 0.0148,
      "velocity": 95,
      "chip": "ym2612"
    },
    {
      "channel": 2,
      "note": 40,
      "start": 8.0582,
      "duration": 0.0147,
      "velocity": 114,
      "chip": "ym2612"
    },
    {
      "channel": 0,
      "note": 91,
      "start": 8.067,
      "duration": 0.0126,
      "velocity": 95,
      "chip": "ym2612"
    },
    {
      "channel": 1,
      "note": 51,
      "start": 8.0684,
      "duration": 0.187,
      "velocity": 81,
      "chip": "ym2612"
    },
    {
      "channel": 4,
      "note": 61,
      "start": 8.0705,
      "duration": 0.0859,
      "velocity": 74,
      "chip": "ym2612"
    },
    {
      "channel": 5,
      "note": 91,
      "start": 8.0717,
      "duration": 0.0102,
      "velocity": 95,
      "chip": "ym2612"
    },
    {
      "channel": 2,
      "note": 40,
      "start": 8.0729,
      "duration": 0.0102,
      "velocity": 114,
      "chip": "ym2612"
    },
    {
      "channel": 0,
      "note": 91,
      "start": 8.0795,
      "duration": 0.0125,
      "velocity": 95,
      "chip": "ym2612"
    },
    {
      "channel": 5,
      "note": 91,
      "start": 8.0819,
      "duration": 0.0131,
      "velocity": 95,
      "chip": "ym2612"
    },
    {
      "channel": 2,
      "note": 40,
      "start": 8.0832,
      "duration": 0.0131,
      "velocity": 114,
      "chip": "ym2612"
    },
    {
      "channel": 0,
      "note": 91,
      "start": 8.092,
      "duration": 0.0125,
      "velocity": 95,
      "chip": "ym2612"
    },
    {
      "channel": 5,
      "note": 91,
      "start": 8.095,
      "duration": 0.0119,
      "velocity": 95,
      "chip": "ym2612"
    },
    {
      "channel": 2,
      "note": 39,
      "start": 8.0963,
      "duration": 0.0119,
      "velocity": 114,
      "chip": "ym2612"
    },
    {
      "channel": 0,
      "note": 91,
      "start": 8.1045,
      "duration": 0.0125,
      "velocity": 95,
      "chip": "ym2612"
    },
    {
      "channel": 5,
      "note": 91,
      "start": 8.1069,
      "duration": 0.0125,
      "velocity": 95,
      "chip": "ym2612"
    },
    {
      "channel": 2,
      "note": 39,
      "start": 8.1082,
      "duration": 0.0124,
      "velocity": 114,
      "chip": "ym2612"
    },
    {
      "channel": 0,
      "note": 91,
      "start": 8.117,
      "duration": 0.0126,
      "velocity": 95,
      "chip": "ym2612"
    },
    {
      "channel": 5,
      "note": 91,
      "start": 8.1194,
      "duration": 0.0125,
      "velocity": 95,
      "chip": "ym2612"
    },
    {
      "channel": 2,
      "note": 39,
      "start": 8.1206,
      "duration": 0.0125,
      "velocity": 114,
      "chip": "ym2612"
    },
    {
      "channel": 0,
      "note": 91,
      "start": 8.1295,
      "duration": 0.0125,
      "velocity": 95,
      "chip": "ym2612"
    },
    {
      "channel": 5,
      "note": 91,
      "start": 8.1319,
      "duration": 0.0131,
      "velocity": 95,
      "chip": "ym2612"
    },
    {
      "channel": 0,
      "note": 91,
      "start": 8.142,
      "duration": 0.0125,
      "velocity": 95,
      "chip": "ym2612"
    },
    {
      "channel": 5,
      "note": 91,
      "start": 8.145,
      "duration": 0.013,
      "velocity": 95,
      "chip": "ym2612"
    },
    {
      "channel": 0,
      "note": 91,
      "start": 8.1545,
      "duration": 0.0125,
      "velocity": 95,
      "chip": "ym2612"
    },
    {
      "channel": 4,
      "note": 70,
      "start": 8.1568,
      "duration": 0.1014,
      "velocity": 74,
      "chip": "ym2612"
    },
    {
      "channel": 5,
      "note": 91,
      "start": 8.158,
      "duration": 0.0113,
      "velocity": 95,
      "chip": "ym2612"
    },
    {
      "channel": 0,
      "note": 91,
      "start": 8.167,
      "duration": 0.0126,
      "velocity": 95,
      "chip": "ym2612"
    },
    {
      "channel": 5,
      "note": 91,
      "start": 8.1694,
      "duration": 0.0125,
      "velocity": 95,
      "chip": "ym2612"
    },
    {
      "channel": 0,
      "note": 91,
      "start": 8.1795,
      "duration": 0.0125,
      "velocity": 95,
      "chip": "ym2612"
    },
    {
      "channel": 5,
      "note": 91,
      "start": 8.1819,
      "duration": 0.0131,
      "velocity": 95,
      "chip": "ym2612"
    },
    {
      "channel": 0,
      "note": 91,
      "start": 8.192,
      "duration": 0.0125,
      "velocity": 95,
      "chip": "ym2612"
    },
    {
      "channel": 5,
      "note": 91,
      "start": 8.195,
      "duration": 0.0119,
      "velocity": 95,
      "chip": "ym2612"
    },
    {
      "channel": 0,
      "note": 91,
      "start": 8.2045,
      "duration": 0.0125,
      "velocity": 95,
      "chip": "ym2612"
    },
    {
      "channel": 5,
      "note": 91,
      "start": 8.2069,
      "duration": 0.0125,
      "velocity": 95,
      "chip": "ym2612"
    },
    {
      "channel": 0,
      "note": 91,
      "start": 8.217,
      "duration": 0.0126,
      "velocity": 95,
      "chip": "ym2612"
    },
    {
      "channel": 5,
      "note": 91,
      "start": 8.2194,
      "duration": 0.0125,
      "velocity": 95,
      "chip": "ym2612"
    },
    {
      "channel": 0,
      "note": 91,
      "start": 8.2295,
      "duration": 0.0125,
      "velocity": 95,
      "chip": "ym2612"
    },
    {
      "channel": 5,
      "note": 91,
      "start": 8.2319,
      "duration": 0.0131,
      "velocity": 95,
      "chip": "ym2612"
    },
    {
      "channel": 0,
      "note": 91,
      "start": 8.242,
      "duration": 0.0125,
      "velocity": 95,
      "chip": "ym2612"
    },
    {
      "channel": 5,
      "note": 91,
      "start": 8.245,
      "duration": 0.0149,
      "velocity": 95,
      "chip": "ym2612"
    },
    {
      "channel": 0,
      "note": 91,
      "start": 8.2545,
      "duration": 0.0125,
      "velocity": 95,
      "chip": "ym2612"
    },
    {
      "channel": 1,
      "note": 51,
      "start": 8.2559,
      "duration": 0.187,
      "velocity": 81,
      "chip": "ym2612"
    },
    {
      "channel": 4,
      "note": 72,
      "start": 8.2588,
      "duration": 0.0854,
      "velocity": 74,
      "chip": "ym2612"
    },
    {
      "channel": 5,
      "note": 91,
      "start": 8.26,
      "duration": 0.0094,
      "velocity": 95,
      "chip": "ym2612"
    },
    {
      "channel": 2,
      "note": 40,
      "start": 8.2632,
      "duration": 0.0074,
      "velocity": 114,
      "chip": "ym2612"
    },
    {
      "channel": 0,
      "note": 91,
      "start": 8.267,
      "duration": 0.0126,
      "velocity": 95,
      "chip": "ym2612"
    },
    {
      "channel": 5,
      "note": 91,
      "start": 8.2694,
      "duration": 0.0125,
      "velocity": 95,
      "chip": "ym2612"
    },
    {
      "channel": 2,
      "note": 40,
      "start": 8.2706,
      "duration": 0.0125,
      "velocity": 114,
      "chip": "ym2612"
    },
    {
      "channel": 0,
      "note": 91,
      "start": 8.2795,
      "duration": 0.0125,
      "velocity": 95,
      "chip": "ym2612"
    },
    {
      "channel": 5,
      "note": 91,
      "start": 8.2819,
      "duration": 0.0131,
      "velocity": 95,
      "chip": "ym2612"
    },
    {
      "channel": 2,
      "note": 40,
      "start": 8.2832,
      "duration": 0.0135,
      "velocity": 114,
      "chip": "ym2612"
    },
    {
      "channel": 0,
      "note": 91,
      "start": 8.292,
      "duration": 0.0125,
      "velocity": 95,
      "chip": "ym2612"
    },
    {
      "channel": 5,
      "note": 91,
      "start": 8.295,
      "duration": 0.0119,
      "velocity": 95,
      "chip": "ym2612"
    },
    {
      "channel": 2,
      "note": 40,
      "start": 8.2967,
      "duration": 0.0115,
      "velocity": 114,
      "chip": "ym2612"
    },
    {
      "channel": 0,
      "note": 91,
      "start": 8.3045,
      "duration": 0.0125,
      "velocity": 95,
      "chip": "ym2612"
    },
    {
      "channel": 5,
      "note": 91,
      "start": 8.3069,
      "duration": 0.0125,
      "velocity": 95,
      "chip": "ym2612"
    },
    {
      "channel": 2,
      "note": 40,
      "start": 8.3082,
      "duration": 0.0124,
      "velocity": 114,
      "chip": "ym2612"
    },
    {
      "channel": 0,
      "note": 91,
      "start": 8.317,
      "duration": 0.0126,
      "velocity": 95,
      "chip": "ym2612"
    },
    {
      "channel": 5,
      "note": 91,
      "start": 8.3194,
      "duration": 0.0125,
      "velocity": 95,
      "chip": "ym2612"
    },
    {
      "channel": 2,
      "note": 40,
      "start": 8.3206,
      "duration": 0.0125,
      "velocity": 114,
      "chip": "ym2612"
    },
    {
      "channel": 0,
      "note": 91,
      "start": 8.3295,
      "duration": 0.0125,
      "velocity": 95,
      "chip": "ym2612"
    },
    {
      "channel": 5,
      "note": 91,
      "start": 8.3319,
      "duration": 0.0142,
      "velocity": 95,
      "chip": "ym2612"
    },
    {
      "channel": 2,
      "note": 40,
      "start": 8.3332,
      "duration": 0.0142,
      "velocity": 114,
      "chip": "ym2612"
    },
    {
      "channel": 0,
      "note": 91,
      "start": 8.342,
      "duration": 0.0125,
      "velocity": 95,
      "chip": "ym2612"
    },
    {
      "channel": 4,
      "note": 61,
      "start": 8.3449,
      "duration": 0.1015,
      "velocity": 74,
      "chip": "ym2612"
    },
    {
      "channel": 5,
      "note": 91,
      "start": 8.3461,
      "duration": 0.0107,
      "velocity": 95,
      "chip": "ym2612"
    },
    {
      "channel": 2,
      "note": 40,
      "start": 8.3474,
      "duration": 0.0108,
      "velocity": 114,
      "chip": "ym2612"
    },
    {
      "channel": 0,
      "note": 91,
      "start": 8.3545,
      "duration": 0.0125,
      "velocity": 95,
      "chip": "ym2612"
    },
    {
      "channel": 5,
      "note": 91,
      "start": 8.3569,
      "duration": 0.0125,
      "velocity": 95,
      "chip": "ym2612"
    },
    {
      "channel": 2,
      "note": 40,
      "start": 8.3582,
      "duration": 0.0124,
      "velocity": 114,
      "chip": "ym2612"
    },
    {
      "channel": 0,
      "note": 91,
      "start": 8.367,
      "duration": 0.0126,
      "velocity": 95,
      "chip": "ym2612"
    },
    {
      "channel": 5,
      "note": 91,
      "start": 8.3694,
      "duration": 0.0125,
      "velocity": 95,
      "chip": "ym2612"
    },
    {
      "channel": 2,
      "note": 40,
      "start": 8.3706,
      "duration": 0.0125,
      "velocity": 114,
      "chip": "ym2612"
    },
    {
      "channel": 0,
      "note": 91,
      "start": 8.3795,
      "duration": 0.0125,
      "velocity": 95,
      "chip": "ym2612"
    },
    {
      "channel": 5,
      "note": 91,
      "start": 8.3819,
      "duration": 0.0131,
      "velocity": 95,
      "chip": "ym2612"
    },
    {
      "channel": 2,
      "note": 39,
      "start": 8.3832,
      "duration": 0.0131,
      "velocity": 114,
      "chip": "ym2612"
    },
    {
      "channel": 0,
      "note": 91,
      "start": 8.392,
      "duration": 0.0125,
      "velocity": 95,
      "chip": "ym2612"
    },
    {
      "channel": 5,
      "note": 91,
      "start": 8.395,
      "duration": 0.0119,
      "velocity": 95,
      "chip": "ym2612"
    },
    {
      "channel": 2,
      "note": 39,
      "start": 8.3963,
      "duration": 0.0119,
      "velocity": 114,
      "chip": "ym2612"
    },
    {
      "channel": 0,
      "note": 91,
      "start": 8.4045,
      "duration": 0.0125,
      "velocity": 95,
      "chip": "ym2612"
    },
    {
      "channel": 5,
      "note": 91,
      "start": 8.4069,
      "duration": 0.0125,
      "velocity": 95,
      "chip": "ym2612"
    },
    {
      "channel": 2,
      "note": 39,
      "start": 8.4082,
      "duration": 0.0124,
      "velocity": 114,
      "chip": "ym2612"
    },
    {
      "channel": 0,
      "note": 91,
      "start": 8.417,
      "duration": 0.0126,
      "velocity": 95,
      "chip": "ym2612"
    },
    {
      "channel": 5,
      "note": 91,
      "start": 8.4194,
      "duration": 0.0125,
      "velocity": 95,
      "chip": "ym2612"
    },
    {
      "channel": 0,
      "note": 91,
      "start": 8.4295,
      "duration": 0.0125,
      "velocity": 95,
      "chip": "ym2612"
    },
    {
      "channel": 5,
      "note": 91,
      "start": 8.4319,
      "duration": 0.0161,
      "velocity": 95,
      "chip": "ym2612"
    },
    {
      "channel": 0,
      "note": 91,
      "start": 8.442,
      "duration": 0.0125,
      "velocity": 95,
      "chip": "ym2612"
    },
    {
      "channel": 1,
      "note": 63,
      "start": 8.4434,
      "duration": 0.087,
      "velocity": 81,
      "chip": "ym2612"
    },
    {
      "channel": 4,
      "note": 68,
      "start": 8.4468,
      "duration": 0.0857,
      "velocity": 74,
      "chip": "ym2612"
    },
    {
      "channel": 5,
      "note": 91,
      "start": 8.448,
      "duration": 0.0088,
      "velocity": 95,
      "chip": "ym2612"
    },
    {
      "channel": 2,
      "note": 40,
      "start": 8.4507,
      "duration": 0.0075,
      "velocity": 114,
      "chip": "ym2612"
    },
    {
      "channel": 0,
      "note": 91,
      "start": 8.4545,
      "duration": 0.0125,
      "velocity": 95,
      "chip": "ym2612"
    },
    {
      "channel": 5,
      "note": 91,
      "start": 8.4569,
      "duration": 0.0125,
      "velocity": 95,
      "chip": "ym2612"
    },
    {
      "channel": 2,
      "note": 40,
      "start": 8.4582,
      "duration": 0.0124,
      "velocity": 114,
      "chip": "ym2612"
    },
    {
      "channel": 0,
      "note": 91,
      "start": 8.467,
      "duration": 0.0126,
      "velocity": 95,
      "chip": "ym2612"
    },
    {
      "channel": 5,
      "note": 91,
      "start": 8.4694,
      "duration": 0.0125,
      "velocity": 95,
      "chip": "ym2612"
    },
    {
      "channel": 2,
      "note": 40,
      "start": 8.4706,
      "duration": 0.0129,
      "velocity": 114,
      "chip": "ym2612"
    },
    {
      "channel": 0,
      "note": 91,
      "start": 8.4795,
      "duration": 0.0125,
      "velocity": 95,
      "chip": "ym2612"
    },
    {
      "channel": 5,
      "note": 91,
      "start": 8.4819,
      "duration": 0.0131,
      "velocity": 95,
      "chip": "ym2612"
    },
    {
      "channel": 2,
      "note": 40,
      "start": 8.4836,
      "duration": 0.0127,
      "velocity": 114,
      "chip": "ym2612"
    },
    {
      "channel": 0,
      "note": 91,
      "start": 8.492,
      "duration": 0.0125,
      "velocity": 95,
      "chip": "ym2612"
    },
    {
      "channel": 5,
      "note": 91,
      "start": 8.495,
      "duration": 0.0119,
      "velocity": 95,
      "chip": "ym2612"
    },
    {
      "channel": 2,
      "note": 40,
      "start": 8.4963,
      "duration": 0.0119,
      "velocity": 114,
      "chip": "ym2612"
    },
    {
      "channel": 0,
      "note": 91,
      "start": 8.5045,
      "duration": 0.0125,
      "velocity": 95,
      "chip": "ym2612"
    },
    {
      "channel": 5,
      "note": 91,
      "start": 8.5069,
      "duration": 0.0125,
      "velocity": 95,
      "chip": "ym2612"
    },
    {
      "channel": 2,
      "note": 40,
      "start": 8.5082,
      "duration": 0.0124,
      "velocity": 114,
      "chip": "ym2612"
    },
    {
      "channel": 0,
      "note": 91,
      "start": 8.517,
      "duration": 0.0126,
      "velocity": 95,
      "chip": "ym2612"
    },
    {
      "channel": 5,
      "note": 91,
      "start": 8.5194,
      "duration": 0.0148,
      "velocity": 95,
      "chip": "ym2612"
    },
    {
      "channel": 2,
      "note": 40,
      "start": 8.5206,
      "duration": 0.0148,
      "velocity": 114,
      "chip": "ym2612"
    },
    {
      "channel": 0,
      "note": 91,
      "start": 8.5295,
      "duration": 0.0125,
      "velocity": 95,
      "chip": "ym2612"
    },
    {
      "channel": 1,
      "note": 63,
      "start": 8.531,
      "duration": 0.0995,
      "velocity": 81,
      "chip": "ym2612"
    },
    {
      "channel": 4,
      "note": 70,
      "start": 8.533,
      "duration": 0.1004,
      "velocity": 74,
      "chip": "ym2612"
    },
    {
      "channel": 5,
      "note": 91,
      "start": 8.5342,
      "duration": 0.0108,
      "velocity": 95,
      "chip": "ym2612"
    },
    {
      "channel": 2,
      "note": 40,
      "start": 8.5355,
      "duration": 0.0108,
      "velocity": 114,
      "chip": "ym2612"
    },
    {
      "channel": 0,
      "note": 91,
      "start": 8.542,
      "duration": 0.0125,
      "velocity": 95,
      "chip": "ym2612"
    },
    {
      "channel": 5,
      "note": 91,
      "start": 8.545,
      "duration": 0.0119,
      "velocity": 95,
      "chip": "ym2612"
    },
    {
      "channel": 2,
      "note": 40,
      "start": 8.5463,
      "duration": 0.0119,
      "velocity": 114,
      "chip": "ym2612"
    },
    {
      "channel": 0,
      "note": 91,
      "start": 8.5545,
      "duration": 0.0125,
      "velocity": 95,
      "chip": "ym2612"
    },
    {
      "channel": 5,
      "note": 91,
      "start": 8.5569,
      "duration": 0.0125,
      "velocity": 95,
      "chip": "ym2612"
    },
    {
      "channel": 2,
      "note": 40,
      "start": 8.5582,
      "duration": 0.0124,
      "velocity": 114,
      "chip": "ym2612"
    },
    {
      "channel": 0,
      "note": 91,
      "start": 8.567,
      "duration": 0.0125,
      "velocity": 95,
      "chip": "ym2612"
    },
    {
      "channel": 5,
      "note": 91,
      "start": 8.5694,
      "duration": 0.0125,
      "velocity": 95,
      "chip": "ym2612"
    },
    {
      "channel": 2,
      "note": 39,
      "start": 8.5706,
      "duration": 0.0125,
      "velocity": 114,
      "chip": "ym2612"
    },
    {
      "channel": 0,
      "note": 91,
      "start": 8.5795,
      "duration": 0.0125,
      "velocity": 95,
      "chip": "ym2612"
    },
    {
      "channel": 5,
      "note": 91,
      "start": 8.5819,
      "duration": 0.0131,
      "velocity": 95,
      "chip": "ym2612"
    },
    {
      "channel": 2,
      "note": 39,
      "start": 8.5832,
      "duration": 0.0131,
      "velocity": 114,
      "chip": "ym2612"
    },
    {
      "channel": 0,
      "note": 91,
      "start": 8.592,
      "duration": 0.0125,
      "velocity": 95,
      "chip": "ym2612"
    },
    {
      "channel": 5,
      "note": 91,
      "start": 8.595,
      "duration": 0.0119,
      "velocity": 95,
      "chip": "ym2612"
    },
    {
      "channel": 2,
      "note": 39,
      "start": 8.5963,
      "duration": 0.0118,
      "velocity": 114,
      "chip": "ym2612"
    },
    {
      "channel": 0,
      "note": 91,
      "start": 8.6045,
      "duration": 0.0125,
      "velocity": 95,
      "chip": "ym2612"
    },
    {
      "channel": 5,
      "note": 91,
      "start": 8.6069,
      "duration": 0.0125,
      "velocity": 95,
      "chip": "ym2612"
    },
    {
      "channel": 0,
      "note": 91,
      "start": 8.617,
      "duration": 0.0126,
      "velocity": 95,
      "chip": "ym2612"
    },
    {
      "channel": 5,
      "note": 91,
      "start": 8.6194,
      "duration": 0.0156,
      "velocity": 95,
      "chip": "ym2612"
    },
    {
      "channel": 0,
      "note": 91,
      "start": 8.6295,
      "duration": 0.0127,
      "velocity": 95,
      "chip": "ym2612"
    },
    {
      "channel": 1,
      "note": 51,
      "start": 8.631,
      "duration": 0.187,
      "velocity": 81,
      "chip": "ym2612"
    },
    {
      "channel": 4,
      "note": 61,
      "start": 8.6338,
      "duration": 0.0852,
      "velocity": 74,
      "chip": "ym2612"
    },
    {
      "channel": 5,
      "note": 91,
      "start": 8.635,
      "duration": 0.0102,
      "velocity": 95,
      "chip": "ym2612"
    },
    {
      "channel": 2,
      "note": 41,
      "start": 8.6405,
      "duration": 0.1849,
      "velocity": 122,
      "chip": "ym2612"
    },
    {
      "channel": 0,
      "note": 91,
      "start": 8.6423,
      "duration": 0.0125,
      "velocity": 95,
      "chip": "ym2612"
    },
    {
      "channel": 5,
      "note": 91,
      "start": 8.6453,
      "duration": 0.0119,
      "velocity": 95,
      "chip": "ym2612"
    },
    {
      "channel": 0,
      "note": 91,
      "start": 8.6547,
      "duration": 0.0125,
      "velocity": 95,
      "chip": "ym2612"
    },
    {
      "channel": 5,
      "note": 91,
      "start": 8.6572,
      "duration": 0.0124,
      "velocity": 95,
      "chip": "ym2612"
    },
    {
      "channel": 0,
      "note": 91,
      "start": 8.6672,
      "duration": 0.0125,
      "velocity": 95,
      "chip": "ym2612"
    },
    {
      "channel": 5,
      "note": 91,
      "start": 8.6696,
      "duration": 0.0125,
      "velocity": 95,
      "chip": "ym2612"
    },
    {
      "channel": 0,
      "note": 91,
      "start": 8.6798,
      "duration": 0.0124,
      "velocity": 95,
      "chip": "ym2612"
    },
    {
      "channel": 5,
      "note": 91,
      "start": 8.6821,
      "duration": 0.0131,
      "velocity": 95,
      "chip": "ym2612"
    },
    {
      "channel": 0,
      "note": 91,
      "start": 8.6922,
      "duration": 0.0125,
      "velocity": 95,
      "chip": "ym2612"
    },
    {
      "channel": 5,
      "note": 91,
      "start": 8.6952,
      "duration": 0.0119,
      "velocity": 95,
      "chip": "ym2612"
    },
    {
      "channel": 0,
      "note": 91,
      "start": 8.7047,
      "duration": 0.0125,
      "velocity": 95,
      "chip": "ym2612"
    },
    {
      "channel": 5,
      "note": 91,
      "start": 8.7071,
      "duration": 0.0136,
      "velocity": 95,
      "chip": "ym2612"
    },
    {
      "channel": 0,
      "note": 91,
      "start": 8.7171,
      "duration": 0.0125,
      "velocity": 95,
      "chip": "ym2612"
    },
    {
      "channel": 4,
      "note": 67,
      "start": 8.7195,
      "duration": 0.1013,
      "velocity": 74,
      "chip": "ym2612"
    },
    {
      "channel": 5,
      "note": 91,
      "start": 8.7207,
      "duration": 0.0113,
      "velocity": 95,
      "chip": "ym2612"
    },
    {
      "channel": 0,
      "note": 91,
      "start": 8.7297,
      "duration": 0.0125,
      "velocity": 95,
      "chip": "ym2612"
    },
    {
      "channel": 5,
      "note": 91,
      "start": 8.732,
      "duration": 0.0131,
      "velocity": 95,
      "chip": "ym2612"
    },
    {
      "channel": 0,
      "note": 91,
      "start": 8.7422,
      "duration": 0.0124,
      "velocity": 95,
      "chip": "ym2612"
    },
    {
      "channel": 5,
      "note": 91,
      "start": 8.7451,
      "duration": 0.0119,
      "velocity": 95,
      "chip": "ym2612"
    },
    {
      "channel": 0,
      "note": 91,
      "start": 8.7546,
      "duration": 0.0125,
      "velocity": 95,
      "chip": "ym2612"
    },
    {
      "channel": 5,
      "note": 91,
      "start": 8.757,
      "duration": 0.0125,
      "velocity": 95,
      "chip": "ym2612"
    },
    {
      "channel": 0,
      "note": 91,
      "start": 8.7671,
      "duration": 0.0125,
      "velocity": 95,
      "chip": "ym2612"
    },
    {
      "channel": 5,
      "note": 91,
      "start": 8.7696,
      "duration": 0.0125,
      "velocity": 95,
      "chip": "ym2612"
    },
    {
      "channel": 0,
      "note": 91,
      "start": 8.7796,
      "duration": 0.0125,
      "velocity": 95,
      "chip": "ym2612"
    },
    {
      "channel": 5,
      "note": 91,
      "start": 8.782,
      "duration": 0.013,
      "velocity": 95,
      "chip": "ym2612"
    },
    {
      "channel": 0,
      "note": 91,
      "start": 8.7921,
      "duration": 0.0125,
      "velocity": 95,
      "chip": "ym2612"
    },
    {
      "channel": 5,
      "note": 91,
      "start": 8.7951,
      "duration": 0.0119,
      "velocity": 95,
      "chip": "ym2612"
    },
    {
      "channel": 0,
      "note": 91,
      "start": 8.8046,
      "duration": 0.0124,
      "velocity": 95,
      "chip": "ym2612"
    },
    {
      "channel": 5,
      "note": 91,
      "start": 8.807,
      "duration": 0.0156,
      "velocity": 95,
      "chip": "ym2612"
    },
    {
      "channel": 0,
      "note": 91,
      "start": 8.817,
      "duration": 0.0134,
      "velocity": 95,
      "chip": "ym2612"
    },
    {
      "channel": 1,
      "note": 63,
      "start": 8.8185,
      "duration": 0.0878,
      "velocity": 81,
      "chip": "ym2612"
    },
    {
      "channel": 4,
      "note": 68,
      "start": 8.8213,
      "duration": 0.0878,
      "velocity": 74,
      "chip": "ym2612"
    },
    {
      "channel": 5,
      "note": 91,
      "start": 8.8226,
      "duration": 0.0103,
      "velocity": 95,
      "chip": "ym2612"
    },
    {
      "channel": 2,
      "note": 40,
      "start": 8.8287,
      "duration": 0.0055,
      "velocity": 114,
      "chip": "ym2612"
    },
    {
      "channel": 0,
      "note": 91,
      "start": 8.8304,
      "duration": 0.0125,
      "velocity": 95,
      "chip": "ym2612"
    },
    {
      "channel": 5,
      "note": 91,
      "start": 8.8329,
      "duration": 0.0131,
      "velocity": 95,
      "chip": "ym2612"
    },
    {
      "channel": 2,
      "note": 40,
      "start": 8.8341,
      "duration": 0.0131,
      "velocity": 114,
      "chip": "ym2612"
    },
    {
      "channel": 0,
      "note": 91,
      "start": 8.8429,
      "duration": 0.0125,
      "velocity": 95,
      "chip": "ym2612"
    },
    {
      "channel": 5,
      "note": 91,
      "start": 8.846,
      "duration": 0.0118,
      "velocity": 95,
      "chip": "ym2612"
    },
    {
      "channel": 2,
      "note": 40,
      "start": 8.8472,
      "duration": 0.0122,
      "velocity": 114,
      "chip": "ym2612"
    },
    {
      "channel": 0,
      "note": 91,
      "start": 8.8554,
      "duration": 0.0125,
      "velocity": 95,
      "chip": "ym2612"
    },
    {
      "channel": 5,
      "note": 91,
      "start": 8.8578,
      "duration": 0.0125,
      "velocity": 95,
      "chip": "ym2612"
    },
    {
      "channel": 2,
      "note": 40,
      "start": 8.8595,
      "duration": 0.0121,
      "velocity": 114,
      "chip": "ym2612"
    },
    {
      "channel": 0,
      "note": 91,
      "start": 8.8679,
      "duration": 0.0125,
      "velocity": 95,
      "chip": "ym2612"
    },
    {
      "channel": 5,
      "note": 91,
      "start": 8.8703,
      "duration": 0.0125,
      "velocity": 95,
      "chip": "ym2612"
    },
    {
      "channel": 2,
      "note": 40,
      "start": 8.8716,
      "duration": 0.0125,
      "velocity": 114,
      "chip": "ym2612"
    },
    {
      "channel": 0,
      "note": 91,
      "start": 8.8804,
      "duration": 0.0124,
      "velocity": 95,
      "chip": "ym2612"
    },
    {
      "channel": 5,
      "note": 91,
      "start": 8.8828,
      "duration": 0.0131,
      "velocity": 95,
      "chip": "ym2612"
    },
    {
      "channel": 2,
      "note": 40,
      "start": 8.8841,
      "duration": 0.013,
      "velocity": 114,
      "chip": "ym2612"
    },
    {
      "channel": 0,
      "note": 91,
      "start": 8.8928,
      "duration": 0.0125,
      "velocity": 95,
      "chip": "ym2612"
    },
    {
      "channel": 5,
      "note": 91,
      "start": 8.8959,
      "duration": 0.0153,
      "velocity": 95,
      "chip": "ym2612"
    },
    {
      "channel": 2,
      "note": 40,
      "start": 8.8971,
      "duration": 0.0155,
      "velocity": 114,
      "chip": "ym2612"
    },
    {
      "channel": 0,
      "note": 91,
      "start": 8.9054,
      "duration": 0.0125,
      "velocity": 95,
      "chip": "ym2612"
    },
    {
      "channel": 1,
      "note": 63,
      "start": 8.9068,
      "duration": 0.0994,
      "velocity": 81,
      "chip": "ym2612"
    },
    {
      "channel": 4,
      "note": 65,
      "start": 8.9096,
      "duration": 0.1002,
      "velocity": 74,
      "chip": "ym2612"
    },
    {
      "channel": 5,
      "note": 91,
      "start": 8.9112,
      "duration": 0.0091,
      "velocity": 95,
      "chip": "ym2612"
    },
    {
      "channel": 0,
      "note": 91,
      "start": 8.9178,
      "duration": 0.0125,
      "velocity": 95,
      "chip": "ym2612"
    },
    {
      "channel": 5,
      "note": 91,
      "start": 8.9203,
      "duration": 0.0124,
      "velocity": 95,
      "chip": "ym2612"
    },
    {
      "channel": 2,
      "note": 40,
      "start": 8.9225,
      "duration": 0.0115,
      "velocity": 114,
      "chip": "ym2612"
    },
    {
      "channel": 0,
      "note": 91,
      "start": 8.9304,
      "duration": 0.0124,
      "velocity": 95,
      "chip": "ym2612"
    },
    {
      "channel": 5,
      "note": 91,
      "start": 8.9327,
      "duration": 0.0131,
      "velocity": 95,
      "chip": "ym2612"
    },
    {
      "channel": 2,
      "note": 40,
      "start": 8.934,
      "duration": 0.0131,
      "velocity": 114,
      "chip": "ym2612"
    },
    {
      "channel": 0,
      "note": 91,
      "start": 8.9428,
      "duration": 0.0125,
      "velocity": 95,
      "chip": "ym2612"
    },
    {
      "channel": 5,
      "note": 91,
      "start": 8.9458,
      "duration": 0.0118,
      "velocity": 95,
      "chip": "ym2612"
    },
    {
      "channel": 2,
      "note": 40,
      "start": 8.9471,
      "duration": 0.0123,
      "velocity": 114,
      "chip": "ym2612"
    },
    {
      "channel": 0,
      "note": 91,
      "start": 8.9553,
      "duration": 0.0125,
      "velocity": 95,
      "chip": "ym2612"
    },
    {
      "channel": 5,
      "note": 91,
      "start": 8.9577,
      "duration": 0.0125,
      "velocity": 95,
      "chip": "ym2612"
    },
    {
      "channel": 2,
      "note": 40,
      "start": 8.9593,
      "duration": 0.0122,
      "velocity": 114,
      "chip": "ym2612"
    },
    {
      "channel": 0,
      "note": 91,
      "start": 8.9678,
      "duration": 0.0125,
      "velocity": 95,
      "chip": "ym2612"
    },
    {
      "channel": 5,
      "note": 91,
      "start": 8.9702,
      "duration": 0.0125,
      "velocity": 95,
      "chip": "ym2612"
    },
    {
      "channel": 2,
      "note": 40,
      "start": 8.9715,
      "duration": 0.0125,
      "velocity": 114,
      "chip": "ym2612"
    },
    {
      "channel": 0,
      "note": 91,
      "start": 8.9802,
      "duration": 0.0125,
      "velocity": 95,
      "chip": "ym2612"
    },
    {
      "channel": 5,
      "note": 91,
      "start": 8.9827,
      "duration": 0.0131,
      "velocity": 95,
      "chip": "ym2612"
    },
    {
      "channel": 2,
      "note": 40,
      "start": 8.9839,
      "duration": 0.0131,
      "velocity": 114,
      "chip": "ym2612"
    },
    {
      "channel": 0,
      "note": 91,
      "start": 8.9927,
      "duration": 0.0125,
      "velocity": 95,
      "chip": "ym2612"
    },
    {
      "channel": 5,
      "note": 91,
      "start": 8.9958,
      "duration": 0.0163,
      "velocity": 95,
      "chip": "ym2612"
    },
    {
      "channel": 2,
      "note": 40,
      "start": 8.9971,
      "duration": 0.0161,
      "velocity": 114,
      "chip": "ym2612"
    },
    {
      "channel": 0,
      "note": 91,
      "start": 9.0052,
      "duration": 0.0125,
      "velocity": 95,
      "chip": "ym2612"
    },
    {
      "channel": 1,
      "note": 51,
      "start": 9.0066,
      "duration": 0.1871,
      "velocity": 81,
      "chip": "ym2612"
    },
    {
      "channel": 4,
      "note": 61,
      "start": 9.0103,
      "duration": 0.0848,
      "velocity": 74,
      "chip": "ym2612"
    },
    {
      "channel": 5,
      "note": 91,
      "start": 9.0121,
      "duration": 0.008,
      "velocity": 95,
      "chip": "ym2612"
    },
    {
      "channel": 0,
      "note": 91,
      "start": 9.0177,
      "duration": 0.0125,
      "velocity": 95,
      "chip": "ym2612"
    },
    {
      "channel": 5,
      "note": 91,
      "start": 9.0201,
      "duration": 0.0125,
      "velocity": 95,
      "chip": "ym2612"
    },
    {
      "channel": 2,
      "note": 40,
      "start": 9.0224,
      "duration": 0.0115,
      "velocity": 114,
      "chip": "ym2612"
    },
    {
      "channel": 0,
      "note": 91,
      "start": 9.0302,
      "duration": 0.0125,
      "velocity": 95,
      "chip": "ym2612"
    },
    {
      "channel": 5,
      "note": 91,
      "start": 9.0326,
      "duration": 0.0131,
      "velocity": 95,
      "chip": "ym2612"
    },
    {
      "channel": 2,
      "note": 40,
      "start": 9.0339,
      "duration": 0.013,
      "velocity": 114,
      "chip": "ym2612"
    },
    {
      "channel": 0,
      "note": 91,
      "start": 9.0427,
      "duration": 0.0125,
      "velocity": 95,
      "chip": "ym2612"
    },
    {
      "channel": 5,
      "note": 91,
      "start": 9.0457,
      "duration": 0.0118,
      "velocity": 95,
      "chip": "ym2612"
    },
    {
      "channel": 2,
      "note": 40,
      "start": 9.0469,
      "duration": 0.0123,
      "velocity": 114,
      "chip": "ym2612"
    },
    {
      "channel": 0,
      "note": 91,
      "start": 9.0552,
      "duration": 0.0125,
      "velocity": 95,
      "chip": "ym2612"
    },
    {
      "channel": 5,
      "note": 91,
      "start": 9.0575,
      "duration": 0.0125,
      "velocity": 95,
      "chip": "ym2612"
    },
    {
      "channel": 2,
      "note": 40,
      "start": 9.0592,
      "duration": 0.0122,
      "velocity": 114,
      "chip": "ym2612"
    },
    {
      "channel": 0,
      "note": 91,
      "start": 9.0677,
      "duration": 0.0125,
      "velocity": 95,
      "chip": "ym2612"
    },
    {
      "channel": 5,
      "note": 91,
      "start": 9.0701,
      "duration": 0.0125,
      "velocity": 95,
      "chip": "ym2612"
    },
    {
      "channel": 2,
      "note": 40,
      "start": 9.0713,
      "duration": 0.0125,
      "velocity": 114,
      "chip": "ym2612"
    },
    {
      "channel": 0,
      "note": 91,
      "start": 9.0802,
      "duration": 0.0124,
      "velocity": 95,
      "chip": "ym2612"
    },
    {
      "channel": 5,
      "note": 91,
      "start": 9.0825,
      "duration": 0.0142,
      "velocity": 95,
      "chip": "ym2612"
    },
    {
      "channel": 2,
      "note": 40,
      "start": 9.0838,
      "duration": 0.0142,
      "velocity": 114,
      "chip": "ym2612"
    },
    {
      "channel": 0,
      "note": 91,
      "start": 9.0926,
      "duration": 0.0125,
      "velocity": 95,
      "chip": "ym2612"
    },
    {
      "channel": 4,
      "note": 73,
      "start": 9.0956,
      "duration": 0.1016,
      "velocity": 74,
      "chip": "ym2612"
    },
    {
      "channel": 5,
      "note": 91,
      "start": 9.0968,
      "duration": 0.0107,
      "velocity": 95,
      "chip": "ym2612"
    },
    {
      "channel": 2,
      "note": 40,
      "start": 9.098,
      "duration": 0.0107,
      "velocity": 114,
      "chip": "ym2612"
    },
    {
      "channel": 0,
      "note": 91,
      "start": 9.1051,
      "duration": 0.0125,
      "velocity": 95,
      "chip": "ym2612"
    },
    {
      "channel": 5,
      "note": 91,
      "start": 9.1075,
      "duration": 0.0125,
      "velocity": 95,
      "chip": "ym2612"
    },
    {
      "channel": 2,
      "note": 40,
      "start": 9.1088,
      "duration": 0.0125,
      "velocity": 114,
      "chip": "ym2612"
    },
    {
      "channel": 0,
      "note": 91,
      "start": 9.1176,
      "duration": 0.0125,
      "velocity": 95,
      "chip": "ym2612"
    },
    {
      "channel": 5,
      "note": 91,
      "start": 9.12,
      "duration": 0.0125,
      "velocity": 95,
      "chip": "ym2612"
    },
    {
      "channel": 2,
      "note": 40,
      "start": 9.1213,
      "duration": 0.0125,
      "velocity": 114,
      "chip": "ym2612"
    },
    {
      "channel": 0,
      "note": 91,
      "start": 9.1301,
      "duration": 0.0124,
      "velocity": 95,
      "chip": "ym2612"
    },
    {
      "channel": 5,
      "note": 91,
      "start": 9.1325,
      "duration": 0.0131,
      "velocity": 95,
      "chip": "ym2612"
    },
    {
      "channel": 2,
      "note": 40,
      "start": 9.1337,
      "duration": 0.013,
      "velocity": 114,
      "chip": "ym2612"
    },
    {
      "channel": 0,
      "note": 91,
      "start": 9.1425,
      "duration": 0.0125,
      "velocity": 95,
      "chip": "ym2612"
    },
    {
      "channel": 5,
      "note": 91,
      "start": 9.1456,
      "duration": 0.0118,
      "velocity": 95,
      "chip": "ym2612"
    },
    {
      "channel": 2,
      "note": 39,
      "start": 9.1468,
      "duration": 0.0119,
      "velocity": 114,
      "chip": "ym2612"
    },
    {
      "channel": 0,
      "note": 91,
      "start": 9.1551,
      "duration": 0.0125,
      "velocity": 95,
      "chip": "ym2612"
    },
    {
      "channel": 5,
      "note": 91,
      "start": 9.1574,
      "duration": 0.0125,
      "velocity": 95,
      "chip": "ym2612"
    },
    {
      "channel": 2,
      "note": 39,
      "start": 9.1587,
      "duration": 0.0125,
      "velocity": 114,
      "chip": "ym2612"
    },
    {
      "channel": 0,
      "note": 91,
      "start": 9.1675,
      "duration": 0.0125,
      "velocity": 95,
      "chip": "ym2612"
    },
    {
      "channel": 5,
      "note": 91,
      "start": 9.1699,
      "duration": 0.0125,
      "velocity": 95,
      "chip": "ym2612"
    },
    {
      "channel": 2,
      "note": 39,
      "start": 9.1712,
      "duration": 0.0124,
      "velocity": 114,
      "chip": "ym2612"
    },
    {
      "channel": 0,
      "note": 91,
      "start": 9.18,
      "duration": 0.0123,
      "velocity": 95,
      "chip": "ym2612"
    },
    {
      "channel": 5,
      "note": 91,
      "start": 9.1824,
      "duration": 0.0165,
      "velocity": 95,
      "chip": "ym2612"
    },
    {
      "channel": 0,
      "note": 87,
      "start": 9.1928,
      "duration": 0.1867,
      "velocity": 95,
      "chip": "ym2612"
    },
    {
      "channel": 1,
      "note": 51,
      "start": 9.1948,
      "duration": 0.1861,
      "velocity": 81,
      "chip": "ym2612"
    },
    {
      "channel": 4,
      "note": 75,
      "start": 9.1977,
      "duration": 0.0831,
      "velocity": 74,
      "chip": "ym2612"
    },
    {
      "channel": 5,
      "note": 91,
      "start": 9.1989,
      "duration": 0.0076,
      "velocity": 95,
      "chip": "ym2612"
    },
    {
      "channel": 2,
      "note": 40,
      "start": 9.2016,
      "duration": 0.0062,
      "velocity": 114,
      "chip": "ym2612"
    },
    {
      "channel": 5,
      "note": 91,
      "start": 9.2065,
      "duration": 0.0125,
      "velocity": 95,
      "chip": "ym2612"
    },
    {
      "channel": 2,
      "note": 40,
      "start": 9.2077,
      "duration": 0.0125,
      "velocity": 114,
      "chip": "ym2612"
    },
    {
      "channel": 5,
      "note": 91,
      "start": 9.219,
      "duration": 0.0125,
      "velocity": 95,
      "chip": "ym2612"
    },
    {
      "channel": 2,
      "note": 40,
      "start": 9.2203,
      "duration": 0.0128,
      "velocity": 114,
      "chip": "ym2612"
    },
    {
      "channel": 5,
      "note": 91,
      "start": 9.2315,
      "duration": 0.0128,
      "velocity": 95,
      "chip": "ym2612"
    },
    {
      "channel": 2,
      "note": 40,
      "start": 9.233,
      "duration": 0.0127,
      "velocity": 114,
      "chip": "ym2612"
    },
    {
      "channel": 5,
      "note": 91,
      "start": 9.2442,
      "duration": 0.0122,
      "velocity": 95,
      "chip": "ym2612"
    },
    {
      "channel": 2,
      "note": 40,
      "start": 9.2458,
      "duration": 0.0119,
      "velocity": 114,
      "chip": "ym2612"
    },
    {
      "channel": 5,
      "note": 91,
      "start": 9.2564,
      "duration": 0.0125,
      "velocity": 95,
      "chip": "ym2612"
    },
    {
      "channel": 2,
      "note": 40,
      "start": 9.2577,
      "duration": 0.0125,
      "velocity": 114,
      "chip": "ym2612"
    },
    {
      "channel": 5,
      "note": 91,
      "start": 9.2689,
      "duration": 0.0136,
      "velocity": 95,
      "chip": "ym2612"
    },
    {
      "channel": 2,
      "note": 40,
      "start": 9.2701,
      "duration": 0.0136,
      "velocity": 114,
      "chip": "ym2612"
    },
    {
      "channel": 4,
      "note": 61,
      "start": 9.2813,
      "duration": 0.1025,
      "velocity": 74,
      "chip": "ym2612"
    },
    {
      "channel": 5,
      "note": 91,
      "start": 9.2825,
      "duration": 0.0117,
      "velocity": 95,
      "chip": "ym2612"
    },
    {
      "channel": 2,
      "note": 40,
      "start": 9.2837,
      "duration": 0.012,
      "velocity": 114,
      "chip": "ym2612"
    },
    {
      "channel": 5,
      "note": 91,
      "start": 9.2942,
      "duration": 0.0122,
      "velocity": 95,
      "chip": "ym2612"
    },
    {
      "channel": 2,
      "note": 40,
      "start": 9.2957,
      "duration": 0.0119,
      "velocity": 114,
      "chip": "ym2612"
    },
    {
      "channel": 5,
      "note": 91,
      "start": 9.3063,
      "duration": 0.0125,
      "velocity": 95,
      "chip": "ym2612"
    },
    {
      "channel": 2,
      "note": 40,
      "start": 9.3076,
      "duration": 0.0125,
      "velocity": 114,
      "chip": "ym2612"
    },
    {
      "channel": 5,
      "note": 91,
      "start": 9.3188,
      "duration": 0.0123,
      "velocity": 95,
      "chip": "ym2612"
    },
    {
      "channel": 2,
      "note": 39,
      "start": 9.3201,
      "duration": 0.0129,
      "velocity": 114,
      "chip": "ym2612"
    },
    {
      "channel": 5,
      "note": 87,
      "start": 9.3317,
      "duration": 0.1867,
      "velocity": 95,
      "chip": "ym2612"
    },
    {
      "channel": 2,
      "note": 39,
      "start": 9.3329,
      "duration": 0.0116,
      "velocity": 114,
      "chip": "ym2612"
    },
    {
      "channel": 2,
      "note": 39,
      "start": 9.3445,
      "duration": 0.0121,
      "velocity": 114,
      "chip": "ym2612"
    },
    {
      "channel": 0,
      "note": 82,
      "start": 9.38,
      "duration": 0.1868,
      "velocity": 95,
      "chip": "ym2612"
    },
    {
      "channel": 1,
      "note": 51,
      "start": 9.3814,
      "duration": 0.1869,
      "velocity": 81,
      "chip": "ym2612"
    },
    {
      "channel": 4,
      "note": 72,
      "start": 9.3843,
      "duration": 0.0846,
      "velocity": 74,
      "chip": "ym2612"
    },
    {
      "channel": 2,
      "note": 41,
      "start": 9.39,
      "duration": 0.0825,
      "velocity": 122,
      "chip": "ym2612"
    },
    {
      "channel": 4,
      "note": 73,
      "start": 9.4694,
      "duration": 0.101,
      "velocity": 74,
      "chip": "ym2612"
    },
    {
      "channel": 2,
      "note": 40,
      "start": 9.4752,
      "duration": 0.0063,
      "velocity": 114,
      "chip": "ym2612"
    },
    {
      "channel": 2,
      "note": 40,
      "start": 9.4815,
      "duration": 0.0128,
      "velocity": 114,
      "chip": "ym2612"
    },
    {
      "channel": 2,
      "note": 40,
      "start": 9.4943,
      "duration": 0.0125,
      "velocity": 114,
      "chip": "ym2612"
    },
    {
      "channel": 2,
      "note": 40,
      "start": 9.5068,
      "duration": 0.0132,
      "velocity": 114,
      "chip": "ym2612"
    },
    {
      "channel": 5,
      "note": 82,
      "start": 9.5188,
      "duration": 0.187,
      "velocity": 95,
      "chip": "ym2612"
    },
    {
      "channel": 2,
      "note": 40,
      "start": 9.5201,
      "duration": 0.0114,
      "velocity": 114,
      "chip": "ym2612"
    },
    {
      "channel": 2,
      "note": 40,
      "start": 9.5315,
      "duration": 0.0128,
      "velocity": 114,
      "chip": "ym2612"
    },
    {
      "channel": 2,
      "note": 40,
      "start": 9.5442,
      "duration": 0.0122,
      "velocity": 114,
      "chip": "ym2612"
    },
    {
      "channel": 2,
      "note": 40,
      "start": 9.5564,
      "duration": 0.016,
      "velocity": 114,
      "chip": "ym2612"
    },
    {
      "channel": 0,
      "note": 87,
      "start": 9.5673,
      "duration": 0.1869,
      "velocity": 95,
      "chip": "ym2612"
    },
    {
      "channel": 1,
      "note": 51,
      "start": 9.5687,
      "duration": 0.187,
      "velocity": 81,
      "chip": "ym2612"
    },
    {
      "channel": 4,
      "note": 61,
      "start": 9.5708,
      "duration": 0.0847,
      "velocity": 74,
      "chip": "ym2612"
    },
    {
      "channel": 2,
      "note": 40,
      "start": 9.5724,
      "duration": 0.009,
      "velocity": 114,
      "chip": "ym2612"
    },
    {
      "channel": 2,
      "note": 40,
      "start": 9.5814,
      "duration": 0.0129,
      "velocity": 114,
      "chip": "ym2612"
    },
    {
      "channel": 2,
      "note": 39,
      "start": 9.5942,
      "duration": 0.0122,
      "velocity": 114,
      "chip": "ym2612"
    },
    {
      "channel": 2,
      "note": 39,
      "start": 9.6064,
      "duration": 0.0125,
      "velocity": 114,
      "chip": "ym2612"
    },
    {
      "channel": 2,
      "note": 39,
      "start": 9.6189,
      "duration": 0.0125,
      "velocity": 114,
      "chip": "ym2612"
    },
    {
      "channel": 4,
      "note": 70,
      "start": 9.6559,
      "duration": 0.1026,
      "velocity": 74,
      "chip": "ym2612"
    },
    {
      "channel": 5,
      "note": 87,
      "start": 9.7063,
      "duration": 0.187,
      "velocity": 95,
      "chip": "ym2612"
    },
    {
      "channel": 0,
      "note": 91,
      "start": 9.7547,
      "duration": 0.1871,
      "velocity": 95,
      "chip": "ym2612"
    },
    {
      "channel": 1,
      "note": 51,
      "start": 9.7561,
      "duration": 0.1871,
      "velocity": 81,
      "chip": "ym2612"
    },
    {
      "channel": 4,
      "note": 72,
      "start": 9.759,
      "duration": 0.084,
      "velocity": 74,
      "chip": "ym2612"
    },
    {
      "channel": 2,
      "note": 40,
      "start": 9.7626,
      "duration": 0.0063,
      "velocity": 114,
      "chip": "ym2612"
    },
    {
      "channel": 2,
      "note": 40,
      "start": 9.7689,
      "duration": 0.0125,
      "velocity": 114,
      "chip": "ym2612"
    },
    {
      "channel": 2,
      "note": 40,
      "start": 9.7814,
      "duration": 0.0135,
      "velocity": 114,
      "chip": "ym2612"
    },
    {
      "channel": 2,
      "note": 40,
      "start": 9.7949,
      "duration": 0.0115,
      "velocity": 114,
      "chip": "ym2612"
    },
    {
      "channel": 2,
      "note": 40,
      "start": 9.8063,
      "duration": 0.0125,
      "velocity": 114,
      "chip": "ym2612"
    },
    {
      "channel": 2,
      "note": 40,
      "start": 9.8189,
      "duration": 0.0125,
      "velocity": 114,
      "chip": "ym2612"
    },
    {
      "channel": 2,
      "note": 40,
      "start": 9.8314,
      "duration": 0.0142,
      "velocity": 114,
      "chip": "ym2612"
    },
    {
      "channel": 4,
      "note": 61,
      "start": 9.8434,
      "duration": 0.1033,
      "velocity": 74,
      "chip": "ym2612"
    },
    {
      "channel": 2,
      "note": 40,
      "start": 9.8456,
      "duration": 0.0107,
      "velocity": 114,
      "chip": "ym2612"
    },
    {
      "channel": 2,
      "note": 40,
      "start": 9.8563,
      "duration": 0.0125,
      "velocity": 114,
      "chip": "ym2612"
    },
    {
      "channel": 2,
      "note": 40,
      "start": 9.8689,
      "duration": 0.0125,
      "velocity": 114,
      "chip": "ym2612"
    },
    {
      "channel": 2,
      "note": 39,
      "start": 9.8814,
      "duration": 0.0143,
      "velocity": 114,
      "chip": "ym2612"
    },
    {
      "channel": 5,
      "note": 91,
      "start": 9.8937,
      "duration": 0.1871,
      "velocity": 95,
      "chip": "ym2612"
    },
    {
      "channel": 2,
      "note": 39,
      "start": 9.8956,
      "duration": 0.0107,
      "velocity": 114,
      "chip": "ym2612"
    },
    {
      "channel": 2,
      "note": 39,
      "start": 9.9064,
      "duration": 0.0124,
      "velocity": 114,
      "chip": "ym2612"
    },
    {
      "channel": 0,
      "note": 92,
      "start": 9.9423,
      "duration": 0.3745,
      "velocity": 95,
      "chip": "ym2612"
    },
    {
      "channel": 1,
      "note": 63,
      "start": 9.9437,
      "duration": 0.0858,
      "velocity": 81,
      "chip": "ym2612"
    },
    {
      "channel": 4,
      "note": 68,
      "start": 9.9472,
      "duration": 0.0844,
      "velocity": 74,
      "chip": "ym2612"
    },
    {
      "channel": 2,
      "note": 40,
      "start": 9.9502,
      "duration": 0.0062,
      "velocity": 114,
      "chip": "ym2612"
    },
    {
      "channel": 2,
      "note": 40,
      "start": 9.9563,
      "duration": 0.0125,
      "velocity": 114,
      "chip": "ym2612"
    },
    {
      "channel": 2,
      "note": 40,
      "start": 9.9689,
      "duration": 0.0129,
      "velocity": 114,
      "chip": "ym2612"
    },
    {
      "channel": 2,
      "note": 40,
      "start": 9.9818,
      "duration": 0.0125,
      "velocity": 114,
      "chip": "ym2612"
    },
    {
      "channel": 2,
      "note": 40,
      "start": 9.9942,
      "duration": 0.0121,
      "velocity": 114,
      "chip": "ym2612"
    },
    {
      "channel": 2,
      "note": 40,
      "start": 10.0063,
      "duration": 0.0125,
      "velocity": 114,
      "chip": "ym2612"
    },
    {
      "channel": 2,
      "note": 40,
      "start": 10.0189,
      "duration": 0.0148,
      "velocity": 114,
      "chip": "ym2612"
    },
    {
      "channel": 1,
      "note": 63,
      "start": 10.0301,
      "duration": 0.0995,
      "velocity": 81,
      "chip": "ym2612"
    },
    {
      "channel": 4,
      "note": 70,
      "start": 10.0321,
      "duration": 0.1003,
      "velocity": 74,
      "chip": "ym2612"
    },
    {
      "channel": 2,
      "note": 40,
      "start": 10.0337,
      "duration": 0.0106,
      "velocity": 114,
      "chip": "ym2612"
    },
    {
      "channel": 2,
      "note": 40,
      "start": 10.0442,
      "duration": 0.0121,
      "velocity": 114,
      "chip": "ym2612"
    },
    {
      "channel": 2,
      "note": 40,
      "start": 10.0563,
      "duration": 0.0125,
      "velocity": 114,
      "chip": "ym2612"
    },
    {
      "channel": 2,
      "note": 39,
      "start": 10.0689,
      "duration": 0.0138,
      "velocity": 114,
      "chip": "ym2612"
    },
    {
      "channel": 5,
      "note": 92,
      "start": 10.0814,
      "duration": 0.3746,
      "velocity": 95,
      "chip": "ym2612"
    },
    {
      "channel": 2,
      "note": 39,
      "start": 10.0827,
      "duration": 0.0116,
      "velocity": 114,
      "chip": "ym2612"
    },
    {
      "channel": 2,
      "note": 39,
      "start": 10.0942,
      "duration": 0.012,
      "velocity": 114,
      "chip": "ym2612"
    },
    {
      "channel": 1,
      "note": 51,
      "start": 10.1301,
      "duration": 0.0869,
      "velocity": 81,
      "chip": "ym2612"
    },
    {
      "channel": 4,
      "note": 61,
      "start": 10.1329,
      "duration": 0.0862,
      "velocity": 74,
      "chip": "ym2612"
    },
    {
      "channel": 2,
      "note": 41,
      "start": 10.1386,
      "duration": 0.1861,
      "velocity": 122,
      "chip": "ym2612"
    },
    {
      "channel": 1,
      "note": 63,
      "start": 10.2175,
      "duration": 0.1008,
      "velocity": 81,
      "chip": "ym2612"
    },
    {
      "channel": 4,
      "note": 67,
      "start": 10.2196,
      "duration": 0.1015,
      "velocity": 74,
      "chip": "ym2612"
    },
    {
      "channel": 0,
      "note": 91,
      "start": 10.3173,
      "duration": 0.187,
      "velocity": 95,
      "chip": "ym2612"
    },
    {
      "channel": 1,
      "note": 51,
      "start": 10.3187,
      "duration": 0.086,
      "velocity": 81,
      "chip": "ym2612"
    },
    {
      "channel": 4,
      "note": 68,
      "start": 10.3216,
      "duration": 0.086,
      "velocity": 74,
      "chip": "ym2612"
    },
    {
      "channel": 2,
      "note": 40,
      "start": 10.3278,
      "duration": 0.0039,
      "velocity": 114,
      "chip": "ym2612"
    },
    {
      "channel": 2,
      "note": 40,
      "start": 10.3317,
      "duration": 0.0128,
      "velocity": 114,
      "chip": "ym2612"
    },
    {
      "channel": 2,
      "note": 40,
      "start": 10.3445,
      "duration": 0.0125,
      "velocity": 114,
      "chip": "ym2612"
    },
    {
      "channel": 2,
      "note": 40,
      "start": 10.357,
      "duration": 0.0121,
      "velocity": 114,
      "chip": "ym2612"
    },
    {
      "channel": 2,
      "note": 40,
      "start": 10.3691,
      "duration": 0.0125,
      "velocity": 114,
      "chip": "ym2612"
    },
    {
      "channel": 2,
      "note": 40,
      "start": 10.3816,
      "duration": 0.0129,
      "velocity": 114,
      "chip": "ym2612"
    },
    {
      "channel": 2,
      "note": 40,
      "start": 10.3944,
      "duration": 0.0151,
      "velocity": 114,
      "chip": "ym2612"
    },
    {
      "channel": 1,
      "note": 63,
      "start": 10.4052,
      "duration": 0.1005,
      "velocity": 81,
      "chip": "ym2612"
    },
    {
      "channel": 4,
      "note": 65,
      "start": 10.408,
      "duration": 0.1013,
      "velocity": 74,
      "chip": "ym2612"
    },
    {
      "channel": 2,
      "note": 40,
      "start": 10.42,
      "duration": 0.0115,
      "velocity": 114,
      "chip": "ym2612"
    },
    {
      "channel": 2,
      "note": 40,
      "start": 10.4315,
      "duration": 0.0129,
      "velocity": 114,
      "chip": "ym2612"
    },
    {
      "channel": 2,
      "note": 40,
      "start": 10.4444,
      "duration": 0.0137,
      "velocity": 114,
      "chip": "ym2612"
    },
    {
      "channel": 5,
      "note": 91,
      "start": 10.4565,
      "duration": 0.1868,
      "velocity": 95,
      "chip": "ym2612"
    },
    {
      "channel": 2,
      "note": 40,
      "start": 10.4581,
      "duration": 0.0109,
      "velocity": 114,
      "chip": "ym2612"
    },
    {
      "channel": 2,
      "note": 40,
      "start": 10.469,
      "duration": 0.0125,
      "velocity": 114,
      "chip": "ym2612"
    },
    {
      "channel": 2,
      "note": 40,
      "start": 10.4815,
      "duration": 0.0129,
      "velocity": 114,
      "chip": "ym2612"
    },
    {
      "channel": 2,
      "note": 40,
      "start": 10.4943,
      "duration": 0.0176,
      "velocity": 114,
      "chip": "ym2612"
    },
    {
      "channel": 0,
      "note": 89,
      "start": 10.5048,
      "duration": 0.1872,
      "velocity": 95,
      "chip": "ym2612"
    },
    {
      "channel": 1,
      "note": 53,
      "start": 10.5063,
      "duration": 0.1867,
      "velocity": 81,
      "chip": "ym2612"
    },
    {
      "channel": 4,
      "note": 65,
      "start": 10.5099,
      "duration": 0.0831,
      "velocity": 74,
      "chip": "ym2612"
    },
    {
      "channel": 2,
      "note": 40,
      "start": 10.5199,
      "duration": 0.0115,
      "velocity": 114,
      "chip": "ym2612"
    },
    {
      "channel": 2,
      "note": 40,
      "start": 10.5314,
      "duration": 0.0129,
      "velocity": 114,
      "chip": "ym2612"
    },
    {
      "channel": 2,
      "note": 40,
      "start": 10.5442,
      "duration": 0.0125,
      "velocity": 114,
      "chip": "ym2612"
    },
    {
      "channel": 2,
      "note": 40,
      "start": 10.5568,
      "duration": 0.0121,
      "velocity": 114,
      "chip": "ym2612"
    },
    {
      "channel": 2,
      "note": 40,
      "start": 10.5689,
      "duration": 0.0125,
      "velocity": 114,
      "chip": "ym2612"
    },
    {
      "channel": 2,
      "note": 40,
      "start": 10.5814,
      "duration": 0.0143,
      "velocity": 114,
      "chip": "ym2612"
    },
    {
      "channel": 4,
      "note": 75,
      "start": 10.5935,
      "duration": 0.1029,
      "velocity": 74,
      "chip": "ym2612"
    },
    {
      "channel": 2,
      "note": 40,
      "start": 10.5956,
      "duration": 0.0107,
      "velocity": 114,
      "chip": "ym2612"
    },
    {
      "channel": 2,
      "note": 40,
      "start": 10.6064,
      "duration": 0.0125,
      "velocity": 114,
      "chip": "ym2612"
    },
    {
      "channel": 2,
      "note": 40,
      "start": 10.6189,
      "duration": 0.0125,
      "velocity": 114,
      "chip": "ym2612"
    },
    {
      "channel": 2,
      "note": 40,
      "start": 10.6314,
      "duration": 0.0143,
      "velocity": 114,
      "chip": "ym2612"
    },
    {
      "channel": 5,
      "note": 89,
      "start": 10.6437,
      "duration": 0.1873,
      "velocity": 95,
      "chip": "ym2612"
    },
    {
      "channel": 2,
      "note": 39,
      "start": 10.6456,
      "duration": 0.0107,
      "velocity": 114,
      "chip": "ym2612"
    },
    {
      "channel": 2,
      "note": 39,
      "start": 10.6564,
      "duration": 0.0125,
      "velocity": 114,
      "chip": "ym2612"
    },
    {
      "channel": 2,
      "note": 39,
      "start": 10.6689,
      "duration": 0.0125,
      "velocity": 114,
      "chip": "ym2612"
    },
    {
      "channel": 0,
      "note": 89,
      "start": 10.692,
      "duration": 0.3749,
      "velocity": 95,
      "chip": "ym2612"
    },
    {
      "channel": 1,
      "note": 53,
      "start": 10.6934,
      "duration": 0.1861,
      "velocity": 81,
      "chip": "ym2612"
    },
    {
      "channel": 4,
      "note": 77,
      "start": 10.6968,
      "duration": 0.0837,
      "velocity": 74,
      "chip": "ym2612"
    },
    {
      "channel": 2,
      "note": 40,
      "start": 10.6998,
      "duration": 0.0065,
      "velocity": 114,
      "chip": "ym2612"
    },
    {
      "channel": 2,
      "note": 40,
      "start": 10.7063,
      "duration": 0.0125,
      "velocity": 114,
      "chip": "ym2612"
    },
    {
      "channel": 2,
      "note": 40,
      "start": 10.7189,
      "duration": 0.0129,
      "velocity": 114,
      "chip": "ym2612"
    },
    {
      "channel": 2,
      "note": 40,
      "start": 10.7318,
      "duration": 0.0124,
      "velocity": 114,
      "chip": "ym2612"
    },
    {
      "channel": 2,
      "note": 40,
      "start": 10.7442,
      "duration": 0.0122,
      "velocity": 114,
      "chip": "ym2612"
    },
    {
      "channel": 2,
      "note": 40,
      "start": 10.7563,
      "duration": 0.0125,
      "velocity": 114,
      "chip": "ym2612"
    },
    {
      "channel": 2,
      "note": 40,
      "start": 10.7689,
      "duration": 0.0137,
      "velocity": 114,
      "chip": "ym2612"
    },
    {
      "channel": 4,
      "note": 65,
      "start": 10.781,
      "duration": 0.1015,
      "velocity": 74,
      "chip": "ym2612"
    },
    {
      "channel": 2,
      "note": 40,
      "start": 10.7825,
      "duration": 0.0117,
      "velocity": 114,
      "chip": "ym2612"
    },
    {
      "channel": 2,
      "note": 40,
      "start": 10.7942,
      "duration": 0.0121,
      "velocity": 114,
      "chip": "ym2612"
    },
    {
      "channel": 2,
      "note": 40,
      "start": 10.8063,
      "duration": 0.0125,
      "velocity": 114,
      "chip": "ym2612"
    },
    {
      "channel": 2,
      "note": 39,
      "start": 10.8189,
      "duration": 0.0134,
      "velocity": 114,
      "chip": "ym2612"
    },
    {
      "channel": 5,
      "note": 89,
      "start": 10.831,
      "duration": 0.3759,
      "velocity": 95,
      "chip": "ym2612"
    },
    {
      "channel": 2,
      "note": 39,
      "start": 10.8323,
      "duration": 0.012,
      "velocity": 114,
      "chip": "ym2612"
    },
    {
      "channel": 2,
      "note": 39,
      "start": 10.8442,
      "duration": 0.012,
      "velocity": 114,
      "chip": "ym2612"
    },
    {
      "channel": 1,
      "note": 53,
      "start": 10.8801,
      "duration": 0.1878,
      "velocity": 81,
      "chip": "ym2612"
    },
    {
      "channel": 4,
      "note": 72,
      "start": 10.8829,
      "duration": 0.0859,
      "velocity": 74,
      "chip": "ym2612"
    },
    {
      "channel": 2,
      "note": 41,
      "start": 10.8886,
      "duration": 0.0837,
      "velocity": 122,
      "chip": "ym2612"
    },
    {
      "channel": 4,
      "note": 75,
      "start": 10.9692,
      "duration": 0.1007,
      "velocity": 74,
      "chip": "ym2612"
    },
    {
      "channel": 2,
      "note": 40,
      "start": 10.975,
      "duration": 0.0063,
      "velocity": 114,
      "chip": "ym2612"
    },
    {
      "channel": 2,
      "note": 40,
      "start": 10.9814,
      "duration": 0.0129,
      "velocity": 114,
      "chip": "ym2612"
    },
    {
      "channel": 2,
      "note": 40,
      "start": 10.9942,
      "duration": 0.0125,
      "velocity": 114,
      "chip": "ym2612"
    },
    {
      "channel": 2,
      "note": 40,
      "start": 11.0068,
      "duration": 0.0121,
      "velocity": 114,
      "chip": "ym2612"
    },
    {
      "channel": 2,
      "note": 40,
      "start": 11.0189,
      "duration": 0.0125,
      "velocity": 114,
      "chip": "ym2612"
    },
    {
      "channel": 2,
      "note": 40,
      "start": 11.0314,
      "duration": 0.0129,
      "velocity": 114,
      "chip": "ym2612"
    },
    {
      "channel": 2,
      "note": 40,
      "start": 11.0442,
      "duration": 0.0121,
      "velocity": 114,
      "chip": "ym2612"
    },
    {
      "channel": 2,
      "note": 40,
      "start": 11.0563,
      "duration": 0.0157,
      "velocity": 114,
      "chip": "ym2612"
    },
    {
      "channel": 0,
      "note": 89,
      "start": 11.067,
      "duration": 0.0126,
      "velocity": 95,
      "chip": "ym2612"
    },
    {
      "channel": 1,
      "note": 53,
      "start": 11.0684,
      "duration": 0.187,
      "velocity": 81,
      "chip": "ym2612"
    },
    {
      "channel": 4,
      "note": 65,
      "start": 11.0705,
      "duration": 0.0859,
      "velocity": 74,
      "chip": "ym2612"
    },
    {
      "channel": 2,
      "note": 40,
      "start": 11.072,
      "duration": 0.0102,
      "velocity": 114,
      "chip": "ym2612"
    },
    {
      "channel": 0,
      "note": 89,
      "start": 11.0795,
      "duration": 0.0125,
      "velocity": 95,
      "chip": "ym2612"
    },
    {
      "channel": 2,
      "note": 40,
      "start": 11.0823,
      "duration": 0.0131,
      "velocity": 114,
      "chip": "ym2612"
    },
    {
      "channel": 0,
      "note": 89,
      "start": 11.092,
      "duration": 0.0125,
      "velocity": 95,
      "chip": "ym2612"
    },
    {
      "channel": 2,
      "note": 39,
      "start": 11.0954,
      "duration": 0.0119,
      "velocity": 114,
      "chip": "ym2612"
    },
    {
      "channel": 0,
      "note": 89,
      "start": 11.1045,
      "duration": 0.0125,
      "velocity": 95,
      "chip": "ym2612"
    },
    {
      "channel": 2,
      "note": 39,
      "start": 11.1073,
      "duration": 0.0125,
      "velocity": 114,
      "chip": "ym2612"
    },
    {
      "channel": 0,
      "note": 89,
      "start": 11.117,
      "duration": 0.0126,
      "velocity": 95,
      "chip": "ym2612"
    },
    {
      "channel": 2,
      "note": 39,
      "start": 11.1198,
      "duration": 0.0125,
      "velocity": 114,
      "chip": "ym2612"
    },
    {
      "channel": 0,
      "note": 89,
      "start": 11.1295,
      "duration": 0.0125,
      "velocity": 95,
      "chip": "ym2612"
    },
    {
      "channel": 0,
      "note": 89,
      "start": 11.142,
      "duration": 0.0125,
      "velocity": 95,
      "chip": "ym2612"
    },
    {
      "channel": 0,
      "note": 89,
      "start": 11.1545,
      "duration": 0.0125,
      "velocity": 95,
      "chip": "ym2612"
    },
    {
      "channel": 4,
      "note": 70,
      "start": 11.1568,
      "duration": 0.1014,
      "velocity": 74,
      "chip": "ym2612"
    },
    {
      "channel": 0,
      "note": 89,
      "start": 11.167,
      "duration": 0.0125,
      "velocity": 95,
      "chip": "ym2612"
    },
    {
      "channel": 0,
      "note": 89,
      "start": 11.1795,
      "duration": 0.0125,
      "velocity": 95,
      "chip": "ym2612"
    },
    {
      "channel": 0,
      "note": 89,
      "start": 11.192,
      "duration": 0.0125,
      "velocity": 95,
      "chip": "ym2612"
    },
    {
      "channel": 0,
      "note": 89,
      "start": 11.2045,
      "duration": 0.0125,
      "velocity": 95,
      "chip": "ym2612"
    },
    {
      "channel": 5,
      "note": 89,
      "start": 11.2069,
      "duration": 0.0125,
      "velocity": 95,
      "chip": "ym2612"
    },
    {
      "channel": 0,
      "note": 89,
      "start": 11.217,
      "duration": 0.0125,
      "velocity": 95,
      "chip": "ym2612"
    },
    {
      "channel": 5,
      "note": 89,
      "start": 11.2194,
      "duration": 0.0125,
      "velocity": 95,
      "chip": "ym2612"
    },
    {
      "channel": 0,
      "note": 89,
      "start": 11.2295,
      "duration": 0.0125,
      "velocity": 95,
      "chip": "ym2612"
    },
    {
      "channel": 5,
      "note": 89,
      "start": 11.2319,
      "duration": 0.0131,
      "velocity": 95,
      "chip": "ym2612"
    },
    {
      "channel": 0,
      "note": 89,
      "start": 11.242,
      "duration": 0.0125,
      "velocity": 95,
      "chip": "ym2612"
    },
    {
      "channel": 5,
      "note": 89,
      "start": 11.245,
      "duration": 0.0149,
      "velocity": 95,
      "chip": "ym2612"
    },
    {
      "channel": 0,
      "note": 89,
      "start": 11.2545,
      "duration": 0.0125,
      "velocity": 95,
      "chip": "ym2612"
    },
    {
      "channel": 1,
      "note": 53,
      "start": 11.2559,
      "duration": 0.187,
      "velocity": 81,
      "chip": "ym2612"
    },
    {
      "channel": 4,
      "note": 72,
      "start": 11.2588,
      "duration": 0.0854,
      "velocity": 74,
      "chip": "ym2612"
    },
    {
      "channel": 5,
      "note": 89,
      "start": 11.26,
      "duration": 0.0094,
      "velocity": 95,
      "chip": "ym2612"
    },
    {
      "channel": 2,
      "note": 40,
      "start": 11.2632,
      "duration": 0.0074,
      "velocity": 114,
      "chip": "ym2612"
    },
    {
      "channel": 0,
      "note": 89,
      "start": 11.267,
      "duration": 0.0126,
      "velocity": 95,
      "chip": "ym2612"
    },
    {
      "channel": 5,
      "note": 89,
      "start": 11.2694,
      "duration": 0.0125,
      "velocity": 95,
      "chip": "ym2612"
    },
    {
      "channel": 2,
      "note": 40,
      "start": 11.2706,
      "duration": 0.0125,
      "velocity": 114,
      "chip": "ym2612"
    },
    {
      "channel": 0,
      "note": 89,
      "start": 11.2795,
      "duration": 0.0125,
      "velocity": 95,
      "chip": "ym2612"
    },
    {
      "channel": 5,
      "note": 89,
      "start": 11.2819,
      "duration": 0.0131,
      "velocity": 95,
      "chip": "ym2612"
    },
    {
      "channel": 2,
      "note": 40,
      "start": 11.2832,
      "duration": 0.0135,
      "velocity": 114,
      "chip": "ym2612"
    },
    {
      "channel": 0,
      "note": 89,
      "start": 11.292,
      "duration": 0.0125,
      "velocity": 95,
      "chip": "ym2612"
    },
    {
      "channel": 5,
      "note": 89,
      "start": 11.295,
      "duration": 0.0119,
      "velocity": 95,
      "chip": "ym2612"
    },
    {
      "channel": 2,
      "note": 40,
      "start": 11.2967,
      "duration": 0.0115,
      "velocity": 114,
      "chip": "ym2612"
    },
    {
      "channel": 0,
      "note": 89,
      "start": 11.3045,
      "duration": 0.0125,
      "velocity": 95,
      "chip": "ym2612"
    },
    {
      "channel": 5,
      "note": 89,
      "start": 11.3069,
      "duration": 0.0125,
      "velocity": 95,
      "chip": "ym2612"
    },
    {
      "channel": 2,
      "note": 40,
      "start": 11.3082,
      "duration": 0.0124,
      "velocity": 114,
      "chip": "ym2612"
    },
    {
      "channel": 0,
      "note": 89,
      "start": 11.317,
      "duration": 0.0126,
      "velocity": 95,
      "chip": "ym2612"
    },
    {
      "channel": 5,
      "note": 89,
      "start": 11.3194,
      "duration": 0.0125,
      "velocity": 95,
      "chip": "ym2612"
    },
    {
      "channel": 2,
      "note": 40,
      "start": 11.3206,
      "duration": 0.0125,
      "velocity": 114,
      "chip": "ym2612"
    },
    {
      "channel": 0,
      "note": 89,
      "start": 11.3295,
      "duration": 0.0125,
      "velocity": 95,
      "chip": "ym2612"
    },
    {
      "channel": 5,
      "note": 89,
      "start": 11.3319,
      "duration": 0.0142,
      "velocity": 95,
      "chip": "ym2612"
    },
    {
      "channel": 2,
      "note": 40,
      "start": 11.3332,
      "duration": 0.0142,
      "velocity": 114,
      "chip": "ym2612"
    },
    {
      "channel": 0,
      "note": 89,
      "start": 11.342,
      "duration": 0.0125,
      "velocity": 95,
      "chip": "ym2612"
    },
    {
      "channel": 4,
      "note": 65,
      "start": 11.3449,
      "duration": 0.1015,
      "velocity": 74,
      "chip": "ym2612"
    },
    {
      "channel": 5,
      "note": 89,
      "start": 11.3461,
      "duration": 0.0107,
      "velocity": 95,
      "chip": "ym2612"
    },
    {
      "channel": 2,
      "note": 40,
      "start": 11.3474,
      "duration": 0.0108,
      "velocity": 114,
      "chip": "ym2612"
    },
    {
      "channel": 0,
      "note": 89,
      "start": 11.3545,
      "duration": 0.0125,
      "velocity": 95,
      "chip": "ym2612"
    },
    {
      "channel": 5,
      "note": 89,
      "start": 11.3569,
      "duration": 0.0125,
      "velocity": 95,
      "chip": "ym2612"
    },
    {
      "channel": 2,
      "note": 40,
      "start": 11.3582,
      "duration": 0.0124,
      "velocity": 114,
      "chip": "ym2612"
    },
    {
      "channel": 0,
      "note": 89,
      "start": 11.367,
      "duration": 0.0125,
      "velocity": 95,
      "chip": "ym2612"
    },
    {
      "channel": 5,
      "note": 89,
      "start": 11.3694,
      "duration": 0.0125,
      "velocity": 95,
      "chip": "ym2612"
    },
    {
      "channel": 2,
      "note": 40,
      "start": 11.3706,
      "duration": 0.0125,
      "velocity": 114,
      "chip": "ym2612"
    },
    {
      "channel": 0,
      "note": 89,
      "start": 11.3795,
      "duration": 0.0125,
      "velocity": 95,
      "chip": "ym2612"
    },
    {
      "channel": 5,
      "note": 89,
      "start": 11.3819,
      "duration": 0.0131,
      "velocity": 95,
      "chip": "ym2612"
    },
    {
      "channel": 2,
      "note": 39,
      "start": 11.3832,
      "duration": 0.0131,
      "velocity": 114,
      "chip": "ym2612"
    },
    {
      "channel": 0,
      "note": 89,
      "start": 11.392,
      "duration": 0.0125,
      "velocity": 95,
      "chip": "ym2612"
    },
    {
      "channel": 5,
      "note": 89,
      "start": 11.395,
      "duration": 0.0119,
      "velocity": 95,
      "chip": "ym2612"
    },
    {
      "channel": 2,
      "note": 39,
      "start": 11.3963,
      "duration": 0.0119,
      "velocity": 114,
      "chip": "ym2612"
    },
    {
      "channel": 0,
      "note": 89,
      "start": 11.4045,
      "duration": 0.0125,
      "velocity": 95,
      "chip": "ym2612"
    },
    {
      "channel": 5,
      "note": 89,
      "start": 11.4069,
      "duration": 0.0125,
      "velocity": 95,
      "chip": "ym2612"
    },
    {
      "channel": 2,
      "note": 39,
      "start": 11.4082,
      "duration": 0.0124,
      "velocity": 114,
      "chip": "ym2612"
    },
    {
      "channel": 0,
      "note": 89,
      "start": 11.417,
      "duration": 0.0126,
      "velocity": 95,
      "chip": "ym2612"
    },
    {
      "channel": 5,
      "note": 89,
      "start": 11.4194,
      "duration": 0.0125,
      "velocity": 95,
      "chip": "ym2612"
    },
    {
      "channel": 0,
      "note": 89,
      "start": 11.4295,
      "duration": 0.0125,
      "velocity": 95,
      "chip": "ym2612"
    },
    {
      "channel": 5,
      "note": 89,
      "start": 11.4319,
      "duration": 0.0161,
      "velocity": 95,
      "chip": "ym2612"
    },
    {
      "channel": 0,
      "note": 89,
      "start": 11.442,
      "duration": 0.0125,
      "velocity": 95,
      "chip": "ym2612"
    },
    {
      "channel": 1,
      "note": 65,
      "start": 11.4434,
      "duration": 0.087,
      "velocity": 81,
      "chip": "ym2612"
    },
    {
      "channel": 4,
      "note": 68,
      "start": 11.4468,
      "duration": 0.0857,
      "velocity": 74,
      "chip": "ym2612"
    },
    {
      "channel": 5,
      "note": 89,
      "start": 11.448,
      "duration": 0.0088,
      "velocity": 95,
      "chip": "ym2612"
    },
    {
      "channel": 2,
      "note": 40,
      "start": 11.4507,
      "duration": 0.0075,
      "velocity": 114,
      "chip": "ym2612"
    },
    {
      "channel": 0,
      "note": 89,
      "start": 11.4545,
      "duration": 0.0125,
      "velocity": 95,
      "chip": "ym2612"
    },
    {
      "channel": 5,
      "note": 89,
      "start": 11.4569,
      "duration": 0.0125,
      "velocity": 95,
      "chip": "ym2612"
    },
    {
      "channel": 2,
      "note": 40,
      "start": 11.4582,
      "duration": 0.0124,
      "velocity": 114,
      "chip": "ym2612"
    },
    {
      "channel": 0,
      "note": 89,
      "start": 11.467,
      "duration": 0.0126,
      "velocity": 95,
      "chip": "ym2612"
    },
    {
      "channel": 5,
      "note": 89,
      "start": 11.4694,
      "duration": 0.0125,
      "velocity": 95,
      "chip": "ym2612"
    },
    {
      "channel": 2,
      "note": 40,
      "start": 11.4706,
      "duration": 0.0129,
      "velocity": 114,
      "chip": "ym2612"
    },
    {
      "channel": 0,
      "note": 89,
      "start": 11.4795,
      "duration": 0.0125,
      "velocity": 95,
      "chip": "ym2612"
    },
    {
      "channel": 5,
      "note": 89,
      "start": 11.4819,
      "duration": 0.0131,
      "velocity": 95,
      "chip": "ym2612"
    },
    {
      "channel": 2,
      "note": 40,
      "start": 11.4836,
      "duration": 0.0127,
      "velocity": 114,
      "chip": "ym2612"
    },
    {
      "channel": 0,
      "note": 89,
      "start": 11.492,
      "duration": 0.0125,
      "velocity": 95,
      "chip": "ym2612"
    },
    {
      "channel": 5,
      "note": 89,
      "start": 11.495,
      "duration": 0.0119,
      "velocity": 95,
      "chip": "ym2612"
    },
    {
      "channel": 2,
      "note": 40,
      "start": 11.4963,
      "duration": 0.0119,
      "velocity": 114,
      "chip": "ym2612"
    },
    {
      "channel": 0,
      "note": 89,
      "start": 11.5045,
      "duration": 0.0125,
      "velocity": 95,
      "chip": "ym2612"
    },
    {
      "channel": 5,
      "note": 89,
      "start": 11.5069,
      "duration": 0.0125,
      "velocity": 95,
      "chip": "ym2612"
    },
    {
      "channel": 2,
      "note": 40,
      "start": 11.5082,
      "duration": 0.0124,
      "velocity": 114,
      "chip": "ym2612"
    },
    {
      "channel": 0,
      "note": 89,
      "start": 11.517,
      "duration": 0.0126,
      "velocity": 95,
      "chip": "ym2612"
    },
    {
      "channel": 5,
      "note": 89,
      "start": 11.5194,
      "duration": 0.0148,
      "velocity": 95,
      "chip": "ym2612"
    },
    {
      "channel": 2,
      "note": 40,
      "start": 11.5206,
      "duration": 0.0148,
      "velocity": 114,
      "chip": "ym2612"
    },
    {
      "channel": 0,
      "note": 89,
      "start": 11.5295,
      "duration": 0.0125,
      "velocity": 95,
      "chip": "ym2612"
    },
    {
      "channel": 1,
      "note": 65,
      "start": 11.531,
      "duration": 0.0995,
      "velocity": 81,
      "chip": "ym2612"
    },
    {
      "channel": 4,
      "note": 70,
      "start": 11.533,
      "duration": 0.1003,
      "velocity": 74,
      "chip": "ym2612"
    },
    {
      "channel": 5,
      "note": 89,
      "start": 11.5342,
      "duration": 0.0108,
      "velocity": 95,
      "chip": "ym2612"
    },
    {
      "channel": 2,
      "note": 40,
      "start": 11.5355,
      "duration": 0.0108,
      "velocity": 114,
      "chip": "ym2612"
    },
    {
      "channel": 0,
      "note": 89,
      "start": 11.542,
      "duration": 0.0125,
      "velocity": 95,
      "chip": "ym2612"
    },
    {
      "channel": 5,
      "note": 89,
      "start": 11.545,
      "duration": 0.0119,
      "velocity": 95,
      "chip": "ym2612"
    },
    {
      "channel": 2,
      "note": 40,
      "start": 11.5463,
      "duration": 0.0119,
      "velocity": 114,
      "chip": "ym2612"
    },
    {
      "channel": 0,
      "note": 89,
      "start": 11.5545,
      "duration": 0.0125,
      "velocity": 95,
      "chip": "ym2612"
    },
    {
      "channel": 5,
      "note": 89,
      "start": 11.5569,
      "duration": 0.0125,
      "velocity": 95,
      "chip": "ym2612"
    },
    {
      "channel": 2,
      "note": 40,
      "start": 11.5582,
      "duration": 0.0124,
      "velocity": 114,
      "chip": "ym2612"
    },
    {
      "channel": 0,
      "note": 89,
      "start": 11.567,
      "duration": 0.0126,
      "velocity": 95,
      "chip": "ym2612"
    },
    {
      "channel": 5,
      "note": 89,
      "start": 11.5694,
      "duration": 0.0125,
      "velocity": 95,
      "chip": "ym2612"
    },
    {
      "channel": 2,
      "note": 39,
      "start": 11.5706,
      "duration": 0.0125,
      "velocity": 114,
      "chip": "ym2612"
    },
    {
      "channel": 0,
      "note": 89,
      "start": 11.5795,
      "duration": 0.0125,
      "velocity": 95,
      "chip": "ym2612"
    },
    {
      "channel": 5,
      "note": 89,
      "start": 11.5819,
      "duration": 0.0131,
      "velocity": 95,
      "chip": "ym2612"
    },
    {
      "channel": 2,
      "note": 39,
      "start": 11.5832,
      "duration": 0.0131,
      "velocity": 114,
      "chip": "ym2612"
    },
    {
      "channel": 0,
      "note": 89,
      "start": 11.592,
      "duration": 0.0125,
      "velocity": 95,
      "chip": "ym2612"
    },
    {
      "channel": 5,
      "note": 89,
      "start": 11.595,
      "duration": 0.0119,
      "velocity": 95,
      "chip": "ym2612"
    },
    {
      "channel": 2,
      "note": 39,
      "start": 11.5963,
      "duration": 0.0118,
      "velocity": 114,
      "chip": "ym2612"
    },
    {
      "channel": 0,
      "note": 89,
      "start": 11.6045,
      "duration": 0.0125,
      "velocity": 95,
      "chip": "ym2612"
    },
    {
      "channel": 5,
      "note": 89,
      "start": 11.6069,
      "duration": 0.0125,
      "velocity": 95,
      "chip": "ym2612"
    },
    {
      "channel": 0,
      "note": 89,
      "start": 11.617,
      "duration": 0.0126,
      "velocity": 95,
      "chip": "ym2612"
    },
    {
      "channel": 5,
      "note": 89,
      "start": 11.6194,
      "duration": 0.0156,
      "velocity": 95,
      "chip": "ym2612"
    },
    {
      "channel": 0,
      "note": 89,
      "start": 11.6295,
      "duration": 0.0127,
      "velocity": 95,
      "chip": "ym2612"
    },
    {
      "channel": 1,
      "note": 53,
      "start": 11.631,
      "duration": 0.187,
      "velocity": 81,
      "chip": "ym2612"
    },
    {
      "channel": 4,
      "note": 65,
      "start": 11.6338,
      "duration": 0.0852,
      "velocity": 74,
      "chip": "ym2612"
    },
    {
      "channel": 5,
      "note": 89,
      "start": 11.635,
      "duration": 0.0102,
      "velocity": 95,
      "chip": "ym2612"
    },
    {
      "channel": 2,
      "note": 41,
      "start": 11.6404,
      "duration": 0.1849,
      "velocity": 122,
      "chip": "ym2612"
    },
    {
      "channel": 0,
      "note": 89,
      "start": 11.6422,
      "duration": 0.0125,
      "velocity": 95,
      "chip": "ym2612"
    },
    {
      "channel": 5,
      "note": 89,
      "start": 11.6452,
      "duration": 0.0119,
      "velocity": 95,
      "chip": "ym2612"
    },
    {
      "channel": 0,
      "note": 89,
      "start": 11.6547,
      "duration": 0.0125,
      "velocity": 95,
      "chip": "ym2612"
    },
    {
      "channel": 5,
      "note": 89,
      "start": 11.6571,
      "duration": 0.0125,
      "velocity": 95,
      "chip": "ym2612"
    },
    {
      "channel": 0,
      "note": 89,
      "start": 11.6672,
      "duration": 0.0125,
      "velocity": 95,
      "chip": "ym2612"
    },
    {
      "channel": 5,
      "note": 89,
      "start": 11.6696,
      "duration": 0.0125,
      "velocity": 95,
      "chip": "ym2612"
    },
    {
      "channel": 0,
      "note": 89,
      "start": 11.6797,
      "duration": 0.0125,
      "velocity": 95,
      "chip": "ym2612"
    },
    {
      "channel": 5,
      "note": 89,
      "start": 11.6821,
      "duration": 0.0131,
      "velocity": 95,
      "chip": "ym2612"
    },
    {
      "channel": 0,
      "note": 89,
      "start": 11.6922,
      "duration": 0.0125,
      "velocity": 95,
      "chip": "ym2612"
    },
    {
      "channel": 5,
      "note": 89,
      "start": 11.6952,
      "duration": 0.0118,
      "velocity": 95,
      "chip": "ym2612"
    },
    {
      "channel": 0,
      "note": 89,
      "start": 11.7047,
      "duration": 0.0125,
      "velocity": 95,
      "chip": "ym2612"
    },
    {
      "channel": 5,
      "note": 89,
      "start": 11.707,
      "duration": 0.0137,
      "velocity": 95,
      "chip": "ym2612"
    },
    {
      "channel": 0,
      "note": 89,
      "start": 11.7171,
      "duration": 0.0125,
      "velocity": 95,
      "chip": "ym2612"
    },
    {
      "channel": 4,
      "note": 67,
      "start": 11.7195,
      "duration": 0.1013,
      "velocity": 74,
      "chip": "ym2612"
    },
    {
      "channel": 5,
      "note": 89,
      "start": 11.7207,
      "duration": 0.0113,
      "velocity": 95,
      "chip": "ym2612"
    },
    {
      "channel": 0,
      "note": 89,
      "start": 11.7296,
      "duration": 0.0125,
      "velocity": 95,
      "chip": "ym2612"
    },
    {
      "channel": 5,
      "note": 89,
      "start": 11.732,
      "duration": 0.0131,
      "velocity": 95,
      "chip": "ym2612"
    },
    {
      "channel": 0,
      "note": 89,
      "start": 11.7421,
      "duration": 0.0125,
      "velocity": 95,
      "chip": "ym2612"
    },
    {
      "channel": 5,
      "note": 89,
      "start": 11.7451,
      "duration": 0.0118,
      "velocity": 95,
      "chip": "ym2612"
    },
    {
      "channel": 0,
      "note": 89,
      "start": 11.7546,
      "duration": 0.0125,
      "velocity": 95,
      "chip": "ym2612"
    },
    {
      "channel": 5,
      "note": 89,
      "start": 11.757,
      "duration": 0.0125,
      "velocity": 95,
      "chip": "ym2612"
    },
    {
      "channel": 0,
      "note": 89,
      "start": 11.7671,
      "duration": 0.0125,
      "velocity": 95,
      "chip": "ym2612"
    },
    {
      "channel": 5,
      "note": 89,
      "start": 11.7695,
      "duration": 0.0125,
      "velocity": 95,
      "chip": "ym2612"
    },
    {
      "channel": 0,
      "note": 89,
      "start": 11.7795,
      "duration": 0.0125,
      "velocity": 95,
      "chip": "ym2612"
    },
    {
      "channel": 5,
      "note": 89,
      "start": 11.782,
      "duration": 0.0131,
      "velocity": 95,
      "chip": "ym2612"
    },
    {
      "channel": 0,
      "note": 89,
      "start": 11.792,
      "duration": 0.0125,
      "velocity": 95,
      "chip": "ym2612"
    },
    {
      "channel": 5,
      "note": 89,
      "start": 11.7951,
      "duration": 0.0118,
      "velocity": 95,
      "chip": "ym2612"
    },
    {
      "channel": 0,
      "note": 89,
      "start": 11.8046,
      "duration": 0.0124,
      "velocity": 95,
      "chip": "ym2612"
    },
    {
      "channel": 5,
      "note": 89,
      "start": 11.8069,
      "duration": 0.0157,
      "velocity": 95,
      "chip": "ym2612"
    },
    {
      "channel": 0,
      "note": 89,
      "start": 11.817,
      "duration": 0.0134,
      "velocity": 95,
      "chip": "ym2612"
    },
    {
      "channel": 1,
      "note": 65,
      "start": 11.8185,
      "duration": 0.0878,
      "velocity": 81,
      "chip": "ym2612"
    },
    {
      "channel": 4,
      "note": 56,
      "start": 11.8213,
      "duration": 0.0878,
      "velocity": 74,
      "chip": "ym2612"
    },
    {
      "channel": 5,
      "note": 89,
      "start": 11.8226,
      "duration": 0.0103,
      "velocity": 95,
      "chip": "ym2612"
    },
    {
      "channel": 2,
      "note": 40,
      "start": 11.8287,
      "duration": 0.0055,
      "velocity": 114,
      "chip": "ym2612"
    },
    {
      "channel": 0,
      "note": 89,
      "start": 11.8304,
      "duration": 0.0125,
      "velocity": 95,
      "chip": "ym2612"
    },
    {
      "channel": 5,
      "note": 89,
      "start": 11.8329,
      "duration": 0.0131,
      "velocity": 95,
      "chip": "ym2612"
    },
    {
      "channel": 2,
      "note": 40,
      "start": 11.8341,
      "duration": 0.0131,
      "velocity": 114,
      "chip": "ym2612"
    },
    {
      "channel": 0,
      "note": 89,
      "start": 11.8429,
      "duration": 0.0125,
      "velocity": 95,
      "chip": "ym2612"
    },
    {
      "channel": 5,
      "note": 89,
      "start": 11.846,
      "duration": 0.0118,
      "velocity": 95,
      "chip": "ym2612"
    },
    {
      "channel": 2,
      "note": 40,
      "start": 11.8472,
      "duration": 0.0122,
      "velocity": 114,
      "chip": "ym2612"
    },
    {
      "channel": 0,
      "note": 89,
      "start": 11.8554,
      "duration": 0.0125,
      "velocity": 95,
      "chip": "ym2612"
    },
    {
      "channel": 5,
      "note": 89,
      "start": 11.8578,
      "duration": 0.0125,
      "velocity": 95,
      "chip": "ym2612"
    },
    {
      "channel": 2,
      "note": 40,
      "start": 11.8595,
      "duration": 0.0121,
      "velocity": 114,
      "chip": "ym2612"
    },
    {
      "channel": 0,
      "note": 89,
      "start": 11.8679,
      "duration": 0.0125,
      "velocity": 95,
      "chip": "ym2612"
    },
    {
      "channel": 5,
      "note": 89,
      "start": 11.8703,
      "duration": 0.0125,
      "velocity": 95,
      "chip": "ym2612"
    },
    {
      "channel": 2,
      "note": 40,
      "start": 11.8716,
      "duration": 0.0125,
      "velocity": 114,
      "chip": "ym2612"
    },
    {
      "channel": 0,
      "note": 89,
      "start": 11.8804,
      "duration": 0.0124,
      "velocity": 95,
      "chip": "ym2612"
    },
    {
      "channel": 5,
      "note": 89,
      "start": 11.8828,
      "duration": 0.0131,
      "velocity": 95,
      "chip": "ym2612"
    },
    {
      "channel": 2,
      "note": 40,
      "start": 11.8841,
      "duration": 0.0131,
      "velocity": 114,
      "chip": "ym2612"
    },
    {
      "channel": 0,
      "note": 89,
      "start": 11.8928,
      "duration": 0.0125,
      "velocity": 95,
      "chip": "ym2612"
    },
    {
      "channel": 5,
      "note": 89,
      "start": 11.8959,
      "duration": 0.0155,
      "velocity": 95,
      "chip": "ym2612"
    },
    {
      "channel": 2,
      "note": 40,
      "start": 11.8972,
      "duration": 0.0154,
      "velocity": 114,
      "chip": "ym2612"
    },
    {
      "channel": 0,
      "note": 89,
      "start": 11.9054,
      "duration": 0.0125,
      "velocity": 95,
      "chip": "ym2612"
    },
    {
      "channel": 1,
      "note": 65,
      "start": 11.9068,
      "duration": 0.0994,
      "velocity": 81,
      "chip": "ym2612"
    },
    {
      "channel": 4,
      "note": 63,
      "start": 11.9096,
      "duration": 0.1006,
      "velocity": 74,
      "chip": "ym2612"
    },
    {
      "channel": 5,
      "note": 89,
      "start": 11.9114,
      "duration": 0.0088,
      "velocity": 95,
      "chip": "ym2612"
    },
    {
      "channel": 0,
      "note": 89,
      "start": 11.9178,
      "duration": 0.0125,
      "velocity": 95,
      "chip": "ym2612"
    },
    {
      "channel": 5,
      "note": 89,
      "start": 11.9203,
      "duration": 0.0124,
      "velocity": 95,
      "chip": "ym2612"
    },
    {
      "channel": 2,
      "note": 40,
      "start": 11.9225,
      "duration": 0.0115,
      "velocity": 114,
      "chip": "ym2612"
    },
    {
      "channel": 0,
      "note": 89,
      "start": 11.9303,
      "duration": 0.0125,
      "velocity": 95,
      "chip": "ym2612"
    },
    {
      "channel": 5,
      "note": 89,
      "start": 11.9327,
      "duration": 0.0131,
      "velocity": 95,
      "chip": "ym2612"
    },
    {
      "channel": 2,
      "note": 40,
      "start": 11.934,
      "duration": 0.0131,
      "velocity": 114,
      "chip": "ym2612"
    },
    {
      "channel": 0,
      "note": 89,
      "start": 11.9428,
      "duration": 0.0125,
      "velocity": 95,
      "chip": "ym2612"
    },
    {
      "channel": 5,
      "note": 89,
      "start": 11.9458,
      "duration": 0.0119,
      "velocity": 95,
      "chip": "ym2612"
    },
    {
      "channel": 2,
      "note": 40,
      "start": 11.9471,
      "duration": 0.0123,
      "velocity": 114,
      "chip": "ym2612"
    },
    {
      "channel": 0,
      "note": 89,
      "start": 11.9553,
      "duration": 0.0125,
      "velocity": 95,
      "chip": "ym2612"
    },
    {
      "channel": 5,
      "note": 89,
      "start": 11.9577,
      "duration": 0.0125,
      "velocity": 95,
      "chip": "ym2612"
    },
    {
      "channel": 2,
      "note": 40,
      "start": 11.9594,
      "duration": 0.0121,
      "velocity": 114,
      "chip": "ym2612"
    },
    {
      "channel": 0,
      "note": 89,
      "start": 11.9678,
      "duration": 0.0124,
      "velocity": 95,
      "chip": "ym2612"
    },
    {
      "channel": 5,
      "note": 89,
      "start": 11.9702,
      "duration": 0.0125,
      "velocity": 95,
      "chip": "ym2612"
    },
    {
      "channel": 2,
      "note": 40,
      "start": 11.9715,
      "duration": 0.0125,
      "velocity": 114,
      "chip": "ym2612"
    },
    {
      "channel": 0,
      "note": 89,
      "start": 11.9802,
      "duration": 0.0125,
      "velocity": 95,
      "chip": "ym2612"
    },
    {
      "channel": 5,
      "note": 89,
      "start": 11.9827,
      "duration": 0.0131,
      "velocity": 95,
      "chip": "ym2612"
    },
    {
      "channel": 2,
      "note": 40,
      "start": 11.9839,
      "duration": 0.0131,
      "velocity": 114,
      "chip": "ym2612"
    },
    {
      "channel": 0,
      "note": 89,
      "start": 11.9927,
      "duration": 0.0125,
      "velocity": 95,
      "chip": "ym2612"
    },
    {
      "channel": 5,
      "note": 89,
      "start": 11.9958,
      "duration": 0.0168,
      "velocity": 95,
      "chip": "ym2612"
    },
    {
      "channel": 2,
      "note": 40,
      "start": 11.9971,
      "duration": 0.0167,
      "velocity": 114,
      "chip": "ym2612"
    },
    {
      "channel": 0,
      "note": 89,
      "start": 12.0052,
      "duration": 0.0125,
      "velocity": 95,
      "chip": "ym2612"
    },
    {
      "channel": 1,
      "note": 53,
      "start": 12.0066,
      "duration": 0.1865,
      "velocity": 81,
      "chip": "ym2612"
    },
    {
      "channel": 4,
      "note": 65,
      "start": 12.0111,
      "duration": 0.084,
      "velocity": 74,
      "chip": "ym2612"
    },
    {
      "channel": 5,
      "note": 89,
      "start": 12.0126,
      "duration": 0.0076,
      "velocity": 95,
      "chip": "ym2612"
    },
    {
      "channel": 0,
      "note": 89,
      "start": 12.0177,
      "duration": 0.0125,
      "velocity": 95,
      "chip": "ym2612"
    },
    {
      "channel": 5,
      "note": 89,
      "start": 12.0201,
      "duration": 0.0125,
      "velocity": 95,
      "chip": "ym2612"
    },
    {
      "channel": 2,
      "note": 40,
      "start": 12.0224,
      "duration": 0.0115,
      "velocity": 114,
      "chip": "ym2612"
    },
    {
      "channel": 0,
      "note": 89,
      "start": 12.0302,
      "duration": 0.0125,
      "velocity": 95,
      "chip": "ym2612"
    },
    {
      "channel": 5,
      "note": 89,
      "start": 12.0326,
      "duration": 0.0131,
      "velocity": 95,
      "chip": "ym2612"
    },
    {
      "channel": 2,
      "note": 40,
      "start": 12.0339,
      "duration": 0.013,
      "velocity": 114,
      "chip": "ym2612"
    },
    {
      "channel": 0,
      "note": 89,
      "start": 12.0427,
      "duration": 0.0125,
      "velocity": 95,
      "chip": "ym2612"
    },
    {
      "channel": 5,
      "note": 89,
      "start": 12.0457,
      "duration": 0.0118,
      "velocity": 95,
      "chip": "ym2612"
    },
    {
      "channel": 2,
      "note": 40,
      "start": 12.0469,
      "duration": 0.0123,
      "velocity": 114,
      "chip": "ym2612"
    },
    {
      "channel": 0,
      "note": 89,
      "start": 12.0552,
      "duration": 0.0125,
      "velocity": 95,
      "chip": "ym2612"
    },
    {
      "channel": 5,
      "note": 89,
      "start": 12.0575,
      "duration": 0.0125,
      "velocity": 95,
      "chip": "ym2612"
    },
    {
      "channel": 2,
      "note": 40,
      "start": 12.0592,
      "duration": 0.0122,
      "velocity": 114,
      "chip": "ym2612"
    },
    {
      "channel": 0,
      "note": 89,
      "start": 12.0677,
      "duration": 0.0124,
      "velocity": 95,
      "chip": "ym2612"
    },
    {
      "channel": 5,
      "note": 89,
      "start": 12.0701,
      "duration": 0.0125,
      "velocity": 95,
      "chip": "ym2612"
    },
    {
      "channel": 2,
      "note": 40,
      "start": 12.0713,
      "duration": 0.0125,
      "velocity": 114,
      "chip": "ym2612"
    },
    {
      "channel": 0,
      "note": 89,
      "start": 12.0801,
      "duration": 0.0125,
      "velocity": 95,
      "chip": "ym2612"
    },
    {
      "channel": 5,
      "note": 89,
      "start": 12.0825,
      "duration": 0.0142,
      "velocity": 95,
      "chip": "ym2612"
    },
    {
      "channel": 2,
      "note": 40,
      "start": 12.0838,
      "duration": 0.0142,
      "velocity": 114,
      "chip": "ym2612"
    },
    {
      "channel": 0,
      "note": 89,
      "start": 12.0926,
      "duration": 0.0125,
      "velocity": 95,
      "chip": "ym2612"
    },
    {
      "channel": 4,
      "note": 75,
      "start": 12.0956,
      "duration": 0.101,
      "velocity": 74,
      "chip": "ym2612"
    },
    {
      "channel": 5,
      "note": 89,
      "start": 12.0968,
      "duration": 0.0107,
      "velocity": 95,
      "chip": "ym2612"
    },
    {
      "channel": 2,
      "note": 40,
      "start": 12.098,
      "duration": 0.0108,
      "velocity": 114,
      "chip": "ym2612"
    },
    {
      "channel": 0,
      "note": 89,
      "start": 12.1051,
      "duration": 0.0125,
      "velocity": 95,
      "chip": "ym2612"
    },
    {
      "channel": 5,
      "note": 89,
      "start": 12.1075,
      "duration": 0.0125,
      "velocity": 95,
      "chip": "ym2612"
    },
    {
      "channel": 2,
      "note": 40,
      "start": 12.1088,
      "duration": 0.0124,
      "velocity": 114,
      "chip": "ym2612"
    },
    {
      "channel": 0,
      "note": 89,
      "start": 12.1176,
      "duration": 0.0125,
      "velocity": 95,
      "chip": "ym2612"
    },
    {
      "channel": 5,
      "note": 89,
      "start": 12.12,
      "duration": 0.0125,
      "velocity": 95,
      "chip": "ym2612"
    },
    {
      "channel": 2,
      "note": 40,
      "start": 12.1213,
      "duration": 0.0125,
      "velocity": 114,
      "chip": "ym2612"
    },
    {
      "channel": 0,
      "note": 89,
      "start": 12.1301,
      "duration": 0.0124,
      "velocity": 95,
      "chip": "ym2612"
    },
    {
      "channel": 5,
      "note": 89,
      "start": 12.1325,
      "duration": 0.0131,
      "velocity": 95,
      "chip": "ym2612"
    },
    {
      "channel": 2,
      "note": 40,
      "start": 12.1337,
      "duration": 0.013,
      "velocity": 114,
      "chip": "ym2612"
    },
    {
      "channel": 0,
      "note": 89,
      "start": 12.1425,
      "duration": 0.0125,
      "velocity": 95,
      "chip": "ym2612"
    },
    {
      "channel": 5,
      "note": 89,
      "start": 12.1456,
      "duration": 0.0118,
      "velocity": 95,
      "chip": "ym2612"
    },
    {
      "channel": 2,
      "note": 39,
      "start": 12.1468,
      "duration": 0.0119,
      "velocity": 114,
      "chip": "ym2612"
    },
    {
      "channel": 0,
      "note": 89,
      "start": 12.1551,
      "duration": 0.0125,
      "velocity": 95,
      "chip": "ym2612"
    },
    {
      "channel": 5,
      "note": 89,
      "start": 12.1574,
      "duration": 0.0125,
      "velocity": 95,
      "chip": "ym2612"
    },
    {
      "channel": 2,
      "note": 39,
      "start": 12.1587,
      "duration": 0.0125,
      "velocity": 114,
      "chip": "ym2612"
    },
    {
      "channel": 0,
      "note": 89,
      "start": 12.1675,
      "duration": 0.0125,
      "velocity": 95,
      "chip": "ym2612"
    },
    {
      "channel": 5,
      "note": 89,
      "start": 12.1699,
      "duration": 0.0125,
      "velocity": 95,
      "chip": "ym2612"
    },
    {
      "channel": 2,
      "note": 39,
      "start": 12.1712,
      "duration": 0.0124,
      "velocity": 114,
      "chip": "ym2612"
    },
    {
      "channel": 0,
      "note": 89,
      "start": 12.18,
      "duration": 0.0122,
      "velocity": 95,
      "chip": "ym2612"
    },
    {
      "channel": 5,
      "note": 89,
      "start": 12.1824,
      "duration": 0.0159,
      "velocity": 95,
      "chip": "ym2612"
    },
    {
      "channel": 1,
      "note": 53,
      "start": 12.1937,
      "duration": 0.1861,
      "velocity": 81,
      "chip": "ym2612"
    },
    {
      "channel": 4,
      "note": 77,
      "start": 12.1971,
      "duration": 0.0838,
      "velocity": 74,
      "chip": "ym2612"
    },
    {
      "channel": 5,
      "note": 89,
      "start": 12.1983,
      "duration": 0.0082,
      "velocity": 95,
      "chip": "ym2612"
    },
    {
      "channel": 2,
      "note": 40,
      "start": 12.2009,
      "duration": 0.0068,
      "velocity": 114,
      "chip": "ym2612"
    },
    {
      "channel": 5,
      "note": 89,
      "start": 12.2065,
      "duration": 0.0125,
      "velocity": 95,
      "chip": "ym2612"
    },
    {
      "channel": 2,
      "note": 40,
      "start": 12.2077,
      "duration": 0.0125,
      "velocity": 114,
      "chip": "ym2612"
    },
    {
      "channel": 5,
      "note": 89,
      "start": 12.2189,
      "duration": 0.0125,
      "velocity": 95,
      "chip": "ym2612"
    },
    {
      "channel": 2,
      "note": 40,
      "start": 12.2202,
      "duration": 0.0128,
      "velocity": 114,
      "chip": "ym2612"
    },
    {
      "channel": 5,
      "note": 89,
      "start": 12.2315,
      "duration": 0.0128,
      "velocity": 95,
      "chip": "ym2612"
    },
    {
      "channel": 2,
      "note": 40,
      "start": 12.233,
      "duration": 0.0127,
      "velocity": 114,
      "chip": "ym2612"
    },
    {
      "channel": 5,
      "note": 89,
      "start": 12.2442,
      "duration": 0.0122,
      "velocity": 95,
      "chip": "ym2612"
    },
    {
      "channel": 2,
      "note": 40,
      "start": 12.2458,
      "duration": 0.012,
      "velocity": 114,
      "chip": "ym2612"
    },
    {
      "channel": 5,
      "note": 89,
      "start": 12.2565,
      "duration": 0.0125,
      "velocity": 95,
      "chip": "ym2612"
    },
    {
      "channel": 2,
      "note": 40,
      "start": 12.2577,
      "duration": 0.0124,
      "velocity": 114,
      "chip": "ym2612"
    },
    {
      "channel": 5,
      "note": 89,
      "start": 12.2689,
      "duration": 0.0136,
      "velocity": 95,
      "chip": "ym2612"
    },
    {
      "channel": 2,
      "note": 40,
      "start": 12.2701,
      "duration": 0.0136,
      "velocity": 114,
      "chip": "ym2612"
    },
    {
      "channel": 4,
      "note": 65,
      "start": 12.2813,
      "duration": 0.1013,
      "velocity": 74,
      "chip": "ym2612"
    },
    {
      "channel": 5,
      "note": 89,
      "start": 12.2825,
      "duration": 0.0117,
      "velocity": 95,
      "chip": "ym2612"
    },
    {
      "channel": 2,
      "note": 40,
      "start": 12.2837,
      "duration": 0.012,
      "velocity": 114,
      "chip": "ym2612"
    },
    {
      "channel": 5,
      "note": 89,
      "start": 12.2942,
      "duration": 0.0121,
      "velocity": 95,
      "chip": "ym2612"
    },
    {
      "channel": 2,
      "note": 40,
      "start": 12.2957,
      "duration": 0.0119,
      "velocity": 114,
      "chip": "ym2612"
    },
    {
      "channel": 5,
      "note": 89,
      "start": 12.3063,
      "duration": 0.0125,
      "velocity": 95,
      "chip": "ym2612"
    },
    {
      "channel": 2,
      "note": 40,
      "start": 12.3076,
      "duration": 0.0125,
      "velocity": 114,
      "chip": "ym2612"
    },
    {
      "channel": 5,
      "note": 89,
      "start": 12.3189,
      "duration": 0.0122,
      "velocity": 95,
      "chip": "ym2612"
    },
    {
      "channel": 2,
      "note": 39,
      "start": 12.3201,
      "duration": 0.0123,
      "velocity": 114,
      "chip": "ym2612"
    },
    {
      "channel": 2,
      "note": 39,
      "start": 12.3324,
      "duration": 0.0121,
      "velocity": 114,
      "chip": "ym2612"
    },
    {
      "channel": 2,
      "note": 39,
      "start": 12.3445,
      "duration": 0.0121,
      "velocity": 114,
      "chip": "ym2612"
    },
    {
      "channel": 1,
      "note": 53,
      "start": 12.3802,
      "duration": 0.1871,
      "velocity": 81,
      "chip": "ym2612"
    },
    {
      "channel": 4,
      "note": 72,
      "start": 12.3831,
      "duration": 0.0858,
      "velocity": 74,
      "chip": "ym2612"
    },
    {
      "channel": 2,
      "note": 41,
      "start": 12.3888,
      "duration": 0.0837,
      "velocity": 122,
      "chip": "ym2612"
    },
    {
      "channel": 4,
      "note": 75,
      "start": 12.4694,
      "duration": 0.1001,
      "velocity": 74,
      "chip": "ym2612"
    },
    {
      "channel": 2,
      "note": 40,
      "start": 12.4752,
      "duration": 0.0062,
      "velocity": 114,
      "chip": "ym2612"
    },
    {
      "channel": 2,
      "note": 40,
      "start": 12.4815,
      "duration": 0.0129,
      "velocity": 114,
      "chip": "ym2612"
    },
    {
      "channel": 2,
      "note": 40,
      "start": 12.4943,
      "duration": 0.0125,
      "velocity": 114,
      "chip": "ym2612"
    },
    {
      "channel": 2,
      "note": 40,
      "start": 12.5068,
      "duration": 0.0121,
      "velocity": 114,
      "chip": "ym2612"
    },
    {
      "channel": 2,
      "note": 40,
      "start": 12.5189,
      "duration": 0.0125,
      "velocity": 114,
      "chip": "ym2612"
    },
    {
      "channel": 2,
      "note": 40,
      "start": 12.5315,
      "duration": 0.0128,
      "velocity": 114,
      "chip": "ym2612"
    },
    {
      "channel": 2,
      "note": 40,
      "start": 12.5442,
      "duration": 0.0122,
      "velocity": 114,
      "chip": "ym2612"
    },
    {
      "channel": 2,
      "note": 40,
      "start": 12.5564,
      "duration": 0.0151,
      "velocity": 114,
      "chip": "ym2612"
    },
    {
      "channel": 1,
      "note": 53,
      "start": 12.5679,
      "duration": 0.1878,
      "velocity": 81,
      "chip": "ym2612"
    },
    {
      "channel": 4,
      "note": 65,
      "start": 12.5699,
      "duration": 0.0859,
      "velocity": 74,
      "chip": "ym2612"
    },
    {
      "channel": 2,
      "note": 40,
      "start": 12.5715,
      "duration": 0.0102,
      "velocity": 114,
      "chip": "ym2612"
    },
    {
      "channel": 2,
      "note": 40,
      "start": 12.5818,
      "duration": 0.013,
      "velocity": 114,
      "chip": "ym2612"
    },
    {
      "channel": 2,
      "note": 39,
      "start": 12.5948,
      "duration": 0.0119,
      "velocity": 114,
      "chip": "ym2612"
    },
    {
      "channel": 2,
      "note": 39,
      "start": 12.6067,
      "duration": 0.0125,
      "velocity": 114,
      "chip": "ym2612"
    },
    {
      "channel": 2,
      "note": 39,
      "start": 12.6193,
      "duration": 0.0124,
      "velocity": 114,
      "chip": "ym2612"
    },
    {
      "channel": 4,
      "note": 70,
      "start": 12.6563,
      "duration": 0.1024,
      "velocity": 74,
      "chip": "ym2612"
    },
    {
      "channel": 0,
      "note": 96,
      "start": 12.7548,
      "duration": 0.087,
      "velocity": 95,
      "chip": "ym2612"
    },
    {
      "channel": 1,
      "note": 53,
      "start": 12.7563,
      "duration": 0.0869,
      "velocity": 81,
      "chip": "ym2612"
    },
    {
      "channel": 4,
      "note": 72,
      "start": 12.7591,
      "duration": 0.0867,
      "velocity": 74,
      "chip": "ym2612"
    },
    {
      "channel": 2,
      "note": 40,
      "start": 12.763,
      "duration": 0.0062,
      "velocity": 114,
      "chip": "ym2612"
    },
    {
      "channel": 2,
      "note": 40,
      "start": 12.7692,
      "duration": 0.0126,
      "velocity": 114,
      "chip": "ym2612"
    },
    {
      "channel": 2,
      "note": 40,
      "start": 12.7818,
      "duration": 0.0134,
      "velocity": 114,
      "chip": "ym2612"
    },
    {
      "channel": 2,
      "note": 40,
      "start": 12.7952,
      "duration": 0.0115,
      "velocity": 114,
      "chip": "ym2612"
    },
    {
      "channel": 2,
      "note": 40,
      "start": 12.8067,
      "duration": 0.0125,
      "velocity": 114,
      "chip": "ym2612"
    },
    {
      "channel": 2,
      "note": 40,
      "start": 12.8193,
      "duration": 0.0125,
      "velocity": 114,
      "chip": "ym2612"
    },
    {
      "channel": 2,
      "note": 40,
      "start": 12.8318,
      "duration": 0.0165,
      "velocity": 114,
      "chip": "ym2612"
    },
    {
      "channel": 0,
      "note": 94,
      "start": 12.8422,
      "duration": 0.0996,
      "velocity": 95,
      "chip": "ym2612"
    },
    {
      "channel": 1,
      "note": 65,
      "start": 12.8437,
      "duration": 0.0995,
      "velocity": 81,
      "chip": "ym2612"
    },
    {
      "channel": 4,
      "note": 65,
      "start": 12.8463,
      "duration": 0.1003,
      "velocity": 74,
      "chip": "ym2612"
    },
    {
      "channel": 2,
      "note": 40,
      "start": 12.8483,
      "duration": 0.0085,
      "velocity": 114,
      "chip": "ym2612"
    },
    {
      "channel": 2,
      "note": 40,
      "start": 12.8567,
      "duration": 0.0125,
      "velocity": 114,
      "chip": "ym2612"
    },
    {
      "channel": 2,
      "note": 40,
      "start": 12.8692,
      "duration": 0.0126,
      "velocity": 114,
      "chip": "ym2612"
    },
    {
      "channel": 2,
      "note": 39,
      "start": 12.8818,
      "duration": 0.0139,
      "velocity": 114,
      "chip": "ym2612"
    },
    {
      "channel": 5,
      "note": 96,
      "start": 12.8942,
      "duration": 0.0866,
      "velocity": 95,
      "chip": "ym2612"
    },
    {
      "channel": 2,
      "note": 39,
      "start": 12.8957,
      "duration": 0.0106,
      "velocity": 114,
      "chip": "ym2612"
    },
    {
      "channel": 2,
      "note": 39,
      "start": 12.9063,
      "duration": 0.0125,
      "velocity": 114,
      "chip": "ym2612"
    },
    {
      "channel": 0,
      "note": 92,
      "start": 12.9422,
      "duration": 0.0871,
      "velocity": 95,
      "chip": "ym2612"
    },
    {
      "channel": 1,
      "note": 55,
      "start": 12.9437,
      "duration": 0.087,
      "velocity": 81,
      "chip": "ym2612"
    },
    {
      "channel": 4,
      "note": 68,
      "start": 12.9471,
      "duration": 0.0856,
      "velocity": 74,
      "chip": "ym2612"
    },
    {
      "channel": 2,
      "note": 40,
      "start": 12.95,
      "duration": 0.0063,
      "velocity": 114,
      "chip": "ym2612"
    },
    {
      "channel": 2,
      "note": 40,
      "start": 12.9563,
      "duration": 0.0125,
      "velocity": 114,
      "chip": "ym2612"
    },
    {
      "channel": 2,
      "note": 40,
      "start": 12.9689,
      "duration": 0.0141,
      "velocity": 114,
      "chip": "ym2612"
    },
    {
      "channel": 5,
      "note": 94,
      "start": 12.9813,
      "duration": 0.0995,
      "velocity": 95,
      "chip": "ym2612"
    },
    {
      "channel": 2,
      "note": 40,
      "start": 12.9829,
      "duration": 0.0113,
      "velocity": 114,
      "chip": "ym2612"
    },
    {
      "channel": 2,
      "note": 40,
      "start": 12.9942,
      "duration": 0.0121,
      "velocity": 114,
      "chip": "ym2612"
    },
    {
      "channel": 2,
      "note": 40,
      "start": 13.0063,
      "duration": 0.0125,
      "velocity": 114,
      "chip": "ym2612"
    },
    {
      "channel": 2,
      "note": 40,
      "start": 13.0189,
      "duration": 0.016,
      "velocity": 114,
      "chip": "ym2612"
    },
    {
      "channel": 0,
      "note": 94,
      "start": 13.0298,
      "duration": 0.0996,
      "velocity": 95,
      "chip": "ym2612"
    },
    {
      "channel": 1,
      "note": 67,
      "start": 13.0312,
      "duration": 0.0996,
      "velocity": 81,
      "chip": "ym2612"
    },
    {
      "channel": 4,
      "note": 70,
      "start": 13.0332,
      "duration": 0.1004,
      "velocity": 74,
      "chip": "ym2612"
    },
    {
      "channel": 2,
      "note": 40,
      "start": 13.0348,
      "duration": 0.0094,
      "velocity": 114,
      "chip": "ym2612"
    },
    {
      "channel": 2,
      "note": 40,
      "start": 13.0442,
      "duration": 0.0122,
      "velocity": 114,
      "chip": "ym2612"
    },
    {
      "channel": 2,
      "note": 40,
      "start": 13.0564,
      "duration": 0.0125,
      "velocity": 114,
      "chip": "ym2612"
    },
    {
      "channel": 2,
      "note": 39,
      "start": 13.0689,
      "duration": 0.0137,
      "velocity": 114,
      "chip": "ym2612"
    },
    {
      "channel": 5,
      "note": 92,
      "start": 13.0813,
      "duration": 0.087,
      "velocity": 95,
      "chip": "ym2612"
    },
    {
      "channel": 2,
      "note": 39,
      "start": 13.0825,
      "duration": 0.0117,
      "velocity": 114,
      "chip": "ym2612"
    },
    {
      "channel": 2,
      "note": 39,
      "start": 13.0942,
      "duration": 0.0121,
      "velocity": 114,
      "chip": "ym2612"
    },
    {
      "channel": 0,
      "note": 92,
      "start": 13.1299,
      "duration": 0.0868,
      "velocity": 95,
      "chip": "ym2612"
    },
    {
      "channel": 1,
      "note": 56,
      "start": 13.1313,
      "duration": 0.0869,
      "velocity": 81,
      "chip": "ym2612"
    },
    {
      "channel": 4,
      "note": 72,
      "start": 13.1341,
      "duration": 0.0868,
      "velocity": 74,
      "chip": "ym2612"
    },
    {
      "channel": 2,
      "note": 41,
      "start": 13.1399,
      "duration": 0.084,
      "velocity": 122,
      "chip": "ym2612"
    },
    {
      "channel": 5,
      "note": 94,
      "start": 13.1687,
      "duration": 0.0996,
      "velocity": 95,
      "chip": "ym2612"
    },
    {
      "channel": 0,
      "note": 91,
      "start": 13.2172,
      "duration": 0.0995,
      "velocity": 95,
      "chip": "ym2612"
    },
    {
      "channel": 1,
      "note": 68,
      "start": 13.2186,
      "duration": 0.0995,
      "velocity": 81,
      "chip": "ym2612"
    },
    {
      "channel": 4,
      "note": 75,
      "start": 13.2215,
      "duration": 0.0995,
      "velocity": 74,
      "chip": "ym2612"
    },
    {
      "channel": 2,
      "note": 41,
      "start": 13.2243,
      "duration": 0.0995,
      "velocity": 122,
      "chip": "ym2612"
    },
    {
      "channel": 5,
      "note": 92,
      "start": 13.2688,
      "duration": 0.087,
      "velocity": 95,
      "chip": "ym2612"
    },
    {
      "channel": 0,
      "note": 92,
      "start": 13.3172,
      "duration": 0.087,
      "velocity": 95,
      "chip": "ym2612"
    },
    {
      "channel": 1,
      "note": 55,
      "start": 13.3186,
      "duration": 0.0871,
      "velocity": 81,
      "chip": "ym2612"
    },
    {
      "channel": 4,
      "note": 77,
      "start": 13.3215,
      "duration": 0.087,
      "velocity": 74,
      "chip": "ym2612"
    },
    {
      "channel": 2,
      "note": 41,
      "start": 13.3243,
      "duration": 0.0877,
      "velocity": 122,
      "chip": "ym2612"
    },
    {
      "channel": 5,
      "note": 91,
      "start": 13.3562,
      "duration": 0.0995,
      "velocity": 95,
      "chip": "ym2612"
    },
    {
      "channel": 0,
      "note": 91,
      "start": 13.4047,
      "duration": 0.0996,
      "velocity": 95,
      "chip": "ym2612"
    },
    {
      "channel": 1,
      "note": 67,
      "start": 13.4061,
      "duration": 0.0998,
      "velocity": 81,
      "chip": "ym2612"
    },
    {
      "channel": 4,
      "note": 80,
      "start": 13.409,
      "duration": 0.1008,
      "velocity": 74,
      "chip": "ym2612"
    },
    {
      "channel": 2,
      "note": 41,
      "start": 13.4125,
      "duration": 0.1015,
      "velocity": 122,
      "chip": "ym2612"
    },
    {
      "channel": 5,
      "note": 92,
      "start": 13.4562,
      "duration": 0.0891,
      "velocity": 95,
      "chip": "ym2612"
    },
    {
      "channel": 0,
      "note": 89,
      "start": 13.5048,
      "duration": 0.3758,
      "velocity": 95,
      "chip": "ym2612"
    },
    {
      "channel": 1,
      "note": 53,
      "start": 13.5065,
      "duration": 0.1869,
      "velocity": 81,
      "chip": "ym2612"
    },
    {
      "channel": 4,
      "note": 65,
      "start": 13.5103,
      "duration": 0.0847,
      "velocity": 74,
      "chip": "ym2612"
    },
    {
      "channel": 2,
      "note": 40,
      "start": 13.5168,
      "duration": 0.0036,
      "velocity": 114,
      "chip": "ym2612"
    },
    {
      "channel": 2,
      "note": 40,
      "start": 13.5204,
      "duration": 0.0125,
      "velocity": 114,
      "chip": "ym2612"
    },
    {
      "channel": 2,
      "note": 40,
      "start": 13.5329,
      "duration": 0.0146,
      "velocity": 114,
      "chip": "ym2612"
    },
    {
      "channel": 5,
      "note": 91,
      "start": 13.5458,
      "duration": 0.0994,
      "velocity": 95,
      "chip": "ym2612"
    },
    {
      "channel": 2,
      "note": 40,
      "start": 13.5475,
      "duration": 0.0104,
      "velocity": 114,
      "chip": "ym2612"
    },
    {
      "channel": 2,
      "note": 40,
      "start": 13.5578,
      "duration": 0.0125,
      "velocity": 114,
      "chip": "ym2612"
    },
    {
      "channel": 2,
      "note": 40,
      "start": 13.5703,
      "duration": 0.0125,
      "velocity": 114,
      "chip": "ym2612"
    },
    {
      "channel": 2,
      "note": 40,
      "start": 13.5828,
      "duration": 0.0142,
      "velocity": 114,
      "chip": "ym2612"
    },
    {
      "channel": 4,
      "note": 75,
      "start": 13.5954,
      "duration": 0.1013,
      "velocity": 74,
      "chip": "ym2612"
    },
    {
      "channel": 2,
      "note": 40,
      "start": 13.597,
      "duration": 0.0108,
      "velocity": 114,
      "chip": "ym2612"
    },
    {
      "channel": 2,
      "note": 40,
      "start": 13.6078,
      "duration": 0.0125,
      "velocity": 114,
      "chip": "ym2612"
    },
    {
      "channel": 2,
      "note": 40,
      "start": 13.6203,
      "duration": 0.0124,
      "velocity": 114,
      "chip": "ym2612"
    },
    {
      "channel": 2,
      "note": 39,
      "start": 13.6327,
      "duration": 0.0143,
      "velocity": 114,
      "chip": "ym2612"
    },
    {
      "channel": 5,
      "note": 89,
      "start": 13.6458,
      "duration": 0.3745,
      "velocity": 95,
      "chip": "ym2612"
    },
    {
      "channel": 2,
      "note": 39,
      "start": 13.6471,
      "duration": 0.0107,
      "velocity": 114,
      "chip": "ym2612"
    },
    {
      "channel": 2,
      "note": 39,
      "start": 13.6577,
      "duration": 0.0124,
      "velocity": 114,
      "chip": "ym2612"
    },
    {
      "channel": 1,
      "note": 53,
      "start": 13.6938,
      "duration": 0.1876,
      "velocity": 81,
      "chip": "ym2612"
    },
    {
      "channel": 4,
      "note": 77,
      "start": 13.6972,
      "duration": 0.0844,
      "velocity": 74,
      "chip": "ym2612"
    },
    {
      "channel": 2,
      "note": 40,
      "start": 13.7002,
      "duration": 0.0074,
      "velocity": 114,
      "chip": "ym2612"
    },
    {
      "channel": 2,
      "note": 40,
      "start": 13.7077,
      "duration": 0.0125,
      "velocity": 114,
      "chip": "ym2612"
    },
    {
      "channel": 2,
      "note": 40,
      "start": 13.7201,
      "duration": 0.0129,
      "velocity": 114,
      "chip": "ym2612"
    },
    {
      "channel": 2,
      "note": 40,
      "start": 13.733,
      "duration": 0.0127,
      "velocity": 114,
      "chip": "ym2612"
    },
    {
      "channel": 2,
      "note": 40,
      "start": 13.7457,
      "duration": 0.0119,
      "velocity": 114,
      "chip": "ym2612"
    },
    {
      "channel": 2,
      "note": 40,
      "start": 13.7576,
      "duration": 0.0125,
      "velocity": 114,
      "chip": "ym2612"
    },
    {
      "channel": 2,
      "note": 40,
      "start": 13.7701,
      "duration": 0.0136,
      "velocity": 114,
      "chip": "ym2612"
    },
    {
      "channel": 4,
      "note": 65,
      "start": 13.7821,
      "duration": 0.1022,
      "velocity": 74,
      "chip": "ym2612"
    },
    {
      "channel": 2,
      "note": 40,
      "start": 13.7837,
      "duration": 0.012,
      "velocity": 114,
      "chip": "ym2612"
    },
    {
      "channel": 2,
      "note": 40,
      "start": 13.7956,
      "duration": 0.0119,
      "velocity": 114,
      "chip": "ym2612"
    },
    {
      "channel": 2,
      "note": 40,
      "start": 13.8075,
      "duration": 0.0125,
      "velocity": 114,
      "chip": "ym2612"
    },
    {
      "channel": 2,
      "note": 39,
      "start": 13.82,
      "duration": 0.0125,
      "velocity": 114,
      "chip": "ym2612"
    },
    {
      "channel": 2,
      "note": 39,
      "start": 13.8325,
      "duration": 0.0131,
      "velocity": 114,
      "chip": "ym2612"
    },
    {
      "channel": 2,
      "note": 39,
      "start": 13.8456,
      "duration": 0.0118,
      "velocity": 114,
      "chip": "ym2612"
    },
    {
      "channel": 0,
      "note": 89,
      "start": 13.8806,
      "duration": 0.0125,
      "velocity": 95,
      "chip": "ym2612"
    },
    {
      "channel": 1,
      "note": 53,
      "start": 13.882,
      "duration": 0.1868,
      "velocity": 81,
      "chip": "ym2612"
    },
    {
      "channel": 4,
      "note": 72,
      "start": 13.8848,
      "duration": 0.0858,
      "velocity": 74,
      "chip": "ym2612"
    },
    {
      "channel": 2,
      "note": 41,
      "start": 13.8905,
      "duration": 0.0836,
      "velocity": 122,
      "chip": "ym2612"
    },
    {
      "channel": 0,
      "note": 89,
      "start": 13.893,
      "duration": 0.0125,
      "velocity": 95,
      "chip": "ym2612"
    },
    {
      "channel": 0,
      "note": 89,
      "start": 13.9055,
      "duration": 0.0125,
      "velocity": 95,
      "chip": "ym2612"
    },
    {
      "channel": 0,
      "note": 89,
      "start": 13.918,
      "duration": 0.0125,
      "velocity": 95,
      "chip": "ym2612"
    },
    {
      "channel": 0,
      "note": 89,
      "start": 13.9305,
      "duration": 0.0125,
      "velocity": 95,
      "chip": "ym2612"
    },
    {
      "channel": 0,
      "note": 89,
      "start": 13.943,
      "duration": 0.0125,
      "velocity": 95,
      "chip": "ym2612"
    },
    {
      "channel": 0,
      "note": 89,
      "start": 13.9554,
      "duration": 0.0125,
      "velocity": 95,
      "chip": "ym2612"
    },
    {
      "channel": 0,
      "note": 89,
      "start": 13.9679,
      "duration": 0.0125,
      "velocity": 95,
      "chip": "ym2612"
    },
    {
      "channel": 4,
      "note": 75,
      "start": 13.971,
      "duration": 0.0998,
      "velocity": 74,
      "chip": "ym2612"
    },
    {
      "channel": 2,
      "note": 40,
      "start": 13.9769,
      "duration": 0.0063,
      "velocity": 114,
      "chip": "ym2612"
    },
    {
      "channel": 0,
      "note": 89,
      "start": 13.9804,
      "duration": 0.0125,
      "velocity": 95,
      "chip": "ym2612"
    },
    {
      "channel": 2,
      "note": 40,
      "start": 13.9832,
      "duration": 0.0131,
      "velocity": 114,
      "chip": "ym2612"
    },
    {
      "channel": 0,
      "note": 89,
      "start": 13.9929,
      "duration": 0.0125,
      "velocity": 95,
      "chip": "ym2612"
    },
    {
      "channel": 2,
      "note": 40,
      "start": 13.9963,
      "duration": 0.0122,
      "velocity": 114,
      "chip": "ym2612"
    },
    {
      "channel": 0,
      "note": 89,
      "start": 14.0054,
      "duration": 0.0125,
      "velocity": 95,
      "chip": "ym2612"
    },
    {
      "channel": 2,
      "note": 40,
      "start": 14.0085,
      "duration": 0.013,
      "velocity": 114,
      "chip": "ym2612"
    },
    {
      "channel": 0,
      "note": 89,
      "start": 14.0178,
      "duration": 0.0125,
      "velocity": 95,
      "chip": "ym2612"
    },
    {
      "channel": 5,
      "note": 89,
      "start": 14.0203,
      "duration": 0.0124,
      "velocity": 95,
      "chip": "ym2612"
    },
    {
      "channel": 2,
      "note": 40,
      "start": 14.0215,
      "duration": 0.0124,
      "velocity": 114,
      "chip": "ym2612"
    },
    {
      "channel": 0,
      "note": 89,
      "start": 14.0303,
      "duration": 0.0125,
      "velocity": 95,
      "chip": "ym2612"
    },
    {
      "channel": 5,
      "note": 89,
      "start": 14.0327,
      "duration": 0.0131,
      "velocity": 95,
      "chip": "ym2612"
    },
    {
      "channel": 2,
      "note": 40,
      "start": 14.034,
      "duration": 0.0131,
      "velocity": 114,
      "chip": "ym2612"
    },
    {
      "channel": 0,
      "note": 89,
      "start": 14.0428,
      "duration": 0.0125,
      "velocity": 95,
      "chip": "ym2612"
    },
    {
      "channel": 5,
      "note": 89,
      "start": 14.0458,
      "duration": 0.0119,
      "velocity": 95,
      "chip": "ym2612"
    },
    {
      "channel": 2,
      "note": 40,
      "start": 14.0471,
      "duration": 0.0119,
      "velocity": 114,
      "chip": "ym2612"
    },
    {
      "channel": 0,
      "note": 89,
      "start": 14.0553,
      "duration": 0.0125,
      "velocity": 95,
      "chip": "ym2612"
    },
    {
      "channel": 5,
      "note": 89,
      "start": 14.0577,
      "duration": 0.0148,
      "velocity": 95,
      "chip": "ym2612"
    },
    {
      "channel": 2,
      "note": 40,
      "start": 14.059,
      "duration": 0.0148,
      "velocity": 114,
      "chip": "ym2612"
    },
    {
      "channel": 0,
      "note": 89,
      "start": 14.0678,
      "duration": 0.0125,
      "velocity": 95,
      "chip": "ym2612"
    },
    {
      "channel": 1,
      "note": 53,
      "start": 14.0693,
      "duration": 0.1868,
      "velocity": 81,
      "chip": "ym2612"
    },
    {
      "channel": 4,
      "note": 65,
      "start": 14.0713,
      "duration": 0.0858,
      "velocity": 74,
      "chip": "ym2612"
    },
    {
      "channel": 5,
      "note": 89,
      "start": 14.0725,
      "duration": 0.0102,
      "velocity": 95,
      "chip": "ym2612"
    },
    {
      "channel": 2,
      "note": 40,
      "start": 14.0738,
      "duration": 0.0102,
      "velocity": 114,
      "chip": "ym2612"
    },
    {
      "channel": 0,
      "note": 89,
      "start": 14.0803,
      "duration": 0.0125,
      "velocity": 95,
      "chip": "ym2612"
    },
    {
      "channel": 5,
      "note": 89,
      "start": 14.0827,
      "duration": 0.0131,
      "velocity": 95,
      "chip": "ym2612"
    },
    {
      "channel": 2,
      "note": 40,
      "start": 14.0839,
      "duration": 0.0131,
      "velocity": 114,
      "chip": "ym2612"
    },
    {
      "channel": 0,
      "note": 89,
      "start": 14.0928,
      "duration": 0.0124,
      "velocity": 95,
      "chip": "ym2612"
    },
    {
      "channel": 5,
      "note": 89,
      "start": 14.0958,
      "duration": 0.0119,
      "velocity": 95,
      "chip": "ym2612"
    },
    {
      "channel": 2,
      "note": 39,
      "start": 14.0971,
      "duration": 0.0119,
      "velocity": 114,
      "chip": "ym2612"
    },
    {
      "channel": 0,
      "note": 89,
      "start": 14.1052,
      "duration": 0.0125,
      "velocity": 95,
      "chip": "ym2612"
    },
    {
      "channel": 5,
      "note": 89,
      "start": 14.1077,
      "duration": 0.0125,
      "velocity": 95,
      "chip": "ym2612"
    },
    {
      "channel": 2,
      "note": 39,
      "start": 14.1089,
      "duration": 0.0125,
      "velocity": 114,
      "chip": "ym2612"
    },
    {
      "channel": 0,
      "note": 89,
      "start": 14.1177,
      "duration": 0.0125,
      "velocity": 95,
      "chip": "ym2612"
    },
    {
      "channel": 5,
      "note": 89,
      "start": 14.1201,
      "duration": 0.0125,
      "velocity": 95,
      "chip": "ym2612"
    },
    {
      "channel": 2,
      "note": 39,
      "start": 14.1214,
      "duration": 0.0124,
      "velocity": 114,
      "chip": "ym2612"
    },
    {
      "channel": 0,
      "note": 89,
      "start": 14.1302,
      "duration": 0.0125,
      "velocity": 95,
      "chip": "ym2612"
    },
    {
      "channel": 5,
      "note": 89,
      "start": 14.1326,
      "duration": 0.0131,
      "velocity": 95,
      "chip": "ym2612"
    },
    {
      "channel": 0,
      "note": 89,
      "start": 14.1427,
      "duration": 0.0125,
      "velocity": 95,
      "chip": "ym2612"
    },
    {
      "channel": 5,
      "note": 89,
      "start": 14.1457,
      "duration": 0.013,
      "velocity": 95,
      "chip": "ym2612"
    },
    {
      "channel": 0,
      "note": 89,
      "start": 14.1552,
      "duration": 0.0125,
      "velocity": 95,
      "chip": "ym2612"
    },
    {
      "channel": 4,
      "note": 70,
      "start": 14.1575,
      "duration": 0.1013,
      "velocity": 74,
      "chip": "ym2612"
    },
    {
      "channel": 5,
      "note": 89,
      "start": 14.1588,
      "duration": 0.0113,
      "velocity": 95,
      "chip": "ym2612"
    },
    {
      "channel": 0,
      "note": 89,
      "start": 14.1677,
      "duration": 0.0125,
      "velocity": 95,
      "chip": "ym2612"
    },
    {
      "channel": 5,
      "note": 89,
      "start": 14.1701,
      "duration": 0.0125,
      "velocity": 95,
      "chip": "ym2612"
    },
    {
      "channel": 0,
      "note": 89,
      "start": 14.1802,
      "duration": 0.0125,
      "velocity": 95,
      "chip": "ym2612"
    },
    {
      "channel": 5,
      "note": 89,
      "start": 14.1825,
      "duration": 0.0131,
      "velocity": 95,
      "chip": "ym2612"
    },
    {
      "channel": 0,
      "note": 89,
      "start": 14.1927,
      "duration": 0.0125,
      "velocity": 95,
      "chip": "ym2612"
    },
    {
      "channel": 5,
      "note": 89,
      "start": 14.1956,
      "duration": 0.0119,
      "velocity": 95,
      "chip": "ym2612"
    },
    {
      "channel": 0,
      "note": 89,
      "start": 14.2051,
      "duration": 0.0125,
      "velocity": 95,
      "chip": "ym2612"
    },
    {
      "channel": 5,
      "note": 89,
      "start": 14.2075,
      "duration": 0.0125,
      "velocity": 95,
      "chip": "ym2612"
    },
    {
      "channel": 0,
      "note": 89,
      "start": 14.2176,
      "duration": 0.0125,
      "velocity": 95,
      "chip": "ym2612"
    },
    {
      "channel": 5,
      "note": 89,
      "start": 14.22,
      "duration": 0.0125,
      "velocity": 95,
      "chip": "ym2612"
    },
    {
      "channel": 0,
      "note": 89,
      "start": 14.2301,
      "duration": 0.0125,
      "velocity": 95,
      "chip": "ym2612"
    },
    {
      "channel": 5,
      "note": 89,
      "start": 14.2325,
      "duration": 0.0131,
      "velocity": 95,
      "chip": "ym2612"
    },
    {
      "channel": 0,
      "note": 89,
      "start": 14.2426,
      "duration": 0.0125,
      "velocity": 95,
      "chip": "ym2612"
    },
    {
      "channel": 5,
      "note": 89,
      "start": 14.2456,
      "duration": 0.0153,
      "velocity": 95,
      "chip": "ym2612"
    },
    {
      "channel": 0,
      "note": 89,
      "start": 14.2551,
      "duration": 0.0125,
      "velocity": 95,
      "chip": "ym2612"
    },
    {
      "channel": 1,
      "note": 53,
      "start": 14.2565,
      "duration": 0.1868,
      "velocity": 81,
      "chip": "ym2612"
    },
    {
      "channel": 4,
      "note": 72,
      "start": 14.2593,
      "duration": 0.0856,
      "velocity": 74,
      "chip": "ym2612"
    },
    {
      "channel": 5,
      "note": 89,
      "start": 14.2608,
      "duration": 0.0091,
      "velocity": 95,
      "chip": "ym2612"
    },
    {
      "channel": 2,
      "note": 40,
      "start": 14.2638,
      "duration": 0.0075,
      "velocity": 114,
      "chip": "ym2612"
    },
    {
      "channel": 0,
      "note": 89,
      "start": 14.2675,
      "duration": 0.0125,
      "velocity": 95,
      "chip": "ym2612"
    },
    {
      "channel": 5,
      "note": 89,
      "start": 14.2699,
      "duration": 0.0125,
      "velocity": 95,
      "chip": "ym2612"
    },
    {
      "channel": 2,
      "note": 40,
      "start": 14.2712,
      "duration": 0.0124,
      "velocity": 114,
      "chip": "ym2612"
    },
    {
      "channel": 0,
      "note": 89,
      "start": 14.2801,
      "duration": 0.0124,
      "velocity": 95,
      "chip": "ym2612"
    },
    {
      "channel": 5,
      "note": 89,
      "start": 14.2824,
      "duration": 0.0131,
      "velocity": 95,
      "chip": "ym2612"
    },
    {
      "channel": 2,
      "note": 40,
      "start": 14.2837,
      "duration": 0.0135,
      "velocity": 114,
      "chip": "ym2612"
    },
    {
      "channel": 0,
      "note": 89,
      "start": 14.2925,
      "duration": 0.0125,
      "velocity": 95,
      "chip": "ym2612"
    },
    {
      "channel": 5,
      "note": 89,
      "start": 14.2955,
      "duration": 0.0119,
      "velocity": 95,
      "chip": "ym2612"
    },
    {
      "channel": 2,
      "note": 40,
      "start": 14.2972,
      "duration": 0.0115,
      "velocity": 114,
      "chip": "ym2612"
    },
    {
      "channel": 0,
      "note": 89,
      "start": 14.305,
      "duration": 0.0125,
      "velocity": 95,
      "chip": "ym2612"
    },
    {
      "channel": 5,
      "note": 89,
      "start": 14.3074,
      "duration": 0.0125,
      "velocity": 95,
      "chip": "ym2612"
    },
    {
      "channel": 2,
      "note": 40,
      "start": 14.3087,
      "duration": 0.0125,
      "velocity": 114,
      "chip": "ym2612"
    },
    {
      "channel": 0,
      "note": 89,
      "start": 14.3175,
      "duration": 0.0125,
      "velocity": 95,
      "chip": "ym2612"
    },
    {
      "channel": 5,
      "note": 89,
      "start": 14.3199,
      "duration": 0.0125,
      "velocity": 95,
      "chip": "ym2612"
    },
    {
      "channel": 2,
      "note": 40,
      "start": 14.3212,
      "duration": 0.0125,
      "velocity": 114,
      "chip": "ym2612"
    },
    {
      "channel": 0,
      "note": 89,
      "start": 14.33,
      "duration": 0.0125,
      "velocity": 95,
      "chip": "ym2612"
    },
    {
      "channel": 5,
      "note": 89,
      "start": 14.3324,
      "duration": 0.0142,
      "velocity": 95,
      "chip": "ym2612"
    },
    {
      "channel": 2,
      "note": 40,
      "start": 14.3336,
      "duration": 0.0142,
      "velocity": 114,
      "chip": "ym2612"
    },
    {
      "channel": 0,
      "note": 89,
      "start": 14.3425,
      "duration": 0.0124,
      "velocity": 95,
      "chip": "ym2612"
    },
    {
      "channel": 4,
      "note": 65,
      "start": 14.3454,
      "duration": 0.1013,
      "velocity": 74,
      "chip": "ym2612"
    },
    {
      "channel": 5,
      "note": 89,
      "start": 14.3466,
      "duration": 0.0107,
      "velocity": 95,
      "chip": "ym2612"
    },
    {
      "channel": 2,
      "note": 40,
      "start": 14.3479,
      "duration": 0.0107,
      "velocity": 114,
      "chip": "ym2612"
    },
    {
      "channel": 0,
      "note": 89,
      "start": 14.3549,
      "duration": 0.0125,
      "velocity": 95,
      "chip": "ym2612"
    },
    {
      "channel": 5,
      "note": 89,
      "start": 14.3573,
      "duration": 0.0125,
      "velocity": 95,
      "chip": "ym2612"
    },
    {
      "channel": 2,
      "note": 40,
      "start": 14.3586,
      "duration": 0.0125,
      "velocity": 114,
      "chip": "ym2612"
    },
    {
      "channel": 0,
      "note": 89,
      "start": 14.3674,
      "duration": 0.0125,
      "velocity": 95,
      "chip": "ym2612"
    },
    {
      "channel": 5,
      "note": 89,
      "start": 14.3698,
      "duration": 0.0125,
      "velocity": 95,
      "chip": "ym2612"
    },
    {
      "channel": 2,
      "note": 40,
      "start": 14.3711,
      "duration": 0.0125,
      "velocity": 114,
      "chip": "ym2612"
    },
    {
      "channel": 0,
      "note": 89,
      "start": 14.3799,
      "duration": 0.0125,
      "velocity": 95,
      "chip": "ym2612"
    },
    {
      "channel": 5,
      "note": 89,
      "start": 14.3823,
      "duration": 0.0131,
      "velocity": 95,
      "chip": "ym2612"
    },
    {
      "channel": 2,
      "note": 39,
      "start": 14.3836,
      "duration": 0.0131,
      "velocity": 114,
      "chip": "ym2612"
    },
    {
      "channel": 0,
      "note": 89,
      "start": 14.3924,
      "duration": 0.0125,
      "velocity": 95,
      "chip": "ym2612"
    },
    {
      "channel": 5,
      "note": 89,
      "start": 14.3954,
      "duration": 0.0119,
      "velocity": 95,
      "chip": "ym2612"
    },
    {
      "channel": 2,
      "note": 39,
      "start": 14.3967,
      "duration": 0.0119,
      "velocity": 114,
      "chip": "ym2612"
    },
    {
      "channel": 0,
      "note": 89,
      "start": 14.4049,
      "duration": 0.0124,
      "velocity": 95,
      "chip": "ym2612"
    },
    {
      "channel": 5,
      "note": 89,
      "start": 14.4073,
      "duration": 0.0125,
      "velocity": 95,
      "chip": "ym2612"
    },
    {
      "channel": 2,
      "note": 39,
      "start": 14.4085,
      "duration": 0.0124,
      "velocity": 114,
      "chip": "ym2612"
    },
    {
      "channel": 0,
      "note": 89,
      "start": 14.4173,
      "duration": 0.0125,
      "velocity": 95,
      "chip": "ym2612"
    },
    {
      "channel": 5,
      "note": 89,
      "start": 14.4198,
      "duration": 0.0125,
      "velocity": 95,
      "chip": "ym2612"
    },
    {
      "channel": 0,
      "note": 89,
      "start": 14.4299,
      "duration": 0.0125,
      "velocity": 95,
      "chip": "ym2612"
    },
    {
      "channel": 5,
      "note": 89,
      "start": 14.4323,
      "duration": 0.0161,
      "velocity": 95,
      "chip": "ym2612"
    },
    {
      "channel": 0,
      "note": 89,
      "start": 14.4423,
      "duration": 0.0125,
      "velocity": 95,
      "chip": "ym2612"
    },
    {
      "channel": 1,
      "note": 65,
      "start": 14.4437,
      "duration": 0.0869,
      "velocity": 81,
      "chip": "ym2612"
    },
    {
      "channel": 4,
      "note": 68,
      "start": 14.4472,
      "duration": 0.0856,
      "velocity": 74,
      "chip": "ym2612"
    },
    {
      "channel": 5,
      "note": 89,
      "start": 14.4484,
      "duration": 0.0088,
      "velocity": 95,
      "chip": "ym2612"
    },
    {
      "channel": 2,
      "note": 40,
      "start": 14.451,
      "duration": 0.0075,
      "velocity": 114,
      "chip": "ym2612"
    },
    {
      "channel": 0,
      "note": 89,
      "start": 14.4548,
      "duration": 0.0125,
      "velocity": 95,
      "chip": "ym2612"
    },
    {
      "channel": 5,
      "note": 89,
      "start": 14.4572,
      "duration": 0.0125,
      "velocity": 95,
      "chip": "ym2612"
    },
    {
      "channel": 2,
      "note": 40,
      "start": 14.4585,
      "duration": 0.0124,
      "velocity": 114,
      "chip": "ym2612"
    },
    {
      "channel": 0,
      "note": 89,
      "start": 14.4673,
      "duration": 0.0125,
      "velocity": 95,
      "chip": "ym2612"
    },
    {
      "channel": 5,
      "note": 89,
      "start": 14.4697,
      "duration": 0.0125,
      "velocity": 95,
      "chip": "ym2612"
    },
    {
      "channel": 2,
      "note": 40,
      "start": 14.471,
      "duration": 0.0129,
      "velocity": 114,
      "chip": "ym2612"
    },
    {
      "channel": 0,
      "note": 89,
      "start": 14.4798,
      "duration": 0.0125,
      "velocity": 95,
      "chip": "ym2612"
    },
    {
      "channel": 5,
      "note": 89,
      "start": 14.4822,
      "duration": 0.013,
      "velocity": 95,
      "chip": "ym2612"
    },
    {
      "channel": 2,
      "note": 40,
      "start": 14.4839,
      "duration": 0.0127,
      "velocity": 114,
      "chip": "ym2612"
    },
    {
      "channel": 0,
      "note": 89,
      "start": 14.4923,
      "duration": 0.0125,
      "velocity": 95,
      "chip": "ym2612"
    },
    {
      "channel": 5,
      "note": 89,
      "start": 14.4953,
      "duration": 0.0119,
      "velocity": 95,
      "chip": "ym2612"
    },
    {
      "channel": 2,
      "note": 40,
      "start": 14.4965,
      "duration": 0.0119,
      "velocity": 114,
      "chip": "ym2612"
    },
    {
      "channel": 0,
      "note": 89,
      "start": 14.5047,
      "duration": 0.0125,
      "velocity": 95,
      "chip": "ym2612"
    },
    {
      "channel": 5,
      "note": 89,
      "start": 14.5072,
      "duration": 0.0124,
      "velocity": 95,
      "chip": "ym2612"
    },
    {
      "channel": 2,
      "note": 40,
      "start": 14.5084,
      "duration": 0.0125,
      "velocity": 114,
      "chip": "ym2612"
    },
    {
      "channel": 0,
      "note": 89,
      "start": 14.5172,
      "duration": 0.0125,
      "velocity": 95,
      "chip": "ym2612"
    },
    {
      "channel": 5,
      "note": 89,
      "start": 14.5196,
      "duration": 0.0148,
      "velocity": 95,
      "chip": "ym2612"
    },
    {
      "channel": 2,
      "note": 40,
      "start": 14.5209,
      "duration": 0.0147,
      "velocity": 114,
      "chip": "ym2612"
    },
    {
      "channel": 0,
      "note": 89,
      "start": 14.5298,
      "duration": 0.0124,
      "velocity": 95,
      "chip": "ym2612"
    },
    {
      "channel": 1,
      "note": 65,
      "start": 14.5311,
      "duration": 0.0995,
      "velocity": 81,
      "chip": "ym2612"
    },
    {
      "channel": 4,
      "note": 70,
      "start": 14.5332,
      "duration": 0.1002,
      "velocity": 74,
      "chip": "ym2612"
    },
    {
      "channel": 5,
      "note": 89,
      "start": 14.5344,
      "duration": 0.0108,
      "velocity": 95,
      "chip": "ym2612"
    },
    {
      "channel": 2,
      "note": 40,
      "start": 14.5356,
      "duration": 0.0108,
      "velocity": 114,
      "chip": "ym2612"
    },
    {
      "channel": 0,
      "note": 89,
      "start": 14.5422,
      "duration": 0.0125,
      "velocity": 95,
      "chip": "ym2612"
    },
    {
      "channel": 5,
      "note": 89,
      "start": 14.5452,
      "duration": 0.0119,
      "velocity": 95,
      "chip": "ym2612"
    },
    {
      "channel": 2,
      "note": 40,
      "start": 14.5465,
      "duration": 0.0119,
      "velocity": 114,
      "chip": "ym2612"
    },
    {
      "channel": 0,
      "note": 89,
      "start": 14.5547,
      "duration": 0.0125,
      "velocity": 95,
      "chip": "ym2612"
    },
    {
      "channel": 5,
      "note": 89,
      "start": 14.5571,
      "duration": 0.0125,
      "velocity": 95,
      "chip": "ym2612"
    },
    {
      "channel": 2,
      "note": 40,
      "start": 14.5584,
      "duration": 0.0125,
      "velocity": 114,
      "chip": "ym2612"
    },
    {
      "channel": 0,
      "note": 89,
      "start": 14.5672,
      "duration": 0.0125,
      "velocity": 95,
      "chip": "ym2612"
    },
    {
      "channel": 5,
      "note": 89,
      "start": 14.5696,
      "duration": 0.0125,
      "velocity": 95,
      "chip": "ym2612"
    },
    {
      "channel": 2,
      "note": 39,
      "start": 14.5708,
      "duration": 0.0125,
      "velocity": 114,
      "chip": "ym2612"
    },
    {
      "channel": 0,
      "note": 89,
      "start": 14.5797,
      "duration": 0.0125,
      "velocity": 95,
      "chip": "ym2612"
    },
    {
      "channel": 5,
      "note": 89,
      "start": 14.5821,
      "duration": 0.0131,
      "velocity": 95,
      "chip": "ym2612"
    },
    {
      "channel": 2,
      "note": 39,
      "start": 14.5834,
      "duration": 0.0131,
      "velocity": 114,
      "chip": "ym2612"
    },
    {
      "channel": 0,
      "note": 89,
      "start": 14.5922,
      "duration": 0.0124,
      "velocity": 95,
      "chip": "ym2612"
    },
    {
      "channel": 5,
      "note": 89,
      "start": 14.5952,
      "duration": 0.0118,
      "velocity": 95,
      "chip": "ym2612"
    },
    {
      "channel": 2,
      "note": 39,
      "start": 14.5965,
      "duration": 0.0118,
      "velocity": 114,
      "chip": "ym2612"
    },
    {
      "channel": 0,
      "note": 89,
      "start": 14.6046,
      "duration": 0.0125,
      "velocity": 95,
      "chip": "ym2612"
    },
    {
      "channel": 5,
      "note": 89,
      "start": 14.607,
      "duration": 0.0125,
      "velocity": 95,
      "chip": "ym2612"
    },
    {
      "channel": 0,
      "note": 89,
      "start": 14.6171,
      "duration": 0.0125,
      "velocity": 95,
      "chip": "ym2612"
    },
    {
      "channel": 5,
      "note": 89,
      "start": 14.6196,
      "duration": 0.0156,
      "velocity": 95,
      "chip": "ym2612"
    },
    {
      "channel": 0,
      "note": 89,
      "start": 14.6297,
      "duration": 0.0127,
      "velocity": 95,
      "chip": "ym2612"
    },
    {
      "channel": 1,
      "note": 53,
      "start": 14.6311,
      "duration": 0.187,
      "velocity": 81,
      "chip": "ym2612"
    },
    {
      "channel": 4,
      "note": 65,
      "start": 14.6339,
      "duration": 0.0852,
      "velocity": 74,
      "chip": "ym2612"
    },
    {
      "channel": 5,
      "note": 89,
      "start": 14.6351,
      "duration": 0.0102,
      "velocity": 95,
      "chip": "ym2612"
    },
    {
      "channel": 2,
      "note": 41,
      "start": 14.6405,
      "duration": 0.1849,
      "velocity": 122,
      "chip": "ym2612"
    },
    {
      "channel": 0,
      "note": 89,
      "start": 14.6423,
      "duration": 0.0125,
      "velocity": 95,
      "chip": "ym2612"
    },
    {
      "channel": 5,
      "note": 89,
      "start": 14.6454,
      "duration": 0.0118,
      "velocity": 95,
      "chip": "ym2612"
    },
    {
      "channel": 0,
      "note": 89,
      "start": 14.6548,
      "duration": 0.0125,
      "velocity": 95,
      "chip": "ym2612"
    },
    {
      "channel": 5,
      "note": 89,
      "start": 14.6572,
      "duration": 0.0125,
      "velocity": 95,
      "chip": "ym2612"
    },
    {
      "channel": 0,
      "note": 89,
      "start": 14.6673,
      "duration": 0.0125,
      "velocity": 95,
      "chip": "ym2612"
    },
    {
      "channel": 5,
      "note": 89,
      "start": 14.6698,
      "duration": 0.0125,
      "velocity": 95,
      "chip": "ym2612"
    },
    {
      "channel": 0,
      "note": 89,
      "start": 14.6798,
      "duration": 0.0125,
      "velocity": 95,
      "chip": "ym2612"
    },
    {
      "channel": 5,
      "note": 89,
      "start": 14.6822,
      "duration": 0.0131,
      "velocity": 95,
      "chip": "ym2612"
    },
    {
      "channel": 0,
      "note": 89,
      "start": 14.6923,
      "duration": 0.0125,
      "velocity": 95,
      "chip": "ym2612"
    },
    {
      "channel": 5,
      "note": 89,
      "start": 14.6953,
      "duration": 0.0118,
      "velocity": 95,
      "chip": "ym2612"
    },
    {
      "channel": 0,
      "note": 89,
      "start": 14.7048,
      "duration": 0.0125,
      "velocity": 95,
      "chip": "ym2612"
    },
    {
      "channel": 5,
      "note": 89,
      "start": 14.7072,
      "duration": 0.0137,
      "velocity": 95,
      "chip": "ym2612"
    },
    {
      "channel": 0,
      "note": 89,
      "start": 14.7173,
      "duration": 0.0125,
      "velocity": 95,
      "chip": "ym2612"
    },
    {
      "channel": 4,
      "note": 67,
      "start": 14.7196,
      "duration": 0.1013,
      "velocity": 74,
      "chip": "ym2612"
    },
    {
      "channel": 5,
      "note": 89,
      "start": 14.7208,
      "duration": 0.0113,
      "velocity": 95,
      "chip": "ym2612"
    },
    {
      "channel": 0,
      "note": 89,
      "start": 14.7298,
      "duration": 0.0124,
      "velocity": 95,
      "chip": "ym2612"
    },
    {
      "channel": 5,
      "note": 89,
      "start": 14.7322,
      "duration": 0.0131,
      "velocity": 95,
      "chip": "ym2612"
    },
    {
      "channel": 0,
      "note": 89,
      "start": 14.7422,
      "duration": 0.0125,
      "velocity": 95,
      "chip": "ym2612"
    },
    {
      "channel": 5,
      "note": 89,
      "start": 14.7453,
      "duration": 0.0118,
      "velocity": 95,
      "chip": "ym2612"
    },
    {
      "channel": 0,
      "note": 89,
      "start": 14.7547,
      "duration": 0.0125,
      "velocity": 95,
      "chip": "ym2612"
    },
    {
      "channel": 5,
      "note": 89,
      "start": 14.7571,
      "duration": 0.0125,
      "velocity": 95,
      "chip": "ym2612"
    },
    {
      "channel": 0,
      "note": 89,
      "start": 14.7672,
      "duration": 0.0125,
      "velocity": 95,
      "chip": "ym2612"
    },
    {
      "channel": 5,
      "note": 89,
      "start": 14.7696,
      "duration": 0.0125,
      "velocity": 95,
      "chip": "ym2612"
    },
    {
      "channel": 0,
      "note": 89,
      "start": 14.7798,
      "duration": 0.0124,
      "velocity": 95,
      "chip": "ym2612"
    },
    {
      "channel": 5,
      "note": 89,
      "start": 14.7821,
      "duration": 0.0131,
      "velocity": 95,
      "chip": "ym2612"
    },
    {
      "channel": 0,
      "note": 89,
      "start": 14.7922,
      "duration": 0.0125,
      "velocity": 95,
      "chip": "ym2612"
    },
    {
      "channel": 5,
      "note": 89,
      "start": 14.7952,
      "duration": 0.0118,
      "velocity": 95,
      "chip": "ym2612"
    },
    {
      "channel": 0,
      "note": 89,
      "start": 14.8047,
      "duration": 0.0125,
      "velocity": 95,
      "chip": "ym2612"
    },
    {
      "channel": 5,
      "note": 89,
      "start": 14.807,
      "duration": 0.0156,
      "velocity": 95,
      "chip": "ym2612"
    },
    {
      "channel": 0,
      "note": 89,
      "start": 14.8171,
      "duration": 0.0134,
      "velocity": 95,
      "chip": "ym2612"
    },
    {
      "channel": 1,
      "note": 65,
      "start": 14.8185,
      "duration": 0.0878,
      "velocity": 81,
      "chip": "ym2612"
    },
    {
      "channel": 4,
      "note": 56,
      "start": 14.8214,
      "duration": 0.0878,
      "velocity": 74,
      "chip": "ym2612"
    },
    {
      "channel": 5,
      "note": 89,
      "start": 14.8226,
      "duration": 0.0103,
      "velocity": 95,
      "chip": "ym2612"
    },
    {
      "channel": 2,
      "note": 40,
      "start": 14.8287,
      "duration": 0.0055,
      "velocity": 114,
      "chip": "ym2612"
    },
    {
      "channel": 0,
      "note": 89,
      "start": 14.8305,
      "duration": 0.0125,
      "velocity": 95,
      "chip": "ym2612"
    },
    {
      "channel": 5,
      "note": 89,
      "start": 14.8329,
      "duration": 0.0131,
      "velocity": 95,
      "chip": "ym2612"
    },
    {
      "channel": 2,
      "note": 40,
      "start": 14.8342,
      "duration": 0.013,
      "velocity": 114,
      "chip": "ym2612"
    },
    {
      "channel": 0,
      "note": 89,
      "start": 14.843,
      "duration": 0.0125,
      "velocity": 95,
      "chip": "ym2612"
    },
    {
      "channel": 5,
      "note": 89,
      "start": 14.846,
      "duration": 0.0118,
      "velocity": 95,
      "chip": "ym2612"
    },
    {
      "channel": 2,
      "note": 40,
      "start": 14.8472,
      "duration": 0.0123,
      "velocity": 114,
      "chip": "ym2612"
    },
    {
      "channel": 0,
      "note": 89,
      "start": 14.8555,
      "duration": 0.0125,
      "velocity": 95,
      "chip": "ym2612"
    },
    {
      "channel": 5,
      "note": 89,
      "start": 14.8578,
      "duration": 0.0125,
      "velocity": 95,
      "chip": "ym2612"
    },
    {
      "channel": 2,
      "note": 40,
      "start": 14.8595,
      "duration": 0.0122,
      "velocity": 114,
      "chip": "ym2612"
    },
    {
      "channel": 0,
      "note": 89,
      "start": 14.868,
      "duration": 0.0124,
      "velocity": 95,
      "chip": "ym2612"
    },
    {
      "channel": 5,
      "note": 89,
      "start": 14.8704,
      "duration": 0.0125,
      "velocity": 95,
      "chip": "ym2612"
    },
    {
      "channel": 2,
      "note": 40,
      "start": 14.8717,
      "duration": 0.0125,
      "velocity": 114,
      "chip": "ym2612"
    },
    {
      "channel": 0,
      "note": 89,
      "start": 14.8804,
      "duration": 0.0125,
      "velocity": 95,
      "chip": "ym2612"
    },
    {
      "channel": 5,
      "note": 89,
      "start": 14.8829,
      "duration": 0.0131,
      "velocity": 95,
      "chip": "ym2612"
    },
    {
      "channel": 2,
      "note": 40,
      "start": 14.8841,
      "duration": 0.0131,
      "velocity": 114,
      "chip": "ym2612"
    },
    {
      "channel": 0,
      "note": 89,
      "start": 14.8929,
      "duration": 0.0125,
      "velocity": 95,
      "chip": "ym2612"
    },
    {
      "channel": 5,
      "note": 89,
      "start": 14.896,
      "duration": 0.0155,
      "velocity": 95,
      "chip": "ym2612"
    },
    {
      "channel": 2,
      "note": 40,
      "start": 14.8972,
      "duration": 0.0154,
      "velocity": 114,
      "chip": "ym2612"
    },
    {
      "channel": 0,
      "note": 89,
      "start": 14.9054,
      "duration": 0.0125,
      "velocity": 95,
      "chip": "ym2612"
    },
    {
      "channel": 1,
      "note": 65,
      "start": 14.9068,
      "duration": 0.0992,
      "velocity": 81,
      "chip": "ym2612"
    },
    {
      "channel": 4,
      "note": 63,
      "start": 14.9097,
      "duration": 0.0999,
      "velocity": 74,
      "chip": "ym2612"
    },
    {
      "channel": 5,
      "note": 89,
      "start": 14.9115,
      "duration": 0.0088,
      "velocity": 95,
      "chip": "ym2612"
    },
    {
      "channel": 0,
      "note": 89,
      "start": 14.9179,
      "duration": 0.0125,
      "velocity": 95,
      "chip": "ym2612"
    },
    {
      "channel": 5,
      "note": 89,
      "start": 14.9203,
      "duration": 0.0125,
      "velocity": 95,
      "chip": "ym2612"
    },
    {
      "channel": 2,
      "note": 40,
      "start": 14.9226,
      "duration": 0.0115,
      "velocity": 114,
      "chip": "ym2612"
    },
    {
      "channel": 0,
      "note": 89,
      "start": 14.9304,
      "duration": 0.0124,
      "velocity": 95,
      "chip": "ym2612"
    },
    {
      "channel": 5,
      "note": 89,
      "start": 14.9328,
      "duration": 0.0131,
      "velocity": 95,
      "chip": "ym2612"
    },
    {
      "channel": 2,
      "note": 40,
      "start": 14.9341,
      "duration": 0.013,
      "velocity": 114,
      "chip": "ym2612"
    },
    {
      "channel": 0,
      "note": 89,
      "start": 14.9428,
      "duration": 0.0125,
      "velocity": 95,
      "chip": "ym2612"
    },
    {
      "channel": 5,
      "note": 89,
      "start": 14.9459,
      "duration": 0.0118,
      "velocity": 95,
      "chip": "ym2612"
    },
    {
      "channel": 2,
      "note": 40,
      "start": 14.9471,
      "duration": 0.0123,
      "velocity": 114,
      "chip": "ym2612"
    },
    {
      "channel": 0,
      "note": 89,
      "start": 14.9554,
      "duration": 0.0125,
      "velocity": 95,
      "chip": "ym2612"
    },
    {
      "channel": 5,
      "note": 89,
      "start": 14.9577,
      "duration": 0.0125,
      "velocity": 95,
      "chip": "ym2612"
    },
    {
      "channel": 2,
      "note": 40,
      "start": 14.9594,
      "duration": 0.0122,
      "velocity": 114,
      "chip": "ym2612"
    },
    {
      "channel": 0,
      "note": 89,
      "start": 14.9678,
      "duration": 0.0125,
      "velocity": 95,
      "chip": "ym2612"
    },
    {
      "channel": 5,
      "note": 89,
      "start": 14.9703,
      "duration": 0.0124,
      "velocity": 95,
      "chip": "ym2612"
    },
    {
      "channel": 2,
      "note": 40,
      "start": 14.9715,
      "duration": 0.0124,
      "velocity": 114,
      "chip": "ym2612"
    },
    {
      "channel": 0,
      "note": 89,
      "start": 14.9803,
      "duration": 0.0125,
      "velocity": 95,
      "chip": "ym2612"
    },
    {
      "channel": 5,
      "note": 89,
      "start": 14.9827,
      "duration": 0.0131,
      "velocity": 95,
      "chip": "ym2612"
    },
    {
      "channel": 2,
      "note": 40,
      "start": 14.984,
      "duration": 0.0131,
      "velocity": 114,
      "chip": "ym2612"
    },
    {
      "channel": 0,
      "note": 89,
      "start": 14.9928,
      "duration": 0.0123,
      "velocity": 95,
      "chip": "ym2612"
    },
    {
      "channel": 5,
      "note": 89,
      "start": 14.9958,
      "duration": 0.0161,
      "velocity": 95,
      "chip": "ym2612"
    },
    {
      "channel": 2,
      "note": 40,
      "start": 14.9971,
      "duration": 0.0159,
      "velocity": 114,
      "chip": "ym2612"
    },
    {
      "channel": 1,
      "note": 53,
      "start": 15.0065,
      "duration": 0.1861,
      "velocity": 81,
      "chip": "ym2612"
    },
    {
      "channel": 4,
      "note": 65,
      "start": 15.0101,
      "duration": 0.0835,
      "velocity": 74,
      "chip": "ym2612"
    },
    {
      "channel": 5,
      "note": 89,
      "start": 15.0119,
      "duration": 0.0073,
      "velocity": 95,
      "chip": "ym2612"
    },
    {
      "channel": 5,
      "note": 89,
      "start": 15.0193,
      "duration": 0.0125,
      "velocity": 95,
      "chip": "ym2612"
    },
    {
      "channel": 2,
      "note": 40,
      "start": 15.0215,
      "duration": 0.0115,
      "velocity": 114,
      "chip": "ym2612"
    },
    {
      "channel": 5,
      "note": 89,
      "start": 15.0318,
      "duration": 0.0131,
      "velocity": 95,
      "chip": "ym2612"
    },
    {
      "channel": 2,
      "note": 40,
      "start": 15.033,
      "duration": 0.0131,
      "velocity": 114,
      "chip": "ym2612"
    },
    {
      "channel": 5,
      "note": 89,
      "start": 15.0449,
      "duration": 0.0118,
      "velocity": 95,
      "chip": "ym2612"
    },
    {
      "channel": 2,
      "note": 40,
      "start": 15.0461,
      "duration": 0.0123,
      "velocity": 114,
      "chip": "ym2612"
    },
    {
      "channel": 5,
      "note": 89,
      "start": 15.0567,
      "duration": 0.0125,
      "velocity": 95,
      "chip": "ym2612"
    },
    {
      "channel": 2,
      "note": 40,
      "start": 15.0584,
      "duration": 0.0122,
      "velocity": 114,
      "chip": "ym2612"
    },
    {
      "channel": 5,
      "note": 89,
      "start": 15.0693,
      "duration": 0.0124,
      "velocity": 95,
      "chip": "ym2612"
    },
    {
      "channel": 2,
      "note": 40,
      "start": 15.0705,
      "duration": 0.0124,
      "velocity": 114,
      "chip": "ym2612"
    },
    {
      "channel": 5,
      "note": 89,
      "start": 15.0817,
      "duration": 0.0142,
      "velocity": 95,
      "chip": "ym2612"
    },
    {
      "channel": 2,
      "note": 40,
      "start": 15.0829,
      "duration": 0.0142,
      "velocity": 114,
      "chip": "ym2612"
    },
    {
      "channel": 4,
      "note": 75,
      "start": 15.0944,
      "duration": 0.1016,
      "velocity": 74,
      "chip": "ym2612"
    },
    {
      "channel": 5,
      "note": 89,
      "start": 15.0959,
      "duration": 0.0107,
      "velocity": 95,
      "chip": "ym2612"
    },
    {
      "channel": 2,
      "note": 40,
      "start": 15.0972,
      "duration": 0.0107,
      "velocity": 114,
      "chip": "ym2612"
    },
    {
      "channel": 5,
      "note": 89,
      "start": 15.1066,
      "duration": 0.0125,
      "velocity": 95,
      "chip": "ym2612"
    },
    {
      "channel": 2,
      "note": 40,
      "start": 15.1079,
      "duration": 0.0125,
      "velocity": 114,
      "chip": "ym2612"
    },
    {
      "channel": 5,
      "note": 89,
      "start": 15.1191,
      "duration": 0.0125,
      "velocity": 95,
      "chip": "ym2612"
    },
    {
      "channel": 2,
      "note": 40,
      "start": 15.1204,
      "duration": 0.0125,
      "velocity": 114,
      "chip": "ym2612"
    },
    {
      "channel": 5,
      "note": 89,
      "start": 15.1317,
      "duration": 0.0126,
      "velocity": 95,
      "chip": "ym2612"
    },
    {
      "channel": 2,
      "note": 40,
      "start": 15.1329,
      "duration": 0.0129,
      "velocity": 114,
      "chip": "ym2612"
    },
    {
      "channel": 2,
      "note": 39,
      "start": 15.1457,
      "duration": 0.0112,
      "velocity": 114,
      "chip": "ym2612"
    },
    {
      "channel": 2,
      "note": 39,
      "start": 15.157,
      "duration": 0.0125,
      "velocity": 114,
      "chip": "ym2612"
    },
    {
      "channel": 2,
      "note": 39,
      "start": 15.1694,
      "duration": 0.0124,
      "velocity": 114,
      "chip": "ym2612"
    },
    {
      "channel": 1,
      "note": 53,
      "start": 15.1931,
      "duration": 0.188,
      "velocity": 81,
      "chip": "ym2612"
    },
    {
      "channel": 4,
      "note": 77,
      "start": 15.1965,
      "duration": 0.0844,
      "velocity": 74,
      "chip": "ym2612"
    },
    {
      "channel": 2,
      "note": 40,
      "start": 15.1995,
      "duration": 0.0074,
      "velocity": 114,
      "chip": "ym2612"
    },
    {
      "channel": 2,
      "note": 40,
      "start": 15.2069,
      "duration": 0.0125,
      "velocity": 114,
      "chip": "ym2612"
    },
    {
      "channel": 2,
      "note": 40,
      "start": 15.2194,
      "duration": 0.0129,
      "velocity": 114,
      "chip": "ym2612"
    },
    {
      "channel": 2,
      "note": 40,
      "start": 15.2322,
      "duration": 0.0127,
      "velocity": 114,
      "chip": "ym2612"
    },
    {
      "channel": 2,
      "note": 40,
      "start": 15.2449,
      "duration": 0.0119,
      "velocity": 114,
      "chip": "ym2612"
    },
    {
      "channel": 2,
      "note": 40,
      "start": 15.2568,
      "duration": 0.0124,
      "velocity": 114,
      "chip": "ym2612"
    },
    {
      "channel": 2,
      "note": 40,
      "start": 15.2693,
      "duration": 0.0136,
      "velocity": 114,
      "chip": "ym2612"
    },
    {
      "channel": 4,
      "note": 65,
      "start": 15.2813,
      "duration": 0.1026,
      "velocity": 74,
      "chip": "ym2612"
    },
    {
      "channel": 2,
      "note": 40,
      "start": 15.2829,
      "duration": 0.012,
      "velocity": 114,
      "chip": "ym2612"
    },
    {
      "channel": 2,
      "note": 40,
      "start": 15.2949,
      "duration": 0.0119,
      "velocity": 114,
      "chip": "ym2612"
    },
    {
      "channel": 2,
      "note": 40,
      "start": 15.3068,
      "duration": 0.0125,
      "velocity": 114,
      "chip": "ym2612"
    },
    {
      "channel": 2,
      "note": 39,
      "start": 15.3193,
      "duration": 0.0124,
      "velocity": 114,
      "chip": "ym2612"
    },
    {
      "channel": 2,
      "note": 39,
      "start": 15.3317,
      "duration": 0.0131,
      "velocity": 114,
      "chip": "ym2612"
    },
    {
      "channel": 2,
      "note": 39,
      "start": 15.3448,
      "duration": 0.0118,
      "velocity": 114,
      "chip": "ym2612"
    },
    {
      "channel": 0,
      "note": 89,
      "start": 15.3801,
      "duration": 0.3742,
      "velocity": 95,
      "chip": "ym2612"
    },
    {
      "channel": 1,
      "note": 53,
      "start": 15.3816,
      "duration": 0.1855,
      "velocity": 81,
      "chip": "ym2612"
    },
    {
      "channel": 4,
      "note": 72,
      "start": 15.3844,
      "duration": 0.0846,
      "velocity": 74,
      "chip": "ym2612"
    },
    {
      "channel": 2,
      "note": 41,
      "start": 15.3902,
      "duration": 0.0824,
      "velocity": 122,
      "chip": "ym2612"
    },
    {
      "channel": 4,
      "note": 75,
      "start": 15.4694,
      "duration": 0.0998,
      "velocity": 74,
      "chip": "ym2612"
    },
    {
      "channel": 2,
      "note": 40,
      "start": 15.4753,
      "duration": 0.0063,
      "velocity": 114,
      "chip": "ym2612"
    },
    {
      "channel": 2,
      "note": 40,
      "start": 15.4816,
      "duration": 0.0128,
      "velocity": 114,
      "chip": "ym2612"
    },
    {
      "channel": 2,
      "note": 40,
      "start": 15.4944,
      "duration": 0.0125,
      "velocity": 114,
      "chip": "ym2612"
    },
    {
      "channel": 2,
      "note": 40,
      "start": 15.5069,
      "duration": 0.0134,
      "velocity": 114,
      "chip": "ym2612"
    },
    {
      "channel": 5,
      "note": 89,
      "start": 15.519,
      "duration": 0.3744,
      "velocity": 95,
      "chip": "ym2612"
    },
    {
      "channel": 2,
      "note": 40,
      "start": 15.5203,
      "duration": 0.0112,
      "velocity": 114,
      "chip": "ym2612"
    },
    {
      "channel": 2,
      "note": 40,
      "start": 15.5315,
      "duration": 0.0128,
      "velocity": 114,
      "chip": "ym2612"
    },
    {
      "channel": 2,
      "note": 40,
      "start": 15.5443,
      "duration": 0.0122,
      "velocity": 114,
      "chip": "ym2612"
    },
    {
      "channel": 2,
      "note": 40,
      "start": 15.5565,
      "duration": 0.0148,
      "velocity": 114,
      "chip": "ym2612"
    },
    {
      "channel": 1,
      "note": 53,
      "start": 15.5676,
      "duration": 0.1882,
      "velocity": 81,
      "chip": "ym2612"
    },
    {
      "channel": 4,
      "note": 65,
      "start": 15.5696,
      "duration": 0.0858,
      "velocity": 74,
      "chip": "ym2612"
    },
    {
      "channel": 2,
      "note": 40,
      "start": 15.5712,
      "duration": 0.0102,
      "velocity": 114,
      "chip": "ym2612"
    },
    {
      "channel": 2,
      "note": 40,
      "start": 15.5814,
      "duration": 0.0129,
      "velocity": 114,
      "chip": "ym2612"
    },
    {
      "channel": 2,
      "note": 39,
      "start": 15.5942,
      "duration": 0.0122,
      "velocity": 114,
      "chip": "ym2612"
    },
    {
      "channel": 2,
      "note": 39,
      "start": 15.6064,
      "duration": 0.0125,
      "velocity": 114,
      "chip": "ym2612"
    },
    {
      "channel": 2,
      "note": 39,
      "start": 15.6189,
      "duration": 0.0125,
      "velocity": 114,
      "chip": "ym2612"
    },
    {
      "channel": 4,
      "note": 70,
      "start": 15.6559,
      "duration": 0.1026,
      "velocity": 74,
      "chip": "ym2612"
    },
    {
      "channel": 0,
      "note": 91,
      "start": 15.7548,
      "duration": 0.3746,
      "velocity": 95,
      "chip": "ym2612"
    },
    {
      "channel": 1,
      "note": 53,
      "start": 15.7562,
      "duration": 0.1859,
      "velocity": 81,
      "chip": "ym2612"
    },
    {
      "channel": 4,
      "note": 72,
      "start": 15.7591,
      "duration": 0.0839,
      "velocity": 74,
      "chip": "ym2612"
    },
    {
      "channel": 2,
      "note": 40,
      "start": 15.7626,
      "duration": 0.0062,
      "velocity": 114,
      "chip": "ym2612"
    },
    {
      "channel": 2,
      "note": 40,
      "start": 15.7689,
      "duration": 0.0125,
      "velocity": 114,
      "chip": "ym2612"
    },
    {
      "channel": 2,
      "note": 40,
      "start": 15.7814,
      "duration": 0.0135,
      "velocity": 114,
      "chip": "ym2612"
    },
    {
      "channel": 2,
      "note": 40,
      "start": 15.7949,
      "duration": 0.0115,
      "velocity": 114,
      "chip": "ym2612"
    },
    {
      "channel": 2,
      "note": 40,
      "start": 15.8063,
      "duration": 0.0125,
      "velocity": 114,
      "chip": "ym2612"
    },
    {
      "channel": 2,
      "note": 40,
      "start": 15.8189,
      "duration": 0.0125,
      "velocity": 114,
      "chip": "ym2612"
    },
    {
      "channel": 2,
      "note": 40,
      "start": 15.8314,
      "duration": 0.0142,
      "velocity": 114,
      "chip": "ym2612"
    },
    {
      "channel": 4,
      "note": 65,
      "start": 15.8434,
      "duration": 0.1021,
      "velocity": 74,
      "chip": "ym2612"
    },
    {
      "channel": 2,
      "note": 40,
      "start": 15.8456,
      "duration": 0.0107,
      "velocity": 114,
      "chip": "ym2612"
    },
    {
      "channel": 2,
      "note": 40,
      "start": 15.8563,
      "duration": 0.0125,
      "velocity": 114,
      "chip": "ym2612"
    },
    {
      "channel": 2,
      "note": 40,
      "start": 15.8689,
      "duration": 0.0125,
      "velocity": 114,
      "chip": "ym2612"
    },
    {
      "channel": 2,
      "note": 39,
      "start": 15.8814,
      "duration": 0.0143,
      "velocity": 114,
      "chip": "ym2612"
    },
    {
      "channel": 5,
      "note": 91,
      "start": 15.8942,
      "duration": 0.3741,
      "velocity": 95,
      "chip": "ym2612"
    },
    {
      "channel": 2,
      "note": 39,
      "start": 15.8957,
      "duration": 0.0106,
      "velocity": 114,
      "chip": "ym2612"
    },
    {
      "channel": 2,
      "note": 39,
      "start": 15.9063,
      "duration": 0.0125,
      "velocity": 114,
      "chip": "ym2612"
    },
    {
      "channel": 1,
      "note": 65,
      "start": 15.9425,
      "duration": 0.087,
      "velocity": 81,
      "chip": "ym2612"
    },
    {
      "channel": 4,
      "note": 68,
      "start": 15.946,
      "duration": 0.0856,
      "velocity": 74,
      "chip": "ym2612"
    },
    {
      "channel": 2,
      "note": 40,
      "start": 15.949,
      "duration": 0.0074,
      "velocity": 114,
      "chip": "ym2612"
    },
    {
      "channel": 2,
      "note": 40,
      "start": 15.9563,
      "duration": 0.0125,
      "velocity": 114,
      "chip": "ym2612"
    },
    {
      "channel": 2,
      "note": 40,
      "start": 15.9689,
      "duration": 0.0129,
      "velocity": 114,
      "chip": "ym2612"
    },
    {
      "channel": 2,
      "note": 40,
      "start": 15.9818,
      "duration": 0.0125,
      "velocity": 114,
      "chip": "ym2612"
    },
    {
      "channel": 2,
      "note": 40,
      "start": 15.9942,
      "duration": 0.0121,
      "velocity": 114,
      "chip": "ym2612"
    },
    {
      "channel": 2,
      "note": 40,
      "start": 16.0063,
      "duration": 0.0125,
      "velocity": 114,
      "chip": "ym2612"
    },
    {
      "channel": 2,
      "note": 40,
      "start": 16.0189,
      "duration": 0.0148,
      "velocity": 114,
      "chip": "ym2612"
    },
    {
      "channel": 1,
      "note": 65,
      "start": 16.0301,
      "duration": 0.1007,
      "velocity": 81,
      "chip": "ym2612"
    },
    {
      "channel": 4,
      "note": 70,
      "start": 16.0321,
      "duration": 0.1015,
      "velocity": 74,
      "chip": "ym2612"
    },
    {
      "channel": 2,
      "note": 40,
      "start": 16.0337,
      "duration": 0.0106,
      "velocity": 114,
      "chip": "ym2612"
    },
    {
      "channel": 2,
      "note": 40,
      "start": 16.0442,
      "duration": 0.0121,
      "velocity": 114,
      "chip": "ym2612"
    },
    {
      "channel": 2,
      "note": 40,
      "start": 16.0563,
      "duration": 0.0125,
      "velocity": 114,
      "chip": "ym2612"
    },
    {
      "channel": 2,
      "note": 39,
      "start": 16.0689,
      "duration": 0.0125,
      "velocity": 114,
      "chip": "ym2612"
    },
    {
      "channel": 2,
      "note": 39,
      "start": 16.0814,
      "duration": 0.0129,
      "velocity": 114,
      "chip": "ym2612"
    },
    {
      "channel": 2,
      "note": 39,
      "start": 16.0942,
      "duration": 0.012,
      "velocity": 114,
      "chip": "ym2612"
    },
    {
      "channel": 0,
      "note": 92,
      "start": 16.1299,
      "duration": 0.3745,
      "velocity": 95,
      "chip": "ym2612"
    },
    {
      "channel": 1,
      "note": 53,
      "start": 16.1313,
      "duration": 0.1857,
      "velocity": 81,
      "chip": "ym2612"
    },
    {
      "channel": 4,
      "note": 65,
      "start": 16.1341,
      "duration": 0.0838,
      "velocity": 74,
      "chip": "ym2612"
    },
    {
      "channel": 2,
      "note": 41,
      "start": 16.1399,
      "duration": 0.1836,
      "velocity": 122,
      "chip": "ym2612"
    },
    {
      "channel": 4,
      "note": 67,
      "start": 16.2184,
      "duration": 0.1015,
      "velocity": 74,
      "chip": "ym2612"
    },
    {
      "channel": 5,
      "note": 92,
      "start": 16.2688,
      "duration": 0.3746,
      "velocity": 95,
      "chip": "ym2612"
    },
    {
      "channel": 1,
      "note": 65,
      "start": 16.3175,
      "duration": 0.087,
      "velocity": 81,
      "chip": "ym2612"
    },
    {
      "channel": 4,
      "note": 56,
      "start": 16.3203,
      "duration": 0.087,
      "velocity": 74,
      "chip": "ym2612"
    },
    {
      "channel": 2,
      "note": 40,
      "start": 16.3262,
      "duration": 0.0052,
      "velocity": 114,
      "chip": "ym2612"
    },
    {
      "channel": 2,
      "note": 40,
      "start": 16.3314,
      "duration": 0.0129,
      "velocity": 114,
      "chip": "ym2612"
    },
    {
      "channel": 2,
      "note": 40,
      "start": 16.3442,
      "duration": 0.0125,
      "velocity": 114,
      "chip": "ym2612"
    },
    {
      "channel": 2,
      "note": 40,
      "start": 16.3567,
      "duration": 0.0122,
      "velocity": 114,
      "chip": "ym2612"
    },
    {
      "channel": 2,
      "note": 40,
      "start": 16.3689,
      "duration": 0.0125,
      "velocity": 114,
      "chip": "ym2612"
    },
    {
      "channel": 2,
      "note": 40,
      "start": 16.3814,
      "duration": 0.0129,
      "velocity": 114,
      "chip": "ym2612"
    },
    {
      "channel": 2,
      "note": 40,
      "start": 16.3942,
      "duration": 0.015,
      "velocity": 114,
      "chip": "ym2612"
    },
    {
      "channel": 1,
      "note": 65,
      "start": 16.405,
      "duration": 0.1008,
      "velocity": 81,
      "chip": "ym2612"
    },
    {
      "channel": 4,
      "note": 63,
      "start": 16.4078,
      "duration": 0.1015,
      "velocity": 74,
      "chip": "ym2612"
    },
    {
      "channel": 2,
      "note": 40,
      "start": 16.4198,
      "duration": 0.0116,
      "velocity": 114,
      "chip": "ym2612"
    },
    {
      "channel": 2,
      "note": 40,
      "start": 16.4314,
      "duration": 0.0129,
      "velocity": 114,
      "chip": "ym2612"
    },
    {
      "channel": 2,
      "note": 40,
      "start": 16.4442,
      "duration": 0.0125,
      "velocity": 114,
      "chip": "ym2612"
    },
    {
      "channel": 2,
      "note": 40,
      "start": 16.4567,
      "duration": 0.0122,
      "velocity": 114,
      "chip": "ym2612"
    },
    {
      "channel": 2,
      "note": 40,
      "start": 16.4689,
      "duration": 0.0125,
      "velocity": 114,
      "chip": "ym2612"
    },
    {
      "channel": 2,
      "note": 40,
      "start": 16.4814,
      "duration": 0.0129,
      "velocity": 114,
      "chip": "ym2612"
    },
    {
      "channel": 2,
      "note": 40,
      "start": 16.4942,
      "duration": 0.0176,
      "velocity": 114,
      "chip": "ym2612"
    },
    {
      "channel": 0,
      "note": 89,
      "start": 16.5048,
      "duration": 0.3747,
      "velocity": 95,
      "chip": "ym2612"
    },
    {
      "channel": 1,
      "note": 49,
      "start": 16.5063,
      "duration": 0.1858,
      "velocity": 81,
      "chip": "ym2612"
    },
    {
      "channel": 4,
      "note": 65,
      "start": 16.5099,
      "duration": 0.0831,
      "velocity": 74,
      "chip": "ym2612"
    },
    {
      "channel": 2,
      "note": 40,
      "start": 16.5198,
      "duration": 0.0116,
      "velocity": 114,
      "chip": "ym2612"
    },
    {
      "channel": 2,
      "note": 40,
      "start": 16.5314,
      "duration": 0.0129,
      "velocity": 114,
      "chip": "ym2612"
    },
    {
      "channel": 2,
      "note": 40,
      "start": 16.5442,
      "duration": 0.0125,
      "velocity": 114,
      "chip": "ym2612"
    },
    {
      "channel": 2,
      "note": 40,
      "start": 16.5568,
      "duration": 0.0121,
      "velocity": 114,
      "chip": "ym2612"
    },
    {
      "channel": 2,
      "note": 40,
      "start": 16.5689,
      "duration": 0.0125,
      "velocity": 114,
      "chip": "ym2612"
    },
    {
      "channel": 2,
      "note": 40,
      "start": 16.5814,
      "duration": 0.0142,
      "velocity": 114,
      "chip": "ym2612"
    },
    {
      "channel": 4,
      "note": 75,
      "start": 16.5934,
      "duration": 0.102,
      "velocity": 74,
      "chip": "ym2612"
    },
    {
      "channel": 2,
      "note": 40,
      "start": 16.5956,
      "duration": 0.0107,
      "velocity": 114,
      "chip": "ym2612"
    },
    {
      "channel": 2,
      "note": 40,
      "start": 16.6063,
      "duration": 0.0125,
      "velocity": 114,
      "chip": "ym2612"
    },
    {
      "channel": 2,
      "note": 40,
      "start": 16.6189,
      "duration": 0.0125,
      "velocity": 114,
      "chip": "ym2612"
    },
    {
      "channel": 2,
      "note": 40,
      "start": 16.6314,
      "duration": 0.0143,
      "velocity": 114,
      "chip": "ym2612"
    },
    {
      "channel": 5,
      "note": 89,
      "start": 16.6442,
      "duration": 0.3752,
      "velocity": 95,
      "chip": "ym2612"
    },
    {
      "channel": 2,
      "note": 39,
      "start": 16.6457,
      "duration": 0.0106,
      "velocity": 114,
      "chip": "ym2612"
    },
    {
      "channel": 2,
      "note": 39,
      "start": 16.6563,
      "duration": 0.0125,
      "velocity": 114,
      "chip": "ym2612"
    },
    {
      "channel": 2,
      "note": 39,
      "start": 16.6689,
      "duration": 0.0125,
      "velocity": 114,
      "chip": "ym2612"
    },
    {
      "channel": 1,
      "note": 49,
      "start": 16.6925,
      "duration": 0.1879,
      "velocity": 81,
      "chip": "ym2612"
    },
    {
      "channel": 4,
      "note": 77,
      "start": 16.696,
      "duration": 0.0845,
      "velocity": 74,
      "chip": "ym2612"
    },
    {
      "channel": 2,
      "note": 40,
      "start": 16.6989,
      "duration": 0.0074,
      "velocity": 114,
      "chip": "ym2612"
    },
    {
      "channel": 2,
      "note": 40,
      "start": 16.7063,
      "duration": 0.0125,
      "velocity": 114,
      "chip": "ym2612"
    },
    {
      "channel": 2,
      "note": 40,
      "start": 16.7189,
      "duration": 0.0129,
      "velocity": 114,
      "chip": "ym2612"
    },
    {
      "channel": 2,
      "note": 40,
      "start": 16.7318,
      "duration": 0.0125,
      "velocity": 114,
      "chip": "ym2612"
    },
    {
      "channel": 2,
      "note": 40,
      "start": 16.7442,
      "duration": 0.0121,
      "velocity": 114,
      "chip": "ym2612"
    },
    {
      "channel": 2,
      "note": 40,
      "start": 16.7563,
      "duration": 0.0125,
      "velocity": 114,
      "chip": "ym2612"
    },
    {
      "channel": 2,
      "note": 40,
      "start": 16.7689,
      "duration": 0.0137,
      "velocity": 114,
      "chip": "ym2612"
    },
    {
      "channel": 4,
      "note": 65,
      "start": 16.781,
      "duration": 0.1024,
      "velocity": 74,
      "chip": "ym2612"
    },
    {
      "channel": 2,
      "note": 40,
      "start": 16.7825,
      "duration": 0.0117,
      "velocity": 114,
      "chip": "ym2612"
    },
    {
      "channel": 2,
      "note": 40,
      "start": 16.7942,
      "duration": 0.0121,
      "velocity": 114,
      "chip": "ym2612"
    },
    {
      "channel": 2,
      "note": 40,
      "start": 16.8063,
      "duration": 0.0125,
      "velocity": 114,
      "chip": "ym2612"
    },
    {
      "channel": 2,
      "note": 39,
      "start": 16.8189,
      "duration": 0.0125,
      "velocity": 114,
      "chip": "ym2612"
    },
    {
      "channel": 2,
      "note": 39,
      "start": 16.8314,
      "duration": 0.0129,
      "velocity": 114,
      "chip": "ym2612"
    },
    {
      "channel": 2,
      "note": 39,
      "start": 16.8442,
      "duration": 0.012,
      "velocity": 114,
      "chip": "ym2612"
    },
    {
      "channel": 0,
      "note": 89,
      "start": 16.8795,
      "duration": 0.0125,
      "velocity": 95,
      "chip": "ym2612"
    },
    {
      "channel": 1,
      "note": 49,
      "start": 16.881,
      "duration": 0.187,
      "velocity": 81,
      "chip": "ym2612"
    },
    {
      "channel": 4,
      "note": 73,
      "start": 16.8838,
      "duration": 0.0858,
      "velocity": 74,
      "chip": "ym2612"
    },
    {
      "channel": 2,
      "note": 41,
      "start": 16.8895,
      "duration": 0.0837,
      "velocity": 122,
      "chip": "ym2612"
    },
    {
      "channel": 0,
      "note": 89,
      "start": 16.892,
      "duration": 0.0125,
      "velocity": 95,
      "chip": "ym2612"
    },
    {
      "channel": 0,
      "note": 89,
      "start": 16.9045,
      "duration": 0.0125,
      "velocity": 95,
      "chip": "ym2612"
    },
    {
      "channel": 0,
      "note": 89,
      "start": 16.917,
      "duration": 0.0126,
      "velocity": 95,
      "chip": "ym2612"
    },
    {
      "channel": 0,
      "note": 89,
      "start": 16.9295,
      "duration": 0.0125,
      "velocity": 95,
      "chip": "ym2612"
    },
    {
      "channel": 0,
      "note": 89,
      "start": 16.942,
      "duration": 0.0125,
      "velocity": 95,
      "chip": "ym2612"
    },
    {
      "channel": 0,
      "note": 89,
      "start": 16.9545,
      "duration": 0.0125,
      "velocity": 95,
      "chip": "ym2612"
    },
    {
      "channel": 0,
      "note": 89,
      "start": 16.967,
      "duration": 0.0125,
      "velocity": 95,
      "chip": "ym2612"
    },
    {
      "channel": 4,
      "note": 75,
      "start": 16.9701,
      "duration": 0.0998,
      "velocity": 74,
      "chip": "ym2612"
    },
    {
      "channel": 2,
      "note": 40,
      "start": 16.976,
      "duration": 0.0063,
      "velocity": 114,
      "chip": "ym2612"
    },
    {
      "channel": 0,
      "note": 89,
      "start": 16.9795,
      "duration": 0.0125,
      "velocity": 95,
      "chip": "ym2612"
    },
    {
      "channel": 2,
      "note": 40,
      "start": 16.9823,
      "duration": 0.0131,
      "velocity": 114,
      "chip": "ym2612"
    },
    {
      "channel": 0,
      "note": 89,
      "start": 16.992,
      "duration": 0.0125,
      "velocity": 95,
      "chip": "ym2612"
    },
    {
      "channel": 2,
      "note": 40,
      "start": 16.9954,
      "duration": 0.0123,
      "velocity": 114,
      "chip": "ym2612"
    },
    {
      "channel": 0,
      "note": 89,
      "start": 17.0045,
      "duration": 0.0125,
      "velocity": 95,
      "chip": "ym2612"
    },
    {
      "channel": 2,
      "note": 40,
      "start": 17.0077,
      "duration": 0.013,
      "velocity": 114,
      "chip": "ym2612"
    },
    {
      "channel": 0,
      "note": 89,
      "start": 17.017,
      "duration": 0.0126,
      "velocity": 95,
      "chip": "ym2612"
    },
    {
      "channel": 5,
      "note": 89,
      "start": 17.0194,
      "duration": 0.0125,
      "velocity": 95,
      "chip": "ym2612"
    },
    {
      "channel": 2,
      "note": 40,
      "start": 17.0206,
      "duration": 0.0125,
      "velocity": 114,
      "chip": "ym2612"
    },
    {
      "channel": 0,
      "note": 89,
      "start": 17.0295,
      "duration": 0.0125,
      "velocity": 95,
      "chip": "ym2612"
    },
    {
      "channel": 5,
      "note": 89,
      "start": 17.0319,
      "duration": 0.0131,
      "velocity": 95,
      "chip": "ym2612"
    },
    {
      "channel": 2,
      "note": 40,
      "start": 17.0332,
      "duration": 0.0131,
      "velocity": 114,
      "chip": "ym2612"
    },
    {
      "channel": 0,
      "note": 89,
      "start": 17.042,
      "duration": 0.0125,
      "velocity": 95,
      "chip": "ym2612"
    },
    {
      "channel": 5,
      "note": 89,
      "start": 17.045,
      "duration": 0.0119,
      "velocity": 95,
      "chip": "ym2612"
    },
    {
      "channel": 2,
      "note": 40,
      "start": 17.0463,
      "duration": 0.0119,
      "velocity": 114,
      "chip": "ym2612"
    },
    {
      "channel": 0,
      "note": 89,
      "start": 17.0545,
      "duration": 0.0125,
      "velocity": 95,
      "chip": "ym2612"
    },
    {
      "channel": 5,
      "note": 89,
      "start": 17.0569,
      "duration": 0.0148,
      "velocity": 95,
      "chip": "ym2612"
    },
    {
      "channel": 2,
      "note": 40,
      "start": 17.0582,
      "duration": 0.0147,
      "velocity": 114,
      "chip": "ym2612"
    },
    {
      "channel": 0,
      "note": 89,
      "start": 17.067,
      "duration": 0.0126,
      "velocity": 95,
      "chip": "ym2612"
    },
    {
      "channel": 1,
      "note": 49,
      "start": 17.0684,
      "duration": 0.187,
      "velocity": 81,
      "chip": "ym2612"
    },
    {
      "channel": 4,
      "note": 65,
      "start": 17.0705,
      "duration": 0.0859,
      "velocity": 74,
      "chip": "ym2612"
    },
    {
      "channel": 5,
      "note": 89,
      "start": 17.0717,
      "duration": 0.0103,
      "velocity": 95,
      "chip": "ym2612"
    },
    {
      "channel": 2,
      "note": 40,
      "start": 17.0729,
      "duration": 0.0102,
      "velocity": 114,
      "chip": "ym2612"
    },
    {
      "channel": 0,
      "note": 89,
      "start": 17.0795,
      "duration": 0.0125,
      "velocity": 95,
      "chip": "ym2612"
    },
    {
      "channel": 5,
      "note": 89,
      "start": 17.082,
      "duration": 0.013,
      "velocity": 95,
      "chip": "ym2612"
    },
    {
      "channel": 2,
      "note": 40,
      "start": 17.0832,
      "duration": 0.0131,
      "velocity": 114,
      "chip": "ym2612"
    },
    {
      "channel": 0,
      "note": 89,
      "start": 17.092,
      "duration": 0.0125,
      "velocity": 95,
      "chip": "ym2612"
    },
    {
      "channel": 5,
      "note": 89,
      "start": 17.095,
      "duration": 0.0119,
      "velocity": 95,
      "chip": "ym2612"
    },
    {
      "channel": 2,
      "note": 39,
      "start": 17.0963,
      "duration": 0.0119,
      "velocity": 114,
      "chip": "ym2612"
    },
    {
      "channel": 0,
      "note": 89,
      "start": 17.1045,
      "duration": 0.0125,
      "velocity": 95,
      "chip": "ym2612"
    },
    {
      "channel": 5,
      "note": 89,
      "start": 17.1069,
      "duration": 0.0125,
      "velocity": 95,
      "chip": "ym2612"
    },
    {
      "channel": 2,
      "note": 39,
      "start": 17.1082,
      "duration": 0.0124,
      "velocity": 114,
      "chip": "ym2612"
    },
    {
      "channel": 0,
      "note": 89,
      "start": 17.117,
      "duration": 0.0126,
      "velocity": 95,
      "chip": "ym2612"
    },
    {
      "channel": 5,
      "note": 89,
      "start": 17.1194,
      "duration": 0.0125,
      "velocity": 95,
      "chip": "ym2612"
    },
    {
      "channel": 2,
      "note": 39,
      "start": 17.1206,
      "duration": 0.0125,
      "velocity": 114,
      "chip": "ym2612"
    },
    {
      "channel": 0,
      "note": 89,
      "start": 17.1295,
      "duration": 0.0125,
      "velocity": 95,
      "chip": "ym2612"
    },
    {
      "channel": 5,
      "note": 89,
      "start": 17.1319,
      "duration": 0.0131,
      "velocity": 95,
      "chip": "ym2612"
    },
    {
      "channel": 0,
      "note": 89,
      "start": 17.142,
      "duration": 0.0125,
      "velocity": 95,
      "chip": "ym2612"
    },
    {
      "channel": 5,
      "note": 89,
      "start": 17.145,
      "duration": 0.013,
      "velocity": 95,
      "chip": "ym2612"
    },
    {
      "channel": 0,
      "note": 89,
      "start": 17.1545,
      "duration": 0.0125,
      "velocity": 95,
      "chip": "ym2612"
    },
    {
      "channel": 4,
      "note": 72,
      "start": 17.1568,
      "duration": 0.1014,
      "velocity": 74,
      "chip": "ym2612"
    },
    {
      "channel": 5,
      "note": 89,
      "start": 17.158,
      "duration": 0.0113,
      "velocity": 95,
      "chip": "ym2612"
    },
    {
      "channel": 0,
      "note": 89,
      "start": 17.167,
      "duration": 0.0126,
      "velocity": 95,
      "chip": "ym2612"
    },
    {
      "channel": 5,
      "note": 89,
      "start": 17.1694,
      "duration": 0.0125,
      "velocity": 95,
      "chip": "ym2612"
    },
    {
      "channel": 0,
      "note": 89,
      "start": 17.1795,
      "duration": 0.0125,
      "velocity": 95,
      "chip": "ym2612"
    },
    {
      "channel": 5,
      "note": 89,
      "start": 17.1819,
      "duration": 0.0131,
      "velocity": 95,
      "chip": "ym2612"
    },
    {
      "channel": 0,
      "note": 89,
      "start": 17.192,
      "duration": 0.0125,
      "velocity": 95,
      "chip": "ym2612"
    },
    {
      "channel": 5,
      "note": 89,
      "start": 17.195,
      "duration": 0.0119,
      "velocity": 95,
      "chip": "ym2612"
    },
    {
      "channel": 0,
      "note": 89,
      "start": 17.2045,
      "duration": 0.0125,
      "velocity": 95,
      "chip": "ym2612"
    },
    {
      "channel": 5,
      "note": 89,
      "start": 17.2069,
      "duration": 0.0125,
      "velocity": 95,
      "chip": "ym2612"
    },
    {
      "channel": 0,
      "note": 89,
      "start": 17.217,
      "duration": 0.0126,
      "velocity": 95,
      "chip": "ym2612"
    },
    {
      "channel": 5,
      "note": 89,
      "start": 17.2194,
      "duration": 0.0125,
      "velocity": 95,
      "chip": "ym2612"
    },
    {
      "channel": 0,
      "note": 89,
      "start": 17.2295,
      "duration": 0.0125,
      "velocity": 95,
      "chip": "ym2612"
    },
    {
      "channel": 5,
      "note": 89,
      "start": 17.2319,
      "duration": 0.0131,
      "velocity": 95,
      "chip": "ym2612"
    },
    {
      "channel": 0,
      "note": 89,
      "start": 17.242,
      "duration": 0.0125,
      "velocity": 95,
      "chip": "ym2612"
    },
    {
      "channel": 5,
      "note": 89,
      "start": 17.245,
      "duration": 0.0149,
      "velocity": 95,
      "chip": "ym2612"
    },
    {
      "channel": 0,
      "note": 89,
      "start": 17.2545,
      "duration": 0.0125,
      "velocity": 95,
      "chip": "ym2612"
    },
    {
      "channel": 1,
      "note": 49,
      "start": 17.2559,
      "duration": 0.187,
      "velocity": 81,
      "chip": "ym2612"
    },
    {
      "channel": 4,
      "note": 73,
      "start": 17.2588,
      "duration": 0.0854,
      "velocity": 74,
      "chip": "ym2612"
    },
    {
      "channel": 5,
      "note": 89,
      "start": 17.26,
      "duration": 0.0094,
      "velocity": 95,
      "chip": "ym2612"
    },
    {
      "channel": 2,
      "note": 40,
      "start": 17.2632,
      "duration": 0.0074,
      "velocity": 114,
      "chip": "ym2612"
    },
    {
      "channel": 0,
      "note": 89,
      "start": 17.267,
      "duration": 0.0126,
      "velocity": 95,
      "chip": "ym2612"
    },
    {
      "channel": 5,
      "note": 89,
      "start": 17.2694,
      "duration": 0.0125,
      "velocity": 95,
      "chip": "ym2612"
    },
    {
      "channel": 2,
      "note": 40,
      "start": 17.2706,
      "duration": 0.0125,
      "velocity": 114,
      "chip": "ym2612"
    },
    {
      "channel": 0,
      "note": 89,
      "start": 17.2795,
      "duration": 0.0125,
      "velocity": 95,
      "chip": "ym2612"
    },
    {
      "channel": 5,
      "note": 89,
      "start": 17.2819,
      "duration": 0.0131,
      "velocity": 95,
      "chip": "ym2612"
    },
    {
      "channel": 2,
      "note": 40,
      "start": 17.2832,
      "duration": 0.0135,
      "velocity": 114,
      "chip": "ym2612"
    },
    {
      "channel": 0,
      "note": 89,
      "start": 17.292,
      "duration": 0.0125,
      "velocity": 95,
      "chip": "ym2612"
    },
    {
      "channel": 5,
      "note": 89,
      "start": 17.295,
      "duration": 0.0119,
      "velocity": 95,
      "chip": "ym2612"
    },
    {
      "channel": 2,
      "note": 40,
      "start": 17.2967,
      "duration": 0.0115,
      "velocity": 114,
      "chip": "ym2612"
    },
    {
      "channel": 0,
      "note": 89,
      "start": 17.3045,
      "duration": 0.0125,
      "velocity": 95,
      "chip": "ym2612"
    },
    {
      "channel": 5,
      "note": 89,
      "start": 17.3069,
      "duration": 0.0125,
      "velocity": 95,
      "chip": "ym2612"
    },
    {
      "channel": 2,
      "note": 40,
      "start": 17.3082,
      "duration": 0.0124,
      "velocity": 114,
      "chip": "ym2612"
    },
    {
      "channel": 0,
      "note": 89,
      "start": 17.317,
      "duration": 0.0125,
      "velocity": 95,
      "chip": "ym2612"
    },
    {
      "channel": 5,
      "note": 89,
      "start": 17.3194,
      "duration": 0.0125,
      "velocity": 95,
      "chip": "ym2612"
    },
    {
      "channel": 2,
      "note": 40,
      "start": 17.3206,
      "duration": 0.0125,
      "velocity": 114,
      "chip": "ym2612"
    },
    {
      "channel": 0,
      "note": 89,
      "start": 17.3295,
      "duration": 0.0125,
      "velocity": 95,
      "chip": "ym2612"
    },
    {
      "channel": 5,
      "note": 89,
      "start": 17.3319,
      "duration": 0.0142,
      "velocity": 95,
      "chip": "ym2612"
    },
    {
      "channel": 2,
      "note": 40,
      "start": 17.3332,
      "duration": 0.0142,
      "velocity": 114,
      "chip": "ym2612"
    },
    {
      "channel": 0,
      "note": 89,
      "start": 17.342,
      "duration": 0.0125,
      "velocity": 95,
      "chip": "ym2612"
    },
    {
      "channel": 4,
      "note": 65,
      "start": 17.3449,
      "duration": 0.1015,
      "velocity": 74,
      "chip": "ym2612"
    },
    {
      "channel": 5,
      "note": 89,
      "start": 17.3461,
      "duration": 0.0107,
      "velocity": 95,
      "chip": "ym2612"
    },
    {
      "channel": 2,
      "note": 40,
      "start": 17.3474,
      "duration": 0.0108,
      "velocity": 114,
      "chip": "ym2612"
    },
    {
      "channel": 0,
      "note": 89,
      "start": 17.3545,
      "duration": 0.0125,
      "velocity": 95,
      "chip": "ym2612"
    },
    {
      "channel": 5,
      "note": 89,
      "start": 17.3569,
      "duration": 0.0125,
      "velocity": 95,
      "chip": "ym2612"
    },
    {
      "channel": 2,
      "note": 40,
      "start": 17.3582,
      "duration": 0.0124,
      "velocity": 114,
      "chip": "ym2612"
    },
    {
      "channel": 0,
      "note": 89,
      "start": 17.367,
      "duration": 0.0126,
      "velocity": 95,
      "chip": "ym2612"
    },
    {
      "channel": 5,
      "note": 89,
      "start": 17.3694,
      "duration": 0.0125,
      "velocity": 95,
      "chip": "ym2612"
    },
    {
      "channel": 2,
      "note": 40,
      "start": 17.3706,
      "duration": 0.0125,
      "velocity": 114,
      "chip": "ym2612"
    },
    {
      "channel": 0,
      "note": 89,
      "start": 17.3795,
      "duration": 0.0125,
      "velocity": 95,
      "chip": "ym2612"
    },
    {
      "channel": 5,
      "note": 89,
      "start": 17.3819,
      "duration": 0.0131,
      "velocity": 95,
      "chip": "ym2612"
    },
    {
      "channel": 2,
      "note": 39,
      "start": 17.3832,
      "duration": 0.0131,
      "velocity": 114,
      "chip": "ym2612"
    },
    {
      "channel": 0,
      "note": 89,
      "start": 17.392,
      "duration": 0.0125,
      "velocity": 95,
      "chip": "ym2612"
    },
    {
      "channel": 5,
      "note": 89,
      "start": 17.395,
      "duration": 0.0119,
      "velocity": 95,
      "chip": "ym2612"
    },
    {
      "channel": 2,
      "note": 39,
      "start": 17.3963,
      "duration": 0.0119,
      "velocity": 114,
      "chip": "ym2612"
    },
    {
      "channel": 0,
      "note": 89,
      "start": 17.4045,
      "duration": 0.0125,
      "velocity": 95,
      "chip": "ym2612"
    },
    {
      "channel": 5,
      "note": 89,
      "start": 17.4069,
      "duration": 0.0125,
      "velocity": 95,
      "chip": "ym2612"
    },
    {
      "channel": 2,
      "note": 39,
      "start": 17.4082,
      "duration": 0.0124,
      "velocity": 114,
      "chip": "ym2612"
    },
    {
      "channel": 0,
      "note": 89,
      "start": 17.417,
      "duration": 0.0126,
      "velocity": 95,
      "chip": "ym2612"
    },
    {
      "channel": 5,
      "note": 89,
      "start": 17.4194,
      "duration": 0.0125,
      "velocity": 95,
      "chip": "ym2612"
    },
    {
      "channel": 0,
      "note": 89,
      "start": 17.4295,
      "duration": 0.0125,
      "velocity": 95,
      "chip": "ym2612"
    },
    {
      "channel": 5,
      "note": 89,
      "start": 17.4319,
      "duration": 0.0161,
      "velocity": 95,
      "chip": "ym2612"
    },
    {
      "channel": 0,
      "note": 89,
      "start": 17.442,
      "duration": 0.0125,
      "velocity": 95,
      "chip": "ym2612"
    },
    {
      "channel": 1,
      "note": 61,
      "start": 17.4434,
      "duration": 0.087,
      "velocity": 81,
      "chip": "ym2612"
    },
    {
      "channel": 4,
      "note": 70,
      "start": 17.4468,
      "duration": 0.0857,
      "velocity": 74,
      "chip": "ym2612"
    },
    {
      "channel": 5,
      "note": 89,
      "start": 17.448,
      "duration": 0.0088,
      "velocity": 95,
      "chip": "ym2612"
    },
    {
      "channel": 2,
      "note": 40,
      "start": 17.4507,
      "duration": 0.0075,
      "velocity": 114,
      "chip": "ym2612"
    },
    {
      "channel": 0,
      "note": 89,
      "start": 17.4545,
      "duration": 0.0125,
      "velocity": 95,
      "chip": "ym2612"
    },
    {
      "channel": 5,
      "note": 89,
      "start": 17.4569,
      "duration": 0.0125,
      "velocity": 95,
      "chip": "ym2612"
    },
    {
      "channel": 2,
      "note": 40,
      "start": 17.4582,
      "duration": 0.0124,
      "velocity": 114,
      "chip": "ym2612"
    },
    {
      "channel": 0,
      "note": 89,
      "start": 17.467,
      "duration": 0.0126,
      "velocity": 95,
      "chip": "ym2612"
    },
    {
      "channel": 5,
      "note": 89,
      "start": 17.4694,
      "duration": 0.0125,
      "velocity": 95,
      "chip": "ym2612"
    },
    {
      "channel": 2,
      "note": 40,
      "start": 17.4706,
      "duration": 0.0129,
      "velocity": 114,
      "chip": "ym2612"
    },
    {
      "channel": 0,
      "note": 89,
      "start": 17.4795,
      "duration": 0.0125,
      "velocity": 95,
      "chip": "ym2612"
    },
    {
      "channel": 5,
      "note": 89,
      "start": 17.4819,
      "duration": 0.0131,
      "velocity": 95,
      "chip": "ym2612"
    },
    {
      "channel": 2,
      "note": 40,
      "start": 17.4836,
      "duration": 0.0127,
      "velocity": 114,
      "chip": "ym2612"
    },
    {
      "channel": 0,
      "note": 89,
      "start": 17.492,
      "duration": 0.0125,
      "velocity": 95,
      "chip": "ym2612"
    },
    {
      "channel": 5,
      "note": 89,
      "start": 17.495,
      "duration": 0.0119,
      "velocity": 95,
      "chip": "ym2612"
    },
    {
      "channel": 2,
      "note": 40,
      "start": 17.4963,
      "duration": 0.0119,
      "velocity": 114,
      "chip": "ym2612"
    },
    {
      "channel": 0,
      "note": 89,
      "start": 17.5045,
      "duration": 0.0125,
      "velocity": 95,
      "chip": "ym2612"
    },
    {
      "channel": 5,
      "note": 89,
      "start": 17.5069,
      "duration": 0.0125,
      "velocity": 95,
      "chip": "ym2612"
    },
    {
      "channel": 2,
      "note": 40,
      "start": 17.5082,
      "duration": 0.0124,
      "velocity": 114,
      "chip": "ym2612"
    },
    {
      "channel": 0,
      "note": 89,
      "start": 17.517,
      "duration": 0.0126,
      "velocity": 95,
      "chip": "ym2612"
    },
    {
      "channel": 5,
      "note": 89,
      "start": 17.5194,
      "duration": 0.0148,
      "velocity": 95,
      "chip": "ym2612"
    },
    {
      "channel": 2,
      "note": 40,
      "start": 17.5206,
      "duration": 0.0148,
      "velocity": 114,
      "chip": "ym2612"
    },
    {
      "channel": 0,
      "note": 89,
      "start": 17.5295,
      "duration": 0.0125,
      "velocity": 95,
      "chip": "ym2612"
    },
    {
      "channel": 1,
      "note": 61,
      "start": 17.531,
      "duration": 0.0995,
      "velocity": 81,
      "chip": "ym2612"
    },
    {
      "channel": 4,
      "note": 72,
      "start": 17.533,
      "duration": 0.1004,
      "velocity": 74,
      "chip": "ym2612"
    },
    {
      "channel": 5,
      "note": 89,
      "start": 17.5342,
      "duration": 0.0108,
      "velocity": 95,
      "chip": "ym2612"
    },
    {
      "channel": 2,
      "note": 40,
      "start": 17.5355,
      "duration": 0.0108,
      "velocity": 114,
      "chip": "ym2612"
    },
    {
      "channel": 0,
      "note": 89,
      "start": 17.542,
      "duration": 0.0125,
      "velocity": 95,
      "chip": "ym2612"
    },
    {
      "channel": 5,
      "note": 89,
      "start": 17.545,
      "duration": 0.0119,
      "velocity": 95,
      "chip": "ym2612"
    },
    {
      "channel": 2,
      "note": 40,
      "start": 17.5463,
      "duration": 0.0119,
      "velocity": 114,
      "chip": "ym2612"
    },
    {
      "channel": 0,
      "note": 89,
      "start": 17.5545,
      "duration": 0.0125,
      "velocity": 95,
      "chip": "ym2612"
    },
    {
      "channel": 5,
      "note": 89,
      "start": 17.5569,
      "duration": 0.0125,
      "velocity": 95,
      "chip": "ym2612"
    },
    {
      "channel": 2,
      "note": 40,
      "start": 17.5582,
      "duration": 0.0124,
      "velocity": 114,
      "chip": "ym2612"
    },
    {
      "channel": 0,
      "note": 89,
      "start": 17.567,
      "duration": 0.0126,
      "velocity": 95,
      "chip": "ym2612"
    },
    {
      "channel": 5,
      "note": 89,
      "start": 17.5694,
      "duration": 0.0125,
      "velocity": 95,
      "chip": "ym2612"
    },
    {
      "channel": 2,
      "note": 39,
      "start": 17.5706,
      "duration": 0.0125,
      "velocity": 114,
      "chip": "ym2612"
    },
    {
      "channel": 0,
      "note": 89,
      "start": 17.5795,
      "duration": 0.0125,
      "velocity": 95,
      "chip": "ym2612"
    },
    {
      "channel": 5,
      "note": 89,
      "start": 17.5819,
      "duration": 0.0131,
      "velocity": 95,
      "chip": "ym2612"
    },
    {
      "channel": 2,
      "note": 39,
      "start": 17.5832,
      "duration": 0.0131,
      "velocity": 114,
      "chip": "ym2612"
    },
    {
      "channel": 0,
      "note": 89,
      "start": 17.592,
      "duration": 0.0125,
      "velocity": 95,
      "chip": "ym2612"
    },
    {
      "channel": 5,
      "note": 89,
      "start": 17.595,
      "duration": 0.0119,
      "velocity": 95,
      "chip": "ym2612"
    },
    {
      "channel": 2,
      "note": 39,
      "start": 17.5963,
      "duration": 0.0118,
      "velocity": 114,
      "chip": "ym2612"
    },
    {
      "channel": 0,
      "note": 89,
      "start": 17.6045,
      "duration": 0.0125,
      "velocity": 95,
      "chip": "ym2612"
    },
    {
      "channel": 5,
      "note": 89,
      "start": 17.6069,
      "duration": 0.0125,
      "velocity": 95,
      "chip": "ym2612"
    },
    {
      "channel": 0,
      "note": 89,
      "start": 17.617,
      "duration": 0.0126,
      "velocity": 95,
      "chip": "ym2612"
    },
    {
      "channel": 5,
      "note": 89,
      "start": 17.6194,
      "duration": 0.0156,
      "velocity": 95,
      "chip": "ym2612"
    },
    {
      "channel": 0,
      "note": 89,
      "start": 17.6295,
      "duration": 0.0127,
      "velocity": 95,
      "chip": "ym2612"
    },
    {
      "channel": 1,
      "note": 49,
      "start": 17.631,
      "duration": 0.187,
      "velocity": 81,
      "chip": "ym2612"
    },
    {
      "channel": 4,
      "note": 65,
      "start": 17.6338,
      "duration": 0.0852,
      "velocity": 74,
      "chip": "ym2612"
    },
    {
      "channel": 5,
      "note": 89,
      "start": 17.635,
      "duration": 0.0102,
      "velocity": 95,
      "chip": "ym2612"
    },
    {
      "channel": 2,
      "note": 41,
      "start": 17.6405,
      "duration": 0.1849,
      "velocity": 122,
      "chip": "ym2612"
    },
    {
      "channel": 0,
      "note": 89,
      "start": 17.6423,
      "duration": 0.0125,
      "velocity": 95,
      "chip": "ym2612"
    },
    {
      "channel": 5,
      "note": 89,
      "start": 17.6453,
      "duration": 0.0119,
      "velocity": 95,
      "chip": "ym2612"
    },
    {
      "channel": 0,
      "note": 89,
      "start": 17.6547,
      "duration": 0.0125,
      "velocity": 95,
      "chip": "ym2612"
    },
    {
      "channel": 5,
      "note": 89,
      "start": 17.6572,
      "duration": 0.0124,
      "velocity": 95,
      "chip": "ym2612"
    },
    {
      "channel": 0,
      "note": 89,
      "start": 17.6672,
      "duration": 0.0125,
      "velocity": 95,
      "chip": "ym2612"
    },
    {
      "channel": 5,
      "note": 89,
      "start": 17.6696,
      "duration": 0.0125,
      "velocity": 95,
      "chip": "ym2612"
    },
    {
      "channel": 0,
      "note": 89,
      "start": 17.6798,
      "duration": 0.0124,
      "velocity": 95,
      "chip": "ym2612"
    },
    {
      "channel": 5,
      "note": 89,
      "start": 17.6822,
      "duration": 0.013,
      "velocity": 95,
      "chip": "ym2612"
    },
    {
      "channel": 0,
      "note": 89,
      "start": 17.6922,
      "duration": 0.0125,
      "velocity": 95,
      "chip": "ym2612"
    },
    {
      "channel": 5,
      "note": 89,
      "start": 17.6952,
      "duration": 0.0119,
      "velocity": 95,
      "chip": "ym2612"
    },
    {
      "channel": 0,
      "note": 89,
      "start": 17.7047,
      "duration": 0.0125,
      "velocity": 95,
      "chip": "ym2612"
    },
    {
      "channel": 5,
      "note": 89,
      "start": 17.7071,
      "duration": 0.0136,
      "velocity": 95,
      "chip": "ym2612"
    },
    {
      "channel": 0,
      "note": 89,
      "start": 17.7171,
      "duration": 0.0125,
      "velocity": 95,
      "chip": "ym2612"
    },
    {
      "channel": 4,
      "note": 68,
      "start": 17.7195,
      "duration": 0.1013,
      "velocity": 74,
      "chip": "ym2612"
    },
    {
      "channel": 5,
      "note": 89,
      "start": 17.7207,
      "duration": 0.0114,
      "velocity": 95,
      "chip": "ym2612"
    },
    {
      "channel": 0,
      "note": 89,
      "start": 17.7297,
      "duration": 0.0125,
      "velocity": 95,
      "chip": "ym2612"
    },
    {
      "channel": 5,
      "note": 89,
      "start": 17.7321,
      "duration": 0.013,
      "velocity": 95,
      "chip": "ym2612"
    },
    {
      "channel": 0,
      "note": 89,
      "start": 17.7422,
      "duration": 0.0124,
      "velocity": 95,
      "chip": "ym2612"
    },
    {
      "channel": 5,
      "note": 89,
      "start": 17.7451,
      "duration": 0.0119,
      "velocity": 95,
      "chip": "ym2612"
    },
    {
      "channel": 0,
      "note": 89,
      "start": 17.7546,
      "duration": 0.0125,
      "velocity": 95,
      "chip": "ym2612"
    },
    {
      "channel": 5,
      "note": 89,
      "start": 17.757,
      "duration": 0.0125,
      "velocity": 95,
      "chip": "ym2612"
    },
    {
      "channel": 0,
      "note": 89,
      "start": 17.7671,
      "duration": 0.0125,
      "velocity": 95,
      "chip": "ym2612"
    },
    {
      "channel": 5,
      "note": 89,
      "start": 17.7696,
      "duration": 0.0125,
      "velocity": 95,
      "chip": "ym2612"
    },
    {
      "channel": 0,
      "note": 89,
      "start": 17.7796,
      "duration": 0.0125,
      "velocity": 95,
      "chip": "ym2612"
    },
    {
      "channel": 5,
      "note": 89,
      "start": 17.782,
      "duration": 0.0131,
      "velocity": 95,
      "chip": "ym2612"
    },
    {
      "channel": 0,
      "note": 89,
      "start": 17.7921,
      "duration": 0.0125,
      "velocity": 95,
      "chip": "ym2612"
    },
    {
      "channel": 5,
      "note": 89,
      "start": 17.7951,
      "duration": 0.0118,
      "velocity": 95,
      "chip": "ym2612"
    },
    {
      "channel": 0,
      "note": 89,
      "start": 17.8046,
      "duration": 0.0125,
      "velocity": 95,
      "chip": "ym2612"
    },
    {
      "channel": 5,
      "note": 89,
      "start": 17.807,
      "duration": 0.0156,
      "velocity": 95,
      "chip": "ym2612"
    },
    {
      "channel": 0,
      "note": 89,
      "start": 17.8171,
      "duration": 0.0134,
      "velocity": 95,
      "chip": "ym2612"
    },
    {
      "channel": 1,
      "note": 61,
      "start": 17.8185,
      "duration": 0.0878,
      "velocity": 81,
      "chip": "ym2612"
    },
    {
      "channel": 4,
      "note": 70,
      "start": 17.8213,
      "duration": 0.0878,
      "velocity": 74,
      "chip": "ym2612"
    },
    {
      "channel": 5,
      "note": 89,
      "start": 17.8226,
      "duration": 0.0103,
      "velocity": 95,
      "chip": "ym2612"
    },
    {
      "channel": 2,
      "note": 40,
      "start": 17.8287,
      "duration": 0.0055,
      "velocity": 114,
      "chip": "ym2612"
    },
    {
      "channel": 0,
      "note": 89,
      "start": 17.8304,
      "duration": 0.0125,
      "velocity": 95,
      "chip": "ym2612"
    },
    {
      "channel": 5,
      "note": 89,
      "start": 17.8329,
      "duration": 0.0131,
      "velocity": 95,
      "chip": "ym2612"
    },
    {
      "channel": 2,
      "note": 40,
      "start": 17.8341,
      "duration": 0.0131,
      "velocity": 114,
      "chip": "ym2612"
    },
    {
      "channel": 0,
      "note": 89,
      "start": 17.8429,
      "duration": 0.0125,
      "velocity": 95,
      "chip": "ym2612"
    },
    {
      "channel": 5,
      "note": 89,
      "start": 17.846,
      "duration": 0.0119,
      "velocity": 95,
      "chip": "ym2612"
    },
    {
      "channel": 2,
      "note": 40,
      "start": 17.8472,
      "duration": 0.0123,
      "velocity": 114,
      "chip": "ym2612"
    },
    {
      "channel": 0,
      "note": 89,
      "start": 17.8554,
      "duration": 0.0125,
      "velocity": 95,
      "chip": "ym2612"
    },
    {
      "channel": 5,
      "note": 89,
      "start": 17.8578,
      "duration": 0.0125,
      "velocity": 95,
      "chip": "ym2612"
    },
    {
      "channel": 2,
      "note": 40,
      "start": 17.8595,
      "duration": 0.0121,
      "velocity": 114,
      "chip": "ym2612"
    },
    {
      "channel": 0,
      "note": 89,
      "start": 17.8679,
      "duration": 0.0125,
      "velocity": 95,
      "chip": "ym2612"
    },
    {
      "channel": 5,
      "note": 89,
      "start": 17.8703,
      "duration": 0.0125,
      "velocity": 95,
      "chip": "ym2612"
    },
    {
      "channel": 2,
      "note": 40,
      "start": 17.8716,
      "duration": 0.0125,
      "velocity": 114,
      "chip": "ym2612"
    },
    {
      "channel": 0,
      "note": 89,
      "start": 17.8804,
      "duration": 0.0125,
      "velocity": 95,
      "chip": "ym2612"
    },
    {
      "channel": 5,
      "note": 89,
      "start": 17.8828,
      "duration": 0.0131,
      "velocity": 95,
      "chip": "ym2612"
    },
    {
      "channel": 2,
      "note": 40,
      "start": 17.8841,
      "duration": 0.0131,
      "velocity": 114,
      "chip": "ym2612"
    },
    {
      "channel": 0,
      "note": 89,
      "start": 17.8929,
      "duration": 0.0125,
      "velocity": 95,
      "chip": "ym2612"
    },
    {
      "channel": 5,
      "note": 89,
      "start": 17.8959,
      "duration": 0.0155,
      "velocity": 95,
      "chip": "ym2612"
    },
    {
      "channel": 2,
      "note": 40,
      "start": 17.8972,
      "duration": 0.0154,
      "velocity": 114,
      "chip": "ym2612"
    },
    {
      "channel": 0,
      "note": 89,
      "start": 17.9054,
      "duration": 0.0125,
      "velocity": 95,
      "chip": "ym2612"
    },
    {
      "channel": 1,
      "note": 61,
      "start": 17.9068,
      "duration": 0.0992,
      "velocity": 81,
      "chip": "ym2612"
    },
    {
      "channel": 4,
      "note": 67,
      "start": 17.9096,
      "duration": 0.0999,
      "velocity": 74,
      "chip": "ym2612"
    },
    {
      "channel": 5,
      "note": 89,
      "start": 17.9114,
      "duration": 0.0088,
      "velocity": 95,
      "chip": "ym2612"
    },
    {
      "channel": 0,
      "note": 89,
      "start": 17.9178,
      "duration": 0.0125,
      "velocity": 95,
      "chip": "ym2612"
    },
    {
      "channel": 5,
      "note": 89,
      "start": 17.9203,
      "duration": 0.0125,
      "velocity": 95,
      "chip": "ym2612"
    },
    {
      "channel": 2,
      "note": 40,
      "start": 17.9225,
      "duration": 0.0116,
      "velocity": 114,
      "chip": "ym2612"
    },
    {
      "channel": 0,
      "note": 89,
      "start": 17.9304,
      "duration": 0.0124,
      "velocity": 95,
      "chip": "ym2612"
    },
    {
      "channel": 5,
      "note": 89,
      "start": 17.9328,
      "duration": 0.013,
      "velocity": 95,
      "chip": "ym2612"
    },
    {
      "channel": 2,
      "note": 40,
      "start": 17.9341,
      "duration": 0.013,
      "velocity": 114,
      "chip": "ym2612"
    },
    {
      "channel": 0,
      "note": 89,
      "start": 17.9428,
      "duration": 0.0125,
      "velocity": 95,
      "chip": "ym2612"
    },
    {
      "channel": 5,
      "note": 89,
      "start": 17.9458,
      "duration": 0.0119,
      "velocity": 95,
      "chip": "ym2612"
    },
    {
      "channel": 2,
      "note": 40,
      "start": 17.9471,
      "duration": 0.0123,
      "velocity": 114,
      "chip": "ym2612"
    },
    {
      "channel": 0,
      "note": 89,
      "start": 17.9553,
      "duration": 0.0125,
      "velocity": 95,
      "chip": "ym2612"
    },
    {
      "channel": 5,
      "note": 89,
      "start": 17.9577,
      "duration": 0.0125,
      "velocity": 95,
      "chip": "ym2612"
    },
    {
      "channel": 2,
      "note": 40,
      "start": 17.9594,
      "duration": 0.0121,
      "velocity": 114,
      "chip": "ym2612"
    },
    {
      "channel": 0,
      "note": 89,
      "start": 17.9678,
      "duration": 0.0125,
      "velocity": 95,
      "chip": "ym2612"
    },
    {
      "channel": 5,
      "note": 89,
      "start": 17.9702,
      "duration": 0.0125,
      "velocity": 95,
      "chip": "ym2612"
    },
    {
      "channel": 2,
      "note": 40,
      "start": 17.9715,
      "duration": 0.0125,
      "velocity": 114,
      "chip": "ym2612"
    },
    {
      "channel": 0,
      "note": 89,
      "start": 17.9802,
      "duration": 0.0125,
      "velocity": 95,
      "chip": "ym2612"
    },
    {
      "channel": 5,
      "note": 89,
      "start": 17.9827,
      "duration": 0.0131,
      "velocity": 95,
      "chip": "ym2612"
    },
    {
      "channel": 2,
      "note": 40,
      "start": 17.9839,
      "duration": 0.0131,
      "velocity": 114,
      "chip": "ym2612"
    },
    {
      "channel": 0,
      "note": 89,
      "start": 17.9928,
      "duration": 0.0122,
      "velocity": 95,
      "chip": "ym2612"
    },
    {
      "channel": 5,
      "note": 89,
      "start": 17.9958,
      "duration": 0.0161,
      "velocity": 95,
      "chip": "ym2612"
    },
    {
      "channel": 2,
      "note": 40,
      "start": 17.9971,
      "duration": 0.0159,
      "velocity": 114,
      "chip": "ym2612"
    },
    {
      "channel": 1,
      "note": 49,
      "start": 18.0064,
      "duration": 0.1861,
      "velocity": 81,
      "chip": "ym2612"
    },
    {
      "channel": 4,
      "note": 65,
      "start": 18.01,
      "duration": 0.0836,
      "velocity": 74,
      "chip": "ym2612"
    },
    {
      "channel": 5,
      "note": 89,
      "start": 18.0119,
      "duration": 0.0074,
      "velocity": 95,
      "chip": "ym2612"
    },
    {
      "channel": 5,
      "note": 89,
      "start": 18.0193,
      "duration": 0.0124,
      "velocity": 95,
      "chip": "ym2612"
    },
    {
      "channel": 2,
      "note": 40,
      "start": 18.0215,
      "duration": 0.0115,
      "velocity": 114,
      "chip": "ym2612"
    },
    {
      "channel": 5,
      "note": 89,
      "start": 18.0317,
      "duration": 0.0131,
      "velocity": 95,
      "chip": "ym2612"
    },
    {
      "channel": 2,
      "note": 40,
      "start": 18.033,
      "duration": 0.0131,
      "velocity": 114,
      "chip": "ym2612"
    },
    {
      "channel": 5,
      "note": 89,
      "start": 18.0448,
      "duration": 0.0119,
      "velocity": 95,
      "chip": "ym2612"
    },
    {
      "channel": 2,
      "note": 40,
      "start": 18.0461,
      "duration": 0.0122,
      "velocity": 114,
      "chip": "ym2612"
    },
    {
      "channel": 5,
      "note": 89,
      "start": 18.0567,
      "duration": 0.0125,
      "velocity": 95,
      "chip": "ym2612"
    },
    {
      "channel": 2,
      "note": 40,
      "start": 18.0583,
      "duration": 0.0122,
      "velocity": 114,
      "chip": "ym2612"
    },
    {
      "channel": 5,
      "note": 89,
      "start": 18.0693,
      "duration": 0.0124,
      "velocity": 95,
      "chip": "ym2612"
    },
    {
      "channel": 2,
      "note": 40,
      "start": 18.0705,
      "duration": 0.0124,
      "velocity": 114,
      "chip": "ym2612"
    },
    {
      "channel": 5,
      "note": 89,
      "start": 18.0817,
      "duration": 0.0142,
      "velocity": 95,
      "chip": "ym2612"
    },
    {
      "channel": 2,
      "note": 40,
      "start": 18.0829,
      "duration": 0.0142,
      "velocity": 114,
      "chip": "ym2612"
    },
    {
      "channel": 4,
      "note": 75,
      "start": 18.0944,
      "duration": 0.1015,
      "velocity": 74,
      "chip": "ym2612"
    },
    {
      "channel": 5,
      "note": 89,
      "start": 18.0959,
      "duration": 0.0107,
      "velocity": 95,
      "chip": "ym2612"
    },
    {
      "channel": 2,
      "note": 40,
      "start": 18.0972,
      "duration": 0.0107,
      "velocity": 114,
      "chip": "ym2612"
    },
    {
      "channel": 5,
      "note": 89,
      "start": 18.1066,
      "duration": 0.0125,
      "velocity": 95,
      "chip": "ym2612"
    },
    {
      "channel": 2,
      "note": 40,
      "start": 18.1078,
      "duration": 0.0125,
      "velocity": 114,
      "chip": "ym2612"
    },
    {
      "channel": 5,
      "note": 89,
      "start": 18.1191,
      "duration": 0.0125,
      "velocity": 95,
      "chip": "ym2612"
    },
    {
      "channel": 2,
      "note": 40,
      "start": 18.1204,
      "duration": 0.0125,
      "velocity": 114,
      "chip": "ym2612"
    },
    {
      "channel": 5,
      "note": 89,
      "start": 18.1316,
      "duration": 0.0122,
      "velocity": 95,
      "chip": "ym2612"
    },
    {
      "channel": 2,
      "note": 40,
      "start": 18.1329,
      "duration": 0.0129,
      "velocity": 114,
      "chip": "ym2612"
    },
    {
      "channel": 2,
      "note": 39,
      "start": 18.1457,
      "duration": 0.0112,
      "velocity": 114,
      "chip": "ym2612"
    },
    {
      "channel": 2,
      "note": 39,
      "start": 18.1569,
      "duration": 0.0125,
      "velocity": 114,
      "chip": "ym2612"
    },
    {
      "channel": 2,
      "note": 39,
      "start": 18.1694,
      "duration": 0.0124,
      "velocity": 114,
      "chip": "ym2612"
    },
    {
      "channel": 1,
      "note": 49,
      "start": 18.193,
      "duration": 0.188,
      "velocity": 81,
      "chip": "ym2612"
    },
    {
      "channel": 4,
      "note": 77,
      "start": 18.1965,
      "duration": 0.0844,
      "velocity": 74,
      "chip": "ym2612"
    },
    {
      "channel": 2,
      "note": 40,
      "start": 18.1995,
      "duration": 0.0074,
      "velocity": 114,
      "chip": "ym2612"
    },
    {
      "channel": 2,
      "note": 40,
      "start": 18.2068,
      "duration": 0.0125,
      "velocity": 114,
      "chip": "ym2612"
    },
    {
      "channel": 2,
      "note": 40,
      "start": 18.2194,
      "duration": 0.0129,
      "velocity": 114,
      "chip": "ym2612"
    },
    {
      "channel": 2,
      "note": 40,
      "start": 18.2322,
      "duration": 0.0127,
      "velocity": 114,
      "chip": "ym2612"
    },
    {
      "channel": 2,
      "note": 40,
      "start": 18.2449,
      "duration": 0.0118,
      "velocity": 114,
      "chip": "ym2612"
    },
    {
      "channel": 2,
      "note": 40,
      "start": 18.2568,
      "duration": 0.0125,
      "velocity": 114,
      "chip": "ym2612"
    },
    {
      "channel": 2,
      "note": 40,
      "start": 18.2693,
      "duration": 0.0136,
      "velocity": 114,
      "chip": "ym2612"
    },
    {
      "channel": 4,
      "note": 65,
      "start": 18.2813,
      "duration": 0.1025,
      "velocity": 74,
      "chip": "ym2612"
    },
    {
      "channel": 2,
      "note": 40,
      "start": 18.2829,
      "duration": 0.0119,
      "velocity": 114,
      "chip": "ym2612"
    },
    {
      "channel": 2,
      "note": 40,
      "start": 18.2948,
      "duration": 0.0119,
      "velocity": 114,
      "chip": "ym2612"
    },
    {
      "channel": 2,
      "note": 40,
      "start": 18.3067,
      "duration": 0.0125,
      "velocity": 114,
      "chip": "ym2612"
    },
    {
      "channel": 2,
      "note": 39,
      "start": 18.3192,
      "duration": 0.0125,
      "velocity": 114,
      "chip": "ym2612"
    },
    {
      "channel": 2,
      "note": 39,
      "start": 18.3317,
      "duration": 0.0131,
      "velocity": 114,
      "chip": "ym2612"
    },
    {
      "channel": 2,
      "note": 39,
      "start": 18.3448,
      "duration": 0.0118,
      "velocity": 114,
      "chip": "ym2612"
    },
    {
      "channel": 0,
      "note": 89,
      "start": 18.3801,
      "duration": 0.3742,
      "velocity": 95,
      "chip": "ym2612"
    },
    {
      "channel": 1,
      "note": 49,
      "start": 18.3815,
      "duration": 0.1856,
      "velocity": 81,
      "chip": "ym2612"
    },
    {
      "channel": 4,
      "note": 73,
      "start": 18.3844,
      "duration": 0.0845,
      "velocity": 74,
      "chip": "ym2612"
    },
    {
      "channel": 2,
      "note": 41,
      "start": 18.3901,
      "duration": 0.0824,
      "velocity": 122,
      "chip": "ym2612"
    },
    {
      "channel": 4,
      "note": 75,
      "start": 18.4694,
      "duration": 0.0998,
      "velocity": 74,
      "chip": "ym2612"
    },
    {
      "channel": 2,
      "note": 40,
      "start": 18.4752,
      "duration": 0.0063,
      "velocity": 114,
      "chip": "ym2612"
    },
    {
      "channel": 2,
      "note": 40,
      "start": 18.4815,
      "duration": 0.0128,
      "velocity": 114,
      "chip": "ym2612"
    },
    {
      "channel": 2,
      "note": 40,
      "start": 18.4943,
      "duration": 0.0125,
      "velocity": 114,
      "chip": "ym2612"
    },
    {
      "channel": 2,
      "note": 40,
      "start": 18.5068,
      "duration": 0.0134,
      "velocity": 114,
      "chip": "ym2612"
    },
    {
      "channel": 5,
      "note": 89,
      "start": 18.5189,
      "duration": 0.3744,
      "velocity": 95,
      "chip": "ym2612"
    },
    {
      "channel": 2,
      "note": 40,
      "start": 18.5202,
      "duration": 0.0112,
      "velocity": 114,
      "chip": "ym2612"
    },
    {
      "channel": 2,
      "note": 40,
      "start": 18.5315,
      "duration": 0.0128,
      "velocity": 114,
      "chip": "ym2612"
    },
    {
      "channel": 2,
      "note": 40,
      "start": 18.5442,
      "duration": 0.0122,
      "velocity": 114,
      "chip": "ym2612"
    },
    {
      "channel": 2,
      "note": 40,
      "start": 18.5564,
      "duration": 0.0148,
      "velocity": 114,
      "chip": "ym2612"
    },
    {
      "channel": 1,
      "note": 49,
      "start": 18.5675,
      "duration": 0.1882,
      "velocity": 81,
      "chip": "ym2612"
    },
    {
      "channel": 4,
      "note": 65,
      "start": 18.5696,
      "duration": 0.0859,
      "velocity": 74,
      "chip": "ym2612"
    },
    {
      "channel": 2,
      "note": 40,
      "start": 18.5712,
      "duration": 0.0102,
      "velocity": 114,
      "chip": "ym2612"
    },
    {
      "channel": 2,
      "note": 40,
      "start": 18.5814,
      "duration": 0.0129,
      "velocity": 114,
      "chip": "ym2612"
    },
    {
      "channel": 2,
      "note": 39,
      "start": 18.5942,
      "duration": 0.0122,
      "velocity": 114,
      "chip": "ym2612"
    },
    {
      "channel": 2,
      "note": 39,
      "start": 18.6064,
      "duration": 0.0125,
      "velocity": 114,
      "chip": "ym2612"
    },
    {
      "channel": 2,
      "note": 39,
      "start": 18.6189,
      "duration": 0.0125,
      "velocity": 114,
      "chip": "ym2612"
    },
    {
      "channel": 4,
      "note": 72,
      "start": 18.6559,
      "duration": 0.1027,
      "velocity": 74,
      "chip": "ym2612"
    },
    {
      "channel": 0,
      "note": 91,
      "start": 18.7548,
      "duration": 0.3746,
      "velocity": 95,
      "chip": "ym2612"
    },
    {
      "channel": 1,
      "note": 49,
      "start": 18.7563,
      "duration": 0.1858,
      "velocity": 81,
      "chip": "ym2612"
    },
    {
      "channel": 4,
      "note": 73,
      "start": 18.7591,
      "duration": 0.0839,
      "velocity": 74,
      "chip": "ym2612"
    },
    {
      "channel": 2,
      "note": 40,
      "start": 18.7626,
      "duration": 0.0062,
      "velocity": 114,
      "chip": "ym2612"
    },
    {
      "channel": 2,
      "note": 40,
      "start": 18.7689,
      "duration": 0.0125,
      "velocity": 114,
      "chip": "ym2612"
    },
    {
      "channel": 2,
      "note": 40,
      "start": 18.7814,
      "duration": 0.0135,
      "velocity": 114,
      "chip": "ym2612"
    },
    {
      "channel": 2,
      "note": 40,
      "start": 18.7949,
      "duration": 0.0115,
      "velocity": 114,
      "chip": "ym2612"
    },
    {
      "channel": 2,
      "note": 40,
      "start": 18.8064,
      "duration": 0.0125,
      "velocity": 114,
      "chip": "ym2612"
    },
    {
      "channel": 2,
      "note": 40,
      "start": 18.8189,
      "duration": 0.0125,
      "velocity": 114,
      "chip": "ym2612"
    },
    {
      "channel": 2,
      "note": 40,
      "start": 18.8314,
      "duration": 0.0142,
      "velocity": 114,
      "chip": "ym2612"
    },
    {
      "channel": 4,
      "note": 65,
      "start": 18.8434,
      "duration": 0.102,
      "velocity": 74,
      "chip": "ym2612"
    },
    {
      "channel": 2,
      "note": 40,
      "start": 18.8456,
      "duration": 0.0107,
      "velocity": 114,
      "chip": "ym2612"
    },
    {
      "channel": 2,
      "note": 40,
      "start": 18.8563,
      "duration": 0.0125,
      "velocity": 114,
      "chip": "ym2612"
    },
    {
      "channel": 2,
      "note": 40,
      "start": 18.8689,
      "duration": 0.0125,
      "velocity": 114,
      "chip": "ym2612"
    },
    {
      "channel": 2,
      "note": 39,
      "start": 18.8814,
      "duration": 0.0143,
      "velocity": 114,
      "chip": "ym2612"
    },
    {
      "channel": 5,
      "note": 91,
      "start": 18.8942,
      "duration": 0.3741,
      "velocity": 95,
      "chip": "ym2612"
    },
    {
      "channel": 2,
      "note": 39,
      "start": 18.8957,
      "duration": 0.0106,
      "velocity": 114,
      "chip": "ym2612"
    },
    {
      "channel": 2,
      "note": 39,
      "start": 18.9063,
      "duration": 0.0125,
      "velocity": 114,
      "chip": "ym2612"
    },
    {
      "channel": 1,
      "note": 61,
      "start": 18.9425,
      "duration": 0.087,
      "velocity": 81,
      "chip": "ym2612"
    },
    {
      "channel": 4,
      "note": 70,
      "start": 18.946,
      "duration": 0.0856,
      "velocity": 74,
      "chip": "ym2612"
    },
    {
      "channel": 2,
      "note": 40,
      "start": 18.949,
      "duration": 0.0074,
      "velocity": 114,
      "chip": "ym2612"
    },
    {
      "channel": 2,
      "note": 40,
      "start": 18.9563,
      "duration": 0.0125,
      "velocity": 114,
      "chip": "ym2612"
    },
    {
      "channel": 2,
      "note": 40,
      "start": 18.9689,
      "duration": 0.0129,
      "velocity": 114,
      "chip": "ym2612"
    },
    {
      "channel": 2,
      "note": 40,
      "start": 18.9818,
      "duration": 0.0125,
      "velocity": 114,
      "chip": "ym2612"
    },
    {
      "channel": 2,
      "note": 40,
      "start": 18.9942,
      "duration": 0.0121,
      "velocity": 114,
      "chip": "ym2612"
    },
    {
      "channel": 2,
      "note": 40,
      "start": 19.0063,
      "duration": 0.0125,
      "velocity": 114,
      "chip": "ym2612"
    },
    {
      "channel": 2,
      "note": 40,
      "start": 19.0189,
      "duration": 0.0148,
      "velocity": 114,
      "chip": "ym2612"
    },
    {
      "channel": 1,
      "note": 61,
      "start": 19.0301,
      "duration": 0.1007,
      "velocity": 81,
      "chip": "ym2612"
    },
    {
      "channel": 4,
      "note": 72,
      "start": 19.0321,
      "duration": 0.1015,
      "velocity": 74,
      "chip": "ym2612"
    },
    {
      "channel": 2,
      "note": 40,
      "start": 19.0337,
      "duration": 0.0106,
      "velocity": 114,
      "chip": "ym2612"
    },
    {
      "channel": 2,
      "note": 40,
      "start": 19.0442,
      "duration": 0.0122,
      "velocity": 114,
      "chip": "ym2612"
    },
    {
      "channel": 2,
      "note": 40,
      "start": 19.0564,
      "duration": 0.0125,
      "velocity": 114,
      "chip": "ym2612"
    },
    {
      "channel": 2,
      "note": 39,
      "start": 19.0689,
      "duration": 0.0125,
      "velocity": 114,
      "chip": "ym2612"
    },
    {
      "channel": 2,
      "note": 39,
      "start": 19.0814,
      "duration": 0.0129,
      "velocity": 114,
      "chip": "ym2612"
    },
    {
      "channel": 2,
      "note": 39,
      "start": 19.0942,
      "duration": 0.012,
      "velocity": 114,
      "chip": "ym2612"
    },
    {
      "channel": 0,
      "note": 92,
      "start": 19.1299,
      "duration": 0.3745,
      "velocity": 95,
      "chip": "ym2612"
    },
    {
      "channel": 1,
      "note": 49,
      "start": 19.1313,
      "duration": 0.1857,
      "velocity": 81,
      "chip": "ym2612"
    },
    {
      "channel": 4,
      "note": 65,
      "start": 19.1341,
      "duration": 0.0838,
      "velocity": 74,
      "chip": "ym2612"
    },
    {
      "channel": 2,
      "note": 41,
      "start": 19.1399,
      "duration": 0.1836,
      "velocity": 122,
      "chip": "ym2612"
    },
    {
      "channel": 4,
      "note": 68,
      "start": 19.2184,
      "duration": 0.1015,
      "velocity": 74,
      "chip": "ym2612"
    },
    {
      "channel": 5,
      "note": 92,
      "start": 19.2688,
      "duration": 0.3746,
      "velocity": 95,
      "chip": "ym2612"
    },
    {
      "channel": 1,
      "note": 61,
      "start": 19.3175,
      "duration": 0.087,
      "velocity": 81,
      "chip": "ym2612"
    },
    {
      "channel": 4,
      "note": 70,
      "start": 19.3203,
      "duration": 0.0871,
      "velocity": 74,
      "chip": "ym2612"
    },
    {
      "channel": 2,
      "note": 40,
      "start": 19.3262,
      "duration": 0.0052,
      "velocity": 114,
      "chip": "ym2612"
    },
    {
      "channel": 2,
      "note": 40,
      "start": 19.3314,
      "duration": 0.0129,
      "velocity": 114,
      "chip": "ym2612"
    },
    {
      "channel": 2,
      "note": 40,
      "start": 19.3442,
      "duration": 0.0125,
      "velocity": 114,
      "chip": "ym2612"
    },
    {
      "channel": 2,
      "note": 40,
      "start": 19.3568,
      "duration": 0.0121,
      "velocity": 114,
      "chip": "ym2612"
    },
    {
      "channel": 2,
      "note": 40,
      "start": 19.3689,
      "duration": 0.0125,
      "velocity": 114,
      "chip": "ym2612"
    },
    {
      "channel": 2,
      "note": 40,
      "start": 19.3814,
      "duration": 0.0129,
      "velocity": 114,
      "chip": "ym2612"
    },
    {
      "channel": 2,
      "note": 40,
      "start": 19.3942,
      "duration": 0.0151,
      "velocity": 114,
      "chip": "ym2612"
    },
    {
      "channel": 1,
      "note": 61,
      "start": 19.4051,
      "duration": 0.1008,
      "velocity": 81,
      "chip": "ym2612"
    },
    {
      "channel": 4,
      "note": 67,
      "start": 19.4078,
      "duration": 0.1016,
      "velocity": 74,
      "chip": "ym2612"
    },
    {
      "channel": 2,
      "note": 40,
      "start": 19.4198,
      "duration": 0.0116,
      "velocity": 114,
      "chip": "ym2612"
    },
    {
      "channel": 2,
      "note": 40,
      "start": 19.4314,
      "duration": 0.0129,
      "velocity": 114,
      "chip": "ym2612"
    },
    {
      "channel": 2,
      "note": 40,
      "start": 19.4442,
      "duration": 0.0125,
      "velocity": 114,
      "chip": "ym2612"
    },
    {
      "channel": 2,
      "note": 40,
      "start": 19.4567,
      "duration": 0.0122,
      "velocity": 114,
      "chip": "ym2612"
    },
    {
      "channel": 2,
      "note": 40,
      "start": 19.4689,
      "duration": 0.0125,
      "velocity": 114,
      "chip": "ym2612"
    },
    {
      "channel": 2,
      "note": 40,
      "start": 19.4814,
      "duration": 0.0129,
      "velocity": 114,
      "chip": "ym2612"
    },
    {
      "channel": 2,
      "note": 40,
      "start": 19.4942,
      "duration": 0.0177,
      "velocity": 114,
      "chip": "ym2612"
    },
    {
      "channel": 0,
      "note": 91,
      "start": 19.5048,
      "duration": 0.3747,
      "velocity": 95,
      "chip": "ym2612"
    },
    {
      "channel": 1,
      "note": 51,
      "start": 19.5063,
      "duration": 0.1857,
      "velocity": 81,
      "chip": "ym2612"
    },
    {
      "channel": 4,
      "note": 61,
      "start": 19.51,
      "duration": 0.083,
      "velocity": 74,
      "chip": "ym2612"
    },
    {
      "channel": 2,
      "note": 40,
      "start": 19.5198,
      "duration": 0.0116,
      "velocity": 114,
      "chip": "ym2612"
    },
    {
      "channel": 2,
      "note": 40,
      "start": 19.5314,
      "duration": 0.0129,
      "velocity": 114,
      "chip": "ym2612"
    },
    {
      "channel": 2,
      "note": 40,
      "start": 19.5442,
      "duration": 0.0125,
      "velocity": 114,
      "chip": "ym2612"
    },
    {
      "channel": 2,
      "note": 40,
      "start": 19.5567,
      "duration": 0.0122,
      "velocity": 114,
      "chip": "ym2612"
    },
    {
      "channel": 2,
      "note": 40,
      "start": 19.5689,
      "duration": 0.0125,
      "velocity": 114,
      "chip": "ym2612"
    },
    {
      "channel": 2,
      "note": 40,
      "start": 19.5814,
      "duration": 0.0143,
      "velocity": 114,
      "chip": "ym2612"
    },
    {
      "channel": 4,
      "note": 73,
      "start": 19.5935,
      "duration": 0.102,
      "velocity": 74,
      "chip": "ym2612"
    },
    {
      "channel": 2,
      "note": 40,
      "start": 19.5956,
      "duration": 0.0107,
      "velocity": 114,
      "chip": "ym2612"
    },
    {
      "channel": 2,
      "note": 40,
      "start": 19.6064,
      "duration": 0.0125,
      "velocity": 114,
      "chip": "ym2612"
    },
    {
      "channel": 2,
      "note": 40,
      "start": 19.6189,
      "duration": 0.0125,
      "velocity": 114,
      "chip": "ym2612"
    },
    {
      "channel": 2,
      "note": 40,
      "start": 19.6314,
      "duration": 0.0143,
      "velocity": 114,
      "chip": "ym2612"
    },
    {
      "channel": 5,
      "note": 91,
      "start": 19.6442,
      "duration": 0.3752,
      "velocity": 95,
      "chip": "ym2612"
    },
    {
      "channel": 2,
      "note": 39,
      "start": 19.6457,
      "duration": 0.0106,
      "velocity": 114,
      "chip": "ym2612"
    },
    {
      "channel": 2,
      "note": 39,
      "start": 19.6563,
      "duration": 0.0125,
      "velocity": 114,
      "chip": "ym2612"
    },
    {
      "channel": 2,
      "note": 39,
      "start": 19.6689,
      "duration": 0.0125,
      "velocity": 114,
      "chip": "ym2612"
    },
    {
      "channel": 1,
      "note": 51,
      "start": 19.6925,
      "duration": 0.1879,
      "velocity": 81,
      "chip": "ym2612"
    },
    {
      "channel": 4,
      "note": 75,
      "start": 19.696,
      "duration": 0.0845,
      "velocity": 74,
      "chip": "ym2612"
    },
    {
      "channel": 2,
      "note": 40,
      "start": 19.6989,
      "duration": 0.0074,
      "velocity": 114,
      "chip": "ym2612"
    },
    {
      "channel": 2,
      "note": 40,
      "start": 19.7063,
      "duration": 0.0125,
      "velocity": 114,
      "chip": "ym2612"
    },
    {
      "channel": 2,
      "note": 40,
      "start": 19.7189,
      "duration": 0.0129,
      "velocity": 114,
      "chip": "ym2612"
    },
    {
      "channel": 2,
      "note": 40,
      "start": 19.7318,
      "duration": 0.0124,
      "velocity": 114,
      "chip": "ym2612"
    },
    {
      "channel": 2,
      "note": 40,
      "start": 19.7442,
      "duration": 0.0122,
      "velocity": 114,
      "chip": "ym2612"
    },
    {
      "channel": 2,
      "note": 40,
      "start": 19.7563,
      "duration": 0.0125,
      "velocity": 114,
      "chip": "ym2612"
    },
    {
      "channel": 2,
      "note": 40,
      "start": 19.7689,
      "duration": 0.0137,
      "velocity": 114,
      "chip": "ym2612"
    },
    {
      "channel": 4,
      "note": 61,
      "start": 19.781,
      "duration": 0.1024,
      "velocity": 74,
      "chip": "ym2612"
    },
    {
      "channel": 2,
      "note": 40,
      "start": 19.7825,
      "duration": 0.0117,
      "velocity": 114,
      "chip": "ym2612"
    },
    {
      "channel": 2,
      "note": 40,
      "start": 19.7942,
      "duration": 0.0121,
      "velocity": 114,
      "chip": "ym2612"
    },
    {
      "channel": 2,
      "note": 40,
      "start": 19.8063,
      "duration": 0.0125,
      "velocity": 114,
      "chip": "ym2612"
    },
    {
      "channel": 2,
      "note": 39,
      "start": 19.8189,
      "duration": 0.0125,
      "velocity": 114,
      "chip": "ym2612"
    },
    {
      "channel": 2,
      "note": 39,
      "start": 19.8314,
      "duration": 0.0129,
      "velocity": 114,
      "chip": "ym2612"
    },
    {
      "channel": 2,
      "note": 39,
      "start": 19.8442,
      "duration": 0.012,
      "velocity": 114,
      "chip": "ym2612"
    },
    {
      "channel": 0,
      "note": 91,
      "start": 19.8795,
      "duration": 0.0125,
      "velocity": 95,
      "chip": "ym2612"
    },
    {
      "channel": 1,
      "note": 51,
      "start": 19.881,
      "duration": 0.187,
      "velocity": 81,
      "chip": "ym2612"
    },
    {
      "channel": 4,
      "note": 72,
      "start": 19.8838,
      "duration": 0.0858,
      "velocity": 74,
      "chip": "ym2612"
    },
    {
      "channel": 2,
      "note": 41,
      "start": 19.8895,
      "duration": 0.0837,
      "velocity": 122,
      "chip": "ym2612"
    },
    {
      "channel": 0,
      "note": 91,
      "start": 19.892,
      "duration": 0.0125,
      "velocity": 95,
      "chip": "ym2612"
    },
    {
      "channel": 0,
      "note": 91,
      "start": 19.9045,
      "duration": 0.0125,
      "velocity": 95,
      "chip": "ym2612"
    },
    {
      "channel": 0,
      "note": 91,
      "start": 19.917,
      "duration": 0.0125,
      "velocity": 95,
      "chip": "ym2612"
    },
    {
      "channel": 0,
      "note": 91,
      "start": 19.9295,
      "duration": 0.0125,
      "velocity": 95,
      "chip": "ym2612"
    },
    {
      "channel": 0,
      "note": 91,
      "start": 19.942,
      "duration": 0.0125,
      "velocity": 95,
      "chip": "ym2612"
    },
    {
      "channel": 0,
      "note": 91,
      "start": 19.9545,
      "duration": 0.0125,
      "velocity": 95,
      "chip": "ym2612"
    },
    {
      "channel": 0,
      "note": 91,
      "start": 19.967,
      "duration": 0.0125,
      "velocity": 95,
      "chip": "ym2612"
    },
    {
      "channel": 4,
      "note": 73,
      "start": 19.9701,
      "duration": 0.0998,
      "velocity": 74,
      "chip": "ym2612"
    },
    {
      "channel": 2,
      "note": 40,
      "start": 19.976,
      "duration": 0.0063,
      "velocity": 114,
      "chip": "ym2612"
    },
    {
      "channel": 0,
      "note": 91,
      "start": 19.9795,
      "duration": 0.0125,
      "velocity": 95,
      "chip": "ym2612"
    },
    {
      "channel": 2,
      "note": 40,
      "start": 19.9823,
      "duration": 0.0131,
      "velocity": 114,
      "chip": "ym2612"
    },
    {
      "channel": 0,
      "note": 91,
      "start": 19.992,
      "duration": 0.0125,
      "velocity": 95,
      "chip": "ym2612"
    },
    {
      "channel": 2,
      "note": 40,
      "start": 19.9954,
      "duration": 0.0123,
      "velocity": 114,
      "chip": "ym2612"
    },
    {
      "channel": 0,
      "note": 91,
      "start": 20.0045,
      "duration": 0.0125,
      "velocity": 95,
      "chip": "ym2612"
    },
    {
      "channel": 2,
      "note": 40,
      "start": 20.0077,
      "duration": 0.013,
      "velocity": 114,
      "chip": "ym2612"
    },
    {
      "channel": 0,
      "note": 91,
      "start": 20.017,
      "duration": 0.0126,
      "velocity": 95,
      "chip": "ym2612"
    },
    {
      "channel": 5,
      "note": 91,
      "start": 20.0194,
      "duration": 0.0125,
      "velocity": 95,
      "chip": "ym2612"
    },
    {
      "channel": 2,
      "note": 40,
      "start": 20.0206,
      "duration": 0.0125,
      "velocity": 114,
      "chip": "ym2612"
    },
    {
      "channel": 0,
      "note": 91,
      "start": 20.0295,
      "duration": 0.0125,
      "velocity": 95,
      "chip": "ym2612"
    },
    {
      "channel": 5,
      "note": 91,
      "start": 20.0319,
      "duration": 0.0131,
      "velocity": 95,
      "chip": "ym2612"
    },
    {
      "channel": 2,
      "note": 40,
      "start": 20.0332,
      "duration": 0.0131,
      "velocity": 114,
      "chip": "ym2612"
    },
    {
      "channel": 0,
      "note": 91,
      "start": 20.042,
      "duration": 0.0125,
      "velocity": 95,
      "chip": "ym2612"
    },
    {
      "channel": 5,
      "note": 91,
      "start": 20.045,
      "duration": 0.0119,
      "velocity": 95,
      "chip": "ym2612"
    },
    {
      "channel": 2,
      "note": 40,
      "start": 20.0463,
      "duration": 0.0119,
      "velocity": 114,
      "chip": "ym2612"
    },
    {
      "channel": 0,
      "note": 91,
      "start": 20.0545,
      "duration": 0.0125,
      "velocity": 95,
      "chip": "ym2612"
    },
    {
      "channel": 5,
      "note": 91,
      "start": 20.0569,
      "duration": 0.0148,
      "velocity": 95,
      "chip": "ym2612"
    },
    {
      "channel": 2,
      "note": 40,
      "start": 20.0582,
      "duration": 0.0147,
      "velocity": 114,
      "chip": "ym2612"
    },
    {
      "channel": 0,
      "note": 91,
      "start": 20.067,
      "duration": 0.0126,
      "velocity": 95,
      "chip": "ym2612"
    },
    {
      "channel": 1,
      "note": 51,
      "start": 20.0684,
      "duration": 0.187,
      "velocity": 81,
      "chip": "ym2612"
    },
    {
      "channel": 4,
      "note": 61,
      "start": 20.0705,
      "duration": 0.0859,
      "velocity": 74,
      "chip": "ym2612"
    },
    {
      "channel": 5,
      "note": 91,
      "start": 20.0717,
      "duration": 0.0102,
      "velocity": 95,
      "chip": "ym2612"
    },
    {
      "channel": 2,
      "note": 40,
      "start": 20.0729,
      "duration": 0.0102,
      "velocity": 114,
      "chip": "ym2612"
    },
    {
      "channel": 0,
      "note": 91,
      "start": 20.0795,
      "duration": 0.0125,
      "velocity": 95,
      "chip": "ym2612"
    },
    {
      "channel": 5,
      "note": 91,
      "start": 20.0819,
      "duration": 0.0131,
      "velocity": 95,
      "chip": "ym2612"
    },
    {
      "channel": 2,
      "note": 40,
      "start": 20.0832,
      "duration": 0.0131,
      "velocity": 114,
      "chip": "ym2612"
    },
    {
      "channel": 0,
      "note": 91,
      "start": 20.092,
      "duration": 0.0125,
      "velocity": 95,
      "chip": "ym2612"
    },
    {
      "channel": 5,
      "note": 91,
      "start": 20.095,
      "duration": 0.0119,
      "velocity": 95,
      "chip": "ym2612"
    },
    {
      "channel": 2,
      "note": 39,
      "start": 20.0963,
      "duration": 0.0119,
      "velocity": 114,
      "chip": "ym2612"
    },
    {
      "channel": 0,
      "note": 91,
      "start": 20.1045,
      "duration": 0.0125,
      "velocity": 95,
      "chip": "ym2612"
    },
    {
      "channel": 5,
      "note": 91,
      "start": 20.1069,
      "duration": 0.0125,
      "velocity": 95,
      "chip": "ym2612"
    },
    {
      "channel": 2,
      "note": 39,
      "start": 20.1082,
      "duration": 0.0124,
      "velocity": 114,
      "chip": "ym2612"
    },
    {
      "channel": 0,
      "note": 91,
      "start": 20.117,
      "duration": 0.0125,
      "velocity": 95,
      "chip": "ym2612"
    },
    {
      "channel": 5,
      "note": 91,
      "start": 20.1194,
      "duration": 0.0125,
      "velocity": 95,
      "chip": "ym2612"
    },
    {
      "channel": 2,
      "note": 39,
      "start": 20.1206,
      "duration": 0.0125,
      "velocity": 114,
      "chip": "ym2612"
    },
    {
      "channel": 0,
      "note": 91,
      "start": 20.1295,
      "duration": 0.0125,
      "velocity": 95,
      "chip": "ym2612"
    },
    {
      "channel": 5,
      "note": 91,
      "start": 20.1319,
      "duration": 0.0131,
      "velocity": 95,
      "chip": "ym2612"
    },
    {
      "channel": 0,
      "note": 91,
      "start": 20.142,
      "duration": 0.0125,
      "velocity": 95,
      "chip": "ym2612"
    },
    {
      "channel": 5,
      "note": 91,
      "start": 20.145,
      "duration": 0.013,
      "velocity": 95,
      "chip": "ym2612"
    },
    {
      "channel": 0,
      "note": 91,
      "start": 20.1545,
      "duration": 0.0125,
      "velocity": 95,
      "chip": "ym2612"
    },
    {
      "channel": 4,
      "note": 70,
      "start": 20.1568,
      "duration": 0.1014,
      "velocity": 74,
      "chip": "ym2612"
    },
    {
      "channel": 5,
      "note": 91,
      "start": 20.158,
      "duration": 0.0113,
      "velocity": 95,
      "chip": "ym2612"
    },
    {
      "channel": 0,
      "note": 91,
      "start": 20.167,
      "duration": 0.0126,
      "velocity": 95,
      "chip": "ym2612"
    },
    {
      "channel": 5,
      "note": 91,
      "start": 20.1694,
      "duration": 0.0125,
      "velocity": 95,
      "chip": "ym2612"
    },
    {
      "channel": 0,
      "note": 91,
      "start": 20.1795,
      "duration": 0.0125,
      "velocity": 95,
      "chip": "ym2612"
    },
    {
      "channel": 5,
      "note": 91,
      "start": 20.1819,
      "duration": 0.0131,
      "velocity": 95,
      "chip": "ym2612"
    },
    {
      "channel": 0,
      "note": 91,
      "start": 20.192,
      "duration": 0.0125,
      "velocity": 95,
      "chip": "ym2612"
    },
    {
      "channel": 5,
      "note": 91,
      "start": 20.195,
      "duration": 0.0119,
      "velocity": 95,
      "chip": "ym2612"
    },
    {
      "channel": 0,
      "note": 91,
      "start": 20.2045,
      "duration": 0.0125,
      "velocity": 95,
      "chip": "ym2612"
    },
    {
      "channel": 5,
      "note": 91,
      "start": 20.2069,
      "duration": 0.0125,
      "velocity": 95,
      "chip": "ym2612"
    },
    {
      "channel": 0,
      "note": 91,
      "start": 20.217,
      "duration": 0.0126,
      "velocity": 95,
      "chip": "ym2612"
    },
    {
      "channel": 5,
      "note": 91,
      "start": 20.2194,
      "duration": 0.0126,
      "velocity": 95,
      "chip": "ym2612"
    },
    {
      "channel": 0,
      "note": 91,
      "start": 20.2295,
      "duration": 0.0125,
      "velocity": 95,
      "chip": "ym2612"
    },
    {
      "channel": 5,
      "note": 91,
      "start": 20.232,
      "duration": 0.013,
      "velocity": 95,
      "chip": "ym2612"
    },
    {
      "channel": 0,
      "note": 91,
      "start": 20.242,
      "duration": 0.0125,
      "velocity": 95,
      "chip": "ym2612"
    },
    {
      "channel": 5,
      "note": 91,
      "start": 20.245,
      "duration": 0.0149,
      "velocity": 95,
      "chip": "ym2612"
    },
    {
      "channel": 0,
      "note": 91,
      "start": 20.2545,
      "duration": 0.0125,
      "velocity": 95,
      "chip": "ym2612"
    },
    {
      "channel": 1,
      "note": 51,
      "start": 20.2559,
      "duration": 0.187,
      "velocity": 81,
      "chip": "ym2612"
    },
    {
      "channel": 4,
      "note": 72,
      "start": 20.2588,
      "duration": 0.0855,
      "velocity": 74,
      "chip": "ym2612"
    },
    {
      "channel": 5,
      "note": 91,
      "start": 20.26,
      "duration": 0.0094,
      "velocity": 95,
      "chip": "ym2612"
    },
    {
      "channel": 2,
      "note": 40,
      "start": 20.2632,
      "duration": 0.0074,
      "velocity": 114,
      "chip": "ym2612"
    },
    {
      "channel": 0,
      "note": 91,
      "start": 20.267,
      "duration": 0.0126,
      "velocity": 95,
      "chip": "ym2612"
    },
    {
      "channel": 5,
      "note": 91,
      "start": 20.2694,
      "duration": 0.0125,
      "velocity": 95,
      "chip": "ym2612"
    },
    {
      "channel": 2,
      "note": 40,
      "start": 20.2706,
      "duration": 0.0125,
      "velocity": 114,
      "chip": "ym2612"
    },
    {
      "channel": 0,
      "note": 91,
      "start": 20.2795,
      "duration": 0.0125,
      "velocity": 95,
      "chip": "ym2612"
    },
    {
      "channel": 5,
      "note": 91,
      "start": 20.2819,
      "duration": 0.0131,
      "velocity": 95,
      "chip": "ym2612"
    },
    {
      "channel": 2,
      "note": 40,
      "start": 20.2832,
      "duration": 0.0135,
      "velocity": 114,
      "chip": "ym2612"
    },
    {
      "channel": 0,
      "note": 91,
      "start": 20.292,
      "duration": 0.0125,
      "velocity": 95,
      "chip": "ym2612"
    },
    {
      "channel": 5,
      "note": 91,
      "start": 20.295,
      "duration": 0.0119,
      "velocity": 95,
      "chip": "ym2612"
    },
    {
      "channel": 2,
      "note": 40,
      "start": 20.2967,
      "duration": 0.0115,
      "velocity": 114,
      "chip": "ym2612"
    },
    {
      "channel": 0,
      "note": 91,
      "start": 20.3045,
      "duration": 0.0125,
      "velocity": 95,
      "chip": "ym2612"
    },
    {
      "channel": 5,
      "note": 91,
      "start": 20.3069,
      "duration": 0.0125,
      "velocity": 95,
      "chip": "ym2612"
    },
    {
      "channel": 2,
      "note": 40,
      "start": 20.3082,
      "duration": 0.0124,
      "velocity": 114,
      "chip": "ym2612"
    },
    {
      "channel": 0,
      "note": 91,
      "start": 20.317,
      "duration": 0.0126,
      "velocity": 95,
      "chip": "ym2612"
    },
    {
      "channel": 5,
      "note": 91,
      "start": 20.3194,
      "duration": 0.0125,
      "velocity": 95,
      "chip": "ym2612"
    },
    {
      "channel": 2,
      "note": 40,
      "start": 20.3206,
      "duration": 0.0125,
      "velocity": 114,
      "chip": "ym2612"
    },
    {
      "channel": 0,
      "note": 91,
      "start": 20.3295,
      "duration": 0.0125,
      "velocity": 95,
      "chip": "ym2612"
    },
    {
      "channel": 5,
      "note": 91,
      "start": 20.3319,
      "duration": 0.0142,
      "velocity": 95,
      "chip": "ym2612"
    },
    {
      "channel": 2,
      "note": 40,
      "start": 20.3332,
      "duration": 0.0142,
      "velocity": 114,
      "chip": "ym2612"
    },
    {
      "channel": 0,
      "note": 91,
      "start": 20.342,
      "duration": 0.0125,
      "velocity": 95,
      "chip": "ym2612"
    },
    {
      "channel": 4,
      "note": 61,
      "start": 20.3449,
      "duration": 0.1015,
      "velocity": 74,
      "chip": "ym2612"
    },
    {
      "channel": 5,
      "note": 91,
      "start": 20.3461,
      "duration": 0.0107,
      "velocity": 95,
      "chip": "ym2612"
    },
    {
      "channel": 2,
      "note": 40,
      "start": 20.3474,
      "duration": 0.0108,
      "velocity": 114,
      "chip": "ym2612"
    },
    {
      "channel": 0,
      "note": 91,
      "start": 20.3545,
      "duration": 0.0125,
      "velocity": 95,
      "chip": "ym2612"
    },
    {
      "channel": 5,
      "note": 91,
      "start": 20.3569,
      "duration": 0.0125,
      "velocity": 95,
      "chip": "ym2612"
    },
    {
      "channel": 2,
      "note": 40,
      "start": 20.3582,
      "duration": 0.0124,
      "velocity": 114,
      "chip": "ym2612"
    },
    {
      "channel": 0,
      "note": 91,
      "start": 20.367,
      "duration": 0.0126,
      "velocity": 95,
      "chip": "ym2612"
    },
    {
      "channel": 5,
      "note": 91,
      "start": 20.3694,
      "duration": 0.0125,
      "velocity": 95,
      "chip": "ym2612"
    },
    {
      "channel": 2,
      "note": 40,
      "start": 20.3706,
      "duration": 0.0125,
      "velocity": 114,
      "chip": "ym2612"
    },
    {
      "channel": 0,
      "note": 91,
      "start": 20.3795,
      "duration": 0.0125,
      "velocity": 95,
      "chip": "ym2612"
    },
    {
      "channel": 5,
      "note": 91,
      "start": 20.3819,
      "duration": 0.0131,
      "velocity": 95,
      "chip": "ym2612"
    },
    {
      "channel": 2,
      "note": 39,
      "start": 20.3832,
      "duration": 0.0131,
      "velocity": 114,
      "chip": "ym2612"
    },
    {
      "channel": 0,
      "note": 91,
      "start": 20.392,
      "duration": 0.0125,
      "velocity": 95,
      "chip": "ym2612"
    },
    {
      "channel": 5,
      "note": 91,
      "start": 20.395,
      "duration": 0.0119,
      "velocity": 95,
      "chip": "ym2612"
    },
    {
      "channel": 2,
      "note": 39,
      "start": 20.3963,
      "duration": 0.0119,
      "velocity": 114,
      "chip": "ym2612"
    },
    {
      "channel": 0,
      "note": 91,
      "start": 20.4045,
      "duration": 0.0125,
      "velocity": 95,
      "chip": "ym2612"
    },
    {
      "channel": 5,
      "note": 91,
      "start": 20.4069,
      "duration": 0.0125,
      "velocity": 95,
      "chip": "ym2612"
    },
    {
      "channel": 2,
      "note": 39,
      "start": 20.4082,
      "duration": 0.0124,
      "velocity": 114,
      "chip": "ym2612"
    },
    {
      "channel": 0,
      "note": 91,
      "start": 20.417,
      "duration": 0.0126,
      "velocity": 95,
      "chip": "ym2612"
    },
    {
      "channel": 5,
      "note": 91,
      "start": 20.4194,
      "duration": 0.0125,
      "velocity": 95,
      "chip": "ym2612"
    },
    {
      "channel": 0,
      "note": 91,
      "start": 20.4295,
      "duration": 0.0125,
      "velocity": 95,
      "chip": "ym2612"
    },
    {
      "channel": 5,
      "note": 91,
      "start": 20.4319,
      "duration": 0.0161,
      "velocity": 95,
      "chip": "ym2612"
    },
    {
      "channel": 0,
      "note": 91,
      "start": 20.442,
      "duration": 0.0125,
      "velocity": 95,
      "chip": "ym2612"
    },
    {
      "channel": 1,
      "note": 63,
      "start": 20.4434,
      "duration": 0.087,
      "velocity": 81,
      "chip": "ym2612"
    },
    {
      "channel": 4,
      "note": 68,
      "start": 20.4468,
      "duration": 0.0857,
      "velocity": 74,
      "chip": "ym2612"
    },
    {
      "channel": 5,
      "note": 91,
      "start": 20.448,
      "duration": 0.0088,
      "velocity": 95,
      "chip": "ym2612"
    },
    {
      "channel": 2,
      "note": 40,
      "start": 20.4507,
      "duration": 0.0075,
      "velocity": 114,
      "chip": "ym2612"
    },
    {
      "channel": 0,
      "note": 91,
      "start": 20.4545,
      "duration": 0.0125,
      "velocity": 95,
      "chip": "ym2612"
    },
    {
      "channel": 5,
      "note": 91,
      "start": 20.4569,
      "duration": 0.0125,
      "velocity": 95,
      "chip": "ym2612"
    },
    {
      "channel": 2,
      "note": 40,
      "start": 20.4582,
      "duration": 0.0124,
      "velocity": 114,
      "chip": "ym2612"
    },
    {
      "channel": 0,
      "note": 91,
      "start": 20.467,
      "duration": 0.0126,
      "velocity": 95,
      "chip": "ym2612"
    },
    {
      "channel": 5,
      "note": 91,
      "start": 20.4694,
      "duration": 0.0125,
      "velocity": 95,
      "chip": "ym2612"
    },
    {
      "channel": 2,
      "note": 40,
      "start": 20.4706,
      "duration": 0.0129,
      "velocity": 114,
      "chip": "ym2612"
    },
    {
      "channel": 0,
      "note": 91,
      "start": 20.4795,
      "duration": 0.0125,
      "velocity": 95,
      "chip": "ym2612"
    },
    {
      "channel": 5,
      "note": 91,
      "start": 20.4819,
      "duration": 0.0131,
      "velocity": 95,
      "chip": "ym2612"
    },
    {
      "channel": 2,
      "note": 40,
      "start": 20.4836,
      "duration": 0.0127,
      "velocity": 114,
      "chip": "ym2612"
    },
    {
      "channel": 0,
      "note": 91,
      "start": 20.492,
      "duration": 0.0125,
      "velocity": 95,
      "chip": "ym2612"
    },
    {
      "channel": 5,
      "note": 91,
      "start": 20.495,
      "duration": 0.0119,
      "velocity": 95,
      "chip": "ym2612"
    },
    {
      "channel": 2,
      "note": 40,
      "start": 20.4963,
      "duration": 0.0119,
      "velocity": 114,
      "chip": "ym2612"
    },
    {
      "channel": 0,
      "note": 91,
      "start": 20.5045,
      "duration": 0.0125,
      "velocity": 95,
      "chip": "ym2612"
    },
    {
      "channel": 5,
      "note": 91,
      "start": 20.5069,
      "duration": 0.0125,
      "velocity": 95,
      "chip": "ym2612"
    },
    {
      "channel": 2,
      "note": 40,
      "start": 20.5082,
      "duration": 0.0124,
      "velocity": 114,
      "chip": "ym2612"
    },
    {
      "channel": 0,
      "note": 91,
      "start": 20.517,
      "duration": 0.0126,
      "velocity": 95,
      "chip": "ym2612"
    },
    {
      "channel": 5,
      "note": 91,
      "start": 20.5194,
      "duration": 0.0148,
      "velocity": 95,
      "chip": "ym2612"
    },
    {
      "channel": 2,
      "note": 40,
      "start": 20.5206,
      "duration": 0.0148,
      "velocity": 114,
      "chip": "ym2612"
    },
    {
      "channel": 0,
      "note": 91,
      "start": 20.5295,
      "duration": 0.0125,
      "velocity": 95,
      "chip": "ym2612"
    },
    {
      "channel": 1,
      "note": 63,
      "start": 20.531,
      "duration": 0.0995,
      "velocity": 81,
      "chip": "ym2612"
    },
    {
      "channel": 4,
      "note": 70,
      "start": 20.533,
      "duration": 0.1004,
      "velocity": 74,
      "chip": "ym2612"
    },
    {
      "channel": 5,
      "note": 91,
      "start": 20.5342,
      "duration": 0.0108,
      "velocity": 95,
      "chip": "ym2612"
    },
    {
      "channel": 2,
      "note": 40,
      "start": 20.5355,
      "duration": 0.0108,
      "velocity": 114,
      "chip": "ym2612"
    },
    {
      "channel": 0,
      "note": 91,
      "start": 20.542,
      "duration": 0.0125,
      "velocity": 95,
      "chip": "ym2612"
    },
    {
      "channel": 5,
      "note": 91,
      "start": 20.545,
      "duration": 0.0119,
      "velocity": 95,
      "chip": "ym2612"
    },
    {
      "channel": 2,
      "note": 40,
      "start": 20.5463,
      "duration": 0.0119,
      "velocity": 114,
      "chip": "ym2612"
    },
    {
      "channel": 0,
      "note": 91,
      "start": 20.5545,
      "duration": 0.0125,
      "velocity": 95,
      "chip": "ym2612"
    },
    {
      "channel": 5,
      "note": 91,
      "start": 20.5569,
      "duration": 0.0125,
      "velocity": 95,
      "chip": "ym2612"
    },
    {
      "channel": 2,
      "note": 40,
      "start": 20.5582,
      "duration": 0.0124,
      "velocity": 114,
      "chip": "ym2612"
    },
    {
      "channel": 0,
      "note": 91,
      "start": 20.567,
      "duration": 0.0126,
      "velocity": 95,
      "chip": "ym2612"
    },
    {
      "channel": 5,
      "note": 91,
      "start": 20.5694,
      "duration": 0.0125,
      "velocity": 95,
      "chip": "ym2612"
    },
    {
      "channel": 2,
      "note": 39,
      "start": 20.5706,
      "duration": 0.0125,
      "velocity": 114,
      "chip": "ym2612"
    },
    {
      "channel": 0,
      "note": 91,
      "start": 20.5795,
      "duration": 0.0125,
      "velocity": 95,
      "chip": "ym2612"
    },
    {
      "channel": 5,
      "note": 91,
      "start": 20.5819,
      "duration": 0.0131,
      "velocity": 95,
      "chip": "ym2612"
    },
    {
      "channel": 2,
      "note": 39,
      "start": 20.5832,
      "duration": 0.0131,
      "velocity": 114,
      "chip": "ym2612"
    },
    {
      "channel": 0,
      "note": 91,
      "start": 20.592,
      "duration": 0.0125,
      "velocity": 95,
      "chip": "ym2612"
    },
    {
      "channel": 5,
      "note": 91,
      "start": 20.595,
      "duration": 0.0119,
      "velocity": 95,
      "chip": "ym2612"
    },
    {
      "channel": 2,
      "note": 39,
      "start": 20.5963,
      "duration": 0.0118,
      "velocity": 114,
      "chip": "ym2612"
    },
    {
      "channel": 0,
      "note": 91,
      "start": 20.6045,
      "duration": 0.0125,
      "velocity": 95,
      "chip": "ym2612"
    },
    {
      "channel": 5,
      "note": 91,
      "start": 20.6069,
      "duration": 0.0125,
      "velocity": 95,
      "chip": "ym2612"
    },
    {
      "channel": 0,
      "note": 91,
      "start": 20.617,
      "duration": 0.0126,
      "velocity": 95,
      "chip": "ym2612"
    },
    {
      "channel": 5,
      "note": 91,
      "start": 20.6194,
      "duration": 0.0156,
      "velocity": 95,
      "chip": "ym2612"
    },
    {
      "channel": 0,
      "note": 91,
      "start": 20.6295,
      "duration": 0.0127,
      "velocity": 95,
      "chip": "ym2612"
    },
    {
      "channel": 1,
      "note": 51,
      "start": 20.631,
      "duration": 0.187,
      "velocity": 81,
      "chip": "ym2612"
    },
    {
      "channel": 4,
      "note": 61,
      "start": 20.6338,
      "duration": 0.0852,
      "velocity": 74,
      "chip": "ym2612"
    },
    {
      "channel": 5,
      "note": 91,
      "start": 20.635,
      "duration": 0.0102,
      "velocity": 95,
      "chip": "ym2612"
    },
    {
      "channel": 2,
      "note": 41,
      "start": 20.6405,
      "duration": 0.1849,
      "velocity": 122,
      "chip": "ym2612"
    },
    {
      "channel": 0,
      "note": 91,
      "start": 20.6423,
      "duration": 0.0125,
      "velocity": 95,
      "chip": "ym2612"
    },
    {
      "channel": 5,
      "note": 91,
      "start": 20.6453,
      "duration": 0.0119,
      "velocity": 95,
      "chip": "ym2612"
    },
    {
      "channel": 0,
      "note": 91,
      "start": 20.6547,
      "duration": 0.0125,
      "velocity": 95,
      "chip": "ym2612"
    },
    {
      "channel": 5,
      "note": 91,
      "start": 20.6572,
      "duration": 0.0124,
      "velocity": 95,
      "chip": "ym2612"
    },
    {
      "channel": 0,
      "note": 91,
      "start": 20.6672,
      "duration": 0.0125,
      "velocity": 95,
      "chip": "ym2612"
    },
    {
      "channel": 5,
      "note": 91,
      "start": 20.6696,
      "duration": 0.0125,
      "velocity": 95,
      "chip": "ym2612"
    },
    {
      "channel": 0,
      "note": 91,
      "start": 20.6798,
      "duration": 0.0124,
      "velocity": 95,
      "chip": "ym2612"
    },
    {
      "channel": 5,
      "note": 91,
      "start": 20.6821,
      "duration": 0.0131,
      "velocity": 95,
      "chip": "ym2612"
    },
    {
      "channel": 0,
      "note": 91,
      "start": 20.6922,
      "duration": 0.0125,
      "velocity": 95,
      "chip": "ym2612"
    },
    {
      "channel": 5,
      "note": 91,
      "start": 20.6952,
      "duration": 0.0119,
      "velocity": 95,
      "chip": "ym2612"
    },
    {
      "channel": 0,
      "note": 91,
      "start": 20.7047,
      "duration": 0.0125,
      "velocity": 95,
      "chip": "ym2612"
    },
    {
      "channel": 5,
      "note": 91,
      "start": 20.7071,
      "duration": 0.0136,
      "velocity": 95,
      "chip": "ym2612"
    },
    {
      "channel": 0,
      "note": 91,
      "start": 20.7171,
      "duration": 0.0125,
      "velocity": 95,
      "chip": "ym2612"
    },
    {
      "channel": 4,
      "note": 67,
      "start": 20.7195,
      "duration": 0.1013,
      "velocity": 74,
      "chip": "ym2612"
    },
    {
      "channel": 5,
      "note": 91,
      "start": 20.7207,
      "duration": 0.0114,
      "velocity": 95,
      "chip": "ym2612"
    },
    {
      "channel": 0,
      "note": 91,
      "start": 20.7297,
      "duration": 0.0125,
      "velocity": 95,
      "chip": "ym2612"
    },
    {
      "channel": 5,
      "note": 91,
      "start": 20.7321,
      "duration": 0.013,
      "velocity": 95,
      "chip": "ym2612"
    },
    {
      "channel": 0,
      "note": 91,
      "start": 20.7422,
      "duration": 0.0124,
      "velocity": 95,
      "chip": "ym2612"
    },
    {
      "channel": 5,
      "note": 91,
      "start": 20.7451,
      "duration": 0.0119,
      "velocity": 95,
      "chip": "ym2612"
    },
    {
      "channel": 0,
      "note": 91,
      "start": 20.7546,
      "duration": 0.0125,
      "velocity": 95,
      "chip": "ym2612"
    },
    {
      "channel": 5,
      "note": 91,
      "start": 20.757,
      "duration": 0.0125,
      "velocity": 95,
      "chip": "ym2612"
    },
    {
      "channel": 0,
      "note": 91,
      "start": 20.7671,
      "duration": 0.0125,
      "velocity": 95,
      "chip": "ym2612"
    },
    {
      "channel": 5,
      "note": 91,
      "start": 20.7696,
      "duration": 0.0125,
      "velocity": 95,
      "chip": "ym2612"
    },
    {
      "channel": 0,
      "note": 91,
      "start": 20.7796,
      "duration": 0.0125,
      "velocity": 95,
      "chip": "ym2612"
    },
    {
      "channel": 5,
      "note": 91,
      "start": 20.782,
      "duration": 0.013,
      "velocity": 95,
      "chip": "ym2612"
    },
    {
      "channel": 0,
      "note": 91,
      "start": 20.7921,
      "duration": 0.0125,
      "velocity": 95,
      "chip": "ym2612"
    },
    {
      "channel": 5,
      "note": 91,
      "start": 20.7951,
      "duration": 0.0119,
      "velocity": 95,
      "chip": "ym2612"
    },
    {
      "channel": 0,
      "note": 91,
      "start": 20.8046,
      "duration": 0.0125,
      "velocity": 95,
      "chip": "ym2612"
    },
    {
      "channel": 5,
      "note": 91,
      "start": 20.807,
      "duration": 0.0156,
      "velocity": 95,
      "chip": "ym2612"
    },
    {
      "channel": 0,
      "note": 91,
      "start": 20.8171,
      "duration": 0.0134,
      "velocity": 95,
      "chip": "ym2612"
    },
    {
      "channel": 1,
      "note": 63,
      "start": 20.8185,
      "duration": 0.0878,
      "velocity": 81,
      "chip": "ym2612"
    },
    {
      "channel": 4,
      "note": 68,
      "start": 20.8213,
      "duration": 0.0878,
      "velocity": 74,
      "chip": "ym2612"
    },
    {
      "channel": 5,
      "note": 91,
      "start": 20.8226,
      "duration": 0.0103,
      "velocity": 95,
      "chip": "ym2612"
    },
    {
      "channel": 2,
      "note": 40,
      "start": 20.8287,
      "duration": 0.0055,
      "velocity": 114,
      "chip": "ym2612"
    },
    {
      "channel": 0,
      "note": 91,
      "start": 20.8304,
      "duration": 0.0125,
      "velocity": 95,
      "chip": "ym2612"
    },
    {
      "channel": 5,
      "note": 91,
      "start": 20.8329,
      "duration": 0.0131,
      "velocity": 95,
      "chip": "ym2612"
    },
    {
      "channel": 2,
      "note": 40,
      "start": 20.8341,
      "duration": 0.0131,
      "velocity": 114,
      "chip": "ym2612"
    },
    {
      "channel": 0,
      "note": 91,
      "start": 20.8429,
      "duration": 0.0125,
      "velocity": 95,
      "chip": "ym2612"
    },
    {
      "channel": 5,
      "note": 91,
      "start": 20.846,
      "duration": 0.0119,
      "velocity": 95,
      "chip": "ym2612"
    },
    {
      "channel": 2,
      "note": 40,
      "start": 20.8472,
      "duration": 0.0123,
      "velocity": 114,
      "chip": "ym2612"
    },
    {
      "channel": 0,
      "note": 91,
      "start": 20.8554,
      "duration": 0.0125,
      "velocity": 95,
      "chip": "ym2612"
    },
    {
      "channel": 5,
      "note": 91,
      "start": 20.8578,
      "duration": 0.0125,
      "velocity": 95,
      "chip": "ym2612"
    },
    {
      "channel": 2,
      "note": 40,
      "start": 20.8595,
      "duration": 0.0121,
      "velocity": 114,
      "chip": "ym2612"
    },
    {
      "channel": 0,
      "note": 91,
      "start": 20.8679,
      "duration": 0.0125,
      "velocity": 95,
      "chip": "ym2612"
    },
    {
      "channel": 5,
      "note": 91,
      "start": 20.8703,
      "duration": 0.0125,
      "velocity": 95,
      "chip": "ym2612"
    },
    {
      "channel": 2,
      "note": 40,
      "start": 20.8716,
      "duration": 0.0125,
      "velocity": 114,
      "chip": "ym2612"
    },
    {
      "channel": 0,
      "note": 91,
      "start": 20.8804,
      "duration": 0.0124,
      "velocity": 95,
      "chip": "ym2612"
    },
    {
      "channel": 5,
      "note": 91,
      "start": 20.8828,
      "duration": 0.0131,
      "velocity": 95,
      "chip": "ym2612"
    },
    {
      "channel": 2,
      "note": 40,
      "start": 20.8841,
      "duration": 0.013,
      "velocity": 114,
      "chip": "ym2612"
    },
    {
      "channel": 0,
      "note": 91,
      "start": 20.8928,
      "duration": 0.0125,
      "velocity": 95,
      "chip": "ym2612"
    },
    {
      "channel": 5,
      "note": 91,
      "start": 20.8959,
      "duration": 0.0155,
      "velocity": 95,
      "chip": "ym2612"
    },
    {
      "channel": 2,
      "note": 40,
      "start": 20.8971,
      "duration": 0.0155,
      "velocity": 114,
      "chip": "ym2612"
    },
    {
      "channel": 0,
      "note": 91,
      "start": 20.9054,
      "duration": 0.0125,
      "velocity": 95,
      "chip": "ym2612"
    },
    {
      "channel": 1,
      "note": 63,
      "start": 20.9068,
      "duration": 0.0994,
      "velocity": 81,
      "chip": "ym2612"
    },
    {
      "channel": 4,
      "note": 65,
      "start": 20.9096,
      "duration": 0.1002,
      "velocity": 74,
      "chip": "ym2612"
    },
    {
      "channel": 5,
      "note": 91,
      "start": 20.9114,
      "duration": 0.0088,
      "velocity": 95,
      "chip": "ym2612"
    },
    {
      "channel": 0,
      "note": 91,
      "start": 20.9178,
      "duration": 0.0125,
      "velocity": 95,
      "chip": "ym2612"
    },
    {
      "channel": 5,
      "note": 91,
      "start": 20.9203,
      "duration": 0.0125,
      "velocity": 95,
      "chip": "ym2612"
    },
    {
      "channel": 2,
      "note": 40,
      "start": 20.9225,
      "duration": 0.0115,
      "velocity": 114,
      "chip": "ym2612"
    },
    {
      "channel": 0,
      "note": 91,
      "start": 20.9304,
      "duration": 0.0124,
      "velocity": 95,
      "chip": "ym2612"
    },
    {
      "channel": 5,
      "note": 91,
      "start": 20.9328,
      "duration": 0.013,
      "velocity": 95,
      "chip": "ym2612"
    },
    {
      "channel": 2,
      "note": 40,
      "start": 20.934,
      "duration": 0.0131,
      "velocity": 114,
      "chip": "ym2612"
    },
    {
      "channel": 0,
      "note": 91,
      "start": 20.9428,
      "duration": 0.0125,
      "velocity": 95,
      "chip": "ym2612"
    },
    {
      "channel": 5,
      "note": 91,
      "start": 20.9458,
      "duration": 0.0118,
      "velocity": 95,
      "chip": "ym2612"
    },
    {
      "channel": 2,
      "note": 40,
      "start": 20.9471,
      "duration": 0.0122,
      "velocity": 114,
      "chip": "ym2612"
    },
    {
      "channel": 0,
      "note": 91,
      "start": 20.9553,
      "duration": 0.0125,
      "velocity": 95,
      "chip": "ym2612"
    },
    {
      "channel": 5,
      "note": 91,
      "start": 20.9577,
      "duration": 0.0125,
      "velocity": 95,
      "chip": "ym2612"
    },
    {
      "channel": 2,
      "note": 40,
      "start": 20.9593,
      "duration": 0.0122,
      "velocity": 114,
      "chip": "ym2612"
    },
    {
      "channel": 0,
      "note": 91,
      "start": 20.9678,
      "duration": 0.0125,
      "velocity": 95,
      "chip": "ym2612"
    },
    {
      "channel": 5,
      "note": 91,
      "start": 20.9702,
      "duration": 0.0125,
      "velocity": 95,
      "chip": "ym2612"
    },
    {
      "channel": 2,
      "note": 40,
      "start": 20.9715,
      "duration": 0.0125,
      "velocity": 114,
      "chip": "ym2612"
    },
    {
      "channel": 0,
      "note": 91,
      "start": 20.9802,
      "duration": 0.0125,
      "velocity": 95,
      "chip": "ym2612"
    },
    {
      "channel": 5,
      "note": 91,
      "start": 20.9827,
      "duration": 0.0131,
      "velocity": 95,
      "chip": "ym2612"
    },
    {
      "channel": 2,
      "note": 40,
      "start": 20.9839,
      "duration": 0.0131,
      "velocity": 114,
      "chip": "ym2612"
    },
    {
      "channel": 0,
      "note": 91,
      "start": 20.9927,
      "duration": 0.0125,
      "velocity": 95,
      "chip": "ym2612"
    },
    {
      "channel": 5,
      "note": 91,
      "start": 20.9958,
      "duration": 0.0163,
      "velocity": 95,
      "chip": "ym2612"
    },
    {
      "channel": 2,
      "note": 40,
      "start": 20.9971,
      "duration": 0.0161,
      "velocity": 114,
      "chip": "ym2612"
    },
    {
      "channel": 0,
      "note": 91,
      "start": 21.0052,
      "duration": 0.0125,
      "velocity": 95,
      "chip": "ym2612"
    },
    {
      "channel": 1,
      "note": 51,
      "start": 21.0066,
      "duration": 0.1872,
      "velocity": 81,
      "chip": "ym2612"
    },
    {
      "channel": 4,
      "note": 61,
      "start": 21.0103,
      "duration": 0.0848,
      "velocity": 74,
      "chip": "ym2612"
    },
    {
      "channel": 5,
      "note": 91,
      "start": 21.0121,
      "duration": 0.008,
      "velocity": 95,
      "chip": "ym2612"
    },
    {
      "channel": 0,
      "note": 91,
      "start": 21.0177,
      "duration": 0.0125,
      "velocity": 95,
      "chip": "ym2612"
    },
    {
      "channel": 5,
      "note": 91,
      "start": 21.0201,
      "duration": 0.0125,
      "velocity": 95,
      "chip": "ym2612"
    },
    {
      "channel": 2,
      "note": 40,
      "start": 21.0224,
      "duration": 0.0115,
      "velocity": 114,
      "chip": "ym2612"
    },
    {
      "channel": 0,
      "note": 91,
      "start": 21.0302,
      "duration": 0.0125,
      "velocity": 95,
      "chip": "ym2612"
    },
    {
      "channel": 5,
      "note": 91,
      "start": 21.0326,
      "duration": 0.0131,
      "velocity": 95,
      "chip": "ym2612"
    },
    {
      "channel": 2,
      "note": 40,
      "start": 21.0339,
      "duration": 0.013,
      "velocity": 114,
      "chip": "ym2612"
    },
    {
      "channel": 0,
      "note": 91,
      "start": 21.0427,
      "duration": 0.0125,
      "velocity": 95,
      "chip": "ym2612"
    },
    {
      "channel": 5,
      "note": 91,
      "start": 21.0457,
      "duration": 0.0118,
      "velocity": 95,
      "chip": "ym2612"
    },
    {
      "channel": 2,
      "note": 40,
      "start": 21.0469,
      "duration": 0.0123,
      "velocity": 114,
      "chip": "ym2612"
    },
    {
      "channel": 0,
      "note": 91,
      "start": 21.0552,
      "duration": 0.0125,
      "velocity": 95,
      "chip": "ym2612"
    },
    {
      "channel": 5,
      "note": 91,
      "start": 21.0575,
      "duration": 0.0125,
      "velocity": 95,
      "chip": "ym2612"
    },
    {
      "channel": 2,
      "note": 40,
      "start": 21.0592,
      "duration": 0.0122,
      "velocity": 114,
      "chip": "ym2612"
    },
    {
      "channel": 0,
      "note": 91,
      "start": 21.0677,
      "duration": 0.0125,
      "velocity": 95,
      "chip": "ym2612"
    },
    {
      "channel": 5,
      "note": 91,
      "start": 21.0701,
      "duration": 0.0125,
      "velocity": 95,
      "chip": "ym2612"
    },
    {
      "channel": 2,
      "note": 40,
      "start": 21.0713,
      "duration": 0.0125,
      "velocity": 114,
      "chip": "ym2612"
    },
    {
      "channel": 0,
      "note": 91,
      "start": 21.0802,
      "duration": 0.0124,
      "velocity": 95,
      "chip": "ym2612"
    },
    {
      "channel": 5,
      "note": 91,
      "start": 21.0825,
      "duration": 0.0142,
      "velocity": 95,
      "chip": "ym2612"
    },
    {
      "channel": 2,
      "note": 40,
      "start": 21.0838,
      "duration": 0.0142,
      "velocity": 114,
      "chip": "ym2612"
    },
    {
      "channel": 0,
      "note": 91,
      "start": 21.0926,
      "duration": 0.0125,
      "velocity": 95,
      "chip": "ym2612"
    },
    {
      "channel": 4,
      "note": 73,
      "start": 21.0956,
      "duration": 0.1016,
      "velocity": 74,
      "chip": "ym2612"
    },
    {
      "channel": 5,
      "note": 91,
      "start": 21.0968,
      "duration": 0.0107,
      "velocity": 95,
      "chip": "ym2612"
    },
    {
      "channel": 2,
      "note": 40,
      "start": 21.098,
      "duration": 0.0107,
      "velocity": 114,
      "chip": "ym2612"
    },
    {
      "channel": 0,
      "note": 91,
      "start": 21.1051,
      "duration": 0.0125,
      "velocity": 95,
      "chip": "ym2612"
    },
    {
      "channel": 5,
      "note": 91,
      "start": 21.1075,
      "duration": 0.0125,
      "velocity": 95,
      "chip": "ym2612"
    },
    {
      "channel": 2,
      "note": 40,
      "start": 21.1088,
      "duration": 0.0125,
      "velocity": 114,
      "chip": "ym2612"
    },
    {
      "channel": 0,
      "note": 91,
      "start": 21.1176,
      "duration": 0.0125,
      "velocity": 95,
      "chip": "ym2612"
    },
    {
      "channel": 5,
      "note": 91,
      "start": 21.12,
      "duration": 0.0125,
      "velocity": 95,
      "chip": "ym2612"
    },
    {
      "channel": 2,
      "note": 40,
      "start": 21.1213,
      "duration": 0.0125,
      "velocity": 114,
      "chip": "ym2612"
    },
    {
      "channel": 0,
      "note": 91,
      "start": 21.1301,
      "duration": 0.0124,
      "velocity": 95,
      "chip": "ym2612"
    },
    {
      "channel": 5,
      "note": 91,
      "start": 21.1325,
      "duration": 0.013,
      "velocity": 95,
      "chip": "ym2612"
    },
    {
      "channel": 2,
      "note": 40,
      "start": 21.1337,
      "duration": 0.013,
      "velocity": 114,
      "chip": "ym2612"
    },
    {
      "channel": 0,
      "note": 91,
      "start": 21.1425,
      "duration": 0.0125,
      "velocity": 95,
      "chip": "ym2612"
    },
    {
      "channel": 5,
      "note": 91,
      "start": 21.1455,
      "duration": 0.0119,
      "velocity": 95,
      "chip": "ym2612"
    },
    {
      "channel": 2,
      "note": 39,
      "start": 21.1468,
      "duration": 0.0119,
      "velocity": 114,
      "chip": "ym2612"
    },
    {
      "channel": 0,
      "note": 91,
      "start": 21.1551,
      "duration": 0.0125,
      "velocity": 95,
      "chip": "ym2612"
    },
    {
      "channel": 5,
      "note": 91,
      "start": 21.1574,
      "duration": 0.0125,
      "velocity": 95,
      "chip": "ym2612"
    },
    {
      "channel": 2,
      "note": 39,
      "start": 21.1587,
      "duration": 0.0125,
      "velocity": 114,
      "chip": "ym2612"
    },
    {
      "channel": 0,
      "note": 91,
      "start": 21.1675,
      "duration": 0.0125,
      "velocity": 95,
      "chip": "ym2612"
    },
    {
      "channel": 5,
      "note": 91,
      "start": 21.1699,
      "duration": 0.0125,
      "velocity": 95,
      "chip": "ym2612"
    },
    {
      "channel": 2,
      "note": 39,
      "start": 21.1712,
      "duration": 0.0124,
      "velocity": 114,
      "chip": "ym2612"
    },
    {
      "channel": 0,
      "note": 91,
      "start": 21.18,
      "duration": 0.0123,
      "velocity": 95,
      "chip": "ym2612"
    },
    {
      "channel": 5,
      "note": 91,
      "start": 21.1824,
      "duration": 0.0165,
      "velocity": 95,
      "chip": "ym2612"
    },
    {
      "channel": 0,
      "note": 87,
      "start": 21.1928,
      "duration": 0.1866,
      "velocity": 95,
      "chip": "ym2612"
    },
    {
      "channel": 1,
      "note": 51,
      "start": 21.1949,
      "duration": 0.1861,
      "velocity": 81,
      "chip": "ym2612"
    },
    {
      "channel": 4,
      "note": 75,
      "start": 21.1977,
      "duration": 0.0831,
      "velocity": 74,
      "chip": "ym2612"
    },
    {
      "channel": 5,
      "note": 91,
      "start": 21.1989,
      "duration": 0.0076,
      "velocity": 95,
      "chip": "ym2612"
    },
    {
      "channel": 2,
      "note": 40,
      "start": 21.2016,
      "duration": 0.0062,
      "velocity": 114,
      "chip": "ym2612"
    },
    {
      "channel": 5,
      "note": 91,
      "start": 21.2065,
      "duration": 0.0125,
      "velocity": 95,
      "chip": "ym2612"
    },
    {
      "channel": 2,
      "note": 40,
      "start": 21.2077,
      "duration": 0.0125,
      "velocity": 114,
      "chip": "ym2612"
    },
    {
      "channel": 5,
      "note": 91,
      "start": 21.219,
      "duration": 0.0125,
      "velocity": 95,
      "chip": "ym2612"
    },
    {
      "channel": 2,
      "note": 40,
      "start": 21.2203,
      "duration": 0.0128,
      "velocity": 114,
      "chip": "ym2612"
    },
    {
      "channel": 5,
      "note": 91,
      "start": 21.2315,
      "duration": 0.0128,
      "velocity": 95,
      "chip": "ym2612"
    },
    {
      "channel": 2,
      "note": 40,
      "start": 21.233,
      "duration": 0.0127,
      "velocity": 114,
      "chip": "ym2612"
    },
    {
      "channel": 5,
      "note": 91,
      "start": 21.2442,
      "duration": 0.0122,
      "velocity": 95,
      "chip": "ym2612"
    },
    {
      "channel": 2,
      "note": 40,
      "start": 21.2458,
      "duration": 0.0119,
      "velocity": 114,
      "chip": "ym2612"
    },
    {
      "channel": 5,
      "note": 91,
      "start": 21.2564,
      "duration": 0.0125,
      "velocity": 95,
      "chip": "ym2612"
    },
    {
      "channel": 2,
      "note": 40,
      "start": 21.2577,
      "duration": 0.0125,
      "velocity": 114,
      "chip": "ym2612"
    },
    {
      "channel": 5,
      "note": 91,
      "start": 21.2689,
      "duration": 0.0136,
      "velocity": 95,
      "chip": "ym2612"
    },
    {
      "channel": 2,
      "note": 40,
      "start": 21.2701,
      "duration": 0.0136,
      "velocity": 114,
      "chip": "ym2612"
    },
    {
      "channel": 4,
      "note": 61,
      "start": 21.2813,
      "duration": 0.1025,
      "velocity": 74,
      "chip": "ym2612"
    },
    {
      "channel": 5,
      "note": 91,
      "start": 21.2825,
      "duration": 0.0117,
      "velocity": 95,
      "chip": "ym2612"
    },
    {
      "channel": 2,
      "note": 40,
      "start": 21.2837,
      "duration": 0.012,
      "velocity": 114,
      "chip": "ym2612"
    },
    {
      "channel": 5,
      "note": 91,
      "start": 21.2942,
      "duration": 0.0122,
      "velocity": 95,
      "chip": "ym2612"
    },
    {
      "channel": 2,
      "note": 40,
      "start": 21.2957,
      "duration": 0.0119,
      "velocity": 114,
      "chip": "ym2612"
    },
    {
      "channel": 5,
      "note": 91,
      "start": 21.3063,
      "duration": 0.0125,
      "velocity": 95,
      "chip": "ym2612"
    },
    {
      "channel": 2,
      "note": 40,
      "start": 21.3076,
      "duration": 0.0125,
      "velocity": 114,
      "chip": "ym2612"
    },
    {
      "channel": 5,
      "note": 91,
      "start": 21.3188,
      "duration": 0.0123,
      "velocity": 95,
      "chip": "ym2612"
    },
    {
      "channel": 2,
      "note": 39,
      "start": 21.3201,
      "duration": 0.0129,
      "velocity": 114,
      "chip": "ym2612"
    },
    {
      "channel": 5,
      "note": 87,
      "start": 21.3317,
      "duration": 0.1866,
      "velocity": 95,
      "chip": "ym2612"
    },
    {
      "channel": 2,
      "note": 39,
      "start": 21.3329,
      "duration": 0.0116,
      "velocity": 114,
      "chip": "ym2612"
    },
    {
      "channel": 2,
      "note": 39,
      "start": 21.3445,
      "duration": 0.0121,
      "velocity": 114,
      "chip": "ym2612"
    },
    {
      "channel": 0,
      "note": 82,
      "start": 21.38,
      "duration": 0.1868,
      "velocity": 95,
      "chip": "ym2612"
    },
    {
      "channel": 1,
      "note": 51,
      "start": 21.3814,
      "duration": 0.1869,
      "velocity": 81,
      "chip": "ym2612"
    },
    {
      "channel": 4,
      "note": 72,
      "start": 21.3843,
      "duration": 0.0846,
      "velocity": 74,
      "chip": "ym2612"
    },
    {
      "channel": 2,
      "note": 41,
      "start": 21.39,
      "duration": 0.0824,
      "velocity": 122,
      "chip": "ym2612"
    },
    {
      "channel": 4,
      "note": 73,
      "start": 21.4694,
      "duration": 0.101,
      "velocity": 74,
      "chip": "ym2612"
    },
    {
      "channel": 2,
      "note": 40,
      "start": 21.4752,
      "duration": 0.0063,
      "velocity": 114,
      "chip": "ym2612"
    },
    {
      "channel": 2,
      "note": 40,
      "start": 21.4815,
      "duration": 0.0129,
      "velocity": 114,
      "chip": "ym2612"
    },
    {
      "channel": 2,
      "note": 40,
      "start": 21.4943,
      "duration": 0.0125,
      "velocity": 114,
      "chip": "ym2612"
    },
    {
      "channel": 2,
      "note": 40,
      "start": 21.5068,
      "duration": 0.0132,
      "velocity": 114,
      "chip": "ym2612"
    },
    {
      "channel": 5,
      "note": 82,
      "start": 21.5188,
      "duration": 0.187,
      "velocity": 95,
      "chip": "ym2612"
    },
    {
      "channel": 2,
      "note": 40,
      "start": 21.5201,
      "duration": 0.0113,
      "velocity": 114,
      "chip": "ym2612"
    },
    {
      "channel": 2,
      "note": 40,
      "start": 21.5314,
      "duration": 0.0129,
      "velocity": 114,
      "chip": "ym2612"
    },
    {
      "channel": 2,
      "note": 40,
      "start": 21.5442,
      "duration": 0.0122,
      "velocity": 114,
      "chip": "ym2612"
    },
    {
      "channel": 2,
      "note": 40,
      "start": 21.5564,
      "duration": 0.016,
      "velocity": 114,
      "chip": "ym2612"
    },
    {
      "channel": 0,
      "note": 87,
      "start": 21.5673,
      "duration": 0.1869,
      "velocity": 95,
      "chip": "ym2612"
    },
    {
      "channel": 1,
      "note": 51,
      "start": 21.5687,
      "duration": 0.187,
      "velocity": 81,
      "chip": "ym2612"
    },
    {
      "channel": 4,
      "note": 61,
      "start": 21.5708,
      "duration": 0.0847,
      "velocity": 74,
      "chip": "ym2612"
    },
    {
      "channel": 2,
      "note": 40,
      "start": 21.5724,
      "duration": 0.009,
      "velocity": 114,
      "chip": "ym2612"
    },
    {
      "channel": 2,
      "note": 40,
      "start": 21.5814,
      "duration": 0.0129,
      "velocity": 114,
      "chip": "ym2612"
    },
    {
      "channel": 2,
      "note": 39,
      "start": 21.5942,
      "duration": 0.0121,
      "velocity": 114,
      "chip": "ym2612"
    },
    {
      "channel": 2,
      "note": 39,
      "start": 21.6063,
      "duration": 0.0125,
      "velocity": 114,
      "chip": "ym2612"
    },
    {
      "channel": 2,
      "note": 39,
      "start": 21.6189,
      "duration": 0.0125,
      "velocity": 114,
      "chip": "ym2612"
    },
    {
      "channel": 4,
      "note": 70,
      "start": 21.6559,
      "duration": 0.1026,
      "velocity": 74,
      "chip": "ym2612"
    },
    {
      "channel": 5,
      "note": 87,
      "start": 21.7063,
      "duration": 0.187,
      "velocity": 95,
      "chip": "ym2612"
    },
    {
      "channel": 0,
      "note": 91,
      "start": 21.7547,
      "duration": 0.1871,
      "velocity": 95,
      "chip": "ym2612"
    },
    {
      "channel": 1,
      "note": 51,
      "start": 21.7561,
      "duration": 0.1871,
      "velocity": 81,
      "chip": "ym2612"
    },
    {
      "channel": 4,
      "note": 72,
      "start": 21.759,
      "duration": 0.084,
      "velocity": 74,
      "chip": "ym2612"
    },
    {
      "channel": 2,
      "note": 40,
      "start": 21.7626,
      "duration": 0.0063,
      "velocity": 114,
      "chip": "ym2612"
    },
    {
      "channel": 2,
      "note": 40,
      "start": 21.7689,
      "duration": 0.0125,
      "velocity": 114,
      "chip": "ym2612"
    },
    {
      "channel": 2,
      "note": 40,
      "start": 21.7814,
      "duration": 0.0135,
      "velocity": 114,
      "chip": "ym2612"
    },
    {
      "channel": 2,
      "note": 40,
      "start": 21.7949,
      "duration": 0.0115,
      "velocity": 114,
      "chip": "ym2612"
    },
    {
      "channel": 2,
      "note": 40,
      "start": 21.8064,
      "duration": 0.0125,
      "velocity": 114,
      "chip": "ym2612"
    },
    {
      "channel": 2,
      "note": 40,
      "start": 21.8189,
      "duration": 0.0125,
      "velocity": 114,
      "chip": "ym2612"
    },
    {
      "channel": 2,
      "note": 40,
      "start": 21.8314,
      "duration": 0.0142,
      "velocity": 114,
      "chip": "ym2612"
    },
    {
      "channel": 4,
      "note": 61,
      "start": 21.8434,
      "duration": 0.1033,
      "velocity": 74,
      "chip": "ym2612"
    },
    {
      "channel": 2,
      "note": 40,
      "start": 21.8456,
      "duration": 0.0107,
      "velocity": 114,
      "chip": "ym2612"
    },
    {
      "channel": 2,
      "note": 40,
      "start": 21.8563,
      "duration": 0.0125,
      "velocity": 114,
      "chip": "ym2612"
    },
    {
      "channel": 2,
      "note": 40,
      "start": 21.8689,
      "duration": 0.0125,
      "velocity": 114,
      "chip": "ym2612"
    },
    {
      "channel": 2,
      "note": 39,
      "start": 21.8814,
      "duration": 0.0143,
      "velocity": 114,
      "chip": "ym2612"
    },
    {
      "channel": 5,
      "note": 91,
      "start": 21.8937,
      "duration": 0.1871,
      "velocity": 95,
      "chip": "ym2612"
    },
    {
      "channel": 2,
      "note": 39,
      "start": 21.8956,
      "duration": 0.0107,
      "velocity": 114,
      "chip": "ym2612"
    },
    {
      "channel": 2,
      "note": 39,
      "start": 21.9064,
      "duration": 0.0124,
      "velocity": 114,
      "chip": "ym2612"
    },
    {
      "channel": 0,
      "note": 92,
      "start": 21.9423,
      "duration": 0.3745,
      "velocity": 95,
      "chip": "ym2612"
    },
    {
      "channel": 1,
      "note": 63,
      "start": 21.9437,
      "duration": 0.0858,
      "velocity": 81,
      "chip": "ym2612"
    },
    {
      "channel": 4,
      "note": 68,
      "start": 21.9472,
      "duration": 0.0844,
      "velocity": 74,
      "chip": "ym2612"
    },
    {
      "channel": 2,
      "note": 40,
      "start": 21.9502,
      "duration": 0.0062,
      "velocity": 114,
      "chip": "ym2612"
    },
    {
      "channel": 2,
      "note": 40,
      "start": 21.9563,
      "duration": 0.0125,
      "velocity": 114,
      "chip": "ym2612"
    },
    {
      "channel": 2,
      "note": 40,
      "start": 21.9689,
      "duration": 0.0129,
      "velocity": 114,
      "chip": "ym2612"
    },
    {
      "channel": 2,
      "note": 40,
      "start": 21.9818,
      "duration": 0.0125,
      "velocity": 114,
      "chip": "ym2612"
    },
    {
      "channel": 2,
      "note": 40,
      "start": 21.9942,
      "duration": 0.0121,
      "velocity": 114,
      "chip": "ym2612"
    },
    {
      "channel": 2,
      "note": 40,
      "start": 22.0063,
      "duration": 0.0125,
      "velocity": 114,
      "chip": "ym2612"
    },
    {
      "channel": 2,
      "note": 40,
      "start": 22.0189,
      "duration": 0.0148,
      "velocity": 114,
      "chip": "ym2612"
    },
    {
      "channel": 1,
      "note": 63,
      "start": 22.0301,
      "duration": 0.0995,
      "velocity": 81,
      "chip": "ym2612"
    },
    {
      "channel": 4,
      "note": 70,
      "start": 22.0321,
      "duration": 0.1003,
      "velocity": 74,
      "chip": "ym2612"
    },
    {
      "channel": 2,
      "note": 40,
      "start": 22.0337,
      "duration": 0.0106,
      "velocity": 114,
      "chip": "ym2612"
    },
    {
      "channel": 2,
      "note": 40,
      "start": 22.0442,
      "duration": 0.0121,
      "velocity": 114,
      "chip": "ym2612"
    },
    {
      "channel": 2,
      "note": 40,
      "start": 22.0563,
      "duration": 0.0125,
      "velocity": 114,
      "chip": "ym2612"
    },
    {
      "channel": 2,
      "note": 39,
      "start": 22.0689,
      "duration": 0.0137,
      "velocity": 114,
      "chip": "ym2612"
    },
    {
      "channel": 5,
      "note": 92,
      "start": 22.0814,
      "duration": 0.3746,
      "velocity": 95,
      "chip": "ym2612"
    },
    {
      "channel": 2,
      "note": 39,
      "start": 22.0826,
      "duration": 0.0116,
      "velocity": 114,
      "chip": "ym2612"
    },
    {
      "channel": 2,
      "note": 39,
      "start": 22.0942,
      "duration": 0.012,
      "velocity": 114,
      "chip": "ym2612"
    },
    {
      "channel": 1,
      "note": 51,
      "start": 22.1301,
      "duration": 0.1882,
      "velocity": 81,
      "chip": "ym2612"
    },
    {
      "channel": 4,
      "note": 61,
      "start": 22.1329,
      "duration": 0.0851,
      "velocity": 74,
      "chip": "ym2612"
    },
    {
      "channel": 2,
      "note": 41,
      "start": 22.1386,
      "duration": 0.1861,
      "velocity": 122,
      "chip": "ym2612"
    },
    {
      "channel": 4,
      "note": 67,
      "start": 22.2184,
      "duration": 0.1027,
      "velocity": 74,
      "chip": "ym2612"
    },
    {
      "channel": 0,
      "note": 91,
      "start": 22.3173,
      "duration": 0.187,
      "velocity": 95,
      "chip": "ym2612"
    },
    {
      "channel": 1,
      "note": 63,
      "start": 22.3187,
      "duration": 0.086,
      "velocity": 81,
      "chip": "ym2612"
    },
    {
      "channel": 4,
      "note": 68,
      "start": 22.3216,
      "duration": 0.0859,
      "velocity": 74,
      "chip": "ym2612"
    },
    {
      "channel": 2,
      "note": 40,
      "start": 22.3278,
      "duration": 0.0039,
      "velocity": 114,
      "chip": "ym2612"
    },
    {
      "channel": 2,
      "note": 40,
      "start": 22.3317,
      "duration": 0.0128,
      "velocity": 114,
      "chip": "ym2612"
    },
    {
      "channel": 2,
      "note": 40,
      "start": 22.3445,
      "duration": 0.0125,
      "velocity": 114,
      "chip": "ym2612"
    },
    {
      "channel": 2,
      "note": 40,
      "start": 22.357,
      "duration": 0.0121,
      "velocity": 114,
      "chip": "ym2612"
    },
    {
      "channel": 2,
      "note": 40,
      "start": 22.3691,
      "duration": 0.0125,
      "velocity": 114,
      "chip": "ym2612"
    },
    {
      "channel": 2,
      "note": 40,
      "start": 22.3816,
      "duration": 0.0129,
      "velocity": 114,
      "chip": "ym2612"
    },
    {
      "channel": 2,
      "note": 40,
      "start": 22.3944,
      "duration": 0.015,
      "velocity": 114,
      "chip": "ym2612"
    },
    {
      "channel": 1,
      "note": 63,
      "start": 22.4052,
      "duration": 0.1005,
      "velocity": 81,
      "chip": "ym2612"
    },
    {
      "channel": 4,
      "note": 65,
      "start": 22.408,
      "duration": 0.1013,
      "velocity": 74,
      "chip": "ym2612"
    },
    {
      "channel": 2,
      "note": 40,
      "start": 22.42,
      "duration": 0.0115,
      "velocity": 114,
      "chip": "ym2612"
    },
    {
      "channel": 2,
      "note": 40,
      "start": 22.4315,
      "duration": 0.0129,
      "velocity": 114,
      "chip": "ym2612"
    },
    {
      "channel": 2,
      "note": 40,
      "start": 22.4444,
      "duration": 0.0137,
      "velocity": 114,
      "chip": "ym2612"
    },
    {
      "channel": 5,
      "note": 91,
      "start": 22.4565,
      "duration": 0.1868,
      "velocity": 95,
      "chip": "ym2612"
    },
    {
      "channel": 2,
      "note": 40,
      "start": 22.4581,
      "duration": 0.0109,
      "velocity": 114,
      "chip": "ym2612"
    },
    {
      "channel": 2,
      "note": 40,
      "start": 22.469,
      "duration": 0.0125,
      "velocity": 114,
      "chip": "ym2612"
    },
    {
      "channel": 2,
      "note": 40,
      "start": 22.4815,
      "duration": 0.0129,
      "velocity": 114,
      "chip": "ym2612"
    },
    {
      "channel": 2,
      "note": 40,
      "start": 22.4943,
      "duration": 0.0176,
      "velocity": 114,
      "chip": "ym2612"
    },
    {
      "channel": 0,
      "note": 89,
      "start": 22.5048,
      "duration": 0.1872,
      "velocity": 95,
      "chip": "ym2612"
    },
    {
      "channel": 1,
      "note": 53,
      "start": 22.5063,
      "duration": 0.1867,
      "velocity": 81,
      "chip": "ym2612"
    },
    {
      "channel": 4,
      "note": 65,
      "start": 22.5099,
      "duration": 0.0831,
      "velocity": 74,
      "chip": "ym2612"
    },
    {
      "channel": 2,
      "note": 40,
      "start": 22.5199,
      "duration": 0.0115,
      "velocity": 114,
      "chip": "ym2612"
    },
    {
      "channel": 2,
      "note": 40,
      "start": 22.5314,
      "duration": 0.0129,
      "velocity": 114,
      "chip": "ym2612"
    },
    {
      "channel": 2,
      "note": 40,
      "start": 22.5442,
      "duration": 0.0125,
      "velocity": 114,
      "chip": "ym2612"
    },
    {
      "channel": 2,
      "note": 40,
      "start": 22.5568,
      "duration": 0.0121,
      "velocity": 114,
      "chip": "ym2612"
    },
    {
      "channel": 2,
      "note": 40,
      "start": 22.5689,
      "duration": 0.0125,
      "velocity": 114,
      "chip": "ym2612"
    },
    {
      "channel": 2,
      "note": 40,
      "start": 22.5814,
      "duration": 0.0142,
      "velocity": 114,
      "chip": "ym2612"
    },
    {
      "channel": 4,
      "note": 75,
      "start": 22.5934,
      "duration": 0.1029,
      "velocity": 74,
      "chip": "ym2612"
    },
    {
      "channel": 2,
      "note": 40,
      "start": 22.5956,
      "duration": 0.0108,
      "velocity": 114,
      "chip": "ym2612"
    },
    {
      "channel": 2,
      "note": 40,
      "start": 22.6064,
      "duration": 0.0125,
      "velocity": 114,
      "chip": "ym2612"
    },
    {
      "channel": 2,
      "note": 40,
      "start": 22.6189,
      "duration": 0.0125,
      "velocity": 114,
      "chip": "ym2612"
    },
    {
      "channel": 2,
      "note": 40,
      "start": 22.6314,
      "duration": 0.0143,
      "velocity": 114,
      "chip": "ym2612"
    },
    {
      "channel": 5,
      "note": 89,
      "start": 22.6437,
      "duration": 0.1873,
      "velocity": 95,
      "chip": "ym2612"
    },
    {
      "channel": 2,
      "note": 39,
      "start": 22.6456,
      "duration": 0.0107,
      "velocity": 114,
      "chip": "ym2612"
    },
    {
      "channel": 2,
      "note": 39,
      "start": 22.6564,
      "duration": 0.0125,
      "velocity": 114,
      "chip": "ym2612"
    },
    {
      "channel": 2,
      "note": 39,
      "start": 22.6689,
      "duration": 0.0125,
      "velocity": 114,
      "chip": "ym2612"
    },
    {
      "channel": 0,
      "note": 89,
      "start": 22.692,
      "duration": 0.3748,
      "velocity": 95,
      "chip": "ym2612"
    },
    {
      "channel": 1,
      "note": 53,
      "start": 22.6934,
      "duration": 0.1861,
      "velocity": 81,
      "chip": "ym2612"
    },
    {
      "channel": 4,
      "note": 77,
      "start": 22.6968,
      "duration": 0.0836,
      "velocity": 74,
      "chip": "ym2612"
    },
    {
      "channel": 2,
      "note": 40,
      "start": 22.6998,
      "duration": 0.0066,
      "velocity": 114,
      "chip": "ym2612"
    },
    {
      "channel": 2,
      "note": 40,
      "start": 22.7064,
      "duration": 0.0125,
      "velocity": 114,
      "chip": "ym2612"
    },
    {
      "channel": 2,
      "note": 40,
      "start": 22.7189,
      "duration": 0.0129,
      "velocity": 114,
      "chip": "ym2612"
    },
    {
      "channel": 2,
      "note": 40,
      "start": 22.7318,
      "duration": 0.0125,
      "velocity": 114,
      "chip": "ym2612"
    },
    {
      "channel": 2,
      "note": 40,
      "start": 22.7442,
      "duration": 0.0121,
      "velocity": 114,
      "chip": "ym2612"
    },
    {
      "channel": 2,
      "note": 40,
      "start": 22.7563,
      "duration": 0.0125,
      "velocity": 114,
      "chip": "ym2612"
    },
    {
      "channel": 2,
      "note": 40,
      "start": 22.7689,
      "duration": 0.0137,
      "velocity": 114,
      "chip": "ym2612"
    },
    {
      "channel": 4,
      "note": 65,
      "start": 22.781,
      "duration": 0.1015,
      "velocity": 74,
      "chip": "ym2612"
    },
    {
      "channel": 2,
      "note": 40,
      "start": 22.7825,
      "duration": 0.0117,
      "velocity": 114,
      "chip": "ym2612"
    },
    {
      "channel": 2,
      "note": 40,
      "start": 22.7942,
      "duration": 0.0121,
      "velocity": 114,
      "chip": "ym2612"
    },
    {
      "channel": 2,
      "note": 40,
      "start": 22.8063,
      "duration": 0.0125,
      "velocity": 114,
      "chip": "ym2612"
    },
    {
      "channel": 2,
      "note": 39,
      "start": 22.8189,
      "duration": 0.0134,
      "velocity": 114,
      "chip": "ym2612"
    },
    {
      "channel": 5,
      "note": 89,
      "start": 22.831,
      "duration": 0.3748,
      "velocity": 95,
      "chip": "ym2612"
    },
    {
      "channel": 2,
      "note": 39,
      "start": 22.8323,
      "duration": 0.012,
      "velocity": 114,
      "chip": "ym2612"
    },
    {
      "channel": 2,
      "note": 39,
      "start": 22.8442,
      "duration": 0.0121,
      "velocity": 114,
      "chip": "ym2612"
    },
    {
      "channel": 1,
      "note": 53,
      "start": 22.8801,
      "duration": 0.1882,
      "velocity": 81,
      "chip": "ym2612"
    },
    {
      "channel": 4,
      "note": 72,
      "start": 22.8829,
      "duration": 0.0859,
      "velocity": 74,
      "chip": "ym2612"
    },
    {
      "channel": 2,
      "note": 41,
      "start": 22.8886,
      "duration": 0.0837,
      "velocity": 122,
      "chip": "ym2612"
    },
    {
      "channel": 4,
      "note": 75,
      "start": 22.9692,
      "duration": 0.1011,
      "velocity": 74,
      "chip": "ym2612"
    },
    {
      "channel": 2,
      "note": 40,
      "start": 22.975,
      "duration": 0.0063,
      "velocity": 114,
      "chip": "ym2612"
    },
    {
      "channel": 2,
      "note": 40,
      "start": 22.9814,
      "duration": 0.0129,
      "velocity": 114,
      "chip": "ym2612"
    },
    {
      "channel": 2,
      "note": 40,
      "start": 22.9942,
      "duration": 0.0125,
      "velocity": 114,
      "chip": "ym2612"
    },
    {
      "channel": 2,
      "note": 40,
      "start": 23.0067,
      "duration": 0.0122,
      "velocity": 114,
      "chip": "ym2612"
    },
    {
      "channel": 2,
      "note": 40,
      "start": 23.0189,
      "duration": 0.0125,
      "velocity": 114,
      "chip": "ym2612"
    },
    {
      "channel": 2,
      "note": 40,
      "start": 23.0314,
      "duration": 0.0129,
      "velocity": 114,
      "chip": "ym2612"
    },
    {
      "channel": 2,
      "note": 40,
      "start": 23.0442,
      "duration": 0.0121,
      "velocity": 114,
      "chip": "ym2612"
    },
    {
      "channel": 2,
      "note": 40,
      "start": 23.0563,
      "duration": 0.016,
      "velocity": 114,
      "chip": "ym2612"
    },
    {
      "channel": 0,
      "note": 87,
      "start": 23.0673,
      "duration": 0.3745,
      "velocity": 95,
      "chip": "ym2612"
    },
    {
      "channel": 1,
      "note": 53,
      "start": 23.0687,
      "duration": 0.1858,
      "velocity": 81,
      "chip": "ym2612"
    },
    {
      "channel": 4,
      "note": 65,
      "start": 23.0708,
      "duration": 0.0847,
      "velocity": 74,
      "chip": "ym2612"
    },
    {
      "channel": 2,
      "note": 40,
      "start": 23.0724,
      "duration": 0.009,
      "velocity": 114,
      "chip": "ym2612"
    },
    {
      "channel": 2,
      "note": 40,
      "start": 23.0814,
      "duration": 0.0129,
      "velocity": 114,
      "chip": "ym2612"
    },
    {
      "channel": 2,
      "note": 39,
      "start": 23.0942,
      "duration": 0.0121,
      "velocity": 114,
      "chip": "ym2612"
    },
    {
      "channel": 2,
      "note": 39,
      "start": 23.1063,
      "duration": 0.0125,
      "velocity": 114,
      "chip": "ym2612"
    },
    {
      "channel": 2,
      "note": 39,
      "start": 23.1189,
      "duration": 0.0125,
      "velocity": 114,
      "chip": "ym2612"
    },
    {
      "channel": 4,
      "note": 70,
      "start": 23.1559,
      "duration": 0.1014,
      "velocity": 74,
      "chip": "ym2612"
    },
    {
      "channel": 5,
      "note": 87,
      "start": 23.2063,
      "duration": 0.3746,
      "velocity": 95,
      "chip": "ym2612"
    },
    {
      "channel": 1,
      "note": 53,
      "start": 23.255,
      "duration": 0.1883,
      "velocity": 81,
      "chip": "ym2612"
    },
    {
      "channel": 4,
      "note": 72,
      "start": 23.2578,
      "duration": 0.0851,
      "velocity": 74,
      "chip": "ym2612"
    },
    {
      "channel": 2,
      "note": 40,
      "start": 23.2612,
      "duration": 0.0077,
      "velocity": 114,
      "chip": "ym2612"
    },
    {
      "channel": 2,
      "note": 40,
      "start": 23.2689,
      "duration": 0.0125,
      "velocity": 114,
      "chip": "ym2612"
    },
    {
      "channel": 2,
      "note": 40,
      "start": 23.2814,
      "duration": 0.0135,
      "velocity": 114,
      "chip": "ym2612"
    },
    {
      "channel": 2,
      "note": 40,
      "start": 23.2949,
      "duration": 0.0115,
      "velocity": 114,
      "chip": "ym2612"
    },
    {
      "channel": 2,
      "note": 40,
      "start": 23.3064,
      "duration": 0.0125,
      "velocity": 114,
      "chip": "ym2612"
    },
    {
      "channel": 2,
      "note": 40,
      "start": 23.3189,
      "duration": 0.0125,
      "velocity": 114,
      "chip": "ym2612"
    },
    {
      "channel": 2,
      "note": 40,
      "start": 23.3314,
      "duration": 0.0142,
      "velocity": 114,
      "chip": "ym2612"
    },
    {
      "channel": 4,
      "note": 65,
      "start": 23.3434,
      "duration": 0.1032,
      "velocity": 74,
      "chip": "ym2612"
    },
    {
      "channel": 2,
      "note": 40,
      "start": 23.3456,
      "duration": 0.0107,
      "velocity": 114,
      "chip": "ym2612"
    },
    {
      "channel": 2,
      "note": 40,
      "start": 23.3563,
      "duration": 0.0125,
      "velocity": 114,
      "chip": "ym2612"
    },
    {
      "channel": 2,
      "note": 40,
      "start": 23.3689,
      "duration": 0.0125,
      "velocity": 114,
      "chip": "ym2612"
    },
    {
      "channel": 2,
      "note": 39,
      "start": 23.3814,
      "duration": 0.0129,
      "velocity": 114,
      "chip": "ym2612"
    },
    {
      "channel": 2,
      "note": 39,
      "start": 23.3942,
      "duration": 0.0121,
      "velocity": 114,
      "chip": "ym2612"
    },
    {
      "channel": 2,
      "note": 39,
      "start": 23.4063,
      "duration": 0.0125,
      "velocity": 114,
      "chip": "ym2612"
    },
    {
      "channel": 0,
      "note": 84,
      "start": 23.4423,
      "duration": 0.3745,
      "velocity": 95,
      "chip": "ym2612"
    },
    {
      "channel": 1,
      "note": 65,
      "start": 23.4437,
      "duration": 0.0858,
      "velocity": 81,
      "chip": "ym2612"
    },
    {
      "channel": 4,
      "note": 68,
      "start": 23.4472,
      "duration": 0.0844,
      "velocity": 74,
      "chip": "ym2612"
    },
    {
      "channel": 2,
      "note": 40,
      "start": 23.4502,
      "duration": 0.0062,
      "velocity": 114,
      "chip": "ym2612"
    },
    {
      "channel": 2,
      "note": 40,
      "start": 23.4563,
      "duration": 0.0125,
      "velocity": 114,
      "chip": "ym2612"
    },
    {
      "channel": 2,
      "note": 40,
      "start": 23.4689,
      "duration": 0.0129,
      "velocity": 114,
      "chip": "ym2612"
    },
    {
      "channel": 2,
      "note": 40,
      "start": 23.4818,
      "duration": 0.0125,
      "velocity": 114,
      "chip": "ym2612"
    },
    {
      "channel": 2,
      "note": 40,
      "start": 23.4942,
      "duration": 0.0121,
      "velocity": 114,
      "chip": "ym2612"
    },
    {
      "channel": 2,
      "note": 40,
      "start": 23.5063,
      "duration": 0.0125,
      "velocity": 114,
      "chip": "ym2612"
    },
    {
      "channel": 2,
      "note": 40,
      "start": 23.5189,
      "duration": 0.0148,
      "velocity": 114,
      "chip": "ym2612"
    },
    {
      "channel": 1,
      "note": 65,
      "start": 23.5301,
      "duration": 0.0995,
      "velocity": 81,
      "chip": "ym2612"
    },
    {
      "channel": 4,
      "note": 70,
      "start": 23.5321,
      "duration": 0.1003,
      "velocity": 74,
      "chip": "ym2612"
    },
    {
      "channel": 2,
      "note": 40,
      "start": 23.5337,
      "duration": 0.0106,
      "velocity": 114,
      "chip": "ym2612"
    },
    {
      "channel": 2,
      "note": 40,
      "start": 23.5442,
      "duration": 0.0122,
      "velocity": 114,
      "chip": "ym2612"
    },
    {
      "channel": 2,
      "note": 40,
      "start": 23.5564,
      "duration": 0.0125,
      "velocity": 114,
      "chip": "ym2612"
    },
    {
      "channel": 2,
      "note": 39,
      "start": 23.5689,
      "duration": 0.0137,
      "velocity": 114,
      "chip": "ym2612"
    },
    {
      "channel": 5,
      "note": 84,
      "start": 23.5813,
      "duration": 0.3746,
      "velocity": 95,
      "chip": "ym2612"
    },
    {
      "channel": 2,
      "note": 39,
      "start": 23.5826,
      "duration": 0.0116,
      "velocity": 114,
      "chip": "ym2612"
    },
    {
      "channel": 2,
      "note": 39,
      "start": 23.5942,
      "duration": 0.012,
      "velocity": 114,
      "chip": "ym2612"
    },
    {
      "channel": 1,
      "note": 53,
      "start": 23.6301,
      "duration": 0.1882,
      "velocity": 81,
      "chip": "ym2612"
    },
    {
      "channel": 4,
      "note": 65,
      "start": 23.6329,
      "duration": 0.0851,
      "velocity": 74,
      "chip": "ym2612"
    },
    {
      "channel": 2,
      "note": 41,
      "start": 23.6386,
      "duration": 0.186,
      "velocity": 122,
      "chip": "ym2612"
    },
    {
      "channel": 4,
      "note": 67,
      "start": 23.7184,
      "duration": 0.1027,
      "velocity": 74,
      "chip": "ym2612"
    },
    {
      "channel": 0,
      "note": 82,
      "start": 23.8173,
      "duration": 0.3746,
      "velocity": 95,
      "chip": "ym2612"
    },
    {
      "channel": 1,
      "note": 65,
      "start": 23.8187,
      "duration": 0.086,
      "velocity": 81,
      "chip": "ym2612"
    },
    {
      "channel": 4,
      "note": 56,
      "start": 23.8216,
      "duration": 0.0859,
      "velocity": 74,
      "chip": "ym2612"
    },
    {
      "channel": 2,
      "note": 40,
      "start": 23.8278,
      "duration": 0.0039,
      "velocity": 114,
      "chip": "ym2612"
    },
    {
      "channel": 2,
      "note": 40,
      "start": 23.8317,
      "duration": 0.0128,
      "velocity": 114,
      "chip": "ym2612"
    },
    {
      "channel": 2,
      "note": 40,
      "start": 23.8445,
      "duration": 0.0125,
      "velocity": 114,
      "chip": "ym2612"
    },
    {
      "channel": 2,
      "note": 40,
      "start": 23.857,
      "duration": 0.0121,
      "velocity": 114,
      "chip": "ym2612"
    },
    {
      "channel": 2,
      "note": 40,
      "start": 23.8691,
      "duration": 0.0125,
      "velocity": 114,
      "chip": "ym2612"
    },
    {
      "channel": 2,
      "note": 40,
      "start": 23.8816,
      "duration": 0.0129,
      "velocity": 114,
      "chip": "ym2612"
    },
    {
      "channel": 2,
      "note": 40,
      "start": 23.8944,
      "duration": 0.015,
      "velocity": 114,
      "chip": "ym2612"
    },
    {
      "channel": 1,
      "note": 65,
      "start": 23.9052,
      "duration": 0.0994,
      "velocity": 81,
      "chip": "ym2612"
    },
    {
      "channel": 4,
      "note": 63,
      "start": 23.908,
      "duration": 0.1006,
      "velocity": 74,
      "chip": "ym2612"
    },
    {
      "channel": 2,
      "note": 40,
      "start": 23.92,
      "duration": 0.0115,
      "velocity": 114,
      "chip": "ym2612"
    },
    {
      "channel": 2,
      "note": 40,
      "start": 23.9315,
      "duration": 0.0129,
      "velocity": 114,
      "chip": "ym2612"
    },
    {
      "channel": 2,
      "note": 40,
      "start": 23.9444,
      "duration": 0.0137,
      "velocity": 114,
      "chip": "ym2612"
    },
    {
      "channel": 5,
      "note": 82,
      "start": 23.9565,
      "duration": 0.3744,
      "velocity": 95,
      "chip": "ym2612"
    },
    {
      "channel": 2,
      "note": 40,
      "start": 23.9581,
      "duration": 0.0109,
      "velocity": 114,
      "chip": "ym2612"
    },
    {
      "channel": 2,
      "note": 40,
      "start": 23.969,
      "duration": 0.0125,
      "velocity": 114,
      "chip": "ym2612"
    },
    {
      "channel": 2,
      "note": 40,
      "start": 23.9815,
      "duration": 0.0129,
      "velocity": 114,
      "chip": "ym2612"
    },
    {
      "channel": 2,
      "note": 40,
      "start": 23.9943,
      "duration": 0.0166,
      "velocity": 114,
      "chip": "ym2612"
    },
    {
      "channel": 1,
      "note": 53,
      "start": 24.0051,
      "duration": 0.1882,
      "velocity": 81,
      "chip": "ym2612"
    },
    {
      "channel": 4,
      "note": 65,
      "start": 24.0092,
      "duration": 0.0838,
      "velocity": 74,
      "chip": "ym2612"
    },
    {
      "channel": 2,
      "note": 40,
      "start": 24.0199,
      "duration": 0.0115,
      "velocity": 114,
      "chip": "ym2612"
    },
    {
      "channel": 2,
      "note": 40,
      "start": 24.0314,
      "duration": 0.0129,
      "velocity": 114,
      "chip": "ym2612"
    },
    {
      "channel": 2,
      "note": 40,
      "start": 24.0442,
      "duration": 0.0125,
      "velocity": 114,
      "chip": "ym2612"
    },
    {
      "channel": 2,
      "note": 40,
      "start": 24.0568,
      "duration": 0.0121,
      "velocity": 114,
      "chip": "ym2612"
    },
    {
      "channel": 2,
      "note": 40,
      "start": 24.0689,
      "duration": 0.0125,
      "velocity": 114,
      "chip": "ym2612"
    },
    {
      "channel": 2,
      "note": 40,
      "start": 24.0814,
      "duration": 0.0142,
      "velocity": 114,
      "chip": "ym2612"
    },
    {
      "channel": 4,
      "note": 75,
      "start": 24.0934,
      "duration": 0.1032,
      "velocity": 74,
      "chip": "ym2612"
    },
    {
      "channel": 2,
      "note": 40,
      "start": 24.0956,
      "duration": 0.0107,
      "velocity": 114,
      "chip": "ym2612"
    },
    {
      "channel": 2,
      "note": 40,
      "start": 24.1063,
      "duration": 0.0125,
      "velocity": 114,
      "chip": "ym2612"
    },
    {
      "channel": 2,
      "note": 40,
      "start": 24.1189,
      "duration": 0.0125,
      "velocity": 114,
      "chip": "ym2612"
    },
    {
      "channel": 2,
      "note": 40,
      "start": 24.1314,
      "duration": 0.0129,
      "velocity": 114,
      "chip": "ym2612"
    },
    {
      "channel": 2,
      "note": 39,
      "start": 24.1442,
      "duration": 0.0121,
      "velocity": 114,
      "chip": "ym2612"
    },
    {
      "channel": 2,
      "note": 39,
      "start": 24.1563,
      "duration": 0.0125,
      "velocity": 114,
      "chip": "ym2612"
    },
    {
      "channel": 2,
      "note": 39,
      "start": 24.1689,
      "duration": 0.0125,
      "velocity": 114,
      "chip": "ym2612"
    },
    {
      "channel": 0,
      "note": 80,
      "start": 24.1923,
      "duration": 0.3745,
      "velocity": 95,
      "chip": "ym2612"
    },
    {
      "channel": 1,
      "note": 53,
      "start": 24.1937,
      "duration": 0.1858,
      "velocity": 81,
      "chip": "ym2612"
    },
    {
      "channel": 4,
      "note": 77,
      "start": 24.1972,
      "duration": 0.0833,
      "velocity": 74,
      "chip": "ym2612"
    },
    {
      "channel": 2,
      "note": 40,
      "start": 24.2002,
      "duration": 0.0062,
      "velocity": 114,
      "chip": "ym2612"
    },
    {
      "channel": 2,
      "note": 40,
      "start": 24.2063,
      "duration": 0.0125,
      "velocity": 114,
      "chip": "ym2612"
    },
    {
      "channel": 2,
      "note": 40,
      "start": 24.2189,
      "duration": 0.0129,
      "velocity": 114,
      "chip": "ym2612"
    },
    {
      "channel": 2,
      "note": 40,
      "start": 24.2318,
      "duration": 0.0125,
      "velocity": 114,
      "chip": "ym2612"
    },
    {
      "channel": 2,
      "note": 40,
      "start": 24.2442,
      "duration": 0.0121,
      "velocity": 114,
      "chip": "ym2612"
    },
    {
      "channel": 2,
      "note": 40,
      "start": 24.2563,
      "duration": 0.0125,
      "velocity": 114,
      "chip": "ym2612"
    },
    {
      "channel": 2,
      "note": 40,
      "start": 24.2689,
      "duration": 0.0137,
      "velocity": 114,
      "chip": "ym2612"
    },
    {
      "channel": 4,
      "note": 65,
      "start": 24.281,
      "duration": 0.1015,
      "velocity": 74,
      "chip": "ym2612"
    },
    {
      "channel": 2,
      "note": 40,
      "start": 24.2825,
      "duration": 0.0117,
      "velocity": 114,
      "chip": "ym2612"
    },
    {
      "channel": 2,
      "note": 40,
      "start": 24.2942,
      "duration": 0.0122,
      "velocity": 114,
      "chip": "ym2612"
    },
    {
      "channel": 2,
      "note": 40,
      "start": 24.3064,
      "duration": 0.0125,
      "velocity": 114,
      "chip": "ym2612"
    },
    {
      "channel": 2,
      "note": 39,
      "start": 24.3189,
      "duration": 0.0137,
      "velocity": 114,
      "chip": "ym2612"
    },
    {
      "channel": 5,
      "note": 80,
      "start": 24.3314,
      "duration": 0.3744,
      "velocity": 95,
      "chip": "ym2612"
    },
    {
      "channel": 2,
      "note": 39,
      "start": 24.3326,
      "duration": 0.0116,
      "velocity": 114,
      "chip": "ym2612"
    },
    {
      "channel": 2,
      "note": 39,
      "start": 24.3442,
      "duration": 0.012,
      "velocity": 114,
      "chip": "ym2612"
    },
    {
      "channel": 1,
      "note": 53,
      "start": 24.3801,
      "duration": 0.1882,
      "velocity": 81,
      "chip": "ym2612"
    },
    {
      "channel": 4,
      "note": 72,
      "start": 24.3829,
      "duration": 0.0859,
      "velocity": 74,
      "chip": "ym2612"
    },
    {
      "channel": 2,
      "note": 41,
      "start": 24.3886,
      "duration": 0.0837,
      "velocity": 122,
      "chip": "ym2612"
    },
    {
      "channel": 4,
      "note": 75,
      "start": 24.4692,
      "duration": 0.1011,
      "velocity": 74,
      "chip": "ym2612"
    },
    {
      "channel": 2,
      "note": 40,
      "start": 24.475,
      "duration": 0.0063,
      "velocity": 114,
      "chip": "ym2612"
    },
    {
      "channel": 2,
      "note": 40,
      "start": 24.4814,
      "duration": 0.0129,
      "velocity": 114,
      "chip": "ym2612"
    },
    {
      "channel": 2,
      "note": 40,
      "start": 24.4942,
      "duration": 0.0125,
      "velocity": 114,
      "chip": "ym2612"
    },
    {
      "channel": 2,
      "note": 40,
      "start": 24.5067,
      "duration": 0.0122,
      "velocity": 114,
      "chip": "ym2612"
    },
    {
      "channel": 2,
      "note": 40,
      "start": 24.5189,
      "duration": 0.0125,
      "velocity": 114,
      "chip": "ym2612"
    },
    {
      "channel": 2,
      "note": 40,
      "start": 24.5314,
      "duration": 0.0129,
      "velocity": 114,
      "chip": "ym2612"
    },
    {
      "channel": 2,
      "note": 40,
      "start": 24.5442,
      "duration": 0.0121,
      "velocity": 114,
      "chip": "ym2612"
    },
    {
      "channel": 2,
      "note": 40,
      "start": 24.5563,
      "duration": 0.016,
      "velocity": 114,
      "chip": "ym2612"
    },
    {
      "channel": 0,
      "note": 79,
      "start": 24.5673,
      "duration": 0.1869,
      "velocity": 95,
      "chip": "ym2612"
    },
    {
      "channel": 1,
      "note": 53,
      "start": 24.5687,
      "duration": 0.187,
      "velocity": 81,
      "chip": "ym2612"
    },
    {
      "channel": 4,
      "note": 65,
      "start": 24.5708,
      "duration": 0.0847,
      "velocity": 74,
      "chip": "ym2612"
    },
    {
      "channel": 2,
      "note": 40,
      "start": 24.5724,
      "duration": 0.009,
      "velocity": 114,
      "chip": "ym2612"
    },
    {
      "channel": 2,
      "note": 40,
      "start": 24.5814,
      "duration": 0.0129,
      "velocity": 114,
      "chip": "ym2612"
    },
    {
      "channel": 2,
      "note": 39,
      "start": 24.5942,
      "duration": 0.0122,
      "velocity": 114,
      "chip": "ym2612"
    },
    {
      "channel": 2,
      "note": 39,
      "start": 24.6064,
      "duration": 0.0125,
      "velocity": 114,
      "chip": "ym2612"
    },
    {
      "channel": 2,
      "note": 39,
      "start": 24.6189,
      "duration": 0.0125,
      "velocity": 114,
      "chip": "ym2612"
    },
    {
      "channel": 4,
      "note": 70,
      "start": 24.6559,
      "duration": 0.1026,
      "velocity": 74,
      "chip": "ym2612"
    },
    {
      "channel": 5,
      "note": 79,
      "start": 24.7063,
      "duration": 0.187,
      "velocity": 95,
      "chip": "ym2612"
    },
    {
      "channel": 0,
      "note": 75,
      "start": 24.7547,
      "duration": 0.087,
      "velocity": 95,
      "chip": "ym2612"
    },
    {
      "channel": 1,
      "note": 53,
      "start": 24.7561,
      "duration": 0.1871,
      "velocity": 81,
      "chip": "ym2612"
    },
    {
      "channel": 4,
      "note": 72,
      "start": 24.759,
      "duration": 0.0854,
      "velocity": 74,
      "chip": "ym2612"
    },
    {
      "channel": 2,
      "note": 40,
      "start": 24.7626,
      "duration": 0.0063,
      "velocity": 114,
      "chip": "ym2612"
    },
    {
      "channel": 2,
      "note": 40,
      "start": 24.7689,
      "duration": 0.0125,
      "velocity": 114,
      "chip": "ym2612"
    },
    {
      "channel": 2,
      "note": 40,
      "start": 24.7814,
      "duration": 0.0135,
      "velocity": 114,
      "chip": "ym2612"
    },
    {
      "channel": 2,
      "note": 40,
      "start": 24.7949,
      "duration": 0.0115,
      "velocity": 114,
      "chip": "ym2612"
    },
    {
      "channel": 2,
      "note": 40,
      "start": 24.8063,
      "duration": 0.0125,
      "velocity": 114,
      "chip": "ym2612"
    },
    {
      "channel": 2,
      "note": 40,
      "start": 24.8189,
      "duration": 0.0125,
      "velocity": 114,
      "chip": "ym2612"
    },
    {
      "channel": 2,
      "note": 40,
      "start": 24.8314,
      "duration": 0.0154,
      "velocity": 114,
      "chip": "ym2612"
    },
    {
      "channel": 0,
      "note": 77,
      "start": 24.8422,
      "duration": 0.0996,
      "velocity": 95,
      "chip": "ym2612"
    },
    {
      "channel": 4,
      "note": 65,
      "start": 24.8451,
      "duration": 0.1016,
      "velocity": 74,
      "chip": "ym2612"
    },
    {
      "channel": 2,
      "note": 40,
      "start": 24.8467,
      "duration": 0.0096,
      "velocity": 114,
      "chip": "ym2612"
    },
    {
      "channel": 2,
      "note": 40,
      "start": 24.8563,
      "duration": 0.0125,
      "velocity": 114,
      "chip": "ym2612"
    },
    {
      "channel": 2,
      "note": 40,
      "start": 24.8689,
      "duration": 0.0125,
      "velocity": 114,
      "chip": "ym2612"
    },
    {
      "channel": 2,
      "note": 39,
      "start": 24.8814,
      "duration": 0.0142,
      "velocity": 114,
      "chip": "ym2612"
    },
    {
      "channel": 5,
      "note": 75,
      "start": 24.8937,
      "duration": 0.087,
      "velocity": 95,
      "chip": "ym2612"
    },
    {
      "channel": 2,
      "note": 39,
      "start": 24.8956,
      "duration": 0.0107,
      "velocity": 114,
      "chip": "ym2612"
    },
    {
      "channel": 2,
      "note": 39,
      "start": 24.9063,
      "duration": 0.0125,
      "velocity": 114,
      "chip": "ym2612"
    },
    {
      "channel": 0,
      "note": 72,
      "start": 24.9423,
      "duration": 0.087,
      "velocity": 95,
      "chip": "ym2612"
    },
    {
      "channel": 1,
      "note": 65,
      "start": 24.9437,
      "duration": 0.087,
      "velocity": 81,
      "chip": "ym2612"
    },
    {
      "channel": 4,
      "note": 68,
      "start": 24.9472,
      "duration": 0.0856,
      "velocity": 74,
      "chip": "ym2612"
    },
    {
      "channel": 2,
      "note": 40,
      "start": 24.9502,
      "duration": 0.0062,
      "velocity": 114,
      "chip": "ym2612"
    },
    {
      "channel": 2,
      "note": 40,
      "start": 24.9563,
      "duration": 0.0125,
      "velocity": 114,
      "chip": "ym2612"
    },
    {
      "channel": 2,
      "note": 40,
      "start": 24.9689,
      "duration": 0.0141,
      "velocity": 114,
      "chip": "ym2612"
    },
    {
      "channel": 5,
      "note": 77,
      "start": 24.9813,
      "duration": 0.0996,
      "velocity": 95,
      "chip": "ym2612"
    },
    {
      "channel": 2,
      "note": 40,
      "start": 24.9829,
      "duration": 0.0113,
      "velocity": 114,
      "chip": "ym2612"
    },
    {
      "channel": 2,
      "note": 40,
      "start": 24.9942,
      "duration": 0.0122,
      "velocity": 114,
      "chip": "ym2612"
    },
    {
      "channel": 2,
      "note": 40,
      "start": 25.0064,
      "duration": 0.0125,
      "velocity": 114,
      "chip": "ym2612"
    },
    {
      "channel": 2,
      "note": 40,
      "start": 25.0189,
      "duration": 0.016,
      "velocity": 114,
      "chip": "ym2612"
    },
    {
      "channel": 0,
      "note": 75,
      "start": 25.0298,
      "duration": 0.0995,
      "velocity": 95,
      "chip": "ym2612"
    },
    {
      "channel": 1,
      "note": 65,
      "start": 25.0312,
      "duration": 0.0995,
      "velocity": 81,
      "chip": "ym2612"
    },
    {
      "channel": 4,
      "note": 70,
      "start": 25.0332,
      "duration": 0.1003,
      "velocity": 74,
      "chip": "ym2612"
    },
    {
      "channel": 2,
      "note": 40,
      "start": 25.0348,
      "duration": 0.0094,
      "velocity": 114,
      "chip": "ym2612"
    },
    {
      "channel": 2,
      "note": 40,
      "start": 25.0442,
      "duration": 0.0121,
      "velocity": 114,
      "chip": "ym2612"
    },
    {
      "channel": 2,
      "note": 40,
      "start": 25.0563,
      "duration": 0.0125,
      "velocity": 114,
      "chip": "ym2612"
    },
    {
      "channel": 2,
      "note": 39,
      "start": 25.0689,
      "duration": 0.0137,
      "velocity": 114,
      "chip": "ym2612"
    },
    {
      "channel": 5,
      "note": 72,
      "start": 25.0813,
      "duration": 0.0869,
      "velocity": 95,
      "chip": "ym2612"
    },
    {
      "channel": 2,
      "note": 39,
      "start": 25.0826,
      "duration": 0.0116,
      "velocity": 114,
      "chip": "ym2612"
    },
    {
      "channel": 2,
      "note": 39,
      "start": 25.0942,
      "duration": 0.012,
      "velocity": 114,
      "chip": "ym2612"
    },
    {
      "channel": 0,
      "note": 70,
      "start": 25.1298,
      "duration": 0.0869,
      "velocity": 95,
      "chip": "ym2612"
    },
    {
      "channel": 1,
      "note": 53,
      "start": 25.1312,
      "duration": 0.1871,
      "velocity": 81,
      "chip": "ym2612"
    },
    {
      "channel": 4,
      "note": 65,
      "start": 25.1341,
      "duration": 0.0858,
      "velocity": 74,
      "chip": "ym2612"
    },
    {
      "channel": 2,
      "note": 41,
      "start": 25.1398,
      "duration": 0.0829,
      "velocity": 122,
      "chip": "ym2612"
    },
    {
      "channel": 5,
      "note": 75,
      "start": 25.1687,
      "duration": 0.0995,
      "velocity": 95,
      "chip": "ym2612"
    },
    {
      "channel": 0,
      "note": 72,
      "start": 25.2172,
      "duration": 0.0996,
      "velocity": 95,
      "chip": "ym2612"
    },
    {
      "channel": 4,
      "note": 67,
      "start": 25.2203,
      "duration": 0.1008,
      "velocity": 74,
      "chip": "ym2612"
    },
    {
      "channel": 2,
      "note": 41,
      "start": 25.2232,
      "duration": 0.1008,
      "velocity": 122,
      "chip": "ym2612"
    },
    {
      "channel": 5,
      "note": 70,
      "start": 25.2687,
      "duration": 0.087,
      "velocity": 95,
      "chip": "ym2612"
    },
    {
      "channel": 0,
      "note": 68,
      "start": 25.3173,
      "duration": 0.0869,
      "velocity": 95,
      "chip": "ym2612"
    },
    {
      "channel": 1,
      "note": 65,
      "start": 25.3187,
      "duration": 0.0869,
      "velocity": 81,
      "chip": "ym2612"
    },
    {
      "channel": 4,
      "note": 56,
      "start": 25.3216,
      "duration": 0.0869,
      "velocity": 74,
      "chip": "ym2612"
    },
    {
      "channel": 2,
      "note": 41,
      "start": 25.3245,
      "duration": 0.0875,
      "velocity": 122,
      "chip": "ym2612"
    },
    {
      "channel": 5,
      "note": 72,
      "start": 25.3562,
      "duration": 0.0996,
      "velocity": 95,
      "chip": "ym2612"
    },
    {
      "channel": 0,
      "note": 70,
      "start": 25.4047,
      "duration": 0.101,
      "velocity": 95,
      "chip": "ym2612"
    },
    {
      "channel": 1,
      "note": 65,
      "start": 25.4061,
      "duration": 0.1031,
      "velocity": 81,
      "chip": "ym2612"
    },
    {
      "channel": 4,
      "note": 63,
      "start": 25.409,
      "duration": 0.1044,
      "velocity": 74,
      "chip": "ym2612"
    },
    {
      "channel": 2,
      "note": 41,
      "start": 25.4125,
      "duration": 0.104,
      "velocity": 122,
      "chip": "ym2612"
    },
    {
      "channel": 5,
      "note": 68,
      "start": 25.4563,
      "duration": 0.0911,
      "velocity": 95,
      "chip": "ym2612"
    },
    {
      "channel": 0,
      "note": 77,
      "start": 25.5083,
      "duration": 0.1879,
      "velocity": 1,
      "chip": "ym2612"
    },
    {
      "channel": 1,
      "note": 49,
      "start": 25.5098,
      "duration": 0.2751,
      "velocity": 81,
      "chip": "ym2612"
    },
    {
      "channel": 2,
      "note": 40,
      "start": 25.5193,
      "duration": 0.0036,
      "velocity": 114,
      "chip": "ym2612"
    },
    {
      "channel": 2,
      "note": 40,
      "start": 25.5229,
      "duration": 0.0125,
      "velocity": 114,
      "chip": "ym2612"
    },
    {
      "channel": 2,
      "note": 40,
      "start": 25.5354,
      "duration": 0.0142,
      "velocity": 114,
      "chip": "ym2612"
    },
    {
      "channel": 5,
      "note": 70,
      "start": 25.5479,
      "duration": 0.101,
      "velocity": 95,
      "chip": "ym2612"
    },
    {
      "channel": 2,
      "note": 40,
      "start": 25.5496,
      "duration": 0.0113,
      "velocity": 114,
      "chip": "ym2612"
    },
    {
      "channel": 2,
      "note": 40,
      "start": 25.5609,
      "duration": 0.0122,
      "velocity": 114,
      "chip": "ym2612"
    },
    {
      "channel": 2,
      "note": 40,
      "start": 25.5731,
      "duration": 0.0125,
      "velocity": 114,
      "chip": "ym2612"
    },
    {
      "channel": 2,
      "note": 40,
      "start": 25.5855,
      "duration": 0.0132,
      "velocity": 114,
      "chip": "ym2612"
    },
    {
      "channel": 2,
      "note": 40,
      "start": 25.6121,
      "duration": 0.0109,
      "velocity": 114,
      "chip": "ym2612"
    },
    {
      "channel": 2,
      "note": 40,
      "start": 25.623,
      "duration": 0.0125,
      "velocity": 114,
      "chip": "ym2612"
    },
    {
      "channel": 2,
      "note": 40,
      "start": 25.6355,
      "duration": 0.0176,
      "velocity": 114,
      "chip": "ym2612"
    },
    {
      "channel": 5,
      "note": 77,
      "start": 25.6515,
      "duration": 0.1837,
      "velocity": 1,
      "chip": "ym2612"
    },
    {
      "channel": 2,
      "note": 40,
      "start": 25.6532,
      "duration": 0.0078,
      "velocity": 114,
      "chip": "ym2612"
    },
    {
      "channel": 2,
      "note": 40,
      "start": 25.6609,
      "duration": 0.0121,
      "velocity": 114,
      "chip": "ym2612"
    },
    {
      "channel": 2,
      "note": 40,
      "start": 25.673,
      "duration": 0.0125,
      "velocity": 114,
      "chip": "ym2612"
    },
    {
      "channel": 2,
      "note": 40,
      "start": 25.6855,
      "duration": 0.0134,
      "velocity": 114,
      "chip": "ym2612"
    },
    {
      "channel": 0,
      "note": 77,
      "start": 25.6962,
      "duration": 0.0871,
      "velocity": 1,
      "chip": "ym2612"
    },
    {
      "channel": 2,
      "note": 40,
      "start": 25.699,
      "duration": 0.012,
      "velocity": 114,
      "chip": "ym2612"
    },
    {
      "channel": 2,
      "note": 40,
      "start": 25.7109,
      "duration": 0.0121,
      "velocity": 114,
      "chip": "ym2612"
    },
    {
      "channel": 2,
      "note": 40,
      "start": 25.723,
      "duration": 0.0125,
      "velocity": 114,
      "chip": "ym2612"
    },
    {
      "channel": 2,
      "note": 39,
      "start": 25.7355,
      "duration": 0.0125,
      "velocity": 114,
      "chip": "ym2612"
    },
    {
      "channel": 2,
      "note": 39,
      "start": 25.748,
      "duration": 0.0129,
      "velocity": 114,
      "chip": "ym2612"
    },
    {
      "channel": 2,
      "note": 39,
      "start": 25.7609,
      "duration": 0.0121,
      "velocity": 114,
      "chip": "ym2612"
    },
    {
      "channel": 0,
      "note": 79,
      "start": 25.7839,
      "duration": 0.2871,
      "velocity": 1,
      "chip": "ym2612"
    },
    {
      "channel": 1,
      "note": 49,
      "start": 25.7853,
      "duration": 0.2871,
      "velocity": 81,
      "chip": "ym2612"
    },
    {
      "channel": 5,
      "note": 77,
      "start": 25.8351,
      "duration": 0.0873,
      "velocity": 1,
      "chip": "ym2612"
    },
    {
      "channel": 2,
      "note": 41,
      "start": 25.8905,
      "duration": 0.1878,
      "velocity": 122,
      "chip": "ym2612"
    },
    {
      "channel": 5,
      "note": 79,
      "start": 25.9229,
      "duration": 0.2871,
      "velocity": 1,
      "chip": "ym2612"
    },
    {
      "channel": 0,
      "note": 80,
      "start": 26.0715,
      "duration": 0.187,
      "velocity": 1,
      "chip": "ym2612"
    },
    {
      "channel": 1,
      "note": 49,
      "start": 26.0729,
      "duration": 0.187,
      "velocity": 81,
      "chip": "ym2612"
    },
    {
      "channel": 2,
      "note": 40,
      "start": 26.0811,
      "duration": 0.0045,
      "velocity": 114,
      "chip": "ym2612"
    },
    {
      "channel": 2,
      "note": 40,
      "start": 26.0855,
      "duration": 0.0125,
      "velocity": 114,
      "chip": "ym2612"
    },
    {
      "channel": 2,
      "note": 40,
      "start": 26.098,
      "duration": 0.0135,
      "velocity": 114,
      "chip": "ym2612"
    },
    {
      "channel": 2,
      "note": 40,
      "start": 26.1115,
      "duration": 0.0115,
      "velocity": 114,
      "chip": "ym2612"
    },
    {
      "channel": 2,
      "note": 40,
      "start": 26.1231,
      "duration": 0.0125,
      "velocity": 114,
      "chip": "ym2612"
    },
    {
      "channel": 2,
      "note": 40,
      "start": 26.1355,
      "duration": 0.0125,
      "velocity": 114,
      "chip": "ym2612"
    },
    {
      "channel": 2,
      "note": 40,
      "start": 26.148,
      "duration": 0.0129,
      "velocity": 114,
      "chip": "ym2612"
    },
    {
      "channel": 2,
      "note": 40,
      "start": 26.1609,
      "duration": 0.0122,
      "velocity": 114,
      "chip": "ym2612"
    },
    {
      "channel": 2,
      "note": 40,
      "start": 26.1731,
      "duration": 0.0125,
      "velocity": 114,
      "chip": "ym2612"
    },
    {
      "channel": 2,
      "note": 40,
      "start": 26.1855,
      "duration": 0.0125,
      "velocity": 114,
      "chip": "ym2612"
    },
    {
      "channel": 2,
      "note": 39,
      "start": 26.198,
      "duration": 0.0143,
      "velocity": 114,
      "chip": "ym2612"
    },
    {
      "channel": 5,
      "note": 80,
      "start": 26.2108,
      "duration": 0.1866,
      "velocity": 1,
      "chip": "ym2612"
    },
    {
      "channel": 2,
      "note": 39,
      "start": 26.2124,
      "duration": 0.0106,
      "velocity": 114,
      "chip": "ym2612"
    },
    {
      "channel": 2,
      "note": 39,
      "start": 26.223,
      "duration": 0.0125,
      "velocity": 114,
      "chip": "ym2612"
    },
    {
      "channel": 0,
      "note": 79,
      "start": 26.2589,
      "duration": 0.1873,
      "velocity": 1,
      "chip": "ym2612"
    },
    {
      "channel": 1,
      "note": 51,
      "start": 26.2603,
      "duration": 0.2745,
      "velocity": 81,
      "chip": "ym2612"
    },
    {
      "channel": 5,
      "note": 79,
      "start": 26.3979,
      "duration": 0.1872,
      "velocity": 1,
      "chip": "ym2612"
    },
    {
      "channel": 0,
      "note": 79,
      "start": 26.4462,
      "duration": 0.0871,
      "velocity": 1,
      "chip": "ym2612"
    },
    {
      "channel": 2,
      "note": 40,
      "start": 26.4512,
      "duration": 0.0097,
      "velocity": 114,
      "chip": "ym2612"
    },
    {
      "channel": 2,
      "note": 40,
      "start": 26.4608,
      "duration": 0.0122,
      "velocity": 114,
      "chip": "ym2612"
    },
    {
      "channel": 2,
      "note": 40,
      "start": 26.473,
      "duration": 0.0129,
      "velocity": 114,
      "chip": "ym2612"
    },
    {
      "channel": 2,
      "note": 40,
      "start": 26.4859,
      "duration": 0.0121,
      "velocity": 114,
      "chip": "ym2612"
    },
    {
      "channel": 2,
      "note": 40,
      "start": 26.498,
      "duration": 0.0129,
      "velocity": 114,
      "chip": "ym2612"
    },
    {
      "channel": 2,
      "note": 40,
      "start": 26.5109,
      "duration": 0.0122,
      "velocity": 114,
      "chip": "ym2612"
    },
    {
      "channel": 2,
      "note": 40,
      "start": 26.5231,
      "duration": 0.0147,
      "velocity": 114,
      "chip": "ym2612"
    },
    {
      "channel": 0,
      "note": 75,
      "start": 26.5339,
      "duration": 0.2871,
      "velocity": 1,
      "chip": "ym2612"
    },
    {
      "channel": 1,
      "note": 51,
      "start": 26.5353,
      "duration": 0.2871,
      "velocity": 81,
      "chip": "ym2612"
    },
    {
      "channel": 2,
      "note": 40,
      "start": 26.5378,
      "duration": 0.0103,
      "velocity": 114,
      "chip": "ym2612"
    },
    {
      "channel": 2,
      "note": 40,
      "start": 26.548,
      "duration": 0.0129,
      "velocity": 114,
      "chip": "ym2612"
    },
    {
      "channel": 2,
      "note": 40,
      "start": 26.5609,
      "duration": 0.0121,
      "velocity": 114,
      "chip": "ym2612"
    },
    {
      "channel": 2,
      "note": 39,
      "start": 26.573,
      "duration": 0.0134,
      "velocity": 114,
      "chip": "ym2612"
    },
    {
      "channel": 5,
      "note": 79,
      "start": 26.5851,
      "duration": 0.0873,
      "velocity": 1,
      "chip": "ym2612"
    },
    {
      "channel": 2,
      "note": 39,
      "start": 26.5864,
      "duration": 0.0116,
      "velocity": 114,
      "chip": "ym2612"
    },
    {
      "channel": 2,
      "note": 39,
      "start": 26.598,
      "duration": 0.0124,
      "velocity": 114,
      "chip": "ym2612"
    },
    {
      "channel": 2,
      "note": 41,
      "start": 26.6405,
      "duration": 0.1878,
      "velocity": 122,
      "chip": "ym2612"
    },
    {
      "channel": 5,
      "note": 75,
      "start": 26.6729,
      "duration": 0.2871,
      "velocity": 1,
      "chip": "ym2612"
    },
    {
      "channel": 0,
      "note": 70,
      "start": 26.8215,
      "duration": 0.187,
      "velocity": 1,
      "chip": "ym2612"
    },
    {
      "channel": 1,
      "note": 51,
      "start": 26.8229,
      "duration": 0.187,
      "velocity": 81,
      "chip": "ym2612"
    },
    {
      "channel": 2,
      "note": 40,
      "start": 26.8311,
      "duration": 0.0045,
      "velocity": 114,
      "chip": "ym2612"
    },
    {
      "channel": 2,
      "note": 40,
      "start": 26.8355,
      "duration": 0.0125,
      "velocity": 114,
      "chip": "ym2612"
    },
    {
      "channel": 2,
      "note": 40,
      "start": 26.848,
      "duration": 0.0135,
      "velocity": 114,
      "chip": "ym2612"
    },
    {
      "channel": 2,
      "note": 40,
      "start": 26.8615,
      "duration": 0.0115,
      "velocity": 114,
      "chip": "ym2612"
    },
    {
      "channel": 2,
      "note": 40,
      "start": 26.8731,
      "duration": 0.0125,
      "velocity": 114,
      "chip": "ym2612"
    },
    {
      "channel": 2,
      "note": 40,
      "start": 26.8855,
      "duration": 0.0125,
      "velocity": 114,
      "chip": "ym2612"
    },
    {
      "channel": 2,
      "note": 40,
      "start": 26.898,
      "duration": 0.0129,
      "velocity": 114,
      "chip": "ym2612"
    },
    {
      "channel": 2,
      "note": 40,
      "start": 26.9109,
      "duration": 0.0121,
      "velocity": 114,
      "chip": "ym2612"
    },
    {
      "channel": 2,
      "note": 40,
      "start": 26.923,
      "duration": 0.0125,
      "velocity": 114,
      "chip": "ym2612"
    },
    {
      "channel": 2,
      "note": 40,
      "start": 26.9355,
      "duration": 0.0125,
      "velocity": 114,
      "chip": "ym2612"
    },
    {
      "channel": 2,
      "note": 39,
      "start": 26.948,
      "duration": 0.0143,
      "velocity": 114,
      "chip": "ym2612"
    },
    {
      "channel": 5,
      "note": 70,
      "start": 26.9608,
      "duration": 0.1866,
      "velocity": 1,
      "chip": "ym2612"
    },
    {
      "channel": 2,
      "note": 39,
      "start": 26.9624,
      "duration": 0.0106,
      "velocity": 114,
      "chip": "ym2612"
    },
    {
      "channel": 2,
      "note": 39,
      "start": 26.973,
      "duration": 0.0125,
      "velocity": 114,
      "chip": "ym2612"
    },
    {
      "channel": 0,
      "note": 72,
      "start": 27.0089,
      "duration": 0.1873,
      "velocity": 1,
      "chip": "ym2612"
    },
    {
      "channel": 1,
      "note": 48,
      "start": 27.0103,
      "duration": 0.2745,
      "velocity": 81,
      "chip": "ym2612"
    },
    {
      "channel": 2,
      "note": 40,
      "start": 27.017,
      "duration": 0.006,
      "velocity": 114,
      "chip": "ym2612"
    },
    {
      "channel": 2,
      "note": 40,
      "start": 27.023,
      "duration": 0.0125,
      "velocity": 114,
      "chip": "ym2612"
    },
    {
      "channel": 2,
      "note": 40,
      "start": 27.0355,
      "duration": 0.0129,
      "velocity": 114,
      "chip": "ym2612"
    },
    {
      "channel": 2,
      "note": 40,
      "start": 27.0484,
      "duration": 0.0125,
      "velocity": 114,
      "chip": "ym2612"
    },
    {
      "channel": 2,
      "note": 40,
      "start": 27.0609,
      "duration": 0.0121,
      "velocity": 114,
      "chip": "ym2612"
    },
    {
      "channel": 2,
      "note": 40,
      "start": 27.073,
      "duration": 0.0125,
      "velocity": 114,
      "chip": "ym2612"
    },
    {
      "channel": 2,
      "note": 40,
      "start": 27.0855,
      "duration": 0.0132,
      "velocity": 114,
      "chip": "ym2612"
    },
    {
      "channel": 2,
      "note": 40,
      "start": 27.1121,
      "duration": 0.0109,
      "velocity": 114,
      "chip": "ym2612"
    },
    {
      "channel": 2,
      "note": 40,
      "start": 27.123,
      "duration": 0.0125,
      "velocity": 114,
      "chip": "ym2612"
    },
    {
      "channel": 2,
      "note": 40,
      "start": 27.1355,
      "duration": 0.0141,
      "velocity": 114,
      "chip": "ym2612"
    },
    {
      "channel": 5,
      "note": 72,
      "start": 27.1479,
      "duration": 0.1872,
      "velocity": 1,
      "chip": "ym2612"
    },
    {
      "channel": 2,
      "note": 40,
      "start": 27.1496,
      "duration": 0.0113,
      "velocity": 114,
      "chip": "ym2612"
    },
    {
      "channel": 2,
      "note": 40,
      "start": 27.1609,
      "duration": 0.0121,
      "velocity": 114,
      "chip": "ym2612"
    },
    {
      "channel": 2,
      "note": 40,
      "start": 27.173,
      "duration": 0.0125,
      "velocity": 114,
      "chip": "ym2612"
    },
    {
      "channel": 2,
      "note": 40,
      "start": 27.1855,
      "duration": 0.0134,
      "velocity": 114,
      "chip": "ym2612"
    },
    {
      "channel": 0,
      "note": 72,
      "start": 27.1962,
      "duration": 0.0871,
      "velocity": 1,
      "chip": "ym2612"
    },
    {
      "channel": 2,
      "note": 40,
      "start": 27.199,
      "duration": 0.012,
      "velocity": 114,
      "chip": "ym2612"
    },
    {
      "channel": 2,
      "note": 40,
      "start": 27.2109,
      "duration": 0.0121,
      "velocity": 114,
      "chip": "ym2612"
    },
    {
      "channel": 2,
      "note": 40,
      "start": 27.223,
      "duration": 0.0125,
      "velocity": 114,
      "chip": "ym2612"
    },
    {
      "channel": 2,
      "note": 39,
      "start": 27.2355,
      "duration": 0.0125,
      "velocity": 114,
      "chip": "ym2612"
    },
    {
      "channel": 2,
      "note": 39,
      "start": 27.248,
      "duration": 0.0129,
      "velocity": 114,
      "chip": "ym2612"
    },
    {
      "channel": 2,
      "note": 39,
      "start": 27.2609,
      "duration": 0.012,
      "velocity": 114,
      "chip": "ym2612"
    },
    {
      "channel": 0,
      "note": 75,
      "start": 27.2839,
      "duration": 0.2871,
      "velocity": 1,
      "chip": "ym2612"
    },
    {
      "channel": 1,
      "note": 48,
      "start": 27.2853,
      "duration": 0.2871,
      "velocity": 81,
      "chip": "ym2612"
    },
    {
      "channel": 5,
      "note": 72,
      "start": 27.3351,
      "duration": 0.0873,
      "velocity": 1,
      "chip": "ym2612"
    },
    {
      "channel": 2,
      "note": 41,
      "start": 27.3905,
      "duration": 0.1878,
      "velocity": 122,
      "chip": "ym2612"
    },
    {
      "channel": 5,
      "note": 75,
      "start": 27.4229,
      "duration": 0.2871,
      "velocity": 1,
      "chip": "ym2612"
    },
    {
      "channel": 0,
      "note": 82,
      "start": 27.5715,
      "duration": 0.187,
      "velocity": 1,
      "chip": "ym2612"
    },
    {
      "channel": 1,
      "note": 48,
      "start": 27.5729,
      "duration": 0.187,
      "velocity": 81,
      "chip": "ym2612"
    },
    {
      "channel": 2,
      "note": 40,
      "start": 27.5811,
      "duration": 0.0045,
      "velocity": 114,
      "chip": "ym2612"
    },
    {
      "channel": 2,
      "note": 40,
      "start": 27.5855,
      "duration": 0.0125,
      "velocity": 114,
      "chip": "ym2612"
    },
    {
      "channel": 2,
      "note": 40,
      "start": 27.598,
      "duration": 0.0135,
      "velocity": 114,
      "chip": "ym2612"
    },
    {
      "channel": 2,
      "note": 40,
      "start": 27.6115,
      "duration": 0.0115,
      "velocity": 114,
      "chip": "ym2612"
    },
    {
      "channel": 2,
      "note": 40,
      "start": 27.6231,
      "duration": 0.0125,
      "velocity": 114,
      "chip": "ym2612"
    },
    {
      "channel": 2,
      "note": 40,
      "start": 27.6355,
      "duration": 0.0125,
      "velocity": 114,
      "chip": "ym2612"
    },
    {
      "channel": 2,
      "note": 40,
      "start": 27.648,
      "duration": 0.0129,
      "velocity": 114,
      "chip": "ym2612"
    },
    {
      "channel": 2,
      "note": 40,
      "start": 27.6609,
      "duration": 0.0121,
      "velocity": 114,
      "chip": "ym2612"
    },
    {
      "channel": 2,
      "note": 40,
      "start": 27.673,
      "duration": 0.0125,
      "velocity": 114,
      "chip": "ym2612"
    },
    {
      "channel": 2,
      "note": 40,
      "start": 27.6855,
      "duration": 0.0125,
      "velocity": 114,
      "chip": "ym2612"
    },
    {
      "channel": 2,
      "note": 39,
      "start": 27.698,
      "duration": 0.0143,
      "velocity": 114,
      "chip": "ym2612"
    },
    {
      "channel": 5,
      "note": 82,
      "start": 27.7108,
      "duration": 0.1866,
      "velocity": 1,
      "chip": "ym2612"
    },
    {
      "channel": 2,
      "note": 39,
      "start": 27.7124,
      "duration": 0.0106,
      "velocity": 114,
      "chip": "ym2612"
    },
    {
      "channel": 2,
      "note": 39,
      "start": 27.723,
      "duration": 0.0125,
      "velocity": 114,
      "chip": "ym2612"
    },
    {
      "channel": 0,
      "note": 80,
      "start": 27.7589,
      "duration": 0.1873,
      "velocity": 1,
      "chip": "ym2612"
    },
    {
      "channel": 1,
      "note": 53,
      "start": 27.7603,
      "duration": 0.2733,
      "velocity": 81,
      "chip": "ym2612"
    },
    {
      "channel": 5,
      "note": 80,
      "start": 27.8979,
      "duration": 0.1872,
      "velocity": 1,
      "chip": "ym2612"
    },
    {
      "channel": 0,
      "note": 80,
      "start": 27.9462,
      "duration": 0.3748,
      "velocity": 1,
      "chip": "ym2612"
    },
    {
      "channel": 2,
      "note": 40,
      "start": 27.9512,
      "duration": 0.0097,
      "velocity": 114,
      "chip": "ym2612"
    },
    {
      "channel": 2,
      "note": 40,
      "start": 27.9608,
      "duration": 0.0122,
      "velocity": 114,
      "chip": "ym2612"
    },
    {
      "channel": 2,
      "note": 40,
      "start": 27.973,
      "duration": 0.0129,
      "velocity": 114,
      "chip": "ym2612"
    },
    {
      "channel": 2,
      "note": 40,
      "start": 27.9859,
      "duration": 0.0121,
      "velocity": 114,
      "chip": "ym2612"
    },
    {
      "channel": 2,
      "note": 40,
      "start": 27.998,
      "duration": 0.0129,
      "velocity": 114,
      "chip": "ym2612"
    },
    {
      "channel": 2,
      "note": 40,
      "start": 28.0109,
      "duration": 0.0121,
      "velocity": 114,
      "chip": "ym2612"
    },
    {
      "channel": 2,
      "note": 40,
      "start": 28.023,
      "duration": 0.0136,
      "velocity": 114,
      "chip": "ym2612"
    },
    {
      "channel": 1,
      "note": 53,
      "start": 28.0342,
      "duration": 0.2882,
      "velocity": 81,
      "chip": "ym2612"
    },
    {
      "channel": 2,
      "note": 40,
      "start": 28.0366,
      "duration": 0.0115,
      "velocity": 114,
      "chip": "ym2612"
    },
    {
      "channel": 2,
      "note": 40,
      "start": 28.048,
      "duration": 0.0129,
      "velocity": 114,
      "chip": "ym2612"
    },
    {
      "channel": 2,
      "note": 40,
      "start": 28.0609,
      "duration": 0.0121,
      "velocity": 114,
      "chip": "ym2612"
    },
    {
      "channel": 2,
      "note": 39,
      "start": 28.073,
      "duration": 0.0134,
      "velocity": 114,
      "chip": "ym2612"
    },
    {
      "channel": 5,
      "note": 80,
      "start": 28.0851,
      "duration": 0.3749,
      "velocity": 1,
      "chip": "ym2612"
    },
    {
      "channel": 2,
      "note": 39,
      "start": 28.0864,
      "duration": 0.0116,
      "velocity": 114,
      "chip": "ym2612"
    },
    {
      "channel": 2,
      "note": 39,
      "start": 28.098,
      "duration": 0.0124,
      "velocity": 114,
      "chip": "ym2612"
    },
    {
      "channel": 2,
      "note": 41,
      "start": 28.1405,
      "duration": 0.1878,
      "velocity": 122,
      "chip": "ym2612"
    },
    {
      "channel": 0,
      "note": 79,
      "start": 28.3215,
      "duration": 0.187,
      "velocity": 1,
      "chip": "ym2612"
    },
    {
      "channel": 1,
      "note": 51,
      "start": 28.3229,
      "duration": 0.187,
      "velocity": 81,
      "chip": "ym2612"
    },
    {
      "channel": 2,
      "note": 40,
      "start": 28.3311,
      "duration": 0.0045,
      "velocity": 114,
      "chip": "ym2612"
    },
    {
      "channel": 2,
      "note": 40,
      "start": 28.3355,
      "duration": 0.0125,
      "velocity": 114,
      "chip": "ym2612"
    },
    {
      "channel": 2,
      "note": 40,
      "start": 28.348,
      "duration": 0.0135,
      "velocity": 114,
      "chip": "ym2612"
    },
    {
      "channel": 2,
      "note": 40,
      "start": 28.3615,
      "duration": 0.0115,
      "velocity": 114,
      "chip": "ym2612"
    },
    {
      "channel": 2,
      "note": 40,
      "start": 28.3731,
      "duration": 0.0125,
      "velocity": 114,
      "chip": "ym2612"
    },
    {
      "channel": 2,
      "note": 40,
      "start": 28.3855,
      "duration": 0.0125,
      "velocity": 114,
      "chip": "ym2612"
    },
    {
      "channel": 2,
      "note": 40,
      "start": 28.398,
      "duration": 0.0129,
      "velocity": 114,
      "chip": "ym2612"
    },
    {
      "channel": 2,
      "note": 40,
      "start": 28.4109,
      "duration": 0.0121,
      "velocity": 114,
      "chip": "ym2612"
    },
    {
      "channel": 2,
      "note": 40,
      "start": 28.423,
      "duration": 0.0125,
      "velocity": 114,
      "chip": "ym2612"
    },
    {
      "channel": 2,
      "note": 40,
      "start": 28.4355,
      "duration": 0.0125,
      "velocity": 114,
      "chip": "ym2612"
    },
    {
      "channel": 2,
      "note": 39,
      "start": 28.448,
      "duration": 0.0143,
      "velocity": 114,
      "chip": "ym2612"
    },
    {
      "channel": 5,
      "note": 79,
      "start": 28.4608,
      "duration": 0.1866,
      "velocity": 1,
      "chip": "ym2612"
    },
    {
      "channel": 2,
      "note": 39,
      "start": 28.4624,
      "duration": 0.0106,
      "velocity": 114,
      "chip": "ym2612"
    },
    {
      "channel": 2,
      "note": 39,
      "start": 28.473,
      "duration": 0.0125,
      "velocity": 114,
      "chip": "ym2612"
    },
    {
      "channel": 0,
      "note": 77,
      "start": 28.5089,
      "duration": 0.1873,
      "velocity": 1,
      "chip": "ym2612"
    },
    {
      "channel": 1,
      "note": 49,
      "start": 28.5103,
      "duration": 0.2745,
      "velocity": 81,
      "chip": "ym2612"
    },
    {
      "channel": 2,
      "note": 40,
      "start": 28.517,
      "duration": 0.006,
      "velocity": 114,
      "chip": "ym2612"
    },
    {
      "channel": 2,
      "note": 40,
      "start": 28.523,
      "duration": 0.0125,
      "velocity": 114,
      "chip": "ym2612"
    },
    {
      "channel": 2,
      "note": 40,
      "start": 28.5355,
      "duration": 0.0129,
      "velocity": 114,
      "chip": "ym2612"
    },
    {
      "channel": 2,
      "note": 40,
      "start": 28.5484,
      "duration": 0.0125,
      "velocity": 114,
      "chip": "ym2612"
    },
    {
      "channel": 2,
      "note": 40,
      "start": 28.5609,
      "duration": 0.0121,
      "velocity": 114,
      "chip": "ym2612"
    },
    {
      "channel": 2,
      "note": 40,
      "start": 28.573,
      "duration": 0.0125,
      "velocity": 114,
      "chip": "ym2612"
    },
    {
      "channel": 2,
      "note": 40,
      "start": 28.5855,
      "duration": 0.0132,
      "velocity": 114,
      "chip": "ym2612"
    },
    {
      "channel": 2,
      "note": 40,
      "start": 28.6121,
      "duration": 0.0109,
      "velocity": 114,
      "chip": "ym2612"
    },
    {
      "channel": 2,
      "note": 40,
      "start": 28.623,
      "duration": 0.0125,
      "velocity": 114,
      "chip": "ym2612"
    },
    {
      "channel": 2,
      "note": 40,
      "start": 28.6355,
      "duration": 0.0141,
      "velocity": 114,
      "chip": "ym2612"
    },
    {
      "channel": 5,
      "note": 77,
      "start": 28.6479,
      "duration": 0.1872,
      "velocity": 1,
      "chip": "ym2612"
    },
    {
      "channel": 2,
      "note": 40,
      "start": 28.6496,
      "duration": 0.0113,
      "velocity": 114,
      "chip": "ym2612"
    },
    {
      "channel": 2,
      "note": 40,
      "start": 28.6609,
      "duration": 0.0121,
      "velocity": 114,
      "chip": "ym2612"
    },
    {
      "channel": 2,
      "note": 40,
      "start": 28.673,
      "duration": 0.0125,
      "velocity": 114,
      "chip": "ym2612"
    },
    {
      "channel": 2,
      "note": 40,
      "start": 28.6855,
      "duration": 0.0134,
      "velocity": 114,
      "chip": "ym2612"
    },
    {
      "channel": 0,
      "note": 77,
      "start": 28.6962,
      "duration": 0.0871,
      "velocity": 1,
      "chip": "ym2612"
    },
    {
      "channel": 2,
      "note": 40,
      "start": 28.699,
      "duration": 0.012,
      "velocity": 114,
      "chip": "ym2612"
    },
    {
      "channel": 2,
      "note": 40,
      "start": 28.7109,
      "duration": 0.0121,
      "velocity": 114,
      "chip": "ym2612"
    },
    {
      "channel": 2,
      "note": 40,
      "start": 28.723,
      "duration": 0.0125,
      "velocity": 114,
      "chip": "ym2612"
    },
    {
      "channel": 2,
      "note": 39,
      "start": 28.7355,
      "duration": 0.0125,
      "velocity": 114,
      "chip": "ym2612"
    },
    {
      "channel": 2,
      "note": 39,
      "start": 28.748,
      "duration": 0.0129,
      "velocity": 114,
      "chip": "ym2612"
    },
    {
      "channel": 2,
      "note": 39,
      "start": 28.7609,
      "duration": 0.012,
      "velocity": 114,
      "chip": "ym2612"
    },
    {
      "channel": 0,
      "note": 79,
      "start": 28.7839,
      "duration": 0.2871,
      "velocity": 1,
      "chip": "ym2612"
    },
    {
      "channel": 1,
      "note": 49,
      "start": 28.7853,
      "duration": 0.2871,
      "velocity": 81,
      "chip": "ym2612"
    },
    {
      "channel": 5,
      "note": 77,
      "start": 28.8351,
      "duration": 0.0873,
      "velocity": 1,
      "chip": "ym2612"
    },
    {
      "channel": 2,
      "note": 41,
      "start": 28.8905,
      "duration": 0.1878,
      "velocity": 122,
      "chip": "ym2612"
    },
    {
      "channel": 5,
      "note": 79,
      "start": 28.9229,
      "duration": 0.2871,
      "velocity": 1,
      "chip": "ym2612"
    },
    {
      "channel": 0,
      "note": 80,
      "start": 29.0715,
      "duration": 0.187,
      "velocity": 1,
      "chip": "ym2612"
    },
    {
      "channel": 1,
      "note": 49,
      "start": 29.0729,
      "duration": 0.187,
      "velocity": 81,
      "chip": "ym2612"
    },
    {
      "channel": 2,
      "note": 40,
      "start": 29.0811,
      "duration": 0.0045,
      "velocity": 114,
      "chip": "ym2612"
    },
    {
      "channel": 2,
      "note": 40,
      "start": 29.0855,
      "duration": 0.0125,
      "velocity": 114,
      "chip": "ym2612"
    },
    {
      "channel": 2,
      "note": 40,
      "start": 29.098,
      "duration": 0.0135,
      "velocity": 114,
      "chip": "ym2612"
    },
    {
      "channel": 2,
      "note": 40,
      "start": 29.1115,
      "duration": 0.0115,
      "velocity": 114,
      "chip": "ym2612"
    },
    {
      "channel": 2,
      "note": 40,
      "start": 29.123,
      "duration": 0.0125,
      "velocity": 114,
      "chip": "ym2612"
    },
    {
      "channel": 2,
      "note": 40,
      "start": 29.1355,
      "duration": 0.0125,
      "velocity": 114,
      "chip": "ym2612"
    },
    {
      "channel": 2,
      "note": 40,
      "start": 29.148,
      "duration": 0.0129,
      "velocity": 114,
      "chip": "ym2612"
    },
    {
      "channel": 2,
      "note": 40,
      "start": 29.1609,
      "duration": 0.0121,
      "velocity": 114,
      "chip": "ym2612"
    },
    {
      "channel": 2,
      "note": 40,
      "start": 29.173,
      "duration": 0.0125,
      "velocity": 114,
      "chip": "ym2612"
    },
    {
      "channel": 2,
      "note": 40,
      "start": 29.1855,
      "duration": 0.0125,
      "velocity": 114,
      "chip": "ym2612"
    },
    {
      "channel": 2,
      "note": 39,
      "start": 29.198,
      "duration": 0.0143,
      "velocity": 114,
      "chip": "ym2612"
    },
    {
      "channel": 5,
      "note": 80,
      "start": 29.2108,
      "duration": 0.1866,
      "velocity": 1,
      "chip": "ym2612"
    },
    {
      "channel": 2,
      "note": 39,
      "start": 29.2124,
      "duration": 0.0106,
      "velocity": 114,
      "chip": "ym2612"
    },
    {
      "channel": 2,
      "note": 39,
      "start": 29.223,
      "duration": 0.0125,
      "velocity": 114,
      "chip": "ym2612"
    },
    {
      "channel": 0,
      "note": 82,
      "start": 29.2589,
      "duration": 0.1873,
      "velocity": 1,
      "chip": "ym2612"
    },
    {
      "channel": 1,
      "note": 51,
      "start": 29.2603,
      "duration": 0.2745,
      "velocity": 81,
      "chip": "ym2612"
    },
    {
      "channel": 5,
      "note": 82,
      "start": 29.3979,
      "duration": 0.1872,
      "velocity": 1,
      "chip": "ym2612"
    },
    {
      "channel": 0,
      "note": 82,
      "start": 29.4462,
      "duration": 0.0871,
      "velocity": 1,
      "chip": "ym2612"
    },
    {
      "channel": 2,
      "note": 40,
      "start": 29.4512,
      "duration": 0.0097,
      "velocity": 114,
      "chip": "ym2612"
    },
    {
      "channel": 2,
      "note": 40,
      "start": 29.4609,
      "duration": 0.0121,
      "velocity": 114,
      "chip": "ym2612"
    },
    {
      "channel": 2,
      "note": 40,
      "start": 29.473,
      "duration": 0.0129,
      "velocity": 114,
      "chip": "ym2612"
    },
    {
      "channel": 2,
      "note": 40,
      "start": 29.4859,
      "duration": 0.0121,
      "velocity": 114,
      "chip": "ym2612"
    },
    {
      "channel": 2,
      "note": 40,
      "start": 29.498,
      "duration": 0.0129,
      "velocity": 114,
      "chip": "ym2612"
    },
    {
      "channel": 2,
      "note": 40,
      "start": 29.5109,
      "duration": 0.0121,
      "velocity": 114,
      "chip": "ym2612"
    },
    {
      "channel": 2,
      "note": 40,
      "start": 29.523,
      "duration": 0.0148,
      "velocity": 114,
      "chip": "ym2612"
    },
    {
      "channel": 0,
      "note": 84,
      "start": 29.5339,
      "duration": 0.2871,
      "velocity": 1,
      "chip": "ym2612"
    },
    {
      "channel": 1,
      "note": 51,
      "start": 29.5353,
      "duration": 0.2871,
      "velocity": 81,
      "chip": "ym2612"
    },
    {
      "channel": 2,
      "note": 40,
      "start": 29.5378,
      "duration": 0.0103,
      "velocity": 114,
      "chip": "ym2612"
    },
    {
      "channel": 2,
      "note": 40,
      "start": 29.548,
      "duration": 0.0129,
      "velocity": 114,
      "chip": "ym2612"
    },
    {
      "channel": 2,
      "note": 40,
      "start": 29.5609,
      "duration": 0.0121,
      "velocity": 114,
      "chip": "ym2612"
    },
    {
      "channel": 2,
      "note": 39,
      "start": 29.573,
      "duration": 0.0134,
      "velocity": 114,
      "chip": "ym2612"
    },
    {
      "channel": 5,
      "note": 82,
      "start": 29.5851,
      "duration": 0.0873,
      "velocity": 1,
      "chip": "ym2612"
    },
    {
      "channel": 2,
      "note": 39,
      "start": 29.5864,
      "duration": 0.0116,
      "velocity": 114,
      "chip": "ym2612"
    },
    {
      "channel": 2,
      "note": 39,
      "start": 29.598,
      "duration": 0.0124,
      "velocity": 114,
      "chip": "ym2612"
    },
    {
      "channel": 2,
      "note": 41,
      "start": 29.6405,
      "duration": 0.1878,
      "velocity": 122,
      "chip": "ym2612"
    },
    {
      "channel": 5,
      "note": 84,
      "start": 29.6729,
      "duration": 0.2871,
      "velocity": 1,
      "chip": "ym2612"
    },
    {
      "channel": 0,
      "note": 85,
      "start": 29.8215,
      "duration": 0.187,
      "velocity": 1,
      "chip": "ym2612"
    },
    {
      "channel": 1,
      "note": 51,
      "start": 29.8229,
      "duration": 0.187,
      "velocity": 81,
      "chip": "ym2612"
    },
    {
      "channel": 2,
      "note": 40,
      "start": 29.8311,
      "duration": 0.0045,
      "velocity": 114,
      "chip": "ym2612"
    },
    {
      "channel": 2,
      "note": 40,
      "start": 29.8355,
      "duration": 0.0125,
      "velocity": 114,
      "chip": "ym2612"
    },
    {
      "channel": 2,
      "note": 40,
      "start": 29.848,
      "duration": 0.0135,
      "velocity": 114,
      "chip": "ym2612"
    },
    {
      "channel": 2,
      "note": 40,
      "start": 29.8615,
      "duration": 0.0115,
      "velocity": 114,
      "chip": "ym2612"
    },
    {
      "channel": 2,
      "note": 40,
      "start": 29.873,
      "duration": 0.0125,
      "velocity": 114,
      "chip": "ym2612"
    },
    {
      "channel": 2,
      "note": 40,
      "start": 29.8855,
      "duration": 0.0125,
      "velocity": 114,
      "chip": "ym2612"
    },
    {
      "channel": 2,
      "note": 40,
      "start": 29.898,
      "duration": 0.0129,
      "velocity": 114,
      "chip": "ym2612"
    },
    {
      "channel": 2,
      "note": 40,
      "start": 29.9109,
      "duration": 0.0121,
      "velocity": 114,
      "chip": "ym2612"
    },
    {
      "channel": 2,
      "note": 40,
      "start": 29.923,
      "duration": 0.0125,
      "velocity": 114,
      "chip": "ym2612"
    },
    {
      "channel": 2,
      "note": 40,
      "start": 29.9355,
      "duration": 0.0125,
      "velocity": 114,
      "chip": "ym2612"
    },
    {
      "channel": 2,
      "note": 39,
      "start": 29.948,
      "duration": 0.0143,
      "velocity": 114,
      "chip": "ym2612"
    },
    {
      "channel": 5,
      "note": 85,
      "start": 29.9608,
      "duration": 0.1866,
      "velocity": 1,
      "chip": "ym2612"
    },
    {
      "channel": 2,
      "note": 39,
      "start": 29.9624,
      "duration": 0.0106,
      "velocity": 114,
      "chip": "ym2612"
    },
    {
      "channel": 2,
      "note": 39,
      "start": 29.973,
      "duration": 0.0125,
      "velocity": 114,
      "chip": "ym2612"
    },
    {
      "channel": 0,
      "note": 84,
      "start": 30.0089,
      "duration": 0.1873,
      "velocity": 1,
      "chip": "ym2612"
    },
    {
      "channel": 1,
      "note": 56,
      "start": 30.0103,
      "duration": 0.2733,
      "velocity": 81,
      "chip": "ym2612"
    },
    {
      "channel": 2,
      "note": 40,
      "start": 30.017,
      "duration": 0.006,
      "velocity": 114,
      "chip": "ym2612"
    },
    {
      "channel": 2,
      "note": 40,
      "start": 30.023,
      "duration": 0.0125,
      "velocity": 114,
      "chip": "ym2612"
    },
    {
      "channel": 2,
      "note": 40,
      "start": 30.0355,
      "duration": 0.0129,
      "velocity": 114,
      "chip": "ym2612"
    },
    {
      "channel": 2,
      "note": 40,
      "start": 30.0484,
      "duration": 0.0125,
      "velocity": 114,
      "chip": "ym2612"
    },
    {
      "channel": 2,
      "note": 40,
      "start": 30.0609,
      "duration": 0.0121,
      "velocity": 114,
      "chip": "ym2612"
    },
    {
      "channel": 2,
      "note": 40,
      "start": 30.073,
      "duration": 0.0125,
      "velocity": 114,
      "chip": "ym2612"
    },
    {
      "channel": 2,
      "note": 40,
      "start": 30.0855,
      "duration": 0.0132,
      "velocity": 114,
      "chip": "ym2612"
    },
    {
      "channel": 2,
      "note": 40,
      "start": 30.1121,
      "duration": 0.0109,
      "velocity": 114,
      "chip": "ym2612"
    },
    {
      "channel": 2,
      "note": 40,
      "start": 30.123,
      "duration": 0.0125,
      "velocity": 114,
      "chip": "ym2612"
    },
    {
      "channel": 2,
      "note": 40,
      "start": 30.1355,
      "duration": 0.0141,
      "velocity": 114,
      "chip": "ym2612"
    },
    {
      "channel": 5,
      "note": 84,
      "start": 30.1479,
      "duration": 0.1872,
      "velocity": 1,
      "chip": "ym2612"
    },
    {
      "channel": 2,
      "note": 40,
      "start": 30.1496,
      "duration": 0.0113,
      "velocity": 114,
      "chip": "ym2612"
    },
    {
      "channel": 2,
      "note": 40,
      "start": 30.1609,
      "duration": 0.0121,
      "velocity": 114,
      "chip": "ym2612"
    },
    {
      "channel": 2,
      "note": 40,
      "start": 30.173,
      "duration": 0.0125,
      "velocity": 114,
      "chip": "ym2612"
    },
    {
      "channel": 2,
      "note": 40,
      "start": 30.1855,
      "duration": 0.0134,
      "velocity": 114,
      "chip": "ym2612"
    },
    {
      "channel": 0,
      "note": 84,
      "start": 30.1962,
      "duration": 0.3749,
      "velocity": 1,
      "chip": "ym2612"
    },
    {
      "channel": 2,
      "note": 40,
      "start": 30.199,
      "duration": 0.012,
      "velocity": 114,
      "chip": "ym2612"
    },
    {
      "channel": 2,
      "note": 40,
      "start": 30.2109,
      "duration": 0.0121,
      "velocity": 114,
      "chip": "ym2612"
    },
    {
      "channel": 2,
      "note": 40,
      "start": 30.223,
      "duration": 0.0125,
      "velocity": 114,
      "chip": "ym2612"
    },
    {
      "channel": 2,
      "note": 39,
      "start": 30.2355,
      "duration": 0.0125,
      "velocity": 114,
      "chip": "ym2612"
    },
    {
      "channel": 2,
      "note": 39,
      "start": 30.248,
      "duration": 0.0129,
      "velocity": 114,
      "chip": "ym2612"
    },
    {
      "channel": 2,
      "note": 39,
      "start": 30.2609,
      "duration": 0.012,
      "velocity": 114,
      "chip": "ym2612"
    },
    {
      "channel": 1,
      "note": 56,
      "start": 30.2842,
      "duration": 0.2879,
      "velocity": 81,
      "chip": "ym2612"
    },
    {
      "channel": 5,
      "note": 84,
      "start": 30.3351,
      "duration": 0.3765,
      "velocity": 1,
      "chip": "ym2612"
    },
    {
      "channel": 2,
      "note": 41,
      "start": 30.3905,
      "duration": 0.1872,
      "velocity": 122,
      "chip": "ym2612"
    },
    {
      "channel": 0,
      "note": 84,
      "start": 30.5712,
      "duration": 0.0125,
      "velocity": 1,
      "chip": "ym2612"
    },
    {
      "channel": 1,
      "note": 56,
      "start": 30.5726,
      "duration": 0.1871,
      "velocity": 81,
      "chip": "ym2612"
    },
    {
      "channel": 2,
      "note": 40,
      "start": 30.5807,
      "duration": 0.0057,
      "velocity": 114,
      "chip": "ym2612"
    },
    {
      "channel": 0,
      "note": 84,
      "start": 30.5836,
      "duration": 0.0126,
      "velocity": 1,
      "chip": "ym2612"
    },
    {
      "channel": 2,
      "note": 40,
      "start": 30.5864,
      "duration": 0.0125,
      "velocity": 114,
      "chip": "ym2612"
    },
    {
      "channel": 0,
      "note": 84,
      "start": 30.5962,
      "duration": 0.0125,
      "velocity": 1,
      "chip": "ym2612"
    },
    {
      "channel": 2,
      "note": 40,
      "start": 30.599,
      "duration": 0.0135,
      "velocity": 114,
      "chip": "ym2612"
    },
    {
      "channel": 0,
      "note": 84,
      "start": 30.6087,
      "duration": 0.0125,
      "velocity": 1,
      "chip": "ym2612"
    },
    {
      "channel": 2,
      "note": 40,
      "start": 30.6124,
      "duration": 0.0115,
      "velocity": 114,
      "chip": "ym2612"
    },
    {
      "channel": 0,
      "note": 84,
      "start": 30.6212,
      "duration": 0.0125,
      "velocity": 1,
      "chip": "ym2612"
    },
    {
      "channel": 2,
      "note": 40,
      "start": 30.6239,
      "duration": 0.0125,
      "velocity": 114,
      "chip": "ym2612"
    },
    {
      "channel": 0,
      "note": 84,
      "start": 30.6336,
      "duration": 0.0126,
      "velocity": 1,
      "chip": "ym2612"
    },
    {
      "channel": 2,
      "note": 40,
      "start": 30.6364,
      "duration": 0.0125,
      "velocity": 114,
      "chip": "ym2612"
    },
    {
      "channel": 0,
      "note": 84,
      "start": 30.6462,
      "duration": 0.0125,
      "velocity": 1,
      "chip": "ym2612"
    },
    {
      "channel": 2,
      "note": 40,
      "start": 30.649,
      "duration": 0.0131,
      "velocity": 114,
      "chip": "ym2612"
    },
    {
      "channel": 0,
      "note": 84,
      "start": 30.6587,
      "duration": 0.0125,
      "velocity": 1,
      "chip": "ym2612"
    },
    {
      "channel": 2,
      "note": 40,
      "start": 30.6621,
      "duration": 0.0119,
      "velocity": 114,
      "chip": "ym2612"
    },
    {
      "channel": 0,
      "note": 84,
      "start": 30.6712,
      "duration": 0.0125,
      "velocity": 1,
      "chip": "ym2612"
    },
    {
      "channel": 2,
      "note": 40,
      "start": 30.6739,
      "duration": 0.0125,
      "velocity": 114,
      "chip": "ym2612"
    },
    {
      "channel": 0,
      "note": 84,
      "start": 30.6836,
      "duration": 0.0126,
      "velocity": 1,
      "chip": "ym2612"
    },
    {
      "channel": 2,
      "note": 40,
      "start": 30.6864,
      "duration": 0.0125,
      "velocity": 114,
      "chip": "ym2612"
    },
    {
      "channel": 0,
      "note": 84,
      "start": 30.6962,
      "duration": 0.0125,
      "velocity": 1,
      "chip": "ym2612"
    },
    {
      "channel": 2,
      "note": 39,
      "start": 30.699,
      "duration": 0.014,
      "velocity": 114,
      "chip": "ym2612"
    },
    {
      "channel": 0,
      "note": 84,
      "start": 30.7087,
      "duration": 0.0125,
      "velocity": 1,
      "chip": "ym2612"
    },
    {
      "channel": 5,
      "note": 84,
      "start": 30.7117,
      "duration": 0.0119,
      "velocity": 1,
      "chip": "ym2612"
    },
    {
      "channel": 2,
      "note": 39,
      "start": 30.7129,
      "duration": 0.0119,
      "velocity": 114,
      "chip": "ym2612"
    },
    {
      "channel": 0,
      "note": 84,
      "start": 30.7212,
      "duration": 0.0125,
      "velocity": 1,
      "chip": "ym2612"
    },
    {
      "channel": 5,
      "note": 84,
      "start": 30.7236,
      "duration": 0.0125,
      "velocity": 1,
      "chip": "ym2612"
    },
    {
      "channel": 2,
      "note": 39,
      "start": 30.7249,
      "duration": 0.0124,
      "velocity": 114,
      "chip": "ym2612"
    },
    {
      "channel": 0,
      "note": 84,
      "start": 30.7337,
      "duration": 0.0125,
      "velocity": 1,
      "chip": "ym2612"
    },
    {
      "channel": 5,
      "note": 84,
      "start": 30.736,
      "duration": 0.0125,
      "velocity": 1,
      "chip": "ym2612"
    },
    {
      "channel": 0,
      "note": 84,
      "start": 30.7462,
      "duration": 0.0125,
      "velocity": 1,
      "chip": "ym2612"
    },
    {
      "channel": 5,
      "note": 84,
      "start": 30.7486,
      "duration": 0.015,
      "velocity": 1,
      "chip": "ym2612"
    },
    {
      "channel": 0,
      "note": 84,
      "start": 30.7587,
      "duration": 0.0125,
      "velocity": 1,
      "chip": "ym2612"
    },
    {
      "channel": 1,
      "note": 55,
      "start": 30.7601,
      "duration": 0.2745,
      "velocity": 81,
      "chip": "ym2612"
    },
    {
      "channel": 5,
      "note": 84,
      "start": 30.7636,
      "duration": 0.01,
      "velocity": 1,
      "chip": "ym2612"
    },
    {
      "channel": 2,
      "note": 40,
      "start": 30.7663,
      "duration": 0.0086,
      "velocity": 114,
      "chip": "ym2612"
    },
    {
      "channel": 0,
      "note": 84,
      "start": 30.7712,
      "duration": 0.0125,
      "velocity": 1,
      "chip": "ym2612"
    },
    {
      "channel": 5,
      "note": 84,
      "start": 30.7736,
      "duration": 0.0125,
      "velocity": 1,
      "chip": "ym2612"
    },
    {
      "channel": 2,
      "note": 40,
      "start": 30.7749,
      "duration": 0.0124,
      "velocity": 114,
      "chip": "ym2612"
    },
    {
      "channel": 0,
      "note": 84,
      "start": 30.7836,
      "duration": 0.0126,
      "velocity": 1,
      "chip": "ym2612"
    },
    {
      "channel": 5,
      "note": 84,
      "start": 30.786,
      "duration": 0.0125,
      "velocity": 1,
      "chip": "ym2612"
    },
    {
      "channel": 2,
      "note": 40,
      "start": 30.7873,
      "duration": 0.0129,
      "velocity": 114,
      "chip": "ym2612"
    },
    {
      "channel": 0,
      "note": 84,
      "start": 30.7962,
      "duration": 0.0125,
      "velocity": 1,
      "chip": "ym2612"
    },
    {
      "channel": 5,
      "note": 84,
      "start": 30.7986,
      "duration": 0.0131,
      "velocity": 1,
      "chip": "ym2612"
    },
    {
      "channel": 2,
      "note": 40,
      "start": 30.8002,
      "duration": 0.0127,
      "velocity": 114,
      "chip": "ym2612"
    },
    {
      "channel": 0,
      "note": 84,
      "start": 30.8087,
      "duration": 0.0125,
      "velocity": 1,
      "chip": "ym2612"
    },
    {
      "channel": 5,
      "note": 84,
      "start": 30.8117,
      "duration": 0.0119,
      "velocity": 1,
      "chip": "ym2612"
    },
    {
      "channel": 2,
      "note": 40,
      "start": 30.8129,
      "duration": 0.0119,
      "velocity": 114,
      "chip": "ym2612"
    },
    {
      "channel": 0,
      "note": 84,
      "start": 30.8212,
      "duration": 0.0125,
      "velocity": 1,
      "chip": "ym2612"
    },
    {
      "channel": 5,
      "note": 84,
      "start": 30.8236,
      "duration": 0.0125,
      "velocity": 1,
      "chip": "ym2612"
    },
    {
      "channel": 2,
      "note": 40,
      "start": 30.8249,
      "duration": 0.0124,
      "velocity": 114,
      "chip": "ym2612"
    },
    {
      "channel": 0,
      "note": 84,
      "start": 30.8336,
      "duration": 0.0126,
      "velocity": 1,
      "chip": "ym2612"
    },
    {
      "channel": 5,
      "note": 84,
      "start": 30.836,
      "duration": 0.0125,
      "velocity": 1,
      "chip": "ym2612"
    },
    {
      "channel": 2,
      "note": 40,
      "start": 30.8373,
      "duration": 0.0125,
      "velocity": 114,
      "chip": "ym2612"
    },
    {
      "channel": 0,
      "note": 84,
      "start": 30.8462,
      "duration": 0.0125,
      "velocity": 1,
      "chip": "ym2612"
    },
    {
      "channel": 5,
      "note": 84,
      "start": 30.8486,
      "duration": 0.0131,
      "velocity": 1,
      "chip": "ym2612"
    },
    {
      "channel": 2,
      "note": 40,
      "start": 30.8498,
      "duration": 0.0131,
      "velocity": 114,
      "chip": "ym2612"
    },
    {
      "channel": 0,
      "note": 84,
      "start": 30.8587,
      "duration": 0.0125,
      "velocity": 1,
      "chip": "ym2612"
    },
    {
      "channel": 5,
      "note": 84,
      "start": 30.8617,
      "duration": 0.0119,
      "velocity": 1,
      "chip": "ym2612"
    },
    {
      "channel": 2,
      "note": 40,
      "start": 30.8629,
      "duration": 0.0119,
      "velocity": 114,
      "chip": "ym2612"
    },
    {
      "channel": 0,
      "note": 84,
      "start": 30.8712,
      "duration": 0.0125,
      "velocity": 1,
      "chip": "ym2612"
    },
    {
      "channel": 5,
      "note": 84,
      "start": 30.8736,
      "duration": 0.0125,
      "velocity": 1,
      "chip": "ym2612"
    },
    {
      "channel": 2,
      "note": 40,
      "start": 30.8749,
      "duration": 0.0124,
      "velocity": 114,
      "chip": "ym2612"
    },
    {
      "channel": 0,
      "note": 84,
      "start": 30.8836,
      "duration": 0.0126,
      "velocity": 1,
      "chip": "ym2612"
    },
    {
      "channel": 5,
      "note": 84,
      "start": 30.886,
      "duration": 0.0125,
      "velocity": 1,
      "chip": "ym2612"
    },
    {
      "channel": 2,
      "note": 39,
      "start": 30.8873,
      "duration": 0.0125,
      "velocity": 114,
      "chip": "ym2612"
    },
    {
      "channel": 0,
      "note": 84,
      "start": 30.8962,
      "duration": 0.0125,
      "velocity": 1,
      "chip": "ym2612"
    },
    {
      "channel": 5,
      "note": 84,
      "start": 30.8986,
      "duration": 0.0131,
      "velocity": 1,
      "chip": "ym2612"
    },
    {
      "channel": 2,
      "note": 39,
      "start": 30.8998,
      "duration": 0.0131,
      "velocity": 114,
      "chip": "ym2612"
    },
    {
      "channel": 0,
      "note": 84,
      "start": 30.9087,
      "duration": 0.0125,
      "velocity": 1,
      "chip": "ym2612"
    },
    {
      "channel": 5,
      "note": 84,
      "start": 30.9117,
      "duration": 0.0119,
      "velocity": 1,
      "chip": "ym2612"
    },
    {
      "channel": 2,
      "note": 39,
      "start": 30.9129,
      "duration": 0.0118,
      "velocity": 114,
      "chip": "ym2612"
    },
    {
      "channel": 0,
      "note": 84,
      "start": 30.9212,
      "duration": 0.0125,
      "velocity": 1,
      "chip": "ym2612"
    },
    {
      "channel": 5,
      "note": 84,
      "start": 30.9236,
      "duration": 0.0125,
      "velocity": 1,
      "chip": "ym2612"
    },
    {
      "channel": 0,
      "note": 84,
      "start": 30.9336,
      "duration": 0.0126,
      "velocity": 1,
      "chip": "ym2612"
    },
    {
      "channel": 5,
      "note": 84,
      "start": 30.936,
      "duration": 0.0134,
      "velocity": 1,
      "chip": "ym2612"
    },
    {
      "channel": 0,
      "note": 84,
      "start": 30.9462,
      "duration": 0.0125,
      "velocity": 1,
      "chip": "ym2612"
    },
    {
      "channel": 5,
      "note": 84,
      "start": 30.9494,
      "duration": 0.0123,
      "velocity": 1,
      "chip": "ym2612"
    },
    {
      "channel": 2,
      "note": 40,
      "start": 30.9521,
      "duration": 0.0109,
      "velocity": 114,
      "chip": "ym2612"
    },
    {
      "channel": 0,
      "note": 84,
      "start": 30.9587,
      "duration": 0.0125,
      "velocity": 1,
      "chip": "ym2612"
    },
    {
      "channel": 5,
      "note": 84,
      "start": 30.9617,
      "duration": 0.0119,
      "velocity": 1,
      "chip": "ym2612"
    },
    {
      "channel": 2,
      "note": 40,
      "start": 30.9629,
      "duration": 0.0119,
      "velocity": 114,
      "chip": "ym2612"
    },
    {
      "channel": 0,
      "note": 84,
      "start": 30.9712,
      "duration": 0.0125,
      "velocity": 1,
      "chip": "ym2612"
    },
    {
      "channel": 5,
      "note": 84,
      "start": 30.9736,
      "duration": 0.0125,
      "velocity": 1,
      "chip": "ym2612"
    },
    {
      "channel": 2,
      "note": 40,
      "start": 30.9749,
      "duration": 0.0128,
      "velocity": 114,
      "chip": "ym2612"
    },
    {
      "channel": 0,
      "note": 84,
      "start": 30.9836,
      "duration": 0.0126,
      "velocity": 1,
      "chip": "ym2612"
    },
    {
      "channel": 5,
      "note": 84,
      "start": 30.986,
      "duration": 0.0125,
      "velocity": 1,
      "chip": "ym2612"
    },
    {
      "channel": 2,
      "note": 40,
      "start": 30.9877,
      "duration": 0.0122,
      "velocity": 114,
      "chip": "ym2612"
    },
    {
      "channel": 0,
      "note": 84,
      "start": 30.9962,
      "duration": 0.0125,
      "velocity": 1,
      "chip": "ym2612"
    },
    {
      "channel": 5,
      "note": 84,
      "start": 30.9986,
      "duration": 0.0131,
      "velocity": 1,
      "chip": "ym2612"
    },
    {
      "channel": 2,
      "note": 40,
      "start": 30.9998,
      "duration": 0.0131,
      "velocity": 114,
      "chip": "ym2612"
    },
    {
      "channel": 0,
      "note": 84,
      "start": 31.0087,
      "duration": 0.0125,
      "velocity": 1,
      "chip": "ym2612"
    },
    {
      "channel": 5,
      "note": 84,
      "start": 31.0117,
      "duration": 0.0119,
      "velocity": 1,
      "chip": "ym2612"
    },
    {
      "channel": 2,
      "note": 40,
      "start": 31.0129,
      "duration": 0.0119,
      "velocity": 114,
      "chip": "ym2612"
    },
    {
      "channel": 0,
      "note": 84,
      "start": 31.0212,
      "duration": 0.0125,
      "velocity": 1,
      "chip": "ym2612"
    },
    {
      "channel": 5,
      "note": 84,
      "start": 31.0236,
      "duration": 0.0136,
      "velocity": 1,
      "chip": "ym2612"
    },
    {
      "channel": 2,
      "note": 40,
      "start": 31.0249,
      "duration": 0.0136,
      "velocity": 114,
      "chip": "ym2612"
    },
    {
      "channel": 0,
      "note": 84,
      "start": 31.0336,
      "duration": 0.0126,
      "velocity": 1,
      "chip": "ym2612"
    },
    {
      "channel": 1,
      "note": 55,
      "start": 31.0351,
      "duration": 0.2871,
      "velocity": 81,
      "chip": "ym2612"
    },
    {
      "channel": 5,
      "note": 84,
      "start": 31.0372,
      "duration": 0.0114,
      "velocity": 1,
      "chip": "ym2612"
    },
    {
      "channel": 2,
      "note": 40,
      "start": 31.0385,
      "duration": 0.0114,
      "velocity": 114,
      "chip": "ym2612"
    },
    {
      "channel": 0,
      "note": 84,
      "start": 31.0462,
      "duration": 0.0125,
      "velocity": 1,
      "chip": "ym2612"
    },
    {
      "channel": 5,
      "note": 84,
      "start": 31.0486,
      "duration": 0.0131,
      "velocity": 1,
      "chip": "ym2612"
    },
    {
      "channel": 2,
      "note": 40,
      "start": 31.0498,
      "duration": 0.0131,
      "velocity": 114,
      "chip": "ym2612"
    },
    {
      "channel": 0,
      "note": 84,
      "start": 31.0587,
      "duration": 0.0125,
      "velocity": 1,
      "chip": "ym2612"
    },
    {
      "channel": 5,
      "note": 84,
      "start": 31.0617,
      "duration": 0.0119,
      "velocity": 1,
      "chip": "ym2612"
    },
    {
      "channel": 2,
      "note": 40,
      "start": 31.0629,
      "duration": 0.0119,
      "velocity": 114,
      "chip": "ym2612"
    },
    {
      "channel": 0,
      "note": 84,
      "start": 31.0712,
      "duration": 0.0125,
      "velocity": 1,
      "chip": "ym2612"
    },
    {
      "channel": 5,
      "note": 84,
      "start": 31.0736,
      "duration": 0.0125,
      "velocity": 1,
      "chip": "ym2612"
    },
    {
      "channel": 2,
      "note": 39,
      "start": 31.0749,
      "duration": 0.0124,
      "velocity": 114,
      "chip": "ym2612"
    },
    {
      "channel": 0,
      "note": 84,
      "start": 31.0837,
      "duration": 0.0125,
      "velocity": 1,
      "chip": "ym2612"
    },
    {
      "channel": 5,
      "note": 84,
      "start": 31.086,
      "duration": 0.0125,
      "velocity": 1,
      "chip": "ym2612"
    },
    {
      "channel": 2,
      "note": 39,
      "start": 31.0873,
      "duration": 0.0125,
      "velocity": 114,
      "chip": "ym2612"
    },
    {
      "channel": 0,
      "note": 84,
      "start": 31.0962,
      "duration": 0.0125,
      "velocity": 1,
      "chip": "ym2612"
    },
    {
      "channel": 5,
      "note": 84,
      "start": 31.0986,
      "duration": 0.0131,
      "velocity": 1,
      "chip": "ym2612"
    },
    {
      "channel": 2,
      "note": 39,
      "start": 31.0998,
      "duration": 0.013,
      "velocity": 114,
      "chip": "ym2612"
    },
    {
      "channel": 0,
      "note": 84,
      "start": 31.1087,
      "duration": 0.0125,
      "velocity": 1,
      "chip": "ym2612"
    },
    {
      "channel": 5,
      "note": 84,
      "start": 31.1117,
      "duration": 0.0119,
      "velocity": 1,
      "chip": "ym2612"
    },
    {
      "channel": 0,
      "note": 84,
      "start": 31.1212,
      "duration": 0.0125,
      "velocity": 1,
      "chip": "ym2612"
    },
    {
      "channel": 5,
      "note": 84,
      "start": 31.1236,
      "duration": 0.0133,
      "velocity": 1,
      "chip": "ym2612"
    },
    {
      "channel": 0,
      "note": 84,
      "start": 31.1336,
      "duration": 0.0126,
      "velocity": 1,
      "chip": "ym2612"
    },
    {
      "channel": 5,
      "note": 84,
      "start": 31.1369,
      "duration": 0.0117,
      "velocity": 1,
      "chip": "ym2612"
    },
    {
      "channel": 2,
      "note": 41,
      "start": 31.1423,
      "duration": 0.0842,
      "velocity": 122,
      "chip": "ym2612"
    },
    {
      "channel": 0,
      "note": 84,
      "start": 31.1462,
      "duration": 0.0125,
      "velocity": 1,
      "chip": "ym2612"
    },
    {
      "channel": 5,
      "note": 84,
      "start": 31.1486,
      "duration": 0.0131,
      "velocity": 1,
      "chip": "ym2612"
    },
    {
      "channel": 0,
      "note": 84,
      "start": 31.1587,
      "duration": 0.0125,
      "velocity": 1,
      "chip": "ym2612"
    },
    {
      "channel": 5,
      "note": 84,
      "start": 31.1617,
      "duration": 0.0119,
      "velocity": 1,
      "chip": "ym2612"
    },
    {
      "channel": 0,
      "note": 84,
      "start": 31.1712,
      "duration": 0.0125,
      "velocity": 1,
      "chip": "ym2612"
    },
    {
      "channel": 5,
      "note": 84,
      "start": 31.1736,
      "duration": 0.0125,
      "velocity": 1,
      "chip": "ym2612"
    },
    {
      "channel": 0,
      "note": 84,
      "start": 31.1836,
      "duration": 0.0126,
      "velocity": 1,
      "chip": "ym2612"
    },
    {
      "channel": 5,
      "note": 84,
      "start": 31.186,
      "duration": 0.0126,
      "velocity": 1,
      "chip": "ym2612"
    },
    {
      "channel": 0,
      "note": 84,
      "start": 31.1962,
      "duration": 0.0125,
      "velocity": 1,
      "chip": "ym2612"
    },
    {
      "channel": 5,
      "note": 84,
      "start": 31.1986,
      "duration": 0.013,
      "velocity": 1,
      "chip": "ym2612"
    },
    {
      "channel": 0,
      "note": 84,
      "start": 31.2087,
      "duration": 0.0125,
      "velocity": 1,
      "chip": "ym2612"
    },
    {
      "channel": 5,
      "note": 84,
      "start": 31.2117,
      "duration": 0.0127,
      "velocity": 1,
      "chip": "ym2612"
    },
    {
      "channel": 0,
      "note": 84,
      "start": 31.2212,
      "duration": 0.0125,
      "velocity": 1,
      "chip": "ym2612"
    },
    {
      "channel": 5,
      "note": 84,
      "start": 31.2243,
      "duration": 0.0117,
      "velocity": 1,
      "chip": "ym2612"
    },
    {
      "channel": 2,
      "note": 41,
      "start": 31.2269,
      "duration": 0.1013,
      "velocity": 122,
      "chip": "ym2612"
    },
    {
      "channel": 0,
      "note": 84,
      "start": 31.2336,
      "duration": 0.0126,
      "velocity": 1,
      "chip": "ym2612"
    },
    {
      "channel": 5,
      "note": 84,
      "start": 31.236,
      "duration": 0.0125,
      "velocity": 1,
      "chip": "ym2612"
    },
    {
      "channel": 0,
      "note": 84,
      "start": 31.2462,
      "duration": 0.0125,
      "velocity": 1,
      "chip": "ym2612"
    },
    {
      "channel": 5,
      "note": 84,
      "start": 31.2486,
      "duration": 0.0131,
      "velocity": 1,
      "chip": "ym2612"
    },
    {
      "channel": 0,
      "note": 84,
      "start": 31.2587,
      "duration": 0.0125,
      "velocity": 1,
      "chip": "ym2612"
    },
    {
      "channel": 5,
      "note": 84,
      "start": 31.2617,
      "duration": 0.0119,
      "velocity": 1,
      "chip": "ym2612"
    },
    {
      "channel": 0,
      "note": 84,
      "start": 31.2712,
      "duration": 0.0125,
      "velocity": 1,
      "chip": "ym2612"
    },
    {
      "channel": 5,
      "note": 84,
      "start": 31.2736,
      "duration": 0.0125,
      "velocity": 1,
      "chip": "ym2612"
    },
    {
      "channel": 0,
      "note": 84,
      "start": 31.2836,
      "duration": 0.0126,
      "velocity": 1,
      "chip": "ym2612"
    },
    {
      "channel": 5,
      "note": 84,
      "start": 31.286,
      "duration": 0.0125,
      "velocity": 1,
      "chip": "ym2612"
    },
    {
      "channel": 0,
      "note": 84,
      "start": 31.2962,
      "duration": 0.0125,
      "velocity": 1,
      "chip": "ym2612"
    },
    {
      "channel": 5,
      "note": 84,
      "start": 31.2986,
      "duration": 0.0131,
      "velocity": 1,
      "chip": "ym2612"
    },
    {
      "channel": 0,
      "note": 84,
      "start": 31.3087,
      "duration": 0.0125,
      "velocity": 1,
      "chip": "ym2612"
    },
    {
      "channel": 5,
      "note": 84,
      "start": 31.3117,
      "duration": 0.0139,
      "velocity": 1,
      "chip": "ym2612"
    },
    {
      "channel": 0,
      "note": 84,
      "start": 31.3212,
      "duration": 0.0124,
      "velocity": 1,
      "chip": "ym2612"
    },
    {
      "channel": 1,
      "note": 55,
      "start": 31.3226,
      "duration": 0.1873,
      "velocity": 81,
      "chip": "ym2612"
    },
    {
      "channel": 5,
      "note": 84,
      "start": 31.3255,
      "duration": 0.0105,
      "velocity": 1,
      "chip": "ym2612"
    },
    {
      "channel": 2,
      "note": 41,
      "start": 31.3287,
      "duration": 0.0859,
      "velocity": 122,
      "chip": "ym2612"
    },
    {
      "channel": 0,
      "note": 84,
      "start": 31.3336,
      "duration": 0.0126,
      "velocity": 1,
      "chip": "ym2612"
    },
    {
      "channel": 5,
      "note": 84,
      "start": 31.336,
      "duration": 0.0125,
      "velocity": 1,
      "chip": "ym2612"
    },
    {
      "channel": 0,
      "note": 84,
      "start": 31.3462,
      "duration": 0.0125,
      "velocity": 1,
      "chip": "ym2612"
    },
    {
      "channel": 5,
      "note": 84,
      "start": 31.3486,
      "duration": 0.0131,
      "velocity": 1,
      "chip": "ym2612"
    },
    {
      "channel": 0,
      "note": 84,
      "start": 31.3587,
      "duration": 0.0125,
      "velocity": 1,
      "chip": "ym2612"
    },
    {
      "channel": 5,
      "note": 84,
      "start": 31.3617,
      "duration": 0.0119,
      "velocity": 1,
      "chip": "ym2612"
    },
    {
      "channel": 0,
      "note": 84,
      "start": 31.3712,
      "duration": 0.0125,
      "velocity": 1,
      "chip": "ym2612"
    },
    {
      "channel": 5,
      "note": 84,
      "start": 31.3736,
      "duration": 0.0125,
      "velocity": 1,
      "chip": "ym2612"
    },
    {
      "channel": 0,
      "note": 84,
      "start": 31.3836,
      "duration": 0.0126,
      "velocity": 1,
      "chip": "ym2612"
    },
    {
      "channel": 5,
      "note": 84,
      "start": 31.386,
      "duration": 0.0125,
      "velocity": 1,
      "chip": "ym2612"
    },
    {
      "channel": 0,
      "note": 84,
      "start": 31.3962,
      "duration": 0.0125,
      "velocity": 1,
      "chip": "ym2612"
    },
    {
      "channel": 5,
      "note": 84,
      "start": 31.3986,
      "duration": 0.0139,
      "velocity": 1,
      "chip": "ym2612"
    },
    {
      "channel": 0,
      "note": 84,
      "start": 31.4087,
      "duration": 0.0125,
      "velocity": 1,
      "chip": "ym2612"
    },
    {
      "channel": 5,
      "note": 84,
      "start": 31.4125,
      "duration": 0.0111,
      "velocity": 1,
      "chip": "ym2612"
    },
    {
      "channel": 2,
      "note": 41,
      "start": 31.415,
      "duration": 0.103,
      "velocity": 122,
      "chip": "ym2612"
    },
    {
      "channel": 0,
      "note": 84,
      "start": 31.4212,
      "duration": 0.0125,
      "velocity": 1,
      "chip": "ym2612"
    },
    {
      "channel": 5,
      "note": 84,
      "start": 31.4236,
      "duration": 0.0125,
      "velocity": 1,
      "chip": "ym2612"
    },
    {
      "channel": 0,
      "note": 84,
      "start": 31.4336,
      "duration": 0.0126,
      "velocity": 1,
      "chip": "ym2612"
    },
    {
      "channel": 5,
      "note": 84,
      "start": 31.436,
      "duration": 0.0125,
      "velocity": 1,
      "chip": "ym2612"
    },
    {
      "channel": 0,
      "note": 84,
      "start": 31.4462,
      "duration": 0.0125,
      "velocity": 1,
      "chip": "ym2612"
    },
    {
      "channel": 5,
      "note": 84,
      "start": 31.4486,
      "duration": 0.0132,
      "velocity": 1,
      "chip": "ym2612"
    },
    {
      "channel": 0,
      "note": 84,
      "start": 31.4587,
      "duration": 0.0125,
      "velocity": 1,
      "chip": "ym2612"
    },
    {
      "channel": 5,
      "note": 84,
      "start": 31.4617,
      "duration": 0.0119,
      "velocity": 1,
      "chip": "ym2612"
    },
    {
      "channel": 0,
      "note": 84,
      "start": 31.4712,
      "duration": 0.0124,
      "velocity": 1,
      "chip": "ym2612"
    },
    {
      "channel": 5,
      "note": 84,
      "start": 31.4736,
      "duration": 0.0124,
      "velocity": 1,
      "chip": "ym2612"
    },
    {
      "channel": 0,
      "note": 84,
      "start": 31.4836,
      "duration": 0.0126,
      "velocity": 1,
      "chip": "ym2612"
    },
    {
      "channel": 5,
      "note": 84,
      "start": 31.486,
      "duration": 0.0126,
      "velocity": 1,
      "chip": "ym2612"
    },
    {
      "channel": 0,
      "note": 84,
      "start": 31.4962,
      "duration": 0.0123,
      "velocity": 1,
      "chip": "ym2612"
    },
    {
      "channel": 5,
      "note": 84,
      "start": 31.4986,
      "duration": 0.0166,
      "velocity": 1,
      "chip": "ym2612"
    },
    {
      "channel": 0,
      "note": 77,
      "start": 31.509,
      "duration": 0.2754,
      "velocity": 1,
      "chip": "ym2612"
    },
    {
      "channel": 1,
      "note": 49,
      "start": 31.5104,
      "duration": 0.2755,
      "velocity": 81,
      "chip": "ym2612"
    },
    {
      "channel": 5,
      "note": 84,
      "start": 31.5152,
      "duration": 0.0088,
      "velocity": 1,
      "chip": "ym2612"
    },
    {
      "channel": 2,
      "note": 40,
      "start": 31.5208,
      "duration": 0.0045,
      "velocity": 114,
      "chip": "ym2612"
    },
    {
      "channel": 5,
      "note": 84,
      "start": 31.524,
      "duration": 0.0125,
      "velocity": 1,
      "chip": "ym2612"
    },
    {
      "channel": 2,
      "note": 40,
      "start": 31.5253,
      "duration": 0.0125,
      "velocity": 114,
      "chip": "ym2612"
    },
    {
      "channel": 5,
      "note": 84,
      "start": 31.5366,
      "duration": 0.0125,
      "velocity": 1,
      "chip": "ym2612"
    },
    {
      "channel": 2,
      "note": 40,
      "start": 31.5378,
      "duration": 0.0129,
      "velocity": 114,
      "chip": "ym2612"
    },
    {
      "channel": 5,
      "note": 84,
      "start": 31.549,
      "duration": 0.0131,
      "velocity": 1,
      "chip": "ym2612"
    },
    {
      "channel": 2,
      "note": 40,
      "start": 31.5507,
      "duration": 0.0127,
      "velocity": 114,
      "chip": "ym2612"
    },
    {
      "channel": 5,
      "note": 84,
      "start": 31.5621,
      "duration": 0.0118,
      "velocity": 1,
      "chip": "ym2612"
    },
    {
      "channel": 2,
      "note": 40,
      "start": 31.5634,
      "duration": 0.0118,
      "velocity": 114,
      "chip": "ym2612"
    },
    {
      "channel": 5,
      "note": 84,
      "start": 31.5739,
      "duration": 0.0125,
      "velocity": 1,
      "chip": "ym2612"
    },
    {
      "channel": 2,
      "note": 40,
      "start": 31.5752,
      "duration": 0.0125,
      "velocity": 114,
      "chip": "ym2612"
    },
    {
      "channel": 5,
      "note": 84,
      "start": 31.5865,
      "duration": 0.0132,
      "velocity": 1,
      "chip": "ym2612"
    },
    {
      "channel": 2,
      "note": 40,
      "start": 31.5877,
      "duration": 0.0132,
      "velocity": 114,
      "chip": "ym2612"
    },
    {
      "channel": 5,
      "note": 84,
      "start": 31.5997,
      "duration": 0.0124,
      "velocity": 1,
      "chip": "ym2612"
    },
    {
      "channel": 5,
      "note": 84,
      "start": 31.6121,
      "duration": 0.0118,
      "velocity": 1,
      "chip": "ym2612"
    },
    {
      "channel": 2,
      "note": 40,
      "start": 31.6143,
      "duration": 0.0109,
      "velocity": 114,
      "chip": "ym2612"
    },
    {
      "channel": 5,
      "note": 84,
      "start": 31.6239,
      "duration": 0.0125,
      "velocity": 1,
      "chip": "ym2612"
    },
    {
      "channel": 2,
      "note": 40,
      "start": 31.6252,
      "duration": 0.0124,
      "velocity": 114,
      "chip": "ym2612"
    },
    {
      "channel": 5,
      "note": 84,
      "start": 31.6364,
      "duration": 0.0123,
      "velocity": 1,
      "chip": "ym2612"
    },
    {
      "channel": 2,
      "note": 40,
      "start": 31.6376,
      "duration": 0.0132,
      "velocity": 114,
      "chip": "ym2612"
    },
    {
      "channel": 5,
      "note": 77,
      "start": 31.6492,
      "duration": 0.274,
      "velocity": 1,
      "chip": "ym2612"
    },
    {
      "channel": 2,
      "note": 40,
      "start": 31.6509,
      "duration": 0.0115,
      "velocity": 114,
      "chip": "ym2612"
    },
    {
      "channel": 2,
      "note": 40,
      "start": 31.6623,
      "duration": 0.0119,
      "velocity": 114,
      "chip": "ym2612"
    },
    {
      "channel": 2,
      "note": 40,
      "start": 31.6742,
      "duration": 0.0125,
      "velocity": 114,
      "chip": "ym2612"
    },
    {
      "channel": 2,
      "note": 40,
      "start": 31.6867,
      "duration": 0.0125,
      "velocity": 114,
      "chip": "ym2612"
    },
    {
      "channel": 2,
      "note": 40,
      "start": 31.6992,
      "duration": 0.013,
      "velocity": 114,
      "chip": "ym2612"
    },
    {
      "channel": 2,
      "note": 40,
      "start": 31.7122,
      "duration": 0.0119,
      "velocity": 114,
      "chip": "ym2612"
    },
    {
      "channel": 2,
      "note": 40,
      "start": 31.7241,
      "duration": 0.0124,
      "velocity": 114,
      "chip": "ym2612"
    },
    {
      "channel": 2,
      "note": 39,
      "start": 31.7366,
      "duration": 0.0125,
      "velocity": 114,
      "chip": "ym2612"
    },
    {
      "channel": 2,
      "note": 39,
      "start": 31.7491,
      "duration": 0.013,
      "velocity": 114,
      "chip": "ym2612"
    },
    {
      "channel": 2,
      "note": 39,
      "start": 31.7622,
      "duration": 0.0118,
      "velocity": 114,
      "chip": "ym2612"
    },
    {
      "channel": 0,
      "note": 79,
      "start": 31.785,
      "duration": 0.0996,
      "velocity": 1,
      "chip": "ym2612"
    },
    {
      "channel": 1,
      "note": 49,
      "start": 31.7863,
      "duration": 0.2866,
      "velocity": 81,
      "chip": "ym2612"
    },
    {
      "channel": 0,
      "note": 79,
      "start": 31.8846,
      "duration": 0.187,
      "velocity": 1,
      "chip": "ym2612"
    },
    {
      "channel": 2,
      "note": 41,
      "start": 31.8923,
      "duration": 0.1866,
      "velocity": 122,
      "chip": "ym2612"
    },
    {
      "channel": 5,
      "note": 79,
      "start": 31.9238,
      "duration": 0.0996,
      "velocity": 1,
      "chip": "ym2612"
    },
    {
      "channel": 5,
      "note": 79,
      "start": 32.0234,
      "duration": 0.187,
      "velocity": 1,
      "chip": "ym2612"
    },
    {
      "channel": 0,
      "note": 80,
      "start": 32.072,
      "duration": 0.1868,
      "velocity": 1,
      "chip": "ym2612"
    },
    {
      "channel": 1,
      "note": 49,
      "start": 32.0735,
      "duration": 0.1868,
      "velocity": 81,
      "chip": "ym2612"
    },
    {
      "channel": 2,
      "note": 40,
      "start": 32.0817,
      "duration": 0.0045,
      "velocity": 114,
      "chip": "ym2612"
    },
    {
      "channel": 2,
      "note": 40,
      "start": 32.0862,
      "duration": 0.0125,
      "velocity": 114,
      "chip": "ym2612"
    },
    {
      "channel": 2,
      "note": 40,
      "start": 32.0986,
      "duration": 0.0135,
      "velocity": 114,
      "chip": "ym2612"
    },
    {
      "channel": 2,
      "note": 40,
      "start": 32.1121,
      "duration": 0.0115,
      "velocity": 114,
      "chip": "ym2612"
    },
    {
      "channel": 2,
      "note": 40,
      "start": 32.1236,
      "duration": 0.0125,
      "velocity": 114,
      "chip": "ym2612"
    },
    {
      "channel": 2,
      "note": 40,
      "start": 32.1361,
      "duration": 0.0125,
      "velocity": 114,
      "chip": "ym2612"
    },
    {
      "channel": 2,
      "note": 40,
      "start": 32.1486,
      "duration": 0.0131,
      "velocity": 114,
      "chip": "ym2612"
    },
    {
      "channel": 2,
      "note": 40,
      "start": 32.1617,
      "duration": 0.0119,
      "velocity": 114,
      "chip": "ym2612"
    },
    {
      "channel": 2,
      "note": 40,
      "start": 32.1736,
      "duration": 0.0125,
      "velocity": 114,
      "chip": "ym2612"
    },
    {
      "channel": 2,
      "note": 40,
      "start": 32.186,
      "duration": 0.0125,
      "velocity": 114,
      "chip": "ym2612"
    },
    {
      "channel": 2,
      "note": 39,
      "start": 32.1985,
      "duration": 0.0142,
      "velocity": 114,
      "chip": "ym2612"
    },
    {
      "channel": 5,
      "note": 80,
      "start": 32.2115,
      "duration": 0.1863,
      "velocity": 1,
      "chip": "ym2612"
    },
    {
      "channel": 2,
      "note": 39,
      "start": 32.2127,
      "duration": 0.0108,
      "velocity": 114,
      "chip": "ym2612"
    },
    {
      "channel": 2,
      "note": 39,
      "start": 32.2235,
      "duration": 0.0124,
      "velocity": 114,
      "chip": "ym2612"
    },
    {
      "channel": 0,
      "note": 79,
      "start": 32.2594,
      "duration": 0.2741,
      "velocity": 1,
      "chip": "ym2612"
    },
    {
      "channel": 1,
      "note": 51,
      "start": 32.2612,
      "duration": 0.2737,
      "velocity": 81,
      "chip": "ym2612"
    },
    {
      "channel": 5,
      "note": 79,
      "start": 32.3983,
      "duration": 0.2742,
      "velocity": 1,
      "chip": "ym2612"
    },
    {
      "channel": 2,
      "note": 40,
      "start": 32.4503,
      "duration": 0.0107,
      "velocity": 114,
      "chip": "ym2612"
    },
    {
      "channel": 2,
      "note": 40,
      "start": 32.461,
      "duration": 0.0122,
      "velocity": 114,
      "chip": "ym2612"
    },
    {
      "channel": 2,
      "note": 40,
      "start": 32.4732,
      "duration": 0.0128,
      "velocity": 114,
      "chip": "ym2612"
    },
    {
      "channel": 2,
      "note": 40,
      "start": 32.486,
      "duration": 0.0121,
      "velocity": 114,
      "chip": "ym2612"
    },
    {
      "channel": 2,
      "note": 40,
      "start": 32.4981,
      "duration": 0.0129,
      "velocity": 114,
      "chip": "ym2612"
    },
    {
      "channel": 2,
      "note": 40,
      "start": 32.511,
      "duration": 0.0122,
      "velocity": 114,
      "chip": "ym2612"
    },
    {
      "channel": 2,
      "note": 40,
      "start": 32.5231,
      "duration": 0.0148,
      "velocity": 114,
      "chip": "ym2612"
    },
    {
      "channel": 0,
      "note": 75,
      "start": 32.5339,
      "duration": 0.0997,
      "velocity": 1,
      "chip": "ym2612"
    },
    {
      "channel": 1,
      "note": 51,
      "start": 32.5354,
      "duration": 0.287,
      "velocity": 81,
      "chip": "ym2612"
    },
    {
      "channel": 2,
      "note": 40,
      "start": 32.5379,
      "duration": 0.0102,
      "velocity": 114,
      "chip": "ym2612"
    },
    {
      "channel": 2,
      "note": 40,
      "start": 32.548,
      "duration": 0.0129,
      "velocity": 114,
      "chip": "ym2612"
    },
    {
      "channel": 2,
      "note": 40,
      "start": 32.5609,
      "duration": 0.0122,
      "velocity": 114,
      "chip": "ym2612"
    },
    {
      "channel": 2,
      "note": 39,
      "start": 32.5731,
      "duration": 0.0125,
      "velocity": 114,
      "chip": "ym2612"
    },
    {
      "channel": 2,
      "note": 39,
      "start": 32.5855,
      "duration": 0.0125,
      "velocity": 114,
      "chip": "ym2612"
    },
    {
      "channel": 2,
      "note": 39,
      "start": 32.598,
      "duration": 0.0124,
      "velocity": 114,
      "chip": "ym2612"
    },
    {
      "channel": 0,
      "note": 75,
      "start": 32.6336,
      "duration": 0.1873,
      "velocity": 1,
      "chip": "ym2612"
    },
    {
      "channel": 2,
      "note": 41,
      "start": 32.6414,
      "duration": 0.1868,
      "velocity": 122,
      "chip": "ym2612"
    },
    {
      "channel": 5,
      "note": 75,
      "start": 32.6729,
      "duration": 0.0998,
      "velocity": 1,
      "chip": "ym2612"
    },
    {
      "channel": 5,
      "note": 75,
      "start": 32.7727,
      "duration": 0.1873,
      "velocity": 1,
      "chip": "ym2612"
    },
    {
      "channel": 0,
      "note": 70,
      "start": 32.8214,
      "duration": 0.1871,
      "velocity": 1,
      "chip": "ym2612"
    },
    {
      "channel": 1,
      "note": 51,
      "start": 32.8228,
      "duration": 0.1871,
      "velocity": 81,
      "chip": "ym2612"
    },
    {
      "channel": 2,
      "note": 40,
      "start": 32.831,
      "duration": 0.0046,
      "velocity": 114,
      "chip": "ym2612"
    },
    {
      "channel": 2,
      "note": 40,
      "start": 32.8355,
      "duration": 0.0125,
      "velocity": 114,
      "chip": "ym2612"
    },
    {
      "channel": 2,
      "note": 40,
      "start": 32.848,
      "duration": 0.0135,
      "velocity": 114,
      "chip": "ym2612"
    },
    {
      "channel": 2,
      "note": 40,
      "start": 32.8615,
      "duration": 0.0115,
      "velocity": 114,
      "chip": "ym2612"
    },
    {
      "channel": 2,
      "note": 40,
      "start": 32.8731,
      "duration": 0.0125,
      "velocity": 114,
      "chip": "ym2612"
    },
    {
      "channel": 2,
      "note": 40,
      "start": 32.8855,
      "duration": 0.0125,
      "velocity": 114,
      "chip": "ym2612"
    },
    {
      "channel": 2,
      "note": 40,
      "start": 32.898,
      "duration": 0.0129,
      "velocity": 114,
      "chip": "ym2612"
    },
    {
      "channel": 2,
      "note": 40,
      "start": 32.9109,
      "duration": 0.0121,
      "velocity": 114,
      "chip": "ym2612"
    },
    {
      "channel": 2,
      "note": 40,
      "start": 32.923,
      "duration": 0.0125,
      "velocity": 114,
      "chip": "ym2612"
    },
    {
      "channel": 2,
      "note": 40,
      "start": 32.9355,
      "duration": 0.0125,
      "velocity": 114,
      "chip": "ym2612"
    },
    {
      "channel": 2,
      "note": 39,
      "start": 32.948,
      "duration": 0.0143,
      "velocity": 114,
      "chip": "ym2612"
    },
    {
      "channel": 5,
      "note": 70,
      "start": 32.9604,
      "duration": 0.1871,
      "velocity": 1,
      "chip": "ym2612"
    },
    {
      "channel": 2,
      "note": 39,
      "start": 32.9623,
      "duration": 0.0107,
      "velocity": 114,
      "chip": "ym2612"
    },
    {
      "channel": 2,
      "note": 39,
      "start": 32.9731,
      "duration": 0.0124,
      "velocity": 114,
      "chip": "ym2612"
    },
    {
      "channel": 0,
      "note": 72,
      "start": 33.009,
      "duration": 0.2744,
      "velocity": 1,
      "chip": "ym2612"
    },
    {
      "channel": 1,
      "note": 48,
      "start": 33.0104,
      "duration": 0.2744,
      "velocity": 81,
      "chip": "ym2612"
    },
    {
      "channel": 2,
      "note": 40,
      "start": 33.017,
      "duration": 0.006,
      "velocity": 114,
      "chip": "ym2612"
    },
    {
      "channel": 2,
      "note": 40,
      "start": 33.023,
      "duration": 0.0125,
      "velocity": 114,
      "chip": "ym2612"
    },
    {
      "channel": 2,
      "note": 40,
      "start": 33.0355,
      "duration": 0.0129,
      "velocity": 114,
      "chip": "ym2612"
    },
    {
      "channel": 2,
      "note": 40,
      "start": 33.0484,
      "duration": 0.0125,
      "velocity": 114,
      "chip": "ym2612"
    },
    {
      "channel": 2,
      "note": 40,
      "start": 33.0609,
      "duration": 0.0121,
      "velocity": 114,
      "chip": "ym2612"
    },
    {
      "channel": 2,
      "note": 40,
      "start": 33.073,
      "duration": 0.0125,
      "velocity": 114,
      "chip": "ym2612"
    },
    {
      "channel": 2,
      "note": 40,
      "start": 33.0855,
      "duration": 0.0132,
      "velocity": 114,
      "chip": "ym2612"
    },
    {
      "channel": 2,
      "note": 40,
      "start": 33.1121,
      "duration": 0.0109,
      "velocity": 114,
      "chip": "ym2612"
    },
    {
      "channel": 2,
      "note": 40,
      "start": 33.123,
      "duration": 0.0125,
      "velocity": 114,
      "chip": "ym2612"
    },
    {
      "channel": 2,
      "note": 40,
      "start": 33.1355,
      "duration": 0.0141,
      "velocity": 114,
      "chip": "ym2612"
    },
    {
      "channel": 5,
      "note": 72,
      "start": 33.148,
      "duration": 0.2744,
      "velocity": 1,
      "chip": "ym2612"
    },
    {
      "channel": 2,
      "note": 40,
      "start": 33.1497,
      "duration": 0.0112,
      "velocity": 114,
      "chip": "ym2612"
    },
    {
      "channel": 2,
      "note": 40,
      "start": 33.1609,
      "duration": 0.0122,
      "velocity": 114,
      "chip": "ym2612"
    },
    {
      "channel": 2,
      "note": 40,
      "start": 33.1731,
      "duration": 0.0125,
      "velocity": 114,
      "chip": "ym2612"
    },
    {
      "channel": 2,
      "note": 40,
      "start": 33.1855,
      "duration": 0.0125,
      "velocity": 114,
      "chip": "ym2612"
    },
    {
      "channel": 2,
      "note": 40,
      "start": 33.198,
      "duration": 0.0129,
      "velocity": 114,
      "chip": "ym2612"
    },
    {
      "channel": 2,
      "note": 40,
      "start": 33.2109,
      "duration": 0.0121,
      "velocity": 114,
      "chip": "ym2612"
    },
    {
      "channel": 2,
      "note": 40,
      "start": 33.223,
      "duration": 0.0125,
      "velocity": 114,
      "chip": "ym2612"
    },
    {
      "channel": 2,
      "note": 39,
      "start": 33.2355,
      "duration": 0.0125,
      "velocity": 114,
      "chip": "ym2612"
    },
    {
      "channel": 2,
      "note": 39,
      "start": 33.248,
      "duration": 0.0129,
      "velocity": 114,
      "chip": "ym2612"
    },
    {
      "channel": 2,
      "note": 39,
      "start": 33.2609,
      "duration": 0.012,
      "velocity": 114,
      "chip": "ym2612"
    },
    {
      "channel": 0,
      "note": 75,
      "start": 33.2839,
      "duration": 0.0998,
      "velocity": 1,
      "chip": "ym2612"
    },
    {
      "channel": 1,
      "note": 48,
      "start": 33.2853,
      "duration": 0.287,
      "velocity": 81,
      "chip": "ym2612"
    },
    {
      "channel": 0,
      "note": 75,
      "start": 33.3836,
      "duration": 0.1873,
      "velocity": 1,
      "chip": "ym2612"
    },
    {
      "channel": 2,
      "note": 41,
      "start": 33.3914,
      "duration": 0.1868,
      "velocity": 122,
      "chip": "ym2612"
    },
    {
      "channel": 5,
      "note": 75,
      "start": 33.4229,
      "duration": 0.0998,
      "velocity": 1,
      "chip": "ym2612"
    },
    {
      "channel": 5,
      "note": 75,
      "start": 33.5227,
      "duration": 0.1873,
      "velocity": 1,
      "chip": "ym2612"
    },
    {
      "channel": 0,
      "note": 82,
      "start": 33.5714,
      "duration": 0.1871,
      "velocity": 1,
      "chip": "ym2612"
    },
    {
      "channel": 1,
      "note": 48,
      "start": 33.5728,
      "duration": 0.1871,
      "velocity": 81,
      "chip": "ym2612"
    },
    {
      "channel": 2,
      "note": 40,
      "start": 33.581,
      "duration": 0.0046,
      "velocity": 114,
      "chip": "ym2612"
    },
    {
      "channel": 2,
      "note": 40,
      "start": 33.5855,
      "duration": 0.0125,
      "velocity": 114,
      "chip": "ym2612"
    },
    {
      "channel": 2,
      "note": 40,
      "start": 33.598,
      "duration": 0.0135,
      "velocity": 114,
      "chip": "ym2612"
    },
    {
      "channel": 2,
      "note": 40,
      "start": 33.6115,
      "duration": 0.0115,
      "velocity": 114,
      "chip": "ym2612"
    },
    {
      "channel": 2,
      "note": 40,
      "start": 33.6231,
      "duration": 0.0125,
      "velocity": 114,
      "chip": "ym2612"
    },
    {
      "channel": 2,
      "note": 40,
      "start": 33.6355,
      "duration": 0.0125,
      "velocity": 114,
      "chip": "ym2612"
    },
    {
      "channel": 2,
      "note": 40,
      "start": 33.648,
      "duration": 0.0129,
      "velocity": 114,
      "chip": "ym2612"
    },
    {
      "channel": 2,
      "note": 40,
      "start": 33.6609,
      "duration": 0.0121,
      "velocity": 114,
      "chip": "ym2612"
    },
    {
      "channel": 2,
      "note": 40,
      "start": 33.673,
      "duration": 0.0125,
      "velocity": 114,
      "chip": "ym2612"
    },
    {
      "channel": 2,
      "note": 40,
      "start": 33.6855,
      "duration": 0.0125,
      "velocity": 114,
      "chip": "ym2612"
    },
    {
      "channel": 2,
      "note": 39,
      "start": 33.698,
      "duration": 0.0143,
      "velocity": 114,
      "chip": "ym2612"
    },
    {
      "channel": 5,
      "note": 82,
      "start": 33.7104,
      "duration": 0.1871,
      "velocity": 1,
      "chip": "ym2612"
    },
    {
      "channel": 2,
      "note": 39,
      "start": 33.7123,
      "duration": 0.0107,
      "velocity": 114,
      "chip": "ym2612"
    },
    {
      "channel": 2,
      "note": 39,
      "start": 33.7231,
      "duration": 0.0124,
      "velocity": 114,
      "chip": "ym2612"
    },
    {
      "channel": 0,
      "note": 80,
      "start": 33.759,
      "duration": 0.087,
      "velocity": 1,
      "chip": "ym2612"
    },
    {
      "channel": 1,
      "note": 53,
      "start": 33.7604,
      "duration": 0.2744,
      "velocity": 81,
      "chip": "ym2612"
    },
    {
      "channel": 0,
      "note": 79,
      "start": 33.8464,
      "duration": 0.0994,
      "velocity": 1,
      "chip": "ym2612"
    },
    {
      "channel": 5,
      "note": 80,
      "start": 33.898,
      "duration": 0.0868,
      "velocity": 1,
      "chip": "ym2612"
    },
    {
      "channel": 2,
      "note": 40,
      "start": 33.9508,
      "duration": 0.0101,
      "velocity": 114,
      "chip": "ym2612"
    },
    {
      "channel": 2,
      "note": 40,
      "start": 33.9609,
      "duration": 0.0121,
      "velocity": 114,
      "chip": "ym2612"
    },
    {
      "channel": 2,
      "note": 40,
      "start": 33.973,
      "duration": 0.014,
      "velocity": 114,
      "chip": "ym2612"
    },
    {
      "channel": 5,
      "note": 79,
      "start": 33.9854,
      "duration": 0.0994,
      "velocity": 1,
      "chip": "ym2612"
    },
    {
      "channel": 2,
      "note": 40,
      "start": 33.987,
      "duration": 0.0111,
      "velocity": 114,
      "chip": "ym2612"
    },
    {
      "channel": 2,
      "note": 40,
      "start": 33.998,
      "duration": 0.0129,
      "velocity": 114,
      "chip": "ym2612"
    },
    {
      "channel": 2,
      "note": 40,
      "start": 34.0109,
      "duration": 0.0121,
      "velocity": 114,
      "chip": "ym2612"
    },
    {
      "channel": 2,
      "note": 40,
      "start": 34.023,
      "duration": 0.0148,
      "velocity": 114,
      "chip": "ym2612"
    },
    {
      "channel": 0,
      "note": 80,
      "start": 34.0339,
      "duration": 0.0998,
      "velocity": 1,
      "chip": "ym2612"
    },
    {
      "channel": 1,
      "note": 53,
      "start": 34.0353,
      "duration": 0.287,
      "velocity": 81,
      "chip": "ym2612"
    },
    {
      "channel": 2,
      "note": 40,
      "start": 34.0378,
      "duration": 0.0102,
      "velocity": 114,
      "chip": "ym2612"
    },
    {
      "channel": 2,
      "note": 40,
      "start": 34.048,
      "duration": 0.0129,
      "velocity": 114,
      "chip": "ym2612"
    },
    {
      "channel": 2,
      "note": 40,
      "start": 34.0609,
      "duration": 0.0121,
      "velocity": 114,
      "chip": "ym2612"
    },
    {
      "channel": 2,
      "note": 39,
      "start": 34.073,
      "duration": 0.013,
      "velocity": 114,
      "chip": "ym2612"
    },
    {
      "channel": 2,
      "note": 39,
      "start": 34.086,
      "duration": 0.012,
      "velocity": 114,
      "chip": "ym2612"
    },
    {
      "channel": 2,
      "note": 39,
      "start": 34.098,
      "duration": 0.0124,
      "velocity": 114,
      "chip": "ym2612"
    },
    {
      "channel": 0,
      "note": 80,
      "start": 34.1336,
      "duration": 0.1873,
      "velocity": 1,
      "chip": "ym2612"
    },
    {
      "channel": 2,
      "note": 41,
      "start": 34.1414,
      "duration": 0.1868,
      "velocity": 122,
      "chip": "ym2612"
    },
    {
      "channel": 5,
      "note": 80,
      "start": 34.1729,
      "duration": 0.0998,
      "velocity": 1,
      "chip": "ym2612"
    },
    {
      "channel": 5,
      "note": 80,
      "start": 34.2727,
      "duration": 0.1873,
      "velocity": 1,
      "chip": "ym2612"
    },
    {
      "channel": 0,
      "note": 79,
      "start": 34.3214,
      "duration": 0.1871,
      "velocity": 1,
      "chip": "ym2612"
    },
    {
      "channel": 1,
      "note": 51,
      "start": 34.3228,
      "duration": 0.1871,
      "velocity": 81,
      "chip": "ym2612"
    },
    {
      "channel": 2,
      "note": 40,
      "start": 34.331,
      "duration": 0.0046,
      "velocity": 114,
      "chip": "ym2612"
    },
    {
      "channel": 2,
      "note": 40,
      "start": 34.3355,
      "duration": 0.0125,
      "velocity": 114,
      "chip": "ym2612"
    },
    {
      "channel": 2,
      "note": 40,
      "start": 34.348,
      "duration": 0.0135,
      "velocity": 114,
      "chip": "ym2612"
    },
    {
      "channel": 2,
      "note": 40,
      "start": 34.3615,
      "duration": 0.0115,
      "velocity": 114,
      "chip": "ym2612"
    },
    {
      "channel": 2,
      "note": 40,
      "start": 34.373,
      "duration": 0.0125,
      "velocity": 114,
      "chip": "ym2612"
    },
    {
      "channel": 2,
      "note": 40,
      "start": 34.3855,
      "duration": 0.0125,
      "velocity": 114,
      "chip": "ym2612"
    },
    {
      "channel": 2,
      "note": 40,
      "start": 34.398,
      "duration": 0.0129,
      "velocity": 114,
      "chip": "ym2612"
    },
    {
      "channel": 2,
      "note": 40,
      "start": 34.4109,
      "duration": 0.0121,
      "velocity": 114,
      "chip": "ym2612"
    },
    {
      "channel": 2,
      "note": 40,
      "start": 34.423,
      "duration": 0.0125,
      "velocity": 114,
      "chip": "ym2612"
    },
    {
      "channel": 2,
      "note": 40,
      "start": 34.4355,
      "duration": 0.0125,
      "velocity": 114,
      "chip": "ym2612"
    },
    {
      "channel": 2,
      "note": 39,
      "start": 34.448,
      "duration": 0.0142,
      "velocity": 114,
      "chip": "ym2612"
    },
    {
      "channel": 5,
      "note": 79,
      "start": 34.4604,
      "duration": 0.1873,
      "velocity": 1,
      "chip": "ym2612"
    },
    {
      "channel": 2,
      "note": 39,
      "start": 34.4622,
      "duration": 0.0107,
      "velocity": 114,
      "chip": "ym2612"
    },
    {
      "channel": 2,
      "note": 39,
      "start": 34.473,
      "duration": 0.0125,
      "velocity": 114,
      "chip": "ym2612"
    },
    {
      "channel": 0,
      "note": 82,
      "start": 34.509,
      "duration": 0.0872,
      "velocity": 1,
      "chip": "ym2612"
    },
    {
      "channel": 1,
      "note": 53,
      "start": 34.5104,
      "duration": 0.2745,
      "velocity": 81,
      "chip": "ym2612"
    },
    {
      "channel": 2,
      "note": 41,
      "start": 34.5198,
      "duration": 0.082,
      "velocity": 122,
      "chip": "ym2612"
    },
    {
      "channel": 0,
      "note": 80,
      "start": 34.5967,
      "duration": 0.0994,
      "velocity": 1,
      "chip": "ym2612"
    },
    {
      "channel": 2,
      "note": 40,
      "start": 34.6045,
      "duration": 0.0067,
      "velocity": 114,
      "chip": "ym2612"
    },
    {
      "channel": 2,
      "note": 40,
      "start": 34.6112,
      "duration": 0.0122,
      "velocity": 114,
      "chip": "ym2612"
    },
    {
      "channel": 2,
      "note": 40,
      "start": 34.6233,
      "duration": 0.0129,
      "velocity": 114,
      "chip": "ym2612"
    },
    {
      "channel": 2,
      "note": 40,
      "start": 34.6362,
      "duration": 0.0134,
      "velocity": 114,
      "chip": "ym2612"
    },
    {
      "channel": 5,
      "note": 82,
      "start": 34.6483,
      "duration": 0.0868,
      "velocity": 1,
      "chip": "ym2612"
    },
    {
      "channel": 2,
      "note": 40,
      "start": 34.6495,
      "duration": 0.0116,
      "velocity": 114,
      "chip": "ym2612"
    },
    {
      "channel": 2,
      "note": 40,
      "start": 34.6611,
      "duration": 0.0121,
      "velocity": 114,
      "chip": "ym2612"
    },
    {
      "channel": 2,
      "note": 40,
      "start": 34.6732,
      "duration": 0.0125,
      "velocity": 114,
      "chip": "ym2612"
    },
    {
      "channel": 2,
      "note": 40,
      "start": 34.6857,
      "duration": 0.0143,
      "velocity": 114,
      "chip": "ym2612"
    },
    {
      "channel": 0,
      "note": 75,
      "start": 34.6965,
      "duration": 0.087,
      "velocity": 1,
      "chip": "ym2612"
    },
    {
      "channel": 2,
      "note": 40,
      "start": 34.7122,
      "duration": 0.011,
      "velocity": 114,
      "chip": "ym2612"
    },
    {
      "channel": 2,
      "note": 40,
      "start": 34.7232,
      "duration": 0.0136,
      "velocity": 114,
      "chip": "ym2612"
    },
    {
      "channel": 5,
      "note": 80,
      "start": 34.7355,
      "duration": 0.0994,
      "velocity": 1,
      "chip": "ym2612"
    },
    {
      "channel": 2,
      "note": 40,
      "start": 34.7368,
      "duration": 0.0117,
      "velocity": 114,
      "chip": "ym2612"
    },
    {
      "channel": 2,
      "note": 40,
      "start": 34.7485,
      "duration": 0.0125,
      "velocity": 114,
      "chip": "ym2612"
    },
    {
      "channel": 2,
      "note": 40,
      "start": 34.761,
      "duration": 0.0122,
      "velocity": 114,
      "chip": "ym2612"
    },
    {
      "channel": 2,
      "note": 40,
      "start": 34.7731,
      "duration": 0.0154,
      "velocity": 114,
      "chip": "ym2612"
    },
    {
      "channel": 0,
      "note": 82,
      "start": 34.7839,
      "duration": 0.0995,
      "velocity": 1,
      "chip": "ym2612"
    },
    {
      "channel": 1,
      "note": 53,
      "start": 34.7854,
      "duration": 0.287,
      "velocity": 81,
      "chip": "ym2612"
    },
    {
      "channel": 2,
      "note": 41,
      "start": 34.8019,
      "duration": 0.0871,
      "velocity": 122,
      "chip": "ym2612"
    },
    {
      "channel": 5,
      "note": 75,
      "start": 34.8354,
      "duration": 0.087,
      "velocity": 1,
      "chip": "ym2612"
    },
    {
      "channel": 0,
      "note": 80,
      "start": 34.884,
      "duration": 0.0869,
      "velocity": 1,
      "chip": "ym2612"
    },
    {
      "channel": 2,
      "note": 40,
      "start": 34.8918,
      "duration": 0.0063,
      "velocity": 114,
      "chip": "ym2612"
    },
    {
      "channel": 2,
      "note": 40,
      "start": 34.898,
      "duration": 0.0129,
      "velocity": 114,
      "chip": "ym2612"
    },
    {
      "channel": 2,
      "note": 40,
      "start": 34.9109,
      "duration": 0.0137,
      "velocity": 114,
      "chip": "ym2612"
    },
    {
      "channel": 5,
      "note": 82,
      "start": 34.9229,
      "duration": 0.0996,
      "velocity": 1,
      "chip": "ym2612"
    },
    {
      "channel": 2,
      "note": 40,
      "start": 34.9246,
      "duration": 0.011,
      "velocity": 114,
      "chip": "ym2612"
    },
    {
      "channel": 2,
      "note": 40,
      "start": 34.9355,
      "duration": 0.0125,
      "velocity": 114,
      "chip": "ym2612"
    },
    {
      "channel": 2,
      "note": 40,
      "start": 34.948,
      "duration": 0.0129,
      "velocity": 114,
      "chip": "ym2612"
    },
    {
      "channel": 2,
      "note": 40,
      "start": 34.9609,
      "duration": 0.0139,
      "velocity": 114,
      "chip": "ym2612"
    },
    {
      "channel": 0,
      "note": 75,
      "start": 34.9714,
      "duration": 0.0995,
      "velocity": 1,
      "chip": "ym2612"
    },
    {
      "channel": 2,
      "note": 40,
      "start": 34.9865,
      "duration": 0.0116,
      "velocity": 114,
      "chip": "ym2612"
    },
    {
      "channel": 2,
      "note": 40,
      "start": 34.998,
      "duration": 0.0129,
      "velocity": 114,
      "chip": "ym2612"
    },
    {
      "channel": 2,
      "note": 40,
      "start": 35.0109,
      "duration": 0.0137,
      "velocity": 114,
      "chip": "ym2612"
    },
    {
      "channel": 5,
      "note": 80,
      "start": 35.023,
      "duration": 0.0869,
      "velocity": 1,
      "chip": "ym2612"
    },
    {
      "channel": 2,
      "note": 40,
      "start": 35.0246,
      "duration": 0.0109,
      "velocity": 114,
      "chip": "ym2612"
    },
    {
      "channel": 2,
      "note": 40,
      "start": 35.0355,
      "duration": 0.0125,
      "velocity": 114,
      "chip": "ym2612"
    },
    {
      "channel": 2,
      "note": 40,
      "start": 35.048,
      "duration": 0.0129,
      "velocity": 114,
      "chip": "ym2612"
    },
    {
      "channel": 2,
      "note": 40,
      "start": 35.0609,
      "duration": 0.015,
      "velocity": 114,
      "chip": "ym2612"
    },
    {
      "channel": 0,
      "note": 82,
      "start": 35.0714,
      "duration": 0.087,
      "velocity": 1,
      "chip": "ym2612"
    },
    {
      "channel": 1,
      "note": 53,
      "start": 35.0728,
      "duration": 0.2746,
      "velocity": 81,
      "chip": "ym2612"
    },
    {
      "channel": 2,
      "note": 41,
      "start": 35.0893,
      "duration": 0.0753,
      "velocity": 122,
      "chip": "ym2612"
    },
    {
      "channel": 5,
      "note": 75,
      "start": 35.1104,
      "duration": 0.0995,
      "velocity": 1,
      "chip": "ym2612"
    },
    {
      "channel": 0,
      "note": 80,
      "start": 35.1589,
      "duration": 0.0996,
      "velocity": 1,
      "chip": "ym2612"
    },
    {
      "channel": 2,
      "note": 40,
      "start": 35.1673,
      "duration": 0.0057,
      "velocity": 114,
      "chip": "ym2612"
    },
    {
      "channel": 2,
      "note": 40,
      "start": 35.173,
      "duration": 0.0125,
      "velocity": 114,
      "chip": "ym2612"
    },
    {
      "channel": 2,
      "note": 40,
      "start": 35.1855,
      "duration": 0.0129,
      "velocity": 114,
      "chip": "ym2612"
    },
    {
      "channel": 2,
      "note": 40,
      "start": 35.1984,
      "duration": 0.0139,
      "velocity": 114,
      "chip": "ym2612"
    },
    {
      "channel": 5,
      "note": 82,
      "start": 35.2104,
      "duration": 0.087,
      "velocity": 1,
      "chip": "ym2612"
    },
    {
      "channel": 2,
      "note": 40,
      "start": 35.2123,
      "duration": 0.0107,
      "velocity": 114,
      "chip": "ym2612"
    },
    {
      "channel": 2,
      "note": 40,
      "start": 35.223,
      "duration": 0.0125,
      "velocity": 114,
      "chip": "ym2612"
    },
    {
      "channel": 2,
      "note": 40,
      "start": 35.2355,
      "duration": 0.0125,
      "velocity": 114,
      "chip": "ym2612"
    },
    {
      "channel": 2,
      "note": 40,
      "start": 35.248,
      "duration": 0.015,
      "velocity": 114,
      "chip": "ym2612"
    },
    {
      "channel": 0,
      "note": 75,
      "start": 35.259,
      "duration": 0.087,
      "velocity": 1,
      "chip": "ym2612"
    },
    {
      "channel": 2,
      "note": 40,
      "start": 35.274,
      "duration": 0.0115,
      "velocity": 114,
      "chip": "ym2612"
    },
    {
      "channel": 2,
      "note": 40,
      "start": 35.2855,
      "duration": 0.0137,
      "velocity": 114,
      "chip": "ym2612"
    },
    {
      "channel": 5,
      "note": 80,
      "start": 35.2979,
      "duration": 0.0996,
      "velocity": 1,
      "chip": "ym2612"
    },
    {
      "channel": 2,
      "note": 40,
      "start": 35.2992,
      "duration": 0.0123,
      "velocity": 114,
      "chip": "ym2612"
    },
    {
      "channel": 2,
      "note": 40,
      "start": 35.3115,
      "duration": 0.0115,
      "velocity": 114,
      "chip": "ym2612"
    },
    {
      "channel": 2,
      "note": 40,
      "start": 35.3231,
      "duration": 0.0125,
      "velocity": 114,
      "chip": "ym2612"
    },
    {
      "channel": 2,
      "note": 40,
      "start": 35.3355,
      "duration": 0.0155,
      "velocity": 114,
      "chip": "ym2612"
    },
    {
      "channel": 0,
      "note": 82,
      "start": 35.3464,
      "duration": 0.0995,
      "velocity": 1,
      "chip": "ym2612"
    },
    {
      "channel": 1,
      "note": 53,
      "start": 35.3479,
      "duration": 0.2871,
      "velocity": 81,
      "chip": "ym2612"
    },
    {
      "channel": 2,
      "note": 41,
      "start": 35.3649,
      "duration": 0.0866,
      "velocity": 122,
      "chip": "ym2612"
    },
    {
      "channel": 5,
      "note": 75,
      "start": 35.398,
      "duration": 0.0868,
      "velocity": 1,
      "chip": "ym2612"
    },
    {
      "channel": 0,
      "note": 80,
      "start": 35.4464,
      "duration": 0.0869,
      "velocity": 1,
      "chip": "ym2612"
    },
    {
      "channel": 2,
      "note": 40,
      "start": 35.4542,
      "duration": 0.0067,
      "velocity": 114,
      "chip": "ym2612"
    },
    {
      "channel": 2,
      "note": 40,
      "start": 35.4609,
      "duration": 0.0121,
      "velocity": 114,
      "chip": "ym2612"
    },
    {
      "channel": 2,
      "note": 40,
      "start": 35.473,
      "duration": 0.0141,
      "velocity": 114,
      "chip": "ym2612"
    },
    {
      "channel": 5,
      "note": 82,
      "start": 35.4854,
      "duration": 0.0995,
      "velocity": 1,
      "chip": "ym2612"
    },
    {
      "channel": 2,
      "note": 40,
      "start": 35.4871,
      "duration": 0.011,
      "velocity": 114,
      "chip": "ym2612"
    },
    {
      "channel": 2,
      "note": 40,
      "start": 35.498,
      "duration": 0.0129,
      "velocity": 114,
      "chip": "ym2612"
    },
    {
      "channel": 2,
      "note": 40,
      "start": 35.5109,
      "duration": 0.0121,
      "velocity": 114,
      "chip": "ym2612"
    },
    {
      "channel": 2,
      "note": 40,
      "start": 35.523,
      "duration": 0.0143,
      "velocity": 114,
      "chip": "ym2612"
    },
    {
      "channel": 0,
      "note": 75,
      "start": 35.5339,
      "duration": 0.0996,
      "velocity": 1,
      "chip": "ym2612"
    },
    {
      "channel": 2,
      "note": 40,
      "start": 35.549,
      "duration": 0.0119,
      "velocity": 114,
      "chip": "ym2612"
    },
    {
      "channel": 2,
      "note": 40,
      "start": 35.5609,
      "duration": 0.0121,
      "velocity": 114,
      "chip": "ym2612"
    },
    {
      "channel": 2,
      "note": 40,
      "start": 35.573,
      "duration": 0.0141,
      "velocity": 114,
      "chip": "ym2612"
    },
    {
      "channel": 5,
      "note": 80,
      "start": 35.5854,
      "duration": 0.087,
      "velocity": 1,
      "chip": "ym2612"
    },
    {
      "channel": 2,
      "note": 40,
      "start": 35.5871,
      "duration": 0.011,
      "velocity": 114,
      "chip": "ym2612"
    },
    {
      "channel": 2,
      "note": 40,
      "start": 35.598,
      "duration": 0.0129,
      "velocity": 114,
      "chip": "ym2612"
    },
    {
      "channel": 2,
      "note": 40,
      "start": 35.6109,
      "duration": 0.0122,
      "velocity": 114,
      "chip": "ym2612"
    },
    {
      "channel": 2,
      "note": 40,
      "start": 35.6231,
      "duration": 0.0155,
      "velocity": 114,
      "chip": "ym2612"
    },
    {
      "channel": 0,
      "note": 82,
      "start": 35.634,
      "duration": 0.0869,
      "velocity": 1,
      "chip": "ym2612"
    },
    {
      "channel": 1,
      "note": 53,
      "start": 35.6354,
      "duration": 0.187,
      "velocity": 81,
      "chip": "ym2612"
    },
    {
      "channel": 2,
      "note": 41,
      "start": 35.6518,
      "duration": 0.0747,
      "velocity": 122,
      "chip": "ym2612"
    },
    {
      "channel": 5,
      "note": 75,
      "start": 35.6729,
      "duration": 0.0996,
      "velocity": 1,
      "chip": "ym2612"
    },
    {
      "channel": 0,
      "note": 80,
      "start": 35.7214,
      "duration": 0.0995,
      "velocity": 1,
      "chip": "ym2612"
    },
    {
      "channel": 2,
      "note": 40,
      "start": 35.7298,
      "duration": 0.0057,
      "velocity": 114,
      "chip": "ym2612"
    },
    {
      "channel": 2,
      "note": 40,
      "start": 35.7355,
      "duration": 0.0125,
      "velocity": 114,
      "chip": "ym2612"
    },
    {
      "channel": 2,
      "note": 40,
      "start": 35.748,
      "duration": 0.0135,
      "velocity": 114,
      "chip": "ym2612"
    },
    {
      "channel": 2,
      "note": 40,
      "start": 35.7615,
      "duration": 0.0127,
      "velocity": 114,
      "chip": "ym2612"
    },
    {
      "channel": 5,
      "note": 82,
      "start": 35.773,
      "duration": 0.0869,
      "velocity": 1,
      "chip": "ym2612"
    },
    {
      "channel": 2,
      "note": 40,
      "start": 35.7743,
      "duration": 0.0113,
      "velocity": 114,
      "chip": "ym2612"
    },
    {
      "channel": 2,
      "note": 40,
      "start": 35.7855,
      "duration": 0.0125,
      "velocity": 114,
      "chip": "ym2612"
    },
    {
      "channel": 2,
      "note": 40,
      "start": 35.798,
      "duration": 0.0129,
      "velocity": 114,
      "chip": "ym2612"
    },
    {
      "channel": 2,
      "note": 40,
      "start": 35.8109,
      "duration": 0.015,
      "velocity": 114,
      "chip": "ym2612"
    },
    {
      "channel": 0,
      "note": 75,
      "start": 35.8214,
      "duration": 0.1871,
      "velocity": 1,
      "chip": "ym2612"
    },
    {
      "channel": 1,
      "note": 53,
      "start": 35.8228,
      "duration": 0.1871,
      "velocity": 81,
      "chip": "ym2612"
    },
    {
      "channel": 2,
      "note": 41,
      "start": 35.8393,
      "duration": 0.0742,
      "velocity": 122,
      "chip": "ym2612"
    },
    {
      "channel": 5,
      "note": 80,
      "start": 35.8604,
      "duration": 0.0995,
      "velocity": 1,
      "chip": "ym2612"
    },
    {
      "channel": 2,
      "note": 40,
      "start": 35.9162,
      "duration": 0.0068,
      "velocity": 114,
      "chip": "ym2612"
    },
    {
      "channel": 2,
      "note": 40,
      "start": 35.923,
      "duration": 0.0125,
      "velocity": 114,
      "chip": "ym2612"
    },
    {
      "channel": 2,
      "note": 40,
      "start": 35.9355,
      "duration": 0.0129,
      "velocity": 114,
      "chip": "ym2612"
    },
    {
      "channel": 2,
      "note": 40,
      "start": 35.9484,
      "duration": 0.0139,
      "velocity": 114,
      "chip": "ym2612"
    },
    {
      "channel": 5,
      "note": 75,
      "start": 35.9604,
      "duration": 0.1871,
      "velocity": 1,
      "chip": "ym2612"
    },
    {
      "channel": 2,
      "note": 40,
      "start": 35.9623,
      "duration": 0.0107,
      "velocity": 114,
      "chip": "ym2612"
    },
    {
      "channel": 2,
      "note": 40,
      "start": 35.973,
      "duration": 0.0125,
      "velocity": 114,
      "chip": "ym2612"
    },
    {
      "channel": 2,
      "note": 40,
      "start": 35.9855,
      "duration": 0.0125,
      "velocity": 114,
      "chip": "ym2612"
    },
    {
      "channel": 2,
      "note": 40,
      "start": 35.998,
      "duration": 0.0176,
      "velocity": 114,
      "chip": "ym2612"
    },
    {
      "channel": 0,
      "note": 82,
      "start": 36.009,
      "duration": 0.087,
      "velocity": 1,
      "chip": "ym2612"
    },
    {
      "channel": 1,
      "note": 53,
      "start": 36.0104,
      "duration": 0.2744,
      "velocity": 81,
      "chip": "ym2612"
    },
    {
      "channel": 2,
      "note": 41,
      "start": 36.0268,
      "duration": 0.0747,
      "velocity": 122,
      "chip": "ym2612"
    },
    {
      "channel": 0,
      "note": 79,
      "start": 36.0964,
      "duration": 0.0995,
      "velocity": 1,
      "chip": "ym2612"
    },
    {
      "channel": 2,
      "note": 40,
      "start": 36.1042,
      "duration": 0.0067,
      "velocity": 114,
      "chip": "ym2612"
    },
    {
      "channel": 2,
      "note": 40,
      "start": 36.1109,
      "duration": 0.0121,
      "velocity": 114,
      "chip": "ym2612"
    },
    {
      "channel": 2,
      "note": 40,
      "start": 36.123,
      "duration": 0.0129,
      "velocity": 114,
      "chip": "ym2612"
    },
    {
      "channel": 2,
      "note": 40,
      "start": 36.1359,
      "duration": 0.0134,
      "velocity": 114,
      "chip": "ym2612"
    },
    {
      "channel": 5,
      "note": 82,
      "start": 36.148,
      "duration": 0.0868,
      "velocity": 1,
      "chip": "ym2612"
    },
    {
      "channel": 2,
      "note": 40,
      "start": 36.1493,
      "duration": 0.0116,
      "velocity": 114,
      "chip": "ym2612"
    },
    {
      "channel": 2,
      "note": 40,
      "start": 36.1609,
      "duration": 0.0121,
      "velocity": 114,
      "chip": "ym2612"
    },
    {
      "channel": 2,
      "note": 40,
      "start": 36.173,
      "duration": 0.0125,
      "velocity": 114,
      "chip": "ym2612"
    },
    {
      "channel": 2,
      "note": 40,
      "start": 36.1855,
      "duration": 0.0143,
      "velocity": 114,
      "chip": "ym2612"
    },
    {
      "channel": 0,
      "note": 75,
      "start": 36.1964,
      "duration": 0.0869,
      "velocity": 1,
      "chip": "ym2612"
    },
    {
      "channel": 2,
      "note": 40,
      "start": 36.2121,
      "duration": 0.011,
      "velocity": 114,
      "chip": "ym2612"
    },
    {
      "channel": 2,
      "note": 40,
      "start": 36.2231,
      "duration": 0.0136,
      "velocity": 114,
      "chip": "ym2612"
    },
    {
      "channel": 5,
      "note": 79,
      "start": 36.2354,
      "duration": 0.0995,
      "velocity": 1,
      "chip": "ym2612"
    },
    {
      "channel": 2,
      "note": 40,
      "start": 36.2367,
      "duration": 0.0118,
      "velocity": 114,
      "chip": "ym2612"
    },
    {
      "channel": 2,
      "note": 40,
      "start": 36.2484,
      "duration": 0.0125,
      "velocity": 114,
      "chip": "ym2612"
    },
    {
      "channel": 2,
      "note": 40,
      "start": 36.2609,
      "duration": 0.0121,
      "velocity": 114,
      "chip": "ym2612"
    },
    {
      "channel": 2,
      "note": 40,
      "start": 36.273,
      "duration": 0.0154,
      "velocity": 114,
      "chip": "ym2612"
    },
    {
      "channel": 0,
      "note": 82,
      "start": 36.2839,
      "duration": 0.0996,
      "velocity": 1,
      "chip": "ym2612"
    },
    {
      "channel": 1,
      "note": 53,
      "start": 36.2853,
      "duration": 0.2871,
      "velocity": 81,
      "chip": "ym2612"
    },
    {
      "channel": 2,
      "note": 41,
      "start": 36.3018,
      "duration": 0.0872,
      "velocity": 122,
      "chip": "ym2612"
    },
    {
      "channel": 5,
      "note": 75,
      "start": 36.3354,
      "duration": 0.087,
      "velocity": 1,
      "chip": "ym2612"
    },
    {
      "channel": 0,
      "note": 79,
      "start": 36.384,
      "duration": 0.0869,
      "velocity": 1,
      "chip": "ym2612"
    },
    {
      "channel": 2,
      "note": 40,
      "start": 36.3918,
      "duration": 0.0063,
      "velocity": 114,
      "chip": "ym2612"
    },
    {
      "channel": 2,
      "note": 40,
      "start": 36.398,
      "duration": 0.0129,
      "velocity": 114,
      "chip": "ym2612"
    },
    {
      "channel": 2,
      "note": 40,
      "start": 36.4109,
      "duration": 0.0136,
      "velocity": 114,
      "chip": "ym2612"
    },
    {
      "channel": 5,
      "note": 82,
      "start": 36.4229,
      "duration": 0.0996,
      "velocity": 1,
      "chip": "ym2612"
    },
    {
      "channel": 2,
      "note": 40,
      "start": 36.4245,
      "duration": 0.011,
      "velocity": 114,
      "chip": "ym2612"
    },
    {
      "channel": 2,
      "note": 40,
      "start": 36.4355,
      "duration": 0.0125,
      "velocity": 114,
      "chip": "ym2612"
    },
    {
      "channel": 2,
      "note": 40,
      "start": 36.448,
      "duration": 0.0129,
      "velocity": 114,
      "chip": "ym2612"
    },
    {
      "channel": 2,
      "note": 40,
      "start": 36.4609,
      "duration": 0.0139,
      "velocity": 114,
      "chip": "ym2612"
    },
    {
      "channel": 0,
      "note": 75,
      "start": 36.4714,
      "duration": 0.0995,
      "velocity": 1,
      "chip": "ym2612"
    },
    {
      "channel": 2,
      "note": 40,
      "start": 36.4865,
      "duration": 0.0116,
      "velocity": 114,
      "chip": "ym2612"
    },
    {
      "channel": 2,
      "note": 40,
      "start": 36.498,
      "duration": 0.0129,
      "velocity": 114,
      "chip": "ym2612"
    },
    {
      "channel": 2,
      "note": 40,
      "start": 36.5109,
      "duration": 0.0137,
      "velocity": 114,
      "chip": "ym2612"
    },
    {
      "channel": 5,
      "note": 79,
      "start": 36.523,
      "duration": 0.0869,
      "velocity": 1,
      "chip": "ym2612"
    },
    {
      "channel": 2,
      "note": 40,
      "start": 36.5246,
      "duration": 0.0109,
      "velocity": 114,
      "chip": "ym2612"
    },
    {
      "channel": 2,
      "note": 40,
      "start": 36.5355,
      "duration": 0.0125,
      "velocity": 114,
      "chip": "ym2612"
    },
    {
      "channel": 2,
      "note": 40,
      "start": 36.548,
      "duration": 0.0129,
      "velocity": 114,
      "chip": "ym2612"
    },
    {
      "channel": 2,
      "note": 40,
      "start": 36.5609,
      "duration": 0.015,
      "velocity": 114,
      "chip": "ym2612"
    },
    {
      "channel": 0,
      "note": 82,
      "start": 36.5714,
      "duration": 0.087,
      "velocity": 1,
      "chip": "ym2612"
    },
    {
      "channel": 1,
      "note": 53,
      "start": 36.5728,
      "duration": 0.2746,
      "velocity": 81,
      "chip": "ym2612"
    },
    {
      "channel": 2,
      "note": 41,
      "start": 36.5893,
      "duration": 0.0753,
      "velocity": 122,
      "chip": "ym2612"
    },
    {
      "channel": 5,
      "note": 75,
      "start": 36.6104,
      "duration": 0.0995,
      "velocity": 1,
      "chip": "ym2612"
    },
    {
      "channel": 0,
      "note": 79,
      "start": 36.6589,
      "duration": 0.0996,
      "velocity": 1,
      "chip": "ym2612"
    },
    {
      "channel": 2,
      "note": 40,
      "start": 36.6673,
      "duration": 0.0057,
      "velocity": 114,
      "chip": "ym2612"
    },
    {
      "channel": 2,
      "note": 40,
      "start": 36.673,
      "duration": 0.0125,
      "velocity": 114,
      "chip": "ym2612"
    },
    {
      "channel": 2,
      "note": 40,
      "start": 36.6855,
      "duration": 0.0129,
      "velocity": 114,
      "chip": "ym2612"
    },
    {
      "channel": 2,
      "note": 40,
      "start": 36.6984,
      "duration": 0.0139,
      "velocity": 114,
      "chip": "ym2612"
    },
    {
      "channel": 5,
      "note": 82,
      "start": 36.7104,
      "duration": 0.087,
      "velocity": 1,
      "chip": "ym2612"
    },
    {
      "channel": 2,
      "note": 40,
      "start": 36.7123,
      "duration": 0.0107,
      "velocity": 114,
      "chip": "ym2612"
    },
    {
      "channel": 2,
      "note": 40,
      "start": 36.723,
      "duration": 0.0125,
      "velocity": 114,
      "chip": "ym2612"
    },
    {
      "channel": 2,
      "note": 40,
      "start": 36.7355,
      "duration": 0.0125,
      "velocity": 114,
      "chip": "ym2612"
    },
    {
      "channel": 2,
      "note": 40,
      "start": 36.748,
      "duration": 0.015,
      "velocity": 114,
      "chip": "ym2612"
    },
    {
      "channel": 0,
      "note": 75,
      "start": 36.759,
      "duration": 0.087,
      "velocity": 1,
      "chip": "ym2612"
    },
    {
      "channel": 2,
      "note": 40,
      "start": 36.774,
      "duration": 0.0115,
      "velocity": 114,
      "chip": "ym2612"
    },
    {
      "channel": 2,
      "note": 40,
      "start": 36.7855,
      "duration": 0.0137,
      "velocity": 114,
      "chip": "ym2612"
    },
    {
      "channel": 5,
      "note": 79,
      "start": 36.7979,
      "duration": 0.0996,
      "velocity": 1,
      "chip": "ym2612"
    },
    {
      "channel": 2,
      "note": 40,
      "start": 36.7992,
      "duration": 0.0123,
      "velocity": 114,
      "chip": "ym2612"
    },
    {
      "channel": 2,
      "note": 40,
      "start": 36.8115,
      "duration": 0.0115,
      "velocity": 114,
      "chip": "ym2612"
    },
    {
      "channel": 2,
      "note": 40,
      "start": 36.823,
      "duration": 0.0125,
      "velocity": 114,
      "chip": "ym2612"
    },
    {
      "channel": 2,
      "note": 40,
      "start": 36.8355,
      "duration": 0.0155,
      "velocity": 114,
      "chip": "ym2612"
    },
    {
      "channel": 0,
      "note": 82,
      "start": 36.8464,
      "duration": 0.0995,
      "velocity": 1,
      "chip": "ym2612"
    },
    {
      "channel": 1,
      "note": 53,
      "start": 36.8479,
      "duration": 0.2871,
      "velocity": 81,
      "chip": "ym2612"
    },
    {
      "channel": 2,
      "note": 41,
      "start": 36.8649,
      "duration": 0.0866,
      "velocity": 122,
      "chip": "ym2612"
    },
    {
      "channel": 5,
      "note": 75,
      "start": 36.898,
      "duration": 0.0869,
      "velocity": 1,
      "chip": "ym2612"
    },
    {
      "channel": 0,
      "note": 79,
      "start": 36.9464,
      "duration": 0.0869,
      "velocity": 1,
      "chip": "ym2612"
    },
    {
      "channel": 2,
      "note": 40,
      "start": 36.9542,
      "duration": 0.0067,
      "velocity": 114,
      "chip": "ym2612"
    },
    {
      "channel": 2,
      "note": 40,
      "start": 36.9609,
      "duration": 0.0122,
      "velocity": 114,
      "chip": "ym2612"
    },
    {
      "channel": 2,
      "note": 40,
      "start": 36.9731,
      "duration": 0.014,
      "velocity": 114,
      "chip": "ym2612"
    },
    {
      "channel": 5,
      "note": 82,
      "start": 36.9854,
      "duration": 0.0995,
      "velocity": 1,
      "chip": "ym2612"
    },
    {
      "channel": 2,
      "note": 40,
      "start": 36.9871,
      "duration": 0.011,
      "velocity": 114,
      "chip": "ym2612"
    },
    {
      "channel": 2,
      "note": 40,
      "start": 36.998,
      "duration": 0.0129,
      "velocity": 114,
      "chip": "ym2612"
    },
    {
      "channel": 2,
      "note": 40,
      "start": 37.0109,
      "duration": 0.0122,
      "velocity": 114,
      "chip": "ym2612"
    },
    {
      "channel": 2,
      "note": 40,
      "start": 37.0231,
      "duration": 0.0142,
      "velocity": 114,
      "chip": "ym2612"
    },
    {
      "channel": 0,
      "note": 75,
      "start": 37.0339,
      "duration": 0.0996,
      "velocity": 1,
      "chip": "ym2612"
    },
    {
      "channel": 2,
      "note": 40,
      "start": 37.049,
      "duration": 0.0119,
      "velocity": 114,
      "chip": "ym2612"
    },
    {
      "channel": 2,
      "note": 40,
      "start": 37.0609,
      "duration": 0.0121,
      "velocity": 114,
      "chip": "ym2612"
    },
    {
      "channel": 2,
      "note": 40,
      "start": 37.073,
      "duration": 0.0141,
      "velocity": 114,
      "chip": "ym2612"
    },
    {
      "channel": 5,
      "note": 79,
      "start": 37.0854,
      "duration": 0.087,
      "velocity": 1,
      "chip": "ym2612"
    },
    {
      "channel": 2,
      "note": 40,
      "start": 37.0871,
      "duration": 0.011,
      "velocity": 114,
      "chip": "ym2612"
    },
    {
      "channel": 2,
      "note": 40,
      "start": 37.098,
      "duration": 0.0129,
      "velocity": 114,
      "chip": "ym2612"
    },
    {
      "channel": 2,
      "note": 40,
      "start": 37.1109,
      "duration": 0.0121,
      "velocity": 114,
      "chip": "ym2612"
    },
    {
      "channel": 2,
      "note": 40,
      "start": 37.123,
      "duration": 0.0155,
      "velocity": 114,
      "chip": "ym2612"
    },
    {
      "channel": 0,
      "note": 82,
      "start": 37.134,
      "duration": 0.0869,
      "velocity": 1,
      "chip": "ym2612"
    },
    {
      "channel": 1,
      "note": 53,
      "start": 37.1354,
      "duration": 0.187,
      "velocity": 81,
      "chip": "ym2612"
    },
    {
      "channel": 2,
      "note": 41,
      "start": 37.1518,
      "duration": 0.0746,
      "velocity": 122,
      "chip": "ym2612"
    },
    {
      "channel": 5,
      "note": 75,
      "start": 37.1729,
      "duration": 0.0996,
      "velocity": 1,
      "chip": "ym2612"
    },
    {
      "channel": 0,
      "note": 79,
      "start": 37.2213,
      "duration": 0.0996,
      "velocity": 1,
      "chip": "ym2612"
    },
    {
      "channel": 2,
      "note": 40,
      "start": 37.2298,
      "duration": 0.0057,
      "velocity": 114,
      "chip": "ym2612"
    },
    {
      "channel": 2,
      "note": 40,
      "start": 37.2355,
      "duration": 0.0125,
      "velocity": 114,
      "chip": "ym2612"
    },
    {
      "channel": 2,
      "note": 40,
      "start": 37.248,
      "duration": 0.0135,
      "velocity": 114,
      "chip": "ym2612"
    },
    {
      "channel": 2,
      "note": 40,
      "start": 37.2615,
      "duration": 0.0127,
      "velocity": 114,
      "chip": "ym2612"
    },
    {
      "channel": 5,
      "note": 82,
      "start": 37.273,
      "duration": 0.0869,
      "velocity": 1,
      "chip": "ym2612"
    },
    {
      "channel": 2,
      "note": 40,
      "start": 37.2743,
      "duration": 0.0113,
      "velocity": 114,
      "chip": "ym2612"
    },
    {
      "channel": 2,
      "note": 40,
      "start": 37.2855,
      "duration": 0.0125,
      "velocity": 114,
      "chip": "ym2612"
    },
    {
      "channel": 2,
      "note": 40,
      "start": 37.298,
      "duration": 0.0129,
      "velocity": 114,
      "chip": "ym2612"
    },
    {
      "channel": 2,
      "note": 40,
      "start": 37.3109,
      "duration": 0.015,
      "velocity": 114,
      "chip": "ym2612"
    },
    {
      "channel": 0,
      "note": 75,
      "start": 37.3214,
      "duration": 0.1885,
      "velocity": 1,
      "chip": "ym2612"
    },
    {
      "channel": 1,
      "note": 53,
      "start": 37.3229,
      "duration": 0.1914,
      "velocity": 81,
      "chip": "ym2612"
    },
    {
      "channel": 2,
      "note": 41,
      "start": 37.3393,
      "duration": 0.0742,
      "velocity": 122,
      "chip": "ym2612"
    },
    {
      "channel": 5,
      "note": 79,
      "start": 37.3604,
      "duration": 0.0995,
      "velocity": 1,
      "chip": "ym2612"
    },
    {
      "channel": 2,
      "note": 40,
      "start": 37.4162,
      "duration": 0.0068,
      "velocity": 114,
      "chip": "ym2612"
    },
    {
      "channel": 2,
      "note": 40,
      "start": 37.423,
      "duration": 0.0125,
      "velocity": 114,
      "chip": "ym2612"
    },
    {
      "channel": 2,
      "note": 40,
      "start": 37.4355,
      "duration": 0.0129,
      "velocity": 114,
      "chip": "ym2612"
    },
    {
      "channel": 2,
      "note": 40,
      "start": 37.4484,
      "duration": 0.0139,
      "velocity": 114,
      "chip": "ym2612"
    },
    {
      "channel": 5,
      "note": 75,
      "start": 37.4604,
      "duration": 0.189,
      "velocity": 1,
      "chip": "ym2612"
    },
    {
      "channel": 2,
      "note": 40,
      "start": 37.4623,
      "duration": 0.0107,
      "velocity": 114,
      "chip": "ym2612"
    },
    {
      "channel": 2,
      "note": 40,
      "start": 37.473,
      "duration": 0.0125,
      "velocity": 114,
      "chip": "ym2612"
    },
    {
      "channel": 2,
      "note": 40,
      "start": 37.4855,
      "duration": 0.0125,
      "velocity": 114,
      "chip": "ym2612"
    },
    {
      "channel": 2,
      "note": 40,
      "start": 37.498,
      "duration": 0.022,
      "velocity": 114,
      "chip": "ym2612"
    },
    {
      "channel": 0,
      "note": 89,
      "start": 37.5132,
      "duration": 0.3706,
      "velocity": 95,
      "chip": "ym2612"
    },
    {
      "channel": 1,
      "note": 53,
      "start": 37.5148,
      "duration": 0.1817,
      "velocity": 81,
      "chip": "ym2612"
    },
    {
      "channel": 4,
      "note": 65,
      "start": 37.5186,
      "duration": 0.079,
      "velocity": 74,
      "chip": "ym2612"
    },
    {
      "channel": 2,
      "note": 40,
      "start": 37.5246,
      "duration": 0.0115,
      "velocity": 114,
      "chip": "ym2612"
    },
    {
      "channel": 2,
      "note": 40,
      "start": 37.5361,
      "duration": 0.0125,
      "velocity": 114,
      "chip": "ym2612"
    },
    {
      "channel": 2,
      "note": 40,
      "start": 37.5486,
      "duration": 0.0135,
      "velocity": 114,
      "chip": "ym2612"
    },
    {
      "channel": 2,
      "note": 40,
      "start": 37.5621,
      "duration": 0.0115,
      "velocity": 114,
      "chip": "ym2612"
    },
    {
      "channel": 2,
      "note": 40,
      "start": 37.5736,
      "duration": 0.0125,
      "velocity": 114,
      "chip": "ym2612"
    },
    {
      "channel": 2,
      "note": 40,
      "start": 37.586,
      "duration": 0.0136,
      "velocity": 114,
      "chip": "ym2612"
    },
    {
      "channel": 4,
      "note": 75,
      "start": 37.598,
      "duration": 0.1013,
      "velocity": 74,
      "chip": "ym2612"
    },
    {
      "channel": 2,
      "note": 40,
      "start": 37.5997,
      "duration": 0.012,
      "velocity": 114,
      "chip": "ym2612"
    },
    {
      "channel": 2,
      "note": 40,
      "start": 37.6116,
      "duration": 0.0119,
      "velocity": 114,
      "chip": "ym2612"
    },
    {
      "channel": 2,
      "note": 40,
      "start": 37.6235,
      "duration": 0.0124,
      "velocity": 114,
      "chip": "ym2612"
    },
    {
      "channel": 2,
      "note": 40,
      "start": 37.636,
      "duration": 0.0173,
      "velocity": 114,
      "chip": "ym2612"
    },
    {
      "channel": 5,
      "note": 89,
      "start": 37.652,
      "duration": 0.3716,
      "velocity": 95,
      "chip": "ym2612"
    },
    {
      "channel": 2,
      "note": 39,
      "start": 37.6533,
      "duration": 0.0083,
      "velocity": 114,
      "chip": "ym2612"
    },
    {
      "channel": 2,
      "note": 39,
      "start": 37.6615,
      "duration": 0.0119,
      "velocity": 114,
      "chip": "ym2612"
    },
    {
      "channel": 2,
      "note": 39,
      "start": 37.6734,
      "duration": 0.0124,
      "velocity": 114,
      "chip": "ym2612"
    },
    {
      "channel": 1,
      "note": 53,
      "start": 37.6971,
      "duration": 0.1877,
      "velocity": 81,
      "chip": "ym2612"
    },
    {
      "channel": 4,
      "note": 77,
      "start": 37.6999,
      "duration": 0.085,
      "velocity": 74,
      "chip": "ym2612"
    },
    {
      "channel": 2,
      "note": 40,
      "start": 37.7028,
      "duration": 0.0086,
      "velocity": 114,
      "chip": "ym2612"
    },
    {
      "channel": 2,
      "note": 40,
      "start": 37.7115,
      "duration": 0.0119,
      "velocity": 114,
      "chip": "ym2612"
    },
    {
      "channel": 2,
      "note": 40,
      "start": 37.7234,
      "duration": 0.0129,
      "velocity": 114,
      "chip": "ym2612"
    },
    {
      "channel": 2,
      "note": 40,
      "start": 37.7362,
      "duration": 0.0121,
      "velocity": 114,
      "chip": "ym2612"
    },
    {
      "channel": 2,
      "note": 40,
      "start": 37.7483,
      "duration": 0.0128,
      "velocity": 114,
      "chip": "ym2612"
    },
    {
      "channel": 2,
      "note": 40,
      "start": 37.7612,
      "duration": 0.0122,
      "velocity": 114,
      "chip": "ym2612"
    },
    {
      "channel": 2,
      "note": 40,
      "start": 37.7733,
      "duration": 0.0136,
      "velocity": 114,
      "chip": "ym2612"
    },
    {
      "channel": 4,
      "note": 65,
      "start": 37.7853,
      "duration": 0.1022,
      "velocity": 74,
      "chip": "ym2612"
    },
    {
      "channel": 2,
      "note": 40,
      "start": 37.7869,
      "duration": 0.0113,
      "velocity": 114,
      "chip": "ym2612"
    },
    {
      "channel": 2,
      "note": 40,
      "start": 37.7983,
      "duration": 0.0129,
      "velocity": 114,
      "chip": "ym2612"
    },
    {
      "channel": 2,
      "note": 40,
      "start": 37.8111,
      "duration": 0.0121,
      "velocity": 114,
      "chip": "ym2612"
    },
    {
      "channel": 2,
      "note": 39,
      "start": 37.8232,
      "duration": 0.0125,
      "velocity": 114,
      "chip": "ym2612"
    },
    {
      "channel": 2,
      "note": 39,
      "start": 37.8357,
      "duration": 0.0125,
      "velocity": 114,
      "chip": "ym2612"
    },
    {
      "channel": 2,
      "note": 39,
      "start": 37.8482,
      "duration": 0.0128,
      "velocity": 114,
      "chip": "ym2612"
    },
    {
      "channel": 0,
      "note": 89,
      "start": 37.8838,
      "duration": 0.0125,
      "velocity": 95,
      "chip": "ym2612"
    },
    {
      "channel": 1,
      "note": 53,
      "start": 37.8852,
      "duration": 0.1869,
      "velocity": 81,
      "chip": "ym2612"
    },
    {
      "channel": 4,
      "note": 72,
      "start": 37.8881,
      "duration": 0.0858,
      "velocity": 74,
      "chip": "ym2612"
    },
    {
      "channel": 2,
      "note": 41,
      "start": 37.8938,
      "duration": 0.084,
      "velocity": 122,
      "chip": "ym2612"
    },
    {
      "channel": 0,
      "note": 89,
      "start": 37.8963,
      "duration": 0.0125,
      "velocity": 95,
      "chip": "ym2612"
    },
    {
      "channel": 0,
      "note": 89,
      "start": 37.9088,
      "duration": 0.0125,
      "velocity": 95,
      "chip": "ym2612"
    },
    {
      "channel": 0,
      "note": 89,
      "start": 37.9213,
      "duration": 0.0125,
      "velocity": 95,
      "chip": "ym2612"
    },
    {
      "channel": 0,
      "note": 89,
      "start": 37.9337,
      "duration": 0.0125,
      "velocity": 95,
      "chip": "ym2612"
    },
    {
      "channel": 0,
      "note": 89,
      "start": 37.9462,
      "duration": 0.0125,
      "velocity": 95,
      "chip": "ym2612"
    },
    {
      "channel": 0,
      "note": 89,
      "start": 37.9588,
      "duration": 0.0125,
      "velocity": 95,
      "chip": "ym2612"
    },
    {
      "channel": 0,
      "note": 89,
      "start": 37.9712,
      "duration": 0.0124,
      "velocity": 95,
      "chip": "ym2612"
    },
    {
      "channel": 4,
      "note": 75,
      "start": 37.9743,
      "duration": 0.0998,
      "velocity": 74,
      "chip": "ym2612"
    },
    {
      "channel": 2,
      "note": 40,
      "start": 37.9807,
      "duration": 0.0057,
      "velocity": 114,
      "chip": "ym2612"
    },
    {
      "channel": 0,
      "note": 89,
      "start": 37.9837,
      "duration": 0.0125,
      "velocity": 95,
      "chip": "ym2612"
    },
    {
      "channel": 2,
      "note": 40,
      "start": 37.9864,
      "duration": 0.0125,
      "velocity": 114,
      "chip": "ym2612"
    },
    {
      "channel": 0,
      "note": 89,
      "start": 37.9962,
      "duration": 0.0125,
      "velocity": 95,
      "chip": "ym2612"
    },
    {
      "channel": 2,
      "note": 40,
      "start": 37.999,
      "duration": 0.0135,
      "velocity": 114,
      "chip": "ym2612"
    },
    {
      "channel": 0,
      "note": 89,
      "start": 38.0087,
      "duration": 0.0125,
      "velocity": 95,
      "chip": "ym2612"
    },
    {
      "channel": 2,
      "note": 40,
      "start": 38.0124,
      "duration": 0.0124,
      "velocity": 114,
      "chip": "ym2612"
    },
    {
      "channel": 0,
      "note": 89,
      "start": 38.0212,
      "duration": 0.0125,
      "velocity": 95,
      "chip": "ym2612"
    },
    {
      "channel": 5,
      "note": 89,
      "start": 38.0236,
      "duration": 0.0125,
      "velocity": 95,
      "chip": "ym2612"
    },
    {
      "channel": 2,
      "note": 40,
      "start": 38.0249,
      "duration": 0.0124,
      "velocity": 114,
      "chip": "ym2612"
    },
    {
      "channel": 0,
      "note": 89,
      "start": 38.0336,
      "duration": 0.0126,
      "velocity": 95,
      "chip": "ym2612"
    },
    {
      "channel": 5,
      "note": 89,
      "start": 38.036,
      "duration": 0.0125,
      "velocity": 95,
      "chip": "ym2612"
    },
    {
      "channel": 2,
      "note": 40,
      "start": 38.0373,
      "duration": 0.0125,
      "velocity": 114,
      "chip": "ym2612"
    },
    {
      "channel": 0,
      "note": 89,
      "start": 38.0462,
      "duration": 0.0125,
      "velocity": 95,
      "chip": "ym2612"
    },
    {
      "channel": 5,
      "note": 89,
      "start": 38.0486,
      "duration": 0.0131,
      "velocity": 95,
      "chip": "ym2612"
    },
    {
      "channel": 2,
      "note": 40,
      "start": 38.0498,
      "duration": 0.0131,
      "velocity": 114,
      "chip": "ym2612"
    },
    {
      "channel": 0,
      "note": 89,
      "start": 38.0587,
      "duration": 0.0125,
      "velocity": 95,
      "chip": "ym2612"
    },
    {
      "channel": 5,
      "note": 89,
      "start": 38.0617,
      "duration": 0.0142,
      "velocity": 95,
      "chip": "ym2612"
    },
    {
      "channel": 2,
      "note": 40,
      "start": 38.0629,
      "duration": 0.0142,
      "velocity": 114,
      "chip": "ym2612"
    },
    {
      "channel": 0,
      "note": 89,
      "start": 38.0712,
      "duration": 0.0125,
      "velocity": 95,
      "chip": "ym2612"
    },
    {
      "channel": 1,
      "note": 53,
      "start": 38.0726,
      "duration": 0.187,
      "velocity": 81,
      "chip": "ym2612"
    },
    {
      "channel": 4,
      "note": 65,
      "start": 38.0746,
      "duration": 0.0862,
      "velocity": 74,
      "chip": "ym2612"
    },
    {
      "channel": 5,
      "note": 89,
      "start": 38.0759,
      "duration": 0.0102,
      "velocity": 95,
      "chip": "ym2612"
    },
    {
      "channel": 2,
      "note": 40,
      "start": 38.0771,
      "duration": 0.0102,
      "velocity": 114,
      "chip": "ym2612"
    },
    {
      "channel": 0,
      "note": 89,
      "start": 38.0837,
      "duration": 0.0125,
      "velocity": 95,
      "chip": "ym2612"
    },
    {
      "channel": 5,
      "note": 89,
      "start": 38.086,
      "duration": 0.0125,
      "velocity": 95,
      "chip": "ym2612"
    },
    {
      "channel": 2,
      "note": 40,
      "start": 38.0873,
      "duration": 0.0125,
      "velocity": 114,
      "chip": "ym2612"
    },
    {
      "channel": 0,
      "note": 89,
      "start": 38.0962,
      "duration": 0.0125,
      "velocity": 95,
      "chip": "ym2612"
    },
    {
      "channel": 5,
      "note": 89,
      "start": 38.0986,
      "duration": 0.0131,
      "velocity": 95,
      "chip": "ym2612"
    },
    {
      "channel": 2,
      "note": 39,
      "start": 38.0998,
      "duration": 0.0131,
      "velocity": 114,
      "chip": "ym2612"
    },
    {
      "channel": 0,
      "note": 89,
      "start": 38.1087,
      "duration": 0.0125,
      "velocity": 95,
      "chip": "ym2612"
    },
    {
      "channel": 5,
      "note": 89,
      "start": 38.1117,
      "duration": 0.0119,
      "velocity": 95,
      "chip": "ym2612"
    },
    {
      "channel": 2,
      "note": 39,
      "start": 38.1129,
      "duration": 0.0119,
      "velocity": 114,
      "chip": "ym2612"
    },
    {
      "channel": 0,
      "note": 89,
      "start": 38.1212,
      "duration": 0.0125,
      "velocity": 95,
      "chip": "ym2612"
    },
    {
      "channel": 5,
      "note": 89,
      "start": 38.1236,
      "duration": 0.0125,
      "velocity": 95,
      "chip": "ym2612"
    },
    {
      "channel": 2,
      "note": 39,
      "start": 38.1249,
      "duration": 0.0124,
      "velocity": 114,
      "chip": "ym2612"
    },
    {
      "channel": 0,
      "note": 89,
      "start": 38.1336,
      "duration": 0.0126,
      "velocity": 95,
      "chip": "ym2612"
    },
    {
      "channel": 5,
      "note": 89,
      "start": 38.136,
      "duration": 0.0125,
      "velocity": 95,
      "chip": "ym2612"
    },
    {
      "channel": 0,
      "note": 89,
      "start": 38.1462,
      "duration": 0.0125,
      "velocity": 95,
      "chip": "ym2612"
    },
    {
      "channel": 5,
      "note": 89,
      "start": 38.1486,
      "duration": 0.0142,
      "velocity": 95,
      "chip": "ym2612"
    },
    {
      "channel": 0,
      "note": 89,
      "start": 38.1587,
      "duration": 0.0125,
      "velocity": 95,
      "chip": "ym2612"
    },
    {
      "channel": 4,
      "note": 70,
      "start": 38.1616,
      "duration": 0.1015,
      "velocity": 74,
      "chip": "ym2612"
    },
    {
      "channel": 5,
      "note": 89,
      "start": 38.1628,
      "duration": 0.0107,
      "velocity": 95,
      "chip": "ym2612"
    },
    {
      "channel": 0,
      "note": 89,
      "start": 38.1712,
      "duration": 0.0125,
      "velocity": 95,
      "chip": "ym2612"
    },
    {
      "channel": 5,
      "note": 89,
      "start": 38.1736,
      "duration": 0.0125,
      "velocity": 95,
      "chip": "ym2612"
    },
    {
      "channel": 0,
      "note": 89,
      "start": 38.1836,
      "duration": 0.0126,
      "velocity": 95,
      "chip": "ym2612"
    },
    {
      "channel": 5,
      "note": 89,
      "start": 38.186,
      "duration": 0.0126,
      "velocity": 95,
      "chip": "ym2612"
    },
    {
      "channel": 0,
      "note": 89,
      "start": 38.1962,
      "duration": 0.0125,
      "velocity": 95,
      "chip": "ym2612"
    },
    {
      "channel": 5,
      "note": 89,
      "start": 38.1986,
      "duration": 0.013,
      "velocity": 95,
      "chip": "ym2612"
    },
    {
      "channel": 0,
      "note": 89,
      "start": 38.2087,
      "duration": 0.0125,
      "velocity": 95,
      "chip": "ym2612"
    },
    {
      "channel": 5,
      "note": 89,
      "start": 38.2117,
      "duration": 0.0119,
      "velocity": 95,
      "chip": "ym2612"
    },
    {
      "channel": 0,
      "note": 89,
      "start": 38.2212,
      "duration": 0.0125,
      "velocity": 95,
      "chip": "ym2612"
    },
    {
      "channel": 5,
      "note": 89,
      "start": 38.2236,
      "duration": 0.0125,
      "velocity": 95,
      "chip": "ym2612"
    },
    {
      "channel": 0,
      "note": 89,
      "start": 38.2336,
      "duration": 0.0126,
      "velocity": 95,
      "chip": "ym2612"
    },
    {
      "channel": 5,
      "note": 89,
      "start": 38.236,
      "duration": 0.0125,
      "velocity": 95,
      "chip": "ym2612"
    },
    {
      "channel": 0,
      "note": 89,
      "start": 38.2462,
      "duration": 0.0125,
      "velocity": 95,
      "chip": "ym2612"
    },
    {
      "channel": 5,
      "note": 89,
      "start": 38.2486,
      "duration": 0.0161,
      "velocity": 95,
      "chip": "ym2612"
    },
    {
      "channel": 0,
      "note": 89,
      "start": 38.2587,
      "duration": 0.0125,
      "velocity": 95,
      "chip": "ym2612"
    },
    {
      "channel": 1,
      "note": 53,
      "start": 38.2601,
      "duration": 0.1871,
      "velocity": 81,
      "chip": "ym2612"
    },
    {
      "channel": 4,
      "note": 72,
      "start": 38.2635,
      "duration": 0.0845,
      "velocity": 74,
      "chip": "ym2612"
    },
    {
      "channel": 5,
      "note": 89,
      "start": 38.2647,
      "duration": 0.0088,
      "velocity": 95,
      "chip": "ym2612"
    },
    {
      "channel": 2,
      "note": 40,
      "start": 38.2674,
      "duration": 0.0075,
      "velocity": 114,
      "chip": "ym2612"
    },
    {
      "channel": 0,
      "note": 89,
      "start": 38.2712,
      "duration": 0.0125,
      "velocity": 95,
      "chip": "ym2612"
    },
    {
      "channel": 5,
      "note": 89,
      "start": 38.2736,
      "duration": 0.0125,
      "velocity": 95,
      "chip": "ym2612"
    },
    {
      "channel": 2,
      "note": 40,
      "start": 38.2749,
      "duration": 0.0124,
      "velocity": 114,
      "chip": "ym2612"
    },
    {
      "channel": 0,
      "note": 89,
      "start": 38.2836,
      "duration": 0.0126,
      "velocity": 95,
      "chip": "ym2612"
    },
    {
      "channel": 5,
      "note": 89,
      "start": 38.286,
      "duration": 0.0125,
      "velocity": 95,
      "chip": "ym2612"
    },
    {
      "channel": 2,
      "note": 40,
      "start": 38.2873,
      "duration": 0.0129,
      "velocity": 114,
      "chip": "ym2612"
    },
    {
      "channel": 0,
      "note": 89,
      "start": 38.2962,
      "duration": 0.0125,
      "velocity": 95,
      "chip": "ym2612"
    },
    {
      "channel": 5,
      "note": 89,
      "start": 38.2986,
      "duration": 0.0131,
      "velocity": 95,
      "chip": "ym2612"
    },
    {
      "channel": 2,
      "note": 40,
      "start": 38.3002,
      "duration": 0.0127,
      "velocity": 114,
      "chip": "ym2612"
    },
    {
      "channel": 0,
      "note": 89,
      "start": 38.3087,
      "duration": 0.0125,
      "velocity": 95,
      "chip": "ym2612"
    },
    {
      "channel": 5,
      "note": 89,
      "start": 38.3117,
      "duration": 0.0119,
      "velocity": 95,
      "chip": "ym2612"
    },
    {
      "channel": 2,
      "note": 40,
      "start": 38.3129,
      "duration": 0.0119,
      "velocity": 114,
      "chip": "ym2612"
    },
    {
      "channel": 0,
      "note": 89,
      "start": 38.3212,
      "duration": 0.0125,
      "velocity": 95,
      "chip": "ym2612"
    },
    {
      "channel": 5,
      "note": 89,
      "start": 38.3236,
      "duration": 0.0125,
      "velocity": 95,
      "chip": "ym2612"
    },
    {
      "channel": 2,
      "note": 40,
      "start": 38.3249,
      "duration": 0.0124,
      "velocity": 114,
      "chip": "ym2612"
    },
    {
      "channel": 0,
      "note": 89,
      "start": 38.3336,
      "duration": 0.0126,
      "velocity": 95,
      "chip": "ym2612"
    },
    {
      "channel": 5,
      "note": 89,
      "start": 38.336,
      "duration": 0.0137,
      "velocity": 95,
      "chip": "ym2612"
    },
    {
      "channel": 2,
      "note": 40,
      "start": 38.3373,
      "duration": 0.0137,
      "velocity": 114,
      "chip": "ym2612"
    },
    {
      "channel": 0,
      "note": 89,
      "start": 38.3462,
      "duration": 0.0125,
      "velocity": 95,
      "chip": "ym2612"
    },
    {
      "channel": 4,
      "note": 65,
      "start": 38.3485,
      "duration": 0.1015,
      "velocity": 74,
      "chip": "ym2612"
    },
    {
      "channel": 5,
      "note": 89,
      "start": 38.3497,
      "duration": 0.012,
      "velocity": 95,
      "chip": "ym2612"
    },
    {
      "channel": 2,
      "note": 40,
      "start": 38.351,
      "duration": 0.012,
      "velocity": 114,
      "chip": "ym2612"
    },
    {
      "channel": 0,
      "note": 89,
      "start": 38.3587,
      "duration": 0.0125,
      "velocity": 95,
      "chip": "ym2612"
    },
    {
      "channel": 5,
      "note": 89,
      "start": 38.3617,
      "duration": 0.0119,
      "velocity": 95,
      "chip": "ym2612"
    },
    {
      "channel": 2,
      "note": 40,
      "start": 38.3629,
      "duration": 0.0119,
      "velocity": 114,
      "chip": "ym2612"
    },
    {
      "channel": 0,
      "note": 89,
      "start": 38.3712,
      "duration": 0.0125,
      "velocity": 95,
      "chip": "ym2612"
    },
    {
      "channel": 5,
      "note": 89,
      "start": 38.3736,
      "duration": 0.0125,
      "velocity": 95,
      "chip": "ym2612"
    },
    {
      "channel": 2,
      "note": 40,
      "start": 38.3749,
      "duration": 0.0124,
      "velocity": 114,
      "chip": "ym2612"
    },
    {
      "channel": 0,
      "note": 89,
      "start": 38.3836,
      "duration": 0.0126,
      "velocity": 95,
      "chip": "ym2612"
    },
    {
      "channel": 5,
      "note": 89,
      "start": 38.386,
      "duration": 0.0125,
      "velocity": 95,
      "chip": "ym2612"
    },
    {
      "channel": 2,
      "note": 39,
      "start": 38.3873,
      "duration": 0.0125,
      "velocity": 114,
      "chip": "ym2612"
    },
    {
      "channel": 0,
      "note": 89,
      "start": 38.3962,
      "duration": 0.0125,
      "velocity": 95,
      "chip": "ym2612"
    },
    {
      "channel": 5,
      "note": 89,
      "start": 38.3986,
      "duration": 0.0131,
      "velocity": 95,
      "chip": "ym2612"
    },
    {
      "channel": 2,
      "note": 39,
      "start": 38.3998,
      "duration": 0.0131,
      "velocity": 114,
      "chip": "ym2612"
    },
    {
      "channel": 0,
      "note": 89,
      "start": 38.4087,
      "duration": 0.0125,
      "velocity": 95,
      "chip": "ym2612"
    },
    {
      "channel": 5,
      "note": 89,
      "start": 38.4117,
      "duration": 0.0119,
      "velocity": 95,
      "chip": "ym2612"
    },
    {
      "channel": 2,
      "note": 39,
      "start": 38.4129,
      "duration": 0.0118,
      "velocity": 114,
      "chip": "ym2612"
    },
    {
      "channel": 0,
      "note": 89,
      "start": 38.4212,
      "duration": 0.0125,
      "velocity": 95,
      "chip": "ym2612"
    },
    {
      "channel": 5,
      "note": 89,
      "start": 38.4236,
      "duration": 0.0125,
      "velocity": 95,
      "chip": "ym2612"
    },
    {
      "channel": 0,
      "note": 89,
      "start": 38.4337,
      "duration": 0.0125,
      "velocity": 95,
      "chip": "ym2612"
    },
    {
      "channel": 5,
      "note": 89,
      "start": 38.436,
      "duration": 0.0156,
      "velocity": 95,
      "chip": "ym2612"
    },
    {
      "channel": 0,
      "note": 89,
      "start": 38.4462,
      "duration": 0.0125,
      "velocity": 95,
      "chip": "ym2612"
    },
    {
      "channel": 1,
      "note": 65,
      "start": 38.4476,
      "duration": 0.087,
      "velocity": 81,
      "chip": "ym2612"
    },
    {
      "channel": 4,
      "note": 68,
      "start": 38.4505,
      "duration": 0.0861,
      "velocity": 74,
      "chip": "ym2612"
    },
    {
      "channel": 5,
      "note": 89,
      "start": 38.4517,
      "duration": 0.01,
      "velocity": 95,
      "chip": "ym2612"
    },
    {
      "channel": 2,
      "note": 40,
      "start": 38.4544,
      "duration": 0.0086,
      "velocity": 114,
      "chip": "ym2612"
    },
    {
      "channel": 0,
      "note": 89,
      "start": 38.4587,
      "duration": 0.0125,
      "velocity": 95,
      "chip": "ym2612"
    },
    {
      "channel": 5,
      "note": 89,
      "start": 38.4617,
      "duration": 0.0119,
      "velocity": 95,
      "chip": "ym2612"
    },
    {
      "channel": 2,
      "note": 40,
      "start": 38.4629,
      "duration": 0.0119,
      "velocity": 114,
      "chip": "ym2612"
    },
    {
      "channel": 0,
      "note": 89,
      "start": 38.4712,
      "duration": 0.0125,
      "velocity": 95,
      "chip": "ym2612"
    },
    {
      "channel": 5,
      "note": 89,
      "start": 38.4736,
      "duration": 0.0125,
      "velocity": 95,
      "chip": "ym2612"
    },
    {
      "channel": 2,
      "note": 40,
      "start": 38.4749,
      "duration": 0.0128,
      "velocity": 114,
      "chip": "ym2612"
    },
    {
      "channel": 0,
      "note": 89,
      "start": 38.4836,
      "duration": 0.0126,
      "velocity": 95,
      "chip": "ym2612"
    },
    {
      "channel": 5,
      "note": 89,
      "start": 38.486,
      "duration": 0.0125,
      "velocity": 95,
      "chip": "ym2612"
    },
    {
      "channel": 2,
      "note": 40,
      "start": 38.4877,
      "duration": 0.0122,
      "velocity": 114,
      "chip": "ym2612"
    },
    {
      "channel": 0,
      "note": 89,
      "start": 38.4962,
      "duration": 0.0125,
      "velocity": 95,
      "chip": "ym2612"
    },
    {
      "channel": 5,
      "note": 89,
      "start": 38.4986,
      "duration": 0.0131,
      "velocity": 95,
      "chip": "ym2612"
    },
    {
      "channel": 2,
      "note": 40,
      "start": 38.4998,
      "duration": 0.0131,
      "velocity": 114,
      "chip": "ym2612"
    },
    {
      "channel": 0,
      "note": 89,
      "start": 38.5087,
      "duration": 0.0125,
      "velocity": 95,
      "chip": "ym2612"
    },
    {
      "channel": 5,
      "note": 89,
      "start": 38.5117,
      "duration": 0.0119,
      "velocity": 95,
      "chip": "ym2612"
    },
    {
      "channel": 2,
      "note": 40,
      "start": 38.5129,
      "duration": 0.0119,
      "velocity": 114,
      "chip": "ym2612"
    },
    {
      "channel": 0,
      "note": 89,
      "start": 38.5212,
      "duration": 0.0125,
      "velocity": 95,
      "chip": "ym2612"
    },
    {
      "channel": 5,
      "note": 89,
      "start": 38.5236,
      "duration": 0.0148,
      "velocity": 95,
      "chip": "ym2612"
    },
    {
      "channel": 2,
      "note": 40,
      "start": 38.5249,
      "duration": 0.0147,
      "velocity": 114,
      "chip": "ym2612"
    },
    {
      "channel": 0,
      "note": 89,
      "start": 38.5336,
      "duration": 0.0126,
      "velocity": 95,
      "chip": "ym2612"
    },
    {
      "channel": 1,
      "note": 65,
      "start": 38.5351,
      "duration": 0.0996,
      "velocity": 81,
      "chip": "ym2612"
    },
    {
      "channel": 4,
      "note": 70,
      "start": 38.5371,
      "duration": 0.1003,
      "velocity": 74,
      "chip": "ym2612"
    },
    {
      "channel": 5,
      "note": 89,
      "start": 38.5383,
      "duration": 0.0103,
      "velocity": 95,
      "chip": "ym2612"
    },
    {
      "channel": 2,
      "note": 40,
      "start": 38.5396,
      "duration": 0.0102,
      "velocity": 114,
      "chip": "ym2612"
    },
    {
      "channel": 0,
      "note": 89,
      "start": 38.5462,
      "duration": 0.0125,
      "velocity": 95,
      "chip": "ym2612"
    },
    {
      "channel": 5,
      "note": 89,
      "start": 38.5486,
      "duration": 0.013,
      "velocity": 95,
      "chip": "ym2612"
    },
    {
      "channel": 2,
      "note": 40,
      "start": 38.5498,
      "duration": 0.0131,
      "velocity": 114,
      "chip": "ym2612"
    },
    {
      "channel": 0,
      "note": 89,
      "start": 38.5587,
      "duration": 0.0125,
      "velocity": 95,
      "chip": "ym2612"
    },
    {
      "channel": 5,
      "note": 89,
      "start": 38.5617,
      "duration": 0.0119,
      "velocity": 95,
      "chip": "ym2612"
    },
    {
      "channel": 2,
      "note": 40,
      "start": 38.5629,
      "duration": 0.0119,
      "velocity": 114,
      "chip": "ym2612"
    },
    {
      "channel": 0,
      "note": 89,
      "start": 38.5712,
      "duration": 0.0125,
      "velocity": 95,
      "chip": "ym2612"
    },
    {
      "channel": 5,
      "note": 89,
      "start": 38.5736,
      "duration": 0.0125,
      "velocity": 95,
      "chip": "ym2612"
    },
    {
      "channel": 2,
      "note": 39,
      "start": 38.5749,
      "duration": 0.0124,
      "velocity": 114,
      "chip": "ym2612"
    },
    {
      "channel": 0,
      "note": 89,
      "start": 38.5836,
      "duration": 0.0126,
      "velocity": 95,
      "chip": "ym2612"
    },
    {
      "channel": 5,
      "note": 89,
      "start": 38.586,
      "duration": 0.0125,
      "velocity": 95,
      "chip": "ym2612"
    },
    {
      "channel": 2,
      "note": 39,
      "start": 38.5873,
      "duration": 0.0125,
      "velocity": 114,
      "chip": "ym2612"
    },
    {
      "channel": 0,
      "note": 89,
      "start": 38.5962,
      "duration": 0.0125,
      "velocity": 95,
      "chip": "ym2612"
    },
    {
      "channel": 5,
      "note": 89,
      "start": 38.5986,
      "duration": 0.0131,
      "velocity": 95,
      "chip": "ym2612"
    },
    {
      "channel": 2,
      "note": 39,
      "start": 38.5998,
      "duration": 0.013,
      "velocity": 114,
      "chip": "ym2612"
    },
    {
      "channel": 0,
      "note": 89,
      "start": 38.6087,
      "duration": 0.0125,
      "velocity": 95,
      "chip": "ym2612"
    },
    {
      "channel": 5,
      "note": 89,
      "start": 38.6117,
      "duration": 0.0119,
      "velocity": 95,
      "chip": "ym2612"
    },
    {
      "channel": 0,
      "note": 89,
      "start": 38.6212,
      "duration": 0.0125,
      "velocity": 95,
      "chip": "ym2612"
    },
    {
      "channel": 5,
      "note": 89,
      "start": 38.6236,
      "duration": 0.0156,
      "velocity": 95,
      "chip": "ym2612"
    },
    {
      "channel": 0,
      "note": 89,
      "start": 38.6337,
      "duration": 0.0133,
      "velocity": 95,
      "chip": "ym2612"
    },
    {
      "channel": 1,
      "note": 53,
      "start": 38.6351,
      "duration": 0.1876,
      "velocity": 81,
      "chip": "ym2612"
    },
    {
      "channel": 4,
      "note": 65,
      "start": 38.6379,
      "duration": 0.0858,
      "velocity": 74,
      "chip": "ym2612"
    },
    {
      "channel": 5,
      "note": 89,
      "start": 38.6392,
      "duration": 0.0102,
      "velocity": 95,
      "chip": "ym2612"
    },
    {
      "channel": 2,
      "note": 41,
      "start": 38.6452,
      "duration": 0.1854,
      "velocity": 122,
      "chip": "ym2612"
    },
    {
      "channel": 0,
      "note": 89,
      "start": 38.647,
      "duration": 0.0125,
      "velocity": 95,
      "chip": "ym2612"
    },
    {
      "channel": 5,
      "note": 89,
      "start": 38.6494,
      "duration": 0.0131,
      "velocity": 95,
      "chip": "ym2612"
    },
    {
      "channel": 0,
      "note": 89,
      "start": 38.6595,
      "duration": 0.0125,
      "velocity": 95,
      "chip": "ym2612"
    },
    {
      "channel": 5,
      "note": 89,
      "start": 38.6625,
      "duration": 0.0119,
      "velocity": 95,
      "chip": "ym2612"
    },
    {
      "channel": 0,
      "note": 89,
      "start": 38.672,
      "duration": 0.0125,
      "velocity": 95,
      "chip": "ym2612"
    },
    {
      "channel": 5,
      "note": 89,
      "start": 38.6744,
      "duration": 0.0125,
      "velocity": 95,
      "chip": "ym2612"
    },
    {
      "channel": 0,
      "note": 89,
      "start": 38.6844,
      "duration": 0.0125,
      "velocity": 95,
      "chip": "ym2612"
    },
    {
      "channel": 5,
      "note": 89,
      "start": 38.6869,
      "duration": 0.0125,
      "velocity": 95,
      "chip": "ym2612"
    },
    {
      "channel": 0,
      "note": 89,
      "start": 38.6969,
      "duration": 0.0125,
      "velocity": 95,
      "chip": "ym2612"
    },
    {
      "channel": 5,
      "note": 89,
      "start": 38.6993,
      "duration": 0.0131,
      "velocity": 95,
      "chip": "ym2612"
    },
    {
      "channel": 0,
      "note": 89,
      "start": 38.7095,
      "duration": 0.0124,
      "velocity": 95,
      "chip": "ym2612"
    },
    {
      "channel": 5,
      "note": 89,
      "start": 38.7124,
      "duration": 0.0131,
      "velocity": 95,
      "chip": "ym2612"
    },
    {
      "channel": 0,
      "note": 89,
      "start": 38.7219,
      "duration": 0.0125,
      "velocity": 95,
      "chip": "ym2612"
    },
    {
      "channel": 4,
      "note": 67,
      "start": 38.7243,
      "duration": 0.1013,
      "velocity": 74,
      "chip": "ym2612"
    },
    {
      "channel": 5,
      "note": 89,
      "start": 38.7255,
      "duration": 0.0113,
      "velocity": 95,
      "chip": "ym2612"
    },
    {
      "channel": 0,
      "note": 89,
      "start": 38.7344,
      "duration": 0.0125,
      "velocity": 95,
      "chip": "ym2612"
    },
    {
      "channel": 5,
      "note": 89,
      "start": 38.7368,
      "duration": 0.0125,
      "velocity": 95,
      "chip": "ym2612"
    },
    {
      "channel": 0,
      "note": 89,
      "start": 38.7468,
      "duration": 0.0125,
      "velocity": 95,
      "chip": "ym2612"
    },
    {
      "channel": 5,
      "note": 89,
      "start": 38.7493,
      "duration": 0.0131,
      "velocity": 95,
      "chip": "ym2612"
    },
    {
      "channel": 0,
      "note": 89,
      "start": 38.7594,
      "duration": 0.0125,
      "velocity": 95,
      "chip": "ym2612"
    },
    {
      "channel": 5,
      "note": 89,
      "start": 38.7624,
      "duration": 0.0119,
      "velocity": 95,
      "chip": "ym2612"
    },
    {
      "channel": 0,
      "note": 89,
      "start": 38.7719,
      "duration": 0.0125,
      "velocity": 95,
      "chip": "ym2612"
    },
    {
      "channel": 5,
      "note": 89,
      "start": 38.7743,
      "duration": 0.0125,
      "velocity": 95,
      "chip": "ym2612"
    },
    {
      "channel": 0,
      "note": 89,
      "start": 38.7844,
      "duration": 0.0124,
      "velocity": 95,
      "chip": "ym2612"
    },
    {
      "channel": 5,
      "note": 89,
      "start": 38.7868,
      "duration": 0.0124,
      "velocity": 95,
      "chip": "ym2612"
    },
    {
      "channel": 0,
      "note": 89,
      "start": 38.7968,
      "duration": 0.0125,
      "velocity": 95,
      "chip": "ym2612"
    },
    {
      "channel": 5,
      "note": 89,
      "start": 38.7992,
      "duration": 0.0131,
      "velocity": 95,
      "chip": "ym2612"
    },
    {
      "channel": 0,
      "note": 89,
      "start": 38.8093,
      "duration": 0.0125,
      "velocity": 95,
      "chip": "ym2612"
    },
    {
      "channel": 5,
      "note": 89,
      "start": 38.8123,
      "duration": 0.0153,
      "velocity": 95,
      "chip": "ym2612"
    },
    {
      "channel": 0,
      "note": 89,
      "start": 38.8218,
      "duration": 0.0134,
      "velocity": 95,
      "chip": "ym2612"
    },
    {
      "channel": 1,
      "note": 65,
      "start": 38.8232,
      "duration": 0.0884,
      "velocity": 81,
      "chip": "ym2612"
    },
    {
      "channel": 4,
      "note": 56,
      "start": 38.8261,
      "duration": 0.0884,
      "velocity": 74,
      "chip": "ym2612"
    },
    {
      "channel": 5,
      "note": 89,
      "start": 38.8276,
      "duration": 0.01,
      "velocity": 95,
      "chip": "ym2612"
    },
    {
      "channel": 2,
      "note": 40,
      "start": 38.8334,
      "duration": 0.0055,
      "velocity": 114,
      "chip": "ym2612"
    },
    {
      "channel": 0,
      "note": 89,
      "start": 38.8351,
      "duration": 0.0125,
      "velocity": 95,
      "chip": "ym2612"
    },
    {
      "channel": 5,
      "note": 89,
      "start": 38.8376,
      "duration": 0.0124,
      "velocity": 95,
      "chip": "ym2612"
    },
    {
      "channel": 2,
      "note": 40,
      "start": 38.8388,
      "duration": 0.0125,
      "velocity": 114,
      "chip": "ym2612"
    },
    {
      "channel": 0,
      "note": 89,
      "start": 38.8476,
      "duration": 0.0125,
      "velocity": 95,
      "chip": "ym2612"
    },
    {
      "channel": 5,
      "note": 89,
      "start": 38.85,
      "duration": 0.0131,
      "velocity": 95,
      "chip": "ym2612"
    },
    {
      "channel": 2,
      "note": 40,
      "start": 38.8513,
      "duration": 0.0135,
      "velocity": 114,
      "chip": "ym2612"
    },
    {
      "channel": 0,
      "note": 89,
      "start": 38.8601,
      "duration": 0.0125,
      "velocity": 95,
      "chip": "ym2612"
    },
    {
      "channel": 5,
      "note": 89,
      "start": 38.8631,
      "duration": 0.0119,
      "velocity": 95,
      "chip": "ym2612"
    },
    {
      "channel": 2,
      "note": 40,
      "start": 38.8648,
      "duration": 0.0115,
      "velocity": 114,
      "chip": "ym2612"
    },
    {
      "channel": 0,
      "note": 89,
      "start": 38.8726,
      "duration": 0.0125,
      "velocity": 95,
      "chip": "ym2612"
    },
    {
      "channel": 5,
      "note": 89,
      "start": 38.875,
      "duration": 0.0125,
      "velocity": 95,
      "chip": "ym2612"
    },
    {
      "channel": 2,
      "note": 40,
      "start": 38.8763,
      "duration": 0.0125,
      "velocity": 114,
      "chip": "ym2612"
    },
    {
      "channel": 0,
      "note": 89,
      "start": 38.8851,
      "duration": 0.0125,
      "velocity": 95,
      "chip": "ym2612"
    },
    {
      "channel": 5,
      "note": 89,
      "start": 38.8875,
      "duration": 0.0125,
      "velocity": 95,
      "chip": "ym2612"
    },
    {
      "channel": 2,
      "note": 40,
      "start": 38.8888,
      "duration": 0.0125,
      "velocity": 114,
      "chip": "ym2612"
    },
    {
      "channel": 0,
      "note": 89,
      "start": 38.8976,
      "duration": 0.0125,
      "velocity": 95,
      "chip": "ym2612"
    },
    {
      "channel": 5,
      "note": 89,
      "start": 38.9,
      "duration": 0.0161,
      "velocity": 95,
      "chip": "ym2612"
    },
    {
      "channel": 2,
      "note": 40,
      "start": 38.9012,
      "duration": 0.016,
      "velocity": 114,
      "chip": "ym2612"
    },
    {
      "channel": 0,
      "note": 89,
      "start": 38.9101,
      "duration": 0.0125,
      "velocity": 95,
      "chip": "ym2612"
    },
    {
      "channel": 1,
      "note": 65,
      "start": 38.9121,
      "duration": 0.0989,
      "velocity": 81,
      "chip": "ym2612"
    },
    {
      "channel": 4,
      "note": 63,
      "start": 38.9149,
      "duration": 0.0999,
      "velocity": 74,
      "chip": "ym2612"
    },
    {
      "channel": 5,
      "note": 89,
      "start": 38.9161,
      "duration": 0.0089,
      "velocity": 95,
      "chip": "ym2612"
    },
    {
      "channel": 0,
      "note": 89,
      "start": 38.9226,
      "duration": 0.0125,
      "velocity": 95,
      "chip": "ym2612"
    },
    {
      "channel": 5,
      "note": 89,
      "start": 38.925,
      "duration": 0.0125,
      "velocity": 95,
      "chip": "ym2612"
    },
    {
      "channel": 2,
      "note": 40,
      "start": 38.9276,
      "duration": 0.0112,
      "velocity": 114,
      "chip": "ym2612"
    },
    {
      "channel": 0,
      "note": 89,
      "start": 38.9351,
      "duration": 0.0125,
      "velocity": 95,
      "chip": "ym2612"
    },
    {
      "channel": 5,
      "note": 89,
      "start": 38.9375,
      "duration": 0.0124,
      "velocity": 95,
      "chip": "ym2612"
    },
    {
      "channel": 2,
      "note": 40,
      "start": 38.9388,
      "duration": 0.0124,
      "velocity": 114,
      "chip": "ym2612"
    },
    {
      "channel": 0,
      "note": 89,
      "start": 38.9476,
      "duration": 0.0125,
      "velocity": 95,
      "chip": "ym2612"
    },
    {
      "channel": 5,
      "note": 89,
      "start": 38.9499,
      "duration": 0.0131,
      "velocity": 95,
      "chip": "ym2612"
    },
    {
      "channel": 2,
      "note": 40,
      "start": 38.9512,
      "duration": 0.0135,
      "velocity": 114,
      "chip": "ym2612"
    },
    {
      "channel": 0,
      "note": 89,
      "start": 38.96,
      "duration": 0.0125,
      "velocity": 95,
      "chip": "ym2612"
    },
    {
      "channel": 5,
      "note": 89,
      "start": 38.963,
      "duration": 0.0119,
      "velocity": 95,
      "chip": "ym2612"
    },
    {
      "channel": 2,
      "note": 40,
      "start": 38.9647,
      "duration": 0.0115,
      "velocity": 114,
      "chip": "ym2612"
    },
    {
      "channel": 0,
      "note": 89,
      "start": 38.9725,
      "duration": 0.0125,
      "velocity": 95,
      "chip": "ym2612"
    },
    {
      "channel": 5,
      "note": 89,
      "start": 38.9749,
      "duration": 0.0125,
      "velocity": 95,
      "chip": "ym2612"
    },
    {
      "channel": 2,
      "note": 40,
      "start": 38.9762,
      "duration": 0.0125,
      "velocity": 114,
      "chip": "ym2612"
    },
    {
      "channel": 0,
      "note": 89,
      "start": 38.985,
      "duration": 0.0125,
      "velocity": 95,
      "chip": "ym2612"
    },
    {
      "channel": 5,
      "note": 89,
      "start": 38.9874,
      "duration": 0.0125,
      "velocity": 95,
      "chip": "ym2612"
    },
    {
      "channel": 2,
      "note": 40,
      "start": 38.9886,
      "duration": 0.0125,
      "velocity": 114,
      "chip": "ym2612"
    },
    {
      "channel": 0,
      "note": 89,
      "start": 38.9975,
      "duration": 0.0122,
      "velocity": 95,
      "chip": "ym2612"
    },
    {
      "channel": 5,
      "note": 89,
      "start": 38.9998,
      "duration": 0.0167,
      "velocity": 95,
      "chip": "ym2612"
    },
    {
      "channel": 2,
      "note": 40,
      "start": 39.0011,
      "duration": 0.0166,
      "velocity": 114,
      "chip": "ym2612"
    },
    {
      "channel": 1,
      "note": 53,
      "start": 39.0117,
      "duration": 0.1855,
      "velocity": 81,
      "chip": "ym2612"
    },
    {
      "channel": 4,
      "note": 65,
      "start": 39.0153,
      "duration": 0.0829,
      "velocity": 74,
      "chip": "ym2612"
    },
    {
      "channel": 5,
      "note": 89,
      "start": 39.0165,
      "duration": 0.0074,
      "velocity": 95,
      "chip": "ym2612"
    },
    {
      "channel": 5,
      "note": 89,
      "start": 39.0239,
      "duration": 0.0125,
      "velocity": 95,
      "chip": "ym2612"
    },
    {
      "channel": 2,
      "note": 40,
      "start": 39.0262,
      "duration": 0.0115,
      "velocity": 114,
      "chip": "ym2612"
    },
    {
      "channel": 5,
      "note": 89,
      "start": 39.0364,
      "duration": 0.0125,
      "velocity": 95,
      "chip": "ym2612"
    },
    {
      "channel": 2,
      "note": 40,
      "start": 39.0377,
      "duration": 0.0125,
      "velocity": 114,
      "chip": "ym2612"
    },
    {
      "channel": 5,
      "note": 89,
      "start": 39.0489,
      "duration": 0.0131,
      "velocity": 95,
      "chip": "ym2612"
    },
    {
      "channel": 2,
      "note": 40,
      "start": 39.0502,
      "duration": 0.0135,
      "velocity": 114,
      "chip": "ym2612"
    },
    {
      "channel": 5,
      "note": 89,
      "start": 39.062,
      "duration": 0.0119,
      "velocity": 95,
      "chip": "ym2612"
    },
    {
      "channel": 2,
      "note": 40,
      "start": 39.0637,
      "duration": 0.0115,
      "velocity": 114,
      "chip": "ym2612"
    },
    {
      "channel": 5,
      "note": 89,
      "start": 39.0739,
      "duration": 0.0125,
      "velocity": 95,
      "chip": "ym2612"
    },
    {
      "channel": 2,
      "note": 40,
      "start": 39.0752,
      "duration": 0.0124,
      "velocity": 114,
      "chip": "ym2612"
    },
    {
      "channel": 5,
      "note": 89,
      "start": 39.0863,
      "duration": 0.0136,
      "velocity": 95,
      "chip": "ym2612"
    },
    {
      "channel": 2,
      "note": 40,
      "start": 39.0876,
      "duration": 0.0136,
      "velocity": 114,
      "chip": "ym2612"
    },
    {
      "channel": 4,
      "note": 75,
      "start": 39.0988,
      "duration": 0.1013,
      "velocity": 74,
      "chip": "ym2612"
    },
    {
      "channel": 5,
      "note": 89,
      "start": 39.1,
      "duration": 0.012,
      "velocity": 95,
      "chip": "ym2612"
    },
    {
      "channel": 2,
      "note": 40,
      "start": 39.1012,
      "duration": 0.012,
      "velocity": 114,
      "chip": "ym2612"
    },
    {
      "channel": 5,
      "note": 89,
      "start": 39.1119,
      "duration": 0.0119,
      "velocity": 95,
      "chip": "ym2612"
    },
    {
      "channel": 2,
      "note": 40,
      "start": 39.1132,
      "duration": 0.0118,
      "velocity": 114,
      "chip": "ym2612"
    },
    {
      "channel": 5,
      "note": 89,
      "start": 39.1238,
      "duration": 0.0124,
      "velocity": 95,
      "chip": "ym2612"
    },
    {
      "channel": 2,
      "note": 40,
      "start": 39.125,
      "duration": 0.0125,
      "velocity": 114,
      "chip": "ym2612"
    },
    {
      "channel": 5,
      "note": 89,
      "start": 39.1363,
      "duration": 0.0122,
      "velocity": 95,
      "chip": "ym2612"
    },
    {
      "channel": 2,
      "note": 40,
      "start": 39.1376,
      "duration": 0.0122,
      "velocity": 114,
      "chip": "ym2612"
    },
    {
      "channel": 2,
      "note": 39,
      "start": 39.1498,
      "duration": 0.0124,
      "velocity": 114,
      "chip": "ym2612"
    },
    {
      "channel": 2,
      "note": 39,
      "start": 39.1622,
      "duration": 0.0119,
      "velocity": 114,
      "chip": "ym2612"
    },
    {
      "channel": 2,
      "note": 39,
      "start": 39.1741,
      "duration": 0.0125,
      "velocity": 114,
      "chip": "ym2612"
    },
    {
      "channel": 1,
      "note": 53,
      "start": 39.1977,
      "duration": 0.188,
      "velocity": 81,
      "chip": "ym2612"
    },
    {
      "channel": 4,
      "note": 77,
      "start": 39.2005,
      "duration": 0.085,
      "velocity": 74,
      "chip": "ym2612"
    },
    {
      "channel": 2,
      "note": 40,
      "start": 39.2035,
      "duration": 0.0086,
      "velocity": 114,
      "chip": "ym2612"
    },
    {
      "channel": 2,
      "note": 40,
      "start": 39.2121,
      "duration": 0.0119,
      "velocity": 114,
      "chip": "ym2612"
    },
    {
      "channel": 2,
      "note": 40,
      "start": 39.224,
      "duration": 0.0129,
      "velocity": 114,
      "chip": "ym2612"
    },
    {
      "channel": 2,
      "note": 40,
      "start": 39.2369,
      "duration": 0.0121,
      "velocity": 114,
      "chip": "ym2612"
    },
    {
      "channel": 2,
      "note": 40,
      "start": 39.249,
      "duration": 0.013,
      "velocity": 114,
      "chip": "ym2612"
    },
    {
      "channel": 2,
      "note": 40,
      "start": 39.2621,
      "duration": 0.0119,
      "velocity": 114,
      "chip": "ym2612"
    },
    {
      "channel": 2,
      "note": 40,
      "start": 39.2739,
      "duration": 0.0136,
      "velocity": 114,
      "chip": "ym2612"
    },
    {
      "channel": 4,
      "note": 65,
      "start": 39.286,
      "duration": 0.1025,
      "velocity": 74,
      "chip": "ym2612"
    },
    {
      "channel": 2,
      "note": 40,
      "start": 39.2876,
      "duration": 0.0114,
      "velocity": 114,
      "chip": "ym2612"
    },
    {
      "channel": 2,
      "note": 40,
      "start": 39.299,
      "duration": 0.013,
      "velocity": 114,
      "chip": "ym2612"
    },
    {
      "channel": 2,
      "note": 40,
      "start": 39.312,
      "duration": 0.0119,
      "velocity": 114,
      "chip": "ym2612"
    },
    {
      "channel": 2,
      "note": 39,
      "start": 39.3239,
      "duration": 0.0125,
      "velocity": 114,
      "chip": "ym2612"
    },
    {
      "channel": 2,
      "note": 39,
      "start": 39.3364,
      "duration": 0.0125,
      "velocity": 114,
      "chip": "ym2612"
    },
    {
      "channel": 2,
      "note": 39,
      "start": 39.3489,
      "duration": 0.013,
      "velocity": 114,
      "chip": "ym2612"
    },
    {
      "channel": 0,
      "note": 89,
      "start": 39.3848,
      "duration": 0.3742,
      "velocity": 95,
      "chip": "ym2612"
    },
    {
      "channel": 1,
      "note": 53,
      "start": 39.3862,
      "duration": 0.1857,
      "velocity": 81,
      "chip": "ym2612"
    },
    {
      "channel": 4,
      "note": 72,
      "start": 39.389,
      "duration": 0.0848,
      "velocity": 74,
      "chip": "ym2612"
    },
    {
      "channel": 2,
      "note": 41,
      "start": 39.3954,
      "duration": 0.0823,
      "velocity": 122,
      "chip": "ym2612"
    },
    {
      "channel": 4,
      "note": 75,
      "start": 39.4743,
      "duration": 0.0998,
      "velocity": 74,
      "chip": "ym2612"
    },
    {
      "channel": 2,
      "note": 40,
      "start": 39.4807,
      "duration": 0.0057,
      "velocity": 114,
      "chip": "ym2612"
    },
    {
      "channel": 2,
      "note": 40,
      "start": 39.4864,
      "duration": 0.0125,
      "velocity": 114,
      "chip": "ym2612"
    },
    {
      "channel": 2,
      "note": 40,
      "start": 39.4989,
      "duration": 0.0135,
      "velocity": 114,
      "chip": "ym2612"
    },
    {
      "channel": 2,
      "note": 40,
      "start": 39.5124,
      "duration": 0.0127,
      "velocity": 114,
      "chip": "ym2612"
    },
    {
      "channel": 5,
      "note": 89,
      "start": 39.5238,
      "duration": 0.374,
      "velocity": 95,
      "chip": "ym2612"
    },
    {
      "channel": 2,
      "note": 40,
      "start": 39.5251,
      "duration": 0.0112,
      "velocity": 114,
      "chip": "ym2612"
    },
    {
      "channel": 2,
      "note": 40,
      "start": 39.5363,
      "duration": 0.0125,
      "velocity": 114,
      "chip": "ym2612"
    },
    {
      "channel": 2,
      "note": 40,
      "start": 39.5488,
      "duration": 0.0131,
      "velocity": 114,
      "chip": "ym2612"
    },
    {
      "channel": 2,
      "note": 40,
      "start": 39.5619,
      "duration": 0.0141,
      "velocity": 114,
      "chip": "ym2612"
    },
    {
      "channel": 1,
      "note": 53,
      "start": 39.5725,
      "duration": 0.188,
      "velocity": 81,
      "chip": "ym2612"
    },
    {
      "channel": 4,
      "note": 65,
      "start": 39.5745,
      "duration": 0.0858,
      "velocity": 74,
      "chip": "ym2612"
    },
    {
      "channel": 2,
      "note": 40,
      "start": 39.5761,
      "duration": 0.0102,
      "velocity": 114,
      "chip": "ym2612"
    },
    {
      "channel": 2,
      "note": 40,
      "start": 39.5863,
      "duration": 0.0125,
      "velocity": 114,
      "chip": "ym2612"
    },
    {
      "channel": 2,
      "note": 39,
      "start": 39.5988,
      "duration": 0.0131,
      "velocity": 114,
      "chip": "ym2612"
    },
    {
      "channel": 2,
      "note": 39,
      "start": 39.6119,
      "duration": 0.0119,
      "velocity": 114,
      "chip": "ym2612"
    },
    {
      "channel": 2,
      "note": 39,
      "start": 39.6238,
      "duration": 0.0124,
      "velocity": 114,
      "chip": "ym2612"
    },
    {
      "channel": 4,
      "note": 70,
      "start": 39.6611,
      "duration": 0.1028,
      "velocity": 74,
      "chip": "ym2612"
    },
    {
      "channel": 0,
      "note": 91,
      "start": 39.7595,
      "duration": 0.3741,
      "velocity": 95,
      "chip": "ym2612"
    },
    {
      "channel": 1,
      "note": 53,
      "start": 39.7615,
      "duration": 0.185,
      "velocity": 81,
      "chip": "ym2612"
    },
    {
      "channel": 4,
      "note": 72,
      "start": 39.7644,
      "duration": 0.0832,
      "velocity": 74,
      "chip": "ym2612"
    },
    {
      "channel": 2,
      "note": 40,
      "start": 39.7674,
      "duration": 0.0062,
      "velocity": 114,
      "chip": "ym2612"
    },
    {
      "channel": 2,
      "note": 40,
      "start": 39.7736,
      "duration": 0.0125,
      "velocity": 114,
      "chip": "ym2612"
    },
    {
      "channel": 2,
      "note": 40,
      "start": 39.786,
      "duration": 0.0129,
      "velocity": 114,
      "chip": "ym2612"
    },
    {
      "channel": 2,
      "note": 40,
      "start": 39.7989,
      "duration": 0.0127,
      "velocity": 114,
      "chip": "ym2612"
    },
    {
      "channel": 2,
      "note": 40,
      "start": 39.8116,
      "duration": 0.0119,
      "velocity": 114,
      "chip": "ym2612"
    },
    {
      "channel": 2,
      "note": 40,
      "start": 39.8235,
      "duration": 0.0124,
      "velocity": 114,
      "chip": "ym2612"
    },
    {
      "channel": 2,
      "note": 40,
      "start": 39.836,
      "duration": 0.0136,
      "velocity": 114,
      "chip": "ym2612"
    },
    {
      "channel": 4,
      "note": 65,
      "start": 39.848,
      "duration": 0.1013,
      "velocity": 74,
      "chip": "ym2612"
    },
    {
      "channel": 2,
      "note": 40,
      "start": 39.8496,
      "duration": 0.012,
      "velocity": 114,
      "chip": "ym2612"
    },
    {
      "channel": 2,
      "note": 40,
      "start": 39.8615,
      "duration": 0.0119,
      "velocity": 114,
      "chip": "ym2612"
    },
    {
      "channel": 2,
      "note": 40,
      "start": 39.8734,
      "duration": 0.0125,
      "velocity": 114,
      "chip": "ym2612"
    },
    {
      "channel": 2,
      "note": 39,
      "start": 39.8859,
      "duration": 0.0137,
      "velocity": 114,
      "chip": "ym2612"
    },
    {
      "channel": 5,
      "note": 91,
      "start": 39.8984,
      "duration": 0.3742,
      "velocity": 95,
      "chip": "ym2612"
    },
    {
      "channel": 2,
      "note": 39,
      "start": 39.8997,
      "duration": 0.0118,
      "velocity": 114,
      "chip": "ym2612"
    },
    {
      "channel": 2,
      "note": 39,
      "start": 39.9115,
      "duration": 0.0118,
      "velocity": 114,
      "chip": "ym2612"
    },
    {
      "channel": 1,
      "note": 65,
      "start": 39.947,
      "duration": 0.0869,
      "velocity": 81,
      "chip": "ym2612"
    },
    {
      "channel": 4,
      "note": 68,
      "start": 39.9498,
      "duration": 0.0861,
      "velocity": 74,
      "chip": "ym2612"
    },
    {
      "channel": 2,
      "note": 40,
      "start": 39.9528,
      "duration": 0.0084,
      "velocity": 114,
      "chip": "ym2612"
    },
    {
      "channel": 2,
      "note": 40,
      "start": 39.9612,
      "duration": 0.0122,
      "velocity": 114,
      "chip": "ym2612"
    },
    {
      "channel": 2,
      "note": 40,
      "start": 39.9733,
      "duration": 0.0129,
      "velocity": 114,
      "chip": "ym2612"
    },
    {
      "channel": 2,
      "note": 40,
      "start": 39.9862,
      "duration": 0.0121,
      "velocity": 114,
      "chip": "ym2612"
    },
    {
      "channel": 2,
      "note": 40,
      "start": 39.9983,
      "duration": 0.0129,
      "velocity": 114,
      "chip": "ym2612"
    },
    {
      "channel": 2,
      "note": 40,
      "start": 40.0111,
      "duration": 0.0121,
      "velocity": 114,
      "chip": "ym2612"
    },
    {
      "channel": 2,
      "note": 40,
      "start": 40.0232,
      "duration": 0.0148,
      "velocity": 114,
      "chip": "ym2612"
    },
    {
      "channel": 1,
      "note": 65,
      "start": 40.0344,
      "duration": 0.1006,
      "velocity": 81,
      "chip": "ym2612"
    },
    {
      "channel": 4,
      "note": 70,
      "start": 40.0364,
      "duration": 0.1014,
      "velocity": 74,
      "chip": "ym2612"
    },
    {
      "channel": 2,
      "note": 40,
      "start": 40.038,
      "duration": 0.0102,
      "velocity": 114,
      "chip": "ym2612"
    },
    {
      "channel": 2,
      "note": 40,
      "start": 40.0482,
      "duration": 0.0129,
      "velocity": 114,
      "chip": "ym2612"
    },
    {
      "channel": 2,
      "note": 40,
      "start": 40.061,
      "duration": 0.0122,
      "velocity": 114,
      "chip": "ym2612"
    },
    {
      "channel": 2,
      "note": 39,
      "start": 40.0732,
      "duration": 0.0124,
      "velocity": 114,
      "chip": "ym2612"
    },
    {
      "channel": 2,
      "note": 39,
      "start": 40.0856,
      "duration": 0.0125,
      "velocity": 114,
      "chip": "ym2612"
    },
    {
      "channel": 2,
      "note": 39,
      "start": 40.0981,
      "duration": 0.0128,
      "velocity": 114,
      "chip": "ym2612"
    },
    {
      "channel": 0,
      "note": 92,
      "start": 40.1341,
      "duration": 0.3744,
      "velocity": 95,
      "chip": "ym2612"
    },
    {
      "channel": 1,
      "note": 53,
      "start": 40.1355,
      "duration": 0.1858,
      "velocity": 81,
      "chip": "ym2612"
    },
    {
      "channel": 4,
      "note": 65,
      "start": 40.1383,
      "duration": 0.084,
      "velocity": 74,
      "chip": "ym2612"
    },
    {
      "channel": 2,
      "note": 41,
      "start": 40.1444,
      "duration": 0.1838,
      "velocity": 122,
      "chip": "ym2612"
    },
    {
      "channel": 4,
      "note": 67,
      "start": 40.2228,
      "duration": 0.1013,
      "velocity": 74,
      "chip": "ym2612"
    },
    {
      "channel": 5,
      "note": 92,
      "start": 40.2731,
      "duration": 0.3744,
      "velocity": 95,
      "chip": "ym2612"
    },
    {
      "channel": 1,
      "note": 65,
      "start": 40.3217,
      "duration": 0.087,
      "velocity": 81,
      "chip": "ym2612"
    },
    {
      "channel": 4,
      "note": 56,
      "start": 40.3246,
      "duration": 0.0876,
      "velocity": 74,
      "chip": "ym2612"
    },
    {
      "channel": 2,
      "note": 40,
      "start": 40.331,
      "duration": 0.0046,
      "velocity": 114,
      "chip": "ym2612"
    },
    {
      "channel": 2,
      "note": 40,
      "start": 40.3356,
      "duration": 0.0124,
      "velocity": 114,
      "chip": "ym2612"
    },
    {
      "channel": 2,
      "note": 40,
      "start": 40.348,
      "duration": 0.0135,
      "velocity": 114,
      "chip": "ym2612"
    },
    {
      "channel": 2,
      "note": 40,
      "start": 40.3615,
      "duration": 0.0115,
      "velocity": 114,
      "chip": "ym2612"
    },
    {
      "channel": 2,
      "note": 40,
      "start": 40.3731,
      "duration": 0.0125,
      "velocity": 114,
      "chip": "ym2612"
    },
    {
      "channel": 2,
      "note": 40,
      "start": 40.3855,
      "duration": 0.0125,
      "velocity": 114,
      "chip": "ym2612"
    },
    {
      "channel": 2,
      "note": 40,
      "start": 40.398,
      "duration": 0.016,
      "velocity": 114,
      "chip": "ym2612"
    },
    {
      "channel": 1,
      "note": 65,
      "start": 40.4092,
      "duration": 0.1008,
      "velocity": 81,
      "chip": "ym2612"
    },
    {
      "channel": 4,
      "note": 63,
      "start": 40.4126,
      "duration": 0.1015,
      "velocity": 74,
      "chip": "ym2612"
    },
    {
      "channel": 2,
      "note": 40,
      "start": 40.424,
      "duration": 0.0115,
      "velocity": 114,
      "chip": "ym2612"
    },
    {
      "channel": 2,
      "note": 40,
      "start": 40.4355,
      "duration": 0.0125,
      "velocity": 114,
      "chip": "ym2612"
    },
    {
      "channel": 2,
      "note": 40,
      "start": 40.448,
      "duration": 0.0135,
      "velocity": 114,
      "chip": "ym2612"
    },
    {
      "channel": 2,
      "note": 40,
      "start": 40.4615,
      "duration": 0.0115,
      "velocity": 114,
      "chip": "ym2612"
    },
    {
      "channel": 2,
      "note": 40,
      "start": 40.4731,
      "duration": 0.0125,
      "velocity": 114,
      "chip": "ym2612"
    },
    {
      "channel": 2,
      "note": 40,
      "start": 40.4855,
      "duration": 0.0125,
      "velocity": 114,
      "chip": "ym2612"
    },
    {
      "channel": 2,
      "note": 40,
      "start": 40.498,
      "duration": 0.018,
      "velocity": 114,
      "chip": "ym2612"
    },
    {
      "channel": 0,
      "note": 89,
      "start": 40.509,
      "duration": 0.3746,
      "velocity": 95,
      "chip": "ym2612"
    },
    {
      "channel": 1,
      "note": 49,
      "start": 40.5104,
      "duration": 0.1858,
      "velocity": 81,
      "chip": "ym2612"
    },
    {
      "channel": 4,
      "note": 65,
      "start": 40.5146,
      "duration": 0.0825,
      "velocity": 74,
      "chip": "ym2612"
    },
    {
      "channel": 2,
      "note": 40,
      "start": 40.524,
      "duration": 0.0115,
      "velocity": 114,
      "chip": "ym2612"
    },
    {
      "channel": 2,
      "note": 40,
      "start": 40.5355,
      "duration": 0.0125,
      "velocity": 114,
      "chip": "ym2612"
    },
    {
      "channel": 2,
      "note": 40,
      "start": 40.548,
      "duration": 0.0135,
      "velocity": 114,
      "chip": "ym2612"
    },
    {
      "channel": 2,
      "note": 40,
      "start": 40.5615,
      "duration": 0.0115,
      "velocity": 114,
      "chip": "ym2612"
    },
    {
      "channel": 2,
      "note": 40,
      "start": 40.5731,
      "duration": 0.0125,
      "velocity": 114,
      "chip": "ym2612"
    },
    {
      "channel": 2,
      "note": 40,
      "start": 40.5855,
      "duration": 0.0137,
      "velocity": 114,
      "chip": "ym2612"
    },
    {
      "channel": 4,
      "note": 75,
      "start": 40.5976,
      "duration": 0.1015,
      "velocity": 74,
      "chip": "ym2612"
    },
    {
      "channel": 2,
      "note": 40,
      "start": 40.5992,
      "duration": 0.0117,
      "velocity": 114,
      "chip": "ym2612"
    },
    {
      "channel": 2,
      "note": 40,
      "start": 40.6109,
      "duration": 0.0121,
      "velocity": 114,
      "chip": "ym2612"
    },
    {
      "channel": 2,
      "note": 40,
      "start": 40.623,
      "duration": 0.0125,
      "velocity": 114,
      "chip": "ym2612"
    },
    {
      "channel": 2,
      "note": 40,
      "start": 40.6355,
      "duration": 0.0138,
      "velocity": 114,
      "chip": "ym2612"
    },
    {
      "channel": 5,
      "note": 89,
      "start": 40.648,
      "duration": 0.3755,
      "velocity": 95,
      "chip": "ym2612"
    },
    {
      "channel": 2,
      "note": 39,
      "start": 40.6493,
      "duration": 0.0116,
      "velocity": 114,
      "chip": "ym2612"
    },
    {
      "channel": 2,
      "note": 39,
      "start": 40.6609,
      "duration": 0.0121,
      "velocity": 114,
      "chip": "ym2612"
    },
    {
      "channel": 2,
      "note": 39,
      "start": 40.673,
      "duration": 0.0125,
      "velocity": 114,
      "chip": "ym2612"
    },
    {
      "channel": 1,
      "note": 49,
      "start": 40.6967,
      "duration": 0.1878,
      "velocity": 81,
      "chip": "ym2612"
    },
    {
      "channel": 4,
      "note": 77,
      "start": 40.6995,
      "duration": 0.0851,
      "velocity": 74,
      "chip": "ym2612"
    },
    {
      "channel": 2,
      "note": 40,
      "start": 40.7025,
      "duration": 0.0084,
      "velocity": 114,
      "chip": "ym2612"
    },
    {
      "channel": 2,
      "note": 40,
      "start": 40.7109,
      "duration": 0.0121,
      "velocity": 114,
      "chip": "ym2612"
    },
    {
      "channel": 2,
      "note": 40,
      "start": 40.723,
      "duration": 0.0129,
      "velocity": 114,
      "chip": "ym2612"
    },
    {
      "channel": 2,
      "note": 40,
      "start": 40.7359,
      "duration": 0.0121,
      "velocity": 114,
      "chip": "ym2612"
    },
    {
      "channel": 2,
      "note": 40,
      "start": 40.748,
      "duration": 0.0129,
      "velocity": 114,
      "chip": "ym2612"
    },
    {
      "channel": 2,
      "note": 40,
      "start": 40.7609,
      "duration": 0.0121,
      "velocity": 114,
      "chip": "ym2612"
    },
    {
      "channel": 2,
      "note": 40,
      "start": 40.773,
      "duration": 0.0137,
      "velocity": 114,
      "chip": "ym2612"
    },
    {
      "channel": 4,
      "note": 65,
      "start": 40.7851,
      "duration": 0.1024,
      "velocity": 74,
      "chip": "ym2612"
    },
    {
      "channel": 2,
      "note": 40,
      "start": 40.7867,
      "duration": 0.0114,
      "velocity": 114,
      "chip": "ym2612"
    },
    {
      "channel": 2,
      "note": 40,
      "start": 40.798,
      "duration": 0.0129,
      "velocity": 114,
      "chip": "ym2612"
    },
    {
      "channel": 2,
      "note": 40,
      "start": 40.8109,
      "duration": 0.0122,
      "velocity": 114,
      "chip": "ym2612"
    },
    {
      "channel": 2,
      "note": 39,
      "start": 40.8231,
      "duration": 0.0125,
      "velocity": 114,
      "chip": "ym2612"
    },
    {
      "channel": 2,
      "note": 39,
      "start": 40.8355,
      "duration": 0.0125,
      "velocity": 114,
      "chip": "ym2612"
    },
    {
      "channel": 2,
      "note": 39,
      "start": 40.848,
      "duration": 0.0124,
      "velocity": 114,
      "chip": "ym2612"
    },
    {
      "channel": 0,
      "note": 89,
      "start": 40.8836,
      "duration": 0.0126,
      "velocity": 95,
      "chip": "ym2612"
    },
    {
      "channel": 1,
      "note": 49,
      "start": 40.8851,
      "duration": 0.187,
      "velocity": 81,
      "chip": "ym2612"
    },
    {
      "channel": 4,
      "note": 73,
      "start": 40.8879,
      "duration": 0.0859,
      "velocity": 74,
      "chip": "ym2612"
    },
    {
      "channel": 2,
      "note": 41,
      "start": 40.8937,
      "duration": 0.0841,
      "velocity": 122,
      "chip": "ym2612"
    },
    {
      "channel": 0,
      "note": 89,
      "start": 40.8962,
      "duration": 0.0125,
      "velocity": 95,
      "chip": "ym2612"
    },
    {
      "channel": 0,
      "note": 89,
      "start": 40.9087,
      "duration": 0.0125,
      "velocity": 95,
      "chip": "ym2612"
    },
    {
      "channel": 0,
      "note": 89,
      "start": 40.9212,
      "duration": 0.0125,
      "velocity": 95,
      "chip": "ym2612"
    },
    {
      "channel": 0,
      "note": 89,
      "start": 40.9337,
      "duration": 0.0125,
      "velocity": 95,
      "chip": "ym2612"
    },
    {
      "channel": 0,
      "note": 89,
      "start": 40.9462,
      "duration": 0.0125,
      "velocity": 95,
      "chip": "ym2612"
    },
    {
      "channel": 0,
      "note": 89,
      "start": 40.9587,
      "duration": 0.0125,
      "velocity": 95,
      "chip": "ym2612"
    },
    {
      "channel": 0,
      "note": 89,
      "start": 40.9712,
      "duration": 0.0125,
      "velocity": 95,
      "chip": "ym2612"
    },
    {
      "channel": 4,
      "note": 75,
      "start": 40.9743,
      "duration": 0.0998,
      "velocity": 74,
      "chip": "ym2612"
    },
    {
      "channel": 2,
      "note": 40,
      "start": 40.9807,
      "duration": 0.0057,
      "velocity": 114,
      "chip": "ym2612"
    },
    {
      "channel": 0,
      "note": 89,
      "start": 40.9837,
      "duration": 0.0125,
      "velocity": 95,
      "chip": "ym2612"
    },
    {
      "channel": 2,
      "note": 40,
      "start": 40.9864,
      "duration": 0.0125,
      "velocity": 114,
      "chip": "ym2612"
    },
    {
      "channel": 0,
      "note": 89,
      "start": 40.9962,
      "duration": 0.0125,
      "velocity": 95,
      "chip": "ym2612"
    },
    {
      "channel": 2,
      "note": 40,
      "start": 40.999,
      "duration": 0.0135,
      "velocity": 114,
      "chip": "ym2612"
    },
    {
      "channel": 0,
      "note": 89,
      "start": 41.0087,
      "duration": 0.0125,
      "velocity": 95,
      "chip": "ym2612"
    },
    {
      "channel": 2,
      "note": 40,
      "start": 41.0124,
      "duration": 0.0124,
      "velocity": 114,
      "chip": "ym2612"
    },
    {
      "channel": 0,
      "note": 89,
      "start": 41.0212,
      "duration": 0.0125,
      "velocity": 95,
      "chip": "ym2612"
    },
    {
      "channel": 5,
      "note": 89,
      "start": 41.0236,
      "duration": 0.0125,
      "velocity": 95,
      "chip": "ym2612"
    },
    {
      "channel": 2,
      "note": 40,
      "start": 41.0249,
      "duration": 0.0124,
      "velocity": 114,
      "chip": "ym2612"
    },
    {
      "channel": 0,
      "note": 89,
      "start": 41.0336,
      "duration": 0.0126,
      "velocity": 95,
      "chip": "ym2612"
    },
    {
      "channel": 5,
      "note": 89,
      "start": 41.036,
      "duration": 0.0125,
      "velocity": 95,
      "chip": "ym2612"
    },
    {
      "channel": 2,
      "note": 40,
      "start": 41.0373,
      "duration": 0.0125,
      "velocity": 114,
      "chip": "ym2612"
    },
    {
      "channel": 0,
      "note": 89,
      "start": 41.0462,
      "duration": 0.0125,
      "velocity": 95,
      "chip": "ym2612"
    },
    {
      "channel": 5,
      "note": 89,
      "start": 41.0486,
      "duration": 0.0131,
      "velocity": 95,
      "chip": "ym2612"
    },
    {
      "channel": 2,
      "note": 40,
      "start": 41.0498,
      "duration": 0.0131,
      "velocity": 114,
      "chip": "ym2612"
    },
    {
      "channel": 0,
      "note": 89,
      "start": 41.0587,
      "duration": 0.0125,
      "velocity": 95,
      "chip": "ym2612"
    },
    {
      "channel": 5,
      "note": 89,
      "start": 41.0617,
      "duration": 0.0142,
      "velocity": 95,
      "chip": "ym2612"
    },
    {
      "channel": 2,
      "note": 40,
      "start": 41.0629,
      "duration": 0.0142,
      "velocity": 114,
      "chip": "ym2612"
    },
    {
      "channel": 0,
      "note": 89,
      "start": 41.0712,
      "duration": 0.0125,
      "velocity": 95,
      "chip": "ym2612"
    },
    {
      "channel": 1,
      "note": 49,
      "start": 41.0726,
      "duration": 0.187,
      "velocity": 81,
      "chip": "ym2612"
    },
    {
      "channel": 4,
      "note": 65,
      "start": 41.0746,
      "duration": 0.0862,
      "velocity": 74,
      "chip": "ym2612"
    },
    {
      "channel": 5,
      "note": 89,
      "start": 41.0759,
      "duration": 0.0102,
      "velocity": 95,
      "chip": "ym2612"
    },
    {
      "channel": 2,
      "note": 40,
      "start": 41.0771,
      "duration": 0.0102,
      "velocity": 114,
      "chip": "ym2612"
    },
    {
      "channel": 0,
      "note": 89,
      "start": 41.0836,
      "duration": 0.0126,
      "velocity": 95,
      "chip": "ym2612"
    },
    {
      "channel": 5,
      "note": 89,
      "start": 41.086,
      "duration": 0.0125,
      "velocity": 95,
      "chip": "ym2612"
    },
    {
      "channel": 2,
      "note": 40,
      "start": 41.0873,
      "duration": 0.0125,
      "velocity": 114,
      "chip": "ym2612"
    },
    {
      "channel": 0,
      "note": 89,
      "start": 41.0962,
      "duration": 0.0125,
      "velocity": 95,
      "chip": "ym2612"
    },
    {
      "channel": 5,
      "note": 89,
      "start": 41.0986,
      "duration": 0.0131,
      "velocity": 95,
      "chip": "ym2612"
    },
    {
      "channel": 2,
      "note": 39,
      "start": 41.0998,
      "duration": 0.0131,
      "velocity": 114,
      "chip": "ym2612"
    },
    {
      "channel": 0,
      "note": 89,
      "start": 41.1087,
      "duration": 0.0125,
      "velocity": 95,
      "chip": "ym2612"
    },
    {
      "channel": 5,
      "note": 89,
      "start": 41.1117,
      "duration": 0.0119,
      "velocity": 95,
      "chip": "ym2612"
    },
    {
      "channel": 2,
      "note": 39,
      "start": 41.1129,
      "duration": 0.0119,
      "velocity": 114,
      "chip": "ym2612"
    },
    {
      "channel": 0,
      "note": 89,
      "start": 41.1212,
      "duration": 0.0125,
      "velocity": 95,
      "chip": "ym2612"
    },
    {
      "channel": 5,
      "note": 89,
      "start": 41.1236,
      "duration": 0.0125,
      "velocity": 95,
      "chip": "ym2612"
    },
    {
      "channel": 2,
      "note": 39,
      "start": 41.1249,
      "duration": 0.0124,
      "velocity": 114,
      "chip": "ym2612"
    },
    {
      "channel": 0,
      "note": 89,
      "start": 41.1336,
      "duration": 0.0126,
      "velocity": 95,
      "chip": "ym2612"
    },
    {
      "channel": 5,
      "note": 89,
      "start": 41.136,
      "duration": 0.0125,
      "velocity": 95,
      "chip": "ym2612"
    },
    {
      "channel": 0,
      "note": 89,
      "start": 41.1462,
      "duration": 0.0125,
      "velocity": 95,
      "chip": "ym2612"
    },
    {
      "channel": 5,
      "note": 89,
      "start": 41.1486,
      "duration": 0.0142,
      "velocity": 95,
      "chip": "ym2612"
    },
    {
      "channel": 0,
      "note": 89,
      "start": 41.1587,
      "duration": 0.0125,
      "velocity": 95,
      "chip": "ym2612"
    },
    {
      "channel": 4,
      "note": 72,
      "start": 41.1616,
      "duration": 0.1015,
      "velocity": 74,
      "chip": "ym2612"
    },
    {
      "channel": 5,
      "note": 89,
      "start": 41.1628,
      "duration": 0.0107,
      "velocity": 95,
      "chip": "ym2612"
    },
    {
      "channel": 0,
      "note": 89,
      "start": 41.1712,
      "duration": 0.0125,
      "velocity": 95,
      "chip": "ym2612"
    },
    {
      "channel": 5,
      "note": 89,
      "start": 41.1736,
      "duration": 0.0125,
      "velocity": 95,
      "chip": "ym2612"
    },
    {
      "channel": 0,
      "note": 89,
      "start": 41.1836,
      "duration": 0.0126,
      "velocity": 95,
      "chip": "ym2612"
    },
    {
      "channel": 5,
      "note": 89,
      "start": 41.186,
      "duration": 0.0125,
      "velocity": 95,
      "chip": "ym2612"
    },
    {
      "channel": 0,
      "note": 89,
      "start": 41.1962,
      "duration": 0.0125,
      "velocity": 95,
      "chip": "ym2612"
    },
    {
      "channel": 5,
      "note": 89,
      "start": 41.1986,
      "duration": 0.0131,
      "velocity": 95,
      "chip": "ym2612"
    },
    {
      "channel": 0,
      "note": 89,
      "start": 41.2087,
      "duration": 0.0125,
      "velocity": 95,
      "chip": "ym2612"
    },
    {
      "channel": 5,
      "note": 89,
      "start": 41.2117,
      "duration": 0.0119,
      "velocity": 95,
      "chip": "ym2612"
    },
    {
      "channel": 0,
      "note": 89,
      "start": 41.2212,
      "duration": 0.0125,
      "velocity": 95,
      "chip": "ym2612"
    },
    {
      "channel": 5,
      "note": 89,
      "start": 41.2236,
      "duration": 0.0125,
      "velocity": 95,
      "chip": "ym2612"
    },
    {
      "channel": 0,
      "note": 89,
      "start": 41.2336,
      "duration": 0.0126,
      "velocity": 95,
      "chip": "ym2612"
    },
    {
      "channel": 5,
      "note": 89,
      "start": 41.236,
      "duration": 0.0125,
      "velocity": 95,
      "chip": "ym2612"
    },
    {
      "channel": 0,
      "note": 89,
      "start": 41.2462,
      "duration": 0.0125,
      "velocity": 95,
      "chip": "ym2612"
    },
    {
      "channel": 5,
      "note": 89,
      "start": 41.2486,
      "duration": 0.0161,
      "velocity": 95,
      "chip": "ym2612"
    },
    {
      "channel": 0,
      "note": 89,
      "start": 41.2587,
      "duration": 0.0125,
      "velocity": 95,
      "chip": "ym2612"
    },
    {
      "channel": 1,
      "note": 49,
      "start": 41.2601,
      "duration": 0.1871,
      "velocity": 81,
      "chip": "ym2612"
    },
    {
      "channel": 4,
      "note": 73,
      "start": 41.2635,
      "duration": 0.0845,
      "velocity": 74,
      "chip": "ym2612"
    },
    {
      "channel": 5,
      "note": 89,
      "start": 41.2647,
      "duration": 0.0088,
      "velocity": 95,
      "chip": "ym2612"
    },
    {
      "channel": 2,
      "note": 40,
      "start": 41.2674,
      "duration": 0.0075,
      "velocity": 114,
      "chip": "ym2612"
    },
    {
      "channel": 0,
      "note": 89,
      "start": 41.2712,
      "duration": 0.0125,
      "velocity": 95,
      "chip": "ym2612"
    },
    {
      "channel": 5,
      "note": 89,
      "start": 41.2736,
      "duration": 0.0125,
      "velocity": 95,
      "chip": "ym2612"
    },
    {
      "channel": 2,
      "note": 40,
      "start": 41.2749,
      "duration": 0.0124,
      "velocity": 114,
      "chip": "ym2612"
    },
    {
      "channel": 0,
      "note": 89,
      "start": 41.2836,
      "duration": 0.0126,
      "velocity": 95,
      "chip": "ym2612"
    },
    {
      "channel": 5,
      "note": 89,
      "start": 41.286,
      "duration": 0.0125,
      "velocity": 95,
      "chip": "ym2612"
    },
    {
      "channel": 2,
      "note": 40,
      "start": 41.2873,
      "duration": 0.0129,
      "velocity": 114,
      "chip": "ym2612"
    },
    {
      "channel": 0,
      "note": 89,
      "start": 41.2962,
      "duration": 0.0125,
      "velocity": 95,
      "chip": "ym2612"
    },
    {
      "channel": 5,
      "note": 89,
      "start": 41.2986,
      "duration": 0.0131,
      "velocity": 95,
      "chip": "ym2612"
    },
    {
      "channel": 2,
      "note": 40,
      "start": 41.3002,
      "duration": 0.0127,
      "velocity": 114,
      "chip": "ym2612"
    },
    {
      "channel": 0,
      "note": 89,
      "start": 41.3087,
      "duration": 0.0125,
      "velocity": 95,
      "chip": "ym2612"
    },
    {
      "channel": 5,
      "note": 89,
      "start": 41.3117,
      "duration": 0.0119,
      "velocity": 95,
      "chip": "ym2612"
    },
    {
      "channel": 2,
      "note": 40,
      "start": 41.3129,
      "duration": 0.0119,
      "velocity": 114,
      "chip": "ym2612"
    },
    {
      "channel": 0,
      "note": 89,
      "start": 41.3212,
      "duration": 0.0125,
      "velocity": 95,
      "chip": "ym2612"
    },
    {
      "channel": 5,
      "note": 89,
      "start": 41.3236,
      "duration": 0.0125,
      "velocity": 95,
      "chip": "ym2612"
    },
    {
      "channel": 2,
      "note": 40,
      "start": 41.3249,
      "duration": 0.0124,
      "velocity": 114,
      "chip": "ym2612"
    },
    {
      "channel": 0,
      "note": 89,
      "start": 41.3336,
      "duration": 0.0126,
      "velocity": 95,
      "chip": "ym2612"
    },
    {
      "channel": 5,
      "note": 89,
      "start": 41.336,
      "duration": 0.0137,
      "velocity": 95,
      "chip": "ym2612"
    },
    {
      "channel": 2,
      "note": 40,
      "start": 41.3373,
      "duration": 0.0137,
      "velocity": 114,
      "chip": "ym2612"
    },
    {
      "channel": 0,
      "note": 89,
      "start": 41.3462,
      "duration": 0.0125,
      "velocity": 95,
      "chip": "ym2612"
    },
    {
      "channel": 4,
      "note": 65,
      "start": 41.3485,
      "duration": 0.1015,
      "velocity": 74,
      "chip": "ym2612"
    },
    {
      "channel": 5,
      "note": 89,
      "start": 41.3497,
      "duration": 0.012,
      "velocity": 95,
      "chip": "ym2612"
    },
    {
      "channel": 2,
      "note": 40,
      "start": 41.351,
      "duration": 0.012,
      "velocity": 114,
      "chip": "ym2612"
    },
    {
      "channel": 0,
      "note": 89,
      "start": 41.3587,
      "duration": 0.0125,
      "velocity": 95,
      "chip": "ym2612"
    },
    {
      "channel": 5,
      "note": 89,
      "start": 41.3617,
      "duration": 0.0119,
      "velocity": 95,
      "chip": "ym2612"
    },
    {
      "channel": 2,
      "note": 40,
      "start": 41.3629,
      "duration": 0.0119,
      "velocity": 114,
      "chip": "ym2612"
    },
    {
      "channel": 0,
      "note": 89,
      "start": 41.3712,
      "duration": 0.0125,
      "velocity": 95,
      "chip": "ym2612"
    },
    {
      "channel": 5,
      "note": 89,
      "start": 41.3736,
      "duration": 0.0125,
      "velocity": 95,
      "chip": "ym2612"
    },
    {
      "channel": 2,
      "note": 40,
      "start": 41.3749,
      "duration": 0.0124,
      "velocity": 114,
      "chip": "ym2612"
    },
    {
      "channel": 0,
      "note": 89,
      "start": 41.3836,
      "duration": 0.0126,
      "velocity": 95,
      "chip": "ym2612"
    },
    {
      "channel": 5,
      "note": 89,
      "start": 41.386,
      "duration": 0.0125,
      "velocity": 95,
      "chip": "ym2612"
    },
    {
      "channel": 2,
      "note": 39,
      "start": 41.3873,
      "duration": 0.0125,
      "velocity": 114,
      "chip": "ym2612"
    },
    {
      "channel": 0,
      "note": 89,
      "start": 41.3962,
      "duration": 0.0125,
      "velocity": 95,
      "chip": "ym2612"
    },
    {
      "channel": 5,
      "note": 89,
      "start": 41.3986,
      "duration": 0.0131,
      "velocity": 95,
      "chip": "ym2612"
    },
    {
      "channel": 2,
      "note": 39,
      "start": 41.3998,
      "duration": 0.0131,
      "velocity": 114,
      "chip": "ym2612"
    },
    {
      "channel": 0,
      "note": 89,
      "start": 41.4087,
      "duration": 0.0125,
      "velocity": 95,
      "chip": "ym2612"
    },
    {
      "channel": 5,
      "note": 89,
      "start": 41.4117,
      "duration": 0.0119,
      "velocity": 95,
      "chip": "ym2612"
    },
    {
      "channel": 2,
      "note": 39,
      "start": 41.4129,
      "duration": 0.0118,
      "velocity": 114,
      "chip": "ym2612"
    },
    {
      "channel": 0,
      "note": 89,
      "start": 41.4212,
      "duration": 0.0125,
      "velocity": 95,
      "chip": "ym2612"
    },
    {
      "channel": 5,
      "note": 89,
      "start": 41.4236,
      "duration": 0.0125,
      "velocity": 95,
      "chip": "ym2612"
    },
    {
      "channel": 0,
      "note": 89,
      "start": 41.4336,
      "duration": 0.0126,
      "velocity": 95,
      "chip": "ym2612"
    },
    {
      "channel": 5,
      "note": 89,
      "start": 41.436,
      "duration": 0.0156,
      "velocity": 95,
      "chip": "ym2612"
    },
    {
      "channel": 0,
      "note": 89,
      "start": 41.4462,
      "duration": 0.0125,
      "velocity": 95,
      "chip": "ym2612"
    },
    {
      "channel": 1,
      "note": 61,
      "start": 41.4476,
      "duration": 0.087,
      "velocity": 81,
      "chip": "ym2612"
    },
    {
      "channel": 4,
      "note": 70,
      "start": 41.4505,
      "duration": 0.0861,
      "velocity": 74,
      "chip": "ym2612"
    },
    {
      "channel": 5,
      "note": 89,
      "start": 41.4517,
      "duration": 0.01,
      "velocity": 95,
      "chip": "ym2612"
    },
    {
      "channel": 2,
      "note": 40,
      "start": 41.4544,
      "duration": 0.0086,
      "velocity": 114,
      "chip": "ym2612"
    },
    {
      "channel": 0,
      "note": 89,
      "start": 41.4587,
      "duration": 0.0125,
      "velocity": 95,
      "chip": "ym2612"
    },
    {
      "channel": 5,
      "note": 89,
      "start": 41.4617,
      "duration": 0.0119,
      "velocity": 95,
      "chip": "ym2612"
    },
    {
      "channel": 2,
      "note": 40,
      "start": 41.4629,
      "duration": 0.0119,
      "velocity": 114,
      "chip": "ym2612"
    },
    {
      "channel": 0,
      "note": 89,
      "start": 41.4712,
      "duration": 0.0125,
      "velocity": 95,
      "chip": "ym2612"
    },
    {
      "channel": 5,
      "note": 89,
      "start": 41.4736,
      "duration": 0.0125,
      "velocity": 95,
      "chip": "ym2612"
    },
    {
      "channel": 2,
      "note": 40,
      "start": 41.4749,
      "duration": 0.0128,
      "velocity": 114,
      "chip": "ym2612"
    },
    {
      "channel": 0,
      "note": 89,
      "start": 41.4836,
      "duration": 0.0126,
      "velocity": 95,
      "chip": "ym2612"
    },
    {
      "channel": 5,
      "note": 89,
      "start": 41.486,
      "duration": 0.0125,
      "velocity": 95,
      "chip": "ym2612"
    },
    {
      "channel": 2,
      "note": 40,
      "start": 41.4877,
      "duration": 0.0122,
      "velocity": 114,
      "chip": "ym2612"
    },
    {
      "channel": 0,
      "note": 89,
      "start": 41.4962,
      "duration": 0.0125,
      "velocity": 95,
      "chip": "ym2612"
    },
    {
      "channel": 5,
      "note": 89,
      "start": 41.4986,
      "duration": 0.0131,
      "velocity": 95,
      "chip": "ym2612"
    },
    {
      "channel": 2,
      "note": 40,
      "start": 41.4998,
      "duration": 0.0131,
      "velocity": 114,
      "chip": "ym2612"
    },
    {
      "channel": 0,
      "note": 89,
      "start": 41.5087,
      "duration": 0.0125,
      "velocity": 95,
      "chip": "ym2612"
    },
    {
      "channel": 5,
      "note": 89,
      "start": 41.5117,
      "duration": 0.0119,
      "velocity": 95,
      "chip": "ym2612"
    },
    {
      "channel": 2,
      "note": 40,
      "start": 41.5129,
      "duration": 0.0119,
      "velocity": 114,
      "chip": "ym2612"
    },
    {
      "channel": 0,
      "note": 89,
      "start": 41.5212,
      "duration": 0.0125,
      "velocity": 95,
      "chip": "ym2612"
    },
    {
      "channel": 5,
      "note": 89,
      "start": 41.5236,
      "duration": 0.0148,
      "velocity": 95,
      "chip": "ym2612"
    },
    {
      "channel": 2,
      "note": 40,
      "start": 41.5249,
      "duration": 0.0147,
      "velocity": 114,
      "chip": "ym2612"
    },
    {
      "channel": 0,
      "note": 89,
      "start": 41.5336,
      "duration": 0.0126,
      "velocity": 95,
      "chip": "ym2612"
    },
    {
      "channel": 1,
      "note": 61,
      "start": 41.5351,
      "duration": 0.0996,
      "velocity": 81,
      "chip": "ym2612"
    },
    {
      "channel": 4,
      "note": 72,
      "start": 41.5371,
      "duration": 0.1003,
      "velocity": 74,
      "chip": "ym2612"
    },
    {
      "channel": 5,
      "note": 89,
      "start": 41.5383,
      "duration": 0.0102,
      "velocity": 95,
      "chip": "ym2612"
    },
    {
      "channel": 2,
      "note": 40,
      "start": 41.5396,
      "duration": 0.0102,
      "velocity": 114,
      "chip": "ym2612"
    },
    {
      "channel": 0,
      "note": 89,
      "start": 41.5462,
      "duration": 0.0125,
      "velocity": 95,
      "chip": "ym2612"
    },
    {
      "channel": 5,
      "note": 89,
      "start": 41.5486,
      "duration": 0.0131,
      "velocity": 95,
      "chip": "ym2612"
    },
    {
      "channel": 2,
      "note": 40,
      "start": 41.5498,
      "duration": 0.0131,
      "velocity": 114,
      "chip": "ym2612"
    },
    {
      "channel": 0,
      "note": 89,
      "start": 41.5587,
      "duration": 0.0125,
      "velocity": 95,
      "chip": "ym2612"
    },
    {
      "channel": 5,
      "note": 89,
      "start": 41.5617,
      "duration": 0.0119,
      "velocity": 95,
      "chip": "ym2612"
    },
    {
      "channel": 2,
      "note": 40,
      "start": 41.5629,
      "duration": 0.0119,
      "velocity": 114,
      "chip": "ym2612"
    },
    {
      "channel": 0,
      "note": 89,
      "start": 41.5712,
      "duration": 0.0125,
      "velocity": 95,
      "chip": "ym2612"
    },
    {
      "channel": 5,
      "note": 89,
      "start": 41.5736,
      "duration": 0.0125,
      "velocity": 95,
      "chip": "ym2612"
    },
    {
      "channel": 2,
      "note": 39,
      "start": 41.5749,
      "duration": 0.0124,
      "velocity": 114,
      "chip": "ym2612"
    },
    {
      "channel": 0,
      "note": 89,
      "start": 41.5837,
      "duration": 0.0125,
      "velocity": 95,
      "chip": "ym2612"
    },
    {
      "channel": 5,
      "note": 89,
      "start": 41.586,
      "duration": 0.0125,
      "velocity": 95,
      "chip": "ym2612"
    },
    {
      "channel": 2,
      "note": 39,
      "start": 41.5873,
      "duration": 0.0125,
      "velocity": 114,
      "chip": "ym2612"
    },
    {
      "channel": 0,
      "note": 89,
      "start": 41.5962,
      "duration": 0.0125,
      "velocity": 95,
      "chip": "ym2612"
    },
    {
      "channel": 5,
      "note": 89,
      "start": 41.5986,
      "duration": 0.0131,
      "velocity": 95,
      "chip": "ym2612"
    },
    {
      "channel": 2,
      "note": 39,
      "start": 41.5998,
      "duration": 0.013,
      "velocity": 114,
      "chip": "ym2612"
    },
    {
      "channel": 0,
      "note": 89,
      "start": 41.6087,
      "duration": 0.0125,
      "velocity": 95,
      "chip": "ym2612"
    },
    {
      "channel": 5,
      "note": 89,
      "start": 41.6117,
      "duration": 0.0119,
      "velocity": 95,
      "chip": "ym2612"
    },
    {
      "channel": 0,
      "note": 89,
      "start": 41.6212,
      "duration": 0.0125,
      "velocity": 95,
      "chip": "ym2612"
    },
    {
      "channel": 5,
      "note": 89,
      "start": 41.6236,
      "duration": 0.0156,
      "velocity": 95,
      "chip": "ym2612"
    },
    {
      "channel": 0,
      "note": 89,
      "start": 41.6337,
      "duration": 0.0133,
      "velocity": 95,
      "chip": "ym2612"
    },
    {
      "channel": 1,
      "note": 49,
      "start": 41.6351,
      "duration": 0.1876,
      "velocity": 81,
      "chip": "ym2612"
    },
    {
      "channel": 4,
      "note": 65,
      "start": 41.6379,
      "duration": 0.0858,
      "velocity": 74,
      "chip": "ym2612"
    },
    {
      "channel": 5,
      "note": 89,
      "start": 41.6392,
      "duration": 0.0102,
      "velocity": 95,
      "chip": "ym2612"
    },
    {
      "channel": 2,
      "note": 41,
      "start": 41.6452,
      "duration": 0.1854,
      "velocity": 122,
      "chip": "ym2612"
    },
    {
      "channel": 0,
      "note": 89,
      "start": 41.647,
      "duration": 0.0125,
      "velocity": 95,
      "chip": "ym2612"
    },
    {
      "channel": 5,
      "note": 89,
      "start": 41.6494,
      "duration": 0.0131,
      "velocity": 95,
      "chip": "ym2612"
    },
    {
      "channel": 0,
      "note": 89,
      "start": 41.6595,
      "duration": 0.0124,
      "velocity": 95,
      "chip": "ym2612"
    },
    {
      "channel": 5,
      "note": 89,
      "start": 41.6625,
      "duration": 0.0118,
      "velocity": 95,
      "chip": "ym2612"
    },
    {
      "channel": 0,
      "note": 89,
      "start": 41.6719,
      "duration": 0.0125,
      "velocity": 95,
      "chip": "ym2612"
    },
    {
      "channel": 5,
      "note": 89,
      "start": 41.6743,
      "duration": 0.0125,
      "velocity": 95,
      "chip": "ym2612"
    },
    {
      "channel": 0,
      "note": 89,
      "start": 41.6844,
      "duration": 0.0125,
      "velocity": 95,
      "chip": "ym2612"
    },
    {
      "channel": 5,
      "note": 89,
      "start": 41.6869,
      "duration": 0.0125,
      "velocity": 95,
      "chip": "ym2612"
    },
    {
      "channel": 0,
      "note": 89,
      "start": 41.6969,
      "duration": 0.0125,
      "velocity": 95,
      "chip": "ym2612"
    },
    {
      "channel": 5,
      "note": 89,
      "start": 41.6993,
      "duration": 0.013,
      "velocity": 95,
      "chip": "ym2612"
    },
    {
      "channel": 0,
      "note": 89,
      "start": 41.7094,
      "duration": 0.0125,
      "velocity": 95,
      "chip": "ym2612"
    },
    {
      "channel": 5,
      "note": 89,
      "start": 41.7124,
      "duration": 0.013,
      "velocity": 95,
      "chip": "ym2612"
    },
    {
      "channel": 0,
      "note": 89,
      "start": 41.7219,
      "duration": 0.0125,
      "velocity": 95,
      "chip": "ym2612"
    },
    {
      "channel": 4,
      "note": 68,
      "start": 41.7242,
      "duration": 0.1013,
      "velocity": 74,
      "chip": "ym2612"
    },
    {
      "channel": 5,
      "note": 89,
      "start": 41.7254,
      "duration": 0.0114,
      "velocity": 95,
      "chip": "ym2612"
    },
    {
      "channel": 0,
      "note": 89,
      "start": 41.7344,
      "duration": 0.0125,
      "velocity": 95,
      "chip": "ym2612"
    },
    {
      "channel": 5,
      "note": 89,
      "start": 41.7368,
      "duration": 0.0125,
      "velocity": 95,
      "chip": "ym2612"
    },
    {
      "channel": 0,
      "note": 89,
      "start": 41.7468,
      "duration": 0.0125,
      "velocity": 95,
      "chip": "ym2612"
    },
    {
      "channel": 5,
      "note": 89,
      "start": 41.7493,
      "duration": 0.0131,
      "velocity": 95,
      "chip": "ym2612"
    },
    {
      "channel": 0,
      "note": 89,
      "start": 41.7593,
      "duration": 0.0125,
      "velocity": 95,
      "chip": "ym2612"
    },
    {
      "channel": 5,
      "note": 89,
      "start": 41.7624,
      "duration": 0.0119,
      "velocity": 95,
      "chip": "ym2612"
    },
    {
      "channel": 0,
      "note": 89,
      "start": 41.7719,
      "duration": 0.0125,
      "velocity": 95,
      "chip": "ym2612"
    },
    {
      "channel": 5,
      "note": 89,
      "start": 41.7743,
      "duration": 0.0125,
      "velocity": 95,
      "chip": "ym2612"
    },
    {
      "channel": 0,
      "note": 89,
      "start": 41.7843,
      "duration": 0.0124,
      "velocity": 95,
      "chip": "ym2612"
    },
    {
      "channel": 5,
      "note": 89,
      "start": 41.7867,
      "duration": 0.0125,
      "velocity": 95,
      "chip": "ym2612"
    },
    {
      "channel": 0,
      "note": 89,
      "start": 41.7968,
      "duration": 0.0125,
      "velocity": 95,
      "chip": "ym2612"
    },
    {
      "channel": 5,
      "note": 89,
      "start": 41.7992,
      "duration": 0.0131,
      "velocity": 95,
      "chip": "ym2612"
    },
    {
      "channel": 0,
      "note": 89,
      "start": 41.8093,
      "duration": 0.0125,
      "velocity": 95,
      "chip": "ym2612"
    },
    {
      "channel": 5,
      "note": 89,
      "start": 41.8123,
      "duration": 0.0153,
      "velocity": 95,
      "chip": "ym2612"
    },
    {
      "channel": 0,
      "note": 89,
      "start": 41.8218,
      "duration": 0.0134,
      "velocity": 95,
      "chip": "ym2612"
    },
    {
      "channel": 1,
      "note": 61,
      "start": 41.8232,
      "duration": 0.0884,
      "velocity": 81,
      "chip": "ym2612"
    },
    {
      "channel": 4,
      "note": 70,
      "start": 41.8261,
      "duration": 0.0884,
      "velocity": 74,
      "chip": "ym2612"
    },
    {
      "channel": 5,
      "note": 89,
      "start": 41.8276,
      "duration": 0.01,
      "velocity": 95,
      "chip": "ym2612"
    },
    {
      "channel": 2,
      "note": 40,
      "start": 41.8334,
      "duration": 0.0055,
      "velocity": 114,
      "chip": "ym2612"
    },
    {
      "channel": 0,
      "note": 89,
      "start": 41.8351,
      "duration": 0.0125,
      "velocity": 95,
      "chip": "ym2612"
    },
    {
      "channel": 5,
      "note": 89,
      "start": 41.8376,
      "duration": 0.0124,
      "velocity": 95,
      "chip": "ym2612"
    },
    {
      "channel": 2,
      "note": 40,
      "start": 41.8388,
      "duration": 0.0125,
      "velocity": 114,
      "chip": "ym2612"
    },
    {
      "channel": 0,
      "note": 89,
      "start": 41.8476,
      "duration": 0.0125,
      "velocity": 95,
      "chip": "ym2612"
    },
    {
      "channel": 5,
      "note": 89,
      "start": 41.85,
      "duration": 0.0131,
      "velocity": 95,
      "chip": "ym2612"
    },
    {
      "channel": 2,
      "note": 40,
      "start": 41.8513,
      "duration": 0.0135,
      "velocity": 114,
      "chip": "ym2612"
    },
    {
      "channel": 0,
      "note": 89,
      "start": 41.8601,
      "duration": 0.0125,
      "velocity": 95,
      "chip": "ym2612"
    },
    {
      "channel": 5,
      "note": 89,
      "start": 41.8631,
      "duration": 0.0119,
      "velocity": 95,
      "chip": "ym2612"
    },
    {
      "channel": 2,
      "note": 40,
      "start": 41.8648,
      "duration": 0.0115,
      "velocity": 114,
      "chip": "ym2612"
    },
    {
      "channel": 0,
      "note": 89,
      "start": 41.8726,
      "duration": 0.0125,
      "velocity": 95,
      "chip": "ym2612"
    },
    {
      "channel": 5,
      "note": 89,
      "start": 41.875,
      "duration": 0.0125,
      "velocity": 95,
      "chip": "ym2612"
    },
    {
      "channel": 2,
      "note": 40,
      "start": 41.8763,
      "duration": 0.0125,
      "velocity": 114,
      "chip": "ym2612"
    },
    {
      "channel": 0,
      "note": 89,
      "start": 41.8851,
      "duration": 0.0125,
      "velocity": 95,
      "chip": "ym2612"
    },
    {
      "channel": 5,
      "note": 89,
      "start": 41.8875,
      "duration": 0.0125,
      "velocity": 95,
      "chip": "ym2612"
    },
    {
      "channel": 2,
      "note": 40,
      "start": 41.8888,
      "duration": 0.0125,
      "velocity": 114,
      "chip": "ym2612"
    },
    {
      "channel": 0,
      "note": 89,
      "start": 41.8976,
      "duration": 0.0125,
      "velocity": 95,
      "chip": "ym2612"
    },
    {
      "channel": 5,
      "note": 89,
      "start": 41.9,
      "duration": 0.0161,
      "velocity": 95,
      "chip": "ym2612"
    },
    {
      "channel": 2,
      "note": 40,
      "start": 41.9012,
      "duration": 0.016,
      "velocity": 114,
      "chip": "ym2612"
    },
    {
      "channel": 0,
      "note": 89,
      "start": 41.9101,
      "duration": 0.0125,
      "velocity": 95,
      "chip": "ym2612"
    },
    {
      "channel": 1,
      "note": 61,
      "start": 41.9121,
      "duration": 0.0989,
      "velocity": 81,
      "chip": "ym2612"
    },
    {
      "channel": 4,
      "note": 67,
      "start": 41.9149,
      "duration": 0.0999,
      "velocity": 74,
      "chip": "ym2612"
    },
    {
      "channel": 5,
      "note": 89,
      "start": 41.9161,
      "duration": 0.0088,
      "velocity": 95,
      "chip": "ym2612"
    },
    {
      "channel": 0,
      "note": 89,
      "start": 41.9226,
      "duration": 0.0125,
      "velocity": 95,
      "chip": "ym2612"
    },
    {
      "channel": 5,
      "note": 89,
      "start": 41.925,
      "duration": 0.0125,
      "velocity": 95,
      "chip": "ym2612"
    },
    {
      "channel": 2,
      "note": 40,
      "start": 41.9276,
      "duration": 0.0111,
      "velocity": 114,
      "chip": "ym2612"
    },
    {
      "channel": 0,
      "note": 89,
      "start": 41.9351,
      "duration": 0.0124,
      "velocity": 95,
      "chip": "ym2612"
    },
    {
      "channel": 5,
      "note": 89,
      "start": 41.9375,
      "duration": 0.0124,
      "velocity": 95,
      "chip": "ym2612"
    },
    {
      "channel": 2,
      "note": 40,
      "start": 41.9387,
      "duration": 0.0125,
      "velocity": 114,
      "chip": "ym2612"
    },
    {
      "channel": 0,
      "note": 89,
      "start": 41.9475,
      "duration": 0.0125,
      "velocity": 95,
      "chip": "ym2612"
    },
    {
      "channel": 5,
      "note": 89,
      "start": 41.9499,
      "duration": 0.0131,
      "velocity": 95,
      "chip": "ym2612"
    },
    {
      "channel": 2,
      "note": 40,
      "start": 41.9512,
      "duration": 0.0135,
      "velocity": 114,
      "chip": "ym2612"
    },
    {
      "channel": 0,
      "note": 89,
      "start": 41.96,
      "duration": 0.0125,
      "velocity": 95,
      "chip": "ym2612"
    },
    {
      "channel": 5,
      "note": 89,
      "start": 41.963,
      "duration": 0.0119,
      "velocity": 95,
      "chip": "ym2612"
    },
    {
      "channel": 2,
      "note": 40,
      "start": 41.9647,
      "duration": 0.0115,
      "velocity": 114,
      "chip": "ym2612"
    },
    {
      "channel": 0,
      "note": 89,
      "start": 41.9725,
      "duration": 0.0125,
      "velocity": 95,
      "chip": "ym2612"
    },
    {
      "channel": 5,
      "note": 89,
      "start": 41.9749,
      "duration": 0.0125,
      "velocity": 95,
      "chip": "ym2612"
    },
    {
      "channel": 2,
      "note": 40,
      "start": 41.9762,
      "duration": 0.0125,
      "velocity": 114,
      "chip": "ym2612"
    },
    {
      "channel": 0,
      "note": 89,
      "start": 41.985,
      "duration": 0.0124,
      "velocity": 95,
      "chip": "ym2612"
    },
    {
      "channel": 5,
      "note": 89,
      "start": 41.9874,
      "duration": 0.0125,
      "velocity": 95,
      "chip": "ym2612"
    },
    {
      "channel": 2,
      "note": 40,
      "start": 41.9886,
      "duration": 0.0125,
      "velocity": 114,
      "chip": "ym2612"
    },
    {
      "channel": 0,
      "note": 89,
      "start": 41.9974,
      "duration": 0.0123,
      "velocity": 95,
      "chip": "ym2612"
    },
    {
      "channel": 5,
      "note": 89,
      "start": 41.9998,
      "duration": 0.0167,
      "velocity": 95,
      "chip": "ym2612"
    },
    {
      "channel": 2,
      "note": 40,
      "start": 42.0011,
      "duration": 0.0166,
      "velocity": 114,
      "chip": "ym2612"
    },
    {
      "channel": 1,
      "note": 49,
      "start": 42.0117,
      "duration": 0.1855,
      "velocity": 81,
      "chip": "ym2612"
    },
    {
      "channel": 4,
      "note": 65,
      "start": 42.0153,
      "duration": 0.0829,
      "velocity": 74,
      "chip": "ym2612"
    },
    {
      "channel": 5,
      "note": 89,
      "start": 42.0165,
      "duration": 0.0074,
      "velocity": 95,
      "chip": "ym2612"
    },
    {
      "channel": 5,
      "note": 89,
      "start": 42.0239,
      "duration": 0.0125,
      "velocity": 95,
      "chip": "ym2612"
    },
    {
      "channel": 2,
      "note": 40,
      "start": 42.0262,
      "duration": 0.0115,
      "velocity": 114,
      "chip": "ym2612"
    },
    {
      "channel": 5,
      "note": 89,
      "start": 42.0364,
      "duration": 0.0125,
      "velocity": 95,
      "chip": "ym2612"
    },
    {
      "channel": 2,
      "note": 40,
      "start": 42.0377,
      "duration": 0.0125,
      "velocity": 114,
      "chip": "ym2612"
    },
    {
      "channel": 5,
      "note": 89,
      "start": 42.0489,
      "duration": 0.0131,
      "velocity": 95,
      "chip": "ym2612"
    },
    {
      "channel": 2,
      "note": 40,
      "start": 42.0502,
      "duration": 0.0135,
      "velocity": 114,
      "chip": "ym2612"
    },
    {
      "channel": 5,
      "note": 89,
      "start": 42.062,
      "duration": 0.0119,
      "velocity": 95,
      "chip": "ym2612"
    },
    {
      "channel": 2,
      "note": 40,
      "start": 42.0637,
      "duration": 0.0115,
      "velocity": 114,
      "chip": "ym2612"
    },
    {
      "channel": 5,
      "note": 89,
      "start": 42.0739,
      "duration": 0.0125,
      "velocity": 95,
      "chip": "ym2612"
    },
    {
      "channel": 2,
      "note": 40,
      "start": 42.0752,
      "duration": 0.0124,
      "velocity": 114,
      "chip": "ym2612"
    },
    {
      "channel": 5,
      "note": 89,
      "start": 42.0863,
      "duration": 0.0136,
      "velocity": 95,
      "chip": "ym2612"
    },
    {
      "channel": 2,
      "note": 40,
      "start": 42.0876,
      "duration": 0.0136,
      "velocity": 114,
      "chip": "ym2612"
    },
    {
      "channel": 4,
      "note": 75,
      "start": 42.0988,
      "duration": 0.1013,
      "velocity": 74,
      "chip": "ym2612"
    },
    {
      "channel": 5,
      "note": 89,
      "start": 42.1,
      "duration": 0.012,
      "velocity": 95,
      "chip": "ym2612"
    },
    {
      "channel": 2,
      "note": 40,
      "start": 42.1012,
      "duration": 0.012,
      "velocity": 114,
      "chip": "ym2612"
    },
    {
      "channel": 5,
      "note": 89,
      "start": 42.1119,
      "duration": 0.0119,
      "velocity": 95,
      "chip": "ym2612"
    },
    {
      "channel": 2,
      "note": 40,
      "start": 42.1132,
      "duration": 0.0118,
      "velocity": 114,
      "chip": "ym2612"
    },
    {
      "channel": 5,
      "note": 89,
      "start": 42.1238,
      "duration": 0.0124,
      "velocity": 95,
      "chip": "ym2612"
    },
    {
      "channel": 2,
      "note": 40,
      "start": 42.125,
      "duration": 0.0125,
      "velocity": 114,
      "chip": "ym2612"
    },
    {
      "channel": 5,
      "note": 89,
      "start": 42.1363,
      "duration": 0.0122,
      "velocity": 95,
      "chip": "ym2612"
    },
    {
      "channel": 2,
      "note": 40,
      "start": 42.1376,
      "duration": 0.0122,
      "velocity": 114,
      "chip": "ym2612"
    },
    {
      "channel": 2,
      "note": 39,
      "start": 42.1498,
      "duration": 0.0125,
      "velocity": 114,
      "chip": "ym2612"
    },
    {
      "channel": 2,
      "note": 39,
      "start": 42.1622,
      "duration": 0.0118,
      "velocity": 114,
      "chip": "ym2612"
    },
    {
      "channel": 2,
      "note": 39,
      "start": 42.1741,
      "duration": 0.0125,
      "velocity": 114,
      "chip": "ym2612"
    },
    {
      "channel": 1,
      "note": 49,
      "start": 42.1977,
      "duration": 0.188,
      "velocity": 81,
      "chip": "ym2612"
    },
    {
      "channel": 4,
      "note": 77,
      "start": 42.2005,
      "duration": 0.085,
      "velocity": 74,
      "chip": "ym2612"
    },
    {
      "channel": 2,
      "note": 40,
      "start": 42.2035,
      "duration": 0.0086,
      "velocity": 114,
      "chip": "ym2612"
    },
    {
      "channel": 2,
      "note": 40,
      "start": 42.2121,
      "duration": 0.0119,
      "velocity": 114,
      "chip": "ym2612"
    },
    {
      "channel": 2,
      "note": 40,
      "start": 42.224,
      "duration": 0.0129,
      "velocity": 114,
      "chip": "ym2612"
    },
    {
      "channel": 2,
      "note": 40,
      "start": 42.2369,
      "duration": 0.0121,
      "velocity": 114,
      "chip": "ym2612"
    },
    {
      "channel": 2,
      "note": 40,
      "start": 42.249,
      "duration": 0.013,
      "velocity": 114,
      "chip": "ym2612"
    },
    {
      "channel": 2,
      "note": 40,
      "start": 42.2621,
      "duration": 0.0119,
      "velocity": 114,
      "chip": "ym2612"
    },
    {
      "channel": 2,
      "note": 40,
      "start": 42.2739,
      "duration": 0.0137,
      "velocity": 114,
      "chip": "ym2612"
    },
    {
      "channel": 4,
      "note": 65,
      "start": 42.286,
      "duration": 0.1025,
      "velocity": 74,
      "chip": "ym2612"
    },
    {
      "channel": 2,
      "note": 40,
      "start": 42.2876,
      "duration": 0.0113,
      "velocity": 114,
      "chip": "ym2612"
    },
    {
      "channel": 2,
      "note": 40,
      "start": 42.299,
      "duration": 0.013,
      "velocity": 114,
      "chip": "ym2612"
    },
    {
      "channel": 2,
      "note": 40,
      "start": 42.312,
      "duration": 0.0119,
      "velocity": 114,
      "chip": "ym2612"
    },
    {
      "channel": 2,
      "note": 39,
      "start": 42.3239,
      "duration": 0.0125,
      "velocity": 114,
      "chip": "ym2612"
    },
    {
      "channel": 2,
      "note": 39,
      "start": 42.3363,
      "duration": 0.0125,
      "velocity": 114,
      "chip": "ym2612"
    },
    {
      "channel": 2,
      "note": 39,
      "start": 42.3489,
      "duration": 0.013,
      "velocity": 114,
      "chip": "ym2612"
    },
    {
      "channel": 0,
      "note": 89,
      "start": 42.3848,
      "duration": 0.3743,
      "velocity": 95,
      "chip": "ym2612"
    },
    {
      "channel": 1,
      "note": 49,
      "start": 42.3862,
      "duration": 0.1857,
      "velocity": 81,
      "chip": "ym2612"
    },
    {
      "channel": 4,
      "note": 73,
      "start": 42.389,
      "duration": 0.0848,
      "velocity": 74,
      "chip": "ym2612"
    },
    {
      "channel": 2,
      "note": 41,
      "start": 42.3954,
      "duration": 0.0824,
      "velocity": 122,
      "chip": "ym2612"
    },
    {
      "channel": 4,
      "note": 75,
      "start": 42.4743,
      "duration": 0.0997,
      "velocity": 74,
      "chip": "ym2612"
    },
    {
      "channel": 2,
      "note": 40,
      "start": 42.4807,
      "duration": 0.0057,
      "velocity": 114,
      "chip": "ym2612"
    },
    {
      "channel": 2,
      "note": 40,
      "start": 42.4864,
      "duration": 0.0125,
      "velocity": 114,
      "chip": "ym2612"
    },
    {
      "channel": 2,
      "note": 40,
      "start": 42.499,
      "duration": 0.0134,
      "velocity": 114,
      "chip": "ym2612"
    },
    {
      "channel": 2,
      "note": 40,
      "start": 42.5124,
      "duration": 0.0127,
      "velocity": 114,
      "chip": "ym2612"
    },
    {
      "channel": 5,
      "note": 89,
      "start": 42.5239,
      "duration": 0.374,
      "velocity": 95,
      "chip": "ym2612"
    },
    {
      "channel": 2,
      "note": 40,
      "start": 42.5251,
      "duration": 0.0112,
      "velocity": 114,
      "chip": "ym2612"
    },
    {
      "channel": 2,
      "note": 40,
      "start": 42.5363,
      "duration": 0.0125,
      "velocity": 114,
      "chip": "ym2612"
    },
    {
      "channel": 2,
      "note": 40,
      "start": 42.5489,
      "duration": 0.013,
      "velocity": 114,
      "chip": "ym2612"
    },
    {
      "channel": 2,
      "note": 40,
      "start": 42.5619,
      "duration": 0.0142,
      "velocity": 114,
      "chip": "ym2612"
    },
    {
      "channel": 1,
      "note": 49,
      "start": 42.5725,
      "duration": 0.188,
      "velocity": 81,
      "chip": "ym2612"
    },
    {
      "channel": 4,
      "note": 65,
      "start": 42.5745,
      "duration": 0.0858,
      "velocity": 74,
      "chip": "ym2612"
    },
    {
      "channel": 2,
      "note": 40,
      "start": 42.5761,
      "duration": 0.0102,
      "velocity": 114,
      "chip": "ym2612"
    },
    {
      "channel": 2,
      "note": 40,
      "start": 42.5863,
      "duration": 0.0125,
      "velocity": 114,
      "chip": "ym2612"
    },
    {
      "channel": 2,
      "note": 39,
      "start": 42.5988,
      "duration": 0.013,
      "velocity": 114,
      "chip": "ym2612"
    },
    {
      "channel": 2,
      "note": 39,
      "start": 42.6119,
      "duration": 0.0119,
      "velocity": 114,
      "chip": "ym2612"
    },
    {
      "channel": 2,
      "note": 39,
      "start": 42.6238,
      "duration": 0.0124,
      "velocity": 114,
      "chip": "ym2612"
    },
    {
      "channel": 4,
      "note": 72,
      "start": 42.6611,
      "duration": 0.1028,
      "velocity": 74,
      "chip": "ym2612"
    },
    {
      "channel": 0,
      "note": 91,
      "start": 42.7596,
      "duration": 0.374,
      "velocity": 95,
      "chip": "ym2612"
    },
    {
      "channel": 1,
      "note": 49,
      "start": 42.7616,
      "duration": 0.1849,
      "velocity": 81,
      "chip": "ym2612"
    },
    {
      "channel": 4,
      "note": 73,
      "start": 42.7644,
      "duration": 0.0832,
      "velocity": 74,
      "chip": "ym2612"
    },
    {
      "channel": 2,
      "note": 40,
      "start": 42.7674,
      "duration": 0.0062,
      "velocity": 114,
      "chip": "ym2612"
    },
    {
      "channel": 2,
      "note": 40,
      "start": 42.7736,
      "duration": 0.0125,
      "velocity": 114,
      "chip": "ym2612"
    },
    {
      "channel": 2,
      "note": 40,
      "start": 42.786,
      "duration": 0.0129,
      "velocity": 114,
      "chip": "ym2612"
    },
    {
      "channel": 2,
      "note": 40,
      "start": 42.799,
      "duration": 0.0127,
      "velocity": 114,
      "chip": "ym2612"
    },
    {
      "channel": 2,
      "note": 40,
      "start": 42.8116,
      "duration": 0.0119,
      "velocity": 114,
      "chip": "ym2612"
    },
    {
      "channel": 2,
      "note": 40,
      "start": 42.8235,
      "duration": 0.0124,
      "velocity": 114,
      "chip": "ym2612"
    },
    {
      "channel": 2,
      "note": 40,
      "start": 42.836,
      "duration": 0.0137,
      "velocity": 114,
      "chip": "ym2612"
    },
    {
      "channel": 4,
      "note": 65,
      "start": 42.848,
      "duration": 0.1013,
      "velocity": 74,
      "chip": "ym2612"
    },
    {
      "channel": 2,
      "note": 40,
      "start": 42.8497,
      "duration": 0.0119,
      "velocity": 114,
      "chip": "ym2612"
    },
    {
      "channel": 2,
      "note": 40,
      "start": 42.8615,
      "duration": 0.0119,
      "velocity": 114,
      "chip": "ym2612"
    },
    {
      "channel": 2,
      "note": 40,
      "start": 42.8734,
      "duration": 0.0125,
      "velocity": 114,
      "chip": "ym2612"
    },
    {
      "channel": 2,
      "note": 39,
      "start": 42.8859,
      "duration": 0.0137,
      "velocity": 114,
      "chip": "ym2612"
    },
    {
      "channel": 5,
      "note": 91,
      "start": 42.8984,
      "duration": 0.3742,
      "velocity": 95,
      "chip": "ym2612"
    },
    {
      "channel": 2,
      "note": 39,
      "start": 42.8997,
      "duration": 0.0118,
      "velocity": 114,
      "chip": "ym2612"
    },
    {
      "channel": 2,
      "note": 39,
      "start": 42.9115,
      "duration": 0.0118,
      "velocity": 114,
      "chip": "ym2612"
    },
    {
      "channel": 1,
      "note": 61,
      "start": 42.947,
      "duration": 0.0869,
      "velocity": 81,
      "chip": "ym2612"
    },
    {
      "channel": 4,
      "note": 70,
      "start": 42.9498,
      "duration": 0.0861,
      "velocity": 74,
      "chip": "ym2612"
    },
    {
      "channel": 2,
      "note": 40,
      "start": 42.9528,
      "duration": 0.0083,
      "velocity": 114,
      "chip": "ym2612"
    },
    {
      "channel": 2,
      "note": 40,
      "start": 42.9612,
      "duration": 0.0122,
      "velocity": 114,
      "chip": "ym2612"
    },
    {
      "channel": 2,
      "note": 40,
      "start": 42.9733,
      "duration": 0.0129,
      "velocity": 114,
      "chip": "ym2612"
    },
    {
      "channel": 2,
      "note": 40,
      "start": 42.9862,
      "duration": 0.0121,
      "velocity": 114,
      "chip": "ym2612"
    },
    {
      "channel": 2,
      "note": 40,
      "start": 42.9983,
      "duration": 0.0129,
      "velocity": 114,
      "chip": "ym2612"
    },
    {
      "channel": 2,
      "note": 40,
      "start": 43.0111,
      "duration": 0.0121,
      "velocity": 114,
      "chip": "ym2612"
    },
    {
      "channel": 2,
      "note": 40,
      "start": 43.0232,
      "duration": 0.0148,
      "velocity": 114,
      "chip": "ym2612"
    },
    {
      "channel": 1,
      "note": 61,
      "start": 43.0344,
      "duration": 0.1006,
      "velocity": 81,
      "chip": "ym2612"
    },
    {
      "channel": 4,
      "note": 72,
      "start": 43.0364,
      "duration": 0.1015,
      "velocity": 74,
      "chip": "ym2612"
    },
    {
      "channel": 2,
      "note": 40,
      "start": 43.038,
      "duration": 0.0102,
      "velocity": 114,
      "chip": "ym2612"
    },
    {
      "channel": 2,
      "note": 40,
      "start": 43.0482,
      "duration": 0.0129,
      "velocity": 114,
      "chip": "ym2612"
    },
    {
      "channel": 2,
      "note": 40,
      "start": 43.061,
      "duration": 0.0122,
      "velocity": 114,
      "chip": "ym2612"
    },
    {
      "channel": 2,
      "note": 39,
      "start": 43.0732,
      "duration": 0.0124,
      "velocity": 114,
      "chip": "ym2612"
    },
    {
      "channel": 2,
      "note": 39,
      "start": 43.0856,
      "duration": 0.0125,
      "velocity": 114,
      "chip": "ym2612"
    },
    {
      "channel": 2,
      "note": 39,
      "start": 43.0982,
      "duration": 0.0127,
      "velocity": 114,
      "chip": "ym2612"
    },
    {
      "channel": 0,
      "note": 92,
      "start": 43.1341,
      "duration": 0.3744,
      "velocity": 95,
      "chip": "ym2612"
    },
    {
      "channel": 1,
      "note": 49,
      "start": 43.1355,
      "duration": 0.1857,
      "velocity": 81,
      "chip": "ym2612"
    },
    {
      "channel": 4,
      "note": 65,
      "start": 43.1383,
      "duration": 0.084,
      "velocity": 74,
      "chip": "ym2612"
    },
    {
      "channel": 2,
      "note": 41,
      "start": 43.1444,
      "duration": 0.1839,
      "velocity": 122,
      "chip": "ym2612"
    },
    {
      "channel": 4,
      "note": 68,
      "start": 43.2228,
      "duration": 0.1013,
      "velocity": 74,
      "chip": "ym2612"
    },
    {
      "channel": 5,
      "note": 92,
      "start": 43.2731,
      "duration": 0.3744,
      "velocity": 95,
      "chip": "ym2612"
    },
    {
      "channel": 1,
      "note": 61,
      "start": 43.3218,
      "duration": 0.087,
      "velocity": 81,
      "chip": "ym2612"
    },
    {
      "channel": 4,
      "note": 70,
      "start": 43.3246,
      "duration": 0.0875,
      "velocity": 74,
      "chip": "ym2612"
    },
    {
      "channel": 2,
      "note": 40,
      "start": 43.3311,
      "duration": 0.0045,
      "velocity": 114,
      "chip": "ym2612"
    },
    {
      "channel": 2,
      "note": 40,
      "start": 43.3356,
      "duration": 0.0124,
      "velocity": 114,
      "chip": "ym2612"
    },
    {
      "channel": 2,
      "note": 40,
      "start": 43.348,
      "duration": 0.0135,
      "velocity": 114,
      "chip": "ym2612"
    },
    {
      "channel": 2,
      "note": 40,
      "start": 43.3615,
      "duration": 0.0115,
      "velocity": 114,
      "chip": "ym2612"
    },
    {
      "channel": 2,
      "note": 40,
      "start": 43.3731,
      "duration": 0.0125,
      "velocity": 114,
      "chip": "ym2612"
    },
    {
      "channel": 2,
      "note": 40,
      "start": 43.3855,
      "duration": 0.0125,
      "velocity": 114,
      "chip": "ym2612"
    },
    {
      "channel": 2,
      "note": 40,
      "start": 43.398,
      "duration": 0.016,
      "velocity": 114,
      "chip": "ym2612"
    },
    {
      "channel": 1,
      "note": 61,
      "start": 43.4092,
      "duration": 0.1008,
      "velocity": 81,
      "chip": "ym2612"
    },
    {
      "channel": 4,
      "note": 67,
      "start": 43.4126,
      "duration": 0.1016,
      "velocity": 74,
      "chip": "ym2612"
    },
    {
      "channel": 2,
      "note": 40,
      "start": 43.424,
      "duration": 0.0115,
      "velocity": 114,
      "chip": "ym2612"
    },
    {
      "channel": 2,
      "note": 40,
      "start": 43.4355,
      "duration": 0.0125,
      "velocity": 114,
      "chip": "ym2612"
    },
    {
      "channel": 2,
      "note": 40,
      "start": 43.448,
      "duration": 0.0135,
      "velocity": 114,
      "chip": "ym2612"
    },
    {
      "channel": 2,
      "note": 40,
      "start": 43.4615,
      "duration": 0.0115,
      "velocity": 114,
      "chip": "ym2612"
    },
    {
      "channel": 2,
      "note": 40,
      "start": 43.473,
      "duration": 0.0125,
      "velocity": 114,
      "chip": "ym2612"
    },
    {
      "channel": 2,
      "note": 40,
      "start": 43.4855,
      "duration": 0.0125,
      "velocity": 114,
      "chip": "ym2612"
    },
    {
      "channel": 2,
      "note": 40,
      "start": 43.498,
      "duration": 0.0181,
      "velocity": 114,
      "chip": "ym2612"
    },
    {
      "channel": 0,
      "note": 91,
      "start": 43.509,
      "duration": 0.3746,
      "velocity": 95,
      "chip": "ym2612"
    },
    {
      "channel": 1,
      "note": 51,
      "start": 43.5105,
      "duration": 0.1857,
      "velocity": 81,
      "chip": "ym2612"
    },
    {
      "channel": 4,
      "note": 61,
      "start": 43.5147,
      "duration": 0.0825,
      "velocity": 74,
      "chip": "ym2612"
    },
    {
      "channel": 2,
      "note": 40,
      "start": 43.524,
      "duration": 0.0115,
      "velocity": 114,
      "chip": "ym2612"
    },
    {
      "channel": 2,
      "note": 40,
      "start": 43.5355,
      "duration": 0.0125,
      "velocity": 114,
      "chip": "ym2612"
    },
    {
      "channel": 2,
      "note": 40,
      "start": 43.548,
      "duration": 0.0135,
      "velocity": 114,
      "chip": "ym2612"
    },
    {
      "channel": 2,
      "note": 40,
      "start": 43.5615,
      "duration": 0.0115,
      "velocity": 114,
      "chip": "ym2612"
    },
    {
      "channel": 2,
      "note": 40,
      "start": 43.573,
      "duration": 0.0125,
      "velocity": 114,
      "chip": "ym2612"
    },
    {
      "channel": 2,
      "note": 40,
      "start": 43.5855,
      "duration": 0.0137,
      "velocity": 114,
      "chip": "ym2612"
    },
    {
      "channel": 4,
      "note": 73,
      "start": 43.5976,
      "duration": 0.1015,
      "velocity": 74,
      "chip": "ym2612"
    },
    {
      "channel": 2,
      "note": 40,
      "start": 43.5992,
      "duration": 0.0117,
      "velocity": 114,
      "chip": "ym2612"
    },
    {
      "channel": 2,
      "note": 40,
      "start": 43.6109,
      "duration": 0.0122,
      "velocity": 114,
      "chip": "ym2612"
    },
    {
      "channel": 2,
      "note": 40,
      "start": 43.6231,
      "duration": 0.0125,
      "velocity": 114,
      "chip": "ym2612"
    },
    {
      "channel": 2,
      "note": 40,
      "start": 43.6355,
      "duration": 0.0137,
      "velocity": 114,
      "chip": "ym2612"
    },
    {
      "channel": 5,
      "note": 91,
      "start": 43.648,
      "duration": 0.3755,
      "velocity": 95,
      "chip": "ym2612"
    },
    {
      "channel": 2,
      "note": 39,
      "start": 43.6493,
      "duration": 0.0116,
      "velocity": 114,
      "chip": "ym2612"
    },
    {
      "channel": 2,
      "note": 39,
      "start": 43.6609,
      "duration": 0.0122,
      "velocity": 114,
      "chip": "ym2612"
    },
    {
      "channel": 2,
      "note": 39,
      "start": 43.6731,
      "duration": 0.0124,
      "velocity": 114,
      "chip": "ym2612"
    },
    {
      "channel": 1,
      "note": 51,
      "start": 43.6967,
      "duration": 0.1878,
      "velocity": 81,
      "chip": "ym2612"
    },
    {
      "channel": 4,
      "note": 75,
      "start": 43.6995,
      "duration": 0.0851,
      "velocity": 74,
      "chip": "ym2612"
    },
    {
      "channel": 2,
      "note": 40,
      "start": 43.7025,
      "duration": 0.0084,
      "velocity": 114,
      "chip": "ym2612"
    },
    {
      "channel": 2,
      "note": 40,
      "start": 43.7109,
      "duration": 0.0121,
      "velocity": 114,
      "chip": "ym2612"
    },
    {
      "channel": 2,
      "note": 40,
      "start": 43.723,
      "duration": 0.0129,
      "velocity": 114,
      "chip": "ym2612"
    },
    {
      "channel": 2,
      "note": 40,
      "start": 43.7359,
      "duration": 0.0121,
      "velocity": 114,
      "chip": "ym2612"
    },
    {
      "channel": 2,
      "note": 40,
      "start": 43.748,
      "duration": 0.0129,
      "velocity": 114,
      "chip": "ym2612"
    },
    {
      "channel": 2,
      "note": 40,
      "start": 43.7609,
      "duration": 0.0121,
      "velocity": 114,
      "chip": "ym2612"
    },
    {
      "channel": 2,
      "note": 40,
      "start": 43.773,
      "duration": 0.0137,
      "velocity": 114,
      "chip": "ym2612"
    },
    {
      "channel": 4,
      "note": 61,
      "start": 43.7851,
      "duration": 0.1024,
      "velocity": 74,
      "chip": "ym2612"
    },
    {
      "channel": 2,
      "note": 40,
      "start": 43.7867,
      "duration": 0.0114,
      "velocity": 114,
      "chip": "ym2612"
    },
    {
      "channel": 2,
      "note": 40,
      "start": 43.798,
      "duration": 0.0129,
      "velocity": 114,
      "chip": "ym2612"
    },
    {
      "channel": 2,
      "note": 40,
      "start": 43.8109,
      "duration": 0.0121,
      "velocity": 114,
      "chip": "ym2612"
    },
    {
      "channel": 2,
      "note": 39,
      "start": 43.823,
      "duration": 0.0125,
      "velocity": 114,
      "chip": "ym2612"
    },
    {
      "channel": 2,
      "note": 39,
      "start": 43.8355,
      "duration": 0.0125,
      "velocity": 114,
      "chip": "ym2612"
    },
    {
      "channel": 2,
      "note": 39,
      "start": 43.848,
      "duration": 0.0124,
      "velocity": 114,
      "chip": "ym2612"
    },
    {
      "channel": 0,
      "note": 91,
      "start": 43.8836,
      "duration": 0.0126,
      "velocity": 95,
      "chip": "ym2612"
    },
    {
      "channel": 1,
      "note": 51,
      "start": 43.8851,
      "duration": 0.187,
      "velocity": 81,
      "chip": "ym2612"
    },
    {
      "channel": 4,
      "note": 72,
      "start": 43.8879,
      "duration": 0.0859,
      "velocity": 74,
      "chip": "ym2612"
    },
    {
      "channel": 2,
      "note": 41,
      "start": 43.8937,
      "duration": 0.0841,
      "velocity": 122,
      "chip": "ym2612"
    },
    {
      "channel": 0,
      "note": 91,
      "start": 43.8962,
      "duration": 0.0125,
      "velocity": 95,
      "chip": "ym2612"
    },
    {
      "channel": 0,
      "note": 91,
      "start": 43.9087,
      "duration": 0.0125,
      "velocity": 95,
      "chip": "ym2612"
    },
    {
      "channel": 0,
      "note": 91,
      "start": 43.9212,
      "duration": 0.0125,
      "velocity": 95,
      "chip": "ym2612"
    },
    {
      "channel": 0,
      "note": 91,
      "start": 43.9336,
      "duration": 0.0126,
      "velocity": 95,
      "chip": "ym2612"
    },
    {
      "channel": 0,
      "note": 91,
      "start": 43.9462,
      "duration": 0.0125,
      "velocity": 95,
      "chip": "ym2612"
    },
    {
      "channel": 0,
      "note": 91,
      "start": 43.9587,
      "duration": 0.0125,
      "velocity": 95,
      "chip": "ym2612"
    },
    {
      "channel": 0,
      "note": 91,
      "start": 43.9712,
      "duration": 0.0125,
      "velocity": 95,
      "chip": "ym2612"
    },
    {
      "channel": 4,
      "note": 73,
      "start": 43.9743,
      "duration": 0.0998,
      "velocity": 74,
      "chip": "ym2612"
    },
    {
      "channel": 2,
      "note": 40,
      "start": 43.9807,
      "duration": 0.0057,
      "velocity": 114,
      "chip": "ym2612"
    },
    {
      "channel": 0,
      "note": 91,
      "start": 43.9837,
      "duration": 0.0125,
      "velocity": 95,
      "chip": "ym2612"
    },
    {
      "channel": 2,
      "note": 40,
      "start": 43.9864,
      "duration": 0.0125,
      "velocity": 114,
      "chip": "ym2612"
    },
    {
      "channel": 0,
      "note": 91,
      "start": 43.9962,
      "duration": 0.0125,
      "velocity": 95,
      "chip": "ym2612"
    },
    {
      "channel": 2,
      "note": 40,
      "start": 43.999,
      "duration": 0.0135,
      "velocity": 114,
      "chip": "ym2612"
    },
    {
      "channel": 0,
      "note": 91,
      "start": 44.0087,
      "duration": 0.0125,
      "velocity": 95,
      "chip": "ym2612"
    },
    {
      "channel": 2,
      "note": 40,
      "start": 44.0124,
      "duration": 0.0124,
      "velocity": 114,
      "chip": "ym2612"
    },
    {
      "channel": 0,
      "note": 91,
      "start": 44.0212,
      "duration": 0.0125,
      "velocity": 95,
      "chip": "ym2612"
    },
    {
      "channel": 5,
      "note": 91,
      "start": 44.0236,
      "duration": 0.0125,
      "velocity": 95,
      "chip": "ym2612"
    },
    {
      "channel": 2,
      "note": 40,
      "start": 44.0249,
      "duration": 0.0124,
      "velocity": 114,
      "chip": "ym2612"
    },
    {
      "channel": 0,
      "note": 91,
      "start": 44.0336,
      "duration": 0.0126,
      "velocity": 95,
      "chip": "ym2612"
    },
    {
      "channel": 5,
      "note": 91,
      "start": 44.036,
      "duration": 0.0125,
      "velocity": 95,
      "chip": "ym2612"
    },
    {
      "channel": 2,
      "note": 40,
      "start": 44.0373,
      "duration": 0.0125,
      "velocity": 114,
      "chip": "ym2612"
    },
    {
      "channel": 0,
      "note": 91,
      "start": 44.0462,
      "duration": 0.0125,
      "velocity": 95,
      "chip": "ym2612"
    },
    {
      "channel": 5,
      "note": 91,
      "start": 44.0486,
      "duration": 0.0131,
      "velocity": 95,
      "chip": "ym2612"
    },
    {
      "channel": 2,
      "note": 40,
      "start": 44.0498,
      "duration": 0.0131,
      "velocity": 114,
      "chip": "ym2612"
    },
    {
      "channel": 0,
      "note": 91,
      "start": 44.0587,
      "duration": 0.0125,
      "velocity": 95,
      "chip": "ym2612"
    },
    {
      "channel": 5,
      "note": 91,
      "start": 44.0617,
      "duration": 0.0142,
      "velocity": 95,
      "chip": "ym2612"
    },
    {
      "channel": 2,
      "note": 40,
      "start": 44.0629,
      "duration": 0.0142,
      "velocity": 114,
      "chip": "ym2612"
    },
    {
      "channel": 0,
      "note": 91,
      "start": 44.0712,
      "duration": 0.0125,
      "velocity": 95,
      "chip": "ym2612"
    },
    {
      "channel": 1,
      "note": 51,
      "start": 44.0726,
      "duration": 0.187,
      "velocity": 81,
      "chip": "ym2612"
    },
    {
      "channel": 4,
      "note": 61,
      "start": 44.0746,
      "duration": 0.0862,
      "velocity": 74,
      "chip": "ym2612"
    },
    {
      "channel": 5,
      "note": 91,
      "start": 44.0759,
      "duration": 0.0102,
      "velocity": 95,
      "chip": "ym2612"
    },
    {
      "channel": 2,
      "note": 40,
      "start": 44.0771,
      "duration": 0.0102,
      "velocity": 114,
      "chip": "ym2612"
    },
    {
      "channel": 0,
      "note": 91,
      "start": 44.0836,
      "duration": 0.0126,
      "velocity": 95,
      "chip": "ym2612"
    },
    {
      "channel": 5,
      "note": 91,
      "start": 44.086,
      "duration": 0.0125,
      "velocity": 95,
      "chip": "ym2612"
    },
    {
      "channel": 2,
      "note": 40,
      "start": 44.0873,
      "duration": 0.0125,
      "velocity": 114,
      "chip": "ym2612"
    },
    {
      "channel": 0,
      "note": 91,
      "start": 44.0962,
      "duration": 0.0125,
      "velocity": 95,
      "chip": "ym2612"
    },
    {
      "channel": 5,
      "note": 91,
      "start": 44.0986,
      "duration": 0.0131,
      "velocity": 95,
      "chip": "ym2612"
    },
    {
      "channel": 2,
      "note": 39,
      "start": 44.0998,
      "duration": 0.0131,
      "velocity": 114,
      "chip": "ym2612"
    },
    {
      "channel": 0,
      "note": 91,
      "start": 44.1087,
      "duration": 0.0125,
      "velocity": 95,
      "chip": "ym2612"
    },
    {
      "channel": 5,
      "note": 91,
      "start": 44.1117,
      "duration": 0.0119,
      "velocity": 95,
      "chip": "ym2612"
    },
    {
      "channel": 2,
      "note": 39,
      "start": 44.1129,
      "duration": 0.0119,
      "velocity": 114,
      "chip": "ym2612"
    },
    {
      "channel": 0,
      "note": 91,
      "start": 44.1212,
      "duration": 0.0125,
      "velocity": 95,
      "chip": "ym2612"
    },
    {
      "channel": 5,
      "note": 91,
      "start": 44.1236,
      "duration": 0.0125,
      "velocity": 95,
      "chip": "ym2612"
    },
    {
      "channel": 2,
      "note": 39,
      "start": 44.1249,
      "duration": 0.0124,
      "velocity": 114,
      "chip": "ym2612"
    },
    {
      "channel": 0,
      "note": 91,
      "start": 44.1336,
      "duration": 0.0126,
      "velocity": 95,
      "chip": "ym2612"
    },
    {
      "channel": 5,
      "note": 91,
      "start": 44.136,
      "duration": 0.0125,
      "velocity": 95,
      "chip": "ym2612"
    },
    {
      "channel": 0,
      "note": 91,
      "start": 44.1462,
      "duration": 0.0125,
      "velocity": 95,
      "chip": "ym2612"
    },
    {
      "channel": 5,
      "note": 91,
      "start": 44.1486,
      "duration": 0.0142,
      "velocity": 95,
      "chip": "ym2612"
    },
    {
      "channel": 0,
      "note": 91,
      "start": 44.1587,
      "duration": 0.0125,
      "velocity": 95,
      "chip": "ym2612"
    },
    {
      "channel": 4,
      "note": 70,
      "start": 44.1616,
      "duration": 0.1015,
      "velocity": 74,
      "chip": "ym2612"
    },
    {
      "channel": 5,
      "note": 91,
      "start": 44.1628,
      "duration": 0.0107,
      "velocity": 95,
      "chip": "ym2612"
    },
    {
      "channel": 0,
      "note": 91,
      "start": 44.1712,
      "duration": 0.0125,
      "velocity": 95,
      "chip": "ym2612"
    },
    {
      "channel": 5,
      "note": 91,
      "start": 44.1736,
      "duration": 0.0125,
      "velocity": 95,
      "chip": "ym2612"
    },
    {
      "channel": 0,
      "note": 91,
      "start": 44.1836,
      "duration": 0.0126,
      "velocity": 95,
      "chip": "ym2612"
    },
    {
      "channel": 5,
      "note": 91,
      "start": 44.186,
      "duration": 0.0125,
      "velocity": 95,
      "chip": "ym2612"
    },
    {
      "channel": 0,
      "note": 91,
      "start": 44.1962,
      "duration": 0.0125,
      "velocity": 95,
      "chip": "ym2612"
    },
    {
      "channel": 5,
      "note": 91,
      "start": 44.1986,
      "duration": 0.0131,
      "velocity": 95,
      "chip": "ym2612"
    },
    {
      "channel": 0,
      "note": 91,
      "start": 44.2087,
      "duration": 0.0125,
      "velocity": 95,
      "chip": "ym2612"
    },
    {
      "channel": 5,
      "note": 91,
      "start": 44.2117,
      "duration": 0.0119,
      "velocity": 95,
      "chip": "ym2612"
    },
    {
      "channel": 0,
      "note": 91,
      "start": 44.2212,
      "duration": 0.0125,
      "velocity": 95,
      "chip": "ym2612"
    },
    {
      "channel": 5,
      "note": 91,
      "start": 44.2236,
      "duration": 0.0125,
      "velocity": 95,
      "chip": "ym2612"
    },
    {
      "channel": 0,
      "note": 91,
      "start": 44.2336,
      "duration": 0.0126,
      "velocity": 95,
      "chip": "ym2612"
    },
    {
      "channel": 5,
      "note": 91,
      "start": 44.236,
      "duration": 0.0125,
      "velocity": 95,
      "chip": "ym2612"
    },
    {
      "channel": 0,
      "note": 91,
      "start": 44.2462,
      "duration": 0.0125,
      "velocity": 95,
      "chip": "ym2612"
    },
    {
      "channel": 5,
      "note": 91,
      "start": 44.2486,
      "duration": 0.0161,
      "velocity": 95,
      "chip": "ym2612"
    },
    {
      "channel": 0,
      "note": 91,
      "start": 44.2587,
      "duration": 0.0125,
      "velocity": 95,
      "chip": "ym2612"
    },
    {
      "channel": 1,
      "note": 51,
      "start": 44.2601,
      "duration": 0.1871,
      "velocity": 81,
      "chip": "ym2612"
    },
    {
      "channel": 4,
      "note": 72,
      "start": 44.2635,
      "duration": 0.0845,
      "velocity": 74,
      "chip": "ym2612"
    },
    {
      "channel": 5,
      "note": 91,
      "start": 44.2647,
      "duration": 0.0088,
      "velocity": 95,
      "chip": "ym2612"
    },
    {
      "channel": 2,
      "note": 40,
      "start": 44.2674,
      "duration": 0.0075,
      "velocity": 114,
      "chip": "ym2612"
    },
    {
      "channel": 0,
      "note": 91,
      "start": 44.2712,
      "duration": 0.0125,
      "velocity": 95,
      "chip": "ym2612"
    },
    {
      "channel": 5,
      "note": 91,
      "start": 44.2736,
      "duration": 0.0125,
      "velocity": 95,
      "chip": "ym2612"
    },
    {
      "channel": 2,
      "note": 40,
      "start": 44.2749,
      "duration": 0.0124,
      "velocity": 114,
      "chip": "ym2612"
    },
    {
      "channel": 0,
      "note": 91,
      "start": 44.2836,
      "duration": 0.0126,
      "velocity": 95,
      "chip": "ym2612"
    },
    {
      "channel": 5,
      "note": 91,
      "start": 44.286,
      "duration": 0.0125,
      "velocity": 95,
      "chip": "ym2612"
    },
    {
      "channel": 2,
      "note": 40,
      "start": 44.2873,
      "duration": 0.0129,
      "velocity": 114,
      "chip": "ym2612"
    },
    {
      "channel": 0,
      "note": 91,
      "start": 44.2962,
      "duration": 0.0125,
      "velocity": 95,
      "chip": "ym2612"
    },
    {
      "channel": 5,
      "note": 91,
      "start": 44.2986,
      "duration": 0.0131,
      "velocity": 95,
      "chip": "ym2612"
    },
    {
      "channel": 2,
      "note": 40,
      "start": 44.3002,
      "duration": 0.0127,
      "velocity": 114,
      "chip": "ym2612"
    },
    {
      "channel": 0,
      "note": 91,
      "start": 44.3087,
      "duration": 0.0125,
      "velocity": 95,
      "chip": "ym2612"
    },
    {
      "channel": 5,
      "note": 91,
      "start": 44.3117,
      "duration": 0.0119,
      "velocity": 95,
      "chip": "ym2612"
    },
    {
      "channel": 2,
      "note": 40,
      "start": 44.3129,
      "duration": 0.0119,
      "velocity": 114,
      "chip": "ym2612"
    },
    {
      "channel": 0,
      "note": 91,
      "start": 44.3212,
      "duration": 0.0125,
      "velocity": 95,
      "chip": "ym2612"
    },
    {
      "channel": 5,
      "note": 91,
      "start": 44.3236,
      "duration": 0.0125,
      "velocity": 95,
      "chip": "ym2612"
    },
    {
      "channel": 2,
      "note": 40,
      "start": 44.3249,
      "duration": 0.0124,
      "velocity": 114,
      "chip": "ym2612"
    },
    {
      "channel": 0,
      "note": 91,
      "start": 44.3336,
      "duration": 0.0126,
      "velocity": 95,
      "chip": "ym2612"
    },
    {
      "channel": 5,
      "note": 91,
      "start": 44.336,
      "duration": 0.0137,
      "velocity": 95,
      "chip": "ym2612"
    },
    {
      "channel": 2,
      "note": 40,
      "start": 44.3373,
      "duration": 0.0137,
      "velocity": 114,
      "chip": "ym2612"
    },
    {
      "channel": 0,
      "note": 91,
      "start": 44.3462,
      "duration": 0.0125,
      "velocity": 95,
      "chip": "ym2612"
    },
    {
      "channel": 4,
      "note": 61,
      "start": 44.3485,
      "duration": 0.1015,
      "velocity": 74,
      "chip": "ym2612"
    },
    {
      "channel": 5,
      "note": 91,
      "start": 44.3497,
      "duration": 0.012,
      "velocity": 95,
      "chip": "ym2612"
    },
    {
      "channel": 2,
      "note": 40,
      "start": 44.351,
      "duration": 0.012,
      "velocity": 114,
      "chip": "ym2612"
    },
    {
      "channel": 0,
      "note": 91,
      "start": 44.3587,
      "duration": 0.0125,
      "velocity": 95,
      "chip": "ym2612"
    },
    {
      "channel": 5,
      "note": 91,
      "start": 44.3617,
      "duration": 0.0119,
      "velocity": 95,
      "chip": "ym2612"
    },
    {
      "channel": 2,
      "note": 40,
      "start": 44.3629,
      "duration": 0.0119,
      "velocity": 114,
      "chip": "ym2612"
    },
    {
      "channel": 0,
      "note": 91,
      "start": 44.3712,
      "duration": 0.0125,
      "velocity": 95,
      "chip": "ym2612"
    },
    {
      "channel": 5,
      "note": 91,
      "start": 44.3736,
      "duration": 0.0125,
      "velocity": 95,
      "chip": "ym2612"
    },
    {
      "channel": 2,
      "note": 40,
      "start": 44.3749,
      "duration": 0.0124,
      "velocity": 114,
      "chip": "ym2612"
    },
    {
      "channel": 0,
      "note": 91,
      "start": 44.3837,
      "duration": 0.0125,
      "velocity": 95,
      "chip": "ym2612"
    },
    {
      "channel": 5,
      "note": 91,
      "start": 44.386,
      "duration": 0.0125,
      "velocity": 95,
      "chip": "ym2612"
    },
    {
      "channel": 2,
      "note": 39,
      "start": 44.3873,
      "duration": 0.0125,
      "velocity": 114,
      "chip": "ym2612"
    },
    {
      "channel": 0,
      "note": 91,
      "start": 44.3962,
      "duration": 0.0125,
      "velocity": 95,
      "chip": "ym2612"
    },
    {
      "channel": 5,
      "note": 91,
      "start": 44.3986,
      "duration": 0.0131,
      "velocity": 95,
      "chip": "ym2612"
    },
    {
      "channel": 2,
      "note": 39,
      "start": 44.3998,
      "duration": 0.0131,
      "velocity": 114,
      "chip": "ym2612"
    },
    {
      "channel": 0,
      "note": 91,
      "start": 44.4087,
      "duration": 0.0125,
      "velocity": 95,
      "chip": "ym2612"
    },
    {
      "channel": 5,
      "note": 91,
      "start": 44.4117,
      "duration": 0.0119,
      "velocity": 95,
      "chip": "ym2612"
    },
    {
      "channel": 2,
      "note": 39,
      "start": 44.4129,
      "duration": 0.0118,
      "velocity": 114,
      "chip": "ym2612"
    },
    {
      "channel": 0,
      "note": 91,
      "start": 44.4212,
      "duration": 0.0125,
      "velocity": 95,
      "chip": "ym2612"
    },
    {
      "channel": 5,
      "note": 91,
      "start": 44.4236,
      "duration": 0.0125,
      "velocity": 95,
      "chip": "ym2612"
    },
    {
      "channel": 0,
      "note": 91,
      "start": 44.4336,
      "duration": 0.0126,
      "velocity": 95,
      "chip": "ym2612"
    },
    {
      "channel": 5,
      "note": 91,
      "start": 44.436,
      "duration": 0.0156,
      "velocity": 95,
      "chip": "ym2612"
    },
    {
      "channel": 0,
      "note": 91,
      "start": 44.4462,
      "duration": 0.0125,
      "velocity": 95,
      "chip": "ym2612"
    },
    {
      "channel": 1,
      "note": 63,
      "start": 44.4476,
      "duration": 0.087,
      "velocity": 81,
      "chip": "ym2612"
    },
    {
      "channel": 4,
      "note": 68,
      "start": 44.4505,
      "duration": 0.0861,
      "velocity": 74,
      "chip": "ym2612"
    },
    {
      "channel": 5,
      "note": 91,
      "start": 44.4517,
      "duration": 0.01,
      "velocity": 95,
      "chip": "ym2612"
    },
    {
      "channel": 2,
      "note": 40,
      "start": 44.4544,
      "duration": 0.0086,
      "velocity": 114,
      "chip": "ym2612"
    },
    {
      "channel": 0,
      "note": 91,
      "start": 44.4587,
      "duration": 0.0125,
      "velocity": 95,
      "chip": "ym2612"
    },
    {
      "channel": 5,
      "note": 91,
      "start": 44.4617,
      "duration": 0.0119,
      "velocity": 95,
      "chip": "ym2612"
    },
    {
      "channel": 2,
      "note": 40,
      "start": 44.4629,
      "duration": 0.0119,
      "velocity": 114,
      "chip": "ym2612"
    },
    {
      "channel": 0,
      "note": 91,
      "start": 44.4712,
      "duration": 0.0125,
      "velocity": 95,
      "chip": "ym2612"
    },
    {
      "channel": 5,
      "note": 91,
      "start": 44.4736,
      "duration": 0.0125,
      "velocity": 95,
      "chip": "ym2612"
    },
    {
      "channel": 2,
      "note": 40,
      "start": 44.4749,
      "duration": 0.0128,
      "velocity": 114,
      "chip": "ym2612"
    },
    {
      "channel": 0,
      "note": 91,
      "start": 44.4836,
      "duration": 0.0126,
      "velocity": 95,
      "chip": "ym2612"
    },
    {
      "channel": 5,
      "note": 91,
      "start": 44.486,
      "duration": 0.0125,
      "velocity": 95,
      "chip": "ym2612"
    },
    {
      "channel": 2,
      "note": 40,
      "start": 44.4877,
      "duration": 0.0122,
      "velocity": 114,
      "chip": "ym2612"
    },
    {
      "channel": 0,
      "note": 91,
      "start": 44.4962,
      "duration": 0.0125,
      "velocity": 95,
      "chip": "ym2612"
    },
    {
      "channel": 5,
      "note": 91,
      "start": 44.4986,
      "duration": 0.0131,
      "velocity": 95,
      "chip": "ym2612"
    },
    {
      "channel": 2,
      "note": 40,
      "start": 44.4998,
      "duration": 0.0131,
      "velocity": 114,
      "chip": "ym2612"
    },
    {
      "channel": 0,
      "note": 91,
      "start": 44.5087,
      "duration": 0.0125,
      "velocity": 95,
      "chip": "ym2612"
    },
    {
      "channel": 5,
      "note": 91,
      "start": 44.5117,
      "duration": 0.0119,
      "velocity": 95,
      "chip": "ym2612"
    },
    {
      "channel": 2,
      "note": 40,
      "start": 44.5129,
      "duration": 0.0119,
      "velocity": 114,
      "chip": "ym2612"
    },
    {
      "channel": 0,
      "note": 91,
      "start": 44.5212,
      "duration": 0.0125,
      "velocity": 95,
      "chip": "ym2612"
    },
    {
      "channel": 5,
      "note": 91,
      "start": 44.5236,
      "duration": 0.0148,
      "velocity": 95,
      "chip": "ym2612"
    },
    {
      "channel": 2,
      "note": 40,
      "start": 44.5249,
      "duration": 0.0147,
      "velocity": 114,
      "chip": "ym2612"
    },
    {
      "channel": 0,
      "note": 91,
      "start": 44.5336,
      "duration": 0.0126,
      "velocity": 95,
      "chip": "ym2612"
    },
    {
      "channel": 1,
      "note": 63,
      "start": 44.5351,
      "duration": 0.0996,
      "velocity": 81,
      "chip": "ym2612"
    },
    {
      "channel": 4,
      "note": 70,
      "start": 44.5371,
      "duration": 0.1003,
      "velocity": 74,
      "chip": "ym2612"
    },
    {
      "channel": 5,
      "note": 91,
      "start": 44.5383,
      "duration": 0.0102,
      "velocity": 95,
      "chip": "ym2612"
    },
    {
      "channel": 2,
      "note": 40,
      "start": 44.5396,
      "duration": 0.0102,
      "velocity": 114,
      "chip": "ym2612"
    },
    {
      "channel": 0,
      "note": 91,
      "start": 44.5462,
      "duration": 0.0125,
      "velocity": 95,
      "chip": "ym2612"
    },
    {
      "channel": 5,
      "note": 91,
      "start": 44.5486,
      "duration": 0.0131,
      "velocity": 95,
      "chip": "ym2612"
    },
    {
      "channel": 2,
      "note": 40,
      "start": 44.5498,
      "duration": 0.0131,
      "velocity": 114,
      "chip": "ym2612"
    },
    {
      "channel": 0,
      "note": 91,
      "start": 44.5587,
      "duration": 0.0125,
      "velocity": 95,
      "chip": "ym2612"
    },
    {
      "channel": 5,
      "note": 91,
      "start": 44.5617,
      "duration": 0.0119,
      "velocity": 95,
      "chip": "ym2612"
    },
    {
      "channel": 2,
      "note": 40,
      "start": 44.5629,
      "duration": 0.0119,
      "velocity": 114,
      "chip": "ym2612"
    },
    {
      "channel": 0,
      "note": 91,
      "start": 44.5712,
      "duration": 0.0125,
      "velocity": 95,
      "chip": "ym2612"
    },
    {
      "channel": 5,
      "note": 91,
      "start": 44.5736,
      "duration": 0.0125,
      "velocity": 95,
      "chip": "ym2612"
    },
    {
      "channel": 2,
      "note": 39,
      "start": 44.5749,
      "duration": 0.0124,
      "velocity": 114,
      "chip": "ym2612"
    },
    {
      "channel": 0,
      "note": 91,
      "start": 44.5836,
      "duration": 0.0126,
      "velocity": 95,
      "chip": "ym2612"
    },
    {
      "channel": 5,
      "note": 91,
      "start": 44.586,
      "duration": 0.0125,
      "velocity": 95,
      "chip": "ym2612"
    },
    {
      "channel": 2,
      "note": 39,
      "start": 44.5873,
      "duration": 0.0125,
      "velocity": 114,
      "chip": "ym2612"
    },
    {
      "channel": 0,
      "note": 91,
      "start": 44.5962,
      "duration": 0.0125,
      "velocity": 95,
      "chip": "ym2612"
    },
    {
      "channel": 5,
      "note": 91,
      "start": 44.5986,
      "duration": 0.0131,
      "velocity": 95,
      "chip": "ym2612"
    },
    {
      "channel": 2,
      "note": 39,
      "start": 44.5998,
      "duration": 0.013,
      "velocity": 114,
      "chip": "ym2612"
    },
    {
      "channel": 0,
      "note": 91,
      "start": 44.6087,
      "duration": 0.0125,
      "velocity": 95,
      "chip": "ym2612"
    },
    {
      "channel": 5,
      "note": 91,
      "start": 44.6117,
      "duration": 0.0119,
      "velocity": 95,
      "chip": "ym2612"
    },
    {
      "channel": 0,
      "note": 91,
      "start": 44.6212,
      "duration": 0.0125,
      "velocity": 95,
      "chip": "ym2612"
    },
    {
      "channel": 5,
      "note": 91,
      "start": 44.6236,
      "duration": 0.0156,
      "velocity": 95,
      "chip": "ym2612"
    },
    {
      "channel": 0,
      "note": 91,
      "start": 44.6337,
      "duration": 0.0133,
      "velocity": 95,
      "chip": "ym2612"
    },
    {
      "channel": 1,
      "note": 51,
      "start": 44.6351,
      "duration": 0.1876,
      "velocity": 81,
      "chip": "ym2612"
    },
    {
      "channel": 4,
      "note": 61,
      "start": 44.6379,
      "duration": 0.0858,
      "velocity": 74,
      "chip": "ym2612"
    },
    {
      "channel": 5,
      "note": 91,
      "start": 44.6392,
      "duration": 0.0102,
      "velocity": 95,
      "chip": "ym2612"
    },
    {
      "channel": 2,
      "note": 41,
      "start": 44.6452,
      "duration": 0.1855,
      "velocity": 122,
      "chip": "ym2612"
    },
    {
      "channel": 0,
      "note": 91,
      "start": 44.647,
      "duration": 0.0125,
      "velocity": 95,
      "chip": "ym2612"
    },
    {
      "channel": 5,
      "note": 91,
      "start": 44.6494,
      "duration": 0.0131,
      "velocity": 95,
      "chip": "ym2612"
    },
    {
      "channel": 0,
      "note": 91,
      "start": 44.6595,
      "duration": 0.0125,
      "velocity": 95,
      "chip": "ym2612"
    },
    {
      "channel": 5,
      "note": 91,
      "start": 44.6625,
      "duration": 0.0119,
      "velocity": 95,
      "chip": "ym2612"
    },
    {
      "channel": 0,
      "note": 91,
      "start": 44.672,
      "duration": 0.0125,
      "velocity": 95,
      "chip": "ym2612"
    },
    {
      "channel": 5,
      "note": 91,
      "start": 44.6744,
      "duration": 0.0125,
      "velocity": 95,
      "chip": "ym2612"
    },
    {
      "channel": 0,
      "note": 91,
      "start": 44.6844,
      "duration": 0.0125,
      "velocity": 95,
      "chip": "ym2612"
    },
    {
      "channel": 5,
      "note": 91,
      "start": 44.6869,
      "duration": 0.0125,
      "velocity": 95,
      "chip": "ym2612"
    },
    {
      "channel": 0,
      "note": 91,
      "start": 44.6969,
      "duration": 0.0125,
      "velocity": 95,
      "chip": "ym2612"
    },
    {
      "channel": 5,
      "note": 91,
      "start": 44.6993,
      "duration": 0.0131,
      "velocity": 95,
      "chip": "ym2612"
    },
    {
      "channel": 0,
      "note": 91,
      "start": 44.7095,
      "duration": 0.0124,
      "velocity": 95,
      "chip": "ym2612"
    },
    {
      "channel": 5,
      "note": 91,
      "start": 44.7124,
      "duration": 0.0131,
      "velocity": 95,
      "chip": "ym2612"
    },
    {
      "channel": 0,
      "note": 91,
      "start": 44.7219,
      "duration": 0.0125,
      "velocity": 95,
      "chip": "ym2612"
    },
    {
      "channel": 4,
      "note": 67,
      "start": 44.7243,
      "duration": 0.1013,
      "velocity": 74,
      "chip": "ym2612"
    },
    {
      "channel": 5,
      "note": 91,
      "start": 44.7255,
      "duration": 0.0113,
      "velocity": 95,
      "chip": "ym2612"
    },
    {
      "channel": 0,
      "note": 91,
      "start": 44.7344,
      "duration": 0.0125,
      "velocity": 95,
      "chip": "ym2612"
    },
    {
      "channel": 5,
      "note": 91,
      "start": 44.7368,
      "duration": 0.0125,
      "velocity": 95,
      "chip": "ym2612"
    },
    {
      "channel": 0,
      "note": 91,
      "start": 44.7468,
      "duration": 0.0125,
      "velocity": 95,
      "chip": "ym2612"
    },
    {
      "channel": 5,
      "note": 91,
      "start": 44.7493,
      "duration": 0.0131,
      "velocity": 95,
      "chip": "ym2612"
    },
    {
      "channel": 0,
      "note": 91,
      "start": 44.7594,
      "duration": 0.0125,
      "velocity": 95,
      "chip": "ym2612"
    },
    {
      "channel": 5,
      "note": 91,
      "start": 44.7624,
      "duration": 0.0119,
      "velocity": 95,
      "chip": "ym2612"
    },
    {
      "channel": 0,
      "note": 91,
      "start": 44.7719,
      "duration": 0.0125,
      "velocity": 95,
      "chip": "ym2612"
    },
    {
      "channel": 5,
      "note": 91,
      "start": 44.7743,
      "duration": 0.0125,
      "velocity": 95,
      "chip": "ym2612"
    },
    {
      "channel": 0,
      "note": 91,
      "start": 44.7844,
      "duration": 0.0125,
      "velocity": 95,
      "chip": "ym2612"
    },
    {
      "channel": 5,
      "note": 91,
      "start": 44.7868,
      "duration": 0.0124,
      "velocity": 95,
      "chip": "ym2612"
    },
    {
      "channel": 0,
      "note": 91,
      "start": 44.7968,
      "duration": 0.0125,
      "velocity": 95,
      "chip": "ym2612"
    },
    {
      "channel": 5,
      "note": 91,
      "start": 44.7992,
      "duration": 0.0131,
      "velocity": 95,
      "chip": "ym2612"
    },
    {
      "channel": 0,
      "note": 91,
      "start": 44.8093,
      "duration": 0.0125,
      "velocity": 95,
      "chip": "ym2612"
    },
    {
      "channel": 5,
      "note": 91,
      "start": 44.8123,
      "duration": 0.0153,
      "velocity": 95,
      "chip": "ym2612"
    },
    {
      "channel": 0,
      "note": 91,
      "start": 44.8218,
      "duration": 0.0134,
      "velocity": 95,
      "chip": "ym2612"
    },
    {
      "channel": 1,
      "note": 63,
      "start": 44.8232,
      "duration": 0.0884,
      "velocity": 81,
      "chip": "ym2612"
    },
    {
      "channel": 4,
      "note": 68,
      "start": 44.8261,
      "duration": 0.0884,
      "velocity": 74,
      "chip": "ym2612"
    },
    {
      "channel": 5,
      "note": 91,
      "start": 44.8276,
      "duration": 0.0099,
      "velocity": 95,
      "chip": "ym2612"
    },
    {
      "channel": 2,
      "note": 40,
      "start": 44.8334,
      "duration": 0.0054,
      "velocity": 114,
      "chip": "ym2612"
    },
    {
      "channel": 0,
      "note": 91,
      "start": 44.8352,
      "duration": 0.0125,
      "velocity": 95,
      "chip": "ym2612"
    },
    {
      "channel": 5,
      "note": 91,
      "start": 44.8376,
      "duration": 0.0125,
      "velocity": 95,
      "chip": "ym2612"
    },
    {
      "channel": 2,
      "note": 40,
      "start": 44.8388,
      "duration": 0.0125,
      "velocity": 114,
      "chip": "ym2612"
    },
    {
      "channel": 0,
      "note": 91,
      "start": 44.8477,
      "duration": 0.0124,
      "velocity": 95,
      "chip": "ym2612"
    },
    {
      "channel": 5,
      "note": 91,
      "start": 44.8501,
      "duration": 0.013,
      "velocity": 95,
      "chip": "ym2612"
    },
    {
      "channel": 2,
      "note": 40,
      "start": 44.8514,
      "duration": 0.0134,
      "velocity": 114,
      "chip": "ym2612"
    },
    {
      "channel": 0,
      "note": 91,
      "start": 44.8601,
      "duration": 0.0125,
      "velocity": 95,
      "chip": "ym2612"
    },
    {
      "channel": 5,
      "note": 91,
      "start": 44.8631,
      "duration": 0.0119,
      "velocity": 95,
      "chip": "ym2612"
    },
    {
      "channel": 2,
      "note": 40,
      "start": 44.8648,
      "duration": 0.0115,
      "velocity": 114,
      "chip": "ym2612"
    },
    {
      "channel": 0,
      "note": 91,
      "start": 44.8726,
      "duration": 0.0125,
      "velocity": 95,
      "chip": "ym2612"
    },
    {
      "channel": 5,
      "note": 91,
      "start": 44.875,
      "duration": 0.0125,
      "velocity": 95,
      "chip": "ym2612"
    },
    {
      "channel": 2,
      "note": 40,
      "start": 44.8763,
      "duration": 0.0125,
      "velocity": 114,
      "chip": "ym2612"
    },
    {
      "channel": 0,
      "note": 91,
      "start": 44.8851,
      "duration": 0.0125,
      "velocity": 95,
      "chip": "ym2612"
    },
    {
      "channel": 5,
      "note": 91,
      "start": 44.8875,
      "duration": 0.0125,
      "velocity": 95,
      "chip": "ym2612"
    },
    {
      "channel": 2,
      "note": 40,
      "start": 44.8888,
      "duration": 0.0125,
      "velocity": 114,
      "chip": "ym2612"
    },
    {
      "channel": 0,
      "note": 91,
      "start": 44.8976,
      "duration": 0.0125,
      "velocity": 95,
      "chip": "ym2612"
    },
    {
      "channel": 5,
      "note": 91,
      "start": 44.9,
      "duration": 0.0161,
      "velocity": 95,
      "chip": "ym2612"
    },
    {
      "channel": 2,
      "note": 40,
      "start": 44.9013,
      "duration": 0.016,
      "velocity": 114,
      "chip": "ym2612"
    },
    {
      "channel": 0,
      "note": 91,
      "start": 44.9101,
      "duration": 0.0125,
      "velocity": 95,
      "chip": "ym2612"
    },
    {
      "channel": 1,
      "note": 63,
      "start": 44.9121,
      "duration": 0.0994,
      "velocity": 81,
      "chip": "ym2612"
    },
    {
      "channel": 4,
      "note": 65,
      "start": 44.9149,
      "duration": 0.1002,
      "velocity": 74,
      "chip": "ym2612"
    },
    {
      "channel": 5,
      "note": 91,
      "start": 44.9161,
      "duration": 0.0089,
      "velocity": 95,
      "chip": "ym2612"
    },
    {
      "channel": 0,
      "note": 91,
      "start": 44.9226,
      "duration": 0.0125,
      "velocity": 95,
      "chip": "ym2612"
    },
    {
      "channel": 5,
      "note": 91,
      "start": 44.925,
      "duration": 0.0125,
      "velocity": 95,
      "chip": "ym2612"
    },
    {
      "channel": 2,
      "note": 40,
      "start": 44.9276,
      "duration": 0.0111,
      "velocity": 114,
      "chip": "ym2612"
    },
    {
      "channel": 0,
      "note": 91,
      "start": 44.9351,
      "duration": 0.0125,
      "velocity": 95,
      "chip": "ym2612"
    },
    {
      "channel": 5,
      "note": 91,
      "start": 44.9375,
      "duration": 0.0125,
      "velocity": 95,
      "chip": "ym2612"
    },
    {
      "channel": 2,
      "note": 40,
      "start": 44.9388,
      "duration": 0.0125,
      "velocity": 114,
      "chip": "ym2612"
    },
    {
      "channel": 0,
      "note": 91,
      "start": 44.9476,
      "duration": 0.0125,
      "velocity": 95,
      "chip": "ym2612"
    },
    {
      "channel": 5,
      "note": 91,
      "start": 44.95,
      "duration": 0.013,
      "velocity": 95,
      "chip": "ym2612"
    },
    {
      "channel": 2,
      "note": 40,
      "start": 44.9512,
      "duration": 0.0134,
      "velocity": 114,
      "chip": "ym2612"
    },
    {
      "channel": 0,
      "note": 91,
      "start": 44.96,
      "duration": 0.0125,
      "velocity": 95,
      "chip": "ym2612"
    },
    {
      "channel": 5,
      "note": 91,
      "start": 44.963,
      "duration": 0.0119,
      "velocity": 95,
      "chip": "ym2612"
    },
    {
      "channel": 2,
      "note": 40,
      "start": 44.9647,
      "duration": 0.0115,
      "velocity": 114,
      "chip": "ym2612"
    },
    {
      "channel": 0,
      "note": 91,
      "start": 44.9725,
      "duration": 0.0125,
      "velocity": 95,
      "chip": "ym2612"
    },
    {
      "channel": 5,
      "note": 91,
      "start": 44.9749,
      "duration": 0.0125,
      "velocity": 95,
      "chip": "ym2612"
    },
    {
      "channel": 2,
      "note": 40,
      "start": 44.9762,
      "duration": 0.0125,
      "velocity": 114,
      "chip": "ym2612"
    },
    {
      "channel": 0,
      "note": 91,
      "start": 44.985,
      "duration": 0.0125,
      "velocity": 95,
      "chip": "ym2612"
    },
    {
      "channel": 5,
      "note": 91,
      "start": 44.9874,
      "duration": 0.0125,
      "velocity": 95,
      "chip": "ym2612"
    },
    {
      "channel": 2,
      "note": 40,
      "start": 44.9886,
      "duration": 0.0125,
      "velocity": 114,
      "chip": "ym2612"
    },
    {
      "channel": 0,
      "note": 91,
      "start": 44.9975,
      "duration": 0.0125,
      "velocity": 95,
      "chip": "ym2612"
    },
    {
      "channel": 5,
      "note": 91,
      "start": 44.9999,
      "duration": 0.0168,
      "velocity": 95,
      "chip": "ym2612"
    },
    {
      "channel": 2,
      "note": 40,
      "start": 45.0012,
      "duration": 0.0167,
      "velocity": 114,
      "chip": "ym2612"
    },
    {
      "channel": 0,
      "note": 91,
      "start": 45.01,
      "duration": 0.0125,
      "velocity": 95,
      "chip": "ym2612"
    },
    {
      "channel": 1,
      "note": 51,
      "start": 45.012,
      "duration": 0.1865,
      "velocity": 81,
      "chip": "ym2612"
    },
    {
      "channel": 4,
      "note": 61,
      "start": 45.0156,
      "duration": 0.0837,
      "velocity": 74,
      "chip": "ym2612"
    },
    {
      "channel": 5,
      "note": 91,
      "start": 45.0168,
      "duration": 0.0081,
      "velocity": 95,
      "chip": "ym2612"
    },
    {
      "channel": 0,
      "note": 91,
      "start": 45.0224,
      "duration": 0.0125,
      "velocity": 95,
      "chip": "ym2612"
    },
    {
      "channel": 5,
      "note": 91,
      "start": 45.0249,
      "duration": 0.0124,
      "velocity": 95,
      "chip": "ym2612"
    },
    {
      "channel": 2,
      "note": 40,
      "start": 45.0271,
      "duration": 0.0115,
      "velocity": 114,
      "chip": "ym2612"
    },
    {
      "channel": 0,
      "note": 91,
      "start": 45.035,
      "duration": 0.0124,
      "velocity": 95,
      "chip": "ym2612"
    },
    {
      "channel": 5,
      "note": 91,
      "start": 45.0373,
      "duration": 0.0125,
      "velocity": 95,
      "chip": "ym2612"
    },
    {
      "channel": 2,
      "note": 40,
      "start": 45.0386,
      "duration": 0.0125,
      "velocity": 114,
      "chip": "ym2612"
    },
    {
      "channel": 0,
      "note": 91,
      "start": 45.0474,
      "duration": 0.0125,
      "velocity": 95,
      "chip": "ym2612"
    },
    {
      "channel": 5,
      "note": 91,
      "start": 45.0498,
      "duration": 0.013,
      "velocity": 95,
      "chip": "ym2612"
    },
    {
      "channel": 2,
      "note": 40,
      "start": 45.0511,
      "duration": 0.0134,
      "velocity": 114,
      "chip": "ym2612"
    },
    {
      "channel": 0,
      "note": 91,
      "start": 45.0599,
      "duration": 0.0125,
      "velocity": 95,
      "chip": "ym2612"
    },
    {
      "channel": 5,
      "note": 91,
      "start": 45.0629,
      "duration": 0.012,
      "velocity": 95,
      "chip": "ym2612"
    },
    {
      "channel": 2,
      "note": 40,
      "start": 45.0645,
      "duration": 0.0116,
      "velocity": 114,
      "chip": "ym2612"
    },
    {
      "channel": 0,
      "note": 91,
      "start": 45.0724,
      "duration": 0.0125,
      "velocity": 95,
      "chip": "ym2612"
    },
    {
      "channel": 5,
      "note": 91,
      "start": 45.0749,
      "duration": 0.0124,
      "velocity": 95,
      "chip": "ym2612"
    },
    {
      "channel": 2,
      "note": 40,
      "start": 45.0761,
      "duration": 0.0124,
      "velocity": 114,
      "chip": "ym2612"
    },
    {
      "channel": 0,
      "note": 91,
      "start": 45.0849,
      "duration": 0.0125,
      "velocity": 95,
      "chip": "ym2612"
    },
    {
      "channel": 5,
      "note": 91,
      "start": 45.0873,
      "duration": 0.0136,
      "velocity": 95,
      "chip": "ym2612"
    },
    {
      "channel": 2,
      "note": 40,
      "start": 45.0886,
      "duration": 0.0136,
      "velocity": 114,
      "chip": "ym2612"
    },
    {
      "channel": 0,
      "note": 91,
      "start": 45.0974,
      "duration": 0.0124,
      "velocity": 95,
      "chip": "ym2612"
    },
    {
      "channel": 4,
      "note": 73,
      "start": 45.0997,
      "duration": 0.1017,
      "velocity": 74,
      "chip": "ym2612"
    },
    {
      "channel": 5,
      "note": 91,
      "start": 45.1009,
      "duration": 0.012,
      "velocity": 95,
      "chip": "ym2612"
    },
    {
      "channel": 2,
      "note": 40,
      "start": 45.1021,
      "duration": 0.012,
      "velocity": 114,
      "chip": "ym2612"
    },
    {
      "channel": 0,
      "note": 91,
      "start": 45.1098,
      "duration": 0.0125,
      "velocity": 95,
      "chip": "ym2612"
    },
    {
      "channel": 5,
      "note": 91,
      "start": 45.1128,
      "duration": 0.0119,
      "velocity": 95,
      "chip": "ym2612"
    },
    {
      "channel": 2,
      "note": 40,
      "start": 45.1141,
      "duration": 0.0119,
      "velocity": 114,
      "chip": "ym2612"
    },
    {
      "channel": 0,
      "note": 91,
      "start": 45.1223,
      "duration": 0.0125,
      "velocity": 95,
      "chip": "ym2612"
    },
    {
      "channel": 5,
      "note": 91,
      "start": 45.1247,
      "duration": 0.0125,
      "velocity": 95,
      "chip": "ym2612"
    },
    {
      "channel": 2,
      "note": 40,
      "start": 45.126,
      "duration": 0.0125,
      "velocity": 114,
      "chip": "ym2612"
    },
    {
      "channel": 0,
      "note": 91,
      "start": 45.1348,
      "duration": 0.0125,
      "velocity": 95,
      "chip": "ym2612"
    },
    {
      "channel": 5,
      "note": 91,
      "start": 45.1372,
      "duration": 0.0125,
      "velocity": 95,
      "chip": "ym2612"
    },
    {
      "channel": 2,
      "note": 40,
      "start": 45.1385,
      "duration": 0.0125,
      "velocity": 114,
      "chip": "ym2612"
    },
    {
      "channel": 0,
      "note": 91,
      "start": 45.1473,
      "duration": 0.0125,
      "velocity": 95,
      "chip": "ym2612"
    },
    {
      "channel": 5,
      "note": 91,
      "start": 45.1497,
      "duration": 0.013,
      "velocity": 95,
      "chip": "ym2612"
    },
    {
      "channel": 2,
      "note": 39,
      "start": 45.151,
      "duration": 0.013,
      "velocity": 114,
      "chip": "ym2612"
    },
    {
      "channel": 0,
      "note": 91,
      "start": 45.1598,
      "duration": 0.0124,
      "velocity": 95,
      "chip": "ym2612"
    },
    {
      "channel": 5,
      "note": 91,
      "start": 45.1627,
      "duration": 0.0119,
      "velocity": 95,
      "chip": "ym2612"
    },
    {
      "channel": 2,
      "note": 39,
      "start": 45.164,
      "duration": 0.0119,
      "velocity": 114,
      "chip": "ym2612"
    },
    {
      "channel": 0,
      "note": 91,
      "start": 45.1722,
      "duration": 0.0125,
      "velocity": 95,
      "chip": "ym2612"
    },
    {
      "channel": 5,
      "note": 91,
      "start": 45.1746,
      "duration": 0.0125,
      "velocity": 95,
      "chip": "ym2612"
    },
    {
      "channel": 2,
      "note": 39,
      "start": 45.1759,
      "duration": 0.0124,
      "velocity": 114,
      "chip": "ym2612"
    },
    {
      "channel": 0,
      "note": 91,
      "start": 45.1847,
      "duration": 0.0124,
      "velocity": 95,
      "chip": "ym2612"
    },
    {
      "channel": 5,
      "note": 91,
      "start": 45.1871,
      "duration": 0.0159,
      "velocity": 95,
      "chip": "ym2612"
    },
    {
      "channel": 0,
      "note": 87,
      "start": 45.1976,
      "duration": 0.1867,
      "velocity": 95,
      "chip": "ym2612"
    },
    {
      "channel": 1,
      "note": 51,
      "start": 45.199,
      "duration": 0.1867,
      "velocity": 81,
      "chip": "ym2612"
    },
    {
      "channel": 4,
      "note": 75,
      "start": 45.2018,
      "duration": 0.0837,
      "velocity": 74,
      "chip": "ym2612"
    },
    {
      "channel": 5,
      "note": 91,
      "start": 45.203,
      "duration": 0.0088,
      "velocity": 95,
      "chip": "ym2612"
    },
    {
      "channel": 2,
      "note": 40,
      "start": 45.2057,
      "duration": 0.0074,
      "velocity": 114,
      "chip": "ym2612"
    },
    {
      "channel": 5,
      "note": 91,
      "start": 45.2118,
      "duration": 0.0119,
      "velocity": 95,
      "chip": "ym2612"
    },
    {
      "channel": 2,
      "note": 40,
      "start": 45.2131,
      "duration": 0.0119,
      "velocity": 114,
      "chip": "ym2612"
    },
    {
      "channel": 5,
      "note": 91,
      "start": 45.2237,
      "duration": 0.0125,
      "velocity": 95,
      "chip": "ym2612"
    },
    {
      "channel": 2,
      "note": 40,
      "start": 45.225,
      "duration": 0.0129,
      "velocity": 114,
      "chip": "ym2612"
    },
    {
      "channel": 5,
      "note": 91,
      "start": 45.2362,
      "duration": 0.0125,
      "velocity": 95,
      "chip": "ym2612"
    },
    {
      "channel": 2,
      "note": 40,
      "start": 45.2378,
      "duration": 0.0121,
      "velocity": 114,
      "chip": "ym2612"
    },
    {
      "channel": 5,
      "note": 91,
      "start": 45.2486,
      "duration": 0.0131,
      "velocity": 95,
      "chip": "ym2612"
    },
    {
      "channel": 2,
      "note": 40,
      "start": 45.2499,
      "duration": 0.0131,
      "velocity": 114,
      "chip": "ym2612"
    },
    {
      "channel": 5,
      "note": 91,
      "start": 45.2617,
      "duration": 0.0119,
      "velocity": 95,
      "chip": "ym2612"
    },
    {
      "channel": 2,
      "note": 40,
      "start": 45.263,
      "duration": 0.0119,
      "velocity": 114,
      "chip": "ym2612"
    },
    {
      "channel": 5,
      "note": 91,
      "start": 45.2736,
      "duration": 0.0136,
      "velocity": 95,
      "chip": "ym2612"
    },
    {
      "channel": 2,
      "note": 40,
      "start": 45.2749,
      "duration": 0.0136,
      "velocity": 114,
      "chip": "ym2612"
    },
    {
      "channel": 4,
      "note": 61,
      "start": 45.286,
      "duration": 0.1025,
      "velocity": 74,
      "chip": "ym2612"
    },
    {
      "channel": 5,
      "note": 91,
      "start": 45.2873,
      "duration": 0.0114,
      "velocity": 95,
      "chip": "ym2612"
    },
    {
      "channel": 2,
      "note": 40,
      "start": 45.2885,
      "duration": 0.0113,
      "velocity": 114,
      "chip": "ym2612"
    },
    {
      "channel": 5,
      "note": 91,
      "start": 45.2986,
      "duration": 0.013,
      "velocity": 95,
      "chip": "ym2612"
    },
    {
      "channel": 2,
      "note": 40,
      "start": 45.2998,
      "duration": 0.0131,
      "velocity": 114,
      "chip": "ym2612"
    },
    {
      "channel": 5,
      "note": 91,
      "start": 45.3117,
      "duration": 0.0119,
      "velocity": 95,
      "chip": "ym2612"
    },
    {
      "channel": 2,
      "note": 40,
      "start": 45.3129,
      "duration": 0.0119,
      "velocity": 114,
      "chip": "ym2612"
    },
    {
      "channel": 5,
      "note": 91,
      "start": 45.3236,
      "duration": 0.0124,
      "velocity": 95,
      "chip": "ym2612"
    },
    {
      "channel": 2,
      "note": 39,
      "start": 45.3249,
      "duration": 0.0128,
      "velocity": 114,
      "chip": "ym2612"
    },
    {
      "channel": 5,
      "note": 87,
      "start": 45.3364,
      "duration": 0.1868,
      "velocity": 95,
      "chip": "ym2612"
    },
    {
      "channel": 2,
      "note": 39,
      "start": 45.3376,
      "duration": 0.0113,
      "velocity": 114,
      "chip": "ym2612"
    },
    {
      "channel": 2,
      "note": 39,
      "start": 45.3489,
      "duration": 0.013,
      "velocity": 114,
      "chip": "ym2612"
    },
    {
      "channel": 0,
      "note": 82,
      "start": 45.3847,
      "duration": 0.187,
      "velocity": 95,
      "chip": "ym2612"
    },
    {
      "channel": 1,
      "note": 51,
      "start": 45.3862,
      "duration": 0.187,
      "velocity": 81,
      "chip": "ym2612"
    },
    {
      "channel": 4,
      "note": 72,
      "start": 45.389,
      "duration": 0.0848,
      "velocity": 74,
      "chip": "ym2612"
    },
    {
      "channel": 2,
      "note": 41,
      "start": 45.3953,
      "duration": 0.0824,
      "velocity": 122,
      "chip": "ym2612"
    },
    {
      "channel": 4,
      "note": 73,
      "start": 45.4743,
      "duration": 0.101,
      "velocity": 74,
      "chip": "ym2612"
    },
    {
      "channel": 2,
      "note": 40,
      "start": 45.4807,
      "duration": 0.0056,
      "velocity": 114,
      "chip": "ym2612"
    },
    {
      "channel": 2,
      "note": 40,
      "start": 45.4863,
      "duration": 0.0125,
      "velocity": 114,
      "chip": "ym2612"
    },
    {
      "channel": 2,
      "note": 40,
      "start": 45.4988,
      "duration": 0.0135,
      "velocity": 114,
      "chip": "ym2612"
    },
    {
      "channel": 2,
      "note": 40,
      "start": 45.5123,
      "duration": 0.0127,
      "velocity": 114,
      "chip": "ym2612"
    },
    {
      "channel": 5,
      "note": 82,
      "start": 45.5237,
      "duration": 0.1871,
      "velocity": 95,
      "chip": "ym2612"
    },
    {
      "channel": 2,
      "note": 40,
      "start": 45.525,
      "duration": 0.0113,
      "velocity": 114,
      "chip": "ym2612"
    },
    {
      "channel": 2,
      "note": 40,
      "start": 45.5363,
      "duration": 0.0125,
      "velocity": 114,
      "chip": "ym2612"
    },
    {
      "channel": 2,
      "note": 40,
      "start": 45.5488,
      "duration": 0.0131,
      "velocity": 114,
      "chip": "ym2612"
    },
    {
      "channel": 2,
      "note": 40,
      "start": 45.5619,
      "duration": 0.0157,
      "velocity": 114,
      "chip": "ym2612"
    },
    {
      "channel": 0,
      "note": 87,
      "start": 45.5722,
      "duration": 0.1866,
      "velocity": 95,
      "chip": "ym2612"
    },
    {
      "channel": 1,
      "note": 51,
      "start": 45.5736,
      "duration": 0.1867,
      "velocity": 81,
      "chip": "ym2612"
    },
    {
      "channel": 4,
      "note": 61,
      "start": 45.5757,
      "duration": 0.0845,
      "velocity": 74,
      "chip": "ym2612"
    },
    {
      "channel": 2,
      "note": 40,
      "start": 45.5776,
      "duration": 0.0087,
      "velocity": 114,
      "chip": "ym2612"
    },
    {
      "channel": 2,
      "note": 40,
      "start": 45.5862,
      "duration": 0.0125,
      "velocity": 114,
      "chip": "ym2612"
    },
    {
      "channel": 2,
      "note": 39,
      "start": 45.5987,
      "duration": 0.0131,
      "velocity": 114,
      "chip": "ym2612"
    },
    {
      "channel": 2,
      "note": 39,
      "start": 45.6118,
      "duration": 0.0119,
      "velocity": 114,
      "chip": "ym2612"
    },
    {
      "channel": 2,
      "note": 39,
      "start": 45.6237,
      "duration": 0.0124,
      "velocity": 114,
      "chip": "ym2612"
    },
    {
      "channel": 4,
      "note": 70,
      "start": 45.661,
      "duration": 0.1027,
      "velocity": 74,
      "chip": "ym2612"
    },
    {
      "channel": 5,
      "note": 87,
      "start": 45.7116,
      "duration": 0.1861,
      "velocity": 95,
      "chip": "ym2612"
    },
    {
      "channel": 0,
      "note": 91,
      "start": 45.7594,
      "duration": 0.1869,
      "velocity": 95,
      "chip": "ym2612"
    },
    {
      "channel": 1,
      "note": 51,
      "start": 45.7612,
      "duration": 0.1865,
      "velocity": 81,
      "chip": "ym2612"
    },
    {
      "channel": 4,
      "note": 72,
      "start": 45.7642,
      "duration": 0.0833,
      "velocity": 74,
      "chip": "ym2612"
    },
    {
      "channel": 2,
      "note": 40,
      "start": 45.7672,
      "duration": 0.0063,
      "velocity": 114,
      "chip": "ym2612"
    },
    {
      "channel": 2,
      "note": 40,
      "start": 45.7735,
      "duration": 0.0124,
      "velocity": 114,
      "chip": "ym2612"
    },
    {
      "channel": 2,
      "note": 40,
      "start": 45.786,
      "duration": 0.0129,
      "velocity": 114,
      "chip": "ym2612"
    },
    {
      "channel": 2,
      "note": 40,
      "start": 45.7988,
      "duration": 0.0127,
      "velocity": 114,
      "chip": "ym2612"
    },
    {
      "channel": 2,
      "note": 40,
      "start": 45.8115,
      "duration": 0.0119,
      "velocity": 114,
      "chip": "ym2612"
    },
    {
      "channel": 2,
      "note": 40,
      "start": 45.8234,
      "duration": 0.0125,
      "velocity": 114,
      "chip": "ym2612"
    },
    {
      "channel": 2,
      "note": 40,
      "start": 45.8359,
      "duration": 0.0136,
      "velocity": 114,
      "chip": "ym2612"
    },
    {
      "channel": 4,
      "note": 61,
      "start": 45.848,
      "duration": 0.1025,
      "velocity": 74,
      "chip": "ym2612"
    },
    {
      "channel": 2,
      "note": 40,
      "start": 45.8495,
      "duration": 0.012,
      "velocity": 114,
      "chip": "ym2612"
    },
    {
      "channel": 2,
      "note": 40,
      "start": 45.8615,
      "duration": 0.0119,
      "velocity": 114,
      "chip": "ym2612"
    },
    {
      "channel": 2,
      "note": 40,
      "start": 45.8734,
      "duration": 0.0125,
      "velocity": 114,
      "chip": "ym2612"
    },
    {
      "channel": 2,
      "note": 39,
      "start": 45.8859,
      "duration": 0.0137,
      "velocity": 114,
      "chip": "ym2612"
    },
    {
      "channel": 5,
      "note": 91,
      "start": 45.8983,
      "duration": 0.1868,
      "velocity": 95,
      "chip": "ym2612"
    },
    {
      "channel": 2,
      "note": 39,
      "start": 45.8995,
      "duration": 0.0119,
      "velocity": 114,
      "chip": "ym2612"
    },
    {
      "channel": 2,
      "note": 39,
      "start": 45.9114,
      "duration": 0.0118,
      "velocity": 114,
      "chip": "ym2612"
    },
    {
      "channel": 0,
      "note": 92,
      "start": 45.9467,
      "duration": 0.3742,
      "velocity": 95,
      "chip": "ym2612"
    },
    {
      "channel": 1,
      "note": 63,
      "start": 45.9482,
      "duration": 0.0856,
      "velocity": 81,
      "chip": "ym2612"
    },
    {
      "channel": 4,
      "note": 68,
      "start": 45.951,
      "duration": 0.0849,
      "velocity": 74,
      "chip": "ym2612"
    },
    {
      "channel": 2,
      "note": 40,
      "start": 45.954,
      "duration": 0.0071,
      "velocity": 114,
      "chip": "ym2612"
    },
    {
      "channel": 2,
      "note": 40,
      "start": 45.9611,
      "duration": 0.0121,
      "velocity": 114,
      "chip": "ym2612"
    },
    {
      "channel": 2,
      "note": 40,
      "start": 45.9732,
      "duration": 0.0129,
      "velocity": 114,
      "chip": "ym2612"
    },
    {
      "channel": 2,
      "note": 40,
      "start": 45.9861,
      "duration": 0.0122,
      "velocity": 114,
      "chip": "ym2612"
    },
    {
      "channel": 2,
      "note": 40,
      "start": 45.9983,
      "duration": 0.0128,
      "velocity": 114,
      "chip": "ym2612"
    },
    {
      "channel": 2,
      "note": 40,
      "start": 46.011,
      "duration": 0.0122,
      "velocity": 114,
      "chip": "ym2612"
    },
    {
      "channel": 2,
      "note": 40,
      "start": 46.0232,
      "duration": 0.0147,
      "velocity": 114,
      "chip": "ym2612"
    },
    {
      "channel": 1,
      "note": 63,
      "start": 46.0343,
      "duration": 0.0994,
      "velocity": 81,
      "chip": "ym2612"
    },
    {
      "channel": 4,
      "note": 70,
      "start": 46.0363,
      "duration": 0.1002,
      "velocity": 74,
      "chip": "ym2612"
    },
    {
      "channel": 2,
      "note": 40,
      "start": 46.0379,
      "duration": 0.0102,
      "velocity": 114,
      "chip": "ym2612"
    },
    {
      "channel": 2,
      "note": 40,
      "start": 46.0482,
      "duration": 0.0128,
      "velocity": 114,
      "chip": "ym2612"
    },
    {
      "channel": 2,
      "note": 40,
      "start": 46.061,
      "duration": 0.0122,
      "velocity": 114,
      "chip": "ym2612"
    },
    {
      "channel": 2,
      "note": 39,
      "start": 46.0731,
      "duration": 0.0137,
      "velocity": 114,
      "chip": "ym2612"
    },
    {
      "channel": 5,
      "note": 92,
      "start": 46.0856,
      "duration": 0.3745,
      "velocity": 95,
      "chip": "ym2612"
    },
    {
      "channel": 2,
      "note": 39,
      "start": 46.0869,
      "duration": 0.0112,
      "velocity": 114,
      "chip": "ym2612"
    },
    {
      "channel": 2,
      "note": 39,
      "start": 46.098,
      "duration": 0.0125,
      "velocity": 114,
      "chip": "ym2612"
    },
    {
      "channel": 1,
      "note": 51,
      "start": 46.1342,
      "duration": 0.1882,
      "velocity": 81,
      "chip": "ym2612"
    },
    {
      "channel": 4,
      "note": 61,
      "start": 46.1371,
      "duration": 0.0851,
      "velocity": 74,
      "chip": "ym2612"
    },
    {
      "channel": 2,
      "note": 41,
      "start": 46.1428,
      "duration": 0.1866,
      "velocity": 122,
      "chip": "ym2612"
    },
    {
      "channel": 4,
      "note": 67,
      "start": 46.2226,
      "duration": 0.1026,
      "velocity": 74,
      "chip": "ym2612"
    },
    {
      "channel": 0,
      "note": 91,
      "start": 46.3215,
      "duration": 0.187,
      "velocity": 95,
      "chip": "ym2612"
    },
    {
      "channel": 1,
      "note": 63,
      "start": 46.3229,
      "duration": 0.086,
      "velocity": 81,
      "chip": "ym2612"
    },
    {
      "channel": 4,
      "note": 68,
      "start": 46.3257,
      "duration": 0.0866,
      "velocity": 74,
      "chip": "ym2612"
    },
    {
      "channel": 2,
      "note": 40,
      "start": 46.3322,
      "duration": 0.0036,
      "velocity": 114,
      "chip": "ym2612"
    },
    {
      "channel": 2,
      "note": 40,
      "start": 46.3358,
      "duration": 0.0125,
      "velocity": 114,
      "chip": "ym2612"
    },
    {
      "channel": 2,
      "note": 40,
      "start": 46.3483,
      "duration": 0.0135,
      "velocity": 114,
      "chip": "ym2612"
    },
    {
      "channel": 2,
      "note": 40,
      "start": 46.3617,
      "duration": 0.0115,
      "velocity": 114,
      "chip": "ym2612"
    },
    {
      "channel": 2,
      "note": 40,
      "start": 46.3732,
      "duration": 0.0125,
      "velocity": 114,
      "chip": "ym2612"
    },
    {
      "channel": 2,
      "note": 40,
      "start": 46.3857,
      "duration": 0.0125,
      "velocity": 114,
      "chip": "ym2612"
    },
    {
      "channel": 2,
      "note": 40,
      "start": 46.3982,
      "duration": 0.016,
      "velocity": 114,
      "chip": "ym2612"
    },
    {
      "channel": 1,
      "note": 63,
      "start": 46.4094,
      "duration": 0.1005,
      "velocity": 81,
      "chip": "ym2612"
    },
    {
      "channel": 4,
      "note": 65,
      "start": 46.4127,
      "duration": 0.1014,
      "velocity": 74,
      "chip": "ym2612"
    },
    {
      "channel": 2,
      "note": 40,
      "start": 46.4241,
      "duration": 0.0115,
      "velocity": 114,
      "chip": "ym2612"
    },
    {
      "channel": 2,
      "note": 40,
      "start": 46.4356,
      "duration": 0.0125,
      "velocity": 114,
      "chip": "ym2612"
    },
    {
      "channel": 2,
      "note": 40,
      "start": 46.4481,
      "duration": 0.0147,
      "velocity": 114,
      "chip": "ym2612"
    },
    {
      "channel": 5,
      "note": 91,
      "start": 46.461,
      "duration": 0.1864,
      "velocity": 95,
      "chip": "ym2612"
    },
    {
      "channel": 2,
      "note": 40,
      "start": 46.4628,
      "duration": 0.0103,
      "velocity": 114,
      "chip": "ym2612"
    },
    {
      "channel": 2,
      "note": 40,
      "start": 46.4731,
      "duration": 0.0125,
      "velocity": 114,
      "chip": "ym2612"
    },
    {
      "channel": 2,
      "note": 40,
      "start": 46.4856,
      "duration": 0.0124,
      "velocity": 114,
      "chip": "ym2612"
    },
    {
      "channel": 2,
      "note": 40,
      "start": 46.498,
      "duration": 0.018,
      "velocity": 114,
      "chip": "ym2612"
    },
    {
      "channel": 0,
      "note": 89,
      "start": 46.5089,
      "duration": 0.1873,
      "velocity": 95,
      "chip": "ym2612"
    },
    {
      "channel": 1,
      "note": 53,
      "start": 46.5104,
      "duration": 0.1867,
      "velocity": 81,
      "chip": "ym2612"
    },
    {
      "channel": 4,
      "note": 65,
      "start": 46.5146,
      "duration": 0.0826,
      "velocity": 74,
      "chip": "ym2612"
    },
    {
      "channel": 2,
      "note": 40,
      "start": 46.524,
      "duration": 0.0115,
      "velocity": 114,
      "chip": "ym2612"
    },
    {
      "channel": 2,
      "note": 40,
      "start": 46.5355,
      "duration": 0.0125,
      "velocity": 114,
      "chip": "ym2612"
    },
    {
      "channel": 2,
      "note": 40,
      "start": 46.548,
      "duration": 0.0135,
      "velocity": 114,
      "chip": "ym2612"
    },
    {
      "channel": 2,
      "note": 40,
      "start": 46.5615,
      "duration": 0.0115,
      "velocity": 114,
      "chip": "ym2612"
    },
    {
      "channel": 2,
      "note": 40,
      "start": 46.5731,
      "duration": 0.0125,
      "velocity": 114,
      "chip": "ym2612"
    },
    {
      "channel": 2,
      "note": 40,
      "start": 46.5855,
      "duration": 0.0137,
      "velocity": 114,
      "chip": "ym2612"
    },
    {
      "channel": 4,
      "note": 75,
      "start": 46.5976,
      "duration": 0.1024,
      "velocity": 74,
      "chip": "ym2612"
    },
    {
      "channel": 2,
      "note": 40,
      "start": 46.5992,
      "duration": 0.0117,
      "velocity": 114,
      "chip": "ym2612"
    },
    {
      "channel": 2,
      "note": 40,
      "start": 46.6109,
      "duration": 0.0121,
      "velocity": 114,
      "chip": "ym2612"
    },
    {
      "channel": 2,
      "note": 40,
      "start": 46.623,
      "duration": 0.0125,
      "velocity": 114,
      "chip": "ym2612"
    },
    {
      "channel": 2,
      "note": 40,
      "start": 46.6355,
      "duration": 0.0137,
      "velocity": 114,
      "chip": "ym2612"
    },
    {
      "channel": 5,
      "note": 89,
      "start": 46.6479,
      "duration": 0.1872,
      "velocity": 95,
      "chip": "ym2612"
    },
    {
      "channel": 2,
      "note": 39,
      "start": 46.6492,
      "duration": 0.0117,
      "velocity": 114,
      "chip": "ym2612"
    },
    {
      "channel": 2,
      "note": 39,
      "start": 46.6609,
      "duration": 0.0121,
      "velocity": 114,
      "chip": "ym2612"
    },
    {
      "channel": 2,
      "note": 39,
      "start": 46.673,
      "duration": 0.0125,
      "velocity": 114,
      "chip": "ym2612"
    },
    {
      "channel": 0,
      "note": 89,
      "start": 46.6962,
      "duration": 0.3749,
      "velocity": 95,
      "chip": "ym2612"
    },
    {
      "channel": 1,
      "note": 53,
      "start": 46.6976,
      "duration": 0.1861,
      "velocity": 81,
      "chip": "ym2612"
    },
    {
      "channel": 4,
      "note": 77,
      "start": 46.7004,
      "duration": 0.0842,
      "velocity": 74,
      "chip": "ym2612"
    },
    {
      "channel": 2,
      "note": 40,
      "start": 46.7034,
      "duration": 0.0075,
      "velocity": 114,
      "chip": "ym2612"
    },
    {
      "channel": 2,
      "note": 40,
      "start": 46.7109,
      "duration": 0.0121,
      "velocity": 114,
      "chip": "ym2612"
    },
    {
      "channel": 2,
      "note": 40,
      "start": 46.723,
      "duration": 0.0129,
      "velocity": 114,
      "chip": "ym2612"
    },
    {
      "channel": 2,
      "note": 40,
      "start": 46.7359,
      "duration": 0.0121,
      "velocity": 114,
      "chip": "ym2612"
    },
    {
      "channel": 2,
      "note": 40,
      "start": 46.748,
      "duration": 0.0128,
      "velocity": 114,
      "chip": "ym2612"
    },
    {
      "channel": 2,
      "note": 40,
      "start": 46.7608,
      "duration": 0.0122,
      "velocity": 114,
      "chip": "ym2612"
    },
    {
      "channel": 2,
      "note": 40,
      "start": 46.773,
      "duration": 0.0137,
      "velocity": 114,
      "chip": "ym2612"
    },
    {
      "channel": 4,
      "note": 65,
      "start": 46.7851,
      "duration": 0.1014,
      "velocity": 74,
      "chip": "ym2612"
    },
    {
      "channel": 2,
      "note": 40,
      "start": 46.7867,
      "duration": 0.0114,
      "velocity": 114,
      "chip": "ym2612"
    },
    {
      "channel": 2,
      "note": 40,
      "start": 46.798,
      "duration": 0.0129,
      "velocity": 114,
      "chip": "ym2612"
    },
    {
      "channel": 2,
      "note": 40,
      "start": 46.8109,
      "duration": 0.0122,
      "velocity": 114,
      "chip": "ym2612"
    },
    {
      "channel": 2,
      "note": 39,
      "start": 46.8231,
      "duration": 0.0134,
      "velocity": 114,
      "chip": "ym2612"
    },
    {
      "channel": 5,
      "note": 89,
      "start": 46.8351,
      "duration": 0.3765,
      "velocity": 95,
      "chip": "ym2612"
    },
    {
      "channel": 2,
      "note": 39,
      "start": 46.8364,
      "duration": 0.0116,
      "velocity": 114,
      "chip": "ym2612"
    },
    {
      "channel": 2,
      "note": 39,
      "start": 46.848,
      "duration": 0.0124,
      "velocity": 114,
      "chip": "ym2612"
    },
    {
      "channel": 1,
      "note": 53,
      "start": 46.8842,
      "duration": 0.1879,
      "velocity": 81,
      "chip": "ym2612"
    },
    {
      "channel": 4,
      "note": 72,
      "start": 46.887,
      "duration": 0.0859,
      "velocity": 74,
      "chip": "ym2612"
    },
    {
      "channel": 2,
      "note": 41,
      "start": 46.8927,
      "duration": 0.0838,
      "velocity": 122,
      "chip": "ym2612"
    },
    {
      "channel": 4,
      "note": 75,
      "start": 46.9734,
      "duration": 0.1008,
      "velocity": 74,
      "chip": "ym2612"
    },
    {
      "channel": 2,
      "note": 40,
      "start": 46.9798,
      "duration": 0.0057,
      "velocity": 114,
      "chip": "ym2612"
    },
    {
      "channel": 2,
      "note": 40,
      "start": 46.9855,
      "duration": 0.0125,
      "velocity": 114,
      "chip": "ym2612"
    },
    {
      "channel": 2,
      "note": 40,
      "start": 46.998,
      "duration": 0.0135,
      "velocity": 114,
      "chip": "ym2612"
    },
    {
      "channel": 2,
      "note": 40,
      "start": 47.0115,
      "duration": 0.0115,
      "velocity": 114,
      "chip": "ym2612"
    },
    {
      "channel": 2,
      "note": 40,
      "start": 47.023,
      "duration": 0.0125,
      "velocity": 114,
      "chip": "ym2612"
    },
    {
      "channel": 2,
      "note": 40,
      "start": 47.0355,
      "duration": 0.0125,
      "velocity": 114,
      "chip": "ym2612"
    },
    {
      "channel": 2,
      "note": 40,
      "start": 47.048,
      "duration": 0.0129,
      "velocity": 114,
      "chip": "ym2612"
    },
    {
      "channel": 2,
      "note": 40,
      "start": 47.0609,
      "duration": 0.0153,
      "velocity": 114,
      "chip": "ym2612"
    },
    {
      "channel": 0,
      "note": 89,
      "start": 47.0712,
      "duration": 0.0125,
      "velocity": 95,
      "chip": "ym2612"
    },
    {
      "channel": 1,
      "note": 53,
      "start": 47.0726,
      "duration": 0.187,
      "velocity": 81,
      "chip": "ym2612"
    },
    {
      "channel": 4,
      "note": 65,
      "start": 47.0746,
      "duration": 0.0862,
      "velocity": 74,
      "chip": "ym2612"
    },
    {
      "channel": 2,
      "note": 40,
      "start": 47.0762,
      "duration": 0.0102,
      "velocity": 114,
      "chip": "ym2612"
    },
    {
      "channel": 0,
      "note": 89,
      "start": 47.0836,
      "duration": 0.0126,
      "velocity": 95,
      "chip": "ym2612"
    },
    {
      "channel": 2,
      "note": 40,
      "start": 47.0864,
      "duration": 0.0125,
      "velocity": 114,
      "chip": "ym2612"
    },
    {
      "channel": 0,
      "note": 89,
      "start": 47.0962,
      "duration": 0.0125,
      "velocity": 95,
      "chip": "ym2612"
    },
    {
      "channel": 2,
      "note": 39,
      "start": 47.099,
      "duration": 0.0131,
      "velocity": 114,
      "chip": "ym2612"
    },
    {
      "channel": 0,
      "note": 89,
      "start": 47.1087,
      "duration": 0.0125,
      "velocity": 95,
      "chip": "ym2612"
    },
    {
      "channel": 2,
      "note": 39,
      "start": 47.1121,
      "duration": 0.0119,
      "velocity": 114,
      "chip": "ym2612"
    },
    {
      "channel": 0,
      "note": 89,
      "start": 47.1212,
      "duration": 0.0125,
      "velocity": 95,
      "chip": "ym2612"
    },
    {
      "channel": 2,
      "note": 39,
      "start": 47.1239,
      "duration": 0.0124,
      "velocity": 114,
      "chip": "ym2612"
    },
    {
      "channel": 0,
      "note": 89,
      "start": 47.1336,
      "duration": 0.0126,
      "velocity": 95,
      "chip": "ym2612"
    },
    {
      "channel": 0,
      "note": 89,
      "start": 47.1462,
      "duration": 0.0125,
      "velocity": 95,
      "chip": "ym2612"
    },
    {
      "channel": 0,
      "note": 89,
      "start": 47.1587,
      "duration": 0.0125,
      "velocity": 95,
      "chip": "ym2612"
    },
    {
      "channel": 4,
      "note": 70,
      "start": 47.1616,
      "duration": 0.1015,
      "velocity": 74,
      "chip": "ym2612"
    },
    {
      "channel": 0,
      "note": 89,
      "start": 47.1712,
      "duration": 0.0125,
      "velocity": 95,
      "chip": "ym2612"
    },
    {
      "channel": 0,
      "note": 89,
      "start": 47.1837,
      "duration": 0.0125,
      "velocity": 95,
      "chip": "ym2612"
    },
    {
      "channel": 0,
      "note": 89,
      "start": 47.1962,
      "duration": 0.0125,
      "velocity": 95,
      "chip": "ym2612"
    },
    {
      "channel": 0,
      "note": 89,
      "start": 47.2087,
      "duration": 0.0125,
      "velocity": 95,
      "chip": "ym2612"
    },
    {
      "channel": 5,
      "note": 89,
      "start": 47.2117,
      "duration": 0.0119,
      "velocity": 95,
      "chip": "ym2612"
    },
    {
      "channel": 0,
      "note": 89,
      "start": 47.2212,
      "duration": 0.0125,
      "velocity": 95,
      "chip": "ym2612"
    },
    {
      "channel": 5,
      "note": 89,
      "start": 47.2236,
      "duration": 0.0125,
      "velocity": 95,
      "chip": "ym2612"
    },
    {
      "channel": 0,
      "note": 89,
      "start": 47.2336,
      "duration": 0.0126,
      "velocity": 95,
      "chip": "ym2612"
    },
    {
      "channel": 5,
      "note": 89,
      "start": 47.236,
      "duration": 0.0126,
      "velocity": 95,
      "chip": "ym2612"
    },
    {
      "channel": 0,
      "note": 89,
      "start": 47.2462,
      "duration": 0.0125,
      "velocity": 95,
      "chip": "ym2612"
    },
    {
      "channel": 5,
      "note": 89,
      "start": 47.2486,
      "duration": 0.0161,
      "velocity": 95,
      "chip": "ym2612"
    },
    {
      "channel": 0,
      "note": 89,
      "start": 47.2587,
      "duration": 0.0125,
      "velocity": 95,
      "chip": "ym2612"
    },
    {
      "channel": 1,
      "note": 53,
      "start": 47.2601,
      "duration": 0.1871,
      "velocity": 81,
      "chip": "ym2612"
    },
    {
      "channel": 4,
      "note": 72,
      "start": 47.2635,
      "duration": 0.0845,
      "velocity": 74,
      "chip": "ym2612"
    },
    {
      "channel": 5,
      "note": 89,
      "start": 47.2647,
      "duration": 0.0088,
      "velocity": 95,
      "chip": "ym2612"
    },
    {
      "channel": 2,
      "note": 40,
      "start": 47.2674,
      "duration": 0.0075,
      "velocity": 114,
      "chip": "ym2612"
    },
    {
      "channel": 0,
      "note": 89,
      "start": 47.2712,
      "duration": 0.0125,
      "velocity": 95,
      "chip": "ym2612"
    },
    {
      "channel": 5,
      "note": 89,
      "start": 47.2736,
      "duration": 0.0125,
      "velocity": 95,
      "chip": "ym2612"
    },
    {
      "channel": 2,
      "note": 40,
      "start": 47.2749,
      "duration": 0.0124,
      "velocity": 114,
      "chip": "ym2612"
    },
    {
      "channel": 0,
      "note": 89,
      "start": 47.2836,
      "duration": 0.0126,
      "velocity": 95,
      "chip": "ym2612"
    },
    {
      "channel": 5,
      "note": 89,
      "start": 47.286,
      "duration": 0.0125,
      "velocity": 95,
      "chip": "ym2612"
    },
    {
      "channel": 2,
      "note": 40,
      "start": 47.2873,
      "duration": 0.0129,
      "velocity": 114,
      "chip": "ym2612"
    },
    {
      "channel": 0,
      "note": 89,
      "start": 47.2962,
      "duration": 0.0125,
      "velocity": 95,
      "chip": "ym2612"
    },
    {
      "channel": 5,
      "note": 89,
      "start": 47.2986,
      "duration": 0.0131,
      "velocity": 95,
      "chip": "ym2612"
    },
    {
      "channel": 2,
      "note": 40,
      "start": 47.3002,
      "duration": 0.0127,
      "velocity": 114,
      "chip": "ym2612"
    },
    {
      "channel": 0,
      "note": 89,
      "start": 47.3087,
      "duration": 0.0125,
      "velocity": 95,
      "chip": "ym2612"
    },
    {
      "channel": 5,
      "note": 89,
      "start": 47.3117,
      "duration": 0.0119,
      "velocity": 95,
      "chip": "ym2612"
    },
    {
      "channel": 2,
      "note": 40,
      "start": 47.3129,
      "duration": 0.0119,
      "velocity": 114,
      "chip": "ym2612"
    },
    {
      "channel": 0,
      "note": 89,
      "start": 47.3212,
      "duration": 0.0125,
      "velocity": 95,
      "chip": "ym2612"
    },
    {
      "channel": 5,
      "note": 89,
      "start": 47.3236,
      "duration": 0.0125,
      "velocity": 95,
      "chip": "ym2612"
    },
    {
      "channel": 2,
      "note": 40,
      "start": 47.3249,
      "duration": 0.0124,
      "velocity": 114,
      "chip": "ym2612"
    },
    {
      "channel": 0,
      "note": 89,
      "start": 47.3336,
      "duration": 0.0126,
      "velocity": 95,
      "chip": "ym2612"
    },
    {
      "channel": 5,
      "note": 89,
      "start": 47.336,
      "duration": 0.0137,
      "velocity": 95,
      "chip": "ym2612"
    },
    {
      "channel": 2,
      "note": 40,
      "start": 47.3373,
      "duration": 0.0137,
      "velocity": 114,
      "chip": "ym2612"
    },
    {
      "channel": 0,
      "note": 89,
      "start": 47.3462,
      "duration": 0.0125,
      "velocity": 95,
      "chip": "ym2612"
    },
    {
      "channel": 4,
      "note": 65,
      "start": 47.3485,
      "duration": 0.1015,
      "velocity": 74,
      "chip": "ym2612"
    },
    {
      "channel": 5,
      "note": 89,
      "start": 47.3497,
      "duration": 0.012,
      "velocity": 95,
      "chip": "ym2612"
    },
    {
      "channel": 2,
      "note": 40,
      "start": 47.351,
      "duration": 0.012,
      "velocity": 114,
      "chip": "ym2612"
    },
    {
      "channel": 0,
      "note": 89,
      "start": 47.3587,
      "duration": 0.0125,
      "velocity": 95,
      "chip": "ym2612"
    },
    {
      "channel": 5,
      "note": 89,
      "start": 47.3617,
      "duration": 0.0119,
      "velocity": 95,
      "chip": "ym2612"
    },
    {
      "channel": 2,
      "note": 40,
      "start": 47.3629,
      "duration": 0.0119,
      "velocity": 114,
      "chip": "ym2612"
    },
    {
      "channel": 0,
      "note": 89,
      "start": 47.3712,
      "duration": 0.0125,
      "velocity": 95,
      "chip": "ym2612"
    },
    {
      "channel": 5,
      "note": 89,
      "start": 47.3736,
      "duration": 0.0125,
      "velocity": 95,
      "chip": "ym2612"
    },
    {
      "channel": 2,
      "note": 40,
      "start": 47.3749,
      "duration": 0.0124,
      "velocity": 114,
      "chip": "ym2612"
    },
    {
      "channel": 0,
      "note": 89,
      "start": 47.3836,
      "duration": 0.0126,
      "velocity": 95,
      "chip": "ym2612"
    },
    {
      "channel": 5,
      "note": 89,
      "start": 47.386,
      "duration": 0.0125,
      "velocity": 95,
      "chip": "ym2612"
    },
    {
      "channel": 2,
      "note": 39,
      "start": 47.3873,
      "duration": 0.0125,
      "velocity": 114,
      "chip": "ym2612"
    },
    {
      "channel": 0,
      "note": 89,
      "start": 47.3962,
      "duration": 0.0125,
      "velocity": 95,
      "chip": "ym2612"
    },
    {
      "channel": 5,
      "note": 89,
      "start": 47.3986,
      "duration": 0.0131,
      "velocity": 95,
      "chip": "ym2612"
    },
    {
      "channel": 2,
      "note": 39,
      "start": 47.3998,
      "duration": 0.0131,
      "velocity": 114,
      "chip": "ym2612"
    },
    {
      "channel": 0,
      "note": 89,
      "start": 47.4087,
      "duration": 0.0125,
      "velocity": 95,
      "chip": "ym2612"
    },
    {
      "channel": 5,
      "note": 89,
      "start": 47.4117,
      "duration": 0.0119,
      "velocity": 95,
      "chip": "ym2612"
    },
    {
      "channel": 2,
      "note": 39,
      "start": 47.4129,
      "duration": 0.0118,
      "velocity": 114,
      "chip": "ym2612"
    },
    {
      "channel": 0,
      "note": 89,
      "start": 47.4212,
      "duration": 0.0125,
      "velocity": 95,
      "chip": "ym2612"
    },
    {
      "channel": 5,
      "note": 89,
      "start": 47.4236,
      "duration": 0.0125,
      "velocity": 95,
      "chip": "ym2612"
    },
    {
      "channel": 0,
      "note": 89,
      "start": 47.4336,
      "duration": 0.0126,
      "velocity": 95,
      "chip": "ym2612"
    },
    {
      "channel": 5,
      "note": 89,
      "start": 47.436,
      "duration": 0.0156,
      "velocity": 95,
      "chip": "ym2612"
    },
    {
      "channel": 0,
      "note": 89,
      "start": 47.4462,
      "duration": 0.0125,
      "velocity": 95,
      "chip": "ym2612"
    },
    {
      "channel": 1,
      "note": 65,
      "start": 47.4476,
      "duration": 0.087,
      "velocity": 81,
      "chip": "ym2612"
    },
    {
      "channel": 4,
      "note": 68,
      "start": 47.4505,
      "duration": 0.0862,
      "velocity": 74,
      "chip": "ym2612"
    },
    {
      "channel": 5,
      "note": 89,
      "start": 47.4517,
      "duration": 0.01,
      "velocity": 95,
      "chip": "ym2612"
    },
    {
      "channel": 2,
      "note": 40,
      "start": 47.4544,
      "duration": 0.0086,
      "velocity": 114,
      "chip": "ym2612"
    },
    {
      "channel": 0,
      "note": 89,
      "start": 47.4587,
      "duration": 0.0125,
      "velocity": 95,
      "chip": "ym2612"
    },
    {
      "channel": 5,
      "note": 89,
      "start": 47.4617,
      "duration": 0.0119,
      "velocity": 95,
      "chip": "ym2612"
    },
    {
      "channel": 2,
      "note": 40,
      "start": 47.4629,
      "duration": 0.0119,
      "velocity": 114,
      "chip": "ym2612"
    },
    {
      "channel": 0,
      "note": 89,
      "start": 47.4712,
      "duration": 0.0125,
      "velocity": 95,
      "chip": "ym2612"
    },
    {
      "channel": 5,
      "note": 89,
      "start": 47.4736,
      "duration": 0.0125,
      "velocity": 95,
      "chip": "ym2612"
    },
    {
      "channel": 2,
      "note": 40,
      "start": 47.4749,
      "duration": 0.0128,
      "velocity": 114,
      "chip": "ym2612"
    },
    {
      "channel": 0,
      "note": 89,
      "start": 47.4836,
      "duration": 0.0126,
      "velocity": 95,
      "chip": "ym2612"
    },
    {
      "channel": 5,
      "note": 89,
      "start": 47.486,
      "duration": 0.0125,
      "velocity": 95,
      "chip": "ym2612"
    },
    {
      "channel": 2,
      "note": 40,
      "start": 47.4877,
      "duration": 0.0122,
      "velocity": 114,
      "chip": "ym2612"
    },
    {
      "channel": 0,
      "note": 89,
      "start": 47.4962,
      "duration": 0.0125,
      "velocity": 95,
      "chip": "ym2612"
    },
    {
      "channel": 5,
      "note": 89,
      "start": 47.4986,
      "duration": 0.0131,
      "velocity": 95,
      "chip": "ym2612"
    },
    {
      "channel": 2,
      "note": 40,
      "start": 47.4998,
      "duration": 0.0131,
      "velocity": 114,
      "chip": "ym2612"
    },
    {
      "channel": 0,
      "note": 89,
      "start": 47.5087,
      "duration": 0.0125,
      "velocity": 95,
      "chip": "ym2612"
    },
    {
      "channel": 5,
      "note": 89,
      "start": 47.5117,
      "duration": 0.0119,
      "velocity": 95,
      "chip": "ym2612"
    },
    {
      "channel": 2,
      "note": 40,
      "start": 47.5129,
      "duration": 0.0119,
      "velocity": 114,
      "chip": "ym2612"
    },
    {
      "channel": 0,
      "note": 89,
      "start": 47.5212,
      "duration": 0.0125,
      "velocity": 95,
      "chip": "ym2612"
    },
    {
      "channel": 5,
      "note": 89,
      "start": 47.5236,
      "duration": 0.0148,
      "velocity": 95,
      "chip": "ym2612"
    },
    {
      "channel": 2,
      "note": 40,
      "start": 47.5249,
      "duration": 0.0147,
      "velocity": 114,
      "chip": "ym2612"
    },
    {
      "channel": 0,
      "note": 89,
      "start": 47.5337,
      "duration": 0.0125,
      "velocity": 95,
      "chip": "ym2612"
    },
    {
      "channel": 1,
      "note": 65,
      "start": 47.5351,
      "duration": 0.0995,
      "velocity": 81,
      "chip": "ym2612"
    },
    {
      "channel": 4,
      "note": 70,
      "start": 47.5371,
      "duration": 0.1003,
      "velocity": 74,
      "chip": "ym2612"
    },
    {
      "channel": 5,
      "note": 89,
      "start": 47.5383,
      "duration": 0.0102,
      "velocity": 95,
      "chip": "ym2612"
    },
    {
      "channel": 2,
      "note": 40,
      "start": 47.5396,
      "duration": 0.0102,
      "velocity": 114,
      "chip": "ym2612"
    },
    {
      "channel": 0,
      "note": 89,
      "start": 47.5462,
      "duration": 0.0125,
      "velocity": 95,
      "chip": "ym2612"
    },
    {
      "channel": 5,
      "note": 89,
      "start": 47.5486,
      "duration": 0.0131,
      "velocity": 95,
      "chip": "ym2612"
    },
    {
      "channel": 2,
      "note": 40,
      "start": 47.5498,
      "duration": 0.0131,
      "velocity": 114,
      "chip": "ym2612"
    },
    {
      "channel": 0,
      "note": 89,
      "start": 47.5587,
      "duration": 0.0125,
      "velocity": 95,
      "chip": "ym2612"
    },
    {
      "channel": 5,
      "note": 89,
      "start": 47.5617,
      "duration": 0.0119,
      "velocity": 95,
      "chip": "ym2612"
    },
    {
      "channel": 2,
      "note": 40,
      "start": 47.5629,
      "duration": 0.0119,
      "velocity": 114,
      "chip": "ym2612"
    },
    {
      "channel": 0,
      "note": 89,
      "start": 47.5712,
      "duration": 0.0125,
      "velocity": 95,
      "chip": "ym2612"
    },
    {
      "channel": 5,
      "note": 89,
      "start": 47.5736,
      "duration": 0.0125,
      "velocity": 95,
      "chip": "ym2612"
    },
    {
      "channel": 2,
      "note": 39,
      "start": 47.5749,
      "duration": 0.0124,
      "velocity": 114,
      "chip": "ym2612"
    },
    {
      "channel": 0,
      "note": 89,
      "start": 47.5836,
      "duration": 0.0126,
      "velocity": 95,
      "chip": "ym2612"
    },
    {
      "channel": 5,
      "note": 89,
      "start": 47.586,
      "duration": 0.0125,
      "velocity": 95,
      "chip": "ym2612"
    },
    {
      "channel": 2,
      "note": 39,
      "start": 47.5873,
      "duration": 0.0125,
      "velocity": 114,
      "chip": "ym2612"
    },
    {
      "channel": 0,
      "note": 89,
      "start": 47.5962,
      "duration": 0.0125,
      "velocity": 95,
      "chip": "ym2612"
    },
    {
      "channel": 5,
      "note": 89,
      "start": 47.5986,
      "duration": 0.0131,
      "velocity": 95,
      "chip": "ym2612"
    },
    {
      "channel": 2,
      "note": 39,
      "start": 47.5998,
      "duration": 0.013,
      "velocity": 114,
      "chip": "ym2612"
    },
    {
      "channel": 0,
      "note": 89,
      "start": 47.6087,
      "duration": 0.0125,
      "velocity": 95,
      "chip": "ym2612"
    },
    {
      "channel": 5,
      "note": 89,
      "start": 47.6117,
      "duration": 0.0119,
      "velocity": 95,
      "chip": "ym2612"
    },
    {
      "channel": 0,
      "note": 89,
      "start": 47.6212,
      "duration": 0.0125,
      "velocity": 95,
      "chip": "ym2612"
    },
    {
      "channel": 5,
      "note": 89,
      "start": 47.6236,
      "duration": 0.0155,
      "velocity": 95,
      "chip": "ym2612"
    },
    {
      "channel": 0,
      "note": 89,
      "start": 47.6336,
      "duration": 0.0133,
      "velocity": 95,
      "chip": "ym2612"
    },
    {
      "channel": 1,
      "note": 53,
      "start": 47.6351,
      "duration": 0.1876,
      "velocity": 81,
      "chip": "ym2612"
    },
    {
      "channel": 4,
      "note": 65,
      "start": 47.6379,
      "duration": 0.0858,
      "velocity": 74,
      "chip": "ym2612"
    },
    {
      "channel": 5,
      "note": 89,
      "start": 47.6391,
      "duration": 0.0102,
      "velocity": 95,
      "chip": "ym2612"
    },
    {
      "channel": 2,
      "note": 41,
      "start": 47.6451,
      "duration": 0.1855,
      "velocity": 122,
      "chip": "ym2612"
    },
    {
      "channel": 0,
      "note": 89,
      "start": 47.6469,
      "duration": 0.0125,
      "velocity": 95,
      "chip": "ym2612"
    },
    {
      "channel": 5,
      "note": 89,
      "start": 47.6493,
      "duration": 0.0131,
      "velocity": 95,
      "chip": "ym2612"
    },
    {
      "channel": 0,
      "note": 89,
      "start": 47.6595,
      "duration": 0.0124,
      "velocity": 95,
      "chip": "ym2612"
    },
    {
      "channel": 5,
      "note": 89,
      "start": 47.6624,
      "duration": 0.0119,
      "velocity": 95,
      "chip": "ym2612"
    },
    {
      "channel": 0,
      "note": 89,
      "start": 47.6719,
      "duration": 0.0125,
      "velocity": 95,
      "chip": "ym2612"
    },
    {
      "channel": 5,
      "note": 89,
      "start": 47.6743,
      "duration": 0.0125,
      "velocity": 95,
      "chip": "ym2612"
    },
    {
      "channel": 0,
      "note": 89,
      "start": 47.6844,
      "duration": 0.0125,
      "velocity": 95,
      "chip": "ym2612"
    },
    {
      "channel": 5,
      "note": 89,
      "start": 47.6868,
      "duration": 0.0125,
      "velocity": 95,
      "chip": "ym2612"
    },
    {
      "channel": 0,
      "note": 89,
      "start": 47.6968,
      "duration": 0.0125,
      "velocity": 95,
      "chip": "ym2612"
    },
    {
      "channel": 5,
      "note": 89,
      "start": 47.6993,
      "duration": 0.0131,
      "velocity": 95,
      "chip": "ym2612"
    },
    {
      "channel": 0,
      "note": 89,
      "start": 47.7094,
      "duration": 0.0125,
      "velocity": 95,
      "chip": "ym2612"
    },
    {
      "channel": 5,
      "note": 89,
      "start": 47.7124,
      "duration": 0.013,
      "velocity": 95,
      "chip": "ym2612"
    },
    {
      "channel": 0,
      "note": 89,
      "start": 47.7219,
      "duration": 0.0125,
      "velocity": 95,
      "chip": "ym2612"
    },
    {
      "channel": 4,
      "note": 67,
      "start": 47.7242,
      "duration": 0.1013,
      "velocity": 74,
      "chip": "ym2612"
    },
    {
      "channel": 5,
      "note": 89,
      "start": 47.7254,
      "duration": 0.0113,
      "velocity": 95,
      "chip": "ym2612"
    },
    {
      "channel": 0,
      "note": 89,
      "start": 47.7343,
      "duration": 0.0124,
      "velocity": 95,
      "chip": "ym2612"
    },
    {
      "channel": 5,
      "note": 89,
      "start": 47.7367,
      "duration": 0.0125,
      "velocity": 95,
      "chip": "ym2612"
    },
    {
      "channel": 0,
      "note": 89,
      "start": 47.7468,
      "duration": 0.0125,
      "velocity": 95,
      "chip": "ym2612"
    },
    {
      "channel": 5,
      "note": 89,
      "start": 47.7492,
      "duration": 0.0131,
      "velocity": 95,
      "chip": "ym2612"
    },
    {
      "channel": 0,
      "note": 89,
      "start": 47.7593,
      "duration": 0.0125,
      "velocity": 95,
      "chip": "ym2612"
    },
    {
      "channel": 5,
      "note": 89,
      "start": 47.7623,
      "duration": 0.0119,
      "velocity": 95,
      "chip": "ym2612"
    },
    {
      "channel": 0,
      "note": 89,
      "start": 47.7718,
      "duration": 0.0125,
      "velocity": 95,
      "chip": "ym2612"
    },
    {
      "channel": 5,
      "note": 89,
      "start": 47.7742,
      "duration": 0.0125,
      "velocity": 95,
      "chip": "ym2612"
    },
    {
      "channel": 0,
      "note": 89,
      "start": 47.7843,
      "duration": 0.0125,
      "velocity": 95,
      "chip": "ym2612"
    },
    {
      "channel": 5,
      "note": 89,
      "start": 47.7867,
      "duration": 0.0125,
      "velocity": 95,
      "chip": "ym2612"
    },
    {
      "channel": 0,
      "note": 89,
      "start": 47.7967,
      "duration": 0.0125,
      "velocity": 95,
      "chip": "ym2612"
    },
    {
      "channel": 5,
      "note": 89,
      "start": 47.7991,
      "duration": 0.0131,
      "velocity": 95,
      "chip": "ym2612"
    },
    {
      "channel": 0,
      "note": 89,
      "start": 47.8093,
      "duration": 0.0125,
      "velocity": 95,
      "chip": "ym2612"
    },
    {
      "channel": 5,
      "note": 89,
      "start": 47.8122,
      "duration": 0.0153,
      "velocity": 95,
      "chip": "ym2612"
    },
    {
      "channel": 0,
      "note": 89,
      "start": 47.8217,
      "duration": 0.0134,
      "velocity": 95,
      "chip": "ym2612"
    },
    {
      "channel": 1,
      "note": 65,
      "start": 47.8232,
      "duration": 0.0884,
      "velocity": 81,
      "chip": "ym2612"
    },
    {
      "channel": 4,
      "note": 56,
      "start": 47.8261,
      "duration": 0.0884,
      "velocity": 74,
      "chip": "ym2612"
    },
    {
      "channel": 5,
      "note": 89,
      "start": 47.8276,
      "duration": 0.01,
      "velocity": 95,
      "chip": "ym2612"
    },
    {
      "channel": 2,
      "note": 40,
      "start": 47.8334,
      "duration": 0.0055,
      "velocity": 114,
      "chip": "ym2612"
    },
    {
      "channel": 0,
      "note": 89,
      "start": 47.8351,
      "duration": 0.0125,
      "velocity": 95,
      "chip": "ym2612"
    },
    {
      "channel": 5,
      "note": 89,
      "start": 47.8376,
      "duration": 0.0124,
      "velocity": 95,
      "chip": "ym2612"
    },
    {
      "channel": 2,
      "note": 40,
      "start": 47.8388,
      "duration": 0.0125,
      "velocity": 114,
      "chip": "ym2612"
    },
    {
      "channel": 0,
      "note": 89,
      "start": 47.8476,
      "duration": 0.0125,
      "velocity": 95,
      "chip": "ym2612"
    },
    {
      "channel": 5,
      "note": 89,
      "start": 47.85,
      "duration": 0.0131,
      "velocity": 95,
      "chip": "ym2612"
    },
    {
      "channel": 2,
      "note": 40,
      "start": 47.8513,
      "duration": 0.0135,
      "velocity": 114,
      "chip": "ym2612"
    },
    {
      "channel": 0,
      "note": 89,
      "start": 47.8601,
      "duration": 0.0125,
      "velocity": 95,
      "chip": "ym2612"
    },
    {
      "channel": 5,
      "note": 89,
      "start": 47.8631,
      "duration": 0.0119,
      "velocity": 95,
      "chip": "ym2612"
    },
    {
      "channel": 2,
      "note": 40,
      "start": 47.8648,
      "duration": 0.0115,
      "velocity": 114,
      "chip": "ym2612"
    },
    {
      "channel": 0,
      "note": 89,
      "start": 47.8726,
      "duration": 0.0125,
      "velocity": 95,
      "chip": "ym2612"
    },
    {
      "channel": 5,
      "note": 89,
      "start": 47.875,
      "duration": 0.0125,
      "velocity": 95,
      "chip": "ym2612"
    },
    {
      "channel": 2,
      "note": 40,
      "start": 47.8763,
      "duration": 0.0125,
      "velocity": 114,
      "chip": "ym2612"
    },
    {
      "channel": 0,
      "note": 89,
      "start": 47.8851,
      "duration": 0.0125,
      "velocity": 95,
      "chip": "ym2612"
    },
    {
      "channel": 5,
      "note": 89,
      "start": 47.8875,
      "duration": 0.0125,
      "velocity": 95,
      "chip": "ym2612"
    },
    {
      "channel": 2,
      "note": 40,
      "start": 47.8888,
      "duration": 0.0125,
      "velocity": 114,
      "chip": "ym2612"
    },
    {
      "channel": 0,
      "note": 89,
      "start": 47.8976,
      "duration": 0.0125,
      "velocity": 95,
      "chip": "ym2612"
    },
    {
      "channel": 5,
      "note": 89,
      "start": 47.9,
      "duration": 0.0161,
      "velocity": 95,
      "chip": "ym2612"
    },
    {
      "channel": 2,
      "note": 40,
      "start": 47.9012,
      "duration": 0.016,
      "velocity": 114,
      "chip": "ym2612"
    },
    {
      "channel": 0,
      "note": 89,
      "start": 47.9101,
      "duration": 0.0125,
      "velocity": 95,
      "chip": "ym2612"
    },
    {
      "channel": 1,
      "note": 65,
      "start": 47.9121,
      "duration": 0.0994,
      "velocity": 81,
      "chip": "ym2612"
    },
    {
      "channel": 4,
      "note": 63,
      "start": 47.9149,
      "duration": 0.1005,
      "velocity": 74,
      "chip": "ym2612"
    },
    {
      "channel": 5,
      "note": 89,
      "start": 47.9161,
      "duration": 0.0088,
      "velocity": 95,
      "chip": "ym2612"
    },
    {
      "channel": 0,
      "note": 89,
      "start": 47.9226,
      "duration": 0.0124,
      "velocity": 95,
      "chip": "ym2612"
    },
    {
      "channel": 5,
      "note": 89,
      "start": 47.925,
      "duration": 0.0125,
      "velocity": 95,
      "chip": "ym2612"
    },
    {
      "channel": 2,
      "note": 40,
      "start": 47.9275,
      "duration": 0.0112,
      "velocity": 114,
      "chip": "ym2612"
    },
    {
      "channel": 0,
      "note": 89,
      "start": 47.935,
      "duration": 0.0125,
      "velocity": 95,
      "chip": "ym2612"
    },
    {
      "channel": 5,
      "note": 89,
      "start": 47.9374,
      "duration": 0.0125,
      "velocity": 95,
      "chip": "ym2612"
    },
    {
      "channel": 2,
      "note": 40,
      "start": 47.9387,
      "duration": 0.0125,
      "velocity": 114,
      "chip": "ym2612"
    },
    {
      "channel": 0,
      "note": 89,
      "start": 47.9476,
      "duration": 0.0125,
      "velocity": 95,
      "chip": "ym2612"
    },
    {
      "channel": 5,
      "note": 89,
      "start": 47.9499,
      "duration": 0.0132,
      "velocity": 95,
      "chip": "ym2612"
    },
    {
      "channel": 2,
      "note": 40,
      "start": 47.9512,
      "duration": 0.0135,
      "velocity": 114,
      "chip": "ym2612"
    },
    {
      "channel": 0,
      "note": 89,
      "start": 47.96,
      "duration": 0.0125,
      "velocity": 95,
      "chip": "ym2612"
    },
    {
      "channel": 5,
      "note": 89,
      "start": 47.9631,
      "duration": 0.0119,
      "velocity": 95,
      "chip": "ym2612"
    },
    {
      "channel": 2,
      "note": 40,
      "start": 47.9647,
      "duration": 0.0115,
      "velocity": 114,
      "chip": "ym2612"
    },
    {
      "channel": 0,
      "note": 89,
      "start": 47.9726,
      "duration": 0.0124,
      "velocity": 95,
      "chip": "ym2612"
    },
    {
      "channel": 5,
      "note": 89,
      "start": 47.975,
      "duration": 0.0124,
      "velocity": 95,
      "chip": "ym2612"
    },
    {
      "channel": 2,
      "note": 40,
      "start": 47.9762,
      "duration": 0.0125,
      "velocity": 114,
      "chip": "ym2612"
    },
    {
      "channel": 0,
      "note": 89,
      "start": 47.985,
      "duration": 0.0125,
      "velocity": 95,
      "chip": "ym2612"
    },
    {
      "channel": 5,
      "note": 89,
      "start": 47.9874,
      "duration": 0.0125,
      "velocity": 95,
      "chip": "ym2612"
    },
    {
      "channel": 2,
      "note": 40,
      "start": 47.9886,
      "duration": 0.0125,
      "velocity": 114,
      "chip": "ym2612"
    },
    {
      "channel": 0,
      "note": 89,
      "start": 47.9975,
      "duration": 0.0125,
      "velocity": 95,
      "chip": "ym2612"
    },
    {
      "channel": 5,
      "note": 89,
      "start": 47.9998,
      "duration": 0.0172,
      "velocity": 95,
      "chip": "ym2612"
    },
    {
      "channel": 2,
      "note": 40,
      "start": 48.0011,
      "duration": 0.0171,
      "velocity": 114,
      "chip": "ym2612"
    },
    {
      "channel": 0,
      "note": 89,
      "start": 48.01,
      "duration": 0.0125,
      "velocity": 95,
      "chip": "ym2612"
    },
    {
      "channel": 1,
      "note": 53,
      "start": 48.012,
      "duration": 0.1859,
      "velocity": 81,
      "chip": "ym2612"
    },
    {
      "channel": 4,
      "note": 65,
      "start": 48.0159,
      "duration": 0.0833,
      "velocity": 74,
      "chip": "ym2612"
    },
    {
      "channel": 5,
      "note": 89,
      "start": 48.0171,
      "duration": 0.0078,
      "velocity": 95,
      "chip": "ym2612"
    },
    {
      "channel": 0,
      "note": 89,
      "start": 48.0224,
      "duration": 0.0125,
      "velocity": 95,
      "chip": "ym2612"
    },
    {
      "channel": 5,
      "note": 89,
      "start": 48.0249,
      "duration": 0.0124,
      "velocity": 95,
      "chip": "ym2612"
    },
    {
      "channel": 2,
      "note": 40,
      "start": 48.0271,
      "duration": 0.0115,
      "velocity": 114,
      "chip": "ym2612"
    },
    {
      "channel": 0,
      "note": 89,
      "start": 48.0349,
      "duration": 0.0125,
      "velocity": 95,
      "chip": "ym2612"
    },
    {
      "channel": 5,
      "note": 89,
      "start": 48.0373,
      "duration": 0.0125,
      "velocity": 95,
      "chip": "ym2612"
    },
    {
      "channel": 2,
      "note": 40,
      "start": 48.0386,
      "duration": 0.0125,
      "velocity": 114,
      "chip": "ym2612"
    },
    {
      "channel": 0,
      "note": 89,
      "start": 48.0474,
      "duration": 0.0125,
      "velocity": 95,
      "chip": "ym2612"
    },
    {
      "channel": 5,
      "note": 89,
      "start": 48.0498,
      "duration": 0.0131,
      "velocity": 95,
      "chip": "ym2612"
    },
    {
      "channel": 2,
      "note": 40,
      "start": 48.051,
      "duration": 0.0135,
      "velocity": 114,
      "chip": "ym2612"
    },
    {
      "channel": 0,
      "note": 89,
      "start": 48.0599,
      "duration": 0.0125,
      "velocity": 95,
      "chip": "ym2612"
    },
    {
      "channel": 5,
      "note": 89,
      "start": 48.0629,
      "duration": 0.0119,
      "velocity": 95,
      "chip": "ym2612"
    },
    {
      "channel": 2,
      "note": 40,
      "start": 48.0645,
      "duration": 0.0115,
      "velocity": 114,
      "chip": "ym2612"
    },
    {
      "channel": 0,
      "note": 89,
      "start": 48.0724,
      "duration": 0.0125,
      "velocity": 95,
      "chip": "ym2612"
    },
    {
      "channel": 5,
      "note": 89,
      "start": 48.0748,
      "duration": 0.0125,
      "velocity": 95,
      "chip": "ym2612"
    },
    {
      "channel": 2,
      "note": 40,
      "start": 48.0761,
      "duration": 0.0125,
      "velocity": 114,
      "chip": "ym2612"
    },
    {
      "channel": 0,
      "note": 89,
      "start": 48.0848,
      "duration": 0.0125,
      "velocity": 95,
      "chip": "ym2612"
    },
    {
      "channel": 5,
      "note": 89,
      "start": 48.0873,
      "duration": 0.0136,
      "velocity": 95,
      "chip": "ym2612"
    },
    {
      "channel": 2,
      "note": 40,
      "start": 48.0885,
      "duration": 0.0136,
      "velocity": 114,
      "chip": "ym2612"
    },
    {
      "channel": 0,
      "note": 89,
      "start": 48.0973,
      "duration": 0.0125,
      "velocity": 95,
      "chip": "ym2612"
    },
    {
      "channel": 4,
      "note": 75,
      "start": 48.0997,
      "duration": 0.1011,
      "velocity": 74,
      "chip": "ym2612"
    },
    {
      "channel": 5,
      "note": 89,
      "start": 48.1009,
      "duration": 0.012,
      "velocity": 95,
      "chip": "ym2612"
    },
    {
      "channel": 2,
      "note": 40,
      "start": 48.1021,
      "duration": 0.012,
      "velocity": 114,
      "chip": "ym2612"
    },
    {
      "channel": 0,
      "note": 89,
      "start": 48.1098,
      "duration": 0.0125,
      "velocity": 95,
      "chip": "ym2612"
    },
    {
      "channel": 5,
      "note": 89,
      "start": 48.1129,
      "duration": 0.0118,
      "velocity": 95,
      "chip": "ym2612"
    },
    {
      "channel": 2,
      "note": 40,
      "start": 48.1141,
      "duration": 0.0118,
      "velocity": 114,
      "chip": "ym2612"
    },
    {
      "channel": 0,
      "note": 89,
      "start": 48.1224,
      "duration": 0.0124,
      "velocity": 95,
      "chip": "ym2612"
    },
    {
      "channel": 5,
      "note": 89,
      "start": 48.1247,
      "duration": 0.0125,
      "velocity": 95,
      "chip": "ym2612"
    },
    {
      "channel": 2,
      "note": 40,
      "start": 48.126,
      "duration": 0.0125,
      "velocity": 114,
      "chip": "ym2612"
    },
    {
      "channel": 0,
      "note": 89,
      "start": 48.1348,
      "duration": 0.0125,
      "velocity": 95,
      "chip": "ym2612"
    },
    {
      "channel": 5,
      "note": 89,
      "start": 48.1372,
      "duration": 0.0125,
      "velocity": 95,
      "chip": "ym2612"
    },
    {
      "channel": 2,
      "note": 40,
      "start": 48.1385,
      "duration": 0.0125,
      "velocity": 114,
      "chip": "ym2612"
    },
    {
      "channel": 0,
      "note": 89,
      "start": 48.1472,
      "duration": 0.0125,
      "velocity": 95,
      "chip": "ym2612"
    },
    {
      "channel": 5,
      "note": 89,
      "start": 48.1497,
      "duration": 0.0131,
      "velocity": 95,
      "chip": "ym2612"
    },
    {
      "channel": 2,
      "note": 39,
      "start": 48.1509,
      "duration": 0.0131,
      "velocity": 114,
      "chip": "ym2612"
    },
    {
      "channel": 0,
      "note": 89,
      "start": 48.1598,
      "duration": 0.0124,
      "velocity": 95,
      "chip": "ym2612"
    },
    {
      "channel": 5,
      "note": 89,
      "start": 48.1627,
      "duration": 0.0119,
      "velocity": 95,
      "chip": "ym2612"
    },
    {
      "channel": 2,
      "note": 39,
      "start": 48.164,
      "duration": 0.0119,
      "velocity": 114,
      "chip": "ym2612"
    },
    {
      "channel": 0,
      "note": 89,
      "start": 48.1722,
      "duration": 0.0125,
      "velocity": 95,
      "chip": "ym2612"
    },
    {
      "channel": 5,
      "note": 89,
      "start": 48.1746,
      "duration": 0.0125,
      "velocity": 95,
      "chip": "ym2612"
    },
    {
      "channel": 2,
      "note": 39,
      "start": 48.1759,
      "duration": 0.0124,
      "velocity": 114,
      "chip": "ym2612"
    },
    {
      "channel": 0,
      "note": 89,
      "start": 48.1847,
      "duration": 0.0122,
      "velocity": 95,
      "chip": "ym2612"
    },
    {
      "channel": 5,
      "note": 89,
      "start": 48.1871,
      "duration": 0.0153,
      "velocity": 95,
      "chip": "ym2612"
    },
    {
      "channel": 1,
      "note": 53,
      "start": 48.1984,
      "duration": 0.1861,
      "velocity": 81,
      "chip": "ym2612"
    },
    {
      "channel": 4,
      "note": 77,
      "start": 48.2012,
      "duration": 0.0844,
      "velocity": 74,
      "chip": "ym2612"
    },
    {
      "channel": 5,
      "note": 89,
      "start": 48.2024,
      "duration": 0.0094,
      "velocity": 95,
      "chip": "ym2612"
    },
    {
      "channel": 2,
      "note": 40,
      "start": 48.2051,
      "duration": 0.008,
      "velocity": 114,
      "chip": "ym2612"
    },
    {
      "channel": 5,
      "note": 89,
      "start": 48.2118,
      "duration": 0.0119,
      "velocity": 95,
      "chip": "ym2612"
    },
    {
      "channel": 2,
      "note": 40,
      "start": 48.2131,
      "duration": 0.0118,
      "velocity": 114,
      "chip": "ym2612"
    },
    {
      "channel": 5,
      "note": 89,
      "start": 48.2237,
      "duration": 0.0125,
      "velocity": 95,
      "chip": "ym2612"
    },
    {
      "channel": 2,
      "note": 40,
      "start": 48.2249,
      "duration": 0.0129,
      "velocity": 114,
      "chip": "ym2612"
    },
    {
      "channel": 5,
      "note": 89,
      "start": 48.2362,
      "duration": 0.0125,
      "velocity": 95,
      "chip": "ym2612"
    },
    {
      "channel": 2,
      "note": 40,
      "start": 48.2378,
      "duration": 0.0121,
      "velocity": 114,
      "chip": "ym2612"
    },
    {
      "channel": 5,
      "note": 89,
      "start": 48.2486,
      "duration": 0.0132,
      "velocity": 95,
      "chip": "ym2612"
    },
    {
      "channel": 2,
      "note": 40,
      "start": 48.2499,
      "duration": 0.0131,
      "velocity": 114,
      "chip": "ym2612"
    },
    {
      "channel": 5,
      "note": 89,
      "start": 48.2618,
      "duration": 0.0118,
      "velocity": 95,
      "chip": "ym2612"
    },
    {
      "channel": 2,
      "note": 40,
      "start": 48.263,
      "duration": 0.0118,
      "velocity": 114,
      "chip": "ym2612"
    },
    {
      "channel": 5,
      "note": 89,
      "start": 48.2736,
      "duration": 0.0136,
      "velocity": 95,
      "chip": "ym2612"
    },
    {
      "channel": 2,
      "note": 40,
      "start": 48.2749,
      "duration": 0.0137,
      "velocity": 114,
      "chip": "ym2612"
    },
    {
      "channel": 4,
      "note": 65,
      "start": 48.286,
      "duration": 0.1013,
      "velocity": 74,
      "chip": "ym2612"
    },
    {
      "channel": 5,
      "note": 89,
      "start": 48.2873,
      "duration": 0.0113,
      "velocity": 95,
      "chip": "ym2612"
    },
    {
      "channel": 2,
      "note": 40,
      "start": 48.2885,
      "duration": 0.0113,
      "velocity": 114,
      "chip": "ym2612"
    },
    {
      "channel": 5,
      "note": 89,
      "start": 48.2986,
      "duration": 0.0131,
      "velocity": 95,
      "chip": "ym2612"
    },
    {
      "channel": 2,
      "note": 40,
      "start": 48.2998,
      "duration": 0.0131,
      "velocity": 114,
      "chip": "ym2612"
    },
    {
      "channel": 5,
      "note": 89,
      "start": 48.3117,
      "duration": 0.0119,
      "velocity": 95,
      "chip": "ym2612"
    },
    {
      "channel": 2,
      "note": 40,
      "start": 48.3129,
      "duration": 0.0118,
      "velocity": 114,
      "chip": "ym2612"
    },
    {
      "channel": 5,
      "note": 89,
      "start": 48.3236,
      "duration": 0.0122,
      "velocity": 95,
      "chip": "ym2612"
    },
    {
      "channel": 2,
      "note": 39,
      "start": 48.3248,
      "duration": 0.0123,
      "velocity": 114,
      "chip": "ym2612"
    },
    {
      "channel": 2,
      "note": 39,
      "start": 48.3371,
      "duration": 0.0118,
      "velocity": 114,
      "chip": "ym2612"
    },
    {
      "channel": 2,
      "note": 39,
      "start": 48.3489,
      "duration": 0.013,
      "velocity": 114,
      "chip": "ym2612"
    },
    {
      "channel": 1,
      "note": 53,
      "start": 48.385,
      "duration": 0.1871,
      "velocity": 81,
      "chip": "ym2612"
    },
    {
      "channel": 4,
      "note": 72,
      "start": 48.3878,
      "duration": 0.0857,
      "velocity": 74,
      "chip": "ym2612"
    },
    {
      "channel": 2,
      "note": 41,
      "start": 48.3935,
      "duration": 0.0837,
      "velocity": 122,
      "chip": "ym2612"
    },
    {
      "channel": 4,
      "note": 75,
      "start": 48.4741,
      "duration": 0.1001,
      "velocity": 74,
      "chip": "ym2612"
    },
    {
      "channel": 2,
      "note": 40,
      "start": 48.4805,
      "duration": 0.0057,
      "velocity": 114,
      "chip": "ym2612"
    },
    {
      "channel": 2,
      "note": 40,
      "start": 48.4862,
      "duration": 0.0125,
      "velocity": 114,
      "chip": "ym2612"
    },
    {
      "channel": 2,
      "note": 40,
      "start": 48.4987,
      "duration": 0.0134,
      "velocity": 114,
      "chip": "ym2612"
    },
    {
      "channel": 2,
      "note": 40,
      "start": 48.5121,
      "duration": 0.0115,
      "velocity": 114,
      "chip": "ym2612"
    },
    {
      "channel": 2,
      "note": 40,
      "start": 48.5236,
      "duration": 0.0125,
      "velocity": 114,
      "chip": "ym2612"
    },
    {
      "channel": 2,
      "note": 40,
      "start": 48.5362,
      "duration": 0.0125,
      "velocity": 114,
      "chip": "ym2612"
    },
    {
      "channel": 2,
      "note": 40,
      "start": 48.5486,
      "duration": 0.0131,
      "velocity": 114,
      "chip": "ym2612"
    },
    {
      "channel": 2,
      "note": 40,
      "start": 48.5617,
      "duration": 0.0145,
      "velocity": 114,
      "chip": "ym2612"
    },
    {
      "channel": 1,
      "note": 53,
      "start": 48.5726,
      "duration": 0.1877,
      "velocity": 81,
      "chip": "ym2612"
    },
    {
      "channel": 4,
      "note": 65,
      "start": 48.5746,
      "duration": 0.0858,
      "velocity": 74,
      "chip": "ym2612"
    },
    {
      "channel": 2,
      "note": 40,
      "start": 48.5762,
      "duration": 0.0102,
      "velocity": 114,
      "chip": "ym2612"
    },
    {
      "channel": 2,
      "note": 40,
      "start": 48.5864,
      "duration": 0.0125,
      "velocity": 114,
      "chip": "ym2612"
    },
    {
      "channel": 2,
      "note": 39,
      "start": 48.599,
      "duration": 0.013,
      "velocity": 114,
      "chip": "ym2612"
    },
    {
      "channel": 2,
      "note": 39,
      "start": 48.612,
      "duration": 0.0119,
      "velocity": 114,
      "chip": "ym2612"
    },
    {
      "channel": 2,
      "note": 39,
      "start": 48.6239,
      "duration": 0.0124,
      "velocity": 114,
      "chip": "ym2612"
    },
    {
      "channel": 4,
      "note": 70,
      "start": 48.6615,
      "duration": 0.1022,
      "velocity": 74,
      "chip": "ym2612"
    },
    {
      "channel": 0,
      "note": 96,
      "start": 48.7593,
      "duration": 0.0868,
      "velocity": 95,
      "chip": "ym2612"
    },
    {
      "channel": 1,
      "note": 53,
      "start": 48.7611,
      "duration": 0.0864,
      "velocity": 81,
      "chip": "ym2612"
    },
    {
      "channel": 4,
      "note": 72,
      "start": 48.7641,
      "duration": 0.0854,
      "velocity": 74,
      "chip": "ym2612"
    },
    {
      "channel": 2,
      "note": 40,
      "start": 48.7675,
      "duration": 0.0062,
      "velocity": 114,
      "chip": "ym2612"
    },
    {
      "channel": 2,
      "note": 40,
      "start": 48.7737,
      "duration": 0.0125,
      "velocity": 114,
      "chip": "ym2612"
    },
    {
      "channel": 2,
      "note": 40,
      "start": 48.7862,
      "duration": 0.0128,
      "velocity": 114,
      "chip": "ym2612"
    },
    {
      "channel": 2,
      "note": 40,
      "start": 48.7991,
      "duration": 0.0127,
      "velocity": 114,
      "chip": "ym2612"
    },
    {
      "channel": 2,
      "note": 40,
      "start": 48.8117,
      "duration": 0.0119,
      "velocity": 114,
      "chip": "ym2612"
    },
    {
      "channel": 2,
      "note": 40,
      "start": 48.8236,
      "duration": 0.0125,
      "velocity": 114,
      "chip": "ym2612"
    },
    {
      "channel": 2,
      "note": 40,
      "start": 48.8362,
      "duration": 0.0158,
      "velocity": 114,
      "chip": "ym2612"
    },
    {
      "channel": 0,
      "note": 94,
      "start": 48.8466,
      "duration": 0.0994,
      "velocity": 95,
      "chip": "ym2612"
    },
    {
      "channel": 1,
      "note": 65,
      "start": 48.848,
      "duration": 0.0994,
      "velocity": 81,
      "chip": "ym2612"
    },
    {
      "channel": 4,
      "note": 65,
      "start": 48.8501,
      "duration": 0.1002,
      "velocity": 74,
      "chip": "ym2612"
    },
    {
      "channel": 2,
      "note": 40,
      "start": 48.852,
      "duration": 0.0097,
      "velocity": 114,
      "chip": "ym2612"
    },
    {
      "channel": 2,
      "note": 40,
      "start": 48.8617,
      "duration": 0.0119,
      "velocity": 114,
      "chip": "ym2612"
    },
    {
      "channel": 2,
      "note": 40,
      "start": 48.8736,
      "duration": 0.0125,
      "velocity": 114,
      "chip": "ym2612"
    },
    {
      "channel": 2,
      "note": 39,
      "start": 48.886,
      "duration": 0.0134,
      "velocity": 114,
      "chip": "ym2612"
    },
    {
      "channel": 5,
      "note": 96,
      "start": 48.8982,
      "duration": 0.0868,
      "velocity": 95,
      "chip": "ym2612"
    },
    {
      "channel": 2,
      "note": 39,
      "start": 48.8995,
      "duration": 0.0116,
      "velocity": 114,
      "chip": "ym2612"
    },
    {
      "channel": 2,
      "note": 39,
      "start": 48.911,
      "duration": 0.0121,
      "velocity": 114,
      "chip": "ym2612"
    },
    {
      "channel": 0,
      "note": 92,
      "start": 48.9465,
      "duration": 0.087,
      "velocity": 95,
      "chip": "ym2612"
    },
    {
      "channel": 1,
      "note": 55,
      "start": 48.9479,
      "duration": 0.0869,
      "velocity": 81,
      "chip": "ym2612"
    },
    {
      "channel": 4,
      "note": 68,
      "start": 48.9507,
      "duration": 0.0861,
      "velocity": 74,
      "chip": "ym2612"
    },
    {
      "channel": 2,
      "note": 40,
      "start": 48.9537,
      "duration": 0.0073,
      "velocity": 114,
      "chip": "ym2612"
    },
    {
      "channel": 2,
      "note": 40,
      "start": 48.961,
      "duration": 0.0122,
      "velocity": 114,
      "chip": "ym2612"
    },
    {
      "channel": 2,
      "note": 40,
      "start": 48.9731,
      "duration": 0.014,
      "velocity": 114,
      "chip": "ym2612"
    },
    {
      "channel": 5,
      "note": 94,
      "start": 48.9855,
      "duration": 0.0994,
      "velocity": 95,
      "chip": "ym2612"
    },
    {
      "channel": 2,
      "note": 40,
      "start": 48.9871,
      "duration": 0.0109,
      "velocity": 114,
      "chip": "ym2612"
    },
    {
      "channel": 2,
      "note": 40,
      "start": 48.998,
      "duration": 0.0129,
      "velocity": 114,
      "chip": "ym2612"
    },
    {
      "channel": 2,
      "note": 40,
      "start": 49.0109,
      "duration": 0.0122,
      "velocity": 114,
      "chip": "ym2612"
    },
    {
      "channel": 2,
      "note": 40,
      "start": 49.0231,
      "duration": 0.0159,
      "velocity": 114,
      "chip": "ym2612"
    },
    {
      "channel": 0,
      "note": 94,
      "start": 49.0339,
      "duration": 0.0996,
      "velocity": 95,
      "chip": "ym2612"
    },
    {
      "channel": 1,
      "note": 67,
      "start": 49.0353,
      "duration": 0.0996,
      "velocity": 81,
      "chip": "ym2612"
    },
    {
      "channel": 4,
      "note": 70,
      "start": 49.0374,
      "duration": 0.1004,
      "velocity": 74,
      "chip": "ym2612"
    },
    {
      "channel": 2,
      "note": 40,
      "start": 49.039,
      "duration": 0.0091,
      "velocity": 114,
      "chip": "ym2612"
    },
    {
      "channel": 2,
      "note": 40,
      "start": 49.048,
      "duration": 0.0129,
      "velocity": 114,
      "chip": "ym2612"
    },
    {
      "channel": 2,
      "note": 40,
      "start": 49.0609,
      "duration": 0.0121,
      "velocity": 114,
      "chip": "ym2612"
    },
    {
      "channel": 2,
      "note": 39,
      "start": 49.073,
      "duration": 0.0137,
      "velocity": 114,
      "chip": "ym2612"
    },
    {
      "channel": 5,
      "note": 92,
      "start": 49.0854,
      "duration": 0.0872,
      "velocity": 95,
      "chip": "ym2612"
    },
    {
      "channel": 2,
      "note": 39,
      "start": 49.0867,
      "duration": 0.0114,
      "velocity": 114,
      "chip": "ym2612"
    },
    {
      "channel": 2,
      "note": 39,
      "start": 49.098,
      "duration": 0.0124,
      "velocity": 114,
      "chip": "ym2612"
    },
    {
      "channel": 0,
      "note": 92,
      "start": 49.134,
      "duration": 0.087,
      "velocity": 95,
      "chip": "ym2612"
    },
    {
      "channel": 1,
      "note": 56,
      "start": 49.1354,
      "duration": 0.0871,
      "velocity": 81,
      "chip": "ym2612"
    },
    {
      "channel": 4,
      "note": 65,
      "start": 49.1383,
      "duration": 0.087,
      "velocity": 74,
      "chip": "ym2612"
    },
    {
      "channel": 2,
      "note": 41,
      "start": 49.1444,
      "duration": 0.0844,
      "velocity": 122,
      "chip": "ym2612"
    },
    {
      "channel": 5,
      "note": 94,
      "start": 49.1731,
      "duration": 0.0995,
      "velocity": 95,
      "chip": "ym2612"
    },
    {
      "channel": 0,
      "note": 91,
      "start": 49.2215,
      "duration": 0.0994,
      "velocity": 95,
      "chip": "ym2612"
    },
    {
      "channel": 1,
      "note": 68,
      "start": 49.2229,
      "duration": 0.0994,
      "velocity": 81,
      "chip": "ym2612"
    },
    {
      "channel": 4,
      "note": 67,
      "start": 49.2258,
      "duration": 0.0994,
      "velocity": 74,
      "chip": "ym2612"
    },
    {
      "channel": 2,
      "note": 41,
      "start": 49.2292,
      "duration": 0.0994,
      "velocity": 122,
      "chip": "ym2612"
    },
    {
      "channel": 5,
      "note": 92,
      "start": 49.2731,
      "duration": 0.0869,
      "velocity": 95,
      "chip": "ym2612"
    },
    {
      "channel": 0,
      "note": 92,
      "start": 49.3214,
      "duration": 0.087,
      "velocity": 95,
      "chip": "ym2612"
    },
    {
      "channel": 1,
      "note": 55,
      "start": 49.3228,
      "duration": 0.087,
      "velocity": 81,
      "chip": "ym2612"
    },
    {
      "channel": 4,
      "note": 56,
      "start": 49.3257,
      "duration": 0.0876,
      "velocity": 74,
      "chip": "ym2612"
    },
    {
      "channel": 2,
      "note": 41,
      "start": 49.3292,
      "duration": 0.087,
      "velocity": 122,
      "chip": "ym2612"
    },
    {
      "channel": 5,
      "note": 91,
      "start": 49.3604,
      "duration": 0.0995,
      "velocity": 95,
      "chip": "ym2612"
    },
    {
      "channel": 0,
      "note": 91,
      "start": 49.4089,
      "duration": 0.0996,
      "velocity": 95,
      "chip": "ym2612"
    },
    {
      "channel": 1,
      "note": 67,
      "start": 49.4103,
      "duration": 0.0998,
      "velocity": 81,
      "chip": "ym2612"
    },
    {
      "channel": 4,
      "note": 63,
      "start": 49.4138,
      "duration": 0.1008,
      "velocity": 74,
      "chip": "ym2612"
    },
    {
      "channel": 2,
      "note": 41,
      "start": 49.4166,
      "duration": 0.1015,
      "velocity": 122,
      "chip": "ym2612"
    },
    {
      "channel": 5,
      "note": 92,
      "start": 49.4604,
      "duration": 0.0885,
      "velocity": 95,
      "chip": "ym2612"
    },
    {
      "channel": 0,
      "note": 89,
      "start": 49.509,
      "duration": 0.3757,
      "velocity": 95,
      "chip": "ym2612"
    },
    {
      "channel": 1,
      "note": 53,
      "start": 49.511,
      "duration": 0.1865,
      "velocity": 81,
      "chip": "ym2612"
    },
    {
      "channel": 4,
      "note": 65,
      "start": 49.515,
      "duration": 0.0835,
      "velocity": 74,
      "chip": "ym2612"
    },
    {
      "channel": 2,
      "note": 40,
      "start": 49.5209,
      "duration": 0.0036,
      "velocity": 114,
      "chip": "ym2612"
    },
    {
      "channel": 2,
      "note": 40,
      "start": 49.5245,
      "duration": 0.0125,
      "velocity": 114,
      "chip": "ym2612"
    },
    {
      "channel": 2,
      "note": 40,
      "start": 49.537,
      "duration": 0.0141,
      "velocity": 114,
      "chip": "ym2612"
    },
    {
      "channel": 5,
      "note": 91,
      "start": 49.5494,
      "duration": 0.0995,
      "velocity": 95,
      "chip": "ym2612"
    },
    {
      "channel": 2,
      "note": 40,
      "start": 49.551,
      "duration": 0.0115,
      "velocity": 114,
      "chip": "ym2612"
    },
    {
      "channel": 2,
      "note": 40,
      "start": 49.5626,
      "duration": 0.0119,
      "velocity": 114,
      "chip": "ym2612"
    },
    {
      "channel": 2,
      "note": 40,
      "start": 49.5745,
      "duration": 0.0125,
      "velocity": 114,
      "chip": "ym2612"
    },
    {
      "channel": 2,
      "note": 40,
      "start": 49.5869,
      "duration": 0.0137,
      "velocity": 114,
      "chip": "ym2612"
    },
    {
      "channel": 4,
      "note": 75,
      "start": 49.599,
      "duration": 0.1013,
      "velocity": 74,
      "chip": "ym2612"
    },
    {
      "channel": 2,
      "note": 40,
      "start": 49.6006,
      "duration": 0.0119,
      "velocity": 114,
      "chip": "ym2612"
    },
    {
      "channel": 2,
      "note": 40,
      "start": 49.6125,
      "duration": 0.0119,
      "velocity": 114,
      "chip": "ym2612"
    },
    {
      "channel": 2,
      "note": 40,
      "start": 49.6244,
      "duration": 0.0125,
      "velocity": 114,
      "chip": "ym2612"
    },
    {
      "channel": 2,
      "note": 39,
      "start": 49.6369,
      "duration": 0.0137,
      "velocity": 114,
      "chip": "ym2612"
    },
    {
      "channel": 5,
      "note": 89,
      "start": 49.6493,
      "duration": 0.3751,
      "velocity": 95,
      "chip": "ym2612"
    },
    {
      "channel": 2,
      "note": 39,
      "start": 49.6506,
      "duration": 0.0118,
      "velocity": 114,
      "chip": "ym2612"
    },
    {
      "channel": 2,
      "note": 39,
      "start": 49.6624,
      "duration": 0.0118,
      "velocity": 114,
      "chip": "ym2612"
    },
    {
      "channel": 1,
      "note": 53,
      "start": 49.698,
      "duration": 0.1876,
      "velocity": 81,
      "chip": "ym2612"
    },
    {
      "channel": 4,
      "note": 77,
      "start": 49.7008,
      "duration": 0.085,
      "velocity": 74,
      "chip": "ym2612"
    },
    {
      "channel": 2,
      "note": 40,
      "start": 49.7038,
      "duration": 0.0086,
      "velocity": 114,
      "chip": "ym2612"
    },
    {
      "channel": 2,
      "note": 40,
      "start": 49.7124,
      "duration": 0.0119,
      "velocity": 114,
      "chip": "ym2612"
    },
    {
      "channel": 2,
      "note": 40,
      "start": 49.7243,
      "duration": 0.0129,
      "velocity": 114,
      "chip": "ym2612"
    },
    {
      "channel": 2,
      "note": 40,
      "start": 49.7372,
      "duration": 0.0121,
      "velocity": 114,
      "chip": "ym2612"
    },
    {
      "channel": 2,
      "note": 40,
      "start": 49.7493,
      "duration": 0.013,
      "velocity": 114,
      "chip": "ym2612"
    },
    {
      "channel": 2,
      "note": 40,
      "start": 49.7623,
      "duration": 0.0119,
      "velocity": 114,
      "chip": "ym2612"
    },
    {
      "channel": 2,
      "note": 40,
      "start": 49.7742,
      "duration": 0.0137,
      "velocity": 114,
      "chip": "ym2612"
    },
    {
      "channel": 4,
      "note": 65,
      "start": 49.7863,
      "duration": 0.1022,
      "velocity": 74,
      "chip": "ym2612"
    },
    {
      "channel": 2,
      "note": 40,
      "start": 49.7879,
      "duration": 0.0113,
      "velocity": 114,
      "chip": "ym2612"
    },
    {
      "channel": 2,
      "note": 40,
      "start": 49.7992,
      "duration": 0.013,
      "velocity": 114,
      "chip": "ym2612"
    },
    {
      "channel": 2,
      "note": 40,
      "start": 49.8122,
      "duration": 0.0119,
      "velocity": 114,
      "chip": "ym2612"
    },
    {
      "channel": 2,
      "note": 39,
      "start": 49.8241,
      "duration": 0.0125,
      "velocity": 114,
      "chip": "ym2612"
    },
    {
      "channel": 2,
      "note": 39,
      "start": 49.8367,
      "duration": 0.0125,
      "velocity": 114,
      "chip": "ym2612"
    },
    {
      "channel": 2,
      "note": 39,
      "start": 49.8491,
      "duration": 0.013,
      "velocity": 114,
      "chip": "ym2612"
    },
    {
      "channel": 0,
      "note": 89,
      "start": 49.8847,
      "duration": 0.0125,
      "velocity": 95,
      "chip": "ym2612"
    },
    {
      "channel": 1,
      "note": 53,
      "start": 49.8862,
      "duration": 0.1868,
      "velocity": 81,
      "chip": "ym2612"
    },
    {
      "channel": 4,
      "note": 72,
      "start": 49.889,
      "duration": 0.0858,
      "velocity": 74,
      "chip": "ym2612"
    },
    {
      "channel": 2,
      "note": 41,
      "start": 49.8953,
      "duration": 0.0836,
      "velocity": 122,
      "chip": "ym2612"
    },
    {
      "channel": 0,
      "note": 89,
      "start": 49.8972,
      "duration": 0.0125,
      "velocity": 95,
      "chip": "ym2612"
    },
    {
      "channel": 0,
      "note": 89,
      "start": 49.9097,
      "duration": 0.0125,
      "velocity": 95,
      "chip": "ym2612"
    },
    {
      "channel": 0,
      "note": 89,
      "start": 49.9222,
      "duration": 0.0125,
      "velocity": 95,
      "chip": "ym2612"
    },
    {
      "channel": 0,
      "note": 89,
      "start": 49.9346,
      "duration": 0.0124,
      "velocity": 95,
      "chip": "ym2612"
    },
    {
      "channel": 0,
      "note": 89,
      "start": 49.9471,
      "duration": 0.0125,
      "velocity": 95,
      "chip": "ym2612"
    },
    {
      "channel": 0,
      "note": 89,
      "start": 49.9596,
      "duration": 0.0125,
      "velocity": 95,
      "chip": "ym2612"
    },
    {
      "channel": 0,
      "note": 89,
      "start": 49.9721,
      "duration": 0.0125,
      "velocity": 95,
      "chip": "ym2612"
    },
    {
      "channel": 4,
      "note": 75,
      "start": 49.9752,
      "duration": 0.0998,
      "velocity": 74,
      "chip": "ym2612"
    },
    {
      "channel": 2,
      "note": 40,
      "start": 49.9817,
      "duration": 0.0057,
      "velocity": 114,
      "chip": "ym2612"
    },
    {
      "channel": 0,
      "note": 89,
      "start": 49.9846,
      "duration": 0.0125,
      "velocity": 95,
      "chip": "ym2612"
    },
    {
      "channel": 2,
      "note": 40,
      "start": 49.9874,
      "duration": 0.0125,
      "velocity": 114,
      "chip": "ym2612"
    },
    {
      "channel": 0,
      "note": 89,
      "start": 49.9971,
      "duration": 0.0125,
      "velocity": 95,
      "chip": "ym2612"
    },
    {
      "channel": 2,
      "note": 40,
      "start": 49.9998,
      "duration": 0.0135,
      "velocity": 114,
      "chip": "ym2612"
    },
    {
      "channel": 0,
      "note": 89,
      "start": 50.0096,
      "duration": 0.0125,
      "velocity": 95,
      "chip": "ym2612"
    },
    {
      "channel": 2,
      "note": 40,
      "start": 50.0133,
      "duration": 0.0124,
      "velocity": 114,
      "chip": "ym2612"
    },
    {
      "channel": 0,
      "note": 89,
      "start": 50.022,
      "duration": 0.0125,
      "velocity": 95,
      "chip": "ym2612"
    },
    {
      "channel": 5,
      "note": 89,
      "start": 50.0245,
      "duration": 0.0125,
      "velocity": 95,
      "chip": "ym2612"
    },
    {
      "channel": 2,
      "note": 40,
      "start": 50.0257,
      "duration": 0.0125,
      "velocity": 114,
      "chip": "ym2612"
    },
    {
      "channel": 0,
      "note": 89,
      "start": 50.0345,
      "duration": 0.0125,
      "velocity": 95,
      "chip": "ym2612"
    },
    {
      "channel": 5,
      "note": 89,
      "start": 50.0369,
      "duration": 0.0124,
      "velocity": 95,
      "chip": "ym2612"
    },
    {
      "channel": 2,
      "note": 40,
      "start": 50.0382,
      "duration": 0.0124,
      "velocity": 114,
      "chip": "ym2612"
    },
    {
      "channel": 0,
      "note": 89,
      "start": 50.047,
      "duration": 0.0125,
      "velocity": 95,
      "chip": "ym2612"
    },
    {
      "channel": 5,
      "note": 89,
      "start": 50.0494,
      "duration": 0.0131,
      "velocity": 95,
      "chip": "ym2612"
    },
    {
      "channel": 2,
      "note": 40,
      "start": 50.0507,
      "duration": 0.0131,
      "velocity": 114,
      "chip": "ym2612"
    },
    {
      "channel": 0,
      "note": 89,
      "start": 50.0595,
      "duration": 0.0125,
      "velocity": 95,
      "chip": "ym2612"
    },
    {
      "channel": 5,
      "note": 89,
      "start": 50.0625,
      "duration": 0.0141,
      "velocity": 95,
      "chip": "ym2612"
    },
    {
      "channel": 2,
      "note": 40,
      "start": 50.0638,
      "duration": 0.0148,
      "velocity": 114,
      "chip": "ym2612"
    },
    {
      "channel": 0,
      "note": 89,
      "start": 50.072,
      "duration": 0.0125,
      "velocity": 95,
      "chip": "ym2612"
    },
    {
      "channel": 1,
      "note": 53,
      "start": 50.0734,
      "duration": 0.1868,
      "velocity": 81,
      "chip": "ym2612"
    },
    {
      "channel": 4,
      "note": 65,
      "start": 50.0754,
      "duration": 0.0864,
      "velocity": 74,
      "chip": "ym2612"
    },
    {
      "channel": 5,
      "note": 89,
      "start": 50.0766,
      "duration": 0.0102,
      "velocity": 95,
      "chip": "ym2612"
    },
    {
      "channel": 2,
      "note": 40,
      "start": 50.0785,
      "duration": 0.0096,
      "velocity": 114,
      "chip": "ym2612"
    },
    {
      "channel": 0,
      "note": 89,
      "start": 50.0844,
      "duration": 0.0125,
      "velocity": 95,
      "chip": "ym2612"
    },
    {
      "channel": 5,
      "note": 89,
      "start": 50.0869,
      "duration": 0.0125,
      "velocity": 95,
      "chip": "ym2612"
    },
    {
      "channel": 2,
      "note": 40,
      "start": 50.0881,
      "duration": 0.0125,
      "velocity": 114,
      "chip": "ym2612"
    },
    {
      "channel": 0,
      "note": 89,
      "start": 50.0969,
      "duration": 0.0125,
      "velocity": 95,
      "chip": "ym2612"
    },
    {
      "channel": 5,
      "note": 89,
      "start": 50.0993,
      "duration": 0.0131,
      "velocity": 95,
      "chip": "ym2612"
    },
    {
      "channel": 2,
      "note": 39,
      "start": 50.1006,
      "duration": 0.0131,
      "velocity": 114,
      "chip": "ym2612"
    },
    {
      "channel": 0,
      "note": 89,
      "start": 50.1094,
      "duration": 0.0125,
      "velocity": 95,
      "chip": "ym2612"
    },
    {
      "channel": 5,
      "note": 89,
      "start": 50.1124,
      "duration": 0.0119,
      "velocity": 95,
      "chip": "ym2612"
    },
    {
      "channel": 2,
      "note": 39,
      "start": 50.1137,
      "duration": 0.0119,
      "velocity": 114,
      "chip": "ym2612"
    },
    {
      "channel": 0,
      "note": 89,
      "start": 50.1219,
      "duration": 0.0125,
      "velocity": 95,
      "chip": "ym2612"
    },
    {
      "channel": 5,
      "note": 89,
      "start": 50.1243,
      "duration": 0.0125,
      "velocity": 95,
      "chip": "ym2612"
    },
    {
      "channel": 2,
      "note": 39,
      "start": 50.1256,
      "duration": 0.0124,
      "velocity": 114,
      "chip": "ym2612"
    },
    {
      "channel": 0,
      "note": 89,
      "start": 50.1344,
      "duration": 0.0125,
      "velocity": 95,
      "chip": "ym2612"
    },
    {
      "channel": 5,
      "note": 89,
      "start": 50.1368,
      "duration": 0.0125,
      "velocity": 95,
      "chip": "ym2612"
    },
    {
      "channel": 0,
      "note": 89,
      "start": 50.1468,
      "duration": 0.0125,
      "velocity": 95,
      "chip": "ym2612"
    },
    {
      "channel": 5,
      "note": 89,
      "start": 50.1493,
      "duration": 0.0142,
      "velocity": 95,
      "chip": "ym2612"
    },
    {
      "channel": 0,
      "note": 89,
      "start": 50.1593,
      "duration": 0.0125,
      "velocity": 95,
      "chip": "ym2612"
    },
    {
      "channel": 4,
      "note": 70,
      "start": 50.1623,
      "duration": 0.1013,
      "velocity": 74,
      "chip": "ym2612"
    },
    {
      "channel": 5,
      "note": 89,
      "start": 50.1635,
      "duration": 0.0107,
      "velocity": 95,
      "chip": "ym2612"
    },
    {
      "channel": 0,
      "note": 89,
      "start": 50.1719,
      "duration": 0.0125,
      "velocity": 95,
      "chip": "ym2612"
    },
    {
      "channel": 5,
      "note": 89,
      "start": 50.1743,
      "duration": 0.0125,
      "velocity": 95,
      "chip": "ym2612"
    },
    {
      "channel": 0,
      "note": 89,
      "start": 50.1843,
      "duration": 0.0124,
      "velocity": 95,
      "chip": "ym2612"
    },
    {
      "channel": 5,
      "note": 89,
      "start": 50.1867,
      "duration": 0.0125,
      "velocity": 95,
      "chip": "ym2612"
    },
    {
      "channel": 0,
      "note": 89,
      "start": 50.1968,
      "duration": 0.0125,
      "velocity": 95,
      "chip": "ym2612"
    },
    {
      "channel": 5,
      "note": 89,
      "start": 50.1992,
      "duration": 0.0131,
      "velocity": 95,
      "chip": "ym2612"
    },
    {
      "channel": 0,
      "note": 89,
      "start": 50.2093,
      "duration": 0.0125,
      "velocity": 95,
      "chip": "ym2612"
    },
    {
      "channel": 5,
      "note": 89,
      "start": 50.2123,
      "duration": 0.0119,
      "velocity": 95,
      "chip": "ym2612"
    },
    {
      "channel": 0,
      "note": 89,
      "start": 50.2218,
      "duration": 0.0125,
      "velocity": 95,
      "chip": "ym2612"
    },
    {
      "channel": 5,
      "note": 89,
      "start": 50.2242,
      "duration": 0.0125,
      "velocity": 95,
      "chip": "ym2612"
    },
    {
      "channel": 0,
      "note": 89,
      "start": 50.2343,
      "duration": 0.0125,
      "velocity": 95,
      "chip": "ym2612"
    },
    {
      "channel": 5,
      "note": 89,
      "start": 50.2367,
      "duration": 0.0125,
      "velocity": 95,
      "chip": "ym2612"
    },
    {
      "channel": 0,
      "note": 89,
      "start": 50.2467,
      "duration": 0.0125,
      "velocity": 95,
      "chip": "ym2612"
    },
    {
      "channel": 5,
      "note": 89,
      "start": 50.2491,
      "duration": 0.0162,
      "velocity": 95,
      "chip": "ym2612"
    },
    {
      "channel": 0,
      "note": 89,
      "start": 50.2593,
      "duration": 0.0125,
      "velocity": 95,
      "chip": "ym2612"
    },
    {
      "channel": 1,
      "note": 53,
      "start": 50.261,
      "duration": 0.1865,
      "velocity": 81,
      "chip": "ym2612"
    },
    {
      "channel": 4,
      "note": 72,
      "start": 50.2641,
      "duration": 0.0844,
      "velocity": 74,
      "chip": "ym2612"
    },
    {
      "channel": 5,
      "note": 89,
      "start": 50.2653,
      "duration": 0.0088,
      "velocity": 95,
      "chip": "ym2612"
    },
    {
      "channel": 2,
      "note": 40,
      "start": 50.268,
      "duration": 0.0074,
      "velocity": 114,
      "chip": "ym2612"
    },
    {
      "channel": 0,
      "note": 89,
      "start": 50.2717,
      "duration": 0.0125,
      "velocity": 95,
      "chip": "ym2612"
    },
    {
      "channel": 5,
      "note": 89,
      "start": 50.2741,
      "duration": 0.0124,
      "velocity": 95,
      "chip": "ym2612"
    },
    {
      "channel": 2,
      "note": 40,
      "start": 50.2754,
      "duration": 0.0125,
      "velocity": 114,
      "chip": "ym2612"
    },
    {
      "channel": 0,
      "note": 89,
      "start": 50.2842,
      "duration": 0.0125,
      "velocity": 95,
      "chip": "ym2612"
    },
    {
      "channel": 5,
      "note": 89,
      "start": 50.2866,
      "duration": 0.0125,
      "velocity": 95,
      "chip": "ym2612"
    },
    {
      "channel": 2,
      "note": 40,
      "start": 50.2879,
      "duration": 0.0128,
      "velocity": 114,
      "chip": "ym2612"
    },
    {
      "channel": 0,
      "note": 89,
      "start": 50.2967,
      "duration": 0.0125,
      "velocity": 95,
      "chip": "ym2612"
    },
    {
      "channel": 5,
      "note": 89,
      "start": 50.2991,
      "duration": 0.0131,
      "velocity": 95,
      "chip": "ym2612"
    },
    {
      "channel": 2,
      "note": 40,
      "start": 50.3007,
      "duration": 0.0127,
      "velocity": 114,
      "chip": "ym2612"
    },
    {
      "channel": 0,
      "note": 89,
      "start": 50.3092,
      "duration": 0.0125,
      "velocity": 95,
      "chip": "ym2612"
    },
    {
      "channel": 5,
      "note": 89,
      "start": 50.3122,
      "duration": 0.0119,
      "velocity": 95,
      "chip": "ym2612"
    },
    {
      "channel": 2,
      "note": 40,
      "start": 50.3134,
      "duration": 0.0119,
      "velocity": 114,
      "chip": "ym2612"
    },
    {
      "channel": 0,
      "note": 89,
      "start": 50.3217,
      "duration": 0.0125,
      "velocity": 95,
      "chip": "ym2612"
    },
    {
      "channel": 5,
      "note": 89,
      "start": 50.3241,
      "duration": 0.0125,
      "velocity": 95,
      "chip": "ym2612"
    },
    {
      "channel": 2,
      "note": 40,
      "start": 50.3254,
      "duration": 0.0125,
      "velocity": 114,
      "chip": "ym2612"
    },
    {
      "channel": 0,
      "note": 89,
      "start": 50.3341,
      "duration": 0.0125,
      "velocity": 95,
      "chip": "ym2612"
    },
    {
      "channel": 5,
      "note": 89,
      "start": 50.3366,
      "duration": 0.0136,
      "velocity": 95,
      "chip": "ym2612"
    },
    {
      "channel": 2,
      "note": 40,
      "start": 50.3378,
      "duration": 0.0136,
      "velocity": 114,
      "chip": "ym2612"
    },
    {
      "channel": 0,
      "note": 89,
      "start": 50.3467,
      "duration": 0.0125,
      "velocity": 95,
      "chip": "ym2612"
    },
    {
      "channel": 4,
      "note": 65,
      "start": 50.349,
      "duration": 0.1013,
      "velocity": 74,
      "chip": "ym2612"
    },
    {
      "channel": 5,
      "note": 89,
      "start": 50.3502,
      "duration": 0.012,
      "velocity": 95,
      "chip": "ym2612"
    },
    {
      "channel": 2,
      "note": 40,
      "start": 50.3514,
      "duration": 0.012,
      "velocity": 114,
      "chip": "ym2612"
    },
    {
      "channel": 0,
      "note": 89,
      "start": 50.3591,
      "duration": 0.0124,
      "velocity": 95,
      "chip": "ym2612"
    },
    {
      "channel": 5,
      "note": 89,
      "start": 50.3621,
      "duration": 0.0119,
      "velocity": 95,
      "chip": "ym2612"
    },
    {
      "channel": 2,
      "note": 40,
      "start": 50.3634,
      "duration": 0.0119,
      "velocity": 114,
      "chip": "ym2612"
    },
    {
      "channel": 0,
      "note": 89,
      "start": 50.3716,
      "duration": 0.0125,
      "velocity": 95,
      "chip": "ym2612"
    },
    {
      "channel": 5,
      "note": 89,
      "start": 50.374,
      "duration": 0.0125,
      "velocity": 95,
      "chip": "ym2612"
    },
    {
      "channel": 2,
      "note": 40,
      "start": 50.3753,
      "duration": 0.0125,
      "velocity": 114,
      "chip": "ym2612"
    },
    {
      "channel": 0,
      "note": 89,
      "start": 50.3841,
      "duration": 0.0125,
      "velocity": 95,
      "chip": "ym2612"
    },
    {
      "channel": 5,
      "note": 89,
      "start": 50.3865,
      "duration": 0.0125,
      "velocity": 95,
      "chip": "ym2612"
    },
    {
      "channel": 2,
      "note": 39,
      "start": 50.3878,
      "duration": 0.0125,
      "velocity": 114,
      "chip": "ym2612"
    },
    {
      "channel": 0,
      "note": 89,
      "start": 50.3966,
      "duration": 0.0125,
      "velocity": 95,
      "chip": "ym2612"
    },
    {
      "channel": 5,
      "note": 89,
      "start": 50.399,
      "duration": 0.0131,
      "velocity": 95,
      "chip": "ym2612"
    },
    {
      "channel": 2,
      "note": 39,
      "start": 50.4002,
      "duration": 0.0131,
      "velocity": 114,
      "chip": "ym2612"
    },
    {
      "channel": 0,
      "note": 89,
      "start": 50.4091,
      "duration": 0.0125,
      "velocity": 95,
      "chip": "ym2612"
    },
    {
      "channel": 5,
      "note": 89,
      "start": 50.4121,
      "duration": 0.0119,
      "velocity": 95,
      "chip": "ym2612"
    },
    {
      "channel": 2,
      "note": 39,
      "start": 50.4133,
      "duration": 0.0118,
      "velocity": 114,
      "chip": "ym2612"
    },
    {
      "channel": 0,
      "note": 89,
      "start": 50.4215,
      "duration": 0.0124,
      "velocity": 95,
      "chip": "ym2612"
    },
    {
      "channel": 5,
      "note": 89,
      "start": 50.4239,
      "duration": 0.0125,
      "velocity": 95,
      "chip": "ym2612"
    },
    {
      "channel": 0,
      "note": 89,
      "start": 50.434,
      "duration": 0.0125,
      "velocity": 95,
      "chip": "ym2612"
    },
    {
      "channel": 5,
      "note": 89,
      "start": 50.4364,
      "duration": 0.0156,
      "velocity": 95,
      "chip": "ym2612"
    },
    {
      "channel": 0,
      "note": 89,
      "start": 50.4465,
      "duration": 0.0125,
      "velocity": 95,
      "chip": "ym2612"
    },
    {
      "channel": 1,
      "note": 65,
      "start": 50.4479,
      "duration": 0.0869,
      "velocity": 81,
      "chip": "ym2612"
    },
    {
      "channel": 4,
      "note": 68,
      "start": 50.4508,
      "duration": 0.0861,
      "velocity": 74,
      "chip": "ym2612"
    },
    {
      "channel": 5,
      "note": 89,
      "start": 50.452,
      "duration": 0.01,
      "velocity": 95,
      "chip": "ym2612"
    },
    {
      "channel": 2,
      "note": 40,
      "start": 50.4547,
      "duration": 0.0086,
      "velocity": 114,
      "chip": "ym2612"
    },
    {
      "channel": 0,
      "note": 89,
      "start": 50.459,
      "duration": 0.0125,
      "velocity": 95,
      "chip": "ym2612"
    },
    {
      "channel": 5,
      "note": 89,
      "start": 50.462,
      "duration": 0.0119,
      "velocity": 95,
      "chip": "ym2612"
    },
    {
      "channel": 2,
      "note": 40,
      "start": 50.4633,
      "duration": 0.0119,
      "velocity": 114,
      "chip": "ym2612"
    },
    {
      "channel": 0,
      "note": 89,
      "start": 50.4715,
      "duration": 0.0125,
      "velocity": 95,
      "chip": "ym2612"
    },
    {
      "channel": 5,
      "note": 89,
      "start": 50.4739,
      "duration": 0.0125,
      "velocity": 95,
      "chip": "ym2612"
    },
    {
      "channel": 2,
      "note": 40,
      "start": 50.4752,
      "duration": 0.0128,
      "velocity": 114,
      "chip": "ym2612"
    },
    {
      "channel": 0,
      "note": 89,
      "start": 50.4839,
      "duration": 0.0125,
      "velocity": 95,
      "chip": "ym2612"
    },
    {
      "channel": 5,
      "note": 89,
      "start": 50.4863,
      "duration": 0.0125,
      "velocity": 95,
      "chip": "ym2612"
    },
    {
      "channel": 2,
      "note": 40,
      "start": 50.488,
      "duration": 0.0122,
      "velocity": 114,
      "chip": "ym2612"
    },
    {
      "channel": 0,
      "note": 89,
      "start": 50.4965,
      "duration": 0.0125,
      "velocity": 95,
      "chip": "ym2612"
    },
    {
      "channel": 5,
      "note": 89,
      "start": 50.4989,
      "duration": 0.013,
      "velocity": 95,
      "chip": "ym2612"
    },
    {
      "channel": 2,
      "note": 40,
      "start": 50.5002,
      "duration": 0.013,
      "velocity": 114,
      "chip": "ym2612"
    },
    {
      "channel": 0,
      "note": 89,
      "start": 50.5089,
      "duration": 0.0125,
      "velocity": 95,
      "chip": "ym2612"
    },
    {
      "channel": 5,
      "note": 89,
      "start": 50.5119,
      "duration": 0.0119,
      "velocity": 95,
      "chip": "ym2612"
    },
    {
      "channel": 2,
      "note": 40,
      "start": 50.5132,
      "duration": 0.0119,
      "velocity": 114,
      "chip": "ym2612"
    },
    {
      "channel": 0,
      "note": 89,
      "start": 50.5214,
      "duration": 0.0125,
      "velocity": 95,
      "chip": "ym2612"
    },
    {
      "channel": 5,
      "note": 89,
      "start": 50.5238,
      "duration": 0.0147,
      "velocity": 95,
      "chip": "ym2612"
    },
    {
      "channel": 2,
      "note": 40,
      "start": 50.5251,
      "duration": 0.0148,
      "velocity": 114,
      "chip": "ym2612"
    },
    {
      "channel": 0,
      "note": 89,
      "start": 50.5339,
      "duration": 0.0125,
      "velocity": 95,
      "chip": "ym2612"
    },
    {
      "channel": 1,
      "note": 65,
      "start": 50.5353,
      "duration": 0.0994,
      "velocity": 81,
      "chip": "ym2612"
    },
    {
      "channel": 4,
      "note": 70,
      "start": 50.5374,
      "duration": 0.1002,
      "velocity": 74,
      "chip": "ym2612"
    },
    {
      "channel": 5,
      "note": 89,
      "start": 50.5386,
      "duration": 0.0102,
      "velocity": 95,
      "chip": "ym2612"
    },
    {
      "channel": 2,
      "note": 40,
      "start": 50.5399,
      "duration": 0.0102,
      "velocity": 114,
      "chip": "ym2612"
    },
    {
      "channel": 0,
      "note": 89,
      "start": 50.5464,
      "duration": 0.0124,
      "velocity": 95,
      "chip": "ym2612"
    },
    {
      "channel": 5,
      "note": 89,
      "start": 50.5488,
      "duration": 0.0131,
      "velocity": 95,
      "chip": "ym2612"
    },
    {
      "channel": 2,
      "note": 40,
      "start": 50.55,
      "duration": 0.0131,
      "velocity": 114,
      "chip": "ym2612"
    },
    {
      "channel": 0,
      "note": 89,
      "start": 50.5589,
      "duration": 0.0125,
      "velocity": 95,
      "chip": "ym2612"
    },
    {
      "channel": 5,
      "note": 89,
      "start": 50.5619,
      "duration": 0.0119,
      "velocity": 95,
      "chip": "ym2612"
    },
    {
      "channel": 2,
      "note": 40,
      "start": 50.5631,
      "duration": 0.0119,
      "velocity": 114,
      "chip": "ym2612"
    },
    {
      "channel": 0,
      "note": 89,
      "start": 50.5713,
      "duration": 0.0125,
      "velocity": 95,
      "chip": "ym2612"
    },
    {
      "channel": 5,
      "note": 89,
      "start": 50.5738,
      "duration": 0.0125,
      "velocity": 95,
      "chip": "ym2612"
    },
    {
      "channel": 2,
      "note": 39,
      "start": 50.575,
      "duration": 0.0125,
      "velocity": 114,
      "chip": "ym2612"
    },
    {
      "channel": 0,
      "note": 89,
      "start": 50.5838,
      "duration": 0.0125,
      "velocity": 95,
      "chip": "ym2612"
    },
    {
      "channel": 5,
      "note": 89,
      "start": 50.5862,
      "duration": 0.0125,
      "velocity": 95,
      "chip": "ym2612"
    },
    {
      "channel": 2,
      "note": 39,
      "start": 50.5875,
      "duration": 0.0125,
      "velocity": 114,
      "chip": "ym2612"
    },
    {
      "channel": 0,
      "note": 89,
      "start": 50.5963,
      "duration": 0.0125,
      "velocity": 95,
      "chip": "ym2612"
    },
    {
      "channel": 5,
      "note": 89,
      "start": 50.5988,
      "duration": 0.013,
      "velocity": 95,
      "chip": "ym2612"
    },
    {
      "channel": 2,
      "note": 39,
      "start": 50.6,
      "duration": 0.013,
      "velocity": 114,
      "chip": "ym2612"
    },
    {
      "channel": 0,
      "note": 89,
      "start": 50.6088,
      "duration": 0.0124,
      "velocity": 95,
      "chip": "ym2612"
    },
    {
      "channel": 5,
      "note": 89,
      "start": 50.6118,
      "duration": 0.0119,
      "velocity": 95,
      "chip": "ym2612"
    },
    {
      "channel": 0,
      "note": 89,
      "start": 50.6213,
      "duration": 0.0125,
      "velocity": 95,
      "chip": "ym2612"
    },
    {
      "channel": 5,
      "note": 89,
      "start": 50.6237,
      "duration": 0.0156,
      "velocity": 95,
      "chip": "ym2612"
    },
    {
      "channel": 0,
      "note": 89,
      "start": 50.6338,
      "duration": 0.0133,
      "velocity": 95,
      "chip": "ym2612"
    },
    {
      "channel": 1,
      "note": 53,
      "start": 50.6353,
      "duration": 0.1876,
      "velocity": 81,
      "chip": "ym2612"
    },
    {
      "channel": 4,
      "note": 65,
      "start": 50.6381,
      "duration": 0.0858,
      "velocity": 74,
      "chip": "ym2612"
    },
    {
      "channel": 5,
      "note": 89,
      "start": 50.6393,
      "duration": 0.0102,
      "velocity": 95,
      "chip": "ym2612"
    },
    {
      "channel": 2,
      "note": 41,
      "start": 50.6453,
      "duration": 0.1854,
      "velocity": 122,
      "chip": "ym2612"
    },
    {
      "channel": 0,
      "note": 89,
      "start": 50.6471,
      "duration": 0.0125,
      "velocity": 95,
      "chip": "ym2612"
    },
    {
      "channel": 5,
      "note": 89,
      "start": 50.6495,
      "duration": 0.0131,
      "velocity": 95,
      "chip": "ym2612"
    },
    {
      "channel": 0,
      "note": 89,
      "start": 50.6596,
      "duration": 0.0125,
      "velocity": 95,
      "chip": "ym2612"
    },
    {
      "channel": 5,
      "note": 89,
      "start": 50.6626,
      "duration": 0.0119,
      "velocity": 95,
      "chip": "ym2612"
    },
    {
      "channel": 0,
      "note": 89,
      "start": 50.6721,
      "duration": 0.0125,
      "velocity": 95,
      "chip": "ym2612"
    },
    {
      "channel": 5,
      "note": 89,
      "start": 50.6745,
      "duration": 0.0125,
      "velocity": 95,
      "chip": "ym2612"
    },
    {
      "channel": 0,
      "note": 89,
      "start": 50.6846,
      "duration": 0.0125,
      "velocity": 95,
      "chip": "ym2612"
    },
    {
      "channel": 5,
      "note": 89,
      "start": 50.687,
      "duration": 0.0125,
      "velocity": 95,
      "chip": "ym2612"
    },
    {
      "channel": 0,
      "note": 89,
      "start": 50.6971,
      "duration": 0.0124,
      "velocity": 95,
      "chip": "ym2612"
    },
    {
      "channel": 5,
      "note": 89,
      "start": 50.6995,
      "duration": 0.0131,
      "velocity": 95,
      "chip": "ym2612"
    },
    {
      "channel": 0,
      "note": 89,
      "start": 50.7095,
      "duration": 0.0125,
      "velocity": 95,
      "chip": "ym2612"
    },
    {
      "channel": 5,
      "note": 89,
      "start": 50.7126,
      "duration": 0.013,
      "velocity": 95,
      "chip": "ym2612"
    },
    {
      "channel": 0,
      "note": 89,
      "start": 50.722,
      "duration": 0.0125,
      "velocity": 95,
      "chip": "ym2612"
    },
    {
      "channel": 4,
      "note": 67,
      "start": 50.7243,
      "duration": 0.1013,
      "velocity": 74,
      "chip": "ym2612"
    },
    {
      "channel": 5,
      "note": 89,
      "start": 50.7255,
      "duration": 0.0114,
      "velocity": 95,
      "chip": "ym2612"
    },
    {
      "channel": 0,
      "note": 89,
      "start": 50.7345,
      "duration": 0.0125,
      "velocity": 95,
      "chip": "ym2612"
    },
    {
      "channel": 5,
      "note": 89,
      "start": 50.7369,
      "duration": 0.0124,
      "velocity": 95,
      "chip": "ym2612"
    },
    {
      "channel": 0,
      "note": 89,
      "start": 50.747,
      "duration": 0.0125,
      "velocity": 95,
      "chip": "ym2612"
    },
    {
      "channel": 5,
      "note": 89,
      "start": 50.7494,
      "duration": 0.0131,
      "velocity": 95,
      "chip": "ym2612"
    },
    {
      "channel": 0,
      "note": 89,
      "start": 50.7595,
      "duration": 0.0125,
      "velocity": 95,
      "chip": "ym2612"
    },
    {
      "channel": 5,
      "note": 89,
      "start": 50.7625,
      "duration": 0.0119,
      "velocity": 95,
      "chip": "ym2612"
    },
    {
      "channel": 0,
      "note": 89,
      "start": 50.772,
      "duration": 0.0125,
      "velocity": 95,
      "chip": "ym2612"
    },
    {
      "channel": 5,
      "note": 89,
      "start": 50.7744,
      "duration": 0.0125,
      "velocity": 95,
      "chip": "ym2612"
    },
    {
      "channel": 0,
      "note": 89,
      "start": 50.7845,
      "duration": 0.0124,
      "velocity": 95,
      "chip": "ym2612"
    },
    {
      "channel": 5,
      "note": 89,
      "start": 50.7869,
      "duration": 0.0125,
      "velocity": 95,
      "chip": "ym2612"
    },
    {
      "channel": 0,
      "note": 89,
      "start": 50.7969,
      "duration": 0.0125,
      "velocity": 95,
      "chip": "ym2612"
    },
    {
      "channel": 5,
      "note": 89,
      "start": 50.7993,
      "duration": 0.0131,
      "velocity": 95,
      "chip": "ym2612"
    },
    {
      "channel": 0,
      "note": 89,
      "start": 50.8094,
      "duration": 0.0125,
      "velocity": 95,
      "chip": "ym2612"
    },
    {
      "channel": 5,
      "note": 89,
      "start": 50.8124,
      "duration": 0.0153,
      "velocity": 95,
      "chip": "ym2612"
    },
    {
      "channel": 0,
      "note": 89,
      "start": 50.8219,
      "duration": 0.0134,
      "velocity": 95,
      "chip": "ym2612"
    },
    {
      "channel": 1,
      "note": 65,
      "start": 50.8233,
      "duration": 0.0884,
      "velocity": 81,
      "chip": "ym2612"
    },
    {
      "channel": 4,
      "note": 56,
      "start": 50.8262,
      "duration": 0.0884,
      "velocity": 74,
      "chip": "ym2612"
    },
    {
      "channel": 5,
      "note": 89,
      "start": 50.8277,
      "duration": 0.01,
      "velocity": 95,
      "chip": "ym2612"
    },
    {
      "channel": 2,
      "note": 40,
      "start": 50.8335,
      "duration": 0.0055,
      "velocity": 114,
      "chip": "ym2612"
    },
    {
      "channel": 0,
      "note": 89,
      "start": 50.8353,
      "duration": 0.0124,
      "velocity": 95,
      "chip": "ym2612"
    },
    {
      "channel": 5,
      "note": 89,
      "start": 50.8377,
      "duration": 0.0125,
      "velocity": 95,
      "chip": "ym2612"
    },
    {
      "channel": 2,
      "note": 40,
      "start": 50.839,
      "duration": 0.0125,
      "velocity": 114,
      "chip": "ym2612"
    },
    {
      "channel": 0,
      "note": 89,
      "start": 50.8477,
      "duration": 0.0125,
      "velocity": 95,
      "chip": "ym2612"
    },
    {
      "channel": 5,
      "note": 89,
      "start": 50.8502,
      "duration": 0.0131,
      "velocity": 95,
      "chip": "ym2612"
    },
    {
      "channel": 2,
      "note": 40,
      "start": 50.8514,
      "duration": 0.0135,
      "velocity": 114,
      "chip": "ym2612"
    },
    {
      "channel": 0,
      "note": 89,
      "start": 50.8603,
      "duration": 0.0125,
      "velocity": 95,
      "chip": "ym2612"
    },
    {
      "channel": 5,
      "note": 89,
      "start": 50.8633,
      "duration": 0.0119,
      "velocity": 95,
      "chip": "ym2612"
    },
    {
      "channel": 2,
      "note": 40,
      "start": 50.8649,
      "duration": 0.0115,
      "velocity": 114,
      "chip": "ym2612"
    },
    {
      "channel": 0,
      "note": 89,
      "start": 50.8727,
      "duration": 0.0125,
      "velocity": 95,
      "chip": "ym2612"
    },
    {
      "channel": 5,
      "note": 89,
      "start": 50.8752,
      "duration": 0.0124,
      "velocity": 95,
      "chip": "ym2612"
    },
    {
      "channel": 2,
      "note": 40,
      "start": 50.8764,
      "duration": 0.0124,
      "velocity": 114,
      "chip": "ym2612"
    },
    {
      "channel": 0,
      "note": 89,
      "start": 50.8852,
      "duration": 0.0125,
      "velocity": 95,
      "chip": "ym2612"
    },
    {
      "channel": 5,
      "note": 89,
      "start": 50.8876,
      "duration": 0.0125,
      "velocity": 95,
      "chip": "ym2612"
    },
    {
      "channel": 2,
      "note": 40,
      "start": 50.8889,
      "duration": 0.0125,
      "velocity": 114,
      "chip": "ym2612"
    },
    {
      "channel": 0,
      "note": 89,
      "start": 50.8977,
      "duration": 0.0125,
      "velocity": 95,
      "chip": "ym2612"
    },
    {
      "channel": 5,
      "note": 89,
      "start": 50.9001,
      "duration": 0.0162,
      "velocity": 95,
      "chip": "ym2612"
    },
    {
      "channel": 2,
      "note": 40,
      "start": 50.9014,
      "duration": 0.016,
      "velocity": 114,
      "chip": "ym2612"
    },
    {
      "channel": 0,
      "note": 89,
      "start": 50.9102,
      "duration": 0.0125,
      "velocity": 95,
      "chip": "ym2612"
    },
    {
      "channel": 1,
      "note": 65,
      "start": 50.9122,
      "duration": 0.0994,
      "velocity": 81,
      "chip": "ym2612"
    },
    {
      "channel": 4,
      "note": 63,
      "start": 50.915,
      "duration": 0.1008,
      "velocity": 74,
      "chip": "ym2612"
    },
    {
      "channel": 5,
      "note": 89,
      "start": 50.9163,
      "duration": 0.0088,
      "velocity": 95,
      "chip": "ym2612"
    },
    {
      "channel": 0,
      "note": 89,
      "start": 50.9227,
      "duration": 0.0125,
      "velocity": 95,
      "chip": "ym2612"
    },
    {
      "channel": 5,
      "note": 89,
      "start": 50.9251,
      "duration": 0.0125,
      "velocity": 95,
      "chip": "ym2612"
    },
    {
      "channel": 2,
      "note": 40,
      "start": 50.9277,
      "duration": 0.0111,
      "velocity": 114,
      "chip": "ym2612"
    },
    {
      "channel": 0,
      "note": 89,
      "start": 50.9352,
      "duration": 0.0124,
      "velocity": 95,
      "chip": "ym2612"
    },
    {
      "channel": 5,
      "note": 89,
      "start": 50.9376,
      "duration": 0.0124,
      "velocity": 95,
      "chip": "ym2612"
    },
    {
      "channel": 2,
      "note": 40,
      "start": 50.9388,
      "duration": 0.0125,
      "velocity": 114,
      "chip": "ym2612"
    },
    {
      "channel": 0,
      "note": 89,
      "start": 50.9476,
      "duration": 0.0125,
      "velocity": 95,
      "chip": "ym2612"
    },
    {
      "channel": 5,
      "note": 89,
      "start": 50.95,
      "duration": 0.0131,
      "velocity": 95,
      "chip": "ym2612"
    },
    {
      "channel": 2,
      "note": 40,
      "start": 50.9513,
      "duration": 0.0135,
      "velocity": 114,
      "chip": "ym2612"
    },
    {
      "channel": 0,
      "note": 89,
      "start": 50.9601,
      "duration": 0.0125,
      "velocity": 95,
      "chip": "ym2612"
    },
    {
      "channel": 5,
      "note": 89,
      "start": 50.9631,
      "duration": 0.0119,
      "velocity": 95,
      "chip": "ym2612"
    },
    {
      "channel": 2,
      "note": 40,
      "start": 50.9648,
      "duration": 0.0115,
      "velocity": 114,
      "chip": "ym2612"
    },
    {
      "channel": 0,
      "note": 89,
      "start": 50.9726,
      "duration": 0.0125,
      "velocity": 95,
      "chip": "ym2612"
    },
    {
      "channel": 5,
      "note": 89,
      "start": 50.975,
      "duration": 0.0125,
      "velocity": 95,
      "chip": "ym2612"
    },
    {
      "channel": 2,
      "note": 40,
      "start": 50.9763,
      "duration": 0.0125,
      "velocity": 114,
      "chip": "ym2612"
    },
    {
      "channel": 0,
      "note": 89,
      "start": 50.9851,
      "duration": 0.0125,
      "velocity": 95,
      "chip": "ym2612"
    },
    {
      "channel": 5,
      "note": 89,
      "start": 50.9875,
      "duration": 0.0125,
      "velocity": 95,
      "chip": "ym2612"
    },
    {
      "channel": 2,
      "note": 40,
      "start": 50.9888,
      "duration": 0.0125,
      "velocity": 114,
      "chip": "ym2612"
    },
    {
      "channel": 0,
      "note": 89,
      "start": 50.9976,
      "duration": 0.0125,
      "velocity": 95,
      "chip": "ym2612"
    },
    {
      "channel": 5,
      "note": 89,
      "start": 51.0,
      "duration": 0.0175,
      "velocity": 95,
      "chip": "ym2612"
    },
    {
      "channel": 2,
      "note": 40,
      "start": 51.0012,
      "duration": 0.0174,
      "velocity": 114,
      "chip": "ym2612"
    },
    {
      "channel": 0,
      "note": 89,
      "start": 51.0101,
      "duration": 0.0125,
      "velocity": 95,
      "chip": "ym2612"
    },
    {
      "channel": 1,
      "note": 53,
      "start": 51.0121,
      "duration": 0.1861,
      "velocity": 81,
      "chip": "ym2612"
    },
    {
      "channel": 3,
      "note": 60,
      "start": 51.0149,
      "duration": 0.0842,
      "velocity": 113,
      "chip": "ym2612"
    },
    {
      "channel": 4,
      "note": 65,
      "start": 51.0163,
      "duration": 0.0841,
      "velocity": 74,
      "chip": "ym2612"
    },
    {
      "channel": 5,
      "note": 89,
      "start": 51.0175,
      "duration": 0.0074,
      "velocity": 95,
      "chip": "ym2612"
    },
    {
      "channel": 0,
      "note": 89,
      "start": 51.0226,
      "duration": 0.0124,
      "velocity": 95,
      "chip": "ym2612"
    },
    {
      "channel": 5,
      "note": 89,
      "start": 51.025,
      "duration": 0.0125,
      "velocity": 95,
      "chip": "ym2612"
    },
    {
      "channel": 2,
      "note": 40,
      "start": 51.0275,
      "duration": 0.0112,
      "velocity": 114,
      "chip": "ym2612"
    },
    {
      "channel": 0,
      "note": 89,
      "start": 51.035,
      "duration": 0.0125,
      "velocity": 95,
      "chip": "ym2612"
    },
    {
      "channel": 5,
      "note": 89,
      "start": 51.0374,
      "duration": 0.0125,
      "velocity": 95,
      "chip": "ym2612"
    },
    {
      "channel": 2,
      "note": 40,
      "start": 51.0387,
      "duration": 0.0125,
      "velocity": 114,
      "chip": "ym2612"
    },
    {
      "channel": 0,
      "note": 89,
      "start": 51.0475,
      "duration": 0.0125,
      "velocity": 95,
      "chip": "ym2612"
    },
    {
      "channel": 5,
      "note": 89,
      "start": 51.0499,
      "duration": 0.0131,
      "velocity": 95,
      "chip": "ym2612"
    },
    {
      "channel": 2,
      "note": 40,
      "start": 51.0512,
      "duration": 0.0135,
      "velocity": 114,
      "chip": "ym2612"
    },
    {
      "channel": 0,
      "note": 89,
      "start": 51.06,
      "duration": 0.0125,
      "velocity": 95,
      "chip": "ym2612"
    },
    {
      "channel": 5,
      "note": 89,
      "start": 51.063,
      "duration": 0.0119,
      "velocity": 95,
      "chip": "ym2612"
    },
    {
      "channel": 2,
      "note": 40,
      "start": 51.0647,
      "duration": 0.0115,
      "velocity": 114,
      "chip": "ym2612"
    },
    {
      "channel": 0,
      "note": 89,
      "start": 51.0725,
      "duration": 0.0125,
      "velocity": 95,
      "chip": "ym2612"
    },
    {
      "channel": 5,
      "note": 89,
      "start": 51.0749,
      "duration": 0.0125,
      "velocity": 95,
      "chip": "ym2612"
    },
    {
      "channel": 2,
      "note": 40,
      "start": 51.0762,
      "duration": 0.0125,
      "velocity": 114,
      "chip": "ym2612"
    },
    {
      "channel": 0,
      "note": 89,
      "start": 51.085,
      "duration": 0.0124,
      "velocity": 95,
      "chip": "ym2612"
    },
    {
      "channel": 5,
      "note": 89,
      "start": 51.0874,
      "duration": 0.0147,
      "velocity": 95,
      "chip": "ym2612"
    },
    {
      "channel": 2,
      "note": 40,
      "start": 51.0886,
      "duration": 0.0148,
      "velocity": 114,
      "chip": "ym2612"
    },
    {
      "channel": 0,
      "note": 89,
      "start": 51.0974,
      "duration": 0.0125,
      "velocity": 95,
      "chip": "ym2612"
    },
    {
      "channel": 3,
      "note": 63,
      "start": 51.0995,
      "duration": 0.1013,
      "velocity": 113,
      "chip": "ym2612"
    },
    {
      "channel": 4,
      "note": 75,
      "start": 51.1009,
      "duration": 0.1013,
      "velocity": 74,
      "chip": "ym2612"
    },
    {
      "channel": 5,
      "note": 89,
      "start": 51.1021,
      "duration": 0.0108,
      "velocity": 95,
      "chip": "ym2612"
    },
    {
      "channel": 2,
      "note": 40,
      "start": 51.1034,
      "duration": 0.0108,
      "velocity": 114,
      "chip": "ym2612"
    },
    {
      "channel": 0,
      "note": 89,
      "start": 51.11,
      "duration": 0.0125,
      "velocity": 95,
      "chip": "ym2612"
    },
    {
      "channel": 5,
      "note": 89,
      "start": 51.1129,
      "duration": 0.0119,
      "velocity": 95,
      "chip": "ym2612"
    },
    {
      "channel": 2,
      "note": 40,
      "start": 51.1142,
      "duration": 0.0119,
      "velocity": 114,
      "chip": "ym2612"
    },
    {
      "channel": 0,
      "note": 89,
      "start": 51.1224,
      "duration": 0.0125,
      "velocity": 95,
      "chip": "ym2612"
    },
    {
      "channel": 5,
      "note": 89,
      "start": 51.1249,
      "duration": 0.0124,
      "velocity": 95,
      "chip": "ym2612"
    },
    {
      "channel": 2,
      "note": 40,
      "start": 51.1261,
      "duration": 0.0124,
      "velocity": 114,
      "chip": "ym2612"
    },
    {
      "channel": 0,
      "note": 89,
      "start": 51.1349,
      "duration": 0.0125,
      "velocity": 95,
      "chip": "ym2612"
    },
    {
      "channel": 5,
      "note": 89,
      "start": 51.1373,
      "duration": 0.0125,
      "velocity": 95,
      "chip": "ym2612"
    },
    {
      "channel": 2,
      "note": 40,
      "start": 51.1386,
      "duration": 0.0125,
      "velocity": 114,
      "chip": "ym2612"
    },
    {
      "channel": 0,
      "note": 89,
      "start": 51.1474,
      "duration": 0.0125,
      "velocity": 95,
      "chip": "ym2612"
    },
    {
      "channel": 5,
      "note": 89,
      "start": 51.1498,
      "duration": 0.0131,
      "velocity": 95,
      "chip": "ym2612"
    },
    {
      "channel": 2,
      "note": 39,
      "start": 51.151,
      "duration": 0.0131,
      "velocity": 114,
      "chip": "ym2612"
    },
    {
      "channel": 0,
      "note": 89,
      "start": 51.1599,
      "duration": 0.0125,
      "velocity": 95,
      "chip": "ym2612"
    },
    {
      "channel": 5,
      "note": 89,
      "start": 51.1629,
      "duration": 0.0119,
      "velocity": 95,
      "chip": "ym2612"
    },
    {
      "channel": 2,
      "note": 39,
      "start": 51.1641,
      "duration": 0.0119,
      "velocity": 114,
      "chip": "ym2612"
    },
    {
      "channel": 0,
      "note": 89,
      "start": 51.1724,
      "duration": 0.0125,
      "velocity": 95,
      "chip": "ym2612"
    },
    {
      "channel": 5,
      "note": 89,
      "start": 51.1748,
      "duration": 0.0125,
      "velocity": 95,
      "chip": "ym2612"
    },
    {
      "channel": 2,
      "note": 39,
      "start": 51.1761,
      "duration": 0.0124,
      "velocity": 114,
      "chip": "ym2612"
    },
    {
      "channel": 0,
      "note": 89,
      "start": 51.1848,
      "duration": 0.0125,
      "velocity": 95,
      "chip": "ym2612"
    },
    {
      "channel": 5,
      "note": 89,
      "start": 51.1873,
      "duration": 0.0167,
      "velocity": 95,
      "chip": "ym2612"
    },
    {
      "channel": 0,
      "note": 89,
      "start": 51.1974,
      "duration": 0.0124,
      "velocity": 95,
      "chip": "ym2612"
    },
    {
      "channel": 1,
      "note": 53,
      "start": 51.1988,
      "duration": 0.1868,
      "velocity": 81,
      "chip": "ym2612"
    },
    {
      "channel": 3,
      "note": 65,
      "start": 51.2013,
      "duration": 0.085,
      "velocity": 113,
      "chip": "ym2612"
    },
    {
      "channel": 4,
      "note": 77,
      "start": 51.2027,
      "duration": 0.085,
      "velocity": 74,
      "chip": "ym2612"
    },
    {
      "channel": 5,
      "note": 89,
      "start": 51.2039,
      "duration": 0.0089,
      "velocity": 95,
      "chip": "ym2612"
    },
    {
      "channel": 2,
      "note": 40,
      "start": 51.2066,
      "duration": 0.0075,
      "velocity": 114,
      "chip": "ym2612"
    },
    {
      "channel": 0,
      "note": 89,
      "start": 51.2098,
      "duration": 0.0125,
      "velocity": 95,
      "chip": "ym2612"
    },
    {
      "channel": 5,
      "note": 89,
      "start": 51.2128,
      "duration": 0.0119,
      "velocity": 95,
      "chip": "ym2612"
    },
    {
      "channel": 2,
      "note": 40,
      "start": 51.2141,
      "duration": 0.0119,
      "velocity": 114,
      "chip": "ym2612"
    },
    {
      "channel": 0,
      "note": 89,
      "start": 51.2223,
      "duration": 0.0125,
      "velocity": 95,
      "chip": "ym2612"
    },
    {
      "channel": 5,
      "note": 89,
      "start": 51.2247,
      "duration": 0.0125,
      "velocity": 95,
      "chip": "ym2612"
    },
    {
      "channel": 2,
      "note": 40,
      "start": 51.226,
      "duration": 0.0129,
      "velocity": 114,
      "chip": "ym2612"
    },
    {
      "channel": 0,
      "note": 89,
      "start": 51.2348,
      "duration": 0.0124,
      "velocity": 95,
      "chip": "ym2612"
    },
    {
      "channel": 5,
      "note": 89,
      "start": 51.2373,
      "duration": 0.0124,
      "velocity": 95,
      "chip": "ym2612"
    },
    {
      "channel": 2,
      "note": 40,
      "start": 51.2388,
      "duration": 0.0121,
      "velocity": 114,
      "chip": "ym2612"
    },
    {
      "channel": 0,
      "note": 89,
      "start": 51.2472,
      "duration": 0.0125,
      "velocity": 95,
      "chip": "ym2612"
    },
    {
      "channel": 5,
      "note": 89,
      "start": 51.2497,
      "duration": 0.0131,
      "velocity": 95,
      "chip": "ym2612"
    },
    {
      "channel": 2,
      "note": 40,
      "start": 51.2509,
      "duration": 0.0131,
      "velocity": 114,
      "chip": "ym2612"
    },
    {
      "channel": 0,
      "note": 89,
      "start": 51.2598,
      "duration": 0.0124,
      "velocity": 95,
      "chip": "ym2612"
    },
    {
      "channel": 5,
      "note": 89,
      "start": 51.2627,
      "duration": 0.0119,
      "velocity": 95,
      "chip": "ym2612"
    },
    {
      "channel": 2,
      "note": 40,
      "start": 51.264,
      "duration": 0.0119,
      "velocity": 114,
      "chip": "ym2612"
    },
    {
      "channel": 0,
      "note": 89,
      "start": 51.2722,
      "duration": 0.0125,
      "velocity": 95,
      "chip": "ym2612"
    },
    {
      "channel": 5,
      "note": 89,
      "start": 51.2746,
      "duration": 0.0148,
      "velocity": 95,
      "chip": "ym2612"
    },
    {
      "channel": 2,
      "note": 40,
      "start": 51.2759,
      "duration": 0.0148,
      "velocity": 114,
      "chip": "ym2612"
    },
    {
      "channel": 0,
      "note": 89,
      "start": 51.2847,
      "duration": 0.0125,
      "velocity": 95,
      "chip": "ym2612"
    },
    {
      "channel": 3,
      "note": 63,
      "start": 51.2867,
      "duration": 0.1014,
      "velocity": 113,
      "chip": "ym2612"
    },
    {
      "channel": 4,
      "note": 65,
      "start": 51.2882,
      "duration": 0.1013,
      "velocity": 74,
      "chip": "ym2612"
    },
    {
      "channel": 5,
      "note": 89,
      "start": 51.2894,
      "duration": 0.0102,
      "velocity": 95,
      "chip": "ym2612"
    },
    {
      "channel": 2,
      "note": 40,
      "start": 51.2907,
      "duration": 0.0102,
      "velocity": 114,
      "chip": "ym2612"
    },
    {
      "channel": 0,
      "note": 89,
      "start": 51.2972,
      "duration": 0.0125,
      "velocity": 95,
      "chip": "ym2612"
    },
    {
      "channel": 5,
      "note": 89,
      "start": 51.2996,
      "duration": 0.0131,
      "velocity": 95,
      "chip": "ym2612"
    },
    {
      "channel": 2,
      "note": 40,
      "start": 51.3009,
      "duration": 0.0131,
      "velocity": 114,
      "chip": "ym2612"
    },
    {
      "channel": 0,
      "note": 89,
      "start": 51.3097,
      "duration": 0.0125,
      "velocity": 95,
      "chip": "ym2612"
    },
    {
      "channel": 5,
      "note": 89,
      "start": 51.3127,
      "duration": 0.0119,
      "velocity": 95,
      "chip": "ym2612"
    },
    {
      "channel": 2,
      "note": 40,
      "start": 51.314,
      "duration": 0.0119,
      "velocity": 114,
      "chip": "ym2612"
    },
    {
      "channel": 0,
      "note": 89,
      "start": 51.3222,
      "duration": 0.0125,
      "velocity": 95,
      "chip": "ym2612"
    },
    {
      "channel": 5,
      "note": 89,
      "start": 51.3246,
      "duration": 0.0125,
      "velocity": 95,
      "chip": "ym2612"
    },
    {
      "channel": 2,
      "note": 39,
      "start": 51.3259,
      "duration": 0.0125,
      "velocity": 114,
      "chip": "ym2612"
    },
    {
      "channel": 0,
      "note": 89,
      "start": 51.3346,
      "duration": 0.0125,
      "velocity": 95,
      "chip": "ym2612"
    },
    {
      "channel": 5,
      "note": 89,
      "start": 51.3371,
      "duration": 0.0125,
      "velocity": 95,
      "chip": "ym2612"
    },
    {
      "channel": 2,
      "note": 39,
      "start": 51.3383,
      "duration": 0.0125,
      "velocity": 114,
      "chip": "ym2612"
    },
    {
      "channel": 0,
      "note": 89,
      "start": 51.3472,
      "duration": 0.0125,
      "velocity": 95,
      "chip": "ym2612"
    },
    {
      "channel": 5,
      "note": 89,
      "start": 51.3495,
      "duration": 0.0131,
      "velocity": 95,
      "chip": "ym2612"
    },
    {
      "channel": 2,
      "note": 39,
      "start": 51.3508,
      "duration": 0.013,
      "velocity": 114,
      "chip": "ym2612"
    },
    {
      "channel": 0,
      "note": 89,
      "start": 51.3596,
      "duration": 0.0125,
      "velocity": 95,
      "chip": "ym2612"
    },
    {
      "channel": 5,
      "note": 89,
      "start": 51.3626,
      "duration": 0.0119,
      "velocity": 95,
      "chip": "ym2612"
    },
    {
      "channel": 0,
      "note": 89,
      "start": 51.3721,
      "duration": 0.0125,
      "velocity": 95,
      "chip": "ym2612"
    },
    {
      "channel": 5,
      "note": 89,
      "start": 51.3745,
      "duration": 0.0167,
      "velocity": 95,
      "chip": "ym2612"
    },
    {
      "channel": 0,
      "note": 89,
      "start": 51.3846,
      "duration": 0.0144,
      "velocity": 95,
      "chip": "ym2612"
    },
    {
      "channel": 1,
      "note": 53,
      "start": 51.386,
      "duration": 0.1897,
      "velocity": 81,
      "chip": "ym2612"
    },
    {
      "channel": 3,
      "note": 65,
      "start": 51.3886,
      "duration": 0.0877,
      "velocity": 113,
      "chip": "ym2612"
    },
    {
      "channel": 4,
      "note": 72,
      "start": 51.39,
      "duration": 0.0883,
      "velocity": 74,
      "chip": "ym2612"
    },
    {
      "channel": 5,
      "note": 89,
      "start": 51.3912,
      "duration": 0.0102,
      "velocity": 95,
      "chip": "ym2612"
    },
    {
      "channel": 2,
      "note": 41,
      "start": 51.3973,
      "duration": 0.0856,
      "velocity": 122,
      "chip": "ym2612"
    },
    {
      "channel": 0,
      "note": 89,
      "start": 51.3991,
      "duration": 0.013,
      "velocity": 95,
      "chip": "ym2612"
    },
    {
      "channel": 5,
      "note": 89,
      "start": 51.4015,
      "duration": 0.013,
      "velocity": 95,
      "chip": "ym2612"
    },
    {
      "channel": 0,
      "note": 89,
      "start": 51.4121,
      "duration": 0.0119,
      "velocity": 95,
      "chip": "ym2612"
    },
    {
      "channel": 5,
      "note": 89,
      "start": 51.4145,
      "duration": 0.0119,
      "velocity": 95,
      "chip": "ym2612"
    },
    {
      "channel": 0,
      "note": 89,
      "start": 51.424,
      "duration": 0.0125,
      "velocity": 95,
      "chip": "ym2612"
    },
    {
      "channel": 5,
      "note": 89,
      "start": 51.4264,
      "duration": 0.0124,
      "velocity": 95,
      "chip": "ym2612"
    },
    {
      "channel": 0,
      "note": 89,
      "start": 51.4366,
      "duration": 0.0125,
      "velocity": 95,
      "chip": "ym2612"
    },
    {
      "channel": 5,
      "note": 89,
      "start": 51.4389,
      "duration": 0.0125,
      "velocity": 95,
      "chip": "ym2612"
    },
    {
      "channel": 0,
      "note": 89,
      "start": 51.449,
      "duration": 0.0131,
      "velocity": 95,
      "chip": "ym2612"
    },
    {
      "channel": 5,
      "note": 89,
      "start": 51.4514,
      "duration": 0.013,
      "velocity": 95,
      "chip": "ym2612"
    },
    {
      "channel": 0,
      "note": 89,
      "start": 51.4621,
      "duration": 0.0118,
      "velocity": 95,
      "chip": "ym2612"
    },
    {
      "channel": 5,
      "note": 89,
      "start": 51.4645,
      "duration": 0.0156,
      "velocity": 95,
      "chip": "ym2612"
    },
    {
      "channel": 0,
      "note": 89,
      "start": 51.4739,
      "duration": 0.0134,
      "velocity": 95,
      "chip": "ym2612"
    },
    {
      "channel": 3,
      "note": 67,
      "start": 51.4768,
      "duration": 0.101,
      "velocity": 113,
      "chip": "ym2612"
    },
    {
      "channel": 4,
      "note": 75,
      "start": 51.4788,
      "duration": 0.1006,
      "velocity": 74,
      "chip": "ym2612"
    },
    {
      "channel": 5,
      "note": 89,
      "start": 51.4801,
      "duration": 0.0097,
      "velocity": 95,
      "chip": "ym2612"
    },
    {
      "channel": 2,
      "note": 40,
      "start": 51.4856,
      "duration": 0.0055,
      "velocity": 114,
      "chip": "ym2612"
    },
    {
      "channel": 0,
      "note": 89,
      "start": 51.4874,
      "duration": 0.0125,
      "velocity": 95,
      "chip": "ym2612"
    },
    {
      "channel": 5,
      "note": 89,
      "start": 51.4898,
      "duration": 0.0125,
      "velocity": 95,
      "chip": "ym2612"
    },
    {
      "channel": 2,
      "note": 40,
      "start": 51.4911,
      "duration": 0.0125,
      "velocity": 114,
      "chip": "ym2612"
    },
    {
      "channel": 0,
      "note": 89,
      "start": 51.4998,
      "duration": 0.0127,
      "velocity": 95,
      "chip": "ym2612"
    },
    {
      "channel": 5,
      "note": 89,
      "start": 51.5023,
      "duration": 0.0127,
      "velocity": 95,
      "chip": "ym2612"
    },
    {
      "channel": 2,
      "note": 40,
      "start": 51.5035,
      "duration": 0.0131,
      "velocity": 114,
      "chip": "ym2612"
    },
    {
      "channel": 0,
      "note": 89,
      "start": 51.5126,
      "duration": 0.0122,
      "velocity": 95,
      "chip": "ym2612"
    },
    {
      "channel": 5,
      "note": 89,
      "start": 51.515,
      "duration": 0.0126,
      "velocity": 95,
      "chip": "ym2612"
    },
    {
      "channel": 2,
      "note": 40,
      "start": 51.5166,
      "duration": 0.0124,
      "velocity": 114,
      "chip": "ym2612"
    },
    {
      "channel": 0,
      "note": 89,
      "start": 51.5248,
      "duration": 0.0125,
      "velocity": 95,
      "chip": "ym2612"
    },
    {
      "channel": 5,
      "note": 89,
      "start": 51.5276,
      "duration": 0.0122,
      "velocity": 95,
      "chip": "ym2612"
    },
    {
      "channel": 2,
      "note": 40,
      "start": 51.5291,
      "duration": 0.0119,
      "velocity": 114,
      "chip": "ym2612"
    },
    {
      "channel": 0,
      "note": 89,
      "start": 51.5373,
      "duration": 0.0125,
      "velocity": 95,
      "chip": "ym2612"
    },
    {
      "channel": 5,
      "note": 89,
      "start": 51.5397,
      "duration": 0.0125,
      "velocity": 95,
      "chip": "ym2612"
    },
    {
      "channel": 2,
      "note": 40,
      "start": 51.541,
      "duration": 0.0125,
      "velocity": 114,
      "chip": "ym2612"
    },
    {
      "channel": 0,
      "note": 89,
      "start": 51.5498,
      "duration": 0.0128,
      "velocity": 95,
      "chip": "ym2612"
    },
    {
      "channel": 5,
      "note": 89,
      "start": 51.5522,
      "duration": 0.0127,
      "velocity": 95,
      "chip": "ym2612"
    },
    {
      "channel": 2,
      "note": 40,
      "start": 51.5535,
      "duration": 0.0127,
      "velocity": 114,
      "chip": "ym2612"
    },
    {
      "channel": 0,
      "note": 89,
      "start": 51.5626,
      "duration": 0.0122,
      "velocity": 95,
      "chip": "ym2612"
    },
    {
      "channel": 5,
      "note": 89,
      "start": 51.5649,
      "duration": 0.0163,
      "velocity": 95,
      "chip": "ym2612"
    },
    {
      "channel": 2,
      "note": 40,
      "start": 51.5662,
      "duration": 0.0163,
      "velocity": 114,
      "chip": "ym2612"
    },
    {
      "channel": 0,
      "note": 89,
      "start": 51.5748,
      "duration": 0.0125,
      "velocity": 95,
      "chip": "ym2612"
    },
    {
      "channel": 1,
      "note": 53,
      "start": 51.5762,
      "duration": 0.1873,
      "velocity": 81,
      "chip": "ym2612"
    },
    {
      "channel": 3,
      "note": 65,
      "start": 51.5785,
      "duration": 0.0856,
      "velocity": 113,
      "chip": "ym2612"
    },
    {
      "channel": 4,
      "note": 65,
      "start": 51.58,
      "duration": 0.0855,
      "velocity": 74,
      "chip": "ym2612"
    },
    {
      "channel": 5,
      "note": 89,
      "start": 51.5812,
      "duration": 0.0085,
      "velocity": 95,
      "chip": "ym2612"
    },
    {
      "channel": 2,
      "note": 40,
      "start": 51.5825,
      "duration": 0.0085,
      "velocity": 114,
      "chip": "ym2612"
    },
    {
      "channel": 0,
      "note": 89,
      "start": 51.5873,
      "duration": 0.0124,
      "velocity": 95,
      "chip": "ym2612"
    },
    {
      "channel": 5,
      "note": 89,
      "start": 51.5897,
      "duration": 0.0125,
      "velocity": 95,
      "chip": "ym2612"
    },
    {
      "channel": 2,
      "note": 40,
      "start": 51.5909,
      "duration": 0.0125,
      "velocity": 114,
      "chip": "ym2612"
    },
    {
      "channel": 0,
      "note": 89,
      "start": 51.5997,
      "duration": 0.0128,
      "velocity": 95,
      "chip": "ym2612"
    },
    {
      "channel": 5,
      "note": 89,
      "start": 51.6021,
      "duration": 0.0128,
      "velocity": 95,
      "chip": "ym2612"
    },
    {
      "channel": 2,
      "note": 39,
      "start": 51.6034,
      "duration": 0.0128,
      "velocity": 114,
      "chip": "ym2612"
    },
    {
      "channel": 0,
      "note": 89,
      "start": 51.6125,
      "duration": 0.0123,
      "velocity": 95,
      "chip": "ym2612"
    },
    {
      "channel": 5,
      "note": 89,
      "start": 51.6149,
      "duration": 0.0122,
      "velocity": 95,
      "chip": "ym2612"
    },
    {
      "channel": 2,
      "note": 39,
      "start": 51.6162,
      "duration": 0.0129,
      "velocity": 114,
      "chip": "ym2612"
    },
    {
      "channel": 0,
      "note": 89,
      "start": 51.6248,
      "duration": 0.0125,
      "velocity": 95,
      "chip": "ym2612"
    },
    {
      "channel": 5,
      "note": 89,
      "start": 51.6271,
      "duration": 0.0125,
      "velocity": 95,
      "chip": "ym2612"
    },
    {
      "channel": 2,
      "note": 39,
      "start": 51.629,
      "duration": 0.0118,
      "velocity": 114,
      "chip": "ym2612"
    },
    {
      "channel": 0,
      "note": 89,
      "start": 51.6373,
      "duration": 0.0124,
      "velocity": 95,
      "chip": "ym2612"
    },
    {
      "channel": 5,
      "note": 89,
      "start": 51.6397,
      "duration": 0.0125,
      "velocity": 95,
      "chip": "ym2612"
    },
    {
      "channel": 0,
      "note": 89,
      "start": 51.6497,
      "duration": 0.0128,
      "velocity": 95,
      "chip": "ym2612"
    },
    {
      "channel": 5,
      "note": 89,
      "start": 51.6521,
      "duration": 0.0151,
      "velocity": 95,
      "chip": "ym2612"
    },
    {
      "channel": 0,
      "note": 89,
      "start": 51.6625,
      "duration": 0.0123,
      "velocity": 95,
      "chip": "ym2612"
    },
    {
      "channel": 3,
      "note": 67,
      "start": 51.6645,
      "duration": 0.1015,
      "velocity": 113,
      "chip": "ym2612"
    },
    {
      "channel": 4,
      "note": 70,
      "start": 51.666,
      "duration": 0.1015,
      "velocity": 74,
      "chip": "ym2612"
    },
    {
      "channel": 5,
      "note": 89,
      "start": 51.6672,
      "duration": 0.0104,
      "velocity": 95,
      "chip": "ym2612"
    },
    {
      "channel": 0,
      "note": 89,
      "start": 51.6748,
      "duration": 0.0125,
      "velocity": 95,
      "chip": "ym2612"
    },
    {
      "channel": 5,
      "note": 89,
      "start": 51.6776,
      "duration": 0.0121,
      "velocity": 95,
      "chip": "ym2612"
    },
    {
      "channel": 0,
      "note": 89,
      "start": 51.6873,
      "duration": 0.0124,
      "velocity": 95,
      "chip": "ym2612"
    },
    {
      "channel": 5,
      "note": 89,
      "start": 51.6897,
      "duration": 0.0125,
      "velocity": 95,
      "chip": "ym2612"
    },
    {
      "channel": 0,
      "note": 89,
      "start": 51.6997,
      "duration": 0.0128,
      "velocity": 95,
      "chip": "ym2612"
    },
    {
      "channel": 5,
      "note": 89,
      "start": 51.7021,
      "duration": 0.0128,
      "velocity": 95,
      "chip": "ym2612"
    },
    {
      "channel": 0,
      "note": 89,
      "start": 51.7125,
      "duration": 0.0123,
      "velocity": 95,
      "chip": "ym2612"
    },
    {
      "channel": 5,
      "note": 89,
      "start": 51.7149,
      "duration": 0.0126,
      "velocity": 95,
      "chip": "ym2612"
    },
    {
      "channel": 0,
      "note": 89,
      "start": 51.7248,
      "duration": 0.0125,
      "velocity": 95,
      "chip": "ym2612"
    },
    {
      "channel": 5,
      "note": 89,
      "start": 51.7275,
      "duration": 0.0122,
      "velocity": 95,
      "chip": "ym2612"
    },
    {
      "channel": 0,
      "note": 89,
      "start": 51.7373,
      "duration": 0.0124,
      "velocity": 95,
      "chip": "ym2612"
    },
    {
      "channel": 5,
      "note": 89,
      "start": 51.7397,
      "duration": 0.0125,
      "velocity": 95,
      "chip": "ym2612"
    },
    {
      "channel": 0,
      "note": 89,
      "start": 51.7497,
      "duration": 0.0128,
      "velocity": 95,
      "chip": "ym2612"
    },
    {
      "channel": 5,
      "note": 89,
      "start": 51.7521,
      "duration": 0.017,
      "velocity": 95,
      "chip": "ym2612"
    },
    {
      "channel": 0,
      "note": 89,
      "start": 51.7625,
      "duration": 0.0123,
      "velocity": 95,
      "chip": "ym2612"
    },
    {
      "channel": 1,
      "note": 53,
      "start": 51.764,
      "duration": 0.1867,
      "velocity": 81,
      "chip": "ym2612"
    },
    {
      "channel": 3,
      "note": 68,
      "start": 51.7665,
      "duration": 0.0848,
      "velocity": 113,
      "chip": "ym2612"
    },
    {
      "channel": 4,
      "note": 72,
      "start": 51.7679,
      "duration": 0.0848,
      "velocity": 74,
      "chip": "ym2612"
    },
    {
      "channel": 5,
      "note": 89,
      "start": 51.7691,
      "duration": 0.0081,
      "velocity": 95,
      "chip": "ym2612"
    },
    {
      "channel": 2,
      "note": 40,
      "start": 51.7718,
      "duration": 0.0073,
      "velocity": 114,
      "chip": "ym2612"
    },
    {
      "channel": 0,
      "note": 89,
      "start": 51.7748,
      "duration": 0.0125,
      "velocity": 95,
      "chip": "ym2612"
    },
    {
      "channel": 5,
      "note": 89,
      "start": 51.7772,
      "duration": 0.0125,
      "velocity": 95,
      "chip": "ym2612"
    },
    {
      "channel": 2,
      "note": 40,
      "start": 51.779,
      "duration": 0.0119,
      "velocity": 114,
      "chip": "ym2612"
    },
    {
      "channel": 0,
      "note": 89,
      "start": 51.7873,
      "duration": 0.0124,
      "velocity": 95,
      "chip": "ym2612"
    },
    {
      "channel": 5,
      "note": 89,
      "start": 51.7897,
      "duration": 0.0125,
      "velocity": 95,
      "chip": "ym2612"
    },
    {
      "channel": 2,
      "note": 40,
      "start": 51.7909,
      "duration": 0.0129,
      "velocity": 114,
      "chip": "ym2612"
    },
    {
      "channel": 0,
      "note": 89,
      "start": 51.7997,
      "duration": 0.0128,
      "velocity": 95,
      "chip": "ym2612"
    },
    {
      "channel": 5,
      "note": 89,
      "start": 51.8021,
      "duration": 0.0128,
      "velocity": 95,
      "chip": "ym2612"
    },
    {
      "channel": 2,
      "note": 40,
      "start": 51.8038,
      "duration": 0.0124,
      "velocity": 114,
      "chip": "ym2612"
    },
    {
      "channel": 0,
      "note": 89,
      "start": 51.8125,
      "duration": 0.0123,
      "velocity": 95,
      "chip": "ym2612"
    },
    {
      "channel": 5,
      "note": 89,
      "start": 51.8149,
      "duration": 0.0126,
      "velocity": 95,
      "chip": "ym2612"
    },
    {
      "channel": 2,
      "note": 40,
      "start": 51.8162,
      "duration": 0.0129,
      "velocity": 114,
      "chip": "ym2612"
    },
    {
      "channel": 0,
      "note": 89,
      "start": 51.8248,
      "duration": 0.0125,
      "velocity": 95,
      "chip": "ym2612"
    },
    {
      "channel": 5,
      "note": 89,
      "start": 51.8275,
      "duration": 0.0122,
      "velocity": 95,
      "chip": "ym2612"
    },
    {
      "channel": 2,
      "note": 40,
      "start": 51.829,
      "duration": 0.0119,
      "velocity": 114,
      "chip": "ym2612"
    },
    {
      "channel": 0,
      "note": 89,
      "start": 51.8373,
      "duration": 0.0124,
      "velocity": 95,
      "chip": "ym2612"
    },
    {
      "channel": 5,
      "note": 89,
      "start": 51.8397,
      "duration": 0.0148,
      "velocity": 95,
      "chip": "ym2612"
    },
    {
      "channel": 2,
      "note": 40,
      "start": 51.8409,
      "duration": 0.0148,
      "velocity": 114,
      "chip": "ym2612"
    },
    {
      "channel": 0,
      "note": 89,
      "start": 51.8497,
      "duration": 0.0128,
      "velocity": 95,
      "chip": "ym2612"
    },
    {
      "channel": 3,
      "note": 67,
      "start": 51.8517,
      "duration": 0.1015,
      "velocity": 113,
      "chip": "ym2612"
    },
    {
      "channel": 4,
      "note": 65,
      "start": 51.8532,
      "duration": 0.1014,
      "velocity": 74,
      "chip": "ym2612"
    },
    {
      "channel": 5,
      "note": 89,
      "start": 51.8544,
      "duration": 0.0105,
      "velocity": 95,
      "chip": "ym2612"
    },
    {
      "channel": 2,
      "note": 40,
      "start": 51.8557,
      "duration": 0.0105,
      "velocity": 114,
      "chip": "ym2612"
    },
    {
      "channel": 0,
      "note": 89,
      "start": 51.8625,
      "duration": 0.0123,
      "velocity": 95,
      "chip": "ym2612"
    },
    {
      "channel": 5,
      "note": 89,
      "start": 51.8649,
      "duration": 0.0122,
      "velocity": 95,
      "chip": "ym2612"
    },
    {
      "channel": 2,
      "note": 40,
      "start": 51.8662,
      "duration": 0.0129,
      "velocity": 114,
      "chip": "ym2612"
    },
    {
      "channel": 0,
      "note": 89,
      "start": 51.8748,
      "duration": 0.0125,
      "velocity": 95,
      "chip": "ym2612"
    },
    {
      "channel": 5,
      "note": 89,
      "start": 51.8771,
      "duration": 0.0125,
      "velocity": 95,
      "chip": "ym2612"
    },
    {
      "channel": 2,
      "note": 40,
      "start": 51.879,
      "duration": 0.0119,
      "velocity": 114,
      "chip": "ym2612"
    },
    {
      "channel": 0,
      "note": 89,
      "start": 51.8873,
      "duration": 0.0124,
      "velocity": 95,
      "chip": "ym2612"
    },
    {
      "channel": 5,
      "note": 89,
      "start": 51.8897,
      "duration": 0.0125,
      "velocity": 95,
      "chip": "ym2612"
    },
    {
      "channel": 2,
      "note": 39,
      "start": 51.8909,
      "duration": 0.0125,
      "velocity": 114,
      "chip": "ym2612"
    },
    {
      "channel": 0,
      "note": 89,
      "start": 51.8997,
      "duration": 0.0129,
      "velocity": 95,
      "chip": "ym2612"
    },
    {
      "channel": 5,
      "note": 89,
      "start": 51.9021,
      "duration": 0.0128,
      "velocity": 95,
      "chip": "ym2612"
    },
    {
      "channel": 2,
      "note": 39,
      "start": 51.9034,
      "duration": 0.0128,
      "velocity": 114,
      "chip": "ym2612"
    },
    {
      "channel": 0,
      "note": 89,
      "start": 51.9126,
      "duration": 0.0122,
      "velocity": 95,
      "chip": "ym2612"
    },
    {
      "channel": 5,
      "note": 89,
      "start": 51.9149,
      "duration": 0.0122,
      "velocity": 95,
      "chip": "ym2612"
    },
    {
      "channel": 2,
      "note": 39,
      "start": 51.9162,
      "duration": 0.0128,
      "velocity": 114,
      "chip": "ym2612"
    },
    {
      "channel": 0,
      "note": 89,
      "start": 51.9248,
      "duration": 0.0125,
      "velocity": 95,
      "chip": "ym2612"
    },
    {
      "channel": 5,
      "note": 89,
      "start": 51.9271,
      "duration": 0.0125,
      "velocity": 95,
      "chip": "ym2612"
    },
    {
      "channel": 0,
      "note": 89,
      "start": 51.9373,
      "duration": 0.0124,
      "velocity": 95,
      "chip": "ym2612"
    },
    {
      "channel": 5,
      "note": 89,
      "start": 51.9397,
      "duration": 0.0167,
      "velocity": 95,
      "chip": "ym2612"
    },
    {
      "channel": 0,
      "note": 89,
      "start": 51.9497,
      "duration": 0.0129,
      "velocity": 95,
      "chip": "ym2612"
    },
    {
      "channel": 1,
      "note": 65,
      "start": 51.9512,
      "duration": 0.087,
      "velocity": 81,
      "chip": "ym2612"
    },
    {
      "channel": 3,
      "note": 68,
      "start": 51.9537,
      "duration": 0.0863,
      "velocity": 113,
      "chip": "ym2612"
    },
    {
      "channel": 4,
      "note": 68,
      "start": 51.9551,
      "duration": 0.0863,
      "velocity": 74,
      "chip": "ym2612"
    },
    {
      "channel": 5,
      "note": 89,
      "start": 51.9563,
      "duration": 0.0086,
      "velocity": 95,
      "chip": "ym2612"
    },
    {
      "channel": 2,
      "note": 40,
      "start": 51.959,
      "duration": 0.0072,
      "velocity": 114,
      "chip": "ym2612"
    },
    {
      "channel": 0,
      "note": 89,
      "start": 51.9626,
      "duration": 0.0122,
      "velocity": 95,
      "chip": "ym2612"
    },
    {
      "channel": 5,
      "note": 89,
      "start": 51.9649,
      "duration": 0.0127,
      "velocity": 95,
      "chip": "ym2612"
    },
    {
      "channel": 2,
      "note": 40,
      "start": 51.9662,
      "duration": 0.0129,
      "velocity": 114,
      "chip": "ym2612"
    },
    {
      "channel": 0,
      "note": 89,
      "start": 51.9748,
      "duration": 0.0125,
      "velocity": 95,
      "chip": "ym2612"
    },
    {
      "channel": 5,
      "note": 89,
      "start": 51.9776,
      "duration": 0.0121,
      "velocity": 95,
      "chip": "ym2612"
    },
    {
      "channel": 2,
      "note": 40,
      "start": 51.9791,
      "duration": 0.0122,
      "velocity": 114,
      "chip": "ym2612"
    },
    {
      "channel": 0,
      "note": 89,
      "start": 51.9873,
      "duration": 0.0124,
      "velocity": 95,
      "chip": "ym2612"
    },
    {
      "channel": 5,
      "note": 89,
      "start": 51.9897,
      "duration": 0.0125,
      "velocity": 95,
      "chip": "ym2612"
    },
    {
      "channel": 2,
      "note": 40,
      "start": 51.9913,
      "duration": 0.0121,
      "velocity": 114,
      "chip": "ym2612"
    },
    {
      "channel": 0,
      "note": 89,
      "start": 51.9997,
      "duration": 0.0128,
      "velocity": 95,
      "chip": "ym2612"
    },
    {
      "channel": 5,
      "note": 89,
      "start": 52.0021,
      "duration": 0.0128,
      "velocity": 95,
      "chip": "ym2612"
    },
    {
      "channel": 2,
      "note": 40,
      "start": 52.0034,
      "duration": 0.0128,
      "velocity": 114,
      "chip": "ym2612"
    },
    {
      "channel": 0,
      "note": 89,
      "start": 52.0125,
      "duration": 0.0123,
      "velocity": 95,
      "chip": "ym2612"
    },
    {
      "channel": 5,
      "note": 89,
      "start": 52.0149,
      "duration": 0.0122,
      "velocity": 95,
      "chip": "ym2612"
    },
    {
      "channel": 2,
      "note": 40,
      "start": 52.0162,
      "duration": 0.0129,
      "velocity": 114,
      "chip": "ym2612"
    },
    {
      "channel": 0,
      "note": 89,
      "start": 52.0248,
      "duration": 0.0125,
      "velocity": 95,
      "chip": "ym2612"
    },
    {
      "channel": 5,
      "note": 89,
      "start": 52.0271,
      "duration": 0.0159,
      "velocity": 95,
      "chip": "ym2612"
    },
    {
      "channel": 2,
      "note": 40,
      "start": 52.029,
      "duration": 0.0159,
      "velocity": 114,
      "chip": "ym2612"
    },
    {
      "channel": 0,
      "note": 89,
      "start": 52.0373,
      "duration": 0.0124,
      "velocity": 95,
      "chip": "ym2612"
    },
    {
      "channel": 1,
      "note": 65,
      "start": 52.0386,
      "duration": 0.0996,
      "velocity": 81,
      "chip": "ym2612"
    },
    {
      "channel": 3,
      "note": 70,
      "start": 52.0404,
      "duration": 0.1003,
      "velocity": 113,
      "chip": "ym2612"
    },
    {
      "channel": 4,
      "note": 70,
      "start": 52.0418,
      "duration": 0.1004,
      "velocity": 74,
      "chip": "ym2612"
    },
    {
      "channel": 5,
      "note": 89,
      "start": 52.043,
      "duration": 0.0091,
      "velocity": 95,
      "chip": "ym2612"
    },
    {
      "channel": 2,
      "note": 40,
      "start": 52.0449,
      "duration": 0.0085,
      "velocity": 114,
      "chip": "ym2612"
    },
    {
      "channel": 0,
      "note": 89,
      "start": 52.0497,
      "duration": 0.0128,
      "velocity": 95,
      "chip": "ym2612"
    },
    {
      "channel": 5,
      "note": 89,
      "start": 52.0521,
      "duration": 0.0128,
      "velocity": 95,
      "chip": "ym2612"
    },
    {
      "channel": 2,
      "note": 40,
      "start": 52.0534,
      "duration": 0.0128,
      "velocity": 114,
      "chip": "ym2612"
    },
    {
      "channel": 0,
      "note": 89,
      "start": 52.0625,
      "duration": 0.0123,
      "velocity": 95,
      "chip": "ym2612"
    },
    {
      "channel": 5,
      "note": 89,
      "start": 52.0649,
      "duration": 0.0122,
      "velocity": 95,
      "chip": "ym2612"
    },
    {
      "channel": 2,
      "note": 40,
      "start": 52.0662,
      "duration": 0.0129,
      "velocity": 114,
      "chip": "ym2612"
    },
    {
      "channel": 0,
      "note": 89,
      "start": 52.0748,
      "duration": 0.0125,
      "velocity": 95,
      "chip": "ym2612"
    },
    {
      "channel": 5,
      "note": 89,
      "start": 52.0771,
      "duration": 0.0125,
      "velocity": 95,
      "chip": "ym2612"
    },
    {
      "channel": 2,
      "note": 39,
      "start": 52.079,
      "duration": 0.0119,
      "velocity": 114,
      "chip": "ym2612"
    },
    {
      "channel": 0,
      "note": 89,
      "start": 52.0873,
      "duration": 0.0124,
      "velocity": 95,
      "chip": "ym2612"
    },
    {
      "channel": 5,
      "note": 89,
      "start": 52.0897,
      "duration": 0.0125,
      "velocity": 95,
      "chip": "ym2612"
    },
    {
      "channel": 2,
      "note": 39,
      "start": 52.0909,
      "duration": 0.0125,
      "velocity": 114,
      "chip": "ym2612"
    },
    {
      "channel": 0,
      "note": 89,
      "start": 52.0997,
      "duration": 0.0128,
      "velocity": 95,
      "chip": "ym2612"
    },
    {
      "channel": 5,
      "note": 89,
      "start": 52.1021,
      "duration": 0.0128,
      "velocity": 95,
      "chip": "ym2612"
    },
    {
      "channel": 2,
      "note": 39,
      "start": 52.1034,
      "duration": 0.0127,
      "velocity": 114,
      "chip": "ym2612"
    },
    {
      "channel": 0,
      "note": 89,
      "start": 52.1125,
      "duration": 0.0123,
      "velocity": 95,
      "chip": "ym2612"
    },
    {
      "channel": 5,
      "note": 89,
      "start": 52.1149,
      "duration": 0.0126,
      "velocity": 95,
      "chip": "ym2612"
    },
    {
      "channel": 0,
      "note": 89,
      "start": 52.1248,
      "duration": 0.0125,
      "velocity": 95,
      "chip": "ym2612"
    },
    {
      "channel": 5,
      "note": 89,
      "start": 52.1275,
      "duration": 0.0167,
      "velocity": 95,
      "chip": "ym2612"
    },
    {
      "channel": 0,
      "note": 89,
      "start": 52.1373,
      "duration": 0.0144,
      "velocity": 95,
      "chip": "ym2612"
    },
    {
      "channel": 1,
      "note": 53,
      "start": 52.1387,
      "duration": 0.1891,
      "velocity": 81,
      "chip": "ym2612"
    },
    {
      "channel": 3,
      "note": 68,
      "start": 52.1412,
      "duration": 0.0875,
      "velocity": 113,
      "chip": "ym2612"
    },
    {
      "channel": 4,
      "note": 65,
      "start": 52.1427,
      "duration": 0.0875,
      "velocity": 74,
      "chip": "ym2612"
    },
    {
      "channel": 5,
      "note": 89,
      "start": 52.1442,
      "duration": 0.0099,
      "velocity": 95,
      "chip": "ym2612"
    },
    {
      "channel": 2,
      "note": 41,
      "start": 52.15,
      "duration": 0.1866,
      "velocity": 122,
      "chip": "ym2612"
    },
    {
      "channel": 0,
      "note": 89,
      "start": 52.1517,
      "duration": 0.0125,
      "velocity": 95,
      "chip": "ym2612"
    },
    {
      "channel": 5,
      "note": 89,
      "start": 52.1542,
      "duration": 0.0125,
      "velocity": 95,
      "chip": "ym2612"
    },
    {
      "channel": 0,
      "note": 89,
      "start": 52.1642,
      "duration": 0.0125,
      "velocity": 95,
      "chip": "ym2612"
    },
    {
      "channel": 5,
      "note": 89,
      "start": 52.1666,
      "duration": 0.0131,
      "velocity": 95,
      "chip": "ym2612"
    },
    {
      "channel": 0,
      "note": 89,
      "start": 52.1767,
      "duration": 0.0125,
      "velocity": 95,
      "chip": "ym2612"
    },
    {
      "channel": 5,
      "note": 89,
      "start": 52.1798,
      "duration": 0.0118,
      "velocity": 95,
      "chip": "ym2612"
    },
    {
      "channel": 0,
      "note": 89,
      "start": 52.1892,
      "duration": 0.0124,
      "velocity": 95,
      "chip": "ym2612"
    },
    {
      "channel": 5,
      "note": 89,
      "start": 52.1916,
      "duration": 0.0125,
      "velocity": 95,
      "chip": "ym2612"
    },
    {
      "channel": 0,
      "note": 89,
      "start": 52.2017,
      "duration": 0.0125,
      "velocity": 95,
      "chip": "ym2612"
    },
    {
      "channel": 5,
      "note": 89,
      "start": 52.2041,
      "duration": 0.0125,
      "velocity": 95,
      "chip": "ym2612"
    },
    {
      "channel": 0,
      "note": 89,
      "start": 52.2141,
      "duration": 0.0125,
      "velocity": 95,
      "chip": "ym2612"
    },
    {
      "channel": 5,
      "note": 89,
      "start": 52.2166,
      "duration": 0.0153,
      "velocity": 95,
      "chip": "ym2612"
    },
    {
      "channel": 0,
      "note": 89,
      "start": 52.2266,
      "duration": 0.0125,
      "velocity": 95,
      "chip": "ym2612"
    },
    {
      "channel": 3,
      "note": 70,
      "start": 52.2293,
      "duration": 0.1013,
      "velocity": 113,
      "chip": "ym2612"
    },
    {
      "channel": 4,
      "note": 67,
      "start": 52.2307,
      "duration": 0.1013,
      "velocity": 74,
      "chip": "ym2612"
    },
    {
      "channel": 5,
      "note": 89,
      "start": 52.2319,
      "duration": 0.0096,
      "velocity": 95,
      "chip": "ym2612"
    },
    {
      "channel": 0,
      "note": 89,
      "start": 52.2391,
      "duration": 0.0125,
      "velocity": 95,
      "chip": "ym2612"
    },
    {
      "channel": 5,
      "note": 89,
      "start": 52.2415,
      "duration": 0.0125,
      "velocity": 95,
      "chip": "ym2612"
    },
    {
      "channel": 0,
      "note": 89,
      "start": 52.2516,
      "duration": 0.0124,
      "velocity": 95,
      "chip": "ym2612"
    },
    {
      "channel": 5,
      "note": 89,
      "start": 52.254,
      "duration": 0.0125,
      "velocity": 95,
      "chip": "ym2612"
    },
    {
      "channel": 0,
      "note": 89,
      "start": 52.2641,
      "duration": 0.0125,
      "velocity": 95,
      "chip": "ym2612"
    },
    {
      "channel": 5,
      "note": 89,
      "start": 52.2665,
      "duration": 0.0131,
      "velocity": 95,
      "chip": "ym2612"
    },
    {
      "channel": 0,
      "note": 89,
      "start": 52.2766,
      "duration": 0.0125,
      "velocity": 95,
      "chip": "ym2612"
    },
    {
      "channel": 5,
      "note": 89,
      "start": 52.2796,
      "duration": 0.0119,
      "velocity": 95,
      "chip": "ym2612"
    },
    {
      "channel": 0,
      "note": 89,
      "start": 52.2891,
      "duration": 0.0125,
      "velocity": 95,
      "chip": "ym2612"
    },
    {
      "channel": 5,
      "note": 89,
      "start": 52.2915,
      "duration": 0.0124,
      "velocity": 95,
      "chip": "ym2612"
    },
    {
      "channel": 0,
      "note": 89,
      "start": 52.3016,
      "duration": 0.0125,
      "velocity": 95,
      "chip": "ym2612"
    },
    {
      "channel": 5,
      "note": 89,
      "start": 52.304,
      "duration": 0.0125,
      "velocity": 95,
      "chip": "ym2612"
    },
    {
      "channel": 0,
      "note": 89,
      "start": 52.314,
      "duration": 0.0124,
      "velocity": 95,
      "chip": "ym2612"
    },
    {
      "channel": 5,
      "note": 89,
      "start": 52.3164,
      "duration": 0.0173,
      "velocity": 95,
      "chip": "ym2612"
    },
    {
      "channel": 0,
      "note": 89,
      "start": 52.3265,
      "duration": 0.0146,
      "velocity": 95,
      "chip": "ym2612"
    },
    {
      "channel": 1,
      "note": 65,
      "start": 52.3285,
      "duration": 0.0887,
      "velocity": 81,
      "chip": "ym2612"
    },
    {
      "channel": 3,
      "note": 72,
      "start": 52.3311,
      "duration": 0.0887,
      "velocity": 113,
      "chip": "ym2612"
    },
    {
      "channel": 4,
      "note": 56,
      "start": 52.3325,
      "duration": 0.0887,
      "velocity": 74,
      "chip": "ym2612"
    },
    {
      "channel": 5,
      "note": 89,
      "start": 52.3337,
      "duration": 0.0097,
      "velocity": 95,
      "chip": "ym2612"
    },
    {
      "channel": 2,
      "note": 40,
      "start": 52.3393,
      "duration": 0.0061,
      "velocity": 114,
      "chip": "ym2612"
    },
    {
      "channel": 0,
      "note": 89,
      "start": 52.3411,
      "duration": 0.0125,
      "velocity": 95,
      "chip": "ym2612"
    },
    {
      "channel": 5,
      "note": 89,
      "start": 52.3435,
      "duration": 0.0125,
      "velocity": 95,
      "chip": "ym2612"
    },
    {
      "channel": 2,
      "note": 40,
      "start": 52.3453,
      "duration": 0.0119,
      "velocity": 114,
      "chip": "ym2612"
    },
    {
      "channel": 0,
      "note": 89,
      "start": 52.3535,
      "duration": 0.0125,
      "velocity": 95,
      "chip": "ym2612"
    },
    {
      "channel": 5,
      "note": 89,
      "start": 52.3559,
      "duration": 0.0125,
      "velocity": 95,
      "chip": "ym2612"
    },
    {
      "channel": 2,
      "note": 40,
      "start": 52.3572,
      "duration": 0.0129,
      "velocity": 114,
      "chip": "ym2612"
    },
    {
      "channel": 0,
      "note": 89,
      "start": 52.366,
      "duration": 0.0131,
      "velocity": 95,
      "chip": "ym2612"
    },
    {
      "channel": 5,
      "note": 89,
      "start": 52.3684,
      "duration": 0.0131,
      "velocity": 95,
      "chip": "ym2612"
    },
    {
      "channel": 2,
      "note": 40,
      "start": 52.3701,
      "duration": 0.0127,
      "velocity": 114,
      "chip": "ym2612"
    },
    {
      "channel": 0,
      "note": 89,
      "start": 52.3791,
      "duration": 0.0122,
      "velocity": 95,
      "chip": "ym2612"
    },
    {
      "channel": 5,
      "note": 89,
      "start": 52.3815,
      "duration": 0.0122,
      "velocity": 95,
      "chip": "ym2612"
    },
    {
      "channel": 2,
      "note": 40,
      "start": 52.3828,
      "duration": 0.0128,
      "velocity": 114,
      "chip": "ym2612"
    },
    {
      "channel": 0,
      "note": 89,
      "start": 52.3913,
      "duration": 0.0125,
      "velocity": 95,
      "chip": "ym2612"
    },
    {
      "channel": 5,
      "note": 89,
      "start": 52.3937,
      "duration": 0.0125,
      "velocity": 95,
      "chip": "ym2612"
    },
    {
      "channel": 2,
      "note": 40,
      "start": 52.3956,
      "duration": 0.0119,
      "velocity": 114,
      "chip": "ym2612"
    },
    {
      "channel": 0,
      "note": 89,
      "start": 52.4038,
      "duration": 0.0125,
      "velocity": 95,
      "chip": "ym2612"
    },
    {
      "channel": 5,
      "note": 89,
      "start": 52.4062,
      "duration": 0.0167,
      "velocity": 95,
      "chip": "ym2612"
    },
    {
      "channel": 2,
      "note": 40,
      "start": 52.4075,
      "duration": 0.0165,
      "velocity": 114,
      "chip": "ym2612"
    },
    {
      "channel": 0,
      "note": 89,
      "start": 52.4163,
      "duration": 0.0128,
      "velocity": 95,
      "chip": "ym2612"
    },
    {
      "channel": 1,
      "note": 65,
      "start": 52.4177,
      "duration": 0.0993,
      "velocity": 81,
      "chip": "ym2612"
    },
    {
      "channel": 3,
      "note": 70,
      "start": 52.4203,
      "duration": 0.0995,
      "velocity": 113,
      "chip": "ym2612"
    },
    {
      "channel": 4,
      "note": 63,
      "start": 52.4217,
      "duration": 0.0995,
      "velocity": 74,
      "chip": "ym2612"
    },
    {
      "channel": 5,
      "note": 89,
      "start": 52.4229,
      "duration": 0.0087,
      "velocity": 95,
      "chip": "ym2612"
    },
    {
      "channel": 0,
      "note": 89,
      "start": 52.4292,
      "duration": 0.0123,
      "velocity": 95,
      "chip": "ym2612"
    },
    {
      "channel": 5,
      "note": 89,
      "start": 52.4317,
      "duration": 0.0126,
      "velocity": 95,
      "chip": "ym2612"
    },
    {
      "channel": 2,
      "note": 40,
      "start": 52.4339,
      "duration": 0.0119,
      "velocity": 114,
      "chip": "ym2612"
    },
    {
      "channel": 0,
      "note": 89,
      "start": 52.4415,
      "duration": 0.0125,
      "velocity": 95,
      "chip": "ym2612"
    },
    {
      "channel": 5,
      "note": 89,
      "start": 52.4442,
      "duration": 0.0121,
      "velocity": 95,
      "chip": "ym2612"
    },
    {
      "channel": 2,
      "note": 40,
      "start": 52.4458,
      "duration": 0.0118,
      "velocity": 114,
      "chip": "ym2612"
    },
    {
      "channel": 0,
      "note": 89,
      "start": 52.4539,
      "duration": 0.0122,
      "velocity": 95,
      "chip": "ym2612"
    },
    {
      "channel": 5,
      "note": 89,
      "start": 52.4563,
      "duration": 0.0122,
      "velocity": 95,
      "chip": "ym2612"
    },
    {
      "channel": 2,
      "note": 40,
      "start": 52.4576,
      "duration": 0.0125,
      "velocity": 114,
      "chip": "ym2612"
    },
    {
      "channel": 5,
      "note": 89,
      "start": 52.4685,
      "duration": 0.0122,
      "velocity": 95,
      "chip": "ym2612"
    },
    {
      "channel": 2,
      "note": 40,
      "start": 52.4701,
      "duration": 0.0118,
      "velocity": 114,
      "chip": "ym2612"
    },
    {
      "channel": 5,
      "note": 89,
      "start": 52.4807,
      "duration": 0.0122,
      "velocity": 95,
      "chip": "ym2612"
    },
    {
      "channel": 2,
      "note": 40,
      "start": 52.482,
      "duration": 0.0128,
      "velocity": 114,
      "chip": "ym2612"
    },
    {
      "channel": 5,
      "note": 89,
      "start": 52.4929,
      "duration": 0.0125,
      "velocity": 95,
      "chip": "ym2612"
    },
    {
      "channel": 2,
      "note": 40,
      "start": 52.4948,
      "duration": 0.0119,
      "velocity": 114,
      "chip": "ym2612"
    },
    {
      "channel": 5,
      "note": 89,
      "start": 52.5054,
      "duration": 0.0175,
      "velocity": 95,
      "chip": "ym2612"
    },
    {
      "channel": 2,
      "note": 40,
      "start": 52.5066,
      "duration": 0.0174,
      "velocity": 114,
      "chip": "ym2612"
    },
    {
      "channel": 1,
      "note": 49,
      "start": 52.5175,
      "duration": 0.1865,
      "velocity": 81,
      "chip": "ym2612"
    },
    {
      "channel": 3,
      "note": 77,
      "start": 52.5203,
      "duration": 0.3741,
      "velocity": 113,
      "chip": "ym2612"
    },
    {
      "channel": 4,
      "note": 65,
      "start": 52.5217,
      "duration": 0.0832,
      "velocity": 74,
      "chip": "ym2612"
    },
    {
      "channel": 5,
      "note": 89,
      "start": 52.5229,
      "duration": 0.0078,
      "velocity": 95,
      "chip": "ym2612"
    },
    {
      "channel": 5,
      "note": 89,
      "start": 52.5307,
      "duration": 0.0122,
      "velocity": 95,
      "chip": "ym2612"
    },
    {
      "channel": 2,
      "note": 40,
      "start": 52.5329,
      "duration": 0.0118,
      "velocity": 114,
      "chip": "ym2612"
    },
    {
      "channel": 5,
      "note": 89,
      "start": 52.5429,
      "duration": 0.0125,
      "velocity": 95,
      "chip": "ym2612"
    },
    {
      "channel": 2,
      "note": 40,
      "start": 52.5448,
      "duration": 0.0119,
      "velocity": 114,
      "chip": "ym2612"
    },
    {
      "channel": 5,
      "note": 89,
      "start": 52.5554,
      "duration": 0.0125,
      "velocity": 95,
      "chip": "ym2612"
    },
    {
      "channel": 2,
      "note": 40,
      "start": 52.5566,
      "duration": 0.0129,
      "velocity": 114,
      "chip": "ym2612"
    },
    {
      "channel": 5,
      "note": 89,
      "start": 52.5679,
      "duration": 0.0128,
      "velocity": 95,
      "chip": "ym2612"
    },
    {
      "channel": 2,
      "note": 40,
      "start": 52.5696,
      "duration": 0.0125,
      "velocity": 114,
      "chip": "ym2612"
    },
    {
      "channel": 5,
      "note": 89,
      "start": 52.5807,
      "duration": 0.0122,
      "velocity": 95,
      "chip": "ym2612"
    },
    {
      "channel": 2,
      "note": 40,
      "start": 52.582,
      "duration": 0.0127,
      "velocity": 114,
      "chip": "ym2612"
    },
    {
      "channel": 5,
      "note": 89,
      "start": 52.5929,
      "duration": 0.0134,
      "velocity": 95,
      "chip": "ym2612"
    },
    {
      "channel": 2,
      "note": 40,
      "start": 52.5948,
      "duration": 0.0128,
      "velocity": 114,
      "chip": "ym2612"
    },
    {
      "channel": 4,
      "note": 75,
      "start": 52.6053,
      "duration": 0.1015,
      "velocity": 74,
      "chip": "ym2612"
    },
    {
      "channel": 2,
      "note": 40,
      "start": 52.6075,
      "duration": 0.0107,
      "velocity": 114,
      "chip": "ym2612"
    },
    {
      "channel": 2,
      "note": 40,
      "start": 52.6182,
      "duration": 0.0128,
      "velocity": 114,
      "chip": "ym2612"
    },
    {
      "channel": 2,
      "note": 40,
      "start": 52.6311,
      "duration": 0.0122,
      "velocity": 114,
      "chip": "ym2612"
    },
    {
      "channel": 2,
      "note": 40,
      "start": 52.6433,
      "duration": 0.013,
      "velocity": 114,
      "chip": "ym2612"
    },
    {
      "channel": 2,
      "note": 39,
      "start": 52.6563,
      "duration": 0.012,
      "velocity": 114,
      "chip": "ym2612"
    },
    {
      "channel": 2,
      "note": 39,
      "start": 52.6683,
      "duration": 0.0128,
      "velocity": 114,
      "chip": "ym2612"
    },
    {
      "channel": 2,
      "note": 39,
      "start": 52.6811,
      "duration": 0.0122,
      "velocity": 114,
      "chip": "ym2612"
    },
    {
      "channel": 1,
      "note": 49,
      "start": 52.7044,
      "duration": 0.187,
      "velocity": 81,
      "chip": "ym2612"
    },
    {
      "channel": 4,
      "note": 77,
      "start": 52.7073,
      "duration": 0.0851,
      "velocity": 74,
      "chip": "ym2612"
    },
    {
      "channel": 2,
      "note": 40,
      "start": 52.7102,
      "duration": 0.008,
      "velocity": 114,
      "chip": "ym2612"
    },
    {
      "channel": 2,
      "note": 40,
      "start": 52.7182,
      "duration": 0.0128,
      "velocity": 114,
      "chip": "ym2612"
    },
    {
      "channel": 2,
      "note": 40,
      "start": 52.7311,
      "duration": 0.0126,
      "velocity": 114,
      "chip": "ym2612"
    },
    {
      "channel": 2,
      "note": 40,
      "start": 52.7437,
      "duration": 0.0121,
      "velocity": 114,
      "chip": "ym2612"
    },
    {
      "channel": 2,
      "note": 40,
      "start": 52.7558,
      "duration": 0.0125,
      "velocity": 114,
      "chip": "ym2612"
    },
    {
      "channel": 2,
      "note": 40,
      "start": 52.7683,
      "duration": 0.0128,
      "velocity": 114,
      "chip": "ym2612"
    },
    {
      "channel": 2,
      "note": 40,
      "start": 52.7811,
      "duration": 0.0139,
      "velocity": 114,
      "chip": "ym2612"
    },
    {
      "channel": 4,
      "note": 65,
      "start": 52.7928,
      "duration": 0.1032,
      "velocity": 74,
      "chip": "ym2612"
    },
    {
      "channel": 2,
      "note": 40,
      "start": 52.795,
      "duration": 0.0107,
      "velocity": 114,
      "chip": "ym2612"
    },
    {
      "channel": 2,
      "note": 40,
      "start": 52.8058,
      "duration": 0.0125,
      "velocity": 114,
      "chip": "ym2612"
    },
    {
      "channel": 2,
      "note": 40,
      "start": 52.8182,
      "duration": 0.0128,
      "velocity": 114,
      "chip": "ym2612"
    },
    {
      "channel": 2,
      "note": 39,
      "start": 52.8311,
      "duration": 0.0125,
      "velocity": 114,
      "chip": "ym2612"
    },
    {
      "channel": 2,
      "note": 39,
      "start": 52.8436,
      "duration": 0.0122,
      "velocity": 114,
      "chip": "ym2612"
    },
    {
      "channel": 2,
      "note": 39,
      "start": 52.8558,
      "duration": 0.0124,
      "velocity": 114,
      "chip": "ym2612"
    },
    {
      "channel": 1,
      "note": 49,
      "start": 52.892,
      "duration": 0.1873,
      "velocity": 81,
      "chip": "ym2612"
    },
    {
      "channel": 3,
      "note": 75,
      "start": 52.8951,
      "duration": 0.3742,
      "velocity": 113,
      "chip": "ym2612"
    },
    {
      "channel": 4,
      "note": 73,
      "start": 52.8965,
      "duration": 0.0844,
      "velocity": 74,
      "chip": "ym2612"
    },
    {
      "channel": 2,
      "note": 41,
      "start": 52.9023,
      "duration": 0.0826,
      "velocity": 122,
      "chip": "ym2612"
    },
    {
      "channel": 4,
      "note": 75,
      "start": 52.9815,
      "duration": 0.0998,
      "velocity": 74,
      "chip": "ym2612"
    },
    {
      "channel": 2,
      "note": 40,
      "start": 52.9876,
      "duration": 0.0057,
      "velocity": 114,
      "chip": "ym2612"
    },
    {
      "channel": 2,
      "note": 40,
      "start": 52.9933,
      "duration": 0.0125,
      "velocity": 114,
      "chip": "ym2612"
    },
    {
      "channel": 2,
      "note": 40,
      "start": 53.0058,
      "duration": 0.0129,
      "velocity": 114,
      "chip": "ym2612"
    },
    {
      "channel": 2,
      "note": 40,
      "start": 53.0187,
      "duration": 0.0124,
      "velocity": 114,
      "chip": "ym2612"
    },
    {
      "channel": 2,
      "note": 40,
      "start": 53.0311,
      "duration": 0.0122,
      "velocity": 114,
      "chip": "ym2612"
    },
    {
      "channel": 2,
      "note": 40,
      "start": 53.0433,
      "duration": 0.0125,
      "velocity": 114,
      "chip": "ym2612"
    },
    {
      "channel": 2,
      "note": 40,
      "start": 53.0558,
      "duration": 0.0125,
      "velocity": 114,
      "chip": "ym2612"
    },
    {
      "channel": 2,
      "note": 40,
      "start": 53.0682,
      "duration": 0.0151,
      "velocity": 114,
      "chip": "ym2612"
    },
    {
      "channel": 1,
      "note": 49,
      "start": 53.0798,
      "duration": 0.187,
      "velocity": 81,
      "chip": "ym2612"
    },
    {
      "channel": 4,
      "note": 65,
      "start": 53.0818,
      "duration": 0.0856,
      "velocity": 74,
      "chip": "ym2612"
    },
    {
      "channel": 2,
      "note": 40,
      "start": 53.0833,
      "duration": 0.01,
      "velocity": 114,
      "chip": "ym2612"
    },
    {
      "channel": 2,
      "note": 40,
      "start": 53.0933,
      "duration": 0.0125,
      "velocity": 114,
      "chip": "ym2612"
    },
    {
      "channel": 2,
      "note": 39,
      "start": 53.1058,
      "duration": 0.0125,
      "velocity": 114,
      "chip": "ym2612"
    },
    {
      "channel": 2,
      "note": 39,
      "start": 53.1182,
      "duration": 0.0128,
      "velocity": 114,
      "chip": "ym2612"
    },
    {
      "channel": 2,
      "note": 39,
      "start": 53.1311,
      "duration": 0.0122,
      "velocity": 114,
      "chip": "ym2612"
    },
    {
      "channel": 4,
      "note": 72,
      "start": 53.1678,
      "duration": 0.103,
      "velocity": 74,
      "chip": "ym2612"
    },
    {
      "channel": 1,
      "note": 49,
      "start": 53.2673,
      "duration": 0.187,
      "velocity": 81,
      "chip": "ym2612"
    },
    {
      "channel": 3,
      "note": 72,
      "start": 53.2698,
      "duration": 0.187,
      "velocity": 113,
      "chip": "ym2612"
    },
    {
      "channel": 4,
      "note": 73,
      "start": 53.2713,
      "duration": 0.0839,
      "velocity": 74,
      "chip": "ym2612"
    },
    {
      "channel": 2,
      "note": 40,
      "start": 53.2742,
      "duration": 0.0072,
      "velocity": 114,
      "chip": "ym2612"
    },
    {
      "channel": 2,
      "note": 40,
      "start": 53.2814,
      "duration": 0.0123,
      "velocity": 114,
      "chip": "ym2612"
    },
    {
      "channel": 2,
      "note": 40,
      "start": 53.2937,
      "duration": 0.0129,
      "velocity": 114,
      "chip": "ym2612"
    },
    {
      "channel": 2,
      "note": 40,
      "start": 53.3065,
      "duration": 0.0121,
      "velocity": 114,
      "chip": "ym2612"
    },
    {
      "channel": 2,
      "note": 40,
      "start": 53.3186,
      "duration": 0.0128,
      "velocity": 114,
      "chip": "ym2612"
    },
    {
      "channel": 2,
      "note": 40,
      "start": 53.3314,
      "duration": 0.0123,
      "velocity": 114,
      "chip": "ym2612"
    },
    {
      "channel": 2,
      "note": 40,
      "start": 53.3437,
      "duration": 0.0139,
      "velocity": 114,
      "chip": "ym2612"
    },
    {
      "channel": 4,
      "note": 65,
      "start": 53.3557,
      "duration": 0.1026,
      "velocity": 74,
      "chip": "ym2612"
    },
    {
      "channel": 2,
      "note": 40,
      "start": 53.3576,
      "duration": 0.0114,
      "velocity": 114,
      "chip": "ym2612"
    },
    {
      "channel": 2,
      "note": 40,
      "start": 53.369,
      "duration": 0.0128,
      "velocity": 114,
      "chip": "ym2612"
    },
    {
      "channel": 2,
      "note": 40,
      "start": 53.3818,
      "duration": 0.0125,
      "velocity": 114,
      "chip": "ym2612"
    },
    {
      "channel": 2,
      "note": 39,
      "start": 53.3943,
      "duration": 0.0122,
      "velocity": 114,
      "chip": "ym2612"
    },
    {
      "channel": 2,
      "note": 39,
      "start": 53.4065,
      "duration": 0.0125,
      "velocity": 114,
      "chip": "ym2612"
    },
    {
      "channel": 2,
      "note": 39,
      "start": 53.419,
      "duration": 0.0127,
      "velocity": 114,
      "chip": "ym2612"
    },
    {
      "channel": 1,
      "note": 61,
      "start": 53.4548,
      "duration": 0.087,
      "velocity": 81,
      "chip": "ym2612"
    },
    {
      "channel": 3,
      "note": 70,
      "start": 53.4573,
      "duration": 0.3748,
      "velocity": 113,
      "chip": "ym2612"
    },
    {
      "channel": 4,
      "note": 70,
      "start": 53.4588,
      "duration": 0.0854,
      "velocity": 74,
      "chip": "ym2612"
    },
    {
      "channel": 2,
      "note": 40,
      "start": 53.4627,
      "duration": 0.0063,
      "velocity": 114,
      "chip": "ym2612"
    },
    {
      "channel": 2,
      "note": 40,
      "start": 53.469,
      "duration": 0.0128,
      "velocity": 114,
      "chip": "ym2612"
    },
    {
      "channel": 2,
      "note": 40,
      "start": 53.4818,
      "duration": 0.0132,
      "velocity": 114,
      "chip": "ym2612"
    },
    {
      "channel": 2,
      "note": 40,
      "start": 53.4949,
      "duration": 0.0115,
      "velocity": 114,
      "chip": "ym2612"
    },
    {
      "channel": 2,
      "note": 40,
      "start": 53.5065,
      "duration": 0.0125,
      "velocity": 114,
      "chip": "ym2612"
    },
    {
      "channel": 2,
      "note": 40,
      "start": 53.519,
      "duration": 0.0128,
      "velocity": 114,
      "chip": "ym2612"
    },
    {
      "channel": 2,
      "note": 40,
      "start": 53.5318,
      "duration": 0.0151,
      "velocity": 114,
      "chip": "ym2612"
    },
    {
      "channel": 1,
      "note": 61,
      "start": 53.5423,
      "duration": 0.0995,
      "velocity": 81,
      "chip": "ym2612"
    },
    {
      "channel": 4,
      "note": 72,
      "start": 53.5449,
      "duration": 0.1003,
      "velocity": 74,
      "chip": "ym2612"
    },
    {
      "channel": 2,
      "note": 40,
      "start": 53.5469,
      "duration": 0.0096,
      "velocity": 114,
      "chip": "ym2612"
    },
    {
      "channel": 2,
      "note": 40,
      "start": 53.5565,
      "duration": 0.0124,
      "velocity": 114,
      "chip": "ym2612"
    },
    {
      "channel": 2,
      "note": 40,
      "start": 53.569,
      "duration": 0.0128,
      "velocity": 114,
      "chip": "ym2612"
    },
    {
      "channel": 2,
      "note": 39,
      "start": 53.5818,
      "duration": 0.0126,
      "velocity": 114,
      "chip": "ym2612"
    },
    {
      "channel": 2,
      "note": 39,
      "start": 53.5944,
      "duration": 0.0122,
      "velocity": 114,
      "chip": "ym2612"
    },
    {
      "channel": 2,
      "note": 39,
      "start": 53.6065,
      "duration": 0.0124,
      "velocity": 114,
      "chip": "ym2612"
    },
    {
      "channel": 1,
      "note": 49,
      "start": 53.6423,
      "duration": 0.1873,
      "velocity": 81,
      "chip": "ym2612"
    },
    {
      "channel": 4,
      "note": 65,
      "start": 53.6457,
      "duration": 0.0848,
      "velocity": 74,
      "chip": "ym2612"
    },
    {
      "channel": 2,
      "note": 41,
      "start": 53.6518,
      "duration": 0.1857,
      "velocity": 122,
      "chip": "ym2612"
    },
    {
      "channel": 4,
      "note": 68,
      "start": 53.731,
      "duration": 0.1025,
      "velocity": 74,
      "chip": "ym2612"
    },
    {
      "channel": 1,
      "note": 61,
      "start": 53.8301,
      "duration": 0.0873,
      "velocity": 81,
      "chip": "ym2612"
    },
    {
      "channel": 3,
      "note": 68,
      "start": 53.8327,
      "duration": 0.3744,
      "velocity": 113,
      "chip": "ym2612"
    },
    {
      "channel": 4,
      "note": 70,
      "start": 53.8341,
      "duration": 0.0861,
      "velocity": 74,
      "chip": "ym2612"
    },
    {
      "channel": 2,
      "note": 40,
      "start": 53.8402,
      "duration": 0.005,
      "velocity": 114,
      "chip": "ym2612"
    },
    {
      "channel": 2,
      "note": 40,
      "start": 53.8452,
      "duration": 0.0119,
      "velocity": 114,
      "chip": "ym2612"
    },
    {
      "channel": 2,
      "note": 40,
      "start": 53.8571,
      "duration": 0.0128,
      "velocity": 114,
      "chip": "ym2612"
    },
    {
      "channel": 2,
      "note": 40,
      "start": 53.8699,
      "duration": 0.0122,
      "velocity": 114,
      "chip": "ym2612"
    },
    {
      "channel": 2,
      "note": 40,
      "start": 53.8821,
      "duration": 0.0131,
      "velocity": 114,
      "chip": "ym2612"
    },
    {
      "channel": 2,
      "note": 40,
      "start": 53.8952,
      "duration": 0.0119,
      "velocity": 114,
      "chip": "ym2612"
    },
    {
      "channel": 2,
      "note": 40,
      "start": 53.9071,
      "duration": 0.0154,
      "velocity": 114,
      "chip": "ym2612"
    },
    {
      "channel": 1,
      "note": 61,
      "start": 53.9178,
      "duration": 0.0998,
      "velocity": 81,
      "chip": "ym2612"
    },
    {
      "channel": 4,
      "note": 67,
      "start": 53.9207,
      "duration": 0.1,
      "velocity": 74,
      "chip": "ym2612"
    },
    {
      "channel": 2,
      "note": 40,
      "start": 53.933,
      "duration": 0.0122,
      "velocity": 114,
      "chip": "ym2612"
    },
    {
      "channel": 2,
      "note": 40,
      "start": 53.9452,
      "duration": 0.0119,
      "velocity": 114,
      "chip": "ym2612"
    },
    {
      "channel": 2,
      "note": 40,
      "start": 53.9571,
      "duration": 0.0129,
      "velocity": 114,
      "chip": "ym2612"
    },
    {
      "channel": 2,
      "note": 40,
      "start": 53.97,
      "duration": 0.0121,
      "velocity": 114,
      "chip": "ym2612"
    },
    {
      "channel": 2,
      "note": 40,
      "start": 53.9821,
      "duration": 0.0131,
      "velocity": 114,
      "chip": "ym2612"
    },
    {
      "channel": 2,
      "note": 40,
      "start": 53.9952,
      "duration": 0.0119,
      "velocity": 114,
      "chip": "ym2612"
    },
    {
      "channel": 2,
      "note": 40,
      "start": 54.0071,
      "duration": 0.0159,
      "velocity": 114,
      "chip": "ym2612"
    },
    {
      "channel": 1,
      "note": 49,
      "start": 54.0182,
      "duration": 0.1864,
      "velocity": 81,
      "chip": "ym2612"
    },
    {
      "channel": 4,
      "note": 65,
      "start": 54.0212,
      "duration": 0.0842,
      "velocity": 74,
      "chip": "ym2612"
    },
    {
      "channel": 2,
      "note": 40,
      "start": 54.0327,
      "duration": 0.0121,
      "velocity": 114,
      "chip": "ym2612"
    },
    {
      "channel": 2,
      "note": 40,
      "start": 54.0448,
      "duration": 0.0119,
      "velocity": 114,
      "chip": "ym2612"
    },
    {
      "channel": 2,
      "note": 40,
      "start": 54.0567,
      "duration": 0.0129,
      "velocity": 114,
      "chip": "ym2612"
    },
    {
      "channel": 2,
      "note": 40,
      "start": 54.0696,
      "duration": 0.0122,
      "velocity": 114,
      "chip": "ym2612"
    },
    {
      "channel": 2,
      "note": 40,
      "start": 54.0818,
      "duration": 0.013,
      "velocity": 114,
      "chip": "ym2612"
    },
    {
      "channel": 2,
      "note": 40,
      "start": 54.0948,
      "duration": 0.0131,
      "velocity": 114,
      "chip": "ym2612"
    },
    {
      "channel": 4,
      "note": 75,
      "start": 54.1059,
      "duration": 0.1026,
      "velocity": 74,
      "chip": "ym2612"
    },
    {
      "channel": 2,
      "note": 40,
      "start": 54.1079,
      "duration": 0.0113,
      "velocity": 114,
      "chip": "ym2612"
    },
    {
      "channel": 2,
      "note": 40,
      "start": 54.1192,
      "duration": 0.0126,
      "velocity": 114,
      "chip": "ym2612"
    },
    {
      "channel": 2,
      "note": 40,
      "start": 54.1318,
      "duration": 0.013,
      "velocity": 114,
      "chip": "ym2612"
    },
    {
      "channel": 2,
      "note": 40,
      "start": 54.1448,
      "duration": 0.0122,
      "velocity": 114,
      "chip": "ym2612"
    },
    {
      "channel": 2,
      "note": 39,
      "start": 54.157,
      "duration": 0.0118,
      "velocity": 114,
      "chip": "ym2612"
    },
    {
      "channel": 2,
      "note": 39,
      "start": 54.1689,
      "duration": 0.0125,
      "velocity": 114,
      "chip": "ym2612"
    },
    {
      "channel": 2,
      "note": 39,
      "start": 54.1814,
      "duration": 0.0124,
      "velocity": 114,
      "chip": "ym2612"
    },
    {
      "channel": 1,
      "note": 49,
      "start": 54.205,
      "duration": 0.1874,
      "velocity": 81,
      "chip": "ym2612"
    },
    {
      "channel": 3,
      "note": 65,
      "start": 54.2075,
      "duration": 0.3741,
      "velocity": 113,
      "chip": "ym2612"
    },
    {
      "channel": 4,
      "note": 77,
      "start": 54.209,
      "duration": 0.084,
      "velocity": 74,
      "chip": "ym2612"
    },
    {
      "channel": 2,
      "note": 40,
      "start": 54.2126,
      "duration": 0.0063,
      "velocity": 114,
      "chip": "ym2612"
    },
    {
      "channel": 2,
      "note": 40,
      "start": 54.2189,
      "duration": 0.0125,
      "velocity": 114,
      "chip": "ym2612"
    },
    {
      "channel": 2,
      "note": 40,
      "start": 54.2314,
      "duration": 0.0135,
      "velocity": 114,
      "chip": "ym2612"
    },
    {
      "channel": 2,
      "note": 40,
      "start": 54.2449,
      "duration": 0.0115,
      "velocity": 114,
      "chip": "ym2612"
    },
    {
      "channel": 2,
      "note": 40,
      "start": 54.2563,
      "duration": 0.0125,
      "velocity": 114,
      "chip": "ym2612"
    },
    {
      "channel": 2,
      "note": 40,
      "start": 54.2689,
      "duration": 0.0125,
      "velocity": 114,
      "chip": "ym2612"
    },
    {
      "channel": 2,
      "note": 40,
      "start": 54.2814,
      "duration": 0.0142,
      "velocity": 114,
      "chip": "ym2612"
    },
    {
      "channel": 4,
      "note": 65,
      "start": 54.2934,
      "duration": 0.1024,
      "velocity": 74,
      "chip": "ym2612"
    },
    {
      "channel": 2,
      "note": 40,
      "start": 54.2956,
      "duration": 0.0107,
      "velocity": 114,
      "chip": "ym2612"
    },
    {
      "channel": 2,
      "note": 40,
      "start": 54.3063,
      "duration": 0.0125,
      "velocity": 114,
      "chip": "ym2612"
    },
    {
      "channel": 2,
      "note": 40,
      "start": 54.3189,
      "duration": 0.0125,
      "velocity": 114,
      "chip": "ym2612"
    },
    {
      "channel": 2,
      "note": 39,
      "start": 54.3314,
      "duration": 0.0129,
      "velocity": 114,
      "chip": "ym2612"
    },
    {
      "channel": 2,
      "note": 39,
      "start": 54.3442,
      "duration": 0.0122,
      "velocity": 114,
      "chip": "ym2612"
    },
    {
      "channel": 2,
      "note": 39,
      "start": 54.3564,
      "duration": 0.0124,
      "velocity": 114,
      "chip": "ym2612"
    },
    {
      "channel": 1,
      "note": 49,
      "start": 54.3929,
      "duration": 0.187,
      "velocity": 81,
      "chip": "ym2612"
    },
    {
      "channel": 4,
      "note": 73,
      "start": 54.3963,
      "duration": 0.0852,
      "velocity": 74,
      "chip": "ym2612"
    },
    {
      "channel": 2,
      "note": 41,
      "start": 54.4021,
      "duration": 0.0832,
      "velocity": 122,
      "chip": "ym2612"
    },
    {
      "channel": 4,
      "note": 75,
      "start": 54.4821,
      "duration": 0.101,
      "velocity": 74,
      "chip": "ym2612"
    },
    {
      "channel": 2,
      "note": 40,
      "start": 54.4879,
      "duration": 0.0069,
      "velocity": 114,
      "chip": "ym2612"
    },
    {
      "channel": 2,
      "note": 40,
      "start": 54.4948,
      "duration": 0.0119,
      "velocity": 114,
      "chip": "ym2612"
    },
    {
      "channel": 2,
      "note": 40,
      "start": 54.5067,
      "duration": 0.0129,
      "velocity": 114,
      "chip": "ym2612"
    },
    {
      "channel": 2,
      "note": 40,
      "start": 54.5196,
      "duration": 0.0125,
      "velocity": 114,
      "chip": "ym2612"
    },
    {
      "channel": 2,
      "note": 40,
      "start": 54.5321,
      "duration": 0.0131,
      "velocity": 114,
      "chip": "ym2612"
    },
    {
      "channel": 2,
      "note": 40,
      "start": 54.5452,
      "duration": 0.0119,
      "velocity": 114,
      "chip": "ym2612"
    },
    {
      "channel": 2,
      "note": 40,
      "start": 54.5571,
      "duration": 0.0125,
      "velocity": 114,
      "chip": "ym2612"
    },
    {
      "channel": 2,
      "note": 40,
      "start": 54.5696,
      "duration": 0.016,
      "velocity": 114,
      "chip": "ym2612"
    },
    {
      "channel": 1,
      "note": 49,
      "start": 54.5804,
      "duration": 0.187,
      "velocity": 81,
      "chip": "ym2612"
    },
    {
      "channel": 3,
      "note": 63,
      "start": 54.5822,
      "duration": 0.1878,
      "velocity": 113,
      "chip": "ym2612"
    },
    {
      "channel": 4,
      "note": 65,
      "start": 54.5836,
      "duration": 0.0847,
      "velocity": 74,
      "chip": "ym2612"
    },
    {
      "channel": 2,
      "note": 40,
      "start": 54.5855,
      "duration": 0.0097,
      "velocity": 114,
      "chip": "ym2612"
    },
    {
      "channel": 2,
      "note": 40,
      "start": 54.5952,
      "duration": 0.0119,
      "velocity": 114,
      "chip": "ym2612"
    },
    {
      "channel": 2,
      "note": 39,
      "start": 54.6071,
      "duration": 0.0125,
      "velocity": 114,
      "chip": "ym2612"
    },
    {
      "channel": 2,
      "note": 39,
      "start": 54.6196,
      "duration": 0.0125,
      "velocity": 114,
      "chip": "ym2612"
    },
    {
      "channel": 2,
      "note": 39,
      "start": 54.6321,
      "duration": 0.013,
      "velocity": 114,
      "chip": "ym2612"
    },
    {
      "channel": 4,
      "note": 72,
      "start": 54.6688,
      "duration": 0.1025,
      "velocity": 74,
      "chip": "ym2612"
    },
    {
      "channel": 1,
      "note": 49,
      "start": 54.7678,
      "duration": 0.1871,
      "velocity": 81,
      "chip": "ym2612"
    },
    {
      "channel": 3,
      "note": 65,
      "start": 54.7704,
      "duration": 0.187,
      "velocity": 113,
      "chip": "ym2612"
    },
    {
      "channel": 4,
      "note": 73,
      "start": 54.7719,
      "duration": 0.084,
      "velocity": 74,
      "chip": "ym2612"
    },
    {
      "channel": 2,
      "note": 40,
      "start": 54.7752,
      "duration": 0.0069,
      "velocity": 114,
      "chip": "ym2612"
    },
    {
      "channel": 2,
      "note": 40,
      "start": 54.7821,
      "duration": 0.0131,
      "velocity": 114,
      "chip": "ym2612"
    },
    {
      "channel": 2,
      "note": 40,
      "start": 54.7952,
      "duration": 0.0123,
      "velocity": 114,
      "chip": "ym2612"
    },
    {
      "channel": 2,
      "note": 40,
      "start": 54.8075,
      "duration": 0.0121,
      "velocity": 114,
      "chip": "ym2612"
    },
    {
      "channel": 2,
      "note": 40,
      "start": 54.8196,
      "duration": 0.0125,
      "velocity": 114,
      "chip": "ym2612"
    },
    {
      "channel": 2,
      "note": 40,
      "start": 54.8321,
      "duration": 0.0131,
      "velocity": 114,
      "chip": "ym2612"
    },
    {
      "channel": 2,
      "note": 40,
      "start": 54.8452,
      "duration": 0.013,
      "velocity": 114,
      "chip": "ym2612"
    },
    {
      "channel": 4,
      "note": 65,
      "start": 54.8563,
      "duration": 0.1026,
      "velocity": 74,
      "chip": "ym2612"
    },
    {
      "channel": 2,
      "note": 40,
      "start": 54.8582,
      "duration": 0.0113,
      "velocity": 114,
      "chip": "ym2612"
    },
    {
      "channel": 2,
      "note": 40,
      "start": 54.8696,
      "duration": 0.0125,
      "velocity": 114,
      "chip": "ym2612"
    },
    {
      "channel": 2,
      "note": 40,
      "start": 54.8821,
      "duration": 0.0131,
      "velocity": 114,
      "chip": "ym2612"
    },
    {
      "channel": 2,
      "note": 39,
      "start": 54.8952,
      "duration": 0.0119,
      "velocity": 114,
      "chip": "ym2612"
    },
    {
      "channel": 2,
      "note": 39,
      "start": 54.9071,
      "duration": 0.0125,
      "velocity": 114,
      "chip": "ym2612"
    },
    {
      "channel": 2,
      "note": 39,
      "start": 54.9196,
      "duration": 0.0125,
      "velocity": 114,
      "chip": "ym2612"
    },
    {
      "channel": 1,
      "note": 61,
      "start": 54.9554,
      "duration": 0.087,
      "velocity": 81,
      "chip": "ym2612"
    },
    {
      "channel": 3,
      "note": 68,
      "start": 54.9579,
      "duration": 0.1877,
      "velocity": 113,
      "chip": "ym2612"
    },
    {
      "channel": 4,
      "note": 70,
      "start": 54.9594,
      "duration": 0.0857,
      "velocity": 74,
      "chip": "ym2612"
    },
    {
      "channel": 2,
      "note": 40,
      "start": 54.9633,
      "duration": 0.0063,
      "velocity": 114,
      "chip": "ym2612"
    },
    {
      "channel": 2,
      "note": 40,
      "start": 54.9696,
      "duration": 0.0125,
      "velocity": 114,
      "chip": "ym2612"
    },
    {
      "channel": 2,
      "note": 40,
      "start": 54.9821,
      "duration": 0.0135,
      "velocity": 114,
      "chip": "ym2612"
    },
    {
      "channel": 2,
      "note": 40,
      "start": 54.9956,
      "duration": 0.0115,
      "velocity": 114,
      "chip": "ym2612"
    },
    {
      "channel": 2,
      "note": 40,
      "start": 55.0071,
      "duration": 0.0125,
      "velocity": 114,
      "chip": "ym2612"
    },
    {
      "channel": 2,
      "note": 40,
      "start": 55.0196,
      "duration": 0.0125,
      "velocity": 114,
      "chip": "ym2612"
    },
    {
      "channel": 2,
      "note": 40,
      "start": 55.0321,
      "duration": 0.0154,
      "velocity": 114,
      "chip": "ym2612"
    },
    {
      "channel": 1,
      "note": 61,
      "start": 55.0429,
      "duration": 0.0996,
      "velocity": 81,
      "chip": "ym2612"
    },
    {
      "channel": 4,
      "note": 72,
      "start": 55.0455,
      "duration": 0.1015,
      "velocity": 74,
      "chip": "ym2612"
    },
    {
      "channel": 2,
      "note": 40,
      "start": 55.0475,
      "duration": 0.0096,
      "velocity": 114,
      "chip": "ym2612"
    },
    {
      "channel": 2,
      "note": 40,
      "start": 55.0571,
      "duration": 0.0125,
      "velocity": 114,
      "chip": "ym2612"
    },
    {
      "channel": 2,
      "note": 40,
      "start": 55.0696,
      "duration": 0.0125,
      "velocity": 114,
      "chip": "ym2612"
    },
    {
      "channel": 2,
      "note": 39,
      "start": 55.0821,
      "duration": 0.0131,
      "velocity": 114,
      "chip": "ym2612"
    },
    {
      "channel": 2,
      "note": 39,
      "start": 55.0952,
      "duration": 0.0119,
      "velocity": 114,
      "chip": "ym2612"
    },
    {
      "channel": 2,
      "note": 39,
      "start": 55.1071,
      "duration": 0.0124,
      "velocity": 114,
      "chip": "ym2612"
    },
    {
      "channel": 1,
      "note": 49,
      "start": 55.143,
      "duration": 0.1876,
      "velocity": 81,
      "chip": "ym2612"
    },
    {
      "channel": 3,
      "note": 65,
      "start": 55.1461,
      "duration": 0.187,
      "velocity": 113,
      "chip": "ym2612"
    },
    {
      "channel": 4,
      "note": 65,
      "start": 55.1475,
      "duration": 0.0841,
      "velocity": 74,
      "chip": "ym2612"
    },
    {
      "channel": 2,
      "note": 41,
      "start": 55.1536,
      "duration": 0.1849,
      "velocity": 122,
      "chip": "ym2612"
    },
    {
      "channel": 4,
      "note": 68,
      "start": 55.2321,
      "duration": 0.1025,
      "velocity": 74,
      "chip": "ym2612"
    },
    {
      "channel": 1,
      "note": 61,
      "start": 55.3311,
      "duration": 0.0872,
      "velocity": 81,
      "chip": "ym2612"
    },
    {
      "channel": 3,
      "note": 69,
      "start": 55.3336,
      "duration": 0.1877,
      "velocity": 113,
      "chip": "ym2612"
    },
    {
      "channel": 4,
      "note": 70,
      "start": 55.335,
      "duration": 0.0861,
      "velocity": 74,
      "chip": "ym2612"
    },
    {
      "channel": 2,
      "note": 40,
      "start": 55.3412,
      "duration": 0.005,
      "velocity": 114,
      "chip": "ym2612"
    },
    {
      "channel": 2,
      "note": 40,
      "start": 55.3462,
      "duration": 0.0118,
      "velocity": 114,
      "chip": "ym2612"
    },
    {
      "channel": 2,
      "note": 40,
      "start": 55.358,
      "duration": 0.0129,
      "velocity": 114,
      "chip": "ym2612"
    },
    {
      "channel": 2,
      "note": 40,
      "start": 55.3709,
      "duration": 0.0121,
      "velocity": 114,
      "chip": "ym2612"
    },
    {
      "channel": 2,
      "note": 40,
      "start": 55.383,
      "duration": 0.013,
      "velocity": 114,
      "chip": "ym2612"
    },
    {
      "channel": 2,
      "note": 40,
      "start": 55.3961,
      "duration": 0.0119,
      "velocity": 114,
      "chip": "ym2612"
    },
    {
      "channel": 2,
      "note": 40,
      "start": 55.408,
      "duration": 0.0154,
      "velocity": 114,
      "chip": "ym2612"
    },
    {
      "channel": 1,
      "note": 61,
      "start": 55.4188,
      "duration": 0.0998,
      "velocity": 81,
      "chip": "ym2612"
    },
    {
      "channel": 4,
      "note": 67,
      "start": 55.4216,
      "duration": 0.1012,
      "velocity": 74,
      "chip": "ym2612"
    },
    {
      "channel": 2,
      "note": 40,
      "start": 55.434,
      "duration": 0.0121,
      "velocity": 114,
      "chip": "ym2612"
    },
    {
      "channel": 2,
      "note": 40,
      "start": 55.4461,
      "duration": 0.0118,
      "velocity": 114,
      "chip": "ym2612"
    },
    {
      "channel": 2,
      "note": 40,
      "start": 55.4579,
      "duration": 0.0129,
      "velocity": 114,
      "chip": "ym2612"
    },
    {
      "channel": 2,
      "note": 40,
      "start": 55.4708,
      "duration": 0.0121,
      "velocity": 114,
      "chip": "ym2612"
    },
    {
      "channel": 2,
      "note": 40,
      "start": 55.4829,
      "duration": 0.0131,
      "velocity": 114,
      "chip": "ym2612"
    },
    {
      "channel": 2,
      "note": 40,
      "start": 55.496,
      "duration": 0.0119,
      "velocity": 114,
      "chip": "ym2612"
    },
    {
      "channel": 2,
      "note": 40,
      "start": 55.5079,
      "duration": 0.0171,
      "velocity": 114,
      "chip": "ym2612"
    },
    {
      "channel": 1,
      "note": 51,
      "start": 55.519,
      "duration": 0.186,
      "velocity": 81,
      "chip": "ym2612"
    },
    {
      "channel": 3,
      "note": 70,
      "start": 55.5218,
      "duration": 0.084,
      "velocity": 113,
      "chip": "ym2612"
    },
    {
      "channel": 4,
      "note": 61,
      "start": 55.5232,
      "duration": 0.084,
      "velocity": 74,
      "chip": "ym2612"
    },
    {
      "channel": 2,
      "note": 40,
      "start": 55.5335,
      "duration": 0.0121,
      "velocity": 114,
      "chip": "ym2612"
    },
    {
      "channel": 2,
      "note": 40,
      "start": 55.5456,
      "duration": 0.0119,
      "velocity": 114,
      "chip": "ym2612"
    },
    {
      "channel": 2,
      "note": 40,
      "start": 55.5575,
      "duration": 0.0128,
      "velocity": 114,
      "chip": "ym2612"
    },
    {
      "channel": 2,
      "note": 40,
      "start": 55.5703,
      "duration": 0.0122,
      "velocity": 114,
      "chip": "ym2612"
    },
    {
      "channel": 2,
      "note": 40,
      "start": 55.5825,
      "duration": 0.013,
      "velocity": 114,
      "chip": "ym2612"
    },
    {
      "channel": 2,
      "note": 40,
      "start": 55.5955,
      "duration": 0.0142,
      "velocity": 114,
      "chip": "ym2612"
    },
    {
      "channel": 3,
      "note": 68,
      "start": 55.6063,
      "duration": 0.1013,
      "velocity": 113,
      "chip": "ym2612"
    },
    {
      "channel": 4,
      "note": 73,
      "start": 55.6077,
      "duration": 0.1013,
      "velocity": 74,
      "chip": "ym2612"
    },
    {
      "channel": 2,
      "note": 40,
      "start": 55.6097,
      "duration": 0.0102,
      "velocity": 114,
      "chip": "ym2612"
    },
    {
      "channel": 2,
      "note": 40,
      "start": 55.6199,
      "duration": 0.0125,
      "velocity": 114,
      "chip": "ym2612"
    },
    {
      "channel": 2,
      "note": 40,
      "start": 55.6324,
      "duration": 0.013,
      "velocity": 114,
      "chip": "ym2612"
    },
    {
      "channel": 2,
      "note": 40,
      "start": 55.6454,
      "duration": 0.0122,
      "velocity": 114,
      "chip": "ym2612"
    },
    {
      "channel": 2,
      "note": 39,
      "start": 55.6576,
      "duration": 0.0119,
      "velocity": 114,
      "chip": "ym2612"
    },
    {
      "channel": 2,
      "note": 39,
      "start": 55.6695,
      "duration": 0.0125,
      "velocity": 114,
      "chip": "ym2612"
    },
    {
      "channel": 2,
      "note": 39,
      "start": 55.682,
      "duration": 0.013,
      "velocity": 114,
      "chip": "ym2612"
    },
    {
      "channel": 1,
      "note": 51,
      "start": 55.7056,
      "duration": 0.1872,
      "velocity": 81,
      "chip": "ym2612"
    },
    {
      "channel": 3,
      "note": 67,
      "start": 55.7081,
      "duration": 0.085,
      "velocity": 113,
      "chip": "ym2612"
    },
    {
      "channel": 4,
      "note": 75,
      "start": 55.7095,
      "duration": 0.0856,
      "velocity": 74,
      "chip": "ym2612"
    },
    {
      "channel": 2,
      "note": 40,
      "start": 55.7131,
      "duration": 0.0063,
      "velocity": 114,
      "chip": "ym2612"
    },
    {
      "channel": 2,
      "note": 40,
      "start": 55.7194,
      "duration": 0.0125,
      "velocity": 114,
      "chip": "ym2612"
    },
    {
      "channel": 2,
      "note": 40,
      "start": 55.7319,
      "duration": 0.0134,
      "velocity": 114,
      "chip": "ym2612"
    },
    {
      "channel": 2,
      "note": 40,
      "start": 55.7453,
      "duration": 0.0115,
      "velocity": 114,
      "chip": "ym2612"
    },
    {
      "channel": 2,
      "note": 40,
      "start": 55.7568,
      "duration": 0.0125,
      "velocity": 114,
      "chip": "ym2612"
    },
    {
      "channel": 2,
      "note": 40,
      "start": 55.7694,
      "duration": 0.0125,
      "velocity": 114,
      "chip": "ym2612"
    },
    {
      "channel": 2,
      "note": 40,
      "start": 55.7818,
      "duration": 0.0153,
      "velocity": 114,
      "chip": "ym2612"
    },
    {
      "channel": 3,
      "note": 70,
      "start": 55.7936,
      "duration": 0.1022,
      "velocity": 113,
      "chip": "ym2612"
    },
    {
      "channel": 4,
      "note": 61,
      "start": 55.7956,
      "duration": 0.1016,
      "velocity": 74,
      "chip": "ym2612"
    },
    {
      "channel": 2,
      "note": 40,
      "start": 55.7972,
      "duration": 0.0096,
      "velocity": 114,
      "chip": "ym2612"
    },
    {
      "channel": 2,
      "note": 40,
      "start": 55.8068,
      "duration": 0.0125,
      "velocity": 114,
      "chip": "ym2612"
    },
    {
      "channel": 2,
      "note": 40,
      "start": 55.8193,
      "duration": 0.0125,
      "velocity": 114,
      "chip": "ym2612"
    },
    {
      "channel": 2,
      "note": 39,
      "start": 55.8318,
      "duration": 0.013,
      "velocity": 114,
      "chip": "ym2612"
    },
    {
      "channel": 2,
      "note": 39,
      "start": 55.8448,
      "duration": 0.0119,
      "velocity": 114,
      "chip": "ym2612"
    },
    {
      "channel": 2,
      "note": 39,
      "start": 55.8567,
      "duration": 0.0124,
      "velocity": 114,
      "chip": "ym2612"
    },
    {
      "channel": 1,
      "note": 51,
      "start": 55.8932,
      "duration": 0.1873,
      "velocity": 81,
      "chip": "ym2612"
    },
    {
      "channel": 3,
      "note": 68,
      "start": 55.8963,
      "duration": 0.0856,
      "velocity": 113,
      "chip": "ym2612"
    },
    {
      "channel": 4,
      "note": 72,
      "start": 55.8977,
      "duration": 0.0856,
      "velocity": 74,
      "chip": "ym2612"
    },
    {
      "channel": 2,
      "note": 41,
      "start": 55.9035,
      "duration": 0.0835,
      "velocity": 122,
      "chip": "ym2612"
    },
    {
      "channel": 3,
      "note": 67,
      "start": 55.9824,
      "duration": 0.0998,
      "velocity": 113,
      "chip": "ym2612"
    },
    {
      "channel": 4,
      "note": 73,
      "start": 55.9839,
      "duration": 0.0998,
      "velocity": 74,
      "chip": "ym2612"
    },
    {
      "channel": 2,
      "note": 40,
      "start": 55.9897,
      "duration": 0.0057,
      "velocity": 114,
      "chip": "ym2612"
    },
    {
      "channel": 2,
      "note": 40,
      "start": 55.9954,
      "duration": 0.0119,
      "velocity": 114,
      "chip": "ym2612"
    },
    {
      "channel": 2,
      "note": 40,
      "start": 56.0073,
      "duration": 0.0129,
      "velocity": 114,
      "chip": "ym2612"
    },
    {
      "channel": 2,
      "note": 40,
      "start": 56.0202,
      "duration": 0.0125,
      "velocity": 114,
      "chip": "ym2612"
    },
    {
      "channel": 2,
      "note": 40,
      "start": 56.0327,
      "duration": 0.0131,
      "velocity": 114,
      "chip": "ym2612"
    },
    {
      "channel": 2,
      "note": 40,
      "start": 56.0458,
      "duration": 0.0119,
      "velocity": 114,
      "chip": "ym2612"
    },
    {
      "channel": 2,
      "note": 40,
      "start": 56.0577,
      "duration": 0.0125,
      "velocity": 114,
      "chip": "ym2612"
    },
    {
      "channel": 2,
      "note": 40,
      "start": 56.0701,
      "duration": 0.0159,
      "velocity": 114,
      "chip": "ym2612"
    },
    {
      "channel": 1,
      "note": 51,
      "start": 56.0809,
      "duration": 0.1868,
      "velocity": 81,
      "chip": "ym2612"
    },
    {
      "channel": 3,
      "note": 70,
      "start": 56.0827,
      "duration": 0.0857,
      "velocity": 113,
      "chip": "ym2612"
    },
    {
      "channel": 4,
      "note": 61,
      "start": 56.0841,
      "duration": 0.0858,
      "velocity": 74,
      "chip": "ym2612"
    },
    {
      "channel": 2,
      "note": 40,
      "start": 56.086,
      "duration": 0.0097,
      "velocity": 114,
      "chip": "ym2612"
    },
    {
      "channel": 2,
      "note": 40,
      "start": 56.0957,
      "duration": 0.0119,
      "velocity": 114,
      "chip": "ym2612"
    },
    {
      "channel": 2,
      "note": 39,
      "start": 56.1076,
      "duration": 0.0125,
      "velocity": 114,
      "chip": "ym2612"
    },
    {
      "channel": 2,
      "note": 39,
      "start": 56.1201,
      "duration": 0.0125,
      "velocity": 114,
      "chip": "ym2612"
    },
    {
      "channel": 2,
      "note": 39,
      "start": 56.1325,
      "duration": 0.013,
      "velocity": 114,
      "chip": "ym2612"
    },
    {
      "channel": 3,
      "note": 68,
      "start": 56.1689,
      "duration": 0.1013,
      "velocity": 113,
      "chip": "ym2612"
    },
    {
      "channel": 4,
      "note": 70,
      "start": 56.1703,
      "duration": 0.1013,
      "velocity": 74,
      "chip": "ym2612"
    },
    {
      "channel": 1,
      "note": 51,
      "start": 56.2682,
      "duration": 0.1868,
      "velocity": 81,
      "chip": "ym2612"
    },
    {
      "channel": 3,
      "note": 67,
      "start": 56.2707,
      "duration": 0.085,
      "velocity": 113,
      "chip": "ym2612"
    },
    {
      "channel": 4,
      "note": 72,
      "start": 56.2722,
      "duration": 0.0849,
      "velocity": 74,
      "chip": "ym2612"
    },
    {
      "channel": 2,
      "note": 40,
      "start": 56.2755,
      "duration": 0.0069,
      "velocity": 114,
      "chip": "ym2612"
    },
    {
      "channel": 2,
      "note": 40,
      "start": 56.2824,
      "duration": 0.0131,
      "velocity": 114,
      "chip": "ym2612"
    },
    {
      "channel": 2,
      "note": 40,
      "start": 56.2954,
      "duration": 0.0122,
      "velocity": 114,
      "chip": "ym2612"
    },
    {
      "channel": 2,
      "note": 40,
      "start": 56.3077,
      "duration": 0.0122,
      "velocity": 114,
      "chip": "ym2612"
    },
    {
      "channel": 2,
      "note": 40,
      "start": 56.3198,
      "duration": 0.0125,
      "velocity": 114,
      "chip": "ym2612"
    },
    {
      "channel": 2,
      "note": 40,
      "start": 56.3323,
      "duration": 0.0131,
      "velocity": 114,
      "chip": "ym2612"
    },
    {
      "channel": 2,
      "note": 40,
      "start": 56.3454,
      "duration": 0.0141,
      "velocity": 114,
      "chip": "ym2612"
    },
    {
      "channel": 3,
      "note": 70,
      "start": 56.3561,
      "duration": 0.1013,
      "velocity": 113,
      "chip": "ym2612"
    },
    {
      "channel": 4,
      "note": 61,
      "start": 56.3576,
      "duration": 0.1013,
      "velocity": 74,
      "chip": "ym2612"
    },
    {
      "channel": 2,
      "note": 40,
      "start": 56.3595,
      "duration": 0.0102,
      "velocity": 114,
      "chip": "ym2612"
    },
    {
      "channel": 2,
      "note": 40,
      "start": 56.3698,
      "duration": 0.0125,
      "velocity": 114,
      "chip": "ym2612"
    },
    {
      "channel": 2,
      "note": 40,
      "start": 56.3822,
      "duration": 0.0131,
      "velocity": 114,
      "chip": "ym2612"
    },
    {
      "channel": 2,
      "note": 39,
      "start": 56.3953,
      "duration": 0.0119,
      "velocity": 114,
      "chip": "ym2612"
    },
    {
      "channel": 2,
      "note": 39,
      "start": 56.4072,
      "duration": 0.0125,
      "velocity": 114,
      "chip": "ym2612"
    },
    {
      "channel": 2,
      "note": 39,
      "start": 56.4197,
      "duration": 0.0124,
      "velocity": 114,
      "chip": "ym2612"
    },
    {
      "channel": 1,
      "note": 63,
      "start": 56.4554,
      "duration": 0.087,
      "velocity": 81,
      "chip": "ym2612"
    },
    {
      "channel": 3,
      "note": 68,
      "start": 56.458,
      "duration": 0.0865,
      "velocity": 113,
      "chip": "ym2612"
    },
    {
      "channel": 4,
      "note": 68,
      "start": 56.4594,
      "duration": 0.0868,
      "velocity": 74,
      "chip": "ym2612"
    },
    {
      "channel": 2,
      "note": 40,
      "start": 56.4633,
      "duration": 0.0063,
      "velocity": 114,
      "chip": "ym2612"
    },
    {
      "channel": 2,
      "note": 40,
      "start": 56.4696,
      "duration": 0.0125,
      "velocity": 114,
      "chip": "ym2612"
    },
    {
      "channel": 2,
      "note": 40,
      "start": 56.4822,
      "duration": 0.0134,
      "velocity": 114,
      "chip": "ym2612"
    },
    {
      "channel": 2,
      "note": 40,
      "start": 56.4956,
      "duration": 0.0115,
      "velocity": 114,
      "chip": "ym2612"
    },
    {
      "channel": 2,
      "note": 40,
      "start": 56.5071,
      "duration": 0.0125,
      "velocity": 114,
      "chip": "ym2612"
    },
    {
      "channel": 2,
      "note": 40,
      "start": 56.5196,
      "duration": 0.0125,
      "velocity": 114,
      "chip": "ym2612"
    },
    {
      "channel": 2,
      "note": 40,
      "start": 56.5321,
      "duration": 0.0166,
      "velocity": 114,
      "chip": "ym2612"
    },
    {
      "channel": 1,
      "note": 63,
      "start": 56.5429,
      "duration": 0.0996,
      "velocity": 81,
      "chip": "ym2612"
    },
    {
      "channel": 3,
      "note": 67,
      "start": 56.5453,
      "duration": 0.1003,
      "velocity": 113,
      "chip": "ym2612"
    },
    {
      "channel": 4,
      "note": 70,
      "start": 56.5467,
      "duration": 0.1004,
      "velocity": 74,
      "chip": "ym2612"
    },
    {
      "channel": 2,
      "note": 40,
      "start": 56.5486,
      "duration": 0.0085,
      "velocity": 114,
      "chip": "ym2612"
    },
    {
      "channel": 2,
      "note": 40,
      "start": 56.5571,
      "duration": 0.0125,
      "velocity": 114,
      "chip": "ym2612"
    },
    {
      "channel": 2,
      "note": 40,
      "start": 56.5696,
      "duration": 0.0125,
      "velocity": 114,
      "chip": "ym2612"
    },
    {
      "channel": 2,
      "note": 39,
      "start": 56.5821,
      "duration": 0.0131,
      "velocity": 114,
      "chip": "ym2612"
    },
    {
      "channel": 2,
      "note": 39,
      "start": 56.5952,
      "duration": 0.0119,
      "velocity": 114,
      "chip": "ym2612"
    },
    {
      "channel": 2,
      "note": 39,
      "start": 56.6071,
      "duration": 0.0124,
      "velocity": 114,
      "chip": "ym2612"
    },
    {
      "channel": 1,
      "note": 51,
      "start": 56.643,
      "duration": 0.1876,
      "velocity": 81,
      "chip": "ym2612"
    },
    {
      "channel": 3,
      "note": 70,
      "start": 56.6461,
      "duration": 0.0853,
      "velocity": 113,
      "chip": "ym2612"
    },
    {
      "channel": 4,
      "note": 61,
      "start": 56.6475,
      "duration": 0.0852,
      "velocity": 74,
      "chip": "ym2612"
    },
    {
      "channel": 2,
      "note": 41,
      "start": 56.6536,
      "duration": 0.1849,
      "velocity": 122,
      "chip": "ym2612"
    },
    {
      "channel": 3,
      "note": 68,
      "start": 56.7318,
      "duration": 0.1014,
      "velocity": 113,
      "chip": "ym2612"
    },
    {
      "channel": 4,
      "note": 67,
      "start": 56.7332,
      "duration": 0.1013,
      "velocity": 74,
      "chip": "ym2612"
    },
    {
      "channel": 1,
      "note": 63,
      "start": 56.8311,
      "duration": 0.0873,
      "velocity": 81,
      "chip": "ym2612"
    },
    {
      "channel": 3,
      "note": 67,
      "start": 56.8336,
      "duration": 0.1877,
      "velocity": 113,
      "chip": "ym2612"
    },
    {
      "channel": 4,
      "note": 68,
      "start": 56.8351,
      "duration": 0.0861,
      "velocity": 74,
      "chip": "ym2612"
    },
    {
      "channel": 2,
      "note": 40,
      "start": 56.8412,
      "duration": 0.005,
      "velocity": 114,
      "chip": "ym2612"
    },
    {
      "channel": 2,
      "note": 40,
      "start": 56.8462,
      "duration": 0.0119,
      "velocity": 114,
      "chip": "ym2612"
    },
    {
      "channel": 2,
      "note": 40,
      "start": 56.8581,
      "duration": 0.0128,
      "velocity": 114,
      "chip": "ym2612"
    },
    {
      "channel": 2,
      "note": 40,
      "start": 56.871,
      "duration": 0.0121,
      "velocity": 114,
      "chip": "ym2612"
    },
    {
      "channel": 2,
      "note": 40,
      "start": 56.883,
      "duration": 0.0131,
      "velocity": 114,
      "chip": "ym2612"
    },
    {
      "channel": 2,
      "note": 40,
      "start": 56.8961,
      "duration": 0.0119,
      "velocity": 114,
      "chip": "ym2612"
    },
    {
      "channel": 2,
      "note": 40,
      "start": 56.908,
      "duration": 0.0154,
      "velocity": 114,
      "chip": "ym2612"
    },
    {
      "channel": 1,
      "note": 63,
      "start": 56.9188,
      "duration": 0.0998,
      "velocity": 81,
      "chip": "ym2612"
    },
    {
      "channel": 4,
      "note": 65,
      "start": 56.9217,
      "duration": 0.1011,
      "velocity": 74,
      "chip": "ym2612"
    },
    {
      "channel": 2,
      "note": 40,
      "start": 56.934,
      "duration": 0.0122,
      "velocity": 114,
      "chip": "ym2612"
    },
    {
      "channel": 2,
      "note": 40,
      "start": 56.9461,
      "duration": 0.0118,
      "velocity": 114,
      "chip": "ym2612"
    },
    {
      "channel": 2,
      "note": 40,
      "start": 56.958,
      "duration": 0.0129,
      "velocity": 114,
      "chip": "ym2612"
    },
    {
      "channel": 2,
      "note": 40,
      "start": 56.9708,
      "duration": 0.0121,
      "velocity": 114,
      "chip": "ym2612"
    },
    {
      "channel": 2,
      "note": 40,
      "start": 56.9829,
      "duration": 0.0131,
      "velocity": 114,
      "chip": "ym2612"
    },
    {
      "channel": 2,
      "note": 40,
      "start": 56.996,
      "duration": 0.0119,
      "velocity": 114,
      "chip": "ym2612"
    },
    {
      "channel": 2,
      "note": 40,
      "start": 57.0079,
      "duration": 0.0171,
      "velocity": 114,
      "chip": "ym2612"
    },
    {
      "channel": 1,
      "note": 51,
      "start": 57.019,
      "duration": 0.1861,
      "velocity": 81,
      "chip": "ym2612"
    },
    {
      "channel": 3,
      "note": 70,
      "start": 57.0218,
      "duration": 0.0841,
      "velocity": 113,
      "chip": "ym2612"
    },
    {
      "channel": 4,
      "note": 61,
      "start": 57.0232,
      "duration": 0.084,
      "velocity": 74,
      "chip": "ym2612"
    },
    {
      "channel": 2,
      "note": 40,
      "start": 57.0335,
      "duration": 0.0121,
      "velocity": 114,
      "chip": "ym2612"
    },
    {
      "channel": 2,
      "note": 40,
      "start": 57.0456,
      "duration": 0.0119,
      "velocity": 114,
      "chip": "ym2612"
    },
    {
      "channel": 2,
      "note": 40,
      "start": 57.0575,
      "duration": 0.0128,
      "velocity": 114,
      "chip": "ym2612"
    },
    {
      "channel": 2,
      "note": 40,
      "start": 57.0703,
      "duration": 0.0122,
      "velocity": 114,
      "chip": "ym2612"
    },
    {
      "channel": 2,
      "note": 40,
      "start": 57.0825,
      "duration": 0.013,
      "velocity": 114,
      "chip": "ym2612"
    },
    {
      "channel": 2,
      "note": 40,
      "start": 57.0955,
      "duration": 0.0142,
      "velocity": 114,
      "chip": "ym2612"
    },
    {
      "channel": 3,
      "note": 68,
      "start": 57.1063,
      "duration": 0.1013,
      "velocity": 113,
      "chip": "ym2612"
    },
    {
      "channel": 4,
      "note": 73,
      "start": 57.1078,
      "duration": 0.1013,
      "velocity": 74,
      "chip": "ym2612"
    },
    {
      "channel": 2,
      "note": 40,
      "start": 57.1097,
      "duration": 0.0102,
      "velocity": 114,
      "chip": "ym2612"
    },
    {
      "channel": 2,
      "note": 40,
      "start": 57.1199,
      "duration": 0.0125,
      "velocity": 114,
      "chip": "ym2612"
    },
    {
      "channel": 2,
      "note": 40,
      "start": 57.1324,
      "duration": 0.013,
      "velocity": 114,
      "chip": "ym2612"
    },
    {
      "channel": 2,
      "note": 40,
      "start": 57.1454,
      "duration": 0.0122,
      "velocity": 114,
      "chip": "ym2612"
    },
    {
      "channel": 2,
      "note": 39,
      "start": 57.1577,
      "duration": 0.0118,
      "velocity": 114,
      "chip": "ym2612"
    },
    {
      "channel": 2,
      "note": 39,
      "start": 57.1695,
      "duration": 0.0125,
      "velocity": 114,
      "chip": "ym2612"
    },
    {
      "channel": 2,
      "note": 39,
      "start": 57.182,
      "duration": 0.013,
      "velocity": 114,
      "chip": "ym2612"
    },
    {
      "channel": 1,
      "note": 51,
      "start": 57.2056,
      "duration": 0.1872,
      "velocity": 81,
      "chip": "ym2612"
    },
    {
      "channel": 3,
      "note": 67,
      "start": 57.2082,
      "duration": 0.085,
      "velocity": 113,
      "chip": "ym2612"
    },
    {
      "channel": 4,
      "note": 75,
      "start": 57.2096,
      "duration": 0.0856,
      "velocity": 74,
      "chip": "ym2612"
    },
    {
      "channel": 2,
      "note": 40,
      "start": 57.2131,
      "duration": 0.0063,
      "velocity": 114,
      "chip": "ym2612"
    },
    {
      "channel": 2,
      "note": 40,
      "start": 57.2194,
      "duration": 0.0125,
      "velocity": 114,
      "chip": "ym2612"
    },
    {
      "channel": 2,
      "note": 40,
      "start": 57.2319,
      "duration": 0.0135,
      "velocity": 114,
      "chip": "ym2612"
    },
    {
      "channel": 2,
      "note": 40,
      "start": 57.2454,
      "duration": 0.0115,
      "velocity": 114,
      "chip": "ym2612"
    },
    {
      "channel": 2,
      "note": 40,
      "start": 57.2569,
      "duration": 0.0125,
      "velocity": 114,
      "chip": "ym2612"
    },
    {
      "channel": 2,
      "note": 40,
      "start": 57.2694,
      "duration": 0.0125,
      "velocity": 114,
      "chip": "ym2612"
    },
    {
      "channel": 2,
      "note": 40,
      "start": 57.2818,
      "duration": 0.0154,
      "velocity": 114,
      "chip": "ym2612"
    },
    {
      "channel": 3,
      "note": 72,
      "start": 57.2936,
      "duration": 0.1023,
      "velocity": 113,
      "chip": "ym2612"
    },
    {
      "channel": 4,
      "note": 61,
      "start": 57.2956,
      "duration": 0.1017,
      "velocity": 74,
      "chip": "ym2612"
    },
    {
      "channel": 2,
      "note": 40,
      "start": 57.2972,
      "duration": 0.0096,
      "velocity": 114,
      "chip": "ym2612"
    },
    {
      "channel": 2,
      "note": 40,
      "start": 57.3068,
      "duration": 0.0124,
      "velocity": 114,
      "chip": "ym2612"
    },
    {
      "channel": 2,
      "note": 40,
      "start": 57.3193,
      "duration": 0.0125,
      "velocity": 114,
      "chip": "ym2612"
    },
    {
      "channel": 2,
      "note": 39,
      "start": 57.3318,
      "duration": 0.0131,
      "velocity": 114,
      "chip": "ym2612"
    },
    {
      "channel": 2,
      "note": 39,
      "start": 57.3449,
      "duration": 0.0119,
      "velocity": 114,
      "chip": "ym2612"
    },
    {
      "channel": 2,
      "note": 39,
      "start": 57.3568,
      "duration": 0.0124,
      "velocity": 114,
      "chip": "ym2612"
    },
    {
      "channel": 1,
      "note": 51,
      "start": 57.3932,
      "duration": 0.1873,
      "velocity": 81,
      "chip": "ym2612"
    },
    {
      "channel": 3,
      "note": 70,
      "start": 57.3964,
      "duration": 0.0856,
      "velocity": 113,
      "chip": "ym2612"
    },
    {
      "channel": 4,
      "note": 72,
      "start": 57.3978,
      "duration": 0.0856,
      "velocity": 74,
      "chip": "ym2612"
    },
    {
      "channel": 2,
      "note": 41,
      "start": 57.4035,
      "duration": 0.0834,
      "velocity": 122,
      "chip": "ym2612"
    },
    {
      "channel": 3,
      "note": 68,
      "start": 57.4825,
      "duration": 0.0998,
      "velocity": 113,
      "chip": "ym2612"
    },
    {
      "channel": 4,
      "note": 73,
      "start": 57.4839,
      "duration": 0.0997,
      "velocity": 74,
      "chip": "ym2612"
    },
    {
      "channel": 2,
      "note": 40,
      "start": 57.4897,
      "duration": 0.0058,
      "velocity": 114,
      "chip": "ym2612"
    },
    {
      "channel": 2,
      "note": 40,
      "start": 57.4955,
      "duration": 0.0119,
      "velocity": 114,
      "chip": "ym2612"
    },
    {
      "channel": 2,
      "note": 40,
      "start": 57.5074,
      "duration": 0.0129,
      "velocity": 114,
      "chip": "ym2612"
    },
    {
      "channel": 2,
      "note": 40,
      "start": 57.5203,
      "duration": 0.0124,
      "velocity": 114,
      "chip": "ym2612"
    },
    {
      "channel": 2,
      "note": 40,
      "start": 57.5327,
      "duration": 0.0131,
      "velocity": 114,
      "chip": "ym2612"
    },
    {
      "channel": 2,
      "note": 40,
      "start": 57.5458,
      "duration": 0.0119,
      "velocity": 114,
      "chip": "ym2612"
    },
    {
      "channel": 2,
      "note": 40,
      "start": 57.5577,
      "duration": 0.0125,
      "velocity": 114,
      "chip": "ym2612"
    },
    {
      "channel": 2,
      "note": 40,
      "start": 57.5702,
      "duration": 0.0159,
      "velocity": 114,
      "chip": "ym2612"
    },
    {
      "channel": 1,
      "note": 51,
      "start": 57.581,
      "duration": 0.1868,
      "velocity": 81,
      "chip": "ym2612"
    },
    {
      "channel": 3,
      "note": 73,
      "start": 57.5827,
      "duration": 0.0858,
      "velocity": 113,
      "chip": "ym2612"
    },
    {
      "channel": 4,
      "note": 61,
      "start": 57.5841,
      "duration": 0.0858,
      "velocity": 74,
      "chip": "ym2612"
    },
    {
      "channel": 2,
      "note": 40,
      "start": 57.5861,
      "duration": 0.0097,
      "velocity": 114,
      "chip": "ym2612"
    },
    {
      "channel": 2,
      "note": 40,
      "start": 57.5958,
      "duration": 0.0119,
      "velocity": 114,
      "chip": "ym2612"
    },
    {
      "channel": 2,
      "note": 39,
      "start": 57.6077,
      "duration": 0.0125,
      "velocity": 114,
      "chip": "ym2612"
    },
    {
      "channel": 2,
      "note": 39,
      "start": 57.6201,
      "duration": 0.0125,
      "velocity": 114,
      "chip": "ym2612"
    },
    {
      "channel": 2,
      "note": 39,
      "start": 57.6326,
      "duration": 0.013,
      "velocity": 114,
      "chip": "ym2612"
    },
    {
      "channel": 3,
      "note": 72,
      "start": 57.669,
      "duration": 0.1013,
      "velocity": 113,
      "chip": "ym2612"
    },
    {
      "channel": 4,
      "note": 70,
      "start": 57.6704,
      "duration": 0.1013,
      "velocity": 74,
      "chip": "ym2612"
    },
    {
      "channel": 1,
      "note": 51,
      "start": 57.7682,
      "duration": 0.1868,
      "velocity": 81,
      "chip": "ym2612"
    },
    {
      "channel": 3,
      "note": 70,
      "start": 57.7708,
      "duration": 0.085,
      "velocity": 113,
      "chip": "ym2612"
    },
    {
      "channel": 4,
      "note": 72,
      "start": 57.7722,
      "duration": 0.085,
      "velocity": 74,
      "chip": "ym2612"
    },
    {
      "channel": 2,
      "note": 40,
      "start": 57.7755,
      "duration": 0.0069,
      "velocity": 114,
      "chip": "ym2612"
    },
    {
      "channel": 2,
      "note": 40,
      "start": 57.7824,
      "duration": 0.0131,
      "velocity": 114,
      "chip": "ym2612"
    },
    {
      "channel": 2,
      "note": 40,
      "start": 57.7955,
      "duration": 0.0123,
      "velocity": 114,
      "chip": "ym2612"
    },
    {
      "channel": 2,
      "note": 40,
      "start": 57.8078,
      "duration": 0.0121,
      "velocity": 114,
      "chip": "ym2612"
    },
    {
      "channel": 2,
      "note": 40,
      "start": 57.8199,
      "duration": 0.0125,
      "velocity": 114,
      "chip": "ym2612"
    },
    {
      "channel": 2,
      "note": 40,
      "start": 57.8324,
      "duration": 0.0131,
      "velocity": 114,
      "chip": "ym2612"
    },
    {
      "channel": 2,
      "note": 40,
      "start": 57.8454,
      "duration": 0.0142,
      "velocity": 114,
      "chip": "ym2612"
    },
    {
      "channel": 3,
      "note": 72,
      "start": 57.8563,
      "duration": 0.1013,
      "velocity": 113,
      "chip": "ym2612"
    },
    {
      "channel": 4,
      "note": 61,
      "start": 57.8577,
      "duration": 0.1013,
      "velocity": 74,
      "chip": "ym2612"
    },
    {
      "channel": 2,
      "note": 40,
      "start": 57.8596,
      "duration": 0.0102,
      "velocity": 114,
      "chip": "ym2612"
    },
    {
      "channel": 2,
      "note": 40,
      "start": 57.8698,
      "duration": 0.0125,
      "velocity": 114,
      "chip": "ym2612"
    },
    {
      "channel": 2,
      "note": 40,
      "start": 57.8823,
      "duration": 0.0131,
      "velocity": 114,
      "chip": "ym2612"
    },
    {
      "channel": 2,
      "note": 39,
      "start": 57.8954,
      "duration": 0.0119,
      "velocity": 114,
      "chip": "ym2612"
    },
    {
      "channel": 2,
      "note": 39,
      "start": 57.9073,
      "duration": 0.0125,
      "velocity": 114,
      "chip": "ym2612"
    },
    {
      "channel": 2,
      "note": 39,
      "start": 57.9198,
      "duration": 0.0124,
      "velocity": 114,
      "chip": "ym2612"
    },
    {
      "channel": 1,
      "note": 63,
      "start": 57.9555,
      "duration": 0.0869,
      "velocity": 81,
      "chip": "ym2612"
    },
    {
      "channel": 3,
      "note": 70,
      "start": 57.958,
      "duration": 0.0864,
      "velocity": 113,
      "chip": "ym2612"
    },
    {
      "channel": 4,
      "note": 68,
      "start": 57.9595,
      "duration": 0.0868,
      "velocity": 74,
      "chip": "ym2612"
    },
    {
      "channel": 2,
      "note": 40,
      "start": 57.9634,
      "duration": 0.0063,
      "velocity": 114,
      "chip": "ym2612"
    },
    {
      "channel": 2,
      "note": 40,
      "start": 57.9697,
      "duration": 0.0125,
      "velocity": 114,
      "chip": "ym2612"
    },
    {
      "channel": 2,
      "note": 40,
      "start": 57.9822,
      "duration": 0.0135,
      "velocity": 114,
      "chip": "ym2612"
    },
    {
      "channel": 2,
      "note": 40,
      "start": 57.9956,
      "duration": 0.0115,
      "velocity": 114,
      "chip": "ym2612"
    },
    {
      "channel": 2,
      "note": 40,
      "start": 58.0072,
      "duration": 0.0124,
      "velocity": 114,
      "chip": "ym2612"
    },
    {
      "channel": 2,
      "note": 40,
      "start": 58.0196,
      "duration": 0.0125,
      "velocity": 114,
      "chip": "ym2612"
    },
    {
      "channel": 2,
      "note": 40,
      "start": 58.0322,
      "duration": 0.0165,
      "velocity": 114,
      "chip": "ym2612"
    },
    {
      "channel": 1,
      "note": 63,
      "start": 58.0429,
      "duration": 0.0996,
      "velocity": 81,
      "chip": "ym2612"
    },
    {
      "channel": 3,
      "note": 68,
      "start": 58.0453,
      "duration": 0.1003,
      "velocity": 113,
      "chip": "ym2612"
    },
    {
      "channel": 4,
      "note": 70,
      "start": 58.0467,
      "duration": 0.1004,
      "velocity": 74,
      "chip": "ym2612"
    },
    {
      "channel": 2,
      "note": 40,
      "start": 58.0486,
      "duration": 0.0085,
      "velocity": 114,
      "chip": "ym2612"
    },
    {
      "channel": 2,
      "note": 40,
      "start": 58.0571,
      "duration": 0.0125,
      "velocity": 114,
      "chip": "ym2612"
    },
    {
      "channel": 2,
      "note": 40,
      "start": 58.0696,
      "duration": 0.0125,
      "velocity": 114,
      "chip": "ym2612"
    },
    {
      "channel": 2,
      "note": 39,
      "start": 58.0821,
      "duration": 0.0131,
      "velocity": 114,
      "chip": "ym2612"
    },
    {
      "channel": 2,
      "note": 39,
      "start": 58.0952,
      "duration": 0.0119,
      "velocity": 114,
      "chip": "ym2612"
    },
    {
      "channel": 2,
      "note": 39,
      "start": 58.1071,
      "duration": 0.0124,
      "velocity": 114,
      "chip": "ym2612"
    },
    {
      "channel": 1,
      "note": 51,
      "start": 58.143,
      "duration": 0.1876,
      "velocity": 81,
      "chip": "ym2612"
    },
    {
      "channel": 3,
      "note": 70,
      "start": 58.1461,
      "duration": 0.0853,
      "velocity": 113,
      "chip": "ym2612"
    },
    {
      "channel": 4,
      "note": 61,
      "start": 58.1475,
      "duration": 0.0852,
      "velocity": 74,
      "chip": "ym2612"
    },
    {
      "channel": 2,
      "note": 41,
      "start": 58.1536,
      "duration": 0.1849,
      "velocity": 122,
      "chip": "ym2612"
    },
    {
      "channel": 3,
      "note": 68,
      "start": 58.2318,
      "duration": 0.1013,
      "velocity": 113,
      "chip": "ym2612"
    },
    {
      "channel": 4,
      "note": 67,
      "start": 58.2332,
      "duration": 0.1013,
      "velocity": 74,
      "chip": "ym2612"
    },
    {
      "channel": 1,
      "note": 63,
      "start": 58.3311,
      "duration": 0.0872,
      "velocity": 81,
      "chip": "ym2612"
    },
    {
      "channel": 3,
      "note": 67,
      "start": 58.3336,
      "duration": 0.1876,
      "velocity": 113,
      "chip": "ym2612"
    },
    {
      "channel": 4,
      "note": 68,
      "start": 58.3351,
      "duration": 0.0861,
      "velocity": 74,
      "chip": "ym2612"
    },
    {
      "channel": 2,
      "note": 40,
      "start": 58.3412,
      "duration": 0.005,
      "velocity": 114,
      "chip": "ym2612"
    },
    {
      "channel": 2,
      "note": 40,
      "start": 58.3462,
      "duration": 0.0119,
      "velocity": 114,
      "chip": "ym2612"
    },
    {
      "channel": 2,
      "note": 40,
      "start": 58.3581,
      "duration": 0.0128,
      "velocity": 114,
      "chip": "ym2612"
    },
    {
      "channel": 2,
      "note": 40,
      "start": 58.371,
      "duration": 0.0121,
      "velocity": 114,
      "chip": "ym2612"
    },
    {
      "channel": 2,
      "note": 40,
      "start": 58.383,
      "duration": 0.013,
      "velocity": 114,
      "chip": "ym2612"
    },
    {
      "channel": 2,
      "note": 40,
      "start": 58.3961,
      "duration": 0.0119,
      "velocity": 114,
      "chip": "ym2612"
    },
    {
      "channel": 2,
      "note": 40,
      "start": 58.408,
      "duration": 0.0154,
      "velocity": 114,
      "chip": "ym2612"
    },
    {
      "channel": 1,
      "note": 63,
      "start": 58.4188,
      "duration": 0.0997,
      "velocity": 81,
      "chip": "ym2612"
    },
    {
      "channel": 4,
      "note": 65,
      "start": 58.4216,
      "duration": 0.1011,
      "velocity": 74,
      "chip": "ym2612"
    },
    {
      "channel": 2,
      "note": 40,
      "start": 58.434,
      "duration": 0.0121,
      "velocity": 114,
      "chip": "ym2612"
    },
    {
      "channel": 2,
      "note": 40,
      "start": 58.4461,
      "duration": 0.0118,
      "velocity": 114,
      "chip": "ym2612"
    },
    {
      "channel": 2,
      "note": 40,
      "start": 58.4579,
      "duration": 0.0129,
      "velocity": 114,
      "chip": "ym2612"
    },
    {
      "channel": 2,
      "note": 40,
      "start": 58.4708,
      "duration": 0.0121,
      "velocity": 114,
      "chip": "ym2612"
    },
    {
      "channel": 2,
      "note": 40,
      "start": 58.4829,
      "duration": 0.0131,
      "velocity": 114,
      "chip": "ym2612"
    },
    {
      "channel": 2,
      "note": 40,
      "start": 58.496,
      "duration": 0.0118,
      "velocity": 114,
      "chip": "ym2612"
    },
    {
      "channel": 2,
      "note": 40,
      "start": 58.5078,
      "duration": 0.0171,
      "velocity": 114,
      "chip": "ym2612"
    },
    {
      "channel": 1,
      "note": 53,
      "start": 58.5189,
      "duration": 0.1861,
      "velocity": 81,
      "chip": "ym2612"
    },
    {
      "channel": 3,
      "note": 68,
      "start": 58.5217,
      "duration": 0.0841,
      "velocity": 113,
      "chip": "ym2612"
    },
    {
      "channel": 4,
      "note": 65,
      "start": 58.5232,
      "duration": 0.0841,
      "velocity": 74,
      "chip": "ym2612"
    },
    {
      "channel": 2,
      "note": 40,
      "start": 58.5335,
      "duration": 0.0121,
      "velocity": 114,
      "chip": "ym2612"
    },
    {
      "channel": 2,
      "note": 40,
      "start": 58.5456,
      "duration": 0.0119,
      "velocity": 114,
      "chip": "ym2612"
    },
    {
      "channel": 2,
      "note": 40,
      "start": 58.5575,
      "duration": 0.0128,
      "velocity": 114,
      "chip": "ym2612"
    },
    {
      "channel": 2,
      "note": 40,
      "start": 58.5703,
      "duration": 0.0122,
      "velocity": 114,
      "chip": "ym2612"
    },
    {
      "channel": 2,
      "note": 40,
      "start": 58.5825,
      "duration": 0.013,
      "velocity": 114,
      "chip": "ym2612"
    },
    {
      "channel": 2,
      "note": 40,
      "start": 58.5955,
      "duration": 0.0142,
      "velocity": 114,
      "chip": "ym2612"
    },
    {
      "channel": 3,
      "note": 67,
      "start": 58.6063,
      "duration": 0.1013,
      "velocity": 113,
      "chip": "ym2612"
    },
    {
      "channel": 4,
      "note": 75,
      "start": 58.6077,
      "duration": 0.1013,
      "velocity": 74,
      "chip": "ym2612"
    },
    {
      "channel": 2,
      "note": 40,
      "start": 58.6097,
      "duration": 0.0102,
      "velocity": 114,
      "chip": "ym2612"
    },
    {
      "channel": 2,
      "note": 40,
      "start": 58.6199,
      "duration": 0.0125,
      "velocity": 114,
      "chip": "ym2612"
    },
    {
      "channel": 2,
      "note": 40,
      "start": 58.6324,
      "duration": 0.0131,
      "velocity": 114,
      "chip": "ym2612"
    },
    {
      "channel": 2,
      "note": 40,
      "start": 58.6454,
      "duration": 0.0122,
      "velocity": 114,
      "chip": "ym2612"
    },
    {
      "channel": 2,
      "note": 39,
      "start": 58.6576,
      "duration": 0.0118,
      "velocity": 114,
      "chip": "ym2612"
    },
    {
      "channel": 2,
      "note": 39,
      "start": 58.6694,
      "duration": 0.0125,
      "velocity": 114,
      "chip": "ym2612"
    },
    {
      "channel": 2,
      "note": 39,
      "start": 58.682,
      "duration": 0.013,
      "velocity": 114,
      "chip": "ym2612"
    },
    {
      "channel": 1,
      "note": 53,
      "start": 58.7056,
      "duration": 0.1872,
      "velocity": 81,
      "chip": "ym2612"
    },
    {
      "channel": 3,
      "note": 65,
      "start": 58.7081,
      "duration": 0.5618,
      "velocity": 113,
      "chip": "ym2612"
    },
    {
      "channel": 4,
      "note": 77,
      "start": 58.7095,
      "duration": 0.0839,
      "velocity": 74,
      "chip": "ym2612"
    },
    {
      "channel": 2,
      "note": 40,
      "start": 58.7131,
      "duration": 0.0063,
      "velocity": 114,
      "chip": "ym2612"
    },
    {
      "channel": 2,
      "note": 40,
      "start": 58.7194,
      "duration": 0.0125,
      "velocity": 114,
      "chip": "ym2612"
    },
    {
      "channel": 2,
      "note": 40,
      "start": 58.7319,
      "duration": 0.0134,
      "velocity": 114,
      "chip": "ym2612"
    },
    {
      "channel": 2,
      "note": 40,
      "start": 58.7453,
      "duration": 0.0115,
      "velocity": 114,
      "chip": "ym2612"
    },
    {
      "channel": 2,
      "note": 40,
      "start": 58.7568,
      "duration": 0.0124,
      "velocity": 114,
      "chip": "ym2612"
    },
    {
      "channel": 2,
      "note": 40,
      "start": 58.7693,
      "duration": 0.0125,
      "velocity": 114,
      "chip": "ym2612"
    },
    {
      "channel": 2,
      "note": 40,
      "start": 58.7818,
      "duration": 0.0142,
      "velocity": 114,
      "chip": "ym2612"
    },
    {
      "channel": 4,
      "note": 65,
      "start": 58.7942,
      "duration": 0.102,
      "velocity": 74,
      "chip": "ym2612"
    },
    {
      "channel": 2,
      "note": 40,
      "start": 58.796,
      "duration": 0.0107,
      "velocity": 114,
      "chip": "ym2612"
    },
    {
      "channel": 2,
      "note": 40,
      "start": 58.8068,
      "duration": 0.0125,
      "velocity": 114,
      "chip": "ym2612"
    },
    {
      "channel": 2,
      "note": 40,
      "start": 58.8193,
      "duration": 0.0125,
      "velocity": 114,
      "chip": "ym2612"
    },
    {
      "channel": 2,
      "note": 39,
      "start": 58.8318,
      "duration": 0.013,
      "velocity": 114,
      "chip": "ym2612"
    },
    {
      "channel": 2,
      "note": 39,
      "start": 58.8448,
      "duration": 0.0119,
      "velocity": 114,
      "chip": "ym2612"
    },
    {
      "channel": 2,
      "note": 39,
      "start": 58.8567,
      "duration": 0.0124,
      "velocity": 114,
      "chip": "ym2612"
    },
    {
      "channel": 1,
      "note": 53,
      "start": 58.8932,
      "duration": 0.1868,
      "velocity": 81,
      "chip": "ym2612"
    },
    {
      "channel": 4,
      "note": 72,
      "start": 58.8966,
      "duration": 0.0852,
      "velocity": 74,
      "chip": "ym2612"
    },
    {
      "channel": 2,
      "note": 41,
      "start": 58.9024,
      "duration": 0.083,
      "velocity": 122,
      "chip": "ym2612"
    },
    {
      "channel": 4,
      "note": 75,
      "start": 58.9823,
      "duration": 0.0998,
      "velocity": 74,
      "chip": "ym2612"
    },
    {
      "channel": 2,
      "note": 40,
      "start": 58.9881,
      "duration": 0.0069,
      "velocity": 114,
      "chip": "ym2612"
    },
    {
      "channel": 2,
      "note": 40,
      "start": 58.995,
      "duration": 0.0119,
      "velocity": 114,
      "chip": "ym2612"
    },
    {
      "channel": 2,
      "note": 40,
      "start": 59.0069,
      "duration": 0.0129,
      "velocity": 114,
      "chip": "ym2612"
    },
    {
      "channel": 2,
      "note": 40,
      "start": 59.0198,
      "duration": 0.0125,
      "velocity": 114,
      "chip": "ym2612"
    },
    {
      "channel": 2,
      "note": 40,
      "start": 59.0322,
      "duration": 0.013,
      "velocity": 114,
      "chip": "ym2612"
    },
    {
      "channel": 2,
      "note": 40,
      "start": 59.0453,
      "duration": 0.0119,
      "velocity": 114,
      "chip": "ym2612"
    },
    {
      "channel": 2,
      "note": 40,
      "start": 59.0572,
      "duration": 0.0125,
      "velocity": 114,
      "chip": "ym2612"
    },
    {
      "channel": 2,
      "note": 40,
      "start": 59.0697,
      "duration": 0.0148,
      "velocity": 114,
      "chip": "ym2612"
    },
    {
      "channel": 1,
      "note": 53,
      "start": 59.0804,
      "duration": 0.187,
      "velocity": 81,
      "chip": "ym2612"
    },
    {
      "channel": 4,
      "note": 65,
      "start": 59.0825,
      "duration": 0.0858,
      "velocity": 74,
      "chip": "ym2612"
    },
    {
      "channel": 2,
      "note": 40,
      "start": 59.0844,
      "duration": 0.0107,
      "velocity": 114,
      "chip": "ym2612"
    },
    {
      "channel": 2,
      "note": 40,
      "start": 59.0952,
      "duration": 0.012,
      "velocity": 114,
      "chip": "ym2612"
    },
    {
      "channel": 2,
      "note": 39,
      "start": 59.1072,
      "duration": 0.0124,
      "velocity": 114,
      "chip": "ym2612"
    },
    {
      "channel": 2,
      "note": 39,
      "start": 59.1196,
      "duration": 0.0125,
      "velocity": 114,
      "chip": "ym2612"
    },
    {
      "channel": 2,
      "note": 39,
      "start": 59.1322,
      "duration": 0.013,
      "velocity": 114,
      "chip": "ym2612"
    },
    {
      "channel": 4,
      "note": 70,
      "start": 59.1688,
      "duration": 0.1025,
      "velocity": 74,
      "chip": "ym2612"
    },
    {
      "channel": 1,
      "note": 53,
      "start": 59.2678,
      "duration": 0.1871,
      "velocity": 81,
      "chip": "ym2612"
    },
    {
      "channel": 3,
      "note": 72,
      "start": 59.2704,
      "duration": 0.0851,
      "velocity": 113,
      "chip": "ym2612"
    },
    {
      "channel": 4,
      "note": 72,
      "start": 59.2719,
      "duration": 0.0851,
      "velocity": 74,
      "chip": "ym2612"
    },
    {
      "channel": 2,
      "note": 40,
      "start": 59.2752,
      "duration": 0.0069,
      "velocity": 114,
      "chip": "ym2612"
    },
    {
      "channel": 2,
      "note": 40,
      "start": 59.2821,
      "duration": 0.0131,
      "velocity": 114,
      "chip": "ym2612"
    },
    {
      "channel": 2,
      "note": 40,
      "start": 59.2952,
      "duration": 0.0123,
      "velocity": 114,
      "chip": "ym2612"
    },
    {
      "channel": 2,
      "note": 40,
      "start": 59.3075,
      "duration": 0.0121,
      "velocity": 114,
      "chip": "ym2612"
    },
    {
      "channel": 2,
      "note": 40,
      "start": 59.3196,
      "duration": 0.0125,
      "velocity": 114,
      "chip": "ym2612"
    },
    {
      "channel": 2,
      "note": 40,
      "start": 59.3321,
      "duration": 0.0131,
      "velocity": 114,
      "chip": "ym2612"
    },
    {
      "channel": 2,
      "note": 40,
      "start": 59.3452,
      "duration": 0.0142,
      "velocity": 114,
      "chip": "ym2612"
    },
    {
      "channel": 3,
      "note": 70,
      "start": 59.356,
      "duration": 0.1014,
      "velocity": 113,
      "chip": "ym2612"
    },
    {
      "channel": 4,
      "note": 65,
      "start": 59.3574,
      "duration": 0.1015,
      "velocity": 74,
      "chip": "ym2612"
    },
    {
      "channel": 2,
      "note": 40,
      "start": 59.3594,
      "duration": 0.0102,
      "velocity": 114,
      "chip": "ym2612"
    },
    {
      "channel": 2,
      "note": 40,
      "start": 59.3696,
      "duration": 0.0125,
      "velocity": 114,
      "chip": "ym2612"
    },
    {
      "channel": 2,
      "note": 40,
      "start": 59.3821,
      "duration": 0.0131,
      "velocity": 114,
      "chip": "ym2612"
    },
    {
      "channel": 2,
      "note": 39,
      "start": 59.3952,
      "duration": 0.0119,
      "velocity": 114,
      "chip": "ym2612"
    },
    {
      "channel": 2,
      "note": 39,
      "start": 59.4071,
      "duration": 0.0125,
      "velocity": 114,
      "chip": "ym2612"
    },
    {
      "channel": 2,
      "note": 39,
      "start": 59.4196,
      "duration": 0.0125,
      "velocity": 114,
      "chip": "ym2612"
    },
    {
      "channel": 1,
      "note": 65,
      "start": 59.4554,
      "duration": 0.087,
      "velocity": 81,
      "chip": "ym2612"
    },
    {
      "channel": 3,
      "note": 68,
      "start": 59.4579,
      "duration": 0.0866,
      "velocity": 113,
      "chip": "ym2612"
    },
    {
      "channel": 4,
      "note": 68,
      "start": 59.4594,
      "duration": 0.0868,
      "velocity": 74,
      "chip": "ym2612"
    },
    {
      "channel": 2,
      "note": 40,
      "start": 59.4633,
      "duration": 0.0063,
      "velocity": 114,
      "chip": "ym2612"
    },
    {
      "channel": 2,
      "note": 40,
      "start": 59.4696,
      "duration": 0.0125,
      "velocity": 114,
      "chip": "ym2612"
    },
    {
      "channel": 2,
      "note": 40,
      "start": 59.4821,
      "duration": 0.0135,
      "velocity": 114,
      "chip": "ym2612"
    },
    {
      "channel": 2,
      "note": 40,
      "start": 59.4956,
      "duration": 0.0115,
      "velocity": 114,
      "chip": "ym2612"
    },
    {
      "channel": 2,
      "note": 40,
      "start": 59.5071,
      "duration": 0.0125,
      "velocity": 114,
      "chip": "ym2612"
    },
    {
      "channel": 2,
      "note": 40,
      "start": 59.5196,
      "duration": 0.0125,
      "velocity": 114,
      "chip": "ym2612"
    },
    {
      "channel": 2,
      "note": 40,
      "start": 59.5321,
      "duration": 0.0165,
      "velocity": 114,
      "chip": "ym2612"
    },
    {
      "channel": 1,
      "note": 65,
      "start": 59.5429,
      "duration": 0.0996,
      "velocity": 81,
      "chip": "ym2612"
    },
    {
      "channel": 3,
      "note": 70,
      "start": 59.5453,
      "duration": 0.1003,
      "velocity": 113,
      "chip": "ym2612"
    },
    {
      "channel": 4,
      "note": 70,
      "start": 59.5467,
      "duration": 0.1004,
      "velocity": 74,
      "chip": "ym2612"
    },
    {
      "channel": 2,
      "note": 40,
      "start": 59.5486,
      "duration": 0.0085,
      "velocity": 114,
      "chip": "ym2612"
    },
    {
      "channel": 2,
      "note": 40,
      "start": 59.5571,
      "duration": 0.0125,
      "velocity": 114,
      "chip": "ym2612"
    },
    {
      "channel": 2,
      "note": 40,
      "start": 59.5696,
      "duration": 0.0125,
      "velocity": 114,
      "chip": "ym2612"
    },
    {
      "channel": 2,
      "note": 39,
      "start": 59.5821,
      "duration": 0.0131,
      "velocity": 114,
      "chip": "ym2612"
    },
    {
      "channel": 2,
      "note": 39,
      "start": 59.5952,
      "duration": 0.0119,
      "velocity": 114,
      "chip": "ym2612"
    },
    {
      "channel": 2,
      "note": 39,
      "start": 59.6071,
      "duration": 0.0124,
      "velocity": 114,
      "chip": "ym2612"
    },
    {
      "channel": 1,
      "note": 53,
      "start": 59.643,
      "duration": 0.1876,
      "velocity": 81,
      "chip": "ym2612"
    },
    {
      "channel": 3,
      "note": 68,
      "start": 59.6461,
      "duration": 0.0853,
      "velocity": 113,
      "chip": "ym2612"
    },
    {
      "channel": 4,
      "note": 65,
      "start": 59.6475,
      "duration": 0.0852,
      "velocity": 74,
      "chip": "ym2612"
    },
    {
      "channel": 2,
      "note": 41,
      "start": 59.6536,
      "duration": 0.1849,
      "velocity": 122,
      "chip": "ym2612"
    },
    {
      "channel": 3,
      "note": 67,
      "start": 59.7318,
      "duration": 0.1013,
      "velocity": 113,
      "chip": "ym2612"
    },
    {
      "channel": 4,
      "note": 67,
      "start": 59.7332,
      "duration": 0.1013,
      "velocity": 74,
      "chip": "ym2612"
    },
    {
      "channel": 1,
      "note": 65,
      "start": 59.8311,
      "duration": 0.0872,
      "velocity": 81,
      "chip": "ym2612"
    },
    {
      "channel": 3,
      "note": 68,
      "start": 59.8336,
      "duration": 0.0872,
      "velocity": 113,
      "chip": "ym2612"
    },
    {
      "channel": 4,
      "note": 56,
      "start": 59.835,
      "duration": 0.0873,
      "velocity": 74,
      "chip": "ym2612"
    },
    {
      "channel": 2,
      "note": 40,
      "start": 59.8412,
      "duration": 0.005,
      "velocity": 114,
      "chip": "ym2612"
    },
    {
      "channel": 2,
      "note": 40,
      "start": 59.8462,
      "duration": 0.0118,
      "velocity": 114,
      "chip": "ym2612"
    },
    {
      "channel": 2,
      "note": 40,
      "start": 59.858,
      "duration": 0.0129,
      "velocity": 114,
      "chip": "ym2612"
    },
    {
      "channel": 2,
      "note": 40,
      "start": 59.8709,
      "duration": 0.0121,
      "velocity": 114,
      "chip": "ym2612"
    },
    {
      "channel": 2,
      "note": 40,
      "start": 59.883,
      "duration": 0.013,
      "velocity": 114,
      "chip": "ym2612"
    },
    {
      "channel": 2,
      "note": 40,
      "start": 59.8961,
      "duration": 0.0119,
      "velocity": 114,
      "chip": "ym2612"
    },
    {
      "channel": 2,
      "note": 40,
      "start": 59.908,
      "duration": 0.0165,
      "velocity": 114,
      "chip": "ym2612"
    },
    {
      "channel": 1,
      "note": 65,
      "start": 59.9188,
      "duration": 0.0999,
      "velocity": 81,
      "chip": "ym2612"
    },
    {
      "channel": 3,
      "note": 67,
      "start": 59.9213,
      "duration": 0.1001,
      "velocity": 113,
      "chip": "ym2612"
    },
    {
      "channel": 4,
      "note": 63,
      "start": 59.9227,
      "duration": 0.1004,
      "velocity": 74,
      "chip": "ym2612"
    },
    {
      "channel": 2,
      "note": 40,
      "start": 59.934,
      "duration": 0.0121,
      "velocity": 114,
      "chip": "ym2612"
    },
    {
      "channel": 2,
      "note": 40,
      "start": 59.9461,
      "duration": 0.0118,
      "velocity": 114,
      "chip": "ym2612"
    },
    {
      "channel": 2,
      "note": 40,
      "start": 59.9579,
      "duration": 0.0129,
      "velocity": 114,
      "chip": "ym2612"
    },
    {
      "channel": 2,
      "note": 40,
      "start": 59.9708,
      "duration": 0.0121,
      "velocity": 114,
      "chip": "ym2612"
    },
    {
      "channel": 2,
      "note": 40,
      "start": 59.9829,
      "duration": 0.0131,
      "velocity": 114,
      "chip": "ym2612"
    },
    {
      "channel": 2,
      "note": 40,
      "start": 59.996,
      "duration": 0.0118,
      "velocity": 114,
      "chip": "ym2612"
    },
    {
      "channel": 2,
      "note": 40,
      "start": 60.0078,
      "duration": 0.0176,
      "velocity": 114,
      "chip": "ym2612"
    },
    {
      "channel": 1,
      "note": 53,
      "start": 60.0191,
      "duration": 0.1859,
      "velocity": 81,
      "chip": "ym2612"
    },
    {
      "channel": 3,
      "note": 65,
      "start": 60.0219,
      "duration": 0.2712,
      "velocity": 113,
      "chip": "ym2612"
    },
    {
      "channel": 4,
      "note": 65,
      "start": 60.0236,
      "duration": 0.0825,
      "velocity": 74,
      "chip": "ym2612"
    },
    {
      "channel": 2,
      "note": 40,
      "start": 60.0335,
      "duration": 0.0121,
      "velocity": 114,
      "chip": "ym2612"
    },
    {
      "channel": 2,
      "note": 40,
      "start": 60.0456,
      "duration": 0.0119,
      "velocity": 114,
      "chip": "ym2612"
    },
    {
      "channel": 2,
      "note": 40,
      "start": 60.0575,
      "duration": 0.0128,
      "velocity": 114,
      "chip": "ym2612"
    },
    {
      "channel": 2,
      "note": 40,
      "start": 60.0703,
      "duration": 0.0122,
      "velocity": 114,
      "chip": "ym2612"
    },
    {
      "channel": 2,
      "note": 40,
      "start": 60.0825,
      "duration": 0.013,
      "velocity": 114,
      "chip": "ym2612"
    },
    {
      "channel": 2,
      "note": 40,
      "start": 60.0955,
      "duration": 0.013,
      "velocity": 114,
      "chip": "ym2612"
    },
    {
      "channel": 4,
      "note": 75,
      "start": 60.1066,
      "duration": 0.1013,
      "velocity": 74,
      "chip": "ym2612"
    },
    {
      "channel": 2,
      "note": 40,
      "start": 60.1085,
      "duration": 0.0113,
      "velocity": 114,
      "chip": "ym2612"
    },
    {
      "channel": 2,
      "note": 40,
      "start": 60.1199,
      "duration": 0.0125,
      "velocity": 114,
      "chip": "ym2612"
    },
    {
      "channel": 2,
      "note": 40,
      "start": 60.1324,
      "duration": 0.0131,
      "velocity": 114,
      "chip": "ym2612"
    },
    {
      "channel": 2,
      "note": 40,
      "start": 60.1454,
      "duration": 0.0124,
      "velocity": 114,
      "chip": "ym2612"
    },
    {
      "channel": 2,
      "note": 39,
      "start": 60.1578,
      "duration": 0.0116,
      "velocity": 114,
      "chip": "ym2612"
    },
    {
      "channel": 2,
      "note": 39,
      "start": 60.1694,
      "duration": 0.0125,
      "velocity": 114,
      "chip": "ym2612"
    },
    {
      "channel": 2,
      "note": 39,
      "start": 60.182,
      "duration": 0.013,
      "velocity": 114,
      "chip": "ym2612"
    },
    {
      "channel": 1,
      "note": 53,
      "start": 60.2056,
      "duration": 0.1872,
      "velocity": 81,
      "chip": "ym2612"
    },
    {
      "channel": 4,
      "note": 77,
      "start": 60.2084,
      "duration": 0.0867,
      "velocity": 74,
      "chip": "ym2612"
    },
    {
      "channel": 2,
      "note": 40,
      "start": 60.212,
      "duration": 0.0074,
      "velocity": 114,
      "chip": "ym2612"
    },
    {
      "channel": 2,
      "note": 40,
      "start": 60.2194,
      "duration": 0.0125,
      "velocity": 114,
      "chip": "ym2612"
    },
    {
      "channel": 2,
      "note": 40,
      "start": 60.2319,
      "duration": 0.0134,
      "velocity": 114,
      "chip": "ym2612"
    },
    {
      "channel": 2,
      "note": 40,
      "start": 60.2453,
      "duration": 0.0115,
      "velocity": 114,
      "chip": "ym2612"
    },
    {
      "channel": 2,
      "note": 40,
      "start": 60.2568,
      "duration": 0.0124,
      "velocity": 114,
      "chip": "ym2612"
    },
    {
      "channel": 2,
      "note": 40,
      "start": 60.2693,
      "duration": 0.0125,
      "velocity": 114,
      "chip": "ym2612"
    },
    {
      "channel": 2,
      "note": 40,
      "start": 60.2818,
      "duration": 0.0153,
      "velocity": 114,
      "chip": "ym2612"
    },
    {
      "channel": 3,
      "note": 72,
      "start": 60.2935,
      "duration": 0.2882,
      "velocity": 113,
      "chip": "ym2612"
    },
    {
      "channel": 4,
      "note": 65,
      "start": 60.2956,
      "duration": 0.1006,
      "velocity": 74,
      "chip": "ym2612"
    },
    {
      "channel": 2,
      "note": 40,
      "start": 60.2972,
      "duration": 0.0096,
      "velocity": 114,
      "chip": "ym2612"
    },
    {
      "channel": 2,
      "note": 40,
      "start": 60.3068,
      "duration": 0.0125,
      "velocity": 114,
      "chip": "ym2612"
    },
    {
      "channel": 2,
      "note": 40,
      "start": 60.3193,
      "duration": 0.0125,
      "velocity": 114,
      "chip": "ym2612"
    },
    {
      "channel": 2,
      "note": 39,
      "start": 60.3318,
      "duration": 0.013,
      "velocity": 114,
      "chip": "ym2612"
    },
    {
      "channel": 2,
      "note": 39,
      "start": 60.3448,
      "duration": 0.0119,
      "velocity": 114,
      "chip": "ym2612"
    },
    {
      "channel": 2,
      "note": 39,
      "start": 60.3567,
      "duration": 0.0124,
      "velocity": 114,
      "chip": "ym2612"
    },
    {
      "channel": 1,
      "note": 53,
      "start": 60.3932,
      "duration": 0.1868,
      "velocity": 81,
      "chip": "ym2612"
    },
    {
      "channel": 4,
      "note": 72,
      "start": 60.3966,
      "duration": 0.0852,
      "velocity": 74,
      "chip": "ym2612"
    },
    {
      "channel": 2,
      "note": 41,
      "start": 60.4024,
      "duration": 0.083,
      "velocity": 122,
      "chip": "ym2612"
    },
    {
      "channel": 4,
      "note": 75,
      "start": 60.4823,
      "duration": 0.1008,
      "velocity": 74,
      "chip": "ym2612"
    },
    {
      "channel": 2,
      "note": 40,
      "start": 60.4881,
      "duration": 0.0069,
      "velocity": 114,
      "chip": "ym2612"
    },
    {
      "channel": 2,
      "note": 40,
      "start": 60.495,
      "duration": 0.0119,
      "velocity": 114,
      "chip": "ym2612"
    },
    {
      "channel": 2,
      "note": 40,
      "start": 60.5069,
      "duration": 0.0129,
      "velocity": 114,
      "chip": "ym2612"
    },
    {
      "channel": 2,
      "note": 40,
      "start": 60.5198,
      "duration": 0.0125,
      "velocity": 114,
      "chip": "ym2612"
    },
    {
      "channel": 2,
      "note": 40,
      "start": 60.5322,
      "duration": 0.013,
      "velocity": 114,
      "chip": "ym2612"
    },
    {
      "channel": 2,
      "note": 40,
      "start": 60.5453,
      "duration": 0.0119,
      "velocity": 114,
      "chip": "ym2612"
    },
    {
      "channel": 2,
      "note": 40,
      "start": 60.5572,
      "duration": 0.0125,
      "velocity": 114,
      "chip": "ym2612"
    },
    {
      "channel": 2,
      "note": 40,
      "start": 60.5697,
      "duration": 0.0159,
      "velocity": 114,
      "chip": "ym2612"
    },
    {
      "channel": 1,
      "note": 53,
      "start": 60.5804,
      "duration": 0.187,
      "velocity": 81,
      "chip": "ym2612"
    },
    {
      "channel": 3,
      "note": 77,
      "start": 60.5822,
      "duration": 0.2745,
      "velocity": 113,
      "chip": "ym2612"
    },
    {
      "channel": 4,
      "note": 65,
      "start": 60.5836,
      "duration": 0.0847,
      "velocity": 74,
      "chip": "ym2612"
    },
    {
      "channel": 2,
      "note": 40,
      "start": 60.5855,
      "duration": 0.0097,
      "velocity": 114,
      "chip": "ym2612"
    },
    {
      "channel": 2,
      "note": 40,
      "start": 60.5952,
      "duration": 0.0119,
      "velocity": 114,
      "chip": "ym2612"
    },
    {
      "channel": 2,
      "note": 39,
      "start": 60.6071,
      "duration": 0.0125,
      "velocity": 114,
      "chip": "ym2612"
    },
    {
      "channel": 2,
      "note": 39,
      "start": 60.6196,
      "duration": 0.0125,
      "velocity": 114,
      "chip": "ym2612"
    },
    {
      "channel": 2,
      "note": 39,
      "start": 60.6321,
      "duration": 0.013,
      "velocity": 114,
      "chip": "ym2612"
    },
    {
      "channel": 4,
      "note": 70,
      "start": 60.6688,
      "duration": 0.1014,
      "velocity": 74,
      "chip": "ym2612"
    },
    {
      "channel": 1,
      "note": 53,
      "start": 60.7678,
      "duration": 0.087,
      "velocity": 81,
      "chip": "ym2612"
    },
    {
      "channel": 4,
      "note": 72,
      "start": 60.7707,
      "duration": 0.0873,
      "velocity": 74,
      "chip": "ym2612"
    },
    {
      "channel": 2,
      "note": 40,
      "start": 60.774,
      "duration": 0.0081,
      "velocity": 114,
      "chip": "ym2612"
    },
    {
      "channel": 2,
      "note": 40,
      "start": 60.7821,
      "duration": 0.0131,
      "velocity": 114,
      "chip": "ym2612"
    },
    {
      "channel": 2,
      "note": 40,
      "start": 60.7952,
      "duration": 0.0123,
      "velocity": 114,
      "chip": "ym2612"
    },
    {
      "channel": 2,
      "note": 40,
      "start": 60.8075,
      "duration": 0.0121,
      "velocity": 114,
      "chip": "ym2612"
    },
    {
      "channel": 2,
      "note": 40,
      "start": 60.8196,
      "duration": 0.0125,
      "velocity": 114,
      "chip": "ym2612"
    },
    {
      "channel": 2,
      "note": 40,
      "start": 60.8321,
      "duration": 0.0131,
      "velocity": 114,
      "chip": "ym2612"
    },
    {
      "channel": 2,
      "note": 40,
      "start": 60.8452,
      "duration": 0.0153,
      "velocity": 114,
      "chip": "ym2612"
    },
    {
      "channel": 1,
      "note": 65,
      "start": 60.8554,
      "duration": 0.0995,
      "velocity": 81,
      "chip": "ym2612"
    },
    {
      "channel": 3,
      "note": 84,
      "start": 60.8571,
      "duration": 0.2885,
      "velocity": 113,
      "chip": "ym2612"
    },
    {
      "channel": 4,
      "note": 65,
      "start": 60.8585,
      "duration": 0.0992,
      "velocity": 74,
      "chip": "ym2612"
    },
    {
      "channel": 2,
      "note": 40,
      "start": 60.8605,
      "duration": 0.0091,
      "velocity": 114,
      "chip": "ym2612"
    },
    {
      "channel": 2,
      "note": 40,
      "start": 60.8696,
      "duration": 0.0125,
      "velocity": 114,
      "chip": "ym2612"
    },
    {
      "channel": 2,
      "note": 40,
      "start": 60.8821,
      "duration": 0.0131,
      "velocity": 114,
      "chip": "ym2612"
    },
    {
      "channel": 2,
      "note": 39,
      "start": 60.8952,
      "duration": 0.0119,
      "velocity": 114,
      "chip": "ym2612"
    },
    {
      "channel": 2,
      "note": 39,
      "start": 60.9071,
      "duration": 0.0125,
      "velocity": 114,
      "chip": "ym2612"
    },
    {
      "channel": 2,
      "note": 39,
      "start": 60.9196,
      "duration": 0.0125,
      "velocity": 114,
      "chip": "ym2612"
    },
    {
      "channel": 1,
      "note": 55,
      "start": 60.9554,
      "duration": 0.087,
      "velocity": 81,
      "chip": "ym2612"
    },
    {
      "channel": 4,
      "note": 68,
      "start": 60.9582,
      "duration": 0.0868,
      "velocity": 74,
      "chip": "ym2612"
    },
    {
      "channel": 2,
      "note": 40,
      "start": 60.9621,
      "duration": 0.0075,
      "velocity": 114,
      "chip": "ym2612"
    },
    {
      "channel": 2,
      "note": 40,
      "start": 60.9696,
      "duration": 0.0125,
      "velocity": 114,
      "chip": "ym2612"
    },
    {
      "channel": 2,
      "note": 40,
      "start": 60.9821,
      "duration": 0.0135,
      "velocity": 114,
      "chip": "ym2612"
    },
    {
      "channel": 2,
      "note": 40,
      "start": 60.9956,
      "duration": 0.0115,
      "velocity": 114,
      "chip": "ym2612"
    },
    {
      "channel": 2,
      "note": 40,
      "start": 61.0071,
      "duration": 0.0125,
      "velocity": 114,
      "chip": "ym2612"
    },
    {
      "channel": 2,
      "note": 40,
      "start": 61.0196,
      "duration": 0.0125,
      "velocity": 114,
      "chip": "ym2612"
    },
    {
      "channel": 2,
      "note": 40,
      "start": 61.0321,
      "duration": 0.0154,
      "velocity": 114,
      "chip": "ym2612"
    },
    {
      "channel": 1,
      "note": 67,
      "start": 61.0429,
      "duration": 0.0996,
      "velocity": 81,
      "chip": "ym2612"
    },
    {
      "channel": 4,
      "note": 70,
      "start": 61.0455,
      "duration": 0.1015,
      "velocity": 74,
      "chip": "ym2612"
    },
    {
      "channel": 2,
      "note": 40,
      "start": 61.0475,
      "duration": 0.0096,
      "velocity": 114,
      "chip": "ym2612"
    },
    {
      "channel": 2,
      "note": 40,
      "start": 61.0571,
      "duration": 0.0125,
      "velocity": 114,
      "chip": "ym2612"
    },
    {
      "channel": 2,
      "note": 40,
      "start": 61.0696,
      "duration": 0.0125,
      "velocity": 114,
      "chip": "ym2612"
    },
    {
      "channel": 2,
      "note": 39,
      "start": 61.0821,
      "duration": 0.0131,
      "velocity": 114,
      "chip": "ym2612"
    },
    {
      "channel": 2,
      "note": 39,
      "start": 61.0952,
      "duration": 0.0119,
      "velocity": 114,
      "chip": "ym2612"
    },
    {
      "channel": 2,
      "note": 39,
      "start": 61.1071,
      "duration": 0.0124,
      "velocity": 114,
      "chip": "ym2612"
    },
    {
      "channel": 1,
      "note": 56,
      "start": 61.1429,
      "duration": 0.0878,
      "velocity": 81,
      "chip": "ym2612"
    },
    {
      "channel": 3,
      "note": 77,
      "start": 61.1461,
      "duration": 0.1871,
      "velocity": 113,
      "chip": "ym2612"
    },
    {
      "channel": 4,
      "note": 65,
      "start": 61.1476,
      "duration": 0.086,
      "velocity": 74,
      "chip": "ym2612"
    },
    {
      "channel": 2,
      "note": 41,
      "start": 61.1537,
      "duration": 0.0832,
      "velocity": 122,
      "chip": "ym2612"
    },
    {
      "channel": 1,
      "note": 68,
      "start": 61.2312,
      "duration": 0.0994,
      "velocity": 81,
      "chip": "ym2612"
    },
    {
      "channel": 4,
      "note": 67,
      "start": 61.2341,
      "duration": 0.1005,
      "velocity": 74,
      "chip": "ym2612"
    },
    {
      "channel": 2,
      "note": 41,
      "start": 61.2373,
      "duration": 0.1005,
      "velocity": 122,
      "chip": "ym2612"
    },
    {
      "channel": 1,
      "note": 55,
      "start": 61.3311,
      "duration": 0.0869,
      "velocity": 81,
      "chip": "ym2612"
    },
    {
      "channel": 3,
      "note": 72,
      "start": 61.3336,
      "duration": 0.1875,
      "velocity": 113,
      "chip": "ym2612"
    },
    {
      "channel": 4,
      "note": 56,
      "start": 61.3351,
      "duration": 0.0858,
      "velocity": 74,
      "chip": "ym2612"
    },
    {
      "channel": 2,
      "note": 41,
      "start": 61.3383,
      "duration": 0.0858,
      "velocity": 122,
      "chip": "ym2612"
    },
    {
      "channel": 1,
      "note": 67,
      "start": 61.4185,
      "duration": 0.0998,
      "velocity": 81,
      "chip": "ym2612"
    },
    {
      "channel": 4,
      "note": 63,
      "start": 61.4213,
      "duration": 0.1015,
      "velocity": 74,
      "chip": "ym2612"
    },
    {
      "channel": 2,
      "note": 41,
      "start": 61.4245,
      "duration": 0.1023,
      "velocity": 122,
      "chip": "ym2612"
    },
    {
      "channel": 1,
      "note": 53,
      "start": 61.5188,
      "duration": 0.1879,
      "velocity": 81,
      "chip": "ym2612"
    },
    {
      "channel": 3,
      "note": 84,
      "start": 61.5217,
      "duration": 0.0111,
      "velocity": 113,
      "chip": "ym2612"
    },
    {
      "channel": 4,
      "note": 65,
      "start": 61.5233,
      "duration": 0.0852,
      "velocity": 74,
      "chip": "ym2612"
    },
    {
      "channel": 2,
      "note": 40,
      "start": 61.5301,
      "duration": 0.0049,
      "velocity": 114,
      "chip": "ym2612"
    },
    {
      "channel": 3,
      "note": 84,
      "start": 61.5327,
      "duration": 0.013,
      "velocity": 113,
      "chip": "ym2612"
    },
    {
      "channel": 2,
      "note": 40,
      "start": 61.535,
      "duration": 0.013,
      "velocity": 114,
      "chip": "ym2612"
    },
    {
      "channel": 3,
      "note": 84,
      "start": 61.5458,
      "duration": 0.0119,
      "velocity": 113,
      "chip": "ym2612"
    },
    {
      "channel": 2,
      "note": 40,
      "start": 61.548,
      "duration": 0.0123,
      "velocity": 114,
      "chip": "ym2612"
    },
    {
      "channel": 3,
      "note": 84,
      "start": 61.5577,
      "duration": 0.0125,
      "velocity": 113,
      "chip": "ym2612"
    },
    {
      "channel": 2,
      "note": 40,
      "start": 61.5603,
      "duration": 0.0121,
      "velocity": 114,
      "chip": "ym2612"
    },
    {
      "channel": 3,
      "note": 84,
      "start": 61.5701,
      "duration": 0.0125,
      "velocity": 113,
      "chip": "ym2612"
    },
    {
      "channel": 2,
      "note": 40,
      "start": 61.5724,
      "duration": 0.0125,
      "velocity": 114,
      "chip": "ym2612"
    },
    {
      "channel": 3,
      "note": 84,
      "start": 61.5827,
      "duration": 0.013,
      "velocity": 113,
      "chip": "ym2612"
    },
    {
      "channel": 2,
      "note": 40,
      "start": 61.5849,
      "duration": 0.013,
      "velocity": 114,
      "chip": "ym2612"
    },
    {
      "channel": 3,
      "note": 84,
      "start": 61.5957,
      "duration": 0.0119,
      "velocity": 113,
      "chip": "ym2612"
    },
    {
      "channel": 2,
      "note": 40,
      "start": 61.5979,
      "duration": 0.0136,
      "velocity": 114,
      "chip": "ym2612"
    },
    {
      "channel": 3,
      "note": 84,
      "start": 61.6076,
      "duration": 0.0125,
      "velocity": 113,
      "chip": "ym2612"
    },
    {
      "channel": 4,
      "note": 75,
      "start": 61.6091,
      "duration": 0.1013,
      "velocity": 74,
      "chip": "ym2612"
    },
    {
      "channel": 2,
      "note": 40,
      "start": 61.6115,
      "duration": 0.0107,
      "velocity": 114,
      "chip": "ym2612"
    },
    {
      "channel": 3,
      "note": 84,
      "start": 61.6201,
      "duration": 0.0125,
      "velocity": 113,
      "chip": "ym2612"
    },
    {
      "channel": 2,
      "note": 40,
      "start": 61.6223,
      "duration": 0.0125,
      "velocity": 114,
      "chip": "ym2612"
    },
    {
      "channel": 3,
      "note": 84,
      "start": 61.6326,
      "duration": 0.013,
      "velocity": 113,
      "chip": "ym2612"
    },
    {
      "channel": 2,
      "note": 40,
      "start": 61.6348,
      "duration": 0.013,
      "velocity": 114,
      "chip": "ym2612"
    },
    {
      "channel": 3,
      "note": 84,
      "start": 61.6456,
      "duration": 0.0119,
      "velocity": 113,
      "chip": "ym2612"
    },
    {
      "channel": 2,
      "note": 39,
      "start": 61.6479,
      "duration": 0.0122,
      "velocity": 114,
      "chip": "ym2612"
    },
    {
      "channel": 3,
      "note": 84,
      "start": 61.6575,
      "duration": 0.0125,
      "velocity": 113,
      "chip": "ym2612"
    },
    {
      "channel": 2,
      "note": 39,
      "start": 61.66,
      "duration": 0.0119,
      "velocity": 114,
      "chip": "ym2612"
    },
    {
      "channel": 3,
      "note": 84,
      "start": 61.67,
      "duration": 0.0125,
      "velocity": 113,
      "chip": "ym2612"
    },
    {
      "channel": 2,
      "note": 39,
      "start": 61.6719,
      "duration": 0.0124,
      "velocity": 114,
      "chip": "ym2612"
    },
    {
      "channel": 3,
      "note": 84,
      "start": 61.6825,
      "duration": 0.0131,
      "velocity": 113,
      "chip": "ym2612"
    },
    {
      "channel": 3,
      "note": 84,
      "start": 61.6956,
      "duration": 0.0138,
      "velocity": 113,
      "chip": "ym2612"
    },
    {
      "channel": 1,
      "note": 53,
      "start": 61.7072,
      "duration": 0.1877,
      "velocity": 81,
      "chip": "ym2612"
    },
    {
      "channel": 3,
      "note": 84,
      "start": 61.7094,
      "duration": 0.0105,
      "velocity": 113,
      "chip": "ym2612"
    },
    {
      "channel": 4,
      "note": 77,
      "start": 61.7112,
      "duration": 0.0853,
      "velocity": 74,
      "chip": "ym2612"
    },
    {
      "channel": 2,
      "note": 40,
      "start": 61.7144,
      "duration": 0.0075,
      "velocity": 114,
      "chip": "ym2612"
    },
    {
      "channel": 3,
      "note": 84,
      "start": 61.7199,
      "duration": 0.0125,
      "velocity": 113,
      "chip": "ym2612"
    },
    {
      "channel": 2,
      "note": 40,
      "start": 61.7219,
      "duration": 0.0125,
      "velocity": 114,
      "chip": "ym2612"
    },
    {
      "channel": 3,
      "note": 84,
      "start": 61.7324,
      "duration": 0.0131,
      "velocity": 113,
      "chip": "ym2612"
    },
    {
      "channel": 2,
      "note": 40,
      "start": 61.7343,
      "duration": 0.0134,
      "velocity": 114,
      "chip": "ym2612"
    },
    {
      "channel": 3,
      "note": 84,
      "start": 61.7455,
      "duration": 0.0119,
      "velocity": 113,
      "chip": "ym2612"
    },
    {
      "channel": 2,
      "note": 40,
      "start": 61.7477,
      "duration": 0.0115,
      "velocity": 114,
      "chip": "ym2612"
    },
    {
      "channel": 3,
      "note": 84,
      "start": 61.7574,
      "duration": 0.0125,
      "velocity": 113,
      "chip": "ym2612"
    },
    {
      "channel": 2,
      "note": 40,
      "start": 61.7593,
      "duration": 0.0125,
      "velocity": 114,
      "chip": "ym2612"
    },
    {
      "channel": 3,
      "note": 84,
      "start": 61.7699,
      "duration": 0.0125,
      "velocity": 113,
      "chip": "ym2612"
    },
    {
      "channel": 2,
      "note": 40,
      "start": 61.7718,
      "duration": 0.0125,
      "velocity": 114,
      "chip": "ym2612"
    },
    {
      "channel": 3,
      "note": 84,
      "start": 61.7824,
      "duration": 0.0131,
      "velocity": 113,
      "chip": "ym2612"
    },
    {
      "channel": 2,
      "note": 40,
      "start": 61.7843,
      "duration": 0.0142,
      "velocity": 114,
      "chip": "ym2612"
    },
    {
      "channel": 3,
      "note": 84,
      "start": 61.7954,
      "duration": 0.0119,
      "velocity": 113,
      "chip": "ym2612"
    },
    {
      "channel": 4,
      "note": 65,
      "start": 61.7969,
      "duration": 0.1017,
      "velocity": 74,
      "chip": "ym2612"
    },
    {
      "channel": 2,
      "note": 40,
      "start": 61.7984,
      "duration": 0.0107,
      "velocity": 114,
      "chip": "ym2612"
    },
    {
      "channel": 3,
      "note": 84,
      "start": 61.8073,
      "duration": 0.0125,
      "velocity": 113,
      "chip": "ym2612"
    },
    {
      "channel": 2,
      "note": 40,
      "start": 61.8092,
      "duration": 0.0125,
      "velocity": 114,
      "chip": "ym2612"
    },
    {
      "channel": 3,
      "note": 84,
      "start": 61.8198,
      "duration": 0.0125,
      "velocity": 113,
      "chip": "ym2612"
    },
    {
      "channel": 2,
      "note": 40,
      "start": 61.8217,
      "duration": 0.0125,
      "velocity": 114,
      "chip": "ym2612"
    },
    {
      "channel": 3,
      "note": 84,
      "start": 61.8323,
      "duration": 0.0131,
      "velocity": 113,
      "chip": "ym2612"
    },
    {
      "channel": 2,
      "note": 39,
      "start": 61.8342,
      "duration": 0.013,
      "velocity": 114,
      "chip": "ym2612"
    },
    {
      "channel": 3,
      "note": 84,
      "start": 61.8454,
      "duration": 0.0119,
      "velocity": 113,
      "chip": "ym2612"
    },
    {
      "channel": 2,
      "note": 39,
      "start": 61.8472,
      "duration": 0.0119,
      "velocity": 114,
      "chip": "ym2612"
    },
    {
      "channel": 3,
      "note": 84,
      "start": 61.8573,
      "duration": 0.0125,
      "velocity": 113,
      "chip": "ym2612"
    },
    {
      "channel": 2,
      "note": 39,
      "start": 61.8591,
      "duration": 0.0124,
      "velocity": 114,
      "chip": "ym2612"
    },
    {
      "channel": 3,
      "note": 84,
      "start": 61.8698,
      "duration": 0.0125,
      "velocity": 113,
      "chip": "ym2612"
    },
    {
      "channel": 3,
      "note": 84,
      "start": 61.8822,
      "duration": 0.0154,
      "velocity": 113,
      "chip": "ym2612"
    },
    {
      "channel": 1,
      "note": 53,
      "start": 61.8954,
      "duration": 0.1864,
      "velocity": 81,
      "chip": "ym2612"
    },
    {
      "channel": 3,
      "note": 84,
      "start": 61.8976,
      "duration": 0.0101,
      "velocity": 113,
      "chip": "ym2612"
    },
    {
      "channel": 4,
      "note": 72,
      "start": 61.8991,
      "duration": 0.0853,
      "velocity": 74,
      "chip": "ym2612"
    },
    {
      "channel": 2,
      "note": 41,
      "start": 61.9048,
      "duration": 0.0831,
      "velocity": 122,
      "chip": "ym2612"
    },
    {
      "channel": 3,
      "note": 84,
      "start": 61.9077,
      "duration": 0.0125,
      "velocity": 113,
      "chip": "ym2612"
    },
    {
      "channel": 3,
      "note": 84,
      "start": 61.9203,
      "duration": 0.0124,
      "velocity": 113,
      "chip": "ym2612"
    },
    {
      "channel": 3,
      "note": 84,
      "start": 61.9327,
      "duration": 0.0131,
      "velocity": 113,
      "chip": "ym2612"
    },
    {
      "channel": 3,
      "note": 84,
      "start": 61.9458,
      "duration": 0.0118,
      "velocity": 113,
      "chip": "ym2612"
    },
    {
      "channel": 3,
      "note": 84,
      "start": 61.9577,
      "duration": 0.0125,
      "velocity": 113,
      "chip": "ym2612"
    },
    {
      "channel": 3,
      "note": 84,
      "start": 61.9702,
      "duration": 0.0132,
      "velocity": 113,
      "chip": "ym2612"
    },
    {
      "channel": 3,
      "note": 84,
      "start": 61.9834,
      "duration": 0.0123,
      "velocity": 113,
      "chip": "ym2612"
    },
    {
      "channel": 4,
      "note": 75,
      "start": 61.9849,
      "duration": 0.0998,
      "velocity": 74,
      "chip": "ym2612"
    },
    {
      "channel": 2,
      "note": 40,
      "start": 61.9907,
      "duration": 0.0069,
      "velocity": 114,
      "chip": "ym2612"
    },
    {
      "channel": 3,
      "note": 84,
      "start": 61.9957,
      "duration": 0.0119,
      "velocity": 113,
      "chip": "ym2612"
    },
    {
      "channel": 2,
      "note": 40,
      "start": 61.9976,
      "duration": 0.0119,
      "velocity": 114,
      "chip": "ym2612"
    },
    {
      "channel": 3,
      "note": 84,
      "start": 62.0076,
      "duration": 0.0125,
      "velocity": 113,
      "chip": "ym2612"
    },
    {
      "channel": 2,
      "note": 40,
      "start": 62.0095,
      "duration": 0.0129,
      "velocity": 114,
      "chip": "ym2612"
    },
    {
      "channel": 3,
      "note": 84,
      "start": 62.0201,
      "duration": 0.0125,
      "velocity": 113,
      "chip": "ym2612"
    },
    {
      "channel": 2,
      "note": 40,
      "start": 62.0224,
      "duration": 0.0125,
      "velocity": 114,
      "chip": "ym2612"
    },
    {
      "channel": 3,
      "note": 84,
      "start": 62.0326,
      "duration": 0.013,
      "velocity": 113,
      "chip": "ym2612"
    },
    {
      "channel": 2,
      "note": 40,
      "start": 62.0348,
      "duration": 0.013,
      "velocity": 114,
      "chip": "ym2612"
    },
    {
      "channel": 3,
      "note": 84,
      "start": 62.0456,
      "duration": 0.0119,
      "velocity": 113,
      "chip": "ym2612"
    },
    {
      "channel": 2,
      "note": 40,
      "start": 62.0479,
      "duration": 0.0119,
      "velocity": 114,
      "chip": "ym2612"
    },
    {
      "channel": 3,
      "note": 84,
      "start": 62.0575,
      "duration": 0.0125,
      "velocity": 113,
      "chip": "ym2612"
    },
    {
      "channel": 2,
      "note": 40,
      "start": 62.0598,
      "duration": 0.0125,
      "velocity": 114,
      "chip": "ym2612"
    },
    {
      "channel": 3,
      "note": 84,
      "start": 62.0701,
      "duration": 0.0136,
      "velocity": 113,
      "chip": "ym2612"
    },
    {
      "channel": 2,
      "note": 40,
      "start": 62.0723,
      "duration": 0.0148,
      "velocity": 114,
      "chip": "ym2612"
    },
    {
      "channel": 1,
      "note": 53,
      "start": 62.0822,
      "duration": 0.1868,
      "velocity": 81,
      "chip": "ym2612"
    },
    {
      "channel": 3,
      "note": 84,
      "start": 62.0837,
      "duration": 0.0119,
      "velocity": 113,
      "chip": "ym2612"
    },
    {
      "channel": 4,
      "note": 65,
      "start": 62.0851,
      "duration": 0.0858,
      "velocity": 74,
      "chip": "ym2612"
    },
    {
      "channel": 2,
      "note": 40,
      "start": 62.0871,
      "duration": 0.0107,
      "velocity": 114,
      "chip": "ym2612"
    },
    {
      "channel": 3,
      "note": 84,
      "start": 62.0956,
      "duration": 0.0119,
      "velocity": 113,
      "chip": "ym2612"
    },
    {
      "channel": 2,
      "note": 40,
      "start": 62.0978,
      "duration": 0.0119,
      "velocity": 114,
      "chip": "ym2612"
    },
    {
      "channel": 3,
      "note": 84,
      "start": 62.1075,
      "duration": 0.0125,
      "velocity": 113,
      "chip": "ym2612"
    },
    {
      "channel": 2,
      "note": 39,
      "start": 62.1097,
      "duration": 0.0125,
      "velocity": 114,
      "chip": "ym2612"
    },
    {
      "channel": 3,
      "note": 84,
      "start": 62.12,
      "duration": 0.0125,
      "velocity": 113,
      "chip": "ym2612"
    },
    {
      "channel": 2,
      "note": 39,
      "start": 62.1222,
      "duration": 0.0125,
      "velocity": 114,
      "chip": "ym2612"
    },
    {
      "channel": 3,
      "note": 84,
      "start": 62.1325,
      "duration": 0.013,
      "velocity": 113,
      "chip": "ym2612"
    },
    {
      "channel": 2,
      "note": 39,
      "start": 62.1347,
      "duration": 0.013,
      "velocity": 114,
      "chip": "ym2612"
    },
    {
      "channel": 3,
      "note": 84,
      "start": 62.1455,
      "duration": 0.0119,
      "velocity": 113,
      "chip": "ym2612"
    },
    {
      "channel": 3,
      "note": 84,
      "start": 62.1574,
      "duration": 0.0125,
      "velocity": 113,
      "chip": "ym2612"
    },
    {
      "channel": 3,
      "note": 84,
      "start": 62.1699,
      "duration": 0.0125,
      "velocity": 113,
      "chip": "ym2612"
    },
    {
      "channel": 4,
      "note": 70,
      "start": 62.1713,
      "duration": 0.1013,
      "velocity": 74,
      "chip": "ym2612"
    },
    {
      "channel": 3,
      "note": 84,
      "start": 62.1824,
      "duration": 0.013,
      "velocity": 113,
      "chip": "ym2612"
    },
    {
      "channel": 3,
      "note": 84,
      "start": 62.1954,
      "duration": 0.0119,
      "velocity": 113,
      "chip": "ym2612"
    },
    {
      "channel": 3,
      "note": 84,
      "start": 62.2073,
      "duration": 0.0125,
      "velocity": 113,
      "chip": "ym2612"
    },
    {
      "channel": 3,
      "note": 84,
      "start": 62.2198,
      "duration": 0.0125,
      "velocity": 113,
      "chip": "ym2612"
    },
    {
      "channel": 3,
      "note": 84,
      "start": 62.2324,
      "duration": 0.013,
      "velocity": 113,
      "chip": "ym2612"
    },
    {
      "channel": 3,
      "note": 84,
      "start": 62.2454,
      "duration": 0.0119,
      "velocity": 113,
      "chip": "ym2612"
    },
    {
      "channel": 3,
      "note": 84,
      "start": 62.2573,
      "duration": 0.0144,
      "velocity": 113,
      "chip": "ym2612"
    },
    {
      "channel": 1,
      "note": 53,
      "start": 62.2695,
      "duration": 0.1868,
      "velocity": 81,
      "chip": "ym2612"
    },
    {
      "channel": 3,
      "note": 84,
      "start": 62.2717,
      "duration": 0.0106,
      "velocity": 113,
      "chip": "ym2612"
    },
    {
      "channel": 4,
      "note": 72,
      "start": 62.2731,
      "duration": 0.085,
      "velocity": 74,
      "chip": "ym2612"
    },
    {
      "channel": 2,
      "note": 40,
      "start": 62.2765,
      "duration": 0.008,
      "velocity": 114,
      "chip": "ym2612"
    },
    {
      "channel": 3,
      "note": 84,
      "start": 62.2823,
      "duration": 0.013,
      "velocity": 113,
      "chip": "ym2612"
    },
    {
      "channel": 2,
      "note": 40,
      "start": 62.2845,
      "duration": 0.013,
      "velocity": 114,
      "chip": "ym2612"
    },
    {
      "channel": 3,
      "note": 84,
      "start": 62.2953,
      "duration": 0.0119,
      "velocity": 113,
      "chip": "ym2612"
    },
    {
      "channel": 2,
      "note": 40,
      "start": 62.2976,
      "duration": 0.0123,
      "velocity": 114,
      "chip": "ym2612"
    },
    {
      "channel": 3,
      "note": 84,
      "start": 62.3072,
      "duration": 0.0125,
      "velocity": 113,
      "chip": "ym2612"
    },
    {
      "channel": 2,
      "note": 40,
      "start": 62.3098,
      "duration": 0.0121,
      "velocity": 114,
      "chip": "ym2612"
    },
    {
      "channel": 3,
      "note": 84,
      "start": 62.3197,
      "duration": 0.0125,
      "velocity": 113,
      "chip": "ym2612"
    },
    {
      "channel": 2,
      "note": 40,
      "start": 62.3219,
      "duration": 0.0125,
      "velocity": 114,
      "chip": "ym2612"
    },
    {
      "channel": 3,
      "note": 84,
      "start": 62.3322,
      "duration": 0.013,
      "velocity": 113,
      "chip": "ym2612"
    },
    {
      "channel": 2,
      "note": 40,
      "start": 62.3344,
      "duration": 0.013,
      "velocity": 114,
      "chip": "ym2612"
    },
    {
      "channel": 3,
      "note": 84,
      "start": 62.3453,
      "duration": 0.0119,
      "velocity": 113,
      "chip": "ym2612"
    },
    {
      "channel": 2,
      "note": 40,
      "start": 62.3475,
      "duration": 0.0134,
      "velocity": 114,
      "chip": "ym2612"
    },
    {
      "channel": 3,
      "note": 84,
      "start": 62.3572,
      "duration": 0.0124,
      "velocity": 113,
      "chip": "ym2612"
    },
    {
      "channel": 4,
      "note": 65,
      "start": 62.3586,
      "duration": 0.1013,
      "velocity": 74,
      "chip": "ym2612"
    },
    {
      "channel": 2,
      "note": 40,
      "start": 62.3608,
      "duration": 0.011,
      "velocity": 114,
      "chip": "ym2612"
    },
    {
      "channel": 3,
      "note": 84,
      "start": 62.3696,
      "duration": 0.0125,
      "velocity": 113,
      "chip": "ym2612"
    },
    {
      "channel": 2,
      "note": 40,
      "start": 62.3719,
      "duration": 0.0125,
      "velocity": 114,
      "chip": "ym2612"
    },
    {
      "channel": 3,
      "note": 84,
      "start": 62.3822,
      "duration": 0.013,
      "velocity": 113,
      "chip": "ym2612"
    },
    {
      "channel": 2,
      "note": 40,
      "start": 62.3844,
      "duration": 0.013,
      "velocity": 114,
      "chip": "ym2612"
    },
    {
      "channel": 3,
      "note": 84,
      "start": 62.3952,
      "duration": 0.0119,
      "velocity": 113,
      "chip": "ym2612"
    },
    {
      "channel": 2,
      "note": 39,
      "start": 62.3974,
      "duration": 0.0119,
      "velocity": 114,
      "chip": "ym2612"
    },
    {
      "channel": 3,
      "note": 84,
      "start": 62.4071,
      "duration": 0.0125,
      "velocity": 113,
      "chip": "ym2612"
    },
    {
      "channel": 2,
      "note": 39,
      "start": 62.4093,
      "duration": 0.0125,
      "velocity": 114,
      "chip": "ym2612"
    },
    {
      "channel": 3,
      "note": 84,
      "start": 62.4196,
      "duration": 0.0125,
      "velocity": 113,
      "chip": "ym2612"
    },
    {
      "channel": 2,
      "note": 39,
      "start": 62.4218,
      "duration": 0.0125,
      "velocity": 114,
      "chip": "ym2612"
    },
    {
      "channel": 3,
      "note": 84,
      "start": 62.4321,
      "duration": 0.013,
      "velocity": 113,
      "chip": "ym2612"
    },
    {
      "channel": 3,
      "note": 84,
      "start": 62.4451,
      "duration": 0.0138,
      "velocity": 113,
      "chip": "ym2612"
    },
    {
      "channel": 1,
      "note": 65,
      "start": 62.4568,
      "duration": 0.0869,
      "velocity": 81,
      "chip": "ym2612"
    },
    {
      "channel": 3,
      "note": 84,
      "start": 62.4589,
      "duration": 0.0106,
      "velocity": 113,
      "chip": "ym2612"
    },
    {
      "channel": 4,
      "note": 68,
      "start": 62.4604,
      "duration": 0.0867,
      "velocity": 74,
      "chip": "ym2612"
    },
    {
      "channel": 2,
      "note": 40,
      "start": 62.4644,
      "duration": 0.0074,
      "velocity": 114,
      "chip": "ym2612"
    },
    {
      "channel": 3,
      "note": 84,
      "start": 62.4695,
      "duration": 0.0125,
      "velocity": 113,
      "chip": "ym2612"
    },
    {
      "channel": 2,
      "note": 40,
      "start": 62.4717,
      "duration": 0.0125,
      "velocity": 114,
      "chip": "ym2612"
    },
    {
      "channel": 3,
      "note": 84,
      "start": 62.482,
      "duration": 0.0131,
      "velocity": 113,
      "chip": "ym2612"
    },
    {
      "channel": 2,
      "note": 40,
      "start": 62.4843,
      "duration": 0.0134,
      "velocity": 114,
      "chip": "ym2612"
    },
    {
      "channel": 3,
      "note": 84,
      "start": 62.4951,
      "duration": 0.0118,
      "velocity": 113,
      "chip": "ym2612"
    },
    {
      "channel": 2,
      "note": 40,
      "start": 62.4977,
      "duration": 0.0115,
      "velocity": 114,
      "chip": "ym2612"
    },
    {
      "channel": 3,
      "note": 84,
      "start": 62.507,
      "duration": 0.0125,
      "velocity": 113,
      "chip": "ym2612"
    },
    {
      "channel": 2,
      "note": 40,
      "start": 62.5092,
      "duration": 0.0125,
      "velocity": 114,
      "chip": "ym2612"
    },
    {
      "channel": 3,
      "note": 84,
      "start": 62.5194,
      "duration": 0.0125,
      "velocity": 113,
      "chip": "ym2612"
    },
    {
      "channel": 2,
      "note": 40,
      "start": 62.5217,
      "duration": 0.0125,
      "velocity": 114,
      "chip": "ym2612"
    },
    {
      "channel": 3,
      "note": 84,
      "start": 62.532,
      "duration": 0.0142,
      "velocity": 113,
      "chip": "ym2612"
    },
    {
      "channel": 2,
      "note": 40,
      "start": 62.5342,
      "duration": 0.0153,
      "velocity": 114,
      "chip": "ym2612"
    },
    {
      "channel": 1,
      "note": 65,
      "start": 62.5445,
      "duration": 0.0991,
      "velocity": 81,
      "chip": "ym2612"
    },
    {
      "channel": 3,
      "note": 84,
      "start": 62.5461,
      "duration": 0.0107,
      "velocity": 113,
      "chip": "ym2612"
    },
    {
      "channel": 4,
      "note": 70,
      "start": 62.5476,
      "duration": 0.1002,
      "velocity": 74,
      "chip": "ym2612"
    },
    {
      "channel": 2,
      "note": 40,
      "start": 62.5495,
      "duration": 0.0096,
      "velocity": 114,
      "chip": "ym2612"
    },
    {
      "channel": 3,
      "note": 84,
      "start": 62.5569,
      "duration": 0.0125,
      "velocity": 113,
      "chip": "ym2612"
    },
    {
      "channel": 2,
      "note": 40,
      "start": 62.5591,
      "duration": 0.0124,
      "velocity": 114,
      "chip": "ym2612"
    },
    {
      "channel": 3,
      "note": 84,
      "start": 62.5694,
      "duration": 0.0125,
      "velocity": 113,
      "chip": "ym2612"
    },
    {
      "channel": 2,
      "note": 40,
      "start": 62.5716,
      "duration": 0.0125,
      "velocity": 114,
      "chip": "ym2612"
    },
    {
      "channel": 3,
      "note": 84,
      "start": 62.5819,
      "duration": 0.0131,
      "velocity": 113,
      "chip": "ym2612"
    },
    {
      "channel": 2,
      "note": 39,
      "start": 62.5841,
      "duration": 0.0131,
      "velocity": 114,
      "chip": "ym2612"
    },
    {
      "channel": 3,
      "note": 84,
      "start": 62.595,
      "duration": 0.0118,
      "velocity": 113,
      "chip": "ym2612"
    },
    {
      "channel": 2,
      "note": 39,
      "start": 62.5972,
      "duration": 0.0118,
      "velocity": 114,
      "chip": "ym2612"
    },
    {
      "channel": 3,
      "note": 84,
      "start": 62.6068,
      "duration": 0.0125,
      "velocity": 113,
      "chip": "ym2612"
    },
    {
      "channel": 2,
      "note": 39,
      "start": 62.6091,
      "duration": 0.0125,
      "velocity": 114,
      "chip": "ym2612"
    },
    {
      "channel": 3,
      "note": 84,
      "start": 62.6194,
      "duration": 0.0125,
      "velocity": 113,
      "chip": "ym2612"
    },
    {
      "channel": 3,
      "note": 84,
      "start": 62.6318,
      "duration": 0.0151,
      "velocity": 113,
      "chip": "ym2612"
    },
    {
      "channel": 1,
      "note": 53,
      "start": 62.6444,
      "duration": 0.1869,
      "velocity": 81,
      "chip": "ym2612"
    },
    {
      "channel": 3,
      "note": 84,
      "start": 62.6469,
      "duration": 0.0105,
      "velocity": 113,
      "chip": "ym2612"
    },
    {
      "channel": 4,
      "note": 65,
      "start": 62.6483,
      "duration": 0.0849,
      "velocity": 74,
      "chip": "ym2612"
    },
    {
      "channel": 2,
      "note": 41,
      "start": 62.6544,
      "duration": 0.1846,
      "velocity": 122,
      "chip": "ym2612"
    },
    {
      "channel": 3,
      "note": 84,
      "start": 62.6574,
      "duration": 0.0125,
      "velocity": 113,
      "chip": "ym2612"
    },
    {
      "channel": 3,
      "note": 84,
      "start": 62.6699,
      "duration": 0.0125,
      "velocity": 113,
      "chip": "ym2612"
    },
    {
      "channel": 3,
      "note": 84,
      "start": 62.6824,
      "duration": 0.0131,
      "velocity": 113,
      "chip": "ym2612"
    },
    {
      "channel": 3,
      "note": 84,
      "start": 62.6954,
      "duration": 0.0119,
      "velocity": 113,
      "chip": "ym2612"
    },
    {
      "channel": 3,
      "note": 84,
      "start": 62.7073,
      "duration": 0.0125,
      "velocity": 113,
      "chip": "ym2612"
    },
    {
      "channel": 3,
      "note": 84,
      "start": 62.7198,
      "duration": 0.0125,
      "velocity": 113,
      "chip": "ym2612"
    },
    {
      "channel": 3,
      "note": 84,
      "start": 62.7323,
      "duration": 0.0131,
      "velocity": 113,
      "chip": "ym2612"
    },
    {
      "channel": 4,
      "note": 67,
      "start": 62.7337,
      "duration": 0.1013,
      "velocity": 74,
      "chip": "ym2612"
    },
    {
      "channel": 3,
      "note": 84,
      "start": 62.7454,
      "duration": 0.0118,
      "velocity": 113,
      "chip": "ym2612"
    },
    {
      "channel": 3,
      "note": 84,
      "start": 62.7572,
      "duration": 0.0125,
      "velocity": 113,
      "chip": "ym2612"
    },
    {
      "channel": 3,
      "note": 84,
      "start": 62.7698,
      "duration": 0.0125,
      "velocity": 113,
      "chip": "ym2612"
    },
    {
      "channel": 3,
      "note": 84,
      "start": 62.7822,
      "duration": 0.0131,
      "velocity": 113,
      "chip": "ym2612"
    },
    {
      "channel": 3,
      "note": 84,
      "start": 62.7953,
      "duration": 0.0119,
      "velocity": 113,
      "chip": "ym2612"
    },
    {
      "channel": 3,
      "note": 84,
      "start": 62.8072,
      "duration": 0.0125,
      "velocity": 113,
      "chip": "ym2612"
    },
    {
      "channel": 3,
      "note": 84,
      "start": 62.8197,
      "duration": 0.0144,
      "velocity": 113,
      "chip": "ym2612"
    },
    {
      "channel": 1,
      "note": 65,
      "start": 62.8319,
      "duration": 0.0869,
      "velocity": 81,
      "chip": "ym2612"
    },
    {
      "channel": 3,
      "note": 84,
      "start": 62.8341,
      "duration": 0.0112,
      "velocity": 113,
      "chip": "ym2612"
    },
    {
      "channel": 4,
      "note": 56,
      "start": 62.8355,
      "duration": 0.087,
      "velocity": 74,
      "chip": "ym2612"
    },
    {
      "channel": 2,
      "note": 40,
      "start": 62.8418,
      "duration": 0.0058,
      "velocity": 114,
      "chip": "ym2612"
    },
    {
      "channel": 3,
      "note": 84,
      "start": 62.8453,
      "duration": 0.0118,
      "velocity": 113,
      "chip": "ym2612"
    },
    {
      "channel": 2,
      "note": 40,
      "start": 62.8476,
      "duration": 0.0118,
      "velocity": 114,
      "chip": "ym2612"
    },
    {
      "channel": 3,
      "note": 84,
      "start": 62.8572,
      "duration": 0.0125,
      "velocity": 113,
      "chip": "ym2612"
    },
    {
      "channel": 2,
      "note": 40,
      "start": 62.8594,
      "duration": 0.0128,
      "velocity": 114,
      "chip": "ym2612"
    },
    {
      "channel": 3,
      "note": 84,
      "start": 62.8697,
      "duration": 0.0125,
      "velocity": 113,
      "chip": "ym2612"
    },
    {
      "channel": 2,
      "note": 40,
      "start": 62.8722,
      "duration": 0.0122,
      "velocity": 114,
      "chip": "ym2612"
    },
    {
      "channel": 3,
      "note": 84,
      "start": 62.8822,
      "duration": 0.013,
      "velocity": 113,
      "chip": "ym2612"
    },
    {
      "channel": 2,
      "note": 40,
      "start": 62.8844,
      "duration": 0.013,
      "velocity": 114,
      "chip": "ym2612"
    },
    {
      "channel": 3,
      "note": 84,
      "start": 62.8952,
      "duration": 0.0119,
      "velocity": 113,
      "chip": "ym2612"
    },
    {
      "channel": 2,
      "note": 40,
      "start": 62.8974,
      "duration": 0.0119,
      "velocity": 114,
      "chip": "ym2612"
    },
    {
      "channel": 3,
      "note": 84,
      "start": 62.9071,
      "duration": 0.0144,
      "velocity": 113,
      "chip": "ym2612"
    },
    {
      "channel": 2,
      "note": 40,
      "start": 62.9093,
      "duration": 0.0154,
      "velocity": 114,
      "chip": "ym2612"
    },
    {
      "channel": 1,
      "note": 65,
      "start": 62.9193,
      "duration": 0.0997,
      "velocity": 81,
      "chip": "ym2612"
    },
    {
      "channel": 3,
      "note": 84,
      "start": 62.9215,
      "duration": 0.0105,
      "velocity": 113,
      "chip": "ym2612"
    },
    {
      "channel": 4,
      "note": 63,
      "start": 62.9229,
      "duration": 0.1003,
      "velocity": 74,
      "chip": "ym2612"
    },
    {
      "channel": 3,
      "note": 84,
      "start": 62.9321,
      "duration": 0.0131,
      "velocity": 113,
      "chip": "ym2612"
    },
    {
      "channel": 2,
      "note": 40,
      "start": 62.9353,
      "duration": 0.0121,
      "velocity": 114,
      "chip": "ym2612"
    },
    {
      "channel": 3,
      "note": 84,
      "start": 62.9452,
      "duration": 0.0118,
      "velocity": 113,
      "chip": "ym2612"
    },
    {
      "channel": 2,
      "note": 40,
      "start": 62.9474,
      "duration": 0.0118,
      "velocity": 114,
      "chip": "ym2612"
    },
    {
      "channel": 3,
      "note": 84,
      "start": 62.957,
      "duration": 0.0125,
      "velocity": 113,
      "chip": "ym2612"
    },
    {
      "channel": 2,
      "note": 40,
      "start": 62.9593,
      "duration": 0.0129,
      "velocity": 114,
      "chip": "ym2612"
    },
    {
      "channel": 3,
      "note": 84,
      "start": 62.9696,
      "duration": 0.0125,
      "velocity": 113,
      "chip": "ym2612"
    },
    {
      "channel": 2,
      "note": 40,
      "start": 62.9721,
      "duration": 0.0122,
      "velocity": 114,
      "chip": "ym2612"
    },
    {
      "channel": 3,
      "note": 84,
      "start": 62.982,
      "duration": 0.0131,
      "velocity": 113,
      "chip": "ym2612"
    },
    {
      "channel": 2,
      "note": 40,
      "start": 62.9843,
      "duration": 0.0131,
      "velocity": 114,
      "chip": "ym2612"
    },
    {
      "channel": 3,
      "note": 84,
      "start": 62.9951,
      "duration": 0.0118,
      "velocity": 113,
      "chip": "ym2612"
    },
    {
      "channel": 2,
      "note": 40,
      "start": 62.9974,
      "duration": 0.0118,
      "velocity": 114,
      "chip": "ym2612"
    },
    {
      "channel": 3,
      "note": 84,
      "start": 63.007,
      "duration": 0.0153,
      "velocity": 113,
      "chip": "ym2612"
    },
    {
      "channel": 2,
      "note": 40,
      "start": 63.0092,
      "duration": 0.0163,
      "velocity": 114,
      "chip": "ym2612"
    },
    {
      "channel": 1,
      "note": 53,
      "start": 63.0194,
      "duration": 0.1861,
      "velocity": 81,
      "chip": "ym2612"
    },
    {
      "channel": 3,
      "note": 84,
      "start": 63.0223,
      "duration": 0.0093,
      "velocity": 113,
      "chip": "ym2612"
    },
    {
      "channel": 4,
      "note": 65,
      "start": 63.0237,
      "duration": 0.0837,
      "velocity": 74,
      "chip": "ym2612"
    },
    {
      "channel": 3,
      "note": 84,
      "start": 63.0316,
      "duration": 0.0129,
      "velocity": 113,
      "chip": "ym2612"
    },
    {
      "channel": 2,
      "note": 40,
      "start": 63.0348,
      "duration": 0.0121,
      "velocity": 114,
      "chip": "ym2612"
    },
    {
      "channel": 3,
      "note": 84,
      "start": 63.0444,
      "duration": 0.0121,
      "velocity": 113,
      "chip": "ym2612"
    },
    {
      "channel": 2,
      "note": 40,
      "start": 63.0469,
      "duration": 0.0119,
      "velocity": 114,
      "chip": "ym2612"
    },
    {
      "channel": 3,
      "note": 84,
      "start": 63.0566,
      "duration": 0.0125,
      "velocity": 113,
      "chip": "ym2612"
    },
    {
      "channel": 2,
      "note": 40,
      "start": 63.0588,
      "duration": 0.0128,
      "velocity": 114,
      "chip": "ym2612"
    },
    {
      "channel": 3,
      "note": 84,
      "start": 63.069,
      "duration": 0.0125,
      "velocity": 113,
      "chip": "ym2612"
    },
    {
      "channel": 2,
      "note": 40,
      "start": 63.0717,
      "duration": 0.0122,
      "velocity": 114,
      "chip": "ym2612"
    },
    {
      "channel": 3,
      "note": 84,
      "start": 63.0815,
      "duration": 0.0129,
      "velocity": 113,
      "chip": "ym2612"
    },
    {
      "channel": 2,
      "note": 40,
      "start": 63.0838,
      "duration": 0.013,
      "velocity": 114,
      "chip": "ym2612"
    },
    {
      "channel": 3,
      "note": 84,
      "start": 63.0944,
      "duration": 0.0122,
      "velocity": 113,
      "chip": "ym2612"
    },
    {
      "channel": 2,
      "note": 40,
      "start": 63.0968,
      "duration": 0.013,
      "velocity": 114,
      "chip": "ym2612"
    },
    {
      "channel": 3,
      "note": 84,
      "start": 63.1065,
      "duration": 0.0124,
      "velocity": 113,
      "chip": "ym2612"
    },
    {
      "channel": 4,
      "note": 75,
      "start": 63.1079,
      "duration": 0.1013,
      "velocity": 74,
      "chip": "ym2612"
    },
    {
      "channel": 2,
      "note": 40,
      "start": 63.1098,
      "duration": 0.0114,
      "velocity": 114,
      "chip": "ym2612"
    },
    {
      "channel": 3,
      "note": 84,
      "start": 63.119,
      "duration": 0.0125,
      "velocity": 113,
      "chip": "ym2612"
    },
    {
      "channel": 2,
      "note": 40,
      "start": 63.1212,
      "duration": 0.0124,
      "velocity": 114,
      "chip": "ym2612"
    },
    {
      "channel": 3,
      "note": 84,
      "start": 63.1315,
      "duration": 0.0129,
      "velocity": 113,
      "chip": "ym2612"
    },
    {
      "channel": 2,
      "note": 40,
      "start": 63.1337,
      "duration": 0.0131,
      "velocity": 114,
      "chip": "ym2612"
    },
    {
      "channel": 3,
      "note": 84,
      "start": 63.1443,
      "duration": 0.0122,
      "velocity": 113,
      "chip": "ym2612"
    },
    {
      "channel": 2,
      "note": 40,
      "start": 63.1468,
      "duration": 0.0122,
      "velocity": 114,
      "chip": "ym2612"
    },
    {
      "channel": 3,
      "note": 83,
      "start": 63.1565,
      "duration": 0.0125,
      "velocity": 113,
      "chip": "ym2612"
    },
    {
      "channel": 2,
      "note": 39,
      "start": 63.1589,
      "duration": 0.0118,
      "velocity": 114,
      "chip": "ym2612"
    },
    {
      "channel": 3,
      "note": 83,
      "start": 63.1689,
      "duration": 0.0124,
      "velocity": 113,
      "chip": "ym2612"
    },
    {
      "channel": 2,
      "note": 39,
      "start": 63.1708,
      "duration": 0.0125,
      "velocity": 114,
      "chip": "ym2612"
    },
    {
      "channel": 3,
      "note": 83,
      "start": 63.1814,
      "duration": 0.0129,
      "velocity": 113,
      "chip": "ym2612"
    },
    {
      "channel": 2,
      "note": 39,
      "start": 63.1833,
      "duration": 0.013,
      "velocity": 114,
      "chip": "ym2612"
    },
    {
      "channel": 3,
      "note": 83,
      "start": 63.1942,
      "duration": 0.0141,
      "velocity": 113,
      "chip": "ym2612"
    },
    {
      "channel": 1,
      "note": 53,
      "start": 63.2061,
      "duration": 0.1871,
      "velocity": 81,
      "chip": "ym2612"
    },
    {
      "channel": 3,
      "note": 83,
      "start": 63.2083,
      "duration": 0.0106,
      "velocity": 113,
      "chip": "ym2612"
    },
    {
      "channel": 4,
      "note": 77,
      "start": 63.2097,
      "duration": 0.0856,
      "velocity": 74,
      "chip": "ym2612"
    },
    {
      "channel": 2,
      "note": 40,
      "start": 63.2133,
      "duration": 0.0074,
      "velocity": 114,
      "chip": "ym2612"
    },
    {
      "channel": 3,
      "note": 83,
      "start": 63.2189,
      "duration": 0.0125,
      "velocity": 113,
      "chip": "ym2612"
    },
    {
      "channel": 2,
      "note": 40,
      "start": 63.2207,
      "duration": 0.0125,
      "velocity": 114,
      "chip": "ym2612"
    },
    {
      "channel": 3,
      "note": 83,
      "start": 63.2313,
      "duration": 0.0125,
      "velocity": 113,
      "chip": "ym2612"
    },
    {
      "channel": 2,
      "note": 40,
      "start": 63.2332,
      "duration": 0.0134,
      "velocity": 114,
      "chip": "ym2612"
    },
    {
      "channel": 3,
      "note": 83,
      "start": 63.2438,
      "duration": 0.0125,
      "velocity": 113,
      "chip": "ym2612"
    },
    {
      "channel": 2,
      "note": 40,
      "start": 63.2467,
      "duration": 0.0115,
      "velocity": 114,
      "chip": "ym2612"
    },
    {
      "channel": 3,
      "note": 83,
      "start": 63.2563,
      "duration": 0.0125,
      "velocity": 113,
      "chip": "ym2612"
    },
    {
      "channel": 2,
      "note": 40,
      "start": 63.2582,
      "duration": 0.0124,
      "velocity": 114,
      "chip": "ym2612"
    },
    {
      "channel": 3,
      "note": 83,
      "start": 63.2688,
      "duration": 0.0125,
      "velocity": 113,
      "chip": "ym2612"
    },
    {
      "channel": 2,
      "note": 40,
      "start": 63.2706,
      "duration": 0.0125,
      "velocity": 114,
      "chip": "ym2612"
    },
    {
      "channel": 3,
      "note": 83,
      "start": 63.2813,
      "duration": 0.0125,
      "velocity": 113,
      "chip": "ym2612"
    },
    {
      "channel": 2,
      "note": 40,
      "start": 63.2831,
      "duration": 0.0143,
      "velocity": 114,
      "chip": "ym2612"
    },
    {
      "channel": 3,
      "note": 83,
      "start": 63.2937,
      "duration": 0.0125,
      "velocity": 113,
      "chip": "ym2612"
    },
    {
      "channel": 4,
      "note": 65,
      "start": 63.2958,
      "duration": 0.1017,
      "velocity": 74,
      "chip": "ym2612"
    },
    {
      "channel": 2,
      "note": 40,
      "start": 63.2974,
      "duration": 0.0107,
      "velocity": 114,
      "chip": "ym2612"
    },
    {
      "channel": 3,
      "note": 83,
      "start": 63.3063,
      "duration": 0.0125,
      "velocity": 113,
      "chip": "ym2612"
    },
    {
      "channel": 2,
      "note": 40,
      "start": 63.3081,
      "duration": 0.0125,
      "velocity": 114,
      "chip": "ym2612"
    },
    {
      "channel": 3,
      "note": 83,
      "start": 63.3187,
      "duration": 0.0125,
      "velocity": 113,
      "chip": "ym2612"
    },
    {
      "channel": 2,
      "note": 40,
      "start": 63.3206,
      "duration": 0.0125,
      "velocity": 114,
      "chip": "ym2612"
    },
    {
      "channel": 3,
      "note": 83,
      "start": 63.3312,
      "duration": 0.0125,
      "velocity": 113,
      "chip": "ym2612"
    },
    {
      "channel": 2,
      "note": 39,
      "start": 63.3331,
      "duration": 0.013,
      "velocity": 114,
      "chip": "ym2612"
    },
    {
      "channel": 3,
      "note": 83,
      "start": 63.3437,
      "duration": 0.0125,
      "velocity": 113,
      "chip": "ym2612"
    },
    {
      "channel": 2,
      "note": 39,
      "start": 63.3461,
      "duration": 0.0119,
      "velocity": 114,
      "chip": "ym2612"
    },
    {
      "channel": 3,
      "note": 83,
      "start": 63.3562,
      "duration": 0.0124,
      "velocity": 113,
      "chip": "ym2612"
    },
    {
      "channel": 2,
      "note": 39,
      "start": 63.358,
      "duration": 0.0125,
      "velocity": 114,
      "chip": "ym2612"
    },
    {
      "channel": 3,
      "note": 83,
      "start": 63.3687,
      "duration": 0.0125,
      "velocity": 113,
      "chip": "ym2612"
    },
    {
      "channel": 3,
      "note": 83,
      "start": 63.3811,
      "duration": 0.0154,
      "velocity": 113,
      "chip": "ym2612"
    },
    {
      "channel": 1,
      "note": 53,
      "start": 63.3937,
      "duration": 0.187,
      "velocity": 81,
      "chip": "ym2612"
    },
    {
      "channel": 3,
      "note": 83,
      "start": 63.3965,
      "duration": 0.0101,
      "velocity": 113,
      "chip": "ym2612"
    },
    {
      "channel": 4,
      "note": 72,
      "start": 63.398,
      "duration": 0.0853,
      "velocity": 74,
      "chip": "ym2612"
    },
    {
      "channel": 2,
      "note": 41,
      "start": 63.4037,
      "duration": 0.0832,
      "velocity": 122,
      "chip": "ym2612"
    },
    {
      "channel": 3,
      "note": 83,
      "start": 63.4066,
      "duration": 0.0125,
      "velocity": 113,
      "chip": "ym2612"
    },
    {
      "channel": 3,
      "note": 82,
      "start": 63.4192,
      "duration": 0.0125,
      "velocity": 113,
      "chip": "ym2612"
    },
    {
      "channel": 3,
      "note": 82,
      "start": 63.4317,
      "duration": 0.0128,
      "velocity": 113,
      "chip": "ym2612"
    },
    {
      "channel": 3,
      "note": 82,
      "start": 63.4445,
      "duration": 0.0121,
      "velocity": 113,
      "chip": "ym2612"
    },
    {
      "channel": 3,
      "note": 82,
      "start": 63.4566,
      "duration": 0.0125,
      "velocity": 113,
      "chip": "ym2612"
    },
    {
      "channel": 3,
      "note": 82,
      "start": 63.4691,
      "duration": 0.0132,
      "velocity": 113,
      "chip": "ym2612"
    },
    {
      "channel": 3,
      "note": 82,
      "start": 63.4824,
      "duration": 0.012,
      "velocity": 113,
      "chip": "ym2612"
    },
    {
      "channel": 4,
      "note": 75,
      "start": 63.4838,
      "duration": 0.0998,
      "velocity": 74,
      "chip": "ym2612"
    },
    {
      "channel": 2,
      "note": 40,
      "start": 63.4896,
      "duration": 0.0069,
      "velocity": 114,
      "chip": "ym2612"
    },
    {
      "channel": 3,
      "note": 82,
      "start": 63.4944,
      "duration": 0.0122,
      "velocity": 113,
      "chip": "ym2612"
    },
    {
      "channel": 2,
      "note": 40,
      "start": 63.4965,
      "duration": 0.0119,
      "velocity": 114,
      "chip": "ym2612"
    },
    {
      "channel": 3,
      "note": 82,
      "start": 63.5065,
      "duration": 0.0125,
      "velocity": 113,
      "chip": "ym2612"
    },
    {
      "channel": 2,
      "note": 40,
      "start": 63.5084,
      "duration": 0.0128,
      "velocity": 114,
      "chip": "ym2612"
    },
    {
      "channel": 3,
      "note": 82,
      "start": 63.519,
      "duration": 0.0125,
      "velocity": 113,
      "chip": "ym2612"
    },
    {
      "channel": 2,
      "note": 40,
      "start": 63.5213,
      "duration": 0.0125,
      "velocity": 114,
      "chip": "ym2612"
    },
    {
      "channel": 3,
      "note": 82,
      "start": 63.5315,
      "duration": 0.0128,
      "velocity": 113,
      "chip": "ym2612"
    },
    {
      "channel": 2,
      "note": 40,
      "start": 63.5337,
      "duration": 0.013,
      "velocity": 114,
      "chip": "ym2612"
    },
    {
      "channel": 3,
      "note": 82,
      "start": 63.5443,
      "duration": 0.0122,
      "velocity": 113,
      "chip": "ym2612"
    },
    {
      "channel": 2,
      "note": 40,
      "start": 63.5468,
      "duration": 0.0119,
      "velocity": 114,
      "chip": "ym2612"
    },
    {
      "channel": 3,
      "note": 82,
      "start": 63.5565,
      "duration": 0.0125,
      "velocity": 113,
      "chip": "ym2612"
    },
    {
      "channel": 2,
      "note": 40,
      "start": 63.5587,
      "duration": 0.0125,
      "velocity": 114,
      "chip": "ym2612"
    },
    {
      "channel": 3,
      "note": 82,
      "start": 63.569,
      "duration": 0.0136,
      "velocity": 113,
      "chip": "ym2612"
    },
    {
      "channel": 2,
      "note": 40,
      "start": 63.5712,
      "duration": 0.0147,
      "velocity": 114,
      "chip": "ym2612"
    },
    {
      "channel": 1,
      "note": 53,
      "start": 63.5811,
      "duration": 0.1868,
      "velocity": 81,
      "chip": "ym2612"
    },
    {
      "channel": 3,
      "note": 82,
      "start": 63.5826,
      "duration": 0.0116,
      "velocity": 113,
      "chip": "ym2612"
    },
    {
      "channel": 4,
      "note": 65,
      "start": 63.584,
      "duration": 0.0858,
      "velocity": 74,
      "chip": "ym2612"
    },
    {
      "channel": 2,
      "note": 40,
      "start": 63.586,
      "duration": 0.0108,
      "velocity": 114,
      "chip": "ym2612"
    },
    {
      "channel": 3,
      "note": 82,
      "start": 63.5942,
      "duration": 0.0122,
      "velocity": 113,
      "chip": "ym2612"
    },
    {
      "channel": 2,
      "note": 40,
      "start": 63.5967,
      "duration": 0.0119,
      "velocity": 114,
      "chip": "ym2612"
    },
    {
      "channel": 3,
      "note": 82,
      "start": 63.6064,
      "duration": 0.0125,
      "velocity": 113,
      "chip": "ym2612"
    },
    {
      "channel": 2,
      "note": 39,
      "start": 63.6086,
      "duration": 0.0125,
      "velocity": 114,
      "chip": "ym2612"
    },
    {
      "channel": 3,
      "note": 82,
      "start": 63.6189,
      "duration": 0.0124,
      "velocity": 113,
      "chip": "ym2612"
    },
    {
      "channel": 2,
      "note": 39,
      "start": 63.6212,
      "duration": 0.0125,
      "velocity": 114,
      "chip": "ym2612"
    },
    {
      "channel": 3,
      "note": 82,
      "start": 63.6314,
      "duration": 0.0128,
      "velocity": 113,
      "chip": "ym2612"
    },
    {
      "channel": 2,
      "note": 39,
      "start": 63.6336,
      "duration": 0.013,
      "velocity": 114,
      "chip": "ym2612"
    },
    {
      "channel": 3,
      "note": 82,
      "start": 63.6442,
      "duration": 0.0122,
      "velocity": 113,
      "chip": "ym2612"
    },
    {
      "channel": 3,
      "note": 82,
      "start": 63.6563,
      "duration": 0.0125,
      "velocity": 113,
      "chip": "ym2612"
    },
    {
      "channel": 3,
      "note": 81,
      "start": 63.6689,
      "duration": 0.0125,
      "velocity": 113,
      "chip": "ym2612"
    },
    {
      "channel": 4,
      "note": 70,
      "start": 63.6703,
      "duration": 0.1013,
      "velocity": 74,
      "chip": "ym2612"
    },
    {
      "channel": 3,
      "note": 81,
      "start": 63.6813,
      "duration": 0.0125,
      "velocity": 113,
      "chip": "ym2612"
    },
    {
      "channel": 3,
      "note": 81,
      "start": 63.6938,
      "duration": 0.0124,
      "velocity": 113,
      "chip": "ym2612"
    },
    {
      "channel": 3,
      "note": 81,
      "start": 63.7063,
      "duration": 0.0125,
      "velocity": 113,
      "chip": "ym2612"
    },
    {
      "channel": 3,
      "note": 81,
      "start": 63.7188,
      "duration": 0.0125,
      "velocity": 113,
      "chip": "ym2612"
    },
    {
      "channel": 3,
      "note": 81,
      "start": 63.7313,
      "duration": 0.0125,
      "velocity": 113,
      "chip": "ym2612"
    },
    {
      "channel": 3,
      "note": 81,
      "start": 63.7437,
      "duration": 0.0125,
      "velocity": 113,
      "chip": "ym2612"
    },
    {
      "channel": 3,
      "note": 81,
      "start": 63.7563,
      "duration": 0.0144,
      "velocity": 113,
      "chip": "ym2612"
    },
    {
      "channel": 1,
      "note": 53,
      "start": 63.7684,
      "duration": 0.1868,
      "velocity": 81,
      "chip": "ym2612"
    },
    {
      "channel": 3,
      "note": 81,
      "start": 63.7706,
      "duration": 0.0106,
      "velocity": 113,
      "chip": "ym2612"
    },
    {
      "channel": 4,
      "note": 72,
      "start": 63.7721,
      "duration": 0.085,
      "velocity": 74,
      "chip": "ym2612"
    },
    {
      "channel": 2,
      "note": 40,
      "start": 63.7754,
      "duration": 0.008,
      "velocity": 114,
      "chip": "ym2612"
    },
    {
      "channel": 3,
      "note": 81,
      "start": 63.7812,
      "duration": 0.0125,
      "velocity": 113,
      "chip": "ym2612"
    },
    {
      "channel": 2,
      "note": 40,
      "start": 63.7834,
      "duration": 0.0131,
      "velocity": 114,
      "chip": "ym2612"
    },
    {
      "channel": 3,
      "note": 81,
      "start": 63.7937,
      "duration": 0.0125,
      "velocity": 113,
      "chip": "ym2612"
    },
    {
      "channel": 2,
      "note": 40,
      "start": 63.7965,
      "duration": 0.0123,
      "velocity": 114,
      "chip": "ym2612"
    },
    {
      "channel": 3,
      "note": 81,
      "start": 63.8062,
      "duration": 0.0124,
      "velocity": 113,
      "chip": "ym2612"
    },
    {
      "channel": 2,
      "note": 40,
      "start": 63.8088,
      "duration": 0.0121,
      "velocity": 114,
      "chip": "ym2612"
    },
    {
      "channel": 3,
      "note": 81,
      "start": 63.8187,
      "duration": 0.0125,
      "velocity": 113,
      "chip": "ym2612"
    },
    {
      "channel": 2,
      "note": 40,
      "start": 63.8209,
      "duration": 0.0124,
      "velocity": 114,
      "chip": "ym2612"
    },
    {
      "channel": 3,
      "note": 81,
      "start": 63.8311,
      "duration": 0.0125,
      "velocity": 113,
      "chip": "ym2612"
    },
    {
      "channel": 2,
      "note": 40,
      "start": 63.8334,
      "duration": 0.0131,
      "velocity": 114,
      "chip": "ym2612"
    },
    {
      "channel": 3,
      "note": 81,
      "start": 63.8436,
      "duration": 0.0125,
      "velocity": 113,
      "chip": "ym2612"
    },
    {
      "channel": 2,
      "note": 40,
      "start": 63.8465,
      "duration": 0.013,
      "velocity": 114,
      "chip": "ym2612"
    },
    {
      "channel": 3,
      "note": 81,
      "start": 63.8561,
      "duration": 0.0125,
      "velocity": 113,
      "chip": "ym2612"
    },
    {
      "channel": 4,
      "note": 65,
      "start": 63.8575,
      "duration": 0.1013,
      "velocity": 74,
      "chip": "ym2612"
    },
    {
      "channel": 2,
      "note": 40,
      "start": 63.8595,
      "duration": 0.0113,
      "velocity": 114,
      "chip": "ym2612"
    },
    {
      "channel": 3,
      "note": 81,
      "start": 63.8686,
      "duration": 0.0124,
      "velocity": 113,
      "chip": "ym2612"
    },
    {
      "channel": 2,
      "note": 40,
      "start": 63.8708,
      "duration": 0.0125,
      "velocity": 114,
      "chip": "ym2612"
    },
    {
      "channel": 3,
      "note": 81,
      "start": 63.8811,
      "duration": 0.0125,
      "velocity": 113,
      "chip": "ym2612"
    },
    {
      "channel": 2,
      "note": 40,
      "start": 63.8833,
      "duration": 0.0131,
      "velocity": 114,
      "chip": "ym2612"
    },
    {
      "channel": 3,
      "note": 81,
      "start": 63.8935,
      "duration": 0.0125,
      "velocity": 113,
      "chip": "ym2612"
    },
    {
      "channel": 2,
      "note": 39,
      "start": 63.8964,
      "duration": 0.0119,
      "velocity": 114,
      "chip": "ym2612"
    },
    {
      "channel": 3,
      "note": 80,
      "start": 63.9061,
      "duration": 0.0125,
      "velocity": 113,
      "chip": "ym2612"
    },
    {
      "channel": 2,
      "note": 39,
      "start": 63.9083,
      "duration": 0.0125,
      "velocity": 114,
      "chip": "ym2612"
    },
    {
      "channel": 3,
      "note": 80,
      "start": 63.9185,
      "duration": 0.0125,
      "velocity": 113,
      "chip": "ym2612"
    },
    {
      "channel": 2,
      "note": 39,
      "start": 63.9208,
      "duration": 0.0124,
      "velocity": 114,
      "chip": "ym2612"
    },
    {
      "channel": 3,
      "note": 80,
      "start": 63.931,
      "duration": 0.0125,
      "velocity": 113,
      "chip": "ym2612"
    },
    {
      "channel": 3,
      "note": 80,
      "start": 63.9435,
      "duration": 0.0144,
      "velocity": 113,
      "chip": "ym2612"
    },
    {
      "channel": 1,
      "note": 65,
      "start": 63.9557,
      "duration": 0.0869,
      "velocity": 81,
      "chip": "ym2612"
    },
    {
      "channel": 3,
      "note": 80,
      "start": 63.9579,
      "duration": 0.0106,
      "velocity": 113,
      "chip": "ym2612"
    },
    {
      "channel": 4,
      "note": 68,
      "start": 63.9594,
      "duration": 0.0867,
      "velocity": 74,
      "chip": "ym2612"
    },
    {
      "channel": 2,
      "note": 40,
      "start": 63.9633,
      "duration": 0.0074,
      "velocity": 114,
      "chip": "ym2612"
    },
    {
      "channel": 3,
      "note": 80,
      "start": 63.9685,
      "duration": 0.0125,
      "velocity": 113,
      "chip": "ym2612"
    },
    {
      "channel": 2,
      "note": 40,
      "start": 63.9707,
      "duration": 0.0125,
      "velocity": 114,
      "chip": "ym2612"
    },
    {
      "channel": 3,
      "note": 80,
      "start": 63.981,
      "duration": 0.0125,
      "velocity": 113,
      "chip": "ym2612"
    },
    {
      "channel": 2,
      "note": 40,
      "start": 63.9832,
      "duration": 0.0135,
      "velocity": 114,
      "chip": "ym2612"
    },
    {
      "channel": 3,
      "note": 80,
      "start": 63.9935,
      "duration": 0.0125,
      "velocity": 113,
      "chip": "ym2612"
    },
    {
      "channel": 2,
      "note": 40,
      "start": 63.9967,
      "duration": 0.0115,
      "velocity": 114,
      "chip": "ym2612"
    },
    {
      "channel": 3,
      "note": 80,
      "start": 64.0059,
      "duration": 0.0125,
      "velocity": 113,
      "chip": "ym2612"
    },
    {
      "channel": 2,
      "note": 40,
      "start": 64.0082,
      "duration": 0.0124,
      "velocity": 114,
      "chip": "ym2612"
    },
    {
      "channel": 3,
      "note": 80,
      "start": 64.0184,
      "duration": 0.0125,
      "velocity": 113,
      "chip": "ym2612"
    },
    {
      "channel": 2,
      "note": 40,
      "start": 64.0206,
      "duration": 0.0125,
      "velocity": 114,
      "chip": "ym2612"
    },
    {
      "channel": 3,
      "note": 80,
      "start": 64.0309,
      "duration": 0.0142,
      "velocity": 113,
      "chip": "ym2612"
    },
    {
      "channel": 2,
      "note": 40,
      "start": 64.0331,
      "duration": 0.0154,
      "velocity": 114,
      "chip": "ym2612"
    },
    {
      "channel": 1,
      "note": 65,
      "start": 64.0431,
      "duration": 0.0994,
      "velocity": 81,
      "chip": "ym2612"
    },
    {
      "channel": 3,
      "note": 80,
      "start": 64.0451,
      "duration": 0.0108,
      "velocity": 113,
      "chip": "ym2612"
    },
    {
      "channel": 4,
      "note": 70,
      "start": 64.0465,
      "duration": 0.1002,
      "velocity": 74,
      "chip": "ym2612"
    },
    {
      "channel": 2,
      "note": 40,
      "start": 64.0485,
      "duration": 0.0096,
      "velocity": 114,
      "chip": "ym2612"
    },
    {
      "channel": 3,
      "note": 80,
      "start": 64.0559,
      "duration": 0.0124,
      "velocity": 113,
      "chip": "ym2612"
    },
    {
      "channel": 2,
      "note": 40,
      "start": 64.0581,
      "duration": 0.0125,
      "velocity": 114,
      "chip": "ym2612"
    },
    {
      "channel": 3,
      "note": 80,
      "start": 64.0683,
      "duration": 0.0125,
      "velocity": 113,
      "chip": "ym2612"
    },
    {
      "channel": 2,
      "note": 40,
      "start": 64.0706,
      "duration": 0.0124,
      "velocity": 114,
      "chip": "ym2612"
    },
    {
      "channel": 3,
      "note": 80,
      "start": 64.0808,
      "duration": 0.0125,
      "velocity": 113,
      "chip": "ym2612"
    },
    {
      "channel": 2,
      "note": 39,
      "start": 64.083,
      "duration": 0.0131,
      "velocity": 114,
      "chip": "ym2612"
    },
    {
      "channel": 3,
      "note": 80,
      "start": 64.0934,
      "duration": 0.0125,
      "velocity": 113,
      "chip": "ym2612"
    },
    {
      "channel": 2,
      "note": 39,
      "start": 64.0961,
      "duration": 0.0119,
      "velocity": 114,
      "chip": "ym2612"
    },
    {
      "channel": 3,
      "note": 80,
      "start": 64.1058,
      "duration": 0.0125,
      "velocity": 113,
      "chip": "ym2612"
    },
    {
      "channel": 2,
      "note": 39,
      "start": 64.108,
      "duration": 0.0124,
      "velocity": 114,
      "chip": "ym2612"
    },
    {
      "channel": 3,
      "note": 80,
      "start": 64.1183,
      "duration": 0.0124,
      "velocity": 113,
      "chip": "ym2612"
    },
    {
      "channel": 3,
      "note": 79,
      "start": 64.1307,
      "duration": 0.0151,
      "velocity": 113,
      "chip": "ym2612"
    },
    {
      "channel": 1,
      "note": 53,
      "start": 64.143,
      "duration": 0.1873,
      "velocity": 81,
      "chip": "ym2612"
    },
    {
      "channel": 3,
      "note": 79,
      "start": 64.1458,
      "duration": 0.0105,
      "velocity": 113,
      "chip": "ym2612"
    },
    {
      "channel": 4,
      "note": 65,
      "start": 64.1472,
      "duration": 0.0849,
      "velocity": 74,
      "chip": "ym2612"
    },
    {
      "channel": 2,
      "note": 41,
      "start": 64.1533,
      "duration": 0.1846,
      "velocity": 122,
      "chip": "ym2612"
    },
    {
      "channel": 3,
      "note": 79,
      "start": 64.1563,
      "duration": 0.0125,
      "velocity": 113,
      "chip": "ym2612"
    },
    {
      "channel": 3,
      "note": 79,
      "start": 64.1688,
      "duration": 0.0125,
      "velocity": 113,
      "chip": "ym2612"
    },
    {
      "channel": 3,
      "note": 79,
      "start": 64.1813,
      "duration": 0.0125,
      "velocity": 113,
      "chip": "ym2612"
    },
    {
      "channel": 3,
      "note": 79,
      "start": 64.1937,
      "duration": 0.0125,
      "velocity": 113,
      "chip": "ym2612"
    },
    {
      "channel": 3,
      "note": 79,
      "start": 64.2063,
      "duration": 0.0125,
      "velocity": 113,
      "chip": "ym2612"
    },
    {
      "channel": 3,
      "note": 79,
      "start": 64.2187,
      "duration": 0.0125,
      "velocity": 113,
      "chip": "ym2612"
    },
    {
      "channel": 3,
      "note": 79,
      "start": 64.2312,
      "duration": 0.0125,
      "velocity": 113,
      "chip": "ym2612"
    },
    {
      "channel": 4,
      "note": 67,
      "start": 64.2327,
      "duration": 0.1013,
      "velocity": 74,
      "chip": "ym2612"
    },
    {
      "channel": 3,
      "note": 79,
      "start": 64.2437,
      "duration": 0.0125,
      "velocity": 113,
      "chip": "ym2612"
    },
    {
      "channel": 3,
      "note": 79,
      "start": 64.2561,
      "duration": 0.0125,
      "velocity": 113,
      "chip": "ym2612"
    },
    {
      "channel": 3,
      "note": 79,
      "start": 64.2687,
      "duration": 0.0125,
      "velocity": 113,
      "chip": "ym2612"
    },
    {
      "channel": 3,
      "note": 79,
      "start": 64.2811,
      "duration": 0.0125,
      "velocity": 113,
      "chip": "ym2612"
    },
    {
      "channel": 3,
      "note": 79,
      "start": 64.2937,
      "duration": 0.0124,
      "velocity": 113,
      "chip": "ym2612"
    },
    {
      "channel": 3,
      "note": 79,
      "start": 64.3061,
      "duration": 0.0125,
      "velocity": 113,
      "chip": "ym2612"
    },
    {
      "channel": 3,
      "note": 79,
      "start": 64.3186,
      "duration": 0.0144,
      "velocity": 113,
      "chip": "ym2612"
    },
    {
      "channel": 1,
      "note": 65,
      "start": 64.3307,
      "duration": 0.087,
      "velocity": 81,
      "chip": "ym2612"
    },
    {
      "channel": 3,
      "note": 78,
      "start": 64.333,
      "duration": 0.0106,
      "velocity": 113,
      "chip": "ym2612"
    },
    {
      "channel": 4,
      "note": 56,
      "start": 64.3344,
      "duration": 0.0869,
      "velocity": 74,
      "chip": "ym2612"
    },
    {
      "channel": 2,
      "note": 40,
      "start": 64.3406,
      "duration": 0.0058,
      "velocity": 114,
      "chip": "ym2612"
    },
    {
      "channel": 3,
      "note": 78,
      "start": 64.3436,
      "duration": 0.0125,
      "velocity": 113,
      "chip": "ym2612"
    },
    {
      "channel": 2,
      "note": 40,
      "start": 64.3464,
      "duration": 0.0119,
      "velocity": 114,
      "chip": "ym2612"
    },
    {
      "channel": 3,
      "note": 78,
      "start": 64.3561,
      "duration": 0.0125,
      "velocity": 113,
      "chip": "ym2612"
    },
    {
      "channel": 2,
      "note": 40,
      "start": 64.3583,
      "duration": 0.0129,
      "velocity": 114,
      "chip": "ym2612"
    },
    {
      "channel": 3,
      "note": 78,
      "start": 64.3685,
      "duration": 0.0125,
      "velocity": 113,
      "chip": "ym2612"
    },
    {
      "channel": 2,
      "note": 40,
      "start": 64.3712,
      "duration": 0.0121,
      "velocity": 114,
      "chip": "ym2612"
    },
    {
      "channel": 3,
      "note": 78,
      "start": 64.381,
      "duration": 0.0125,
      "velocity": 113,
      "chip": "ym2612"
    },
    {
      "channel": 2,
      "note": 40,
      "start": 64.3832,
      "duration": 0.0131,
      "velocity": 114,
      "chip": "ym2612"
    },
    {
      "channel": 3,
      "note": 78,
      "start": 64.3935,
      "duration": 0.0125,
      "velocity": 113,
      "chip": "ym2612"
    },
    {
      "channel": 2,
      "note": 40,
      "start": 64.3963,
      "duration": 0.0119,
      "velocity": 114,
      "chip": "ym2612"
    },
    {
      "channel": 3,
      "note": 78,
      "start": 64.406,
      "duration": 0.0144,
      "velocity": 113,
      "chip": "ym2612"
    },
    {
      "channel": 2,
      "note": 40,
      "start": 64.4082,
      "duration": 0.0154,
      "velocity": 114,
      "chip": "ym2612"
    },
    {
      "channel": 1,
      "note": 65,
      "start": 64.4182,
      "duration": 0.0997,
      "velocity": 81,
      "chip": "ym2612"
    },
    {
      "channel": 3,
      "note": 78,
      "start": 64.4205,
      "duration": 0.0106,
      "velocity": 113,
      "chip": "ym2612"
    },
    {
      "channel": 4,
      "note": 63,
      "start": 64.4219,
      "duration": 0.0999,
      "velocity": 74,
      "chip": "ym2612"
    },
    {
      "channel": 3,
      "note": 78,
      "start": 64.431,
      "duration": 0.0125,
      "velocity": 113,
      "chip": "ym2612"
    },
    {
      "channel": 2,
      "note": 40,
      "start": 64.4342,
      "duration": 0.0122,
      "velocity": 114,
      "chip": "ym2612"
    },
    {
      "channel": 3,
      "note": 78,
      "start": 64.4435,
      "duration": 0.0124,
      "velocity": 113,
      "chip": "ym2612"
    },
    {
      "channel": 2,
      "note": 40,
      "start": 64.4463,
      "duration": 0.0118,
      "velocity": 114,
      "chip": "ym2612"
    },
    {
      "channel": 3,
      "note": 78,
      "start": 64.4559,
      "duration": 0.0125,
      "velocity": 113,
      "chip": "ym2612"
    },
    {
      "channel": 2,
      "note": 40,
      "start": 64.4582,
      "duration": 0.0128,
      "velocity": 114,
      "chip": "ym2612"
    },
    {
      "channel": 3,
      "note": 78,
      "start": 64.4684,
      "duration": 0.0125,
      "velocity": 113,
      "chip": "ym2612"
    },
    {
      "channel": 2,
      "note": 40,
      "start": 64.471,
      "duration": 0.0121,
      "velocity": 114,
      "chip": "ym2612"
    },
    {
      "channel": 3,
      "note": 78,
      "start": 64.4809,
      "duration": 0.0125,
      "velocity": 113,
      "chip": "ym2612"
    },
    {
      "channel": 2,
      "note": 40,
      "start": 64.4831,
      "duration": 0.0131,
      "velocity": 114,
      "chip": "ym2612"
    },
    {
      "channel": 3,
      "note": 78,
      "start": 64.4934,
      "duration": 0.0125,
      "velocity": 113,
      "chip": "ym2612"
    },
    {
      "channel": 2,
      "note": 40,
      "start": 64.4962,
      "duration": 0.0119,
      "velocity": 114,
      "chip": "ym2612"
    },
    {
      "channel": 3,
      "note": 78,
      "start": 64.5059,
      "duration": 0.0149,
      "velocity": 113,
      "chip": "ym2612"
    },
    {
      "channel": 2,
      "note": 40,
      "start": 64.5081,
      "duration": 0.0158,
      "velocity": 114,
      "chip": "ym2612"
    },
    {
      "channel": 1,
      "note": 49,
      "start": 64.5183,
      "duration": 0.1862,
      "velocity": 81,
      "chip": "ym2612"
    },
    {
      "channel": 4,
      "note": 65,
      "start": 64.5222,
      "duration": 0.0833,
      "velocity": 74,
      "chip": "ym2612"
    },
    {
      "channel": 2,
      "note": 40,
      "start": 64.5329,
      "duration": 0.0122,
      "velocity": 114,
      "chip": "ym2612"
    },
    {
      "channel": 2,
      "note": 40,
      "start": 64.545,
      "duration": 0.0119,
      "velocity": 114,
      "chip": "ym2612"
    },
    {
      "channel": 2,
      "note": 40,
      "start": 64.5569,
      "duration": 0.0129,
      "velocity": 114,
      "chip": "ym2612"
    },
    {
      "channel": 2,
      "note": 40,
      "start": 64.5698,
      "duration": 0.0122,
      "velocity": 114,
      "chip": "ym2612"
    },
    {
      "channel": 2,
      "note": 40,
      "start": 64.5819,
      "duration": 0.013,
      "velocity": 114,
      "chip": "ym2612"
    },
    {
      "channel": 2,
      "note": 40,
      "start": 64.5949,
      "duration": 0.013,
      "velocity": 114,
      "chip": "ym2612"
    },
    {
      "channel": 4,
      "note": 75,
      "start": 64.606,
      "duration": 0.1013,
      "velocity": 74,
      "chip": "ym2612"
    },
    {
      "channel": 2,
      "note": 40,
      "start": 64.6079,
      "duration": 0.0114,
      "velocity": 114,
      "chip": "ym2612"
    },
    {
      "channel": 2,
      "note": 40,
      "start": 64.6193,
      "duration": 0.0125,
      "velocity": 114,
      "chip": "ym2612"
    },
    {
      "channel": 2,
      "note": 40,
      "start": 64.6318,
      "duration": 0.0131,
      "velocity": 114,
      "chip": "ym2612"
    },
    {
      "channel": 2,
      "note": 40,
      "start": 64.6449,
      "duration": 0.0122,
      "velocity": 114,
      "chip": "ym2612"
    },
    {
      "channel": 2,
      "note": 39,
      "start": 64.657,
      "duration": 0.0118,
      "velocity": 114,
      "chip": "ym2612"
    },
    {
      "channel": 2,
      "note": 39,
      "start": 64.6689,
      "duration": 0.0125,
      "velocity": 114,
      "chip": "ym2612"
    },
    {
      "channel": 2,
      "note": 39,
      "start": 64.6814,
      "duration": 0.0125,
      "velocity": 114,
      "chip": "ym2612"
    },
    {
      "channel": 1,
      "note": 49,
      "start": 64.7051,
      "duration": 0.1873,
      "velocity": 81,
      "chip": "ym2612"
    },
    {
      "channel": 4,
      "note": 77,
      "start": 64.7078,
      "duration": 0.0851,
      "velocity": 74,
      "chip": "ym2612"
    },
    {
      "channel": 2,
      "note": 40,
      "start": 64.7112,
      "duration": 0.0077,
      "velocity": 114,
      "chip": "ym2612"
    },
    {
      "channel": 2,
      "note": 40,
      "start": 64.7189,
      "duration": 0.0125,
      "velocity": 114,
      "chip": "ym2612"
    },
    {
      "channel": 2,
      "note": 40,
      "start": 64.7314,
      "duration": 0.0135,
      "velocity": 114,
      "chip": "ym2612"
    },
    {
      "channel": 2,
      "note": 40,
      "start": 64.7449,
      "duration": 0.0115,
      "velocity": 114,
      "chip": "ym2612"
    },
    {
      "channel": 2,
      "note": 40,
      "start": 64.7563,
      "duration": 0.0125,
      "velocity": 114,
      "chip": "ym2612"
    },
    {
      "channel": 2,
      "note": 40,
      "start": 64.7689,
      "duration": 0.0125,
      "velocity": 114,
      "chip": "ym2612"
    },
    {
      "channel": 2,
      "note": 40,
      "start": 64.7814,
      "duration": 0.0142,
      "velocity": 114,
      "chip": "ym2612"
    },
    {
      "channel": 4,
      "note": 65,
      "start": 64.7934,
      "duration": 0.1024,
      "velocity": 74,
      "chip": "ym2612"
    },
    {
      "channel": 2,
      "note": 40,
      "start": 64.7956,
      "duration": 0.0107,
      "velocity": 114,
      "chip": "ym2612"
    },
    {
      "channel": 2,
      "note": 40,
      "start": 64.8063,
      "duration": 0.0125,
      "velocity": 114,
      "chip": "ym2612"
    },
    {
      "channel": 2,
      "note": 40,
      "start": 64.8189,
      "duration": 0.0125,
      "velocity": 114,
      "chip": "ym2612"
    },
    {
      "channel": 2,
      "note": 39,
      "start": 64.8314,
      "duration": 0.0129,
      "velocity": 114,
      "chip": "ym2612"
    },
    {
      "channel": 2,
      "note": 39,
      "start": 64.8442,
      "duration": 0.0122,
      "velocity": 114,
      "chip": "ym2612"
    },
    {
      "channel": 2,
      "note": 39,
      "start": 64.8564,
      "duration": 0.0124,
      "velocity": 114,
      "chip": "ym2612"
    },
    {
      "channel": 1,
      "note": 49,
      "start": 64.8929,
      "duration": 0.187,
      "velocity": 81,
      "chip": "ym2612"
    },
    {
      "channel": 4,
      "note": 73,
      "start": 64.8963,
      "duration": 0.0852,
      "velocity": 74,
      "chip": "ym2612"
    },
    {
      "channel": 2,
      "note": 41,
      "start": 64.9021,
      "duration": 0.0832,
      "velocity": 122,
      "chip": "ym2612"
    },
    {
      "channel": 4,
      "note": 75,
      "start": 64.9821,
      "duration": 0.0999,
      "velocity": 74,
      "chip": "ym2612"
    },
    {
      "channel": 2,
      "note": 40,
      "start": 64.9879,
      "duration": 0.0069,
      "velocity": 114,
      "chip": "ym2612"
    },
    {
      "channel": 2,
      "note": 40,
      "start": 64.9948,
      "duration": 0.0119,
      "velocity": 114,
      "chip": "ym2612"
    },
    {
      "channel": 2,
      "note": 40,
      "start": 65.0067,
      "duration": 0.0129,
      "velocity": 114,
      "chip": "ym2612"
    },
    {
      "channel": 2,
      "note": 40,
      "start": 65.0196,
      "duration": 0.0125,
      "velocity": 114,
      "chip": "ym2612"
    },
    {
      "channel": 2,
      "note": 40,
      "start": 65.0321,
      "duration": 0.0131,
      "velocity": 114,
      "chip": "ym2612"
    },
    {
      "channel": 2,
      "note": 40,
      "start": 65.0452,
      "duration": 0.0119,
      "velocity": 114,
      "chip": "ym2612"
    },
    {
      "channel": 2,
      "note": 40,
      "start": 65.0571,
      "duration": 0.0125,
      "velocity": 114,
      "chip": "ym2612"
    },
    {
      "channel": 2,
      "note": 40,
      "start": 65.0696,
      "duration": 0.0148,
      "velocity": 114,
      "chip": "ym2612"
    },
    {
      "channel": 1,
      "note": 49,
      "start": 65.0804,
      "duration": 0.187,
      "velocity": 81,
      "chip": "ym2612"
    },
    {
      "channel": 4,
      "note": 65,
      "start": 65.0824,
      "duration": 0.0859,
      "velocity": 74,
      "chip": "ym2612"
    },
    {
      "channel": 2,
      "note": 40,
      "start": 65.0844,
      "duration": 0.0108,
      "velocity": 114,
      "chip": "ym2612"
    },
    {
      "channel": 2,
      "note": 40,
      "start": 65.0952,
      "duration": 0.0119,
      "velocity": 114,
      "chip": "ym2612"
    },
    {
      "channel": 2,
      "note": 39,
      "start": 65.1071,
      "duration": 0.0125,
      "velocity": 114,
      "chip": "ym2612"
    },
    {
      "channel": 2,
      "note": 39,
      "start": 65.1196,
      "duration": 0.0125,
      "velocity": 114,
      "chip": "ym2612"
    },
    {
      "channel": 2,
      "note": 39,
      "start": 65.1321,
      "duration": 0.013,
      "velocity": 114,
      "chip": "ym2612"
    },
    {
      "channel": 4,
      "note": 72,
      "start": 65.1688,
      "duration": 0.1014,
      "velocity": 74,
      "chip": "ym2612"
    },
    {
      "channel": 1,
      "note": 49,
      "start": 65.2678,
      "duration": 0.1871,
      "velocity": 81,
      "chip": "ym2612"
    },
    {
      "channel": 4,
      "note": 73,
      "start": 65.2707,
      "duration": 0.0851,
      "velocity": 74,
      "chip": "ym2612"
    },
    {
      "channel": 2,
      "note": 40,
      "start": 65.274,
      "duration": 0.0081,
      "velocity": 114,
      "chip": "ym2612"
    },
    {
      "channel": 2,
      "note": 40,
      "start": 65.2821,
      "duration": 0.0131,
      "velocity": 114,
      "chip": "ym2612"
    },
    {
      "channel": 2,
      "note": 40,
      "start": 65.2952,
      "duration": 0.0123,
      "velocity": 114,
      "chip": "ym2612"
    },
    {
      "channel": 2,
      "note": 40,
      "start": 65.3075,
      "duration": 0.0121,
      "velocity": 114,
      "chip": "ym2612"
    },
    {
      "channel": 2,
      "note": 40,
      "start": 65.3196,
      "duration": 0.0125,
      "velocity": 114,
      "chip": "ym2612"
    },
    {
      "channel": 2,
      "note": 40,
      "start": 65.3321,
      "duration": 0.0131,
      "velocity": 114,
      "chip": "ym2612"
    },
    {
      "channel": 2,
      "note": 40,
      "start": 65.3452,
      "duration": 0.013,
      "velocity": 114,
      "chip": "ym2612"
    },
    {
      "channel": 4,
      "note": 65,
      "start": 65.3563,
      "duration": 0.1015,
      "velocity": 74,
      "chip": "ym2612"
    },
    {
      "channel": 2,
      "note": 40,
      "start": 65.3582,
      "duration": 0.0113,
      "velocity": 114,
      "chip": "ym2612"
    },
    {
      "channel": 2,
      "note": 40,
      "start": 65.3696,
      "duration": 0.0125,
      "velocity": 114,
      "chip": "ym2612"
    },
    {
      "channel": 2,
      "note": 40,
      "start": 65.3821,
      "duration": 0.0131,
      "velocity": 114,
      "chip": "ym2612"
    },
    {
      "channel": 2,
      "note": 39,
      "start": 65.3952,
      "duration": 0.0119,
      "velocity": 114,
      "chip": "ym2612"
    },
    {
      "channel": 2,
      "note": 39,
      "start": 65.4071,
      "duration": 0.0125,
      "velocity": 114,
      "chip": "ym2612"
    },
    {
      "channel": 2,
      "note": 39,
      "start": 65.4196,
      "duration": 0.0125,
      "velocity": 114,
      "chip": "ym2612"
    },
    {
      "channel": 1,
      "note": 61,
      "start": 65.4554,
      "duration": 0.087,
      "velocity": 81,
      "chip": "ym2612"
    },
    {
      "channel": 4,
      "note": 70,
      "start": 65.4582,
      "duration": 0.0868,
      "velocity": 74,
      "chip": "ym2612"
    },
    {
      "channel": 2,
      "note": 40,
      "start": 65.4622,
      "duration": 0.0074,
      "velocity": 114,
      "chip": "ym2612"
    },
    {
      "channel": 2,
      "note": 40,
      "start": 65.4696,
      "duration": 0.0125,
      "velocity": 114,
      "chip": "ym2612"
    },
    {
      "channel": 2,
      "note": 40,
      "start": 65.4821,
      "duration": 0.0135,
      "velocity": 114,
      "chip": "ym2612"
    },
    {
      "channel": 2,
      "note": 40,
      "start": 65.4956,
      "duration": 0.0115,
      "velocity": 114,
      "chip": "ym2612"
    },
    {
      "channel": 2,
      "note": 40,
      "start": 65.5071,
      "duration": 0.0125,
      "velocity": 114,
      "chip": "ym2612"
    },
    {
      "channel": 2,
      "note": 40,
      "start": 65.5196,
      "duration": 0.0125,
      "velocity": 114,
      "chip": "ym2612"
    },
    {
      "channel": 2,
      "note": 40,
      "start": 65.5321,
      "duration": 0.0154,
      "velocity": 114,
      "chip": "ym2612"
    },
    {
      "channel": 1,
      "note": 61,
      "start": 65.5429,
      "duration": 0.0996,
      "velocity": 81,
      "chip": "ym2612"
    },
    {
      "channel": 4,
      "note": 72,
      "start": 65.5455,
      "duration": 0.1004,
      "velocity": 74,
      "chip": "ym2612"
    },
    {
      "channel": 2,
      "note": 40,
      "start": 65.5475,
      "duration": 0.0096,
      "velocity": 114,
      "chip": "ym2612"
    },
    {
      "channel": 2,
      "note": 40,
      "start": 65.5571,
      "duration": 0.0125,
      "velocity": 114,
      "chip": "ym2612"
    },
    {
      "channel": 2,
      "note": 40,
      "start": 65.5696,
      "duration": 0.0125,
      "velocity": 114,
      "chip": "ym2612"
    },
    {
      "channel": 2,
      "note": 39,
      "start": 65.5821,
      "duration": 0.0131,
      "velocity": 114,
      "chip": "ym2612"
    },
    {
      "channel": 2,
      "note": 39,
      "start": 65.5952,
      "duration": 0.0119,
      "velocity": 114,
      "chip": "ym2612"
    },
    {
      "channel": 2,
      "note": 39,
      "start": 65.6071,
      "duration": 0.0124,
      "velocity": 114,
      "chip": "ym2612"
    },
    {
      "channel": 1,
      "note": 49,
      "start": 65.643,
      "duration": 0.187,
      "velocity": 81,
      "chip": "ym2612"
    },
    {
      "channel": 4,
      "note": 65,
      "start": 65.6463,
      "duration": 0.0845,
      "velocity": 74,
      "chip": "ym2612"
    },
    {
      "channel": 2,
      "note": 41,
      "start": 65.6524,
      "duration": 0.1843,
      "velocity": 122,
      "chip": "ym2612"
    },
    {
      "channel": 4,
      "note": 68,
      "start": 65.7313,
      "duration": 0.1015,
      "velocity": 74,
      "chip": "ym2612"
    },
    {
      "channel": 1,
      "note": 61,
      "start": 65.8304,
      "duration": 0.0869,
      "velocity": 81,
      "chip": "ym2612"
    },
    {
      "channel": 4,
      "note": 70,
      "start": 65.8332,
      "duration": 0.087,
      "velocity": 74,
      "chip": "ym2612"
    },
    {
      "channel": 2,
      "note": 40,
      "start": 65.8395,
      "duration": 0.0057,
      "velocity": 114,
      "chip": "ym2612"
    },
    {
      "channel": 2,
      "note": 40,
      "start": 65.8452,
      "duration": 0.0119,
      "velocity": 114,
      "chip": "ym2612"
    },
    {
      "channel": 2,
      "note": 40,
      "start": 65.8571,
      "duration": 0.0128,
      "velocity": 114,
      "chip": "ym2612"
    },
    {
      "channel": 2,
      "note": 40,
      "start": 65.8699,
      "duration": 0.0122,
      "velocity": 114,
      "chip": "ym2612"
    },
    {
      "channel": 2,
      "note": 40,
      "start": 65.8821,
      "duration": 0.0131,
      "velocity": 114,
      "chip": "ym2612"
    },
    {
      "channel": 2,
      "note": 40,
      "start": 65.8952,
      "duration": 0.0119,
      "velocity": 114,
      "chip": "ym2612"
    },
    {
      "channel": 2,
      "note": 40,
      "start": 65.9071,
      "duration": 0.0153,
      "velocity": 114,
      "chip": "ym2612"
    },
    {
      "channel": 1,
      "note": 61,
      "start": 65.9178,
      "duration": 0.0998,
      "velocity": 81,
      "chip": "ym2612"
    },
    {
      "channel": 4,
      "note": 67,
      "start": 65.9206,
      "duration": 0.1006,
      "velocity": 74,
      "chip": "ym2612"
    },
    {
      "channel": 2,
      "note": 40,
      "start": 65.9331,
      "duration": 0.0121,
      "velocity": 114,
      "chip": "ym2612"
    },
    {
      "channel": 2,
      "note": 40,
      "start": 65.9452,
      "duration": 0.0119,
      "velocity": 114,
      "chip": "ym2612"
    },
    {
      "channel": 2,
      "note": 40,
      "start": 65.9571,
      "duration": 0.0128,
      "velocity": 114,
      "chip": "ym2612"
    },
    {
      "channel": 2,
      "note": 40,
      "start": 65.9699,
      "duration": 0.0122,
      "velocity": 114,
      "chip": "ym2612"
    },
    {
      "channel": 2,
      "note": 40,
      "start": 65.9821,
      "duration": 0.0131,
      "velocity": 114,
      "chip": "ym2612"
    },
    {
      "channel": 2,
      "note": 40,
      "start": 65.9952,
      "duration": 0.0119,
      "velocity": 114,
      "chip": "ym2612"
    },
    {
      "channel": 2,
      "note": 40,
      "start": 66.0071,
      "duration": 0.0165,
      "velocity": 114,
      "chip": "ym2612"
    },
    {
      "channel": 1,
      "note": 49,
      "start": 66.0182,
      "duration": 0.1864,
      "velocity": 81,
      "chip": "ym2612"
    },
    {
      "channel": 4,
      "note": 65,
      "start": 66.0218,
      "duration": 0.0837,
      "velocity": 74,
      "chip": "ym2612"
    },
    {
      "channel": 2,
      "note": 40,
      "start": 66.0327,
      "duration": 0.0121,
      "velocity": 114,
      "chip": "ym2612"
    },
    {
      "channel": 2,
      "note": 40,
      "start": 66.0448,
      "duration": 0.0119,
      "velocity": 114,
      "chip": "ym2612"
    },
    {
      "channel": 2,
      "note": 40,
      "start": 66.0567,
      "duration": 0.0129,
      "velocity": 114,
      "chip": "ym2612"
    },
    {
      "channel": 2,
      "note": 40,
      "start": 66.0696,
      "duration": 0.0122,
      "velocity": 114,
      "chip": "ym2612"
    },
    {
      "channel": 2,
      "note": 40,
      "start": 66.0818,
      "duration": 0.013,
      "velocity": 114,
      "chip": "ym2612"
    },
    {
      "channel": 2,
      "note": 40,
      "start": 66.0948,
      "duration": 0.013,
      "velocity": 114,
      "chip": "ym2612"
    },
    {
      "channel": 4,
      "note": 75,
      "start": 66.1059,
      "duration": 0.1014,
      "velocity": 74,
      "chip": "ym2612"
    },
    {
      "channel": 2,
      "note": 40,
      "start": 66.1078,
      "duration": 0.0114,
      "velocity": 114,
      "chip": "ym2612"
    },
    {
      "channel": 2,
      "note": 40,
      "start": 66.1193,
      "duration": 0.0125,
      "velocity": 114,
      "chip": "ym2612"
    },
    {
      "channel": 2,
      "note": 40,
      "start": 66.1318,
      "duration": 0.013,
      "velocity": 114,
      "chip": "ym2612"
    },
    {
      "channel": 2,
      "note": 40,
      "start": 66.1448,
      "duration": 0.0122,
      "velocity": 114,
      "chip": "ym2612"
    },
    {
      "channel": 2,
      "note": 39,
      "start": 66.157,
      "duration": 0.0118,
      "velocity": 114,
      "chip": "ym2612"
    },
    {
      "channel": 2,
      "note": 39,
      "start": 66.1689,
      "duration": 0.0125,
      "velocity": 114,
      "chip": "ym2612"
    },
    {
      "channel": 2,
      "note": 39,
      "start": 66.1814,
      "duration": 0.0124,
      "velocity": 114,
      "chip": "ym2612"
    },
    {
      "channel": 1,
      "note": 49,
      "start": 66.2051,
      "duration": 0.1873,
      "velocity": 81,
      "chip": "ym2612"
    },
    {
      "channel": 4,
      "note": 77,
      "start": 66.2078,
      "duration": 0.0851,
      "velocity": 74,
      "chip": "ym2612"
    },
    {
      "channel": 2,
      "note": 40,
      "start": 66.2112,
      "duration": 0.0077,
      "velocity": 114,
      "chip": "ym2612"
    },
    {
      "channel": 2,
      "note": 40,
      "start": 66.2189,
      "duration": 0.0125,
      "velocity": 114,
      "chip": "ym2612"
    },
    {
      "channel": 2,
      "note": 40,
      "start": 66.2314,
      "duration": 0.0135,
      "velocity": 114,
      "chip": "ym2612"
    },
    {
      "channel": 2,
      "note": 40,
      "start": 66.2449,
      "duration": 0.0115,
      "velocity": 114,
      "chip": "ym2612"
    },
    {
      "channel": 2,
      "note": 40,
      "start": 66.2564,
      "duration": 0.0125,
      "velocity": 114,
      "chip": "ym2612"
    },
    {
      "channel": 2,
      "note": 40,
      "start": 66.2689,
      "duration": 0.0125,
      "velocity": 114,
      "chip": "ym2612"
    },
    {
      "channel": 2,
      "note": 40,
      "start": 66.2814,
      "duration": 0.0142,
      "velocity": 114,
      "chip": "ym2612"
    },
    {
      "channel": 4,
      "note": 65,
      "start": 66.2934,
      "duration": 0.1024,
      "velocity": 74,
      "chip": "ym2612"
    },
    {
      "channel": 2,
      "note": 40,
      "start": 66.2956,
      "duration": 0.0107,
      "velocity": 114,
      "chip": "ym2612"
    },
    {
      "channel": 2,
      "note": 40,
      "start": 66.3063,
      "duration": 0.0125,
      "velocity": 114,
      "chip": "ym2612"
    },
    {
      "channel": 2,
      "note": 40,
      "start": 66.3189,
      "duration": 0.0125,
      "velocity": 114,
      "chip": "ym2612"
    },
    {
      "channel": 2,
      "note": 39,
      "start": 66.3314,
      "duration": 0.0129,
      "velocity": 114,
      "chip": "ym2612"
    },
    {
      "channel": 2,
      "note": 39,
      "start": 66.3442,
      "duration": 0.0121,
      "velocity": 114,
      "chip": "ym2612"
    },
    {
      "channel": 2,
      "note": 39,
      "start": 66.3563,
      "duration": 0.0125,
      "velocity": 114,
      "chip": "ym2612"
    },
    {
      "channel": 1,
      "note": 49,
      "start": 66.3929,
      "duration": 0.187,
      "velocity": 81,
      "chip": "ym2612"
    },
    {
      "channel": 4,
      "note": 73,
      "start": 66.3963,
      "duration": 0.0852,
      "velocity": 74,
      "chip": "ym2612"
    },
    {
      "channel": 2,
      "note": 41,
      "start": 66.4021,
      "duration": 0.0832,
      "velocity": 122,
      "chip": "ym2612"
    },
    {
      "channel": 4,
      "note": 75,
      "start": 66.4821,
      "duration": 0.0999,
      "velocity": 74,
      "chip": "ym2612"
    },
    {
      "channel": 2,
      "note": 40,
      "start": 66.4879,
      "duration": 0.0069,
      "velocity": 114,
      "chip": "ym2612"
    },
    {
      "channel": 2,
      "note": 40,
      "start": 66.4948,
      "duration": 0.0119,
      "velocity": 114,
      "chip": "ym2612"
    },
    {
      "channel": 2,
      "note": 40,
      "start": 66.5067,
      "duration": 0.0129,
      "velocity": 114,
      "chip": "ym2612"
    },
    {
      "channel": 2,
      "note": 40,
      "start": 66.5196,
      "duration": 0.0125,
      "velocity": 114,
      "chip": "ym2612"
    },
    {
      "channel": 2,
      "note": 40,
      "start": 66.5321,
      "duration": 0.0131,
      "velocity": 114,
      "chip": "ym2612"
    },
    {
      "channel": 2,
      "note": 40,
      "start": 66.5452,
      "duration": 0.0119,
      "velocity": 114,
      "chip": "ym2612"
    },
    {
      "channel": 2,
      "note": 40,
      "start": 66.5571,
      "duration": 0.0125,
      "velocity": 114,
      "chip": "ym2612"
    },
    {
      "channel": 2,
      "note": 40,
      "start": 66.5696,
      "duration": 0.0148,
      "velocity": 114,
      "chip": "ym2612"
    },
    {
      "channel": 1,
      "note": 49,
      "start": 66.5804,
      "duration": 0.187,
      "velocity": 81,
      "chip": "ym2612"
    },
    {
      "channel": 4,
      "note": 65,
      "start": 66.5824,
      "duration": 0.0859,
      "velocity": 74,
      "chip": "ym2612"
    },
    {
      "channel": 2,
      "note": 40,
      "start": 66.5844,
      "duration": 0.0108,
      "velocity": 114,
      "chip": "ym2612"
    },
    {
      "channel": 2,
      "note": 40,
      "start": 66.5952,
      "duration": 0.0119,
      "velocity": 114,
      "chip": "ym2612"
    },
    {
      "channel": 2,
      "note": 39,
      "start": 66.6071,
      "duration": 0.0125,
      "velocity": 114,
      "chip": "ym2612"
    },
    {
      "channel": 2,
      "note": 39,
      "start": 66.6196,
      "duration": 0.0125,
      "velocity": 114,
      "chip": "ym2612"
    },
    {
      "channel": 2,
      "note": 39,
      "start": 66.6321,
      "duration": 0.013,
      "velocity": 114,
      "chip": "ym2612"
    },
    {
      "channel": 4,
      "note": 72,
      "start": 66.6688,
      "duration": 0.1014,
      "velocity": 74,
      "chip": "ym2612"
    },
    {
      "channel": 1,
      "note": 49,
      "start": 66.7678,
      "duration": 0.1871,
      "velocity": 81,
      "chip": "ym2612"
    },
    {
      "channel": 4,
      "note": 73,
      "start": 66.7707,
      "duration": 0.0851,
      "velocity": 74,
      "chip": "ym2612"
    },
    {
      "channel": 2,
      "note": 40,
      "start": 66.774,
      "duration": 0.0081,
      "velocity": 114,
      "chip": "ym2612"
    },
    {
      "channel": 2,
      "note": 40,
      "start": 66.7821,
      "duration": 0.0131,
      "velocity": 114,
      "chip": "ym2612"
    },
    {
      "channel": 2,
      "note": 40,
      "start": 66.7952,
      "duration": 0.0123,
      "velocity": 114,
      "chip": "ym2612"
    },
    {
      "channel": 2,
      "note": 40,
      "start": 66.8075,
      "duration": 0.0121,
      "velocity": 114,
      "chip": "ym2612"
    },
    {
      "channel": 2,
      "note": 40,
      "start": 66.8196,
      "duration": 0.0125,
      "velocity": 114,
      "chip": "ym2612"
    },
    {
      "channel": 2,
      "note": 40,
      "start": 66.8321,
      "duration": 0.0131,
      "velocity": 114,
      "chip": "ym2612"
    },
    {
      "channel": 2,
      "note": 40,
      "start": 66.8452,
      "duration": 0.013,
      "velocity": 114,
      "chip": "ym2612"
    },
    {
      "channel": 4,
      "note": 65,
      "start": 66.8563,
      "duration": 0.1015,
      "velocity": 74,
      "chip": "ym2612"
    },
    {
      "channel": 2,
      "note": 40,
      "start": 66.8582,
      "duration": 0.0113,
      "velocity": 114,
      "chip": "ym2612"
    },
    {
      "channel": 2,
      "note": 40,
      "start": 66.8696,
      "duration": 0.0125,
      "velocity": 114,
      "chip": "ym2612"
    },
    {
      "channel": 2,
      "note": 40,
      "start": 66.8821,
      "duration": 0.0131,
      "velocity": 114,
      "chip": "ym2612"
    },
    {
      "channel": 2,
      "note": 39,
      "start": 66.8952,
      "duration": 0.0119,
      "velocity": 114,
      "chip": "ym2612"
    },
    {
      "channel": 2,
      "note": 39,
      "start": 66.9071,
      "duration": 0.0125,
      "velocity": 114,
      "chip": "ym2612"
    },
    {
      "channel": 2,
      "note": 39,
      "start": 66.9196,
      "duration": 0.0125,
      "velocity": 114,
      "chip": "ym2612"
    },
    {
      "channel": 1,
      "note": 61,
      "start": 66.9554,
      "duration": 0.087,
      "velocity": 81,
      "chip": "ym2612"
    },
    {
      "channel": 4,
      "note": 70,
      "start": 66.9582,
      "duration": 0.0868,
      "velocity": 74,
      "chip": "ym2612"
    },
    {
      "channel": 2,
      "note": 40,
      "start": 66.9622,
      "duration": 0.0074,
      "velocity": 114,
      "chip": "ym2612"
    },
    {
      "channel": 2,
      "note": 40,
      "start": 66.9696,
      "duration": 0.0125,
      "velocity": 114,
      "chip": "ym2612"
    },
    {
      "channel": 2,
      "note": 40,
      "start": 66.9821,
      "duration": 0.0135,
      "velocity": 114,
      "chip": "ym2612"
    },
    {
      "channel": 2,
      "note": 40,
      "start": 66.9956,
      "duration": 0.0115,
      "velocity": 114,
      "chip": "ym2612"
    },
    {
      "channel": 2,
      "note": 40,
      "start": 67.0071,
      "duration": 0.0125,
      "velocity": 114,
      "chip": "ym2612"
    },
    {
      "channel": 2,
      "note": 40,
      "start": 67.0196,
      "duration": 0.0125,
      "velocity": 114,
      "chip": "ym2612"
    },
    {
      "channel": 2,
      "note": 40,
      "start": 67.0321,
      "duration": 0.0154,
      "velocity": 114,
      "chip": "ym2612"
    },
    {
      "channel": 1,
      "note": 61,
      "start": 67.0429,
      "duration": 0.0996,
      "velocity": 81,
      "chip": "ym2612"
    },
    {
      "channel": 4,
      "note": 72,
      "start": 67.0455,
      "duration": 0.1004,
      "velocity": 74,
      "chip": "ym2612"
    },
    {
      "channel": 2,
      "note": 40,
      "start": 67.0475,
      "duration": 0.0096,
      "velocity": 114,
      "chip": "ym2612"
    },
    {
      "channel": 2,
      "note": 40,
      "start": 67.0571,
      "duration": 0.0125,
      "velocity": 114,
      "chip": "ym2612"
    },
    {
      "channel": 2,
      "note": 40,
      "start": 67.0696,
      "duration": 0.0125,
      "velocity": 114,
      "chip": "ym2612"
    },
    {
      "channel": 2,
      "note": 39,
      "start": 67.0821,
      "duration": 0.0131,
      "velocity": 114,
      "chip": "ym2612"
    },
    {
      "channel": 2,
      "note": 39,
      "start": 67.0952,
      "duration": 0.0119,
      "velocity": 114,
      "chip": "ym2612"
    },
    {
      "channel": 2,
      "note": 39,
      "start": 67.1071,
      "duration": 0.0124,
      "velocity": 114,
      "chip": "ym2612"
    },
    {
      "channel": 1,
      "note": 49,
      "start": 67.143,
      "duration": 0.187,
      "velocity": 81,
      "chip": "ym2612"
    },
    {
      "channel": 4,
      "note": 65,
      "start": 67.1463,
      "duration": 0.0845,
      "velocity": 74,
      "chip": "ym2612"
    },
    {
      "channel": 2,
      "note": 41,
      "start": 67.1524,
      "duration": 0.1843,
      "velocity": 122,
      "chip": "ym2612"
    },
    {
      "channel": 4,
      "note": 68,
      "start": 67.2313,
      "duration": 0.1015,
      "velocity": 74,
      "chip": "ym2612"
    },
    {
      "channel": 1,
      "note": 61,
      "start": 67.3304,
      "duration": 0.087,
      "velocity": 81,
      "chip": "ym2612"
    },
    {
      "channel": 4,
      "note": 70,
      "start": 67.3332,
      "duration": 0.087,
      "velocity": 74,
      "chip": "ym2612"
    },
    {
      "channel": 2,
      "note": 40,
      "start": 67.3395,
      "duration": 0.0057,
      "velocity": 114,
      "chip": "ym2612"
    },
    {
      "channel": 2,
      "note": 40,
      "start": 67.3452,
      "duration": 0.0119,
      "velocity": 114,
      "chip": "ym2612"
    },
    {
      "channel": 2,
      "note": 40,
      "start": 67.3571,
      "duration": 0.0128,
      "velocity": 114,
      "chip": "ym2612"
    },
    {
      "channel": 2,
      "note": 40,
      "start": 67.3699,
      "duration": 0.0122,
      "velocity": 114,
      "chip": "ym2612"
    },
    {
      "channel": 2,
      "note": 40,
      "start": 67.3821,
      "duration": 0.0131,
      "velocity": 114,
      "chip": "ym2612"
    },
    {
      "channel": 2,
      "note": 40,
      "start": 67.3952,
      "duration": 0.0119,
      "velocity": 114,
      "chip": "ym2612"
    },
    {
      "channel": 2,
      "note": 40,
      "start": 67.4071,
      "duration": 0.0154,
      "velocity": 114,
      "chip": "ym2612"
    },
    {
      "channel": 1,
      "note": 61,
      "start": 67.4179,
      "duration": 0.0998,
      "velocity": 81,
      "chip": "ym2612"
    },
    {
      "channel": 4,
      "note": 67,
      "start": 67.4207,
      "duration": 0.1006,
      "velocity": 74,
      "chip": "ym2612"
    },
    {
      "channel": 2,
      "note": 40,
      "start": 67.4331,
      "duration": 0.0121,
      "velocity": 114,
      "chip": "ym2612"
    },
    {
      "channel": 2,
      "note": 40,
      "start": 67.4452,
      "duration": 0.0119,
      "velocity": 114,
      "chip": "ym2612"
    },
    {
      "channel": 2,
      "note": 40,
      "start": 67.4571,
      "duration": 0.0128,
      "velocity": 114,
      "chip": "ym2612"
    },
    {
      "channel": 2,
      "note": 40,
      "start": 67.4699,
      "duration": 0.0122,
      "velocity": 114,
      "chip": "ym2612"
    },
    {
      "channel": 2,
      "note": 40,
      "start": 67.4821,
      "duration": 0.0131,
      "velocity": 114,
      "chip": "ym2612"
    },
    {
      "channel": 2,
      "note": 40,
      "start": 67.4952,
      "duration": 0.0119,
      "velocity": 114,
      "chip": "ym2612"
    },
    {
      "channel": 2,
      "note": 40,
      "start": 67.5071,
      "duration": 0.0165,
      "velocity": 114,
      "chip": "ym2612"
    },
    {
      "channel": 1,
      "note": 51,
      "start": 67.5182,
      "duration": 0.1863,
      "velocity": 81,
      "chip": "ym2612"
    },
    {
      "channel": 4,
      "note": 61,
      "start": 67.5219,
      "duration": 0.0836,
      "velocity": 74,
      "chip": "ym2612"
    },
    {
      "channel": 2,
      "note": 40,
      "start": 67.5327,
      "duration": 0.0121,
      "velocity": 114,
      "chip": "ym2612"
    },
    {
      "channel": 2,
      "note": 40,
      "start": 67.5448,
      "duration": 0.0119,
      "velocity": 114,
      "chip": "ym2612"
    },
    {
      "channel": 2,
      "note": 40,
      "start": 67.5567,
      "duration": 0.0129,
      "velocity": 114,
      "chip": "ym2612"
    },
    {
      "channel": 2,
      "note": 40,
      "start": 67.5696,
      "duration": 0.0122,
      "velocity": 114,
      "chip": "ym2612"
    },
    {
      "channel": 2,
      "note": 40,
      "start": 67.5818,
      "duration": 0.013,
      "velocity": 114,
      "chip": "ym2612"
    },
    {
      "channel": 2,
      "note": 40,
      "start": 67.5948,
      "duration": 0.013,
      "velocity": 114,
      "chip": "ym2612"
    },
    {
      "channel": 4,
      "note": 73,
      "start": 67.6059,
      "duration": 0.1014,
      "velocity": 74,
      "chip": "ym2612"
    },
    {
      "channel": 2,
      "note": 40,
      "start": 67.6078,
      "duration": 0.0113,
      "velocity": 114,
      "chip": "ym2612"
    },
    {
      "channel": 2,
      "note": 40,
      "start": 67.6192,
      "duration": 0.0126,
      "velocity": 114,
      "chip": "ym2612"
    },
    {
      "channel": 2,
      "note": 40,
      "start": 67.6318,
      "duration": 0.013,
      "velocity": 114,
      "chip": "ym2612"
    },
    {
      "channel": 2,
      "note": 40,
      "start": 67.6448,
      "duration": 0.0122,
      "velocity": 114,
      "chip": "ym2612"
    },
    {
      "channel": 2,
      "note": 39,
      "start": 67.657,
      "duration": 0.0118,
      "velocity": 114,
      "chip": "ym2612"
    },
    {
      "channel": 2,
      "note": 39,
      "start": 67.6689,
      "duration": 0.0125,
      "velocity": 114,
      "chip": "ym2612"
    },
    {
      "channel": 2,
      "note": 39,
      "start": 67.6814,
      "duration": 0.0124,
      "velocity": 114,
      "chip": "ym2612"
    },
    {
      "channel": 1,
      "note": 51,
      "start": 67.705,
      "duration": 0.1874,
      "velocity": 81,
      "chip": "ym2612"
    },
    {
      "channel": 4,
      "note": 75,
      "start": 67.7078,
      "duration": 0.0851,
      "velocity": 74,
      "chip": "ym2612"
    },
    {
      "channel": 2,
      "note": 40,
      "start": 67.7112,
      "duration": 0.0077,
      "velocity": 114,
      "chip": "ym2612"
    },
    {
      "channel": 2,
      "note": 40,
      "start": 67.7189,
      "duration": 0.0125,
      "velocity": 114,
      "chip": "ym2612"
    },
    {
      "channel": 2,
      "note": 40,
      "start": 67.7314,
      "duration": 0.0135,
      "velocity": 114,
      "chip": "ym2612"
    },
    {
      "channel": 2,
      "note": 40,
      "start": 67.7449,
      "duration": 0.0115,
      "velocity": 114,
      "chip": "ym2612"
    },
    {
      "channel": 2,
      "note": 40,
      "start": 67.7564,
      "duration": 0.0125,
      "velocity": 114,
      "chip": "ym2612"
    },
    {
      "channel": 2,
      "note": 40,
      "start": 67.7689,
      "duration": 0.0125,
      "velocity": 114,
      "chip": "ym2612"
    },
    {
      "channel": 2,
      "note": 40,
      "start": 67.7814,
      "duration": 0.0142,
      "velocity": 114,
      "chip": "ym2612"
    },
    {
      "channel": 4,
      "note": 61,
      "start": 67.7934,
      "duration": 0.1024,
      "velocity": 74,
      "chip": "ym2612"
    },
    {
      "channel": 2,
      "note": 40,
      "start": 67.7956,
      "duration": 0.0107,
      "velocity": 114,
      "chip": "ym2612"
    },
    {
      "channel": 2,
      "note": 40,
      "start": 67.8063,
      "duration": 0.0125,
      "velocity": 114,
      "chip": "ym2612"
    },
    {
      "channel": 2,
      "note": 40,
      "start": 67.8189,
      "duration": 0.0125,
      "velocity": 114,
      "chip": "ym2612"
    },
    {
      "channel": 2,
      "note": 39,
      "start": 67.8314,
      "duration": 0.0129,
      "velocity": 114,
      "chip": "ym2612"
    },
    {
      "channel": 2,
      "note": 39,
      "start": 67.8442,
      "duration": 0.0121,
      "velocity": 114,
      "chip": "ym2612"
    },
    {
      "channel": 2,
      "note": 39,
      "start": 67.8563,
      "duration": 0.0125,
      "velocity": 114,
      "chip": "ym2612"
    },
    {
      "channel": 1,
      "note": 51,
      "start": 67.8929,
      "duration": 0.187,
      "velocity": 81,
      "chip": "ym2612"
    },
    {
      "channel": 4,
      "note": 72,
      "start": 67.8963,
      "duration": 0.0852,
      "velocity": 74,
      "chip": "ym2612"
    },
    {
      "channel": 2,
      "note": 41,
      "start": 67.9021,
      "duration": 0.0832,
      "velocity": 122,
      "chip": "ym2612"
    },
    {
      "channel": 4,
      "note": 73,
      "start": 67.9821,
      "duration": 0.0999,
      "velocity": 74,
      "chip": "ym2612"
    },
    {
      "channel": 2,
      "note": 40,
      "start": 67.9879,
      "duration": 0.0069,
      "velocity": 114,
      "chip": "ym2612"
    },
    {
      "channel": 2,
      "note": 40,
      "start": 67.9948,
      "duration": 0.0119,
      "velocity": 114,
      "chip": "ym2612"
    },
    {
      "channel": 2,
      "note": 40,
      "start": 68.0067,
      "duration": 0.0129,
      "velocity": 114,
      "chip": "ym2612"
    },
    {
      "channel": 2,
      "note": 40,
      "start": 68.0196,
      "duration": 0.0125,
      "velocity": 114,
      "chip": "ym2612"
    },
    {
      "channel": 2,
      "note": 40,
      "start": 68.0321,
      "duration": 0.0131,
      "velocity": 114,
      "chip": "ym2612"
    },
    {
      "channel": 2,
      "note": 40,
      "start": 68.0452,
      "duration": 0.0119,
      "velocity": 114,
      "chip": "ym2612"
    },
    {
      "channel": 2,
      "note": 40,
      "start": 68.0571,
      "duration": 0.0125,
      "velocity": 114,
      "chip": "ym2612"
    },
    {
      "channel": 2,
      "note": 40,
      "start": 68.0696,
      "duration": 0.0148,
      "velocity": 114,
      "chip": "ym2612"
    },
    {
      "channel": 1,
      "note": 51,
      "start": 68.0804,
      "duration": 0.187,
      "velocity": 81,
      "chip": "ym2612"
    },
    {
      "channel": 4,
      "note": 61,
      "start": 68.0824,
      "duration": 0.0859,
      "velocity": 74,
      "chip": "ym2612"
    },
    {
      "channel": 2,
      "note": 40,
      "start": 68.0844,
      "duration": 0.0108,
      "velocity": 114,
      "chip": "ym2612"
    },
    {
      "channel": 2,
      "note": 40,
      "start": 68.0952,
      "duration": 0.0119,
      "velocity": 114,
      "chip": "ym2612"
    },
    {
      "channel": 2,
      "note": 39,
      "start": 68.1071,
      "duration": 0.0125,
      "velocity": 114,
      "chip": "ym2612"
    },
    {
      "channel": 2,
      "note": 39,
      "start": 68.1196,
      "duration": 0.0125,
      "velocity": 114,
      "chip": "ym2612"
    },
    {
      "channel": 2,
      "note": 39,
      "start": 68.1321,
      "duration": 0.013,
      "velocity": 114,
      "chip": "ym2612"
    },
    {
      "channel": 4,
      "note": 70,
      "start": 68.1688,
      "duration": 0.1014,
      "velocity": 74,
      "chip": "ym2612"
    },
    {
      "channel": 1,
      "note": 51,
      "start": 68.2678,
      "duration": 0.1871,
      "velocity": 81,
      "chip": "ym2612"
    },
    {
      "channel": 4,
      "note": 72,
      "start": 68.2707,
      "duration": 0.0851,
      "velocity": 74,
      "chip": "ym2612"
    },
    {
      "channel": 2,
      "note": 40,
      "start": 68.274,
      "duration": 0.0081,
      "velocity": 114,
      "chip": "ym2612"
    },
    {
      "channel": 2,
      "note": 40,
      "start": 68.2821,
      "duration": 0.0131,
      "velocity": 114,
      "chip": "ym2612"
    },
    {
      "channel": 2,
      "note": 40,
      "start": 68.2952,
      "duration": 0.0123,
      "velocity": 114,
      "chip": "ym2612"
    },
    {
      "channel": 2,
      "note": 40,
      "start": 68.3075,
      "duration": 0.0121,
      "velocity": 114,
      "chip": "ym2612"
    },
    {
      "channel": 2,
      "note": 40,
      "start": 68.3196,
      "duration": 0.0125,
      "velocity": 114,
      "chip": "ym2612"
    },
    {
      "channel": 2,
      "note": 40,
      "start": 68.3321,
      "duration": 0.0131,
      "velocity": 114,
      "chip": "ym2612"
    },
    {
      "channel": 2,
      "note": 40,
      "start": 68.3452,
      "duration": 0.013,
      "velocity": 114,
      "chip": "ym2612"
    },
    {
      "channel": 4,
      "note": 61,
      "start": 68.3563,
      "duration": 0.1015,
      "velocity": 74,
      "chip": "ym2612"
    },
    {
      "channel": 2,
      "note": 40,
      "start": 68.3582,
      "duration": 0.0113,
      "velocity": 114,
      "chip": "ym2612"
    },
    {
      "channel": 2,
      "note": 40,
      "start": 68.3696,
      "duration": 0.0125,
      "velocity": 114,
      "chip": "ym2612"
    },
    {
      "channel": 2,
      "note": 40,
      "start": 68.3821,
      "duration": 0.0131,
      "velocity": 114,
      "chip": "ym2612"
    },
    {
      "channel": 2,
      "note": 39,
      "start": 68.3952,
      "duration": 0.0119,
      "velocity": 114,
      "chip": "ym2612"
    },
    {
      "channel": 2,
      "note": 39,
      "start": 68.4071,
      "duration": 0.0125,
      "velocity": 114,
      "chip": "ym2612"
    },
    {
      "channel": 2,
      "note": 39,
      "start": 68.4196,
      "duration": 0.0125,
      "velocity": 114,
      "chip": "ym2612"
    },
    {
      "channel": 1,
      "note": 63,
      "start": 68.4554,
      "duration": 0.087,
      "velocity": 81,
      "chip": "ym2612"
    },
    {
      "channel": 4,
      "note": 68,
      "start": 68.4582,
      "duration": 0.0868,
      "velocity": 74,
      "chip": "ym2612"
    },
    {
      "channel": 2,
      "note": 40,
      "start": 68.4622,
      "duration": 0.0074,
      "velocity": 114,
      "chip": "ym2612"
    },
    {
      "channel": 2,
      "note": 40,
      "start": 68.4696,
      "duration": 0.0125,
      "velocity": 114,
      "chip": "ym2612"
    },
    {
      "channel": 2,
      "note": 40,
      "start": 68.4821,
      "duration": 0.0135,
      "velocity": 114,
      "chip": "ym2612"
    },
    {
      "channel": 2,
      "note": 40,
      "start": 68.4956,
      "duration": 0.0115,
      "velocity": 114,
      "chip": "ym2612"
    },
    {
      "channel": 2,
      "note": 40,
      "start": 68.5071,
      "duration": 0.0125,
      "velocity": 114,
      "chip": "ym2612"
    },
    {
      "channel": 2,
      "note": 40,
      "start": 68.5196,
      "duration": 0.0125,
      "velocity": 114,
      "chip": "ym2612"
    },
    {
      "channel": 2,
      "note": 40,
      "start": 68.5321,
      "duration": 0.0154,
      "velocity": 114,
      "chip": "ym2612"
    },
    {
      "channel": 1,
      "note": 63,
      "start": 68.5429,
      "duration": 0.0996,
      "velocity": 81,
      "chip": "ym2612"
    },
    {
      "channel": 4,
      "note": 70,
      "start": 68.5455,
      "duration": 0.1004,
      "velocity": 74,
      "chip": "ym2612"
    },
    {
      "channel": 2,
      "note": 40,
      "start": 68.5475,
      "duration": 0.0096,
      "velocity": 114,
      "chip": "ym2612"
    },
    {
      "channel": 2,
      "note": 40,
      "start": 68.5571,
      "duration": 0.0125,
      "velocity": 114,
      "chip": "ym2612"
    },
    {
      "channel": 2,
      "note": 40,
      "start": 68.5696,
      "duration": 0.0125,
      "velocity": 114,
      "chip": "ym2612"
    },
    {
      "channel": 2,
      "note": 39,
      "start": 68.5821,
      "duration": 0.0131,
      "velocity": 114,
      "chip": "ym2612"
    },
    {
      "channel": 2,
      "note": 39,
      "start": 68.5952,
      "duration": 0.0119,
      "velocity": 114,
      "chip": "ym2612"
    },
    {
      "channel": 2,
      "note": 39,
      "start": 68.6071,
      "duration": 0.0124,
      "velocity": 114,
      "chip": "ym2612"
    },
    {
      "channel": 1,
      "note": 51,
      "start": 68.643,
      "duration": 0.187,
      "velocity": 81,
      "chip": "ym2612"
    },
    {
      "channel": 4,
      "note": 61,
      "start": 68.6463,
      "duration": 0.0845,
      "velocity": 74,
      "chip": "ym2612"
    },
    {
      "channel": 2,
      "note": 41,
      "start": 68.6524,
      "duration": 0.1843,
      "velocity": 122,
      "chip": "ym2612"
    },
    {
      "channel": 4,
      "note": 67,
      "start": 68.7313,
      "duration": 0.1015,
      "velocity": 74,
      "chip": "ym2612"
    },
    {
      "channel": 1,
      "note": 63,
      "start": 68.8304,
      "duration": 0.087,
      "velocity": 81,
      "chip": "ym2612"
    },
    {
      "channel": 4,
      "note": 68,
      "start": 68.8332,
      "duration": 0.087,
      "velocity": 74,
      "chip": "ym2612"
    },
    {
      "channel": 2,
      "note": 40,
      "start": 68.8395,
      "duration": 0.0057,
      "velocity": 114,
      "chip": "ym2612"
    },
    {
      "channel": 2,
      "note": 40,
      "start": 68.8452,
      "duration": 0.0119,
      "velocity": 114,
      "chip": "ym2612"
    },
    {
      "channel": 2,
      "note": 40,
      "start": 68.8571,
      "duration": 0.0128,
      "velocity": 114,
      "chip": "ym2612"
    },
    {
      "channel": 2,
      "note": 40,
      "start": 68.8699,
      "duration": 0.0122,
      "velocity": 114,
      "chip": "ym2612"
    },
    {
      "channel": 2,
      "note": 40,
      "start": 68.8821,
      "duration": 0.0131,
      "velocity": 114,
      "chip": "ym2612"
    },
    {
      "channel": 2,
      "note": 40,
      "start": 68.8952,
      "duration": 0.0119,
      "velocity": 114,
      "chip": "ym2612"
    },
    {
      "channel": 2,
      "note": 40,
      "start": 68.9071,
      "duration": 0.0154,
      "velocity": 114,
      "chip": "ym2612"
    },
    {
      "channel": 1,
      "note": 63,
      "start": 68.9178,
      "duration": 0.0998,
      "velocity": 81,
      "chip": "ym2612"
    },
    {
      "channel": 4,
      "note": 65,
      "start": 68.9207,
      "duration": 0.1006,
      "velocity": 74,
      "chip": "ym2612"
    },
    {
      "channel": 2,
      "note": 40,
      "start": 68.9331,
      "duration": 0.0121,
      "velocity": 114,
      "chip": "ym2612"
    },
    {
      "channel": 2,
      "note": 40,
      "start": 68.9452,
      "duration": 0.0119,
      "velocity": 114,
      "chip": "ym2612"
    },
    {
      "channel": 2,
      "note": 40,
      "start": 68.9571,
      "duration": 0.0128,
      "velocity": 114,
      "chip": "ym2612"
    },
    {
      "channel": 2,
      "note": 40,
      "start": 68.9699,
      "duration": 0.0122,
      "velocity": 114,
      "chip": "ym2612"
    },
    {
      "channel": 2,
      "note": 40,
      "start": 68.9821,
      "duration": 0.0131,
      "velocity": 114,
      "chip": "ym2612"
    },
    {
      "channel": 2,
      "note": 40,
      "start": 68.9952,
      "duration": 0.0119,
      "velocity": 114,
      "chip": "ym2612"
    },
    {
      "channel": 2,
      "note": 40,
      "start": 69.0071,
      "duration": 0.0164,
      "velocity": 114,
      "chip": "ym2612"
    },
    {
      "channel": 1,
      "note": 51,
      "start": 69.0181,
      "duration": 0.1865,
      "velocity": 81,
      "chip": "ym2612"
    },
    {
      "channel": 4,
      "note": 61,
      "start": 69.0217,
      "duration": 0.0837,
      "velocity": 74,
      "chip": "ym2612"
    },
    {
      "channel": 2,
      "note": 40,
      "start": 69.0327,
      "duration": 0.0121,
      "velocity": 114,
      "chip": "ym2612"
    },
    {
      "channel": 2,
      "note": 40,
      "start": 69.0448,
      "duration": 0.0119,
      "velocity": 114,
      "chip": "ym2612"
    },
    {
      "channel": 2,
      "note": 40,
      "start": 69.0567,
      "duration": 0.0129,
      "velocity": 114,
      "chip": "ym2612"
    },
    {
      "channel": 2,
      "note": 40,
      "start": 69.0696,
      "duration": 0.0122,
      "velocity": 114,
      "chip": "ym2612"
    },
    {
      "channel": 2,
      "note": 40,
      "start": 69.0818,
      "duration": 0.013,
      "velocity": 114,
      "chip": "ym2612"
    },
    {
      "channel": 2,
      "note": 40,
      "start": 69.0948,
      "duration": 0.013,
      "velocity": 114,
      "chip": "ym2612"
    },
    {
      "channel": 4,
      "note": 73,
      "start": 69.1059,
      "duration": 0.1014,
      "velocity": 74,
      "chip": "ym2612"
    },
    {
      "channel": 2,
      "note": 40,
      "start": 69.1078,
      "duration": 0.0113,
      "velocity": 114,
      "chip": "ym2612"
    },
    {
      "channel": 2,
      "note": 40,
      "start": 69.1192,
      "duration": 0.0126,
      "velocity": 114,
      "chip": "ym2612"
    },
    {
      "channel": 2,
      "note": 40,
      "start": 69.1318,
      "duration": 0.013,
      "velocity": 114,
      "chip": "ym2612"
    },
    {
      "channel": 2,
      "note": 40,
      "start": 69.1448,
      "duration": 0.0122,
      "velocity": 114,
      "chip": "ym2612"
    },
    {
      "channel": 2,
      "note": 39,
      "start": 69.157,
      "duration": 0.0119,
      "velocity": 114,
      "chip": "ym2612"
    },
    {
      "channel": 2,
      "note": 39,
      "start": 69.1689,
      "duration": 0.0125,
      "velocity": 114,
      "chip": "ym2612"
    },
    {
      "channel": 2,
      "note": 39,
      "start": 69.1814,
      "duration": 0.0124,
      "velocity": 114,
      "chip": "ym2612"
    },
    {
      "channel": 1,
      "note": 51,
      "start": 69.205,
      "duration": 0.1874,
      "velocity": 81,
      "chip": "ym2612"
    },
    {
      "channel": 4,
      "note": 75,
      "start": 69.2078,
      "duration": 0.0851,
      "velocity": 74,
      "chip": "ym2612"
    },
    {
      "channel": 2,
      "note": 40,
      "start": 69.2112,
      "duration": 0.0077,
      "velocity": 114,
      "chip": "ym2612"
    },
    {
      "channel": 2,
      "note": 40,
      "start": 69.2189,
      "duration": 0.0125,
      "velocity": 114,
      "chip": "ym2612"
    },
    {
      "channel": 2,
      "note": 40,
      "start": 69.2314,
      "duration": 0.0135,
      "velocity": 114,
      "chip": "ym2612"
    },
    {
      "channel": 2,
      "note": 40,
      "start": 69.2449,
      "duration": 0.0115,
      "velocity": 114,
      "chip": "ym2612"
    },
    {
      "channel": 2,
      "note": 40,
      "start": 69.2563,
      "duration": 0.0125,
      "velocity": 114,
      "chip": "ym2612"
    },
    {
      "channel": 2,
      "note": 40,
      "start": 69.2689,
      "duration": 0.0125,
      "velocity": 114,
      "chip": "ym2612"
    },
    {
      "channel": 2,
      "note": 40,
      "start": 69.2814,
      "duration": 0.0142,
      "velocity": 114,
      "chip": "ym2612"
    },
    {
      "channel": 4,
      "note": 61,
      "start": 69.2934,
      "duration": 0.1024,
      "velocity": 74,
      "chip": "ym2612"
    },
    {
      "channel": 2,
      "note": 40,
      "start": 69.2956,
      "duration": 0.0107,
      "velocity": 114,
      "chip": "ym2612"
    },
    {
      "channel": 2,
      "note": 40,
      "start": 69.3063,
      "duration": 0.0125,
      "velocity": 114,
      "chip": "ym2612"
    },
    {
      "channel": 2,
      "note": 40,
      "start": 69.3189,
      "duration": 0.0125,
      "velocity": 114,
      "chip": "ym2612"
    },
    {
      "channel": 2,
      "note": 39,
      "start": 69.3314,
      "duration": 0.0129,
      "velocity": 114,
      "chip": "ym2612"
    },
    {
      "channel": 2,
      "note": 39,
      "start": 69.3442,
      "duration": 0.0121,
      "velocity": 114,
      "chip": "ym2612"
    },
    {
      "channel": 2,
      "note": 39,
      "start": 69.3563,
      "duration": 0.0125,
      "velocity": 114,
      "chip": "ym2612"
    },
    {
      "channel": 1,
      "note": 51,
      "start": 69.3929,
      "duration": 0.187,
      "velocity": 81,
      "chip": "ym2612"
    },
    {
      "channel": 4,
      "note": 72,
      "start": 69.3963,
      "duration": 0.0852,
      "velocity": 74,
      "chip": "ym2612"
    },
    {
      "channel": 2,
      "note": 41,
      "start": 69.4021,
      "duration": 0.0832,
      "velocity": 122,
      "chip": "ym2612"
    },
    {
      "channel": 4,
      "note": 73,
      "start": 69.4821,
      "duration": 0.0999,
      "velocity": 74,
      "chip": "ym2612"
    },
    {
      "channel": 2,
      "note": 40,
      "start": 69.4879,
      "duration": 0.0069,
      "velocity": 114,
      "chip": "ym2612"
    },
    {
      "channel": 2,
      "note": 40,
      "start": 69.4948,
      "duration": 0.0119,
      "velocity": 114,
      "chip": "ym2612"
    },
    {
      "channel": 2,
      "note": 40,
      "start": 69.5067,
      "duration": 0.0129,
      "velocity": 114,
      "chip": "ym2612"
    },
    {
      "channel": 2,
      "note": 40,
      "start": 69.5196,
      "duration": 0.0125,
      "velocity": 114,
      "chip": "ym2612"
    },
    {
      "channel": 2,
      "note": 40,
      "start": 69.5321,
      "duration": 0.0131,
      "velocity": 114,
      "chip": "ym2612"
    },
    {
      "channel": 2,
      "note": 40,
      "start": 69.5452,
      "duration": 0.0119,
      "velocity": 114,
      "chip": "ym2612"
    },
    {
      "channel": 2,
      "note": 40,
      "start": 69.5571,
      "duration": 0.0125,
      "velocity": 114,
      "chip": "ym2612"
    },
    {
      "channel": 2,
      "note": 40,
      "start": 69.5696,
      "duration": 0.0148,
      "velocity": 114,
      "chip": "ym2612"
    },
    {
      "channel": 1,
      "note": 51,
      "start": 69.5804,
      "duration": 0.187,
      "velocity": 81,
      "chip": "ym2612"
    },
    {
      "channel": 4,
      "note": 61,
      "start": 69.5825,
      "duration": 0.0858,
      "velocity": 74,
      "chip": "ym2612"
    },
    {
      "channel": 2,
      "note": 40,
      "start": 69.5844,
      "duration": 0.0108,
      "velocity": 114,
      "chip": "ym2612"
    },
    {
      "channel": 2,
      "note": 40,
      "start": 69.5952,
      "duration": 0.0119,
      "velocity": 114,
      "chip": "ym2612"
    },
    {
      "channel": 2,
      "note": 39,
      "start": 69.6071,
      "duration": 0.0125,
      "velocity": 114,
      "chip": "ym2612"
    },
    {
      "channel": 2,
      "note": 39,
      "start": 69.6196,
      "duration": 0.0125,
      "velocity": 114,
      "chip": "ym2612"
    },
    {
      "channel": 2,
      "note": 39,
      "start": 69.6321,
      "duration": 0.013,
      "velocity": 114,
      "chip": "ym2612"
    },
    {
      "channel": 4,
      "note": 70,
      "start": 69.6688,
      "duration": 0.1014,
      "velocity": 74,
      "chip": "ym2612"
    },
    {
      "channel": 1,
      "note": 51,
      "start": 69.7678,
      "duration": 0.1871,
      "velocity": 81,
      "chip": "ym2612"
    },
    {
      "channel": 4,
      "note": 72,
      "start": 69.7707,
      "duration": 0.0851,
      "velocity": 74,
      "chip": "ym2612"
    },
    {
      "channel": 2,
      "note": 40,
      "start": 69.774,
      "duration": 0.0081,
      "velocity": 114,
      "chip": "ym2612"
    },
    {
      "channel": 2,
      "note": 40,
      "start": 69.7821,
      "duration": 0.0131,
      "velocity": 114,
      "chip": "ym2612"
    },
    {
      "channel": 2,
      "note": 40,
      "start": 69.7952,
      "duration": 0.0123,
      "velocity": 114,
      "chip": "ym2612"
    },
    {
      "channel": 2,
      "note": 40,
      "start": 69.8075,
      "duration": 0.0121,
      "velocity": 114,
      "chip": "ym2612"
    },
    {
      "channel": 2,
      "note": 40,
      "start": 69.8196,
      "duration": 0.0125,
      "velocity": 114,
      "chip": "ym2612"
    },
    {
      "channel": 2,
      "note": 40,
      "start": 69.8321,
      "duration": 0.0131,
      "velocity": 114,
      "chip": "ym2612"
    },
    {
      "channel": 2,
      "note": 40,
      "start": 69.8452,
      "duration": 0.013,
      "velocity": 114,
      "chip": "ym2612"
    },
    {
      "channel": 4,
      "note": 61,
      "start": 69.8563,
      "duration": 0.1015,
      "velocity": 74,
      "chip": "ym2612"
    },
    {
      "channel": 2,
      "note": 40,
      "start": 69.8582,
      "duration": 0.0113,
      "velocity": 114,
      "chip": "ym2612"
    },
    {
      "channel": 2,
      "note": 40,
      "start": 69.8696,
      "duration": 0.0125,
      "velocity": 114,
      "chip": "ym2612"
    },
    {
      "channel": 2,
      "note": 40,
      "start": 69.8821,
      "duration": 0.0131,
      "velocity": 114,
      "chip": "ym2612"
    },
    {
      "channel": 2,
      "note": 39,
      "start": 69.8952,
      "duration": 0.0119,
      "velocity": 114,
      "chip": "ym2612"
    },
    {
      "channel": 2,
      "note": 39,
      "start": 69.9071,
      "duration": 0.0125,
      "velocity": 114,
      "chip": "ym2612"
    },
    {
      "channel": 2,
      "note": 39,
      "start": 69.9196,
      "duration": 0.0125,
      "velocity": 114,
      "chip": "ym2612"
    },
    {
      "channel": 1,
      "note": 63,
      "start": 69.9554,
      "duration": 0.087,
      "velocity": 81,
      "chip": "ym2612"
    },
    {
      "channel": 4,
      "note": 68,
      "start": 69.9582,
      "duration": 0.0868,
      "velocity": 74,
      "chip": "ym2612"
    },
    {
      "channel": 2,
      "note": 40,
      "start": 69.9622,
      "duration": 0.0074,
      "velocity": 114,
      "chip": "ym2612"
    },
    {
      "channel": 2,
      "note": 40,
      "start": 69.9696,
      "duration": 0.0125,
      "velocity": 114,
      "chip": "ym2612"
    },
    {
      "channel": 2,
      "note": 40,
      "start": 69.9821,
      "duration": 0.0135,
      "velocity": 114,
      "chip": "ym2612"
    },
    {
      "channel": 2,
      "note": 40,
      "start": 69.9956,
      "duration": 0.0115,
      "velocity": 114,
      "chip": "ym2612"
    },
    {
      "channel": 2,
      "note": 40,
      "start": 70.0071,
      "duration": 0.0125,
      "velocity": 114,
      "chip": "ym2612"
    },
    {
      "channel": 2,
      "note": 40,
      "start": 70.0196,
      "duration": 0.0125,
      "velocity": 114,
      "chip": "ym2612"
    },
    {
      "channel": 2,
      "note": 40,
      "start": 70.0321,
      "duration": 0.0154,
      "velocity": 114,
      "chip": "ym2612"
    },
    {
      "channel": 1,
      "note": 63,
      "start": 70.0429,
      "duration": 0.0996,
      "velocity": 81,
      "chip": "ym2612"
    },
    {
      "channel": 4,
      "note": 70,
      "start": 70.0455,
      "duration": 0.1004,
      "velocity": 74,
      "chip": "ym2612"
    },
    {
      "channel": 2,
      "note": 40,
      "start": 70.0475,
      "duration": 0.0096,
      "velocity": 114,
      "chip": "ym2612"
    },
    {
      "channel": 2,
      "note": 40,
      "start": 70.0571,
      "duration": 0.0125,
      "velocity": 114,
      "chip": "ym2612"
    },
    {
      "channel": 2,
      "note": 40,
      "start": 70.0696,
      "duration": 0.0125,
      "velocity": 114,
      "chip": "ym2612"
    },
    {
      "channel": 2,
      "note": 39,
      "start": 70.0821,
      "duration": 0.0131,
      "velocity": 114,
      "chip": "ym2612"
    },
    {
      "channel": 2,
      "note": 39,
      "start": 70.0952,
      "duration": 0.0119,
      "velocity": 114,
      "chip": "ym2612"
    },
    {
      "channel": 2,
      "note": 39,
      "start": 70.1071,
      "duration": 0.0124,
      "velocity": 114,
      "chip": "ym2612"
    },
    {
      "channel": 1,
      "note": 51,
      "start": 70.143,
      "duration": 0.187,
      "velocity": 81,
      "chip": "ym2612"
    },
    {
      "channel": 4,
      "note": 61,
      "start": 70.1464,
      "duration": 0.0844,
      "velocity": 74,
      "chip": "ym2612"
    },
    {
      "channel": 2,
      "note": 41,
      "start": 70.1525,
      "duration": 0.1842,
      "velocity": 122,
      "chip": "ym2612"
    },
    {
      "channel": 4,
      "note": 67,
      "start": 70.2313,
      "duration": 0.1015,
      "velocity": 74,
      "chip": "ym2612"
    },
    {
      "channel": 1,
      "note": 63,
      "start": 70.3304,
      "duration": 0.0869,
      "velocity": 81,
      "chip": "ym2612"
    },
    {
      "channel": 4,
      "note": 68,
      "start": 70.3332,
      "duration": 0.087,
      "velocity": 74,
      "chip": "ym2612"
    },
    {
      "channel": 2,
      "note": 40,
      "start": 70.3395,
      "duration": 0.0057,
      "velocity": 114,
      "chip": "ym2612"
    },
    {
      "channel": 2,
      "note": 40,
      "start": 70.3452,
      "duration": 0.0119,
      "velocity": 114,
      "chip": "ym2612"
    },
    {
      "channel": 2,
      "note": 40,
      "start": 70.3571,
      "duration": 0.0128,
      "velocity": 114,
      "chip": "ym2612"
    },
    {
      "channel": 2,
      "note": 40,
      "start": 70.3699,
      "duration": 0.0122,
      "velocity": 114,
      "chip": "ym2612"
    },
    {
      "channel": 2,
      "note": 40,
      "start": 70.3821,
      "duration": 0.0131,
      "velocity": 114,
      "chip": "ym2612"
    },
    {
      "channel": 2,
      "note": 40,
      "start": 70.3952,
      "duration": 0.0119,
      "velocity": 114,
      "chip": "ym2612"
    },
    {
      "channel": 2,
      "note": 40,
      "start": 70.4071,
      "duration": 0.0153,
      "velocity": 114,
      "chip": "ym2612"
    },
    {
      "channel": 1,
      "note": 63,
      "start": 70.4178,
      "duration": 0.0998,
      "velocity": 81,
      "chip": "ym2612"
    },
    {
      "channel": 4,
      "note": 65,
      "start": 70.4206,
      "duration": 0.1006,
      "velocity": 74,
      "chip": "ym2612"
    },
    {
      "channel": 2,
      "note": 40,
      "start": 70.4331,
      "duration": 0.0121,
      "velocity": 114,
      "chip": "ym2612"
    },
    {
      "channel": 2,
      "note": 40,
      "start": 70.4452,
      "duration": 0.0119,
      "velocity": 114,
      "chip": "ym2612"
    },
    {
      "channel": 2,
      "note": 40,
      "start": 70.4571,
      "duration": 0.0128,
      "velocity": 114,
      "chip": "ym2612"
    },
    {
      "channel": 2,
      "note": 40,
      "start": 70.4699,
      "duration": 0.0122,
      "velocity": 114,
      "chip": "ym2612"
    },
    {
      "channel": 2,
      "note": 40,
      "start": 70.4821,
      "duration": 0.0131,
      "velocity": 114,
      "chip": "ym2612"
    },
    {
      "channel": 2,
      "note": 40,
      "start": 70.4952,
      "duration": 0.0119,
      "velocity": 114,
      "chip": "ym2612"
    },
    {
      "channel": 2,
      "note": 40,
      "start": 70.5071,
      "duration": 0.0165,
      "velocity": 114,
      "chip": "ym2612"
    },
    {
      "channel": 1,
      "note": 53,
      "start": 70.5182,
      "duration": 0.1864,
      "velocity": 81,
      "chip": "ym2612"
    },
    {
      "channel": 4,
      "note": 65,
      "start": 70.5218,
      "duration": 0.0837,
      "velocity": 74,
      "chip": "ym2612"
    },
    {
      "channel": 2,
      "note": 40,
      "start": 70.5327,
      "duration": 0.0121,
      "velocity": 114,
      "chip": "ym2612"
    },
    {
      "channel": 2,
      "note": 40,
      "start": 70.5448,
      "duration": 0.0119,
      "velocity": 114,
      "chip": "ym2612"
    },
    {
      "channel": 2,
      "note": 40,
      "start": 70.5567,
      "duration": 0.0129,
      "velocity": 114,
      "chip": "ym2612"
    },
    {
      "channel": 2,
      "note": 40,
      "start": 70.5696,
      "duration": 0.0122,
      "velocity": 114,
      "chip": "ym2612"
    },
    {
      "channel": 2,
      "note": 40,
      "start": 70.5818,
      "duration": 0.013,
      "velocity": 114,
      "chip": "ym2612"
    },
    {
      "channel": 2,
      "note": 40,
      "start": 70.5948,
      "duration": 0.013,
      "velocity": 114,
      "chip": "ym2612"
    },
    {
      "channel": 4,
      "note": 75,
      "start": 70.6059,
      "duration": 0.1014,
      "velocity": 74,
      "chip": "ym2612"
    },
    {
      "channel": 2,
      "note": 40,
      "start": 70.6078,
      "duration": 0.0113,
      "velocity": 114,
      "chip": "ym2612"
    },
    {
      "channel": 2,
      "note": 40,
      "start": 70.6192,
      "duration": 0.0126,
      "velocity": 114,
      "chip": "ym2612"
    },
    {
      "channel": 2,
      "note": 40,
      "start": 70.6318,
      "duration": 0.013,
      "velocity": 114,
      "chip": "ym2612"
    },
    {
      "channel": 2,
      "note": 40,
      "start": 70.6448,
      "duration": 0.0122,
      "velocity": 114,
      "chip": "ym2612"
    },
    {
      "channel": 2,
      "note": 39,
      "start": 70.657,
      "duration": 0.0118,
      "velocity": 114,
      "chip": "ym2612"
    },
    {
      "channel": 2,
      "note": 39,
      "start": 70.6689,
      "duration": 0.0125,
      "velocity": 114,
      "chip": "ym2612"
    },
    {
      "channel": 2,
      "note": 39,
      "start": 70.6814,
      "duration": 0.0124,
      "velocity": 114,
      "chip": "ym2612"
    },
    {
      "channel": 1,
      "note": 53,
      "start": 70.705,
      "duration": 0.1874,
      "velocity": 81,
      "chip": "ym2612"
    },
    {
      "channel": 4,
      "note": 77,
      "start": 70.7078,
      "duration": 0.0851,
      "velocity": 74,
      "chip": "ym2612"
    },
    {
      "channel": 2,
      "note": 40,
      "start": 70.7112,
      "duration": 0.0077,
      "velocity": 114,
      "chip": "ym2612"
    },
    {
      "channel": 2,
      "note": 40,
      "start": 70.7189,
      "duration": 0.0125,
      "velocity": 114,
      "chip": "ym2612"
    },
    {
      "channel": 2,
      "note": 40,
      "start": 70.7314,
      "duration": 0.0135,
      "velocity": 114,
      "chip": "ym2612"
    },
    {
      "channel": 2,
      "note": 40,
      "start": 70.7449,
      "duration": 0.0115,
      "velocity": 114,
      "chip": "ym2612"
    },
    {
      "channel": 2,
      "note": 40,
      "start": 70.7563,
      "duration": 0.0125,
      "velocity": 114,
      "chip": "ym2612"
    },
    {
      "channel": 2,
      "note": 40,
      "start": 70.7689,
      "duration": 0.0125,
      "velocity": 114,
      "chip": "ym2612"
    },
    {
      "channel": 2,
      "note": 40,
      "start": 70.7814,
      "duration": 0.0142,
      "velocity": 114,
      "chip": "ym2612"
    },
    {
      "channel": 4,
      "note": 65,
      "start": 70.7934,
      "duration": 0.1024,
      "velocity": 74,
      "chip": "ym2612"
    },
    {
      "channel": 2,
      "note": 40,
      "start": 70.7956,
      "duration": 0.0107,
      "velocity": 114,
      "chip": "ym2612"
    },
    {
      "channel": 2,
      "note": 40,
      "start": 70.8063,
      "duration": 0.0125,
      "velocity": 114,
      "chip": "ym2612"
    },
    {
      "channel": 2,
      "note": 40,
      "start": 70.8189,
      "duration": 0.0125,
      "velocity": 114,
      "chip": "ym2612"
    },
    {
      "channel": 2,
      "note": 39,
      "start": 70.8314,
      "duration": 0.0129,
      "velocity": 114,
      "chip": "ym2612"
    },
    {
      "channel": 2,
      "note": 39,
      "start": 70.8442,
      "duration": 0.0122,
      "velocity": 114,
      "chip": "ym2612"
    },
    {
      "channel": 2,
      "note": 39,
      "start": 70.8564,
      "duration": 0.0124,
      "velocity": 114,
      "chip": "ym2612"
    },
    {
      "channel": 1,
      "note": 53,
      "start": 70.8929,
      "duration": 0.187,
      "velocity": 81,
      "chip": "ym2612"
    },
    {
      "channel": 4,
      "note": 72,
      "start": 70.8963,
      "duration": 0.0852,
      "velocity": 74,
      "chip": "ym2612"
    },
    {
      "channel": 2,
      "note": 41,
      "start": 70.9021,
      "duration": 0.0832,
      "velocity": 122,
      "chip": "ym2612"
    },
    {
      "channel": 4,
      "note": 75,
      "start": 70.9821,
      "duration": 0.0999,
      "velocity": 74,
      "chip": "ym2612"
    },
    {
      "channel": 2,
      "note": 40,
      "start": 70.9879,
      "duration": 0.0069,
      "velocity": 114,
      "chip": "ym2612"
    },
    {
      "channel": 2,
      "note": 40,
      "start": 70.9948,
      "duration": 0.0119,
      "velocity": 114,
      "chip": "ym2612"
    },
    {
      "channel": 2,
      "note": 40,
      "start": 71.0067,
      "duration": 0.0129,
      "velocity": 114,
      "chip": "ym2612"
    },
    {
      "channel": 2,
      "note": 40,
      "start": 71.0196,
      "duration": 0.0125,
      "velocity": 114,
      "chip": "ym2612"
    },
    {
      "channel": 2,
      "note": 40,
      "start": 71.0321,
      "duration": 0.0131,
      "velocity": 114,
      "chip": "ym2612"
    },
    {
      "channel": 2,
      "note": 40,
      "start": 71.0452,
      "duration": 0.0119,
      "velocity": 114,
      "chip": "ym2612"
    },
    {
      "channel": 2,
      "note": 40,
      "start": 71.0571,
      "duration": 0.0125,
      "velocity": 114,
      "chip": "ym2612"
    },
    {
      "channel": 2,
      "note": 40,
      "start": 71.0696,
      "duration": 0.0148,
      "velocity": 114,
      "chip": "ym2612"
    },
    {
      "channel": 1,
      "note": 53,
      "start": 71.0804,
      "duration": 0.187,
      "velocity": 81,
      "chip": "ym2612"
    },
    {
      "channel": 4,
      "note": 65,
      "start": 71.0824,
      "duration": 0.0859,
      "velocity": 74,
      "chip": "ym2612"
    },
    {
      "channel": 2,
      "note": 40,
      "start": 71.0844,
      "duration": 0.0108,
      "velocity": 114,
      "chip": "ym2612"
    },
    {
      "channel": 2,
      "note": 40,
      "start": 71.0952,
      "duration": 0.0119,
      "velocity": 114,
      "chip": "ym2612"
    },
    {
      "channel": 2,
      "note": 39,
      "start": 71.1071,
      "duration": 0.0125,
      "velocity": 114,
      "chip": "ym2612"
    },
    {
      "channel": 2,
      "note": 39,
      "start": 71.1196,
      "duration": 0.0125,
      "velocity": 114,
      "chip": "ym2612"
    },
    {
      "channel": 2,
      "note": 39,
      "start": 71.1321,
      "duration": 0.013,
      "velocity": 114,
      "chip": "ym2612"
    },
    {
      "channel": 4,
      "note": 70,
      "start": 71.1688,
      "duration": 0.1014,
      "velocity": 74,
      "chip": "ym2612"
    },
    {
      "channel": 1,
      "note": 53,
      "start": 71.2678,
      "duration": 0.1871,
      "velocity": 81,
      "chip": "ym2612"
    },
    {
      "channel": 4,
      "note": 72,
      "start": 71.2707,
      "duration": 0.0851,
      "velocity": 74,
      "chip": "ym2612"
    },
    {
      "channel": 2,
      "note": 40,
      "start": 71.274,
      "duration": 0.0081,
      "velocity": 114,
      "chip": "ym2612"
    },
    {
      "channel": 2,
      "note": 40,
      "start": 71.2821,
      "duration": 0.0131,
      "velocity": 114,
      "chip": "ym2612"
    },
    {
      "channel": 2,
      "note": 40,
      "start": 71.2952,
      "duration": 0.0123,
      "velocity": 114,
      "chip": "ym2612"
    },
    {
      "channel": 2,
      "note": 40,
      "start": 71.3075,
      "duration": 0.0121,
      "velocity": 114,
      "chip": "ym2612"
    },
    {
      "channel": 2,
      "note": 40,
      "start": 71.3196,
      "duration": 0.0125,
      "velocity": 114,
      "chip": "ym2612"
    },
    {
      "channel": 2,
      "note": 40,
      "start": 71.3321,
      "duration": 0.0131,
      "velocity": 114,
      "chip": "ym2612"
    },
    {
      "channel": 2,
      "note": 40,
      "start": 71.3452,
      "duration": 0.013,
      "velocity": 114,
      "chip": "ym2612"
    },
    {
      "channel": 4,
      "note": 65,
      "start": 71.3563,
      "duration": 0.1015,
      "velocity": 74,
      "chip": "ym2612"
    },
    {
      "channel": 2,
      "note": 40,
      "start": 71.3582,
      "duration": 0.0113,
      "velocity": 114,
      "chip": "ym2612"
    },
    {
      "channel": 2,
      "note": 40,
      "start": 71.3696,
      "duration": 0.0125,
      "velocity": 114,
      "chip": "ym2612"
    },
    {
      "channel": 2,
      "note": 40,
      "start": 71.3821,
      "duration": 0.0131,
      "velocity": 114,
      "chip": "ym2612"
    },
    {
      "channel": 2,
      "note": 39,
      "start": 71.3952,
      "duration": 0.0119,
      "velocity": 114,
      "chip": "ym2612"
    },
    {
      "channel": 2,
      "note": 39,
      "start": 71.4071,
      "duration": 0.0125,
      "velocity": 114,
      "chip": "ym2612"
    },
    {
      "channel": 2,
      "note": 39,
      "start": 71.4196,
      "duration": 0.0125,
      "velocity": 114,
      "chip": "ym2612"
    },
    {
      "channel": 1,
      "note": 65,
      "start": 71.4554,
      "duration": 0.087,
      "velocity": 81,
      "chip": "ym2612"
    },
    {
      "channel": 4,
      "note": 68,
      "start": 71.4582,
      "duration": 0.0868,
      "velocity": 74,
      "chip": "ym2612"
    },
    {
      "channel": 2,
      "note": 40,
      "start": 71.4622,
      "duration": 0.0074,
      "velocity": 114,
      "chip": "ym2612"
    },
    {
      "channel": 2,
      "note": 40,
      "start": 71.4696,
      "duration": 0.0125,
      "velocity": 114,
      "chip": "ym2612"
    },
    {
      "channel": 2,
      "note": 40,
      "start": 71.4821,
      "duration": 0.0135,
      "velocity": 114,
      "chip": "ym2612"
    },
    {
      "channel": 2,
      "note": 40,
      "start": 71.4956,
      "duration": 0.0115,
      "velocity": 114,
      "chip": "ym2612"
    },
    {
      "channel": 2,
      "note": 40,
      "start": 71.5071,
      "duration": 0.0125,
      "velocity": 114,
      "chip": "ym2612"
    },
    {
      "channel": 2,
      "note": 40,
      "start": 71.5196,
      "duration": 0.0125,
      "velocity": 114,
      "chip": "ym2612"
    },
    {
      "channel": 2,
      "note": 40,
      "start": 71.5321,
      "duration": 0.0154,
      "velocity": 114,
      "chip": "ym2612"
    },
    {
      "channel": 1,
      "note": 65,
      "start": 71.5429,
      "duration": 0.0996,
      "velocity": 81,
      "chip": "ym2612"
    },
    {
      "channel": 4,
      "note": 70,
      "start": 71.5455,
      "duration": 0.1004,
      "velocity": 74,
      "chip": "ym2612"
    },
    {
      "channel": 2,
      "note": 40,
      "start": 71.5475,
      "duration": 0.0096,
      "velocity": 114,
      "chip": "ym2612"
    },
    {
      "channel": 2,
      "note": 40,
      "start": 71.5571,
      "duration": 0.0125,
      "velocity": 114,
      "chip": "ym2612"
    },
    {
      "channel": 2,
      "note": 40,
      "start": 71.5696,
      "duration": 0.0125,
      "velocity": 114,
      "chip": "ym2612"
    },
    {
      "channel": 2,
      "note": 39,
      "start": 71.5821,
      "duration": 0.0131,
      "velocity": 114,
      "chip": "ym2612"
    },
    {
      "channel": 2,
      "note": 39,
      "start": 71.5952,
      "duration": 0.0119,
      "velocity": 114,
      "chip": "ym2612"
    },
    {
      "channel": 2,
      "note": 39,
      "start": 71.6071,
      "duration": 0.0124,
      "velocity": 114,
      "chip": "ym2612"
    },
    {
      "channel": 1,
      "note": 53,
      "start": 71.643,
      "duration": 0.187,
      "velocity": 81,
      "chip": "ym2612"
    },
    {
      "channel": 4,
      "note": 65,
      "start": 71.6463,
      "duration": 0.0845,
      "velocity": 74,
      "chip": "ym2612"
    },
    {
      "channel": 2,
      "note": 41,
      "start": 71.6524,
      "duration": 0.1843,
      "velocity": 122,
      "chip": "ym2612"
    },
    {
      "channel": 4,
      "note": 67,
      "start": 71.7313,
      "duration": 0.1015,
      "velocity": 74,
      "chip": "ym2612"
    },
    {
      "channel": 1,
      "note": 65,
      "start": 71.8304,
      "duration": 0.0869,
      "velocity": 81,
      "chip": "ym2612"
    },
    {
      "channel": 4,
      "note": 56,
      "start": 71.8332,
      "duration": 0.087,
      "velocity": 74,
      "chip": "ym2612"
    },
    {
      "channel": 2,
      "note": 40,
      "start": 71.8395,
      "duration": 0.0057,
      "velocity": 114,
      "chip": "ym2612"
    },
    {
      "channel": 2,
      "note": 40,
      "start": 71.8452,
      "duration": 0.0119,
      "velocity": 114,
      "chip": "ym2612"
    },
    {
      "channel": 2,
      "note": 40,
      "start": 71.8571,
      "duration": 0.0128,
      "velocity": 114,
      "chip": "ym2612"
    },
    {
      "channel": 2,
      "note": 40,
      "start": 71.8699,
      "duration": 0.0122,
      "velocity": 114,
      "chip": "ym2612"
    },
    {
      "channel": 2,
      "note": 40,
      "start": 71.8821,
      "duration": 0.0131,
      "velocity": 114,
      "chip": "ym2612"
    },
    {
      "channel": 2,
      "note": 40,
      "start": 71.8952,
      "duration": 0.0119,
      "velocity": 114,
      "chip": "ym2612"
    },
    {
      "channel": 2,
      "note": 40,
      "start": 71.9071,
      "duration": 0.0154,
      "velocity": 114,
      "chip": "ym2612"
    },
    {
      "channel": 1,
      "note": 65,
      "start": 71.9178,
      "duration": 0.1002,
      "velocity": 81,
      "chip": "ym2612"
    },
    {
      "channel": 4,
      "note": 63,
      "start": 71.9207,
      "duration": 0.1017,
      "velocity": 74,
      "chip": "ym2612"
    },
    {
      "channel": 2,
      "note": 40,
      "start": 71.9331,
      "duration": 0.0121,
      "velocity": 114,
      "chip": "ym2612"
    },
    {
      "channel": 2,
      "note": 40,
      "start": 71.9452,
      "duration": 0.0119,
      "velocity": 114,
      "chip": "ym2612"
    },
    {
      "channel": 2,
      "note": 40,
      "start": 71.9571,
      "duration": 0.0128,
      "velocity": 114,
      "chip": "ym2612"
    },
    {
      "channel": 2,
      "note": 40,
      "start": 71.9699,
      "duration": 0.0122,
      "velocity": 114,
      "chip": "ym2612"
    },
    {
      "channel": 2,
      "note": 40,
      "start": 71.9821,
      "duration": 0.0131,
      "velocity": 114,
      "chip": "ym2612"
    },
    {
      "channel": 2,
      "note": 40,
      "start": 71.9952,
      "duration": 0.0119,
      "velocity": 114,
      "chip": "ym2612"
    },
    {
      "channel": 2,
      "note": 40,
      "start": 72.0071,
      "duration": 0.0171,
      "velocity": 114,
      "chip": "ym2612"
    },
    {
      "channel": 1,
      "note": 49,
      "start": 72.0186,
      "duration": 0.1859,
      "velocity": 81,
      "chip": "ym2612"
    },
    {
      "channel": 2,
      "note": 41,
      "start": 72.0355,
      "duration": 0.0735,
      "velocity": 122,
      "chip": "ym2612"
    },
    {
      "channel": 2,
      "note": 40,
      "start": 72.1124,
      "duration": 0.0068,
      "velocity": 114,
      "chip": "ym2612"
    },
    {
      "channel": 2,
      "note": 40,
      "start": 72.1192,
      "duration": 0.0126,
      "velocity": 114,
      "chip": "ym2612"
    },
    {
      "channel": 2,
      "note": 40,
      "start": 72.1318,
      "duration": 0.0134,
      "velocity": 114,
      "chip": "ym2612"
    },
    {
      "channel": 2,
      "note": 40,
      "start": 72.1452,
      "duration": 0.0121,
      "velocity": 114,
      "chip": "ym2612"
    },
    {
      "channel": 2,
      "note": 40,
      "start": 72.1573,
      "duration": 0.0116,
      "velocity": 114,
      "chip": "ym2612"
    },
    {
      "channel": 2,
      "note": 40,
      "start": 72.1689,
      "duration": 0.0125,
      "velocity": 114,
      "chip": "ym2612"
    },
    {
      "channel": 2,
      "note": 40,
      "start": 72.1814,
      "duration": 0.0129,
      "velocity": 114,
      "chip": "ym2612"
    },
    {
      "channel": 2,
      "note": 40,
      "start": 72.1942,
      "duration": 0.0139,
      "velocity": 114,
      "chip": "ym2612"
    },
    {
      "channel": 1,
      "note": 61,
      "start": 72.2051,
      "duration": 0.087,
      "velocity": 81,
      "chip": "ym2612"
    },
    {
      "channel": 2,
      "note": 40,
      "start": 72.2198,
      "duration": 0.0116,
      "velocity": 114,
      "chip": "ym2612"
    },
    {
      "channel": 2,
      "note": 40,
      "start": 72.2314,
      "duration": 0.0129,
      "velocity": 114,
      "chip": "ym2612"
    },
    {
      "channel": 2,
      "note": 40,
      "start": 72.2442,
      "duration": 0.0125,
      "velocity": 114,
      "chip": "ym2612"
    },
    {
      "channel": 2,
      "note": 40,
      "start": 72.2568,
      "duration": 0.0121,
      "velocity": 114,
      "chip": "ym2612"
    },
    {
      "channel": 2,
      "note": 40,
      "start": 72.2689,
      "duration": 0.0125,
      "velocity": 114,
      "chip": "ym2612"
    },
    {
      "channel": 2,
      "note": 40,
      "start": 72.2814,
      "duration": 0.0149,
      "velocity": 114,
      "chip": "ym2612"
    },
    {
      "channel": 1,
      "note": 49,
      "start": 72.2925,
      "duration": 0.1874,
      "velocity": 81,
      "chip": "ym2612"
    },
    {
      "channel": 2,
      "note": 41,
      "start": 72.3101,
      "duration": 0.087,
      "velocity": 122,
      "chip": "ym2612"
    },
    {
      "channel": 2,
      "note": 40,
      "start": 72.3999,
      "duration": 0.0068,
      "velocity": 114,
      "chip": "ym2612"
    },
    {
      "channel": 2,
      "note": 40,
      "start": 72.4067,
      "duration": 0.0125,
      "velocity": 114,
      "chip": "ym2612"
    },
    {
      "channel": 2,
      "note": 40,
      "start": 72.4192,
      "duration": 0.0129,
      "velocity": 114,
      "chip": "ym2612"
    },
    {
      "channel": 2,
      "note": 40,
      "start": 72.4321,
      "duration": 0.0127,
      "velocity": 114,
      "chip": "ym2612"
    },
    {
      "channel": 2,
      "note": 40,
      "start": 72.4448,
      "duration": 0.0119,
      "velocity": 114,
      "chip": "ym2612"
    },
    {
      "channel": 2,
      "note": 40,
      "start": 72.4567,
      "duration": 0.0125,
      "velocity": 114,
      "chip": "ym2612"
    },
    {
      "channel": 2,
      "note": 40,
      "start": 72.4692,
      "duration": 0.0144,
      "velocity": 114,
      "chip": "ym2612"
    },
    {
      "channel": 1,
      "note": 61,
      "start": 72.4804,
      "duration": 0.0995,
      "velocity": 81,
      "chip": "ym2612"
    },
    {
      "channel": 2,
      "note": 40,
      "start": 72.4958,
      "duration": 0.011,
      "velocity": 114,
      "chip": "ym2612"
    },
    {
      "channel": 2,
      "note": 40,
      "start": 72.5067,
      "duration": 0.0125,
      "velocity": 114,
      "chip": "ym2612"
    },
    {
      "channel": 2,
      "note": 40,
      "start": 72.5192,
      "duration": 0.0133,
      "velocity": 114,
      "chip": "ym2612"
    },
    {
      "channel": 2,
      "note": 40,
      "start": 72.5325,
      "duration": 0.0127,
      "velocity": 114,
      "chip": "ym2612"
    },
    {
      "channel": 2,
      "note": 40,
      "start": 72.5452,
      "duration": 0.0119,
      "velocity": 114,
      "chip": "ym2612"
    },
    {
      "channel": 2,
      "note": 40,
      "start": 72.5571,
      "duration": 0.0125,
      "velocity": 114,
      "chip": "ym2612"
    },
    {
      "channel": 2,
      "note": 40,
      "start": 72.5696,
      "duration": 0.0143,
      "velocity": 114,
      "chip": "ym2612"
    },
    {
      "channel": 1,
      "note": 49,
      "start": 72.5804,
      "duration": 0.087,
      "velocity": 81,
      "chip": "ym2612"
    },
    {
      "channel": 2,
      "note": 41,
      "start": 72.599,
      "duration": 0.074,
      "velocity": 122,
      "chip": "ym2612"
    },
    {
      "channel": 1,
      "note": 49,
      "start": 72.6678,
      "duration": 0.0995,
      "velocity": 81,
      "chip": "ym2612"
    },
    {
      "channel": 2,
      "note": 40,
      "start": 72.6757,
      "duration": 0.0063,
      "velocity": 114,
      "chip": "ym2612"
    },
    {
      "channel": 2,
      "note": 40,
      "start": 72.6821,
      "duration": 0.0131,
      "velocity": 114,
      "chip": "ym2612"
    },
    {
      "channel": 2,
      "note": 40,
      "start": 72.6952,
      "duration": 0.0123,
      "velocity": 114,
      "chip": "ym2612"
    },
    {
      "channel": 2,
      "note": 40,
      "start": 72.7075,
      "duration": 0.0121,
      "velocity": 114,
      "chip": "ym2612"
    },
    {
      "channel": 2,
      "note": 40,
      "start": 72.7196,
      "duration": 0.0125,
      "velocity": 114,
      "chip": "ym2612"
    },
    {
      "channel": 2,
      "note": 40,
      "start": 72.7321,
      "duration": 0.0131,
      "velocity": 114,
      "chip": "ym2612"
    },
    {
      "channel": 2,
      "note": 40,
      "start": 72.7452,
      "duration": 0.0119,
      "velocity": 114,
      "chip": "ym2612"
    },
    {
      "channel": 2,
      "note": 40,
      "start": 72.7571,
      "duration": 0.0142,
      "velocity": 114,
      "chip": "ym2612"
    },
    {
      "channel": 1,
      "note": 51,
      "start": 72.7678,
      "duration": 0.1871,
      "velocity": 81,
      "chip": "ym2612"
    },
    {
      "channel": 2,
      "note": 41,
      "start": 72.7859,
      "duration": 0.0735,
      "velocity": 122,
      "chip": "ym2612"
    },
    {
      "channel": 2,
      "note": 40,
      "start": 72.8627,
      "duration": 0.0068,
      "velocity": 114,
      "chip": "ym2612"
    },
    {
      "channel": 2,
      "note": 40,
      "start": 72.8696,
      "duration": 0.0125,
      "velocity": 114,
      "chip": "ym2612"
    },
    {
      "channel": 2,
      "note": 40,
      "start": 72.8821,
      "duration": 0.0135,
      "velocity": 114,
      "chip": "ym2612"
    },
    {
      "channel": 2,
      "note": 40,
      "start": 72.8956,
      "duration": 0.0115,
      "velocity": 114,
      "chip": "ym2612"
    },
    {
      "channel": 2,
      "note": 40,
      "start": 72.9071,
      "duration": 0.0125,
      "velocity": 114,
      "chip": "ym2612"
    },
    {
      "channel": 2,
      "note": 40,
      "start": 72.9196,
      "duration": 0.0125,
      "velocity": 114,
      "chip": "ym2612"
    },
    {
      "channel": 2,
      "note": 40,
      "start": 72.9321,
      "duration": 0.0131,
      "velocity": 114,
      "chip": "ym2612"
    },
    {
      "channel": 2,
      "note": 40,
      "start": 72.9452,
      "duration": 0.0137,
      "velocity": 114,
      "chip": "ym2612"
    },
    {
      "channel": 1,
      "note": 63,
      "start": 72.9554,
      "duration": 0.087,
      "velocity": 81,
      "chip": "ym2612"
    },
    {
      "channel": 2,
      "note": 41,
      "start": 72.9734,
      "duration": 0.0753,
      "velocity": 122,
      "chip": "ym2612"
    },
    {
      "channel": 1,
      "note": 51,
      "start": 73.0429,
      "duration": 0.187,
      "velocity": 81,
      "chip": "ym2612"
    },
    {
      "channel": 2,
      "note": 40,
      "start": 73.0514,
      "duration": 0.0057,
      "velocity": 114,
      "chip": "ym2612"
    },
    {
      "channel": 2,
      "note": 40,
      "start": 73.0571,
      "duration": 0.0125,
      "velocity": 114,
      "chip": "ym2612"
    },
    {
      "channel": 2,
      "note": 40,
      "start": 73.0696,
      "duration": 0.0129,
      "velocity": 114,
      "chip": "ym2612"
    },
    {
      "channel": 2,
      "note": 40,
      "start": 73.0825,
      "duration": 0.0127,
      "velocity": 114,
      "chip": "ym2612"
    },
    {
      "channel": 2,
      "note": 40,
      "start": 73.0952,
      "duration": 0.0119,
      "velocity": 114,
      "chip": "ym2612"
    },
    {
      "channel": 2,
      "note": 40,
      "start": 73.1071,
      "duration": 0.0125,
      "velocity": 114,
      "chip": "ym2612"
    },
    {
      "channel": 2,
      "note": 40,
      "start": 73.1196,
      "duration": 0.0125,
      "velocity": 114,
      "chip": "ym2612"
    },
    {
      "channel": 2,
      "note": 40,
      "start": 73.1321,
      "duration": 0.0138,
      "velocity": 114,
      "chip": "ym2612"
    },
    {
      "channel": 2,
      "note": 41,
      "start": 73.1614,
      "duration": 0.0742,
      "velocity": 122,
      "chip": "ym2612"
    },
    {
      "channel": 1,
      "note": 63,
      "start": 73.2304,
      "duration": 0.0995,
      "velocity": 81,
      "chip": "ym2612"
    },
    {
      "channel": 2,
      "note": 40,
      "start": 73.2383,
      "duration": 0.0069,
      "velocity": 114,
      "chip": "ym2612"
    },
    {
      "channel": 2,
      "note": 40,
      "start": 73.2452,
      "duration": 0.0119,
      "velocity": 114,
      "chip": "ym2612"
    },
    {
      "channel": 2,
      "note": 40,
      "start": 73.2571,
      "duration": 0.0128,
      "velocity": 114,
      "chip": "ym2612"
    },
    {
      "channel": 2,
      "note": 40,
      "start": 73.2699,
      "duration": 0.0122,
      "velocity": 114,
      "chip": "ym2612"
    },
    {
      "channel": 2,
      "note": 40,
      "start": 73.2822,
      "duration": 0.013,
      "velocity": 114,
      "chip": "ym2612"
    },
    {
      "channel": 2,
      "note": 40,
      "start": 73.2952,
      "duration": 0.0119,
      "velocity": 114,
      "chip": "ym2612"
    },
    {
      "channel": 2,
      "note": 40,
      "start": 73.3071,
      "duration": 0.0125,
      "velocity": 114,
      "chip": "ym2612"
    },
    {
      "channel": 2,
      "note": 40,
      "start": 73.3196,
      "duration": 0.0143,
      "velocity": 114,
      "chip": "ym2612"
    },
    {
      "channel": 1,
      "note": 51,
      "start": 73.3304,
      "duration": 0.087,
      "velocity": 81,
      "chip": "ym2612"
    },
    {
      "channel": 2,
      "note": 41,
      "start": 73.349,
      "duration": 0.074,
      "velocity": 122,
      "chip": "ym2612"
    },
    {
      "channel": 1,
      "note": 63,
      "start": 73.4178,
      "duration": 0.0768,
      "velocity": 81,
      "chip": "ym2612"
    },
    {
      "channel": 2,
      "note": 40,
      "start": 73.4257,
      "duration": 0.0064,
      "velocity": 114,
      "chip": "ym2612"
    },
    {
      "channel": 2,
      "note": 40,
      "start": 73.4322,
      "duration": 0.013,
      "velocity": 114,
      "chip": "ym2612"
    },
    {
      "channel": 2,
      "note": 40,
      "start": 73.4452,
      "duration": 0.0123,
      "velocity": 114,
      "chip": "ym2612"
    },
    {
      "channel": 2,
      "note": 40,
      "start": 73.4575,
      "duration": 0.0121,
      "velocity": 114,
      "chip": "ym2612"
    },
    {
      "channel": 2,
      "note": 40,
      "start": 73.4696,
      "duration": 0.0125,
      "velocity": 114,
      "chip": "ym2612"
    },
    {
      "channel": 2,
      "note": 40,
      "start": 73.4821,
      "duration": 0.0126,
      "velocity": 114,
      "chip": "ym2612"
    }
  ]
}