{
  "track_name": "05 - Ittetsuko Hoshi's Theme 2",
  "duration_sec": 14.513,
  "sample_rate": 44100,
  "note_count": 220,
  "unique_pitches": 25,
  "pitch_range": 45,
  "avg_note_duration": 0.2245,
  "reconstruction_stats": {
    "notes_reconstructed": 220,
    "keyon_events": 220,
    "keyoff_events": 217,
    "orphan_keyons": 3,
    "unique_pitches": 25,
    "pitch_range": 45,
    "avg_duration_sec": 0.2245
  },
  "metadata": {
    "source": "S\\Shougi no Hoshi\\05 - Ittetsuko Hoshi's Theme 2.vgz"
  },
  "notes": [
    {
      "channel": 0,
      "note": 50,
      "start": 0.0633,
      "duration": 0.2151,
      "velocity": 90,
      "chip": "ym2612"
    },
    {
      "channel": 3,
      "note": 79,
      "start": 0.0702,
      "duration": 1.2109,
      "velocity": 101,
      "chip": "ym2612"
    },
    {
      "channel": 5,
      "note": 74,
      "start": 0.0778,
      "duration": 0.2025,
      "velocity": 97,
      "chip": "ym2612"
    },
    {
      "channel": 0,
      "note": 53,
      "start": 0.2789,
      "duration": 0.0995,
      "velocity": 90,
      "chip": "ym2612"
    },
    {
      "channel": 1,
      "note": 88,
      "start": 0.2797,
      "duration": 0.0995,
      "velocity": 84,
      "chip": "ym2612"
    },
    {
      "channel": 5,
      "note": 81,
      "start": 0.2809,
      "duration": 0.0995,
      "velocity": 97,
      "chip": "ym2612"
    },
    {
      "channel": 0,
      "note": 50,
      "start": 0.379,
      "duration": 0.0995,
      "velocity": 90,
      "chip": "ym2612"
    },
    {
      "channel": 1,
      "note": 88,
      "start": 0.3798,
      "duration": 0.0995,
      "velocity": 84,
      "chip": "ym2612"
    },
    {
      "channel": 5,
      "note": 77,
      "start": 0.381,
      "duration": 0.0995,
      "velocity": 97,
      "chip": "ym2612"
    },
    {
      "channel": 0,
      "note": 53,
      "start": 0.4792,
      "duration": 0.1997,
      "velocity": 90,
      "chip": "ym2612"
    },
    {
      "channel": 1,
      "note": 88,
      "start": 0.4799,
      "duration": 0.1996,
      "velocity": 84,
      "chip": "ym2612"
    },
    {
      "channel": 5,
      "note": 81,
      "start": 0.4811,
      "duration": 0.1996,
      "velocity": 97,
      "chip": "ym2612"
    },
    {
      "channel": 0,
      "note": 50,
      "start": 0.6794,
      "duration": 0.1997,
      "velocity": 90,
      "chip": "ym2612"
    },
    {
      "channel": 1,
      "note": 88,
      "start": 0.6802,
      "duration": 0.1997,
      "velocity": 84,
      "chip": "ym2612"
    },
    {
      "channel": 5,
      "note": 77,
      "start": 0.6813,
      "duration": 0.1997,
      "velocity": 97,
      "chip": "ym2612"
    },
    {
      "channel": 0,
      "note": 53,
      "start": 0.8797,
      "duration": 0.1997,
      "velocity": 90,
      "chip": "ym2612"
    },
    {
      "channel": 1,
      "note": 88,
      "start": 0.8804,
      "duration": 0.1997,
      "velocity": 84,
      "chip": "ym2612"
    },
    {
      "channel": 5,
      "note": 81,
      "start": 0.8816,
      "duration": 0.1996,
      "velocity": 97,
      "chip": "ym2612"
    },
    {
      "channel": 0,
      "note": 50,
      "start": 1.0799,
      "duration": 0.1997,
      "velocity": 90,
      "chip": "ym2612"
    },
    {
      "channel": 1,
      "note": 88,
      "start": 1.0807,
      "duration": 0.1997,
      "velocity": 84,
      "chip": "ym2612"
    },
    {
      "channel": 5,
      "note": 77,
      "start": 1.0819,
      "duration": 0.2003,
      "velocity": 97,
      "chip": "ym2612"
    },
    {
      "channel": 0,
      "note": 52,
      "start": 1.2802,
      "duration": 0.3999,
      "velocity": 90,
      "chip": "ym2612"
    },
    {
      "channel": 1,
      "note": 88,
      "start": 1.281,
      "duration": 0.1993,
      "velocity": 84,
      "chip": "ym2612"
    },
    {
      "channel": 3,
      "note": 88,
      "start": 1.2817,
      "duration": 0.8,
      "velocity": 101,
      "chip": "ym2612"
    },
    {
      "channel": 5,
      "note": 67,
      "start": 1.2828,
      "duration": 0.3992,
      "velocity": 97,
      "chip": "ym2612"
    },
    {
      "channel": 1,
      "note": 88,
      "start": 1.4808,
      "duration": 0.2,
      "velocity": 84,
      "chip": "ym2612"
    },
    {
      "channel": 0,
      "note": 55,
      "start": 1.6807,
      "duration": 0.3999,
      "velocity": 90,
      "chip": "ym2612"
    },
    {
      "channel": 1,
      "note": 86,
      "start": 1.6815,
      "duration": 0.1993,
      "velocity": 84,
      "chip": "ym2612"
    },
    {
      "channel": 5,
      "note": 64,
      "start": 1.6826,
      "duration": 0.3999,
      "velocity": 97,
      "chip": "ym2612"
    },
    {
      "channel": 1,
      "note": 84,
      "start": 1.8813,
      "duration": 0.1996,
      "velocity": 84,
      "chip": "ym2612"
    },
    {
      "channel": 1,
      "note": 83,
      "start": 2.0815,
      "duration": 0.1994,
      "velocity": 84,
      "chip": "ym2612"
    },
    {
      "channel": 3,
      "note": 79,
      "start": 2.0823,
      "duration": 0.3999,
      "velocity": 101,
      "chip": "ym2612"
    },
    {
      "channel": 5,
      "note": 66,
      "start": 2.0832,
      "duration": 0.0651,
      "velocity": 97,
      "chip": "ym2612"
    },
    {
      "channel": 5,
      "note": 65,
      "start": 2.1488,
      "duration": 0.0661,
      "velocity": 97,
      "chip": "ym2612"
    },
    {
      "channel": 5,
      "note": 64,
      "start": 2.2156,
      "duration": 0.0666,
      "velocity": 97,
      "chip": "ym2612"
    },
    {
      "channel": 1,
      "note": 81,
      "start": 2.2816,
      "duration": 0.2003,
      "velocity": 84,
      "chip": "ym2612"
    },
    {
      "channel": 5,
      "note": 63,
      "start": 2.2827,
      "duration": 0.0658,
      "velocity": 97,
      "chip": "ym2612"
    },
    {
      "channel": 5,
      "note": 62,
      "start": 2.3491,
      "duration": 0.0662,
      "velocity": 97,
      "chip": "ym2612"
    },
    {
      "channel": 5,
      "note": 61,
      "start": 2.4159,
      "duration": 0.0675,
      "velocity": 97,
      "chip": "ym2612"
    },
    {
      "channel": 0,
      "note": 50,
      "start": 2.4817,
      "duration": 0.1997,
      "velocity": 90,
      "chip": "ym2612"
    },
    {
      "channel": 3,
      "note": 81,
      "start": 2.4828,
      "duration": 1.2014,
      "velocity": 101,
      "chip": "ym2612"
    },
    {
      "channel": 5,
      "note": 74,
      "start": 2.4839,
      "duration": 0.1994,
      "velocity": 97,
      "chip": "ym2612"
    },
    {
      "channel": 0,
      "note": 53,
      "start": 2.682,
      "duration": 0.0995,
      "velocity": 90,
      "chip": "ym2612"
    },
    {
      "channel": 1,
      "note": 88,
      "start": 2.6828,
      "duration": 0.0995,
      "velocity": 84,
      "chip": "ym2612"
    },
    {
      "channel": 5,
      "note": 81,
      "start": 2.684,
      "duration": 0.0995,
      "velocity": 97,
      "chip": "ym2612"
    },
    {
      "channel": 0,
      "note": 50,
      "start": 2.7821,
      "duration": 0.0996,
      "velocity": 90,
      "chip": "ym2612"
    },
    {
      "channel": 1,
      "note": 88,
      "start": 2.7829,
      "duration": 0.0995,
      "velocity": 84,
      "chip": "ym2612"
    },
    {
      "channel": 5,
      "note": 77,
      "start": 2.784,
      "duration": 0.0996,
      "velocity": 97,
      "chip": "ym2612"
    },
    {
      "channel": 0,
      "note": 53,
      "start": 2.8822,
      "duration": 0.1997,
      "velocity": 90,
      "chip": "ym2612"
    },
    {
      "channel": 1,
      "note": 88,
      "start": 2.883,
      "duration": 0.1996,
      "velocity": 84,
      "chip": "ym2612"
    },
    {
      "channel": 5,
      "note": 81,
      "start": 2.8842,
      "duration": 0.1996,
      "velocity": 97,
      "chip": "ym2612"
    },
    {
      "channel": 0,
      "note": 50,
      "start": 3.0825,
      "duration": 0.1997,
      "velocity": 90,
      "chip": "ym2612"
    },
    {
      "channel": 1,
      "note": 88,
      "start": 3.0832,
      "duration": 0.1997,
      "velocity": 84,
      "chip": "ym2612"
    },
    {
      "channel": 5,
      "note": 77,
      "start": 3.0844,
      "duration": 0.1997,
      "velocity": 97,
      "chip": "ym2612"
    },
    {
      "channel": 0,
      "note": 53,
      "start": 3.2828,
      "duration": 0.1997,
      "velocity": 90,
      "chip": "ym2612"
    },
    {
      "channel": 1,
      "note": 88,
      "start": 3.2835,
      "duration": 0.1997,
      "velocity": 84,
      "chip": "ym2612"
    },
    {
      "channel": 5,
      "note": 81,
      "start": 3.2847,
      "duration": 0.1997,
      "velocity": 97,
      "chip": "ym2612"
    },
    {
      "channel": 0,
      "note": 50,
      "start": 3.483,
      "duration": 0.1997,
      "velocity": 90,
      "chip": "ym2612"
    },
    {
      "channel": 1,
      "note": 88,
      "start": 3.4838,
      "duration": 0.1997,
      "velocity": 84,
      "chip": "ym2612"
    },
    {
      "channel": 5,
      "note": 77,
      "start": 3.4849,
      "duration": 0.1999,
      "velocity": 97,
      "chip": "ym2612"
    },
    {
      "channel": 0,
      "note": 52,
      "start": 3.6833,
      "duration": 0.3999,
      "velocity": 90,
      "chip": "ym2612"
    },
    {
      "channel": 1,
      "note": 88,
      "start": 3.6841,
      "duration": 0.3999,
      "velocity": 84,
      "chip": "ym2612"
    },
    {
      "channel": 5,
      "note": 67,
      "start": 3.6854,
      "duration": 0.3994,
      "velocity": 97,
      "chip": "ym2612"
    },
    {
      "channel": 0,
      "note": 55,
      "start": 4.0838,
      "duration": 0.4,
      "velocity": 90,
      "chip": "ym2612"
    },
    {
      "channel": 1,
      "note": 91,
      "start": 4.0845,
      "duration": 0.3995,
      "velocity": 84,
      "chip": "ym2612"
    },
    {
      "channel": 5,
      "note": 66,
      "start": 4.0855,
      "duration": 0.0654,
      "velocity": 97,
      "chip": "ym2612"
    },
    {
      "channel": 5,
      "note": 65,
      "start": 4.1514,
      "duration": 0.0662,
      "velocity": 97,
      "chip": "ym2612"
    },
    {
      "channel": 5,
      "note": 64,
      "start": 4.2182,
      "duration": 0.0662,
      "velocity": 97,
      "chip": "ym2612"
    },
    {
      "channel": 5,
      "note": 63,
      "start": 4.2849,
      "duration": 0.0661,
      "velocity": 97,
      "chip": "ym2612"
    },
    {
      "channel": 5,
      "note": 62,
      "start": 4.3517,
      "duration": 0.0662,
      "velocity": 97,
      "chip": "ym2612"
    },
    {
      "channel": 5,
      "note": 61,
      "start": 4.4184,
      "duration": 0.0661,
      "velocity": 97,
      "chip": "ym2612"
    },
    {
      "channel": 5,
      "note": 69,
      "start": 4.4851,
      "duration": 0.0657,
      "velocity": 97,
      "chip": "ym2612"
    },
    {
      "channel": 5,
      "note": 68,
      "start": 4.5514,
      "duration": 0.0662,
      "velocity": 97,
      "chip": "ym2612"
    },
    {
      "channel": 5,
      "note": 67,
      "start": 4.6181,
      "duration": 0.0662,
      "velocity": 97,
      "chip": "ym2612"
    },
    {
      "channel": 5,
      "note": 66,
      "start": 4.6849,
      "duration": 0.0662,
      "velocity": 97,
      "chip": "ym2612"
    },
    {
      "channel": 5,
      "note": 65,
      "start": 4.7517,
      "duration": 0.0662,
      "velocity": 97,
      "chip": "ym2612"
    },
    {
      "channel": 5,
      "note": 64,
      "start": 4.8184,
      "duration": 0.0675,
      "velocity": 97,
      "chip": "ym2612"
    },
    {
      "channel": 0,
      "note": 50,
      "start": 4.8848,
      "duration": 0.1997,
      "velocity": 90,
      "chip": "ym2612"
    },
    {
      "channel": 5,
      "note": 74,
      "start": 4.8866,
      "duration": 0.2003,
      "velocity": 97,
      "chip": "ym2612"
    },
    {
      "channel": 0,
      "note": 53,
      "start": 5.0851,
      "duration": 0.0995,
      "velocity": 90,
      "chip": "ym2612"
    },
    {
      "channel": 1,
      "note": 88,
      "start": 5.0859,
      "duration": 0.0995,
      "velocity": 84,
      "chip": "ym2612"
    },
    {
      "channel": 3,
      "note": 81,
      "start": 5.0866,
      "duration": 0.0995,
      "velocity": 101,
      "chip": "ym2612"
    },
    {
      "channel": 5,
      "note": 81,
      "start": 5.0875,
      "duration": 0.0995,
      "velocity": 97,
      "chip": "ym2612"
    },
    {
      "channel": 0,
      "note": 50,
      "start": 5.1852,
      "duration": 0.0995,
      "velocity": 90,
      "chip": "ym2612"
    },
    {
      "channel": 1,
      "note": 88,
      "start": 5.186,
      "duration": 0.0995,
      "velocity": 84,
      "chip": "ym2612"
    },
    {
      "channel": 3,
      "note": 81,
      "start": 5.1867,
      "duration": 0.0995,
      "velocity": 101,
      "chip": "ym2612"
    },
    {
      "channel": 5,
      "note": 77,
      "start": 5.1876,
      "duration": 0.0995,
      "velocity": 97,
      "chip": "ym2612"
    },
    {
      "channel": 0,
      "note": 53,
      "start": 5.2853,
      "duration": 0.0996,
      "velocity": 90,
      "chip": "ym2612"
    },
    {
      "channel": 1,
      "note": 88,
      "start": 5.2861,
      "duration": 0.0991,
      "velocity": 84,
      "chip": "ym2612"
    },
    {
      "channel": 3,
      "note": 81,
      "start": 5.2868,
      "duration": 0.0987,
      "velocity": 101,
      "chip": "ym2612"
    },
    {
      "channel": 5,
      "note": 81,
      "start": 5.2877,
      "duration": 0.0982,
      "velocity": 97,
      "chip": "ym2612"
    },
    {
      "channel": 0,
      "note": 50,
      "start": 5.5857,
      "duration": 0.0996,
      "velocity": 90,
      "chip": "ym2612"
    },
    {
      "channel": 1,
      "note": 88,
      "start": 5.5865,
      "duration": 0.0995,
      "velocity": 84,
      "chip": "ym2612"
    },
    {
      "channel": 3,
      "note": 81,
      "start": 5.5872,
      "duration": 0.0995,
      "velocity": 101,
      "chip": "ym2612"
    },
    {
      "channel": 5,
      "note": 77,
      "start": 5.5881,
      "duration": 0.0995,
      "velocity": 97,
      "chip": "ym2612"
    },
    {
      "channel": 0,
      "note": 53,
      "start": 5.6859,
      "duration": 0.0996,
      "velocity": 90,
      "chip": "ym2612"
    },
    {
      "channel": 1,
      "note": 88,
      "start": 5.6866,
      "duration": 0.0991,
      "velocity": 84,
      "chip": "ym2612"
    },
    {
      "channel": 3,
      "note": 81,
      "start": 5.6874,
      "duration": 0.0987,
      "velocity": 101,
      "chip": "ym2612"
    },
    {
      "channel": 5,
      "note": 81,
      "start": 5.6882,
      "duration": 0.0982,
      "velocity": 97,
      "chip": "ym2612"
    },
    {
      "channel": 0,
      "note": 50,
      "start": 5.9862,
      "duration": 0.0996,
      "velocity": 90,
      "chip": "ym2612"
    },
    {
      "channel": 1,
      "note": 88,
      "start": 5.987,
      "duration": 0.0995,
      "velocity": 84,
      "chip": "ym2612"
    },
    {
      "channel": 3,
      "note": 81,
      "start": 5.9878,
      "duration": 0.0995,
      "velocity": 101,
      "chip": "ym2612"
    },
    {
      "channel": 5,
      "note": 77,
      "start": 5.9886,
      "duration": 0.0998,
      "velocity": 97,
      "chip": "ym2612"
    },
    {
      "channel": 0,
      "note": 52,
      "start": 6.0864,
      "duration": 0.3999,
      "velocity": 90,
      "chip": "ym2612"
    },
    {
      "channel": 1,
      "note": 88,
      "start": 6.0871,
      "duration": 0.0991,
      "velocity": 84,
      "chip": "ym2612"
    },
    {
      "channel": 3,
      "note": 81,
      "start": 6.0879,
      "duration": 0.0987,
      "velocity": 101,
      "chip": "ym2612"
    },
    {
      "channel": 5,
      "note": 67,
      "start": 6.089,
      "duration": 0.3997,
      "velocity": 97,
      "chip": "ym2612"
    },
    {
      "channel": 1,
      "note": 88,
      "start": 6.3871,
      "duration": 0.0999,
      "velocity": 84,
      "chip": "ym2612"
    },
    {
      "channel": 3,
      "note": 81,
      "start": 6.3879,
      "duration": 0.0999,
      "velocity": 101,
      "chip": "ym2612"
    },
    {
      "channel": 0,
      "note": 55,
      "start": 6.4869,
      "duration": 0.4,
      "velocity": 90,
      "chip": "ym2612"
    },
    {
      "channel": 1,
      "note": 86,
      "start": 6.4876,
      "duration": 0.0991,
      "velocity": 84,
      "chip": "ym2612"
    },
    {
      "channel": 3,
      "note": 79,
      "start": 6.4884,
      "duration": 0.0987,
      "velocity": 101,
      "chip": "ym2612"
    },
    {
      "channel": 5,
      "note": 64,
      "start": 6.4892,
      "duration": 0.3995,
      "velocity": 97,
      "chip": "ym2612"
    },
    {
      "channel": 1,
      "note": 84,
      "start": 6.7876,
      "duration": 0.0995,
      "velocity": 84,
      "chip": "ym2612"
    },
    {
      "channel": 3,
      "note": 77,
      "start": 6.7884,
      "duration": 0.0995,
      "velocity": 101,
      "chip": "ym2612"
    },
    {
      "channel": 1,
      "note": 83,
      "start": 6.8877,
      "duration": 0.0993,
      "velocity": 84,
      "chip": "ym2612"
    },
    {
      "channel": 3,
      "note": 76,
      "start": 6.8885,
      "duration": 0.0989,
      "velocity": 101,
      "chip": "ym2612"
    },
    {
      "channel": 1,
      "note": 81,
      "start": 7.1879,
      "duration": 0.1002,
      "velocity": 84,
      "chip": "ym2612"
    },
    {
      "channel": 3,
      "note": 74,
      "start": 7.1886,
      "duration": 0.0998,
      "velocity": 101,
      "chip": "ym2612"
    },
    {
      "channel": 0,
      "note": 50,
      "start": 7.2879,
      "duration": 0.1997,
      "velocity": 90,
      "chip": "ym2612"
    },
    {
      "channel": 5,
      "note": 74,
      "start": 7.2897,
      "duration": 0.2003,
      "velocity": 97,
      "chip": "ym2612"
    },
    {
      "channel": 0,
      "note": 53,
      "start": 7.4882,
      "duration": 0.0995,
      "velocity": 90,
      "chip": "ym2612"
    },
    {
      "channel": 1,
      "note": 88,
      "start": 7.489,
      "duration": 0.0995,
      "velocity": 84,
      "chip": "ym2612"
    },
    {
      "channel": 3,
      "note": 81,
      "start": 7.4897,
      "duration": 0.0995,
      "velocity": 101,
      "chip": "ym2612"
    },
    {
      "channel": 5,
      "note": 81,
      "start": 7.4906,
      "duration": 0.0995,
      "velocity": 97,
      "chip": "ym2612"
    },
    {
      "channel": 0,
      "note": 50,
      "start": 7.5883,
      "duration": 0.0996,
      "velocity": 90,
      "chip": "ym2612"
    },
    {
      "channel": 1,
      "note": 88,
      "start": 7.589,
      "duration": 0.0995,
      "velocity": 84,
      "chip": "ym2612"
    },
    {
      "channel": 3,
      "note": 81,
      "start": 7.5898,
      "duration": 0.0995,
      "velocity": 101,
      "chip": "ym2612"
    },
    {
      "channel": 5,
      "note": 77,
      "start": 7.5906,
      "duration": 0.0996,
      "velocity": 97,
      "chip": "ym2612"
    },
    {
      "channel": 0,
      "note": 53,
      "start": 7.6884,
      "duration": 0.1997,
      "velocity": 90,
      "chip": "ym2612"
    },
    {
      "channel": 1,
      "note": 88,
      "start": 7.6892,
      "duration": 0.1996,
      "velocity": 84,
      "chip": "ym2612"
    },
    {
      "channel": 3,
      "note": 81,
      "start": 7.69,
      "duration": 0.1996,
      "velocity": 101,
      "chip": "ym2612"
    },
    {
      "channel": 5,
      "note": 81,
      "start": 7.6908,
      "duration": 0.1996,
      "velocity": 97,
      "chip": "ym2612"
    },
    {
      "channel": 0,
      "note": 50,
      "start": 7.8887,
      "duration": 0.1997,
      "velocity": 90,
      "chip": "ym2612"
    },
    {
      "channel": 1,
      "note": 88,
      "start": 7.8894,
      "duration": 0.1997,
      "velocity": 84,
      "chip": "ym2612"
    },
    {
      "channel": 3,
      "note": 81,
      "start": 7.8902,
      "duration": 0.1996,
      "velocity": 101,
      "chip": "ym2612"
    },
    {
      "channel": 5,
      "note": 77,
      "start": 7.891,
      "duration": 0.1997,
      "velocity": 97,
      "chip": "ym2612"
    },
    {
      "channel": 0,
      "note": 53,
      "start": 8.0889,
      "duration": 0.1997,
      "velocity": 90,
      "chip": "ym2612"
    },
    {
      "channel": 1,
      "note": 88,
      "start": 8.0897,
      "duration": 0.1997,
      "velocity": 84,
      "chip": "ym2612"
    },
    {
      "channel": 3,
      "note": 81,
      "start": 8.0905,
      "duration": 0.1997,
      "velocity": 101,
      "chip": "ym2612"
    },
    {
      "channel": 5,
      "note": 81,
      "start": 8.0913,
      "duration": 0.1997,
      "velocity": 97,
      "chip": "ym2612"
    },
    {
      "channel": 0,
      "note": 50,
      "start": 8.2892,
      "duration": 0.1997,
      "velocity": 90,
      "chip": "ym2612"
    },
    {
      "channel": 1,
      "note": 88,
      "start": 8.29,
      "duration": 0.1997,
      "velocity": 84,
      "chip": "ym2612"
    },
    {
      "channel": 3,
      "note": 81,
      "start": 8.2907,
      "duration": 0.1997,
      "velocity": 101,
      "chip": "ym2612"
    },
    {
      "channel": 5,
      "note": 77,
      "start": 8.2915,
      "duration": 0.2,
      "velocity": 97,
      "chip": "ym2612"
    },
    {
      "channel": 0,
      "note": 52,
      "start": 8.4895,
      "duration": 0.3999,
      "velocity": 90,
      "chip": "ym2612"
    },
    {
      "channel": 1,
      "note": 88,
      "start": 8.4902,
      "duration": 0.3999,
      "velocity": 84,
      "chip": "ym2612"
    },
    {
      "channel": 3,
      "note": 81,
      "start": 8.491,
      "duration": 0.3999,
      "velocity": 101,
      "chip": "ym2612"
    },
    {
      "channel": 5,
      "note": 67,
      "start": 8.4921,
      "duration": 0.3996,
      "velocity": 97,
      "chip": "ym2612"
    },
    {
      "channel": 0,
      "note": 55,
      "start": 8.89,
      "duration": 0.4,
      "velocity": 90,
      "chip": "ym2612"
    },
    {
      "channel": 1,
      "note": 91,
      "start": 8.8907,
      "duration": 0.3995,
      "velocity": 84,
      "chip": "ym2612"
    },
    {
      "channel": 3,
      "note": 83,
      "start": 8.8915,
      "duration": 0.399,
      "velocity": 101,
      "chip": "ym2612"
    },
    {
      "channel": 5,
      "note": 64,
      "start": 8.8923,
      "duration": 0.3986,
      "velocity": 97,
      "chip": "ym2612"
    },
    {
      "channel": 4,
      "note": 82,
      "start": 9.491,
      "duration": 0.0995,
      "velocity": 101,
      "chip": "ym2612"
    },
    {
      "channel": 4,
      "note": 83,
      "start": 9.5912,
      "duration": 0.1011,
      "velocity": 101,
      "chip": "ym2612"
    },
    {
      "channel": 0,
      "note": 50,
      "start": 9.691,
      "duration": 0.1997,
      "velocity": 90,
      "chip": "ym2612"
    },
    {
      "channel": 1,
      "note": 95,
      "start": 9.6918,
      "duration": 0.3999,
      "velocity": 84,
      "chip": "ym2612"
    },
    {
      "channel": 4,
      "note": 84,
      "start": 9.6929,
      "duration": 2.0015,
      "velocity": 101,
      "chip": "ym2612"
    },
    {
      "channel": 5,
      "note": 74,
      "start": 9.6937,
      "duration": 0.1985,
      "velocity": 97,
      "chip": "ym2612"
    },
    {
      "channel": 0,
      "note": 53,
      "start": 9.8913,
      "duration": 0.0995,
      "velocity": 90,
      "chip": "ym2612"
    },
    {
      "channel": 5,
      "note": 81,
      "start": 9.8928,
      "duration": 0.0995,
      "velocity": 97,
      "chip": "ym2612"
    },
    {
      "channel": 0,
      "note": 50,
      "start": 9.9914,
      "duration": 0.0995,
      "velocity": 90,
      "chip": "ym2612"
    },
    {
      "channel": 5,
      "note": 77,
      "start": 9.9929,
      "duration": 0.1,
      "velocity": 97,
      "chip": "ym2612"
    },
    {
      "channel": 0,
      "note": 53,
      "start": 10.0915,
      "duration": 0.1997,
      "velocity": 90,
      "chip": "ym2612"
    },
    {
      "channel": 1,
      "note": 91,
      "start": 10.0923,
      "duration": 0.3999,
      "velocity": 84,
      "chip": "ym2612"
    },
    {
      "channel": 5,
      "note": 81,
      "start": 10.0935,
      "duration": 0.1992,
      "velocity": 97,
      "chip": "ym2612"
    },
    {
      "channel": 0,
      "note": 50,
      "start": 10.2918,
      "duration": 0.1997,
      "velocity": 90,
      "chip": "ym2612"
    },
    {
      "channel": 5,
      "note": 77,
      "start": 10.2933,
      "duration": 0.2001,
      "velocity": 97,
      "chip": "ym2612"
    },
    {
      "channel": 0,
      "note": 53,
      "start": 10.492,
      "duration": 0.1997,
      "velocity": 90,
      "chip": "ym2612"
    },
    {
      "channel": 1,
      "note": 88,
      "start": 10.4928,
      "duration": 0.3999,
      "velocity": 84,
      "chip": "ym2612"
    },
    {
      "channel": 5,
      "note": 81,
      "start": 10.494,
      "duration": 0.1992,
      "velocity": 97,
      "chip": "ym2612"
    },
    {
      "channel": 0,
      "note": 50,
      "start": 10.6923,
      "duration": 0.1997,
      "velocity": 90,
      "chip": "ym2612"
    },
    {
      "channel": 5,
      "note": 77,
      "start": 10.6938,
      "duration": 0.2007,
      "velocity": 97,
      "chip": "ym2612"
    },
    {
      "channel": 0,
      "note": 52,
      "start": 10.8926,
      "duration": 0.3999,
      "velocity": 90,
      "chip": "ym2612"
    },
    {
      "channel": 1,
      "note": 86,
      "start": 10.8933,
      "duration": 0.3999,
      "velocity": 84,
      "chip": "ym2612"
    },
    {
      "channel": 5,
      "note": 67,
      "start": 10.8951,
      "duration": 0.3993,
      "velocity": 97,
      "chip": "ym2612"
    },
    {
      "channel": 0,
      "note": 55,
      "start": 11.2931,
      "duration": 0.4,
      "velocity": 90,
      "chip": "ym2612"
    },
    {
      "channel": 1,
      "note": 88,
      "start": 11.2938,
      "duration": 0.3995,
      "velocity": 84,
      "chip": "ym2612"
    },
    {
      "channel": 5,
      "note": 64,
      "start": 11.295,
      "duration": 0.4002,
      "velocity": 97,
      "chip": "ym2612"
    },
    {
      "channel": 3,
      "note": 95,
      "start": 11.6943,
      "duration": 0.1324,
      "velocity": 101,
      "chip": "ym2612"
    },
    {
      "channel": 4,
      "note": 83,
      "start": 11.695,
      "duration": 0.4008,
      "velocity": 101,
      "chip": "ym2612"
    },
    {
      "channel": 3,
      "note": 91,
      "start": 11.8273,
      "duration": 0.1329,
      "velocity": 101,
      "chip": "ym2612"
    },
    {
      "channel": 3,
      "note": 88,
      "start": 11.9608,
      "duration": 0.1342,
      "velocity": 101,
      "chip": "ym2612"
    },
    {
      "channel": 0,
      "note": 50,
      "start": 12.0941,
      "duration": 0.1997,
      "velocity": 90,
      "chip": "ym2612"
    },
    {
      "channel": 1,
      "note": 95,
      "start": 12.0949,
      "duration": 0.3999,
      "velocity": 84,
      "chip": "ym2612"
    },
    {
      "channel": 3,
      "note": 88,
      "start": 12.0957,
      "duration": 0.3999,
      "velocity": 101,
      "chip": "ym2612"
    },
    {
      "channel": 4,
      "note": 84,
      "start": 12.0964,
      "duration": 2.0006,
      "velocity": 101,
      "chip": "ym2612"
    },
    {
      "channel": 5,
      "note": 74,
      "start": 12.0972,
      "duration": 0.1984,
      "velocity": 97,
      "chip": "ym2612"
    },
    {
      "channel": 0,
      "note": 53,
      "start": 12.2944,
      "duration": 0.0995,
      "velocity": 90,
      "chip": "ym2612"
    },
    {
      "channel": 5,
      "note": 81,
      "start": 12.2962,
      "duration": 0.0995,
      "velocity": 97,
      "chip": "ym2612"
    },
    {
      "channel": 0,
      "note": 50,
      "start": 12.3945,
      "duration": 0.0996,
      "velocity": 90,
      "chip": "ym2612"
    },
    {
      "channel": 5,
      "note": 77,
      "start": 12.3963,
      "duration": 0.1004,
      "velocity": 97,
      "chip": "ym2612"
    },
    {
      "channel": 0,
      "note": 53,
      "start": 12.4946,
      "duration": 0.1997,
      "velocity": 90,
      "chip": "ym2612"
    },
    {
      "channel": 1,
      "note": 91,
      "start": 12.4954,
      "duration": 0.3999,
      "velocity": 84,
      "chip": "ym2612"
    },
    {
      "channel": 3,
      "note": 83,
      "start": 12.4961,
      "duration": 0.3999,
      "velocity": 101,
      "chip": "ym2612"
    },
    {
      "channel": 5,
      "note": 81,
      "start": 12.4973,
      "duration": 0.1988,
      "velocity": 97,
      "chip": "ym2612"
    },
    {
      "channel": 0,
      "note": 50,
      "start": 12.6949,
      "duration": 0.1997,
      "velocity": 90,
      "chip": "ym2612"
    },
    {
      "channel": 5,
      "note": 77,
      "start": 12.6967,
      "duration": 0.2005,
      "velocity": 97,
      "chip": "ym2612"
    },
    {
      "channel": 0,
      "note": 53,
      "start": 12.8951,
      "duration": 0.1997,
      "velocity": 90,
      "chip": "ym2612"
    },
    {
      "channel": 1,
      "note": 88,
      "start": 12.8959,
      "duration": 0.3999,
      "velocity": 84,
      "chip": "ym2612"
    },
    {
      "channel": 3,
      "note": 81,
      "start": 12.8966,
      "duration": 0.3999,
      "velocity": 101,
      "chip": "ym2612"
    },
    {
      "channel": 5,
      "note": 81,
      "start": 12.8978,
      "duration": 0.1988,
      "velocity": 97,
      "chip": "ym2612"
    },
    {
      "channel": 0,
      "note": 50,
      "start": 13.0954,
      "duration": 0.1997,
      "velocity": 90,
      "chip": "ym2612"
    },
    {
      "channel": 5,
      "note": 77,
      "start": 13.0972,
      "duration": 0.2009,
      "velocity": 97,
      "chip": "ym2612"
    },
    {
      "channel": 0,
      "note": 52,
      "start": 13.2957,
      "duration": 0.3999,
      "velocity": 90,
      "chip": "ym2612"
    },
    {
      "channel": 1,
      "note": 86,
      "start": 13.2964,
      "duration": 0.3999,
      "velocity": 84,
      "chip": "ym2612"
    },
    {
      "channel": 3,
      "note": 79,
      "start": 13.2972,
      "duration": 0.3999,
      "velocity": 101,
      "chip": "ym2612"
    },
    {
      "channel": 5,
      "note": 67,
      "start": 13.2986,
      "duration": 0.3995,
      "velocity": 97,
      "chip": "ym2612"
    },
    {
      "channel": 0,
      "note": 55,
      "start": 13.6962,
      "duration": 0.3999,
      "velocity": 90,
      "chip": "ym2612"
    },
    {
      "channel": 1,
      "note": 88,
      "start": 13.6969,
      "duration": 0.3995,
      "velocity": 84,
      "chip": "ym2612"
    },
    {
      "channel": 3,
      "note": 81,
      "start": 13.6977,
      "duration": 0.3991,
      "velocity": 101,
      "chip": "ym2612"
    },
    {
      "channel": 5,
      "note": 64,
      "start": 13.6988,
      "duration": 0.3991,
      "velocity": 97,
      "chip": "ym2612"
    },
    {
      "channel": 4,
      "note": 83,
      "start": 14.0977,
      "duration": 0.401,
      "velocity": 101,
      "chip": "ym2612"
    },
    {
      "channel": 5,
      "note": 86,
      "start": 14.0984,
      "duration": 0.0984,
      "velocity": 97,
      "chip": "ym2612"
    },
    {
      "channel": 5,
      "note": 91,
      "start": 14.1974,
      "duration": 0.0995,
      "velocity": 97,
      "chip": "ym2612"
    },
    {
      "channel": 5,
      "note": 86,
      "start": 14.2976,
      "duration": 0.0995,
      "velocity": 97,
      "chip": "ym2612"
    },
    {
      "channel": 5,
      "note": 91,
      "start": 14.3977,
      "duration": 0.1014,
      "velocity": 97,
      "chip": "ym2612"
    },
    {
      "channel": 0,
      "note": 50,
      "start": 14.4973,
      "duration": 0.0162,
      "velocity": 90,
      "chip": "ym2612"
    },
    {
      "channel": 3,
      "note": 79,
      "start": 14.4985,
      "duration": 0.0149,
      "velocity": 101,
      "chip": "ym2612"
    },
    {
      "channel": 5,
      "note": 74,
      "start": 14.4997,
      "duration": 0.0137,
      "velocity": 97,
      "chip": "ym2612"
    }
  ]
}