{
  "track_name": "05 - Italy",
  "duration_sec": 180.7,
  "sample_rate": 44100,
  "note_count": 4442,
  "unique_pitches": 35,
  "pitch_range": 44,
  "avg_note_duration": 0.0964,
  "reconstruction_stats": {
    "notes_reconstructed": 4442,
    "keyon_events": 4442,
    "keyoff_events": 4441,
    "orphan_keyons": 1,
    "unique_pitches": 35,
    "pitch_range": 44,
    "avg_duration_sec": 0.0964
  },
  "metadata": {
    "source": "R\\Road Rash III\\05 - Italy.vgz"
  },
  "notes": [
    {
      "channel": 0,
      "note": 62,
      "start": 0.0,
      "duration": 0.0607,
      "velocity": 101,
      "chip": "ym2612"
    },
    {
      "channel": 1,
      "note": 72,
      "start": 0.0041,
      "duration": 0.0721,
      "velocity": 106,
      "chip": "ym2612"
    },
    {
      "channel": 0,
      "note": 72,
      "start": 0.1132,
      "duration": 0.0798,
      "velocity": 106,
      "chip": "ym2612"
    },
    {
      "channel": 1,
      "note": 74,
      "start": 0.1632,
      "duration": 0.0822,
      "velocity": 106,
      "chip": "ym2612"
    },
    {
      "channel": 2,
      "note": 72,
      "start": 0.1675,
      "duration": 0.077,
      "velocity": 106,
      "chip": "ym2612"
    },
    {
      "channel": 3,
      "note": 62,
      "start": 0.1797,
      "duration": 0.0466,
      "velocity": 101,
      "chip": "ym2612"
    },
    {
      "channel": 0,
      "note": 69,
      "start": 0.2557,
      "duration": 0.0873,
      "velocity": 106,
      "chip": "ym2612"
    },
    {
      "channel": 1,
      "note": 57,
      "start": 0.2796,
      "duration": 0.0643,
      "velocity": 101,
      "chip": "ym2612"
    },
    {
      "channel": 2,
      "note": 74,
      "start": 0.284,
      "duration": 0.0757,
      "velocity": 106,
      "chip": "ym2612"
    },
    {
      "channel": 0,
      "note": 74,
      "start": 0.3485,
      "duration": 0.0791,
      "velocity": 106,
      "chip": "ym2612"
    },
    {
      "channel": 1,
      "note": 69,
      "start": 0.3825,
      "duration": 0.0938,
      "velocity": 106,
      "chip": "ym2612"
    },
    {
      "channel": 0,
      "note": 69,
      "start": 0.4342,
      "duration": 0.0587,
      "velocity": 106,
      "chip": "ym2612"
    },
    {
      "channel": 2,
      "note": 69,
      "start": 0.4396,
      "duration": 0.0867,
      "velocity": 106,
      "chip": "ym2612"
    },
    {
      "channel": 3,
      "note": 57,
      "start": 0.463,
      "duration": 0.0477,
      "velocity": 101,
      "chip": "ym2612"
    },
    {
      "channel": 0,
      "note": 72,
      "start": 0.5464,
      "duration": 0.0966,
      "velocity": 106,
      "chip": "ym2612"
    },
    {
      "channel": 1,
      "note": 69,
      "start": 0.5506,
      "duration": 0.0602,
      "velocity": 106,
      "chip": "ym2612"
    },
    {
      "channel": 2,
      "note": 62,
      "start": 0.5629,
      "duration": 0.0807,
      "velocity": 101,
      "chip": "ym2612"
    },
    {
      "channel": 1,
      "note": 69,
      "start": 0.6151,
      "duration": 0.0612,
      "velocity": 106,
      "chip": "ym2612"
    },
    {
      "channel": 0,
      "note": 72,
      "start": 0.6631,
      "duration": 0.0966,
      "velocity": 106,
      "chip": "ym2612"
    },
    {
      "channel": 1,
      "note": 72,
      "start": 0.7162,
      "duration": 0.0947,
      "velocity": 106,
      "chip": "ym2612"
    },
    {
      "channel": 2,
      "note": 74,
      "start": 0.7299,
      "duration": 0.0799,
      "velocity": 106,
      "chip": "ym2612"
    },
    {
      "channel": 3,
      "note": 62,
      "start": 0.7463,
      "duration": 0.0478,
      "velocity": 101,
      "chip": "ym2612"
    },
    {
      "channel": 0,
      "note": 69,
      "start": 0.8335,
      "duration": 0.144,
      "velocity": 106,
      "chip": "ym2612"
    },
    {
      "channel": 1,
      "note": 57,
      "start": 0.8463,
      "duration": 0.1132,
      "velocity": 101,
      "chip": "ym2612"
    },
    {
      "channel": 2,
      "note": 74,
      "start": 0.8507,
      "duration": 0.0758,
      "velocity": 106,
      "chip": "ym2612"
    },
    {
      "channel": 3,
      "note": 74,
      "start": 0.9134,
      "duration": 0.0798,
      "velocity": 106,
      "chip": "ym2612"
    },
    {
      "channel": 1,
      "note": 69,
      "start": 0.9637,
      "duration": 0.1459,
      "velocity": 106,
      "chip": "ym2612"
    },
    {
      "channel": 0,
      "note": 69,
      "start": 1.0151,
      "duration": 0.1458,
      "velocity": 106,
      "chip": "ym2612"
    },
    {
      "channel": 2,
      "note": 69,
      "start": 1.0298,
      "duration": 0.0807,
      "velocity": 106,
      "chip": "ym2612"
    },
    {
      "channel": 3,
      "note": 57,
      "start": 1.0338,
      "duration": 0.0591,
      "velocity": 101,
      "chip": "ym2612"
    },
    {
      "channel": 1,
      "note": 58,
      "start": 1.1296,
      "duration": 0.0631,
      "velocity": 101,
      "chip": "ym2612"
    },
    {
      "channel": 2,
      "note": 70,
      "start": 1.1338,
      "duration": 0.0934,
      "velocity": 106,
      "chip": "ym2612"
    },
    {
      "channel": 3,
      "note": 69,
      "start": 1.1466,
      "duration": 0.0798,
      "velocity": 106,
      "chip": "ym2612"
    },
    {
      "channel": 0,
      "note": 69,
      "start": 1.2132,
      "duration": 0.0798,
      "velocity": 106,
      "chip": "ym2612"
    },
    {
      "channel": 1,
      "note": 70,
      "start": 1.2476,
      "duration": 0.0967,
      "velocity": 106,
      "chip": "ym2612"
    },
    {
      "channel": 0,
      "note": 70,
      "start": 1.3131,
      "duration": 0.0319,
      "velocity": 106,
      "chip": "ym2612"
    },
    {
      "channel": 2,
      "note": 70,
      "start": 1.3174,
      "duration": 0.0924,
      "velocity": 106,
      "chip": "ym2612"
    },
    {
      "channel": 3,
      "note": 58,
      "start": 1.3296,
      "duration": 0.0299,
      "velocity": 101,
      "chip": "ym2612"
    },
    {
      "channel": 0,
      "note": 70,
      "start": 1.414,
      "duration": 0.2456,
      "velocity": 106,
      "chip": "ym2612"
    },
    {
      "channel": 1,
      "note": 58,
      "start": 1.418,
      "duration": 0.0581,
      "velocity": 101,
      "chip": "ym2612"
    },
    {
      "channel": 2,
      "note": 70,
      "start": 1.431,
      "duration": 0.0286,
      "velocity": 106,
      "chip": "ym2612"
    },
    {
      "channel": 1,
      "note": 70,
      "start": 1.4805,
      "duration": 0.0293,
      "velocity": 106,
      "chip": "ym2612"
    },
    {
      "channel": 1,
      "note": 60,
      "start": 1.516,
      "duration": 0.0602,
      "velocity": 101,
      "chip": "ym2612"
    },
    {
      "channel": 2,
      "note": 70,
      "start": 1.531,
      "duration": 0.2454,
      "velocity": 106,
      "chip": "ym2612"
    },
    {
      "channel": 1,
      "note": 70,
      "start": 1.5966,
      "duration": 0.2464,
      "velocity": 106,
      "chip": "ym2612"
    },
    {
      "channel": 3,
      "note": 58,
      "start": 1.6166,
      "duration": 0.0597,
      "velocity": 101,
      "chip": "ym2612"
    },
    {
      "channel": 0,
      "note": 57,
      "start": 1.6983,
      "duration": 0.2611,
      "velocity": 101,
      "chip": "ym2612"
    },
    {
      "channel": 3,
      "note": 69,
      "start": 1.7144,
      "duration": 0.212,
      "velocity": 106,
      "chip": "ym2612"
    },
    {
      "channel": 2,
      "note": 69,
      "start": 1.8298,
      "duration": 0.2132,
      "velocity": 106,
      "chip": "ym2612"
    },
    {
      "channel": 1,
      "note": 69,
      "start": 1.8798,
      "duration": 0.2133,
      "velocity": 106,
      "chip": "ym2612"
    },
    {
      "channel": 0,
      "note": 69,
      "start": 1.9809,
      "duration": 0.2288,
      "velocity": 106,
      "chip": "ym2612"
    },
    {
      "channel": 3,
      "note": 57,
      "start": 1.9963,
      "duration": 0.0812,
      "velocity": 101,
      "chip": "ym2612"
    },
    {
      "channel": 2,
      "note": 58,
      "start": 2.0816,
      "duration": 0.0791,
      "velocity": 101,
      "chip": "ym2612"
    },
    {
      "channel": 1,
      "note": 69,
      "start": 2.1132,
      "duration": 0.231,
      "velocity": 106,
      "chip": "ym2612"
    },
    {
      "channel": 2,
      "note": 69,
      "start": 2.1651,
      "duration": 0.228,
      "velocity": 106,
      "chip": "ym2612"
    },
    {
      "channel": 3,
      "note": 57,
      "start": 2.1796,
      "duration": 0.0813,
      "velocity": 101,
      "chip": "ym2612"
    },
    {
      "channel": 0,
      "note": 55,
      "start": 2.2797,
      "duration": 0.263,
      "velocity": 101,
      "chip": "ym2612"
    },
    {
      "channel": 3,
      "note": 67,
      "start": 2.2884,
      "duration": 0.1714,
      "velocity": 106,
      "chip": "ym2612"
    },
    {
      "channel": 1,
      "note": 67,
      "start": 2.3973,
      "duration": 0.179,
      "velocity": 106,
      "chip": "ym2612"
    },
    {
      "channel": 2,
      "note": 67,
      "start": 2.464,
      "duration": 0.1792,
      "velocity": 106,
      "chip": "ym2612"
    },
    {
      "channel": 0,
      "note": 67,
      "start": 2.5469,
      "duration": 0.2639,
      "velocity": 106,
      "chip": "ym2612"
    },
    {
      "channel": 3,
      "note": 55,
      "start": 2.563,
      "duration": 0.081,
      "velocity": 101,
      "chip": "ym2612"
    },
    {
      "channel": 1,
      "note": 57,
      "start": 2.6652,
      "duration": 0.0777,
      "velocity": 101,
      "chip": "ym2612"
    },
    {
      "channel": 2,
      "note": 67,
      "start": 2.6715,
      "duration": 0.2549,
      "velocity": 106,
      "chip": "ym2612"
    },
    {
      "channel": 3,
      "note": 67,
      "start": 2.73,
      "duration": 0.2644,
      "velocity": 106,
      "chip": "ym2612"
    },
    {
      "channel": 1,
      "note": 55,
      "start": 2.7508,
      "duration": 0.0754,
      "velocity": 101,
      "chip": "ym2612"
    },
    {
      "channel": 0,
      "note": 53,
      "start": 2.8541,
      "duration": 0.2553,
      "velocity": 101,
      "chip": "ym2612"
    },
    {
      "channel": 1,
      "note": 65,
      "start": 2.8615,
      "duration": 0.1648,
      "velocity": 106,
      "chip": "ym2612"
    },
    {
      "channel": 2,
      "note": 65,
      "start": 2.9632,
      "duration": 0.1798,
      "velocity": 106,
      "chip": "ym2612"
    },
    {
      "channel": 1,
      "note": 65,
      "start": 3.0305,
      "duration": 0.1792,
      "velocity": 106,
      "chip": "ym2612"
    },
    {
      "channel": 0,
      "note": 65,
      "start": 3.1298,
      "duration": 0.2632,
      "velocity": 106,
      "chip": "ym2612"
    },
    {
      "channel": 3,
      "note": 53,
      "start": 3.1338,
      "duration": 0.0768,
      "velocity": 101,
      "chip": "ym2612"
    },
    {
      "channel": 1,
      "note": 55,
      "start": 3.2317,
      "duration": 0.0779,
      "velocity": 101,
      "chip": "ym2612"
    },
    {
      "channel": 2,
      "note": 65,
      "start": 3.2465,
      "duration": 0.2632,
      "velocity": 106,
      "chip": "ym2612"
    },
    {
      "channel": 1,
      "note": 65,
      "start": 3.316,
      "duration": 0.2604,
      "velocity": 106,
      "chip": "ym2612"
    },
    {
      "channel": 3,
      "note": 53,
      "start": 3.3296,
      "duration": 0.08,
      "velocity": 101,
      "chip": "ym2612"
    },
    {
      "channel": 0,
      "note": 52,
      "start": 3.4246,
      "duration": 0.0682,
      "velocity": 101,
      "chip": "ym2612"
    },
    {
      "channel": 3,
      "note": 64,
      "start": 3.4322,
      "duration": 0.0941,
      "velocity": 106,
      "chip": "ym2612"
    },
    {
      "channel": 0,
      "note": 64,
      "start": 3.5477,
      "duration": 0.0952,
      "velocity": 106,
      "chip": "ym2612"
    },
    {
      "channel": 1,
      "note": 64,
      "start": 3.5964,
      "duration": 0.0798,
      "velocity": 106,
      "chip": "ym2612"
    },
    {
      "channel": 2,
      "note": 64,
      "start": 3.6007,
      "duration": 0.0933,
      "velocity": 106,
      "chip": "ym2612"
    },
    {
      "channel": 3,
      "note": 52,
      "start": 3.613,
      "duration": 0.08,
      "velocity": 101,
      "chip": "ym2612"
    },
    {
      "channel": 0,
      "note": 57,
      "start": 3.6981,
      "duration": 0.078,
      "velocity": 101,
      "chip": "ym2612"
    },
    {
      "channel": 1,
      "note": 69,
      "start": 3.7022,
      "duration": 0.0748,
      "velocity": 106,
      "chip": "ym2612"
    },
    {
      "channel": 2,
      "note": 64,
      "start": 3.7132,
      "duration": 0.0798,
      "velocity": 106,
      "chip": "ym2612"
    },
    {
      "channel": 0,
      "note": 64,
      "start": 3.7813,
      "duration": 0.0783,
      "velocity": 106,
      "chip": "ym2612"
    },
    {
      "channel": 1,
      "note": 69,
      "start": 3.8298,
      "duration": 0.081,
      "velocity": 106,
      "chip": "ym2612"
    },
    {
      "channel": 0,
      "note": 69,
      "start": 3.8798,
      "duration": 0.0631,
      "velocity": 106,
      "chip": "ym2612"
    },
    {
      "channel": 2,
      "note": 69,
      "start": 3.884,
      "duration": 0.0757,
      "velocity": 106,
      "chip": "ym2612"
    },
    {
      "channel": 3,
      "note": 62,
      "start": 3.8966,
      "duration": 0.0803,
      "velocity": 127,
      "chip": "ym2612"
    },
    {
      "channel": 4,
      "note": 57,
      "start": 3.9007,
      "duration": 0.077,
      "velocity": 101,
      "chip": "ym2612"
    },
    {
      "channel": 5,
      "note": 50,
      "start": 3.9051,
      "duration": 0.0711,
      "velocity": 117,
      "chip": "ym2612"
    },
    {
      "channel": 0,
      "note": 62,
      "start": 3.9977,
      "duration": 0.0783,
      "velocity": 127,
      "chip": "ym2612"
    },
    {
      "channel": 1,
      "note": 50,
      "start": 4.0019,
      "duration": 2.8434,
      "velocity": 101,
      "chip": "ym2612"
    },
    {
      "channel": 2,
      "note": 62,
      "start": 4.0062,
      "duration": 2.8381,
      "velocity": 106,
      "chip": "ym2612"
    },
    {
      "channel": 3,
      "note": 50,
      "start": 4.0109,
      "duration": 0.0657,
      "velocity": 117,
      "chip": "ym2612"
    },
    {
      "channel": 4,
      "note": 69,
      "start": 4.0151,
      "duration": 0.0447,
      "velocity": 106,
      "chip": "ym2612"
    },
    {
      "channel": 4,
      "note": 69,
      "start": 4.0642,
      "duration": 0.0623,
      "velocity": 106,
      "chip": "ym2612"
    },
    {
      "channel": 0,
      "note": 62,
      "start": 4.0977,
      "duration": 2.7286,
      "velocity": 106,
      "chip": "ym2612"
    },
    {
      "channel": 3,
      "note": 62,
      "start": 4.1466,
      "duration": 2.5799,
      "velocity": 106,
      "chip": "ym2612"
    },
    {
      "channel": 0,
      "note": 50,
      "start": 6.8516,
      "duration": 0.0757,
      "velocity": 101,
      "chip": "ym2612"
    },
    {
      "channel": 0,
      "note": 53,
      "start": 6.9463,
      "duration": 0.0811,
      "velocity": 101,
      "chip": "ym2612"
    },
    {
      "channel": 0,
      "note": 55,
      "start": 7.0314,
      "duration": 0.0792,
      "velocity": 101,
      "chip": "ym2612"
    },
    {
      "channel": 0,
      "note": 57,
      "start": 7.1296,
      "duration": 0.1644,
      "velocity": 101,
      "chip": "ym2612"
    },
    {
      "channel": 0,
      "note": 55,
      "start": 7.3296,
      "duration": 0.0798,
      "velocity": 101,
      "chip": "ym2612"
    },
    {
      "channel": 0,
      "note": 56,
      "start": 7.4134,
      "duration": 0.0793,
      "velocity": 101,
      "chip": "ym2612"
    },
    {
      "channel": 0,
      "note": 57,
      "start": 7.5129,
      "duration": 0.0798,
      "velocity": 101,
      "chip": "ym2612"
    },
    {
      "channel": 0,
      "note": 60,
      "start": 7.6129,
      "duration": 0.08,
      "velocity": 101,
      "chip": "ym2612"
    },
    {
      "channel": 0,
      "note": 62,
      "start": 7.6968,
      "duration": 0.1627,
      "velocity": 101,
      "chip": "ym2612"
    },
    {
      "channel": 0,
      "note": 60,
      "start": 7.8963,
      "duration": 0.0798,
      "velocity": 101,
      "chip": "ym2612"
    },
    {
      "channel": 0,
      "note": 53,
      "start": 7.9963,
      "duration": 0.0799,
      "velocity": 101,
      "chip": "ym2612"
    },
    {
      "channel": 0,
      "note": 55,
      "start": 8.0802,
      "duration": 0.0793,
      "velocity": 101,
      "chip": "ym2612"
    },
    {
      "channel": 0,
      "note": 57,
      "start": 8.1796,
      "duration": 0.0798,
      "velocity": 101,
      "chip": "ym2612"
    },
    {
      "channel": 0,
      "note": 60,
      "start": 8.2795,
      "duration": 0.08,
      "velocity": 101,
      "chip": "ym2612"
    },
    {
      "channel": 0,
      "note": 57,
      "start": 8.3634,
      "duration": 0.0793,
      "velocity": 101,
      "chip": "ym2612"
    },
    {
      "channel": 0,
      "note": 60,
      "start": 8.4629,
      "duration": 0.0798,
      "velocity": 101,
      "chip": "ym2612"
    },
    {
      "channel": 0,
      "note": 62,
      "start": 8.5629,
      "duration": 0.0798,
      "velocity": 101,
      "chip": "ym2612"
    },
    {
      "channel": 0,
      "note": 60,
      "start": 8.6629,
      "duration": 0.0799,
      "velocity": 101,
      "chip": "ym2612"
    },
    {
      "channel": 0,
      "note": 53,
      "start": 8.7468,
      "duration": 0.0793,
      "velocity": 101,
      "chip": "ym2612"
    },
    {
      "channel": 0,
      "note": 50,
      "start": 8.8462,
      "duration": 0.0799,
      "velocity": 101,
      "chip": "ym2612"
    },
    {
      "channel": 0,
      "note": 53,
      "start": 8.9475,
      "duration": 0.0787,
      "velocity": 101,
      "chip": "ym2612"
    },
    {
      "channel": 0,
      "note": 55,
      "start": 9.0301,
      "duration": 0.0793,
      "velocity": 101,
      "chip": "ym2612"
    },
    {
      "channel": 0,
      "note": 57,
      "start": 9.1307,
      "duration": 0.162,
      "velocity": 101,
      "chip": "ym2612"
    },
    {
      "channel": 0,
      "note": 55,
      "start": 9.3296,
      "duration": 0.0811,
      "velocity": 101,
      "chip": "ym2612"
    },
    {
      "channel": 0,
      "note": 56,
      "start": 9.4147,
      "duration": 0.0793,
      "velocity": 101,
      "chip": "ym2612"
    },
    {
      "channel": 0,
      "note": 57,
      "start": 9.5129,
      "duration": 0.081,
      "velocity": 101,
      "chip": "ym2612"
    },
    {
      "channel": 0,
      "note": 60,
      "start": 9.6129,
      "duration": 0.08,
      "velocity": 101,
      "chip": "ym2612"
    },
    {
      "channel": 0,
      "note": 62,
      "start": 9.6968,
      "duration": 0.1639,
      "velocity": 101,
      "chip": "ym2612"
    },
    {
      "channel": 0,
      "note": 60,
      "start": 9.8963,
      "duration": 0.0798,
      "velocity": 101,
      "chip": "ym2612"
    },
    {
      "channel": 0,
      "note": 55,
      "start": 9.9963,
      "duration": 0.0799,
      "velocity": 101,
      "chip": "ym2612"
    },
    {
      "channel": 0,
      "note": 57,
      "start": 10.0801,
      "duration": 0.0793,
      "velocity": 101,
      "chip": "ym2612"
    },
    {
      "channel": 0,
      "note": 60,
      "start": 10.1795,
      "duration": 0.0799,
      "velocity": 101,
      "chip": "ym2612"
    },
    {
      "channel": 0,
      "note": 65,
      "start": 10.2795,
      "duration": 0.0799,
      "velocity": 101,
      "chip": "ym2612"
    },
    {
      "channel": 0,
      "note": 60,
      "start": 10.3634,
      "duration": 0.0793,
      "velocity": 101,
      "chip": "ym2612"
    },
    {
      "channel": 0,
      "note": 55,
      "start": 10.4629,
      "duration": 0.0799,
      "velocity": 101,
      "chip": "ym2612"
    },
    {
      "channel": 0,
      "note": 62,
      "start": 10.5629,
      "duration": 0.0798,
      "velocity": 101,
      "chip": "ym2612"
    },
    {
      "channel": 0,
      "note": 57,
      "start": 10.6629,
      "duration": 0.0799,
      "velocity": 101,
      "chip": "ym2612"
    },
    {
      "channel": 0,
      "note": 52,
      "start": 10.7468,
      "duration": 0.0793,
      "velocity": 101,
      "chip": "ym2612"
    },
    {
      "channel": 0,
      "note": 50,
      "start": 10.8462,
      "duration": 0.0799,
      "velocity": 101,
      "chip": "ym2612"
    },
    {
      "channel": 0,
      "note": 53,
      "start": 10.9462,
      "duration": 0.0799,
      "velocity": 101,
      "chip": "ym2612"
    },
    {
      "channel": 0,
      "note": 55,
      "start": 11.0301,
      "duration": 0.0793,
      "velocity": 101,
      "chip": "ym2612"
    },
    {
      "channel": 0,
      "note": 57,
      "start": 11.1295,
      "duration": 0.1632,
      "velocity": 101,
      "chip": "ym2612"
    },
    {
      "channel": 0,
      "note": 55,
      "start": 11.3307,
      "duration": 0.0787,
      "velocity": 101,
      "chip": "ym2612"
    },
    {
      "channel": 0,
      "note": 56,
      "start": 11.4134,
      "duration": 0.0793,
      "velocity": 101,
      "chip": "ym2612"
    },
    {
      "channel": 0,
      "note": 57,
      "start": 11.514,
      "duration": 0.0788,
      "velocity": 101,
      "chip": "ym2612"
    },
    {
      "channel": 0,
      "note": 60,
      "start": 11.6141,
      "duration": 0.0799,
      "velocity": 101,
      "chip": "ym2612"
    },
    {
      "channel": 0,
      "note": 62,
      "start": 11.698,
      "duration": 0.1614,
      "velocity": 101,
      "chip": "ym2612"
    },
    {
      "channel": 0,
      "note": 60,
      "start": 11.8962,
      "duration": 0.0811,
      "velocity": 101,
      "chip": "ym2612"
    },
    {
      "channel": 0,
      "note": 53,
      "start": 11.9963,
      "duration": 0.0799,
      "velocity": 101,
      "chip": "ym2612"
    },
    {
      "channel": 0,
      "note": 55,
      "start": 12.0802,
      "duration": 0.0805,
      "velocity": 101,
      "chip": "ym2612"
    },
    {
      "channel": 0,
      "note": 57,
      "start": 12.1796,
      "duration": 0.0798,
      "velocity": 101,
      "chip": "ym2612"
    },
    {
      "channel": 0,
      "note": 60,
      "start": 12.2796,
      "duration": 0.0798,
      "velocity": 101,
      "chip": "ym2612"
    },
    {
      "channel": 0,
      "note": 57,
      "start": 12.3634,
      "duration": 0.0793,
      "velocity": 101,
      "chip": "ym2612"
    },
    {
      "channel": 0,
      "note": 60,
      "start": 12.4629,
      "duration": 0.0798,
      "velocity": 101,
      "chip": "ym2612"
    },
    {
      "channel": 0,
      "note": 62,
      "start": 12.5629,
      "duration": 0.0799,
      "velocity": 101,
      "chip": "ym2612"
    },
    {
      "channel": 0,
      "note": 60,
      "start": 12.6629,
      "duration": 0.0799,
      "velocity": 101,
      "chip": "ym2612"
    },
    {
      "channel": 0,
      "note": 53,
      "start": 12.7468,
      "duration": 0.0793,
      "velocity": 101,
      "chip": "ym2612"
    },
    {
      "channel": 0,
      "note": 50,
      "start": 12.8462,
      "duration": 0.0799,
      "velocity": 101,
      "chip": "ym2612"
    },
    {
      "channel": 0,
      "note": 53,
      "start": 12.9463,
      "duration": 0.0799,
      "velocity": 101,
      "chip": "ym2612"
    },
    {
      "channel": 0,
      "note": 55,
      "start": 13.0301,
      "duration": 0.0793,
      "velocity": 101,
      "chip": "ym2612"
    },
    {
      "channel": 0,
      "note": 57,
      "start": 13.1296,
      "duration": 0.1632,
      "velocity": 101,
      "chip": "ym2612"
    },
    {
      "channel": 0,
      "note": 55,
      "start": 13.3296,
      "duration": 0.0798,
      "velocity": 101,
      "chip": "ym2612"
    },
    {
      "channel": 0,
      "note": 56,
      "start": 13.4134,
      "duration": 0.0793,
      "velocity": 101,
      "chip": "ym2612"
    },
    {
      "channel": 0,
      "note": 57,
      "start": 13.5129,
      "duration": 0.0799,
      "velocity": 101,
      "chip": "ym2612"
    },
    {
      "channel": 0,
      "note": 60,
      "start": 13.6129,
      "duration": 0.0799,
      "velocity": 101,
      "chip": "ym2612"
    },
    {
      "channel": 0,
      "note": 62,
      "start": 13.6968,
      "duration": 0.1627,
      "velocity": 101,
      "chip": "ym2612"
    },
    {
      "channel": 0,
      "note": 60,
      "start": 13.8975,
      "duration": 0.0785,
      "velocity": 101,
      "chip": "ym2612"
    },
    {
      "channel": 1,
      "note": 50,
      "start": 13.9018,
      "duration": 0.0242,
      "velocity": 117,
      "chip": "ym2612"
    },
    {
      "channel": 1,
      "note": 50,
      "start": 13.9466,
      "duration": 0.03,
      "velocity": 117,
      "chip": "ym2612"
    },
    {
      "channel": 0,
      "note": 74,
      "start": 13.9976,
      "duration": 0.0797,
      "velocity": 127,
      "chip": "ym2612"
    },
    {
      "channel": 1,
      "note": 55,
      "start": 14.0017,
      "duration": 0.0765,
      "velocity": 101,
      "chip": "ym2612"
    },
    {
      "channel": 0,
      "note": 74,
      "start": 14.0823,
      "duration": 0.077,
      "velocity": 127,
      "chip": "ym2612"
    },
    {
      "channel": 1,
      "note": 57,
      "start": 14.0863,
      "duration": 0.0737,
      "velocity": 101,
      "chip": "ym2612"
    },
    {
      "channel": 0,
      "note": 74,
      "start": 14.181,
      "duration": 0.0796,
      "velocity": 127,
      "chip": "ym2612"
    },
    {
      "channel": 1,
      "note": 60,
      "start": 14.185,
      "duration": 0.0762,
      "velocity": 101,
      "chip": "ym2612"
    },
    {
      "channel": 0,
      "note": 74,
      "start": 14.2798,
      "duration": 0.0809,
      "velocity": 127,
      "chip": "ym2612"
    },
    {
      "channel": 1,
      "note": 65,
      "start": 14.2838,
      "duration": 0.0777,
      "velocity": 101,
      "chip": "ym2612"
    },
    {
      "channel": 0,
      "note": 74,
      "start": 14.3656,
      "duration": 0.0782,
      "velocity": 127,
      "chip": "ym2612"
    },
    {
      "channel": 1,
      "note": 60,
      "start": 14.3697,
      "duration": 0.0748,
      "velocity": 101,
      "chip": "ym2612"
    },
    {
      "channel": 0,
      "note": 74,
      "start": 14.4631,
      "duration": 0.0809,
      "velocity": 127,
      "chip": "ym2612"
    },
    {
      "channel": 1,
      "note": 55,
      "start": 14.4671,
      "duration": 0.0775,
      "velocity": 101,
      "chip": "ym2612"
    },
    {
      "channel": 0,
      "note": 74,
      "start": 14.5631,
      "duration": 0.0796,
      "velocity": 127,
      "chip": "ym2612"
    },
    {
      "channel": 1,
      "note": 62,
      "start": 14.5671,
      "duration": 0.0762,
      "velocity": 101,
      "chip": "ym2612"
    },
    {
      "channel": 0,
      "note": 74,
      "start": 14.6631,
      "duration": 0.0796,
      "velocity": 127,
      "chip": "ym2612"
    },
    {
      "channel": 1,
      "note": 57,
      "start": 14.6671,
      "duration": 0.0765,
      "velocity": 101,
      "chip": "ym2612"
    },
    {
      "channel": 0,
      "note": 74,
      "start": 14.7478,
      "duration": 0.0782,
      "velocity": 127,
      "chip": "ym2612"
    },
    {
      "channel": 1,
      "note": 52,
      "start": 14.7518,
      "duration": 0.0749,
      "velocity": 101,
      "chip": "ym2612"
    },
    {
      "channel": 0,
      "note": 50,
      "start": 14.847,
      "duration": 0.0792,
      "velocity": 101,
      "chip": "ym2612"
    },
    {
      "channel": 1,
      "note": 50,
      "start": 14.8514,
      "duration": 0.0754,
      "velocity": 117,
      "chip": "ym2612"
    },
    {
      "channel": 0,
      "note": 71,
      "start": 14.9316,
      "duration": 0.0783,
      "velocity": 127,
      "chip": "ym2612"
    },
    {
      "channel": 1,
      "note": 53,
      "start": 14.9356,
      "duration": 0.0749,
      "velocity": 101,
      "chip": "ym2612"
    },
    {
      "channel": 0,
      "note": 55,
      "start": 15.0296,
      "duration": 0.0799,
      "velocity": 101,
      "chip": "ym2612"
    },
    {
      "channel": 1,
      "note": 50,
      "start": 15.034,
      "duration": 0.076,
      "velocity": 117,
      "chip": "ym2612"
    },
    {
      "channel": 0,
      "note": 74,
      "start": 15.1298,
      "duration": 0.1796,
      "velocity": 127,
      "chip": "ym2612"
    },
    {
      "channel": 1,
      "note": 57,
      "start": 15.1338,
      "duration": 0.1764,
      "velocity": 101,
      "chip": "ym2612"
    },
    {
      "channel": 2,
      "note": 50,
      "start": 15.1389,
      "duration": 0.0211,
      "velocity": 117,
      "chip": "ym2612"
    },
    {
      "channel": 0,
      "note": 71,
      "start": 15.315,
      "duration": 0.0782,
      "velocity": 127,
      "chip": "ym2612"
    },
    {
      "channel": 1,
      "note": 55,
      "start": 15.3191,
      "duration": 0.0754,
      "velocity": 101,
      "chip": "ym2612"
    },
    {
      "channel": 2,
      "note": 50,
      "start": 15.3235,
      "duration": 0.0704,
      "velocity": 117,
      "chip": "ym2612"
    },
    {
      "channel": 0,
      "note": 56,
      "start": 15.413,
      "duration": 0.0798,
      "velocity": 101,
      "chip": "ym2612"
    },
    {
      "channel": 1,
      "note": 50,
      "start": 15.4173,
      "duration": 0.076,
      "velocity": 117,
      "chip": "ym2612"
    },
    {
      "channel": 0,
      "note": 71,
      "start": 15.5136,
      "duration": 0.0797,
      "velocity": 127,
      "chip": "ym2612"
    },
    {
      "channel": 1,
      "note": 57,
      "start": 15.5176,
      "duration": 0.0764,
      "velocity": 101,
      "chip": "ym2612"
    },
    {
      "channel": 0,
      "note": 60,
      "start": 15.5981,
      "duration": 0.078,
      "velocity": 101,
      "chip": "ym2612"
    },
    {
      "channel": 1,
      "note": 50,
      "start": 15.6024,
      "duration": 0.0742,
      "velocity": 117,
      "chip": "ym2612"
    },
    {
      "channel": 0,
      "note": 74,
      "start": 15.6964,
      "duration": 0.1796,
      "velocity": 127,
      "chip": "ym2612"
    },
    {
      "channel": 1,
      "note": 62,
      "start": 15.7005,
      "duration": 0.1761,
      "velocity": 101,
      "chip": "ym2612"
    },
    {
      "channel": 2,
      "note": 50,
      "start": 15.7056,
      "duration": 0.0223,
      "velocity": 117,
      "chip": "ym2612"
    },
    {
      "channel": 0,
      "note": 71,
      "start": 15.8969,
      "duration": 0.0797,
      "velocity": 127,
      "chip": "ym2612"
    },
    {
      "channel": 1,
      "note": 60,
      "start": 15.901,
      "duration": 0.0772,
      "velocity": 101,
      "chip": "ym2612"
    },
    {
      "channel": 2,
      "note": 50,
      "start": 15.9054,
      "duration": 0.0719,
      "velocity": 117,
      "chip": "ym2612"
    },
    {
      "channel": 0,
      "note": 53,
      "start": 15.9822,
      "duration": 0.0772,
      "velocity": 101,
      "chip": "ym2612"
    },
    {
      "channel": 1,
      "note": 50,
      "start": 15.9866,
      "duration": 0.0734,
      "velocity": 117,
      "chip": "ym2612"
    },
    {
      "channel": 0,
      "note": 71,
      "start": 16.0802,
      "duration": 0.0796,
      "velocity": 127,
      "chip": "ym2612"
    },
    {
      "channel": 1,
      "note": 55,
      "start": 16.0842,
      "duration": 0.0763,
      "velocity": 101,
      "chip": "ym2612"
    },
    {
      "channel": 0,
      "note": 50,
      "start": 16.18,
      "duration": 0.0794,
      "velocity": 117,
      "chip": "ym2612"
    },
    {
      "channel": 1,
      "note": 57,
      "start": 16.184,
      "duration": 0.0761,
      "velocity": 101,
      "chip": "ym2612"
    },
    {
      "channel": 0,
      "note": 74,
      "start": 16.2644,
      "duration": 0.1782,
      "velocity": 127,
      "chip": "ym2612"
    },
    {
      "channel": 1,
      "note": 60,
      "start": 16.2685,
      "duration": 0.0743,
      "velocity": 101,
      "chip": "ym2612"
    },
    {
      "channel": 2,
      "note": 50,
      "start": 16.2735,
      "duration": 0.0198,
      "velocity": 117,
      "chip": "ym2612"
    },
    {
      "channel": 1,
      "note": 57,
      "start": 16.3629,
      "duration": 0.0804,
      "velocity": 101,
      "chip": "ym2612"
    },
    {
      "channel": 0,
      "note": 71,
      "start": 16.4648,
      "duration": 0.0784,
      "velocity": 127,
      "chip": "ym2612"
    },
    {
      "channel": 1,
      "note": 60,
      "start": 16.4689,
      "duration": 0.0756,
      "velocity": 101,
      "chip": "ym2612"
    },
    {
      "channel": 2,
      "note": 50,
      "start": 16.4733,
      "duration": 0.0706,
      "velocity": 117,
      "chip": "ym2612"
    },
    {
      "channel": 0,
      "note": 62,
      "start": 16.5642,
      "duration": 0.0798,
      "velocity": 101,
      "chip": "ym2612"
    },
    {
      "channel": 1,
      "note": 50,
      "start": 16.5685,
      "duration": 0.0761,
      "velocity": 117,
      "chip": "ym2612"
    },
    {
      "channel": 0,
      "note": 71,
      "start": 16.6494,
      "duration": 0.0772,
      "velocity": 127,
      "chip": "ym2612"
    },
    {
      "channel": 1,
      "note": 60,
      "start": 16.6534,
      "duration": 0.0738,
      "velocity": 101,
      "chip": "ym2612"
    },
    {
      "channel": 0,
      "note": 53,
      "start": 16.7475,
      "duration": 0.0799,
      "velocity": 101,
      "chip": "ym2612"
    },
    {
      "channel": 1,
      "note": 50,
      "start": 16.7518,
      "duration": 0.076,
      "velocity": 117,
      "chip": "ym2612"
    },
    {
      "channel": 0,
      "note": 50,
      "start": 16.8463,
      "duration": 0.0812,
      "velocity": 101,
      "chip": "ym2612"
    },
    {
      "channel": 1,
      "note": 50,
      "start": 16.8506,
      "duration": 0.0775,
      "velocity": 117,
      "chip": "ym2612"
    },
    {
      "channel": 0,
      "note": 71,
      "start": 16.9328,
      "duration": 0.0783,
      "velocity": 127,
      "chip": "ym2612"
    },
    {
      "channel": 1,
      "note": 53,
      "start": 16.9368,
      "duration": 0.0749,
      "velocity": 101,
      "chip": "ym2612"
    },
    {
      "channel": 0,
      "note": 55,
      "start": 17.0296,
      "duration": 0.0811,
      "velocity": 101,
      "chip": "ym2612"
    },
    {
      "channel": 1,
      "note": 50,
      "start": 17.0339,
      "duration": 0.0773,
      "velocity": 117,
      "chip": "ym2612"
    },
    {
      "channel": 0,
      "note": 74,
      "start": 17.1298,
      "duration": 0.1796,
      "velocity": 127,
      "chip": "ym2612"
    },
    {
      "channel": 1,
      "note": 57,
      "start": 17.1338,
      "duration": 0.1764,
      "velocity": 101,
      "chip": "ym2612"
    },
    {
      "channel": 2,
      "note": 50,
      "start": 17.1389,
      "duration": 0.0211,
      "velocity": 117,
      "chip": "ym2612"
    },
    {
      "channel": 0,
      "note": 71,
      "start": 17.315,
      "duration": 0.0782,
      "velocity": 127,
      "chip": "ym2612"
    },
    {
      "channel": 1,
      "note": 55,
      "start": 17.3191,
      "duration": 0.0754,
      "velocity": 101,
      "chip": "ym2612"
    },
    {
      "channel": 2,
      "note": 50,
      "start": 17.3235,
      "duration": 0.0704,
      "velocity": 117,
      "chip": "ym2612"
    },
    {
      "channel": 0,
      "note": 56,
      "start": 17.413,
      "duration": 0.0798,
      "velocity": 101,
      "chip": "ym2612"
    },
    {
      "channel": 1,
      "note": 50,
      "start": 17.4173,
      "duration": 0.076,
      "velocity": 117,
      "chip": "ym2612"
    },
    {
      "channel": 0,
      "note": 71,
      "start": 17.5136,
      "duration": 0.0797,
      "velocity": 127,
      "chip": "ym2612"
    },
    {
      "channel": 1,
      "note": 57,
      "start": 17.5176,
      "duration": 0.0764,
      "velocity": 101,
      "chip": "ym2612"
    },
    {
      "channel": 0,
      "note": 60,
      "start": 17.5981,
      "duration": 0.078,
      "velocity": 101,
      "chip": "ym2612"
    },
    {
      "channel": 1,
      "note": 50,
      "start": 17.6024,
      "duration": 0.0742,
      "velocity": 117,
      "chip": "ym2612"
    },
    {
      "channel": 0,
      "note": 74,
      "start": 17.6964,
      "duration": 0.1796,
      "velocity": 127,
      "chip": "ym2612"
    },
    {
      "channel": 1,
      "note": 62,
      "start": 17.7005,
      "duration": 0.1761,
      "velocity": 101,
      "chip": "ym2612"
    },
    {
      "channel": 2,
      "note": 50,
      "start": 17.7056,
      "duration": 0.0211,
      "velocity": 117,
      "chip": "ym2612"
    },
    {
      "channel": 0,
      "note": 71,
      "start": 17.8969,
      "duration": 0.0797,
      "velocity": 127,
      "chip": "ym2612"
    },
    {
      "channel": 1,
      "note": 60,
      "start": 17.901,
      "duration": 0.0772,
      "velocity": 101,
      "chip": "ym2612"
    },
    {
      "channel": 2,
      "note": 50,
      "start": 17.9054,
      "duration": 0.0719,
      "velocity": 117,
      "chip": "ym2612"
    },
    {
      "channel": 0,
      "note": 55,
      "start": 17.9822,
      "duration": 0.0772,
      "velocity": 101,
      "chip": "ym2612"
    },
    {
      "channel": 1,
      "note": 50,
      "start": 17.9866,
      "duration": 0.0734,
      "velocity": 117,
      "chip": "ym2612"
    },
    {
      "channel": 0,
      "note": 71,
      "start": 18.0802,
      "duration": 0.0796,
      "velocity": 127,
      "chip": "ym2612"
    },
    {
      "channel": 1,
      "note": 57,
      "start": 18.0843,
      "duration": 0.0762,
      "velocity": 101,
      "chip": "ym2612"
    },
    {
      "channel": 0,
      "note": 50,
      "start": 18.18,
      "duration": 0.0794,
      "velocity": 117,
      "chip": "ym2612"
    },
    {
      "channel": 1,
      "note": 60,
      "start": 18.184,
      "duration": 0.0761,
      "velocity": 101,
      "chip": "ym2612"
    },
    {
      "channel": 0,
      "note": 74,
      "start": 18.2644,
      "duration": 0.1782,
      "velocity": 127,
      "chip": "ym2612"
    },
    {
      "channel": 1,
      "note": 65,
      "start": 18.2685,
      "duration": 0.0743,
      "velocity": 101,
      "chip": "ym2612"
    },
    {
      "channel": 2,
      "note": 50,
      "start": 18.2735,
      "duration": 0.0211,
      "velocity": 117,
      "chip": "ym2612"
    },
    {
      "channel": 1,
      "note": 60,
      "start": 18.3629,
      "duration": 0.0804,
      "velocity": 101,
      "chip": "ym2612"
    },
    {
      "channel": 0,
      "note": 71,
      "start": 18.4636,
      "duration": 0.0796,
      "velocity": 127,
      "chip": "ym2612"
    },
    {
      "channel": 1,
      "note": 55,
      "start": 18.4677,
      "duration": 0.0768,
      "velocity": 101,
      "chip": "ym2612"
    },
    {
      "channel": 2,
      "note": 50,
      "start": 18.4721,
      "duration": 0.0717,
      "velocity": 117,
      "chip": "ym2612"
    },
    {
      "channel": 0,
      "note": 62,
      "start": 18.5629,
      "duration": 0.0799,
      "velocity": 101,
      "chip": "ym2612"
    },
    {
      "channel": 1,
      "note": 50,
      "start": 18.5673,
      "duration": 0.0762,
      "velocity": 117,
      "chip": "ym2612"
    },
    {
      "channel": 0,
      "note": 71,
      "start": 18.6482,
      "duration": 0.0783,
      "velocity": 127,
      "chip": "ym2612"
    },
    {
      "channel": 1,
      "note": 57,
      "start": 18.6522,
      "duration": 0.0749,
      "velocity": 101,
      "chip": "ym2612"
    },
    {
      "channel": 0,
      "note": 52,
      "start": 18.7463,
      "duration": 0.0798,
      "velocity": 101,
      "chip": "ym2612"
    },
    {
      "channel": 1,
      "note": 50,
      "start": 18.7506,
      "duration": 0.076,
      "velocity": 117,
      "chip": "ym2612"
    },
    {
      "channel": 0,
      "note": 50,
      "start": 18.8474,
      "duration": 0.0788,
      "velocity": 101,
      "chip": "ym2612"
    },
    {
      "channel": 1,
      "note": 50,
      "start": 18.8517,
      "duration": 0.0751,
      "velocity": 117,
      "chip": "ym2612"
    },
    {
      "channel": 0,
      "note": 71,
      "start": 18.9316,
      "duration": 0.0783,
      "velocity": 127,
      "chip": "ym2612"
    },
    {
      "channel": 1,
      "note": 53,
      "start": 18.9356,
      "duration": 0.0749,
      "velocity": 101,
      "chip": "ym2612"
    },
    {
      "channel": 0,
      "note": 55,
      "start": 19.0309,
      "duration": 0.0786,
      "velocity": 101,
      "chip": "ym2612"
    },
    {
      "channel": 1,
      "note": 50,
      "start": 19.0352,
      "duration": 0.0748,
      "velocity": 117,
      "chip": "ym2612"
    },
    {
      "channel": 0,
      "note": 74,
      "start": 19.131,
      "duration": 0.1796,
      "velocity": 127,
      "chip": "ym2612"
    },
    {
      "channel": 1,
      "note": 57,
      "start": 19.1351,
      "duration": 0.1764,
      "velocity": 101,
      "chip": "ym2612"
    },
    {
      "channel": 2,
      "note": 50,
      "start": 19.1401,
      "duration": 0.0199,
      "velocity": 117,
      "chip": "ym2612"
    },
    {
      "channel": 0,
      "note": 71,
      "start": 19.3163,
      "duration": 0.0781,
      "velocity": 127,
      "chip": "ym2612"
    },
    {
      "channel": 1,
      "note": 55,
      "start": 19.3204,
      "duration": 0.0753,
      "velocity": 101,
      "chip": "ym2612"
    },
    {
      "channel": 2,
      "note": 50,
      "start": 19.3247,
      "duration": 0.0703,
      "velocity": 117,
      "chip": "ym2612"
    },
    {
      "channel": 0,
      "note": 56,
      "start": 19.4129,
      "duration": 0.0811,
      "velocity": 101,
      "chip": "ym2612"
    },
    {
      "channel": 1,
      "note": 50,
      "start": 19.4173,
      "duration": 0.0772,
      "velocity": 117,
      "chip": "ym2612"
    },
    {
      "channel": 0,
      "note": 71,
      "start": 19.5136,
      "duration": 0.0797,
      "velocity": 127,
      "chip": "ym2612"
    },
    {
      "channel": 1,
      "note": 57,
      "start": 19.5176,
      "duration": 0.0764,
      "velocity": 101,
      "chip": "ym2612"
    },
    {
      "channel": 0,
      "note": 60,
      "start": 19.5981,
      "duration": 0.0793,
      "velocity": 101,
      "chip": "ym2612"
    },
    {
      "channel": 1,
      "note": 50,
      "start": 19.6024,
      "duration": 0.0754,
      "velocity": 117,
      "chip": "ym2612"
    },
    {
      "channel": 0,
      "note": 74,
      "start": 19.6964,
      "duration": 0.1796,
      "velocity": 127,
      "chip": "ym2612"
    },
    {
      "channel": 1,
      "note": 62,
      "start": 19.7005,
      "duration": 0.1761,
      "velocity": 101,
      "chip": "ym2612"
    },
    {
      "channel": 2,
      "note": 50,
      "start": 19.7056,
      "duration": 0.0211,
      "velocity": 117,
      "chip": "ym2612"
    },
    {
      "channel": 0,
      "note": 71,
      "start": 19.8969,
      "duration": 0.0797,
      "velocity": 127,
      "chip": "ym2612"
    },
    {
      "channel": 1,
      "note": 60,
      "start": 19.901,
      "duration": 0.0772,
      "velocity": 101,
      "chip": "ym2612"
    },
    {
      "channel": 2,
      "note": 50,
      "start": 19.9054,
      "duration": 0.0719,
      "velocity": 117,
      "chip": "ym2612"
    },
    {
      "channel": 0,
      "note": 53,
      "start": 19.9822,
      "duration": 0.0772,
      "velocity": 101,
      "chip": "ym2612"
    },
    {
      "channel": 1,
      "note": 50,
      "start": 19.9866,
      "duration": 0.0734,
      "velocity": 117,
      "chip": "ym2612"
    },
    {
      "channel": 0,
      "note": 71,
      "start": 20.0802,
      "duration": 0.0796,
      "velocity": 127,
      "chip": "ym2612"
    },
    {
      "channel": 1,
      "note": 55,
      "start": 20.0842,
      "duration": 0.0763,
      "velocity": 101,
      "chip": "ym2612"
    },
    {
      "channel": 0,
      "note": 57,
      "start": 20.1796,
      "duration": 0.0799,
      "velocity": 101,
      "chip": "ym2612"
    },
    {
      "channel": 1,
      "note": 50,
      "start": 20.184,
      "duration": 0.0762,
      "velocity": 117,
      "chip": "ym2612"
    },
    {
      "channel": 0,
      "note": 74,
      "start": 20.2645,
      "duration": 0.1782,
      "velocity": 127,
      "chip": "ym2612"
    },
    {
      "channel": 1,
      "note": 60,
      "start": 20.2686,
      "duration": 0.0742,
      "velocity": 101,
      "chip": "ym2612"
    },
    {
      "channel": 2,
      "note": 50,
      "start": 20.2736,
      "duration": 0.0198,
      "velocity": 117,
      "chip": "ym2612"
    },
    {
      "channel": 1,
      "note": 57,
      "start": 20.3629,
      "duration": 0.0804,
      "velocity": 101,
      "chip": "ym2612"
    },
    {
      "channel": 0,
      "note": 71,
      "start": 20.4636,
      "duration": 0.0796,
      "velocity": 127,
      "chip": "ym2612"
    },
    {
      "channel": 1,
      "note": 50,
      "start": 20.4681,
      "duration": 0.0765,
      "velocity": 117,
      "chip": "ym2612"
    },
    {
      "channel": 2,
      "note": 60,
      "start": 20.4721,
      "duration": 0.0719,
      "velocity": 101,
      "chip": "ym2612"
    },
    {
      "channel": 0,
      "note": 62,
      "start": 20.5629,
      "duration": 0.08,
      "velocity": 101,
      "chip": "ym2612"
    },
    {
      "channel": 1,
      "note": 50,
      "start": 20.5672,
      "duration": 0.0763,
      "velocity": 117,
      "chip": "ym2612"
    },
    {
      "channel": 0,
      "note": 71,
      "start": 20.6482,
      "duration": 0.0783,
      "velocity": 127,
      "chip": "ym2612"
    },
    {
      "channel": 1,
      "note": 60,
      "start": 20.6522,
      "duration": 0.0749,
      "velocity": 101,
      "chip": "ym2612"
    },
    {
      "channel": 0,
      "note": 53,
      "start": 20.7463,
      "duration": 0.0798,
      "velocity": 101,
      "chip": "ym2612"
    },
    {
      "channel": 1,
      "note": 50,
      "start": 20.7506,
      "duration": 0.0761,
      "velocity": 117,
      "chip": "ym2612"
    },
    {
      "channel": 0,
      "note": 50,
      "start": 20.8463,
      "duration": 0.08,
      "velocity": 101,
      "chip": "ym2612"
    },
    {
      "channel": 1,
      "note": 50,
      "start": 20.8506,
      "duration": 0.0763,
      "velocity": 117,
      "chip": "ym2612"
    },
    {
      "channel": 0,
      "note": 71,
      "start": 20.9316,
      "duration": 0.0783,
      "velocity": 127,
      "chip": "ym2612"
    },
    {
      "channel": 1,
      "note": 53,
      "start": 20.9356,
      "duration": 0.0749,
      "velocity": 101,
      "chip": "ym2612"
    },
    {
      "channel": 0,
      "note": 50,
      "start": 21.0299,
      "duration": 0.0794,
      "velocity": 117,
      "chip": "ym2612"
    },
    {
      "channel": 1,
      "note": 55,
      "start": 21.0339,
      "duration": 0.076,
      "velocity": 101,
      "chip": "ym2612"
    },
    {
      "channel": 0,
      "note": 74,
      "start": 21.1298,
      "duration": 0.1796,
      "velocity": 127,
      "chip": "ym2612"
    },
    {
      "channel": 1,
      "note": 57,
      "start": 21.1338,
      "duration": 0.1764,
      "velocity": 101,
      "chip": "ym2612"
    },
    {
      "channel": 2,
      "note": 50,
      "start": 21.1389,
      "duration": 0.0211,
      "velocity": 117,
      "chip": "ym2612"
    },
    {
      "channel": 0,
      "note": 71,
      "start": 21.315,
      "duration": 0.0783,
      "velocity": 127,
      "chip": "ym2612"
    },
    {
      "channel": 1,
      "note": 55,
      "start": 21.3191,
      "duration": 0.0754,
      "velocity": 101,
      "chip": "ym2612"
    },
    {
      "channel": 2,
      "note": 50,
      "start": 21.3235,
      "duration": 0.0704,
      "velocity": 117,
      "chip": "ym2612"
    },
    {
      "channel": 0,
      "note": 56,
      "start": 21.4142,
      "duration": 0.0786,
      "velocity": 101,
      "chip": "ym2612"
    },
    {
      "channel": 1,
      "note": 50,
      "start": 21.4185,
      "duration": 0.0748,
      "velocity": 117,
      "chip": "ym2612"
    },
    {
      "channel": 0,
      "note": 71,
      "start": 21.5148,
      "duration": 0.0797,
      "velocity": 127,
      "chip": "ym2612"
    },
    {
      "channel": 1,
      "note": 57,
      "start": 21.5188,
      "duration": 0.0764,
      "velocity": 101,
      "chip": "ym2612"
    },
    {
      "channel": 0,
      "note": 60,
      "start": 21.5993,
      "duration": 0.0768,
      "velocity": 101,
      "chip": "ym2612"
    },
    {
      "channel": 1,
      "note": 50,
      "start": 21.6036,
      "duration": 0.073,
      "velocity": 117,
      "chip": "ym2612"
    },
    {
      "channel": 0,
      "note": 74,
      "start": 21.6976,
      "duration": 0.1796,
      "velocity": 127,
      "chip": "ym2612"
    },
    {
      "channel": 1,
      "note": 62,
      "start": 21.7017,
      "duration": 0.1762,
      "velocity": 101,
      "chip": "ym2612"
    },
    {
      "channel": 2,
      "note": 50,
      "start": 21.7068,
      "duration": 0.0199,
      "velocity": 117,
      "chip": "ym2612"
    },
    {
      "channel": 0,
      "note": 71,
      "start": 21.8969,
      "duration": 0.0797,
      "velocity": 127,
      "chip": "ym2612"
    },
    {
      "channel": 1,
      "note": 50,
      "start": 21.9014,
      "duration": 0.0768,
      "velocity": 117,
      "chip": "ym2612"
    },
    {
      "channel": 2,
      "note": 60,
      "start": 21.9054,
      "duration": 0.0721,
      "velocity": 101,
      "chip": "ym2612"
    },
    {
      "channel": 0,
      "note": 55,
      "start": 21.9822,
      "duration": 0.0784,
      "velocity": 101,
      "chip": "ym2612"
    },
    {
      "channel": 1,
      "note": 50,
      "start": 21.9866,
      "duration": 0.0746,
      "velocity": 117,
      "chip": "ym2612"
    },
    {
      "channel": 0,
      "note": 71,
      "start": 22.0802,
      "duration": 0.0796,
      "velocity": 127,
      "chip": "ym2612"
    },
    {
      "channel": 1,
      "note": 57,
      "start": 22.0843,
      "duration": 0.0762,
      "velocity": 101,
      "chip": "ym2612"
    },
    {
      "channel": 0,
      "note": 60,
      "start": 22.1796,
      "duration": 0.0799,
      "velocity": 101,
      "chip": "ym2612"
    },
    {
      "channel": 1,
      "note": 50,
      "start": 22.1839,
      "duration": 0.0763,
      "velocity": 117,
      "chip": "ym2612"
    },
    {
      "channel": 0,
      "note": 74,
      "start": 22.2645,
      "duration": 0.1782,
      "velocity": 127,
      "chip": "ym2612"
    },
    {
      "channel": 1,
      "note": 65,
      "start": 22.2686,
      "duration": 0.0742,
      "velocity": 101,
      "chip": "ym2612"
    },
    {
      "channel": 2,
      "note": 50,
      "start": 22.2736,
      "duration": 0.0198,
      "velocity": 117,
      "chip": "ym2612"
    },
    {
      "channel": 1,
      "note": 60,
      "start": 22.3629,
      "duration": 0.0804,
      "velocity": 101,
      "chip": "ym2612"
    },
    {
      "channel": 0,
      "note": 71,
      "start": 22.4636,
      "duration": 0.0797,
      "velocity": 127,
      "chip": "ym2612"
    },
    {
      "channel": 1,
      "note": 55,
      "start": 22.4677,
      "duration": 0.0768,
      "velocity": 101,
      "chip": "ym2612"
    },
    {
      "channel": 2,
      "note": 50,
      "start": 22.4721,
      "duration": 0.0718,
      "velocity": 117,
      "chip": "ym2612"
    },
    {
      "channel": 0,
      "note": 62,
      "start": 22.5629,
      "duration": 0.0799,
      "velocity": 101,
      "chip": "ym2612"
    },
    {
      "channel": 1,
      "note": 50,
      "start": 22.5672,
      "duration": 0.0763,
      "velocity": 117,
      "chip": "ym2612"
    },
    {
      "channel": 0,
      "note": 71,
      "start": 22.6482,
      "duration": 0.0783,
      "velocity": 127,
      "chip": "ym2612"
    },
    {
      "channel": 1,
      "note": 57,
      "start": 22.6522,
      "duration": 0.0749,
      "velocity": 101,
      "chip": "ym2612"
    },
    {
      "channel": 0,
      "note": 52,
      "start": 22.7463,
      "duration": 0.0799,
      "velocity": 101,
      "chip": "ym2612"
    },
    {
      "channel": 1,
      "note": 50,
      "start": 22.7506,
      "duration": 0.076,
      "velocity": 117,
      "chip": "ym2612"
    },
    {
      "channel": 0,
      "note": 50,
      "start": 22.8463,
      "duration": 0.0799,
      "velocity": 101,
      "chip": "ym2612"
    },
    {
      "channel": 1,
      "note": 62,
      "start": 22.8505,
      "duration": 0.0775,
      "velocity": 106,
      "chip": "ym2612"
    },
    {
      "channel": 2,
      "note": 50,
      "start": 22.8549,
      "duration": 0.0721,
      "velocity": 117,
      "chip": "ym2612"
    },
    {
      "channel": 0,
      "note": 71,
      "start": 22.9328,
      "duration": 0.0771,
      "velocity": 127,
      "chip": "ym2612"
    },
    {
      "channel": 1,
      "note": 53,
      "start": 22.9368,
      "duration": 0.0746,
      "velocity": 101,
      "chip": "ym2612"
    },
    {
      "channel": 2,
      "note": 65,
      "start": 22.941,
      "duration": 0.0698,
      "velocity": 106,
      "chip": "ym2612"
    },
    {
      "channel": 0,
      "note": 55,
      "start": 23.0296,
      "duration": 0.0798,
      "velocity": 101,
      "chip": "ym2612"
    },
    {
      "channel": 1,
      "note": 50,
      "start": 23.034,
      "duration": 0.0768,
      "velocity": 117,
      "chip": "ym2612"
    },
    {
      "channel": 2,
      "note": 67,
      "start": 23.0382,
      "duration": 0.0721,
      "velocity": 106,
      "chip": "ym2612"
    },
    {
      "channel": 0,
      "note": 74,
      "start": 23.1298,
      "duration": 0.1796,
      "velocity": 127,
      "chip": "ym2612"
    },
    {
      "channel": 1,
      "note": 57,
      "start": 23.134,
      "duration": 0.1774,
      "velocity": 101,
      "chip": "ym2612"
    },
    {
      "channel": 2,
      "note": 69,
      "start": 23.1382,
      "duration": 0.1723,
      "velocity": 106,
      "chip": "ym2612"
    },
    {
      "channel": 3,
      "note": 50,
      "start": 23.1434,
      "duration": 0.0179,
      "velocity": 117,
      "chip": "ym2612"
    },
    {
      "channel": 0,
      "note": 71,
      "start": 23.3162,
      "duration": 0.0771,
      "velocity": 127,
      "chip": "ym2612"
    },
    {
      "channel": 1,
      "note": 55,
      "start": 23.3204,
      "duration": 0.0752,
      "velocity": 101,
      "chip": "ym2612"
    },
    {
      "channel": 2,
      "note": 67,
      "start": 23.3246,
      "duration": 0.0703,
      "velocity": 106,
      "chip": "ym2612"
    },
    {
      "channel": 3,
      "note": 50,
      "start": 23.3291,
      "duration": 0.0649,
      "velocity": 117,
      "chip": "ym2612"
    },
    {
      "channel": 0,
      "note": 56,
      "start": 23.413,
      "duration": 0.0798,
      "velocity": 101,
      "chip": "ym2612"
    },
    {
      "channel": 1,
      "note": 68,
      "start": 23.4172,
      "duration": 0.0771,
      "velocity": 106,
      "chip": "ym2612"
    },
    {
      "channel": 2,
      "note": 50,
      "start": 23.4216,
      "duration": 0.0719,
      "velocity": 117,
      "chip": "ym2612"
    },
    {
      "channel": 0,
      "note": 71,
      "start": 23.5136,
      "duration": 0.0797,
      "velocity": 127,
      "chip": "ym2612"
    },
    {
      "channel": 1,
      "note": 57,
      "start": 23.5177,
      "duration": 0.0776,
      "velocity": 101,
      "chip": "ym2612"
    },
    {
      "channel": 2,
      "note": 69,
      "start": 23.5218,
      "duration": 0.0726,
      "velocity": 106,
      "chip": "ym2612"
    },
    {
      "channel": 0,
      "note": 60,
      "start": 23.5994,
      "duration": 0.0767,
      "velocity": 101,
      "chip": "ym2612"
    },
    {
      "channel": 1,
      "note": 72,
      "start": 23.6036,
      "duration": 0.0739,
      "velocity": 106,
      "chip": "ym2612"
    },
    {
      "channel": 2,
      "note": 50,
      "start": 23.608,
      "duration": 0.0688,
      "velocity": 117,
      "chip": "ym2612"
    },
    {
      "channel": 0,
      "note": 74,
      "start": 23.6965,
      "duration": 0.1796,
      "velocity": 127,
      "chip": "ym2612"
    },
    {
      "channel": 1,
      "note": 62,
      "start": 23.7006,
      "duration": 0.177,
      "velocity": 101,
      "chip": "ym2612"
    },
    {
      "channel": 2,
      "note": 74,
      "start": 23.7048,
      "duration": 0.1722,
      "velocity": 106,
      "chip": "ym2612"
    },
    {
      "channel": 3,
      "note": 50,
      "start": 23.7101,
      "duration": 0.0167,
      "velocity": 117,
      "chip": "ym2612"
    },
    {
      "channel": 0,
      "note": 71,
      "start": 23.8982,
      "duration": 0.0796,
      "velocity": 127,
      "chip": "ym2612"
    },
    {
      "channel": 1,
      "note": 50,
      "start": 23.9027,
      "duration": 0.078,
      "velocity": 117,
      "chip": "ym2612"
    },
    {
      "channel": 2,
      "note": 60,
      "start": 23.9068,
      "duration": 0.0732,
      "velocity": 101,
      "chip": "ym2612"
    },
    {
      "channel": 3,
      "note": 72,
      "start": 23.9111,
      "duration": 0.0679,
      "velocity": 106,
      "chip": "ym2612"
    },
    {
      "channel": 0,
      "note": 50,
      "start": 23.9852,
      "duration": 0.0742,
      "velocity": 117,
      "chip": "ym2612"
    },
    {
      "channel": 1,
      "note": 53,
      "start": 23.9893,
      "duration": 0.0716,
      "velocity": 101,
      "chip": "ym2612"
    },
    {
      "channel": 2,
      "note": 65,
      "start": 23.9936,
      "duration": 0.0667,
      "velocity": 106,
      "chip": "ym2612"
    },
    {
      "channel": 0,
      "note": 71,
      "start": 24.0815,
      "duration": 0.0796,
      "velocity": 127,
      "chip": "ym2612"
    },
    {
      "channel": 1,
      "note": 55,
      "start": 24.0856,
      "duration": 0.0771,
      "velocity": 101,
      "chip": "ym2612"
    },
    {
      "channel": 2,
      "note": 67,
      "start": 24.0898,
      "duration": 0.0723,
      "velocity": 106,
      "chip": "ym2612"
    },
    {
      "channel": 0,
      "note": 50,
      "start": 24.18,
      "duration": 0.0806,
      "velocity": 117,
      "chip": "ym2612"
    },
    {
      "channel": 1,
      "note": 57,
      "start": 24.1841,
      "duration": 0.0785,
      "velocity": 101,
      "chip": "ym2612"
    },
    {
      "channel": 2,
      "note": 69,
      "start": 24.1882,
      "duration": 0.0735,
      "velocity": 106,
      "chip": "ym2612"
    },
    {
      "channel": 0,
      "note": 60,
      "start": 24.2668,
      "duration": 0.0772,
      "velocity": 101,
      "chip": "ym2612"
    },
    {
      "channel": 1,
      "note": 72,
      "start": 24.2711,
      "duration": 0.0737,
      "velocity": 106,
      "chip": "ym2612"
    },
    {
      "channel": 2,
      "note": 74,
      "start": 24.2754,
      "duration": 0.1686,
      "velocity": 127,
      "chip": "ym2612"
    },
    {
      "channel": 3,
      "note": 50,
      "start": 24.2806,
      "duration": 0.0129,
      "velocity": 117,
      "chip": "ym2612"
    },
    {
      "channel": 0,
      "note": 57,
      "start": 24.363,
      "duration": 0.0825,
      "velocity": 101,
      "chip": "ym2612"
    },
    {
      "channel": 1,
      "note": 69,
      "start": 24.3671,
      "duration": 0.0778,
      "velocity": 106,
      "chip": "ym2612"
    },
    {
      "channel": 0,
      "note": 71,
      "start": 24.4637,
      "duration": 0.0796,
      "velocity": 127,
      "chip": "ym2612"
    },
    {
      "channel": 1,
      "note": 60,
      "start": 24.4678,
      "duration": 0.0777,
      "velocity": 101,
      "chip": "ym2612"
    },
    {
      "channel": 2,
      "note": 72,
      "start": 24.472,
      "duration": 0.0729,
      "velocity": 106,
      "chip": "ym2612"
    },
    {
      "channel": 3,
      "note": 50,
      "start": 24.4765,
      "duration": 0.0675,
      "velocity": 117,
      "chip": "ym2612"
    },
    {
      "channel": 0,
      "note": 50,
      "start": 24.5633,
      "duration": 0.0795,
      "velocity": 117,
      "chip": "ym2612"
    },
    {
      "channel": 1,
      "note": 62,
      "start": 24.5674,
      "duration": 0.0772,
      "velocity": 101,
      "chip": "ym2612"
    },
    {
      "channel": 2,
      "note": 74,
      "start": 24.5716,
      "duration": 0.0722,
      "velocity": 106,
      "chip": "ym2612"
    },
    {
      "channel": 0,
      "note": 71,
      "start": 24.6494,
      "duration": 0.0771,
      "velocity": 127,
      "chip": "ym2612"
    },
    {
      "channel": 1,
      "note": 60,
      "start": 24.6535,
      "duration": 0.0746,
      "velocity": 101,
      "chip": "ym2612"
    },
    {
      "channel": 2,
      "note": 72,
      "start": 24.6576,
      "duration": 0.0698,
      "velocity": 106,
      "chip": "ym2612"
    },
    {
      "channel": 0,
      "note": 53,
      "start": 24.7463,
      "duration": 0.0798,
      "velocity": 101,
      "chip": "ym2612"
    },
    {
      "channel": 1,
      "note": 50,
      "start": 24.7507,
      "duration": 0.0768,
      "velocity": 117,
      "chip": "ym2612"
    },
    {
      "channel": 2,
      "note": 65,
      "start": 24.7549,
      "duration": 0.0721,
      "velocity": 106,
      "chip": "ym2612"
    },
    {
      "channel": 0,
      "note": 50,
      "start": 24.8463,
      "duration": 0.0799,
      "velocity": 101,
      "chip": "ym2612"
    },
    {
      "channel": 1,
      "note": 62,
      "start": 24.8505,
      "duration": 0.0775,
      "velocity": 106,
      "chip": "ym2612"
    },
    {
      "channel": 2,
      "note": 50,
      "start": 24.8549,
      "duration": 0.0721,
      "velocity": 117,
      "chip": "ym2612"
    },
    {
      "channel": 0,
      "note": 71,
      "start": 24.9328,
      "duration": 0.0771,
      "velocity": 127,
      "chip": "ym2612"
    },
    {
      "channel": 1,
      "note": 53,
      "start": 24.9368,
      "duration": 0.0746,
      "velocity": 101,
      "chip": "ym2612"
    },
    {
      "channel": 2,
      "note": 65,
      "start": 24.941,
      "duration": 0.0698,
      "velocity": 106,
      "chip": "ym2612"
    },
    {
      "channel": 0,
      "note": 55,
      "start": 25.0296,
      "duration": 0.0798,
      "velocity": 101,
      "chip": "ym2612"
    },
    {
      "channel": 1,
      "note": 50,
      "start": 25.034,
      "duration": 0.0768,
      "velocity": 117,
      "chip": "ym2612"
    },
    {
      "channel": 2,
      "note": 67,
      "start": 25.0382,
      "duration": 0.0721,
      "velocity": 106,
      "chip": "ym2612"
    },
    {
      "channel": 0,
      "note": 74,
      "start": 25.1298,
      "duration": 0.1796,
      "velocity": 127,
      "chip": "ym2612"
    },
    {
      "channel": 1,
      "note": 57,
      "start": 25.134,
      "duration": 0.1775,
      "velocity": 101,
      "chip": "ym2612"
    },
    {
      "channel": 2,
      "note": 69,
      "start": 25.1382,
      "duration": 0.1723,
      "velocity": 106,
      "chip": "ym2612"
    },
    {
      "channel": 3,
      "note": 50,
      "start": 25.1434,
      "duration": 0.0167,
      "velocity": 117,
      "chip": "ym2612"
    },
    {
      "channel": 0,
      "note": 71,
      "start": 25.3163,
      "duration": 0.077,
      "velocity": 127,
      "chip": "ym2612"
    },
    {
      "channel": 1,
      "note": 50,
      "start": 25.3208,
      "duration": 0.0748,
      "velocity": 117,
      "chip": "ym2612"
    },
    {
      "channel": 2,
      "note": 55,
      "start": 25.3249,
      "duration": 0.0701,
      "velocity": 101,
      "chip": "ym2612"
    },
    {
      "channel": 3,
      "note": 67,
      "start": 25.3292,
      "duration": 0.0651,
      "velocity": 106,
      "chip": "ym2612"
    },
    {
      "channel": 0,
      "note": 56,
      "start": 25.413,
      "duration": 0.0798,
      "velocity": 101,
      "chip": "ym2612"
    },
    {
      "channel": 1,
      "note": 68,
      "start": 25.4172,
      "duration": 0.0771,
      "velocity": 106,
      "chip": "ym2612"
    },
    {
      "channel": 2,
      "note": 50,
      "start": 25.4216,
      "duration": 0.0719,
      "velocity": 117,
      "chip": "ym2612"
    },
    {
      "channel": 0,
      "note": 71,
      "start": 25.5136,
      "duration": 0.0797,
      "velocity": 127,
      "chip": "ym2612"
    },
    {
      "channel": 1,
      "note": 57,
      "start": 25.5177,
      "duration": 0.0776,
      "velocity": 101,
      "chip": "ym2612"
    },
    {
      "channel": 2,
      "note": 69,
      "start": 25.5218,
      "duration": 0.0727,
      "velocity": 106,
      "chip": "ym2612"
    },
    {
      "channel": 0,
      "note": 60,
      "start": 25.5994,
      "duration": 0.0767,
      "velocity": 101,
      "chip": "ym2612"
    },
    {
      "channel": 1,
      "note": 50,
      "start": 25.6038,
      "duration": 0.0737,
      "velocity": 117,
      "chip": "ym2612"
    },
    {
      "channel": 2,
      "note": 72,
      "start": 25.608,
      "duration": 0.069,
      "velocity": 106,
      "chip": "ym2612"
    },
    {
      "channel": 0,
      "note": 74,
      "start": 25.6965,
      "duration": 0.1795,
      "velocity": 127,
      "chip": "ym2612"
    },
    {
      "channel": 1,
      "note": 62,
      "start": 25.7006,
      "duration": 0.177,
      "velocity": 101,
      "chip": "ym2612"
    },
    {
      "channel": 2,
      "note": 74,
      "start": 25.7048,
      "duration": 0.1722,
      "velocity": 106,
      "chip": "ym2612"
    },
    {
      "channel": 3,
      "note": 50,
      "start": 25.71,
      "duration": 0.018,
      "velocity": 117,
      "chip": "ym2612"
    },
    {
      "channel": 0,
      "note": 71,
      "start": 25.8969,
      "duration": 0.0798,
      "velocity": 127,
      "chip": "ym2612"
    },
    {
      "channel": 1,
      "note": 50,
      "start": 25.9015,
      "duration": 0.0781,
      "velocity": 117,
      "chip": "ym2612"
    },
    {
      "channel": 2,
      "note": 60,
      "start": 25.9055,
      "duration": 0.0734,
      "velocity": 101,
      "chip": "ym2612"
    },
    {
      "channel": 3,
      "note": 72,
      "start": 25.9099,
      "duration": 0.0681,
      "velocity": 106,
      "chip": "ym2612"
    },
    {
      "channel": 0,
      "note": 55,
      "start": 25.9837,
      "duration": 0.0758,
      "velocity": 101,
      "chip": "ym2612"
    },
    {
      "channel": 1,
      "note": 67,
      "start": 25.9879,
      "duration": 0.073,
      "velocity": 106,
      "chip": "ym2612"
    },
    {
      "channel": 2,
      "note": 50,
      "start": 25.9924,
      "duration": 0.0677,
      "velocity": 117,
      "chip": "ym2612"
    },
    {
      "channel": 0,
      "note": 71,
      "start": 26.0803,
      "duration": 0.0797,
      "velocity": 127,
      "chip": "ym2612"
    },
    {
      "channel": 1,
      "note": 57,
      "start": 26.0844,
      "duration": 0.0771,
      "velocity": 101,
      "chip": "ym2612"
    },
    {
      "channel": 2,
      "note": 69,
      "start": 26.0885,
      "duration": 0.0723,
      "velocity": 106,
      "chip": "ym2612"
    },
    {
      "channel": 0,
      "note": 50,
      "start": 26.1811,
      "duration": 0.0783,
      "velocity": 117,
      "chip": "ym2612"
    },
    {
      "channel": 1,
      "note": 60,
      "start": 26.1852,
      "duration": 0.0762,
      "velocity": 101,
      "chip": "ym2612"
    },
    {
      "channel": 2,
      "note": 72,
      "start": 26.1893,
      "duration": 0.0712,
      "velocity": 106,
      "chip": "ym2612"
    },
    {
      "channel": 0,
      "note": 65,
      "start": 26.2656,
      "duration": 0.0772,
      "velocity": 101,
      "chip": "ym2612"
    },
    {
      "channel": 1,
      "note": 74,
      "start": 26.2698,
      "duration": 0.1729,
      "velocity": 127,
      "chip": "ym2612"
    },
    {
      "channel": 2,
      "note": 77,
      "start": 26.2741,
      "duration": 0.0695,
      "velocity": 106,
      "chip": "ym2612"
    },
    {
      "channel": 3,
      "note": 50,
      "start": 26.2794,
      "duration": 0.0141,
      "velocity": 117,
      "chip": "ym2612"
    },
    {
      "channel": 0,
      "note": 60,
      "start": 26.3642,
      "duration": 0.0801,
      "velocity": 101,
      "chip": "ym2612"
    },
    {
      "channel": 2,
      "note": 72,
      "start": 26.3683,
      "duration": 0.0753,
      "velocity": 106,
      "chip": "ym2612"
    },
    {
      "channel": 0,
      "note": 71,
      "start": 26.4649,
      "duration": 0.0796,
      "velocity": 127,
      "chip": "ym2612"
    },
    {
      "channel": 1,
      "note": 55,
      "start": 26.469,
      "duration": 0.0777,
      "velocity": 101,
      "chip": "ym2612"
    },
    {
      "channel": 2,
      "note": 50,
      "start": 26.4735,
      "duration": 0.0727,
      "velocity": 117,
      "chip": "ym2612"
    },
    {
      "channel": 3,
      "note": 67,
      "start": 26.4778,
      "duration": 0.0677,
      "velocity": 106,
      "chip": "ym2612"
    },
    {
      "channel": 0,
      "note": 50,
      "start": 26.5633,
      "duration": 0.0807,
      "velocity": 117,
      "chip": "ym2612"
    },
    {
      "channel": 1,
      "note": 62,
      "start": 26.5674,
      "duration": 0.0784,
      "velocity": 101,
      "chip": "ym2612"
    },
    {
      "channel": 2,
      "note": 74,
      "start": 26.5716,
      "duration": 0.0734,
      "velocity": 106,
      "chip": "ym2612"
    },
    {
      "channel": 0,
      "note": 71,
      "start": 26.6506,
      "duration": 0.0771,
      "velocity": 127,
      "chip": "ym2612"
    },
    {
      "channel": 1,
      "note": 57,
      "start": 26.6547,
      "duration": 0.0746,
      "velocity": 101,
      "chip": "ym2612"
    },
    {
      "channel": 2,
      "note": 69,
      "start": 26.659,
      "duration": 0.0696,
      "velocity": 106,
      "chip": "ym2612"
    },
    {
      "channel": 0,
      "note": 52,
      "start": 26.7463,
      "duration": 0.081,
      "velocity": 101,
      "chip": "ym2612"
    },
    {
      "channel": 1,
      "note": 64,
      "start": 26.7505,
      "duration": 0.0783,
      "velocity": 106,
      "chip": "ym2612"
    },
    {
      "channel": 2,
      "note": 50,
      "start": 26.7549,
      "duration": 0.0731,
      "velocity": 117,
      "chip": "ym2612"
    },
    {
      "channel": 0,
      "note": 50,
      "start": 26.8466,
      "duration": 0.0794,
      "velocity": 117,
      "chip": "ym2612"
    },
    {
      "channel": 1,
      "note": 50,
      "start": 26.8507,
      "duration": 0.0772,
      "velocity": 101,
      "chip": "ym2612"
    },
    {
      "channel": 2,
      "note": 62,
      "start": 26.8549,
      "duration": 0.0722,
      "velocity": 106,
      "chip": "ym2612"
    },
    {
      "channel": 0,
      "note": 71,
      "start": 26.9327,
      "duration": 0.0784,
      "velocity": 127,
      "chip": "ym2612"
    },
    {
      "channel": 1,
      "note": 53,
      "start": 26.9368,
      "duration": 0.0759,
      "velocity": 101,
      "chip": "ym2612"
    },
    {
      "channel": 2,
      "note": 65,
      "start": 26.9409,
      "duration": 0.0711,
      "velocity": 106,
      "chip": "ym2612"
    },
    {
      "channel": 0,
      "note": 55,
      "start": 27.0296,
      "duration": 0.0798,
      "velocity": 101,
      "chip": "ym2612"
    },
    {
      "channel": 1,
      "note": 50,
      "start": 27.034,
      "duration": 0.0768,
      "velocity": 117,
      "chip": "ym2612"
    },
    {
      "channel": 2,
      "note": 67,
      "start": 27.0382,
      "duration": 0.0721,
      "velocity": 106,
      "chip": "ym2612"
    },
    {
      "channel": 0,
      "note": 57,
      "start": 27.1297,
      "duration": 0.1798,
      "velocity": 101,
      "chip": "ym2612"
    },
    {
      "channel": 1,
      "note": 74,
      "start": 27.134,
      "duration": 0.1776,
      "velocity": 127,
      "chip": "ym2612"
    },
    {
      "channel": 2,
      "note": 69,
      "start": 27.1382,
      "duration": 0.1724,
      "velocity": 106,
      "chip": "ym2612"
    },
    {
      "channel": 3,
      "note": 50,
      "start": 27.1434,
      "duration": 0.0167,
      "velocity": 117,
      "chip": "ym2612"
    },
    {
      "channel": 0,
      "note": 71,
      "start": 27.3163,
      "duration": 0.0769,
      "velocity": 127,
      "chip": "ym2612"
    },
    {
      "channel": 1,
      "note": 50,
      "start": 27.3209,
      "duration": 0.0747,
      "velocity": 117,
      "chip": "ym2612"
    },
    {
      "channel": 2,
      "note": 55,
      "start": 27.3251,
      "duration": 0.07,
      "velocity": 101,
      "chip": "ym2612"
    },
    {
      "channel": 3,
      "note": 67,
      "start": 27.3293,
      "duration": 0.065,
      "velocity": 106,
      "chip": "ym2612"
    },
    {
      "channel": 0,
      "note": 56,
      "start": 27.413,
      "duration": 0.0798,
      "velocity": 101,
      "chip": "ym2612"
    },
    {
      "channel": 1,
      "note": 68,
      "start": 27.4172,
      "duration": 0.0771,
      "velocity": 106,
      "chip": "ym2612"
    },
    {
      "channel": 2,
      "note": 50,
      "start": 27.4216,
      "duration": 0.0719,
      "velocity": 117,
      "chip": "ym2612"
    },
    {
      "channel": 0,
      "note": 71,
      "start": 27.5136,
      "duration": 0.0797,
      "velocity": 127,
      "chip": "ym2612"
    },
    {
      "channel": 1,
      "note": 57,
      "start": 27.5177,
      "duration": 0.0776,
      "velocity": 101,
      "chip": "ym2612"
    },
    {
      "channel": 2,
      "note": 69,
      "start": 27.5218,
      "duration": 0.0726,
      "velocity": 106,
      "chip": "ym2612"
    },
    {
      "channel": 0,
      "note": 60,
      "start": 27.5994,
      "duration": 0.0767,
      "velocity": 101,
      "chip": "ym2612"
    },
    {
      "channel": 1,
      "note": 72,
      "start": 27.6036,
      "duration": 0.0739,
      "velocity": 106,
      "chip": "ym2612"
    },
    {
      "channel": 2,
      "note": 50,
      "start": 27.608,
      "duration": 0.0688,
      "velocity": 117,
      "chip": "ym2612"
    },
    {
      "channel": 0,
      "note": 74,
      "start": 27.6965,
      "duration": 0.1796,
      "velocity": 127,
      "chip": "ym2612"
    },
    {
      "channel": 1,
      "note": 62,
      "start": 27.7006,
      "duration": 0.177,
      "velocity": 101,
      "chip": "ym2612"
    },
    {
      "channel": 2,
      "note": 74,
      "start": 27.7048,
      "duration": 0.1722,
      "velocity": 106,
      "chip": "ym2612"
    },
    {
      "channel": 3,
      "note": 50,
      "start": 27.71,
      "duration": 0.0167,
      "velocity": 117,
      "chip": "ym2612"
    },
    {
      "channel": 0,
      "note": 71,
      "start": 27.897,
      "duration": 0.0797,
      "velocity": 127,
      "chip": "ym2612"
    },
    {
      "channel": 1,
      "note": 60,
      "start": 27.9012,
      "duration": 0.0784,
      "velocity": 101,
      "chip": "ym2612"
    },
    {
      "channel": 2,
      "note": 72,
      "start": 27.9054,
      "duration": 0.0734,
      "velocity": 106,
      "chip": "ym2612"
    },
    {
      "channel": 3,
      "note": 50,
      "start": 27.9099,
      "duration": 0.0678,
      "velocity": 117,
      "chip": "ym2612"
    },
    {
      "channel": 0,
      "note": 53,
      "start": 27.9837,
      "duration": 0.0758,
      "velocity": 101,
      "chip": "ym2612"
    },
    {
      "channel": 1,
      "note": 50,
      "start": 27.9881,
      "duration": 0.0728,
      "velocity": 117,
      "chip": "ym2612"
    },
    {
      "channel": 2,
      "note": 65,
      "start": 27.9924,
      "duration": 0.0679,
      "velocity": 106,
      "chip": "ym2612"
    },
    {
      "channel": 0,
      "note": 71,
      "start": 28.0803,
      "duration": 0.0797,
      "velocity": 127,
      "chip": "ym2612"
    },
    {
      "channel": 1,
      "note": 55,
      "start": 28.0844,
      "duration": 0.0771,
      "velocity": 101,
      "chip": "ym2612"
    },
    {
      "channel": 2,
      "note": 67,
      "start": 28.0885,
      "duration": 0.0723,
      "velocity": 106,
      "chip": "ym2612"
    },
    {
      "channel": 0,
      "note": 57,
      "start": 28.1796,
      "duration": 0.0799,
      "velocity": 101,
      "chip": "ym2612"
    },
    {
      "channel": 1,
      "note": 69,
      "start": 28.1838,
      "duration": 0.0776,
      "velocity": 106,
      "chip": "ym2612"
    },
    {
      "channel": 2,
      "note": 50,
      "start": 28.1882,
      "duration": 0.0721,
      "velocity": 117,
      "chip": "ym2612"
    },
    {
      "channel": 0,
      "note": 60,
      "start": 28.2656,
      "duration": 0.0772,
      "velocity": 101,
      "chip": "ym2612"
    },
    {
      "channel": 1,
      "note": 74,
      "start": 28.2699,
      "duration": 0.1728,
      "velocity": 127,
      "chip": "ym2612"
    },
    {
      "channel": 2,
      "note": 72,
      "start": 28.2741,
      "duration": 0.0695,
      "velocity": 106,
      "chip": "ym2612"
    },
    {
      "channel": 3,
      "note": 50,
      "start": 28.2794,
      "duration": 0.0153,
      "velocity": 117,
      "chip": "ym2612"
    },
    {
      "channel": 0,
      "note": 57,
      "start": 28.363,
      "duration": 0.0813,
      "velocity": 101,
      "chip": "ym2612"
    },
    {
      "channel": 2,
      "note": 69,
      "start": 28.3671,
      "duration": 0.0765,
      "velocity": 106,
      "chip": "ym2612"
    },
    {
      "channel": 0,
      "note": 71,
      "start": 28.4636,
      "duration": 0.0797,
      "velocity": 127,
      "chip": "ym2612"
    },
    {
      "channel": 1,
      "note": 50,
      "start": 28.4681,
      "duration": 0.0775,
      "velocity": 117,
      "chip": "ym2612"
    },
    {
      "channel": 2,
      "note": 60,
      "start": 28.4722,
      "duration": 0.0728,
      "velocity": 101,
      "chip": "ym2612"
    },
    {
      "channel": 3,
      "note": 72,
      "start": 28.4765,
      "duration": 0.0678,
      "velocity": 106,
      "chip": "ym2612"
    },
    {
      "channel": 0,
      "note": 50,
      "start": 28.5646,
      "duration": 0.0782,
      "velocity": 117,
      "chip": "ym2612"
    },
    {
      "channel": 1,
      "note": 62,
      "start": 28.5686,
      "duration": 0.076,
      "velocity": 101,
      "chip": "ym2612"
    },
    {
      "channel": 2,
      "note": 74,
      "start": 28.5728,
      "duration": 0.071,
      "velocity": 106,
      "chip": "ym2612"
    },
    {
      "channel": 0,
      "note": 71,
      "start": 28.6494,
      "duration": 0.0772,
      "velocity": 127,
      "chip": "ym2612"
    },
    {
      "channel": 1,
      "note": 60,
      "start": 28.6534,
      "duration": 0.0747,
      "velocity": 101,
      "chip": "ym2612"
    },
    {
      "channel": 2,
      "note": 72,
      "start": 28.6576,
      "duration": 0.0698,
      "velocity": 106,
      "chip": "ym2612"
    },
    {
      "channel": 0,
      "note": 53,
      "start": 28.7475,
      "duration": 0.0786,
      "velocity": 101,
      "chip": "ym2612"
    },
    {
      "channel": 1,
      "note": 65,
      "start": 28.7517,
      "duration": 0.0759,
      "velocity": 106,
      "chip": "ym2612"
    },
    {
      "channel": 2,
      "note": 50,
      "start": 28.7561,
      "duration": 0.0707,
      "velocity": 117,
      "chip": "ym2612"
    },
    {
      "channel": 0,
      "note": 50,
      "start": 28.8475,
      "duration": 0.0799,
      "velocity": 101,
      "chip": "ym2612"
    },
    {
      "channel": 1,
      "note": 62,
      "start": 28.8517,
      "duration": 0.0775,
      "velocity": 106,
      "chip": "ym2612"
    },
    {
      "channel": 2,
      "note": 50,
      "start": 28.8561,
      "duration": 0.0722,
      "velocity": 117,
      "chip": "ym2612"
    },
    {
      "channel": 0,
      "note": 71,
      "start": 28.934,
      "duration": 0.076,
      "velocity": 127,
      "chip": "ym2612"
    },
    {
      "channel": 1,
      "note": 53,
      "start": 28.938,
      "duration": 0.0734,
      "velocity": 101,
      "chip": "ym2612"
    },
    {
      "channel": 2,
      "note": 65,
      "start": 28.9424,
      "duration": 0.0685,
      "velocity": 106,
      "chip": "ym2612"
    },
    {
      "channel": 0,
      "note": 55,
      "start": 29.0309,
      "duration": 0.0798,
      "velocity": 101,
      "chip": "ym2612"
    },
    {
      "channel": 1,
      "note": 67,
      "start": 29.0351,
      "duration": 0.077,
      "velocity": 106,
      "chip": "ym2612"
    },
    {
      "channel": 2,
      "note": 50,
      "start": 29.0394,
      "duration": 0.0718,
      "velocity": 117,
      "chip": "ym2612"
    },
    {
      "channel": 0,
      "note": 74,
      "start": 29.1298,
      "duration": 0.1796,
      "velocity": 127,
      "chip": "ym2612"
    },
    {
      "channel": 1,
      "note": 57,
      "start": 29.134,
      "duration": 0.1775,
      "velocity": 101,
      "chip": "ym2612"
    },
    {
      "channel": 2,
      "note": 69,
      "start": 29.1382,
      "duration": 0.1723,
      "velocity": 106,
      "chip": "ym2612"
    },
    {
      "channel": 3,
      "note": 50,
      "start": 29.1434,
      "duration": 0.0167,
      "velocity": 117,
      "chip": "ym2612"
    },
    {
      "channel": 0,
      "note": 71,
      "start": 29.3163,
      "duration": 0.0783,
      "velocity": 127,
      "chip": "ym2612"
    },
    {
      "channel": 1,
      "note": 55,
      "start": 29.3204,
      "duration": 0.0764,
      "velocity": 101,
      "chip": "ym2612"
    },
    {
      "channel": 2,
      "note": 67,
      "start": 29.3246,
      "duration": 0.0716,
      "velocity": 106,
      "chip": "ym2612"
    },
    {
      "channel": 3,
      "note": 50,
      "start": 29.3292,
      "duration": 0.066,
      "velocity": 117,
      "chip": "ym2612"
    },
    {
      "channel": 0,
      "note": 56,
      "start": 29.413,
      "duration": 0.0798,
      "velocity": 101,
      "chip": "ym2612"
    },
    {
      "channel": 1,
      "note": 68,
      "start": 29.4172,
      "duration": 0.0771,
      "velocity": 106,
      "chip": "ym2612"
    },
    {
      "channel": 2,
      "note": 50,
      "start": 29.4216,
      "duration": 0.0719,
      "velocity": 117,
      "chip": "ym2612"
    },
    {
      "channel": 0,
      "note": 71,
      "start": 29.5136,
      "duration": 0.0797,
      "velocity": 127,
      "chip": "ym2612"
    },
    {
      "channel": 1,
      "note": 57,
      "start": 29.5177,
      "duration": 0.0776,
      "velocity": 101,
      "chip": "ym2612"
    },
    {
      "channel": 2,
      "note": 69,
      "start": 29.5218,
      "duration": 0.0726,
      "velocity": 106,
      "chip": "ym2612"
    },
    {
      "channel": 0,
      "note": 60,
      "start": 29.5994,
      "duration": 0.0767,
      "velocity": 101,
      "chip": "ym2612"
    },
    {
      "channel": 1,
      "note": 72,
      "start": 29.6036,
      "duration": 0.0739,
      "velocity": 106,
      "chip": "ym2612"
    },
    {
      "channel": 2,
      "note": 50,
      "start": 29.608,
      "duration": 0.0688,
      "velocity": 117,
      "chip": "ym2612"
    },
    {
      "channel": 0,
      "note": 62,
      "start": 29.6964,
      "duration": 0.1798,
      "velocity": 101,
      "chip": "ym2612"
    },
    {
      "channel": 1,
      "note": 74,
      "start": 29.7006,
      "duration": 0.177,
      "velocity": 106,
      "chip": "ym2612"
    },
    {
      "channel": 2,
      "note": 74,
      "start": 29.7048,
      "duration": 0.172,
      "velocity": 127,
      "chip": "ym2612"
    },
    {
      "channel": 3,
      "note": 50,
      "start": 29.7101,
      "duration": 0.0167,
      "velocity": 117,
      "chip": "ym2612"
    },
    {
      "channel": 0,
      "note": 60,
      "start": 29.8963,
      "duration": 0.0799,
      "velocity": 101,
      "chip": "ym2612"
    },
    {
      "channel": 1,
      "note": 72,
      "start": 29.9005,
      "duration": 0.0775,
      "velocity": 106,
      "chip": "ym2612"
    },
    {
      "channel": 2,
      "note": 50,
      "start": 29.9048,
      "duration": 0.0722,
      "velocity": 117,
      "chip": "ym2612"
    },
    {
      "channel": 0,
      "note": 74,
      "start": 29.9823,
      "duration": 0.0771,
      "velocity": 127,
      "chip": "ym2612"
    },
    {
      "channel": 1,
      "note": 55,
      "start": 29.9864,
      "duration": 0.0746,
      "velocity": 101,
      "chip": "ym2612"
    },
    {
      "channel": 2,
      "note": 67,
      "start": 29.9905,
      "duration": 0.0698,
      "velocity": 106,
      "chip": "ym2612"
    },
    {
      "channel": 0,
      "note": 57,
      "start": 30.0796,
      "duration": 0.0798,
      "velocity": 101,
      "chip": "ym2612"
    },
    {
      "channel": 1,
      "note": 74,
      "start": 30.0838,
      "duration": 0.0771,
      "velocity": 127,
      "chip": "ym2612"
    },
    {
      "channel": 2,
      "note": 69,
      "start": 30.088,
      "duration": 0.0723,
      "velocity": 106,
      "chip": "ym2612"
    },
    {
      "channel": 0,
      "note": 74,
      "start": 30.1798,
      "duration": 0.0796,
      "velocity": 127,
      "chip": "ym2612"
    },
    {
      "channel": 1,
      "note": 60,
      "start": 30.1838,
      "duration": 0.0776,
      "velocity": 101,
      "chip": "ym2612"
    },
    {
      "channel": 2,
      "note": 72,
      "start": 30.188,
      "duration": 0.0725,
      "velocity": 106,
      "chip": "ym2612"
    },
    {
      "channel": 0,
      "note": 65,
      "start": 30.2656,
      "duration": 0.0772,
      "velocity": 101,
      "chip": "ym2612"
    },
    {
      "channel": 1,
      "note": 74,
      "start": 30.2699,
      "duration": 0.0744,
      "velocity": 127,
      "chip": "ym2612"
    },
    {
      "channel": 2,
      "note": 77,
      "start": 30.2741,
      "duration": 0.0696,
      "velocity": 106,
      "chip": "ym2612"
    },
    {
      "channel": 3,
      "note": 50,
      "start": 30.2794,
      "duration": 0.0141,
      "velocity": 117,
      "chip": "ym2612"
    },
    {
      "channel": 0,
      "note": 74,
      "start": 30.3631,
      "duration": 0.0796,
      "velocity": 127,
      "chip": "ym2612"
    },
    {
      "channel": 1,
      "note": 60,
      "start": 30.3672,
      "duration": 0.0771,
      "velocity": 101,
      "chip": "ym2612"
    },
    {
      "channel": 2,
      "note": 72,
      "start": 30.3713,
      "duration": 0.0723,
      "velocity": 106,
      "chip": "ym2612"
    },
    {
      "channel": 0,
      "note": 55,
      "start": 30.463,
      "duration": 0.0798,
      "velocity": 101,
      "chip": "ym2612"
    },
    {
      "channel": 1,
      "note": 67,
      "start": 30.4672,
      "duration": 0.0771,
      "velocity": 106,
      "chip": "ym2612"
    },
    {
      "channel": 2,
      "note": 74,
      "start": 30.4713,
      "duration": 0.0722,
      "velocity": 127,
      "chip": "ym2612"
    },
    {
      "channel": 0,
      "note": 74,
      "start": 30.5631,
      "duration": 0.0796,
      "velocity": 127,
      "chip": "ym2612"
    },
    {
      "channel": 1,
      "note": 62,
      "start": 30.5672,
      "duration": 0.0775,
      "velocity": 101,
      "chip": "ym2612"
    },
    {
      "channel": 2,
      "note": 74,
      "start": 30.5714,
      "duration": 0.0724,
      "velocity": 106,
      "chip": "ym2612"
    },
    {
      "channel": 0,
      "note": 74,
      "start": 30.6489,
      "duration": 0.0772,
      "velocity": 127,
      "chip": "ym2612"
    },
    {
      "channel": 1,
      "note": 57,
      "start": 30.6531,
      "duration": 0.0746,
      "velocity": 101,
      "chip": "ym2612"
    },
    {
      "channel": 2,
      "note": 69,
      "start": 30.6572,
      "duration": 0.0698,
      "velocity": 106,
      "chip": "ym2612"
    },
    {
      "channel": 0,
      "note": 52,
      "start": 30.7463,
      "duration": 0.0798,
      "velocity": 101,
      "chip": "ym2612"
    },
    {
      "channel": 1,
      "note": 74,
      "start": 30.7505,
      "duration": 0.0771,
      "velocity": 127,
      "chip": "ym2612"
    },
    {
      "channel": 2,
      "note": 64,
      "start": 30.7547,
      "duration": 0.0723,
      "velocity": 106,
      "chip": "ym2612"
    },
    {
      "channel": 0,
      "note": 50,
      "start": 30.8469,
      "duration": 0.1793,
      "velocity": 101,
      "chip": "ym2612"
    },
    {
      "channel": 1,
      "note": 50,
      "start": 30.8513,
      "duration": 0.0747,
      "velocity": 117,
      "chip": "ym2612"
    },
    {
      "channel": 2,
      "note": 74,
      "start": 30.8555,
      "duration": 0.0714,
      "velocity": 106,
      "chip": "ym2612"
    },
    {
      "channel": 1,
      "note": 71,
      "start": 30.9481,
      "duration": 0.0793,
      "velocity": 127,
      "chip": "ym2612"
    },
    {
      "channel": 0,
      "note": 50,
      "start": 31.0316,
      "duration": 0.0778,
      "velocity": 101,
      "chip": "ym2612"
    },
    {
      "channel": 1,
      "note": 50,
      "start": 31.036,
      "duration": 0.074,
      "velocity": 117,
      "chip": "ym2612"
    },
    {
      "channel": 2,
      "note": 74,
      "start": 31.0401,
      "duration": 0.0529,
      "velocity": 106,
      "chip": "ym2612"
    },
    {
      "channel": 0,
      "note": 74,
      "start": 31.131,
      "duration": 0.1795,
      "velocity": 127,
      "chip": "ym2612"
    },
    {
      "channel": 1,
      "note": 50,
      "start": 31.1351,
      "duration": 0.1764,
      "velocity": 101,
      "chip": "ym2612"
    },
    {
      "channel": 2,
      "note": 69,
      "start": 31.1393,
      "duration": 0.0704,
      "velocity": 106,
      "chip": "ym2612"
    },
    {
      "channel": 0,
      "note": 50,
      "start": 31.3156,
      "duration": 0.0772,
      "velocity": 101,
      "chip": "ym2612"
    },
    {
      "channel": 1,
      "note": 71,
      "start": 31.3204,
      "duration": 0.0741,
      "velocity": 127,
      "chip": "ym2612"
    },
    {
      "channel": 2,
      "note": 69,
      "start": 31.3246,
      "duration": 0.0517,
      "velocity": 106,
      "chip": "ym2612"
    },
    {
      "channel": 3,
      "note": 50,
      "start": 31.3292,
      "duration": 0.0643,
      "velocity": 117,
      "chip": "ym2612"
    },
    {
      "channel": 0,
      "note": 50,
      "start": 31.4145,
      "duration": 0.0793,
      "velocity": 117,
      "chip": "ym2612"
    },
    {
      "channel": 1,
      "note": 50,
      "start": 31.4186,
      "duration": 0.1765,
      "velocity": 101,
      "chip": "ym2612"
    },
    {
      "channel": 2,
      "note": 74,
      "start": 31.4228,
      "duration": 0.1035,
      "velocity": 106,
      "chip": "ym2612"
    },
    {
      "channel": 0,
      "note": 71,
      "start": 31.5136,
      "duration": 0.0809,
      "velocity": 127,
      "chip": "ym2612"
    },
    {
      "channel": 0,
      "note": 50,
      "start": 31.613,
      "duration": 0.0799,
      "velocity": 101,
      "chip": "ym2612"
    },
    {
      "channel": 1,
      "note": 50,
      "start": 31.6174,
      "duration": 0.0762,
      "velocity": 117,
      "chip": "ym2612"
    },
    {
      "channel": 2,
      "note": 74,
      "start": 31.6216,
      "duration": 0.056,
      "velocity": 106,
      "chip": "ym2612"
    },
    {
      "channel": 0,
      "note": 74,
      "start": 31.6978,
      "duration": 0.1782,
      "velocity": 127,
      "chip": "ym2612"
    },
    {
      "channel": 1,
      "note": 50,
      "start": 31.7019,
      "duration": 0.1757,
      "velocity": 101,
      "chip": "ym2612"
    },
    {
      "channel": 2,
      "note": 69,
      "start": 31.7061,
      "duration": 0.1709,
      "velocity": 106,
      "chip": "ym2612"
    },
    {
      "channel": 0,
      "note": 50,
      "start": 31.8963,
      "duration": 0.0799,
      "velocity": 101,
      "chip": "ym2612"
    },
    {
      "channel": 1,
      "note": 71,
      "start": 31.9011,
      "duration": 0.0772,
      "velocity": 127,
      "chip": "ym2612"
    },
    {
      "channel": 2,
      "note": 50,
      "start": 31.9055,
      "duration": 0.0715,
      "velocity": 117,
      "chip": "ym2612"
    },
    {
      "channel": 3,
      "note": 69,
      "start": 31.9099,
      "duration": 0.0511,
      "velocity": 106,
      "chip": "ym2612"
    },
    {
      "channel": 0,
      "note": 55,
      "start": 31.9824,
      "duration": 0.177,
      "velocity": 101,
      "chip": "ym2612"
    },
    {
      "channel": 1,
      "note": 50,
      "start": 31.9868,
      "duration": 0.0725,
      "velocity": 117,
      "chip": "ym2612"
    },
    {
      "channel": 2,
      "note": 70,
      "start": 31.991,
      "duration": 0.0531,
      "velocity": 106,
      "chip": "ym2612"
    },
    {
      "channel": 1,
      "note": 71,
      "start": 32.0802,
      "duration": 0.0803,
      "velocity": 127,
      "chip": "ym2612"
    },
    {
      "channel": 0,
      "note": 55,
      "start": 32.1796,
      "duration": 0.0798,
      "velocity": 101,
      "chip": "ym2612"
    },
    {
      "channel": 1,
      "note": 50,
      "start": 32.184,
      "duration": 0.0759,
      "velocity": 117,
      "chip": "ym2612"
    },
    {
      "channel": 2,
      "note": 70,
      "start": 32.1882,
      "duration": 0.0214,
      "velocity": 106,
      "chip": "ym2612"
    },
    {
      "channel": 0,
      "note": 55,
      "start": 32.2796,
      "duration": 0.1798,
      "velocity": 101,
      "chip": "ym2612"
    },
    {
      "channel": 1,
      "note": 74,
      "start": 32.2838,
      "duration": 0.1765,
      "velocity": 127,
      "chip": "ym2612"
    },
    {
      "channel": 2,
      "note": 70,
      "start": 32.288,
      "duration": 0.0549,
      "velocity": 106,
      "chip": "ym2612"
    },
    {
      "channel": 2,
      "note": 72,
      "start": 32.363,
      "duration": 0.0633,
      "velocity": 106,
      "chip": "ym2612"
    },
    {
      "channel": 0,
      "note": 55,
      "start": 32.4645,
      "duration": 0.0783,
      "velocity": 101,
      "chip": "ym2612"
    },
    {
      "channel": 1,
      "note": 71,
      "start": 32.4693,
      "duration": 0.0753,
      "velocity": 127,
      "chip": "ym2612"
    },
    {
      "channel": 2,
      "note": 50,
      "start": 32.4737,
      "duration": 0.0697,
      "velocity": 117,
      "chip": "ym2612"
    },
    {
      "channel": 3,
      "note": 70,
      "start": 32.478,
      "duration": 0.0483,
      "velocity": 106,
      "chip": "ym2612"
    },
    {
      "channel": 0,
      "note": 50,
      "start": 32.563,
      "duration": 0.1798,
      "velocity": 101,
      "chip": "ym2612"
    },
    {
      "channel": 1,
      "note": 50,
      "start": 32.5674,
      "duration": 0.0752,
      "velocity": 117,
      "chip": "ym2612"
    },
    {
      "channel": 2,
      "note": 69,
      "start": 32.5716,
      "duration": 0.2548,
      "velocity": 106,
      "chip": "ym2612"
    },
    {
      "channel": 1,
      "note": 71,
      "start": 32.6473,
      "duration": 0.0793,
      "velocity": 127,
      "chip": "ym2612"
    },
    {
      "channel": 0,
      "note": 50,
      "start": 32.7469,
      "duration": 0.0807,
      "velocity": 101,
      "chip": "ym2612"
    },
    {
      "channel": 1,
      "note": 50,
      "start": 32.7513,
      "duration": 0.0757,
      "velocity": 117,
      "chip": "ym2612"
    },
    {
      "channel": 0,
      "note": 74,
      "start": 32.8464,
      "duration": 0.1796,
      "velocity": 127,
      "chip": "ym2612"
    },
    {
      "channel": 1,
      "note": 50,
      "start": 32.8505,
      "duration": 0.1776,
      "velocity": 101,
      "chip": "ym2612"
    },
    {
      "channel": 2,
      "note": 69,
      "start": 32.8547,
      "duration": 0.0716,
      "velocity": 106,
      "chip": "ym2612"
    },
    {
      "channel": 2,
      "note": 70,
      "start": 32.9464,
      "duration": 0.0807,
      "velocity": 106,
      "chip": "ym2612"
    },
    {
      "channel": 0,
      "note": 50,
      "start": 33.0326,
      "duration": 0.0767,
      "velocity": 117,
      "chip": "ym2612"
    },
    {
      "channel": 1,
      "note": 71,
      "start": 33.0374,
      "duration": 0.0748,
      "velocity": 127,
      "chip": "ym2612"
    },
    {
      "channel": 2,
      "note": 50,
      "start": 33.0416,
      "duration": 0.0695,
      "velocity": 101,
      "chip": "ym2612"
    },
    {
      "channel": 3,
      "note": 69,
      "start": 33.0459,
      "duration": 0.0645,
      "velocity": 106,
      "chip": "ym2612"
    },
    {
      "channel": 0,
      "note": 55,
      "start": 33.1296,
      "duration": 0.1799,
      "velocity": 101,
      "chip": "ym2612"
    },
    {
      "channel": 1,
      "note": 67,
      "start": 33.1338,
      "duration": 0.2592,
      "velocity": 106,
      "chip": "ym2612"
    },
    {
      "channel": 2,
      "note": 50,
      "start": 33.1382,
      "duration": 0.0712,
      "velocity": 117,
      "chip": "ym2612"
    },
    {
      "channel": 2,
      "note": 71,
      "start": 33.2302,
      "duration": 0.0805,
      "velocity": 127,
      "chip": "ym2612"
    },
    {
      "channel": 0,
      "note": 55,
      "start": 33.3148,
      "duration": 0.0795,
      "velocity": 101,
      "chip": "ym2612"
    },
    {
      "channel": 2,
      "note": 50,
      "start": 33.3192,
      "duration": 0.0744,
      "velocity": 117,
      "chip": "ym2612"
    },
    {
      "channel": 0,
      "note": 74,
      "start": 33.4131,
      "duration": 0.1796,
      "velocity": 127,
      "chip": "ym2612"
    },
    {
      "channel": 1,
      "note": 55,
      "start": 33.4172,
      "duration": 0.1771,
      "velocity": 101,
      "chip": "ym2612"
    },
    {
      "channel": 2,
      "note": 67,
      "start": 33.4213,
      "duration": 0.0717,
      "velocity": 106,
      "chip": "ym2612"
    },
    {
      "channel": 2,
      "note": 69,
      "start": 33.5142,
      "duration": 0.0794,
      "velocity": 106,
      "chip": "ym2612"
    },
    {
      "channel": 0,
      "note": 55,
      "start": 33.6142,
      "duration": 0.0799,
      "velocity": 101,
      "chip": "ym2612"
    },
    {
      "channel": 1,
      "note": 50,
      "start": 33.6187,
      "duration": 0.0787,
      "velocity": 117,
      "chip": "ym2612"
    },
    {
      "channel": 2,
      "note": 71,
      "start": 33.6235,
      "duration": 0.0732,
      "velocity": 127,
      "chip": "ym2612"
    },
    {
      "channel": 3,
      "note": 67,
      "start": 33.6278,
      "duration": 0.0675,
      "velocity": 106,
      "chip": "ym2612"
    },
    {
      "channel": 0,
      "note": 50,
      "start": 33.7015,
      "duration": 0.1758,
      "velocity": 101,
      "chip": "ym2612"
    },
    {
      "channel": 1,
      "note": 65,
      "start": 33.7057,
      "duration": 0.2539,
      "velocity": 106,
      "chip": "ym2612"
    },
    {
      "channel": 2,
      "note": 50,
      "start": 33.7102,
      "duration": 0.0658,
      "velocity": 117,
      "chip": "ym2612"
    },
    {
      "channel": 2,
      "note": 71,
      "start": 33.7982,
      "duration": 0.0803,
      "velocity": 127,
      "chip": "ym2612"
    },
    {
      "channel": 0,
      "note": 50,
      "start": 33.8963,
      "duration": 0.0818,
      "velocity": 101,
      "chip": "ym2612"
    },
    {
      "channel": 2,
      "note": 50,
      "start": 33.9006,
      "duration": 0.0767,
      "velocity": 117,
      "chip": "ym2612"
    },
    {
      "channel": 0,
      "note": 50,
      "start": 33.9822,
      "duration": 0.1784,
      "velocity": 101,
      "chip": "ym2612"
    },
    {
      "channel": 1,
      "note": 74,
      "start": 33.9865,
      "duration": 0.1756,
      "velocity": 127,
      "chip": "ym2612"
    },
    {
      "channel": 2,
      "note": 65,
      "start": 33.9907,
      "duration": 0.0702,
      "velocity": 106,
      "chip": "ym2612"
    },
    {
      "channel": 2,
      "note": 67,
      "start": 34.0797,
      "duration": 0.0819,
      "velocity": 106,
      "chip": "ym2612"
    },
    {
      "channel": 0,
      "note": 50,
      "start": 34.1797,
      "duration": 0.0798,
      "velocity": 101,
      "chip": "ym2612"
    },
    {
      "channel": 1,
      "note": 71,
      "start": 34.1845,
      "duration": 0.0777,
      "velocity": 127,
      "chip": "ym2612"
    },
    {
      "channel": 2,
      "note": 65,
      "start": 34.1887,
      "duration": 0.0724,
      "velocity": 106,
      "chip": "ym2612"
    },
    {
      "channel": 3,
      "note": 50,
      "start": 34.1933,
      "duration": 0.067,
      "velocity": 117,
      "chip": "ym2612"
    },
    {
      "channel": 0,
      "note": 55,
      "start": 34.2796,
      "duration": 0.1798,
      "velocity": 101,
      "chip": "ym2612"
    },
    {
      "channel": 1,
      "note": 64,
      "start": 34.2838,
      "duration": 0.0758,
      "velocity": 106,
      "chip": "ym2612"
    },
    {
      "channel": 2,
      "note": 50,
      "start": 34.2882,
      "duration": 0.0721,
      "velocity": 117,
      "chip": "ym2612"
    },
    {
      "channel": 1,
      "note": 71,
      "start": 34.365,
      "duration": 0.0782,
      "velocity": 127,
      "chip": "ym2612"
    },
    {
      "channel": 0,
      "note": 50,
      "start": 34.464,
      "duration": 0.0787,
      "velocity": 117,
      "chip": "ym2612"
    },
    {
      "channel": 1,
      "note": 55,
      "start": 34.4681,
      "duration": 0.0761,
      "velocity": 101,
      "chip": "ym2612"
    },
    {
      "channel": 2,
      "note": 64,
      "start": 34.4722,
      "duration": 0.0714,
      "velocity": 106,
      "chip": "ym2612"
    },
    {
      "channel": 0,
      "note": 57,
      "start": 34.563,
      "duration": 0.1799,
      "velocity": 101,
      "chip": "ym2612"
    },
    {
      "channel": 1,
      "note": 74,
      "start": 34.5672,
      "duration": 0.1765,
      "velocity": 127,
      "chip": "ym2612"
    },
    {
      "channel": 2,
      "note": 69,
      "start": 34.5714,
      "duration": 0.0716,
      "velocity": 106,
      "chip": "ym2612"
    },
    {
      "channel": 0,
      "note": 71,
      "start": 34.7485,
      "duration": 0.0781,
      "velocity": 127,
      "chip": "ym2612"
    },
    {
      "channel": 1,
      "note": 57,
      "start": 34.7526,
      "duration": 0.0763,
      "velocity": 101,
      "chip": "ym2612"
    },
    {
      "channel": 2,
      "note": 69,
      "start": 34.7569,
      "duration": 0.0714,
      "velocity": 106,
      "chip": "ym2612"
    },
    {
      "channel": 3,
      "note": 50,
      "start": 34.7615,
      "duration": 0.0659,
      "velocity": 117,
      "chip": "ym2612"
    },
    {
      "channel": 0,
      "note": 50,
      "start": 34.8463,
      "duration": 0.1799,
      "velocity": 101,
      "chip": "ym2612"
    },
    {
      "channel": 1,
      "note": 62,
      "start": 34.8505,
      "duration": 0.2758,
      "velocity": 106,
      "chip": "ym2612"
    },
    {
      "channel": 2,
      "note": 50,
      "start": 34.8549,
      "duration": 0.0712,
      "velocity": 117,
      "chip": "ym2612"
    },
    {
      "channel": 2,
      "note": 71,
      "start": 34.9469,
      "duration": 0.0805,
      "velocity": 127,
      "chip": "ym2612"
    },
    {
      "channel": 0,
      "note": 47,
      "start": 35.0315,
      "duration": 0.078,
      "velocity": 101,
      "chip": "ym2612"
    },
    {
      "channel": 2,
      "note": 50,
      "start": 35.0359,
      "duration": 0.0741,
      "velocity": 117,
      "chip": "ym2612"
    },
    {
      "channel": 0,
      "note": 48,
      "start": 35.1305,
      "duration": 0.1791,
      "velocity": 101,
      "chip": "ym2612"
    },
    {
      "channel": 1,
      "note": 74,
      "start": 35.1347,
      "duration": 0.0749,
      "velocity": 106,
      "chip": "ym2612"
    },
    {
      "channel": 2,
      "note": 74,
      "start": 35.1389,
      "duration": 0.1715,
      "velocity": 127,
      "chip": "ym2612"
    },
    {
      "channel": 0,
      "note": 71,
      "start": 35.3152,
      "duration": 0.078,
      "velocity": 127,
      "chip": "ym2612"
    },
    {
      "channel": 1,
      "note": 48,
      "start": 35.3193,
      "duration": 0.0752,
      "velocity": 101,
      "chip": "ym2612"
    },
    {
      "channel": 2,
      "note": 74,
      "start": 35.3235,
      "duration": 0.0528,
      "velocity": 106,
      "chip": "ym2612"
    },
    {
      "channel": 3,
      "note": 50,
      "start": 35.3281,
      "duration": 0.0658,
      "velocity": 117,
      "chip": "ym2612"
    },
    {
      "channel": 0,
      "note": 50,
      "start": 35.413,
      "duration": 0.1798,
      "velocity": 101,
      "chip": "ym2612"
    },
    {
      "channel": 1,
      "note": 69,
      "start": 35.4172,
      "duration": 0.0758,
      "velocity": 106,
      "chip": "ym2612"
    },
    {
      "channel": 2,
      "note": 50,
      "start": 35.4216,
      "duration": 0.072,
      "velocity": 117,
      "chip": "ym2612"
    },
    {
      "channel": 1,
      "note": 71,
      "start": 35.5136,
      "duration": 0.0803,
      "velocity": 127,
      "chip": "ym2612"
    },
    {
      "channel": 0,
      "note": 50,
      "start": 35.613,
      "duration": 0.0799,
      "velocity": 101,
      "chip": "ym2612"
    },
    {
      "channel": 1,
      "note": 69,
      "start": 35.6172,
      "duration": 0.0591,
      "velocity": 106,
      "chip": "ym2612"
    },
    {
      "channel": 2,
      "note": 50,
      "start": 35.6216,
      "duration": 0.072,
      "velocity": 117,
      "chip": "ym2612"
    },
    {
      "channel": 0,
      "note": 74,
      "start": 35.6978,
      "duration": 0.1782,
      "velocity": 127,
      "chip": "ym2612"
    },
    {
      "channel": 1,
      "note": 50,
      "start": 35.7019,
      "duration": 0.1747,
      "velocity": 101,
      "chip": "ym2612"
    },
    {
      "channel": 2,
      "note": 74,
      "start": 35.7061,
      "duration": 0.1048,
      "velocity": 106,
      "chip": "ym2612"
    },
    {
      "channel": 0,
      "note": 50,
      "start": 35.8976,
      "duration": 0.0786,
      "velocity": 101,
      "chip": "ym2612"
    },
    {
      "channel": 1,
      "note": 71,
      "start": 35.9024,
      "duration": 0.0759,
      "velocity": 127,
      "chip": "ym2612"
    },
    {
      "channel": 2,
      "note": 74,
      "start": 35.9066,
      "duration": 0.0531,
      "velocity": 106,
      "chip": "ym2612"
    },
    {
      "channel": 3,
      "note": 50,
      "start": 35.9111,
      "duration": 0.0659,
      "velocity": 117,
      "chip": "ym2612"
    },
    {
      "channel": 0,
      "note": 50,
      "start": 35.9824,
      "duration": 0.177,
      "velocity": 101,
      "chip": "ym2612"
    },
    {
      "channel": 1,
      "note": 50,
      "start": 35.9869,
      "duration": 0.0724,
      "velocity": 117,
      "chip": "ym2612"
    },
    {
      "channel": 2,
      "note": 69,
      "start": 35.991,
      "duration": 0.3853,
      "velocity": 106,
      "chip": "ym2612"
    },
    {
      "channel": 1,
      "note": 71,
      "start": 36.0814,
      "duration": 0.0791,
      "velocity": 127,
      "chip": "ym2612"
    },
    {
      "channel": 0,
      "note": 50,
      "start": 36.1812,
      "duration": 0.0793,
      "velocity": 117,
      "chip": "ym2612"
    },
    {
      "channel": 1,
      "note": 50,
      "start": 36.1852,
      "duration": 0.076,
      "velocity": 101,
      "chip": "ym2612"
    },
    {
      "channel": 0,
      "note": 74,
      "start": 36.2798,
      "duration": 0.1805,
      "velocity": 127,
      "chip": "ym2612"
    },
    {
      "channel": 1,
      "note": 50,
      "start": 36.2838,
      "duration": 0.1758,
      "velocity": 101,
      "chip": "ym2612"
    },
    {
      "channel": 0,
      "note": 50,
      "start": 36.4645,
      "duration": 0.0795,
      "velocity": 101,
      "chip": "ym2612"
    },
    {
      "channel": 1,
      "note": 71,
      "start": 36.4693,
      "duration": 0.0765,
      "velocity": 127,
      "chip": "ym2612"
    },
    {
      "channel": 2,
      "note": 50,
      "start": 36.4737,
      "duration": 0.0709,
      "velocity": 117,
      "chip": "ym2612"
    },
    {
      "channel": 3,
      "note": 69,
      "start": 36.478,
      "duration": 0.0483,
      "velocity": 106,
      "chip": "ym2612"
    },
    {
      "channel": 0,
      "note": 50,
      "start": 36.5633,
      "duration": 0.0793,
      "velocity": 117,
      "chip": "ym2612"
    },
    {
      "channel": 1,
      "note": 55,
      "start": 36.5674,
      "duration": 0.1754,
      "velocity": 101,
      "chip": "ym2612"
    },
    {
      "channel": 2,
      "note": 70,
      "start": 36.5716,
      "duration": 0.056,
      "velocity": 106,
      "chip": "ym2612"
    },
    {
      "channel": 0,
      "note": 71,
      "start": 36.6473,
      "duration": 0.0804,
      "velocity": 127,
      "chip": "ym2612"
    },
    {
      "channel": 0,
      "note": 55,
      "start": 36.747,
      "duration": 0.0791,
      "velocity": 101,
      "chip": "ym2612"
    },
    {
      "channel": 1,
      "note": 50,
      "start": 36.7514,
      "duration": 0.0752,
      "velocity": 117,
      "chip": "ym2612"
    },
    {
      "channel": 2,
      "note": 70,
      "start": 36.7556,
      "duration": 0.0207,
      "velocity": 106,
      "chip": "ym2612"
    },
    {
      "channel": 0,
      "note": 74,
      "start": 36.8464,
      "duration": 0.1796,
      "velocity": 127,
      "chip": "ym2612"
    },
    {
      "channel": 1,
      "note": 55,
      "start": 36.8505,
      "duration": 0.1765,
      "velocity": 101,
      "chip": "ym2612"
    },
    {
      "channel": 2,
      "note": 70,
      "start": 36.8546,
      "duration": 0.0562,
      "velocity": 106,
      "chip": "ym2612"
    },
    {
      "channel": 2,
      "note": 72,
      "start": 36.9464,
      "duration": 0.0633,
      "velocity": 106,
      "chip": "ym2612"
    },
    {
      "channel": 0,
      "note": 55,
      "start": 37.0312,
      "duration": 0.0783,
      "velocity": 101,
      "chip": "ym2612"
    },
    {
      "channel": 1,
      "note": 71,
      "start": 37.0359,
      "duration": 0.0752,
      "velocity": 127,
      "chip": "ym2612"
    },
    {
      "channel": 2,
      "note": 50,
      "start": 37.0404,
      "duration": 0.0697,
      "velocity": 117,
      "chip": "ym2612"
    },
    {
      "channel": 3,
      "note": 70,
      "start": 37.0447,
      "duration": 0.0496,
      "velocity": 106,
      "chip": "ym2612"
    },
    {
      "channel": 0,
      "note": 50,
      "start": 37.1296,
      "duration": 0.1799,
      "velocity": 101,
      "chip": "ym2612"
    },
    {
      "channel": 1,
      "note": 50,
      "start": 37.134,
      "duration": 0.0753,
      "velocity": 117,
      "chip": "ym2612"
    },
    {
      "channel": 2,
      "note": 69,
      "start": 37.1382,
      "duration": 0.2548,
      "velocity": 106,
      "chip": "ym2612"
    },
    {
      "channel": 1,
      "note": 71,
      "start": 37.2302,
      "duration": 0.0805,
      "velocity": 127,
      "chip": "ym2612"
    },
    {
      "channel": 0,
      "note": 50,
      "start": 37.3148,
      "duration": 0.0795,
      "velocity": 101,
      "chip": "ym2612"
    },
    {
      "channel": 1,
      "note": 50,
      "start": 37.3191,
      "duration": 0.0745,
      "velocity": 117,
      "chip": "ym2612"
    },
    {
      "channel": 0,
      "note": 50,
      "start": 37.413,
      "duration": 0.1798,
      "velocity": 101,
      "chip": "ym2612"
    },
    {
      "channel": 1,
      "note": 74,
      "start": 37.4172,
      "duration": 0.1771,
      "velocity": 127,
      "chip": "ym2612"
    },
    {
      "channel": 2,
      "note": 69,
      "start": 37.4214,
      "duration": 0.0716,
      "velocity": 106,
      "chip": "ym2612"
    },
    {
      "channel": 2,
      "note": 70,
      "start": 37.5131,
      "duration": 0.0806,
      "velocity": 106,
      "chip": "ym2612"
    },
    {
      "channel": 0,
      "note": 71,
      "start": 37.6136,
      "duration": 0.0798,
      "velocity": 127,
      "chip": "ym2612"
    },
    {
      "channel": 1,
      "note": 50,
      "start": 37.6178,
      "duration": 0.0785,
      "velocity": 101,
      "chip": "ym2612"
    },
    {
      "channel": 2,
      "note": 50,
      "start": 37.6222,
      "duration": 0.0732,
      "velocity": 117,
      "chip": "ym2612"
    },
    {
      "channel": 3,
      "note": 69,
      "start": 37.6265,
      "duration": 0.0681,
      "velocity": 106,
      "chip": "ym2612"
    },
    {
      "channel": 0,
      "note": 55,
      "start": 37.7004,
      "duration": 0.1757,
      "velocity": 101,
      "chip": "ym2612"
    },
    {
      "channel": 1,
      "note": 50,
      "start": 37.7048,
      "duration": 0.0712,
      "velocity": 117,
      "chip": "ym2612"
    },
    {
      "channel": 2,
      "note": 67,
      "start": 37.7091,
      "duration": 0.2505,
      "velocity": 106,
      "chip": "ym2612"
    },
    {
      "channel": 1,
      "note": 71,
      "start": 37.7969,
      "duration": 0.0803,
      "velocity": 127,
      "chip": "ym2612"
    },
    {
      "channel": 0,
      "note": 50,
      "start": 37.8966,
      "duration": 0.0803,
      "velocity": 117,
      "chip": "ym2612"
    },
    {
      "channel": 1,
      "note": 55,
      "start": 37.9006,
      "duration": 0.0756,
      "velocity": 101,
      "chip": "ym2612"
    },
    {
      "channel": 0,
      "note": 74,
      "start": 37.9812,
      "duration": 0.1782,
      "velocity": 127,
      "chip": "ym2612"
    },
    {
      "channel": 1,
      "note": 55,
      "start": 37.9852,
      "duration": 0.1757,
      "velocity": 101,
      "chip": "ym2612"
    },
    {
      "channel": 2,
      "note": 67,
      "start": 37.9894,
      "duration": 0.0703,
      "velocity": 106,
      "chip": "ym2612"
    },
    {
      "channel": 2,
      "note": 69,
      "start": 38.0798,
      "duration": 0.0805,
      "velocity": 106,
      "chip": "ym2612"
    },
    {
      "channel": 0,
      "note": 55,
      "start": 38.1796,
      "duration": 0.0799,
      "velocity": 101,
      "chip": "ym2612"
    },
    {
      "channel": 1,
      "note": 71,
      "start": 38.1845,
      "duration": 0.0777,
      "velocity": 127,
      "chip": "ym2612"
    },
    {
      "channel": 2,
      "note": 67,
      "start": 38.1887,
      "duration": 0.0724,
      "velocity": 106,
      "chip": "ym2612"
    },
    {
      "channel": 3,
      "note": 50,
      "start": 38.1933,
      "duration": 0.067,
      "velocity": 117,
      "chip": "ym2612"
    },
    {
      "channel": 0,
      "note": 50,
      "start": 38.2809,
      "duration": 0.1798,
      "velocity": 101,
      "chip": "ym2612"
    },
    {
      "channel": 1,
      "note": 65,
      "start": 38.2851,
      "duration": 0.2579,
      "velocity": 106,
      "chip": "ym2612"
    },
    {
      "channel": 2,
      "note": 50,
      "start": 38.2894,
      "duration": 0.07,
      "velocity": 117,
      "chip": "ym2612"
    },
    {
      "channel": 2,
      "note": 71,
      "start": 38.3641,
      "duration": 0.0791,
      "velocity": 127,
      "chip": "ym2612"
    },
    {
      "channel": 0,
      "note": 50,
      "start": 38.4648,
      "duration": 0.0795,
      "velocity": 101,
      "chip": "ym2612"
    },
    {
      "channel": 2,
      "note": 50,
      "start": 38.4691,
      "duration": 0.0745,
      "velocity": 117,
      "chip": "ym2612"
    },
    {
      "channel": 0,
      "note": 50,
      "start": 38.5642,
      "duration": 0.1799,
      "velocity": 101,
      "chip": "ym2612"
    },
    {
      "channel": 1,
      "note": 65,
      "start": 38.5684,
      "duration": 0.0757,
      "velocity": 106,
      "chip": "ym2612"
    },
    {
      "channel": 2,
      "note": 74,
      "start": 38.5726,
      "duration": 0.1723,
      "velocity": 127,
      "chip": "ym2612"
    },
    {
      "channel": 1,
      "note": 67,
      "start": 38.6483,
      "duration": 0.078,
      "velocity": 106,
      "chip": "ym2612"
    },
    {
      "channel": 0,
      "note": 71,
      "start": 38.7498,
      "duration": 0.078,
      "velocity": 127,
      "chip": "ym2612"
    },
    {
      "channel": 1,
      "note": 50,
      "start": 38.7539,
      "duration": 0.0762,
      "velocity": 101,
      "chip": "ym2612"
    },
    {
      "channel": 2,
      "note": 65,
      "start": 38.7581,
      "duration": 0.0713,
      "velocity": 106,
      "chip": "ym2612"
    },
    {
      "channel": 3,
      "note": 50,
      "start": 38.7627,
      "duration": 0.0659,
      "velocity": 117,
      "chip": "ym2612"
    },
    {
      "channel": 0,
      "note": 55,
      "start": 38.8463,
      "duration": 0.1799,
      "velocity": 101,
      "chip": "ym2612"
    },
    {
      "channel": 1,
      "note": 64,
      "start": 38.8505,
      "duration": 0.0771,
      "velocity": 106,
      "chip": "ym2612"
    },
    {
      "channel": 2,
      "note": 50,
      "start": 38.8549,
      "duration": 0.0732,
      "velocity": 117,
      "chip": "ym2612"
    },
    {
      "channel": 1,
      "note": 71,
      "start": 38.9469,
      "duration": 0.0805,
      "velocity": 127,
      "chip": "ym2612"
    },
    {
      "channel": 0,
      "note": 50,
      "start": 39.0319,
      "duration": 0.0786,
      "velocity": 117,
      "chip": "ym2612"
    },
    {
      "channel": 1,
      "note": 55,
      "start": 39.036,
      "duration": 0.0761,
      "velocity": 101,
      "chip": "ym2612"
    },
    {
      "channel": 2,
      "note": 64,
      "start": 39.0401,
      "duration": 0.0713,
      "velocity": 106,
      "chip": "ym2612"
    },
    {
      "channel": 0,
      "note": 74,
      "start": 39.1298,
      "duration": 0.1796,
      "velocity": 127,
      "chip": "ym2612"
    },
    {
      "channel": 1,
      "note": 57,
      "start": 39.1339,
      "duration": 0.1764,
      "velocity": 101,
      "chip": "ym2612"
    },
    {
      "channel": 2,
      "note": 69,
      "start": 39.138,
      "duration": 0.0716,
      "velocity": 106,
      "chip": "ym2612"
    },
    {
      "channel": 0,
      "note": 50,
      "start": 39.3148,
      "duration": 0.0779,
      "velocity": 117,
      "chip": "ym2612"
    },
    {
      "channel": 1,
      "note": 57,
      "start": 39.319,
      "duration": 0.0765,
      "velocity": 101,
      "chip": "ym2612"
    },
    {
      "channel": 2,
      "note": 71,
      "start": 39.3237,
      "duration": 0.0712,
      "velocity": 127,
      "chip": "ym2612"
    },
    {
      "channel": 3,
      "note": 69,
      "start": 39.328,
      "duration": 0.0657,
      "velocity": 106,
      "chip": "ym2612"
    },
    {
      "channel": 0,
      "note": 50,
      "start": 39.413,
      "duration": 0.1798,
      "velocity": 101,
      "chip": "ym2612"
    },
    {
      "channel": 1,
      "note": 50,
      "start": 39.4174,
      "duration": 0.0753,
      "velocity": 117,
      "chip": "ym2612"
    },
    {
      "channel": 2,
      "note": 62,
      "start": 39.4216,
      "duration": 0.4548,
      "velocity": 106,
      "chip": "ym2612"
    },
    {
      "channel": 1,
      "note": 71,
      "start": 39.5136,
      "duration": 0.0803,
      "velocity": 127,
      "chip": "ym2612"
    },
    {
      "channel": 0,
      "note": 50,
      "start": 39.6129,
      "duration": 0.08,
      "velocity": 101,
      "chip": "ym2612"
    },
    {
      "channel": 1,
      "note": 50,
      "start": 39.6173,
      "duration": 0.0762,
      "velocity": 117,
      "chip": "ym2612"
    },
    {
      "channel": 0,
      "note": 57,
      "start": 39.6976,
      "duration": 0.0786,
      "velocity": 101,
      "chip": "ym2612"
    },
    {
      "channel": 1,
      "note": 74,
      "start": 39.7018,
      "duration": 0.0749,
      "velocity": 127,
      "chip": "ym2612"
    },
    {
      "channel": 0,
      "note": 74,
      "start": 39.7969,
      "duration": 0.0812,
      "velocity": 127,
      "chip": "ym2612"
    },
    {
      "channel": 1,
      "note": 60,
      "start": 39.801,
      "duration": 0.0761,
      "velocity": 101,
      "chip": "ym2612"
    },
    {
      "channel": 0,
      "note": 74,
      "start": 39.8969,
      "duration": 0.0798,
      "velocity": 127,
      "chip": "ym2612"
    },
    {
      "channel": 1,
      "note": 62,
      "start": 39.901,
      "duration": 0.0777,
      "velocity": 101,
      "chip": "ym2612"
    },
    {
      "channel": 2,
      "note": 50,
      "start": 39.9054,
      "duration": 0.0722,
      "velocity": 117,
      "chip": "ym2612"
    },
    {
      "channel": 0,
      "note": 50,
      "start": 39.9831,
      "duration": 0.1764,
      "velocity": 101,
      "chip": "ym2612"
    },
    {
      "channel": 1,
      "note": 86,
      "start": 39.9875,
      "duration": 0.0555,
      "velocity": 106,
      "chip": "ym2612"
    },
    {
      "channel": 2,
      "note": 81,
      "start": 39.9969,
      "duration": 0.5499,
      "velocity": 106,
      "chip": "ym2612"
    },
    {
      "channel": 3,
      "note": 50,
      "start": 40.0013,
      "duration": 0.0581,
      "velocity": 117,
      "chip": "ym2612"
    },
    {
      "channel": 1,
      "note": 71,
      "start": 40.0802,
      "duration": 0.0803,
      "velocity": 127,
      "chip": "ym2612"
    },
    {
      "channel": 0,
      "note": 50,
      "start": 40.1797,
      "duration": 0.0798,
      "velocity": 101,
      "chip": "ym2612"
    },
    {
      "channel": 1,
      "note": 86,
      "start": 40.184,
      "duration": 0.0423,
      "velocity": 106,
      "chip": "ym2612"
    },
    {
      "channel": 3,
      "note": 50,
      "start": 40.1907,
      "duration": 0.0693,
      "velocity": 117,
      "chip": "ym2612"
    },
    {
      "channel": 0,
      "note": 74,
      "start": 40.2798,
      "duration": 0.1796,
      "velocity": 127,
      "chip": "ym2612"
    },
    {
      "channel": 1,
      "note": 50,
      "start": 40.284,
      "duration": 0.1763,
      "velocity": 101,
      "chip": "ym2612"
    },
    {
      "channel": 3,
      "note": 81,
      "start": 40.2882,
      "duration": 0.0548,
      "velocity": 106,
      "chip": "ym2612"
    },
    {
      "channel": 0,
      "note": 50,
      "start": 40.4646,
      "duration": 0.0814,
      "velocity": 101,
      "chip": "ym2612"
    },
    {
      "channel": 1,
      "note": 71,
      "start": 40.4695,
      "duration": 0.0758,
      "velocity": 127,
      "chip": "ym2612"
    },
    {
      "channel": 3,
      "note": 81,
      "start": 40.4738,
      "duration": 0.0359,
      "velocity": 106,
      "chip": "ym2612"
    },
    {
      "channel": 4,
      "note": 50,
      "start": 40.4807,
      "duration": 0.0634,
      "velocity": 117,
      "chip": "ym2612"
    },
    {
      "channel": 0,
      "note": 50,
      "start": 40.563,
      "duration": 0.1798,
      "velocity": 101,
      "chip": "ym2612"
    },
    {
      "channel": 1,
      "note": 86,
      "start": 40.5675,
      "duration": 0.0755,
      "velocity": 106,
      "chip": "ym2612"
    },
    {
      "channel": 2,
      "note": 77,
      "start": 40.5769,
      "duration": 0.5522,
      "velocity": 106,
      "chip": "ym2612"
    },
    {
      "channel": 3,
      "note": 50,
      "start": 40.5814,
      "duration": 0.0623,
      "velocity": 117,
      "chip": "ym2612"
    },
    {
      "channel": 1,
      "note": 71,
      "start": 40.6483,
      "duration": 0.0782,
      "velocity": 127,
      "chip": "ym2612"
    },
    {
      "channel": 0,
      "note": 50,
      "start": 40.7473,
      "duration": 0.0787,
      "velocity": 117,
      "chip": "ym2612"
    },
    {
      "channel": 1,
      "note": 50,
      "start": 40.7515,
      "duration": 0.0752,
      "velocity": 101,
      "chip": "ym2612"
    },
    {
      "channel": 3,
      "note": 86,
      "start": 40.7557,
      "duration": 0.0373,
      "velocity": 106,
      "chip": "ym2612"
    },
    {
      "channel": 0,
      "note": 74,
      "start": 40.8476,
      "duration": 0.1797,
      "velocity": 127,
      "chip": "ym2612"
    },
    {
      "channel": 1,
      "note": 50,
      "start": 40.8518,
      "duration": 0.1777,
      "velocity": 101,
      "chip": "ym2612"
    },
    {
      "channel": 3,
      "note": 81,
      "start": 40.8561,
      "duration": 0.1037,
      "velocity": 106,
      "chip": "ym2612"
    },
    {
      "channel": 0,
      "note": 50,
      "start": 41.0341,
      "duration": 0.0752,
      "velocity": 117,
      "chip": "ym2612"
    },
    {
      "channel": 1,
      "note": 50,
      "start": 41.0383,
      "duration": 0.0729,
      "velocity": 101,
      "chip": "ym2612"
    },
    {
      "channel": 3,
      "note": 71,
      "start": 41.0433,
      "duration": 0.0673,
      "velocity": 127,
      "chip": "ym2612"
    },
    {
      "channel": 4,
      "note": 81,
      "start": 41.0475,
      "duration": 0.0456,
      "velocity": 106,
      "chip": "ym2612"
    },
    {
      "channel": 0,
      "note": 55,
      "start": 41.1334,
      "duration": 0.1773,
      "velocity": 101,
      "chip": "ym2612"
    },
    {
      "channel": 1,
      "note": 50,
      "start": 41.138,
      "duration": 0.0725,
      "velocity": 117,
      "chip": "ym2612"
    },
    {
      "channel": 2,
      "note": 82,
      "start": 41.1426,
      "duration": 0.0504,
      "velocity": 106,
      "chip": "ym2612"
    },
    {
      "channel": 3,
      "note": 82,
      "start": 41.1517,
      "duration": 0.2427,
      "velocity": 106,
      "chip": "ym2612"
    },
    {
      "channel": 1,
      "note": 71,
      "start": 41.2302,
      "duration": 0.0818,
      "velocity": 127,
      "chip": "ym2612"
    },
    {
      "channel": 0,
      "note": 55,
      "start": 41.3162,
      "duration": 0.0795,
      "velocity": 101,
      "chip": "ym2612"
    },
    {
      "channel": 1,
      "note": 50,
      "start": 41.3207,
      "duration": 0.0743,
      "velocity": 117,
      "chip": "ym2612"
    },
    {
      "channel": 2,
      "note": 82,
      "start": 41.3251,
      "duration": 0.018,
      "velocity": 106,
      "chip": "ym2612"
    },
    {
      "channel": 0,
      "note": 55,
      "start": 41.4131,
      "duration": 0.1796,
      "velocity": 101,
      "chip": "ym2612"
    },
    {
      "channel": 1,
      "note": 82,
      "start": 41.4175,
      "duration": 0.0588,
      "velocity": 106,
      "chip": "ym2612"
    },
    {
      "channel": 2,
      "note": 79,
      "start": 41.4269,
      "duration": 0.2519,
      "velocity": 106,
      "chip": "ym2612"
    },
    {
      "channel": 3,
      "note": 74,
      "start": 41.4311,
      "duration": 0.1623,
      "velocity": 127,
      "chip": "ym2612"
    },
    {
      "channel": 1,
      "note": 84,
      "start": 41.5131,
      "duration": 0.0644,
      "velocity": 106,
      "chip": "ym2612"
    },
    {
      "channel": 0,
      "note": 55,
      "start": 41.6131,
      "duration": 0.0808,
      "velocity": 101,
      "chip": "ym2612"
    },
    {
      "channel": 1,
      "note": 71,
      "start": 41.6179,
      "duration": 0.0773,
      "velocity": 127,
      "chip": "ym2612"
    },
    {
      "channel": 3,
      "note": 82,
      "start": 41.6223,
      "duration": 0.0583,
      "velocity": 106,
      "chip": "ym2612"
    },
    {
      "channel": 4,
      "note": 50,
      "start": 41.6291,
      "duration": 0.0638,
      "velocity": 117,
      "chip": "ym2612"
    },
    {
      "channel": 0,
      "note": 50,
      "start": 41.6996,
      "duration": 0.1765,
      "velocity": 101,
      "chip": "ym2612"
    },
    {
      "channel": 1,
      "note": 50,
      "start": 41.7043,
      "duration": 0.0717,
      "velocity": 117,
      "chip": "ym2612"
    },
    {
      "channel": 2,
      "note": 81,
      "start": 41.7088,
      "duration": 0.251,
      "velocity": 106,
      "chip": "ym2612"
    },
    {
      "channel": 3,
      "note": 81,
      "start": 41.7179,
      "duration": 0.5481,
      "velocity": 106,
      "chip": "ym2612"
    },
    {
      "channel": 1,
      "note": 71,
      "start": 41.7969,
      "duration": 0.0802,
      "velocity": 127,
      "chip": "ym2612"
    },
    {
      "channel": 0,
      "note": 50,
      "start": 41.8963,
      "duration": 0.0806,
      "velocity": 101,
      "chip": "ym2612"
    },
    {
      "channel": 1,
      "note": 50,
      "start": 41.9007,
      "duration": 0.0754,
      "velocity": 117,
      "chip": "ym2612"
    },
    {
      "channel": 0,
      "note": 74,
      "start": 41.9813,
      "duration": 0.1782,
      "velocity": 127,
      "chip": "ym2612"
    },
    {
      "channel": 1,
      "note": 50,
      "start": 41.9854,
      "duration": 0.1766,
      "velocity": 101,
      "chip": "ym2612"
    },
    {
      "channel": 2,
      "note": 81,
      "start": 41.9897,
      "duration": 0.07,
      "velocity": 106,
      "chip": "ym2612"
    },
    {
      "channel": 2,
      "note": 82,
      "start": 42.0798,
      "duration": 0.0815,
      "velocity": 106,
      "chip": "ym2612"
    },
    {
      "channel": 0,
      "note": 50,
      "start": 42.1797,
      "duration": 0.0853,
      "velocity": 101,
      "chip": "ym2612"
    },
    {
      "channel": 1,
      "note": 71,
      "start": 42.1846,
      "duration": 0.0798,
      "velocity": 127,
      "chip": "ym2612"
    },
    {
      "channel": 2,
      "note": 50,
      "start": 42.1891,
      "duration": 0.0741,
      "velocity": 117,
      "chip": "ym2612"
    },
    {
      "channel": 4,
      "note": 81,
      "start": 42.1935,
      "duration": 0.0689,
      "velocity": 106,
      "chip": "ym2612"
    },
    {
      "channel": 0,
      "note": 55,
      "start": 42.2797,
      "duration": 0.1798,
      "velocity": 101,
      "chip": "ym2612"
    },
    {
      "channel": 1,
      "note": 79,
      "start": 42.2841,
      "duration": 0.259,
      "velocity": 106,
      "chip": "ym2612"
    },
    {
      "channel": 2,
      "note": 82,
      "start": 42.2936,
      "duration": 0.5495,
      "velocity": 106,
      "chip": "ym2612"
    },
    {
      "channel": 3,
      "note": 50,
      "start": 42.298,
      "duration": 0.0615,
      "velocity": 117,
      "chip": "ym2612"
    },
    {
      "channel": 3,
      "note": 71,
      "start": 42.3642,
      "duration": 0.0791,
      "velocity": 127,
      "chip": "ym2612"
    },
    {
      "channel": 0,
      "note": 55,
      "start": 42.4636,
      "duration": 0.0809,
      "velocity": 101,
      "chip": "ym2612"
    },
    {
      "channel": 3,
      "note": 50,
      "start": 42.4679,
      "duration": 0.0758,
      "velocity": 117,
      "chip": "ym2612"
    },
    {
      "channel": 0,
      "note": 55,
      "start": 42.563,
      "duration": 0.1798,
      "velocity": 101,
      "chip": "ym2612"
    },
    {
      "channel": 1,
      "note": 79,
      "start": 42.5673,
      "duration": 0.0758,
      "velocity": 106,
      "chip": "ym2612"
    },
    {
      "channel": 3,
      "note": 74,
      "start": 42.5739,
      "duration": 0.1699,
      "velocity": 127,
      "chip": "ym2612"
    },
    {
      "channel": 1,
      "note": 81,
      "start": 42.6483,
      "duration": 0.078,
      "velocity": 106,
      "chip": "ym2612"
    },
    {
      "channel": 0,
      "note": 71,
      "start": 42.7487,
      "duration": 0.078,
      "velocity": 127,
      "chip": "ym2612"
    },
    {
      "channel": 1,
      "note": 55,
      "start": 42.7529,
      "duration": 0.0772,
      "velocity": 101,
      "chip": "ym2612"
    },
    {
      "channel": 3,
      "note": 79,
      "start": 42.7572,
      "duration": 0.0723,
      "velocity": 106,
      "chip": "ym2612"
    },
    {
      "channel": 4,
      "note": 50,
      "start": 42.7641,
      "duration": 0.0634,
      "velocity": 117,
      "chip": "ym2612"
    },
    {
      "channel": 0,
      "note": 50,
      "start": 42.8488,
      "duration": 0.1774,
      "velocity": 101,
      "chip": "ym2612"
    },
    {
      "channel": 1,
      "note": 77,
      "start": 42.8532,
      "duration": 0.2566,
      "velocity": 106,
      "chip": "ym2612"
    },
    {
      "channel": 2,
      "note": 50,
      "start": 42.8628,
      "duration": 0.0633,
      "velocity": 117,
      "chip": "ym2612"
    },
    {
      "channel": 3,
      "note": 81,
      "start": 42.8671,
      "duration": 0.5441,
      "velocity": 106,
      "chip": "ym2612"
    },
    {
      "channel": 2,
      "note": 71,
      "start": 42.9469,
      "duration": 0.0805,
      "velocity": 127,
      "chip": "ym2612"
    },
    {
      "channel": 0,
      "note": 50,
      "start": 43.0315,
      "duration": 0.0796,
      "velocity": 101,
      "chip": "ym2612"
    },
    {
      "channel": 2,
      "note": 50,
      "start": 43.0359,
      "duration": 0.0746,
      "velocity": 117,
      "chip": "ym2612"
    },
    {
      "channel": 0,
      "note": 50,
      "start": 43.1297,
      "duration": 0.1799,
      "velocity": 101,
      "chip": "ym2612"
    },
    {
      "channel": 1,
      "note": 74,
      "start": 43.134,
      "duration": 0.179,
      "velocity": 127,
      "chip": "ym2612"
    },
    {
      "channel": 2,
      "note": 77,
      "start": 43.1382,
      "duration": 0.0714,
      "velocity": 106,
      "chip": "ym2612"
    },
    {
      "channel": 2,
      "note": 79,
      "start": 43.231,
      "duration": 0.081,
      "velocity": 106,
      "chip": "ym2612"
    },
    {
      "channel": 0,
      "note": 50,
      "start": 43.3172,
      "duration": 0.0758,
      "velocity": 101,
      "chip": "ym2612"
    },
    {
      "channel": 1,
      "note": 71,
      "start": 43.322,
      "duration": 0.0747,
      "velocity": 127,
      "chip": "ym2612"
    },
    {
      "channel": 2,
      "note": 50,
      "start": 43.3267,
      "duration": 0.069,
      "velocity": 117,
      "chip": "ym2612"
    },
    {
      "channel": 4,
      "note": 77,
      "start": 43.331,
      "duration": 0.0641,
      "velocity": 106,
      "chip": "ym2612"
    },
    {
      "channel": 0,
      "note": 55,
      "start": 43.4167,
      "duration": 0.1772,
      "velocity": 101,
      "chip": "ym2612"
    },
    {
      "channel": 1,
      "note": 76,
      "start": 43.4211,
      "duration": 0.0719,
      "velocity": 106,
      "chip": "ym2612"
    },
    {
      "channel": 2,
      "note": 79,
      "start": 43.4306,
      "duration": 0.2703,
      "velocity": 106,
      "chip": "ym2612"
    },
    {
      "channel": 3,
      "note": 50,
      "start": 43.435,
      "duration": 0.0587,
      "velocity": 117,
      "chip": "ym2612"
    },
    {
      "channel": 1,
      "note": 71,
      "start": 43.5148,
      "duration": 0.0802,
      "velocity": 127,
      "chip": "ym2612"
    },
    {
      "channel": 0,
      "note": 55,
      "start": 43.613,
      "duration": 0.0866,
      "velocity": 101,
      "chip": "ym2612"
    },
    {
      "channel": 1,
      "note": 76,
      "start": 43.6173,
      "duration": 0.0813,
      "velocity": 106,
      "chip": "ym2612"
    },
    {
      "channel": 3,
      "note": 50,
      "start": 43.624,
      "duration": 0.0718,
      "velocity": 117,
      "chip": "ym2612"
    },
    {
      "channel": 0,
      "note": 57,
      "start": 43.7052,
      "duration": 0.1721,
      "velocity": 101,
      "chip": "ym2612"
    },
    {
      "channel": 1,
      "note": 74,
      "start": 43.7098,
      "duration": 0.1681,
      "velocity": 127,
      "chip": "ym2612"
    },
    {
      "channel": 2,
      "note": 81,
      "start": 43.7142,
      "duration": 0.0633,
      "velocity": 106,
      "chip": "ym2612"
    },
    {
      "channel": 3,
      "note": 76,
      "start": 43.7233,
      "duration": 0.2616,
      "velocity": 106,
      "chip": "ym2612"
    },
    {
      "channel": 0,
      "note": 71,
      "start": 43.8971,
      "duration": 0.0865,
      "velocity": 127,
      "chip": "ym2612"
    },
    {
      "channel": 1,
      "note": 57,
      "start": 43.9013,
      "duration": 0.0809,
      "velocity": 101,
      "chip": "ym2612"
    },
    {
      "channel": 2,
      "note": 81,
      "start": 43.9055,
      "duration": 0.0754,
      "velocity": 106,
      "chip": "ym2612"
    },
    {
      "channel": 4,
      "note": 50,
      "start": 43.9125,
      "duration": 0.0655,
      "velocity": 117,
      "chip": "ym2612"
    },
    {
      "channel": 0,
      "note": 50,
      "start": 43.9892,
      "duration": 0.1702,
      "velocity": 101,
      "chip": "ym2612"
    },
    {
      "channel": 1,
      "note": 50,
      "start": 43.994,
      "duration": 0.0666,
      "velocity": 117,
      "chip": "ym2612"
    },
    {
      "channel": 2,
      "note": 74,
      "start": 43.9983,
      "duration": 0.2615,
      "velocity": 106,
      "chip": "ym2612"
    },
    {
      "channel": 3,
      "note": 77,
      "start": 44.0074,
      "duration": 0.5395,
      "velocity": 106,
      "chip": "ym2612"
    },
    {
      "channel": 1,
      "note": 71,
      "start": 44.0803,
      "duration": 0.0802,
      "velocity": 127,
      "chip": "ym2612"
    },
    {
      "channel": 0,
      "note": 47,
      "start": 44.1796,
      "duration": 0.0815,
      "velocity": 101,
      "chip": "ym2612"
    },
    {
      "channel": 1,
      "note": 50,
      "start": 44.184,
      "duration": 0.0764,
      "velocity": 117,
      "chip": "ym2612"
    },
    {
      "channel": 0,
      "note": 74,
      "start": 44.2798,
      "duration": 0.1796,
      "velocity": 127,
      "chip": "ym2612"
    },
    {
      "channel": 1,
      "note": 48,
      "start": 44.284,
      "duration": 0.1763,
      "velocity": 101,
      "chip": "ym2612"
    },
    {
      "channel": 2,
      "note": 86,
      "start": 44.2882,
      "duration": 0.0548,
      "velocity": 106,
      "chip": "ym2612"
    },
    {
      "channel": 0,
      "note": 48,
      "start": 44.4646,
      "duration": 0.0814,
      "velocity": 101,
      "chip": "ym2612"
    },
    {
      "channel": 1,
      "note": 71,
      "start": 44.4695,
      "duration": 0.0758,
      "velocity": 127,
      "chip": "ym2612"
    },
    {
      "channel": 2,
      "note": 86,
      "start": 44.4737,
      "duration": 0.0371,
      "velocity": 106,
      "chip": "ym2612"
    },
    {
      "channel": 4,
      "note": 50,
      "start": 44.4807,
      "duration": 0.0634,
      "velocity": 117,
      "chip": "ym2612"
    },
    {
      "channel": 0,
      "note": 50,
      "start": 44.5631,
      "duration": 0.1797,
      "velocity": 101,
      "chip": "ym2612"
    },
    {
      "channel": 1,
      "note": 81,
      "start": 44.5675,
      "duration": 0.0588,
      "velocity": 106,
      "chip": "ym2612"
    },
    {
      "channel": 2,
      "note": 81,
      "start": 44.577,
      "duration": 0.5508,
      "velocity": 106,
      "chip": "ym2612"
    },
    {
      "channel": 3,
      "note": 50,
      "start": 44.5814,
      "duration": 0.0615,
      "velocity": 117,
      "chip": "ym2612"
    },
    {
      "channel": 1,
      "note": 71,
      "start": 44.6484,
      "duration": 0.0782,
      "velocity": 127,
      "chip": "ym2612"
    },
    {
      "channel": 0,
      "note": 50,
      "start": 44.747,
      "duration": 0.0791,
      "velocity": 101,
      "chip": "ym2612"
    },
    {
      "channel": 1,
      "note": 81,
      "start": 44.7513,
      "duration": 0.0429,
      "velocity": 106,
      "chip": "ym2612"
    },
    {
      "channel": 3,
      "note": 50,
      "start": 44.758,
      "duration": 0.0687,
      "velocity": 117,
      "chip": "ym2612"
    },
    {
      "channel": 0,
      "note": 50,
      "start": 44.8464,
      "duration": 0.1798,
      "velocity": 101,
      "chip": "ym2612"
    },
    {
      "channel": 1,
      "note": 86,
      "start": 44.8506,
      "duration": 0.0756,
      "velocity": 106,
      "chip": "ym2612"
    },
    {
      "channel": 3,
      "note": 74,
      "start": 44.8572,
      "duration": 0.1699,
      "velocity": 127,
      "chip": "ym2612"
    },
    {
      "channel": 0,
      "note": 71,
      "start": 45.032,
      "duration": 0.0779,
      "velocity": 127,
      "chip": "ym2612"
    },
    {
      "channel": 1,
      "note": 50,
      "start": 45.0363,
      "duration": 0.075,
      "velocity": 101,
      "chip": "ym2612"
    },
    {
      "channel": 3,
      "note": 50,
      "start": 45.0408,
      "duration": 0.0698,
      "velocity": 117,
      "chip": "ym2612"
    },
    {
      "channel": 4,
      "note": 86,
      "start": 45.0452,
      "duration": 0.0313,
      "velocity": 106,
      "chip": "ym2612"
    },
    {
      "channel": 0,
      "note": 50,
      "start": 45.1321,
      "duration": 0.1774,
      "velocity": 101,
      "chip": "ym2612"
    },
    {
      "channel": 1,
      "note": 81,
      "start": 45.1365,
      "duration": 0.391,
      "velocity": 106,
      "chip": "ym2612"
    },
    {
      "channel": 2,
      "note": 77,
      "start": 45.146,
      "duration": 0.5473,
      "velocity": 106,
      "chip": "ym2612"
    },
    {
      "channel": 3,
      "note": 50,
      "start": 45.1504,
      "duration": 0.0591,
      "velocity": 117,
      "chip": "ym2612"
    },
    {
      "channel": 3,
      "note": 71,
      "start": 45.2303,
      "duration": 0.0805,
      "velocity": 127,
      "chip": "ym2612"
    },
    {
      "channel": 0,
      "note": 50,
      "start": 45.3149,
      "duration": 0.0779,
      "velocity": 101,
      "chip": "ym2612"
    },
    {
      "channel": 3,
      "note": 50,
      "start": 45.3193,
      "duration": 0.0742,
      "velocity": 117,
      "chip": "ym2612"
    },
    {
      "channel": 0,
      "note": 50,
      "start": 45.413,
      "duration": 0.1805,
      "velocity": 101,
      "chip": "ym2612"
    },
    {
      "channel": 3,
      "note": 74,
      "start": 45.4172,
      "duration": 0.1756,
      "velocity": 127,
      "chip": "ym2612"
    },
    {
      "channel": 0,
      "note": 71,
      "start": 45.6149,
      "duration": 0.0821,
      "velocity": 127,
      "chip": "ym2612"
    },
    {
      "channel": 1,
      "note": 50,
      "start": 45.6191,
      "duration": 0.0765,
      "velocity": 101,
      "chip": "ym2612"
    },
    {
      "channel": 3,
      "note": 81,
      "start": 45.6235,
      "duration": 0.0529,
      "velocity": 106,
      "chip": "ym2612"
    },
    {
      "channel": 4,
      "note": 50,
      "start": 45.6304,
      "duration": 0.064,
      "velocity": 117,
      "chip": "ym2612"
    },
    {
      "channel": 0,
      "note": 50,
      "start": 45.7031,
      "duration": 0.0728,
      "velocity": 117,
      "chip": "ym2612"
    },
    {
      "channel": 1,
      "note": 55,
      "start": 45.7074,
      "duration": 0.1688,
      "velocity": 101,
      "chip": "ym2612"
    },
    {
      "channel": 2,
      "note": 82,
      "start": 45.7119,
      "duration": 0.0478,
      "velocity": 106,
      "chip": "ym2612"
    },
    {
      "channel": 3,
      "note": 82,
      "start": 45.721,
      "duration": 0.2398,
      "velocity": 106,
      "chip": "ym2612"
    },
    {
      "channel": 0,
      "note": 71,
      "start": 45.7981,
      "duration": 0.0791,
      "velocity": 127,
      "chip": "ym2612"
    },
    {
      "channel": 0,
      "note": 55,
      "start": 45.8976,
      "duration": 0.0805,
      "velocity": 101,
      "chip": "ym2612"
    },
    {
      "channel": 1,
      "note": 50,
      "start": 45.9021,
      "duration": 0.0751,
      "velocity": 117,
      "chip": "ym2612"
    },
    {
      "channel": 2,
      "note": 82,
      "start": 45.9063,
      "duration": 0.0201,
      "velocity": 106,
      "chip": "ym2612"
    },
    {
      "channel": 0,
      "note": 74,
      "start": 45.9826,
      "duration": 0.178,
      "velocity": 127,
      "chip": "ym2612"
    },
    {
      "channel": 1,
      "note": 55,
      "start": 45.9868,
      "duration": 0.1744,
      "velocity": 101,
      "chip": "ym2612"
    },
    {
      "channel": 2,
      "note": 82,
      "start": 45.9912,
      "duration": 0.0518,
      "velocity": 106,
      "chip": "ym2612"
    },
    {
      "channel": 3,
      "note": 79,
      "start": 46.0005,
      "duration": 0.2438,
      "velocity": 106,
      "chip": "ym2612"
    },
    {
      "channel": 2,
      "note": 84,
      "start": 46.081,
      "duration": 0.062,
      "velocity": 106,
      "chip": "ym2612"
    },
    {
      "channel": 0,
      "note": 71,
      "start": 46.1803,
      "duration": 0.0815,
      "velocity": 127,
      "chip": "ym2612"
    },
    {
      "channel": 1,
      "note": 55,
      "start": 46.1846,
      "duration": 0.0779,
      "velocity": 101,
      "chip": "ym2612"
    },
    {
      "channel": 2,
      "note": 82,
      "start": 46.1889,
      "duration": 0.0573,
      "velocity": 106,
      "chip": "ym2612"
    },
    {
      "channel": 4,
      "note": 50,
      "start": 46.1958,
      "duration": 0.0649,
      "velocity": 117,
      "chip": "ym2612"
    },
    {
      "channel": 0,
      "note": 50,
      "start": 46.2797,
      "duration": 0.1798,
      "velocity": 101,
      "chip": "ym2612"
    },
    {
      "channel": 1,
      "note": 50,
      "start": 46.2844,
      "duration": 0.075,
      "velocity": 117,
      "chip": "ym2612"
    },
    {
      "channel": 2,
      "note": 81,
      "start": 46.2887,
      "duration": 0.2544,
      "velocity": 106,
      "chip": "ym2612"
    },
    {
      "channel": 3,
      "note": 81,
      "start": 46.298,
      "duration": 0.5466,
      "velocity": 106,
      "chip": "ym2612"
    },
    {
      "channel": 1,
      "note": 71,
      "start": 46.3641,
      "duration": 0.0804,
      "velocity": 127,
      "chip": "ym2612"
    },
    {
      "channel": 0,
      "note": 50,
      "start": 46.4636,
      "duration": 0.0809,
      "velocity": 101,
      "chip": "ym2612"
    },
    {
      "channel": 1,
      "note": 50,
      "start": 46.4679,
      "duration": 0.0758,
      "velocity": 117,
      "chip": "ym2612"
    },
    {
      "channel": 0,
      "note": 50,
      "start": 46.563,
      "duration": 0.1798,
      "velocity": 101,
      "chip": "ym2612"
    },
    {
      "channel": 1,
      "note": 81,
      "start": 46.5673,
      "duration": 0.0758,
      "velocity": 106,
      "chip": "ym2612"
    },
    {
      "channel": 2,
      "note": 74,
      "start": 46.5739,
      "duration": 0.1698,
      "velocity": 127,
      "chip": "ym2612"
    },
    {
      "channel": 1,
      "note": 82,
      "start": 46.6483,
      "duration": 0.078,
      "velocity": 106,
      "chip": "ym2612"
    },
    {
      "channel": 0,
      "note": 71,
      "start": 46.7486,
      "duration": 0.078,
      "velocity": 127,
      "chip": "ym2612"
    },
    {
      "channel": 1,
      "note": 50,
      "start": 46.7529,
      "duration": 0.0772,
      "velocity": 101,
      "chip": "ym2612"
    },
    {
      "channel": 2,
      "note": 81,
      "start": 46.7571,
      "duration": 0.0723,
      "velocity": 106,
      "chip": "ym2612"
    },
    {
      "channel": 4,
      "note": 50,
      "start": 46.7641,
      "duration": 0.0634,
      "velocity": 117,
      "chip": "ym2612"
    },
    {
      "channel": 0,
      "note": 55,
      "start": 46.8489,
      "duration": 0.1773,
      "velocity": 101,
      "chip": "ym2612"
    },
    {
      "channel": 1,
      "note": 79,
      "start": 46.8532,
      "duration": 0.2565,
      "velocity": 106,
      "chip": "ym2612"
    },
    {
      "channel": 2,
      "note": 82,
      "start": 46.8627,
      "duration": 0.5471,
      "velocity": 106,
      "chip": "ym2612"
    },
    {
      "channel": 3,
      "note": 50,
      "start": 46.8671,
      "duration": 0.059,
      "velocity": 117,
      "chip": "ym2612"
    },
    {
      "channel": 3,
      "note": 71,
      "start": 46.947,
      "duration": 0.0805,
      "velocity": 127,
      "chip": "ym2612"
    },
    {
      "channel": 0,
      "note": 55,
      "start": 47.0316,
      "duration": 0.0796,
      "velocity": 101,
      "chip": "ym2612"
    },
    {
      "channel": 3,
      "note": 50,
      "start": 47.0359,
      "duration": 0.0745,
      "velocity": 117,
      "chip": "ym2612"
    },
    {
      "channel": 0,
      "note": 55,
      "start": 47.1297,
      "duration": 0.1798,
      "velocity": 101,
      "chip": "ym2612"
    },
    {
      "channel": 1,
      "note": 79,
      "start": 47.134,
      "duration": 0.0757,
      "velocity": 106,
      "chip": "ym2612"
    },
    {
      "channel": 3,
      "note": 74,
      "start": 47.1382,
      "duration": 0.1747,
      "velocity": 127,
      "chip": "ym2612"
    },
    {
      "channel": 1,
      "note": 81,
      "start": 47.2298,
      "duration": 0.0822,
      "velocity": 106,
      "chip": "ym2612"
    },
    {
      "channel": 0,
      "note": 55,
      "start": 47.3172,
      "duration": 0.0757,
      "velocity": 101,
      "chip": "ym2612"
    },
    {
      "channel": 1,
      "note": 71,
      "start": 47.3221,
      "duration": 0.0747,
      "velocity": 127,
      "chip": "ym2612"
    },
    {
      "channel": 3,
      "note": 79,
      "start": 47.3265,
      "duration": 0.0692,
      "velocity": 106,
      "chip": "ym2612"
    },
    {
      "channel": 4,
      "note": 50,
      "start": 47.3333,
      "duration": 0.0604,
      "velocity": 117,
      "chip": "ym2612"
    },
    {
      "channel": 0,
      "note": 50,
      "start": 47.4155,
      "duration": 0.1773,
      "velocity": 101,
      "chip": "ym2612"
    },
    {
      "channel": 1,
      "note": 77,
      "start": 47.4199,
      "duration": 0.2564,
      "velocity": 106,
      "chip": "ym2612"
    },
    {
      "channel": 2,
      "note": 81,
      "start": 47.4293,
      "duration": 0.5473,
      "velocity": 106,
      "chip": "ym2612"
    },
    {
      "channel": 3,
      "note": 50,
      "start": 47.4337,
      "duration": 0.0591,
      "velocity": 117,
      "chip": "ym2612"
    },
    {
      "channel": 3,
      "note": 71,
      "start": 47.5137,
      "duration": 0.0803,
      "velocity": 127,
      "chip": "ym2612"
    },
    {
      "channel": 0,
      "note": 50,
      "start": 47.613,
      "duration": 0.0807,
      "velocity": 101,
      "chip": "ym2612"
    },
    {
      "channel": 3,
      "note": 50,
      "start": 47.6174,
      "duration": 0.0755,
      "velocity": 117,
      "chip": "ym2612"
    },
    {
      "channel": 0,
      "note": 74,
      "start": 47.698,
      "duration": 0.178,
      "velocity": 127,
      "chip": "ym2612"
    },
    {
      "channel": 1,
      "note": 50,
      "start": 47.7022,
      "duration": 0.1765,
      "velocity": 101,
      "chip": "ym2612"
    },
    {
      "channel": 3,
      "note": 77,
      "start": 47.7064,
      "duration": 0.07,
      "velocity": 106,
      "chip": "ym2612"
    },
    {
      "channel": 3,
      "note": 79,
      "start": 47.7965,
      "duration": 0.0815,
      "velocity": 106,
      "chip": "ym2612"
    },
    {
      "channel": 0,
      "note": 71,
      "start": 47.8971,
      "duration": 0.0865,
      "velocity": 127,
      "chip": "ym2612"
    },
    {
      "channel": 1,
      "note": 50,
      "start": 47.9013,
      "duration": 0.0809,
      "velocity": 101,
      "chip": "ym2612"
    },
    {
      "channel": 3,
      "note": 77,
      "start": 47.9056,
      "duration": 0.0753,
      "velocity": 106,
      "chip": "ym2612"
    },
    {
      "channel": 4,
      "note": 50,
      "start": 47.9125,
      "duration": 0.0654,
      "velocity": 117,
      "chip": "ym2612"
    },
    {
      "channel": 0,
      "note": 55,
      "start": 47.9893,
      "duration": 0.1702,
      "velocity": 101,
      "chip": "ym2612"
    },
    {
      "channel": 1,
      "note": 74,
      "start": 47.9938,
      "duration": 0.0155,
      "velocity": 127,
      "chip": "ym2612"
    },
    {
      "channel": 2,
      "note": 76,
      "start": 47.9982,
      "duration": 0.0615,
      "velocity": 106,
      "chip": "ym2612"
    },
    {
      "channel": 3,
      "note": 79,
      "start": 48.0073,
      "duration": 0.2571,
      "velocity": 106,
      "chip": "ym2612"
    },
    {
      "channel": 1,
      "note": 74,
      "start": 48.0298,
      "duration": 0.0306,
      "velocity": 127,
      "chip": "ym2612"
    },
    {
      "channel": 1,
      "note": 74,
      "start": 48.0798,
      "duration": 0.0802,
      "velocity": 127,
      "chip": "ym2612"
    },
    {
      "channel": 0,
      "note": 55,
      "start": 48.1809,
      "duration": 0.0826,
      "velocity": 101,
      "chip": "ym2612"
    },
    {
      "channel": 1,
      "note": 76,
      "start": 48.1851,
      "duration": 0.0777,
      "velocity": 106,
      "chip": "ym2612"
    },
    {
      "channel": 2,
      "note": 74,
      "start": 48.1918,
      "duration": 0.069,
      "velocity": 127,
      "chip": "ym2612"
    },
    {
      "channel": 0,
      "note": 57,
      "start": 48.281,
      "duration": 0.1798,
      "velocity": 101,
      "chip": "ym2612"
    },
    {
      "channel": 1,
      "note": 81,
      "start": 48.2854,
      "duration": 0.0756,
      "velocity": 106,
      "chip": "ym2612"
    },
    {
      "channel": 2,
      "note": 74,
      "start": 48.2923,
      "duration": 0.0172,
      "velocity": 127,
      "chip": "ym2612"
    },
    {
      "channel": 3,
      "note": 76,
      "start": 48.299,
      "duration": 0.2608,
      "velocity": 106,
      "chip": "ym2612"
    },
    {
      "channel": 2,
      "note": 74,
      "start": 48.3137,
      "duration": 0.0291,
      "velocity": 127,
      "chip": "ym2612"
    },
    {
      "channel": 1,
      "note": 74,
      "start": 48.366,
      "duration": 0.0767,
      "velocity": 127,
      "chip": "ym2612"
    },
    {
      "channel": 0,
      "note": 57,
      "start": 48.4649,
      "duration": 0.0792,
      "velocity": 101,
      "chip": "ym2612"
    },
    {
      "channel": 1,
      "note": 74,
      "start": 48.4692,
      "duration": 0.0774,
      "velocity": 127,
      "chip": "ym2612"
    },
    {
      "channel": 2,
      "note": 81,
      "start": 48.4734,
      "duration": 0.0726,
      "velocity": 106,
      "chip": "ym2612"
    },
    {
      "channel": 0,
      "note": 79,
      "start": 48.5656,
      "duration": 0.027,
      "velocity": 127,
      "chip": "ym2612"
    },
    {
      "channel": 1,
      "note": 74,
      "start": 48.5699,
      "duration": 0.0742,
      "velocity": 101,
      "chip": "ym2612"
    },
    {
      "channel": 2,
      "note": 74,
      "start": 48.5743,
      "duration": 0.4522,
      "velocity": 106,
      "chip": "ym2612"
    },
    {
      "channel": 3,
      "note": 77,
      "start": 48.5836,
      "duration": 0.5429,
      "velocity": 106,
      "chip": "ym2612"
    },
    {
      "channel": 0,
      "note": 79,
      "start": 48.6131,
      "duration": 0.0317,
      "velocity": 127,
      "chip": "ym2612"
    },
    {
      "channel": 0,
      "note": 72,
      "start": 48.6489,
      "duration": 0.0785,
      "velocity": 101,
      "chip": "ym2612"
    },
    {
      "channel": 1,
      "note": 76,
      "start": 48.6531,
      "duration": 0.023,
      "velocity": 127,
      "chip": "ym2612"
    },
    {
      "channel": 1,
      "note": 76,
      "start": 48.6965,
      "duration": 0.0314,
      "velocity": 127,
      "chip": "ym2612"
    },
    {
      "channel": 0,
      "note": 69,
      "start": 48.7463,
      "duration": 0.0811,
      "velocity": 101,
      "chip": "ym2612"
    },
    {
      "channel": 1,
      "note": 72,
      "start": 48.7505,
      "duration": 0.0256,
      "velocity": 127,
      "chip": "ym2612"
    },
    {
      "channel": 1,
      "note": 72,
      "start": 48.7964,
      "duration": 0.0315,
      "velocity": 127,
      "chip": "ym2612"
    },
    {
      "channel": 0,
      "note": 67,
      "start": 48.8463,
      "duration": 0.0798,
      "velocity": 101,
      "chip": "ym2612"
    },
    {
      "channel": 1,
      "note": 69,
      "start": 48.8505,
      "duration": 0.0256,
      "velocity": 127,
      "chip": "ym2612"
    },
    {
      "channel": 1,
      "note": 69,
      "start": 48.8964,
      "duration": 0.0303,
      "velocity": 127,
      "chip": "ym2612"
    },
    {
      "channel": 0,
      "note": 65,
      "start": 48.9463,
      "duration": 0.0809,
      "velocity": 101,
      "chip": "ym2612"
    },
    {
      "channel": 1,
      "note": 65,
      "start": 48.9505,
      "duration": 0.0256,
      "velocity": 127,
      "chip": "ym2612"
    },
    {
      "channel": 1,
      "note": 65,
      "start": 48.9803,
      "duration": 0.0304,
      "velocity": 127,
      "chip": "ym2612"
    },
    {
      "channel": 0,
      "note": 62,
      "start": 49.0324,
      "duration": 0.0771,
      "velocity": 101,
      "chip": "ym2612"
    },
    {
      "channel": 1,
      "note": 62,
      "start": 49.0365,
      "duration": 0.0229,
      "velocity": 127,
      "chip": "ym2612"
    },
    {
      "channel": 1,
      "note": 62,
      "start": 49.0798,
      "duration": 0.0303,
      "velocity": 127,
      "chip": "ym2612"
    },
    {
      "channel": 0,
      "note": 60,
      "start": 49.1322,
      "duration": 0.2606,
      "velocity": 101,
      "chip": "ym2612"
    },
    {
      "channel": 1,
      "note": 50,
      "start": 49.1366,
      "duration": 0.0728,
      "velocity": 117,
      "chip": "ym2612"
    },
    {
      "channel": 2,
      "note": 60,
      "start": 49.1408,
      "duration": 0.0695,
      "velocity": 106,
      "chip": "ym2612"
    },
    {
      "channel": 1,
      "note": 71,
      "start": 49.2151,
      "duration": 0.0781,
      "velocity": 127,
      "chip": "ym2612"
    },
    {
      "channel": 2,
      "note": 60,
      "start": 49.2193,
      "duration": 0.0748,
      "velocity": 106,
      "chip": "ym2612"
    },
    {
      "channel": 1,
      "note": 60,
      "start": 49.3131,
      "duration": 0.0811,
      "velocity": 106,
      "chip": "ym2612"
    },
    {
      "channel": 2,
      "note": 50,
      "start": 49.3174,
      "duration": 0.076,
      "velocity": 117,
      "chip": "ym2612"
    },
    {
      "channel": 0,
      "note": 60,
      "start": 49.413,
      "duration": 0.2632,
      "velocity": 101,
      "chip": "ym2612"
    },
    {
      "channel": 1,
      "note": 60,
      "start": 49.4172,
      "duration": 0.0758,
      "velocity": 106,
      "chip": "ym2612"
    },
    {
      "channel": 2,
      "note": 74,
      "start": 49.4215,
      "duration": 0.0722,
      "velocity": 127,
      "chip": "ym2612"
    },
    {
      "channel": 3,
      "note": 50,
      "start": 49.4267,
      "duration": 0.0167,
      "velocity": 117,
      "chip": "ym2612"
    },
    {
      "channel": 1,
      "note": 60,
      "start": 49.4978,
      "duration": 0.0784,
      "velocity": 106,
      "chip": "ym2612"
    },
    {
      "channel": 1,
      "note": 71,
      "start": 49.597,
      "duration": 0.0819,
      "velocity": 127,
      "chip": "ym2612"
    },
    {
      "channel": 2,
      "note": 60,
      "start": 49.6012,
      "duration": 0.0766,
      "velocity": 106,
      "chip": "ym2612"
    },
    {
      "channel": 3,
      "note": 50,
      "start": 49.6056,
      "duration": 0.0713,
      "velocity": 117,
      "chip": "ym2612"
    },
    {
      "channel": 0,
      "note": 60,
      "start": 49.6963,
      "duration": 0.2632,
      "velocity": 101,
      "chip": "ym2612"
    },
    {
      "channel": 1,
      "note": 60,
      "start": 49.7005,
      "duration": 0.0758,
      "velocity": 106,
      "chip": "ym2612"
    },
    {
      "channel": 2,
      "note": 50,
      "start": 49.7048,
      "duration": 0.072,
      "velocity": 117,
      "chip": "ym2612"
    },
    {
      "channel": 1,
      "note": 60,
      "start": 49.7964,
      "duration": 0.08,
      "velocity": 106,
      "chip": "ym2612"
    },
    {
      "channel": 2,
      "note": 71,
      "start": 49.8011,
      "duration": 0.0765,
      "velocity": 127,
      "chip": "ym2612"
    },
    {
      "channel": 1,
      "note": 60,
      "start": 49.8818,
      "duration": 0.0791,
      "velocity": 106,
      "chip": "ym2612"
    },
    {
      "channel": 2,
      "note": 50,
      "start": 49.8862,
      "duration": 0.0739,
      "velocity": 117,
      "chip": "ym2612"
    },
    {
      "channel": 0,
      "note": 60,
      "start": 49.9797,
      "duration": 0.2631,
      "velocity": 101,
      "chip": "ym2612"
    },
    {
      "channel": 1,
      "note": 60,
      "start": 49.984,
      "duration": 0.0756,
      "velocity": 106,
      "chip": "ym2612"
    },
    {
      "channel": 2,
      "note": 74,
      "start": 49.9882,
      "duration": 0.0721,
      "velocity": 127,
      "chip": "ym2612"
    },
    {
      "channel": 3,
      "note": 50,
      "start": 49.9934,
      "duration": 0.0179,
      "velocity": 117,
      "chip": "ym2612"
    },
    {
      "channel": 1,
      "note": 60,
      "start": 50.0797,
      "duration": 0.08,
      "velocity": 106,
      "chip": "ym2612"
    },
    {
      "channel": 1,
      "note": 71,
      "start": 50.1645,
      "duration": 0.081,
      "velocity": 127,
      "chip": "ym2612"
    },
    {
      "channel": 2,
      "note": 50,
      "start": 50.169,
      "duration": 0.0755,
      "velocity": 117,
      "chip": "ym2612"
    },
    {
      "channel": 3,
      "note": 60,
      "start": 50.1731,
      "duration": 0.0707,
      "velocity": 106,
      "chip": "ym2612"
    },
    {
      "channel": 0,
      "note": 60,
      "start": 50.263,
      "duration": 0.2631,
      "velocity": 101,
      "chip": "ym2612"
    },
    {
      "channel": 1,
      "note": 50,
      "start": 50.2674,
      "duration": 0.0753,
      "velocity": 117,
      "chip": "ym2612"
    },
    {
      "channel": 2,
      "note": 60,
      "start": 50.2716,
      "duration": 0.072,
      "velocity": 106,
      "chip": "ym2612"
    },
    {
      "channel": 1,
      "note": 71,
      "start": 50.3636,
      "duration": 0.0797,
      "velocity": 127,
      "chip": "ym2612"
    },
    {
      "channel": 2,
      "note": 60,
      "start": 50.3678,
      "duration": 0.0763,
      "velocity": 106,
      "chip": "ym2612"
    },
    {
      "channel": 1,
      "note": 60,
      "start": 50.4631,
      "duration": 0.0807,
      "velocity": 106,
      "chip": "ym2612"
    },
    {
      "channel": 2,
      "note": 50,
      "start": 50.4674,
      "duration": 0.0754,
      "velocity": 117,
      "chip": "ym2612"
    },
    {
      "channel": 0,
      "note": 60,
      "start": 50.548,
      "duration": 0.1781,
      "velocity": 101,
      "chip": "ym2612"
    },
    {
      "channel": 1,
      "note": 60,
      "start": 50.5523,
      "duration": 0.074,
      "velocity": 106,
      "chip": "ym2612"
    },
    {
      "channel": 2,
      "note": 74,
      "start": 50.5565,
      "duration": 0.0704,
      "velocity": 127,
      "chip": "ym2612"
    },
    {
      "channel": 3,
      "note": 50,
      "start": 50.5618,
      "duration": 0.015,
      "velocity": 117,
      "chip": "ym2612"
    },
    {
      "channel": 1,
      "note": 60,
      "start": 50.6464,
      "duration": 0.0805,
      "velocity": 106,
      "chip": "ym2612"
    },
    {
      "channel": 0,
      "note": 71,
      "start": 50.7482,
      "duration": 0.0783,
      "velocity": 127,
      "chip": "ym2612"
    },
    {
      "channel": 1,
      "note": 62,
      "start": 50.7524,
      "duration": 0.3597,
      "velocity": 101,
      "chip": "ym2612"
    },
    {
      "channel": 2,
      "note": 50,
      "start": 50.7568,
      "duration": 0.0703,
      "velocity": 117,
      "chip": "ym2612"
    },
    {
      "channel": 3,
      "note": 62,
      "start": 50.7611,
      "duration": 0.3498,
      "velocity": 106,
      "chip": "ym2612"
    },
    {
      "channel": 0,
      "note": 50,
      "start": 51.0312,
      "duration": 0.0802,
      "velocity": 117,
      "chip": "ym2612"
    },
    {
      "channel": 0,
      "note": 65,
      "start": 51.1296,
      "duration": 0.2644,
      "velocity": 101,
      "chip": "ym2612"
    },
    {
      "channel": 1,
      "note": 74,
      "start": 51.134,
      "duration": 0.0767,
      "velocity": 127,
      "chip": "ym2612"
    },
    {
      "channel": 2,
      "note": 65,
      "start": 51.1382,
      "duration": 0.0734,
      "velocity": 106,
      "chip": "ym2612"
    },
    {
      "channel": 3,
      "note": 50,
      "start": 51.1434,
      "duration": 0.0167,
      "velocity": 117,
      "chip": "ym2612"
    },
    {
      "channel": 1,
      "note": 65,
      "start": 51.2157,
      "duration": 0.0784,
      "velocity": 106,
      "chip": "ym2612"
    },
    {
      "channel": 1,
      "note": 50,
      "start": 51.3134,
      "duration": 0.0835,
      "velocity": 117,
      "chip": "ym2612"
    },
    {
      "channel": 2,
      "note": 71,
      "start": 51.3181,
      "duration": 0.0782,
      "velocity": 127,
      "chip": "ym2612"
    },
    {
      "channel": 3,
      "note": 65,
      "start": 51.3223,
      "duration": 0.0728,
      "velocity": 106,
      "chip": "ym2612"
    },
    {
      "channel": 0,
      "note": 62,
      "start": 51.413,
      "duration": 0.2632,
      "velocity": 101,
      "chip": "ym2612"
    },
    {
      "channel": 1,
      "note": 62,
      "start": 51.4172,
      "duration": 0.0759,
      "velocity": 106,
      "chip": "ym2612"
    },
    {
      "channel": 2,
      "note": 50,
      "start": 51.4216,
      "duration": 0.0722,
      "velocity": 117,
      "chip": "ym2612"
    },
    {
      "channel": 1,
      "note": 71,
      "start": 51.4985,
      "duration": 0.0793,
      "velocity": 127,
      "chip": "ym2612"
    },
    {
      "channel": 2,
      "note": 62,
      "start": 51.5026,
      "duration": 0.076,
      "velocity": 106,
      "chip": "ym2612"
    },
    {
      "channel": 1,
      "note": 62,
      "start": 51.5964,
      "duration": 0.0811,
      "velocity": 106,
      "chip": "ym2612"
    },
    {
      "channel": 2,
      "note": 50,
      "start": 51.6008,
      "duration": 0.076,
      "velocity": 117,
      "chip": "ym2612"
    },
    {
      "channel": 0,
      "note": 62,
      "start": 51.6963,
      "duration": 0.2632,
      "velocity": 101,
      "chip": "ym2612"
    },
    {
      "channel": 1,
      "note": 74,
      "start": 51.7006,
      "duration": 0.0754,
      "velocity": 127,
      "chip": "ym2612"
    },
    {
      "channel": 2,
      "note": 62,
      "start": 51.7048,
      "duration": 0.0721,
      "velocity": 106,
      "chip": "ym2612"
    },
    {
      "channel": 3,
      "note": 50,
      "start": 51.71,
      "duration": 0.0167,
      "velocity": 117,
      "chip": "ym2612"
    },
    {
      "channel": 1,
      "note": 62,
      "start": 51.7964,
      "duration": 0.08,
      "velocity": 106,
      "chip": "ym2612"
    },
    {
      "channel": 1,
      "note": 50,
      "start": 51.8809,
      "duration": 0.0814,
      "velocity": 117,
      "chip": "ym2612"
    },
    {
      "channel": 2,
      "note": 71,
      "start": 51.8856,
      "duration": 0.0761,
      "velocity": 127,
      "chip": "ym2612"
    },
    {
      "channel": 3,
      "note": 62,
      "start": 51.8898,
      "duration": 0.0708,
      "velocity": 106,
      "chip": "ym2612"
    },
    {
      "channel": 0,
      "note": 65,
      "start": 51.9796,
      "duration": 0.2632,
      "velocity": 101,
      "chip": "ym2612"
    },
    {
      "channel": 1,
      "note": 65,
      "start": 51.9838,
      "duration": 0.0758,
      "velocity": 106,
      "chip": "ym2612"
    },
    {
      "channel": 2,
      "note": 50,
      "start": 51.9882,
      "duration": 0.072,
      "velocity": 117,
      "chip": "ym2612"
    },
    {
      "channel": 1,
      "note": 71,
      "start": 52.0803,
      "duration": 0.0797,
      "velocity": 127,
      "chip": "ym2612"
    },
    {
      "channel": 2,
      "note": 65,
      "start": 52.0844,
      "duration": 0.0765,
      "velocity": 106,
      "chip": "ym2612"
    },
    {
      "channel": 1,
      "note": 65,
      "start": 52.1651,
      "duration": 0.0791,
      "velocity": 106,
      "chip": "ym2612"
    },
    {
      "channel": 2,
      "note": 50,
      "start": 52.1695,
      "duration": 0.0739,
      "velocity": 117,
      "chip": "ym2612"
    },
    {
      "channel": 0,
      "note": 62,
      "start": 52.263,
      "duration": 0.1798,
      "velocity": 101,
      "chip": "ym2612"
    },
    {
      "channel": 1,
      "note": 74,
      "start": 52.2673,
      "duration": 0.0754,
      "velocity": 127,
      "chip": "ym2612"
    },
    {
      "channel": 2,
      "note": 62,
      "start": 52.2715,
      "duration": 0.0721,
      "velocity": 106,
      "chip": "ym2612"
    },
    {
      "channel": 3,
      "note": 50,
      "start": 52.2767,
      "duration": 0.0167,
      "velocity": 117,
      "chip": "ym2612"
    },
    {
      "channel": 1,
      "note": 62,
      "start": 52.363,
      "duration": 0.0805,
      "velocity": 106,
      "chip": "ym2612"
    },
    {
      "channel": 0,
      "note": 60,
      "start": 52.463,
      "duration": 0.3632,
      "velocity": 101,
      "chip": "ym2612"
    },
    {
      "channel": 1,
      "note": 50,
      "start": 52.4675,
      "duration": 0.0752,
      "velocity": 117,
      "chip": "ym2612"
    },
    {
      "channel": 2,
      "note": 60,
      "start": 52.4717,
      "duration": 0.3564,
      "velocity": 106,
      "chip": "ym2612"
    },
    {
      "channel": 3,
      "note": 71,
      "start": 52.4766,
      "duration": 0.0674,
      "velocity": 127,
      "chip": "ym2612"
    },
    {
      "channel": 1,
      "note": 50,
      "start": 52.5483,
      "duration": 0.0777,
      "velocity": 117,
      "chip": "ym2612"
    },
    {
      "channel": 1,
      "note": 50,
      "start": 52.7466,
      "duration": 0.0804,
      "velocity": 117,
      "chip": "ym2612"
    },
    {
      "channel": 0,
      "note": 60,
      "start": 52.8323,
      "duration": 0.2604,
      "velocity": 101,
      "chip": "ym2612"
    },
    {
      "channel": 1,
      "note": 74,
      "start": 52.8366,
      "duration": 0.0728,
      "velocity": 127,
      "chip": "ym2612"
    },
    {
      "channel": 2,
      "note": 60,
      "start": 52.8408,
      "duration": 0.0695,
      "velocity": 106,
      "chip": "ym2612"
    },
    {
      "channel": 3,
      "note": 50,
      "start": 52.8461,
      "duration": 0.0153,
      "velocity": 117,
      "chip": "ym2612"
    },
    {
      "channel": 1,
      "note": 60,
      "start": 52.9297,
      "duration": 0.0799,
      "velocity": 106,
      "chip": "ym2612"
    },
    {
      "channel": 1,
      "note": 50,
      "start": 53.03,
      "duration": 0.0814,
      "velocity": 117,
      "chip": "ym2612"
    },
    {
      "channel": 2,
      "note": 71,
      "start": 53.0347,
      "duration": 0.0761,
      "velocity": 127,
      "chip": "ym2612"
    },
    {
      "channel": 3,
      "note": 60,
      "start": 53.0389,
      "duration": 0.0708,
      "velocity": 106,
      "chip": "ym2612"
    },
    {
      "channel": 0,
      "note": 60,
      "start": 53.1309,
      "duration": 0.262,
      "velocity": 101,
      "chip": "ym2612"
    },
    {
      "channel": 1,
      "note": 60,
      "start": 53.1351,
      "duration": 0.0747,
      "velocity": 106,
      "chip": "ym2612"
    },
    {
      "channel": 2,
      "note": 50,
      "start": 53.1394,
      "duration": 0.071,
      "velocity": 117,
      "chip": "ym2612"
    },
    {
      "channel": 1,
      "note": 60,
      "start": 53.2146,
      "duration": 0.0783,
      "velocity": 106,
      "chip": "ym2612"
    },
    {
      "channel": 2,
      "note": 71,
      "start": 53.2193,
      "duration": 0.0748,
      "velocity": 127,
      "chip": "ym2612"
    },
    {
      "channel": 1,
      "note": 60,
      "start": 53.3142,
      "duration": 0.08,
      "velocity": 106,
      "chip": "ym2612"
    },
    {
      "channel": 2,
      "note": 50,
      "start": 53.3186,
      "duration": 0.0749,
      "velocity": 117,
      "chip": "ym2612"
    },
    {
      "channel": 0,
      "note": 60,
      "start": 53.4142,
      "duration": 0.2632,
      "velocity": 101,
      "chip": "ym2612"
    },
    {
      "channel": 1,
      "note": 60,
      "start": 53.4185,
      "duration": 0.0757,
      "velocity": 106,
      "chip": "ym2612"
    },
    {
      "channel": 2,
      "note": 74,
      "start": 53.4227,
      "duration": 0.0722,
      "velocity": 127,
      "chip": "ym2612"
    },
    {
      "channel": 3,
      "note": 50,
      "start": 53.428,
      "duration": 0.0155,
      "velocity": 117,
      "chip": "ym2612"
    },
    {
      "channel": 1,
      "note": 60,
      "start": 53.499,
      "duration": 0.0772,
      "velocity": 106,
      "chip": "ym2612"
    },
    {
      "channel": 1,
      "note": 50,
      "start": 53.598,
      "duration": 0.0821,
      "velocity": 117,
      "chip": "ym2612"
    },
    {
      "channel": 2,
      "note": 60,
      "start": 53.6022,
      "duration": 0.0774,
      "velocity": 106,
      "chip": "ym2612"
    },
    {
      "channel": 3,
      "note": 71,
      "start": 53.6069,
      "duration": 0.0718,
      "velocity": 127,
      "chip": "ym2612"
    },
    {
      "channel": 0,
      "note": 60,
      "start": 53.6963,
      "duration": 0.2644,
      "velocity": 101,
      "chip": "ym2612"
    },
    {
      "channel": 1,
      "note": 60,
      "start": 53.7005,
      "duration": 0.0771,
      "velocity": 106,
      "chip": "ym2612"
    },
    {
      "channel": 2,
      "note": 50,
      "start": 53.7049,
      "duration": 0.0732,
      "velocity": 117,
      "chip": "ym2612"
    },
    {
      "channel": 1,
      "note": 71,
      "start": 53.7969,
      "duration": 0.0797,
      "velocity": 127,
      "chip": "ym2612"
    },
    {
      "channel": 2,
      "note": 60,
      "start": 53.8011,
      "duration": 0.0765,
      "velocity": 106,
      "chip": "ym2612"
    },
    {
      "channel": 1,
      "note": 60,
      "start": 53.8818,
      "duration": 0.0803,
      "velocity": 106,
      "chip": "ym2612"
    },
    {
      "channel": 2,
      "note": 50,
      "start": 53.8862,
      "duration": 0.0751,
      "velocity": 117,
      "chip": "ym2612"
    },
    {
      "channel": 0,
      "note": 60,
      "start": 53.9798,
      "duration": 0.0798,
      "velocity": 106,
      "chip": "ym2612"
    },
    {
      "channel": 1,
      "note": 74,
      "start": 53.9841,
      "duration": 0.076,
      "velocity": 127,
      "chip": "ym2612"
    },
    {
      "channel": 2,
      "note": 60,
      "start": 53.9882,
      "duration": 0.1715,
      "velocity": 101,
      "chip": "ym2612"
    },
    {
      "channel": 3,
      "note": 50,
      "start": 53.9934,
      "duration": 0.0167,
      "velocity": 117,
      "chip": "ym2612"
    },
    {
      "channel": 0,
      "note": 60,
      "start": 54.0797,
      "duration": 0.0809,
      "velocity": 106,
      "chip": "ym2612"
    },
    {
      "channel": 0,
      "note": 50,
      "start": 54.1652,
      "duration": 0.0774,
      "velocity": 117,
      "chip": "ym2612"
    },
    {
      "channel": 1,
      "note": 71,
      "start": 54.17,
      "duration": 0.0737,
      "velocity": 127,
      "chip": "ym2612"
    },
    {
      "channel": 2,
      "note": 62,
      "start": 54.174,
      "duration": 0.353,
      "velocity": 101,
      "chip": "ym2612"
    },
    {
      "channel": 3,
      "note": 62,
      "start": 54.1784,
      "duration": 0.348,
      "velocity": 106,
      "chip": "ym2612"
    },
    {
      "channel": 0,
      "note": 50,
      "start": 54.4633,
      "duration": 0.0793,
      "velocity": 117,
      "chip": "ym2612"
    },
    {
      "channel": 0,
      "note": 74,
      "start": 54.5469,
      "duration": 0.0791,
      "velocity": 127,
      "chip": "ym2612"
    },
    {
      "channel": 1,
      "note": 67,
      "start": 54.5513,
      "duration": 0.0755,
      "velocity": 106,
      "chip": "ym2612"
    },
    {
      "channel": 2,
      "note": 67,
      "start": 54.5554,
      "duration": 0.2541,
      "velocity": 101,
      "chip": "ym2612"
    },
    {
      "channel": 3,
      "note": 50,
      "start": 54.5606,
      "duration": 0.0162,
      "velocity": 117,
      "chip": "ym2612"
    },
    {
      "channel": 0,
      "note": 67,
      "start": 54.6464,
      "duration": 0.0798,
      "velocity": 106,
      "chip": "ym2612"
    },
    {
      "channel": 0,
      "note": 67,
      "start": 54.7464,
      "duration": 0.0821,
      "velocity": 106,
      "chip": "ym2612"
    },
    {
      "channel": 1,
      "note": 71,
      "start": 54.7512,
      "duration": 0.0763,
      "velocity": 127,
      "chip": "ym2612"
    },
    {
      "channel": 3,
      "note": 50,
      "start": 54.7556,
      "duration": 0.0706,
      "velocity": 117,
      "chip": "ym2612"
    },
    {
      "channel": 0,
      "note": 50,
      "start": 54.8329,
      "duration": 0.0763,
      "velocity": 117,
      "chip": "ym2612"
    },
    {
      "channel": 1,
      "note": 62,
      "start": 54.8371,
      "duration": 0.073,
      "velocity": 106,
      "chip": "ym2612"
    },
    {
      "channel": 2,
      "note": 62,
      "start": 54.8412,
      "duration": 0.2516,
      "velocity": 101,
      "chip": "ym2612"
    },
    {
      "channel": 0,
      "note": 71,
      "start": 54.9302,
      "duration": 0.0796,
      "velocity": 127,
      "chip": "ym2612"
    },
    {
      "channel": 1,
      "note": 62,
      "start": 54.9344,
      "duration": 0.0762,
      "velocity": 106,
      "chip": "ym2612"
    },
    {
      "channel": 0,
      "note": 62,
      "start": 55.0298,
      "duration": 0.0803,
      "velocity": 106,
      "chip": "ym2612"
    },
    {
      "channel": 1,
      "note": 50,
      "start": 55.0341,
      "duration": 0.0752,
      "velocity": 117,
      "chip": "ym2612"
    },
    {
      "channel": 0,
      "note": 60,
      "start": 55.1297,
      "duration": 0.2632,
      "velocity": 101,
      "chip": "ym2612"
    },
    {
      "channel": 1,
      "note": 60,
      "start": 55.134,
      "duration": 0.0757,
      "velocity": 106,
      "chip": "ym2612"
    },
    {
      "channel": 2,
      "note": 74,
      "start": 55.1382,
      "duration": 0.0722,
      "velocity": 127,
      "chip": "ym2612"
    },
    {
      "channel": 3,
      "note": 50,
      "start": 55.1434,
      "duration": 0.0167,
      "velocity": 117,
      "chip": "ym2612"
    },
    {
      "channel": 1,
      "note": 60,
      "start": 55.2145,
      "duration": 0.0784,
      "velocity": 106,
      "chip": "ym2612"
    },
    {
      "channel": 1,
      "note": 71,
      "start": 55.3137,
      "duration": 0.0819,
      "velocity": 127,
      "chip": "ym2612"
    },
    {
      "channel": 2,
      "note": 60,
      "start": 55.3179,
      "duration": 0.0766,
      "velocity": 106,
      "chip": "ym2612"
    },
    {
      "channel": 3,
      "note": 50,
      "start": 55.3223,
      "duration": 0.0713,
      "velocity": 117,
      "chip": "ym2612"
    },
    {
      "channel": 0,
      "note": 50,
      "start": 55.4133,
      "duration": 0.0794,
      "velocity": 117,
      "chip": "ym2612"
    },
    {
      "channel": 1,
      "note": 62,
      "start": 55.4174,
      "duration": 0.2588,
      "velocity": 101,
      "chip": "ym2612"
    },
    {
      "channel": 2,
      "note": 62,
      "start": 55.4216,
      "duration": 0.0721,
      "velocity": 106,
      "chip": "ym2612"
    },
    {
      "channel": 0,
      "note": 71,
      "start": 55.4983,
      "duration": 0.0782,
      "velocity": 127,
      "chip": "ym2612"
    },
    {
      "channel": 2,
      "note": 62,
      "start": 55.5025,
      "duration": 0.0748,
      "velocity": 106,
      "chip": "ym2612"
    },
    {
      "channel": 0,
      "note": 62,
      "start": 55.5964,
      "duration": 0.0812,
      "velocity": 106,
      "chip": "ym2612"
    },
    {
      "channel": 2,
      "note": 50,
      "start": 55.6008,
      "duration": 0.0761,
      "velocity": 117,
      "chip": "ym2612"
    },
    {
      "channel": 0,
      "note": 60,
      "start": 55.6976,
      "duration": 0.1798,
      "velocity": 101,
      "chip": "ym2612"
    },
    {
      "channel": 1,
      "note": 60,
      "start": 55.7018,
      "duration": 0.0744,
      "velocity": 106,
      "chip": "ym2612"
    },
    {
      "channel": 2,
      "note": 74,
      "start": 55.7061,
      "duration": 0.0709,
      "velocity": 127,
      "chip": "ym2612"
    },
    {
      "channel": 3,
      "note": 50,
      "start": 55.7113,
      "duration": 0.0155,
      "velocity": 117,
      "chip": "ym2612"
    },
    {
      "channel": 1,
      "note": 60,
      "start": 55.7976,
      "duration": 0.0807,
      "velocity": 106,
      "chip": "ym2612"
    },
    {
      "channel": 0,
      "note": 50,
      "start": 55.8829,
      "duration": 0.0763,
      "velocity": 117,
      "chip": "ym2612"
    },
    {
      "channel": 1,
      "note": 58,
      "start": 55.8871,
      "duration": 0.3583,
      "velocity": 101,
      "chip": "ym2612"
    },
    {
      "channel": 2,
      "note": 71,
      "start": 55.892,
      "duration": 0.0684,
      "velocity": 127,
      "chip": "ym2612"
    },
    {
      "channel": 3,
      "note": 58,
      "start": 55.8962,
      "duration": 0.348,
      "velocity": 106,
      "chip": "ym2612"
    },
    {
      "channel": 0,
      "note": 50,
      "start": 55.9812,
      "duration": 0.0793,
      "velocity": 117,
      "chip": "ym2612"
    },
    {
      "channel": 0,
      "note": 50,
      "start": 56.1645,
      "duration": 0.0803,
      "velocity": 117,
      "chip": "ym2612"
    },
    {
      "channel": 0,
      "note": 58,
      "start": 56.263,
      "duration": 0.2643,
      "velocity": 101,
      "chip": "ym2612"
    },
    {
      "channel": 1,
      "note": 58,
      "start": 56.2673,
      "duration": 0.0769,
      "velocity": 106,
      "chip": "ym2612"
    },
    {
      "channel": 2,
      "note": 74,
      "start": 56.2716,
      "duration": 0.0732,
      "velocity": 127,
      "chip": "ym2612"
    },
    {
      "channel": 3,
      "note": 50,
      "start": 56.2768,
      "duration": 0.0167,
      "velocity": 117,
      "chip": "ym2612"
    },
    {
      "channel": 1,
      "note": 58,
      "start": 56.363,
      "duration": 0.0799,
      "velocity": 106,
      "chip": "ym2612"
    },
    {
      "channel": 1,
      "note": 71,
      "start": 56.4637,
      "duration": 0.0816,
      "velocity": 127,
      "chip": "ym2612"
    },
    {
      "channel": 2,
      "note": 58,
      "start": 56.4679,
      "duration": 0.0761,
      "velocity": 106,
      "chip": "ym2612"
    },
    {
      "channel": 3,
      "note": 50,
      "start": 56.4723,
      "duration": 0.0706,
      "velocity": 117,
      "chip": "ym2612"
    },
    {
      "channel": 0,
      "note": 58,
      "start": 56.5495,
      "duration": 0.0768,
      "velocity": 106,
      "chip": "ym2612"
    },
    {
      "channel": 1,
      "note": 58,
      "start": 56.5536,
      "duration": 0.2559,
      "velocity": 101,
      "chip": "ym2612"
    },
    {
      "channel": 2,
      "note": 50,
      "start": 56.558,
      "duration": 0.0689,
      "velocity": 117,
      "chip": "ym2612"
    },
    {
      "channel": 0,
      "note": 58,
      "start": 56.6464,
      "duration": 0.0798,
      "velocity": 106,
      "chip": "ym2612"
    },
    {
      "channel": 2,
      "note": 71,
      "start": 56.6511,
      "duration": 0.0763,
      "velocity": 127,
      "chip": "ym2612"
    },
    {
      "channel": 0,
      "note": 58,
      "start": 56.7464,
      "duration": 0.0807,
      "velocity": 106,
      "chip": "ym2612"
    },
    {
      "channel": 2,
      "note": 50,
      "start": 56.7508,
      "duration": 0.0753,
      "velocity": 117,
      "chip": "ym2612"
    },
    {
      "channel": 0,
      "note": 58,
      "start": 56.8313,
      "duration": 0.2615,
      "velocity": 101,
      "chip": "ym2612"
    },
    {
      "channel": 1,
      "note": 58,
      "start": 56.8356,
      "duration": 0.074,
      "velocity": 106,
      "chip": "ym2612"
    },
    {
      "channel": 2,
      "note": 74,
      "start": 56.8398,
      "duration": 0.0704,
      "velocity": 127,
      "chip": "ym2612"
    },
    {
      "channel": 3,
      "note": 50,
      "start": 56.8451,
      "duration": 0.015,
      "velocity": 117,
      "chip": "ym2612"
    },
    {
      "channel": 1,
      "note": 58,
      "start": 56.9297,
      "duration": 0.0799,
      "velocity": 106,
      "chip": "ym2612"
    },
    {
      "channel": 1,
      "note": 71,
      "start": 57.0303,
      "duration": 0.0812,
      "velocity": 127,
      "chip": "ym2612"
    },
    {
      "channel": 2,
      "note": 58,
      "start": 57.0345,
      "duration": 0.0758,
      "velocity": 106,
      "chip": "ym2612"
    },
    {
      "channel": 3,
      "note": 50,
      "start": 57.0389,
      "duration": 0.0705,
      "velocity": 117,
      "chip": "ym2612"
    },
    {
      "channel": 0,
      "note": 58,
      "start": 57.1296,
      "duration": 0.2632,
      "velocity": 101,
      "chip": "ym2612"
    },
    {
      "channel": 1,
      "note": 50,
      "start": 57.1341,
      "duration": 0.0753,
      "velocity": 117,
      "chip": "ym2612"
    },
    {
      "channel": 2,
      "note": 58,
      "start": 57.1382,
      "duration": 0.0722,
      "velocity": 106,
      "chip": "ym2612"
    },
    {
      "channel": 1,
      "note": 58,
      "start": 57.2146,
      "duration": 0.0783,
      "velocity": 106,
      "chip": "ym2612"
    },
    {
      "channel": 2,
      "note": 71,
      "start": 57.2193,
      "duration": 0.0747,
      "velocity": 127,
      "chip": "ym2612"
    },
    {
      "channel": 1,
      "note": 58,
      "start": 57.3131,
      "duration": 0.0811,
      "velocity": 106,
      "chip": "ym2612"
    },
    {
      "channel": 2,
      "note": 50,
      "start": 57.3175,
      "duration": 0.0759,
      "velocity": 117,
      "chip": "ym2612"
    },
    {
      "channel": 0,
      "note": 74,
      "start": 57.4132,
      "duration": 0.0795,
      "velocity": 127,
      "chip": "ym2612"
    },
    {
      "channel": 1,
      "note": 58,
      "start": 57.4173,
      "duration": 0.1756,
      "velocity": 101,
      "chip": "ym2612"
    },
    {
      "channel": 2,
      "note": 58,
      "start": 57.4216,
      "duration": 0.0721,
      "velocity": 106,
      "chip": "ym2612"
    },
    {
      "channel": 3,
      "note": 50,
      "start": 57.4268,
      "duration": 0.0179,
      "velocity": 117,
      "chip": "ym2612"
    },
    {
      "channel": 0,
      "note": 58,
      "start": 57.4978,
      "duration": 0.0784,
      "velocity": 106,
      "chip": "ym2612"
    },
    {
      "channel": 0,
      "note": 71,
      "start": 57.5977,
      "duration": 0.0788,
      "velocity": 127,
      "chip": "ym2612"
    },
    {
      "channel": 1,
      "note": 60,
      "start": 57.602,
      "duration": 0.3589,
      "velocity": 106,
      "chip": "ym2612"
    },
    {
      "channel": 2,
      "note": 50,
      "start": 57.6064,
      "duration": 0.0707,
      "velocity": 117,
      "chip": "ym2612"
    },
    {
      "channel": 3,
      "note": 60,
      "start": 57.6107,
      "duration": 0.3489,
      "velocity": 101,
      "chip": "ym2612"
    },
    {
      "channel": 0,
      "note": 50,
      "start": 57.6966,
      "duration": 0.0793,
      "velocity": 117,
      "chip": "ym2612"
    },
    {
      "channel": 0,
      "note": 50,
      "start": 57.88,
      "duration": 0.0802,
      "velocity": 117,
      "chip": "ym2612"
    },
    {
      "channel": 0,
      "note": 60,
      "start": 57.9797,
      "duration": 0.2631,
      "velocity": 101,
      "chip": "ym2612"
    },
    {
      "channel": 1,
      "note": 60,
      "start": 57.984,
      "duration": 0.0757,
      "velocity": 106,
      "chip": "ym2612"
    },
    {
      "channel": 2,
      "note": 74,
      "start": 57.9882,
      "duration": 0.0721,
      "velocity": 127,
      "chip": "ym2612"
    },
    {
      "channel": 3,
      "note": 50,
      "start": 57.9934,
      "duration": 0.0167,
      "velocity": 117,
      "chip": "ym2612"
    },
    {
      "channel": 1,
      "note": 60,
      "start": 58.0809,
      "duration": 0.0788,
      "velocity": 106,
      "chip": "ym2612"
    },
    {
      "channel": 1,
      "note": 60,
      "start": 58.164,
      "duration": 0.0816,
      "velocity": 106,
      "chip": "ym2612"
    },
    {
      "channel": 2,
      "note": 50,
      "start": 58.1684,
      "duration": 0.0763,
      "velocity": 117,
      "chip": "ym2612"
    },
    {
      "channel": 3,
      "note": 71,
      "start": 58.1731,
      "duration": 0.0711,
      "velocity": 127,
      "chip": "ym2612"
    },
    {
      "channel": 0,
      "note": 50,
      "start": 58.2645,
      "duration": 0.0781,
      "velocity": 117,
      "chip": "ym2612"
    },
    {
      "channel": 1,
      "note": 60,
      "start": 58.2688,
      "duration": 0.0746,
      "velocity": 106,
      "chip": "ym2612"
    },
    {
      "channel": 2,
      "note": 60,
      "start": 58.2728,
      "duration": 0.2534,
      "velocity": 101,
      "chip": "ym2612"
    },
    {
      "channel": 0,
      "note": 60,
      "start": 58.3643,
      "duration": 0.0798,
      "velocity": 106,
      "chip": "ym2612"
    },
    {
      "channel": 1,
      "note": 71,
      "start": 58.369,
      "duration": 0.0761,
      "velocity": 127,
      "chip": "ym2612"
    },
    {
      "channel": 0,
      "note": 60,
      "start": 58.4631,
      "duration": 0.0819,
      "velocity": 106,
      "chip": "ym2612"
    },
    {
      "channel": 1,
      "note": 50,
      "start": 58.4674,
      "duration": 0.0765,
      "velocity": 117,
      "chip": "ym2612"
    },
    {
      "channel": 0,
      "note": 74,
      "start": 58.5493,
      "duration": 0.0779,
      "velocity": 127,
      "chip": "ym2612"
    },
    {
      "channel": 1,
      "note": 60,
      "start": 58.5534,
      "duration": 0.2572,
      "velocity": 101,
      "chip": "ym2612"
    },
    {
      "channel": 2,
      "note": 60,
      "start": 58.5576,
      "duration": 0.0704,
      "velocity": 106,
      "chip": "ym2612"
    },
    {
      "channel": 3,
      "note": 50,
      "start": 58.5629,
      "duration": 0.0139,
      "velocity": 117,
      "chip": "ym2612"
    },
    {
      "channel": 0,
      "note": 60,
      "start": 58.6464,
      "duration": 0.0811,
      "velocity": 106,
      "chip": "ym2612"
    },
    {
      "channel": 0,
      "note": 71,
      "start": 58.7469,
      "duration": 0.0816,
      "velocity": 127,
      "chip": "ym2612"
    },
    {
      "channel": 2,
      "note": 60,
      "start": 58.7512,
      "duration": 0.0761,
      "velocity": 106,
      "chip": "ym2612"
    },
    {
      "channel": 3,
      "note": 50,
      "start": 58.7556,
      "duration": 0.0706,
      "velocity": 117,
      "chip": "ym2612"
    },
    {
      "channel": 0,
      "note": 50,
      "start": 58.833,
      "duration": 0.0775,
      "velocity": 117,
      "chip": "ym2612"
    },
    {
      "channel": 1,
      "note": 60,
      "start": 58.8372,
      "duration": 0.0741,
      "velocity": 106,
      "chip": "ym2612"
    },
    {
      "channel": 2,
      "note": 60,
      "start": 58.8412,
      "duration": 0.2529,
      "velocity": 101,
      "chip": "ym2612"
    },
    {
      "channel": 0,
      "note": 71,
      "start": 58.9303,
      "duration": 0.0796,
      "velocity": 127,
      "chip": "ym2612"
    },
    {
      "channel": 1,
      "note": 60,
      "start": 58.9344,
      "duration": 0.0762,
      "velocity": 106,
      "chip": "ym2612"
    },
    {
      "channel": 0,
      "note": 60,
      "start": 59.0297,
      "duration": 0.0804,
      "velocity": 106,
      "chip": "ym2612"
    },
    {
      "channel": 1,
      "note": 50,
      "start": 59.0341,
      "duration": 0.0752,
      "velocity": 117,
      "chip": "ym2612"
    },
    {
      "channel": 0,
      "note": 74,
      "start": 59.1298,
      "duration": 0.0796,
      "velocity": 127,
      "chip": "ym2612"
    },
    {
      "channel": 1,
      "note": 60,
      "start": 59.134,
      "duration": 0.1755,
      "velocity": 101,
      "chip": "ym2612"
    },
    {
      "channel": 2,
      "note": 60,
      "start": 59.1382,
      "duration": 0.0722,
      "velocity": 106,
      "chip": "ym2612"
    },
    {
      "channel": 3,
      "note": 50,
      "start": 59.1434,
      "duration": 0.0167,
      "velocity": 117,
      "chip": "ym2612"
    },
    {
      "channel": 0,
      "note": 60,
      "start": 59.2144,
      "duration": 0.0784,
      "velocity": 106,
      "chip": "ym2612"
    },
    {
      "channel": 0,
      "note": 71,
      "start": 59.3144,
      "duration": 0.0788,
      "velocity": 127,
      "chip": "ym2612"
    },
    {
      "channel": 1,
      "note": 62,
      "start": 59.3185,
      "duration": 0.359,
      "velocity": 101,
      "chip": "ym2612"
    },
    {
      "channel": 2,
      "note": 62,
      "start": 59.3228,
      "duration": 0.3536,
      "velocity": 106,
      "chip": "ym2612"
    },
    {
      "channel": 3,
      "note": 50,
      "start": 59.3273,
      "duration": 0.0664,
      "velocity": 117,
      "chip": "ym2612"
    },
    {
      "channel": 0,
      "note": 50,
      "start": 59.4132,
      "duration": 0.0794,
      "velocity": 117,
      "chip": "ym2612"
    },
    {
      "channel": 0,
      "note": 50,
      "start": 59.5966,
      "duration": 0.0803,
      "velocity": 117,
      "chip": "ym2612"
    },
    {
      "channel": 0,
      "note": 74,
      "start": 59.6965,
      "duration": 0.0795,
      "velocity": 127,
      "chip": "ym2612"
    },
    {
      "channel": 1,
      "note": 62,
      "start": 59.7008,
      "duration": 0.076,
      "velocity": 106,
      "chip": "ym2612"
    },
    {
      "channel": 2,
      "note": 62,
      "start": 59.7048,
      "duration": 0.2548,
      "velocity": 101,
      "chip": "ym2612"
    },
    {
      "channel": 3,
      "note": 50,
      "start": 59.7101,
      "duration": 0.0179,
      "velocity": 117,
      "chip": "ym2612"
    },
    {
      "channel": 0,
      "note": 62,
      "start": 59.7964,
      "duration": 0.08,
      "velocity": 106,
      "chip": "ym2612"
    },
    {
      "channel": 0,
      "note": 62,
      "start": 59.8806,
      "duration": 0.0817,
      "velocity": 106,
      "chip": "ym2612"
    },
    {
      "channel": 1,
      "note": 50,
      "start": 59.885,
      "duration": 0.0765,
      "velocity": 117,
      "chip": "ym2612"
    },
    {
      "channel": 3,
      "note": 71,
      "start": 59.8897,
      "duration": 0.0712,
      "velocity": 127,
      "chip": "ym2612"
    },
    {
      "channel": 0,
      "note": 50,
      "start": 59.98,
      "duration": 0.0793,
      "velocity": 117,
      "chip": "ym2612"
    },
    {
      "channel": 1,
      "note": 62,
      "start": 59.9841,
      "duration": 0.2588,
      "velocity": 101,
      "chip": "ym2612"
    },
    {
      "channel": 2,
      "note": 62,
      "start": 59.9882,
      "duration": 0.0719,
      "velocity": 106,
      "chip": "ym2612"
    },
    {
      "channel": 0,
      "note": 71,
      "start": 60.0803,
      "duration": 0.0797,
      "velocity": 127,
      "chip": "ym2612"
    },
    {
      "channel": 2,
      "note": 62,
      "start": 60.0844,
      "duration": 0.0765,
      "velocity": 106,
      "chip": "ym2612"
    },
    {
      "channel": 0,
      "note": 62,
      "start": 60.1651,
      "duration": 0.0791,
      "velocity": 106,
      "chip": "ym2612"
    },
    {
      "channel": 2,
      "note": 50,
      "start": 60.1695,
      "duration": 0.074,
      "velocity": 117,
      "chip": "ym2612"
    },
    {
      "channel": 0,
      "note": 62,
      "start": 60.263,
      "duration": 0.2631,
      "velocity": 101,
      "chip": "ym2612"
    },
    {
      "channel": 1,
      "note": 62,
      "start": 60.2672,
      "duration": 0.0757,
      "velocity": 106,
      "chip": "ym2612"
    },
    {
      "channel": 2,
      "note": 74,
      "start": 60.2715,
      "duration": 0.0721,
      "velocity": 127,
      "chip": "ym2612"
    },
    {
      "channel": 3,
      "note": 50,
      "start": 60.2768,
      "duration": 0.0167,
      "velocity": 117,
      "chip": "ym2612"
    },
    {
      "channel": 1,
      "note": 62,
      "start": 60.363,
      "duration": 0.0799,
      "velocity": 106,
      "chip": "ym2612"
    },
    {
      "channel": 1,
      "note": 71,
      "start": 60.4648,
      "duration": 0.0804,
      "velocity": 127,
      "chip": "ym2612"
    },
    {
      "channel": 2,
      "note": 62,
      "start": 60.4691,
      "duration": 0.0749,
      "velocity": 106,
      "chip": "ym2612"
    },
    {
      "channel": 3,
      "note": 50,
      "start": 60.4735,
      "duration": 0.0694,
      "velocity": 117,
      "chip": "ym2612"
    },
    {
      "channel": 0,
      "note": 50,
      "start": 60.5497,
      "duration": 0.0763,
      "velocity": 117,
      "chip": "ym2612"
    },
    {
      "channel": 1,
      "note": 62,
      "start": 60.5538,
      "duration": 0.2557,
      "velocity": 101,
      "chip": "ym2612"
    },
    {
      "channel": 2,
      "note": 62,
      "start": 60.558,
      "duration": 0.0688,
      "velocity": 106,
      "chip": "ym2612"
    },
    {
      "channel": 0,
      "note": 62,
      "start": 60.6475,
      "duration": 0.0788,
      "velocity": 106,
      "chip": "ym2612"
    },
    {
      "channel": 2,
      "note": 71,
      "start": 60.6522,
      "duration": 0.0751,
      "velocity": 127,
      "chip": "ym2612"
    },
    {
      "channel": 0,
      "note": 62,
      "start": 60.7476,
      "duration": 0.0807,
      "velocity": 106,
      "chip": "ym2612"
    },
    {
      "channel": 2,
      "note": 50,
      "start": 60.752,
      "duration": 0.0753,
      "velocity": 117,
      "chip": "ym2612"
    },
    {
      "channel": 0,
      "note": 74,
      "start": 60.8327,
      "duration": 0.0766,
      "velocity": 127,
      "chip": "ym2612"
    },
    {
      "channel": 1,
      "note": 62,
      "start": 60.8368,
      "duration": 0.2559,
      "velocity": 101,
      "chip": "ym2612"
    },
    {
      "channel": 2,
      "note": 62,
      "start": 60.841,
      "duration": 0.0691,
      "velocity": 106,
      "chip": "ym2612"
    },
    {
      "channel": 3,
      "note": 50,
      "start": 60.8463,
      "duration": 0.0139,
      "velocity": 117,
      "chip": "ym2612"
    },
    {
      "channel": 0,
      "note": 62,
      "start": 60.931,
      "duration": 0.0798,
      "velocity": 106,
      "chip": "ym2612"
    },
    {
      "channel": 0,
      "note": 62,
      "start": 61.0298,
      "duration": 0.0828,
      "velocity": 106,
      "chip": "ym2612"
    },
    {
      "channel": 2,
      "note": 71,
      "start": 61.0345,
      "duration": 0.0773,
      "velocity": 127,
      "chip": "ym2612"
    },
    {
      "channel": 3,
      "note": 50,
      "start": 61.0389,
      "duration": 0.0717,
      "velocity": 117,
      "chip": "ym2612"
    },
    {
      "channel": 0,
      "note": 50,
      "start": 61.13,
      "duration": 0.0794,
      "velocity": 117,
      "chip": "ym2612"
    },
    {
      "channel": 1,
      "note": 62,
      "start": 61.1342,
      "duration": 0.0761,
      "velocity": 106,
      "chip": "ym2612"
    },
    {
      "channel": 2,
      "note": 62,
      "start": 61.1382,
      "duration": 0.2548,
      "velocity": 101,
      "chip": "ym2612"
    },
    {
      "channel": 0,
      "note": 62,
      "start": 61.2144,
      "duration": 0.0797,
      "velocity": 106,
      "chip": "ym2612"
    },
    {
      "channel": 1,
      "note": 71,
      "start": 61.2191,
      "duration": 0.0761,
      "velocity": 127,
      "chip": "ym2612"
    },
    {
      "channel": 0,
      "note": 62,
      "start": 61.3131,
      "duration": 0.0812,
      "velocity": 106,
      "chip": "ym2612"
    },
    {
      "channel": 1,
      "note": 50,
      "start": 61.3174,
      "duration": 0.0761,
      "velocity": 117,
      "chip": "ym2612"
    },
    {
      "channel": 0,
      "note": 62,
      "start": 61.413,
      "duration": 0.2632,
      "velocity": 101,
      "chip": "ym2612"
    },
    {
      "channel": 1,
      "note": 74,
      "start": 61.4173,
      "duration": 0.0755,
      "velocity": 127,
      "chip": "ym2612"
    },
    {
      "channel": 2,
      "note": 62,
      "start": 61.4215,
      "duration": 0.0722,
      "velocity": 106,
      "chip": "ym2612"
    },
    {
      "channel": 3,
      "note": 50,
      "start": 61.4268,
      "duration": 0.0167,
      "velocity": 117,
      "chip": "ym2612"
    },
    {
      "channel": 1,
      "note": 62,
      "start": 61.4978,
      "duration": 0.0784,
      "velocity": 106,
      "chip": "ym2612"
    },
    {
      "channel": 1,
      "note": 50,
      "start": 61.5967,
      "duration": 0.0822,
      "velocity": 117,
      "chip": "ym2612"
    },
    {
      "channel": 2,
      "note": 71,
      "start": 61.6014,
      "duration": 0.077,
      "velocity": 127,
      "chip": "ym2612"
    },
    {
      "channel": 3,
      "note": 62,
      "start": 61.6056,
      "duration": 0.0716,
      "velocity": 106,
      "chip": "ym2612"
    },
    {
      "channel": 0,
      "note": 62,
      "start": 61.6963,
      "duration": 0.2632,
      "velocity": 101,
      "chip": "ym2612"
    },
    {
      "channel": 1,
      "note": 62,
      "start": 61.7005,
      "duration": 0.0758,
      "velocity": 106,
      "chip": "ym2612"
    },
    {
      "channel": 2,
      "note": 50,
      "start": 61.7049,
      "duration": 0.072,
      "velocity": 117,
      "chip": "ym2612"
    },
    {
      "channel": 1,
      "note": 71,
      "start": 61.7969,
      "duration": 0.0797,
      "velocity": 127,
      "chip": "ym2612"
    },
    {
      "channel": 2,
      "note": 62,
      "start": 61.8011,
      "duration": 0.0765,
      "velocity": 106,
      "chip": "ym2612"
    },
    {
      "channel": 1,
      "note": 62,
      "start": 61.8818,
      "duration": 0.0791,
      "velocity": 106,
      "chip": "ym2612"
    },
    {
      "channel": 2,
      "note": 50,
      "start": 61.8862,
      "duration": 0.0739,
      "velocity": 117,
      "chip": "ym2612"
    },
    {
      "channel": 0,
      "note": 62,
      "start": 61.9798,
      "duration": 0.0798,
      "velocity": 106,
      "chip": "ym2612"
    },
    {
      "channel": 1,
      "note": 74,
      "start": 61.9841,
      "duration": 0.0761,
      "velocity": 127,
      "chip": "ym2612"
    },
    {
      "channel": 2,
      "note": 62,
      "start": 61.9882,
      "duration": 0.2548,
      "velocity": 101,
      "chip": "ym2612"
    },
    {
      "channel": 3,
      "note": 50,
      "start": 61.9934,
      "duration": 0.0167,
      "velocity": 117,
      "chip": "ym2612"
    },
    {
      "channel": 0,
      "note": 62,
      "start": 62.0797,
      "duration": 0.08,
      "velocity": 106,
      "chip": "ym2612"
    },
    {
      "channel": 0,
      "note": 71,
      "start": 62.1644,
      "duration": 0.0811,
      "velocity": 127,
      "chip": "ym2612"
    },
    {
      "channel": 1,
      "note": 62,
      "start": 62.1687,
      "duration": 0.0758,
      "velocity": 106,
      "chip": "ym2612"
    },
    {
      "channel": 3,
      "note": 50,
      "start": 62.1731,
      "duration": 0.0706,
      "velocity": 117,
      "chip": "ym2612"
    },
    {
      "channel": 0,
      "note": 50,
      "start": 62.2633,
      "duration": 0.0793,
      "velocity": 117,
      "chip": "ym2612"
    },
    {
      "channel": 1,
      "note": 62,
      "start": 62.2674,
      "duration": 0.4588,
      "velocity": 101,
      "chip": "ym2612"
    },
    {
      "channel": 2,
      "note": 62,
      "start": 62.2716,
      "duration": 0.0719,
      "velocity": 106,
      "chip": "ym2612"
    },
    {
      "channel": 0,
      "note": 62,
      "start": 62.3631,
      "duration": 0.0798,
      "velocity": 106,
      "chip": "ym2612"
    },
    {
      "channel": 2,
      "note": 71,
      "start": 62.3678,
      "duration": 0.0763,
      "velocity": 127,
      "chip": "ym2612"
    },
    {
      "channel": 0,
      "note": 50,
      "start": 62.4633,
      "duration": 0.0794,
      "velocity": 117,
      "chip": "ym2612"
    },
    {
      "channel": 2,
      "note": 62,
      "start": 62.4674,
      "duration": 0.0763,
      "velocity": 106,
      "chip": "ym2612"
    },
    {
      "channel": 0,
      "note": 73,
      "start": 62.5486,
      "duration": 0.078,
      "velocity": 127,
      "chip": "ym2612"
    },
    {
      "channel": 2,
      "note": 62,
      "start": 62.5529,
      "duration": 0.0752,
      "velocity": 106,
      "chip": "ym2612"
    },
    {
      "channel": 3,
      "note": 50,
      "start": 62.5573,
      "duration": 0.0699,
      "velocity": 117,
      "chip": "ym2612"
    },
    {
      "channel": 4,
      "note": 50,
      "start": 62.5626,
      "duration": 0.0154,
      "velocity": 117,
      "chip": "ym2612"
    },
    {
      "channel": 0,
      "note": 62,
      "start": 62.6464,
      "duration": 0.0824,
      "velocity": 106,
      "chip": "ym2612"
    },
    {
      "channel": 2,
      "note": 50,
      "start": 62.6509,
      "duration": 0.0772,
      "velocity": 117,
      "chip": "ym2612"
    },
    {
      "channel": 3,
      "note": 73,
      "start": 62.6556,
      "duration": 0.0719,
      "velocity": 127,
      "chip": "ym2612"
    },
    {
      "channel": 0,
      "note": 73,
      "start": 62.747,
      "duration": 0.0795,
      "velocity": 127,
      "chip": "ym2612"
    },
    {
      "channel": 1,
      "note": 50,
      "start": 62.7515,
      "duration": 0.0756,
      "velocity": 117,
      "chip": "ym2612"
    },
    {
      "channel": 2,
      "note": 60,
      "start": 62.7556,
      "duration": 0.3554,
      "velocity": 101,
      "chip": "ym2612"
    },
    {
      "channel": 3,
      "note": 60,
      "start": 62.7599,
      "duration": 0.3498,
      "velocity": 106,
      "chip": "ym2612"
    },
    {
      "channel": 0,
      "note": 50,
      "start": 62.8315,
      "duration": 0.0778,
      "velocity": 117,
      "chip": "ym2612"
    },
    {
      "channel": 0,
      "note": 50,
      "start": 63.0312,
      "duration": 0.0791,
      "velocity": 117,
      "chip": "ym2612"
    },
    {
      "channel": 0,
      "note": 74,
      "start": 63.131,
      "duration": 0.0796,
      "velocity": 127,
      "chip": "ym2612"
    },
    {
      "channel": 1,
      "note": 60,
      "start": 63.1352,
      "duration": 0.2589,
      "velocity": 101,
      "chip": "ym2612"
    },
    {
      "channel": 2,
      "note": 60,
      "start": 63.1394,
      "duration": 0.0721,
      "velocity": 106,
      "chip": "ym2612"
    },
    {
      "channel": 3,
      "note": 50,
      "start": 63.1446,
      "duration": 0.0155,
      "velocity": 117,
      "chip": "ym2612"
    },
    {
      "channel": 0,
      "note": 60,
      "start": 63.2156,
      "duration": 0.0772,
      "velocity": 106,
      "chip": "ym2612"
    },
    {
      "channel": 0,
      "note": 60,
      "start": 63.3144,
      "duration": 0.0824,
      "velocity": 106,
      "chip": "ym2612"
    },
    {
      "channel": 2,
      "note": 71,
      "start": 63.3191,
      "duration": 0.0769,
      "velocity": 127,
      "chip": "ym2612"
    },
    {
      "channel": 3,
      "note": 50,
      "start": 63.3235,
      "duration": 0.0714,
      "velocity": 117,
      "chip": "ym2612"
    },
    {
      "channel": 0,
      "note": 50,
      "start": 63.4133,
      "duration": 0.0806,
      "velocity": 117,
      "chip": "ym2612"
    },
    {
      "channel": 1,
      "note": 60,
      "start": 63.4176,
      "duration": 0.0772,
      "velocity": 106,
      "chip": "ym2612"
    },
    {
      "channel": 2,
      "note": 60,
      "start": 63.4216,
      "duration": 0.2559,
      "velocity": 101,
      "chip": "ym2612"
    },
    {
      "channel": 0,
      "note": 71,
      "start": 63.4995,
      "duration": 0.0782,
      "velocity": 127,
      "chip": "ym2612"
    },
    {
      "channel": 1,
      "note": 60,
      "start": 63.5037,
      "duration": 0.0747,
      "velocity": 106,
      "chip": "ym2612"
    },
    {
      "channel": 0,
      "note": 60,
      "start": 63.5964,
      "duration": 0.0824,
      "velocity": 106,
      "chip": "ym2612"
    },
    {
      "channel": 1,
      "note": 50,
      "start": 63.6008,
      "duration": 0.0773,
      "velocity": 117,
      "chip": "ym2612"
    },
    {
      "channel": 0,
      "note": 60,
      "start": 63.6963,
      "duration": 0.2632,
      "velocity": 101,
      "chip": "ym2612"
    },
    {
      "channel": 1,
      "note": 60,
      "start": 63.7006,
      "duration": 0.0757,
      "velocity": 106,
      "chip": "ym2612"
    },
    {
      "channel": 2,
      "note": 74,
      "start": 63.7048,
      "duration": 0.0721,
      "velocity": 127,
      "chip": "ym2612"
    },
    {
      "channel": 3,
      "note": 50,
      "start": 63.7101,
      "duration": 0.0167,
      "velocity": 117,
      "chip": "ym2612"
    },
    {
      "channel": 1,
      "note": 60,
      "start": 63.7964,
      "duration": 0.08,
      "velocity": 106,
      "chip": "ym2612"
    },
    {
      "channel": 1,
      "note": 50,
      "start": 63.8809,
      "duration": 0.0814,
      "velocity": 117,
      "chip": "ym2612"
    },
    {
      "channel": 2,
      "note": 71,
      "start": 63.8856,
      "duration": 0.0761,
      "velocity": 127,
      "chip": "ym2612"
    },
    {
      "channel": 3,
      "note": 60,
      "start": 63.8898,
      "duration": 0.0707,
      "velocity": 106,
      "chip": "ym2612"
    },
    {
      "channel": 0,
      "note": 60,
      "start": 63.9796,
      "duration": 0.2632,
      "velocity": 101,
      "chip": "ym2612"
    },
    {
      "channel": 1,
      "note": 60,
      "start": 63.9838,
      "duration": 0.0758,
      "velocity": 106,
      "chip": "ym2612"
    },
    {
      "channel": 2,
      "note": 50,
      "start": 63.9882,
      "duration": 0.072,
      "velocity": 117,
      "chip": "ym2612"
    },
    {
      "channel": 1,
      "note": 60,
      "start": 64.0798,
      "duration": 0.0799,
      "velocity": 106,
      "chip": "ym2612"
    },
    {
      "channel": 2,
      "note": 71,
      "start": 64.0844,
      "duration": 0.0765,
      "velocity": 127,
      "chip": "ym2612"
    },
    {
      "channel": 1,
      "note": 60,
      "start": 64.1651,
      "duration": 0.0791,
      "velocity": 106,
      "chip": "ym2612"
    },
    {
      "channel": 2,
      "note": 50,
      "start": 64.1695,
      "duration": 0.0739,
      "velocity": 117,
      "chip": "ym2612"
    },
    {
      "channel": 0,
      "note": 74,
      "start": 64.2632,
      "duration": 0.0795,
      "velocity": 127,
      "chip": "ym2612"
    },
    {
      "channel": 1,
      "note": 60,
      "start": 64.2673,
      "duration": 0.1755,
      "velocity": 101,
      "chip": "ym2612"
    },
    {
      "channel": 2,
      "note": 60,
      "start": 64.2715,
      "duration": 0.072,
      "velocity": 106,
      "chip": "ym2612"
    },
    {
      "channel": 3,
      "note": 50,
      "start": 64.2767,
      "duration": 0.0167,
      "velocity": 117,
      "chip": "ym2612"
    },
    {
      "channel": 0,
      "note": 60,
      "start": 64.363,
      "duration": 0.0805,
      "velocity": 106,
      "chip": "ym2612"
    },
    {
      "channel": 0,
      "note": 71,
      "start": 64.4637,
      "duration": 0.0796,
      "velocity": 127,
      "chip": "ym2612"
    },
    {
      "channel": 1,
      "note": 50,
      "start": 64.4681,
      "duration": 0.0757,
      "velocity": 117,
      "chip": "ym2612"
    },
    {
      "channel": 2,
      "note": 62,
      "start": 64.4723,
      "duration": 0.356,
      "velocity": 101,
      "chip": "ym2612"
    },
    {
      "channel": 3,
      "note": 62,
      "start": 64.4766,
      "duration": 0.3499,
      "velocity": 106,
      "chip": "ym2612"
    },
    {
      "channel": 0,
      "note": 50,
      "start": 64.5482,
      "duration": 0.0778,
      "velocity": 117,
      "chip": "ym2612"
    },
    {
      "channel": 0,
      "note": 71,
      "start": 64.6469,
      "duration": 0.0796,
      "velocity": 127,
      "chip": "ym2612"
    },
    {
      "channel": 0,
      "note": 50,
      "start": 64.7466,
      "duration": 0.0807,
      "velocity": 117,
      "chip": "ym2612"
    },
    {
      "channel": 0,
      "note": 65,
      "start": 64.8324,
      "duration": 0.2603,
      "velocity": 101,
      "chip": "ym2612"
    },
    {
      "channel": 1,
      "note": 65,
      "start": 64.8367,
      "duration": 0.0729,
      "velocity": 106,
      "chip": "ym2612"
    },
    {
      "channel": 2,
      "note": 74,
      "start": 64.841,
      "duration": 0.0693,
      "velocity": 127,
      "chip": "ym2612"
    },
    {
      "channel": 3,
      "note": 50,
      "start": 64.8462,
      "duration": 0.0151,
      "velocity": 117,
      "chip": "ym2612"
    },
    {
      "channel": 1,
      "note": 65,
      "start": 64.9297,
      "duration": 0.0799,
      "velocity": 106,
      "chip": "ym2612"
    },
    {
      "channel": 1,
      "note": 71,
      "start": 65.0303,
      "duration": 0.0811,
      "velocity": 127,
      "chip": "ym2612"
    },
    {
      "channel": 2,
      "note": 65,
      "start": 65.0345,
      "duration": 0.0758,
      "velocity": 106,
      "chip": "ym2612"
    },
    {
      "channel": 3,
      "note": 50,
      "start": 65.0389,
      "duration": 0.0705,
      "velocity": 117,
      "chip": "ym2612"
    },
    {
      "channel": 0,
      "note": 62,
      "start": 65.1296,
      "duration": 0.2632,
      "velocity": 101,
      "chip": "ym2612"
    },
    {
      "channel": 1,
      "note": 62,
      "start": 65.1338,
      "duration": 0.0759,
      "velocity": 106,
      "chip": "ym2612"
    },
    {
      "channel": 2,
      "note": 50,
      "start": 65.1382,
      "duration": 0.0722,
      "velocity": 117,
      "chip": "ym2612"
    },
    {
      "channel": 1,
      "note": 62,
      "start": 65.2146,
      "duration": 0.0784,
      "velocity": 106,
      "chip": "ym2612"
    },
    {
      "channel": 2,
      "note": 71,
      "start": 65.2193,
      "duration": 0.0748,
      "velocity": 127,
      "chip": "ym2612"
    },
    {
      "channel": 1,
      "note": 50,
      "start": 65.3133,
      "duration": 0.0809,
      "velocity": 117,
      "chip": "ym2612"
    },
    {
      "channel": 2,
      "note": 62,
      "start": 65.3175,
      "duration": 0.0762,
      "velocity": 106,
      "chip": "ym2612"
    },
    {
      "channel": 0,
      "note": 74,
      "start": 65.4144,
      "duration": 0.0784,
      "velocity": 127,
      "chip": "ym2612"
    },
    {
      "channel": 1,
      "note": 62,
      "start": 65.4185,
      "duration": 0.2578,
      "velocity": 101,
      "chip": "ym2612"
    },
    {
      "channel": 2,
      "note": 62,
      "start": 65.4228,
      "duration": 0.0709,
      "velocity": 106,
      "chip": "ym2612"
    },
    {
      "channel": 3,
      "note": 50,
      "start": 65.428,
      "duration": 0.0155,
      "velocity": 117,
      "chip": "ym2612"
    },
    {
      "channel": 0,
      "note": 62,
      "start": 65.4978,
      "duration": 0.0784,
      "velocity": 106,
      "chip": "ym2612"
    },
    {
      "channel": 0,
      "note": 71,
      "start": 65.5982,
      "duration": 0.0808,
      "velocity": 127,
      "chip": "ym2612"
    },
    {
      "channel": 2,
      "note": 50,
      "start": 65.6026,
      "duration": 0.0753,
      "velocity": 117,
      "chip": "ym2612"
    },
    {
      "channel": 3,
      "note": 62,
      "start": 65.6068,
      "duration": 0.0704,
      "velocity": 106,
      "chip": "ym2612"
    },
    {
      "channel": 0,
      "note": 50,
      "start": 65.6979,
      "duration": 0.0792,
      "velocity": 117,
      "chip": "ym2612"
    },
    {
      "channel": 1,
      "note": 65,
      "start": 65.702,
      "duration": 0.2588,
      "velocity": 101,
      "chip": "ym2612"
    },
    {
      "channel": 2,
      "note": 65,
      "start": 65.7061,
      "duration": 0.0718,
      "velocity": 106,
      "chip": "ym2612"
    },
    {
      "channel": 0,
      "note": 71,
      "start": 65.7969,
      "duration": 0.0809,
      "velocity": 127,
      "chip": "ym2612"
    },
    {
      "channel": 2,
      "note": 65,
      "start": 65.8011,
      "duration": 0.0777,
      "velocity": 106,
      "chip": "ym2612"
    },
    {
      "channel": 0,
      "note": 50,
      "start": 65.8832,
      "duration": 0.079,
      "velocity": 117,
      "chip": "ym2612"
    },
    {
      "channel": 2,
      "note": 65,
      "start": 65.8874,
      "duration": 0.0742,
      "velocity": 106,
      "chip": "ym2612"
    },
    {
      "channel": 0,
      "note": 74,
      "start": 65.9798,
      "duration": 0.0807,
      "velocity": 127,
      "chip": "ym2612"
    },
    {
      "channel": 1,
      "note": 62,
      "start": 65.984,
      "duration": 0.1756,
      "velocity": 101,
      "chip": "ym2612"
    },
    {
      "channel": 2,
      "note": 62,
      "start": 65.9882,
      "duration": 0.0732,
      "velocity": 106,
      "chip": "ym2612"
    },
    {
      "channel": 3,
      "note": 50,
      "start": 65.9934,
      "duration": 0.0167,
      "velocity": 117,
      "chip": "ym2612"
    },
    {
      "channel": 0,
      "note": 62,
      "start": 66.0797,
      "duration": 0.0809,
      "velocity": 106,
      "chip": "ym2612"
    },
    {
      "channel": 0,
      "note": 71,
      "start": 66.1654,
      "duration": 0.079,
      "velocity": 127,
      "chip": "ym2612"
    },
    {
      "channel": 1,
      "note": 50,
      "start": 66.1699,
      "duration": 0.075,
      "velocity": 117,
      "chip": "ym2612"
    },
    {
      "channel": 2,
      "note": 60,
      "start": 66.1741,
      "duration": 0.353,
      "velocity": 106,
      "chip": "ym2612"
    },
    {
      "channel": 3,
      "note": 60,
      "start": 66.1783,
      "duration": 0.348,
      "velocity": 101,
      "chip": "ym2612"
    },
    {
      "channel": 0,
      "note": 50,
      "start": 66.2633,
      "duration": 0.0793,
      "velocity": 117,
      "chip": "ym2612"
    },
    {
      "channel": 0,
      "note": 50,
      "start": 66.4633,
      "duration": 0.0793,
      "velocity": 117,
      "chip": "ym2612"
    },
    {
      "channel": 0,
      "note": 74,
      "start": 66.5469,
      "duration": 0.0791,
      "velocity": 127,
      "chip": "ym2612"
    },
    {
      "channel": 1,
      "note": 60,
      "start": 66.5513,
      "duration": 0.0755,
      "velocity": 106,
      "chip": "ym2612"
    },
    {
      "channel": 2,
      "note": 60,
      "start": 66.5554,
      "duration": 0.2541,
      "velocity": 101,
      "chip": "ym2612"
    },
    {
      "channel": 3,
      "note": 50,
      "start": 66.5606,
      "duration": 0.0162,
      "velocity": 117,
      "chip": "ym2612"
    },
    {
      "channel": 0,
      "note": 60,
      "start": 66.6464,
      "duration": 0.0798,
      "velocity": 106,
      "chip": "ym2612"
    },
    {
      "channel": 0,
      "note": 71,
      "start": 66.7469,
      "duration": 0.0816,
      "velocity": 127,
      "chip": "ym2612"
    },
    {
      "channel": 1,
      "note": 50,
      "start": 66.7514,
      "duration": 0.0759,
      "velocity": 117,
      "chip": "ym2612"
    },
    {
      "channel": 3,
      "note": 60,
      "start": 66.7556,
      "duration": 0.0709,
      "velocity": 106,
      "chip": "ym2612"
    },
    {
      "channel": 0,
      "note": 50,
      "start": 66.833,
      "duration": 0.0763,
      "velocity": 117,
      "chip": "ym2612"
    },
    {
      "channel": 1,
      "note": 60,
      "start": 66.8371,
      "duration": 0.2557,
      "velocity": 101,
      "chip": "ym2612"
    },
    {
      "channel": 2,
      "note": 60,
      "start": 66.8412,
      "duration": 0.0689,
      "velocity": 106,
      "chip": "ym2612"
    },
    {
      "channel": 0,
      "note": 71,
      "start": 66.9302,
      "duration": 0.0796,
      "velocity": 127,
      "chip": "ym2612"
    },
    {
      "channel": 2,
      "note": 60,
      "start": 66.9344,
      "duration": 0.0763,
      "velocity": 106,
      "chip": "ym2612"
    },
    {
      "channel": 0,
      "note": 60,
      "start": 67.0298,
      "duration": 0.0804,
      "velocity": 106,
      "chip": "ym2612"
    },
    {
      "channel": 2,
      "note": 50,
      "start": 67.0341,
      "duration": 0.0753,
      "velocity": 117,
      "chip": "ym2612"
    },
    {
      "channel": 0,
      "note": 74,
      "start": 67.1298,
      "duration": 0.0796,
      "velocity": 127,
      "chip": "ym2612"
    },
    {
      "channel": 1,
      "note": 60,
      "start": 67.134,
      "duration": 0.2589,
      "velocity": 101,
      "chip": "ym2612"
    },
    {
      "channel": 2,
      "note": 60,
      "start": 67.1382,
      "duration": 0.0722,
      "velocity": 106,
      "chip": "ym2612"
    },
    {
      "channel": 3,
      "note": 50,
      "start": 67.1434,
      "duration": 0.018,
      "velocity": 117,
      "chip": "ym2612"
    },
    {
      "channel": 0,
      "note": 60,
      "start": 67.2144,
      "duration": 0.0784,
      "velocity": 106,
      "chip": "ym2612"
    },
    {
      "channel": 0,
      "note": 71,
      "start": 67.3136,
      "duration": 0.082,
      "velocity": 127,
      "chip": "ym2612"
    },
    {
      "channel": 2,
      "note": 50,
      "start": 67.3181,
      "duration": 0.0765,
      "velocity": 117,
      "chip": "ym2612"
    },
    {
      "channel": 3,
      "note": 60,
      "start": 67.3223,
      "duration": 0.0716,
      "velocity": 106,
      "chip": "ym2612"
    },
    {
      "channel": 0,
      "note": 60,
      "start": 67.413,
      "duration": 0.2632,
      "velocity": 101,
      "chip": "ym2612"
    },
    {
      "channel": 1,
      "note": 60,
      "start": 67.4172,
      "duration": 0.0758,
      "velocity": 106,
      "chip": "ym2612"
    },
    {
      "channel": 2,
      "note": 50,
      "start": 67.4215,
      "duration": 0.0722,
      "velocity": 117,
      "chip": "ym2612"
    },
    {
      "channel": 1,
      "note": 60,
      "start": 67.498,
      "duration": 0.0783,
      "velocity": 106,
      "chip": "ym2612"
    },
    {
      "channel": 2,
      "note": 71,
      "start": 67.5026,
      "duration": 0.0748,
      "velocity": 127,
      "chip": "ym2612"
    },
    {
      "channel": 1,
      "note": 50,
      "start": 67.5966,
      "duration": 0.0809,
      "velocity": 117,
      "chip": "ym2612"
    },
    {
      "channel": 2,
      "note": 60,
      "start": 67.6008,
      "duration": 0.0762,
      "velocity": 106,
      "chip": "ym2612"
    },
    {
      "channel": 0,
      "note": 60,
      "start": 67.6964,
      "duration": 0.1798,
      "velocity": 101,
      "chip": "ym2612"
    },
    {
      "channel": 1,
      "note": 60,
      "start": 67.7006,
      "duration": 0.0756,
      "velocity": 106,
      "chip": "ym2612"
    },
    {
      "channel": 2,
      "note": 74,
      "start": 67.7048,
      "duration": 0.0721,
      "velocity": 127,
      "chip": "ym2612"
    },
    {
      "channel": 3,
      "note": 50,
      "start": 67.7101,
      "duration": 0.0167,
      "velocity": 117,
      "chip": "ym2612"
    },
    {
      "channel": 1,
      "note": 60,
      "start": 67.7976,
      "duration": 0.0796,
      "velocity": 106,
      "chip": "ym2612"
    },
    {
      "channel": 0,
      "note": 71,
      "start": 67.8821,
      "duration": 0.0778,
      "velocity": 127,
      "chip": "ym2612"
    },
    {
      "channel": 1,
      "note": 62,
      "start": 67.8862,
      "duration": 0.358,
      "velocity": 101,
      "chip": "ym2612"
    },
    {
      "channel": 2,
      "note": 62,
      "start": 67.8904,
      "duration": 0.3527,
      "velocity": 106,
      "chip": "ym2612"
    },
    {
      "channel": 3,
      "note": 50,
      "start": 67.895,
      "duration": 0.0655,
      "velocity": 117,
      "chip": "ym2612"
    },
    {
      "channel": 0,
      "note": 50,
      "start": 67.9811,
      "duration": 0.0782,
      "velocity": 117,
      "chip": "ym2612"
    },
    {
      "channel": 0,
      "note": 50,
      "start": 68.1645,
      "duration": 0.0791,
      "velocity": 117,
      "chip": "ym2612"
    },
    {
      "channel": 0,
      "note": 74,
      "start": 68.2644,
      "duration": 0.0795,
      "velocity": 127,
      "chip": "ym2612"
    },
    {
      "channel": 1,
      "note": 67,
      "start": 68.2687,
      "duration": 0.076,
      "velocity": 106,
      "chip": "ym2612"
    },
    {
      "channel": 2,
      "note": 67,
      "start": 68.2728,
      "duration": 0.2546,
      "velocity": 101,
      "chip": "ym2612"
    },
    {
      "channel": 3,
      "note": 50,
      "start": 68.278,
      "duration": 0.0155,
      "velocity": 117,
      "chip": "ym2612"
    },
    {
      "channel": 0,
      "note": 67,
      "start": 68.363,
      "duration": 0.081,
      "velocity": 106,
      "chip": "ym2612"
    },
    {
      "channel": 0,
      "note": 71,
      "start": 68.4636,
      "duration": 0.0816,
      "velocity": 127,
      "chip": "ym2612"
    },
    {
      "channel": 1,
      "note": 67,
      "start": 68.4679,
      "duration": 0.0761,
      "velocity": 106,
      "chip": "ym2612"
    },
    {
      "channel": 3,
      "note": 50,
      "start": 68.4723,
      "duration": 0.0706,
      "velocity": 117,
      "chip": "ym2612"
    },
    {
      "channel": 0,
      "note": 62,
      "start": 68.5493,
      "duration": 0.2613,
      "velocity": 101,
      "chip": "ym2612"
    },
    {
      "channel": 1,
      "note": 50,
      "start": 68.5537,
      "duration": 0.0735,
      "velocity": 117,
      "chip": "ym2612"
    },
    {
      "channel": 2,
      "note": 62,
      "start": 68.5579,
      "duration": 0.0702,
      "velocity": 106,
      "chip": "ym2612"
    },
    {
      "channel": 1,
      "note": 71,
      "start": 68.6469,
      "duration": 0.0797,
      "velocity": 127,
      "chip": "ym2612"
    },
    {
      "channel": 2,
      "note": 62,
      "start": 68.6511,
      "duration": 0.0763,
      "velocity": 106,
      "chip": "ym2612"
    },
    {
      "channel": 1,
      "note": 62,
      "start": 68.7464,
      "duration": 0.0807,
      "velocity": 106,
      "chip": "ym2612"
    },
    {
      "channel": 2,
      "note": 50,
      "start": 68.7508,
      "duration": 0.0752,
      "velocity": 117,
      "chip": "ym2612"
    },
    {
      "channel": 0,
      "note": 74,
      "start": 68.8315,
      "duration": 0.0778,
      "velocity": 127,
      "chip": "ym2612"
    },
    {
      "channel": 1,
      "note": 60,
      "start": 68.8356,
      "duration": 0.2572,
      "velocity": 101,
      "chip": "ym2612"
    },
    {
      "channel": 2,
      "note": 60,
      "start": 68.8398,
      "duration": 0.0704,
      "velocity": 106,
      "chip": "ym2612"
    },
    {
      "channel": 3,
      "note": 50,
      "start": 68.845,
      "duration": 0.0151,
      "velocity": 117,
      "chip": "ym2612"
    },
    {
      "channel": 0,
      "note": 60,
      "start": 68.9297,
      "duration": 0.0798,
      "velocity": 106,
      "chip": "ym2612"
    },
    {
      "channel": 0,
      "note": 71,
      "start": 69.0303,
      "duration": 0.0811,
      "velocity": 127,
      "chip": "ym2612"
    },
    {
      "channel": 2,
      "note": 60,
      "start": 69.0345,
      "duration": 0.0758,
      "velocity": 106,
      "chip": "ym2612"
    },
    {
      "channel": 3,
      "note": 50,
      "start": 69.0389,
      "duration": 0.0705,
      "velocity": 117,
      "chip": "ym2612"
    },
    {
      "channel": 0,
      "note": 62,
      "start": 69.1296,
      "duration": 0.2632,
      "velocity": 101,
      "chip": "ym2612"
    },
    {
      "channel": 1,
      "note": 62,
      "start": 69.1338,
      "duration": 0.0758,
      "velocity": 106,
      "chip": "ym2612"
    },
    {
      "channel": 2,
      "note": 50,
      "start": 69.1382,
      "duration": 0.0721,
      "velocity": 117,
      "chip": "ym2612"
    },
    {
      "channel": 1,
      "note": 62,
      "start": 69.2146,
      "duration": 0.0783,
      "velocity": 106,
      "chip": "ym2612"
    },
    {
      "channel": 2,
      "note": 71,
      "start": 69.2193,
      "duration": 0.0748,
      "velocity": 127,
      "chip": "ym2612"
    },
    {
      "channel": 1,
      "note": 62,
      "start": 69.3131,
      "duration": 0.0811,
      "velocity": 106,
      "chip": "ym2612"
    },
    {
      "channel": 2,
      "note": 50,
      "start": 69.3175,
      "duration": 0.0759,
      "velocity": 117,
      "chip": "ym2612"
    },
    {
      "channel": 0,
      "note": 74,
      "start": 69.4132,
      "duration": 0.0795,
      "velocity": 127,
      "chip": "ym2612"
    },
    {
      "channel": 1,
      "note": 60,
      "start": 69.4174,
      "duration": 0.0761,
      "velocity": 106,
      "chip": "ym2612"
    },
    {
      "channel": 2,
      "note": 60,
      "start": 69.4215,
      "duration": 0.1715,
      "velocity": 101,
      "chip": "ym2612"
    },
    {
      "channel": 3,
      "note": 50,
      "start": 69.4267,
      "duration": 0.0179,
      "velocity": 117,
      "chip": "ym2612"
    },
    {
      "channel": 0,
      "note": 60,
      "start": 69.4977,
      "duration": 0.0785,
      "velocity": 106,
      "chip": "ym2612"
    },
    {
      "channel": 0,
      "note": 50,
      "start": 69.5975,
      "duration": 0.0785,
      "velocity": 117,
      "chip": "ym2612"
    },
    {
      "channel": 1,
      "note": 71,
      "start": 69.6022,
      "duration": 0.0748,
      "velocity": 127,
      "chip": "ym2612"
    },
    {
      "channel": 2,
      "note": 58,
      "start": 69.6064,
      "duration": 0.3545,
      "velocity": 106,
      "chip": "ym2612"
    },
    {
      "channel": 3,
      "note": 58,
      "start": 69.6107,
      "duration": 0.3489,
      "velocity": 101,
      "chip": "ym2612"
    },
    {
      "channel": 0,
      "note": 50,
      "start": 69.6966,
      "duration": 0.0793,
      "velocity": 117,
      "chip": "ym2612"
    },
    {
      "channel": 0,
      "note": 50,
      "start": 69.88,
      "duration": 0.0802,
      "velocity": 117,
      "chip": "ym2612"
    },
    {
      "channel": 0,
      "note": 58,
      "start": 69.9796,
      "duration": 0.2632,
      "velocity": 101,
      "chip": "ym2612"
    },
    {
      "channel": 1,
      "note": 58,
      "start": 69.984,
      "duration": 0.0756,
      "velocity": 106,
      "chip": "ym2612"
    },
    {
      "channel": 2,
      "note": 74,
      "start": 69.9882,
      "duration": 0.0721,
      "velocity": 127,
      "chip": "ym2612"
    },
    {
      "channel": 3,
      "note": 50,
      "start": 69.9934,
      "duration": 0.0167,
      "velocity": 117,
      "chip": "ym2612"
    },
    {
      "channel": 1,
      "note": 58,
      "start": 70.0797,
      "duration": 0.08,
      "velocity": 106,
      "chip": "ym2612"
    },
    {
      "channel": 1,
      "note": 71,
      "start": 70.1645,
      "duration": 0.081,
      "velocity": 127,
      "chip": "ym2612"
    },
    {
      "channel": 2,
      "note": 58,
      "start": 70.1687,
      "duration": 0.0758,
      "velocity": 106,
      "chip": "ym2612"
    },
    {
      "channel": 3,
      "note": 50,
      "start": 70.1732,
      "duration": 0.0705,
      "velocity": 117,
      "chip": "ym2612"
    },
    {
      "channel": 0,
      "note": 50,
      "start": 70.2633,
      "duration": 0.0793,
      "velocity": 117,
      "chip": "ym2612"
    },
    {
      "channel": 1,
      "note": 58,
      "start": 70.2674,
      "duration": 0.2587,
      "velocity": 101,
      "chip": "ym2612"
    },
    {
      "channel": 2,
      "note": 58,
      "start": 70.2716,
      "duration": 0.0719,
      "velocity": 106,
      "chip": "ym2612"
    },
    {
      "channel": 0,
      "note": 58,
      "start": 70.3643,
      "duration": 0.0786,
      "velocity": 106,
      "chip": "ym2612"
    },
    {
      "channel": 2,
      "note": 71,
      "start": 70.369,
      "duration": 0.0751,
      "velocity": 127,
      "chip": "ym2612"
    },
    {
      "channel": 0,
      "note": 50,
      "start": 70.4646,
      "duration": 0.0805,
      "velocity": 117,
      "chip": "ym2612"
    },
    {
      "channel": 2,
      "note": 58,
      "start": 70.4687,
      "duration": 0.0756,
      "velocity": 106,
      "chip": "ym2612"
    },
    {
      "channel": 0,
      "note": 58,
      "start": 70.5492,
      "duration": 0.2602,
      "velocity": 101,
      "chip": "ym2612"
    },
    {
      "channel": 1,
      "note": 58,
      "start": 70.5536,
      "duration": 0.0728,
      "velocity": 106,
      "chip": "ym2612"
    },
    {
      "channel": 2,
      "note": 74,
      "start": 70.5578,
      "duration": 0.0691,
      "velocity": 127,
      "chip": "ym2612"
    },
    {
      "channel": 3,
      "note": 50,
      "start": 70.563,
      "duration": 0.0137,
      "velocity": 117,
      "chip": "ym2612"
    },
    {
      "channel": 1,
      "note": 58,
      "start": 70.6476,
      "duration": 0.0799,
      "velocity": 106,
      "chip": "ym2612"
    },
    {
      "channel": 1,
      "note": 71,
      "start": 70.747,
      "duration": 0.0828,
      "velocity": 127,
      "chip": "ym2612"
    },
    {
      "channel": 2,
      "note": 50,
      "start": 70.7514,
      "duration": 0.0772,
      "velocity": 117,
      "chip": "ym2612"
    },
    {
      "channel": 3,
      "note": 58,
      "start": 70.7556,
      "duration": 0.0721,
      "velocity": 106,
      "chip": "ym2612"
    },
    {
      "channel": 0,
      "note": 50,
      "start": 70.8344,
      "duration": 0.0761,
      "velocity": 117,
      "chip": "ym2612"
    },
    {
      "channel": 1,
      "note": 58,
      "start": 70.8385,
      "duration": 0.0727,
      "velocity": 106,
      "chip": "ym2612"
    },
    {
      "channel": 2,
      "note": 58,
      "start": 70.8427,
      "duration": 0.2513,
      "velocity": 101,
      "chip": "ym2612"
    },
    {
      "channel": 0,
      "note": 58,
      "start": 70.9298,
      "duration": 0.081,
      "velocity": 106,
      "chip": "ym2612"
    },
    {
      "channel": 1,
      "note": 71,
      "start": 70.9344,
      "duration": 0.0775,
      "velocity": 127,
      "chip": "ym2612"
    },
    {
      "channel": 0,
      "note": 50,
      "start": 71.03,
      "duration": 0.0802,
      "velocity": 117,
      "chip": "ym2612"
    },
    {
      "channel": 1,
      "note": 58,
      "start": 71.0342,
      "duration": 0.0754,
      "velocity": 106,
      "chip": "ym2612"
    },
    {
      "channel": 0,
      "note": 58,
      "start": 71.1296,
      "duration": 0.1798,
      "velocity": 101,
      "chip": "ym2612"
    },
    {
      "channel": 1,
      "note": 58,
      "start": 71.134,
      "duration": 0.0757,
      "velocity": 106,
      "chip": "ym2612"
    },
    {
      "channel": 2,
      "note": 74,
      "start": 71.1382,
      "duration": 0.0722,
      "velocity": 127,
      "chip": "ym2612"
    },
    {
      "channel": 3,
      "note": 50,
      "start": 71.1434,
      "duration": 0.0167,
      "velocity": 117,
      "chip": "ym2612"
    },
    {
      "channel": 1,
      "note": 58,
      "start": 71.2145,
      "duration": 0.0784,
      "velocity": 106,
      "chip": "ym2612"
    },
    {
      "channel": 0,
      "note": 60,
      "start": 71.3137,
      "duration": 0.3625,
      "velocity": 101,
      "chip": "ym2612"
    },
    {
      "channel": 1,
      "note": 50,
      "start": 71.3182,
      "duration": 0.0745,
      "velocity": 117,
      "chip": "ym2612"
    },
    {
      "channel": 2,
      "note": 60,
      "start": 71.3224,
      "duration": 0.3551,
      "velocity": 106,
      "chip": "ym2612"
    },
    {
      "channel": 3,
      "note": 71,
      "start": 71.3272,
      "duration": 0.0666,
      "velocity": 127,
      "chip": "ym2612"
    },
    {
      "channel": 1,
      "note": 50,
      "start": 71.4133,
      "duration": 0.0794,
      "velocity": 117,
      "chip": "ym2612"
    },
    {
      "channel": 1,
      "note": 50,
      "start": 71.5966,
      "duration": 0.0801,
      "velocity": 117,
      "chip": "ym2612"
    },
    {
      "channel": 0,
      "note": 74,
      "start": 71.6965,
      "duration": 0.0795,
      "velocity": 127,
      "chip": "ym2612"
    },
    {
      "channel": 1,
      "note": 60,
      "start": 71.7008,
      "duration": 0.076,
      "velocity": 106,
      "chip": "ym2612"
    },
    {
      "channel": 2,
      "note": 60,
      "start": 71.7048,
      "duration": 0.2548,
      "velocity": 101,
      "chip": "ym2612"
    },
    {
      "channel": 3,
      "note": 50,
      "start": 71.71,
      "duration": 0.0167,
      "velocity": 117,
      "chip": "ym2612"
    },
    {
      "channel": 0,
      "note": 60,
      "start": 71.7964,
      "duration": 0.08,
      "velocity": 106,
      "chip": "ym2612"
    },
    {
      "channel": 0,
      "note": 71,
      "start": 71.8811,
      "duration": 0.0812,
      "velocity": 127,
      "chip": "ym2612"
    },
    {
      "channel": 1,
      "note": 60,
      "start": 71.8853,
      "duration": 0.0759,
      "velocity": 106,
      "chip": "ym2612"
    },
    {
      "channel": 3,
      "note": 50,
      "start": 71.8897,
      "duration": 0.0707,
      "velocity": 117,
      "chip": "ym2612"
    },
    {
      "channel": 0,
      "note": 50,
      "start": 71.98,
      "duration": 0.0793,
      "velocity": 117,
      "chip": "ym2612"
    },
    {
      "channel": 1,
      "note": 60,
      "start": 71.984,
      "duration": 0.2588,
      "velocity": 101,
      "chip": "ym2612"
    },
    {
      "channel": 2,
      "note": 60,
      "start": 71.9882,
      "duration": 0.0719,
      "velocity": 106,
      "chip": "ym2612"
    },
    {
      "channel": 0,
      "note": 60,
      "start": 72.0798,
      "duration": 0.0799,
      "velocity": 106,
      "chip": "ym2612"
    },
    {
      "channel": 2,
      "note": 71,
      "start": 72.0844,
      "duration": 0.0765,
      "velocity": 127,
      "chip": "ym2612"
    },
    {
      "channel": 0,
      "note": 60,
      "start": 72.1651,
      "duration": 0.0792,
      "velocity": 106,
      "chip": "ym2612"
    },
    {
      "channel": 2,
      "note": 50,
      "start": 72.1695,
      "duration": 0.0741,
      "velocity": 117,
      "chip": "ym2612"
    },
    {
      "channel": 0,
      "note": 60,
      "start": 72.2631,
      "duration": 0.0798,
      "velocity": 106,
      "chip": "ym2612"
    },
    {
      "channel": 1,
      "note": 74,
      "start": 72.2674,
      "duration": 0.076,
      "velocity": 127,
      "chip": "ym2612"
    },
    {
      "channel": 2,
      "note": 60,
      "start": 72.2715,
      "duration": 0.2546,
      "velocity": 101,
      "chip": "ym2612"
    },
    {
      "channel": 3,
      "note": 50,
      "start": 72.2767,
      "duration": 0.0179,
      "velocity": 117,
      "chip": "ym2612"
    },
    {
      "channel": 0,
      "note": 60,
      "start": 72.363,
      "duration": 0.0798,
      "velocity": 106,
      "chip": "ym2612"
    },
    {
      "channel": 0,
      "note": 71,
      "start": 72.4636,
      "duration": 0.0816,
      "velocity": 127,
      "chip": "ym2612"
    },
    {
      "channel": 1,
      "note": 50,
      "start": 72.4681,
      "duration": 0.0759,
      "velocity": 117,
      "chip": "ym2612"
    },
    {
      "channel": 3,
      "note": 60,
      "start": 72.4723,
      "duration": 0.0709,
      "velocity": 106,
      "chip": "ym2612"
    },
    {
      "channel": 0,
      "note": 60,
      "start": 72.5493,
      "duration": 0.2601,
      "velocity": 101,
      "chip": "ym2612"
    },
    {
      "channel": 1,
      "note": 60,
      "start": 72.5536,
      "duration": 0.0727,
      "velocity": 106,
      "chip": "ym2612"
    },
    {
      "channel": 2,
      "note": 50,
      "start": 72.558,
      "duration": 0.0689,
      "velocity": 117,
      "chip": "ym2612"
    },
    {
      "channel": 1,
      "note": 71,
      "start": 72.6469,
      "duration": 0.0797,
      "velocity": 127,
      "chip": "ym2612"
    },
    {
      "channel": 2,
      "note": 60,
      "start": 72.6511,
      "duration": 0.0763,
      "velocity": 106,
      "chip": "ym2612"
    },
    {
      "channel": 1,
      "note": 60,
      "start": 72.7476,
      "duration": 0.0795,
      "velocity": 106,
      "chip": "ym2612"
    },
    {
      "channel": 2,
      "note": 50,
      "start": 72.752,
      "duration": 0.0742,
      "velocity": 117,
      "chip": "ym2612"
    },
    {
      "channel": 0,
      "note": 74,
      "start": 72.8315,
      "duration": 0.0778,
      "velocity": 127,
      "chip": "ym2612"
    },
    {
      "channel": 1,
      "note": 60,
      "start": 72.8356,
      "duration": 0.1739,
      "velocity": 101,
      "chip": "ym2612"
    },
    {
      "channel": 2,
      "note": 60,
      "start": 72.8398,
      "duration": 0.0704,
      "velocity": 106,
      "chip": "ym2612"
    },
    {
      "channel": 3,
      "note": 50,
      "start": 72.8451,
      "duration": 0.015,
      "velocity": 117,
      "chip": "ym2612"
    },
    {
      "channel": 0,
      "note": 60,
      "start": 72.9309,
      "duration": 0.0793,
      "velocity": 106,
      "chip": "ym2612"
    },
    {
      "channel": 0,
      "note": 50,
      "start": 73.0312,
      "duration": 0.0792,
      "velocity": 117,
      "chip": "ym2612"
    },
    {
      "channel": 1,
      "note": 62,
      "start": 73.0355,
      "duration": 0.36,
      "velocity": 106,
      "chip": "ym2612"
    },
    {
      "channel": 2,
      "note": 62,
      "start": 73.0396,
      "duration": 0.3546,
      "velocity": 101,
      "chip": "ym2612"
    },
    {
      "channel": 3,
      "note": 71,
      "start": 73.0445,
      "duration": 0.0671,
      "velocity": 127,
      "chip": "ym2612"
    },
    {
      "channel": 0,
      "note": 50,
      "start": 73.13,
      "duration": 0.0806,
      "velocity": 117,
      "chip": "ym2612"
    },
    {
      "channel": 0,
      "note": 50,
      "start": 73.3133,
      "duration": 0.0814,
      "velocity": 117,
      "chip": "ym2612"
    },
    {
      "channel": 0,
      "note": 62,
      "start": 73.413,
      "duration": 0.2632,
      "velocity": 101,
      "chip": "ym2612"
    },
    {
      "channel": 1,
      "note": 62,
      "start": 73.4172,
      "duration": 0.0758,
      "velocity": 106,
      "chip": "ym2612"
    },
    {
      "channel": 2,
      "note": 74,
      "start": 73.4215,
      "duration": 0.0722,
      "velocity": 127,
      "chip": "ym2612"
    },
    {
      "channel": 3,
      "note": 50,
      "start": 73.4267,
      "duration": 0.0167,
      "velocity": 117,
      "chip": "ym2612"
    },
    {
      "channel": 1,
      "note": 62,
      "start": 73.4978,
      "duration": 0.0796,
      "velocity": 106,
      "chip": "ym2612"
    },
    {
      "channel": 1,
      "note": 71,
      "start": 73.5969,
      "duration": 0.082,
      "velocity": 127,
      "chip": "ym2612"
    },
    {
      "channel": 2,
      "note": 50,
      "start": 73.6014,
      "duration": 0.0765,
      "velocity": 117,
      "chip": "ym2612"
    },
    {
      "channel": 3,
      "note": 62,
      "start": 73.6056,
      "duration": 0.0716,
      "velocity": 106,
      "chip": "ym2612"
    },
    {
      "channel": 0,
      "note": 62,
      "start": 73.6963,
      "duration": 0.2632,
      "velocity": 101,
      "chip": "ym2612"
    },
    {
      "channel": 1,
      "note": 62,
      "start": 73.7005,
      "duration": 0.0758,
      "velocity": 106,
      "chip": "ym2612"
    },
    {
      "channel": 2,
      "note": 50,
      "start": 73.7049,
      "duration": 0.072,
      "velocity": 117,
      "chip": "ym2612"
    },
    {
      "channel": 1,
      "note": 62,
      "start": 73.7964,
      "duration": 0.08,
      "velocity": 106,
      "chip": "ym2612"
    },
    {
      "channel": 2,
      "note": 71,
      "start": 73.8011,
      "duration": 0.0765,
      "velocity": 127,
      "chip": "ym2612"
    },
    {
      "channel": 1,
      "note": 50,
      "start": 73.8821,
      "duration": 0.0788,
      "velocity": 117,
      "chip": "ym2612"
    },
    {
      "channel": 2,
      "note": 62,
      "start": 73.8862,
      "duration": 0.0742,
      "velocity": 106,
      "chip": "ym2612"
    },
    {
      "channel": 0,
      "note": 74,
      "start": 73.9798,
      "duration": 0.0795,
      "velocity": 127,
      "chip": "ym2612"
    },
    {
      "channel": 1,
      "note": 62,
      "start": 73.9841,
      "duration": 0.076,
      "velocity": 106,
      "chip": "ym2612"
    },
    {
      "channel": 2,
      "note": 62,
      "start": 73.9882,
      "duration": 0.2548,
      "velocity": 101,
      "chip": "ym2612"
    },
    {
      "channel": 3,
      "note": 50,
      "start": 73.9934,
      "duration": 0.0167,
      "velocity": 117,
      "chip": "ym2612"
    },
    {
      "channel": 0,
      "note": 62,
      "start": 74.0797,
      "duration": 0.08,
      "velocity": 106,
      "chip": "ym2612"
    },
    {
      "channel": 0,
      "note": 71,
      "start": 74.1644,
      "duration": 0.0811,
      "velocity": 127,
      "chip": "ym2612"
    },
    {
      "channel": 1,
      "note": 62,
      "start": 74.1686,
      "duration": 0.0759,
      "velocity": 106,
      "chip": "ym2612"
    },
    {
      "channel": 3,
      "note": 50,
      "start": 74.173,
      "duration": 0.0706,
      "velocity": 117,
      "chip": "ym2612"
    },
    {
      "channel": 0,
      "note": 62,
      "start": 74.263,
      "duration": 0.2631,
      "velocity": 101,
      "chip": "ym2612"
    },
    {
      "channel": 1,
      "note": 62,
      "start": 74.2672,
      "duration": 0.0758,
      "velocity": 106,
      "chip": "ym2612"
    },
    {
      "channel": 2,
      "note": 50,
      "start": 74.2716,
      "duration": 0.072,
      "velocity": 117,
      "chip": "ym2612"
    },
    {
      "channel": 1,
      "note": 62,
      "start": 74.3631,
      "duration": 0.0799,
      "velocity": 106,
      "chip": "ym2612"
    },
    {
      "channel": 2,
      "note": 71,
      "start": 74.3678,
      "duration": 0.0763,
      "velocity": 127,
      "chip": "ym2612"
    },
    {
      "channel": 1,
      "note": 50,
      "start": 74.4633,
      "duration": 0.0805,
      "velocity": 117,
      "chip": "ym2612"
    },
    {
      "channel": 2,
      "note": 62,
      "start": 74.4675,
      "duration": 0.0756,
      "velocity": 106,
      "chip": "ym2612"
    },
    {
      "channel": 0,
      "note": 74,
      "start": 74.5482,
      "duration": 0.0778,
      "velocity": 127,
      "chip": "ym2612"
    },
    {
      "channel": 1,
      "note": 62,
      "start": 74.5524,
      "duration": 0.2571,
      "velocity": 101,
      "chip": "ym2612"
    },
    {
      "channel": 2,
      "note": 62,
      "start": 74.5566,
      "duration": 0.0702,
      "velocity": 106,
      "chip": "ym2612"
    },
    {
      "channel": 3,
      "note": 50,
      "start": 74.5618,
      "duration": 0.0161,
      "velocity": 117,
      "chip": "ym2612"
    },
    {
      "channel": 0,
      "note": 62,
      "start": 74.6464,
      "duration": 0.0798,
      "velocity": 106,
      "chip": "ym2612"
    },
    {
      "channel": 0,
      "note": 71,
      "start": 74.7469,
      "duration": 0.0816,
      "velocity": 127,
      "chip": "ym2612"
    },
    {
      "channel": 2,
      "note": 50,
      "start": 74.7514,
      "duration": 0.0759,
      "velocity": 117,
      "chip": "ym2612"
    },
    {
      "channel": 3,
      "note": 62,
      "start": 74.7556,
      "duration": 0.0709,
      "velocity": 106,
      "chip": "ym2612"
    },
    {
      "channel": 0,
      "note": 62,
      "start": 74.8327,
      "duration": 0.26,
      "velocity": 101,
      "chip": "ym2612"
    },
    {
      "channel": 1,
      "note": 62,
      "start": 74.8369,
      "duration": 0.0728,
      "velocity": 106,
      "chip": "ym2612"
    },
    {
      "channel": 2,
      "note": 50,
      "start": 74.8413,
      "duration": 0.0689,
      "velocity": 117,
      "chip": "ym2612"
    },
    {
      "channel": 1,
      "note": 71,
      "start": 74.9303,
      "duration": 0.0797,
      "velocity": 127,
      "chip": "ym2612"
    },
    {
      "channel": 2,
      "note": 62,
      "start": 74.9344,
      "duration": 0.0763,
      "velocity": 106,
      "chip": "ym2612"
    },
    {
      "channel": 1,
      "note": 50,
      "start": 75.03,
      "duration": 0.0802,
      "velocity": 117,
      "chip": "ym2612"
    },
    {
      "channel": 2,
      "note": 62,
      "start": 75.0341,
      "duration": 0.0756,
      "velocity": 106,
      "chip": "ym2612"
    },
    {
      "channel": 0,
      "note": 74,
      "start": 75.131,
      "duration": 0.0784,
      "velocity": 127,
      "chip": "ym2612"
    },
    {
      "channel": 1,
      "note": 62,
      "start": 75.1352,
      "duration": 0.0751,
      "velocity": 106,
      "chip": "ym2612"
    },
    {
      "channel": 2,
      "note": 62,
      "start": 75.1392,
      "duration": 0.2538,
      "velocity": 101,
      "chip": "ym2612"
    },
    {
      "channel": 0,
      "note": 62,
      "start": 75.2144,
      "duration": 0.0785,
      "velocity": 106,
      "chip": "ym2612"
    },
    {
      "channel": 0,
      "note": 62,
      "start": 75.3142,
      "duration": 0.0814,
      "velocity": 106,
      "chip": "ym2612"
    },
    {
      "channel": 1,
      "note": 50,
      "start": 75.3186,
      "duration": 0.0762,
      "velocity": 117,
      "chip": "ym2612"
    },
    {
      "channel": 3,
      "note": 71,
      "start": 75.3234,
      "duration": 0.0709,
      "velocity": 127,
      "chip": "ym2612"
    },
    {
      "channel": 0,
      "note": 62,
      "start": 75.4142,
      "duration": 0.2632,
      "velocity": 101,
      "chip": "ym2612"
    },
    {
      "channel": 1,
      "note": 62,
      "start": 75.4184,
      "duration": 0.0759,
      "velocity": 106,
      "chip": "ym2612"
    },
    {
      "channel": 2,
      "note": 50,
      "start": 75.4228,
      "duration": 0.0722,
      "velocity": 117,
      "chip": "ym2612"
    },
    {
      "channel": 1,
      "note": 62,
      "start": 75.4992,
      "duration": 0.0771,
      "velocity": 106,
      "chip": "ym2612"
    },
    {
      "channel": 2,
      "note": 71,
      "start": 75.5038,
      "duration": 0.0736,
      "velocity": 127,
      "chip": "ym2612"
    },
    {
      "channel": 1,
      "note": 62,
      "start": 75.5976,
      "duration": 0.0811,
      "velocity": 106,
      "chip": "ym2612"
    },
    {
      "channel": 2,
      "note": 50,
      "start": 75.602,
      "duration": 0.0759,
      "velocity": 117,
      "chip": "ym2612"
    },
    {
      "channel": 0,
      "note": 50,
      "start": 75.6966,
      "duration": 0.0806,
      "velocity": 117,
      "chip": "ym2612"
    },
    {
      "channel": 1,
      "note": 62,
      "start": 75.7007,
      "duration": 0.26,
      "velocity": 101,
      "chip": "ym2612"
    },
    {
      "channel": 2,
      "note": 62,
      "start": 75.7049,
      "duration": 0.0732,
      "velocity": 106,
      "chip": "ym2612"
    },
    {
      "channel": 0,
      "note": 50,
      "start": 75.7966,
      "duration": 0.0794,
      "velocity": 117,
      "chip": "ym2612"
    },
    {
      "channel": 2,
      "note": 62,
      "start": 75.8008,
      "duration": 0.0762,
      "velocity": 106,
      "chip": "ym2612"
    },
    {
      "channel": 0,
      "note": 50,
      "start": 75.8814,
      "duration": 0.0807,
      "velocity": 117,
      "chip": "ym2612"
    },
    {
      "channel": 2,
      "note": 62,
      "start": 75.8856,
      "duration": 0.0761,
      "velocity": 106,
      "chip": "ym2612"
    },
    {
      "channel": 0,
      "note": 50,
      "start": 75.98,
      "duration": 0.0793,
      "velocity": 117,
      "chip": "ym2612"
    },
    {
      "channel": 1,
      "note": 62,
      "start": 75.9842,
      "duration": 0.2587,
      "velocity": 101,
      "chip": "ym2612"
    },
    {
      "channel": 2,
      "note": 74,
      "start": 75.9889,
      "duration": 0.0725,
      "velocity": 127,
      "chip": "ym2612"
    },
    {
      "channel": 3,
      "note": 62,
      "start": 75.9932,
      "duration": 0.0671,
      "velocity": 106,
      "chip": "ym2612"
    },
    {
      "channel": 0,
      "note": 50,
      "start": 76.08,
      "duration": 0.0793,
      "velocity": 117,
      "chip": "ym2612"
    },
    {
      "channel": 2,
      "note": 62,
      "start": 76.0842,
      "duration": 0.0776,
      "velocity": 106,
      "chip": "ym2612"
    },
    {
      "channel": 3,
      "note": 74,
      "start": 76.0889,
      "duration": 0.0718,
      "velocity": 127,
      "chip": "ym2612"
    },
    {
      "channel": 0,
      "note": 74,
      "start": 76.1665,
      "duration": 0.079,
      "velocity": 127,
      "chip": "ym2612"
    },
    {
      "channel": 2,
      "note": 62,
      "start": 76.1708,
      "duration": 0.0737,
      "velocity": 106,
      "chip": "ym2612"
    },
    {
      "channel": 3,
      "note": 50,
      "start": 76.1753,
      "duration": 0.0683,
      "velocity": 117,
      "chip": "ym2612"
    },
    {
      "channel": 0,
      "note": 62,
      "start": 76.263,
      "duration": 0.2477,
      "velocity": 101,
      "chip": "ym2612"
    },
    {
      "channel": 1,
      "note": 62,
      "start": 76.2672,
      "duration": 0.0758,
      "velocity": 106,
      "chip": "ym2612"
    },
    {
      "channel": 2,
      "note": 74,
      "start": 76.272,
      "duration": 0.0728,
      "velocity": 127,
      "chip": "ym2612"
    },
    {
      "channel": 3,
      "note": 50,
      "start": 76.2765,
      "duration": 0.0672,
      "velocity": 117,
      "chip": "ym2612"
    },
    {
      "channel": 1,
      "note": 74,
      "start": 76.3637,
      "duration": 0.0796,
      "velocity": 127,
      "chip": "ym2612"
    },
    {
      "channel": 2,
      "note": 50,
      "start": 76.3681,
      "duration": 0.0766,
      "velocity": 117,
      "chip": "ym2612"
    },
    {
      "channel": 3,
      "note": 62,
      "start": 76.3723,
      "duration": 0.072,
      "velocity": 106,
      "chip": "ym2612"
    },
    {
      "channel": 1,
      "note": 74,
      "start": 76.4637,
      "duration": 0.0814,
      "velocity": 127,
      "chip": "ym2612"
    },
    {
      "channel": 2,
      "note": 62,
      "start": 76.4679,
      "duration": 0.076,
      "velocity": 106,
      "chip": "ym2612"
    },
    {
      "channel": 3,
      "note": 50,
      "start": 76.4723,
      "duration": 0.0705,
      "velocity": 117,
      "chip": "ym2612"
    },
    {
      "channel": 0,
      "note": 50,
      "start": 76.5495,
      "duration": 0.0766,
      "velocity": 101,
      "chip": "ym2612"
    },
    {
      "channel": 1,
      "note": 50,
      "start": 76.5539,
      "duration": 0.073,
      "velocity": 117,
      "chip": "ym2612"
    },
    {
      "channel": 0,
      "note": 71,
      "start": 76.6316,
      "duration": 0.0783,
      "velocity": 127,
      "chip": "ym2612"
    },
    {
      "channel": 1,
      "note": 53,
      "start": 76.6356,
      "duration": 0.0749,
      "velocity": 101,
      "chip": "ym2612"
    },
    {
      "channel": 0,
      "note": 55,
      "start": 76.7296,
      "duration": 0.0798,
      "velocity": 101,
      "chip": "ym2612"
    },
    {
      "channel": 1,
      "note": 50,
      "start": 76.7339,
      "duration": 0.0761,
      "velocity": 117,
      "chip": "ym2612"
    },
    {
      "channel": 0,
      "note": 74,
      "start": 76.8298,
      "duration": 0.1796,
      "velocity": 127,
      "chip": "ym2612"
    },
    {
      "channel": 1,
      "note": 57,
      "start": 76.8338,
      "duration": 0.1764,
      "velocity": 101,
      "chip": "ym2612"
    },
    {
      "channel": 2,
      "note": 50,
      "start": 76.8389,
      "duration": 0.0211,
      "velocity": 117,
      "chip": "ym2612"
    },
    {
      "channel": 0,
      "note": 71,
      "start": 77.015,
      "duration": 0.0782,
      "velocity": 127,
      "chip": "ym2612"
    },
    {
      "channel": 1,
      "note": 55,
      "start": 77.0191,
      "duration": 0.0754,
      "velocity": 101,
      "chip": "ym2612"
    },
    {
      "channel": 2,
      "note": 50,
      "start": 77.0235,
      "duration": 0.0704,
      "velocity": 117,
      "chip": "ym2612"
    },
    {
      "channel": 0,
      "note": 56,
      "start": 77.113,
      "duration": 0.0798,
      "velocity": 101,
      "chip": "ym2612"
    },
    {
      "channel": 1,
      "note": 50,
      "start": 77.1173,
      "duration": 0.076,
      "velocity": 117,
      "chip": "ym2612"
    },
    {
      "channel": 0,
      "note": 71,
      "start": 77.2136,
      "duration": 0.0797,
      "velocity": 127,
      "chip": "ym2612"
    },
    {
      "channel": 1,
      "note": 57,
      "start": 77.2176,
      "duration": 0.0764,
      "velocity": 101,
      "chip": "ym2612"
    },
    {
      "channel": 0,
      "note": 60,
      "start": 77.2981,
      "duration": 0.078,
      "velocity": 101,
      "chip": "ym2612"
    },
    {
      "channel": 1,
      "note": 50,
      "start": 77.3024,
      "duration": 0.0742,
      "velocity": 117,
      "chip": "ym2612"
    },
    {
      "channel": 0,
      "note": 74,
      "start": 77.3964,
      "duration": 0.1796,
      "velocity": 127,
      "chip": "ym2612"
    },
    {
      "channel": 1,
      "note": 62,
      "start": 77.4005,
      "duration": 0.1761,
      "velocity": 101,
      "chip": "ym2612"
    },
    {
      "channel": 2,
      "note": 50,
      "start": 77.4056,
      "duration": 0.0224,
      "velocity": 117,
      "chip": "ym2612"
    },
    {
      "channel": 0,
      "note": 71,
      "start": 77.5969,
      "duration": 0.0797,
      "velocity": 127,
      "chip": "ym2612"
    },
    {
      "channel": 1,
      "note": 60,
      "start": 77.601,
      "duration": 0.0772,
      "velocity": 101,
      "chip": "ym2612"
    },
    {
      "channel": 2,
      "note": 50,
      "start": 77.6054,
      "duration": 0.0719,
      "velocity": 117,
      "chip": "ym2612"
    },
    {
      "channel": 0,
      "note": 53,
      "start": 77.6822,
      "duration": 0.0772,
      "velocity": 101,
      "chip": "ym2612"
    },
    {
      "channel": 1,
      "note": 50,
      "start": 77.6866,
      "duration": 0.0734,
      "velocity": 117,
      "chip": "ym2612"
    },
    {
      "channel": 0,
      "note": 71,
      "start": 77.7803,
      "duration": 0.0796,
      "velocity": 127,
      "chip": "ym2612"
    },
    {
      "channel": 1,
      "note": 55,
      "start": 77.7843,
      "duration": 0.0762,
      "velocity": 101,
      "chip": "ym2612"
    },
    {
      "channel": 0,
      "note": 50,
      "start": 77.8812,
      "duration": 0.0782,
      "velocity": 117,
      "chip": "ym2612"
    },
    {
      "channel": 1,
      "note": 57,
      "start": 77.8852,
      "duration": 0.0749,
      "velocity": 101,
      "chip": "ym2612"
    },
    {
      "channel": 0,
      "note": 74,
      "start": 77.9644,
      "duration": 0.1782,
      "velocity": 127,
      "chip": "ym2612"
    },
    {
      "channel": 1,
      "note": 60,
      "start": 77.9685,
      "duration": 0.0743,
      "velocity": 101,
      "chip": "ym2612"
    },
    {
      "channel": 2,
      "note": 50,
      "start": 77.9735,
      "duration": 0.0198,
      "velocity": 117,
      "chip": "ym2612"
    },
    {
      "channel": 1,
      "note": 57,
      "start": 78.0641,
      "duration": 0.0792,
      "velocity": 101,
      "chip": "ym2612"
    },
    {
      "channel": 0,
      "note": 71,
      "start": 78.1648,
      "duration": 0.0795,
      "velocity": 127,
      "chip": "ym2612"
    },
    {
      "channel": 1,
      "note": 60,
      "start": 78.1689,
      "duration": 0.0767,
      "velocity": 101,
      "chip": "ym2612"
    },
    {
      "channel": 2,
      "note": 50,
      "start": 78.1733,
      "duration": 0.0717,
      "velocity": 117,
      "chip": "ym2612"
    },
    {
      "channel": 0,
      "note": 62,
      "start": 78.2629,
      "duration": 0.0812,
      "velocity": 101,
      "chip": "ym2612"
    },
    {
      "channel": 1,
      "note": 50,
      "start": 78.2672,
      "duration": 0.0775,
      "velocity": 117,
      "chip": "ym2612"
    },
    {
      "channel": 0,
      "note": 71,
      "start": 78.3494,
      "duration": 0.0783,
      "velocity": 127,
      "chip": "ym2612"
    },
    {
      "channel": 1,
      "note": 60,
      "start": 78.3534,
      "duration": 0.0749,
      "velocity": 101,
      "chip": "ym2612"
    },
    {
      "channel": 0,
      "note": 53,
      "start": 78.4463,
      "duration": 0.0811,
      "velocity": 101,
      "chip": "ym2612"
    },
    {
      "channel": 1,
      "note": 50,
      "start": 78.4506,
      "duration": 0.0773,
      "velocity": 117,
      "chip": "ym2612"
    },
    {
      "channel": 0,
      "note": 50,
      "start": 78.5463,
      "duration": 0.08,
      "velocity": 101,
      "chip": "ym2612"
    },
    {
      "channel": 1,
      "note": 50,
      "start": 78.5506,
      "duration": 0.0763,
      "velocity": 117,
      "chip": "ym2612"
    },
    {
      "channel": 0,
      "note": 71,
      "start": 78.6316,
      "duration": 0.0795,
      "velocity": 127,
      "chip": "ym2612"
    },
    {
      "channel": 1,
      "note": 53,
      "start": 78.6356,
      "duration": 0.0761,
      "velocity": 101,
      "chip": "ym2612"
    },
    {
      "channel": 0,
      "note": 55,
      "start": 78.7296,
      "duration": 0.0798,
      "velocity": 101,
      "chip": "ym2612"
    },
    {
      "channel": 1,
      "note": 50,
      "start": 78.7339,
      "duration": 0.0761,
      "velocity": 117,
      "chip": "ym2612"
    },
    {
      "channel": 0,
      "note": 74,
      "start": 78.8298,
      "duration": 0.1796,
      "velocity": 127,
      "chip": "ym2612"
    },
    {
      "channel": 1,
      "note": 57,
      "start": 78.8338,
      "duration": 0.1764,
      "velocity": 101,
      "chip": "ym2612"
    },
    {
      "channel": 2,
      "note": 50,
      "start": 78.8389,
      "duration": 0.0211,
      "velocity": 117,
      "chip": "ym2612"
    },
    {
      "channel": 0,
      "note": 71,
      "start": 79.015,
      "duration": 0.0782,
      "velocity": 127,
      "chip": "ym2612"
    },
    {
      "channel": 1,
      "note": 55,
      "start": 79.0191,
      "duration": 0.0754,
      "velocity": 101,
      "chip": "ym2612"
    },
    {
      "channel": 2,
      "note": 50,
      "start": 79.0235,
      "duration": 0.0704,
      "velocity": 117,
      "chip": "ym2612"
    },
    {
      "channel": 0,
      "note": 56,
      "start": 79.113,
      "duration": 0.0798,
      "velocity": 101,
      "chip": "ym2612"
    },
    {
      "channel": 1,
      "note": 50,
      "start": 79.1173,
      "duration": 0.076,
      "velocity": 117,
      "chip": "ym2612"
    },
    {
      "channel": 0,
      "note": 71,
      "start": 79.2136,
      "duration": 0.0797,
      "velocity": 127,
      "chip": "ym2612"
    },
    {
      "channel": 1,
      "note": 57,
      "start": 79.2176,
      "duration": 0.0764,
      "velocity": 101,
      "chip": "ym2612"
    },
    {
      "channel": 0,
      "note": 60,
      "start": 79.2981,
      "duration": 0.078,
      "velocity": 101,
      "chip": "ym2612"
    },
    {
      "channel": 1,
      "note": 50,
      "start": 79.3024,
      "duration": 0.0742,
      "velocity": 117,
      "chip": "ym2612"
    },
    {
      "channel": 0,
      "note": 74,
      "start": 79.3964,
      "duration": 0.1796,
      "velocity": 127,
      "chip": "ym2612"
    },
    {
      "channel": 1,
      "note": 62,
      "start": 79.4005,
      "duration": 0.1761,
      "velocity": 101,
      "chip": "ym2612"
    },
    {
      "channel": 2,
      "note": 50,
      "start": 79.4056,
      "duration": 0.0211,
      "velocity": 117,
      "chip": "ym2612"
    },
    {
      "channel": 0,
      "note": 71,
      "start": 79.5969,
      "duration": 0.0797,
      "velocity": 127,
      "chip": "ym2612"
    },
    {
      "channel": 1,
      "note": 60,
      "start": 79.601,
      "duration": 0.0772,
      "velocity": 101,
      "chip": "ym2612"
    },
    {
      "channel": 2,
      "note": 50,
      "start": 79.6054,
      "duration": 0.072,
      "velocity": 117,
      "chip": "ym2612"
    },
    {
      "channel": 0,
      "note": 55,
      "start": 79.6822,
      "duration": 0.0772,
      "velocity": 101,
      "chip": "ym2612"
    },
    {
      "channel": 1,
      "note": 50,
      "start": 79.6866,
      "duration": 0.0734,
      "velocity": 117,
      "chip": "ym2612"
    },
    {
      "channel": 0,
      "note": 71,
      "start": 79.7802,
      "duration": 0.0796,
      "velocity": 127,
      "chip": "ym2612"
    },
    {
      "channel": 1,
      "note": 57,
      "start": 79.7842,
      "duration": 0.0763,
      "velocity": 101,
      "chip": "ym2612"
    },
    {
      "channel": 0,
      "note": 50,
      "start": 79.88,
      "duration": 0.0794,
      "velocity": 117,
      "chip": "ym2612"
    },
    {
      "channel": 1,
      "note": 60,
      "start": 79.884,
      "duration": 0.0762,
      "velocity": 101,
      "chip": "ym2612"
    },
    {
      "channel": 0,
      "note": 74,
      "start": 79.9644,
      "duration": 0.1782,
      "velocity": 127,
      "chip": "ym2612"
    },
    {
      "channel": 1,
      "note": 65,
      "start": 79.9685,
      "duration": 0.0743,
      "velocity": 101,
      "chip": "ym2612"
    },
    {
      "channel": 2,
      "note": 50,
      "start": 79.9735,
      "duration": 0.0211,
      "velocity": 117,
      "chip": "ym2612"
    },
    {
      "channel": 1,
      "note": 60,
      "start": 80.0629,
      "duration": 0.0804,
      "velocity": 101,
      "chip": "ym2612"
    },
    {
      "channel": 0,
      "note": 71,
      "start": 80.1636,
      "duration": 0.0796,
      "velocity": 127,
      "chip": "ym2612"
    },
    {
      "channel": 1,
      "note": 55,
      "start": 80.1677,
      "duration": 0.0768,
      "velocity": 101,
      "chip": "ym2612"
    },
    {
      "channel": 2,
      "note": 50,
      "start": 80.1721,
      "duration": 0.0717,
      "velocity": 117,
      "chip": "ym2612"
    },
    {
      "channel": 0,
      "note": 62,
      "start": 80.2641,
      "duration": 0.0787,
      "velocity": 101,
      "chip": "ym2612"
    },
    {
      "channel": 1,
      "note": 50,
      "start": 80.2685,
      "duration": 0.0751,
      "velocity": 117,
      "chip": "ym2612"
    },
    {
      "channel": 0,
      "note": 71,
      "start": 80.3482,
      "duration": 0.0783,
      "velocity": 127,
      "chip": "ym2612"
    },
    {
      "channel": 1,
      "note": 57,
      "start": 80.3522,
      "duration": 0.0749,
      "velocity": 101,
      "chip": "ym2612"
    },
    {
      "channel": 0,
      "note": 52,
      "start": 80.4474,
      "duration": 0.0787,
      "velocity": 101,
      "chip": "ym2612"
    },
    {
      "channel": 1,
      "note": 50,
      "start": 80.4518,
      "duration": 0.0748,
      "velocity": 117,
      "chip": "ym2612"
    },
    {
      "channel": 0,
      "note": 50,
      "start": 80.5475,
      "duration": 0.0799,
      "velocity": 101,
      "chip": "ym2612"
    },
    {
      "channel": 1,
      "note": 50,
      "start": 80.5518,
      "duration": 0.0762,
      "velocity": 117,
      "chip": "ym2612"
    },
    {
      "channel": 0,
      "note": 71,
      "start": 80.6328,
      "duration": 0.0771,
      "velocity": 127,
      "chip": "ym2612"
    },
    {
      "channel": 1,
      "note": 53,
      "start": 80.6368,
      "duration": 0.0737,
      "velocity": 101,
      "chip": "ym2612"
    },
    {
      "channel": 0,
      "note": 55,
      "start": 80.7309,
      "duration": 0.0798,
      "velocity": 101,
      "chip": "ym2612"
    },
    {
      "channel": 1,
      "note": 50,
      "start": 80.7352,
      "duration": 0.076,
      "velocity": 117,
      "chip": "ym2612"
    },
    {
      "channel": 0,
      "note": 74,
      "start": 80.8298,
      "duration": 0.1796,
      "velocity": 127,
      "chip": "ym2612"
    },
    {
      "channel": 1,
      "note": 57,
      "start": 80.8339,
      "duration": 0.1763,
      "velocity": 101,
      "chip": "ym2612"
    },
    {
      "channel": 2,
      "note": 50,
      "start": 80.8389,
      "duration": 0.0211,
      "velocity": 117,
      "chip": "ym2612"
    },
    {
      "channel": 0,
      "note": 71,
      "start": 81.015,
      "duration": 0.0795,
      "velocity": 127,
      "chip": "ym2612"
    },
    {
      "channel": 1,
      "note": 55,
      "start": 81.0191,
      "duration": 0.0766,
      "velocity": 101,
      "chip": "ym2612"
    },
    {
      "channel": 2,
      "note": 50,
      "start": 81.0235,
      "duration": 0.0716,
      "velocity": 117,
      "chip": "ym2612"
    },
    {
      "channel": 0,
      "note": 56,
      "start": 81.1129,
      "duration": 0.0799,
      "velocity": 101,
      "chip": "ym2612"
    },
    {
      "channel": 1,
      "note": 50,
      "start": 81.1173,
      "duration": 0.076,
      "velocity": 117,
      "chip": "ym2612"
    },
    {
      "channel": 0,
      "note": 71,
      "start": 81.2136,
      "duration": 0.0797,
      "velocity": 127,
      "chip": "ym2612"
    },
    {
      "channel": 1,
      "note": 57,
      "start": 81.2176,
      "duration": 0.0764,
      "velocity": 101,
      "chip": "ym2612"
    },
    {
      "channel": 0,
      "note": 60,
      "start": 81.2981,
      "duration": 0.078,
      "velocity": 101,
      "chip": "ym2612"
    },
    {
      "channel": 1,
      "note": 50,
      "start": 81.3024,
      "duration": 0.0742,
      "velocity": 117,
      "chip": "ym2612"
    },
    {
      "channel": 0,
      "note": 74,
      "start": 81.3964,
      "duration": 0.1796,
      "velocity": 127,
      "chip": "ym2612"
    },
    {
      "channel": 1,
      "note": 62,
      "start": 81.4005,
      "duration": 0.1761,
      "velocity": 101,
      "chip": "ym2612"
    },
    {
      "channel": 2,
      "note": 50,
      "start": 81.4056,
      "duration": 0.0211,
      "velocity": 117,
      "chip": "ym2612"
    },
    {
      "channel": 0,
      "note": 71,
      "start": 81.5969,
      "duration": 0.0797,
      "velocity": 127,
      "chip": "ym2612"
    },
    {
      "channel": 1,
      "note": 60,
      "start": 81.601,
      "duration": 0.0772,
      "velocity": 101,
      "chip": "ym2612"
    },
    {
      "channel": 2,
      "note": 50,
      "start": 81.6054,
      "duration": 0.072,
      "velocity": 117,
      "chip": "ym2612"
    },
    {
      "channel": 0,
      "note": 53,
      "start": 81.6822,
      "duration": 0.0772,
      "velocity": 101,
      "chip": "ym2612"
    },
    {
      "channel": 1,
      "note": 50,
      "start": 81.6866,
      "duration": 0.0734,
      "velocity": 117,
      "chip": "ym2612"
    },
    {
      "channel": 0,
      "note": 71,
      "start": 81.7803,
      "duration": 0.0796,
      "velocity": 127,
      "chip": "ym2612"
    },
    {
      "channel": 1,
      "note": 55,
      "start": 81.7843,
      "duration": 0.0762,
      "velocity": 101,
      "chip": "ym2612"
    },
    {
      "channel": 0,
      "note": 57,
      "start": 81.8796,
      "duration": 0.08,
      "velocity": 101,
      "chip": "ym2612"
    },
    {
      "channel": 1,
      "note": 50,
      "start": 81.884,
      "duration": 0.0763,
      "velocity": 117,
      "chip": "ym2612"
    },
    {
      "channel": 0,
      "note": 74,
      "start": 81.9645,
      "duration": 0.1782,
      "velocity": 127,
      "chip": "ym2612"
    },
    {
      "channel": 1,
      "note": 60,
      "start": 81.9686,
      "duration": 0.0742,
      "velocity": 101,
      "chip": "ym2612"
    },
    {
      "channel": 2,
      "note": 50,
      "start": 81.9736,
      "duration": 0.0198,
      "velocity": 117,
      "chip": "ym2612"
    },
    {
      "channel": 1,
      "note": 57,
      "start": 82.0629,
      "duration": 0.0804,
      "velocity": 101,
      "chip": "ym2612"
    },
    {
      "channel": 0,
      "note": 71,
      "start": 82.1636,
      "duration": 0.0796,
      "velocity": 127,
      "chip": "ym2612"
    },
    {
      "channel": 1,
      "note": 50,
      "start": 82.1681,
      "duration": 0.0765,
      "velocity": 117,
      "chip": "ym2612"
    },
    {
      "channel": 2,
      "note": 60,
      "start": 82.1721,
      "duration": 0.0719,
      "velocity": 101,
      "chip": "ym2612"
    },
    {
      "channel": 0,
      "note": 62,
      "start": 82.2629,
      "duration": 0.08,
      "velocity": 101,
      "chip": "ym2612"
    },
    {
      "channel": 1,
      "note": 50,
      "start": 82.2672,
      "duration": 0.0763,
      "velocity": 117,
      "chip": "ym2612"
    },
    {
      "channel": 0,
      "note": 71,
      "start": 82.3482,
      "duration": 0.0783,
      "velocity": 127,
      "chip": "ym2612"
    },
    {
      "channel": 1,
      "note": 60,
      "start": 82.3522,
      "duration": 0.0749,
      "velocity": 101,
      "chip": "ym2612"
    },
    {
      "channel": 0,
      "note": 53,
      "start": 82.4463,
      "duration": 0.0799,
      "velocity": 101,
      "chip": "ym2612"
    },
    {
      "channel": 1,
      "note": 50,
      "start": 82.4506,
      "duration": 0.0761,
      "velocity": 117,
      "chip": "ym2612"
    },
    {
      "channel": 0,
      "note": 50,
      "start": 82.5463,
      "duration": 0.08,
      "velocity": 101,
      "chip": "ym2612"
    },
    {
      "channel": 1,
      "note": 50,
      "start": 82.5506,
      "duration": 0.0762,
      "velocity": 117,
      "chip": "ym2612"
    },
    {
      "channel": 0,
      "note": 71,
      "start": 82.6316,
      "duration": 0.0783,
      "velocity": 127,
      "chip": "ym2612"
    },
    {
      "channel": 1,
      "note": 53,
      "start": 82.6356,
      "duration": 0.0749,
      "velocity": 101,
      "chip": "ym2612"
    },
    {
      "channel": 0,
      "note": 50,
      "start": 82.73,
      "duration": 0.0793,
      "velocity": 117,
      "chip": "ym2612"
    },
    {
      "channel": 1,
      "note": 55,
      "start": 82.734,
      "duration": 0.076,
      "velocity": 101,
      "chip": "ym2612"
    },
    {
      "channel": 0,
      "note": 74,
      "start": 82.831,
      "duration": 0.1796,
      "velocity": 127,
      "chip": "ym2612"
    },
    {
      "channel": 1,
      "note": 57,
      "start": 82.8351,
      "duration": 0.1763,
      "velocity": 101,
      "chip": "ym2612"
    },
    {
      "channel": 2,
      "note": 50,
      "start": 82.8401,
      "duration": 0.0199,
      "velocity": 117,
      "chip": "ym2612"
    },
    {
      "channel": 0,
      "note": 71,
      "start": 83.0163,
      "duration": 0.077,
      "velocity": 127,
      "chip": "ym2612"
    },
    {
      "channel": 1,
      "note": 55,
      "start": 83.0204,
      "duration": 0.0742,
      "velocity": 101,
      "chip": "ym2612"
    },
    {
      "channel": 2,
      "note": 50,
      "start": 83.0247,
      "duration": 0.0691,
      "velocity": 117,
      "chip": "ym2612"
    },
    {
      "channel": 0,
      "note": 56,
      "start": 83.1142,
      "duration": 0.0798,
      "velocity": 101,
      "chip": "ym2612"
    },
    {
      "channel": 1,
      "note": 50,
      "start": 83.1185,
      "duration": 0.076,
      "velocity": 117,
      "chip": "ym2612"
    },
    {
      "channel": 0,
      "note": 71,
      "start": 83.2136,
      "duration": 0.0809,
      "velocity": 127,
      "chip": "ym2612"
    },
    {
      "channel": 1,
      "note": 57,
      "start": 83.2176,
      "duration": 0.0776,
      "velocity": 101,
      "chip": "ym2612"
    },
    {
      "channel": 0,
      "note": 60,
      "start": 83.2993,
      "duration": 0.078,
      "velocity": 101,
      "chip": "ym2612"
    },
    {
      "channel": 1,
      "note": 50,
      "start": 83.3037,
      "duration": 0.0741,
      "velocity": 117,
      "chip": "ym2612"
    },
    {
      "channel": 0,
      "note": 74,
      "start": 83.3964,
      "duration": 0.1796,
      "velocity": 127,
      "chip": "ym2612"
    },
    {
      "channel": 1,
      "note": 62,
      "start": 83.4005,
      "duration": 0.1761,
      "velocity": 101,
      "chip": "ym2612"
    },
    {
      "channel": 2,
      "note": 50,
      "start": 83.4056,
      "duration": 0.0211,
      "velocity": 117,
      "chip": "ym2612"
    },
    {
      "channel": 0,
      "note": 71,
      "start": 83.5969,
      "duration": 0.0797,
      "velocity": 127,
      "chip": "ym2612"
    },
    {
      "channel": 1,
      "note": 50,
      "start": 83.6014,
      "duration": 0.0768,
      "velocity": 117,
      "chip": "ym2612"
    },
    {
      "channel": 2,
      "note": 60,
      "start": 83.6054,
      "duration": 0.0721,
      "velocity": 101,
      "chip": "ym2612"
    },
    {
      "channel": 0,
      "note": 55,
      "start": 83.6822,
      "duration": 0.0772,
      "velocity": 101,
      "chip": "ym2612"
    },
    {
      "channel": 1,
      "note": 50,
      "start": 83.6866,
      "duration": 0.0734,
      "velocity": 117,
      "chip": "ym2612"
    },
    {
      "channel": 0,
      "note": 71,
      "start": 83.7803,
      "duration": 0.0796,
      "velocity": 127,
      "chip": "ym2612"
    },
    {
      "channel": 1,
      "note": 57,
      "start": 83.7843,
      "duration": 0.0762,
      "velocity": 101,
      "chip": "ym2612"
    },
    {
      "channel": 0,
      "note": 60,
      "start": 83.8796,
      "duration": 0.08,
      "velocity": 101,
      "chip": "ym2612"
    },
    {
      "channel": 1,
      "note": 50,
      "start": 83.8839,
      "duration": 0.0763,
      "velocity": 117,
      "chip": "ym2612"
    },
    {
      "channel": 0,
      "note": 74,
      "start": 83.9645,
      "duration": 0.1782,
      "velocity": 127,
      "chip": "ym2612"
    },
    {
      "channel": 1,
      "note": 65,
      "start": 83.9686,
      "duration": 0.0742,
      "velocity": 101,
      "chip": "ym2612"
    },
    {
      "channel": 2,
      "note": 50,
      "start": 83.9736,
      "duration": 0.0198,
      "velocity": 117,
      "chip": "ym2612"
    },
    {
      "channel": 1,
      "note": 60,
      "start": 84.0629,
      "duration": 0.0804,
      "velocity": 101,
      "chip": "ym2612"
    },
    {
      "channel": 0,
      "note": 71,
      "start": 84.1636,
      "duration": 0.0796,
      "velocity": 127,
      "chip": "ym2612"
    },
    {
      "channel": 1,
      "note": 55,
      "start": 84.1677,
      "duration": 0.0768,
      "velocity": 101,
      "chip": "ym2612"
    },
    {
      "channel": 2,
      "note": 50,
      "start": 84.1721,
      "duration": 0.0717,
      "velocity": 117,
      "chip": "ym2612"
    },
    {
      "channel": 0,
      "note": 62,
      "start": 84.2629,
      "duration": 0.08,
      "velocity": 101,
      "chip": "ym2612"
    },
    {
      "channel": 1,
      "note": 50,
      "start": 84.2672,
      "duration": 0.0763,
      "velocity": 117,
      "chip": "ym2612"
    },
    {
      "channel": 0,
      "note": 71,
      "start": 84.3482,
      "duration": 0.0783,
      "velocity": 127,
      "chip": "ym2612"
    },
    {
      "channel": 1,
      "note": 57,
      "start": 84.3522,
      "duration": 0.0749,
      "velocity": 101,
      "chip": "ym2612"
    },
    {
      "channel": 0,
      "note": 52,
      "start": 84.4463,
      "duration": 0.0798,
      "velocity": 101,
      "chip": "ym2612"
    },
    {
      "channel": 1,
      "note": 50,
      "start": 84.4506,
      "duration": 0.076,
      "velocity": 117,
      "chip": "ym2612"
    },
    {
      "channel": 0,
      "note": 50,
      "start": 84.5463,
      "duration": 0.0799,
      "velocity": 101,
      "chip": "ym2612"
    },
    {
      "channel": 1,
      "note": 62,
      "start": 84.5505,
      "duration": 0.0775,
      "velocity": 106,
      "chip": "ym2612"
    },
    {
      "channel": 2,
      "note": 50,
      "start": 84.5549,
      "duration": 0.0721,
      "velocity": 117,
      "chip": "ym2612"
    },
    {
      "channel": 0,
      "note": 71,
      "start": 84.6328,
      "duration": 0.0772,
      "velocity": 127,
      "chip": "ym2612"
    },
    {
      "channel": 1,
      "note": 53,
      "start": 84.6368,
      "duration": 0.0746,
      "velocity": 101,
      "chip": "ym2612"
    },
    {
      "channel": 2,
      "note": 65,
      "start": 84.641,
      "duration": 0.0698,
      "velocity": 106,
      "chip": "ym2612"
    },
    {
      "channel": 0,
      "note": 55,
      "start": 84.7296,
      "duration": 0.0798,
      "velocity": 101,
      "chip": "ym2612"
    },
    {
      "channel": 1,
      "note": 50,
      "start": 84.734,
      "duration": 0.0768,
      "velocity": 117,
      "chip": "ym2612"
    },
    {
      "channel": 2,
      "note": 67,
      "start": 84.7382,
      "duration": 0.0721,
      "velocity": 106,
      "chip": "ym2612"
    },
    {
      "channel": 0,
      "note": 74,
      "start": 84.8298,
      "duration": 0.1796,
      "velocity": 127,
      "chip": "ym2612"
    },
    {
      "channel": 1,
      "note": 57,
      "start": 84.834,
      "duration": 0.1775,
      "velocity": 101,
      "chip": "ym2612"
    },
    {
      "channel": 2,
      "note": 69,
      "start": 84.8382,
      "duration": 0.1724,
      "velocity": 106,
      "chip": "ym2612"
    },
    {
      "channel": 3,
      "note": 50,
      "start": 84.8434,
      "duration": 0.0167,
      "velocity": 117,
      "chip": "ym2612"
    },
    {
      "channel": 0,
      "note": 71,
      "start": 85.0163,
      "duration": 0.077,
      "velocity": 127,
      "chip": "ym2612"
    },
    {
      "channel": 1,
      "note": 55,
      "start": 85.0204,
      "duration": 0.0751,
      "velocity": 101,
      "chip": "ym2612"
    },
    {
      "channel": 2,
      "note": 67,
      "start": 85.0246,
      "duration": 0.0703,
      "velocity": 106,
      "chip": "ym2612"
    },
    {
      "channel": 3,
      "note": 50,
      "start": 85.0292,
      "duration": 0.0648,
      "velocity": 117,
      "chip": "ym2612"
    },
    {
      "channel": 0,
      "note": 56,
      "start": 85.113,
      "duration": 0.0798,
      "velocity": 101,
      "chip": "ym2612"
    },
    {
      "channel": 1,
      "note": 68,
      "start": 85.1172,
      "duration": 0.0771,
      "velocity": 106,
      "chip": "ym2612"
    },
    {
      "channel": 2,
      "note": 50,
      "start": 85.1216,
      "duration": 0.0719,
      "velocity": 117,
      "chip": "ym2612"
    },
    {
      "channel": 0,
      "note": 71,
      "start": 85.2148,
      "duration": 0.0785,
      "velocity": 127,
      "chip": "ym2612"
    },
    {
      "channel": 1,
      "note": 57,
      "start": 85.2189,
      "duration": 0.0763,
      "velocity": 101,
      "chip": "ym2612"
    },
    {
      "channel": 2,
      "note": 69,
      "start": 85.2231,
      "duration": 0.0713,
      "velocity": 106,
      "chip": "ym2612"
    },
    {
      "channel": 0,
      "note": 60,
      "start": 85.2994,
      "duration": 0.0768,
      "velocity": 101,
      "chip": "ym2612"
    },
    {
      "channel": 1,
      "note": 72,
      "start": 85.3036,
      "duration": 0.0739,
      "velocity": 106,
      "chip": "ym2612"
    },
    {
      "channel": 2,
      "note": 50,
      "start": 85.308,
      "duration": 0.0688,
      "velocity": 117,
      "chip": "ym2612"
    },
    {
      "channel": 0,
      "note": 74,
      "start": 85.3977,
      "duration": 0.1795,
      "velocity": 127,
      "chip": "ym2612"
    },
    {
      "channel": 1,
      "note": 62,
      "start": 85.4018,
      "duration": 0.1769,
      "velocity": 101,
      "chip": "ym2612"
    },
    {
      "channel": 2,
      "note": 74,
      "start": 85.4061,
      "duration": 0.172,
      "velocity": 106,
      "chip": "ym2612"
    },
    {
      "channel": 3,
      "note": 50,
      "start": 85.4113,
      "duration": 0.0155,
      "velocity": 117,
      "chip": "ym2612"
    },
    {
      "channel": 0,
      "note": 71,
      "start": 85.597,
      "duration": 0.0809,
      "velocity": 127,
      "chip": "ym2612"
    },
    {
      "channel": 1,
      "note": 50,
      "start": 85.6015,
      "duration": 0.0793,
      "velocity": 117,
      "chip": "ym2612"
    },
    {
      "channel": 2,
      "note": 60,
      "start": 85.6056,
      "duration": 0.0745,
      "velocity": 101,
      "chip": "ym2612"
    },
    {
      "channel": 3,
      "note": 72,
      "start": 85.6099,
      "duration": 0.0692,
      "velocity": 106,
      "chip": "ym2612"
    },
    {
      "channel": 0,
      "note": 50,
      "start": 85.6852,
      "duration": 0.0753,
      "velocity": 117,
      "chip": "ym2612"
    },
    {
      "channel": 1,
      "note": 53,
      "start": 85.6893,
      "duration": 0.0728,
      "velocity": 101,
      "chip": "ym2612"
    },
    {
      "channel": 2,
      "note": 65,
      "start": 85.6937,
      "duration": 0.0678,
      "velocity": 106,
      "chip": "ym2612"
    },
    {
      "channel": 0,
      "note": 71,
      "start": 85.7803,
      "duration": 0.0809,
      "velocity": 127,
      "chip": "ym2612"
    },
    {
      "channel": 1,
      "note": 55,
      "start": 85.7844,
      "duration": 0.0783,
      "velocity": 101,
      "chip": "ym2612"
    },
    {
      "channel": 2,
      "note": 67,
      "start": 85.7885,
      "duration": 0.0735,
      "velocity": 106,
      "chip": "ym2612"
    },
    {
      "channel": 0,
      "note": 50,
      "start": 85.88,
      "duration": 0.0794,
      "velocity": 117,
      "chip": "ym2612"
    },
    {
      "channel": 1,
      "note": 57,
      "start": 85.8841,
      "duration": 0.0773,
      "velocity": 101,
      "chip": "ym2612"
    },
    {
      "channel": 2,
      "note": 69,
      "start": 85.8882,
      "duration": 0.0723,
      "velocity": 106,
      "chip": "ym2612"
    },
    {
      "channel": 0,
      "note": 60,
      "start": 85.9656,
      "duration": 0.0784,
      "velocity": 101,
      "chip": "ym2612"
    },
    {
      "channel": 1,
      "note": 72,
      "start": 85.9698,
      "duration": 0.0749,
      "velocity": 106,
      "chip": "ym2612"
    },
    {
      "channel": 2,
      "note": 74,
      "start": 85.974,
      "duration": 0.1688,
      "velocity": 127,
      "chip": "ym2612"
    },
    {
      "channel": 3,
      "note": 50,
      "start": 85.9793,
      "duration": 0.0141,
      "velocity": 117,
      "chip": "ym2612"
    },
    {
      "channel": 0,
      "note": 57,
      "start": 86.063,
      "duration": 0.0813,
      "velocity": 101,
      "chip": "ym2612"
    },
    {
      "channel": 1,
      "note": 69,
      "start": 86.0671,
      "duration": 0.0766,
      "velocity": 106,
      "chip": "ym2612"
    },
    {
      "channel": 0,
      "note": 71,
      "start": 86.1636,
      "duration": 0.0797,
      "velocity": 127,
      "chip": "ym2612"
    },
    {
      "channel": 1,
      "note": 60,
      "start": 86.1678,
      "duration": 0.0778,
      "velocity": 101,
      "chip": "ym2612"
    },
    {
      "channel": 2,
      "note": 72,
      "start": 86.172,
      "duration": 0.0729,
      "velocity": 106,
      "chip": "ym2612"
    },
    {
      "channel": 3,
      "note": 50,
      "start": 86.1765,
      "duration": 0.0675,
      "velocity": 117,
      "chip": "ym2612"
    },
    {
      "channel": 0,
      "note": 50,
      "start": 86.2633,
      "duration": 0.0794,
      "velocity": 117,
      "chip": "ym2612"
    },
    {
      "channel": 1,
      "note": 62,
      "start": 86.2674,
      "duration": 0.0772,
      "velocity": 101,
      "chip": "ym2612"
    },
    {
      "channel": 2,
      "note": 74,
      "start": 86.2716,
      "duration": 0.0722,
      "velocity": 106,
      "chip": "ym2612"
    },
    {
      "channel": 0,
      "note": 71,
      "start": 86.3494,
      "duration": 0.0772,
      "velocity": 127,
      "chip": "ym2612"
    },
    {
      "channel": 1,
      "note": 60,
      "start": 86.3534,
      "duration": 0.0747,
      "velocity": 101,
      "chip": "ym2612"
    },
    {
      "channel": 2,
      "note": 72,
      "start": 86.3576,
      "duration": 0.0698,
      "velocity": 106,
      "chip": "ym2612"
    },
    {
      "channel": 0,
      "note": 53,
      "start": 86.4463,
      "duration": 0.0798,
      "velocity": 101,
      "chip": "ym2612"
    },
    {
      "channel": 1,
      "note": 50,
      "start": 86.4507,
      "duration": 0.0768,
      "velocity": 117,
      "chip": "ym2612"
    },
    {
      "channel": 2,
      "note": 65,
      "start": 86.4549,
      "duration": 0.0721,
      "velocity": 106,
      "chip": "ym2612"
    },
    {
      "channel": 0,
      "note": 50,
      "start": 86.5463,
      "duration": 0.0799,
      "velocity": 101,
      "chip": "ym2612"
    },
    {
      "channel": 1,
      "note": 62,
      "start": 86.5505,
      "duration": 0.0775,
      "velocity": 106,
      "chip": "ym2612"
    },
    {
      "channel": 2,
      "note": 50,
      "start": 86.5549,
      "duration": 0.0721,
      "velocity": 117,
      "chip": "ym2612"
    },
    {
      "channel": 0,
      "note": 71,
      "start": 86.6328,
      "duration": 0.0771,
      "velocity": 127,
      "chip": "ym2612"
    },
    {
      "channel": 1,
      "note": 53,
      "start": 86.6368,
      "duration": 0.0746,
      "velocity": 101,
      "chip": "ym2612"
    },
    {
      "channel": 2,
      "note": 65,
      "start": 86.641,
      "duration": 0.0697,
      "velocity": 106,
      "chip": "ym2612"
    },
    {
      "channel": 0,
      "note": 55,
      "start": 86.7296,
      "duration": 0.0798,
      "velocity": 101,
      "chip": "ym2612"
    },
    {
      "channel": 1,
      "note": 50,
      "start": 86.734,
      "duration": 0.0768,
      "velocity": 117,
      "chip": "ym2612"
    },
    {
      "channel": 2,
      "note": 67,
      "start": 86.7382,
      "duration": 0.0721,
      "velocity": 106,
      "chip": "ym2612"
    },
    {
      "channel": 0,
      "note": 74,
      "start": 86.8298,
      "duration": 0.1796,
      "velocity": 127,
      "chip": "ym2612"
    },
    {
      "channel": 1,
      "note": 57,
      "start": 86.834,
      "duration": 0.1775,
      "velocity": 101,
      "chip": "ym2612"
    },
    {
      "channel": 2,
      "note": 69,
      "start": 86.8382,
      "duration": 0.1723,
      "velocity": 106,
      "chip": "ym2612"
    },
    {
      "channel": 3,
      "note": 50,
      "start": 86.8434,
      "duration": 0.0179,
      "velocity": 117,
      "chip": "ym2612"
    },
    {
      "channel": 0,
      "note": 71,
      "start": 87.0163,
      "duration": 0.077,
      "velocity": 127,
      "chip": "ym2612"
    },
    {
      "channel": 1,
      "note": 50,
      "start": 87.0208,
      "duration": 0.0748,
      "velocity": 117,
      "chip": "ym2612"
    },
    {
      "channel": 2,
      "note": 55,
      "start": 87.0249,
      "duration": 0.0701,
      "velocity": 101,
      "chip": "ym2612"
    },
    {
      "channel": 3,
      "note": 67,
      "start": 87.0292,
      "duration": 0.0651,
      "velocity": 106,
      "chip": "ym2612"
    },
    {
      "channel": 0,
      "note": 56,
      "start": 87.113,
      "duration": 0.0798,
      "velocity": 101,
      "chip": "ym2612"
    },
    {
      "channel": 1,
      "note": 68,
      "start": 87.1172,
      "duration": 0.0771,
      "velocity": 106,
      "chip": "ym2612"
    },
    {
      "channel": 2,
      "note": 50,
      "start": 87.1216,
      "duration": 0.0719,
      "velocity": 117,
      "chip": "ym2612"
    },
    {
      "channel": 0,
      "note": 71,
      "start": 87.2136,
      "duration": 0.0797,
      "velocity": 127,
      "chip": "ym2612"
    },
    {
      "channel": 1,
      "note": 57,
      "start": 87.2177,
      "duration": 0.0776,
      "velocity": 101,
      "chip": "ym2612"
    },
    {
      "channel": 2,
      "note": 69,
      "start": 87.2218,
      "duration": 0.0726,
      "velocity": 106,
      "chip": "ym2612"
    },
    {
      "channel": 0,
      "note": 60,
      "start": 87.2994,
      "duration": 0.0767,
      "velocity": 101,
      "chip": "ym2612"
    },
    {
      "channel": 1,
      "note": 50,
      "start": 87.3038,
      "duration": 0.0737,
      "velocity": 117,
      "chip": "ym2612"
    },
    {
      "channel": 2,
      "note": 72,
      "start": 87.308,
      "duration": 0.069,
      "velocity": 106,
      "chip": "ym2612"
    },
    {
      "channel": 0,
      "note": 74,
      "start": 87.3965,
      "duration": 0.1795,
      "velocity": 127,
      "chip": "ym2612"
    },
    {
      "channel": 1,
      "note": 62,
      "start": 87.4006,
      "duration": 0.177,
      "velocity": 101,
      "chip": "ym2612"
    },
    {
      "channel": 2,
      "note": 74,
      "start": 87.4048,
      "duration": 0.1722,
      "velocity": 106,
      "chip": "ym2612"
    },
    {
      "channel": 3,
      "note": 50,
      "start": 87.41,
      "duration": 0.0167,
      "velocity": 117,
      "chip": "ym2612"
    },
    {
      "channel": 0,
      "note": 71,
      "start": 87.5982,
      "duration": 0.0785,
      "velocity": 127,
      "chip": "ym2612"
    },
    {
      "channel": 1,
      "note": 50,
      "start": 87.6027,
      "duration": 0.0769,
      "velocity": 117,
      "chip": "ym2612"
    },
    {
      "channel": 2,
      "note": 60,
      "start": 87.6067,
      "duration": 0.0722,
      "velocity": 101,
      "chip": "ym2612"
    },
    {
      "channel": 3,
      "note": 72,
      "start": 87.6111,
      "duration": 0.0669,
      "velocity": 106,
      "chip": "ym2612"
    },
    {
      "channel": 0,
      "note": 55,
      "start": 87.6837,
      "duration": 0.0758,
      "velocity": 101,
      "chip": "ym2612"
    },
    {
      "channel": 1,
      "note": 67,
      "start": 87.6879,
      "duration": 0.073,
      "velocity": 106,
      "chip": "ym2612"
    },
    {
      "channel": 2,
      "note": 50,
      "start": 87.6924,
      "duration": 0.0677,
      "velocity": 117,
      "chip": "ym2612"
    },
    {
      "channel": 0,
      "note": 71,
      "start": 87.7814,
      "duration": 0.0784,
      "velocity": 127,
      "chip": "ym2612"
    },
    {
      "channel": 1,
      "note": 57,
      "start": 87.7855,
      "duration": 0.076,
      "velocity": 101,
      "chip": "ym2612"
    },
    {
      "channel": 2,
      "note": 69,
      "start": 87.7897,
      "duration": 0.0711,
      "velocity": 106,
      "chip": "ym2612"
    },
    {
      "channel": 0,
      "note": 50,
      "start": 87.8812,
      "duration": 0.0794,
      "velocity": 117,
      "chip": "ym2612"
    },
    {
      "channel": 1,
      "note": 60,
      "start": 87.8853,
      "duration": 0.0773,
      "velocity": 101,
      "chip": "ym2612"
    },
    {
      "channel": 2,
      "note": 72,
      "start": 87.8894,
      "duration": 0.0723,
      "velocity": 106,
      "chip": "ym2612"
    },
    {
      "channel": 0,
      "note": 65,
      "start": 87.9668,
      "duration": 0.0759,
      "velocity": 101,
      "chip": "ym2612"
    },
    {
      "channel": 1,
      "note": 74,
      "start": 87.9711,
      "duration": 0.1729,
      "velocity": 127,
      "chip": "ym2612"
    },
    {
      "channel": 2,
      "note": 77,
      "start": 87.9754,
      "duration": 0.0682,
      "velocity": 106,
      "chip": "ym2612"
    },
    {
      "channel": 3,
      "note": 50,
      "start": 87.9805,
      "duration": 0.0129,
      "velocity": 117,
      "chip": "ym2612"
    },
    {
      "channel": 0,
      "note": 60,
      "start": 88.0642,
      "duration": 0.0813,
      "velocity": 101,
      "chip": "ym2612"
    },
    {
      "channel": 2,
      "note": 72,
      "start": 88.0683,
      "duration": 0.0766,
      "velocity": 106,
      "chip": "ym2612"
    },
    {
      "channel": 0,
      "note": 71,
      "start": 88.1637,
      "duration": 0.0808,
      "velocity": 127,
      "chip": "ym2612"
    },
    {
      "channel": 1,
      "note": 55,
      "start": 88.1678,
      "duration": 0.0789,
      "velocity": 101,
      "chip": "ym2612"
    },
    {
      "channel": 2,
      "note": 50,
      "start": 88.1723,
      "duration": 0.0739,
      "velocity": 117,
      "chip": "ym2612"
    },
    {
      "channel": 3,
      "note": 67,
      "start": 88.1766,
      "duration": 0.0689,
      "velocity": 106,
      "chip": "ym2612"
    },
    {
      "channel": 0,
      "note": 50,
      "start": 88.2633,
      "duration": 0.0794,
      "velocity": 117,
      "chip": "ym2612"
    },
    {
      "channel": 1,
      "note": 62,
      "start": 88.2674,
      "duration": 0.0772,
      "velocity": 101,
      "chip": "ym2612"
    },
    {
      "channel": 2,
      "note": 74,
      "start": 88.2716,
      "duration": 0.0722,
      "velocity": 106,
      "chip": "ym2612"
    },
    {
      "channel": 0,
      "note": 71,
      "start": 88.3494,
      "duration": 0.0784,
      "velocity": 127,
      "chip": "ym2612"
    },
    {
      "channel": 1,
      "note": 57,
      "start": 88.3535,
      "duration": 0.0758,
      "velocity": 101,
      "chip": "ym2612"
    },
    {
      "channel": 2,
      "note": 69,
      "start": 88.3576,
      "duration": 0.071,
      "velocity": 106,
      "chip": "ym2612"
    },
    {
      "channel": 0,
      "note": 52,
      "start": 88.4463,
      "duration": 0.0798,
      "velocity": 101,
      "chip": "ym2612"
    },
    {
      "channel": 1,
      "note": 64,
      "start": 88.4505,
      "duration": 0.0771,
      "velocity": 106,
      "chip": "ym2612"
    },
    {
      "channel": 2,
      "note": 50,
      "start": 88.4549,
      "duration": 0.0719,
      "velocity": 117,
      "chip": "ym2612"
    },
    {
      "channel": 0,
      "note": 50,
      "start": 88.5466,
      "duration": 0.0794,
      "velocity": 117,
      "chip": "ym2612"
    },
    {
      "channel": 1,
      "note": 50,
      "start": 88.5507,
      "duration": 0.0772,
      "velocity": 101,
      "chip": "ym2612"
    },
    {
      "channel": 2,
      "note": 62,
      "start": 88.5549,
      "duration": 0.0722,
      "velocity": 106,
      "chip": "ym2612"
    },
    {
      "channel": 0,
      "note": 71,
      "start": 88.6327,
      "duration": 0.0772,
      "velocity": 127,
      "chip": "ym2612"
    },
    {
      "channel": 1,
      "note": 53,
      "start": 88.6368,
      "duration": 0.0747,
      "velocity": 101,
      "chip": "ym2612"
    },
    {
      "channel": 2,
      "note": 65,
      "start": 88.6409,
      "duration": 0.0699,
      "velocity": 106,
      "chip": "ym2612"
    },
    {
      "channel": 0,
      "note": 55,
      "start": 88.7296,
      "duration": 0.0798,
      "velocity": 101,
      "chip": "ym2612"
    },
    {
      "channel": 1,
      "note": 50,
      "start": 88.734,
      "duration": 0.0768,
      "velocity": 117,
      "chip": "ym2612"
    },
    {
      "channel": 2,
      "note": 67,
      "start": 88.7382,
      "duration": 0.0721,
      "velocity": 106,
      "chip": "ym2612"
    },
    {
      "channel": 0,
      "note": 57,
      "start": 88.8297,
      "duration": 0.1798,
      "velocity": 101,
      "chip": "ym2612"
    },
    {
      "channel": 1,
      "note": 74,
      "start": 88.834,
      "duration": 0.1776,
      "velocity": 127,
      "chip": "ym2612"
    },
    {
      "channel": 2,
      "note": 69,
      "start": 88.8382,
      "duration": 0.1724,
      "velocity": 106,
      "chip": "ym2612"
    },
    {
      "channel": 3,
      "note": 50,
      "start": 88.8434,
      "duration": 0.0167,
      "velocity": 117,
      "chip": "ym2612"
    },
    {
      "channel": 0,
      "note": 71,
      "start": 89.0163,
      "duration": 0.0769,
      "velocity": 127,
      "chip": "ym2612"
    },
    {
      "channel": 1,
      "note": 50,
      "start": 89.0209,
      "duration": 0.0747,
      "velocity": 117,
      "chip": "ym2612"
    },
    {
      "channel": 2,
      "note": 55,
      "start": 89.0251,
      "duration": 0.07,
      "velocity": 101,
      "chip": "ym2612"
    },
    {
      "channel": 3,
      "note": 67,
      "start": 89.0293,
      "duration": 0.065,
      "velocity": 106,
      "chip": "ym2612"
    },
    {
      "channel": 0,
      "note": 56,
      "start": 89.113,
      "duration": 0.0798,
      "velocity": 101,
      "chip": "ym2612"
    },
    {
      "channel": 1,
      "note": 68,
      "start": 89.1172,
      "duration": 0.0771,
      "velocity": 106,
      "chip": "ym2612"
    },
    {
      "channel": 2,
      "note": 50,
      "start": 89.1216,
      "duration": 0.0719,
      "velocity": 117,
      "chip": "ym2612"
    },
    {
      "channel": 0,
      "note": 71,
      "start": 89.2136,
      "duration": 0.0797,
      "velocity": 127,
      "chip": "ym2612"
    },
    {
      "channel": 1,
      "note": 57,
      "start": 89.2177,
      "duration": 0.0776,
      "velocity": 101,
      "chip": "ym2612"
    },
    {
      "channel": 2,
      "note": 69,
      "start": 89.2218,
      "duration": 0.0726,
      "velocity": 106,
      "chip": "ym2612"
    },
    {
      "channel": 0,
      "note": 60,
      "start": 89.2994,
      "duration": 0.0767,
      "velocity": 101,
      "chip": "ym2612"
    },
    {
      "channel": 1,
      "note": 72,
      "start": 89.3036,
      "duration": 0.074,
      "velocity": 106,
      "chip": "ym2612"
    },
    {
      "channel": 2,
      "note": 50,
      "start": 89.308,
      "duration": 0.0688,
      "velocity": 117,
      "chip": "ym2612"
    },
    {
      "channel": 0,
      "note": 74,
      "start": 89.3965,
      "duration": 0.1796,
      "velocity": 127,
      "chip": "ym2612"
    },
    {
      "channel": 1,
      "note": 62,
      "start": 89.4006,
      "duration": 0.177,
      "velocity": 101,
      "chip": "ym2612"
    },
    {
      "channel": 2,
      "note": 74,
      "start": 89.4048,
      "duration": 0.1722,
      "velocity": 106,
      "chip": "ym2612"
    },
    {
      "channel": 3,
      "note": 50,
      "start": 89.41,
      "duration": 0.0179,
      "velocity": 117,
      "chip": "ym2612"
    },
    {
      "channel": 0,
      "note": 71,
      "start": 89.5969,
      "duration": 0.0798,
      "velocity": 127,
      "chip": "ym2612"
    },
    {
      "channel": 1,
      "note": 60,
      "start": 89.6011,
      "duration": 0.0785,
      "velocity": 101,
      "chip": "ym2612"
    },
    {
      "channel": 2,
      "note": 72,
      "start": 89.6054,
      "duration": 0.0733,
      "velocity": 106,
      "chip": "ym2612"
    },
    {
      "channel": 3,
      "note": 50,
      "start": 89.6099,
      "duration": 0.0677,
      "velocity": 117,
      "chip": "ym2612"
    },
    {
      "channel": 0,
      "note": 53,
      "start": 89.6837,
      "duration": 0.0758,
      "velocity": 101,
      "chip": "ym2612"
    },
    {
      "channel": 1,
      "note": 50,
      "start": 89.6881,
      "duration": 0.0728,
      "velocity": 117,
      "chip": "ym2612"
    },
    {
      "channel": 2,
      "note": 65,
      "start": 89.6924,
      "duration": 0.0679,
      "velocity": 106,
      "chip": "ym2612"
    },
    {
      "channel": 0,
      "note": 71,
      "start": 89.7803,
      "duration": 0.0796,
      "velocity": 127,
      "chip": "ym2612"
    },
    {
      "channel": 1,
      "note": 55,
      "start": 89.7844,
      "duration": 0.077,
      "velocity": 101,
      "chip": "ym2612"
    },
    {
      "channel": 2,
      "note": 67,
      "start": 89.7885,
      "duration": 0.0723,
      "velocity": 106,
      "chip": "ym2612"
    },
    {
      "channel": 0,
      "note": 57,
      "start": 89.8796,
      "duration": 0.0798,
      "velocity": 101,
      "chip": "ym2612"
    },
    {
      "channel": 1,
      "note": 69,
      "start": 89.8838,
      "duration": 0.0776,
      "velocity": 106,
      "chip": "ym2612"
    },
    {
      "channel": 2,
      "note": 50,
      "start": 89.8882,
      "duration": 0.0721,
      "velocity": 117,
      "chip": "ym2612"
    },
    {
      "channel": 0,
      "note": 60,
      "start": 89.9656,
      "duration": 0.0772,
      "velocity": 101,
      "chip": "ym2612"
    },
    {
      "channel": 1,
      "note": 74,
      "start": 89.9699,
      "duration": 0.1728,
      "velocity": 127,
      "chip": "ym2612"
    },
    {
      "channel": 2,
      "note": 72,
      "start": 89.9741,
      "duration": 0.0695,
      "velocity": 106,
      "chip": "ym2612"
    },
    {
      "channel": 3,
      "note": 50,
      "start": 89.9794,
      "duration": 0.0141,
      "velocity": 117,
      "chip": "ym2612"
    },
    {
      "channel": 0,
      "note": 57,
      "start": 90.0629,
      "duration": 0.0814,
      "velocity": 101,
      "chip": "ym2612"
    },
    {
      "channel": 2,
      "note": 69,
      "start": 90.0671,
      "duration": 0.0766,
      "velocity": 106,
      "chip": "ym2612"
    },
    {
      "channel": 0,
      "note": 71,
      "start": 90.1649,
      "duration": 0.0784,
      "velocity": 127,
      "chip": "ym2612"
    },
    {
      "channel": 1,
      "note": 50,
      "start": 90.1694,
      "duration": 0.0761,
      "velocity": 117,
      "chip": "ym2612"
    },
    {
      "channel": 2,
      "note": 60,
      "start": 90.1735,
      "duration": 0.0716,
      "velocity": 101,
      "chip": "ym2612"
    },
    {
      "channel": 3,
      "note": 72,
      "start": 90.1778,
      "duration": 0.0665,
      "velocity": 106,
      "chip": "ym2612"
    },
    {
      "channel": 0,
      "note": 50,
      "start": 90.2646,
      "duration": 0.0793,
      "velocity": 117,
      "chip": "ym2612"
    },
    {
      "channel": 1,
      "note": 62,
      "start": 90.2686,
      "duration": 0.0772,
      "velocity": 101,
      "chip": "ym2612"
    },
    {
      "channel": 2,
      "note": 74,
      "start": 90.2728,
      "duration": 0.0722,
      "velocity": 106,
      "chip": "ym2612"
    },
    {
      "channel": 0,
      "note": 71,
      "start": 90.3506,
      "duration": 0.076,
      "velocity": 127,
      "chip": "ym2612"
    },
    {
      "channel": 1,
      "note": 60,
      "start": 90.3546,
      "duration": 0.0735,
      "velocity": 101,
      "chip": "ym2612"
    },
    {
      "channel": 2,
      "note": 72,
      "start": 90.359,
      "duration": 0.0685,
      "velocity": 106,
      "chip": "ym2612"
    },
    {
      "channel": 0,
      "note": 53,
      "start": 90.4475,
      "duration": 0.0798,
      "velocity": 101,
      "chip": "ym2612"
    },
    {
      "channel": 1,
      "note": 65,
      "start": 90.4517,
      "duration": 0.077,
      "velocity": 106,
      "chip": "ym2612"
    },
    {
      "channel": 2,
      "note": 50,
      "start": 90.4561,
      "duration": 0.0719,
      "velocity": 117,
      "chip": "ym2612"
    },
    {
      "channel": 0,
      "note": 50,
      "start": 90.5463,
      "duration": 0.0811,
      "velocity": 101,
      "chip": "ym2612"
    },
    {
      "channel": 1,
      "note": 62,
      "start": 90.5505,
      "duration": 0.0787,
      "velocity": 106,
      "chip": "ym2612"
    },
    {
      "channel": 2,
      "note": 50,
      "start": 90.5549,
      "duration": 0.0734,
      "velocity": 117,
      "chip": "ym2612"
    },
    {
      "channel": 0,
      "note": 71,
      "start": 90.634,
      "duration": 0.077,
      "velocity": 127,
      "chip": "ym2612"
    },
    {
      "channel": 1,
      "note": 53,
      "start": 90.638,
      "duration": 0.0746,
      "velocity": 101,
      "chip": "ym2612"
    },
    {
      "channel": 2,
      "note": 65,
      "start": 90.6424,
      "duration": 0.0696,
      "velocity": 106,
      "chip": "ym2612"
    },
    {
      "channel": 0,
      "note": 55,
      "start": 90.7296,
      "duration": 0.081,
      "velocity": 101,
      "chip": "ym2612"
    },
    {
      "channel": 1,
      "note": 67,
      "start": 90.7338,
      "duration": 0.0783,
      "velocity": 106,
      "chip": "ym2612"
    },
    {
      "channel": 2,
      "note": 50,
      "start": 90.7382,
      "duration": 0.0732,
      "velocity": 117,
      "chip": "ym2612"
    },
    {
      "channel": 0,
      "note": 74,
      "start": 90.8298,
      "duration": 0.1796,
      "velocity": 127,
      "chip": "ym2612"
    },
    {
      "channel": 1,
      "note": 57,
      "start": 90.834,
      "duration": 0.1775,
      "velocity": 101,
      "chip": "ym2612"
    },
    {
      "channel": 2,
      "note": 69,
      "start": 90.8382,
      "duration": 0.1723,
      "velocity": 106,
      "chip": "ym2612"
    },
    {
      "channel": 3,
      "note": 50,
      "start": 90.8434,
      "duration": 0.0167,
      "velocity": 117,
      "chip": "ym2612"
    },
    {
      "channel": 0,
      "note": 71,
      "start": 91.0163,
      "duration": 0.077,
      "velocity": 127,
      "chip": "ym2612"
    },
    {
      "channel": 1,
      "note": 55,
      "start": 91.0204,
      "duration": 0.0751,
      "velocity": 101,
      "chip": "ym2612"
    },
    {
      "channel": 2,
      "note": 67,
      "start": 91.0246,
      "duration": 0.0703,
      "velocity": 106,
      "chip": "ym2612"
    },
    {
      "channel": 3,
      "note": 50,
      "start": 91.0291,
      "duration": 0.0648,
      "velocity": 117,
      "chip": "ym2612"
    },
    {
      "channel": 0,
      "note": 56,
      "start": 91.113,
      "duration": 0.0798,
      "velocity": 101,
      "chip": "ym2612"
    },
    {
      "channel": 1,
      "note": 68,
      "start": 91.1172,
      "duration": 0.0771,
      "velocity": 106,
      "chip": "ym2612"
    },
    {
      "channel": 2,
      "note": 50,
      "start": 91.1216,
      "duration": 0.0719,
      "velocity": 117,
      "chip": "ym2612"
    },
    {
      "channel": 0,
      "note": 71,
      "start": 91.2136,
      "duration": 0.0797,
      "velocity": 127,
      "chip": "ym2612"
    },
    {
      "channel": 1,
      "note": 57,
      "start": 91.2177,
      "duration": 0.0776,
      "velocity": 101,
      "chip": "ym2612"
    },
    {
      "channel": 2,
      "note": 69,
      "start": 91.2218,
      "duration": 0.0726,
      "velocity": 106,
      "chip": "ym2612"
    },
    {
      "channel": 0,
      "note": 60,
      "start": 91.2994,
      "duration": 0.0768,
      "velocity": 101,
      "chip": "ym2612"
    },
    {
      "channel": 1,
      "note": 72,
      "start": 91.3036,
      "duration": 0.0739,
      "velocity": 106,
      "chip": "ym2612"
    },
    {
      "channel": 2,
      "note": 50,
      "start": 91.308,
      "duration": 0.0688,
      "velocity": 117,
      "chip": "ym2612"
    },
    {
      "channel": 0,
      "note": 62,
      "start": 91.3963,
      "duration": 0.1798,
      "velocity": 101,
      "chip": "ym2612"
    },
    {
      "channel": 1,
      "note": 74,
      "start": 91.4006,
      "duration": 0.1771,
      "velocity": 106,
      "chip": "ym2612"
    },
    {
      "channel": 2,
      "note": 74,
      "start": 91.4048,
      "duration": 0.172,
      "velocity": 127,
      "chip": "ym2612"
    },
    {
      "channel": 3,
      "note": 50,
      "start": 91.41,
      "duration": 0.0167,
      "velocity": 117,
      "chip": "ym2612"
    },
    {
      "channel": 0,
      "note": 60,
      "start": 91.5963,
      "duration": 0.0799,
      "velocity": 101,
      "chip": "ym2612"
    },
    {
      "channel": 1,
      "note": 72,
      "start": 91.6005,
      "duration": 0.0775,
      "velocity": 106,
      "chip": "ym2612"
    },
    {
      "channel": 2,
      "note": 50,
      "start": 91.6048,
      "duration": 0.0722,
      "velocity": 117,
      "chip": "ym2612"
    },
    {
      "channel": 0,
      "note": 74,
      "start": 91.6823,
      "duration": 0.0771,
      "velocity": 127,
      "chip": "ym2612"
    },
    {
      "channel": 1,
      "note": 55,
      "start": 91.6864,
      "duration": 0.0746,
      "velocity": 101,
      "chip": "ym2612"
    },
    {
      "channel": 2,
      "note": 67,
      "start": 91.6905,
      "duration": 0.0698,
      "velocity": 106,
      "chip": "ym2612"
    },
    {
      "channel": 0,
      "note": 57,
      "start": 91.7796,
      "duration": 0.0798,
      "velocity": 101,
      "chip": "ym2612"
    },
    {
      "channel": 1,
      "note": 74,
      "start": 91.7838,
      "duration": 0.0771,
      "velocity": 127,
      "chip": "ym2612"
    },
    {
      "channel": 2,
      "note": 69,
      "start": 91.788,
      "duration": 0.0723,
      "velocity": 106,
      "chip": "ym2612"
    },
    {
      "channel": 0,
      "note": 74,
      "start": 91.8798,
      "duration": 0.0796,
      "velocity": 127,
      "chip": "ym2612"
    },
    {
      "channel": 1,
      "note": 60,
      "start": 91.8838,
      "duration": 0.0776,
      "velocity": 101,
      "chip": "ym2612"
    },
    {
      "channel": 2,
      "note": 72,
      "start": 91.888,
      "duration": 0.0725,
      "velocity": 106,
      "chip": "ym2612"
    },
    {
      "channel": 0,
      "note": 65,
      "start": 91.9656,
      "duration": 0.0772,
      "velocity": 101,
      "chip": "ym2612"
    },
    {
      "channel": 1,
      "note": 74,
      "start": 91.9699,
      "duration": 0.0744,
      "velocity": 127,
      "chip": "ym2612"
    },
    {
      "channel": 2,
      "note": 77,
      "start": 91.9741,
      "duration": 0.0696,
      "velocity": 106,
      "chip": "ym2612"
    },
    {
      "channel": 3,
      "note": 50,
      "start": 91.9794,
      "duration": 0.0153,
      "velocity": 117,
      "chip": "ym2612"
    },
    {
      "channel": 0,
      "note": 74,
      "start": 92.0631,
      "duration": 0.0796,
      "velocity": 127,
      "chip": "ym2612"
    },
    {
      "channel": 1,
      "note": 60,
      "start": 92.0672,
      "duration": 0.0771,
      "velocity": 101,
      "chip": "ym2612"
    },
    {
      "channel": 2,
      "note": 72,
      "start": 92.0713,
      "duration": 0.0723,
      "velocity": 106,
      "chip": "ym2612"
    },
    {
      "channel": 0,
      "note": 55,
      "start": 92.163,
      "duration": 0.0798,
      "velocity": 101,
      "chip": "ym2612"
    },
    {
      "channel": 1,
      "note": 67,
      "start": 92.1672,
      "duration": 0.0771,
      "velocity": 106,
      "chip": "ym2612"
    },
    {
      "channel": 2,
      "note": 74,
      "start": 92.1713,
      "duration": 0.0722,
      "velocity": 127,
      "chip": "ym2612"
    },
    {
      "channel": 0,
      "note": 74,
      "start": 92.2631,
      "duration": 0.0796,
      "velocity": 127,
      "chip": "ym2612"
    },
    {
      "channel": 1,
      "note": 62,
      "start": 92.2672,
      "duration": 0.0775,
      "velocity": 101,
      "chip": "ym2612"
    },
    {
      "channel": 2,
      "note": 74,
      "start": 92.2714,
      "duration": 0.0724,
      "velocity": 106,
      "chip": "ym2612"
    },
    {
      "channel": 0,
      "note": 74,
      "start": 92.349,
      "duration": 0.077,
      "velocity": 127,
      "chip": "ym2612"
    },
    {
      "channel": 1,
      "note": 57,
      "start": 92.3531,
      "duration": 0.0746,
      "velocity": 101,
      "chip": "ym2612"
    },
    {
      "channel": 2,
      "note": 69,
      "start": 92.3572,
      "duration": 0.0698,
      "velocity": 106,
      "chip": "ym2612"
    },
    {
      "channel": 0,
      "note": 52,
      "start": 92.4463,
      "duration": 0.0798,
      "velocity": 101,
      "chip": "ym2612"
    },
    {
      "channel": 1,
      "note": 74,
      "start": 92.4505,
      "duration": 0.0771,
      "velocity": 127,
      "chip": "ym2612"
    },
    {
      "channel": 2,
      "note": 64,
      "start": 92.4547,
      "duration": 0.0723,
      "velocity": 106,
      "chip": "ym2612"
    },
    {
      "channel": 0,
      "note": 86,
      "start": 92.5482,
      "duration": 0.078,
      "velocity": 106,
      "chip": "ym2612"
    },
    {
      "channel": 1,
      "note": 50,
      "start": 92.5527,
      "duration": 0.0233,
      "velocity": 117,
      "chip": "ym2612"
    },
    {
      "channel": 2,
      "note": 50,
      "start": 92.5567,
      "duration": 0.1528,
      "velocity": 101,
      "chip": "ym2612"
    },
    {
      "channel": 0,
      "note": 71,
      "start": 92.6482,
      "duration": 0.0283,
      "velocity": 127,
      "chip": "ym2612"
    },
    {
      "channel": 1,
      "note": 84,
      "start": 92.6523,
      "duration": 0.0753,
      "velocity": 106,
      "chip": "ym2612"
    },
    {
      "channel": 0,
      "note": 50,
      "start": 92.732,
      "duration": 0.0273,
      "velocity": 117,
      "chip": "ym2612"
    },
    {
      "channel": 1,
      "note": 50,
      "start": 92.7361,
      "duration": 0.0742,
      "velocity": 101,
      "chip": "ym2612"
    },
    {
      "channel": 2,
      "note": 79,
      "start": 92.7403,
      "duration": 0.0694,
      "velocity": 106,
      "chip": "ym2612"
    },
    {
      "channel": 0,
      "note": 50,
      "start": 92.8309,
      "duration": 0.1618,
      "velocity": 101,
      "chip": "ym2612"
    },
    {
      "channel": 1,
      "note": 74,
      "start": 92.8352,
      "duration": 0.0242,
      "velocity": 127,
      "chip": "ym2612"
    },
    {
      "channel": 2,
      "note": 81,
      "start": 92.8394,
      "duration": 0.0713,
      "velocity": 106,
      "chip": "ym2612"
    },
    {
      "channel": 3,
      "note": 50,
      "start": 92.8446,
      "duration": 0.016,
      "velocity": 117,
      "chip": "ym2612"
    },
    {
      "channel": 1,
      "note": 86,
      "start": 92.9297,
      "duration": 0.0812,
      "velocity": 106,
      "chip": "ym2612"
    },
    {
      "channel": 0,
      "note": 50,
      "start": 93.0151,
      "duration": 0.0789,
      "velocity": 101,
      "chip": "ym2612"
    },
    {
      "channel": 1,
      "note": 71,
      "start": 93.02,
      "duration": 0.0233,
      "velocity": 127,
      "chip": "ym2612"
    },
    {
      "channel": 2,
      "note": 84,
      "start": 93.0242,
      "duration": 0.0707,
      "velocity": 106,
      "chip": "ym2612"
    },
    {
      "channel": 3,
      "note": 50,
      "start": 93.0288,
      "duration": 0.0151,
      "velocity": 117,
      "chip": "ym2612"
    },
    {
      "channel": 0,
      "note": 50,
      "start": 93.1133,
      "duration": 0.0293,
      "velocity": 117,
      "chip": "ym2612"
    },
    {
      "channel": 1,
      "note": 50,
      "start": 93.1174,
      "duration": 0.16,
      "velocity": 101,
      "chip": "ym2612"
    },
    {
      "channel": 2,
      "note": 79,
      "start": 93.1216,
      "duration": 0.0727,
      "velocity": 106,
      "chip": "ym2612"
    },
    {
      "channel": 0,
      "note": 81,
      "start": 93.2131,
      "duration": 0.0798,
      "velocity": 106,
      "chip": "ym2612"
    },
    {
      "channel": 2,
      "note": 71,
      "start": 93.2178,
      "duration": 0.0255,
      "velocity": 127,
      "chip": "ym2612"
    },
    {
      "channel": 0,
      "note": 50,
      "start": 93.313,
      "duration": 0.0798,
      "velocity": 101,
      "chip": "ym2612"
    },
    {
      "channel": 1,
      "note": 86,
      "start": 93.3172,
      "duration": 0.0767,
      "velocity": 106,
      "chip": "ym2612"
    },
    {
      "channel": 2,
      "note": 50,
      "start": 93.3216,
      "duration": 0.0211,
      "velocity": 117,
      "chip": "ym2612"
    },
    {
      "channel": 0,
      "note": 74,
      "start": 93.3982,
      "duration": 0.0278,
      "velocity": 127,
      "chip": "ym2612"
    },
    {
      "channel": 1,
      "note": 84,
      "start": 93.4025,
      "duration": 0.0738,
      "velocity": 106,
      "chip": "ym2612"
    },
    {
      "channel": 2,
      "note": 50,
      "start": 93.4066,
      "duration": 0.1541,
      "velocity": 101,
      "chip": "ym2612"
    },
    {
      "channel": 3,
      "note": 50,
      "start": 93.4118,
      "duration": 0.0155,
      "velocity": 117,
      "chip": "ym2612"
    },
    {
      "channel": 0,
      "note": 79,
      "start": 93.4964,
      "duration": 0.0798,
      "velocity": 106,
      "chip": "ym2612"
    },
    {
      "channel": 0,
      "note": 50,
      "start": 93.5963,
      "duration": 0.0799,
      "velocity": 101,
      "chip": "ym2612"
    },
    {
      "channel": 1,
      "note": 50,
      "start": 93.6008,
      "duration": 0.0252,
      "velocity": 117,
      "chip": "ym2612"
    },
    {
      "channel": 2,
      "note": 81,
      "start": 93.605,
      "duration": 0.0722,
      "velocity": 106,
      "chip": "ym2612"
    },
    {
      "channel": 3,
      "note": 71,
      "start": 93.6099,
      "duration": 0.0172,
      "velocity": 127,
      "chip": "ym2612"
    },
    {
      "channel": 0,
      "note": 50,
      "start": 93.6817,
      "duration": 0.0276,
      "velocity": 117,
      "chip": "ym2612"
    },
    {
      "channel": 1,
      "note": 86,
      "start": 93.6859,
      "duration": 0.0737,
      "velocity": 106,
      "chip": "ym2612"
    },
    {
      "channel": 2,
      "note": 50,
      "start": 93.6899,
      "duration": 0.1529,
      "velocity": 101,
      "chip": "ym2612"
    },
    {
      "channel": 0,
      "note": 84,
      "start": 93.7798,
      "duration": 0.0798,
      "velocity": 106,
      "chip": "ym2612"
    },
    {
      "channel": 1,
      "note": 71,
      "start": 93.7844,
      "duration": 0.0254,
      "velocity": 127,
      "chip": "ym2612"
    },
    {
      "channel": 0,
      "note": 50,
      "start": 93.8796,
      "duration": 0.0798,
      "velocity": 101,
      "chip": "ym2612"
    },
    {
      "channel": 1,
      "note": 79,
      "start": 93.8838,
      "duration": 0.0764,
      "velocity": 106,
      "chip": "ym2612"
    },
    {
      "channel": 2,
      "note": 50,
      "start": 93.8882,
      "duration": 0.0212,
      "velocity": 117,
      "chip": "ym2612"
    },
    {
      "channel": 0,
      "note": 50,
      "start": 93.9797,
      "duration": 0.1631,
      "velocity": 101,
      "chip": "ym2612"
    },
    {
      "channel": 1,
      "note": 81,
      "start": 93.984,
      "duration": 0.0757,
      "velocity": 106,
      "chip": "ym2612"
    },
    {
      "channel": 2,
      "note": 74,
      "start": 93.9882,
      "duration": 0.0225,
      "velocity": 127,
      "chip": "ym2612"
    },
    {
      "channel": 3,
      "note": 50,
      "start": 93.9934,
      "duration": 0.0185,
      "velocity": 117,
      "chip": "ym2612"
    },
    {
      "channel": 1,
      "note": 86,
      "start": 94.0638,
      "duration": 0.0798,
      "velocity": 106,
      "chip": "ym2612"
    },
    {
      "channel": 0,
      "note": 84,
      "start": 94.1632,
      "duration": 0.0798,
      "velocity": 106,
      "chip": "ym2612"
    },
    {
      "channel": 1,
      "note": 50,
      "start": 94.1676,
      "duration": 0.0263,
      "velocity": 117,
      "chip": "ym2612"
    },
    {
      "channel": 2,
      "note": 71,
      "start": 94.1724,
      "duration": 0.0226,
      "velocity": 127,
      "chip": "ym2612"
    },
    {
      "channel": 3,
      "note": 50,
      "start": 94.1766,
      "duration": 0.0671,
      "velocity": 101,
      "chip": "ym2612"
    },
    {
      "channel": 0,
      "note": 79,
      "start": 94.2631,
      "duration": 0.0799,
      "velocity": 106,
      "chip": "ym2612"
    },
    {
      "channel": 1,
      "note": 50,
      "start": 94.2675,
      "duration": 0.0264,
      "velocity": 117,
      "chip": "ym2612"
    },
    {
      "channel": 2,
      "note": 53,
      "start": 94.2716,
      "duration": 0.0723,
      "velocity": 101,
      "chip": "ym2612"
    },
    {
      "channel": 0,
      "note": 81,
      "start": 94.3482,
      "duration": 0.078,
      "velocity": 106,
      "chip": "ym2612"
    },
    {
      "channel": 1,
      "note": 71,
      "start": 94.3529,
      "duration": 0.0247,
      "velocity": 127,
      "chip": "ym2612"
    },
    {
      "channel": 2,
      "note": 55,
      "start": 94.3569,
      "duration": 0.07,
      "velocity": 101,
      "chip": "ym2612"
    },
    {
      "channel": 0,
      "note": 57,
      "start": 94.4463,
      "duration": 0.0798,
      "velocity": 101,
      "chip": "ym2612"
    },
    {
      "channel": 1,
      "note": 86,
      "start": 94.4505,
      "duration": 0.0764,
      "velocity": 106,
      "chip": "ym2612"
    },
    {
      "channel": 2,
      "note": 50,
      "start": 94.4549,
      "duration": 0.0224,
      "velocity": 117,
      "chip": "ym2612"
    },
    {
      "channel": 0,
      "note": 50,
      "start": 94.5463,
      "duration": 0.1631,
      "velocity": 101,
      "chip": "ym2612"
    },
    {
      "channel": 1,
      "note": 84,
      "start": 94.5505,
      "duration": 0.0758,
      "velocity": 106,
      "chip": "ym2612"
    },
    {
      "channel": 2,
      "note": 50,
      "start": 94.5549,
      "duration": 0.0212,
      "velocity": 117,
      "chip": "ym2612"
    },
    {
      "channel": 1,
      "note": 79,
      "start": 94.6464,
      "duration": 0.0799,
      "velocity": 106,
      "chip": "ym2612"
    },
    {
      "channel": 2,
      "note": 71,
      "start": 94.6511,
      "duration": 0.0255,
      "velocity": 127,
      "chip": "ym2612"
    },
    {
      "channel": 0,
      "note": 50,
      "start": 94.7305,
      "duration": 0.079,
      "velocity": 101,
      "chip": "ym2612"
    },
    {
      "channel": 1,
      "note": 81,
      "start": 94.7347,
      "duration": 0.0756,
      "velocity": 106,
      "chip": "ym2612"
    },
    {
      "channel": 2,
      "note": 50,
      "start": 94.7391,
      "duration": 0.0203,
      "velocity": 117,
      "chip": "ym2612"
    },
    {
      "channel": 0,
      "note": 86,
      "start": 94.8298,
      "duration": 0.0797,
      "velocity": 106,
      "chip": "ym2612"
    },
    {
      "channel": 1,
      "note": 74,
      "start": 94.8341,
      "duration": 0.0253,
      "velocity": 127,
      "chip": "ym2612"
    },
    {
      "channel": 2,
      "note": 50,
      "start": 94.8382,
      "duration": 0.1546,
      "velocity": 101,
      "chip": "ym2612"
    },
    {
      "channel": 3,
      "note": 50,
      "start": 94.8434,
      "duration": 0.0172,
      "velocity": 117,
      "chip": "ym2612"
    },
    {
      "channel": 0,
      "note": 84,
      "start": 94.9309,
      "duration": 0.0788,
      "velocity": 106,
      "chip": "ym2612"
    },
    {
      "channel": 0,
      "note": 50,
      "start": 95.0138,
      "duration": 0.079,
      "velocity": 101,
      "chip": "ym2612"
    },
    {
      "channel": 1,
      "note": 71,
      "start": 95.0186,
      "duration": 0.0246,
      "velocity": 127,
      "chip": "ym2612"
    },
    {
      "channel": 2,
      "note": 79,
      "start": 95.0228,
      "duration": 0.0707,
      "velocity": 106,
      "chip": "ym2612"
    },
    {
      "channel": 3,
      "note": 50,
      "start": 95.0274,
      "duration": 0.0164,
      "velocity": 117,
      "chip": "ym2612"
    },
    {
      "channel": 0,
      "note": 50,
      "start": 95.1141,
      "duration": 0.162,
      "velocity": 101,
      "chip": "ym2612"
    },
    {
      "channel": 1,
      "note": 81,
      "start": 95.1183,
      "duration": 0.0746,
      "velocity": 106,
      "chip": "ym2612"
    },
    {
      "channel": 2,
      "note": 50,
      "start": 95.1227,
      "duration": 0.02,
      "velocity": 117,
      "chip": "ym2612"
    },
    {
      "channel": 1,
      "note": 86,
      "start": 95.2143,
      "duration": 0.0798,
      "velocity": 106,
      "chip": "ym2612"
    },
    {
      "channel": 2,
      "note": 71,
      "start": 95.219,
      "duration": 0.0243,
      "velocity": 127,
      "chip": "ym2612"
    },
    {
      "channel": 0,
      "note": 50,
      "start": 95.313,
      "duration": 0.0811,
      "velocity": 101,
      "chip": "ym2612"
    },
    {
      "channel": 1,
      "note": 84,
      "start": 95.3172,
      "duration": 0.0779,
      "velocity": 106,
      "chip": "ym2612"
    },
    {
      "channel": 2,
      "note": 50,
      "start": 95.3216,
      "duration": 0.0212,
      "velocity": 117,
      "chip": "ym2612"
    },
    {
      "channel": 0,
      "note": 79,
      "start": 95.3994,
      "duration": 0.078,
      "velocity": 106,
      "chip": "ym2612"
    },
    {
      "channel": 1,
      "note": 74,
      "start": 95.4037,
      "duration": 0.0224,
      "velocity": 127,
      "chip": "ym2612"
    },
    {
      "channel": 2,
      "note": 50,
      "start": 95.4078,
      "duration": 0.1517,
      "velocity": 101,
      "chip": "ym2612"
    },
    {
      "channel": 3,
      "note": 50,
      "start": 95.413,
      "duration": 0.0143,
      "velocity": 117,
      "chip": "ym2612"
    },
    {
      "channel": 0,
      "note": 81,
      "start": 95.4964,
      "duration": 0.081,
      "velocity": 106,
      "chip": "ym2612"
    },
    {
      "channel": 0,
      "note": 50,
      "start": 95.5964,
      "duration": 0.0798,
      "velocity": 101,
      "chip": "ym2612"
    },
    {
      "channel": 1,
      "note": 86,
      "start": 95.6006,
      "duration": 0.0765,
      "velocity": 106,
      "chip": "ym2612"
    },
    {
      "channel": 2,
      "note": 71,
      "start": 95.6054,
      "duration": 0.0212,
      "velocity": 127,
      "chip": "ym2612"
    },
    {
      "channel": 3,
      "note": 50,
      "start": 95.6099,
      "duration": 0.0173,
      "velocity": 117,
      "chip": "ym2612"
    },
    {
      "channel": 0,
      "note": 50,
      "start": 95.6813,
      "duration": 0.0794,
      "velocity": 101,
      "chip": "ym2612"
    },
    {
      "channel": 1,
      "note": 50,
      "start": 95.6857,
      "duration": 0.0237,
      "velocity": 117,
      "chip": "ym2612"
    },
    {
      "channel": 2,
      "note": 84,
      "start": 95.6899,
      "duration": 0.0716,
      "velocity": 106,
      "chip": "ym2612"
    },
    {
      "channel": 0,
      "note": 71,
      "start": 95.7803,
      "duration": 0.0295,
      "velocity": 127,
      "chip": "ym2612"
    },
    {
      "channel": 1,
      "note": 79,
      "start": 95.7845,
      "duration": 0.0758,
      "velocity": 106,
      "chip": "ym2612"
    },
    {
      "channel": 2,
      "note": 53,
      "start": 95.7885,
      "duration": 0.071,
      "velocity": 101,
      "chip": "ym2612"
    },
    {
      "channel": 0,
      "note": 56,
      "start": 95.8796,
      "duration": 0.0798,
      "velocity": 101,
      "chip": "ym2612"
    },
    {
      "channel": 1,
      "note": 81,
      "start": 95.8838,
      "duration": 0.0763,
      "velocity": 106,
      "chip": "ym2612"
    },
    {
      "channel": 2,
      "note": 50,
      "start": 95.8882,
      "duration": 0.0212,
      "velocity": 117,
      "chip": "ym2612"
    },
    {
      "channel": 0,
      "note": 86,
      "start": 95.9798,
      "duration": 0.0798,
      "velocity": 106,
      "chip": "ym2612"
    },
    {
      "channel": 1,
      "note": 57,
      "start": 95.984,
      "duration": 0.0765,
      "velocity": 101,
      "chip": "ym2612"
    },
    {
      "channel": 2,
      "note": 74,
      "start": 95.9882,
      "duration": 0.0213,
      "velocity": 127,
      "chip": "ym2612"
    },
    {
      "channel": 3,
      "note": 50,
      "start": 95.9934,
      "duration": 0.0173,
      "velocity": 117,
      "chip": "ym2612"
    },
    {
      "channel": 0,
      "note": 60,
      "start": 96.0645,
      "duration": 0.0783,
      "velocity": 101,
      "chip": "ym2612"
    },
    {
      "channel": 1,
      "note": 84,
      "start": 96.0686,
      "duration": 0.0749,
      "velocity": 106,
      "chip": "ym2612"
    },
    {
      "channel": 0,
      "note": 62,
      "start": 96.163,
      "duration": 0.0798,
      "velocity": 101,
      "chip": "ym2612"
    },
    {
      "channel": 1,
      "note": 79,
      "start": 96.1673,
      "duration": 0.0763,
      "velocity": 106,
      "chip": "ym2612"
    },
    {
      "channel": 2,
      "note": 71,
      "start": 96.172,
      "duration": 0.0213,
      "velocity": 127,
      "chip": "ym2612"
    },
    {
      "channel": 3,
      "note": 50,
      "start": 96.1766,
      "duration": 0.0173,
      "velocity": 117,
      "chip": "ym2612"
    },
    {
      "channel": 0,
      "note": 50,
      "start": 96.2633,
      "duration": 0.0293,
      "velocity": 117,
      "chip": "ym2612"
    },
    {
      "channel": 1,
      "note": 65,
      "start": 96.2674,
      "duration": 0.0766,
      "velocity": 101,
      "chip": "ym2612"
    },
    {
      "channel": 2,
      "note": 81,
      "start": 96.2716,
      "duration": 0.0716,
      "velocity": 106,
      "chip": "ym2612"
    },
    {
      "channel": 0,
      "note": 62,
      "start": 96.3481,
      "duration": 0.078,
      "velocity": 101,
      "chip": "ym2612"
    },
    {
      "channel": 1,
      "note": 71,
      "start": 96.3528,
      "duration": 0.0237,
      "velocity": 127,
      "chip": "ym2612"
    },
    {
      "channel": 2,
      "note": 86,
      "start": 96.357,
      "duration": 0.0699,
      "velocity": 106,
      "chip": "ym2612"
    },
    {
      "channel": 0,
      "note": 50,
      "start": 96.4467,
      "duration": 0.0293,
      "velocity": 117,
      "chip": "ym2612"
    },
    {
      "channel": 1,
      "note": 84,
      "start": 96.4509,
      "duration": 0.0761,
      "velocity": 106,
      "chip": "ym2612"
    },
    {
      "channel": 2,
      "note": 53,
      "start": 96.4549,
      "duration": 0.0713,
      "velocity": 101,
      "chip": "ym2612"
    },
    {
      "channel": 0,
      "note": 79,
      "start": 96.5464,
      "duration": 0.0798,
      "velocity": 106,
      "chip": "ym2612"
    },
    {
      "channel": 1,
      "note": 50,
      "start": 96.5508,
      "duration": 0.0263,
      "velocity": 117,
      "chip": "ym2612"
    },
    {
      "channel": 2,
      "note": 50,
      "start": 96.5548,
      "duration": 0.1546,
      "velocity": 101,
      "chip": "ym2612"
    },
    {
      "channel": 0,
      "note": 81,
      "start": 96.6464,
      "duration": 0.0799,
      "velocity": 106,
      "chip": "ym2612"
    },
    {
      "channel": 1,
      "note": 71,
      "start": 96.6511,
      "duration": 0.0267,
      "velocity": 127,
      "chip": "ym2612"
    },
    {
      "channel": 0,
      "note": 50,
      "start": 96.7304,
      "duration": 0.079,
      "velocity": 101,
      "chip": "ym2612"
    },
    {
      "channel": 1,
      "note": 86,
      "start": 96.7347,
      "duration": 0.0755,
      "velocity": 106,
      "chip": "ym2612"
    },
    {
      "channel": 2,
      "note": 50,
      "start": 96.739,
      "duration": 0.0216,
      "velocity": 117,
      "chip": "ym2612"
    },
    {
      "channel": 0,
      "note": 50,
      "start": 96.8296,
      "duration": 0.1631,
      "velocity": 101,
      "chip": "ym2612"
    },
    {
      "channel": 1,
      "note": 74,
      "start": 96.834,
      "duration": 0.0267,
      "velocity": 127,
      "chip": "ym2612"
    },
    {
      "channel": 2,
      "note": 84,
      "start": 96.8382,
      "duration": 0.0715,
      "velocity": 106,
      "chip": "ym2612"
    },
    {
      "channel": 3,
      "note": 50,
      "start": 96.8434,
      "duration": 0.0185,
      "velocity": 117,
      "chip": "ym2612"
    },
    {
      "channel": 1,
      "note": 79,
      "start": 96.9297,
      "duration": 0.08,
      "velocity": 106,
      "chip": "ym2612"
    },
    {
      "channel": 0,
      "note": 81,
      "start": 97.0141,
      "duration": 0.0789,
      "velocity": 106,
      "chip": "ym2612"
    },
    {
      "channel": 1,
      "note": 50,
      "start": 97.0186,
      "duration": 0.0253,
      "velocity": 117,
      "chip": "ym2612"
    },
    {
      "channel": 2,
      "note": 71,
      "start": 97.0233,
      "duration": 0.0217,
      "velocity": 127,
      "chip": "ym2612"
    },
    {
      "channel": 3,
      "note": 50,
      "start": 97.0275,
      "duration": 0.0662,
      "velocity": 101,
      "chip": "ym2612"
    },
    {
      "channel": 0,
      "note": 86,
      "start": 97.1131,
      "duration": 0.0798,
      "velocity": 106,
      "chip": "ym2612"
    },
    {
      "channel": 1,
      "note": 50,
      "start": 97.1172,
      "duration": 0.1589,
      "velocity": 101,
      "chip": "ym2612"
    },
    {
      "channel": 2,
      "note": 50,
      "start": 97.1216,
      "duration": 0.0212,
      "velocity": 117,
      "chip": "ym2612"
    },
    {
      "channel": 0,
      "note": 84,
      "start": 97.2131,
      "duration": 0.0798,
      "velocity": 106,
      "chip": "ym2612"
    },
    {
      "channel": 2,
      "note": 71,
      "start": 97.2178,
      "duration": 0.0255,
      "velocity": 127,
      "chip": "ym2612"
    },
    {
      "channel": 0,
      "note": 50,
      "start": 97.3144,
      "duration": 0.0282,
      "velocity": 117,
      "chip": "ym2612"
    },
    {
      "channel": 1,
      "note": 79,
      "start": 97.3186,
      "duration": 0.0753,
      "velocity": 106,
      "chip": "ym2612"
    },
    {
      "channel": 2,
      "note": 50,
      "start": 97.3227,
      "duration": 0.0703,
      "velocity": 101,
      "chip": "ym2612"
    },
    {
      "channel": 0,
      "note": 81,
      "start": 97.3983,
      "duration": 0.0779,
      "velocity": 106,
      "chip": "ym2612"
    },
    {
      "channel": 1,
      "note": 74,
      "start": 97.4026,
      "duration": 0.0235,
      "velocity": 127,
      "chip": "ym2612"
    },
    {
      "channel": 2,
      "note": 50,
      "start": 97.4067,
      "duration": 0.1528,
      "velocity": 101,
      "chip": "ym2612"
    },
    {
      "channel": 3,
      "note": 50,
      "start": 97.412,
      "duration": 0.0154,
      "velocity": 117,
      "chip": "ym2612"
    },
    {
      "channel": 0,
      "note": 86,
      "start": 97.4976,
      "duration": 0.0786,
      "velocity": 106,
      "chip": "ym2612"
    },
    {
      "channel": 0,
      "note": 71,
      "start": 97.5982,
      "duration": 0.0283,
      "velocity": 127,
      "chip": "ym2612"
    },
    {
      "channel": 1,
      "note": 84,
      "start": 97.6025,
      "duration": 0.076,
      "velocity": 106,
      "chip": "ym2612"
    },
    {
      "channel": 2,
      "note": 50,
      "start": 97.6069,
      "duration": 0.0202,
      "velocity": 117,
      "chip": "ym2612"
    },
    {
      "channel": 3,
      "note": 50,
      "start": 97.6112,
      "duration": 0.0663,
      "velocity": 101,
      "chip": "ym2612"
    },
    {
      "channel": 0,
      "note": 79,
      "start": 97.6828,
      "duration": 0.0767,
      "velocity": 106,
      "chip": "ym2612"
    },
    {
      "channel": 1,
      "note": 50,
      "start": 97.6872,
      "duration": 0.0221,
      "velocity": 117,
      "chip": "ym2612"
    },
    {
      "channel": 2,
      "note": 50,
      "start": 97.6913,
      "duration": 0.1515,
      "velocity": 101,
      "chip": "ym2612"
    },
    {
      "channel": 0,
      "note": 81,
      "start": 97.781,
      "duration": 0.0798,
      "velocity": 106,
      "chip": "ym2612"
    },
    {
      "channel": 1,
      "note": 71,
      "start": 97.7856,
      "duration": 0.0243,
      "velocity": 127,
      "chip": "ym2612"
    },
    {
      "channel": 0,
      "note": 50,
      "start": 97.8796,
      "duration": 0.081,
      "velocity": 101,
      "chip": "ym2612"
    },
    {
      "channel": 1,
      "note": 50,
      "start": 97.884,
      "duration": 0.0253,
      "velocity": 117,
      "chip": "ym2612"
    },
    {
      "channel": 2,
      "note": 86,
      "start": 97.8882,
      "duration": 0.0733,
      "velocity": 106,
      "chip": "ym2612"
    },
    {
      "channel": 0,
      "note": 74,
      "start": 97.9798,
      "duration": 0.0295,
      "velocity": 127,
      "chip": "ym2612"
    },
    {
      "channel": 1,
      "note": 84,
      "start": 97.9841,
      "duration": 0.0755,
      "velocity": 106,
      "chip": "ym2612"
    },
    {
      "channel": 2,
      "note": 50,
      "start": 97.9882,
      "duration": 0.1559,
      "velocity": 101,
      "chip": "ym2612"
    },
    {
      "channel": 3,
      "note": 50,
      "start": 97.9934,
      "duration": 0.0172,
      "velocity": 117,
      "chip": "ym2612"
    },
    {
      "channel": 0,
      "note": 79,
      "start": 98.0637,
      "duration": 0.0811,
      "velocity": 106,
      "chip": "ym2612"
    },
    {
      "channel": 0,
      "note": 50,
      "start": 98.163,
      "duration": 0.0797,
      "velocity": 101,
      "chip": "ym2612"
    },
    {
      "channel": 1,
      "note": 81,
      "start": 98.1673,
      "duration": 0.0763,
      "velocity": 106,
      "chip": "ym2612"
    },
    {
      "channel": 2,
      "note": 71,
      "start": 98.172,
      "duration": 0.0212,
      "velocity": 127,
      "chip": "ym2612"
    },
    {
      "channel": 3,
      "note": 50,
      "start": 98.1766,
      "duration": 0.0173,
      "velocity": 117,
      "chip": "ym2612"
    },
    {
      "channel": 0,
      "note": 86,
      "start": 98.2631,
      "duration": 0.0799,
      "velocity": 106,
      "chip": "ym2612"
    },
    {
      "channel": 1,
      "note": 50,
      "start": 98.2675,
      "duration": 0.0252,
      "velocity": 117,
      "chip": "ym2612"
    },
    {
      "channel": 2,
      "note": 53,
      "start": 98.2716,
      "duration": 0.0723,
      "velocity": 101,
      "chip": "ym2612"
    },
    {
      "channel": 0,
      "note": 84,
      "start": 98.3482,
      "duration": 0.0781,
      "velocity": 106,
      "chip": "ym2612"
    },
    {
      "channel": 1,
      "note": 55,
      "start": 98.3522,
      "duration": 0.0747,
      "velocity": 101,
      "chip": "ym2612"
    },
    {
      "channel": 2,
      "note": 71,
      "start": 98.3569,
      "duration": 0.0197,
      "velocity": 127,
      "chip": "ym2612"
    },
    {
      "channel": 0,
      "note": 57,
      "start": 98.4463,
      "duration": 0.0798,
      "velocity": 101,
      "chip": "ym2612"
    },
    {
      "channel": 1,
      "note": 79,
      "start": 98.4505,
      "duration": 0.0764,
      "velocity": 106,
      "chip": "ym2612"
    },
    {
      "channel": 2,
      "note": 50,
      "start": 98.4549,
      "duration": 0.0211,
      "velocity": 117,
      "chip": "ym2612"
    },
    {
      "channel": 0,
      "note": 81,
      "start": 98.5464,
      "duration": 0.0798,
      "velocity": 106,
      "chip": "ym2612"
    },
    {
      "channel": 1,
      "note": 50,
      "start": 98.5509,
      "duration": 0.0251,
      "velocity": 117,
      "chip": "ym2612"
    },
    {
      "channel": 2,
      "note": 50,
      "start": 98.5549,
      "duration": 0.1546,
      "velocity": 101,
      "chip": "ym2612"
    },
    {
      "channel": 0,
      "note": 86,
      "start": 98.6464,
      "duration": 0.0799,
      "velocity": 106,
      "chip": "ym2612"
    },
    {
      "channel": 1,
      "note": 71,
      "start": 98.6511,
      "duration": 0.0254,
      "velocity": 127,
      "chip": "ym2612"
    },
    {
      "channel": 0,
      "note": 84,
      "start": 98.7306,
      "duration": 0.079,
      "velocity": 106,
      "chip": "ym2612"
    },
    {
      "channel": 1,
      "note": 50,
      "start": 98.7347,
      "duration": 0.0756,
      "velocity": 101,
      "chip": "ym2612"
    },
    {
      "channel": 2,
      "note": 50,
      "start": 98.739,
      "duration": 0.0204,
      "velocity": 117,
      "chip": "ym2612"
    },
    {
      "channel": 0,
      "note": 79,
      "start": 98.8298,
      "duration": 0.0797,
      "velocity": 106,
      "chip": "ym2612"
    },
    {
      "channel": 1,
      "note": 74,
      "start": 98.8341,
      "duration": 0.0253,
      "velocity": 127,
      "chip": "ym2612"
    },
    {
      "channel": 2,
      "note": 50,
      "start": 98.8382,
      "duration": 0.1546,
      "velocity": 101,
      "chip": "ym2612"
    },
    {
      "channel": 3,
      "note": 50,
      "start": 98.8434,
      "duration": 0.0172,
      "velocity": 117,
      "chip": "ym2612"
    },
    {
      "channel": 0,
      "note": 81,
      "start": 98.9297,
      "duration": 0.08,
      "velocity": 106,
      "chip": "ym2612"
    },
    {
      "channel": 0,
      "note": 71,
      "start": 99.0145,
      "duration": 0.0287,
      "velocity": 127,
      "chip": "ym2612"
    },
    {
      "channel": 1,
      "note": 50,
      "start": 99.019,
      "duration": 0.0247,
      "velocity": 117,
      "chip": "ym2612"
    },
    {
      "channel": 2,
      "note": 86,
      "start": 99.0232,
      "duration": 0.0705,
      "velocity": 106,
      "chip": "ym2612"
    },
    {
      "channel": 3,
      "note": 50,
      "start": 99.0274,
      "duration": 0.0655,
      "velocity": 101,
      "chip": "ym2612"
    },
    {
      "channel": 0,
      "note": 50,
      "start": 99.113,
      "duration": 0.1631,
      "velocity": 101,
      "chip": "ym2612"
    },
    {
      "channel": 1,
      "note": 84,
      "start": 99.1172,
      "duration": 0.0758,
      "velocity": 106,
      "chip": "ym2612"
    },
    {
      "channel": 2,
      "note": 50,
      "start": 99.1216,
      "duration": 0.0224,
      "velocity": 117,
      "chip": "ym2612"
    },
    {
      "channel": 1,
      "note": 79,
      "start": 99.2131,
      "duration": 0.0798,
      "velocity": 106,
      "chip": "ym2612"
    },
    {
      "channel": 2,
      "note": 71,
      "start": 99.2178,
      "duration": 0.0267,
      "velocity": 127,
      "chip": "ym2612"
    },
    {
      "channel": 0,
      "note": 81,
      "start": 99.3131,
      "duration": 0.0799,
      "velocity": 106,
      "chip": "ym2612"
    },
    {
      "channel": 1,
      "note": 50,
      "start": 99.3176,
      "duration": 0.0251,
      "velocity": 117,
      "chip": "ym2612"
    },
    {
      "channel": 2,
      "note": 50,
      "start": 99.3216,
      "duration": 0.0724,
      "velocity": 101,
      "chip": "ym2612"
    },
    {
      "channel": 0,
      "note": 50,
      "start": 99.3982,
      "duration": 0.1612,
      "velocity": 101,
      "chip": "ym2612"
    },
    {
      "channel": 1,
      "note": 86,
      "start": 99.4024,
      "duration": 0.0739,
      "velocity": 106,
      "chip": "ym2612"
    },
    {
      "channel": 2,
      "note": 74,
      "start": 99.4066,
      "duration": 0.0207,
      "velocity": 127,
      "chip": "ym2612"
    },
    {
      "channel": 3,
      "note": 50,
      "start": 99.4119,
      "duration": 0.0167,
      "velocity": 117,
      "chip": "ym2612"
    },
    {
      "channel": 1,
      "note": 84,
      "start": 99.4964,
      "duration": 0.0798,
      "velocity": 106,
      "chip": "ym2612"
    },
    {
      "channel": 0,
      "note": 71,
      "start": 99.597,
      "duration": 0.0295,
      "velocity": 127,
      "chip": "ym2612"
    },
    {
      "channel": 1,
      "note": 79,
      "start": 99.6013,
      "duration": 0.0761,
      "velocity": 106,
      "chip": "ym2612"
    },
    {
      "channel": 2,
      "note": 50,
      "start": 99.6057,
      "duration": 0.0214,
      "velocity": 117,
      "chip": "ym2612"
    },
    {
      "channel": 3,
      "note": 50,
      "start": 99.6099,
      "duration": 0.0664,
      "velocity": 101,
      "chip": "ym2612"
    },
    {
      "channel": 0,
      "note": 50,
      "start": 99.6818,
      "duration": 0.0275,
      "velocity": 117,
      "chip": "ym2612"
    },
    {
      "channel": 1,
      "note": 50,
      "start": 99.6859,
      "duration": 0.0744,
      "velocity": 101,
      "chip": "ym2612"
    },
    {
      "channel": 2,
      "note": 81,
      "start": 99.6901,
      "duration": 0.0696,
      "velocity": 106,
      "chip": "ym2612"
    },
    {
      "channel": 0,
      "note": 71,
      "start": 99.7803,
      "duration": 0.0295,
      "velocity": 127,
      "chip": "ym2612"
    },
    {
      "channel": 1,
      "note": 86,
      "start": 99.7845,
      "duration": 0.0758,
      "velocity": 106,
      "chip": "ym2612"
    },
    {
      "channel": 2,
      "note": 53,
      "start": 99.7885,
      "duration": 0.0711,
      "velocity": 101,
      "chip": "ym2612"
    },
    {
      "channel": 0,
      "note": 84,
      "start": 99.881,
      "duration": 0.0786,
      "velocity": 106,
      "chip": "ym2612"
    },
    {
      "channel": 1,
      "note": 56,
      "start": 99.8851,
      "duration": 0.0751,
      "velocity": 101,
      "chip": "ym2612"
    },
    {
      "channel": 2,
      "note": 50,
      "start": 99.8894,
      "duration": 0.02,
      "velocity": 117,
      "chip": "ym2612"
    },
    {
      "channel": 0,
      "note": 74,
      "start": 99.981,
      "duration": 0.0283,
      "velocity": 127,
      "chip": "ym2612"
    },
    {
      "channel": 1,
      "note": 79,
      "start": 99.9853,
      "duration": 0.0764,
      "velocity": 106,
      "chip": "ym2612"
    },
    {
      "channel": 2,
      "note": 57,
      "start": 99.9894,
      "duration": 0.0714,
      "velocity": 101,
      "chip": "ym2612"
    },
    {
      "channel": 3,
      "note": 50,
      "start": 99.9946,
      "duration": 0.016,
      "velocity": 117,
      "chip": "ym2612"
    },
    {
      "channel": 0,
      "note": 81,
      "start": 100.066,
      "duration": 0.0769,
      "velocity": 106,
      "chip": "ym2612"
    },
    {
      "channel": 1,
      "note": 60,
      "start": 100.07,
      "duration": 0.0736,
      "velocity": 101,
      "chip": "ym2612"
    },
    {
      "channel": 0,
      "note": 71,
      "start": 100.1649,
      "duration": 0.0283,
      "velocity": 127,
      "chip": "ym2612"
    },
    {
      "channel": 1,
      "note": 84,
      "start": 100.1691,
      "duration": 0.0756,
      "velocity": 106,
      "chip": "ym2612"
    },
    {
      "channel": 2,
      "note": 62,
      "start": 100.1732,
      "duration": 0.0708,
      "velocity": 101,
      "chip": "ym2612"
    },
    {
      "channel": 3,
      "note": 50,
      "start": 100.1778,
      "duration": 0.016,
      "velocity": 117,
      "chip": "ym2612"
    },
    {
      "channel": 0,
      "note": 50,
      "start": 100.2633,
      "duration": 0.0293,
      "velocity": 117,
      "chip": "ym2612"
    },
    {
      "channel": 1,
      "note": 65,
      "start": 100.2674,
      "duration": 0.0778,
      "velocity": 101,
      "chip": "ym2612"
    },
    {
      "channel": 2,
      "note": 81,
      "start": 100.2716,
      "duration": 0.0728,
      "velocity": 106,
      "chip": "ym2612"
    },
    {
      "channel": 0,
      "note": 71,
      "start": 100.35,
      "duration": 0.0265,
      "velocity": 127,
      "chip": "ym2612"
    },
    {
      "channel": 1,
      "note": 84,
      "start": 100.3542,
      "duration": 0.074,
      "velocity": 106,
      "chip": "ym2612"
    },
    {
      "channel": 2,
      "note": 62,
      "start": 100.3583,
      "duration": 0.0691,
      "velocity": 101,
      "chip": "ym2612"
    },
    {
      "channel": 0,
      "note": 53,
      "start": 100.4463,
      "duration": 0.081,
      "velocity": 101,
      "chip": "ym2612"
    },
    {
      "channel": 1,
      "note": 86,
      "start": 100.4505,
      "duration": 0.0776,
      "velocity": 106,
      "chip": "ym2612"
    },
    {
      "channel": 2,
      "note": 50,
      "start": 100.4549,
      "duration": 0.0212,
      "velocity": 117,
      "chip": "ym2612"
    },
    {
      "channel": 0,
      "note": 50,
      "start": 100.5466,
      "duration": 0.0293,
      "velocity": 117,
      "chip": "ym2612"
    },
    {
      "channel": 1,
      "note": 89,
      "start": 100.5509,
      "duration": 0.2432,
      "velocity": 106,
      "chip": "ym2612"
    },
    {
      "channel": 2,
      "note": 50,
      "start": 100.5549,
      "duration": 0.1558,
      "velocity": 101,
      "chip": "ym2612"
    },
    {
      "channel": 0,
      "note": 71,
      "start": 100.6469,
      "duration": 0.0296,
      "velocity": 127,
      "chip": "ym2612"
    },
    {
      "channel": 0,
      "note": 50,
      "start": 100.7296,
      "duration": 0.0798,
      "velocity": 101,
      "chip": "ym2612"
    },
    {
      "channel": 2,
      "note": 50,
      "start": 100.734,
      "duration": 0.0254,
      "velocity": 117,
      "chip": "ym2612"
    },
    {
      "channel": 0,
      "note": 86,
      "start": 100.8298,
      "duration": 0.1631,
      "velocity": 106,
      "chip": "ym2612"
    },
    {
      "channel": 1,
      "note": 74,
      "start": 100.8341,
      "duration": 0.0253,
      "velocity": 127,
      "chip": "ym2612"
    },
    {
      "channel": 2,
      "note": 50,
      "start": 100.8382,
      "duration": 0.1554,
      "velocity": 101,
      "chip": "ym2612"
    },
    {
      "channel": 3,
      "note": 50,
      "start": 100.8434,
      "duration": 0.0172,
      "velocity": 117,
      "chip": "ym2612"
    },
    {
      "channel": 0,
      "note": 50,
      "start": 101.013,
      "duration": 0.0798,
      "velocity": 101,
      "chip": "ym2612"
    },
    {
      "channel": 1,
      "note": 84,
      "start": 101.0173,
      "duration": 0.0763,
      "velocity": 106,
      "chip": "ym2612"
    },
    {
      "channel": 2,
      "note": 50,
      "start": 101.0217,
      "duration": 0.021,
      "velocity": 117,
      "chip": "ym2612"
    },
    {
      "channel": 3,
      "note": 71,
      "start": 101.0266,
      "duration": 0.0173,
      "velocity": 127,
      "chip": "ym2612"
    },
    {
      "channel": 0,
      "note": 50,
      "start": 101.113,
      "duration": 0.1631,
      "velocity": 101,
      "chip": "ym2612"
    },
    {
      "channel": 1,
      "note": 86,
      "start": 101.1172,
      "duration": 0.2424,
      "velocity": 106,
      "chip": "ym2612"
    },
    {
      "channel": 2,
      "note": 50,
      "start": 101.1216,
      "duration": 0.0212,
      "velocity": 117,
      "chip": "ym2612"
    },
    {
      "channel": 2,
      "note": 71,
      "start": 101.2136,
      "duration": 0.0297,
      "velocity": 127,
      "chip": "ym2612"
    },
    {
      "channel": 0,
      "note": 50,
      "start": 101.313,
      "duration": 0.0798,
      "velocity": 101,
      "chip": "ym2612"
    },
    {
      "channel": 2,
      "note": 50,
      "start": 101.3173,
      "duration": 0.0267,
      "velocity": 117,
      "chip": "ym2612"
    },
    {
      "channel": 0,
      "note": 50,
      "start": 101.397,
      "duration": 0.1624,
      "velocity": 101,
      "chip": "ym2612"
    },
    {
      "channel": 1,
      "note": 84,
      "start": 101.4013,
      "duration": 0.1589,
      "velocity": 106,
      "chip": "ym2612"
    },
    {
      "channel": 2,
      "note": 74,
      "start": 101.4055,
      "duration": 0.0206,
      "velocity": 127,
      "chip": "ym2612"
    },
    {
      "channel": 3,
      "note": 50,
      "start": 101.4108,
      "duration": 0.0166,
      "velocity": 117,
      "chip": "ym2612"
    },
    {
      "channel": 0,
      "note": 50,
      "start": 101.5964,
      "duration": 0.0798,
      "velocity": 101,
      "chip": "ym2612"
    },
    {
      "channel": 1,
      "note": 81,
      "start": 101.6006,
      "duration": 0.0765,
      "velocity": 106,
      "chip": "ym2612"
    },
    {
      "channel": 2,
      "note": 50,
      "start": 101.6051,
      "duration": 0.0222,
      "velocity": 117,
      "chip": "ym2612"
    },
    {
      "channel": 3,
      "note": 71,
      "start": 101.6099,
      "duration": 0.0186,
      "velocity": 127,
      "chip": "ym2612"
    },
    {
      "channel": 0,
      "note": 84,
      "start": 101.6814,
      "duration": 0.2448,
      "velocity": 106,
      "chip": "ym2612"
    },
    {
      "channel": 1,
      "note": 50,
      "start": 101.6859,
      "duration": 0.0246,
      "velocity": 117,
      "chip": "ym2612"
    },
    {
      "channel": 2,
      "note": 50,
      "start": 101.6899,
      "duration": 0.1529,
      "velocity": 101,
      "chip": "ym2612"
    },
    {
      "channel": 1,
      "note": 71,
      "start": 101.7803,
      "duration": 0.0309,
      "velocity": 127,
      "chip": "ym2612"
    },
    {
      "channel": 1,
      "note": 50,
      "start": 101.88,
      "duration": 0.0294,
      "velocity": 117,
      "chip": "ym2612"
    },
    {
      "channel": 2,
      "note": 50,
      "start": 101.884,
      "duration": 0.0755,
      "velocity": 101,
      "chip": "ym2612"
    },
    {
      "channel": 0,
      "note": 81,
      "start": 101.9798,
      "duration": 0.1631,
      "velocity": 106,
      "chip": "ym2612"
    },
    {
      "channel": 1,
      "note": 74,
      "start": 101.9841,
      "duration": 0.0253,
      "velocity": 127,
      "chip": "ym2612"
    },
    {
      "channel": 2,
      "note": 50,
      "start": 101.9882,
      "duration": 0.1555,
      "velocity": 101,
      "chip": "ym2612"
    },
    {
      "channel": 3,
      "note": 50,
      "start": 101.9934,
      "duration": 0.0172,
      "velocity": 117,
      "chip": "ym2612"
    },
    {
      "channel": 0,
      "note": 79,
      "start": 102.1631,
      "duration": 0.0798,
      "velocity": 106,
      "chip": "ym2612"
    },
    {
      "channel": 1,
      "note": 50,
      "start": 102.1676,
      "duration": 0.0251,
      "velocity": 117,
      "chip": "ym2612"
    },
    {
      "channel": 2,
      "note": 71,
      "start": 102.1723,
      "duration": 0.0214,
      "velocity": 127,
      "chip": "ym2612"
    },
    {
      "channel": 3,
      "note": 50,
      "start": 102.1766,
      "duration": 0.0671,
      "velocity": 101,
      "chip": "ym2612"
    },
    {
      "channel": 0,
      "note": 80,
      "start": 102.2643,
      "duration": 0.2452,
      "velocity": 106,
      "chip": "ym2612"
    },
    {
      "channel": 1,
      "note": 50,
      "start": 102.2687,
      "duration": 0.024,
      "velocity": 117,
      "chip": "ym2612"
    },
    {
      "channel": 2,
      "note": 53,
      "start": 102.2728,
      "duration": 0.0701,
      "velocity": 101,
      "chip": "ym2612"
    },
    {
      "channel": 1,
      "note": 71,
      "start": 102.3476,
      "duration": 0.0289,
      "velocity": 127,
      "chip": "ym2612"
    },
    {
      "channel": 2,
      "note": 55,
      "start": 102.3517,
      "duration": 0.0745,
      "velocity": 101,
      "chip": "ym2612"
    },
    {
      "channel": 1,
      "note": 57,
      "start": 102.4475,
      "duration": 0.0786,
      "velocity": 101,
      "chip": "ym2612"
    },
    {
      "channel": 2,
      "note": 50,
      "start": 102.4518,
      "duration": 0.0243,
      "velocity": 117,
      "chip": "ym2612"
    },
    {
      "channel": 0,
      "note": 79,
      "start": 102.5476,
      "duration": 0.1619,
      "velocity": 106,
      "chip": "ym2612"
    },
    {
      "channel": 1,
      "note": 50,
      "start": 102.5521,
      "duration": 0.0239,
      "velocity": 117,
      "chip": "ym2612"
    },
    {
      "channel": 2,
      "note": 50,
      "start": 102.5561,
      "duration": 0.1541,
      "velocity": 101,
      "chip": "ym2612"
    },
    {
      "channel": 1,
      "note": 71,
      "start": 102.6469,
      "duration": 0.0296,
      "velocity": 127,
      "chip": "ym2612"
    },
    {
      "channel": 0,
      "note": 77,
      "start": 102.731,
      "duration": 0.0798,
      "velocity": 106,
      "chip": "ym2612"
    },
    {
      "channel": 1,
      "note": 50,
      "start": 102.7354,
      "duration": 0.0239,
      "velocity": 117,
      "chip": "ym2612"
    },
    {
      "channel": 2,
      "note": 50,
      "start": 102.7394,
      "duration": 0.0721,
      "velocity": 101,
      "chip": "ym2612"
    },
    {
      "channel": 0,
      "note": 50,
      "start": 102.8296,
      "duration": 0.1643,
      "velocity": 101,
      "chip": "ym2612"
    },
    {
      "channel": 1,
      "note": 74,
      "start": 102.8339,
      "duration": 0.1609,
      "velocity": 106,
      "chip": "ym2612"
    },
    {
      "channel": 2,
      "note": 74,
      "start": 102.8382,
      "duration": 0.0213,
      "velocity": 127,
      "chip": "ym2612"
    },
    {
      "channel": 3,
      "note": 50,
      "start": 102.8434,
      "duration": 0.0174,
      "velocity": 117,
      "chip": "ym2612"
    },
    {
      "channel": 0,
      "note": 77,
      "start": 103.0132,
      "duration": 0.081,
      "velocity": 106,
      "chip": "ym2612"
    },
    {
      "channel": 1,
      "note": 50,
      "start": 103.0176,
      "duration": 0.0251,
      "velocity": 117,
      "chip": "ym2612"
    },
    {
      "channel": 2,
      "note": 71,
      "start": 103.0224,
      "duration": 0.0214,
      "velocity": 127,
      "chip": "ym2612"
    },
    {
      "channel": 3,
      "note": 50,
      "start": 103.0266,
      "duration": 0.0683,
      "velocity": 101,
      "chip": "ym2612"
    },
    {
      "channel": 0,
      "note": 50,
      "start": 103.113,
      "duration": 0.1643,
      "velocity": 101,
      "chip": "ym2612"
    },
    {
      "channel": 1,
      "note": 74,
      "start": 103.1172,
      "duration": 0.2437,
      "velocity": 106,
      "chip": "ym2612"
    },
    {
      "channel": 2,
      "note": 50,
      "start": 103.1216,
      "duration": 0.0212,
      "velocity": 117,
      "chip": "ym2612"
    },
    {
      "channel": 2,
      "note": 71,
      "start": 103.2136,
      "duration": 0.0297,
      "velocity": 127,
      "chip": "ym2612"
    },
    {
      "channel": 0,
      "note": 50,
      "start": 103.3129,
      "duration": 0.0799,
      "velocity": 101,
      "chip": "ym2612"
    },
    {
      "channel": 2,
      "note": 50,
      "start": 103.3173,
      "duration": 0.0254,
      "velocity": 117,
      "chip": "ym2612"
    },
    {
      "channel": 0,
      "note": 72,
      "start": 103.3971,
      "duration": 0.1625,
      "velocity": 106,
      "chip": "ym2612"
    },
    {
      "channel": 1,
      "note": 50,
      "start": 103.4013,
      "duration": 0.159,
      "velocity": 101,
      "chip": "ym2612"
    },
    {
      "channel": 2,
      "note": 74,
      "start": 103.4055,
      "duration": 0.0206,
      "velocity": 127,
      "chip": "ym2612"
    },
    {
      "channel": 3,
      "note": 50,
      "start": 103.4108,
      "duration": 0.0166,
      "velocity": 117,
      "chip": "ym2612"
    },
    {
      "channel": 0,
      "note": 50,
      "start": 103.5967,
      "duration": 0.0293,
      "velocity": 117,
      "chip": "ym2612"
    },
    {
      "channel": 1,
      "note": 74,
      "start": 103.601,
      "duration": 0.1587,
      "velocity": 106,
      "chip": "ym2612"
    },
    {
      "channel": 2,
      "note": 50,
      "start": 103.605,
      "duration": 0.0712,
      "velocity": 101,
      "chip": "ym2612"
    },
    {
      "channel": 3,
      "note": 71,
      "start": 103.6099,
      "duration": 0.0172,
      "velocity": 127,
      "chip": "ym2612"
    },
    {
      "channel": 0,
      "note": 50,
      "start": 103.6803,
      "duration": 0.08,
      "velocity": 101,
      "chip": "ym2612"
    },
    {
      "channel": 2,
      "note": 50,
      "start": 103.6847,
      "duration": 0.0247,
      "velocity": 117,
      "chip": "ym2612"
    },
    {
      "channel": 0,
      "note": 69,
      "start": 103.7798,
      "duration": 0.0798,
      "velocity": 106,
      "chip": "ym2612"
    },
    {
      "channel": 1,
      "note": 71,
      "start": 103.7845,
      "duration": 0.0254,
      "velocity": 127,
      "chip": "ym2612"
    },
    {
      "channel": 2,
      "note": 53,
      "start": 103.7885,
      "duration": 0.0718,
      "velocity": 101,
      "chip": "ym2612"
    },
    {
      "channel": 0,
      "note": 72,
      "start": 103.8798,
      "duration": 0.0798,
      "velocity": 106,
      "chip": "ym2612"
    },
    {
      "channel": 1,
      "note": 50,
      "start": 103.8842,
      "duration": 0.0263,
      "velocity": 117,
      "chip": "ym2612"
    },
    {
      "channel": 2,
      "note": 56,
      "start": 103.8882,
      "duration": 0.072,
      "velocity": 101,
      "chip": "ym2612"
    },
    {
      "channel": 0,
      "note": 74,
      "start": 103.9798,
      "duration": 0.1631,
      "velocity": 106,
      "chip": "ym2612"
    },
    {
      "channel": 1,
      "note": 74,
      "start": 103.9841,
      "duration": 0.0265,
      "velocity": 127,
      "chip": "ym2612"
    },
    {
      "channel": 2,
      "note": 57,
      "start": 103.9882,
      "duration": 0.0714,
      "velocity": 101,
      "chip": "ym2612"
    },
    {
      "channel": 3,
      "note": 50,
      "start": 103.9934,
      "duration": 0.0185,
      "velocity": 117,
      "chip": "ym2612"
    },
    {
      "channel": 1,
      "note": 60,
      "start": 104.0636,
      "duration": 0.08,
      "velocity": 101,
      "chip": "ym2612"
    },
    {
      "channel": 0,
      "note": 74,
      "start": 104.1632,
      "duration": 0.0798,
      "velocity": 106,
      "chip": "ym2612"
    },
    {
      "channel": 1,
      "note": 62,
      "start": 104.1673,
      "duration": 0.0763,
      "velocity": 101,
      "chip": "ym2612"
    },
    {
      "channel": 2,
      "note": 50,
      "start": 104.1717,
      "duration": 0.0223,
      "velocity": 117,
      "chip": "ym2612"
    },
    {
      "channel": 3,
      "note": 71,
      "start": 104.1766,
      "duration": 0.0186,
      "velocity": 127,
      "chip": "ym2612"
    },
    {
      "channel": 0,
      "note": 72,
      "start": 104.2631,
      "duration": 0.1631,
      "velocity": 106,
      "chip": "ym2612"
    },
    {
      "channel": 1,
      "note": 50,
      "start": 104.2676,
      "duration": 0.0251,
      "velocity": 117,
      "chip": "ym2612"
    },
    {
      "channel": 2,
      "note": 65,
      "start": 104.2716,
      "duration": 0.0714,
      "velocity": 101,
      "chip": "ym2612"
    },
    {
      "channel": 1,
      "note": 62,
      "start": 104.347,
      "duration": 0.0799,
      "velocity": 101,
      "chip": "ym2612"
    },
    {
      "channel": 2,
      "note": 71,
      "start": 104.3517,
      "duration": 0.0261,
      "velocity": 127,
      "chip": "ym2612"
    },
    {
      "channel": 0,
      "note": 72,
      "start": 104.4464,
      "duration": 0.0798,
      "velocity": 106,
      "chip": "ym2612"
    },
    {
      "channel": 1,
      "note": 50,
      "start": 104.4509,
      "duration": 0.0251,
      "velocity": 117,
      "chip": "ym2612"
    },
    {
      "channel": 2,
      "note": 53,
      "start": 104.4549,
      "duration": 0.072,
      "velocity": 101,
      "chip": "ym2612"
    },
    {
      "channel": 0,
      "note": 74,
      "start": 104.5464,
      "duration": 0.2464,
      "velocity": 106,
      "chip": "ym2612"
    },
    {
      "channel": 1,
      "note": 50,
      "start": 104.5509,
      "duration": 0.0251,
      "velocity": 117,
      "chip": "ym2612"
    },
    {
      "channel": 2,
      "note": 50,
      "start": 104.5549,
      "duration": 0.1546,
      "velocity": 101,
      "chip": "ym2612"
    },
    {
      "channel": 1,
      "note": 71,
      "start": 104.6481,
      "duration": 0.0284,
      "velocity": 127,
      "chip": "ym2612"
    },
    {
      "channel": 1,
      "note": 50,
      "start": 104.73,
      "duration": 0.0294,
      "velocity": 117,
      "chip": "ym2612"
    },
    {
      "channel": 2,
      "note": 50,
      "start": 104.734,
      "duration": 0.0755,
      "velocity": 101,
      "chip": "ym2612"
    },
    {
      "channel": 0,
      "note": 50,
      "start": 104.8309,
      "duration": 0.1618,
      "velocity": 101,
      "chip": "ym2612"
    },
    {
      "channel": 1,
      "note": 77,
      "start": 104.8352,
      "duration": 0.0744,
      "velocity": 106,
      "chip": "ym2612"
    },
    {
      "channel": 2,
      "note": 74,
      "start": 104.8394,
      "duration": 0.0201,
      "velocity": 127,
      "chip": "ym2612"
    },
    {
      "channel": 3,
      "note": 50,
      "start": 104.8446,
      "duration": 0.0161,
      "velocity": 117,
      "chip": "ym2612"
    },
    {
      "channel": 1,
      "note": 74,
      "start": 104.931,
      "duration": 0.08,
      "velocity": 106,
      "chip": "ym2612"
    },
    {
      "channel": 0,
      "note": 77,
      "start": 105.0153,
      "duration": 0.3276,
      "velocity": 106,
      "chip": "ym2612"
    },
    {
      "channel": 1,
      "note": 50,
      "start": 105.0198,
      "duration": 0.0229,
      "velocity": 117,
      "chip": "ym2612"
    },
    {
      "channel": 2,
      "note": 71,
      "start": 105.0246,
      "duration": 0.0193,
      "velocity": 127,
      "chip": "ym2612"
    },
    {
      "channel": 3,
      "note": 50,
      "start": 105.0288,
      "duration": 0.0641,
      "velocity": 101,
      "chip": "ym2612"
    },
    {
      "channel": 1,
      "note": 50,
      "start": 105.1142,
      "duration": 0.162,
      "velocity": 101,
      "chip": "ym2612"
    },
    {
      "channel": 2,
      "note": 50,
      "start": 105.1185,
      "duration": 0.0242,
      "velocity": 117,
      "chip": "ym2612"
    },
    {
      "channel": 2,
      "note": 71,
      "start": 105.2136,
      "duration": 0.0297,
      "velocity": 127,
      "chip": "ym2612"
    },
    {
      "channel": 1,
      "note": 50,
      "start": 105.313,
      "duration": 0.0798,
      "velocity": 101,
      "chip": "ym2612"
    },
    {
      "channel": 2,
      "note": 50,
      "start": 105.3173,
      "duration": 0.0261,
      "velocity": 117,
      "chip": "ym2612"
    },
    {
      "channel": 0,
      "note": 74,
      "start": 105.3972,
      "duration": 0.0802,
      "velocity": 106,
      "chip": "ym2612"
    },
    {
      "channel": 1,
      "note": 50,
      "start": 105.4013,
      "duration": 0.1593,
      "velocity": 101,
      "chip": "ym2612"
    },
    {
      "channel": 2,
      "note": 74,
      "start": 105.4055,
      "duration": 0.0206,
      "velocity": 127,
      "chip": "ym2612"
    },
    {
      "channel": 3,
      "note": 50,
      "start": 105.4108,
      "duration": 0.0166,
      "velocity": 117,
      "chip": "ym2612"
    },
    {
      "channel": 0,
      "note": 72,
      "start": 105.4964,
      "duration": 0.0798,
      "velocity": 106,
      "chip": "ym2612"
    },
    {
      "channel": 0,
      "note": 74,
      "start": 105.5964,
      "duration": 0.331,
      "velocity": 106,
      "chip": "ym2612"
    },
    {
      "channel": 1,
      "note": 71,
      "start": 105.6013,
      "duration": 0.0253,
      "velocity": 127,
      "chip": "ym2612"
    },
    {
      "channel": 2,
      "note": 50,
      "start": 105.6057,
      "duration": 0.0214,
      "velocity": 117,
      "chip": "ym2612"
    },
    {
      "channel": 3,
      "note": 50,
      "start": 105.6099,
      "duration": 0.0663,
      "velocity": 101,
      "chip": "ym2612"
    },
    {
      "channel": 1,
      "note": 50,
      "start": 105.6807,
      "duration": 0.0286,
      "velocity": 117,
      "chip": "ym2612"
    },
    {
      "channel": 2,
      "note": 50,
      "start": 105.6847,
      "duration": 0.1593,
      "velocity": 101,
      "chip": "ym2612"
    },
    {
      "channel": 1,
      "note": 71,
      "start": 105.7803,
      "duration": 0.0296,
      "velocity": 127,
      "chip": "ym2612"
    },
    {
      "channel": 1,
      "note": 50,
      "start": 105.8796,
      "duration": 0.0798,
      "velocity": 101,
      "chip": "ym2612"
    },
    {
      "channel": 2,
      "note": 50,
      "start": 105.884,
      "duration": 0.0254,
      "velocity": 117,
      "chip": "ym2612"
    },
    {
      "channel": 0,
      "note": 74,
      "start": 105.9798,
      "duration": 0.0295,
      "velocity": 127,
      "chip": "ym2612"
    },
    {
      "channel": 1,
      "note": 72,
      "start": 105.9841,
      "duration": 0.0755,
      "velocity": 106,
      "chip": "ym2612"
    },
    {
      "channel": 2,
      "note": 50,
      "start": 105.9882,
      "duration": 0.1547,
      "velocity": 101,
      "chip": "ym2612"
    },
    {
      "channel": 3,
      "note": 50,
      "start": 105.9934,
      "duration": 0.0172,
      "velocity": 117,
      "chip": "ym2612"
    },
    {
      "channel": 0,
      "note": 69,
      "start": 106.0638,
      "duration": 0.0798,
      "velocity": 106,
      "chip": "ym2612"
    },
    {
      "channel": 0,
      "note": 50,
      "start": 106.1634,
      "duration": 0.0293,
      "velocity": 117,
      "chip": "ym2612"
    },
    {
      "channel": 1,
      "note": 72,
      "start": 106.1676,
      "duration": 0.242,
      "velocity": 106,
      "chip": "ym2612"
    },
    {
      "channel": 2,
      "note": 50,
      "start": 106.1717,
      "duration": 0.0711,
      "velocity": 101,
      "chip": "ym2612"
    },
    {
      "channel": 3,
      "note": 71,
      "start": 106.1766,
      "duration": 0.0172,
      "velocity": 127,
      "chip": "ym2612"
    },
    {
      "channel": 0,
      "note": 50,
      "start": 106.2633,
      "duration": 0.0305,
      "velocity": 117,
      "chip": "ym2612"
    },
    {
      "channel": 2,
      "note": 53,
      "start": 106.2673,
      "duration": 0.0756,
      "velocity": 101,
      "chip": "ym2612"
    },
    {
      "channel": 0,
      "note": 55,
      "start": 106.347,
      "duration": 0.0791,
      "velocity": 101,
      "chip": "ym2612"
    },
    {
      "channel": 2,
      "note": 71,
      "start": 106.3517,
      "duration": 0.0249,
      "velocity": 127,
      "chip": "ym2612"
    },
    {
      "channel": 0,
      "note": 69,
      "start": 106.4464,
      "duration": 0.0798,
      "velocity": 106,
      "chip": "ym2612"
    },
    {
      "channel": 1,
      "note": 57,
      "start": 106.4505,
      "duration": 0.0764,
      "velocity": 101,
      "chip": "ym2612"
    },
    {
      "channel": 2,
      "note": 50,
      "start": 106.4549,
      "duration": 0.0224,
      "velocity": 117,
      "chip": "ym2612"
    },
    {
      "channel": 0,
      "note": 74,
      "start": 106.5464,
      "duration": 0.1632,
      "velocity": 106,
      "chip": "ym2612"
    },
    {
      "channel": 1,
      "note": 50,
      "start": 106.5505,
      "duration": 0.1598,
      "velocity": 101,
      "chip": "ym2612"
    },
    {
      "channel": 2,
      "note": 50,
      "start": 106.5549,
      "duration": 0.0224,
      "velocity": 117,
      "chip": "ym2612"
    },
    {
      "channel": 2,
      "note": 71,
      "start": 106.6469,
      "duration": 0.0297,
      "velocity": 127,
      "chip": "ym2612"
    },
    {
      "channel": 0,
      "note": 74,
      "start": 106.7298,
      "duration": 0.0798,
      "velocity": 106,
      "chip": "ym2612"
    },
    {
      "channel": 1,
      "note": 50,
      "start": 106.7338,
      "duration": 0.0764,
      "velocity": 101,
      "chip": "ym2612"
    },
    {
      "channel": 2,
      "note": 50,
      "start": 106.7382,
      "duration": 0.0225,
      "velocity": 117,
      "chip": "ym2612"
    },
    {
      "channel": 0,
      "note": 77,
      "start": 106.8298,
      "duration": 0.163,
      "velocity": 106,
      "chip": "ym2612"
    },
    {
      "channel": 1,
      "note": 74,
      "start": 106.8341,
      "duration": 0.0253,
      "velocity": 127,
      "chip": "ym2612"
    },
    {
      "channel": 2,
      "note": 50,
      "start": 106.8382,
      "duration": 0.1554,
      "velocity": 101,
      "chip": "ym2612"
    },
    {
      "channel": 3,
      "note": 50,
      "start": 106.8435,
      "duration": 0.0172,
      "velocity": 117,
      "chip": "ym2612"
    },
    {
      "channel": 0,
      "note": 77,
      "start": 107.0132,
      "duration": 0.0798,
      "velocity": 106,
      "chip": "ym2612"
    },
    {
      "channel": 1,
      "note": 50,
      "start": 107.0173,
      "duration": 0.0763,
      "velocity": 101,
      "chip": "ym2612"
    },
    {
      "channel": 2,
      "note": 50,
      "start": 107.0217,
      "duration": 0.021,
      "velocity": 117,
      "chip": "ym2612"
    },
    {
      "channel": 3,
      "note": 71,
      "start": 107.0266,
      "duration": 0.0173,
      "velocity": 127,
      "chip": "ym2612"
    },
    {
      "channel": 0,
      "note": 79,
      "start": 107.1131,
      "duration": 0.1632,
      "velocity": 106,
      "chip": "ym2612"
    },
    {
      "channel": 1,
      "note": 50,
      "start": 107.1172,
      "duration": 0.1598,
      "velocity": 101,
      "chip": "ym2612"
    },
    {
      "channel": 2,
      "note": 50,
      "start": 107.1216,
      "duration": 0.0212,
      "velocity": 117,
      "chip": "ym2612"
    },
    {
      "channel": 2,
      "note": 71,
      "start": 107.2148,
      "duration": 0.0284,
      "velocity": 127,
      "chip": "ym2612"
    },
    {
      "channel": 0,
      "note": 79,
      "start": 107.3143,
      "duration": 0.0799,
      "velocity": 106,
      "chip": "ym2612"
    },
    {
      "channel": 1,
      "note": 50,
      "start": 107.3188,
      "duration": 0.0239,
      "velocity": 117,
      "chip": "ym2612"
    },
    {
      "channel": 2,
      "note": 50,
      "start": 107.3228,
      "duration": 0.0724,
      "velocity": 101,
      "chip": "ym2612"
    },
    {
      "channel": 0,
      "note": 74,
      "start": 107.3995,
      "duration": 0.16,
      "velocity": 106,
      "chip": "ym2612"
    },
    {
      "channel": 1,
      "note": 74,
      "start": 107.4038,
      "duration": 0.0223,
      "velocity": 127,
      "chip": "ym2612"
    },
    {
      "channel": 2,
      "note": 50,
      "start": 107.4079,
      "duration": 0.1524,
      "velocity": 101,
      "chip": "ym2612"
    },
    {
      "channel": 3,
      "note": 50,
      "start": 107.4131,
      "duration": 0.0142,
      "velocity": 117,
      "chip": "ym2612"
    },
    {
      "channel": 0,
      "note": 74,
      "start": 107.5965,
      "duration": 0.0811,
      "velocity": 106,
      "chip": "ym2612"
    },
    {
      "channel": 1,
      "note": 50,
      "start": 107.601,
      "duration": 0.0251,
      "velocity": 117,
      "chip": "ym2612"
    },
    {
      "channel": 2,
      "note": 71,
      "start": 107.6057,
      "duration": 0.0214,
      "velocity": 127,
      "chip": "ym2612"
    },
    {
      "channel": 3,
      "note": 50,
      "start": 107.6099,
      "duration": 0.0686,
      "velocity": 101,
      "chip": "ym2612"
    },
    {
      "channel": 0,
      "note": 69,
      "start": 107.6828,
      "duration": 0.078,
      "velocity": 106,
      "chip": "ym2612"
    },
    {
      "channel": 1,
      "note": 50,
      "start": 107.6872,
      "duration": 0.0221,
      "velocity": 117,
      "chip": "ym2612"
    },
    {
      "channel": 2,
      "note": 50,
      "start": 107.6912,
      "duration": 0.0703,
      "velocity": 101,
      "chip": "ym2612"
    },
    {
      "channel": 0,
      "note": 74,
      "start": 107.7798,
      "duration": 0.081,
      "velocity": 106,
      "chip": "ym2612"
    },
    {
      "channel": 1,
      "note": 71,
      "start": 107.7845,
      "duration": 0.0254,
      "velocity": 127,
      "chip": "ym2612"
    },
    {
      "channel": 2,
      "note": 53,
      "start": 107.7885,
      "duration": 0.073,
      "velocity": 101,
      "chip": "ym2612"
    },
    {
      "channel": 0,
      "note": 56,
      "start": 107.8796,
      "duration": 0.0798,
      "velocity": 101,
      "chip": "ym2612"
    },
    {
      "channel": 1,
      "note": 77,
      "start": 107.8838,
      "duration": 0.0764,
      "velocity": 106,
      "chip": "ym2612"
    },
    {
      "channel": 2,
      "note": 50,
      "start": 107.8882,
      "duration": 0.0211,
      "velocity": 117,
      "chip": "ym2612"
    },
    {
      "channel": 0,
      "note": 50,
      "start": 107.98,
      "duration": 0.0293,
      "velocity": 117,
      "chip": "ym2612"
    },
    {
      "channel": 1,
      "note": 57,
      "start": 107.9842,
      "duration": 0.0765,
      "velocity": 101,
      "chip": "ym2612"
    },
    {
      "channel": 2,
      "note": 79,
      "start": 107.9884,
      "duration": 0.0714,
      "velocity": 106,
      "chip": "ym2612"
    },
    {
      "channel": 3,
      "note": 50,
      "start": 107.9936,
      "duration": 0.0171,
      "velocity": 117,
      "chip": "ym2612"
    },
    {
      "channel": 0,
      "note": 71,
      "start": 108.0654,
      "duration": 0.0277,
      "velocity": 127,
      "chip": "ym2612"
    },
    {
      "channel": 1,
      "note": 60,
      "start": 108.0695,
      "duration": 0.0742,
      "velocity": 101,
      "chip": "ym2612"
    },
    {
      "channel": 2,
      "note": 69,
      "start": 108.0737,
      "duration": 0.0693,
      "velocity": 106,
      "chip": "ym2612"
    },
    {
      "channel": 0,
      "note": 50,
      "start": 108.1633,
      "duration": 0.0293,
      "velocity": 117,
      "chip": "ym2612"
    },
    {
      "channel": 1,
      "note": 62,
      "start": 108.1674,
      "duration": 0.0763,
      "velocity": 101,
      "chip": "ym2612"
    },
    {
      "channel": 2,
      "note": 74,
      "start": 108.1716,
      "duration": 0.0714,
      "velocity": 106,
      "chip": "ym2612"
    },
    {
      "channel": 0,
      "note": 77,
      "start": 108.2632,
      "duration": 0.0798,
      "velocity": 106,
      "chip": "ym2612"
    },
    {
      "channel": 1,
      "note": 65,
      "start": 108.2673,
      "duration": 0.0766,
      "velocity": 101,
      "chip": "ym2612"
    },
    {
      "channel": 2,
      "note": 50,
      "start": 108.2717,
      "duration": 0.021,
      "velocity": 117,
      "chip": "ym2612"
    },
    {
      "channel": 3,
      "note": 74,
      "start": 108.2766,
      "duration": 0.0173,
      "velocity": 127,
      "chip": "ym2612"
    },
    {
      "channel": 0,
      "note": 62,
      "start": 108.348,
      "duration": 0.078,
      "velocity": 101,
      "chip": "ym2612"
    },
    {
      "channel": 1,
      "note": 74,
      "start": 108.3527,
      "duration": 0.0238,
      "velocity": 127,
      "chip": "ym2612"
    },
    {
      "channel": 2,
      "note": 79,
      "start": 108.3569,
      "duration": 0.07,
      "velocity": 106,
      "chip": "ym2612"
    },
    {
      "channel": 0,
      "note": 53,
      "start": 108.4463,
      "duration": 0.0798,
      "velocity": 101,
      "chip": "ym2612"
    },
    {
      "channel": 1,
      "note": 50,
      "start": 108.4508,
      "duration": 0.0252,
      "velocity": 117,
      "chip": "ym2612"
    },
    {
      "channel": 2,
      "note": 74,
      "start": 108.4555,
      "duration": 0.0216,
      "velocity": 127,
      "chip": "ym2612"
    },
    {
      "channel": 3,
      "note": 82,
      "start": 108.4599,
      "duration": 0.0671,
      "velocity": 106,
      "chip": "ym2612"
    },
    {
      "channel": 0,
      "note": 48,
      "start": 108.5463,
      "duration": 0.1631,
      "velocity": 101,
      "chip": "ym2612"
    },
    {
      "channel": 1,
      "note": 84,
      "start": 108.5505,
      "duration": 0.2424,
      "velocity": 106,
      "chip": "ym2612"
    },
    {
      "channel": 2,
      "note": 50,
      "start": 108.5548,
      "duration": 0.0212,
      "velocity": 117,
      "chip": "ym2612"
    },
    {
      "channel": 2,
      "note": 71,
      "start": 108.6469,
      "duration": 0.0309,
      "velocity": 127,
      "chip": "ym2612"
    },
    {
      "channel": 0,
      "note": 50,
      "start": 108.73,
      "duration": 0.0293,
      "velocity": 117,
      "chip": "ym2612"
    },
    {
      "channel": 2,
      "note": 48,
      "start": 108.734,
      "duration": 0.0755,
      "velocity": 101,
      "chip": "ym2612"
    },
    {
      "channel": 0,
      "note": 74,
      "start": 108.8298,
      "duration": 0.0307,
      "velocity": 127,
      "chip": "ym2612"
    },
    {
      "channel": 1,
      "note": 48,
      "start": 108.834,
      "duration": 0.1597,
      "velocity": 101,
      "chip": "ym2612"
    },
    {
      "channel": 2,
      "note": 82,
      "start": 108.8382,
      "duration": 0.1548,
      "velocity": 106,
      "chip": "ym2612"
    },
    {
      "channel": 3,
      "note": 50,
      "start": 108.8434,
      "duration": 0.0184,
      "velocity": 117,
      "chip": "ym2612"
    },
    {
      "channel": 0,
      "note": 48,
      "start": 109.013,
      "duration": 0.0797,
      "velocity": 101,
      "chip": "ym2612"
    },
    {
      "channel": 1,
      "note": 71,
      "start": 109.0178,
      "duration": 0.0266,
      "velocity": 127,
      "chip": "ym2612"
    },
    {
      "channel": 2,
      "note": 50,
      "start": 109.0223,
      "duration": 0.0227,
      "velocity": 117,
      "chip": "ym2612"
    },
    {
      "channel": 3,
      "note": 79,
      "start": 109.0266,
      "duration": 0.0671,
      "velocity": 106,
      "chip": "ym2612"
    },
    {
      "channel": 0,
      "note": 82,
      "start": 109.1131,
      "duration": 0.2464,
      "velocity": 106,
      "chip": "ym2612"
    },
    {
      "channel": 1,
      "note": 48,
      "start": 109.1172,
      "duration": 0.159,
      "velocity": 101,
      "chip": "ym2612"
    },
    {
      "channel": 2,
      "note": 50,
      "start": 109.1215,
      "duration": 0.0225,
      "velocity": 117,
      "chip": "ym2612"
    },
    {
      "channel": 2,
      "note": 71,
      "start": 109.2136,
      "duration": 0.0297,
      "velocity": 127,
      "chip": "ym2612"
    },
    {
      "channel": 1,
      "note": 50,
      "start": 109.3133,
      "duration": 0.0294,
      "velocity": 117,
      "chip": "ym2612"
    },
    {
      "channel": 2,
      "note": 48,
      "start": 109.3173,
      "duration": 0.0756,
      "velocity": 101,
      "chip": "ym2612"
    },
    {
      "channel": 0,
      "note": 79,
      "start": 109.3972,
      "duration": 0.1623,
      "velocity": 106,
      "chip": "ym2612"
    },
    {
      "channel": 1,
      "note": 48,
      "start": 109.4013,
      "duration": 0.1589,
      "velocity": 101,
      "chip": "ym2612"
    },
    {
      "channel": 2,
      "note": 74,
      "start": 109.4056,
      "duration": 0.0205,
      "velocity": 127,
      "chip": "ym2612"
    },
    {
      "channel": 3,
      "note": 50,
      "start": 109.4108,
      "duration": 0.0166,
      "velocity": 117,
      "chip": "ym2612"
    },
    {
      "channel": 0,
      "note": 50,
      "start": 109.5979,
      "duration": 0.0281,
      "velocity": 117,
      "chip": "ym2612"
    },
    {
      "channel": 1,
      "note": 48,
      "start": 109.602,
      "duration": 0.0753,
      "velocity": 101,
      "chip": "ym2612"
    },
    {
      "channel": 2,
      "note": 71,
      "start": 109.6067,
      "duration": 0.0203,
      "velocity": 127,
      "chip": "ym2612"
    },
    {
      "channel": 3,
      "note": 77,
      "start": 109.6111,
      "duration": 0.0654,
      "velocity": 106,
      "chip": "ym2612"
    },
    {
      "channel": 0,
      "note": 50,
      "start": 109.6818,
      "duration": 0.0275,
      "velocity": 117,
      "chip": "ym2612"
    },
    {
      "channel": 1,
      "note": 48,
      "start": 109.6859,
      "duration": 0.1569,
      "velocity": 101,
      "chip": "ym2612"
    },
    {
      "channel": 2,
      "note": 79,
      "start": 109.69,
      "duration": 0.2363,
      "velocity": 106,
      "chip": "ym2612"
    },
    {
      "channel": 0,
      "note": 71,
      "start": 109.7814,
      "duration": 0.0285,
      "velocity": 127,
      "chip": "ym2612"
    },
    {
      "channel": 0,
      "note": 48,
      "start": 109.8809,
      "duration": 0.0798,
      "velocity": 101,
      "chip": "ym2612"
    },
    {
      "channel": 1,
      "note": 50,
      "start": 109.8852,
      "duration": 0.0241,
      "velocity": 117,
      "chip": "ym2612"
    },
    {
      "channel": 0,
      "note": 74,
      "start": 109.9798,
      "duration": 0.0295,
      "velocity": 127,
      "chip": "ym2612"
    },
    {
      "channel": 1,
      "note": 48,
      "start": 109.984,
      "duration": 0.1609,
      "velocity": 101,
      "chip": "ym2612"
    },
    {
      "channel": 2,
      "note": 77,
      "start": 109.9882,
      "duration": 0.1561,
      "velocity": 106,
      "chip": "ym2612"
    },
    {
      "channel": 3,
      "note": 50,
      "start": 109.9934,
      "duration": 0.0173,
      "velocity": 117,
      "chip": "ym2612"
    },
    {
      "channel": 0,
      "note": 71,
      "start": 110.1637,
      "duration": 0.0295,
      "velocity": 127,
      "chip": "ym2612"
    },
    {
      "channel": 1,
      "note": 48,
      "start": 110.1678,
      "duration": 0.0771,
      "velocity": 101,
      "chip": "ym2612"
    },
    {
      "channel": 2,
      "note": 50,
      "start": 110.1722,
      "duration": 0.0216,
      "velocity": 117,
      "chip": "ym2612"
    },
    {
      "channel": 3,
      "note": 75,
      "start": 110.1766,
      "duration": 0.0677,
      "velocity": 106,
      "chip": "ym2612"
    },
    {
      "channel": 0,
      "note": 77,
      "start": 110.2631,
      "duration": 0.2476,
      "velocity": 106,
      "chip": "ym2612"
    },
    {
      "channel": 1,
      "note": 48,
      "start": 110.2672,
      "duration": 0.1602,
      "velocity": 101,
      "chip": "ym2612"
    },
    {
      "channel": 2,
      "note": 50,
      "start": 110.2715,
      "duration": 0.0212,
      "velocity": 117,
      "chip": "ym2612"
    },
    {
      "channel": 2,
      "note": 71,
      "start": 110.3469,
      "duration": 0.0297,
      "velocity": 127,
      "chip": "ym2612"
    },
    {
      "channel": 1,
      "note": 48,
      "start": 110.4463,
      "duration": 0.0798,
      "velocity": 101,
      "chip": "ym2612"
    },
    {
      "channel": 2,
      "note": 50,
      "start": 110.4506,
      "duration": 0.0254,
      "velocity": 117,
      "chip": "ym2612"
    },
    {
      "channel": 0,
      "note": 51,
      "start": 110.5464,
      "duration": 0.163,
      "velocity": 101,
      "chip": "ym2612"
    },
    {
      "channel": 1,
      "note": 75,
      "start": 110.5506,
      "duration": 0.1596,
      "velocity": 106,
      "chip": "ym2612"
    },
    {
      "channel": 2,
      "note": 74,
      "start": 110.5548,
      "duration": 0.0213,
      "velocity": 127,
      "chip": "ym2612"
    },
    {
      "channel": 3,
      "note": 50,
      "start": 110.5601,
      "duration": 0.0173,
      "velocity": 117,
      "chip": "ym2612"
    },
    {
      "channel": 0,
      "note": 71,
      "start": 110.7303,
      "duration": 0.0295,
      "velocity": 127,
      "chip": "ym2612"
    },
    {
      "channel": 1,
      "note": 70,
      "start": 110.7346,
      "duration": 0.5417,
      "velocity": 106,
      "chip": "ym2612"
    },
    {
      "channel": 2,
      "note": 50,
      "start": 110.7391,
      "duration": 0.0214,
      "velocity": 117,
      "chip": "ym2612"
    },
    {
      "channel": 3,
      "note": 53,
      "start": 110.7433,
      "duration": 0.0663,
      "velocity": 101,
      "chip": "ym2612"
    },
    {
      "channel": 0,
      "note": 50,
      "start": 110.83,
      "duration": 0.0293,
      "velocity": 117,
      "chip": "ym2612"
    },
    {
      "channel": 2,
      "note": 48,
      "start": 110.834,
      "duration": 0.1588,
      "velocity": 101,
      "chip": "ym2612"
    },
    {
      "channel": 0,
      "note": 71,
      "start": 110.9303,
      "duration": 0.0295,
      "velocity": 127,
      "chip": "ym2612"
    },
    {
      "channel": 0,
      "note": 48,
      "start": 111.013,
      "duration": 0.0798,
      "velocity": 101,
      "chip": "ym2612"
    },
    {
      "channel": 2,
      "note": 50,
      "start": 111.0193,
      "duration": 0.0235,
      "velocity": 117,
      "chip": "ym2612"
    },
    {
      "channel": 0,
      "note": 74,
      "start": 111.1174,
      "duration": 0.0254,
      "velocity": 127,
      "chip": "ym2612"
    },
    {
      "channel": 2,
      "note": 48,
      "start": 111.1215,
      "duration": 0.1557,
      "velocity": 101,
      "chip": "ym2612"
    },
    {
      "channel": 3,
      "note": 50,
      "start": 111.1268,
      "duration": 0.0175,
      "velocity": 117,
      "chip": "ym2612"
    },
    {
      "channel": 0,
      "note": 50,
      "start": 111.3176,
      "duration": 0.0263,
      "velocity": 117,
      "chip": "ym2612"
    },
    {
      "channel": 1,
      "note": 48,
      "start": 111.3217,
      "duration": 0.0711,
      "velocity": 101,
      "chip": "ym2612"
    },
    {
      "channel": 2,
      "note": 71,
      "start": 111.3266,
      "duration": 0.0183,
      "velocity": 127,
      "chip": "ym2612"
    },
    {
      "channel": 3,
      "note": 72,
      "start": 111.3308,
      "duration": 0.5288,
      "velocity": 106,
      "chip": "ym2612"
    },
    {
      "channel": 0,
      "note": 48,
      "start": 111.3969,
      "duration": 0.1625,
      "velocity": 101,
      "chip": "ym2612"
    },
    {
      "channel": 1,
      "note": 50,
      "start": 111.4013,
      "duration": 0.026,
      "velocity": 117,
      "chip": "ym2612"
    },
    {
      "channel": 1,
      "note": 71,
      "start": 111.4969,
      "duration": 0.0309,
      "velocity": 127,
      "chip": "ym2612"
    },
    {
      "channel": 0,
      "note": 50,
      "start": 111.5966,
      "duration": 0.0293,
      "velocity": 117,
      "chip": "ym2612"
    },
    {
      "channel": 1,
      "note": 48,
      "start": 111.6006,
      "duration": 0.0756,
      "velocity": 101,
      "chip": "ym2612"
    },
    {
      "channel": 0,
      "note": 74,
      "start": 111.6805,
      "duration": 0.03,
      "velocity": 127,
      "chip": "ym2612"
    },
    {
      "channel": 1,
      "note": 48,
      "start": 111.6846,
      "duration": 0.1582,
      "velocity": 101,
      "chip": "ym2612"
    },
    {
      "channel": 2,
      "note": 50,
      "start": 111.6896,
      "duration": 0.0222,
      "velocity": 117,
      "chip": "ym2612"
    },
    {
      "channel": 0,
      "note": 71,
      "start": 111.8803,
      "duration": 0.0295,
      "velocity": 127,
      "chip": "ym2612"
    },
    {
      "channel": 1,
      "note": 48,
      "start": 111.8845,
      "duration": 0.0749,
      "velocity": 101,
      "chip": "ym2612"
    },
    {
      "channel": 2,
      "note": 50,
      "start": 111.8889,
      "duration": 0.0216,
      "velocity": 117,
      "chip": "ym2612"
    },
    {
      "channel": 3,
      "note": 75,
      "start": 111.8933,
      "duration": 0.2498,
      "velocity": 106,
      "chip": "ym2612"
    },
    {
      "channel": 0,
      "note": 50,
      "start": 111.9811,
      "duration": 0.0282,
      "velocity": 117,
      "chip": "ym2612"
    },
    {
      "channel": 1,
      "note": 48,
      "start": 111.9851,
      "duration": 0.1586,
      "velocity": 101,
      "chip": "ym2612"
    },
    {
      "channel": 0,
      "note": 71,
      "start": 112.0636,
      "duration": 0.0296,
      "velocity": 127,
      "chip": "ym2612"
    },
    {
      "channel": 0,
      "note": 77,
      "start": 112.1643,
      "duration": 0.2619,
      "velocity": 106,
      "chip": "ym2612"
    },
    {
      "channel": 1,
      "note": 48,
      "start": 112.1684,
      "duration": 0.0744,
      "velocity": 101,
      "chip": "ym2612"
    },
    {
      "channel": 2,
      "note": 50,
      "start": 112.1728,
      "duration": 0.0199,
      "velocity": 117,
      "chip": "ym2612"
    },
    {
      "channel": 1,
      "note": 74,
      "start": 112.2644,
      "duration": 0.0284,
      "velocity": 127,
      "chip": "ym2612"
    },
    {
      "channel": 2,
      "note": 48,
      "start": 112.2685,
      "duration": 0.1585,
      "velocity": 101,
      "chip": "ym2612"
    },
    {
      "channel": 3,
      "note": 50,
      "start": 112.2735,
      "duration": 0.0205,
      "velocity": 117,
      "chip": "ym2612"
    },
    {
      "channel": 0,
      "note": 79,
      "start": 112.4476,
      "duration": 0.263,
      "velocity": 106,
      "chip": "ym2612"
    },
    {
      "channel": 1,
      "note": 50,
      "start": 112.4522,
      "duration": 0.0239,
      "velocity": 117,
      "chip": "ym2612"
    },
    {
      "channel": 2,
      "note": 71,
      "start": 112.4569,
      "duration": 0.0203,
      "velocity": 127,
      "chip": "ym2612"
    },
    {
      "channel": 3,
      "note": 48,
      "start": 112.4611,
      "duration": 0.0663,
      "velocity": 101,
      "chip": "ym2612"
    },
    {
      "channel": 1,
      "note": 48,
      "start": 112.5463,
      "duration": 0.1651,
      "velocity": 101,
      "chip": "ym2612"
    },
    {
      "channel": 2,
      "note": 50,
      "start": 112.5506,
      "duration": 0.0254,
      "velocity": 117,
      "chip": "ym2612"
    },
    {
      "channel": 2,
      "note": 71,
      "start": 112.6469,
      "duration": 0.0297,
      "velocity": 127,
      "chip": "ym2612"
    },
    {
      "channel": 0,
      "note": 50,
      "start": 112.73,
      "duration": 0.0293,
      "velocity": 117,
      "chip": "ym2612"
    },
    {
      "channel": 1,
      "note": 82,
      "start": 112.7342,
      "duration": 0.2599,
      "velocity": 106,
      "chip": "ym2612"
    },
    {
      "channel": 2,
      "note": 48,
      "start": 112.7382,
      "duration": 0.0725,
      "velocity": 101,
      "chip": "ym2612"
    },
    {
      "channel": 0,
      "note": 60,
      "start": 112.8296,
      "duration": 0.0798,
      "velocity": 101,
      "chip": "ym2612"
    },
    {
      "channel": 2,
      "note": 74,
      "start": 112.8339,
      "duration": 0.0256,
      "velocity": 127,
      "chip": "ym2612"
    },
    {
      "channel": 3,
      "note": 50,
      "start": 112.839,
      "duration": 0.0217,
      "velocity": 117,
      "chip": "ym2612"
    },
    {
      "channel": 0,
      "note": 58,
      "start": 112.9296,
      "duration": 0.0799,
      "velocity": 101,
      "chip": "ym2612"
    },
    {
      "channel": 0,
      "note": 84,
      "start": 113.0138,
      "duration": 0.2469,
      "velocity": 106,
      "chip": "ym2612"
    },
    {
      "channel": 1,
      "note": 71,
      "start": 113.0186,
      "duration": 0.0246,
      "velocity": 127,
      "chip": "ym2612"
    },
    {
      "channel": 2,
      "note": 55,
      "start": 113.0227,
      "duration": 0.0701,
      "velocity": 101,
      "chip": "ym2612"
    },
    {
      "channel": 3,
      "note": 50,
      "start": 113.0273,
      "duration": 0.0165,
      "velocity": 117,
      "chip": "ym2612"
    },
    {
      "channel": 1,
      "note": 50,
      "start": 113.1133,
      "duration": 0.0294,
      "velocity": 117,
      "chip": "ym2612"
    },
    {
      "channel": 2,
      "note": 48,
      "start": 113.1173,
      "duration": 0.1588,
      "velocity": 101,
      "chip": "ym2612"
    },
    {
      "channel": 1,
      "note": 71,
      "start": 113.2136,
      "duration": 0.0296,
      "velocity": 127,
      "chip": "ym2612"
    },
    {
      "channel": 0,
      "note": 48,
      "start": 113.313,
      "duration": 0.0799,
      "velocity": 101,
      "chip": "ym2612"
    },
    {
      "channel": 1,
      "note": 82,
      "start": 113.3172,
      "duration": 0.0767,
      "velocity": 106,
      "chip": "ym2612"
    },
    {
      "channel": 2,
      "note": 50,
      "start": 113.3216,
      "duration": 0.0212,
      "velocity": 117,
      "chip": "ym2612"
    },
    {
      "channel": 0,
      "note": 77,
      "start": 113.3982,
      "duration": 0.1614,
      "velocity": 106,
      "chip": "ym2612"
    },
    {
      "channel": 1,
      "note": 74,
      "start": 113.4025,
      "duration": 0.0236,
      "velocity": 127,
      "chip": "ym2612"
    },
    {
      "channel": 2,
      "note": 48,
      "start": 113.4066,
      "duration": 0.1537,
      "velocity": 101,
      "chip": "ym2612"
    },
    {
      "channel": 3,
      "note": 50,
      "start": 113.4118,
      "duration": 0.0156,
      "velocity": 117,
      "chip": "ym2612"
    },
    {
      "channel": 0,
      "note": 50,
      "start": 113.5967,
      "duration": 0.0305,
      "velocity": 117,
      "chip": "ym2612"
    },
    {
      "channel": 1,
      "note": 48,
      "start": 113.6008,
      "duration": 0.0765,
      "velocity": 101,
      "chip": "ym2612"
    },
    {
      "channel": 2,
      "note": 71,
      "start": 113.6055,
      "duration": 0.0228,
      "velocity": 127,
      "chip": "ym2612"
    },
    {
      "channel": 3,
      "note": 79,
      "start": 113.6099,
      "duration": 0.0666,
      "velocity": 106,
      "chip": "ym2612"
    },
    {
      "channel": 0,
      "note": 50,
      "start": 113.6818,
      "duration": 0.0275,
      "velocity": 117,
      "chip": "ym2612"
    },
    {
      "channel": 1,
      "note": 48,
      "start": 113.6859,
      "duration": 0.1578,
      "velocity": 101,
      "chip": "ym2612"
    },
    {
      "channel": 2,
      "note": 84,
      "start": 113.69,
      "duration": 0.153,
      "velocity": 106,
      "chip": "ym2612"
    },
    {
      "channel": 0,
      "note": 71,
      "start": 113.7802,
      "duration": 0.0308,
      "velocity": 127,
      "chip": "ym2612"
    },
    {
      "channel": 0,
      "note": 48,
      "start": 113.8796,
      "duration": 0.0798,
      "velocity": 101,
      "chip": "ym2612"
    },
    {
      "channel": 1,
      "note": 50,
      "start": 113.8841,
      "duration": 0.0265,
      "velocity": 117,
      "chip": "ym2612"
    },
    {
      "channel": 2,
      "note": 82,
      "start": 113.8882,
      "duration": 0.072,
      "velocity": 106,
      "chip": "ym2612"
    },
    {
      "channel": 0,
      "note": 48,
      "start": 113.9797,
      "duration": 0.163,
      "velocity": 101,
      "chip": "ym2612"
    },
    {
      "channel": 1,
      "note": 74,
      "start": 113.984,
      "duration": 0.0254,
      "velocity": 127,
      "chip": "ym2612"
    },
    {
      "channel": 2,
      "note": 77,
      "start": 113.9882,
      "duration": 0.1554,
      "velocity": 106,
      "chip": "ym2612"
    },
    {
      "channel": 3,
      "note": 50,
      "start": 113.9934,
      "duration": 0.0172,
      "velocity": 117,
      "chip": "ym2612"
    },
    {
      "channel": 0,
      "note": 50,
      "start": 114.1634,
      "duration": 0.0293,
      "velocity": 117,
      "chip": "ym2612"
    },
    {
      "channel": 1,
      "note": 79,
      "start": 114.1676,
      "duration": 0.076,
      "velocity": 106,
      "chip": "ym2612"
    },
    {
      "channel": 2,
      "note": 48,
      "start": 114.1717,
      "duration": 0.0712,
      "velocity": 101,
      "chip": "ym2612"
    },
    {
      "channel": 3,
      "note": 71,
      "start": 114.1766,
      "duration": 0.0172,
      "velocity": 127,
      "chip": "ym2612"
    },
    {
      "channel": 0,
      "note": 50,
      "start": 114.2633,
      "duration": 0.0293,
      "velocity": 117,
      "chip": "ym2612"
    },
    {
      "channel": 1,
      "note": 48,
      "start": 114.2674,
      "duration": 0.1588,
      "velocity": 101,
      "chip": "ym2612"
    },
    {
      "channel": 2,
      "note": 84,
      "start": 114.2716,
      "duration": 0.0715,
      "velocity": 106,
      "chip": "ym2612"
    },
    {
      "channel": 0,
      "note": 71,
      "start": 114.3478,
      "duration": 0.0288,
      "velocity": 127,
      "chip": "ym2612"
    },
    {
      "channel": 2,
      "note": 82,
      "start": 114.3519,
      "duration": 0.0751,
      "velocity": 106,
      "chip": "ym2612"
    },
    {
      "channel": 0,
      "note": 48,
      "start": 114.4463,
      "duration": 0.0798,
      "velocity": 101,
      "chip": "ym2612"
    },
    {
      "channel": 1,
      "note": 50,
      "start": 114.4508,
      "duration": 0.0252,
      "velocity": 117,
      "chip": "ym2612"
    },
    {
      "channel": 2,
      "note": 77,
      "start": 114.4549,
      "duration": 0.072,
      "velocity": 106,
      "chip": "ym2612"
    },
    {
      "channel": 0,
      "note": 48,
      "start": 114.5476,
      "duration": 0.1618,
      "velocity": 101,
      "chip": "ym2612"
    },
    {
      "channel": 1,
      "note": 74,
      "start": 114.5518,
      "duration": 0.0242,
      "velocity": 127,
      "chip": "ym2612"
    },
    {
      "channel": 2,
      "note": 79,
      "start": 114.5561,
      "duration": 0.0702,
      "velocity": 106,
      "chip": "ym2612"
    },
    {
      "channel": 3,
      "note": 50,
      "start": 114.5613,
      "duration": 0.016,
      "velocity": 117,
      "chip": "ym2612"
    },
    {
      "channel": 1,
      "note": 84,
      "start": 114.6476,
      "duration": 0.08,
      "velocity": 106,
      "chip": "ym2612"
    },
    {
      "channel": 0,
      "note": 82,
      "start": 114.7319,
      "duration": 0.0777,
      "velocity": 106,
      "chip": "ym2612"
    },
    {
      "channel": 1,
      "note": 71,
      "start": 114.7367,
      "duration": 0.0232,
      "velocity": 127,
      "chip": "ym2612"
    },
    {
      "channel": 2,
      "note": 48,
      "start": 114.7408,
      "duration": 0.0695,
      "velocity": 101,
      "chip": "ym2612"
    },
    {
      "channel": 3,
      "note": 50,
      "start": 114.7454,
      "duration": 0.0151,
      "velocity": 117,
      "chip": "ym2612"
    },
    {
      "channel": 0,
      "note": 77,
      "start": 114.831,
      "duration": 0.0797,
      "velocity": 106,
      "chip": "ym2612"
    },
    {
      "channel": 1,
      "note": 48,
      "start": 114.8351,
      "duration": 0.1577,
      "velocity": 101,
      "chip": "ym2612"
    },
    {
      "channel": 2,
      "note": 50,
      "start": 114.8394,
      "duration": 0.02,
      "velocity": 117,
      "chip": "ym2612"
    },
    {
      "channel": 0,
      "note": 79,
      "start": 114.9298,
      "duration": 0.0811,
      "velocity": 106,
      "chip": "ym2612"
    },
    {
      "channel": 2,
      "note": 71,
      "start": 114.9344,
      "duration": 0.0255,
      "velocity": 127,
      "chip": "ym2612"
    },
    {
      "channel": 0,
      "note": 48,
      "start": 115.015,
      "duration": 0.079,
      "velocity": 101,
      "chip": "ym2612"
    },
    {
      "channel": 1,
      "note": 50,
      "start": 115.0194,
      "duration": 0.0232,
      "velocity": 117,
      "chip": "ym2612"
    },
    {
      "channel": 2,
      "note": 89,
      "start": 115.0236,
      "duration": 0.0712,
      "velocity": 106,
      "chip": "ym2612"
    },
    {
      "channel": 0,
      "note": 74,
      "start": 115.1132,
      "duration": 0.0295,
      "velocity": 127,
      "chip": "ym2612"
    },
    {
      "channel": 1,
      "note": 87,
      "start": 115.1174,
      "duration": 0.0767,
      "velocity": 106,
      "chip": "ym2612"
    },
    {
      "channel": 2,
      "note": 51,
      "start": 115.1216,
      "duration": 0.1558,
      "velocity": 101,
      "chip": "ym2612"
    },
    {
      "channel": 3,
      "note": 50,
      "start": 115.1268,
      "duration": 0.0172,
      "velocity": 117,
      "chip": "ym2612"
    },
    {
      "channel": 0,
      "note": 79,
      "start": 115.213,
      "duration": 0.0798,
      "velocity": 106,
      "chip": "ym2612"
    },
    {
      "channel": 0,
      "note": 71,
      "start": 115.3137,
      "duration": 0.0295,
      "velocity": 127,
      "chip": "ym2612"
    },
    {
      "channel": 1,
      "note": 82,
      "start": 115.3179,
      "duration": 0.076,
      "velocity": 106,
      "chip": "ym2612"
    },
    {
      "channel": 2,
      "note": 53,
      "start": 115.322,
      "duration": 0.0709,
      "velocity": 101,
      "chip": "ym2612"
    },
    {
      "channel": 3,
      "note": 50,
      "start": 115.3266,
      "duration": 0.0172,
      "velocity": 117,
      "chip": "ym2612"
    },
    {
      "channel": 0,
      "note": 50,
      "start": 115.3984,
      "duration": 0.0276,
      "velocity": 117,
      "chip": "ym2612"
    },
    {
      "channel": 1,
      "note": 48,
      "start": 115.4025,
      "duration": 0.1582,
      "velocity": 101,
      "chip": "ym2612"
    },
    {
      "channel": 2,
      "note": 89,
      "start": 115.4067,
      "duration": 0.0696,
      "velocity": 106,
      "chip": "ym2612"
    },
    {
      "channel": 0,
      "note": 71,
      "start": 115.4969,
      "duration": 0.0296,
      "velocity": 127,
      "chip": "ym2612"
    },
    {
      "channel": 2,
      "note": 87,
      "start": 115.5011,
      "duration": 0.0752,
      "velocity": 106,
      "chip": "ym2612"
    },
    {
      "channel": 0,
      "note": 48,
      "start": 115.5963,
      "duration": 0.0798,
      "velocity": 101,
      "chip": "ym2612"
    },
    {
      "channel": 1,
      "note": 79,
      "start": 115.6005,
      "duration": 0.0767,
      "velocity": 106,
      "chip": "ym2612"
    },
    {
      "channel": 2,
      "note": 50,
      "start": 115.6048,
      "duration": 0.0212,
      "velocity": 117,
      "chip": "ym2612"
    },
    {
      "channel": 0,
      "note": 82,
      "start": 115.6815,
      "duration": 0.078,
      "velocity": 106,
      "chip": "ym2612"
    },
    {
      "channel": 1,
      "note": 74,
      "start": 115.6858,
      "duration": 0.0236,
      "velocity": 127,
      "chip": "ym2612"
    },
    {
      "channel": 2,
      "note": 48,
      "start": 115.6899,
      "duration": 0.1529,
      "velocity": 101,
      "chip": "ym2612"
    },
    {
      "channel": 3,
      "note": 50,
      "start": 115.6951,
      "duration": 0.0156,
      "velocity": 117,
      "chip": "ym2612"
    },
    {
      "channel": 0,
      "note": 89,
      "start": 115.7797,
      "duration": 0.0798,
      "velocity": 106,
      "chip": "ym2612"
    },
    {
      "channel": 0,
      "note": 50,
      "start": 115.88,
      "duration": 0.0293,
      "velocity": 117,
      "chip": "ym2612"
    },
    {
      "channel": 1,
      "note": 71,
      "start": 115.8848,
      "duration": 0.0256,
      "velocity": 127,
      "chip": "ym2612"
    },
    {
      "channel": 2,
      "note": 87,
      "start": 115.8891,
      "duration": 0.0713,
      "velocity": 106,
      "chip": "ym2612"
    },
    {
      "channel": 3,
      "note": 48,
      "start": 115.8933,
      "duration": 0.0663,
      "velocity": 101,
      "chip": "ym2612"
    },
    {
      "channel": 0,
      "note": 50,
      "start": 115.98,
      "duration": 0.0305,
      "velocity": 117,
      "chip": "ym2612"
    },
    {
      "channel": 1,
      "note": 82,
      "start": 115.9842,
      "duration": 0.0754,
      "velocity": 106,
      "chip": "ym2612"
    },
    {
      "channel": 2,
      "note": 48,
      "start": 115.9882,
      "duration": 0.1546,
      "velocity": 101,
      "chip": "ym2612"
    },
    {
      "channel": 0,
      "note": 84,
      "start": 116.0639,
      "duration": 0.0798,
      "velocity": 106,
      "chip": "ym2612"
    },
    {
      "channel": 1,
      "note": 71,
      "start": 116.0685,
      "duration": 0.0247,
      "velocity": 127,
      "chip": "ym2612"
    },
    {
      "channel": 0,
      "note": 91,
      "start": 116.1631,
      "duration": 0.0798,
      "velocity": 106,
      "chip": "ym2612"
    },
    {
      "channel": 1,
      "note": 48,
      "start": 116.1672,
      "duration": 0.0764,
      "velocity": 101,
      "chip": "ym2612"
    },
    {
      "channel": 2,
      "note": 50,
      "start": 116.1715,
      "duration": 0.0224,
      "velocity": 117,
      "chip": "ym2612"
    },
    {
      "channel": 0,
      "note": 48,
      "start": 116.263,
      "duration": 0.1631,
      "velocity": 101,
      "chip": "ym2612"
    },
    {
      "channel": 1,
      "note": 89,
      "start": 116.2672,
      "duration": 0.0757,
      "velocity": 106,
      "chip": "ym2612"
    },
    {
      "channel": 2,
      "note": 74,
      "start": 116.2714,
      "duration": 0.0226,
      "velocity": 127,
      "chip": "ym2612"
    },
    {
      "channel": 3,
      "note": 50,
      "start": 116.2767,
      "duration": 0.0186,
      "velocity": 117,
      "chip": "ym2612"
    },
    {
      "channel": 1,
      "note": 82,
      "start": 116.3471,
      "duration": 0.0798,
      "velocity": 106,
      "chip": "ym2612"
    },
    {
      "channel": 0,
      "note": 71,
      "start": 116.4469,
      "duration": 0.0308,
      "velocity": 127,
      "chip": "ym2612"
    },
    {
      "channel": 1,
      "note": 50,
      "start": 116.4515,
      "duration": 0.0268,
      "velocity": 117,
      "chip": "ym2612"
    },
    {
      "channel": 2,
      "note": 84,
      "start": 116.4557,
      "duration": 0.0714,
      "velocity": 106,
      "chip": "ym2612"
    },
    {
      "channel": 3,
      "note": 48,
      "start": 116.4599,
      "duration": 0.0663,
      "velocity": 101,
      "chip": "ym2612"
    },
    {
      "channel": 0,
      "note": 48,
      "start": 116.5463,
      "duration": 0.1631,
      "velocity": 101,
      "chip": "ym2612"
    },
    {
      "channel": 1,
      "note": 91,
      "start": 116.5505,
      "duration": 0.0758,
      "velocity": 106,
      "chip": "ym2612"
    },
    {
      "channel": 2,
      "note": 50,
      "start": 116.5548,
      "duration": 0.0212,
      "velocity": 117,
      "chip": "ym2612"
    },
    {
      "channel": 1,
      "note": 89,
      "start": 116.6464,
      "duration": 0.0799,
      "velocity": 106,
      "chip": "ym2612"
    },
    {
      "channel": 2,
      "note": 71,
      "start": 116.6511,
      "duration": 0.0255,
      "velocity": 127,
      "chip": "ym2612"
    },
    {
      "channel": 0,
      "note": 50,
      "start": 116.7309,
      "duration": 0.0284,
      "velocity": 117,
      "chip": "ym2612"
    },
    {
      "channel": 1,
      "note": 82,
      "start": 116.7351,
      "duration": 0.0753,
      "velocity": 106,
      "chip": "ym2612"
    },
    {
      "channel": 2,
      "note": 48,
      "start": 116.7391,
      "duration": 0.0705,
      "velocity": 101,
      "chip": "ym2612"
    },
    {
      "channel": 0,
      "note": 48,
      "start": 116.8297,
      "duration": 0.163,
      "velocity": 101,
      "chip": "ym2612"
    },
    {
      "channel": 1,
      "note": 84,
      "start": 116.8339,
      "duration": 0.0757,
      "velocity": 106,
      "chip": "ym2612"
    },
    {
      "channel": 2,
      "note": 74,
      "start": 116.8382,
      "duration": 0.0213,
      "velocity": 127,
      "chip": "ym2612"
    },
    {
      "channel": 3,
      "note": 50,
      "start": 116.8434,
      "duration": 0.0173,
      "velocity": 117,
      "chip": "ym2612"
    },
    {
      "channel": 1,
      "note": 87,
      "start": 116.9309,
      "duration": 0.0788,
      "velocity": 106,
      "chip": "ym2612"
    },
    {
      "channel": 0,
      "note": 71,
      "start": 117.0146,
      "duration": 0.0286,
      "velocity": 127,
      "chip": "ym2612"
    },
    {
      "channel": 1,
      "note": 50,
      "start": 117.0191,
      "duration": 0.0246,
      "velocity": 117,
      "chip": "ym2612"
    },
    {
      "channel": 2,
      "note": 84,
      "start": 117.0233,
      "duration": 0.0704,
      "velocity": 106,
      "chip": "ym2612"
    },
    {
      "channel": 3,
      "note": 48,
      "start": 117.0276,
      "duration": 0.0653,
      "velocity": 101,
      "chip": "ym2612"
    },
    {
      "channel": 0,
      "note": 50,
      "start": 117.1144,
      "duration": 0.0282,
      "velocity": 117,
      "chip": "ym2612"
    },
    {
      "channel": 1,
      "note": 48,
      "start": 117.1185,
      "duration": 0.1576,
      "velocity": 101,
      "chip": "ym2612"
    },
    {
      "channel": 2,
      "note": 82,
      "start": 117.1227,
      "duration": 0.0702,
      "velocity": 106,
      "chip": "ym2612"
    },
    {
      "channel": 0,
      "note": 84,
      "start": 117.2143,
      "duration": 0.0798,
      "velocity": 106,
      "chip": "ym2612"
    },
    {
      "channel": 2,
      "note": 71,
      "start": 117.219,
      "duration": 0.0243,
      "velocity": 127,
      "chip": "ym2612"
    },
    {
      "channel": 0,
      "note": 87,
      "start": 117.3131,
      "duration": 0.0812,
      "velocity": 106,
      "chip": "ym2612"
    },
    {
      "channel": 1,
      "note": 48,
      "start": 117.3172,
      "duration": 0.078,
      "velocity": 101,
      "chip": "ym2612"
    },
    {
      "channel": 2,
      "note": 50,
      "start": 117.3215,
      "duration": 0.0212,
      "velocity": 117,
      "chip": "ym2612"
    },
    {
      "channel": 0,
      "note": 74,
      "start": 117.3995,
      "duration": 0.0265,
      "velocity": 127,
      "chip": "ym2612"
    },
    {
      "channel": 1,
      "note": 84,
      "start": 117.4038,
      "duration": 0.1558,
      "velocity": 106,
      "chip": "ym2612"
    },
    {
      "channel": 2,
      "note": 60,
      "start": 117.4079,
      "duration": 0.0695,
      "velocity": 101,
      "chip": "ym2612"
    },
    {
      "channel": 3,
      "note": 50,
      "start": 117.4131,
      "duration": 0.0142,
      "velocity": 117,
      "chip": "ym2612"
    },
    {
      "channel": 0,
      "note": 74,
      "start": 117.4464,
      "duration": 0.0315,
      "velocity": 127,
      "chip": "ym2612"
    },
    {
      "channel": 0,
      "note": 58,
      "start": 117.4963,
      "duration": 0.081,
      "velocity": 101,
      "chip": "ym2612"
    },
    {
      "channel": 2,
      "note": 74,
      "start": 117.5005,
      "duration": 0.0256,
      "velocity": 127,
      "chip": "ym2612"
    },
    {
      "channel": 0,
      "note": 87,
      "start": 117.5964,
      "duration": 0.0799,
      "velocity": 106,
      "chip": "ym2612"
    },
    {
      "channel": 1,
      "note": 74,
      "start": 117.6007,
      "duration": 0.0253,
      "velocity": 127,
      "chip": "ym2612"
    },
    {
      "channel": 2,
      "note": 55,
      "start": 117.6047,
      "duration": 0.0725,
      "velocity": 101,
      "chip": "ym2612"
    },
    {
      "channel": 0,
      "note": 50,
      "start": 117.6817,
      "duration": 0.0276,
      "velocity": 117,
      "chip": "ym2612"
    },
    {
      "channel": 1,
      "note": 89,
      "start": 117.6859,
      "duration": 0.1588,
      "velocity": 106,
      "chip": "ym2612"
    },
    {
      "channel": 2,
      "note": 50,
      "start": 117.69,
      "duration": 0.154,
      "velocity": 101,
      "chip": "ym2612"
    },
    {
      "channel": 0,
      "note": 71,
      "start": 117.7802,
      "duration": 0.0296,
      "velocity": 127,
      "chip": "ym2612"
    },
    {
      "channel": 0,
      "note": 50,
      "start": 117.88,
      "duration": 0.0293,
      "velocity": 117,
      "chip": "ym2612"
    },
    {
      "channel": 1,
      "note": 50,
      "start": 117.884,
      "duration": 0.0763,
      "velocity": 101,
      "chip": "ym2612"
    },
    {
      "channel": 2,
      "note": 89,
      "start": 117.8882,
      "duration": 0.0714,
      "velocity": 106,
      "chip": "ym2612"
    },
    {
      "channel": 0,
      "note": 50,
      "start": 117.9797,
      "duration": 0.1631,
      "velocity": 101,
      "chip": "ym2612"
    },
    {
      "channel": 1,
      "note": 74,
      "start": 117.984,
      "duration": 0.0254,
      "velocity": 127,
      "chip": "ym2612"
    },
    {
      "channel": 2,
      "note": 86,
      "start": 117.9882,
      "duration": 0.1554,
      "velocity": 106,
      "chip": "ym2612"
    },
    {
      "channel": 3,
      "note": 50,
      "start": 117.9934,
      "duration": 0.0172,
      "velocity": 117,
      "chip": "ym2612"
    },
    {
      "channel": 0,
      "note": 50,
      "start": 118.163,
      "duration": 0.0797,
      "velocity": 101,
      "chip": "ym2612"
    },
    {
      "channel": 1,
      "note": 50,
      "start": 118.1675,
      "duration": 0.0252,
      "velocity": 117,
      "chip": "ym2612"
    },
    {
      "channel": 2,
      "note": 86,
      "start": 118.1717,
      "duration": 0.0718,
      "velocity": 106,
      "chip": "ym2612"
    },
    {
      "channel": 3,
      "note": 71,
      "start": 118.1766,
      "duration": 0.0173,
      "velocity": 127,
      "chip": "ym2612"
    },
    {
      "channel": 0,
      "note": 50,
      "start": 118.2634,
      "duration": 0.0293,
      "velocity": 117,
      "chip": "ym2612"
    },
    {
      "channel": 1,
      "note": 50,
      "start": 118.2674,
      "duration": 0.1595,
      "velocity": 101,
      "chip": "ym2612"
    },
    {
      "channel": 2,
      "note": 84,
      "start": 118.2716,
      "duration": 0.1548,
      "velocity": 106,
      "chip": "ym2612"
    },
    {
      "channel": 0,
      "note": 71,
      "start": 118.3469,
      "duration": 0.0296,
      "velocity": 127,
      "chip": "ym2612"
    },
    {
      "channel": 0,
      "note": 84,
      "start": 118.4464,
      "duration": 0.0798,
      "velocity": 106,
      "chip": "ym2612"
    },
    {
      "channel": 1,
      "note": 50,
      "start": 118.4508,
      "duration": 0.0252,
      "velocity": 117,
      "chip": "ym2612"
    },
    {
      "channel": 2,
      "note": 50,
      "start": 118.4549,
      "duration": 0.072,
      "velocity": 101,
      "chip": "ym2612"
    },
    {
      "channel": 0,
      "note": 50,
      "start": 118.5463,
      "duration": 0.1631,
      "velocity": 101,
      "chip": "ym2612"
    },
    {
      "channel": 1,
      "note": 74,
      "start": 118.5506,
      "duration": 0.0266,
      "velocity": 127,
      "chip": "ym2612"
    },
    {
      "channel": 2,
      "note": 81,
      "start": 118.5548,
      "duration": 0.1554,
      "velocity": 106,
      "chip": "ym2612"
    },
    {
      "channel": 3,
      "note": 50,
      "start": 118.56,
      "duration": 0.0185,
      "velocity": 117,
      "chip": "ym2612"
    },
    {
      "channel": 0,
      "note": 50,
      "start": 118.73,
      "duration": 0.0305,
      "velocity": 117,
      "chip": "ym2612"
    },
    {
      "channel": 1,
      "note": 50,
      "start": 118.7342,
      "duration": 0.0762,
      "velocity": 101,
      "chip": "ym2612"
    },
    {
      "channel": 2,
      "note": 71,
      "start": 118.7389,
      "duration": 0.0227,
      "velocity": 127,
      "chip": "ym2612"
    },
    {
      "channel": 3,
      "note": 81,
      "start": 118.7433,
      "duration": 0.0665,
      "velocity": 106,
      "chip": "ym2612"
    },
    {
      "channel": 0,
      "note": 50,
      "start": 118.8296,
      "duration": 0.1631,
      "velocity": 101,
      "chip": "ym2612"
    },
    {
      "channel": 1,
      "note": 50,
      "start": 118.834,
      "duration": 0.0265,
      "velocity": 117,
      "chip": "ym2612"
    },
    {
      "channel": 2,
      "note": 80,
      "start": 118.8382,
      "duration": 0.1554,
      "velocity": 106,
      "chip": "ym2612"
    },
    {
      "channel": 1,
      "note": 71,
      "start": 118.9303,
      "duration": 0.0296,
      "velocity": 127,
      "chip": "ym2612"
    },
    {
      "channel": 0,
      "note": 80,
      "start": 119.0131,
      "duration": 0.0798,
      "velocity": 106,
      "chip": "ym2612"
    },
    {
      "channel": 1,
      "note": 50,
      "start": 119.0172,
      "duration": 0.0764,
      "velocity": 101,
      "chip": "ym2612"
    },
    {
      "channel": 2,
      "note": 50,
      "start": 119.0216,
      "duration": 0.0224,
      "velocity": 117,
      "chip": "ym2612"
    },
    {
      "channel": 0,
      "note": 74,
      "start": 119.1132,
      "duration": 0.0295,
      "velocity": 127,
      "chip": "ym2612"
    },
    {
      "channel": 1,
      "note": 50,
      "start": 119.1173,
      "duration": 0.1597,
      "velocity": 101,
      "chip": "ym2612"
    },
    {
      "channel": 2,
      "note": 79,
      "start": 119.1216,
      "duration": 0.1548,
      "velocity": 106,
      "chip": "ym2612"
    },
    {
      "channel": 3,
      "note": 50,
      "start": 119.1268,
      "duration": 0.0172,
      "velocity": 117,
      "chip": "ym2612"
    },
    {
      "channel": 0,
      "note": 79,
      "start": 119.3142,
      "duration": 0.0788,
      "velocity": 106,
      "chip": "ym2612"
    },
    {
      "channel": 1,
      "note": 50,
      "start": 119.3184,
      "duration": 0.0755,
      "velocity": 101,
      "chip": "ym2612"
    },
    {
      "channel": 2,
      "note": 50,
      "start": 119.3228,
      "duration": 0.0199,
      "velocity": 117,
      "chip": "ym2612"
    },
    {
      "channel": 3,
      "note": 71,
      "start": 119.3277,
      "duration": 0.0162,
      "velocity": 127,
      "chip": "ym2612"
    },
    {
      "channel": 0,
      "note": 77,
      "start": 119.3982,
      "duration": 0.1614,
      "velocity": 106,
      "chip": "ym2612"
    },
    {
      "channel": 1,
      "note": 50,
      "start": 119.4025,
      "duration": 0.0235,
      "velocity": 117,
      "chip": "ym2612"
    },
    {
      "channel": 2,
      "note": 53,
      "start": 119.4066,
      "duration": 0.0696,
      "velocity": 101,
      "chip": "ym2612"
    },
    {
      "channel": 1,
      "note": 71,
      "start": 119.4982,
      "duration": 0.0284,
      "velocity": 127,
      "chip": "ym2612"
    },
    {
      "channel": 2,
      "note": 55,
      "start": 119.5022,
      "duration": 0.074,
      "velocity": 101,
      "chip": "ym2612"
    },
    {
      "channel": 0,
      "note": 50,
      "start": 119.5979,
      "duration": 0.0281,
      "velocity": 117,
      "chip": "ym2612"
    },
    {
      "channel": 1,
      "note": 57,
      "start": 119.602,
      "duration": 0.0765,
      "velocity": 101,
      "chip": "ym2612"
    },
    {
      "channel": 2,
      "note": 77,
      "start": 119.6061,
      "duration": 0.0716,
      "velocity": 106,
      "chip": "ym2612"
    },
    {
      "channel": 0,
      "note": 74,
      "start": 119.6828,
      "duration": 0.1602,
      "velocity": 106,
      "chip": "ym2612"
    },
    {
      "channel": 1,
      "note": 50,
      "start": 119.6872,
      "duration": 0.0221,
      "velocity": 117,
      "chip": "ym2612"
    },
    {
      "channel": 2,
      "note": 50,
      "start": 119.6912,
      "duration": 0.1524,
      "velocity": 101,
      "chip": "ym2612"
    },
    {
      "channel": 1,
      "note": 71,
      "start": 119.7815,
      "duration": 0.0284,
      "velocity": 127,
      "chip": "ym2612"
    },
    {
      "channel": 0,
      "note": 50,
      "start": 119.88,
      "duration": 0.0293,
      "velocity": 117,
      "chip": "ym2612"
    },
    {
      "channel": 1,
      "note": 50,
      "start": 119.8841,
      "duration": 0.0774,
      "velocity": 101,
      "chip": "ym2612"
    },
    {
      "channel": 2,
      "note": 74,
      "start": 119.8882,
      "duration": 0.0727,
      "velocity": 106,
      "chip": "ym2612"
    },
    {
      "channel": 0,
      "note": 74,
      "start": 119.9798,
      "duration": 0.0295,
      "velocity": 127,
      "chip": "ym2612"
    },
    {
      "channel": 1,
      "note": 50,
      "start": 119.984,
      "duration": 0.161,
      "velocity": 101,
      "chip": "ym2612"
    },
    {
      "channel": 2,
      "note": 72,
      "start": 119.9882,
      "duration": 0.156,
      "velocity": 106,
      "chip": "ym2612"
    },
    {
      "channel": 3,
      "note": 50,
      "start": 119.9934,
      "duration": 0.0172,
      "velocity": 117,
      "chip": "ym2612"
    },
    {
      "channel": 0,
      "note": 71,
      "start": 120.1637,
      "duration": 0.0295,
      "velocity": 127,
      "chip": "ym2612"
    },
    {
      "channel": 1,
      "note": 50,
      "start": 120.1681,
      "duration": 0.0256,
      "velocity": 117,
      "chip": "ym2612"
    },
    {
      "channel": 2,
      "note": 50,
      "start": 120.1722,
      "duration": 0.0715,
      "velocity": 101,
      "chip": "ym2612"
    },
    {
      "channel": 3,
      "note": 72,
      "start": 120.1766,
      "duration": 0.0664,
      "velocity": 106,
      "chip": "ym2612"
    },
    {
      "channel": 0,
      "note": 50,
      "start": 120.263,
      "duration": 0.1631,
      "velocity": 101,
      "chip": "ym2612"
    },
    {
      "channel": 1,
      "note": 69,
      "start": 120.2672,
      "duration": 0.1598,
      "velocity": 106,
      "chip": "ym2612"
    },
    {
      "channel": 2,
      "note": 50,
      "start": 120.2716,
      "duration": 0.0212,
      "velocity": 117,
      "chip": "ym2612"
    },
    {
      "channel": 2,
      "note": 71,
      "start": 120.3469,
      "duration": 0.0297,
      "velocity": 127,
      "chip": "ym2612"
    },
    {
      "channel": 0,
      "note": 50,
      "start": 120.4467,
      "duration": 0.0293,
      "velocity": 117,
      "chip": "ym2612"
    },
    {
      "channel": 1,
      "note": 69,
      "start": 120.4509,
      "duration": 0.0761,
      "velocity": 106,
      "chip": "ym2612"
    },
    {
      "channel": 2,
      "note": 50,
      "start": 120.4549,
      "duration": 0.0713,
      "velocity": 101,
      "chip": "ym2612"
    },
    {
      "channel": 0,
      "note": 74,
      "start": 120.5465,
      "duration": 0.0295,
      "velocity": 127,
      "chip": "ym2612"
    },
    {
      "channel": 1,
      "note": 68,
      "start": 120.5508,
      "duration": 0.1595,
      "velocity": 106,
      "chip": "ym2612"
    },
    {
      "channel": 2,
      "note": 50,
      "start": 120.5548,
      "duration": 0.1546,
      "velocity": 101,
      "chip": "ym2612"
    },
    {
      "channel": 3,
      "note": 50,
      "start": 120.5601,
      "duration": 0.0172,
      "velocity": 117,
      "chip": "ym2612"
    },
    {
      "channel": 0,
      "note": 50,
      "start": 120.73,
      "duration": 0.0293,
      "velocity": 117,
      "chip": "ym2612"
    },
    {
      "channel": 1,
      "note": 67,
      "start": 120.7343,
      "duration": 0.1587,
      "velocity": 106,
      "chip": "ym2612"
    },
    {
      "channel": 2,
      "note": 71,
      "start": 120.7391,
      "duration": 0.0214,
      "velocity": 127,
      "chip": "ym2612"
    },
    {
      "channel": 3,
      "note": 50,
      "start": 120.7433,
      "duration": 0.0663,
      "velocity": 101,
      "chip": "ym2612"
    },
    {
      "channel": 0,
      "note": 50,
      "start": 120.8296,
      "duration": 0.0798,
      "velocity": 101,
      "chip": "ym2612"
    },
    {
      "channel": 2,
      "note": 50,
      "start": 120.834,
      "duration": 0.0254,
      "velocity": 117,
      "chip": "ym2612"
    },
    {
      "channel": 0,
      "note": 67,
      "start": 120.9298,
      "duration": 0.1631,
      "velocity": 106,
      "chip": "ym2612"
    },
    {
      "channel": 1,
      "note": 53,
      "start": 120.9338,
      "duration": 0.0757,
      "velocity": 101,
      "chip": "ym2612"
    },
    {
      "channel": 2,
      "note": 71,
      "start": 120.9385,
      "duration": 0.0227,
      "velocity": 127,
      "chip": "ym2612"
    },
    {
      "channel": 1,
      "note": 56,
      "start": 121.0136,
      "duration": 0.08,
      "velocity": 101,
      "chip": "ym2612"
    },
    {
      "channel": 2,
      "note": 50,
      "start": 121.018,
      "duration": 0.0247,
      "velocity": 117,
      "chip": "ym2612"
    },
    {
      "channel": 0,
      "note": 57,
      "start": 121.113,
      "duration": 0.0797,
      "velocity": 101,
      "chip": "ym2612"
    },
    {
      "channel": 1,
      "note": 74,
      "start": 121.1173,
      "duration": 0.0267,
      "velocity": 127,
      "chip": "ym2612"
    },
    {
      "channel": 2,
      "note": 67,
      "start": 121.1216,
      "duration": 0.1547,
      "velocity": 106,
      "chip": "ym2612"
    },
    {
      "channel": 3,
      "note": 50,
      "start": 121.1268,
      "duration": 0.0185,
      "velocity": 117,
      "chip": "ym2612"
    },
    {
      "channel": 0,
      "note": 60,
      "start": 121.2129,
      "duration": 0.0798,
      "velocity": 101,
      "chip": "ym2612"
    },
    {
      "channel": 0,
      "note": 71,
      "start": 121.3137,
      "duration": 0.0295,
      "velocity": 127,
      "chip": "ym2612"
    },
    {
      "channel": 1,
      "note": 69,
      "start": 121.3179,
      "duration": 0.1583,
      "velocity": 106,
      "chip": "ym2612"
    },
    {
      "channel": 2,
      "note": 50,
      "start": 121.3224,
      "duration": 0.0214,
      "velocity": 117,
      "chip": "ym2612"
    },
    {
      "channel": 3,
      "note": 62,
      "start": 121.3266,
      "duration": 0.0663,
      "velocity": 101,
      "chip": "ym2612"
    },
    {
      "channel": 0,
      "note": 50,
      "start": 121.3973,
      "duration": 0.0298,
      "velocity": 117,
      "chip": "ym2612"
    },
    {
      "channel": 2,
      "note": 65,
      "start": 121.4013,
      "duration": 0.0756,
      "velocity": 101,
      "chip": "ym2612"
    },
    {
      "channel": 0,
      "note": 62,
      "start": 121.4963,
      "duration": 0.0798,
      "velocity": 101,
      "chip": "ym2612"
    },
    {
      "channel": 1,
      "note": 72,
      "start": 121.5005,
      "duration": 0.1591,
      "velocity": 106,
      "chip": "ym2612"
    },
    {
      "channel": 2,
      "note": 71,
      "start": 121.5051,
      "duration": 0.0215,
      "velocity": 127,
      "chip": "ym2612"
    },
    {
      "channel": 0,
      "note": 50,
      "start": 121.5966,
      "duration": 0.0293,
      "velocity": 117,
      "chip": "ym2612"
    },
    {
      "channel": 2,
      "note": 53,
      "start": 121.6006,
      "duration": 0.0756,
      "velocity": 101,
      "chip": "ym2612"
    },
    {
      "channel": 0,
      "note": 50,
      "start": 121.6807,
      "duration": 0.0286,
      "velocity": 117,
      "chip": "ym2612"
    },
    {
      "channel": 1,
      "note": 74,
      "start": 121.6849,
      "duration": 0.1587,
      "velocity": 106,
      "chip": "ym2612"
    },
    {
      "channel": 2,
      "note": 50,
      "start": 121.6889,
      "duration": 0.1539,
      "velocity": 101,
      "chip": "ym2612"
    },
    {
      "channel": 0,
      "note": 71,
      "start": 121.7803,
      "duration": 0.0296,
      "velocity": 127,
      "chip": "ym2612"
    },
    {
      "channel": 0,
      "note": 74,
      "start": 121.881,
      "duration": 0.0786,
      "velocity": 106,
      "chip": "ym2612"
    },
    {
      "channel": 1,
      "note": 50,
      "start": 121.8851,
      "duration": 0.0752,
      "velocity": 101,
      "chip": "ym2612"
    },
    {
      "channel": 2,
      "note": 50,
      "start": 121.8894,
      "duration": 0.0199,
      "velocity": 117,
      "chip": "ym2612"
    },
    {
      "channel": 0,
      "note": 50,
      "start": 121.9809,
      "duration": 0.1618,
      "velocity": 101,
      "chip": "ym2612"
    },
    {
      "channel": 1,
      "note": 77,
      "start": 121.9852,
      "duration": 0.0756,
      "velocity": 106,
      "chip": "ym2612"
    },
    {
      "channel": 2,
      "note": 74,
      "start": 121.9894,
      "duration": 0.0201,
      "velocity": 127,
      "chip": "ym2612"
    },
    {
      "channel": 3,
      "note": 50,
      "start": 121.9946,
      "duration": 0.0161,
      "velocity": 117,
      "chip": "ym2612"
    },
    {
      "channel": 1,
      "note": 74,
      "start": 122.065,
      "duration": 0.0786,
      "velocity": 106,
      "chip": "ym2612"
    },
    {
      "channel": 0,
      "note": 77,
      "start": 122.1644,
      "duration": 0.0797,
      "velocity": 106,
      "chip": "ym2612"
    },
    {
      "channel": 1,
      "note": 71,
      "start": 122.1691,
      "duration": 0.0241,
      "velocity": 127,
      "chip": "ym2612"
    },
    {
      "channel": 2,
      "note": 50,
      "start": 122.1732,
      "duration": 0.0715,
      "velocity": 101,
      "chip": "ym2612"
    },
    {
      "channel": 3,
      "note": 50,
      "start": 122.1778,
      "duration": 0.0161,
      "velocity": 117,
      "chip": "ym2612"
    },
    {
      "channel": 0,
      "note": 74,
      "start": 122.2631,
      "duration": 0.0811,
      "velocity": 106,
      "chip": "ym2612"
    },
    {
      "channel": 1,
      "note": 50,
      "start": 122.2672,
      "duration": 0.1602,
      "velocity": 101,
      "chip": "ym2612"
    },
    {
      "channel": 2,
      "note": 50,
      "start": 122.2716,
      "duration": 0.0212,
      "velocity": 117,
      "chip": "ym2612"
    },
    {
      "channel": 0,
      "note": 69,
      "start": 122.3484,
      "duration": 0.0797,
      "velocity": 106,
      "chip": "ym2612"
    },
    {
      "channel": 2,
      "note": 71,
      "start": 122.3531,
      "duration": 0.0235,
      "velocity": 127,
      "chip": "ym2612"
    },
    {
      "channel": 0,
      "note": 50,
      "start": 122.4466,
      "duration": 0.0293,
      "velocity": 117,
      "chip": "ym2612"
    },
    {
      "channel": 1,
      "note": 74,
      "start": 122.4508,
      "duration": 0.0774,
      "velocity": 106,
      "chip": "ym2612"
    },
    {
      "channel": 2,
      "note": 50,
      "start": 122.4548,
      "duration": 0.0726,
      "velocity": 101,
      "chip": "ym2612"
    },
    {
      "channel": 0,
      "note": 74,
      "start": 122.5465,
      "duration": 0.0295,
      "velocity": 127,
      "chip": "ym2612"
    },
    {
      "channel": 1,
      "note": 69,
      "start": 122.5508,
      "duration": 0.0755,
      "velocity": 106,
      "chip": "ym2612"
    },
    {
      "channel": 2,
      "note": 50,
      "start": 122.5548,
      "duration": 0.1559,
      "velocity": 101,
      "chip": "ym2612"
    },
    {
      "channel": 3,
      "note": 50,
      "start": 122.5601,
      "duration": 0.0172,
      "velocity": 117,
      "chip": "ym2612"
    },
    {
      "channel": 0,
      "note": 77,
      "start": 122.6464,
      "duration": 0.08,
      "velocity": 106,
      "chip": "ym2612"
    },
    {
      "channel": 0,
      "note": 50,
      "start": 122.7309,
      "duration": 0.0284,
      "velocity": 117,
      "chip": "ym2612"
    },
    {
      "channel": 1,
      "note": 71,
      "start": 122.7356,
      "duration": 0.0247,
      "velocity": 127,
      "chip": "ym2612"
    },
    {
      "channel": 2,
      "note": 50,
      "start": 122.7397,
      "duration": 0.0707,
      "velocity": 101,
      "chip": "ym2612"
    },
    {
      "channel": 3,
      "note": 74,
      "start": 122.744,
      "duration": 0.0657,
      "velocity": 106,
      "chip": "ym2612"
    },
    {
      "channel": 0,
      "note": 50,
      "start": 122.8296,
      "duration": 0.1631,
      "velocity": 101,
      "chip": "ym2612"
    },
    {
      "channel": 1,
      "note": 50,
      "start": 122.834,
      "duration": 0.0253,
      "velocity": 117,
      "chip": "ym2612"
    },
    {
      "channel": 2,
      "note": 69,
      "start": 122.8382,
      "duration": 0.0714,
      "velocity": 106,
      "chip": "ym2612"
    },
    {
      "channel": 1,
      "note": 71,
      "start": 122.9303,
      "duration": 0.0296,
      "velocity": 127,
      "chip": "ym2612"
    },
    {
      "channel": 2,
      "note": 74,
      "start": 122.9344,
      "duration": 0.0753,
      "velocity": 106,
      "chip": "ym2612"
    },
    {
      "channel": 0,
      "note": 50,
      "start": 123.0139,
      "duration": 0.0789,
      "velocity": 101,
      "chip": "ym2612"
    },
    {
      "channel": 1,
      "note": 77,
      "start": 123.0181,
      "duration": 0.0755,
      "velocity": 106,
      "chip": "ym2612"
    },
    {
      "channel": 2,
      "note": 50,
      "start": 123.0224,
      "duration": 0.0203,
      "velocity": 117,
      "chip": "ym2612"
    },
    {
      "channel": 0,
      "note": 81,
      "start": 123.1132,
      "duration": 0.0797,
      "velocity": 106,
      "chip": "ym2612"
    },
    {
      "channel": 1,
      "note": 74,
      "start": 123.1174,
      "duration": 0.0253,
      "velocity": 127,
      "chip": "ym2612"
    },
    {
      "channel": 2,
      "note": 50,
      "start": 123.1215,
      "duration": 0.1546,
      "velocity": 101,
      "chip": "ym2612"
    },
    {
      "channel": 3,
      "note": 50,
      "start": 123.1268,
      "duration": 0.0172,
      "velocity": 117,
      "chip": "ym2612"
    },
    {
      "channel": 0,
      "note": 69,
      "start": 123.213,
      "duration": 0.0798,
      "velocity": 106,
      "chip": "ym2612"
    },
    {
      "channel": 0,
      "note": 50,
      "start": 123.3134,
      "duration": 0.0305,
      "velocity": 117,
      "chip": "ym2612"
    },
    {
      "channel": 1,
      "note": 71,
      "start": 123.3181,
      "duration": 0.0268,
      "velocity": 127,
      "chip": "ym2612"
    },
    {
      "channel": 2,
      "note": 50,
      "start": 123.3222,
      "duration": 0.0718,
      "velocity": 101,
      "chip": "ym2612"
    },
    {
      "channel": 3,
      "note": 74,
      "start": 123.3265,
      "duration": 0.0666,
      "velocity": 106,
      "chip": "ym2612"
    },
    {
      "channel": 0,
      "note": 77,
      "start": 123.3983,
      "duration": 0.0779,
      "velocity": 106,
      "chip": "ym2612"
    },
    {
      "channel": 1,
      "note": 53,
      "start": 123.4024,
      "duration": 0.0746,
      "velocity": 101,
      "chip": "ym2612"
    },
    {
      "channel": 2,
      "note": 50,
      "start": 123.4067,
      "duration": 0.0193,
      "velocity": 117,
      "chip": "ym2612"
    },
    {
      "channel": 0,
      "note": 55,
      "start": 123.4963,
      "duration": 0.0798,
      "velocity": 101,
      "chip": "ym2612"
    },
    {
      "channel": 1,
      "note": 71,
      "start": 123.501,
      "duration": 0.0267,
      "velocity": 127,
      "chip": "ym2612"
    },
    {
      "channel": 2,
      "note": 69,
      "start": 123.5052,
      "duration": 0.0717,
      "velocity": 106,
      "chip": "ym2612"
    },
    {
      "channel": 0,
      "note": 57,
      "start": 123.5963,
      "duration": 0.0799,
      "velocity": 101,
      "chip": "ym2612"
    },
    {
      "channel": 1,
      "note": 50,
      "start": 123.6008,
      "duration": 0.0265,
      "velocity": 117,
      "chip": "ym2612"
    },
    {
      "channel": 2,
      "note": 81,
      "start": 123.6049,
      "duration": 0.0723,
      "velocity": 106,
      "chip": "ym2612"
    },
    {
      "channel": 0,
      "note": 50,
      "start": 123.6817,
      "duration": 0.0288,
      "velocity": 117,
      "chip": "ym2612"
    },
    {
      "channel": 1,
      "note": 50,
      "start": 123.6858,
      "duration": 0.1579,
      "velocity": 101,
      "chip": "ym2612"
    },
    {
      "channel": 2,
      "note": 74,
      "start": 123.6899,
      "duration": 0.1531,
      "velocity": 106,
      "chip": "ym2612"
    },
    {
      "channel": 0,
      "note": 71,
      "start": 123.7802,
      "duration": 0.0308,
      "velocity": 127,
      "chip": "ym2612"
    },
    {
      "channel": 0,
      "note": 50,
      "start": 123.8796,
      "duration": 0.0798,
      "velocity": 101,
      "chip": "ym2612"
    },
    {
      "channel": 1,
      "note": 50,
      "start": 123.884,
      "duration": 0.0253,
      "velocity": 117,
      "chip": "ym2612"
    },
    {
      "channel": 2,
      "note": 74,
      "start": 123.8882,
      "duration": 0.0721,
      "velocity": 106,
      "chip": "ym2612"
    },
    {
      "channel": 0,
      "note": 74,
      "start": 123.9798,
      "duration": 0.0295,
      "velocity": 127,
      "chip": "ym2612"
    },
    {
      "channel": 1,
      "note": 50,
      "start": 123.984,
      "duration": 0.1588,
      "velocity": 101,
      "chip": "ym2612"
    },
    {
      "channel": 2,
      "note": 79,
      "start": 123.9882,
      "duration": 0.0714,
      "velocity": 106,
      "chip": "ym2612"
    },
    {
      "channel": 3,
      "note": 50,
      "start": 123.9934,
      "duration": 0.0172,
      "velocity": 117,
      "chip": "ym2612"
    },
    {
      "channel": 0,
      "note": 81,
      "start": 124.0638,
      "duration": 0.0798,
      "velocity": 106,
      "chip": "ym2612"
    },
    {
      "channel": 0,
      "note": 84,
      "start": 124.1632,
      "duration": 0.0797,
      "velocity": 106,
      "chip": "ym2612"
    },
    {
      "channel": 1,
      "note": 50,
      "start": 124.1676,
      "duration": 0.0251,
      "velocity": 117,
      "chip": "ym2612"
    },
    {
      "channel": 2,
      "note": 50,
      "start": 124.1717,
      "duration": 0.0719,
      "velocity": 101,
      "chip": "ym2612"
    },
    {
      "channel": 3,
      "note": 71,
      "start": 124.1766,
      "duration": 0.0172,
      "velocity": 127,
      "chip": "ym2612"
    },
    {
      "channel": 0,
      "note": 74,
      "start": 124.2643,
      "duration": 0.0786,
      "velocity": 106,
      "chip": "ym2612"
    },
    {
      "channel": 1,
      "note": 50,
      "start": 124.2684,
      "duration": 0.1578,
      "velocity": 101,
      "chip": "ym2612"
    },
    {
      "channel": 2,
      "note": 50,
      "start": 124.2727,
      "duration": 0.02,
      "velocity": 117,
      "chip": "ym2612"
    },
    {
      "channel": 0,
      "note": 79,
      "start": 124.3471,
      "duration": 0.0798,
      "velocity": 106,
      "chip": "ym2612"
    },
    {
      "channel": 2,
      "note": 71,
      "start": 124.3518,
      "duration": 0.0248,
      "velocity": 127,
      "chip": "ym2612"
    },
    {
      "channel": 0,
      "note": 50,
      "start": 124.4478,
      "duration": 0.0282,
      "velocity": 117,
      "chip": "ym2612"
    },
    {
      "channel": 1,
      "note": 81,
      "start": 124.452,
      "duration": 0.0749,
      "velocity": 106,
      "chip": "ym2612"
    },
    {
      "channel": 2,
      "note": 50,
      "start": 124.4561,
      "duration": 0.0702,
      "velocity": 101,
      "chip": "ym2612"
    },
    {
      "channel": 0,
      "note": 74,
      "start": 124.5477,
      "duration": 0.0283,
      "velocity": 127,
      "chip": "ym2612"
    },
    {
      "channel": 1,
      "note": 50,
      "start": 124.5518,
      "duration": 0.1576,
      "velocity": 101,
      "chip": "ym2612"
    },
    {
      "channel": 2,
      "note": 84,
      "start": 124.5561,
      "duration": 0.0715,
      "velocity": 106,
      "chip": "ym2612"
    },
    {
      "channel": 3,
      "note": 50,
      "start": 124.5613,
      "duration": 0.016,
      "velocity": 117,
      "chip": "ym2612"
    },
    {
      "channel": 0,
      "note": 74,
      "start": 124.6464,
      "duration": 0.0812,
      "velocity": 106,
      "chip": "ym2612"
    },
    {
      "channel": 0,
      "note": 71,
      "start": 124.7324,
      "duration": 0.0275,
      "velocity": 127,
      "chip": "ym2612"
    },
    {
      "channel": 1,
      "note": 50,
      "start": 124.7365,
      "duration": 0.075,
      "velocity": 101,
      "chip": "ym2612"
    },
    {
      "channel": 2,
      "note": 79,
      "start": 124.7408,
      "duration": 0.0701,
      "velocity": 106,
      "chip": "ym2612"
    },
    {
      "channel": 3,
      "note": 50,
      "start": 124.7453,
      "duration": 0.0152,
      "velocity": 117,
      "chip": "ym2612"
    },
    {
      "channel": 0,
      "note": 50,
      "start": 124.8296,
      "duration": 0.081,
      "velocity": 101,
      "chip": "ym2612"
    },
    {
      "channel": 1,
      "note": 74,
      "start": 124.8339,
      "duration": 0.0254,
      "velocity": 127,
      "chip": "ym2612"
    },
    {
      "channel": 2,
      "note": 81,
      "start": 124.838,
      "duration": 0.0741,
      "velocity": 106,
      "chip": "ym2612"
    },
    {
      "channel": 1,
      "note": 74,
      "start": 124.8798,
      "duration": 0.0315,
      "velocity": 127,
      "chip": "ym2612"
    },
    {
      "channel": 0,
      "note": 74,
      "start": 124.9298,
      "duration": 0.0295,
      "velocity": 127,
      "chip": "ym2612"
    },
    {
      "channel": 1,
      "note": 53,
      "start": 124.9338,
      "duration": 0.0768,
      "velocity": 101,
      "chip": "ym2612"
    },
    {
      "channel": 2,
      "note": 84,
      "start": 124.938,
      "duration": 0.0718,
      "velocity": 106,
      "chip": "ym2612"
    },
    {
      "channel": 0,
      "note": 74,
      "start": 125.0149,
      "duration": 0.0793,
      "velocity": 106,
      "chip": "ym2612"
    },
    {
      "channel": 1,
      "note": 74,
      "start": 125.0191,
      "duration": 0.0236,
      "velocity": 127,
      "chip": "ym2612"
    },
    {
      "channel": 2,
      "note": 56,
      "start": 125.0232,
      "duration": 0.0717,
      "velocity": 101,
      "chip": "ym2612"
    },
    {
      "channel": 0,
      "note": 78,
      "start": 125.1132,
      "duration": 0.0295,
      "velocity": 127,
      "chip": "ym2612"
    },
    {
      "channel": 1,
      "note": 79,
      "start": 125.1174,
      "duration": 0.0762,
      "velocity": 106,
      "chip": "ym2612"
    },
    {
      "channel": 2,
      "note": 57,
      "start": 125.1215,
      "duration": 0.0714,
      "velocity": 101,
      "chip": "ym2612"
    },
    {
      "channel": 3,
      "note": 50,
      "start": 125.1268,
      "duration": 0.0172,
      "velocity": 117,
      "chip": "ym2612"
    },
    {
      "channel": 0,
      "note": 60,
      "start": 125.213,
      "duration": 0.0798,
      "velocity": 101,
      "chip": "ym2612"
    },
    {
      "channel": 1,
      "note": 76,
      "start": 125.2172,
      "duration": 0.0255,
      "velocity": 127,
      "chip": "ym2612"
    },
    {
      "channel": 2,
      "note": 81,
      "start": 125.2214,
      "duration": 0.0722,
      "velocity": 106,
      "chip": "ym2612"
    },
    {
      "channel": 0,
      "note": 84,
      "start": 125.3131,
      "duration": 0.0799,
      "velocity": 106,
      "chip": "ym2612"
    },
    {
      "channel": 1,
      "note": 62,
      "start": 125.3172,
      "duration": 0.0767,
      "velocity": 101,
      "chip": "ym2612"
    },
    {
      "channel": 2,
      "note": 74,
      "start": 125.3213,
      "duration": 0.0214,
      "velocity": 127,
      "chip": "ym2612"
    },
    {
      "channel": 0,
      "note": 81,
      "start": 125.3982,
      "duration": 0.028,
      "velocity": 106,
      "chip": "ym2612"
    },
    {
      "channel": 1,
      "note": 72,
      "start": 125.4024,
      "duration": 0.0244,
      "velocity": 127,
      "chip": "ym2612"
    },
    {
      "channel": 2,
      "note": 65,
      "start": 125.4064,
      "duration": 0.0698,
      "velocity": 101,
      "chip": "ym2612"
    },
    {
      "channel": 0,
      "note": 84,
      "start": 125.4464,
      "duration": 0.0306,
      "velocity": 106,
      "chip": "ym2612"
    },
    {
      "channel": 0,
      "note": 86,
      "start": 125.4964,
      "duration": 0.0798,
      "velocity": 106,
      "chip": "ym2612"
    },
    {
      "channel": 1,
      "note": 62,
      "start": 125.5005,
      "duration": 0.0764,
      "velocity": 101,
      "chip": "ym2612"
    },
    {
      "channel": 2,
      "note": 70,
      "start": 125.5047,
      "duration": 0.0214,
      "velocity": 127,
      "chip": "ym2612"
    },
    {
      "channel": 0,
      "note": 89,
      "start": 125.5964,
      "duration": 0.0799,
      "velocity": 106,
      "chip": "ym2612"
    },
    {
      "channel": 1,
      "note": 68,
      "start": 125.6006,
      "duration": 0.0254,
      "velocity": 127,
      "chip": "ym2612"
    },
    {
      "channel": 2,
      "note": 53,
      "start": 125.6046,
      "duration": 0.0726,
      "velocity": 101,
      "chip": "ym2612"
    },
    {
      "channel": 0,
      "note": 60,
      "start": 125.6817,
      "duration": 0.2611,
      "velocity": 101,
      "chip": "ym2612"
    },
    {
      "channel": 1,
      "note": 50,
      "start": 125.6861,
      "duration": 0.0733,
      "velocity": 117,
      "chip": "ym2612"
    },
    {
      "channel": 2,
      "note": 60,
      "start": 125.6903,
      "duration": 0.0701,
      "velocity": 106,
      "chip": "ym2612"
    },
    {
      "channel": 1,
      "note": 71,
      "start": 125.7651,
      "duration": 0.0781,
      "velocity": 127,
      "chip": "ym2612"
    },
    {
      "channel": 2,
      "note": 60,
      "start": 125.7693,
      "duration": 0.0748,
      "velocity": 106,
      "chip": "ym2612"
    },
    {
      "channel": 1,
      "note": 60,
      "start": 125.8631,
      "duration": 0.0811,
      "velocity": 106,
      "chip": "ym2612"
    },
    {
      "channel": 2,
      "note": 50,
      "start": 125.8674,
      "duration": 0.076,
      "velocity": 117,
      "chip": "ym2612"
    },
    {
      "channel": 0,
      "note": 60,
      "start": 125.963,
      "duration": 0.2632,
      "velocity": 101,
      "chip": "ym2612"
    },
    {
      "channel": 1,
      "note": 60,
      "start": 125.9672,
      "duration": 0.0758,
      "velocity": 106,
      "chip": "ym2612"
    },
    {
      "channel": 2,
      "note": 74,
      "start": 125.9715,
      "duration": 0.0722,
      "velocity": 127,
      "chip": "ym2612"
    },
    {
      "channel": 3,
      "note": 50,
      "start": 125.9767,
      "duration": 0.0167,
      "velocity": 117,
      "chip": "ym2612"
    },
    {
      "channel": 1,
      "note": 60,
      "start": 126.0478,
      "duration": 0.0784,
      "velocity": 106,
      "chip": "ym2612"
    },
    {
      "channel": 1,
      "note": 71,
      "start": 126.147,
      "duration": 0.0819,
      "velocity": 127,
      "chip": "ym2612"
    },
    {
      "channel": 2,
      "note": 60,
      "start": 126.1512,
      "duration": 0.0767,
      "velocity": 106,
      "chip": "ym2612"
    },
    {
      "channel": 3,
      "note": 50,
      "start": 126.1556,
      "duration": 0.0713,
      "velocity": 117,
      "chip": "ym2612"
    },
    {
      "channel": 0,
      "note": 60,
      "start": 126.2463,
      "duration": 0.2632,
      "velocity": 101,
      "chip": "ym2612"
    },
    {
      "channel": 1,
      "note": 60,
      "start": 126.2505,
      "duration": 0.0758,
      "velocity": 106,
      "chip": "ym2612"
    },
    {
      "channel": 2,
      "note": 50,
      "start": 126.2548,
      "duration": 0.072,
      "velocity": 117,
      "chip": "ym2612"
    },
    {
      "channel": 1,
      "note": 60,
      "start": 126.3464,
      "duration": 0.08,
      "velocity": 106,
      "chip": "ym2612"
    },
    {
      "channel": 2,
      "note": 71,
      "start": 126.3511,
      "duration": 0.0765,
      "velocity": 127,
      "chip": "ym2612"
    },
    {
      "channel": 1,
      "note": 60,
      "start": 126.4318,
      "duration": 0.0791,
      "velocity": 106,
      "chip": "ym2612"
    },
    {
      "channel": 2,
      "note": 50,
      "start": 126.4362,
      "duration": 0.0739,
      "velocity": 117,
      "chip": "ym2612"
    },
    {
      "channel": 0,
      "note": 60,
      "start": 126.5297,
      "duration": 0.2632,
      "velocity": 101,
      "chip": "ym2612"
    },
    {
      "channel": 1,
      "note": 60,
      "start": 126.534,
      "duration": 0.0757,
      "velocity": 106,
      "chip": "ym2612"
    },
    {
      "channel": 2,
      "note": 74,
      "start": 126.5382,
      "duration": 0.0721,
      "velocity": 127,
      "chip": "ym2612"
    },
    {
      "channel": 3,
      "note": 50,
      "start": 126.5434,
      "duration": 0.0179,
      "velocity": 117,
      "chip": "ym2612"
    },
    {
      "channel": 1,
      "note": 60,
      "start": 126.6297,
      "duration": 0.08,
      "velocity": 106,
      "chip": "ym2612"
    },
    {
      "channel": 1,
      "note": 71,
      "start": 126.7145,
      "duration": 0.081,
      "velocity": 127,
      "chip": "ym2612"
    },
    {
      "channel": 2,
      "note": 50,
      "start": 126.719,
      "duration": 0.0756,
      "velocity": 117,
      "chip": "ym2612"
    },
    {
      "channel": 3,
      "note": 60,
      "start": 126.7231,
      "duration": 0.0708,
      "velocity": 106,
      "chip": "ym2612"
    },
    {
      "channel": 0,
      "note": 60,
      "start": 126.813,
      "duration": 0.2631,
      "velocity": 101,
      "chip": "ym2612"
    },
    {
      "channel": 1,
      "note": 50,
      "start": 126.8174,
      "duration": 0.0753,
      "velocity": 117,
      "chip": "ym2612"
    },
    {
      "channel": 2,
      "note": 60,
      "start": 126.8216,
      "duration": 0.072,
      "velocity": 106,
      "chip": "ym2612"
    },
    {
      "channel": 1,
      "note": 71,
      "start": 126.9136,
      "duration": 0.0797,
      "velocity": 127,
      "chip": "ym2612"
    },
    {
      "channel": 2,
      "note": 60,
      "start": 126.9178,
      "duration": 0.0763,
      "velocity": 106,
      "chip": "ym2612"
    },
    {
      "channel": 1,
      "note": 60,
      "start": 127.0143,
      "duration": 0.0795,
      "velocity": 106,
      "chip": "ym2612"
    },
    {
      "channel": 2,
      "note": 50,
      "start": 127.0187,
      "duration": 0.074,
      "velocity": 117,
      "chip": "ym2612"
    },
    {
      "channel": 0,
      "note": 60,
      "start": 127.098,
      "duration": 0.1782,
      "velocity": 101,
      "chip": "ym2612"
    },
    {
      "channel": 1,
      "note": 60,
      "start": 127.1023,
      "duration": 0.074,
      "velocity": 106,
      "chip": "ym2612"
    },
    {
      "channel": 2,
      "note": 74,
      "start": 127.1065,
      "duration": 0.0704,
      "velocity": 127,
      "chip": "ym2612"
    },
    {
      "channel": 3,
      "note": 50,
      "start": 127.1118,
      "duration": 0.015,
      "velocity": 117,
      "chip": "ym2612"
    },
    {
      "channel": 1,
      "note": 60,
      "start": 127.1976,
      "duration": 0.0793,
      "velocity": 106,
      "chip": "ym2612"
    },
    {
      "channel": 0,
      "note": 71,
      "start": 127.2982,
      "duration": 0.0794,
      "velocity": 127,
      "chip": "ym2612"
    },
    {
      "channel": 1,
      "note": 62,
      "start": 127.3024,
      "duration": 0.3599,
      "velocity": 101,
      "chip": "ym2612"
    },
    {
      "channel": 2,
      "note": 50,
      "start": 127.3068,
      "duration": 0.0715,
      "velocity": 117,
      "chip": "ym2612"
    },
    {
      "channel": 3,
      "note": 62,
      "start": 127.3111,
      "duration": 0.3499,
      "velocity": 106,
      "chip": "ym2612"
    },
    {
      "channel": 0,
      "note": 50,
      "start": 127.58,
      "duration": 0.0816,
      "velocity": 117,
      "chip": "ym2612"
    },
    {
      "channel": 0,
      "note": 65,
      "start": 127.6796,
      "duration": 0.2632,
      "velocity": 101,
      "chip": "ym2612"
    },
    {
      "channel": 1,
      "note": 74,
      "start": 127.684,
      "duration": 0.0754,
      "velocity": 127,
      "chip": "ym2612"
    },
    {
      "channel": 2,
      "note": 65,
      "start": 127.6882,
      "duration": 0.0722,
      "velocity": 106,
      "chip": "ym2612"
    },
    {
      "channel": 3,
      "note": 50,
      "start": 127.6934,
      "duration": 0.0167,
      "velocity": 117,
      "chip": "ym2612"
    },
    {
      "channel": 1,
      "note": 65,
      "start": 127.7645,
      "duration": 0.0796,
      "velocity": 106,
      "chip": "ym2612"
    },
    {
      "channel": 1,
      "note": 50,
      "start": 127.8634,
      "duration": 0.0822,
      "velocity": 117,
      "chip": "ym2612"
    },
    {
      "channel": 2,
      "note": 71,
      "start": 127.8681,
      "duration": 0.077,
      "velocity": 127,
      "chip": "ym2612"
    },
    {
      "channel": 3,
      "note": 65,
      "start": 127.8723,
      "duration": 0.0716,
      "velocity": 106,
      "chip": "ym2612"
    },
    {
      "channel": 0,
      "note": 62,
      "start": 127.963,
      "duration": 0.2632,
      "velocity": 101,
      "chip": "ym2612"
    },
    {
      "channel": 1,
      "note": 62,
      "start": 127.9672,
      "duration": 0.0759,
      "velocity": 106,
      "chip": "ym2612"
    },
    {
      "channel": 2,
      "note": 50,
      "start": 127.9716,
      "duration": 0.0722,
      "velocity": 117,
      "chip": "ym2612"
    },
    {
      "channel": 1,
      "note": 71,
      "start": 128.0485,
      "duration": 0.0781,
      "velocity": 127,
      "chip": "ym2612"
    },
    {
      "channel": 2,
      "note": 62,
      "start": 128.0526,
      "duration": 0.0748,
      "velocity": 106,
      "chip": "ym2612"
    },
    {
      "channel": 1,
      "note": 62,
      "start": 128.1464,
      "duration": 0.0811,
      "velocity": 106,
      "chip": "ym2612"
    },
    {
      "channel": 2,
      "note": 50,
      "start": 128.1508,
      "duration": 0.076,
      "velocity": 117,
      "chip": "ym2612"
    },
    {
      "channel": 0,
      "note": 62,
      "start": 128.2463,
      "duration": 0.2632,
      "velocity": 101,
      "chip": "ym2612"
    },
    {
      "channel": 1,
      "note": 74,
      "start": 128.2506,
      "duration": 0.0754,
      "velocity": 127,
      "chip": "ym2612"
    },
    {
      "channel": 2,
      "note": 62,
      "start": 128.2548,
      "duration": 0.0721,
      "velocity": 106,
      "chip": "ym2612"
    },
    {
      "channel": 3,
      "note": 50,
      "start": 128.26,
      "duration": 0.0167,
      "velocity": 117,
      "chip": "ym2612"
    },
    {
      "channel": 1,
      "note": 62,
      "start": 128.3464,
      "duration": 0.08,
      "velocity": 106,
      "chip": "ym2612"
    },
    {
      "channel": 1,
      "note": 50,
      "start": 128.4309,
      "duration": 0.0814,
      "velocity": 117,
      "chip": "ym2612"
    },
    {
      "channel": 2,
      "note": 71,
      "start": 128.4356,
      "duration": 0.0761,
      "velocity": 127,
      "chip": "ym2612"
    },
    {
      "channel": 3,
      "note": 62,
      "start": 128.4398,
      "duration": 0.0707,
      "velocity": 106,
      "chip": "ym2612"
    },
    {
      "channel": 0,
      "note": 65,
      "start": 128.5296,
      "duration": 0.2632,
      "velocity": 101,
      "chip": "ym2612"
    },
    {
      "channel": 1,
      "note": 65,
      "start": 128.5338,
      "duration": 0.0758,
      "velocity": 106,
      "chip": "ym2612"
    },
    {
      "channel": 2,
      "note": 50,
      "start": 128.5382,
      "duration": 0.072,
      "velocity": 117,
      "chip": "ym2612"
    },
    {
      "channel": 1,
      "note": 71,
      "start": 128.6303,
      "duration": 0.0797,
      "velocity": 127,
      "chip": "ym2612"
    },
    {
      "channel": 2,
      "note": 65,
      "start": 128.6344,
      "duration": 0.0765,
      "velocity": 106,
      "chip": "ym2612"
    },
    {
      "channel": 1,
      "note": 65,
      "start": 128.7151,
      "duration": 0.0791,
      "velocity": 106,
      "chip": "ym2612"
    },
    {
      "channel": 2,
      "note": 50,
      "start": 128.7195,
      "duration": 0.0739,
      "velocity": 117,
      "chip": "ym2612"
    },
    {
      "channel": 0,
      "note": 62,
      "start": 128.813,
      "duration": 0.1798,
      "velocity": 101,
      "chip": "ym2612"
    },
    {
      "channel": 1,
      "note": 74,
      "start": 128.8173,
      "duration": 0.0754,
      "velocity": 127,
      "chip": "ym2612"
    },
    {
      "channel": 2,
      "note": 62,
      "start": 128.8215,
      "duration": 0.0721,
      "velocity": 106,
      "chip": "ym2612"
    },
    {
      "channel": 3,
      "note": 50,
      "start": 128.8268,
      "duration": 0.0178,
      "velocity": 117,
      "chip": "ym2612"
    },
    {
      "channel": 1,
      "note": 62,
      "start": 128.913,
      "duration": 0.0805,
      "velocity": 106,
      "chip": "ym2612"
    },
    {
      "channel": 0,
      "note": 60,
      "start": 129.013,
      "duration": 0.3632,
      "velocity": 101,
      "chip": "ym2612"
    },
    {
      "channel": 1,
      "note": 50,
      "start": 129.0175,
      "duration": 0.0752,
      "velocity": 117,
      "chip": "ym2612"
    },
    {
      "channel": 2,
      "note": 60,
      "start": 129.0217,
      "duration": 0.3564,
      "velocity": 106,
      "chip": "ym2612"
    },
    {
      "channel": 3,
      "note": 71,
      "start": 129.0266,
      "duration": 0.0674,
      "velocity": 127,
      "chip": "ym2612"
    },
    {
      "channel": 1,
      "note": 50,
      "start": 129.0983,
      "duration": 0.0777,
      "velocity": 117,
      "chip": "ym2612"
    },
    {
      "channel": 1,
      "note": 50,
      "start": 129.2966,
      "duration": 0.0804,
      "velocity": 117,
      "chip": "ym2612"
    },
    {
      "channel": 0,
      "note": 60,
      "start": 129.3823,
      "duration": 0.2604,
      "velocity": 101,
      "chip": "ym2612"
    },
    {
      "channel": 1,
      "note": 74,
      "start": 129.3866,
      "duration": 0.0728,
      "velocity": 127,
      "chip": "ym2612"
    },
    {
      "channel": 2,
      "note": 60,
      "start": 129.3908,
      "duration": 0.0695,
      "velocity": 106,
      "chip": "ym2612"
    },
    {
      "channel": 3,
      "note": 50,
      "start": 129.3961,
      "duration": 0.014,
      "velocity": 117,
      "chip": "ym2612"
    },
    {
      "channel": 1,
      "note": 60,
      "start": 129.4797,
      "duration": 0.0799,
      "velocity": 106,
      "chip": "ym2612"
    },
    {
      "channel": 1,
      "note": 50,
      "start": 129.5812,
      "duration": 0.0803,
      "velocity": 117,
      "chip": "ym2612"
    },
    {
      "channel": 2,
      "note": 71,
      "start": 129.5859,
      "duration": 0.075,
      "velocity": 127,
      "chip": "ym2612"
    },
    {
      "channel": 3,
      "note": 60,
      "start": 129.5901,
      "duration": 0.0697,
      "velocity": 106,
      "chip": "ym2612"
    },
    {
      "channel": 0,
      "note": 60,
      "start": 129.6809,
      "duration": 0.2632,
      "velocity": 101,
      "chip": "ym2612"
    },
    {
      "channel": 1,
      "note": 60,
      "start": 129.6851,
      "duration": 0.0759,
      "velocity": 106,
      "chip": "ym2612"
    },
    {
      "channel": 2,
      "note": 50,
      "start": 129.6894,
      "duration": 0.0722,
      "velocity": 117,
      "chip": "ym2612"
    },
    {
      "channel": 1,
      "note": 60,
      "start": 129.7659,
      "duration": 0.0771,
      "velocity": 106,
      "chip": "ym2612"
    },
    {
      "channel": 2,
      "note": 71,
      "start": 129.7705,
      "duration": 0.0736,
      "velocity": 127,
      "chip": "ym2612"
    },
    {
      "channel": 1,
      "note": 60,
      "start": 129.8644,
      "duration": 0.081,
      "velocity": 106,
      "chip": "ym2612"
    },
    {
      "channel": 2,
      "note": 50,
      "start": 129.8687,
      "duration": 0.0759,
      "velocity": 117,
      "chip": "ym2612"
    },
    {
      "channel": 0,
      "note": 60,
      "start": 129.963,
      "duration": 0.2644,
      "velocity": 101,
      "chip": "ym2612"
    },
    {
      "channel": 1,
      "note": 60,
      "start": 129.9673,
      "duration": 0.0769,
      "velocity": 106,
      "chip": "ym2612"
    },
    {
      "channel": 2,
      "note": 74,
      "start": 129.9715,
      "duration": 0.0734,
      "velocity": 127,
      "chip": "ym2612"
    },
    {
      "channel": 3,
      "note": 50,
      "start": 129.9768,
      "duration": 0.0167,
      "velocity": 117,
      "chip": "ym2612"
    },
    {
      "channel": 1,
      "note": 60,
      "start": 130.049,
      "duration": 0.0784,
      "velocity": 106,
      "chip": "ym2612"
    },
    {
      "channel": 1,
      "note": 50,
      "start": 130.1467,
      "duration": 0.0834,
      "velocity": 117,
      "chip": "ym2612"
    },
    {
      "channel": 2,
      "note": 60,
      "start": 130.1509,
      "duration": 0.0787,
      "velocity": 106,
      "chip": "ym2612"
    },
    {
      "channel": 3,
      "note": 71,
      "start": 130.1556,
      "duration": 0.0731,
      "velocity": 127,
      "chip": "ym2612"
    },
    {
      "channel": 0,
      "note": 60,
      "start": 130.2463,
      "duration": 0.2632,
      "velocity": 101,
      "chip": "ym2612"
    },
    {
      "channel": 1,
      "note": 60,
      "start": 130.2505,
      "duration": 0.0758,
      "velocity": 106,
      "chip": "ym2612"
    },
    {
      "channel": 2,
      "note": 50,
      "start": 130.2548,
      "duration": 0.072,
      "velocity": 117,
      "chip": "ym2612"
    },
    {
      "channel": 1,
      "note": 71,
      "start": 130.3469,
      "duration": 0.0797,
      "velocity": 127,
      "chip": "ym2612"
    },
    {
      "channel": 2,
      "note": 60,
      "start": 130.3511,
      "duration": 0.0765,
      "velocity": 106,
      "chip": "ym2612"
    },
    {
      "channel": 1,
      "note": 60,
      "start": 130.4319,
      "duration": 0.079,
      "velocity": 106,
      "chip": "ym2612"
    },
    {
      "channel": 2,
      "note": 50,
      "start": 130.4362,
      "duration": 0.0739,
      "velocity": 117,
      "chip": "ym2612"
    },
    {
      "channel": 0,
      "note": 60,
      "start": 130.5298,
      "duration": 0.0798,
      "velocity": 106,
      "chip": "ym2612"
    },
    {
      "channel": 1,
      "note": 74,
      "start": 130.5341,
      "duration": 0.076,
      "velocity": 127,
      "chip": "ym2612"
    },
    {
      "channel": 2,
      "note": 60,
      "start": 130.5382,
      "duration": 0.1715,
      "velocity": 101,
      "chip": "ym2612"
    },
    {
      "channel": 3,
      "note": 50,
      "start": 130.5434,
      "duration": 0.0167,
      "velocity": 117,
      "chip": "ym2612"
    },
    {
      "channel": 0,
      "note": 60,
      "start": 130.6297,
      "duration": 0.0809,
      "velocity": 106,
      "chip": "ym2612"
    },
    {
      "channel": 0,
      "note": 50,
      "start": 130.7151,
      "duration": 0.0775,
      "velocity": 117,
      "chip": "ym2612"
    },
    {
      "channel": 1,
      "note": 71,
      "start": 130.72,
      "duration": 0.0737,
      "velocity": 127,
      "chip": "ym2612"
    },
    {
      "channel": 2,
      "note": 62,
      "start": 130.724,
      "duration": 0.353,
      "velocity": 101,
      "chip": "ym2612"
    },
    {
      "channel": 3,
      "note": 62,
      "start": 130.7284,
      "duration": 0.348,
      "velocity": 106,
      "chip": "ym2612"
    },
    {
      "channel": 0,
      "note": 50,
      "start": 131.0133,
      "duration": 0.0793,
      "velocity": 117,
      "chip": "ym2612"
    },
    {
      "channel": 0,
      "note": 74,
      "start": 131.097,
      "duration": 0.079,
      "velocity": 127,
      "chip": "ym2612"
    },
    {
      "channel": 1,
      "note": 67,
      "start": 131.1013,
      "duration": 0.0755,
      "velocity": 106,
      "chip": "ym2612"
    },
    {
      "channel": 2,
      "note": 67,
      "start": 131.1054,
      "duration": 0.2541,
      "velocity": 101,
      "chip": "ym2612"
    },
    {
      "channel": 3,
      "note": 50,
      "start": 131.1106,
      "duration": 0.0162,
      "velocity": 117,
      "chip": "ym2612"
    },
    {
      "channel": 0,
      "note": 67,
      "start": 131.1964,
      "duration": 0.0798,
      "velocity": 106,
      "chip": "ym2612"
    },
    {
      "channel": 0,
      "note": 67,
      "start": 131.2964,
      "duration": 0.0821,
      "velocity": 106,
      "chip": "ym2612"
    },
    {
      "channel": 1,
      "note": 71,
      "start": 131.3012,
      "duration": 0.0764,
      "velocity": 127,
      "chip": "ym2612"
    },
    {
      "channel": 3,
      "note": 50,
      "start": 131.3055,
      "duration": 0.0707,
      "velocity": 117,
      "chip": "ym2612"
    },
    {
      "channel": 0,
      "note": 50,
      "start": 131.3829,
      "duration": 0.0763,
      "velocity": 117,
      "chip": "ym2612"
    },
    {
      "channel": 1,
      "note": 62,
      "start": 131.3872,
      "duration": 0.0729,
      "velocity": 106,
      "chip": "ym2612"
    },
    {
      "channel": 2,
      "note": 62,
      "start": 131.3912,
      "duration": 0.2516,
      "velocity": 101,
      "chip": "ym2612"
    },
    {
      "channel": 0,
      "note": 71,
      "start": 131.4803,
      "duration": 0.0796,
      "velocity": 127,
      "chip": "ym2612"
    },
    {
      "channel": 1,
      "note": 62,
      "start": 131.4844,
      "duration": 0.0762,
      "velocity": 106,
      "chip": "ym2612"
    },
    {
      "channel": 0,
      "note": 62,
      "start": 131.5797,
      "duration": 0.0804,
      "velocity": 106,
      "chip": "ym2612"
    },
    {
      "channel": 1,
      "note": 50,
      "start": 131.5841,
      "duration": 0.0752,
      "velocity": 117,
      "chip": "ym2612"
    },
    {
      "channel": 0,
      "note": 60,
      "start": 131.6796,
      "duration": 0.2632,
      "velocity": 101,
      "chip": "ym2612"
    },
    {
      "channel": 1,
      "note": 60,
      "start": 131.6839,
      "duration": 0.0758,
      "velocity": 106,
      "chip": "ym2612"
    },
    {
      "channel": 2,
      "note": 74,
      "start": 131.6882,
      "duration": 0.0722,
      "velocity": 127,
      "chip": "ym2612"
    },
    {
      "channel": 3,
      "note": 50,
      "start": 131.6934,
      "duration": 0.0167,
      "velocity": 117,
      "chip": "ym2612"
    },
    {
      "channel": 1,
      "note": 60,
      "start": 131.7645,
      "duration": 0.0784,
      "velocity": 106,
      "chip": "ym2612"
    },
    {
      "channel": 1,
      "note": 71,
      "start": 131.8636,
      "duration": 0.082,
      "velocity": 127,
      "chip": "ym2612"
    },
    {
      "channel": 2,
      "note": 60,
      "start": 131.8679,
      "duration": 0.0766,
      "velocity": 106,
      "chip": "ym2612"
    },
    {
      "channel": 3,
      "note": 50,
      "start": 131.8723,
      "duration": 0.0713,
      "velocity": 117,
      "chip": "ym2612"
    },
    {
      "channel": 0,
      "note": 50,
      "start": 131.9646,
      "duration": 0.0781,
      "velocity": 117,
      "chip": "ym2612"
    },
    {
      "channel": 1,
      "note": 62,
      "start": 131.9686,
      "duration": 0.2576,
      "velocity": 101,
      "chip": "ym2612"
    },
    {
      "channel": 2,
      "note": 62,
      "start": 131.9728,
      "duration": 0.0709,
      "velocity": 106,
      "chip": "ym2612"
    },
    {
      "channel": 0,
      "note": 71,
      "start": 132.0483,
      "duration": 0.0782,
      "velocity": 127,
      "chip": "ym2612"
    },
    {
      "channel": 2,
      "note": 62,
      "start": 132.0525,
      "duration": 0.0749,
      "velocity": 106,
      "chip": "ym2612"
    },
    {
      "channel": 0,
      "note": 62,
      "start": 132.1476,
      "duration": 0.0799,
      "velocity": 106,
      "chip": "ym2612"
    },
    {
      "channel": 2,
      "note": 50,
      "start": 132.152,
      "duration": 0.0747,
      "velocity": 117,
      "chip": "ym2612"
    },
    {
      "channel": 0,
      "note": 60,
      "start": 132.2476,
      "duration": 0.1798,
      "velocity": 101,
      "chip": "ym2612"
    },
    {
      "channel": 1,
      "note": 60,
      "start": 132.2518,
      "duration": 0.0756,
      "velocity": 106,
      "chip": "ym2612"
    },
    {
      "channel": 2,
      "note": 74,
      "start": 132.2561,
      "duration": 0.0721,
      "velocity": 127,
      "chip": "ym2612"
    },
    {
      "channel": 3,
      "note": 50,
      "start": 132.2613,
      "duration": 0.0155,
      "velocity": 117,
      "chip": "ym2612"
    },
    {
      "channel": 1,
      "note": 60,
      "start": 132.3464,
      "duration": 0.0821,
      "velocity": 106,
      "chip": "ym2612"
    },
    {
      "channel": 0,
      "note": 50,
      "start": 132.4329,
      "duration": 0.0775,
      "velocity": 117,
      "chip": "ym2612"
    },
    {
      "channel": 1,
      "note": 58,
      "start": 132.4371,
      "duration": 0.3585,
      "velocity": 101,
      "chip": "ym2612"
    },
    {
      "channel": 2,
      "note": 71,
      "start": 132.442,
      "duration": 0.0695,
      "velocity": 127,
      "chip": "ym2612"
    },
    {
      "channel": 3,
      "note": 58,
      "start": 132.4463,
      "duration": 0.3481,
      "velocity": 106,
      "chip": "ym2612"
    },
    {
      "channel": 0,
      "note": 50,
      "start": 132.53,
      "duration": 0.0806,
      "velocity": 117,
      "chip": "ym2612"
    },
    {
      "channel": 0,
      "note": 50,
      "start": 132.7133,
      "duration": 0.0816,
      "velocity": 117,
      "chip": "ym2612"
    },
    {
      "channel": 0,
      "note": 58,
      "start": 132.813,
      "duration": 0.2631,
      "velocity": 101,
      "chip": "ym2612"
    },
    {
      "channel": 1,
      "note": 58,
      "start": 132.8173,
      "duration": 0.0757,
      "velocity": 106,
      "chip": "ym2612"
    },
    {
      "channel": 2,
      "note": 74,
      "start": 132.8215,
      "duration": 0.0721,
      "velocity": 127,
      "chip": "ym2612"
    },
    {
      "channel": 3,
      "note": 50,
      "start": 132.8268,
      "duration": 0.0167,
      "velocity": 117,
      "chip": "ym2612"
    },
    {
      "channel": 1,
      "note": 58,
      "start": 132.913,
      "duration": 0.0799,
      "velocity": 106,
      "chip": "ym2612"
    },
    {
      "channel": 1,
      "note": 71,
      "start": 133.0136,
      "duration": 0.0816,
      "velocity": 127,
      "chip": "ym2612"
    },
    {
      "channel": 2,
      "note": 58,
      "start": 133.0179,
      "duration": 0.0761,
      "velocity": 106,
      "chip": "ym2612"
    },
    {
      "channel": 3,
      "note": 50,
      "start": 133.0223,
      "duration": 0.0706,
      "velocity": 117,
      "chip": "ym2612"
    },
    {
      "channel": 0,
      "note": 58,
      "start": 133.0995,
      "duration": 0.0768,
      "velocity": 106,
      "chip": "ym2612"
    },
    {
      "channel": 1,
      "note": 58,
      "start": 133.1036,
      "duration": 0.2559,
      "velocity": 101,
      "chip": "ym2612"
    },
    {
      "channel": 2,
      "note": 50,
      "start": 133.108,
      "duration": 0.0689,
      "velocity": 117,
      "chip": "ym2612"
    },
    {
      "channel": 0,
      "note": 58,
      "start": 133.1964,
      "duration": 0.0798,
      "velocity": 106,
      "chip": "ym2612"
    },
    {
      "channel": 2,
      "note": 71,
      "start": 133.2011,
      "duration": 0.0763,
      "velocity": 127,
      "chip": "ym2612"
    },
    {
      "channel": 0,
      "note": 58,
      "start": 133.2964,
      "duration": 0.0807,
      "velocity": 106,
      "chip": "ym2612"
    },
    {
      "channel": 2,
      "note": 50,
      "start": 133.3008,
      "duration": 0.0752,
      "velocity": 117,
      "chip": "ym2612"
    },
    {
      "channel": 0,
      "note": 58,
      "start": 133.3813,
      "duration": 0.2615,
      "velocity": 101,
      "chip": "ym2612"
    },
    {
      "channel": 1,
      "note": 58,
      "start": 133.3856,
      "duration": 0.0741,
      "velocity": 106,
      "chip": "ym2612"
    },
    {
      "channel": 2,
      "note": 74,
      "start": 133.3898,
      "duration": 0.0704,
      "velocity": 127,
      "chip": "ym2612"
    },
    {
      "channel": 3,
      "note": 50,
      "start": 133.3951,
      "duration": 0.015,
      "velocity": 117,
      "chip": "ym2612"
    },
    {
      "channel": 1,
      "note": 58,
      "start": 133.4797,
      "duration": 0.0799,
      "velocity": 106,
      "chip": "ym2612"
    },
    {
      "channel": 1,
      "note": 71,
      "start": 133.5803,
      "duration": 0.0811,
      "velocity": 127,
      "chip": "ym2612"
    },
    {
      "channel": 2,
      "note": 58,
      "start": 133.5845,
      "duration": 0.0758,
      "velocity": 106,
      "chip": "ym2612"
    },
    {
      "channel": 3,
      "note": 50,
      "start": 133.5889,
      "duration": 0.0705,
      "velocity": 117,
      "chip": "ym2612"
    },
    {
      "channel": 0,
      "note": 58,
      "start": 133.6796,
      "duration": 0.2632,
      "velocity": 101,
      "chip": "ym2612"
    },
    {
      "channel": 1,
      "note": 50,
      "start": 133.6841,
      "duration": 0.0753,
      "velocity": 117,
      "chip": "ym2612"
    },
    {
      "channel": 2,
      "note": 58,
      "start": 133.6882,
      "duration": 0.0722,
      "velocity": 106,
      "chip": "ym2612"
    },
    {
      "channel": 1,
      "note": 58,
      "start": 133.7646,
      "duration": 0.0784,
      "velocity": 106,
      "chip": "ym2612"
    },
    {
      "channel": 2,
      "note": 71,
      "start": 133.7693,
      "duration": 0.0747,
      "velocity": 127,
      "chip": "ym2612"
    },
    {
      "channel": 1,
      "note": 58,
      "start": 133.8631,
      "duration": 0.0811,
      "velocity": 106,
      "chip": "ym2612"
    },
    {
      "channel": 2,
      "note": 50,
      "start": 133.8675,
      "duration": 0.0759,
      "velocity": 117,
      "chip": "ym2612"
    },
    {
      "channel": 0,
      "note": 74,
      "start": 133.9632,
      "duration": 0.0796,
      "velocity": 127,
      "chip": "ym2612"
    },
    {
      "channel": 1,
      "note": 58,
      "start": 133.9673,
      "duration": 0.1755,
      "velocity": 101,
      "chip": "ym2612"
    },
    {
      "channel": 2,
      "note": 58,
      "start": 133.9715,
      "duration": 0.0722,
      "velocity": 106,
      "chip": "ym2612"
    },
    {
      "channel": 3,
      "note": 50,
      "start": 133.9768,
      "duration": 0.0166,
      "velocity": 117,
      "chip": "ym2612"
    },
    {
      "channel": 0,
      "note": 58,
      "start": 134.0478,
      "duration": 0.0784,
      "velocity": 106,
      "chip": "ym2612"
    },
    {
      "channel": 0,
      "note": 71,
      "start": 134.1477,
      "duration": 0.0788,
      "velocity": 127,
      "chip": "ym2612"
    },
    {
      "channel": 1,
      "note": 60,
      "start": 134.152,
      "duration": 0.359,
      "velocity": 106,
      "chip": "ym2612"
    },
    {
      "channel": 2,
      "note": 50,
      "start": 134.1564,
      "duration": 0.0707,
      "velocity": 117,
      "chip": "ym2612"
    },
    {
      "channel": 3,
      "note": 60,
      "start": 134.1607,
      "duration": 0.3489,
      "velocity": 101,
      "chip": "ym2612"
    },
    {
      "channel": 0,
      "note": 50,
      "start": 134.2466,
      "duration": 0.0793,
      "velocity": 117,
      "chip": "ym2612"
    },
    {
      "channel": 0,
      "note": 50,
      "start": 134.43,
      "duration": 0.0802,
      "velocity": 117,
      "chip": "ym2612"
    },
    {
      "channel": 0,
      "note": 60,
      "start": 134.5309,
      "duration": 0.262,
      "velocity": 101,
      "chip": "ym2612"
    },
    {
      "channel": 1,
      "note": 60,
      "start": 134.5351,
      "duration": 0.0745,
      "velocity": 106,
      "chip": "ym2612"
    },
    {
      "channel": 2,
      "note": 74,
      "start": 134.5393,
      "duration": 0.0709,
      "velocity": 127,
      "chip": "ym2612"
    },
    {
      "channel": 3,
      "note": 50,
      "start": 134.5446,
      "duration": 0.0155,
      "velocity": 117,
      "chip": "ym2612"
    },
    {
      "channel": 1,
      "note": 60,
      "start": 134.6309,
      "duration": 0.08,
      "velocity": 106,
      "chip": "ym2612"
    },
    {
      "channel": 1,
      "note": 60,
      "start": 134.7151,
      "duration": 0.0804,
      "velocity": 106,
      "chip": "ym2612"
    },
    {
      "channel": 2,
      "note": 50,
      "start": 134.7196,
      "duration": 0.0752,
      "velocity": 117,
      "chip": "ym2612"
    },
    {
      "channel": 3,
      "note": 71,
      "start": 134.7243,
      "duration": 0.0698,
      "velocity": 127,
      "chip": "ym2612"
    },
    {
      "channel": 0,
      "note": 50,
      "start": 134.8146,
      "duration": 0.0793,
      "velocity": 117,
      "chip": "ym2612"
    },
    {
      "channel": 1,
      "note": 60,
      "start": 134.8188,
      "duration": 0.0759,
      "velocity": 106,
      "chip": "ym2612"
    },
    {
      "channel": 2,
      "note": 60,
      "start": 134.8228,
      "duration": 0.2546,
      "velocity": 101,
      "chip": "ym2612"
    },
    {
      "channel": 0,
      "note": 60,
      "start": 134.9131,
      "duration": 0.081,
      "velocity": 106,
      "chip": "ym2612"
    },
    {
      "channel": 1,
      "note": 71,
      "start": 134.9178,
      "duration": 0.0775,
      "velocity": 127,
      "chip": "ym2612"
    },
    {
      "channel": 0,
      "note": 60,
      "start": 135.0131,
      "duration": 0.0806,
      "velocity": 106,
      "chip": "ym2612"
    },
    {
      "channel": 1,
      "note": 50,
      "start": 135.0174,
      "duration": 0.0752,
      "velocity": 117,
      "chip": "ym2612"
    },
    {
      "channel": 0,
      "note": 74,
      "start": 135.098,
      "duration": 0.0792,
      "velocity": 127,
      "chip": "ym2612"
    },
    {
      "channel": 1,
      "note": 60,
      "start": 135.1022,
      "duration": 0.2585,
      "velocity": 101,
      "chip": "ym2612"
    },
    {
      "channel": 2,
      "note": 60,
      "start": 135.1064,
      "duration": 0.0716,
      "velocity": 106,
      "chip": "ym2612"
    },
    {
      "channel": 3,
      "note": 50,
      "start": 135.1116,
      "duration": 0.0151,
      "velocity": 117,
      "chip": "ym2612"
    },
    {
      "channel": 0,
      "note": 60,
      "start": 135.1964,
      "duration": 0.0798,
      "velocity": 106,
      "chip": "ym2612"
    },
    {
      "channel": 0,
      "note": 71,
      "start": 135.2969,
      "duration": 0.0816,
      "velocity": 127,
      "chip": "ym2612"
    },
    {
      "channel": 2,
      "note": 60,
      "start": 135.3012,
      "duration": 0.0761,
      "velocity": 106,
      "chip": "ym2612"
    },
    {
      "channel": 3,
      "note": 50,
      "start": 135.3056,
      "duration": 0.0705,
      "velocity": 117,
      "chip": "ym2612"
    },
    {
      "channel": 0,
      "note": 50,
      "start": 135.3829,
      "duration": 0.0763,
      "velocity": 117,
      "chip": "ym2612"
    },
    {
      "channel": 1,
      "note": 60,
      "start": 135.3872,
      "duration": 0.0729,
      "velocity": 106,
      "chip": "ym2612"
    },
    {
      "channel": 2,
      "note": 60,
      "start": 135.3912,
      "duration": 0.2516,
      "velocity": 101,
      "chip": "ym2612"
    },
    {
      "channel": 0,
      "note": 71,
      "start": 135.4803,
      "duration": 0.0796,
      "velocity": 127,
      "chip": "ym2612"
    },
    {
      "channel": 1,
      "note": 60,
      "start": 135.4844,
      "duration": 0.0762,
      "velocity": 106,
      "chip": "ym2612"
    },
    {
      "channel": 0,
      "note": 60,
      "start": 135.5798,
      "duration": 0.0803,
      "velocity": 106,
      "chip": "ym2612"
    },
    {
      "channel": 1,
      "note": 50,
      "start": 135.5841,
      "duration": 0.0752,
      "velocity": 117,
      "chip": "ym2612"
    },
    {
      "channel": 0,
      "note": 74,
      "start": 135.6798,
      "duration": 0.0796,
      "velocity": 127,
      "chip": "ym2612"
    },
    {
      "channel": 1,
      "note": 60,
      "start": 135.684,
      "duration": 0.1756,
      "velocity": 101,
      "chip": "ym2612"
    },
    {
      "channel": 2,
      "note": 60,
      "start": 135.6882,
      "duration": 0.0722,
      "velocity": 106,
      "chip": "ym2612"
    },
    {
      "channel": 3,
      "note": 50,
      "start": 135.6934,
      "duration": 0.0167,
      "velocity": 117,
      "chip": "ym2612"
    },
    {
      "channel": 0,
      "note": 60,
      "start": 135.7644,
      "duration": 0.0784,
      "velocity": 106,
      "chip": "ym2612"
    },
    {
      "channel": 0,
      "note": 71,
      "start": 135.8644,
      "duration": 0.0788,
      "velocity": 127,
      "chip": "ym2612"
    },
    {
      "channel": 1,
      "note": 62,
      "start": 135.8685,
      "duration": 0.359,
      "velocity": 101,
      "chip": "ym2612"
    },
    {
      "channel": 2,
      "note": 62,
      "start": 135.8728,
      "duration": 0.3536,
      "velocity": 106,
      "chip": "ym2612"
    },
    {
      "channel": 3,
      "note": 50,
      "start": 135.8773,
      "duration": 0.0665,
      "velocity": 117,
      "chip": "ym2612"
    },
    {
      "channel": 0,
      "note": 50,
      "start": 135.9633,
      "duration": 0.0793,
      "velocity": 117,
      "chip": "ym2612"
    },
    {
      "channel": 0,
      "note": 50,
      "start": 136.1466,
      "duration": 0.0803,
      "velocity": 117,
      "chip": "ym2612"
    },
    {
      "channel": 0,
      "note": 74,
      "start": 136.2465,
      "duration": 0.0795,
      "velocity": 127,
      "chip": "ym2612"
    },
    {
      "channel": 1,
      "note": 62,
      "start": 136.2508,
      "duration": 0.076,
      "velocity": 106,
      "chip": "ym2612"
    },
    {
      "channel": 2,
      "note": 62,
      "start": 136.2548,
      "duration": 0.2548,
      "velocity": 101,
      "chip": "ym2612"
    },
    {
      "channel": 3,
      "note": 50,
      "start": 136.2601,
      "duration": 0.0179,
      "velocity": 117,
      "chip": "ym2612"
    },
    {
      "channel": 0,
      "note": 62,
      "start": 136.3464,
      "duration": 0.08,
      "velocity": 106,
      "chip": "ym2612"
    },
    {
      "channel": 0,
      "note": 62,
      "start": 136.4306,
      "duration": 0.0816,
      "velocity": 106,
      "chip": "ym2612"
    },
    {
      "channel": 1,
      "note": 50,
      "start": 136.435,
      "duration": 0.0765,
      "velocity": 117,
      "chip": "ym2612"
    },
    {
      "channel": 3,
      "note": 71,
      "start": 136.4397,
      "duration": 0.0712,
      "velocity": 127,
      "chip": "ym2612"
    },
    {
      "channel": 0,
      "note": 50,
      "start": 136.53,
      "duration": 0.0793,
      "velocity": 117,
      "chip": "ym2612"
    },
    {
      "channel": 1,
      "note": 62,
      "start": 136.534,
      "duration": 0.2588,
      "velocity": 101,
      "chip": "ym2612"
    },
    {
      "channel": 2,
      "note": 62,
      "start": 136.5382,
      "duration": 0.072,
      "velocity": 106,
      "chip": "ym2612"
    },
    {
      "channel": 0,
      "note": 71,
      "start": 136.6303,
      "duration": 0.0797,
      "velocity": 127,
      "chip": "ym2612"
    },
    {
      "channel": 2,
      "note": 62,
      "start": 136.6344,
      "duration": 0.0765,
      "velocity": 106,
      "chip": "ym2612"
    },
    {
      "channel": 0,
      "note": 62,
      "start": 136.7151,
      "duration": 0.0792,
      "velocity": 106,
      "chip": "ym2612"
    },
    {
      "channel": 2,
      "note": 50,
      "start": 136.7195,
      "duration": 0.0741,
      "velocity": 117,
      "chip": "ym2612"
    },
    {
      "channel": 0,
      "note": 62,
      "start": 136.813,
      "duration": 0.2631,
      "velocity": 101,
      "chip": "ym2612"
    },
    {
      "channel": 1,
      "note": 62,
      "start": 136.8172,
      "duration": 0.0757,
      "velocity": 106,
      "chip": "ym2612"
    },
    {
      "channel": 2,
      "note": 74,
      "start": 136.8215,
      "duration": 0.0721,
      "velocity": 127,
      "chip": "ym2612"
    },
    {
      "channel": 3,
      "note": 50,
      "start": 136.8268,
      "duration": 0.0167,
      "velocity": 117,
      "chip": "ym2612"
    },
    {
      "channel": 1,
      "note": 62,
      "start": 136.9142,
      "duration": 0.0788,
      "velocity": 106,
      "chip": "ym2612"
    },
    {
      "channel": 1,
      "note": 71,
      "start": 137.0149,
      "duration": 0.0815,
      "velocity": 127,
      "chip": "ym2612"
    },
    {
      "channel": 2,
      "note": 62,
      "start": 137.0191,
      "duration": 0.0761,
      "velocity": 106,
      "chip": "ym2612"
    },
    {
      "channel": 3,
      "note": 50,
      "start": 137.0235,
      "duration": 0.0705,
      "velocity": 117,
      "chip": "ym2612"
    },
    {
      "channel": 0,
      "note": 50,
      "start": 137.1009,
      "duration": 0.0751,
      "velocity": 117,
      "chip": "ym2612"
    },
    {
      "channel": 1,
      "note": 62,
      "start": 137.105,
      "duration": 0.2545,
      "velocity": 101,
      "chip": "ym2612"
    },
    {
      "channel": 2,
      "note": 62,
      "start": 137.1093,
      "duration": 0.0676,
      "velocity": 106,
      "chip": "ym2612"
    },
    {
      "channel": 0,
      "note": 62,
      "start": 137.1976,
      "duration": 0.0798,
      "velocity": 106,
      "chip": "ym2612"
    },
    {
      "channel": 2,
      "note": 71,
      "start": 137.2023,
      "duration": 0.0763,
      "velocity": 127,
      "chip": "ym2612"
    },
    {
      "channel": 0,
      "note": 62,
      "start": 137.2964,
      "duration": 0.0819,
      "velocity": 106,
      "chip": "ym2612"
    },
    {
      "channel": 2,
      "note": 50,
      "start": 137.3008,
      "duration": 0.0765,
      "velocity": 117,
      "chip": "ym2612"
    },
    {
      "channel": 0,
      "note": 74,
      "start": 137.3827,
      "duration": 0.0779,
      "velocity": 127,
      "chip": "ym2612"
    },
    {
      "channel": 1,
      "note": 62,
      "start": 137.3868,
      "duration": 0.2571,
      "velocity": 101,
      "chip": "ym2612"
    },
    {
      "channel": 2,
      "note": 62,
      "start": 137.391,
      "duration": 0.0703,
      "velocity": 106,
      "chip": "ym2612"
    },
    {
      "channel": 3,
      "note": 50,
      "start": 137.3963,
      "duration": 0.0139,
      "velocity": 117,
      "chip": "ym2612"
    },
    {
      "channel": 0,
      "note": 62,
      "start": 137.4797,
      "duration": 0.0811,
      "velocity": 106,
      "chip": "ym2612"
    },
    {
      "channel": 0,
      "note": 62,
      "start": 137.5798,
      "duration": 0.0816,
      "velocity": 106,
      "chip": "ym2612"
    },
    {
      "channel": 2,
      "note": 71,
      "start": 137.5845,
      "duration": 0.0761,
      "velocity": 127,
      "chip": "ym2612"
    },
    {
      "channel": 3,
      "note": 50,
      "start": 137.5889,
      "duration": 0.0705,
      "velocity": 117,
      "chip": "ym2612"
    },
    {
      "channel": 0,
      "note": 50,
      "start": 137.68,
      "duration": 0.0794,
      "velocity": 117,
      "chip": "ym2612"
    },
    {
      "channel": 1,
      "note": 62,
      "start": 137.6842,
      "duration": 0.076,
      "velocity": 106,
      "chip": "ym2612"
    },
    {
      "channel": 2,
      "note": 62,
      "start": 137.6882,
      "duration": 0.2546,
      "velocity": 101,
      "chip": "ym2612"
    },
    {
      "channel": 0,
      "note": 62,
      "start": 137.7644,
      "duration": 0.0785,
      "velocity": 106,
      "chip": "ym2612"
    },
    {
      "channel": 1,
      "note": 71,
      "start": 137.7691,
      "duration": 0.0748,
      "velocity": 127,
      "chip": "ym2612"
    },
    {
      "channel": 0,
      "note": 62,
      "start": 137.8631,
      "duration": 0.0812,
      "velocity": 106,
      "chip": "ym2612"
    },
    {
      "channel": 1,
      "note": 50,
      "start": 137.8674,
      "duration": 0.0761,
      "velocity": 117,
      "chip": "ym2612"
    },
    {
      "channel": 0,
      "note": 62,
      "start": 137.963,
      "duration": 0.2632,
      "velocity": 101,
      "chip": "ym2612"
    },
    {
      "channel": 1,
      "note": 74,
      "start": 137.9673,
      "duration": 0.0754,
      "velocity": 127,
      "chip": "ym2612"
    },
    {
      "channel": 2,
      "note": 62,
      "start": 137.9715,
      "duration": 0.0722,
      "velocity": 106,
      "chip": "ym2612"
    },
    {
      "channel": 3,
      "note": 50,
      "start": 137.9767,
      "duration": 0.0167,
      "velocity": 117,
      "chip": "ym2612"
    },
    {
      "channel": 1,
      "note": 62,
      "start": 138.0478,
      "duration": 0.0784,
      "velocity": 106,
      "chip": "ym2612"
    },
    {
      "channel": 1,
      "note": 50,
      "start": 138.1467,
      "duration": 0.0822,
      "velocity": 117,
      "chip": "ym2612"
    },
    {
      "channel": 2,
      "note": 71,
      "start": 138.1514,
      "duration": 0.077,
      "velocity": 127,
      "chip": "ym2612"
    },
    {
      "channel": 3,
      "note": 62,
      "start": 138.1556,
      "duration": 0.0716,
      "velocity": 106,
      "chip": "ym2612"
    },
    {
      "channel": 0,
      "note": 62,
      "start": 138.2463,
      "duration": 0.2632,
      "velocity": 101,
      "chip": "ym2612"
    },
    {
      "channel": 1,
      "note": 62,
      "start": 138.2505,
      "duration": 0.0758,
      "velocity": 106,
      "chip": "ym2612"
    },
    {
      "channel": 2,
      "note": 50,
      "start": 138.2549,
      "duration": 0.072,
      "velocity": 117,
      "chip": "ym2612"
    },
    {
      "channel": 1,
      "note": 71,
      "start": 138.3469,
      "duration": 0.0797,
      "velocity": 127,
      "chip": "ym2612"
    },
    {
      "channel": 2,
      "note": 62,
      "start": 138.3511,
      "duration": 0.0765,
      "velocity": 106,
      "chip": "ym2612"
    },
    {
      "channel": 1,
      "note": 62,
      "start": 138.4318,
      "duration": 0.0791,
      "velocity": 106,
      "chip": "ym2612"
    },
    {
      "channel": 2,
      "note": 50,
      "start": 138.4362,
      "duration": 0.0739,
      "velocity": 117,
      "chip": "ym2612"
    },
    {
      "channel": 0,
      "note": 62,
      "start": 138.5298,
      "duration": 0.0798,
      "velocity": 106,
      "chip": "ym2612"
    },
    {
      "channel": 1,
      "note": 74,
      "start": 138.5341,
      "duration": 0.0761,
      "velocity": 127,
      "chip": "ym2612"
    },
    {
      "channel": 2,
      "note": 62,
      "start": 138.5382,
      "duration": 0.2548,
      "velocity": 101,
      "chip": "ym2612"
    },
    {
      "channel": 3,
      "note": 50,
      "start": 138.5434,
      "duration": 0.0179,
      "velocity": 117,
      "chip": "ym2612"
    },
    {
      "channel": 0,
      "note": 62,
      "start": 138.6297,
      "duration": 0.08,
      "velocity": 106,
      "chip": "ym2612"
    },
    {
      "channel": 0,
      "note": 71,
      "start": 138.7144,
      "duration": 0.0811,
      "velocity": 127,
      "chip": "ym2612"
    },
    {
      "channel": 1,
      "note": 62,
      "start": 138.7187,
      "duration": 0.0758,
      "velocity": 106,
      "chip": "ym2612"
    },
    {
      "channel": 3,
      "note": 50,
      "start": 138.7231,
      "duration": 0.0706,
      "velocity": 117,
      "chip": "ym2612"
    },
    {
      "channel": 0,
      "note": 50,
      "start": 138.8133,
      "duration": 0.0793,
      "velocity": 117,
      "chip": "ym2612"
    },
    {
      "channel": 1,
      "note": 62,
      "start": 138.8174,
      "duration": 0.4588,
      "velocity": 101,
      "chip": "ym2612"
    },
    {
      "channel": 2,
      "note": 62,
      "start": 138.8216,
      "duration": 0.0719,
      "velocity": 106,
      "chip": "ym2612"
    },
    {
      "channel": 0,
      "note": 62,
      "start": 138.9131,
      "duration": 0.0798,
      "velocity": 106,
      "chip": "ym2612"
    },
    {
      "channel": 2,
      "note": 71,
      "start": 138.9178,
      "duration": 0.0763,
      "velocity": 127,
      "chip": "ym2612"
    },
    {
      "channel": 0,
      "note": 50,
      "start": 139.0133,
      "duration": 0.0794,
      "velocity": 117,
      "chip": "ym2612"
    },
    {
      "channel": 2,
      "note": 62,
      "start": 139.0174,
      "duration": 0.0763,
      "velocity": 106,
      "chip": "ym2612"
    },
    {
      "channel": 0,
      "note": 73,
      "start": 139.0986,
      "duration": 0.078,
      "velocity": 127,
      "chip": "ym2612"
    },
    {
      "channel": 2,
      "note": 62,
      "start": 139.1029,
      "duration": 0.0753,
      "velocity": 106,
      "chip": "ym2612"
    },
    {
      "channel": 3,
      "note": 50,
      "start": 139.1073,
      "duration": 0.0699,
      "velocity": 117,
      "chip": "ym2612"
    },
    {
      "channel": 4,
      "note": 50,
      "start": 139.1126,
      "duration": 0.0142,
      "velocity": 117,
      "chip": "ym2612"
    },
    {
      "channel": 0,
      "note": 62,
      "start": 139.1964,
      "duration": 0.0824,
      "velocity": 106,
      "chip": "ym2612"
    },
    {
      "channel": 2,
      "note": 50,
      "start": 139.2009,
      "duration": 0.0772,
      "velocity": 117,
      "chip": "ym2612"
    },
    {
      "channel": 3,
      "note": 73,
      "start": 139.2056,
      "duration": 0.072,
      "velocity": 127,
      "chip": "ym2612"
    },
    {
      "channel": 0,
      "note": 73,
      "start": 139.2982,
      "duration": 0.0783,
      "velocity": 127,
      "chip": "ym2612"
    },
    {
      "channel": 1,
      "note": 50,
      "start": 139.3027,
      "duration": 0.0744,
      "velocity": 117,
      "chip": "ym2612"
    },
    {
      "channel": 2,
      "note": 60,
      "start": 139.3068,
      "duration": 0.3554,
      "velocity": 101,
      "chip": "ym2612"
    },
    {
      "channel": 3,
      "note": 60,
      "start": 139.3111,
      "duration": 0.3498,
      "velocity": 106,
      "chip": "ym2612"
    },
    {
      "channel": 0,
      "note": 50,
      "start": 139.3815,
      "duration": 0.0778,
      "velocity": 117,
      "chip": "ym2612"
    },
    {
      "channel": 0,
      "note": 50,
      "start": 139.5812,
      "duration": 0.0803,
      "velocity": 117,
      "chip": "ym2612"
    },
    {
      "channel": 0,
      "note": 74,
      "start": 139.6798,
      "duration": 0.0808,
      "velocity": 127,
      "chip": "ym2612"
    },
    {
      "channel": 1,
      "note": 60,
      "start": 139.684,
      "duration": 0.2602,
      "velocity": 101,
      "chip": "ym2612"
    },
    {
      "channel": 2,
      "note": 60,
      "start": 139.6882,
      "duration": 0.0734,
      "velocity": 106,
      "chip": "ym2612"
    },
    {
      "channel": 3,
      "note": 50,
      "start": 139.6934,
      "duration": 0.0167,
      "velocity": 117,
      "chip": "ym2612"
    },
    {
      "channel": 0,
      "note": 60,
      "start": 139.7656,
      "duration": 0.0784,
      "velocity": 106,
      "chip": "ym2612"
    },
    {
      "channel": 0,
      "note": 60,
      "start": 139.8631,
      "duration": 0.0837,
      "velocity": 106,
      "chip": "ym2612"
    },
    {
      "channel": 2,
      "note": 71,
      "start": 139.8678,
      "duration": 0.0782,
      "velocity": 127,
      "chip": "ym2612"
    },
    {
      "channel": 3,
      "note": 50,
      "start": 139.8723,
      "duration": 0.0726,
      "velocity": 117,
      "chip": "ym2612"
    },
    {
      "channel": 0,
      "note": 50,
      "start": 139.9633,
      "duration": 0.0794,
      "velocity": 117,
      "chip": "ym2612"
    },
    {
      "channel": 1,
      "note": 60,
      "start": 139.9676,
      "duration": 0.076,
      "velocity": 106,
      "chip": "ym2612"
    },
    {
      "channel": 2,
      "note": 60,
      "start": 139.9716,
      "duration": 0.2546,
      "velocity": 101,
      "chip": "ym2612"
    },
    {
      "channel": 0,
      "note": 71,
      "start": 140.0483,
      "duration": 0.0795,
      "velocity": 127,
      "chip": "ym2612"
    },
    {
      "channel": 1,
      "note": 60,
      "start": 140.0525,
      "duration": 0.0761,
      "velocity": 106,
      "chip": "ym2612"
    },
    {
      "channel": 0,
      "note": 60,
      "start": 140.1464,
      "duration": 0.0811,
      "velocity": 106,
      "chip": "ym2612"
    },
    {
      "channel": 1,
      "note": 50,
      "start": 140.1508,
      "duration": 0.0761,
      "velocity": 117,
      "chip": "ym2612"
    },
    {
      "channel": 0,
      "note": 60,
      "start": 140.2463,
      "duration": 0.2632,
      "velocity": 101,
      "chip": "ym2612"
    },
    {
      "channel": 1,
      "note": 60,
      "start": 140.2506,
      "duration": 0.0758,
      "velocity": 106,
      "chip": "ym2612"
    },
    {
      "channel": 2,
      "note": 74,
      "start": 140.2548,
      "duration": 0.0721,
      "velocity": 127,
      "chip": "ym2612"
    },
    {
      "channel": 3,
      "note": 50,
      "start": 140.26,
      "duration": 0.0167,
      "velocity": 117,
      "chip": "ym2612"
    },
    {
      "channel": 1,
      "note": 60,
      "start": 140.3464,
      "duration": 0.08,
      "velocity": 106,
      "chip": "ym2612"
    },
    {
      "channel": 1,
      "note": 50,
      "start": 140.4309,
      "duration": 0.0814,
      "velocity": 117,
      "chip": "ym2612"
    },
    {
      "channel": 2,
      "note": 71,
      "start": 140.4356,
      "duration": 0.0761,
      "velocity": 127,
      "chip": "ym2612"
    },
    {
      "channel": 3,
      "note": 60,
      "start": 140.4398,
      "duration": 0.0708,
      "velocity": 106,
      "chip": "ym2612"
    },
    {
      "channel": 0,
      "note": 60,
      "start": 140.5296,
      "duration": 0.2632,
      "velocity": 101,
      "chip": "ym2612"
    },
    {
      "channel": 1,
      "note": 60,
      "start": 140.5338,
      "duration": 0.0758,
      "velocity": 106,
      "chip": "ym2612"
    },
    {
      "channel": 2,
      "note": 50,
      "start": 140.5382,
      "duration": 0.072,
      "velocity": 117,
      "chip": "ym2612"
    },
    {
      "channel": 1,
      "note": 60,
      "start": 140.6298,
      "duration": 0.08,
      "velocity": 106,
      "chip": "ym2612"
    },
    {
      "channel": 2,
      "note": 71,
      "start": 140.6344,
      "duration": 0.0765,
      "velocity": 127,
      "chip": "ym2612"
    },
    {
      "channel": 1,
      "note": 60,
      "start": 140.7151,
      "duration": 0.0791,
      "velocity": 106,
      "chip": "ym2612"
    },
    {
      "channel": 2,
      "note": 50,
      "start": 140.7195,
      "duration": 0.0739,
      "velocity": 117,
      "chip": "ym2612"
    },
    {
      "channel": 0,
      "note": 74,
      "start": 140.8132,
      "duration": 0.0795,
      "velocity": 127,
      "chip": "ym2612"
    },
    {
      "channel": 1,
      "note": 60,
      "start": 140.8173,
      "duration": 0.1755,
      "velocity": 101,
      "chip": "ym2612"
    },
    {
      "channel": 2,
      "note": 60,
      "start": 140.8215,
      "duration": 0.072,
      "velocity": 106,
      "chip": "ym2612"
    },
    {
      "channel": 3,
      "note": 50,
      "start": 140.8267,
      "duration": 0.0167,
      "velocity": 117,
      "chip": "ym2612"
    },
    {
      "channel": 0,
      "note": 60,
      "start": 140.913,
      "duration": 0.0805,
      "velocity": 106,
      "chip": "ym2612"
    },
    {
      "channel": 0,
      "note": 71,
      "start": 141.0137,
      "duration": 0.0795,
      "velocity": 127,
      "chip": "ym2612"
    },
    {
      "channel": 1,
      "note": 50,
      "start": 141.0181,
      "duration": 0.0757,
      "velocity": 117,
      "chip": "ym2612"
    },
    {
      "channel": 2,
      "note": 62,
      "start": 141.0223,
      "duration": 0.356,
      "velocity": 101,
      "chip": "ym2612"
    },
    {
      "channel": 3,
      "note": 62,
      "start": 141.0266,
      "duration": 0.3499,
      "velocity": 106,
      "chip": "ym2612"
    },
    {
      "channel": 0,
      "note": 50,
      "start": 141.0982,
      "duration": 0.0778,
      "velocity": 117,
      "chip": "ym2612"
    },
    {
      "channel": 0,
      "note": 71,
      "start": 141.1969,
      "duration": 0.0796,
      "velocity": 127,
      "chip": "ym2612"
    },
    {
      "channel": 0,
      "note": 50,
      "start": 141.2966,
      "duration": 0.0807,
      "velocity": 117,
      "chip": "ym2612"
    },
    {
      "channel": 0,
      "note": 65,
      "start": 141.3824,
      "duration": 0.2603,
      "velocity": 101,
      "chip": "ym2612"
    },
    {
      "channel": 1,
      "note": 65,
      "start": 141.3868,
      "duration": 0.0729,
      "velocity": 106,
      "chip": "ym2612"
    },
    {
      "channel": 2,
      "note": 74,
      "start": 141.391,
      "duration": 0.0693,
      "velocity": 127,
      "chip": "ym2612"
    },
    {
      "channel": 3,
      "note": 50,
      "start": 141.3963,
      "duration": 0.0151,
      "velocity": 117,
      "chip": "ym2612"
    },
    {
      "channel": 1,
      "note": 65,
      "start": 141.4797,
      "duration": 0.0799,
      "velocity": 106,
      "chip": "ym2612"
    },
    {
      "channel": 1,
      "note": 71,
      "start": 141.5803,
      "duration": 0.0811,
      "velocity": 127,
      "chip": "ym2612"
    },
    {
      "channel": 2,
      "note": 65,
      "start": 141.5845,
      "duration": 0.0758,
      "velocity": 106,
      "chip": "ym2612"
    },
    {
      "channel": 3,
      "note": 50,
      "start": 141.5889,
      "duration": 0.0705,
      "velocity": 117,
      "chip": "ym2612"
    },
    {
      "channel": 0,
      "note": 62,
      "start": 141.6809,
      "duration": 0.262,
      "velocity": 101,
      "chip": "ym2612"
    },
    {
      "channel": 1,
      "note": 62,
      "start": 141.6851,
      "duration": 0.0747,
      "velocity": 106,
      "chip": "ym2612"
    },
    {
      "channel": 2,
      "note": 50,
      "start": 141.6894,
      "duration": 0.0709,
      "velocity": 117,
      "chip": "ym2612"
    },
    {
      "channel": 1,
      "note": 62,
      "start": 141.7646,
      "duration": 0.0783,
      "velocity": 106,
      "chip": "ym2612"
    },
    {
      "channel": 2,
      "note": 71,
      "start": 141.7693,
      "duration": 0.0748,
      "velocity": 127,
      "chip": "ym2612"
    },
    {
      "channel": 1,
      "note": 50,
      "start": 141.8645,
      "duration": 0.0797,
      "velocity": 117,
      "chip": "ym2612"
    },
    {
      "channel": 2,
      "note": 62,
      "start": 141.8686,
      "duration": 0.0751,
      "velocity": 106,
      "chip": "ym2612"
    },
    {
      "channel": 0,
      "note": 74,
      "start": 141.9644,
      "duration": 0.0795,
      "velocity": 127,
      "chip": "ym2612"
    },
    {
      "channel": 1,
      "note": 62,
      "start": 141.9685,
      "duration": 0.259,
      "velocity": 101,
      "chip": "ym2612"
    },
    {
      "channel": 2,
      "note": 62,
      "start": 141.9728,
      "duration": 0.072,
      "velocity": 106,
      "chip": "ym2612"
    },
    {
      "channel": 3,
      "note": 50,
      "start": 141.978,
      "duration": 0.0155,
      "velocity": 117,
      "chip": "ym2612"
    },
    {
      "channel": 0,
      "note": 62,
      "start": 142.0489,
      "duration": 0.0773,
      "velocity": 106,
      "chip": "ym2612"
    },
    {
      "channel": 0,
      "note": 71,
      "start": 142.1482,
      "duration": 0.0819,
      "velocity": 127,
      "chip": "ym2612"
    },
    {
      "channel": 2,
      "note": 50,
      "start": 142.1526,
      "duration": 0.0765,
      "velocity": 117,
      "chip": "ym2612"
    },
    {
      "channel": 3,
      "note": 62,
      "start": 142.1568,
      "duration": 0.0717,
      "velocity": 106,
      "chip": "ym2612"
    },
    {
      "channel": 0,
      "note": 50,
      "start": 142.2466,
      "duration": 0.0806,
      "velocity": 117,
      "chip": "ym2612"
    },
    {
      "channel": 1,
      "note": 65,
      "start": 142.2507,
      "duration": 0.26,
      "velocity": 101,
      "chip": "ym2612"
    },
    {
      "channel": 2,
      "note": 65,
      "start": 142.2549,
      "duration": 0.0732,
      "velocity": 106,
      "chip": "ym2612"
    },
    {
      "channel": 0,
      "note": 71,
      "start": 142.3469,
      "duration": 0.0797,
      "velocity": 127,
      "chip": "ym2612"
    },
    {
      "channel": 2,
      "note": 65,
      "start": 142.3511,
      "duration": 0.0765,
      "velocity": 106,
      "chip": "ym2612"
    },
    {
      "channel": 0,
      "note": 50,
      "start": 142.432,
      "duration": 0.0802,
      "velocity": 117,
      "chip": "ym2612"
    },
    {
      "channel": 2,
      "note": 65,
      "start": 142.4361,
      "duration": 0.0755,
      "velocity": 106,
      "chip": "ym2612"
    },
    {
      "channel": 0,
      "note": 74,
      "start": 142.5298,
      "duration": 0.0795,
      "velocity": 127,
      "chip": "ym2612"
    },
    {
      "channel": 1,
      "note": 62,
      "start": 142.534,
      "duration": 0.1756,
      "velocity": 101,
      "chip": "ym2612"
    },
    {
      "channel": 2,
      "note": 62,
      "start": 142.5382,
      "duration": 0.072,
      "velocity": 106,
      "chip": "ym2612"
    },
    {
      "channel": 3,
      "note": 50,
      "start": 142.5434,
      "duration": 0.0167,
      "velocity": 117,
      "chip": "ym2612"
    },
    {
      "channel": 0,
      "note": 62,
      "start": 142.6297,
      "duration": 0.0809,
      "velocity": 106,
      "chip": "ym2612"
    },
    {
      "channel": 0,
      "note": 71,
      "start": 142.7154,
      "duration": 0.0778,
      "velocity": 127,
      "chip": "ym2612"
    },
    {
      "channel": 1,
      "note": 50,
      "start": 142.7199,
      "duration": 0.0738,
      "velocity": 117,
      "chip": "ym2612"
    },
    {
      "channel": 2,
      "note": 60,
      "start": 142.7241,
      "duration": 0.353,
      "velocity": 106,
      "chip": "ym2612"
    },
    {
      "channel": 3,
      "note": 60,
      "start": 142.7283,
      "duration": 0.3479,
      "velocity": 101,
      "chip": "ym2612"
    },
    {
      "channel": 0,
      "note": 50,
      "start": 142.8133,
      "duration": 0.0793,
      "velocity": 117,
      "chip": "ym2612"
    },
    {
      "channel": 0,
      "note": 50,
      "start": 143.0133,
      "duration": 0.0793,
      "velocity": 117,
      "chip": "ym2612"
    },
    {
      "channel": 0,
      "note": 74,
      "start": 143.097,
      "duration": 0.079,
      "velocity": 127,
      "chip": "ym2612"
    },
    {
      "channel": 1,
      "note": 60,
      "start": 143.1013,
      "duration": 0.0755,
      "velocity": 106,
      "chip": "ym2612"
    },
    {
      "channel": 2,
      "note": 60,
      "start": 143.1054,
      "duration": 0.2541,
      "velocity": 101,
      "chip": "ym2612"
    },
    {
      "channel": 3,
      "note": 50,
      "start": 143.1106,
      "duration": 0.0162,
      "velocity": 117,
      "chip": "ym2612"
    },
    {
      "channel": 0,
      "note": 60,
      "start": 143.1964,
      "duration": 0.0798,
      "velocity": 106,
      "chip": "ym2612"
    },
    {
      "channel": 0,
      "note": 71,
      "start": 143.2969,
      "duration": 0.0816,
      "velocity": 127,
      "chip": "ym2612"
    },
    {
      "channel": 1,
      "note": 50,
      "start": 143.3014,
      "duration": 0.0759,
      "velocity": 117,
      "chip": "ym2612"
    },
    {
      "channel": 3,
      "note": 60,
      "start": 143.3056,
      "duration": 0.0709,
      "velocity": 106,
      "chip": "ym2612"
    },
    {
      "channel": 0,
      "note": 50,
      "start": 143.383,
      "duration": 0.0763,
      "velocity": 117,
      "chip": "ym2612"
    },
    {
      "channel": 1,
      "note": 60,
      "start": 143.3871,
      "duration": 0.2557,
      "velocity": 101,
      "chip": "ym2612"
    },
    {
      "channel": 2,
      "note": 60,
      "start": 143.3912,
      "duration": 0.0689,
      "velocity": 106,
      "chip": "ym2612"
    },
    {
      "channel": 0,
      "note": 71,
      "start": 143.4802,
      "duration": 0.0796,
      "velocity": 127,
      "chip": "ym2612"
    },
    {
      "channel": 2,
      "note": 60,
      "start": 143.4844,
      "duration": 0.0763,
      "velocity": 106,
      "chip": "ym2612"
    },
    {
      "channel": 0,
      "note": 60,
      "start": 143.5798,
      "duration": 0.0804,
      "velocity": 106,
      "chip": "ym2612"
    },
    {
      "channel": 2,
      "note": 50,
      "start": 143.5841,
      "duration": 0.0753,
      "velocity": 117,
      "chip": "ym2612"
    },
    {
      "channel": 0,
      "note": 74,
      "start": 143.6798,
      "duration": 0.0796,
      "velocity": 127,
      "chip": "ym2612"
    },
    {
      "channel": 1,
      "note": 60,
      "start": 143.684,
      "duration": 0.259,
      "velocity": 101,
      "chip": "ym2612"
    },
    {
      "channel": 2,
      "note": 60,
      "start": 143.6882,
      "duration": 0.0722,
      "velocity": 106,
      "chip": "ym2612"
    },
    {
      "channel": 3,
      "note": 50,
      "start": 143.6934,
      "duration": 0.0167,
      "velocity": 117,
      "chip": "ym2612"
    },
    {
      "channel": 0,
      "note": 60,
      "start": 143.7644,
      "duration": 0.0784,
      "velocity": 106,
      "chip": "ym2612"
    },
    {
      "channel": 0,
      "note": 71,
      "start": 143.8636,
      "duration": 0.082,
      "velocity": 127,
      "chip": "ym2612"
    },
    {
      "channel": 2,
      "note": 50,
      "start": 143.8681,
      "duration": 0.0765,
      "velocity": 117,
      "chip": "ym2612"
    },
    {
      "channel": 3,
      "note": 60,
      "start": 143.8723,
      "duration": 0.0717,
      "velocity": 106,
      "chip": "ym2612"
    },
    {
      "channel": 0,
      "note": 60,
      "start": 143.963,
      "duration": 0.2632,
      "velocity": 101,
      "chip": "ym2612"
    },
    {
      "channel": 1,
      "note": 60,
      "start": 143.9672,
      "duration": 0.0759,
      "velocity": 106,
      "chip": "ym2612"
    },
    {
      "channel": 2,
      "note": 50,
      "start": 143.9716,
      "duration": 0.0722,
      "velocity": 117,
      "chip": "ym2612"
    },
    {
      "channel": 1,
      "note": 60,
      "start": 144.048,
      "duration": 0.0783,
      "velocity": 106,
      "chip": "ym2612"
    },
    {
      "channel": 2,
      "note": 71,
      "start": 144.0526,
      "duration": 0.0748,
      "velocity": 127,
      "chip": "ym2612"
    },
    {
      "channel": 1,
      "note": 50,
      "start": 144.1466,
      "duration": 0.0809,
      "velocity": 117,
      "chip": "ym2612"
    },
    {
      "channel": 2,
      "note": 60,
      "start": 144.1508,
      "duration": 0.0762,
      "velocity": 106,
      "chip": "ym2612"
    },
    {
      "channel": 0,
      "note": 60,
      "start": 144.2475,
      "duration": 0.18,
      "velocity": 101,
      "chip": "ym2612"
    },
    {
      "channel": 1,
      "note": 60,
      "start": 144.2517,
      "duration": 0.0746,
      "velocity": 106,
      "chip": "ym2612"
    },
    {
      "channel": 2,
      "note": 74,
      "start": 144.2559,
      "duration": 0.071,
      "velocity": 127,
      "chip": "ym2612"
    },
    {
      "channel": 3,
      "note": 50,
      "start": 144.2612,
      "duration": 0.0156,
      "velocity": 117,
      "chip": "ym2612"
    },
    {
      "channel": 1,
      "note": 60,
      "start": 144.3476,
      "duration": 0.0808,
      "velocity": 106,
      "chip": "ym2612"
    },
    {
      "channel": 0,
      "note": 71,
      "start": 144.4333,
      "duration": 0.0766,
      "velocity": 127,
      "chip": "ym2612"
    },
    {
      "channel": 1,
      "note": 62,
      "start": 144.4374,
      "duration": 0.358,
      "velocity": 101,
      "chip": "ym2612"
    },
    {
      "channel": 2,
      "note": 62,
      "start": 144.4417,
      "duration": 0.3525,
      "velocity": 106,
      "chip": "ym2612"
    },
    {
      "channel": 3,
      "note": 50,
      "start": 144.4462,
      "duration": 0.0643,
      "velocity": 117,
      "chip": "ym2612"
    },
    {
      "channel": 0,
      "note": 50,
      "start": 144.5312,
      "duration": 0.0793,
      "velocity": 117,
      "chip": "ym2612"
    },
    {
      "channel": 0,
      "note": 50,
      "start": 144.7145,
      "duration": 0.0803,
      "velocity": 117,
      "chip": "ym2612"
    },
    {
      "channel": 0,
      "note": 74,
      "start": 144.8132,
      "duration": 0.0807,
      "velocity": 127,
      "chip": "ym2612"
    },
    {
      "channel": 1,
      "note": 67,
      "start": 144.8174,
      "duration": 0.0773,
      "velocity": 106,
      "chip": "ym2612"
    },
    {
      "channel": 2,
      "note": 67,
      "start": 144.8215,
      "duration": 0.2559,
      "velocity": 101,
      "chip": "ym2612"
    },
    {
      "channel": 3,
      "note": 50,
      "start": 144.8267,
      "duration": 0.0167,
      "velocity": 117,
      "chip": "ym2612"
    },
    {
      "channel": 0,
      "note": 67,
      "start": 144.913,
      "duration": 0.0798,
      "velocity": 106,
      "chip": "ym2612"
    },
    {
      "channel": 0,
      "note": 71,
      "start": 145.0136,
      "duration": 0.0816,
      "velocity": 127,
      "chip": "ym2612"
    },
    {
      "channel": 1,
      "note": 67,
      "start": 145.0179,
      "duration": 0.076,
      "velocity": 106,
      "chip": "ym2612"
    },
    {
      "channel": 3,
      "note": 50,
      "start": 145.0223,
      "duration": 0.0705,
      "velocity": 117,
      "chip": "ym2612"
    },
    {
      "channel": 0,
      "note": 62,
      "start": 145.0992,
      "duration": 0.2602,
      "velocity": 101,
      "chip": "ym2612"
    },
    {
      "channel": 1,
      "note": 50,
      "start": 145.1037,
      "duration": 0.0723,
      "velocity": 117,
      "chip": "ym2612"
    },
    {
      "channel": 2,
      "note": 62,
      "start": 145.1078,
      "duration": 0.069,
      "velocity": 106,
      "chip": "ym2612"
    },
    {
      "channel": 1,
      "note": 71,
      "start": 145.1969,
      "duration": 0.0797,
      "velocity": 127,
      "chip": "ym2612"
    },
    {
      "channel": 2,
      "note": 62,
      "start": 145.2011,
      "duration": 0.0763,
      "velocity": 106,
      "chip": "ym2612"
    },
    {
      "channel": 1,
      "note": 62,
      "start": 145.2964,
      "duration": 0.0807,
      "velocity": 106,
      "chip": "ym2612"
    },
    {
      "channel": 2,
      "note": 50,
      "start": 145.3008,
      "duration": 0.0754,
      "velocity": 117,
      "chip": "ym2612"
    },
    {
      "channel": 0,
      "note": 74,
      "start": 145.3815,
      "duration": 0.0778,
      "velocity": 127,
      "chip": "ym2612"
    },
    {
      "channel": 1,
      "note": 60,
      "start": 145.3856,
      "duration": 0.2571,
      "velocity": 101,
      "chip": "ym2612"
    },
    {
      "channel": 2,
      "note": 60,
      "start": 145.3898,
      "duration": 0.0704,
      "velocity": 106,
      "chip": "ym2612"
    },
    {
      "channel": 3,
      "note": 50,
      "start": 145.395,
      "duration": 0.0151,
      "velocity": 117,
      "chip": "ym2612"
    },
    {
      "channel": 0,
      "note": 60,
      "start": 145.4797,
      "duration": 0.0798,
      "velocity": 106,
      "chip": "ym2612"
    },
    {
      "channel": 0,
      "note": 71,
      "start": 145.5803,
      "duration": 0.0811,
      "velocity": 127,
      "chip": "ym2612"
    },
    {
      "channel": 2,
      "note": 60,
      "start": 145.5845,
      "duration": 0.0758,
      "velocity": 106,
      "chip": "ym2612"
    },
    {
      "channel": 3,
      "note": 50,
      "start": 145.5889,
      "duration": 0.0705,
      "velocity": 117,
      "chip": "ym2612"
    },
    {
      "channel": 0,
      "note": 62,
      "start": 145.6796,
      "duration": 0.2632,
      "velocity": 101,
      "chip": "ym2612"
    },
    {
      "channel": 1,
      "note": 62,
      "start": 145.6838,
      "duration": 0.0759,
      "velocity": 106,
      "chip": "ym2612"
    },
    {
      "channel": 2,
      "note": 50,
      "start": 145.6882,
      "duration": 0.0722,
      "velocity": 117,
      "chip": "ym2612"
    },
    {
      "channel": 1,
      "note": 62,
      "start": 145.7646,
      "duration": 0.0784,
      "velocity": 106,
      "chip": "ym2612"
    },
    {
      "channel": 2,
      "note": 71,
      "start": 145.7693,
      "duration": 0.0748,
      "velocity": 127,
      "chip": "ym2612"
    },
    {
      "channel": 1,
      "note": 62,
      "start": 145.8631,
      "duration": 0.0811,
      "velocity": 106,
      "chip": "ym2612"
    },
    {
      "channel": 2,
      "note": 50,
      "start": 145.8674,
      "duration": 0.076,
      "velocity": 117,
      "chip": "ym2612"
    },
    {
      "channel": 0,
      "note": 74,
      "start": 145.9632,
      "duration": 0.0796,
      "velocity": 127,
      "chip": "ym2612"
    },
    {
      "channel": 1,
      "note": 60,
      "start": 145.9674,
      "duration": 0.0761,
      "velocity": 106,
      "chip": "ym2612"
    },
    {
      "channel": 2,
      "note": 60,
      "start": 145.9715,
      "duration": 0.1714,
      "velocity": 101,
      "chip": "ym2612"
    },
    {
      "channel": 3,
      "note": 50,
      "start": 145.9767,
      "duration": 0.018,
      "velocity": 117,
      "chip": "ym2612"
    },
    {
      "channel": 0,
      "note": 60,
      "start": 146.0477,
      "duration": 0.0785,
      "velocity": 106,
      "chip": "ym2612"
    },
    {
      "channel": 0,
      "note": 50,
      "start": 146.1475,
      "duration": 0.0785,
      "velocity": 117,
      "chip": "ym2612"
    },
    {
      "channel": 1,
      "note": 71,
      "start": 146.1522,
      "duration": 0.0748,
      "velocity": 127,
      "chip": "ym2612"
    },
    {
      "channel": 2,
      "note": 58,
      "start": 146.1564,
      "duration": 0.3546,
      "velocity": 106,
      "chip": "ym2612"
    },
    {
      "channel": 3,
      "note": 58,
      "start": 146.1607,
      "duration": 0.3489,
      "velocity": 101,
      "chip": "ym2612"
    },
    {
      "channel": 0,
      "note": 50,
      "start": 146.2466,
      "duration": 0.0793,
      "velocity": 117,
      "chip": "ym2612"
    },
    {
      "channel": 0,
      "note": 50,
      "start": 146.43,
      "duration": 0.0802,
      "velocity": 117,
      "chip": "ym2612"
    },
    {
      "channel": 0,
      "note": 58,
      "start": 146.5296,
      "duration": 0.2632,
      "velocity": 101,
      "chip": "ym2612"
    },
    {
      "channel": 1,
      "note": 58,
      "start": 146.534,
      "duration": 0.0756,
      "velocity": 106,
      "chip": "ym2612"
    },
    {
      "channel": 2,
      "note": 74,
      "start": 146.5382,
      "duration": 0.0721,
      "velocity": 127,
      "chip": "ym2612"
    },
    {
      "channel": 3,
      "note": 50,
      "start": 146.5434,
      "duration": 0.0167,
      "velocity": 117,
      "chip": "ym2612"
    },
    {
      "channel": 1,
      "note": 58,
      "start": 146.6309,
      "duration": 0.0788,
      "velocity": 106,
      "chip": "ym2612"
    },
    {
      "channel": 1,
      "note": 71,
      "start": 146.7145,
      "duration": 0.081,
      "velocity": 127,
      "chip": "ym2612"
    },
    {
      "channel": 2,
      "note": 58,
      "start": 146.7187,
      "duration": 0.0758,
      "velocity": 106,
      "chip": "ym2612"
    },
    {
      "channel": 3,
      "note": 50,
      "start": 146.7232,
      "duration": 0.0704,
      "velocity": 117,
      "chip": "ym2612"
    },
    {
      "channel": 0,
      "note": 50,
      "start": 146.8145,
      "duration": 0.0781,
      "velocity": 117,
      "chip": "ym2612"
    },
    {
      "channel": 1,
      "note": 58,
      "start": 146.8186,
      "duration": 0.2575,
      "velocity": 101,
      "chip": "ym2612"
    },
    {
      "channel": 2,
      "note": 58,
      "start": 146.8228,
      "duration": 0.0707,
      "velocity": 106,
      "chip": "ym2612"
    },
    {
      "channel": 0,
      "note": 58,
      "start": 146.9143,
      "duration": 0.0798,
      "velocity": 106,
      "chip": "ym2612"
    },
    {
      "channel": 2,
      "note": 71,
      "start": 146.919,
      "duration": 0.0763,
      "velocity": 127,
      "chip": "ym2612"
    },
    {
      "channel": 0,
      "note": 50,
      "start": 147.0133,
      "duration": 0.0818,
      "velocity": 117,
      "chip": "ym2612"
    },
    {
      "channel": 2,
      "note": 58,
      "start": 147.0175,
      "duration": 0.0768,
      "velocity": 106,
      "chip": "ym2612"
    },
    {
      "channel": 0,
      "note": 58,
      "start": 147.0993,
      "duration": 0.2613,
      "velocity": 101,
      "chip": "ym2612"
    },
    {
      "channel": 1,
      "note": 58,
      "start": 147.1036,
      "duration": 0.0739,
      "velocity": 106,
      "chip": "ym2612"
    },
    {
      "channel": 2,
      "note": 74,
      "start": 147.1078,
      "duration": 0.0702,
      "velocity": 127,
      "chip": "ym2612"
    },
    {
      "channel": 3,
      "note": 50,
      "start": 147.113,
      "duration": 0.0137,
      "velocity": 117,
      "chip": "ym2612"
    },
    {
      "channel": 1,
      "note": 58,
      "start": 147.1964,
      "duration": 0.0811,
      "velocity": 106,
      "chip": "ym2612"
    },
    {
      "channel": 1,
      "note": 71,
      "start": 147.2969,
      "duration": 0.0816,
      "velocity": 127,
      "chip": "ym2612"
    },
    {
      "channel": 2,
      "note": 50,
      "start": 147.3014,
      "duration": 0.0759,
      "velocity": 117,
      "chip": "ym2612"
    },
    {
      "channel": 3,
      "note": 58,
      "start": 147.3056,
      "duration": 0.0709,
      "velocity": 106,
      "chip": "ym2612"
    },
    {
      "channel": 0,
      "note": 50,
      "start": 147.3831,
      "duration": 0.0775,
      "velocity": 117,
      "chip": "ym2612"
    },
    {
      "channel": 1,
      "note": 58,
      "start": 147.3873,
      "duration": 0.074,
      "velocity": 106,
      "chip": "ym2612"
    },
    {
      "channel": 2,
      "note": 58,
      "start": 147.3914,
      "duration": 0.2527,
      "velocity": 101,
      "chip": "ym2612"
    },
    {
      "channel": 0,
      "note": 58,
      "start": 147.4798,
      "duration": 0.0798,
      "velocity": 106,
      "chip": "ym2612"
    },
    {
      "channel": 1,
      "note": 71,
      "start": 147.4844,
      "duration": 0.0762,
      "velocity": 127,
      "chip": "ym2612"
    },
    {
      "channel": 0,
      "note": 50,
      "start": 147.58,
      "duration": 0.0802,
      "velocity": 117,
      "chip": "ym2612"
    },
    {
      "channel": 1,
      "note": 58,
      "start": 147.5842,
      "duration": 0.0754,
      "velocity": 106,
      "chip": "ym2612"
    },
    {
      "channel": 0,
      "note": 58,
      "start": 147.6796,
      "duration": 0.1798,
      "velocity": 101,
      "chip": "ym2612"
    },
    {
      "channel": 1,
      "note": 58,
      "start": 147.684,
      "duration": 0.0757,
      "velocity": 106,
      "chip": "ym2612"
    },
    {
      "channel": 2,
      "note": 74,
      "start": 147.6882,
      "duration": 0.0722,
      "velocity": 127,
      "chip": "ym2612"
    },
    {
      "channel": 3,
      "note": 50,
      "start": 147.6934,
      "duration": 0.0167,
      "velocity": 117,
      "chip": "ym2612"
    },
    {
      "channel": 1,
      "note": 58,
      "start": 147.7645,
      "duration": 0.0784,
      "velocity": 106,
      "chip": "ym2612"
    },
    {
      "channel": 0,
      "note": 60,
      "start": 147.8637,
      "duration": 0.3625,
      "velocity": 101,
      "chip": "ym2612"
    },
    {
      "channel": 1,
      "note": 50,
      "start": 147.8682,
      "duration": 0.0745,
      "velocity": 117,
      "chip": "ym2612"
    },
    {
      "channel": 2,
      "note": 60,
      "start": 147.8724,
      "duration": 0.3551,
      "velocity": 106,
      "chip": "ym2612"
    },
    {
      "channel": 3,
      "note": 71,
      "start": 147.8772,
      "duration": 0.0666,
      "velocity": 127,
      "chip": "ym2612"
    },
    {
      "channel": 1,
      "note": 50,
      "start": 147.9633,
      "duration": 0.0794,
      "velocity": 117,
      "chip": "ym2612"
    },
    {
      "channel": 1,
      "note": 50,
      "start": 148.1466,
      "duration": 0.0801,
      "velocity": 117,
      "chip": "ym2612"
    },
    {
      "channel": 0,
      "note": 74,
      "start": 148.2465,
      "duration": 0.0795,
      "velocity": 127,
      "chip": "ym2612"
    },
    {
      "channel": 1,
      "note": 60,
      "start": 148.2508,
      "duration": 0.076,
      "velocity": 106,
      "chip": "ym2612"
    },
    {
      "channel": 2,
      "note": 60,
      "start": 148.2548,
      "duration": 0.2548,
      "velocity": 101,
      "chip": "ym2612"
    },
    {
      "channel": 3,
      "note": 50,
      "start": 148.26,
      "duration": 0.0179,
      "velocity": 117,
      "chip": "ym2612"
    },
    {
      "channel": 0,
      "note": 60,
      "start": 148.3464,
      "duration": 0.08,
      "velocity": 106,
      "chip": "ym2612"
    },
    {
      "channel": 0,
      "note": 71,
      "start": 148.4311,
      "duration": 0.0812,
      "velocity": 127,
      "chip": "ym2612"
    },
    {
      "channel": 1,
      "note": 60,
      "start": 148.4354,
      "duration": 0.0758,
      "velocity": 106,
      "chip": "ym2612"
    },
    {
      "channel": 3,
      "note": 50,
      "start": 148.4398,
      "duration": 0.0706,
      "velocity": 117,
      "chip": "ym2612"
    },
    {
      "channel": 0,
      "note": 50,
      "start": 148.53,
      "duration": 0.0793,
      "velocity": 117,
      "chip": "ym2612"
    },
    {
      "channel": 1,
      "note": 60,
      "start": 148.534,
      "duration": 0.2588,
      "velocity": 101,
      "chip": "ym2612"
    },
    {
      "channel": 2,
      "note": 60,
      "start": 148.5382,
      "duration": 0.0719,
      "velocity": 106,
      "chip": "ym2612"
    },
    {
      "channel": 0,
      "note": 60,
      "start": 148.6298,
      "duration": 0.0799,
      "velocity": 106,
      "chip": "ym2612"
    },
    {
      "channel": 2,
      "note": 71,
      "start": 148.6344,
      "duration": 0.0765,
      "velocity": 127,
      "chip": "ym2612"
    },
    {
      "channel": 0,
      "note": 60,
      "start": 148.7151,
      "duration": 0.0791,
      "velocity": 106,
      "chip": "ym2612"
    },
    {
      "channel": 2,
      "note": 50,
      "start": 148.7195,
      "duration": 0.074,
      "velocity": 117,
      "chip": "ym2612"
    },
    {
      "channel": 0,
      "note": 60,
      "start": 148.8132,
      "duration": 0.0798,
      "velocity": 106,
      "chip": "ym2612"
    },
    {
      "channel": 1,
      "note": 74,
      "start": 148.8174,
      "duration": 0.076,
      "velocity": 127,
      "chip": "ym2612"
    },
    {
      "channel": 2,
      "note": 60,
      "start": 148.8215,
      "duration": 0.2546,
      "velocity": 101,
      "chip": "ym2612"
    },
    {
      "channel": 3,
      "note": 50,
      "start": 148.8268,
      "duration": 0.0167,
      "velocity": 117,
      "chip": "ym2612"
    },
    {
      "channel": 0,
      "note": 60,
      "start": 148.913,
      "duration": 0.0798,
      "velocity": 106,
      "chip": "ym2612"
    },
    {
      "channel": 0,
      "note": 71,
      "start": 149.0148,
      "duration": 0.0804,
      "velocity": 127,
      "chip": "ym2612"
    },
    {
      "channel": 1,
      "note": 50,
      "start": 149.0193,
      "duration": 0.0747,
      "velocity": 117,
      "chip": "ym2612"
    },
    {
      "channel": 3,
      "note": 60,
      "start": 149.0235,
      "duration": 0.0697,
      "velocity": 106,
      "chip": "ym2612"
    },
    {
      "channel": 0,
      "note": 60,
      "start": 149.0993,
      "duration": 0.2601,
      "velocity": 101,
      "chip": "ym2612"
    },
    {
      "channel": 1,
      "note": 60,
      "start": 149.1036,
      "duration": 0.0727,
      "velocity": 106,
      "chip": "ym2612"
    },
    {
      "channel": 2,
      "note": 50,
      "start": 149.108,
      "duration": 0.0689,
      "velocity": 117,
      "chip": "ym2612"
    },
    {
      "channel": 1,
      "note": 71,
      "start": 149.1982,
      "duration": 0.0784,
      "velocity": 127,
      "chip": "ym2612"
    },
    {
      "channel": 2,
      "note": 60,
      "start": 149.2023,
      "duration": 0.0751,
      "velocity": 106,
      "chip": "ym2612"
    },
    {
      "channel": 1,
      "note": 60,
      "start": 149.2976,
      "duration": 0.0806,
      "velocity": 106,
      "chip": "ym2612"
    },
    {
      "channel": 2,
      "note": 50,
      "start": 149.302,
      "duration": 0.0752,
      "velocity": 117,
      "chip": "ym2612"
    },
    {
      "channel": 0,
      "note": 74,
      "start": 149.3826,
      "duration": 0.0767,
      "velocity": 127,
      "chip": "ym2612"
    },
    {
      "channel": 1,
      "note": 60,
      "start": 149.3868,
      "duration": 0.1739,
      "velocity": 101,
      "chip": "ym2612"
    },
    {
      "channel": 2,
      "note": 60,
      "start": 149.391,
      "duration": 0.0692,
      "velocity": 106,
      "chip": "ym2612"
    },
    {
      "channel": 3,
      "note": 50,
      "start": 149.3962,
      "duration": 0.0139,
      "velocity": 117,
      "chip": "ym2612"
    },
    {
      "channel": 0,
      "note": 60,
      "start": 149.4809,
      "duration": 0.0805,
      "velocity": 106,
      "chip": "ym2612"
    },
    {
      "channel": 0,
      "note": 50,
      "start": 149.58,
      "duration": 0.0805,
      "velocity": 117,
      "chip": "ym2612"
    },
    {
      "channel": 1,
      "note": 62,
      "start": 149.5843,
      "duration": 0.36,
      "velocity": 106,
      "chip": "ym2612"
    },
    {
      "channel": 2,
      "note": 62,
      "start": 149.5884,
      "duration": 0.3546,
      "velocity": 101,
      "chip": "ym2612"
    },
    {
      "channel": 3,
      "note": 71,
      "start": 149.5933,
      "duration": 0.0684,
      "velocity": 127,
      "chip": "ym2612"
    },
    {
      "channel": 0,
      "note": 50,
      "start": 149.68,
      "duration": 0.0793,
      "velocity": 117,
      "chip": "ym2612"
    },
    {
      "channel": 0,
      "note": 50,
      "start": 149.8633,
      "duration": 0.0802,
      "velocity": 117,
      "chip": "ym2612"
    },
    {
      "channel": 0,
      "note": 62,
      "start": 149.963,
      "duration": 0.2632,
      "velocity": 101,
      "chip": "ym2612"
    },
    {
      "channel": 1,
      "note": 62,
      "start": 149.9672,
      "duration": 0.0758,
      "velocity": 106,
      "chip": "ym2612"
    },
    {
      "channel": 2,
      "note": 74,
      "start": 149.9715,
      "duration": 0.0722,
      "velocity": 127,
      "chip": "ym2612"
    },
    {
      "channel": 3,
      "note": 50,
      "start": 149.9767,
      "duration": 0.0167,
      "velocity": 117,
      "chip": "ym2612"
    },
    {
      "channel": 1,
      "note": 62,
      "start": 150.0478,
      "duration": 0.0784,
      "velocity": 106,
      "chip": "ym2612"
    },
    {
      "channel": 1,
      "note": 71,
      "start": 150.147,
      "duration": 0.0819,
      "velocity": 127,
      "chip": "ym2612"
    },
    {
      "channel": 2,
      "note": 50,
      "start": 150.1514,
      "duration": 0.0765,
      "velocity": 117,
      "chip": "ym2612"
    },
    {
      "channel": 3,
      "note": 62,
      "start": 150.1556,
      "duration": 0.0716,
      "velocity": 106,
      "chip": "ym2612"
    },
    {
      "channel": 0,
      "note": 62,
      "start": 150.2463,
      "duration": 0.2632,
      "velocity": 101,
      "chip": "ym2612"
    },
    {
      "channel": 1,
      "note": 62,
      "start": 150.2505,
      "duration": 0.0758,
      "velocity": 106,
      "chip": "ym2612"
    },
    {
      "channel": 2,
      "note": 50,
      "start": 150.2549,
      "duration": 0.072,
      "velocity": 117,
      "chip": "ym2612"
    },
    {
      "channel": 1,
      "note": 62,
      "start": 150.3464,
      "duration": 0.0799,
      "velocity": 106,
      "chip": "ym2612"
    },
    {
      "channel": 2,
      "note": 71,
      "start": 150.3511,
      "duration": 0.0765,
      "velocity": 127,
      "chip": "ym2612"
    },
    {
      "channel": 1,
      "note": 50,
      "start": 150.4321,
      "duration": 0.0788,
      "velocity": 117,
      "chip": "ym2612"
    },
    {
      "channel": 2,
      "note": 62,
      "start": 150.4362,
      "duration": 0.0742,
      "velocity": 106,
      "chip": "ym2612"
    },
    {
      "channel": 0,
      "note": 74,
      "start": 150.5298,
      "duration": 0.0795,
      "velocity": 127,
      "chip": "ym2612"
    },
    {
      "channel": 1,
      "note": 62,
      "start": 150.5341,
      "duration": 0.076,
      "velocity": 106,
      "chip": "ym2612"
    },
    {
      "channel": 2,
      "note": 62,
      "start": 150.5382,
      "duration": 0.2548,
      "velocity": 101,
      "chip": "ym2612"
    },
    {
      "channel": 3,
      "note": 50,
      "start": 150.5434,
      "duration": 0.0167,
      "velocity": 117,
      "chip": "ym2612"
    },
    {
      "channel": 0,
      "note": 62,
      "start": 150.6297,
      "duration": 0.08,
      "velocity": 106,
      "chip": "ym2612"
    },
    {
      "channel": 0,
      "note": 71,
      "start": 150.7144,
      "duration": 0.0812,
      "velocity": 127,
      "chip": "ym2612"
    },
    {
      "channel": 1,
      "note": 62,
      "start": 150.7186,
      "duration": 0.0759,
      "velocity": 106,
      "chip": "ym2612"
    },
    {
      "channel": 3,
      "note": 50,
      "start": 150.723,
      "duration": 0.0707,
      "velocity": 117,
      "chip": "ym2612"
    },
    {
      "channel": 0,
      "note": 62,
      "start": 150.813,
      "duration": 0.2631,
      "velocity": 101,
      "chip": "ym2612"
    },
    {
      "channel": 1,
      "note": 62,
      "start": 150.8172,
      "duration": 0.0758,
      "velocity": 106,
      "chip": "ym2612"
    },
    {
      "channel": 2,
      "note": 50,
      "start": 150.8216,
      "duration": 0.072,
      "velocity": 117,
      "chip": "ym2612"
    },
    {
      "channel": 1,
      "note": 62,
      "start": 150.9131,
      "duration": 0.0798,
      "velocity": 106,
      "chip": "ym2612"
    },
    {
      "channel": 2,
      "note": 71,
      "start": 150.9178,
      "duration": 0.0763,
      "velocity": 127,
      "chip": "ym2612"
    },
    {
      "channel": 1,
      "note": 50,
      "start": 151.0133,
      "duration": 0.0805,
      "velocity": 117,
      "chip": "ym2612"
    },
    {
      "channel": 2,
      "note": 62,
      "start": 151.0175,
      "duration": 0.0756,
      "velocity": 106,
      "chip": "ym2612"
    },
    {
      "channel": 0,
      "note": 74,
      "start": 151.0982,
      "duration": 0.0778,
      "velocity": 127,
      "chip": "ym2612"
    },
    {
      "channel": 1,
      "note": 62,
      "start": 151.1024,
      "duration": 0.2571,
      "velocity": 101,
      "chip": "ym2612"
    },
    {
      "channel": 2,
      "note": 62,
      "start": 151.1066,
      "duration": 0.0702,
      "velocity": 106,
      "chip": "ym2612"
    },
    {
      "channel": 3,
      "note": 50,
      "start": 151.1118,
      "duration": 0.0161,
      "velocity": 117,
      "chip": "ym2612"
    },
    {
      "channel": 0,
      "note": 62,
      "start": 151.1964,
      "duration": 0.0798,
      "velocity": 106,
      "chip": "ym2612"
    },
    {
      "channel": 0,
      "note": 71,
      "start": 151.2969,
      "duration": 0.0816,
      "velocity": 127,
      "chip": "ym2612"
    },
    {
      "channel": 2,
      "note": 50,
      "start": 151.3014,
      "duration": 0.0759,
      "velocity": 117,
      "chip": "ym2612"
    },
    {
      "channel": 3,
      "note": 62,
      "start": 151.3056,
      "duration": 0.0709,
      "velocity": 106,
      "chip": "ym2612"
    },
    {
      "channel": 0,
      "note": 62,
      "start": 151.3827,
      "duration": 0.26,
      "velocity": 101,
      "chip": "ym2612"
    },
    {
      "channel": 1,
      "note": 62,
      "start": 151.3869,
      "duration": 0.0728,
      "velocity": 106,
      "chip": "ym2612"
    },
    {
      "channel": 2,
      "note": 50,
      "start": 151.3913,
      "duration": 0.069,
      "velocity": 117,
      "chip": "ym2612"
    },
    {
      "channel": 1,
      "note": 71,
      "start": 151.4803,
      "duration": 0.0797,
      "velocity": 127,
      "chip": "ym2612"
    },
    {
      "channel": 2,
      "note": 62,
      "start": 151.4844,
      "duration": 0.0763,
      "velocity": 106,
      "chip": "ym2612"
    },
    {
      "channel": 1,
      "note": 50,
      "start": 151.5811,
      "duration": 0.0791,
      "velocity": 117,
      "chip": "ym2612"
    },
    {
      "channel": 2,
      "note": 62,
      "start": 151.5853,
      "duration": 0.0744,
      "velocity": 106,
      "chip": "ym2612"
    },
    {
      "channel": 0,
      "note": 74,
      "start": 151.681,
      "duration": 0.0796,
      "velocity": 127,
      "chip": "ym2612"
    },
    {
      "channel": 1,
      "note": 62,
      "start": 151.6852,
      "duration": 0.0762,
      "velocity": 106,
      "chip": "ym2612"
    },
    {
      "channel": 2,
      "note": 62,
      "start": 151.6893,
      "duration": 0.2549,
      "velocity": 101,
      "chip": "ym2612"
    },
    {
      "channel": 0,
      "note": 62,
      "start": 151.7656,
      "duration": 0.0773,
      "velocity": 106,
      "chip": "ym2612"
    },
    {
      "channel": 0,
      "note": 62,
      "start": 151.8644,
      "duration": 0.0824,
      "velocity": 106,
      "chip": "ym2612"
    },
    {
      "channel": 1,
      "note": 50,
      "start": 151.8688,
      "duration": 0.0772,
      "velocity": 117,
      "chip": "ym2612"
    },
    {
      "channel": 3,
      "note": 71,
      "start": 151.8735,
      "duration": 0.072,
      "velocity": 127,
      "chip": "ym2612"
    },
    {
      "channel": 0,
      "note": 62,
      "start": 151.963,
      "duration": 0.2644,
      "velocity": 101,
      "chip": "ym2612"
    },
    {
      "channel": 1,
      "note": 62,
      "start": 151.9672,
      "duration": 0.0771,
      "velocity": 106,
      "chip": "ym2612"
    },
    {
      "channel": 2,
      "note": 50,
      "start": 151.9716,
      "duration": 0.0734,
      "velocity": 117,
      "chip": "ym2612"
    },
    {
      "channel": 1,
      "note": 62,
      "start": 152.0492,
      "duration": 0.0783,
      "velocity": 106,
      "chip": "ym2612"
    },
    {
      "channel": 2,
      "note": 71,
      "start": 152.0538,
      "duration": 0.0748,
      "velocity": 127,
      "chip": "ym2612"
    },
    {
      "channel": 1,
      "note": 62,
      "start": 152.1464,
      "duration": 0.0823,
      "velocity": 106,
      "chip": "ym2612"
    },
    {
      "channel": 2,
      "note": 50,
      "start": 152.1508,
      "duration": 0.0771,
      "velocity": 117,
      "chip": "ym2612"
    },
    {
      "channel": 0,
      "note": 50,
      "start": 152.2466,
      "duration": 0.0793,
      "velocity": 117,
      "chip": "ym2612"
    },
    {
      "channel": 1,
      "note": 62,
      "start": 152.2507,
      "duration": 0.2588,
      "velocity": 101,
      "chip": "ym2612"
    },
    {
      "channel": 2,
      "note": 62,
      "start": 152.2549,
      "duration": 0.072,
      "velocity": 106,
      "chip": "ym2612"
    },
    {
      "channel": 0,
      "note": 50,
      "start": 152.3466,
      "duration": 0.0794,
      "velocity": 117,
      "chip": "ym2612"
    },
    {
      "channel": 2,
      "note": 62,
      "start": 152.3508,
      "duration": 0.0761,
      "velocity": 106,
      "chip": "ym2612"
    },
    {
      "channel": 0,
      "note": 50,
      "start": 152.4314,
      "duration": 0.0796,
      "velocity": 117,
      "chip": "ym2612"
    },
    {
      "channel": 2,
      "note": 62,
      "start": 152.4356,
      "duration": 0.0749,
      "velocity": 106,
      "chip": "ym2612"
    },
    {
      "channel": 0,
      "note": 50,
      "start": 152.53,
      "duration": 0.0793,
      "velocity": 117,
      "chip": "ym2612"
    },
    {
      "channel": 1,
      "note": 62,
      "start": 152.5342,
      "duration": 0.2587,
      "velocity": 101,
      "chip": "ym2612"
    },
    {
      "channel": 2,
      "note": 74,
      "start": 152.5389,
      "duration": 0.0725,
      "velocity": 127,
      "chip": "ym2612"
    },
    {
      "channel": 3,
      "note": 62,
      "start": 152.5432,
      "duration": 0.0671,
      "velocity": 106,
      "chip": "ym2612"
    },
    {
      "channel": 0,
      "note": 50,
      "start": 152.63,
      "duration": 0.0793,
      "velocity": 117,
      "chip": "ym2612"
    },
    {
      "channel": 2,
      "note": 62,
      "start": 152.6342,
      "duration": 0.0776,
      "velocity": 106,
      "chip": "ym2612"
    },
    {
      "channel": 3,
      "note": 74,
      "start": 152.6389,
      "duration": 0.0718,
      "velocity": 127,
      "chip": "ym2612"
    },
    {
      "channel": 0,
      "note": 74,
      "start": 152.7165,
      "duration": 0.079,
      "velocity": 127,
      "chip": "ym2612"
    },
    {
      "channel": 2,
      "note": 62,
      "start": 152.7208,
      "duration": 0.0737,
      "velocity": 106,
      "chip": "ym2612"
    },
    {
      "channel": 3,
      "note": 50,
      "start": 152.7253,
      "duration": 0.0683,
      "velocity": 117,
      "chip": "ym2612"
    },
    {
      "channel": 0,
      "note": 62,
      "start": 152.813,
      "duration": 0.2464,
      "velocity": 101,
      "chip": "ym2612"
    },
    {
      "channel": 1,
      "note": 62,
      "start": 152.8172,
      "duration": 0.0758,
      "velocity": 106,
      "chip": "ym2612"
    },
    {
      "channel": 2,
      "note": 74,
      "start": 152.822,
      "duration": 0.0728,
      "velocity": 127,
      "chip": "ym2612"
    },
    {
      "channel": 3,
      "note": 50,
      "start": 152.8265,
      "duration": 0.0672,
      "velocity": 117,
      "chip": "ym2612"
    },
    {
      "channel": 1,
      "note": 74,
      "start": 152.9137,
      "duration": 0.0796,
      "velocity": 127,
      "chip": "ym2612"
    },
    {
      "channel": 2,
      "note": 50,
      "start": 152.9181,
      "duration": 0.0766,
      "velocity": 117,
      "chip": "ym2612"
    },
    {
      "channel": 3,
      "note": 62,
      "start": 152.9223,
      "duration": 0.072,
      "velocity": 106,
      "chip": "ym2612"
    },
    {
      "channel": 1,
      "note": 74,
      "start": 153.0137,
      "duration": 0.0815,
      "velocity": 127,
      "chip": "ym2612"
    },
    {
      "channel": 2,
      "note": 62,
      "start": 153.0179,
      "duration": 0.076,
      "velocity": 106,
      "chip": "ym2612"
    },
    {
      "channel": 3,
      "note": 50,
      "start": 153.0223,
      "duration": 0.0705,
      "velocity": 117,
      "chip": "ym2612"
    },
    {
      "channel": 0,
      "note": 60,
      "start": 153.0997,
      "duration": 0.2598,
      "velocity": 101,
      "chip": "ym2612"
    },
    {
      "channel": 1,
      "note": 50,
      "start": 153.1041,
      "duration": 0.072,
      "velocity": 117,
      "chip": "ym2612"
    },
    {
      "channel": 2,
      "note": 60,
      "start": 153.1084,
      "duration": 0.0686,
      "velocity": 106,
      "chip": "ym2612"
    },
    {
      "channel": 1,
      "note": 71,
      "start": 153.1818,
      "duration": 0.0781,
      "velocity": 127,
      "chip": "ym2612"
    },
    {
      "channel": 2,
      "note": 60,
      "start": 153.1859,
      "duration": 0.0748,
      "velocity": 106,
      "chip": "ym2612"
    },
    {
      "channel": 1,
      "note": 60,
      "start": 153.2798,
      "duration": 0.0811,
      "velocity": 106,
      "chip": "ym2612"
    },
    {
      "channel": 2,
      "note": 50,
      "start": 153.2841,
      "duration": 0.076,
      "velocity": 117,
      "chip": "ym2612"
    },
    {
      "channel": 0,
      "note": 60,
      "start": 153.3796,
      "duration": 0.2632,
      "velocity": 101,
      "chip": "ym2612"
    },
    {
      "channel": 1,
      "note": 60,
      "start": 153.3839,
      "duration": 0.0758,
      "velocity": 106,
      "chip": "ym2612"
    },
    {
      "channel": 2,
      "note": 74,
      "start": 153.3882,
      "duration": 0.0722,
      "velocity": 127,
      "chip": "ym2612"
    },
    {
      "channel": 3,
      "note": 50,
      "start": 153.3934,
      "duration": 0.0179,
      "velocity": 117,
      "chip": "ym2612"
    },
    {
      "channel": 1,
      "note": 60,
      "start": 153.4645,
      "duration": 0.0784,
      "velocity": 106,
      "chip": "ym2612"
    },
    {
      "channel": 1,
      "note": 71,
      "start": 153.5637,
      "duration": 0.0819,
      "velocity": 127,
      "chip": "ym2612"
    },
    {
      "channel": 2,
      "note": 60,
      "start": 153.5679,
      "duration": 0.0766,
      "velocity": 106,
      "chip": "ym2612"
    },
    {
      "channel": 3,
      "note": 50,
      "start": 153.5723,
      "duration": 0.0713,
      "velocity": 117,
      "chip": "ym2612"
    },
    {
      "channel": 0,
      "note": 60,
      "start": 153.663,
      "duration": 0.2632,
      "velocity": 101,
      "chip": "ym2612"
    },
    {
      "channel": 1,
      "note": 60,
      "start": 153.6672,
      "duration": 0.0758,
      "velocity": 106,
      "chip": "ym2612"
    },
    {
      "channel": 2,
      "note": 50,
      "start": 153.6715,
      "duration": 0.072,
      "velocity": 117,
      "chip": "ym2612"
    },
    {
      "channel": 1,
      "note": 60,
      "start": 153.7631,
      "duration": 0.08,
      "velocity": 106,
      "chip": "ym2612"
    },
    {
      "channel": 2,
      "note": 71,
      "start": 153.7678,
      "duration": 0.0765,
      "velocity": 127,
      "chip": "ym2612"
    },
    {
      "channel": 1,
      "note": 60,
      "start": 153.8485,
      "duration": 0.0791,
      "velocity": 106,
      "chip": "ym2612"
    },
    {
      "channel": 2,
      "note": 50,
      "start": 153.8529,
      "duration": 0.0739,
      "velocity": 117,
      "chip": "ym2612"
    },
    {
      "channel": 0,
      "note": 60,
      "start": 153.9463,
      "duration": 0.2632,
      "velocity": 101,
      "chip": "ym2612"
    },
    {
      "channel": 1,
      "note": 60,
      "start": 153.9506,
      "duration": 0.0757,
      "velocity": 106,
      "chip": "ym2612"
    },
    {
      "channel": 2,
      "note": 74,
      "start": 153.9548,
      "duration": 0.0722,
      "velocity": 127,
      "chip": "ym2612"
    },
    {
      "channel": 3,
      "note": 50,
      "start": 153.96,
      "duration": 0.0167,
      "velocity": 117,
      "chip": "ym2612"
    },
    {
      "channel": 1,
      "note": 60,
      "start": 154.0464,
      "duration": 0.08,
      "velocity": 106,
      "chip": "ym2612"
    },
    {
      "channel": 1,
      "note": 71,
      "start": 154.1312,
      "duration": 0.081,
      "velocity": 127,
      "chip": "ym2612"
    },
    {
      "channel": 2,
      "note": 50,
      "start": 154.1356,
      "duration": 0.0755,
      "velocity": 117,
      "chip": "ym2612"
    },
    {
      "channel": 3,
      "note": 60,
      "start": 154.1398,
      "duration": 0.0707,
      "velocity": 106,
      "chip": "ym2612"
    },
    {
      "channel": 0,
      "note": 60,
      "start": 154.2296,
      "duration": 0.2631,
      "velocity": 101,
      "chip": "ym2612"
    },
    {
      "channel": 1,
      "note": 50,
      "start": 154.234,
      "duration": 0.0753,
      "velocity": 117,
      "chip": "ym2612"
    },
    {
      "channel": 2,
      "note": 60,
      "start": 154.2382,
      "duration": 0.072,
      "velocity": 106,
      "chip": "ym2612"
    },
    {
      "channel": 1,
      "note": 71,
      "start": 154.3315,
      "duration": 0.0784,
      "velocity": 127,
      "chip": "ym2612"
    },
    {
      "channel": 2,
      "note": 60,
      "start": 154.3356,
      "duration": 0.0751,
      "velocity": 106,
      "chip": "ym2612"
    },
    {
      "channel": 1,
      "note": 60,
      "start": 154.431,
      "duration": 0.0807,
      "velocity": 106,
      "chip": "ym2612"
    },
    {
      "channel": 2,
      "note": 50,
      "start": 154.4354,
      "duration": 0.0753,
      "velocity": 117,
      "chip": "ym2612"
    },
    {
      "channel": 0,
      "note": 60,
      "start": 154.5159,
      "duration": 0.1782,
      "velocity": 101,
      "chip": "ym2612"
    },
    {
      "channel": 1,
      "note": 60,
      "start": 154.5201,
      "duration": 0.0728,
      "velocity": 106,
      "chip": "ym2612"
    },
    {
      "channel": 2,
      "note": 74,
      "start": 154.5243,
      "duration": 0.0693,
      "velocity": 127,
      "chip": "ym2612"
    },
    {
      "channel": 3,
      "note": 50,
      "start": 154.5296,
      "duration": 0.0139,
      "velocity": 117,
      "chip": "ym2612"
    },
    {
      "channel": 1,
      "note": 60,
      "start": 154.6142,
      "duration": 0.0805,
      "velocity": 106,
      "chip": "ym2612"
    },
    {
      "channel": 0,
      "note": 71,
      "start": 154.7137,
      "duration": 0.0807,
      "velocity": 127,
      "chip": "ym2612"
    },
    {
      "channel": 1,
      "note": 62,
      "start": 154.7178,
      "duration": 0.3598,
      "velocity": 101,
      "chip": "ym2612"
    },
    {
      "channel": 2,
      "note": 50,
      "start": 154.7223,
      "duration": 0.0727,
      "velocity": 117,
      "chip": "ym2612"
    },
    {
      "channel": 3,
      "note": 62,
      "start": 154.7266,
      "duration": 0.3498,
      "velocity": 106,
      "chip": "ym2612"
    },
    {
      "channel": 0,
      "note": 50,
      "start": 154.9966,
      "duration": 0.0804,
      "velocity": 117,
      "chip": "ym2612"
    },
    {
      "channel": 0,
      "note": 65,
      "start": 155.0963,
      "duration": 0.2632,
      "velocity": 101,
      "chip": "ym2612"
    },
    {
      "channel": 1,
      "note": 74,
      "start": 155.1006,
      "duration": 0.0755,
      "velocity": 127,
      "chip": "ym2612"
    },
    {
      "channel": 2,
      "note": 65,
      "start": 155.1048,
      "duration": 0.0722,
      "velocity": 106,
      "chip": "ym2612"
    },
    {
      "channel": 3,
      "note": 50,
      "start": 155.11,
      "duration": 0.0167,
      "velocity": 117,
      "chip": "ym2612"
    },
    {
      "channel": 1,
      "note": 65,
      "start": 155.1812,
      "duration": 0.0784,
      "velocity": 106,
      "chip": "ym2612"
    },
    {
      "channel": 1,
      "note": 50,
      "start": 155.28,
      "duration": 0.0822,
      "velocity": 117,
      "chip": "ym2612"
    },
    {
      "channel": 2,
      "note": 71,
      "start": 155.2847,
      "duration": 0.077,
      "velocity": 127,
      "chip": "ym2612"
    },
    {
      "channel": 3,
      "note": 65,
      "start": 155.2889,
      "duration": 0.0716,
      "velocity": 106,
      "chip": "ym2612"
    },
    {
      "channel": 0,
      "note": 62,
      "start": 155.3796,
      "duration": 0.2632,
      "velocity": 101,
      "chip": "ym2612"
    },
    {
      "channel": 1,
      "note": 62,
      "start": 155.3838,
      "duration": 0.0758,
      "velocity": 106,
      "chip": "ym2612"
    },
    {
      "channel": 2,
      "note": 50,
      "start": 155.3882,
      "duration": 0.0721,
      "velocity": 117,
      "chip": "ym2612"
    },
    {
      "channel": 1,
      "note": 71,
      "start": 155.4651,
      "duration": 0.0781,
      "velocity": 127,
      "chip": "ym2612"
    },
    {
      "channel": 2,
      "note": 62,
      "start": 155.4693,
      "duration": 0.0748,
      "velocity": 106,
      "chip": "ym2612"
    },
    {
      "channel": 1,
      "note": 62,
      "start": 155.5631,
      "duration": 0.0811,
      "velocity": 106,
      "chip": "ym2612"
    },
    {
      "channel": 2,
      "note": 50,
      "start": 155.5674,
      "duration": 0.076,
      "velocity": 117,
      "chip": "ym2612"
    },
    {
      "channel": 0,
      "note": 62,
      "start": 155.663,
      "duration": 0.2632,
      "velocity": 101,
      "chip": "ym2612"
    },
    {
      "channel": 1,
      "note": 74,
      "start": 155.6673,
      "duration": 0.0754,
      "velocity": 127,
      "chip": "ym2612"
    },
    {
      "channel": 2,
      "note": 62,
      "start": 155.6715,
      "duration": 0.0721,
      "velocity": 106,
      "chip": "ym2612"
    },
    {
      "channel": 3,
      "note": 50,
      "start": 155.6768,
      "duration": 0.0167,
      "velocity": 117,
      "chip": "ym2612"
    },
    {
      "channel": 1,
      "note": 62,
      "start": 155.763,
      "duration": 0.08,
      "velocity": 106,
      "chip": "ym2612"
    },
    {
      "channel": 1,
      "note": 50,
      "start": 155.8476,
      "duration": 0.0813,
      "velocity": 117,
      "chip": "ym2612"
    },
    {
      "channel": 2,
      "note": 71,
      "start": 155.8523,
      "duration": 0.0761,
      "velocity": 127,
      "chip": "ym2612"
    },
    {
      "channel": 3,
      "note": 62,
      "start": 155.8565,
      "duration": 0.0707,
      "velocity": 106,
      "chip": "ym2612"
    },
    {
      "channel": 0,
      "note": 65,
      "start": 155.9463,
      "duration": 0.2632,
      "velocity": 101,
      "chip": "ym2612"
    },
    {
      "channel": 1,
      "note": 65,
      "start": 155.9505,
      "duration": 0.0758,
      "velocity": 106,
      "chip": "ym2612"
    },
    {
      "channel": 2,
      "note": 50,
      "start": 155.9548,
      "duration": 0.072,
      "velocity": 117,
      "chip": "ym2612"
    },
    {
      "channel": 1,
      "note": 71,
      "start": 156.0469,
      "duration": 0.0797,
      "velocity": 127,
      "chip": "ym2612"
    },
    {
      "channel": 2,
      "note": 65,
      "start": 156.0511,
      "duration": 0.0765,
      "velocity": 106,
      "chip": "ym2612"
    },
    {
      "channel": 1,
      "note": 65,
      "start": 156.1319,
      "duration": 0.079,
      "velocity": 106,
      "chip": "ym2612"
    },
    {
      "channel": 2,
      "note": 50,
      "start": 156.1362,
      "duration": 0.0739,
      "velocity": 117,
      "chip": "ym2612"
    },
    {
      "channel": 0,
      "note": 62,
      "start": 156.2296,
      "duration": 0.1798,
      "velocity": 101,
      "chip": "ym2612"
    },
    {
      "channel": 1,
      "note": 74,
      "start": 156.234,
      "duration": 0.0754,
      "velocity": 127,
      "chip": "ym2612"
    },
    {
      "channel": 2,
      "note": 62,
      "start": 156.2382,
      "duration": 0.0721,
      "velocity": 106,
      "chip": "ym2612"
    },
    {
      "channel": 3,
      "note": 50,
      "start": 156.2434,
      "duration": 0.0179,
      "velocity": 117,
      "chip": "ym2612"
    },
    {
      "channel": 1,
      "note": 62,
      "start": 156.3297,
      "duration": 0.0805,
      "velocity": 106,
      "chip": "ym2612"
    },
    {
      "channel": 0,
      "note": 60,
      "start": 156.4297,
      "duration": 0.3632,
      "velocity": 101,
      "chip": "ym2612"
    },
    {
      "channel": 1,
      "note": 50,
      "start": 156.4342,
      "duration": 0.0752,
      "velocity": 117,
      "chip": "ym2612"
    },
    {
      "channel": 2,
      "note": 60,
      "start": 156.4384,
      "duration": 0.3564,
      "velocity": 106,
      "chip": "ym2612"
    },
    {
      "channel": 3,
      "note": 71,
      "start": 156.4433,
      "duration": 0.0674,
      "velocity": 127,
      "chip": "ym2612"
    },
    {
      "channel": 1,
      "note": 50,
      "start": 156.515,
      "duration": 0.0777,
      "velocity": 117,
      "chip": "ym2612"
    },
    {
      "channel": 1,
      "note": 50,
      "start": 156.7144,
      "duration": 0.0793,
      "velocity": 117,
      "chip": "ym2612"
    },
    {
      "channel": 0,
      "note": 60,
      "start": 156.799,
      "duration": 0.2604,
      "velocity": 101,
      "chip": "ym2612"
    },
    {
      "channel": 1,
      "note": 74,
      "start": 156.8032,
      "duration": 0.0728,
      "velocity": 127,
      "chip": "ym2612"
    },
    {
      "channel": 2,
      "note": 60,
      "start": 156.8074,
      "duration": 0.0695,
      "velocity": 106,
      "chip": "ym2612"
    },
    {
      "channel": 3,
      "note": 50,
      "start": 156.8127,
      "duration": 0.0141,
      "velocity": 117,
      "chip": "ym2612"
    },
    {
      "channel": 1,
      "note": 60,
      "start": 156.8976,
      "duration": 0.0787,
      "velocity": 106,
      "chip": "ym2612"
    },
    {
      "channel": 1,
      "note": 50,
      "start": 156.998,
      "duration": 0.0814,
      "velocity": 117,
      "chip": "ym2612"
    },
    {
      "channel": 2,
      "note": 71,
      "start": 157.0027,
      "duration": 0.0761,
      "velocity": 127,
      "chip": "ym2612"
    },
    {
      "channel": 3,
      "note": 60,
      "start": 157.0069,
      "duration": 0.0707,
      "velocity": 106,
      "chip": "ym2612"
    },
    {
      "channel": 0,
      "note": 60,
      "start": 157.0963,
      "duration": 0.2644,
      "velocity": 101,
      "chip": "ym2612"
    },
    {
      "channel": 1,
      "note": 60,
      "start": 157.1005,
      "duration": 0.0771,
      "velocity": 106,
      "chip": "ym2612"
    },
    {
      "channel": 2,
      "note": 50,
      "start": 157.1049,
      "duration": 0.0734,
      "velocity": 117,
      "chip": "ym2612"
    },
    {
      "channel": 1,
      "note": 60,
      "start": 157.1825,
      "duration": 0.0783,
      "velocity": 106,
      "chip": "ym2612"
    },
    {
      "channel": 2,
      "note": 71,
      "start": 157.1871,
      "duration": 0.0748,
      "velocity": 127,
      "chip": "ym2612"
    },
    {
      "channel": 1,
      "note": 60,
      "start": 157.2798,
      "duration": 0.0824,
      "velocity": 106,
      "chip": "ym2612"
    },
    {
      "channel": 2,
      "note": 50,
      "start": 157.2841,
      "duration": 0.0772,
      "velocity": 117,
      "chip": "ym2612"
    },
    {
      "channel": 0,
      "note": 60,
      "start": 157.3797,
      "duration": 0.2632,
      "velocity": 101,
      "chip": "ym2612"
    },
    {
      "channel": 1,
      "note": 60,
      "start": 157.384,
      "duration": 0.0757,
      "velocity": 106,
      "chip": "ym2612"
    },
    {
      "channel": 2,
      "note": 74,
      "start": 157.3882,
      "duration": 0.0722,
      "velocity": 127,
      "chip": "ym2612"
    },
    {
      "channel": 3,
      "note": 50,
      "start": 157.3934,
      "duration": 0.0167,
      "velocity": 117,
      "chip": "ym2612"
    },
    {
      "channel": 1,
      "note": 60,
      "start": 157.4645,
      "duration": 0.0796,
      "velocity": 106,
      "chip": "ym2612"
    },
    {
      "channel": 1,
      "note": 50,
      "start": 157.5634,
      "duration": 0.0822,
      "velocity": 117,
      "chip": "ym2612"
    },
    {
      "channel": 2,
      "note": 60,
      "start": 157.5676,
      "duration": 0.0775,
      "velocity": 106,
      "chip": "ym2612"
    },
    {
      "channel": 3,
      "note": 71,
      "start": 157.5723,
      "duration": 0.0719,
      "velocity": 127,
      "chip": "ym2612"
    },
    {
      "channel": 0,
      "note": 60,
      "start": 157.663,
      "duration": 0.2632,
      "velocity": 101,
      "chip": "ym2612"
    },
    {
      "channel": 1,
      "note": 60,
      "start": 157.6672,
      "duration": 0.0758,
      "velocity": 106,
      "chip": "ym2612"
    },
    {
      "channel": 2,
      "note": 50,
      "start": 157.6715,
      "duration": 0.072,
      "velocity": 117,
      "chip": "ym2612"
    },
    {
      "channel": 1,
      "note": 71,
      "start": 157.7636,
      "duration": 0.0797,
      "velocity": 127,
      "chip": "ym2612"
    },
    {
      "channel": 2,
      "note": 60,
      "start": 157.7678,
      "duration": 0.0765,
      "velocity": 106,
      "chip": "ym2612"
    },
    {
      "channel": 1,
      "note": 60,
      "start": 157.8485,
      "duration": 0.0791,
      "velocity": 106,
      "chip": "ym2612"
    },
    {
      "channel": 2,
      "note": 50,
      "start": 157.8529,
      "duration": 0.0739,
      "velocity": 117,
      "chip": "ym2612"
    },
    {
      "channel": 0,
      "note": 60,
      "start": 157.9465,
      "duration": 0.0798,
      "velocity": 106,
      "chip": "ym2612"
    },
    {
      "channel": 1,
      "note": 74,
      "start": 157.9508,
      "duration": 0.076,
      "velocity": 127,
      "chip": "ym2612"
    },
    {
      "channel": 2,
      "note": 60,
      "start": 157.9548,
      "duration": 0.1715,
      "velocity": 101,
      "chip": "ym2612"
    },
    {
      "channel": 3,
      "note": 50,
      "start": 157.96,
      "duration": 0.0167,
      "velocity": 117,
      "chip": "ym2612"
    },
    {
      "channel": 0,
      "note": 60,
      "start": 158.0464,
      "duration": 0.0809,
      "velocity": 106,
      "chip": "ym2612"
    },
    {
      "channel": 0,
      "note": 50,
      "start": 158.1318,
      "duration": 0.0775,
      "velocity": 117,
      "chip": "ym2612"
    },
    {
      "channel": 1,
      "note": 71,
      "start": 158.1366,
      "duration": 0.0737,
      "velocity": 127,
      "chip": "ym2612"
    },
    {
      "channel": 2,
      "note": 62,
      "start": 158.1407,
      "duration": 0.3531,
      "velocity": 101,
      "chip": "ym2612"
    },
    {
      "channel": 3,
      "note": 62,
      "start": 158.145,
      "duration": 0.348,
      "velocity": 106,
      "chip": "ym2612"
    },
    {
      "channel": 0,
      "note": 50,
      "start": 158.43,
      "duration": 0.0793,
      "velocity": 117,
      "chip": "ym2612"
    },
    {
      "channel": 0,
      "note": 74,
      "start": 158.5136,
      "duration": 0.0791,
      "velocity": 127,
      "chip": "ym2612"
    },
    {
      "channel": 1,
      "note": 67,
      "start": 158.5179,
      "duration": 0.0755,
      "velocity": 106,
      "chip": "ym2612"
    },
    {
      "channel": 2,
      "note": 67,
      "start": 158.522,
      "duration": 0.2541,
      "velocity": 101,
      "chip": "ym2612"
    },
    {
      "channel": 3,
      "note": 50,
      "start": 158.5272,
      "duration": 0.0174,
      "velocity": 117,
      "chip": "ym2612"
    },
    {
      "channel": 0,
      "note": 67,
      "start": 158.613,
      "duration": 0.0798,
      "velocity": 106,
      "chip": "ym2612"
    },
    {
      "channel": 0,
      "note": 67,
      "start": 158.7131,
      "duration": 0.0821,
      "velocity": 106,
      "chip": "ym2612"
    },
    {
      "channel": 1,
      "note": 71,
      "start": 158.7179,
      "duration": 0.0763,
      "velocity": 127,
      "chip": "ym2612"
    },
    {
      "channel": 3,
      "note": 50,
      "start": 158.7223,
      "duration": 0.0706,
      "velocity": 117,
      "chip": "ym2612"
    },
    {
      "channel": 0,
      "note": 50,
      "start": 158.7996,
      "duration": 0.0763,
      "velocity": 117,
      "chip": "ym2612"
    },
    {
      "channel": 1,
      "note": 62,
      "start": 158.8038,
      "duration": 0.073,
      "velocity": 106,
      "chip": "ym2612"
    },
    {
      "channel": 2,
      "note": 62,
      "start": 158.8079,
      "duration": 0.2516,
      "velocity": 101,
      "chip": "ym2612"
    },
    {
      "channel": 0,
      "note": 71,
      "start": 158.8969,
      "duration": 0.0796,
      "velocity": 127,
      "chip": "ym2612"
    },
    {
      "channel": 1,
      "note": 62,
      "start": 158.9011,
      "duration": 0.0762,
      "velocity": 106,
      "chip": "ym2612"
    },
    {
      "channel": 0,
      "note": 62,
      "start": 158.9964,
      "duration": 0.0803,
      "velocity": 106,
      "chip": "ym2612"
    },
    {
      "channel": 1,
      "note": 50,
      "start": 159.0008,
      "duration": 0.0752,
      "velocity": 117,
      "chip": "ym2612"
    },
    {
      "channel": 0,
      "note": 60,
      "start": 159.0976,
      "duration": 0.262,
      "velocity": 101,
      "chip": "ym2612"
    },
    {
      "channel": 1,
      "note": 60,
      "start": 159.1018,
      "duration": 0.0745,
      "velocity": 106,
      "chip": "ym2612"
    },
    {
      "channel": 2,
      "note": 74,
      "start": 159.1061,
      "duration": 0.0709,
      "velocity": 127,
      "chip": "ym2612"
    },
    {
      "channel": 3,
      "note": 50,
      "start": 159.1113,
      "duration": 0.0155,
      "velocity": 117,
      "chip": "ym2612"
    },
    {
      "channel": 1,
      "note": 60,
      "start": 159.1812,
      "duration": 0.0784,
      "velocity": 106,
      "chip": "ym2612"
    },
    {
      "channel": 1,
      "note": 71,
      "start": 159.2816,
      "duration": 0.0807,
      "velocity": 127,
      "chip": "ym2612"
    },
    {
      "channel": 2,
      "note": 60,
      "start": 159.2858,
      "duration": 0.0754,
      "velocity": 106,
      "chip": "ym2612"
    },
    {
      "channel": 3,
      "note": 50,
      "start": 159.2901,
      "duration": 0.0701,
      "velocity": 117,
      "chip": "ym2612"
    },
    {
      "channel": 0,
      "note": 50,
      "start": 159.3812,
      "duration": 0.0794,
      "velocity": 117,
      "chip": "ym2612"
    },
    {
      "channel": 1,
      "note": 62,
      "start": 159.3852,
      "duration": 0.2588,
      "velocity": 101,
      "chip": "ym2612"
    },
    {
      "channel": 2,
      "note": 62,
      "start": 159.3894,
      "duration": 0.0721,
      "velocity": 106,
      "chip": "ym2612"
    },
    {
      "channel": 0,
      "note": 71,
      "start": 159.4662,
      "duration": 0.077,
      "velocity": 127,
      "chip": "ym2612"
    },
    {
      "channel": 2,
      "note": 62,
      "start": 159.4704,
      "duration": 0.0737,
      "velocity": 106,
      "chip": "ym2612"
    },
    {
      "channel": 0,
      "note": 62,
      "start": 159.5643,
      "duration": 0.081,
      "velocity": 106,
      "chip": "ym2612"
    },
    {
      "channel": 2,
      "note": 50,
      "start": 159.5686,
      "duration": 0.076,
      "velocity": 117,
      "chip": "ym2612"
    },
    {
      "channel": 0,
      "note": 60,
      "start": 159.663,
      "duration": 0.1798,
      "velocity": 101,
      "chip": "ym2612"
    },
    {
      "channel": 1,
      "note": 60,
      "start": 159.6673,
      "duration": 0.0769,
      "velocity": 106,
      "chip": "ym2612"
    },
    {
      "channel": 2,
      "note": 74,
      "start": 159.6715,
      "duration": 0.0733,
      "velocity": 127,
      "chip": "ym2612"
    },
    {
      "channel": 3,
      "note": 50,
      "start": 159.6768,
      "duration": 0.0167,
      "velocity": 117,
      "chip": "ym2612"
    },
    {
      "channel": 1,
      "note": 60,
      "start": 159.763,
      "duration": 0.0808,
      "velocity": 106,
      "chip": "ym2612"
    },
    {
      "channel": 0,
      "note": 50,
      "start": 159.8484,
      "duration": 0.0788,
      "velocity": 117,
      "chip": "ym2612"
    },
    {
      "channel": 1,
      "note": 58,
      "start": 159.8525,
      "duration": 0.3584,
      "velocity": 101,
      "chip": "ym2612"
    },
    {
      "channel": 2,
      "note": 71,
      "start": 159.8573,
      "duration": 0.071,
      "velocity": 127,
      "chip": "ym2612"
    },
    {
      "channel": 3,
      "note": 58,
      "start": 159.8616,
      "duration": 0.3481,
      "velocity": 106,
      "chip": "ym2612"
    },
    {
      "channel": 0,
      "note": 50,
      "start": 159.9466,
      "duration": 0.0793,
      "velocity": 117,
      "chip": "ym2612"
    },
    {
      "channel": 0,
      "note": 50,
      "start": 160.13,
      "duration": 0.0804,
      "velocity": 117,
      "chip": "ym2612"
    },
    {
      "channel": 0,
      "note": 58,
      "start": 160.2296,
      "duration": 0.2631,
      "velocity": 101,
      "chip": "ym2612"
    },
    {
      "channel": 1,
      "note": 58,
      "start": 160.234,
      "duration": 0.0757,
      "velocity": 106,
      "chip": "ym2612"
    },
    {
      "channel": 2,
      "note": 74,
      "start": 160.2382,
      "duration": 0.0721,
      "velocity": 127,
      "chip": "ym2612"
    },
    {
      "channel": 3,
      "note": 50,
      "start": 160.2434,
      "duration": 0.0167,
      "velocity": 117,
      "chip": "ym2612"
    },
    {
      "channel": 1,
      "note": 58,
      "start": 160.3297,
      "duration": 0.0799,
      "velocity": 106,
      "chip": "ym2612"
    },
    {
      "channel": 1,
      "note": 71,
      "start": 160.4303,
      "duration": 0.0816,
      "velocity": 127,
      "chip": "ym2612"
    },
    {
      "channel": 2,
      "note": 58,
      "start": 160.4345,
      "duration": 0.0761,
      "velocity": 106,
      "chip": "ym2612"
    },
    {
      "channel": 3,
      "note": 50,
      "start": 160.4389,
      "duration": 0.0706,
      "velocity": 117,
      "chip": "ym2612"
    },
    {
      "channel": 0,
      "note": 58,
      "start": 160.5162,
      "duration": 0.0768,
      "velocity": 106,
      "chip": "ym2612"
    },
    {
      "channel": 1,
      "note": 58,
      "start": 160.5202,
      "duration": 0.2559,
      "velocity": 101,
      "chip": "ym2612"
    },
    {
      "channel": 2,
      "note": 50,
      "start": 160.5246,
      "duration": 0.0688,
      "velocity": 117,
      "chip": "ym2612"
    },
    {
      "channel": 0,
      "note": 58,
      "start": 160.6131,
      "duration": 0.0798,
      "velocity": 106,
      "chip": "ym2612"
    },
    {
      "channel": 2,
      "note": 71,
      "start": 160.6178,
      "duration": 0.0763,
      "velocity": 127,
      "chip": "ym2612"
    },
    {
      "channel": 0,
      "note": 58,
      "start": 160.7131,
      "duration": 0.0807,
      "velocity": 106,
      "chip": "ym2612"
    },
    {
      "channel": 2,
      "note": 50,
      "start": 160.7175,
      "duration": 0.0752,
      "velocity": 117,
      "chip": "ym2612"
    },
    {
      "channel": 0,
      "note": 58,
      "start": 160.798,
      "duration": 0.2615,
      "velocity": 101,
      "chip": "ym2612"
    },
    {
      "channel": 1,
      "note": 58,
      "start": 160.8022,
      "duration": 0.0741,
      "velocity": 106,
      "chip": "ym2612"
    },
    {
      "channel": 2,
      "note": 74,
      "start": 160.8065,
      "duration": 0.0704,
      "velocity": 127,
      "chip": "ym2612"
    },
    {
      "channel": 3,
      "note": 50,
      "start": 160.8117,
      "duration": 0.0151,
      "velocity": 117,
      "chip": "ym2612"
    },
    {
      "channel": 1,
      "note": 58,
      "start": 160.8964,
      "duration": 0.0799,
      "velocity": 106,
      "chip": "ym2612"
    },
    {
      "channel": 1,
      "note": 71,
      "start": 160.997,
      "duration": 0.0811,
      "velocity": 127,
      "chip": "ym2612"
    },
    {
      "channel": 2,
      "note": 58,
      "start": 161.0012,
      "duration": 0.0758,
      "velocity": 106,
      "chip": "ym2612"
    },
    {
      "channel": 3,
      "note": 50,
      "start": 161.0056,
      "duration": 0.0705,
      "velocity": 117,
      "chip": "ym2612"
    },
    {
      "channel": 0,
      "note": 58,
      "start": 161.0963,
      "duration": 0.2632,
      "velocity": 101,
      "chip": "ym2612"
    },
    {
      "channel": 1,
      "note": 50,
      "start": 161.1008,
      "duration": 0.0753,
      "velocity": 117,
      "chip": "ym2612"
    },
    {
      "channel": 2,
      "note": 58,
      "start": 161.1049,
      "duration": 0.0722,
      "velocity": 106,
      "chip": "ym2612"
    },
    {
      "channel": 1,
      "note": 58,
      "start": 161.1813,
      "duration": 0.0783,
      "velocity": 106,
      "chip": "ym2612"
    },
    {
      "channel": 2,
      "note": 71,
      "start": 161.186,
      "duration": 0.0747,
      "velocity": 127,
      "chip": "ym2612"
    },
    {
      "channel": 1,
      "note": 58,
      "start": 161.2798,
      "duration": 0.0811,
      "velocity": 106,
      "chip": "ym2612"
    },
    {
      "channel": 2,
      "note": 50,
      "start": 161.2842,
      "duration": 0.0759,
      "velocity": 117,
      "chip": "ym2612"
    },
    {
      "channel": 0,
      "note": 74,
      "start": 161.3798,
      "duration": 0.0796,
      "velocity": 127,
      "chip": "ym2612"
    },
    {
      "channel": 1,
      "note": 58,
      "start": 161.384,
      "duration": 0.1756,
      "velocity": 101,
      "chip": "ym2612"
    },
    {
      "channel": 2,
      "note": 58,
      "start": 161.3882,
      "duration": 0.0721,
      "velocity": 106,
      "chip": "ym2612"
    },
    {
      "channel": 3,
      "note": 50,
      "start": 161.3935,
      "duration": 0.0166,
      "velocity": 117,
      "chip": "ym2612"
    },
    {
      "channel": 0,
      "note": 58,
      "start": 161.4644,
      "duration": 0.0784,
      "velocity": 106,
      "chip": "ym2612"
    },
    {
      "channel": 0,
      "note": 71,
      "start": 161.5644,
      "duration": 0.0788,
      "velocity": 127,
      "chip": "ym2612"
    },
    {
      "channel": 1,
      "note": 60,
      "start": 161.5686,
      "duration": 0.359,
      "velocity": 106,
      "chip": "ym2612"
    },
    {
      "channel": 2,
      "note": 50,
      "start": 161.5731,
      "duration": 0.0707,
      "velocity": 117,
      "chip": "ym2612"
    },
    {
      "channel": 3,
      "note": 60,
      "start": 161.5773,
      "duration": 0.3489,
      "velocity": 101,
      "chip": "ym2612"
    },
    {
      "channel": 0,
      "note": 50,
      "start": 161.6644,
      "duration": 0.0782,
      "velocity": 117,
      "chip": "ym2612"
    },
    {
      "channel": 0,
      "note": 50,
      "start": 161.8478,
      "duration": 0.0791,
      "velocity": 117,
      "chip": "ym2612"
    },
    {
      "channel": 0,
      "note": 60,
      "start": 161.9476,
      "duration": 0.2632,
      "velocity": 101,
      "chip": "ym2612"
    },
    {
      "channel": 1,
      "note": 60,
      "start": 161.9518,
      "duration": 0.0757,
      "velocity": 106,
      "chip": "ym2612"
    },
    {
      "channel": 2,
      "note": 74,
      "start": 161.9561,
      "duration": 0.0721,
      "velocity": 127,
      "chip": "ym2612"
    },
    {
      "channel": 3,
      "note": 50,
      "start": 161.9613,
      "duration": 0.0155,
      "velocity": 117,
      "chip": "ym2612"
    },
    {
      "channel": 1,
      "note": 60,
      "start": 162.0464,
      "duration": 0.0812,
      "velocity": 106,
      "chip": "ym2612"
    },
    {
      "channel": 1,
      "note": 60,
      "start": 162.1319,
      "duration": 0.0815,
      "velocity": 106,
      "chip": "ym2612"
    },
    {
      "channel": 2,
      "note": 50,
      "start": 162.1363,
      "duration": 0.0763,
      "velocity": 117,
      "chip": "ym2612"
    },
    {
      "channel": 3,
      "note": 71,
      "start": 162.141,
      "duration": 0.071,
      "velocity": 127,
      "chip": "ym2612"
    },
    {
      "channel": 0,
      "note": 50,
      "start": 162.23,
      "duration": 0.0806,
      "velocity": 117,
      "chip": "ym2612"
    },
    {
      "channel": 1,
      "note": 60,
      "start": 162.2342,
      "duration": 0.0771,
      "velocity": 106,
      "chip": "ym2612"
    },
    {
      "channel": 2,
      "note": 60,
      "start": 162.2382,
      "duration": 0.2559,
      "velocity": 101,
      "chip": "ym2612"
    },
    {
      "channel": 0,
      "note": 60,
      "start": 162.3298,
      "duration": 0.0798,
      "velocity": 106,
      "chip": "ym2612"
    },
    {
      "channel": 1,
      "note": 71,
      "start": 162.3344,
      "duration": 0.0762,
      "velocity": 127,
      "chip": "ym2612"
    },
    {
      "channel": 0,
      "note": 60,
      "start": 162.4298,
      "duration": 0.0807,
      "velocity": 106,
      "chip": "ym2612"
    },
    {
      "channel": 1,
      "note": 50,
      "start": 162.4341,
      "duration": 0.0753,
      "velocity": 117,
      "chip": "ym2612"
    },
    {
      "channel": 0,
      "note": 74,
      "start": 162.5148,
      "duration": 0.0779,
      "velocity": 127,
      "chip": "ym2612"
    },
    {
      "channel": 1,
      "note": 60,
      "start": 162.5189,
      "duration": 0.2573,
      "velocity": 101,
      "chip": "ym2612"
    },
    {
      "channel": 2,
      "note": 60,
      "start": 162.5231,
      "duration": 0.0704,
      "velocity": 106,
      "chip": "ym2612"
    },
    {
      "channel": 3,
      "note": 50,
      "start": 162.5284,
      "duration": 0.0151,
      "velocity": 117,
      "chip": "ym2612"
    },
    {
      "channel": 0,
      "note": 60,
      "start": 162.613,
      "duration": 0.0798,
      "velocity": 106,
      "chip": "ym2612"
    },
    {
      "channel": 0,
      "note": 71,
      "start": 162.7136,
      "duration": 0.0816,
      "velocity": 127,
      "chip": "ym2612"
    },
    {
      "channel": 2,
      "note": 60,
      "start": 162.7179,
      "duration": 0.0761,
      "velocity": 106,
      "chip": "ym2612"
    },
    {
      "channel": 3,
      "note": 50,
      "start": 162.7223,
      "duration": 0.0706,
      "velocity": 117,
      "chip": "ym2612"
    },
    {
      "channel": 0,
      "note": 50,
      "start": 162.7997,
      "duration": 0.0763,
      "velocity": 117,
      "chip": "ym2612"
    },
    {
      "channel": 1,
      "note": 60,
      "start": 162.8039,
      "duration": 0.0729,
      "velocity": 106,
      "chip": "ym2612"
    },
    {
      "channel": 2,
      "note": 60,
      "start": 162.8079,
      "duration": 0.2516,
      "velocity": 101,
      "chip": "ym2612"
    },
    {
      "channel": 0,
      "note": 71,
      "start": 162.8969,
      "duration": 0.0796,
      "velocity": 127,
      "chip": "ym2612"
    },
    {
      "channel": 1,
      "note": 60,
      "start": 162.9011,
      "duration": 0.0762,
      "velocity": 106,
      "chip": "ym2612"
    },
    {
      "channel": 0,
      "note": 60,
      "start": 162.9964,
      "duration": 0.0803,
      "velocity": 106,
      "chip": "ym2612"
    },
    {
      "channel": 1,
      "note": 50,
      "start": 163.0008,
      "duration": 0.0752,
      "velocity": 117,
      "chip": "ym2612"
    },
    {
      "channel": 0,
      "note": 74,
      "start": 163.0965,
      "duration": 0.0796,
      "velocity": 127,
      "chip": "ym2612"
    },
    {
      "channel": 1,
      "note": 60,
      "start": 163.1006,
      "duration": 0.1755,
      "velocity": 101,
      "chip": "ym2612"
    },
    {
      "channel": 2,
      "note": 60,
      "start": 163.1048,
      "duration": 0.0722,
      "velocity": 106,
      "chip": "ym2612"
    },
    {
      "channel": 3,
      "note": 50,
      "start": 163.11,
      "duration": 0.0179,
      "velocity": 117,
      "chip": "ym2612"
    },
    {
      "channel": 0,
      "note": 60,
      "start": 163.1811,
      "duration": 0.0784,
      "velocity": 106,
      "chip": "ym2612"
    },
    {
      "channel": 0,
      "note": 71,
      "start": 163.281,
      "duration": 0.0788,
      "velocity": 127,
      "chip": "ym2612"
    },
    {
      "channel": 1,
      "note": 62,
      "start": 163.2852,
      "duration": 0.359,
      "velocity": 101,
      "chip": "ym2612"
    },
    {
      "channel": 2,
      "note": 62,
      "start": 163.2894,
      "duration": 0.3536,
      "velocity": 106,
      "chip": "ym2612"
    },
    {
      "channel": 3,
      "note": 50,
      "start": 163.294,
      "duration": 0.0665,
      "velocity": 117,
      "chip": "ym2612"
    },
    {
      "channel": 0,
      "note": 50,
      "start": 163.38,
      "duration": 0.0793,
      "velocity": 117,
      "chip": "ym2612"
    },
    {
      "channel": 0,
      "note": 50,
      "start": 163.5633,
      "duration": 0.0803,
      "velocity": 117,
      "chip": "ym2612"
    },
    {
      "channel": 0,
      "note": 74,
      "start": 163.6632,
      "duration": 0.0795,
      "velocity": 127,
      "chip": "ym2612"
    },
    {
      "channel": 1,
      "note": 62,
      "start": 163.6674,
      "duration": 0.076,
      "velocity": 106,
      "chip": "ym2612"
    },
    {
      "channel": 2,
      "note": 62,
      "start": 163.6715,
      "duration": 0.2548,
      "velocity": 101,
      "chip": "ym2612"
    },
    {
      "channel": 3,
      "note": 50,
      "start": 163.6768,
      "duration": 0.0167,
      "velocity": 117,
      "chip": "ym2612"
    },
    {
      "channel": 0,
      "note": 62,
      "start": 163.763,
      "duration": 0.08,
      "velocity": 106,
      "chip": "ym2612"
    },
    {
      "channel": 0,
      "note": 62,
      "start": 163.8473,
      "duration": 0.0816,
      "velocity": 106,
      "chip": "ym2612"
    },
    {
      "channel": 1,
      "note": 50,
      "start": 163.8517,
      "duration": 0.0765,
      "velocity": 117,
      "chip": "ym2612"
    },
    {
      "channel": 3,
      "note": 71,
      "start": 163.8564,
      "duration": 0.0712,
      "velocity": 127,
      "chip": "ym2612"
    },
    {
      "channel": 0,
      "note": 50,
      "start": 163.9467,
      "duration": 0.0793,
      "velocity": 117,
      "chip": "ym2612"
    },
    {
      "channel": 1,
      "note": 62,
      "start": 163.9508,
      "duration": 0.2588,
      "velocity": 101,
      "chip": "ym2612"
    },
    {
      "channel": 2,
      "note": 62,
      "start": 163.9549,
      "duration": 0.0719,
      "velocity": 106,
      "chip": "ym2612"
    },
    {
      "channel": 0,
      "note": 71,
      "start": 164.048,
      "duration": 0.0786,
      "velocity": 127,
      "chip": "ym2612"
    },
    {
      "channel": 2,
      "note": 62,
      "start": 164.0522,
      "duration": 0.0754,
      "velocity": 106,
      "chip": "ym2612"
    },
    {
      "channel": 0,
      "note": 62,
      "start": 164.1318,
      "duration": 0.0791,
      "velocity": 106,
      "chip": "ym2612"
    },
    {
      "channel": 2,
      "note": 50,
      "start": 164.1362,
      "duration": 0.074,
      "velocity": 117,
      "chip": "ym2612"
    },
    {
      "channel": 0,
      "note": 62,
      "start": 164.2309,
      "duration": 0.2618,
      "velocity": 101,
      "chip": "ym2612"
    },
    {
      "channel": 1,
      "note": 62,
      "start": 164.2352,
      "duration": 0.0744,
      "velocity": 106,
      "chip": "ym2612"
    },
    {
      "channel": 2,
      "note": 74,
      "start": 164.2394,
      "duration": 0.0709,
      "velocity": 127,
      "chip": "ym2612"
    },
    {
      "channel": 3,
      "note": 50,
      "start": 164.2446,
      "duration": 0.0155,
      "velocity": 117,
      "chip": "ym2612"
    },
    {
      "channel": 1,
      "note": 62,
      "start": 164.331,
      "duration": 0.0798,
      "velocity": 106,
      "chip": "ym2612"
    },
    {
      "channel": 1,
      "note": 71,
      "start": 164.4303,
      "duration": 0.0828,
      "velocity": 127,
      "chip": "ym2612"
    },
    {
      "channel": 2,
      "note": 62,
      "start": 164.4345,
      "duration": 0.0773,
      "velocity": 106,
      "chip": "ym2612"
    },
    {
      "channel": 3,
      "note": 50,
      "start": 164.4389,
      "duration": 0.0719,
      "velocity": 117,
      "chip": "ym2612"
    },
    {
      "channel": 0,
      "note": 50,
      "start": 164.5176,
      "duration": 0.0762,
      "velocity": 117,
      "chip": "ym2612"
    },
    {
      "channel": 1,
      "note": 62,
      "start": 164.5217,
      "duration": 0.2555,
      "velocity": 101,
      "chip": "ym2612"
    },
    {
      "channel": 2,
      "note": 62,
      "start": 164.526,
      "duration": 0.0686,
      "velocity": 106,
      "chip": "ym2612"
    },
    {
      "channel": 0,
      "note": 62,
      "start": 164.613,
      "duration": 0.0811,
      "velocity": 106,
      "chip": "ym2612"
    },
    {
      "channel": 2,
      "note": 71,
      "start": 164.6178,
      "duration": 0.0775,
      "velocity": 127,
      "chip": "ym2612"
    },
    {
      "channel": 0,
      "note": 62,
      "start": 164.7131,
      "duration": 0.0807,
      "velocity": 106,
      "chip": "ym2612"
    },
    {
      "channel": 2,
      "note": 50,
      "start": 164.7175,
      "duration": 0.0752,
      "velocity": 117,
      "chip": "ym2612"
    },
    {
      "channel": 0,
      "note": 74,
      "start": 164.7981,
      "duration": 0.0791,
      "velocity": 127,
      "chip": "ym2612"
    },
    {
      "channel": 1,
      "note": 62,
      "start": 164.8022,
      "duration": 0.2585,
      "velocity": 101,
      "chip": "ym2612"
    },
    {
      "channel": 2,
      "note": 62,
      "start": 164.8065,
      "duration": 0.0716,
      "velocity": 106,
      "chip": "ym2612"
    },
    {
      "channel": 3,
      "note": 50,
      "start": 164.8117,
      "duration": 0.0151,
      "velocity": 117,
      "chip": "ym2612"
    },
    {
      "channel": 0,
      "note": 62,
      "start": 164.8964,
      "duration": 0.0798,
      "velocity": 106,
      "chip": "ym2612"
    },
    {
      "channel": 0,
      "note": 62,
      "start": 164.9964,
      "duration": 0.0816,
      "velocity": 106,
      "chip": "ym2612"
    },
    {
      "channel": 2,
      "note": 71,
      "start": 165.0012,
      "duration": 0.0761,
      "velocity": 127,
      "chip": "ym2612"
    },
    {
      "channel": 3,
      "note": 50,
      "start": 165.0056,
      "duration": 0.0705,
      "velocity": 117,
      "chip": "ym2612"
    },
    {
      "channel": 0,
      "note": 50,
      "start": 165.0966,
      "duration": 0.0794,
      "velocity": 117,
      "chip": "ym2612"
    },
    {
      "channel": 1,
      "note": 62,
      "start": 165.1009,
      "duration": 0.076,
      "velocity": 106,
      "chip": "ym2612"
    },
    {
      "channel": 2,
      "note": 62,
      "start": 165.1049,
      "duration": 0.2547,
      "velocity": 101,
      "chip": "ym2612"
    },
    {
      "channel": 0,
      "note": 62,
      "start": 165.1811,
      "duration": 0.0785,
      "velocity": 106,
      "chip": "ym2612"
    },
    {
      "channel": 1,
      "note": 71,
      "start": 165.1858,
      "duration": 0.0748,
      "velocity": 127,
      "chip": "ym2612"
    },
    {
      "channel": 0,
      "note": 62,
      "start": 165.2798,
      "duration": 0.0812,
      "velocity": 106,
      "chip": "ym2612"
    },
    {
      "channel": 1,
      "note": 50,
      "start": 165.2841,
      "duration": 0.0761,
      "velocity": 117,
      "chip": "ym2612"
    },
    {
      "channel": 0,
      "note": 62,
      "start": 165.3797,
      "duration": 0.2632,
      "velocity": 101,
      "chip": "ym2612"
    },
    {
      "channel": 1,
      "note": 74,
      "start": 165.384,
      "duration": 0.0754,
      "velocity": 127,
      "chip": "ym2612"
    },
    {
      "channel": 2,
      "note": 62,
      "start": 165.3882,
      "duration": 0.0722,
      "velocity": 106,
      "chip": "ym2612"
    },
    {
      "channel": 3,
      "note": 50,
      "start": 165.3934,
      "duration": 0.0167,
      "velocity": 117,
      "chip": "ym2612"
    },
    {
      "channel": 1,
      "note": 62,
      "start": 165.4645,
      "duration": 0.0784,
      "velocity": 106,
      "chip": "ym2612"
    },
    {
      "channel": 1,
      "note": 50,
      "start": 165.5634,
      "duration": 0.0822,
      "velocity": 117,
      "chip": "ym2612"
    },
    {
      "channel": 2,
      "note": 71,
      "start": 165.5681,
      "duration": 0.077,
      "velocity": 127,
      "chip": "ym2612"
    },
    {
      "channel": 3,
      "note": 62,
      "start": 165.5723,
      "duration": 0.0716,
      "velocity": 106,
      "chip": "ym2612"
    },
    {
      "channel": 0,
      "note": 62,
      "start": 165.663,
      "duration": 0.2632,
      "velocity": 101,
      "chip": "ym2612"
    },
    {
      "channel": 1,
      "note": 62,
      "start": 165.6672,
      "duration": 0.0758,
      "velocity": 106,
      "chip": "ym2612"
    },
    {
      "channel": 2,
      "note": 50,
      "start": 165.6716,
      "duration": 0.072,
      "velocity": 117,
      "chip": "ym2612"
    },
    {
      "channel": 1,
      "note": 71,
      "start": 165.7636,
      "duration": 0.0797,
      "velocity": 127,
      "chip": "ym2612"
    },
    {
      "channel": 2,
      "note": 62,
      "start": 165.7678,
      "duration": 0.0765,
      "velocity": 106,
      "chip": "ym2612"
    },
    {
      "channel": 1,
      "note": 62,
      "start": 165.8485,
      "duration": 0.0791,
      "velocity": 106,
      "chip": "ym2612"
    },
    {
      "channel": 2,
      "note": 50,
      "start": 165.8529,
      "duration": 0.0739,
      "velocity": 117,
      "chip": "ym2612"
    },
    {
      "channel": 0,
      "note": 62,
      "start": 165.9465,
      "duration": 0.0798,
      "velocity": 106,
      "chip": "ym2612"
    },
    {
      "channel": 1,
      "note": 74,
      "start": 165.9508,
      "duration": 0.076,
      "velocity": 127,
      "chip": "ym2612"
    },
    {
      "channel": 2,
      "note": 62,
      "start": 165.9548,
      "duration": 0.2548,
      "velocity": 101,
      "chip": "ym2612"
    },
    {
      "channel": 3,
      "note": 50,
      "start": 165.9601,
      "duration": 0.0179,
      "velocity": 117,
      "chip": "ym2612"
    },
    {
      "channel": 0,
      "note": 62,
      "start": 166.0464,
      "duration": 0.08,
      "velocity": 106,
      "chip": "ym2612"
    },
    {
      "channel": 0,
      "note": 71,
      "start": 166.1311,
      "duration": 0.0812,
      "velocity": 127,
      "chip": "ym2612"
    },
    {
      "channel": 1,
      "note": 62,
      "start": 166.1354,
      "duration": 0.0758,
      "velocity": 106,
      "chip": "ym2612"
    },
    {
      "channel": 3,
      "note": 50,
      "start": 166.1398,
      "duration": 0.0706,
      "velocity": 117,
      "chip": "ym2612"
    },
    {
      "channel": 0,
      "note": 50,
      "start": 166.23,
      "duration": 0.0793,
      "velocity": 117,
      "chip": "ym2612"
    },
    {
      "channel": 1,
      "note": 62,
      "start": 166.234,
      "duration": 0.4588,
      "velocity": 101,
      "chip": "ym2612"
    },
    {
      "channel": 2,
      "note": 62,
      "start": 166.2382,
      "duration": 0.072,
      "velocity": 106,
      "chip": "ym2612"
    },
    {
      "channel": 0,
      "note": 62,
      "start": 166.3297,
      "duration": 0.0799,
      "velocity": 106,
      "chip": "ym2612"
    },
    {
      "channel": 2,
      "note": 71,
      "start": 166.3344,
      "duration": 0.0763,
      "velocity": 127,
      "chip": "ym2612"
    },
    {
      "channel": 0,
      "note": 50,
      "start": 166.4312,
      "duration": 0.0782,
      "velocity": 117,
      "chip": "ym2612"
    },
    {
      "channel": 2,
      "note": 62,
      "start": 166.4354,
      "duration": 0.075,
      "velocity": 106,
      "chip": "ym2612"
    },
    {
      "channel": 0,
      "note": 73,
      "start": 166.5153,
      "duration": 0.078,
      "velocity": 127,
      "chip": "ym2612"
    },
    {
      "channel": 2,
      "note": 62,
      "start": 166.5195,
      "duration": 0.0752,
      "velocity": 106,
      "chip": "ym2612"
    },
    {
      "channel": 3,
      "note": 50,
      "start": 166.524,
      "duration": 0.0699,
      "velocity": 117,
      "chip": "ym2612"
    },
    {
      "channel": 4,
      "note": 50,
      "start": 166.5293,
      "duration": 0.0142,
      "velocity": 117,
      "chip": "ym2612"
    },
    {
      "channel": 0,
      "note": 62,
      "start": 166.6144,
      "duration": 0.0812,
      "velocity": 106,
      "chip": "ym2612"
    },
    {
      "channel": 2,
      "note": 50,
      "start": 166.6188,
      "duration": 0.076,
      "velocity": 117,
      "chip": "ym2612"
    },
    {
      "channel": 3,
      "note": 73,
      "start": 166.6235,
      "duration": 0.0707,
      "velocity": 127,
      "chip": "ym2612"
    },
    {
      "channel": 0,
      "note": 73,
      "start": 166.7149,
      "duration": 0.0795,
      "velocity": 127,
      "chip": "ym2612"
    },
    {
      "channel": 1,
      "note": 50,
      "start": 166.7193,
      "duration": 0.0756,
      "velocity": 117,
      "chip": "ym2612"
    },
    {
      "channel": 2,
      "note": 60,
      "start": 166.7235,
      "duration": 0.3554,
      "velocity": 101,
      "chip": "ym2612"
    },
    {
      "channel": 3,
      "note": 60,
      "start": 166.7278,
      "duration": 0.3499,
      "velocity": 106,
      "chip": "ym2612"
    },
    {
      "channel": 0,
      "note": 50,
      "start": 166.7994,
      "duration": 0.0766,
      "velocity": 117,
      "chip": "ym2612"
    },
    {
      "channel": 0,
      "note": 50,
      "start": 166.9966,
      "duration": 0.0816,
      "velocity": 117,
      "chip": "ym2612"
    },
    {
      "channel": 0,
      "note": 74,
      "start": 167.0965,
      "duration": 0.0795,
      "velocity": 127,
      "chip": "ym2612"
    },
    {
      "channel": 1,
      "note": 60,
      "start": 167.1006,
      "duration": 0.2589,
      "velocity": 101,
      "chip": "ym2612"
    },
    {
      "channel": 2,
      "note": 60,
      "start": 167.1048,
      "duration": 0.0722,
      "velocity": 106,
      "chip": "ym2612"
    },
    {
      "channel": 3,
      "note": 50,
      "start": 167.11,
      "duration": 0.0167,
      "velocity": 117,
      "chip": "ym2612"
    },
    {
      "channel": 0,
      "note": 60,
      "start": 167.1811,
      "duration": 0.0797,
      "velocity": 106,
      "chip": "ym2612"
    },
    {
      "channel": 0,
      "note": 60,
      "start": 167.2798,
      "duration": 0.0824,
      "velocity": 106,
      "chip": "ym2612"
    },
    {
      "channel": 2,
      "note": 71,
      "start": 167.2845,
      "duration": 0.0769,
      "velocity": 127,
      "chip": "ym2612"
    },
    {
      "channel": 3,
      "note": 50,
      "start": 167.2889,
      "duration": 0.0714,
      "velocity": 117,
      "chip": "ym2612"
    },
    {
      "channel": 0,
      "note": 50,
      "start": 167.38,
      "duration": 0.0794,
      "velocity": 117,
      "chip": "ym2612"
    },
    {
      "channel": 1,
      "note": 60,
      "start": 167.3842,
      "duration": 0.076,
      "velocity": 106,
      "chip": "ym2612"
    },
    {
      "channel": 2,
      "note": 60,
      "start": 167.3882,
      "duration": 0.2546,
      "velocity": 101,
      "chip": "ym2612"
    },
    {
      "channel": 0,
      "note": 71,
      "start": 167.4649,
      "duration": 0.0783,
      "velocity": 127,
      "chip": "ym2612"
    },
    {
      "channel": 1,
      "note": 60,
      "start": 167.4691,
      "duration": 0.0748,
      "velocity": 106,
      "chip": "ym2612"
    },
    {
      "channel": 0,
      "note": 60,
      "start": 167.563,
      "duration": 0.0812,
      "velocity": 106,
      "chip": "ym2612"
    },
    {
      "channel": 1,
      "note": 50,
      "start": 167.5674,
      "duration": 0.0761,
      "velocity": 117,
      "chip": "ym2612"
    },
    {
      "channel": 0,
      "note": 60,
      "start": 167.663,
      "duration": 0.2632,
      "velocity": 101,
      "chip": "ym2612"
    },
    {
      "channel": 1,
      "note": 60,
      "start": 167.6673,
      "duration": 0.0757,
      "velocity": 106,
      "chip": "ym2612"
    },
    {
      "channel": 2,
      "note": 74,
      "start": 167.6715,
      "duration": 0.0721,
      "velocity": 127,
      "chip": "ym2612"
    },
    {
      "channel": 3,
      "note": 50,
      "start": 167.6768,
      "duration": 0.0167,
      "velocity": 117,
      "chip": "ym2612"
    },
    {
      "channel": 1,
      "note": 60,
      "start": 167.763,
      "duration": 0.08,
      "velocity": 106,
      "chip": "ym2612"
    },
    {
      "channel": 1,
      "note": 50,
      "start": 167.8475,
      "duration": 0.0814,
      "velocity": 117,
      "chip": "ym2612"
    },
    {
      "channel": 2,
      "note": 71,
      "start": 167.8523,
      "duration": 0.0761,
      "velocity": 127,
      "chip": "ym2612"
    },
    {
      "channel": 3,
      "note": 60,
      "start": 167.8565,
      "duration": 0.0707,
      "velocity": 106,
      "chip": "ym2612"
    },
    {
      "channel": 0,
      "note": 60,
      "start": 167.9463,
      "duration": 0.2632,
      "velocity": 101,
      "chip": "ym2612"
    },
    {
      "channel": 1,
      "note": 60,
      "start": 167.9505,
      "duration": 0.0758,
      "velocity": 106,
      "chip": "ym2612"
    },
    {
      "channel": 2,
      "note": 50,
      "start": 167.9549,
      "duration": 0.072,
      "velocity": 117,
      "chip": "ym2612"
    },
    {
      "channel": 1,
      "note": 60,
      "start": 168.0464,
      "duration": 0.0799,
      "velocity": 106,
      "chip": "ym2612"
    },
    {
      "channel": 2,
      "note": 71,
      "start": 168.0511,
      "duration": 0.0765,
      "velocity": 127,
      "chip": "ym2612"
    },
    {
      "channel": 1,
      "note": 60,
      "start": 168.1318,
      "duration": 0.0791,
      "velocity": 106,
      "chip": "ym2612"
    },
    {
      "channel": 2,
      "note": 50,
      "start": 168.1362,
      "duration": 0.0739,
      "velocity": 117,
      "chip": "ym2612"
    },
    {
      "channel": 0,
      "note": 74,
      "start": 168.2298,
      "duration": 0.0795,
      "velocity": 127,
      "chip": "ym2612"
    },
    {
      "channel": 1,
      "note": 60,
      "start": 168.234,
      "duration": 0.1755,
      "velocity": 101,
      "chip": "ym2612"
    },
    {
      "channel": 2,
      "note": 60,
      "start": 168.2382,
      "duration": 0.072,
      "velocity": 106,
      "chip": "ym2612"
    },
    {
      "channel": 3,
      "note": 50,
      "start": 168.2434,
      "duration": 0.0179,
      "velocity": 117,
      "chip": "ym2612"
    },
    {
      "channel": 0,
      "note": 60,
      "start": 168.3297,
      "duration": 0.0805,
      "velocity": 106,
      "chip": "ym2612"
    },
    {
      "channel": 0,
      "note": 71,
      "start": 168.4303,
      "duration": 0.0796,
      "velocity": 127,
      "chip": "ym2612"
    },
    {
      "channel": 1,
      "note": 50,
      "start": 168.4348,
      "duration": 0.0757,
      "velocity": 117,
      "chip": "ym2612"
    },
    {
      "channel": 2,
      "note": 62,
      "start": 168.4389,
      "duration": 0.3561,
      "velocity": 101,
      "chip": "ym2612"
    },
    {
      "channel": 3,
      "note": 62,
      "start": 168.4433,
      "duration": 0.3499,
      "velocity": 106,
      "chip": "ym2612"
    },
    {
      "channel": 0,
      "note": 50,
      "start": 168.5148,
      "duration": 0.0778,
      "velocity": 117,
      "chip": "ym2612"
    },
    {
      "channel": 0,
      "note": 71,
      "start": 168.6136,
      "duration": 0.0796,
      "velocity": 127,
      "chip": "ym2612"
    },
    {
      "channel": 0,
      "note": 50,
      "start": 168.7133,
      "duration": 0.0807,
      "velocity": 117,
      "chip": "ym2612"
    },
    {
      "channel": 0,
      "note": 65,
      "start": 168.7991,
      "duration": 0.2603,
      "velocity": 101,
      "chip": "ym2612"
    },
    {
      "channel": 1,
      "note": 65,
      "start": 168.8034,
      "duration": 0.0729,
      "velocity": 106,
      "chip": "ym2612"
    },
    {
      "channel": 2,
      "note": 74,
      "start": 168.8076,
      "duration": 0.0693,
      "velocity": 127,
      "chip": "ym2612"
    },
    {
      "channel": 3,
      "note": 50,
      "start": 168.8129,
      "duration": 0.0139,
      "velocity": 117,
      "chip": "ym2612"
    },
    {
      "channel": 1,
      "note": 65,
      "start": 168.8964,
      "duration": 0.0799,
      "velocity": 106,
      "chip": "ym2612"
    },
    {
      "channel": 1,
      "note": 71,
      "start": 168.9982,
      "duration": 0.08,
      "velocity": 127,
      "chip": "ym2612"
    },
    {
      "channel": 2,
      "note": 65,
      "start": 169.0024,
      "duration": 0.0746,
      "velocity": 106,
      "chip": "ym2612"
    },
    {
      "channel": 3,
      "note": 50,
      "start": 169.0068,
      "duration": 0.0693,
      "velocity": 117,
      "chip": "ym2612"
    },
    {
      "channel": 0,
      "note": 62,
      "start": 169.0975,
      "duration": 0.2632,
      "velocity": 101,
      "chip": "ym2612"
    },
    {
      "channel": 1,
      "note": 62,
      "start": 169.1017,
      "duration": 0.0758,
      "velocity": 106,
      "chip": "ym2612"
    },
    {
      "channel": 2,
      "note": 50,
      "start": 169.1061,
      "duration": 0.0722,
      "velocity": 117,
      "chip": "ym2612"
    },
    {
      "channel": 1,
      "note": 62,
      "start": 169.1824,
      "duration": 0.0772,
      "velocity": 106,
      "chip": "ym2612"
    },
    {
      "channel": 2,
      "note": 71,
      "start": 169.1871,
      "duration": 0.0737,
      "velocity": 127,
      "chip": "ym2612"
    },
    {
      "channel": 1,
      "note": 50,
      "start": 169.2812,
      "duration": 0.0809,
      "velocity": 117,
      "chip": "ym2612"
    },
    {
      "channel": 2,
      "note": 62,
      "start": 169.2854,
      "duration": 0.0762,
      "velocity": 106,
      "chip": "ym2612"
    },
    {
      "channel": 0,
      "note": 74,
      "start": 169.3798,
      "duration": 0.0808,
      "velocity": 127,
      "chip": "ym2612"
    },
    {
      "channel": 1,
      "note": 62,
      "start": 169.384,
      "duration": 0.2602,
      "velocity": 101,
      "chip": "ym2612"
    },
    {
      "channel": 2,
      "note": 62,
      "start": 169.3882,
      "duration": 0.0733,
      "velocity": 106,
      "chip": "ym2612"
    },
    {
      "channel": 3,
      "note": 50,
      "start": 169.3934,
      "duration": 0.0167,
      "velocity": 117,
      "chip": "ym2612"
    },
    {
      "channel": 0,
      "note": 62,
      "start": 169.4657,
      "duration": 0.0784,
      "velocity": 106,
      "chip": "ym2612"
    },
    {
      "channel": 0,
      "note": 71,
      "start": 169.5636,
      "duration": 0.0832,
      "velocity": 127,
      "chip": "ym2612"
    },
    {
      "channel": 2,
      "note": 50,
      "start": 169.5681,
      "duration": 0.0777,
      "velocity": 117,
      "chip": "ym2612"
    },
    {
      "channel": 3,
      "note": 62,
      "start": 169.5723,
      "duration": 0.0729,
      "velocity": 106,
      "chip": "ym2612"
    },
    {
      "channel": 0,
      "note": 50,
      "start": 169.6633,
      "duration": 0.0794,
      "velocity": 117,
      "chip": "ym2612"
    },
    {
      "channel": 1,
      "note": 65,
      "start": 169.6674,
      "duration": 0.2588,
      "velocity": 101,
      "chip": "ym2612"
    },
    {
      "channel": 2,
      "note": 65,
      "start": 169.6716,
      "duration": 0.072,
      "velocity": 106,
      "chip": "ym2612"
    },
    {
      "channel": 0,
      "note": 71,
      "start": 169.7636,
      "duration": 0.0797,
      "velocity": 127,
      "chip": "ym2612"
    },
    {
      "channel": 2,
      "note": 65,
      "start": 169.7678,
      "duration": 0.0765,
      "velocity": 106,
      "chip": "ym2612"
    },
    {
      "channel": 0,
      "note": 50,
      "start": 169.8487,
      "duration": 0.079,
      "velocity": 117,
      "chip": "ym2612"
    },
    {
      "channel": 2,
      "note": 65,
      "start": 169.8528,
      "duration": 0.0743,
      "velocity": 106,
      "chip": "ym2612"
    },
    {
      "channel": 0,
      "note": 74,
      "start": 169.9465,
      "duration": 0.0795,
      "velocity": 127,
      "chip": "ym2612"
    },
    {
      "channel": 1,
      "note": 62,
      "start": 169.9506,
      "duration": 0.1756,
      "velocity": 101,
      "chip": "ym2612"
    },
    {
      "channel": 2,
      "note": 62,
      "start": 169.9549,
      "duration": 0.072,
      "velocity": 106,
      "chip": "ym2612"
    },
    {
      "channel": 3,
      "note": 50,
      "start": 169.9601,
      "duration": 0.0167,
      "velocity": 117,
      "chip": "ym2612"
    },
    {
      "channel": 0,
      "note": 62,
      "start": 170.0464,
      "duration": 0.0809,
      "velocity": 106,
      "chip": "ym2612"
    },
    {
      "channel": 0,
      "note": 71,
      "start": 170.1321,
      "duration": 0.0778,
      "velocity": 127,
      "chip": "ym2612"
    },
    {
      "channel": 1,
      "note": 50,
      "start": 170.1366,
      "duration": 0.0738,
      "velocity": 117,
      "chip": "ym2612"
    },
    {
      "channel": 2,
      "note": 60,
      "start": 170.1408,
      "duration": 0.353,
      "velocity": 106,
      "chip": "ym2612"
    },
    {
      "channel": 3,
      "note": 60,
      "start": 170.145,
      "duration": 0.3479,
      "velocity": 101,
      "chip": "ym2612"
    },
    {
      "channel": 0,
      "note": 50,
      "start": 170.23,
      "duration": 0.0793,
      "velocity": 117,
      "chip": "ym2612"
    },
    {
      "channel": 0,
      "note": 50,
      "start": 170.4299,
      "duration": 0.0794,
      "velocity": 117,
      "chip": "ym2612"
    },
    {
      "channel": 0,
      "note": 74,
      "start": 170.5137,
      "duration": 0.079,
      "velocity": 127,
      "chip": "ym2612"
    },
    {
      "channel": 1,
      "note": 60,
      "start": 170.5179,
      "duration": 0.0755,
      "velocity": 106,
      "chip": "ym2612"
    },
    {
      "channel": 2,
      "note": 60,
      "start": 170.522,
      "duration": 0.2541,
      "velocity": 101,
      "chip": "ym2612"
    },
    {
      "channel": 3,
      "note": 50,
      "start": 170.5272,
      "duration": 0.0162,
      "velocity": 117,
      "chip": "ym2612"
    },
    {
      "channel": 0,
      "note": 60,
      "start": 170.613,
      "duration": 0.0798,
      "velocity": 106,
      "chip": "ym2612"
    },
    {
      "channel": 0,
      "note": 71,
      "start": 170.7136,
      "duration": 0.0816,
      "velocity": 127,
      "chip": "ym2612"
    },
    {
      "channel": 1,
      "note": 50,
      "start": 170.7181,
      "duration": 0.0759,
      "velocity": 117,
      "chip": "ym2612"
    },
    {
      "channel": 3,
      "note": 60,
      "start": 170.7223,
      "duration": 0.0709,
      "velocity": 106,
      "chip": "ym2612"
    },
    {
      "channel": 0,
      "note": 50,
      "start": 170.7997,
      "duration": 0.0763,
      "velocity": 117,
      "chip": "ym2612"
    },
    {
      "channel": 1,
      "note": 60,
      "start": 170.8038,
      "duration": 0.2557,
      "velocity": 101,
      "chip": "ym2612"
    },
    {
      "channel": 2,
      "note": 60,
      "start": 170.8079,
      "duration": 0.0689,
      "velocity": 106,
      "chip": "ym2612"
    },
    {
      "channel": 0,
      "note": 71,
      "start": 170.8969,
      "duration": 0.0796,
      "velocity": 127,
      "chip": "ym2612"
    },
    {
      "channel": 2,
      "note": 60,
      "start": 170.9011,
      "duration": 0.0763,
      "velocity": 106,
      "chip": "ym2612"
    },
    {
      "channel": 0,
      "note": 60,
      "start": 170.9964,
      "duration": 0.0804,
      "velocity": 106,
      "chip": "ym2612"
    },
    {
      "channel": 2,
      "note": 50,
      "start": 171.0008,
      "duration": 0.0753,
      "velocity": 117,
      "chip": "ym2612"
    },
    {
      "channel": 0,
      "note": 74,
      "start": 171.0965,
      "duration": 0.0796,
      "velocity": 127,
      "chip": "ym2612"
    },
    {
      "channel": 1,
      "note": 60,
      "start": 171.1006,
      "duration": 0.2589,
      "velocity": 101,
      "chip": "ym2612"
    },
    {
      "channel": 2,
      "note": 60,
      "start": 171.1048,
      "duration": 0.0722,
      "velocity": 106,
      "chip": "ym2612"
    },
    {
      "channel": 3,
      "note": 50,
      "start": 171.1101,
      "duration": 0.0167,
      "velocity": 117,
      "chip": "ym2612"
    },
    {
      "channel": 0,
      "note": 60,
      "start": 171.1811,
      "duration": 0.0784,
      "velocity": 106,
      "chip": "ym2612"
    },
    {
      "channel": 0,
      "note": 71,
      "start": 171.2803,
      "duration": 0.082,
      "velocity": 127,
      "chip": "ym2612"
    },
    {
      "channel": 2,
      "note": 50,
      "start": 171.2847,
      "duration": 0.0765,
      "velocity": 117,
      "chip": "ym2612"
    },
    {
      "channel": 3,
      "note": 60,
      "start": 171.2889,
      "duration": 0.0716,
      "velocity": 106,
      "chip": "ym2612"
    },
    {
      "channel": 0,
      "note": 60,
      "start": 171.3808,
      "duration": 0.262,
      "velocity": 101,
      "chip": "ym2612"
    },
    {
      "channel": 1,
      "note": 60,
      "start": 171.385,
      "duration": 0.0747,
      "velocity": 106,
      "chip": "ym2612"
    },
    {
      "channel": 2,
      "note": 50,
      "start": 171.3893,
      "duration": 0.071,
      "velocity": 117,
      "chip": "ym2612"
    },
    {
      "channel": 1,
      "note": 60,
      "start": 171.4646,
      "duration": 0.0783,
      "velocity": 106,
      "chip": "ym2612"
    },
    {
      "channel": 2,
      "note": 71,
      "start": 171.4693,
      "duration": 0.0748,
      "velocity": 127,
      "chip": "ym2612"
    },
    {
      "channel": 1,
      "note": 50,
      "start": 171.5646,
      "duration": 0.0797,
      "velocity": 117,
      "chip": "ym2612"
    },
    {
      "channel": 2,
      "note": 60,
      "start": 171.5687,
      "duration": 0.075,
      "velocity": 106,
      "chip": "ym2612"
    },
    {
      "channel": 0,
      "note": 60,
      "start": 171.6642,
      "duration": 0.1798,
      "velocity": 101,
      "chip": "ym2612"
    },
    {
      "channel": 1,
      "note": 60,
      "start": 171.6685,
      "duration": 0.0757,
      "velocity": 106,
      "chip": "ym2612"
    },
    {
      "channel": 2,
      "note": 74,
      "start": 171.6727,
      "duration": 0.0721,
      "velocity": 127,
      "chip": "ym2612"
    },
    {
      "channel": 3,
      "note": 50,
      "start": 171.678,
      "duration": 0.0155,
      "velocity": 117,
      "chip": "ym2612"
    },
    {
      "channel": 1,
      "note": 60,
      "start": 171.763,
      "duration": 0.0821,
      "velocity": 106,
      "chip": "ym2612"
    },
    {
      "channel": 0,
      "note": 71,
      "start": 171.8499,
      "duration": 0.0778,
      "velocity": 127,
      "chip": "ym2612"
    },
    {
      "channel": 1,
      "note": 62,
      "start": 171.8541,
      "duration": 0.3581,
      "velocity": 101,
      "chip": "ym2612"
    },
    {
      "channel": 2,
      "note": 62,
      "start": 171.8585,
      "duration": 0.3525,
      "velocity": 106,
      "chip": "ym2612"
    },
    {
      "channel": 3,
      "note": 50,
      "start": 171.8629,
      "duration": 0.0654,
      "velocity": 117,
      "chip": "ym2612"
    },
    {
      "channel": 0,
      "note": 50,
      "start": 171.9466,
      "duration": 0.0805,
      "velocity": 117,
      "chip": "ym2612"
    },
    {
      "channel": 0,
      "note": 50,
      "start": 172.13,
      "duration": 0.0815,
      "velocity": 117,
      "chip": "ym2612"
    },
    {
      "channel": 0,
      "note": 74,
      "start": 172.2298,
      "duration": 0.0795,
      "velocity": 127,
      "chip": "ym2612"
    },
    {
      "channel": 1,
      "note": 67,
      "start": 172.2341,
      "duration": 0.076,
      "velocity": 106,
      "chip": "ym2612"
    },
    {
      "channel": 2,
      "note": 67,
      "start": 172.2382,
      "duration": 0.2546,
      "velocity": 101,
      "chip": "ym2612"
    },
    {
      "channel": 3,
      "note": 50,
      "start": 172.2434,
      "duration": 0.0167,
      "velocity": 117,
      "chip": "ym2612"
    },
    {
      "channel": 0,
      "note": 67,
      "start": 172.3297,
      "duration": 0.0798,
      "velocity": 106,
      "chip": "ym2612"
    },
    {
      "channel": 0,
      "note": 71,
      "start": 172.4303,
      "duration": 0.0816,
      "velocity": 127,
      "chip": "ym2612"
    },
    {
      "channel": 1,
      "note": 67,
      "start": 172.4345,
      "duration": 0.0761,
      "velocity": 106,
      "chip": "ym2612"
    },
    {
      "channel": 3,
      "note": 50,
      "start": 172.4389,
      "duration": 0.0706,
      "velocity": 117,
      "chip": "ym2612"
    },
    {
      "channel": 0,
      "note": 62,
      "start": 172.516,
      "duration": 0.2601,
      "velocity": 101,
      "chip": "ym2612"
    },
    {
      "channel": 1,
      "note": 50,
      "start": 172.5204,
      "duration": 0.0723,
      "velocity": 117,
      "chip": "ym2612"
    },
    {
      "channel": 2,
      "note": 62,
      "start": 172.5246,
      "duration": 0.069,
      "velocity": 106,
      "chip": "ym2612"
    },
    {
      "channel": 1,
      "note": 71,
      "start": 172.6136,
      "duration": 0.0797,
      "velocity": 127,
      "chip": "ym2612"
    },
    {
      "channel": 2,
      "note": 62,
      "start": 172.6178,
      "duration": 0.0763,
      "velocity": 106,
      "chip": "ym2612"
    },
    {
      "channel": 1,
      "note": 62,
      "start": 172.7131,
      "duration": 0.0807,
      "velocity": 106,
      "chip": "ym2612"
    },
    {
      "channel": 2,
      "note": 50,
      "start": 172.7175,
      "duration": 0.0753,
      "velocity": 117,
      "chip": "ym2612"
    },
    {
      "channel": 0,
      "note": 74,
      "start": 172.7982,
      "duration": 0.0778,
      "velocity": 127,
      "chip": "ym2612"
    },
    {
      "channel": 1,
      "note": 60,
      "start": 172.8023,
      "duration": 0.2571,
      "velocity": 101,
      "chip": "ym2612"
    },
    {
      "channel": 2,
      "note": 60,
      "start": 172.8065,
      "duration": 0.0704,
      "velocity": 106,
      "chip": "ym2612"
    },
    {
      "channel": 3,
      "note": 50,
      "start": 172.8117,
      "duration": 0.0151,
      "velocity": 117,
      "chip": "ym2612"
    },
    {
      "channel": 0,
      "note": 60,
      "start": 172.8964,
      "duration": 0.0798,
      "velocity": 106,
      "chip": "ym2612"
    },
    {
      "channel": 0,
      "note": 71,
      "start": 172.9969,
      "duration": 0.0811,
      "velocity": 127,
      "chip": "ym2612"
    },
    {
      "channel": 2,
      "note": 60,
      "start": 173.0012,
      "duration": 0.0758,
      "velocity": 106,
      "chip": "ym2612"
    },
    {
      "channel": 3,
      "note": 50,
      "start": 173.0056,
      "duration": 0.0705,
      "velocity": 117,
      "chip": "ym2612"
    },
    {
      "channel": 0,
      "note": 62,
      "start": 173.0963,
      "duration": 0.2632,
      "velocity": 101,
      "chip": "ym2612"
    },
    {
      "channel": 1,
      "note": 62,
      "start": 173.1005,
      "duration": 0.0759,
      "velocity": 106,
      "chip": "ym2612"
    },
    {
      "channel": 2,
      "note": 50,
      "start": 173.1049,
      "duration": 0.0722,
      "velocity": 117,
      "chip": "ym2612"
    },
    {
      "channel": 1,
      "note": 62,
      "start": 173.1813,
      "duration": 0.0784,
      "velocity": 106,
      "chip": "ym2612"
    },
    {
      "channel": 2,
      "note": 71,
      "start": 173.1859,
      "duration": 0.0748,
      "velocity": 127,
      "chip": "ym2612"
    },
    {
      "channel": 1,
      "note": 62,
      "start": 173.2798,
      "duration": 0.0811,
      "velocity": 106,
      "chip": "ym2612"
    },
    {
      "channel": 2,
      "note": 50,
      "start": 173.2841,
      "duration": 0.076,
      "velocity": 117,
      "chip": "ym2612"
    },
    {
      "channel": 0,
      "note": 74,
      "start": 173.3798,
      "duration": 0.0795,
      "velocity": 127,
      "chip": "ym2612"
    },
    {
      "channel": 1,
      "note": 60,
      "start": 173.3841,
      "duration": 0.0761,
      "velocity": 106,
      "chip": "ym2612"
    },
    {
      "channel": 2,
      "note": 60,
      "start": 173.3882,
      "duration": 0.1715,
      "velocity": 101,
      "chip": "ym2612"
    },
    {
      "channel": 3,
      "note": 50,
      "start": 173.3934,
      "duration": 0.0167,
      "velocity": 117,
      "chip": "ym2612"
    },
    {
      "channel": 0,
      "note": 60,
      "start": 173.4644,
      "duration": 0.0785,
      "velocity": 106,
      "chip": "ym2612"
    },
    {
      "channel": 0,
      "note": 50,
      "start": 173.5641,
      "duration": 0.0785,
      "velocity": 117,
      "chip": "ym2612"
    },
    {
      "channel": 1,
      "note": 71,
      "start": 173.5689,
      "duration": 0.0748,
      "velocity": 127,
      "chip": "ym2612"
    },
    {
      "channel": 2,
      "note": 58,
      "start": 173.5731,
      "duration": 0.3545,
      "velocity": 106,
      "chip": "ym2612"
    },
    {
      "channel": 3,
      "note": 58,
      "start": 173.5774,
      "duration": 0.3489,
      "velocity": 101,
      "chip": "ym2612"
    },
    {
      "channel": 0,
      "note": 50,
      "start": 173.6633,
      "duration": 0.0793,
      "velocity": 117,
      "chip": "ym2612"
    },
    {
      "channel": 0,
      "note": 50,
      "start": 173.8466,
      "duration": 0.0802,
      "velocity": 117,
      "chip": "ym2612"
    },
    {
      "channel": 0,
      "note": 58,
      "start": 173.9476,
      "duration": 0.262,
      "velocity": 101,
      "chip": "ym2612"
    },
    {
      "channel": 1,
      "note": 58,
      "start": 173.9518,
      "duration": 0.0744,
      "velocity": 106,
      "chip": "ym2612"
    },
    {
      "channel": 2,
      "note": 74,
      "start": 173.9561,
      "duration": 0.0708,
      "velocity": 127,
      "chip": "ym2612"
    },
    {
      "channel": 3,
      "note": 50,
      "start": 173.9614,
      "duration": 0.0154,
      "velocity": 117,
      "chip": "ym2612"
    },
    {
      "channel": 1,
      "note": 58,
      "start": 174.0476,
      "duration": 0.0799,
      "velocity": 106,
      "chip": "ym2612"
    },
    {
      "channel": 1,
      "note": 71,
      "start": 174.1324,
      "duration": 0.0798,
      "velocity": 127,
      "chip": "ym2612"
    },
    {
      "channel": 2,
      "note": 58,
      "start": 174.1366,
      "duration": 0.0746,
      "velocity": 106,
      "chip": "ym2612"
    },
    {
      "channel": 3,
      "note": 50,
      "start": 174.141,
      "duration": 0.0693,
      "velocity": 117,
      "chip": "ym2612"
    },
    {
      "channel": 0,
      "note": 50,
      "start": 174.2312,
      "duration": 0.0792,
      "velocity": 117,
      "chip": "ym2612"
    },
    {
      "channel": 1,
      "note": 58,
      "start": 174.2353,
      "duration": 0.2587,
      "velocity": 101,
      "chip": "ym2612"
    },
    {
      "channel": 2,
      "note": 58,
      "start": 174.2394,
      "duration": 0.0718,
      "velocity": 106,
      "chip": "ym2612"
    },
    {
      "channel": 0,
      "note": 58,
      "start": 174.3298,
      "duration": 0.081,
      "velocity": 106,
      "chip": "ym2612"
    },
    {
      "channel": 2,
      "note": 71,
      "start": 174.3344,
      "duration": 0.0775,
      "velocity": 127,
      "chip": "ym2612"
    },
    {
      "channel": 0,
      "note": 50,
      "start": 174.43,
      "duration": 0.0805,
      "velocity": 117,
      "chip": "ym2612"
    },
    {
      "channel": 2,
      "note": 58,
      "start": 174.4341,
      "duration": 0.0756,
      "velocity": 106,
      "chip": "ym2612"
    },
    {
      "channel": 0,
      "note": 58,
      "start": 174.5147,
      "duration": 0.2626,
      "velocity": 101,
      "chip": "ym2612"
    },
    {
      "channel": 1,
      "note": 58,
      "start": 174.519,
      "duration": 0.0753,
      "velocity": 106,
      "chip": "ym2612"
    },
    {
      "channel": 2,
      "note": 74,
      "start": 174.5232,
      "duration": 0.0716,
      "velocity": 127,
      "chip": "ym2612"
    },
    {
      "channel": 3,
      "note": 50,
      "start": 174.5285,
      "duration": 0.0149,
      "velocity": 117,
      "chip": "ym2612"
    },
    {
      "channel": 1,
      "note": 58,
      "start": 174.613,
      "duration": 0.0799,
      "velocity": 106,
      "chip": "ym2612"
    },
    {
      "channel": 1,
      "note": 71,
      "start": 174.7137,
      "duration": 0.0816,
      "velocity": 127,
      "chip": "ym2612"
    },
    {
      "channel": 2,
      "note": 50,
      "start": 174.7181,
      "duration": 0.0759,
      "velocity": 117,
      "chip": "ym2612"
    },
    {
      "channel": 3,
      "note": 58,
      "start": 174.7223,
      "duration": 0.0709,
      "velocity": 106,
      "chip": "ym2612"
    },
    {
      "channel": 0,
      "note": 50,
      "start": 174.7998,
      "duration": 0.0762,
      "velocity": 117,
      "chip": "ym2612"
    },
    {
      "channel": 1,
      "note": 58,
      "start": 174.8039,
      "duration": 0.0728,
      "velocity": 106,
      "chip": "ym2612"
    },
    {
      "channel": 2,
      "note": 58,
      "start": 174.808,
      "duration": 0.2515,
      "velocity": 101,
      "chip": "ym2612"
    },
    {
      "channel": 0,
      "note": 58,
      "start": 174.8964,
      "duration": 0.0798,
      "velocity": 106,
      "chip": "ym2612"
    },
    {
      "channel": 1,
      "note": 71,
      "start": 174.9011,
      "duration": 0.0762,
      "velocity": 127,
      "chip": "ym2612"
    },
    {
      "channel": 0,
      "note": 50,
      "start": 174.9966,
      "duration": 0.0802,
      "velocity": 117,
      "chip": "ym2612"
    },
    {
      "channel": 1,
      "note": 58,
      "start": 175.0008,
      "duration": 0.0755,
      "velocity": 106,
      "chip": "ym2612"
    },
    {
      "channel": 0,
      "note": 58,
      "start": 175.0963,
      "duration": 0.1798,
      "velocity": 101,
      "chip": "ym2612"
    },
    {
      "channel": 1,
      "note": 58,
      "start": 175.1006,
      "duration": 0.0757,
      "velocity": 106,
      "chip": "ym2612"
    },
    {
      "channel": 2,
      "note": 74,
      "start": 175.1048,
      "duration": 0.0722,
      "velocity": 127,
      "chip": "ym2612"
    },
    {
      "channel": 3,
      "note": 50,
      "start": 175.1101,
      "duration": 0.0167,
      "velocity": 117,
      "chip": "ym2612"
    },
    {
      "channel": 1,
      "note": 58,
      "start": 175.1812,
      "duration": 0.0784,
      "velocity": 106,
      "chip": "ym2612"
    },
    {
      "channel": 0,
      "note": 60,
      "start": 175.2803,
      "duration": 0.3625,
      "velocity": 101,
      "chip": "ym2612"
    },
    {
      "channel": 1,
      "note": 50,
      "start": 175.2848,
      "duration": 0.0745,
      "velocity": 117,
      "chip": "ym2612"
    },
    {
      "channel": 2,
      "note": 60,
      "start": 175.289,
      "duration": 0.3552,
      "velocity": 106,
      "chip": "ym2612"
    },
    {
      "channel": 3,
      "note": 71,
      "start": 175.2938,
      "duration": 0.0667,
      "velocity": 127,
      "chip": "ym2612"
    },
    {
      "channel": 1,
      "note": 50,
      "start": 175.38,
      "duration": 0.0794,
      "velocity": 117,
      "chip": "ym2612"
    },
    {
      "channel": 1,
      "note": 50,
      "start": 175.5633,
      "duration": 0.0801,
      "velocity": 117,
      "chip": "ym2612"
    },
    {
      "channel": 0,
      "note": 74,
      "start": 175.6632,
      "duration": 0.0795,
      "velocity": 127,
      "chip": "ym2612"
    },
    {
      "channel": 1,
      "note": 60,
      "start": 175.6674,
      "duration": 0.076,
      "velocity": 106,
      "chip": "ym2612"
    },
    {
      "channel": 2,
      "note": 60,
      "start": 175.6715,
      "duration": 0.2548,
      "velocity": 101,
      "chip": "ym2612"
    },
    {
      "channel": 3,
      "note": 50,
      "start": 175.6767,
      "duration": 0.0179,
      "velocity": 117,
      "chip": "ym2612"
    },
    {
      "channel": 0,
      "note": 60,
      "start": 175.763,
      "duration": 0.08,
      "velocity": 106,
      "chip": "ym2612"
    },
    {
      "channel": 0,
      "note": 71,
      "start": 175.8478,
      "duration": 0.0812,
      "velocity": 127,
      "chip": "ym2612"
    },
    {
      "channel": 1,
      "note": 60,
      "start": 175.852,
      "duration": 0.0758,
      "velocity": 106,
      "chip": "ym2612"
    },
    {
      "channel": 3,
      "note": 50,
      "start": 175.8564,
      "duration": 0.0706,
      "velocity": 117,
      "chip": "ym2612"
    },
    {
      "channel": 0,
      "note": 50,
      "start": 175.9466,
      "duration": 0.0793,
      "velocity": 117,
      "chip": "ym2612"
    },
    {
      "channel": 1,
      "note": 60,
      "start": 175.9507,
      "duration": 0.2588,
      "velocity": 101,
      "chip": "ym2612"
    },
    {
      "channel": 2,
      "note": 60,
      "start": 175.9549,
      "duration": 0.072,
      "velocity": 106,
      "chip": "ym2612"
    },
    {
      "channel": 0,
      "note": 60,
      "start": 176.0464,
      "duration": 0.0799,
      "velocity": 106,
      "chip": "ym2612"
    },
    {
      "channel": 2,
      "note": 71,
      "start": 176.0511,
      "duration": 0.0765,
      "velocity": 127,
      "chip": "ym2612"
    },
    {
      "channel": 0,
      "note": 60,
      "start": 176.1317,
      "duration": 0.0792,
      "velocity": 106,
      "chip": "ym2612"
    },
    {
      "channel": 2,
      "note": 50,
      "start": 176.1361,
      "duration": 0.0741,
      "velocity": 117,
      "chip": "ym2612"
    },
    {
      "channel": 0,
      "note": 60,
      "start": 176.2298,
      "duration": 0.0798,
      "velocity": 106,
      "chip": "ym2612"
    },
    {
      "channel": 1,
      "note": 74,
      "start": 176.2341,
      "duration": 0.076,
      "velocity": 127,
      "chip": "ym2612"
    },
    {
      "channel": 2,
      "note": 60,
      "start": 176.2382,
      "duration": 0.2546,
      "velocity": 101,
      "chip": "ym2612"
    },
    {
      "channel": 3,
      "note": 50,
      "start": 176.2434,
      "duration": 0.0167,
      "velocity": 117,
      "chip": "ym2612"
    },
    {
      "channel": 0,
      "note": 60,
      "start": 176.3309,
      "duration": 0.0786,
      "velocity": 106,
      "chip": "ym2612"
    },
    {
      "channel": 0,
      "note": 71,
      "start": 176.4315,
      "duration": 0.0815,
      "velocity": 127,
      "chip": "ym2612"
    },
    {
      "channel": 1,
      "note": 50,
      "start": 176.4359,
      "duration": 0.0758,
      "velocity": 117,
      "chip": "ym2612"
    },
    {
      "channel": 3,
      "note": 60,
      "start": 176.4401,
      "duration": 0.0709,
      "velocity": 106,
      "chip": "ym2612"
    },
    {
      "channel": 0,
      "note": 60,
      "start": 176.5171,
      "duration": 0.259,
      "velocity": 101,
      "chip": "ym2612"
    },
    {
      "channel": 1,
      "note": 60,
      "start": 176.5213,
      "duration": 0.0716,
      "velocity": 106,
      "chip": "ym2612"
    },
    {
      "channel": 2,
      "note": 50,
      "start": 176.5258,
      "duration": 0.0677,
      "velocity": 117,
      "chip": "ym2612"
    },
    {
      "channel": 1,
      "note": 71,
      "start": 176.6148,
      "duration": 0.0796,
      "velocity": 127,
      "chip": "ym2612"
    },
    {
      "channel": 2,
      "note": 60,
      "start": 176.619,
      "duration": 0.0763,
      "velocity": 106,
      "chip": "ym2612"
    },
    {
      "channel": 1,
      "note": 60,
      "start": 176.7131,
      "duration": 0.0819,
      "velocity": 106,
      "chip": "ym2612"
    },
    {
      "channel": 2,
      "note": 50,
      "start": 176.7174,
      "duration": 0.0766,
      "velocity": 117,
      "chip": "ym2612"
    },
    {
      "channel": 0,
      "note": 74,
      "start": 176.7994,
      "duration": 0.0778,
      "velocity": 127,
      "chip": "ym2612"
    },
    {
      "channel": 1,
      "note": 60,
      "start": 176.8036,
      "duration": 0.1738,
      "velocity": 101,
      "chip": "ym2612"
    },
    {
      "channel": 2,
      "note": 60,
      "start": 176.8078,
      "duration": 0.0703,
      "velocity": 106,
      "chip": "ym2612"
    },
    {
      "channel": 3,
      "note": 50,
      "start": 176.813,
      "duration": 0.0138,
      "velocity": 117,
      "chip": "ym2612"
    },
    {
      "channel": 0,
      "note": 60,
      "start": 176.8964,
      "duration": 0.0817,
      "velocity": 106,
      "chip": "ym2612"
    },
    {
      "channel": 0,
      "note": 50,
      "start": 176.9967,
      "duration": 0.0793,
      "velocity": 117,
      "chip": "ym2612"
    },
    {
      "channel": 1,
      "note": 62,
      "start": 177.001,
      "duration": 0.3599,
      "velocity": 106,
      "chip": "ym2612"
    },
    {
      "channel": 2,
      "note": 62,
      "start": 177.005,
      "duration": 0.3545,
      "velocity": 101,
      "chip": "ym2612"
    },
    {
      "channel": 3,
      "note": 71,
      "start": 177.0099,
      "duration": 0.0672,
      "velocity": 127,
      "chip": "ym2612"
    },
    {
      "channel": 0,
      "note": 50,
      "start": 177.0966,
      "duration": 0.0793,
      "velocity": 117,
      "chip": "ym2612"
    },
    {
      "channel": 0,
      "note": 50,
      "start": 177.28,
      "duration": 0.0802,
      "velocity": 117,
      "chip": "ym2612"
    },
    {
      "channel": 0,
      "note": 62,
      "start": 177.3796,
      "duration": 0.2632,
      "velocity": 101,
      "chip": "ym2612"
    },
    {
      "channel": 1,
      "note": 62,
      "start": 177.3839,
      "duration": 0.0758,
      "velocity": 106,
      "chip": "ym2612"
    },
    {
      "channel": 2,
      "note": 74,
      "start": 177.3882,
      "duration": 0.0722,
      "velocity": 127,
      "chip": "ym2612"
    },
    {
      "channel": 3,
      "note": 50,
      "start": 177.3934,
      "duration": 0.0167,
      "velocity": 117,
      "chip": "ym2612"
    },
    {
      "channel": 1,
      "note": 62,
      "start": 177.4645,
      "duration": 0.0784,
      "velocity": 106,
      "chip": "ym2612"
    },
    {
      "channel": 1,
      "note": 71,
      "start": 177.5637,
      "duration": 0.0819,
      "velocity": 127,
      "chip": "ym2612"
    },
    {
      "channel": 2,
      "note": 50,
      "start": 177.5681,
      "duration": 0.0765,
      "velocity": 117,
      "chip": "ym2612"
    },
    {
      "channel": 3,
      "note": 62,
      "start": 177.5723,
      "duration": 0.0716,
      "velocity": 106,
      "chip": "ym2612"
    },
    {
      "channel": 0,
      "note": 62,
      "start": 177.663,
      "duration": 0.2632,
      "velocity": 101,
      "chip": "ym2612"
    },
    {
      "channel": 1,
      "note": 62,
      "start": 177.6672,
      "duration": 0.0758,
      "velocity": 106,
      "chip": "ym2612"
    },
    {
      "channel": 2,
      "note": 50,
      "start": 177.6716,
      "duration": 0.072,
      "velocity": 117,
      "chip": "ym2612"
    },
    {
      "channel": 1,
      "note": 62,
      "start": 177.7631,
      "duration": 0.08,
      "velocity": 106,
      "chip": "ym2612"
    },
    {
      "channel": 2,
      "note": 71,
      "start": 177.7678,
      "duration": 0.0765,
      "velocity": 127,
      "chip": "ym2612"
    },
    {
      "channel": 1,
      "note": 50,
      "start": 177.8487,
      "duration": 0.0788,
      "velocity": 117,
      "chip": "ym2612"
    },
    {
      "channel": 2,
      "note": 62,
      "start": 177.8529,
      "duration": 0.0742,
      "velocity": 106,
      "chip": "ym2612"
    },
    {
      "channel": 0,
      "note": 74,
      "start": 177.9465,
      "duration": 0.0795,
      "velocity": 127,
      "chip": "ym2612"
    },
    {
      "channel": 1,
      "note": 62,
      "start": 177.9508,
      "duration": 0.076,
      "velocity": 106,
      "chip": "ym2612"
    },
    {
      "channel": 2,
      "note": 62,
      "start": 177.9548,
      "duration": 0.2548,
      "velocity": 101,
      "chip": "ym2612"
    },
    {
      "channel": 3,
      "note": 50,
      "start": 177.9601,
      "duration": 0.0178,
      "velocity": 117,
      "chip": "ym2612"
    },
    {
      "channel": 0,
      "note": 62,
      "start": 178.0464,
      "duration": 0.08,
      "velocity": 106,
      "chip": "ym2612"
    },
    {
      "channel": 0,
      "note": 71,
      "start": 178.1311,
      "duration": 0.0812,
      "velocity": 127,
      "chip": "ym2612"
    },
    {
      "channel": 1,
      "note": 62,
      "start": 178.1354,
      "duration": 0.0758,
      "velocity": 106,
      "chip": "ym2612"
    },
    {
      "channel": 3,
      "note": 50,
      "start": 178.1398,
      "duration": 0.0706,
      "velocity": 117,
      "chip": "ym2612"
    },
    {
      "channel": 0,
      "note": 62,
      "start": 178.2296,
      "duration": 0.2631,
      "velocity": 101,
      "chip": "ym2612"
    },
    {
      "channel": 1,
      "note": 62,
      "start": 178.2338,
      "duration": 0.0758,
      "velocity": 106,
      "chip": "ym2612"
    },
    {
      "channel": 2,
      "note": 50,
      "start": 178.2382,
      "duration": 0.072,
      "velocity": 117,
      "chip": "ym2612"
    },
    {
      "channel": 1,
      "note": 62,
      "start": 178.3298,
      "duration": 0.0799,
      "velocity": 106,
      "chip": "ym2612"
    },
    {
      "channel": 2,
      "note": 71,
      "start": 178.3344,
      "duration": 0.0763,
      "velocity": 127,
      "chip": "ym2612"
    },
    {
      "channel": 1,
      "note": 50,
      "start": 178.43,
      "duration": 0.0807,
      "velocity": 117,
      "chip": "ym2612"
    },
    {
      "channel": 2,
      "note": 62,
      "start": 178.4342,
      "duration": 0.0756,
      "velocity": 106,
      "chip": "ym2612"
    },
    {
      "channel": 0,
      "note": 74,
      "start": 178.5149,
      "duration": 0.0777,
      "velocity": 127,
      "chip": "ym2612"
    },
    {
      "channel": 1,
      "note": 62,
      "start": 178.5191,
      "duration": 0.257,
      "velocity": 101,
      "chip": "ym2612"
    },
    {
      "channel": 2,
      "note": 62,
      "start": 178.5234,
      "duration": 0.0702,
      "velocity": 106,
      "chip": "ym2612"
    },
    {
      "channel": 3,
      "note": 50,
      "start": 178.5286,
      "duration": 0.0148,
      "velocity": 117,
      "chip": "ym2612"
    },
    {
      "channel": 0,
      "note": 62,
      "start": 178.613,
      "duration": 0.0798,
      "velocity": 106,
      "chip": "ym2612"
    },
    {
      "channel": 0,
      "note": 71,
      "start": 178.7148,
      "duration": 0.0805,
      "velocity": 127,
      "chip": "ym2612"
    },
    {
      "channel": 2,
      "note": 50,
      "start": 178.7192,
      "duration": 0.0748,
      "velocity": 117,
      "chip": "ym2612"
    },
    {
      "channel": 3,
      "note": 62,
      "start": 178.7234,
      "duration": 0.0698,
      "velocity": 106,
      "chip": "ym2612"
    },
    {
      "channel": 0,
      "note": 62,
      "start": 178.7994,
      "duration": 0.26,
      "velocity": 101,
      "chip": "ym2612"
    },
    {
      "channel": 1,
      "note": 62,
      "start": 178.8036,
      "duration": 0.0727,
      "velocity": 106,
      "chip": "ym2612"
    },
    {
      "channel": 2,
      "note": 50,
      "start": 178.808,
      "duration": 0.0689,
      "velocity": 117,
      "chip": "ym2612"
    },
    {
      "channel": 1,
      "note": 71,
      "start": 178.8982,
      "duration": 0.0784,
      "velocity": 127,
      "chip": "ym2612"
    },
    {
      "channel": 2,
      "note": 62,
      "start": 178.9024,
      "duration": 0.0751,
      "velocity": 106,
      "chip": "ym2612"
    },
    {
      "channel": 1,
      "note": 50,
      "start": 178.9979,
      "duration": 0.0802,
      "velocity": 117,
      "chip": "ym2612"
    },
    {
      "channel": 2,
      "note": 62,
      "start": 179.002,
      "duration": 0.0755,
      "velocity": 106,
      "chip": "ym2612"
    },
    {
      "channel": 0,
      "note": 74,
      "start": 179.0964,
      "duration": 0.0809,
      "velocity": 127,
      "chip": "ym2612"
    },
    {
      "channel": 1,
      "note": 62,
      "start": 179.1006,
      "duration": 0.0775,
      "velocity": 106,
      "chip": "ym2612"
    },
    {
      "channel": 2,
      "note": 62,
      "start": 179.1046,
      "duration": 0.2562,
      "velocity": 101,
      "chip": "ym2612"
    },
    {
      "channel": 0,
      "note": 62,
      "start": 179.1823,
      "duration": 0.0784,
      "velocity": 106,
      "chip": "ym2612"
    },
    {
      "channel": 0,
      "note": 62,
      "start": 179.2798,
      "duration": 0.0837,
      "velocity": 106,
      "chip": "ym2612"
    },
    {
      "channel": 1,
      "note": 50,
      "start": 179.2842,
      "duration": 0.0785,
      "velocity": 117,
      "chip": "ym2612"
    },
    {
      "channel": 3,
      "note": 71,
      "start": 179.2889,
      "duration": 0.0732,
      "velocity": 127,
      "chip": "ym2612"
    },
    {
      "channel": 0,
      "note": 62,
      "start": 179.3796,
      "duration": 0.2632,
      "velocity": 101,
      "chip": "ym2612"
    },
    {
      "channel": 1,
      "note": 62,
      "start": 179.3838,
      "duration": 0.0759,
      "velocity": 106,
      "chip": "ym2612"
    },
    {
      "channel": 2,
      "note": 50,
      "start": 179.3882,
      "duration": 0.0722,
      "velocity": 117,
      "chip": "ym2612"
    },
    {
      "channel": 1,
      "note": 62,
      "start": 179.4646,
      "duration": 0.0796,
      "velocity": 106,
      "chip": "ym2612"
    },
    {
      "channel": 2,
      "note": 71,
      "start": 179.4693,
      "duration": 0.076,
      "velocity": 127,
      "chip": "ym2612"
    },
    {
      "channel": 1,
      "note": 62,
      "start": 179.5631,
      "duration": 0.0811,
      "velocity": 106,
      "chip": "ym2612"
    },
    {
      "channel": 2,
      "note": 50,
      "start": 179.5674,
      "duration": 0.076,
      "velocity": 117,
      "chip": "ym2612"
    },
    {
      "channel": 0,
      "note": 50,
      "start": 179.6633,
      "duration": 0.0793,
      "velocity": 117,
      "chip": "ym2612"
    },
    {
      "channel": 1,
      "note": 62,
      "start": 179.6674,
      "duration": 0.2588,
      "velocity": 101,
      "chip": "ym2612"
    },
    {
      "channel": 2,
      "note": 62,
      "start": 179.6716,
      "duration": 0.0719,
      "velocity": 106,
      "chip": "ym2612"
    },
    {
      "channel": 0,
      "note": 50,
      "start": 179.7633,
      "duration": 0.0794,
      "velocity": 117,
      "chip": "ym2612"
    },
    {
      "channel": 2,
      "note": 62,
      "start": 179.7675,
      "duration": 0.0761,
      "velocity": 106,
      "chip": "ym2612"
    },
    {
      "channel": 0,
      "note": 50,
      "start": 179.848,
      "duration": 0.0795,
      "velocity": 117,
      "chip": "ym2612"
    },
    {
      "channel": 2,
      "note": 62,
      "start": 179.8522,
      "duration": 0.0749,
      "velocity": 106,
      "chip": "ym2612"
    },
    {
      "channel": 0,
      "note": 50,
      "start": 179.9467,
      "duration": 0.0793,
      "velocity": 117,
      "chip": "ym2612"
    },
    {
      "channel": 1,
      "note": 62,
      "start": 179.9508,
      "duration": 0.2587,
      "velocity": 101,
      "chip": "ym2612"
    },
    {
      "channel": 2,
      "note": 74,
      "start": 179.9556,
      "duration": 0.0724,
      "velocity": 127,
      "chip": "ym2612"
    },
    {
      "channel": 3,
      "note": 62,
      "start": 179.9599,
      "duration": 0.0671,
      "velocity": 106,
      "chip": "ym2612"
    },
    {
      "channel": 0,
      "note": 50,
      "start": 180.0467,
      "duration": 0.0794,
      "velocity": 117,
      "chip": "ym2612"
    },
    {
      "channel": 2,
      "note": 62,
      "start": 180.0509,
      "duration": 0.0776,
      "velocity": 106,
      "chip": "ym2612"
    },
    {
      "channel": 3,
      "note": 74,
      "start": 180.0556,
      "duration": 0.0719,
      "velocity": 127,
      "chip": "ym2612"
    },
    {
      "channel": 0,
      "note": 74,
      "start": 180.1333,
      "duration": 0.079,
      "velocity": 127,
      "chip": "ym2612"
    },
    {
      "channel": 2,
      "note": 62,
      "start": 180.1375,
      "duration": 0.0737,
      "velocity": 106,
      "chip": "ym2612"
    },
    {
      "channel": 3,
      "note": 50,
      "start": 180.142,
      "duration": 0.0683,
      "velocity": 117,
      "chip": "ym2612"
    },
    {
      "channel": 0,
      "note": 62,
      "start": 180.2296,
      "duration": 0.2464,
      "velocity": 101,
      "chip": "ym2612"
    },
    {
      "channel": 1,
      "note": 62,
      "start": 180.2339,
      "duration": 0.0758,
      "velocity": 106,
      "chip": "ym2612"
    },
    {
      "channel": 2,
      "note": 74,
      "start": 180.2387,
      "duration": 0.0728,
      "velocity": 127,
      "chip": "ym2612"
    },
    {
      "channel": 3,
      "note": 50,
      "start": 180.2432,
      "duration": 0.0672,
      "velocity": 117,
      "chip": "ym2612"
    },
    {
      "channel": 1,
      "note": 74,
      "start": 180.3303,
      "duration": 0.0796,
      "velocity": 127,
      "chip": "ym2612"
    },
    {
      "channel": 2,
      "note": 50,
      "start": 180.3348,
      "duration": 0.0766,
      "velocity": 117,
      "chip": "ym2612"
    },
    {
      "channel": 3,
      "note": 62,
      "start": 180.3389,
      "duration": 0.072,
      "velocity": 106,
      "chip": "ym2612"
    },
    {
      "channel": 1,
      "note": 74,
      "start": 180.4303,
      "duration": 0.0816,
      "velocity": 127,
      "chip": "ym2612"
    },
    {
      "channel": 2,
      "note": 62,
      "start": 180.4345,
      "duration": 0.076,
      "velocity": 106,
      "chip": "ym2612"
    },
    {
      "channel": 3,
      "note": 50,
      "start": 180.4389,
      "duration": 0.0705,
      "velocity": 117,
      "chip": "ym2612"
    },
    {
      "channel": 0,
      "note": 50,
      "start": 180.5167,
      "duration": 0.0762,
      "velocity": 101,
      "chip": "ym2612"
    },
    {
      "channel": 1,
      "note": 50,
      "start": 180.521,
      "duration": 0.0725,
      "velocity": 117,
      "chip": "ym2612"
    },
    {
      "channel": 0,
      "note": 71,
      "start": 180.5982,
      "duration": 0.0783,
      "velocity": 127,
      "chip": "ym2612"
    },
    {
      "channel": 1,
      "note": 53,
      "start": 180.6022,
      "duration": 0.0749,
      "velocity": 101,
      "chip": "ym2612"
    },
    {
      "channel": 0,
      "note": 55,
      "start": 180.6963,
      "duration": 0.0035,
      "velocity": 101,
      "chip": "ym2612"
    }
  ]
}