{
  "track_name": "05 - BGM 3 (Act 5-1- Cry)",
  "duration_sec": 66.728,
  "sample_rate": 44100,
  "note_count": 917,
  "unique_pitches": 51,
  "pitch_range": 59,
  "avg_note_duration": 0.1563,
  "reconstruction_stats": {
    "notes_reconstructed": 917,
    "keyon_events": 917,
    "keyoff_events": 917,
    "orphan_keyons": 0,
    "unique_pitches": 51,
    "pitch_range": 59,
    "avg_duration_sec": 0.1563
  },
  "metadata": {
    "source": "M\\Master of Weapon\\05 - BGM 3 (Act 5-1- Cry).vgz"
  },
  "notes": [
    {
      "channel": 1,
      "note": 41,
      "start": 0.1905,
      "duration": 0.0867,
      "velocity": 114,
      "chip": "ym2612"
    },
    {
      "channel": 2,
      "note": 68,
      "start": 0.2081,
      "duration": 0.0696,
      "velocity": 106,
      "chip": "ym2612"
    },
    {
      "channel": 2,
      "note": 68,
      "start": 0.3141,
      "duration": 0.066,
      "velocity": 106,
      "chip": "ym2612"
    },
    {
      "channel": 1,
      "note": 41,
      "start": 0.4164,
      "duration": 0.1351,
      "velocity": 114,
      "chip": "ym2612"
    },
    {
      "channel": 2,
      "note": 60,
      "start": 0.4202,
      "duration": 0.0628,
      "velocity": 106,
      "chip": "ym2612"
    },
    {
      "channel": 2,
      "note": 60,
      "start": 0.5195,
      "duration": 0.0663,
      "velocity": 106,
      "chip": "ym2612"
    },
    {
      "channel": 0,
      "note": 60,
      "start": 0.6222,
      "duration": 0.0492,
      "velocity": 100,
      "chip": "ym2612"
    },
    {
      "channel": 2,
      "note": 23,
      "start": 0.6264,
      "duration": 0.0623,
      "velocity": 106,
      "chip": "ym2612"
    },
    {
      "channel": 3,
      "note": 60,
      "start": 0.63,
      "duration": 0.0592,
      "velocity": 47,
      "chip": "ym2612"
    },
    {
      "channel": 0,
      "note": 65,
      "start": 0.7251,
      "duration": 0.0492,
      "velocity": 100,
      "chip": "ym2612"
    },
    {
      "channel": 1,
      "note": 41,
      "start": 0.7288,
      "duration": 0.3715,
      "velocity": 114,
      "chip": "ym2612"
    },
    {
      "channel": 2,
      "note": 23,
      "start": 0.7324,
      "duration": 0.0592,
      "velocity": 106,
      "chip": "ym2612"
    },
    {
      "channel": 3,
      "note": 65,
      "start": 0.7362,
      "duration": 0.0559,
      "velocity": 47,
      "chip": "ym2612"
    },
    {
      "channel": 0,
      "note": 64,
      "start": 0.828,
      "duration": 0.0492,
      "velocity": 100,
      "chip": "ym2612"
    },
    {
      "channel": 2,
      "note": 68,
      "start": 0.8317,
      "duration": 0.0627,
      "velocity": 106,
      "chip": "ym2612"
    },
    {
      "channel": 3,
      "note": 64,
      "start": 0.8355,
      "duration": 0.0595,
      "velocity": 47,
      "chip": "ym2612"
    },
    {
      "channel": 0,
      "note": 68,
      "start": 0.9308,
      "duration": 0.1865,
      "velocity": 100,
      "chip": "ym2612"
    },
    {
      "channel": 2,
      "note": 68,
      "start": 0.9346,
      "duration": 0.0627,
      "velocity": 106,
      "chip": "ym2612"
    },
    {
      "channel": 3,
      "note": 68,
      "start": 0.9383,
      "duration": 0.1963,
      "velocity": 47,
      "chip": "ym2612"
    },
    {
      "channel": 2,
      "note": 60,
      "start": 1.0339,
      "duration": 0.1349,
      "velocity": 106,
      "chip": "ym2612"
    },
    {
      "channel": 0,
      "note": 67,
      "start": 1.2394,
      "duration": 0.1179,
      "velocity": 100,
      "chip": "ym2612"
    },
    {
      "channel": 1,
      "note": 41,
      "start": 1.2431,
      "duration": 0.0628,
      "velocity": 114,
      "chip": "ym2612"
    },
    {
      "channel": 2,
      "note": 68,
      "start": 1.2468,
      "duration": 0.1277,
      "velocity": 106,
      "chip": "ym2612"
    },
    {
      "channel": 3,
      "note": 67,
      "start": 1.2506,
      "duration": 0.1245,
      "velocity": 47,
      "chip": "ym2612"
    },
    {
      "channel": 0,
      "note": 66,
      "start": 1.4452,
      "duration": 0.0492,
      "velocity": 100,
      "chip": "ym2612"
    },
    {
      "channel": 2,
      "note": 23,
      "start": 1.449,
      "duration": 0.0628,
      "velocity": 106,
      "chip": "ym2612"
    },
    {
      "channel": 3,
      "note": 66,
      "start": 1.4527,
      "duration": 0.0595,
      "velocity": 47,
      "chip": "ym2612"
    },
    {
      "channel": 0,
      "note": 59,
      "start": 1.5481,
      "duration": 0.1865,
      "velocity": 100,
      "chip": "ym2612"
    },
    {
      "channel": 1,
      "note": 41,
      "start": 1.5518,
      "duration": 0.2171,
      "velocity": 114,
      "chip": "ym2612"
    },
    {
      "channel": 2,
      "note": 23,
      "start": 1.5555,
      "duration": 0.0592,
      "velocity": 106,
      "chip": "ym2612"
    },
    {
      "channel": 3,
      "note": 59,
      "start": 1.5591,
      "duration": 0.1964,
      "velocity": 47,
      "chip": "ym2612"
    },
    {
      "channel": 2,
      "note": 68,
      "start": 1.6512,
      "duration": 0.0663,
      "velocity": 106,
      "chip": "ym2612"
    },
    {
      "channel": 2,
      "note": 68,
      "start": 1.7541,
      "duration": 0.0663,
      "velocity": 106,
      "chip": "ym2612"
    },
    {
      "channel": 0,
      "note": 60,
      "start": 1.8567,
      "duration": 0.6322,
      "velocity": 100,
      "chip": "ym2612"
    },
    {
      "channel": 1,
      "note": 43,
      "start": 1.8604,
      "duration": 0.0628,
      "velocity": 114,
      "chip": "ym2612"
    },
    {
      "channel": 2,
      "note": 67,
      "start": 1.8641,
      "duration": 0.0597,
      "velocity": 106,
      "chip": "ym2612"
    },
    {
      "channel": 3,
      "note": 60,
      "start": 1.8679,
      "duration": 0.6899,
      "velocity": 47,
      "chip": "ym2612"
    },
    {
      "channel": 2,
      "note": 67,
      "start": 1.9602,
      "duration": 0.066,
      "velocity": 106,
      "chip": "ym2612"
    },
    {
      "channel": 1,
      "note": 43,
      "start": 2.0625,
      "duration": 0.1351,
      "velocity": 114,
      "chip": "ym2612"
    },
    {
      "channel": 2,
      "note": 60,
      "start": 2.0662,
      "duration": 0.0629,
      "velocity": 106,
      "chip": "ym2612"
    },
    {
      "channel": 2,
      "note": 60,
      "start": 2.1655,
      "duration": 0.0664,
      "velocity": 106,
      "chip": "ym2612"
    },
    {
      "channel": 2,
      "note": 24,
      "start": 2.2689,
      "duration": 0.066,
      "velocity": 106,
      "chip": "ym2612"
    },
    {
      "channel": 1,
      "note": 43,
      "start": 2.3722,
      "duration": 0.374,
      "velocity": 114,
      "chip": "ym2612"
    },
    {
      "channel": 2,
      "note": 24,
      "start": 2.3759,
      "duration": 0.0618,
      "velocity": 106,
      "chip": "ym2612"
    },
    {
      "channel": 2,
      "note": 67,
      "start": 2.4742,
      "duration": 0.0663,
      "velocity": 106,
      "chip": "ym2612"
    },
    {
      "channel": 2,
      "note": 67,
      "start": 2.577,
      "duration": 0.0664,
      "velocity": 106,
      "chip": "ym2612"
    },
    {
      "channel": 2,
      "note": 60,
      "start": 2.6799,
      "duration": 0.135,
      "velocity": 106,
      "chip": "ym2612"
    },
    {
      "channel": 0,
      "note": 60,
      "start": 2.8856,
      "duration": 0.1864,
      "velocity": 100,
      "chip": "ym2612"
    },
    {
      "channel": 1,
      "note": 43,
      "start": 2.8892,
      "duration": 0.0629,
      "velocity": 114,
      "chip": "ym2612"
    },
    {
      "channel": 2,
      "note": 67,
      "start": 2.8929,
      "duration": 0.1278,
      "velocity": 106,
      "chip": "ym2612"
    },
    {
      "channel": 3,
      "note": 60,
      "start": 2.8966,
      "duration": 0.1963,
      "velocity": 47,
      "chip": "ym2612"
    },
    {
      "channel": 2,
      "note": 24,
      "start": 3.0915,
      "duration": 0.0663,
      "velocity": 106,
      "chip": "ym2612"
    },
    {
      "channel": 0,
      "note": 70,
      "start": 3.1941,
      "duration": 0.1179,
      "velocity": 100,
      "chip": "ym2612"
    },
    {
      "channel": 1,
      "note": 43,
      "start": 3.1978,
      "duration": 0.2171,
      "velocity": 114,
      "chip": "ym2612"
    },
    {
      "channel": 2,
      "note": 24,
      "start": 3.2015,
      "duration": 0.0592,
      "velocity": 106,
      "chip": "ym2612"
    },
    {
      "channel": 3,
      "note": 70,
      "start": 3.2053,
      "duration": 0.1241,
      "velocity": 47,
      "chip": "ym2612"
    },
    {
      "channel": 2,
      "note": 67,
      "start": 3.2972,
      "duration": 0.0663,
      "velocity": 106,
      "chip": "ym2612"
    },
    {
      "channel": 0,
      "note": 69,
      "start": 3.3999,
      "duration": 0.0492,
      "velocity": 100,
      "chip": "ym2612"
    },
    {
      "channel": 2,
      "note": 67,
      "start": 3.4037,
      "duration": 0.0627,
      "velocity": 106,
      "chip": "ym2612"
    },
    {
      "channel": 3,
      "note": 69,
      "start": 3.4074,
      "duration": 0.0595,
      "velocity": 47,
      "chip": "ym2612"
    },
    {
      "channel": 0,
      "note": 68,
      "start": 3.5029,
      "duration": 0.3749,
      "velocity": 100,
      "chip": "ym2612"
    },
    {
      "channel": 1,
      "note": 37,
      "start": 3.5065,
      "duration": 0.0628,
      "velocity": 114,
      "chip": "ym2612"
    },
    {
      "channel": 2,
      "note": 68,
      "start": 3.5102,
      "duration": 0.0596,
      "velocity": 106,
      "chip": "ym2612"
    },
    {
      "channel": 3,
      "note": 68,
      "start": 3.5139,
      "duration": 0.4024,
      "velocity": 47,
      "chip": "ym2612"
    },
    {
      "channel": 2,
      "note": 68,
      "start": 3.6063,
      "duration": 0.066,
      "velocity": 106,
      "chip": "ym2612"
    },
    {
      "channel": 1,
      "note": 37,
      "start": 3.7086,
      "duration": 0.1351,
      "velocity": 114,
      "chip": "ym2612"
    },
    {
      "channel": 2,
      "note": 65,
      "start": 3.7123,
      "duration": 0.0629,
      "velocity": 106,
      "chip": "ym2612"
    },
    {
      "channel": 2,
      "note": 65,
      "start": 3.8116,
      "duration": 0.0668,
      "velocity": 106,
      "chip": "ym2612"
    },
    {
      "channel": 2,
      "note": 29,
      "start": 3.9148,
      "duration": 0.066,
      "velocity": 106,
      "chip": "ym2612"
    },
    {
      "channel": 1,
      "note": 37,
      "start": 4.0172,
      "duration": 0.3751,
      "velocity": 114,
      "chip": "ym2612"
    },
    {
      "channel": 2,
      "note": 29,
      "start": 4.0209,
      "duration": 0.0628,
      "velocity": 106,
      "chip": "ym2612"
    },
    {
      "channel": 0,
      "note": 67,
      "start": 4.12,
      "duration": 0.3751,
      "velocity": 100,
      "chip": "ym2612"
    },
    {
      "channel": 2,
      "note": 68,
      "start": 4.1239,
      "duration": 0.0628,
      "velocity": 106,
      "chip": "ym2612"
    },
    {
      "channel": 3,
      "note": 67,
      "start": 4.1275,
      "duration": 0.4093,
      "velocity": 47,
      "chip": "ym2612"
    },
    {
      "channel": 2,
      "note": 68,
      "start": 4.2232,
      "duration": 0.0663,
      "velocity": 106,
      "chip": "ym2612"
    },
    {
      "channel": 2,
      "note": 65,
      "start": 4.326,
      "duration": 0.1349,
      "velocity": 106,
      "chip": "ym2612"
    },
    {
      "channel": 1,
      "note": 37,
      "start": 4.5316,
      "duration": 0.0664,
      "velocity": 114,
      "chip": "ym2612"
    },
    {
      "channel": 2,
      "note": 68,
      "start": 4.5354,
      "duration": 0.1313,
      "velocity": 106,
      "chip": "ym2612"
    },
    {
      "channel": 2,
      "note": 29,
      "start": 4.7379,
      "duration": 0.066,
      "velocity": 106,
      "chip": "ym2612"
    },
    {
      "channel": 0,
      "note": 72,
      "start": 4.8402,
      "duration": 0.0493,
      "velocity": 100,
      "chip": "ym2612"
    },
    {
      "channel": 1,
      "note": 37,
      "start": 4.8438,
      "duration": 0.2172,
      "velocity": 114,
      "chip": "ym2612"
    },
    {
      "channel": 2,
      "note": 29,
      "start": 4.8475,
      "duration": 0.0592,
      "velocity": 106,
      "chip": "ym2612"
    },
    {
      "channel": 3,
      "note": 72,
      "start": 4.8513,
      "duration": 0.056,
      "velocity": 47,
      "chip": "ym2612"
    },
    {
      "channel": 0,
      "note": 69,
      "start": 4.9431,
      "duration": 0.0492,
      "velocity": 100,
      "chip": "ym2612"
    },
    {
      "channel": 2,
      "note": 68,
      "start": 4.9469,
      "duration": 0.0627,
      "velocity": 106,
      "chip": "ym2612"
    },
    {
      "channel": 3,
      "note": 69,
      "start": 4.9506,
      "duration": 0.0595,
      "velocity": 47,
      "chip": "ym2612"
    },
    {
      "channel": 0,
      "note": 70,
      "start": 5.046,
      "duration": 0.0321,
      "velocity": 100,
      "chip": "ym2612"
    },
    {
      "channel": 2,
      "note": 68,
      "start": 5.0497,
      "duration": 0.0705,
      "velocity": 106,
      "chip": "ym2612"
    },
    {
      "channel": 3,
      "note": 70,
      "start": 5.0535,
      "duration": 0.0253,
      "velocity": 47,
      "chip": "ym2612"
    },
    {
      "channel": 0,
      "note": 73,
      "start": 5.1146,
      "duration": 0.005,
      "velocity": 100,
      "chip": "ym2612"
    },
    {
      "channel": 3,
      "note": 73,
      "start": 5.1184,
      "duration": 0.0023,
      "velocity": 47,
      "chip": "ym2612"
    },
    {
      "channel": 0,
      "note": 74,
      "start": 5.1317,
      "duration": 0.0051,
      "velocity": 100,
      "chip": "ym2612"
    },
    {
      "channel": 3,
      "note": 74,
      "start": 5.1356,
      "duration": 0.0019,
      "velocity": 47,
      "chip": "ym2612"
    },
    {
      "channel": 0,
      "note": 75,
      "start": 5.1488,
      "duration": 0.1864,
      "velocity": 100,
      "chip": "ym2612"
    },
    {
      "channel": 1,
      "note": 34,
      "start": 5.1526,
      "duration": 0.602,
      "velocity": 114,
      "chip": "ym2612"
    },
    {
      "channel": 2,
      "note": 60,
      "start": 5.1563,
      "duration": 0.0591,
      "velocity": 106,
      "chip": "ym2612"
    },
    {
      "channel": 3,
      "note": 75,
      "start": 5.16,
      "duration": 0.1962,
      "velocity": 47,
      "chip": "ym2612"
    },
    {
      "channel": 2,
      "note": 58,
      "start": 5.2519,
      "duration": 0.0664,
      "velocity": 106,
      "chip": "ym2612"
    },
    {
      "channel": 2,
      "note": 48,
      "start": 5.3547,
      "duration": 0.0664,
      "velocity": 106,
      "chip": "ym2612"
    },
    {
      "channel": 0,
      "note": 74,
      "start": 5.4574,
      "duration": 0.1943,
      "velocity": 100,
      "chip": "ym2612"
    },
    {
      "channel": 2,
      "note": 55,
      "start": 5.4722,
      "duration": 0.471,
      "velocity": 127,
      "chip": "ym2612"
    },
    {
      "channel": 3,
      "note": 74,
      "start": 5.476,
      "duration": 0.1931,
      "velocity": 47,
      "chip": "ym2612"
    },
    {
      "channel": 0,
      "note": 73,
      "start": 5.7728,
      "duration": 0.1189,
      "velocity": 100,
      "chip": "ym2612"
    },
    {
      "channel": 3,
      "note": 73,
      "start": 5.7778,
      "duration": 0.1313,
      "velocity": 47,
      "chip": "ym2612"
    },
    {
      "channel": 0,
      "note": 72,
      "start": 5.9785,
      "duration": 0.4952,
      "velocity": 100,
      "chip": "ym2612"
    },
    {
      "channel": 1,
      "note": 36,
      "start": 5.9822,
      "duration": 0.5944,
      "velocity": 114,
      "chip": "ym2612"
    },
    {
      "channel": 2,
      "note": 60,
      "start": 5.9856,
      "duration": 0.0778,
      "velocity": 127,
      "chip": "ym2612"
    },
    {
      "channel": 3,
      "note": 72,
      "start": 5.9893,
      "duration": 0.5361,
      "velocity": 47,
      "chip": "ym2612"
    },
    {
      "channel": 2,
      "note": 60,
      "start": 6.0812,
      "duration": 0.1879,
      "velocity": 127,
      "chip": "ym2612"
    },
    {
      "channel": 2,
      "note": 60,
      "start": 6.2871,
      "duration": 0.085,
      "velocity": 127,
      "chip": "ym2612"
    },
    {
      "channel": 2,
      "note": 32,
      "start": 6.4014,
      "duration": 0.1758,
      "velocity": 127,
      "chip": "ym2612"
    },
    {
      "channel": 2,
      "note": 60,
      "start": 6.6067,
      "duration": 0.1768,
      "velocity": 127,
      "chip": "ym2612"
    },
    {
      "channel": 1,
      "note": 41,
      "start": 6.8022,
      "duration": 0.0702,
      "velocity": 114,
      "chip": "ym2612"
    },
    {
      "channel": 2,
      "note": 68,
      "start": 6.8173,
      "duration": 0.0556,
      "velocity": 106,
      "chip": "ym2612"
    },
    {
      "channel": 2,
      "note": 68,
      "start": 6.9094,
      "duration": 0.0659,
      "velocity": 106,
      "chip": "ym2612"
    },
    {
      "channel": 1,
      "note": 41,
      "start": 7.0117,
      "duration": 0.135,
      "velocity": 114,
      "chip": "ym2612"
    },
    {
      "channel": 2,
      "note": 60,
      "start": 7.0154,
      "duration": 0.0629,
      "velocity": 106,
      "chip": "ym2612"
    },
    {
      "channel": 2,
      "note": 60,
      "start": 7.1147,
      "duration": 0.0663,
      "velocity": 106,
      "chip": "ym2612"
    },
    {
      "channel": 0,
      "note": 60,
      "start": 7.2175,
      "duration": 0.0492,
      "velocity": 100,
      "chip": "ym2612"
    },
    {
      "channel": 2,
      "note": 23,
      "start": 7.2217,
      "duration": 0.0623,
      "velocity": 106,
      "chip": "ym2612"
    },
    {
      "channel": 3,
      "note": 60,
      "start": 7.2253,
      "duration": 0.0592,
      "velocity": 47,
      "chip": "ym2612"
    },
    {
      "channel": 0,
      "note": 65,
      "start": 7.3203,
      "duration": 0.0493,
      "velocity": 100,
      "chip": "ym2612"
    },
    {
      "channel": 1,
      "note": 41,
      "start": 7.324,
      "duration": 0.3715,
      "velocity": 114,
      "chip": "ym2612"
    },
    {
      "channel": 2,
      "note": 23,
      "start": 7.3277,
      "duration": 0.0592,
      "velocity": 106,
      "chip": "ym2612"
    },
    {
      "channel": 3,
      "note": 65,
      "start": 7.3314,
      "duration": 0.056,
      "velocity": 47,
      "chip": "ym2612"
    },
    {
      "channel": 0,
      "note": 64,
      "start": 7.4232,
      "duration": 0.0493,
      "velocity": 100,
      "chip": "ym2612"
    },
    {
      "channel": 2,
      "note": 68,
      "start": 7.427,
      "duration": 0.0628,
      "velocity": 106,
      "chip": "ym2612"
    },
    {
      "channel": 3,
      "note": 64,
      "start": 7.4307,
      "duration": 0.0596,
      "velocity": 47,
      "chip": "ym2612"
    },
    {
      "channel": 0,
      "note": 68,
      "start": 7.5261,
      "duration": 0.1864,
      "velocity": 100,
      "chip": "ym2612"
    },
    {
      "channel": 2,
      "note": 68,
      "start": 7.5298,
      "duration": 0.0628,
      "velocity": 106,
      "chip": "ym2612"
    },
    {
      "channel": 3,
      "note": 68,
      "start": 7.5336,
      "duration": 0.1962,
      "velocity": 47,
      "chip": "ym2612"
    },
    {
      "channel": 2,
      "note": 60,
      "start": 7.6291,
      "duration": 0.1349,
      "velocity": 106,
      "chip": "ym2612"
    },
    {
      "channel": 0,
      "note": 67,
      "start": 7.8346,
      "duration": 0.1178,
      "velocity": 100,
      "chip": "ym2612"
    },
    {
      "channel": 1,
      "note": 41,
      "start": 7.8383,
      "duration": 0.0628,
      "velocity": 114,
      "chip": "ym2612"
    },
    {
      "channel": 2,
      "note": 68,
      "start": 7.842,
      "duration": 0.1277,
      "velocity": 106,
      "chip": "ym2612"
    },
    {
      "channel": 3,
      "note": 67,
      "start": 7.8457,
      "duration": 0.1245,
      "velocity": 47,
      "chip": "ym2612"
    },
    {
      "channel": 0,
      "note": 66,
      "start": 8.0404,
      "duration": 0.0492,
      "velocity": 100,
      "chip": "ym2612"
    },
    {
      "channel": 2,
      "note": 23,
      "start": 8.0442,
      "duration": 0.0627,
      "velocity": 106,
      "chip": "ym2612"
    },
    {
      "channel": 3,
      "note": 66,
      "start": 8.0479,
      "duration": 0.0595,
      "velocity": 47,
      "chip": "ym2612"
    },
    {
      "channel": 0,
      "note": 59,
      "start": 8.1432,
      "duration": 0.1865,
      "velocity": 100,
      "chip": "ym2612"
    },
    {
      "channel": 1,
      "note": 41,
      "start": 8.1469,
      "duration": 0.2171,
      "velocity": 114,
      "chip": "ym2612"
    },
    {
      "channel": 2,
      "note": 23,
      "start": 8.1506,
      "duration": 0.0592,
      "velocity": 106,
      "chip": "ym2612"
    },
    {
      "channel": 3,
      "note": 59,
      "start": 8.1544,
      "duration": 0.1963,
      "velocity": 47,
      "chip": "ym2612"
    },
    {
      "channel": 2,
      "note": 68,
      "start": 8.2463,
      "duration": 0.0664,
      "velocity": 106,
      "chip": "ym2612"
    },
    {
      "channel": 2,
      "note": 68,
      "start": 8.3491,
      "duration": 0.0664,
      "velocity": 106,
      "chip": "ym2612"
    },
    {
      "channel": 0,
      "note": 60,
      "start": 8.4519,
      "duration": 0.6322,
      "velocity": 100,
      "chip": "ym2612"
    },
    {
      "channel": 1,
      "note": 43,
      "start": 8.4556,
      "duration": 0.0629,
      "velocity": 114,
      "chip": "ym2612"
    },
    {
      "channel": 2,
      "note": 67,
      "start": 8.4593,
      "duration": 0.0597,
      "velocity": 106,
      "chip": "ym2612"
    },
    {
      "channel": 3,
      "note": 60,
      "start": 8.463,
      "duration": 0.69,
      "velocity": 47,
      "chip": "ym2612"
    },
    {
      "channel": 2,
      "note": 67,
      "start": 8.5554,
      "duration": 0.066,
      "velocity": 106,
      "chip": "ym2612"
    },
    {
      "channel": 1,
      "note": 43,
      "start": 8.6577,
      "duration": 0.1351,
      "velocity": 114,
      "chip": "ym2612"
    },
    {
      "channel": 2,
      "note": 60,
      "start": 8.6614,
      "duration": 0.0628,
      "velocity": 106,
      "chip": "ym2612"
    },
    {
      "channel": 2,
      "note": 60,
      "start": 8.7607,
      "duration": 0.0664,
      "velocity": 106,
      "chip": "ym2612"
    },
    {
      "channel": 2,
      "note": 24,
      "start": 8.864,
      "duration": 0.066,
      "velocity": 106,
      "chip": "ym2612"
    },
    {
      "channel": 1,
      "note": 43,
      "start": 8.9674,
      "duration": 0.3739,
      "velocity": 114,
      "chip": "ym2612"
    },
    {
      "channel": 2,
      "note": 24,
      "start": 8.9711,
      "duration": 0.0617,
      "velocity": 106,
      "chip": "ym2612"
    },
    {
      "channel": 2,
      "note": 67,
      "start": 9.0693,
      "duration": 0.0664,
      "velocity": 106,
      "chip": "ym2612"
    },
    {
      "channel": 2,
      "note": 67,
      "start": 9.1722,
      "duration": 0.0663,
      "velocity": 106,
      "chip": "ym2612"
    },
    {
      "channel": 2,
      "note": 60,
      "start": 9.2751,
      "duration": 0.1349,
      "velocity": 106,
      "chip": "ym2612"
    },
    {
      "channel": 0,
      "note": 60,
      "start": 9.4806,
      "duration": 0.1864,
      "velocity": 100,
      "chip": "ym2612"
    },
    {
      "channel": 1,
      "note": 43,
      "start": 9.4843,
      "duration": 0.0628,
      "velocity": 114,
      "chip": "ym2612"
    },
    {
      "channel": 2,
      "note": 67,
      "start": 9.488,
      "duration": 0.1277,
      "velocity": 106,
      "chip": "ym2612"
    },
    {
      "channel": 3,
      "note": 60,
      "start": 9.4917,
      "duration": 0.1962,
      "velocity": 47,
      "chip": "ym2612"
    },
    {
      "channel": 2,
      "note": 24,
      "start": 9.6865,
      "duration": 0.0664,
      "velocity": 106,
      "chip": "ym2612"
    },
    {
      "channel": 0,
      "note": 70,
      "start": 9.7892,
      "duration": 0.1179,
      "velocity": 100,
      "chip": "ym2612"
    },
    {
      "channel": 1,
      "note": 43,
      "start": 9.7929,
      "duration": 0.2171,
      "velocity": 114,
      "chip": "ym2612"
    },
    {
      "channel": 2,
      "note": 24,
      "start": 9.7966,
      "duration": 0.0592,
      "velocity": 106,
      "chip": "ym2612"
    },
    {
      "channel": 3,
      "note": 70,
      "start": 9.8004,
      "duration": 0.1241,
      "velocity": 47,
      "chip": "ym2612"
    },
    {
      "channel": 2,
      "note": 67,
      "start": 9.8923,
      "duration": 0.0663,
      "velocity": 106,
      "chip": "ym2612"
    },
    {
      "channel": 0,
      "note": 69,
      "start": 9.995,
      "duration": 0.0492,
      "velocity": 100,
      "chip": "ym2612"
    },
    {
      "channel": 2,
      "note": 67,
      "start": 9.9988,
      "duration": 0.0627,
      "velocity": 106,
      "chip": "ym2612"
    },
    {
      "channel": 3,
      "note": 69,
      "start": 10.0025,
      "duration": 0.0595,
      "velocity": 47,
      "chip": "ym2612"
    },
    {
      "channel": 0,
      "note": 68,
      "start": 10.0979,
      "duration": 0.375,
      "velocity": 100,
      "chip": "ym2612"
    },
    {
      "channel": 1,
      "note": 37,
      "start": 10.1016,
      "duration": 0.0627,
      "velocity": 114,
      "chip": "ym2612"
    },
    {
      "channel": 2,
      "note": 68,
      "start": 10.1053,
      "duration": 0.0595,
      "velocity": 106,
      "chip": "ym2612"
    },
    {
      "channel": 3,
      "note": 68,
      "start": 10.109,
      "duration": 0.4024,
      "velocity": 47,
      "chip": "ym2612"
    },
    {
      "channel": 2,
      "note": 68,
      "start": 10.2014,
      "duration": 0.066,
      "velocity": 106,
      "chip": "ym2612"
    },
    {
      "channel": 1,
      "note": 37,
      "start": 10.3037,
      "duration": 0.1351,
      "velocity": 114,
      "chip": "ym2612"
    },
    {
      "channel": 2,
      "note": 65,
      "start": 10.3074,
      "duration": 0.0629,
      "velocity": 106,
      "chip": "ym2612"
    },
    {
      "channel": 2,
      "note": 65,
      "start": 10.4067,
      "duration": 0.0668,
      "velocity": 106,
      "chip": "ym2612"
    },
    {
      "channel": 2,
      "note": 29,
      "start": 10.5099,
      "duration": 0.066,
      "velocity": 106,
      "chip": "ym2612"
    },
    {
      "channel": 1,
      "note": 37,
      "start": 10.6122,
      "duration": 0.3752,
      "velocity": 114,
      "chip": "ym2612"
    },
    {
      "channel": 2,
      "note": 29,
      "start": 10.6159,
      "duration": 0.0629,
      "velocity": 106,
      "chip": "ym2612"
    },
    {
      "channel": 0,
      "note": 67,
      "start": 10.7151,
      "duration": 0.375,
      "velocity": 100,
      "chip": "ym2612"
    },
    {
      "channel": 2,
      "note": 68,
      "start": 10.7189,
      "duration": 0.0627,
      "velocity": 106,
      "chip": "ym2612"
    },
    {
      "channel": 3,
      "note": 67,
      "start": 10.7226,
      "duration": 0.4092,
      "velocity": 47,
      "chip": "ym2612"
    },
    {
      "channel": 2,
      "note": 68,
      "start": 10.8182,
      "duration": 0.0664,
      "velocity": 106,
      "chip": "ym2612"
    },
    {
      "channel": 2,
      "note": 65,
      "start": 10.921,
      "duration": 0.135,
      "velocity": 106,
      "chip": "ym2612"
    },
    {
      "channel": 1,
      "note": 37,
      "start": 11.1266,
      "duration": 0.0664,
      "velocity": 114,
      "chip": "ym2612"
    },
    {
      "channel": 2,
      "note": 68,
      "start": 11.1303,
      "duration": 0.1314,
      "velocity": 106,
      "chip": "ym2612"
    },
    {
      "channel": 2,
      "note": 29,
      "start": 11.3329,
      "duration": 0.0659,
      "velocity": 106,
      "chip": "ym2612"
    },
    {
      "channel": 0,
      "note": 72,
      "start": 11.4352,
      "duration": 0.0493,
      "velocity": 100,
      "chip": "ym2612"
    },
    {
      "channel": 1,
      "note": 37,
      "start": 11.4389,
      "duration": 0.2173,
      "velocity": 114,
      "chip": "ym2612"
    },
    {
      "channel": 2,
      "note": 29,
      "start": 11.4425,
      "duration": 0.0593,
      "velocity": 106,
      "chip": "ym2612"
    },
    {
      "channel": 3,
      "note": 72,
      "start": 11.4462,
      "duration": 0.0561,
      "velocity": 47,
      "chip": "ym2612"
    },
    {
      "channel": 0,
      "note": 69,
      "start": 11.5382,
      "duration": 0.0493,
      "velocity": 100,
      "chip": "ym2612"
    },
    {
      "channel": 2,
      "note": 56,
      "start": 11.542,
      "duration": 0.0627,
      "velocity": 106,
      "chip": "ym2612"
    },
    {
      "channel": 3,
      "note": 69,
      "start": 11.5457,
      "duration": 0.0595,
      "velocity": 47,
      "chip": "ym2612"
    },
    {
      "channel": 0,
      "note": 70,
      "start": 11.6411,
      "duration": 0.0321,
      "velocity": 100,
      "chip": "ym2612"
    },
    {
      "channel": 2,
      "note": 56,
      "start": 11.6448,
      "duration": 0.0704,
      "velocity": 106,
      "chip": "ym2612"
    },
    {
      "channel": 3,
      "note": 70,
      "start": 11.6485,
      "duration": 0.0253,
      "velocity": 47,
      "chip": "ym2612"
    },
    {
      "channel": 0,
      "note": 73,
      "start": 11.7097,
      "duration": 0.005,
      "velocity": 100,
      "chip": "ym2612"
    },
    {
      "channel": 3,
      "note": 73,
      "start": 11.7135,
      "duration": 0.0022,
      "velocity": 47,
      "chip": "ym2612"
    },
    {
      "channel": 0,
      "note": 74,
      "start": 11.7268,
      "duration": 0.005,
      "velocity": 100,
      "chip": "ym2612"
    },
    {
      "channel": 3,
      "note": 74,
      "start": 11.7307,
      "duration": 0.0018,
      "velocity": 47,
      "chip": "ym2612"
    },
    {
      "channel": 0,
      "note": 75,
      "start": 11.7439,
      "duration": 0.1864,
      "velocity": 100,
      "chip": "ym2612"
    },
    {
      "channel": 1,
      "note": 34,
      "start": 11.7476,
      "duration": 0.6017,
      "velocity": 114,
      "chip": "ym2612"
    },
    {
      "channel": 2,
      "note": 60,
      "start": 11.7513,
      "duration": 0.0592,
      "velocity": 106,
      "chip": "ym2612"
    },
    {
      "channel": 3,
      "note": 75,
      "start": 11.755,
      "duration": 0.1963,
      "velocity": 47,
      "chip": "ym2612"
    },
    {
      "channel": 2,
      "note": 58,
      "start": 11.8469,
      "duration": 0.0664,
      "velocity": 106,
      "chip": "ym2612"
    },
    {
      "channel": 2,
      "note": 48,
      "start": 11.9498,
      "duration": 0.0664,
      "velocity": 106,
      "chip": "ym2612"
    },
    {
      "channel": 0,
      "note": 74,
      "start": 12.0526,
      "duration": 0.1938,
      "velocity": 100,
      "chip": "ym2612"
    },
    {
      "channel": 2,
      "note": 55,
      "start": 12.067,
      "duration": 0.3339,
      "velocity": 127,
      "chip": "ym2612"
    },
    {
      "channel": 3,
      "note": 74,
      "start": 12.0707,
      "duration": 0.193,
      "velocity": 47,
      "chip": "ym2612"
    },
    {
      "channel": 0,
      "note": 73,
      "start": 12.3676,
      "duration": 0.1178,
      "velocity": 100,
      "chip": "ym2612"
    },
    {
      "channel": 3,
      "note": 73,
      "start": 12.3725,
      "duration": 0.1301,
      "velocity": 47,
      "chip": "ym2612"
    },
    {
      "channel": 1,
      "note": 36,
      "start": 12.5738,
      "duration": 0.6087,
      "velocity": 114,
      "chip": "ym2612"
    },
    {
      "channel": 2,
      "note": 55,
      "start": 12.5885,
      "duration": 0.0552,
      "velocity": 106,
      "chip": "ym2612"
    },
    {
      "channel": 0,
      "note": 79,
      "start": 12.68,
      "duration": 0.0493,
      "velocity": 100,
      "chip": "ym2612"
    },
    {
      "channel": 2,
      "note": 43,
      "start": 12.6839,
      "duration": 0.0627,
      "velocity": 106,
      "chip": "ym2612"
    },
    {
      "channel": 3,
      "note": 79,
      "start": 12.6875,
      "duration": 0.0595,
      "velocity": 47,
      "chip": "ym2612"
    },
    {
      "channel": 0,
      "note": 78,
      "start": 12.7829,
      "duration": 0.0567,
      "velocity": 100,
      "chip": "ym2612"
    },
    {
      "channel": 2,
      "note": 48,
      "start": 12.7974,
      "duration": 0.1282,
      "velocity": 127,
      "chip": "ym2612"
    },
    {
      "channel": 3,
      "note": 78,
      "start": 12.8011,
      "duration": 0.0559,
      "velocity": 47,
      "chip": "ym2612"
    },
    {
      "channel": 0,
      "note": 77,
      "start": 12.8922,
      "duration": 0.0493,
      "velocity": 100,
      "chip": "ym2612"
    },
    {
      "channel": 3,
      "note": 77,
      "start": 12.8971,
      "duration": 0.0617,
      "velocity": 47,
      "chip": "ym2612"
    },
    {
      "channel": 0,
      "note": 80,
      "start": 12.9951,
      "duration": 0.1189,
      "velocity": 100,
      "chip": "ym2612"
    },
    {
      "channel": 2,
      "note": 60,
      "start": 12.9985,
      "duration": 0.27,
      "velocity": 127,
      "chip": "ym2612"
    },
    {
      "channel": 3,
      "note": 80,
      "start": 13.0022,
      "duration": 0.1291,
      "velocity": 47,
      "chip": "ym2612"
    },
    {
      "channel": 0,
      "note": 82,
      "start": 13.2008,
      "duration": 0.1178,
      "velocity": 100,
      "chip": "ym2612"
    },
    {
      "channel": 3,
      "note": 82,
      "start": 13.2058,
      "duration": 0.1302,
      "velocity": 47,
      "chip": "ym2612"
    },
    {
      "channel": 0,
      "note": 65,
      "start": 13.4066,
      "duration": 0.1393,
      "velocity": 100,
      "chip": "ym2612"
    },
    {
      "channel": 1,
      "note": 37,
      "start": 13.4103,
      "duration": 0.0843,
      "velocity": 114,
      "chip": "ym2612"
    },
    {
      "channel": 3,
      "note": 61,
      "start": 13.4399,
      "duration": 0.1067,
      "velocity": 98,
      "chip": "ym2612"
    },
    {
      "channel": 0,
      "note": 67,
      "start": 13.6338,
      "duration": 0.1179,
      "velocity": 100,
      "chip": "ym2612"
    },
    {
      "channel": 1,
      "note": 37,
      "start": 13.6375,
      "duration": 0.1314,
      "velocity": 114,
      "chip": "ym2612"
    },
    {
      "channel": 3,
      "note": 63,
      "start": 13.6414,
      "duration": 0.111,
      "velocity": 98,
      "chip": "ym2612"
    },
    {
      "channel": 0,
      "note": 68,
      "start": 13.8396,
      "duration": 0.1179,
      "velocity": 100,
      "chip": "ym2612"
    },
    {
      "channel": 1,
      "note": 36,
      "start": 13.8433,
      "duration": 0.0629,
      "velocity": 114,
      "chip": "ym2612"
    },
    {
      "channel": 2,
      "note": 41,
      "start": 13.8469,
      "duration": 0.265,
      "velocity": 127,
      "chip": "ym2612"
    },
    {
      "channel": 3,
      "note": 65,
      "start": 13.8508,
      "duration": 0.1074,
      "velocity": 98,
      "chip": "ym2612"
    },
    {
      "channel": 1,
      "note": 39,
      "start": 13.9426,
      "duration": 0.2207,
      "velocity": 114,
      "chip": "ym2612"
    },
    {
      "channel": 0,
      "note": 72,
      "start": 14.0454,
      "duration": 0.2378,
      "velocity": 100,
      "chip": "ym2612"
    },
    {
      "channel": 3,
      "note": 68,
      "start": 14.0494,
      "duration": 0.2346,
      "velocity": 98,
      "chip": "ym2612"
    },
    {
      "channel": 1,
      "note": 37,
      "start": 14.2513,
      "duration": 0.0663,
      "velocity": 114,
      "chip": "ym2612"
    },
    {
      "channel": 0,
      "note": 71,
      "start": 14.4569,
      "duration": 0.2378,
      "velocity": 100,
      "chip": "ym2612"
    },
    {
      "channel": 1,
      "note": 37,
      "start": 14.4605,
      "duration": 0.1314,
      "velocity": 114,
      "chip": "ym2612"
    },
    {
      "channel": 3,
      "note": 67,
      "start": 14.4645,
      "duration": 0.231,
      "velocity": 98,
      "chip": "ym2612"
    },
    {
      "channel": 1,
      "note": 36,
      "start": 14.6627,
      "duration": 0.0663,
      "velocity": 114,
      "chip": "ym2612"
    },
    {
      "channel": 2,
      "note": 41,
      "start": 14.6663,
      "duration": 0.2687,
      "velocity": 127,
      "chip": "ym2612"
    },
    {
      "channel": 1,
      "note": 37,
      "start": 14.7656,
      "duration": 0.2208,
      "velocity": 114,
      "chip": "ym2612"
    },
    {
      "channel": 0,
      "note": 70,
      "start": 14.8684,
      "duration": 0.2378,
      "velocity": 100,
      "chip": "ym2612"
    },
    {
      "channel": 3,
      "note": 67,
      "start": 14.8724,
      "duration": 0.2345,
      "velocity": 98,
      "chip": "ym2612"
    },
    {
      "channel": 1,
      "note": 37,
      "start": 15.0742,
      "duration": 0.0663,
      "velocity": 114,
      "chip": "ym2612"
    },
    {
      "channel": 0,
      "note": 67,
      "start": 15.2799,
      "duration": 0.2379,
      "velocity": 100,
      "chip": "ym2612"
    },
    {
      "channel": 1,
      "note": 37,
      "start": 15.2837,
      "duration": 0.1314,
      "velocity": 114,
      "chip": "ym2612"
    },
    {
      "channel": 3,
      "note": 63,
      "start": 15.2875,
      "duration": 0.231,
      "velocity": 98,
      "chip": "ym2612"
    },
    {
      "channel": 1,
      "note": 36,
      "start": 15.4857,
      "duration": 0.0663,
      "velocity": 114,
      "chip": "ym2612"
    },
    {
      "channel": 2,
      "note": 41,
      "start": 15.4894,
      "duration": 0.2686,
      "velocity": 127,
      "chip": "ym2612"
    },
    {
      "channel": 1,
      "note": 39,
      "start": 15.5886,
      "duration": 0.2207,
      "velocity": 114,
      "chip": "ym2612"
    },
    {
      "channel": 0,
      "note": 70,
      "start": 15.6914,
      "duration": 0.2378,
      "velocity": 100,
      "chip": "ym2612"
    },
    {
      "channel": 3,
      "note": 67,
      "start": 15.6954,
      "duration": 0.2345,
      "velocity": 98,
      "chip": "ym2612"
    },
    {
      "channel": 1,
      "note": 37,
      "start": 15.8972,
      "duration": 0.0663,
      "velocity": 114,
      "chip": "ym2612"
    },
    {
      "channel": 0,
      "note": 69,
      "start": 16.103,
      "duration": 0.2379,
      "velocity": 100,
      "chip": "ym2612"
    },
    {
      "channel": 1,
      "note": 37,
      "start": 16.1066,
      "duration": 0.1315,
      "velocity": 114,
      "chip": "ym2612"
    },
    {
      "channel": 3,
      "note": 66,
      "start": 16.1105,
      "duration": 0.231,
      "velocity": 98,
      "chip": "ym2612"
    },
    {
      "channel": 1,
      "note": 36,
      "start": 16.3088,
      "duration": 0.0663,
      "velocity": 114,
      "chip": "ym2612"
    },
    {
      "channel": 2,
      "note": 41,
      "start": 16.3124,
      "duration": 0.2686,
      "velocity": 127,
      "chip": "ym2612"
    },
    {
      "channel": 1,
      "note": 37,
      "start": 16.4116,
      "duration": 0.2207,
      "velocity": 114,
      "chip": "ym2612"
    },
    {
      "channel": 0,
      "note": 68,
      "start": 16.5144,
      "duration": 0.6322,
      "velocity": 100,
      "chip": "ym2612"
    },
    {
      "channel": 3,
      "note": 65,
      "start": 16.5185,
      "duration": 0.6288,
      "velocity": 98,
      "chip": "ym2612"
    },
    {
      "channel": 1,
      "note": 37,
      "start": 16.7203,
      "duration": 0.0664,
      "velocity": 114,
      "chip": "ym2612"
    },
    {
      "channel": 1,
      "note": 37,
      "start": 16.926,
      "duration": 0.135,
      "velocity": 114,
      "chip": "ym2612"
    },
    {
      "channel": 1,
      "note": 36,
      "start": 17.1317,
      "duration": 0.0663,
      "velocity": 114,
      "chip": "ym2612"
    },
    {
      "channel": 2,
      "note": 41,
      "start": 17.1354,
      "duration": 0.2685,
      "velocity": 127,
      "chip": "ym2612"
    },
    {
      "channel": 1,
      "note": 39,
      "start": 17.2346,
      "duration": 0.2207,
      "velocity": 114,
      "chip": "ym2612"
    },
    {
      "channel": 0,
      "note": 65,
      "start": 17.5432,
      "duration": 1.0094,
      "velocity": 100,
      "chip": "ym2612"
    },
    {
      "channel": 1,
      "note": 37,
      "start": 17.5469,
      "duration": 0.0628,
      "velocity": 114,
      "chip": "ym2612"
    },
    {
      "channel": 3,
      "note": 56,
      "start": 17.5513,
      "duration": 1.002,
      "velocity": 98,
      "chip": "ym2612"
    },
    {
      "channel": 1,
      "note": 37,
      "start": 17.749,
      "duration": 0.135,
      "velocity": 114,
      "chip": "ym2612"
    },
    {
      "channel": 1,
      "note": 36,
      "start": 17.9548,
      "duration": 0.0665,
      "velocity": 114,
      "chip": "ym2612"
    },
    {
      "channel": 2,
      "note": 41,
      "start": 17.9584,
      "duration": 0.2697,
      "velocity": 127,
      "chip": "ym2612"
    },
    {
      "channel": 1,
      "note": 37,
      "start": 18.0587,
      "duration": 0.2197,
      "velocity": 114,
      "chip": "ym2612"
    },
    {
      "channel": 1,
      "note": 37,
      "start": 18.3662,
      "duration": 0.0665,
      "velocity": 114,
      "chip": "ym2612"
    },
    {
      "channel": 1,
      "note": 37,
      "start": 18.572,
      "duration": 0.135,
      "velocity": 114,
      "chip": "ym2612"
    },
    {
      "channel": 1,
      "note": 36,
      "start": 18.7777,
      "duration": 0.07,
      "velocity": 114,
      "chip": "ym2612"
    },
    {
      "channel": 2,
      "note": 43,
      "start": 18.7921,
      "duration": 0.1244,
      "velocity": 127,
      "chip": "ym2612"
    },
    {
      "channel": 1,
      "note": 39,
      "start": 18.8832,
      "duration": 0.2207,
      "velocity": 114,
      "chip": "ym2612"
    },
    {
      "channel": 2,
      "note": 72,
      "start": 18.9858,
      "duration": 0.0336,
      "velocity": 127,
      "chip": "ym2612"
    },
    {
      "channel": 2,
      "note": 72,
      "start": 19.0544,
      "duration": 0.0335,
      "velocity": 127,
      "chip": "ym2612"
    },
    {
      "channel": 2,
      "note": 72,
      "start": 19.1229,
      "duration": 0.0335,
      "velocity": 127,
      "chip": "ym2612"
    },
    {
      "channel": 1,
      "note": 37,
      "start": 19.1923,
      "duration": 0.067,
      "velocity": 114,
      "chip": "ym2612"
    },
    {
      "channel": 2,
      "note": 68,
      "start": 19.1956,
      "duration": 0.0642,
      "velocity": 127,
      "chip": "ym2612"
    },
    {
      "channel": 2,
      "note": 68,
      "start": 19.2948,
      "duration": 0.0674,
      "velocity": 127,
      "chip": "ym2612"
    },
    {
      "channel": 1,
      "note": 37,
      "start": 19.3976,
      "duration": 0.1361,
      "velocity": 114,
      "chip": "ym2612"
    },
    {
      "channel": 2,
      "note": 65,
      "start": 19.401,
      "duration": 0.0642,
      "velocity": 127,
      "chip": "ym2612"
    },
    {
      "channel": 2,
      "note": 65,
      "start": 19.5002,
      "duration": 0.0678,
      "velocity": 127,
      "chip": "ym2612"
    },
    {
      "channel": 0,
      "note": 63,
      "start": 19.6033,
      "duration": 0.1245,
      "velocity": 100,
      "chip": "ym2612"
    },
    {
      "channel": 1,
      "note": 36,
      "start": 19.607,
      "duration": 0.2924,
      "velocity": 114,
      "chip": "ym2612"
    },
    {
      "channel": 2,
      "note": 60,
      "start": 19.6217,
      "duration": 0.0548,
      "velocity": 127,
      "chip": "ym2612"
    },
    {
      "channel": 2,
      "note": 58,
      "start": 19.713,
      "duration": 0.0664,
      "velocity": 127,
      "chip": "ym2612"
    },
    {
      "channel": 0,
      "note": 65,
      "start": 19.8157,
      "duration": 0.1179,
      "velocity": 100,
      "chip": "ym2612"
    },
    {
      "channel": 2,
      "note": 60,
      "start": 19.8196,
      "duration": 0.0627,
      "velocity": 127,
      "chip": "ym2612"
    },
    {
      "channel": 2,
      "note": 58,
      "start": 19.9188,
      "duration": 0.0663,
      "velocity": 127,
      "chip": "ym2612"
    },
    {
      "channel": 0,
      "note": 68,
      "start": 20.0216,
      "duration": 0.7595,
      "velocity": 100,
      "chip": "ym2612"
    },
    {
      "channel": 1,
      "note": 34,
      "start": 20.0252,
      "duration": 0.0701,
      "velocity": 114,
      "chip": "ym2612"
    },
    {
      "channel": 3,
      "note": 68,
      "start": 20.0406,
      "duration": 1.0008,
      "velocity": 98,
      "chip": "ym2612"
    },
    {
      "channel": 1,
      "note": 34,
      "start": 20.2346,
      "duration": 0.135,
      "velocity": 114,
      "chip": "ym2612"
    },
    {
      "channel": 2,
      "note": 52,
      "start": 20.452,
      "duration": 0.055,
      "velocity": 125,
      "chip": "ym2612"
    },
    {
      "channel": 1,
      "note": 34,
      "start": 20.5443,
      "duration": 0.2197,
      "velocity": 114,
      "chip": "ym2612"
    },
    {
      "channel": 2,
      "note": 52,
      "start": 20.548,
      "duration": 0.199,
      "velocity": 125,
      "chip": "ym2612"
    },
    {
      "channel": 1,
      "note": 34,
      "start": 20.8519,
      "duration": 0.0694,
      "velocity": 114,
      "chip": "ym2612"
    },
    {
      "channel": 2,
      "note": 39,
      "start": 20.8665,
      "duration": 0.0553,
      "velocity": 127,
      "chip": "ym2612"
    },
    {
      "channel": 2,
      "note": 37,
      "start": 20.9583,
      "duration": 0.066,
      "velocity": 127,
      "chip": "ym2612"
    },
    {
      "channel": 1,
      "note": 34,
      "start": 21.0606,
      "duration": 0.135,
      "velocity": 114,
      "chip": "ym2612"
    },
    {
      "channel": 2,
      "note": 39,
      "start": 21.0643,
      "duration": 0.0628,
      "velocity": 127,
      "chip": "ym2612"
    },
    {
      "channel": 2,
      "note": 37,
      "start": 21.1636,
      "duration": 0.0663,
      "velocity": 127,
      "chip": "ym2612"
    },
    {
      "channel": 0,
      "note": 67,
      "start": 21.2663,
      "duration": 0.1221,
      "velocity": 100,
      "chip": "ym2612"
    },
    {
      "channel": 2,
      "note": 65,
      "start": 21.2812,
      "duration": 0.2616,
      "velocity": 127,
      "chip": "ym2612"
    },
    {
      "channel": 1,
      "note": 36,
      "start": 21.3724,
      "duration": 0.2207,
      "velocity": 114,
      "chip": "ym2612"
    },
    {
      "channel": 0,
      "note": 68,
      "start": 21.4752,
      "duration": 0.2378,
      "velocity": 100,
      "chip": "ym2612"
    },
    {
      "channel": 1,
      "note": 36,
      "start": 21.681,
      "duration": 0.0663,
      "velocity": 114,
      "chip": "ym2612"
    },
    {
      "channel": 3,
      "note": 70,
      "start": 21.6854,
      "duration": 1.0083,
      "velocity": 98,
      "chip": "ym2612"
    },
    {
      "channel": 0,
      "note": 65,
      "start": 21.8868,
      "duration": 0.7554,
      "velocity": 100,
      "chip": "ym2612"
    },
    {
      "channel": 1,
      "note": 36,
      "start": 21.8905,
      "duration": 0.1314,
      "velocity": 114,
      "chip": "ym2612"
    },
    {
      "channel": 2,
      "note": 52,
      "start": 22.1041,
      "duration": 0.055,
      "velocity": 125,
      "chip": "ym2612"
    },
    {
      "channel": 1,
      "note": 36,
      "start": 22.1954,
      "duration": 0.2207,
      "velocity": 114,
      "chip": "ym2612"
    },
    {
      "channel": 2,
      "note": 52,
      "start": 22.1991,
      "duration": 0.2011,
      "velocity": 125,
      "chip": "ym2612"
    },
    {
      "channel": 1,
      "note": 36,
      "start": 22.5041,
      "duration": 0.0706,
      "velocity": 114,
      "chip": "ym2612"
    },
    {
      "channel": 2,
      "note": 39,
      "start": 22.5188,
      "duration": 0.0563,
      "velocity": 127,
      "chip": "ym2612"
    },
    {
      "channel": 2,
      "note": 37,
      "start": 22.6105,
      "duration": 0.066,
      "velocity": 127,
      "chip": "ym2612"
    },
    {
      "channel": 1,
      "note": 36,
      "start": 22.7129,
      "duration": 0.135,
      "velocity": 114,
      "chip": "ym2612"
    },
    {
      "channel": 2,
      "note": 39,
      "start": 22.7166,
      "duration": 0.0628,
      "velocity": 127,
      "chip": "ym2612"
    },
    {
      "channel": 2,
      "note": 37,
      "start": 22.8159,
      "duration": 0.0663,
      "velocity": 127,
      "chip": "ym2612"
    },
    {
      "channel": 2,
      "note": 65,
      "start": 22.9298,
      "duration": 0.2622,
      "velocity": 127,
      "chip": "ym2612"
    },
    {
      "channel": 1,
      "note": 36,
      "start": 23.0216,
      "duration": 0.2207,
      "velocity": 114,
      "chip": "ym2612"
    },
    {
      "channel": 0,
      "note": 63,
      "start": 23.1244,
      "duration": 0.0503,
      "velocity": 100,
      "chip": "ym2612"
    },
    {
      "channel": 0,
      "note": 65,
      "start": 23.2273,
      "duration": 0.0492,
      "velocity": 100,
      "chip": "ym2612"
    },
    {
      "channel": 0,
      "note": 68,
      "start": 23.3301,
      "duration": 0.7595,
      "velocity": 100,
      "chip": "ym2612"
    },
    {
      "channel": 1,
      "note": 37,
      "start": 23.3339,
      "duration": 0.0701,
      "velocity": 114,
      "chip": "ym2612"
    },
    {
      "channel": 3,
      "note": 72,
      "start": 23.3493,
      "duration": 0.9977,
      "velocity": 98,
      "chip": "ym2612"
    },
    {
      "channel": 1,
      "note": 37,
      "start": 23.5432,
      "duration": 0.1351,
      "velocity": 114,
      "chip": "ym2612"
    },
    {
      "channel": 2,
      "note": 52,
      "start": 23.7495,
      "duration": 0.066,
      "velocity": 125,
      "chip": "ym2612"
    },
    {
      "channel": 1,
      "note": 37,
      "start": 23.8529,
      "duration": 0.2197,
      "velocity": 114,
      "chip": "ym2612"
    },
    {
      "channel": 2,
      "note": 52,
      "start": 23.8566,
      "duration": 0.199,
      "velocity": 125,
      "chip": "ym2612"
    },
    {
      "channel": 1,
      "note": 37,
      "start": 24.1605,
      "duration": 0.0664,
      "velocity": 114,
      "chip": "ym2612"
    },
    {
      "channel": 2,
      "note": 52,
      "start": 24.1642,
      "duration": 0.0632,
      "velocity": 125,
      "chip": "ym2612"
    },
    {
      "channel": 2,
      "note": 52,
      "start": 24.2639,
      "duration": 0.066,
      "velocity": 125,
      "chip": "ym2612"
    },
    {
      "channel": 1,
      "note": 37,
      "start": 24.3662,
      "duration": 0.1351,
      "velocity": 114,
      "chip": "ym2612"
    },
    {
      "channel": 2,
      "note": 52,
      "start": 24.37,
      "duration": 0.1318,
      "velocity": 125,
      "chip": "ym2612"
    },
    {
      "channel": 0,
      "note": 67,
      "start": 24.5721,
      "duration": 0.1252,
      "velocity": 100,
      "chip": "ym2612"
    },
    {
      "channel": 1,
      "note": 36,
      "start": 24.5758,
      "duration": 0.0702,
      "velocity": 114,
      "chip": "ym2612"
    },
    {
      "channel": 2,
      "note": 67,
      "start": 24.5901,
      "duration": 0.0563,
      "velocity": 127,
      "chip": "ym2612"
    },
    {
      "channel": 1,
      "note": 37,
      "start": 24.6813,
      "duration": 0.2218,
      "velocity": 114,
      "chip": "ym2612"
    },
    {
      "channel": 2,
      "note": 67,
      "start": 24.6846,
      "duration": 0.0641,
      "velocity": 127,
      "chip": "ym2612"
    },
    {
      "channel": 0,
      "note": 68,
      "start": 24.7841,
      "duration": 0.2415,
      "velocity": 100,
      "chip": "ym2612"
    },
    {
      "channel": 2,
      "note": 63,
      "start": 24.7875,
      "duration": 0.1327,
      "velocity": 127,
      "chip": "ym2612"
    },
    {
      "channel": 1,
      "note": 39,
      "start": 24.9899,
      "duration": 0.07,
      "velocity": 114,
      "chip": "ym2612"
    },
    {
      "channel": 3,
      "note": 73,
      "start": 25.0053,
      "duration": 0.9989,
      "velocity": 98,
      "chip": "ym2612"
    },
    {
      "channel": 0,
      "note": 70,
      "start": 25.1993,
      "duration": 0.7533,
      "velocity": 100,
      "chip": "ym2612"
    },
    {
      "channel": 1,
      "note": 39,
      "start": 25.203,
      "duration": 0.1314,
      "velocity": 114,
      "chip": "ym2612"
    },
    {
      "channel": 2,
      "note": 52,
      "start": 25.4056,
      "duration": 0.066,
      "velocity": 125,
      "chip": "ym2612"
    },
    {
      "channel": 1,
      "note": 39,
      "start": 25.5079,
      "duration": 0.2207,
      "velocity": 114,
      "chip": "ym2612"
    },
    {
      "channel": 2,
      "note": 52,
      "start": 25.5116,
      "duration": 0.2011,
      "velocity": 125,
      "chip": "ym2612"
    },
    {
      "channel": 2,
      "note": 67,
      "start": 25.8278,
      "duration": 0.0575,
      "velocity": 127,
      "chip": "ym2612"
    },
    {
      "channel": 2,
      "note": 67,
      "start": 25.9192,
      "duration": 0.1364,
      "velocity": 127,
      "chip": "ym2612"
    },
    {
      "channel": 1,
      "note": 39,
      "start": 26.0224,
      "duration": 0.1361,
      "velocity": 114,
      "chip": "ym2612"
    },
    {
      "channel": 2,
      "note": 67,
      "start": 26.1249,
      "duration": 0.0679,
      "velocity": 127,
      "chip": "ym2612"
    },
    {
      "channel": 1,
      "note": 37,
      "start": 26.2281,
      "duration": 0.135,
      "velocity": 114,
      "chip": "ym2612"
    },
    {
      "channel": 2,
      "note": 63,
      "start": 26.2314,
      "duration": 0.0643,
      "velocity": 127,
      "chip": "ym2612"
    },
    {
      "channel": 2,
      "note": 52,
      "start": 26.3422,
      "duration": 0.0553,
      "velocity": 125,
      "chip": "ym2612"
    },
    {
      "channel": 1,
      "note": 39,
      "start": 26.4343,
      "duration": 0.1386,
      "velocity": 114,
      "chip": "ym2612"
    },
    {
      "channel": 2,
      "note": 60,
      "start": 26.4486,
      "duration": 0.1249,
      "velocity": 127,
      "chip": "ym2612"
    },
    {
      "channel": 0,
      "note": 72,
      "start": 26.6425,
      "duration": 0.1397,
      "velocity": 100,
      "chip": "ym2612"
    },
    {
      "channel": 1,
      "note": 41,
      "start": 26.6462,
      "duration": 0.1532,
      "velocity": 114,
      "chip": "ym2612"
    },
    {
      "channel": 2,
      "note": 29,
      "start": 26.6613,
      "duration": 0.1386,
      "velocity": 125,
      "chip": "ym2612"
    },
    {
      "channel": 3,
      "note": 65,
      "start": 26.6762,
      "duration": 0.1068,
      "velocity": 99,
      "chip": "ym2612"
    },
    {
      "channel": 0,
      "note": 72,
      "start": 26.8702,
      "duration": 0.1178,
      "velocity": 100,
      "chip": "ym2612"
    },
    {
      "channel": 1,
      "note": 53,
      "start": 26.8739,
      "duration": 0.1313,
      "velocity": 114,
      "chip": "ym2612"
    },
    {
      "channel": 2,
      "note": 29,
      "start": 26.8775,
      "duration": 0.1282,
      "velocity": 125,
      "chip": "ym2612"
    },
    {
      "channel": 3,
      "note": 65,
      "start": 26.8814,
      "duration": 0.1074,
      "velocity": 99,
      "chip": "ym2612"
    },
    {
      "channel": 0,
      "note": 72,
      "start": 27.3954,
      "duration": 0.2471,
      "velocity": 106,
      "chip": "ym2612"
    },
    {
      "channel": 3,
      "note": 72,
      "start": 27.3993,
      "duration": 0.1748,
      "velocity": 47,
      "chip": "ym2612"
    },
    {
      "channel": 1,
      "note": 48,
      "start": 27.5015,
      "duration": 0.2783,
      "velocity": 127,
      "chip": "ym2612"
    },
    {
      "channel": 0,
      "note": 82,
      "start": 27.6957,
      "duration": 0.1697,
      "velocity": 106,
      "chip": "ym2612"
    },
    {
      "channel": 3,
      "note": 82,
      "start": 27.6997,
      "duration": 0.1146,
      "velocity": 47,
      "chip": "ym2612"
    },
    {
      "channel": 0,
      "note": 81,
      "start": 27.9015,
      "duration": 0.1698,
      "velocity": 106,
      "chip": "ym2612"
    },
    {
      "channel": 1,
      "note": 48,
      "start": 27.9051,
      "duration": 0.2863,
      "velocity": 127,
      "chip": "ym2612"
    },
    {
      "channel": 3,
      "note": 81,
      "start": 27.909,
      "duration": 0.1111,
      "velocity": 47,
      "chip": "ym2612"
    },
    {
      "channel": 0,
      "note": 80,
      "start": 28.1072,
      "duration": 0.7012,
      "velocity": 106,
      "chip": "ym2612"
    },
    {
      "channel": 3,
      "note": 80,
      "start": 28.1112,
      "duration": 0.4922,
      "velocity": 47,
      "chip": "ym2612"
    },
    {
      "channel": 1,
      "note": 48,
      "start": 28.3135,
      "duration": 0.2894,
      "velocity": 127,
      "chip": "ym2612"
    },
    {
      "channel": 1,
      "note": 41,
      "start": 28.7361,
      "duration": 0.2783,
      "velocity": 114,
      "chip": "ym2612"
    },
    {
      "channel": 0,
      "note": 77,
      "start": 28.9302,
      "duration": 0.3412,
      "velocity": 106,
      "chip": "ym2612"
    },
    {
      "channel": 3,
      "note": 77,
      "start": 28.9343,
      "duration": 0.2345,
      "velocity": 47,
      "chip": "ym2612"
    },
    {
      "channel": 1,
      "note": 41,
      "start": 29.1366,
      "duration": 0.2893,
      "velocity": 114,
      "chip": "ym2612"
    },
    {
      "channel": 0,
      "note": 79,
      "start": 29.3417,
      "duration": 0.1697,
      "velocity": 106,
      "chip": "ym2612"
    },
    {
      "channel": 3,
      "note": 79,
      "start": 29.3457,
      "duration": 0.1146,
      "velocity": 47,
      "chip": "ym2612"
    },
    {
      "channel": 0,
      "note": 80,
      "start": 29.5475,
      "duration": 0.1698,
      "velocity": 106,
      "chip": "ym2612"
    },
    {
      "channel": 1,
      "note": 41,
      "start": 29.5512,
      "duration": 0.0632,
      "velocity": 114,
      "chip": "ym2612"
    },
    {
      "channel": 3,
      "note": 80,
      "start": 29.5555,
      "duration": 0.1105,
      "velocity": 47,
      "chip": "ym2612"
    },
    {
      "channel": 1,
      "note": 46,
      "start": 29.651,
      "duration": 0.0668,
      "velocity": 114,
      "chip": "ym2612"
    },
    {
      "channel": 0,
      "note": 73,
      "start": 29.7651,
      "duration": 0.4651,
      "velocity": 100,
      "chip": "ym2612"
    },
    {
      "channel": 1,
      "note": 46,
      "start": 29.7689,
      "duration": 0.1529,
      "velocity": 114,
      "chip": "ym2612"
    },
    {
      "channel": 2,
      "note": 34,
      "start": 29.7836,
      "duration": 0.6011,
      "velocity": 127,
      "chip": "ym2612"
    },
    {
      "channel": 3,
      "note": 70,
      "start": 29.7984,
      "duration": 0.3636,
      "velocity": 99,
      "chip": "ym2612"
    },
    {
      "channel": 1,
      "note": 24,
      "start": 30.0039,
      "duration": 0.0721,
      "velocity": 125,
      "chip": "ym2612"
    },
    {
      "channel": 1,
      "note": 24,
      "start": 30.1982,
      "duration": 0.0835,
      "velocity": 125,
      "chip": "ym2612"
    },
    {
      "channel": 1,
      "note": 37,
      "start": 30.4154,
      "duration": 0.0724,
      "velocity": 114,
      "chip": "ym2612"
    },
    {
      "channel": 0,
      "note": 77,
      "start": 30.6099,
      "duration": 0.6094,
      "velocity": 100,
      "chip": "ym2612"
    },
    {
      "channel": 1,
      "note": 49,
      "start": 30.6246,
      "duration": 0.0794,
      "velocity": 127,
      "chip": "ym2612"
    },
    {
      "channel": 2,
      "note": 49,
      "start": 30.6283,
      "duration": 0.7444,
      "velocity": 127,
      "chip": "ym2612"
    },
    {
      "channel": 3,
      "note": 73,
      "start": 30.632,
      "duration": 0.484,
      "velocity": 99,
      "chip": "ym2612"
    },
    {
      "channel": 1,
      "note": 65,
      "start": 30.8368,
      "duration": 0.074,
      "velocity": 127,
      "chip": "ym2612"
    },
    {
      "channel": 1,
      "note": 37,
      "start": 31.0429,
      "duration": 0.0726,
      "velocity": 114,
      "chip": "ym2612"
    },
    {
      "channel": 1,
      "note": 58,
      "start": 31.2482,
      "duration": 0.074,
      "velocity": 127,
      "chip": "ym2612"
    },
    {
      "channel": 1,
      "note": 37,
      "start": 31.4548,
      "duration": 0.0723,
      "velocity": 114,
      "chip": "ym2612"
    },
    {
      "channel": 0,
      "note": 79,
      "start": 31.6496,
      "duration": 0.1454,
      "velocity": 100,
      "chip": "ym2612"
    },
    {
      "channel": 1,
      "note": 36,
      "start": 31.6534,
      "duration": 0.0904,
      "velocity": 114,
      "chip": "ym2612"
    },
    {
      "channel": 2,
      "note": 24,
      "start": 31.6681,
      "duration": 0.1276,
      "velocity": 125,
      "chip": "ym2612"
    },
    {
      "channel": 3,
      "note": 72,
      "start": 31.6719,
      "duration": 0.1063,
      "velocity": 99,
      "chip": "ym2612"
    },
    {
      "channel": 0,
      "note": 79,
      "start": 31.8658,
      "duration": 0.135,
      "velocity": 100,
      "chip": "ym2612"
    },
    {
      "channel": 1,
      "note": 48,
      "start": 31.8696,
      "duration": 0.0799,
      "velocity": 114,
      "chip": "ym2612"
    },
    {
      "channel": 2,
      "note": 24,
      "start": 31.8733,
      "duration": 0.1282,
      "velocity": 125,
      "chip": "ym2612"
    },
    {
      "channel": 3,
      "note": 72,
      "start": 31.8771,
      "duration": 0.1069,
      "velocity": 99,
      "chip": "ym2612"
    },
    {
      "channel": 2,
      "note": 36,
      "start": 32.0837,
      "duration": 0.1237,
      "velocity": 114,
      "chip": "ym2612"
    },
    {
      "channel": 1,
      "note": 60,
      "start": 32.2887,
      "duration": 0.0251,
      "velocity": 127,
      "chip": "ym2612"
    },
    {
      "channel": 2,
      "note": 51,
      "start": 32.2924,
      "duration": 0.1233,
      "velocity": 114,
      "chip": "ym2612"
    },
    {
      "channel": 1,
      "note": 24,
      "start": 32.4979,
      "duration": 0.3671,
      "velocity": 127,
      "chip": "ym2612"
    },
    {
      "channel": 2,
      "note": 36,
      "start": 32.5016,
      "duration": 0.1234,
      "velocity": 114,
      "chip": "ym2612"
    },
    {
      "channel": 2,
      "note": 48,
      "start": 32.6958,
      "duration": 0.135,
      "velocity": 114,
      "chip": "ym2612"
    },
    {
      "channel": 1,
      "note": 48,
      "start": 32.9019,
      "duration": 0.066,
      "velocity": 127,
      "chip": "ym2612"
    },
    {
      "channel": 2,
      "note": 36,
      "start": 32.9055,
      "duration": 0.1311,
      "velocity": 114,
      "chip": "ym2612"
    },
    {
      "channel": 1,
      "note": 46,
      "start": 33.0044,
      "duration": 0.0663,
      "velocity": 127,
      "chip": "ym2612"
    },
    {
      "channel": 1,
      "note": 48,
      "start": 33.1073,
      "duration": 0.0664,
      "velocity": 127,
      "chip": "ym2612"
    },
    {
      "channel": 2,
      "note": 51,
      "start": 33.111,
      "duration": 0.1314,
      "velocity": 114,
      "chip": "ym2612"
    },
    {
      "channel": 1,
      "note": 46,
      "start": 33.2102,
      "duration": 0.0663,
      "velocity": 127,
      "chip": "ym2612"
    },
    {
      "channel": 0,
      "note": 68,
      "start": 33.313,
      "duration": 0.1564,
      "velocity": 100,
      "chip": "ym2612"
    },
    {
      "channel": 1,
      "note": 29,
      "start": 33.3277,
      "duration": 0.1422,
      "velocity": 114,
      "chip": "ym2612"
    },
    {
      "channel": 2,
      "note": 24,
      "start": 33.3424,
      "duration": 0.128,
      "velocity": 125,
      "chip": "ym2612"
    },
    {
      "channel": 3,
      "note": 63,
      "start": 33.3462,
      "duration": 0.1064,
      "velocity": 99,
      "chip": "ym2612"
    },
    {
      "channel": 0,
      "note": 68,
      "start": 33.5401,
      "duration": 0.135,
      "velocity": 100,
      "chip": "ym2612"
    },
    {
      "channel": 1,
      "note": 41,
      "start": 33.5438,
      "duration": 0.1319,
      "velocity": 114,
      "chip": "ym2612"
    },
    {
      "channel": 2,
      "note": 24,
      "start": 33.5475,
      "duration": 0.1287,
      "velocity": 125,
      "chip": "ym2612"
    },
    {
      "channel": 3,
      "note": 63,
      "start": 33.5514,
      "duration": 0.1069,
      "velocity": 99,
      "chip": "ym2612"
    },
    {
      "channel": 1,
      "note": 41,
      "start": 33.9516,
      "duration": 0.1493,
      "velocity": 114,
      "chip": "ym2612"
    },
    {
      "channel": 0,
      "note": 72,
      "start": 34.0654,
      "duration": 0.2583,
      "velocity": 106,
      "chip": "ym2612"
    },
    {
      "channel": 3,
      "note": 72,
      "start": 34.0805,
      "duration": 0.1749,
      "velocity": 47,
      "chip": "ym2612"
    },
    {
      "channel": 0,
      "note": 73,
      "start": 34.3768,
      "duration": 0.3511,
      "velocity": 106,
      "chip": "ym2612"
    },
    {
      "channel": 1,
      "note": 41,
      "start": 34.3805,
      "duration": 0.1418,
      "velocity": 114,
      "chip": "ym2612"
    },
    {
      "channel": 2,
      "note": 53,
      "start": 34.3951,
      "duration": 0.0587,
      "velocity": 127,
      "chip": "ym2612"
    },
    {
      "channel": 3,
      "note": 73,
      "start": 34.399,
      "duration": 0.2263,
      "velocity": 47,
      "chip": "ym2612"
    },
    {
      "channel": 2,
      "note": 53,
      "start": 34.4902,
      "duration": 0.0663,
      "velocity": 127,
      "chip": "ym2612"
    },
    {
      "channel": 2,
      "note": 53,
      "start": 34.5936,
      "duration": 0.066,
      "velocity": 127,
      "chip": "ym2612"
    },
    {
      "channel": 2,
      "note": 53,
      "start": 34.696,
      "duration": 0.0663,
      "velocity": 127,
      "chip": "ym2612"
    },
    {
      "channel": 0,
      "note": 77,
      "start": 34.7982,
      "duration": 0.1698,
      "velocity": 106,
      "chip": "ym2612"
    },
    {
      "channel": 1,
      "note": 29,
      "start": 34.8019,
      "duration": 0.1319,
      "velocity": 114,
      "chip": "ym2612"
    },
    {
      "channel": 2,
      "note": 53,
      "start": 34.8056,
      "duration": 0.1287,
      "velocity": 127,
      "chip": "ym2612"
    },
    {
      "channel": 3,
      "note": 77,
      "start": 34.8094,
      "duration": 0.1074,
      "velocity": 47,
      "chip": "ym2612"
    },
    {
      "channel": 0,
      "note": 79,
      "start": 35.004,
      "duration": 0.348,
      "velocity": 106,
      "chip": "ym2612"
    },
    {
      "channel": 1,
      "note": 29,
      "start": 35.0187,
      "duration": 0.1276,
      "velocity": 114,
      "chip": "ym2612"
    },
    {
      "channel": 3,
      "note": 79,
      "start": 35.023,
      "duration": 0.2263,
      "velocity": 47,
      "chip": "ym2612"
    },
    {
      "channel": 1,
      "note": 36,
      "start": 35.2171,
      "duration": 0.1354,
      "velocity": 114,
      "chip": "ym2612"
    },
    {
      "channel": 0,
      "note": 80,
      "start": 35.4222,
      "duration": 0.7013,
      "velocity": 106,
      "chip": "ym2612"
    },
    {
      "channel": 3,
      "note": 80,
      "start": 35.4266,
      "duration": 0.4913,
      "velocity": 47,
      "chip": "ym2612"
    },
    {
      "channel": 2,
      "note": 48,
      "start": 35.6397,
      "duration": 0.0554,
      "velocity": 127,
      "chip": "ym2612"
    },
    {
      "channel": 2,
      "note": 46,
      "start": 35.7315,
      "duration": 0.0664,
      "velocity": 127,
      "chip": "ym2612"
    },
    {
      "channel": 2,
      "note": 48,
      "start": 35.8344,
      "duration": 0.0663,
      "velocity": 127,
      "chip": "ym2612"
    },
    {
      "channel": 2,
      "note": 46,
      "start": 35.9373,
      "duration": 0.0664,
      "velocity": 127,
      "chip": "ym2612"
    },
    {
      "channel": 1,
      "note": 29,
      "start": 36.04,
      "duration": 0.135,
      "velocity": 114,
      "chip": "ym2612"
    },
    {
      "channel": 2,
      "note": 41,
      "start": 36.0437,
      "duration": 0.1319,
      "velocity": 127,
      "chip": "ym2612"
    },
    {
      "channel": 0,
      "note": 67,
      "start": 36.2572,
      "duration": 0.1279,
      "velocity": 100,
      "chip": "ym2612"
    },
    {
      "channel": 2,
      "note": 41,
      "start": 36.2614,
      "duration": 0.1243,
      "velocity": 127,
      "chip": "ym2612"
    },
    {
      "channel": 0,
      "note": 65,
      "start": 36.4559,
      "duration": 0.1349,
      "velocity": 100,
      "chip": "ym2612"
    },
    {
      "channel": 1,
      "note": 29,
      "start": 36.4595,
      "duration": 0.1318,
      "velocity": 114,
      "chip": "ym2612"
    },
    {
      "channel": 0,
      "note": 63,
      "start": 36.6616,
      "duration": 0.1423,
      "velocity": 100,
      "chip": "ym2612"
    },
    {
      "channel": 1,
      "note": 27,
      "start": 36.6653,
      "duration": 0.1391,
      "velocity": 114,
      "chip": "ym2612"
    },
    {
      "channel": 3,
      "note": 58,
      "start": 36.6807,
      "duration": 0.1063,
      "velocity": 99,
      "chip": "ym2612"
    },
    {
      "channel": 0,
      "note": 63,
      "start": 36.8746,
      "duration": 0.135,
      "velocity": 100,
      "chip": "ym2612"
    },
    {
      "channel": 1,
      "note": 39,
      "start": 36.8783,
      "duration": 0.1318,
      "velocity": 114,
      "chip": "ym2612"
    },
    {
      "channel": 3,
      "note": 58,
      "start": 36.8822,
      "duration": 0.1105,
      "velocity": 99,
      "chip": "ym2612"
    },
    {
      "channel": 2,
      "note": 39,
      "start": 37.2973,
      "duration": 0.0554,
      "velocity": 127,
      "chip": "ym2612"
    },
    {
      "channel": 0,
      "note": 65,
      "start": 37.3894,
      "duration": 0.1719,
      "velocity": 100,
      "chip": "ym2612"
    },
    {
      "channel": 2,
      "note": 39,
      "start": 37.3931,
      "duration": 0.0624,
      "velocity": 127,
      "chip": "ym2612"
    },
    {
      "channel": 1,
      "note": 27,
      "start": 37.4919,
      "duration": 0.138,
      "velocity": 114,
      "chip": "ym2612"
    },
    {
      "channel": 2,
      "note": 32,
      "start": 37.5066,
      "duration": 0.0553,
      "velocity": 125,
      "chip": "ym2612"
    },
    {
      "channel": 2,
      "note": 32,
      "start": 37.5983,
      "duration": 0.1345,
      "velocity": 125,
      "chip": "ym2612"
    },
    {
      "channel": 0,
      "note": 63,
      "start": 37.6663,
      "duration": 0.1694,
      "velocity": 100,
      "chip": "ym2612"
    },
    {
      "channel": 1,
      "note": 39,
      "start": 37.7007,
      "duration": 0.1354,
      "velocity": 114,
      "chip": "ym2612"
    },
    {
      "channel": 2,
      "note": 32,
      "start": 37.8037,
      "duration": 0.0668,
      "velocity": 125,
      "chip": "ym2612"
    },
    {
      "channel": 2,
      "note": 39,
      "start": 37.918,
      "duration": 0.0549,
      "velocity": 127,
      "chip": "ym2612"
    },
    {
      "channel": 2,
      "note": 39,
      "start": 38.0094,
      "duration": 0.135,
      "velocity": 127,
      "chip": "ym2612"
    },
    {
      "channel": 0,
      "note": 68,
      "start": 38.0778,
      "duration": 0.1693,
      "velocity": 100,
      "chip": "ym2612"
    },
    {
      "channel": 1,
      "note": 39,
      "start": 38.1122,
      "duration": 0.1354,
      "velocity": 114,
      "chip": "ym2612"
    },
    {
      "channel": 2,
      "note": 39,
      "start": 38.2152,
      "duration": 0.0704,
      "velocity": 127,
      "chip": "ym2612"
    },
    {
      "channel": 0,
      "note": 72,
      "start": 38.284,
      "duration": 0.2546,
      "velocity": 100,
      "chip": "ym2612"
    },
    {
      "channel": 1,
      "note": 27,
      "start": 38.318,
      "duration": 0.135,
      "velocity": 114,
      "chip": "ym2612"
    },
    {
      "channel": 1,
      "note": 39,
      "start": 38.5238,
      "duration": 0.1349,
      "velocity": 114,
      "chip": "ym2612"
    },
    {
      "channel": 0,
      "note": 70,
      "start": 38.6784,
      "duration": 0.0014,
      "velocity": 100,
      "chip": "ym2612"
    },
    {
      "channel": 0,
      "note": 72,
      "start": 38.6951,
      "duration": 0.375,
      "velocity": 100,
      "chip": "ym2612"
    },
    {
      "channel": 1,
      "note": 34,
      "start": 38.9352,
      "duration": 0.1354,
      "velocity": 114,
      "chip": "ym2612"
    },
    {
      "channel": 0,
      "note": 70,
      "start": 39.107,
      "duration": 0.1175,
      "velocity": 100,
      "chip": "ym2612"
    },
    {
      "channel": 1,
      "note": 34,
      "start": 39.141,
      "duration": 0.1349,
      "velocity": 114,
      "chip": "ym2612"
    },
    {
      "channel": 0,
      "note": 68,
      "start": 39.3124,
      "duration": 0.3781,
      "velocity": 100,
      "chip": "ym2612"
    },
    {
      "channel": 1,
      "note": 40,
      "start": 39.3468,
      "duration": 0.4466,
      "velocity": 114,
      "chip": "ym2612"
    },
    {
      "channel": 2,
      "note": 31,
      "start": 39.3615,
      "duration": 0.1234,
      "velocity": 127,
      "chip": "ym2612"
    },
    {
      "channel": 2,
      "note": 36,
      "start": 39.5662,
      "duration": 0.0559,
      "velocity": 109,
      "chip": "ym2612"
    },
    {
      "channel": 2,
      "note": 41,
      "start": 39.6581,
      "duration": 0.0668,
      "velocity": 109,
      "chip": "ym2612"
    },
    {
      "channel": 2,
      "note": 41,
      "start": 39.7609,
      "duration": 0.0668,
      "velocity": 109,
      "chip": "ym2612"
    },
    {
      "channel": 2,
      "note": 41,
      "start": 39.8638,
      "duration": 0.0705,
      "velocity": 109,
      "chip": "ym2612"
    },
    {
      "channel": 0,
      "note": 68,
      "start": 39.9327,
      "duration": 0.6332,
      "velocity": 100,
      "chip": "ym2612"
    },
    {
      "channel": 3,
      "note": 65,
      "start": 39.9613,
      "duration": 0.6218,
      "velocity": 100,
      "chip": "ym2612"
    },
    {
      "channel": 1,
      "note": 37,
      "start": 39.9785,
      "duration": 0.1068,
      "velocity": 114,
      "chip": "ym2612"
    },
    {
      "channel": 1,
      "note": 68,
      "start": 40.1499,
      "duration": 0.0554,
      "velocity": 97,
      "chip": "ym2612"
    },
    {
      "channel": 1,
      "note": 80,
      "start": 40.2417,
      "duration": 0.0664,
      "velocity": 97,
      "chip": "ym2612"
    },
    {
      "channel": 1,
      "note": 37,
      "start": 40.3556,
      "duration": 0.1239,
      "velocity": 114,
      "chip": "ym2612"
    },
    {
      "channel": 1,
      "note": 68,
      "start": 40.5614,
      "duration": 0.0559,
      "velocity": 97,
      "chip": "ym2612"
    },
    {
      "channel": 1,
      "note": 80,
      "start": 40.6538,
      "duration": 0.0664,
      "velocity": 97,
      "chip": "ym2612"
    },
    {
      "channel": 1,
      "note": 37,
      "start": 40.7677,
      "duration": 0.1276,
      "velocity": 114,
      "chip": "ym2612"
    },
    {
      "channel": 2,
      "note": 60,
      "start": 40.8025,
      "duration": 0.0378,
      "velocity": 127,
      "chip": "ym2612"
    },
    {
      "channel": 2,
      "note": 58,
      "start": 40.8939,
      "duration": 0.0492,
      "velocity": 127,
      "chip": "ym2612"
    },
    {
      "channel": 0,
      "note": 67,
      "start": 40.9624,
      "duration": 0.2446,
      "velocity": 100,
      "chip": "ym2612"
    },
    {
      "channel": 1,
      "note": 68,
      "start": 40.9771,
      "duration": 0.0548,
      "velocity": 97,
      "chip": "ym2612"
    },
    {
      "channel": 3,
      "note": 63,
      "start": 40.983,
      "duration": 0.2377,
      "velocity": 100,
      "chip": "ym2612"
    },
    {
      "channel": 2,
      "note": 60,
      "start": 40.9999,
      "duration": 0.0493,
      "velocity": 127,
      "chip": "ym2612"
    },
    {
      "channel": 1,
      "note": 80,
      "start": 41.0684,
      "duration": 0.0665,
      "velocity": 97,
      "chip": "ym2612"
    },
    {
      "channel": 2,
      "note": 58,
      "start": 41.1029,
      "duration": 0.0492,
      "velocity": 127,
      "chip": "ym2612"
    },
    {
      "channel": 1,
      "note": 37,
      "start": 41.1823,
      "duration": 0.1275,
      "velocity": 114,
      "chip": "ym2612"
    },
    {
      "channel": 2,
      "note": 61,
      "start": 41.2057,
      "duration": 0.0492,
      "velocity": 127,
      "chip": "ym2612"
    },
    {
      "channel": 2,
      "note": 61,
      "start": 41.3085,
      "duration": 0.0493,
      "velocity": 127,
      "chip": "ym2612"
    },
    {
      "channel": 0,
      "note": 68,
      "start": 41.377,
      "duration": 0.1209,
      "velocity": 100,
      "chip": "ym2612"
    },
    {
      "channel": 1,
      "note": 68,
      "start": 41.3917,
      "duration": 0.0548,
      "velocity": 97,
      "chip": "ym2612"
    },
    {
      "channel": 3,
      "note": 65,
      "start": 41.3976,
      "duration": 0.1176,
      "velocity": 100,
      "chip": "ym2612"
    },
    {
      "channel": 2,
      "note": 58,
      "start": 41.4145,
      "duration": 0.1178,
      "velocity": 127,
      "chip": "ym2612"
    },
    {
      "channel": 1,
      "note": 80,
      "start": 41.4829,
      "duration": 0.0663,
      "velocity": 97,
      "chip": "ym2612"
    },
    {
      "channel": 0,
      "note": 63,
      "start": 41.5858,
      "duration": 0.6364,
      "velocity": 100,
      "chip": "ym2612"
    },
    {
      "channel": 1,
      "note": 36,
      "start": 41.6006,
      "duration": 0.1235,
      "velocity": 114,
      "chip": "ym2612"
    },
    {
      "channel": 3,
      "note": 60,
      "start": 41.6065,
      "duration": 0.6362,
      "velocity": 100,
      "chip": "ym2612"
    },
    {
      "channel": 2,
      "note": 53,
      "start": 41.6237,
      "duration": 0.1346,
      "velocity": 127,
      "chip": "ym2612"
    },
    {
      "channel": 1,
      "note": 63,
      "start": 41.8058,
      "duration": 0.0554,
      "velocity": 97,
      "chip": "ym2612"
    },
    {
      "channel": 2,
      "note": 51,
      "start": 41.8291,
      "duration": 0.1354,
      "velocity": 127,
      "chip": "ym2612"
    },
    {
      "channel": 1,
      "note": 80,
      "start": 41.8976,
      "duration": 0.0665,
      "velocity": 97,
      "chip": "ym2612"
    },
    {
      "channel": 1,
      "note": 36,
      "start": 42.0115,
      "duration": 0.1272,
      "velocity": 114,
      "chip": "ym2612"
    },
    {
      "channel": 2,
      "note": 39,
      "start": 42.0454,
      "duration": 0.0569,
      "velocity": 109,
      "chip": "ym2612"
    },
    {
      "channel": 2,
      "note": 39,
      "start": 42.1373,
      "duration": 0.0826,
      "velocity": 109,
      "chip": "ym2612"
    },
    {
      "channel": 1,
      "note": 63,
      "start": 42.2173,
      "duration": 0.0563,
      "velocity": 97,
      "chip": "ym2612"
    },
    {
      "channel": 2,
      "note": 39,
      "start": 42.2412,
      "duration": 0.0704,
      "velocity": 109,
      "chip": "ym2612"
    },
    {
      "channel": 1,
      "note": 80,
      "start": 42.3101,
      "duration": 0.0664,
      "velocity": 97,
      "chip": "ym2612"
    },
    {
      "channel": 2,
      "note": 39,
      "start": 42.3441,
      "duration": 0.0814,
      "velocity": 109,
      "chip": "ym2612"
    },
    {
      "channel": 1,
      "note": 36,
      "start": 42.424,
      "duration": 0.1272,
      "velocity": 114,
      "chip": "ym2612"
    },
    {
      "channel": 2,
      "note": 39,
      "start": 42.4469,
      "duration": 0.0668,
      "velocity": 109,
      "chip": "ym2612"
    },
    {
      "channel": 2,
      "note": 39,
      "start": 42.5499,
      "duration": 0.0741,
      "velocity": 109,
      "chip": "ym2612"
    },
    {
      "channel": 0,
      "note": 68,
      "start": 42.6188,
      "duration": 0.1178,
      "velocity": 100,
      "chip": "ym2612"
    },
    {
      "channel": 1,
      "note": 35,
      "start": 42.6224,
      "duration": 0.1314,
      "velocity": 114,
      "chip": "ym2612"
    },
    {
      "channel": 3,
      "note": 65,
      "start": 42.6364,
      "duration": 0.118,
      "velocity": 100,
      "chip": "ym2612"
    },
    {
      "channel": 2,
      "note": 27,
      "start": 42.6528,
      "duration": 0.1354,
      "velocity": 109,
      "chip": "ym2612"
    },
    {
      "channel": 0,
      "note": 70,
      "start": 42.8245,
      "duration": 0.1179,
      "velocity": 100,
      "chip": "ym2612"
    },
    {
      "channel": 1,
      "note": 41,
      "start": 42.8282,
      "duration": 0.1314,
      "velocity": 114,
      "chip": "ym2612"
    },
    {
      "channel": 3,
      "note": 67,
      "start": 42.842,
      "duration": 0.1181,
      "velocity": 100,
      "chip": "ym2612"
    },
    {
      "channel": 0,
      "note": 72,
      "start": 43.0302,
      "duration": 0.0493,
      "velocity": 100,
      "chip": "ym2612"
    },
    {
      "channel": 1,
      "note": 44,
      "start": 43.034,
      "duration": 0.0627,
      "velocity": 114,
      "chip": "ym2612"
    },
    {
      "channel": 3,
      "note": 72,
      "start": 43.0478,
      "duration": 0.0494,
      "velocity": 100,
      "chip": "ym2612"
    },
    {
      "channel": 0,
      "note": 74,
      "start": 43.1331,
      "duration": 0.1179,
      "velocity": 100,
      "chip": "ym2612"
    },
    {
      "channel": 1,
      "note": 47,
      "start": 43.1368,
      "duration": 0.2341,
      "velocity": 114,
      "chip": "ym2612"
    },
    {
      "channel": 3,
      "note": 74,
      "start": 43.1617,
      "duration": 0.118,
      "velocity": 97,
      "chip": "ym2612"
    },
    {
      "channel": 1,
      "note": 32,
      "start": 43.6813,
      "duration": 0.2903,
      "velocity": 109,
      "chip": "ym2612"
    },
    {
      "channel": 2,
      "note": 32,
      "start": 43.685,
      "duration": 0.578,
      "velocity": 125,
      "chip": "ym2612"
    },
    {
      "channel": 0,
      "note": 64,
      "start": 44.059,
      "duration": 0.1179,
      "velocity": 100,
      "chip": "ym2612"
    },
    {
      "channel": 3,
      "note": 60,
      "start": 44.0876,
      "duration": 0.1066,
      "velocity": 100,
      "chip": "ym2612"
    },
    {
      "channel": 1,
      "note": 24,
      "start": 44.1044,
      "duration": 0.1239,
      "velocity": 125,
      "chip": "ym2612"
    },
    {
      "channel": 1,
      "note": 24,
      "start": 44.3097,
      "duration": 0.1244,
      "velocity": 109,
      "chip": "ym2612"
    },
    {
      "channel": 0,
      "note": 65,
      "start": 44.4705,
      "duration": 0.1179,
      "velocity": 100,
      "chip": "ym2612"
    },
    {
      "channel": 3,
      "note": 62,
      "start": 44.4881,
      "duration": 0.1176,
      "velocity": 100,
      "chip": "ym2612"
    },
    {
      "channel": 1,
      "note": 41,
      "start": 44.5044,
      "duration": 0.1354,
      "velocity": 109,
      "chip": "ym2612"
    },
    {
      "channel": 0,
      "note": 67,
      "start": 44.6763,
      "duration": 0.1179,
      "velocity": 100,
      "chip": "ym2612"
    },
    {
      "channel": 3,
      "note": 64,
      "start": 44.6938,
      "duration": 0.1177,
      "velocity": 100,
      "chip": "ym2612"
    },
    {
      "channel": 1,
      "note": 24,
      "start": 44.7217,
      "duration": 0.1239,
      "velocity": 125,
      "chip": "ym2612"
    },
    {
      "channel": 1,
      "note": 24,
      "start": 44.9274,
      "duration": 0.1239,
      "velocity": 125,
      "chip": "ym2612"
    },
    {
      "channel": 0,
      "note": 77,
      "start": 45.0873,
      "duration": 0.1183,
      "velocity": 109,
      "chip": "ym2612"
    },
    {
      "channel": 1,
      "note": 60,
      "start": 45.1331,
      "duration": 0.0586,
      "velocity": 127,
      "chip": "ym2612"
    },
    {
      "channel": 3,
      "note": 77,
      "start": 45.1905,
      "duration": 0.1181,
      "velocity": 109,
      "chip": "ym2612"
    },
    {
      "channel": 1,
      "note": 58,
      "start": 45.2249,
      "duration": 0.0696,
      "velocity": 127,
      "chip": "ym2612"
    },
    {
      "channel": 0,
      "note": 76,
      "start": 45.293,
      "duration": 0.1183,
      "velocity": 109,
      "chip": "ym2612"
    },
    {
      "channel": 1,
      "note": 60,
      "start": 45.3278,
      "duration": 0.0697,
      "velocity": 127,
      "chip": "ym2612"
    },
    {
      "channel": 3,
      "note": 76,
      "start": 45.3963,
      "duration": 0.1181,
      "velocity": 109,
      "chip": "ym2612"
    },
    {
      "channel": 1,
      "note": 58,
      "start": 45.4307,
      "duration": 0.0696,
      "velocity": 127,
      "chip": "ym2612"
    },
    {
      "channel": 0,
      "note": 73,
      "start": 45.4987,
      "duration": 0.1183,
      "velocity": 109,
      "chip": "ym2612"
    },
    {
      "channel": 1,
      "note": 60,
      "start": 45.5337,
      "duration": 0.0696,
      "velocity": 127,
      "chip": "ym2612"
    },
    {
      "channel": 3,
      "note": 73,
      "start": 45.602,
      "duration": 0.1181,
      "velocity": 109,
      "chip": "ym2612"
    },
    {
      "channel": 1,
      "note": 58,
      "start": 45.6364,
      "duration": 0.0696,
      "velocity": 127,
      "chip": "ym2612"
    },
    {
      "channel": 0,
      "note": 72,
      "start": 45.7045,
      "duration": 0.1183,
      "velocity": 109,
      "chip": "ym2612"
    },
    {
      "channel": 1,
      "note": 60,
      "start": 45.7394,
      "duration": 0.0697,
      "velocity": 127,
      "chip": "ym2612"
    },
    {
      "channel": 3,
      "note": 72,
      "start": 45.8078,
      "duration": 0.118,
      "velocity": 109,
      "chip": "ym2612"
    },
    {
      "channel": 1,
      "note": 58,
      "start": 45.8422,
      "duration": 0.0695,
      "velocity": 127,
      "chip": "ym2612"
    },
    {
      "channel": 0,
      "note": 70,
      "start": 45.9102,
      "duration": 0.1183,
      "velocity": 109,
      "chip": "ym2612"
    },
    {
      "channel": 1,
      "note": 60,
      "start": 45.9451,
      "duration": 0.0697,
      "velocity": 127,
      "chip": "ym2612"
    },
    {
      "channel": 3,
      "note": 70,
      "start": 46.0135,
      "duration": 0.1181,
      "velocity": 109,
      "chip": "ym2612"
    },
    {
      "channel": 1,
      "note": 58,
      "start": 46.048,
      "duration": 0.0696,
      "velocity": 127,
      "chip": "ym2612"
    },
    {
      "channel": 0,
      "note": 68,
      "start": 46.116,
      "duration": 0.1183,
      "velocity": 109,
      "chip": "ym2612"
    },
    {
      "channel": 1,
      "note": 60,
      "start": 46.1509,
      "duration": 0.0697,
      "velocity": 127,
      "chip": "ym2612"
    },
    {
      "channel": 3,
      "note": 68,
      "start": 46.2193,
      "duration": 0.1181,
      "velocity": 109,
      "chip": "ym2612"
    },
    {
      "channel": 1,
      "note": 58,
      "start": 46.2537,
      "duration": 0.0696,
      "velocity": 127,
      "chip": "ym2612"
    },
    {
      "channel": 0,
      "note": 67,
      "start": 46.3218,
      "duration": 0.1183,
      "velocity": 109,
      "chip": "ym2612"
    },
    {
      "channel": 1,
      "note": 60,
      "start": 46.3567,
      "duration": 0.0697,
      "velocity": 127,
      "chip": "ym2612"
    },
    {
      "channel": 3,
      "note": 67,
      "start": 46.4251,
      "duration": 0.0495,
      "velocity": 109,
      "chip": "ym2612"
    },
    {
      "channel": 1,
      "note": 58,
      "start": 46.4595,
      "duration": 0.1104,
      "velocity": 127,
      "chip": "ym2612"
    },
    {
      "channel": 0,
      "note": 63,
      "start": 46.5395,
      "duration": 0.1013,
      "velocity": 100,
      "chip": "ym2612"
    },
    {
      "channel": 2,
      "note": 52,
      "start": 46.5543,
      "duration": 0.138,
      "velocity": 125,
      "chip": "ym2612"
    },
    {
      "channel": 1,
      "note": 41,
      "start": 46.603,
      "duration": 0.281,
      "velocity": 114,
      "chip": "ym2612"
    },
    {
      "channel": 3,
      "note": 63,
      "start": 46.6604,
      "duration": 0.138,
      "velocity": 99,
      "chip": "ym2612"
    },
    {
      "channel": 0,
      "note": 65,
      "start": 46.763,
      "duration": 0.0866,
      "velocity": 100,
      "chip": "ym2612"
    },
    {
      "channel": 2,
      "note": 80,
      "start": 46.7778,
      "duration": 0.0548,
      "velocity": 112,
      "chip": "ym2612"
    },
    {
      "channel": 2,
      "note": 68,
      "start": 46.8691,
      "duration": 0.0664,
      "velocity": 112,
      "chip": "ym2612"
    },
    {
      "channel": 3,
      "note": 65,
      "start": 46.8729,
      "duration": 0.1313,
      "velocity": 99,
      "chip": "ym2612"
    },
    {
      "channel": 0,
      "note": 68,
      "start": 46.9719,
      "duration": 0.0835,
      "velocity": 100,
      "chip": "ym2612"
    },
    {
      "channel": 2,
      "note": 80,
      "start": 46.9757,
      "duration": 0.0628,
      "velocity": 112,
      "chip": "ym2612"
    },
    {
      "channel": 2,
      "note": 68,
      "start": 47.0749,
      "duration": 0.0663,
      "velocity": 112,
      "chip": "ym2612"
    },
    {
      "channel": 3,
      "note": 68,
      "start": 47.0788,
      "duration": 0.1344,
      "velocity": 99,
      "chip": "ym2612"
    },
    {
      "channel": 0,
      "note": 72,
      "start": 47.1777,
      "duration": 0.0867,
      "velocity": 100,
      "chip": "ym2612"
    },
    {
      "channel": 2,
      "note": 52,
      "start": 47.1925,
      "duration": 0.1234,
      "velocity": 125,
      "chip": "ym2612"
    },
    {
      "channel": 1,
      "note": 39,
      "start": 47.198,
      "duration": 0.3993,
      "velocity": 114,
      "chip": "ym2612"
    },
    {
      "channel": 3,
      "note": 72,
      "start": 47.2841,
      "duration": 0.1348,
      "velocity": 99,
      "chip": "ym2612"
    },
    {
      "channel": 2,
      "note": 80,
      "start": 47.3981,
      "duration": 0.055,
      "velocity": 112,
      "chip": "ym2612"
    },
    {
      "channel": 2,
      "note": 68,
      "start": 47.4896,
      "duration": 0.0663,
      "velocity": 112,
      "chip": "ym2612"
    },
    {
      "channel": 0,
      "note": 71,
      "start": 47.5923,
      "duration": 0.0835,
      "velocity": 100,
      "chip": "ym2612"
    },
    {
      "channel": 2,
      "note": 82,
      "start": 47.5961,
      "duration": 0.0628,
      "velocity": 112,
      "chip": "ym2612"
    },
    {
      "channel": 2,
      "note": 70,
      "start": 47.6953,
      "duration": 0.0664,
      "velocity": 112,
      "chip": "ym2612"
    },
    {
      "channel": 3,
      "note": 71,
      "start": 47.699,
      "duration": 0.1314,
      "velocity": 99,
      "chip": "ym2612"
    },
    {
      "channel": 0,
      "note": 70,
      "start": 47.798,
      "duration": 0.0835,
      "velocity": 100,
      "chip": "ym2612"
    },
    {
      "channel": 2,
      "note": 82,
      "start": 47.8018,
      "duration": 0.0627,
      "velocity": 112,
      "chip": "ym2612"
    },
    {
      "channel": 2,
      "note": 82,
      "start": 47.9011,
      "duration": 0.0664,
      "velocity": 112,
      "chip": "ym2612"
    },
    {
      "channel": 3,
      "note": 70,
      "start": 47.9049,
      "duration": 0.1345,
      "velocity": 99,
      "chip": "ym2612"
    },
    {
      "channel": 0,
      "note": 73,
      "start": 48.0039,
      "duration": 0.0867,
      "velocity": 100,
      "chip": "ym2612"
    },
    {
      "channel": 2,
      "note": 52,
      "start": 48.0188,
      "duration": 0.1234,
      "velocity": 125,
      "chip": "ym2612"
    },
    {
      "channel": 1,
      "note": 37,
      "start": 48.0243,
      "duration": 0.0872,
      "velocity": 114,
      "chip": "ym2612"
    },
    {
      "channel": 3,
      "note": 73,
      "start": 48.1103,
      "duration": 0.1349,
      "velocity": 99,
      "chip": "ym2612"
    },
    {
      "channel": 2,
      "note": 52,
      "start": 48.2134,
      "duration": 0.1345,
      "velocity": 125,
      "chip": "ym2612"
    },
    {
      "channel": 1,
      "note": 36,
      "start": 48.23,
      "duration": 0.2996,
      "velocity": 114,
      "chip": "ym2612"
    },
    {
      "channel": 0,
      "note": 72,
      "start": 48.4186,
      "duration": 0.0866,
      "velocity": 100,
      "chip": "ym2612"
    },
    {
      "channel": 2,
      "note": 80,
      "start": 48.4333,
      "duration": 0.0549,
      "velocity": 112,
      "chip": "ym2612"
    },
    {
      "channel": 2,
      "note": 68,
      "start": 48.5247,
      "duration": 0.0663,
      "velocity": 112,
      "chip": "ym2612"
    },
    {
      "channel": 3,
      "note": 72,
      "start": 48.5284,
      "duration": 0.1313,
      "velocity": 99,
      "chip": "ym2612"
    },
    {
      "channel": 0,
      "note": 71,
      "start": 48.6274,
      "duration": 0.0835,
      "velocity": 100,
      "chip": "ym2612"
    },
    {
      "channel": 2,
      "note": 80,
      "start": 48.6312,
      "duration": 0.0628,
      "velocity": 112,
      "chip": "ym2612"
    },
    {
      "channel": 2,
      "note": 68,
      "start": 48.7304,
      "duration": 0.0663,
      "velocity": 112,
      "chip": "ym2612"
    },
    {
      "channel": 3,
      "note": 71,
      "start": 48.7343,
      "duration": 0.1344,
      "velocity": 99,
      "chip": "ym2612"
    },
    {
      "channel": 0,
      "note": 75,
      "start": 48.8331,
      "duration": 0.0868,
      "velocity": 100,
      "chip": "ym2612"
    },
    {
      "channel": 2,
      "note": 52,
      "start": 48.848,
      "duration": 0.1235,
      "velocity": 125,
      "chip": "ym2612"
    },
    {
      "channel": 1,
      "note": 34,
      "start": 48.8536,
      "duration": 0.4025,
      "velocity": 114,
      "chip": "ym2612"
    },
    {
      "channel": 3,
      "note": 75,
      "start": 48.9395,
      "duration": 0.138,
      "velocity": 99,
      "chip": "ym2612"
    },
    {
      "channel": 0,
      "note": 74,
      "start": 49.0421,
      "duration": 0.0866,
      "velocity": 100,
      "chip": "ym2612"
    },
    {
      "channel": 2,
      "note": 79,
      "start": 49.0569,
      "duration": 0.0548,
      "velocity": 112,
      "chip": "ym2612"
    },
    {
      "channel": 2,
      "note": 79,
      "start": 49.1482,
      "duration": 0.0663,
      "velocity": 112,
      "chip": "ym2612"
    },
    {
      "channel": 3,
      "note": 74,
      "start": 49.152,
      "duration": 0.1312,
      "velocity": 99,
      "chip": "ym2612"
    },
    {
      "channel": 0,
      "note": 73,
      "start": 49.251,
      "duration": 0.0835,
      "velocity": 100,
      "chip": "ym2612"
    },
    {
      "channel": 2,
      "note": 67,
      "start": 49.2548,
      "duration": 0.0627,
      "velocity": 112,
      "chip": "ym2612"
    },
    {
      "channel": 2,
      "note": 67,
      "start": 49.354,
      "duration": 0.0664,
      "velocity": 112,
      "chip": "ym2612"
    },
    {
      "channel": 3,
      "note": 73,
      "start": 49.3578,
      "duration": 0.1313,
      "velocity": 99,
      "chip": "ym2612"
    },
    {
      "channel": 0,
      "note": 72,
      "start": 49.4567,
      "duration": 0.0835,
      "velocity": 100,
      "chip": "ym2612"
    },
    {
      "channel": 2,
      "note": 80,
      "start": 49.4605,
      "duration": 0.0627,
      "velocity": 112,
      "chip": "ym2612"
    },
    {
      "channel": 2,
      "note": 80,
      "start": 49.5597,
      "duration": 0.0664,
      "velocity": 112,
      "chip": "ym2612"
    },
    {
      "channel": 3,
      "note": 72,
      "start": 49.5635,
      "duration": 0.1344,
      "velocity": 99,
      "chip": "ym2612"
    },
    {
      "channel": 0,
      "note": 77,
      "start": 49.6624,
      "duration": 0.0866,
      "velocity": 100,
      "chip": "ym2612"
    },
    {
      "channel": 2,
      "note": 24,
      "start": 49.6773,
      "duration": 0.1234,
      "velocity": 125,
      "chip": "ym2612"
    },
    {
      "channel": 1,
      "note": 32,
      "start": 49.6828,
      "duration": 0.0873,
      "velocity": 114,
      "chip": "ym2612"
    },
    {
      "channel": 3,
      "note": 77,
      "start": 49.7689,
      "duration": 0.1348,
      "velocity": 99,
      "chip": "ym2612"
    },
    {
      "channel": 2,
      "note": 24,
      "start": 49.8719,
      "duration": 0.1346,
      "velocity": 125,
      "chip": "ym2612"
    },
    {
      "channel": 1,
      "note": 41,
      "start": 49.8885,
      "duration": 0.2996,
      "velocity": 114,
      "chip": "ym2612"
    },
    {
      "channel": 0,
      "note": 77,
      "start": 50.077,
      "duration": 0.0866,
      "velocity": 100,
      "chip": "ym2612"
    },
    {
      "channel": 2,
      "note": 80,
      "start": 50.0918,
      "duration": 0.0549,
      "velocity": 112,
      "chip": "ym2612"
    },
    {
      "channel": 2,
      "note": 68,
      "start": 50.1831,
      "duration": 0.0663,
      "velocity": 112,
      "chip": "ym2612"
    },
    {
      "channel": 3,
      "note": 77,
      "start": 50.1869,
      "duration": 0.1313,
      "velocity": 99,
      "chip": "ym2612"
    },
    {
      "channel": 0,
      "note": 76,
      "start": 50.2859,
      "duration": 0.0663,
      "velocity": 100,
      "chip": "ym2612"
    },
    {
      "channel": 2,
      "note": 80,
      "start": 50.2897,
      "duration": 0.0632,
      "velocity": 112,
      "chip": "ym2612"
    },
    {
      "channel": 2,
      "note": 68,
      "start": 50.3889,
      "duration": 0.0705,
      "velocity": 112,
      "chip": "ym2612"
    },
    {
      "channel": 3,
      "note": 76,
      "start": 50.3927,
      "duration": 0.1209,
      "velocity": 99,
      "chip": "ym2612"
    },
    {
      "channel": 0,
      "note": 77,
      "start": 50.4574,
      "duration": 0.0014,
      "velocity": 100,
      "chip": "ym2612"
    },
    {
      "channel": 0,
      "note": 79,
      "start": 50.4745,
      "duration": 0.0014,
      "velocity": 100,
      "chip": "ym2612"
    },
    {
      "channel": 0,
      "note": 80,
      "start": 50.4917,
      "duration": 0.1381,
      "velocity": 100,
      "chip": "ym2612"
    },
    {
      "channel": 2,
      "note": 52,
      "start": 50.5065,
      "duration": 0.1239,
      "velocity": 125,
      "chip": "ym2612"
    },
    {
      "channel": 1,
      "note": 39,
      "start": 50.512,
      "duration": 0.2933,
      "velocity": 114,
      "chip": "ym2612"
    },
    {
      "channel": 3,
      "note": 77,
      "start": 50.5637,
      "duration": 0.0014,
      "velocity": 99,
      "chip": "ym2612"
    },
    {
      "channel": 3,
      "note": 79,
      "start": 50.5809,
      "duration": 0.0014,
      "velocity": 99,
      "chip": "ym2612"
    },
    {
      "channel": 3,
      "note": 80,
      "start": 50.5981,
      "duration": 0.2205,
      "velocity": 99,
      "chip": "ym2612"
    },
    {
      "channel": 2,
      "note": 80,
      "start": 50.7117,
      "duration": 0.0555,
      "velocity": 112,
      "chip": "ym2612"
    },
    {
      "channel": 2,
      "note": 68,
      "start": 50.8041,
      "duration": 0.0659,
      "velocity": 112,
      "chip": "ym2612"
    },
    {
      "channel": 0,
      "note": 79,
      "start": 50.9067,
      "duration": 0.1689,
      "velocity": 100,
      "chip": "ym2612"
    },
    {
      "channel": 2,
      "note": 80,
      "start": 50.9105,
      "duration": 0.0625,
      "velocity": 112,
      "chip": "ym2612"
    },
    {
      "channel": 3,
      "note": 79,
      "start": 50.9143,
      "duration": 0.1273,
      "velocity": 99,
      "chip": "ym2612"
    },
    {
      "channel": 2,
      "note": 68,
      "start": 51.0094,
      "duration": 0.0668,
      "velocity": 112,
      "chip": "ym2612"
    },
    {
      "channel": 0,
      "note": 78,
      "start": 51.1121,
      "duration": 0.1761,
      "velocity": 100,
      "chip": "ym2612"
    },
    {
      "channel": 2,
      "note": 52,
      "start": 51.1269,
      "duration": 0.1272,
      "velocity": 125,
      "chip": "ym2612"
    },
    {
      "channel": 3,
      "note": 78,
      "start": 51.1307,
      "duration": 0.1239,
      "velocity": 99,
      "chip": "ym2612"
    },
    {
      "channel": 1,
      "note": 37,
      "start": 51.1362,
      "duration": 0.0836,
      "velocity": 114,
      "chip": "ym2612"
    },
    {
      "channel": 0,
      "note": 72,
      "start": 51.3247,
      "duration": 0.1761,
      "velocity": 100,
      "chip": "ym2612"
    },
    {
      "channel": 2,
      "note": 80,
      "start": 51.3395,
      "duration": 0.0586,
      "velocity": 112,
      "chip": "ym2612"
    },
    {
      "channel": 3,
      "note": 72,
      "start": 51.3433,
      "duration": 0.1234,
      "velocity": 99,
      "chip": "ym2612"
    },
    {
      "channel": 1,
      "note": 49,
      "start": 51.3487,
      "duration": 0.0872,
      "velocity": 114,
      "chip": "ym2612"
    },
    {
      "channel": 2,
      "note": 68,
      "start": 51.4346,
      "duration": 0.0668,
      "velocity": 112,
      "chip": "ym2612"
    },
    {
      "channel": 0,
      "note": 77,
      "start": 51.5487,
      "duration": 0.1018,
      "velocity": 100,
      "chip": "ym2612"
    },
    {
      "channel": 2,
      "note": 52,
      "start": 51.5635,
      "duration": 0.1387,
      "velocity": 125,
      "chip": "ym2612"
    },
    {
      "channel": 3,
      "note": 77,
      "start": 51.5788,
      "duration": 0.0724,
      "velocity": 99,
      "chip": "ym2612"
    },
    {
      "channel": 1,
      "note": 34,
      "start": 51.5845,
      "duration": 1.2435,
      "velocity": 114,
      "chip": "ym2612"
    },
    {
      "channel": 0,
      "note": 76,
      "start": 51.6698,
      "duration": 0.0835,
      "velocity": 100,
      "chip": "ym2612"
    },
    {
      "channel": 3,
      "note": 76,
      "start": 51.6739,
      "duration": 0.0802,
      "velocity": 99,
      "chip": "ym2612"
    },
    {
      "channel": 0,
      "note": 72,
      "start": 51.7731,
      "duration": 0.0385,
      "velocity": 100,
      "chip": "ym2612"
    },
    {
      "channel": 2,
      "note": 48,
      "start": 51.7875,
      "duration": 0.0585,
      "velocity": 109,
      "chip": "ym2612"
    },
    {
      "channel": 3,
      "note": 72,
      "start": 51.7913,
      "duration": 0.072,
      "velocity": 99,
      "chip": "ym2612"
    },
    {
      "channel": 0,
      "note": 75,
      "start": 51.8823,
      "duration": 0.0321,
      "velocity": 100,
      "chip": "ym2612"
    },
    {
      "channel": 2,
      "note": 46,
      "start": 51.8857,
      "duration": 0.0631,
      "velocity": 109,
      "chip": "ym2612"
    },
    {
      "channel": 3,
      "note": 75,
      "start": 51.8895,
      "duration": 0.0765,
      "velocity": 99,
      "chip": "ym2612"
    },
    {
      "channel": 0,
      "note": 74,
      "start": 51.9856,
      "duration": 1.1536,
      "velocity": 100,
      "chip": "ym2612"
    },
    {
      "channel": 2,
      "note": 52,
      "start": 52.0004,
      "duration": 0.1272,
      "velocity": 125,
      "chip": "ym2612"
    },
    {
      "channel": 3,
      "note": 74,
      "start": 52.0042,
      "duration": 1.1356,
      "velocity": 99,
      "chip": "ym2612"
    },
    {
      "channel": 2,
      "note": 36,
      "start": 52.209,
      "duration": 0.1244,
      "velocity": 109,
      "chip": "ym2612"
    },
    {
      "channel": 2,
      "note": 52,
      "start": 52.4151,
      "duration": 0.124,
      "velocity": 125,
      "chip": "ym2612"
    },
    {
      "channel": 2,
      "note": 32,
      "start": 52.6205,
      "duration": 0.1244,
      "velocity": 109,
      "chip": "ym2612"
    },
    {
      "channel": 2,
      "note": 52,
      "start": 52.8267,
      "duration": 0.1239,
      "velocity": 125,
      "chip": "ym2612"
    },
    {
      "channel": 2,
      "note": 31,
      "start": 53.033,
      "duration": 0.1234,
      "velocity": 109,
      "chip": "ym2612"
    },
    {
      "channel": 0,
      "note": 65,
      "start": 53.2275,
      "duration": 0.8603,
      "velocity": 100,
      "chip": "ym2612"
    },
    {
      "channel": 2,
      "note": 41,
      "start": 53.2427,
      "duration": 0.2415,
      "velocity": 114,
      "chip": "ym2612"
    },
    {
      "channel": 3,
      "note": 65,
      "start": 53.2579,
      "duration": 0.8955,
      "velocity": 47,
      "chip": "ym2612"
    },
    {
      "channel": 1,
      "note": 53,
      "start": 53.2744,
      "duration": 0.0553,
      "velocity": 97,
      "chip": "ym2612"
    },
    {
      "channel": 1,
      "note": 82,
      "start": 53.3662,
      "duration": 0.0664,
      "velocity": 97,
      "chip": "ym2612"
    },
    {
      "channel": 1,
      "note": 70,
      "start": 53.4691,
      "duration": 0.0664,
      "velocity": 97,
      "chip": "ym2612"
    },
    {
      "channel": 1,
      "note": 82,
      "start": 53.572,
      "duration": 0.0664,
      "velocity": 97,
      "chip": "ym2612"
    },
    {
      "channel": 2,
      "note": 41,
      "start": 53.6578,
      "duration": 0.2378,
      "velocity": 114,
      "chip": "ym2612"
    },
    {
      "channel": 1,
      "note": 51,
      "start": 53.6749,
      "duration": 0.135,
      "velocity": 97,
      "chip": "ym2612"
    },
    {
      "channel": 1,
      "note": 70,
      "start": 53.8806,
      "duration": 0.0664,
      "velocity": 97,
      "chip": "ym2612"
    },
    {
      "channel": 1,
      "note": 82,
      "start": 53.9836,
      "duration": 0.0663,
      "velocity": 97,
      "chip": "ym2612"
    },
    {
      "channel": 2,
      "note": 41,
      "start": 54.0694,
      "duration": 0.2378,
      "velocity": 114,
      "chip": "ym2612"
    },
    {
      "channel": 1,
      "note": 49,
      "start": 54.0864,
      "duration": 0.0663,
      "velocity": 97,
      "chip": "ym2612"
    },
    {
      "channel": 1,
      "note": 82,
      "start": 54.1893,
      "duration": 0.0663,
      "velocity": 97,
      "chip": "ym2612"
    },
    {
      "channel": 1,
      "note": 70,
      "start": 54.2922,
      "duration": 0.0663,
      "velocity": 97,
      "chip": "ym2612"
    },
    {
      "channel": 1,
      "note": 82,
      "start": 54.395,
      "duration": 0.0664,
      "velocity": 97,
      "chip": "ym2612"
    },
    {
      "channel": 0,
      "note": 72,
      "start": 54.4807,
      "duration": 0.1349,
      "velocity": 100,
      "chip": "ym2612"
    },
    {
      "channel": 2,
      "note": 41,
      "start": 54.4845,
      "duration": 0.2343,
      "velocity": 114,
      "chip": "ym2612"
    },
    {
      "channel": 3,
      "note": 72,
      "start": 54.4883,
      "duration": 0.128,
      "velocity": 47,
      "chip": "ym2612"
    },
    {
      "channel": 1,
      "note": 48,
      "start": 54.498,
      "duration": 0.1349,
      "velocity": 97,
      "chip": "ym2612"
    },
    {
      "channel": 0,
      "note": 71,
      "start": 54.6865,
      "duration": 0.1349,
      "velocity": 100,
      "chip": "ym2612"
    },
    {
      "channel": 3,
      "note": 71,
      "start": 54.6905,
      "duration": 0.1316,
      "velocity": 47,
      "chip": "ym2612"
    },
    {
      "channel": 1,
      "note": 70,
      "start": 54.7037,
      "duration": 0.0664,
      "velocity": 97,
      "chip": "ym2612"
    },
    {
      "channel": 1,
      "note": 82,
      "start": 54.8066,
      "duration": 0.0663,
      "velocity": 97,
      "chip": "ym2612"
    },
    {
      "channel": 0,
      "note": 70,
      "start": 54.8922,
      "duration": 0.7008,
      "velocity": 100,
      "chip": "ym2612"
    },
    {
      "channel": 2,
      "note": 46,
      "start": 54.896,
      "duration": 0.2342,
      "velocity": 114,
      "chip": "ym2612"
    },
    {
      "channel": 3,
      "note": 70,
      "start": 54.8998,
      "duration": 0.7449,
      "velocity": 47,
      "chip": "ym2612"
    },
    {
      "channel": 1,
      "note": 34,
      "start": 54.9095,
      "duration": 0.0664,
      "velocity": 97,
      "chip": "ym2612"
    },
    {
      "channel": 1,
      "note": 82,
      "start": 55.0123,
      "duration": 0.0664,
      "velocity": 97,
      "chip": "ym2612"
    },
    {
      "channel": 1,
      "note": 70,
      "start": 55.1151,
      "duration": 0.0665,
      "velocity": 97,
      "chip": "ym2612"
    },
    {
      "channel": 1,
      "note": 82,
      "start": 55.218,
      "duration": 0.0664,
      "velocity": 97,
      "chip": "ym2612"
    },
    {
      "channel": 2,
      "note": 46,
      "start": 55.3039,
      "duration": 0.2379,
      "velocity": 114,
      "chip": "ym2612"
    },
    {
      "channel": 1,
      "note": 53,
      "start": 55.3209,
      "duration": 0.1351,
      "velocity": 97,
      "chip": "ym2612"
    },
    {
      "channel": 1,
      "note": 70,
      "start": 55.5267,
      "duration": 0.0668,
      "velocity": 97,
      "chip": "ym2612"
    },
    {
      "channel": 1,
      "note": 82,
      "start": 55.6295,
      "duration": 0.0663,
      "velocity": 97,
      "chip": "ym2612"
    },
    {
      "channel": 2,
      "note": 46,
      "start": 55.7153,
      "duration": 0.238,
      "velocity": 114,
      "chip": "ym2612"
    },
    {
      "channel": 1,
      "note": 51,
      "start": 55.7324,
      "duration": 0.0664,
      "velocity": 97,
      "chip": "ym2612"
    },
    {
      "channel": 1,
      "note": 82,
      "start": 55.8353,
      "duration": 0.0665,
      "velocity": 97,
      "chip": "ym2612"
    },
    {
      "channel": 0,
      "note": 68,
      "start": 55.921,
      "duration": 0.2721,
      "velocity": 100,
      "chip": "ym2612"
    },
    {
      "channel": 3,
      "note": 68,
      "start": 55.9251,
      "duration": 0.2855,
      "velocity": 47,
      "chip": "ym2612"
    },
    {
      "channel": 1,
      "note": 70,
      "start": 55.9383,
      "duration": 0.0664,
      "velocity": 97,
      "chip": "ym2612"
    },
    {
      "channel": 1,
      "note": 82,
      "start": 56.0412,
      "duration": 0.0664,
      "velocity": 97,
      "chip": "ym2612"
    },
    {
      "channel": 2,
      "note": 49,
      "start": 56.127,
      "duration": 0.1178,
      "velocity": 114,
      "chip": "ym2612"
    },
    {
      "channel": 1,
      "note": 49,
      "start": 56.144,
      "duration": 0.1349,
      "velocity": 97,
      "chip": "ym2612"
    },
    {
      "channel": 0,
      "note": 70,
      "start": 56.3326,
      "duration": 0.135,
      "velocity": 100,
      "chip": "ym2612"
    },
    {
      "channel": 2,
      "note": 46,
      "start": 56.3364,
      "duration": 0.1178,
      "velocity": 114,
      "chip": "ym2612"
    },
    {
      "channel": 3,
      "note": 70,
      "start": 56.3402,
      "duration": 0.1281,
      "velocity": 47,
      "chip": "ym2612"
    },
    {
      "channel": 1,
      "note": 70,
      "start": 56.3498,
      "duration": 0.0664,
      "velocity": 97,
      "chip": "ym2612"
    },
    {
      "channel": 1,
      "note": 82,
      "start": 56.4527,
      "duration": 0.0663,
      "velocity": 97,
      "chip": "ym2612"
    },
    {
      "channel": 0,
      "note": 72,
      "start": 56.5493,
      "duration": 0.1312,
      "velocity": 97,
      "chip": "ym2612"
    },
    {
      "channel": 2,
      "note": 44,
      "start": 56.5535,
      "duration": 0.437,
      "velocity": 114,
      "chip": "ym2612"
    },
    {
      "channel": 3,
      "note": 72,
      "start": 56.5573,
      "duration": 0.1239,
      "velocity": 47,
      "chip": "ym2612"
    },
    {
      "channel": 1,
      "note": 53,
      "start": 56.5627,
      "duration": 0.0664,
      "velocity": 97,
      "chip": "ym2612"
    },
    {
      "channel": 1,
      "note": 53,
      "start": 56.6656,
      "duration": 0.0664,
      "velocity": 97,
      "chip": "ym2612"
    },
    {
      "channel": 0,
      "note": 70,
      "start": 56.7513,
      "duration": 0.1361,
      "velocity": 97,
      "chip": "ym2612"
    },
    {
      "channel": 3,
      "note": 70,
      "start": 56.7553,
      "duration": 0.1328,
      "velocity": 47,
      "chip": "ym2612"
    },
    {
      "channel": 1,
      "note": 72,
      "start": 56.7791,
      "duration": 0.1254,
      "velocity": 127,
      "chip": "ym2612"
    },
    {
      "channel": 0,
      "note": 65,
      "start": 56.9571,
      "duration": 0.1361,
      "velocity": 97,
      "chip": "ym2612"
    },
    {
      "channel": 3,
      "note": 65,
      "start": 56.9611,
      "duration": 0.1327,
      "velocity": 47,
      "chip": "ym2612"
    },
    {
      "channel": 1,
      "note": 72,
      "start": 56.9739,
      "duration": 0.1364,
      "velocity": 127,
      "chip": "ym2612"
    },
    {
      "channel": 0,
      "note": 75,
      "start": 57.1628,
      "duration": 0.135,
      "velocity": 97,
      "chip": "ym2612"
    },
    {
      "channel": 2,
      "note": 43,
      "start": 57.1665,
      "duration": 0.4402,
      "velocity": 114,
      "chip": "ym2612"
    },
    {
      "channel": 3,
      "note": 75,
      "start": 57.1704,
      "duration": 0.128,
      "velocity": 47,
      "chip": "ym2612"
    },
    {
      "channel": 1,
      "note": 55,
      "start": 57.1911,
      "duration": 0.0553,
      "velocity": 97,
      "chip": "ym2612"
    },
    {
      "channel": 1,
      "note": 55,
      "start": 57.2829,
      "duration": 0.0664,
      "velocity": 97,
      "chip": "ym2612"
    },
    {
      "channel": 0,
      "note": 70,
      "start": 57.3686,
      "duration": 0.1351,
      "velocity": 97,
      "chip": "ym2612"
    },
    {
      "channel": 3,
      "note": 70,
      "start": 57.3726,
      "duration": 0.1317,
      "velocity": 47,
      "chip": "ym2612"
    },
    {
      "channel": 1,
      "note": 36,
      "start": 57.3964,
      "duration": 0.1245,
      "velocity": 109,
      "chip": "ym2612"
    },
    {
      "channel": 0,
      "note": 67,
      "start": 57.5744,
      "duration": 0.135,
      "velocity": 97,
      "chip": "ym2612"
    },
    {
      "channel": 3,
      "note": 67,
      "start": 57.5784,
      "duration": 0.1317,
      "velocity": 47,
      "chip": "ym2612"
    },
    {
      "channel": 1,
      "note": 32,
      "start": 57.5912,
      "duration": 0.1354,
      "velocity": 109,
      "chip": "ym2612"
    },
    {
      "channel": 0,
      "note": 72,
      "start": 57.7801,
      "duration": 0.135,
      "velocity": 97,
      "chip": "ym2612"
    },
    {
      "channel": 2,
      "note": 41,
      "start": 57.784,
      "duration": 0.2857,
      "velocity": 114,
      "chip": "ym2612"
    },
    {
      "channel": 3,
      "note": 72,
      "start": 57.7877,
      "duration": 0.128,
      "velocity": 47,
      "chip": "ym2612"
    },
    {
      "channel": 1,
      "note": 56,
      "start": 57.8084,
      "duration": 0.0554,
      "velocity": 97,
      "chip": "ym2612"
    },
    {
      "channel": 1,
      "note": 56,
      "start": 57.9003,
      "duration": 0.0663,
      "velocity": 97,
      "chip": "ym2612"
    },
    {
      "channel": 0,
      "note": 68,
      "start": 57.9859,
      "duration": 0.135,
      "velocity": 97,
      "chip": "ym2612"
    },
    {
      "channel": 3,
      "note": 68,
      "start": 57.9899,
      "duration": 0.1317,
      "velocity": 47,
      "chip": "ym2612"
    },
    {
      "channel": 1,
      "note": 36,
      "start": 58.0137,
      "duration": 0.1244,
      "velocity": 109,
      "chip": "ym2612"
    },
    {
      "channel": 0,
      "note": 65,
      "start": 58.2027,
      "duration": 0.1308,
      "velocity": 100,
      "chip": "ym2612"
    },
    {
      "channel": 2,
      "note": 46,
      "start": 58.2065,
      "duration": 0.2819,
      "velocity": 114,
      "chip": "ym2612"
    },
    {
      "channel": 3,
      "note": 65,
      "start": 58.2103,
      "duration": 0.1239,
      "velocity": 47,
      "chip": "ym2612"
    },
    {
      "channel": 1,
      "note": 46,
      "start": 58.2268,
      "duration": 0.0553,
      "velocity": 97,
      "chip": "ym2612"
    },
    {
      "channel": 1,
      "note": 82,
      "start": 58.3186,
      "duration": 0.0663,
      "velocity": 97,
      "chip": "ym2612"
    },
    {
      "channel": 0,
      "note": 70,
      "start": 58.4042,
      "duration": 0.1349,
      "velocity": 100,
      "chip": "ym2612"
    },
    {
      "channel": 3,
      "note": 70,
      "start": 58.4083,
      "duration": 0.1316,
      "velocity": 47,
      "chip": "ym2612"
    },
    {
      "channel": 1,
      "note": 70,
      "start": 58.4215,
      "duration": 0.0664,
      "velocity": 97,
      "chip": "ym2612"
    },
    {
      "channel": 1,
      "note": 82,
      "start": 58.5244,
      "duration": 0.0663,
      "velocity": 97,
      "chip": "ym2612"
    },
    {
      "channel": 0,
      "note": 68,
      "start": 58.61,
      "duration": 0.1349,
      "velocity": 100,
      "chip": "ym2612"
    },
    {
      "channel": 2,
      "note": 48,
      "start": 58.6137,
      "duration": 0.2861,
      "velocity": 114,
      "chip": "ym2612"
    },
    {
      "channel": 3,
      "note": 68,
      "start": 58.6176,
      "duration": 0.128,
      "velocity": 47,
      "chip": "ym2612"
    },
    {
      "channel": 1,
      "note": 48,
      "start": 58.6272,
      "duration": 0.1349,
      "velocity": 97,
      "chip": "ym2612"
    },
    {
      "channel": 0,
      "note": 70,
      "start": 58.8157,
      "duration": 0.702,
      "velocity": 100,
      "chip": "ym2612"
    },
    {
      "channel": 3,
      "note": 70,
      "start": 58.8197,
      "duration": 0.7496,
      "velocity": 47,
      "chip": "ym2612"
    },
    {
      "channel": 1,
      "note": 82,
      "start": 58.8329,
      "duration": 0.0664,
      "velocity": 97,
      "chip": "ym2612"
    },
    {
      "channel": 1,
      "note": 70,
      "start": 58.9358,
      "duration": 0.0665,
      "velocity": 97,
      "chip": "ym2612"
    },
    {
      "channel": 2,
      "note": 49,
      "start": 59.0217,
      "duration": 0.2908,
      "velocity": 114,
      "chip": "ym2612"
    },
    {
      "channel": 1,
      "note": 61,
      "start": 59.0493,
      "duration": 0.0569,
      "velocity": 127,
      "chip": "ym2612"
    },
    {
      "channel": 1,
      "note": 67,
      "start": 59.1412,
      "duration": 0.0679,
      "velocity": 127,
      "chip": "ym2612"
    },
    {
      "channel": 1,
      "note": 67,
      "start": 59.2441,
      "duration": 0.0679,
      "velocity": 127,
      "chip": "ym2612"
    },
    {
      "channel": 1,
      "note": 67,
      "start": 59.3469,
      "duration": 0.0689,
      "velocity": 127,
      "chip": "ym2612"
    },
    {
      "channel": 2,
      "note": 48,
      "start": 59.4331,
      "duration": 0.2908,
      "velocity": 114,
      "chip": "ym2612"
    },
    {
      "channel": 1,
      "note": 63,
      "start": 59.4498,
      "duration": 0.1365,
      "velocity": 127,
      "chip": "ym2612"
    },
    {
      "channel": 1,
      "note": 67,
      "start": 59.6556,
      "duration": 0.0678,
      "velocity": 127,
      "chip": "ym2612"
    },
    {
      "channel": 1,
      "note": 56,
      "start": 59.7584,
      "duration": 0.0679,
      "velocity": 127,
      "chip": "ym2612"
    },
    {
      "channel": 0,
      "note": 65,
      "start": 59.8448,
      "duration": 0.9139,
      "velocity": 100,
      "chip": "ym2612"
    },
    {
      "channel": 2,
      "note": 37,
      "start": 59.8487,
      "duration": 0.2934,
      "velocity": 114,
      "chip": "ym2612"
    },
    {
      "channel": 3,
      "note": 65,
      "start": 59.8639,
      "duration": 0.8959,
      "velocity": 99,
      "chip": "ym2612"
    },
    {
      "channel": 1,
      "note": 53,
      "start": 59.8803,
      "duration": 0.0555,
      "velocity": 97,
      "chip": "ym2612"
    },
    {
      "channel": 1,
      "note": 82,
      "start": 59.9722,
      "duration": 0.0664,
      "velocity": 97,
      "chip": "ym2612"
    },
    {
      "channel": 1,
      "note": 70,
      "start": 60.0751,
      "duration": 0.0664,
      "velocity": 97,
      "chip": "ym2612"
    },
    {
      "channel": 1,
      "note": 82,
      "start": 60.178,
      "duration": 0.0664,
      "velocity": 97,
      "chip": "ym2612"
    },
    {
      "channel": 2,
      "note": 37,
      "start": 60.2638,
      "duration": 0.2898,
      "velocity": 114,
      "chip": "ym2612"
    },
    {
      "channel": 1,
      "note": 49,
      "start": 60.2808,
      "duration": 0.135,
      "velocity": 97,
      "chip": "ym2612"
    },
    {
      "channel": 1,
      "note": 70,
      "start": 60.4866,
      "duration": 0.0664,
      "velocity": 97,
      "chip": "ym2612"
    },
    {
      "channel": 1,
      "note": 82,
      "start": 60.5895,
      "duration": 0.0664,
      "velocity": 97,
      "chip": "ym2612"
    },
    {
      "channel": 2,
      "note": 41,
      "start": 60.6753,
      "duration": 0.2897,
      "velocity": 114,
      "chip": "ym2612"
    },
    {
      "channel": 1,
      "note": 49,
      "start": 60.6924,
      "duration": 0.0668,
      "velocity": 97,
      "chip": "ym2612"
    },
    {
      "channel": 1,
      "note": 82,
      "start": 60.7952,
      "duration": 0.0663,
      "velocity": 97,
      "chip": "ym2612"
    },
    {
      "channel": 1,
      "note": 70,
      "start": 60.8981,
      "duration": 0.0663,
      "velocity": 97,
      "chip": "ym2612"
    },
    {
      "channel": 1,
      "note": 82,
      "start": 61.001,
      "duration": 0.0663,
      "velocity": 97,
      "chip": "ym2612"
    },
    {
      "channel": 0,
      "note": 67,
      "start": 61.0867,
      "duration": 0.1349,
      "velocity": 100,
      "chip": "ym2612"
    },
    {
      "channel": 2,
      "note": 44,
      "start": 61.0905,
      "duration": 0.2861,
      "velocity": 114,
      "chip": "ym2612"
    },
    {
      "channel": 3,
      "note": 67,
      "start": 61.0942,
      "duration": 0.1281,
      "velocity": 99,
      "chip": "ym2612"
    },
    {
      "channel": 1,
      "note": 51,
      "start": 61.1039,
      "duration": 0.1349,
      "velocity": 97,
      "chip": "ym2612"
    },
    {
      "channel": 0,
      "note": 68,
      "start": 61.2924,
      "duration": 0.1349,
      "velocity": 100,
      "chip": "ym2612"
    },
    {
      "channel": 3,
      "note": 68,
      "start": 61.2964,
      "duration": 0.1317,
      "velocity": 99,
      "chip": "ym2612"
    },
    {
      "channel": 1,
      "note": 70,
      "start": 61.3097,
      "duration": 0.0664,
      "velocity": 97,
      "chip": "ym2612"
    },
    {
      "channel": 1,
      "note": 82,
      "start": 61.4125,
      "duration": 0.0663,
      "velocity": 97,
      "chip": "ym2612"
    },
    {
      "channel": 0,
      "note": 70,
      "start": 61.4981,
      "duration": 0.7523,
      "velocity": 100,
      "chip": "ym2612"
    },
    {
      "channel": 2,
      "note": 39,
      "start": 61.502,
      "duration": 0.2861,
      "velocity": 114,
      "chip": "ym2612"
    },
    {
      "channel": 3,
      "note": 70,
      "start": 61.5058,
      "duration": 0.7454,
      "velocity": 99,
      "chip": "ym2612"
    },
    {
      "channel": 1,
      "note": 56,
      "start": 61.5154,
      "duration": 0.0664,
      "velocity": 97,
      "chip": "ym2612"
    },
    {
      "channel": 1,
      "note": 82,
      "start": 61.6183,
      "duration": 0.0664,
      "velocity": 97,
      "chip": "ym2612"
    },
    {
      "channel": 1,
      "note": 70,
      "start": 61.7212,
      "duration": 0.0664,
      "velocity": 97,
      "chip": "ym2612"
    },
    {
      "channel": 1,
      "note": 82,
      "start": 61.824,
      "duration": 0.0664,
      "velocity": 97,
      "chip": "ym2612"
    },
    {
      "channel": 2,
      "note": 39,
      "start": 61.9098,
      "duration": 0.2897,
      "velocity": 114,
      "chip": "ym2612"
    },
    {
      "channel": 1,
      "note": 55,
      "start": 61.9269,
      "duration": 0.135,
      "velocity": 97,
      "chip": "ym2612"
    },
    {
      "channel": 1,
      "note": 70,
      "start": 62.1326,
      "duration": 0.0664,
      "velocity": 97,
      "chip": "ym2612"
    },
    {
      "channel": 1,
      "note": 82,
      "start": 62.2356,
      "duration": 0.0663,
      "velocity": 97,
      "chip": "ym2612"
    },
    {
      "channel": 2,
      "note": 39,
      "start": 62.3213,
      "duration": 0.135,
      "velocity": 114,
      "chip": "ym2612"
    },
    {
      "channel": 1,
      "note": 53,
      "start": 62.3383,
      "duration": 0.0664,
      "velocity": 97,
      "chip": "ym2612"
    },
    {
      "channel": 1,
      "note": 82,
      "start": 62.4413,
      "duration": 0.0663,
      "velocity": 97,
      "chip": "ym2612"
    },
    {
      "channel": 0,
      "note": 72,
      "start": 62.527,
      "duration": 0.136,
      "velocity": 100,
      "chip": "ym2612"
    },
    {
      "channel": 2,
      "note": 51,
      "start": 62.5307,
      "duration": 0.1329,
      "velocity": 114,
      "chip": "ym2612"
    },
    {
      "channel": 3,
      "note": 72,
      "start": 62.5346,
      "duration": 0.1295,
      "velocity": 99,
      "chip": "ym2612"
    },
    {
      "channel": 1,
      "note": 75,
      "start": 62.5548,
      "duration": 0.0568,
      "velocity": 127,
      "chip": "ym2612"
    },
    {
      "channel": 1,
      "note": 75,
      "start": 62.6466,
      "duration": 0.0678,
      "velocity": 127,
      "chip": "ym2612"
    },
    {
      "channel": 0,
      "note": 73,
      "start": 62.7327,
      "duration": 0.2904,
      "velocity": 100,
      "chip": "ym2612"
    },
    {
      "channel": 2,
      "note": 42,
      "start": 62.7365,
      "duration": 0.1324,
      "velocity": 114,
      "chip": "ym2612"
    },
    {
      "channel": 3,
      "note": 73,
      "start": 62.7403,
      "duration": 0.2839,
      "velocity": 99,
      "chip": "ym2612"
    },
    {
      "channel": 1,
      "note": 75,
      "start": 62.7495,
      "duration": 0.0679,
      "velocity": 127,
      "chip": "ym2612"
    },
    {
      "channel": 1,
      "note": 72,
      "start": 62.8524,
      "duration": 0.0679,
      "velocity": 127,
      "chip": "ym2612"
    },
    {
      "channel": 2,
      "note": 54,
      "start": 62.9386,
      "duration": 0.136,
      "velocity": 114,
      "chip": "ym2612"
    },
    {
      "channel": 1,
      "note": 72,
      "start": 62.9553,
      "duration": 0.0683,
      "velocity": 127,
      "chip": "ym2612"
    },
    {
      "channel": 1,
      "note": 72,
      "start": 63.0581,
      "duration": 0.0678,
      "velocity": 127,
      "chip": "ym2612"
    },
    {
      "channel": 2,
      "note": 35,
      "start": 63.1448,
      "duration": 0.2889,
      "velocity": 114,
      "chip": "ym2612"
    },
    {
      "channel": 1,
      "note": 24,
      "start": 63.1724,
      "duration": 0.2782,
      "velocity": 125,
      "chip": "ym2612"
    },
    {
      "channel": 0,
      "note": 65,
      "start": 63.5561,
      "duration": 0.066,
      "velocity": 100,
      "chip": "ym2612"
    },
    {
      "channel": 2,
      "note": 35,
      "start": 63.5598,
      "duration": 0.2854,
      "velocity": 114,
      "chip": "ym2612"
    },
    {
      "channel": 3,
      "note": 65,
      "start": 63.564,
      "duration": 0.0588,
      "velocity": 99,
      "chip": "ym2612"
    },
    {
      "channel": 1,
      "note": 48,
      "start": 63.584,
      "duration": 0.2783,
      "velocity": 127,
      "chip": "ym2612"
    },
    {
      "channel": 0,
      "note": 66,
      "start": 63.6929,
      "duration": 0.0664,
      "velocity": 100,
      "chip": "ym2612"
    },
    {
      "channel": 3,
      "note": 66,
      "start": 63.6969,
      "duration": 0.0631,
      "velocity": 99,
      "chip": "ym2612"
    },
    {
      "channel": 0,
      "note": 68,
      "start": 63.8301,
      "duration": 0.0663,
      "velocity": 100,
      "chip": "ym2612"
    },
    {
      "channel": 3,
      "note": 68,
      "start": 63.8341,
      "duration": 0.0629,
      "velocity": 99,
      "chip": "ym2612"
    },
    {
      "channel": 0,
      "note": 70,
      "start": 63.9673,
      "duration": 0.0664,
      "velocity": 100,
      "chip": "ym2612"
    },
    {
      "channel": 2,
      "note": 35,
      "start": 63.971,
      "duration": 0.2857,
      "velocity": 114,
      "chip": "ym2612"
    },
    {
      "channel": 3,
      "note": 70,
      "start": 63.9749,
      "duration": 0.0595,
      "velocity": 99,
      "chip": "ym2612"
    },
    {
      "channel": 1,
      "note": 48,
      "start": 63.9845,
      "duration": 0.2894,
      "velocity": 127,
      "chip": "ym2612"
    },
    {
      "channel": 0,
      "note": 71,
      "start": 64.1044,
      "duration": 0.0663,
      "velocity": 100,
      "chip": "ym2612"
    },
    {
      "channel": 3,
      "note": 71,
      "start": 64.1085,
      "duration": 0.063,
      "velocity": 99,
      "chip": "ym2612"
    },
    {
      "channel": 0,
      "note": 73,
      "start": 64.2416,
      "duration": 0.0664,
      "velocity": 100,
      "chip": "ym2612"
    },
    {
      "channel": 3,
      "note": 73,
      "start": 64.2456,
      "duration": 0.063,
      "velocity": 99,
      "chip": "ym2612"
    },
    {
      "channel": 0,
      "note": 75,
      "start": 64.3788,
      "duration": 0.0664,
      "velocity": 100,
      "chip": "ym2612"
    },
    {
      "channel": 2,
      "note": 35,
      "start": 64.3826,
      "duration": 0.2893,
      "velocity": 114,
      "chip": "ym2612"
    },
    {
      "channel": 3,
      "note": 75,
      "start": 64.3864,
      "duration": 0.0595,
      "velocity": 99,
      "chip": "ym2612"
    },
    {
      "channel": 1,
      "note": 48,
      "start": 64.396,
      "duration": 0.2929,
      "velocity": 127,
      "chip": "ym2612"
    },
    {
      "channel": 0,
      "note": 77,
      "start": 64.5159,
      "duration": 0.0664,
      "velocity": 100,
      "chip": "ym2612"
    },
    {
      "channel": 3,
      "note": 77,
      "start": 64.52,
      "duration": 0.063,
      "velocity": 99,
      "chip": "ym2612"
    },
    {
      "channel": 0,
      "note": 78,
      "start": 64.6645,
      "duration": 0.0758,
      "velocity": 101,
      "chip": "ym2612"
    },
    {
      "channel": 3,
      "note": 78,
      "start": 64.6686,
      "duration": 0.0548,
      "velocity": 99,
      "chip": "ym2612"
    },
    {
      "channel": 0,
      "note": 80,
      "start": 64.8049,
      "duration": 0.5594,
      "velocity": 100,
      "chip": "ym2612"
    },
    {
      "channel": 2,
      "note": 35,
      "start": 64.8088,
      "duration": 0.5904,
      "velocity": 114,
      "chip": "ym2612"
    },
    {
      "channel": 3,
      "note": 80,
      "start": 64.8125,
      "duration": 0.3292,
      "velocity": 99,
      "chip": "ym2612"
    },
    {
      "channel": 1,
      "note": 36,
      "start": 64.8285,
      "duration": 0.0559,
      "velocity": 109,
      "chip": "ym2612"
    },
    {
      "channel": 1,
      "note": 36,
      "start": 64.9204,
      "duration": 0.0669,
      "velocity": 109,
      "chip": "ym2612"
    },
    {
      "channel": 1,
      "note": 36,
      "start": 65.0233,
      "duration": 0.0668,
      "velocity": 109,
      "chip": "ym2612"
    },
    {
      "channel": 1,
      "note": 36,
      "start": 65.1261,
      "duration": 0.0669,
      "velocity": 109,
      "chip": "ym2612"
    },
    {
      "channel": 1,
      "note": 32,
      "start": 65.229,
      "duration": 0.0668,
      "velocity": 109,
      "chip": "ym2612"
    },
    {
      "channel": 1,
      "note": 32,
      "start": 65.3319,
      "duration": 0.0668,
      "velocity": 109,
      "chip": "ym2612"
    },
    {
      "channel": 1,
      "note": 29,
      "start": 65.4347,
      "duration": 0.1354,
      "velocity": 109,
      "chip": "ym2612"
    },
    {
      "channel": 0,
      "note": 75,
      "start": 65.6241,
      "duration": 0.7596,
      "velocity": 100,
      "chip": "ym2612"
    },
    {
      "channel": 2,
      "note": 36,
      "start": 65.6278,
      "duration": 0.6359,
      "velocity": 114,
      "chip": "ym2612"
    },
    {
      "channel": 3,
      "note": 64,
      "start": 65.6432,
      "duration": 0.7412,
      "velocity": 100,
      "chip": "ym2612"
    },
    {
      "channel": 1,
      "note": 41,
      "start": 66.5063,
      "duration": 0.087,
      "velocity": 114,
      "chip": "ym2612"
    },
    {
      "channel": 2,
      "note": 68,
      "start": 66.524,
      "duration": 0.0698,
      "velocity": 106,
      "chip": "ym2612"
    },
    {
      "channel": 2,
      "note": 68,
      "start": 66.6303,
      "duration": 0.066,
      "velocity": 106,
      "chip": "ym2612"
    }
  ]
}