{
  "track_name": "05 - Human World",
  "duration_sec": 69.464,
  "sample_rate": 44100,
  "note_count": 935,
  "unique_pitches": 36,
  "pitch_range": 46,
  "avg_note_duration": 0.1735,
  "reconstruction_stats": {
    "notes_reconstructed": 935,
    "keyon_events": 935,
    "keyoff_events": 934,
    "orphan_keyons": 1,
    "unique_pitches": 36,
    "pitch_range": 46,
    "avg_duration_sec": 0.1735
  },
  "metadata": {
    "source": "M\\Maten no Soumetsu\\05 - Human World.vgz"
  },
  "notes": [
    {
      "channel": 0,
      "note": 69,
      "start": 0.1205,
      "duration": 0.0297,
      "velocity": 99,
      "chip": "ym2612"
    },
    {
      "channel": 2,
      "note": 69,
      "start": 0.1291,
      "duration": 0.0275,
      "velocity": 100,
      "chip": "ym2612"
    },
    {
      "channel": 3,
      "note": 78,
      "start": 0.1351,
      "duration": 0.0401,
      "velocity": 98,
      "chip": "ym2612"
    },
    {
      "channel": 0,
      "note": 74,
      "start": 0.1649,
      "duration": 0.0091,
      "velocity": 99,
      "chip": "ym2612"
    },
    {
      "channel": 4,
      "note": 78,
      "start": 0.1663,
      "duration": 0.0093,
      "velocity": 99,
      "chip": "ym2612"
    },
    {
      "channel": 0,
      "note": 76,
      "start": 0.1877,
      "duration": 0.008,
      "velocity": 99,
      "chip": "ym2612"
    },
    {
      "channel": 4,
      "note": 69,
      "start": 0.1891,
      "duration": 0.0077,
      "velocity": 99,
      "chip": "ym2612"
    },
    {
      "channel": 0,
      "note": 79,
      "start": 0.21,
      "duration": 0.5292,
      "velocity": 99,
      "chip": "ym2612"
    },
    {
      "channel": 1,
      "note": 57,
      "start": 0.2106,
      "duration": 0.009,
      "velocity": 95,
      "chip": "ym2612"
    },
    {
      "channel": 2,
      "note": 69,
      "start": 0.2111,
      "duration": 0.0142,
      "velocity": 100,
      "chip": "ym2612"
    },
    {
      "channel": 3,
      "note": 50,
      "start": 0.2117,
      "duration": 0.0307,
      "velocity": 98,
      "chip": "ym2612"
    },
    {
      "channel": 4,
      "note": 74,
      "start": 0.2124,
      "duration": 0.008,
      "velocity": 99,
      "chip": "ym2612"
    },
    {
      "channel": 1,
      "note": 62,
      "start": 0.2332,
      "duration": 0.0088,
      "velocity": 95,
      "chip": "ym2612"
    },
    {
      "channel": 4,
      "note": 76,
      "start": 0.2344,
      "duration": 0.6504,
      "velocity": 99,
      "chip": "ym2612"
    },
    {
      "channel": 1,
      "note": 64,
      "start": 0.2549,
      "duration": 0.0075,
      "velocity": 95,
      "chip": "ym2612"
    },
    {
      "channel": 1,
      "note": 67,
      "start": 0.3244,
      "duration": 0.6322,
      "velocity": 95,
      "chip": "ym2612"
    },
    {
      "channel": 2,
      "note": 69,
      "start": 0.325,
      "duration": 0.0898,
      "velocity": 100,
      "chip": "ym2612"
    },
    {
      "channel": 3,
      "note": 50,
      "start": 0.3256,
      "duration": 0.1982,
      "velocity": 98,
      "chip": "ym2612"
    },
    {
      "channel": 2,
      "note": 69,
      "start": 0.7581,
      "duration": 0.09,
      "velocity": 100,
      "chip": "ym2612"
    },
    {
      "channel": 3,
      "note": 50,
      "start": 0.7588,
      "duration": 0.1985,
      "velocity": 98,
      "chip": "ym2612"
    },
    {
      "channel": 0,
      "note": 78,
      "start": 1.0465,
      "duration": 0.0539,
      "velocity": 99,
      "chip": "ym2612"
    },
    {
      "channel": 0,
      "note": 76,
      "start": 1.1187,
      "duration": 0.0542,
      "velocity": 99,
      "chip": "ym2612"
    },
    {
      "channel": 0,
      "note": 78,
      "start": 1.1909,
      "duration": 0.1261,
      "velocity": 99,
      "chip": "ym2612"
    },
    {
      "channel": 2,
      "note": 69,
      "start": 1.192,
      "duration": 0.0895,
      "velocity": 100,
      "chip": "ym2612"
    },
    {
      "channel": 3,
      "note": 50,
      "start": 1.1928,
      "duration": 0.1977,
      "velocity": 98,
      "chip": "ym2612"
    },
    {
      "channel": 4,
      "note": 79,
      "start": 1.1935,
      "duration": 0.0525,
      "velocity": 99,
      "chip": "ym2612"
    },
    {
      "channel": 4,
      "note": 78,
      "start": 1.2642,
      "duration": 0.0539,
      "velocity": 99,
      "chip": "ym2612"
    },
    {
      "channel": 4,
      "note": 76,
      "start": 1.3366,
      "duration": 0.1261,
      "velocity": 99,
      "chip": "ym2612"
    },
    {
      "channel": 0,
      "note": 69,
      "start": 1.4798,
      "duration": 0.054,
      "velocity": 99,
      "chip": "ym2612"
    },
    {
      "channel": 0,
      "note": 71,
      "start": 1.5521,
      "duration": 0.0541,
      "velocity": 99,
      "chip": "ym2612"
    },
    {
      "channel": 0,
      "note": 69,
      "start": 1.6243,
      "duration": 0.9293,
      "velocity": 99,
      "chip": "ym2612"
    },
    {
      "channel": 2,
      "note": 69,
      "start": 1.625,
      "duration": 0.0898,
      "velocity": 100,
      "chip": "ym2612"
    },
    {
      "channel": 3,
      "note": 50,
      "start": 1.6257,
      "duration": 0.1982,
      "velocity": 98,
      "chip": "ym2612"
    },
    {
      "channel": 4,
      "note": 78,
      "start": 1.6264,
      "duration": 0.0529,
      "velocity": 99,
      "chip": "ym2612"
    },
    {
      "channel": 4,
      "note": 69,
      "start": 1.6976,
      "duration": 0.0539,
      "velocity": 99,
      "chip": "ym2612"
    },
    {
      "channel": 4,
      "note": 71,
      "start": 1.7698,
      "duration": 0.785,
      "velocity": 99,
      "chip": "ym2612"
    },
    {
      "channel": 1,
      "note": 66,
      "start": 2.0579,
      "duration": 0.0539,
      "velocity": 95,
      "chip": "ym2612"
    },
    {
      "channel": 2,
      "note": 69,
      "start": 2.0584,
      "duration": 0.0898,
      "velocity": 100,
      "chip": "ym2612"
    },
    {
      "channel": 3,
      "note": 50,
      "start": 2.0591,
      "duration": 0.1983,
      "velocity": 98,
      "chip": "ym2612"
    },
    {
      "channel": 1,
      "note": 57,
      "start": 2.2024,
      "duration": 0.0544,
      "velocity": 95,
      "chip": "ym2612"
    },
    {
      "channel": 1,
      "note": 59,
      "start": 2.3468,
      "duration": 0.054,
      "velocity": 95,
      "chip": "ym2612"
    },
    {
      "channel": 1,
      "note": 57,
      "start": 2.4913,
      "duration": 0.0625,
      "velocity": 95,
      "chip": "ym2612"
    },
    {
      "channel": 2,
      "note": 69,
      "start": 2.4919,
      "duration": 0.0143,
      "velocity": 100,
      "chip": "ym2612"
    },
    {
      "channel": 3,
      "note": 50,
      "start": 2.4925,
      "duration": 0.0302,
      "velocity": 98,
      "chip": "ym2612"
    },
    {
      "channel": 0,
      "note": 72,
      "start": 2.5567,
      "duration": 0.0126,
      "velocity": 99,
      "chip": "ym2612"
    },
    {
      "channel": 1,
      "note": 54,
      "start": 2.5572,
      "duration": 0.0124,
      "velocity": 95,
      "chip": "ym2612"
    },
    {
      "channel": 2,
      "note": 69,
      "start": 2.5579,
      "duration": 0.0174,
      "velocity": 100,
      "chip": "ym2612"
    },
    {
      "channel": 3,
      "note": 50,
      "start": 2.5587,
      "duration": 0.0344,
      "velocity": 98,
      "chip": "ym2612"
    },
    {
      "channel": 4,
      "note": 69,
      "start": 2.5618,
      "duration": 0.0086,
      "velocity": 99,
      "chip": "ym2612"
    },
    {
      "channel": 0,
      "note": 78,
      "start": 2.5831,
      "duration": 0.0093,
      "velocity": 99,
      "chip": "ym2612"
    },
    {
      "channel": 1,
      "note": 57,
      "start": 2.5836,
      "duration": 0.009,
      "velocity": 95,
      "chip": "ym2612"
    },
    {
      "channel": 4,
      "note": 69,
      "start": 2.5848,
      "duration": 0.0087,
      "velocity": 99,
      "chip": "ym2612"
    },
    {
      "channel": 0,
      "note": 79,
      "start": 2.6058,
      "duration": 0.0082,
      "velocity": 99,
      "chip": "ym2612"
    },
    {
      "channel": 1,
      "note": 60,
      "start": 2.6063,
      "duration": 0.0079,
      "velocity": 95,
      "chip": "ym2612"
    },
    {
      "channel": 4,
      "note": 74,
      "start": 2.6075,
      "duration": 0.0076,
      "velocity": 99,
      "chip": "ym2612"
    },
    {
      "channel": 0,
      "note": 83,
      "start": 2.6278,
      "duration": 0.5499,
      "velocity": 99,
      "chip": "ym2612"
    },
    {
      "channel": 1,
      "note": 64,
      "start": 2.6284,
      "duration": 0.5496,
      "velocity": 95,
      "chip": "ym2612"
    },
    {
      "channel": 2,
      "note": 69,
      "start": 2.6289,
      "duration": 0.0139,
      "velocity": 100,
      "chip": "ym2612"
    },
    {
      "channel": 3,
      "note": 50,
      "start": 2.6295,
      "duration": 0.0296,
      "velocity": 98,
      "chip": "ym2612"
    },
    {
      "channel": 4,
      "note": 76,
      "start": 2.6302,
      "duration": 0.5488,
      "velocity": 99,
      "chip": "ym2612"
    },
    {
      "channel": 2,
      "note": 69,
      "start": 2.7627,
      "duration": 0.0901,
      "velocity": 100,
      "chip": "ym2612"
    },
    {
      "channel": 3,
      "note": 50,
      "start": 2.7633,
      "duration": 0.1985,
      "velocity": 98,
      "chip": "ym2612"
    },
    {
      "channel": 0,
      "note": 81,
      "start": 3.1955,
      "duration": 0.0901,
      "velocity": 99,
      "chip": "ym2612"
    },
    {
      "channel": 1,
      "note": 62,
      "start": 3.196,
      "duration": 0.0898,
      "velocity": 95,
      "chip": "ym2612"
    },
    {
      "channel": 2,
      "note": 69,
      "start": 3.1966,
      "duration": 0.0895,
      "velocity": 100,
      "chip": "ym2612"
    },
    {
      "channel": 3,
      "note": 50,
      "start": 3.1972,
      "duration": 0.1979,
      "velocity": 98,
      "chip": "ym2612"
    },
    {
      "channel": 4,
      "note": 79,
      "start": 3.1979,
      "duration": 0.0888,
      "velocity": 99,
      "chip": "ym2612"
    },
    {
      "channel": 0,
      "note": 79,
      "start": 3.4122,
      "duration": 0.0901,
      "velocity": 99,
      "chip": "ym2612"
    },
    {
      "channel": 1,
      "note": 60,
      "start": 3.4127,
      "duration": 0.0899,
      "velocity": 95,
      "chip": "ym2612"
    },
    {
      "channel": 4,
      "note": 78,
      "start": 3.414,
      "duration": 0.0895,
      "velocity": 99,
      "chip": "ym2612"
    },
    {
      "channel": 0,
      "note": 81,
      "start": 3.6289,
      "duration": 1.366,
      "velocity": 99,
      "chip": "ym2612"
    },
    {
      "channel": 1,
      "note": 62,
      "start": 3.6294,
      "duration": 1.3658,
      "velocity": 95,
      "chip": "ym2612"
    },
    {
      "channel": 2,
      "note": 69,
      "start": 3.6301,
      "duration": 0.0893,
      "velocity": 100,
      "chip": "ym2612"
    },
    {
      "channel": 3,
      "note": 50,
      "start": 3.6309,
      "duration": 0.1975,
      "velocity": 98,
      "chip": "ym2612"
    },
    {
      "channel": 4,
      "note": 76,
      "start": 3.6316,
      "duration": 1.3646,
      "velocity": 99,
      "chip": "ym2612"
    },
    {
      "channel": 2,
      "note": 69,
      "start": 4.0628,
      "duration": 0.0901,
      "velocity": 100,
      "chip": "ym2612"
    },
    {
      "channel": 3,
      "note": 50,
      "start": 4.0635,
      "duration": 0.1983,
      "velocity": 98,
      "chip": "ym2612"
    },
    {
      "channel": 2,
      "note": 69,
      "start": 4.4962,
      "duration": 0.0902,
      "velocity": 100,
      "chip": "ym2612"
    },
    {
      "channel": 3,
      "note": 50,
      "start": 4.4968,
      "duration": 0.1983,
      "velocity": 98,
      "chip": "ym2612"
    },
    {
      "channel": 2,
      "note": 69,
      "start": 4.9296,
      "duration": 0.0145,
      "velocity": 100,
      "chip": "ym2612"
    },
    {
      "channel": 3,
      "note": 50,
      "start": 4.9302,
      "duration": 0.0315,
      "velocity": 98,
      "chip": "ym2612"
    },
    {
      "channel": 2,
      "note": 71,
      "start": 4.9468,
      "duration": 0.0145,
      "velocity": 100,
      "chip": "ym2612"
    },
    {
      "channel": 2,
      "note": 72,
      "start": 4.9643,
      "duration": 0.0137,
      "velocity": 100,
      "chip": "ym2612"
    },
    {
      "channel": 2,
      "note": 73,
      "start": 4.9808,
      "duration": 0.0147,
      "velocity": 100,
      "chip": "ym2612"
    },
    {
      "channel": 0,
      "note": 74,
      "start": 4.9979,
      "duration": 0.0124,
      "velocity": 99,
      "chip": "ym2612"
    },
    {
      "channel": 2,
      "note": 74,
      "start": 4.999,
      "duration": 0.017,
      "velocity": 100,
      "chip": "ym2612"
    },
    {
      "channel": 3,
      "note": 50,
      "start": 4.9999,
      "duration": 0.033,
      "velocity": 98,
      "chip": "ym2612"
    },
    {
      "channel": 0,
      "note": 79,
      "start": 5.0236,
      "duration": 0.0086,
      "velocity": 99,
      "chip": "ym2612"
    },
    {
      "channel": 4,
      "note": 78,
      "start": 5.025,
      "duration": 0.0083,
      "velocity": 99,
      "chip": "ym2612"
    },
    {
      "channel": 0,
      "note": 81,
      "start": 5.0454,
      "duration": 0.0079,
      "velocity": 99,
      "chip": "ym2612"
    },
    {
      "channel": 4,
      "note": 74,
      "start": 5.0468,
      "duration": 0.0076,
      "velocity": 99,
      "chip": "ym2612"
    },
    {
      "channel": 0,
      "note": 84,
      "start": 5.0675,
      "duration": 0.6107,
      "velocity": 99,
      "chip": "ym2612"
    },
    {
      "channel": 1,
      "note": 62,
      "start": 5.068,
      "duration": 0.009,
      "velocity": 95,
      "chip": "ym2612"
    },
    {
      "channel": 2,
      "note": 74,
      "start": 5.0686,
      "duration": 0.0141,
      "velocity": 100,
      "chip": "ym2612"
    },
    {
      "channel": 3,
      "note": 55,
      "start": 5.0692,
      "duration": 0.0307,
      "velocity": 98,
      "chip": "ym2612"
    },
    {
      "channel": 4,
      "note": 79,
      "start": 5.0699,
      "duration": 0.008,
      "velocity": 99,
      "chip": "ym2612"
    },
    {
      "channel": 1,
      "note": 67,
      "start": 5.0906,
      "duration": 0.0088,
      "velocity": 95,
      "chip": "ym2612"
    },
    {
      "channel": 4,
      "note": 81,
      "start": 5.0917,
      "duration": 0.7319,
      "velocity": 99,
      "chip": "ym2612"
    },
    {
      "channel": 1,
      "note": 69,
      "start": 5.1188,
      "duration": 0.0539,
      "velocity": 95,
      "chip": "ym2612"
    },
    {
      "channel": 1,
      "note": 72,
      "start": 5.2632,
      "duration": 0.6319,
      "velocity": 95,
      "chip": "ym2612"
    },
    {
      "channel": 2,
      "note": 74,
      "start": 5.2638,
      "duration": 0.0897,
      "velocity": 100,
      "chip": "ym2612"
    },
    {
      "channel": 3,
      "note": 55,
      "start": 5.2644,
      "duration": 0.1979,
      "velocity": 98,
      "chip": "ym2612"
    },
    {
      "channel": 2,
      "note": 74,
      "start": 5.6969,
      "duration": 0.0899,
      "velocity": 100,
      "chip": "ym2612"
    },
    {
      "channel": 3,
      "note": 55,
      "start": 5.6976,
      "duration": 0.1981,
      "velocity": 98,
      "chip": "ym2612"
    },
    {
      "channel": 0,
      "note": 83,
      "start": 5.9852,
      "duration": 0.054,
      "velocity": 99,
      "chip": "ym2612"
    },
    {
      "channel": 0,
      "note": 81,
      "start": 6.0574,
      "duration": 0.0541,
      "velocity": 99,
      "chip": "ym2612"
    },
    {
      "channel": 0,
      "note": 83,
      "start": 6.1297,
      "duration": 0.1262,
      "velocity": 99,
      "chip": "ym2612"
    },
    {
      "channel": 2,
      "note": 74,
      "start": 6.1307,
      "duration": 0.0895,
      "velocity": 100,
      "chip": "ym2612"
    },
    {
      "channel": 3,
      "note": 55,
      "start": 6.1315,
      "duration": 0.1975,
      "velocity": 98,
      "chip": "ym2612"
    },
    {
      "channel": 4,
      "note": 84,
      "start": 6.1322,
      "duration": 0.0525,
      "velocity": 99,
      "chip": "ym2612"
    },
    {
      "channel": 4,
      "note": 83,
      "start": 6.203,
      "duration": 0.054,
      "velocity": 99,
      "chip": "ym2612"
    },
    {
      "channel": 4,
      "note": 81,
      "start": 6.2753,
      "duration": 0.1261,
      "velocity": 99,
      "chip": "ym2612"
    },
    {
      "channel": 0,
      "note": 74,
      "start": 6.4186,
      "duration": 0.054,
      "velocity": 99,
      "chip": "ym2612"
    },
    {
      "channel": 0,
      "note": 76,
      "start": 6.4908,
      "duration": 0.0541,
      "velocity": 99,
      "chip": "ym2612"
    },
    {
      "channel": 0,
      "note": 74,
      "start": 6.563,
      "duration": 0.9298,
      "velocity": 99,
      "chip": "ym2612"
    },
    {
      "channel": 2,
      "note": 74,
      "start": 6.5639,
      "duration": 0.0898,
      "velocity": 100,
      "chip": "ym2612"
    },
    {
      "channel": 3,
      "note": 55,
      "start": 6.5645,
      "duration": 0.1978,
      "velocity": 98,
      "chip": "ym2612"
    },
    {
      "channel": 4,
      "note": 83,
      "start": 6.5652,
      "duration": 0.0529,
      "velocity": 99,
      "chip": "ym2612"
    },
    {
      "channel": 4,
      "note": 74,
      "start": 6.6364,
      "duration": 0.0539,
      "velocity": 99,
      "chip": "ym2612"
    },
    {
      "channel": 4,
      "note": 76,
      "start": 6.7086,
      "duration": 0.7855,
      "velocity": 99,
      "chip": "ym2612"
    },
    {
      "channel": 1,
      "note": 71,
      "start": 6.9967,
      "duration": 0.054,
      "velocity": 95,
      "chip": "ym2612"
    },
    {
      "channel": 2,
      "note": 74,
      "start": 6.9972,
      "duration": 0.0898,
      "velocity": 100,
      "chip": "ym2612"
    },
    {
      "channel": 3,
      "note": 55,
      "start": 6.9978,
      "duration": 0.1978,
      "velocity": 98,
      "chip": "ym2612"
    },
    {
      "channel": 1,
      "note": 62,
      "start": 7.1411,
      "duration": 0.054,
      "velocity": 95,
      "chip": "ym2612"
    },
    {
      "channel": 1,
      "note": 64,
      "start": 7.2856,
      "duration": 0.054,
      "velocity": 95,
      "chip": "ym2612"
    },
    {
      "channel": 1,
      "note": 62,
      "start": 7.4301,
      "duration": 0.0631,
      "velocity": 95,
      "chip": "ym2612"
    },
    {
      "channel": 2,
      "note": 74,
      "start": 7.4306,
      "duration": 0.0143,
      "velocity": 100,
      "chip": "ym2612"
    },
    {
      "channel": 3,
      "note": 55,
      "start": 7.4312,
      "duration": 0.0305,
      "velocity": 98,
      "chip": "ym2612"
    },
    {
      "channel": 0,
      "note": 79,
      "start": 7.4974,
      "duration": 0.0127,
      "velocity": 99,
      "chip": "ym2612"
    },
    {
      "channel": 1,
      "note": 59,
      "start": 7.4979,
      "duration": 0.0123,
      "velocity": 95,
      "chip": "ym2612"
    },
    {
      "channel": 2,
      "note": 74,
      "start": 7.4986,
      "duration": 0.0176,
      "velocity": 100,
      "chip": "ym2612"
    },
    {
      "channel": 3,
      "note": 55,
      "start": 7.4994,
      "duration": 0.0345,
      "velocity": 98,
      "chip": "ym2612"
    },
    {
      "channel": 4,
      "note": 74,
      "start": 7.5025,
      "duration": 0.0086,
      "velocity": 99,
      "chip": "ym2612"
    },
    {
      "channel": 0,
      "note": 83,
      "start": 7.5239,
      "duration": 0.0093,
      "velocity": 99,
      "chip": "ym2612"
    },
    {
      "channel": 1,
      "note": 62,
      "start": 7.5244,
      "duration": 0.009,
      "velocity": 95,
      "chip": "ym2612"
    },
    {
      "channel": 4,
      "note": 74,
      "start": 7.5255,
      "duration": 0.0088,
      "velocity": 99,
      "chip": "ym2612"
    },
    {
      "channel": 0,
      "note": 84,
      "start": 7.5466,
      "duration": 0.0082,
      "velocity": 99,
      "chip": "ym2612"
    },
    {
      "channel": 1,
      "note": 65,
      "start": 7.5471,
      "duration": 0.008,
      "velocity": 95,
      "chip": "ym2612"
    },
    {
      "channel": 4,
      "note": 79,
      "start": 7.5483,
      "duration": 0.0076,
      "velocity": 99,
      "chip": "ym2612"
    },
    {
      "channel": 0,
      "note": 88,
      "start": 7.5691,
      "duration": 0.6089,
      "velocity": 99,
      "chip": "ym2612"
    },
    {
      "channel": 1,
      "note": 69,
      "start": 7.5696,
      "duration": 0.6087,
      "velocity": 95,
      "chip": "ym2612"
    },
    {
      "channel": 2,
      "note": 74,
      "start": 7.5702,
      "duration": 0.0138,
      "velocity": 100,
      "chip": "ym2612"
    },
    {
      "channel": 3,
      "note": 55,
      "start": 7.5708,
      "duration": 0.0294,
      "velocity": 98,
      "chip": "ym2612"
    },
    {
      "channel": 4,
      "note": 81,
      "start": 7.5715,
      "duration": 0.6078,
      "velocity": 99,
      "chip": "ym2612"
    },
    {
      "channel": 2,
      "note": 74,
      "start": 7.7634,
      "duration": 0.0901,
      "velocity": 100,
      "chip": "ym2612"
    },
    {
      "channel": 3,
      "note": 55,
      "start": 7.7641,
      "duration": 0.1981,
      "velocity": 98,
      "chip": "ym2612"
    },
    {
      "channel": 0,
      "note": 86,
      "start": 8.1963,
      "duration": 0.09,
      "velocity": 99,
      "chip": "ym2612"
    },
    {
      "channel": 1,
      "note": 67,
      "start": 8.1968,
      "duration": 0.0898,
      "velocity": 95,
      "chip": "ym2612"
    },
    {
      "channel": 2,
      "note": 74,
      "start": 8.1974,
      "duration": 0.0895,
      "velocity": 100,
      "chip": "ym2612"
    },
    {
      "channel": 3,
      "note": 55,
      "start": 8.198,
      "duration": 0.1975,
      "velocity": 98,
      "chip": "ym2612"
    },
    {
      "channel": 4,
      "note": 84,
      "start": 8.1988,
      "duration": 0.0888,
      "velocity": 99,
      "chip": "ym2612"
    },
    {
      "channel": 0,
      "note": 84,
      "start": 8.413,
      "duration": 0.0901,
      "velocity": 99,
      "chip": "ym2612"
    },
    {
      "channel": 1,
      "note": 65,
      "start": 8.4135,
      "duration": 0.0898,
      "velocity": 95,
      "chip": "ym2612"
    },
    {
      "channel": 4,
      "note": 83,
      "start": 8.4148,
      "duration": 0.0894,
      "velocity": 99,
      "chip": "ym2612"
    },
    {
      "channel": 0,
      "note": 86,
      "start": 8.6297,
      "duration": 1.3659,
      "velocity": 99,
      "chip": "ym2612"
    },
    {
      "channel": 1,
      "note": 67,
      "start": 8.6302,
      "duration": 1.3656,
      "velocity": 95,
      "chip": "ym2612"
    },
    {
      "channel": 2,
      "note": 74,
      "start": 8.6309,
      "duration": 0.0893,
      "velocity": 100,
      "chip": "ym2612"
    },
    {
      "channel": 3,
      "note": 55,
      "start": 8.6317,
      "duration": 0.1971,
      "velocity": 98,
      "chip": "ym2612"
    },
    {
      "channel": 4,
      "note": 81,
      "start": 8.6324,
      "duration": 0.847,
      "velocity": 99,
      "chip": "ym2612"
    },
    {
      "channel": 2,
      "note": 74,
      "start": 9.0636,
      "duration": 0.0901,
      "velocity": 100,
      "chip": "ym2612"
    },
    {
      "channel": 3,
      "note": 55,
      "start": 9.0642,
      "duration": 0.1981,
      "velocity": 98,
      "chip": "ym2612"
    },
    {
      "channel": 2,
      "note": 74,
      "start": 9.4971,
      "duration": 0.09,
      "velocity": 100,
      "chip": "ym2612"
    },
    {
      "channel": 3,
      "note": 55,
      "start": 9.4977,
      "duration": 0.198,
      "velocity": 98,
      "chip": "ym2612"
    },
    {
      "channel": 2,
      "note": 79,
      "start": 9.6053,
      "duration": 0.0901,
      "velocity": 100,
      "chip": "ym2612"
    },
    {
      "channel": 4,
      "note": 83,
      "start": 9.6473,
      "duration": 0.0847,
      "velocity": 100,
      "chip": "ym2612"
    },
    {
      "channel": 2,
      "note": 81,
      "start": 9.7137,
      "duration": 0.0901,
      "velocity": 100,
      "chip": "ym2612"
    },
    {
      "channel": 4,
      "note": 74,
      "start": 9.7503,
      "duration": 0.0901,
      "velocity": 100,
      "chip": "ym2612"
    },
    {
      "channel": 2,
      "note": 83,
      "start": 9.822,
      "duration": 0.0901,
      "velocity": 100,
      "chip": "ym2612"
    },
    {
      "channel": 4,
      "note": 79,
      "start": 9.8587,
      "duration": 0.0761,
      "velocity": 100,
      "chip": "ym2612"
    },
    {
      "channel": 2,
      "note": 84,
      "start": 9.9304,
      "duration": 0.0147,
      "velocity": 100,
      "chip": "ym2612"
    },
    {
      "channel": 3,
      "note": 55,
      "start": 9.931,
      "duration": 0.0317,
      "velocity": 98,
      "chip": "ym2612"
    },
    {
      "channel": 4,
      "note": 81,
      "start": 9.9377,
      "duration": 0.0136,
      "velocity": 100,
      "chip": "ym2612"
    },
    {
      "channel": 2,
      "note": 86,
      "start": 9.9479,
      "duration": 0.0145,
      "velocity": 100,
      "chip": "ym2612"
    },
    {
      "channel": 4,
      "note": 83,
      "start": 9.9542,
      "duration": 0.0144,
      "velocity": 100,
      "chip": "ym2612"
    },
    {
      "channel": 2,
      "note": 88,
      "start": 9.9652,
      "duration": 0.0136,
      "velocity": 100,
      "chip": "ym2612"
    },
    {
      "channel": 4,
      "note": 84,
      "start": 9.9715,
      "duration": 0.0135,
      "velocity": 100,
      "chip": "ym2612"
    },
    {
      "channel": 2,
      "note": 90,
      "start": 9.9816,
      "duration": 0.0146,
      "velocity": 100,
      "chip": "ym2612"
    },
    {
      "channel": 4,
      "note": 86,
      "start": 9.9878,
      "duration": 0.0214,
      "velocity": 100,
      "chip": "ym2612"
    },
    {
      "channel": 0,
      "note": 88,
      "start": 10.0032,
      "duration": 0.1641,
      "velocity": 100,
      "chip": "ym2612"
    },
    {
      "channel": 2,
      "note": 91,
      "start": 10.0041,
      "duration": 0.1638,
      "velocity": 100,
      "chip": "ym2612"
    },
    {
      "channel": 3,
      "note": 55,
      "start": 10.0051,
      "duration": 0.0348,
      "velocity": 98,
      "chip": "ym2612"
    },
    {
      "channel": 4,
      "note": 88,
      "start": 10.012,
      "duration": 0.0129,
      "velocity": 100,
      "chip": "ym2612"
    },
    {
      "channel": 1,
      "note": 88,
      "start": 10.0307,
      "duration": 0.2814,
      "velocity": 100,
      "chip": "ym2612"
    },
    {
      "channel": 4,
      "note": 90,
      "start": 10.0318,
      "duration": 0.2811,
      "velocity": 100,
      "chip": "ym2612"
    },
    {
      "channel": 3,
      "note": 48,
      "start": 10.0737,
      "duration": 0.0945,
      "velocity": 98,
      "chip": "ym2612"
    },
    {
      "channel": 0,
      "note": 86,
      "start": 10.1856,
      "duration": 0.0901,
      "velocity": 100,
      "chip": "ym2612"
    },
    {
      "channel": 2,
      "note": 90,
      "start": 10.1864,
      "duration": 0.0899,
      "velocity": 100,
      "chip": "ym2612"
    },
    {
      "channel": 1,
      "note": 86,
      "start": 10.3303,
      "duration": 0.0901,
      "velocity": 100,
      "chip": "ym2612"
    },
    {
      "channel": 4,
      "note": 91,
      "start": 10.3315,
      "duration": 0.0898,
      "velocity": 100,
      "chip": "ym2612"
    },
    {
      "channel": 0,
      "note": 84,
      "start": 10.4023,
      "duration": 0.4151,
      "velocity": 100,
      "chip": "ym2612"
    },
    {
      "channel": 2,
      "note": 88,
      "start": 10.4031,
      "duration": 0.4149,
      "velocity": 100,
      "chip": "ym2612"
    },
    {
      "channel": 3,
      "note": 48,
      "start": 10.4037,
      "duration": 0.1977,
      "velocity": 98,
      "chip": "ym2612"
    },
    {
      "channel": 1,
      "note": 84,
      "start": 10.547,
      "duration": 0.4151,
      "velocity": 100,
      "chip": "ym2612"
    },
    {
      "channel": 4,
      "note": 90,
      "start": 10.5481,
      "duration": 0.4149,
      "velocity": 100,
      "chip": "ym2612"
    },
    {
      "channel": 0,
      "note": 86,
      "start": 10.8357,
      "duration": 0.1984,
      "velocity": 100,
      "chip": "ym2612"
    },
    {
      "channel": 2,
      "note": 90,
      "start": 10.8365,
      "duration": 0.1982,
      "velocity": 100,
      "chip": "ym2612"
    },
    {
      "channel": 3,
      "note": 48,
      "start": 10.8371,
      "duration": 0.1978,
      "velocity": 98,
      "chip": "ym2612"
    },
    {
      "channel": 1,
      "note": 86,
      "start": 10.9804,
      "duration": 0.1984,
      "velocity": 100,
      "chip": "ym2612"
    },
    {
      "channel": 4,
      "note": 88,
      "start": 10.9815,
      "duration": 0.1981,
      "velocity": 100,
      "chip": "ym2612"
    },
    {
      "channel": 0,
      "note": 84,
      "start": 11.0524,
      "duration": 0.0901,
      "velocity": 100,
      "chip": "ym2612"
    },
    {
      "channel": 2,
      "note": 88,
      "start": 11.0531,
      "duration": 0.0898,
      "velocity": 100,
      "chip": "ym2612"
    },
    {
      "channel": 1,
      "note": 84,
      "start": 11.197,
      "duration": 0.0901,
      "velocity": 100,
      "chip": "ym2612"
    },
    {
      "channel": 4,
      "note": 90,
      "start": 11.1982,
      "duration": 0.0898,
      "velocity": 100,
      "chip": "ym2612"
    },
    {
      "channel": 0,
      "note": 84,
      "start": 11.269,
      "duration": 0.1984,
      "velocity": 100,
      "chip": "ym2612"
    },
    {
      "channel": 2,
      "note": 88,
      "start": 11.2698,
      "duration": 0.1982,
      "velocity": 100,
      "chip": "ym2612"
    },
    {
      "channel": 3,
      "note": 48,
      "start": 11.2704,
      "duration": 0.1978,
      "velocity": 98,
      "chip": "ym2612"
    },
    {
      "channel": 1,
      "note": 84,
      "start": 11.4138,
      "duration": 0.1984,
      "velocity": 100,
      "chip": "ym2612"
    },
    {
      "channel": 4,
      "note": 88,
      "start": 11.4149,
      "duration": 0.1981,
      "velocity": 100,
      "chip": "ym2612"
    },
    {
      "channel": 0,
      "note": 83,
      "start": 11.4858,
      "duration": 0.09,
      "velocity": 100,
      "chip": "ym2612"
    },
    {
      "channel": 2,
      "note": 86,
      "start": 11.4865,
      "duration": 0.0898,
      "velocity": 100,
      "chip": "ym2612"
    },
    {
      "channel": 1,
      "note": 83,
      "start": 11.6304,
      "duration": 0.0901,
      "velocity": 100,
      "chip": "ym2612"
    },
    {
      "channel": 4,
      "note": 88,
      "start": 11.6316,
      "duration": 0.0898,
      "velocity": 100,
      "chip": "ym2612"
    },
    {
      "channel": 0,
      "note": 83,
      "start": 11.7024,
      "duration": 0.1984,
      "velocity": 100,
      "chip": "ym2612"
    },
    {
      "channel": 2,
      "note": 86,
      "start": 11.7032,
      "duration": 0.5306,
      "velocity": 100,
      "chip": "ym2612"
    },
    {
      "channel": 3,
      "note": 55,
      "start": 11.7038,
      "duration": 0.1978,
      "velocity": 98,
      "chip": "ym2612"
    },
    {
      "channel": 1,
      "note": 83,
      "start": 11.8471,
      "duration": 0.054,
      "velocity": 100,
      "chip": "ym2612"
    },
    {
      "channel": 4,
      "note": 86,
      "start": 11.8482,
      "duration": 0.4076,
      "velocity": 100,
      "chip": "ym2612"
    },
    {
      "channel": 0,
      "note": 79,
      "start": 11.9224,
      "duration": 0.0506,
      "velocity": 99,
      "chip": "ym2612"
    },
    {
      "channel": 1,
      "note": 67,
      "start": 11.9263,
      "duration": 0.047,
      "velocity": 95,
      "chip": "ym2612"
    },
    {
      "channel": 0,
      "note": 79,
      "start": 11.9914,
      "duration": 0.0539,
      "velocity": 99,
      "chip": "ym2612"
    },
    {
      "channel": 1,
      "note": 67,
      "start": 11.9919,
      "duration": 0.0537,
      "velocity": 95,
      "chip": "ym2612"
    },
    {
      "channel": 0,
      "note": 79,
      "start": 12.0636,
      "duration": 0.0539,
      "velocity": 99,
      "chip": "ym2612"
    },
    {
      "channel": 1,
      "note": 67,
      "start": 12.0641,
      "duration": 0.0537,
      "velocity": 95,
      "chip": "ym2612"
    },
    {
      "channel": 0,
      "note": 79,
      "start": 12.1358,
      "duration": 0.0142,
      "velocity": 99,
      "chip": "ym2612"
    },
    {
      "channel": 1,
      "note": 67,
      "start": 12.1363,
      "duration": 0.0139,
      "velocity": 95,
      "chip": "ym2612"
    },
    {
      "channel": 3,
      "note": 55,
      "start": 12.1372,
      "duration": 0.0301,
      "velocity": 98,
      "chip": "ym2612"
    },
    {
      "channel": 0,
      "note": 79,
      "start": 12.1705,
      "duration": 0.0137,
      "velocity": 99,
      "chip": "ym2612"
    },
    {
      "channel": 1,
      "note": 67,
      "start": 12.1711,
      "duration": 0.0134,
      "velocity": 95,
      "chip": "ym2612"
    },
    {
      "channel": 3,
      "note": 55,
      "start": 12.2045,
      "duration": 0.0297,
      "velocity": 98,
      "chip": "ym2612"
    },
    {
      "channel": 2,
      "note": 84,
      "start": 12.2367,
      "duration": 0.013,
      "velocity": 100,
      "chip": "ym2612"
    },
    {
      "channel": 2,
      "note": 83,
      "start": 12.2526,
      "duration": 0.0148,
      "velocity": 100,
      "chip": "ym2612"
    },
    {
      "channel": 4,
      "note": 86,
      "start": 12.2588,
      "duration": 0.0195,
      "velocity": 100,
      "chip": "ym2612"
    },
    {
      "channel": 0,
      "note": 88,
      "start": 12.2731,
      "duration": 0.5785,
      "velocity": 100,
      "chip": "ym2612"
    },
    {
      "channel": 2,
      "note": 91,
      "start": 12.274,
      "duration": 0.5782,
      "velocity": 100,
      "chip": "ym2612"
    },
    {
      "channel": 3,
      "note": 55,
      "start": 12.2748,
      "duration": 0.1442,
      "velocity": 98,
      "chip": "ym2612"
    },
    {
      "channel": 4,
      "note": 84,
      "start": 12.2811,
      "duration": 0.0659,
      "velocity": 100,
      "chip": "ym2612"
    },
    {
      "channel": 1,
      "note": 88,
      "start": 12.3683,
      "duration": 0.628,
      "velocity": 100,
      "chip": "ym2612"
    },
    {
      "channel": 4,
      "note": 83,
      "start": 12.3695,
      "duration": 0.6277,
      "velocity": 100,
      "chip": "ym2612"
    },
    {
      "channel": 3,
      "note": 57,
      "start": 12.654,
      "duration": 0.1985,
      "velocity": 98,
      "chip": "ym2612"
    },
    {
      "channel": 0,
      "note": 86,
      "start": 12.8699,
      "duration": 0.0901,
      "velocity": 100,
      "chip": "ym2612"
    },
    {
      "channel": 2,
      "note": 90,
      "start": 12.8706,
      "duration": 0.0899,
      "velocity": 100,
      "chip": "ym2612"
    },
    {
      "channel": 1,
      "note": 86,
      "start": 13.0145,
      "duration": 0.0901,
      "velocity": 100,
      "chip": "ym2612"
    },
    {
      "channel": 4,
      "note": 91,
      "start": 13.0157,
      "duration": 0.0898,
      "velocity": 100,
      "chip": "ym2612"
    },
    {
      "channel": 0,
      "note": 84,
      "start": 13.0866,
      "duration": 0.4151,
      "velocity": 100,
      "chip": "ym2612"
    },
    {
      "channel": 2,
      "note": 88,
      "start": 13.0873,
      "duration": 0.415,
      "velocity": 100,
      "chip": "ym2612"
    },
    {
      "channel": 3,
      "note": 57,
      "start": 13.0879,
      "duration": 0.1978,
      "velocity": 98,
      "chip": "ym2612"
    },
    {
      "channel": 1,
      "note": 84,
      "start": 13.2313,
      "duration": 0.4151,
      "velocity": 100,
      "chip": "ym2612"
    },
    {
      "channel": 4,
      "note": 90,
      "start": 13.2324,
      "duration": 0.4148,
      "velocity": 100,
      "chip": "ym2612"
    },
    {
      "channel": 0,
      "note": 86,
      "start": 13.5199,
      "duration": 0.1985,
      "velocity": 100,
      "chip": "ym2612"
    },
    {
      "channel": 2,
      "note": 90,
      "start": 13.5206,
      "duration": 0.1982,
      "velocity": 100,
      "chip": "ym2612"
    },
    {
      "channel": 3,
      "note": 57,
      "start": 13.5213,
      "duration": 0.1979,
      "velocity": 98,
      "chip": "ym2612"
    },
    {
      "channel": 1,
      "note": 86,
      "start": 13.6646,
      "duration": 0.1985,
      "velocity": 100,
      "chip": "ym2612"
    },
    {
      "channel": 4,
      "note": 88,
      "start": 13.6657,
      "duration": 0.1982,
      "velocity": 100,
      "chip": "ym2612"
    },
    {
      "channel": 0,
      "note": 84,
      "start": 13.7366,
      "duration": 0.0901,
      "velocity": 100,
      "chip": "ym2612"
    },
    {
      "channel": 2,
      "note": 88,
      "start": 13.7374,
      "duration": 0.0898,
      "velocity": 100,
      "chip": "ym2612"
    },
    {
      "channel": 1,
      "note": 84,
      "start": 13.8813,
      "duration": 0.0901,
      "velocity": 100,
      "chip": "ym2612"
    },
    {
      "channel": 4,
      "note": 90,
      "start": 13.8825,
      "duration": 0.0898,
      "velocity": 100,
      "chip": "ym2612"
    },
    {
      "channel": 0,
      "note": 83,
      "start": 13.9533,
      "duration": 0.1985,
      "velocity": 100,
      "chip": "ym2612"
    },
    {
      "channel": 2,
      "note": 86,
      "start": 13.954,
      "duration": 0.8483,
      "velocity": 100,
      "chip": "ym2612"
    },
    {
      "channel": 3,
      "note": 57,
      "start": 13.9547,
      "duration": 0.1978,
      "velocity": 98,
      "chip": "ym2612"
    },
    {
      "channel": 1,
      "note": 83,
      "start": 14.098,
      "duration": 0.054,
      "velocity": 100,
      "chip": "ym2612"
    },
    {
      "channel": 4,
      "note": 88,
      "start": 14.0991,
      "duration": 0.8482,
      "velocity": 100,
      "chip": "ym2612"
    },
    {
      "channel": 0,
      "note": 71,
      "start": 14.1733,
      "duration": 0.0506,
      "velocity": 99,
      "chip": "ym2612"
    },
    {
      "channel": 1,
      "note": 67,
      "start": 14.1773,
      "duration": 0.047,
      "velocity": 95,
      "chip": "ym2612"
    },
    {
      "channel": 0,
      "note": 71,
      "start": 14.2422,
      "duration": 0.054,
      "velocity": 99,
      "chip": "ym2612"
    },
    {
      "channel": 1,
      "note": 67,
      "start": 14.2427,
      "duration": 0.0537,
      "velocity": 95,
      "chip": "ym2612"
    },
    {
      "channel": 0,
      "note": 71,
      "start": 14.3145,
      "duration": 0.0539,
      "velocity": 99,
      "chip": "ym2612"
    },
    {
      "channel": 1,
      "note": 67,
      "start": 14.315,
      "duration": 0.0537,
      "velocity": 95,
      "chip": "ym2612"
    },
    {
      "channel": 0,
      "note": 71,
      "start": 14.3867,
      "duration": 0.0901,
      "velocity": 99,
      "chip": "ym2612"
    },
    {
      "channel": 1,
      "note": 67,
      "start": 14.3872,
      "duration": 0.0898,
      "velocity": 95,
      "chip": "ym2612"
    },
    {
      "channel": 3,
      "note": 55,
      "start": 14.3881,
      "duration": 0.1978,
      "velocity": 98,
      "chip": "ym2612"
    },
    {
      "channel": 0,
      "note": 71,
      "start": 14.6033,
      "duration": 0.0902,
      "velocity": 99,
      "chip": "ym2612"
    },
    {
      "channel": 1,
      "note": 67,
      "start": 14.6039,
      "duration": 0.0898,
      "velocity": 95,
      "chip": "ym2612"
    },
    {
      "channel": 0,
      "note": 71,
      "start": 14.82,
      "duration": 0.3166,
      "velocity": 99,
      "chip": "ym2612"
    },
    {
      "channel": 1,
      "note": 67,
      "start": 14.8206,
      "duration": 0.3163,
      "velocity": 95,
      "chip": "ym2612"
    },
    {
      "channel": 3,
      "note": 55,
      "start": 14.8215,
      "duration": 0.1977,
      "velocity": 98,
      "chip": "ym2612"
    },
    {
      "channel": 2,
      "note": 79,
      "start": 14.9288,
      "duration": 0.0901,
      "velocity": 100,
      "chip": "ym2612"
    },
    {
      "channel": 2,
      "note": 81,
      "start": 15.0372,
      "duration": 0.0134,
      "velocity": 100,
      "chip": "ym2612"
    },
    {
      "channel": 4,
      "note": 86,
      "start": 15.0436,
      "duration": 0.0129,
      "velocity": 100,
      "chip": "ym2612"
    },
    {
      "channel": 2,
      "note": 83,
      "start": 15.0533,
      "duration": 0.0144,
      "velocity": 100,
      "chip": "ym2612"
    },
    {
      "channel": 4,
      "note": 79,
      "start": 15.0593,
      "duration": 0.0156,
      "velocity": 100,
      "chip": "ym2612"
    },
    {
      "channel": 2,
      "note": 84,
      "start": 15.0706,
      "duration": 0.0147,
      "velocity": 100,
      "chip": "ym2612"
    },
    {
      "channel": 3,
      "note": 55,
      "start": 15.0712,
      "duration": 0.0322,
      "velocity": 98,
      "chip": "ym2612"
    },
    {
      "channel": 4,
      "note": 81,
      "start": 15.0778,
      "duration": 0.0137,
      "velocity": 100,
      "chip": "ym2612"
    },
    {
      "channel": 2,
      "note": 86,
      "start": 15.0882,
      "duration": 0.015,
      "velocity": 100,
      "chip": "ym2612"
    },
    {
      "channel": 4,
      "note": 83,
      "start": 15.0945,
      "duration": 0.0153,
      "velocity": 100,
      "chip": "ym2612"
    },
    {
      "channel": 2,
      "note": 88,
      "start": 15.1061,
      "duration": 0.0139,
      "velocity": 100,
      "chip": "ym2612"
    },
    {
      "channel": 4,
      "note": 84,
      "start": 15.1126,
      "duration": 0.0135,
      "velocity": 100,
      "chip": "ym2612"
    },
    {
      "channel": 2,
      "note": 90,
      "start": 15.1228,
      "duration": 0.0144,
      "velocity": 100,
      "chip": "ym2612"
    },
    {
      "channel": 4,
      "note": 86,
      "start": 15.129,
      "duration": 0.0205,
      "velocity": 100,
      "chip": "ym2612"
    },
    {
      "channel": 0,
      "note": 88,
      "start": 15.1437,
      "duration": 0.1645,
      "velocity": 100,
      "chip": "ym2612"
    },
    {
      "channel": 2,
      "note": 91,
      "start": 15.1446,
      "duration": 0.1642,
      "velocity": 100,
      "chip": "ym2612"
    },
    {
      "channel": 3,
      "note": 55,
      "start": 15.1455,
      "duration": 0.0345,
      "velocity": 98,
      "chip": "ym2612"
    },
    {
      "channel": 4,
      "note": 88,
      "start": 15.1522,
      "duration": 0.0129,
      "velocity": 100,
      "chip": "ym2612"
    },
    {
      "channel": 1,
      "note": 88,
      "start": 15.1709,
      "duration": 0.282,
      "velocity": 100,
      "chip": "ym2612"
    },
    {
      "channel": 4,
      "note": 90,
      "start": 15.172,
      "duration": 0.2817,
      "velocity": 100,
      "chip": "ym2612"
    },
    {
      "channel": 3,
      "note": 48,
      "start": 15.2141,
      "duration": 0.095,
      "velocity": 98,
      "chip": "ym2612"
    },
    {
      "channel": 0,
      "note": 86,
      "start": 15.3265,
      "duration": 0.0901,
      "velocity": 100,
      "chip": "ym2612"
    },
    {
      "channel": 2,
      "note": 90,
      "start": 15.3272,
      "duration": 0.0899,
      "velocity": 100,
      "chip": "ym2612"
    },
    {
      "channel": 1,
      "note": 86,
      "start": 15.4711,
      "duration": 0.0901,
      "velocity": 100,
      "chip": "ym2612"
    },
    {
      "channel": 4,
      "note": 91,
      "start": 15.4723,
      "duration": 0.0898,
      "velocity": 100,
      "chip": "ym2612"
    },
    {
      "channel": 0,
      "note": 84,
      "start": 15.5431,
      "duration": 0.4151,
      "velocity": 100,
      "chip": "ym2612"
    },
    {
      "channel": 2,
      "note": 88,
      "start": 15.5439,
      "duration": 0.4149,
      "velocity": 100,
      "chip": "ym2612"
    },
    {
      "channel": 3,
      "note": 48,
      "start": 15.5445,
      "duration": 0.1978,
      "velocity": 98,
      "chip": "ym2612"
    },
    {
      "channel": 1,
      "note": 84,
      "start": 15.6878,
      "duration": 0.4151,
      "velocity": 100,
      "chip": "ym2612"
    },
    {
      "channel": 4,
      "note": 90,
      "start": 15.689,
      "duration": 0.4148,
      "velocity": 100,
      "chip": "ym2612"
    },
    {
      "channel": 0,
      "note": 86,
      "start": 15.9765,
      "duration": 0.1984,
      "velocity": 100,
      "chip": "ym2612"
    },
    {
      "channel": 2,
      "note": 90,
      "start": 15.9773,
      "duration": 0.1982,
      "velocity": 100,
      "chip": "ym2612"
    },
    {
      "channel": 3,
      "note": 48,
      "start": 15.9779,
      "duration": 0.1978,
      "velocity": 98,
      "chip": "ym2612"
    },
    {
      "channel": 1,
      "note": 86,
      "start": 16.1212,
      "duration": 0.1985,
      "velocity": 100,
      "chip": "ym2612"
    },
    {
      "channel": 4,
      "note": 88,
      "start": 16.1223,
      "duration": 0.1982,
      "velocity": 100,
      "chip": "ym2612"
    },
    {
      "channel": 0,
      "note": 84,
      "start": 16.1932,
      "duration": 0.0901,
      "velocity": 100,
      "chip": "ym2612"
    },
    {
      "channel": 2,
      "note": 88,
      "start": 16.1939,
      "duration": 0.0898,
      "velocity": 100,
      "chip": "ym2612"
    },
    {
      "channel": 1,
      "note": 84,
      "start": 16.3378,
      "duration": 0.0901,
      "velocity": 100,
      "chip": "ym2612"
    },
    {
      "channel": 4,
      "note": 90,
      "start": 16.339,
      "duration": 0.0898,
      "velocity": 100,
      "chip": "ym2612"
    },
    {
      "channel": 0,
      "note": 84,
      "start": 16.4099,
      "duration": 0.1985,
      "velocity": 100,
      "chip": "ym2612"
    },
    {
      "channel": 2,
      "note": 88,
      "start": 16.4106,
      "duration": 0.1982,
      "velocity": 100,
      "chip": "ym2612"
    },
    {
      "channel": 3,
      "note": 48,
      "start": 16.4112,
      "duration": 0.1979,
      "velocity": 98,
      "chip": "ym2612"
    },
    {
      "channel": 1,
      "note": 84,
      "start": 16.5546,
      "duration": 0.1984,
      "velocity": 100,
      "chip": "ym2612"
    },
    {
      "channel": 4,
      "note": 88,
      "start": 16.5557,
      "duration": 0.1981,
      "velocity": 100,
      "chip": "ym2612"
    },
    {
      "channel": 0,
      "note": 83,
      "start": 16.6266,
      "duration": 0.0901,
      "velocity": 100,
      "chip": "ym2612"
    },
    {
      "channel": 2,
      "note": 86,
      "start": 16.6273,
      "duration": 0.0898,
      "velocity": 100,
      "chip": "ym2612"
    },
    {
      "channel": 1,
      "note": 83,
      "start": 16.7712,
      "duration": 0.0901,
      "velocity": 100,
      "chip": "ym2612"
    },
    {
      "channel": 4,
      "note": 88,
      "start": 16.7724,
      "duration": 0.0898,
      "velocity": 100,
      "chip": "ym2612"
    },
    {
      "channel": 0,
      "note": 83,
      "start": 16.8432,
      "duration": 0.1985,
      "velocity": 100,
      "chip": "ym2612"
    },
    {
      "channel": 2,
      "note": 86,
      "start": 16.844,
      "duration": 0.531,
      "velocity": 100,
      "chip": "ym2612"
    },
    {
      "channel": 3,
      "note": 55,
      "start": 16.8446,
      "duration": 0.1978,
      "velocity": 98,
      "chip": "ym2612"
    },
    {
      "channel": 1,
      "note": 83,
      "start": 16.988,
      "duration": 0.054,
      "velocity": 100,
      "chip": "ym2612"
    },
    {
      "channel": 4,
      "note": 86,
      "start": 16.9891,
      "duration": 0.4078,
      "velocity": 100,
      "chip": "ym2612"
    },
    {
      "channel": 0,
      "note": 79,
      "start": 17.0632,
      "duration": 0.0507,
      "velocity": 99,
      "chip": "ym2612"
    },
    {
      "channel": 1,
      "note": 67,
      "start": 17.0672,
      "duration": 0.047,
      "velocity": 95,
      "chip": "ym2612"
    },
    {
      "channel": 0,
      "note": 79,
      "start": 17.1322,
      "duration": 0.0539,
      "velocity": 99,
      "chip": "ym2612"
    },
    {
      "channel": 1,
      "note": 67,
      "start": 17.1327,
      "duration": 0.0537,
      "velocity": 95,
      "chip": "ym2612"
    },
    {
      "channel": 0,
      "note": 79,
      "start": 17.2044,
      "duration": 0.054,
      "velocity": 99,
      "chip": "ym2612"
    },
    {
      "channel": 1,
      "note": 67,
      "start": 17.205,
      "duration": 0.0537,
      "velocity": 95,
      "chip": "ym2612"
    },
    {
      "channel": 0,
      "note": 79,
      "start": 17.2766,
      "duration": 0.0142,
      "velocity": 99,
      "chip": "ym2612"
    },
    {
      "channel": 1,
      "note": 67,
      "start": 17.2772,
      "duration": 0.0139,
      "velocity": 95,
      "chip": "ym2612"
    },
    {
      "channel": 3,
      "note": 55,
      "start": 17.278,
      "duration": 0.0302,
      "velocity": 98,
      "chip": "ym2612"
    },
    {
      "channel": 0,
      "note": 79,
      "start": 17.3114,
      "duration": 0.0137,
      "velocity": 99,
      "chip": "ym2612"
    },
    {
      "channel": 1,
      "note": 67,
      "start": 17.312,
      "duration": 0.0134,
      "velocity": 95,
      "chip": "ym2612"
    },
    {
      "channel": 3,
      "note": 55,
      "start": 17.3454,
      "duration": 0.0299,
      "velocity": 98,
      "chip": "ym2612"
    },
    {
      "channel": 2,
      "note": 84,
      "start": 17.3779,
      "duration": 0.0129,
      "velocity": 100,
      "chip": "ym2612"
    },
    {
      "channel": 2,
      "note": 83,
      "start": 17.3937,
      "duration": 0.0144,
      "velocity": 100,
      "chip": "ym2612"
    },
    {
      "channel": 4,
      "note": 86,
      "start": 17.3999,
      "duration": 0.0171,
      "velocity": 100,
      "chip": "ym2612"
    },
    {
      "channel": 0,
      "note": 69,
      "start": 17.4105,
      "duration": 2.574,
      "velocity": 99,
      "chip": "ym2612"
    },
    {
      "channel": 1,
      "note": 62,
      "start": 17.411,
      "duration": 2.5737,
      "velocity": 95,
      "chip": "ym2612"
    },
    {
      "channel": 2,
      "note": 84,
      "start": 17.4115,
      "duration": 2.5735,
      "velocity": 100,
      "chip": "ym2612"
    },
    {
      "channel": 3,
      "note": 55,
      "start": 17.4131,
      "duration": 0.0301,
      "velocity": 98,
      "chip": "ym2612"
    },
    {
      "channel": 4,
      "note": 84,
      "start": 17.4198,
      "duration": 0.0125,
      "velocity": 100,
      "chip": "ym2612"
    },
    {
      "channel": 4,
      "note": 83,
      "start": 17.4351,
      "duration": 0.0284,
      "velocity": 100,
      "chip": "ym2612"
    },
    {
      "channel": 3,
      "note": 50,
      "start": 17.4772,
      "duration": 0.1244,
      "velocity": 98,
      "chip": "ym2612"
    },
    {
      "channel": 4,
      "note": 84,
      "start": 17.6228,
      "duration": 0.0875,
      "velocity": 100,
      "chip": "ym2612"
    },
    {
      "channel": 4,
      "note": 81,
      "start": 17.7286,
      "duration": 0.0901,
      "velocity": 100,
      "chip": "ym2612"
    },
    {
      "channel": 3,
      "note": 50,
      "start": 17.8366,
      "duration": 0.1984,
      "velocity": 98,
      "chip": "ym2612"
    },
    {
      "channel": 4,
      "note": 83,
      "start": 17.8373,
      "duration": 1.715,
      "velocity": 100,
      "chip": "ym2612"
    },
    {
      "channel": 3,
      "note": 50,
      "start": 18.27,
      "duration": 0.1985,
      "velocity": 98,
      "chip": "ym2612"
    },
    {
      "channel": 3,
      "note": 50,
      "start": 18.7036,
      "duration": 0.1982,
      "velocity": 98,
      "chip": "ym2612"
    },
    {
      "channel": 3,
      "note": 50,
      "start": 19.1368,
      "duration": 0.1984,
      "velocity": 98,
      "chip": "ym2612"
    },
    {
      "channel": 3,
      "note": 50,
      "start": 19.5702,
      "duration": 0.1983,
      "velocity": 98,
      "chip": "ym2612"
    },
    {
      "channel": 4,
      "note": 81,
      "start": 19.5709,
      "duration": 0.0896,
      "velocity": 100,
      "chip": "ym2612"
    },
    {
      "channel": 4,
      "note": 78,
      "start": 19.6788,
      "duration": 0.0901,
      "velocity": 100,
      "chip": "ym2612"
    },
    {
      "channel": 4,
      "note": 79,
      "start": 19.7873,
      "duration": 0.1985,
      "velocity": 100,
      "chip": "ym2612"
    },
    {
      "channel": 0,
      "note": 62,
      "start": 20.0027,
      "duration": 0.0613,
      "velocity": 99,
      "chip": "ym2612"
    },
    {
      "channel": 1,
      "note": 62,
      "start": 20.0032,
      "duration": 0.0611,
      "velocity": 95,
      "chip": "ym2612"
    },
    {
      "channel": 2,
      "note": 86,
      "start": 20.0038,
      "duration": 0.0608,
      "velocity": 100,
      "chip": "ym2612"
    },
    {
      "channel": 3,
      "note": 50,
      "start": 20.0044,
      "duration": 0.0293,
      "velocity": 98,
      "chip": "ym2612"
    },
    {
      "channel": 4,
      "note": 78,
      "start": 20.0051,
      "duration": 0.0602,
      "velocity": 100,
      "chip": "ym2612"
    },
    {
      "channel": 0,
      "note": 79,
      "start": 20.0686,
      "duration": 0.0616,
      "velocity": 99,
      "chip": "ym2612"
    },
    {
      "channel": 1,
      "note": 55,
      "start": 20.0693,
      "duration": 0.0612,
      "velocity": 95,
      "chip": "ym2612"
    },
    {
      "channel": 2,
      "note": 91,
      "start": 20.0698,
      "duration": 0.061,
      "velocity": 100,
      "chip": "ym2612"
    },
    {
      "channel": 3,
      "note": 50,
      "start": 20.0706,
      "duration": 0.0606,
      "velocity": 98,
      "chip": "ym2612"
    },
    {
      "channel": 4,
      "note": 78,
      "start": 20.0714,
      "duration": 0.0602,
      "velocity": 100,
      "chip": "ym2612"
    },
    {
      "channel": 3,
      "note": 55,
      "start": 20.1398,
      "duration": 0.0192,
      "velocity": 95,
      "chip": "ym2612"
    },
    {
      "channel": 4,
      "note": 83,
      "start": 20.1454,
      "duration": 0.014,
      "velocity": 127,
      "chip": "ym2612"
    },
    {
      "channel": 3,
      "note": 50,
      "start": 20.162,
      "duration": 0.0145,
      "velocity": 95,
      "chip": "ym2612"
    },
    {
      "channel": 4,
      "note": 47,
      "start": 20.1627,
      "duration": 0.0142,
      "velocity": 127,
      "chip": "ym2612"
    },
    {
      "channel": 3,
      "note": 50,
      "start": 20.1796,
      "duration": 0.0136,
      "velocity": 95,
      "chip": "ym2612"
    },
    {
      "channel": 4,
      "note": 47,
      "start": 20.1803,
      "duration": 0.0133,
      "velocity": 127,
      "chip": "ym2612"
    },
    {
      "channel": 3,
      "note": 50,
      "start": 20.1968,
      "duration": 0.0145,
      "velocity": 95,
      "chip": "ym2612"
    },
    {
      "channel": 4,
      "note": 47,
      "start": 20.1975,
      "duration": 0.0143,
      "velocity": 127,
      "chip": "ym2612"
    },
    {
      "channel": 3,
      "note": 50,
      "start": 20.2144,
      "duration": 0.0641,
      "velocity": 95,
      "chip": "ym2612"
    },
    {
      "channel": 4,
      "note": 47,
      "start": 20.2151,
      "duration": 0.2477,
      "velocity": 127,
      "chip": "ym2612"
    },
    {
      "channel": 0,
      "note": 69,
      "start": 20.4834,
      "duration": 0.0248,
      "velocity": 99,
      "chip": "ym2612"
    },
    {
      "channel": 2,
      "note": 69,
      "start": 20.4883,
      "duration": 0.0255,
      "velocity": 100,
      "chip": "ym2612"
    },
    {
      "channel": 3,
      "note": 55,
      "start": 20.4945,
      "duration": 0.0365,
      "velocity": 98,
      "chip": "ym2612"
    },
    {
      "channel": 0,
      "note": 74,
      "start": 20.5214,
      "duration": 0.0088,
      "velocity": 99,
      "chip": "ym2612"
    },
    {
      "channel": 4,
      "note": 47,
      "start": 20.523,
      "duration": 0.0083,
      "velocity": 99,
      "chip": "ym2612"
    },
    {
      "channel": 0,
      "note": 76,
      "start": 20.5435,
      "duration": 0.0079,
      "velocity": 99,
      "chip": "ym2612"
    },
    {
      "channel": 4,
      "note": 69,
      "start": 20.5449,
      "duration": 0.0076,
      "velocity": 99,
      "chip": "ym2612"
    },
    {
      "channel": 0,
      "note": 79,
      "start": 20.5658,
      "duration": 0.3157,
      "velocity": 99,
      "chip": "ym2612"
    },
    {
      "channel": 1,
      "note": 57,
      "start": 20.5663,
      "duration": 0.0094,
      "velocity": 95,
      "chip": "ym2612"
    },
    {
      "channel": 2,
      "note": 69,
      "start": 20.5668,
      "duration": 0.0145,
      "velocity": 100,
      "chip": "ym2612"
    },
    {
      "channel": 3,
      "note": 50,
      "start": 20.5675,
      "duration": 0.031,
      "velocity": 98,
      "chip": "ym2612"
    },
    {
      "channel": 4,
      "note": 74,
      "start": 20.5682,
      "duration": 0.0084,
      "velocity": 99,
      "chip": "ym2612"
    },
    {
      "channel": 1,
      "note": 62,
      "start": 20.5891,
      "duration": 0.0088,
      "velocity": 95,
      "chip": "ym2612"
    },
    {
      "channel": 4,
      "note": 76,
      "start": 20.5907,
      "duration": 0.315,
      "velocity": 99,
      "chip": "ym2612"
    },
    {
      "channel": 1,
      "note": 64,
      "start": 20.611,
      "duration": 0.0076,
      "velocity": 95,
      "chip": "ym2612"
    },
    {
      "channel": 1,
      "note": 67,
      "start": 20.6339,
      "duration": 0.2823,
      "velocity": 95,
      "chip": "ym2612"
    },
    {
      "channel": 2,
      "note": 69,
      "start": 20.8507,
      "duration": 0.0141,
      "velocity": 100,
      "chip": "ym2612"
    },
    {
      "channel": 3,
      "note": 50,
      "start": 20.8514,
      "duration": 0.031,
      "velocity": 98,
      "chip": "ym2612"
    },
    {
      "channel": 2,
      "note": 69,
      "start": 20.8858,
      "duration": 0.0141,
      "velocity": 100,
      "chip": "ym2612"
    },
    {
      "channel": 3,
      "note": 50,
      "start": 20.8864,
      "duration": 0.0303,
      "velocity": 98,
      "chip": "ym2612"
    },
    {
      "channel": 0,
      "note": 78,
      "start": 20.929,
      "duration": 0.0076,
      "velocity": 99,
      "chip": "ym2612"
    },
    {
      "channel": 0,
      "note": 76,
      "start": 20.9393,
      "duration": 0.0085,
      "velocity": 99,
      "chip": "ym2612"
    },
    {
      "channel": 0,
      "note": 78,
      "start": 20.951,
      "duration": 0.0212,
      "velocity": 99,
      "chip": "ym2612"
    },
    {
      "channel": 2,
      "note": 69,
      "start": 20.9522,
      "duration": 0.0154,
      "velocity": 100,
      "chip": "ym2612"
    },
    {
      "channel": 3,
      "note": 50,
      "start": 20.9531,
      "duration": 0.0313,
      "velocity": 98,
      "chip": "ym2612"
    },
    {
      "channel": 4,
      "note": 79,
      "start": 20.9538,
      "duration": 0.0089,
      "velocity": 99,
      "chip": "ym2612"
    },
    {
      "channel": 4,
      "note": 78,
      "start": 20.9655,
      "duration": 0.0078,
      "velocity": 99,
      "chip": "ym2612"
    },
    {
      "channel": 4,
      "note": 76,
      "start": 20.9766,
      "duration": 0.0185,
      "velocity": 99,
      "chip": "ym2612"
    },
    {
      "channel": 0,
      "note": 69,
      "start": 20.9968,
      "duration": 0.0077,
      "velocity": 99,
      "chip": "ym2612"
    },
    {
      "channel": 0,
      "note": 71,
      "start": 21.0072,
      "duration": 0.0085,
      "velocity": 99,
      "chip": "ym2612"
    },
    {
      "channel": 0,
      "note": 69,
      "start": 21.0186,
      "duration": 0.3811,
      "velocity": 99,
      "chip": "ym2612"
    },
    {
      "channel": 2,
      "note": 69,
      "start": 21.0194,
      "duration": 0.0149,
      "velocity": 100,
      "chip": "ym2612"
    },
    {
      "channel": 3,
      "note": 50,
      "start": 21.02,
      "duration": 0.0312,
      "velocity": 98,
      "chip": "ym2612"
    },
    {
      "channel": 4,
      "note": 78,
      "start": 21.0207,
      "duration": 0.0085,
      "velocity": 99,
      "chip": "ym2612"
    },
    {
      "channel": 4,
      "note": 69,
      "start": 21.0321,
      "duration": 0.0079,
      "velocity": 99,
      "chip": "ym2612"
    },
    {
      "channel": 4,
      "note": 71,
      "start": 21.0431,
      "duration": 0.358,
      "velocity": 99,
      "chip": "ym2612"
    },
    {
      "channel": 1,
      "note": 66,
      "start": 21.0864,
      "duration": 0.0539,
      "velocity": 95,
      "chip": "ym2612"
    },
    {
      "channel": 1,
      "note": 57,
      "start": 21.2308,
      "duration": 0.054,
      "velocity": 95,
      "chip": "ym2612"
    },
    {
      "channel": 2,
      "note": 69,
      "start": 21.3034,
      "duration": 0.0144,
      "velocity": 100,
      "chip": "ym2612"
    },
    {
      "channel": 3,
      "note": 50,
      "start": 21.3041,
      "duration": 0.0312,
      "velocity": 98,
      "chip": "ym2612"
    },
    {
      "channel": 1,
      "note": 59,
      "start": 21.315,
      "duration": 0.008,
      "velocity": 95,
      "chip": "ym2612"
    },
    {
      "channel": 1,
      "note": 57,
      "start": 21.3376,
      "duration": 0.0625,
      "velocity": 95,
      "chip": "ym2612"
    },
    {
      "channel": 2,
      "note": 69,
      "start": 21.3382,
      "duration": 0.0142,
      "velocity": 100,
      "chip": "ym2612"
    },
    {
      "channel": 3,
      "note": 50,
      "start": 21.3388,
      "duration": 0.03,
      "velocity": 98,
      "chip": "ym2612"
    },
    {
      "channel": 0,
      "note": 72,
      "start": 21.403,
      "duration": 0.0133,
      "velocity": 99,
      "chip": "ym2612"
    },
    {
      "channel": 1,
      "note": 54,
      "start": 21.4035,
      "duration": 0.013,
      "velocity": 95,
      "chip": "ym2612"
    },
    {
      "channel": 2,
      "note": 69,
      "start": 21.4044,
      "duration": 0.0178,
      "velocity": 100,
      "chip": "ym2612"
    },
    {
      "channel": 3,
      "note": 50,
      "start": 21.4052,
      "duration": 0.0342,
      "velocity": 98,
      "chip": "ym2612"
    },
    {
      "channel": 4,
      "note": 69,
      "start": 21.4084,
      "duration": 0.0091,
      "velocity": 99,
      "chip": "ym2612"
    },
    {
      "channel": 0,
      "note": 78,
      "start": 21.4297,
      "duration": 0.0089,
      "velocity": 99,
      "chip": "ym2612"
    },
    {
      "channel": 1,
      "note": 57,
      "start": 21.4303,
      "duration": 0.0086,
      "velocity": 95,
      "chip": "ym2612"
    },
    {
      "channel": 4,
      "note": 69,
      "start": 21.4319,
      "duration": 0.008,
      "velocity": 99,
      "chip": "ym2612"
    },
    {
      "channel": 0,
      "note": 79,
      "start": 21.4522,
      "duration": 0.0082,
      "velocity": 99,
      "chip": "ym2612"
    },
    {
      "channel": 1,
      "note": 60,
      "start": 21.4527,
      "duration": 0.008,
      "velocity": 95,
      "chip": "ym2612"
    },
    {
      "channel": 4,
      "note": 74,
      "start": 21.4539,
      "duration": 0.0076,
      "velocity": 99,
      "chip": "ym2612"
    },
    {
      "channel": 0,
      "note": 83,
      "start": 21.4744,
      "duration": 0.312,
      "velocity": 99,
      "chip": "ym2612"
    },
    {
      "channel": 1,
      "note": 64,
      "start": 21.4749,
      "duration": 0.3118,
      "velocity": 95,
      "chip": "ym2612"
    },
    {
      "channel": 2,
      "note": 69,
      "start": 21.4755,
      "duration": 0.0141,
      "velocity": 100,
      "chip": "ym2612"
    },
    {
      "channel": 3,
      "note": 50,
      "start": 21.4761,
      "duration": 0.0293,
      "velocity": 98,
      "chip": "ym2612"
    },
    {
      "channel": 4,
      "note": 76,
      "start": 21.4768,
      "duration": 0.3109,
      "velocity": 99,
      "chip": "ym2612"
    },
    {
      "channel": 2,
      "note": 69,
      "start": 21.7554,
      "duration": 0.0141,
      "velocity": 100,
      "chip": "ym2612"
    },
    {
      "channel": 3,
      "note": 50,
      "start": 21.756,
      "duration": 0.0314,
      "velocity": 98,
      "chip": "ym2612"
    },
    {
      "channel": 0,
      "note": 81,
      "start": 21.7896,
      "duration": 0.0147,
      "velocity": 99,
      "chip": "ym2612"
    },
    {
      "channel": 1,
      "note": 62,
      "start": 21.7901,
      "duration": 0.0145,
      "velocity": 95,
      "chip": "ym2612"
    },
    {
      "channel": 2,
      "note": 69,
      "start": 21.7907,
      "duration": 0.0142,
      "velocity": 100,
      "chip": "ym2612"
    },
    {
      "channel": 3,
      "note": 50,
      "start": 21.7913,
      "duration": 0.0299,
      "velocity": 98,
      "chip": "ym2612"
    },
    {
      "channel": 4,
      "note": 79,
      "start": 21.792,
      "duration": 0.0135,
      "velocity": 99,
      "chip": "ym2612"
    },
    {
      "channel": 0,
      "note": 79,
      "start": 21.8233,
      "duration": 0.0133,
      "velocity": 99,
      "chip": "ym2612"
    },
    {
      "channel": 1,
      "note": 60,
      "start": 21.8239,
      "duration": 0.013,
      "velocity": 95,
      "chip": "ym2612"
    },
    {
      "channel": 4,
      "note": 78,
      "start": 21.8251,
      "duration": 0.0126,
      "velocity": 99,
      "chip": "ym2612"
    },
    {
      "channel": 0,
      "note": 81,
      "start": 21.8568,
      "duration": 0.2678,
      "velocity": 99,
      "chip": "ym2612"
    },
    {
      "channel": 1,
      "note": 62,
      "start": 21.8574,
      "duration": 0.2675,
      "velocity": 95,
      "chip": "ym2612"
    },
    {
      "channel": 2,
      "note": 69,
      "start": 21.858,
      "duration": 0.0145,
      "velocity": 100,
      "chip": "ym2612"
    },
    {
      "channel": 3,
      "note": 50,
      "start": 21.8588,
      "duration": 0.0297,
      "velocity": 98,
      "chip": "ym2612"
    },
    {
      "channel": 4,
      "note": 76,
      "start": 21.8595,
      "duration": 0.2664,
      "velocity": 99,
      "chip": "ym2612"
    },
    {
      "channel": 2,
      "note": 69,
      "start": 21.9231,
      "duration": 0.0141,
      "velocity": 100,
      "chip": "ym2612"
    },
    {
      "channel": 3,
      "note": 50,
      "start": 21.9237,
      "duration": 0.0308,
      "velocity": 98,
      "chip": "ym2612"
    },
    {
      "channel": 2,
      "note": 69,
      "start": 21.9909,
      "duration": 0.0146,
      "velocity": 100,
      "chip": "ym2612"
    },
    {
      "channel": 3,
      "note": 50,
      "start": 21.9915,
      "duration": 0.0311,
      "velocity": 98,
      "chip": "ym2612"
    },
    {
      "channel": 2,
      "note": 69,
      "start": 22.059,
      "duration": 0.0147,
      "velocity": 100,
      "chip": "ym2612"
    },
    {
      "channel": 3,
      "note": 50,
      "start": 22.0596,
      "duration": 0.0317,
      "velocity": 98,
      "chip": "ym2612"
    },
    {
      "channel": 2,
      "note": 71,
      "start": 22.0764,
      "duration": 0.0146,
      "velocity": 100,
      "chip": "ym2612"
    },
    {
      "channel": 2,
      "note": 72,
      "start": 22.094,
      "duration": 0.0138,
      "velocity": 100,
      "chip": "ym2612"
    },
    {
      "channel": 2,
      "note": 73,
      "start": 22.1105,
      "duration": 0.0147,
      "velocity": 100,
      "chip": "ym2612"
    },
    {
      "channel": 0,
      "note": 74,
      "start": 22.1276,
      "duration": 0.0125,
      "velocity": 99,
      "chip": "ym2612"
    },
    {
      "channel": 2,
      "note": 74,
      "start": 22.1286,
      "duration": 0.0171,
      "velocity": 100,
      "chip": "ym2612"
    },
    {
      "channel": 3,
      "note": 50,
      "start": 22.1295,
      "duration": 0.0333,
      "velocity": 98,
      "chip": "ym2612"
    },
    {
      "channel": 0,
      "note": 79,
      "start": 22.1536,
      "duration": 0.0084,
      "velocity": 99,
      "chip": "ym2612"
    },
    {
      "channel": 4,
      "note": 78,
      "start": 22.1554,
      "duration": 0.0078,
      "velocity": 99,
      "chip": "ym2612"
    },
    {
      "channel": 0,
      "note": 81,
      "start": 22.1752,
      "duration": 0.008,
      "velocity": 99,
      "chip": "ym2612"
    },
    {
      "channel": 4,
      "note": 74,
      "start": 22.1766,
      "duration": 0.0077,
      "velocity": 99,
      "chip": "ym2612"
    },
    {
      "channel": 0,
      "note": 84,
      "start": 22.1979,
      "duration": 0.3151,
      "velocity": 99,
      "chip": "ym2612"
    },
    {
      "channel": 1,
      "note": 62,
      "start": 22.1984,
      "duration": 0.0094,
      "velocity": 95,
      "chip": "ym2612"
    },
    {
      "channel": 2,
      "note": 74,
      "start": 22.199,
      "duration": 0.0145,
      "velocity": 100,
      "chip": "ym2612"
    },
    {
      "channel": 3,
      "note": 55,
      "start": 22.1996,
      "duration": 0.0309,
      "velocity": 98,
      "chip": "ym2612"
    },
    {
      "channel": 4,
      "note": 79,
      "start": 22.2003,
      "duration": 0.0084,
      "velocity": 99,
      "chip": "ym2612"
    },
    {
      "channel": 1,
      "note": 67,
      "start": 22.2216,
      "duration": 0.0084,
      "velocity": 95,
      "chip": "ym2612"
    },
    {
      "channel": 4,
      "note": 81,
      "start": 22.2232,
      "duration": 0.3141,
      "velocity": 99,
      "chip": "ym2612"
    },
    {
      "channel": 1,
      "note": 69,
      "start": 22.243,
      "duration": 0.0075,
      "velocity": 95,
      "chip": "ym2612"
    },
    {
      "channel": 1,
      "note": 72,
      "start": 22.2656,
      "duration": 0.2822,
      "velocity": 95,
      "chip": "ym2612"
    },
    {
      "channel": 2,
      "note": 74,
      "start": 22.4824,
      "duration": 0.014,
      "velocity": 100,
      "chip": "ym2612"
    },
    {
      "channel": 3,
      "note": 55,
      "start": 22.4831,
      "duration": 0.0308,
      "velocity": 98,
      "chip": "ym2612"
    },
    {
      "channel": 2,
      "note": 74,
      "start": 22.5174,
      "duration": 0.0141,
      "velocity": 100,
      "chip": "ym2612"
    },
    {
      "channel": 3,
      "note": 55,
      "start": 22.518,
      "duration": 0.0303,
      "velocity": 98,
      "chip": "ym2612"
    },
    {
      "channel": 0,
      "note": 83,
      "start": 22.5605,
      "duration": 0.0076,
      "velocity": 99,
      "chip": "ym2612"
    },
    {
      "channel": 0,
      "note": 81,
      "start": 22.5712,
      "duration": 0.0082,
      "velocity": 99,
      "chip": "ym2612"
    },
    {
      "channel": 0,
      "note": 83,
      "start": 22.5841,
      "duration": 0.0209,
      "velocity": 99,
      "chip": "ym2612"
    },
    {
      "channel": 2,
      "note": 74,
      "start": 22.5851,
      "duration": 0.0152,
      "velocity": 100,
      "chip": "ym2612"
    },
    {
      "channel": 3,
      "note": 55,
      "start": 22.5859,
      "duration": 0.0313,
      "velocity": 98,
      "chip": "ym2612"
    },
    {
      "channel": 4,
      "note": 84,
      "start": 22.5866,
      "duration": 0.0089,
      "velocity": 99,
      "chip": "ym2612"
    },
    {
      "channel": 4,
      "note": 83,
      "start": 22.5983,
      "duration": 0.0078,
      "velocity": 99,
      "chip": "ym2612"
    },
    {
      "channel": 4,
      "note": 81,
      "start": 22.6099,
      "duration": 0.0178,
      "velocity": 99,
      "chip": "ym2612"
    },
    {
      "channel": 0,
      "note": 74,
      "start": 22.6294,
      "duration": 0.0077,
      "velocity": 99,
      "chip": "ym2612"
    },
    {
      "channel": 0,
      "note": 76,
      "start": 22.6402,
      "duration": 0.0082,
      "velocity": 99,
      "chip": "ym2612"
    },
    {
      "channel": 0,
      "note": 74,
      "start": 22.6515,
      "duration": 0.3813,
      "velocity": 99,
      "chip": "ym2612"
    },
    {
      "channel": 2,
      "note": 74,
      "start": 22.6522,
      "duration": 0.0147,
      "velocity": 100,
      "chip": "ym2612"
    },
    {
      "channel": 3,
      "note": 55,
      "start": 22.6529,
      "duration": 0.0311,
      "velocity": 98,
      "chip": "ym2612"
    },
    {
      "channel": 4,
      "note": 83,
      "start": 22.6536,
      "duration": 0.0085,
      "velocity": 99,
      "chip": "ym2612"
    },
    {
      "channel": 4,
      "note": 74,
      "start": 22.6649,
      "duration": 0.0079,
      "velocity": 99,
      "chip": "ym2612"
    },
    {
      "channel": 4,
      "note": 76,
      "start": 22.6765,
      "duration": 0.3577,
      "velocity": 99,
      "chip": "ym2612"
    },
    {
      "channel": 1,
      "note": 71,
      "start": 22.719,
      "duration": 0.054,
      "velocity": 95,
      "chip": "ym2612"
    },
    {
      "channel": 1,
      "note": 62,
      "start": 22.8635,
      "duration": 0.0539,
      "velocity": 95,
      "chip": "ym2612"
    },
    {
      "channel": 2,
      "note": 74,
      "start": 22.936,
      "duration": 0.0144,
      "velocity": 100,
      "chip": "ym2612"
    },
    {
      "channel": 3,
      "note": 55,
      "start": 22.9367,
      "duration": 0.0313,
      "velocity": 98,
      "chip": "ym2612"
    },
    {
      "channel": 1,
      "note": 64,
      "start": 22.9475,
      "duration": 0.008,
      "velocity": 95,
      "chip": "ym2612"
    },
    {
      "channel": 1,
      "note": 62,
      "start": 22.9704,
      "duration": 0.0627,
      "velocity": 95,
      "chip": "ym2612"
    },
    {
      "channel": 2,
      "note": 74,
      "start": 22.971,
      "duration": 0.014,
      "velocity": 100,
      "chip": "ym2612"
    },
    {
      "channel": 3,
      "note": 55,
      "start": 22.9716,
      "duration": 0.03,
      "velocity": 98,
      "chip": "ym2612"
    },
    {
      "channel": 0,
      "note": 79,
      "start": 23.0375,
      "duration": 0.0129,
      "velocity": 99,
      "chip": "ym2612"
    },
    {
      "channel": 1,
      "note": 59,
      "start": 23.038,
      "duration": 0.0126,
      "velocity": 95,
      "chip": "ym2612"
    },
    {
      "channel": 2,
      "note": 74,
      "start": 23.0387,
      "duration": 0.0177,
      "velocity": 100,
      "chip": "ym2612"
    },
    {
      "channel": 3,
      "note": 55,
      "start": 23.0395,
      "duration": 0.0344,
      "velocity": 98,
      "chip": "ym2612"
    },
    {
      "channel": 4,
      "note": 74,
      "start": 23.0426,
      "duration": 0.0089,
      "velocity": 99,
      "chip": "ym2612"
    },
    {
      "channel": 0,
      "note": 83,
      "start": 23.0644,
      "duration": 0.0086,
      "velocity": 99,
      "chip": "ym2612"
    },
    {
      "channel": 1,
      "note": 62,
      "start": 23.0653,
      "duration": 0.0079,
      "velocity": 95,
      "chip": "ym2612"
    },
    {
      "channel": 4,
      "note": 74,
      "start": 23.0665,
      "duration": 0.0077,
      "velocity": 99,
      "chip": "ym2612"
    },
    {
      "channel": 0,
      "note": 84,
      "start": 23.0864,
      "duration": 0.0082,
      "velocity": 99,
      "chip": "ym2612"
    },
    {
      "channel": 1,
      "note": 65,
      "start": 23.0869,
      "duration": 0.008,
      "velocity": 95,
      "chip": "ym2612"
    },
    {
      "channel": 4,
      "note": 79,
      "start": 23.0881,
      "duration": 0.0077,
      "velocity": 99,
      "chip": "ym2612"
    },
    {
      "channel": 0,
      "note": 88,
      "start": 23.1107,
      "duration": 0.3135,
      "velocity": 99,
      "chip": "ym2612"
    },
    {
      "channel": 1,
      "note": 69,
      "start": 23.1112,
      "duration": 0.3133,
      "velocity": 95,
      "chip": "ym2612"
    },
    {
      "channel": 2,
      "note": 74,
      "start": 23.1118,
      "duration": 0.014,
      "velocity": 100,
      "chip": "ym2612"
    },
    {
      "channel": 3,
      "note": 55,
      "start": 23.1124,
      "duration": 0.0295,
      "velocity": 98,
      "chip": "ym2612"
    },
    {
      "channel": 4,
      "note": 81,
      "start": 23.1131,
      "duration": 0.3124,
      "velocity": 99,
      "chip": "ym2612"
    },
    {
      "channel": 2,
      "note": 74,
      "start": 23.3931,
      "duration": 0.0141,
      "velocity": 100,
      "chip": "ym2612"
    },
    {
      "channel": 3,
      "note": 55,
      "start": 23.3938,
      "duration": 0.0314,
      "velocity": 98,
      "chip": "ym2612"
    },
    {
      "channel": 0,
      "note": 86,
      "start": 23.4275,
      "duration": 0.0146,
      "velocity": 99,
      "chip": "ym2612"
    },
    {
      "channel": 1,
      "note": 67,
      "start": 23.428,
      "duration": 0.0144,
      "velocity": 95,
      "chip": "ym2612"
    },
    {
      "channel": 2,
      "note": 74,
      "start": 23.4286,
      "duration": 0.0141,
      "velocity": 100,
      "chip": "ym2612"
    },
    {
      "channel": 3,
      "note": 55,
      "start": 23.4293,
      "duration": 0.0302,
      "velocity": 98,
      "chip": "ym2612"
    },
    {
      "channel": 4,
      "note": 84,
      "start": 23.43,
      "duration": 0.0134,
      "velocity": 99,
      "chip": "ym2612"
    },
    {
      "channel": 0,
      "note": 84,
      "start": 23.4616,
      "duration": 0.0133,
      "velocity": 99,
      "chip": "ym2612"
    },
    {
      "channel": 1,
      "note": 65,
      "start": 23.4621,
      "duration": 0.0131,
      "velocity": 95,
      "chip": "ym2612"
    },
    {
      "channel": 4,
      "note": 83,
      "start": 23.4634,
      "duration": 0.0126,
      "velocity": 99,
      "chip": "ym2612"
    },
    {
      "channel": 0,
      "note": 86,
      "start": 23.4947,
      "duration": 0.2717,
      "velocity": 99,
      "chip": "ym2612"
    },
    {
      "channel": 1,
      "note": 67,
      "start": 23.4952,
      "duration": 0.2716,
      "velocity": 95,
      "chip": "ym2612"
    },
    {
      "channel": 2,
      "note": 74,
      "start": 23.4959,
      "duration": 0.0146,
      "velocity": 100,
      "chip": "ym2612"
    },
    {
      "channel": 3,
      "note": 55,
      "start": 23.4967,
      "duration": 0.0301,
      "velocity": 98,
      "chip": "ym2612"
    },
    {
      "channel": 4,
      "note": 81,
      "start": 23.4974,
      "duration": 0.1272,
      "velocity": 99,
      "chip": "ym2612"
    },
    {
      "channel": 2,
      "note": 74,
      "start": 23.5604,
      "duration": 0.0142,
      "velocity": 100,
      "chip": "ym2612"
    },
    {
      "channel": 3,
      "note": 55,
      "start": 23.561,
      "duration": 0.0308,
      "velocity": 98,
      "chip": "ym2612"
    },
    {
      "channel": 2,
      "note": 74,
      "start": 23.6279,
      "duration": 0.0145,
      "velocity": 100,
      "chip": "ym2612"
    },
    {
      "channel": 3,
      "note": 55,
      "start": 23.6286,
      "duration": 0.0363,
      "velocity": 98,
      "chip": "ym2612"
    },
    {
      "channel": 2,
      "note": 79,
      "start": 23.6452,
      "duration": 0.0194,
      "velocity": 100,
      "chip": "ym2612"
    },
    {
      "channel": 4,
      "note": 83,
      "start": 23.6573,
      "duration": 0.0135,
      "velocity": 100,
      "chip": "ym2612"
    },
    {
      "channel": 2,
      "note": 81,
      "start": 23.6674,
      "duration": 0.0137,
      "velocity": 100,
      "chip": "ym2612"
    },
    {
      "channel": 4,
      "note": 74,
      "start": 23.6737,
      "duration": 0.0135,
      "velocity": 100,
      "chip": "ym2612"
    },
    {
      "channel": 2,
      "note": 83,
      "start": 23.6839,
      "duration": 0.0145,
      "velocity": 100,
      "chip": "ym2612"
    },
    {
      "channel": 4,
      "note": 79,
      "start": 23.6909,
      "duration": 0.0148,
      "velocity": 100,
      "chip": "ym2612"
    },
    {
      "channel": 2,
      "note": 84,
      "start": 23.7013,
      "duration": 0.0147,
      "velocity": 100,
      "chip": "ym2612"
    },
    {
      "channel": 3,
      "note": 55,
      "start": 23.7019,
      "duration": 0.0316,
      "velocity": 98,
      "chip": "ym2612"
    },
    {
      "channel": 4,
      "note": 81,
      "start": 23.7086,
      "duration": 0.0135,
      "velocity": 100,
      "chip": "ym2612"
    },
    {
      "channel": 2,
      "note": 86,
      "start": 23.7188,
      "duration": 0.0144,
      "velocity": 100,
      "chip": "ym2612"
    },
    {
      "channel": 4,
      "note": 83,
      "start": 23.7259,
      "duration": 0.0136,
      "velocity": 100,
      "chip": "ym2612"
    },
    {
      "channel": 2,
      "note": 88,
      "start": 23.7361,
      "duration": 0.0137,
      "velocity": 100,
      "chip": "ym2612"
    },
    {
      "channel": 4,
      "note": 84,
      "start": 23.7424,
      "duration": 0.0134,
      "velocity": 100,
      "chip": "ym2612"
    },
    {
      "channel": 2,
      "note": 90,
      "start": 23.7524,
      "duration": 0.0146,
      "velocity": 100,
      "chip": "ym2612"
    },
    {
      "channel": 4,
      "note": 86,
      "start": 23.7595,
      "duration": 0.0203,
      "velocity": 100,
      "chip": "ym2612"
    },
    {
      "channel": 0,
      "note": 88,
      "start": 23.7741,
      "duration": 0.1636,
      "velocity": 100,
      "chip": "ym2612"
    },
    {
      "channel": 2,
      "note": 91,
      "start": 23.775,
      "duration": 0.1633,
      "velocity": 100,
      "chip": "ym2612"
    },
    {
      "channel": 3,
      "note": 55,
      "start": 23.7759,
      "duration": 0.0341,
      "velocity": 98,
      "chip": "ym2612"
    },
    {
      "channel": 4,
      "note": 88,
      "start": 23.7826,
      "duration": 0.0128,
      "velocity": 100,
      "chip": "ym2612"
    },
    {
      "channel": 1,
      "note": 88,
      "start": 23.8016,
      "duration": 0.2809,
      "velocity": 100,
      "chip": "ym2612"
    },
    {
      "channel": 4,
      "note": 90,
      "start": 23.8027,
      "duration": 0.2806,
      "velocity": 100,
      "chip": "ym2612"
    },
    {
      "channel": 3,
      "note": 48,
      "start": 23.8439,
      "duration": 0.0948,
      "velocity": 98,
      "chip": "ym2612"
    },
    {
      "channel": 0,
      "note": 86,
      "start": 23.956,
      "duration": 0.0901,
      "velocity": 100,
      "chip": "ym2612"
    },
    {
      "channel": 2,
      "note": 90,
      "start": 23.9568,
      "duration": 0.0899,
      "velocity": 100,
      "chip": "ym2612"
    },
    {
      "channel": 1,
      "note": 86,
      "start": 24.1012,
      "duration": 0.0896,
      "velocity": 100,
      "chip": "ym2612"
    },
    {
      "channel": 4,
      "note": 91,
      "start": 24.1023,
      "duration": 0.0893,
      "velocity": 100,
      "chip": "ym2612"
    },
    {
      "channel": 0,
      "note": 84,
      "start": 24.1727,
      "duration": 0.4151,
      "velocity": 100,
      "chip": "ym2612"
    },
    {
      "channel": 2,
      "note": 88,
      "start": 24.1735,
      "duration": 0.4149,
      "velocity": 100,
      "chip": "ym2612"
    },
    {
      "channel": 3,
      "note": 48,
      "start": 24.1741,
      "duration": 0.1977,
      "velocity": 98,
      "chip": "ym2612"
    },
    {
      "channel": 1,
      "note": 84,
      "start": 24.3178,
      "duration": 0.4147,
      "velocity": 100,
      "chip": "ym2612"
    },
    {
      "channel": 4,
      "note": 90,
      "start": 24.319,
      "duration": 0.4144,
      "velocity": 100,
      "chip": "ym2612"
    },
    {
      "channel": 0,
      "note": 86,
      "start": 24.6061,
      "duration": 0.1984,
      "velocity": 100,
      "chip": "ym2612"
    },
    {
      "channel": 2,
      "note": 90,
      "start": 24.6069,
      "duration": 0.1981,
      "velocity": 100,
      "chip": "ym2612"
    },
    {
      "channel": 3,
      "note": 48,
      "start": 24.6075,
      "duration": 0.1978,
      "velocity": 98,
      "chip": "ym2612"
    },
    {
      "channel": 1,
      "note": 86,
      "start": 24.7512,
      "duration": 0.198,
      "velocity": 100,
      "chip": "ym2612"
    },
    {
      "channel": 4,
      "note": 88,
      "start": 24.7524,
      "duration": 0.1977,
      "velocity": 100,
      "chip": "ym2612"
    },
    {
      "channel": 0,
      "note": 84,
      "start": 24.8228,
      "duration": 0.0901,
      "velocity": 100,
      "chip": "ym2612"
    },
    {
      "channel": 2,
      "note": 88,
      "start": 24.8236,
      "duration": 0.0898,
      "velocity": 100,
      "chip": "ym2612"
    },
    {
      "channel": 1,
      "note": 84,
      "start": 24.9679,
      "duration": 0.0896,
      "velocity": 100,
      "chip": "ym2612"
    },
    {
      "channel": 4,
      "note": 90,
      "start": 24.969,
      "duration": 0.0893,
      "velocity": 100,
      "chip": "ym2612"
    },
    {
      "channel": 0,
      "note": 84,
      "start": 25.0395,
      "duration": 0.1984,
      "velocity": 100,
      "chip": "ym2612"
    },
    {
      "channel": 2,
      "note": 88,
      "start": 25.0402,
      "duration": 0.1981,
      "velocity": 100,
      "chip": "ym2612"
    },
    {
      "channel": 3,
      "note": 48,
      "start": 25.0409,
      "duration": 0.1978,
      "velocity": 98,
      "chip": "ym2612"
    },
    {
      "channel": 1,
      "note": 84,
      "start": 25.1846,
      "duration": 0.198,
      "velocity": 100,
      "chip": "ym2612"
    },
    {
      "channel": 4,
      "note": 88,
      "start": 25.1858,
      "duration": 0.1976,
      "velocity": 100,
      "chip": "ym2612"
    },
    {
      "channel": 0,
      "note": 83,
      "start": 25.2562,
      "duration": 0.0901,
      "velocity": 100,
      "chip": "ym2612"
    },
    {
      "channel": 2,
      "note": 86,
      "start": 25.2569,
      "duration": 0.0898,
      "velocity": 100,
      "chip": "ym2612"
    },
    {
      "channel": 1,
      "note": 83,
      "start": 25.4013,
      "duration": 0.0896,
      "velocity": 100,
      "chip": "ym2612"
    },
    {
      "channel": 4,
      "note": 88,
      "start": 25.4024,
      "duration": 0.0893,
      "velocity": 100,
      "chip": "ym2612"
    },
    {
      "channel": 0,
      "note": 83,
      "start": 25.4729,
      "duration": 0.1984,
      "velocity": 100,
      "chip": "ym2612"
    },
    {
      "channel": 2,
      "note": 86,
      "start": 25.4736,
      "duration": 0.531,
      "velocity": 100,
      "chip": "ym2612"
    },
    {
      "channel": 3,
      "note": 55,
      "start": 25.4743,
      "duration": 0.1978,
      "velocity": 98,
      "chip": "ym2612"
    },
    {
      "channel": 1,
      "note": 83,
      "start": 25.618,
      "duration": 0.0536,
      "velocity": 100,
      "chip": "ym2612"
    },
    {
      "channel": 4,
      "note": 86,
      "start": 25.6192,
      "duration": 0.4076,
      "velocity": 100,
      "chip": "ym2612"
    },
    {
      "channel": 0,
      "note": 79,
      "start": 25.6928,
      "duration": 0.0506,
      "velocity": 99,
      "chip": "ym2612"
    },
    {
      "channel": 1,
      "note": 67,
      "start": 25.6968,
      "duration": 0.0469,
      "velocity": 95,
      "chip": "ym2612"
    },
    {
      "channel": 0,
      "note": 79,
      "start": 25.7618,
      "duration": 0.0539,
      "velocity": 99,
      "chip": "ym2612"
    },
    {
      "channel": 1,
      "note": 67,
      "start": 25.7623,
      "duration": 0.0537,
      "velocity": 95,
      "chip": "ym2612"
    },
    {
      "channel": 0,
      "note": 79,
      "start": 25.8344,
      "duration": 0.0535,
      "velocity": 99,
      "chip": "ym2612"
    },
    {
      "channel": 1,
      "note": 67,
      "start": 25.8349,
      "duration": 0.0532,
      "velocity": 95,
      "chip": "ym2612"
    },
    {
      "channel": 0,
      "note": 79,
      "start": 25.9063,
      "duration": 0.0142,
      "velocity": 99,
      "chip": "ym2612"
    },
    {
      "channel": 1,
      "note": 67,
      "start": 25.9068,
      "duration": 0.014,
      "velocity": 95,
      "chip": "ym2612"
    },
    {
      "channel": 3,
      "note": 55,
      "start": 25.9076,
      "duration": 0.0305,
      "velocity": 98,
      "chip": "ym2612"
    },
    {
      "channel": 0,
      "note": 79,
      "start": 25.9414,
      "duration": 0.0136,
      "velocity": 99,
      "chip": "ym2612"
    },
    {
      "channel": 1,
      "note": 67,
      "start": 25.9419,
      "duration": 0.0134,
      "velocity": 95,
      "chip": "ym2612"
    },
    {
      "channel": 3,
      "note": 55,
      "start": 25.9753,
      "duration": 0.0297,
      "velocity": 98,
      "chip": "ym2612"
    },
    {
      "channel": 2,
      "note": 84,
      "start": 26.0075,
      "duration": 0.0129,
      "velocity": 100,
      "chip": "ym2612"
    },
    {
      "channel": 2,
      "note": 83,
      "start": 26.0233,
      "duration": 0.0143,
      "velocity": 100,
      "chip": "ym2612"
    },
    {
      "channel": 4,
      "note": 86,
      "start": 26.0303,
      "duration": 0.0181,
      "velocity": 100,
      "chip": "ym2612"
    },
    {
      "channel": 0,
      "note": 88,
      "start": 26.0433,
      "duration": 0.5786,
      "velocity": 100,
      "chip": "ym2612"
    },
    {
      "channel": 2,
      "note": 91,
      "start": 26.0442,
      "duration": 0.5783,
      "velocity": 100,
      "chip": "ym2612"
    },
    {
      "channel": 3,
      "note": 55,
      "start": 26.0449,
      "duration": 0.1443,
      "velocity": 98,
      "chip": "ym2612"
    },
    {
      "channel": 4,
      "note": 84,
      "start": 26.0512,
      "duration": 0.0662,
      "velocity": 100,
      "chip": "ym2612"
    },
    {
      "channel": 1,
      "note": 88,
      "start": 26.1386,
      "duration": 0.628,
      "velocity": 100,
      "chip": "ym2612"
    },
    {
      "channel": 4,
      "note": 83,
      "start": 26.1398,
      "duration": 0.6277,
      "velocity": 100,
      "chip": "ym2612"
    },
    {
      "channel": 3,
      "note": 57,
      "start": 26.4243,
      "duration": 0.1985,
      "velocity": 98,
      "chip": "ym2612"
    },
    {
      "channel": 0,
      "note": 86,
      "start": 26.6402,
      "duration": 0.0901,
      "velocity": 100,
      "chip": "ym2612"
    },
    {
      "channel": 2,
      "note": 90,
      "start": 26.6409,
      "duration": 0.0899,
      "velocity": 100,
      "chip": "ym2612"
    },
    {
      "channel": 1,
      "note": 86,
      "start": 26.7853,
      "duration": 0.0896,
      "velocity": 100,
      "chip": "ym2612"
    },
    {
      "channel": 4,
      "note": 91,
      "start": 26.7864,
      "duration": 0.0893,
      "velocity": 100,
      "chip": "ym2612"
    },
    {
      "channel": 0,
      "note": 84,
      "start": 26.8568,
      "duration": 0.4151,
      "velocity": 100,
      "chip": "ym2612"
    },
    {
      "channel": 2,
      "note": 88,
      "start": 26.8576,
      "duration": 0.4149,
      "velocity": 100,
      "chip": "ym2612"
    },
    {
      "channel": 3,
      "note": 57,
      "start": 26.8582,
      "duration": 0.1978,
      "velocity": 98,
      "chip": "ym2612"
    },
    {
      "channel": 1,
      "note": 84,
      "start": 27.0019,
      "duration": 0.4147,
      "velocity": 100,
      "chip": "ym2612"
    },
    {
      "channel": 4,
      "note": 90,
      "start": 27.0031,
      "duration": 0.4144,
      "velocity": 100,
      "chip": "ym2612"
    },
    {
      "channel": 0,
      "note": 86,
      "start": 27.2902,
      "duration": 0.1985,
      "velocity": 100,
      "chip": "ym2612"
    },
    {
      "channel": 2,
      "note": 90,
      "start": 27.2909,
      "duration": 0.1982,
      "velocity": 100,
      "chip": "ym2612"
    },
    {
      "channel": 3,
      "note": 57,
      "start": 27.2916,
      "duration": 0.1979,
      "velocity": 98,
      "chip": "ym2612"
    },
    {
      "channel": 1,
      "note": 86,
      "start": 27.4353,
      "duration": 0.198,
      "velocity": 100,
      "chip": "ym2612"
    },
    {
      "channel": 4,
      "note": 88,
      "start": 27.4365,
      "duration": 0.1977,
      "velocity": 100,
      "chip": "ym2612"
    },
    {
      "channel": 0,
      "note": 84,
      "start": 27.5069,
      "duration": 0.0901,
      "velocity": 100,
      "chip": "ym2612"
    },
    {
      "channel": 2,
      "note": 88,
      "start": 27.5077,
      "duration": 0.0899,
      "velocity": 100,
      "chip": "ym2612"
    },
    {
      "channel": 1,
      "note": 84,
      "start": 27.652,
      "duration": 0.0897,
      "velocity": 100,
      "chip": "ym2612"
    },
    {
      "channel": 4,
      "note": 90,
      "start": 27.6531,
      "duration": 0.0894,
      "velocity": 100,
      "chip": "ym2612"
    },
    {
      "channel": 0,
      "note": 83,
      "start": 27.7236,
      "duration": 0.1985,
      "velocity": 100,
      "chip": "ym2612"
    },
    {
      "channel": 2,
      "note": 86,
      "start": 27.7243,
      "duration": 0.8483,
      "velocity": 100,
      "chip": "ym2612"
    },
    {
      "channel": 3,
      "note": 57,
      "start": 27.725,
      "duration": 0.1978,
      "velocity": 98,
      "chip": "ym2612"
    },
    {
      "channel": 1,
      "note": 83,
      "start": 27.8687,
      "duration": 0.0536,
      "velocity": 100,
      "chip": "ym2612"
    },
    {
      "channel": 4,
      "note": 88,
      "start": 27.8699,
      "duration": 0.8479,
      "velocity": 100,
      "chip": "ym2612"
    },
    {
      "channel": 0,
      "note": 71,
      "start": 27.9436,
      "duration": 0.0506,
      "velocity": 99,
      "chip": "ym2612"
    },
    {
      "channel": 1,
      "note": 67,
      "start": 27.9476,
      "duration": 0.0469,
      "velocity": 95,
      "chip": "ym2612"
    },
    {
      "channel": 0,
      "note": 71,
      "start": 28.0125,
      "duration": 0.054,
      "velocity": 99,
      "chip": "ym2612"
    },
    {
      "channel": 1,
      "note": 67,
      "start": 28.013,
      "duration": 0.0538,
      "velocity": 95,
      "chip": "ym2612"
    },
    {
      "channel": 0,
      "note": 71,
      "start": 28.0851,
      "duration": 0.0536,
      "velocity": 99,
      "chip": "ym2612"
    },
    {
      "channel": 1,
      "note": 67,
      "start": 28.0856,
      "duration": 0.0533,
      "velocity": 95,
      "chip": "ym2612"
    },
    {
      "channel": 0,
      "note": 71,
      "start": 28.157,
      "duration": 0.0901,
      "velocity": 99,
      "chip": "ym2612"
    },
    {
      "channel": 1,
      "note": 67,
      "start": 28.1575,
      "duration": 0.0898,
      "velocity": 95,
      "chip": "ym2612"
    },
    {
      "channel": 3,
      "note": 55,
      "start": 28.1584,
      "duration": 0.1979,
      "velocity": 98,
      "chip": "ym2612"
    },
    {
      "channel": 0,
      "note": 71,
      "start": 28.3736,
      "duration": 0.0901,
      "velocity": 99,
      "chip": "ym2612"
    },
    {
      "channel": 1,
      "note": 67,
      "start": 28.3742,
      "duration": 0.0898,
      "velocity": 95,
      "chip": "ym2612"
    },
    {
      "channel": 0,
      "note": 71,
      "start": 28.5904,
      "duration": 0.318,
      "velocity": 99,
      "chip": "ym2612"
    },
    {
      "channel": 1,
      "note": 67,
      "start": 28.5909,
      "duration": 0.3178,
      "velocity": 95,
      "chip": "ym2612"
    },
    {
      "channel": 3,
      "note": 55,
      "start": 28.5919,
      "duration": 0.1976,
      "velocity": 98,
      "chip": "ym2612"
    },
    {
      "channel": 2,
      "note": 79,
      "start": 28.6991,
      "duration": 0.0901,
      "velocity": 100,
      "chip": "ym2612"
    },
    {
      "channel": 2,
      "note": 81,
      "start": 28.8075,
      "duration": 0.0134,
      "velocity": 100,
      "chip": "ym2612"
    },
    {
      "channel": 4,
      "note": 86,
      "start": 28.8139,
      "duration": 0.0135,
      "velocity": 100,
      "chip": "ym2612"
    },
    {
      "channel": 2,
      "note": 83,
      "start": 28.8236,
      "duration": 0.0139,
      "velocity": 100,
      "chip": "ym2612"
    },
    {
      "channel": 4,
      "note": 79,
      "start": 28.8305,
      "duration": 0.0162,
      "velocity": 100,
      "chip": "ym2612"
    },
    {
      "channel": 2,
      "note": 84,
      "start": 28.8423,
      "duration": 0.0146,
      "velocity": 100,
      "chip": "ym2612"
    },
    {
      "channel": 3,
      "note": 55,
      "start": 28.8429,
      "duration": 0.032,
      "velocity": 98,
      "chip": "ym2612"
    },
    {
      "channel": 4,
      "note": 81,
      "start": 28.8495,
      "duration": 0.0144,
      "velocity": 100,
      "chip": "ym2612"
    },
    {
      "channel": 2,
      "note": 86,
      "start": 28.8596,
      "duration": 0.015,
      "velocity": 100,
      "chip": "ym2612"
    },
    {
      "channel": 4,
      "note": 83,
      "start": 28.8673,
      "duration": 0.014,
      "velocity": 100,
      "chip": "ym2612"
    },
    {
      "channel": 2,
      "note": 88,
      "start": 28.8776,
      "duration": 0.0138,
      "velocity": 100,
      "chip": "ym2612"
    },
    {
      "channel": 4,
      "note": 84,
      "start": 28.8841,
      "duration": 0.0143,
      "velocity": 100,
      "chip": "ym2612"
    },
    {
      "channel": 2,
      "note": 90,
      "start": 28.8942,
      "duration": 0.0149,
      "velocity": 100,
      "chip": "ym2612"
    },
    {
      "channel": 4,
      "note": 86,
      "start": 28.9016,
      "duration": 0.0195,
      "velocity": 100,
      "chip": "ym2612"
    },
    {
      "channel": 0,
      "note": 88,
      "start": 28.9155,
      "duration": 0.1646,
      "velocity": 100,
      "chip": "ym2612"
    },
    {
      "channel": 2,
      "note": 91,
      "start": 28.9164,
      "duration": 0.1643,
      "velocity": 100,
      "chip": "ym2612"
    },
    {
      "channel": 3,
      "note": 55,
      "start": 28.9173,
      "duration": 0.0344,
      "velocity": 98,
      "chip": "ym2612"
    },
    {
      "channel": 4,
      "note": 88,
      "start": 28.9239,
      "duration": 0.0137,
      "velocity": 100,
      "chip": "ym2612"
    },
    {
      "channel": 1,
      "note": 88,
      "start": 28.9433,
      "duration": 0.2815,
      "velocity": 100,
      "chip": "ym2612"
    },
    {
      "channel": 4,
      "note": 90,
      "start": 28.9444,
      "duration": 0.2817,
      "velocity": 100,
      "chip": "ym2612"
    },
    {
      "channel": 3,
      "note": 48,
      "start": 28.9856,
      "duration": 0.0955,
      "velocity": 98,
      "chip": "ym2612"
    },
    {
      "channel": 0,
      "note": 86,
      "start": 29.0983,
      "duration": 0.0901,
      "velocity": 100,
      "chip": "ym2612"
    },
    {
      "channel": 2,
      "note": 90,
      "start": 29.0991,
      "duration": 0.0899,
      "velocity": 100,
      "chip": "ym2612"
    },
    {
      "channel": 1,
      "note": 86,
      "start": 29.2433,
      "duration": 0.0899,
      "velocity": 100,
      "chip": "ym2612"
    },
    {
      "channel": 4,
      "note": 91,
      "start": 29.2444,
      "duration": 0.0896,
      "velocity": 100,
      "chip": "ym2612"
    },
    {
      "channel": 0,
      "note": 84,
      "start": 29.315,
      "duration": 0.4151,
      "velocity": 100,
      "chip": "ym2612"
    },
    {
      "channel": 2,
      "note": 88,
      "start": 29.3158,
      "duration": 0.4149,
      "velocity": 100,
      "chip": "ym2612"
    },
    {
      "channel": 3,
      "note": 48,
      "start": 29.3164,
      "duration": 0.1978,
      "velocity": 98,
      "chip": "ym2612"
    },
    {
      "channel": 1,
      "note": 84,
      "start": 29.4599,
      "duration": 0.4149,
      "velocity": 100,
      "chip": "ym2612"
    },
    {
      "channel": 4,
      "note": 90,
      "start": 29.4611,
      "duration": 0.415,
      "velocity": 100,
      "chip": "ym2612"
    },
    {
      "channel": 0,
      "note": 86,
      "start": 29.7484,
      "duration": 0.1984,
      "velocity": 100,
      "chip": "ym2612"
    },
    {
      "channel": 2,
      "note": 90,
      "start": 29.7492,
      "duration": 0.1981,
      "velocity": 100,
      "chip": "ym2612"
    },
    {
      "channel": 3,
      "note": 48,
      "start": 29.7498,
      "duration": 0.1978,
      "velocity": 98,
      "chip": "ym2612"
    },
    {
      "channel": 1,
      "note": 86,
      "start": 29.8933,
      "duration": 0.1982,
      "velocity": 100,
      "chip": "ym2612"
    },
    {
      "channel": 4,
      "note": 88,
      "start": 29.8945,
      "duration": 0.1983,
      "velocity": 100,
      "chip": "ym2612"
    },
    {
      "channel": 0,
      "note": 84,
      "start": 29.9651,
      "duration": 0.0901,
      "velocity": 100,
      "chip": "ym2612"
    },
    {
      "channel": 2,
      "note": 88,
      "start": 29.9659,
      "duration": 0.0898,
      "velocity": 100,
      "chip": "ym2612"
    },
    {
      "channel": 1,
      "note": 84,
      "start": 30.11,
      "duration": 0.0899,
      "velocity": 100,
      "chip": "ym2612"
    },
    {
      "channel": 4,
      "note": 90,
      "start": 30.1111,
      "duration": 0.0896,
      "velocity": 100,
      "chip": "ym2612"
    },
    {
      "channel": 0,
      "note": 84,
      "start": 30.1818,
      "duration": 0.1984,
      "velocity": 100,
      "chip": "ym2612"
    },
    {
      "channel": 2,
      "note": 88,
      "start": 30.1826,
      "duration": 0.1981,
      "velocity": 100,
      "chip": "ym2612"
    },
    {
      "channel": 3,
      "note": 48,
      "start": 30.1832,
      "duration": 0.1978,
      "velocity": 98,
      "chip": "ym2612"
    },
    {
      "channel": 1,
      "note": 84,
      "start": 30.3267,
      "duration": 0.1983,
      "velocity": 100,
      "chip": "ym2612"
    },
    {
      "channel": 4,
      "note": 88,
      "start": 30.3278,
      "duration": 0.1984,
      "velocity": 100,
      "chip": "ym2612"
    },
    {
      "channel": 0,
      "note": 83,
      "start": 30.3985,
      "duration": 0.0901,
      "velocity": 100,
      "chip": "ym2612"
    },
    {
      "channel": 2,
      "note": 86,
      "start": 30.3993,
      "duration": 0.0898,
      "velocity": 100,
      "chip": "ym2612"
    },
    {
      "channel": 1,
      "note": 83,
      "start": 30.5433,
      "duration": 0.0899,
      "velocity": 100,
      "chip": "ym2612"
    },
    {
      "channel": 4,
      "note": 88,
      "start": 30.5445,
      "duration": 0.0896,
      "velocity": 100,
      "chip": "ym2612"
    },
    {
      "channel": 0,
      "note": 83,
      "start": 30.6151,
      "duration": 0.1984,
      "velocity": 100,
      "chip": "ym2612"
    },
    {
      "channel": 2,
      "note": 86,
      "start": 30.6159,
      "duration": 0.5312,
      "velocity": 100,
      "chip": "ym2612"
    },
    {
      "channel": 3,
      "note": 55,
      "start": 30.6166,
      "duration": 0.1978,
      "velocity": 98,
      "chip": "ym2612"
    },
    {
      "channel": 1,
      "note": 83,
      "start": 30.76,
      "duration": 0.0538,
      "velocity": 100,
      "chip": "ym2612"
    },
    {
      "channel": 4,
      "note": 86,
      "start": 30.7611,
      "duration": 0.4088,
      "velocity": 100,
      "chip": "ym2612"
    },
    {
      "channel": 0,
      "note": 79,
      "start": 30.8352,
      "duration": 0.0506,
      "velocity": 99,
      "chip": "ym2612"
    },
    {
      "channel": 1,
      "note": 67,
      "start": 30.8391,
      "duration": 0.047,
      "velocity": 95,
      "chip": "ym2612"
    },
    {
      "channel": 0,
      "note": 79,
      "start": 30.9041,
      "duration": 0.0539,
      "velocity": 99,
      "chip": "ym2612"
    },
    {
      "channel": 1,
      "note": 67,
      "start": 30.9046,
      "duration": 0.0538,
      "velocity": 95,
      "chip": "ym2612"
    },
    {
      "channel": 0,
      "note": 79,
      "start": 30.9764,
      "duration": 0.0539,
      "velocity": 99,
      "chip": "ym2612"
    },
    {
      "channel": 1,
      "note": 67,
      "start": 30.9769,
      "duration": 0.0536,
      "velocity": 95,
      "chip": "ym2612"
    },
    {
      "channel": 0,
      "note": 79,
      "start": 31.0485,
      "duration": 0.0142,
      "velocity": 99,
      "chip": "ym2612"
    },
    {
      "channel": 1,
      "note": 67,
      "start": 31.049,
      "duration": 0.0139,
      "velocity": 95,
      "chip": "ym2612"
    },
    {
      "channel": 3,
      "note": 55,
      "start": 31.0499,
      "duration": 0.0303,
      "velocity": 98,
      "chip": "ym2612"
    },
    {
      "channel": 0,
      "note": 79,
      "start": 31.0834,
      "duration": 0.0137,
      "velocity": 99,
      "chip": "ym2612"
    },
    {
      "channel": 1,
      "note": 67,
      "start": 31.084,
      "duration": 0.0134,
      "velocity": 95,
      "chip": "ym2612"
    },
    {
      "channel": 3,
      "note": 55,
      "start": 31.1174,
      "duration": 0.03,
      "velocity": 98,
      "chip": "ym2612"
    },
    {
      "channel": 2,
      "note": 84,
      "start": 31.1499,
      "duration": 0.0129,
      "velocity": 100,
      "chip": "ym2612"
    },
    {
      "channel": 2,
      "note": 83,
      "start": 31.1657,
      "duration": 0.0145,
      "velocity": 100,
      "chip": "ym2612"
    },
    {
      "channel": 4,
      "note": 86,
      "start": 31.1728,
      "duration": 0.0161,
      "velocity": 100,
      "chip": "ym2612"
    },
    {
      "channel": 0,
      "note": 69,
      "start": 31.1826,
      "duration": 2.5744,
      "velocity": 99,
      "chip": "ym2612"
    },
    {
      "channel": 1,
      "note": 62,
      "start": 31.1831,
      "duration": 2.5742,
      "velocity": 95,
      "chip": "ym2612"
    },
    {
      "channel": 2,
      "note": 84,
      "start": 31.1837,
      "duration": 2.5739,
      "velocity": 100,
      "chip": "ym2612"
    },
    {
      "channel": 3,
      "note": 55,
      "start": 31.1851,
      "duration": 0.0304,
      "velocity": 98,
      "chip": "ym2612"
    },
    {
      "channel": 4,
      "note": 84,
      "start": 31.1917,
      "duration": 0.0136,
      "velocity": 100,
      "chip": "ym2612"
    },
    {
      "channel": 4,
      "note": 83,
      "start": 31.2082,
      "duration": 0.0287,
      "velocity": 100,
      "chip": "ym2612"
    },
    {
      "channel": 3,
      "note": 50,
      "start": 31.2497,
      "duration": 0.1245,
      "velocity": 98,
      "chip": "ym2612"
    },
    {
      "channel": 4,
      "note": 84,
      "start": 31.3954,
      "duration": 0.0875,
      "velocity": 100,
      "chip": "ym2612"
    },
    {
      "channel": 4,
      "note": 81,
      "start": 31.5012,
      "duration": 0.0901,
      "velocity": 100,
      "chip": "ym2612"
    },
    {
      "channel": 3,
      "note": 50,
      "start": 31.6092,
      "duration": 0.1984,
      "velocity": 98,
      "chip": "ym2612"
    },
    {
      "channel": 4,
      "note": 83,
      "start": 31.6099,
      "duration": 1.7151,
      "velocity": 100,
      "chip": "ym2612"
    },
    {
      "channel": 3,
      "note": 50,
      "start": 32.0426,
      "duration": 0.1985,
      "velocity": 98,
      "chip": "ym2612"
    },
    {
      "channel": 3,
      "note": 50,
      "start": 32.4761,
      "duration": 0.1982,
      "velocity": 98,
      "chip": "ym2612"
    },
    {
      "channel": 3,
      "note": 50,
      "start": 32.9093,
      "duration": 0.1984,
      "velocity": 98,
      "chip": "ym2612"
    },
    {
      "channel": 3,
      "note": 50,
      "start": 33.3427,
      "duration": 0.1984,
      "velocity": 98,
      "chip": "ym2612"
    },
    {
      "channel": 4,
      "note": 81,
      "start": 33.3434,
      "duration": 0.0897,
      "velocity": 100,
      "chip": "ym2612"
    },
    {
      "channel": 4,
      "note": 78,
      "start": 33.4514,
      "duration": 0.0902,
      "velocity": 100,
      "chip": "ym2612"
    },
    {
      "channel": 4,
      "note": 79,
      "start": 33.5599,
      "duration": 0.1985,
      "velocity": 100,
      "chip": "ym2612"
    },
    {
      "channel": 0,
      "note": 62,
      "start": 33.7752,
      "duration": 0.0612,
      "velocity": 99,
      "chip": "ym2612"
    },
    {
      "channel": 1,
      "note": 62,
      "start": 33.7758,
      "duration": 0.061,
      "velocity": 95,
      "chip": "ym2612"
    },
    {
      "channel": 2,
      "note": 86,
      "start": 33.7763,
      "duration": 0.0608,
      "velocity": 100,
      "chip": "ym2612"
    },
    {
      "channel": 3,
      "note": 50,
      "start": 33.777,
      "duration": 0.0293,
      "velocity": 98,
      "chip": "ym2612"
    },
    {
      "channel": 4,
      "note": 78,
      "start": 33.7777,
      "duration": 0.0602,
      "velocity": 100,
      "chip": "ym2612"
    },
    {
      "channel": 0,
      "note": 79,
      "start": 33.8415,
      "duration": 0.0374,
      "velocity": 99,
      "chip": "ym2612"
    },
    {
      "channel": 1,
      "note": 62,
      "start": 33.8426,
      "duration": 0.0367,
      "velocity": 95,
      "chip": "ym2612"
    },
    {
      "channel": 2,
      "note": 91,
      "start": 33.8431,
      "duration": 0.0693,
      "velocity": 100,
      "chip": "ym2612"
    },
    {
      "channel": 3,
      "note": 50,
      "start": 33.844,
      "duration": 0.0687,
      "velocity": 98,
      "chip": "ym2612"
    },
    {
      "channel": 4,
      "note": 78,
      "start": 33.8503,
      "duration": 1.2588,
      "velocity": 127,
      "chip": "ym2612"
    },
    {
      "channel": 0,
      "note": 79,
      "start": 33.8817,
      "duration": 0.0079,
      "velocity": 99,
      "chip": "ym2612"
    },
    {
      "channel": 1,
      "note": 67,
      "start": 33.8823,
      "duration": 0.0075,
      "velocity": 95,
      "chip": "ym2612"
    },
    {
      "channel": 0,
      "note": 79,
      "start": 33.8924,
      "duration": 0.0083,
      "velocity": 99,
      "chip": "ym2612"
    },
    {
      "channel": 1,
      "note": 67,
      "start": 33.8929,
      "duration": 0.0082,
      "velocity": 95,
      "chip": "ym2612"
    },
    {
      "channel": 0,
      "note": 79,
      "start": 33.9039,
      "duration": 0.008,
      "velocity": 99,
      "chip": "ym2612"
    },
    {
      "channel": 1,
      "note": 67,
      "start": 33.9044,
      "duration": 0.0077,
      "velocity": 95,
      "chip": "ym2612"
    },
    {
      "channel": 0,
      "note": 79,
      "start": 33.9149,
      "duration": 0.0088,
      "velocity": 99,
      "chip": "ym2612"
    },
    {
      "channel": 1,
      "note": 67,
      "start": 33.9155,
      "duration": 0.0085,
      "velocity": 95,
      "chip": "ym2612"
    },
    {
      "channel": 0,
      "note": 79,
      "start": 33.9705,
      "duration": 0.0539,
      "velocity": 99,
      "chip": "ym2612"
    },
    {
      "channel": 1,
      "note": 67,
      "start": 33.971,
      "duration": 0.0537,
      "velocity": 95,
      "chip": "ym2612"
    },
    {
      "channel": 0,
      "note": 79,
      "start": 34.1149,
      "duration": 0.0539,
      "velocity": 99,
      "chip": "ym2612"
    },
    {
      "channel": 1,
      "note": 67,
      "start": 34.1154,
      "duration": 0.0539,
      "velocity": 95,
      "chip": "ym2612"
    },
    {
      "channel": 0,
      "note": 79,
      "start": 34.2594,
      "duration": 0.0539,
      "velocity": 99,
      "chip": "ym2612"
    },
    {
      "channel": 1,
      "note": 67,
      "start": 34.2599,
      "duration": 0.0537,
      "velocity": 95,
      "chip": "ym2612"
    },
    {
      "channel": 2,
      "note": 79,
      "start": 34.2638,
      "duration": 0.8446,
      "velocity": 107,
      "chip": "ym2612"
    },
    {
      "channel": 0,
      "note": 79,
      "start": 34.4038,
      "duration": 0.054,
      "velocity": 99,
      "chip": "ym2612"
    },
    {
      "channel": 1,
      "note": 67,
      "start": 34.4044,
      "duration": 0.0537,
      "velocity": 95,
      "chip": "ym2612"
    },
    {
      "channel": 3,
      "note": 55,
      "start": 34.482,
      "duration": 0.6267,
      "velocity": 107,
      "chip": "ym2612"
    },
    {
      "channel": 0,
      "note": 79,
      "start": 34.5483,
      "duration": 0.054,
      "velocity": 99,
      "chip": "ym2612"
    },
    {
      "channel": 1,
      "note": 67,
      "start": 34.5488,
      "duration": 0.0542,
      "velocity": 95,
      "chip": "ym2612"
    },
    {
      "channel": 0,
      "note": 79,
      "start": 34.6927,
      "duration": 0.054,
      "velocity": 99,
      "chip": "ym2612"
    },
    {
      "channel": 1,
      "note": 67,
      "start": 34.6933,
      "duration": 0.0537,
      "velocity": 95,
      "chip": "ym2612"
    },
    {
      "channel": 0,
      "note": 79,
      "start": 34.8372,
      "duration": 0.054,
      "velocity": 99,
      "chip": "ym2612"
    },
    {
      "channel": 1,
      "note": 67,
      "start": 34.8377,
      "duration": 0.0538,
      "velocity": 95,
      "chip": "ym2612"
    },
    {
      "channel": 0,
      "note": 79,
      "start": 34.9817,
      "duration": 0.0539,
      "velocity": 99,
      "chip": "ym2612"
    },
    {
      "channel": 1,
      "note": 67,
      "start": 34.9822,
      "duration": 0.0541,
      "velocity": 95,
      "chip": "ym2612"
    },
    {
      "channel": 0,
      "note": 79,
      "start": 35.1261,
      "duration": 0.5579,
      "velocity": 99,
      "chip": "ym2612"
    },
    {
      "channel": 1,
      "note": 64,
      "start": 35.1266,
      "duration": 0.0746,
      "velocity": 95,
      "chip": "ym2612"
    },
    {
      "channel": 2,
      "note": 84,
      "start": 35.1305,
      "duration": 0.0711,
      "velocity": 100,
      "chip": "ym2612"
    },
    {
      "channel": 3,
      "note": 79,
      "start": 35.1365,
      "duration": 0.0654,
      "velocity": 98,
      "chip": "ym2612"
    },
    {
      "channel": 4,
      "note": 47,
      "start": 35.142,
      "duration": 0.4782,
      "velocity": 127,
      "chip": "ym2612"
    },
    {
      "channel": 1,
      "note": 62,
      "start": 35.2042,
      "duration": 0.3067,
      "velocity": 95,
      "chip": "ym2612"
    },
    {
      "channel": 2,
      "note": 83,
      "start": 35.2048,
      "duration": 0.3065,
      "velocity": 100,
      "chip": "ym2612"
    },
    {
      "channel": 3,
      "note": 48,
      "start": 35.2054,
      "duration": 0.3062,
      "velocity": 98,
      "chip": "ym2612"
    },
    {
      "channel": 1,
      "note": 60,
      "start": 35.6375,
      "duration": 0.0469,
      "velocity": 95,
      "chip": "ym2612"
    },
    {
      "channel": 2,
      "note": 81,
      "start": 35.638,
      "duration": 0.0466,
      "velocity": 100,
      "chip": "ym2612"
    },
    {
      "channel": 3,
      "note": 50,
      "start": 35.6391,
      "duration": 0.0458,
      "velocity": 98,
      "chip": "ym2612"
    },
    {
      "channel": 4,
      "note": 47,
      "start": 35.6398,
      "duration": 0.0456,
      "velocity": 127,
      "chip": "ym2612"
    },
    {
      "channel": 1,
      "note": 62,
      "start": 35.6874,
      "duration": 0.0141,
      "velocity": 95,
      "chip": "ym2612"
    },
    {
      "channel": 2,
      "note": 86,
      "start": 35.6879,
      "duration": 0.0139,
      "velocity": 100,
      "chip": "ym2612"
    },
    {
      "channel": 3,
      "note": 52,
      "start": 35.6885,
      "duration": 0.0322,
      "velocity": 98,
      "chip": "ym2612"
    },
    {
      "channel": 4,
      "note": 47,
      "start": 35.6892,
      "duration": 0.0132,
      "velocity": 127,
      "chip": "ym2612"
    },
    {
      "channel": 4,
      "note": 47,
      "start": 35.7059,
      "duration": 0.0153,
      "velocity": 127,
      "chip": "ym2612"
    },
    {
      "channel": 1,
      "note": 62,
      "start": 35.7385,
      "duration": 0.0145,
      "velocity": 95,
      "chip": "ym2612"
    },
    {
      "channel": 2,
      "note": 86,
      "start": 35.739,
      "duration": 0.0142,
      "velocity": 100,
      "chip": "ym2612"
    },
    {
      "channel": 3,
      "note": 54,
      "start": 35.7396,
      "duration": 0.0302,
      "velocity": 98,
      "chip": "ym2612"
    },
    {
      "channel": 4,
      "note": 49,
      "start": 35.7403,
      "duration": 0.0299,
      "velocity": 127,
      "chip": "ym2612"
    },
    {
      "channel": 0,
      "note": 79,
      "start": 35.7732,
      "duration": 0.0365,
      "velocity": 99,
      "chip": "ym2612"
    },
    {
      "channel": 1,
      "note": 62,
      "start": 35.7739,
      "duration": 0.0361,
      "velocity": 95,
      "chip": "ym2612"
    },
    {
      "channel": 2,
      "note": 91,
      "start": 35.7744,
      "duration": 0.0686,
      "velocity": 100,
      "chip": "ym2612"
    },
    {
      "channel": 3,
      "note": 54,
      "start": 35.7752,
      "duration": 0.0682,
      "velocity": 98,
      "chip": "ym2612"
    },
    {
      "channel": 4,
      "note": 47,
      "start": 35.781,
      "duration": 1.2603,
      "velocity": 127,
      "chip": "ym2612"
    },
    {
      "channel": 0,
      "note": 79,
      "start": 35.8124,
      "duration": 0.0079,
      "velocity": 99,
      "chip": "ym2612"
    },
    {
      "channel": 1,
      "note": 67,
      "start": 35.813,
      "duration": 0.0075,
      "velocity": 95,
      "chip": "ym2612"
    },
    {
      "channel": 0,
      "note": 79,
      "start": 35.823,
      "duration": 0.0088,
      "velocity": 99,
      "chip": "ym2612"
    },
    {
      "channel": 1,
      "note": 67,
      "start": 35.8236,
      "duration": 0.0084,
      "velocity": 95,
      "chip": "ym2612"
    },
    {
      "channel": 0,
      "note": 79,
      "start": 35.8345,
      "duration": 0.008,
      "velocity": 99,
      "chip": "ym2612"
    },
    {
      "channel": 1,
      "note": 67,
      "start": 35.835,
      "duration": 0.0077,
      "velocity": 95,
      "chip": "ym2612"
    },
    {
      "channel": 0,
      "note": 79,
      "start": 35.8455,
      "duration": 0.0088,
      "velocity": 99,
      "chip": "ym2612"
    },
    {
      "channel": 1,
      "note": 67,
      "start": 35.8461,
      "duration": 0.0085,
      "velocity": 95,
      "chip": "ym2612"
    },
    {
      "channel": 0,
      "note": 79,
      "start": 35.9025,
      "duration": 0.054,
      "velocity": 99,
      "chip": "ym2612"
    },
    {
      "channel": 1,
      "note": 67,
      "start": 35.903,
      "duration": 0.0537,
      "velocity": 95,
      "chip": "ym2612"
    },
    {
      "channel": 0,
      "note": 79,
      "start": 36.047,
      "duration": 0.0544,
      "velocity": 99,
      "chip": "ym2612"
    },
    {
      "channel": 1,
      "note": 67,
      "start": 36.0475,
      "duration": 0.0541,
      "velocity": 95,
      "chip": "ym2612"
    },
    {
      "channel": 0,
      "note": 79,
      "start": 36.1915,
      "duration": 0.0539,
      "velocity": 99,
      "chip": "ym2612"
    },
    {
      "channel": 1,
      "note": 67,
      "start": 36.192,
      "duration": 0.0537,
      "velocity": 95,
      "chip": "ym2612"
    },
    {
      "channel": 2,
      "note": 79,
      "start": 36.1959,
      "duration": 0.8446,
      "velocity": 107,
      "chip": "ym2612"
    },
    {
      "channel": 0,
      "note": 79,
      "start": 36.3359,
      "duration": 0.0539,
      "velocity": 99,
      "chip": "ym2612"
    },
    {
      "channel": 1,
      "note": 67,
      "start": 36.3364,
      "duration": 0.0537,
      "velocity": 95,
      "chip": "ym2612"
    },
    {
      "channel": 3,
      "note": 55,
      "start": 36.4141,
      "duration": 0.6267,
      "velocity": 107,
      "chip": "ym2612"
    },
    {
      "channel": 0,
      "note": 79,
      "start": 36.4804,
      "duration": 0.0544,
      "velocity": 99,
      "chip": "ym2612"
    },
    {
      "channel": 1,
      "note": 67,
      "start": 36.4809,
      "duration": 0.0541,
      "velocity": 95,
      "chip": "ym2612"
    },
    {
      "channel": 0,
      "note": 79,
      "start": 36.6249,
      "duration": 0.0539,
      "velocity": 99,
      "chip": "ym2612"
    },
    {
      "channel": 1,
      "note": 67,
      "start": 36.6254,
      "duration": 0.0537,
      "velocity": 95,
      "chip": "ym2612"
    },
    {
      "channel": 0,
      "note": 79,
      "start": 36.7693,
      "duration": 0.054,
      "velocity": 99,
      "chip": "ym2612"
    },
    {
      "channel": 1,
      "note": 67,
      "start": 36.7698,
      "duration": 0.0538,
      "velocity": 95,
      "chip": "ym2612"
    },
    {
      "channel": 0,
      "note": 79,
      "start": 36.9137,
      "duration": 0.0544,
      "velocity": 99,
      "chip": "ym2612"
    },
    {
      "channel": 1,
      "note": 67,
      "start": 36.9143,
      "duration": 0.0541,
      "velocity": 95,
      "chip": "ym2612"
    },
    {
      "channel": 0,
      "note": 79,
      "start": 37.0582,
      "duration": 0.5573,
      "velocity": 99,
      "chip": "ym2612"
    },
    {
      "channel": 1,
      "note": 64,
      "start": 37.0587,
      "duration": 0.0747,
      "velocity": 95,
      "chip": "ym2612"
    },
    {
      "channel": 2,
      "note": 88,
      "start": 37.0625,
      "duration": 0.0712,
      "velocity": 100,
      "chip": "ym2612"
    },
    {
      "channel": 3,
      "note": 79,
      "start": 37.0685,
      "duration": 0.0655,
      "velocity": 98,
      "chip": "ym2612"
    },
    {
      "channel": 4,
      "note": 47,
      "start": 37.0741,
      "duration": 0.4783,
      "velocity": 127,
      "chip": "ym2612"
    },
    {
      "channel": 1,
      "note": 62,
      "start": 37.1364,
      "duration": 0.3068,
      "velocity": 95,
      "chip": "ym2612"
    },
    {
      "channel": 2,
      "note": 86,
      "start": 37.137,
      "duration": 0.3065,
      "velocity": 100,
      "chip": "ym2612"
    },
    {
      "channel": 3,
      "note": 48,
      "start": 37.1376,
      "duration": 0.3062,
      "velocity": 98,
      "chip": "ym2612"
    },
    {
      "channel": 1,
      "note": 60,
      "start": 37.5697,
      "duration": 0.046,
      "velocity": 95,
      "chip": "ym2612"
    },
    {
      "channel": 2,
      "note": 84,
      "start": 37.5703,
      "duration": 0.0457,
      "velocity": 100,
      "chip": "ym2612"
    },
    {
      "channel": 3,
      "note": 50,
      "start": 37.5714,
      "duration": 0.045,
      "velocity": 98,
      "chip": "ym2612"
    },
    {
      "channel": 4,
      "note": 47,
      "start": 37.572,
      "duration": 0.0447,
      "velocity": 127,
      "chip": "ym2612"
    },
    {
      "channel": 1,
      "note": 62,
      "start": 37.6188,
      "duration": 0.0142,
      "velocity": 95,
      "chip": "ym2612"
    },
    {
      "channel": 2,
      "note": 90,
      "start": 37.6193,
      "duration": 0.0139,
      "velocity": 100,
      "chip": "ym2612"
    },
    {
      "channel": 3,
      "note": 52,
      "start": 37.6199,
      "duration": 0.0326,
      "velocity": 98,
      "chip": "ym2612"
    },
    {
      "channel": 4,
      "note": 47,
      "start": 37.6206,
      "duration": 0.0132,
      "velocity": 127,
      "chip": "ym2612"
    },
    {
      "channel": 4,
      "note": 47,
      "start": 37.6376,
      "duration": 0.0153,
      "velocity": 127,
      "chip": "ym2612"
    },
    {
      "channel": 1,
      "note": 62,
      "start": 37.6702,
      "duration": 0.0145,
      "velocity": 95,
      "chip": "ym2612"
    },
    {
      "channel": 2,
      "note": 90,
      "start": 37.6707,
      "duration": 0.0142,
      "velocity": 100,
      "chip": "ym2612"
    },
    {
      "channel": 3,
      "note": 54,
      "start": 37.6713,
      "duration": 0.0298,
      "velocity": 98,
      "chip": "ym2612"
    },
    {
      "channel": 4,
      "note": 49,
      "start": 37.672,
      "duration": 0.0295,
      "velocity": 127,
      "chip": "ym2612"
    },
    {
      "channel": 0,
      "note": 79,
      "start": 37.7045,
      "duration": 0.3604,
      "velocity": 99,
      "chip": "ym2612"
    },
    {
      "channel": 1,
      "note": 67,
      "start": 37.7052,
      "duration": 0.5566,
      "velocity": 95,
      "chip": "ym2612"
    },
    {
      "channel": 2,
      "note": 91,
      "start": 37.7073,
      "duration": 0.0144,
      "velocity": 100,
      "chip": "ym2612"
    },
    {
      "channel": 3,
      "note": 54,
      "start": 37.7081,
      "duration": 0.0298,
      "velocity": 98,
      "chip": "ym2612"
    },
    {
      "channel": 4,
      "note": 47,
      "start": 37.7089,
      "duration": 0.3572,
      "velocity": 127,
      "chip": "ym2612"
    },
    {
      "channel": 2,
      "note": 91,
      "start": 37.7244,
      "duration": 0.0132,
      "velocity": 100,
      "chip": "ym2612"
    },
    {
      "channel": 2,
      "note": 89,
      "start": 37.7403,
      "duration": 0.0126,
      "velocity": 100,
      "chip": "ym2612"
    },
    {
      "channel": 2,
      "note": 89,
      "start": 37.7558,
      "duration": 0.0129,
      "velocity": 100,
      "chip": "ym2612"
    },
    {
      "channel": 2,
      "note": 87,
      "start": 37.7716,
      "duration": 0.0139,
      "velocity": 100,
      "chip": "ym2612"
    },
    {
      "channel": 3,
      "note": 51,
      "start": 37.7722,
      "duration": 0.0768,
      "velocity": 98,
      "chip": "ym2612"
    },
    {
      "channel": 2,
      "note": 87,
      "start": 37.7888,
      "duration": 0.0599,
      "velocity": 100,
      "chip": "ym2612"
    },
    {
      "channel": 2,
      "note": 86,
      "start": 37.867,
      "duration": 0.0901,
      "velocity": 100,
      "chip": "ym2612"
    },
    {
      "channel": 2,
      "note": 86,
      "start": 37.9753,
      "duration": 0.0901,
      "velocity": 100,
      "chip": "ym2612"
    },
    {
      "channel": 2,
      "note": 84,
      "start": 38.0837,
      "duration": 0.0144,
      "velocity": 100,
      "chip": "ym2612"
    },
    {
      "channel": 3,
      "note": 51,
      "start": 38.0843,
      "duration": 0.0309,
      "velocity": 98,
      "chip": "ym2612"
    },
    {
      "channel": 4,
      "note": 47,
      "start": 38.085,
      "duration": 0.0306,
      "velocity": 127,
      "chip": "ym2612"
    },
    {
      "channel": 2,
      "note": 84,
      "start": 38.1013,
      "duration": 0.0137,
      "velocity": 100,
      "chip": "ym2612"
    },
    {
      "channel": 0,
      "note": 79,
      "start": 38.1174,
      "duration": 0.0088,
      "velocity": 99,
      "chip": "ym2612"
    },
    {
      "channel": 2,
      "note": 82,
      "start": 38.1181,
      "duration": 0.0139,
      "velocity": 100,
      "chip": "ym2612"
    },
    {
      "channel": 4,
      "note": 47,
      "start": 38.1192,
      "duration": 0.1436,
      "velocity": 127,
      "chip": "ym2612"
    },
    {
      "channel": 0,
      "note": 79,
      "start": 38.129,
      "duration": 0.0089,
      "velocity": 99,
      "chip": "ym2612"
    },
    {
      "channel": 2,
      "note": 82,
      "start": 38.1352,
      "duration": 0.0135,
      "velocity": 100,
      "chip": "ym2612"
    },
    {
      "channel": 0,
      "note": 79,
      "start": 38.1406,
      "duration": 0.0076,
      "velocity": 99,
      "chip": "ym2612"
    },
    {
      "channel": 0,
      "note": 79,
      "start": 38.1511,
      "duration": 0.014,
      "velocity": 99,
      "chip": "ym2612"
    },
    {
      "channel": 2,
      "note": 81,
      "start": 38.152,
      "duration": 0.0137,
      "velocity": 100,
      "chip": "ym2612"
    },
    {
      "channel": 3,
      "note": 51,
      "start": 38.1526,
      "duration": 0.0303,
      "velocity": 98,
      "chip": "ym2612"
    },
    {
      "channel": 0,
      "note": 79,
      "start": 38.1684,
      "duration": 0.0136,
      "velocity": 99,
      "chip": "ym2612"
    },
    {
      "channel": 2,
      "note": 81,
      "start": 38.1696,
      "duration": 0.013,
      "velocity": 100,
      "chip": "ym2612"
    },
    {
      "channel": 0,
      "note": 79,
      "start": 38.1849,
      "duration": 0.0133,
      "velocity": 99,
      "chip": "ym2612"
    },
    {
      "channel": 2,
      "note": 79,
      "start": 38.1857,
      "duration": 0.0131,
      "velocity": 100,
      "chip": "ym2612"
    },
    {
      "channel": 0,
      "note": 79,
      "start": 38.2015,
      "duration": 0.0601,
      "velocity": 99,
      "chip": "ym2612"
    },
    {
      "channel": 2,
      "note": 79,
      "start": 38.2028,
      "duration": 0.0593,
      "velocity": 100,
      "chip": "ym2612"
    },
    {
      "channel": 0,
      "note": 79,
      "start": 38.2798,
      "duration": 0.4019,
      "velocity": 99,
      "chip": "ym2612"
    },
    {
      "channel": 1,
      "note": 69,
      "start": 38.2804,
      "duration": 0.5544,
      "velocity": 95,
      "chip": "ym2612"
    },
    {
      "channel": 2,
      "note": 93,
      "start": 38.2809,
      "duration": 0.0142,
      "velocity": 100,
      "chip": "ym2612"
    },
    {
      "channel": 3,
      "note": 51,
      "start": 38.2815,
      "duration": 0.0301,
      "velocity": 98,
      "chip": "ym2612"
    },
    {
      "channel": 4,
      "note": 47,
      "start": 38.2822,
      "duration": 0.4008,
      "velocity": 127,
      "chip": "ym2612"
    },
    {
      "channel": 2,
      "note": 93,
      "start": 38.2982,
      "duration": 0.0131,
      "velocity": 100,
      "chip": "ym2612"
    },
    {
      "channel": 2,
      "note": 91,
      "start": 38.3141,
      "duration": 0.0127,
      "velocity": 100,
      "chip": "ym2612"
    },
    {
      "channel": 2,
      "note": 91,
      "start": 38.3299,
      "duration": 0.0131,
      "velocity": 100,
      "chip": "ym2612"
    },
    {
      "channel": 2,
      "note": 89,
      "start": 38.3459,
      "duration": 0.0141,
      "velocity": 100,
      "chip": "ym2612"
    },
    {
      "channel": 3,
      "note": 53,
      "start": 38.3466,
      "duration": 0.1193,
      "velocity": 98,
      "chip": "ym2612"
    },
    {
      "channel": 2,
      "note": 89,
      "start": 38.3755,
      "duration": 0.0901,
      "velocity": 100,
      "chip": "ym2612"
    },
    {
      "channel": 2,
      "note": 87,
      "start": 38.4838,
      "duration": 0.0901,
      "velocity": 100,
      "chip": "ym2612"
    },
    {
      "channel": 2,
      "note": 87,
      "start": 38.5922,
      "duration": 0.0901,
      "velocity": 100,
      "chip": "ym2612"
    },
    {
      "channel": 2,
      "note": 86,
      "start": 38.7006,
      "duration": 0.0146,
      "velocity": 100,
      "chip": "ym2612"
    },
    {
      "channel": 3,
      "note": 53,
      "start": 38.7012,
      "duration": 0.0309,
      "velocity": 98,
      "chip": "ym2612"
    },
    {
      "channel": 4,
      "note": 47,
      "start": 38.7019,
      "duration": 0.0306,
      "velocity": 127,
      "chip": "ym2612"
    },
    {
      "channel": 2,
      "note": 86,
      "start": 38.7185,
      "duration": 0.0133,
      "velocity": 100,
      "chip": "ym2612"
    },
    {
      "channel": 0,
      "note": 79,
      "start": 38.7349,
      "duration": 0.0089,
      "velocity": 99,
      "chip": "ym2612"
    },
    {
      "channel": 2,
      "note": 84,
      "start": 38.7357,
      "duration": 0.014,
      "velocity": 100,
      "chip": "ym2612"
    },
    {
      "channel": 4,
      "note": 47,
      "start": 38.7368,
      "duration": 0.0305,
      "velocity": 127,
      "chip": "ym2612"
    },
    {
      "channel": 0,
      "note": 79,
      "start": 38.7465,
      "duration": 0.009,
      "velocity": 99,
      "chip": "ym2612"
    },
    {
      "channel": 2,
      "note": 84,
      "start": 38.7529,
      "duration": 0.0136,
      "velocity": 100,
      "chip": "ym2612"
    },
    {
      "channel": 0,
      "note": 79,
      "start": 38.7583,
      "duration": 0.0077,
      "velocity": 99,
      "chip": "ym2612"
    },
    {
      "channel": 0,
      "note": 79,
      "start": 38.769,
      "duration": 0.0147,
      "velocity": 99,
      "chip": "ym2612"
    },
    {
      "channel": 2,
      "note": 82,
      "start": 38.7698,
      "duration": 0.0145,
      "velocity": 100,
      "chip": "ym2612"
    },
    {
      "channel": 3,
      "note": 53,
      "start": 38.7704,
      "duration": 0.0312,
      "velocity": 98,
      "chip": "ym2612"
    },
    {
      "channel": 4,
      "note": 47,
      "start": 38.7711,
      "duration": 0.0309,
      "velocity": 127,
      "chip": "ym2612"
    },
    {
      "channel": 0,
      "note": 79,
      "start": 38.787,
      "duration": 0.0138,
      "velocity": 99,
      "chip": "ym2612"
    },
    {
      "channel": 2,
      "note": 82,
      "start": 38.7883,
      "duration": 0.0131,
      "velocity": 100,
      "chip": "ym2612"
    },
    {
      "channel": 0,
      "note": 79,
      "start": 38.8037,
      "duration": 0.014,
      "velocity": 99,
      "chip": "ym2612"
    },
    {
      "channel": 2,
      "note": 81,
      "start": 38.8046,
      "duration": 0.0137,
      "velocity": 100,
      "chip": "ym2612"
    },
    {
      "channel": 4,
      "note": 47,
      "start": 38.8056,
      "duration": 0.0302,
      "velocity": 127,
      "chip": "ym2612"
    },
    {
      "channel": 0,
      "note": 79,
      "start": 38.821,
      "duration": 0.0136,
      "velocity": 99,
      "chip": "ym2612"
    },
    {
      "channel": 2,
      "note": 81,
      "start": 38.8222,
      "duration": 0.0129,
      "velocity": 100,
      "chip": "ym2612"
    },
    {
      "channel": 0,
      "note": 79,
      "start": 38.8379,
      "duration": 0.0632,
      "velocity": 99,
      "chip": "ym2612"
    },
    {
      "channel": 1,
      "note": 55,
      "start": 38.8385,
      "duration": 0.0628,
      "velocity": 95,
      "chip": "ym2612"
    },
    {
      "channel": 2,
      "note": 91,
      "start": 38.8407,
      "duration": 0.061,
      "velocity": 100,
      "chip": "ym2612"
    },
    {
      "channel": 3,
      "note": 53,
      "start": 38.8413,
      "duration": 0.0295,
      "velocity": 98,
      "chip": "ym2612"
    },
    {
      "channel": 4,
      "note": 47,
      "start": 38.842,
      "duration": 0.0604,
      "velocity": 127,
      "chip": "ym2612"
    },
    {
      "channel": 3,
      "note": 55,
      "start": 38.9115,
      "duration": 0.0146,
      "velocity": 95,
      "chip": "ym2612"
    },
    {
      "channel": 4,
      "note": 47,
      "start": 38.9122,
      "duration": 0.0142,
      "velocity": 127,
      "chip": "ym2612"
    },
    {
      "channel": 3,
      "note": 62,
      "start": 38.9298,
      "duration": 0.0138,
      "velocity": 95,
      "chip": "ym2612"
    },
    {
      "channel": 4,
      "note": 47,
      "start": 38.9305,
      "duration": 0.0135,
      "velocity": 127,
      "chip": "ym2612"
    },
    {
      "channel": 3,
      "note": 62,
      "start": 38.9467,
      "duration": 0.0135,
      "velocity": 95,
      "chip": "ym2612"
    },
    {
      "channel": 4,
      "note": 47,
      "start": 38.9474,
      "duration": 0.0132,
      "velocity": 127,
      "chip": "ym2612"
    },
    {
      "channel": 3,
      "note": 62,
      "start": 38.9647,
      "duration": 0.0139,
      "velocity": 95,
      "chip": "ym2612"
    },
    {
      "channel": 4,
      "note": 47,
      "start": 38.9654,
      "duration": 0.0135,
      "velocity": 127,
      "chip": "ym2612"
    },
    {
      "channel": 3,
      "note": 62,
      "start": 38.9817,
      "duration": 0.0643,
      "velocity": 95,
      "chip": "ym2612"
    },
    {
      "channel": 4,
      "note": 47,
      "start": 38.9824,
      "duration": 0.2473,
      "velocity": 127,
      "chip": "ym2612"
    },
    {
      "channel": 0,
      "note": 69,
      "start": 39.2504,
      "duration": 30.2133,
      "velocity": 99,
      "chip": "ym2612"
    }
  ]
}