{
  "track_name": "06 - Wetlands (Underwater)",
  "duration_sec": 46.748,
  "sample_rate": 44100,
  "note_count": 1111,
  "unique_pitches": 34,
  "pitch_range": 50,
  "avg_note_duration": 0.2003,
  "reconstruction_stats": {
    "notes_reconstructed": 1111,
    "keyon_events": 1111,
    "keyoff_events": 1106,
    "orphan_keyons": 5,
    "unique_pitches": 34,
    "pitch_range": 50,
    "avg_duration_sec": 0.2003
  },
  "metadata": {
    "source": "W\\Whip Rush\\06 - Wetlands (Underwater).vgz"
  },
  "notes": [
    {
      "channel": 0,
      "note": 54,
      "start": 0.0,
      "duration": 0.0663,
      "velocity": 125,
      "chip": "ym2612"
    },
    {
      "channel": 1,
      "note": 59,
      "start": 0.0032,
      "duration": 0.1266,
      "velocity": 122,
      "chip": "ym2612"
    },
    {
      "channel": 2,
      "note": 87,
      "start": 0.0103,
      "duration": 0.0531,
      "velocity": 127,
      "chip": "ym2612"
    },
    {
      "channel": 5,
      "note": 61,
      "start": 0.0336,
      "duration": 0.1247,
      "velocity": 122,
      "chip": "ym2612"
    },
    {
      "channel": 0,
      "note": 54,
      "start": 0.0668,
      "duration": 0.0623,
      "velocity": 125,
      "chip": "ym2612"
    },
    {
      "channel": 2,
      "note": 87,
      "start": 0.0687,
      "duration": 0.0576,
      "velocity": 127,
      "chip": "ym2612"
    },
    {
      "channel": 0,
      "note": 54,
      "start": 0.1297,
      "duration": 0.1251,
      "velocity": 125,
      "chip": "ym2612"
    },
    {
      "channel": 2,
      "note": 87,
      "start": 0.1315,
      "duration": 0.1205,
      "velocity": 127,
      "chip": "ym2612"
    },
    {
      "channel": 0,
      "note": 50,
      "start": 0.2553,
      "duration": 0.1252,
      "velocity": 125,
      "chip": "ym2612"
    },
    {
      "channel": 1,
      "note": 59,
      "start": 0.256,
      "duration": 0.1252,
      "velocity": 122,
      "chip": "ym2612"
    },
    {
      "channel": 4,
      "note": 54,
      "start": 0.2596,
      "duration": 0.0559,
      "velocity": 125,
      "chip": "ym2612"
    },
    {
      "channel": 2,
      "note": 83,
      "start": 0.2605,
      "duration": 0.1172,
      "velocity": 127,
      "chip": "ym2612"
    },
    {
      "channel": 5,
      "note": 61,
      "start": 0.2851,
      "duration": 0.1252,
      "velocity": 122,
      "chip": "ym2612"
    },
    {
      "channel": 4,
      "note": 54,
      "start": 0.3161,
      "duration": 0.0659,
      "velocity": 125,
      "chip": "ym2612"
    },
    {
      "channel": 0,
      "note": 50,
      "start": 0.3811,
      "duration": 0.125,
      "velocity": 125,
      "chip": "ym2612"
    },
    {
      "channel": 1,
      "note": 59,
      "start": 0.3818,
      "duration": 0.1249,
      "velocity": 122,
      "chip": "ym2612"
    },
    {
      "channel": 4,
      "note": 54,
      "start": 0.3827,
      "duration": 0.1245,
      "velocity": 125,
      "chip": "ym2612"
    },
    {
      "channel": 2,
      "note": 83,
      "start": 0.3838,
      "duration": 0.1195,
      "velocity": 127,
      "chip": "ym2612"
    },
    {
      "channel": 5,
      "note": 61,
      "start": 0.4109,
      "duration": 0.1246,
      "velocity": 122,
      "chip": "ym2612"
    },
    {
      "channel": 0,
      "note": 42,
      "start": 0.5066,
      "duration": 0.1224,
      "velocity": 125,
      "chip": "ym2612"
    },
    {
      "channel": 4,
      "note": 50,
      "start": 0.5078,
      "duration": 0.1224,
      "velocity": 125,
      "chip": "ym2612"
    },
    {
      "channel": 2,
      "note": 75,
      "start": 0.5091,
      "duration": 0.1997,
      "velocity": 127,
      "chip": "ym2612"
    },
    {
      "channel": 1,
      "note": 59,
      "start": 0.6299,
      "duration": 0.1284,
      "velocity": 122,
      "chip": "ym2612"
    },
    {
      "channel": 4,
      "note": 50,
      "start": 0.6307,
      "duration": 0.1284,
      "velocity": 125,
      "chip": "ym2612"
    },
    {
      "channel": 5,
      "note": 61,
      "start": 0.6618,
      "duration": 0.1253,
      "velocity": 122,
      "chip": "ym2612"
    },
    {
      "channel": 0,
      "note": 54,
      "start": 0.7581,
      "duration": 0.0621,
      "velocity": 125,
      "chip": "ym2612"
    },
    {
      "channel": 1,
      "note": 59,
      "start": 0.7589,
      "duration": 0.1248,
      "velocity": 122,
      "chip": "ym2612"
    },
    {
      "channel": 4,
      "note": 42,
      "start": 0.7597,
      "duration": 0.1244,
      "velocity": 125,
      "chip": "ym2612"
    },
    {
      "channel": 2,
      "note": 88,
      "start": 0.761,
      "duration": 0.0563,
      "velocity": 127,
      "chip": "ym2612"
    },
    {
      "channel": 5,
      "note": 61,
      "start": 0.7877,
      "duration": 0.1245,
      "velocity": 122,
      "chip": "ym2612"
    },
    {
      "channel": 0,
      "note": 54,
      "start": 0.8208,
      "duration": 0.0622,
      "velocity": 125,
      "chip": "ym2612"
    },
    {
      "channel": 2,
      "note": 88,
      "start": 0.8229,
      "duration": 0.0573,
      "velocity": 127,
      "chip": "ym2612"
    },
    {
      "channel": 0,
      "note": 54,
      "start": 0.8836,
      "duration": 0.1251,
      "velocity": 125,
      "chip": "ym2612"
    },
    {
      "channel": 2,
      "note": 88,
      "start": 0.8856,
      "duration": 0.1202,
      "velocity": 127,
      "chip": "ym2612"
    },
    {
      "channel": 0,
      "note": 50,
      "start": 1.0092,
      "duration": 0.1251,
      "velocity": 125,
      "chip": "ym2612"
    },
    {
      "channel": 1,
      "note": 59,
      "start": 1.0099,
      "duration": 0.1251,
      "velocity": 122,
      "chip": "ym2612"
    },
    {
      "channel": 4,
      "note": 54,
      "start": 1.0107,
      "duration": 0.0587,
      "velocity": 125,
      "chip": "ym2612"
    },
    {
      "channel": 2,
      "note": 84,
      "start": 1.0117,
      "duration": 0.1198,
      "velocity": 127,
      "chip": "ym2612"
    },
    {
      "channel": 5,
      "note": 61,
      "start": 1.039,
      "duration": 0.1249,
      "velocity": 122,
      "chip": "ym2612"
    },
    {
      "channel": 4,
      "note": 54,
      "start": 1.07,
      "duration": 0.0653,
      "velocity": 125,
      "chip": "ym2612"
    },
    {
      "channel": 0,
      "note": 50,
      "start": 1.1348,
      "duration": 0.1251,
      "velocity": 125,
      "chip": "ym2612"
    },
    {
      "channel": 4,
      "note": 54,
      "start": 1.1359,
      "duration": 0.1256,
      "velocity": 125,
      "chip": "ym2612"
    },
    {
      "channel": 2,
      "note": 84,
      "start": 1.1371,
      "duration": 0.12,
      "velocity": 127,
      "chip": "ym2612"
    },
    {
      "channel": 0,
      "note": 42,
      "start": 1.2605,
      "duration": 0.1224,
      "velocity": 125,
      "chip": "ym2612"
    },
    {
      "channel": 1,
      "note": 59,
      "start": 1.2612,
      "duration": 0.122,
      "velocity": 122,
      "chip": "ym2612"
    },
    {
      "channel": 4,
      "note": 50,
      "start": 1.2621,
      "duration": 0.1216,
      "velocity": 125,
      "chip": "ym2612"
    },
    {
      "channel": 2,
      "note": 76,
      "start": 1.2631,
      "duration": 0.199,
      "velocity": 127,
      "chip": "ym2612"
    },
    {
      "channel": 5,
      "note": 61,
      "start": 1.2903,
      "duration": 0.1245,
      "velocity": 122,
      "chip": "ym2612"
    },
    {
      "channel": 4,
      "note": 50,
      "start": 1.3842,
      "duration": 0.1288,
      "velocity": 125,
      "chip": "ym2612"
    },
    {
      "channel": 0,
      "note": 50,
      "start": 1.512,
      "duration": 0.1249,
      "velocity": 125,
      "chip": "ym2612"
    },
    {
      "channel": 1,
      "note": 59,
      "start": 1.5127,
      "duration": 0.1249,
      "velocity": 122,
      "chip": "ym2612"
    },
    {
      "channel": 4,
      "note": 42,
      "start": 1.5135,
      "duration": 0.1249,
      "velocity": 125,
      "chip": "ym2612"
    },
    {
      "channel": 2,
      "note": 84,
      "start": 1.5144,
      "duration": 0.1197,
      "velocity": 127,
      "chip": "ym2612"
    },
    {
      "channel": 5,
      "note": 61,
      "start": 1.5415,
      "duration": 0.1249,
      "velocity": 122,
      "chip": "ym2612"
    },
    {
      "channel": 0,
      "note": 50,
      "start": 1.6374,
      "duration": 0.1251,
      "velocity": 125,
      "chip": "ym2612"
    },
    {
      "channel": 1,
      "note": 59,
      "start": 1.6382,
      "duration": 0.125,
      "velocity": 122,
      "chip": "ym2612"
    },
    {
      "channel": 2,
      "note": 84,
      "start": 1.6398,
      "duration": 0.1199,
      "velocity": 127,
      "chip": "ym2612"
    },
    {
      "channel": 5,
      "note": 61,
      "start": 1.667,
      "duration": 0.1253,
      "velocity": 122,
      "chip": "ym2612"
    },
    {
      "channel": 0,
      "note": 50,
      "start": 1.7631,
      "duration": 0.1224,
      "velocity": 125,
      "chip": "ym2612"
    },
    {
      "channel": 1,
      "note": 59,
      "start": 1.7638,
      "duration": 0.122,
      "velocity": 122,
      "chip": "ym2612"
    },
    {
      "channel": 4,
      "note": 50,
      "start": 1.7647,
      "duration": 0.122,
      "velocity": 125,
      "chip": "ym2612"
    },
    {
      "channel": 2,
      "note": 84,
      "start": 1.7658,
      "duration": 0.1995,
      "velocity": 127,
      "chip": "ym2612"
    },
    {
      "channel": 5,
      "note": 61,
      "start": 1.7929,
      "duration": 0.1248,
      "velocity": 122,
      "chip": "ym2612"
    },
    {
      "channel": 1,
      "note": 59,
      "start": 1.8863,
      "duration": 0.1307,
      "velocity": 122,
      "chip": "ym2612"
    },
    {
      "channel": 4,
      "note": 50,
      "start": 1.8872,
      "duration": 0.131,
      "velocity": 125,
      "chip": "ym2612"
    },
    {
      "channel": 5,
      "note": 61,
      "start": 1.9183,
      "duration": 0.1253,
      "velocity": 122,
      "chip": "ym2612"
    },
    {
      "channel": 0,
      "note": 54,
      "start": 2.0144,
      "duration": 0.0624,
      "velocity": 125,
      "chip": "ym2612"
    },
    {
      "channel": 1,
      "note": 59,
      "start": 2.0177,
      "duration": 0.1225,
      "velocity": 122,
      "chip": "ym2612"
    },
    {
      "channel": 4,
      "note": 50,
      "start": 2.0187,
      "duration": 0.1218,
      "velocity": 125,
      "chip": "ym2612"
    },
    {
      "channel": 2,
      "note": 88,
      "start": 2.02,
      "duration": 0.0539,
      "velocity": 127,
      "chip": "ym2612"
    },
    {
      "channel": 5,
      "note": 61,
      "start": 2.0442,
      "duration": 0.1244,
      "velocity": 122,
      "chip": "ym2612"
    },
    {
      "channel": 0,
      "note": 54,
      "start": 2.0773,
      "duration": 0.0622,
      "velocity": 125,
      "chip": "ym2612"
    },
    {
      "channel": 2,
      "note": 88,
      "start": 2.0794,
      "duration": 0.0572,
      "velocity": 127,
      "chip": "ym2612"
    },
    {
      "channel": 0,
      "note": 54,
      "start": 2.14,
      "duration": 0.1224,
      "velocity": 125,
      "chip": "ym2612"
    },
    {
      "channel": 2,
      "note": 88,
      "start": 2.1421,
      "duration": 0.2002,
      "velocity": 127,
      "chip": "ym2612"
    },
    {
      "channel": 1,
      "note": 59,
      "start": 2.2634,
      "duration": 0.128,
      "velocity": 122,
      "chip": "ym2612"
    },
    {
      "channel": 4,
      "note": 54,
      "start": 2.2642,
      "duration": 0.0615,
      "velocity": 125,
      "chip": "ym2612"
    },
    {
      "channel": 5,
      "note": 61,
      "start": 2.2953,
      "duration": 0.1253,
      "velocity": 122,
      "chip": "ym2612"
    },
    {
      "channel": 4,
      "note": 54,
      "start": 2.3263,
      "duration": 0.066,
      "velocity": 125,
      "chip": "ym2612"
    },
    {
      "channel": 0,
      "note": 50,
      "start": 2.3913,
      "duration": 0.1255,
      "velocity": 125,
      "chip": "ym2612"
    },
    {
      "channel": 1,
      "note": 59,
      "start": 2.3921,
      "duration": 0.1251,
      "velocity": 122,
      "chip": "ym2612"
    },
    {
      "channel": 4,
      "note": 54,
      "start": 2.3929,
      "duration": 0.1246,
      "velocity": 125,
      "chip": "ym2612"
    },
    {
      "channel": 2,
      "note": 84,
      "start": 2.3941,
      "duration": 0.1198,
      "velocity": 127,
      "chip": "ym2612"
    },
    {
      "channel": 5,
      "note": 61,
      "start": 2.4212,
      "duration": 0.1246,
      "velocity": 122,
      "chip": "ym2612"
    },
    {
      "channel": 2,
      "note": 39,
      "start": 2.5187,
      "duration": 0.1053,
      "velocity": 120,
      "chip": "ym2612"
    },
    {
      "channel": 1,
      "note": 59,
      "start": 2.6402,
      "duration": 0.1282,
      "velocity": 122,
      "chip": "ym2612"
    },
    {
      "channel": 4,
      "note": 50,
      "start": 2.641,
      "duration": 0.1283,
      "velocity": 125,
      "chip": "ym2612"
    },
    {
      "channel": 5,
      "note": 61,
      "start": 2.6721,
      "duration": 0.1251,
      "velocity": 122,
      "chip": "ym2612"
    },
    {
      "channel": 0,
      "note": 42,
      "start": 2.7683,
      "duration": 0.1222,
      "velocity": 125,
      "chip": "ym2612"
    },
    {
      "channel": 1,
      "note": 59,
      "start": 2.769,
      "duration": 0.1219,
      "velocity": 122,
      "chip": "ym2612"
    },
    {
      "channel": 2,
      "note": 76,
      "start": 2.7707,
      "duration": 0.1989,
      "velocity": 127,
      "chip": "ym2612"
    },
    {
      "channel": 5,
      "note": 61,
      "start": 2.7978,
      "duration": 0.1246,
      "velocity": 122,
      "chip": "ym2612"
    },
    {
      "channel": 0,
      "note": 54,
      "start": 3.0196,
      "duration": 0.1223,
      "velocity": 125,
      "chip": "ym2612"
    },
    {
      "channel": 1,
      "note": 59,
      "start": 3.0203,
      "duration": 0.1219,
      "velocity": 122,
      "chip": "ym2612"
    },
    {
      "channel": 4,
      "note": 42,
      "start": 3.0212,
      "duration": 0.1214,
      "velocity": 125,
      "chip": "ym2612"
    },
    {
      "channel": 2,
      "note": 88,
      "start": 3.0222,
      "duration": 0.1988,
      "velocity": 127,
      "chip": "ym2612"
    },
    {
      "channel": 5,
      "note": 61,
      "start": 3.0493,
      "duration": 0.1244,
      "velocity": 122,
      "chip": "ym2612"
    },
    {
      "channel": 0,
      "note": 54,
      "start": 3.2709,
      "duration": 0.1223,
      "velocity": 125,
      "chip": "ym2612"
    },
    {
      "channel": 1,
      "note": 59,
      "start": 3.2717,
      "duration": 0.1219,
      "velocity": 122,
      "chip": "ym2612"
    },
    {
      "channel": 4,
      "note": 54,
      "start": 3.2725,
      "duration": 0.1214,
      "velocity": 125,
      "chip": "ym2612"
    },
    {
      "channel": 2,
      "note": 88,
      "start": 3.2735,
      "duration": 0.1987,
      "velocity": 127,
      "chip": "ym2612"
    },
    {
      "channel": 5,
      "note": 61,
      "start": 3.3006,
      "duration": 0.1243,
      "velocity": 122,
      "chip": "ym2612"
    },
    {
      "channel": 0,
      "note": 54,
      "start": 3.5222,
      "duration": 0.125,
      "velocity": 125,
      "chip": "ym2612"
    },
    {
      "channel": 1,
      "note": 59,
      "start": 3.5229,
      "duration": 0.125,
      "velocity": 122,
      "chip": "ym2612"
    },
    {
      "channel": 4,
      "note": 54,
      "start": 3.5238,
      "duration": 0.125,
      "velocity": 125,
      "chip": "ym2612"
    },
    {
      "channel": 2,
      "note": 88,
      "start": 3.5249,
      "duration": 0.1196,
      "velocity": 127,
      "chip": "ym2612"
    },
    {
      "channel": 5,
      "note": 61,
      "start": 3.552,
      "duration": 0.1248,
      "velocity": 122,
      "chip": "ym2612"
    },
    {
      "channel": 0,
      "note": 50,
      "start": 3.6478,
      "duration": 0.1251,
      "velocity": 125,
      "chip": "ym2612"
    },
    {
      "channel": 1,
      "note": 59,
      "start": 3.6486,
      "duration": 0.125,
      "velocity": 122,
      "chip": "ym2612"
    },
    {
      "channel": 2,
      "note": 84,
      "start": 3.6502,
      "duration": 0.1199,
      "velocity": 127,
      "chip": "ym2612"
    },
    {
      "channel": 5,
      "note": 61,
      "start": 3.6773,
      "duration": 0.1253,
      "velocity": 122,
      "chip": "ym2612"
    },
    {
      "channel": 0,
      "note": 42,
      "start": 3.7734,
      "duration": 0.1251,
      "velocity": 125,
      "chip": "ym2612"
    },
    {
      "channel": 1,
      "note": 59,
      "start": 3.7741,
      "duration": 0.1252,
      "velocity": 122,
      "chip": "ym2612"
    },
    {
      "channel": 4,
      "note": 54,
      "start": 3.775,
      "duration": 0.1252,
      "velocity": 125,
      "chip": "ym2612"
    },
    {
      "channel": 2,
      "note": 76,
      "start": 3.7763,
      "duration": 0.1195,
      "velocity": 127,
      "chip": "ym2612"
    },
    {
      "channel": 5,
      "note": 61,
      "start": 3.8032,
      "duration": 0.1251,
      "velocity": 122,
      "chip": "ym2612"
    },
    {
      "channel": 0,
      "note": 42,
      "start": 3.8991,
      "duration": 0.1251,
      "velocity": 125,
      "chip": "ym2612"
    },
    {
      "channel": 1,
      "note": 59,
      "start": 3.8999,
      "duration": 0.1273,
      "velocity": 122,
      "chip": "ym2612"
    },
    {
      "channel": 4,
      "note": 50,
      "start": 3.9007,
      "duration": 0.128,
      "velocity": 125,
      "chip": "ym2612"
    },
    {
      "channel": 2,
      "note": 76,
      "start": 3.902,
      "duration": 0.1195,
      "velocity": 127,
      "chip": "ym2612"
    },
    {
      "channel": 5,
      "note": 61,
      "start": 3.9289,
      "duration": 0.1251,
      "velocity": 122,
      "chip": "ym2612"
    },
    {
      "channel": 1,
      "note": 59,
      "start": 4.0278,
      "duration": 0.1194,
      "velocity": 122,
      "chip": "ym2612"
    },
    {
      "channel": 3,
      "note": 67,
      "start": 4.0285,
      "duration": 0.3735,
      "velocity": 91,
      "chip": "ym2612"
    },
    {
      "channel": 4,
      "note": 42,
      "start": 4.0293,
      "duration": 0.1186,
      "velocity": 125,
      "chip": "ym2612"
    },
    {
      "channel": 2,
      "note": 38,
      "start": 4.0303,
      "duration": 0.1025,
      "velocity": 120,
      "chip": "ym2612"
    },
    {
      "channel": 5,
      "note": 61,
      "start": 4.0546,
      "duration": 0.1247,
      "velocity": 122,
      "chip": "ym2612"
    },
    {
      "channel": 4,
      "note": 42,
      "start": 4.1484,
      "duration": 0.1283,
      "velocity": 125,
      "chip": "ym2612"
    },
    {
      "channel": 1,
      "note": 59,
      "start": 4.2762,
      "duration": 0.1251,
      "velocity": 122,
      "chip": "ym2612"
    },
    {
      "channel": 2,
      "note": 57,
      "start": 4.2777,
      "duration": 0.1207,
      "velocity": 116,
      "chip": "ym2612"
    },
    {
      "channel": 5,
      "note": 61,
      "start": 4.3056,
      "duration": 0.1251,
      "velocity": 122,
      "chip": "ym2612"
    },
    {
      "channel": 1,
      "note": 59,
      "start": 4.4019,
      "duration": 0.1251,
      "velocity": 122,
      "chip": "ym2612"
    },
    {
      "channel": 3,
      "note": 66,
      "start": 4.4026,
      "duration": 0.3765,
      "velocity": 91,
      "chip": "ym2612"
    },
    {
      "channel": 2,
      "note": 57,
      "start": 4.4038,
      "duration": 0.1202,
      "velocity": 116,
      "chip": "ym2612"
    },
    {
      "channel": 5,
      "note": 61,
      "start": 4.4313,
      "duration": 0.1247,
      "velocity": 122,
      "chip": "ym2612"
    },
    {
      "channel": 2,
      "note": 38,
      "start": 4.5287,
      "duration": 0.1061,
      "velocity": 120,
      "chip": "ym2612"
    },
    {
      "channel": 1,
      "note": 59,
      "start": 4.6531,
      "duration": 0.1253,
      "velocity": 122,
      "chip": "ym2612"
    },
    {
      "channel": 2,
      "note": 57,
      "start": 4.6543,
      "duration": 0.1212,
      "velocity": 116,
      "chip": "ym2612"
    },
    {
      "channel": 5,
      "note": 61,
      "start": 4.6829,
      "duration": 0.1246,
      "velocity": 122,
      "chip": "ym2612"
    },
    {
      "channel": 1,
      "note": 59,
      "start": 4.779,
      "duration": 0.1221,
      "velocity": 122,
      "chip": "ym2612"
    },
    {
      "channel": 3,
      "note": 64,
      "start": 4.7797,
      "duration": 0.373,
      "velocity": 91,
      "chip": "ym2612"
    },
    {
      "channel": 2,
      "note": 57,
      "start": 4.7809,
      "duration": 0.1524,
      "velocity": 116,
      "chip": "ym2612"
    },
    {
      "channel": 5,
      "note": 61,
      "start": 4.8081,
      "duration": 0.1249,
      "velocity": 122,
      "chip": "ym2612"
    },
    {
      "channel": 1,
      "note": 59,
      "start": 5.03,
      "duration": 0.1224,
      "velocity": 122,
      "chip": "ym2612"
    },
    {
      "channel": 2,
      "note": 38,
      "start": 5.0313,
      "duration": 0.1065,
      "velocity": 120,
      "chip": "ym2612"
    },
    {
      "channel": 5,
      "note": 61,
      "start": 5.0596,
      "duration": 0.1247,
      "velocity": 122,
      "chip": "ym2612"
    },
    {
      "channel": 3,
      "note": 58,
      "start": 5.1533,
      "duration": 0.3795,
      "velocity": 91,
      "chip": "ym2612"
    },
    {
      "channel": 1,
      "note": 59,
      "start": 5.2814,
      "duration": 0.1223,
      "velocity": 122,
      "chip": "ym2612"
    },
    {
      "channel": 2,
      "note": 57,
      "start": 5.2826,
      "duration": 0.1534,
      "velocity": 116,
      "chip": "ym2612"
    },
    {
      "channel": 5,
      "note": 61,
      "start": 5.3108,
      "duration": 0.1248,
      "velocity": 122,
      "chip": "ym2612"
    },
    {
      "channel": 1,
      "note": 59,
      "start": 5.5327,
      "duration": 0.1251,
      "velocity": 122,
      "chip": "ym2612"
    },
    {
      "channel": 3,
      "note": 59,
      "start": 5.5334,
      "duration": 0.2507,
      "velocity": 91,
      "chip": "ym2612"
    },
    {
      "channel": 2,
      "note": 38,
      "start": 5.5343,
      "duration": 0.1062,
      "velocity": 120,
      "chip": "ym2612"
    },
    {
      "channel": 5,
      "note": 61,
      "start": 5.5621,
      "duration": 0.1251,
      "velocity": 122,
      "chip": "ym2612"
    },
    {
      "channel": 1,
      "note": 59,
      "start": 5.6584,
      "duration": 0.125,
      "velocity": 122,
      "chip": "ym2612"
    },
    {
      "channel": 2,
      "note": 57,
      "start": 5.6599,
      "duration": 0.1206,
      "velocity": 116,
      "chip": "ym2612"
    },
    {
      "channel": 5,
      "note": 61,
      "start": 5.6878,
      "duration": 0.1251,
      "velocity": 122,
      "chip": "ym2612"
    },
    {
      "channel": 1,
      "note": 59,
      "start": 5.7839,
      "duration": 0.1251,
      "velocity": 122,
      "chip": "ym2612"
    },
    {
      "channel": 3,
      "note": 61,
      "start": 5.7847,
      "duration": 0.2571,
      "velocity": 91,
      "chip": "ym2612"
    },
    {
      "channel": 2,
      "note": 57,
      "start": 5.7859,
      "duration": 0.1203,
      "velocity": 116,
      "chip": "ym2612"
    },
    {
      "channel": 5,
      "note": 61,
      "start": 5.8134,
      "duration": 0.125,
      "velocity": 122,
      "chip": "ym2612"
    },
    {
      "channel": 1,
      "note": 59,
      "start": 5.9096,
      "duration": 0.1311,
      "velocity": 91,
      "chip": "ym2612"
    },
    {
      "channel": 2,
      "note": 57,
      "start": 5.9112,
      "duration": 0.1206,
      "velocity": 116,
      "chip": "ym2612"
    },
    {
      "channel": 5,
      "note": 61,
      "start": 5.939,
      "duration": 0.1254,
      "velocity": 122,
      "chip": "ym2612"
    },
    {
      "channel": 0,
      "note": 78,
      "start": 6.0379,
      "duration": 0.4994,
      "velocity": 91,
      "chip": "ym2612"
    },
    {
      "channel": 1,
      "note": 54,
      "start": 6.0415,
      "duration": 0.1164,
      "velocity": 91,
      "chip": "ym2612"
    },
    {
      "channel": 3,
      "note": 54,
      "start": 6.0424,
      "duration": 0.1165,
      "velocity": 91,
      "chip": "ym2612"
    },
    {
      "channel": 2,
      "note": 38,
      "start": 6.0435,
      "duration": 0.0995,
      "velocity": 120,
      "chip": "ym2612"
    },
    {
      "channel": 1,
      "note": 54,
      "start": 6.1588,
      "duration": 0.1274,
      "velocity": 91,
      "chip": "ym2612"
    },
    {
      "channel": 3,
      "note": 54,
      "start": 6.1595,
      "duration": 0.1277,
      "velocity": 91,
      "chip": "ym2612"
    },
    {
      "channel": 1,
      "note": 54,
      "start": 6.2869,
      "duration": 0.1249,
      "velocity": 91,
      "chip": "ym2612"
    },
    {
      "channel": 3,
      "note": 54,
      "start": 6.2877,
      "duration": 0.1251,
      "velocity": 91,
      "chip": "ym2612"
    },
    {
      "channel": 4,
      "note": 78,
      "start": 6.2912,
      "duration": 0.4993,
      "velocity": 91,
      "chip": "ym2612"
    },
    {
      "channel": 2,
      "note": 57,
      "start": 6.2921,
      "duration": 0.1167,
      "velocity": 116,
      "chip": "ym2612"
    },
    {
      "channel": 1,
      "note": 54,
      "start": 6.4126,
      "duration": 0.1253,
      "velocity": 91,
      "chip": "ym2612"
    },
    {
      "channel": 3,
      "note": 54,
      "start": 6.4133,
      "duration": 0.2502,
      "velocity": 91,
      "chip": "ym2612"
    },
    {
      "channel": 2,
      "note": 57,
      "start": 6.4145,
      "duration": 0.1198,
      "velocity": 116,
      "chip": "ym2612"
    },
    {
      "channel": 0,
      "note": 76,
      "start": 6.5378,
      "duration": 0.502,
      "velocity": 91,
      "chip": "ym2612"
    },
    {
      "channel": 1,
      "note": 54,
      "start": 6.5387,
      "duration": 0.2501,
      "velocity": 91,
      "chip": "ym2612"
    },
    {
      "channel": 2,
      "note": 60,
      "start": 6.5402,
      "duration": 0.1199,
      "velocity": 122,
      "chip": "ym2612"
    },
    {
      "channel": 5,
      "note": 61,
      "start": 6.5677,
      "duration": 0.1252,
      "velocity": 122,
      "chip": "ym2612"
    },
    {
      "channel": 3,
      "note": 61,
      "start": 6.6641,
      "duration": 0.1256,
      "velocity": 91,
      "chip": "ym2612"
    },
    {
      "channel": 2,
      "note": 38,
      "start": 6.6656,
      "duration": 0.106,
      "velocity": 120,
      "chip": "ym2612"
    },
    {
      "channel": 1,
      "note": 54,
      "start": 6.7896,
      "duration": 0.125,
      "velocity": 91,
      "chip": "ym2612"
    },
    {
      "channel": 3,
      "note": 59,
      "start": 6.7904,
      "duration": 0.2511,
      "velocity": 91,
      "chip": "ym2612"
    },
    {
      "channel": 4,
      "note": 76,
      "start": 6.7911,
      "duration": 0.5015,
      "velocity": 91,
      "chip": "ym2612"
    },
    {
      "channel": 2,
      "note": 57,
      "start": 6.792,
      "duration": 0.1195,
      "velocity": 116,
      "chip": "ym2612"
    },
    {
      "channel": 1,
      "note": 54,
      "start": 6.9154,
      "duration": 0.1251,
      "velocity": 91,
      "chip": "ym2612"
    },
    {
      "channel": 2,
      "note": 57,
      "start": 6.9169,
      "duration": 0.1201,
      "velocity": 116,
      "chip": "ym2612"
    },
    {
      "channel": 0,
      "note": 70,
      "start": 7.0404,
      "duration": 2.2611,
      "velocity": 91,
      "chip": "ym2612"
    },
    {
      "channel": 1,
      "note": 54,
      "start": 7.0413,
      "duration": 0.2501,
      "velocity": 91,
      "chip": "ym2612"
    },
    {
      "channel": 3,
      "note": 64,
      "start": 7.0421,
      "duration": 0.3753,
      "velocity": 91,
      "chip": "ym2612"
    },
    {
      "channel": 2,
      "note": 38,
      "start": 7.0432,
      "duration": 0.1053,
      "velocity": 120,
      "chip": "ym2612"
    },
    {
      "channel": 2,
      "note": 38,
      "start": 7.1675,
      "duration": 0.1066,
      "velocity": 120,
      "chip": "ym2612"
    },
    {
      "channel": 1,
      "note": 54,
      "start": 7.2922,
      "duration": 0.2505,
      "velocity": 91,
      "chip": "ym2612"
    },
    {
      "channel": 4,
      "note": 70,
      "start": 7.2933,
      "duration": 2.2614,
      "velocity": 91,
      "chip": "ym2612"
    },
    {
      "channel": 2,
      "note": 57,
      "start": 7.2941,
      "duration": 0.1198,
      "velocity": 116,
      "chip": "ym2612"
    },
    {
      "channel": 3,
      "note": 61,
      "start": 7.418,
      "duration": 0.377,
      "velocity": 91,
      "chip": "ym2612"
    },
    {
      "channel": 2,
      "note": 38,
      "start": 7.4191,
      "duration": 0.1064,
      "velocity": 120,
      "chip": "ym2612"
    },
    {
      "channel": 1,
      "note": 54,
      "start": 7.5435,
      "duration": 0.1249,
      "velocity": 91,
      "chip": "ym2612"
    },
    {
      "channel": 2,
      "note": 60,
      "start": 7.5449,
      "duration": 0.1203,
      "velocity": 122,
      "chip": "ym2612"
    },
    {
      "channel": 5,
      "note": 61,
      "start": 7.5729,
      "duration": 0.1251,
      "velocity": 122,
      "chip": "ym2612"
    },
    {
      "channel": 1,
      "note": 54,
      "start": 7.6691,
      "duration": 0.1249,
      "velocity": 91,
      "chip": "ym2612"
    },
    {
      "channel": 2,
      "note": 38,
      "start": 7.6708,
      "duration": 0.1059,
      "velocity": 120,
      "chip": "ym2612"
    },
    {
      "channel": 1,
      "note": 54,
      "start": 7.7949,
      "duration": 0.1248,
      "velocity": 91,
      "chip": "ym2612"
    },
    {
      "channel": 3,
      "note": 59,
      "start": 7.7956,
      "duration": 0.2512,
      "velocity": 91,
      "chip": "ym2612"
    },
    {
      "channel": 2,
      "note": 57,
      "start": 7.7968,
      "duration": 0.1198,
      "velocity": 116,
      "chip": "ym2612"
    },
    {
      "channel": 1,
      "note": 54,
      "start": 7.9205,
      "duration": 0.1253,
      "velocity": 91,
      "chip": "ym2612"
    },
    {
      "channel": 2,
      "note": 57,
      "start": 7.922,
      "duration": 0.1203,
      "velocity": 116,
      "chip": "ym2612"
    },
    {
      "channel": 1,
      "note": 54,
      "start": 8.0465,
      "duration": 0.1217,
      "velocity": 91,
      "chip": "ym2612"
    },
    {
      "channel": 3,
      "note": 54,
      "start": 8.0473,
      "duration": 0.1218,
      "velocity": 91,
      "chip": "ym2612"
    },
    {
      "channel": 2,
      "note": 38,
      "start": 8.0484,
      "duration": 0.1052,
      "velocity": 120,
      "chip": "ym2612"
    },
    {
      "channel": 1,
      "note": 54,
      "start": 8.169,
      "duration": 0.1276,
      "velocity": 91,
      "chip": "ym2612"
    },
    {
      "channel": 3,
      "note": 54,
      "start": 8.1698,
      "duration": 0.1277,
      "velocity": 91,
      "chip": "ym2612"
    },
    {
      "channel": 1,
      "note": 54,
      "start": 8.2974,
      "duration": 0.1249,
      "velocity": 91,
      "chip": "ym2612"
    },
    {
      "channel": 3,
      "note": 54,
      "start": 8.298,
      "duration": 0.1251,
      "velocity": 91,
      "chip": "ym2612"
    },
    {
      "channel": 2,
      "note": 57,
      "start": 8.2992,
      "duration": 0.1199,
      "velocity": 116,
      "chip": "ym2612"
    },
    {
      "channel": 1,
      "note": 54,
      "start": 8.423,
      "duration": 0.1249,
      "velocity": 91,
      "chip": "ym2612"
    },
    {
      "channel": 3,
      "note": 54,
      "start": 8.4237,
      "duration": 0.1251,
      "velocity": 91,
      "chip": "ym2612"
    },
    {
      "channel": 2,
      "note": 57,
      "start": 8.4249,
      "duration": 0.1199,
      "velocity": 116,
      "chip": "ym2612"
    },
    {
      "channel": 1,
      "note": 54,
      "start": 8.5486,
      "duration": 0.2506,
      "velocity": 91,
      "chip": "ym2612"
    },
    {
      "channel": 3,
      "note": 54,
      "start": 8.5494,
      "duration": 0.1244,
      "velocity": 91,
      "chip": "ym2612"
    },
    {
      "channel": 2,
      "note": 60,
      "start": 8.5505,
      "duration": 0.1198,
      "velocity": 122,
      "chip": "ym2612"
    },
    {
      "channel": 5,
      "note": 61,
      "start": 8.5781,
      "duration": 0.1251,
      "velocity": 122,
      "chip": "ym2612"
    },
    {
      "channel": 3,
      "note": 61,
      "start": 8.6745,
      "duration": 0.1257,
      "velocity": 91,
      "chip": "ym2612"
    },
    {
      "channel": 2,
      "note": 38,
      "start": 8.6759,
      "duration": 0.1061,
      "velocity": 120,
      "chip": "ym2612"
    },
    {
      "channel": 1,
      "note": 54,
      "start": 8.8,
      "duration": 0.1248,
      "velocity": 91,
      "chip": "ym2612"
    },
    {
      "channel": 3,
      "note": 59,
      "start": 8.8008,
      "duration": 0.2509,
      "velocity": 91,
      "chip": "ym2612"
    },
    {
      "channel": 2,
      "note": 57,
      "start": 8.802,
      "duration": 0.1198,
      "velocity": 116,
      "chip": "ym2612"
    },
    {
      "channel": 1,
      "note": 54,
      "start": 8.9257,
      "duration": 0.1251,
      "velocity": 91,
      "chip": "ym2612"
    },
    {
      "channel": 2,
      "note": 57,
      "start": 8.9271,
      "duration": 0.1205,
      "velocity": 116,
      "chip": "ym2612"
    },
    {
      "channel": 1,
      "note": 54,
      "start": 9.0516,
      "duration": 0.2506,
      "velocity": 91,
      "chip": "ym2612"
    },
    {
      "channel": 3,
      "note": 66,
      "start": 9.0523,
      "duration": 0.3755,
      "velocity": 91,
      "chip": "ym2612"
    },
    {
      "channel": 2,
      "note": 38,
      "start": 9.0534,
      "duration": 0.1055,
      "velocity": 120,
      "chip": "ym2612"
    },
    {
      "channel": 2,
      "note": 38,
      "start": 9.1778,
      "duration": 0.1066,
      "velocity": 120,
      "chip": "ym2612"
    },
    {
      "channel": 0,
      "note": 70,
      "start": 9.302,
      "duration": 0.2507,
      "velocity": 91,
      "chip": "ym2612"
    },
    {
      "channel": 1,
      "note": 54,
      "start": 9.3029,
      "duration": 0.2505,
      "velocity": 91,
      "chip": "ym2612"
    },
    {
      "channel": 2,
      "note": 57,
      "start": 9.3044,
      "duration": 0.1198,
      "velocity": 116,
      "chip": "ym2612"
    },
    {
      "channel": 3,
      "note": 64,
      "start": 9.4283,
      "duration": 0.3773,
      "velocity": 91,
      "chip": "ym2612"
    },
    {
      "channel": 2,
      "note": 38,
      "start": 9.4295,
      "duration": 0.1062,
      "velocity": 120,
      "chip": "ym2612"
    },
    {
      "channel": 0,
      "note": 71,
      "start": 9.5533,
      "duration": 0.2507,
      "velocity": 91,
      "chip": "ym2612"
    },
    {
      "channel": 1,
      "note": 54,
      "start": 9.5542,
      "duration": 0.1246,
      "velocity": 91,
      "chip": "ym2612"
    },
    {
      "channel": 4,
      "note": 70,
      "start": 9.5553,
      "duration": 0.2512,
      "velocity": 91,
      "chip": "ym2612"
    },
    {
      "channel": 2,
      "note": 60,
      "start": 9.5561,
      "duration": 0.1195,
      "velocity": 122,
      "chip": "ym2612"
    },
    {
      "channel": 5,
      "note": 61,
      "start": 9.5834,
      "duration": 0.1251,
      "velocity": 122,
      "chip": "ym2612"
    },
    {
      "channel": 1,
      "note": 54,
      "start": 9.6795,
      "duration": 0.1253,
      "velocity": 91,
      "chip": "ym2612"
    },
    {
      "channel": 2,
      "note": 38,
      "start": 9.6813,
      "duration": 0.1058,
      "velocity": 120,
      "chip": "ym2612"
    },
    {
      "channel": 0,
      "note": 73,
      "start": 9.8046,
      "duration": 0.251,
      "velocity": 91,
      "chip": "ym2612"
    },
    {
      "channel": 1,
      "note": 54,
      "start": 9.8055,
      "duration": 0.1245,
      "velocity": 91,
      "chip": "ym2612"
    },
    {
      "channel": 3,
      "note": 68,
      "start": 9.8063,
      "duration": 0.2516,
      "velocity": 91,
      "chip": "ym2612"
    },
    {
      "channel": 4,
      "note": 71,
      "start": 9.807,
      "duration": 0.2517,
      "velocity": 91,
      "chip": "ym2612"
    },
    {
      "channel": 2,
      "note": 57,
      "start": 9.8079,
      "duration": 0.119,
      "velocity": 116,
      "chip": "ym2612"
    },
    {
      "channel": 1,
      "note": 54,
      "start": 9.9307,
      "duration": 0.1259,
      "velocity": 91,
      "chip": "ym2612"
    },
    {
      "channel": 2,
      "note": 57,
      "start": 9.9323,
      "duration": 0.1203,
      "velocity": 116,
      "chip": "ym2612"
    },
    {
      "channel": 0,
      "note": 76,
      "start": 10.0561,
      "duration": 1.7583,
      "velocity": 91,
      "chip": "ym2612"
    },
    {
      "channel": 1,
      "note": 54,
      "start": 10.0575,
      "duration": 0.1212,
      "velocity": 91,
      "chip": "ym2612"
    },
    {
      "channel": 3,
      "note": 54,
      "start": 10.0585,
      "duration": 0.1211,
      "velocity": 91,
      "chip": "ym2612"
    },
    {
      "channel": 4,
      "note": 73,
      "start": 10.0593,
      "duration": 0.2495,
      "velocity": 91,
      "chip": "ym2612"
    },
    {
      "channel": 2,
      "note": 38,
      "start": 10.0601,
      "duration": 0.1039,
      "velocity": 120,
      "chip": "ym2612"
    },
    {
      "channel": 1,
      "note": 54,
      "start": 10.1795,
      "duration": 0.1275,
      "velocity": 91,
      "chip": "ym2612"
    },
    {
      "channel": 3,
      "note": 54,
      "start": 10.1802,
      "duration": 0.1277,
      "velocity": 91,
      "chip": "ym2612"
    },
    {
      "channel": 1,
      "note": 54,
      "start": 10.3077,
      "duration": 0.1249,
      "velocity": 91,
      "chip": "ym2612"
    },
    {
      "channel": 3,
      "note": 54,
      "start": 10.3085,
      "duration": 0.125,
      "velocity": 91,
      "chip": "ym2612"
    },
    {
      "channel": 4,
      "note": 76,
      "start": 10.3094,
      "duration": 1.7592,
      "velocity": 91,
      "chip": "ym2612"
    },
    {
      "channel": 2,
      "note": 57,
      "start": 10.3101,
      "duration": 0.1193,
      "velocity": 116,
      "chip": "ym2612"
    },
    {
      "channel": 1,
      "note": 54,
      "start": 10.4334,
      "duration": 0.1249,
      "velocity": 91,
      "chip": "ym2612"
    },
    {
      "channel": 3,
      "note": 54,
      "start": 10.4341,
      "duration": 0.2503,
      "velocity": 91,
      "chip": "ym2612"
    },
    {
      "channel": 2,
      "note": 57,
      "start": 10.4353,
      "duration": 0.1198,
      "velocity": 116,
      "chip": "ym2612"
    },
    {
      "channel": 1,
      "note": 54,
      "start": 10.5591,
      "duration": 0.2505,
      "velocity": 91,
      "chip": "ym2612"
    },
    {
      "channel": 2,
      "note": 60,
      "start": 10.5606,
      "duration": 0.1202,
      "velocity": 122,
      "chip": "ym2612"
    },
    {
      "channel": 5,
      "note": 61,
      "start": 10.5886,
      "duration": 0.1251,
      "velocity": 122,
      "chip": "ym2612"
    },
    {
      "channel": 3,
      "note": 61,
      "start": 10.6849,
      "duration": 0.1256,
      "velocity": 91,
      "chip": "ym2612"
    },
    {
      "channel": 2,
      "note": 38,
      "start": 10.6863,
      "duration": 0.1061,
      "velocity": 120,
      "chip": "ym2612"
    },
    {
      "channel": 1,
      "note": 54,
      "start": 10.8104,
      "duration": 0.1247,
      "velocity": 91,
      "chip": "ym2612"
    },
    {
      "channel": 3,
      "note": 59,
      "start": 10.8111,
      "duration": 0.2507,
      "velocity": 91,
      "chip": "ym2612"
    },
    {
      "channel": 2,
      "note": 57,
      "start": 10.8123,
      "duration": 0.1197,
      "velocity": 116,
      "chip": "ym2612"
    },
    {
      "channel": 1,
      "note": 54,
      "start": 10.9359,
      "duration": 0.125,
      "velocity": 91,
      "chip": "ym2612"
    },
    {
      "channel": 2,
      "note": 57,
      "start": 10.9374,
      "duration": 0.1203,
      "velocity": 116,
      "chip": "ym2612"
    },
    {
      "channel": 1,
      "note": 54,
      "start": 11.0617,
      "duration": 0.2506,
      "velocity": 91,
      "chip": "ym2612"
    },
    {
      "channel": 3,
      "note": 64,
      "start": 11.0624,
      "duration": 0.3758,
      "velocity": 91,
      "chip": "ym2612"
    },
    {
      "channel": 2,
      "note": 38,
      "start": 11.0636,
      "duration": 0.1057,
      "velocity": 120,
      "chip": "ym2612"
    },
    {
      "channel": 2,
      "note": 38,
      "start": 11.1882,
      "duration": 0.1068,
      "velocity": 120,
      "chip": "ym2612"
    },
    {
      "channel": 1,
      "note": 54,
      "start": 11.3131,
      "duration": 0.2504,
      "velocity": 91,
      "chip": "ym2612"
    },
    {
      "channel": 2,
      "note": 57,
      "start": 11.3145,
      "duration": 0.1202,
      "velocity": 116,
      "chip": "ym2612"
    },
    {
      "channel": 3,
      "note": 61,
      "start": 11.4388,
      "duration": 0.3773,
      "velocity": 91,
      "chip": "ym2612"
    },
    {
      "channel": 2,
      "note": 38,
      "start": 11.4399,
      "duration": 0.1063,
      "velocity": 120,
      "chip": "ym2612"
    },
    {
      "channel": 1,
      "note": 54,
      "start": 11.5643,
      "duration": 0.1249,
      "velocity": 91,
      "chip": "ym2612"
    },
    {
      "channel": 2,
      "note": 60,
      "start": 11.5657,
      "duration": 0.1202,
      "velocity": 122,
      "chip": "ym2612"
    },
    {
      "channel": 5,
      "note": 61,
      "start": 11.5938,
      "duration": 0.125,
      "velocity": 122,
      "chip": "ym2612"
    },
    {
      "channel": 1,
      "note": 54,
      "start": 11.6899,
      "duration": 0.1253,
      "velocity": 91,
      "chip": "ym2612"
    },
    {
      "channel": 2,
      "note": 38,
      "start": 11.6916,
      "duration": 0.1059,
      "velocity": 120,
      "chip": "ym2612"
    },
    {
      "channel": 0,
      "note": 66,
      "start": 11.8151,
      "duration": 0.1251,
      "velocity": 91,
      "chip": "ym2612"
    },
    {
      "channel": 1,
      "note": 54,
      "start": 11.8159,
      "duration": 0.1249,
      "velocity": 91,
      "chip": "ym2612"
    },
    {
      "channel": 3,
      "note": 59,
      "start": 11.8167,
      "duration": 0.2511,
      "velocity": 91,
      "chip": "ym2612"
    },
    {
      "channel": 2,
      "note": 57,
      "start": 11.8178,
      "duration": 0.1194,
      "velocity": 116,
      "chip": "ym2612"
    },
    {
      "channel": 0,
      "note": 67,
      "start": 11.9407,
      "duration": 0.1251,
      "velocity": 91,
      "chip": "ym2612"
    },
    {
      "channel": 1,
      "note": 54,
      "start": 11.9416,
      "duration": 0.1253,
      "velocity": 91,
      "chip": "ym2612"
    },
    {
      "channel": 2,
      "note": 57,
      "start": 11.9431,
      "duration": 0.1198,
      "velocity": 116,
      "chip": "ym2612"
    },
    {
      "channel": 0,
      "note": 66,
      "start": 12.0664,
      "duration": 1.2558,
      "velocity": 91,
      "chip": "ym2612"
    },
    {
      "channel": 1,
      "note": 54,
      "start": 12.0677,
      "duration": 0.1214,
      "velocity": 91,
      "chip": "ym2612"
    },
    {
      "channel": 3,
      "note": 54,
      "start": 12.0684,
      "duration": 0.1215,
      "velocity": 91,
      "chip": "ym2612"
    },
    {
      "channel": 4,
      "note": 66,
      "start": 12.0692,
      "duration": 0.1215,
      "velocity": 91,
      "chip": "ym2612"
    },
    {
      "channel": 2,
      "note": 38,
      "start": 12.07,
      "duration": 0.1044,
      "velocity": 120,
      "chip": "ym2612"
    },
    {
      "channel": 1,
      "note": 54,
      "start": 12.1898,
      "duration": 0.1276,
      "velocity": 91,
      "chip": "ym2612"
    },
    {
      "channel": 3,
      "note": 54,
      "start": 12.1905,
      "duration": 0.1278,
      "velocity": 91,
      "chip": "ym2612"
    },
    {
      "channel": 4,
      "note": 67,
      "start": 12.1912,
      "duration": 0.1278,
      "velocity": 91,
      "chip": "ym2612"
    },
    {
      "channel": 1,
      "note": 54,
      "start": 12.3182,
      "duration": 0.1249,
      "velocity": 91,
      "chip": "ym2612"
    },
    {
      "channel": 3,
      "note": 54,
      "start": 12.3189,
      "duration": 0.1251,
      "velocity": 91,
      "chip": "ym2612"
    },
    {
      "channel": 4,
      "note": 66,
      "start": 12.3196,
      "duration": 1.256,
      "velocity": 91,
      "chip": "ym2612"
    },
    {
      "channel": 2,
      "note": 57,
      "start": 12.3205,
      "duration": 0.1194,
      "velocity": 116,
      "chip": "ym2612"
    },
    {
      "channel": 1,
      "note": 54,
      "start": 12.4438,
      "duration": 0.1249,
      "velocity": 91,
      "chip": "ym2612"
    },
    {
      "channel": 3,
      "note": 54,
      "start": 12.4445,
      "duration": 0.1251,
      "velocity": 91,
      "chip": "ym2612"
    },
    {
      "channel": 2,
      "note": 57,
      "start": 12.4457,
      "duration": 0.1198,
      "velocity": 116,
      "chip": "ym2612"
    },
    {
      "channel": 1,
      "note": 54,
      "start": 12.5694,
      "duration": 0.2505,
      "velocity": 91,
      "chip": "ym2612"
    },
    {
      "channel": 3,
      "note": 54,
      "start": 12.5702,
      "duration": 0.1246,
      "velocity": 91,
      "chip": "ym2612"
    },
    {
      "channel": 2,
      "note": 60,
      "start": 12.5713,
      "duration": 0.1199,
      "velocity": 122,
      "chip": "ym2612"
    },
    {
      "channel": 5,
      "note": 61,
      "start": 12.599,
      "duration": 0.1249,
      "velocity": 122,
      "chip": "ym2612"
    },
    {
      "channel": 3,
      "note": 61,
      "start": 12.6953,
      "duration": 0.1256,
      "velocity": 91,
      "chip": "ym2612"
    },
    {
      "channel": 2,
      "note": 38,
      "start": 12.6967,
      "duration": 0.1059,
      "velocity": 120,
      "chip": "ym2612"
    },
    {
      "channel": 1,
      "note": 54,
      "start": 12.8207,
      "duration": 0.1249,
      "velocity": 91,
      "chip": "ym2612"
    },
    {
      "channel": 3,
      "note": 59,
      "start": 12.8215,
      "duration": 0.2506,
      "velocity": 91,
      "chip": "ym2612"
    },
    {
      "channel": 2,
      "note": 57,
      "start": 12.8226,
      "duration": 0.1199,
      "velocity": 116,
      "chip": "ym2612"
    },
    {
      "channel": 1,
      "note": 54,
      "start": 12.9463,
      "duration": 0.1249,
      "velocity": 91,
      "chip": "ym2612"
    },
    {
      "channel": 2,
      "note": 57,
      "start": 12.9479,
      "duration": 0.1202,
      "velocity": 116,
      "chip": "ym2612"
    },
    {
      "channel": 1,
      "note": 54,
      "start": 13.072,
      "duration": 0.251,
      "velocity": 91,
      "chip": "ym2612"
    },
    {
      "channel": 3,
      "note": 66,
      "start": 13.0727,
      "duration": 0.376,
      "velocity": 91,
      "chip": "ym2612"
    },
    {
      "channel": 2,
      "note": 38,
      "start": 13.0739,
      "duration": 0.1057,
      "velocity": 120,
      "chip": "ym2612"
    },
    {
      "channel": 2,
      "note": 38,
      "start": 13.1986,
      "duration": 0.1067,
      "velocity": 120,
      "chip": "ym2612"
    },
    {
      "channel": 0,
      "note": 65,
      "start": 13.3228,
      "duration": 0.2507,
      "velocity": 91,
      "chip": "ym2612"
    },
    {
      "channel": 1,
      "note": 54,
      "start": 13.3237,
      "duration": 0.2506,
      "velocity": 91,
      "chip": "ym2612"
    },
    {
      "channel": 2,
      "note": 57,
      "start": 13.3253,
      "duration": 0.1199,
      "velocity": 116,
      "chip": "ym2612"
    },
    {
      "channel": 3,
      "note": 64,
      "start": 13.4493,
      "duration": 0.3772,
      "velocity": 91,
      "chip": "ym2612"
    },
    {
      "channel": 2,
      "note": 38,
      "start": 13.4504,
      "duration": 0.1062,
      "velocity": 120,
      "chip": "ym2612"
    },
    {
      "channel": 0,
      "note": 64,
      "start": 13.5741,
      "duration": 0.2506,
      "velocity": 91,
      "chip": "ym2612"
    },
    {
      "channel": 1,
      "note": 54,
      "start": 13.575,
      "duration": 0.1245,
      "velocity": 91,
      "chip": "ym2612"
    },
    {
      "channel": 4,
      "note": 65,
      "start": 13.5762,
      "duration": 0.2511,
      "velocity": 91,
      "chip": "ym2612"
    },
    {
      "channel": 2,
      "note": 60,
      "start": 13.577,
      "duration": 0.1194,
      "velocity": 122,
      "chip": "ym2612"
    },
    {
      "channel": 5,
      "note": 61,
      "start": 13.6042,
      "duration": 0.125,
      "velocity": 122,
      "chip": "ym2612"
    },
    {
      "channel": 1,
      "note": 54,
      "start": 13.7003,
      "duration": 0.1253,
      "velocity": 91,
      "chip": "ym2612"
    },
    {
      "channel": 2,
      "note": 38,
      "start": 13.702,
      "duration": 0.1058,
      "velocity": 120,
      "chip": "ym2612"
    },
    {
      "channel": 0,
      "note": 63,
      "start": 13.8254,
      "duration": 0.2509,
      "velocity": 91,
      "chip": "ym2612"
    },
    {
      "channel": 1,
      "note": 54,
      "start": 13.8264,
      "duration": 0.1244,
      "velocity": 91,
      "chip": "ym2612"
    },
    {
      "channel": 3,
      "note": 68,
      "start": 13.8271,
      "duration": 0.2515,
      "velocity": 91,
      "chip": "ym2612"
    },
    {
      "channel": 4,
      "note": 64,
      "start": 13.8278,
      "duration": 0.2515,
      "velocity": 91,
      "chip": "ym2612"
    },
    {
      "channel": 2,
      "note": 57,
      "start": 13.8287,
      "duration": 0.119,
      "velocity": 116,
      "chip": "ym2612"
    },
    {
      "channel": 1,
      "note": 54,
      "start": 13.9516,
      "duration": 0.1259,
      "velocity": 91,
      "chip": "ym2612"
    },
    {
      "channel": 2,
      "note": 57,
      "start": 13.953,
      "duration": 0.1203,
      "velocity": 116,
      "chip": "ym2612"
    },
    {
      "channel": 0,
      "note": 78,
      "start": 14.0769,
      "duration": 0.5018,
      "velocity": 91,
      "chip": "ym2612"
    },
    {
      "channel": 1,
      "note": 54,
      "start": 14.0782,
      "duration": 0.1212,
      "velocity": 91,
      "chip": "ym2612"
    },
    {
      "channel": 3,
      "note": 54,
      "start": 14.0792,
      "duration": 0.1212,
      "velocity": 91,
      "chip": "ym2612"
    },
    {
      "channel": 4,
      "note": 63,
      "start": 14.0799,
      "duration": 0.2496,
      "velocity": 91,
      "chip": "ym2612"
    },
    {
      "channel": 2,
      "note": 38,
      "start": 14.0807,
      "duration": 0.1039,
      "velocity": 120,
      "chip": "ym2612"
    },
    {
      "channel": 1,
      "note": 54,
      "start": 14.2002,
      "duration": 0.1276,
      "velocity": 91,
      "chip": "ym2612"
    },
    {
      "channel": 3,
      "note": 54,
      "start": 14.201,
      "duration": 0.1277,
      "velocity": 91,
      "chip": "ym2612"
    },
    {
      "channel": 1,
      "note": 54,
      "start": 14.3286,
      "duration": 0.1247,
      "velocity": 91,
      "chip": "ym2612"
    },
    {
      "channel": 3,
      "note": 54,
      "start": 14.3293,
      "duration": 0.1249,
      "velocity": 91,
      "chip": "ym2612"
    },
    {
      "channel": 4,
      "note": 78,
      "start": 14.3301,
      "duration": 0.5019,
      "velocity": 91,
      "chip": "ym2612"
    },
    {
      "channel": 2,
      "note": 57,
      "start": 14.331,
      "duration": 0.1193,
      "velocity": 116,
      "chip": "ym2612"
    },
    {
      "channel": 1,
      "note": 54,
      "start": 14.4541,
      "duration": 0.1253,
      "velocity": 91,
      "chip": "ym2612"
    },
    {
      "channel": 3,
      "note": 54,
      "start": 14.4549,
      "duration": 0.2502,
      "velocity": 91,
      "chip": "ym2612"
    },
    {
      "channel": 2,
      "note": 57,
      "start": 14.456,
      "duration": 0.1198,
      "velocity": 116,
      "chip": "ym2612"
    },
    {
      "channel": 0,
      "note": 76,
      "start": 14.5792,
      "duration": 0.5021,
      "velocity": 91,
      "chip": "ym2612"
    },
    {
      "channel": 1,
      "note": 54,
      "start": 14.5802,
      "duration": 0.2501,
      "velocity": 91,
      "chip": "ym2612"
    },
    {
      "channel": 2,
      "note": 60,
      "start": 14.5817,
      "duration": 0.1199,
      "velocity": 122,
      "chip": "ym2612"
    },
    {
      "channel": 5,
      "note": 61,
      "start": 14.6094,
      "duration": 0.1249,
      "velocity": 122,
      "chip": "ym2612"
    },
    {
      "channel": 3,
      "note": 61,
      "start": 14.7056,
      "duration": 0.1256,
      "velocity": 91,
      "chip": "ym2612"
    },
    {
      "channel": 2,
      "note": 38,
      "start": 14.707,
      "duration": 0.1061,
      "velocity": 120,
      "chip": "ym2612"
    },
    {
      "channel": 1,
      "note": 54,
      "start": 14.8311,
      "duration": 0.1248,
      "velocity": 91,
      "chip": "ym2612"
    },
    {
      "channel": 3,
      "note": 59,
      "start": 14.8318,
      "duration": 0.2512,
      "velocity": 91,
      "chip": "ym2612"
    },
    {
      "channel": 4,
      "note": 76,
      "start": 14.8326,
      "duration": 0.5017,
      "velocity": 91,
      "chip": "ym2612"
    },
    {
      "channel": 2,
      "note": 57,
      "start": 14.8334,
      "duration": 0.1194,
      "velocity": 116,
      "chip": "ym2612"
    },
    {
      "channel": 1,
      "note": 54,
      "start": 14.9567,
      "duration": 0.1253,
      "velocity": 91,
      "chip": "ym2612"
    },
    {
      "channel": 2,
      "note": 57,
      "start": 14.9582,
      "duration": 0.1202,
      "velocity": 116,
      "chip": "ym2612"
    },
    {
      "channel": 0,
      "note": 70,
      "start": 15.0819,
      "duration": 2.2611,
      "velocity": 91,
      "chip": "ym2612"
    },
    {
      "channel": 1,
      "note": 54,
      "start": 15.0829,
      "duration": 0.2501,
      "velocity": 91,
      "chip": "ym2612"
    },
    {
      "channel": 3,
      "note": 64,
      "start": 15.0836,
      "duration": 0.3754,
      "velocity": 91,
      "chip": "ym2612"
    },
    {
      "channel": 2,
      "note": 38,
      "start": 15.0847,
      "duration": 0.1053,
      "velocity": 120,
      "chip": "ym2612"
    },
    {
      "channel": 2,
      "note": 38,
      "start": 15.209,
      "duration": 0.1066,
      "velocity": 120,
      "chip": "ym2612"
    },
    {
      "channel": 1,
      "note": 54,
      "start": 15.3337,
      "duration": 0.2508,
      "velocity": 91,
      "chip": "ym2612"
    },
    {
      "channel": 4,
      "note": 70,
      "start": 15.3348,
      "duration": 2.2615,
      "velocity": 91,
      "chip": "ym2612"
    },
    {
      "channel": 2,
      "note": 57,
      "start": 15.3356,
      "duration": 0.1198,
      "velocity": 116,
      "chip": "ym2612"
    },
    {
      "channel": 3,
      "note": 61,
      "start": 15.4595,
      "duration": 0.377,
      "velocity": 91,
      "chip": "ym2612"
    },
    {
      "channel": 2,
      "note": 38,
      "start": 15.4607,
      "duration": 0.1067,
      "velocity": 120,
      "chip": "ym2612"
    },
    {
      "channel": 1,
      "note": 54,
      "start": 15.5853,
      "duration": 0.1245,
      "velocity": 91,
      "chip": "ym2612"
    },
    {
      "channel": 2,
      "note": 60,
      "start": 15.5869,
      "duration": 0.1198,
      "velocity": 122,
      "chip": "ym2612"
    },
    {
      "channel": 5,
      "note": 61,
      "start": 15.6147,
      "duration": 0.1249,
      "velocity": 122,
      "chip": "ym2612"
    },
    {
      "channel": 1,
      "note": 54,
      "start": 15.7106,
      "duration": 0.1249,
      "velocity": 91,
      "chip": "ym2612"
    },
    {
      "channel": 2,
      "note": 38,
      "start": 15.7124,
      "duration": 0.1059,
      "velocity": 120,
      "chip": "ym2612"
    },
    {
      "channel": 1,
      "note": 54,
      "start": 15.8363,
      "duration": 0.1249,
      "velocity": 91,
      "chip": "ym2612"
    },
    {
      "channel": 3,
      "note": 59,
      "start": 15.8371,
      "duration": 0.2511,
      "velocity": 91,
      "chip": "ym2612"
    },
    {
      "channel": 2,
      "note": 57,
      "start": 15.8382,
      "duration": 0.1198,
      "velocity": 116,
      "chip": "ym2612"
    },
    {
      "channel": 1,
      "note": 54,
      "start": 15.9619,
      "duration": 0.1253,
      "velocity": 91,
      "chip": "ym2612"
    },
    {
      "channel": 2,
      "note": 57,
      "start": 15.9634,
      "duration": 0.1202,
      "velocity": 116,
      "chip": "ym2612"
    },
    {
      "channel": 1,
      "note": 54,
      "start": 16.088,
      "duration": 0.1218,
      "velocity": 91,
      "chip": "ym2612"
    },
    {
      "channel": 3,
      "note": 54,
      "start": 16.0887,
      "duration": 0.122,
      "velocity": 91,
      "chip": "ym2612"
    },
    {
      "channel": 2,
      "note": 38,
      "start": 16.0899,
      "duration": 0.1053,
      "velocity": 120,
      "chip": "ym2612"
    },
    {
      "channel": 1,
      "note": 54,
      "start": 16.2105,
      "duration": 0.1276,
      "velocity": 91,
      "chip": "ym2612"
    },
    {
      "channel": 3,
      "note": 54,
      "start": 16.2113,
      "duration": 0.1277,
      "velocity": 91,
      "chip": "ym2612"
    },
    {
      "channel": 1,
      "note": 54,
      "start": 16.3388,
      "duration": 0.1249,
      "velocity": 91,
      "chip": "ym2612"
    },
    {
      "channel": 3,
      "note": 54,
      "start": 16.3396,
      "duration": 0.1251,
      "velocity": 91,
      "chip": "ym2612"
    },
    {
      "channel": 2,
      "note": 57,
      "start": 16.3407,
      "duration": 0.1198,
      "velocity": 116,
      "chip": "ym2612"
    },
    {
      "channel": 1,
      "note": 54,
      "start": 16.4645,
      "duration": 0.1249,
      "velocity": 91,
      "chip": "ym2612"
    },
    {
      "channel": 3,
      "note": 54,
      "start": 16.4652,
      "duration": 0.1251,
      "velocity": 91,
      "chip": "ym2612"
    },
    {
      "channel": 2,
      "note": 57,
      "start": 16.4664,
      "duration": 0.1199,
      "velocity": 116,
      "chip": "ym2612"
    },
    {
      "channel": 1,
      "note": 54,
      "start": 16.5902,
      "duration": 0.2505,
      "velocity": 91,
      "chip": "ym2612"
    },
    {
      "channel": 3,
      "note": 54,
      "start": 16.5909,
      "duration": 0.1244,
      "velocity": 91,
      "chip": "ym2612"
    },
    {
      "channel": 2,
      "note": 60,
      "start": 16.5922,
      "duration": 0.1197,
      "velocity": 122,
      "chip": "ym2612"
    },
    {
      "channel": 5,
      "note": 61,
      "start": 16.6196,
      "duration": 0.1251,
      "velocity": 122,
      "chip": "ym2612"
    },
    {
      "channel": 3,
      "note": 61,
      "start": 16.7159,
      "duration": 0.1258,
      "velocity": 91,
      "chip": "ym2612"
    },
    {
      "channel": 2,
      "note": 38,
      "start": 16.7173,
      "duration": 0.106,
      "velocity": 120,
      "chip": "ym2612"
    },
    {
      "channel": 1,
      "note": 54,
      "start": 16.8415,
      "duration": 0.1248,
      "velocity": 91,
      "chip": "ym2612"
    },
    {
      "channel": 3,
      "note": 59,
      "start": 16.8423,
      "duration": 0.2506,
      "velocity": 91,
      "chip": "ym2612"
    },
    {
      "channel": 2,
      "note": 57,
      "start": 16.8435,
      "duration": 0.1197,
      "velocity": 116,
      "chip": "ym2612"
    },
    {
      "channel": 1,
      "note": 54,
      "start": 16.9671,
      "duration": 0.125,
      "velocity": 91,
      "chip": "ym2612"
    },
    {
      "channel": 2,
      "note": 57,
      "start": 16.9686,
      "duration": 0.1203,
      "velocity": 116,
      "chip": "ym2612"
    },
    {
      "channel": 1,
      "note": 54,
      "start": 17.0928,
      "duration": 0.2509,
      "velocity": 91,
      "chip": "ym2612"
    },
    {
      "channel": 3,
      "note": 66,
      "start": 17.0936,
      "duration": 0.3756,
      "velocity": 91,
      "chip": "ym2612"
    },
    {
      "channel": 2,
      "note": 38,
      "start": 17.0948,
      "duration": 0.1055,
      "velocity": 120,
      "chip": "ym2612"
    },
    {
      "channel": 2,
      "note": 38,
      "start": 17.2193,
      "duration": 0.1068,
      "velocity": 120,
      "chip": "ym2612"
    },
    {
      "channel": 0,
      "note": 70,
      "start": 17.3436,
      "duration": 0.2508,
      "velocity": 91,
      "chip": "ym2612"
    },
    {
      "channel": 1,
      "note": 54,
      "start": 17.3445,
      "duration": 0.2506,
      "velocity": 91,
      "chip": "ym2612"
    },
    {
      "channel": 2,
      "note": 57,
      "start": 17.346,
      "duration": 0.1197,
      "velocity": 116,
      "chip": "ym2612"
    },
    {
      "channel": 3,
      "note": 64,
      "start": 17.4698,
      "duration": 0.3773,
      "velocity": 91,
      "chip": "ym2612"
    },
    {
      "channel": 2,
      "note": 38,
      "start": 17.471,
      "duration": 0.1064,
      "velocity": 120,
      "chip": "ym2612"
    },
    {
      "channel": 0,
      "note": 71,
      "start": 17.5949,
      "duration": 0.2506,
      "velocity": 91,
      "chip": "ym2612"
    },
    {
      "channel": 1,
      "note": 54,
      "start": 17.5958,
      "duration": 0.1244,
      "velocity": 91,
      "chip": "ym2612"
    },
    {
      "channel": 4,
      "note": 70,
      "start": 17.597,
      "duration": 0.251,
      "velocity": 91,
      "chip": "ym2612"
    },
    {
      "channel": 2,
      "note": 60,
      "start": 17.5978,
      "duration": 0.1192,
      "velocity": 122,
      "chip": "ym2612"
    },
    {
      "channel": 5,
      "note": 61,
      "start": 17.6249,
      "duration": 0.1253,
      "velocity": 122,
      "chip": "ym2612"
    },
    {
      "channel": 1,
      "note": 54,
      "start": 17.721,
      "duration": 0.1253,
      "velocity": 91,
      "chip": "ym2612"
    },
    {
      "channel": 2,
      "note": 38,
      "start": 17.7227,
      "duration": 0.1061,
      "velocity": 120,
      "chip": "ym2612"
    },
    {
      "channel": 0,
      "note": 73,
      "start": 17.8461,
      "duration": 0.2508,
      "velocity": 91,
      "chip": "ym2612"
    },
    {
      "channel": 1,
      "note": 54,
      "start": 17.8471,
      "duration": 0.1245,
      "velocity": 91,
      "chip": "ym2612"
    },
    {
      "channel": 3,
      "note": 68,
      "start": 17.8478,
      "duration": 0.2515,
      "velocity": 91,
      "chip": "ym2612"
    },
    {
      "channel": 4,
      "note": 71,
      "start": 17.8486,
      "duration": 0.2515,
      "velocity": 91,
      "chip": "ym2612"
    },
    {
      "channel": 2,
      "note": 57,
      "start": 17.8493,
      "duration": 0.1191,
      "velocity": 116,
      "chip": "ym2612"
    },
    {
      "channel": 1,
      "note": 54,
      "start": 17.9723,
      "duration": 0.1258,
      "velocity": 91,
      "chip": "ym2612"
    },
    {
      "channel": 2,
      "note": 57,
      "start": 17.9738,
      "duration": 0.1202,
      "velocity": 116,
      "chip": "ym2612"
    },
    {
      "channel": 0,
      "note": 76,
      "start": 18.0976,
      "duration": 1.7583,
      "velocity": 91,
      "chip": "ym2612"
    },
    {
      "channel": 1,
      "note": 54,
      "start": 18.0989,
      "duration": 0.1213,
      "velocity": 91,
      "chip": "ym2612"
    },
    {
      "channel": 3,
      "note": 54,
      "start": 18.0999,
      "duration": 0.1212,
      "velocity": 91,
      "chip": "ym2612"
    },
    {
      "channel": 4,
      "note": 73,
      "start": 18.1007,
      "duration": 0.2496,
      "velocity": 91,
      "chip": "ym2612"
    },
    {
      "channel": 2,
      "note": 38,
      "start": 18.1015,
      "duration": 0.1041,
      "velocity": 120,
      "chip": "ym2612"
    },
    {
      "channel": 1,
      "note": 54,
      "start": 18.221,
      "duration": 0.1276,
      "velocity": 91,
      "chip": "ym2612"
    },
    {
      "channel": 3,
      "note": 54,
      "start": 18.2217,
      "duration": 0.1278,
      "velocity": 91,
      "chip": "ym2612"
    },
    {
      "channel": 1,
      "note": 54,
      "start": 18.3493,
      "duration": 0.1249,
      "velocity": 91,
      "chip": "ym2612"
    },
    {
      "channel": 3,
      "note": 54,
      "start": 18.35,
      "duration": 0.1251,
      "velocity": 91,
      "chip": "ym2612"
    },
    {
      "channel": 4,
      "note": 76,
      "start": 18.3509,
      "duration": 1.7593,
      "velocity": 91,
      "chip": "ym2612"
    },
    {
      "channel": 2,
      "note": 57,
      "start": 18.3517,
      "duration": 0.1193,
      "velocity": 116,
      "chip": "ym2612"
    },
    {
      "channel": 1,
      "note": 54,
      "start": 18.4749,
      "duration": 0.1249,
      "velocity": 91,
      "chip": "ym2612"
    },
    {
      "channel": 3,
      "note": 54,
      "start": 18.4757,
      "duration": 0.2502,
      "velocity": 91,
      "chip": "ym2612"
    },
    {
      "channel": 2,
      "note": 57,
      "start": 18.4769,
      "duration": 0.1197,
      "velocity": 116,
      "chip": "ym2612"
    },
    {
      "channel": 1,
      "note": 54,
      "start": 18.6005,
      "duration": 0.2506,
      "velocity": 91,
      "chip": "ym2612"
    },
    {
      "channel": 2,
      "note": 60,
      "start": 18.602,
      "duration": 0.1204,
      "velocity": 122,
      "chip": "ym2612"
    },
    {
      "channel": 5,
      "note": 61,
      "start": 18.6301,
      "duration": 0.125,
      "velocity": 122,
      "chip": "ym2612"
    },
    {
      "channel": 3,
      "note": 61,
      "start": 18.7265,
      "duration": 0.1255,
      "velocity": 91,
      "chip": "ym2612"
    },
    {
      "channel": 2,
      "note": 38,
      "start": 18.7279,
      "duration": 0.1059,
      "velocity": 120,
      "chip": "ym2612"
    },
    {
      "channel": 1,
      "note": 54,
      "start": 18.8519,
      "duration": 0.1249,
      "velocity": 91,
      "chip": "ym2612"
    },
    {
      "channel": 3,
      "note": 59,
      "start": 18.8526,
      "duration": 0.2507,
      "velocity": 91,
      "chip": "ym2612"
    },
    {
      "channel": 2,
      "note": 57,
      "start": 18.8538,
      "duration": 0.1198,
      "velocity": 116,
      "chip": "ym2612"
    },
    {
      "channel": 1,
      "note": 54,
      "start": 18.9775,
      "duration": 0.1248,
      "velocity": 91,
      "chip": "ym2612"
    },
    {
      "channel": 2,
      "note": 57,
      "start": 18.979,
      "duration": 0.1202,
      "velocity": 116,
      "chip": "ym2612"
    },
    {
      "channel": 1,
      "note": 54,
      "start": 19.1031,
      "duration": 0.2506,
      "velocity": 91,
      "chip": "ym2612"
    },
    {
      "channel": 3,
      "note": 64,
      "start": 19.1039,
      "duration": 0.3758,
      "velocity": 91,
      "chip": "ym2612"
    },
    {
      "channel": 2,
      "note": 38,
      "start": 19.105,
      "duration": 0.1057,
      "velocity": 120,
      "chip": "ym2612"
    },
    {
      "channel": 2,
      "note": 38,
      "start": 19.2298,
      "duration": 0.1066,
      "velocity": 120,
      "chip": "ym2612"
    },
    {
      "channel": 1,
      "note": 54,
      "start": 19.3544,
      "duration": 0.2505,
      "velocity": 91,
      "chip": "ym2612"
    },
    {
      "channel": 2,
      "note": 57,
      "start": 19.3559,
      "duration": 0.1202,
      "velocity": 116,
      "chip": "ym2612"
    },
    {
      "channel": 3,
      "note": 61,
      "start": 19.4802,
      "duration": 0.3773,
      "velocity": 91,
      "chip": "ym2612"
    },
    {
      "channel": 2,
      "note": 38,
      "start": 19.4814,
      "duration": 0.1062,
      "velocity": 120,
      "chip": "ym2612"
    },
    {
      "channel": 1,
      "note": 54,
      "start": 19.6057,
      "duration": 0.1249,
      "velocity": 91,
      "chip": "ym2612"
    },
    {
      "channel": 2,
      "note": 60,
      "start": 19.6072,
      "duration": 0.1203,
      "velocity": 122,
      "chip": "ym2612"
    },
    {
      "channel": 5,
      "note": 61,
      "start": 19.6352,
      "duration": 0.1251,
      "velocity": 122,
      "chip": "ym2612"
    },
    {
      "channel": 1,
      "note": 54,
      "start": 19.7314,
      "duration": 0.1252,
      "velocity": 91,
      "chip": "ym2612"
    },
    {
      "channel": 2,
      "note": 38,
      "start": 19.7332,
      "duration": 0.1057,
      "velocity": 120,
      "chip": "ym2612"
    },
    {
      "channel": 0,
      "note": 78,
      "start": 19.8565,
      "duration": 0.1253,
      "velocity": 91,
      "chip": "ym2612"
    },
    {
      "channel": 1,
      "note": 54,
      "start": 19.8574,
      "duration": 0.1251,
      "velocity": 91,
      "chip": "ym2612"
    },
    {
      "channel": 3,
      "note": 59,
      "start": 19.8581,
      "duration": 0.2513,
      "velocity": 91,
      "chip": "ym2612"
    },
    {
      "channel": 2,
      "note": 57,
      "start": 19.8593,
      "duration": 0.1196,
      "velocity": 116,
      "chip": "ym2612"
    },
    {
      "channel": 0,
      "note": 79,
      "start": 19.9824,
      "duration": 0.1249,
      "velocity": 91,
      "chip": "ym2612"
    },
    {
      "channel": 1,
      "note": 54,
      "start": 19.9832,
      "duration": 0.1253,
      "velocity": 91,
      "chip": "ym2612"
    },
    {
      "channel": 2,
      "note": 57,
      "start": 19.9848,
      "duration": 0.1197,
      "velocity": 116,
      "chip": "ym2612"
    },
    {
      "channel": 0,
      "note": 82,
      "start": 20.1079,
      "duration": 0.7533,
      "velocity": 91,
      "chip": "ym2612"
    },
    {
      "channel": 1,
      "note": 54,
      "start": 20.1093,
      "duration": 0.1213,
      "velocity": 91,
      "chip": "ym2612"
    },
    {
      "channel": 3,
      "note": 54,
      "start": 20.11,
      "duration": 0.1215,
      "velocity": 91,
      "chip": "ym2612"
    },
    {
      "channel": 4,
      "note": 78,
      "start": 20.1107,
      "duration": 0.1215,
      "velocity": 91,
      "chip": "ym2612"
    },
    {
      "channel": 2,
      "note": 38,
      "start": 20.1115,
      "duration": 0.1044,
      "velocity": 120,
      "chip": "ym2612"
    },
    {
      "channel": 1,
      "note": 54,
      "start": 20.2313,
      "duration": 0.1276,
      "velocity": 91,
      "chip": "ym2612"
    },
    {
      "channel": 3,
      "note": 54,
      "start": 20.232,
      "duration": 0.1278,
      "velocity": 91,
      "chip": "ym2612"
    },
    {
      "channel": 4,
      "note": 79,
      "start": 20.2328,
      "duration": 0.1278,
      "velocity": 91,
      "chip": "ym2612"
    },
    {
      "channel": 1,
      "note": 54,
      "start": 20.3597,
      "duration": 0.1248,
      "velocity": 91,
      "chip": "ym2612"
    },
    {
      "channel": 3,
      "note": 54,
      "start": 20.3605,
      "duration": 0.1249,
      "velocity": 91,
      "chip": "ym2612"
    },
    {
      "channel": 4,
      "note": 82,
      "start": 20.3612,
      "duration": 0.7531,
      "velocity": 91,
      "chip": "ym2612"
    },
    {
      "channel": 2,
      "note": 57,
      "start": 20.3621,
      "duration": 0.1193,
      "velocity": 116,
      "chip": "ym2612"
    },
    {
      "channel": 1,
      "note": 54,
      "start": 20.4853,
      "duration": 0.1249,
      "velocity": 91,
      "chip": "ym2612"
    },
    {
      "channel": 3,
      "note": 54,
      "start": 20.486,
      "duration": 0.1251,
      "velocity": 91,
      "chip": "ym2612"
    },
    {
      "channel": 2,
      "note": 57,
      "start": 20.4872,
      "duration": 0.1198,
      "velocity": 116,
      "chip": "ym2612"
    },
    {
      "channel": 1,
      "note": 54,
      "start": 20.611,
      "duration": 0.251,
      "velocity": 91,
      "chip": "ym2612"
    },
    {
      "channel": 3,
      "note": 54,
      "start": 20.6117,
      "duration": 0.1244,
      "velocity": 91,
      "chip": "ym2612"
    },
    {
      "channel": 2,
      "note": 60,
      "start": 20.6129,
      "duration": 0.1197,
      "velocity": 122,
      "chip": "ym2612"
    },
    {
      "channel": 5,
      "note": 61,
      "start": 20.6405,
      "duration": 0.125,
      "velocity": 122,
      "chip": "ym2612"
    },
    {
      "channel": 3,
      "note": 61,
      "start": 20.7367,
      "duration": 0.1263,
      "velocity": 91,
      "chip": "ym2612"
    },
    {
      "channel": 2,
      "note": 38,
      "start": 20.7381,
      "duration": 0.1061,
      "velocity": 120,
      "chip": "ym2612"
    },
    {
      "channel": 0,
      "note": 78,
      "start": 20.8619,
      "duration": 1.259,
      "velocity": 105,
      "chip": "ym2612"
    },
    {
      "channel": 1,
      "note": 54,
      "start": 20.8628,
      "duration": 0.1242,
      "velocity": 91,
      "chip": "ym2612"
    },
    {
      "channel": 3,
      "note": 59,
      "start": 20.8635,
      "duration": 0.2501,
      "velocity": 91,
      "chip": "ym2612"
    },
    {
      "channel": 2,
      "note": 57,
      "start": 20.8647,
      "duration": 0.1192,
      "velocity": 116,
      "chip": "ym2612"
    },
    {
      "channel": 1,
      "note": 54,
      "start": 20.9878,
      "duration": 0.1249,
      "velocity": 91,
      "chip": "ym2612"
    },
    {
      "channel": 2,
      "note": 57,
      "start": 20.9893,
      "duration": 0.1202,
      "velocity": 116,
      "chip": "ym2612"
    },
    {
      "channel": 1,
      "note": 54,
      "start": 21.1134,
      "duration": 0.2506,
      "velocity": 91,
      "chip": "ym2612"
    },
    {
      "channel": 3,
      "note": 66,
      "start": 21.1142,
      "duration": 0.3758,
      "velocity": 91,
      "chip": "ym2612"
    },
    {
      "channel": 4,
      "note": 78,
      "start": 21.115,
      "duration": 1.259,
      "velocity": 105,
      "chip": "ym2612"
    },
    {
      "channel": 2,
      "note": 38,
      "start": 21.1157,
      "duration": 0.1054,
      "velocity": 120,
      "chip": "ym2612"
    },
    {
      "channel": 2,
      "note": 38,
      "start": 21.2401,
      "duration": 0.1066,
      "velocity": 120,
      "chip": "ym2612"
    },
    {
      "channel": 1,
      "note": 54,
      "start": 21.3648,
      "duration": 0.2505,
      "velocity": 91,
      "chip": "ym2612"
    },
    {
      "channel": 2,
      "note": 57,
      "start": 21.3663,
      "duration": 0.1202,
      "velocity": 116,
      "chip": "ym2612"
    },
    {
      "channel": 3,
      "note": 64,
      "start": 21.4906,
      "duration": 0.377,
      "velocity": 91,
      "chip": "ym2612"
    },
    {
      "channel": 2,
      "note": 38,
      "start": 21.4918,
      "duration": 0.1062,
      "velocity": 120,
      "chip": "ym2612"
    },
    {
      "channel": 1,
      "note": 54,
      "start": 21.6161,
      "duration": 0.125,
      "velocity": 91,
      "chip": "ym2612"
    },
    {
      "channel": 2,
      "note": 60,
      "start": 21.6176,
      "duration": 0.1203,
      "velocity": 122,
      "chip": "ym2612"
    },
    {
      "channel": 5,
      "note": 61,
      "start": 21.6456,
      "duration": 0.125,
      "velocity": 122,
      "chip": "ym2612"
    },
    {
      "channel": 1,
      "note": 54,
      "start": 21.7418,
      "duration": 0.1249,
      "velocity": 91,
      "chip": "ym2612"
    },
    {
      "channel": 2,
      "note": 38,
      "start": 21.7436,
      "duration": 0.1058,
      "velocity": 120,
      "chip": "ym2612"
    },
    {
      "channel": 1,
      "note": 54,
      "start": 21.8675,
      "duration": 0.1249,
      "velocity": 91,
      "chip": "ym2612"
    },
    {
      "channel": 3,
      "note": 68,
      "start": 21.8682,
      "duration": 0.255,
      "velocity": 91,
      "chip": "ym2612"
    },
    {
      "channel": 2,
      "note": 57,
      "start": 21.8694,
      "duration": 0.1197,
      "velocity": 116,
      "chip": "ym2612"
    },
    {
      "channel": 1,
      "note": 54,
      "start": 21.993,
      "duration": 0.129,
      "velocity": 91,
      "chip": "ym2612"
    },
    {
      "channel": 2,
      "note": 57,
      "start": 21.9946,
      "duration": 0.1206,
      "velocity": 116,
      "chip": "ym2612"
    },
    {
      "channel": 0,
      "note": 67,
      "start": 22.1215,
      "duration": 0.3732,
      "velocity": 105,
      "chip": "ym2612"
    },
    {
      "channel": 1,
      "note": 54,
      "start": 22.1228,
      "duration": 0.1181,
      "velocity": 91,
      "chip": "ym2612"
    },
    {
      "channel": 3,
      "note": 54,
      "start": 22.1238,
      "duration": 0.118,
      "velocity": 91,
      "chip": "ym2612"
    },
    {
      "channel": 2,
      "note": 38,
      "start": 22.125,
      "duration": 0.1014,
      "velocity": 120,
      "chip": "ym2612"
    },
    {
      "channel": 1,
      "note": 54,
      "start": 22.2417,
      "duration": 0.1276,
      "velocity": 91,
      "chip": "ym2612"
    },
    {
      "channel": 3,
      "note": 54,
      "start": 22.2425,
      "duration": 0.1277,
      "velocity": 91,
      "chip": "ym2612"
    },
    {
      "channel": 1,
      "note": 54,
      "start": 22.37,
      "duration": 0.1254,
      "velocity": 91,
      "chip": "ym2612"
    },
    {
      "channel": 3,
      "note": 54,
      "start": 22.3707,
      "duration": 0.1256,
      "velocity": 91,
      "chip": "ym2612"
    },
    {
      "channel": 4,
      "note": 67,
      "start": 22.3746,
      "duration": 0.3727,
      "velocity": 105,
      "chip": "ym2612"
    },
    {
      "channel": 2,
      "note": 57,
      "start": 22.3754,
      "duration": 0.1164,
      "velocity": 116,
      "chip": "ym2612"
    },
    {
      "channel": 0,
      "note": 66,
      "start": 22.4952,
      "duration": 0.3763,
      "velocity": 105,
      "chip": "ym2612"
    },
    {
      "channel": 1,
      "note": 54,
      "start": 22.4961,
      "duration": 0.1244,
      "velocity": 91,
      "chip": "ym2612"
    },
    {
      "channel": 3,
      "note": 54,
      "start": 22.4968,
      "duration": 0.2497,
      "velocity": 91,
      "chip": "ym2612"
    },
    {
      "channel": 2,
      "note": 57,
      "start": 22.498,
      "duration": 0.1193,
      "velocity": 116,
      "chip": "ym2612"
    },
    {
      "channel": 1,
      "note": 54,
      "start": 22.6213,
      "duration": 0.251,
      "velocity": 91,
      "chip": "ym2612"
    },
    {
      "channel": 2,
      "note": 60,
      "start": 22.6227,
      "duration": 0.1204,
      "velocity": 122,
      "chip": "ym2612"
    },
    {
      "channel": 5,
      "note": 61,
      "start": 22.6509,
      "duration": 0.1251,
      "velocity": 122,
      "chip": "ym2612"
    },
    {
      "channel": 3,
      "note": 61,
      "start": 22.7472,
      "duration": 0.126,
      "velocity": 91,
      "chip": "ym2612"
    },
    {
      "channel": 4,
      "note": 66,
      "start": 22.7479,
      "duration": 0.3773,
      "velocity": 105,
      "chip": "ym2612"
    },
    {
      "channel": 2,
      "note": 38,
      "start": 22.749,
      "duration": 0.1056,
      "velocity": 120,
      "chip": "ym2612"
    },
    {
      "channel": 0,
      "note": 64,
      "start": 22.872,
      "duration": 0.2508,
      "velocity": 105,
      "chip": "ym2612"
    },
    {
      "channel": 1,
      "note": 54,
      "start": 22.873,
      "duration": 0.1245,
      "velocity": 91,
      "chip": "ym2612"
    },
    {
      "channel": 3,
      "note": 59,
      "start": 22.8738,
      "duration": 0.2507,
      "velocity": 91,
      "chip": "ym2612"
    },
    {
      "channel": 2,
      "note": 57,
      "start": 22.8749,
      "duration": 0.1195,
      "velocity": 116,
      "chip": "ym2612"
    },
    {
      "channel": 1,
      "note": 54,
      "start": 22.9983,
      "duration": 0.1253,
      "velocity": 91,
      "chip": "ym2612"
    },
    {
      "channel": 2,
      "note": 57,
      "start": 22.9998,
      "duration": 0.1202,
      "velocity": 116,
      "chip": "ym2612"
    },
    {
      "channel": 0,
      "note": 66,
      "start": 23.1234,
      "duration": 0.502,
      "velocity": 105,
      "chip": "ym2612"
    },
    {
      "channel": 1,
      "note": 54,
      "start": 23.1243,
      "duration": 0.2501,
      "velocity": 91,
      "chip": "ym2612"
    },
    {
      "channel": 3,
      "note": 64,
      "start": 23.1251,
      "duration": 0.3752,
      "velocity": 91,
      "chip": "ym2612"
    },
    {
      "channel": 4,
      "note": 64,
      "start": 23.1259,
      "duration": 0.25,
      "velocity": 105,
      "chip": "ym2612"
    },
    {
      "channel": 2,
      "note": 38,
      "start": 23.1267,
      "duration": 0.1048,
      "velocity": 120,
      "chip": "ym2612"
    },
    {
      "channel": 2,
      "note": 38,
      "start": 23.2504,
      "duration": 0.1068,
      "velocity": 120,
      "chip": "ym2612"
    },
    {
      "channel": 1,
      "note": 54,
      "start": 23.3753,
      "duration": 0.2508,
      "velocity": 91,
      "chip": "ym2612"
    },
    {
      "channel": 4,
      "note": 66,
      "start": 23.3764,
      "duration": 0.5024,
      "velocity": 105,
      "chip": "ym2612"
    },
    {
      "channel": 2,
      "note": 57,
      "start": 23.3772,
      "duration": 0.1197,
      "velocity": 116,
      "chip": "ym2612"
    },
    {
      "channel": 3,
      "note": 61,
      "start": 23.501,
      "duration": 0.377,
      "velocity": 91,
      "chip": "ym2612"
    },
    {
      "channel": 2,
      "note": 38,
      "start": 23.5021,
      "duration": 0.1064,
      "velocity": 120,
      "chip": "ym2612"
    },
    {
      "channel": 0,
      "note": 61,
      "start": 23.626,
      "duration": 0.5021,
      "velocity": 105,
      "chip": "ym2612"
    },
    {
      "channel": 1,
      "note": 54,
      "start": 23.6269,
      "duration": 0.1244,
      "velocity": 91,
      "chip": "ym2612"
    },
    {
      "channel": 2,
      "note": 60,
      "start": 23.6284,
      "duration": 0.1198,
      "velocity": 122,
      "chip": "ym2612"
    },
    {
      "channel": 5,
      "note": 61,
      "start": 23.656,
      "duration": 0.1251,
      "velocity": 122,
      "chip": "ym2612"
    },
    {
      "channel": 1,
      "note": 54,
      "start": 23.7521,
      "duration": 0.1249,
      "velocity": 91,
      "chip": "ym2612"
    },
    {
      "channel": 2,
      "note": 38,
      "start": 23.7538,
      "duration": 0.106,
      "velocity": 120,
      "chip": "ym2612"
    },
    {
      "channel": 1,
      "note": 54,
      "start": 23.8778,
      "duration": 0.1249,
      "velocity": 91,
      "chip": "ym2612"
    },
    {
      "channel": 3,
      "note": 59,
      "start": 23.8785,
      "duration": 0.2516,
      "velocity": 91,
      "chip": "ym2612"
    },
    {
      "channel": 4,
      "note": 61,
      "start": 23.8793,
      "duration": 0.502,
      "velocity": 105,
      "chip": "ym2612"
    },
    {
      "channel": 2,
      "note": 57,
      "start": 23.8801,
      "duration": 0.1193,
      "velocity": 116,
      "chip": "ym2612"
    },
    {
      "channel": 1,
      "note": 54,
      "start": 24.0034,
      "duration": 0.1258,
      "velocity": 91,
      "chip": "ym2612"
    },
    {
      "channel": 2,
      "note": 57,
      "start": 24.0049,
      "duration": 0.1204,
      "velocity": 116,
      "chip": "ym2612"
    },
    {
      "channel": 0,
      "note": 67,
      "start": 24.1287,
      "duration": 0.3763,
      "velocity": 105,
      "chip": "ym2612"
    },
    {
      "channel": 1,
      "note": 54,
      "start": 24.13,
      "duration": 0.1212,
      "velocity": 91,
      "chip": "ym2612"
    },
    {
      "channel": 3,
      "note": 54,
      "start": 24.1307,
      "duration": 0.1214,
      "velocity": 91,
      "chip": "ym2612"
    },
    {
      "channel": 2,
      "note": 38,
      "start": 24.1318,
      "duration": 0.1048,
      "velocity": 120,
      "chip": "ym2612"
    },
    {
      "channel": 1,
      "note": 54,
      "start": 24.252,
      "duration": 0.1277,
      "velocity": 91,
      "chip": "ym2612"
    },
    {
      "channel": 3,
      "note": 54,
      "start": 24.2527,
      "duration": 0.1279,
      "velocity": 91,
      "chip": "ym2612"
    },
    {
      "channel": 1,
      "note": 54,
      "start": 24.3804,
      "duration": 0.1252,
      "velocity": 91,
      "chip": "ym2612"
    },
    {
      "channel": 3,
      "note": 54,
      "start": 24.3812,
      "duration": 0.1253,
      "velocity": 91,
      "chip": "ym2612"
    },
    {
      "channel": 4,
      "note": 67,
      "start": 24.3819,
      "duration": 0.3757,
      "velocity": 105,
      "chip": "ym2612"
    },
    {
      "channel": 2,
      "note": 57,
      "start": 24.3827,
      "duration": 0.1193,
      "velocity": 116,
      "chip": "ym2612"
    },
    {
      "channel": 0,
      "note": 66,
      "start": 24.5055,
      "duration": 0.3764,
      "velocity": 105,
      "chip": "ym2612"
    },
    {
      "channel": 1,
      "note": 54,
      "start": 24.5064,
      "duration": 0.1245,
      "velocity": 91,
      "chip": "ym2612"
    },
    {
      "channel": 3,
      "note": 54,
      "start": 24.5071,
      "duration": 0.1247,
      "velocity": 91,
      "chip": "ym2612"
    },
    {
      "channel": 2,
      "note": 57,
      "start": 24.5083,
      "duration": 0.1195,
      "velocity": 116,
      "chip": "ym2612"
    },
    {
      "channel": 1,
      "note": 54,
      "start": 24.6317,
      "duration": 0.251,
      "velocity": 91,
      "chip": "ym2612"
    },
    {
      "channel": 3,
      "note": 54,
      "start": 24.6324,
      "duration": 0.1244,
      "velocity": 91,
      "chip": "ym2612"
    },
    {
      "channel": 2,
      "note": 60,
      "start": 24.6336,
      "duration": 0.1198,
      "velocity": 122,
      "chip": "ym2612"
    },
    {
      "channel": 5,
      "note": 61,
      "start": 24.6612,
      "duration": 0.1251,
      "velocity": 122,
      "chip": "ym2612"
    },
    {
      "channel": 3,
      "note": 61,
      "start": 24.7575,
      "duration": 0.1261,
      "velocity": 91,
      "chip": "ym2612"
    },
    {
      "channel": 4,
      "note": 66,
      "start": 24.7582,
      "duration": 0.3774,
      "velocity": 105,
      "chip": "ym2612"
    },
    {
      "channel": 2,
      "note": 38,
      "start": 24.7593,
      "duration": 0.1055,
      "velocity": 120,
      "chip": "ym2612"
    },
    {
      "channel": 0,
      "note": 64,
      "start": 24.8825,
      "duration": 0.2506,
      "velocity": 105,
      "chip": "ym2612"
    },
    {
      "channel": 1,
      "note": 54,
      "start": 24.8834,
      "duration": 0.1244,
      "velocity": 91,
      "chip": "ym2612"
    },
    {
      "channel": 3,
      "note": 59,
      "start": 24.8842,
      "duration": 0.2506,
      "velocity": 91,
      "chip": "ym2612"
    },
    {
      "channel": 2,
      "note": 57,
      "start": 24.8853,
      "duration": 0.1194,
      "velocity": 116,
      "chip": "ym2612"
    },
    {
      "channel": 1,
      "note": 54,
      "start": 25.0087,
      "duration": 0.1252,
      "velocity": 91,
      "chip": "ym2612"
    },
    {
      "channel": 2,
      "note": 57,
      "start": 25.0102,
      "duration": 0.1202,
      "velocity": 116,
      "chip": "ym2612"
    },
    {
      "channel": 0,
      "note": 66,
      "start": 25.1337,
      "duration": 0.502,
      "velocity": 105,
      "chip": "ym2612"
    },
    {
      "channel": 1,
      "note": 54,
      "start": 25.1347,
      "duration": 0.2501,
      "velocity": 91,
      "chip": "ym2612"
    },
    {
      "channel": 3,
      "note": 66,
      "start": 25.1354,
      "duration": 0.3754,
      "velocity": 91,
      "chip": "ym2612"
    },
    {
      "channel": 4,
      "note": 64,
      "start": 25.1362,
      "duration": 0.2499,
      "velocity": 105,
      "chip": "ym2612"
    },
    {
      "channel": 2,
      "note": 38,
      "start": 25.137,
      "duration": 0.1049,
      "velocity": 120,
      "chip": "ym2612"
    },
    {
      "channel": 2,
      "note": 38,
      "start": 25.2609,
      "duration": 0.1066,
      "velocity": 120,
      "chip": "ym2612"
    },
    {
      "channel": 1,
      "note": 54,
      "start": 25.3855,
      "duration": 0.251,
      "velocity": 91,
      "chip": "ym2612"
    },
    {
      "channel": 4,
      "note": 66,
      "start": 25.3866,
      "duration": 0.5024,
      "velocity": 105,
      "chip": "ym2612"
    },
    {
      "channel": 2,
      "note": 57,
      "start": 25.3874,
      "duration": 0.1198,
      "velocity": 116,
      "chip": "ym2612"
    },
    {
      "channel": 3,
      "note": 64,
      "start": 25.5114,
      "duration": 0.3769,
      "velocity": 91,
      "chip": "ym2612"
    },
    {
      "channel": 2,
      "note": 38,
      "start": 25.5126,
      "duration": 0.1062,
      "velocity": 120,
      "chip": "ym2612"
    },
    {
      "channel": 0,
      "note": 73,
      "start": 25.6364,
      "duration": 0.502,
      "velocity": 105,
      "chip": "ym2612"
    },
    {
      "channel": 1,
      "note": 54,
      "start": 25.6373,
      "duration": 0.1245,
      "velocity": 91,
      "chip": "ym2612"
    },
    {
      "channel": 2,
      "note": 60,
      "start": 25.6388,
      "duration": 0.1198,
      "velocity": 122,
      "chip": "ym2612"
    },
    {
      "channel": 5,
      "note": 61,
      "start": 25.6663,
      "duration": 0.1251,
      "velocity": 122,
      "chip": "ym2612"
    },
    {
      "channel": 1,
      "note": 54,
      "start": 25.7626,
      "duration": 0.1248,
      "velocity": 91,
      "chip": "ym2612"
    },
    {
      "channel": 2,
      "note": 38,
      "start": 25.7643,
      "duration": 0.1058,
      "velocity": 120,
      "chip": "ym2612"
    },
    {
      "channel": 1,
      "note": 54,
      "start": 25.8881,
      "duration": 0.1249,
      "velocity": 91,
      "chip": "ym2612"
    },
    {
      "channel": 3,
      "note": 68,
      "start": 25.8889,
      "duration": 0.2518,
      "velocity": 91,
      "chip": "ym2612"
    },
    {
      "channel": 4,
      "note": 73,
      "start": 25.8897,
      "duration": 0.502,
      "velocity": 105,
      "chip": "ym2612"
    },
    {
      "channel": 2,
      "note": 57,
      "start": 25.8904,
      "duration": 0.1194,
      "velocity": 116,
      "chip": "ym2612"
    },
    {
      "channel": 1,
      "note": 54,
      "start": 26.0138,
      "duration": 0.1258,
      "velocity": 91,
      "chip": "ym2612"
    },
    {
      "channel": 2,
      "note": 57,
      "start": 26.0152,
      "duration": 0.1204,
      "velocity": 116,
      "chip": "ym2612"
    },
    {
      "channel": 0,
      "note": 67,
      "start": 26.139,
      "duration": 0.3765,
      "velocity": 105,
      "chip": "ym2612"
    },
    {
      "channel": 1,
      "note": 54,
      "start": 26.1403,
      "duration": 0.1214,
      "velocity": 91,
      "chip": "ym2612"
    },
    {
      "channel": 3,
      "note": 54,
      "start": 26.1413,
      "duration": 0.1212,
      "velocity": 91,
      "chip": "ym2612"
    },
    {
      "channel": 2,
      "note": 38,
      "start": 26.1425,
      "duration": 0.1045,
      "velocity": 120,
      "chip": "ym2612"
    },
    {
      "channel": 1,
      "note": 54,
      "start": 26.2624,
      "duration": 0.1276,
      "velocity": 91,
      "chip": "ym2612"
    },
    {
      "channel": 3,
      "note": 54,
      "start": 26.2632,
      "duration": 0.1277,
      "velocity": 91,
      "chip": "ym2612"
    },
    {
      "channel": 1,
      "note": 54,
      "start": 26.3907,
      "duration": 0.1255,
      "velocity": 91,
      "chip": "ym2612"
    },
    {
      "channel": 3,
      "note": 54,
      "start": 26.3915,
      "duration": 0.1256,
      "velocity": 91,
      "chip": "ym2612"
    },
    {
      "channel": 4,
      "note": 67,
      "start": 26.3923,
      "duration": 0.3757,
      "velocity": 105,
      "chip": "ym2612"
    },
    {
      "channel": 2,
      "note": 57,
      "start": 26.3931,
      "duration": 0.1196,
      "velocity": 116,
      "chip": "ym2612"
    },
    {
      "channel": 0,
      "note": 66,
      "start": 26.5161,
      "duration": 0.3763,
      "velocity": 105,
      "chip": "ym2612"
    },
    {
      "channel": 1,
      "note": 54,
      "start": 26.517,
      "duration": 0.1243,
      "velocity": 91,
      "chip": "ym2612"
    },
    {
      "channel": 3,
      "note": 54,
      "start": 26.5177,
      "duration": 0.2495,
      "velocity": 91,
      "chip": "ym2612"
    },
    {
      "channel": 2,
      "note": 57,
      "start": 26.5189,
      "duration": 0.1192,
      "velocity": 116,
      "chip": "ym2612"
    },
    {
      "channel": 1,
      "note": 54,
      "start": 26.6421,
      "duration": 0.251,
      "velocity": 91,
      "chip": "ym2612"
    },
    {
      "channel": 2,
      "note": 60,
      "start": 26.6435,
      "duration": 0.1202,
      "velocity": 122,
      "chip": "ym2612"
    },
    {
      "channel": 5,
      "note": 61,
      "start": 26.6715,
      "duration": 0.1251,
      "velocity": 122,
      "chip": "ym2612"
    },
    {
      "channel": 3,
      "note": 61,
      "start": 26.7678,
      "duration": 0.1261,
      "velocity": 91,
      "chip": "ym2612"
    },
    {
      "channel": 4,
      "note": 66,
      "start": 26.7685,
      "duration": 0.3776,
      "velocity": 105,
      "chip": "ym2612"
    },
    {
      "channel": 2,
      "note": 38,
      "start": 26.7696,
      "duration": 0.1057,
      "velocity": 120,
      "chip": "ym2612"
    },
    {
      "channel": 0,
      "note": 64,
      "start": 26.8929,
      "duration": 0.2508,
      "velocity": 105,
      "chip": "ym2612"
    },
    {
      "channel": 1,
      "note": 54,
      "start": 26.8939,
      "duration": 0.1244,
      "velocity": 91,
      "chip": "ym2612"
    },
    {
      "channel": 3,
      "note": 59,
      "start": 26.8946,
      "duration": 0.2508,
      "velocity": 91,
      "chip": "ym2612"
    },
    {
      "channel": 2,
      "note": 57,
      "start": 26.8958,
      "duration": 0.1193,
      "velocity": 116,
      "chip": "ym2612"
    },
    {
      "channel": 1,
      "note": 54,
      "start": 27.019,
      "duration": 0.1254,
      "velocity": 91,
      "chip": "ym2612"
    },
    {
      "channel": 2,
      "note": 57,
      "start": 27.0205,
      "duration": 0.1203,
      "velocity": 116,
      "chip": "ym2612"
    },
    {
      "channel": 0,
      "note": 66,
      "start": 27.1442,
      "duration": 0.7532,
      "velocity": 105,
      "chip": "ym2612"
    },
    {
      "channel": 1,
      "note": 54,
      "start": 27.1451,
      "duration": 0.2501,
      "velocity": 91,
      "chip": "ym2612"
    },
    {
      "channel": 3,
      "note": 64,
      "start": 27.1459,
      "duration": 0.3753,
      "velocity": 91,
      "chip": "ym2612"
    },
    {
      "channel": 4,
      "note": 64,
      "start": 27.1467,
      "duration": 0.2498,
      "velocity": 105,
      "chip": "ym2612"
    },
    {
      "channel": 2,
      "note": 38,
      "start": 27.1475,
      "duration": 0.1047,
      "velocity": 120,
      "chip": "ym2612"
    },
    {
      "channel": 2,
      "note": 38,
      "start": 27.2713,
      "duration": 0.1066,
      "velocity": 120,
      "chip": "ym2612"
    },
    {
      "channel": 1,
      "note": 54,
      "start": 27.396,
      "duration": 0.2504,
      "velocity": 91,
      "chip": "ym2612"
    },
    {
      "channel": 4,
      "note": 66,
      "start": 27.3971,
      "duration": 0.7545,
      "velocity": 105,
      "chip": "ym2612"
    },
    {
      "channel": 2,
      "note": 57,
      "start": 27.3979,
      "duration": 0.1198,
      "velocity": 116,
      "chip": "ym2612"
    },
    {
      "channel": 3,
      "note": 61,
      "start": 27.5218,
      "duration": 0.3773,
      "velocity": 91,
      "chip": "ym2612"
    },
    {
      "channel": 2,
      "note": 38,
      "start": 27.5229,
      "duration": 0.1062,
      "velocity": 120,
      "chip": "ym2612"
    },
    {
      "channel": 1,
      "note": 54,
      "start": 27.6472,
      "duration": 0.1248,
      "velocity": 91,
      "chip": "ym2612"
    },
    {
      "channel": 2,
      "note": 60,
      "start": 27.6487,
      "duration": 0.1202,
      "velocity": 122,
      "chip": "ym2612"
    },
    {
      "channel": 5,
      "note": 61,
      "start": 27.6768,
      "duration": 0.1251,
      "velocity": 122,
      "chip": "ym2612"
    },
    {
      "channel": 1,
      "note": 54,
      "start": 27.7728,
      "duration": 0.1253,
      "velocity": 91,
      "chip": "ym2612"
    },
    {
      "channel": 2,
      "note": 38,
      "start": 27.7746,
      "duration": 0.1059,
      "velocity": 120,
      "chip": "ym2612"
    },
    {
      "channel": 0,
      "note": 70,
      "start": 27.898,
      "duration": 0.1251,
      "velocity": 105,
      "chip": "ym2612"
    },
    {
      "channel": 1,
      "note": 54,
      "start": 27.899,
      "duration": 0.1248,
      "velocity": 91,
      "chip": "ym2612"
    },
    {
      "channel": 3,
      "note": 59,
      "start": 27.8997,
      "duration": 0.2511,
      "velocity": 91,
      "chip": "ym2612"
    },
    {
      "channel": 2,
      "note": 57,
      "start": 27.9009,
      "duration": 0.1193,
      "velocity": 116,
      "chip": "ym2612"
    },
    {
      "channel": 0,
      "note": 71,
      "start": 28.0236,
      "duration": 0.1251,
      "velocity": 105,
      "chip": "ym2612"
    },
    {
      "channel": 1,
      "note": 54,
      "start": 28.0245,
      "duration": 0.1253,
      "velocity": 91,
      "chip": "ym2612"
    },
    {
      "channel": 2,
      "note": 57,
      "start": 28.0261,
      "duration": 0.1198,
      "velocity": 116,
      "chip": "ym2612"
    },
    {
      "channel": 0,
      "note": 73,
      "start": 28.1493,
      "duration": 0.7533,
      "velocity": 105,
      "chip": "ym2612"
    },
    {
      "channel": 1,
      "note": 54,
      "start": 28.1507,
      "duration": 0.1215,
      "velocity": 91,
      "chip": "ym2612"
    },
    {
      "channel": 3,
      "note": 54,
      "start": 28.1514,
      "duration": 0.1216,
      "velocity": 91,
      "chip": "ym2612"
    },
    {
      "channel": 4,
      "note": 70,
      "start": 28.1521,
      "duration": 0.1216,
      "velocity": 105,
      "chip": "ym2612"
    },
    {
      "channel": 2,
      "note": 38,
      "start": 28.1529,
      "duration": 0.1044,
      "velocity": 120,
      "chip": "ym2612"
    },
    {
      "channel": 1,
      "note": 54,
      "start": 28.2729,
      "duration": 0.1275,
      "velocity": 91,
      "chip": "ym2612"
    },
    {
      "channel": 3,
      "note": 54,
      "start": 28.2736,
      "duration": 0.1277,
      "velocity": 91,
      "chip": "ym2612"
    },
    {
      "channel": 4,
      "note": 71,
      "start": 28.2743,
      "duration": 0.1277,
      "velocity": 105,
      "chip": "ym2612"
    },
    {
      "channel": 1,
      "note": 54,
      "start": 28.4011,
      "duration": 0.1249,
      "velocity": 91,
      "chip": "ym2612"
    },
    {
      "channel": 3,
      "note": 54,
      "start": 28.4018,
      "duration": 0.1251,
      "velocity": 91,
      "chip": "ym2612"
    },
    {
      "channel": 4,
      "note": 73,
      "start": 28.4026,
      "duration": 0.7538,
      "velocity": 105,
      "chip": "ym2612"
    },
    {
      "channel": 2,
      "note": 57,
      "start": 28.4034,
      "duration": 0.1195,
      "velocity": 116,
      "chip": "ym2612"
    },
    {
      "channel": 1,
      "note": 54,
      "start": 28.5268,
      "duration": 0.1251,
      "velocity": 91,
      "chip": "ym2612"
    },
    {
      "channel": 3,
      "note": 54,
      "start": 28.5275,
      "duration": 0.1254,
      "velocity": 91,
      "chip": "ym2612"
    },
    {
      "channel": 2,
      "note": 57,
      "start": 28.5287,
      "duration": 0.1201,
      "velocity": 116,
      "chip": "ym2612"
    },
    {
      "channel": 1,
      "note": 54,
      "start": 28.6527,
      "duration": 0.2507,
      "velocity": 91,
      "chip": "ym2612"
    },
    {
      "channel": 3,
      "note": 54,
      "start": 28.6535,
      "duration": 0.1242,
      "velocity": 91,
      "chip": "ym2612"
    },
    {
      "channel": 2,
      "note": 60,
      "start": 28.6546,
      "duration": 0.1196,
      "velocity": 122,
      "chip": "ym2612"
    },
    {
      "channel": 5,
      "note": 61,
      "start": 28.6822,
      "duration": 0.1248,
      "velocity": 122,
      "chip": "ym2612"
    },
    {
      "channel": 3,
      "note": 61,
      "start": 28.7783,
      "duration": 0.126,
      "velocity": 91,
      "chip": "ym2612"
    },
    {
      "channel": 2,
      "note": 38,
      "start": 28.7798,
      "duration": 0.106,
      "velocity": 120,
      "chip": "ym2612"
    },
    {
      "channel": 0,
      "note": 71,
      "start": 28.9033,
      "duration": 0.2506,
      "velocity": 105,
      "chip": "ym2612"
    },
    {
      "channel": 1,
      "note": 54,
      "start": 28.9042,
      "duration": 0.1244,
      "velocity": 91,
      "chip": "ym2612"
    },
    {
      "channel": 3,
      "note": 59,
      "start": 28.9049,
      "duration": 0.2507,
      "velocity": 91,
      "chip": "ym2612"
    },
    {
      "channel": 2,
      "note": 57,
      "start": 28.9061,
      "duration": 0.1194,
      "velocity": 116,
      "chip": "ym2612"
    },
    {
      "channel": 1,
      "note": 54,
      "start": 29.0294,
      "duration": 0.1252,
      "velocity": 91,
      "chip": "ym2612"
    },
    {
      "channel": 2,
      "note": 57,
      "start": 29.031,
      "duration": 0.1202,
      "velocity": 116,
      "chip": "ym2612"
    },
    {
      "channel": 0,
      "note": 70,
      "start": 29.1546,
      "duration": 0.125,
      "velocity": 105,
      "chip": "ym2612"
    },
    {
      "channel": 1,
      "note": 54,
      "start": 29.1554,
      "duration": 0.2505,
      "velocity": 91,
      "chip": "ym2612"
    },
    {
      "channel": 3,
      "note": 66,
      "start": 29.1562,
      "duration": 0.3757,
      "velocity": 91,
      "chip": "ym2612"
    },
    {
      "channel": 4,
      "note": 71,
      "start": 29.157,
      "duration": 0.2502,
      "velocity": 105,
      "chip": "ym2612"
    },
    {
      "channel": 2,
      "note": 38,
      "start": 29.1578,
      "duration": 0.1048,
      "velocity": 120,
      "chip": "ym2612"
    },
    {
      "channel": 0,
      "note": 71,
      "start": 29.2802,
      "duration": 0.125,
      "velocity": 105,
      "chip": "ym2612"
    },
    {
      "channel": 2,
      "note": 38,
      "start": 29.282,
      "duration": 0.1062,
      "velocity": 120,
      "chip": "ym2612"
    },
    {
      "channel": 0,
      "note": 70,
      "start": 29.4058,
      "duration": 0.1251,
      "velocity": 105,
      "chip": "ym2612"
    },
    {
      "channel": 1,
      "note": 54,
      "start": 29.4066,
      "duration": 0.2506,
      "velocity": 91,
      "chip": "ym2612"
    },
    {
      "channel": 4,
      "note": 70,
      "start": 29.4078,
      "duration": 0.1249,
      "velocity": 105,
      "chip": "ym2612"
    },
    {
      "channel": 2,
      "note": 57,
      "start": 29.4086,
      "duration": 0.1194,
      "velocity": 116,
      "chip": "ym2612"
    },
    {
      "channel": 0,
      "note": 67,
      "start": 29.5315,
      "duration": 0.1251,
      "velocity": 105,
      "chip": "ym2612"
    },
    {
      "channel": 3,
      "note": 64,
      "start": 29.5325,
      "duration": 0.3767,
      "velocity": 91,
      "chip": "ym2612"
    },
    {
      "channel": 4,
      "note": 71,
      "start": 29.5332,
      "duration": 0.1254,
      "velocity": 105,
      "chip": "ym2612"
    },
    {
      "channel": 2,
      "note": 38,
      "start": 29.5341,
      "duration": 0.1055,
      "velocity": 120,
      "chip": "ym2612"
    },
    {
      "channel": 0,
      "note": 66,
      "start": 29.6572,
      "duration": 0.5051,
      "velocity": 91,
      "chip": "ym2612"
    },
    {
      "channel": 1,
      "note": 54,
      "start": 29.658,
      "duration": 0.1244,
      "velocity": 91,
      "chip": "ym2612"
    },
    {
      "channel": 4,
      "note": 70,
      "start": 29.6592,
      "duration": 0.1246,
      "velocity": 105,
      "chip": "ym2612"
    },
    {
      "channel": 2,
      "note": 60,
      "start": 29.66,
      "duration": 0.1193,
      "velocity": 122,
      "chip": "ym2612"
    },
    {
      "channel": 5,
      "note": 61,
      "start": 29.6871,
      "duration": 0.1251,
      "velocity": 122,
      "chip": "ym2612"
    },
    {
      "channel": 1,
      "note": 54,
      "start": 29.7832,
      "duration": 0.1249,
      "velocity": 91,
      "chip": "ym2612"
    },
    {
      "channel": 4,
      "note": 67,
      "start": 29.7843,
      "duration": 0.1256,
      "velocity": 105,
      "chip": "ym2612"
    },
    {
      "channel": 2,
      "note": 38,
      "start": 29.7854,
      "duration": 0.1055,
      "velocity": 120,
      "chip": "ym2612"
    },
    {
      "channel": 1,
      "note": 54,
      "start": 29.909,
      "duration": 0.1247,
      "velocity": 91,
      "chip": "ym2612"
    },
    {
      "channel": 3,
      "note": 68,
      "start": 29.9097,
      "duration": 0.255,
      "velocity": 91,
      "chip": "ym2612"
    },
    {
      "channel": 4,
      "note": 66,
      "start": 29.9105,
      "duration": 0.5052,
      "velocity": 91,
      "chip": "ym2612"
    },
    {
      "channel": 2,
      "note": 57,
      "start": 29.9113,
      "duration": 0.1193,
      "velocity": 116,
      "chip": "ym2612"
    },
    {
      "channel": 1,
      "note": 54,
      "start": 30.0345,
      "duration": 0.1289,
      "velocity": 91,
      "chip": "ym2612"
    },
    {
      "channel": 2,
      "note": 57,
      "start": 30.036,
      "duration": 0.1203,
      "velocity": 116,
      "chip": "ym2612"
    },
    {
      "channel": 0,
      "note": 76,
      "start": 30.1629,
      "duration": 0.4988,
      "velocity": 91,
      "chip": "ym2612"
    },
    {
      "channel": 1,
      "note": 52,
      "start": 30.1642,
      "duration": 0.1183,
      "velocity": 91,
      "chip": "ym2612"
    },
    {
      "channel": 3,
      "note": 52,
      "start": 30.1653,
      "duration": 0.1181,
      "velocity": 91,
      "chip": "ym2612"
    },
    {
      "channel": 2,
      "note": 38,
      "start": 30.1664,
      "duration": 0.1014,
      "velocity": 120,
      "chip": "ym2612"
    },
    {
      "channel": 1,
      "note": 52,
      "start": 30.2832,
      "duration": 0.1276,
      "velocity": 91,
      "chip": "ym2612"
    },
    {
      "channel": 3,
      "note": 52,
      "start": 30.284,
      "duration": 0.1278,
      "velocity": 91,
      "chip": "ym2612"
    },
    {
      "channel": 1,
      "note": 52,
      "start": 30.4115,
      "duration": 0.1249,
      "velocity": 91,
      "chip": "ym2612"
    },
    {
      "channel": 3,
      "note": 52,
      "start": 30.4123,
      "duration": 0.125,
      "velocity": 91,
      "chip": "ym2612"
    },
    {
      "channel": 4,
      "note": 76,
      "start": 30.4163,
      "duration": 0.4987,
      "velocity": 91,
      "chip": "ym2612"
    },
    {
      "channel": 2,
      "note": 57,
      "start": 30.4171,
      "duration": 0.1162,
      "velocity": 116,
      "chip": "ym2612"
    },
    {
      "channel": 1,
      "note": 52,
      "start": 30.5372,
      "duration": 0.1252,
      "velocity": 91,
      "chip": "ym2612"
    },
    {
      "channel": 3,
      "note": 52,
      "start": 30.5379,
      "duration": 0.2501,
      "velocity": 91,
      "chip": "ym2612"
    },
    {
      "channel": 2,
      "note": 57,
      "start": 30.5391,
      "duration": 0.1198,
      "velocity": 116,
      "chip": "ym2612"
    },
    {
      "channel": 0,
      "note": 74,
      "start": 30.6623,
      "duration": 0.5019,
      "velocity": 91,
      "chip": "ym2612"
    },
    {
      "channel": 1,
      "note": 52,
      "start": 30.6633,
      "duration": 0.2501,
      "velocity": 91,
      "chip": "ym2612"
    },
    {
      "channel": 2,
      "note": 60,
      "start": 30.6647,
      "duration": 0.1199,
      "velocity": 122,
      "chip": "ym2612"
    },
    {
      "channel": 5,
      "note": 61,
      "start": 30.6924,
      "duration": 0.1254,
      "velocity": 122,
      "chip": "ym2612"
    },
    {
      "channel": 3,
      "note": 59,
      "start": 30.7886,
      "duration": 0.1256,
      "velocity": 91,
      "chip": "ym2612"
    },
    {
      "channel": 2,
      "note": 38,
      "start": 30.79,
      "duration": 0.1061,
      "velocity": 120,
      "chip": "ym2612"
    },
    {
      "channel": 1,
      "note": 52,
      "start": 30.9141,
      "duration": 0.1248,
      "velocity": 91,
      "chip": "ym2612"
    },
    {
      "channel": 3,
      "note": 57,
      "start": 30.9149,
      "duration": 0.2511,
      "velocity": 91,
      "chip": "ym2612"
    },
    {
      "channel": 4,
      "note": 74,
      "start": 30.9156,
      "duration": 0.5016,
      "velocity": 91,
      "chip": "ym2612"
    },
    {
      "channel": 2,
      "note": 57,
      "start": 30.9164,
      "duration": 0.1194,
      "velocity": 116,
      "chip": "ym2612"
    },
    {
      "channel": 1,
      "note": 52,
      "start": 31.0397,
      "duration": 0.1253,
      "velocity": 91,
      "chip": "ym2612"
    },
    {
      "channel": 2,
      "note": 57,
      "start": 31.0412,
      "duration": 0.1202,
      "velocity": 116,
      "chip": "ym2612"
    },
    {
      "channel": 0,
      "note": 68,
      "start": 31.1649,
      "duration": 2.2612,
      "velocity": 91,
      "chip": "ym2612"
    },
    {
      "channel": 1,
      "note": 52,
      "start": 31.1657,
      "duration": 0.2502,
      "velocity": 91,
      "chip": "ym2612"
    },
    {
      "channel": 3,
      "note": 62,
      "start": 31.1665,
      "duration": 0.3754,
      "velocity": 91,
      "chip": "ym2612"
    },
    {
      "channel": 2,
      "note": 38,
      "start": 31.1677,
      "duration": 0.1053,
      "velocity": 120,
      "chip": "ym2612"
    },
    {
      "channel": 2,
      "note": 38,
      "start": 31.292,
      "duration": 0.1066,
      "velocity": 120,
      "chip": "ym2612"
    },
    {
      "channel": 1,
      "note": 52,
      "start": 31.4167,
      "duration": 0.2505,
      "velocity": 91,
      "chip": "ym2612"
    },
    {
      "channel": 4,
      "note": 68,
      "start": 31.4178,
      "duration": 2.2615,
      "velocity": 91,
      "chip": "ym2612"
    },
    {
      "channel": 2,
      "note": 57,
      "start": 31.4186,
      "duration": 0.1198,
      "velocity": 116,
      "chip": "ym2612"
    },
    {
      "channel": 3,
      "note": 59,
      "start": 31.5425,
      "duration": 0.3768,
      "velocity": 91,
      "chip": "ym2612"
    },
    {
      "channel": 2,
      "note": 38,
      "start": 31.5437,
      "duration": 0.1062,
      "velocity": 120,
      "chip": "ym2612"
    },
    {
      "channel": 1,
      "note": 52,
      "start": 31.668,
      "duration": 0.1249,
      "velocity": 91,
      "chip": "ym2612"
    },
    {
      "channel": 2,
      "note": 60,
      "start": 31.6695,
      "duration": 0.1202,
      "velocity": 122,
      "chip": "ym2612"
    },
    {
      "channel": 5,
      "note": 61,
      "start": 31.6976,
      "duration": 0.1251,
      "velocity": 122,
      "chip": "ym2612"
    },
    {
      "channel": 1,
      "note": 52,
      "start": 31.7937,
      "duration": 0.1248,
      "velocity": 91,
      "chip": "ym2612"
    },
    {
      "channel": 2,
      "note": 38,
      "start": 31.7954,
      "duration": 0.1058,
      "velocity": 120,
      "chip": "ym2612"
    },
    {
      "channel": 1,
      "note": 52,
      "start": 31.9193,
      "duration": 0.125,
      "velocity": 91,
      "chip": "ym2612"
    },
    {
      "channel": 3,
      "note": 57,
      "start": 31.92,
      "duration": 0.2512,
      "velocity": 91,
      "chip": "ym2612"
    },
    {
      "channel": 2,
      "note": 57,
      "start": 31.9212,
      "duration": 0.1198,
      "velocity": 116,
      "chip": "ym2612"
    },
    {
      "channel": 1,
      "note": 52,
      "start": 32.045,
      "duration": 0.1253,
      "velocity": 91,
      "chip": "ym2612"
    },
    {
      "channel": 2,
      "note": 57,
      "start": 32.0465,
      "duration": 0.1202,
      "velocity": 116,
      "chip": "ym2612"
    },
    {
      "channel": 1,
      "note": 52,
      "start": 32.171,
      "duration": 0.1218,
      "velocity": 91,
      "chip": "ym2612"
    },
    {
      "channel": 3,
      "note": 52,
      "start": 32.1718,
      "duration": 0.122,
      "velocity": 91,
      "chip": "ym2612"
    },
    {
      "channel": 2,
      "note": 38,
      "start": 32.1729,
      "duration": 0.1052,
      "velocity": 120,
      "chip": "ym2612"
    },
    {
      "channel": 1,
      "note": 52,
      "start": 32.2935,
      "duration": 0.1276,
      "velocity": 91,
      "chip": "ym2612"
    },
    {
      "channel": 3,
      "note": 52,
      "start": 32.2943,
      "duration": 0.1277,
      "velocity": 91,
      "chip": "ym2612"
    },
    {
      "channel": 1,
      "note": 52,
      "start": 32.4219,
      "duration": 0.1249,
      "velocity": 91,
      "chip": "ym2612"
    },
    {
      "channel": 3,
      "note": 52,
      "start": 32.4226,
      "duration": 0.1251,
      "velocity": 91,
      "chip": "ym2612"
    },
    {
      "channel": 2,
      "note": 57,
      "start": 32.4238,
      "duration": 0.1198,
      "velocity": 116,
      "chip": "ym2612"
    },
    {
      "channel": 1,
      "note": 52,
      "start": 32.5475,
      "duration": 0.1249,
      "velocity": 91,
      "chip": "ym2612"
    },
    {
      "channel": 3,
      "note": 52,
      "start": 32.5483,
      "duration": 0.1251,
      "velocity": 91,
      "chip": "ym2612"
    },
    {
      "channel": 2,
      "note": 57,
      "start": 32.5494,
      "duration": 0.1199,
      "velocity": 116,
      "chip": "ym2612"
    },
    {
      "channel": 1,
      "note": 52,
      "start": 32.6732,
      "duration": 0.2506,
      "velocity": 91,
      "chip": "ym2612"
    },
    {
      "channel": 3,
      "note": 52,
      "start": 32.6739,
      "duration": 0.1244,
      "velocity": 91,
      "chip": "ym2612"
    },
    {
      "channel": 2,
      "note": 60,
      "start": 32.6752,
      "duration": 0.1197,
      "velocity": 122,
      "chip": "ym2612"
    },
    {
      "channel": 5,
      "note": 61,
      "start": 32.7026,
      "duration": 0.1251,
      "velocity": 122,
      "chip": "ym2612"
    },
    {
      "channel": 3,
      "note": 59,
      "start": 32.799,
      "duration": 0.1257,
      "velocity": 91,
      "chip": "ym2612"
    },
    {
      "channel": 2,
      "note": 38,
      "start": 32.8003,
      "duration": 0.1061,
      "velocity": 120,
      "chip": "ym2612"
    },
    {
      "channel": 1,
      "note": 52,
      "start": 32.9245,
      "duration": 0.125,
      "velocity": 91,
      "chip": "ym2612"
    },
    {
      "channel": 3,
      "note": 57,
      "start": 32.9253,
      "duration": 0.2506,
      "velocity": 91,
      "chip": "ym2612"
    },
    {
      "channel": 2,
      "note": 57,
      "start": 32.9265,
      "duration": 0.1199,
      "velocity": 116,
      "chip": "ym2612"
    },
    {
      "channel": 1,
      "note": 52,
      "start": 33.0503,
      "duration": 0.1247,
      "velocity": 91,
      "chip": "ym2612"
    },
    {
      "channel": 2,
      "note": 57,
      "start": 33.0518,
      "duration": 0.12,
      "velocity": 116,
      "chip": "ym2612"
    },
    {
      "channel": 1,
      "note": 52,
      "start": 33.1758,
      "duration": 0.251,
      "velocity": 91,
      "chip": "ym2612"
    },
    {
      "channel": 3,
      "note": 64,
      "start": 33.1766,
      "duration": 0.3758,
      "velocity": 91,
      "chip": "ym2612"
    },
    {
      "channel": 2,
      "note": 38,
      "start": 33.1777,
      "duration": 0.1056,
      "velocity": 120,
      "chip": "ym2612"
    },
    {
      "channel": 2,
      "note": 38,
      "start": 33.3023,
      "duration": 0.1067,
      "velocity": 120,
      "chip": "ym2612"
    },
    {
      "channel": 0,
      "note": 68,
      "start": 33.4266,
      "duration": 0.2507,
      "velocity": 91,
      "chip": "ym2612"
    },
    {
      "channel": 1,
      "note": 52,
      "start": 33.4276,
      "duration": 0.2505,
      "velocity": 91,
      "chip": "ym2612"
    },
    {
      "channel": 2,
      "note": 57,
      "start": 33.429,
      "duration": 0.1198,
      "velocity": 116,
      "chip": "ym2612"
    },
    {
      "channel": 3,
      "note": 62,
      "start": 33.5529,
      "duration": 0.3772,
      "velocity": 91,
      "chip": "ym2612"
    },
    {
      "channel": 2,
      "note": 38,
      "start": 33.554,
      "duration": 0.1064,
      "velocity": 120,
      "chip": "ym2612"
    },
    {
      "channel": 0,
      "note": 69,
      "start": 33.6779,
      "duration": 0.2506,
      "velocity": 91,
      "chip": "ym2612"
    },
    {
      "channel": 1,
      "note": 52,
      "start": 33.6788,
      "duration": 0.1244,
      "velocity": 91,
      "chip": "ym2612"
    },
    {
      "channel": 4,
      "note": 68,
      "start": 33.6799,
      "duration": 0.251,
      "velocity": 91,
      "chip": "ym2612"
    },
    {
      "channel": 2,
      "note": 60,
      "start": 33.6807,
      "duration": 0.1194,
      "velocity": 122,
      "chip": "ym2612"
    },
    {
      "channel": 5,
      "note": 61,
      "start": 33.7079,
      "duration": 0.1251,
      "velocity": 122,
      "chip": "ym2612"
    },
    {
      "channel": 1,
      "note": 52,
      "start": 33.804,
      "duration": 0.1252,
      "velocity": 91,
      "chip": "ym2612"
    },
    {
      "channel": 2,
      "note": 38,
      "start": 33.8058,
      "duration": 0.1058,
      "velocity": 120,
      "chip": "ym2612"
    },
    {
      "channel": 0,
      "note": 71,
      "start": 33.9291,
      "duration": 0.2509,
      "velocity": 91,
      "chip": "ym2612"
    },
    {
      "channel": 1,
      "note": 52,
      "start": 33.93,
      "duration": 0.1245,
      "velocity": 91,
      "chip": "ym2612"
    },
    {
      "channel": 3,
      "note": 66,
      "start": 33.9307,
      "duration": 0.2517,
      "velocity": 91,
      "chip": "ym2612"
    },
    {
      "channel": 4,
      "note": 69,
      "start": 33.9315,
      "duration": 0.2517,
      "velocity": 91,
      "chip": "ym2612"
    },
    {
      "channel": 2,
      "note": 57,
      "start": 33.9323,
      "duration": 0.1191,
      "velocity": 116,
      "chip": "ym2612"
    },
    {
      "channel": 1,
      "note": 52,
      "start": 34.0553,
      "duration": 0.1258,
      "velocity": 91,
      "chip": "ym2612"
    },
    {
      "channel": 2,
      "note": 57,
      "start": 34.0568,
      "duration": 0.1203,
      "velocity": 116,
      "chip": "ym2612"
    },
    {
      "channel": 0,
      "note": 74,
      "start": 34.1806,
      "duration": 1.7583,
      "velocity": 91,
      "chip": "ym2612"
    },
    {
      "channel": 1,
      "note": 52,
      "start": 34.1819,
      "duration": 0.1212,
      "velocity": 91,
      "chip": "ym2612"
    },
    {
      "channel": 3,
      "note": 52,
      "start": 34.183,
      "duration": 0.121,
      "velocity": 91,
      "chip": "ym2612"
    },
    {
      "channel": 4,
      "note": 71,
      "start": 34.1838,
      "duration": 0.2494,
      "velocity": 91,
      "chip": "ym2612"
    },
    {
      "channel": 2,
      "note": 38,
      "start": 34.1846,
      "duration": 0.1039,
      "velocity": 120,
      "chip": "ym2612"
    },
    {
      "channel": 1,
      "note": 52,
      "start": 34.3039,
      "duration": 0.1276,
      "velocity": 91,
      "chip": "ym2612"
    },
    {
      "channel": 3,
      "note": 52,
      "start": 34.3046,
      "duration": 0.1278,
      "velocity": 91,
      "chip": "ym2612"
    },
    {
      "channel": 1,
      "note": 52,
      "start": 34.4323,
      "duration": 0.1249,
      "velocity": 91,
      "chip": "ym2612"
    },
    {
      "channel": 3,
      "note": 52,
      "start": 34.433,
      "duration": 0.1251,
      "velocity": 91,
      "chip": "ym2612"
    },
    {
      "channel": 4,
      "note": 74,
      "start": 34.4339,
      "duration": 1.7593,
      "velocity": 91,
      "chip": "ym2612"
    },
    {
      "channel": 2,
      "note": 57,
      "start": 34.4346,
      "duration": 0.1194,
      "velocity": 116,
      "chip": "ym2612"
    },
    {
      "channel": 1,
      "note": 52,
      "start": 34.5579,
      "duration": 0.1248,
      "velocity": 91,
      "chip": "ym2612"
    },
    {
      "channel": 3,
      "note": 52,
      "start": 34.5587,
      "duration": 0.2501,
      "velocity": 91,
      "chip": "ym2612"
    },
    {
      "channel": 2,
      "note": 57,
      "start": 34.5598,
      "duration": 0.1198,
      "velocity": 116,
      "chip": "ym2612"
    },
    {
      "channel": 1,
      "note": 52,
      "start": 34.6836,
      "duration": 0.2506,
      "velocity": 91,
      "chip": "ym2612"
    },
    {
      "channel": 2,
      "note": 60,
      "start": 34.685,
      "duration": 0.1202,
      "velocity": 122,
      "chip": "ym2612"
    },
    {
      "channel": 5,
      "note": 61,
      "start": 34.713,
      "duration": 0.1251,
      "velocity": 122,
      "chip": "ym2612"
    },
    {
      "channel": 3,
      "note": 59,
      "start": 34.8094,
      "duration": 0.1257,
      "velocity": 91,
      "chip": "ym2612"
    },
    {
      "channel": 2,
      "note": 38,
      "start": 34.8108,
      "duration": 0.106,
      "velocity": 120,
      "chip": "ym2612"
    },
    {
      "channel": 1,
      "note": 52,
      "start": 34.9349,
      "duration": 0.1248,
      "velocity": 91,
      "chip": "ym2612"
    },
    {
      "channel": 3,
      "note": 57,
      "start": 34.9356,
      "duration": 0.251,
      "velocity": 91,
      "chip": "ym2612"
    },
    {
      "channel": 2,
      "note": 57,
      "start": 34.9368,
      "duration": 0.1197,
      "velocity": 116,
      "chip": "ym2612"
    },
    {
      "channel": 1,
      "note": 52,
      "start": 35.0605,
      "duration": 0.1253,
      "velocity": 91,
      "chip": "ym2612"
    },
    {
      "channel": 2,
      "note": 57,
      "start": 35.062,
      "duration": 0.1207,
      "velocity": 116,
      "chip": "ym2612"
    },
    {
      "channel": 1,
      "note": 52,
      "start": 35.1866,
      "duration": 0.2502,
      "velocity": 91,
      "chip": "ym2612"
    },
    {
      "channel": 3,
      "note": 62,
      "start": 35.1873,
      "duration": 0.3753,
      "velocity": 91,
      "chip": "ym2612"
    },
    {
      "channel": 2,
      "note": 38,
      "start": 35.1885,
      "duration": 0.1052,
      "velocity": 120,
      "chip": "ym2612"
    },
    {
      "channel": 2,
      "note": 38,
      "start": 35.3127,
      "duration": 0.1067,
      "velocity": 120,
      "chip": "ym2612"
    },
    {
      "channel": 1,
      "note": 52,
      "start": 35.4375,
      "duration": 0.2504,
      "velocity": 91,
      "chip": "ym2612"
    },
    {
      "channel": 2,
      "note": 57,
      "start": 35.439,
      "duration": 0.1201,
      "velocity": 116,
      "chip": "ym2612"
    },
    {
      "channel": 3,
      "note": 59,
      "start": 35.5632,
      "duration": 0.3774,
      "velocity": 91,
      "chip": "ym2612"
    },
    {
      "channel": 2,
      "note": 38,
      "start": 35.5644,
      "duration": 0.1063,
      "velocity": 120,
      "chip": "ym2612"
    },
    {
      "channel": 1,
      "note": 52,
      "start": 35.6887,
      "duration": 0.1249,
      "velocity": 91,
      "chip": "ym2612"
    },
    {
      "channel": 2,
      "note": 60,
      "start": 35.6902,
      "duration": 0.1203,
      "velocity": 122,
      "chip": "ym2612"
    },
    {
      "channel": 5,
      "note": 61,
      "start": 35.7183,
      "duration": 0.1251,
      "velocity": 122,
      "chip": "ym2612"
    },
    {
      "channel": 1,
      "note": 52,
      "start": 35.8144,
      "duration": 0.1253,
      "velocity": 91,
      "chip": "ym2612"
    },
    {
      "channel": 2,
      "note": 38,
      "start": 35.8161,
      "duration": 0.1058,
      "velocity": 120,
      "chip": "ym2612"
    },
    {
      "channel": 0,
      "note": 64,
      "start": 35.9396,
      "duration": 0.125,
      "velocity": 91,
      "chip": "ym2612"
    },
    {
      "channel": 1,
      "note": 52,
      "start": 35.9405,
      "duration": 0.1249,
      "velocity": 91,
      "chip": "ym2612"
    },
    {
      "channel": 3,
      "note": 57,
      "start": 35.9412,
      "duration": 0.2512,
      "velocity": 91,
      "chip": "ym2612"
    },
    {
      "channel": 2,
      "note": 57,
      "start": 35.9425,
      "duration": 0.1193,
      "velocity": 116,
      "chip": "ym2612"
    },
    {
      "channel": 0,
      "note": 65,
      "start": 36.0652,
      "duration": 0.1251,
      "velocity": 91,
      "chip": "ym2612"
    },
    {
      "channel": 1,
      "note": 52,
      "start": 36.0661,
      "duration": 0.1254,
      "velocity": 91,
      "chip": "ym2612"
    },
    {
      "channel": 2,
      "note": 57,
      "start": 36.0676,
      "duration": 0.1198,
      "velocity": 116,
      "chip": "ym2612"
    },
    {
      "channel": 0,
      "note": 64,
      "start": 36.1909,
      "duration": 1.2559,
      "velocity": 91,
      "chip": "ym2612"
    },
    {
      "channel": 1,
      "note": 52,
      "start": 36.1923,
      "duration": 0.1212,
      "velocity": 91,
      "chip": "ym2612"
    },
    {
      "channel": 3,
      "note": 52,
      "start": 36.193,
      "duration": 0.1215,
      "velocity": 91,
      "chip": "ym2612"
    },
    {
      "channel": 4,
      "note": 64,
      "start": 36.1937,
      "duration": 0.1214,
      "velocity": 91,
      "chip": "ym2612"
    },
    {
      "channel": 2,
      "note": 38,
      "start": 36.1946,
      "duration": 0.1043,
      "velocity": 120,
      "chip": "ym2612"
    },
    {
      "channel": 1,
      "note": 52,
      "start": 36.3144,
      "duration": 0.1276,
      "velocity": 91,
      "chip": "ym2612"
    },
    {
      "channel": 3,
      "note": 52,
      "start": 36.3151,
      "duration": 0.1278,
      "velocity": 91,
      "chip": "ym2612"
    },
    {
      "channel": 4,
      "note": 65,
      "start": 36.3157,
      "duration": 0.1278,
      "velocity": 91,
      "chip": "ym2612"
    },
    {
      "channel": 1,
      "note": 52,
      "start": 36.4427,
      "duration": 0.1249,
      "velocity": 91,
      "chip": "ym2612"
    },
    {
      "channel": 3,
      "note": 52,
      "start": 36.4434,
      "duration": 0.1251,
      "velocity": 91,
      "chip": "ym2612"
    },
    {
      "channel": 4,
      "note": 64,
      "start": 36.4442,
      "duration": 1.2558,
      "velocity": 91,
      "chip": "ym2612"
    },
    {
      "channel": 2,
      "note": 57,
      "start": 36.4449,
      "duration": 0.1195,
      "velocity": 116,
      "chip": "ym2612"
    },
    {
      "channel": 1,
      "note": 52,
      "start": 36.5683,
      "duration": 0.1249,
      "velocity": 91,
      "chip": "ym2612"
    },
    {
      "channel": 3,
      "note": 52,
      "start": 36.569,
      "duration": 0.1251,
      "velocity": 91,
      "chip": "ym2612"
    },
    {
      "channel": 2,
      "note": 57,
      "start": 36.5702,
      "duration": 0.1198,
      "velocity": 116,
      "chip": "ym2612"
    },
    {
      "channel": 1,
      "note": 52,
      "start": 36.694,
      "duration": 0.2505,
      "velocity": 91,
      "chip": "ym2612"
    },
    {
      "channel": 3,
      "note": 52,
      "start": 36.6947,
      "duration": 0.1245,
      "velocity": 91,
      "chip": "ym2612"
    },
    {
      "channel": 2,
      "note": 60,
      "start": 36.6958,
      "duration": 0.1199,
      "velocity": 122,
      "chip": "ym2612"
    },
    {
      "channel": 5,
      "note": 61,
      "start": 36.7234,
      "duration": 0.1251,
      "velocity": 122,
      "chip": "ym2612"
    },
    {
      "channel": 3,
      "note": 59,
      "start": 36.8198,
      "duration": 0.1256,
      "velocity": 91,
      "chip": "ym2612"
    },
    {
      "channel": 2,
      "note": 38,
      "start": 36.8212,
      "duration": 0.1059,
      "velocity": 120,
      "chip": "ym2612"
    },
    {
      "channel": 1,
      "note": 52,
      "start": 36.9453,
      "duration": 0.1248,
      "velocity": 91,
      "chip": "ym2612"
    },
    {
      "channel": 3,
      "note": 57,
      "start": 36.946,
      "duration": 0.2507,
      "velocity": 91,
      "chip": "ym2612"
    },
    {
      "channel": 2,
      "note": 57,
      "start": 36.9472,
      "duration": 0.1197,
      "velocity": 116,
      "chip": "ym2612"
    },
    {
      "channel": 1,
      "note": 52,
      "start": 37.0708,
      "duration": 0.1249,
      "velocity": 91,
      "chip": "ym2612"
    },
    {
      "channel": 2,
      "note": 57,
      "start": 37.0724,
      "duration": 0.1202,
      "velocity": 116,
      "chip": "ym2612"
    },
    {
      "channel": 1,
      "note": 52,
      "start": 37.1965,
      "duration": 0.251,
      "velocity": 91,
      "chip": "ym2612"
    },
    {
      "channel": 3,
      "note": 64,
      "start": 37.1972,
      "duration": 0.3758,
      "velocity": 91,
      "chip": "ym2612"
    },
    {
      "channel": 2,
      "note": 38,
      "start": 37.1984,
      "duration": 0.1058,
      "velocity": 120,
      "chip": "ym2612"
    },
    {
      "channel": 2,
      "note": 38,
      "start": 37.3231,
      "duration": 0.1067,
      "velocity": 120,
      "chip": "ym2612"
    },
    {
      "channel": 0,
      "note": 63,
      "start": 37.4474,
      "duration": 0.2506,
      "velocity": 91,
      "chip": "ym2612"
    },
    {
      "channel": 1,
      "note": 52,
      "start": 37.4483,
      "duration": 0.2504,
      "velocity": 91,
      "chip": "ym2612"
    },
    {
      "channel": 2,
      "note": 57,
      "start": 37.4498,
      "duration": 0.1197,
      "velocity": 116,
      "chip": "ym2612"
    },
    {
      "channel": 3,
      "note": 62,
      "start": 37.5736,
      "duration": 0.3774,
      "velocity": 91,
      "chip": "ym2612"
    },
    {
      "channel": 2,
      "note": 38,
      "start": 37.5747,
      "duration": 0.1063,
      "velocity": 120,
      "chip": "ym2612"
    },
    {
      "channel": 0,
      "note": 62,
      "start": 37.6986,
      "duration": 0.2508,
      "velocity": 91,
      "chip": "ym2612"
    },
    {
      "channel": 1,
      "note": 52,
      "start": 37.6995,
      "duration": 0.1246,
      "velocity": 91,
      "chip": "ym2612"
    },
    {
      "channel": 4,
      "note": 63,
      "start": 37.7005,
      "duration": 0.2512,
      "velocity": 91,
      "chip": "ym2612"
    },
    {
      "channel": 2,
      "note": 60,
      "start": 37.7014,
      "duration": 0.1195,
      "velocity": 122,
      "chip": "ym2612"
    },
    {
      "channel": 5,
      "note": 61,
      "start": 37.7287,
      "duration": 0.125,
      "velocity": 122,
      "chip": "ym2612"
    },
    {
      "channel": 1,
      "note": 52,
      "start": 37.8248,
      "duration": 0.1253,
      "velocity": 91,
      "chip": "ym2612"
    },
    {
      "channel": 2,
      "note": 38,
      "start": 37.8266,
      "duration": 0.1059,
      "velocity": 120,
      "chip": "ym2612"
    },
    {
      "channel": 0,
      "note": 61,
      "start": 37.95,
      "duration": 0.2507,
      "velocity": 91,
      "chip": "ym2612"
    },
    {
      "channel": 1,
      "note": 52,
      "start": 37.9509,
      "duration": 0.1245,
      "velocity": 91,
      "chip": "ym2612"
    },
    {
      "channel": 3,
      "note": 66,
      "start": 37.9516,
      "duration": 0.2517,
      "velocity": 91,
      "chip": "ym2612"
    },
    {
      "channel": 4,
      "note": 62,
      "start": 37.9523,
      "duration": 0.2517,
      "velocity": 91,
      "chip": "ym2612"
    },
    {
      "channel": 2,
      "note": 57,
      "start": 37.9532,
      "duration": 0.119,
      "velocity": 116,
      "chip": "ym2612"
    },
    {
      "channel": 1,
      "note": 52,
      "start": 38.0761,
      "duration": 0.1258,
      "velocity": 91,
      "chip": "ym2612"
    },
    {
      "channel": 2,
      "note": 57,
      "start": 38.0776,
      "duration": 0.1202,
      "velocity": 116,
      "chip": "ym2612"
    },
    {
      "channel": 0,
      "note": 76,
      "start": 38.2014,
      "duration": 0.5019,
      "velocity": 91,
      "chip": "ym2612"
    },
    {
      "channel": 1,
      "note": 52,
      "start": 38.2027,
      "duration": 0.1212,
      "velocity": 91,
      "chip": "ym2612"
    },
    {
      "channel": 3,
      "note": 52,
      "start": 38.2039,
      "duration": 0.1209,
      "velocity": 91,
      "chip": "ym2612"
    },
    {
      "channel": 4,
      "note": 61,
      "start": 38.2046,
      "duration": 0.2494,
      "velocity": 91,
      "chip": "ym2612"
    },
    {
      "channel": 2,
      "note": 38,
      "start": 38.2054,
      "duration": 0.104,
      "velocity": 120,
      "chip": "ym2612"
    },
    {
      "channel": 1,
      "note": 52,
      "start": 38.3246,
      "duration": 0.1276,
      "velocity": 91,
      "chip": "ym2612"
    },
    {
      "channel": 3,
      "note": 52,
      "start": 38.3254,
      "duration": 0.1277,
      "velocity": 91,
      "chip": "ym2612"
    },
    {
      "channel": 1,
      "note": 52,
      "start": 38.453,
      "duration": 0.1249,
      "velocity": 91,
      "chip": "ym2612"
    },
    {
      "channel": 3,
      "note": 52,
      "start": 38.4537,
      "duration": 0.1251,
      "velocity": 91,
      "chip": "ym2612"
    },
    {
      "channel": 4,
      "note": 76,
      "start": 38.4546,
      "duration": 0.502,
      "velocity": 91,
      "chip": "ym2612"
    },
    {
      "channel": 2,
      "note": 57,
      "start": 38.4554,
      "duration": 0.1193,
      "velocity": 116,
      "chip": "ym2612"
    },
    {
      "channel": 1,
      "note": 52,
      "start": 38.5787,
      "duration": 0.1252,
      "velocity": 91,
      "chip": "ym2612"
    },
    {
      "channel": 3,
      "note": 52,
      "start": 38.5794,
      "duration": 0.2501,
      "velocity": 91,
      "chip": "ym2612"
    },
    {
      "channel": 2,
      "note": 57,
      "start": 38.5806,
      "duration": 0.1198,
      "velocity": 116,
      "chip": "ym2612"
    },
    {
      "channel": 0,
      "note": 74,
      "start": 38.7039,
      "duration": 0.5019,
      "velocity": 91,
      "chip": "ym2612"
    },
    {
      "channel": 1,
      "note": 52,
      "start": 38.7047,
      "duration": 0.2501,
      "velocity": 91,
      "chip": "ym2612"
    },
    {
      "channel": 2,
      "note": 60,
      "start": 38.7063,
      "duration": 0.1198,
      "velocity": 122,
      "chip": "ym2612"
    },
    {
      "channel": 5,
      "note": 61,
      "start": 38.7339,
      "duration": 0.125,
      "velocity": 122,
      "chip": "ym2612"
    },
    {
      "channel": 3,
      "note": 59,
      "start": 38.8301,
      "duration": 0.1257,
      "velocity": 91,
      "chip": "ym2612"
    },
    {
      "channel": 2,
      "note": 38,
      "start": 38.8315,
      "duration": 0.106,
      "velocity": 120,
      "chip": "ym2612"
    },
    {
      "channel": 1,
      "note": 52,
      "start": 38.9556,
      "duration": 0.1248,
      "velocity": 91,
      "chip": "ym2612"
    },
    {
      "channel": 3,
      "note": 57,
      "start": 38.9564,
      "duration": 0.251,
      "velocity": 91,
      "chip": "ym2612"
    },
    {
      "channel": 4,
      "note": 74,
      "start": 38.9572,
      "duration": 0.5015,
      "velocity": 91,
      "chip": "ym2612"
    },
    {
      "channel": 2,
      "note": 57,
      "start": 38.958,
      "duration": 0.1193,
      "velocity": 116,
      "chip": "ym2612"
    },
    {
      "channel": 1,
      "note": 52,
      "start": 39.0812,
      "duration": 0.1253,
      "velocity": 91,
      "chip": "ym2612"
    },
    {
      "channel": 2,
      "note": 57,
      "start": 39.0827,
      "duration": 0.1202,
      "velocity": 116,
      "chip": "ym2612"
    },
    {
      "channel": 0,
      "note": 68,
      "start": 39.2063,
      "duration": 2.2611,
      "velocity": 91,
      "chip": "ym2612"
    },
    {
      "channel": 1,
      "note": 52,
      "start": 39.2073,
      "duration": 0.2501,
      "velocity": 91,
      "chip": "ym2612"
    },
    {
      "channel": 3,
      "note": 62,
      "start": 39.208,
      "duration": 0.3756,
      "velocity": 91,
      "chip": "ym2612"
    },
    {
      "channel": 2,
      "note": 38,
      "start": 39.2092,
      "duration": 0.1054,
      "velocity": 120,
      "chip": "ym2612"
    },
    {
      "channel": 2,
      "note": 38,
      "start": 39.3335,
      "duration": 0.1066,
      "velocity": 120,
      "chip": "ym2612"
    },
    {
      "channel": 1,
      "note": 52,
      "start": 39.4581,
      "duration": 0.2507,
      "velocity": 91,
      "chip": "ym2612"
    },
    {
      "channel": 4,
      "note": 68,
      "start": 39.4593,
      "duration": 2.2619,
      "velocity": 91,
      "chip": "ym2612"
    },
    {
      "channel": 2,
      "note": 57,
      "start": 39.4601,
      "duration": 0.12,
      "velocity": 116,
      "chip": "ym2612"
    },
    {
      "channel": 3,
      "note": 59,
      "start": 39.5841,
      "duration": 0.3769,
      "velocity": 91,
      "chip": "ym2612"
    },
    {
      "channel": 2,
      "note": 38,
      "start": 39.5853,
      "duration": 0.1061,
      "velocity": 120,
      "chip": "ym2612"
    },
    {
      "channel": 1,
      "note": 52,
      "start": 39.7096,
      "duration": 0.1248,
      "velocity": 91,
      "chip": "ym2612"
    },
    {
      "channel": 2,
      "note": 60,
      "start": 39.7111,
      "duration": 0.1202,
      "velocity": 122,
      "chip": "ym2612"
    },
    {
      "channel": 5,
      "note": 61,
      "start": 39.739,
      "duration": 0.1251,
      "velocity": 122,
      "chip": "ym2612"
    },
    {
      "channel": 1,
      "note": 52,
      "start": 39.8351,
      "duration": 0.1249,
      "velocity": 91,
      "chip": "ym2612"
    },
    {
      "channel": 2,
      "note": 38,
      "start": 39.8369,
      "duration": 0.1059,
      "velocity": 120,
      "chip": "ym2612"
    },
    {
      "channel": 1,
      "note": 52,
      "start": 39.9608,
      "duration": 0.1249,
      "velocity": 91,
      "chip": "ym2612"
    },
    {
      "channel": 3,
      "note": 57,
      "start": 39.9616,
      "duration": 0.2511,
      "velocity": 91,
      "chip": "ym2612"
    },
    {
      "channel": 2,
      "note": 57,
      "start": 39.9628,
      "duration": 0.1198,
      "velocity": 116,
      "chip": "ym2612"
    },
    {
      "channel": 1,
      "note": 52,
      "start": 40.0865,
      "duration": 0.1253,
      "velocity": 91,
      "chip": "ym2612"
    },
    {
      "channel": 2,
      "note": 57,
      "start": 40.088,
      "duration": 0.1202,
      "velocity": 116,
      "chip": "ym2612"
    },
    {
      "channel": 1,
      "note": 52,
      "start": 40.2126,
      "duration": 0.1218,
      "velocity": 91,
      "chip": "ym2612"
    },
    {
      "channel": 3,
      "note": 52,
      "start": 40.2133,
      "duration": 0.122,
      "velocity": 91,
      "chip": "ym2612"
    },
    {
      "channel": 2,
      "note": 38,
      "start": 40.2145,
      "duration": 0.1051,
      "velocity": 120,
      "chip": "ym2612"
    },
    {
      "channel": 1,
      "note": 52,
      "start": 40.3351,
      "duration": 0.1274,
      "velocity": 91,
      "chip": "ym2612"
    },
    {
      "channel": 3,
      "note": 52,
      "start": 40.3359,
      "duration": 0.1277,
      "velocity": 91,
      "chip": "ym2612"
    },
    {
      "channel": 1,
      "note": 52,
      "start": 40.4633,
      "duration": 0.1249,
      "velocity": 91,
      "chip": "ym2612"
    },
    {
      "channel": 3,
      "note": 52,
      "start": 40.4641,
      "duration": 0.1251,
      "velocity": 91,
      "chip": "ym2612"
    },
    {
      "channel": 2,
      "note": 57,
      "start": 40.4652,
      "duration": 0.1199,
      "velocity": 116,
      "chip": "ym2612"
    },
    {
      "channel": 1,
      "note": 52,
      "start": 40.589,
      "duration": 0.1249,
      "velocity": 91,
      "chip": "ym2612"
    },
    {
      "channel": 3,
      "note": 52,
      "start": 40.5897,
      "duration": 0.1251,
      "velocity": 91,
      "chip": "ym2612"
    },
    {
      "channel": 2,
      "note": 57,
      "start": 40.5909,
      "duration": 0.1198,
      "velocity": 116,
      "chip": "ym2612"
    },
    {
      "channel": 1,
      "note": 52,
      "start": 40.7147,
      "duration": 0.2506,
      "velocity": 91,
      "chip": "ym2612"
    },
    {
      "channel": 3,
      "note": 52,
      "start": 40.7154,
      "duration": 0.1245,
      "velocity": 91,
      "chip": "ym2612"
    },
    {
      "channel": 2,
      "note": 60,
      "start": 40.7165,
      "duration": 0.1199,
      "velocity": 122,
      "chip": "ym2612"
    },
    {
      "channel": 5,
      "note": 61,
      "start": 40.7442,
      "duration": 0.1251,
      "velocity": 122,
      "chip": "ym2612"
    },
    {
      "channel": 3,
      "note": 59,
      "start": 40.8405,
      "duration": 0.1256,
      "velocity": 91,
      "chip": "ym2612"
    },
    {
      "channel": 2,
      "note": 38,
      "start": 40.842,
      "duration": 0.106,
      "velocity": 120,
      "chip": "ym2612"
    },
    {
      "channel": 1,
      "note": 52,
      "start": 40.966,
      "duration": 0.1249,
      "velocity": 91,
      "chip": "ym2612"
    },
    {
      "channel": 3,
      "note": 57,
      "start": 40.9668,
      "duration": 0.2507,
      "velocity": 91,
      "chip": "ym2612"
    },
    {
      "channel": 2,
      "note": 57,
      "start": 40.9679,
      "duration": 0.1198,
      "velocity": 116,
      "chip": "ym2612"
    },
    {
      "channel": 1,
      "note": 52,
      "start": 41.0916,
      "duration": 0.1249,
      "velocity": 91,
      "chip": "ym2612"
    },
    {
      "channel": 2,
      "note": 57,
      "start": 41.0932,
      "duration": 0.1202,
      "velocity": 116,
      "chip": "ym2612"
    },
    {
      "channel": 1,
      "note": 52,
      "start": 41.2173,
      "duration": 0.2508,
      "velocity": 91,
      "chip": "ym2612"
    },
    {
      "channel": 3,
      "note": 64,
      "start": 41.2181,
      "duration": 0.3757,
      "velocity": 91,
      "chip": "ym2612"
    },
    {
      "channel": 2,
      "note": 38,
      "start": 41.2193,
      "duration": 0.1056,
      "velocity": 120,
      "chip": "ym2612"
    },
    {
      "channel": 2,
      "note": 38,
      "start": 41.3439,
      "duration": 0.1066,
      "velocity": 120,
      "chip": "ym2612"
    },
    {
      "channel": 0,
      "note": 68,
      "start": 41.468,
      "duration": 0.2512,
      "velocity": 91,
      "chip": "ym2612"
    },
    {
      "channel": 1,
      "note": 52,
      "start": 41.4689,
      "duration": 0.251,
      "velocity": 91,
      "chip": "ym2612"
    },
    {
      "channel": 2,
      "note": 57,
      "start": 41.4705,
      "duration": 0.1198,
      "velocity": 116,
      "chip": "ym2612"
    },
    {
      "channel": 3,
      "note": 62,
      "start": 41.5944,
      "duration": 0.3773,
      "velocity": 91,
      "chip": "ym2612"
    },
    {
      "channel": 2,
      "note": 38,
      "start": 41.5956,
      "duration": 0.1066,
      "velocity": 120,
      "chip": "ym2612"
    },
    {
      "channel": 0,
      "note": 69,
      "start": 41.7198,
      "duration": 0.2504,
      "velocity": 91,
      "chip": "ym2612"
    },
    {
      "channel": 1,
      "note": 52,
      "start": 41.7206,
      "duration": 0.1242,
      "velocity": 91,
      "chip": "ym2612"
    },
    {
      "channel": 4,
      "note": 68,
      "start": 41.7218,
      "duration": 0.2508,
      "velocity": 91,
      "chip": "ym2612"
    },
    {
      "channel": 2,
      "note": 60,
      "start": 41.7226,
      "duration": 0.1191,
      "velocity": 122,
      "chip": "ym2612"
    },
    {
      "channel": 5,
      "note": 61,
      "start": 41.7496,
      "duration": 0.1249,
      "velocity": 122,
      "chip": "ym2612"
    },
    {
      "channel": 1,
      "note": 52,
      "start": 41.8456,
      "duration": 0.1253,
      "velocity": 91,
      "chip": "ym2612"
    },
    {
      "channel": 2,
      "note": 38,
      "start": 41.8474,
      "duration": 0.1058,
      "velocity": 120,
      "chip": "ym2612"
    },
    {
      "channel": 0,
      "note": 71,
      "start": 41.9707,
      "duration": 0.2508,
      "velocity": 91,
      "chip": "ym2612"
    },
    {
      "channel": 1,
      "note": 52,
      "start": 41.9716,
      "duration": 0.1245,
      "velocity": 91,
      "chip": "ym2612"
    },
    {
      "channel": 3,
      "note": 66,
      "start": 41.9724,
      "duration": 0.2517,
      "velocity": 91,
      "chip": "ym2612"
    },
    {
      "channel": 4,
      "note": 69,
      "start": 41.9731,
      "duration": 0.2517,
      "velocity": 91,
      "chip": "ym2612"
    },
    {
      "channel": 2,
      "note": 57,
      "start": 41.9739,
      "duration": 0.119,
      "velocity": 116,
      "chip": "ym2612"
    },
    {
      "channel": 1,
      "note": 52,
      "start": 42.0968,
      "duration": 0.1259,
      "velocity": 91,
      "chip": "ym2612"
    },
    {
      "channel": 2,
      "note": 57,
      "start": 42.0983,
      "duration": 0.1203,
      "velocity": 116,
      "chip": "ym2612"
    },
    {
      "channel": 0,
      "note": 74,
      "start": 42.2222,
      "duration": 1.7583,
      "velocity": 91,
      "chip": "ym2612"
    },
    {
      "channel": 1,
      "note": 52,
      "start": 42.2235,
      "duration": 0.1212,
      "velocity": 91,
      "chip": "ym2612"
    },
    {
      "channel": 3,
      "note": 52,
      "start": 42.2246,
      "duration": 0.121,
      "velocity": 91,
      "chip": "ym2612"
    },
    {
      "channel": 4,
      "note": 71,
      "start": 42.2254,
      "duration": 0.2493,
      "velocity": 91,
      "chip": "ym2612"
    },
    {
      "channel": 2,
      "note": 38,
      "start": 42.2262,
      "duration": 0.1038,
      "velocity": 120,
      "chip": "ym2612"
    },
    {
      "channel": 1,
      "note": 52,
      "start": 42.3454,
      "duration": 0.1276,
      "velocity": 91,
      "chip": "ym2612"
    },
    {
      "channel": 3,
      "note": 52,
      "start": 42.3462,
      "duration": 0.1277,
      "velocity": 91,
      "chip": "ym2612"
    },
    {
      "channel": 1,
      "note": 52,
      "start": 42.4738,
      "duration": 0.1249,
      "velocity": 91,
      "chip": "ym2612"
    },
    {
      "channel": 3,
      "note": 52,
      "start": 42.4745,
      "duration": 0.1251,
      "velocity": 91,
      "chip": "ym2612"
    },
    {
      "channel": 4,
      "note": 74,
      "start": 42.4754,
      "duration": 1.7593,
      "velocity": 91,
      "chip": "ym2612"
    },
    {
      "channel": 2,
      "note": 57,
      "start": 42.4762,
      "duration": 0.1193,
      "velocity": 116,
      "chip": "ym2612"
    },
    {
      "channel": 1,
      "note": 52,
      "start": 42.5994,
      "duration": 0.1249,
      "velocity": 91,
      "chip": "ym2612"
    },
    {
      "channel": 3,
      "note": 52,
      "start": 42.6001,
      "duration": 0.2502,
      "velocity": 91,
      "chip": "ym2612"
    },
    {
      "channel": 2,
      "note": 57,
      "start": 42.6013,
      "duration": 0.1198,
      "velocity": 116,
      "chip": "ym2612"
    },
    {
      "channel": 1,
      "note": 52,
      "start": 42.7251,
      "duration": 0.2506,
      "velocity": 91,
      "chip": "ym2612"
    },
    {
      "channel": 2,
      "note": 60,
      "start": 42.7266,
      "duration": 0.1202,
      "velocity": 122,
      "chip": "ym2612"
    },
    {
      "channel": 5,
      "note": 61,
      "start": 42.7546,
      "duration": 0.1251,
      "velocity": 122,
      "chip": "ym2612"
    },
    {
      "channel": 3,
      "note": 59,
      "start": 42.8509,
      "duration": 0.1256,
      "velocity": 91,
      "chip": "ym2612"
    },
    {
      "channel": 2,
      "note": 38,
      "start": 42.8523,
      "duration": 0.1059,
      "velocity": 120,
      "chip": "ym2612"
    },
    {
      "channel": 1,
      "note": 52,
      "start": 42.9764,
      "duration": 0.1247,
      "velocity": 91,
      "chip": "ym2612"
    },
    {
      "channel": 3,
      "note": 57,
      "start": 42.9772,
      "duration": 0.2507,
      "velocity": 91,
      "chip": "ym2612"
    },
    {
      "channel": 2,
      "note": 57,
      "start": 42.9783,
      "duration": 0.1197,
      "velocity": 116,
      "chip": "ym2612"
    },
    {
      "channel": 1,
      "note": 52,
      "start": 43.102,
      "duration": 0.1251,
      "velocity": 91,
      "chip": "ym2612"
    },
    {
      "channel": 2,
      "note": 57,
      "start": 43.1035,
      "duration": 0.1203,
      "velocity": 116,
      "chip": "ym2612"
    },
    {
      "channel": 1,
      "note": 52,
      "start": 43.2278,
      "duration": 0.2504,
      "velocity": 91,
      "chip": "ym2612"
    },
    {
      "channel": 3,
      "note": 62,
      "start": 43.2285,
      "duration": 0.3756,
      "velocity": 91,
      "chip": "ym2612"
    },
    {
      "channel": 2,
      "note": 38,
      "start": 43.2297,
      "duration": 0.1055,
      "velocity": 120,
      "chip": "ym2612"
    },
    {
      "channel": 2,
      "note": 38,
      "start": 43.3542,
      "duration": 0.1067,
      "velocity": 120,
      "chip": "ym2612"
    },
    {
      "channel": 1,
      "note": 52,
      "start": 43.479,
      "duration": 0.2506,
      "velocity": 91,
      "chip": "ym2612"
    },
    {
      "channel": 2,
      "note": 57,
      "start": 43.4805,
      "duration": 0.1201,
      "velocity": 116,
      "chip": "ym2612"
    },
    {
      "channel": 3,
      "note": 59,
      "start": 43.6047,
      "duration": 0.3775,
      "velocity": 91,
      "chip": "ym2612"
    },
    {
      "channel": 2,
      "note": 38,
      "start": 43.6058,
      "duration": 0.1064,
      "velocity": 120,
      "chip": "ym2612"
    },
    {
      "channel": 1,
      "note": 52,
      "start": 43.7303,
      "duration": 0.1253,
      "velocity": 91,
      "chip": "ym2612"
    },
    {
      "channel": 2,
      "note": 60,
      "start": 43.7318,
      "duration": 0.1207,
      "velocity": 122,
      "chip": "ym2612"
    },
    {
      "channel": 5,
      "note": 61,
      "start": 43.7599,
      "duration": 0.1253,
      "velocity": 122,
      "chip": "ym2612"
    },
    {
      "channel": 1,
      "note": 52,
      "start": 43.8563,
      "duration": 0.1249,
      "velocity": 91,
      "chip": "ym2612"
    },
    {
      "channel": 2,
      "note": 38,
      "start": 43.8581,
      "duration": 0.1055,
      "velocity": 120,
      "chip": "ym2612"
    },
    {
      "channel": 0,
      "note": 76,
      "start": 43.9811,
      "duration": 0.125,
      "velocity": 91,
      "chip": "ym2612"
    },
    {
      "channel": 1,
      "note": 52,
      "start": 43.982,
      "duration": 0.1248,
      "velocity": 91,
      "chip": "ym2612"
    },
    {
      "channel": 3,
      "note": 57,
      "start": 43.9828,
      "duration": 0.2511,
      "velocity": 91,
      "chip": "ym2612"
    },
    {
      "channel": 2,
      "note": 57,
      "start": 43.9839,
      "duration": 0.1194,
      "velocity": 116,
      "chip": "ym2612"
    },
    {
      "channel": 0,
      "note": 77,
      "start": 44.1067,
      "duration": 0.1251,
      "velocity": 91,
      "chip": "ym2612"
    },
    {
      "channel": 1,
      "note": 52,
      "start": 44.1076,
      "duration": 0.1254,
      "velocity": 91,
      "chip": "ym2612"
    },
    {
      "channel": 2,
      "note": 57,
      "start": 44.1092,
      "duration": 0.1198,
      "velocity": 116,
      "chip": "ym2612"
    },
    {
      "channel": 0,
      "note": 80,
      "start": 44.2324,
      "duration": 0.7532,
      "velocity": 91,
      "chip": "ym2612"
    },
    {
      "channel": 1,
      "note": 52,
      "start": 44.2337,
      "duration": 0.1214,
      "velocity": 91,
      "chip": "ym2612"
    },
    {
      "channel": 3,
      "note": 52,
      "start": 44.2345,
      "duration": 0.1215,
      "velocity": 91,
      "chip": "ym2612"
    },
    {
      "channel": 4,
      "note": 76,
      "start": 44.2353,
      "duration": 0.1215,
      "velocity": 91,
      "chip": "ym2612"
    },
    {
      "channel": 2,
      "note": 38,
      "start": 44.236,
      "duration": 0.1043,
      "velocity": 120,
      "chip": "ym2612"
    },
    {
      "channel": 1,
      "note": 52,
      "start": 44.3559,
      "duration": 0.1275,
      "velocity": 91,
      "chip": "ym2612"
    },
    {
      "channel": 3,
      "note": 52,
      "start": 44.3566,
      "duration": 0.1277,
      "velocity": 91,
      "chip": "ym2612"
    },
    {
      "channel": 4,
      "note": 77,
      "start": 44.3573,
      "duration": 0.1277,
      "velocity": 91,
      "chip": "ym2612"
    },
    {
      "channel": 1,
      "note": 52,
      "start": 44.4841,
      "duration": 0.1249,
      "velocity": 91,
      "chip": "ym2612"
    },
    {
      "channel": 3,
      "note": 52,
      "start": 44.4849,
      "duration": 0.1251,
      "velocity": 91,
      "chip": "ym2612"
    },
    {
      "channel": 4,
      "note": 80,
      "start": 44.4856,
      "duration": 0.7533,
      "velocity": 91,
      "chip": "ym2612"
    },
    {
      "channel": 2,
      "note": 57,
      "start": 44.4864,
      "duration": 0.1195,
      "velocity": 116,
      "chip": "ym2612"
    },
    {
      "channel": 1,
      "note": 52,
      "start": 44.6098,
      "duration": 0.1248,
      "velocity": 91,
      "chip": "ym2612"
    },
    {
      "channel": 3,
      "note": 52,
      "start": 44.6106,
      "duration": 0.125,
      "velocity": 91,
      "chip": "ym2612"
    },
    {
      "channel": 2,
      "note": 57,
      "start": 44.6117,
      "duration": 0.1198,
      "velocity": 116,
      "chip": "ym2612"
    },
    {
      "channel": 1,
      "note": 52,
      "start": 44.7355,
      "duration": 0.2509,
      "velocity": 91,
      "chip": "ym2612"
    },
    {
      "channel": 3,
      "note": 52,
      "start": 44.7362,
      "duration": 0.1246,
      "velocity": 91,
      "chip": "ym2612"
    },
    {
      "channel": 2,
      "note": 60,
      "start": 44.7373,
      "duration": 0.1199,
      "velocity": 122,
      "chip": "ym2612"
    },
    {
      "channel": 5,
      "note": 61,
      "start": 44.7649,
      "duration": 0.1251,
      "velocity": 122,
      "chip": "ym2612"
    },
    {
      "channel": 3,
      "note": 59,
      "start": 44.8613,
      "duration": 0.126,
      "velocity": 91,
      "chip": "ym2612"
    },
    {
      "channel": 2,
      "note": 38,
      "start": 44.8627,
      "duration": 0.106,
      "velocity": 120,
      "chip": "ym2612"
    },
    {
      "channel": 0,
      "note": 76,
      "start": 44.9862,
      "duration": 1.2588,
      "velocity": 91,
      "chip": "ym2612"
    },
    {
      "channel": 1,
      "note": 52,
      "start": 44.9872,
      "duration": 0.1244,
      "velocity": 91,
      "chip": "ym2612"
    },
    {
      "channel": 3,
      "note": 57,
      "start": 44.9879,
      "duration": 0.2503,
      "velocity": 91,
      "chip": "ym2612"
    },
    {
      "channel": 2,
      "note": 57,
      "start": 44.9891,
      "duration": 0.1194,
      "velocity": 116,
      "chip": "ym2612"
    },
    {
      "channel": 1,
      "note": 52,
      "start": 45.1124,
      "duration": 0.1249,
      "velocity": 91,
      "chip": "ym2612"
    },
    {
      "channel": 2,
      "note": 57,
      "start": 45.1139,
      "duration": 0.1203,
      "velocity": 116,
      "chip": "ym2612"
    },
    {
      "channel": 1,
      "note": 52,
      "start": 45.2381,
      "duration": 0.2505,
      "velocity": 91,
      "chip": "ym2612"
    },
    {
      "channel": 3,
      "note": 64,
      "start": 45.2388,
      "duration": 0.3757,
      "velocity": 91,
      "chip": "ym2612"
    },
    {
      "channel": 4,
      "note": 76,
      "start": 45.2396,
      "duration": 1.2588,
      "velocity": 91,
      "chip": "ym2612"
    },
    {
      "channel": 2,
      "note": 38,
      "start": 45.2404,
      "duration": 0.1053,
      "velocity": 120,
      "chip": "ym2612"
    },
    {
      "channel": 2,
      "note": 38,
      "start": 45.3646,
      "duration": 0.1066,
      "velocity": 120,
      "chip": "ym2612"
    },
    {
      "channel": 1,
      "note": 52,
      "start": 45.4893,
      "duration": 0.2506,
      "velocity": 91,
      "chip": "ym2612"
    },
    {
      "channel": 2,
      "note": 57,
      "start": 45.4908,
      "duration": 0.1203,
      "velocity": 116,
      "chip": "ym2612"
    },
    {
      "channel": 3,
      "note": 62,
      "start": 45.6152,
      "duration": 0.377,
      "velocity": 91,
      "chip": "ym2612"
    },
    {
      "channel": 2,
      "note": 38,
      "start": 45.6163,
      "duration": 0.1062,
      "velocity": 120,
      "chip": "ym2612"
    },
    {
      "channel": 1,
      "note": 52,
      "start": 45.7406,
      "duration": 0.1249,
      "velocity": 91,
      "chip": "ym2612"
    },
    {
      "channel": 2,
      "note": 60,
      "start": 45.7422,
      "duration": 0.1202,
      "velocity": 122,
      "chip": "ym2612"
    },
    {
      "channel": 5,
      "note": 61,
      "start": 45.7702,
      "duration": 0.1251,
      "velocity": 122,
      "chip": "ym2612"
    },
    {
      "channel": 1,
      "note": 52,
      "start": 45.8663,
      "duration": 0.1249,
      "velocity": 91,
      "chip": "ym2612"
    },
    {
      "channel": 2,
      "note": 38,
      "start": 45.868,
      "duration": 0.1058,
      "velocity": 120,
      "chip": "ym2612"
    },
    {
      "channel": 1,
      "note": 52,
      "start": 45.992,
      "duration": 0.125,
      "velocity": 91,
      "chip": "ym2612"
    },
    {
      "channel": 3,
      "note": 66,
      "start": 45.9927,
      "duration": 0.2574,
      "velocity": 91,
      "chip": "ym2612"
    },
    {
      "channel": 2,
      "note": 57,
      "start": 45.9939,
      "duration": 0.12,
      "velocity": 116,
      "chip": "ym2612"
    },
    {
      "channel": 1,
      "note": 52,
      "start": 46.1177,
      "duration": 0.1311,
      "velocity": 91,
      "chip": "ym2612"
    },
    {
      "channel": 2,
      "note": 57,
      "start": 46.1193,
      "duration": 0.1202,
      "velocity": 116,
      "chip": "ym2612"
    },
    {
      "channel": 0,
      "note": 78,
      "start": 46.2457,
      "duration": 0.499,
      "velocity": 91,
      "chip": "ym2612"
    },
    {
      "channel": 1,
      "note": 54,
      "start": 46.2496,
      "duration": 0.1159,
      "velocity": 91,
      "chip": "ym2612"
    },
    {
      "channel": 3,
      "note": 54,
      "start": 46.2507,
      "duration": 0.1156,
      "velocity": 91,
      "chip": "ym2612"
    },
    {
      "channel": 2,
      "note": 38,
      "start": 46.2519,
      "duration": 0.099,
      "velocity": 120,
      "chip": "ym2612"
    },
    {
      "channel": 1,
      "note": 54,
      "start": 46.3663,
      "duration": 0.1276,
      "velocity": 91,
      "chip": "ym2612"
    },
    {
      "channel": 3,
      "note": 54,
      "start": 46.367,
      "duration": 0.1278,
      "velocity": 91,
      "chip": "ym2612"
    },
    {
      "channel": 1,
      "note": 54,
      "start": 46.4946,
      "duration": 0.1248,
      "velocity": 91,
      "chip": "ym2612"
    },
    {
      "channel": 3,
      "note": 54,
      "start": 46.4953,
      "duration": 0.125,
      "velocity": 91,
      "chip": "ym2612"
    },
    {
      "channel": 4,
      "note": 78,
      "start": 46.4991,
      "duration": 0.2487,
      "velocity": 91,
      "chip": "ym2612"
    },
    {
      "channel": 2,
      "note": 57,
      "start": 46.4999,
      "duration": 0.1164,
      "velocity": 116,
      "chip": "ym2612"
    },
    {
      "channel": 1,
      "note": 54,
      "start": 46.6202,
      "duration": 0.1252,
      "velocity": 91,
      "chip": "ym2612"
    },
    {
      "channel": 3,
      "note": 54,
      "start": 46.6209,
      "duration": 0.1269,
      "velocity": 91,
      "chip": "ym2612"
    },
    {
      "channel": 2,
      "note": 57,
      "start": 46.6221,
      "duration": 0.1198,
      "velocity": 116,
      "chip": "ym2612"
    },
    {
      "channel": 0,
      "note": 76,
      "start": 46.7453,
      "duration": 0.0024,
      "velocity": 91,
      "chip": "ym2612"
    },
    {
      "channel": 1,
      "note": 54,
      "start": 46.7462,
      "duration": 0.0016,
      "velocity": 91,
      "chip": "ym2612"
    },
    {
      "channel": 2,
      "note": 60,
      "start": 46.7477,
      "duration": 0.0,
      "velocity": 122,
      "chip": "ym2612"
    }
  ]
}