{
  "track_name": "06 - Course Select",
  "duration_sec": 13.193,
  "sample_rate": 44100,
  "note_count": 135,
  "unique_pitches": 16,
  "pitch_range": 33,
  "avg_note_duration": 0.3703,
  "reconstruction_stats": {
    "notes_reconstructed": 135,
    "keyon_events": 135,
    "keyoff_events": 130,
    "orphan_keyons": 5,
    "unique_pitches": 16,
    "pitch_range": 33,
    "avg_duration_sec": 0.3703
  },
  "metadata": {
    "source": "F\\Fastest 1\\06 - Course Select.vgz"
  },
  "notes": [
    {
      "channel": 0,
      "note": 68,
      "start": 0.0062,
      "duration": 0.7284,
      "velocity": 102,
      "chip": "ym2612"
    },
    {
      "channel": 1,
      "note": 63,
      "start": 0.0102,
      "duration": 0.7254,
      "velocity": 102,
      "chip": "ym2612"
    },
    {
      "channel": 2,
      "note": 51,
      "start": 0.0175,
      "duration": 0.0296,
      "velocity": 91,
      "chip": "ym2612"
    },
    {
      "channel": 3,
      "note": 51,
      "start": 0.0224,
      "duration": 0.0257,
      "velocity": 76,
      "chip": "ym2612"
    },
    {
      "channel": 4,
      "note": 80,
      "start": 0.0302,
      "duration": 0.5912,
      "velocity": 102,
      "chip": "ym2612"
    },
    {
      "channel": 2,
      "note": 51,
      "start": 0.048,
      "duration": 0.1789,
      "velocity": 91,
      "chip": "ym2612"
    },
    {
      "channel": 3,
      "note": 51,
      "start": 0.0489,
      "duration": 0.1784,
      "velocity": 76,
      "chip": "ym2612"
    },
    {
      "channel": 2,
      "note": 51,
      "start": 0.2272,
      "duration": 0.1007,
      "velocity": 91,
      "chip": "ym2612"
    },
    {
      "channel": 3,
      "note": 51,
      "start": 0.2278,
      "duration": 0.1012,
      "velocity": 76,
      "chip": "ym2612"
    },
    {
      "channel": 2,
      "note": 51,
      "start": 0.4192,
      "duration": 0.0573,
      "velocity": 91,
      "chip": "ym2612"
    },
    {
      "channel": 3,
      "note": 51,
      "start": 0.4202,
      "duration": 0.0576,
      "velocity": 76,
      "chip": "ym2612"
    },
    {
      "channel": 2,
      "note": 51,
      "start": 0.4776,
      "duration": 0.0276,
      "velocity": 91,
      "chip": "ym2612"
    },
    {
      "channel": 3,
      "note": 51,
      "start": 0.4787,
      "duration": 0.0276,
      "velocity": 76,
      "chip": "ym2612"
    },
    {
      "channel": 2,
      "note": 51,
      "start": 0.6204,
      "duration": 0.0566,
      "velocity": 91,
      "chip": "ym2612"
    },
    {
      "channel": 3,
      "note": 51,
      "start": 0.6213,
      "duration": 0.0569,
      "velocity": 76,
      "chip": "ym2612"
    },
    {
      "channel": 4,
      "note": 82,
      "start": 0.6223,
      "duration": 0.0569,
      "velocity": 102,
      "chip": "ym2612"
    },
    {
      "channel": 2,
      "note": 51,
      "start": 0.678,
      "duration": 0.0283,
      "velocity": 91,
      "chip": "ym2612"
    },
    {
      "channel": 3,
      "note": 51,
      "start": 0.6791,
      "duration": 0.0285,
      "velocity": 76,
      "chip": "ym2612"
    },
    {
      "channel": 4,
      "note": 80,
      "start": 0.6799,
      "duration": 0.0586,
      "velocity": 102,
      "chip": "ym2612"
    },
    {
      "channel": 2,
      "note": 63,
      "start": 0.7073,
      "duration": 0.0293,
      "velocity": 91,
      "chip": "ym2612"
    },
    {
      "channel": 3,
      "note": 63,
      "start": 0.7083,
      "duration": 0.0293,
      "velocity": 76,
      "chip": "ym2612"
    },
    {
      "channel": 0,
      "note": 66,
      "start": 0.7355,
      "duration": 0.5794,
      "velocity": 102,
      "chip": "ym2612"
    },
    {
      "channel": 1,
      "note": 61,
      "start": 0.7365,
      "duration": 0.5794,
      "velocity": 102,
      "chip": "ym2612"
    },
    {
      "channel": 4,
      "note": 84,
      "start": 0.7394,
      "duration": 0.2303,
      "velocity": 102,
      "chip": "ym2612"
    },
    {
      "channel": 2,
      "note": 51,
      "start": 0.768,
      "duration": 0.0558,
      "velocity": 91,
      "chip": "ym2612"
    },
    {
      "channel": 3,
      "note": 51,
      "start": 0.769,
      "duration": 0.0559,
      "velocity": 76,
      "chip": "ym2612"
    },
    {
      "channel": 2,
      "note": 51,
      "start": 0.8248,
      "duration": 0.0833,
      "velocity": 91,
      "chip": "ym2612"
    },
    {
      "channel": 3,
      "note": 51,
      "start": 0.8257,
      "duration": 0.0834,
      "velocity": 76,
      "chip": "ym2612"
    },
    {
      "channel": 4,
      "note": 80,
      "start": 0.9704,
      "duration": 0.2316,
      "velocity": 102,
      "chip": "ym2612"
    },
    {
      "channel": 2,
      "note": 51,
      "start": 0.9997,
      "duration": 0.0574,
      "velocity": 91,
      "chip": "ym2612"
    },
    {
      "channel": 3,
      "note": 51,
      "start": 1.0008,
      "duration": 0.0577,
      "velocity": 76,
      "chip": "ym2612"
    },
    {
      "channel": 2,
      "note": 51,
      "start": 1.0583,
      "duration": 0.0275,
      "velocity": 91,
      "chip": "ym2612"
    },
    {
      "channel": 3,
      "note": 51,
      "start": 1.0593,
      "duration": 0.0275,
      "velocity": 76,
      "chip": "ym2612"
    },
    {
      "channel": 2,
      "note": 51,
      "start": 1.2009,
      "duration": 0.0566,
      "velocity": 91,
      "chip": "ym2612"
    },
    {
      "channel": 3,
      "note": 51,
      "start": 1.2019,
      "duration": 0.0568,
      "velocity": 76,
      "chip": "ym2612"
    },
    {
      "channel": 4,
      "note": 75,
      "start": 1.2028,
      "duration": 0.1161,
      "velocity": 102,
      "chip": "ym2612"
    },
    {
      "channel": 2,
      "note": 51,
      "start": 1.2585,
      "duration": 0.0283,
      "velocity": 91,
      "chip": "ym2612"
    },
    {
      "channel": 3,
      "note": 51,
      "start": 1.2595,
      "duration": 0.0287,
      "velocity": 76,
      "chip": "ym2612"
    },
    {
      "channel": 2,
      "note": 63,
      "start": 1.2879,
      "duration": 0.0291,
      "velocity": 91,
      "chip": "ym2612"
    },
    {
      "channel": 3,
      "note": 63,
      "start": 1.2889,
      "duration": 0.0291,
      "velocity": 76,
      "chip": "ym2612"
    },
    {
      "channel": 0,
      "note": 65,
      "start": 1.3158,
      "duration": 0.2902,
      "velocity": 102,
      "chip": "ym2612"
    },
    {
      "channel": 1,
      "note": 61,
      "start": 1.3169,
      "duration": 0.5786,
      "velocity": 102,
      "chip": "ym2612"
    },
    {
      "channel": 4,
      "note": 77,
      "start": 1.3197,
      "duration": 0.4624,
      "velocity": 102,
      "chip": "ym2612"
    },
    {
      "channel": 2,
      "note": 51,
      "start": 1.3483,
      "duration": 0.0558,
      "velocity": 91,
      "chip": "ym2612"
    },
    {
      "channel": 3,
      "note": 51,
      "start": 1.3493,
      "duration": 0.0559,
      "velocity": 76,
      "chip": "ym2612"
    },
    {
      "channel": 2,
      "note": 51,
      "start": 1.4051,
      "duration": 0.0833,
      "velocity": 91,
      "chip": "ym2612"
    },
    {
      "channel": 3,
      "note": 51,
      "start": 1.4061,
      "duration": 0.0834,
      "velocity": 76,
      "chip": "ym2612"
    },
    {
      "channel": 2,
      "note": 51,
      "start": 1.5797,
      "duration": 0.0572,
      "velocity": 91,
      "chip": "ym2612"
    },
    {
      "channel": 3,
      "note": 51,
      "start": 1.5807,
      "duration": 0.0574,
      "velocity": 76,
      "chip": "ym2612"
    },
    {
      "channel": 0,
      "note": 64,
      "start": 1.6069,
      "duration": 0.2876,
      "velocity": 102,
      "chip": "ym2612"
    },
    {
      "channel": 2,
      "note": 51,
      "start": 1.6379,
      "duration": 0.0277,
      "velocity": 91,
      "chip": "ym2612"
    },
    {
      "channel": 3,
      "note": 51,
      "start": 1.6389,
      "duration": 0.0278,
      "velocity": 76,
      "chip": "ym2612"
    },
    {
      "channel": 2,
      "note": 51,
      "start": 1.781,
      "duration": 0.0559,
      "velocity": 91,
      "chip": "ym2612"
    },
    {
      "channel": 3,
      "note": 51,
      "start": 1.782,
      "duration": 0.0563,
      "velocity": 76,
      "chip": "ym2612"
    },
    {
      "channel": 4,
      "note": 77,
      "start": 1.7829,
      "duration": 0.1155,
      "velocity": 102,
      "chip": "ym2612"
    },
    {
      "channel": 2,
      "note": 51,
      "start": 1.8381,
      "duration": 0.0282,
      "velocity": 91,
      "chip": "ym2612"
    },
    {
      "channel": 3,
      "note": 51,
      "start": 1.8391,
      "duration": 0.0284,
      "velocity": 76,
      "chip": "ym2612"
    },
    {
      "channel": 2,
      "note": 63,
      "start": 1.8673,
      "duration": 0.0292,
      "velocity": 91,
      "chip": "ym2612"
    },
    {
      "channel": 3,
      "note": 63,
      "start": 1.8683,
      "duration": 0.0293,
      "velocity": 76,
      "chip": "ym2612"
    },
    {
      "channel": 0,
      "note": 67,
      "start": 1.8954,
      "duration": 0.5783,
      "velocity": 102,
      "chip": "ym2612"
    },
    {
      "channel": 1,
      "note": 58,
      "start": 1.8963,
      "duration": 0.5783,
      "velocity": 102,
      "chip": "ym2612"
    },
    {
      "channel": 4,
      "note": 79,
      "start": 1.8993,
      "duration": 0.2302,
      "velocity": 102,
      "chip": "ym2612"
    },
    {
      "channel": 2,
      "note": 51,
      "start": 1.9279,
      "duration": 0.0557,
      "velocity": 91,
      "chip": "ym2612"
    },
    {
      "channel": 3,
      "note": 51,
      "start": 1.9289,
      "duration": 0.0558,
      "velocity": 76,
      "chip": "ym2612"
    },
    {
      "channel": 2,
      "note": 51,
      "start": 1.9846,
      "duration": 0.0832,
      "velocity": 91,
      "chip": "ym2612"
    },
    {
      "channel": 3,
      "note": 51,
      "start": 1.9856,
      "duration": 0.0832,
      "velocity": 76,
      "chip": "ym2612"
    },
    {
      "channel": 4,
      "note": 80,
      "start": 2.1302,
      "duration": 0.2316,
      "velocity": 102,
      "chip": "ym2612"
    },
    {
      "channel": 2,
      "note": 51,
      "start": 2.1595,
      "duration": 0.0574,
      "velocity": 91,
      "chip": "ym2612"
    },
    {
      "channel": 3,
      "note": 51,
      "start": 2.1606,
      "duration": 0.0577,
      "velocity": 76,
      "chip": "ym2612"
    },
    {
      "channel": 2,
      "note": 51,
      "start": 2.2181,
      "duration": 0.0275,
      "velocity": 91,
      "chip": "ym2612"
    },
    {
      "channel": 3,
      "note": 51,
      "start": 2.2191,
      "duration": 0.0275,
      "velocity": 76,
      "chip": "ym2612"
    },
    {
      "channel": 2,
      "note": 51,
      "start": 2.3607,
      "duration": 0.0563,
      "velocity": 91,
      "chip": "ym2612"
    },
    {
      "channel": 3,
      "note": 51,
      "start": 2.3618,
      "duration": 0.0565,
      "velocity": 76,
      "chip": "ym2612"
    },
    {
      "channel": 4,
      "note": 82,
      "start": 2.3627,
      "duration": 0.1147,
      "velocity": 102,
      "chip": "ym2612"
    },
    {
      "channel": 2,
      "note": 51,
      "start": 2.4181,
      "duration": 0.0279,
      "velocity": 91,
      "chip": "ym2612"
    },
    {
      "channel": 3,
      "note": 51,
      "start": 2.4191,
      "duration": 0.0282,
      "velocity": 76,
      "chip": "ym2612"
    },
    {
      "channel": 2,
      "note": 63,
      "start": 2.4471,
      "duration": 0.0285,
      "velocity": 91,
      "chip": "ym2612"
    },
    {
      "channel": 3,
      "note": 63,
      "start": 2.448,
      "duration": 0.0286,
      "velocity": 76,
      "chip": "ym2612"
    },
    {
      "channel": 4,
      "note": 73,
      "start": 2.4808,
      "duration": 0.025,
      "velocity": 127,
      "chip": "ym2612"
    },
    {
      "channel": 4,
      "note": 73,
      "start": 2.5118,
      "duration": 0.0632,
      "velocity": 127,
      "chip": "ym2612"
    },
    {
      "channel": 4,
      "note": 73,
      "start": 2.5924,
      "duration": 0.0826,
      "velocity": 127,
      "chip": "ym2612"
    },
    {
      "channel": 4,
      "note": 73,
      "start": 2.6924,
      "duration": 0.0826,
      "velocity": 127,
      "chip": "ym2612"
    },
    {
      "channel": 4,
      "note": 73,
      "start": 2.7957,
      "duration": 0.0251,
      "velocity": 127,
      "chip": "ym2612"
    },
    {
      "channel": 4,
      "note": 73,
      "start": 2.8268,
      "duration": 0.025,
      "velocity": 127,
      "chip": "ym2612"
    },
    {
      "channel": 4,
      "note": 73,
      "start": 2.8578,
      "duration": 0.0249,
      "velocity": 127,
      "chip": "ym2612"
    },
    {
      "channel": 4,
      "note": 73,
      "start": 2.8887,
      "duration": 0.0653,
      "velocity": 127,
      "chip": "ym2612"
    },
    {
      "channel": 4,
      "note": 73,
      "start": 2.9744,
      "duration": 0.0251,
      "velocity": 127,
      "chip": "ym2612"
    },
    {
      "channel": 4,
      "note": 73,
      "start": 3.0054,
      "duration": 0.0639,
      "velocity": 127,
      "chip": "ym2612"
    },
    {
      "channel": 4,
      "note": 73,
      "start": 3.09,
      "duration": 0.0252,
      "velocity": 127,
      "chip": "ym2612"
    },
    {
      "channel": 4,
      "note": 73,
      "start": 3.1212,
      "duration": 0.064,
      "velocity": 127,
      "chip": "ym2612"
    },
    {
      "channel": 4,
      "note": 73,
      "start": 3.2059,
      "duration": 0.0252,
      "velocity": 127,
      "chip": "ym2612"
    },
    {
      "channel": 4,
      "note": 73,
      "start": 3.2371,
      "duration": 0.0248,
      "velocity": 127,
      "chip": "ym2612"
    },
    {
      "channel": 4,
      "note": 73,
      "start": 3.2679,
      "duration": 0.0251,
      "velocity": 127,
      "chip": "ym2612"
    },
    {
      "channel": 4,
      "note": 73,
      "start": 3.299,
      "duration": 0.0653,
      "velocity": 127,
      "chip": "ym2612"
    },
    {
      "channel": 4,
      "note": 73,
      "start": 3.385,
      "duration": 0.0251,
      "velocity": 127,
      "chip": "ym2612"
    },
    {
      "channel": 4,
      "note": 73,
      "start": 3.416,
      "duration": 0.0639,
      "velocity": 127,
      "chip": "ym2612"
    },
    {
      "channel": 4,
      "note": 73,
      "start": 3.4973,
      "duration": 0.0826,
      "velocity": 127,
      "chip": "ym2612"
    },
    {
      "channel": 4,
      "note": 73,
      "start": 3.5973,
      "duration": 0.0826,
      "velocity": 127,
      "chip": "ym2612"
    },
    {
      "channel": 4,
      "note": 73,
      "start": 3.7006,
      "duration": 0.0252,
      "velocity": 127,
      "chip": "ym2612"
    },
    {
      "channel": 4,
      "note": 73,
      "start": 3.7318,
      "duration": 0.0248,
      "velocity": 127,
      "chip": "ym2612"
    },
    {
      "channel": 4,
      "note": 73,
      "start": 3.7626,
      "duration": 0.0251,
      "velocity": 127,
      "chip": "ym2612"
    },
    {
      "channel": 4,
      "note": 73,
      "start": 3.7937,
      "duration": 0.0653,
      "velocity": 127,
      "chip": "ym2612"
    },
    {
      "channel": 4,
      "note": 73,
      "start": 3.8795,
      "duration": 0.0251,
      "velocity": 127,
      "chip": "ym2612"
    },
    {
      "channel": 4,
      "note": 73,
      "start": 3.9105,
      "duration": 0.0639,
      "velocity": 127,
      "chip": "ym2612"
    },
    {
      "channel": 4,
      "note": 73,
      "start": 3.995,
      "duration": 0.0252,
      "velocity": 127,
      "chip": "ym2612"
    },
    {
      "channel": 4,
      "note": 73,
      "start": 4.0263,
      "duration": 0.064,
      "velocity": 127,
      "chip": "ym2612"
    },
    {
      "channel": 4,
      "note": 73,
      "start": 4.1109,
      "duration": 0.0252,
      "velocity": 127,
      "chip": "ym2612"
    },
    {
      "channel": 4,
      "note": 73,
      "start": 4.1421,
      "duration": 0.0248,
      "velocity": 127,
      "chip": "ym2612"
    },
    {
      "channel": 4,
      "note": 73,
      "start": 4.173,
      "duration": 0.0251,
      "velocity": 127,
      "chip": "ym2612"
    },
    {
      "channel": 4,
      "note": 73,
      "start": 4.2041,
      "duration": 0.0653,
      "velocity": 127,
      "chip": "ym2612"
    },
    {
      "channel": 4,
      "note": 73,
      "start": 4.29,
      "duration": 0.0251,
      "velocity": 127,
      "chip": "ym2612"
    },
    {
      "channel": 4,
      "note": 73,
      "start": 4.321,
      "duration": 0.0639,
      "velocity": 127,
      "chip": "ym2612"
    },
    {
      "channel": 4,
      "note": 73,
      "start": 4.4024,
      "duration": 0.0826,
      "velocity": 127,
      "chip": "ym2612"
    },
    {
      "channel": 4,
      "note": 73,
      "start": 4.5024,
      "duration": 0.0826,
      "velocity": 127,
      "chip": "ym2612"
    },
    {
      "channel": 4,
      "note": 73,
      "start": 4.6056,
      "duration": 0.0252,
      "velocity": 127,
      "chip": "ym2612"
    },
    {
      "channel": 4,
      "note": 73,
      "start": 4.6368,
      "duration": 0.0248,
      "velocity": 127,
      "chip": "ym2612"
    },
    {
      "channel": 4,
      "note": 73,
      "start": 4.6676,
      "duration": 0.0251,
      "velocity": 127,
      "chip": "ym2612"
    },
    {
      "channel": 4,
      "note": 73,
      "start": 4.6987,
      "duration": 0.0653,
      "velocity": 127,
      "chip": "ym2612"
    },
    {
      "channel": 4,
      "note": 73,
      "start": 4.7845,
      "duration": 0.0251,
      "velocity": 127,
      "chip": "ym2612"
    },
    {
      "channel": 4,
      "note": 73,
      "start": 4.8155,
      "duration": 0.0639,
      "velocity": 127,
      "chip": "ym2612"
    },
    {
      "channel": 4,
      "note": 73,
      "start": 4.9001,
      "duration": 0.0252,
      "velocity": 127,
      "chip": "ym2612"
    },
    {
      "channel": 4,
      "note": 73,
      "start": 4.9313,
      "duration": 0.064,
      "velocity": 127,
      "chip": "ym2612"
    },
    {
      "channel": 4,
      "note": 73,
      "start": 5.0161,
      "duration": 0.0255,
      "velocity": 127,
      "chip": "ym2612"
    },
    {
      "channel": 4,
      "note": 73,
      "start": 5.0477,
      "duration": 0.0251,
      "velocity": 127,
      "chip": "ym2612"
    },
    {
      "channel": 4,
      "note": 73,
      "start": 5.079,
      "duration": 0.0249,
      "velocity": 127,
      "chip": "ym2612"
    },
    {
      "channel": 4,
      "note": 73,
      "start": 5.1099,
      "duration": 0.0653,
      "velocity": 127,
      "chip": "ym2612"
    },
    {
      "channel": 0,
      "note": 68,
      "start": 5.7,
      "duration": 7.4927,
      "velocity": 102,
      "chip": "ym2612"
    },
    {
      "channel": 1,
      "note": 63,
      "start": 5.701,
      "duration": 7.4916,
      "velocity": 102,
      "chip": "ym2612"
    },
    {
      "channel": 2,
      "note": 51,
      "start": 5.7022,
      "duration": 0.03,
      "velocity": 91,
      "chip": "ym2612"
    },
    {
      "channel": 3,
      "note": 51,
      "start": 5.7033,
      "duration": 0.03,
      "velocity": 76,
      "chip": "ym2612"
    },
    {
      "channel": 4,
      "note": 80,
      "start": 5.7067,
      "duration": 7.4859,
      "velocity": 102,
      "chip": "ym2612"
    },
    {
      "channel": 2,
      "note": 51,
      "start": 5.7332,
      "duration": 0.18,
      "velocity": 91,
      "chip": "ym2612"
    },
    {
      "channel": 3,
      "note": 51,
      "start": 5.7342,
      "duration": 0.1794,
      "velocity": 76,
      "chip": "ym2612"
    },
    {
      "channel": 2,
      "note": 51,
      "start": 5.9136,
      "duration": 7.2791,
      "velocity": 91,
      "chip": "ym2612"
    },
    {
      "channel": 3,
      "note": 51,
      "start": 5.9141,
      "duration": 7.2785,
      "velocity": 76,
      "chip": "ym2612"
    }
  ]
}