{
  "track_name": "06 - Vexin' Volcano",
  "duration_sec": 38.004,
  "sample_rate": 44100,
  "note_count": 673,
  "unique_pitches": 42,
  "pitch_range": 89,
  "avg_note_duration": 0.1646,
  "reconstruction_stats": {
    "notes_reconstructed": 673,
    "keyon_events": 673,
    "keyoff_events": 673,
    "orphan_keyons": 0,
    "unique_pitches": 42,
    "pitch_range": 89,
    "avg_duration_sec": 0.1646
  },
  "metadata": {
    "source": "M\\Mega Bomberman\\06 - Vexin' Volcano.vgz"
  },
  "notes": [
    {
      "channel": 0,
      "note": 46,
      "start": 0.0,
      "duration": 0.0,
      "velocity": 101,
      "chip": "ym2612"
    },
    {
      "channel": 0,
      "note": 34,
      "start": 0.0,
      "duration": 0.0,
      "velocity": 101,
      "chip": "ym2612"
    },
    {
      "channel": 0,
      "note": 46,
      "start": 0.0,
      "duration": 0.0,
      "velocity": 101,
      "chip": "ym2612"
    },
    {
      "channel": 0,
      "note": 46,
      "start": 0.0,
      "duration": 0.0,
      "velocity": 101,
      "chip": "ym2612"
    },
    {
      "channel": 0,
      "note": 34,
      "start": 0.0,
      "duration": 0.0,
      "velocity": 101,
      "chip": "ym2612"
    },
    {
      "channel": 0,
      "note": 46,
      "start": 0.0,
      "duration": 0.0,
      "velocity": 101,
      "chip": "ym2612"
    },
    {
      "channel": 0,
      "note": 46,
      "start": 0.0,
      "duration": 0.0,
      "velocity": 101,
      "chip": "ym2612"
    },
    {
      "channel": 0,
      "note": 34,
      "start": 0.0,
      "duration": 0.0,
      "velocity": 101,
      "chip": "ym2612"
    },
    {
      "channel": 0,
      "note": 46,
      "start": 0.0,
      "duration": 0.0,
      "velocity": 101,
      "chip": "ym2612"
    },
    {
      "channel": 0,
      "note": 46,
      "start": 0.0,
      "duration": 0.0,
      "velocity": 101,
      "chip": "ym2612"
    },
    {
      "channel": 0,
      "note": 34,
      "start": 0.0,
      "duration": 0.0,
      "velocity": 101,
      "chip": "ym2612"
    },
    {
      "channel": 0,
      "note": 46,
      "start": 0.0,
      "duration": 0.0,
      "velocity": 101,
      "chip": "ym2612"
    },
    {
      "channel": 0,
      "note": 46,
      "start": 0.0,
      "duration": 0.1838,
      "velocity": 96,
      "chip": "ym2612"
    },
    {
      "channel": 1,
      "note": 93,
      "start": 0.0,
      "duration": 0.0,
      "velocity": 91,
      "chip": "ym2612"
    },
    {
      "channel": 1,
      "note": 93,
      "start": 0.0,
      "duration": 0.0,
      "velocity": 91,
      "chip": "ym2612"
    },
    {
      "channel": 1,
      "note": 93,
      "start": 0.0,
      "duration": 0.0,
      "velocity": 91,
      "chip": "ym2612"
    },
    {
      "channel": 1,
      "note": 93,
      "start": 0.0,
      "duration": 0.0,
      "velocity": 91,
      "chip": "ym2612"
    },
    {
      "channel": 1,
      "note": 93,
      "start": 0.0,
      "duration": 0.0,
      "velocity": 91,
      "chip": "ym2612"
    },
    {
      "channel": 1,
      "note": 93,
      "start": 0.0,
      "duration": 0.0,
      "velocity": 91,
      "chip": "ym2612"
    },
    {
      "channel": 1,
      "note": 93,
      "start": 0.0,
      "duration": 0.0,
      "velocity": 91,
      "chip": "ym2612"
    },
    {
      "channel": 1,
      "note": 93,
      "start": 0.0,
      "duration": 0.0,
      "velocity": 91,
      "chip": "ym2612"
    },
    {
      "channel": 2,
      "note": 74,
      "start": 0.0,
      "duration": 0.0,
      "velocity": 127,
      "chip": "ym2612"
    },
    {
      "channel": 2,
      "note": 74,
      "start": 0.0,
      "duration": 0.0,
      "velocity": 127,
      "chip": "ym2612"
    },
    {
      "channel": 2,
      "note": 74,
      "start": 0.0,
      "duration": 0.0,
      "velocity": 127,
      "chip": "ym2612"
    },
    {
      "channel": 2,
      "note": 74,
      "start": 0.0,
      "duration": 0.0,
      "velocity": 127,
      "chip": "ym2612"
    },
    {
      "channel": 2,
      "note": 74,
      "start": 0.0,
      "duration": 0.0,
      "velocity": 127,
      "chip": "ym2612"
    },
    {
      "channel": 2,
      "note": 74,
      "start": 0.0,
      "duration": 0.0,
      "velocity": 127,
      "chip": "ym2612"
    },
    {
      "channel": 2,
      "note": 74,
      "start": 0.0,
      "duration": 0.0,
      "velocity": 127,
      "chip": "ym2612"
    },
    {
      "channel": 2,
      "note": 74,
      "start": 0.0,
      "duration": 0.0,
      "velocity": 127,
      "chip": "ym2612"
    },
    {
      "channel": 2,
      "note": 74,
      "start": 0.0,
      "duration": 0.0,
      "velocity": 127,
      "chip": "ym2612"
    },
    {
      "channel": 2,
      "note": 74,
      "start": 0.0,
      "duration": 0.0,
      "velocity": 127,
      "chip": "ym2612"
    },
    {
      "channel": 2,
      "note": 74,
      "start": 0.0,
      "duration": 0.0,
      "velocity": 127,
      "chip": "ym2612"
    },
    {
      "channel": 2,
      "note": 74,
      "start": 0.0,
      "duration": 0.0,
      "velocity": 127,
      "chip": "ym2612"
    },
    {
      "channel": 2,
      "note": 74,
      "start": 0.0,
      "duration": 0.0,
      "velocity": 127,
      "chip": "ym2612"
    },
    {
      "channel": 2,
      "note": 74,
      "start": 0.0,
      "duration": 0.0,
      "velocity": 127,
      "chip": "ym2612"
    },
    {
      "channel": 2,
      "note": 74,
      "start": 0.0,
      "duration": 0.0,
      "velocity": 127,
      "chip": "ym2612"
    },
    {
      "channel": 3,
      "note": 86,
      "start": 0.0,
      "duration": 0.0,
      "velocity": 91,
      "chip": "ym2612"
    },
    {
      "channel": 3,
      "note": 86,
      "start": 0.0,
      "duration": 0.0,
      "velocity": 91,
      "chip": "ym2612"
    },
    {
      "channel": 3,
      "note": 86,
      "start": 0.0,
      "duration": 0.0,
      "velocity": 91,
      "chip": "ym2612"
    },
    {
      "channel": 3,
      "note": 86,
      "start": 0.0,
      "duration": 0.0,
      "velocity": 91,
      "chip": "ym2612"
    },
    {
      "channel": 3,
      "note": 86,
      "start": 0.0,
      "duration": 0.0,
      "velocity": 91,
      "chip": "ym2612"
    },
    {
      "channel": 3,
      "note": 86,
      "start": 0.0,
      "duration": 0.0,
      "velocity": 91,
      "chip": "ym2612"
    },
    {
      "channel": 3,
      "note": 86,
      "start": 0.0,
      "duration": 0.0,
      "velocity": 91,
      "chip": "ym2612"
    },
    {
      "channel": 3,
      "note": 86,
      "start": 0.0,
      "duration": 0.0,
      "velocity": 91,
      "chip": "ym2612"
    },
    {
      "channel": 4,
      "note": 89,
      "start": 0.0,
      "duration": 0.0,
      "velocity": 91,
      "chip": "ym2612"
    },
    {
      "channel": 4,
      "note": 89,
      "start": 0.0,
      "duration": 0.0,
      "velocity": 91,
      "chip": "ym2612"
    },
    {
      "channel": 4,
      "note": 89,
      "start": 0.0,
      "duration": 0.0,
      "velocity": 91,
      "chip": "ym2612"
    },
    {
      "channel": 4,
      "note": 89,
      "start": 0.0,
      "duration": 0.0,
      "velocity": 91,
      "chip": "ym2612"
    },
    {
      "channel": 4,
      "note": 89,
      "start": 0.0,
      "duration": 0.0,
      "velocity": 91,
      "chip": "ym2612"
    },
    {
      "channel": 4,
      "note": 89,
      "start": 0.0,
      "duration": 0.0,
      "velocity": 91,
      "chip": "ym2612"
    },
    {
      "channel": 4,
      "note": 89,
      "start": 0.0,
      "duration": 0.0,
      "velocity": 91,
      "chip": "ym2612"
    },
    {
      "channel": 4,
      "note": 89,
      "start": 0.0,
      "duration": 0.0,
      "velocity": 91,
      "chip": "ym2612"
    },
    {
      "channel": 5,
      "note": 25,
      "start": 0.0,
      "duration": 0.0,
      "velocity": 127,
      "chip": "ym2612"
    },
    {
      "channel": 5,
      "note": 25,
      "start": 0.0,
      "duration": 0.0,
      "velocity": 127,
      "chip": "ym2612"
    },
    {
      "channel": 5,
      "note": 25,
      "start": 0.0,
      "duration": 0.0,
      "velocity": 127,
      "chip": "ym2612"
    },
    {
      "channel": 5,
      "note": 42,
      "start": 0.0,
      "duration": 0.0,
      "velocity": 127,
      "chip": "ym2612"
    },
    {
      "channel": 5,
      "note": 25,
      "start": 0.0,
      "duration": 0.0,
      "velocity": 127,
      "chip": "ym2612"
    },
    {
      "channel": 5,
      "note": 25,
      "start": 0.0,
      "duration": 0.0,
      "velocity": 127,
      "chip": "ym2612"
    },
    {
      "channel": 5,
      "note": 25,
      "start": 0.0,
      "duration": 0.0,
      "velocity": 127,
      "chip": "ym2612"
    },
    {
      "channel": 5,
      "note": 25,
      "start": 0.0,
      "duration": 0.0,
      "velocity": 127,
      "chip": "ym2612"
    },
    {
      "channel": 5,
      "note": 42,
      "start": 0.0,
      "duration": 0.0,
      "velocity": 127,
      "chip": "ym2612"
    },
    {
      "channel": 0,
      "note": 57,
      "start": 0.2018,
      "duration": 0.1881,
      "velocity": 96,
      "chip": "ym2612"
    },
    {
      "channel": 2,
      "note": 74,
      "start": 0.2044,
      "duration": 0.4031,
      "velocity": 123,
      "chip": "ym2612"
    },
    {
      "channel": 0,
      "note": 60,
      "start": 0.4076,
      "duration": 0.1879,
      "velocity": 96,
      "chip": "ym2612"
    },
    {
      "channel": 0,
      "note": 62,
      "start": 0.6135,
      "duration": 0.1879,
      "velocity": 96,
      "chip": "ym2612"
    },
    {
      "channel": 0,
      "note": 48,
      "start": 0.8193,
      "duration": 0.1879,
      "velocity": 96,
      "chip": "ym2612"
    },
    {
      "channel": 0,
      "note": 49,
      "start": 1.0254,
      "duration": 0.1478,
      "velocity": 96,
      "chip": "ym2612"
    },
    {
      "channel": 5,
      "note": 42,
      "start": 1.0285,
      "duration": 0.1455,
      "velocity": 127,
      "chip": "ym2612"
    },
    {
      "channel": 0,
      "note": 50,
      "start": 1.231,
      "duration": 0.1478,
      "velocity": 96,
      "chip": "ym2612"
    },
    {
      "channel": 5,
      "note": 24,
      "start": 1.2341,
      "duration": 0.0722,
      "velocity": 95,
      "chip": "ym2612"
    },
    {
      "channel": 5,
      "note": 93,
      "start": 1.3351,
      "duration": 0.0735,
      "velocity": 95,
      "chip": "ym2612"
    },
    {
      "channel": 0,
      "note": 50,
      "start": 1.4369,
      "duration": 0.1478,
      "velocity": 96,
      "chip": "ym2612"
    },
    {
      "channel": 2,
      "note": 81,
      "start": 1.4387,
      "duration": 0.1981,
      "velocity": 123,
      "chip": "ym2612"
    },
    {
      "channel": 5,
      "note": 93,
      "start": 1.442,
      "duration": 0.1436,
      "velocity": 127,
      "chip": "ym2612"
    },
    {
      "channel": 0,
      "note": 55,
      "start": 1.6436,
      "duration": 0.1471,
      "velocity": 96,
      "chip": "ym2612"
    },
    {
      "channel": 3,
      "note": 86,
      "start": 1.6461,
      "duration": 0.1447,
      "velocity": 113,
      "chip": "ym2612"
    },
    {
      "channel": 2,
      "note": 101,
      "start": 1.6481,
      "duration": 0.609,
      "velocity": 123,
      "chip": "ym2612"
    },
    {
      "channel": 5,
      "note": 24,
      "start": 1.6506,
      "duration": 0.0673,
      "velocity": 95,
      "chip": "ym2612"
    },
    {
      "channel": 5,
      "note": 93,
      "start": 1.7475,
      "duration": 0.0735,
      "velocity": 95,
      "chip": "ym2612"
    },
    {
      "channel": 0,
      "note": 57,
      "start": 1.8488,
      "duration": 0.1476,
      "velocity": 96,
      "chip": "ym2612"
    },
    {
      "channel": 1,
      "note": 93,
      "start": 1.8522,
      "duration": 0.1452,
      "velocity": 113,
      "chip": "ym2612"
    },
    {
      "channel": 5,
      "note": 93,
      "start": 1.8559,
      "duration": 0.1422,
      "velocity": 127,
      "chip": "ym2612"
    },
    {
      "channel": 4,
      "note": 89,
      "start": 2.058,
      "duration": 0.1462,
      "velocity": 113,
      "chip": "ym2612"
    },
    {
      "channel": 5,
      "note": 24,
      "start": 2.0615,
      "duration": 0.0697,
      "velocity": 95,
      "chip": "ym2612"
    },
    {
      "channel": 5,
      "note": 93,
      "start": 2.1612,
      "duration": 0.0729,
      "velocity": 95,
      "chip": "ym2612"
    },
    {
      "channel": 3,
      "note": 62,
      "start": 2.2627,
      "duration": 0.1459,
      "velocity": 113,
      "chip": "ym2612"
    },
    {
      "channel": 5,
      "note": 93,
      "start": 2.2673,
      "duration": 0.1434,
      "velocity": 127,
      "chip": "ym2612"
    },
    {
      "channel": 0,
      "note": 60,
      "start": 2.4682,
      "duration": 0.1459,
      "velocity": 96,
      "chip": "ym2612"
    },
    {
      "channel": 1,
      "note": 65,
      "start": 2.4706,
      "duration": 0.1444,
      "velocity": 113,
      "chip": "ym2612"
    },
    {
      "channel": 5,
      "note": 24,
      "start": 2.4752,
      "duration": 0.0679,
      "velocity": 95,
      "chip": "ym2612"
    },
    {
      "channel": 5,
      "note": 93,
      "start": 2.5729,
      "duration": 0.0728,
      "velocity": 95,
      "chip": "ym2612"
    },
    {
      "channel": 0,
      "note": 59,
      "start": 2.6752,
      "duration": 0.1503,
      "velocity": 96,
      "chip": "ym2612"
    },
    {
      "channel": 4,
      "note": 60,
      "start": 2.6784,
      "duration": 0.1488,
      "velocity": 113,
      "chip": "ym2612"
    },
    {
      "channel": 5,
      "note": 93,
      "start": 2.6816,
      "duration": 0.1462,
      "velocity": 127,
      "chip": "ym2612"
    },
    {
      "channel": 3,
      "note": 62,
      "start": 2.8853,
      "duration": 0.1466,
      "velocity": 113,
      "chip": "ym2612"
    },
    {
      "channel": 5,
      "note": 24,
      "start": 2.8906,
      "duration": 0.0696,
      "velocity": 95,
      "chip": "ym2612"
    },
    {
      "channel": 5,
      "note": 93,
      "start": 2.9904,
      "duration": 0.0728,
      "velocity": 95,
      "chip": "ym2612"
    },
    {
      "channel": 2,
      "note": 101,
      "start": 3.0942,
      "duration": 0.1979,
      "velocity": 123,
      "chip": "ym2612"
    },
    {
      "channel": 5,
      "note": 93,
      "start": 3.0968,
      "duration": 0.1443,
      "velocity": 127,
      "chip": "ym2612"
    },
    {
      "channel": 0,
      "note": 60,
      "start": 3.2975,
      "duration": 0.1457,
      "velocity": 96,
      "chip": "ym2612"
    },
    {
      "channel": 2,
      "note": 75,
      "start": 3.3014,
      "duration": 0.6078,
      "velocity": 123,
      "chip": "ym2612"
    },
    {
      "channel": 5,
      "note": 24,
      "start": 3.3041,
      "duration": 0.0681,
      "velocity": 95,
      "chip": "ym2612"
    },
    {
      "channel": 5,
      "note": 93,
      "start": 3.4015,
      "duration": 0.0741,
      "velocity": 95,
      "chip": "ym2612"
    },
    {
      "channel": 0,
      "note": 59,
      "start": 3.5024,
      "duration": 0.1466,
      "velocity": 96,
      "chip": "ym2612"
    },
    {
      "channel": 5,
      "note": 93,
      "start": 3.5084,
      "duration": 0.1434,
      "velocity": 127,
      "chip": "ym2612"
    },
    {
      "channel": 0,
      "note": 60,
      "start": 3.7086,
      "duration": 0.1463,
      "velocity": 96,
      "chip": "ym2612"
    },
    {
      "channel": 5,
      "note": 24,
      "start": 3.714,
      "duration": 0.0699,
      "velocity": 95,
      "chip": "ym2612"
    },
    {
      "channel": 5,
      "note": 93,
      "start": 3.8138,
      "duration": 0.0728,
      "velocity": 95,
      "chip": "ym2612"
    },
    {
      "channel": 0,
      "note": 59,
      "start": 3.9141,
      "duration": 0.1466,
      "velocity": 96,
      "chip": "ym2612"
    },
    {
      "channel": 5,
      "note": 93,
      "start": 3.9195,
      "duration": 0.1441,
      "velocity": 127,
      "chip": "ym2612"
    },
    {
      "channel": 0,
      "note": 55,
      "start": 4.1196,
      "duration": 0.147,
      "velocity": 96,
      "chip": "ym2612"
    },
    {
      "channel": 5,
      "note": 24,
      "start": 4.1256,
      "duration": 0.0699,
      "velocity": 95,
      "chip": "ym2612"
    },
    {
      "channel": 5,
      "note": 93,
      "start": 4.2255,
      "duration": 0.0728,
      "velocity": 95,
      "chip": "ym2612"
    },
    {
      "channel": 0,
      "note": 48,
      "start": 4.3273,
      "duration": 0.1457,
      "velocity": 96,
      "chip": "ym2612"
    },
    {
      "channel": 5,
      "note": 93,
      "start": 4.3326,
      "duration": 0.1432,
      "velocity": 127,
      "chip": "ym2612"
    },
    {
      "channel": 0,
      "note": 50,
      "start": 4.5334,
      "duration": 0.1505,
      "velocity": 96,
      "chip": "ym2612"
    },
    {
      "channel": 1,
      "note": 58,
      "start": 4.5367,
      "duration": 0.0456,
      "velocity": 99,
      "chip": "ym2612"
    },
    {
      "channel": 4,
      "note": 60,
      "start": 4.5401,
      "duration": 0.0424,
      "velocity": 99,
      "chip": "ym2612"
    },
    {
      "channel": 5,
      "note": 24,
      "start": 4.5432,
      "duration": 0.0691,
      "velocity": 95,
      "chip": "ym2612"
    },
    {
      "channel": 5,
      "note": 93,
      "start": 4.6424,
      "duration": 0.0729,
      "velocity": 95,
      "chip": "ym2612"
    },
    {
      "channel": 0,
      "note": 50,
      "start": 4.7463,
      "duration": 0.1493,
      "velocity": 96,
      "chip": "ym2612"
    },
    {
      "channel": 3,
      "note": 53,
      "start": 4.749,
      "duration": 0.0441,
      "velocity": 99,
      "chip": "ym2612"
    },
    {
      "channel": 1,
      "note": 84,
      "start": 4.7507,
      "duration": 0.0426,
      "velocity": 99,
      "chip": "ym2612"
    },
    {
      "channel": 2,
      "note": 63,
      "start": 4.7529,
      "duration": 0.1961,
      "velocity": 123,
      "chip": "ym2612"
    },
    {
      "channel": 5,
      "note": 93,
      "start": 4.7555,
      "duration": 0.1422,
      "velocity": 127,
      "chip": "ym2612"
    },
    {
      "channel": 0,
      "note": 55,
      "start": 4.9572,
      "duration": 0.15,
      "velocity": 96,
      "chip": "ym2612"
    },
    {
      "channel": 3,
      "note": 84,
      "start": 4.9588,
      "duration": 0.0459,
      "velocity": 99,
      "chip": "ym2612"
    },
    {
      "channel": 4,
      "note": 79,
      "start": 4.9611,
      "duration": 0.0443,
      "velocity": 99,
      "chip": "ym2612"
    },
    {
      "channel": 2,
      "note": 101,
      "start": 4.9627,
      "duration": 0.6153,
      "velocity": 123,
      "chip": "ym2612"
    },
    {
      "channel": 5,
      "note": 24,
      "start": 4.9652,
      "duration": 0.0701,
      "velocity": 95,
      "chip": "ym2612"
    },
    {
      "channel": 5,
      "note": 93,
      "start": 5.0647,
      "duration": 0.0735,
      "velocity": 95,
      "chip": "ym2612"
    },
    {
      "channel": 0,
      "note": 57,
      "start": 5.1677,
      "duration": 0.151,
      "velocity": 96,
      "chip": "ym2612"
    },
    {
      "channel": 3,
      "note": 79,
      "start": 5.1693,
      "duration": 0.1899,
      "velocity": 99,
      "chip": "ym2612"
    },
    {
      "channel": 1,
      "note": 79,
      "start": 5.1709,
      "duration": 0.1885,
      "velocity": 99,
      "chip": "ym2612"
    },
    {
      "channel": 5,
      "note": 93,
      "start": 5.1751,
      "duration": 0.1458,
      "velocity": 127,
      "chip": "ym2612"
    },
    {
      "channel": 3,
      "note": 79,
      "start": 5.3794,
      "duration": 0.0427,
      "velocity": 99,
      "chip": "ym2612"
    },
    {
      "channel": 4,
      "note": 84,
      "start": 5.3816,
      "duration": 0.0418,
      "velocity": 99,
      "chip": "ym2612"
    },
    {
      "channel": 5,
      "note": 24,
      "start": 5.3848,
      "duration": 0.0679,
      "velocity": 95,
      "chip": "ym2612"
    },
    {
      "channel": 5,
      "note": 93,
      "start": 5.4821,
      "duration": 0.0742,
      "velocity": 95,
      "chip": "ym2612"
    },
    {
      "channel": 3,
      "note": 81,
      "start": 5.5855,
      "duration": 0.0482,
      "velocity": 99,
      "chip": "ym2612"
    },
    {
      "channel": 1,
      "note": 84,
      "start": 5.587,
      "duration": 0.0468,
      "velocity": 99,
      "chip": "ym2612"
    },
    {
      "channel": 2,
      "note": 101,
      "start": 5.5898,
      "duration": 0.8237,
      "velocity": 123,
      "chip": "ym2612"
    },
    {
      "channel": 5,
      "note": 93,
      "start": 5.5924,
      "duration": 0.1462,
      "velocity": 127,
      "chip": "ym2612"
    },
    {
      "channel": 0,
      "note": 60,
      "start": 5.7964,
      "duration": 0.1456,
      "velocity": 96,
      "chip": "ym2612"
    },
    {
      "channel": 4,
      "note": 86,
      "start": 5.7999,
      "duration": 0.0412,
      "velocity": 113,
      "chip": "ym2612"
    },
    {
      "channel": 5,
      "note": 24,
      "start": 5.8033,
      "duration": 0.0669,
      "velocity": 95,
      "chip": "ym2612"
    },
    {
      "channel": 5,
      "note": 93,
      "start": 5.8997,
      "duration": 0.0742,
      "velocity": 95,
      "chip": "ym2612"
    },
    {
      "channel": 0,
      "note": 59,
      "start": 6.002,
      "duration": 0.1515,
      "velocity": 96,
      "chip": "ym2612"
    },
    {
      "channel": 3,
      "note": 81,
      "start": 6.0046,
      "duration": 0.0466,
      "velocity": 113,
      "chip": "ym2612"
    },
    {
      "channel": 5,
      "note": 93,
      "start": 6.0098,
      "duration": 0.147,
      "velocity": 127,
      "chip": "ym2612"
    },
    {
      "channel": 1,
      "note": 86,
      "start": 6.2153,
      "duration": 0.0425,
      "velocity": 113,
      "chip": "ym2612"
    },
    {
      "channel": 5,
      "note": 24,
      "start": 6.2194,
      "duration": 0.0688,
      "velocity": 95,
      "chip": "ym2612"
    },
    {
      "channel": 5,
      "note": 93,
      "start": 6.3177,
      "duration": 0.0741,
      "velocity": 95,
      "chip": "ym2612"
    },
    {
      "channel": 4,
      "note": 53,
      "start": 6.4213,
      "duration": 0.043,
      "velocity": 113,
      "chip": "ym2612"
    },
    {
      "channel": 2,
      "note": 63,
      "start": 6.4237,
      "duration": 0.1957,
      "velocity": 123,
      "chip": "ym2612"
    },
    {
      "channel": 5,
      "note": 93,
      "start": 6.4263,
      "duration": 0.1421,
      "velocity": 127,
      "chip": "ym2612"
    },
    {
      "channel": 0,
      "note": 60,
      "start": 6.6256,
      "duration": 0.1455,
      "velocity": 96,
      "chip": "ym2612"
    },
    {
      "channel": 2,
      "note": 75,
      "start": 6.6295,
      "duration": 0.6188,
      "velocity": 123,
      "chip": "ym2612"
    },
    {
      "channel": 5,
      "note": 24,
      "start": 6.6322,
      "duration": 0.0679,
      "velocity": 95,
      "chip": "ym2612"
    },
    {
      "channel": 5,
      "note": 93,
      "start": 6.7301,
      "duration": 0.0728,
      "velocity": 95,
      "chip": "ym2612"
    },
    {
      "channel": 0,
      "note": 59,
      "start": 6.8334,
      "duration": 0.1493,
      "velocity": 96,
      "chip": "ym2612"
    },
    {
      "channel": 3,
      "note": 58,
      "start": 6.8361,
      "duration": 0.1876,
      "velocity": 103,
      "chip": "ym2612"
    },
    {
      "channel": 1,
      "note": 60,
      "start": 6.8389,
      "duration": 0.1849,
      "velocity": 103,
      "chip": "ym2612"
    },
    {
      "channel": 5,
      "note": 93,
      "start": 6.8435,
      "duration": 0.142,
      "velocity": 127,
      "chip": "ym2612"
    },
    {
      "channel": 0,
      "note": 60,
      "start": 7.0443,
      "duration": 0.1499,
      "velocity": 96,
      "chip": "ym2612"
    },
    {
      "channel": 3,
      "note": 84,
      "start": 7.0461,
      "duration": 0.0458,
      "velocity": 103,
      "chip": "ym2612"
    },
    {
      "channel": 4,
      "note": 65,
      "start": 7.0494,
      "duration": 0.0433,
      "velocity": 103,
      "chip": "ym2612"
    },
    {
      "channel": 5,
      "note": 24,
      "start": 7.0527,
      "duration": 0.0705,
      "velocity": 95,
      "chip": "ym2612"
    },
    {
      "channel": 5,
      "note": 93,
      "start": 7.1525,
      "duration": 0.0739,
      "velocity": 95,
      "chip": "ym2612"
    },
    {
      "channel": 0,
      "note": 62,
      "start": 7.2553,
      "duration": 0.1511,
      "velocity": 96,
      "chip": "ym2612"
    },
    {
      "channel": 3,
      "note": 81,
      "start": 7.2577,
      "duration": 0.1887,
      "velocity": 103,
      "chip": "ym2612"
    },
    {
      "channel": 1,
      "note": 79,
      "start": 7.2594,
      "duration": 0.1871,
      "velocity": 103,
      "chip": "ym2612"
    },
    {
      "channel": 5,
      "note": 93,
      "start": 7.2633,
      "duration": 0.1459,
      "velocity": 127,
      "chip": "ym2612"
    },
    {
      "channel": 0,
      "note": 55,
      "start": 7.4668,
      "duration": 0.1506,
      "velocity": 96,
      "chip": "ym2612"
    },
    {
      "channel": 3,
      "note": 84,
      "start": 7.4684,
      "duration": 0.0466,
      "velocity": 103,
      "chip": "ym2612"
    },
    {
      "channel": 4,
      "note": 86,
      "start": 7.4709,
      "duration": 0.045,
      "velocity": 103,
      "chip": "ym2612"
    },
    {
      "channel": 5,
      "note": 24,
      "start": 7.4747,
      "duration": 0.0711,
      "velocity": 95,
      "chip": "ym2612"
    },
    {
      "channel": 5,
      "note": 93,
      "start": 7.5762,
      "duration": 0.0729,
      "velocity": 95,
      "chip": "ym2612"
    },
    {
      "channel": 0,
      "note": 59,
      "start": 7.6783,
      "duration": 0.1449,
      "velocity": 96,
      "chip": "ym2612"
    },
    {
      "channel": 5,
      "note": 93,
      "start": 7.6835,
      "duration": 0.1425,
      "velocity": 127,
      "chip": "ym2612"
    },
    {
      "channel": 0,
      "note": 50,
      "start": 7.8821,
      "duration": 0.1469,
      "velocity": 96,
      "chip": "ym2612"
    },
    {
      "channel": 5,
      "note": 24,
      "start": 7.8872,
      "duration": 0.0714,
      "velocity": 95,
      "chip": "ym2612"
    },
    {
      "channel": 5,
      "note": 93,
      "start": 7.9873,
      "duration": 0.0735,
      "velocity": 95,
      "chip": "ym2612"
    },
    {
      "channel": 0,
      "note": 50,
      "start": 8.0898,
      "duration": 0.1452,
      "velocity": 96,
      "chip": "ym2612"
    },
    {
      "channel": 2,
      "note": 63,
      "start": 8.0935,
      "duration": 0.1961,
      "velocity": 123,
      "chip": "ym2612"
    },
    {
      "channel": 5,
      "note": 93,
      "start": 8.0962,
      "duration": 0.1416,
      "velocity": 127,
      "chip": "ym2612"
    },
    {
      "channel": 0,
      "note": 55,
      "start": 8.2963,
      "duration": 0.1502,
      "velocity": 96,
      "chip": "ym2612"
    },
    {
      "channel": 1,
      "note": 89,
      "start": 8.2995,
      "duration": 0.1478,
      "velocity": 113,
      "chip": "ym2612"
    },
    {
      "channel": 2,
      "note": 101,
      "start": 8.3022,
      "duration": 0.6158,
      "velocity": 123,
      "chip": "ym2612"
    },
    {
      "channel": 5,
      "note": 24,
      "start": 8.3047,
      "duration": 0.0712,
      "velocity": 95,
      "chip": "ym2612"
    },
    {
      "channel": 5,
      "note": 93,
      "start": 8.4048,
      "duration": 0.0734,
      "velocity": 95,
      "chip": "ym2612"
    },
    {
      "channel": 0,
      "note": 57,
      "start": 8.5072,
      "duration": 0.1509,
      "velocity": 96,
      "chip": "ym2612"
    },
    {
      "channel": 3,
      "note": 81,
      "start": 8.5098,
      "duration": 0.1485,
      "velocity": 113,
      "chip": "ym2612"
    },
    {
      "channel": 5,
      "note": 93,
      "start": 8.5146,
      "duration": 0.1458,
      "velocity": 127,
      "chip": "ym2612"
    },
    {
      "channel": 4,
      "note": 86,
      "start": 8.7201,
      "duration": 0.1458,
      "velocity": 113,
      "chip": "ym2612"
    },
    {
      "channel": 5,
      "note": 24,
      "start": 8.7241,
      "duration": 0.0689,
      "velocity": 95,
      "chip": "ym2612"
    },
    {
      "channel": 5,
      "note": 93,
      "start": 8.8224,
      "duration": 0.0733,
      "velocity": 95,
      "chip": "ym2612"
    },
    {
      "channel": 1,
      "note": 62,
      "start": 8.9259,
      "duration": 0.145,
      "velocity": 113,
      "chip": "ym2612"
    },
    {
      "channel": 2,
      "note": 101,
      "start": 8.9284,
      "duration": 0.8188,
      "velocity": 123,
      "chip": "ym2612"
    },
    {
      "channel": 5,
      "note": 93,
      "start": 8.931,
      "duration": 0.142,
      "velocity": 127,
      "chip": "ym2612"
    },
    {
      "channel": 0,
      "note": 60,
      "start": 9.1304,
      "duration": 0.1453,
      "velocity": 96,
      "chip": "ym2612"
    },
    {
      "channel": 3,
      "note": 65,
      "start": 9.132,
      "duration": 0.1438,
      "velocity": 113,
      "chip": "ym2612"
    },
    {
      "channel": 5,
      "note": 24,
      "start": 9.1368,
      "duration": 0.0677,
      "velocity": 95,
      "chip": "ym2612"
    },
    {
      "channel": 5,
      "note": 93,
      "start": 9.2339,
      "duration": 0.0742,
      "velocity": 95,
      "chip": "ym2612"
    },
    {
      "channel": 0,
      "note": 59,
      "start": 9.3364,
      "duration": 0.1508,
      "velocity": 96,
      "chip": "ym2612"
    },
    {
      "channel": 4,
      "note": 60,
      "start": 9.3402,
      "duration": 0.1487,
      "velocity": 113,
      "chip": "ym2612"
    },
    {
      "channel": 5,
      "note": 93,
      "start": 9.3434,
      "duration": 0.1468,
      "velocity": 127,
      "chip": "ym2612"
    },
    {
      "channel": 1,
      "note": 62,
      "start": 9.5483,
      "duration": 0.146,
      "velocity": 113,
      "chip": "ym2612"
    },
    {
      "channel": 5,
      "note": 24,
      "start": 9.5523,
      "duration": 0.0696,
      "velocity": 95,
      "chip": "ym2612"
    },
    {
      "channel": 5,
      "note": 93,
      "start": 9.6513,
      "duration": 0.0742,
      "velocity": 95,
      "chip": "ym2612"
    },
    {
      "channel": 2,
      "note": 63,
      "start": 9.7548,
      "duration": 0.1982,
      "velocity": 123,
      "chip": "ym2612"
    },
    {
      "channel": 5,
      "note": 93,
      "start": 9.7581,
      "duration": 0.1441,
      "velocity": 127,
      "chip": "ym2612"
    },
    {
      "channel": 0,
      "note": 60,
      "start": 9.9591,
      "duration": 0.1457,
      "velocity": 96,
      "chip": "ym2612"
    },
    {
      "channel": 2,
      "note": 75,
      "start": 9.963,
      "duration": 0.6076,
      "velocity": 123,
      "chip": "ym2612"
    },
    {
      "channel": 5,
      "note": 24,
      "start": 9.9657,
      "duration": 0.068,
      "velocity": 95,
      "chip": "ym2612"
    },
    {
      "channel": 5,
      "note": 93,
      "start": 10.0637,
      "duration": 0.0729,
      "velocity": 95,
      "chip": "ym2612"
    },
    {
      "channel": 0,
      "note": 59,
      "start": 10.1644,
      "duration": 0.1463,
      "velocity": 96,
      "chip": "ym2612"
    },
    {
      "channel": 5,
      "note": 93,
      "start": 10.1697,
      "duration": 0.1438,
      "velocity": 127,
      "chip": "ym2612"
    },
    {
      "channel": 0,
      "note": 60,
      "start": 10.3696,
      "duration": 0.147,
      "velocity": 96,
      "chip": "ym2612"
    },
    {
      "channel": 5,
      "note": 24,
      "start": 10.3756,
      "duration": 0.07,
      "velocity": 95,
      "chip": "ym2612"
    },
    {
      "channel": 5,
      "note": 93,
      "start": 10.4754,
      "duration": 0.0728,
      "velocity": 95,
      "chip": "ym2612"
    },
    {
      "channel": 0,
      "note": 59,
      "start": 10.5761,
      "duration": 0.1468,
      "velocity": 96,
      "chip": "ym2612"
    },
    {
      "channel": 5,
      "note": 93,
      "start": 10.5815,
      "duration": 0.1443,
      "velocity": 127,
      "chip": "ym2612"
    },
    {
      "channel": 0,
      "note": 55,
      "start": 10.7812,
      "duration": 0.1469,
      "velocity": 96,
      "chip": "ym2612"
    },
    {
      "channel": 5,
      "note": 24,
      "start": 10.7866,
      "duration": 0.0712,
      "velocity": 95,
      "chip": "ym2612"
    },
    {
      "channel": 5,
      "note": 93,
      "start": 10.8865,
      "duration": 0.0735,
      "velocity": 95,
      "chip": "ym2612"
    },
    {
      "channel": 0,
      "note": 48,
      "start": 10.9883,
      "duration": 0.1457,
      "velocity": 96,
      "chip": "ym2612"
    },
    {
      "channel": 5,
      "note": 93,
      "start": 10.9943,
      "duration": 0.1426,
      "velocity": 127,
      "chip": "ym2612"
    },
    {
      "channel": 0,
      "note": 50,
      "start": 11.1957,
      "duration": 0.1499,
      "velocity": 96,
      "chip": "ym2612"
    },
    {
      "channel": 3,
      "note": 58,
      "start": 11.1983,
      "duration": 0.0449,
      "velocity": 99,
      "chip": "ym2612"
    },
    {
      "channel": 4,
      "note": 60,
      "start": 11.2017,
      "duration": 0.0424,
      "velocity": 99,
      "chip": "ym2612"
    },
    {
      "channel": 5,
      "note": 24,
      "start": 11.2049,
      "duration": 0.0698,
      "velocity": 95,
      "chip": "ym2612"
    },
    {
      "channel": 5,
      "note": 93,
      "start": 11.3034,
      "duration": 0.0735,
      "velocity": 95,
      "chip": "ym2612"
    },
    {
      "channel": 0,
      "note": 50,
      "start": 11.4079,
      "duration": 0.1492,
      "velocity": 96,
      "chip": "ym2612"
    },
    {
      "channel": 3,
      "note": 84,
      "start": 11.4096,
      "duration": 0.0452,
      "velocity": 99,
      "chip": "ym2612"
    },
    {
      "channel": 1,
      "note": 53,
      "start": 11.4123,
      "duration": 0.0425,
      "velocity": 99,
      "chip": "ym2612"
    },
    {
      "channel": 2,
      "note": 63,
      "start": 11.4145,
      "duration": 0.1961,
      "velocity": 123,
      "chip": "ym2612"
    },
    {
      "channel": 5,
      "note": 93,
      "start": 11.4171,
      "duration": 0.1422,
      "velocity": 127,
      "chip": "ym2612"
    },
    {
      "channel": 0,
      "note": 55,
      "start": 11.6183,
      "duration": 0.1505,
      "velocity": 96,
      "chip": "ym2612"
    },
    {
      "channel": 3,
      "note": 79,
      "start": 11.6199,
      "duration": 0.0464,
      "velocity": 99,
      "chip": "ym2612"
    },
    {
      "channel": 4,
      "note": 79,
      "start": 11.6219,
      "duration": 0.0451,
      "velocity": 99,
      "chip": "ym2612"
    },
    {
      "channel": 2,
      "note": 101,
      "start": 11.6242,
      "duration": 0.616,
      "velocity": 123,
      "chip": "ym2612"
    },
    {
      "channel": 5,
      "note": 24,
      "start": 11.6267,
      "duration": 0.0702,
      "velocity": 95,
      "chip": "ym2612"
    },
    {
      "channel": 5,
      "note": 93,
      "start": 11.7265,
      "duration": 0.0733,
      "velocity": 95,
      "chip": "ym2612"
    },
    {
      "channel": 0,
      "note": 57,
      "start": 11.8299,
      "duration": 0.1505,
      "velocity": 96,
      "chip": "ym2612"
    },
    {
      "channel": 3,
      "note": 79,
      "start": 11.8316,
      "duration": 0.1893,
      "velocity": 99,
      "chip": "ym2612"
    },
    {
      "channel": 1,
      "note": 84,
      "start": 11.8331,
      "duration": 0.188,
      "velocity": 99,
      "chip": "ym2612"
    },
    {
      "channel": 5,
      "note": 93,
      "start": 11.8365,
      "duration": 0.146,
      "velocity": 127,
      "chip": "ym2612"
    },
    {
      "channel": 3,
      "note": 79,
      "start": 12.0411,
      "duration": 0.0427,
      "velocity": 99,
      "chip": "ym2612"
    },
    {
      "channel": 4,
      "note": 84,
      "start": 12.0432,
      "duration": 0.0412,
      "velocity": 99,
      "chip": "ym2612"
    },
    {
      "channel": 5,
      "note": 24,
      "start": 12.0464,
      "duration": 0.0679,
      "velocity": 95,
      "chip": "ym2612"
    },
    {
      "channel": 5,
      "note": 93,
      "start": 12.1438,
      "duration": 0.0735,
      "velocity": 95,
      "chip": "ym2612"
    },
    {
      "channel": 3,
      "note": 81,
      "start": 12.2478,
      "duration": 0.0476,
      "velocity": 99,
      "chip": "ym2612"
    },
    {
      "channel": 1,
      "note": 84,
      "start": 12.2493,
      "duration": 0.0462,
      "velocity": 99,
      "chip": "ym2612"
    },
    {
      "channel": 2,
      "note": 101,
      "start": 12.2515,
      "duration": 0.8244,
      "velocity": 123,
      "chip": "ym2612"
    },
    {
      "channel": 5,
      "note": 93,
      "start": 12.2541,
      "duration": 0.1462,
      "velocity": 127,
      "chip": "ym2612"
    },
    {
      "channel": 0,
      "note": 60,
      "start": 12.458,
      "duration": 0.1456,
      "velocity": 96,
      "chip": "ym2612"
    },
    {
      "channel": 4,
      "note": 86,
      "start": 12.4616,
      "duration": 0.0406,
      "velocity": 113,
      "chip": "ym2612"
    },
    {
      "channel": 5,
      "note": 24,
      "start": 12.4649,
      "duration": 0.0668,
      "velocity": 95,
      "chip": "ym2612"
    },
    {
      "channel": 5,
      "note": 93,
      "start": 12.5614,
      "duration": 0.0735,
      "velocity": 95,
      "chip": "ym2612"
    },
    {
      "channel": 0,
      "note": 59,
      "start": 12.6643,
      "duration": 0.1509,
      "velocity": 96,
      "chip": "ym2612"
    },
    {
      "channel": 3,
      "note": 81,
      "start": 12.6668,
      "duration": 0.0459,
      "velocity": 113,
      "chip": "ym2612"
    },
    {
      "channel": 5,
      "note": 93,
      "start": 12.6714,
      "duration": 0.1464,
      "velocity": 127,
      "chip": "ym2612"
    },
    {
      "channel": 1,
      "note": 86,
      "start": 12.8769,
      "duration": 0.0424,
      "velocity": 113,
      "chip": "ym2612"
    },
    {
      "channel": 5,
      "note": 24,
      "start": 12.881,
      "duration": 0.0688,
      "velocity": 95,
      "chip": "ym2612"
    },
    {
      "channel": 5,
      "note": 93,
      "start": 12.9798,
      "duration": 0.073,
      "velocity": 95,
      "chip": "ym2612"
    },
    {
      "channel": 4,
      "note": 53,
      "start": 13.0836,
      "duration": 0.0423,
      "velocity": 113,
      "chip": "ym2612"
    },
    {
      "channel": 2,
      "note": 63,
      "start": 13.0853,
      "duration": 0.1957,
      "velocity": 123,
      "chip": "ym2612"
    },
    {
      "channel": 5,
      "note": 93,
      "start": 13.0879,
      "duration": 0.1422,
      "velocity": 127,
      "chip": "ym2612"
    },
    {
      "channel": 0,
      "note": 60,
      "start": 13.2866,
      "duration": 0.1461,
      "velocity": 96,
      "chip": "ym2612"
    },
    {
      "channel": 2,
      "note": 75,
      "start": 13.2911,
      "duration": 0.6188,
      "velocity": 123,
      "chip": "ym2612"
    },
    {
      "channel": 5,
      "note": 24,
      "start": 13.2938,
      "duration": 0.0679,
      "velocity": 95,
      "chip": "ym2612"
    },
    {
      "channel": 5,
      "note": 93,
      "start": 13.3917,
      "duration": 0.0729,
      "velocity": 95,
      "chip": "ym2612"
    },
    {
      "channel": 0,
      "note": 59,
      "start": 13.4951,
      "duration": 0.1493,
      "velocity": 96,
      "chip": "ym2612"
    },
    {
      "channel": 3,
      "note": 58,
      "start": 13.4978,
      "duration": 0.1871,
      "velocity": 103,
      "chip": "ym2612"
    },
    {
      "channel": 1,
      "note": 60,
      "start": 13.5006,
      "duration": 0.1844,
      "velocity": 103,
      "chip": "ym2612"
    },
    {
      "channel": 5,
      "note": 93,
      "start": 13.5046,
      "duration": 0.1426,
      "velocity": 127,
      "chip": "ym2612"
    },
    {
      "channel": 0,
      "note": 60,
      "start": 13.7053,
      "duration": 0.1512,
      "velocity": 96,
      "chip": "ym2612"
    },
    {
      "channel": 3,
      "note": 84,
      "start": 13.7077,
      "duration": 0.0457,
      "velocity": 103,
      "chip": "ym2612"
    },
    {
      "channel": 4,
      "note": 65,
      "start": 13.7111,
      "duration": 0.0432,
      "velocity": 103,
      "chip": "ym2612"
    },
    {
      "channel": 5,
      "note": 24,
      "start": 13.7144,
      "duration": 0.0699,
      "velocity": 95,
      "chip": "ym2612"
    },
    {
      "channel": 5,
      "note": 93,
      "start": 13.8144,
      "duration": 0.0732,
      "velocity": 95,
      "chip": "ym2612"
    },
    {
      "channel": 0,
      "note": 62,
      "start": 13.917,
      "duration": 0.1505,
      "velocity": 96,
      "chip": "ym2612"
    },
    {
      "channel": 3,
      "note": 81,
      "start": 13.9186,
      "duration": 0.1894,
      "velocity": 103,
      "chip": "ym2612"
    },
    {
      "channel": 1,
      "note": 79,
      "start": 13.9204,
      "duration": 0.1877,
      "velocity": 103,
      "chip": "ym2612"
    },
    {
      "channel": 5,
      "note": 93,
      "start": 13.9249,
      "duration": 0.1453,
      "velocity": 127,
      "chip": "ym2612"
    },
    {
      "channel": 0,
      "note": 55,
      "start": 14.129,
      "duration": 0.15,
      "velocity": 96,
      "chip": "ym2612"
    },
    {
      "channel": 3,
      "note": 84,
      "start": 14.1307,
      "duration": 0.0459,
      "velocity": 103,
      "chip": "ym2612"
    },
    {
      "channel": 4,
      "note": 86,
      "start": 14.1331,
      "duration": 0.0443,
      "velocity": 103,
      "chip": "ym2612"
    },
    {
      "channel": 5,
      "note": 24,
      "start": 14.1364,
      "duration": 0.0718,
      "velocity": 95,
      "chip": "ym2612"
    },
    {
      "channel": 5,
      "note": 93,
      "start": 14.2372,
      "duration": 0.0735,
      "velocity": 95,
      "chip": "ym2612"
    },
    {
      "channel": 0,
      "note": 59,
      "start": 14.3418,
      "duration": 0.1488,
      "velocity": 96,
      "chip": "ym2612"
    },
    {
      "channel": 3,
      "note": 81,
      "start": 14.3444,
      "duration": 0.3297,
      "velocity": 83,
      "chip": "ym2612"
    },
    {
      "channel": 1,
      "note": 89,
      "start": 14.3469,
      "duration": 0.3273,
      "velocity": 83,
      "chip": "ym2612"
    },
    {
      "channel": 5,
      "note": 93,
      "start": 14.3507,
      "duration": 0.1422,
      "velocity": 127,
      "chip": "ym2612"
    },
    {
      "channel": 0,
      "note": 50,
      "start": 14.549,
      "duration": 0.1474,
      "velocity": 96,
      "chip": "ym2612"
    },
    {
      "channel": 5,
      "note": 24,
      "start": 14.5537,
      "duration": 0.0718,
      "velocity": 95,
      "chip": "ym2612"
    },
    {
      "channel": 5,
      "note": 93,
      "start": 14.6542,
      "duration": 0.0735,
      "velocity": 95,
      "chip": "ym2612"
    },
    {
      "channel": 0,
      "note": 50,
      "start": 14.7586,
      "duration": 0.1494,
      "velocity": 96,
      "chip": "ym2612"
    },
    {
      "channel": 3,
      "note": 81,
      "start": 14.7603,
      "duration": 0.1368,
      "velocity": 83,
      "chip": "ym2612"
    },
    {
      "channel": 1,
      "note": 86,
      "start": 14.762,
      "duration": 0.1352,
      "velocity": 83,
      "chip": "ym2612"
    },
    {
      "channel": 2,
      "note": 63,
      "start": 14.7644,
      "duration": 0.1973,
      "velocity": 123,
      "chip": "ym2612"
    },
    {
      "channel": 5,
      "note": 93,
      "start": 14.767,
      "duration": 0.1434,
      "velocity": 127,
      "chip": "ym2612"
    },
    {
      "channel": 0,
      "note": 55,
      "start": 14.9691,
      "duration": 0.1504,
      "velocity": 96,
      "chip": "ym2612"
    },
    {
      "channel": 3,
      "note": 86,
      "start": 14.9709,
      "duration": 0.1264,
      "velocity": 83,
      "chip": "ym2612"
    },
    {
      "channel": 1,
      "note": 81,
      "start": 14.9732,
      "duration": 0.1242,
      "velocity": 83,
      "chip": "ym2612"
    },
    {
      "channel": 2,
      "note": 101,
      "start": 14.9756,
      "duration": 0.6094,
      "velocity": 123,
      "chip": "ym2612"
    },
    {
      "channel": 5,
      "note": 24,
      "start": 14.978,
      "duration": 0.07,
      "velocity": 95,
      "chip": "ym2612"
    },
    {
      "channel": 5,
      "note": 93,
      "start": 15.0775,
      "duration": 0.0734,
      "velocity": 95,
      "chip": "ym2612"
    },
    {
      "channel": 0,
      "note": 57,
      "start": 15.1788,
      "duration": 0.1466,
      "velocity": 96,
      "chip": "ym2612"
    },
    {
      "channel": 5,
      "note": 93,
      "start": 15.1836,
      "duration": 0.1441,
      "velocity": 127,
      "chip": "ym2612"
    },
    {
      "channel": 3,
      "note": 84,
      "start": 15.3855,
      "duration": 0.1234,
      "velocity": 83,
      "chip": "ym2612"
    },
    {
      "channel": 1,
      "note": 79,
      "start": 15.3872,
      "duration": 0.1219,
      "velocity": 83,
      "chip": "ym2612"
    },
    {
      "channel": 5,
      "note": 24,
      "start": 15.3917,
      "duration": 0.068,
      "velocity": 95,
      "chip": "ym2612"
    },
    {
      "channel": 5,
      "note": 93,
      "start": 15.4897,
      "duration": 0.0729,
      "velocity": 95,
      "chip": "ym2612"
    },
    {
      "channel": 2,
      "note": 101,
      "start": 15.5927,
      "duration": 0.8214,
      "velocity": 123,
      "chip": "ym2612"
    },
    {
      "channel": 5,
      "note": 93,
      "start": 15.5953,
      "duration": 0.1452,
      "velocity": 127,
      "chip": "ym2612"
    },
    {
      "channel": 0,
      "note": 60,
      "start": 15.7981,
      "duration": 0.1506,
      "velocity": 96,
      "chip": "ym2612"
    },
    {
      "channel": 3,
      "note": 79,
      "start": 15.7998,
      "duration": 0.1265,
      "velocity": 83,
      "chip": "ym2612"
    },
    {
      "channel": 1,
      "note": 74,
      "start": 15.8015,
      "duration": 0.1251,
      "velocity": 83,
      "chip": "ym2612"
    },
    {
      "channel": 5,
      "note": 24,
      "start": 15.8054,
      "duration": 0.0717,
      "velocity": 95,
      "chip": "ym2612"
    },
    {
      "channel": 5,
      "note": 93,
      "start": 15.9071,
      "duration": 0.0729,
      "velocity": 95,
      "chip": "ym2612"
    },
    {
      "channel": 0,
      "note": 59,
      "start": 16.0083,
      "duration": 0.1462,
      "velocity": 96,
      "chip": "ym2612"
    },
    {
      "channel": 5,
      "note": 93,
      "start": 16.0132,
      "duration": 0.1444,
      "velocity": 127,
      "chip": "ym2612"
    },
    {
      "channel": 3,
      "note": 83,
      "start": 16.2151,
      "duration": 0.123,
      "velocity": 83,
      "chip": "ym2612"
    },
    {
      "channel": 1,
      "note": 79,
      "start": 16.2167,
      "duration": 0.1215,
      "velocity": 83,
      "chip": "ym2612"
    },
    {
      "channel": 5,
      "note": 24,
      "start": 16.2207,
      "duration": 0.0682,
      "velocity": 95,
      "chip": "ym2612"
    },
    {
      "channel": 5,
      "note": 93,
      "start": 16.3182,
      "duration": 0.0742,
      "velocity": 95,
      "chip": "ym2612"
    },
    {
      "channel": 2,
      "note": 63,
      "start": 16.421,
      "duration": 0.1989,
      "velocity": 123,
      "chip": "ym2612"
    },
    {
      "channel": 5,
      "note": 93,
      "start": 16.4242,
      "duration": 0.1448,
      "velocity": 127,
      "chip": "ym2612"
    },
    {
      "channel": 0,
      "note": 60,
      "start": 16.6282,
      "duration": 0.1497,
      "velocity": 96,
      "chip": "ym2612"
    },
    {
      "channel": 3,
      "note": 81,
      "start": 16.6299,
      "duration": 0.1256,
      "velocity": 83,
      "chip": "ym2612"
    },
    {
      "channel": 1,
      "note": 78,
      "start": 16.6315,
      "duration": 0.1244,
      "velocity": 83,
      "chip": "ym2612"
    },
    {
      "channel": 2,
      "note": 75,
      "start": 16.6339,
      "duration": 0.615,
      "velocity": 123,
      "chip": "ym2612"
    },
    {
      "channel": 5,
      "note": 24,
      "start": 16.6366,
      "duration": 0.0703,
      "velocity": 95,
      "chip": "ym2612"
    },
    {
      "channel": 5,
      "note": 93,
      "start": 16.7356,
      "duration": 0.0736,
      "velocity": 95,
      "chip": "ym2612"
    },
    {
      "channel": 0,
      "note": 59,
      "start": 16.8366,
      "duration": 0.1471,
      "velocity": 96,
      "chip": "ym2612"
    },
    {
      "channel": 5,
      "note": 93,
      "start": 16.8421,
      "duration": 0.1439,
      "velocity": 127,
      "chip": "ym2612"
    },
    {
      "channel": 0,
      "note": 60,
      "start": 17.0446,
      "duration": 0.1506,
      "velocity": 96,
      "chip": "ym2612"
    },
    {
      "channel": 3,
      "note": 79,
      "start": 17.0464,
      "duration": 0.1271,
      "velocity": 83,
      "chip": "ym2612"
    },
    {
      "channel": 1,
      "note": 72,
      "start": 17.048,
      "duration": 0.1256,
      "velocity": 83,
      "chip": "ym2612"
    },
    {
      "channel": 5,
      "note": 24,
      "start": 17.0519,
      "duration": 0.0724,
      "velocity": 95,
      "chip": "ym2612"
    },
    {
      "channel": 5,
      "note": 93,
      "start": 17.153,
      "duration": 0.0735,
      "velocity": 95,
      "chip": "ym2612"
    },
    {
      "channel": 0,
      "note": 59,
      "start": 17.2538,
      "duration": 0.1473,
      "velocity": 96,
      "chip": "ym2612"
    },
    {
      "channel": 5,
      "note": 93,
      "start": 17.2593,
      "duration": 0.1442,
      "velocity": 127,
      "chip": "ym2612"
    },
    {
      "channel": 0,
      "note": 55,
      "start": 17.4622,
      "duration": 0.1505,
      "velocity": 96,
      "chip": "ym2612"
    },
    {
      "channel": 3,
      "note": 72,
      "start": 17.4639,
      "duration": 1.4474,
      "velocity": 83,
      "chip": "ym2612"
    },
    {
      "channel": 1,
      "note": 67,
      "start": 17.4656,
      "duration": 1.4458,
      "velocity": 83,
      "chip": "ym2612"
    },
    {
      "channel": 5,
      "note": 24,
      "start": 17.4695,
      "duration": 0.0723,
      "velocity": 95,
      "chip": "ym2612"
    },
    {
      "channel": 5,
      "note": 93,
      "start": 17.5705,
      "duration": 0.0735,
      "velocity": 95,
      "chip": "ym2612"
    },
    {
      "channel": 0,
      "note": 48,
      "start": 17.6722,
      "duration": 0.1464,
      "velocity": 96,
      "chip": "ym2612"
    },
    {
      "channel": 5,
      "note": 93,
      "start": 17.6777,
      "duration": 0.1432,
      "velocity": 127,
      "chip": "ym2612"
    },
    {
      "channel": 0,
      "note": 50,
      "start": 17.8787,
      "duration": 0.1457,
      "velocity": 96,
      "chip": "ym2612"
    },
    {
      "channel": 4,
      "note": 86,
      "start": 17.882,
      "duration": 0.1436,
      "velocity": 113,
      "chip": "ym2612"
    },
    {
      "channel": 5,
      "note": 24,
      "start": 17.8854,
      "duration": 0.0672,
      "velocity": 95,
      "chip": "ym2612"
    },
    {
      "channel": 5,
      "note": 93,
      "start": 17.9822,
      "duration": 0.0742,
      "velocity": 95,
      "chip": "ym2612"
    },
    {
      "channel": 0,
      "note": 50,
      "start": 18.085,
      "duration": 0.151,
      "velocity": 96,
      "chip": "ym2612"
    },
    {
      "channel": 4,
      "note": 65,
      "start": 18.0877,
      "duration": 0.1494,
      "velocity": 113,
      "chip": "ym2612"
    },
    {
      "channel": 2,
      "note": 63,
      "start": 18.0901,
      "duration": 0.2002,
      "velocity": 123,
      "chip": "ym2612"
    },
    {
      "channel": 5,
      "note": 93,
      "start": 18.0927,
      "duration": 0.1451,
      "velocity": 127,
      "chip": "ym2612"
    },
    {
      "channel": 0,
      "note": 55,
      "start": 18.2968,
      "duration": 0.1507,
      "velocity": 96,
      "chip": "ym2612"
    },
    {
      "channel": 4,
      "note": 67,
      "start": 18.2995,
      "duration": 0.1492,
      "velocity": 113,
      "chip": "ym2612"
    },
    {
      "channel": 2,
      "note": 101,
      "start": 18.3013,
      "duration": 0.611,
      "velocity": 123,
      "chip": "ym2612"
    },
    {
      "channel": 5,
      "note": 24,
      "start": 18.3037,
      "duration": 0.072,
      "velocity": 95,
      "chip": "ym2612"
    },
    {
      "channel": 5,
      "note": 93,
      "start": 18.4053,
      "duration": 0.0735,
      "velocity": 95,
      "chip": "ym2612"
    },
    {
      "channel": 0,
      "note": 57,
      "start": 18.5078,
      "duration": 0.1456,
      "velocity": 96,
      "chip": "ym2612"
    },
    {
      "channel": 4,
      "note": 62,
      "start": 18.5105,
      "duration": 0.144,
      "velocity": 113,
      "chip": "ym2612"
    },
    {
      "channel": 5,
      "note": 93,
      "start": 18.5137,
      "duration": 0.1415,
      "velocity": 127,
      "chip": "ym2612"
    },
    {
      "channel": 4,
      "note": 65,
      "start": 18.7156,
      "duration": 0.1852,
      "velocity": 103,
      "chip": "ym2612"
    },
    {
      "channel": 5,
      "note": 24,
      "start": 18.7189,
      "duration": 0.0685,
      "velocity": 95,
      "chip": "ym2612"
    },
    {
      "channel": 5,
      "note": 93,
      "start": 18.817,
      "duration": 0.0741,
      "velocity": 95,
      "chip": "ym2612"
    },
    {
      "channel": 4,
      "note": 71,
      "start": 18.9198,
      "duration": 0.0724,
      "velocity": 103,
      "chip": "ym2612"
    },
    {
      "channel": 2,
      "note": 101,
      "start": 18.9215,
      "duration": 0.815,
      "velocity": 123,
      "chip": "ym2612"
    },
    {
      "channel": 5,
      "note": 93,
      "start": 18.9248,
      "duration": 0.143,
      "velocity": 127,
      "chip": "ym2612"
    },
    {
      "channel": 0,
      "note": 60,
      "start": 19.1244,
      "duration": 0.1466,
      "velocity": 96,
      "chip": "ym2612"
    },
    {
      "channel": 5,
      "note": 24,
      "start": 19.1292,
      "duration": 0.0702,
      "velocity": 95,
      "chip": "ym2612"
    },
    {
      "channel": 5,
      "note": 93,
      "start": 19.2289,
      "duration": 0.0734,
      "velocity": 95,
      "chip": "ym2612"
    },
    {
      "channel": 0,
      "note": 59,
      "start": 19.3308,
      "duration": 0.146,
      "velocity": 96,
      "chip": "ym2612"
    },
    {
      "channel": 5,
      "note": 93,
      "start": 19.3357,
      "duration": 0.1435,
      "velocity": 127,
      "chip": "ym2612"
    },
    {
      "channel": 3,
      "note": 74,
      "start": 19.5369,
      "duration": 0.1868,
      "velocity": 103,
      "chip": "ym2612"
    },
    {
      "channel": 5,
      "note": 24,
      "start": 19.542,
      "duration": 0.0691,
      "velocity": 95,
      "chip": "ym2612"
    },
    {
      "channel": 5,
      "note": 93,
      "start": 19.6413,
      "duration": 0.0729,
      "velocity": 95,
      "chip": "ym2612"
    },
    {
      "channel": 1,
      "note": 69,
      "start": 19.7451,
      "duration": 0.0761,
      "velocity": 103,
      "chip": "ym2612"
    },
    {
      "channel": 2,
      "note": 63,
      "start": 19.7476,
      "duration": 0.2007,
      "velocity": 123,
      "chip": "ym2612"
    },
    {
      "channel": 5,
      "note": 93,
      "start": 19.7502,
      "duration": 0.1472,
      "velocity": 127,
      "chip": "ym2612"
    },
    {
      "channel": 0,
      "note": 60,
      "start": 19.9537,
      "duration": 0.1463,
      "velocity": 96,
      "chip": "ym2612"
    },
    {
      "channel": 2,
      "note": 75,
      "start": 19.9582,
      "duration": 0.6134,
      "velocity": 123,
      "chip": "ym2612"
    },
    {
      "channel": 5,
      "note": 24,
      "start": 19.9609,
      "duration": 0.0683,
      "velocity": 95,
      "chip": "ym2612"
    },
    {
      "channel": 5,
      "note": 93,
      "start": 20.0589,
      "duration": 0.0729,
      "velocity": 95,
      "chip": "ym2612"
    },
    {
      "channel": 0,
      "note": 59,
      "start": 20.1615,
      "duration": 0.1501,
      "velocity": 96,
      "chip": "ym2612"
    },
    {
      "channel": 4,
      "note": 72,
      "start": 20.1646,
      "duration": 0.189,
      "velocity": 103,
      "chip": "ym2612"
    },
    {
      "channel": 5,
      "note": 93,
      "start": 20.1677,
      "duration": 0.1467,
      "velocity": 127,
      "chip": "ym2612"
    },
    {
      "channel": 0,
      "note": 60,
      "start": 20.3716,
      "duration": 0.1459,
      "velocity": 96,
      "chip": "ym2612"
    },
    {
      "channel": 3,
      "note": 71,
      "start": 20.374,
      "duration": 0.0697,
      "velocity": 103,
      "chip": "ym2612"
    },
    {
      "channel": 5,
      "note": 24,
      "start": 20.3786,
      "duration": 0.0672,
      "velocity": 95,
      "chip": "ym2612"
    },
    {
      "channel": 5,
      "note": 93,
      "start": 20.4763,
      "duration": 0.0729,
      "velocity": 95,
      "chip": "ym2612"
    },
    {
      "channel": 0,
      "note": 62,
      "start": 20.5782,
      "duration": 0.1452,
      "velocity": 96,
      "chip": "ym2612"
    },
    {
      "channel": 1,
      "note": 72,
      "start": 20.5806,
      "duration": 0.1554,
      "velocity": 103,
      "chip": "ym2612"
    },
    {
      "channel": 5,
      "note": 93,
      "start": 20.5845,
      "duration": 0.1417,
      "velocity": 127,
      "chip": "ym2612"
    },
    {
      "channel": 0,
      "note": 55,
      "start": 20.7834,
      "duration": 0.1459,
      "velocity": 96,
      "chip": "ym2612"
    },
    {
      "channel": 4,
      "note": 69,
      "start": 20.7865,
      "duration": 0.1847,
      "velocity": 103,
      "chip": "ym2612"
    },
    {
      "channel": 5,
      "note": 24,
      "start": 20.7903,
      "duration": 0.0683,
      "velocity": 95,
      "chip": "ym2612"
    },
    {
      "channel": 5,
      "note": 93,
      "start": 20.8874,
      "duration": 0.0735,
      "velocity": 95,
      "chip": "ym2612"
    },
    {
      "channel": 0,
      "note": 59,
      "start": 20.992,
      "duration": 0.1488,
      "velocity": 96,
      "chip": "ym2612"
    },
    {
      "channel": 3,
      "note": 72,
      "start": 20.9946,
      "duration": 0.3297,
      "velocity": 83,
      "chip": "ym2612"
    },
    {
      "channel": 1,
      "note": 77,
      "start": 20.9971,
      "duration": 0.3273,
      "velocity": 83,
      "chip": "ym2612"
    },
    {
      "channel": 5,
      "note": 93,
      "start": 21.001,
      "duration": 0.1422,
      "velocity": 127,
      "chip": "ym2612"
    },
    {
      "channel": 0,
      "note": 50,
      "start": 21.1992,
      "duration": 0.1474,
      "velocity": 96,
      "chip": "ym2612"
    },
    {
      "channel": 5,
      "note": 24,
      "start": 21.2039,
      "duration": 0.0718,
      "velocity": 95,
      "chip": "ym2612"
    },
    {
      "channel": 5,
      "note": 93,
      "start": 21.3044,
      "duration": 0.0735,
      "velocity": 95,
      "chip": "ym2612"
    },
    {
      "channel": 0,
      "note": 50,
      "start": 21.4088,
      "duration": 0.1494,
      "velocity": 96,
      "chip": "ym2612"
    },
    {
      "channel": 3,
      "note": 86,
      "start": 21.4105,
      "duration": 0.1368,
      "velocity": 83,
      "chip": "ym2612"
    },
    {
      "channel": 1,
      "note": 81,
      "start": 21.412,
      "duration": 0.1354,
      "velocity": 83,
      "chip": "ym2612"
    },
    {
      "channel": 2,
      "note": 63,
      "start": 21.4142,
      "duration": 0.1977,
      "velocity": 123,
      "chip": "ym2612"
    },
    {
      "channel": 5,
      "note": 93,
      "start": 21.4168,
      "duration": 0.1438,
      "velocity": 127,
      "chip": "ym2612"
    },
    {
      "channel": 0,
      "note": 55,
      "start": 21.6193,
      "duration": 0.1505,
      "velocity": 96,
      "chip": "ym2612"
    },
    {
      "channel": 3,
      "note": 86,
      "start": 21.621,
      "duration": 0.1264,
      "velocity": 83,
      "chip": "ym2612"
    },
    {
      "channel": 1,
      "note": 81,
      "start": 21.6233,
      "duration": 0.1242,
      "velocity": 83,
      "chip": "ym2612"
    },
    {
      "channel": 2,
      "note": 101,
      "start": 21.6258,
      "duration": 0.6094,
      "velocity": 123,
      "chip": "ym2612"
    },
    {
      "channel": 5,
      "note": 24,
      "start": 21.6282,
      "duration": 0.07,
      "velocity": 95,
      "chip": "ym2612"
    },
    {
      "channel": 5,
      "note": 93,
      "start": 21.7277,
      "duration": 0.0733,
      "velocity": 95,
      "chip": "ym2612"
    },
    {
      "channel": 0,
      "note": 57,
      "start": 21.8289,
      "duration": 0.1467,
      "velocity": 96,
      "chip": "ym2612"
    },
    {
      "channel": 5,
      "note": 93,
      "start": 21.8338,
      "duration": 0.1442,
      "velocity": 127,
      "chip": "ym2612"
    },
    {
      "channel": 3,
      "note": 84,
      "start": 22.0357,
      "duration": 0.1235,
      "velocity": 83,
      "chip": "ym2612"
    },
    {
      "channel": 1,
      "note": 79,
      "start": 22.0374,
      "duration": 0.1219,
      "velocity": 83,
      "chip": "ym2612"
    },
    {
      "channel": 5,
      "note": 24,
      "start": 22.0419,
      "duration": 0.068,
      "velocity": 95,
      "chip": "ym2612"
    },
    {
      "channel": 5,
      "note": 93,
      "start": 22.1399,
      "duration": 0.0728,
      "velocity": 95,
      "chip": "ym2612"
    },
    {
      "channel": 2,
      "note": 101,
      "start": 22.2429,
      "duration": 0.8214,
      "velocity": 123,
      "chip": "ym2612"
    },
    {
      "channel": 5,
      "note": 93,
      "start": 22.2455,
      "duration": 0.1452,
      "velocity": 127,
      "chip": "ym2612"
    },
    {
      "channel": 0,
      "note": 60,
      "start": 22.4483,
      "duration": 0.1506,
      "velocity": 96,
      "chip": "ym2612"
    },
    {
      "channel": 3,
      "note": 79,
      "start": 22.45,
      "duration": 0.1265,
      "velocity": 83,
      "chip": "ym2612"
    },
    {
      "channel": 1,
      "note": 74,
      "start": 22.4516,
      "duration": 0.1251,
      "velocity": 83,
      "chip": "ym2612"
    },
    {
      "channel": 5,
      "note": 24,
      "start": 22.4558,
      "duration": 0.0715,
      "velocity": 95,
      "chip": "ym2612"
    },
    {
      "channel": 5,
      "note": 93,
      "start": 22.5573,
      "duration": 0.0729,
      "velocity": 95,
      "chip": "ym2612"
    },
    {
      "channel": 0,
      "note": 59,
      "start": 22.6585,
      "duration": 0.1463,
      "velocity": 96,
      "chip": "ym2612"
    },
    {
      "channel": 5,
      "note": 93,
      "start": 22.6634,
      "duration": 0.1444,
      "velocity": 127,
      "chip": "ym2612"
    },
    {
      "channel": 3,
      "note": 83,
      "start": 22.8651,
      "duration": 0.1232,
      "velocity": 83,
      "chip": "ym2612"
    },
    {
      "channel": 1,
      "note": 79,
      "start": 22.8668,
      "duration": 0.1216,
      "velocity": 83,
      "chip": "ym2612"
    },
    {
      "channel": 5,
      "note": 24,
      "start": 22.8707,
      "duration": 0.0689,
      "velocity": 95,
      "chip": "ym2612"
    },
    {
      "channel": 5,
      "note": 93,
      "start": 22.9684,
      "duration": 0.0741,
      "velocity": 95,
      "chip": "ym2612"
    },
    {
      "channel": 2,
      "note": 63,
      "start": 23.0712,
      "duration": 0.1989,
      "velocity": 123,
      "chip": "ym2612"
    },
    {
      "channel": 5,
      "note": 93,
      "start": 23.0744,
      "duration": 0.1447,
      "velocity": 127,
      "chip": "ym2612"
    },
    {
      "channel": 0,
      "note": 60,
      "start": 23.2784,
      "duration": 0.1497,
      "velocity": 96,
      "chip": "ym2612"
    },
    {
      "channel": 3,
      "note": 81,
      "start": 23.28,
      "duration": 0.1263,
      "velocity": 83,
      "chip": "ym2612"
    },
    {
      "channel": 1,
      "note": 78,
      "start": 23.2817,
      "duration": 0.1247,
      "velocity": 83,
      "chip": "ym2612"
    },
    {
      "channel": 2,
      "note": 75,
      "start": 23.2841,
      "duration": 0.615,
      "velocity": 123,
      "chip": "ym2612"
    },
    {
      "channel": 5,
      "note": 24,
      "start": 23.2868,
      "duration": 0.0704,
      "velocity": 95,
      "chip": "ym2612"
    },
    {
      "channel": 5,
      "note": 93,
      "start": 23.3858,
      "duration": 0.0735,
      "velocity": 95,
      "chip": "ym2612"
    },
    {
      "channel": 0,
      "note": 59,
      "start": 23.4868,
      "duration": 0.1471,
      "velocity": 96,
      "chip": "ym2612"
    },
    {
      "channel": 5,
      "note": 93,
      "start": 23.4923,
      "duration": 0.1439,
      "velocity": 127,
      "chip": "ym2612"
    },
    {
      "channel": 0,
      "note": 60,
      "start": 23.6948,
      "duration": 0.1506,
      "velocity": 96,
      "chip": "ym2612"
    },
    {
      "channel": 3,
      "note": 84,
      "start": 23.6966,
      "duration": 0.1271,
      "velocity": 83,
      "chip": "ym2612"
    },
    {
      "channel": 1,
      "note": 79,
      "start": 23.698,
      "duration": 0.1258,
      "velocity": 83,
      "chip": "ym2612"
    },
    {
      "channel": 5,
      "note": 24,
      "start": 23.7017,
      "duration": 0.0728,
      "velocity": 95,
      "chip": "ym2612"
    },
    {
      "channel": 5,
      "note": 93,
      "start": 23.8032,
      "duration": 0.0735,
      "velocity": 95,
      "chip": "ym2612"
    },
    {
      "channel": 0,
      "note": 59,
      "start": 23.904,
      "duration": 0.1473,
      "velocity": 96,
      "chip": "ym2612"
    },
    {
      "channel": 5,
      "note": 93,
      "start": 23.9095,
      "duration": 0.1442,
      "velocity": 127,
      "chip": "ym2612"
    },
    {
      "channel": 0,
      "note": 55,
      "start": 24.1124,
      "duration": 0.1505,
      "velocity": 96,
      "chip": "ym2612"
    },
    {
      "channel": 3,
      "note": 84,
      "start": 24.1141,
      "duration": 1.4473,
      "velocity": 83,
      "chip": "ym2612"
    },
    {
      "channel": 1,
      "note": 79,
      "start": 24.1158,
      "duration": 1.4458,
      "velocity": 83,
      "chip": "ym2612"
    },
    {
      "channel": 5,
      "note": 24,
      "start": 24.1197,
      "duration": 0.0722,
      "velocity": 95,
      "chip": "ym2612"
    },
    {
      "channel": 5,
      "note": 93,
      "start": 24.2207,
      "duration": 0.0735,
      "velocity": 95,
      "chip": "ym2612"
    },
    {
      "channel": 0,
      "note": 48,
      "start": 24.3224,
      "duration": 0.1463,
      "velocity": 96,
      "chip": "ym2612"
    },
    {
      "channel": 5,
      "note": 93,
      "start": 24.3277,
      "duration": 0.1434,
      "velocity": 127,
      "chip": "ym2612"
    },
    {
      "channel": 0,
      "note": 50,
      "start": 24.5289,
      "duration": 0.1457,
      "velocity": 96,
      "chip": "ym2612"
    },
    {
      "channel": 4,
      "note": 74,
      "start": 24.5322,
      "duration": 0.1436,
      "velocity": 113,
      "chip": "ym2612"
    },
    {
      "channel": 5,
      "note": 24,
      "start": 24.5356,
      "duration": 0.0672,
      "velocity": 95,
      "chip": "ym2612"
    },
    {
      "channel": 5,
      "note": 93,
      "start": 24.6324,
      "duration": 0.0742,
      "velocity": 95,
      "chip": "ym2612"
    },
    {
      "channel": 0,
      "note": 50,
      "start": 24.7352,
      "duration": 0.151,
      "velocity": 96,
      "chip": "ym2612"
    },
    {
      "channel": 4,
      "note": 65,
      "start": 24.7379,
      "duration": 0.1494,
      "velocity": 113,
      "chip": "ym2612"
    },
    {
      "channel": 2,
      "note": 63,
      "start": 24.7402,
      "duration": 0.2002,
      "velocity": 123,
      "chip": "ym2612"
    },
    {
      "channel": 5,
      "note": 93,
      "start": 24.7429,
      "duration": 0.1451,
      "velocity": 127,
      "chip": "ym2612"
    },
    {
      "channel": 0,
      "note": 55,
      "start": 24.947,
      "duration": 0.1507,
      "velocity": 96,
      "chip": "ym2612"
    },
    {
      "channel": 4,
      "note": 67,
      "start": 24.9497,
      "duration": 0.1493,
      "velocity": 113,
      "chip": "ym2612"
    },
    {
      "channel": 2,
      "note": 101,
      "start": 24.9515,
      "duration": 0.6109,
      "velocity": 123,
      "chip": "ym2612"
    },
    {
      "channel": 5,
      "note": 24,
      "start": 24.9539,
      "duration": 0.072,
      "velocity": 95,
      "chip": "ym2612"
    },
    {
      "channel": 5,
      "note": 93,
      "start": 25.0555,
      "duration": 0.0735,
      "velocity": 95,
      "chip": "ym2612"
    },
    {
      "channel": 0,
      "note": 57,
      "start": 25.158,
      "duration": 0.1456,
      "velocity": 96,
      "chip": "ym2612"
    },
    {
      "channel": 4,
      "note": 62,
      "start": 25.1607,
      "duration": 0.144,
      "velocity": 113,
      "chip": "ym2612"
    },
    {
      "channel": 5,
      "note": 93,
      "start": 25.1639,
      "duration": 0.1415,
      "velocity": 127,
      "chip": "ym2612"
    },
    {
      "channel": 4,
      "note": 65,
      "start": 25.3658,
      "duration": 0.1852,
      "velocity": 103,
      "chip": "ym2612"
    },
    {
      "channel": 5,
      "note": 24,
      "start": 25.3691,
      "duration": 0.0685,
      "velocity": 95,
      "chip": "ym2612"
    },
    {
      "channel": 5,
      "note": 93,
      "start": 25.4672,
      "duration": 0.0742,
      "velocity": 95,
      "chip": "ym2612"
    },
    {
      "channel": 4,
      "note": 71,
      "start": 25.57,
      "duration": 0.0725,
      "velocity": 103,
      "chip": "ym2612"
    },
    {
      "channel": 2,
      "note": 101,
      "start": 25.5717,
      "duration": 0.815,
      "velocity": 123,
      "chip": "ym2612"
    },
    {
      "channel": 5,
      "note": 93,
      "start": 25.5749,
      "duration": 0.1431,
      "velocity": 127,
      "chip": "ym2612"
    },
    {
      "channel": 0,
      "note": 60,
      "start": 25.7745,
      "duration": 0.1466,
      "velocity": 96,
      "chip": "ym2612"
    },
    {
      "channel": 5,
      "note": 24,
      "start": 25.7794,
      "duration": 0.0702,
      "velocity": 95,
      "chip": "ym2612"
    },
    {
      "channel": 5,
      "note": 93,
      "start": 25.879,
      "duration": 0.0734,
      "velocity": 95,
      "chip": "ym2612"
    },
    {
      "channel": 0,
      "note": 59,
      "start": 25.9811,
      "duration": 0.1459,
      "velocity": 96,
      "chip": "ym2612"
    },
    {
      "channel": 5,
      "note": 93,
      "start": 25.9859,
      "duration": 0.1435,
      "velocity": 127,
      "chip": "ym2612"
    },
    {
      "channel": 3,
      "note": 86,
      "start": 26.1871,
      "duration": 0.1866,
      "velocity": 103,
      "chip": "ym2612"
    },
    {
      "channel": 5,
      "note": 24,
      "start": 26.1922,
      "duration": 0.0691,
      "velocity": 95,
      "chip": "ym2612"
    },
    {
      "channel": 5,
      "note": 93,
      "start": 26.2915,
      "duration": 0.0729,
      "velocity": 95,
      "chip": "ym2612"
    },
    {
      "channel": 1,
      "note": 81,
      "start": 26.3953,
      "duration": 0.0761,
      "velocity": 103,
      "chip": "ym2612"
    },
    {
      "channel": 2,
      "note": 63,
      "start": 26.3978,
      "duration": 0.2007,
      "velocity": 123,
      "chip": "ym2612"
    },
    {
      "channel": 5,
      "note": 93,
      "start": 26.4004,
      "duration": 0.1472,
      "velocity": 127,
      "chip": "ym2612"
    },
    {
      "channel": 0,
      "note": 60,
      "start": 26.6039,
      "duration": 0.1463,
      "velocity": 96,
      "chip": "ym2612"
    },
    {
      "channel": 2,
      "note": 75,
      "start": 26.6084,
      "duration": 0.6134,
      "velocity": 123,
      "chip": "ym2612"
    },
    {
      "channel": 5,
      "note": 24,
      "start": 26.6111,
      "duration": 0.0683,
      "velocity": 95,
      "chip": "ym2612"
    },
    {
      "channel": 5,
      "note": 93,
      "start": 26.7091,
      "duration": 0.0729,
      "velocity": 95,
      "chip": "ym2612"
    },
    {
      "channel": 0,
      "note": 59,
      "start": 26.8117,
      "duration": 0.1501,
      "velocity": 96,
      "chip": "ym2612"
    },
    {
      "channel": 4,
      "note": 72,
      "start": 26.8148,
      "duration": 0.1891,
      "velocity": 103,
      "chip": "ym2612"
    },
    {
      "channel": 5,
      "note": 93,
      "start": 26.8179,
      "duration": 0.1467,
      "velocity": 127,
      "chip": "ym2612"
    },
    {
      "channel": 0,
      "note": 60,
      "start": 27.0218,
      "duration": 0.1459,
      "velocity": 96,
      "chip": "ym2612"
    },
    {
      "channel": 3,
      "note": 71,
      "start": 27.0241,
      "duration": 0.0697,
      "velocity": 103,
      "chip": "ym2612"
    },
    {
      "channel": 5,
      "note": 24,
      "start": 27.0288,
      "duration": 0.0673,
      "velocity": 95,
      "chip": "ym2612"
    },
    {
      "channel": 5,
      "note": 93,
      "start": 27.1265,
      "duration": 0.0729,
      "velocity": 95,
      "chip": "ym2612"
    },
    {
      "channel": 0,
      "note": 62,
      "start": 27.2285,
      "duration": 0.145,
      "velocity": 96,
      "chip": "ym2612"
    },
    {
      "channel": 1,
      "note": 72,
      "start": 27.231,
      "duration": 0.1552,
      "velocity": 103,
      "chip": "ym2612"
    },
    {
      "channel": 5,
      "note": 93,
      "start": 27.2349,
      "duration": 0.1415,
      "velocity": 127,
      "chip": "ym2612"
    },
    {
      "channel": 0,
      "note": 55,
      "start": 27.4336,
      "duration": 0.1459,
      "velocity": 96,
      "chip": "ym2612"
    },
    {
      "channel": 4,
      "note": 69,
      "start": 27.4366,
      "duration": 0.1847,
      "velocity": 103,
      "chip": "ym2612"
    },
    {
      "channel": 5,
      "note": 24,
      "start": 27.4405,
      "duration": 0.0683,
      "velocity": 95,
      "chip": "ym2612"
    },
    {
      "channel": 5,
      "note": 93,
      "start": 27.5376,
      "duration": 0.0735,
      "velocity": 95,
      "chip": "ym2612"
    },
    {
      "channel": 0,
      "note": 59,
      "start": 27.6423,
      "duration": 0.1087,
      "velocity": 96,
      "chip": "ym2612"
    },
    {
      "channel": 1,
      "note": 77,
      "start": 27.6455,
      "duration": 0.1867,
      "velocity": 99,
      "chip": "ym2612"
    },
    {
      "channel": 4,
      "note": 74,
      "start": 27.648,
      "duration": 0.1844,
      "velocity": 99,
      "chip": "ym2612"
    },
    {
      "channel": 5,
      "note": 93,
      "start": 27.6511,
      "duration": 0.1426,
      "velocity": 127,
      "chip": "ym2612"
    },
    {
      "channel": 0,
      "note": 55,
      "start": 27.8515,
      "duration": 0.1511,
      "velocity": 96,
      "chip": "ym2612"
    },
    {
      "channel": 1,
      "note": 86,
      "start": 27.8537,
      "duration": 0.0471,
      "velocity": 99,
      "chip": "ym2612"
    },
    {
      "channel": 4,
      "note": 83,
      "start": 27.8551,
      "duration": 0.0459,
      "velocity": 99,
      "chip": "ym2612"
    },
    {
      "channel": 5,
      "note": 24,
      "start": 27.8588,
      "duration": 0.0722,
      "velocity": 95,
      "chip": "ym2612"
    },
    {
      "channel": 5,
      "note": 93,
      "start": 27.9605,
      "duration": 0.0734,
      "velocity": 95,
      "chip": "ym2612"
    },
    {
      "channel": 0,
      "note": 55,
      "start": 28.0627,
      "duration": 0.1457,
      "velocity": 96,
      "chip": "ym2612"
    },
    {
      "channel": 2,
      "note": 63,
      "start": 28.0661,
      "duration": 0.196,
      "velocity": 123,
      "chip": "ym2612"
    },
    {
      "channel": 5,
      "note": 93,
      "start": 28.0687,
      "duration": 0.1421,
      "velocity": 127,
      "chip": "ym2612"
    },
    {
      "channel": 0,
      "note": 59,
      "start": 28.2687,
      "duration": 0.1513,
      "velocity": 96,
      "chip": "ym2612"
    },
    {
      "channel": 3,
      "note": 72,
      "start": 28.2712,
      "duration": 0.2007,
      "velocity": 113,
      "chip": "ym2612"
    },
    {
      "channel": 2,
      "note": 113,
      "start": 28.2748,
      "duration": 0.61,
      "velocity": 123,
      "chip": "ym2612"
    },
    {
      "channel": 5,
      "note": 24,
      "start": 28.2773,
      "duration": 0.0709,
      "velocity": 95,
      "chip": "ym2612"
    },
    {
      "channel": 5,
      "note": 93,
      "start": 28.3778,
      "duration": 0.0734,
      "velocity": 95,
      "chip": "ym2612"
    },
    {
      "channel": 0,
      "note": 62,
      "start": 28.4795,
      "duration": 0.1863,
      "velocity": 96,
      "chip": "ym2612"
    },
    {
      "channel": 3,
      "note": 67,
      "start": 28.4812,
      "duration": 0.1966,
      "velocity": 113,
      "chip": "ym2612"
    },
    {
      "channel": 5,
      "note": 93,
      "start": 28.4854,
      "duration": 0.1432,
      "velocity": 127,
      "chip": "ym2612"
    },
    {
      "channel": 3,
      "note": 65,
      "start": 28.6843,
      "duration": 0.1993,
      "velocity": 113,
      "chip": "ym2612"
    },
    {
      "channel": 5,
      "note": 24,
      "start": 28.6886,
      "duration": 0.0713,
      "velocity": 95,
      "chip": "ym2612"
    },
    {
      "channel": 5,
      "note": 93,
      "start": 28.7901,
      "duration": 0.0728,
      "velocity": 95,
      "chip": "ym2612"
    },
    {
      "channel": 3,
      "note": 64,
      "start": 28.8916,
      "duration": 0.1985,
      "velocity": 113,
      "chip": "ym2612"
    },
    {
      "channel": 2,
      "note": 113,
      "start": 28.8943,
      "duration": 0.8202,
      "velocity": 123,
      "chip": "ym2612"
    },
    {
      "channel": 5,
      "note": 93,
      "start": 28.8969,
      "duration": 0.1439,
      "velocity": 127,
      "chip": "ym2612"
    },
    {
      "channel": 3,
      "note": 60,
      "start": 29.0966,
      "duration": 0.1473,
      "velocity": 113,
      "chip": "ym2612"
    },
    {
      "channel": 5,
      "note": 24,
      "start": 29.1008,
      "duration": 0.0708,
      "velocity": 95,
      "chip": "ym2612"
    },
    {
      "channel": 5,
      "note": 93,
      "start": 29.2012,
      "duration": 0.0742,
      "velocity": 95,
      "chip": "ym2612"
    },
    {
      "channel": 5,
      "note": 93,
      "start": 29.305,
      "duration": 0.1469,
      "velocity": 127,
      "chip": "ym2612"
    },
    {
      "channel": 3,
      "note": 72,
      "start": 29.511,
      "duration": 0.1793,
      "velocity": 113,
      "chip": "ym2612"
    },
    {
      "channel": 1,
      "note": 86,
      "start": 29.5128,
      "duration": 0.1894,
      "velocity": 99,
      "chip": "ym2612"
    },
    {
      "channel": 4,
      "note": 83,
      "start": 29.5142,
      "duration": 0.1881,
      "velocity": 99,
      "chip": "ym2612"
    },
    {
      "channel": 5,
      "note": 24,
      "start": 29.5172,
      "duration": 0.0724,
      "velocity": 95,
      "chip": "ym2612"
    },
    {
      "channel": 5,
      "note": 93,
      "start": 29.6186,
      "duration": 0.0734,
      "velocity": 95,
      "chip": "ym2612"
    },
    {
      "channel": 1,
      "note": 86,
      "start": 29.723,
      "duration": 0.0763,
      "velocity": 99,
      "chip": "ym2612"
    },
    {
      "channel": 4,
      "note": 83,
      "start": 29.7245,
      "duration": 0.0751,
      "velocity": 99,
      "chip": "ym2612"
    },
    {
      "channel": 2,
      "note": 75,
      "start": 29.726,
      "duration": 0.2001,
      "velocity": 123,
      "chip": "ym2612"
    },
    {
      "channel": 5,
      "note": 93,
      "start": 29.7286,
      "duration": 0.1471,
      "velocity": 127,
      "chip": "ym2612"
    },
    {
      "channel": 0,
      "note": 65,
      "start": 29.9326,
      "duration": 0.1913,
      "velocity": 96,
      "chip": "ym2612"
    },
    {
      "channel": 3,
      "note": 67,
      "start": 29.9343,
      "duration": 1.0247,
      "velocity": 113,
      "chip": "ym2612"
    },
    {
      "channel": 2,
      "note": 87,
      "start": 29.937,
      "duration": 0.6123,
      "velocity": 123,
      "chip": "ym2612"
    },
    {
      "channel": 5,
      "note": 24,
      "start": 29.9403,
      "duration": 0.0718,
      "velocity": 95,
      "chip": "ym2612"
    },
    {
      "channel": 5,
      "note": 93,
      "start": 30.0424,
      "duration": 0.0728,
      "velocity": 95,
      "chip": "ym2612"
    },
    {
      "channel": 0,
      "note": 64,
      "start": 30.1432,
      "duration": 0.1866,
      "velocity": 96,
      "chip": "ym2612"
    },
    {
      "channel": 5,
      "note": 93,
      "start": 30.1481,
      "duration": 0.1445,
      "velocity": 127,
      "chip": "ym2612"
    },
    {
      "channel": 0,
      "note": 65,
      "start": 30.3483,
      "duration": 0.1874,
      "velocity": 96,
      "chip": "ym2612"
    },
    {
      "channel": 5,
      "note": 24,
      "start": 30.3532,
      "duration": 0.0715,
      "velocity": 95,
      "chip": "ym2612"
    },
    {
      "channel": 5,
      "note": 93,
      "start": 30.4535,
      "duration": 0.0735,
      "velocity": 95,
      "chip": "ym2612"
    },
    {
      "channel": 0,
      "note": 67,
      "start": 30.5542,
      "duration": 0.1758,
      "velocity": 96,
      "chip": "ym2612"
    },
    {
      "channel": 5,
      "note": 93,
      "start": 30.5598,
      "duration": 0.1445,
      "velocity": 127,
      "chip": "ym2612"
    },
    {
      "channel": 0,
      "note": 60,
      "start": 30.7606,
      "duration": 0.1982,
      "velocity": 96,
      "chip": "ym2612"
    },
    {
      "channel": 5,
      "note": 24,
      "start": 30.7656,
      "duration": 0.0702,
      "velocity": 95,
      "chip": "ym2612"
    },
    {
      "channel": 5,
      "note": 93,
      "start": 30.8652,
      "duration": 0.0735,
      "velocity": 95,
      "chip": "ym2612"
    },
    {
      "channel": 0,
      "note": 64,
      "start": 30.9679,
      "duration": 0.111,
      "velocity": 96,
      "chip": "ym2612"
    },
    {
      "channel": 1,
      "note": 86,
      "start": 30.9703,
      "duration": 0.1899,
      "velocity": 99,
      "chip": "ym2612"
    },
    {
      "channel": 4,
      "note": 83,
      "start": 30.9721,
      "duration": 0.1884,
      "velocity": 99,
      "chip": "ym2612"
    },
    {
      "channel": 5,
      "note": 93,
      "start": 30.9758,
      "duration": 0.1459,
      "velocity": 127,
      "chip": "ym2612"
    },
    {
      "channel": 0,
      "note": 57,
      "start": 31.1801,
      "duration": 0.1505,
      "velocity": 96,
      "chip": "ym2612"
    },
    {
      "channel": 1,
      "note": 88,
      "start": 31.1823,
      "duration": 0.0465,
      "velocity": 99,
      "chip": "ym2612"
    },
    {
      "channel": 4,
      "note": 85,
      "start": 31.1838,
      "duration": 0.0452,
      "velocity": 99,
      "chip": "ym2612"
    },
    {
      "channel": 5,
      "note": 24,
      "start": 31.1868,
      "duration": 0.0725,
      "velocity": 95,
      "chip": "ym2612"
    },
    {
      "channel": 5,
      "note": 93,
      "start": 31.2883,
      "duration": 0.0735,
      "velocity": 95,
      "chip": "ym2612"
    },
    {
      "channel": 0,
      "note": 57,
      "start": 31.3907,
      "duration": 0.1457,
      "velocity": 96,
      "chip": "ym2612"
    },
    {
      "channel": 2,
      "note": 75,
      "start": 31.3941,
      "duration": 0.1966,
      "velocity": 123,
      "chip": "ym2612"
    },
    {
      "channel": 5,
      "note": 93,
      "start": 31.3967,
      "duration": 0.142,
      "velocity": 127,
      "chip": "ym2612"
    },
    {
      "channel": 0,
      "note": 61,
      "start": 31.5973,
      "duration": 0.1506,
      "velocity": 96,
      "chip": "ym2612"
    },
    {
      "channel": 3,
      "note": 64,
      "start": 31.599,
      "duration": 0.201,
      "velocity": 113,
      "chip": "ym2612"
    },
    {
      "channel": 2,
      "note": 113,
      "start": 31.6017,
      "duration": 0.611,
      "velocity": 123,
      "chip": "ym2612"
    },
    {
      "channel": 5,
      "note": 24,
      "start": 31.6042,
      "duration": 0.0719,
      "velocity": 95,
      "chip": "ym2612"
    },
    {
      "channel": 5,
      "note": 93,
      "start": 31.7064,
      "duration": 0.0728,
      "velocity": 95,
      "chip": "ym2612"
    },
    {
      "channel": 0,
      "note": 64,
      "start": 31.8075,
      "duration": 0.1977,
      "velocity": 96,
      "chip": "ym2612"
    },
    {
      "channel": 3,
      "note": 69,
      "start": 31.8091,
      "duration": 0.1963,
      "velocity": 113,
      "chip": "ym2612"
    },
    {
      "channel": 5,
      "note": 93,
      "start": 31.8133,
      "duration": 0.1439,
      "velocity": 127,
      "chip": "ym2612"
    },
    {
      "channel": 3,
      "note": 67,
      "start": 32.0127,
      "duration": 0.1989,
      "velocity": 113,
      "chip": "ym2612"
    },
    {
      "channel": 5,
      "note": 24,
      "start": 32.0168,
      "duration": 0.071,
      "velocity": 95,
      "chip": "ym2612"
    },
    {
      "channel": 5,
      "note": 93,
      "start": 32.1174,
      "duration": 0.0742,
      "velocity": 95,
      "chip": "ym2612"
    },
    {
      "channel": 3,
      "note": 66,
      "start": 32.2189,
      "duration": 0.1985,
      "velocity": 113,
      "chip": "ym2612"
    },
    {
      "channel": 2,
      "note": 113,
      "start": 32.2216,
      "duration": 0.8208,
      "velocity": 123,
      "chip": "ym2612"
    },
    {
      "channel": 5,
      "note": 93,
      "start": 32.2249,
      "duration": 0.1434,
      "velocity": 127,
      "chip": "ym2612"
    },
    {
      "channel": 3,
      "note": 62,
      "start": 32.4245,
      "duration": 0.1473,
      "velocity": 113,
      "chip": "ym2612"
    },
    {
      "channel": 5,
      "note": 24,
      "start": 32.4287,
      "duration": 0.0708,
      "velocity": 95,
      "chip": "ym2612"
    },
    {
      "channel": 5,
      "note": 93,
      "start": 32.5293,
      "duration": 0.0734,
      "velocity": 95,
      "chip": "ym2612"
    },
    {
      "channel": 5,
      "note": 93,
      "start": 32.6332,
      "duration": 0.1467,
      "velocity": 127,
      "chip": "ym2612"
    },
    {
      "channel": 3,
      "note": 74,
      "start": 32.8383,
      "duration": 0.1796,
      "velocity": 113,
      "chip": "ym2612"
    },
    {
      "channel": 1,
      "note": 88,
      "start": 32.8407,
      "duration": 0.1894,
      "velocity": 99,
      "chip": "ym2612"
    },
    {
      "channel": 4,
      "note": 85,
      "start": 32.8422,
      "duration": 0.1881,
      "velocity": 99,
      "chip": "ym2612"
    },
    {
      "channel": 5,
      "note": 24,
      "start": 32.8451,
      "duration": 0.0718,
      "velocity": 95,
      "chip": "ym2612"
    },
    {
      "channel": 5,
      "note": 93,
      "start": 32.9466,
      "duration": 0.0729,
      "velocity": 95,
      "chip": "ym2612"
    },
    {
      "channel": 1,
      "note": 88,
      "start": 33.0503,
      "duration": 0.0771,
      "velocity": 99,
      "chip": "ym2612"
    },
    {
      "channel": 4,
      "note": 85,
      "start": 33.0518,
      "duration": 0.0757,
      "velocity": 99,
      "chip": "ym2612"
    },
    {
      "channel": 2,
      "note": 75,
      "start": 33.0533,
      "duration": 0.2007,
      "velocity": 123,
      "chip": "ym2612"
    },
    {
      "channel": 5,
      "note": 93,
      "start": 33.0565,
      "duration": 0.1465,
      "velocity": 127,
      "chip": "ym2612"
    },
    {
      "channel": 0,
      "note": 69,
      "start": 33.2611,
      "duration": 0.2022,
      "velocity": 96,
      "chip": "ym2612"
    },
    {
      "channel": 3,
      "note": 69,
      "start": 33.2627,
      "duration": 1.0243,
      "velocity": 113,
      "chip": "ym2612"
    },
    {
      "channel": 2,
      "note": 87,
      "start": 33.2654,
      "duration": 0.6119,
      "velocity": 123,
      "chip": "ym2612"
    },
    {
      "channel": 5,
      "note": 24,
      "start": 33.268,
      "duration": 0.0727,
      "velocity": 95,
      "chip": "ym2612"
    },
    {
      "channel": 5,
      "note": 93,
      "start": 33.3697,
      "duration": 0.0735,
      "velocity": 95,
      "chip": "ym2612"
    },
    {
      "channel": 0,
      "note": 69,
      "start": 33.4703,
      "duration": 0.1589,
      "velocity": 96,
      "chip": "ym2612"
    },
    {
      "channel": 5,
      "note": 93,
      "start": 33.4758,
      "duration": 0.1447,
      "velocity": 127,
      "chip": "ym2612"
    },
    {
      "channel": 0,
      "note": 67,
      "start": 33.6769,
      "duration": 0.1868,
      "velocity": 96,
      "chip": "ym2612"
    },
    {
      "channel": 5,
      "note": 24,
      "start": 33.6818,
      "duration": 0.0702,
      "velocity": 95,
      "chip": "ym2612"
    },
    {
      "channel": 5,
      "note": 93,
      "start": 33.7815,
      "duration": 0.0735,
      "velocity": 95,
      "chip": "ym2612"
    },
    {
      "channel": 0,
      "note": 66,
      "start": 33.8831,
      "duration": 0.175,
      "velocity": 96,
      "chip": "ym2612"
    },
    {
      "channel": 2,
      "note": 75,
      "start": 33.8865,
      "duration": 1.6433,
      "velocity": 123,
      "chip": "ym2612"
    },
    {
      "channel": 5,
      "note": 93,
      "start": 33.8898,
      "duration": 0.1424,
      "velocity": 127,
      "chip": "ym2612"
    },
    {
      "channel": 0,
      "note": 64,
      "start": 34.088,
      "duration": 0.1988,
      "velocity": 96,
      "chip": "ym2612"
    },
    {
      "channel": 5,
      "note": 24,
      "start": 34.0936,
      "duration": 0.0702,
      "velocity": 95,
      "chip": "ym2612"
    },
    {
      "channel": 5,
      "note": 93,
      "start": 34.1934,
      "duration": 0.0732,
      "velocity": 95,
      "chip": "ym2612"
    },
    {
      "channel": 5,
      "note": 93,
      "start": 34.2976,
      "duration": 0.1462,
      "velocity": 127,
      "chip": "ym2612"
    },
    {
      "channel": 5,
      "note": 24,
      "start": 34.5029,
      "duration": 0.073,
      "velocity": 95,
      "chip": "ym2612"
    },
    {
      "channel": 5,
      "note": 93,
      "start": 34.6048,
      "duration": 0.0735,
      "velocity": 95,
      "chip": "ym2612"
    },
    {
      "channel": 3,
      "note": 66,
      "start": 34.7089,
      "duration": 0.4075,
      "velocity": 83,
      "chip": "ym2612"
    },
    {
      "channel": 1,
      "note": 88,
      "start": 34.7111,
      "duration": 0.4054,
      "velocity": 83,
      "chip": "ym2612"
    },
    {
      "channel": 4,
      "note": 85,
      "start": 34.7135,
      "duration": 0.4032,
      "velocity": 103,
      "chip": "ym2612"
    },
    {
      "channel": 5,
      "note": 93,
      "start": 34.9193,
      "duration": 0.0735,
      "velocity": 95,
      "chip": "ym2612"
    },
    {
      "channel": 5,
      "note": 93,
      "start": 35.0225,
      "duration": 0.0732,
      "velocity": 95,
      "chip": "ym2612"
    },
    {
      "channel": 3,
      "note": 77,
      "start": 35.124,
      "duration": 0.1468,
      "velocity": 83,
      "chip": "ym2612"
    },
    {
      "channel": 1,
      "note": 89,
      "start": 35.1258,
      "duration": 0.1451,
      "velocity": 83,
      "chip": "ym2612"
    },
    {
      "channel": 4,
      "note": 65,
      "start": 35.1274,
      "duration": 0.1437,
      "velocity": 103,
      "chip": "ym2612"
    },
    {
      "channel": 5,
      "note": 93,
      "start": 35.331,
      "duration": 0.0736,
      "velocity": 95,
      "chip": "ym2612"
    },
    {
      "channel": 5,
      "note": 93,
      "start": 35.4339,
      "duration": 0.0742,
      "velocity": 95,
      "chip": "ym2612"
    },
    {
      "channel": 3,
      "note": 86,
      "start": 35.5363,
      "duration": 0.1976,
      "velocity": 83,
      "chip": "ym2612"
    },
    {
      "channel": 1,
      "note": 74,
      "start": 35.538,
      "duration": 0.1961,
      "velocity": 83,
      "chip": "ym2612"
    },
    {
      "channel": 4,
      "note": 62,
      "start": 35.5403,
      "duration": 0.194,
      "velocity": 103,
      "chip": "ym2612"
    },
    {
      "channel": 3,
      "note": 91,
      "start": 35.7423,
      "duration": 0.198,
      "velocity": 83,
      "chip": "ym2612"
    },
    {
      "channel": 1,
      "note": 79,
      "start": 35.7439,
      "duration": 0.1965,
      "velocity": 83,
      "chip": "ym2612"
    },
    {
      "channel": 4,
      "note": 67,
      "start": 35.7457,
      "duration": 0.195,
      "velocity": 103,
      "chip": "ym2612"
    },
    {
      "channel": 5,
      "note": 93,
      "start": 35.7479,
      "duration": 0.0681,
      "velocity": 95,
      "chip": "ym2612"
    },
    {
      "channel": 5,
      "note": 93,
      "start": 35.8457,
      "duration": 0.0734,
      "velocity": 95,
      "chip": "ym2612"
    },
    {
      "channel": 3,
      "note": 88,
      "start": 35.9473,
      "duration": 0.159,
      "velocity": 83,
      "chip": "ym2612"
    },
    {
      "channel": 1,
      "note": 76,
      "start": 35.949,
      "duration": 0.1574,
      "velocity": 83,
      "chip": "ym2612"
    },
    {
      "channel": 4,
      "note": 64,
      "start": 35.9507,
      "duration": 0.1559,
      "velocity": 103,
      "chip": "ym2612"
    },
    {
      "channel": 3,
      "note": 89,
      "start": 36.1547,
      "duration": 0.1857,
      "velocity": 83,
      "chip": "ym2612"
    },
    {
      "channel": 1,
      "note": 77,
      "start": 36.1571,
      "duration": 0.1834,
      "velocity": 83,
      "chip": "ym2612"
    },
    {
      "channel": 4,
      "note": 65,
      "start": 36.1587,
      "duration": 0.182,
      "velocity": 103,
      "chip": "ym2612"
    },
    {
      "channel": 5,
      "note": 93,
      "start": 36.1609,
      "duration": 0.0668,
      "velocity": 95,
      "chip": "ym2612"
    },
    {
      "channel": 5,
      "note": 93,
      "start": 36.2579,
      "duration": 0.0729,
      "velocity": 95,
      "chip": "ym2612"
    },
    {
      "channel": 3,
      "note": 84,
      "start": 36.3605,
      "duration": 0.146,
      "velocity": 83,
      "chip": "ym2612"
    },
    {
      "channel": 1,
      "note": 72,
      "start": 36.3622,
      "duration": 0.1445,
      "velocity": 83,
      "chip": "ym2612"
    },
    {
      "channel": 4,
      "note": 60,
      "start": 36.3639,
      "duration": 0.1429,
      "velocity": 103,
      "chip": "ym2612"
    },
    {
      "channel": 0,
      "note": 61,
      "start": 36.5641,
      "duration": 0.1872,
      "velocity": 96,
      "chip": "ym2612"
    },
    {
      "channel": 5,
      "note": 93,
      "start": 36.568,
      "duration": 0.0724,
      "velocity": 95,
      "chip": "ym2612"
    },
    {
      "channel": 5,
      "note": 93,
      "start": 36.669,
      "duration": 0.0735,
      "velocity": 95,
      "chip": "ym2612"
    },
    {
      "channel": 0,
      "note": 57,
      "start": 36.7699,
      "duration": 0.1873,
      "velocity": 96,
      "chip": "ym2612"
    },
    {
      "channel": 2,
      "note": 57,
      "start": 36.7739,
      "duration": 0.4027,
      "velocity": 123,
      "chip": "ym2612"
    },
    {
      "channel": 0,
      "note": 60,
      "start": 36.9761,
      "duration": 0.187,
      "velocity": 96,
      "chip": "ym2612"
    },
    {
      "channel": 5,
      "note": 93,
      "start": 36.98,
      "duration": 0.0714,
      "velocity": 95,
      "chip": "ym2612"
    },
    {
      "channel": 5,
      "note": 93,
      "start": 37.0808,
      "duration": 0.0734,
      "velocity": 95,
      "chip": "ym2612"
    },
    {
      "channel": 0,
      "note": 62,
      "start": 37.181,
      "duration": 0.1878,
      "velocity": 96,
      "chip": "ym2612"
    },
    {
      "channel": 0,
      "note": 48,
      "start": 37.3872,
      "duration": 0.1875,
      "velocity": 96,
      "chip": "ym2612"
    },
    {
      "channel": 5,
      "note": 93,
      "start": 37.3917,
      "duration": 0.0714,
      "velocity": 95,
      "chip": "ym2612"
    },
    {
      "channel": 5,
      "note": 93,
      "start": 37.4931,
      "duration": 0.0729,
      "velocity": 95,
      "chip": "ym2612"
    },
    {
      "channel": 0,
      "note": 49,
      "start": 37.5954,
      "duration": 0.1452,
      "velocity": 96,
      "chip": "ym2612"
    },
    {
      "channel": 5,
      "note": 93,
      "start": 37.6002,
      "duration": 0.1427,
      "velocity": 127,
      "chip": "ym2612"
    },
    {
      "channel": 0,
      "note": 50,
      "start": 37.7989,
      "duration": 0.1475,
      "velocity": 96,
      "chip": "ym2612"
    },
    {
      "channel": 5,
      "note": 24,
      "start": 37.8036,
      "duration": 0.0718,
      "velocity": 95,
      "chip": "ym2612"
    },
    {
      "channel": 5,
      "note": 93,
      "start": 37.9041,
      "duration": 0.0735,
      "velocity": 95,
      "chip": "ym2612"
    }
  ]
}