{
  "track_name": "06 - Lava River",
  "duration_sec": 83.317,
  "sample_rate": 44100,
  "note_count": 1520,
  "unique_pitches": 20,
  "pitch_range": 44,
  "avg_note_duration": 0.1092,
  "reconstruction_stats": {
    "notes_reconstructed": 1520,
    "keyon_events": 1520,
    "keyoff_events": 1520,
    "orphan_keyons": 0,
    "unique_pitches": 20,
    "pitch_range": 44,
    "avg_duration_sec": 0.1092
  },
  "metadata": {
    "source": "V\\Vectorman 2\\06 - Lava River.vgz"
  },
  "notes": [
    {
      "channel": 0,
      "note": 45,
      "start": 0.0022,
      "duration": 0.0607,
      "velocity": 107,
      "chip": "ym2612"
    },
    {
      "channel": 1,
      "note": 47,
      "start": 0.0088,
      "duration": 0.1875,
      "velocity": 127,
      "chip": "ym2612"
    },
    {
      "channel": 3,
      "note": 59,
      "start": 0.2183,
      "duration": 0.0946,
      "velocity": 127,
      "chip": "ym2612"
    },
    {
      "channel": 1,
      "note": 47,
      "start": 0.3328,
      "duration": 0.1636,
      "velocity": 127,
      "chip": "ym2612"
    },
    {
      "channel": 0,
      "note": 45,
      "start": 0.4323,
      "duration": 0.064,
      "velocity": 107,
      "chip": "ym2612"
    },
    {
      "channel": 3,
      "note": 59,
      "start": 0.5495,
      "duration": 0.0803,
      "velocity": 127,
      "chip": "ym2612"
    },
    {
      "channel": 1,
      "note": 47,
      "start": 0.65,
      "duration": 0.113,
      "velocity": 127,
      "chip": "ym2612"
    },
    {
      "channel": 0,
      "note": 45,
      "start": 0.866,
      "duration": 0.0636,
      "velocity": 107,
      "chip": "ym2612"
    },
    {
      "channel": 1,
      "note": 47,
      "start": 0.869,
      "duration": 0.194,
      "velocity": 127,
      "chip": "ym2612"
    },
    {
      "channel": 3,
      "note": 59,
      "start": 0.8718,
      "duration": 0.0912,
      "velocity": 127,
      "chip": "ym2612"
    },
    {
      "channel": 3,
      "note": 59,
      "start": 1.0834,
      "duration": 0.0964,
      "velocity": 127,
      "chip": "ym2612"
    },
    {
      "channel": 1,
      "note": 47,
      "start": 1.1995,
      "duration": 0.1636,
      "velocity": 127,
      "chip": "ym2612"
    },
    {
      "channel": 0,
      "note": 45,
      "start": 1.299,
      "duration": 0.064,
      "velocity": 107,
      "chip": "ym2612"
    },
    {
      "channel": 3,
      "note": 59,
      "start": 1.4162,
      "duration": 0.0801,
      "velocity": 127,
      "chip": "ym2612"
    },
    {
      "channel": 1,
      "note": 47,
      "start": 1.5163,
      "duration": 0.0966,
      "velocity": 127,
      "chip": "ym2612"
    },
    {
      "channel": 0,
      "note": 45,
      "start": 1.7323,
      "duration": 0.064,
      "velocity": 107,
      "chip": "ym2612"
    },
    {
      "channel": 1,
      "note": 47,
      "start": 1.7353,
      "duration": 0.1611,
      "velocity": 127,
      "chip": "ym2612"
    },
    {
      "channel": 3,
      "note": 59,
      "start": 1.738,
      "duration": 0.0917,
      "velocity": 127,
      "chip": "ym2612"
    },
    {
      "channel": 3,
      "note": 59,
      "start": 1.9663,
      "duration": 0.08,
      "velocity": 127,
      "chip": "ym2612"
    },
    {
      "channel": 1,
      "note": 47,
      "start": 2.0662,
      "duration": 0.1467,
      "velocity": 127,
      "chip": "ym2612"
    },
    {
      "channel": 0,
      "note": 45,
      "start": 2.1824,
      "duration": 0.0473,
      "velocity": 107,
      "chip": "ym2612"
    },
    {
      "channel": 3,
      "note": 59,
      "start": 2.283,
      "duration": 0.08,
      "velocity": 127,
      "chip": "ym2612"
    },
    {
      "channel": 1,
      "note": 47,
      "start": 2.3995,
      "duration": 0.1303,
      "velocity": 127,
      "chip": "ym2612"
    },
    {
      "channel": 0,
      "note": 45,
      "start": 2.6156,
      "duration": 0.0474,
      "velocity": 107,
      "chip": "ym2612"
    },
    {
      "channel": 1,
      "note": 45,
      "start": 2.6189,
      "duration": 0.3107,
      "velocity": 127,
      "chip": "ym2612"
    },
    {
      "channel": 3,
      "note": 59,
      "start": 2.6216,
      "duration": 0.0747,
      "velocity": 127,
      "chip": "ym2612"
    },
    {
      "channel": 3,
      "note": 59,
      "start": 2.8331,
      "duration": 0.08,
      "velocity": 127,
      "chip": "ym2612"
    },
    {
      "channel": 1,
      "note": 57,
      "start": 2.9328,
      "duration": 0.3303,
      "velocity": 127,
      "chip": "ym2612"
    },
    {
      "channel": 0,
      "note": 45,
      "start": 3.0489,
      "duration": 0.0473,
      "velocity": 107,
      "chip": "ym2612"
    },
    {
      "channel": 3,
      "note": 59,
      "start": 3.1496,
      "duration": 0.0968,
      "velocity": 127,
      "chip": "ym2612"
    },
    {
      "channel": 1,
      "note": 45,
      "start": 3.2664,
      "duration": 0.1466,
      "velocity": 127,
      "chip": "ym2612"
    },
    {
      "channel": 0,
      "note": 45,
      "start": 3.4824,
      "duration": 0.0473,
      "velocity": 107,
      "chip": "ym2612"
    },
    {
      "channel": 1,
      "note": 47,
      "start": 3.4853,
      "duration": 0.1944,
      "velocity": 127,
      "chip": "ym2612"
    },
    {
      "channel": 3,
      "note": 59,
      "start": 3.488,
      "duration": 0.0749,
      "velocity": 127,
      "chip": "ym2612"
    },
    {
      "channel": 3,
      "note": 59,
      "start": 3.7,
      "duration": 0.0797,
      "velocity": 127,
      "chip": "ym2612"
    },
    {
      "channel": 1,
      "note": 47,
      "start": 3.7994,
      "duration": 0.1636,
      "velocity": 127,
      "chip": "ym2612"
    },
    {
      "channel": 0,
      "note": 45,
      "start": 3.9156,
      "duration": 0.0473,
      "velocity": 107,
      "chip": "ym2612"
    },
    {
      "channel": 3,
      "note": 59,
      "start": 4.0162,
      "duration": 0.0969,
      "velocity": 127,
      "chip": "ym2612"
    },
    {
      "channel": 1,
      "note": 47,
      "start": 4.133,
      "duration": 0.0967,
      "velocity": 127,
      "chip": "ym2612"
    },
    {
      "channel": 0,
      "note": 45,
      "start": 4.3489,
      "duration": 0.0473,
      "velocity": 107,
      "chip": "ym2612"
    },
    {
      "channel": 1,
      "note": 47,
      "start": 4.3522,
      "duration": 0.194,
      "velocity": 127,
      "chip": "ym2612"
    },
    {
      "channel": 3,
      "note": 59,
      "start": 4.355,
      "duration": 0.0747,
      "velocity": 127,
      "chip": "ym2612"
    },
    {
      "channel": 3,
      "note": 59,
      "start": 4.5663,
      "duration": 0.0799,
      "velocity": 127,
      "chip": "ym2612"
    },
    {
      "channel": 1,
      "note": 47,
      "start": 4.6661,
      "duration": 0.1637,
      "velocity": 127,
      "chip": "ym2612"
    },
    {
      "channel": 0,
      "note": 45,
      "start": 4.7824,
      "duration": 0.0473,
      "velocity": 107,
      "chip": "ym2612"
    },
    {
      "channel": 3,
      "note": 59,
      "start": 4.8829,
      "duration": 0.0969,
      "velocity": 127,
      "chip": "ym2612"
    },
    {
      "channel": 1,
      "note": 47,
      "start": 4.9997,
      "duration": 0.08,
      "velocity": 127,
      "chip": "ym2612"
    },
    {
      "channel": 0,
      "note": 45,
      "start": 5.2157,
      "duration": 0.0473,
      "velocity": 107,
      "chip": "ym2612"
    },
    {
      "channel": 1,
      "note": 47,
      "start": 5.2186,
      "duration": 0.1611,
      "velocity": 127,
      "chip": "ym2612"
    },
    {
      "channel": 3,
      "note": 59,
      "start": 5.2214,
      "duration": 0.0749,
      "velocity": 127,
      "chip": "ym2612"
    },
    {
      "channel": 3,
      "note": 59,
      "start": 5.433,
      "duration": 0.08,
      "velocity": 127,
      "chip": "ym2612"
    },
    {
      "channel": 1,
      "note": 47,
      "start": 5.5329,
      "duration": 0.1468,
      "velocity": 127,
      "chip": "ym2612"
    },
    {
      "channel": 0,
      "note": 45,
      "start": 5.649,
      "duration": 0.0472,
      "velocity": 107,
      "chip": "ym2612"
    },
    {
      "channel": 3,
      "note": 59,
      "start": 5.7496,
      "duration": 0.0967,
      "velocity": 127,
      "chip": "ym2612"
    },
    {
      "channel": 1,
      "note": 47,
      "start": 5.8661,
      "duration": 0.1302,
      "velocity": 127,
      "chip": "ym2612"
    },
    {
      "channel": 0,
      "note": 45,
      "start": 6.0823,
      "duration": 0.0473,
      "velocity": 107,
      "chip": "ym2612"
    },
    {
      "channel": 1,
      "note": 45,
      "start": 6.0856,
      "duration": 0.3107,
      "velocity": 127,
      "chip": "ym2612"
    },
    {
      "channel": 3,
      "note": 59,
      "start": 6.0884,
      "duration": 0.0746,
      "velocity": 127,
      "chip": "ym2612"
    },
    {
      "channel": 3,
      "note": 59,
      "start": 6.2996,
      "duration": 0.0801,
      "velocity": 127,
      "chip": "ym2612"
    },
    {
      "channel": 1,
      "note": 57,
      "start": 6.3995,
      "duration": 0.3302,
      "velocity": 127,
      "chip": "ym2612"
    },
    {
      "channel": 0,
      "note": 45,
      "start": 6.5156,
      "duration": 0.0473,
      "velocity": 107,
      "chip": "ym2612"
    },
    {
      "channel": 3,
      "note": 59,
      "start": 6.6166,
      "duration": 0.0964,
      "velocity": 127,
      "chip": "ym2612"
    },
    {
      "channel": 1,
      "note": 45,
      "start": 6.7332,
      "duration": 0.1631,
      "velocity": 127,
      "chip": "ym2612"
    },
    {
      "channel": 0,
      "note": 45,
      "start": 6.949,
      "duration": 0.0473,
      "velocity": 107,
      "chip": "ym2612"
    },
    {
      "channel": 1,
      "note": 47,
      "start": 6.9519,
      "duration": 0.1944,
      "velocity": 127,
      "chip": "ym2612"
    },
    {
      "channel": 3,
      "note": 59,
      "start": 6.9547,
      "duration": 0.0749,
      "velocity": 127,
      "chip": "ym2612"
    },
    {
      "channel": 4,
      "note": 71,
      "start": 7.0517,
      "duration": 0.0947,
      "velocity": 127,
      "chip": "ym2612"
    },
    {
      "channel": 2,
      "note": 81,
      "start": 7.1676,
      "duration": 0.0123,
      "velocity": 121,
      "chip": "ym2612"
    },
    {
      "channel": 3,
      "note": 59,
      "start": 7.1704,
      "duration": 0.076,
      "velocity": 127,
      "chip": "ym2612"
    },
    {
      "channel": 1,
      "note": 47,
      "start": 7.2661,
      "duration": 0.1637,
      "velocity": 127,
      "chip": "ym2612"
    },
    {
      "channel": 0,
      "note": 45,
      "start": 7.3824,
      "duration": 0.0472,
      "velocity": 107,
      "chip": "ym2612"
    },
    {
      "channel": 4,
      "note": 71,
      "start": 7.3854,
      "duration": 0.0777,
      "velocity": 127,
      "chip": "ym2612"
    },
    {
      "channel": 3,
      "note": 59,
      "start": 7.483,
      "duration": 0.0968,
      "velocity": 127,
      "chip": "ym2612"
    },
    {
      "channel": 2,
      "note": 81,
      "start": 7.599,
      "duration": 0.0142,
      "velocity": 121,
      "chip": "ym2612"
    },
    {
      "channel": 1,
      "note": 47,
      "start": 7.6019,
      "duration": 0.0944,
      "velocity": 127,
      "chip": "ym2612"
    },
    {
      "channel": 4,
      "note": 71,
      "start": 7.7003,
      "duration": 0.0961,
      "velocity": 127,
      "chip": "ym2612"
    },
    {
      "channel": 0,
      "note": 45,
      "start": 7.816,
      "duration": 0.0469,
      "velocity": 107,
      "chip": "ym2612"
    },
    {
      "channel": 1,
      "note": 47,
      "start": 7.819,
      "duration": 0.194,
      "velocity": 127,
      "chip": "ym2612"
    },
    {
      "channel": 3,
      "note": 59,
      "start": 7.8218,
      "duration": 0.0746,
      "velocity": 127,
      "chip": "ym2612"
    },
    {
      "channel": 4,
      "note": 71,
      "start": 7.9166,
      "duration": 0.0966,
      "velocity": 127,
      "chip": "ym2612"
    },
    {
      "channel": 2,
      "note": 81,
      "start": 8.0323,
      "duration": 0.0141,
      "velocity": 121,
      "chip": "ym2612"
    },
    {
      "channel": 3,
      "note": 59,
      "start": 8.0352,
      "duration": 0.0778,
      "velocity": 127,
      "chip": "ym2612"
    },
    {
      "channel": 1,
      "note": 47,
      "start": 8.1333,
      "duration": 0.163,
      "velocity": 127,
      "chip": "ym2612"
    },
    {
      "channel": 0,
      "note": 45,
      "start": 8.249,
      "duration": 0.0472,
      "velocity": 107,
      "chip": "ym2612"
    },
    {
      "channel": 4,
      "note": 71,
      "start": 8.252,
      "duration": 0.0779,
      "velocity": 127,
      "chip": "ym2612"
    },
    {
      "channel": 3,
      "note": 59,
      "start": 8.3662,
      "duration": 0.0802,
      "velocity": 127,
      "chip": "ym2612"
    },
    {
      "channel": 2,
      "note": 81,
      "start": 8.466,
      "duration": 0.0139,
      "velocity": 121,
      "chip": "ym2612"
    },
    {
      "channel": 1,
      "note": 47,
      "start": 8.4689,
      "duration": 0.0773,
      "velocity": 127,
      "chip": "ym2612"
    },
    {
      "channel": 4,
      "note": 71,
      "start": 8.5832,
      "duration": 0.0798,
      "velocity": 127,
      "chip": "ym2612"
    },
    {
      "channel": 0,
      "note": 45,
      "start": 8.6824,
      "duration": 0.0473,
      "velocity": 107,
      "chip": "ym2612"
    },
    {
      "channel": 1,
      "note": 47,
      "start": 8.6853,
      "duration": 0.161,
      "velocity": 127,
      "chip": "ym2612"
    },
    {
      "channel": 3,
      "note": 59,
      "start": 8.688,
      "duration": 0.0749,
      "velocity": 127,
      "chip": "ym2612"
    },
    {
      "channel": 4,
      "note": 71,
      "start": 8.7999,
      "duration": 0.0798,
      "velocity": 127,
      "chip": "ym2612"
    },
    {
      "channel": 2,
      "note": 81,
      "start": 8.899,
      "duration": 0.0141,
      "velocity": 121,
      "chip": "ym2612"
    },
    {
      "channel": 3,
      "note": 59,
      "start": 8.9019,
      "duration": 0.0778,
      "velocity": 127,
      "chip": "ym2612"
    },
    {
      "channel": 1,
      "note": 47,
      "start": 9.0162,
      "duration": 0.1302,
      "velocity": 127,
      "chip": "ym2612"
    },
    {
      "channel": 0,
      "note": 45,
      "start": 9.1156,
      "duration": 0.0473,
      "velocity": 107,
      "chip": "ym2612"
    },
    {
      "channel": 4,
      "note": 71,
      "start": 9.1186,
      "duration": 0.0777,
      "velocity": 127,
      "chip": "ym2612"
    },
    {
      "channel": 3,
      "note": 59,
      "start": 9.2329,
      "duration": 0.08,
      "velocity": 127,
      "chip": "ym2612"
    },
    {
      "channel": 2,
      "note": 81,
      "start": 9.3324,
      "duration": 0.0141,
      "velocity": 121,
      "chip": "ym2612"
    },
    {
      "channel": 1,
      "note": 47,
      "start": 9.3351,
      "duration": 0.1446,
      "velocity": 127,
      "chip": "ym2612"
    },
    {
      "channel": 4,
      "note": 71,
      "start": 9.4498,
      "duration": 0.08,
      "velocity": 127,
      "chip": "ym2612"
    },
    {
      "channel": 0,
      "note": 45,
      "start": 9.549,
      "duration": 0.0473,
      "velocity": 107,
      "chip": "ym2612"
    },
    {
      "channel": 1,
      "note": 45,
      "start": 9.5519,
      "duration": 0.3277,
      "velocity": 127,
      "chip": "ym2612"
    },
    {
      "channel": 3,
      "note": 59,
      "start": 9.555,
      "duration": 0.0913,
      "velocity": 127,
      "chip": "ym2612"
    },
    {
      "channel": 4,
      "note": 71,
      "start": 9.6666,
      "duration": 0.0798,
      "velocity": 127,
      "chip": "ym2612"
    },
    {
      "channel": 2,
      "note": 81,
      "start": 9.7657,
      "duration": 0.0142,
      "velocity": 121,
      "chip": "ym2612"
    },
    {
      "channel": 3,
      "note": 59,
      "start": 9.7686,
      "duration": 0.0945,
      "velocity": 127,
      "chip": "ym2612"
    },
    {
      "channel": 1,
      "note": 57,
      "start": 9.8828,
      "duration": 0.3134,
      "velocity": 127,
      "chip": "ym2612"
    },
    {
      "channel": 0,
      "note": 45,
      "start": 9.9824,
      "duration": 0.0472,
      "velocity": 107,
      "chip": "ym2612"
    },
    {
      "channel": 4,
      "note": 71,
      "start": 9.9854,
      "duration": 0.0945,
      "velocity": 127,
      "chip": "ym2612"
    },
    {
      "channel": 3,
      "note": 59,
      "start": 10.0996,
      "duration": 0.0802,
      "velocity": 127,
      "chip": "ym2612"
    },
    {
      "channel": 2,
      "note": 81,
      "start": 10.199,
      "duration": 0.0142,
      "velocity": 121,
      "chip": "ym2612"
    },
    {
      "channel": 1,
      "note": 45,
      "start": 10.2022,
      "duration": 0.1607,
      "velocity": 127,
      "chip": "ym2612"
    },
    {
      "channel": 4,
      "note": 71,
      "start": 10.3164,
      "duration": 0.0799,
      "velocity": 127,
      "chip": "ym2612"
    },
    {
      "channel": 0,
      "note": 45,
      "start": 10.4157,
      "duration": 0.0473,
      "velocity": 107,
      "chip": "ym2612"
    },
    {
      "channel": 1,
      "note": 47,
      "start": 10.4186,
      "duration": 0.1943,
      "velocity": 127,
      "chip": "ym2612"
    },
    {
      "channel": 3,
      "note": 59,
      "start": 10.4214,
      "duration": 0.0916,
      "velocity": 127,
      "chip": "ym2612"
    },
    {
      "channel": 4,
      "note": 71,
      "start": 10.5337,
      "duration": 0.0794,
      "velocity": 127,
      "chip": "ym2612"
    },
    {
      "channel": 2,
      "note": 81,
      "start": 10.6323,
      "duration": 0.0141,
      "velocity": 121,
      "chip": "ym2612"
    },
    {
      "channel": 3,
      "note": 59,
      "start": 10.6352,
      "duration": 0.0945,
      "velocity": 127,
      "chip": "ym2612"
    },
    {
      "channel": 1,
      "note": 47,
      "start": 10.7496,
      "duration": 0.1468,
      "velocity": 127,
      "chip": "ym2612"
    },
    {
      "channel": 0,
      "note": 45,
      "start": 10.8489,
      "duration": 0.0473,
      "velocity": 107,
      "chip": "ym2612"
    },
    {
      "channel": 4,
      "note": 71,
      "start": 10.8519,
      "duration": 0.0946,
      "velocity": 127,
      "chip": "ym2612"
    },
    {
      "channel": 3,
      "note": 59,
      "start": 10.9662,
      "duration": 0.0802,
      "velocity": 127,
      "chip": "ym2612"
    },
    {
      "channel": 2,
      "note": 81,
      "start": 11.0656,
      "duration": 0.0143,
      "velocity": 121,
      "chip": "ym2612"
    },
    {
      "channel": 1,
      "note": 47,
      "start": 11.0685,
      "duration": 0.1113,
      "velocity": 127,
      "chip": "ym2612"
    },
    {
      "channel": 4,
      "note": 71,
      "start": 11.1833,
      "duration": 0.0797,
      "velocity": 127,
      "chip": "ym2612"
    },
    {
      "channel": 0,
      "note": 45,
      "start": 11.2824,
      "duration": 0.0473,
      "velocity": 107,
      "chip": "ym2612"
    },
    {
      "channel": 1,
      "note": 47,
      "start": 11.2853,
      "duration": 0.1944,
      "velocity": 127,
      "chip": "ym2612"
    },
    {
      "channel": 3,
      "note": 59,
      "start": 11.288,
      "duration": 0.0917,
      "velocity": 127,
      "chip": "ym2612"
    },
    {
      "channel": 4,
      "note": 71,
      "start": 11.3998,
      "duration": 0.0801,
      "velocity": 127,
      "chip": "ym2612"
    },
    {
      "channel": 2,
      "note": 81,
      "start": 11.499,
      "duration": 0.0141,
      "velocity": 121,
      "chip": "ym2612"
    },
    {
      "channel": 3,
      "note": 59,
      "start": 11.5019,
      "duration": 0.0945,
      "velocity": 127,
      "chip": "ym2612"
    },
    {
      "channel": 1,
      "note": 47,
      "start": 11.6161,
      "duration": 0.1637,
      "velocity": 127,
      "chip": "ym2612"
    },
    {
      "channel": 0,
      "note": 45,
      "start": 11.7156,
      "duration": 0.0641,
      "velocity": 107,
      "chip": "ym2612"
    },
    {
      "channel": 4,
      "note": 71,
      "start": 11.7186,
      "duration": 0.0944,
      "velocity": 127,
      "chip": "ym2612"
    },
    {
      "channel": 3,
      "note": 59,
      "start": 11.8329,
      "duration": 0.08,
      "velocity": 127,
      "chip": "ym2612"
    },
    {
      "channel": 2,
      "note": 81,
      "start": 11.9324,
      "duration": 0.0141,
      "velocity": 121,
      "chip": "ym2612"
    },
    {
      "channel": 1,
      "note": 47,
      "start": 11.9356,
      "duration": 0.0941,
      "velocity": 127,
      "chip": "ym2612"
    },
    {
      "channel": 4,
      "note": 71,
      "start": 12.0498,
      "duration": 0.0799,
      "velocity": 127,
      "chip": "ym2612"
    },
    {
      "channel": 0,
      "note": 45,
      "start": 12.149,
      "duration": 0.0639,
      "velocity": 107,
      "chip": "ym2612"
    },
    {
      "channel": 1,
      "note": 47,
      "start": 12.152,
      "duration": 0.1611,
      "velocity": 127,
      "chip": "ym2612"
    },
    {
      "channel": 3,
      "note": 59,
      "start": 12.1551,
      "duration": 0.0912,
      "velocity": 127,
      "chip": "ym2612"
    },
    {
      "channel": 4,
      "note": 71,
      "start": 12.2665,
      "duration": 0.0799,
      "velocity": 127,
      "chip": "ym2612"
    },
    {
      "channel": 2,
      "note": 81,
      "start": 12.3657,
      "duration": 0.0142,
      "velocity": 121,
      "chip": "ym2612"
    },
    {
      "channel": 3,
      "note": 59,
      "start": 12.3686,
      "duration": 0.0944,
      "velocity": 127,
      "chip": "ym2612"
    },
    {
      "channel": 1,
      "note": 47,
      "start": 12.4829,
      "duration": 0.1469,
      "velocity": 127,
      "chip": "ym2612"
    },
    {
      "channel": 0,
      "note": 45,
      "start": 12.5824,
      "duration": 0.0638,
      "velocity": 107,
      "chip": "ym2612"
    },
    {
      "channel": 4,
      "note": 71,
      "start": 12.5854,
      "duration": 0.0945,
      "velocity": 127,
      "chip": "ym2612"
    },
    {
      "channel": 3,
      "note": 59,
      "start": 12.6996,
      "duration": 0.0802,
      "velocity": 127,
      "chip": "ym2612"
    },
    {
      "channel": 2,
      "note": 81,
      "start": 12.799,
      "duration": 0.0142,
      "velocity": 121,
      "chip": "ym2612"
    },
    {
      "channel": 1,
      "note": 47,
      "start": 12.8017,
      "duration": 0.1446,
      "velocity": 127,
      "chip": "ym2612"
    },
    {
      "channel": 4,
      "note": 71,
      "start": 12.9164,
      "duration": 0.0799,
      "velocity": 127,
      "chip": "ym2612"
    },
    {
      "channel": 0,
      "note": 45,
      "start": 13.0156,
      "duration": 0.064,
      "velocity": 107,
      "chip": "ym2612"
    },
    {
      "channel": 1,
      "note": 45,
      "start": 13.0186,
      "duration": 0.3276,
      "velocity": 127,
      "chip": "ym2612"
    },
    {
      "channel": 3,
      "note": 59,
      "start": 13.0213,
      "duration": 0.0917,
      "velocity": 127,
      "chip": "ym2612"
    },
    {
      "channel": 4,
      "note": 71,
      "start": 13.1336,
      "duration": 0.0795,
      "velocity": 127,
      "chip": "ym2612"
    },
    {
      "channel": 2,
      "note": 81,
      "start": 13.2324,
      "duration": 0.0139,
      "velocity": 121,
      "chip": "ym2612"
    },
    {
      "channel": 3,
      "note": 59,
      "start": 13.2353,
      "duration": 0.0944,
      "velocity": 127,
      "chip": "ym2612"
    },
    {
      "channel": 1,
      "note": 57,
      "start": 13.3494,
      "duration": 0.3136,
      "velocity": 127,
      "chip": "ym2612"
    },
    {
      "channel": 0,
      "note": 45,
      "start": 13.4489,
      "duration": 0.0641,
      "velocity": 107,
      "chip": "ym2612"
    },
    {
      "channel": 4,
      "note": 71,
      "start": 13.4519,
      "duration": 0.0945,
      "velocity": 127,
      "chip": "ym2612"
    },
    {
      "channel": 3,
      "note": 59,
      "start": 13.5662,
      "duration": 0.0801,
      "velocity": 127,
      "chip": "ym2612"
    },
    {
      "channel": 2,
      "note": 81,
      "start": 13.6657,
      "duration": 0.0307,
      "velocity": 121,
      "chip": "ym2612"
    },
    {
      "channel": 1,
      "note": 45,
      "start": 13.6689,
      "duration": 0.1607,
      "velocity": 127,
      "chip": "ym2612"
    },
    {
      "channel": 4,
      "note": 71,
      "start": 13.7833,
      "duration": 0.0798,
      "velocity": 127,
      "chip": "ym2612"
    },
    {
      "channel": 0,
      "note": 45,
      "start": 13.8824,
      "duration": 0.0639,
      "velocity": 107,
      "chip": "ym2612"
    },
    {
      "channel": 1,
      "note": 47,
      "start": 13.8853,
      "duration": 0.1944,
      "velocity": 127,
      "chip": "ym2612"
    },
    {
      "channel": 3,
      "note": 59,
      "start": 13.888,
      "duration": 0.0917,
      "velocity": 127,
      "chip": "ym2612"
    },
    {
      "channel": 4,
      "note": 71,
      "start": 13.9998,
      "duration": 0.0801,
      "velocity": 127,
      "chip": "ym2612"
    },
    {
      "channel": 2,
      "note": 81,
      "start": 14.099,
      "duration": 0.0308,
      "velocity": 121,
      "chip": "ym2612"
    },
    {
      "channel": 3,
      "note": 59,
      "start": 14.1019,
      "duration": 0.0945,
      "velocity": 127,
      "chip": "ym2612"
    },
    {
      "channel": 5,
      "note": 71,
      "start": 14.1066,
      "duration": 0.0899,
      "velocity": 102,
      "chip": "ym2612"
    },
    {
      "channel": 1,
      "note": 47,
      "start": 14.2161,
      "duration": 0.1637,
      "velocity": 127,
      "chip": "ym2612"
    },
    {
      "channel": 0,
      "note": 45,
      "start": 14.3157,
      "duration": 0.064,
      "velocity": 107,
      "chip": "ym2612"
    },
    {
      "channel": 4,
      "note": 71,
      "start": 14.3186,
      "duration": 0.0944,
      "velocity": 127,
      "chip": "ym2612"
    },
    {
      "channel": 2,
      "note": 59,
      "start": 14.3234,
      "duration": 0.0899,
      "velocity": 102,
      "chip": "ym2612"
    },
    {
      "channel": 3,
      "note": 59,
      "start": 14.433,
      "duration": 0.08,
      "velocity": 127,
      "chip": "ym2612"
    },
    {
      "channel": 5,
      "note": 71,
      "start": 14.4378,
      "duration": 0.0753,
      "velocity": 102,
      "chip": "ym2612"
    },
    {
      "channel": 2,
      "note": 81,
      "start": 14.5324,
      "duration": 0.0307,
      "velocity": 121,
      "chip": "ym2612"
    },
    {
      "channel": 1,
      "note": 47,
      "start": 14.5353,
      "duration": 0.1111,
      "velocity": 127,
      "chip": "ym2612"
    },
    {
      "channel": 0,
      "note": 71,
      "start": 14.5388,
      "duration": 0.174,
      "velocity": 102,
      "chip": "ym2612"
    },
    {
      "channel": 4,
      "note": 71,
      "start": 14.65,
      "duration": 0.0798,
      "velocity": 127,
      "chip": "ym2612"
    },
    {
      "channel": 3,
      "note": 45,
      "start": 14.7662,
      "duration": 0.0468,
      "velocity": 107,
      "chip": "ym2612"
    },
    {
      "channel": 1,
      "note": 47,
      "start": 14.7692,
      "duration": 0.1771,
      "velocity": 127,
      "chip": "ym2612"
    },
    {
      "channel": 5,
      "note": 59,
      "start": 14.7722,
      "duration": 0.0742,
      "velocity": 127,
      "chip": "ym2612"
    },
    {
      "channel": 0,
      "note": 59,
      "start": 14.7749,
      "duration": 0.5548,
      "velocity": 102,
      "chip": "ym2612"
    },
    {
      "channel": 2,
      "note": 59,
      "start": 14.7778,
      "duration": 0.0688,
      "velocity": 102,
      "chip": "ym2612"
    },
    {
      "channel": 4,
      "note": 71,
      "start": 14.8665,
      "duration": 0.08,
      "velocity": 127,
      "chip": "ym2612"
    },
    {
      "channel": 3,
      "note": 71,
      "start": 14.8695,
      "duration": 0.0768,
      "velocity": 102,
      "chip": "ym2612"
    },
    {
      "channel": 2,
      "note": 81,
      "start": 14.9824,
      "duration": 0.0141,
      "velocity": 121,
      "chip": "ym2612"
    },
    {
      "channel": 5,
      "note": 59,
      "start": 14.9858,
      "duration": 0.0774,
      "velocity": 127,
      "chip": "ym2612"
    },
    {
      "channel": 1,
      "note": 47,
      "start": 14.9892,
      "duration": 0.0738,
      "velocity": 102,
      "chip": "ym2612"
    },
    {
      "channel": 3,
      "note": 47,
      "start": 15.0831,
      "duration": 0.1632,
      "velocity": 127,
      "chip": "ym2612"
    },
    {
      "channel": 4,
      "note": 59,
      "start": 15.0867,
      "duration": 0.0763,
      "velocity": 102,
      "chip": "ym2612"
    },
    {
      "channel": 2,
      "note": 45,
      "start": 15.1993,
      "duration": 0.0473,
      "velocity": 107,
      "chip": "ym2612"
    },
    {
      "channel": 1,
      "note": 71,
      "start": 15.2023,
      "duration": 0.0774,
      "velocity": 127,
      "chip": "ym2612"
    },
    {
      "channel": 5,
      "note": 59,
      "start": 15.2996,
      "duration": 0.0802,
      "velocity": 127,
      "chip": "ym2612"
    },
    {
      "channel": 2,
      "note": 81,
      "start": 15.416,
      "duration": 0.014,
      "velocity": 121,
      "chip": "ym2612"
    },
    {
      "channel": 3,
      "note": 47,
      "start": 15.4192,
      "duration": 0.0772,
      "velocity": 127,
      "chip": "ym2612"
    },
    {
      "channel": 0,
      "note": 71,
      "start": 15.4222,
      "duration": 0.0742,
      "velocity": 102,
      "chip": "ym2612"
    },
    {
      "channel": 1,
      "note": 71,
      "start": 15.5163,
      "duration": 0.0798,
      "velocity": 127,
      "chip": "ym2612"
    },
    {
      "channel": 4,
      "note": 45,
      "start": 15.6327,
      "duration": 0.0472,
      "velocity": 107,
      "chip": "ym2612"
    },
    {
      "channel": 3,
      "note": 47,
      "start": 15.6356,
      "duration": 0.1441,
      "velocity": 127,
      "chip": "ym2612"
    },
    {
      "channel": 5,
      "note": 59,
      "start": 15.6385,
      "duration": 0.0747,
      "velocity": 127,
      "chip": "ym2612"
    },
    {
      "channel": 2,
      "note": 59,
      "start": 15.6415,
      "duration": 0.0718,
      "velocity": 102,
      "chip": "ym2612"
    },
    {
      "channel": 1,
      "note": 71,
      "start": 15.7332,
      "duration": 0.0967,
      "velocity": 127,
      "chip": "ym2612"
    },
    {
      "channel": 0,
      "note": 71,
      "start": 15.7362,
      "duration": 0.0934,
      "velocity": 102,
      "chip": "ym2612"
    },
    {
      "channel": 2,
      "note": 81,
      "start": 15.8489,
      "duration": 0.0143,
      "velocity": 121,
      "chip": "ym2612"
    },
    {
      "channel": 5,
      "note": 59,
      "start": 15.8519,
      "duration": 0.078,
      "velocity": 127,
      "chip": "ym2612"
    },
    {
      "channel": 4,
      "note": 71,
      "start": 15.8547,
      "duration": 0.0751,
      "velocity": 102,
      "chip": "ym2612"
    },
    {
      "channel": 3,
      "note": 47,
      "start": 15.9495,
      "duration": 0.1469,
      "velocity": 127,
      "chip": "ym2612"
    },
    {
      "channel": 0,
      "note": 45,
      "start": 16.0659,
      "duration": 0.047,
      "velocity": 107,
      "chip": "ym2612"
    },
    {
      "channel": 1,
      "note": 71,
      "start": 16.0691,
      "duration": 0.0772,
      "velocity": 127,
      "chip": "ym2612"
    },
    {
      "channel": 2,
      "note": 59,
      "start": 16.0719,
      "duration": 0.0747,
      "velocity": 102,
      "chip": "ym2612"
    },
    {
      "channel": 5,
      "note": 59,
      "start": 16.1663,
      "duration": 0.0968,
      "velocity": 127,
      "chip": "ym2612"
    },
    {
      "channel": 4,
      "note": 71,
      "start": 16.1693,
      "duration": 0.0937,
      "velocity": 102,
      "chip": "ym2612"
    },
    {
      "channel": 2,
      "note": 81,
      "start": 16.2824,
      "duration": 0.0141,
      "velocity": 121,
      "chip": "ym2612"
    },
    {
      "channel": 3,
      "note": 47,
      "start": 16.2851,
      "duration": 0.1279,
      "velocity": 127,
      "chip": "ym2612"
    },
    {
      "channel": 0,
      "note": 71,
      "start": 16.2883,
      "duration": 0.1579,
      "velocity": 102,
      "chip": "ym2612"
    },
    {
      "channel": 1,
      "note": 71,
      "start": 16.3831,
      "duration": 0.0966,
      "velocity": 127,
      "chip": "ym2612"
    },
    {
      "channel": 4,
      "note": 45,
      "start": 16.4992,
      "duration": 0.0471,
      "velocity": 107,
      "chip": "ym2612"
    },
    {
      "channel": 3,
      "note": 45,
      "start": 16.5022,
      "duration": 0.3108,
      "velocity": 127,
      "chip": "ym2612"
    },
    {
      "channel": 5,
      "note": 59,
      "start": 16.505,
      "duration": 0.0749,
      "velocity": 127,
      "chip": "ym2612"
    },
    {
      "channel": 0,
      "note": 59,
      "start": 16.5078,
      "duration": 0.4383,
      "velocity": 102,
      "chip": "ym2612"
    },
    {
      "channel": 2,
      "note": 59,
      "start": 16.5107,
      "duration": 0.0693,
      "velocity": 102,
      "chip": "ym2612"
    },
    {
      "channel": 1,
      "note": 71,
      "start": 16.5998,
      "duration": 0.0965,
      "velocity": 127,
      "chip": "ym2612"
    },
    {
      "channel": 4,
      "note": 71,
      "start": 16.6027,
      "duration": 0.0937,
      "velocity": 102,
      "chip": "ym2612"
    },
    {
      "channel": 2,
      "note": 81,
      "start": 16.7157,
      "duration": 0.0143,
      "velocity": 121,
      "chip": "ym2612"
    },
    {
      "channel": 5,
      "note": 59,
      "start": 16.7186,
      "duration": 0.0779,
      "velocity": 127,
      "chip": "ym2612"
    },
    {
      "channel": 1,
      "note": 47,
      "start": 16.7216,
      "duration": 0.0748,
      "velocity": 102,
      "chip": "ym2612"
    },
    {
      "channel": 3,
      "note": 57,
      "start": 16.8162,
      "duration": 0.3302,
      "velocity": 127,
      "chip": "ym2612"
    },
    {
      "channel": 4,
      "note": 59,
      "start": 16.8193,
      "duration": 0.0938,
      "velocity": 102,
      "chip": "ym2612"
    },
    {
      "channel": 2,
      "note": 45,
      "start": 16.9328,
      "duration": 0.0472,
      "velocity": 107,
      "chip": "ym2612"
    },
    {
      "channel": 1,
      "note": 71,
      "start": 16.9358,
      "duration": 0.0772,
      "velocity": 127,
      "chip": "ym2612"
    },
    {
      "channel": 5,
      "note": 57,
      "start": 16.9391,
      "duration": 0.1908,
      "velocity": 102,
      "chip": "ym2612"
    },
    {
      "channel": 4,
      "note": 59,
      "start": 17.0331,
      "duration": 0.0968,
      "velocity": 127,
      "chip": "ym2612"
    },
    {
      "channel": 2,
      "note": 81,
      "start": 17.149,
      "duration": 0.0141,
      "velocity": 121,
      "chip": "ym2612"
    },
    {
      "channel": 3,
      "note": 45,
      "start": 17.152,
      "duration": 0.1444,
      "velocity": 127,
      "chip": "ym2612"
    },
    {
      "channel": 0,
      "note": 45,
      "start": 17.1551,
      "duration": 0.0746,
      "velocity": 102,
      "chip": "ym2612"
    },
    {
      "channel": 1,
      "note": 71,
      "start": 17.2498,
      "duration": 0.0964,
      "velocity": 127,
      "chip": "ym2612"
    },
    {
      "channel": 4,
      "note": 57,
      "start": 17.2528,
      "duration": 0.0936,
      "velocity": 102,
      "chip": "ym2612"
    },
    {
      "channel": 5,
      "note": 45,
      "start": 17.3659,
      "duration": 0.0472,
      "velocity": 107,
      "chip": "ym2612"
    },
    {
      "channel": 3,
      "note": 47,
      "start": 17.3692,
      "duration": 0.1939,
      "velocity": 127,
      "chip": "ym2612"
    },
    {
      "channel": 2,
      "note": 59,
      "start": 17.3722,
      "duration": 0.0742,
      "velocity": 127,
      "chip": "ym2612"
    },
    {
      "channel": 1,
      "note": 71,
      "start": 17.4664,
      "duration": 0.0965,
      "velocity": 127,
      "chip": "ym2612"
    },
    {
      "channel": 2,
      "note": 81,
      "start": 17.5824,
      "duration": 0.014,
      "velocity": 121,
      "chip": "ym2612"
    },
    {
      "channel": 0,
      "note": 59,
      "start": 17.5858,
      "duration": 0.0772,
      "velocity": 127,
      "chip": "ym2612"
    },
    {
      "channel": 4,
      "note": 71,
      "start": 17.5889,
      "duration": 0.0743,
      "velocity": 102,
      "chip": "ym2612"
    },
    {
      "channel": 3,
      "note": 47,
      "start": 17.683,
      "duration": 0.1634,
      "velocity": 127,
      "chip": "ym2612"
    },
    {
      "channel": 5,
      "note": 45,
      "start": 17.7993,
      "duration": 0.0473,
      "velocity": 107,
      "chip": "ym2612"
    },
    {
      "channel": 1,
      "note": 71,
      "start": 17.8021,
      "duration": 0.0776,
      "velocity": 127,
      "chip": "ym2612"
    },
    {
      "channel": 2,
      "note": 59,
      "start": 17.805,
      "duration": 0.0749,
      "velocity": 102,
      "chip": "ym2612"
    },
    {
      "channel": 0,
      "note": 59,
      "start": 17.8994,
      "duration": 0.0969,
      "velocity": 127,
      "chip": "ym2612"
    },
    {
      "channel": 4,
      "note": 71,
      "start": 17.9026,
      "duration": 0.0939,
      "velocity": 102,
      "chip": "ym2612"
    },
    {
      "channel": 2,
      "note": 81,
      "start": 18.0157,
      "duration": 0.0142,
      "velocity": 121,
      "chip": "ym2612"
    },
    {
      "channel": 3,
      "note": 47,
      "start": 18.0186,
      "duration": 0.0944,
      "velocity": 127,
      "chip": "ym2612"
    },
    {
      "channel": 5,
      "note": 71,
      "start": 18.0218,
      "duration": 0.1747,
      "velocity": 102,
      "chip": "ym2612"
    },
    {
      "channel": 1,
      "note": 71,
      "start": 18.1165,
      "duration": 0.0964,
      "velocity": 127,
      "chip": "ym2612"
    },
    {
      "channel": 0,
      "note": 45,
      "start": 18.2327,
      "duration": 0.047,
      "velocity": 107,
      "chip": "ym2612"
    },
    {
      "channel": 3,
      "note": 47,
      "start": 18.2357,
      "duration": 0.1943,
      "velocity": 127,
      "chip": "ym2612"
    },
    {
      "channel": 4,
      "note": 59,
      "start": 18.2386,
      "duration": 0.0744,
      "velocity": 127,
      "chip": "ym2612"
    },
    {
      "channel": 5,
      "note": 59,
      "start": 18.2416,
      "duration": 0.5549,
      "velocity": 102,
      "chip": "ym2612"
    },
    {
      "channel": 2,
      "note": 59,
      "start": 18.2444,
      "duration": 0.0688,
      "velocity": 102,
      "chip": "ym2612"
    },
    {
      "channel": 1,
      "note": 71,
      "start": 18.3332,
      "duration": 0.0966,
      "velocity": 127,
      "chip": "ym2612"
    },
    {
      "channel": 0,
      "note": 71,
      "start": 18.3362,
      "duration": 0.0934,
      "velocity": 102,
      "chip": "ym2612"
    },
    {
      "channel": 2,
      "note": 81,
      "start": 18.449,
      "duration": 0.0141,
      "velocity": 121,
      "chip": "ym2612"
    },
    {
      "channel": 4,
      "note": 59,
      "start": 18.452,
      "duration": 0.0778,
      "velocity": 127,
      "chip": "ym2612"
    },
    {
      "channel": 0,
      "note": 47,
      "start": 18.4554,
      "duration": 0.0742,
      "velocity": 102,
      "chip": "ym2612"
    },
    {
      "channel": 3,
      "note": 47,
      "start": 18.5496,
      "duration": 0.1634,
      "velocity": 127,
      "chip": "ym2612"
    },
    {
      "channel": 1,
      "note": 59,
      "start": 18.5532,
      "duration": 0.0931,
      "velocity": 102,
      "chip": "ym2612"
    },
    {
      "channel": 2,
      "note": 45,
      "start": 18.6659,
      "duration": 0.0473,
      "velocity": 107,
      "chip": "ym2612"
    },
    {
      "channel": 0,
      "note": 71,
      "start": 18.669,
      "duration": 0.0773,
      "velocity": 127,
      "chip": "ym2612"
    },
    {
      "channel": 4,
      "note": 59,
      "start": 18.7662,
      "duration": 0.0968,
      "velocity": 127,
      "chip": "ym2612"
    },
    {
      "channel": 2,
      "note": 81,
      "start": 18.8824,
      "duration": 0.014,
      "velocity": 121,
      "chip": "ym2612"
    },
    {
      "channel": 3,
      "note": 47,
      "start": 18.8853,
      "duration": 0.0778,
      "velocity": 127,
      "chip": "ym2612"
    },
    {
      "channel": 5,
      "note": 71,
      "start": 18.8884,
      "duration": 0.0748,
      "velocity": 102,
      "chip": "ym2612"
    },
    {
      "channel": 0,
      "note": 71,
      "start": 18.9835,
      "duration": 0.0962,
      "velocity": 127,
      "chip": "ym2612"
    },
    {
      "channel": 1,
      "note": 45,
      "start": 19.0993,
      "duration": 0.0471,
      "velocity": 107,
      "chip": "ym2612"
    },
    {
      "channel": 3,
      "note": 47,
      "start": 19.1026,
      "duration": 0.1604,
      "velocity": 127,
      "chip": "ym2612"
    },
    {
      "channel": 4,
      "note": 59,
      "start": 19.1054,
      "duration": 0.0744,
      "velocity": 127,
      "chip": "ym2612"
    },
    {
      "channel": 2,
      "note": 59,
      "start": 19.1085,
      "duration": 0.0715,
      "velocity": 102,
      "chip": "ym2612"
    },
    {
      "channel": 0,
      "note": 71,
      "start": 19.1998,
      "duration": 0.0965,
      "velocity": 127,
      "chip": "ym2612"
    },
    {
      "channel": 5,
      "note": 71,
      "start": 19.2028,
      "duration": 0.0938,
      "velocity": 102,
      "chip": "ym2612"
    },
    {
      "channel": 2,
      "note": 81,
      "start": 19.3157,
      "duration": 0.0141,
      "velocity": 121,
      "chip": "ym2612"
    },
    {
      "channel": 4,
      "note": 59,
      "start": 19.3186,
      "duration": 0.0778,
      "velocity": 127,
      "chip": "ym2612"
    },
    {
      "channel": 1,
      "note": 71,
      "start": 19.3214,
      "duration": 0.0749,
      "velocity": 102,
      "chip": "ym2612"
    },
    {
      "channel": 3,
      "note": 47,
      "start": 19.4162,
      "duration": 0.1468,
      "velocity": 127,
      "chip": "ym2612"
    },
    {
      "channel": 0,
      "note": 45,
      "start": 19.5326,
      "duration": 0.0471,
      "velocity": 107,
      "chip": "ym2612"
    },
    {
      "channel": 5,
      "note": 71,
      "start": 19.5357,
      "duration": 0.0775,
      "velocity": 127,
      "chip": "ym2612"
    },
    {
      "channel": 2,
      "note": 59,
      "start": 19.5384,
      "duration": 0.0749,
      "velocity": 102,
      "chip": "ym2612"
    },
    {
      "channel": 4,
      "note": 59,
      "start": 19.633,
      "duration": 0.0968,
      "velocity": 127,
      "chip": "ym2612"
    },
    {
      "channel": 1,
      "note": 71,
      "start": 19.636,
      "duration": 0.0937,
      "velocity": 102,
      "chip": "ym2612"
    },
    {
      "channel": 2,
      "note": 81,
      "start": 19.749,
      "duration": 0.0141,
      "velocity": 121,
      "chip": "ym2612"
    },
    {
      "channel": 3,
      "note": 47,
      "start": 19.7517,
      "duration": 0.1447,
      "velocity": 127,
      "chip": "ym2612"
    },
    {
      "channel": 0,
      "note": 71,
      "start": 19.7553,
      "duration": 0.1743,
      "velocity": 102,
      "chip": "ym2612"
    },
    {
      "channel": 5,
      "note": 71,
      "start": 19.85,
      "duration": 0.0964,
      "velocity": 127,
      "chip": "ym2612"
    },
    {
      "channel": 1,
      "note": 45,
      "start": 19.9659,
      "duration": 0.047,
      "velocity": 107,
      "chip": "ym2612"
    },
    {
      "channel": 3,
      "note": 45,
      "start": 19.9689,
      "duration": 0.3109,
      "velocity": 127,
      "chip": "ym2612"
    },
    {
      "channel": 4,
      "note": 59,
      "start": 19.9717,
      "duration": 0.0747,
      "velocity": 127,
      "chip": "ym2612"
    },
    {
      "channel": 0,
      "note": 59,
      "start": 19.9745,
      "duration": 0.4383,
      "velocity": 102,
      "chip": "ym2612"
    },
    {
      "channel": 2,
      "note": 59,
      "start": 19.9774,
      "duration": 0.0693,
      "velocity": 102,
      "chip": "ym2612"
    },
    {
      "channel": 5,
      "note": 71,
      "start": 20.0665,
      "duration": 0.0967,
      "velocity": 127,
      "chip": "ym2612"
    },
    {
      "channel": 1,
      "note": 71,
      "start": 20.0695,
      "duration": 0.0934,
      "velocity": 102,
      "chip": "ym2612"
    },
    {
      "channel": 2,
      "note": 81,
      "start": 20.1824,
      "duration": 0.0141,
      "velocity": 121,
      "chip": "ym2612"
    },
    {
      "channel": 4,
      "note": 59,
      "start": 20.1853,
      "duration": 0.0779,
      "velocity": 127,
      "chip": "ym2612"
    },
    {
      "channel": 1,
      "note": 47,
      "start": 20.1883,
      "duration": 0.0747,
      "velocity": 102,
      "chip": "ym2612"
    },
    {
      "channel": 3,
      "note": 57,
      "start": 20.2829,
      "duration": 0.3302,
      "velocity": 127,
      "chip": "ym2612"
    },
    {
      "channel": 5,
      "note": 59,
      "start": 20.2861,
      "duration": 0.0936,
      "velocity": 102,
      "chip": "ym2612"
    },
    {
      "channel": 2,
      "note": 45,
      "start": 20.3994,
      "duration": 0.0471,
      "velocity": 107,
      "chip": "ym2612"
    },
    {
      "channel": 1,
      "note": 71,
      "start": 20.4024,
      "duration": 0.0773,
      "velocity": 127,
      "chip": "ym2612"
    },
    {
      "channel": 4,
      "note": 57,
      "start": 20.4054,
      "duration": 0.1911,
      "velocity": 102,
      "chip": "ym2612"
    },
    {
      "channel": 5,
      "note": 59,
      "start": 20.5001,
      "duration": 0.0965,
      "velocity": 127,
      "chip": "ym2612"
    },
    {
      "channel": 2,
      "note": 81,
      "start": 20.6158,
      "duration": 0.0141,
      "velocity": 121,
      "chip": "ym2612"
    },
    {
      "channel": 3,
      "note": 45,
      "start": 20.6187,
      "duration": 0.161,
      "velocity": 127,
      "chip": "ym2612"
    },
    {
      "channel": 0,
      "note": 45,
      "start": 20.6218,
      "duration": 0.0744,
      "velocity": 102,
      "chip": "ym2612"
    },
    {
      "channel": 1,
      "note": 71,
      "start": 20.7165,
      "duration": 0.0964,
      "velocity": 127,
      "chip": "ym2612"
    },
    {
      "channel": 4,
      "note": 57,
      "start": 20.7195,
      "duration": 0.0936,
      "velocity": 102,
      "chip": "ym2612"
    },
    {
      "channel": 5,
      "note": 45,
      "start": 20.8327,
      "duration": 0.0472,
      "velocity": 107,
      "chip": "ym2612"
    },
    {
      "channel": 3,
      "note": 47,
      "start": 20.8356,
      "duration": 0.1942,
      "velocity": 127,
      "chip": "ym2612"
    },
    {
      "channel": 2,
      "note": 71,
      "start": 20.8386,
      "duration": 0.0745,
      "velocity": 127,
      "chip": "ym2612"
    },
    {
      "channel": 1,
      "note": 83,
      "start": 20.9332,
      "duration": 0.0966,
      "velocity": 127,
      "chip": "ym2612"
    },
    {
      "channel": 2,
      "note": 81,
      "start": 21.049,
      "duration": 0.0141,
      "velocity": 121,
      "chip": "ym2612"
    },
    {
      "channel": 0,
      "note": 71,
      "start": 21.0521,
      "duration": 0.0776,
      "velocity": 127,
      "chip": "ym2612"
    },
    {
      "channel": 4,
      "note": 59,
      "start": 21.0552,
      "duration": 0.0747,
      "velocity": 102,
      "chip": "ym2612"
    },
    {
      "channel": 3,
      "note": 47,
      "start": 21.1666,
      "duration": 0.1464,
      "velocity": 127,
      "chip": "ym2612"
    },
    {
      "channel": 5,
      "note": 45,
      "start": 21.2659,
      "duration": 0.0473,
      "velocity": 107,
      "chip": "ym2612"
    },
    {
      "channel": 1,
      "note": 83,
      "start": 21.2687,
      "duration": 0.0776,
      "velocity": 127,
      "chip": "ym2612"
    },
    {
      "channel": 2,
      "note": 59,
      "start": 21.2717,
      "duration": 0.0749,
      "velocity": 102,
      "chip": "ym2612"
    },
    {
      "channel": 0,
      "note": 71,
      "start": 21.3828,
      "duration": 0.0802,
      "velocity": 127,
      "chip": "ym2612"
    },
    {
      "channel": 4,
      "note": 59,
      "start": 21.386,
      "duration": 0.0772,
      "velocity": 102,
      "chip": "ym2612"
    },
    {
      "channel": 2,
      "note": 81,
      "start": 21.4824,
      "duration": 0.0141,
      "velocity": 121,
      "chip": "ym2612"
    },
    {
      "channel": 3,
      "note": 47,
      "start": 21.4853,
      "duration": 0.111,
      "velocity": 127,
      "chip": "ym2612"
    },
    {
      "channel": 5,
      "note": 59,
      "start": 21.4886,
      "duration": 0.1746,
      "velocity": 102,
      "chip": "ym2612"
    },
    {
      "channel": 1,
      "note": 83,
      "start": 21.6002,
      "duration": 0.0795,
      "velocity": 127,
      "chip": "ym2612"
    },
    {
      "channel": 0,
      "note": 45,
      "start": 21.6996,
      "duration": 0.0467,
      "velocity": 107,
      "chip": "ym2612"
    },
    {
      "channel": 3,
      "note": 47,
      "start": 21.7026,
      "duration": 0.1939,
      "velocity": 127,
      "chip": "ym2612"
    },
    {
      "channel": 4,
      "note": 71,
      "start": 21.7055,
      "duration": 0.0744,
      "velocity": 127,
      "chip": "ym2612"
    },
    {
      "channel": 5,
      "note": 47,
      "start": 21.7085,
      "duration": 0.5713,
      "velocity": 102,
      "chip": "ym2612"
    },
    {
      "channel": 2,
      "note": 59,
      "start": 21.7113,
      "duration": 0.0687,
      "velocity": 102,
      "chip": "ym2612"
    },
    {
      "channel": 1,
      "note": 83,
      "start": 21.8163,
      "duration": 0.08,
      "velocity": 127,
      "chip": "ym2612"
    },
    {
      "channel": 0,
      "note": 59,
      "start": 21.8194,
      "duration": 0.0768,
      "velocity": 102,
      "chip": "ym2612"
    },
    {
      "channel": 2,
      "note": 81,
      "start": 21.9157,
      "duration": 0.0142,
      "velocity": 121,
      "chip": "ym2612"
    },
    {
      "channel": 4,
      "note": 71,
      "start": 21.9186,
      "duration": 0.0778,
      "velocity": 127,
      "chip": "ym2612"
    },
    {
      "channel": 0,
      "note": 47,
      "start": 21.9216,
      "duration": 0.0746,
      "velocity": 102,
      "chip": "ym2612"
    },
    {
      "channel": 3,
      "note": 47,
      "start": 22.033,
      "duration": 0.1468,
      "velocity": 127,
      "chip": "ym2612"
    },
    {
      "channel": 1,
      "note": 47,
      "start": 22.0362,
      "duration": 0.0768,
      "velocity": 102,
      "chip": "ym2612"
    },
    {
      "channel": 2,
      "note": 45,
      "start": 22.1327,
      "duration": 0.0473,
      "velocity": 107,
      "chip": "ym2612"
    },
    {
      "channel": 0,
      "note": 83,
      "start": 22.1358,
      "duration": 0.0939,
      "velocity": 127,
      "chip": "ym2612"
    },
    {
      "channel": 4,
      "note": 71,
      "start": 22.2496,
      "duration": 0.0802,
      "velocity": 127,
      "chip": "ym2612"
    },
    {
      "channel": 2,
      "note": 81,
      "start": 22.3496,
      "duration": 0.0135,
      "velocity": 121,
      "chip": "ym2612"
    },
    {
      "channel": 3,
      "note": 47,
      "start": 22.3525,
      "duration": 0.0938,
      "velocity": 127,
      "chip": "ym2612"
    },
    {
      "channel": 5,
      "note": 59,
      "start": 22.356,
      "duration": 0.0905,
      "velocity": 102,
      "chip": "ym2612"
    },
    {
      "channel": 0,
      "note": 83,
      "start": 22.4663,
      "duration": 0.0799,
      "velocity": 127,
      "chip": "ym2612"
    },
    {
      "channel": 1,
      "note": 45,
      "start": 22.566,
      "duration": 0.047,
      "velocity": 107,
      "chip": "ym2612"
    },
    {
      "channel": 3,
      "note": 47,
      "start": 22.569,
      "duration": 0.1608,
      "velocity": 127,
      "chip": "ym2612"
    },
    {
      "channel": 4,
      "note": 71,
      "start": 22.5718,
      "duration": 0.0913,
      "velocity": 127,
      "chip": "ym2612"
    },
    {
      "channel": 2,
      "note": 59,
      "start": 22.5752,
      "duration": 0.088,
      "velocity": 102,
      "chip": "ym2612"
    },
    {
      "channel": 0,
      "note": 83,
      "start": 22.6831,
      "duration": 0.0799,
      "velocity": 127,
      "chip": "ym2612"
    },
    {
      "channel": 5,
      "note": 59,
      "start": 22.6865,
      "duration": 0.0768,
      "velocity": 102,
      "chip": "ym2612"
    },
    {
      "channel": 2,
      "note": 81,
      "start": 22.7824,
      "duration": 0.014,
      "velocity": 121,
      "chip": "ym2612"
    },
    {
      "channel": 4,
      "note": 71,
      "start": 22.7854,
      "duration": 0.0945,
      "velocity": 127,
      "chip": "ym2612"
    },
    {
      "channel": 1,
      "note": 59,
      "start": 22.7881,
      "duration": 0.0916,
      "velocity": 102,
      "chip": "ym2612"
    },
    {
      "channel": 3,
      "note": 47,
      "start": 22.9001,
      "duration": 0.1297,
      "velocity": 127,
      "chip": "ym2612"
    },
    {
      "channel": 0,
      "note": 45,
      "start": 22.9993,
      "duration": 0.0469,
      "velocity": 107,
      "chip": "ym2612"
    },
    {
      "channel": 5,
      "note": 83,
      "start": 23.0024,
      "duration": 0.094,
      "velocity": 127,
      "chip": "ym2612"
    },
    {
      "channel": 2,
      "note": 59,
      "start": 23.0051,
      "duration": 0.0914,
      "velocity": 102,
      "chip": "ym2612"
    },
    {
      "channel": 4,
      "note": 71,
      "start": 23.1162,
      "duration": 0.0803,
      "velocity": 127,
      "chip": "ym2612"
    },
    {
      "channel": 1,
      "note": 59,
      "start": 23.1192,
      "duration": 0.0772,
      "velocity": 102,
      "chip": "ym2612"
    },
    {
      "channel": 2,
      "note": 81,
      "start": 23.2156,
      "duration": 0.0143,
      "velocity": 121,
      "chip": "ym2612"
    },
    {
      "channel": 3,
      "note": 47,
      "start": 23.2183,
      "duration": 0.1447,
      "velocity": 127,
      "chip": "ym2612"
    },
    {
      "channel": 0,
      "note": 59,
      "start": 23.2216,
      "duration": 0.1748,
      "velocity": 102,
      "chip": "ym2612"
    },
    {
      "channel": 5,
      "note": 83,
      "start": 23.3332,
      "duration": 0.0799,
      "velocity": 127,
      "chip": "ym2612"
    },
    {
      "channel": 1,
      "note": 45,
      "start": 23.4327,
      "duration": 0.047,
      "velocity": 107,
      "chip": "ym2612"
    },
    {
      "channel": 3,
      "note": 45,
      "start": 23.4357,
      "duration": 0.3274,
      "velocity": 127,
      "chip": "ym2612"
    },
    {
      "channel": 4,
      "note": 71,
      "start": 23.4389,
      "duration": 0.0909,
      "velocity": 127,
      "chip": "ym2612"
    },
    {
      "channel": 0,
      "note": 47,
      "start": 23.4417,
      "duration": 0.4379,
      "velocity": 102,
      "chip": "ym2612"
    },
    {
      "channel": 2,
      "note": 59,
      "start": 23.4445,
      "duration": 0.0854,
      "velocity": 102,
      "chip": "ym2612"
    },
    {
      "channel": 5,
      "note": 83,
      "start": 23.55,
      "duration": 0.08,
      "velocity": 127,
      "chip": "ym2612"
    },
    {
      "channel": 1,
      "note": 59,
      "start": 23.5529,
      "duration": 0.0768,
      "velocity": 102,
      "chip": "ym2612"
    },
    {
      "channel": 2,
      "note": 81,
      "start": 23.649,
      "duration": 0.0141,
      "velocity": 121,
      "chip": "ym2612"
    },
    {
      "channel": 4,
      "note": 71,
      "start": 23.652,
      "duration": 0.0945,
      "velocity": 127,
      "chip": "ym2612"
    },
    {
      "channel": 1,
      "note": 47,
      "start": 23.655,
      "duration": 0.0913,
      "velocity": 102,
      "chip": "ym2612"
    },
    {
      "channel": 3,
      "note": 57,
      "start": 23.7662,
      "duration": 0.3136,
      "velocity": 127,
      "chip": "ym2612"
    },
    {
      "channel": 5,
      "note": 47,
      "start": 23.7694,
      "duration": 0.077,
      "velocity": 102,
      "chip": "ym2612"
    },
    {
      "channel": 2,
      "note": 45,
      "start": 23.866,
      "duration": 0.0472,
      "velocity": 107,
      "chip": "ym2612"
    },
    {
      "channel": 1,
      "note": 83,
      "start": 23.869,
      "duration": 0.0939,
      "velocity": 127,
      "chip": "ym2612"
    },
    {
      "channel": 4,
      "note": 45,
      "start": 23.872,
      "duration": 0.1912,
      "velocity": 102,
      "chip": "ym2612"
    },
    {
      "channel": 5,
      "note": 71,
      "start": 23.9831,
      "duration": 0.0802,
      "velocity": 127,
      "chip": "ym2612"
    },
    {
      "channel": 2,
      "note": 81,
      "start": 24.0825,
      "duration": 0.014,
      "velocity": 121,
      "chip": "ym2612"
    },
    {
      "channel": 3,
      "note": 45,
      "start": 24.0854,
      "duration": 0.161,
      "velocity": 127,
      "chip": "ym2612"
    },
    {
      "channel": 0,
      "note": 45,
      "start": 24.0886,
      "duration": 0.0911,
      "velocity": 102,
      "chip": "ym2612"
    },
    {
      "channel": 1,
      "note": 83,
      "start": 24.1997,
      "duration": 0.08,
      "velocity": 127,
      "chip": "ym2612"
    },
    {
      "channel": 4,
      "note": 45,
      "start": 24.2027,
      "duration": 0.0771,
      "velocity": 102,
      "chip": "ym2612"
    },
    {
      "channel": 5,
      "note": 45,
      "start": 24.2993,
      "duration": 0.0638,
      "velocity": 107,
      "chip": "ym2612"
    },
    {
      "channel": 3,
      "note": 47,
      "start": 24.3022,
      "duration": 0.1941,
      "velocity": 127,
      "chip": "ym2612"
    },
    {
      "channel": 2,
      "note": 71,
      "start": 24.3052,
      "duration": 0.0913,
      "velocity": 127,
      "chip": "ym2612"
    },
    {
      "channel": 1,
      "note": 83,
      "start": 24.4168,
      "duration": 0.0795,
      "velocity": 127,
      "chip": "ym2612"
    },
    {
      "channel": 2,
      "note": 81,
      "start": 24.5157,
      "duration": 0.0142,
      "velocity": 121,
      "chip": "ym2612"
    },
    {
      "channel": 0,
      "note": 71,
      "start": 24.5186,
      "duration": 0.0944,
      "velocity": 127,
      "chip": "ym2612"
    },
    {
      "channel": 4,
      "note": 59,
      "start": 24.5218,
      "duration": 0.0914,
      "velocity": 102,
      "chip": "ym2612"
    },
    {
      "channel": 3,
      "note": 47,
      "start": 24.633,
      "duration": 0.1633,
      "velocity": 127,
      "chip": "ym2612"
    },
    {
      "channel": 5,
      "note": 45,
      "start": 24.7327,
      "duration": 0.0638,
      "velocity": 107,
      "chip": "ym2612"
    },
    {
      "channel": 1,
      "note": 83,
      "start": 24.7355,
      "duration": 0.0941,
      "velocity": 127,
      "chip": "ym2612"
    },
    {
      "channel": 2,
      "note": 59,
      "start": 24.7385,
      "duration": 0.0914,
      "velocity": 102,
      "chip": "ym2612"
    },
    {
      "channel": 0,
      "note": 71,
      "start": 24.8494,
      "duration": 0.0802,
      "velocity": 127,
      "chip": "ym2612"
    },
    {
      "channel": 4,
      "note": 59,
      "start": 24.8526,
      "duration": 0.0773,
      "velocity": 102,
      "chip": "ym2612"
    },
    {
      "channel": 2,
      "note": 81,
      "start": 24.949,
      "duration": 0.0142,
      "velocity": 121,
      "chip": "ym2612"
    },
    {
      "channel": 3,
      "note": 47,
      "start": 24.9523,
      "duration": 0.1107,
      "velocity": 127,
      "chip": "ym2612"
    },
    {
      "channel": 5,
      "note": 59,
      "start": 24.9559,
      "duration": 0.1739,
      "velocity": 102,
      "chip": "ym2612"
    },
    {
      "channel": 1,
      "note": 83,
      "start": 25.0664,
      "duration": 0.0798,
      "velocity": 127,
      "chip": "ym2612"
    },
    {
      "channel": 0,
      "note": 45,
      "start": 25.1659,
      "duration": 0.0637,
      "velocity": 107,
      "chip": "ym2612"
    },
    {
      "channel": 3,
      "note": 47,
      "start": 25.1689,
      "duration": 0.1943,
      "velocity": 127,
      "chip": "ym2612"
    },
    {
      "channel": 4,
      "note": 71,
      "start": 25.1718,
      "duration": 0.0912,
      "velocity": 127,
      "chip": "ym2612"
    },
    {
      "channel": 5,
      "note": 47,
      "start": 25.1749,
      "duration": 0.5716,
      "velocity": 102,
      "chip": "ym2612"
    },
    {
      "channel": 2,
      "note": 59,
      "start": 25.1777,
      "duration": 0.0856,
      "velocity": 102,
      "chip": "ym2612"
    },
    {
      "channel": 1,
      "note": 83,
      "start": 25.2832,
      "duration": 0.0799,
      "velocity": 127,
      "chip": "ym2612"
    },
    {
      "channel": 0,
      "note": 59,
      "start": 25.2861,
      "duration": 0.0768,
      "velocity": 102,
      "chip": "ym2612"
    },
    {
      "channel": 2,
      "note": 81,
      "start": 25.3824,
      "duration": 0.014,
      "velocity": 121,
      "chip": "ym2612"
    },
    {
      "channel": 4,
      "note": 71,
      "start": 25.3854,
      "duration": 0.0945,
      "velocity": 127,
      "chip": "ym2612"
    },
    {
      "channel": 0,
      "note": 47,
      "start": 25.3884,
      "duration": 0.0912,
      "velocity": 102,
      "chip": "ym2612"
    },
    {
      "channel": 3,
      "note": 47,
      "start": 25.4996,
      "duration": 0.1634,
      "velocity": 127,
      "chip": "ym2612"
    },
    {
      "channel": 1,
      "note": 47,
      "start": 25.5028,
      "duration": 0.0768,
      "velocity": 102,
      "chip": "ym2612"
    },
    {
      "channel": 2,
      "note": 45,
      "start": 25.5994,
      "duration": 0.0638,
      "velocity": 107,
      "chip": "ym2612"
    },
    {
      "channel": 0,
      "note": 83,
      "start": 25.6024,
      "duration": 0.0938,
      "velocity": 127,
      "chip": "ym2612"
    },
    {
      "channel": 4,
      "note": 71,
      "start": 25.7163,
      "duration": 0.0801,
      "velocity": 127,
      "chip": "ym2612"
    },
    {
      "channel": 2,
      "note": 81,
      "start": 25.8157,
      "duration": 0.0142,
      "velocity": 121,
      "chip": "ym2612"
    },
    {
      "channel": 3,
      "note": 47,
      "start": 25.8185,
      "duration": 0.0945,
      "velocity": 127,
      "chip": "ym2612"
    },
    {
      "channel": 5,
      "note": 59,
      "start": 25.8216,
      "duration": 0.0915,
      "velocity": 102,
      "chip": "ym2612"
    },
    {
      "channel": 0,
      "note": 83,
      "start": 25.9331,
      "duration": 0.0799,
      "velocity": 127,
      "chip": "ym2612"
    },
    {
      "channel": 1,
      "note": 45,
      "start": 26.0327,
      "duration": 0.0637,
      "velocity": 107,
      "chip": "ym2612"
    },
    {
      "channel": 3,
      "note": 47,
      "start": 26.0356,
      "duration": 0.1607,
      "velocity": 127,
      "chip": "ym2612"
    },
    {
      "channel": 4,
      "note": 71,
      "start": 26.0388,
      "duration": 0.091,
      "velocity": 127,
      "chip": "ym2612"
    },
    {
      "channel": 2,
      "note": 59,
      "start": 26.0422,
      "duration": 0.0877,
      "velocity": 102,
      "chip": "ym2612"
    },
    {
      "channel": 0,
      "note": 83,
      "start": 26.1498,
      "duration": 0.08,
      "velocity": 127,
      "chip": "ym2612"
    },
    {
      "channel": 5,
      "note": 59,
      "start": 26.1531,
      "duration": 0.0768,
      "velocity": 102,
      "chip": "ym2612"
    },
    {
      "channel": 2,
      "note": 81,
      "start": 26.249,
      "duration": 0.0142,
      "velocity": 121,
      "chip": "ym2612"
    },
    {
      "channel": 4,
      "note": 71,
      "start": 26.2519,
      "duration": 0.0945,
      "velocity": 127,
      "chip": "ym2612"
    },
    {
      "channel": 1,
      "note": 59,
      "start": 26.2546,
      "duration": 0.0916,
      "velocity": 102,
      "chip": "ym2612"
    },
    {
      "channel": 3,
      "note": 47,
      "start": 26.3662,
      "duration": 0.1468,
      "velocity": 127,
      "chip": "ym2612"
    },
    {
      "channel": 0,
      "note": 45,
      "start": 26.466,
      "duration": 0.0637,
      "velocity": 107,
      "chip": "ym2612"
    },
    {
      "channel": 5,
      "note": 83,
      "start": 26.4691,
      "duration": 0.094,
      "velocity": 127,
      "chip": "ym2612"
    },
    {
      "channel": 2,
      "note": 59,
      "start": 26.4718,
      "duration": 0.0914,
      "velocity": 102,
      "chip": "ym2612"
    },
    {
      "channel": 4,
      "note": 71,
      "start": 26.583,
      "duration": 0.0801,
      "velocity": 127,
      "chip": "ym2612"
    },
    {
      "channel": 1,
      "note": 59,
      "start": 26.5859,
      "duration": 0.0771,
      "velocity": 102,
      "chip": "ym2612"
    },
    {
      "channel": 2,
      "note": 81,
      "start": 26.6824,
      "duration": 0.0308,
      "velocity": 121,
      "chip": "ym2612"
    },
    {
      "channel": 3,
      "note": 47,
      "start": 26.6854,
      "duration": 0.1443,
      "velocity": 127,
      "chip": "ym2612"
    },
    {
      "channel": 0,
      "note": 59,
      "start": 26.6887,
      "duration": 0.1743,
      "velocity": 102,
      "chip": "ym2612"
    },
    {
      "channel": 5,
      "note": 83,
      "start": 26.7999,
      "duration": 0.08,
      "velocity": 127,
      "chip": "ym2612"
    },
    {
      "channel": 1,
      "note": 45,
      "start": 26.8993,
      "duration": 0.0637,
      "velocity": 107,
      "chip": "ym2612"
    },
    {
      "channel": 3,
      "note": 45,
      "start": 26.9022,
      "duration": 0.3275,
      "velocity": 127,
      "chip": "ym2612"
    },
    {
      "channel": 4,
      "note": 71,
      "start": 26.905,
      "duration": 0.0914,
      "velocity": 127,
      "chip": "ym2612"
    },
    {
      "channel": 0,
      "note": 47,
      "start": 26.9078,
      "duration": 0.4551,
      "velocity": 102,
      "chip": "ym2612"
    },
    {
      "channel": 2,
      "note": 59,
      "start": 26.9106,
      "duration": 0.086,
      "velocity": 102,
      "chip": "ym2612"
    },
    {
      "channel": 5,
      "note": 83,
      "start": 27.0169,
      "duration": 0.0797,
      "velocity": 127,
      "chip": "ym2612"
    },
    {
      "channel": 1,
      "note": 59,
      "start": 27.0199,
      "duration": 0.0765,
      "velocity": 102,
      "chip": "ym2612"
    },
    {
      "channel": 2,
      "note": 81,
      "start": 27.1158,
      "duration": 0.0307,
      "velocity": 121,
      "chip": "ym2612"
    },
    {
      "channel": 4,
      "note": 71,
      "start": 27.1186,
      "duration": 0.0945,
      "velocity": 127,
      "chip": "ym2612"
    },
    {
      "channel": 1,
      "note": 47,
      "start": 27.1216,
      "duration": 0.0914,
      "velocity": 102,
      "chip": "ym2612"
    },
    {
      "channel": 3,
      "note": 57,
      "start": 27.2329,
      "duration": 0.33,
      "velocity": 127,
      "chip": "ym2612"
    },
    {
      "channel": 5,
      "note": 47,
      "start": 27.2361,
      "duration": 0.0769,
      "velocity": 102,
      "chip": "ym2612"
    },
    {
      "channel": 2,
      "note": 45,
      "start": 27.333,
      "duration": 0.0635,
      "velocity": 107,
      "chip": "ym2612"
    },
    {
      "channel": 1,
      "note": 83,
      "start": 27.3361,
      "duration": 0.0936,
      "velocity": 127,
      "chip": "ym2612"
    },
    {
      "channel": 4,
      "note": 45,
      "start": 27.3394,
      "duration": 0.1905,
      "velocity": 102,
      "chip": "ym2612"
    },
    {
      "channel": 5,
      "note": 71,
      "start": 27.4497,
      "duration": 0.0803,
      "velocity": 127,
      "chip": "ym2612"
    },
    {
      "channel": 2,
      "note": 81,
      "start": 27.566,
      "duration": 0.014,
      "velocity": 121,
      "chip": "ym2612"
    },
    {
      "channel": 3,
      "note": 45,
      "start": 27.5689,
      "duration": 0.1441,
      "velocity": 127,
      "chip": "ym2612"
    },
    {
      "channel": 0,
      "note": 45,
      "start": 27.572,
      "duration": 0.0742,
      "velocity": 102,
      "chip": "ym2612"
    },
    {
      "channel": 1,
      "note": 83,
      "start": 27.6663,
      "duration": 0.08,
      "velocity": 127,
      "chip": "ym2612"
    },
    {
      "channel": 4,
      "note": 45,
      "start": 27.6694,
      "duration": 0.077,
      "velocity": 102,
      "chip": "ym2612"
    },
    {
      "channel": 3,
      "note": 43,
      "start": 27.7831,
      "duration": 0.18,
      "velocity": 127,
      "chip": "ym2612"
    },
    {
      "channel": 5,
      "note": 55,
      "start": 27.786,
      "duration": 0.0772,
      "velocity": 127,
      "chip": "ym2612"
    },
    {
      "channel": 2,
      "note": 55,
      "start": 27.7912,
      "duration": 2.5554,
      "velocity": 124,
      "chip": "ym2612"
    },
    {
      "channel": 1,
      "note": 67,
      "start": 27.8831,
      "duration": 0.0799,
      "velocity": 127,
      "chip": "ym2612"
    },
    {
      "channel": 5,
      "note": 55,
      "start": 27.9998,
      "duration": 0.0802,
      "velocity": 127,
      "chip": "ym2612"
    },
    {
      "channel": 0,
      "note": 67,
      "start": 28.0028,
      "duration": 0.0769,
      "velocity": 102,
      "chip": "ym2612"
    },
    {
      "channel": 3,
      "note": 43,
      "start": 28.0996,
      "duration": 0.1635,
      "velocity": 127,
      "chip": "ym2612"
    },
    {
      "channel": 1,
      "note": 67,
      "start": 28.2162,
      "duration": 0.08,
      "velocity": 127,
      "chip": "ym2612"
    },
    {
      "channel": 4,
      "note": 55,
      "start": 28.2191,
      "duration": 0.0773,
      "velocity": 102,
      "chip": "ym2612"
    },
    {
      "channel": 5,
      "note": 55,
      "start": 28.3163,
      "duration": 0.0802,
      "velocity": 127,
      "chip": "ym2612"
    },
    {
      "channel": 0,
      "note": 67,
      "start": 28.3194,
      "duration": 0.0768,
      "velocity": 102,
      "chip": "ym2612"
    },
    {
      "channel": 3,
      "note": 43,
      "start": 28.4335,
      "duration": 0.0963,
      "velocity": 127,
      "chip": "ym2612"
    },
    {
      "channel": 1,
      "note": 67,
      "start": 28.4366,
      "duration": 0.1596,
      "velocity": 102,
      "chip": "ym2612"
    },
    {
      "channel": 4,
      "note": 67,
      "start": 28.5335,
      "duration": 0.0964,
      "velocity": 127,
      "chip": "ym2612"
    },
    {
      "channel": 3,
      "note": 43,
      "start": 28.6497,
      "duration": 0.1968,
      "velocity": 127,
      "chip": "ym2612"
    },
    {
      "channel": 5,
      "note": 55,
      "start": 28.6526,
      "duration": 0.0773,
      "velocity": 127,
      "chip": "ym2612"
    },
    {
      "channel": 1,
      "note": 55,
      "start": 28.6554,
      "duration": 0.5576,
      "velocity": 102,
      "chip": "ym2612"
    },
    {
      "channel": 0,
      "note": 55,
      "start": 28.6582,
      "duration": 0.0715,
      "velocity": 102,
      "chip": "ym2612"
    },
    {
      "channel": 4,
      "note": 67,
      "start": 28.7499,
      "duration": 0.0967,
      "velocity": 127,
      "chip": "ym2612"
    },
    {
      "channel": 0,
      "note": 67,
      "start": 28.7529,
      "duration": 0.0934,
      "velocity": 102,
      "chip": "ym2612"
    },
    {
      "channel": 5,
      "note": 55,
      "start": 28.8668,
      "duration": 0.0797,
      "velocity": 127,
      "chip": "ym2612"
    },
    {
      "channel": 0,
      "note": 43,
      "start": 28.8698,
      "duration": 0.0765,
      "velocity": 102,
      "chip": "ym2612"
    },
    {
      "channel": 3,
      "note": 43,
      "start": 28.9662,
      "duration": 0.1635,
      "velocity": 127,
      "chip": "ym2612"
    },
    {
      "channel": 4,
      "note": 55,
      "start": 28.9695,
      "duration": 0.0936,
      "velocity": 102,
      "chip": "ym2612"
    },
    {
      "channel": 0,
      "note": 67,
      "start": 29.0832,
      "duration": 0.0798,
      "velocity": 127,
      "chip": "ym2612"
    },
    {
      "channel": 5,
      "note": 55,
      "start": 29.183,
      "duration": 0.0969,
      "velocity": 127,
      "chip": "ym2612"
    },
    {
      "channel": 3,
      "note": 43,
      "start": 29.2998,
      "duration": 0.08,
      "velocity": 127,
      "chip": "ym2612"
    },
    {
      "channel": 1,
      "note": 67,
      "start": 29.3027,
      "duration": 0.0769,
      "velocity": 102,
      "chip": "ym2612"
    },
    {
      "channel": 0,
      "note": 67,
      "start": 29.3997,
      "duration": 0.0966,
      "velocity": 127,
      "chip": "ym2612"
    },
    {
      "channel": 3,
      "note": 43,
      "start": 29.5163,
      "duration": 0.1467,
      "velocity": 127,
      "chip": "ym2612"
    },
    {
      "channel": 5,
      "note": 55,
      "start": 29.5192,
      "duration": 0.0773,
      "velocity": 127,
      "chip": "ym2612"
    },
    {
      "channel": 4,
      "note": 55,
      "start": 29.5222,
      "duration": 0.0741,
      "velocity": 102,
      "chip": "ym2612"
    },
    {
      "channel": 0,
      "note": 67,
      "start": 29.6163,
      "duration": 0.0966,
      "velocity": 127,
      "chip": "ym2612"
    },
    {
      "channel": 1,
      "note": 67,
      "start": 29.6193,
      "duration": 0.0937,
      "velocity": 102,
      "chip": "ym2612"
    },
    {
      "channel": 5,
      "note": 55,
      "start": 29.7332,
      "duration": 0.08,
      "velocity": 127,
      "chip": "ym2612"
    },
    {
      "channel": 4,
      "note": 67,
      "start": 29.736,
      "duration": 0.0771,
      "velocity": 102,
      "chip": "ym2612"
    },
    {
      "channel": 3,
      "note": 43,
      "start": 29.8329,
      "duration": 0.1469,
      "velocity": 127,
      "chip": "ym2612"
    },
    {
      "channel": 0,
      "note": 67,
      "start": 29.95,
      "duration": 0.0797,
      "velocity": 127,
      "chip": "ym2612"
    },
    {
      "channel": 1,
      "note": 55,
      "start": 29.9531,
      "duration": 0.0767,
      "velocity": 102,
      "chip": "ym2612"
    },
    {
      "channel": 5,
      "note": 55,
      "start": 30.0497,
      "duration": 0.0968,
      "velocity": 127,
      "chip": "ym2612"
    },
    {
      "channel": 4,
      "note": 67,
      "start": 30.0531,
      "duration": 0.0933,
      "velocity": 102,
      "chip": "ym2612"
    },
    {
      "channel": 3,
      "note": 43,
      "start": 30.1662,
      "duration": 0.1302,
      "velocity": 127,
      "chip": "ym2612"
    },
    {
      "channel": 0,
      "note": 67,
      "start": 30.1697,
      "duration": 0.1765,
      "velocity": 102,
      "chip": "ym2612"
    },
    {
      "channel": 1,
      "note": 67,
      "start": 30.2666,
      "duration": 0.0964,
      "velocity": 127,
      "chip": "ym2612"
    },
    {
      "channel": 3,
      "note": 41,
      "start": 30.3835,
      "duration": 0.3129,
      "velocity": 127,
      "chip": "ym2612"
    },
    {
      "channel": 5,
      "note": 55,
      "start": 30.3864,
      "duration": 0.0768,
      "velocity": 127,
      "chip": "ym2612"
    },
    {
      "channel": 0,
      "note": 55,
      "start": 30.3892,
      "duration": 0.4404,
      "velocity": 102,
      "chip": "ym2612"
    },
    {
      "channel": 4,
      "note": 55,
      "start": 30.392,
      "duration": 0.0711,
      "velocity": 102,
      "chip": "ym2612"
    },
    {
      "channel": 1,
      "note": 67,
      "start": 30.4832,
      "duration": 0.0966,
      "velocity": 127,
      "chip": "ym2612"
    },
    {
      "channel": 2,
      "note": 67,
      "start": 30.4862,
      "duration": 0.0938,
      "velocity": 102,
      "chip": "ym2612"
    },
    {
      "channel": 5,
      "note": 55,
      "start": 30.5998,
      "duration": 0.0802,
      "velocity": 127,
      "chip": "ym2612"
    },
    {
      "channel": 4,
      "note": 43,
      "start": 30.6026,
      "duration": 0.0771,
      "velocity": 102,
      "chip": "ym2612"
    },
    {
      "channel": 3,
      "note": 53,
      "start": 30.6995,
      "duration": 0.3303,
      "velocity": 127,
      "chip": "ym2612"
    },
    {
      "channel": 2,
      "note": 55,
      "start": 30.7027,
      "duration": 0.0938,
      "velocity": 102,
      "chip": "ym2612"
    },
    {
      "channel": 1,
      "note": 67,
      "start": 30.8162,
      "duration": 0.0801,
      "velocity": 127,
      "chip": "ym2612"
    },
    {
      "channel": 4,
      "note": 53,
      "start": 30.8192,
      "duration": 0.1939,
      "velocity": 102,
      "chip": "ym2612"
    },
    {
      "channel": 5,
      "note": 55,
      "start": 30.9162,
      "duration": 0.097,
      "velocity": 127,
      "chip": "ym2612"
    },
    {
      "channel": 3,
      "note": 41,
      "start": 31.0332,
      "duration": 0.1632,
      "velocity": 127,
      "chip": "ym2612"
    },
    {
      "channel": 2,
      "note": 41,
      "start": 31.0364,
      "duration": 0.0768,
      "velocity": 102,
      "chip": "ym2612"
    },
    {
      "channel": 1,
      "note": 67,
      "start": 31.1332,
      "duration": 0.0966,
      "velocity": 127,
      "chip": "ym2612"
    },
    {
      "channel": 0,
      "note": 53,
      "start": 31.1363,
      "duration": 0.0934,
      "velocity": 102,
      "chip": "ym2612"
    },
    {
      "channel": 3,
      "note": 43,
      "start": 31.2498,
      "duration": 0.1968,
      "velocity": 127,
      "chip": "ym2612"
    },
    {
      "channel": 5,
      "note": 55,
      "start": 31.2526,
      "duration": 0.0772,
      "velocity": 127,
      "chip": "ym2612"
    },
    {
      "channel": 1,
      "note": 67,
      "start": 31.3497,
      "duration": 0.0966,
      "velocity": 127,
      "chip": "ym2612"
    },
    {
      "channel": 5,
      "note": 55,
      "start": 31.4669,
      "duration": 0.0796,
      "velocity": 127,
      "chip": "ym2612"
    },
    {
      "channel": 4,
      "note": 67,
      "start": 31.4699,
      "duration": 0.0765,
      "velocity": 102,
      "chip": "ym2612"
    },
    {
      "channel": 3,
      "note": 43,
      "start": 31.5662,
      "duration": 0.1635,
      "velocity": 127,
      "chip": "ym2612"
    },
    {
      "channel": 1,
      "note": 67,
      "start": 31.683,
      "duration": 0.0799,
      "velocity": 127,
      "chip": "ym2612"
    },
    {
      "channel": 2,
      "note": 55,
      "start": 31.6859,
      "duration": 0.0773,
      "velocity": 102,
      "chip": "ym2612"
    },
    {
      "channel": 5,
      "note": 55,
      "start": 31.7831,
      "duration": 0.0968,
      "velocity": 127,
      "chip": "ym2612"
    },
    {
      "channel": 0,
      "note": 67,
      "start": 31.786,
      "duration": 0.0936,
      "velocity": 102,
      "chip": "ym2612"
    },
    {
      "channel": 3,
      "note": 43,
      "start": 31.8998,
      "duration": 0.0966,
      "velocity": 127,
      "chip": "ym2612"
    },
    {
      "channel": 4,
      "note": 67,
      "start": 31.9028,
      "duration": 0.177,
      "velocity": 102,
      "chip": "ym2612"
    },
    {
      "channel": 1,
      "note": 67,
      "start": 31.9998,
      "duration": 0.0964,
      "velocity": 127,
      "chip": "ym2612"
    },
    {
      "channel": 3,
      "note": 43,
      "start": 32.1168,
      "duration": 0.1963,
      "velocity": 127,
      "chip": "ym2612"
    },
    {
      "channel": 5,
      "note": 55,
      "start": 32.1197,
      "duration": 0.0768,
      "velocity": 127,
      "chip": "ym2612"
    },
    {
      "channel": 4,
      "note": 55,
      "start": 32.123,
      "duration": 0.5735,
      "velocity": 102,
      "chip": "ym2612"
    },
    {
      "channel": 2,
      "note": 55,
      "start": 32.1258,
      "duration": 0.0709,
      "velocity": 102,
      "chip": "ym2612"
    },
    {
      "channel": 1,
      "note": 67,
      "start": 32.2163,
      "duration": 0.0966,
      "velocity": 127,
      "chip": "ym2612"
    },
    {
      "channel": 0,
      "note": 67,
      "start": 32.2191,
      "duration": 0.0938,
      "velocity": 102,
      "chip": "ym2612"
    },
    {
      "channel": 5,
      "note": 55,
      "start": 32.3332,
      "duration": 0.0798,
      "velocity": 127,
      "chip": "ym2612"
    },
    {
      "channel": 2,
      "note": 43,
      "start": 32.3362,
      "duration": 0.077,
      "velocity": 102,
      "chip": "ym2612"
    },
    {
      "channel": 3,
      "note": 43,
      "start": 32.4329,
      "duration": 0.1635,
      "velocity": 127,
      "chip": "ym2612"
    },
    {
      "channel": 0,
      "note": 55,
      "start": 32.4359,
      "duration": 0.0937,
      "velocity": 102,
      "chip": "ym2612"
    },
    {
      "channel": 1,
      "note": 67,
      "start": 32.5496,
      "duration": 0.08,
      "velocity": 127,
      "chip": "ym2612"
    },
    {
      "channel": 5,
      "note": 55,
      "start": 32.6496,
      "duration": 0.0969,
      "velocity": 127,
      "chip": "ym2612"
    },
    {
      "channel": 3,
      "note": 43,
      "start": 32.7664,
      "duration": 0.08,
      "velocity": 127,
      "chip": "ym2612"
    },
    {
      "channel": 4,
      "note": 67,
      "start": 32.7695,
      "duration": 0.077,
      "velocity": 102,
      "chip": "ym2612"
    },
    {
      "channel": 1,
      "note": 67,
      "start": 32.8669,
      "duration": 0.0961,
      "velocity": 127,
      "chip": "ym2612"
    },
    {
      "channel": 3,
      "note": 43,
      "start": 32.9831,
      "duration": 0.1633,
      "velocity": 127,
      "chip": "ym2612"
    },
    {
      "channel": 5,
      "note": 55,
      "start": 32.986,
      "duration": 0.0771,
      "velocity": 127,
      "chip": "ym2612"
    },
    {
      "channel": 2,
      "note": 55,
      "start": 32.989,
      "duration": 0.0742,
      "velocity": 102,
      "chip": "ym2612"
    },
    {
      "channel": 1,
      "note": 67,
      "start": 33.0831,
      "duration": 0.0967,
      "velocity": 127,
      "chip": "ym2612"
    },
    {
      "channel": 0,
      "note": 67,
      "start": 33.0859,
      "duration": 0.0938,
      "velocity": 102,
      "chip": "ym2612"
    },
    {
      "channel": 5,
      "note": 55,
      "start": 33.1998,
      "duration": 0.0801,
      "velocity": 127,
      "chip": "ym2612"
    },
    {
      "channel": 4,
      "note": 67,
      "start": 33.2025,
      "duration": 0.0773,
      "velocity": 102,
      "chip": "ym2612"
    },
    {
      "channel": 3,
      "note": 43,
      "start": 33.2996,
      "duration": 0.1468,
      "velocity": 127,
      "chip": "ym2612"
    },
    {
      "channel": 1,
      "note": 67,
      "start": 33.4162,
      "duration": 0.08,
      "velocity": 127,
      "chip": "ym2612"
    },
    {
      "channel": 2,
      "note": 55,
      "start": 33.419,
      "duration": 0.0776,
      "velocity": 102,
      "chip": "ym2612"
    },
    {
      "channel": 5,
      "note": 55,
      "start": 33.5163,
      "duration": 0.0969,
      "velocity": 127,
      "chip": "ym2612"
    },
    {
      "channel": 0,
      "note": 67,
      "start": 33.519,
      "duration": 0.094,
      "velocity": 102,
      "chip": "ym2612"
    },
    {
      "channel": 3,
      "note": 43,
      "start": 33.633,
      "duration": 0.1468,
      "velocity": 127,
      "chip": "ym2612"
    },
    {
      "channel": 4,
      "note": 67,
      "start": 33.6361,
      "duration": 0.177,
      "velocity": 102,
      "chip": "ym2612"
    },
    {
      "channel": 1,
      "note": 67,
      "start": 33.7332,
      "duration": 0.0966,
      "velocity": 127,
      "chip": "ym2612"
    },
    {
      "channel": 3,
      "note": 41,
      "start": 33.8501,
      "duration": 0.3297,
      "velocity": 127,
      "chip": "ym2612"
    },
    {
      "channel": 5,
      "note": 55,
      "start": 33.8529,
      "duration": 0.0769,
      "velocity": 127,
      "chip": "ym2612"
    },
    {
      "channel": 4,
      "note": 55,
      "start": 33.8559,
      "duration": 0.4405,
      "velocity": 102,
      "chip": "ym2612"
    },
    {
      "channel": 2,
      "note": 55,
      "start": 33.859,
      "duration": 0.0709,
      "velocity": 102,
      "chip": "ym2612"
    },
    {
      "channel": 1,
      "note": 67,
      "start": 33.9664,
      "duration": 0.08,
      "velocity": 127,
      "chip": "ym2612"
    },
    {
      "channel": 0,
      "note": 67,
      "start": 33.9695,
      "duration": 0.0767,
      "velocity": 102,
      "chip": "ym2612"
    },
    {
      "channel": 5,
      "note": 55,
      "start": 34.0664,
      "duration": 0.08,
      "velocity": 127,
      "chip": "ym2612"
    },
    {
      "channel": 2,
      "note": 43,
      "start": 34.0694,
      "duration": 0.0771,
      "velocity": 102,
      "chip": "ym2612"
    },
    {
      "channel": 3,
      "note": 53,
      "start": 34.1828,
      "duration": 0.3134,
      "velocity": 127,
      "chip": "ym2612"
    },
    {
      "channel": 0,
      "note": 55,
      "start": 34.1858,
      "duration": 0.077,
      "velocity": 102,
      "chip": "ym2612"
    },
    {
      "channel": 1,
      "note": 67,
      "start": 34.283,
      "duration": 0.0799,
      "velocity": 127,
      "chip": "ym2612"
    },
    {
      "channel": 5,
      "note": 53,
      "start": 34.286,
      "duration": 0.1939,
      "velocity": 102,
      "chip": "ym2612"
    },
    {
      "channel": 2,
      "note": 55,
      "start": 34.4003,
      "duration": 0.0797,
      "velocity": 127,
      "chip": "ym2612"
    },
    {
      "channel": 3,
      "note": 41,
      "start": 34.4998,
      "duration": 0.1632,
      "velocity": 127,
      "chip": "ym2612"
    },
    {
      "channel": 0,
      "note": 41,
      "start": 34.5029,
      "duration": 0.0767,
      "velocity": 102,
      "chip": "ym2612"
    },
    {
      "channel": 1,
      "note": 67,
      "start": 34.6164,
      "duration": 0.0799,
      "velocity": 127,
      "chip": "ym2612"
    },
    {
      "channel": 4,
      "note": 53,
      "start": 34.6195,
      "duration": 0.077,
      "velocity": 102,
      "chip": "ym2612"
    },
    {
      "channel": 5,
      "note": 45,
      "start": 34.7165,
      "duration": 0.0466,
      "velocity": 107,
      "chip": "ym2612"
    },
    {
      "channel": 3,
      "note": 47,
      "start": 34.7195,
      "duration": 0.1936,
      "velocity": 127,
      "chip": "ym2612"
    },
    {
      "channel": 2,
      "note": 59,
      "start": 34.7224,
      "duration": 0.074,
      "velocity": 127,
      "chip": "ym2612"
    },
    {
      "channel": 0,
      "note": 43,
      "start": 34.726,
      "duration": 2.587,
      "velocity": 124,
      "chip": "ym2612"
    },
    {
      "channel": 1,
      "note": 71,
      "start": 34.8332,
      "duration": 0.0797,
      "velocity": 127,
      "chip": "ym2612"
    },
    {
      "channel": 2,
      "note": 59,
      "start": 34.9332,
      "duration": 0.0967,
      "velocity": 127,
      "chip": "ym2612"
    },
    {
      "channel": 4,
      "note": 71,
      "start": 34.9366,
      "duration": 0.0931,
      "velocity": 102,
      "chip": "ym2612"
    },
    {
      "channel": 3,
      "note": 47,
      "start": 35.0496,
      "duration": 0.1468,
      "velocity": 127,
      "chip": "ym2612"
    },
    {
      "channel": 5,
      "note": 45,
      "start": 35.1493,
      "duration": 0.0473,
      "velocity": 107,
      "chip": "ym2612"
    },
    {
      "channel": 1,
      "note": 71,
      "start": 35.1521,
      "duration": 0.0942,
      "velocity": 127,
      "chip": "ym2612"
    },
    {
      "channel": 4,
      "note": 59,
      "start": 35.155,
      "duration": 0.0915,
      "velocity": 102,
      "chip": "ym2612"
    },
    {
      "channel": 2,
      "note": 59,
      "start": 35.2664,
      "duration": 0.0802,
      "velocity": 127,
      "chip": "ym2612"
    },
    {
      "channel": 3,
      "note": 71,
      "start": 35.2695,
      "duration": 0.0768,
      "velocity": 102,
      "chip": "ym2612"
    },
    {
      "channel": 5,
      "note": 47,
      "start": 35.3666,
      "duration": 0.1133,
      "velocity": 127,
      "chip": "ym2612"
    },
    {
      "channel": 1,
      "note": 71,
      "start": 35.3697,
      "duration": 0.1766,
      "velocity": 102,
      "chip": "ym2612"
    },
    {
      "channel": 4,
      "note": 71,
      "start": 35.4838,
      "duration": 0.0793,
      "velocity": 127,
      "chip": "ym2612"
    },
    {
      "channel": 3,
      "note": 45,
      "start": 35.5827,
      "duration": 0.0471,
      "velocity": 107,
      "chip": "ym2612"
    },
    {
      "channel": 5,
      "note": 47,
      "start": 35.5858,
      "duration": 0.1943,
      "velocity": 127,
      "chip": "ym2612"
    },
    {
      "channel": 2,
      "note": 59,
      "start": 35.5887,
      "duration": 0.0914,
      "velocity": 127,
      "chip": "ym2612"
    },
    {
      "channel": 1,
      "note": 59,
      "start": 35.5915,
      "duration": 0.5716,
      "velocity": 102,
      "chip": "ym2612"
    },
    {
      "channel": 4,
      "note": 59,
      "start": 35.5943,
      "duration": 0.0856,
      "velocity": 102,
      "chip": "ym2612"
    },
    {
      "channel": 3,
      "note": 71,
      "start": 35.7,
      "duration": 0.0798,
      "velocity": 127,
      "chip": "ym2612"
    },
    {
      "channel": 4,
      "note": 71,
      "start": 35.703,
      "duration": 0.0769,
      "velocity": 102,
      "chip": "ym2612"
    },
    {
      "channel": 2,
      "note": 59,
      "start": 35.7998,
      "duration": 0.0968,
      "velocity": 127,
      "chip": "ym2612"
    },
    {
      "channel": 3,
      "note": 47,
      "start": 35.8028,
      "duration": 0.0936,
      "velocity": 102,
      "chip": "ym2612"
    },
    {
      "channel": 5,
      "note": 47,
      "start": 35.9167,
      "duration": 0.1464,
      "velocity": 127,
      "chip": "ym2612"
    },
    {
      "channel": 4,
      "note": 59,
      "start": 35.9199,
      "duration": 0.0765,
      "velocity": 102,
      "chip": "ym2612"
    },
    {
      "channel": 3,
      "note": 45,
      "start": 36.0159,
      "duration": 0.0471,
      "velocity": 107,
      "chip": "ym2612"
    },
    {
      "channel": 2,
      "note": 71,
      "start": 36.019,
      "duration": 0.0942,
      "velocity": 127,
      "chip": "ym2612"
    },
    {
      "channel": 4,
      "note": 59,
      "start": 36.1331,
      "duration": 0.08,
      "velocity": 127,
      "chip": "ym2612"
    },
    {
      "channel": 5,
      "note": 47,
      "start": 36.2332,
      "duration": 0.0968,
      "velocity": 127,
      "chip": "ym2612"
    },
    {
      "channel": 1,
      "note": 71,
      "start": 36.2361,
      "duration": 0.0935,
      "velocity": 102,
      "chip": "ym2612"
    },
    {
      "channel": 2,
      "note": 71,
      "start": 36.35,
      "duration": 0.0798,
      "velocity": 127,
      "chip": "ym2612"
    },
    {
      "channel": 3,
      "note": 45,
      "start": 36.449,
      "duration": 0.0473,
      "velocity": 107,
      "chip": "ym2612"
    },
    {
      "channel": 5,
      "note": 47,
      "start": 36.4522,
      "duration": 0.161,
      "velocity": 127,
      "chip": "ym2612"
    },
    {
      "channel": 4,
      "note": 59,
      "start": 36.455,
      "duration": 0.0915,
      "velocity": 127,
      "chip": "ym2612"
    },
    {
      "channel": 1,
      "note": 59,
      "start": 36.458,
      "duration": 0.0884,
      "velocity": 102,
      "chip": "ym2612"
    },
    {
      "channel": 2,
      "note": 71,
      "start": 36.5667,
      "duration": 0.0799,
      "velocity": 127,
      "chip": "ym2612"
    },
    {
      "channel": 3,
      "note": 71,
      "start": 36.5697,
      "duration": 0.0767,
      "velocity": 102,
      "chip": "ym2612"
    },
    {
      "channel": 4,
      "note": 59,
      "start": 36.6664,
      "duration": 0.0968,
      "velocity": 127,
      "chip": "ym2612"
    },
    {
      "channel": 1,
      "note": 71,
      "start": 36.6692,
      "duration": 0.0938,
      "velocity": 102,
      "chip": "ym2612"
    },
    {
      "channel": 5,
      "note": 47,
      "start": 36.7832,
      "duration": 0.13,
      "velocity": 127,
      "chip": "ym2612"
    },
    {
      "channel": 3,
      "note": 45,
      "start": 36.8827,
      "duration": 0.0471,
      "velocity": 107,
      "chip": "ym2612"
    },
    {
      "channel": 2,
      "note": 71,
      "start": 36.8858,
      "duration": 0.0941,
      "velocity": 127,
      "chip": "ym2612"
    },
    {
      "channel": 1,
      "note": 59,
      "start": 36.8885,
      "duration": 0.0912,
      "velocity": 102,
      "chip": "ym2612"
    },
    {
      "channel": 4,
      "note": 59,
      "start": 36.9996,
      "duration": 0.0802,
      "velocity": 127,
      "chip": "ym2612"
    },
    {
      "channel": 5,
      "note": 71,
      "start": 37.0026,
      "duration": 0.0773,
      "velocity": 102,
      "chip": "ym2612"
    },
    {
      "channel": 3,
      "note": 47,
      "start": 37.0998,
      "duration": 0.1466,
      "velocity": 127,
      "chip": "ym2612"
    },
    {
      "channel": 1,
      "note": 71,
      "start": 37.1029,
      "duration": 0.1768,
      "velocity": 102,
      "chip": "ym2612"
    },
    {
      "channel": 2,
      "note": 71,
      "start": 37.2166,
      "duration": 0.0798,
      "velocity": 127,
      "chip": "ym2612"
    },
    {
      "channel": 4,
      "note": 45,
      "start": 37.316,
      "duration": 0.0637,
      "velocity": 107,
      "chip": "ym2612"
    },
    {
      "channel": 3,
      "note": 45,
      "start": 37.319,
      "duration": 0.3273,
      "velocity": 127,
      "chip": "ym2612"
    },
    {
      "channel": 5,
      "note": 59,
      "start": 37.3224,
      "duration": 0.0907,
      "velocity": 127,
      "chip": "ym2612"
    },
    {
      "channel": 1,
      "note": 59,
      "start": 37.3256,
      "duration": 0.4374,
      "velocity": 102,
      "chip": "ym2612"
    },
    {
      "channel": 2,
      "note": 59,
      "start": 37.3288,
      "duration": 0.0844,
      "velocity": 102,
      "chip": "ym2612"
    },
    {
      "channel": 0,
      "note": 71,
      "start": 37.4334,
      "duration": 0.0796,
      "velocity": 127,
      "chip": "ym2612"
    },
    {
      "channel": 4,
      "note": 71,
      "start": 37.4368,
      "duration": 0.0764,
      "velocity": 102,
      "chip": "ym2612"
    },
    {
      "channel": 5,
      "note": 59,
      "start": 37.5332,
      "duration": 0.0967,
      "velocity": 127,
      "chip": "ym2612"
    },
    {
      "channel": 2,
      "note": 47,
      "start": 37.5362,
      "duration": 0.0938,
      "velocity": 102,
      "chip": "ym2612"
    },
    {
      "channel": 3,
      "note": 57,
      "start": 37.6495,
      "duration": 0.3135,
      "velocity": 127,
      "chip": "ym2612"
    },
    {
      "channel": 4,
      "note": 59,
      "start": 37.6526,
      "duration": 0.0772,
      "velocity": 102,
      "chip": "ym2612"
    },
    {
      "channel": 0,
      "note": 45,
      "start": 37.7493,
      "duration": 0.0637,
      "velocity": 107,
      "chip": "ym2612"
    },
    {
      "channel": 5,
      "note": 71,
      "start": 37.7524,
      "duration": 0.0941,
      "velocity": 127,
      "chip": "ym2612"
    },
    {
      "channel": 2,
      "note": 57,
      "start": 37.7554,
      "duration": 0.1912,
      "velocity": 102,
      "chip": "ym2612"
    },
    {
      "channel": 4,
      "note": 59,
      "start": 37.8663,
      "duration": 0.08,
      "velocity": 127,
      "chip": "ym2612"
    },
    {
      "channel": 3,
      "note": 45,
      "start": 37.9668,
      "duration": 0.1629,
      "velocity": 127,
      "chip": "ym2612"
    },
    {
      "channel": 1,
      "note": 45,
      "start": 37.9699,
      "duration": 0.0931,
      "velocity": 102,
      "chip": "ym2612"
    },
    {
      "channel": 5,
      "note": 71,
      "start": 38.0833,
      "duration": 0.0799,
      "velocity": 127,
      "chip": "ym2612"
    },
    {
      "channel": 0,
      "note": 57,
      "start": 38.0863,
      "duration": 0.0767,
      "velocity": 102,
      "chip": "ym2612"
    },
    {
      "channel": 4,
      "note": 45,
      "start": 38.1828,
      "duration": 0.0637,
      "velocity": 107,
      "chip": "ym2612"
    },
    {
      "channel": 3,
      "note": 47,
      "start": 38.1858,
      "duration": 0.194,
      "velocity": 127,
      "chip": "ym2612"
    },
    {
      "channel": 2,
      "note": 59,
      "start": 38.1888,
      "duration": 0.0911,
      "velocity": 127,
      "chip": "ym2612"
    },
    {
      "channel": 5,
      "note": 71,
      "start": 38.3002,
      "duration": 0.0796,
      "velocity": 127,
      "chip": "ym2612"
    },
    {
      "channel": 2,
      "note": 59,
      "start": 38.3999,
      "duration": 0.0968,
      "velocity": 127,
      "chip": "ym2612"
    },
    {
      "channel": 1,
      "note": 71,
      "start": 38.4029,
      "duration": 0.0934,
      "velocity": 102,
      "chip": "ym2612"
    },
    {
      "channel": 3,
      "note": 47,
      "start": 38.5163,
      "duration": 0.1635,
      "velocity": 127,
      "chip": "ym2612"
    },
    {
      "channel": 4,
      "note": 45,
      "start": 38.6159,
      "duration": 0.0641,
      "velocity": 107,
      "chip": "ym2612"
    },
    {
      "channel": 5,
      "note": 71,
      "start": 38.6189,
      "duration": 0.0942,
      "velocity": 127,
      "chip": "ym2612"
    },
    {
      "channel": 0,
      "note": 59,
      "start": 38.6218,
      "duration": 0.0911,
      "velocity": 102,
      "chip": "ym2612"
    },
    {
      "channel": 2,
      "note": 59,
      "start": 38.733,
      "duration": 0.0802,
      "velocity": 127,
      "chip": "ym2612"
    },
    {
      "channel": 1,
      "note": 71,
      "start": 38.7362,
      "duration": 0.0767,
      "velocity": 102,
      "chip": "ym2612"
    },
    {
      "channel": 3,
      "note": 47,
      "start": 38.833,
      "duration": 0.1133,
      "velocity": 127,
      "chip": "ym2612"
    },
    {
      "channel": 4,
      "note": 71,
      "start": 38.8363,
      "duration": 0.1768,
      "velocity": 102,
      "chip": "ym2612"
    },
    {
      "channel": 5,
      "note": 71,
      "start": 38.95,
      "duration": 0.0798,
      "velocity": 127,
      "chip": "ym2612"
    },
    {
      "channel": 0,
      "note": 45,
      "start": 39.0493,
      "duration": 0.0635,
      "velocity": 107,
      "chip": "ym2612"
    },
    {
      "channel": 3,
      "note": 47,
      "start": 39.0523,
      "duration": 0.1941,
      "velocity": 127,
      "chip": "ym2612"
    },
    {
      "channel": 2,
      "note": 59,
      "start": 39.0552,
      "duration": 0.0913,
      "velocity": 127,
      "chip": "ym2612"
    },
    {
      "channel": 4,
      "note": 59,
      "start": 39.0582,
      "duration": 0.5715,
      "velocity": 102,
      "chip": "ym2612"
    },
    {
      "channel": 1,
      "note": 59,
      "start": 39.061,
      "duration": 0.0852,
      "velocity": 102,
      "chip": "ym2612"
    },
    {
      "channel": 5,
      "note": 71,
      "start": 39.1666,
      "duration": 0.08,
      "velocity": 127,
      "chip": "ym2612"
    },
    {
      "channel": 0,
      "note": 71,
      "start": 39.1695,
      "duration": 0.0767,
      "velocity": 102,
      "chip": "ym2612"
    },
    {
      "channel": 2,
      "note": 59,
      "start": 39.2665,
      "duration": 0.0968,
      "velocity": 127,
      "chip": "ym2612"
    },
    {
      "channel": 1,
      "note": 47,
      "start": 39.2693,
      "duration": 0.0936,
      "velocity": 102,
      "chip": "ym2612"
    },
    {
      "channel": 3,
      "note": 47,
      "start": 39.3829,
      "duration": 0.1634,
      "velocity": 127,
      "chip": "ym2612"
    },
    {
      "channel": 0,
      "note": 59,
      "start": 39.3859,
      "duration": 0.0771,
      "velocity": 102,
      "chip": "ym2612"
    },
    {
      "channel": 5,
      "note": 45,
      "start": 39.4827,
      "duration": 0.0639,
      "velocity": 107,
      "chip": "ym2612"
    },
    {
      "channel": 1,
      "note": 71,
      "start": 39.4857,
      "duration": 0.094,
      "velocity": 127,
      "chip": "ym2612"
    },
    {
      "channel": 2,
      "note": 59,
      "start": 39.5997,
      "duration": 0.0802,
      "velocity": 127,
      "chip": "ym2612"
    },
    {
      "channel": 3,
      "note": 47,
      "start": 39.7003,
      "duration": 0.096,
      "velocity": 127,
      "chip": "ym2612"
    },
    {
      "channel": 4,
      "note": 71,
      "start": 39.7038,
      "duration": 0.0927,
      "velocity": 102,
      "chip": "ym2612"
    },
    {
      "channel": 1,
      "note": 71,
      "start": 39.8163,
      "duration": 0.0798,
      "velocity": 127,
      "chip": "ym2612"
    },
    {
      "channel": 5,
      "note": 45,
      "start": 39.9159,
      "duration": 0.0641,
      "velocity": 107,
      "chip": "ym2612"
    },
    {
      "channel": 3,
      "note": 47,
      "start": 39.9188,
      "duration": 0.1609,
      "velocity": 127,
      "chip": "ym2612"
    },
    {
      "channel": 2,
      "note": 59,
      "start": 39.9222,
      "duration": 0.0912,
      "velocity": 127,
      "chip": "ym2612"
    },
    {
      "channel": 0,
      "note": 59,
      "start": 39.9251,
      "duration": 0.0878,
      "velocity": 102,
      "chip": "ym2612"
    },
    {
      "channel": 1,
      "note": 71,
      "start": 40.0332,
      "duration": 0.0799,
      "velocity": 127,
      "chip": "ym2612"
    },
    {
      "channel": 4,
      "note": 71,
      "start": 40.0362,
      "duration": 0.077,
      "velocity": 102,
      "chip": "ym2612"
    },
    {
      "channel": 2,
      "note": 59,
      "start": 40.1333,
      "duration": 0.0968,
      "velocity": 127,
      "chip": "ym2612"
    },
    {
      "channel": 5,
      "note": 71,
      "start": 40.1361,
      "duration": 0.0938,
      "velocity": 102,
      "chip": "ym2612"
    },
    {
      "channel": 3,
      "note": 47,
      "start": 40.2495,
      "duration": 0.1468,
      "velocity": 127,
      "chip": "ym2612"
    },
    {
      "channel": 0,
      "note": 45,
      "start": 40.366,
      "duration": 0.047,
      "velocity": 107,
      "chip": "ym2612"
    },
    {
      "channel": 1,
      "note": 71,
      "start": 40.3688,
      "duration": 0.0775,
      "velocity": 127,
      "chip": "ym2612"
    },
    {
      "channel": 4,
      "note": 59,
      "start": 40.3716,
      "duration": 0.0749,
      "velocity": 102,
      "chip": "ym2612"
    },
    {
      "channel": 2,
      "note": 59,
      "start": 40.4664,
      "duration": 0.0802,
      "velocity": 127,
      "chip": "ym2612"
    },
    {
      "channel": 5,
      "note": 71,
      "start": 40.4694,
      "duration": 0.0771,
      "velocity": 102,
      "chip": "ym2612"
    },
    {
      "channel": 3,
      "note": 47,
      "start": 40.583,
      "duration": 0.13,
      "velocity": 127,
      "chip": "ym2612"
    },
    {
      "channel": 0,
      "note": 71,
      "start": 40.5862,
      "duration": 0.16,
      "velocity": 102,
      "chip": "ym2612"
    },
    {
      "channel": 1,
      "note": 71,
      "start": 40.6832,
      "duration": 0.0798,
      "velocity": 127,
      "chip": "ym2612"
    },
    {
      "channel": 4,
      "note": 45,
      "start": 40.7992,
      "duration": 0.0472,
      "velocity": 107,
      "chip": "ym2612"
    },
    {
      "channel": 3,
      "note": 45,
      "start": 40.8022,
      "duration": 0.3107,
      "velocity": 127,
      "chip": "ym2612"
    },
    {
      "channel": 2,
      "note": 59,
      "start": 40.8052,
      "duration": 0.0748,
      "velocity": 127,
      "chip": "ym2612"
    },
    {
      "channel": 0,
      "note": 59,
      "start": 40.808,
      "duration": 0.4383,
      "velocity": 102,
      "chip": "ym2612"
    },
    {
      "channel": 5,
      "note": 59,
      "start": 40.8108,
      "duration": 0.069,
      "velocity": 102,
      "chip": "ym2612"
    },
    {
      "channel": 1,
      "note": 71,
      "start": 40.9001,
      "duration": 0.0796,
      "velocity": 127,
      "chip": "ym2612"
    },
    {
      "channel": 4,
      "note": 71,
      "start": 40.9031,
      "duration": 0.0768,
      "velocity": 102,
      "chip": "ym2612"
    },
    {
      "channel": 2,
      "note": 59,
      "start": 41.0165,
      "duration": 0.08,
      "velocity": 127,
      "chip": "ym2612"
    },
    {
      "channel": 5,
      "note": 47,
      "start": 41.0198,
      "duration": 0.0766,
      "velocity": 102,
      "chip": "ym2612"
    },
    {
      "channel": 3,
      "note": 57,
      "start": 41.1161,
      "duration": 0.3302,
      "velocity": 127,
      "chip": "ym2612"
    },
    {
      "channel": 4,
      "note": 59,
      "start": 41.1196,
      "duration": 0.0768,
      "velocity": 102,
      "chip": "ym2612"
    },
    {
      "channel": 1,
      "note": 45,
      "start": 41.2331,
      "duration": 0.0466,
      "velocity": 107,
      "chip": "ym2612"
    },
    {
      "channel": 5,
      "note": 71,
      "start": 41.2361,
      "duration": 0.077,
      "velocity": 127,
      "chip": "ym2612"
    },
    {
      "channel": 2,
      "note": 57,
      "start": 41.2393,
      "duration": 0.1907,
      "velocity": 102,
      "chip": "ym2612"
    },
    {
      "channel": 4,
      "note": 59,
      "start": 41.3332,
      "duration": 0.0967,
      "velocity": 127,
      "chip": "ym2612"
    },
    {
      "channel": 3,
      "note": 45,
      "start": 41.4501,
      "duration": 0.1462,
      "velocity": 127,
      "chip": "ym2612"
    },
    {
      "channel": 0,
      "note": 45,
      "start": 41.4534,
      "duration": 0.0762,
      "velocity": 102,
      "chip": "ym2612"
    },
    {
      "channel": 5,
      "note": 71,
      "start": 41.5501,
      "duration": 0.0965,
      "velocity": 127,
      "chip": "ym2612"
    },
    {
      "channel": 1,
      "note": 57,
      "start": 41.5531,
      "duration": 0.0932,
      "velocity": 102,
      "chip": "ym2612"
    },
    {
      "channel": 4,
      "note": 45,
      "start": 41.666,
      "duration": 0.047,
      "velocity": 107,
      "chip": "ym2612"
    },
    {
      "channel": 3,
      "note": 47,
      "start": 41.669,
      "duration": 0.194,
      "velocity": 127,
      "chip": "ym2612"
    },
    {
      "channel": 2,
      "note": 59,
      "start": 41.672,
      "duration": 0.0745,
      "velocity": 127,
      "chip": "ym2612"
    },
    {
      "channel": 2,
      "note": 81,
      "start": 41.8829,
      "duration": 0.0135,
      "velocity": 121,
      "chip": "ym2612"
    },
    {
      "channel": 0,
      "note": 59,
      "start": 41.886,
      "duration": 0.0769,
      "velocity": 127,
      "chip": "ym2612"
    },
    {
      "channel": 3,
      "note": 47,
      "start": 41.983,
      "duration": 0.1634,
      "velocity": 127,
      "chip": "ym2612"
    },
    {
      "channel": 4,
      "note": 45,
      "start": 42.0991,
      "duration": 0.0474,
      "velocity": 107,
      "chip": "ym2612"
    },
    {
      "channel": 0,
      "note": 59,
      "start": 42.1994,
      "duration": 0.0968,
      "velocity": 127,
      "chip": "ym2612"
    },
    {
      "channel": 1,
      "note": 59,
      "start": 42.2024,
      "duration": 0.094,
      "velocity": 102,
      "chip": "ym2612"
    },
    {
      "channel": 2,
      "note": 81,
      "start": 42.3157,
      "duration": 0.0142,
      "velocity": 121,
      "chip": "ym2612"
    },
    {
      "channel": 3,
      "note": 47,
      "start": 42.3186,
      "duration": 0.0944,
      "velocity": 127,
      "chip": "ym2612"
    },
    {
      "channel": 4,
      "note": 45,
      "start": 42.5324,
      "duration": 0.0473,
      "velocity": 107,
      "chip": "ym2612"
    },
    {
      "channel": 3,
      "note": 47,
      "start": 42.5355,
      "duration": 0.1943,
      "velocity": 127,
      "chip": "ym2612"
    },
    {
      "channel": 0,
      "note": 59,
      "start": 42.5381,
      "duration": 0.0748,
      "velocity": 127,
      "chip": "ym2612"
    },
    {
      "channel": 5,
      "note": 59,
      "start": 42.5433,
      "duration": 0.0699,
      "velocity": 102,
      "chip": "ym2612"
    },
    {
      "channel": 1,
      "note": 59,
      "start": 42.6333,
      "duration": 0.0963,
      "velocity": 102,
      "chip": "ym2612"
    },
    {
      "channel": 2,
      "note": 81,
      "start": 42.749,
      "duration": 0.0141,
      "velocity": 121,
      "chip": "ym2612"
    },
    {
      "channel": 0,
      "note": 59,
      "start": 42.7521,
      "duration": 0.0776,
      "velocity": 127,
      "chip": "ym2612"
    },
    {
      "channel": 4,
      "note": 71,
      "start": 42.7573,
      "duration": 0.0726,
      "velocity": 102,
      "chip": "ym2612"
    },
    {
      "channel": 3,
      "note": 47,
      "start": 42.8495,
      "duration": 0.1635,
      "velocity": 127,
      "chip": "ym2612"
    },
    {
      "channel": 1,
      "note": 47,
      "start": 42.8526,
      "duration": 0.0937,
      "velocity": 102,
      "chip": "ym2612"
    },
    {
      "channel": 5,
      "note": 59,
      "start": 42.8552,
      "duration": 0.0913,
      "velocity": 102,
      "chip": "ym2612"
    },
    {
      "channel": 2,
      "note": 45,
      "start": 42.966,
      "duration": 0.0473,
      "velocity": 107,
      "chip": "ym2612"
    },
    {
      "channel": 0,
      "note": 59,
      "start": 43.066,
      "duration": 0.0969,
      "velocity": 127,
      "chip": "ym2612"
    },
    {
      "channel": 4,
      "note": 71,
      "start": 43.0692,
      "duration": 0.0939,
      "velocity": 102,
      "chip": "ym2612"
    },
    {
      "channel": 2,
      "note": 81,
      "start": 43.1824,
      "duration": 0.0141,
      "velocity": 121,
      "chip": "ym2612"
    },
    {
      "channel": 3,
      "note": 47,
      "start": 43.1856,
      "duration": 0.0774,
      "velocity": 127,
      "chip": "ym2612"
    },
    {
      "channel": 5,
      "note": 59,
      "start": 43.1894,
      "duration": 0.0738,
      "velocity": 102,
      "chip": "ym2612"
    },
    {
      "channel": 1,
      "note": 45,
      "start": 43.3992,
      "duration": 0.0471,
      "velocity": 107,
      "chip": "ym2612"
    },
    {
      "channel": 3,
      "note": 47,
      "start": 43.4022,
      "duration": 0.1608,
      "velocity": 127,
      "chip": "ym2612"
    },
    {
      "channel": 0,
      "note": 59,
      "start": 43.4049,
      "duration": 0.0749,
      "velocity": 127,
      "chip": "ym2612"
    },
    {
      "channel": 4,
      "note": 71,
      "start": 43.4085,
      "duration": 0.0714,
      "velocity": 102,
      "chip": "ym2612"
    },
    {
      "channel": 2,
      "note": 71,
      "start": 43.5002,
      "duration": 0.0962,
      "velocity": 102,
      "chip": "ym2612"
    },
    {
      "channel": 2,
      "note": 81,
      "start": 43.6157,
      "duration": 0.0142,
      "velocity": 121,
      "chip": "ym2612"
    },
    {
      "channel": 0,
      "note": 59,
      "start": 43.6184,
      "duration": 0.0778,
      "velocity": 127,
      "chip": "ym2612"
    },
    {
      "channel": 3,
      "note": 47,
      "start": 43.7162,
      "duration": 0.1468,
      "velocity": 127,
      "chip": "ym2612"
    },
    {
      "channel": 1,
      "note": 45,
      "start": 43.8325,
      "duration": 0.0471,
      "velocity": 107,
      "chip": "ym2612"
    },
    {
      "channel": 0,
      "note": 59,
      "start": 43.9328,
      "duration": 0.0969,
      "velocity": 127,
      "chip": "ym2612"
    },
    {
      "channel": 5,
      "note": 71,
      "start": 43.9358,
      "duration": 0.0941,
      "velocity": 102,
      "chip": "ym2612"
    },
    {
      "channel": 2,
      "note": 81,
      "start": 44.049,
      "duration": 0.0141,
      "velocity": 121,
      "chip": "ym2612"
    },
    {
      "channel": 3,
      "note": 47,
      "start": 44.0518,
      "duration": 0.128,
      "velocity": 127,
      "chip": "ym2612"
    },
    {
      "channel": 1,
      "note": 45,
      "start": 44.2657,
      "duration": 0.0473,
      "velocity": 107,
      "chip": "ym2612"
    },
    {
      "channel": 3,
      "note": 45,
      "start": 44.2686,
      "duration": 0.3111,
      "velocity": 127,
      "chip": "ym2612"
    },
    {
      "channel": 0,
      "note": 59,
      "start": 44.2713,
      "duration": 0.0749,
      "velocity": 127,
      "chip": "ym2612"
    },
    {
      "channel": 4,
      "note": 59,
      "start": 44.2747,
      "duration": 0.0717,
      "velocity": 102,
      "chip": "ym2612"
    },
    {
      "channel": 5,
      "note": 71,
      "start": 44.3667,
      "duration": 0.0964,
      "velocity": 102,
      "chip": "ym2612"
    },
    {
      "channel": 2,
      "note": 81,
      "start": 44.4824,
      "duration": 0.0141,
      "velocity": 121,
      "chip": "ym2612"
    },
    {
      "channel": 0,
      "note": 59,
      "start": 44.4851,
      "duration": 0.0778,
      "velocity": 127,
      "chip": "ym2612"
    },
    {
      "channel": 1,
      "note": 71,
      "start": 44.4886,
      "duration": 0.0745,
      "velocity": 102,
      "chip": "ym2612"
    },
    {
      "channel": 3,
      "note": 57,
      "start": 44.5829,
      "duration": 0.3302,
      "velocity": 127,
      "chip": "ym2612"
    },
    {
      "channel": 5,
      "note": 59,
      "start": 44.5865,
      "duration": 0.0934,
      "velocity": 102,
      "chip": "ym2612"
    },
    {
      "channel": 4,
      "note": 59,
      "start": 44.5891,
      "duration": 0.0907,
      "velocity": 102,
      "chip": "ym2612"
    },
    {
      "channel": 2,
      "note": 45,
      "start": 44.6994,
      "duration": 0.0471,
      "velocity": 107,
      "chip": "ym2612"
    },
    {
      "channel": 0,
      "note": 59,
      "start": 44.7995,
      "duration": 0.0968,
      "velocity": 127,
      "chip": "ym2612"
    },
    {
      "channel": 1,
      "note": 71,
      "start": 44.8026,
      "duration": 0.0939,
      "velocity": 102,
      "chip": "ym2612"
    },
    {
      "channel": 2,
      "note": 81,
      "start": 44.9159,
      "duration": 0.014,
      "velocity": 121,
      "chip": "ym2612"
    },
    {
      "channel": 3,
      "note": 45,
      "start": 44.9187,
      "duration": 0.1611,
      "velocity": 127,
      "chip": "ym2612"
    },
    {
      "channel": 4,
      "note": 59,
      "start": 44.9221,
      "duration": 0.0742,
      "velocity": 102,
      "chip": "ym2612"
    },
    {
      "channel": 5,
      "note": 57,
      "start": 45.0168,
      "duration": 0.0963,
      "velocity": 102,
      "chip": "ym2612"
    },
    {
      "channel": 0,
      "note": 45,
      "start": 45.1327,
      "duration": 0.0471,
      "velocity": 107,
      "chip": "ym2612"
    },
    {
      "channel": 3,
      "note": 47,
      "start": 45.136,
      "duration": 0.1938,
      "velocity": 127,
      "chip": "ym2612"
    },
    {
      "channel": 1,
      "note": 59,
      "start": 45.1389,
      "duration": 0.0741,
      "velocity": 127,
      "chip": "ym2612"
    },
    {
      "channel": 2,
      "note": 71,
      "start": 45.1424,
      "duration": 0.0709,
      "velocity": 102,
      "chip": "ym2612"
    },
    {
      "channel": 2,
      "note": 81,
      "start": 45.349,
      "duration": 0.0142,
      "velocity": 121,
      "chip": "ym2612"
    },
    {
      "channel": 1,
      "note": 59,
      "start": 45.3522,
      "duration": 0.0774,
      "velocity": 127,
      "chip": "ym2612"
    },
    {
      "channel": 3,
      "note": 47,
      "start": 45.4496,
      "duration": 0.1635,
      "velocity": 127,
      "chip": "ym2612"
    },
    {
      "channel": 0,
      "note": 45,
      "start": 45.5657,
      "duration": 0.0473,
      "velocity": 107,
      "chip": "ym2612"
    },
    {
      "channel": 1,
      "note": 59,
      "start": 45.6662,
      "duration": 0.0968,
      "velocity": 127,
      "chip": "ym2612"
    },
    {
      "channel": 5,
      "note": 59,
      "start": 45.6693,
      "duration": 0.0939,
      "velocity": 102,
      "chip": "ym2612"
    },
    {
      "channel": 2,
      "note": 81,
      "start": 45.7824,
      "duration": 0.0141,
      "velocity": 121,
      "chip": "ym2612"
    },
    {
      "channel": 3,
      "note": 47,
      "start": 45.7853,
      "duration": 0.0944,
      "velocity": 127,
      "chip": "ym2612"
    },
    {
      "channel": 0,
      "note": 45,
      "start": 45.9989,
      "duration": 0.0473,
      "velocity": 107,
      "chip": "ym2612"
    },
    {
      "channel": 3,
      "note": 47,
      "start": 46.0019,
      "duration": 0.1944,
      "velocity": 127,
      "chip": "ym2612"
    },
    {
      "channel": 1,
      "note": 59,
      "start": 46.0046,
      "duration": 0.0751,
      "velocity": 127,
      "chip": "ym2612"
    },
    {
      "channel": 4,
      "note": 59,
      "start": 46.0078,
      "duration": 0.0721,
      "velocity": 102,
      "chip": "ym2612"
    },
    {
      "channel": 5,
      "note": 59,
      "start": 46.1001,
      "duration": 0.0964,
      "velocity": 102,
      "chip": "ym2612"
    },
    {
      "channel": 2,
      "note": 81,
      "start": 46.2157,
      "duration": 0.0142,
      "velocity": 121,
      "chip": "ym2612"
    },
    {
      "channel": 1,
      "note": 59,
      "start": 46.2185,
      "duration": 0.0779,
      "velocity": 127,
      "chip": "ym2612"
    },
    {
      "channel": 0,
      "note": 71,
      "start": 46.2219,
      "duration": 0.0743,
      "velocity": 102,
      "chip": "ym2612"
    },
    {
      "channel": 3,
      "note": 47,
      "start": 46.3162,
      "duration": 0.1635,
      "velocity": 127,
      "chip": "ym2612"
    },
    {
      "channel": 5,
      "note": 47,
      "start": 46.3194,
      "duration": 0.0938,
      "velocity": 102,
      "chip": "ym2612"
    },
    {
      "channel": 4,
      "note": 59,
      "start": 46.322,
      "duration": 0.091,
      "velocity": 102,
      "chip": "ym2612"
    },
    {
      "channel": 2,
      "note": 45,
      "start": 46.4327,
      "duration": 0.0472,
      "velocity": 107,
      "chip": "ym2612"
    },
    {
      "channel": 1,
      "note": 59,
      "start": 46.5328,
      "duration": 0.0969,
      "velocity": 127,
      "chip": "ym2612"
    },
    {
      "channel": 0,
      "note": 71,
      "start": 46.5358,
      "duration": 0.0938,
      "velocity": 102,
      "chip": "ym2612"
    },
    {
      "channel": 2,
      "note": 81,
      "start": 46.649,
      "duration": 0.0142,
      "velocity": 121,
      "chip": "ym2612"
    },
    {
      "channel": 3,
      "note": 47,
      "start": 46.6519,
      "duration": 0.0778,
      "velocity": 127,
      "chip": "ym2612"
    },
    {
      "channel": 4,
      "note": 59,
      "start": 46.6552,
      "duration": 0.0747,
      "velocity": 102,
      "chip": "ym2612"
    },
    {
      "channel": 5,
      "note": 45,
      "start": 46.8659,
      "duration": 0.0471,
      "velocity": 107,
      "chip": "ym2612"
    },
    {
      "channel": 3,
      "note": 47,
      "start": 46.8692,
      "duration": 0.1605,
      "velocity": 127,
      "chip": "ym2612"
    },
    {
      "channel": 1,
      "note": 59,
      "start": 46.872,
      "duration": 0.0744,
      "velocity": 127,
      "chip": "ym2612"
    },
    {
      "channel": 0,
      "note": 59,
      "start": 46.8751,
      "duration": 0.0711,
      "velocity": 102,
      "chip": "ym2612"
    },
    {
      "channel": 2,
      "note": 71,
      "start": 46.9837,
      "duration": 0.0795,
      "velocity": 102,
      "chip": "ym2612"
    },
    {
      "channel": 2,
      "note": 81,
      "start": 47.0824,
      "duration": 0.0141,
      "velocity": 121,
      "chip": "ym2612"
    },
    {
      "channel": 1,
      "note": 59,
      "start": 47.0853,
      "duration": 0.0777,
      "velocity": 127,
      "chip": "ym2612"
    },
    {
      "channel": 3,
      "note": 47,
      "start": 47.1996,
      "duration": 0.1302,
      "velocity": 127,
      "chip": "ym2612"
    },
    {
      "channel": 5,
      "note": 45,
      "start": 47.2992,
      "duration": 0.0473,
      "velocity": 107,
      "chip": "ym2612"
    },
    {
      "channel": 1,
      "note": 59,
      "start": 47.4161,
      "duration": 0.0801,
      "velocity": 127,
      "chip": "ym2612"
    },
    {
      "channel": 4,
      "note": 71,
      "start": 47.419,
      "duration": 0.0774,
      "velocity": 102,
      "chip": "ym2612"
    },
    {
      "channel": 2,
      "note": 81,
      "start": 47.5156,
      "duration": 0.0143,
      "velocity": 121,
      "chip": "ym2612"
    },
    {
      "channel": 3,
      "note": 47,
      "start": 47.5183,
      "duration": 0.1447,
      "velocity": 127,
      "chip": "ym2612"
    },
    {
      "channel": 5,
      "note": 45,
      "start": 47.7326,
      "duration": 0.0473,
      "velocity": 107,
      "chip": "ym2612"
    },
    {
      "channel": 3,
      "note": 45,
      "start": 47.7356,
      "duration": 0.3275,
      "velocity": 127,
      "chip": "ym2612"
    },
    {
      "channel": 1,
      "note": 59,
      "start": 47.7382,
      "duration": 0.0916,
      "velocity": 127,
      "chip": "ym2612"
    },
    {
      "channel": 0,
      "note": 47,
      "start": 47.7416,
      "duration": 0.088,
      "velocity": 102,
      "chip": "ym2612"
    },
    {
      "channel": 4,
      "note": 71,
      "start": 47.85,
      "duration": 0.0798,
      "velocity": 102,
      "chip": "ym2612"
    },
    {
      "channel": 2,
      "note": 81,
      "start": 47.949,
      "duration": 0.0142,
      "velocity": 121,
      "chip": "ym2612"
    },
    {
      "channel": 1,
      "note": 59,
      "start": 47.9518,
      "duration": 0.0945,
      "velocity": 127,
      "chip": "ym2612"
    },
    {
      "channel": 5,
      "note": 59,
      "start": 47.9553,
      "duration": 0.0912,
      "velocity": 102,
      "chip": "ym2612"
    },
    {
      "channel": 3,
      "note": 57,
      "start": 48.0662,
      "duration": 0.3136,
      "velocity": 127,
      "chip": "ym2612"
    },
    {
      "channel": 4,
      "note": 59,
      "start": 48.0693,
      "duration": 0.0772,
      "velocity": 102,
      "chip": "ym2612"
    },
    {
      "channel": 0,
      "note": 47,
      "start": 48.0718,
      "duration": 0.0744,
      "velocity": 102,
      "chip": "ym2612"
    },
    {
      "channel": 2,
      "note": 45,
      "start": 48.1664,
      "duration": 0.0467,
      "velocity": 107,
      "chip": "ym2612"
    },
    {
      "channel": 1,
      "note": 59,
      "start": 48.2833,
      "duration": 0.0796,
      "velocity": 127,
      "chip": "ym2612"
    },
    {
      "channel": 5,
      "note": 59,
      "start": 48.2865,
      "duration": 0.0767,
      "velocity": 102,
      "chip": "ym2612"
    },
    {
      "channel": 2,
      "note": 81,
      "start": 48.3824,
      "duration": 0.014,
      "velocity": 121,
      "chip": "ym2612"
    },
    {
      "channel": 3,
      "note": 45,
      "start": 48.3854,
      "duration": 0.161,
      "velocity": 127,
      "chip": "ym2612"
    },
    {
      "channel": 0,
      "note": 47,
      "start": 48.3885,
      "duration": 0.0911,
      "velocity": 102,
      "chip": "ym2612"
    },
    {
      "channel": 4,
      "note": 57,
      "start": 48.5004,
      "duration": 0.0795,
      "velocity": 102,
      "chip": "ym2612"
    },
    {
      "channel": 1,
      "note": 45,
      "start": 48.5993,
      "duration": 0.0469,
      "velocity": 107,
      "chip": "ym2612"
    },
    {
      "channel": 3,
      "note": 47,
      "start": 48.6023,
      "duration": 0.194,
      "velocity": 127,
      "chip": "ym2612"
    },
    {
      "channel": 5,
      "note": 59,
      "start": 48.6052,
      "duration": 0.0912,
      "velocity": 127,
      "chip": "ym2612"
    },
    {
      "channel": 2,
      "note": 71,
      "start": 48.6087,
      "duration": 0.0878,
      "velocity": 102,
      "chip": "ym2612"
    },
    {
      "channel": 2,
      "note": 81,
      "start": 48.816,
      "duration": 0.0139,
      "velocity": 121,
      "chip": "ym2612"
    },
    {
      "channel": 5,
      "note": 59,
      "start": 48.819,
      "duration": 0.0941,
      "velocity": 127,
      "chip": "ym2612"
    },
    {
      "channel": 0,
      "note": 71,
      "start": 48.8221,
      "duration": 0.0908,
      "velocity": 102,
      "chip": "ym2612"
    },
    {
      "channel": 3,
      "note": 47,
      "start": 48.9333,
      "duration": 0.1466,
      "velocity": 127,
      "chip": "ym2612"
    },
    {
      "channel": 1,
      "note": 45,
      "start": 49.0325,
      "duration": 0.0471,
      "velocity": 107,
      "chip": "ym2612"
    },
    {
      "channel": 4,
      "note": 59,
      "start": 49.0358,
      "duration": 0.0939,
      "velocity": 102,
      "chip": "ym2612"
    },
    {
      "channel": 5,
      "note": 59,
      "start": 49.1496,
      "duration": 0.0803,
      "velocity": 127,
      "chip": "ym2612"
    },
    {
      "channel": 2,
      "note": 71,
      "start": 49.1527,
      "duration": 0.0772,
      "velocity": 102,
      "chip": "ym2612"
    },
    {
      "channel": 2,
      "note": 81,
      "start": 49.249,
      "duration": 0.0141,
      "velocity": 121,
      "chip": "ym2612"
    },
    {
      "channel": 3,
      "note": 47,
      "start": 49.2519,
      "duration": 0.1111,
      "velocity": 127,
      "chip": "ym2612"
    },
    {
      "channel": 0,
      "note": 71,
      "start": 49.2552,
      "duration": 0.1744,
      "velocity": 102,
      "chip": "ym2612"
    },
    {
      "channel": 1,
      "note": 45,
      "start": 49.4657,
      "duration": 0.0473,
      "velocity": 107,
      "chip": "ym2612"
    },
    {
      "channel": 3,
      "note": 47,
      "start": 49.4687,
      "duration": 0.1944,
      "velocity": 127,
      "chip": "ym2612"
    },
    {
      "channel": 5,
      "note": 59,
      "start": 49.4716,
      "duration": 0.0915,
      "velocity": 127,
      "chip": "ym2612"
    },
    {
      "channel": 0,
      "note": 59,
      "start": 49.4744,
      "duration": 0.5718,
      "velocity": 102,
      "chip": "ym2612"
    },
    {
      "channel": 4,
      "note": 59,
      "start": 49.4771,
      "duration": 0.0859,
      "velocity": 102,
      "chip": "ym2612"
    },
    {
      "channel": 2,
      "note": 59,
      "start": 49.4806,
      "duration": 0.0827,
      "velocity": 102,
      "chip": "ym2612"
    },
    {
      "channel": 1,
      "note": 71,
      "start": 49.5837,
      "duration": 0.0793,
      "velocity": 102,
      "chip": "ym2612"
    },
    {
      "channel": 2,
      "note": 81,
      "start": 49.6824,
      "duration": 0.0141,
      "velocity": 121,
      "chip": "ym2612"
    },
    {
      "channel": 5,
      "note": 59,
      "start": 49.6854,
      "duration": 0.0946,
      "velocity": 127,
      "chip": "ym2612"
    },
    {
      "channel": 4,
      "note": 47,
      "start": 49.6882,
      "duration": 0.0915,
      "velocity": 102,
      "chip": "ym2612"
    },
    {
      "channel": 1,
      "note": 71,
      "start": 49.6917,
      "duration": 0.0879,
      "velocity": 102,
      "chip": "ym2612"
    },
    {
      "channel": 3,
      "note": 47,
      "start": 49.7995,
      "duration": 0.1635,
      "velocity": 127,
      "chip": "ym2612"
    },
    {
      "channel": 2,
      "note": 59,
      "start": 49.8027,
      "duration": 0.0772,
      "velocity": 102,
      "chip": "ym2612"
    },
    {
      "channel": 1,
      "note": 59,
      "start": 49.8056,
      "duration": 0.0742,
      "velocity": 102,
      "chip": "ym2612"
    },
    {
      "channel": 4,
      "note": 45,
      "start": 49.8993,
      "duration": 0.0638,
      "velocity": 107,
      "chip": "ym2612"
    },
    {
      "channel": 5,
      "note": 59,
      "start": 50.0163,
      "duration": 0.0801,
      "velocity": 127,
      "chip": "ym2612"
    },
    {
      "channel": 1,
      "note": 71,
      "start": 50.0195,
      "duration": 0.0767,
      "velocity": 102,
      "chip": "ym2612"
    },
    {
      "channel": 2,
      "note": 81,
      "start": 50.1157,
      "duration": 0.0143,
      "velocity": 121,
      "chip": "ym2612"
    },
    {
      "channel": 3,
      "note": 47,
      "start": 50.1185,
      "duration": 0.0946,
      "velocity": 127,
      "chip": "ym2612"
    },
    {
      "channel": 0,
      "note": 71,
      "start": 50.1215,
      "duration": 0.0915,
      "velocity": 102,
      "chip": "ym2612"
    },
    {
      "channel": 4,
      "note": 59,
      "start": 50.1246,
      "duration": 0.0888,
      "velocity": 102,
      "chip": "ym2612"
    },
    {
      "channel": 1,
      "note": 45,
      "start": 50.3327,
      "duration": 0.0636,
      "velocity": 107,
      "chip": "ym2612"
    },
    {
      "channel": 3,
      "note": 47,
      "start": 50.3357,
      "duration": 0.1606,
      "velocity": 127,
      "chip": "ym2612"
    },
    {
      "channel": 5,
      "note": 59,
      "start": 50.3386,
      "duration": 0.0914,
      "velocity": 127,
      "chip": "ym2612"
    },
    {
      "channel": 2,
      "note": 59,
      "start": 50.3416,
      "duration": 0.0885,
      "velocity": 102,
      "chip": "ym2612"
    },
    {
      "channel": 0,
      "note": 71,
      "start": 50.3447,
      "duration": 0.085,
      "velocity": 102,
      "chip": "ym2612"
    },
    {
      "channel": 4,
      "note": 71,
      "start": 50.4503,
      "duration": 0.0796,
      "velocity": 102,
      "chip": "ym2612"
    },
    {
      "channel": 2,
      "note": 81,
      "start": 50.549,
      "duration": 0.0142,
      "velocity": 121,
      "chip": "ym2612"
    },
    {
      "channel": 5,
      "note": 59,
      "start": 50.552,
      "duration": 0.0945,
      "velocity": 127,
      "chip": "ym2612"
    },
    {
      "channel": 1,
      "note": 71,
      "start": 50.5548,
      "duration": 0.0915,
      "velocity": 102,
      "chip": "ym2612"
    },
    {
      "channel": 3,
      "note": 47,
      "start": 50.6666,
      "duration": 0.1298,
      "velocity": 127,
      "chip": "ym2612"
    },
    {
      "channel": 0,
      "note": 45,
      "start": 50.766,
      "duration": 0.0637,
      "velocity": 107,
      "chip": "ym2612"
    },
    {
      "channel": 4,
      "note": 59,
      "start": 50.7692,
      "duration": 0.0938,
      "velocity": 102,
      "chip": "ym2612"
    },
    {
      "channel": 5,
      "note": 59,
      "start": 50.883,
      "duration": 0.0801,
      "velocity": 127,
      "chip": "ym2612"
    },
    {
      "channel": 2,
      "note": 71,
      "start": 50.886,
      "duration": 0.0772,
      "velocity": 102,
      "chip": "ym2612"
    },
    {
      "channel": 2,
      "note": 81,
      "start": 50.9824,
      "duration": 0.0141,
      "velocity": 121,
      "chip": "ym2612"
    },
    {
      "channel": 3,
      "note": 47,
      "start": 50.9851,
      "duration": 0.1446,
      "velocity": 127,
      "chip": "ym2612"
    },
    {
      "channel": 1,
      "note": 71,
      "start": 50.9881,
      "duration": 0.1748,
      "velocity": 102,
      "chip": "ym2612"
    },
    {
      "channel": 0,
      "note": 45,
      "start": 51.199,
      "duration": 0.064,
      "velocity": 107,
      "chip": "ym2612"
    },
    {
      "channel": 3,
      "note": 45,
      "start": 51.202,
      "duration": 0.3278,
      "velocity": 127,
      "chip": "ym2612"
    },
    {
      "channel": 5,
      "note": 59,
      "start": 51.2052,
      "duration": 0.0912,
      "velocity": 127,
      "chip": "ym2612"
    },
    {
      "channel": 1,
      "note": 59,
      "start": 51.2081,
      "duration": 0.4382,
      "velocity": 102,
      "chip": "ym2612"
    },
    {
      "channel": 4,
      "note": 59,
      "start": 51.2108,
      "duration": 0.0856,
      "velocity": 102,
      "chip": "ym2612"
    },
    {
      "channel": 2,
      "note": 59,
      "start": 51.2138,
      "duration": 0.0828,
      "velocity": 102,
      "chip": "ym2612"
    },
    {
      "channel": 0,
      "note": 71,
      "start": 51.3169,
      "duration": 0.0794,
      "velocity": 102,
      "chip": "ym2612"
    },
    {
      "channel": 2,
      "note": 81,
      "start": 51.4158,
      "duration": 0.0141,
      "velocity": 121,
      "chip": "ym2612"
    },
    {
      "channel": 5,
      "note": 59,
      "start": 51.4187,
      "duration": 0.0946,
      "velocity": 127,
      "chip": "ym2612"
    },
    {
      "channel": 4,
      "note": 47,
      "start": 51.422,
      "duration": 0.0912,
      "velocity": 102,
      "chip": "ym2612"
    },
    {
      "channel": 0,
      "note": 71,
      "start": 51.4251,
      "duration": 0.0879,
      "velocity": 102,
      "chip": "ym2612"
    },
    {
      "channel": 3,
      "note": 57,
      "start": 51.5329,
      "duration": 0.3135,
      "velocity": 127,
      "chip": "ym2612"
    },
    {
      "channel": 2,
      "note": 59,
      "start": 51.5361,
      "duration": 0.0772,
      "velocity": 102,
      "chip": "ym2612"
    },
    {
      "channel": 0,
      "note": 59,
      "start": 51.5389,
      "duration": 0.0741,
      "velocity": 102,
      "chip": "ym2612"
    },
    {
      "channel": 4,
      "note": 45,
      "start": 51.6327,
      "duration": 0.0637,
      "velocity": 107,
      "chip": "ym2612"
    },
    {
      "channel": 5,
      "note": 57,
      "start": 51.6365,
      "duration": 0.1935,
      "velocity": 102,
      "chip": "ym2612"
    },
    {
      "channel": 0,
      "note": 59,
      "start": 51.7497,
      "duration": 0.08,
      "velocity": 127,
      "chip": "ym2612"
    },
    {
      "channel": 2,
      "note": 71,
      "start": 51.753,
      "duration": 0.0771,
      "velocity": 102,
      "chip": "ym2612"
    },
    {
      "channel": 2,
      "note": 81,
      "start": 51.8491,
      "duration": 0.014,
      "velocity": 121,
      "chip": "ym2612"
    },
    {
      "channel": 3,
      "note": 45,
      "start": 51.852,
      "duration": 0.161,
      "velocity": 127,
      "chip": "ym2612"
    },
    {
      "channel": 1,
      "note": 45,
      "start": 51.8552,
      "duration": 0.0911,
      "velocity": 102,
      "chip": "ym2612"
    },
    {
      "channel": 4,
      "note": 59,
      "start": 51.8582,
      "duration": 0.0882,
      "velocity": 102,
      "chip": "ym2612"
    },
    {
      "channel": 0,
      "note": 57,
      "start": 51.9672,
      "duration": 0.0791,
      "velocity": 102,
      "chip": "ym2612"
    },
    {
      "channel": 5,
      "note": 45,
      "start": 52.066,
      "duration": 0.0639,
      "velocity": 107,
      "chip": "ym2612"
    },
    {
      "channel": 3,
      "note": 47,
      "start": 52.069,
      "duration": 0.194,
      "velocity": 127,
      "chip": "ym2612"
    },
    {
      "channel": 2,
      "note": 59,
      "start": 52.072,
      "duration": 0.0914,
      "velocity": 127,
      "chip": "ym2612"
    },
    {
      "channel": 1,
      "note": 71,
      "start": 52.0755,
      "duration": 0.0876,
      "velocity": 102,
      "chip": "ym2612"
    },
    {
      "channel": 2,
      "note": 81,
      "start": 52.2824,
      "duration": 0.0308,
      "velocity": 121,
      "chip": "ym2612"
    },
    {
      "channel": 4,
      "note": 59,
      "start": 52.2855,
      "duration": 0.0943,
      "velocity": 127,
      "chip": "ym2612"
    },
    {
      "channel": 0,
      "note": 71,
      "start": 52.2886,
      "duration": 0.091,
      "velocity": 102,
      "chip": "ym2612"
    },
    {
      "channel": 3,
      "note": 47,
      "start": 52.3996,
      "duration": 0.1634,
      "velocity": 127,
      "chip": "ym2612"
    },
    {
      "channel": 5,
      "note": 45,
      "start": 52.4992,
      "duration": 0.0639,
      "velocity": 107,
      "chip": "ym2612"
    },
    {
      "channel": 1,
      "note": 59,
      "start": 52.5026,
      "duration": 0.0937,
      "velocity": 102,
      "chip": "ym2612"
    },
    {
      "channel": 4,
      "note": 59,
      "start": 52.6163,
      "duration": 0.0801,
      "velocity": 127,
      "chip": "ym2612"
    },
    {
      "channel": 2,
      "note": 71,
      "start": 52.6195,
      "duration": 0.0771,
      "velocity": 102,
      "chip": "ym2612"
    },
    {
      "channel": 2,
      "note": 81,
      "start": 52.7157,
      "duration": 0.0308,
      "velocity": 121,
      "chip": "ym2612"
    },
    {
      "channel": 3,
      "note": 47,
      "start": 52.7189,
      "duration": 0.1109,
      "velocity": 127,
      "chip": "ym2612"
    },
    {
      "channel": 0,
      "note": 71,
      "start": 52.7218,
      "duration": 0.1744,
      "velocity": 102,
      "chip": "ym2612"
    },
    {
      "channel": 5,
      "note": 45,
      "start": 52.9326,
      "duration": 0.0639,
      "velocity": 107,
      "chip": "ym2612"
    },
    {
      "channel": 3,
      "note": 47,
      "start": 52.9356,
      "duration": 0.1941,
      "velocity": 127,
      "chip": "ym2612"
    },
    {
      "channel": 4,
      "note": 59,
      "start": 52.9384,
      "duration": 0.0915,
      "velocity": 127,
      "chip": "ym2612"
    },
    {
      "channel": 0,
      "note": 59,
      "start": 52.9412,
      "duration": 0.5718,
      "velocity": 102,
      "chip": "ym2612"
    },
    {
      "channel": 1,
      "note": 59,
      "start": 52.9438,
      "duration": 0.0859,
      "velocity": 102,
      "chip": "ym2612"
    },
    {
      "channel": 2,
      "note": 59,
      "start": 52.9468,
      "duration": 0.0833,
      "velocity": 102,
      "chip": "ym2612"
    },
    {
      "channel": 5,
      "note": 71,
      "start": 53.0502,
      "duration": 0.0798,
      "velocity": 102,
      "chip": "ym2612"
    },
    {
      "channel": 2,
      "note": 81,
      "start": 53.1657,
      "duration": 0.0142,
      "velocity": 121,
      "chip": "ym2612"
    },
    {
      "channel": 4,
      "note": 59,
      "start": 53.1686,
      "duration": 0.0779,
      "velocity": 127,
      "chip": "ym2612"
    },
    {
      "channel": 1,
      "note": 47,
      "start": 53.1713,
      "duration": 0.0749,
      "velocity": 102,
      "chip": "ym2612"
    },
    {
      "channel": 3,
      "note": 71,
      "start": 53.1744,
      "duration": 0.072,
      "velocity": 102,
      "chip": "ym2612"
    },
    {
      "channel": 5,
      "note": 47,
      "start": 53.2665,
      "duration": 0.1635,
      "velocity": 127,
      "chip": "ym2612"
    },
    {
      "channel": 2,
      "note": 59,
      "start": 53.2697,
      "duration": 0.0769,
      "velocity": 102,
      "chip": "ym2612"
    },
    {
      "channel": 1,
      "note": 59,
      "start": 53.2725,
      "duration": 0.0739,
      "velocity": 102,
      "chip": "ym2612"
    },
    {
      "channel": 3,
      "note": 45,
      "start": 53.3827,
      "duration": 0.0471,
      "velocity": 107,
      "chip": "ym2612"
    },
    {
      "channel": 4,
      "note": 59,
      "start": 53.4829,
      "duration": 0.0802,
      "velocity": 127,
      "chip": "ym2612"
    },
    {
      "channel": 1,
      "note": 71,
      "start": 53.4862,
      "duration": 0.0768,
      "velocity": 102,
      "chip": "ym2612"
    },
    {
      "channel": 2,
      "note": 81,
      "start": 53.599,
      "duration": 0.0141,
      "velocity": 121,
      "chip": "ym2612"
    },
    {
      "channel": 5,
      "note": 47,
      "start": 53.602,
      "duration": 0.0779,
      "velocity": 127,
      "chip": "ym2612"
    },
    {
      "channel": 0,
      "note": 71,
      "start": 53.6049,
      "duration": 0.0748,
      "velocity": 102,
      "chip": "ym2612"
    },
    {
      "channel": 3,
      "note": 59,
      "start": 53.608,
      "duration": 0.0717,
      "velocity": 102,
      "chip": "ym2612"
    },
    {
      "channel": 1,
      "note": 45,
      "start": 53.816,
      "duration": 0.047,
      "velocity": 107,
      "chip": "ym2612"
    },
    {
      "channel": 5,
      "note": 47,
      "start": 53.819,
      "duration": 0.144,
      "velocity": 127,
      "chip": "ym2612"
    },
    {
      "channel": 4,
      "note": 59,
      "start": 53.8223,
      "duration": 0.0742,
      "velocity": 127,
      "chip": "ym2612"
    },
    {
      "channel": 2,
      "note": 59,
      "start": 53.8253,
      "duration": 0.0714,
      "velocity": 102,
      "chip": "ym2612"
    },
    {
      "channel": 0,
      "note": 59,
      "start": 53.8284,
      "duration": 0.0679,
      "velocity": 102,
      "chip": "ym2612"
    },
    {
      "channel": 3,
      "note": 71,
      "start": 53.9168,
      "duration": 0.0795,
      "velocity": 102,
      "chip": "ym2612"
    },
    {
      "channel": 2,
      "note": 81,
      "start": 54.0324,
      "duration": 0.014,
      "velocity": 121,
      "chip": "ym2612"
    },
    {
      "channel": 1,
      "note": 71,
      "start": 54.0354,
      "duration": 0.0776,
      "velocity": 102,
      "chip": "ym2612"
    },
    {
      "channel": 5,
      "note": 47,
      "start": 54.133,
      "duration": 0.1468,
      "velocity": 127,
      "chip": "ym2612"
    },
    {
      "channel": 0,
      "note": 45,
      "start": 54.2493,
      "duration": 0.0469,
      "velocity": 107,
      "chip": "ym2612"
    },
    {
      "channel": 4,
      "note": 71,
      "start": 54.2524,
      "duration": 0.0776,
      "velocity": 127,
      "chip": "ym2612"
    },
    {
      "channel": 3,
      "note": 59,
      "start": 54.2552,
      "duration": 0.0745,
      "velocity": 102,
      "chip": "ym2612"
    },
    {
      "channel": 2,
      "note": 71,
      "start": 54.35,
      "duration": 0.0964,
      "velocity": 102,
      "chip": "ym2612"
    },
    {
      "channel": 2,
      "note": 81,
      "start": 54.4657,
      "duration": 0.0142,
      "velocity": 121,
      "chip": "ym2612"
    },
    {
      "channel": 5,
      "note": 47,
      "start": 54.4688,
      "duration": 0.1276,
      "velocity": 127,
      "chip": "ym2612"
    },
    {
      "channel": 4,
      "note": 71,
      "start": 54.4717,
      "duration": 0.0746,
      "velocity": 127,
      "chip": "ym2612"
    },
    {
      "channel": 1,
      "note": 71,
      "start": 54.4749,
      "duration": 0.1549,
      "velocity": 102,
      "chip": "ym2612"
    },
    {
      "channel": 0,
      "note": 45,
      "start": 54.6823,
      "duration": 0.0473,
      "velocity": 107,
      "chip": "ym2612"
    },
    {
      "channel": 5,
      "note": 45,
      "start": 54.6854,
      "duration": 0.311,
      "velocity": 127,
      "chip": "ym2612"
    },
    {
      "channel": 1,
      "note": 59,
      "start": 54.6884,
      "duration": 0.4412,
      "velocity": 102,
      "chip": "ym2612"
    },
    {
      "channel": 3,
      "note": 59,
      "start": 54.691,
      "duration": 0.072,
      "velocity": 102,
      "chip": "ym2612"
    },
    {
      "channel": 2,
      "note": 47,
      "start": 54.6945,
      "duration": 0.0688,
      "velocity": 102,
      "chip": "ym2612"
    },
    {
      "channel": 4,
      "note": 71,
      "start": 54.783,
      "duration": 0.0968,
      "velocity": 127,
      "chip": "ym2612"
    },
    {
      "channel": 0,
      "note": 71,
      "start": 54.7861,
      "duration": 0.0935,
      "velocity": 102,
      "chip": "ym2612"
    },
    {
      "channel": 2,
      "note": 81,
      "start": 54.899,
      "duration": 0.0141,
      "velocity": 121,
      "chip": "ym2612"
    },
    {
      "channel": 3,
      "note": 47,
      "start": 54.9025,
      "duration": 0.0774,
      "velocity": 102,
      "chip": "ym2612"
    },
    {
      "channel": 0,
      "note": 59,
      "start": 54.906,
      "duration": 0.0737,
      "velocity": 102,
      "chip": "ym2612"
    },
    {
      "channel": 5,
      "note": 57,
      "start": 54.9996,
      "duration": 0.3302,
      "velocity": 127,
      "chip": "ym2612"
    },
    {
      "channel": 4,
      "note": 59,
      "start": 55.0028,
      "duration": 0.0935,
      "velocity": 102,
      "chip": "ym2612"
    },
    {
      "channel": 2,
      "note": 47,
      "start": 55.0056,
      "duration": 0.0909,
      "velocity": 102,
      "chip": "ym2612"
    },
    {
      "channel": 0,
      "note": 45,
      "start": 55.1163,
      "duration": 0.0466,
      "velocity": 107,
      "chip": "ym2612"
    },
    {
      "channel": 3,
      "note": 71,
      "start": 55.1194,
      "duration": 0.0769,
      "velocity": 127,
      "chip": "ym2612"
    },
    {
      "channel": 4,
      "note": 57,
      "start": 55.1226,
      "duration": 0.1905,
      "velocity": 102,
      "chip": "ym2612"
    },
    {
      "channel": 2,
      "note": 59,
      "start": 55.2171,
      "duration": 0.0963,
      "velocity": 102,
      "chip": "ym2612"
    },
    {
      "channel": 2,
      "note": 81,
      "start": 55.3324,
      "duration": 0.014,
      "velocity": 121,
      "chip": "ym2612"
    },
    {
      "channel": 5,
      "note": 45,
      "start": 55.3354,
      "duration": 0.1443,
      "velocity": 127,
      "chip": "ym2612"
    },
    {
      "channel": 3,
      "note": 69,
      "start": 55.338,
      "duration": 0.0751,
      "velocity": 127,
      "chip": "ym2612"
    },
    {
      "channel": 1,
      "note": 45,
      "start": 55.3412,
      "duration": 0.0719,
      "velocity": 102,
      "chip": "ym2612"
    },
    {
      "channel": 0,
      "note": 47,
      "start": 55.3443,
      "duration": 0.0686,
      "velocity": 102,
      "chip": "ym2612"
    },
    {
      "channel": 4,
      "note": 57,
      "start": 55.4341,
      "duration": 0.0957,
      "velocity": 102,
      "chip": "ym2612"
    },
    {
      "channel": 2,
      "note": 45,
      "start": 55.5493,
      "duration": 0.0472,
      "velocity": 107,
      "chip": "ym2612"
    },
    {
      "channel": 5,
      "note": 49,
      "start": 55.5524,
      "duration": 0.1941,
      "velocity": 127,
      "chip": "ym2612"
    },
    {
      "channel": 3,
      "note": 61,
      "start": 55.555,
      "duration": 0.0748,
      "velocity": 127,
      "chip": "ym2612"
    },
    {
      "channel": 0,
      "note": 49,
      "start": 55.559,
      "duration": 2.5207,
      "velocity": 124,
      "chip": "ym2612"
    },
    {
      "channel": 1,
      "note": 71,
      "start": 55.562,
      "duration": 0.0677,
      "velocity": 102,
      "chip": "ym2612"
    },
    {
      "channel": 4,
      "note": 73,
      "start": 55.65,
      "duration": 0.0964,
      "velocity": 127,
      "chip": "ym2612"
    },
    {
      "channel": 2,
      "note": 81,
      "start": 55.766,
      "duration": 0.0138,
      "velocity": 121,
      "chip": "ym2612"
    },
    {
      "channel": 3,
      "note": 61,
      "start": 55.769,
      "duration": 0.0774,
      "velocity": 127,
      "chip": "ym2612"
    },
    {
      "channel": 5,
      "note": 49,
      "start": 55.8663,
      "duration": 0.1636,
      "velocity": 127,
      "chip": "ym2612"
    },
    {
      "channel": 1,
      "note": 45,
      "start": 55.9827,
      "duration": 0.0471,
      "velocity": 107,
      "chip": "ym2612"
    },
    {
      "channel": 4,
      "note": 73,
      "start": 55.9856,
      "duration": 0.0775,
      "velocity": 127,
      "chip": "ym2612"
    },
    {
      "channel": 3,
      "note": 61,
      "start": 56.0829,
      "duration": 0.0969,
      "velocity": 127,
      "chip": "ym2612"
    },
    {
      "channel": 2,
      "note": 81,
      "start": 56.199,
      "duration": 0.0142,
      "velocity": 121,
      "chip": "ym2612"
    },
    {
      "channel": 5,
      "note": 49,
      "start": 56.2024,
      "duration": 0.0941,
      "velocity": 127,
      "chip": "ym2612"
    },
    {
      "channel": 4,
      "note": 73,
      "start": 56.3,
      "duration": 0.0964,
      "velocity": 127,
      "chip": "ym2612"
    },
    {
      "channel": 1,
      "note": 45,
      "start": 56.4158,
      "duration": 0.0473,
      "velocity": 107,
      "chip": "ym2612"
    },
    {
      "channel": 5,
      "note": 49,
      "start": 56.4188,
      "duration": 0.1944,
      "velocity": 127,
      "chip": "ym2612"
    },
    {
      "channel": 3,
      "note": 61,
      "start": 56.4216,
      "duration": 0.0748,
      "velocity": 127,
      "chip": "ym2612"
    },
    {
      "channel": 4,
      "note": 73,
      "start": 56.5165,
      "duration": 0.0966,
      "velocity": 127,
      "chip": "ym2612"
    },
    {
      "channel": 2,
      "note": 81,
      "start": 56.6325,
      "duration": 0.0139,
      "velocity": 121,
      "chip": "ym2612"
    },
    {
      "channel": 3,
      "note": 61,
      "start": 56.6358,
      "duration": 0.0773,
      "velocity": 127,
      "chip": "ym2612"
    },
    {
      "channel": 5,
      "note": 49,
      "start": 56.733,
      "duration": 0.1635,
      "velocity": 127,
      "chip": "ym2612"
    },
    {
      "channel": 1,
      "note": 45,
      "start": 56.849,
      "duration": 0.0473,
      "velocity": 107,
      "chip": "ym2612"
    },
    {
      "channel": 4,
      "note": 73,
      "start": 56.8519,
      "duration": 0.0779,
      "velocity": 127,
      "chip": "ym2612"
    },
    {
      "channel": 3,
      "note": 61,
      "start": 56.9495,
      "duration": 0.0968,
      "velocity": 127,
      "chip": "ym2612"
    },
    {
      "channel": 2,
      "note": 81,
      "start": 57.0657,
      "duration": 0.0142,
      "velocity": 121,
      "chip": "ym2612"
    },
    {
      "channel": 5,
      "note": 49,
      "start": 57.0687,
      "duration": 0.0777,
      "velocity": 127,
      "chip": "ym2612"
    },
    {
      "channel": 4,
      "note": 73,
      "start": 57.1666,
      "duration": 0.0965,
      "velocity": 127,
      "chip": "ym2612"
    },
    {
      "channel": 1,
      "note": 45,
      "start": 57.2824,
      "duration": 0.0473,
      "velocity": 107,
      "chip": "ym2612"
    },
    {
      "channel": 5,
      "note": 49,
      "start": 57.2856,
      "duration": 0.1609,
      "velocity": 127,
      "chip": "ym2612"
    },
    {
      "channel": 3,
      "note": 61,
      "start": 57.2883,
      "duration": 0.0748,
      "velocity": 127,
      "chip": "ym2612"
    },
    {
      "channel": 4,
      "note": 73,
      "start": 57.3836,
      "duration": 0.0962,
      "velocity": 127,
      "chip": "ym2612"
    },
    {
      "channel": 2,
      "note": 81,
      "start": 57.4989,
      "duration": 0.0142,
      "velocity": 121,
      "chip": "ym2612"
    },
    {
      "channel": 3,
      "note": 61,
      "start": 57.5018,
      "duration": 0.078,
      "velocity": 127,
      "chip": "ym2612"
    },
    {
      "channel": 5,
      "note": 49,
      "start": 57.5996,
      "duration": 0.1468,
      "velocity": 127,
      "chip": "ym2612"
    },
    {
      "channel": 1,
      "note": 45,
      "start": 57.7157,
      "duration": 0.0473,
      "velocity": 107,
      "chip": "ym2612"
    },
    {
      "channel": 4,
      "note": 73,
      "start": 57.7187,
      "duration": 0.0777,
      "velocity": 127,
      "chip": "ym2612"
    },
    {
      "channel": 3,
      "note": 61,
      "start": 57.8162,
      "duration": 0.0968,
      "velocity": 127,
      "chip": "ym2612"
    },
    {
      "channel": 2,
      "note": 81,
      "start": 57.9325,
      "duration": 0.014,
      "velocity": 121,
      "chip": "ym2612"
    },
    {
      "channel": 5,
      "note": 49,
      "start": 57.9353,
      "duration": 0.1447,
      "velocity": 127,
      "chip": "ym2612"
    },
    {
      "channel": 4,
      "note": 73,
      "start": 58.0332,
      "duration": 0.0966,
      "velocity": 127,
      "chip": "ym2612"
    },
    {
      "channel": 1,
      "note": 45,
      "start": 58.149,
      "duration": 0.0472,
      "velocity": 107,
      "chip": "ym2612"
    },
    {
      "channel": 5,
      "note": 47,
      "start": 58.1526,
      "duration": 0.3106,
      "velocity": 127,
      "chip": "ym2612"
    },
    {
      "channel": 3,
      "note": 61,
      "start": 58.1553,
      "duration": 0.0745,
      "velocity": 127,
      "chip": "ym2612"
    },
    {
      "channel": 4,
      "note": 73,
      "start": 58.2499,
      "duration": 0.0966,
      "velocity": 127,
      "chip": "ym2612"
    },
    {
      "channel": 2,
      "note": 81,
      "start": 58.3657,
      "duration": 0.0142,
      "velocity": 121,
      "chip": "ym2612"
    },
    {
      "channel": 3,
      "note": 61,
      "start": 58.3685,
      "duration": 0.0778,
      "velocity": 127,
      "chip": "ym2612"
    },
    {
      "channel": 5,
      "note": 59,
      "start": 58.4663,
      "duration": 0.3301,
      "velocity": 127,
      "chip": "ym2612"
    },
    {
      "channel": 1,
      "note": 45,
      "start": 58.5825,
      "duration": 0.0471,
      "velocity": 107,
      "chip": "ym2612"
    },
    {
      "channel": 4,
      "note": 73,
      "start": 58.5854,
      "duration": 0.0777,
      "velocity": 127,
      "chip": "ym2612"
    },
    {
      "channel": 3,
      "note": 61,
      "start": 58.6829,
      "duration": 0.0969,
      "velocity": 127,
      "chip": "ym2612"
    },
    {
      "channel": 2,
      "note": 81,
      "start": 58.799,
      "duration": 0.0141,
      "velocity": 121,
      "chip": "ym2612"
    },
    {
      "channel": 5,
      "note": 47,
      "start": 58.802,
      "duration": 0.1611,
      "velocity": 127,
      "chip": "ym2612"
    },
    {
      "channel": 4,
      "note": 73,
      "start": 58.8998,
      "duration": 0.0966,
      "velocity": 127,
      "chip": "ym2612"
    },
    {
      "channel": 1,
      "note": 45,
      "start": 59.0158,
      "duration": 0.0472,
      "velocity": 107,
      "chip": "ym2612"
    },
    {
      "channel": 5,
      "note": 49,
      "start": 59.0188,
      "duration": 0.1944,
      "velocity": 127,
      "chip": "ym2612"
    },
    {
      "channel": 3,
      "note": 61,
      "start": 59.0216,
      "duration": 0.0747,
      "velocity": 127,
      "chip": "ym2612"
    },
    {
      "channel": 4,
      "note": 73,
      "start": 59.1166,
      "duration": 0.0966,
      "velocity": 127,
      "chip": "ym2612"
    },
    {
      "channel": 2,
      "note": 81,
      "start": 59.2324,
      "duration": 0.014,
      "velocity": 121,
      "chip": "ym2612"
    },
    {
      "channel": 3,
      "note": 61,
      "start": 59.2353,
      "duration": 0.0778,
      "velocity": 127,
      "chip": "ym2612"
    },
    {
      "channel": 5,
      "note": 49,
      "start": 59.333,
      "duration": 0.1635,
      "velocity": 127,
      "chip": "ym2612"
    },
    {
      "channel": 1,
      "note": 45,
      "start": 59.449,
      "duration": 0.0473,
      "velocity": 107,
      "chip": "ym2612"
    },
    {
      "channel": 4,
      "note": 73,
      "start": 59.4519,
      "duration": 0.0778,
      "velocity": 127,
      "chip": "ym2612"
    },
    {
      "channel": 3,
      "note": 61,
      "start": 59.5666,
      "duration": 0.0797,
      "velocity": 127,
      "chip": "ym2612"
    },
    {
      "channel": 2,
      "note": 81,
      "start": 59.6657,
      "duration": 0.0141,
      "velocity": 121,
      "chip": "ym2612"
    },
    {
      "channel": 5,
      "note": 49,
      "start": 59.6687,
      "duration": 0.1112,
      "velocity": 127,
      "chip": "ym2612"
    },
    {
      "channel": 4,
      "note": 73,
      "start": 59.7833,
      "duration": 0.0797,
      "velocity": 127,
      "chip": "ym2612"
    },
    {
      "channel": 1,
      "note": 45,
      "start": 59.8824,
      "duration": 0.0472,
      "velocity": 107,
      "chip": "ym2612"
    },
    {
      "channel": 5,
      "note": 49,
      "start": 59.8859,
      "duration": 0.1941,
      "velocity": 127,
      "chip": "ym2612"
    },
    {
      "channel": 3,
      "note": 61,
      "start": 59.8886,
      "duration": 0.0744,
      "velocity": 127,
      "chip": "ym2612"
    },
    {
      "channel": 4,
      "note": 73,
      "start": 59.9999,
      "duration": 0.0799,
      "velocity": 127,
      "chip": "ym2612"
    },
    {
      "channel": 2,
      "note": 81,
      "start": 60.0989,
      "duration": 0.0143,
      "velocity": 121,
      "chip": "ym2612"
    },
    {
      "channel": 3,
      "note": 61,
      "start": 60.1019,
      "duration": 0.0779,
      "velocity": 127,
      "chip": "ym2612"
    },
    {
      "channel": 5,
      "note": 49,
      "start": 60.2163,
      "duration": 0.1468,
      "velocity": 127,
      "chip": "ym2612"
    },
    {
      "channel": 1,
      "note": 45,
      "start": 60.3157,
      "duration": 0.0473,
      "velocity": 107,
      "chip": "ym2612"
    },
    {
      "channel": 4,
      "note": 73,
      "start": 60.319,
      "duration": 0.0774,
      "velocity": 127,
      "chip": "ym2612"
    },
    {
      "channel": 3,
      "note": 61,
      "start": 60.4329,
      "duration": 0.0801,
      "velocity": 127,
      "chip": "ym2612"
    },
    {
      "channel": 2,
      "note": 81,
      "start": 60.5324,
      "duration": 0.014,
      "velocity": 121,
      "chip": "ym2612"
    },
    {
      "channel": 5,
      "note": 49,
      "start": 60.5354,
      "duration": 0.0944,
      "velocity": 127,
      "chip": "ym2612"
    },
    {
      "channel": 4,
      "note": 73,
      "start": 60.6498,
      "duration": 0.0799,
      "velocity": 127,
      "chip": "ym2612"
    },
    {
      "channel": 1,
      "note": 45,
      "start": 60.7491,
      "duration": 0.0472,
      "velocity": 107,
      "chip": "ym2612"
    },
    {
      "channel": 5,
      "note": 49,
      "start": 60.7522,
      "duration": 0.1609,
      "velocity": 127,
      "chip": "ym2612"
    },
    {
      "channel": 3,
      "note": 61,
      "start": 60.755,
      "duration": 0.0914,
      "velocity": 127,
      "chip": "ym2612"
    },
    {
      "channel": 4,
      "note": 73,
      "start": 60.8666,
      "duration": 0.0798,
      "velocity": 127,
      "chip": "ym2612"
    },
    {
      "channel": 2,
      "note": 81,
      "start": 60.9657,
      "duration": 0.0142,
      "velocity": 121,
      "chip": "ym2612"
    },
    {
      "channel": 3,
      "note": 61,
      "start": 60.9685,
      "duration": 0.0944,
      "velocity": 127,
      "chip": "ym2612"
    },
    {
      "channel": 5,
      "note": 49,
      "start": 61.083,
      "duration": 0.1301,
      "velocity": 127,
      "chip": "ym2612"
    },
    {
      "channel": 1,
      "note": 45,
      "start": 61.1824,
      "duration": 0.0474,
      "velocity": 107,
      "chip": "ym2612"
    },
    {
      "channel": 4,
      "note": 73,
      "start": 61.1853,
      "duration": 0.0945,
      "velocity": 127,
      "chip": "ym2612"
    },
    {
      "channel": 3,
      "note": 61,
      "start": 61.2995,
      "duration": 0.0803,
      "velocity": 127,
      "chip": "ym2612"
    },
    {
      "channel": 2,
      "note": 81,
      "start": 61.399,
      "duration": 0.0142,
      "velocity": 121,
      "chip": "ym2612"
    },
    {
      "channel": 5,
      "note": 49,
      "start": 61.4019,
      "duration": 0.1446,
      "velocity": 127,
      "chip": "ym2612"
    },
    {
      "channel": 4,
      "note": 73,
      "start": 61.5165,
      "duration": 0.0798,
      "velocity": 127,
      "chip": "ym2612"
    },
    {
      "channel": 1,
      "note": 45,
      "start": 61.6157,
      "duration": 0.0472,
      "velocity": 107,
      "chip": "ym2612"
    },
    {
      "channel": 5,
      "note": 47,
      "start": 61.6192,
      "duration": 0.3273,
      "velocity": 127,
      "chip": "ym2612"
    },
    {
      "channel": 3,
      "note": 61,
      "start": 61.622,
      "duration": 0.0911,
      "velocity": 127,
      "chip": "ym2612"
    },
    {
      "channel": 4,
      "note": 73,
      "start": 61.7332,
      "duration": 0.0798,
      "velocity": 127,
      "chip": "ym2612"
    },
    {
      "channel": 2,
      "note": 81,
      "start": 61.8324,
      "duration": 0.0141,
      "velocity": 121,
      "chip": "ym2612"
    },
    {
      "channel": 3,
      "note": 61,
      "start": 61.8353,
      "duration": 0.0944,
      "velocity": 127,
      "chip": "ym2612"
    },
    {
      "channel": 5,
      "note": 59,
      "start": 61.9496,
      "duration": 0.3135,
      "velocity": 127,
      "chip": "ym2612"
    },
    {
      "channel": 1,
      "note": 45,
      "start": 62.0495,
      "duration": 0.0468,
      "velocity": 107,
      "chip": "ym2612"
    },
    {
      "channel": 4,
      "note": 73,
      "start": 62.0524,
      "duration": 0.094,
      "velocity": 127,
      "chip": "ym2612"
    },
    {
      "channel": 3,
      "note": 61,
      "start": 62.1662,
      "duration": 0.08,
      "velocity": 127,
      "chip": "ym2612"
    },
    {
      "channel": 2,
      "note": 81,
      "start": 62.2657,
      "duration": 0.0142,
      "velocity": 121,
      "chip": "ym2612"
    },
    {
      "channel": 5,
      "note": 47,
      "start": 62.2687,
      "duration": 0.1611,
      "velocity": 127,
      "chip": "ym2612"
    },
    {
      "channel": 4,
      "note": 73,
      "start": 62.3832,
      "duration": 0.0799,
      "velocity": 127,
      "chip": "ym2612"
    },
    {
      "channel": 1,
      "note": 45,
      "start": 62.4824,
      "duration": 0.0473,
      "velocity": 107,
      "chip": "ym2612"
    },
    {
      "channel": 5,
      "note": 49,
      "start": 62.4856,
      "duration": 0.1943,
      "velocity": 127,
      "chip": "ym2612"
    },
    {
      "channel": 3,
      "note": 61,
      "start": 62.4887,
      "duration": 0.0912,
      "velocity": 127,
      "chip": "ym2612"
    },
    {
      "channel": 0,
      "note": 61,
      "start": 62.4917,
      "duration": 0.0879,
      "velocity": 102,
      "chip": "ym2612"
    },
    {
      "channel": 4,
      "note": 73,
      "start": 62.5998,
      "duration": 0.0799,
      "velocity": 127,
      "chip": "ym2612"
    },
    {
      "channel": 2,
      "note": 81,
      "start": 62.6996,
      "duration": 0.0136,
      "velocity": 121,
      "chip": "ym2612"
    },
    {
      "channel": 3,
      "note": 61,
      "start": 62.7025,
      "duration": 0.0938,
      "velocity": 127,
      "chip": "ym2612"
    },
    {
      "channel": 5,
      "note": 49,
      "start": 62.8163,
      "duration": 0.1636,
      "velocity": 127,
      "chip": "ym2612"
    },
    {
      "channel": 1,
      "note": 61,
      "start": 62.8195,
      "duration": 0.0767,
      "velocity": 102,
      "chip": "ym2612"
    },
    {
      "channel": 0,
      "note": 45,
      "start": 62.916,
      "duration": 0.0637,
      "velocity": 107,
      "chip": "ym2612"
    },
    {
      "channel": 4,
      "note": 73,
      "start": 62.919,
      "duration": 0.094,
      "velocity": 127,
      "chip": "ym2612"
    },
    {
      "channel": 3,
      "note": 61,
      "start": 63.0329,
      "duration": 0.0801,
      "velocity": 127,
      "chip": "ym2612"
    },
    {
      "channel": 2,
      "note": 73,
      "start": 63.0361,
      "duration": 0.0772,
      "velocity": 102,
      "chip": "ym2612"
    },
    {
      "channel": 2,
      "note": 81,
      "start": 63.1324,
      "duration": 0.0141,
      "velocity": 121,
      "chip": "ym2612"
    },
    {
      "channel": 5,
      "note": 49,
      "start": 63.1354,
      "duration": 0.111,
      "velocity": 127,
      "chip": "ym2612"
    },
    {
      "channel": 1,
      "note": 61,
      "start": 63.1384,
      "duration": 0.0912,
      "velocity": 102,
      "chip": "ym2612"
    },
    {
      "channel": 4,
      "note": 73,
      "start": 63.2503,
      "duration": 0.0795,
      "velocity": 127,
      "chip": "ym2612"
    },
    {
      "channel": 0,
      "note": 45,
      "start": 63.3489,
      "duration": 0.064,
      "velocity": 107,
      "chip": "ym2612"
    },
    {
      "channel": 5,
      "note": 49,
      "start": 63.352,
      "duration": 0.1945,
      "velocity": 127,
      "chip": "ym2612"
    },
    {
      "channel": 3,
      "note": 61,
      "start": 63.3549,
      "duration": 0.0915,
      "velocity": 127,
      "chip": "ym2612"
    },
    {
      "channel": 4,
      "note": 73,
      "start": 63.4666,
      "duration": 0.0798,
      "velocity": 127,
      "chip": "ym2612"
    },
    {
      "channel": 2,
      "note": 61,
      "start": 63.4695,
      "duration": 0.0772,
      "velocity": 102,
      "chip": "ym2612"
    },
    {
      "channel": 2,
      "note": 81,
      "start": 63.5656,
      "duration": 0.0142,
      "velocity": 121,
      "chip": "ym2612"
    },
    {
      "channel": 3,
      "note": 61,
      "start": 63.5685,
      "duration": 0.0945,
      "velocity": 127,
      "chip": "ym2612"
    },
    {
      "channel": 1,
      "note": 61,
      "start": 63.5712,
      "duration": 0.0917,
      "velocity": 102,
      "chip": "ym2612"
    },
    {
      "channel": 5,
      "note": 49,
      "start": 63.6833,
      "duration": 0.1632,
      "velocity": 127,
      "chip": "ym2612"
    },
    {
      "channel": 0,
      "note": 73,
      "start": 63.6866,
      "duration": 0.0763,
      "velocity": 102,
      "chip": "ym2612"
    },
    {
      "channel": 4,
      "note": 45,
      "start": 63.7827,
      "duration": 0.0637,
      "velocity": 107,
      "chip": "ym2612"
    },
    {
      "channel": 2,
      "note": 73,
      "start": 63.7859,
      "duration": 0.0939,
      "velocity": 127,
      "chip": "ym2612"
    },
    {
      "channel": 3,
      "note": 61,
      "start": 63.8996,
      "duration": 0.0802,
      "velocity": 127,
      "chip": "ym2612"
    },
    {
      "channel": 1,
      "note": 61,
      "start": 63.9026,
      "duration": 0.077,
      "velocity": 102,
      "chip": "ym2612"
    },
    {
      "channel": 2,
      "note": 81,
      "start": 63.999,
      "duration": 0.0141,
      "velocity": 121,
      "chip": "ym2612"
    },
    {
      "channel": 5,
      "note": 49,
      "start": 64.002,
      "duration": 0.0945,
      "velocity": 127,
      "chip": "ym2612"
    },
    {
      "channel": 0,
      "note": 73,
      "start": 64.1167,
      "duration": 0.0795,
      "velocity": 127,
      "chip": "ym2612"
    },
    {
      "channel": 4,
      "note": 73,
      "start": 64.1197,
      "duration": 0.0767,
      "velocity": 102,
      "chip": "ym2612"
    },
    {
      "channel": 1,
      "note": 45,
      "start": 64.2159,
      "duration": 0.0637,
      "velocity": 107,
      "chip": "ym2612"
    },
    {
      "channel": 5,
      "note": 49,
      "start": 64.219,
      "duration": 0.1608,
      "velocity": 127,
      "chip": "ym2612"
    },
    {
      "channel": 3,
      "note": 61,
      "start": 64.2218,
      "duration": 0.0912,
      "velocity": 127,
      "chip": "ym2612"
    },
    {
      "channel": 2,
      "note": 61,
      "start": 64.2249,
      "duration": 0.0882,
      "velocity": 102,
      "chip": "ym2612"
    },
    {
      "channel": 0,
      "note": 73,
      "start": 64.333,
      "duration": 0.0799,
      "velocity": 127,
      "chip": "ym2612"
    },
    {
      "channel": 2,
      "note": 81,
      "start": 64.4324,
      "duration": 0.0141,
      "velocity": 121,
      "chip": "ym2612"
    },
    {
      "channel": 3,
      "note": 61,
      "start": 64.4353,
      "duration": 0.0944,
      "velocity": 127,
      "chip": "ym2612"
    },
    {
      "channel": 5,
      "note": 49,
      "start": 64.5496,
      "duration": 0.1468,
      "velocity": 127,
      "chip": "ym2612"
    },
    {
      "channel": 4,
      "note": 61,
      "start": 64.5526,
      "duration": 0.0771,
      "velocity": 102,
      "chip": "ym2612"
    },
    {
      "channel": 1,
      "note": 45,
      "start": 64.649,
      "duration": 0.064,
      "velocity": 107,
      "chip": "ym2612"
    },
    {
      "channel": 0,
      "note": 73,
      "start": 64.6518,
      "duration": 0.0944,
      "velocity": 127,
      "chip": "ym2612"
    },
    {
      "channel": 3,
      "note": 61,
      "start": 64.7662,
      "duration": 0.0801,
      "velocity": 127,
      "chip": "ym2612"
    },
    {
      "channel": 2,
      "note": 73,
      "start": 64.7692,
      "duration": 0.0773,
      "velocity": 102,
      "chip": "ym2612"
    },
    {
      "channel": 2,
      "note": 81,
      "start": 64.8656,
      "duration": 0.0308,
      "velocity": 121,
      "chip": "ym2612"
    },
    {
      "channel": 5,
      "note": 49,
      "start": 64.8685,
      "duration": 0.1447,
      "velocity": 127,
      "chip": "ym2612"
    },
    {
      "channel": 4,
      "note": 61,
      "start": 64.8715,
      "duration": 0.0916,
      "velocity": 102,
      "chip": "ym2612"
    },
    {
      "channel": 0,
      "note": 73,
      "start": 64.9831,
      "duration": 0.0798,
      "velocity": 127,
      "chip": "ym2612"
    },
    {
      "channel": 1,
      "note": 45,
      "start": 65.0824,
      "duration": 0.0638,
      "velocity": 107,
      "chip": "ym2612"
    },
    {
      "channel": 5,
      "note": 47,
      "start": 65.0856,
      "duration": 0.3275,
      "velocity": 127,
      "chip": "ym2612"
    },
    {
      "channel": 3,
      "note": 61,
      "start": 65.0887,
      "duration": 0.0911,
      "velocity": 127,
      "chip": "ym2612"
    },
    {
      "channel": 0,
      "note": 73,
      "start": 65.1997,
      "duration": 0.0799,
      "velocity": 127,
      "chip": "ym2612"
    },
    {
      "channel": 2,
      "note": 61,
      "start": 65.2027,
      "duration": 0.0772,
      "velocity": 102,
      "chip": "ym2612"
    },
    {
      "channel": 2,
      "note": 81,
      "start": 65.299,
      "duration": 0.031,
      "velocity": 121,
      "chip": "ym2612"
    },
    {
      "channel": 3,
      "note": 61,
      "start": 65.3019,
      "duration": 0.0944,
      "velocity": 127,
      "chip": "ym2612"
    },
    {
      "channel": 4,
      "note": 61,
      "start": 65.3047,
      "duration": 0.0917,
      "velocity": 102,
      "chip": "ym2612"
    },
    {
      "channel": 5,
      "note": 59,
      "start": 65.4162,
      "duration": 0.3136,
      "velocity": 127,
      "chip": "ym2612"
    },
    {
      "channel": 1,
      "note": 73,
      "start": 65.4195,
      "duration": 0.0768,
      "velocity": 102,
      "chip": "ym2612"
    },
    {
      "channel": 0,
      "note": 45,
      "start": 65.516,
      "duration": 0.0637,
      "velocity": 107,
      "chip": "ym2612"
    },
    {
      "channel": 2,
      "note": 73,
      "start": 65.5192,
      "duration": 0.094,
      "velocity": 127,
      "chip": "ym2612"
    },
    {
      "channel": 3,
      "note": 61,
      "start": 65.6329,
      "duration": 0.0801,
      "velocity": 127,
      "chip": "ym2612"
    },
    {
      "channel": 4,
      "note": 61,
      "start": 65.636,
      "duration": 0.0771,
      "velocity": 102,
      "chip": "ym2612"
    },
    {
      "channel": 2,
      "note": 81,
      "start": 65.7324,
      "duration": 0.0307,
      "velocity": 121,
      "chip": "ym2612"
    },
    {
      "channel": 5,
      "note": 47,
      "start": 65.7358,
      "duration": 0.1606,
      "velocity": 127,
      "chip": "ym2612"
    },
    {
      "channel": 1,
      "note": 73,
      "start": 65.8504,
      "duration": 0.0795,
      "velocity": 127,
      "chip": "ym2612"
    },
    {
      "channel": 0,
      "note": 73,
      "start": 65.8534,
      "duration": 0.0763,
      "velocity": 102,
      "chip": "ym2612"
    },
    {
      "channel": 3,
      "note": 45,
      "start": 65.9659,
      "duration": 0.0471,
      "velocity": 107,
      "chip": "ym2612"
    },
    {
      "channel": 5,
      "note": 49,
      "start": 65.969,
      "duration": 0.1776,
      "velocity": 127,
      "chip": "ym2612"
    },
    {
      "channel": 4,
      "note": 61,
      "start": 65.972,
      "duration": 0.0744,
      "velocity": 127,
      "chip": "ym2612"
    },
    {
      "channel": 2,
      "note": 61,
      "start": 65.9747,
      "duration": 0.0719,
      "velocity": 102,
      "chip": "ym2612"
    },
    {
      "channel": 1,
      "note": 73,
      "start": 66.0664,
      "duration": 0.0798,
      "velocity": 127,
      "chip": "ym2612"
    },
    {
      "channel": 2,
      "note": 81,
      "start": 66.1824,
      "duration": 0.0141,
      "velocity": 121,
      "chip": "ym2612"
    },
    {
      "channel": 4,
      "note": 61,
      "start": 66.1853,
      "duration": 0.0778,
      "velocity": 127,
      "chip": "ym2612"
    },
    {
      "channel": 5,
      "note": 49,
      "start": 66.2831,
      "duration": 0.1635,
      "velocity": 127,
      "chip": "ym2612"
    },
    {
      "channel": 0,
      "note": 61,
      "start": 66.2861,
      "duration": 0.0769,
      "velocity": 102,
      "chip": "ym2612"
    },
    {
      "channel": 3,
      "note": 45,
      "start": 66.3991,
      "duration": 0.0473,
      "velocity": 107,
      "chip": "ym2612"
    },
    {
      "channel": 1,
      "note": 73,
      "start": 66.402,
      "duration": 0.0778,
      "velocity": 127,
      "chip": "ym2612"
    },
    {
      "channel": 4,
      "note": 61,
      "start": 66.4996,
      "duration": 0.0802,
      "velocity": 127,
      "chip": "ym2612"
    },
    {
      "channel": 2,
      "note": 73,
      "start": 66.5026,
      "duration": 0.0773,
      "velocity": 102,
      "chip": "ym2612"
    },
    {
      "channel": 2,
      "note": 81,
      "start": 66.6157,
      "duration": 0.0142,
      "velocity": 121,
      "chip": "ym2612"
    },
    {
      "channel": 5,
      "note": 49,
      "start": 66.6186,
      "duration": 0.0945,
      "velocity": 127,
      "chip": "ym2612"
    },
    {
      "channel": 0,
      "note": 61,
      "start": 66.6216,
      "duration": 0.0746,
      "velocity": 102,
      "chip": "ym2612"
    },
    {
      "channel": 1,
      "note": 73,
      "start": 66.7166,
      "duration": 0.0797,
      "velocity": 127,
      "chip": "ym2612"
    },
    {
      "channel": 3,
      "note": 45,
      "start": 66.8325,
      "duration": 0.0472,
      "velocity": 107,
      "chip": "ym2612"
    },
    {
      "channel": 5,
      "note": 49,
      "start": 66.8356,
      "duration": 0.1943,
      "velocity": 127,
      "chip": "ym2612"
    },
    {
      "channel": 4,
      "note": 61,
      "start": 66.8384,
      "duration": 0.0746,
      "velocity": 127,
      "chip": "ym2612"
    },
    {
      "channel": 1,
      "note": 73,
      "start": 66.9332,
      "duration": 0.0966,
      "velocity": 127,
      "chip": "ym2612"
    },
    {
      "channel": 2,
      "note": 61,
      "start": 66.9365,
      "duration": 0.0936,
      "velocity": 102,
      "chip": "ym2612"
    },
    {
      "channel": 2,
      "note": 81,
      "start": 67.049,
      "duration": 0.0141,
      "velocity": 121,
      "chip": "ym2612"
    },
    {
      "channel": 4,
      "note": 61,
      "start": 67.0519,
      "duration": 0.078,
      "velocity": 127,
      "chip": "ym2612"
    },
    {
      "channel": 0,
      "note": 61,
      "start": 67.0546,
      "duration": 0.0751,
      "velocity": 102,
      "chip": "ym2612"
    },
    {
      "channel": 5,
      "note": 49,
      "start": 67.1496,
      "duration": 0.1635,
      "velocity": 127,
      "chip": "ym2612"
    },
    {
      "channel": 3,
      "note": 73,
      "start": 67.1529,
      "duration": 0.0934,
      "velocity": 102,
      "chip": "ym2612"
    },
    {
      "channel": 1,
      "note": 45,
      "start": 67.2659,
      "duration": 0.047,
      "velocity": 107,
      "chip": "ym2612"
    },
    {
      "channel": 2,
      "note": 73,
      "start": 67.269,
      "duration": 0.0774,
      "velocity": 127,
      "chip": "ym2612"
    },
    {
      "channel": 4,
      "note": 61,
      "start": 67.3663,
      "duration": 0.0969,
      "velocity": 127,
      "chip": "ym2612"
    },
    {
      "channel": 0,
      "note": 61,
      "start": 67.3693,
      "duration": 0.0937,
      "velocity": 102,
      "chip": "ym2612"
    },
    {
      "channel": 2,
      "note": 81,
      "start": 67.4824,
      "duration": 0.014,
      "velocity": 121,
      "chip": "ym2612"
    },
    {
      "channel": 5,
      "note": 49,
      "start": 67.4858,
      "duration": 0.0773,
      "velocity": 127,
      "chip": "ym2612"
    },
    {
      "channel": 3,
      "note": 73,
      "start": 67.5833,
      "duration": 0.0964,
      "velocity": 127,
      "chip": "ym2612"
    },
    {
      "channel": 1,
      "note": 73,
      "start": 67.5868,
      "duration": 0.0929,
      "velocity": 102,
      "chip": "ym2612"
    },
    {
      "channel": 0,
      "note": 45,
      "start": 67.6993,
      "duration": 0.0469,
      "velocity": 107,
      "chip": "ym2612"
    },
    {
      "channel": 5,
      "note": 49,
      "start": 67.7024,
      "duration": 0.1441,
      "velocity": 127,
      "chip": "ym2612"
    },
    {
      "channel": 4,
      "note": 61,
      "start": 67.7052,
      "duration": 0.0745,
      "velocity": 127,
      "chip": "ym2612"
    },
    {
      "channel": 2,
      "note": 61,
      "start": 67.708,
      "duration": 0.0719,
      "velocity": 102,
      "chip": "ym2612"
    },
    {
      "channel": 3,
      "note": 73,
      "start": 67.7998,
      "duration": 0.0965,
      "velocity": 127,
      "chip": "ym2612"
    },
    {
      "channel": 2,
      "note": 81,
      "start": 67.9157,
      "duration": 0.0142,
      "velocity": 121,
      "chip": "ym2612"
    },
    {
      "channel": 4,
      "note": 61,
      "start": 67.919,
      "duration": 0.0774,
      "velocity": 127,
      "chip": "ym2612"
    },
    {
      "channel": 5,
      "note": 49,
      "start": 68.0162,
      "duration": 0.1469,
      "velocity": 127,
      "chip": "ym2612"
    },
    {
      "channel": 1,
      "note": 61,
      "start": 68.0192,
      "duration": 0.0938,
      "velocity": 102,
      "chip": "ym2612"
    },
    {
      "channel": 0,
      "note": 45,
      "start": 68.1324,
      "duration": 0.0473,
      "velocity": 107,
      "chip": "ym2612"
    },
    {
      "channel": 3,
      "note": 73,
      "start": 68.1353,
      "duration": 0.0778,
      "velocity": 127,
      "chip": "ym2612"
    },
    {
      "channel": 4,
      "note": 61,
      "start": 68.2329,
      "duration": 0.0968,
      "velocity": 127,
      "chip": "ym2612"
    },
    {
      "channel": 2,
      "note": 73,
      "start": 68.236,
      "duration": 0.0939,
      "velocity": 102,
      "chip": "ym2612"
    },
    {
      "channel": 2,
      "note": 81,
      "start": 68.349,
      "duration": 0.0142,
      "velocity": 121,
      "chip": "ym2612"
    },
    {
      "channel": 5,
      "note": 49,
      "start": 68.3519,
      "duration": 0.128,
      "velocity": 127,
      "chip": "ym2612"
    },
    {
      "channel": 1,
      "note": 61,
      "start": 68.3549,
      "duration": 0.0748,
      "velocity": 102,
      "chip": "ym2612"
    },
    {
      "channel": 3,
      "note": 73,
      "start": 68.4498,
      "duration": 0.0965,
      "velocity": 127,
      "chip": "ym2612"
    },
    {
      "channel": 0,
      "note": 45,
      "start": 68.5657,
      "duration": 0.0473,
      "velocity": 107,
      "chip": "ym2612"
    },
    {
      "channel": 5,
      "note": 47,
      "start": 68.5688,
      "duration": 0.3111,
      "velocity": 127,
      "chip": "ym2612"
    },
    {
      "channel": 4,
      "note": 61,
      "start": 68.5716,
      "duration": 0.0748,
      "velocity": 127,
      "chip": "ym2612"
    },
    {
      "channel": 3,
      "note": 73,
      "start": 68.6669,
      "duration": 0.0961,
      "velocity": 127,
      "chip": "ym2612"
    },
    {
      "channel": 2,
      "note": 61,
      "start": 68.6699,
      "duration": 0.0933,
      "velocity": 102,
      "chip": "ym2612"
    },
    {
      "channel": 2,
      "note": 81,
      "start": 68.7824,
      "duration": 0.0141,
      "velocity": 121,
      "chip": "ym2612"
    },
    {
      "channel": 4,
      "note": 61,
      "start": 68.7853,
      "duration": 0.0778,
      "velocity": 127,
      "chip": "ym2612"
    },
    {
      "channel": 1,
      "note": 61,
      "start": 68.7881,
      "duration": 0.0748,
      "velocity": 102,
      "chip": "ym2612"
    },
    {
      "channel": 5,
      "note": 59,
      "start": 68.883,
      "duration": 0.3301,
      "velocity": 127,
      "chip": "ym2612"
    },
    {
      "channel": 0,
      "note": 73,
      "start": 68.8862,
      "duration": 0.0934,
      "velocity": 102,
      "chip": "ym2612"
    },
    {
      "channel": 3,
      "note": 45,
      "start": 68.9997,
      "duration": 0.0467,
      "velocity": 107,
      "chip": "ym2612"
    },
    {
      "channel": 2,
      "note": 73,
      "start": 69.0029,
      "duration": 0.077,
      "velocity": 127,
      "chip": "ym2612"
    },
    {
      "channel": 4,
      "note": 61,
      "start": 69.0995,
      "duration": 0.097,
      "velocity": 127,
      "chip": "ym2612"
    },
    {
      "channel": 1,
      "note": 61,
      "start": 69.1027,
      "duration": 0.0937,
      "velocity": 102,
      "chip": "ym2612"
    },
    {
      "channel": 2,
      "note": 81,
      "start": 69.2157,
      "duration": 0.0142,
      "velocity": 121,
      "chip": "ym2612"
    },
    {
      "channel": 5,
      "note": 47,
      "start": 69.219,
      "duration": 0.1608,
      "velocity": 127,
      "chip": "ym2612"
    },
    {
      "channel": 0,
      "note": 73,
      "start": 69.3166,
      "duration": 0.0962,
      "velocity": 127,
      "chip": "ym2612"
    },
    {
      "channel": 3,
      "note": 73,
      "start": 69.3197,
      "duration": 0.0934,
      "velocity": 102,
      "chip": "ym2612"
    },
    {
      "channel": 1,
      "note": 45,
      "start": 69.4327,
      "duration": 0.047,
      "velocity": 107,
      "chip": "ym2612"
    },
    {
      "channel": 5,
      "note": 51,
      "start": 69.4358,
      "duration": 0.1941,
      "velocity": 127,
      "chip": "ym2612"
    },
    {
      "channel": 4,
      "note": 63,
      "start": 69.4386,
      "duration": 0.0744,
      "velocity": 127,
      "chip": "ym2612"
    },
    {
      "channel": 0,
      "note": 75,
      "start": 69.5331,
      "duration": 0.0965,
      "velocity": 127,
      "chip": "ym2612"
    },
    {
      "channel": 2,
      "note": 81,
      "start": 69.6496,
      "duration": 0.0134,
      "velocity": 121,
      "chip": "ym2612"
    },
    {
      "channel": 4,
      "note": 63,
      "start": 69.6526,
      "duration": 0.0772,
      "velocity": 127,
      "chip": "ym2612"
    },
    {
      "channel": 5,
      "note": 51,
      "start": 69.7497,
      "duration": 0.1635,
      "velocity": 127,
      "chip": "ym2612"
    },
    {
      "channel": 1,
      "note": 45,
      "start": 69.8657,
      "duration": 0.0473,
      "velocity": 107,
      "chip": "ym2612"
    },
    {
      "channel": 0,
      "note": 75,
      "start": 69.8685,
      "duration": 0.0777,
      "velocity": 127,
      "chip": "ym2612"
    },
    {
      "channel": 4,
      "note": 63,
      "start": 69.9663,
      "duration": 0.0969,
      "velocity": 127,
      "chip": "ym2612"
    },
    {
      "channel": 3,
      "note": 75,
      "start": 69.9691,
      "duration": 0.094,
      "velocity": 102,
      "chip": "ym2612"
    },
    {
      "channel": 2,
      "note": 81,
      "start": 70.0824,
      "duration": 0.014,
      "velocity": 121,
      "chip": "ym2612"
    },
    {
      "channel": 5,
      "note": 51,
      "start": 70.0854,
      "duration": 0.0945,
      "velocity": 127,
      "chip": "ym2612"
    },
    {
      "channel": 0,
      "note": 75,
      "start": 70.1832,
      "duration": 0.0964,
      "velocity": 127,
      "chip": "ym2612"
    },
    {
      "channel": 1,
      "note": 45,
      "start": 70.299,
      "duration": 0.0472,
      "velocity": 107,
      "chip": "ym2612"
    },
    {
      "channel": 5,
      "note": 51,
      "start": 70.3021,
      "duration": 0.1945,
      "velocity": 127,
      "chip": "ym2612"
    },
    {
      "channel": 4,
      "note": 63,
      "start": 70.305,
      "duration": 0.075,
      "velocity": 127,
      "chip": "ym2612"
    },
    {
      "channel": 3,
      "note": 63,
      "start": 70.3083,
      "duration": 0.0716,
      "velocity": 102,
      "chip": "ym2612"
    },
    {
      "channel": 0,
      "note": 75,
      "start": 70.3997,
      "duration": 0.0966,
      "velocity": 127,
      "chip": "ym2612"
    },
    {
      "channel": 2,
      "note": 81,
      "start": 70.5157,
      "duration": 0.0141,
      "velocity": 121,
      "chip": "ym2612"
    },
    {
      "channel": 4,
      "note": 63,
      "start": 70.519,
      "duration": 0.0774,
      "velocity": 127,
      "chip": "ym2612"
    },
    {
      "channel": 1,
      "note": 75,
      "start": 70.5225,
      "duration": 0.0738,
      "velocity": 102,
      "chip": "ym2612"
    },
    {
      "channel": 5,
      "note": 51,
      "start": 70.6163,
      "duration": 0.1635,
      "velocity": 127,
      "chip": "ym2612"
    },
    {
      "channel": 3,
      "note": 75,
      "start": 70.6195,
      "duration": 0.0936,
      "velocity": 102,
      "chip": "ym2612"
    },
    {
      "channel": 0,
      "note": 63,
      "start": 70.6223,
      "duration": 0.0907,
      "velocity": 102,
      "chip": "ym2612"
    },
    {
      "channel": 2,
      "note": 45,
      "start": 70.7328,
      "duration": 0.0471,
      "velocity": 107,
      "chip": "ym2612"
    },
    {
      "channel": 1,
      "note": 75,
      "start": 70.7359,
      "duration": 0.0771,
      "velocity": 127,
      "chip": "ym2612"
    },
    {
      "channel": 4,
      "note": 63,
      "start": 70.833,
      "duration": 0.0969,
      "velocity": 127,
      "chip": "ym2612"
    },
    {
      "channel": 0,
      "note": 75,
      "start": 70.8363,
      "duration": 0.0934,
      "velocity": 102,
      "chip": "ym2612"
    },
    {
      "channel": 2,
      "note": 81,
      "start": 70.949,
      "duration": 0.0141,
      "velocity": 121,
      "chip": "ym2612"
    },
    {
      "channel": 5,
      "note": 51,
      "start": 70.9524,
      "duration": 0.0776,
      "velocity": 127,
      "chip": "ym2612"
    },
    {
      "channel": 3,
      "note": 63,
      "start": 70.9558,
      "duration": 0.074,
      "velocity": 102,
      "chip": "ym2612"
    },
    {
      "channel": 1,
      "note": 75,
      "start": 71.0498,
      "duration": 0.0966,
      "velocity": 127,
      "chip": "ym2612"
    },
    {
      "channel": 0,
      "note": 75,
      "start": 71.0528,
      "duration": 0.0934,
      "velocity": 102,
      "chip": "ym2612"
    },
    {
      "channel": 4,
      "note": 45,
      "start": 71.166,
      "duration": 0.0471,
      "velocity": 107,
      "chip": "ym2612"
    },
    {
      "channel": 5,
      "note": 51,
      "start": 71.1691,
      "duration": 0.1608,
      "velocity": 127,
      "chip": "ym2612"
    },
    {
      "channel": 2,
      "note": 63,
      "start": 71.172,
      "duration": 0.0745,
      "velocity": 127,
      "chip": "ym2612"
    },
    {
      "channel": 3,
      "note": 75,
      "start": 71.1755,
      "duration": 0.0708,
      "velocity": 102,
      "chip": "ym2612"
    },
    {
      "channel": 1,
      "note": 75,
      "start": 71.2668,
      "duration": 0.0962,
      "velocity": 127,
      "chip": "ym2612"
    },
    {
      "channel": 2,
      "note": 81,
      "start": 71.3824,
      "duration": 0.014,
      "velocity": 121,
      "chip": "ym2612"
    },
    {
      "channel": 0,
      "note": 63,
      "start": 71.3855,
      "duration": 0.0773,
      "velocity": 127,
      "chip": "ym2612"
    },
    {
      "channel": 5,
      "note": 51,
      "start": 71.4831,
      "duration": 0.1468,
      "velocity": 127,
      "chip": "ym2612"
    },
    {
      "channel": 4,
      "note": 45,
      "start": 71.5992,
      "duration": 0.0473,
      "velocity": 107,
      "chip": "ym2612"
    },
    {
      "channel": 1,
      "note": 75,
      "start": 71.602,
      "duration": 0.0776,
      "velocity": 127,
      "chip": "ym2612"
    },
    {
      "channel": 0,
      "note": 63,
      "start": 71.6994,
      "duration": 0.0969,
      "velocity": 127,
      "chip": "ym2612"
    },
    {
      "channel": 3,
      "note": 75,
      "start": 71.7025,
      "duration": 0.0939,
      "velocity": 102,
      "chip": "ym2612"
    },
    {
      "channel": 2,
      "note": 81,
      "start": 71.8156,
      "duration": 0.0143,
      "velocity": 121,
      "chip": "ym2612"
    },
    {
      "channel": 5,
      "note": 51,
      "start": 71.8185,
      "duration": 0.1446,
      "velocity": 127,
      "chip": "ym2612"
    },
    {
      "channel": 1,
      "note": 75,
      "start": 71.9163,
      "duration": 0.0966,
      "velocity": 127,
      "chip": "ym2612"
    },
    {
      "channel": 4,
      "note": 45,
      "start": 72.0325,
      "duration": 0.0473,
      "velocity": 107,
      "chip": "ym2612"
    },
    {
      "channel": 5,
      "note": 49,
      "start": 72.0356,
      "duration": 0.3275,
      "velocity": 127,
      "chip": "ym2612"
    },
    {
      "channel": 0,
      "note": 63,
      "start": 72.0382,
      "duration": 0.0748,
      "velocity": 127,
      "chip": "ym2612"
    },
    {
      "channel": 3,
      "note": 63,
      "start": 72.0416,
      "duration": 0.0715,
      "velocity": 102,
      "chip": "ym2612"
    },
    {
      "channel": 1,
      "note": 75,
      "start": 72.1332,
      "duration": 0.0966,
      "velocity": 127,
      "chip": "ym2612"
    },
    {
      "channel": 2,
      "note": 81,
      "start": 72.249,
      "duration": 0.0141,
      "velocity": 121,
      "chip": "ym2612"
    },
    {
      "channel": 0,
      "note": 63,
      "start": 72.2518,
      "duration": 0.0779,
      "velocity": 127,
      "chip": "ym2612"
    },
    {
      "channel": 4,
      "note": 75,
      "start": 72.2552,
      "duration": 0.0747,
      "velocity": 102,
      "chip": "ym2612"
    },
    {
      "channel": 5,
      "note": 61,
      "start": 72.3662,
      "duration": 0.3136,
      "velocity": 127,
      "chip": "ym2612"
    },
    {
      "channel": 3,
      "note": 75,
      "start": 72.3695,
      "duration": 0.077,
      "velocity": 102,
      "chip": "ym2612"
    },
    {
      "channel": 1,
      "note": 63,
      "start": 72.3723,
      "duration": 0.0741,
      "velocity": 102,
      "chip": "ym2612"
    },
    {
      "channel": 2,
      "note": 45,
      "start": 72.4659,
      "duration": 0.0473,
      "velocity": 107,
      "chip": "ym2612"
    },
    {
      "channel": 0,
      "note": 75,
      "start": 72.469,
      "duration": 0.0772,
      "velocity": 127,
      "chip": "ym2612"
    },
    {
      "channel": 4,
      "note": 63,
      "start": 72.5832,
      "duration": 0.08,
      "velocity": 127,
      "chip": "ym2612"
    },
    {
      "channel": 1,
      "note": 75,
      "start": 72.5865,
      "duration": 0.0765,
      "velocity": 102,
      "chip": "ym2612"
    },
    {
      "channel": 2,
      "note": 81,
      "start": 72.6824,
      "duration": 0.014,
      "velocity": 121,
      "chip": "ym2612"
    },
    {
      "channel": 5,
      "note": 49,
      "start": 72.6854,
      "duration": 0.161,
      "velocity": 127,
      "chip": "ym2612"
    },
    {
      "channel": 3,
      "note": 63,
      "start": 72.6889,
      "duration": 0.0741,
      "velocity": 102,
      "chip": "ym2612"
    },
    {
      "channel": 0,
      "note": 75,
      "start": 72.7997,
      "duration": 0.08,
      "velocity": 127,
      "chip": "ym2612"
    },
    {
      "channel": 1,
      "note": 75,
      "start": 72.8027,
      "duration": 0.0771,
      "velocity": 102,
      "chip": "ym2612"
    },
    {
      "channel": 4,
      "note": 45,
      "start": 72.8993,
      "duration": 0.0471,
      "velocity": 107,
      "chip": "ym2612"
    },
    {
      "channel": 5,
      "note": 51,
      "start": 72.9027,
      "duration": 0.1939,
      "velocity": 127,
      "chip": "ym2612"
    },
    {
      "channel": 2,
      "note": 63,
      "start": 72.9057,
      "duration": 0.0742,
      "velocity": 127,
      "chip": "ym2612"
    },
    {
      "channel": 3,
      "note": 75,
      "start": 72.9091,
      "duration": 0.0706,
      "velocity": 102,
      "chip": "ym2612"
    },
    {
      "channel": 0,
      "note": 75,
      "start": 73.0163,
      "duration": 0.08,
      "velocity": 127,
      "chip": "ym2612"
    },
    {
      "channel": 2,
      "note": 81,
      "start": 73.1157,
      "duration": 0.0141,
      "velocity": 121,
      "chip": "ym2612"
    },
    {
      "channel": 1,
      "note": 63,
      "start": 73.1188,
      "duration": 0.0776,
      "velocity": 127,
      "chip": "ym2612"
    },
    {
      "channel": 5,
      "note": 51,
      "start": 73.233,
      "duration": 0.147,
      "velocity": 127,
      "chip": "ym2612"
    },
    {
      "channel": 4,
      "note": 45,
      "start": 73.3326,
      "duration": 0.0473,
      "velocity": 107,
      "chip": "ym2612"
    },
    {
      "channel": 0,
      "note": 75,
      "start": 73.3354,
      "duration": 0.0943,
      "velocity": 127,
      "chip": "ym2612"
    },
    {
      "channel": 1,
      "note": 63,
      "start": 73.4498,
      "duration": 0.0799,
      "velocity": 127,
      "chip": "ym2612"
    },
    {
      "channel": 3,
      "note": 75,
      "start": 73.4532,
      "duration": 0.0766,
      "velocity": 102,
      "chip": "ym2612"
    },
    {
      "channel": 2,
      "note": 81,
      "start": 73.549,
      "duration": 0.0141,
      "velocity": 121,
      "chip": "ym2612"
    },
    {
      "channel": 5,
      "note": 51,
      "start": 73.552,
      "duration": 0.1111,
      "velocity": 127,
      "chip": "ym2612"
    },
    {
      "channel": 0,
      "note": 75,
      "start": 73.6665,
      "duration": 0.0798,
      "velocity": 127,
      "chip": "ym2612"
    },
    {
      "channel": 4,
      "note": 45,
      "start": 73.7659,
      "duration": 0.0473,
      "velocity": 107,
      "chip": "ym2612"
    },
    {
      "channel": 5,
      "note": 51,
      "start": 73.769,
      "duration": 0.1943,
      "velocity": 127,
      "chip": "ym2612"
    },
    {
      "channel": 1,
      "note": 63,
      "start": 73.7717,
      "duration": 0.0912,
      "velocity": 127,
      "chip": "ym2612"
    },
    {
      "channel": 3,
      "note": 63,
      "start": 73.7754,
      "duration": 0.0877,
      "velocity": 102,
      "chip": "ym2612"
    },
    {
      "channel": 0,
      "note": 75,
      "start": 73.883,
      "duration": 0.08,
      "velocity": 127,
      "chip": "ym2612"
    },
    {
      "channel": 2,
      "note": 81,
      "start": 73.9824,
      "duration": 0.0141,
      "velocity": 121,
      "chip": "ym2612"
    },
    {
      "channel": 1,
      "note": 63,
      "start": 73.9853,
      "duration": 0.0945,
      "velocity": 127,
      "chip": "ym2612"
    },
    {
      "channel": 4,
      "note": 75,
      "start": 73.9891,
      "duration": 0.0908,
      "velocity": 102,
      "chip": "ym2612"
    },
    {
      "channel": 5,
      "note": 51,
      "start": 74.0996,
      "duration": 0.1468,
      "velocity": 127,
      "chip": "ym2612"
    },
    {
      "channel": 3,
      "note": 75,
      "start": 74.1029,
      "duration": 0.077,
      "velocity": 102,
      "chip": "ym2612"
    },
    {
      "channel": 0,
      "note": 63,
      "start": 74.1056,
      "duration": 0.0741,
      "velocity": 102,
      "chip": "ym2612"
    },
    {
      "channel": 2,
      "note": 45,
      "start": 74.1993,
      "duration": 0.0472,
      "velocity": 107,
      "chip": "ym2612"
    },
    {
      "channel": 1,
      "note": 75,
      "start": 74.2027,
      "duration": 0.0935,
      "velocity": 127,
      "chip": "ym2612"
    },
    {
      "channel": 4,
      "note": 63,
      "start": 74.3164,
      "duration": 0.0801,
      "velocity": 127,
      "chip": "ym2612"
    },
    {
      "channel": 0,
      "note": 75,
      "start": 74.3197,
      "duration": 0.0766,
      "velocity": 102,
      "chip": "ym2612"
    },
    {
      "channel": 2,
      "note": 81,
      "start": 74.4156,
      "duration": 0.0142,
      "velocity": 121,
      "chip": "ym2612"
    },
    {
      "channel": 5,
      "note": 51,
      "start": 74.4186,
      "duration": 0.0946,
      "velocity": 127,
      "chip": "ym2612"
    },
    {
      "channel": 3,
      "note": 63,
      "start": 74.4221,
      "duration": 0.091,
      "velocity": 102,
      "chip": "ym2612"
    },
    {
      "channel": 1,
      "note": 75,
      "start": 74.5332,
      "duration": 0.0799,
      "velocity": 127,
      "chip": "ym2612"
    },
    {
      "channel": 0,
      "note": 75,
      "start": 74.5362,
      "duration": 0.0767,
      "velocity": 102,
      "chip": "ym2612"
    },
    {
      "channel": 4,
      "note": 45,
      "start": 74.6327,
      "duration": 0.0472,
      "velocity": 107,
      "chip": "ym2612"
    },
    {
      "channel": 5,
      "note": 51,
      "start": 74.6361,
      "duration": 0.1604,
      "velocity": 127,
      "chip": "ym2612"
    },
    {
      "channel": 2,
      "note": 63,
      "start": 74.6391,
      "duration": 0.0909,
      "velocity": 127,
      "chip": "ym2612"
    },
    {
      "channel": 3,
      "note": 75,
      "start": 74.6426,
      "duration": 0.0872,
      "velocity": 102,
      "chip": "ym2612"
    },
    {
      "channel": 1,
      "note": 75,
      "start": 74.7497,
      "duration": 0.08,
      "velocity": 127,
      "chip": "ym2612"
    },
    {
      "channel": 2,
      "note": 81,
      "start": 74.849,
      "duration": 0.0141,
      "velocity": 121,
      "chip": "ym2612"
    },
    {
      "channel": 0,
      "note": 63,
      "start": 74.8521,
      "duration": 0.0941,
      "velocity": 127,
      "chip": "ym2612"
    },
    {
      "channel": 5,
      "note": 51,
      "start": 74.9663,
      "duration": 0.1302,
      "velocity": 127,
      "chip": "ym2612"
    },
    {
      "channel": 4,
      "note": 45,
      "start": 75.0658,
      "duration": 0.0473,
      "velocity": 107,
      "chip": "ym2612"
    },
    {
      "channel": 1,
      "note": 75,
      "start": 75.0687,
      "duration": 0.0942,
      "velocity": 127,
      "chip": "ym2612"
    },
    {
      "channel": 0,
      "note": 63,
      "start": 75.1828,
      "duration": 0.0802,
      "velocity": 127,
      "chip": "ym2612"
    },
    {
      "channel": 3,
      "note": 75,
      "start": 75.1858,
      "duration": 0.0773,
      "velocity": 102,
      "chip": "ym2612"
    },
    {
      "channel": 2,
      "note": 81,
      "start": 75.2824,
      "duration": 0.014,
      "velocity": 121,
      "chip": "ym2612"
    },
    {
      "channel": 5,
      "note": 51,
      "start": 75.2853,
      "duration": 0.1445,
      "velocity": 127,
      "chip": "ym2612"
    },
    {
      "channel": 1,
      "note": 75,
      "start": 75.3998,
      "duration": 0.08,
      "velocity": 127,
      "chip": "ym2612"
    },
    {
      "channel": 4,
      "note": 45,
      "start": 75.4992,
      "duration": 0.0639,
      "velocity": 107,
      "chip": "ym2612"
    },
    {
      "channel": 5,
      "note": 49,
      "start": 75.5022,
      "duration": 0.3276,
      "velocity": 127,
      "chip": "ym2612"
    },
    {
      "channel": 0,
      "note": 63,
      "start": 75.5049,
      "duration": 0.0914,
      "velocity": 127,
      "chip": "ym2612"
    },
    {
      "channel": 3,
      "note": 63,
      "start": 75.5083,
      "duration": 0.0882,
      "velocity": 102,
      "chip": "ym2612"
    },
    {
      "channel": 1,
      "note": 75,
      "start": 75.6164,
      "duration": 0.0798,
      "velocity": 127,
      "chip": "ym2612"
    },
    {
      "channel": 2,
      "note": 81,
      "start": 75.7157,
      "duration": 0.0142,
      "velocity": 121,
      "chip": "ym2612"
    },
    {
      "channel": 0,
      "note": 63,
      "start": 75.7185,
      "duration": 0.0944,
      "velocity": 127,
      "chip": "ym2612"
    },
    {
      "channel": 4,
      "note": 75,
      "start": 75.722,
      "duration": 0.0912,
      "velocity": 102,
      "chip": "ym2612"
    },
    {
      "channel": 5,
      "note": 61,
      "start": 75.833,
      "duration": 0.3135,
      "velocity": 127,
      "chip": "ym2612"
    },
    {
      "channel": 3,
      "note": 75,
      "start": 75.8363,
      "duration": 0.0768,
      "velocity": 102,
      "chip": "ym2612"
    },
    {
      "channel": 1,
      "note": 63,
      "start": 75.839,
      "duration": 0.0739,
      "velocity": 102,
      "chip": "ym2612"
    },
    {
      "channel": 2,
      "note": 45,
      "start": 75.9333,
      "duration": 0.0631,
      "velocity": 107,
      "chip": "ym2612"
    },
    {
      "channel": 0,
      "note": 75,
      "start": 75.9365,
      "duration": 0.0933,
      "velocity": 127,
      "chip": "ym2612"
    },
    {
      "channel": 4,
      "note": 63,
      "start": 76.0498,
      "duration": 0.0801,
      "velocity": 127,
      "chip": "ym2612"
    },
    {
      "channel": 1,
      "note": 75,
      "start": 76.0533,
      "duration": 0.0763,
      "velocity": 102,
      "chip": "ym2612"
    },
    {
      "channel": 2,
      "note": 81,
      "start": 76.1498,
      "duration": 0.0135,
      "velocity": 121,
      "chip": "ym2612"
    },
    {
      "channel": 5,
      "note": 49,
      "start": 76.1527,
      "duration": 0.1604,
      "velocity": 127,
      "chip": "ym2612"
    },
    {
      "channel": 3,
      "note": 63,
      "start": 76.1562,
      "duration": 0.0902,
      "velocity": 102,
      "chip": "ym2612"
    },
    {
      "channel": 0,
      "note": 75,
      "start": 76.2663,
      "duration": 0.0799,
      "velocity": 127,
      "chip": "ym2612"
    },
    {
      "channel": 1,
      "note": 75,
      "start": 76.2693,
      "duration": 0.0771,
      "velocity": 102,
      "chip": "ym2612"
    },
    {
      "channel": 5,
      "note": 49,
      "start": 76.3665,
      "duration": 0.1967,
      "velocity": 127,
      "chip": "ym2612"
    },
    {
      "channel": 4,
      "note": 73,
      "start": 76.3697,
      "duration": 0.0934,
      "velocity": 127,
      "chip": "ym2612"
    },
    {
      "channel": 2,
      "note": 61,
      "start": 76.373,
      "duration": 0.0903,
      "velocity": 102,
      "chip": "ym2612"
    },
    {
      "channel": 3,
      "note": 57,
      "start": 76.3763,
      "duration": 1.8202,
      "velocity": 124,
      "chip": "ym2612"
    },
    {
      "channel": 0,
      "note": 85,
      "start": 76.4831,
      "duration": 0.0798,
      "velocity": 127,
      "chip": "ym2612"
    },
    {
      "channel": 4,
      "note": 73,
      "start": 76.5832,
      "duration": 0.0966,
      "velocity": 127,
      "chip": "ym2612"
    },
    {
      "channel": 5,
      "note": 49,
      "start": 76.7001,
      "duration": 0.1629,
      "velocity": 127,
      "chip": "ym2612"
    },
    {
      "channel": 1,
      "note": 61,
      "start": 76.7033,
      "duration": 0.0764,
      "velocity": 102,
      "chip": "ym2612"
    },
    {
      "channel": 0,
      "note": 85,
      "start": 76.7994,
      "duration": 0.0969,
      "velocity": 127,
      "chip": "ym2612"
    },
    {
      "channel": 4,
      "note": 73,
      "start": 76.9162,
      "duration": 0.0802,
      "velocity": 127,
      "chip": "ym2612"
    },
    {
      "channel": 2,
      "note": 73,
      "start": 76.9192,
      "duration": 0.0774,
      "velocity": 102,
      "chip": "ym2612"
    },
    {
      "channel": 5,
      "note": 49,
      "start": 77.0166,
      "duration": 0.1134,
      "velocity": 127,
      "chip": "ym2612"
    },
    {
      "channel": 1,
      "note": 61,
      "start": 77.0196,
      "duration": 0.0934,
      "velocity": 102,
      "chip": "ym2612"
    },
    {
      "channel": 0,
      "note": 85,
      "start": 77.1336,
      "duration": 0.0794,
      "velocity": 127,
      "chip": "ym2612"
    },
    {
      "channel": 5,
      "note": 49,
      "start": 77.2332,
      "duration": 0.1969,
      "velocity": 127,
      "chip": "ym2612"
    },
    {
      "channel": 4,
      "note": 73,
      "start": 77.236,
      "duration": 0.0938,
      "velocity": 127,
      "chip": "ym2612"
    },
    {
      "channel": 2,
      "note": 61,
      "start": 77.2394,
      "duration": 0.0906,
      "velocity": 102,
      "chip": "ym2612"
    },
    {
      "channel": 0,
      "note": 85,
      "start": 77.3498,
      "duration": 0.08,
      "velocity": 127,
      "chip": "ym2612"
    },
    {
      "channel": 1,
      "note": 61,
      "start": 77.3526,
      "duration": 0.0772,
      "velocity": 102,
      "chip": "ym2612"
    },
    {
      "channel": 4,
      "note": 73,
      "start": 77.4497,
      "duration": 0.0968,
      "velocity": 127,
      "chip": "ym2612"
    },
    {
      "channel": 2,
      "note": 61,
      "start": 77.4527,
      "duration": 0.094,
      "velocity": 102,
      "chip": "ym2612"
    },
    {
      "channel": 0,
      "note": 73,
      "start": 77.4565,
      "duration": 0.0898,
      "velocity": 102,
      "chip": "ym2612"
    },
    {
      "channel": 5,
      "note": 49,
      "start": 77.5663,
      "duration": 0.1636,
      "velocity": 127,
      "chip": "ym2612"
    },
    {
      "channel": 1,
      "note": 73,
      "start": 77.5696,
      "duration": 0.0768,
      "velocity": 102,
      "chip": "ym2612"
    },
    {
      "channel": 0,
      "note": 61,
      "start": 77.5734,
      "duration": 0.0729,
      "velocity": 102,
      "chip": "ym2612"
    },
    {
      "channel": 4,
      "note": 85,
      "start": 77.6666,
      "duration": 0.0966,
      "velocity": 127,
      "chip": "ym2612"
    },
    {
      "channel": 2,
      "note": 73,
      "start": 77.7831,
      "duration": 0.0802,
      "velocity": 127,
      "chip": "ym2612"
    },
    {
      "channel": 0,
      "note": 61,
      "start": 77.7861,
      "duration": 0.0768,
      "velocity": 102,
      "chip": "ym2612"
    },
    {
      "channel": 1,
      "note": 73,
      "start": 77.7891,
      "duration": 0.074,
      "velocity": 102,
      "chip": "ym2612"
    },
    {
      "channel": 5,
      "note": 49,
      "start": 77.8832,
      "duration": 0.0968,
      "velocity": 127,
      "chip": "ym2612"
    },
    {
      "channel": 4,
      "note": 61,
      "start": 77.8866,
      "duration": 0.0932,
      "velocity": 102,
      "chip": "ym2612"
    },
    {
      "channel": 0,
      "note": 85,
      "start": 78.0,
      "duration": 0.0797,
      "velocity": 127,
      "chip": "ym2612"
    },
    {
      "channel": 1,
      "note": 73,
      "start": 78.003,
      "duration": 0.0768,
      "velocity": 102,
      "chip": "ym2612"
    },
    {
      "channel": 5,
      "note": 49,
      "start": 78.0999,
      "duration": 0.1633,
      "velocity": 127,
      "chip": "ym2612"
    },
    {
      "channel": 2,
      "note": 73,
      "start": 78.1028,
      "duration": 0.0939,
      "velocity": 127,
      "chip": "ym2612"
    },
    {
      "channel": 4,
      "note": 61,
      "start": 78.1056,
      "duration": 0.0911,
      "velocity": 102,
      "chip": "ym2612"
    },
    {
      "channel": 0,
      "note": 49,
      "start": 78.109,
      "duration": 1.754,
      "velocity": 124,
      "chip": "ym2612"
    },
    {
      "channel": 1,
      "note": 73,
      "start": 78.1118,
      "duration": 0.0846,
      "velocity": 102,
      "chip": "ym2612"
    },
    {
      "channel": 1,
      "note": 85,
      "start": 78.2166,
      "duration": 0.0797,
      "velocity": 127,
      "chip": "ym2612"
    },
    {
      "channel": 2,
      "note": 73,
      "start": 78.3166,
      "duration": 0.0966,
      "velocity": 127,
      "chip": "ym2612"
    },
    {
      "channel": 5,
      "note": 49,
      "start": 78.4335,
      "duration": 0.1464,
      "velocity": 127,
      "chip": "ym2612"
    },
    {
      "channel": 3,
      "note": 61,
      "start": 78.4368,
      "duration": 0.0763,
      "velocity": 102,
      "chip": "ym2612"
    },
    {
      "channel": 1,
      "note": 85,
      "start": 78.533,
      "duration": 0.0968,
      "velocity": 127,
      "chip": "ym2612"
    },
    {
      "channel": 2,
      "note": 73,
      "start": 78.6497,
      "duration": 0.0803,
      "velocity": 127,
      "chip": "ym2612"
    },
    {
      "channel": 4,
      "note": 73,
      "start": 78.6527,
      "duration": 0.0771,
      "velocity": 102,
      "chip": "ym2612"
    },
    {
      "channel": 5,
      "note": 49,
      "start": 78.7663,
      "duration": 0.13,
      "velocity": 127,
      "chip": "ym2612"
    },
    {
      "channel": 3,
      "note": 61,
      "start": 78.7693,
      "duration": 0.0771,
      "velocity": 102,
      "chip": "ym2612"
    },
    {
      "channel": 1,
      "note": 85,
      "start": 78.8663,
      "duration": 0.08,
      "velocity": 127,
      "chip": "ym2612"
    },
    {
      "channel": 5,
      "note": 47,
      "start": 78.9832,
      "duration": 0.3133,
      "velocity": 127,
      "chip": "ym2612"
    },
    {
      "channel": 2,
      "note": 73,
      "start": 78.9865,
      "duration": 0.0768,
      "velocity": 127,
      "chip": "ym2612"
    },
    {
      "channel": 4,
      "note": 61,
      "start": 78.9898,
      "duration": 0.0732,
      "velocity": 102,
      "chip": "ym2612"
    },
    {
      "channel": 1,
      "note": 85,
      "start": 79.0832,
      "duration": 0.0798,
      "velocity": 127,
      "chip": "ym2612"
    },
    {
      "channel": 3,
      "note": 61,
      "start": 79.0861,
      "duration": 0.077,
      "velocity": 102,
      "chip": "ym2612"
    },
    {
      "channel": 2,
      "note": 73,
      "start": 79.1999,
      "duration": 0.0802,
      "velocity": 127,
      "chip": "ym2612"
    },
    {
      "channel": 4,
      "note": 61,
      "start": 79.2028,
      "duration": 0.077,
      "velocity": 102,
      "chip": "ym2612"
    },
    {
      "channel": 1,
      "note": 73,
      "start": 79.2061,
      "duration": 0.0737,
      "velocity": 102,
      "chip": "ym2612"
    },
    {
      "channel": 5,
      "note": 59,
      "start": 79.2996,
      "duration": 0.3303,
      "velocity": 127,
      "chip": "ym2612"
    },
    {
      "channel": 3,
      "note": 73,
      "start": 79.3032,
      "duration": 0.0766,
      "velocity": 102,
      "chip": "ym2612"
    },
    {
      "channel": 1,
      "note": 61,
      "start": 79.3063,
      "duration": 0.0734,
      "velocity": 102,
      "chip": "ym2612"
    },
    {
      "channel": 4,
      "note": 85,
      "start": 79.4164,
      "duration": 0.08,
      "velocity": 127,
      "chip": "ym2612"
    },
    {
      "channel": 2,
      "note": 73,
      "start": 79.5163,
      "duration": 0.0804,
      "velocity": 127,
      "chip": "ym2612"
    },
    {
      "channel": 1,
      "note": 61,
      "start": 79.5193,
      "duration": 0.0771,
      "velocity": 102,
      "chip": "ym2612"
    },
    {
      "channel": 3,
      "note": 73,
      "start": 79.5227,
      "duration": 0.0738,
      "velocity": 102,
      "chip": "ym2612"
    },
    {
      "channel": 5,
      "note": 47,
      "start": 79.6333,
      "duration": 0.1465,
      "velocity": 127,
      "chip": "ym2612"
    },
    {
      "channel": 4,
      "note": 61,
      "start": 79.6368,
      "duration": 0.0763,
      "velocity": 102,
      "chip": "ym2612"
    },
    {
      "channel": 1,
      "note": 85,
      "start": 79.7337,
      "duration": 0.0959,
      "velocity": 127,
      "chip": "ym2612"
    },
    {
      "channel": 3,
      "note": 73,
      "start": 79.7367,
      "duration": 0.0931,
      "velocity": 102,
      "chip": "ym2612"
    },
    {
      "channel": 5,
      "note": 49,
      "start": 79.8499,
      "duration": 0.1967,
      "velocity": 127,
      "chip": "ym2612"
    },
    {
      "channel": 2,
      "note": 73,
      "start": 79.8528,
      "duration": 0.0772,
      "velocity": 127,
      "chip": "ym2612"
    },
    {
      "channel": 4,
      "note": 61,
      "start": 79.8556,
      "duration": 0.0743,
      "velocity": 102,
      "chip": "ym2612"
    },
    {
      "channel": 1,
      "note": 73,
      "start": 79.8585,
      "duration": 1.7387,
      "velocity": 124,
      "chip": "ym2612"
    },
    {
      "channel": 3,
      "note": 73,
      "start": 79.8615,
      "duration": 0.0683,
      "velocity": 102,
      "chip": "ym2612"
    },
    {
      "channel": 0,
      "note": 85,
      "start": 79.95,
      "duration": 0.0963,
      "velocity": 127,
      "chip": "ym2612"
    },
    {
      "channel": 2,
      "note": 73,
      "start": 80.0666,
      "duration": 0.0798,
      "velocity": 127,
      "chip": "ym2612"
    },
    {
      "channel": 5,
      "note": 49,
      "start": 80.1663,
      "duration": 0.1634,
      "velocity": 127,
      "chip": "ym2612"
    },
    {
      "channel": 3,
      "note": 61,
      "start": 80.1693,
      "duration": 0.0937,
      "velocity": 102,
      "chip": "ym2612"
    },
    {
      "channel": 0,
      "note": 85,
      "start": 80.283,
      "duration": 0.08,
      "velocity": 127,
      "chip": "ym2612"
    },
    {
      "channel": 2,
      "note": 73,
      "start": 80.3831,
      "duration": 0.0968,
      "velocity": 127,
      "chip": "ym2612"
    },
    {
      "channel": 4,
      "note": 73,
      "start": 80.3861,
      "duration": 0.0937,
      "velocity": 102,
      "chip": "ym2612"
    },
    {
      "channel": 5,
      "note": 49,
      "start": 80.5004,
      "duration": 0.0961,
      "velocity": 127,
      "chip": "ym2612"
    },
    {
      "channel": 3,
      "note": 61,
      "start": 80.5034,
      "duration": 0.0763,
      "velocity": 102,
      "chip": "ym2612"
    },
    {
      "channel": 0,
      "note": 85,
      "start": 80.5998,
      "duration": 0.0964,
      "velocity": 127,
      "chip": "ym2612"
    },
    {
      "channel": 5,
      "note": 49,
      "start": 80.7164,
      "duration": 0.1969,
      "velocity": 127,
      "chip": "ym2612"
    },
    {
      "channel": 2,
      "note": 73,
      "start": 80.7194,
      "duration": 0.0771,
      "velocity": 127,
      "chip": "ym2612"
    },
    {
      "channel": 4,
      "note": 61,
      "start": 80.7227,
      "duration": 0.0736,
      "velocity": 102,
      "chip": "ym2612"
    },
    {
      "channel": 0,
      "note": 85,
      "start": 80.8163,
      "duration": 0.0966,
      "velocity": 127,
      "chip": "ym2612"
    },
    {
      "channel": 3,
      "note": 61,
      "start": 80.8192,
      "duration": 0.0939,
      "velocity": 102,
      "chip": "ym2612"
    },
    {
      "channel": 2,
      "note": 73,
      "start": 80.9333,
      "duration": 0.08,
      "velocity": 127,
      "chip": "ym2612"
    },
    {
      "channel": 4,
      "note": 61,
      "start": 80.9363,
      "duration": 0.0769,
      "velocity": 102,
      "chip": "ym2612"
    },
    {
      "channel": 0,
      "note": 73,
      "start": 80.9407,
      "duration": 0.0723,
      "velocity": 102,
      "chip": "ym2612"
    },
    {
      "channel": 5,
      "note": 49,
      "start": 81.033,
      "duration": 0.1634,
      "velocity": 127,
      "chip": "ym2612"
    },
    {
      "channel": 3,
      "note": 73,
      "start": 81.0363,
      "duration": 0.0936,
      "velocity": 102,
      "chip": "ym2612"
    },
    {
      "channel": 0,
      "note": 61,
      "start": 81.0396,
      "duration": 0.0901,
      "velocity": 102,
      "chip": "ym2612"
    },
    {
      "channel": 4,
      "note": 85,
      "start": 81.1498,
      "duration": 0.0801,
      "velocity": 127,
      "chip": "ym2612"
    },
    {
      "channel": 2,
      "note": 73,
      "start": 81.2497,
      "duration": 0.097,
      "velocity": 127,
      "chip": "ym2612"
    },
    {
      "channel": 0,
      "note": 61,
      "start": 81.2527,
      "duration": 0.0934,
      "velocity": 102,
      "chip": "ym2612"
    },
    {
      "channel": 3,
      "note": 73,
      "start": 81.2557,
      "duration": 0.0907,
      "velocity": 102,
      "chip": "ym2612"
    },
    {
      "channel": 5,
      "note": 49,
      "start": 81.3666,
      "duration": 0.08,
      "velocity": 127,
      "chip": "ym2612"
    },
    {
      "channel": 4,
      "note": 61,
      "start": 81.37,
      "duration": 0.0765,
      "velocity": 102,
      "chip": "ym2612"
    },
    {
      "channel": 0,
      "note": 85,
      "start": 81.4667,
      "duration": 0.0963,
      "velocity": 127,
      "chip": "ym2612"
    },
    {
      "channel": 3,
      "note": 73,
      "start": 81.4697,
      "duration": 0.0934,
      "velocity": 102,
      "chip": "ym2612"
    },
    {
      "channel": 5,
      "note": 49,
      "start": 81.5832,
      "duration": 0.1466,
      "velocity": 127,
      "chip": "ym2612"
    },
    {
      "channel": 2,
      "note": 73,
      "start": 81.5861,
      "duration": 0.0771,
      "velocity": 127,
      "chip": "ym2612"
    },
    {
      "channel": 4,
      "note": 61,
      "start": 81.5893,
      "duration": 0.0739,
      "velocity": 102,
      "chip": "ym2612"
    },
    {
      "channel": 0,
      "note": 49,
      "start": 81.593,
      "duration": 1.5532,
      "velocity": 124,
      "chip": "ym2612"
    },
    {
      "channel": 3,
      "note": 73,
      "start": 81.5959,
      "duration": 0.0671,
      "velocity": 102,
      "chip": "ym2612"
    },
    {
      "channel": 1,
      "note": 85,
      "start": 81.6834,
      "duration": 0.0964,
      "velocity": 127,
      "chip": "ym2612"
    },
    {
      "channel": 2,
      "note": 73,
      "start": 81.8003,
      "duration": 0.0795,
      "velocity": 127,
      "chip": "ym2612"
    },
    {
      "channel": 5,
      "note": 49,
      "start": 81.8997,
      "duration": 0.1468,
      "velocity": 127,
      "chip": "ym2612"
    },
    {
      "channel": 3,
      "note": 61,
      "start": 81.9027,
      "duration": 0.0937,
      "velocity": 102,
      "chip": "ym2612"
    },
    {
      "channel": 1,
      "note": 85,
      "start": 82.0163,
      "duration": 0.08,
      "velocity": 127,
      "chip": "ym2612"
    },
    {
      "channel": 2,
      "note": 73,
      "start": 82.1163,
      "duration": 0.0969,
      "velocity": 127,
      "chip": "ym2612"
    },
    {
      "channel": 4,
      "note": 73,
      "start": 82.1193,
      "duration": 0.0937,
      "velocity": 102,
      "chip": "ym2612"
    },
    {
      "channel": 5,
      "note": 49,
      "start": 82.2335,
      "duration": 0.1297,
      "velocity": 127,
      "chip": "ym2612"
    },
    {
      "channel": 3,
      "note": 61,
      "start": 82.2365,
      "duration": 0.0765,
      "velocity": 102,
      "chip": "ym2612"
    },
    {
      "channel": 1,
      "note": 85,
      "start": 82.3332,
      "duration": 0.0966,
      "velocity": 127,
      "chip": "ym2612"
    },
    {
      "channel": 5,
      "note": 47,
      "start": 82.4498,
      "duration": 0.3133,
      "velocity": 127,
      "chip": "ym2612"
    },
    {
      "channel": 2,
      "note": 73,
      "start": 82.4527,
      "duration": 0.0772,
      "velocity": 127,
      "chip": "ym2612"
    },
    {
      "channel": 4,
      "note": 61,
      "start": 82.4561,
      "duration": 0.0737,
      "velocity": 102,
      "chip": "ym2612"
    },
    {
      "channel": 1,
      "note": 85,
      "start": 82.5501,
      "duration": 0.0961,
      "velocity": 127,
      "chip": "ym2612"
    },
    {
      "channel": 3,
      "note": 61,
      "start": 82.5531,
      "duration": 0.0933,
      "velocity": 102,
      "chip": "ym2612"
    },
    {
      "channel": 2,
      "note": 73,
      "start": 82.6665,
      "duration": 0.0802,
      "velocity": 127,
      "chip": "ym2612"
    },
    {
      "channel": 4,
      "note": 61,
      "start": 82.6694,
      "duration": 0.0771,
      "velocity": 102,
      "chip": "ym2612"
    },
    {
      "channel": 1,
      "note": 73,
      "start": 82.6727,
      "duration": 0.0737,
      "velocity": 102,
      "chip": "ym2612"
    },
    {
      "channel": 5,
      "note": 59,
      "start": 82.7662,
      "duration": 0.3302,
      "velocity": 127,
      "chip": "ym2612"
    },
    {
      "channel": 3,
      "note": 73,
      "start": 82.7695,
      "duration": 0.0936,
      "velocity": 102,
      "chip": "ym2612"
    },
    {
      "channel": 1,
      "note": 61,
      "start": 82.7723,
      "duration": 0.0907,
      "velocity": 102,
      "chip": "ym2612"
    },
    {
      "channel": 4,
      "note": 85,
      "start": 82.8833,
      "duration": 0.0798,
      "velocity": 127,
      "chip": "ym2612"
    },
    {
      "channel": 2,
      "note": 73,
      "start": 82.9832,
      "duration": 0.0969,
      "velocity": 127,
      "chip": "ym2612"
    },
    {
      "channel": 1,
      "note": 61,
      "start": 82.9861,
      "duration": 0.0936,
      "velocity": 102,
      "chip": "ym2612"
    },
    {
      "channel": 3,
      "note": 73,
      "start": 82.9891,
      "duration": 0.0908,
      "velocity": 102,
      "chip": "ym2612"
    },
    {
      "channel": 5,
      "note": 47,
      "start": 83.1,
      "duration": 0.1632,
      "velocity": 127,
      "chip": "ym2612"
    },
    {
      "channel": 4,
      "note": 61,
      "start": 83.1034,
      "duration": 0.0765,
      "velocity": 102,
      "chip": "ym2612"
    },
    {
      "channel": 1,
      "note": 85,
      "start": 83.2,
      "duration": 0.0963,
      "velocity": 127,
      "chip": "ym2612"
    },
    {
      "channel": 3,
      "note": 73,
      "start": 83.203,
      "duration": 0.0934,
      "velocity": 102,
      "chip": "ym2612"
    }
  ]
}