{
  "track_name": "06 - Sogin's Jar (Chapter 2-1)",
  "duration_sec": 12.995,
  "sample_rate": 44100,
  "note_count": 489,
  "unique_pitches": 33,
  "pitch_range": 60,
  "avg_note_duration": 0.16,
  "reconstruction_stats": {
    "notes_reconstructed": 489,
    "keyon_events": 489,
    "keyoff_events": 481,
    "orphan_keyons": 5,
    "unique_pitches": 33,
    "pitch_range": 60,
    "avg_duration_sec": 0.16
  },
  "metadata": {
    "source": "P\\Phelios\\06 - Sogin's Jar (Chapter 2-1).vgz"
  },
  "notes": [
    {
      "channel": 3,
      "note": -1,
      "start": 0.0,
      "duration": 0.0,
      "velocity": 1,
      "chip": "ym2612"
    },
    {
      "channel": 3,
      "note": -1,
      "start": 0.0,
      "duration": 0.8063,
      "velocity": 94,
      "chip": "ym2612"
    },
    {
      "channel": 4,
      "note": -1,
      "start": 0.0,
      "duration": 0.0,
      "velocity": 1,
      "chip": "ym2612"
    },
    {
      "channel": 4,
      "note": -1,
      "start": 0.0,
      "duration": 0.0127,
      "velocity": 93,
      "chip": "ym2612"
    },
    {
      "channel": 5,
      "note": -1,
      "start": 0.0,
      "duration": 0.0,
      "velocity": 1,
      "chip": "ym2612"
    },
    {
      "channel": 5,
      "note": -1,
      "start": 0.0,
      "duration": 0.0166,
      "velocity": 28,
      "chip": "ym2612"
    },
    {
      "channel": 0,
      "note": 74,
      "start": 0.0021,
      "duration": 0.1998,
      "velocity": 114,
      "chip": "ym2612"
    },
    {
      "channel": 1,
      "note": 42,
      "start": 0.0057,
      "duration": 0.5969,
      "velocity": 103,
      "chip": "ym2612"
    },
    {
      "channel": 2,
      "note": 78,
      "start": 0.0092,
      "duration": 0.0897,
      "velocity": 94,
      "chip": "ym2612"
    },
    {
      "channel": 4,
      "note": 102,
      "start": 0.0128,
      "duration": 0.0867,
      "velocity": 93,
      "chip": "ym2612"
    },
    {
      "channel": 5,
      "note": 73,
      "start": 0.0167,
      "duration": 1.5884,
      "velocity": 28,
      "chip": "ym2612"
    },
    {
      "channel": 2,
      "note": 79,
      "start": 0.0989,
      "duration": 0.1036,
      "velocity": 94,
      "chip": "ym2612"
    },
    {
      "channel": 4,
      "note": 102,
      "start": 0.0996,
      "duration": 0.1036,
      "velocity": 93,
      "chip": "ym2612"
    },
    {
      "channel": 0,
      "note": 68,
      "start": 0.2019,
      "duration": 0.197,
      "velocity": 114,
      "chip": "ym2612"
    },
    {
      "channel": 2,
      "note": 78,
      "start": 0.2026,
      "duration": 0.0964,
      "velocity": 94,
      "chip": "ym2612"
    },
    {
      "channel": 4,
      "note": 90,
      "start": 0.2032,
      "duration": 0.0964,
      "velocity": 93,
      "chip": "ym2612"
    },
    {
      "channel": 2,
      "note": 79,
      "start": 0.299,
      "duration": 0.1006,
      "velocity": 94,
      "chip": "ym2612"
    },
    {
      "channel": 4,
      "note": 90,
      "start": 0.2996,
      "duration": 0.1006,
      "velocity": 93,
      "chip": "ym2612"
    },
    {
      "channel": 0,
      "note": 68,
      "start": 0.399,
      "duration": 0.2031,
      "velocity": 114,
      "chip": "ym2612"
    },
    {
      "channel": 2,
      "note": 81,
      "start": 0.3996,
      "duration": 0.0993,
      "velocity": 94,
      "chip": "ym2612"
    },
    {
      "channel": 4,
      "note": 90,
      "start": 0.4003,
      "duration": 0.0993,
      "velocity": 93,
      "chip": "ym2612"
    },
    {
      "channel": 2,
      "note": 79,
      "start": 0.4989,
      "duration": 0.1043,
      "velocity": 94,
      "chip": "ym2612"
    },
    {
      "channel": 4,
      "note": 90,
      "start": 0.4996,
      "duration": 0.1042,
      "velocity": 93,
      "chip": "ym2612"
    },
    {
      "channel": 0,
      "note": 74,
      "start": 0.6021,
      "duration": 0.2001,
      "velocity": 114,
      "chip": "ym2612"
    },
    {
      "channel": 1,
      "note": 43,
      "start": 0.6027,
      "duration": 0.6001,
      "velocity": 103,
      "chip": "ym2612"
    },
    {
      "channel": 2,
      "note": 81,
      "start": 0.6032,
      "duration": 0.0957,
      "velocity": 94,
      "chip": "ym2612"
    },
    {
      "channel": 4,
      "note": 102,
      "start": 0.6038,
      "duration": 0.0958,
      "velocity": 93,
      "chip": "ym2612"
    },
    {
      "channel": 2,
      "note": 79,
      "start": 0.699,
      "duration": 0.1038,
      "velocity": 94,
      "chip": "ym2612"
    },
    {
      "channel": 4,
      "note": 102,
      "start": 0.6996,
      "duration": 0.1073,
      "velocity": 93,
      "chip": "ym2612"
    },
    {
      "channel": 0,
      "note": 68,
      "start": 0.8022,
      "duration": 0.1969,
      "velocity": 114,
      "chip": "ym2612"
    },
    {
      "channel": 2,
      "note": 81,
      "start": 0.8029,
      "duration": 0.0963,
      "velocity": 94,
      "chip": "ym2612"
    },
    {
      "channel": 3,
      "note": 78,
      "start": 0.8064,
      "duration": 0.0932,
      "velocity": 94,
      "chip": "ym2612"
    },
    {
      "channel": 4,
      "note": 90,
      "start": 0.8069,
      "duration": 0.0933,
      "velocity": 93,
      "chip": "ym2612"
    },
    {
      "channel": 2,
      "note": 82,
      "start": 0.8991,
      "duration": 0.1006,
      "velocity": 94,
      "chip": "ym2612"
    },
    {
      "channel": 3,
      "note": 79,
      "start": 0.8997,
      "duration": 0.1006,
      "velocity": 94,
      "chip": "ym2612"
    },
    {
      "channel": 4,
      "note": 90,
      "start": 0.9002,
      "duration": 0.1007,
      "velocity": 93,
      "chip": "ym2612"
    },
    {
      "channel": 0,
      "note": 68,
      "start": 0.9992,
      "duration": 0.203,
      "velocity": 114,
      "chip": "ym2612"
    },
    {
      "channel": 2,
      "note": 81,
      "start": 0.9998,
      "duration": 0.0993,
      "velocity": 94,
      "chip": "ym2612"
    },
    {
      "channel": 3,
      "note": 78,
      "start": 1.0003,
      "duration": 0.0993,
      "velocity": 94,
      "chip": "ym2612"
    },
    {
      "channel": 4,
      "note": 90,
      "start": 1.0009,
      "duration": 0.0993,
      "velocity": 93,
      "chip": "ym2612"
    },
    {
      "channel": 2,
      "note": 82,
      "start": 1.0991,
      "duration": 0.1042,
      "velocity": 94,
      "chip": "ym2612"
    },
    {
      "channel": 3,
      "note": 79,
      "start": 1.0997,
      "duration": 0.1042,
      "velocity": 94,
      "chip": "ym2612"
    },
    {
      "channel": 4,
      "note": 90,
      "start": 1.1002,
      "duration": 0.1042,
      "velocity": 93,
      "chip": "ym2612"
    },
    {
      "channel": 0,
      "note": 74,
      "start": 1.2022,
      "duration": 0.1999,
      "velocity": 114,
      "chip": "ym2612"
    },
    {
      "channel": 1,
      "note": 45,
      "start": 1.2028,
      "duration": 0.4,
      "velocity": 103,
      "chip": "ym2612"
    },
    {
      "channel": 2,
      "note": 84,
      "start": 1.2033,
      "duration": 0.0958,
      "velocity": 94,
      "chip": "ym2612"
    },
    {
      "channel": 3,
      "note": 81,
      "start": 1.2039,
      "duration": 0.0958,
      "velocity": 94,
      "chip": "ym2612"
    },
    {
      "channel": 4,
      "note": 102,
      "start": 1.2045,
      "duration": 0.0958,
      "velocity": 93,
      "chip": "ym2612"
    },
    {
      "channel": 2,
      "note": 82,
      "start": 1.2992,
      "duration": 0.1036,
      "velocity": 94,
      "chip": "ym2612"
    },
    {
      "channel": 3,
      "note": 79,
      "start": 1.2997,
      "duration": 0.1036,
      "velocity": 94,
      "chip": "ym2612"
    },
    {
      "channel": 4,
      "note": 102,
      "start": 1.3003,
      "duration": 0.1036,
      "velocity": 93,
      "chip": "ym2612"
    },
    {
      "channel": 0,
      "note": 68,
      "start": 1.4021,
      "duration": 0.2001,
      "velocity": 114,
      "chip": "ym2612"
    },
    {
      "channel": 2,
      "note": 84,
      "start": 1.4028,
      "duration": 0.0963,
      "velocity": 94,
      "chip": "ym2612"
    },
    {
      "channel": 3,
      "note": 81,
      "start": 1.4033,
      "duration": 0.0963,
      "velocity": 94,
      "chip": "ym2612"
    },
    {
      "channel": 4,
      "note": 90,
      "start": 1.4039,
      "duration": 0.0963,
      "velocity": 93,
      "chip": "ym2612"
    },
    {
      "channel": 2,
      "note": 82,
      "start": 1.4991,
      "duration": 0.1043,
      "velocity": 94,
      "chip": "ym2612"
    },
    {
      "channel": 3,
      "note": 79,
      "start": 1.4997,
      "duration": 0.1043,
      "velocity": 94,
      "chip": "ym2612"
    },
    {
      "channel": 4,
      "note": 90,
      "start": 1.5002,
      "duration": 0.1043,
      "velocity": 93,
      "chip": "ym2612"
    },
    {
      "channel": 0,
      "note": 74,
      "start": 1.6022,
      "duration": 0.1999,
      "velocity": 114,
      "chip": "ym2612"
    },
    {
      "channel": 1,
      "note": 43,
      "start": 1.6029,
      "duration": 0.6,
      "velocity": 103,
      "chip": "ym2612"
    },
    {
      "channel": 2,
      "note": 84,
      "start": 1.6035,
      "duration": 0.0957,
      "velocity": 94,
      "chip": "ym2612"
    },
    {
      "channel": 3,
      "note": 81,
      "start": 1.604,
      "duration": 0.0957,
      "velocity": 94,
      "chip": "ym2612"
    },
    {
      "channel": 4,
      "note": 100,
      "start": 1.6045,
      "duration": 0.0957,
      "velocity": 93,
      "chip": "ym2612"
    },
    {
      "channel": 5,
      "note": 76,
      "start": 1.6052,
      "duration": 1.6,
      "velocity": 28,
      "chip": "ym2612"
    },
    {
      "channel": 2,
      "note": 85,
      "start": 1.6991,
      "duration": 0.1036,
      "velocity": 94,
      "chip": "ym2612"
    },
    {
      "channel": 3,
      "note": 82,
      "start": 1.6997,
      "duration": 0.1036,
      "velocity": 94,
      "chip": "ym2612"
    },
    {
      "channel": 4,
      "note": 100,
      "start": 1.7003,
      "duration": 0.1036,
      "velocity": 93,
      "chip": "ym2612"
    },
    {
      "channel": 0,
      "note": 68,
      "start": 1.8022,
      "duration": 0.1969,
      "velocity": 114,
      "chip": "ym2612"
    },
    {
      "channel": 2,
      "note": 84,
      "start": 1.8028,
      "duration": 0.0963,
      "velocity": 94,
      "chip": "ym2612"
    },
    {
      "channel": 3,
      "note": 81,
      "start": 1.8033,
      "duration": 0.0964,
      "velocity": 94,
      "chip": "ym2612"
    },
    {
      "channel": 4,
      "note": 91,
      "start": 1.8039,
      "duration": 0.0964,
      "velocity": 93,
      "chip": "ym2612"
    },
    {
      "channel": 2,
      "note": 85,
      "start": 1.8992,
      "duration": 0.1005,
      "velocity": 94,
      "chip": "ym2612"
    },
    {
      "channel": 3,
      "note": 82,
      "start": 1.8997,
      "duration": 0.1006,
      "velocity": 94,
      "chip": "ym2612"
    },
    {
      "channel": 4,
      "note": 91,
      "start": 1.9003,
      "duration": 0.1006,
      "velocity": 93,
      "chip": "ym2612"
    },
    {
      "channel": 0,
      "note": 68,
      "start": 1.9991,
      "duration": 0.2031,
      "velocity": 114,
      "chip": "ym2612"
    },
    {
      "channel": 2,
      "note": 87,
      "start": 1.9998,
      "duration": 0.0994,
      "velocity": 94,
      "chip": "ym2612"
    },
    {
      "channel": 3,
      "note": 84,
      "start": 2.0003,
      "duration": 0.0994,
      "velocity": 94,
      "chip": "ym2612"
    },
    {
      "channel": 4,
      "note": 91,
      "start": 2.0009,
      "duration": 0.0994,
      "velocity": 93,
      "chip": "ym2612"
    },
    {
      "channel": 2,
      "note": 85,
      "start": 2.0991,
      "duration": 0.1043,
      "velocity": 94,
      "chip": "ym2612"
    },
    {
      "channel": 3,
      "note": 82,
      "start": 2.0997,
      "duration": 0.1042,
      "velocity": 94,
      "chip": "ym2612"
    },
    {
      "channel": 4,
      "note": 91,
      "start": 2.1003,
      "duration": 0.1042,
      "velocity": 93,
      "chip": "ym2612"
    },
    {
      "channel": 0,
      "note": 74,
      "start": 2.2022,
      "duration": 0.1999,
      "velocity": 114,
      "chip": "ym2612"
    },
    {
      "channel": 1,
      "note": 45,
      "start": 2.2028,
      "duration": 0.5999,
      "velocity": 103,
      "chip": "ym2612"
    },
    {
      "channel": 2,
      "note": 87,
      "start": 2.2034,
      "duration": 0.0957,
      "velocity": 94,
      "chip": "ym2612"
    },
    {
      "channel": 3,
      "note": 84,
      "start": 2.204,
      "duration": 0.0957,
      "velocity": 94,
      "chip": "ym2612"
    },
    {
      "channel": 4,
      "note": 100,
      "start": 2.2045,
      "duration": 0.0957,
      "velocity": 93,
      "chip": "ym2612"
    },
    {
      "channel": 2,
      "note": 85,
      "start": 2.2991,
      "duration": 0.1036,
      "velocity": 94,
      "chip": "ym2612"
    },
    {
      "channel": 3,
      "note": 82,
      "start": 2.2997,
      "duration": 0.1036,
      "velocity": 94,
      "chip": "ym2612"
    },
    {
      "channel": 4,
      "note": 100,
      "start": 2.3003,
      "duration": 0.1036,
      "velocity": 93,
      "chip": "ym2612"
    },
    {
      "channel": 0,
      "note": 68,
      "start": 2.4021,
      "duration": 0.1969,
      "velocity": 114,
      "chip": "ym2612"
    },
    {
      "channel": 2,
      "note": 87,
      "start": 2.4028,
      "duration": 0.0964,
      "velocity": 94,
      "chip": "ym2612"
    },
    {
      "channel": 3,
      "note": 84,
      "start": 2.4033,
      "duration": 0.0964,
      "velocity": 94,
      "chip": "ym2612"
    },
    {
      "channel": 4,
      "note": 91,
      "start": 2.4039,
      "duration": 0.0963,
      "velocity": 93,
      "chip": "ym2612"
    },
    {
      "channel": 2,
      "note": 88,
      "start": 2.4991,
      "duration": 0.1006,
      "velocity": 94,
      "chip": "ym2612"
    },
    {
      "channel": 3,
      "note": 85,
      "start": 2.4997,
      "duration": 0.1006,
      "velocity": 94,
      "chip": "ym2612"
    },
    {
      "channel": 4,
      "note": 91,
      "start": 2.5003,
      "duration": 0.1006,
      "velocity": 93,
      "chip": "ym2612"
    },
    {
      "channel": 0,
      "note": 68,
      "start": 2.5991,
      "duration": 0.2031,
      "velocity": 114,
      "chip": "ym2612"
    },
    {
      "channel": 2,
      "note": 87,
      "start": 2.5998,
      "duration": 0.0994,
      "velocity": 94,
      "chip": "ym2612"
    },
    {
      "channel": 3,
      "note": 84,
      "start": 2.6003,
      "duration": 0.0993,
      "velocity": 94,
      "chip": "ym2612"
    },
    {
      "channel": 4,
      "note": 91,
      "start": 2.6009,
      "duration": 0.0994,
      "velocity": 93,
      "chip": "ym2612"
    },
    {
      "channel": 2,
      "note": 88,
      "start": 2.6991,
      "duration": 0.1042,
      "velocity": 94,
      "chip": "ym2612"
    },
    {
      "channel": 3,
      "note": 85,
      "start": 2.6997,
      "duration": 0.1042,
      "velocity": 94,
      "chip": "ym2612"
    },
    {
      "channel": 4,
      "note": 91,
      "start": 2.7002,
      "duration": 0.1042,
      "velocity": 93,
      "chip": "ym2612"
    },
    {
      "channel": 0,
      "note": 74,
      "start": 2.8022,
      "duration": 0.0999,
      "velocity": 114,
      "chip": "ym2612"
    },
    {
      "channel": 1,
      "note": 46,
      "start": 2.8028,
      "duration": 0.4,
      "velocity": 103,
      "chip": "ym2612"
    },
    {
      "channel": 2,
      "note": 90,
      "start": 2.8033,
      "duration": 0.0994,
      "velocity": 94,
      "chip": "ym2612"
    },
    {
      "channel": 3,
      "note": 87,
      "start": 2.8039,
      "duration": 0.0994,
      "velocity": 94,
      "chip": "ym2612"
    },
    {
      "channel": 4,
      "note": 100,
      "start": 2.8045,
      "duration": 0.0993,
      "velocity": 93,
      "chip": "ym2612"
    },
    {
      "channel": 0,
      "note": 68,
      "start": 2.9021,
      "duration": 0.0969,
      "velocity": 114,
      "chip": "ym2612"
    },
    {
      "channel": 2,
      "note": 88,
      "start": 2.9028,
      "duration": 0.0969,
      "velocity": 94,
      "chip": "ym2612"
    },
    {
      "channel": 3,
      "note": 85,
      "start": 2.9033,
      "duration": 0.0969,
      "velocity": 94,
      "chip": "ym2612"
    },
    {
      "channel": 4,
      "note": 100,
      "start": 2.9038,
      "duration": 0.097,
      "velocity": 93,
      "chip": "ym2612"
    },
    {
      "channel": 0,
      "note": 68,
      "start": 2.9991,
      "duration": 0.2031,
      "velocity": 114,
      "chip": "ym2612"
    },
    {
      "channel": 2,
      "note": 90,
      "start": 2.9998,
      "duration": 0.0994,
      "velocity": 94,
      "chip": "ym2612"
    },
    {
      "channel": 3,
      "note": 87,
      "start": 3.0003,
      "duration": 0.0994,
      "velocity": 94,
      "chip": "ym2612"
    },
    {
      "channel": 4,
      "note": 91,
      "start": 3.0009,
      "duration": 0.0994,
      "velocity": 93,
      "chip": "ym2612"
    },
    {
      "channel": 2,
      "note": 88,
      "start": 3.0991,
      "duration": 0.1043,
      "velocity": 94,
      "chip": "ym2612"
    },
    {
      "channel": 3,
      "note": 85,
      "start": 3.0997,
      "duration": 0.1042,
      "velocity": 94,
      "chip": "ym2612"
    },
    {
      "channel": 4,
      "note": 91,
      "start": 3.1003,
      "duration": 0.1042,
      "velocity": 93,
      "chip": "ym2612"
    },
    {
      "channel": 0,
      "note": 74,
      "start": 3.2022,
      "duration": 0.1998,
      "velocity": 114,
      "chip": "ym2612"
    },
    {
      "channel": 1,
      "note": 44,
      "start": 3.2028,
      "duration": 0.5999,
      "velocity": 103,
      "chip": "ym2612"
    },
    {
      "channel": 2,
      "note": 80,
      "start": 3.2034,
      "duration": 0.0957,
      "velocity": 94,
      "chip": "ym2612"
    },
    {
      "channel": 3,
      "note": 89,
      "start": 3.204,
      "duration": 0.0957,
      "velocity": 94,
      "chip": "ym2612"
    },
    {
      "channel": 4,
      "note": 99,
      "start": 3.2045,
      "duration": 0.0957,
      "velocity": 93,
      "chip": "ym2612"
    },
    {
      "channel": 5,
      "note": 75,
      "start": 3.2051,
      "duration": 1.6,
      "velocity": 28,
      "chip": "ym2612"
    },
    {
      "channel": 2,
      "note": 81,
      "start": 3.2991,
      "duration": 0.1036,
      "velocity": 94,
      "chip": "ym2612"
    },
    {
      "channel": 3,
      "note": 90,
      "start": 3.2997,
      "duration": 0.1036,
      "velocity": 94,
      "chip": "ym2612"
    },
    {
      "channel": 4,
      "note": 99,
      "start": 3.3002,
      "duration": 0.1036,
      "velocity": 93,
      "chip": "ym2612"
    },
    {
      "channel": 0,
      "note": 68,
      "start": 3.4021,
      "duration": 0.197,
      "velocity": 114,
      "chip": "ym2612"
    },
    {
      "channel": 2,
      "note": 80,
      "start": 3.4028,
      "duration": 0.0964,
      "velocity": 94,
      "chip": "ym2612"
    },
    {
      "channel": 3,
      "note": 89,
      "start": 3.4033,
      "duration": 0.0964,
      "velocity": 94,
      "chip": "ym2612"
    },
    {
      "channel": 4,
      "note": 92,
      "start": 3.4038,
      "duration": 0.0964,
      "velocity": 93,
      "chip": "ym2612"
    },
    {
      "channel": 2,
      "note": 81,
      "start": 3.4991,
      "duration": 0.1006,
      "velocity": 94,
      "chip": "ym2612"
    },
    {
      "channel": 3,
      "note": 90,
      "start": 3.4997,
      "duration": 0.1006,
      "velocity": 94,
      "chip": "ym2612"
    },
    {
      "channel": 4,
      "note": 92,
      "start": 3.5003,
      "duration": 0.1006,
      "velocity": 93,
      "chip": "ym2612"
    },
    {
      "channel": 0,
      "note": 68,
      "start": 3.5991,
      "duration": 0.2031,
      "velocity": 114,
      "chip": "ym2612"
    },
    {
      "channel": 2,
      "note": 83,
      "start": 3.5998,
      "duration": 0.0994,
      "velocity": 94,
      "chip": "ym2612"
    },
    {
      "channel": 3,
      "note": 92,
      "start": 3.6003,
      "duration": 0.0993,
      "velocity": 94,
      "chip": "ym2612"
    },
    {
      "channel": 4,
      "note": 92,
      "start": 3.6009,
      "duration": 0.0994,
      "velocity": 93,
      "chip": "ym2612"
    },
    {
      "channel": 2,
      "note": 81,
      "start": 3.6991,
      "duration": 0.1042,
      "velocity": 94,
      "chip": "ym2612"
    },
    {
      "channel": 3,
      "note": 90,
      "start": 3.6997,
      "duration": 0.1042,
      "velocity": 94,
      "chip": "ym2612"
    },
    {
      "channel": 4,
      "note": 92,
      "start": 3.7002,
      "duration": 0.1042,
      "velocity": 93,
      "chip": "ym2612"
    },
    {
      "channel": 0,
      "note": 74,
      "start": 3.8022,
      "duration": 0.1999,
      "velocity": 114,
      "chip": "ym2612"
    },
    {
      "channel": 1,
      "note": 45,
      "start": 3.8028,
      "duration": 0.5999,
      "velocity": 103,
      "chip": "ym2612"
    },
    {
      "channel": 2,
      "note": 83,
      "start": 3.8033,
      "duration": 0.0958,
      "velocity": 94,
      "chip": "ym2612"
    },
    {
      "channel": 3,
      "note": 92,
      "start": 3.8039,
      "duration": 0.0958,
      "velocity": 94,
      "chip": "ym2612"
    },
    {
      "channel": 4,
      "note": 99,
      "start": 3.8045,
      "duration": 0.0958,
      "velocity": 93,
      "chip": "ym2612"
    },
    {
      "channel": 2,
      "note": 81,
      "start": 3.8992,
      "duration": 0.1036,
      "velocity": 94,
      "chip": "ym2612"
    },
    {
      "channel": 3,
      "note": 90,
      "start": 3.8997,
      "duration": 0.1036,
      "velocity": 94,
      "chip": "ym2612"
    },
    {
      "channel": 4,
      "note": 99,
      "start": 3.9003,
      "duration": 0.1036,
      "velocity": 93,
      "chip": "ym2612"
    },
    {
      "channel": 0,
      "note": 68,
      "start": 4.0022,
      "duration": 0.1969,
      "velocity": 114,
      "chip": "ym2612"
    },
    {
      "channel": 2,
      "note": 83,
      "start": 4.0028,
      "duration": 0.0963,
      "velocity": 94,
      "chip": "ym2612"
    },
    {
      "channel": 3,
      "note": 80,
      "start": 4.0033,
      "duration": 0.0964,
      "velocity": 94,
      "chip": "ym2612"
    },
    {
      "channel": 4,
      "note": 92,
      "start": 4.0039,
      "duration": 0.0964,
      "velocity": 93,
      "chip": "ym2612"
    },
    {
      "channel": 2,
      "note": 84,
      "start": 4.0992,
      "duration": 0.1005,
      "velocity": 94,
      "chip": "ym2612"
    },
    {
      "channel": 3,
      "note": 81,
      "start": 4.0997,
      "duration": 0.1006,
      "velocity": 94,
      "chip": "ym2612"
    },
    {
      "channel": 4,
      "note": 92,
      "start": 4.1003,
      "duration": 0.1006,
      "velocity": 93,
      "chip": "ym2612"
    },
    {
      "channel": 0,
      "note": 68,
      "start": 4.1991,
      "duration": 0.2031,
      "velocity": 114,
      "chip": "ym2612"
    },
    {
      "channel": 2,
      "note": 83,
      "start": 4.1998,
      "duration": 0.0994,
      "velocity": 94,
      "chip": "ym2612"
    },
    {
      "channel": 3,
      "note": 80,
      "start": 4.2003,
      "duration": 0.0993,
      "velocity": 94,
      "chip": "ym2612"
    },
    {
      "channel": 4,
      "note": 92,
      "start": 4.2009,
      "duration": 0.0994,
      "velocity": 93,
      "chip": "ym2612"
    },
    {
      "channel": 2,
      "note": 84,
      "start": 4.2991,
      "duration": 0.1042,
      "velocity": 94,
      "chip": "ym2612"
    },
    {
      "channel": 3,
      "note": 81,
      "start": 4.2997,
      "duration": 0.1042,
      "velocity": 94,
      "chip": "ym2612"
    },
    {
      "channel": 4,
      "note": 92,
      "start": 4.3002,
      "duration": 0.1042,
      "velocity": 93,
      "chip": "ym2612"
    },
    {
      "channel": 0,
      "note": 74,
      "start": 4.4022,
      "duration": 0.1999,
      "velocity": 114,
      "chip": "ym2612"
    },
    {
      "channel": 1,
      "note": 47,
      "start": 4.4028,
      "duration": 0.4,
      "velocity": 103,
      "chip": "ym2612"
    },
    {
      "channel": 2,
      "note": 86,
      "start": 4.4033,
      "duration": 0.0958,
      "velocity": 94,
      "chip": "ym2612"
    },
    {
      "channel": 3,
      "note": 83,
      "start": 4.4039,
      "duration": 0.0958,
      "velocity": 94,
      "chip": "ym2612"
    },
    {
      "channel": 4,
      "note": 99,
      "start": 4.4045,
      "duration": 0.0958,
      "velocity": 93,
      "chip": "ym2612"
    },
    {
      "channel": 2,
      "note": 84,
      "start": 4.4992,
      "duration": 0.1036,
      "velocity": 94,
      "chip": "ym2612"
    },
    {
      "channel": 3,
      "note": 81,
      "start": 4.4997,
      "duration": 0.1036,
      "velocity": 94,
      "chip": "ym2612"
    },
    {
      "channel": 4,
      "note": 99,
      "start": 4.5003,
      "duration": 0.1036,
      "velocity": 93,
      "chip": "ym2612"
    },
    {
      "channel": 0,
      "note": 68,
      "start": 4.6021,
      "duration": 0.2001,
      "velocity": 114,
      "chip": "ym2612"
    },
    {
      "channel": 2,
      "note": 86,
      "start": 4.6028,
      "duration": 0.0964,
      "velocity": 94,
      "chip": "ym2612"
    },
    {
      "channel": 3,
      "note": 83,
      "start": 4.6033,
      "duration": 0.0964,
      "velocity": 94,
      "chip": "ym2612"
    },
    {
      "channel": 4,
      "note": 92,
      "start": 4.6039,
      "duration": 0.0964,
      "velocity": 93,
      "chip": "ym2612"
    },
    {
      "channel": 2,
      "note": 84,
      "start": 4.6992,
      "duration": 0.1042,
      "velocity": 94,
      "chip": "ym2612"
    },
    {
      "channel": 3,
      "note": 81,
      "start": 4.6997,
      "duration": 0.1042,
      "velocity": 94,
      "chip": "ym2612"
    },
    {
      "channel": 4,
      "note": 92,
      "start": 4.7003,
      "duration": 0.1042,
      "velocity": 93,
      "chip": "ym2612"
    },
    {
      "channel": 0,
      "note": 74,
      "start": 4.8022,
      "duration": 0.1999,
      "velocity": 114,
      "chip": "ym2612"
    },
    {
      "channel": 1,
      "note": 45,
      "start": 4.8028,
      "duration": 0.6,
      "velocity": 103,
      "chip": "ym2612"
    },
    {
      "channel": 2,
      "note": 86,
      "start": 4.8034,
      "duration": 0.0957,
      "velocity": 94,
      "chip": "ym2612"
    },
    {
      "channel": 3,
      "note": 83,
      "start": 4.804,
      "duration": 0.0957,
      "velocity": 94,
      "chip": "ym2612"
    },
    {
      "channel": 4,
      "note": 98,
      "start": 4.8045,
      "duration": 0.0958,
      "velocity": 93,
      "chip": "ym2612"
    },
    {
      "channel": 5,
      "note": 71,
      "start": 4.8051,
      "duration": 1.6,
      "velocity": 28,
      "chip": "ym2612"
    },
    {
      "channel": 2,
      "note": 87,
      "start": 4.8992,
      "duration": 0.1036,
      "velocity": 94,
      "chip": "ym2612"
    },
    {
      "channel": 3,
      "note": 84,
      "start": 4.8997,
      "duration": 0.1036,
      "velocity": 94,
      "chip": "ym2612"
    },
    {
      "channel": 4,
      "note": 98,
      "start": 4.9003,
      "duration": 0.1036,
      "velocity": 93,
      "chip": "ym2612"
    },
    {
      "channel": 0,
      "note": 68,
      "start": 5.0021,
      "duration": 0.197,
      "velocity": 114,
      "chip": "ym2612"
    },
    {
      "channel": 2,
      "note": 86,
      "start": 5.0028,
      "duration": 0.0964,
      "velocity": 94,
      "chip": "ym2612"
    },
    {
      "channel": 3,
      "note": 83,
      "start": 5.0033,
      "duration": 0.0963,
      "velocity": 94,
      "chip": "ym2612"
    },
    {
      "channel": 4,
      "note": 93,
      "start": 5.0039,
      "duration": 0.0963,
      "velocity": 93,
      "chip": "ym2612"
    },
    {
      "channel": 2,
      "note": 87,
      "start": 5.0991,
      "duration": 0.1006,
      "velocity": 94,
      "chip": "ym2612"
    },
    {
      "channel": 3,
      "note": 84,
      "start": 5.0997,
      "duration": 0.1006,
      "velocity": 94,
      "chip": "ym2612"
    },
    {
      "channel": 4,
      "note": 93,
      "start": 5.1002,
      "duration": 0.1006,
      "velocity": 93,
      "chip": "ym2612"
    },
    {
      "channel": 0,
      "note": 68,
      "start": 5.1992,
      "duration": 0.203,
      "velocity": 114,
      "chip": "ym2612"
    },
    {
      "channel": 2,
      "note": 89,
      "start": 5.1998,
      "duration": 0.0993,
      "velocity": 94,
      "chip": "ym2612"
    },
    {
      "channel": 3,
      "note": 86,
      "start": 5.2003,
      "duration": 0.0994,
      "velocity": 94,
      "chip": "ym2612"
    },
    {
      "channel": 4,
      "note": 93,
      "start": 5.2009,
      "duration": 0.0994,
      "velocity": 93,
      "chip": "ym2612"
    },
    {
      "channel": 2,
      "note": 87,
      "start": 5.2992,
      "duration": 0.1042,
      "velocity": 94,
      "chip": "ym2612"
    },
    {
      "channel": 3,
      "note": 84,
      "start": 5.2997,
      "duration": 0.1042,
      "velocity": 94,
      "chip": "ym2612"
    },
    {
      "channel": 4,
      "note": 93,
      "start": 5.3003,
      "duration": 0.1042,
      "velocity": 93,
      "chip": "ym2612"
    },
    {
      "channel": 0,
      "note": 74,
      "start": 5.4022,
      "duration": 0.1998,
      "velocity": 114,
      "chip": "ym2612"
    },
    {
      "channel": 1,
      "note": 47,
      "start": 5.4028,
      "duration": 0.6,
      "velocity": 103,
      "chip": "ym2612"
    },
    {
      "channel": 2,
      "note": 89,
      "start": 5.4034,
      "duration": 0.0957,
      "velocity": 94,
      "chip": "ym2612"
    },
    {
      "channel": 3,
      "note": 86,
      "start": 5.404,
      "duration": 0.0957,
      "velocity": 94,
      "chip": "ym2612"
    },
    {
      "channel": 4,
      "note": 98,
      "start": 5.4045,
      "duration": 0.0957,
      "velocity": 93,
      "chip": "ym2612"
    },
    {
      "channel": 2,
      "note": 87,
      "start": 5.4991,
      "duration": 0.1036,
      "velocity": 94,
      "chip": "ym2612"
    },
    {
      "channel": 3,
      "note": 84,
      "start": 5.4997,
      "duration": 0.1036,
      "velocity": 94,
      "chip": "ym2612"
    },
    {
      "channel": 4,
      "note": 98,
      "start": 5.5002,
      "duration": 0.1036,
      "velocity": 93,
      "chip": "ym2612"
    },
    {
      "channel": 0,
      "note": 68,
      "start": 5.6021,
      "duration": 0.197,
      "velocity": 114,
      "chip": "ym2612"
    },
    {
      "channel": 2,
      "note": 89,
      "start": 5.6028,
      "duration": 0.0964,
      "velocity": 94,
      "chip": "ym2612"
    },
    {
      "channel": 3,
      "note": 86,
      "start": 5.6033,
      "duration": 0.0963,
      "velocity": 94,
      "chip": "ym2612"
    },
    {
      "channel": 4,
      "note": 93,
      "start": 5.6038,
      "duration": 0.0964,
      "velocity": 93,
      "chip": "ym2612"
    },
    {
      "channel": 2,
      "note": 90,
      "start": 5.6991,
      "duration": 0.1006,
      "velocity": 94,
      "chip": "ym2612"
    },
    {
      "channel": 3,
      "note": 87,
      "start": 5.6997,
      "duration": 0.1006,
      "velocity": 94,
      "chip": "ym2612"
    },
    {
      "channel": 4,
      "note": 93,
      "start": 5.7002,
      "duration": 0.1006,
      "velocity": 93,
      "chip": "ym2612"
    },
    {
      "channel": 0,
      "note": 68,
      "start": 5.7992,
      "duration": 0.203,
      "velocity": 114,
      "chip": "ym2612"
    },
    {
      "channel": 2,
      "note": 89,
      "start": 5.7998,
      "duration": 0.0993,
      "velocity": 94,
      "chip": "ym2612"
    },
    {
      "channel": 3,
      "note": 86,
      "start": 5.8003,
      "duration": 0.0994,
      "velocity": 94,
      "chip": "ym2612"
    },
    {
      "channel": 4,
      "note": 93,
      "start": 5.8009,
      "duration": 0.0994,
      "velocity": 93,
      "chip": "ym2612"
    },
    {
      "channel": 2,
      "note": 90,
      "start": 5.8992,
      "duration": 0.1041,
      "velocity": 94,
      "chip": "ym2612"
    },
    {
      "channel": 3,
      "note": 87,
      "start": 5.8997,
      "duration": 0.1042,
      "velocity": 94,
      "chip": "ym2612"
    },
    {
      "channel": 4,
      "note": 93,
      "start": 5.9003,
      "duration": 0.1042,
      "velocity": 93,
      "chip": "ym2612"
    },
    {
      "channel": 0,
      "note": 74,
      "start": 6.0022,
      "duration": 0.0968,
      "velocity": 114,
      "chip": "ym2612"
    },
    {
      "channel": 1,
      "note": 48,
      "start": 6.0028,
      "duration": 0.4,
      "velocity": 103,
      "chip": "ym2612"
    },
    {
      "channel": 2,
      "note": 92,
      "start": 6.0034,
      "duration": 0.0963,
      "velocity": 94,
      "chip": "ym2612"
    },
    {
      "channel": 3,
      "note": 89,
      "start": 6.004,
      "duration": 0.0963,
      "velocity": 94,
      "chip": "ym2612"
    },
    {
      "channel": 4,
      "note": 98,
      "start": 6.0045,
      "duration": 0.0964,
      "velocity": 93,
      "chip": "ym2612"
    },
    {
      "channel": 0,
      "note": 74,
      "start": 6.0991,
      "duration": 0.103,
      "velocity": 114,
      "chip": "ym2612"
    },
    {
      "channel": 2,
      "note": 90,
      "start": 6.0998,
      "duration": 0.103,
      "velocity": 94,
      "chip": "ym2612"
    },
    {
      "channel": 3,
      "note": 87,
      "start": 6.1003,
      "duration": 0.103,
      "velocity": 94,
      "chip": "ym2612"
    },
    {
      "channel": 4,
      "note": 98,
      "start": 6.1009,
      "duration": 0.103,
      "velocity": 93,
      "chip": "ym2612"
    },
    {
      "channel": 0,
      "note": 68,
      "start": 6.2021,
      "duration": 0.2001,
      "velocity": 114,
      "chip": "ym2612"
    },
    {
      "channel": 2,
      "note": 92,
      "start": 6.2028,
      "duration": 0.0964,
      "velocity": 94,
      "chip": "ym2612"
    },
    {
      "channel": 3,
      "note": 89,
      "start": 6.2033,
      "duration": 0.0964,
      "velocity": 94,
      "chip": "ym2612"
    },
    {
      "channel": 4,
      "note": 93,
      "start": 6.2039,
      "duration": 0.0964,
      "velocity": 93,
      "chip": "ym2612"
    },
    {
      "channel": 2,
      "note": 90,
      "start": 6.2992,
      "duration": 0.1043,
      "velocity": 94,
      "chip": "ym2612"
    },
    {
      "channel": 3,
      "note": 87,
      "start": 6.2997,
      "duration": 0.1043,
      "velocity": 94,
      "chip": "ym2612"
    },
    {
      "channel": 4,
      "note": 93,
      "start": 6.3003,
      "duration": 0.1043,
      "velocity": 93,
      "chip": "ym2612"
    },
    {
      "channel": 0,
      "note": 74,
      "start": 6.4023,
      "duration": 0.1998,
      "velocity": 114,
      "chip": "ym2612"
    },
    {
      "channel": 1,
      "note": 42,
      "start": 6.4029,
      "duration": 0.6,
      "velocity": 103,
      "chip": "ym2612"
    },
    {
      "channel": 2,
      "note": 78,
      "start": 6.4035,
      "duration": 0.0957,
      "velocity": 94,
      "chip": "ym2612"
    },
    {
      "channel": 3,
      "note": 87,
      "start": 6.404,
      "duration": 0.0956,
      "velocity": 94,
      "chip": "ym2612"
    },
    {
      "channel": 4,
      "note": 102,
      "start": 6.4045,
      "duration": 0.0957,
      "velocity": 93,
      "chip": "ym2612"
    },
    {
      "channel": 5,
      "note": 73,
      "start": 6.4052,
      "duration": 1.6,
      "velocity": 28,
      "chip": "ym2612"
    },
    {
      "channel": 2,
      "note": 79,
      "start": 6.4991,
      "duration": 0.1036,
      "velocity": 94,
      "chip": "ym2612"
    },
    {
      "channel": 3,
      "note": 88,
      "start": 6.4997,
      "duration": 0.1036,
      "velocity": 94,
      "chip": "ym2612"
    },
    {
      "channel": 4,
      "note": 102,
      "start": 6.5002,
      "duration": 0.1036,
      "velocity": 93,
      "chip": "ym2612"
    },
    {
      "channel": 0,
      "note": 68,
      "start": 6.6021,
      "duration": 0.197,
      "velocity": 114,
      "chip": "ym2612"
    },
    {
      "channel": 2,
      "note": 78,
      "start": 6.6028,
      "duration": 0.0964,
      "velocity": 94,
      "chip": "ym2612"
    },
    {
      "channel": 3,
      "note": 87,
      "start": 6.6033,
      "duration": 0.0963,
      "velocity": 94,
      "chip": "ym2612"
    },
    {
      "channel": 4,
      "note": 90,
      "start": 6.6038,
      "duration": 0.0964,
      "velocity": 93,
      "chip": "ym2612"
    },
    {
      "channel": 2,
      "note": 79,
      "start": 6.6991,
      "duration": 0.1006,
      "velocity": 94,
      "chip": "ym2612"
    },
    {
      "channel": 3,
      "note": 88,
      "start": 6.6997,
      "duration": 0.1006,
      "velocity": 94,
      "chip": "ym2612"
    },
    {
      "channel": 4,
      "note": 90,
      "start": 6.7002,
      "duration": 0.1006,
      "velocity": 93,
      "chip": "ym2612"
    },
    {
      "channel": 0,
      "note": 68,
      "start": 6.7992,
      "duration": 0.203,
      "velocity": 114,
      "chip": "ym2612"
    },
    {
      "channel": 2,
      "note": 81,
      "start": 6.7998,
      "duration": 0.0993,
      "velocity": 94,
      "chip": "ym2612"
    },
    {
      "channel": 3,
      "note": 90,
      "start": 6.8003,
      "duration": 0.0994,
      "velocity": 94,
      "chip": "ym2612"
    },
    {
      "channel": 4,
      "note": 90,
      "start": 6.8009,
      "duration": 0.0994,
      "velocity": 93,
      "chip": "ym2612"
    },
    {
      "channel": 2,
      "note": 79,
      "start": 6.8992,
      "duration": 0.1041,
      "velocity": 94,
      "chip": "ym2612"
    },
    {
      "channel": 3,
      "note": 88,
      "start": 6.8997,
      "duration": 0.1042,
      "velocity": 94,
      "chip": "ym2612"
    },
    {
      "channel": 4,
      "note": 90,
      "start": 6.9003,
      "duration": 0.1042,
      "velocity": 93,
      "chip": "ym2612"
    },
    {
      "channel": 0,
      "note": 74,
      "start": 7.0022,
      "duration": 0.1998,
      "velocity": 114,
      "chip": "ym2612"
    },
    {
      "channel": 1,
      "note": 43,
      "start": 7.0028,
      "duration": 0.5999,
      "velocity": 103,
      "chip": "ym2612"
    },
    {
      "channel": 2,
      "note": 81,
      "start": 7.0034,
      "duration": 0.0957,
      "velocity": 94,
      "chip": "ym2612"
    },
    {
      "channel": 3,
      "note": 90,
      "start": 7.004,
      "duration": 0.0957,
      "velocity": 94,
      "chip": "ym2612"
    },
    {
      "channel": 4,
      "note": 102,
      "start": 7.0045,
      "duration": 0.0957,
      "velocity": 93,
      "chip": "ym2612"
    },
    {
      "channel": 2,
      "note": 79,
      "start": 7.0991,
      "duration": 0.1036,
      "velocity": 94,
      "chip": "ym2612"
    },
    {
      "channel": 3,
      "note": 88,
      "start": 7.0997,
      "duration": 0.1036,
      "velocity": 94,
      "chip": "ym2612"
    },
    {
      "channel": 4,
      "note": 102,
      "start": 7.1002,
      "duration": 0.1036,
      "velocity": 93,
      "chip": "ym2612"
    },
    {
      "channel": 0,
      "note": 68,
      "start": 7.2021,
      "duration": 0.197,
      "velocity": 114,
      "chip": "ym2612"
    },
    {
      "channel": 2,
      "note": 81,
      "start": 7.2028,
      "duration": 0.0964,
      "velocity": 94,
      "chip": "ym2612"
    },
    {
      "channel": 3,
      "note": 78,
      "start": 7.2033,
      "duration": 0.0963,
      "velocity": 94,
      "chip": "ym2612"
    },
    {
      "channel": 4,
      "note": 90,
      "start": 7.2038,
      "duration": 0.0964,
      "velocity": 93,
      "chip": "ym2612"
    },
    {
      "channel": 2,
      "note": 82,
      "start": 7.2991,
      "duration": 0.1006,
      "velocity": 94,
      "chip": "ym2612"
    },
    {
      "channel": 3,
      "note": 79,
      "start": 7.2997,
      "duration": 0.1006,
      "velocity": 94,
      "chip": "ym2612"
    },
    {
      "channel": 4,
      "note": 90,
      "start": 7.3002,
      "duration": 0.1007,
      "velocity": 93,
      "chip": "ym2612"
    },
    {
      "channel": 0,
      "note": 68,
      "start": 7.3992,
      "duration": 0.203,
      "velocity": 114,
      "chip": "ym2612"
    },
    {
      "channel": 2,
      "note": 81,
      "start": 7.3998,
      "duration": 0.0993,
      "velocity": 94,
      "chip": "ym2612"
    },
    {
      "channel": 3,
      "note": 78,
      "start": 7.4003,
      "duration": 0.0993,
      "velocity": 94,
      "chip": "ym2612"
    },
    {
      "channel": 4,
      "note": 90,
      "start": 7.4009,
      "duration": 0.0993,
      "velocity": 93,
      "chip": "ym2612"
    },
    {
      "channel": 2,
      "note": 82,
      "start": 7.4991,
      "duration": 0.1042,
      "velocity": 94,
      "chip": "ym2612"
    },
    {
      "channel": 3,
      "note": 79,
      "start": 7.4997,
      "duration": 0.1042,
      "velocity": 94,
      "chip": "ym2612"
    },
    {
      "channel": 4,
      "note": 90,
      "start": 7.5002,
      "duration": 0.1042,
      "velocity": 93,
      "chip": "ym2612"
    },
    {
      "channel": 0,
      "note": 74,
      "start": 7.6022,
      "duration": 0.1999,
      "velocity": 114,
      "chip": "ym2612"
    },
    {
      "channel": 1,
      "note": 45,
      "start": 7.6028,
      "duration": 0.4,
      "velocity": 103,
      "chip": "ym2612"
    },
    {
      "channel": 2,
      "note": 84,
      "start": 7.6033,
      "duration": 0.0958,
      "velocity": 94,
      "chip": "ym2612"
    },
    {
      "channel": 3,
      "note": 81,
      "start": 7.6039,
      "duration": 0.0958,
      "velocity": 94,
      "chip": "ym2612"
    },
    {
      "channel": 4,
      "note": 102,
      "start": 7.6045,
      "duration": 0.0958,
      "velocity": 93,
      "chip": "ym2612"
    },
    {
      "channel": 2,
      "note": 82,
      "start": 7.6992,
      "duration": 0.1036,
      "velocity": 94,
      "chip": "ym2612"
    },
    {
      "channel": 3,
      "note": 79,
      "start": 7.6997,
      "duration": 0.1036,
      "velocity": 94,
      "chip": "ym2612"
    },
    {
      "channel": 4,
      "note": 102,
      "start": 7.7003,
      "duration": 0.1036,
      "velocity": 93,
      "chip": "ym2612"
    },
    {
      "channel": 0,
      "note": 68,
      "start": 7.8021,
      "duration": 0.2001,
      "velocity": 114,
      "chip": "ym2612"
    },
    {
      "channel": 2,
      "note": 84,
      "start": 7.8028,
      "duration": 0.0963,
      "velocity": 94,
      "chip": "ym2612"
    },
    {
      "channel": 3,
      "note": 81,
      "start": 7.8033,
      "duration": 0.0963,
      "velocity": 94,
      "chip": "ym2612"
    },
    {
      "channel": 4,
      "note": 90,
      "start": 7.8039,
      "duration": 0.0963,
      "velocity": 93,
      "chip": "ym2612"
    },
    {
      "channel": 2,
      "note": 82,
      "start": 7.8991,
      "duration": 0.1043,
      "velocity": 94,
      "chip": "ym2612"
    },
    {
      "channel": 3,
      "note": 79,
      "start": 7.8997,
      "duration": 0.1043,
      "velocity": 94,
      "chip": "ym2612"
    },
    {
      "channel": 4,
      "note": 90,
      "start": 7.9002,
      "duration": 0.1043,
      "velocity": 93,
      "chip": "ym2612"
    },
    {
      "channel": 0,
      "note": 74,
      "start": 8.0022,
      "duration": 0.1999,
      "velocity": 114,
      "chip": "ym2612"
    },
    {
      "channel": 1,
      "note": 43,
      "start": 8.0029,
      "duration": 0.6,
      "velocity": 103,
      "chip": "ym2612"
    },
    {
      "channel": 2,
      "note": 84,
      "start": 8.0035,
      "duration": 0.0957,
      "velocity": 94,
      "chip": "ym2612"
    },
    {
      "channel": 3,
      "note": 81,
      "start": 8.004,
      "duration": 0.0957,
      "velocity": 94,
      "chip": "ym2612"
    },
    {
      "channel": 4,
      "note": 100,
      "start": 8.0045,
      "duration": 0.0957,
      "velocity": 93,
      "chip": "ym2612"
    },
    {
      "channel": 5,
      "note": 76,
      "start": 8.0052,
      "duration": 1.6,
      "velocity": 28,
      "chip": "ym2612"
    },
    {
      "channel": 2,
      "note": 85,
      "start": 8.0991,
      "duration": 0.1036,
      "velocity": 94,
      "chip": "ym2612"
    },
    {
      "channel": 3,
      "note": 82,
      "start": 8.0997,
      "duration": 0.1036,
      "velocity": 94,
      "chip": "ym2612"
    },
    {
      "channel": 4,
      "note": 100,
      "start": 8.1003,
      "duration": 0.1036,
      "velocity": 93,
      "chip": "ym2612"
    },
    {
      "channel": 0,
      "note": 68,
      "start": 8.2022,
      "duration": 0.1969,
      "velocity": 114,
      "chip": "ym2612"
    },
    {
      "channel": 2,
      "note": 84,
      "start": 8.2028,
      "duration": 0.0963,
      "velocity": 94,
      "chip": "ym2612"
    },
    {
      "channel": 3,
      "note": 81,
      "start": 8.2033,
      "duration": 0.0964,
      "velocity": 94,
      "chip": "ym2612"
    },
    {
      "channel": 4,
      "note": 91,
      "start": 8.2039,
      "duration": 0.0964,
      "velocity": 93,
      "chip": "ym2612"
    },
    {
      "channel": 2,
      "note": 85,
      "start": 8.2992,
      "duration": 0.1005,
      "velocity": 94,
      "chip": "ym2612"
    },
    {
      "channel": 3,
      "note": 82,
      "start": 8.2997,
      "duration": 0.1006,
      "velocity": 94,
      "chip": "ym2612"
    },
    {
      "channel": 4,
      "note": 91,
      "start": 8.3003,
      "duration": 0.1006,
      "velocity": 93,
      "chip": "ym2612"
    },
    {
      "channel": 0,
      "note": 68,
      "start": 8.3991,
      "duration": 0.2031,
      "velocity": 114,
      "chip": "ym2612"
    },
    {
      "channel": 2,
      "note": 87,
      "start": 8.3998,
      "duration": 0.0994,
      "velocity": 94,
      "chip": "ym2612"
    },
    {
      "channel": 3,
      "note": 84,
      "start": 8.4003,
      "duration": 0.0994,
      "velocity": 94,
      "chip": "ym2612"
    },
    {
      "channel": 4,
      "note": 91,
      "start": 8.4009,
      "duration": 0.0994,
      "velocity": 93,
      "chip": "ym2612"
    },
    {
      "channel": 2,
      "note": 85,
      "start": 8.4991,
      "duration": 0.1043,
      "velocity": 94,
      "chip": "ym2612"
    },
    {
      "channel": 3,
      "note": 82,
      "start": 8.4997,
      "duration": 0.1042,
      "velocity": 94,
      "chip": "ym2612"
    },
    {
      "channel": 4,
      "note": 91,
      "start": 8.5003,
      "duration": 0.1042,
      "velocity": 93,
      "chip": "ym2612"
    },
    {
      "channel": 0,
      "note": 74,
      "start": 8.6022,
      "duration": 0.1999,
      "velocity": 114,
      "chip": "ym2612"
    },
    {
      "channel": 1,
      "note": 45,
      "start": 8.6028,
      "duration": 0.5999,
      "velocity": 103,
      "chip": "ym2612"
    },
    {
      "channel": 2,
      "note": 87,
      "start": 8.6034,
      "duration": 0.0957,
      "velocity": 94,
      "chip": "ym2612"
    },
    {
      "channel": 3,
      "note": 84,
      "start": 8.604,
      "duration": 0.0957,
      "velocity": 94,
      "chip": "ym2612"
    },
    {
      "channel": 4,
      "note": 100,
      "start": 8.6045,
      "duration": 0.0957,
      "velocity": 93,
      "chip": "ym2612"
    },
    {
      "channel": 2,
      "note": 85,
      "start": 8.6991,
      "duration": 0.1036,
      "velocity": 94,
      "chip": "ym2612"
    },
    {
      "channel": 3,
      "note": 82,
      "start": 8.6997,
      "duration": 0.1036,
      "velocity": 94,
      "chip": "ym2612"
    },
    {
      "channel": 4,
      "note": 100,
      "start": 8.7003,
      "duration": 0.1036,
      "velocity": 93,
      "chip": "ym2612"
    },
    {
      "channel": 0,
      "note": 68,
      "start": 8.8021,
      "duration": 0.1969,
      "velocity": 114,
      "chip": "ym2612"
    },
    {
      "channel": 2,
      "note": 87,
      "start": 8.8028,
      "duration": 0.0964,
      "velocity": 94,
      "chip": "ym2612"
    },
    {
      "channel": 3,
      "note": 84,
      "start": 8.8033,
      "duration": 0.0964,
      "velocity": 94,
      "chip": "ym2612"
    },
    {
      "channel": 4,
      "note": 91,
      "start": 8.8039,
      "duration": 0.0963,
      "velocity": 93,
      "chip": "ym2612"
    },
    {
      "channel": 2,
      "note": 88,
      "start": 8.8991,
      "duration": 0.1006,
      "velocity": 94,
      "chip": "ym2612"
    },
    {
      "channel": 3,
      "note": 85,
      "start": 8.8997,
      "duration": 0.1006,
      "velocity": 94,
      "chip": "ym2612"
    },
    {
      "channel": 4,
      "note": 91,
      "start": 8.9003,
      "duration": 0.1006,
      "velocity": 93,
      "chip": "ym2612"
    },
    {
      "channel": 0,
      "note": 68,
      "start": 8.9991,
      "duration": 0.2031,
      "velocity": 114,
      "chip": "ym2612"
    },
    {
      "channel": 2,
      "note": 87,
      "start": 8.9998,
      "duration": 0.0994,
      "velocity": 94,
      "chip": "ym2612"
    },
    {
      "channel": 3,
      "note": 84,
      "start": 9.0003,
      "duration": 0.0993,
      "velocity": 94,
      "chip": "ym2612"
    },
    {
      "channel": 4,
      "note": 91,
      "start": 9.0009,
      "duration": 0.0994,
      "velocity": 93,
      "chip": "ym2612"
    },
    {
      "channel": 2,
      "note": 88,
      "start": 9.0991,
      "duration": 0.1042,
      "velocity": 94,
      "chip": "ym2612"
    },
    {
      "channel": 3,
      "note": 85,
      "start": 9.0997,
      "duration": 0.1042,
      "velocity": 94,
      "chip": "ym2612"
    },
    {
      "channel": 4,
      "note": 91,
      "start": 9.1002,
      "duration": 0.1042,
      "velocity": 93,
      "chip": "ym2612"
    },
    {
      "channel": 0,
      "note": 74,
      "start": 9.2022,
      "duration": 0.0999,
      "velocity": 114,
      "chip": "ym2612"
    },
    {
      "channel": 1,
      "note": 46,
      "start": 9.2028,
      "duration": 0.4,
      "velocity": 103,
      "chip": "ym2612"
    },
    {
      "channel": 2,
      "note": 90,
      "start": 9.2033,
      "duration": 0.0994,
      "velocity": 94,
      "chip": "ym2612"
    },
    {
      "channel": 3,
      "note": 87,
      "start": 9.2039,
      "duration": 0.0994,
      "velocity": 94,
      "chip": "ym2612"
    },
    {
      "channel": 4,
      "note": 100,
      "start": 9.2045,
      "duration": 0.0993,
      "velocity": 93,
      "chip": "ym2612"
    },
    {
      "channel": 0,
      "note": 68,
      "start": 9.3021,
      "duration": 0.0969,
      "velocity": 114,
      "chip": "ym2612"
    },
    {
      "channel": 2,
      "note": 88,
      "start": 9.3028,
      "duration": 0.0969,
      "velocity": 94,
      "chip": "ym2612"
    },
    {
      "channel": 3,
      "note": 85,
      "start": 9.3033,
      "duration": 0.0969,
      "velocity": 94,
      "chip": "ym2612"
    },
    {
      "channel": 4,
      "note": 100,
      "start": 9.3038,
      "duration": 0.097,
      "velocity": 93,
      "chip": "ym2612"
    },
    {
      "channel": 0,
      "note": 68,
      "start": 9.3991,
      "duration": 0.2031,
      "velocity": 114,
      "chip": "ym2612"
    },
    {
      "channel": 2,
      "note": 90,
      "start": 9.3998,
      "duration": 0.0994,
      "velocity": 94,
      "chip": "ym2612"
    },
    {
      "channel": 3,
      "note": 87,
      "start": 9.4003,
      "duration": 0.0994,
      "velocity": 94,
      "chip": "ym2612"
    },
    {
      "channel": 4,
      "note": 91,
      "start": 9.4009,
      "duration": 0.0994,
      "velocity": 93,
      "chip": "ym2612"
    },
    {
      "channel": 2,
      "note": 88,
      "start": 9.4991,
      "duration": 0.1043,
      "velocity": 94,
      "chip": "ym2612"
    },
    {
      "channel": 3,
      "note": 85,
      "start": 9.4997,
      "duration": 0.1042,
      "velocity": 94,
      "chip": "ym2612"
    },
    {
      "channel": 4,
      "note": 91,
      "start": 9.5003,
      "duration": 0.1042,
      "velocity": 93,
      "chip": "ym2612"
    },
    {
      "channel": 0,
      "note": 74,
      "start": 9.6022,
      "duration": 0.1998,
      "velocity": 114,
      "chip": "ym2612"
    },
    {
      "channel": 1,
      "note": 44,
      "start": 9.6028,
      "duration": 0.5999,
      "velocity": 103,
      "chip": "ym2612"
    },
    {
      "channel": 2,
      "note": 80,
      "start": 9.6034,
      "duration": 0.0957,
      "velocity": 94,
      "chip": "ym2612"
    },
    {
      "channel": 3,
      "note": 89,
      "start": 9.604,
      "duration": 0.0957,
      "velocity": 94,
      "chip": "ym2612"
    },
    {
      "channel": 4,
      "note": 99,
      "start": 9.6045,
      "duration": 0.0957,
      "velocity": 93,
      "chip": "ym2612"
    },
    {
      "channel": 5,
      "note": 75,
      "start": 9.6051,
      "duration": 1.6,
      "velocity": 28,
      "chip": "ym2612"
    },
    {
      "channel": 2,
      "note": 81,
      "start": 9.6991,
      "duration": 0.1036,
      "velocity": 94,
      "chip": "ym2612"
    },
    {
      "channel": 3,
      "note": 90,
      "start": 9.6997,
      "duration": 0.1036,
      "velocity": 94,
      "chip": "ym2612"
    },
    {
      "channel": 4,
      "note": 99,
      "start": 9.7002,
      "duration": 0.1036,
      "velocity": 93,
      "chip": "ym2612"
    },
    {
      "channel": 0,
      "note": 68,
      "start": 9.8021,
      "duration": 0.197,
      "velocity": 114,
      "chip": "ym2612"
    },
    {
      "channel": 2,
      "note": 80,
      "start": 9.8028,
      "duration": 0.0964,
      "velocity": 94,
      "chip": "ym2612"
    },
    {
      "channel": 3,
      "note": 89,
      "start": 9.8033,
      "duration": 0.0964,
      "velocity": 94,
      "chip": "ym2612"
    },
    {
      "channel": 4,
      "note": 92,
      "start": 9.8038,
      "duration": 0.0964,
      "velocity": 93,
      "chip": "ym2612"
    },
    {
      "channel": 2,
      "note": 81,
      "start": 9.8991,
      "duration": 0.1006,
      "velocity": 94,
      "chip": "ym2612"
    },
    {
      "channel": 3,
      "note": 90,
      "start": 9.8997,
      "duration": 0.1006,
      "velocity": 94,
      "chip": "ym2612"
    },
    {
      "channel": 4,
      "note": 92,
      "start": 9.9003,
      "duration": 0.1006,
      "velocity": 93,
      "chip": "ym2612"
    },
    {
      "channel": 0,
      "note": 68,
      "start": 9.9991,
      "duration": 0.2031,
      "velocity": 114,
      "chip": "ym2612"
    },
    {
      "channel": 2,
      "note": 83,
      "start": 9.9998,
      "duration": 0.0994,
      "velocity": 94,
      "chip": "ym2612"
    },
    {
      "channel": 3,
      "note": 92,
      "start": 10.0003,
      "duration": 0.0993,
      "velocity": 94,
      "chip": "ym2612"
    },
    {
      "channel": 4,
      "note": 92,
      "start": 10.0009,
      "duration": 0.0994,
      "velocity": 93,
      "chip": "ym2612"
    },
    {
      "channel": 2,
      "note": 81,
      "start": 10.0991,
      "duration": 0.1042,
      "velocity": 94,
      "chip": "ym2612"
    },
    {
      "channel": 3,
      "note": 90,
      "start": 10.0997,
      "duration": 0.1042,
      "velocity": 94,
      "chip": "ym2612"
    },
    {
      "channel": 4,
      "note": 92,
      "start": 10.1002,
      "duration": 0.1042,
      "velocity": 93,
      "chip": "ym2612"
    },
    {
      "channel": 0,
      "note": 74,
      "start": 10.2022,
      "duration": 0.1999,
      "velocity": 114,
      "chip": "ym2612"
    },
    {
      "channel": 1,
      "note": 45,
      "start": 10.2028,
      "duration": 0.5999,
      "velocity": 103,
      "chip": "ym2612"
    },
    {
      "channel": 2,
      "note": 83,
      "start": 10.2033,
      "duration": 0.0958,
      "velocity": 94,
      "chip": "ym2612"
    },
    {
      "channel": 3,
      "note": 92,
      "start": 10.2039,
      "duration": 0.0958,
      "velocity": 94,
      "chip": "ym2612"
    },
    {
      "channel": 4,
      "note": 99,
      "start": 10.2045,
      "duration": 0.0958,
      "velocity": 93,
      "chip": "ym2612"
    },
    {
      "channel": 2,
      "note": 81,
      "start": 10.2992,
      "duration": 0.1036,
      "velocity": 94,
      "chip": "ym2612"
    },
    {
      "channel": 3,
      "note": 90,
      "start": 10.2997,
      "duration": 0.1036,
      "velocity": 94,
      "chip": "ym2612"
    },
    {
      "channel": 4,
      "note": 99,
      "start": 10.3003,
      "duration": 0.1036,
      "velocity": 93,
      "chip": "ym2612"
    },
    {
      "channel": 0,
      "note": 68,
      "start": 10.4022,
      "duration": 0.1969,
      "velocity": 114,
      "chip": "ym2612"
    },
    {
      "channel": 2,
      "note": 83,
      "start": 10.4028,
      "duration": 0.0963,
      "velocity": 94,
      "chip": "ym2612"
    },
    {
      "channel": 3,
      "note": 80,
      "start": 10.4033,
      "duration": 0.0964,
      "velocity": 94,
      "chip": "ym2612"
    },
    {
      "channel": 4,
      "note": 92,
      "start": 10.4039,
      "duration": 0.0964,
      "velocity": 93,
      "chip": "ym2612"
    },
    {
      "channel": 2,
      "note": 84,
      "start": 10.4992,
      "duration": 0.1005,
      "velocity": 94,
      "chip": "ym2612"
    },
    {
      "channel": 3,
      "note": 81,
      "start": 10.4997,
      "duration": 0.1006,
      "velocity": 94,
      "chip": "ym2612"
    },
    {
      "channel": 4,
      "note": 92,
      "start": 10.5003,
      "duration": 0.1006,
      "velocity": 93,
      "chip": "ym2612"
    },
    {
      "channel": 0,
      "note": 68,
      "start": 10.5991,
      "duration": 0.2031,
      "velocity": 114,
      "chip": "ym2612"
    },
    {
      "channel": 2,
      "note": 83,
      "start": 10.5998,
      "duration": 0.0994,
      "velocity": 94,
      "chip": "ym2612"
    },
    {
      "channel": 3,
      "note": 80,
      "start": 10.6003,
      "duration": 0.0993,
      "velocity": 94,
      "chip": "ym2612"
    },
    {
      "channel": 4,
      "note": 92,
      "start": 10.6009,
      "duration": 0.0994,
      "velocity": 93,
      "chip": "ym2612"
    },
    {
      "channel": 2,
      "note": 84,
      "start": 10.6991,
      "duration": 0.1042,
      "velocity": 94,
      "chip": "ym2612"
    },
    {
      "channel": 3,
      "note": 81,
      "start": 10.6997,
      "duration": 0.1042,
      "velocity": 94,
      "chip": "ym2612"
    },
    {
      "channel": 4,
      "note": 92,
      "start": 10.7002,
      "duration": 0.1042,
      "velocity": 93,
      "chip": "ym2612"
    },
    {
      "channel": 0,
      "note": 74,
      "start": 10.8022,
      "duration": 0.1999,
      "velocity": 114,
      "chip": "ym2612"
    },
    {
      "channel": 1,
      "note": 47,
      "start": 10.8028,
      "duration": 0.4,
      "velocity": 103,
      "chip": "ym2612"
    },
    {
      "channel": 2,
      "note": 86,
      "start": 10.8033,
      "duration": 0.0958,
      "velocity": 94,
      "chip": "ym2612"
    },
    {
      "channel": 3,
      "note": 83,
      "start": 10.8039,
      "duration": 0.0958,
      "velocity": 94,
      "chip": "ym2612"
    },
    {
      "channel": 4,
      "note": 99,
      "start": 10.8045,
      "duration": 0.0958,
      "velocity": 93,
      "chip": "ym2612"
    },
    {
      "channel": 2,
      "note": 84,
      "start": 10.8992,
      "duration": 0.1036,
      "velocity": 94,
      "chip": "ym2612"
    },
    {
      "channel": 3,
      "note": 81,
      "start": 10.8997,
      "duration": 0.1036,
      "velocity": 94,
      "chip": "ym2612"
    },
    {
      "channel": 4,
      "note": 99,
      "start": 10.9003,
      "duration": 0.1036,
      "velocity": 93,
      "chip": "ym2612"
    },
    {
      "channel": 0,
      "note": 68,
      "start": 11.0021,
      "duration": 0.2001,
      "velocity": 114,
      "chip": "ym2612"
    },
    {
      "channel": 2,
      "note": 86,
      "start": 11.0028,
      "duration": 0.0964,
      "velocity": 94,
      "chip": "ym2612"
    },
    {
      "channel": 3,
      "note": 83,
      "start": 11.0033,
      "duration": 0.0964,
      "velocity": 94,
      "chip": "ym2612"
    },
    {
      "channel": 4,
      "note": 92,
      "start": 11.0039,
      "duration": 0.0964,
      "velocity": 93,
      "chip": "ym2612"
    },
    {
      "channel": 2,
      "note": 84,
      "start": 11.0992,
      "duration": 0.1042,
      "velocity": 94,
      "chip": "ym2612"
    },
    {
      "channel": 3,
      "note": 81,
      "start": 11.0997,
      "duration": 0.1042,
      "velocity": 94,
      "chip": "ym2612"
    },
    {
      "channel": 4,
      "note": 92,
      "start": 11.1003,
      "duration": 0.1042,
      "velocity": 93,
      "chip": "ym2612"
    },
    {
      "channel": 0,
      "note": 74,
      "start": 11.2022,
      "duration": 0.1999,
      "velocity": 114,
      "chip": "ym2612"
    },
    {
      "channel": 1,
      "note": 45,
      "start": 11.2028,
      "duration": 0.6,
      "velocity": 103,
      "chip": "ym2612"
    },
    {
      "channel": 2,
      "note": 86,
      "start": 11.2034,
      "duration": 0.0957,
      "velocity": 94,
      "chip": "ym2612"
    },
    {
      "channel": 3,
      "note": 83,
      "start": 11.204,
      "duration": 0.0957,
      "velocity": 94,
      "chip": "ym2612"
    },
    {
      "channel": 4,
      "note": 98,
      "start": 11.2045,
      "duration": 0.0958,
      "velocity": 93,
      "chip": "ym2612"
    },
    {
      "channel": 5,
      "note": 79,
      "start": 11.2051,
      "duration": 1.6028,
      "velocity": 28,
      "chip": "ym2612"
    },
    {
      "channel": 2,
      "note": 87,
      "start": 11.2992,
      "duration": 0.1036,
      "velocity": 94,
      "chip": "ym2612"
    },
    {
      "channel": 3,
      "note": 84,
      "start": 11.2997,
      "duration": 0.1036,
      "velocity": 94,
      "chip": "ym2612"
    },
    {
      "channel": 4,
      "note": 98,
      "start": 11.3003,
      "duration": 0.1036,
      "velocity": 93,
      "chip": "ym2612"
    },
    {
      "channel": 0,
      "note": 68,
      "start": 11.4021,
      "duration": 0.197,
      "velocity": 114,
      "chip": "ym2612"
    },
    {
      "channel": 2,
      "note": 86,
      "start": 11.4028,
      "duration": 0.0964,
      "velocity": 94,
      "chip": "ym2612"
    },
    {
      "channel": 3,
      "note": 83,
      "start": 11.4033,
      "duration": 0.0963,
      "velocity": 94,
      "chip": "ym2612"
    },
    {
      "channel": 4,
      "note": 93,
      "start": 11.4039,
      "duration": 0.0963,
      "velocity": 93,
      "chip": "ym2612"
    },
    {
      "channel": 2,
      "note": 87,
      "start": 11.4991,
      "duration": 0.1006,
      "velocity": 94,
      "chip": "ym2612"
    },
    {
      "channel": 3,
      "note": 84,
      "start": 11.4997,
      "duration": 0.1006,
      "velocity": 94,
      "chip": "ym2612"
    },
    {
      "channel": 4,
      "note": 93,
      "start": 11.5002,
      "duration": 0.1006,
      "velocity": 93,
      "chip": "ym2612"
    },
    {
      "channel": 0,
      "note": 68,
      "start": 11.5992,
      "duration": 0.203,
      "velocity": 114,
      "chip": "ym2612"
    },
    {
      "channel": 2,
      "note": 89,
      "start": 11.5998,
      "duration": 0.0993,
      "velocity": 94,
      "chip": "ym2612"
    },
    {
      "channel": 3,
      "note": 86,
      "start": 11.6003,
      "duration": 0.0994,
      "velocity": 94,
      "chip": "ym2612"
    },
    {
      "channel": 4,
      "note": 93,
      "start": 11.6009,
      "duration": 0.0994,
      "velocity": 93,
      "chip": "ym2612"
    },
    {
      "channel": 2,
      "note": 87,
      "start": 11.6992,
      "duration": 0.1042,
      "velocity": 94,
      "chip": "ym2612"
    },
    {
      "channel": 3,
      "note": 84,
      "start": 11.6997,
      "duration": 0.1042,
      "velocity": 94,
      "chip": "ym2612"
    },
    {
      "channel": 4,
      "note": 93,
      "start": 11.7003,
      "duration": 0.1042,
      "velocity": 93,
      "chip": "ym2612"
    },
    {
      "channel": 0,
      "note": 74,
      "start": 11.8022,
      "duration": 0.1998,
      "velocity": 114,
      "chip": "ym2612"
    },
    {
      "channel": 1,
      "note": 47,
      "start": 11.8028,
      "duration": 0.6,
      "velocity": 103,
      "chip": "ym2612"
    },
    {
      "channel": 2,
      "note": 89,
      "start": 11.8034,
      "duration": 0.0957,
      "velocity": 94,
      "chip": "ym2612"
    },
    {
      "channel": 3,
      "note": 86,
      "start": 11.804,
      "duration": 0.0957,
      "velocity": 94,
      "chip": "ym2612"
    },
    {
      "channel": 4,
      "note": 98,
      "start": 11.8045,
      "duration": 0.0957,
      "velocity": 93,
      "chip": "ym2612"
    },
    {
      "channel": 2,
      "note": 87,
      "start": 11.8991,
      "duration": 0.1036,
      "velocity": 94,
      "chip": "ym2612"
    },
    {
      "channel": 3,
      "note": 84,
      "start": 11.8997,
      "duration": 0.1036,
      "velocity": 94,
      "chip": "ym2612"
    },
    {
      "channel": 4,
      "note": 98,
      "start": 11.9002,
      "duration": 0.1036,
      "velocity": 93,
      "chip": "ym2612"
    },
    {
      "channel": 0,
      "note": 68,
      "start": 12.0021,
      "duration": 0.197,
      "velocity": 114,
      "chip": "ym2612"
    },
    {
      "channel": 2,
      "note": 89,
      "start": 12.0028,
      "duration": 0.0964,
      "velocity": 94,
      "chip": "ym2612"
    },
    {
      "channel": 3,
      "note": 86,
      "start": 12.0033,
      "duration": 0.0963,
      "velocity": 94,
      "chip": "ym2612"
    },
    {
      "channel": 4,
      "note": 93,
      "start": 12.0038,
      "duration": 0.0964,
      "velocity": 93,
      "chip": "ym2612"
    },
    {
      "channel": 2,
      "note": 90,
      "start": 12.0991,
      "duration": 0.1006,
      "velocity": 94,
      "chip": "ym2612"
    },
    {
      "channel": 3,
      "note": 87,
      "start": 12.0997,
      "duration": 0.1006,
      "velocity": 94,
      "chip": "ym2612"
    },
    {
      "channel": 4,
      "note": 93,
      "start": 12.1002,
      "duration": 0.1006,
      "velocity": 93,
      "chip": "ym2612"
    },
    {
      "channel": 0,
      "note": 68,
      "start": 12.1992,
      "duration": 0.203,
      "velocity": 114,
      "chip": "ym2612"
    },
    {
      "channel": 2,
      "note": 89,
      "start": 12.1998,
      "duration": 0.0993,
      "velocity": 94,
      "chip": "ym2612"
    },
    {
      "channel": 3,
      "note": 86,
      "start": 12.2003,
      "duration": 0.0994,
      "velocity": 94,
      "chip": "ym2612"
    },
    {
      "channel": 4,
      "note": 93,
      "start": 12.2009,
      "duration": 0.0994,
      "velocity": 93,
      "chip": "ym2612"
    },
    {
      "channel": 2,
      "note": 90,
      "start": 12.2992,
      "duration": 0.1041,
      "velocity": 94,
      "chip": "ym2612"
    },
    {
      "channel": 3,
      "note": 87,
      "start": 12.2997,
      "duration": 0.1042,
      "velocity": 94,
      "chip": "ym2612"
    },
    {
      "channel": 4,
      "note": 93,
      "start": 12.3003,
      "duration": 0.1042,
      "velocity": 93,
      "chip": "ym2612"
    },
    {
      "channel": 0,
      "note": 74,
      "start": 12.4022,
      "duration": 0.0968,
      "velocity": 114,
      "chip": "ym2612"
    },
    {
      "channel": 1,
      "note": 48,
      "start": 12.4028,
      "duration": 0.4,
      "velocity": 103,
      "chip": "ym2612"
    },
    {
      "channel": 2,
      "note": 92,
      "start": 12.4034,
      "duration": 0.0963,
      "velocity": 94,
      "chip": "ym2612"
    },
    {
      "channel": 3,
      "note": 89,
      "start": 12.404,
      "duration": 0.0963,
      "velocity": 94,
      "chip": "ym2612"
    },
    {
      "channel": 4,
      "note": 98,
      "start": 12.4045,
      "duration": 0.0964,
      "velocity": 93,
      "chip": "ym2612"
    },
    {
      "channel": 0,
      "note": 74,
      "start": 12.4991,
      "duration": 0.103,
      "velocity": 114,
      "chip": "ym2612"
    },
    {
      "channel": 2,
      "note": 90,
      "start": 12.4998,
      "duration": 0.103,
      "velocity": 94,
      "chip": "ym2612"
    },
    {
      "channel": 3,
      "note": 87,
      "start": 12.5003,
      "duration": 0.103,
      "velocity": 94,
      "chip": "ym2612"
    },
    {
      "channel": 4,
      "note": 98,
      "start": 12.5009,
      "duration": 0.103,
      "velocity": 93,
      "chip": "ym2612"
    },
    {
      "channel": 0,
      "note": 68,
      "start": 12.6021,
      "duration": 0.2001,
      "velocity": 114,
      "chip": "ym2612"
    },
    {
      "channel": 2,
      "note": 92,
      "start": 12.6028,
      "duration": 0.0964,
      "velocity": 94,
      "chip": "ym2612"
    },
    {
      "channel": 3,
      "note": 89,
      "start": 12.6033,
      "duration": 0.0964,
      "velocity": 94,
      "chip": "ym2612"
    },
    {
      "channel": 4,
      "note": 93,
      "start": 12.6039,
      "duration": 0.0964,
      "velocity": 93,
      "chip": "ym2612"
    },
    {
      "channel": 2,
      "note": 90,
      "start": 12.6992,
      "duration": 0.1072,
      "velocity": 94,
      "chip": "ym2612"
    },
    {
      "channel": 3,
      "note": 87,
      "start": 12.6997,
      "duration": 0.1069,
      "velocity": 94,
      "chip": "ym2612"
    },
    {
      "channel": 4,
      "note": 93,
      "start": 12.7003,
      "duration": 0.107,
      "velocity": 93,
      "chip": "ym2612"
    },
    {
      "channel": 0,
      "note": 74,
      "start": 12.8023,
      "duration": 0.1924,
      "velocity": 114,
      "chip": "ym2612"
    },
    {
      "channel": 1,
      "note": 42,
      "start": 12.8029,
      "duration": 0.1918,
      "velocity": 103,
      "chip": "ym2612"
    },
    {
      "channel": 2,
      "note": 78,
      "start": 12.8064,
      "duration": 0.0927,
      "velocity": 94,
      "chip": "ym2612"
    },
    {
      "channel": 4,
      "note": 102,
      "start": 12.8073,
      "duration": 0.0925,
      "velocity": 93,
      "chip": "ym2612"
    },
    {
      "channel": 5,
      "note": 73,
      "start": 12.808,
      "duration": 0.1867,
      "velocity": 28,
      "chip": "ym2612"
    },
    {
      "channel": 2,
      "note": 79,
      "start": 12.8991,
      "duration": 0.0956,
      "velocity": 94,
      "chip": "ym2612"
    },
    {
      "channel": 4,
      "note": 102,
      "start": 12.8999,
      "duration": 0.0948,
      "velocity": 93,
      "chip": "ym2612"
    }
  ]
}