{
  "track_name": "06 - Arizona",
  "duration_sec": 173.194,
  "sample_rate": 44100,
  "note_count": 1492,
  "unique_pitches": 49,
  "pitch_range": 81,
  "avg_note_duration": 0.3088,
  "reconstruction_stats": {
    "notes_reconstructed": 1492,
    "keyon_events": 1492,
    "keyoff_events": 1492,
    "orphan_keyons": 0,
    "unique_pitches": 49,
    "pitch_range": 81,
    "avg_duration_sec": 0.3088
  },
  "metadata": {
    "source": "R\\Road Rash II\\06 - Arizona.vgz"
  },
  "notes": [
    {
      "channel": 0,
      "note": 22,
      "start": 0.0022,
      "duration": 0.3815,
      "velocity": 127,
      "chip": "ym2612"
    },
    {
      "channel": 1,
      "note": 49,
      "start": 0.0039,
      "duration": 0.38,
      "velocity": 102,
      "chip": "ym2612"
    },
    {
      "channel": 0,
      "note": 22,
      "start": 0.4006,
      "duration": 0.1832,
      "velocity": 127,
      "chip": "ym2612"
    },
    {
      "channel": 1,
      "note": 49,
      "start": 0.4009,
      "duration": 0.183,
      "velocity": 102,
      "chip": "ym2612"
    },
    {
      "channel": 0,
      "note": 22,
      "start": 0.6021,
      "duration": 0.3817,
      "velocity": 127,
      "chip": "ym2612"
    },
    {
      "channel": 1,
      "note": 49,
      "start": 0.6024,
      "duration": 0.3816,
      "velocity": 102,
      "chip": "ym2612"
    },
    {
      "channel": 2,
      "note": 66,
      "start": 0.6026,
      "duration": 0.3814,
      "velocity": 83,
      "chip": "ym2612"
    },
    {
      "channel": 0,
      "note": 42,
      "start": 1.0022,
      "duration": 0.1816,
      "velocity": 127,
      "chip": "ym2612"
    },
    {
      "channel": 1,
      "note": 49,
      "start": 1.0024,
      "duration": 0.1814,
      "velocity": 102,
      "chip": "ym2612"
    },
    {
      "channel": 2,
      "note": 68,
      "start": 1.0027,
      "duration": 1.3813,
      "velocity": 83,
      "chip": "ym2612"
    },
    {
      "channel": 0,
      "note": 22,
      "start": 1.2006,
      "duration": 0.3832,
      "velocity": 127,
      "chip": "ym2612"
    },
    {
      "channel": 1,
      "note": 49,
      "start": 1.2008,
      "duration": 0.3831,
      "velocity": 102,
      "chip": "ym2612"
    },
    {
      "channel": 0,
      "note": 22,
      "start": 1.6006,
      "duration": 0.1832,
      "velocity": 127,
      "chip": "ym2612"
    },
    {
      "channel": 1,
      "note": 49,
      "start": 1.6009,
      "duration": 0.183,
      "velocity": 102,
      "chip": "ym2612"
    },
    {
      "channel": 0,
      "note": 22,
      "start": 1.802,
      "duration": 0.3817,
      "velocity": 127,
      "chip": "ym2612"
    },
    {
      "channel": 1,
      "note": 49,
      "start": 1.8023,
      "duration": 0.3816,
      "velocity": 102,
      "chip": "ym2612"
    },
    {
      "channel": 0,
      "note": 42,
      "start": 2.202,
      "duration": 0.1817,
      "velocity": 127,
      "chip": "ym2612"
    },
    {
      "channel": 1,
      "note": 49,
      "start": 2.2023,
      "duration": 0.1816,
      "velocity": 102,
      "chip": "ym2612"
    },
    {
      "channel": 0,
      "note": 22,
      "start": 2.4021,
      "duration": 0.3817,
      "velocity": 127,
      "chip": "ym2612"
    },
    {
      "channel": 1,
      "note": 49,
      "start": 2.4024,
      "duration": 0.3816,
      "velocity": 102,
      "chip": "ym2612"
    },
    {
      "channel": 0,
      "note": 22,
      "start": 2.8006,
      "duration": 0.1832,
      "velocity": 127,
      "chip": "ym2612"
    },
    {
      "channel": 1,
      "note": 49,
      "start": 2.8008,
      "duration": 0.1831,
      "velocity": 102,
      "chip": "ym2612"
    },
    {
      "channel": 0,
      "note": 22,
      "start": 3.0021,
      "duration": 0.3817,
      "velocity": 127,
      "chip": "ym2612"
    },
    {
      "channel": 1,
      "note": 49,
      "start": 3.0024,
      "duration": 0.3816,
      "velocity": 102,
      "chip": "ym2612"
    },
    {
      "channel": 2,
      "note": 70,
      "start": 3.0026,
      "duration": 0.3814,
      "velocity": 83,
      "chip": "ym2612"
    },
    {
      "channel": 0,
      "note": 42,
      "start": 3.4021,
      "duration": 0.1817,
      "velocity": 127,
      "chip": "ym2612"
    },
    {
      "channel": 1,
      "note": 49,
      "start": 3.4024,
      "duration": 0.1815,
      "velocity": 102,
      "chip": "ym2612"
    },
    {
      "channel": 0,
      "note": 22,
      "start": 3.6006,
      "duration": 0.3832,
      "velocity": 127,
      "chip": "ym2612"
    },
    {
      "channel": 1,
      "note": 49,
      "start": 3.6009,
      "duration": 0.383,
      "velocity": 102,
      "chip": "ym2612"
    },
    {
      "channel": 2,
      "note": 66,
      "start": 3.6012,
      "duration": 0.3828,
      "velocity": 83,
      "chip": "ym2612"
    },
    {
      "channel": 0,
      "note": 22,
      "start": 4.0006,
      "duration": 0.1832,
      "velocity": 127,
      "chip": "ym2612"
    },
    {
      "channel": 1,
      "note": 49,
      "start": 4.0009,
      "duration": 0.183,
      "velocity": 102,
      "chip": "ym2612"
    },
    {
      "channel": 2,
      "note": 66,
      "start": 4.0012,
      "duration": 0.1828,
      "velocity": 83,
      "chip": "ym2612"
    },
    {
      "channel": 0,
      "note": 22,
      "start": 4.2021,
      "duration": 0.3817,
      "velocity": 127,
      "chip": "ym2612"
    },
    {
      "channel": 1,
      "note": 49,
      "start": 4.2024,
      "duration": 0.3816,
      "velocity": 102,
      "chip": "ym2612"
    },
    {
      "channel": 0,
      "note": 42,
      "start": 4.602,
      "duration": 0.1817,
      "velocity": 127,
      "chip": "ym2612"
    },
    {
      "channel": 1,
      "note": 49,
      "start": 4.6023,
      "duration": 0.1816,
      "velocity": 102,
      "chip": "ym2612"
    },
    {
      "channel": 0,
      "note": 22,
      "start": 4.8022,
      "duration": 0.3816,
      "velocity": 127,
      "chip": "ym2612"
    },
    {
      "channel": 1,
      "note": 49,
      "start": 4.8024,
      "duration": 0.3815,
      "velocity": 102,
      "chip": "ym2612"
    },
    {
      "channel": 0,
      "note": 22,
      "start": 5.2007,
      "duration": 0.1831,
      "velocity": 127,
      "chip": "ym2612"
    },
    {
      "channel": 1,
      "note": 49,
      "start": 5.201,
      "duration": 0.183,
      "velocity": 102,
      "chip": "ym2612"
    },
    {
      "channel": 2,
      "note": 63,
      "start": 5.2012,
      "duration": 0.1828,
      "velocity": 83,
      "chip": "ym2612"
    },
    {
      "channel": 0,
      "note": 22,
      "start": 5.4021,
      "duration": 0.3817,
      "velocity": 127,
      "chip": "ym2612"
    },
    {
      "channel": 1,
      "note": 49,
      "start": 5.4024,
      "duration": 0.3816,
      "velocity": 102,
      "chip": "ym2612"
    },
    {
      "channel": 2,
      "note": 61,
      "start": 5.4026,
      "duration": 0.3814,
      "velocity": 83,
      "chip": "ym2612"
    },
    {
      "channel": 0,
      "note": 42,
      "start": 5.8021,
      "duration": 0.1817,
      "velocity": 127,
      "chip": "ym2612"
    },
    {
      "channel": 1,
      "note": 49,
      "start": 5.8024,
      "duration": 0.1816,
      "velocity": 102,
      "chip": "ym2612"
    },
    {
      "channel": 2,
      "note": 68,
      "start": 5.8026,
      "duration": 1.5813,
      "velocity": 83,
      "chip": "ym2612"
    },
    {
      "channel": 0,
      "note": 22,
      "start": 6.0006,
      "duration": 0.3832,
      "velocity": 127,
      "chip": "ym2612"
    },
    {
      "channel": 1,
      "note": 49,
      "start": 6.0009,
      "duration": 0.383,
      "velocity": 102,
      "chip": "ym2612"
    },
    {
      "channel": 0,
      "note": 22,
      "start": 6.4006,
      "duration": 0.1832,
      "velocity": 127,
      "chip": "ym2612"
    },
    {
      "channel": 1,
      "note": 49,
      "start": 6.4009,
      "duration": 0.183,
      "velocity": 102,
      "chip": "ym2612"
    },
    {
      "channel": 0,
      "note": 22,
      "start": 6.602,
      "duration": 0.3817,
      "velocity": 127,
      "chip": "ym2612"
    },
    {
      "channel": 1,
      "note": 49,
      "start": 6.6023,
      "duration": 0.3816,
      "velocity": 102,
      "chip": "ym2612"
    },
    {
      "channel": 0,
      "note": 42,
      "start": 7.002,
      "duration": 0.1817,
      "velocity": 127,
      "chip": "ym2612"
    },
    {
      "channel": 1,
      "note": 49,
      "start": 7.0023,
      "duration": 0.1816,
      "velocity": 102,
      "chip": "ym2612"
    },
    {
      "channel": 0,
      "note": 22,
      "start": 7.2022,
      "duration": 0.3815,
      "velocity": 127,
      "chip": "ym2612"
    },
    {
      "channel": 1,
      "note": 49,
      "start": 7.2024,
      "duration": 0.3814,
      "velocity": 102,
      "chip": "ym2612"
    },
    {
      "channel": 0,
      "note": 22,
      "start": 7.6007,
      "duration": 0.1831,
      "velocity": 127,
      "chip": "ym2612"
    },
    {
      "channel": 1,
      "note": 49,
      "start": 7.601,
      "duration": 0.1829,
      "velocity": 102,
      "chip": "ym2612"
    },
    {
      "channel": 0,
      "note": 22,
      "start": 7.8021,
      "duration": 0.3816,
      "velocity": 127,
      "chip": "ym2612"
    },
    {
      "channel": 1,
      "note": 49,
      "start": 7.8024,
      "duration": 0.3815,
      "velocity": 102,
      "chip": "ym2612"
    },
    {
      "channel": 2,
      "note": 70,
      "start": 7.8026,
      "duration": 0.3814,
      "velocity": 83,
      "chip": "ym2612"
    },
    {
      "channel": 0,
      "note": 42,
      "start": 8.2022,
      "duration": 0.1815,
      "velocity": 127,
      "chip": "ym2612"
    },
    {
      "channel": 1,
      "note": 49,
      "start": 8.2025,
      "duration": 0.1814,
      "velocity": 102,
      "chip": "ym2612"
    },
    {
      "channel": 2,
      "note": 66,
      "start": 8.2027,
      "duration": 0.1812,
      "velocity": 83,
      "chip": "ym2612"
    },
    {
      "channel": 0,
      "note": 22,
      "start": 8.4006,
      "duration": 0.3832,
      "velocity": 127,
      "chip": "ym2612"
    },
    {
      "channel": 1,
      "note": 49,
      "start": 8.4009,
      "duration": 0.383,
      "velocity": 102,
      "chip": "ym2612"
    },
    {
      "channel": 2,
      "note": 64,
      "start": 8.4012,
      "duration": 0.3828,
      "velocity": 83,
      "chip": "ym2612"
    },
    {
      "channel": 0,
      "note": 22,
      "start": 8.8006,
      "duration": 0.1832,
      "velocity": 127,
      "chip": "ym2612"
    },
    {
      "channel": 1,
      "note": 49,
      "start": 8.8009,
      "duration": 0.183,
      "velocity": 102,
      "chip": "ym2612"
    },
    {
      "channel": 2,
      "note": 66,
      "start": 8.8012,
      "duration": 0.1828,
      "velocity": 83,
      "chip": "ym2612"
    },
    {
      "channel": 0,
      "note": 22,
      "start": 9.0021,
      "duration": 0.3817,
      "velocity": 127,
      "chip": "ym2612"
    },
    {
      "channel": 1,
      "note": 49,
      "start": 9.0024,
      "duration": 0.3816,
      "velocity": 102,
      "chip": "ym2612"
    },
    {
      "channel": 2,
      "note": 64,
      "start": 9.0026,
      "duration": 0.1812,
      "velocity": 83,
      "chip": "ym2612"
    },
    {
      "channel": 0,
      "note": 42,
      "start": 9.402,
      "duration": 0.1817,
      "velocity": 127,
      "chip": "ym2612"
    },
    {
      "channel": 1,
      "note": 49,
      "start": 9.4023,
      "duration": 0.1816,
      "velocity": 102,
      "chip": "ym2612"
    },
    {
      "channel": 0,
      "note": 22,
      "start": 9.6022,
      "duration": 0.3816,
      "velocity": 127,
      "chip": "ym2612"
    },
    {
      "channel": 1,
      "note": 49,
      "start": 9.6024,
      "duration": 0.3815,
      "velocity": 102,
      "chip": "ym2612"
    },
    {
      "channel": 0,
      "note": 22,
      "start": 10.0006,
      "duration": 0.1832,
      "velocity": 127,
      "chip": "ym2612"
    },
    {
      "channel": 1,
      "note": 54,
      "start": 10.0009,
      "duration": 0.183,
      "velocity": 102,
      "chip": "ym2612"
    },
    {
      "channel": 2,
      "note": 60,
      "start": 10.0012,
      "duration": 0.1829,
      "velocity": 83,
      "chip": "ym2612"
    },
    {
      "channel": 0,
      "note": 22,
      "start": 10.2021,
      "duration": 0.3817,
      "velocity": 127,
      "chip": "ym2612"
    },
    {
      "channel": 1,
      "note": 54,
      "start": 10.2024,
      "duration": 0.3816,
      "velocity": 102,
      "chip": "ym2612"
    },
    {
      "channel": 2,
      "note": 66,
      "start": 10.2026,
      "duration": 0.3814,
      "velocity": 83,
      "chip": "ym2612"
    },
    {
      "channel": 0,
      "note": 42,
      "start": 10.6021,
      "duration": 0.1817,
      "velocity": 127,
      "chip": "ym2612"
    },
    {
      "channel": 1,
      "note": 54,
      "start": 10.6024,
      "duration": 0.1815,
      "velocity": 102,
      "chip": "ym2612"
    },
    {
      "channel": 2,
      "note": 73,
      "start": 10.6026,
      "duration": 1.5812,
      "velocity": 83,
      "chip": "ym2612"
    },
    {
      "channel": 0,
      "note": 22,
      "start": 10.8006,
      "duration": 0.3832,
      "velocity": 127,
      "chip": "ym2612"
    },
    {
      "channel": 1,
      "note": 54,
      "start": 10.8008,
      "duration": 0.3831,
      "velocity": 102,
      "chip": "ym2612"
    },
    {
      "channel": 0,
      "note": 22,
      "start": 11.2006,
      "duration": 0.1832,
      "velocity": 127,
      "chip": "ym2612"
    },
    {
      "channel": 1,
      "note": 54,
      "start": 11.2008,
      "duration": 0.1831,
      "velocity": 102,
      "chip": "ym2612"
    },
    {
      "channel": 0,
      "note": 22,
      "start": 11.402,
      "duration": 0.3817,
      "velocity": 127,
      "chip": "ym2612"
    },
    {
      "channel": 1,
      "note": 54,
      "start": 11.4023,
      "duration": 0.3816,
      "velocity": 102,
      "chip": "ym2612"
    },
    {
      "channel": 0,
      "note": 42,
      "start": 11.802,
      "duration": 0.1817,
      "velocity": 127,
      "chip": "ym2612"
    },
    {
      "channel": 1,
      "note": 54,
      "start": 11.8023,
      "duration": 0.1816,
      "velocity": 102,
      "chip": "ym2612"
    },
    {
      "channel": 0,
      "note": 22,
      "start": 12.0022,
      "duration": 0.3816,
      "velocity": 127,
      "chip": "ym2612"
    },
    {
      "channel": 1,
      "note": 54,
      "start": 12.0024,
      "duration": 0.3815,
      "velocity": 102,
      "chip": "ym2612"
    },
    {
      "channel": 0,
      "note": 22,
      "start": 12.4006,
      "duration": 0.1832,
      "velocity": 127,
      "chip": "ym2612"
    },
    {
      "channel": 1,
      "note": 54,
      "start": 12.4009,
      "duration": 0.183,
      "velocity": 102,
      "chip": "ym2612"
    },
    {
      "channel": 2,
      "note": 76,
      "start": 12.4012,
      "duration": 0.1828,
      "velocity": 83,
      "chip": "ym2612"
    },
    {
      "channel": 0,
      "note": 22,
      "start": 12.6021,
      "duration": 0.3817,
      "velocity": 127,
      "chip": "ym2612"
    },
    {
      "channel": 1,
      "note": 54,
      "start": 12.6024,
      "duration": 0.3816,
      "velocity": 102,
      "chip": "ym2612"
    },
    {
      "channel": 2,
      "note": 78,
      "start": 12.6026,
      "duration": 0.3814,
      "velocity": 83,
      "chip": "ym2612"
    },
    {
      "channel": 0,
      "note": 42,
      "start": 13.0022,
      "duration": 0.1816,
      "velocity": 127,
      "chip": "ym2612"
    },
    {
      "channel": 1,
      "note": 54,
      "start": 13.0024,
      "duration": 0.1815,
      "velocity": 102,
      "chip": "ym2612"
    },
    {
      "channel": 2,
      "note": 77,
      "start": 13.0027,
      "duration": 0.1813,
      "velocity": 83,
      "chip": "ym2612"
    },
    {
      "channel": 0,
      "note": 22,
      "start": 13.2006,
      "duration": 0.3832,
      "velocity": 127,
      "chip": "ym2612"
    },
    {
      "channel": 1,
      "note": 54,
      "start": 13.2009,
      "duration": 0.383,
      "velocity": 102,
      "chip": "ym2612"
    },
    {
      "channel": 2,
      "note": 73,
      "start": 13.2012,
      "duration": 0.5829,
      "velocity": 83,
      "chip": "ym2612"
    },
    {
      "channel": 0,
      "note": 22,
      "start": 13.6006,
      "duration": 0.1832,
      "velocity": 127,
      "chip": "ym2612"
    },
    {
      "channel": 1,
      "note": 54,
      "start": 13.6008,
      "duration": 0.1831,
      "velocity": 102,
      "chip": "ym2612"
    },
    {
      "channel": 0,
      "note": 22,
      "start": 13.8021,
      "duration": 0.3817,
      "velocity": 127,
      "chip": "ym2612"
    },
    {
      "channel": 1,
      "note": 54,
      "start": 13.8024,
      "duration": 0.3816,
      "velocity": 102,
      "chip": "ym2612"
    },
    {
      "channel": 2,
      "note": 68,
      "start": 13.8026,
      "duration": 0.5814,
      "velocity": 83,
      "chip": "ym2612"
    },
    {
      "channel": 0,
      "note": 42,
      "start": 14.202,
      "duration": 0.1817,
      "velocity": 127,
      "chip": "ym2612"
    },
    {
      "channel": 1,
      "note": 54,
      "start": 14.2023,
      "duration": 0.1816,
      "velocity": 102,
      "chip": "ym2612"
    },
    {
      "channel": 0,
      "note": 22,
      "start": 14.4022,
      "duration": 0.3816,
      "velocity": 127,
      "chip": "ym2612"
    },
    {
      "channel": 1,
      "note": 54,
      "start": 14.4024,
      "duration": 0.3814,
      "velocity": 102,
      "chip": "ym2612"
    },
    {
      "channel": 2,
      "note": 66,
      "start": 14.4027,
      "duration": 0.3813,
      "velocity": 83,
      "chip": "ym2612"
    },
    {
      "channel": 0,
      "note": 22,
      "start": 14.8006,
      "duration": 0.1832,
      "velocity": 127,
      "chip": "ym2612"
    },
    {
      "channel": 1,
      "note": 49,
      "start": 14.8009,
      "duration": 0.183,
      "velocity": 102,
      "chip": "ym2612"
    },
    {
      "channel": 2,
      "note": 65,
      "start": 14.8012,
      "duration": 2.1828,
      "velocity": 83,
      "chip": "ym2612"
    },
    {
      "channel": 0,
      "note": 22,
      "start": 15.002,
      "duration": 0.3817,
      "velocity": 127,
      "chip": "ym2612"
    },
    {
      "channel": 1,
      "note": 49,
      "start": 15.0023,
      "duration": 0.3816,
      "velocity": 102,
      "chip": "ym2612"
    },
    {
      "channel": 0,
      "note": 42,
      "start": 15.402,
      "duration": 0.1817,
      "velocity": 127,
      "chip": "ym2612"
    },
    {
      "channel": 1,
      "note": 49,
      "start": 15.4023,
      "duration": 0.1816,
      "velocity": 102,
      "chip": "ym2612"
    },
    {
      "channel": 0,
      "note": 22,
      "start": 15.6006,
      "duration": 0.3832,
      "velocity": 127,
      "chip": "ym2612"
    },
    {
      "channel": 1,
      "note": 49,
      "start": 15.6008,
      "duration": 0.3831,
      "velocity": 102,
      "chip": "ym2612"
    },
    {
      "channel": 0,
      "note": 22,
      "start": 16.0006,
      "duration": 0.1832,
      "velocity": 127,
      "chip": "ym2612"
    },
    {
      "channel": 1,
      "note": 49,
      "start": 16.0009,
      "duration": 0.183,
      "velocity": 102,
      "chip": "ym2612"
    },
    {
      "channel": 0,
      "note": 22,
      "start": 16.202,
      "duration": 0.3817,
      "velocity": 127,
      "chip": "ym2612"
    },
    {
      "channel": 1,
      "note": 49,
      "start": 16.2023,
      "duration": 0.3816,
      "velocity": 102,
      "chip": "ym2612"
    },
    {
      "channel": 0,
      "note": 42,
      "start": 16.602,
      "duration": 0.1817,
      "velocity": 127,
      "chip": "ym2612"
    },
    {
      "channel": 1,
      "note": 49,
      "start": 16.6023,
      "duration": 0.1816,
      "velocity": 102,
      "chip": "ym2612"
    },
    {
      "channel": 0,
      "note": 22,
      "start": 16.8022,
      "duration": 0.3816,
      "velocity": 127,
      "chip": "ym2612"
    },
    {
      "channel": 1,
      "note": 49,
      "start": 16.8024,
      "duration": 0.3815,
      "velocity": 102,
      "chip": "ym2612"
    },
    {
      "channel": 0,
      "note": 22,
      "start": 17.2006,
      "duration": 0.1832,
      "velocity": 127,
      "chip": "ym2612"
    },
    {
      "channel": 1,
      "note": 49,
      "start": 17.2009,
      "duration": 0.183,
      "velocity": 102,
      "chip": "ym2612"
    },
    {
      "channel": 0,
      "note": 22,
      "start": 17.402,
      "duration": 0.3817,
      "velocity": 127,
      "chip": "ym2612"
    },
    {
      "channel": 1,
      "note": 49,
      "start": 17.4023,
      "duration": 0.3816,
      "velocity": 102,
      "chip": "ym2612"
    },
    {
      "channel": 0,
      "note": 42,
      "start": 17.802,
      "duration": 0.1817,
      "velocity": 127,
      "chip": "ym2612"
    },
    {
      "channel": 1,
      "note": 49,
      "start": 17.8023,
      "duration": 0.1816,
      "velocity": 102,
      "chip": "ym2612"
    },
    {
      "channel": 0,
      "note": 22,
      "start": 18.0006,
      "duration": 0.3832,
      "velocity": 127,
      "chip": "ym2612"
    },
    {
      "channel": 1,
      "note": 49,
      "start": 18.0008,
      "duration": 0.3831,
      "velocity": 102,
      "chip": "ym2612"
    },
    {
      "channel": 0,
      "note": 22,
      "start": 18.4006,
      "duration": 0.1832,
      "velocity": 127,
      "chip": "ym2612"
    },
    {
      "channel": 1,
      "note": 49,
      "start": 18.4008,
      "duration": 0.1831,
      "velocity": 102,
      "chip": "ym2612"
    },
    {
      "channel": 0,
      "note": 22,
      "start": 18.602,
      "duration": 0.3817,
      "velocity": 127,
      "chip": "ym2612"
    },
    {
      "channel": 1,
      "note": 49,
      "start": 18.6023,
      "duration": 0.3816,
      "velocity": 102,
      "chip": "ym2612"
    },
    {
      "channel": 0,
      "note": 42,
      "start": 19.0022,
      "duration": 0.1815,
      "velocity": 127,
      "chip": "ym2612"
    },
    {
      "channel": 1,
      "note": 49,
      "start": 19.0024,
      "duration": 0.1814,
      "velocity": 102,
      "chip": "ym2612"
    },
    {
      "channel": 0,
      "note": 22,
      "start": 19.2022,
      "duration": 0.3816,
      "velocity": 127,
      "chip": "ym2612"
    },
    {
      "channel": 1,
      "note": 49,
      "start": 19.2024,
      "duration": 0.3815,
      "velocity": 102,
      "chip": "ym2612"
    },
    {
      "channel": 0,
      "note": 22,
      "start": 19.6006,
      "duration": 0.1832,
      "velocity": 127,
      "chip": "ym2612"
    },
    {
      "channel": 1,
      "note": 59,
      "start": 19.6009,
      "duration": 0.183,
      "velocity": 102,
      "chip": "ym2612"
    },
    {
      "channel": 0,
      "note": 22,
      "start": 19.8021,
      "duration": 0.3817,
      "velocity": 127,
      "chip": "ym2612"
    },
    {
      "channel": 1,
      "note": 59,
      "start": 19.8024,
      "duration": 0.3816,
      "velocity": 102,
      "chip": "ym2612"
    },
    {
      "channel": 2,
      "note": 71,
      "start": 19.8026,
      "duration": 0.3814,
      "velocity": 83,
      "chip": "ym2612"
    },
    {
      "channel": 0,
      "note": 42,
      "start": 20.2006,
      "duration": 0.3832,
      "velocity": 127,
      "chip": "ym2612"
    },
    {
      "channel": 1,
      "note": 59,
      "start": 20.2009,
      "duration": 0.5829,
      "velocity": 102,
      "chip": "ym2612"
    },
    {
      "channel": 2,
      "note": 71,
      "start": 20.2012,
      "duration": 1.1828,
      "velocity": 83,
      "chip": "ym2612"
    },
    {
      "channel": 0,
      "note": 42,
      "start": 20.8006,
      "duration": 0.1832,
      "velocity": 127,
      "chip": "ym2612"
    },
    {
      "channel": 1,
      "note": 59,
      "start": 20.8008,
      "duration": 0.183,
      "velocity": 102,
      "chip": "ym2612"
    },
    {
      "channel": 0,
      "note": 22,
      "start": 21.0022,
      "duration": 0.3816,
      "velocity": 127,
      "chip": "ym2612"
    },
    {
      "channel": 1,
      "note": 59,
      "start": 21.0024,
      "duration": 0.3815,
      "velocity": 102,
      "chip": "ym2612"
    },
    {
      "channel": 0,
      "note": 42,
      "start": 21.4021,
      "duration": 0.1816,
      "velocity": 127,
      "chip": "ym2612"
    },
    {
      "channel": 1,
      "note": 59,
      "start": 21.4024,
      "duration": 0.1815,
      "velocity": 102,
      "chip": "ym2612"
    },
    {
      "channel": 0,
      "note": 22,
      "start": 21.6022,
      "duration": 0.1816,
      "velocity": 127,
      "chip": "ym2612"
    },
    {
      "channel": 1,
      "note": 59,
      "start": 21.6024,
      "duration": 0.3815,
      "velocity": 102,
      "chip": "ym2612"
    },
    {
      "channel": 0,
      "note": 42,
      "start": 21.8006,
      "duration": 0.1832,
      "velocity": 127,
      "chip": "ym2612"
    },
    {
      "channel": 0,
      "note": 42,
      "start": 22.0007,
      "duration": 0.1831,
      "velocity": 127,
      "chip": "ym2612"
    },
    {
      "channel": 1,
      "note": 54,
      "start": 22.001,
      "duration": 0.183,
      "velocity": 102,
      "chip": "ym2612"
    },
    {
      "channel": 2,
      "note": 74,
      "start": 22.0012,
      "duration": 0.1828,
      "velocity": 83,
      "chip": "ym2612"
    },
    {
      "channel": 0,
      "note": 42,
      "start": 22.2007,
      "duration": 0.3831,
      "velocity": 127,
      "chip": "ym2612"
    },
    {
      "channel": 1,
      "note": 54,
      "start": 22.201,
      "duration": 0.383,
      "velocity": 102,
      "chip": "ym2612"
    },
    {
      "channel": 2,
      "note": 78,
      "start": 22.2012,
      "duration": 0.3828,
      "velocity": 83,
      "chip": "ym2612"
    },
    {
      "channel": 0,
      "note": 42,
      "start": 22.6007,
      "duration": 0.5831,
      "velocity": 127,
      "chip": "ym2612"
    },
    {
      "channel": 1,
      "note": 54,
      "start": 22.601,
      "duration": 0.583,
      "velocity": 102,
      "chip": "ym2612"
    },
    {
      "channel": 2,
      "note": 77,
      "start": 22.6012,
      "duration": 0.1827,
      "velocity": 83,
      "chip": "ym2612"
    },
    {
      "channel": 2,
      "note": 73,
      "start": 22.8006,
      "duration": 0.3833,
      "velocity": 83,
      "chip": "ym2612"
    },
    {
      "channel": 0,
      "note": 42,
      "start": 23.2021,
      "duration": 0.1817,
      "velocity": 127,
      "chip": "ym2612"
    },
    {
      "channel": 1,
      "note": 54,
      "start": 23.2024,
      "duration": 0.1815,
      "velocity": 102,
      "chip": "ym2612"
    },
    {
      "channel": 2,
      "note": 76,
      "start": 23.2026,
      "duration": 0.1814,
      "velocity": 83,
      "chip": "ym2612"
    },
    {
      "channel": 0,
      "note": 22,
      "start": 23.4022,
      "duration": 0.3815,
      "velocity": 127,
      "chip": "ym2612"
    },
    {
      "channel": 1,
      "note": 54,
      "start": 23.4025,
      "duration": 0.3814,
      "velocity": 102,
      "chip": "ym2612"
    },
    {
      "channel": 2,
      "note": 75,
      "start": 23.4027,
      "duration": 0.3812,
      "velocity": 83,
      "chip": "ym2612"
    },
    {
      "channel": 0,
      "note": 42,
      "start": 23.8021,
      "duration": 0.1817,
      "velocity": 127,
      "chip": "ym2612"
    },
    {
      "channel": 1,
      "note": 54,
      "start": 23.8024,
      "duration": 0.1816,
      "velocity": 102,
      "chip": "ym2612"
    },
    {
      "channel": 2,
      "note": 71,
      "start": 23.8026,
      "duration": 0.1814,
      "velocity": 83,
      "chip": "ym2612"
    },
    {
      "channel": 0,
      "note": 22,
      "start": 24.0021,
      "duration": 0.3817,
      "velocity": 127,
      "chip": "ym2612"
    },
    {
      "channel": 1,
      "note": 54,
      "start": 24.0024,
      "duration": 0.3816,
      "velocity": 102,
      "chip": "ym2612"
    },
    {
      "channel": 2,
      "note": 66,
      "start": 24.0026,
      "duration": 0.3814,
      "velocity": 83,
      "chip": "ym2612"
    },
    {
      "channel": 0,
      "note": 22,
      "start": 24.4007,
      "duration": 0.1831,
      "velocity": 127,
      "chip": "ym2612"
    },
    {
      "channel": 1,
      "note": 49,
      "start": 24.401,
      "duration": 0.183,
      "velocity": 102,
      "chip": "ym2612"
    },
    {
      "channel": 2,
      "note": 65,
      "start": 24.4012,
      "duration": 1.9827,
      "velocity": 83,
      "chip": "ym2612"
    },
    {
      "channel": 0,
      "note": 22,
      "start": 24.602,
      "duration": 0.3817,
      "velocity": 127,
      "chip": "ym2612"
    },
    {
      "channel": 1,
      "note": 49,
      "start": 24.6023,
      "duration": 0.3816,
      "velocity": 102,
      "chip": "ym2612"
    },
    {
      "channel": 0,
      "note": 42,
      "start": 25.002,
      "duration": 0.1817,
      "velocity": 127,
      "chip": "ym2612"
    },
    {
      "channel": 1,
      "note": 49,
      "start": 25.0023,
      "duration": 0.1816,
      "velocity": 102,
      "chip": "ym2612"
    },
    {
      "channel": 0,
      "note": 22,
      "start": 25.2006,
      "duration": 0.3832,
      "velocity": 127,
      "chip": "ym2612"
    },
    {
      "channel": 1,
      "note": 49,
      "start": 25.2008,
      "duration": 0.3831,
      "velocity": 102,
      "chip": "ym2612"
    },
    {
      "channel": 0,
      "note": 22,
      "start": 25.6006,
      "duration": 0.1832,
      "velocity": 127,
      "chip": "ym2612"
    },
    {
      "channel": 1,
      "note": 49,
      "start": 25.6009,
      "duration": 0.183,
      "velocity": 102,
      "chip": "ym2612"
    },
    {
      "channel": 0,
      "note": 22,
      "start": 25.802,
      "duration": 0.3817,
      "velocity": 127,
      "chip": "ym2612"
    },
    {
      "channel": 1,
      "note": 49,
      "start": 25.8023,
      "duration": 0.3816,
      "velocity": 102,
      "chip": "ym2612"
    },
    {
      "channel": 0,
      "note": 42,
      "start": 26.202,
      "duration": 0.1817,
      "velocity": 127,
      "chip": "ym2612"
    },
    {
      "channel": 1,
      "note": 49,
      "start": 26.2023,
      "duration": 0.1816,
      "velocity": 102,
      "chip": "ym2612"
    },
    {
      "channel": 0,
      "note": 22,
      "start": 26.402,
      "duration": 0.3817,
      "velocity": 127,
      "chip": "ym2612"
    },
    {
      "channel": 1,
      "note": 49,
      "start": 26.4023,
      "duration": 0.3816,
      "velocity": 102,
      "chip": "ym2612"
    },
    {
      "channel": 0,
      "note": 22,
      "start": 26.8006,
      "duration": 0.1832,
      "velocity": 127,
      "chip": "ym2612"
    },
    {
      "channel": 1,
      "note": 49,
      "start": 26.8008,
      "duration": 0.1831,
      "velocity": 102,
      "chip": "ym2612"
    },
    {
      "channel": 0,
      "note": 22,
      "start": 27.0021,
      "duration": 0.3817,
      "velocity": 127,
      "chip": "ym2612"
    },
    {
      "channel": 1,
      "note": 49,
      "start": 27.0024,
      "duration": 0.3816,
      "velocity": 102,
      "chip": "ym2612"
    },
    {
      "channel": 2,
      "note": 72,
      "start": 27.0026,
      "duration": 0.3814,
      "velocity": 83,
      "chip": "ym2612"
    },
    {
      "channel": 0,
      "note": 42,
      "start": 27.4021,
      "duration": 0.1817,
      "velocity": 127,
      "chip": "ym2612"
    },
    {
      "channel": 1,
      "note": 49,
      "start": 27.4024,
      "duration": 0.1815,
      "velocity": 102,
      "chip": "ym2612"
    },
    {
      "channel": 2,
      "note": 66,
      "start": 27.4026,
      "duration": 0.1814,
      "velocity": 83,
      "chip": "ym2612"
    },
    {
      "channel": 0,
      "note": 22,
      "start": 27.6022,
      "duration": 0.1815,
      "velocity": 127,
      "chip": "ym2612"
    },
    {
      "channel": 1,
      "note": 49,
      "start": 27.6025,
      "duration": 0.3814,
      "velocity": 102,
      "chip": "ym2612"
    },
    {
      "channel": 2,
      "note": 64,
      "start": 27.6027,
      "duration": 0.3812,
      "velocity": 83,
      "chip": "ym2612"
    },
    {
      "channel": 0,
      "note": 42,
      "start": 27.8005,
      "duration": 0.1833,
      "velocity": 127,
      "chip": "ym2612"
    },
    {
      "channel": 0,
      "note": 42,
      "start": 28.0006,
      "duration": 0.1832,
      "velocity": 127,
      "chip": "ym2612"
    },
    {
      "channel": 1,
      "note": 49,
      "start": 28.0009,
      "duration": 0.183,
      "velocity": 102,
      "chip": "ym2612"
    },
    {
      "channel": 2,
      "note": 66,
      "start": 28.0012,
      "duration": 0.1829,
      "velocity": 83,
      "chip": "ym2612"
    },
    {
      "channel": 0,
      "note": 42,
      "start": 28.2007,
      "duration": 0.1831,
      "velocity": 127,
      "chip": "ym2612"
    },
    {
      "channel": 1,
      "note": 49,
      "start": 28.201,
      "duration": 0.383,
      "velocity": 102,
      "chip": "ym2612"
    },
    {
      "channel": 0,
      "note": 42,
      "start": 28.4006,
      "duration": 0.1832,
      "velocity": 127,
      "chip": "ym2612"
    },
    {
      "channel": 0,
      "note": 42,
      "start": 28.6006,
      "duration": 0.1832,
      "velocity": 127,
      "chip": "ym2612"
    },
    {
      "channel": 1,
      "note": 49,
      "start": 28.6009,
      "duration": 0.183,
      "velocity": 102,
      "chip": "ym2612"
    },
    {
      "channel": 0,
      "note": 42,
      "start": 28.8022,
      "duration": 0.3816,
      "velocity": 127,
      "chip": "ym2612"
    },
    {
      "channel": 1,
      "note": 49,
      "start": 28.8039,
      "duration": 0.38,
      "velocity": 102,
      "chip": "ym2612"
    },
    {
      "channel": 0,
      "note": 22,
      "start": 29.2007,
      "duration": 0.1831,
      "velocity": 127,
      "chip": "ym2612"
    },
    {
      "channel": 1,
      "note": 49,
      "start": 29.201,
      "duration": 0.183,
      "velocity": 102,
      "chip": "ym2612"
    },
    {
      "channel": 2,
      "note": 63,
      "start": 29.2012,
      "duration": 0.1828,
      "velocity": 83,
      "chip": "ym2612"
    },
    {
      "channel": 0,
      "note": 22,
      "start": 29.4021,
      "duration": 0.3817,
      "velocity": 127,
      "chip": "ym2612"
    },
    {
      "channel": 1,
      "note": 49,
      "start": 29.4024,
      "duration": 0.3816,
      "velocity": 102,
      "chip": "ym2612"
    },
    {
      "channel": 2,
      "note": 73,
      "start": 29.4026,
      "duration": 0.3814,
      "velocity": 83,
      "chip": "ym2612"
    },
    {
      "channel": 0,
      "note": 42,
      "start": 29.8021,
      "duration": 0.1817,
      "velocity": 127,
      "chip": "ym2612"
    },
    {
      "channel": 1,
      "note": 49,
      "start": 29.8024,
      "duration": 0.1816,
      "velocity": 102,
      "chip": "ym2612"
    },
    {
      "channel": 2,
      "note": 80,
      "start": 29.8026,
      "duration": 1.9814,
      "velocity": 83,
      "chip": "ym2612"
    },
    {
      "channel": 0,
      "note": 22,
      "start": 30.0006,
      "duration": 0.3832,
      "velocity": 127,
      "chip": "ym2612"
    },
    {
      "channel": 1,
      "note": 49,
      "start": 30.0008,
      "duration": 0.3831,
      "velocity": 102,
      "chip": "ym2612"
    },
    {
      "channel": 0,
      "note": 22,
      "start": 30.4006,
      "duration": 0.1832,
      "velocity": 127,
      "chip": "ym2612"
    },
    {
      "channel": 1,
      "note": 49,
      "start": 30.4009,
      "duration": 0.183,
      "velocity": 102,
      "chip": "ym2612"
    },
    {
      "channel": 0,
      "note": 22,
      "start": 30.602,
      "duration": 0.3817,
      "velocity": 127,
      "chip": "ym2612"
    },
    {
      "channel": 1,
      "note": 49,
      "start": 30.6023,
      "duration": 0.3816,
      "velocity": 102,
      "chip": "ym2612"
    },
    {
      "channel": 0,
      "note": 42,
      "start": 31.002,
      "duration": 0.1817,
      "velocity": 127,
      "chip": "ym2612"
    },
    {
      "channel": 1,
      "note": 49,
      "start": 31.0023,
      "duration": 0.1816,
      "velocity": 102,
      "chip": "ym2612"
    },
    {
      "channel": 0,
      "note": 22,
      "start": 31.2021,
      "duration": 0.3817,
      "velocity": 127,
      "chip": "ym2612"
    },
    {
      "channel": 1,
      "note": 49,
      "start": 31.2024,
      "duration": 0.3816,
      "velocity": 102,
      "chip": "ym2612"
    },
    {
      "channel": 0,
      "note": 22,
      "start": 31.6006,
      "duration": 0.1832,
      "velocity": 127,
      "chip": "ym2612"
    },
    {
      "channel": 1,
      "note": 49,
      "start": 31.6008,
      "duration": 0.1831,
      "velocity": 102,
      "chip": "ym2612"
    },
    {
      "channel": 0,
      "note": 22,
      "start": 31.8021,
      "duration": 0.3817,
      "velocity": 127,
      "chip": "ym2612"
    },
    {
      "channel": 1,
      "note": 49,
      "start": 31.8024,
      "duration": 0.3816,
      "velocity": 102,
      "chip": "ym2612"
    },
    {
      "channel": 2,
      "note": 83,
      "start": 31.8026,
      "duration": 0.3814,
      "velocity": 83,
      "chip": "ym2612"
    },
    {
      "channel": 0,
      "note": 42,
      "start": 32.2021,
      "duration": 0.1817,
      "velocity": 127,
      "chip": "ym2612"
    },
    {
      "channel": 1,
      "note": 49,
      "start": 32.2024,
      "duration": 0.1816,
      "velocity": 102,
      "chip": "ym2612"
    },
    {
      "channel": 2,
      "note": 78,
      "start": 32.2026,
      "duration": 0.1814,
      "velocity": 83,
      "chip": "ym2612"
    },
    {
      "channel": 0,
      "note": 22,
      "start": 32.4006,
      "duration": 0.3832,
      "velocity": 127,
      "chip": "ym2612"
    },
    {
      "channel": 1,
      "note": 49,
      "start": 32.4009,
      "duration": 0.383,
      "velocity": 102,
      "chip": "ym2612"
    },
    {
      "channel": 2,
      "note": 76,
      "start": 32.4012,
      "duration": 0.3829,
      "velocity": 83,
      "chip": "ym2612"
    },
    {
      "channel": 0,
      "note": 22,
      "start": 32.8007,
      "duration": 0.1831,
      "velocity": 127,
      "chip": "ym2612"
    },
    {
      "channel": 1,
      "note": 49,
      "start": 32.801,
      "duration": 0.183,
      "velocity": 102,
      "chip": "ym2612"
    },
    {
      "channel": 2,
      "note": 78,
      "start": 32.8012,
      "duration": 0.1828,
      "velocity": 83,
      "chip": "ym2612"
    },
    {
      "channel": 0,
      "note": 22,
      "start": 33.0021,
      "duration": 0.3817,
      "velocity": 127,
      "chip": "ym2612"
    },
    {
      "channel": 1,
      "note": 49,
      "start": 33.0024,
      "duration": 0.3816,
      "velocity": 102,
      "chip": "ym2612"
    },
    {
      "channel": 0,
      "note": 42,
      "start": 33.402,
      "duration": 0.1817,
      "velocity": 127,
      "chip": "ym2612"
    },
    {
      "channel": 1,
      "note": 49,
      "start": 33.4023,
      "duration": 0.1816,
      "velocity": 102,
      "chip": "ym2612"
    },
    {
      "channel": 0,
      "note": 22,
      "start": 33.6022,
      "duration": 0.3816,
      "velocity": 127,
      "chip": "ym2612"
    },
    {
      "channel": 1,
      "note": 49,
      "start": 33.6024,
      "duration": 0.3815,
      "velocity": 102,
      "chip": "ym2612"
    },
    {
      "channel": 0,
      "note": 22,
      "start": 34.0006,
      "duration": 0.1832,
      "velocity": 127,
      "chip": "ym2612"
    },
    {
      "channel": 1,
      "note": 49,
      "start": 34.0009,
      "duration": 0.183,
      "velocity": 102,
      "chip": "ym2612"
    },
    {
      "channel": 0,
      "note": 22,
      "start": 34.2022,
      "duration": 0.3816,
      "velocity": 127,
      "chip": "ym2612"
    },
    {
      "channel": 1,
      "note": 49,
      "start": 34.2024,
      "duration": 0.3815,
      "velocity": 102,
      "chip": "ym2612"
    },
    {
      "channel": 2,
      "note": 75,
      "start": 34.2027,
      "duration": 0.3814,
      "velocity": 83,
      "chip": "ym2612"
    },
    {
      "channel": 0,
      "note": 42,
      "start": 34.6022,
      "duration": 0.1816,
      "velocity": 127,
      "chip": "ym2612"
    },
    {
      "channel": 1,
      "note": 49,
      "start": 34.6024,
      "duration": 0.1815,
      "velocity": 102,
      "chip": "ym2612"
    },
    {
      "channel": 2,
      "note": 80,
      "start": 34.6027,
      "duration": 1.9813,
      "velocity": 83,
      "chip": "ym2612"
    },
    {
      "channel": 0,
      "note": 22,
      "start": 34.8006,
      "duration": 0.3832,
      "velocity": 127,
      "chip": "ym2612"
    },
    {
      "channel": 1,
      "note": 49,
      "start": 34.8008,
      "duration": 0.3831,
      "velocity": 102,
      "chip": "ym2612"
    },
    {
      "channel": 0,
      "note": 22,
      "start": 35.2006,
      "duration": 0.1832,
      "velocity": 127,
      "chip": "ym2612"
    },
    {
      "channel": 1,
      "note": 49,
      "start": 35.2009,
      "duration": 0.183,
      "velocity": 102,
      "chip": "ym2612"
    },
    {
      "channel": 0,
      "note": 22,
      "start": 35.402,
      "duration": 0.3817,
      "velocity": 127,
      "chip": "ym2612"
    },
    {
      "channel": 1,
      "note": 49,
      "start": 35.4023,
      "duration": 0.3816,
      "velocity": 102,
      "chip": "ym2612"
    },
    {
      "channel": 0,
      "note": 42,
      "start": 35.802,
      "duration": 0.1817,
      "velocity": 127,
      "chip": "ym2612"
    },
    {
      "channel": 1,
      "note": 49,
      "start": 35.8023,
      "duration": 0.1816,
      "velocity": 102,
      "chip": "ym2612"
    },
    {
      "channel": 0,
      "note": 22,
      "start": 36.0022,
      "duration": 0.3816,
      "velocity": 127,
      "chip": "ym2612"
    },
    {
      "channel": 1,
      "note": 49,
      "start": 36.0024,
      "duration": 0.3815,
      "velocity": 102,
      "chip": "ym2612"
    },
    {
      "channel": 0,
      "note": 22,
      "start": 36.4006,
      "duration": 0.1832,
      "velocity": 127,
      "chip": "ym2612"
    },
    {
      "channel": 1,
      "note": 49,
      "start": 36.4009,
      "duration": 0.183,
      "velocity": 102,
      "chip": "ym2612"
    },
    {
      "channel": 0,
      "note": 22,
      "start": 36.6021,
      "duration": 0.3817,
      "velocity": 127,
      "chip": "ym2612"
    },
    {
      "channel": 1,
      "note": 49,
      "start": 36.6024,
      "duration": 0.3816,
      "velocity": 102,
      "chip": "ym2612"
    },
    {
      "channel": 2,
      "note": 83,
      "start": 36.6026,
      "duration": 0.3814,
      "velocity": 83,
      "chip": "ym2612"
    },
    {
      "channel": 0,
      "note": 42,
      "start": 37.0021,
      "duration": 0.1817,
      "velocity": 127,
      "chip": "ym2612"
    },
    {
      "channel": 1,
      "note": 49,
      "start": 37.0024,
      "duration": 0.1816,
      "velocity": 102,
      "chip": "ym2612"
    },
    {
      "channel": 0,
      "note": 22,
      "start": 37.2006,
      "duration": 0.3832,
      "velocity": 127,
      "chip": "ym2612"
    },
    {
      "channel": 1,
      "note": 49,
      "start": 37.2009,
      "duration": 0.383,
      "velocity": 102,
      "chip": "ym2612"
    },
    {
      "channel": 2,
      "note": 78,
      "start": 37.2012,
      "duration": 0.5829,
      "velocity": 83,
      "chip": "ym2612"
    },
    {
      "channel": 0,
      "note": 22,
      "start": 37.6006,
      "duration": 0.1832,
      "velocity": 127,
      "chip": "ym2612"
    },
    {
      "channel": 1,
      "note": 49,
      "start": 37.6008,
      "duration": 0.1831,
      "velocity": 102,
      "chip": "ym2612"
    },
    {
      "channel": 0,
      "note": 22,
      "start": 37.8021,
      "duration": 0.3817,
      "velocity": 127,
      "chip": "ym2612"
    },
    {
      "channel": 1,
      "note": 49,
      "start": 37.8024,
      "duration": 0.3816,
      "velocity": 102,
      "chip": "ym2612"
    },
    {
      "channel": 2,
      "note": 78,
      "start": 37.8026,
      "duration": 0.3814,
      "velocity": 83,
      "chip": "ym2612"
    },
    {
      "channel": 0,
      "note": 42,
      "start": 38.2021,
      "duration": 0.1817,
      "velocity": 127,
      "chip": "ym2612"
    },
    {
      "channel": 1,
      "note": 49,
      "start": 38.2024,
      "duration": 0.1815,
      "velocity": 102,
      "chip": "ym2612"
    },
    {
      "channel": 2,
      "note": 76,
      "start": 38.2026,
      "duration": 0.5814,
      "velocity": 83,
      "chip": "ym2612"
    },
    {
      "channel": 0,
      "note": 22,
      "start": 38.4022,
      "duration": 0.3816,
      "velocity": 127,
      "chip": "ym2612"
    },
    {
      "channel": 1,
      "note": 49,
      "start": 38.4024,
      "duration": 0.3815,
      "velocity": 102,
      "chip": "ym2612"
    },
    {
      "channel": 0,
      "note": 22,
      "start": 38.8006,
      "duration": 0.1832,
      "velocity": 127,
      "chip": "ym2612"
    },
    {
      "channel": 1,
      "note": 54,
      "start": 38.8009,
      "duration": 0.183,
      "velocity": 102,
      "chip": "ym2612"
    },
    {
      "channel": 2,
      "note": 73,
      "start": 38.8012,
      "duration": 0.1829,
      "velocity": 83,
      "chip": "ym2612"
    },
    {
      "channel": 0,
      "note": 22,
      "start": 39.0022,
      "duration": 0.3816,
      "velocity": 127,
      "chip": "ym2612"
    },
    {
      "channel": 1,
      "note": 54,
      "start": 39.0024,
      "duration": 0.3815,
      "velocity": 102,
      "chip": "ym2612"
    },
    {
      "channel": 2,
      "note": 78,
      "start": 39.0027,
      "duration": 0.3814,
      "velocity": 83,
      "chip": "ym2612"
    },
    {
      "channel": 0,
      "note": 42,
      "start": 39.4022,
      "duration": 0.1816,
      "velocity": 127,
      "chip": "ym2612"
    },
    {
      "channel": 1,
      "note": 54,
      "start": 39.4024,
      "duration": 0.1815,
      "velocity": 102,
      "chip": "ym2612"
    },
    {
      "channel": 2,
      "note": 85,
      "start": 39.4027,
      "duration": 1.5812,
      "velocity": 83,
      "chip": "ym2612"
    },
    {
      "channel": 0,
      "note": 22,
      "start": 39.6006,
      "duration": 0.3832,
      "velocity": 127,
      "chip": "ym2612"
    },
    {
      "channel": 1,
      "note": 54,
      "start": 39.6008,
      "duration": 0.3831,
      "velocity": 102,
      "chip": "ym2612"
    },
    {
      "channel": 0,
      "note": 22,
      "start": 40.0006,
      "duration": 0.1832,
      "velocity": 127,
      "chip": "ym2612"
    },
    {
      "channel": 1,
      "note": 54,
      "start": 40.0009,
      "duration": 0.183,
      "velocity": 102,
      "chip": "ym2612"
    },
    {
      "channel": 0,
      "note": 22,
      "start": 40.202,
      "duration": 0.3817,
      "velocity": 127,
      "chip": "ym2612"
    },
    {
      "channel": 1,
      "note": 54,
      "start": 40.2023,
      "duration": 0.3816,
      "velocity": 102,
      "chip": "ym2612"
    },
    {
      "channel": 0,
      "note": 42,
      "start": 40.602,
      "duration": 0.1817,
      "velocity": 127,
      "chip": "ym2612"
    },
    {
      "channel": 1,
      "note": 54,
      "start": 40.6023,
      "duration": 0.1816,
      "velocity": 102,
      "chip": "ym2612"
    },
    {
      "channel": 0,
      "note": 22,
      "start": 40.802,
      "duration": 0.3817,
      "velocity": 127,
      "chip": "ym2612"
    },
    {
      "channel": 1,
      "note": 54,
      "start": 40.8023,
      "duration": 0.3816,
      "velocity": 102,
      "chip": "ym2612"
    },
    {
      "channel": 0,
      "note": 22,
      "start": 41.2007,
      "duration": 0.1831,
      "velocity": 127,
      "chip": "ym2612"
    },
    {
      "channel": 1,
      "note": 54,
      "start": 41.201,
      "duration": 0.183,
      "velocity": 102,
      "chip": "ym2612"
    },
    {
      "channel": 2,
      "note": 88,
      "start": 41.2012,
      "duration": 0.1828,
      "velocity": 83,
      "chip": "ym2612"
    },
    {
      "channel": 0,
      "note": 22,
      "start": 41.4021,
      "duration": 0.3817,
      "velocity": 127,
      "chip": "ym2612"
    },
    {
      "channel": 1,
      "note": 54,
      "start": 41.4024,
      "duration": 0.3816,
      "velocity": 102,
      "chip": "ym2612"
    },
    {
      "channel": 2,
      "note": 90,
      "start": 41.4026,
      "duration": 0.3814,
      "velocity": 83,
      "chip": "ym2612"
    },
    {
      "channel": 0,
      "note": 42,
      "start": 41.8021,
      "duration": 0.1816,
      "velocity": 127,
      "chip": "ym2612"
    },
    {
      "channel": 1,
      "note": 54,
      "start": 41.8024,
      "duration": 0.1815,
      "velocity": 102,
      "chip": "ym2612"
    },
    {
      "channel": 2,
      "note": 89,
      "start": 41.8026,
      "duration": 0.1814,
      "velocity": 83,
      "chip": "ym2612"
    },
    {
      "channel": 0,
      "note": 22,
      "start": 42.0006,
      "duration": 0.3832,
      "velocity": 127,
      "chip": "ym2612"
    },
    {
      "channel": 1,
      "note": 54,
      "start": 42.0009,
      "duration": 0.383,
      "velocity": 102,
      "chip": "ym2612"
    },
    {
      "channel": 2,
      "note": 85,
      "start": 42.0012,
      "duration": 0.5828,
      "velocity": 83,
      "chip": "ym2612"
    },
    {
      "channel": 0,
      "note": 22,
      "start": 42.4006,
      "duration": 0.1832,
      "velocity": 127,
      "chip": "ym2612"
    },
    {
      "channel": 1,
      "note": 54,
      "start": 42.4008,
      "duration": 0.1831,
      "velocity": 102,
      "chip": "ym2612"
    },
    {
      "channel": 0,
      "note": 22,
      "start": 42.6021,
      "duration": 0.3817,
      "velocity": 127,
      "chip": "ym2612"
    },
    {
      "channel": 1,
      "note": 54,
      "start": 42.6024,
      "duration": 0.3816,
      "velocity": 102,
      "chip": "ym2612"
    },
    {
      "channel": 2,
      "note": 80,
      "start": 42.6026,
      "duration": 0.5814,
      "velocity": 83,
      "chip": "ym2612"
    },
    {
      "channel": 0,
      "note": 42,
      "start": 43.002,
      "duration": 0.1817,
      "velocity": 127,
      "chip": "ym2612"
    },
    {
      "channel": 1,
      "note": 54,
      "start": 43.0023,
      "duration": 0.1816,
      "velocity": 102,
      "chip": "ym2612"
    },
    {
      "channel": 0,
      "note": 22,
      "start": 43.2022,
      "duration": 0.3815,
      "velocity": 127,
      "chip": "ym2612"
    },
    {
      "channel": 1,
      "note": 54,
      "start": 43.2025,
      "duration": 0.3814,
      "velocity": 102,
      "chip": "ym2612"
    },
    {
      "channel": 2,
      "note": 78,
      "start": 43.2027,
      "duration": 0.3812,
      "velocity": 83,
      "chip": "ym2612"
    },
    {
      "channel": 0,
      "note": 22,
      "start": 43.6006,
      "duration": 0.1832,
      "velocity": 127,
      "chip": "ym2612"
    },
    {
      "channel": 1,
      "note": 49,
      "start": 43.6009,
      "duration": 0.183,
      "velocity": 102,
      "chip": "ym2612"
    },
    {
      "channel": 2,
      "note": 77,
      "start": 43.6012,
      "duration": 2.5828,
      "velocity": 83,
      "chip": "ym2612"
    },
    {
      "channel": 0,
      "note": 22,
      "start": 43.802,
      "duration": 0.3817,
      "velocity": 127,
      "chip": "ym2612"
    },
    {
      "channel": 1,
      "note": 49,
      "start": 43.8023,
      "duration": 0.3816,
      "velocity": 102,
      "chip": "ym2612"
    },
    {
      "channel": 0,
      "note": 42,
      "start": 44.2022,
      "duration": 0.1816,
      "velocity": 127,
      "chip": "ym2612"
    },
    {
      "channel": 1,
      "note": 49,
      "start": 44.2024,
      "duration": 0.1815,
      "velocity": 102,
      "chip": "ym2612"
    },
    {
      "channel": 0,
      "note": 22,
      "start": 44.4006,
      "duration": 0.3832,
      "velocity": 127,
      "chip": "ym2612"
    },
    {
      "channel": 1,
      "note": 49,
      "start": 44.4009,
      "duration": 0.383,
      "velocity": 102,
      "chip": "ym2612"
    },
    {
      "channel": 0,
      "note": 22,
      "start": 44.8006,
      "duration": 0.1832,
      "velocity": 127,
      "chip": "ym2612"
    },
    {
      "channel": 1,
      "note": 49,
      "start": 44.8009,
      "duration": 0.183,
      "velocity": 102,
      "chip": "ym2612"
    },
    {
      "channel": 0,
      "note": 22,
      "start": 45.002,
      "duration": 0.3817,
      "velocity": 127,
      "chip": "ym2612"
    },
    {
      "channel": 1,
      "note": 49,
      "start": 45.0023,
      "duration": 0.3816,
      "velocity": 102,
      "chip": "ym2612"
    },
    {
      "channel": 0,
      "note": 42,
      "start": 45.402,
      "duration": 0.1817,
      "velocity": 127,
      "chip": "ym2612"
    },
    {
      "channel": 1,
      "note": 49,
      "start": 45.4023,
      "duration": 0.1816,
      "velocity": 102,
      "chip": "ym2612"
    },
    {
      "channel": 0,
      "note": 22,
      "start": 45.6022,
      "duration": 0.3816,
      "velocity": 127,
      "chip": "ym2612"
    },
    {
      "channel": 1,
      "note": 49,
      "start": 45.6024,
      "duration": 0.3815,
      "velocity": 102,
      "chip": "ym2612"
    },
    {
      "channel": 0,
      "note": 22,
      "start": 46.0006,
      "duration": 0.1832,
      "velocity": 127,
      "chip": "ym2612"
    },
    {
      "channel": 1,
      "note": 49,
      "start": 46.0009,
      "duration": 0.183,
      "velocity": 102,
      "chip": "ym2612"
    },
    {
      "channel": 0,
      "note": 22,
      "start": 46.2021,
      "duration": 0.3817,
      "velocity": 127,
      "chip": "ym2612"
    },
    {
      "channel": 1,
      "note": 49,
      "start": 46.2024,
      "duration": 0.3816,
      "velocity": 102,
      "chip": "ym2612"
    },
    {
      "channel": 2,
      "note": 85,
      "start": 46.2026,
      "duration": 0.1812,
      "velocity": 83,
      "chip": "ym2612"
    },
    {
      "channel": 0,
      "note": 42,
      "start": 46.602,
      "duration": 0.1817,
      "velocity": 127,
      "chip": "ym2612"
    },
    {
      "channel": 1,
      "note": 49,
      "start": 46.6023,
      "duration": 0.1816,
      "velocity": 102,
      "chip": "ym2612"
    },
    {
      "channel": 0,
      "note": 22,
      "start": 46.8006,
      "duration": 0.3832,
      "velocity": 127,
      "chip": "ym2612"
    },
    {
      "channel": 1,
      "note": 49,
      "start": 46.8009,
      "duration": 0.383,
      "velocity": 102,
      "chip": "ym2612"
    },
    {
      "channel": 2,
      "note": 78,
      "start": 46.8012,
      "duration": 0.3828,
      "velocity": 83,
      "chip": "ym2612"
    },
    {
      "channel": 0,
      "note": 22,
      "start": 47.2006,
      "duration": 0.1832,
      "velocity": 127,
      "chip": "ym2612"
    },
    {
      "channel": 1,
      "note": 49,
      "start": 47.2009,
      "duration": 0.183,
      "velocity": 102,
      "chip": "ym2612"
    },
    {
      "channel": 2,
      "note": 78,
      "start": 47.2012,
      "duration": 0.1829,
      "velocity": 83,
      "chip": "ym2612"
    },
    {
      "channel": 0,
      "note": 22,
      "start": 47.4021,
      "duration": 0.3817,
      "velocity": 127,
      "chip": "ym2612"
    },
    {
      "channel": 1,
      "note": 49,
      "start": 47.4024,
      "duration": 0.3816,
      "velocity": 102,
      "chip": "ym2612"
    },
    {
      "channel": 2,
      "note": 76,
      "start": 47.4026,
      "duration": 0.1813,
      "velocity": 83,
      "chip": "ym2612"
    },
    {
      "channel": 0,
      "note": 42,
      "start": 47.802,
      "duration": 0.1817,
      "velocity": 127,
      "chip": "ym2612"
    },
    {
      "channel": 1,
      "note": 49,
      "start": 47.8023,
      "duration": 0.1816,
      "velocity": 102,
      "chip": "ym2612"
    },
    {
      "channel": 0,
      "note": 22,
      "start": 48.002,
      "duration": 0.3817,
      "velocity": 127,
      "chip": "ym2612"
    },
    {
      "channel": 1,
      "note": 49,
      "start": 48.0023,
      "duration": 0.3816,
      "velocity": 102,
      "chip": "ym2612"
    },
    {
      "channel": 0,
      "note": 22,
      "start": 48.4006,
      "duration": 0.1832,
      "velocity": 127,
      "chip": "ym2612"
    },
    {
      "channel": 1,
      "note": 59,
      "start": 48.4009,
      "duration": 0.183,
      "velocity": 102,
      "chip": "ym2612"
    },
    {
      "channel": 0,
      "note": 22,
      "start": 48.6021,
      "duration": 0.3817,
      "velocity": 127,
      "chip": "ym2612"
    },
    {
      "channel": 1,
      "note": 59,
      "start": 48.6024,
      "duration": 0.3816,
      "velocity": 102,
      "chip": "ym2612"
    },
    {
      "channel": 2,
      "note": 72,
      "start": 48.6026,
      "duration": 0.3814,
      "velocity": 83,
      "chip": "ym2612"
    },
    {
      "channel": 0,
      "note": 42,
      "start": 49.0006,
      "duration": 0.3832,
      "velocity": 127,
      "chip": "ym2612"
    },
    {
      "channel": 1,
      "note": 59,
      "start": 49.0009,
      "duration": 0.5829,
      "velocity": 102,
      "chip": "ym2612"
    },
    {
      "channel": 2,
      "note": 88,
      "start": 49.0012,
      "duration": 1.1829,
      "velocity": 83,
      "chip": "ym2612"
    },
    {
      "channel": 0,
      "note": 42,
      "start": 49.6006,
      "duration": 0.1832,
      "velocity": 127,
      "chip": "ym2612"
    },
    {
      "channel": 1,
      "note": 59,
      "start": 49.6008,
      "duration": 0.1831,
      "velocity": 102,
      "chip": "ym2612"
    },
    {
      "channel": 0,
      "note": 22,
      "start": 49.802,
      "duration": 0.3817,
      "velocity": 127,
      "chip": "ym2612"
    },
    {
      "channel": 1,
      "note": 59,
      "start": 49.8023,
      "duration": 0.3816,
      "velocity": 102,
      "chip": "ym2612"
    },
    {
      "channel": 0,
      "note": 42,
      "start": 50.2021,
      "duration": 0.1817,
      "velocity": 127,
      "chip": "ym2612"
    },
    {
      "channel": 1,
      "note": 59,
      "start": 50.2024,
      "duration": 0.1815,
      "velocity": 102,
      "chip": "ym2612"
    },
    {
      "channel": 0,
      "note": 22,
      "start": 50.4022,
      "duration": 0.1815,
      "velocity": 127,
      "chip": "ym2612"
    },
    {
      "channel": 1,
      "note": 59,
      "start": 50.4025,
      "duration": 0.3814,
      "velocity": 102,
      "chip": "ym2612"
    },
    {
      "channel": 2,
      "note": 87,
      "start": 50.4027,
      "duration": 0.3812,
      "velocity": 83,
      "chip": "ym2612"
    },
    {
      "channel": 0,
      "note": 42,
      "start": 50.6005,
      "duration": 0.1832,
      "velocity": 127,
      "chip": "ym2612"
    },
    {
      "channel": 0,
      "note": 42,
      "start": 50.8006,
      "duration": 0.1832,
      "velocity": 127,
      "chip": "ym2612"
    },
    {
      "channel": 1,
      "note": 54,
      "start": 50.8009,
      "duration": 0.183,
      "velocity": 102,
      "chip": "ym2612"
    },
    {
      "channel": 0,
      "note": 42,
      "start": 51.0006,
      "duration": 0.3832,
      "velocity": 127,
      "chip": "ym2612"
    },
    {
      "channel": 1,
      "note": 54,
      "start": 51.0008,
      "duration": 0.3831,
      "velocity": 102,
      "chip": "ym2612"
    },
    {
      "channel": 0,
      "note": 42,
      "start": 51.4006,
      "duration": 0.5832,
      "velocity": 127,
      "chip": "ym2612"
    },
    {
      "channel": 1,
      "note": 54,
      "start": 51.4009,
      "duration": 0.583,
      "velocity": 102,
      "chip": "ym2612"
    },
    {
      "channel": 2,
      "note": 82,
      "start": 51.4012,
      "duration": 0.7828,
      "velocity": 83,
      "chip": "ym2612"
    },
    {
      "channel": 0,
      "note": 42,
      "start": 52.002,
      "duration": 0.1817,
      "velocity": 127,
      "chip": "ym2612"
    },
    {
      "channel": 1,
      "note": 54,
      "start": 52.0023,
      "duration": 0.1816,
      "velocity": 102,
      "chip": "ym2612"
    },
    {
      "channel": 0,
      "note": 22,
      "start": 52.2022,
      "duration": 0.3815,
      "velocity": 127,
      "chip": "ym2612"
    },
    {
      "channel": 1,
      "note": 54,
      "start": 52.2025,
      "duration": 0.3814,
      "velocity": 102,
      "chip": "ym2612"
    },
    {
      "channel": 2,
      "note": 82,
      "start": 52.2027,
      "duration": 0.3812,
      "velocity": 83,
      "chip": "ym2612"
    },
    {
      "channel": 0,
      "note": 42,
      "start": 52.6021,
      "duration": 0.1816,
      "velocity": 127,
      "chip": "ym2612"
    },
    {
      "channel": 1,
      "note": 54,
      "start": 52.6024,
      "duration": 0.1815,
      "velocity": 102,
      "chip": "ym2612"
    },
    {
      "channel": 0,
      "note": 22,
      "start": 52.8022,
      "duration": 0.3815,
      "velocity": 127,
      "chip": "ym2612"
    },
    {
      "channel": 1,
      "note": 54,
      "start": 52.8025,
      "duration": 0.3814,
      "velocity": 102,
      "chip": "ym2612"
    },
    {
      "channel": 2,
      "note": 83,
      "start": 52.8027,
      "duration": 2.7812,
      "velocity": 83,
      "chip": "ym2612"
    },
    {
      "channel": 0,
      "note": 22,
      "start": 53.2007,
      "duration": 0.1831,
      "velocity": 127,
      "chip": "ym2612"
    },
    {
      "channel": 1,
      "note": 49,
      "start": 53.201,
      "duration": 0.1829,
      "velocity": 102,
      "chip": "ym2612"
    },
    {
      "channel": 0,
      "note": 22,
      "start": 53.4022,
      "duration": 0.3816,
      "velocity": 127,
      "chip": "ym2612"
    },
    {
      "channel": 1,
      "note": 49,
      "start": 53.4024,
      "duration": 0.3815,
      "velocity": 102,
      "chip": "ym2612"
    },
    {
      "channel": 0,
      "note": 42,
      "start": 53.8021,
      "duration": 0.1817,
      "velocity": 127,
      "chip": "ym2612"
    },
    {
      "channel": 1,
      "note": 49,
      "start": 53.8024,
      "duration": 0.1816,
      "velocity": 102,
      "chip": "ym2612"
    },
    {
      "channel": 0,
      "note": 22,
      "start": 54.0006,
      "duration": 0.3832,
      "velocity": 127,
      "chip": "ym2612"
    },
    {
      "channel": 1,
      "note": 49,
      "start": 54.0008,
      "duration": 0.3831,
      "velocity": 102,
      "chip": "ym2612"
    },
    {
      "channel": 0,
      "note": 22,
      "start": 54.4006,
      "duration": 0.1832,
      "velocity": 127,
      "chip": "ym2612"
    },
    {
      "channel": 1,
      "note": 49,
      "start": 54.4008,
      "duration": 0.1831,
      "velocity": 102,
      "chip": "ym2612"
    },
    {
      "channel": 0,
      "note": 22,
      "start": 54.602,
      "duration": 0.3817,
      "velocity": 127,
      "chip": "ym2612"
    },
    {
      "channel": 1,
      "note": 49,
      "start": 54.6023,
      "duration": 0.3816,
      "velocity": 102,
      "chip": "ym2612"
    },
    {
      "channel": 0,
      "note": 42,
      "start": 55.0022,
      "duration": 0.1816,
      "velocity": 127,
      "chip": "ym2612"
    },
    {
      "channel": 1,
      "note": 49,
      "start": 55.0024,
      "duration": 0.1815,
      "velocity": 102,
      "chip": "ym2612"
    },
    {
      "channel": 0,
      "note": 22,
      "start": 55.202,
      "duration": 0.3817,
      "velocity": 127,
      "chip": "ym2612"
    },
    {
      "channel": 1,
      "note": 49,
      "start": 55.2023,
      "duration": 0.3816,
      "velocity": 102,
      "chip": "ym2612"
    },
    {
      "channel": 0,
      "note": 22,
      "start": 55.6006,
      "duration": 0.1832,
      "velocity": 127,
      "chip": "ym2612"
    },
    {
      "channel": 1,
      "note": 49,
      "start": 55.6009,
      "duration": 0.183,
      "velocity": 102,
      "chip": "ym2612"
    },
    {
      "channel": 0,
      "note": 22,
      "start": 55.8022,
      "duration": 0.3816,
      "velocity": 127,
      "chip": "ym2612"
    },
    {
      "channel": 1,
      "note": 49,
      "start": 55.8024,
      "duration": 0.3815,
      "velocity": 102,
      "chip": "ym2612"
    },
    {
      "channel": 2,
      "note": 85,
      "start": 55.8027,
      "duration": 0.3813,
      "velocity": 83,
      "chip": "ym2612"
    },
    {
      "channel": 0,
      "note": 42,
      "start": 56.2021,
      "duration": 0.1817,
      "velocity": 127,
      "chip": "ym2612"
    },
    {
      "channel": 1,
      "note": 49,
      "start": 56.2024,
      "duration": 0.1816,
      "velocity": 102,
      "chip": "ym2612"
    },
    {
      "channel": 2,
      "note": 78,
      "start": 56.2026,
      "duration": 0.1814,
      "velocity": 83,
      "chip": "ym2612"
    },
    {
      "channel": 0,
      "note": 22,
      "start": 56.4021,
      "duration": 0.1817,
      "velocity": 127,
      "chip": "ym2612"
    },
    {
      "channel": 1,
      "note": 49,
      "start": 56.4024,
      "duration": 0.3816,
      "velocity": 102,
      "chip": "ym2612"
    },
    {
      "channel": 2,
      "note": 76,
      "start": 56.4026,
      "duration": 0.3814,
      "velocity": 83,
      "chip": "ym2612"
    },
    {
      "channel": 0,
      "note": 42,
      "start": 56.6006,
      "duration": 0.1832,
      "velocity": 127,
      "chip": "ym2612"
    },
    {
      "channel": 0,
      "note": 42,
      "start": 56.8006,
      "duration": 0.1832,
      "velocity": 127,
      "chip": "ym2612"
    },
    {
      "channel": 1,
      "note": 49,
      "start": 56.8009,
      "duration": 0.183,
      "velocity": 102,
      "chip": "ym2612"
    },
    {
      "channel": 2,
      "note": 78,
      "start": 56.8012,
      "duration": 0.1829,
      "velocity": 83,
      "chip": "ym2612"
    },
    {
      "channel": 0,
      "note": 42,
      "start": 57.0007,
      "duration": 0.1831,
      "velocity": 127,
      "chip": "ym2612"
    },
    {
      "channel": 1,
      "note": 49,
      "start": 57.001,
      "duration": 0.383,
      "velocity": 102,
      "chip": "ym2612"
    },
    {
      "channel": 2,
      "note": 76,
      "start": 57.0012,
      "duration": 0.5827,
      "velocity": 83,
      "chip": "ym2612"
    },
    {
      "channel": 0,
      "note": 42,
      "start": 57.2006,
      "duration": 0.1832,
      "velocity": 127,
      "chip": "ym2612"
    },
    {
      "channel": 0,
      "note": 42,
      "start": 57.4006,
      "duration": 0.1832,
      "velocity": 127,
      "chip": "ym2612"
    },
    {
      "channel": 1,
      "note": 49,
      "start": 57.4009,
      "duration": 0.183,
      "velocity": 102,
      "chip": "ym2612"
    },
    {
      "channel": 0,
      "note": 42,
      "start": 57.6022,
      "duration": 0.3815,
      "velocity": 127,
      "chip": "ym2612"
    },
    {
      "channel": 1,
      "note": 49,
      "start": 57.6039,
      "duration": 0.38,
      "velocity": 102,
      "chip": "ym2612"
    },
    {
      "channel": 0,
      "note": 22,
      "start": 58.0006,
      "duration": 0.1832,
      "velocity": 127,
      "chip": "ym2612"
    },
    {
      "channel": 1,
      "note": 52,
      "start": 58.0009,
      "duration": 0.183,
      "velocity": 102,
      "chip": "ym2612"
    },
    {
      "channel": 0,
      "note": 22,
      "start": 58.2021,
      "duration": 0.3817,
      "velocity": 127,
      "chip": "ym2612"
    },
    {
      "channel": 1,
      "note": 52,
      "start": 58.2024,
      "duration": 0.3816,
      "velocity": 102,
      "chip": "ym2612"
    },
    {
      "channel": 2,
      "note": 72,
      "start": 58.2026,
      "duration": 0.3814,
      "velocity": 94,
      "chip": "ym2612"
    },
    {
      "channel": 0,
      "note": 42,
      "start": 58.6021,
      "duration": 0.1817,
      "velocity": 127,
      "chip": "ym2612"
    },
    {
      "channel": 1,
      "note": 52,
      "start": 58.6024,
      "duration": 0.1816,
      "velocity": 102,
      "chip": "ym2612"
    },
    {
      "channel": 2,
      "note": 81,
      "start": 58.6026,
      "duration": 0.1814,
      "velocity": 94,
      "chip": "ym2612"
    },
    {
      "channel": 0,
      "note": 22,
      "start": 58.8006,
      "duration": 0.3832,
      "velocity": 127,
      "chip": "ym2612"
    },
    {
      "channel": 1,
      "note": 52,
      "start": 58.8009,
      "duration": 0.383,
      "velocity": 102,
      "chip": "ym2612"
    },
    {
      "channel": 0,
      "note": 22,
      "start": 59.2006,
      "duration": 0.1832,
      "velocity": 127,
      "chip": "ym2612"
    },
    {
      "channel": 1,
      "note": 52,
      "start": 59.2009,
      "duration": 0.183,
      "velocity": 102,
      "chip": "ym2612"
    },
    {
      "channel": 0,
      "note": 22,
      "start": 59.4021,
      "duration": 0.3817,
      "velocity": 127,
      "chip": "ym2612"
    },
    {
      "channel": 1,
      "note": 52,
      "start": 59.4024,
      "duration": 0.3816,
      "velocity": 102,
      "chip": "ym2612"
    },
    {
      "channel": 2,
      "note": 80,
      "start": 59.4026,
      "duration": 0.3814,
      "velocity": 94,
      "chip": "ym2612"
    },
    {
      "channel": 0,
      "note": 42,
      "start": 59.8021,
      "duration": 0.1817,
      "velocity": 127,
      "chip": "ym2612"
    },
    {
      "channel": 1,
      "note": 52,
      "start": 59.8024,
      "duration": 0.1816,
      "velocity": 102,
      "chip": "ym2612"
    },
    {
      "channel": 2,
      "note": 78,
      "start": 59.8026,
      "duration": 1.7814,
      "velocity": 94,
      "chip": "ym2612"
    },
    {
      "channel": 0,
      "note": 22,
      "start": 60.002,
      "duration": 0.3817,
      "velocity": 127,
      "chip": "ym2612"
    },
    {
      "channel": 1,
      "note": 52,
      "start": 60.0023,
      "duration": 0.3816,
      "velocity": 102,
      "chip": "ym2612"
    },
    {
      "channel": 0,
      "note": 22,
      "start": 60.4006,
      "duration": 0.1832,
      "velocity": 127,
      "chip": "ym2612"
    },
    {
      "channel": 1,
      "note": 52,
      "start": 60.4009,
      "duration": 0.183,
      "velocity": 102,
      "chip": "ym2612"
    },
    {
      "channel": 0,
      "note": 22,
      "start": 60.602,
      "duration": 0.3817,
      "velocity": 127,
      "chip": "ym2612"
    },
    {
      "channel": 1,
      "note": 52,
      "start": 60.6023,
      "duration": 0.3816,
      "velocity": 102,
      "chip": "ym2612"
    },
    {
      "channel": 0,
      "note": 42,
      "start": 61.002,
      "duration": 0.1817,
      "velocity": 127,
      "chip": "ym2612"
    },
    {
      "channel": 1,
      "note": 52,
      "start": 61.0023,
      "duration": 0.1816,
      "velocity": 102,
      "chip": "ym2612"
    },
    {
      "channel": 0,
      "note": 22,
      "start": 61.2006,
      "duration": 0.3832,
      "velocity": 127,
      "chip": "ym2612"
    },
    {
      "channel": 1,
      "note": 52,
      "start": 61.2008,
      "duration": 0.3831,
      "velocity": 102,
      "chip": "ym2612"
    },
    {
      "channel": 0,
      "note": 22,
      "start": 61.6006,
      "duration": 0.1832,
      "velocity": 127,
      "chip": "ym2612"
    },
    {
      "channel": 1,
      "note": 52,
      "start": 61.6009,
      "duration": 0.183,
      "velocity": 102,
      "chip": "ym2612"
    },
    {
      "channel": 2,
      "note": 76,
      "start": 61.6012,
      "duration": 0.1829,
      "velocity": 94,
      "chip": "ym2612"
    },
    {
      "channel": 0,
      "note": 22,
      "start": 61.8021,
      "duration": 0.3817,
      "velocity": 127,
      "chip": "ym2612"
    },
    {
      "channel": 1,
      "note": 52,
      "start": 61.8024,
      "duration": 0.3816,
      "velocity": 102,
      "chip": "ym2612"
    },
    {
      "channel": 2,
      "note": 64,
      "start": 61.8026,
      "duration": 0.1812,
      "velocity": 94,
      "chip": "ym2612"
    },
    {
      "channel": 2,
      "note": 71,
      "start": 62.0006,
      "duration": 0.1835,
      "velocity": 94,
      "chip": "ym2612"
    },
    {
      "channel": 0,
      "note": 42,
      "start": 62.2022,
      "duration": 0.1816,
      "velocity": 127,
      "chip": "ym2612"
    },
    {
      "channel": 1,
      "note": 52,
      "start": 62.2024,
      "duration": 0.1815,
      "velocity": 102,
      "chip": "ym2612"
    },
    {
      "channel": 2,
      "note": 74,
      "start": 62.2027,
      "duration": 0.1814,
      "velocity": 94,
      "chip": "ym2612"
    },
    {
      "channel": 0,
      "note": 22,
      "start": 62.4021,
      "duration": 0.3817,
      "velocity": 127,
      "chip": "ym2612"
    },
    {
      "channel": 1,
      "note": 52,
      "start": 62.4024,
      "duration": 0.3816,
      "velocity": 102,
      "chip": "ym2612"
    },
    {
      "channel": 0,
      "note": 22,
      "start": 62.8006,
      "duration": 0.1832,
      "velocity": 127,
      "chip": "ym2612"
    },
    {
      "channel": 1,
      "note": 52,
      "start": 62.8008,
      "duration": 0.1831,
      "velocity": 102,
      "chip": "ym2612"
    },
    {
      "channel": 0,
      "note": 22,
      "start": 63.0021,
      "duration": 0.3817,
      "velocity": 127,
      "chip": "ym2612"
    },
    {
      "channel": 1,
      "note": 52,
      "start": 63.0024,
      "duration": 0.3816,
      "velocity": 102,
      "chip": "ym2612"
    },
    {
      "channel": 2,
      "note": 75,
      "start": 63.0026,
      "duration": 0.3814,
      "velocity": 94,
      "chip": "ym2612"
    },
    {
      "channel": 0,
      "note": 42,
      "start": 63.4021,
      "duration": 0.1817,
      "velocity": 127,
      "chip": "ym2612"
    },
    {
      "channel": 1,
      "note": 52,
      "start": 63.4024,
      "duration": 0.1816,
      "velocity": 102,
      "chip": "ym2612"
    },
    {
      "channel": 2,
      "note": 81,
      "start": 63.4026,
      "duration": 0.1814,
      "velocity": 94,
      "chip": "ym2612"
    },
    {
      "channel": 0,
      "note": 22,
      "start": 63.6007,
      "duration": 0.3831,
      "velocity": 127,
      "chip": "ym2612"
    },
    {
      "channel": 1,
      "note": 52,
      "start": 63.601,
      "duration": 0.383,
      "velocity": 102,
      "chip": "ym2612"
    },
    {
      "channel": 0,
      "note": 22,
      "start": 64.0006,
      "duration": 0.1832,
      "velocity": 127,
      "chip": "ym2612"
    },
    {
      "channel": 1,
      "note": 52,
      "start": 64.0009,
      "duration": 0.183,
      "velocity": 102,
      "chip": "ym2612"
    },
    {
      "channel": 0,
      "note": 22,
      "start": 64.2021,
      "duration": 0.3817,
      "velocity": 127,
      "chip": "ym2612"
    },
    {
      "channel": 1,
      "note": 52,
      "start": 64.2024,
      "duration": 0.3816,
      "velocity": 102,
      "chip": "ym2612"
    },
    {
      "channel": 2,
      "note": 80,
      "start": 64.2026,
      "duration": 0.3814,
      "velocity": 94,
      "chip": "ym2612"
    },
    {
      "channel": 0,
      "note": 42,
      "start": 64.6021,
      "duration": 0.1817,
      "velocity": 127,
      "chip": "ym2612"
    },
    {
      "channel": 1,
      "note": 52,
      "start": 64.6024,
      "duration": 0.1816,
      "velocity": 102,
      "chip": "ym2612"
    },
    {
      "channel": 2,
      "note": 78,
      "start": 64.6026,
      "duration": 1.7814,
      "velocity": 94,
      "chip": "ym2612"
    },
    {
      "channel": 0,
      "note": 22,
      "start": 64.8022,
      "duration": 0.3816,
      "velocity": 127,
      "chip": "ym2612"
    },
    {
      "channel": 1,
      "note": 52,
      "start": 64.8024,
      "duration": 0.3815,
      "velocity": 102,
      "chip": "ym2612"
    },
    {
      "channel": 0,
      "note": 22,
      "start": 65.2006,
      "duration": 0.1832,
      "velocity": 127,
      "chip": "ym2612"
    },
    {
      "channel": 1,
      "note": 52,
      "start": 65.2008,
      "duration": 0.1831,
      "velocity": 102,
      "chip": "ym2612"
    },
    {
      "channel": 0,
      "note": 22,
      "start": 65.402,
      "duration": 0.3817,
      "velocity": 127,
      "chip": "ym2612"
    },
    {
      "channel": 1,
      "note": 52,
      "start": 65.4023,
      "duration": 0.3816,
      "velocity": 102,
      "chip": "ym2612"
    },
    {
      "channel": 0,
      "note": 42,
      "start": 65.802,
      "duration": 0.1817,
      "velocity": 127,
      "chip": "ym2612"
    },
    {
      "channel": 1,
      "note": 52,
      "start": 65.8023,
      "duration": 0.1816,
      "velocity": 102,
      "chip": "ym2612"
    },
    {
      "channel": 0,
      "note": 22,
      "start": 66.0006,
      "duration": 0.3832,
      "velocity": 127,
      "chip": "ym2612"
    },
    {
      "channel": 1,
      "note": 52,
      "start": 66.0008,
      "duration": 0.3831,
      "velocity": 102,
      "chip": "ym2612"
    },
    {
      "channel": 0,
      "note": 22,
      "start": 66.4006,
      "duration": 0.1832,
      "velocity": 127,
      "chip": "ym2612"
    },
    {
      "channel": 1,
      "note": 52,
      "start": 66.4009,
      "duration": 0.183,
      "velocity": 102,
      "chip": "ym2612"
    },
    {
      "channel": 2,
      "note": 76,
      "start": 66.4012,
      "duration": 0.1829,
      "velocity": 94,
      "chip": "ym2612"
    },
    {
      "channel": 0,
      "note": 22,
      "start": 66.6021,
      "duration": 0.3816,
      "velocity": 127,
      "chip": "ym2612"
    },
    {
      "channel": 1,
      "note": 52,
      "start": 66.6024,
      "duration": 0.3815,
      "velocity": 102,
      "chip": "ym2612"
    },
    {
      "channel": 2,
      "note": 64,
      "start": 66.6026,
      "duration": 0.1813,
      "velocity": 94,
      "chip": "ym2612"
    },
    {
      "channel": 2,
      "note": 71,
      "start": 66.8005,
      "duration": 0.1834,
      "velocity": 94,
      "chip": "ym2612"
    },
    {
      "channel": 0,
      "note": 42,
      "start": 67.002,
      "duration": 0.1817,
      "velocity": 127,
      "chip": "ym2612"
    },
    {
      "channel": 1,
      "note": 52,
      "start": 67.0023,
      "duration": 0.1816,
      "velocity": 102,
      "chip": "ym2612"
    },
    {
      "channel": 2,
      "note": 74,
      "start": 67.0026,
      "duration": 0.1814,
      "velocity": 94,
      "chip": "ym2612"
    },
    {
      "channel": 0,
      "note": 22,
      "start": 67.202,
      "duration": 0.3817,
      "velocity": 127,
      "chip": "ym2612"
    },
    {
      "channel": 1,
      "note": 52,
      "start": 67.2023,
      "duration": 0.3816,
      "velocity": 102,
      "chip": "ym2612"
    },
    {
      "channel": 0,
      "note": 22,
      "start": 67.6006,
      "duration": 0.1832,
      "velocity": 127,
      "chip": "ym2612"
    },
    {
      "channel": 1,
      "note": 57,
      "start": 67.6009,
      "duration": 0.183,
      "velocity": 102,
      "chip": "ym2612"
    },
    {
      "channel": 0,
      "note": 22,
      "start": 67.8021,
      "duration": 0.3817,
      "velocity": 127,
      "chip": "ym2612"
    },
    {
      "channel": 1,
      "note": 57,
      "start": 67.8024,
      "duration": 0.3816,
      "velocity": 102,
      "chip": "ym2612"
    },
    {
      "channel": 2,
      "note": 75,
      "start": 67.8026,
      "duration": 0.3814,
      "velocity": 94,
      "chip": "ym2612"
    },
    {
      "channel": 0,
      "note": 42,
      "start": 68.2021,
      "duration": 0.1817,
      "velocity": 127,
      "chip": "ym2612"
    },
    {
      "channel": 1,
      "note": 57,
      "start": 68.2024,
      "duration": 0.1815,
      "velocity": 102,
      "chip": "ym2612"
    },
    {
      "channel": 2,
      "note": 86,
      "start": 68.2026,
      "duration": 0.1814,
      "velocity": 94,
      "chip": "ym2612"
    },
    {
      "channel": 0,
      "note": 22,
      "start": 68.4006,
      "duration": 0.3832,
      "velocity": 127,
      "chip": "ym2612"
    },
    {
      "channel": 1,
      "note": 57,
      "start": 68.4009,
      "duration": 0.383,
      "velocity": 102,
      "chip": "ym2612"
    },
    {
      "channel": 0,
      "note": 22,
      "start": 68.8006,
      "duration": 0.1832,
      "velocity": 127,
      "chip": "ym2612"
    },
    {
      "channel": 1,
      "note": 57,
      "start": 68.8009,
      "duration": 0.183,
      "velocity": 102,
      "chip": "ym2612"
    },
    {
      "channel": 0,
      "note": 22,
      "start": 69.0022,
      "duration": 0.3816,
      "velocity": 127,
      "chip": "ym2612"
    },
    {
      "channel": 1,
      "note": 57,
      "start": 69.0024,
      "duration": 0.3815,
      "velocity": 102,
      "chip": "ym2612"
    },
    {
      "channel": 2,
      "note": 84,
      "start": 69.0027,
      "duration": 0.3814,
      "velocity": 94,
      "chip": "ym2612"
    },
    {
      "channel": 0,
      "note": 42,
      "start": 69.4022,
      "duration": 0.1816,
      "velocity": 127,
      "chip": "ym2612"
    },
    {
      "channel": 1,
      "note": 57,
      "start": 69.4024,
      "duration": 0.1815,
      "velocity": 102,
      "chip": "ym2612"
    },
    {
      "channel": 2,
      "note": 83,
      "start": 69.4027,
      "duration": 1.7813,
      "velocity": 94,
      "chip": "ym2612"
    },
    {
      "channel": 0,
      "note": 22,
      "start": 69.602,
      "duration": 0.3817,
      "velocity": 127,
      "chip": "ym2612"
    },
    {
      "channel": 1,
      "note": 57,
      "start": 69.6023,
      "duration": 0.3816,
      "velocity": 102,
      "chip": "ym2612"
    },
    {
      "channel": 0,
      "note": 22,
      "start": 70.0006,
      "duration": 0.1832,
      "velocity": 127,
      "chip": "ym2612"
    },
    {
      "channel": 1,
      "note": 57,
      "start": 70.0009,
      "duration": 0.183,
      "velocity": 102,
      "chip": "ym2612"
    },
    {
      "channel": 0,
      "note": 22,
      "start": 70.202,
      "duration": 0.3817,
      "velocity": 127,
      "chip": "ym2612"
    },
    {
      "channel": 1,
      "note": 57,
      "start": 70.2023,
      "duration": 0.3816,
      "velocity": 102,
      "chip": "ym2612"
    },
    {
      "channel": 0,
      "note": 42,
      "start": 70.602,
      "duration": 0.1817,
      "velocity": 127,
      "chip": "ym2612"
    },
    {
      "channel": 1,
      "note": 57,
      "start": 70.6023,
      "duration": 0.1816,
      "velocity": 102,
      "chip": "ym2612"
    },
    {
      "channel": 0,
      "note": 22,
      "start": 70.8006,
      "duration": 0.3832,
      "velocity": 127,
      "chip": "ym2612"
    },
    {
      "channel": 1,
      "note": 57,
      "start": 70.8009,
      "duration": 0.383,
      "velocity": 102,
      "chip": "ym2612"
    },
    {
      "channel": 0,
      "note": 22,
      "start": 71.2006,
      "duration": 0.1832,
      "velocity": 127,
      "chip": "ym2612"
    },
    {
      "channel": 1,
      "note": 57,
      "start": 71.2009,
      "duration": 0.183,
      "velocity": 102,
      "chip": "ym2612"
    },
    {
      "channel": 2,
      "note": 81,
      "start": 71.2012,
      "duration": 0.1829,
      "velocity": 94,
      "chip": "ym2612"
    },
    {
      "channel": 0,
      "note": 22,
      "start": 71.4021,
      "duration": 0.3817,
      "velocity": 127,
      "chip": "ym2612"
    },
    {
      "channel": 1,
      "note": 57,
      "start": 71.4024,
      "duration": 0.3815,
      "velocity": 102,
      "chip": "ym2612"
    },
    {
      "channel": 2,
      "note": 64,
      "start": 71.4026,
      "duration": 0.1813,
      "velocity": 94,
      "chip": "ym2612"
    },
    {
      "channel": 2,
      "note": 71,
      "start": 71.6005,
      "duration": 0.1834,
      "velocity": 94,
      "chip": "ym2612"
    },
    {
      "channel": 0,
      "note": 42,
      "start": 71.802,
      "duration": 0.1817,
      "velocity": 127,
      "chip": "ym2612"
    },
    {
      "channel": 1,
      "note": 57,
      "start": 71.8023,
      "duration": 0.1816,
      "velocity": 102,
      "chip": "ym2612"
    },
    {
      "channel": 2,
      "note": 74,
      "start": 71.8026,
      "duration": 0.1814,
      "velocity": 94,
      "chip": "ym2612"
    },
    {
      "channel": 0,
      "note": 22,
      "start": 72.002,
      "duration": 0.3817,
      "velocity": 127,
      "chip": "ym2612"
    },
    {
      "channel": 1,
      "note": 57,
      "start": 72.0023,
      "duration": 0.3816,
      "velocity": 102,
      "chip": "ym2612"
    },
    {
      "channel": 0,
      "note": 22,
      "start": 72.4006,
      "duration": 0.1832,
      "velocity": 127,
      "chip": "ym2612"
    },
    {
      "channel": 1,
      "note": 52,
      "start": 72.4009,
      "duration": 0.183,
      "velocity": 102,
      "chip": "ym2612"
    },
    {
      "channel": 0,
      "note": 22,
      "start": 72.6021,
      "duration": 0.3817,
      "velocity": 127,
      "chip": "ym2612"
    },
    {
      "channel": 1,
      "note": 52,
      "start": 72.6024,
      "duration": 0.3816,
      "velocity": 102,
      "chip": "ym2612"
    },
    {
      "channel": 2,
      "note": 75,
      "start": 72.6026,
      "duration": 0.3814,
      "velocity": 94,
      "chip": "ym2612"
    },
    {
      "channel": 0,
      "note": 42,
      "start": 73.0021,
      "duration": 0.1817,
      "velocity": 127,
      "chip": "ym2612"
    },
    {
      "channel": 1,
      "note": 52,
      "start": 73.0024,
      "duration": 0.1816,
      "velocity": 102,
      "chip": "ym2612"
    },
    {
      "channel": 2,
      "note": 81,
      "start": 73.0026,
      "duration": 0.1814,
      "velocity": 94,
      "chip": "ym2612"
    },
    {
      "channel": 0,
      "note": 22,
      "start": 73.2006,
      "duration": 0.3832,
      "velocity": 127,
      "chip": "ym2612"
    },
    {
      "channel": 1,
      "note": 52,
      "start": 73.2009,
      "duration": 0.383,
      "velocity": 102,
      "chip": "ym2612"
    },
    {
      "channel": 0,
      "note": 22,
      "start": 73.6006,
      "duration": 0.1832,
      "velocity": 127,
      "chip": "ym2612"
    },
    {
      "channel": 1,
      "note": 52,
      "start": 73.6009,
      "duration": 0.183,
      "velocity": 102,
      "chip": "ym2612"
    },
    {
      "channel": 0,
      "note": 22,
      "start": 73.8021,
      "duration": 0.3817,
      "velocity": 127,
      "chip": "ym2612"
    },
    {
      "channel": 1,
      "note": 52,
      "start": 73.8024,
      "duration": 0.3816,
      "velocity": 102,
      "chip": "ym2612"
    },
    {
      "channel": 2,
      "note": 80,
      "start": 73.8026,
      "duration": 0.3814,
      "velocity": 94,
      "chip": "ym2612"
    },
    {
      "channel": 0,
      "note": 42,
      "start": 74.2021,
      "duration": 0.1817,
      "velocity": 127,
      "chip": "ym2612"
    },
    {
      "channel": 1,
      "note": 52,
      "start": 74.2024,
      "duration": 0.1816,
      "velocity": 102,
      "chip": "ym2612"
    },
    {
      "channel": 2,
      "note": 78,
      "start": 74.2026,
      "duration": 1.7814,
      "velocity": 94,
      "chip": "ym2612"
    },
    {
      "channel": 0,
      "note": 22,
      "start": 74.402,
      "duration": 0.3817,
      "velocity": 127,
      "chip": "ym2612"
    },
    {
      "channel": 1,
      "note": 52,
      "start": 74.4023,
      "duration": 0.3816,
      "velocity": 102,
      "chip": "ym2612"
    },
    {
      "channel": 0,
      "note": 22,
      "start": 74.8006,
      "duration": 0.1832,
      "velocity": 127,
      "chip": "ym2612"
    },
    {
      "channel": 1,
      "note": 52,
      "start": 74.8008,
      "duration": 0.1831,
      "velocity": 102,
      "chip": "ym2612"
    },
    {
      "channel": 0,
      "note": 22,
      "start": 75.002,
      "duration": 0.3817,
      "velocity": 127,
      "chip": "ym2612"
    },
    {
      "channel": 1,
      "note": 52,
      "start": 75.0023,
      "duration": 0.3816,
      "velocity": 102,
      "chip": "ym2612"
    },
    {
      "channel": 0,
      "note": 42,
      "start": 75.402,
      "duration": 0.1817,
      "velocity": 127,
      "chip": "ym2612"
    },
    {
      "channel": 1,
      "note": 52,
      "start": 75.4023,
      "duration": 0.1816,
      "velocity": 102,
      "chip": "ym2612"
    },
    {
      "channel": 0,
      "note": 22,
      "start": 75.6007,
      "duration": 0.3831,
      "velocity": 127,
      "chip": "ym2612"
    },
    {
      "channel": 1,
      "note": 52,
      "start": 75.601,
      "duration": 0.3829,
      "velocity": 102,
      "chip": "ym2612"
    },
    {
      "channel": 0,
      "note": 22,
      "start": 76.0006,
      "duration": 0.1832,
      "velocity": 127,
      "chip": "ym2612"
    },
    {
      "channel": 1,
      "note": 52,
      "start": 76.0009,
      "duration": 0.183,
      "velocity": 102,
      "chip": "ym2612"
    },
    {
      "channel": 2,
      "note": 76,
      "start": 76.0012,
      "duration": 0.1828,
      "velocity": 94,
      "chip": "ym2612"
    },
    {
      "channel": 0,
      "note": 22,
      "start": 76.2021,
      "duration": 0.3816,
      "velocity": 127,
      "chip": "ym2612"
    },
    {
      "channel": 1,
      "note": 52,
      "start": 76.2024,
      "duration": 0.3815,
      "velocity": 102,
      "chip": "ym2612"
    },
    {
      "channel": 2,
      "note": 64,
      "start": 76.2026,
      "duration": 0.1813,
      "velocity": 94,
      "chip": "ym2612"
    },
    {
      "channel": 2,
      "note": 71,
      "start": 76.4005,
      "duration": 0.1834,
      "velocity": 94,
      "chip": "ym2612"
    },
    {
      "channel": 0,
      "note": 42,
      "start": 76.602,
      "duration": 0.1817,
      "velocity": 127,
      "chip": "ym2612"
    },
    {
      "channel": 1,
      "note": 52,
      "start": 76.6023,
      "duration": 0.1816,
      "velocity": 102,
      "chip": "ym2612"
    },
    {
      "channel": 2,
      "note": 74,
      "start": 76.6026,
      "duration": 0.1814,
      "velocity": 94,
      "chip": "ym2612"
    },
    {
      "channel": 0,
      "note": 22,
      "start": 76.802,
      "duration": 0.3817,
      "velocity": 127,
      "chip": "ym2612"
    },
    {
      "channel": 1,
      "note": 52,
      "start": 76.8023,
      "duration": 0.3816,
      "velocity": 102,
      "chip": "ym2612"
    },
    {
      "channel": 0,
      "note": 22,
      "start": 77.2006,
      "duration": 0.1832,
      "velocity": 127,
      "chip": "ym2612"
    },
    {
      "channel": 1,
      "note": 62,
      "start": 77.2008,
      "duration": 0.1831,
      "velocity": 102,
      "chip": "ym2612"
    },
    {
      "channel": 0,
      "note": 22,
      "start": 77.4021,
      "duration": 0.3817,
      "velocity": 127,
      "chip": "ym2612"
    },
    {
      "channel": 1,
      "note": 62,
      "start": 77.4024,
      "duration": 0.3816,
      "velocity": 102,
      "chip": "ym2612"
    },
    {
      "channel": 2,
      "note": 75,
      "start": 77.4026,
      "duration": 0.3814,
      "velocity": 94,
      "chip": "ym2612"
    },
    {
      "channel": 0,
      "note": 42,
      "start": 77.8006,
      "duration": 0.3832,
      "velocity": 127,
      "chip": "ym2612"
    },
    {
      "channel": 1,
      "note": 62,
      "start": 77.8009,
      "duration": 0.5829,
      "velocity": 102,
      "chip": "ym2612"
    },
    {
      "channel": 2,
      "note": 91,
      "start": 77.8012,
      "duration": 1.3828,
      "velocity": 94,
      "chip": "ym2612"
    },
    {
      "channel": 0,
      "note": 42,
      "start": 78.4006,
      "duration": 0.1832,
      "velocity": 127,
      "chip": "ym2612"
    },
    {
      "channel": 1,
      "note": 62,
      "start": 78.4008,
      "duration": 0.1831,
      "velocity": 102,
      "chip": "ym2612"
    },
    {
      "channel": 0,
      "note": 22,
      "start": 78.602,
      "duration": 0.3817,
      "velocity": 127,
      "chip": "ym2612"
    },
    {
      "channel": 1,
      "note": 62,
      "start": 78.6023,
      "duration": 0.3816,
      "velocity": 102,
      "chip": "ym2612"
    },
    {
      "channel": 0,
      "note": 42,
      "start": 79.002,
      "duration": 0.1817,
      "velocity": 127,
      "chip": "ym2612"
    },
    {
      "channel": 1,
      "note": 62,
      "start": 79.0023,
      "duration": 0.1816,
      "velocity": 102,
      "chip": "ym2612"
    },
    {
      "channel": 0,
      "note": 22,
      "start": 79.2021,
      "duration": 0.1817,
      "velocity": 127,
      "chip": "ym2612"
    },
    {
      "channel": 1,
      "note": 62,
      "start": 79.2024,
      "duration": 0.3816,
      "velocity": 102,
      "chip": "ym2612"
    },
    {
      "channel": 2,
      "note": 90,
      "start": 79.2026,
      "duration": 0.5814,
      "velocity": 94,
      "chip": "ym2612"
    },
    {
      "channel": 0,
      "note": 42,
      "start": 79.4006,
      "duration": 0.1832,
      "velocity": 127,
      "chip": "ym2612"
    },
    {
      "channel": 0,
      "note": 42,
      "start": 79.6006,
      "duration": 0.1832,
      "velocity": 127,
      "chip": "ym2612"
    },
    {
      "channel": 1,
      "note": 57,
      "start": 79.6009,
      "duration": 0.183,
      "velocity": 102,
      "chip": "ym2612"
    },
    {
      "channel": 0,
      "note": 42,
      "start": 79.8007,
      "duration": 0.3831,
      "velocity": 127,
      "chip": "ym2612"
    },
    {
      "channel": 1,
      "note": 57,
      "start": 79.801,
      "duration": 0.383,
      "velocity": 102,
      "chip": "ym2612"
    },
    {
      "channel": 0,
      "note": 42,
      "start": 80.2007,
      "duration": 0.5831,
      "velocity": 127,
      "chip": "ym2612"
    },
    {
      "channel": 1,
      "note": 57,
      "start": 80.201,
      "duration": 0.583,
      "velocity": 102,
      "chip": "ym2612"
    },
    {
      "channel": 2,
      "note": 86,
      "start": 80.2012,
      "duration": 0.7827,
      "velocity": 94,
      "chip": "ym2612"
    },
    {
      "channel": 0,
      "note": 42,
      "start": 80.8021,
      "duration": 0.1817,
      "velocity": 127,
      "chip": "ym2612"
    },
    {
      "channel": 1,
      "note": 57,
      "start": 80.8024,
      "duration": 0.1816,
      "velocity": 102,
      "chip": "ym2612"
    },
    {
      "channel": 0,
      "note": 22,
      "start": 81.0021,
      "duration": 0.3817,
      "velocity": 127,
      "chip": "ym2612"
    },
    {
      "channel": 1,
      "note": 57,
      "start": 81.0024,
      "duration": 0.3816,
      "velocity": 102,
      "chip": "ym2612"
    },
    {
      "channel": 2,
      "note": 85,
      "start": 81.0026,
      "duration": 0.3814,
      "velocity": 94,
      "chip": "ym2612"
    },
    {
      "channel": 0,
      "note": 42,
      "start": 81.4021,
      "duration": 0.1817,
      "velocity": 127,
      "chip": "ym2612"
    },
    {
      "channel": 1,
      "note": 57,
      "start": 81.4024,
      "duration": 0.1815,
      "velocity": 102,
      "chip": "ym2612"
    },
    {
      "channel": 0,
      "note": 22,
      "start": 81.6022,
      "duration": 0.3815,
      "velocity": 127,
      "chip": "ym2612"
    },
    {
      "channel": 1,
      "note": 57,
      "start": 81.6025,
      "duration": 0.3814,
      "velocity": 102,
      "chip": "ym2612"
    },
    {
      "channel": 2,
      "note": 86,
      "start": 81.6027,
      "duration": 2.3813,
      "velocity": 94,
      "chip": "ym2612"
    },
    {
      "channel": 0,
      "note": 22,
      "start": 82.0006,
      "duration": 0.1832,
      "velocity": 127,
      "chip": "ym2612"
    },
    {
      "channel": 1,
      "note": 52,
      "start": 82.0008,
      "duration": 0.1831,
      "velocity": 102,
      "chip": "ym2612"
    },
    {
      "channel": 0,
      "note": 22,
      "start": 82.202,
      "duration": 0.3817,
      "velocity": 127,
      "chip": "ym2612"
    },
    {
      "channel": 1,
      "note": 52,
      "start": 82.2023,
      "duration": 0.3816,
      "velocity": 102,
      "chip": "ym2612"
    },
    {
      "channel": 0,
      "note": 42,
      "start": 82.602,
      "duration": 0.1817,
      "velocity": 127,
      "chip": "ym2612"
    },
    {
      "channel": 1,
      "note": 52,
      "start": 82.6023,
      "duration": 0.1816,
      "velocity": 102,
      "chip": "ym2612"
    },
    {
      "channel": 0,
      "note": 22,
      "start": 82.8006,
      "duration": 0.3832,
      "velocity": 127,
      "chip": "ym2612"
    },
    {
      "channel": 1,
      "note": 52,
      "start": 82.8008,
      "duration": 0.3831,
      "velocity": 102,
      "chip": "ym2612"
    },
    {
      "channel": 0,
      "note": 22,
      "start": 83.2006,
      "duration": 0.1832,
      "velocity": 127,
      "chip": "ym2612"
    },
    {
      "channel": 1,
      "note": 52,
      "start": 83.2008,
      "duration": 0.1831,
      "velocity": 102,
      "chip": "ym2612"
    },
    {
      "channel": 0,
      "note": 22,
      "start": 83.402,
      "duration": 0.3817,
      "velocity": 127,
      "chip": "ym2612"
    },
    {
      "channel": 1,
      "note": 52,
      "start": 83.4023,
      "duration": 0.3816,
      "velocity": 102,
      "chip": "ym2612"
    },
    {
      "channel": 0,
      "note": 42,
      "start": 83.8022,
      "duration": 0.1816,
      "velocity": 127,
      "chip": "ym2612"
    },
    {
      "channel": 1,
      "note": 52,
      "start": 83.8024,
      "duration": 0.1815,
      "velocity": 102,
      "chip": "ym2612"
    },
    {
      "channel": 0,
      "note": 22,
      "start": 84.0022,
      "duration": 0.3815,
      "velocity": 127,
      "chip": "ym2612"
    },
    {
      "channel": 1,
      "note": 52,
      "start": 84.0024,
      "duration": 0.3814,
      "velocity": 102,
      "chip": "ym2612"
    },
    {
      "channel": 2,
      "note": 88,
      "start": 84.0027,
      "duration": 0.1812,
      "velocity": 94,
      "chip": "ym2612"
    },
    {
      "channel": 2,
      "note": 86,
      "start": 84.2005,
      "duration": 0.1834,
      "velocity": 94,
      "chip": "ym2612"
    },
    {
      "channel": 0,
      "note": 22,
      "start": 84.4006,
      "duration": 0.1832,
      "velocity": 127,
      "chip": "ym2612"
    },
    {
      "channel": 1,
      "note": 52,
      "start": 84.4009,
      "duration": 0.183,
      "velocity": 102,
      "chip": "ym2612"
    },
    {
      "channel": 2,
      "note": 83,
      "start": 84.4012,
      "duration": 0.1828,
      "velocity": 94,
      "chip": "ym2612"
    },
    {
      "channel": 0,
      "note": 22,
      "start": 84.6021,
      "duration": 0.3817,
      "velocity": 127,
      "chip": "ym2612"
    },
    {
      "channel": 1,
      "note": 52,
      "start": 84.6024,
      "duration": 0.3816,
      "velocity": 102,
      "chip": "ym2612"
    },
    {
      "channel": 2,
      "note": 86,
      "start": 84.6026,
      "duration": 0.1812,
      "velocity": 94,
      "chip": "ym2612"
    },
    {
      "channel": 2,
      "note": 83,
      "start": 84.8006,
      "duration": 0.1834,
      "velocity": 94,
      "chip": "ym2612"
    },
    {
      "channel": 0,
      "note": 42,
      "start": 85.0021,
      "duration": 0.1816,
      "velocity": 127,
      "chip": "ym2612"
    },
    {
      "channel": 1,
      "note": 52,
      "start": 85.0024,
      "duration": 0.1815,
      "velocity": 102,
      "chip": "ym2612"
    },
    {
      "channel": 2,
      "note": 86,
      "start": 85.0026,
      "duration": 0.1814,
      "velocity": 94,
      "chip": "ym2612"
    },
    {
      "channel": 0,
      "note": 22,
      "start": 85.202,
      "duration": 0.1817,
      "velocity": 127,
      "chip": "ym2612"
    },
    {
      "channel": 1,
      "note": 52,
      "start": 85.2023,
      "duration": 0.3816,
      "velocity": 102,
      "chip": "ym2612"
    },
    {
      "channel": 2,
      "note": 83,
      "start": 85.2026,
      "duration": 0.1814,
      "velocity": 94,
      "chip": "ym2612"
    },
    {
      "channel": 0,
      "note": 42,
      "start": 85.4006,
      "duration": 0.1832,
      "velocity": 127,
      "chip": "ym2612"
    },
    {
      "channel": 2,
      "note": 86,
      "start": 85.4009,
      "duration": 0.1831,
      "velocity": 94,
      "chip": "ym2612"
    },
    {
      "channel": 0,
      "note": 42,
      "start": 85.6006,
      "duration": 0.1832,
      "velocity": 127,
      "chip": "ym2612"
    },
    {
      "channel": 1,
      "note": 52,
      "start": 85.6009,
      "duration": 0.183,
      "velocity": 102,
      "chip": "ym2612"
    },
    {
      "channel": 2,
      "note": 83,
      "start": 85.6012,
      "duration": 0.1829,
      "velocity": 94,
      "chip": "ym2612"
    },
    {
      "channel": 0,
      "note": 42,
      "start": 85.8005,
      "duration": 0.1833,
      "velocity": 127,
      "chip": "ym2612"
    },
    {
      "channel": 1,
      "note": 52,
      "start": 85.8008,
      "duration": 0.3832,
      "velocity": 102,
      "chip": "ym2612"
    },
    {
      "channel": 2,
      "note": 86,
      "start": 85.801,
      "duration": 0.1829,
      "velocity": 94,
      "chip": "ym2612"
    },
    {
      "channel": 0,
      "note": 42,
      "start": 86.0005,
      "duration": 0.1834,
      "velocity": 127,
      "chip": "ym2612"
    },
    {
      "channel": 2,
      "note": 83,
      "start": 86.0008,
      "duration": 0.1833,
      "velocity": 94,
      "chip": "ym2612"
    },
    {
      "channel": 0,
      "note": 42,
      "start": 86.2006,
      "duration": 0.1832,
      "velocity": 127,
      "chip": "ym2612"
    },
    {
      "channel": 1,
      "note": 52,
      "start": 86.2009,
      "duration": 0.183,
      "velocity": 102,
      "chip": "ym2612"
    },
    {
      "channel": 2,
      "note": 86,
      "start": 86.2012,
      "duration": 0.1828,
      "velocity": 94,
      "chip": "ym2612"
    },
    {
      "channel": 0,
      "note": 42,
      "start": 86.4022,
      "duration": 0.3815,
      "velocity": 127,
      "chip": "ym2612"
    },
    {
      "channel": 1,
      "note": 52,
      "start": 86.4039,
      "duration": 0.38,
      "velocity": 102,
      "chip": "ym2612"
    },
    {
      "channel": 0,
      "note": 22,
      "start": 86.8006,
      "duration": 0.1832,
      "velocity": 127,
      "chip": "ym2612"
    },
    {
      "channel": 1,
      "note": 52,
      "start": 86.8008,
      "duration": 0.1831,
      "velocity": 102,
      "chip": "ym2612"
    },
    {
      "channel": 0,
      "note": 22,
      "start": 87.0021,
      "duration": 0.3817,
      "velocity": 127,
      "chip": "ym2612"
    },
    {
      "channel": 1,
      "note": 52,
      "start": 87.0024,
      "duration": 0.3816,
      "velocity": 102,
      "chip": "ym2612"
    },
    {
      "channel": 2,
      "note": 82,
      "start": 87.0026,
      "duration": 0.3814,
      "velocity": 94,
      "chip": "ym2612"
    },
    {
      "channel": 0,
      "note": 42,
      "start": 87.4021,
      "duration": 0.1817,
      "velocity": 127,
      "chip": "ym2612"
    },
    {
      "channel": 1,
      "note": 52,
      "start": 87.4024,
      "duration": 0.1815,
      "velocity": 102,
      "chip": "ym2612"
    },
    {
      "channel": 2,
      "note": 93,
      "start": 87.4026,
      "duration": 0.1814,
      "velocity": 94,
      "chip": "ym2612"
    },
    {
      "channel": 0,
      "note": 22,
      "start": 87.6006,
      "duration": 0.3832,
      "velocity": 127,
      "chip": "ym2612"
    },
    {
      "channel": 1,
      "note": 52,
      "start": 87.6009,
      "duration": 0.383,
      "velocity": 102,
      "chip": "ym2612"
    },
    {
      "channel": 0,
      "note": 22,
      "start": 88.0006,
      "duration": 0.1832,
      "velocity": 127,
      "chip": "ym2612"
    },
    {
      "channel": 1,
      "note": 52,
      "start": 88.0008,
      "duration": 0.1831,
      "velocity": 102,
      "chip": "ym2612"
    },
    {
      "channel": 0,
      "note": 22,
      "start": 88.2021,
      "duration": 0.3817,
      "velocity": 127,
      "chip": "ym2612"
    },
    {
      "channel": 1,
      "note": 52,
      "start": 88.2024,
      "duration": 0.3816,
      "velocity": 102,
      "chip": "ym2612"
    },
    {
      "channel": 2,
      "note": 92,
      "start": 88.2026,
      "duration": 0.3814,
      "velocity": 94,
      "chip": "ym2612"
    },
    {
      "channel": 0,
      "note": 42,
      "start": 88.6021,
      "duration": 0.1817,
      "velocity": 127,
      "chip": "ym2612"
    },
    {
      "channel": 1,
      "note": 52,
      "start": 88.6024,
      "duration": 0.1815,
      "velocity": 102,
      "chip": "ym2612"
    },
    {
      "channel": 2,
      "note": 90,
      "start": 88.6026,
      "duration": 1.7814,
      "velocity": 94,
      "chip": "ym2612"
    },
    {
      "channel": 0,
      "note": 22,
      "start": 88.8022,
      "duration": 0.3815,
      "velocity": 127,
      "chip": "ym2612"
    },
    {
      "channel": 1,
      "note": 52,
      "start": 88.8024,
      "duration": 0.3814,
      "velocity": 102,
      "chip": "ym2612"
    },
    {
      "channel": 0,
      "note": 22,
      "start": 89.2006,
      "duration": 0.1832,
      "velocity": 127,
      "chip": "ym2612"
    },
    {
      "channel": 1,
      "note": 52,
      "start": 89.2008,
      "duration": 0.1831,
      "velocity": 102,
      "chip": "ym2612"
    },
    {
      "channel": 0,
      "note": 22,
      "start": 89.402,
      "duration": 0.3817,
      "velocity": 127,
      "chip": "ym2612"
    },
    {
      "channel": 1,
      "note": 52,
      "start": 89.4023,
      "duration": 0.3816,
      "velocity": 102,
      "chip": "ym2612"
    },
    {
      "channel": 0,
      "note": 42,
      "start": 89.802,
      "duration": 0.1817,
      "velocity": 127,
      "chip": "ym2612"
    },
    {
      "channel": 1,
      "note": 52,
      "start": 89.8023,
      "duration": 0.1816,
      "velocity": 102,
      "chip": "ym2612"
    },
    {
      "channel": 0,
      "note": 22,
      "start": 90.0006,
      "duration": 0.3832,
      "velocity": 127,
      "chip": "ym2612"
    },
    {
      "channel": 1,
      "note": 52,
      "start": 90.0009,
      "duration": 0.383,
      "velocity": 102,
      "chip": "ym2612"
    },
    {
      "channel": 0,
      "note": 22,
      "start": 90.4007,
      "duration": 0.1831,
      "velocity": 127,
      "chip": "ym2612"
    },
    {
      "channel": 1,
      "note": 52,
      "start": 90.401,
      "duration": 0.183,
      "velocity": 102,
      "chip": "ym2612"
    },
    {
      "channel": 2,
      "note": 88,
      "start": 90.4012,
      "duration": 0.1828,
      "velocity": 94,
      "chip": "ym2612"
    },
    {
      "channel": 0,
      "note": 22,
      "start": 90.6021,
      "duration": 0.3817,
      "velocity": 127,
      "chip": "ym2612"
    },
    {
      "channel": 1,
      "note": 52,
      "start": 90.6024,
      "duration": 0.3816,
      "velocity": 102,
      "chip": "ym2612"
    },
    {
      "channel": 2,
      "note": 76,
      "start": 90.6026,
      "duration": 0.1813,
      "velocity": 94,
      "chip": "ym2612"
    },
    {
      "channel": 2,
      "note": 83,
      "start": 90.8005,
      "duration": 0.1836,
      "velocity": 94,
      "chip": "ym2612"
    },
    {
      "channel": 0,
      "note": 42,
      "start": 91.0022,
      "duration": 0.1817,
      "velocity": 127,
      "chip": "ym2612"
    },
    {
      "channel": 1,
      "note": 52,
      "start": 91.0024,
      "duration": 0.1815,
      "velocity": 102,
      "chip": "ym2612"
    },
    {
      "channel": 2,
      "note": 86,
      "start": 91.0027,
      "duration": 0.1814,
      "velocity": 94,
      "chip": "ym2612"
    },
    {
      "channel": 0,
      "note": 22,
      "start": 91.2022,
      "duration": 0.3816,
      "velocity": 127,
      "chip": "ym2612"
    },
    {
      "channel": 1,
      "note": 52,
      "start": 91.2024,
      "duration": 0.3815,
      "velocity": 102,
      "chip": "ym2612"
    },
    {
      "channel": 0,
      "note": 22,
      "start": 91.6006,
      "duration": 0.1832,
      "velocity": 127,
      "chip": "ym2612"
    },
    {
      "channel": 1,
      "note": 52,
      "start": 91.6008,
      "duration": 0.1831,
      "velocity": 102,
      "chip": "ym2612"
    },
    {
      "channel": 0,
      "note": 22,
      "start": 91.8021,
      "duration": 0.3817,
      "velocity": 127,
      "chip": "ym2612"
    },
    {
      "channel": 1,
      "note": 52,
      "start": 91.8024,
      "duration": 0.3816,
      "velocity": 102,
      "chip": "ym2612"
    },
    {
      "channel": 2,
      "note": 87,
      "start": 91.8026,
      "duration": 0.3814,
      "velocity": 94,
      "chip": "ym2612"
    },
    {
      "channel": 0,
      "note": 42,
      "start": 92.2021,
      "duration": 0.1817,
      "velocity": 127,
      "chip": "ym2612"
    },
    {
      "channel": 1,
      "note": 52,
      "start": 92.2024,
      "duration": 0.1815,
      "velocity": 102,
      "chip": "ym2612"
    },
    {
      "channel": 2,
      "note": 93,
      "start": 92.2026,
      "duration": 0.1814,
      "velocity": 94,
      "chip": "ym2612"
    },
    {
      "channel": 0,
      "note": 22,
      "start": 92.4006,
      "duration": 0.3832,
      "velocity": 127,
      "chip": "ym2612"
    },
    {
      "channel": 1,
      "note": 52,
      "start": 92.4009,
      "duration": 0.383,
      "velocity": 102,
      "chip": "ym2612"
    },
    {
      "channel": 0,
      "note": 22,
      "start": 92.8006,
      "duration": 0.1832,
      "velocity": 127,
      "chip": "ym2612"
    },
    {
      "channel": 1,
      "note": 52,
      "start": 92.8009,
      "duration": 0.183,
      "velocity": 102,
      "chip": "ym2612"
    },
    {
      "channel": 0,
      "note": 22,
      "start": 93.0021,
      "duration": 0.3817,
      "velocity": 127,
      "chip": "ym2612"
    },
    {
      "channel": 1,
      "note": 52,
      "start": 93.0024,
      "duration": 0.3816,
      "velocity": 102,
      "chip": "ym2612"
    },
    {
      "channel": 2,
      "note": 92,
      "start": 93.0026,
      "duration": 0.3814,
      "velocity": 94,
      "chip": "ym2612"
    },
    {
      "channel": 0,
      "note": 42,
      "start": 93.4021,
      "duration": 0.1817,
      "velocity": 127,
      "chip": "ym2612"
    },
    {
      "channel": 1,
      "note": 52,
      "start": 93.4024,
      "duration": 0.1815,
      "velocity": 102,
      "chip": "ym2612"
    },
    {
      "channel": 2,
      "note": 90,
      "start": 93.4026,
      "duration": 1.7814,
      "velocity": 94,
      "chip": "ym2612"
    },
    {
      "channel": 0,
      "note": 22,
      "start": 93.6022,
      "duration": 0.3816,
      "velocity": 127,
      "chip": "ym2612"
    },
    {
      "channel": 1,
      "note": 52,
      "start": 93.6024,
      "duration": 0.3815,
      "velocity": 102,
      "chip": "ym2612"
    },
    {
      "channel": 0,
      "note": 22,
      "start": 94.0006,
      "duration": 0.1832,
      "velocity": 127,
      "chip": "ym2612"
    },
    {
      "channel": 1,
      "note": 52,
      "start": 94.0009,
      "duration": 0.183,
      "velocity": 102,
      "chip": "ym2612"
    },
    {
      "channel": 0,
      "note": 22,
      "start": 94.202,
      "duration": 0.3817,
      "velocity": 127,
      "chip": "ym2612"
    },
    {
      "channel": 1,
      "note": 52,
      "start": 94.2023,
      "duration": 0.3816,
      "velocity": 102,
      "chip": "ym2612"
    },
    {
      "channel": 0,
      "note": 42,
      "start": 94.602,
      "duration": 0.1817,
      "velocity": 127,
      "chip": "ym2612"
    },
    {
      "channel": 1,
      "note": 52,
      "start": 94.6023,
      "duration": 0.1816,
      "velocity": 102,
      "chip": "ym2612"
    },
    {
      "channel": 0,
      "note": 22,
      "start": 94.8006,
      "duration": 0.3832,
      "velocity": 127,
      "chip": "ym2612"
    },
    {
      "channel": 1,
      "note": 52,
      "start": 94.8008,
      "duration": 0.3831,
      "velocity": 102,
      "chip": "ym2612"
    },
    {
      "channel": 0,
      "note": 22,
      "start": 95.2007,
      "duration": 0.1831,
      "velocity": 127,
      "chip": "ym2612"
    },
    {
      "channel": 1,
      "note": 52,
      "start": 95.201,
      "duration": 0.183,
      "velocity": 102,
      "chip": "ym2612"
    },
    {
      "channel": 2,
      "note": 88,
      "start": 95.2012,
      "duration": 0.1828,
      "velocity": 94,
      "chip": "ym2612"
    },
    {
      "channel": 0,
      "note": 22,
      "start": 95.4021,
      "duration": 0.3817,
      "velocity": 127,
      "chip": "ym2612"
    },
    {
      "channel": 1,
      "note": 52,
      "start": 95.4024,
      "duration": 0.3816,
      "velocity": 102,
      "chip": "ym2612"
    },
    {
      "channel": 2,
      "note": 76,
      "start": 95.4026,
      "duration": 0.1813,
      "velocity": 94,
      "chip": "ym2612"
    },
    {
      "channel": 2,
      "note": 83,
      "start": 95.6005,
      "duration": 0.1836,
      "velocity": 94,
      "chip": "ym2612"
    },
    {
      "channel": 0,
      "note": 42,
      "start": 95.8022,
      "duration": 0.1817,
      "velocity": 127,
      "chip": "ym2612"
    },
    {
      "channel": 1,
      "note": 52,
      "start": 95.8024,
      "duration": 0.1815,
      "velocity": 102,
      "chip": "ym2612"
    },
    {
      "channel": 2,
      "note": 86,
      "start": 95.8027,
      "duration": 0.1814,
      "velocity": 94,
      "chip": "ym2612"
    },
    {
      "channel": 0,
      "note": 22,
      "start": 96.0022,
      "duration": 0.3816,
      "velocity": 127,
      "chip": "ym2612"
    },
    {
      "channel": 1,
      "note": 52,
      "start": 96.0024,
      "duration": 0.3815,
      "velocity": 102,
      "chip": "ym2612"
    },
    {
      "channel": 0,
      "note": 22,
      "start": 96.4006,
      "duration": 0.1832,
      "velocity": 127,
      "chip": "ym2612"
    },
    {
      "channel": 1,
      "note": 57,
      "start": 96.4009,
      "duration": 0.183,
      "velocity": 102,
      "chip": "ym2612"
    },
    {
      "channel": 0,
      "note": 22,
      "start": 96.6021,
      "duration": 0.3817,
      "velocity": 127,
      "chip": "ym2612"
    },
    {
      "channel": 1,
      "note": 57,
      "start": 96.6024,
      "duration": 0.3816,
      "velocity": 102,
      "chip": "ym2612"
    },
    {
      "channel": 2,
      "note": 87,
      "start": 96.6026,
      "duration": 0.3814,
      "velocity": 94,
      "chip": "ym2612"
    },
    {
      "channel": 0,
      "note": 42,
      "start": 97.0021,
      "duration": 0.1817,
      "velocity": 127,
      "chip": "ym2612"
    },
    {
      "channel": 1,
      "note": 57,
      "start": 97.0024,
      "duration": 0.1816,
      "velocity": 102,
      "chip": "ym2612"
    },
    {
      "channel": 2,
      "note": 98,
      "start": 97.0026,
      "duration": 0.1814,
      "velocity": 94,
      "chip": "ym2612"
    },
    {
      "channel": 0,
      "note": 22,
      "start": 97.2006,
      "duration": 0.3832,
      "velocity": 127,
      "chip": "ym2612"
    },
    {
      "channel": 1,
      "note": 57,
      "start": 97.2009,
      "duration": 0.383,
      "velocity": 102,
      "chip": "ym2612"
    },
    {
      "channel": 0,
      "note": 22,
      "start": 97.6006,
      "duration": 0.1832,
      "velocity": 127,
      "chip": "ym2612"
    },
    {
      "channel": 1,
      "note": 57,
      "start": 97.6009,
      "duration": 0.183,
      "velocity": 102,
      "chip": "ym2612"
    },
    {
      "channel": 0,
      "note": 22,
      "start": 97.8022,
      "duration": 0.3816,
      "velocity": 127,
      "chip": "ym2612"
    },
    {
      "channel": 1,
      "note": 57,
      "start": 97.8024,
      "duration": 0.3815,
      "velocity": 102,
      "chip": "ym2612"
    },
    {
      "channel": 2,
      "note": 96,
      "start": 97.8027,
      "duration": 0.3814,
      "velocity": 94,
      "chip": "ym2612"
    },
    {
      "channel": 0,
      "note": 42,
      "start": 98.2022,
      "duration": 0.1816,
      "velocity": 127,
      "chip": "ym2612"
    },
    {
      "channel": 1,
      "note": 57,
      "start": 98.2024,
      "duration": 0.1815,
      "velocity": 102,
      "chip": "ym2612"
    },
    {
      "channel": 2,
      "note": 95,
      "start": 98.2027,
      "duration": 1.7813,
      "velocity": 94,
      "chip": "ym2612"
    },
    {
      "channel": 0,
      "note": 22,
      "start": 98.402,
      "duration": 0.3817,
      "velocity": 127,
      "chip": "ym2612"
    },
    {
      "channel": 1,
      "note": 57,
      "start": 98.4023,
      "duration": 0.3816,
      "velocity": 102,
      "chip": "ym2612"
    },
    {
      "channel": 0,
      "note": 22,
      "start": 98.8006,
      "duration": 0.1832,
      "velocity": 127,
      "chip": "ym2612"
    },
    {
      "channel": 1,
      "note": 57,
      "start": 98.8008,
      "duration": 0.1831,
      "velocity": 102,
      "chip": "ym2612"
    },
    {
      "channel": 0,
      "note": 22,
      "start": 99.002,
      "duration": 0.3817,
      "velocity": 127,
      "chip": "ym2612"
    },
    {
      "channel": 1,
      "note": 57,
      "start": 99.0023,
      "duration": 0.3816,
      "velocity": 102,
      "chip": "ym2612"
    },
    {
      "channel": 0,
      "note": 42,
      "start": 99.402,
      "duration": 0.1817,
      "velocity": 127,
      "chip": "ym2612"
    },
    {
      "channel": 1,
      "note": 57,
      "start": 99.4023,
      "duration": 0.1816,
      "velocity": 102,
      "chip": "ym2612"
    },
    {
      "channel": 0,
      "note": 22,
      "start": 99.6006,
      "duration": 0.3832,
      "velocity": 127,
      "chip": "ym2612"
    },
    {
      "channel": 1,
      "note": 57,
      "start": 99.6008,
      "duration": 0.3831,
      "velocity": 102,
      "chip": "ym2612"
    },
    {
      "channel": 0,
      "note": 22,
      "start": 100.0006,
      "duration": 0.1832,
      "velocity": 127,
      "chip": "ym2612"
    },
    {
      "channel": 1,
      "note": 57,
      "start": 100.0009,
      "duration": 0.183,
      "velocity": 102,
      "chip": "ym2612"
    },
    {
      "channel": 2,
      "note": 93,
      "start": 100.0012,
      "duration": 0.1828,
      "velocity": 94,
      "chip": "ym2612"
    },
    {
      "channel": 0,
      "note": 22,
      "start": 100.2021,
      "duration": 0.3817,
      "velocity": 127,
      "chip": "ym2612"
    },
    {
      "channel": 1,
      "note": 57,
      "start": 100.2024,
      "duration": 0.3816,
      "velocity": 102,
      "chip": "ym2612"
    },
    {
      "channel": 2,
      "note": 76,
      "start": 100.2026,
      "duration": 0.1812,
      "velocity": 94,
      "chip": "ym2612"
    },
    {
      "channel": 2,
      "note": 83,
      "start": 100.4006,
      "duration": 0.1834,
      "velocity": 94,
      "chip": "ym2612"
    },
    {
      "channel": 0,
      "note": 42,
      "start": 100.6021,
      "duration": 0.1817,
      "velocity": 127,
      "chip": "ym2612"
    },
    {
      "channel": 1,
      "note": 57,
      "start": 100.6024,
      "duration": 0.1816,
      "velocity": 102,
      "chip": "ym2612"
    },
    {
      "channel": 2,
      "note": 86,
      "start": 100.6026,
      "duration": 0.1814,
      "velocity": 94,
      "chip": "ym2612"
    },
    {
      "channel": 0,
      "note": 22,
      "start": 100.8021,
      "duration": 0.3817,
      "velocity": 127,
      "chip": "ym2612"
    },
    {
      "channel": 1,
      "note": 57,
      "start": 100.8024,
      "duration": 0.3816,
      "velocity": 102,
      "chip": "ym2612"
    },
    {
      "channel": 0,
      "note": 22,
      "start": 101.2006,
      "duration": 0.1832,
      "velocity": 127,
      "chip": "ym2612"
    },
    {
      "channel": 1,
      "note": 52,
      "start": 101.2008,
      "duration": 0.1831,
      "velocity": 102,
      "chip": "ym2612"
    },
    {
      "channel": 0,
      "note": 22,
      "start": 101.4021,
      "duration": 0.3817,
      "velocity": 127,
      "chip": "ym2612"
    },
    {
      "channel": 1,
      "note": 52,
      "start": 101.4024,
      "duration": 0.3816,
      "velocity": 102,
      "chip": "ym2612"
    },
    {
      "channel": 2,
      "note": 87,
      "start": 101.4026,
      "duration": 0.3814,
      "velocity": 94,
      "chip": "ym2612"
    },
    {
      "channel": 0,
      "note": 42,
      "start": 101.8021,
      "duration": 0.1816,
      "velocity": 127,
      "chip": "ym2612"
    },
    {
      "channel": 1,
      "note": 52,
      "start": 101.8024,
      "duration": 0.1815,
      "velocity": 102,
      "chip": "ym2612"
    },
    {
      "channel": 2,
      "note": 93,
      "start": 101.8026,
      "duration": 0.1814,
      "velocity": 94,
      "chip": "ym2612"
    },
    {
      "channel": 0,
      "note": 22,
      "start": 102.0006,
      "duration": 0.3832,
      "velocity": 127,
      "chip": "ym2612"
    },
    {
      "channel": 1,
      "note": 52,
      "start": 102.0009,
      "duration": 0.383,
      "velocity": 102,
      "chip": "ym2612"
    },
    {
      "channel": 0,
      "note": 22,
      "start": 102.4006,
      "duration": 0.1832,
      "velocity": 127,
      "chip": "ym2612"
    },
    {
      "channel": 1,
      "note": 52,
      "start": 102.4009,
      "duration": 0.183,
      "velocity": 102,
      "chip": "ym2612"
    },
    {
      "channel": 0,
      "note": 22,
      "start": 102.6021,
      "duration": 0.3817,
      "velocity": 127,
      "chip": "ym2612"
    },
    {
      "channel": 1,
      "note": 52,
      "start": 102.6024,
      "duration": 0.3816,
      "velocity": 102,
      "chip": "ym2612"
    },
    {
      "channel": 2,
      "note": 92,
      "start": 102.6026,
      "duration": 0.3814,
      "velocity": 94,
      "chip": "ym2612"
    },
    {
      "channel": 0,
      "note": 42,
      "start": 103.0022,
      "duration": 0.1816,
      "velocity": 127,
      "chip": "ym2612"
    },
    {
      "channel": 1,
      "note": 52,
      "start": 103.0024,
      "duration": 0.1815,
      "velocity": 102,
      "chip": "ym2612"
    },
    {
      "channel": 2,
      "note": 90,
      "start": 103.0027,
      "duration": 1.7813,
      "velocity": 94,
      "chip": "ym2612"
    },
    {
      "channel": 0,
      "note": 22,
      "start": 103.202,
      "duration": 0.3817,
      "velocity": 127,
      "chip": "ym2612"
    },
    {
      "channel": 1,
      "note": 52,
      "start": 103.2023,
      "duration": 0.3816,
      "velocity": 102,
      "chip": "ym2612"
    },
    {
      "channel": 0,
      "note": 22,
      "start": 103.6006,
      "duration": 0.1832,
      "velocity": 127,
      "chip": "ym2612"
    },
    {
      "channel": 1,
      "note": 52,
      "start": 103.6008,
      "duration": 0.1831,
      "velocity": 102,
      "chip": "ym2612"
    },
    {
      "channel": 0,
      "note": 22,
      "start": 103.802,
      "duration": 0.3817,
      "velocity": 127,
      "chip": "ym2612"
    },
    {
      "channel": 1,
      "note": 52,
      "start": 103.8023,
      "duration": 0.3816,
      "velocity": 102,
      "chip": "ym2612"
    },
    {
      "channel": 0,
      "note": 42,
      "start": 104.2022,
      "duration": 0.1815,
      "velocity": 127,
      "chip": "ym2612"
    },
    {
      "channel": 1,
      "note": 52,
      "start": 104.2024,
      "duration": 0.1814,
      "velocity": 102,
      "chip": "ym2612"
    },
    {
      "channel": 0,
      "note": 22,
      "start": 104.4007,
      "duration": 0.3831,
      "velocity": 127,
      "chip": "ym2612"
    },
    {
      "channel": 1,
      "note": 52,
      "start": 104.401,
      "duration": 0.383,
      "velocity": 102,
      "chip": "ym2612"
    },
    {
      "channel": 0,
      "note": 22,
      "start": 104.8006,
      "duration": 0.1832,
      "velocity": 127,
      "chip": "ym2612"
    },
    {
      "channel": 1,
      "note": 52,
      "start": 104.8009,
      "duration": 0.183,
      "velocity": 102,
      "chip": "ym2612"
    },
    {
      "channel": 2,
      "note": 88,
      "start": 104.8012,
      "duration": 0.1828,
      "velocity": 94,
      "chip": "ym2612"
    },
    {
      "channel": 0,
      "note": 22,
      "start": 105.0021,
      "duration": 0.3817,
      "velocity": 127,
      "chip": "ym2612"
    },
    {
      "channel": 1,
      "note": 52,
      "start": 105.0024,
      "duration": 0.3816,
      "velocity": 102,
      "chip": "ym2612"
    },
    {
      "channel": 2,
      "note": 76,
      "start": 105.0026,
      "duration": 0.1812,
      "velocity": 94,
      "chip": "ym2612"
    },
    {
      "channel": 2,
      "note": 83,
      "start": 105.2006,
      "duration": 0.1834,
      "velocity": 94,
      "chip": "ym2612"
    },
    {
      "channel": 0,
      "note": 42,
      "start": 105.4021,
      "duration": 0.1817,
      "velocity": 127,
      "chip": "ym2612"
    },
    {
      "channel": 1,
      "note": 52,
      "start": 105.4024,
      "duration": 0.1816,
      "velocity": 102,
      "chip": "ym2612"
    },
    {
      "channel": 2,
      "note": 86,
      "start": 105.4026,
      "duration": 0.1814,
      "velocity": 94,
      "chip": "ym2612"
    },
    {
      "channel": 0,
      "note": 22,
      "start": 105.6021,
      "duration": 0.3817,
      "velocity": 127,
      "chip": "ym2612"
    },
    {
      "channel": 1,
      "note": 52,
      "start": 105.6024,
      "duration": 0.3816,
      "velocity": 102,
      "chip": "ym2612"
    },
    {
      "channel": 0,
      "note": 22,
      "start": 106.0006,
      "duration": 0.1832,
      "velocity": 127,
      "chip": "ym2612"
    },
    {
      "channel": 1,
      "note": 62,
      "start": 106.0008,
      "duration": 0.1831,
      "velocity": 102,
      "chip": "ym2612"
    },
    {
      "channel": 0,
      "note": 22,
      "start": 106.2021,
      "duration": 0.3817,
      "velocity": 127,
      "chip": "ym2612"
    },
    {
      "channel": 1,
      "note": 62,
      "start": 106.2024,
      "duration": 0.3816,
      "velocity": 102,
      "chip": "ym2612"
    },
    {
      "channel": 2,
      "note": 87,
      "start": 106.2026,
      "duration": 0.3814,
      "velocity": 94,
      "chip": "ym2612"
    },
    {
      "channel": 0,
      "note": 42,
      "start": 106.6007,
      "duration": 0.3831,
      "velocity": 127,
      "chip": "ym2612"
    },
    {
      "channel": 1,
      "note": 62,
      "start": 106.601,
      "duration": 0.5829,
      "velocity": 102,
      "chip": "ym2612"
    },
    {
      "channel": 2,
      "note": 103,
      "start": 106.6012,
      "duration": 1.3827,
      "velocity": 94,
      "chip": "ym2612"
    },
    {
      "channel": 0,
      "note": 42,
      "start": 107.2006,
      "duration": 0.1832,
      "velocity": 127,
      "chip": "ym2612"
    },
    {
      "channel": 1,
      "note": 62,
      "start": 107.2008,
      "duration": 0.1831,
      "velocity": 102,
      "chip": "ym2612"
    },
    {
      "channel": 0,
      "note": 22,
      "start": 107.402,
      "duration": 0.3817,
      "velocity": 127,
      "chip": "ym2612"
    },
    {
      "channel": 1,
      "note": 62,
      "start": 107.4023,
      "duration": 0.3816,
      "velocity": 102,
      "chip": "ym2612"
    },
    {
      "channel": 0,
      "note": 42,
      "start": 107.802,
      "duration": 0.1817,
      "velocity": 127,
      "chip": "ym2612"
    },
    {
      "channel": 1,
      "note": 62,
      "start": 107.8023,
      "duration": 0.1816,
      "velocity": 102,
      "chip": "ym2612"
    },
    {
      "channel": 0,
      "note": 22,
      "start": 108.0021,
      "duration": 0.1816,
      "velocity": 127,
      "chip": "ym2612"
    },
    {
      "channel": 1,
      "note": 62,
      "start": 108.0024,
      "duration": 0.3815,
      "velocity": 102,
      "chip": "ym2612"
    },
    {
      "channel": 2,
      "note": 102,
      "start": 108.0026,
      "duration": 0.5814,
      "velocity": 94,
      "chip": "ym2612"
    },
    {
      "channel": 0,
      "note": 42,
      "start": 108.2005,
      "duration": 0.1832,
      "velocity": 127,
      "chip": "ym2612"
    },
    {
      "channel": 0,
      "note": 42,
      "start": 108.4006,
      "duration": 0.1831,
      "velocity": 127,
      "chip": "ym2612"
    },
    {
      "channel": 1,
      "note": 57,
      "start": 108.4008,
      "duration": 0.183,
      "velocity": 102,
      "chip": "ym2612"
    },
    {
      "channel": 0,
      "note": 42,
      "start": 108.6006,
      "duration": 0.3832,
      "velocity": 127,
      "chip": "ym2612"
    },
    {
      "channel": 1,
      "note": 57,
      "start": 108.6009,
      "duration": 0.383,
      "velocity": 102,
      "chip": "ym2612"
    },
    {
      "channel": 0,
      "note": 42,
      "start": 109.0007,
      "duration": 0.5831,
      "velocity": 127,
      "chip": "ym2612"
    },
    {
      "channel": 1,
      "note": 57,
      "start": 109.001,
      "duration": 0.583,
      "velocity": 102,
      "chip": "ym2612"
    },
    {
      "channel": 2,
      "note": 98,
      "start": 109.0012,
      "duration": 0.7827,
      "velocity": 94,
      "chip": "ym2612"
    },
    {
      "channel": 0,
      "note": 42,
      "start": 109.6021,
      "duration": 0.1817,
      "velocity": 127,
      "chip": "ym2612"
    },
    {
      "channel": 1,
      "note": 57,
      "start": 109.6024,
      "duration": 0.1816,
      "velocity": 102,
      "chip": "ym2612"
    },
    {
      "channel": 0,
      "note": 22,
      "start": 109.8021,
      "duration": 0.3817,
      "velocity": 127,
      "chip": "ym2612"
    },
    {
      "channel": 1,
      "note": 57,
      "start": 109.8024,
      "duration": 0.3816,
      "velocity": 102,
      "chip": "ym2612"
    },
    {
      "channel": 2,
      "note": 97,
      "start": 109.8026,
      "duration": 0.3814,
      "velocity": 94,
      "chip": "ym2612"
    },
    {
      "channel": 0,
      "note": 42,
      "start": 110.2021,
      "duration": 0.1817,
      "velocity": 127,
      "chip": "ym2612"
    },
    {
      "channel": 1,
      "note": 57,
      "start": 110.2024,
      "duration": 0.1815,
      "velocity": 102,
      "chip": "ym2612"
    },
    {
      "channel": 0,
      "note": 22,
      "start": 110.4022,
      "duration": 0.3815,
      "velocity": 127,
      "chip": "ym2612"
    },
    {
      "channel": 1,
      "note": 57,
      "start": 110.4025,
      "duration": 0.3814,
      "velocity": 102,
      "chip": "ym2612"
    },
    {
      "channel": 2,
      "note": 98,
      "start": 110.4027,
      "duration": 2.3812,
      "velocity": 94,
      "chip": "ym2612"
    },
    {
      "channel": 0,
      "note": 22,
      "start": 110.8006,
      "duration": 0.1832,
      "velocity": 127,
      "chip": "ym2612"
    },
    {
      "channel": 1,
      "note": 52,
      "start": 110.8008,
      "duration": 0.1831,
      "velocity": 102,
      "chip": "ym2612"
    },
    {
      "channel": 0,
      "note": 22,
      "start": 111.002,
      "duration": 0.3817,
      "velocity": 127,
      "chip": "ym2612"
    },
    {
      "channel": 1,
      "note": 52,
      "start": 111.0023,
      "duration": 0.3816,
      "velocity": 102,
      "chip": "ym2612"
    },
    {
      "channel": 0,
      "note": 42,
      "start": 111.402,
      "duration": 0.1817,
      "velocity": 127,
      "chip": "ym2612"
    },
    {
      "channel": 1,
      "note": 52,
      "start": 111.4023,
      "duration": 0.1816,
      "velocity": 102,
      "chip": "ym2612"
    },
    {
      "channel": 0,
      "note": 22,
      "start": 111.6007,
      "duration": 0.3831,
      "velocity": 127,
      "chip": "ym2612"
    },
    {
      "channel": 1,
      "note": 52,
      "start": 111.601,
      "duration": 0.383,
      "velocity": 102,
      "chip": "ym2612"
    },
    {
      "channel": 0,
      "note": 22,
      "start": 112.0006,
      "duration": 0.1832,
      "velocity": 127,
      "chip": "ym2612"
    },
    {
      "channel": 1,
      "note": 52,
      "start": 112.0008,
      "duration": 0.1831,
      "velocity": 102,
      "chip": "ym2612"
    },
    {
      "channel": 0,
      "note": 22,
      "start": 112.202,
      "duration": 0.3817,
      "velocity": 127,
      "chip": "ym2612"
    },
    {
      "channel": 1,
      "note": 52,
      "start": 112.2023,
      "duration": 0.3816,
      "velocity": 102,
      "chip": "ym2612"
    },
    {
      "channel": 0,
      "note": 42,
      "start": 112.602,
      "duration": 0.1817,
      "velocity": 127,
      "chip": "ym2612"
    },
    {
      "channel": 1,
      "note": 52,
      "start": 112.6023,
      "duration": 0.1816,
      "velocity": 102,
      "chip": "ym2612"
    },
    {
      "channel": 0,
      "note": 22,
      "start": 112.8021,
      "duration": 0.3817,
      "velocity": 127,
      "chip": "ym2612"
    },
    {
      "channel": 1,
      "note": 52,
      "start": 112.8024,
      "duration": 0.3816,
      "velocity": 102,
      "chip": "ym2612"
    },
    {
      "channel": 2,
      "note": 100,
      "start": 112.8026,
      "duration": 0.1812,
      "velocity": 94,
      "chip": "ym2612"
    },
    {
      "channel": 2,
      "note": 98,
      "start": 113.0006,
      "duration": 0.1834,
      "velocity": 94,
      "chip": "ym2612"
    },
    {
      "channel": 0,
      "note": 22,
      "start": 113.2006,
      "duration": 0.1832,
      "velocity": 127,
      "chip": "ym2612"
    },
    {
      "channel": 1,
      "note": 52,
      "start": 113.2009,
      "duration": 0.183,
      "velocity": 102,
      "chip": "ym2612"
    },
    {
      "channel": 2,
      "note": 95,
      "start": 113.2012,
      "duration": 0.1829,
      "velocity": 94,
      "chip": "ym2612"
    },
    {
      "channel": 0,
      "note": 22,
      "start": 113.4021,
      "duration": 0.3816,
      "velocity": 127,
      "chip": "ym2612"
    },
    {
      "channel": 1,
      "note": 52,
      "start": 113.4024,
      "duration": 0.3815,
      "velocity": 102,
      "chip": "ym2612"
    },
    {
      "channel": 2,
      "note": 98,
      "start": 113.4026,
      "duration": 0.1813,
      "velocity": 94,
      "chip": "ym2612"
    },
    {
      "channel": 2,
      "note": 95,
      "start": 113.6005,
      "duration": 0.1834,
      "velocity": 94,
      "chip": "ym2612"
    },
    {
      "channel": 0,
      "note": 42,
      "start": 113.802,
      "duration": 0.1818,
      "velocity": 127,
      "chip": "ym2612"
    },
    {
      "channel": 1,
      "note": 52,
      "start": 113.8023,
      "duration": 0.1817,
      "velocity": 102,
      "chip": "ym2612"
    },
    {
      "channel": 2,
      "note": 98,
      "start": 113.8026,
      "duration": 0.1815,
      "velocity": 94,
      "chip": "ym2612"
    },
    {
      "channel": 0,
      "note": 22,
      "start": 114.0022,
      "duration": 0.1815,
      "velocity": 127,
      "chip": "ym2612"
    },
    {
      "channel": 1,
      "note": 52,
      "start": 114.0024,
      "duration": 0.3815,
      "velocity": 102,
      "chip": "ym2612"
    },
    {
      "channel": 2,
      "note": 95,
      "start": 114.0027,
      "duration": 0.1812,
      "velocity": 94,
      "chip": "ym2612"
    },
    {
      "channel": 0,
      "note": 42,
      "start": 114.2006,
      "duration": 0.1832,
      "velocity": 127,
      "chip": "ym2612"
    },
    {
      "channel": 2,
      "note": 98,
      "start": 114.2008,
      "duration": 0.1831,
      "velocity": 94,
      "chip": "ym2612"
    },
    {
      "channel": 0,
      "note": 42,
      "start": 114.4006,
      "duration": 0.1832,
      "velocity": 127,
      "chip": "ym2612"
    },
    {
      "channel": 1,
      "note": 52,
      "start": 114.4009,
      "duration": 0.183,
      "velocity": 102,
      "chip": "ym2612"
    },
    {
      "channel": 2,
      "note": 95,
      "start": 114.4012,
      "duration": 0.1829,
      "velocity": 94,
      "chip": "ym2612"
    },
    {
      "channel": 0,
      "note": 42,
      "start": 114.6005,
      "duration": 0.1832,
      "velocity": 127,
      "chip": "ym2612"
    },
    {
      "channel": 1,
      "note": 52,
      "start": 114.6008,
      "duration": 0.3832,
      "velocity": 102,
      "chip": "ym2612"
    },
    {
      "channel": 2,
      "note": 98,
      "start": 114.601,
      "duration": 0.1829,
      "velocity": 94,
      "chip": "ym2612"
    },
    {
      "channel": 0,
      "note": 42,
      "start": 114.8006,
      "duration": 0.1832,
      "velocity": 127,
      "chip": "ym2612"
    },
    {
      "channel": 2,
      "note": 95,
      "start": 114.8008,
      "duration": 0.1831,
      "velocity": 94,
      "chip": "ym2612"
    },
    {
      "channel": 0,
      "note": 42,
      "start": 115.0006,
      "duration": 0.1832,
      "velocity": 127,
      "chip": "ym2612"
    },
    {
      "channel": 1,
      "note": 52,
      "start": 115.0009,
      "duration": 0.183,
      "velocity": 102,
      "chip": "ym2612"
    },
    {
      "channel": 2,
      "note": 98,
      "start": 115.0012,
      "duration": 0.1829,
      "velocity": 94,
      "chip": "ym2612"
    },
    {
      "channel": 0,
      "note": 42,
      "start": 115.2024,
      "duration": 0.3814,
      "velocity": 127,
      "chip": "ym2612"
    },
    {
      "channel": 1,
      "note": 52,
      "start": 115.2041,
      "duration": 0.3798,
      "velocity": 102,
      "chip": "ym2612"
    },
    {
      "channel": 2,
      "note": 95,
      "start": 115.2058,
      "duration": 0.5782,
      "velocity": 83,
      "chip": "ym2612"
    },
    {
      "channel": 0,
      "note": 22,
      "start": 115.6006,
      "duration": 0.1832,
      "velocity": 127,
      "chip": "ym2612"
    },
    {
      "channel": 1,
      "note": 49,
      "start": 115.6008,
      "duration": 0.1831,
      "velocity": 102,
      "chip": "ym2612"
    },
    {
      "channel": 0,
      "note": 22,
      "start": 115.8021,
      "duration": 0.3817,
      "velocity": 127,
      "chip": "ym2612"
    },
    {
      "channel": 1,
      "note": 49,
      "start": 115.8024,
      "duration": 0.3816,
      "velocity": 102,
      "chip": "ym2612"
    },
    {
      "channel": 2,
      "note": 85,
      "start": 115.8026,
      "duration": 0.3814,
      "velocity": 83,
      "chip": "ym2612"
    },
    {
      "channel": 0,
      "note": 42,
      "start": 116.2021,
      "duration": 0.1816,
      "velocity": 127,
      "chip": "ym2612"
    },
    {
      "channel": 1,
      "note": 49,
      "start": 116.2024,
      "duration": 0.1815,
      "velocity": 102,
      "chip": "ym2612"
    },
    {
      "channel": 0,
      "note": 22,
      "start": 116.4006,
      "duration": 0.3832,
      "velocity": 127,
      "chip": "ym2612"
    },
    {
      "channel": 1,
      "note": 49,
      "start": 116.4009,
      "duration": 0.383,
      "velocity": 102,
      "chip": "ym2612"
    },
    {
      "channel": 2,
      "note": 85,
      "start": 116.4012,
      "duration": 0.5829,
      "velocity": 83,
      "chip": "ym2612"
    },
    {
      "channel": 0,
      "note": 22,
      "start": 116.8006,
      "duration": 0.1832,
      "velocity": 127,
      "chip": "ym2612"
    },
    {
      "channel": 1,
      "note": 49,
      "start": 116.8008,
      "duration": 0.1831,
      "velocity": 102,
      "chip": "ym2612"
    },
    {
      "channel": 0,
      "note": 22,
      "start": 117.0021,
      "duration": 0.3817,
      "velocity": 127,
      "chip": "ym2612"
    },
    {
      "channel": 1,
      "note": 49,
      "start": 117.0024,
      "duration": 0.3816,
      "velocity": 102,
      "chip": "ym2612"
    },
    {
      "channel": 2,
      "note": 85,
      "start": 117.0026,
      "duration": 0.3814,
      "velocity": 83,
      "chip": "ym2612"
    },
    {
      "channel": 0,
      "note": 42,
      "start": 117.4021,
      "duration": 0.1817,
      "velocity": 127,
      "chip": "ym2612"
    },
    {
      "channel": 1,
      "note": 49,
      "start": 117.4024,
      "duration": 0.1816,
      "velocity": 102,
      "chip": "ym2612"
    },
    {
      "channel": 2,
      "note": 83,
      "start": 117.4026,
      "duration": 0.1814,
      "velocity": 83,
      "chip": "ym2612"
    },
    {
      "channel": 0,
      "note": 22,
      "start": 117.6021,
      "duration": 0.3817,
      "velocity": 127,
      "chip": "ym2612"
    },
    {
      "channel": 1,
      "note": 49,
      "start": 117.6024,
      "duration": 0.3816,
      "velocity": 102,
      "chip": "ym2612"
    },
    {
      "channel": 2,
      "note": 80,
      "start": 117.6026,
      "duration": 0.3814,
      "velocity": 83,
      "chip": "ym2612"
    },
    {
      "channel": 0,
      "note": 22,
      "start": 118.0006,
      "duration": 0.1832,
      "velocity": 127,
      "chip": "ym2612"
    },
    {
      "channel": 1,
      "note": 49,
      "start": 118.0009,
      "duration": 0.183,
      "velocity": 102,
      "chip": "ym2612"
    },
    {
      "channel": 2,
      "note": 83,
      "start": 118.0012,
      "duration": 0.1828,
      "velocity": 83,
      "chip": "ym2612"
    },
    {
      "channel": 0,
      "note": 22,
      "start": 118.2021,
      "duration": 0.3816,
      "velocity": 127,
      "chip": "ym2612"
    },
    {
      "channel": 1,
      "note": 49,
      "start": 118.2024,
      "duration": 0.3815,
      "velocity": 102,
      "chip": "ym2612"
    },
    {
      "channel": 0,
      "note": 42,
      "start": 118.6022,
      "duration": 0.1816,
      "velocity": 127,
      "chip": "ym2612"
    },
    {
      "channel": 1,
      "note": 49,
      "start": 118.6025,
      "duration": 0.1815,
      "velocity": 102,
      "chip": "ym2612"
    },
    {
      "channel": 2,
      "note": 85,
      "start": 118.6027,
      "duration": 0.1814,
      "velocity": 83,
      "chip": "ym2612"
    },
    {
      "channel": 0,
      "note": 22,
      "start": 118.8006,
      "duration": 0.3832,
      "velocity": 127,
      "chip": "ym2612"
    },
    {
      "channel": 1,
      "note": 49,
      "start": 118.8008,
      "duration": 0.3831,
      "velocity": 102,
      "chip": "ym2612"
    },
    {
      "channel": 2,
      "note": 91,
      "start": 118.8011,
      "duration": 0.1828,
      "velocity": 83,
      "chip": "ym2612"
    },
    {
      "channel": 0,
      "note": 22,
      "start": 119.2006,
      "duration": 0.1832,
      "velocity": 127,
      "chip": "ym2612"
    },
    {
      "channel": 1,
      "note": 49,
      "start": 119.2009,
      "duration": 0.183,
      "velocity": 102,
      "chip": "ym2612"
    },
    {
      "channel": 2,
      "note": 90,
      "start": 119.2012,
      "duration": 0.1828,
      "velocity": 83,
      "chip": "ym2612"
    },
    {
      "channel": 0,
      "note": 22,
      "start": 119.4021,
      "duration": 0.3817,
      "velocity": 127,
      "chip": "ym2612"
    },
    {
      "channel": 1,
      "note": 49,
      "start": 119.4024,
      "duration": 0.3816,
      "velocity": 102,
      "chip": "ym2612"
    },
    {
      "channel": 2,
      "note": 88,
      "start": 119.4026,
      "duration": 0.3814,
      "velocity": 83,
      "chip": "ym2612"
    },
    {
      "channel": 0,
      "note": 42,
      "start": 119.8021,
      "duration": 0.1817,
      "velocity": 127,
      "chip": "ym2612"
    },
    {
      "channel": 1,
      "note": 49,
      "start": 119.8024,
      "duration": 0.1815,
      "velocity": 102,
      "chip": "ym2612"
    },
    {
      "channel": 2,
      "note": 90,
      "start": 119.8026,
      "duration": 0.1814,
      "velocity": 83,
      "chip": "ym2612"
    },
    {
      "channel": 0,
      "note": 22,
      "start": 120.0022,
      "duration": 0.3815,
      "velocity": 127,
      "chip": "ym2612"
    },
    {
      "channel": 1,
      "note": 49,
      "start": 120.0025,
      "duration": 0.3814,
      "velocity": 102,
      "chip": "ym2612"
    },
    {
      "channel": 2,
      "note": 88,
      "start": 120.0027,
      "duration": 0.3812,
      "velocity": 83,
      "chip": "ym2612"
    },
    {
      "channel": 0,
      "note": 22,
      "start": 120.4006,
      "duration": 0.1832,
      "velocity": 127,
      "chip": "ym2612"
    },
    {
      "channel": 1,
      "note": 49,
      "start": 120.4009,
      "duration": 0.183,
      "velocity": 102,
      "chip": "ym2612"
    },
    {
      "channel": 0,
      "note": 22,
      "start": 120.6021,
      "duration": 0.3817,
      "velocity": 127,
      "chip": "ym2612"
    },
    {
      "channel": 1,
      "note": 49,
      "start": 120.6024,
      "duration": 0.3816,
      "velocity": 102,
      "chip": "ym2612"
    },
    {
      "channel": 2,
      "note": 85,
      "start": 120.6026,
      "duration": 0.3814,
      "velocity": 83,
      "chip": "ym2612"
    },
    {
      "channel": 0,
      "note": 42,
      "start": 121.0021,
      "duration": 0.1817,
      "velocity": 127,
      "chip": "ym2612"
    },
    {
      "channel": 1,
      "note": 49,
      "start": 121.0024,
      "duration": 0.1816,
      "velocity": 102,
      "chip": "ym2612"
    },
    {
      "channel": 2,
      "note": 85,
      "start": 121.0026,
      "duration": 0.1814,
      "velocity": 83,
      "chip": "ym2612"
    },
    {
      "channel": 0,
      "note": 22,
      "start": 121.2006,
      "duration": 0.3832,
      "velocity": 127,
      "chip": "ym2612"
    },
    {
      "channel": 1,
      "note": 49,
      "start": 121.2009,
      "duration": 0.383,
      "velocity": 102,
      "chip": "ym2612"
    },
    {
      "channel": 2,
      "note": 80,
      "start": 121.2012,
      "duration": 0.3828,
      "velocity": 83,
      "chip": "ym2612"
    },
    {
      "channel": 0,
      "note": 22,
      "start": 121.6006,
      "duration": 0.1832,
      "velocity": 127,
      "chip": "ym2612"
    },
    {
      "channel": 1,
      "note": 49,
      "start": 121.6009,
      "duration": 0.183,
      "velocity": 102,
      "chip": "ym2612"
    },
    {
      "channel": 2,
      "note": 83,
      "start": 121.6012,
      "duration": 0.1828,
      "velocity": 83,
      "chip": "ym2612"
    },
    {
      "channel": 0,
      "note": 22,
      "start": 121.8021,
      "duration": 0.3817,
      "velocity": 127,
      "chip": "ym2612"
    },
    {
      "channel": 1,
      "note": 49,
      "start": 121.8024,
      "duration": 0.3816,
      "velocity": 102,
      "chip": "ym2612"
    },
    {
      "channel": 0,
      "note": 42,
      "start": 122.2021,
      "duration": 0.1817,
      "velocity": 127,
      "chip": "ym2612"
    },
    {
      "channel": 1,
      "note": 49,
      "start": 122.2024,
      "duration": 0.1815,
      "velocity": 102,
      "chip": "ym2612"
    },
    {
      "channel": 2,
      "note": 85,
      "start": 122.2026,
      "duration": 0.1814,
      "velocity": 83,
      "chip": "ym2612"
    },
    {
      "channel": 0,
      "note": 22,
      "start": 122.4021,
      "duration": 0.3817,
      "velocity": 127,
      "chip": "ym2612"
    },
    {
      "channel": 1,
      "note": 49,
      "start": 122.4024,
      "duration": 0.3816,
      "velocity": 102,
      "chip": "ym2612"
    },
    {
      "channel": 2,
      "note": 85,
      "start": 122.4026,
      "duration": 0.1812,
      "velocity": 83,
      "chip": "ym2612"
    },
    {
      "channel": 2,
      "note": 88,
      "start": 122.6006,
      "duration": 0.1834,
      "velocity": 83,
      "chip": "ym2612"
    },
    {
      "channel": 0,
      "note": 22,
      "start": 122.8006,
      "duration": 0.1832,
      "velocity": 127,
      "chip": "ym2612"
    },
    {
      "channel": 1,
      "note": 49,
      "start": 122.8009,
      "duration": 0.183,
      "velocity": 102,
      "chip": "ym2612"
    },
    {
      "channel": 2,
      "note": 85,
      "start": 122.8012,
      "duration": 0.1829,
      "velocity": 83,
      "chip": "ym2612"
    },
    {
      "channel": 0,
      "note": 22,
      "start": 123.0021,
      "duration": 0.3817,
      "velocity": 127,
      "chip": "ym2612"
    },
    {
      "channel": 1,
      "note": 49,
      "start": 123.0024,
      "duration": 0.3816,
      "velocity": 102,
      "chip": "ym2612"
    },
    {
      "channel": 2,
      "note": 88,
      "start": 123.0026,
      "duration": 0.1813,
      "velocity": 83,
      "chip": "ym2612"
    },
    {
      "channel": 2,
      "note": 85,
      "start": 123.2005,
      "duration": 0.1836,
      "velocity": 83,
      "chip": "ym2612"
    },
    {
      "channel": 0,
      "note": 42,
      "start": 123.4022,
      "duration": 0.1815,
      "velocity": 127,
      "chip": "ym2612"
    },
    {
      "channel": 1,
      "note": 49,
      "start": 123.4024,
      "duration": 0.1814,
      "velocity": 102,
      "chip": "ym2612"
    },
    {
      "channel": 2,
      "note": 88,
      "start": 123.4027,
      "duration": 0.1813,
      "velocity": 83,
      "chip": "ym2612"
    },
    {
      "channel": 0,
      "note": 22,
      "start": 123.6006,
      "duration": 0.3831,
      "velocity": 127,
      "chip": "ym2612"
    },
    {
      "channel": 1,
      "note": 49,
      "start": 123.6009,
      "duration": 0.3829,
      "velocity": 102,
      "chip": "ym2612"
    },
    {
      "channel": 2,
      "note": 85,
      "start": 123.6012,
      "duration": 0.1828,
      "velocity": 83,
      "chip": "ym2612"
    },
    {
      "channel": 2,
      "note": 88,
      "start": 123.8005,
      "duration": 0.1834,
      "velocity": 83,
      "chip": "ym2612"
    },
    {
      "channel": 0,
      "note": 22,
      "start": 124.0006,
      "duration": 0.1832,
      "velocity": 127,
      "chip": "ym2612"
    },
    {
      "channel": 1,
      "note": 49,
      "start": 124.0008,
      "duration": 0.1831,
      "velocity": 102,
      "chip": "ym2612"
    },
    {
      "channel": 2,
      "note": 85,
      "start": 124.0011,
      "duration": 0.1829,
      "velocity": 83,
      "chip": "ym2612"
    },
    {
      "channel": 0,
      "note": 22,
      "start": 124.2021,
      "duration": 0.3817,
      "velocity": 127,
      "chip": "ym2612"
    },
    {
      "channel": 1,
      "note": 49,
      "start": 124.2024,
      "duration": 0.3816,
      "velocity": 102,
      "chip": "ym2612"
    },
    {
      "channel": 2,
      "note": 88,
      "start": 124.2026,
      "duration": 0.1812,
      "velocity": 83,
      "chip": "ym2612"
    },
    {
      "channel": 2,
      "note": 85,
      "start": 124.4006,
      "duration": 0.1834,
      "velocity": 83,
      "chip": "ym2612"
    },
    {
      "channel": 0,
      "note": 42,
      "start": 124.6021,
      "duration": 0.1816,
      "velocity": 127,
      "chip": "ym2612"
    },
    {
      "channel": 1,
      "note": 49,
      "start": 124.6024,
      "duration": 0.1815,
      "velocity": 102,
      "chip": "ym2612"
    },
    {
      "channel": 2,
      "note": 88,
      "start": 124.6026,
      "duration": 0.1814,
      "velocity": 83,
      "chip": "ym2612"
    },
    {
      "channel": 0,
      "note": 22,
      "start": 124.8022,
      "duration": 0.3815,
      "velocity": 127,
      "chip": "ym2612"
    },
    {
      "channel": 1,
      "note": 49,
      "start": 124.8025,
      "duration": 0.3814,
      "velocity": 102,
      "chip": "ym2612"
    },
    {
      "channel": 2,
      "note": 85,
      "start": 124.8027,
      "duration": 0.5812,
      "velocity": 83,
      "chip": "ym2612"
    },
    {
      "channel": 0,
      "note": 22,
      "start": 125.2006,
      "duration": 0.1832,
      "velocity": 127,
      "chip": "ym2612"
    },
    {
      "channel": 1,
      "note": 54,
      "start": 125.2009,
      "duration": 0.183,
      "velocity": 102,
      "chip": "ym2612"
    },
    {
      "channel": 0,
      "note": 22,
      "start": 125.4021,
      "duration": 0.3817,
      "velocity": 127,
      "chip": "ym2612"
    },
    {
      "channel": 1,
      "note": 54,
      "start": 125.4024,
      "duration": 0.3816,
      "velocity": 102,
      "chip": "ym2612"
    },
    {
      "channel": 2,
      "note": 90,
      "start": 125.4026,
      "duration": 0.3814,
      "velocity": 83,
      "chip": "ym2612"
    },
    {
      "channel": 0,
      "note": 42,
      "start": 125.8021,
      "duration": 0.1817,
      "velocity": 127,
      "chip": "ym2612"
    },
    {
      "channel": 1,
      "note": 54,
      "start": 125.8024,
      "duration": 0.1816,
      "velocity": 102,
      "chip": "ym2612"
    },
    {
      "channel": 2,
      "note": 78,
      "start": 125.8026,
      "duration": 0.1814,
      "velocity": 83,
      "chip": "ym2612"
    },
    {
      "channel": 0,
      "note": 22,
      "start": 126.0006,
      "duration": 0.3832,
      "velocity": 127,
      "chip": "ym2612"
    },
    {
      "channel": 1,
      "note": 54,
      "start": 126.0009,
      "duration": 0.383,
      "velocity": 102,
      "chip": "ym2612"
    },
    {
      "channel": 2,
      "note": 76,
      "start": 126.0012,
      "duration": 0.5828,
      "velocity": 83,
      "chip": "ym2612"
    },
    {
      "channel": 0,
      "note": 22,
      "start": 126.4006,
      "duration": 0.1832,
      "velocity": 127,
      "chip": "ym2612"
    },
    {
      "channel": 1,
      "note": 54,
      "start": 126.4008,
      "duration": 0.1831,
      "velocity": 102,
      "chip": "ym2612"
    },
    {
      "channel": 0,
      "note": 22,
      "start": 126.6021,
      "duration": 0.3817,
      "velocity": 127,
      "chip": "ym2612"
    },
    {
      "channel": 1,
      "note": 54,
      "start": 126.6024,
      "duration": 0.3816,
      "velocity": 102,
      "chip": "ym2612"
    },
    {
      "channel": 2,
      "note": 78,
      "start": 126.6026,
      "duration": 0.3814,
      "velocity": 83,
      "chip": "ym2612"
    },
    {
      "channel": 0,
      "note": 42,
      "start": 127.0021,
      "duration": 0.1817,
      "velocity": 127,
      "chip": "ym2612"
    },
    {
      "channel": 1,
      "note": 54,
      "start": 127.0024,
      "duration": 0.1816,
      "velocity": 102,
      "chip": "ym2612"
    },
    {
      "channel": 2,
      "note": 85,
      "start": 127.0026,
      "duration": 0.5814,
      "velocity": 83,
      "chip": "ym2612"
    },
    {
      "channel": 0,
      "note": 22,
      "start": 127.202,
      "duration": 0.3817,
      "velocity": 127,
      "chip": "ym2612"
    },
    {
      "channel": 1,
      "note": 54,
      "start": 127.2023,
      "duration": 0.3816,
      "velocity": 102,
      "chip": "ym2612"
    },
    {
      "channel": 0,
      "note": 22,
      "start": 127.6006,
      "duration": 0.1832,
      "velocity": 127,
      "chip": "ym2612"
    },
    {
      "channel": 1,
      "note": 54,
      "start": 127.6009,
      "duration": 0.183,
      "velocity": 102,
      "chip": "ym2612"
    },
    {
      "channel": 2,
      "note": 88,
      "start": 127.6012,
      "duration": 0.1829,
      "velocity": 83,
      "chip": "ym2612"
    },
    {
      "channel": 0,
      "note": 22,
      "start": 127.8022,
      "duration": 0.3816,
      "velocity": 127,
      "chip": "ym2612"
    },
    {
      "channel": 1,
      "note": 54,
      "start": 127.8024,
      "duration": 0.3815,
      "velocity": 102,
      "chip": "ym2612"
    },
    {
      "channel": 2,
      "note": 87,
      "start": 127.8027,
      "duration": 0.3814,
      "velocity": 83,
      "chip": "ym2612"
    },
    {
      "channel": 0,
      "note": 42,
      "start": 128.2021,
      "duration": 0.1817,
      "velocity": 127,
      "chip": "ym2612"
    },
    {
      "channel": 1,
      "note": 54,
      "start": 128.2024,
      "duration": 0.1816,
      "velocity": 102,
      "chip": "ym2612"
    },
    {
      "channel": 2,
      "note": 83,
      "start": 128.2026,
      "duration": 0.7814,
      "velocity": 83,
      "chip": "ym2612"
    },
    {
      "channel": 0,
      "note": 22,
      "start": 128.4006,
      "duration": 0.3832,
      "velocity": 127,
      "chip": "ym2612"
    },
    {
      "channel": 1,
      "note": 54,
      "start": 128.4008,
      "duration": 0.3831,
      "velocity": 102,
      "chip": "ym2612"
    },
    {
      "channel": 0,
      "note": 22,
      "start": 128.8006,
      "duration": 0.1832,
      "velocity": 127,
      "chip": "ym2612"
    },
    {
      "channel": 1,
      "note": 54,
      "start": 128.8008,
      "duration": 0.1831,
      "velocity": 102,
      "chip": "ym2612"
    },
    {
      "channel": 0,
      "note": 22,
      "start": 129.0021,
      "duration": 0.3816,
      "velocity": 127,
      "chip": "ym2612"
    },
    {
      "channel": 1,
      "note": 54,
      "start": 129.0024,
      "duration": 0.3815,
      "velocity": 102,
      "chip": "ym2612"
    },
    {
      "channel": 2,
      "note": 78,
      "start": 129.0026,
      "duration": 0.1813,
      "velocity": 83,
      "chip": "ym2612"
    },
    {
      "channel": 2,
      "note": 78,
      "start": 129.2005,
      "duration": 0.1834,
      "velocity": 83,
      "chip": "ym2612"
    },
    {
      "channel": 0,
      "note": 42,
      "start": 129.402,
      "duration": 0.1818,
      "velocity": 127,
      "chip": "ym2612"
    },
    {
      "channel": 1,
      "note": 54,
      "start": 129.4023,
      "duration": 0.1817,
      "velocity": 102,
      "chip": "ym2612"
    },
    {
      "channel": 2,
      "note": 76,
      "start": 129.4026,
      "duration": 0.1815,
      "velocity": 83,
      "chip": "ym2612"
    },
    {
      "channel": 0,
      "note": 22,
      "start": 129.6022,
      "duration": 0.3816,
      "velocity": 127,
      "chip": "ym2612"
    },
    {
      "channel": 1,
      "note": 54,
      "start": 129.6024,
      "duration": 0.3815,
      "velocity": 102,
      "chip": "ym2612"
    },
    {
      "channel": 0,
      "note": 22,
      "start": 130.0006,
      "duration": 0.1832,
      "velocity": 127,
      "chip": "ym2612"
    },
    {
      "channel": 1,
      "note": 49,
      "start": 130.0009,
      "duration": 0.183,
      "velocity": 102,
      "chip": "ym2612"
    },
    {
      "channel": 0,
      "note": 22,
      "start": 130.2022,
      "duration": 0.3816,
      "velocity": 127,
      "chip": "ym2612"
    },
    {
      "channel": 1,
      "note": 49,
      "start": 130.2024,
      "duration": 0.3815,
      "velocity": 102,
      "chip": "ym2612"
    },
    {
      "channel": 2,
      "note": 72,
      "start": 130.2027,
      "duration": 0.3814,
      "velocity": 83,
      "chip": "ym2612"
    },
    {
      "channel": 0,
      "note": 42,
      "start": 130.6022,
      "duration": 0.1816,
      "velocity": 127,
      "chip": "ym2612"
    },
    {
      "channel": 1,
      "note": 49,
      "start": 130.6024,
      "duration": 0.1815,
      "velocity": 102,
      "chip": "ym2612"
    },
    {
      "channel": 2,
      "note": 73,
      "start": 130.6027,
      "duration": 0.1813,
      "velocity": 83,
      "chip": "ym2612"
    },
    {
      "channel": 0,
      "note": 22,
      "start": 130.8006,
      "duration": 0.3832,
      "velocity": 127,
      "chip": "ym2612"
    },
    {
      "channel": 1,
      "note": 49,
      "start": 130.8009,
      "duration": 0.383,
      "velocity": 102,
      "chip": "ym2612"
    },
    {
      "channel": 2,
      "note": 71,
      "start": 130.8012,
      "duration": 0.5828,
      "velocity": 83,
      "chip": "ym2612"
    },
    {
      "channel": 0,
      "note": 22,
      "start": 131.2006,
      "duration": 0.1832,
      "velocity": 127,
      "chip": "ym2612"
    },
    {
      "channel": 1,
      "note": 49,
      "start": 131.2009,
      "duration": 0.183,
      "velocity": 102,
      "chip": "ym2612"
    },
    {
      "channel": 0,
      "note": 22,
      "start": 131.4021,
      "duration": 0.3817,
      "velocity": 127,
      "chip": "ym2612"
    },
    {
      "channel": 1,
      "note": 49,
      "start": 131.4024,
      "duration": 0.3816,
      "velocity": 102,
      "chip": "ym2612"
    },
    {
      "channel": 2,
      "note": 73,
      "start": 131.4026,
      "duration": 0.3814,
      "velocity": 83,
      "chip": "ym2612"
    },
    {
      "channel": 0,
      "note": 42,
      "start": 131.8022,
      "duration": 0.1816,
      "velocity": 127,
      "chip": "ym2612"
    },
    {
      "channel": 1,
      "note": 49,
      "start": 131.8024,
      "duration": 0.1815,
      "velocity": 102,
      "chip": "ym2612"
    },
    {
      "channel": 2,
      "note": 80,
      "start": 131.8027,
      "duration": 0.7814,
      "velocity": 83,
      "chip": "ym2612"
    },
    {
      "channel": 0,
      "note": 22,
      "start": 132.002,
      "duration": 0.3817,
      "velocity": 127,
      "chip": "ym2612"
    },
    {
      "channel": 1,
      "note": 49,
      "start": 132.0023,
      "duration": 0.3816,
      "velocity": 102,
      "chip": "ym2612"
    },
    {
      "channel": 0,
      "note": 22,
      "start": 132.4006,
      "duration": 0.1832,
      "velocity": 127,
      "chip": "ym2612"
    },
    {
      "channel": 1,
      "note": 49,
      "start": 132.4008,
      "duration": 0.1831,
      "velocity": 102,
      "chip": "ym2612"
    },
    {
      "channel": 0,
      "note": 22,
      "start": 132.6021,
      "duration": 0.3817,
      "velocity": 127,
      "chip": "ym2612"
    },
    {
      "channel": 1,
      "note": 49,
      "start": 132.6024,
      "duration": 0.3816,
      "velocity": 102,
      "chip": "ym2612"
    },
    {
      "channel": 2,
      "note": 83,
      "start": 132.6026,
      "duration": 0.3814,
      "velocity": 83,
      "chip": "ym2612"
    },
    {
      "channel": 0,
      "note": 42,
      "start": 133.0021,
      "duration": 0.1817,
      "velocity": 127,
      "chip": "ym2612"
    },
    {
      "channel": 1,
      "note": 49,
      "start": 133.0024,
      "duration": 0.1816,
      "velocity": 102,
      "chip": "ym2612"
    },
    {
      "channel": 2,
      "note": 85,
      "start": 133.0026,
      "duration": 0.5814,
      "velocity": 83,
      "chip": "ym2612"
    },
    {
      "channel": 0,
      "note": 22,
      "start": 133.2006,
      "duration": 0.3832,
      "velocity": 127,
      "chip": "ym2612"
    },
    {
      "channel": 1,
      "note": 49,
      "start": 133.2009,
      "duration": 0.383,
      "velocity": 102,
      "chip": "ym2612"
    },
    {
      "channel": 0,
      "note": 22,
      "start": 133.6006,
      "duration": 0.1832,
      "velocity": 127,
      "chip": "ym2612"
    },
    {
      "channel": 1,
      "note": 49,
      "start": 133.6009,
      "duration": 0.183,
      "velocity": 102,
      "chip": "ym2612"
    },
    {
      "channel": 2,
      "note": 88,
      "start": 133.6012,
      "duration": 0.1828,
      "velocity": 83,
      "chip": "ym2612"
    },
    {
      "channel": 0,
      "note": 22,
      "start": 133.8021,
      "duration": 0.3817,
      "velocity": 127,
      "chip": "ym2612"
    },
    {
      "channel": 1,
      "note": 49,
      "start": 133.8024,
      "duration": 0.3816,
      "velocity": 102,
      "chip": "ym2612"
    },
    {
      "channel": 2,
      "note": 85,
      "start": 133.8026,
      "duration": 0.1812,
      "velocity": 83,
      "chip": "ym2612"
    },
    {
      "channel": 2,
      "note": 88,
      "start": 134.0006,
      "duration": 0.1834,
      "velocity": 83,
      "chip": "ym2612"
    },
    {
      "channel": 0,
      "note": 42,
      "start": 134.2021,
      "duration": 0.1816,
      "velocity": 127,
      "chip": "ym2612"
    },
    {
      "channel": 1,
      "note": 49,
      "start": 134.2024,
      "duration": 0.1815,
      "velocity": 102,
      "chip": "ym2612"
    },
    {
      "channel": 2,
      "note": 85,
      "start": 134.2026,
      "duration": 0.1814,
      "velocity": 83,
      "chip": "ym2612"
    },
    {
      "channel": 0,
      "note": 22,
      "start": 134.4022,
      "duration": 0.3815,
      "velocity": 127,
      "chip": "ym2612"
    },
    {
      "channel": 1,
      "note": 49,
      "start": 134.4025,
      "duration": 0.3814,
      "velocity": 102,
      "chip": "ym2612"
    },
    {
      "channel": 2,
      "note": 88,
      "start": 134.4027,
      "duration": 0.5812,
      "velocity": 83,
      "chip": "ym2612"
    },
    {
      "channel": 0,
      "note": 22,
      "start": 134.8006,
      "duration": 0.1832,
      "velocity": 127,
      "chip": "ym2612"
    },
    {
      "channel": 1,
      "note": 59,
      "start": 134.8008,
      "duration": 0.1831,
      "velocity": 102,
      "chip": "ym2612"
    },
    {
      "channel": 0,
      "note": 22,
      "start": 135.0021,
      "duration": 0.3817,
      "velocity": 127,
      "chip": "ym2612"
    },
    {
      "channel": 1,
      "note": 59,
      "start": 135.0024,
      "duration": 0.3815,
      "velocity": 102,
      "chip": "ym2612"
    },
    {
      "channel": 2,
      "note": 88,
      "start": 135.0026,
      "duration": 0.3814,
      "velocity": 83,
      "chip": "ym2612"
    },
    {
      "channel": 0,
      "note": 42,
      "start": 135.4006,
      "duration": 0.3832,
      "velocity": 127,
      "chip": "ym2612"
    },
    {
      "channel": 1,
      "note": 59,
      "start": 135.4009,
      "duration": 0.5829,
      "velocity": 102,
      "chip": "ym2612"
    },
    {
      "channel": 2,
      "note": 87,
      "start": 135.4012,
      "duration": 1.3828,
      "velocity": 83,
      "chip": "ym2612"
    },
    {
      "channel": 0,
      "note": 42,
      "start": 136.0006,
      "duration": 0.1832,
      "velocity": 127,
      "chip": "ym2612"
    },
    {
      "channel": 1,
      "note": 59,
      "start": 136.0008,
      "duration": 0.183,
      "velocity": 102,
      "chip": "ym2612"
    },
    {
      "channel": 0,
      "note": 22,
      "start": 136.2022,
      "duration": 0.3816,
      "velocity": 127,
      "chip": "ym2612"
    },
    {
      "channel": 1,
      "note": 59,
      "start": 136.2024,
      "duration": 0.3814,
      "velocity": 102,
      "chip": "ym2612"
    },
    {
      "channel": 0,
      "note": 42,
      "start": 136.6022,
      "duration": 0.1816,
      "velocity": 127,
      "chip": "ym2612"
    },
    {
      "channel": 1,
      "note": 59,
      "start": 136.6024,
      "duration": 0.1814,
      "velocity": 102,
      "chip": "ym2612"
    },
    {
      "channel": 0,
      "note": 22,
      "start": 136.8022,
      "duration": 0.1815,
      "velocity": 127,
      "chip": "ym2612"
    },
    {
      "channel": 1,
      "note": 59,
      "start": 136.8025,
      "duration": 0.3814,
      "velocity": 102,
      "chip": "ym2612"
    },
    {
      "channel": 2,
      "note": 83,
      "start": 136.8027,
      "duration": 0.5812,
      "velocity": 83,
      "chip": "ym2612"
    },
    {
      "channel": 0,
      "note": 42,
      "start": 137.0005,
      "duration": 0.1833,
      "velocity": 127,
      "chip": "ym2612"
    },
    {
      "channel": 0,
      "note": 42,
      "start": 137.2006,
      "duration": 0.1832,
      "velocity": 127,
      "chip": "ym2612"
    },
    {
      "channel": 1,
      "note": 54,
      "start": 137.2008,
      "duration": 0.1831,
      "velocity": 102,
      "chip": "ym2612"
    },
    {
      "channel": 0,
      "note": 42,
      "start": 137.4006,
      "duration": 0.3832,
      "velocity": 127,
      "chip": "ym2612"
    },
    {
      "channel": 1,
      "note": 54,
      "start": 137.4009,
      "duration": 0.383,
      "velocity": 102,
      "chip": "ym2612"
    },
    {
      "channel": 2,
      "note": 88,
      "start": 137.4012,
      "duration": 0.3829,
      "velocity": 83,
      "chip": "ym2612"
    },
    {
      "channel": 0,
      "note": 42,
      "start": 137.8006,
      "duration": 0.5832,
      "velocity": 127,
      "chip": "ym2612"
    },
    {
      "channel": 1,
      "note": 54,
      "start": 137.8009,
      "duration": 0.583,
      "velocity": 102,
      "chip": "ym2612"
    },
    {
      "channel": 2,
      "note": 87,
      "start": 137.8012,
      "duration": 0.7828,
      "velocity": 83,
      "chip": "ym2612"
    },
    {
      "channel": 0,
      "note": 42,
      "start": 138.402,
      "duration": 0.1817,
      "velocity": 127,
      "chip": "ym2612"
    },
    {
      "channel": 1,
      "note": 54,
      "start": 138.4023,
      "duration": 0.1816,
      "velocity": 102,
      "chip": "ym2612"
    },
    {
      "channel": 0,
      "note": 22,
      "start": 138.6022,
      "duration": 0.3815,
      "velocity": 127,
      "chip": "ym2612"
    },
    {
      "channel": 1,
      "note": 54,
      "start": 138.6025,
      "duration": 0.3814,
      "velocity": 102,
      "chip": "ym2612"
    },
    {
      "channel": 2,
      "note": 83,
      "start": 138.6027,
      "duration": 0.5812,
      "velocity": 83,
      "chip": "ym2612"
    },
    {
      "channel": 0,
      "note": 42,
      "start": 139.002,
      "duration": 0.1817,
      "velocity": 127,
      "chip": "ym2612"
    },
    {
      "channel": 1,
      "note": 54,
      "start": 139.0023,
      "duration": 0.1816,
      "velocity": 102,
      "chip": "ym2612"
    },
    {
      "channel": 0,
      "note": 22,
      "start": 139.2022,
      "duration": 0.3815,
      "velocity": 127,
      "chip": "ym2612"
    },
    {
      "channel": 1,
      "note": 54,
      "start": 139.2025,
      "duration": 0.3814,
      "velocity": 102,
      "chip": "ym2612"
    },
    {
      "channel": 2,
      "note": 90,
      "start": 139.2027,
      "duration": 0.3812,
      "velocity": 83,
      "chip": "ym2612"
    },
    {
      "channel": 0,
      "note": 22,
      "start": 139.6006,
      "duration": 0.1832,
      "velocity": 127,
      "chip": "ym2612"
    },
    {
      "channel": 1,
      "note": 49,
      "start": 139.6009,
      "duration": 0.183,
      "velocity": 102,
      "chip": "ym2612"
    },
    {
      "channel": 2,
      "note": 90,
      "start": 139.6012,
      "duration": 0.1828,
      "velocity": 83,
      "chip": "ym2612"
    },
    {
      "channel": 0,
      "note": 22,
      "start": 139.8021,
      "duration": 0.3817,
      "velocity": 127,
      "chip": "ym2612"
    },
    {
      "channel": 1,
      "note": 49,
      "start": 139.8024,
      "duration": 0.3815,
      "velocity": 102,
      "chip": "ym2612"
    },
    {
      "channel": 2,
      "note": 92,
      "start": 139.8026,
      "duration": 0.1812,
      "velocity": 83,
      "chip": "ym2612"
    },
    {
      "channel": 0,
      "note": 42,
      "start": 140.2022,
      "duration": 0.1816,
      "velocity": 127,
      "chip": "ym2612"
    },
    {
      "channel": 1,
      "note": 49,
      "start": 140.2024,
      "duration": 0.1815,
      "velocity": 102,
      "chip": "ym2612"
    },
    {
      "channel": 0,
      "note": 22,
      "start": 140.4006,
      "duration": 0.3832,
      "velocity": 127,
      "chip": "ym2612"
    },
    {
      "channel": 1,
      "note": 49,
      "start": 140.4009,
      "duration": 0.383,
      "velocity": 102,
      "chip": "ym2612"
    },
    {
      "channel": 2,
      "note": 85,
      "start": 140.4012,
      "duration": 0.5828,
      "velocity": 83,
      "chip": "ym2612"
    },
    {
      "channel": 0,
      "note": 22,
      "start": 140.8006,
      "duration": 0.1832,
      "velocity": 127,
      "chip": "ym2612"
    },
    {
      "channel": 1,
      "note": 49,
      "start": 140.8009,
      "duration": 0.183,
      "velocity": 102,
      "chip": "ym2612"
    },
    {
      "channel": 0,
      "note": 22,
      "start": 141.0021,
      "duration": 0.3817,
      "velocity": 127,
      "chip": "ym2612"
    },
    {
      "channel": 1,
      "note": 49,
      "start": 141.0024,
      "duration": 0.3816,
      "velocity": 102,
      "chip": "ym2612"
    },
    {
      "channel": 2,
      "note": 85,
      "start": 141.0026,
      "duration": 0.3814,
      "velocity": 83,
      "chip": "ym2612"
    },
    {
      "channel": 0,
      "note": 42,
      "start": 141.4021,
      "duration": 0.1817,
      "velocity": 127,
      "chip": "ym2612"
    },
    {
      "channel": 1,
      "note": 49,
      "start": 141.4024,
      "duration": 0.1815,
      "velocity": 102,
      "chip": "ym2612"
    },
    {
      "channel": 2,
      "note": 83,
      "start": 141.4026,
      "duration": 0.1814,
      "velocity": 83,
      "chip": "ym2612"
    },
    {
      "channel": 0,
      "note": 22,
      "start": 141.602,
      "duration": 0.3817,
      "velocity": 127,
      "chip": "ym2612"
    },
    {
      "channel": 1,
      "note": 49,
      "start": 141.6023,
      "duration": 0.3816,
      "velocity": 102,
      "chip": "ym2612"
    },
    {
      "channel": 0,
      "note": 22,
      "start": 142.0006,
      "duration": 0.1832,
      "velocity": 127,
      "chip": "ym2612"
    },
    {
      "channel": 1,
      "note": 49,
      "start": 142.0009,
      "duration": 0.183,
      "velocity": 102,
      "chip": "ym2612"
    },
    {
      "channel": 2,
      "note": 85,
      "start": 142.0012,
      "duration": 0.1828,
      "velocity": 83,
      "chip": "ym2612"
    },
    {
      "channel": 0,
      "note": 22,
      "start": 142.2021,
      "duration": 0.3817,
      "velocity": 127,
      "chip": "ym2612"
    },
    {
      "channel": 1,
      "note": 49,
      "start": 142.2024,
      "duration": 0.3816,
      "velocity": 102,
      "chip": "ym2612"
    },
    {
      "channel": 2,
      "note": 85,
      "start": 142.2026,
      "duration": 0.3814,
      "velocity": 83,
      "chip": "ym2612"
    },
    {
      "channel": 0,
      "note": 42,
      "start": 142.6021,
      "duration": 0.1817,
      "velocity": 127,
      "chip": "ym2612"
    },
    {
      "channel": 1,
      "note": 49,
      "start": 142.6024,
      "duration": 0.1816,
      "velocity": 102,
      "chip": "ym2612"
    },
    {
      "channel": 2,
      "note": 92,
      "start": 142.6026,
      "duration": 0.1814,
      "velocity": 83,
      "chip": "ym2612"
    },
    {
      "channel": 0,
      "note": 22,
      "start": 142.8021,
      "duration": 0.1816,
      "velocity": 127,
      "chip": "ym2612"
    },
    {
      "channel": 1,
      "note": 49,
      "start": 142.8024,
      "duration": 0.3816,
      "velocity": 102,
      "chip": "ym2612"
    },
    {
      "channel": 2,
      "note": 95,
      "start": 142.8026,
      "duration": 0.1813,
      "velocity": 83,
      "chip": "ym2612"
    },
    {
      "channel": 0,
      "note": 42,
      "start": 143.0006,
      "duration": 0.1832,
      "velocity": 127,
      "chip": "ym2612"
    },
    {
      "channel": 0,
      "note": 42,
      "start": 143.2006,
      "duration": 0.1832,
      "velocity": 127,
      "chip": "ym2612"
    },
    {
      "channel": 1,
      "note": 49,
      "start": 143.2009,
      "duration": 0.183,
      "velocity": 102,
      "chip": "ym2612"
    },
    {
      "channel": 2,
      "note": 90,
      "start": 143.2012,
      "duration": 0.1829,
      "velocity": 83,
      "chip": "ym2612"
    },
    {
      "channel": 0,
      "note": 42,
      "start": 143.4007,
      "duration": 0.183,
      "velocity": 127,
      "chip": "ym2612"
    },
    {
      "channel": 1,
      "note": 49,
      "start": 143.401,
      "duration": 0.3829,
      "velocity": 102,
      "chip": "ym2612"
    },
    {
      "channel": 2,
      "note": 88,
      "start": 143.4012,
      "duration": 0.3827,
      "velocity": 83,
      "chip": "ym2612"
    },
    {
      "channel": 0,
      "note": 42,
      "start": 143.6005,
      "duration": 0.1832,
      "velocity": 127,
      "chip": "ym2612"
    },
    {
      "channel": 0,
      "note": 42,
      "start": 143.8006,
      "duration": 0.1832,
      "velocity": 127,
      "chip": "ym2612"
    },
    {
      "channel": 1,
      "note": 49,
      "start": 143.8009,
      "duration": 0.183,
      "velocity": 102,
      "chip": "ym2612"
    },
    {
      "channel": 2,
      "note": 90,
      "start": 143.8012,
      "duration": 0.1828,
      "velocity": 83,
      "chip": "ym2612"
    },
    {
      "channel": 0,
      "note": 42,
      "start": 144.0022,
      "duration": 0.3815,
      "velocity": 127,
      "chip": "ym2612"
    },
    {
      "channel": 1,
      "note": 49,
      "start": 144.0039,
      "duration": 0.38,
      "velocity": 102,
      "chip": "ym2612"
    },
    {
      "channel": 2,
      "note": 88,
      "start": 144.0042,
      "duration": 0.1797,
      "velocity": 83,
      "chip": "ym2612"
    },
    {
      "channel": 0,
      "note": 22,
      "start": 144.4007,
      "duration": 0.183,
      "velocity": 127,
      "chip": "ym2612"
    },
    {
      "channel": 1,
      "note": 49,
      "start": 144.401,
      "duration": 0.1829,
      "velocity": 102,
      "chip": "ym2612"
    },
    {
      "channel": 2,
      "note": 90,
      "start": 144.4012,
      "duration": 0.1827,
      "velocity": 83,
      "chip": "ym2612"
    },
    {
      "channel": 0,
      "note": 22,
      "start": 144.6022,
      "duration": 0.3816,
      "velocity": 127,
      "chip": "ym2612"
    },
    {
      "channel": 1,
      "note": 49,
      "start": 144.6024,
      "duration": 0.3815,
      "velocity": 102,
      "chip": "ym2612"
    },
    {
      "channel": 2,
      "note": 88,
      "start": 144.6027,
      "duration": 0.3813,
      "velocity": 83,
      "chip": "ym2612"
    },
    {
      "channel": 0,
      "note": 42,
      "start": 145.0021,
      "duration": 0.1816,
      "velocity": 127,
      "chip": "ym2612"
    },
    {
      "channel": 1,
      "note": 49,
      "start": 145.0024,
      "duration": 0.1815,
      "velocity": 102,
      "chip": "ym2612"
    },
    {
      "channel": 2,
      "note": 85,
      "start": 145.0026,
      "duration": 0.1814,
      "velocity": 83,
      "chip": "ym2612"
    },
    {
      "channel": 0,
      "note": 22,
      "start": 145.2006,
      "duration": 0.3832,
      "velocity": 127,
      "chip": "ym2612"
    },
    {
      "channel": 1,
      "note": 49,
      "start": 145.2009,
      "duration": 0.383,
      "velocity": 102,
      "chip": "ym2612"
    },
    {
      "channel": 2,
      "note": 83,
      "start": 145.2012,
      "duration": 0.3829,
      "velocity": 83,
      "chip": "ym2612"
    },
    {
      "channel": 0,
      "note": 22,
      "start": 145.6007,
      "duration": 0.1831,
      "velocity": 127,
      "chip": "ym2612"
    },
    {
      "channel": 1,
      "note": 49,
      "start": 145.601,
      "duration": 0.183,
      "velocity": 102,
      "chip": "ym2612"
    },
    {
      "channel": 2,
      "note": 85,
      "start": 145.6012,
      "duration": 0.1828,
      "velocity": 83,
      "chip": "ym2612"
    },
    {
      "channel": 0,
      "note": 22,
      "start": 145.8022,
      "duration": 0.3816,
      "velocity": 127,
      "chip": "ym2612"
    },
    {
      "channel": 1,
      "note": 49,
      "start": 145.8024,
      "duration": 0.3815,
      "velocity": 102,
      "chip": "ym2612"
    },
    {
      "channel": 2,
      "note": 83,
      "start": 145.8027,
      "duration": 0.3814,
      "velocity": 83,
      "chip": "ym2612"
    },
    {
      "channel": 0,
      "note": 42,
      "start": 146.2022,
      "duration": 0.1816,
      "velocity": 127,
      "chip": "ym2612"
    },
    {
      "channel": 1,
      "note": 49,
      "start": 146.2024,
      "duration": 0.1815,
      "velocity": 102,
      "chip": "ym2612"
    },
    {
      "channel": 2,
      "note": 80,
      "start": 146.2027,
      "duration": 0.5813,
      "velocity": 83,
      "chip": "ym2612"
    },
    {
      "channel": 0,
      "note": 22,
      "start": 146.402,
      "duration": 0.3817,
      "velocity": 127,
      "chip": "ym2612"
    },
    {
      "channel": 1,
      "note": 49,
      "start": 146.4023,
      "duration": 0.3816,
      "velocity": 102,
      "chip": "ym2612"
    },
    {
      "channel": 0,
      "note": 22,
      "start": 146.8006,
      "duration": 0.1832,
      "velocity": 127,
      "chip": "ym2612"
    },
    {
      "channel": 1,
      "note": 49,
      "start": 146.8009,
      "duration": 0.183,
      "velocity": 102,
      "chip": "ym2612"
    },
    {
      "channel": 2,
      "note": 78,
      "start": 146.8012,
      "duration": 0.1828,
      "velocity": 83,
      "chip": "ym2612"
    },
    {
      "channel": 0,
      "note": 22,
      "start": 147.0021,
      "duration": 0.3817,
      "velocity": 127,
      "chip": "ym2612"
    },
    {
      "channel": 1,
      "note": 49,
      "start": 147.0024,
      "duration": 0.3816,
      "velocity": 102,
      "chip": "ym2612"
    },
    {
      "channel": 2,
      "note": 76,
      "start": 147.0026,
      "duration": 0.3814,
      "velocity": 83,
      "chip": "ym2612"
    },
    {
      "channel": 0,
      "note": 42,
      "start": 147.4021,
      "duration": 0.1817,
      "velocity": 127,
      "chip": "ym2612"
    },
    {
      "channel": 1,
      "note": 49,
      "start": 147.4024,
      "duration": 0.1816,
      "velocity": 102,
      "chip": "ym2612"
    },
    {
      "channel": 2,
      "note": 73,
      "start": 147.4026,
      "duration": 0.1814,
      "velocity": 83,
      "chip": "ym2612"
    },
    {
      "channel": 0,
      "note": 22,
      "start": 147.6006,
      "duration": 0.3832,
      "velocity": 127,
      "chip": "ym2612"
    },
    {
      "channel": 1,
      "note": 49,
      "start": 147.6009,
      "duration": 0.383,
      "velocity": 102,
      "chip": "ym2612"
    },
    {
      "channel": 2,
      "note": 71,
      "start": 147.6012,
      "duration": 0.5829,
      "velocity": 83,
      "chip": "ym2612"
    },
    {
      "channel": 0,
      "note": 22,
      "start": 148.0006,
      "duration": 0.1832,
      "velocity": 127,
      "chip": "ym2612"
    },
    {
      "channel": 1,
      "note": 49,
      "start": 148.0009,
      "duration": 0.183,
      "velocity": 102,
      "chip": "ym2612"
    },
    {
      "channel": 0,
      "note": 22,
      "start": 148.2021,
      "duration": 0.3817,
      "velocity": 127,
      "chip": "ym2612"
    },
    {
      "channel": 1,
      "note": 49,
      "start": 148.2024,
      "duration": 0.3816,
      "velocity": 102,
      "chip": "ym2612"
    },
    {
      "channel": 2,
      "note": 73,
      "start": 148.2026,
      "duration": 0.3814,
      "velocity": 83,
      "chip": "ym2612"
    },
    {
      "channel": 0,
      "note": 42,
      "start": 148.6021,
      "duration": 0.1817,
      "velocity": 127,
      "chip": "ym2612"
    },
    {
      "channel": 1,
      "note": 49,
      "start": 148.6024,
      "duration": 0.1816,
      "velocity": 102,
      "chip": "ym2612"
    },
    {
      "channel": 2,
      "note": 71,
      "start": 148.6026,
      "duration": 0.1814,
      "velocity": 83,
      "chip": "ym2612"
    },
    {
      "channel": 0,
      "note": 22,
      "start": 148.8021,
      "duration": 0.3817,
      "velocity": 127,
      "chip": "ym2612"
    },
    {
      "channel": 1,
      "note": 49,
      "start": 148.8024,
      "duration": 0.3816,
      "velocity": 102,
      "chip": "ym2612"
    },
    {
      "channel": 0,
      "note": 22,
      "start": 149.2006,
      "duration": 0.1832,
      "velocity": 127,
      "chip": "ym2612"
    },
    {
      "channel": 1,
      "note": 49,
      "start": 149.2009,
      "duration": 0.183,
      "velocity": 102,
      "chip": "ym2612"
    },
    {
      "channel": 2,
      "note": 73,
      "start": 149.2012,
      "duration": 0.1829,
      "velocity": 83,
      "chip": "ym2612"
    },
    {
      "channel": 0,
      "note": 22,
      "start": 149.4021,
      "duration": 0.3816,
      "velocity": 127,
      "chip": "ym2612"
    },
    {
      "channel": 1,
      "note": 49,
      "start": 149.4024,
      "duration": 0.3815,
      "velocity": 102,
      "chip": "ym2612"
    },
    {
      "channel": 2,
      "note": 66,
      "start": 149.4026,
      "duration": 0.1813,
      "velocity": 83,
      "chip": "ym2612"
    },
    {
      "channel": 2,
      "note": 67,
      "start": 149.6005,
      "duration": 0.1834,
      "velocity": 83,
      "chip": "ym2612"
    },
    {
      "channel": 0,
      "note": 42,
      "start": 149.802,
      "duration": 0.1817,
      "velocity": 127,
      "chip": "ym2612"
    },
    {
      "channel": 1,
      "note": 49,
      "start": 149.8023,
      "duration": 0.1816,
      "velocity": 102,
      "chip": "ym2612"
    },
    {
      "channel": 2,
      "note": 68,
      "start": 149.8026,
      "duration": 0.1814,
      "velocity": 83,
      "chip": "ym2612"
    },
    {
      "channel": 0,
      "note": 22,
      "start": 150.0006,
      "duration": 0.3832,
      "velocity": 127,
      "chip": "ym2612"
    },
    {
      "channel": 1,
      "note": 49,
      "start": 150.0009,
      "duration": 0.3831,
      "velocity": 102,
      "chip": "ym2612"
    },
    {
      "channel": 2,
      "note": 71,
      "start": 150.0012,
      "duration": 0.1828,
      "velocity": 83,
      "chip": "ym2612"
    },
    {
      "channel": 2,
      "note": 72,
      "start": 150.2005,
      "duration": 0.1836,
      "velocity": 83,
      "chip": "ym2612"
    },
    {
      "channel": 0,
      "note": 22,
      "start": 150.4006,
      "duration": 0.1832,
      "velocity": 127,
      "chip": "ym2612"
    },
    {
      "channel": 1,
      "note": 49,
      "start": 150.4008,
      "duration": 0.183,
      "velocity": 102,
      "chip": "ym2612"
    },
    {
      "channel": 2,
      "note": 73,
      "start": 150.4011,
      "duration": 0.1829,
      "velocity": 83,
      "chip": "ym2612"
    },
    {
      "channel": 0,
      "note": 22,
      "start": 150.602,
      "duration": 0.3817,
      "velocity": 127,
      "chip": "ym2612"
    },
    {
      "channel": 1,
      "note": 49,
      "start": 150.6023,
      "duration": 0.3816,
      "velocity": 102,
      "chip": "ym2612"
    },
    {
      "channel": 2,
      "note": 76,
      "start": 150.6026,
      "duration": 0.1814,
      "velocity": 83,
      "chip": "ym2612"
    },
    {
      "channel": 2,
      "note": 77,
      "start": 150.8005,
      "duration": 0.1834,
      "velocity": 83,
      "chip": "ym2612"
    },
    {
      "channel": 0,
      "note": 42,
      "start": 151.002,
      "duration": 0.1818,
      "velocity": 127,
      "chip": "ym2612"
    },
    {
      "channel": 1,
      "note": 49,
      "start": 151.0023,
      "duration": 0.1817,
      "velocity": 102,
      "chip": "ym2612"
    },
    {
      "channel": 2,
      "note": 78,
      "start": 151.0026,
      "duration": 0.1815,
      "velocity": 83,
      "chip": "ym2612"
    },
    {
      "channel": 0,
      "note": 22,
      "start": 151.2022,
      "duration": 0.3816,
      "velocity": 127,
      "chip": "ym2612"
    },
    {
      "channel": 1,
      "note": 49,
      "start": 151.2024,
      "duration": 0.3815,
      "velocity": 102,
      "chip": "ym2612"
    },
    {
      "channel": 2,
      "note": 79,
      "start": 151.2027,
      "duration": 0.1812,
      "velocity": 83,
      "chip": "ym2612"
    },
    {
      "channel": 2,
      "note": 80,
      "start": 151.4006,
      "duration": 0.1834,
      "velocity": 83,
      "chip": "ym2612"
    },
    {
      "channel": 0,
      "note": 22,
      "start": 151.6006,
      "duration": 0.1832,
      "velocity": 127,
      "chip": "ym2612"
    },
    {
      "channel": 1,
      "note": 49,
      "start": 151.6009,
      "duration": 0.183,
      "velocity": 102,
      "chip": "ym2612"
    },
    {
      "channel": 2,
      "note": 83,
      "start": 151.6012,
      "duration": 0.1829,
      "velocity": 83,
      "chip": "ym2612"
    },
    {
      "channel": 0,
      "note": 22,
      "start": 151.8021,
      "duration": 0.3817,
      "velocity": 127,
      "chip": "ym2612"
    },
    {
      "channel": 1,
      "note": 49,
      "start": 151.8024,
      "duration": 0.3816,
      "velocity": 102,
      "chip": "ym2612"
    },
    {
      "channel": 2,
      "note": 84,
      "start": 151.8026,
      "duration": 0.1813,
      "velocity": 83,
      "chip": "ym2612"
    },
    {
      "channel": 2,
      "note": 85,
      "start": 152.0005,
      "duration": 0.1836,
      "velocity": 83,
      "chip": "ym2612"
    },
    {
      "channel": 0,
      "note": 42,
      "start": 152.2022,
      "duration": 0.1815,
      "velocity": 127,
      "chip": "ym2612"
    },
    {
      "channel": 1,
      "note": 49,
      "start": 152.2024,
      "duration": 0.1814,
      "velocity": 102,
      "chip": "ym2612"
    },
    {
      "channel": 2,
      "note": 87,
      "start": 152.2027,
      "duration": 0.1813,
      "velocity": 83,
      "chip": "ym2612"
    },
    {
      "channel": 0,
      "note": 22,
      "start": 152.4006,
      "duration": 0.3831,
      "velocity": 127,
      "chip": "ym2612"
    },
    {
      "channel": 1,
      "note": 49,
      "start": 152.4009,
      "duration": 0.3829,
      "velocity": 102,
      "chip": "ym2612"
    },
    {
      "channel": 2,
      "note": 88,
      "start": 152.4012,
      "duration": 0.1828,
      "velocity": 83,
      "chip": "ym2612"
    },
    {
      "channel": 2,
      "note": 88,
      "start": 152.6005,
      "duration": 0.1834,
      "velocity": 83,
      "chip": "ym2612"
    },
    {
      "channel": 0,
      "note": 22,
      "start": 152.8006,
      "duration": 0.1832,
      "velocity": 127,
      "chip": "ym2612"
    },
    {
      "channel": 1,
      "note": 49,
      "start": 152.8009,
      "duration": 0.183,
      "velocity": 102,
      "chip": "ym2612"
    },
    {
      "channel": 2,
      "note": 89,
      "start": 152.8012,
      "duration": 0.1829,
      "velocity": 83,
      "chip": "ym2612"
    },
    {
      "channel": 0,
      "note": 22,
      "start": 153.0021,
      "duration": 0.3816,
      "velocity": 127,
      "chip": "ym2612"
    },
    {
      "channel": 1,
      "note": 49,
      "start": 153.0024,
      "duration": 0.3815,
      "velocity": 102,
      "chip": "ym2612"
    },
    {
      "channel": 2,
      "note": 90,
      "start": 153.0026,
      "duration": 0.1813,
      "velocity": 83,
      "chip": "ym2612"
    },
    {
      "channel": 2,
      "note": 91,
      "start": 153.2005,
      "duration": 0.1834,
      "velocity": 83,
      "chip": "ym2612"
    },
    {
      "channel": 0,
      "note": 42,
      "start": 153.402,
      "duration": 0.1817,
      "velocity": 127,
      "chip": "ym2612"
    },
    {
      "channel": 1,
      "note": 49,
      "start": 153.4023,
      "duration": 0.1816,
      "velocity": 102,
      "chip": "ym2612"
    },
    {
      "channel": 2,
      "note": 92,
      "start": 153.4026,
      "duration": 0.1814,
      "velocity": 83,
      "chip": "ym2612"
    },
    {
      "channel": 0,
      "note": 22,
      "start": 153.6022,
      "duration": 0.3815,
      "velocity": 127,
      "chip": "ym2612"
    },
    {
      "channel": 1,
      "note": 49,
      "start": 153.6025,
      "duration": 0.3814,
      "velocity": 102,
      "chip": "ym2612"
    },
    {
      "channel": 2,
      "note": 95,
      "start": 153.6027,
      "duration": 0.3812,
      "velocity": 83,
      "chip": "ym2612"
    },
    {
      "channel": 0,
      "note": 22,
      "start": 154.0006,
      "duration": 0.1832,
      "velocity": 127,
      "chip": "ym2612"
    },
    {
      "channel": 1,
      "note": 54,
      "start": 154.0009,
      "duration": 0.183,
      "velocity": 102,
      "chip": "ym2612"
    },
    {
      "channel": 2,
      "note": 94,
      "start": 154.0012,
      "duration": 0.1828,
      "velocity": 83,
      "chip": "ym2612"
    },
    {
      "channel": 0,
      "note": 22,
      "start": 154.2021,
      "duration": 0.3817,
      "velocity": 127,
      "chip": "ym2612"
    },
    {
      "channel": 1,
      "note": 54,
      "start": 154.2024,
      "duration": 0.3816,
      "velocity": 102,
      "chip": "ym2612"
    },
    {
      "channel": 2,
      "note": 90,
      "start": 154.2026,
      "duration": 0.5814,
      "velocity": 83,
      "chip": "ym2612"
    },
    {
      "channel": 0,
      "note": 42,
      "start": 154.6021,
      "duration": 0.1817,
      "velocity": 127,
      "chip": "ym2612"
    },
    {
      "channel": 1,
      "note": 54,
      "start": 154.6024,
      "duration": 0.1816,
      "velocity": 102,
      "chip": "ym2612"
    },
    {
      "channel": 0,
      "note": 22,
      "start": 154.8006,
      "duration": 0.3832,
      "velocity": 127,
      "chip": "ym2612"
    },
    {
      "channel": 1,
      "note": 54,
      "start": 154.8009,
      "duration": 0.383,
      "velocity": 102,
      "chip": "ym2612"
    },
    {
      "channel": 2,
      "note": 85,
      "start": 154.8012,
      "duration": 0.3829,
      "velocity": 83,
      "chip": "ym2612"
    },
    {
      "channel": 0,
      "note": 22,
      "start": 155.2006,
      "duration": 0.1832,
      "velocity": 127,
      "chip": "ym2612"
    },
    {
      "channel": 1,
      "note": 54,
      "start": 155.2009,
      "duration": 0.183,
      "velocity": 102,
      "chip": "ym2612"
    },
    {
      "channel": 2,
      "note": 83,
      "start": 155.2012,
      "duration": 0.7828,
      "velocity": 83,
      "chip": "ym2612"
    },
    {
      "channel": 0,
      "note": 22,
      "start": 155.4021,
      "duration": 0.3817,
      "velocity": 127,
      "chip": "ym2612"
    },
    {
      "channel": 1,
      "note": 54,
      "start": 155.4024,
      "duration": 0.3816,
      "velocity": 102,
      "chip": "ym2612"
    },
    {
      "channel": 0,
      "note": 42,
      "start": 155.802,
      "duration": 0.1817,
      "velocity": 127,
      "chip": "ym2612"
    },
    {
      "channel": 1,
      "note": 54,
      "start": 155.8023,
      "duration": 0.1816,
      "velocity": 102,
      "chip": "ym2612"
    },
    {
      "channel": 0,
      "note": 22,
      "start": 156.002,
      "duration": 0.3817,
      "velocity": 127,
      "chip": "ym2612"
    },
    {
      "channel": 1,
      "note": 54,
      "start": 156.0023,
      "duration": 0.3816,
      "velocity": 102,
      "chip": "ym2612"
    },
    {
      "channel": 0,
      "note": 22,
      "start": 156.4006,
      "duration": 0.1832,
      "velocity": 127,
      "chip": "ym2612"
    },
    {
      "channel": 1,
      "note": 54,
      "start": 156.4009,
      "duration": 0.183,
      "velocity": 102,
      "chip": "ym2612"
    },
    {
      "channel": 2,
      "note": 85,
      "start": 156.4012,
      "duration": 0.1828,
      "velocity": 83,
      "chip": "ym2612"
    },
    {
      "channel": 0,
      "note": 22,
      "start": 156.6021,
      "duration": 0.3817,
      "velocity": 127,
      "chip": "ym2612"
    },
    {
      "channel": 1,
      "note": 54,
      "start": 156.6024,
      "duration": 0.3816,
      "velocity": 102,
      "chip": "ym2612"
    },
    {
      "channel": 2,
      "note": 99,
      "start": 156.6026,
      "duration": 0.3814,
      "velocity": 83,
      "chip": "ym2612"
    },
    {
      "channel": 0,
      "note": 42,
      "start": 157.0021,
      "duration": 0.1817,
      "velocity": 127,
      "chip": "ym2612"
    },
    {
      "channel": 1,
      "note": 54,
      "start": 157.0024,
      "duration": 0.1816,
      "velocity": 102,
      "chip": "ym2612"
    },
    {
      "channel": 2,
      "note": 97,
      "start": 157.0026,
      "duration": 0.1814,
      "velocity": 83,
      "chip": "ym2612"
    },
    {
      "channel": 0,
      "note": 22,
      "start": 157.2006,
      "duration": 0.3832,
      "velocity": 127,
      "chip": "ym2612"
    },
    {
      "channel": 1,
      "note": 54,
      "start": 157.2009,
      "duration": 0.383,
      "velocity": 102,
      "chip": "ym2612"
    },
    {
      "channel": 2,
      "note": 95,
      "start": 157.2012,
      "duration": 0.5828,
      "velocity": 83,
      "chip": "ym2612"
    },
    {
      "channel": 0,
      "note": 22,
      "start": 157.6006,
      "duration": 0.1832,
      "velocity": 127,
      "chip": "ym2612"
    },
    {
      "channel": 1,
      "note": 54,
      "start": 157.6008,
      "duration": 0.1831,
      "velocity": 102,
      "chip": "ym2612"
    },
    {
      "channel": 0,
      "note": 22,
      "start": 157.8021,
      "duration": 0.3817,
      "velocity": 127,
      "chip": "ym2612"
    },
    {
      "channel": 1,
      "note": 54,
      "start": 157.8024,
      "duration": 0.3816,
      "velocity": 102,
      "chip": "ym2612"
    },
    {
      "channel": 2,
      "note": 94,
      "start": 157.8026,
      "duration": 0.5814,
      "velocity": 83,
      "chip": "ym2612"
    },
    {
      "channel": 0,
      "note": 42,
      "start": 158.202,
      "duration": 0.1817,
      "velocity": 127,
      "chip": "ym2612"
    },
    {
      "channel": 1,
      "note": 54,
      "start": 158.2023,
      "duration": 0.1816,
      "velocity": 102,
      "chip": "ym2612"
    },
    {
      "channel": 0,
      "note": 22,
      "start": 158.4022,
      "duration": 0.3815,
      "velocity": 127,
      "chip": "ym2612"
    },
    {
      "channel": 1,
      "note": 54,
      "start": 158.4025,
      "duration": 0.3814,
      "velocity": 102,
      "chip": "ym2612"
    },
    {
      "channel": 2,
      "note": 95,
      "start": 158.4027,
      "duration": 0.3812,
      "velocity": 83,
      "chip": "ym2612"
    },
    {
      "channel": 0,
      "note": 22,
      "start": 158.8006,
      "duration": 0.1832,
      "velocity": 127,
      "chip": "ym2612"
    },
    {
      "channel": 1,
      "note": 49,
      "start": 158.8009,
      "duration": 0.183,
      "velocity": 102,
      "chip": "ym2612"
    },
    {
      "channel": 2,
      "note": 97,
      "start": 158.8012,
      "duration": 0.1828,
      "velocity": 83,
      "chip": "ym2612"
    },
    {
      "channel": 0,
      "note": 22,
      "start": 159.0021,
      "duration": 0.3817,
      "velocity": 127,
      "chip": "ym2612"
    },
    {
      "channel": 1,
      "note": 49,
      "start": 159.0024,
      "duration": 0.3816,
      "velocity": 102,
      "chip": "ym2612"
    },
    {
      "channel": 0,
      "note": 42,
      "start": 159.4021,
      "duration": 0.1817,
      "velocity": 127,
      "chip": "ym2612"
    },
    {
      "channel": 1,
      "note": 49,
      "start": 159.4024,
      "duration": 0.1816,
      "velocity": 102,
      "chip": "ym2612"
    },
    {
      "channel": 2,
      "note": 92,
      "start": 159.4026,
      "duration": 0.1814,
      "velocity": 83,
      "chip": "ym2612"
    },
    {
      "channel": 0,
      "note": 22,
      "start": 159.6006,
      "duration": 0.3831,
      "velocity": 127,
      "chip": "ym2612"
    },
    {
      "channel": 1,
      "note": 49,
      "start": 159.6009,
      "duration": 0.3829,
      "velocity": 102,
      "chip": "ym2612"
    },
    {
      "channel": 2,
      "note": 92,
      "start": 159.6012,
      "duration": 0.1828,
      "velocity": 83,
      "chip": "ym2612"
    },
    {
      "channel": 2,
      "note": 95,
      "start": 159.8005,
      "duration": 0.1834,
      "velocity": 83,
      "chip": "ym2612"
    },
    {
      "channel": 0,
      "note": 22,
      "start": 160.0006,
      "duration": 0.1832,
      "velocity": 127,
      "chip": "ym2612"
    },
    {
      "channel": 1,
      "note": 49,
      "start": 160.0009,
      "duration": 0.183,
      "velocity": 102,
      "chip": "ym2612"
    },
    {
      "channel": 2,
      "note": 92,
      "start": 160.0012,
      "duration": 0.1828,
      "velocity": 83,
      "chip": "ym2612"
    },
    {
      "channel": 0,
      "note": 22,
      "start": 160.2021,
      "duration": 0.3817,
      "velocity": 127,
      "chip": "ym2612"
    },
    {
      "channel": 1,
      "note": 49,
      "start": 160.2024,
      "duration": 0.3816,
      "velocity": 102,
      "chip": "ym2612"
    },
    {
      "channel": 2,
      "note": 94,
      "start": 160.2026,
      "duration": 0.1812,
      "velocity": 83,
      "chip": "ym2612"
    },
    {
      "channel": 2,
      "note": 92,
      "start": 160.4006,
      "duration": 0.1834,
      "velocity": 83,
      "chip": "ym2612"
    },
    {
      "channel": 0,
      "note": 42,
      "start": 160.6021,
      "duration": 0.1816,
      "velocity": 127,
      "chip": "ym2612"
    },
    {
      "channel": 1,
      "note": 49,
      "start": 160.6024,
      "duration": 0.1815,
      "velocity": 102,
      "chip": "ym2612"
    },
    {
      "channel": 2,
      "note": 93,
      "start": 160.6026,
      "duration": 0.1814,
      "velocity": 83,
      "chip": "ym2612"
    },
    {
      "channel": 0,
      "note": 22,
      "start": 160.802,
      "duration": 0.3817,
      "velocity": 127,
      "chip": "ym2612"
    },
    {
      "channel": 1,
      "note": 49,
      "start": 160.8023,
      "duration": 0.3816,
      "velocity": 102,
      "chip": "ym2612"
    },
    {
      "channel": 2,
      "note": 90,
      "start": 160.8026,
      "duration": 0.1813,
      "velocity": 83,
      "chip": "ym2612"
    },
    {
      "channel": 2,
      "note": 90,
      "start": 161.0006,
      "duration": 0.1834,
      "velocity": 83,
      "chip": "ym2612"
    },
    {
      "channel": 0,
      "note": 22,
      "start": 161.2007,
      "duration": 0.1831,
      "velocity": 127,
      "chip": "ym2612"
    },
    {
      "channel": 1,
      "note": 49,
      "start": 161.201,
      "duration": 0.183,
      "velocity": 102,
      "chip": "ym2612"
    },
    {
      "channel": 2,
      "note": 85,
      "start": 161.2012,
      "duration": 0.1828,
      "velocity": 83,
      "chip": "ym2612"
    },
    {
      "channel": 0,
      "note": 22,
      "start": 161.4021,
      "duration": 0.3817,
      "velocity": 127,
      "chip": "ym2612"
    },
    {
      "channel": 1,
      "note": 49,
      "start": 161.4024,
      "duration": 0.3815,
      "velocity": 102,
      "chip": "ym2612"
    },
    {
      "channel": 2,
      "note": 88,
      "start": 161.4026,
      "duration": 0.1813,
      "velocity": 83,
      "chip": "ym2612"
    },
    {
      "channel": 2,
      "note": 85,
      "start": 161.6005,
      "duration": 0.1834,
      "velocity": 83,
      "chip": "ym2612"
    },
    {
      "channel": 0,
      "note": 42,
      "start": 161.802,
      "duration": 0.1817,
      "velocity": 127,
      "chip": "ym2612"
    },
    {
      "channel": 1,
      "note": 49,
      "start": 161.8023,
      "duration": 0.1816,
      "velocity": 102,
      "chip": "ym2612"
    },
    {
      "channel": 2,
      "note": 87,
      "start": 161.8026,
      "duration": 0.1814,
      "velocity": 83,
      "chip": "ym2612"
    },
    {
      "channel": 0,
      "note": 22,
      "start": 162.0006,
      "duration": 0.3831,
      "velocity": 127,
      "chip": "ym2612"
    },
    {
      "channel": 1,
      "note": 49,
      "start": 162.0009,
      "duration": 0.3829,
      "velocity": 102,
      "chip": "ym2612"
    },
    {
      "channel": 2,
      "note": 85,
      "start": 162.0012,
      "duration": 0.1828,
      "velocity": 83,
      "chip": "ym2612"
    },
    {
      "channel": 2,
      "note": 85,
      "start": 162.2005,
      "duration": 0.1834,
      "velocity": 83,
      "chip": "ym2612"
    },
    {
      "channel": 0,
      "note": 22,
      "start": 162.4006,
      "duration": 0.1832,
      "velocity": 127,
      "chip": "ym2612"
    },
    {
      "channel": 1,
      "note": 49,
      "start": 162.4009,
      "duration": 0.183,
      "velocity": 102,
      "chip": "ym2612"
    },
    {
      "channel": 2,
      "note": 80,
      "start": 162.4012,
      "duration": 0.1828,
      "velocity": 83,
      "chip": "ym2612"
    },
    {
      "channel": 0,
      "note": 22,
      "start": 162.6021,
      "duration": 0.3817,
      "velocity": 127,
      "chip": "ym2612"
    },
    {
      "channel": 1,
      "note": 49,
      "start": 162.6024,
      "duration": 0.3816,
      "velocity": 102,
      "chip": "ym2612"
    },
    {
      "channel": 2,
      "note": 83,
      "start": 162.6026,
      "duration": 0.1812,
      "velocity": 83,
      "chip": "ym2612"
    },
    {
      "channel": 2,
      "note": 78,
      "start": 162.8006,
      "duration": 0.1834,
      "velocity": 83,
      "chip": "ym2612"
    },
    {
      "channel": 0,
      "note": 42,
      "start": 163.0021,
      "duration": 0.1816,
      "velocity": 127,
      "chip": "ym2612"
    },
    {
      "channel": 1,
      "note": 49,
      "start": 163.0024,
      "duration": 0.1815,
      "velocity": 102,
      "chip": "ym2612"
    },
    {
      "channel": 2,
      "note": 80,
      "start": 163.0026,
      "duration": 0.1814,
      "velocity": 83,
      "chip": "ym2612"
    },
    {
      "channel": 0,
      "note": 22,
      "start": 163.202,
      "duration": 0.3817,
      "velocity": 127,
      "chip": "ym2612"
    },
    {
      "channel": 1,
      "note": 49,
      "start": 163.2023,
      "duration": 0.3816,
      "velocity": 102,
      "chip": "ym2612"
    },
    {
      "channel": 2,
      "note": 82,
      "start": 163.2026,
      "duration": 0.1813,
      "velocity": 83,
      "chip": "ym2612"
    },
    {
      "channel": 2,
      "note": 83,
      "start": 163.4006,
      "duration": 0.1834,
      "velocity": 83,
      "chip": "ym2612"
    },
    {
      "channel": 0,
      "note": 22,
      "start": 163.6006,
      "duration": 0.1832,
      "velocity": 127,
      "chip": "ym2612"
    },
    {
      "channel": 1,
      "note": 59,
      "start": 163.6009,
      "duration": 0.183,
      "velocity": 102,
      "chip": "ym2612"
    },
    {
      "channel": 2,
      "note": 80,
      "start": 163.6012,
      "duration": 0.1829,
      "velocity": 83,
      "chip": "ym2612"
    },
    {
      "channel": 0,
      "note": 22,
      "start": 163.8021,
      "duration": 0.3817,
      "velocity": 127,
      "chip": "ym2612"
    },
    {
      "channel": 1,
      "note": 59,
      "start": 163.8024,
      "duration": 0.3816,
      "velocity": 102,
      "chip": "ym2612"
    },
    {
      "channel": 2,
      "note": 83,
      "start": 163.8026,
      "duration": 0.1813,
      "velocity": 83,
      "chip": "ym2612"
    },
    {
      "channel": 2,
      "note": 80,
      "start": 164.0005,
      "duration": 0.1836,
      "velocity": 83,
      "chip": "ym2612"
    },
    {
      "channel": 0,
      "note": 42,
      "start": 164.2006,
      "duration": 0.3832,
      "velocity": 127,
      "chip": "ym2612"
    },
    {
      "channel": 1,
      "note": 59,
      "start": 164.2008,
      "duration": 0.5831,
      "velocity": 102,
      "chip": "ym2612"
    },
    {
      "channel": 2,
      "note": 83,
      "start": 164.2011,
      "duration": 0.1828,
      "velocity": 83,
      "chip": "ym2612"
    },
    {
      "channel": 2,
      "note": 80,
      "start": 164.4006,
      "duration": 0.1834,
      "velocity": 83,
      "chip": "ym2612"
    },
    {
      "channel": 2,
      "note": 83,
      "start": 164.6022,
      "duration": 0.1817,
      "velocity": 83,
      "chip": "ym2612"
    },
    {
      "channel": 0,
      "note": 42,
      "start": 164.8006,
      "duration": 0.1832,
      "velocity": 127,
      "chip": "ym2612"
    },
    {
      "channel": 1,
      "note": 59,
      "start": 164.8009,
      "duration": 0.183,
      "velocity": 102,
      "chip": "ym2612"
    },
    {
      "channel": 2,
      "note": 80,
      "start": 164.8012,
      "duration": 0.1829,
      "velocity": 83,
      "chip": "ym2612"
    },
    {
      "channel": 0,
      "note": 22,
      "start": 165.0021,
      "duration": 0.3817,
      "velocity": 127,
      "chip": "ym2612"
    },
    {
      "channel": 1,
      "note": 59,
      "start": 165.0024,
      "duration": 0.3816,
      "velocity": 102,
      "chip": "ym2612"
    },
    {
      "channel": 2,
      "note": 83,
      "start": 165.0026,
      "duration": 0.1813,
      "velocity": 83,
      "chip": "ym2612"
    },
    {
      "channel": 2,
      "note": 80,
      "start": 165.2005,
      "duration": 0.1836,
      "velocity": 83,
      "chip": "ym2612"
    },
    {
      "channel": 0,
      "note": 42,
      "start": 165.4022,
      "duration": 0.1816,
      "velocity": 127,
      "chip": "ym2612"
    },
    {
      "channel": 1,
      "note": 59,
      "start": 165.4024,
      "duration": 0.1814,
      "velocity": 102,
      "chip": "ym2612"
    },
    {
      "channel": 2,
      "note": 83,
      "start": 165.4027,
      "duration": 0.1813,
      "velocity": 83,
      "chip": "ym2612"
    },
    {
      "channel": 0,
      "note": 22,
      "start": 165.6022,
      "duration": 0.1815,
      "velocity": 127,
      "chip": "ym2612"
    },
    {
      "channel": 1,
      "note": 59,
      "start": 165.6025,
      "duration": 0.3814,
      "velocity": 102,
      "chip": "ym2612"
    },
    {
      "channel": 2,
      "note": 80,
      "start": 165.6027,
      "duration": 0.3812,
      "velocity": 83,
      "chip": "ym2612"
    },
    {
      "channel": 0,
      "note": 42,
      "start": 165.8005,
      "duration": 0.1833,
      "velocity": 127,
      "chip": "ym2612"
    },
    {
      "channel": 0,
      "note": 42,
      "start": 166.0006,
      "duration": 0.1832,
      "velocity": 127,
      "chip": "ym2612"
    },
    {
      "channel": 1,
      "note": 54,
      "start": 166.0009,
      "duration": 0.183,
      "velocity": 102,
      "chip": "ym2612"
    },
    {
      "channel": 2,
      "note": 82,
      "start": 166.0012,
      "duration": 0.1828,
      "velocity": 83,
      "chip": "ym2612"
    },
    {
      "channel": 0,
      "note": 42,
      "start": 166.2006,
      "duration": 0.3832,
      "velocity": 127,
      "chip": "ym2612"
    },
    {
      "channel": 1,
      "note": 54,
      "start": 166.2009,
      "duration": 0.383,
      "velocity": 102,
      "chip": "ym2612"
    },
    {
      "channel": 2,
      "note": 78,
      "start": 166.2012,
      "duration": 0.1828,
      "velocity": 83,
      "chip": "ym2612"
    },
    {
      "channel": 0,
      "note": 42,
      "start": 166.6007,
      "duration": 0.583,
      "velocity": 127,
      "chip": "ym2612"
    },
    {
      "channel": 1,
      "note": 54,
      "start": 166.601,
      "duration": 0.5829,
      "velocity": 102,
      "chip": "ym2612"
    },
    {
      "channel": 2,
      "note": 80,
      "start": 166.6012,
      "duration": 0.3827,
      "velocity": 83,
      "chip": "ym2612"
    },
    {
      "channel": 0,
      "note": 42,
      "start": 167.202,
      "duration": 0.1818,
      "velocity": 127,
      "chip": "ym2612"
    },
    {
      "channel": 1,
      "note": 54,
      "start": 167.2023,
      "duration": 0.1817,
      "velocity": 102,
      "chip": "ym2612"
    },
    {
      "channel": 2,
      "note": 78,
      "start": 167.2026,
      "duration": 0.1815,
      "velocity": 83,
      "chip": "ym2612"
    },
    {
      "channel": 0,
      "note": 22,
      "start": 167.4022,
      "duration": 0.3816,
      "velocity": 127,
      "chip": "ym2612"
    },
    {
      "channel": 1,
      "note": 54,
      "start": 167.4024,
      "duration": 0.3815,
      "velocity": 102,
      "chip": "ym2612"
    },
    {
      "channel": 2,
      "note": 76,
      "start": 167.4027,
      "duration": 0.3813,
      "velocity": 83,
      "chip": "ym2612"
    },
    {
      "channel": 0,
      "note": 42,
      "start": 167.8021,
      "duration": 0.1817,
      "velocity": 127,
      "chip": "ym2612"
    },
    {
      "channel": 1,
      "note": 54,
      "start": 167.8024,
      "duration": 0.1816,
      "velocity": 102,
      "chip": "ym2612"
    },
    {
      "channel": 2,
      "note": 78,
      "start": 167.8026,
      "duration": 0.1814,
      "velocity": 83,
      "chip": "ym2612"
    },
    {
      "channel": 0,
      "note": 22,
      "start": 168.0021,
      "duration": 0.3817,
      "velocity": 127,
      "chip": "ym2612"
    },
    {
      "channel": 1,
      "note": 54,
      "start": 168.0024,
      "duration": 0.3816,
      "velocity": 102,
      "chip": "ym2612"
    },
    {
      "channel": 2,
      "note": 76,
      "start": 168.0026,
      "duration": 0.1812,
      "velocity": 83,
      "chip": "ym2612"
    },
    {
      "channel": 0,
      "note": 22,
      "start": 168.4006,
      "duration": 0.1832,
      "velocity": 127,
      "chip": "ym2612"
    },
    {
      "channel": 1,
      "note": 49,
      "start": 168.4009,
      "duration": 0.183,
      "velocity": 102,
      "chip": "ym2612"
    },
    {
      "channel": 2,
      "note": 78,
      "start": 168.4012,
      "duration": 0.1829,
      "velocity": 83,
      "chip": "ym2612"
    },
    {
      "channel": 0,
      "note": 22,
      "start": 168.6021,
      "duration": 0.3817,
      "velocity": 127,
      "chip": "ym2612"
    },
    {
      "channel": 1,
      "note": 49,
      "start": 168.6024,
      "duration": 0.3816,
      "velocity": 102,
      "chip": "ym2612"
    },
    {
      "channel": 2,
      "note": 85,
      "start": 168.6026,
      "duration": 0.1813,
      "velocity": 83,
      "chip": "ym2612"
    },
    {
      "channel": 0,
      "note": 42,
      "start": 169.0021,
      "duration": 0.1817,
      "velocity": 127,
      "chip": "ym2612"
    },
    {
      "channel": 1,
      "note": 49,
      "start": 169.0024,
      "duration": 0.1816,
      "velocity": 102,
      "chip": "ym2612"
    },
    {
      "channel": 0,
      "note": 22,
      "start": 169.2006,
      "duration": 0.3832,
      "velocity": 127,
      "chip": "ym2612"
    },
    {
      "channel": 1,
      "note": 49,
      "start": 169.2009,
      "duration": 0.383,
      "velocity": 102,
      "chip": "ym2612"
    },
    {
      "channel": 2,
      "note": 73,
      "start": 169.2012,
      "duration": 0.5828,
      "velocity": 83,
      "chip": "ym2612"
    },
    {
      "channel": 0,
      "note": 22,
      "start": 169.6006,
      "duration": 0.1832,
      "velocity": 127,
      "chip": "ym2612"
    },
    {
      "channel": 1,
      "note": 49,
      "start": 169.6009,
      "duration": 0.183,
      "velocity": 102,
      "chip": "ym2612"
    },
    {
      "channel": 0,
      "note": 22,
      "start": 169.8021,
      "duration": 0.3817,
      "velocity": 127,
      "chip": "ym2612"
    },
    {
      "channel": 1,
      "note": 49,
      "start": 169.8024,
      "duration": 0.3816,
      "velocity": 102,
      "chip": "ym2612"
    },
    {
      "channel": 2,
      "note": 73,
      "start": 169.8026,
      "duration": 0.3814,
      "velocity": 83,
      "chip": "ym2612"
    },
    {
      "channel": 0,
      "note": 42,
      "start": 170.2021,
      "duration": 0.1816,
      "velocity": 127,
      "chip": "ym2612"
    },
    {
      "channel": 1,
      "note": 49,
      "start": 170.2024,
      "duration": 0.1815,
      "velocity": 102,
      "chip": "ym2612"
    },
    {
      "channel": 2,
      "note": 71,
      "start": 170.2026,
      "duration": 1.5814,
      "velocity": 83,
      "chip": "ym2612"
    },
    {
      "channel": 0,
      "note": 22,
      "start": 170.4022,
      "duration": 0.3816,
      "velocity": 127,
      "chip": "ym2612"
    },
    {
      "channel": 1,
      "note": 49,
      "start": 170.4024,
      "duration": 0.3815,
      "velocity": 102,
      "chip": "ym2612"
    },
    {
      "channel": 0,
      "note": 22,
      "start": 170.8006,
      "duration": 0.1832,
      "velocity": 127,
      "chip": "ym2612"
    },
    {
      "channel": 1,
      "note": 49,
      "start": 170.8009,
      "duration": 0.183,
      "velocity": 102,
      "chip": "ym2612"
    },
    {
      "channel": 0,
      "note": 22,
      "start": 171.002,
      "duration": 0.3817,
      "velocity": 127,
      "chip": "ym2612"
    },
    {
      "channel": 1,
      "note": 49,
      "start": 171.0023,
      "duration": 0.3816,
      "velocity": 102,
      "chip": "ym2612"
    },
    {
      "channel": 0,
      "note": 42,
      "start": 171.402,
      "duration": 0.1817,
      "velocity": 127,
      "chip": "ym2612"
    },
    {
      "channel": 1,
      "note": 49,
      "start": 171.4023,
      "duration": 0.1816,
      "velocity": 102,
      "chip": "ym2612"
    },
    {
      "channel": 0,
      "note": 22,
      "start": 171.6022,
      "duration": 0.1816,
      "velocity": 127,
      "chip": "ym2612"
    },
    {
      "channel": 1,
      "note": 49,
      "start": 171.6024,
      "duration": 0.3815,
      "velocity": 102,
      "chip": "ym2612"
    },
    {
      "channel": 0,
      "note": 42,
      "start": 171.8005,
      "duration": 0.1833,
      "velocity": 127,
      "chip": "ym2612"
    },
    {
      "channel": 0,
      "note": 42,
      "start": 172.0006,
      "duration": 0.1831,
      "velocity": 127,
      "chip": "ym2612"
    },
    {
      "channel": 1,
      "note": 49,
      "start": 172.0008,
      "duration": 0.183,
      "velocity": 102,
      "chip": "ym2612"
    },
    {
      "channel": 2,
      "note": 73,
      "start": 172.0011,
      "duration": 0.1829,
      "velocity": 83,
      "chip": "ym2612"
    },
    {
      "channel": 0,
      "note": 42,
      "start": 172.2006,
      "duration": 0.1832,
      "velocity": 127,
      "chip": "ym2612"
    },
    {
      "channel": 1,
      "note": 49,
      "start": 172.2009,
      "duration": 0.383,
      "velocity": 102,
      "chip": "ym2612"
    },
    {
      "channel": 2,
      "note": 73,
      "start": 172.2012,
      "duration": 0.3828,
      "velocity": 83,
      "chip": "ym2612"
    },
    {
      "channel": 0,
      "note": 42,
      "start": 172.4006,
      "duration": 0.1832,
      "velocity": 127,
      "chip": "ym2612"
    },
    {
      "channel": 0,
      "note": 42,
      "start": 172.6006,
      "duration": 0.1832,
      "velocity": 127,
      "chip": "ym2612"
    },
    {
      "channel": 1,
      "note": 49,
      "start": 172.6009,
      "duration": 0.183,
      "velocity": 102,
      "chip": "ym2612"
    },
    {
      "channel": 2,
      "note": 80,
      "start": 172.6012,
      "duration": 0.1829,
      "velocity": 83,
      "chip": "ym2612"
    },
    {
      "channel": 0,
      "note": 42,
      "start": 172.8024,
      "duration": 0.3814,
      "velocity": 127,
      "chip": "ym2612"
    },
    {
      "channel": 1,
      "note": 49,
      "start": 172.8041,
      "duration": 0.3798,
      "velocity": 102,
      "chip": "ym2612"
    }
  ]
}