{
  "track_name": "06 - Keima Ittou's Theme",
  "duration_sec": 25.774,
  "sample_rate": 44100,
  "note_count": 467,
  "unique_pitches": 28,
  "pitch_range": 59,
  "avg_note_duration": 0.26,
  "reconstruction_stats": {
    "notes_reconstructed": 467,
    "keyon_events": 467,
    "keyoff_events": 462,
    "orphan_keyons": 5,
    "unique_pitches": 28,
    "pitch_range": 59,
    "avg_duration_sec": 0.26
  },
  "metadata": {
    "source": "S\\Shougi no Hoshi\\06 - Keima Ittou's Theme.vgz"
  },
  "notes": [
    {
      "channel": 0,
      "note": 46,
      "start": 0.0438,
      "duration": 0.2121,
      "velocity": 100,
      "chip": "ym2612"
    },
    {
      "channel": 1,
      "note": 74,
      "start": 0.0475,
      "duration": 1.6141,
      "velocity": 100,
      "chip": "ym2612"
    },
    {
      "channel": 3,
      "note": 77,
      "start": 0.0515,
      "duration": 3.2124,
      "velocity": 91,
      "chip": "ym2612"
    },
    {
      "channel": 2,
      "note": 30,
      "start": 0.0597,
      "duration": 0.1307,
      "velocity": 119,
      "chip": "ym2612"
    },
    {
      "channel": 0,
      "note": 46,
      "start": 0.2564,
      "duration": 0.2024,
      "velocity": 100,
      "chip": "ym2612"
    },
    {
      "channel": 0,
      "note": 50,
      "start": 0.4595,
      "duration": 0.1969,
      "velocity": 100,
      "chip": "ym2612"
    },
    {
      "channel": 4,
      "note": 72,
      "start": 0.461,
      "duration": 0.1969,
      "velocity": 97,
      "chip": "ym2612"
    },
    {
      "channel": 2,
      "note": 78,
      "start": 0.462,
      "duration": 0.263,
      "velocity": 127,
      "chip": "ym2612"
    },
    {
      "channel": 5,
      "note": 72,
      "start": 0.5583,
      "duration": 0.2024,
      "velocity": 97,
      "chip": "ym2612"
    },
    {
      "channel": 0,
      "note": 50,
      "start": 0.6569,
      "duration": 0.2024,
      "velocity": 100,
      "chip": "ym2612"
    },
    {
      "channel": 4,
      "note": 74,
      "start": 0.6585,
      "duration": 0.2024,
      "velocity": 97,
      "chip": "ym2612"
    },
    {
      "channel": 5,
      "note": 74,
      "start": 0.7614,
      "duration": 0.1969,
      "velocity": 97,
      "chip": "ym2612"
    },
    {
      "channel": 2,
      "note": 78,
      "start": 0.7622,
      "duration": 0.0944,
      "velocity": 127,
      "chip": "ym2612"
    },
    {
      "channel": 0,
      "note": 53,
      "start": 0.86,
      "duration": 0.1997,
      "velocity": 100,
      "chip": "ym2612"
    },
    {
      "channel": 4,
      "note": 77,
      "start": 0.8615,
      "duration": 0.1996,
      "velocity": 97,
      "chip": "ym2612"
    },
    {
      "channel": 2,
      "note": 30,
      "start": 0.8627,
      "duration": 0.1293,
      "velocity": 119,
      "chip": "ym2612"
    },
    {
      "channel": 5,
      "note": 77,
      "start": 0.9588,
      "duration": 0.1997,
      "velocity": 97,
      "chip": "ym2612"
    },
    {
      "channel": 0,
      "note": 53,
      "start": 1.0602,
      "duration": 0.1997,
      "velocity": 100,
      "chip": "ym2612"
    },
    {
      "channel": 4,
      "note": 79,
      "start": 1.0618,
      "duration": 0.1997,
      "velocity": 97,
      "chip": "ym2612"
    },
    {
      "channel": 2,
      "note": 30,
      "start": 1.0629,
      "duration": 0.1293,
      "velocity": 119,
      "chip": "ym2612"
    },
    {
      "channel": 5,
      "note": 79,
      "start": 1.1591,
      "duration": 0.1994,
      "velocity": 97,
      "chip": "ym2612"
    },
    {
      "channel": 0,
      "note": 55,
      "start": 1.2605,
      "duration": 0.1997,
      "velocity": 100,
      "chip": "ym2612"
    },
    {
      "channel": 2,
      "note": 78,
      "start": 1.2628,
      "duration": 0.1946,
      "velocity": 127,
      "chip": "ym2612"
    },
    {
      "channel": 0,
      "note": 53,
      "start": 1.4607,
      "duration": 0.2001,
      "velocity": 100,
      "chip": "ym2612"
    },
    {
      "channel": 4,
      "note": 80,
      "start": 1.4623,
      "duration": 0.3972,
      "velocity": 97,
      "chip": "ym2612"
    },
    {
      "channel": 2,
      "note": 30,
      "start": 1.4632,
      "duration": 0.1296,
      "velocity": 119,
      "chip": "ym2612"
    },
    {
      "channel": 5,
      "note": 80,
      "start": 1.5596,
      "duration": 0.3999,
      "velocity": 97,
      "chip": "ym2612"
    },
    {
      "channel": 0,
      "note": 46,
      "start": 1.6614,
      "duration": 0.1965,
      "velocity": 100,
      "chip": "ym2612"
    },
    {
      "channel": 1,
      "note": 75,
      "start": 1.6622,
      "duration": 1.6015,
      "velocity": 100,
      "chip": "ym2612"
    },
    {
      "channel": 2,
      "note": 30,
      "start": 1.6645,
      "duration": 0.1285,
      "velocity": 119,
      "chip": "ym2612"
    },
    {
      "channel": 0,
      "note": 46,
      "start": 1.8585,
      "duration": 0.2024,
      "velocity": 100,
      "chip": "ym2612"
    },
    {
      "channel": 4,
      "note": 80,
      "start": 1.8601,
      "duration": 0.2024,
      "velocity": 97,
      "chip": "ym2612"
    },
    {
      "channel": 5,
      "note": 80,
      "start": 1.9602,
      "duration": 0.1996,
      "velocity": 97,
      "chip": "ym2612"
    },
    {
      "channel": 0,
      "note": 50,
      "start": 2.0615,
      "duration": 0.1969,
      "velocity": 100,
      "chip": "ym2612"
    },
    {
      "channel": 4,
      "note": 79,
      "start": 2.0631,
      "duration": 0.1969,
      "velocity": 97,
      "chip": "ym2612"
    },
    {
      "channel": 2,
      "note": 78,
      "start": 2.0643,
      "duration": 0.2628,
      "velocity": 127,
      "chip": "ym2612"
    },
    {
      "channel": 5,
      "note": 79,
      "start": 2.1604,
      "duration": 0.2024,
      "velocity": 97,
      "chip": "ym2612"
    },
    {
      "channel": 0,
      "note": 50,
      "start": 2.259,
      "duration": 0.2024,
      "velocity": 100,
      "chip": "ym2612"
    },
    {
      "channel": 4,
      "note": 77,
      "start": 2.2606,
      "duration": 0.2024,
      "velocity": 97,
      "chip": "ym2612"
    },
    {
      "channel": 5,
      "note": 77,
      "start": 2.3634,
      "duration": 0.1969,
      "velocity": 97,
      "chip": "ym2612"
    },
    {
      "channel": 2,
      "note": 78,
      "start": 2.3643,
      "duration": 0.0944,
      "velocity": 127,
      "chip": "ym2612"
    },
    {
      "channel": 0,
      "note": 53,
      "start": 2.462,
      "duration": 0.1997,
      "velocity": 100,
      "chip": "ym2612"
    },
    {
      "channel": 4,
      "note": 72,
      "start": 2.4636,
      "duration": 0.1996,
      "velocity": 97,
      "chip": "ym2612"
    },
    {
      "channel": 2,
      "note": 30,
      "start": 2.4648,
      "duration": 0.1293,
      "velocity": 119,
      "chip": "ym2612"
    },
    {
      "channel": 5,
      "note": 72,
      "start": 2.5609,
      "duration": 0.1997,
      "velocity": 97,
      "chip": "ym2612"
    },
    {
      "channel": 0,
      "note": 53,
      "start": 2.6623,
      "duration": 0.1997,
      "velocity": 100,
      "chip": "ym2612"
    },
    {
      "channel": 4,
      "note": 74,
      "start": 2.6638,
      "duration": 0.1997,
      "velocity": 97,
      "chip": "ym2612"
    },
    {
      "channel": 2,
      "note": 30,
      "start": 2.665,
      "duration": 0.1293,
      "velocity": 119,
      "chip": "ym2612"
    },
    {
      "channel": 5,
      "note": 74,
      "start": 2.7612,
      "duration": 0.1997,
      "velocity": 97,
      "chip": "ym2612"
    },
    {
      "channel": 0,
      "note": 55,
      "start": 2.8625,
      "duration": 0.1997,
      "velocity": 100,
      "chip": "ym2612"
    },
    {
      "channel": 4,
      "note": 72,
      "start": 2.8641,
      "duration": 0.1997,
      "velocity": 97,
      "chip": "ym2612"
    },
    {
      "channel": 2,
      "note": 78,
      "start": 2.8653,
      "duration": 0.1941,
      "velocity": 127,
      "chip": "ym2612"
    },
    {
      "channel": 5,
      "note": 72,
      "start": 2.9614,
      "duration": 0.1997,
      "velocity": 97,
      "chip": "ym2612"
    },
    {
      "channel": 0,
      "note": 53,
      "start": 3.0628,
      "duration": 0.2001,
      "velocity": 100,
      "chip": "ym2612"
    },
    {
      "channel": 4,
      "note": 70,
      "start": 3.0643,
      "duration": 1.4011,
      "velocity": 97,
      "chip": "ym2612"
    },
    {
      "channel": 2,
      "note": 30,
      "start": 3.0655,
      "duration": 0.1293,
      "velocity": 119,
      "chip": "ym2612"
    },
    {
      "channel": 5,
      "note": 70,
      "start": 3.1617,
      "duration": 1.4006,
      "velocity": 97,
      "chip": "ym2612"
    },
    {
      "channel": 0,
      "note": 51,
      "start": 3.2635,
      "duration": 0.1993,
      "velocity": 100,
      "chip": "ym2612"
    },
    {
      "channel": 2,
      "note": 30,
      "start": 3.266,
      "duration": 0.1285,
      "velocity": 119,
      "chip": "ym2612"
    },
    {
      "channel": 0,
      "note": 51,
      "start": 3.4633,
      "duration": 0.1997,
      "velocity": 100,
      "chip": "ym2612"
    },
    {
      "channel": 2,
      "note": 30,
      "start": 3.465,
      "duration": 0.1297,
      "velocity": 119,
      "chip": "ym2612"
    },
    {
      "channel": 0,
      "note": 55,
      "start": 3.6636,
      "duration": 0.1969,
      "velocity": 100,
      "chip": "ym2612"
    },
    {
      "channel": 1,
      "note": 75,
      "start": 3.6643,
      "duration": 0.1969,
      "velocity": 100,
      "chip": "ym2612"
    },
    {
      "channel": 3,
      "note": 79,
      "start": 3.6653,
      "duration": 0.1963,
      "velocity": 91,
      "chip": "ym2612"
    },
    {
      "channel": 2,
      "note": 78,
      "start": 3.6668,
      "duration": 0.2617,
      "velocity": 127,
      "chip": "ym2612"
    },
    {
      "channel": 0,
      "note": 55,
      "start": 3.8611,
      "duration": 0.2024,
      "velocity": 100,
      "chip": "ym2612"
    },
    {
      "channel": 2,
      "note": 78,
      "start": 3.9653,
      "duration": 0.0954,
      "velocity": 127,
      "chip": "ym2612"
    },
    {
      "channel": 0,
      "note": 58,
      "start": 4.0641,
      "duration": 0.1997,
      "velocity": 100,
      "chip": "ym2612"
    },
    {
      "channel": 1,
      "note": 75,
      "start": 4.0648,
      "duration": 0.1997,
      "velocity": 100,
      "chip": "ym2612"
    },
    {
      "channel": 3,
      "note": 72,
      "start": 4.0658,
      "duration": 0.1995,
      "velocity": 91,
      "chip": "ym2612"
    },
    {
      "channel": 2,
      "note": 30,
      "start": 4.0673,
      "duration": 0.1288,
      "velocity": 119,
      "chip": "ym2612"
    },
    {
      "channel": 0,
      "note": 58,
      "start": 4.2644,
      "duration": 0.1997,
      "velocity": 100,
      "chip": "ym2612"
    },
    {
      "channel": 1,
      "note": 75,
      "start": 4.2651,
      "duration": 0.1997,
      "velocity": 100,
      "chip": "ym2612"
    },
    {
      "channel": 3,
      "note": 74,
      "start": 4.266,
      "duration": 0.1991,
      "velocity": 91,
      "chip": "ym2612"
    },
    {
      "channel": 2,
      "note": 30,
      "start": 4.2676,
      "duration": 0.1289,
      "velocity": 119,
      "chip": "ym2612"
    },
    {
      "channel": 0,
      "note": 60,
      "start": 4.4646,
      "duration": 0.1997,
      "velocity": 100,
      "chip": "ym2612"
    },
    {
      "channel": 4,
      "note": 72,
      "start": 4.466,
      "duration": 0.2007,
      "velocity": 97,
      "chip": "ym2612"
    },
    {
      "channel": 2,
      "note": 78,
      "start": 4.4672,
      "duration": 0.1943,
      "velocity": 127,
      "chip": "ym2612"
    },
    {
      "channel": 5,
      "note": 72,
      "start": 4.5629,
      "duration": 0.2003,
      "velocity": 97,
      "chip": "ym2612"
    },
    {
      "channel": 0,
      "note": 58,
      "start": 4.6649,
      "duration": 0.2001,
      "velocity": 100,
      "chip": "ym2612"
    },
    {
      "channel": 1,
      "note": 75,
      "start": 4.6656,
      "duration": 0.6002,
      "velocity": 100,
      "chip": "ym2612"
    },
    {
      "channel": 3,
      "note": 79,
      "start": 4.6666,
      "duration": 0.6,
      "velocity": 91,
      "chip": "ym2612"
    },
    {
      "channel": 4,
      "note": 70,
      "start": 4.6673,
      "duration": 0.1992,
      "velocity": 97,
      "chip": "ym2612"
    },
    {
      "channel": 2,
      "note": 30,
      "start": 4.6685,
      "duration": 0.1285,
      "velocity": 119,
      "chip": "ym2612"
    },
    {
      "channel": 5,
      "note": 70,
      "start": 4.7637,
      "duration": 0.1994,
      "velocity": 97,
      "chip": "ym2612"
    },
    {
      "channel": 0,
      "note": 51,
      "start": 4.8655,
      "duration": 0.1965,
      "velocity": 100,
      "chip": "ym2612"
    },
    {
      "channel": 2,
      "note": 30,
      "start": 4.8678,
      "duration": 0.1288,
      "velocity": 119,
      "chip": "ym2612"
    },
    {
      "channel": 0,
      "note": 51,
      "start": 5.0626,
      "duration": 0.2024,
      "velocity": 100,
      "chip": "ym2612"
    },
    {
      "channel": 0,
      "note": 55,
      "start": 5.2656,
      "duration": 0.1969,
      "velocity": 100,
      "chip": "ym2612"
    },
    {
      "channel": 1,
      "note": 75,
      "start": 5.2664,
      "duration": 0.1969,
      "velocity": 100,
      "chip": "ym2612"
    },
    {
      "channel": 3,
      "note": 79,
      "start": 5.2673,
      "duration": 0.1963,
      "velocity": 91,
      "chip": "ym2612"
    },
    {
      "channel": 2,
      "note": 78,
      "start": 5.2684,
      "duration": 0.2617,
      "velocity": 127,
      "chip": "ym2612"
    },
    {
      "channel": 0,
      "note": 55,
      "start": 5.4631,
      "duration": 0.2024,
      "velocity": 100,
      "chip": "ym2612"
    },
    {
      "channel": 2,
      "note": 78,
      "start": 5.5668,
      "duration": 0.0959,
      "velocity": 127,
      "chip": "ym2612"
    },
    {
      "channel": 0,
      "note": 58,
      "start": 5.6661,
      "duration": 0.1997,
      "velocity": 100,
      "chip": "ym2612"
    },
    {
      "channel": 1,
      "note": 75,
      "start": 5.6669,
      "duration": 0.1997,
      "velocity": 100,
      "chip": "ym2612"
    },
    {
      "channel": 3,
      "note": 77,
      "start": 5.6678,
      "duration": 0.1995,
      "velocity": 91,
      "chip": "ym2612"
    },
    {
      "channel": 2,
      "note": 30,
      "start": 5.6688,
      "duration": 0.0941,
      "velocity": 119,
      "chip": "ym2612"
    },
    {
      "channel": 2,
      "note": 78,
      "start": 5.7677,
      "duration": 0.0953,
      "velocity": 127,
      "chip": "ym2612"
    },
    {
      "channel": 0,
      "note": 58,
      "start": 5.8664,
      "duration": 0.1997,
      "velocity": 100,
      "chip": "ym2612"
    },
    {
      "channel": 1,
      "note": 75,
      "start": 5.8672,
      "duration": 0.1997,
      "velocity": 100,
      "chip": "ym2612"
    },
    {
      "channel": 3,
      "note": 79,
      "start": 5.8681,
      "duration": 0.199,
      "velocity": 91,
      "chip": "ym2612"
    },
    {
      "channel": 2,
      "note": 30,
      "start": 5.8691,
      "duration": 0.1288,
      "velocity": 119,
      "chip": "ym2612"
    },
    {
      "channel": 0,
      "note": 60,
      "start": 6.0667,
      "duration": 0.1997,
      "velocity": 100,
      "chip": "ym2612"
    },
    {
      "channel": 2,
      "note": 78,
      "start": 6.0683,
      "duration": 0.1952,
      "velocity": 127,
      "chip": "ym2612"
    },
    {
      "channel": 0,
      "note": 58,
      "start": 6.2669,
      "duration": 0.2002,
      "velocity": 100,
      "chip": "ym2612"
    },
    {
      "channel": 1,
      "note": 74,
      "start": 6.2677,
      "duration": 0.3973,
      "velocity": 100,
      "chip": "ym2612"
    },
    {
      "channel": 3,
      "note": 77,
      "start": 6.2686,
      "duration": 0.3971,
      "velocity": 91,
      "chip": "ym2612"
    },
    {
      "channel": 2,
      "note": 30,
      "start": 6.2696,
      "duration": 0.1288,
      "velocity": 119,
      "chip": "ym2612"
    },
    {
      "channel": 0,
      "note": 46,
      "start": 6.4677,
      "duration": 0.1966,
      "velocity": 100,
      "chip": "ym2612"
    },
    {
      "channel": 2,
      "note": 30,
      "start": 6.4698,
      "duration": 0.129,
      "velocity": 119,
      "chip": "ym2612"
    },
    {
      "channel": 0,
      "note": 46,
      "start": 6.6648,
      "duration": 0.2023,
      "velocity": 100,
      "chip": "ym2612"
    },
    {
      "channel": 1,
      "note": 74,
      "start": 6.6656,
      "duration": 0.2023,
      "velocity": 100,
      "chip": "ym2612"
    },
    {
      "channel": 3,
      "note": 77,
      "start": 6.6665,
      "duration": 0.2021,
      "velocity": 91,
      "chip": "ym2612"
    },
    {
      "channel": 0,
      "note": 50,
      "start": 6.8677,
      "duration": 0.1971,
      "velocity": 100,
      "chip": "ym2612"
    },
    {
      "channel": 1,
      "note": 74,
      "start": 6.8684,
      "duration": 0.197,
      "velocity": 100,
      "chip": "ym2612"
    },
    {
      "channel": 3,
      "note": 77,
      "start": 6.8694,
      "duration": 0.1968,
      "velocity": 91,
      "chip": "ym2612"
    },
    {
      "channel": 4,
      "note": 72,
      "start": 6.8701,
      "duration": 0.197,
      "velocity": 97,
      "chip": "ym2612"
    },
    {
      "channel": 2,
      "note": 78,
      "start": 6.8711,
      "duration": 0.2622,
      "velocity": 127,
      "chip": "ym2612"
    },
    {
      "channel": 5,
      "note": 72,
      "start": 6.9666,
      "duration": 0.1997,
      "velocity": 97,
      "chip": "ym2612"
    },
    {
      "channel": 0,
      "note": 50,
      "start": 7.0653,
      "duration": 0.2023,
      "velocity": 100,
      "chip": "ym2612"
    },
    {
      "channel": 1,
      "note": 74,
      "start": 7.0661,
      "duration": 0.2023,
      "velocity": 100,
      "chip": "ym2612"
    },
    {
      "channel": 3,
      "note": 77,
      "start": 7.067,
      "duration": 0.2021,
      "velocity": 91,
      "chip": "ym2612"
    },
    {
      "channel": 4,
      "note": 74,
      "start": 7.0677,
      "duration": 0.2023,
      "velocity": 97,
      "chip": "ym2612"
    },
    {
      "channel": 5,
      "note": 74,
      "start": 7.1668,
      "duration": 0.1997,
      "velocity": 97,
      "chip": "ym2612"
    },
    {
      "channel": 0,
      "note": 53,
      "start": 7.2682,
      "duration": 0.1997,
      "velocity": 100,
      "chip": "ym2612"
    },
    {
      "channel": 1,
      "note": 74,
      "start": 7.2689,
      "duration": 0.1997,
      "velocity": 100,
      "chip": "ym2612"
    },
    {
      "channel": 3,
      "note": 77,
      "start": 7.2699,
      "duration": 0.1995,
      "velocity": 91,
      "chip": "ym2612"
    },
    {
      "channel": 4,
      "note": 77,
      "start": 7.2706,
      "duration": 0.1997,
      "velocity": 97,
      "chip": "ym2612"
    },
    {
      "channel": 2,
      "note": 30,
      "start": 7.2718,
      "duration": 0.1285,
      "velocity": 119,
      "chip": "ym2612"
    },
    {
      "channel": 5,
      "note": 77,
      "start": 7.3671,
      "duration": 0.1997,
      "velocity": 97,
      "chip": "ym2612"
    },
    {
      "channel": 0,
      "note": 53,
      "start": 7.4685,
      "duration": 0.1997,
      "velocity": 100,
      "chip": "ym2612"
    },
    {
      "channel": 1,
      "note": 74,
      "start": 7.4692,
      "duration": 0.1997,
      "velocity": 100,
      "chip": "ym2612"
    },
    {
      "channel": 3,
      "note": 77,
      "start": 7.4701,
      "duration": 0.1995,
      "velocity": 91,
      "chip": "ym2612"
    },
    {
      "channel": 4,
      "note": 79,
      "start": 7.4709,
      "duration": 0.1997,
      "velocity": 97,
      "chip": "ym2612"
    },
    {
      "channel": 2,
      "note": 30,
      "start": 7.4721,
      "duration": 0.1285,
      "velocity": 119,
      "chip": "ym2612"
    },
    {
      "channel": 5,
      "note": 79,
      "start": 7.5674,
      "duration": 0.1994,
      "velocity": 97,
      "chip": "ym2612"
    },
    {
      "channel": 0,
      "note": 55,
      "start": 7.6687,
      "duration": 0.1971,
      "velocity": 100,
      "chip": "ym2612"
    },
    {
      "channel": 1,
      "note": 74,
      "start": 7.6695,
      "duration": 0.1971,
      "velocity": 100,
      "chip": "ym2612"
    },
    {
      "channel": 3,
      "note": 77,
      "start": 7.6704,
      "duration": 0.1969,
      "velocity": 91,
      "chip": "ym2612"
    },
    {
      "channel": 2,
      "note": 78,
      "start": 7.6719,
      "duration": 0.2621,
      "velocity": 127,
      "chip": "ym2612"
    },
    {
      "channel": 0,
      "note": 53,
      "start": 7.8663,
      "duration": 0.2027,
      "velocity": 100,
      "chip": "ym2612"
    },
    {
      "channel": 1,
      "note": 75,
      "start": 7.8671,
      "duration": 0.3999,
      "velocity": 100,
      "chip": "ym2612"
    },
    {
      "channel": 3,
      "note": 77,
      "start": 7.868,
      "duration": 0.3997,
      "velocity": 91,
      "chip": "ym2612"
    },
    {
      "channel": 4,
      "note": 80,
      "start": 7.8688,
      "duration": 0.3999,
      "velocity": 97,
      "chip": "ym2612"
    },
    {
      "channel": 5,
      "note": 80,
      "start": 7.9679,
      "duration": 0.3999,
      "velocity": 97,
      "chip": "ym2612"
    },
    {
      "channel": 0,
      "note": 46,
      "start": 8.0697,
      "duration": 0.1966,
      "velocity": 100,
      "chip": "ym2612"
    },
    {
      "channel": 2,
      "note": 30,
      "start": 8.072,
      "duration": 0.1293,
      "velocity": 119,
      "chip": "ym2612"
    },
    {
      "channel": 0,
      "note": 46,
      "start": 8.2669,
      "duration": 0.2023,
      "velocity": 100,
      "chip": "ym2612"
    },
    {
      "channel": 1,
      "note": 75,
      "start": 8.2676,
      "duration": 0.2023,
      "velocity": 100,
      "chip": "ym2612"
    },
    {
      "channel": 3,
      "note": 77,
      "start": 8.2685,
      "duration": 0.2021,
      "velocity": 91,
      "chip": "ym2612"
    },
    {
      "channel": 4,
      "note": 80,
      "start": 8.2693,
      "duration": 0.2023,
      "velocity": 97,
      "chip": "ym2612"
    },
    {
      "channel": 5,
      "note": 80,
      "start": 8.3684,
      "duration": 0.1996,
      "velocity": 97,
      "chip": "ym2612"
    },
    {
      "channel": 0,
      "note": 50,
      "start": 8.4698,
      "duration": 0.1971,
      "velocity": 100,
      "chip": "ym2612"
    },
    {
      "channel": 1,
      "note": 75,
      "start": 8.4705,
      "duration": 0.197,
      "velocity": 100,
      "chip": "ym2612"
    },
    {
      "channel": 3,
      "note": 77,
      "start": 8.4714,
      "duration": 0.1968,
      "velocity": 91,
      "chip": "ym2612"
    },
    {
      "channel": 4,
      "note": 79,
      "start": 8.4722,
      "duration": 0.197,
      "velocity": 97,
      "chip": "ym2612"
    },
    {
      "channel": 2,
      "note": 78,
      "start": 8.4734,
      "duration": 0.2619,
      "velocity": 127,
      "chip": "ym2612"
    },
    {
      "channel": 5,
      "note": 79,
      "start": 8.5686,
      "duration": 0.1997,
      "velocity": 97,
      "chip": "ym2612"
    },
    {
      "channel": 0,
      "note": 50,
      "start": 8.6674,
      "duration": 0.2023,
      "velocity": 100,
      "chip": "ym2612"
    },
    {
      "channel": 1,
      "note": 75,
      "start": 8.6681,
      "duration": 0.2023,
      "velocity": 100,
      "chip": "ym2612"
    },
    {
      "channel": 3,
      "note": 77,
      "start": 8.669,
      "duration": 0.2021,
      "velocity": 91,
      "chip": "ym2612"
    },
    {
      "channel": 4,
      "note": 77,
      "start": 8.6698,
      "duration": 0.2023,
      "velocity": 97,
      "chip": "ym2612"
    },
    {
      "channel": 5,
      "note": 77,
      "start": 8.7689,
      "duration": 0.2001,
      "velocity": 97,
      "chip": "ym2612"
    },
    {
      "channel": 0,
      "note": 53,
      "start": 8.8703,
      "duration": 0.1997,
      "velocity": 100,
      "chip": "ym2612"
    },
    {
      "channel": 1,
      "note": 75,
      "start": 8.871,
      "duration": 0.1997,
      "velocity": 100,
      "chip": "ym2612"
    },
    {
      "channel": 3,
      "note": 77,
      "start": 8.8719,
      "duration": 0.1995,
      "velocity": 91,
      "chip": "ym2612"
    },
    {
      "channel": 4,
      "note": 79,
      "start": 8.8727,
      "duration": 0.0955,
      "velocity": 97,
      "chip": "ym2612"
    },
    {
      "channel": 2,
      "note": 30,
      "start": 8.8739,
      "duration": 0.1285,
      "velocity": 119,
      "chip": "ym2612"
    },
    {
      "channel": 4,
      "note": 82,
      "start": 8.9688,
      "duration": 0.3038,
      "velocity": 97,
      "chip": "ym2612"
    },
    {
      "channel": 5,
      "note": 79,
      "start": 8.9696,
      "duration": 0.1031,
      "velocity": 97,
      "chip": "ym2612"
    },
    {
      "channel": 0,
      "note": 53,
      "start": 9.0705,
      "duration": 0.1997,
      "velocity": 100,
      "chip": "ym2612"
    },
    {
      "channel": 1,
      "note": 75,
      "start": 9.0713,
      "duration": 0.1997,
      "velocity": 100,
      "chip": "ym2612"
    },
    {
      "channel": 3,
      "note": 77,
      "start": 9.0722,
      "duration": 0.1995,
      "velocity": 91,
      "chip": "ym2612"
    },
    {
      "channel": 5,
      "note": 82,
      "start": 9.0733,
      "duration": 0.2962,
      "velocity": 97,
      "chip": "ym2612"
    },
    {
      "channel": 2,
      "note": 30,
      "start": 9.0741,
      "duration": 0.1285,
      "velocity": 119,
      "chip": "ym2612"
    },
    {
      "channel": 0,
      "note": 55,
      "start": 9.2708,
      "duration": 0.1997,
      "velocity": 100,
      "chip": "ym2612"
    },
    {
      "channel": 1,
      "note": 75,
      "start": 9.2715,
      "duration": 0.1997,
      "velocity": 100,
      "chip": "ym2612"
    },
    {
      "channel": 3,
      "note": 77,
      "start": 9.2724,
      "duration": 0.1995,
      "velocity": 91,
      "chip": "ym2612"
    },
    {
      "channel": 4,
      "note": 79,
      "start": 9.2732,
      "duration": 0.0955,
      "velocity": 97,
      "chip": "ym2612"
    },
    {
      "channel": 2,
      "note": 78,
      "start": 9.2744,
      "duration": 0.1932,
      "velocity": 127,
      "chip": "ym2612"
    },
    {
      "channel": 4,
      "note": 82,
      "start": 9.3694,
      "duration": 1.5054,
      "velocity": 97,
      "chip": "ym2612"
    },
    {
      "channel": 5,
      "note": 79,
      "start": 9.3701,
      "duration": 0.1031,
      "velocity": 97,
      "chip": "ym2612"
    },
    {
      "channel": 0,
      "note": 53,
      "start": 9.471,
      "duration": 0.2001,
      "velocity": 100,
      "chip": "ym2612"
    },
    {
      "channel": 1,
      "note": 75,
      "start": 9.4718,
      "duration": 0.2001,
      "velocity": 100,
      "chip": "ym2612"
    },
    {
      "channel": 3,
      "note": 77,
      "start": 9.4727,
      "duration": 0.1999,
      "velocity": 91,
      "chip": "ym2612"
    },
    {
      "channel": 5,
      "note": 82,
      "start": 9.4738,
      "duration": 1.4978,
      "velocity": 97,
      "chip": "ym2612"
    },
    {
      "channel": 2,
      "note": 30,
      "start": 9.4747,
      "duration": 0.1284,
      "velocity": 119,
      "chip": "ym2612"
    },
    {
      "channel": 0,
      "note": 51,
      "start": 9.6717,
      "duration": 0.1965,
      "velocity": 100,
      "chip": "ym2612"
    },
    {
      "channel": 1,
      "note": 75,
      "start": 9.6725,
      "duration": 1.2005,
      "velocity": 100,
      "chip": "ym2612"
    },
    {
      "channel": 3,
      "note": 79,
      "start": 9.6734,
      "duration": 0.0954,
      "velocity": 91,
      "chip": "ym2612"
    },
    {
      "channel": 2,
      "note": 30,
      "start": 9.6749,
      "duration": 0.1284,
      "velocity": 119,
      "chip": "ym2612"
    },
    {
      "channel": 3,
      "note": 82,
      "start": 9.7696,
      "duration": 0.3027,
      "velocity": 91,
      "chip": "ym2612"
    },
    {
      "channel": 0,
      "note": 51,
      "start": 9.8688,
      "duration": 0.2025,
      "velocity": 100,
      "chip": "ym2612"
    },
    {
      "channel": 0,
      "note": 55,
      "start": 10.0718,
      "duration": 0.1969,
      "velocity": 100,
      "chip": "ym2612"
    },
    {
      "channel": 3,
      "note": 79,
      "start": 10.0731,
      "duration": 0.0962,
      "velocity": 91,
      "chip": "ym2612"
    },
    {
      "channel": 2,
      "note": 78,
      "start": 10.0747,
      "duration": 0.2627,
      "velocity": 127,
      "chip": "ym2612"
    },
    {
      "channel": 3,
      "note": 82,
      "start": 10.1701,
      "duration": 0.3027,
      "velocity": 91,
      "chip": "ym2612"
    },
    {
      "channel": 0,
      "note": 55,
      "start": 10.2693,
      "duration": 0.2024,
      "velocity": 100,
      "chip": "ym2612"
    },
    {
      "channel": 2,
      "note": 78,
      "start": 10.3742,
      "duration": 0.0948,
      "velocity": 127,
      "chip": "ym2612"
    },
    {
      "channel": 0,
      "note": 58,
      "start": 10.4724,
      "duration": 0.1997,
      "velocity": 100,
      "chip": "ym2612"
    },
    {
      "channel": 3,
      "note": 79,
      "start": 10.4736,
      "duration": 0.0962,
      "velocity": 91,
      "chip": "ym2612"
    },
    {
      "channel": 2,
      "note": 30,
      "start": 10.4752,
      "duration": 0.1292,
      "velocity": 119,
      "chip": "ym2612"
    },
    {
      "channel": 3,
      "note": 82,
      "start": 10.5706,
      "duration": 0.3032,
      "velocity": 91,
      "chip": "ym2612"
    },
    {
      "channel": 0,
      "note": 58,
      "start": 10.6726,
      "duration": 0.1997,
      "velocity": 100,
      "chip": "ym2612"
    },
    {
      "channel": 2,
      "note": 30,
      "start": 10.6749,
      "duration": 0.1297,
      "velocity": 119,
      "chip": "ym2612"
    },
    {
      "channel": 0,
      "note": 60,
      "start": 10.8729,
      "duration": 0.1997,
      "velocity": 100,
      "chip": "ym2612"
    },
    {
      "channel": 1,
      "note": 75,
      "start": 10.8736,
      "duration": 0.1997,
      "velocity": 100,
      "chip": "ym2612"
    },
    {
      "channel": 3,
      "note": 79,
      "start": 10.8746,
      "duration": 0.0958,
      "velocity": 91,
      "chip": "ym2612"
    },
    {
      "channel": 4,
      "note": 84,
      "start": 10.8753,
      "duration": 0.1991,
      "velocity": 97,
      "chip": "ym2612"
    },
    {
      "channel": 2,
      "note": 78,
      "start": 10.8766,
      "duration": 0.1932,
      "velocity": 127,
      "chip": "ym2612"
    },
    {
      "channel": 3,
      "note": 82,
      "start": 10.9711,
      "duration": 0.3031,
      "velocity": 91,
      "chip": "ym2612"
    },
    {
      "channel": 5,
      "note": 84,
      "start": 10.9723,
      "duration": 0.1991,
      "velocity": 97,
      "chip": "ym2612"
    },
    {
      "channel": 0,
      "note": 58,
      "start": 11.0731,
      "duration": 0.2001,
      "velocity": 100,
      "chip": "ym2612"
    },
    {
      "channel": 1,
      "note": 79,
      "start": 11.0739,
      "duration": 0.2001,
      "velocity": 100,
      "chip": "ym2612"
    },
    {
      "channel": 4,
      "note": 82,
      "start": 11.0751,
      "duration": 0.1995,
      "velocity": 97,
      "chip": "ym2612"
    },
    {
      "channel": 2,
      "note": 30,
      "start": 11.0763,
      "duration": 0.1289,
      "velocity": 119,
      "chip": "ym2612"
    },
    {
      "channel": 5,
      "note": 82,
      "start": 11.172,
      "duration": 0.1988,
      "velocity": 97,
      "chip": "ym2612"
    },
    {
      "channel": 0,
      "note": 51,
      "start": 11.2738,
      "duration": 0.1965,
      "velocity": 100,
      "chip": "ym2612"
    },
    {
      "channel": 2,
      "note": 30,
      "start": 11.2759,
      "duration": 0.1283,
      "velocity": 119,
      "chip": "ym2612"
    },
    {
      "channel": 0,
      "note": 51,
      "start": 11.4709,
      "duration": 0.2025,
      "velocity": 100,
      "chip": "ym2612"
    },
    {
      "channel": 1,
      "note": 67,
      "start": 11.4716,
      "duration": 1.0035,
      "velocity": 100,
      "chip": "ym2612"
    },
    {
      "channel": 3,
      "note": 79,
      "start": 11.4725,
      "duration": 0.2018,
      "velocity": 91,
      "chip": "ym2612"
    },
    {
      "channel": 0,
      "note": 55,
      "start": 11.6739,
      "duration": 0.1969,
      "velocity": 100,
      "chip": "ym2612"
    },
    {
      "channel": 3,
      "note": 82,
      "start": 11.6752,
      "duration": 0.1967,
      "velocity": 91,
      "chip": "ym2612"
    },
    {
      "channel": 2,
      "note": 78,
      "start": 11.6762,
      "duration": 0.2627,
      "velocity": 127,
      "chip": "ym2612"
    },
    {
      "channel": 0,
      "note": 55,
      "start": 11.8714,
      "duration": 0.2024,
      "velocity": 100,
      "chip": "ym2612"
    },
    {
      "channel": 3,
      "note": 84,
      "start": 11.8727,
      "duration": 0.2022,
      "velocity": 91,
      "chip": "ym2612"
    },
    {
      "channel": 2,
      "note": 78,
      "start": 11.9757,
      "duration": 0.0953,
      "velocity": 127,
      "chip": "ym2612"
    },
    {
      "channel": 0,
      "note": 58,
      "start": 12.0744,
      "duration": 0.1997,
      "velocity": 100,
      "chip": "ym2612"
    },
    {
      "channel": 3,
      "note": 86,
      "start": 12.0757,
      "duration": 0.1995,
      "velocity": 91,
      "chip": "ym2612"
    },
    {
      "channel": 2,
      "note": 30,
      "start": 12.0767,
      "duration": 0.0945,
      "velocity": 119,
      "chip": "ym2612"
    },
    {
      "channel": 2,
      "note": 78,
      "start": 12.176,
      "duration": 0.0953,
      "velocity": 127,
      "chip": "ym2612"
    },
    {
      "channel": 0,
      "note": 58,
      "start": 12.2747,
      "duration": 0.1997,
      "velocity": 100,
      "chip": "ym2612"
    },
    {
      "channel": 3,
      "note": 84,
      "start": 12.2759,
      "duration": 0.1995,
      "velocity": 91,
      "chip": "ym2612"
    },
    {
      "channel": 2,
      "note": 30,
      "start": 12.277,
      "duration": 0.1292,
      "velocity": 119,
      "chip": "ym2612"
    },
    {
      "channel": 0,
      "note": 60,
      "start": 12.4749,
      "duration": 0.1997,
      "velocity": 100,
      "chip": "ym2612"
    },
    {
      "channel": 3,
      "note": 82,
      "start": 12.4762,
      "duration": 0.1992,
      "velocity": 91,
      "chip": "ym2612"
    },
    {
      "channel": 2,
      "note": 78,
      "start": 12.4775,
      "duration": 0.1943,
      "velocity": 127,
      "chip": "ym2612"
    },
    {
      "channel": 0,
      "note": 58,
      "start": 12.6752,
      "duration": 0.2002,
      "velocity": 100,
      "chip": "ym2612"
    },
    {
      "channel": 3,
      "note": 79,
      "start": 12.6762,
      "duration": 0.2007,
      "velocity": 91,
      "chip": "ym2612"
    },
    {
      "channel": 4,
      "note": 84,
      "start": 12.677,
      "duration": 0.2008,
      "velocity": 97,
      "chip": "ym2612"
    },
    {
      "channel": 2,
      "note": 30,
      "start": 12.6779,
      "duration": 0.1291,
      "velocity": 119,
      "chip": "ym2612"
    },
    {
      "channel": 5,
      "note": 84,
      "start": 12.7738,
      "duration": 0.1999,
      "velocity": 97,
      "chip": "ym2612"
    },
    {
      "channel": 0,
      "note": 51,
      "start": 12.8759,
      "duration": 0.1965,
      "velocity": 100,
      "chip": "ym2612"
    },
    {
      "channel": 1,
      "note": 79,
      "start": 12.8767,
      "duration": 1.6012,
      "velocity": 100,
      "chip": "ym2612"
    },
    {
      "channel": 3,
      "note": 82,
      "start": 12.8776,
      "duration": 0.3988,
      "velocity": 91,
      "chip": "ym2612"
    },
    {
      "channel": 4,
      "note": 85,
      "start": 12.8784,
      "duration": 0.399,
      "velocity": 97,
      "chip": "ym2612"
    },
    {
      "channel": 2,
      "note": 30,
      "start": 12.8796,
      "duration": 0.1279,
      "velocity": 119,
      "chip": "ym2612"
    },
    {
      "channel": 5,
      "note": 85,
      "start": 12.9744,
      "duration": 0.3999,
      "velocity": 97,
      "chip": "ym2612"
    },
    {
      "channel": 0,
      "note": 51,
      "start": 13.0731,
      "duration": 0.2023,
      "velocity": 100,
      "chip": "ym2612"
    },
    {
      "channel": 0,
      "note": 55,
      "start": 13.2759,
      "duration": 0.1971,
      "velocity": 100,
      "chip": "ym2612"
    },
    {
      "channel": 3,
      "note": 82,
      "start": 13.2772,
      "duration": 0.1968,
      "velocity": 91,
      "chip": "ym2612"
    },
    {
      "channel": 4,
      "note": 85,
      "start": 13.278,
      "duration": 0.197,
      "velocity": 97,
      "chip": "ym2612"
    },
    {
      "channel": 2,
      "note": 30,
      "start": 13.2792,
      "duration": 0.1288,
      "velocity": 119,
      "chip": "ym2612"
    },
    {
      "channel": 5,
      "note": 85,
      "start": 13.3749,
      "duration": 0.1996,
      "velocity": 97,
      "chip": "ym2612"
    },
    {
      "channel": 0,
      "note": 55,
      "start": 13.4736,
      "duration": 0.2023,
      "velocity": 100,
      "chip": "ym2612"
    },
    {
      "channel": 3,
      "note": 81,
      "start": 13.4749,
      "duration": 0.2021,
      "velocity": 91,
      "chip": "ym2612"
    },
    {
      "channel": 4,
      "note": 84,
      "start": 13.4756,
      "duration": 0.2023,
      "velocity": 97,
      "chip": "ym2612"
    },
    {
      "channel": 5,
      "note": 84,
      "start": 13.5751,
      "duration": 0.1997,
      "velocity": 97,
      "chip": "ym2612"
    },
    {
      "channel": 0,
      "note": 58,
      "start": 13.6765,
      "duration": 0.1997,
      "velocity": 100,
      "chip": "ym2612"
    },
    {
      "channel": 3,
      "note": 79,
      "start": 13.6777,
      "duration": 0.1995,
      "velocity": 91,
      "chip": "ym2612"
    },
    {
      "channel": 4,
      "note": 82,
      "start": 13.6785,
      "duration": 0.1997,
      "velocity": 97,
      "chip": "ym2612"
    },
    {
      "channel": 2,
      "note": 30,
      "start": 13.6797,
      "duration": 0.1288,
      "velocity": 119,
      "chip": "ym2612"
    },
    {
      "channel": 5,
      "note": 82,
      "start": 13.7754,
      "duration": 0.1996,
      "velocity": 97,
      "chip": "ym2612"
    },
    {
      "channel": 0,
      "note": 58,
      "start": 13.8767,
      "duration": 0.1997,
      "velocity": 100,
      "chip": "ym2612"
    },
    {
      "channel": 3,
      "note": 77,
      "start": 13.878,
      "duration": 0.1995,
      "velocity": 91,
      "chip": "ym2612"
    },
    {
      "channel": 4,
      "note": 79,
      "start": 13.8788,
      "duration": 0.199,
      "velocity": 97,
      "chip": "ym2612"
    },
    {
      "channel": 2,
      "note": 78,
      "start": 13.88,
      "duration": 0.1936,
      "velocity": 127,
      "chip": "ym2612"
    },
    {
      "channel": 5,
      "note": 79,
      "start": 13.9756,
      "duration": 0.199,
      "velocity": 97,
      "chip": "ym2612"
    },
    {
      "channel": 0,
      "note": 60,
      "start": 14.077,
      "duration": 0.1971,
      "velocity": 100,
      "chip": "ym2612"
    },
    {
      "channel": 2,
      "note": 30,
      "start": 14.0791,
      "duration": 0.129,
      "velocity": 119,
      "chip": "ym2612"
    },
    {
      "channel": 0,
      "note": 58,
      "start": 14.2746,
      "duration": 0.2026,
      "velocity": 100,
      "chip": "ym2612"
    },
    {
      "channel": 3,
      "note": 82,
      "start": 14.2759,
      "duration": 0.4023,
      "velocity": 91,
      "chip": "ym2612"
    },
    {
      "channel": 4,
      "note": 85,
      "start": 14.2767,
      "duration": 0.4025,
      "velocity": 97,
      "chip": "ym2612"
    },
    {
      "channel": 5,
      "note": 85,
      "start": 14.3761,
      "duration": 0.3999,
      "velocity": 97,
      "chip": "ym2612"
    },
    {
      "channel": 0,
      "note": 53,
      "start": 14.4778,
      "duration": 0.1994,
      "velocity": 100,
      "chip": "ym2612"
    },
    {
      "channel": 1,
      "note": 81,
      "start": 14.4785,
      "duration": 1.6015,
      "velocity": 100,
      "chip": "ym2612"
    },
    {
      "channel": 2,
      "note": 30,
      "start": 14.4805,
      "duration": 0.129,
      "velocity": 119,
      "chip": "ym2612"
    },
    {
      "channel": 0,
      "note": 53,
      "start": 14.6777,
      "duration": 0.1997,
      "velocity": 100,
      "chip": "ym2612"
    },
    {
      "channel": 3,
      "note": 82,
      "start": 14.679,
      "duration": 0.1995,
      "velocity": 91,
      "chip": "ym2612"
    },
    {
      "channel": 4,
      "note": 85,
      "start": 14.6798,
      "duration": 0.1996,
      "velocity": 97,
      "chip": "ym2612"
    },
    {
      "channel": 2,
      "note": 30,
      "start": 14.681,
      "duration": 0.1288,
      "velocity": 119,
      "chip": "ym2612"
    },
    {
      "channel": 5,
      "note": 85,
      "start": 14.7767,
      "duration": 0.1996,
      "velocity": 97,
      "chip": "ym2612"
    },
    {
      "channel": 0,
      "note": 57,
      "start": 14.878,
      "duration": 0.1997,
      "velocity": 100,
      "chip": "ym2612"
    },
    {
      "channel": 3,
      "note": 81,
      "start": 14.8793,
      "duration": 0.1995,
      "velocity": 91,
      "chip": "ym2612"
    },
    {
      "channel": 4,
      "note": 84,
      "start": 14.88,
      "duration": 0.1996,
      "velocity": 97,
      "chip": "ym2612"
    },
    {
      "channel": 2,
      "note": 30,
      "start": 14.8812,
      "duration": 0.1288,
      "velocity": 119,
      "chip": "ym2612"
    },
    {
      "channel": 5,
      "note": 84,
      "start": 14.9769,
      "duration": 0.1996,
      "velocity": 97,
      "chip": "ym2612"
    },
    {
      "channel": 0,
      "note": 57,
      "start": 15.0783,
      "duration": 0.1971,
      "velocity": 100,
      "chip": "ym2612"
    },
    {
      "channel": 3,
      "note": 75,
      "start": 15.0795,
      "duration": 0.1968,
      "velocity": 91,
      "chip": "ym2612"
    },
    {
      "channel": 4,
      "note": 79,
      "start": 15.0803,
      "duration": 0.197,
      "velocity": 97,
      "chip": "ym2612"
    },
    {
      "channel": 2,
      "note": 30,
      "start": 15.0815,
      "duration": 0.1289,
      "velocity": 119,
      "chip": "ym2612"
    },
    {
      "channel": 5,
      "note": 79,
      "start": 15.1772,
      "duration": 0.1997,
      "velocity": 97,
      "chip": "ym2612"
    },
    {
      "channel": 0,
      "note": 60,
      "start": 15.2759,
      "duration": 0.2023,
      "velocity": 100,
      "chip": "ym2612"
    },
    {
      "channel": 3,
      "note": 79,
      "start": 15.2772,
      "duration": 0.2021,
      "velocity": 91,
      "chip": "ym2612"
    },
    {
      "channel": 4,
      "note": 82,
      "start": 15.2779,
      "duration": 0.2023,
      "velocity": 97,
      "chip": "ym2612"
    },
    {
      "channel": 5,
      "note": 82,
      "start": 15.3774,
      "duration": 0.1997,
      "velocity": 97,
      "chip": "ym2612"
    },
    {
      "channel": 0,
      "note": 60,
      "start": 15.4788,
      "duration": 0.197,
      "velocity": 100,
      "chip": "ym2612"
    },
    {
      "channel": 3,
      "note": 81,
      "start": 15.4801,
      "duration": 0.1968,
      "velocity": 91,
      "chip": "ym2612"
    },
    {
      "channel": 4,
      "note": 84,
      "start": 15.4808,
      "duration": 0.1964,
      "velocity": 97,
      "chip": "ym2612"
    },
    {
      "channel": 2,
      "note": 78,
      "start": 15.4821,
      "duration": 0.2617,
      "velocity": 127,
      "chip": "ym2612"
    },
    {
      "channel": 5,
      "note": 84,
      "start": 15.5777,
      "duration": 0.199,
      "velocity": 97,
      "chip": "ym2612"
    },
    {
      "channel": 0,
      "note": 62,
      "start": 15.6764,
      "duration": 0.2023,
      "velocity": 100,
      "chip": "ym2612"
    },
    {
      "channel": 0,
      "note": 60,
      "start": 15.8793,
      "duration": 0.2,
      "velocity": 100,
      "chip": "ym2612"
    },
    {
      "channel": 4,
      "note": 85,
      "start": 15.8805,
      "duration": 0.3975,
      "velocity": 97,
      "chip": "ym2612"
    },
    {
      "channel": 2,
      "note": 78,
      "start": 15.8815,
      "duration": 0.1949,
      "velocity": 127,
      "chip": "ym2612"
    },
    {
      "channel": 5,
      "note": 85,
      "start": 15.9778,
      "duration": 0.4003,
      "velocity": 97,
      "chip": "ym2612"
    },
    {
      "channel": 0,
      "note": 51,
      "start": 16.0799,
      "duration": 0.1966,
      "velocity": 100,
      "chip": "ym2612"
    },
    {
      "channel": 1,
      "note": 89,
      "start": 16.0806,
      "duration": 1.5988,
      "velocity": 100,
      "chip": "ym2612"
    },
    {
      "channel": 3,
      "note": 75,
      "start": 16.0816,
      "duration": 1.5986,
      "velocity": 91,
      "chip": "ym2612"
    },
    {
      "channel": 2,
      "note": 30,
      "start": 16.0831,
      "duration": 0.1285,
      "velocity": 119,
      "chip": "ym2612"
    },
    {
      "channel": 0,
      "note": 51,
      "start": 16.2771,
      "duration": 0.2024,
      "velocity": 100,
      "chip": "ym2612"
    },
    {
      "channel": 4,
      "note": 85,
      "start": 16.2786,
      "duration": 0.2024,
      "velocity": 97,
      "chip": "ym2612"
    },
    {
      "channel": 5,
      "note": 85,
      "start": 16.3787,
      "duration": 0.1996,
      "velocity": 97,
      "chip": "ym2612"
    },
    {
      "channel": 0,
      "note": 55,
      "start": 16.4801,
      "duration": 0.1969,
      "velocity": 100,
      "chip": "ym2612"
    },
    {
      "channel": 4,
      "note": 84,
      "start": 16.4817,
      "duration": 0.3999,
      "velocity": 97,
      "chip": "ym2612"
    },
    {
      "channel": 2,
      "note": 78,
      "start": 16.4829,
      "duration": 0.2628,
      "velocity": 127,
      "chip": "ym2612"
    },
    {
      "channel": 5,
      "note": 84,
      "start": 16.579,
      "duration": 0.4027,
      "velocity": 97,
      "chip": "ym2612"
    },
    {
      "channel": 0,
      "note": 55,
      "start": 16.6776,
      "duration": 0.2024,
      "velocity": 100,
      "chip": "ym2612"
    },
    {
      "channel": 2,
      "note": 78,
      "start": 16.7825,
      "duration": 0.0947,
      "velocity": 127,
      "chip": "ym2612"
    },
    {
      "channel": 0,
      "note": 58,
      "start": 16.8806,
      "duration": 0.1997,
      "velocity": 100,
      "chip": "ym2612"
    },
    {
      "channel": 4,
      "note": 82,
      "start": 16.8822,
      "duration": 0.1997,
      "velocity": 97,
      "chip": "ym2612"
    },
    {
      "channel": 2,
      "note": 30,
      "start": 16.8834,
      "duration": 0.094,
      "velocity": 119,
      "chip": "ym2612"
    },
    {
      "channel": 5,
      "note": 82,
      "start": 16.9822,
      "duration": 0.1969,
      "velocity": 97,
      "chip": "ym2612"
    },
    {
      "channel": 2,
      "note": 78,
      "start": 16.9831,
      "duration": 0.0944,
      "velocity": 127,
      "chip": "ym2612"
    },
    {
      "channel": 0,
      "note": 58,
      "start": 17.0809,
      "duration": 0.1997,
      "velocity": 100,
      "chip": "ym2612"
    },
    {
      "channel": 4,
      "note": 79,
      "start": 17.0824,
      "duration": 0.1997,
      "velocity": 97,
      "chip": "ym2612"
    },
    {
      "channel": 2,
      "note": 30,
      "start": 17.0836,
      "duration": 0.1293,
      "velocity": 119,
      "chip": "ym2612"
    },
    {
      "channel": 5,
      "note": 79,
      "start": 17.1797,
      "duration": 0.1997,
      "velocity": 97,
      "chip": "ym2612"
    },
    {
      "channel": 0,
      "note": 60,
      "start": 17.2811,
      "duration": 0.1997,
      "velocity": 100,
      "chip": "ym2612"
    },
    {
      "channel": 4,
      "note": 82,
      "start": 17.2827,
      "duration": 0.3985,
      "velocity": 97,
      "chip": "ym2612"
    },
    {
      "channel": 2,
      "note": 78,
      "start": 17.2839,
      "duration": 0.1941,
      "velocity": 127,
      "chip": "ym2612"
    },
    {
      "channel": 5,
      "note": 82,
      "start": 17.38,
      "duration": 0.3999,
      "velocity": 97,
      "chip": "ym2612"
    },
    {
      "channel": 0,
      "note": 58,
      "start": 17.4814,
      "duration": 0.1973,
      "velocity": 100,
      "chip": "ym2612"
    },
    {
      "channel": 2,
      "note": 30,
      "start": 17.4837,
      "duration": 0.1297,
      "velocity": 119,
      "chip": "ym2612"
    },
    {
      "channel": 0,
      "note": 53,
      "start": 17.6793,
      "duration": 0.1994,
      "velocity": 100,
      "chip": "ym2612"
    },
    {
      "channel": 1,
      "note": 75,
      "start": 17.68,
      "duration": 0.1989,
      "velocity": 100,
      "chip": "ym2612"
    },
    {
      "channel": 3,
      "note": 70,
      "start": 17.681,
      "duration": 0.1983,
      "velocity": 91,
      "chip": "ym2612"
    },
    {
      "channel": 4,
      "note": 84,
      "start": 17.6818,
      "duration": 0.1978,
      "velocity": 97,
      "chip": "ym2612"
    },
    {
      "channel": 5,
      "note": 84,
      "start": 17.7805,
      "duration": 0.1985,
      "velocity": 97,
      "chip": "ym2612"
    },
    {
      "channel": 0,
      "note": 53,
      "start": 18.0795,
      "duration": 1.2039,
      "velocity": 100,
      "chip": "ym2612"
    },
    {
      "channel": 1,
      "note": 75,
      "start": 18.0803,
      "duration": 0.6024,
      "velocity": 100,
      "chip": "ym2612"
    },
    {
      "channel": 3,
      "note": 70,
      "start": 18.0812,
      "duration": 0.6022,
      "velocity": 91,
      "chip": "ym2612"
    },
    {
      "channel": 4,
      "note": 84,
      "start": 18.082,
      "duration": 1.2028,
      "velocity": 97,
      "chip": "ym2612"
    },
    {
      "channel": 5,
      "note": 84,
      "start": 18.181,
      "duration": 1.2,
      "velocity": 97,
      "chip": "ym2612"
    },
    {
      "channel": 1,
      "note": 87,
      "start": 18.6833,
      "duration": 0.1996,
      "velocity": 100,
      "chip": "ym2612"
    },
    {
      "channel": 3,
      "note": 89,
      "start": 18.6842,
      "duration": 0.1995,
      "velocity": 91,
      "chip": "ym2612"
    },
    {
      "channel": 2,
      "note": 30,
      "start": 18.6858,
      "duration": 0.1292,
      "velocity": 119,
      "chip": "ym2612"
    },
    {
      "channel": 1,
      "note": 87,
      "start": 18.8835,
      "duration": 0.197,
      "velocity": 100,
      "chip": "ym2612"
    },
    {
      "channel": 3,
      "note": 89,
      "start": 18.8845,
      "duration": 0.1968,
      "velocity": 91,
      "chip": "ym2612"
    },
    {
      "channel": 2,
      "note": 78,
      "start": 18.8861,
      "duration": 0.2627,
      "velocity": 127,
      "chip": "ym2612"
    },
    {
      "channel": 1,
      "note": 87,
      "start": 19.0812,
      "duration": 0.203,
      "velocity": 100,
      "chip": "ym2612"
    },
    {
      "channel": 3,
      "note": 89,
      "start": 19.0821,
      "duration": 0.2024,
      "velocity": 91,
      "chip": "ym2612"
    },
    {
      "channel": 0,
      "note": 46,
      "start": 19.284,
      "duration": 0.1967,
      "velocity": 100,
      "chip": "ym2612"
    },
    {
      "channel": 2,
      "note": 30,
      "start": 19.2862,
      "duration": 0.1284,
      "velocity": 119,
      "chip": "ym2612"
    },
    {
      "channel": 0,
      "note": 46,
      "start": 19.4813,
      "duration": 0.2023,
      "velocity": 100,
      "chip": "ym2612"
    },
    {
      "channel": 1,
      "note": 86,
      "start": 19.4821,
      "duration": 0.6028,
      "velocity": 100,
      "chip": "ym2612"
    },
    {
      "channel": 3,
      "note": 81,
      "start": 19.483,
      "duration": 0.2017,
      "velocity": 91,
      "chip": "ym2612"
    },
    {
      "channel": 4,
      "note": 82,
      "start": 19.4838,
      "duration": 0.2012,
      "velocity": 97,
      "chip": "ym2612"
    },
    {
      "channel": 5,
      "note": 82,
      "start": 19.5828,
      "duration": 0.199,
      "velocity": 97,
      "chip": "ym2612"
    },
    {
      "channel": 0,
      "note": 50,
      "start": 19.6842,
      "duration": 0.1971,
      "velocity": 100,
      "chip": "ym2612"
    },
    {
      "channel": 2,
      "note": 78,
      "start": 19.6864,
      "duration": 0.2624,
      "velocity": 127,
      "chip": "ym2612"
    },
    {
      "channel": 0,
      "note": 50,
      "start": 19.8818,
      "duration": 0.2023,
      "velocity": 100,
      "chip": "ym2612"
    },
    {
      "channel": 0,
      "note": 53,
      "start": 20.0847,
      "duration": 0.1997,
      "velocity": 100,
      "chip": "ym2612"
    },
    {
      "channel": 1,
      "note": 89,
      "start": 20.0855,
      "duration": 0.1996,
      "velocity": 100,
      "chip": "ym2612"
    },
    {
      "channel": 3,
      "note": 81,
      "start": 20.0864,
      "duration": 0.3997,
      "velocity": 91,
      "chip": "ym2612"
    },
    {
      "channel": 4,
      "note": 82,
      "start": 20.0872,
      "duration": 0.3999,
      "velocity": 97,
      "chip": "ym2612"
    },
    {
      "channel": 2,
      "note": 30,
      "start": 20.0881,
      "duration": 0.1287,
      "velocity": 119,
      "chip": "ym2612"
    },
    {
      "channel": 5,
      "note": 82,
      "start": 20.1836,
      "duration": 0.3999,
      "velocity": 97,
      "chip": "ym2612"
    },
    {
      "channel": 0,
      "note": 53,
      "start": 20.285,
      "duration": 0.1997,
      "velocity": 100,
      "chip": "ym2612"
    },
    {
      "channel": 1,
      "note": 86,
      "start": 20.2857,
      "duration": 0.1997,
      "velocity": 100,
      "chip": "ym2612"
    },
    {
      "channel": 2,
      "note": 30,
      "start": 20.2877,
      "duration": 0.1293,
      "velocity": 119,
      "chip": "ym2612"
    },
    {
      "channel": 0,
      "note": 55,
      "start": 20.4852,
      "duration": 0.197,
      "velocity": 100,
      "chip": "ym2612"
    },
    {
      "channel": 1,
      "note": 84,
      "start": 20.486,
      "duration": 0.197,
      "velocity": 100,
      "chip": "ym2612"
    },
    {
      "channel": 3,
      "note": 81,
      "start": 20.4869,
      "duration": 0.1968,
      "velocity": 91,
      "chip": "ym2612"
    },
    {
      "channel": 4,
      "note": 82,
      "start": 20.4877,
      "duration": 0.197,
      "velocity": 97,
      "chip": "ym2612"
    },
    {
      "channel": 2,
      "note": 78,
      "start": 20.4889,
      "duration": 0.2619,
      "velocity": 127,
      "chip": "ym2612"
    },
    {
      "channel": 5,
      "note": 82,
      "start": 20.5841,
      "duration": 0.1996,
      "velocity": 97,
      "chip": "ym2612"
    },
    {
      "channel": 0,
      "note": 53,
      "start": 20.6828,
      "duration": 0.2027,
      "velocity": 100,
      "chip": "ym2612"
    },
    {
      "channel": 1,
      "note": 82,
      "start": 20.6836,
      "duration": 0.2028,
      "velocity": 100,
      "chip": "ym2612"
    },
    {
      "channel": 3,
      "note": 81,
      "start": 20.6845,
      "duration": 0.2022,
      "velocity": 91,
      "chip": "ym2612"
    },
    {
      "channel": 4,
      "note": 82,
      "start": 20.6853,
      "duration": 0.2018,
      "velocity": 97,
      "chip": "ym2612"
    },
    {
      "channel": 5,
      "note": 82,
      "start": 20.7844,
      "duration": 0.1988,
      "velocity": 97,
      "chip": "ym2612"
    },
    {
      "channel": 0,
      "note": 51,
      "start": 20.8862,
      "duration": 0.1993,
      "velocity": 100,
      "chip": "ym2612"
    },
    {
      "channel": 2,
      "note": 30,
      "start": 20.8884,
      "duration": 0.1282,
      "velocity": 119,
      "chip": "ym2612"
    },
    {
      "channel": 0,
      "note": 51,
      "start": 21.086,
      "duration": 0.1997,
      "velocity": 100,
      "chip": "ym2612"
    },
    {
      "channel": 1,
      "note": 86,
      "start": 21.0868,
      "duration": 0.6002,
      "velocity": 100,
      "chip": "ym2612"
    },
    {
      "channel": 3,
      "note": 79,
      "start": 21.0877,
      "duration": 0.1991,
      "velocity": 91,
      "chip": "ym2612"
    },
    {
      "channel": 4,
      "note": 82,
      "start": 21.0884,
      "duration": 0.1993,
      "velocity": 97,
      "chip": "ym2612"
    },
    {
      "channel": 2,
      "note": 30,
      "start": 21.0894,
      "duration": 0.1287,
      "velocity": 119,
      "chip": "ym2612"
    },
    {
      "channel": 5,
      "note": 82,
      "start": 21.1849,
      "duration": 0.1997,
      "velocity": 97,
      "chip": "ym2612"
    },
    {
      "channel": 0,
      "note": 55,
      "start": 21.2863,
      "duration": 0.1969,
      "velocity": 100,
      "chip": "ym2612"
    },
    {
      "channel": 3,
      "note": 79,
      "start": 21.2876,
      "duration": 0.4002,
      "velocity": 91,
      "chip": "ym2612"
    },
    {
      "channel": 4,
      "note": 82,
      "start": 21.2883,
      "duration": 0.4003,
      "velocity": 97,
      "chip": "ym2612"
    },
    {
      "channel": 2,
      "note": 78,
      "start": 21.2895,
      "duration": 0.2623,
      "velocity": 127,
      "chip": "ym2612"
    },
    {
      "channel": 5,
      "note": 82,
      "start": 21.3852,
      "duration": 0.3999,
      "velocity": 97,
      "chip": "ym2612"
    },
    {
      "channel": 0,
      "note": 55,
      "start": 21.4838,
      "duration": 0.2024,
      "velocity": 100,
      "chip": "ym2612"
    },
    {
      "channel": 2,
      "note": 78,
      "start": 21.5886,
      "duration": 0.0948,
      "velocity": 127,
      "chip": "ym2612"
    },
    {
      "channel": 0,
      "note": 58,
      "start": 21.6868,
      "duration": 0.1997,
      "velocity": 100,
      "chip": "ym2612"
    },
    {
      "channel": 1,
      "note": 89,
      "start": 21.6876,
      "duration": 0.1996,
      "velocity": 100,
      "chip": "ym2612"
    },
    {
      "channel": 3,
      "note": 79,
      "start": 21.6885,
      "duration": 0.3997,
      "velocity": 91,
      "chip": "ym2612"
    },
    {
      "channel": 4,
      "note": 82,
      "start": 21.6892,
      "duration": 0.3999,
      "velocity": 97,
      "chip": "ym2612"
    },
    {
      "channel": 2,
      "note": 30,
      "start": 21.6904,
      "duration": 0.1284,
      "velocity": 119,
      "chip": "ym2612"
    },
    {
      "channel": 5,
      "note": 82,
      "start": 21.7857,
      "duration": 0.3999,
      "velocity": 97,
      "chip": "ym2612"
    },
    {
      "channel": 0,
      "note": 58,
      "start": 21.887,
      "duration": 0.1997,
      "velocity": 100,
      "chip": "ym2612"
    },
    {
      "channel": 1,
      "note": 86,
      "start": 21.8878,
      "duration": 0.1997,
      "velocity": 100,
      "chip": "ym2612"
    },
    {
      "channel": 2,
      "note": 30,
      "start": 21.8898,
      "duration": 0.1293,
      "velocity": 119,
      "chip": "ym2612"
    },
    {
      "channel": 0,
      "note": 60,
      "start": 22.0873,
      "duration": 0.1997,
      "velocity": 100,
      "chip": "ym2612"
    },
    {
      "channel": 1,
      "note": 84,
      "start": 22.088,
      "duration": 0.1997,
      "velocity": 100,
      "chip": "ym2612"
    },
    {
      "channel": 3,
      "note": 79,
      "start": 22.089,
      "duration": 0.1995,
      "velocity": 91,
      "chip": "ym2612"
    },
    {
      "channel": 4,
      "note": 82,
      "start": 22.0898,
      "duration": 0.1996,
      "velocity": 97,
      "chip": "ym2612"
    },
    {
      "channel": 2,
      "note": 78,
      "start": 22.091,
      "duration": 0.1932,
      "velocity": 127,
      "chip": "ym2612"
    },
    {
      "channel": 5,
      "note": 82,
      "start": 22.1862,
      "duration": 0.1996,
      "velocity": 97,
      "chip": "ym2612"
    },
    {
      "channel": 0,
      "note": 58,
      "start": 22.2876,
      "duration": 0.2001,
      "velocity": 100,
      "chip": "ym2612"
    },
    {
      "channel": 1,
      "note": 82,
      "start": 22.2883,
      "duration": 0.2002,
      "velocity": 100,
      "chip": "ym2612"
    },
    {
      "channel": 3,
      "note": 79,
      "start": 22.2892,
      "duration": 0.1996,
      "velocity": 91,
      "chip": "ym2612"
    },
    {
      "channel": 4,
      "note": 82,
      "start": 22.29,
      "duration": 0.1991,
      "velocity": 97,
      "chip": "ym2612"
    },
    {
      "channel": 2,
      "note": 30,
      "start": 22.2912,
      "duration": 0.1284,
      "velocity": 119,
      "chip": "ym2612"
    },
    {
      "channel": 5,
      "note": 82,
      "start": 22.3864,
      "duration": 0.1988,
      "velocity": 97,
      "chip": "ym2612"
    },
    {
      "channel": 0,
      "note": 46,
      "start": 22.4882,
      "duration": 0.1966,
      "velocity": 100,
      "chip": "ym2612"
    },
    {
      "channel": 2,
      "note": 30,
      "start": 22.4905,
      "duration": 0.1282,
      "velocity": 119,
      "chip": "ym2612"
    },
    {
      "channel": 0,
      "note": 46,
      "start": 22.6854,
      "duration": 0.2023,
      "velocity": 100,
      "chip": "ym2612"
    },
    {
      "channel": 1,
      "note": 86,
      "start": 22.6862,
      "duration": 0.6028,
      "velocity": 100,
      "chip": "ym2612"
    },
    {
      "channel": 3,
      "note": 70,
      "start": 22.6871,
      "duration": 0.6026,
      "velocity": 91,
      "chip": "ym2612"
    },
    {
      "channel": 0,
      "note": 50,
      "start": 22.8883,
      "duration": 0.1971,
      "velocity": 100,
      "chip": "ym2612"
    },
    {
      "channel": 2,
      "note": 78,
      "start": 22.8902,
      "duration": 0.2632,
      "velocity": 127,
      "chip": "ym2612"
    },
    {
      "channel": 0,
      "note": 50,
      "start": 23.0859,
      "duration": 0.2023,
      "velocity": 100,
      "chip": "ym2612"
    },
    {
      "channel": 0,
      "note": 53,
      "start": 23.2888,
      "duration": 0.1997,
      "velocity": 100,
      "chip": "ym2612"
    },
    {
      "channel": 1,
      "note": 89,
      "start": 23.2896,
      "duration": 0.1996,
      "velocity": 100,
      "chip": "ym2612"
    },
    {
      "channel": 3,
      "note": 74,
      "start": 23.2905,
      "duration": 0.1995,
      "velocity": 91,
      "chip": "ym2612"
    },
    {
      "channel": 2,
      "note": 30,
      "start": 23.2915,
      "duration": 0.1288,
      "velocity": 119,
      "chip": "ym2612"
    },
    {
      "channel": 0,
      "note": 53,
      "start": 23.4891,
      "duration": 0.1997,
      "velocity": 100,
      "chip": "ym2612"
    },
    {
      "channel": 1,
      "note": 86,
      "start": 23.4898,
      "duration": 0.1997,
      "velocity": 100,
      "chip": "ym2612"
    },
    {
      "channel": 3,
      "note": 70,
      "start": 23.4908,
      "duration": 0.1995,
      "velocity": 91,
      "chip": "ym2612"
    },
    {
      "channel": 2,
      "note": 30,
      "start": 23.4918,
      "duration": 0.1289,
      "velocity": 119,
      "chip": "ym2612"
    },
    {
      "channel": 0,
      "note": 55,
      "start": 23.6893,
      "duration": 0.1997,
      "velocity": 100,
      "chip": "ym2612"
    },
    {
      "channel": 1,
      "note": 84,
      "start": 23.6901,
      "duration": 0.1997,
      "velocity": 100,
      "chip": "ym2612"
    },
    {
      "channel": 3,
      "note": 69,
      "start": 23.691,
      "duration": 0.1995,
      "velocity": 91,
      "chip": "ym2612"
    },
    {
      "channel": 4,
      "note": 82,
      "start": 23.6918,
      "duration": 0.1996,
      "velocity": 97,
      "chip": "ym2612"
    },
    {
      "channel": 2,
      "note": 78,
      "start": 23.6928,
      "duration": 0.1935,
      "velocity": 127,
      "chip": "ym2612"
    },
    {
      "channel": 5,
      "note": 82,
      "start": 23.7883,
      "duration": 0.1997,
      "velocity": 97,
      "chip": "ym2612"
    },
    {
      "channel": 0,
      "note": 53,
      "start": 23.8896,
      "duration": 0.1974,
      "velocity": 100,
      "chip": "ym2612"
    },
    {
      "channel": 1,
      "note": 82,
      "start": 23.8904,
      "duration": 0.197,
      "velocity": 100,
      "chip": "ym2612"
    },
    {
      "channel": 3,
      "note": 65,
      "start": 23.8913,
      "duration": 0.1964,
      "velocity": 91,
      "chip": "ym2612"
    },
    {
      "channel": 4,
      "note": 82,
      "start": 23.892,
      "duration": 0.196,
      "velocity": 97,
      "chip": "ym2612"
    },
    {
      "channel": 2,
      "note": 30,
      "start": 23.8932,
      "duration": 0.1285,
      "velocity": 119,
      "chip": "ym2612"
    },
    {
      "channel": 5,
      "note": 82,
      "start": 23.9885,
      "duration": 0.1985,
      "velocity": 97,
      "chip": "ym2612"
    },
    {
      "channel": 0,
      "note": 46,
      "start": 24.2901,
      "duration": 0.1997,
      "velocity": 100,
      "chip": "ym2612"
    },
    {
      "channel": 1,
      "note": 74,
      "start": 24.2909,
      "duration": 0.1993,
      "velocity": 100,
      "chip": "ym2612"
    },
    {
      "channel": 3,
      "note": 77,
      "start": 24.2918,
      "duration": 0.1987,
      "velocity": 91,
      "chip": "ym2612"
    },
    {
      "channel": 4,
      "note": 82,
      "start": 24.2925,
      "duration": 0.1982,
      "velocity": 97,
      "chip": "ym2612"
    },
    {
      "channel": 2,
      "note": 78,
      "start": 24.2935,
      "duration": 0.1935,
      "velocity": 127,
      "chip": "ym2612"
    },
    {
      "channel": 5,
      "note": 82,
      "start": 24.389,
      "duration": 0.1985,
      "velocity": 97,
      "chip": "ym2612"
    },
    {
      "channel": 2,
      "note": 30,
      "start": 24.4921,
      "duration": 0.1289,
      "velocity": 119,
      "chip": "ym2612"
    },
    {
      "channel": 0,
      "note": 46,
      "start": 24.8909,
      "duration": 0.8009,
      "velocity": 100,
      "chip": "ym2612"
    },
    {
      "channel": 1,
      "note": 74,
      "start": 24.8917,
      "duration": 0.801,
      "velocity": 100,
      "chip": "ym2612"
    },
    {
      "channel": 3,
      "note": 81,
      "start": 24.8926,
      "duration": 0.8008,
      "velocity": 91,
      "chip": "ym2612"
    },
    {
      "channel": 4,
      "note": 82,
      "start": 24.8934,
      "duration": 0.8012,
      "velocity": 97,
      "chip": "ym2612"
    },
    {
      "channel": 2,
      "note": 78,
      "start": 24.8944,
      "duration": 0.2621,
      "velocity": 127,
      "chip": "ym2612"
    },
    {
      "channel": 5,
      "note": 82,
      "start": 24.9898,
      "duration": 0.7841,
      "velocity": 97,
      "chip": "ym2612"
    },
    {
      "channel": 2,
      "note": 78,
      "start": 25.2934,
      "duration": 0.1949,
      "velocity": 127,
      "chip": "ym2612"
    },
    {
      "channel": 2,
      "note": 78,
      "start": 25.4937,
      "duration": 0.1952,
      "velocity": 127,
      "chip": "ym2612"
    },
    {
      "channel": 0,
      "note": 46,
      "start": 25.6924,
      "duration": 0.0815,
      "velocity": 100,
      "chip": "ym2612"
    },
    {
      "channel": 1,
      "note": 74,
      "start": 25.6932,
      "duration": 0.0807,
      "velocity": 100,
      "chip": "ym2612"
    },
    {
      "channel": 3,
      "note": 77,
      "start": 25.6942,
      "duration": 0.0797,
      "velocity": 91,
      "chip": "ym2612"
    },
    {
      "channel": 2,
      "note": 30,
      "start": 25.696,
      "duration": 0.0779,
      "velocity": 119,
      "chip": "ym2612"
    }
  ]
}