{
  "track_name": "06 - Azcan Combat",
  "duration_sec": 48.391,
  "sample_rate": 44100,
  "note_count": 502,
  "unique_pitches": 22,
  "pitch_range": 37,
  "avg_note_duration": 0.1685,
  "reconstruction_stats": {
    "notes_reconstructed": 502,
    "keyon_events": 502,
    "keyoff_events": 501,
    "orphan_keyons": 1,
    "unique_pitches": 22,
    "pitch_range": 37,
    "avg_duration_sec": 0.1685
  },
  "metadata": {
    "source": "D\\Dungeons & Dragons - Warriors of the Eternal Sun\\06 - Azcan Combat.vgz"
  },
  "notes": [
    {
      "channel": 3,
      "note": 71,
      "start": 0.1886,
      "duration": 0.06,
      "velocity": 122,
      "chip": "ym2612"
    },
    {
      "channel": 0,
      "note": 59,
      "start": 0.1976,
      "duration": 1.0466,
      "velocity": 93,
      "chip": "ym2612"
    },
    {
      "channel": 3,
      "note": 71,
      "start": 0.2529,
      "duration": 0.0534,
      "velocity": 115,
      "chip": "ym2612"
    },
    {
      "channel": 3,
      "note": 71,
      "start": 0.3084,
      "duration": 0.1073,
      "velocity": 115,
      "chip": "ym2612"
    },
    {
      "channel": 3,
      "note": 71,
      "start": 0.4195,
      "duration": 0.0519,
      "velocity": 122,
      "chip": "ym2612"
    },
    {
      "channel": 3,
      "note": 71,
      "start": 0.4752,
      "duration": 0.055,
      "velocity": 115,
      "chip": "ym2612"
    },
    {
      "channel": 3,
      "note": 71,
      "start": 0.5324,
      "duration": 0.1004,
      "velocity": 115,
      "chip": "ym2612"
    },
    {
      "channel": 3,
      "note": 71,
      "start": 0.6367,
      "duration": 0.0584,
      "velocity": 122,
      "chip": "ym2612"
    },
    {
      "channel": 3,
      "note": 71,
      "start": 0.6987,
      "duration": 0.0484,
      "velocity": 115,
      "chip": "ym2612"
    },
    {
      "channel": 3,
      "note": 71,
      "start": 0.7504,
      "duration": 0.0563,
      "velocity": 122,
      "chip": "ym2612"
    },
    {
      "channel": 3,
      "note": 71,
      "start": 0.809,
      "duration": 0.0489,
      "velocity": 122,
      "chip": "ym2612"
    },
    {
      "channel": 3,
      "note": 71,
      "start": 0.8624,
      "duration": 0.0541,
      "velocity": 115,
      "chip": "ym2612"
    },
    {
      "channel": 3,
      "note": 71,
      "start": 0.9187,
      "duration": 0.0981,
      "velocity": 115,
      "chip": "ym2612"
    },
    {
      "channel": 3,
      "note": 71,
      "start": 1.0194,
      "duration": 0.0589,
      "velocity": 115,
      "chip": "ym2612"
    },
    {
      "channel": 3,
      "note": 71,
      "start": 1.0807,
      "duration": 0.0506,
      "velocity": 115,
      "chip": "ym2612"
    },
    {
      "channel": 3,
      "note": 71,
      "start": 1.1354,
      "duration": 0.0549,
      "velocity": 122,
      "chip": "ym2612"
    },
    {
      "channel": 3,
      "note": 71,
      "start": 1.1938,
      "duration": 0.0505,
      "velocity": 122,
      "chip": "ym2612"
    },
    {
      "channel": 3,
      "note": 71,
      "start": 1.2482,
      "duration": 0.0573,
      "velocity": 122,
      "chip": "ym2612"
    },
    {
      "channel": 3,
      "note": 71,
      "start": 1.309,
      "duration": 0.0466,
      "velocity": 115,
      "chip": "ym2612"
    },
    {
      "channel": 3,
      "note": 71,
      "start": 1.3579,
      "duration": 0.1142,
      "velocity": 115,
      "chip": "ym2612"
    },
    {
      "channel": 3,
      "note": 71,
      "start": 1.476,
      "duration": 0.0583,
      "velocity": 122,
      "chip": "ym2612"
    },
    {
      "channel": 3,
      "note": 71,
      "start": 1.5389,
      "duration": 0.0474,
      "velocity": 115,
      "chip": "ym2612"
    },
    {
      "channel": 3,
      "note": 71,
      "start": 1.5885,
      "duration": 0.117,
      "velocity": 115,
      "chip": "ym2612"
    },
    {
      "channel": 3,
      "note": 71,
      "start": 1.7094,
      "duration": 0.0522,
      "velocity": 122,
      "chip": "ym2612"
    },
    {
      "channel": 3,
      "note": 71,
      "start": 1.7648,
      "duration": 0.0547,
      "velocity": 115,
      "chip": "ym2612"
    },
    {
      "channel": 3,
      "note": 71,
      "start": 1.823,
      "duration": 0.0483,
      "velocity": 122,
      "chip": "ym2612"
    },
    {
      "channel": 3,
      "note": 71,
      "start": 1.8737,
      "duration": 0.0577,
      "velocity": 122,
      "chip": "ym2612"
    },
    {
      "channel": 3,
      "note": 71,
      "start": 1.9349,
      "duration": 0.0483,
      "velocity": 115,
      "chip": "ym2612"
    },
    {
      "channel": 3,
      "note": 71,
      "start": 1.9863,
      "duration": 0.1154,
      "velocity": 115,
      "chip": "ym2612"
    },
    {
      "channel": 3,
      "note": 71,
      "start": 2.1043,
      "duration": 0.0518,
      "velocity": 115,
      "chip": "ym2612"
    },
    {
      "channel": 3,
      "note": 71,
      "start": 2.1584,
      "duration": 0.0582,
      "velocity": 115,
      "chip": "ym2612"
    },
    {
      "channel": 3,
      "note": 71,
      "start": 2.2193,
      "duration": 0.0514,
      "velocity": 115,
      "chip": "ym2612"
    },
    {
      "channel": 3,
      "note": 71,
      "start": 2.2743,
      "duration": 0.0576,
      "velocity": 115,
      "chip": "ym2612"
    },
    {
      "channel": 3,
      "note": 71,
      "start": 2.3352,
      "duration": 0.0504,
      "velocity": 122,
      "chip": "ym2612"
    },
    {
      "channel": 0,
      "note": 59,
      "start": 2.3375,
      "duration": 1.0459,
      "velocity": 93,
      "chip": "ym2612"
    },
    {
      "channel": 3,
      "note": 71,
      "start": 2.389,
      "duration": 0.0551,
      "velocity": 115,
      "chip": "ym2612"
    },
    {
      "channel": 3,
      "note": 71,
      "start": 2.4464,
      "duration": 0.0923,
      "velocity": 115,
      "chip": "ym2612"
    },
    {
      "channel": 3,
      "note": 71,
      "start": 2.5425,
      "duration": 0.0587,
      "velocity": 122,
      "chip": "ym2612"
    },
    {
      "channel": 3,
      "note": 71,
      "start": 2.6061,
      "duration": 0.0531,
      "velocity": 115,
      "chip": "ym2612"
    },
    {
      "channel": 3,
      "note": 71,
      "start": 2.6613,
      "duration": 0.1103,
      "velocity": 115,
      "chip": "ym2612"
    },
    {
      "channel": 3,
      "note": 71,
      "start": 2.7755,
      "duration": 0.0587,
      "velocity": 122,
      "chip": "ym2612"
    },
    {
      "channel": 3,
      "note": 71,
      "start": 2.8386,
      "duration": 0.0469,
      "velocity": 115,
      "chip": "ym2612"
    },
    {
      "channel": 3,
      "note": 71,
      "start": 2.8888,
      "duration": 0.0558,
      "velocity": 122,
      "chip": "ym2612"
    },
    {
      "channel": 3,
      "note": 71,
      "start": 2.948,
      "duration": 0.0495,
      "velocity": 122,
      "chip": "ym2612"
    },
    {
      "channel": 3,
      "note": 71,
      "start": 3.0018,
      "duration": 0.0538,
      "velocity": 115,
      "chip": "ym2612"
    },
    {
      "channel": 3,
      "note": 71,
      "start": 3.0588,
      "duration": 0.0972,
      "velocity": 115,
      "chip": "ym2612"
    },
    {
      "channel": 3,
      "note": 71,
      "start": 3.1586,
      "duration": 0.0591,
      "velocity": 115,
      "chip": "ym2612"
    },
    {
      "channel": 3,
      "note": 71,
      "start": 3.2199,
      "duration": 0.0505,
      "velocity": 115,
      "chip": "ym2612"
    },
    {
      "channel": 3,
      "note": 71,
      "start": 3.2747,
      "duration": 0.0549,
      "velocity": 122,
      "chip": "ym2612"
    },
    {
      "channel": 3,
      "note": 71,
      "start": 3.3331,
      "duration": 0.0504,
      "velocity": 122,
      "chip": "ym2612"
    },
    {
      "channel": 3,
      "note": 71,
      "start": 3.3873,
      "duration": 0.0572,
      "velocity": 122,
      "chip": "ym2612"
    },
    {
      "channel": 3,
      "note": 71,
      "start": 3.4481,
      "duration": 0.0466,
      "velocity": 115,
      "chip": "ym2612"
    },
    {
      "channel": 3,
      "note": 71,
      "start": 3.497,
      "duration": 0.1142,
      "velocity": 115,
      "chip": "ym2612"
    },
    {
      "channel": 3,
      "note": 71,
      "start": 3.6152,
      "duration": 0.052,
      "velocity": 122,
      "chip": "ym2612"
    },
    {
      "channel": 3,
      "note": 71,
      "start": 3.6707,
      "duration": 0.0545,
      "velocity": 115,
      "chip": "ym2612"
    },
    {
      "channel": 3,
      "note": 71,
      "start": 3.7274,
      "duration": 0.117,
      "velocity": 115,
      "chip": "ym2612"
    },
    {
      "channel": 3,
      "note": 71,
      "start": 3.8483,
      "duration": 0.0516,
      "velocity": 122,
      "chip": "ym2612"
    },
    {
      "channel": 3,
      "note": 71,
      "start": 3.9034,
      "duration": 0.0547,
      "velocity": 115,
      "chip": "ym2612"
    },
    {
      "channel": 3,
      "note": 71,
      "start": 3.9619,
      "duration": 0.0485,
      "velocity": 122,
      "chip": "ym2612"
    },
    {
      "channel": 3,
      "note": 71,
      "start": 4.0127,
      "duration": 0.0576,
      "velocity": 122,
      "chip": "ym2612"
    },
    {
      "channel": 3,
      "note": 71,
      "start": 4.0737,
      "duration": 0.0474,
      "velocity": 115,
      "chip": "ym2612"
    },
    {
      "channel": 3,
      "note": 71,
      "start": 4.1244,
      "duration": 0.1143,
      "velocity": 115,
      "chip": "ym2612"
    },
    {
      "channel": 3,
      "note": 71,
      "start": 4.2413,
      "duration": 0.0515,
      "velocity": 115,
      "chip": "ym2612"
    },
    {
      "channel": 3,
      "note": 71,
      "start": 4.2951,
      "duration": 0.0582,
      "velocity": 115,
      "chip": "ym2612"
    },
    {
      "channel": 3,
      "note": 71,
      "start": 4.356,
      "duration": 0.0514,
      "velocity": 115,
      "chip": "ym2612"
    },
    {
      "channel": 3,
      "note": 71,
      "start": 4.411,
      "duration": 0.0576,
      "velocity": 115,
      "chip": "ym2612"
    },
    {
      "channel": 3,
      "note": 67,
      "start": 4.4718,
      "duration": 0.0505,
      "velocity": 122,
      "chip": "ym2612"
    },
    {
      "channel": 0,
      "note": 55,
      "start": 4.474,
      "duration": 1.045,
      "velocity": 93,
      "chip": "ym2612"
    },
    {
      "channel": 3,
      "note": 67,
      "start": 4.5256,
      "duration": 0.0551,
      "velocity": 115,
      "chip": "ym2612"
    },
    {
      "channel": 3,
      "note": 67,
      "start": 4.5829,
      "duration": 0.0922,
      "velocity": 115,
      "chip": "ym2612"
    },
    {
      "channel": 3,
      "note": 67,
      "start": 4.679,
      "duration": 0.0588,
      "velocity": 122,
      "chip": "ym2612"
    },
    {
      "channel": 3,
      "note": 67,
      "start": 4.7427,
      "duration": 0.0462,
      "velocity": 115,
      "chip": "ym2612"
    },
    {
      "channel": 3,
      "note": 67,
      "start": 4.791,
      "duration": 0.1171,
      "velocity": 115,
      "chip": "ym2612"
    },
    {
      "channel": 3,
      "note": 67,
      "start": 4.912,
      "duration": 0.0579,
      "velocity": 122,
      "chip": "ym2612"
    },
    {
      "channel": 3,
      "note": 67,
      "start": 4.9734,
      "duration": 0.0484,
      "velocity": 115,
      "chip": "ym2612"
    },
    {
      "channel": 3,
      "note": 67,
      "start": 5.0252,
      "duration": 0.0563,
      "velocity": 122,
      "chip": "ym2612"
    },
    {
      "channel": 3,
      "note": 67,
      "start": 5.0839,
      "duration": 0.0486,
      "velocity": 122,
      "chip": "ym2612"
    },
    {
      "channel": 3,
      "note": 67,
      "start": 5.1369,
      "duration": 0.0546,
      "velocity": 115,
      "chip": "ym2612"
    },
    {
      "channel": 3,
      "note": 67,
      "start": 5.1938,
      "duration": 0.098,
      "velocity": 115,
      "chip": "ym2612"
    },
    {
      "channel": 3,
      "note": 67,
      "start": 5.2944,
      "duration": 0.0587,
      "velocity": 115,
      "chip": "ym2612"
    },
    {
      "channel": 3,
      "note": 67,
      "start": 5.3552,
      "duration": 0.0507,
      "velocity": 115,
      "chip": "ym2612"
    },
    {
      "channel": 3,
      "note": 67,
      "start": 5.4101,
      "duration": 0.0551,
      "velocity": 122,
      "chip": "ym2612"
    },
    {
      "channel": 3,
      "note": 67,
      "start": 5.4687,
      "duration": 0.0504,
      "velocity": 122,
      "chip": "ym2612"
    },
    {
      "channel": 3,
      "note": 67,
      "start": 5.5229,
      "duration": 0.0573,
      "velocity": 122,
      "chip": "ym2612"
    },
    {
      "channel": 3,
      "note": 67,
      "start": 5.5838,
      "duration": 0.0466,
      "velocity": 115,
      "chip": "ym2612"
    },
    {
      "channel": 3,
      "note": 67,
      "start": 5.6327,
      "duration": 0.1142,
      "velocity": 115,
      "chip": "ym2612"
    },
    {
      "channel": 3,
      "note": 67,
      "start": 5.7508,
      "duration": 0.052,
      "velocity": 122,
      "chip": "ym2612"
    },
    {
      "channel": 3,
      "note": 67,
      "start": 5.8063,
      "duration": 0.0546,
      "velocity": 115,
      "chip": "ym2612"
    },
    {
      "channel": 3,
      "note": 67,
      "start": 5.8631,
      "duration": 0.1003,
      "velocity": 115,
      "chip": "ym2612"
    },
    {
      "channel": 3,
      "note": 67,
      "start": 5.9673,
      "duration": 0.059,
      "velocity": 122,
      "chip": "ym2612"
    },
    {
      "channel": 3,
      "note": 67,
      "start": 6.0307,
      "duration": 0.0538,
      "velocity": 115,
      "chip": "ym2612"
    },
    {
      "channel": 3,
      "note": 67,
      "start": 6.0898,
      "duration": 0.0487,
      "velocity": 122,
      "chip": "ym2612"
    },
    {
      "channel": 3,
      "note": 67,
      "start": 6.1409,
      "duration": 0.0587,
      "velocity": 122,
      "chip": "ym2612"
    },
    {
      "channel": 3,
      "note": 67,
      "start": 6.2029,
      "duration": 0.0474,
      "velocity": 115,
      "chip": "ym2612"
    },
    {
      "channel": 3,
      "note": 67,
      "start": 6.2525,
      "duration": 0.1145,
      "velocity": 115,
      "chip": "ym2612"
    },
    {
      "channel": 3,
      "note": 67,
      "start": 6.3696,
      "duration": 0.0518,
      "velocity": 115,
      "chip": "ym2612"
    },
    {
      "channel": 3,
      "note": 67,
      "start": 6.4237,
      "duration": 0.0576,
      "velocity": 115,
      "chip": "ym2612"
    },
    {
      "channel": 3,
      "note": 67,
      "start": 6.4835,
      "duration": 0.0515,
      "velocity": 115,
      "chip": "ym2612"
    },
    {
      "channel": 3,
      "note": 67,
      "start": 6.5387,
      "duration": 0.0577,
      "velocity": 115,
      "chip": "ym2612"
    },
    {
      "channel": 3,
      "note": 66,
      "start": 6.5997,
      "duration": 0.0501,
      "velocity": 122,
      "chip": "ym2612"
    },
    {
      "channel": 0,
      "note": 54,
      "start": 6.6017,
      "duration": 1.0458,
      "velocity": 93,
      "chip": "ym2612"
    },
    {
      "channel": 3,
      "note": 66,
      "start": 6.6531,
      "duration": 0.0551,
      "velocity": 115,
      "chip": "ym2612"
    },
    {
      "channel": 3,
      "note": 66,
      "start": 6.7105,
      "duration": 0.0922,
      "velocity": 115,
      "chip": "ym2612"
    },
    {
      "channel": 3,
      "note": 66,
      "start": 6.8065,
      "duration": 0.0586,
      "velocity": 122,
      "chip": "ym2612"
    },
    {
      "channel": 3,
      "note": 66,
      "start": 6.87,
      "duration": 0.0463,
      "velocity": 115,
      "chip": "ym2612"
    },
    {
      "channel": 3,
      "note": 66,
      "start": 6.9185,
      "duration": 0.117,
      "velocity": 115,
      "chip": "ym2612"
    },
    {
      "channel": 3,
      "note": 66,
      "start": 7.0393,
      "duration": 0.0517,
      "velocity": 122,
      "chip": "ym2612"
    },
    {
      "channel": 3,
      "note": 66,
      "start": 7.0946,
      "duration": 0.055,
      "velocity": 115,
      "chip": "ym2612"
    },
    {
      "channel": 3,
      "note": 66,
      "start": 7.1531,
      "duration": 0.0567,
      "velocity": 122,
      "chip": "ym2612"
    },
    {
      "channel": 3,
      "note": 66,
      "start": 7.2122,
      "duration": 0.0491,
      "velocity": 122,
      "chip": "ym2612"
    },
    {
      "channel": 3,
      "note": 66,
      "start": 7.2657,
      "duration": 0.0545,
      "velocity": 115,
      "chip": "ym2612"
    },
    {
      "channel": 3,
      "note": 66,
      "start": 7.3225,
      "duration": 0.098,
      "velocity": 115,
      "chip": "ym2612"
    },
    {
      "channel": 3,
      "note": 66,
      "start": 7.4231,
      "duration": 0.0588,
      "velocity": 115,
      "chip": "ym2612"
    },
    {
      "channel": 3,
      "note": 66,
      "start": 7.4841,
      "duration": 0.0508,
      "velocity": 115,
      "chip": "ym2612"
    },
    {
      "channel": 3,
      "note": 66,
      "start": 7.5391,
      "duration": 0.0548,
      "velocity": 122,
      "chip": "ym2612"
    },
    {
      "channel": 3,
      "note": 66,
      "start": 7.5974,
      "duration": 0.0502,
      "velocity": 122,
      "chip": "ym2612"
    },
    {
      "channel": 3,
      "note": 66,
      "start": 7.6514,
      "duration": 0.0574,
      "velocity": 122,
      "chip": "ym2612"
    },
    {
      "channel": 3,
      "note": 66,
      "start": 7.7124,
      "duration": 0.0467,
      "velocity": 115,
      "chip": "ym2612"
    },
    {
      "channel": 3,
      "note": 66,
      "start": 7.7614,
      "duration": 0.1142,
      "velocity": 115,
      "chip": "ym2612"
    },
    {
      "channel": 3,
      "note": 66,
      "start": 7.8795,
      "duration": 0.052,
      "velocity": 122,
      "chip": "ym2612"
    },
    {
      "channel": 3,
      "note": 66,
      "start": 7.9351,
      "duration": 0.0544,
      "velocity": 115,
      "chip": "ym2612"
    },
    {
      "channel": 3,
      "note": 66,
      "start": 7.9917,
      "duration": 0.1002,
      "velocity": 115,
      "chip": "ym2612"
    },
    {
      "channel": 3,
      "note": 66,
      "start": 8.0959,
      "duration": 0.0589,
      "velocity": 122,
      "chip": "ym2612"
    },
    {
      "channel": 3,
      "note": 66,
      "start": 8.1591,
      "duration": 0.0472,
      "velocity": 115,
      "chip": "ym2612"
    },
    {
      "channel": 3,
      "note": 66,
      "start": 8.2099,
      "duration": 0.0558,
      "velocity": 122,
      "chip": "ym2612"
    },
    {
      "channel": 3,
      "note": 66,
      "start": 8.268,
      "duration": 0.0577,
      "velocity": 122,
      "chip": "ym2612"
    },
    {
      "channel": 3,
      "note": 66,
      "start": 8.329,
      "duration": 0.0473,
      "velocity": 115,
      "chip": "ym2612"
    },
    {
      "channel": 3,
      "note": 66,
      "start": 8.3785,
      "duration": 0.1144,
      "velocity": 115,
      "chip": "ym2612"
    },
    {
      "channel": 3,
      "note": 66,
      "start": 8.4955,
      "duration": 0.0517,
      "velocity": 115,
      "chip": "ym2612"
    },
    {
      "channel": 3,
      "note": 66,
      "start": 8.5495,
      "duration": 0.058,
      "velocity": 115,
      "chip": "ym2612"
    },
    {
      "channel": 3,
      "note": 66,
      "start": 8.6099,
      "duration": 0.0505,
      "velocity": 115,
      "chip": "ym2612"
    },
    {
      "channel": 3,
      "note": 66,
      "start": 8.6641,
      "duration": 0.0573,
      "velocity": 115,
      "chip": "ym2612"
    },
    {
      "channel": 3,
      "note": 71,
      "start": 8.7246,
      "duration": 0.0517,
      "velocity": 122,
      "chip": "ym2612"
    },
    {
      "channel": 1,
      "note": 59,
      "start": 8.7272,
      "duration": 0.2013,
      "velocity": 108,
      "chip": "ym2612"
    },
    {
      "channel": 0,
      "note": 59,
      "start": 8.7304,
      "duration": 1.0542,
      "velocity": 93,
      "chip": "ym2612"
    },
    {
      "channel": 3,
      "note": 71,
      "start": 8.7806,
      "duration": 0.0535,
      "velocity": 115,
      "chip": "ym2612"
    },
    {
      "channel": 3,
      "note": 71,
      "start": 8.8375,
      "duration": 0.0911,
      "velocity": 115,
      "chip": "ym2612"
    },
    {
      "channel": 3,
      "note": 71,
      "start": 8.9325,
      "duration": 0.0586,
      "velocity": 122,
      "chip": "ym2612"
    },
    {
      "channel": 1,
      "note": 61,
      "start": 8.9347,
      "duration": 0.2254,
      "velocity": 108,
      "chip": "ym2612"
    },
    {
      "channel": 3,
      "note": 71,
      "start": 8.9949,
      "duration": 0.0466,
      "velocity": 115,
      "chip": "ym2612"
    },
    {
      "channel": 3,
      "note": 71,
      "start": 9.0449,
      "duration": 0.1153,
      "velocity": 115,
      "chip": "ym2612"
    },
    {
      "channel": 3,
      "note": 71,
      "start": 9.1641,
      "duration": 0.0525,
      "velocity": 122,
      "chip": "ym2612"
    },
    {
      "channel": 1,
      "note": 62,
      "start": 9.1665,
      "duration": 0.5043,
      "velocity": 108,
      "chip": "ym2612"
    },
    {
      "channel": 3,
      "note": 71,
      "start": 9.2209,
      "duration": 0.054,
      "velocity": 115,
      "chip": "ym2612"
    },
    {
      "channel": 3,
      "note": 71,
      "start": 9.2793,
      "duration": 0.0488,
      "velocity": 122,
      "chip": "ym2612"
    },
    {
      "channel": 3,
      "note": 71,
      "start": 9.3304,
      "duration": 0.0584,
      "velocity": 122,
      "chip": "ym2612"
    },
    {
      "channel": 3,
      "note": 71,
      "start": 9.3921,
      "duration": 0.0548,
      "velocity": 115,
      "chip": "ym2612"
    },
    {
      "channel": 3,
      "note": 71,
      "start": 9.4492,
      "duration": 0.1068,
      "velocity": 115,
      "chip": "ym2612"
    },
    {
      "channel": 3,
      "note": 71,
      "start": 9.5585,
      "duration": 0.0599,
      "velocity": 115,
      "chip": "ym2612"
    },
    {
      "channel": 3,
      "note": 71,
      "start": 9.6207,
      "duration": 0.0502,
      "velocity": 115,
      "chip": "ym2612"
    },
    {
      "channel": 3,
      "note": 71,
      "start": 9.6752,
      "duration": 0.056,
      "velocity": 122,
      "chip": "ym2612"
    },
    {
      "channel": 1,
      "note": 61,
      "start": 9.6773,
      "duration": 0.0538,
      "velocity": 108,
      "chip": "ym2612"
    },
    {
      "channel": 3,
      "note": 71,
      "start": 9.7335,
      "duration": 0.0512,
      "velocity": 122,
      "chip": "ym2612"
    },
    {
      "channel": 1,
      "note": 62,
      "start": 9.7365,
      "duration": 0.0481,
      "velocity": 108,
      "chip": "ym2612"
    },
    {
      "channel": 3,
      "note": 71,
      "start": 9.7873,
      "duration": 0.0573,
      "velocity": 122,
      "chip": "ym2612"
    },
    {
      "channel": 1,
      "note": 64,
      "start": 9.7905,
      "duration": 0.2202,
      "velocity": 108,
      "chip": "ym2612"
    },
    {
      "channel": 3,
      "note": 71,
      "start": 9.8493,
      "duration": 0.047,
      "velocity": 115,
      "chip": "ym2612"
    },
    {
      "channel": 3,
      "note": 71,
      "start": 9.8986,
      "duration": 0.1123,
      "velocity": 115,
      "chip": "ym2612"
    },
    {
      "channel": 3,
      "note": 71,
      "start": 10.0148,
      "duration": 0.052,
      "velocity": 122,
      "chip": "ym2612"
    },
    {
      "channel": 1,
      "note": 67,
      "start": 10.0169,
      "duration": 0.2104,
      "velocity": 108,
      "chip": "ym2612"
    },
    {
      "channel": 3,
      "note": 71,
      "start": 10.071,
      "duration": 0.0547,
      "velocity": 115,
      "chip": "ym2612"
    },
    {
      "channel": 3,
      "note": 71,
      "start": 10.129,
      "duration": 0.0984,
      "velocity": 115,
      "chip": "ym2612"
    },
    {
      "channel": 3,
      "note": 71,
      "start": 10.2313,
      "duration": 0.0594,
      "velocity": 122,
      "chip": "ym2612"
    },
    {
      "channel": 1,
      "note": 66,
      "start": 10.2343,
      "duration": 0.3972,
      "velocity": 108,
      "chip": "ym2612"
    },
    {
      "channel": 3,
      "note": 71,
      "start": 10.2943,
      "duration": 0.0481,
      "velocity": 115,
      "chip": "ym2612"
    },
    {
      "channel": 3,
      "note": 71,
      "start": 10.347,
      "duration": 0.0555,
      "velocity": 122,
      "chip": "ym2612"
    },
    {
      "channel": 3,
      "note": 71,
      "start": 10.4061,
      "duration": 0.0503,
      "velocity": 122,
      "chip": "ym2612"
    },
    {
      "channel": 3,
      "note": 71,
      "start": 10.4606,
      "duration": 0.0543,
      "velocity": 115,
      "chip": "ym2612"
    },
    {
      "channel": 3,
      "note": 71,
      "start": 10.5171,
      "duration": 0.1145,
      "velocity": 115,
      "chip": "ym2612"
    },
    {
      "channel": 3,
      "note": 71,
      "start": 10.6342,
      "duration": 0.0545,
      "velocity": 115,
      "chip": "ym2612"
    },
    {
      "channel": 1,
      "note": 66,
      "start": 10.6366,
      "duration": 0.1113,
      "velocity": 108,
      "chip": "ym2612"
    },
    {
      "channel": 3,
      "note": 71,
      "start": 10.691,
      "duration": 0.057,
      "velocity": 115,
      "chip": "ym2612"
    },
    {
      "channel": 3,
      "note": 71,
      "start": 10.7501,
      "duration": 0.052,
      "velocity": 115,
      "chip": "ym2612"
    },
    {
      "channel": 1,
      "note": 67,
      "start": 10.7528,
      "duration": 0.0493,
      "velocity": 108,
      "chip": "ym2612"
    },
    {
      "channel": 3,
      "note": 71,
      "start": 10.8045,
      "duration": 0.058,
      "velocity": 115,
      "chip": "ym2612"
    },
    {
      "channel": 1,
      "note": 66,
      "start": 10.8073,
      "duration": 0.0551,
      "velocity": 108,
      "chip": "ym2612"
    },
    {
      "channel": 3,
      "note": 71,
      "start": 10.867,
      "duration": 0.0507,
      "velocity": 122,
      "chip": "ym2612"
    },
    {
      "channel": 1,
      "note": 71,
      "start": 10.8694,
      "duration": 0.2016,
      "velocity": 108,
      "chip": "ym2612"
    },
    {
      "channel": 0,
      "note": 59,
      "start": 10.8713,
      "duration": 1.0581,
      "velocity": 93,
      "chip": "ym2612"
    },
    {
      "channel": 3,
      "note": 71,
      "start": 10.9219,
      "duration": 0.0539,
      "velocity": 115,
      "chip": "ym2612"
    },
    {
      "channel": 3,
      "note": 71,
      "start": 10.9793,
      "duration": 0.0918,
      "velocity": 115,
      "chip": "ym2612"
    },
    {
      "channel": 3,
      "note": 71,
      "start": 11.075,
      "duration": 0.059,
      "velocity": 122,
      "chip": "ym2612"
    },
    {
      "channel": 1,
      "note": 73,
      "start": 11.0771,
      "duration": 0.2259,
      "velocity": 108,
      "chip": "ym2612"
    },
    {
      "channel": 3,
      "note": 71,
      "start": 11.1377,
      "duration": 0.0467,
      "velocity": 115,
      "chip": "ym2612"
    },
    {
      "channel": 3,
      "note": 71,
      "start": 11.1877,
      "duration": 0.1153,
      "velocity": 115,
      "chip": "ym2612"
    },
    {
      "channel": 3,
      "note": 71,
      "start": 11.3069,
      "duration": 0.0525,
      "velocity": 122,
      "chip": "ym2612"
    },
    {
      "channel": 1,
      "note": 74,
      "start": 11.3093,
      "duration": 0.5052,
      "velocity": 108,
      "chip": "ym2612"
    },
    {
      "channel": 3,
      "note": 71,
      "start": 11.3637,
      "duration": 0.0537,
      "velocity": 115,
      "chip": "ym2612"
    },
    {
      "channel": 3,
      "note": 71,
      "start": 11.4216,
      "duration": 0.0481,
      "velocity": 122,
      "chip": "ym2612"
    },
    {
      "channel": 3,
      "note": 71,
      "start": 11.472,
      "duration": 0.0585,
      "velocity": 122,
      "chip": "ym2612"
    },
    {
      "channel": 3,
      "note": 71,
      "start": 11.5339,
      "duration": 0.0473,
      "velocity": 115,
      "chip": "ym2612"
    },
    {
      "channel": 3,
      "note": 71,
      "start": 11.5845,
      "duration": 0.1153,
      "velocity": 115,
      "chip": "ym2612"
    },
    {
      "channel": 3,
      "note": 71,
      "start": 11.7023,
      "duration": 0.0589,
      "velocity": 115,
      "chip": "ym2612"
    },
    {
      "channel": 3,
      "note": 71,
      "start": 11.7636,
      "duration": 0.051,
      "velocity": 115,
      "chip": "ym2612"
    },
    {
      "channel": 3,
      "note": 71,
      "start": 11.819,
      "duration": 0.0572,
      "velocity": 122,
      "chip": "ym2612"
    },
    {
      "channel": 1,
      "note": 73,
      "start": 11.8217,
      "duration": 0.0544,
      "velocity": 108,
      "chip": "ym2612"
    },
    {
      "channel": 3,
      "note": 71,
      "start": 11.8784,
      "duration": 0.0511,
      "velocity": 122,
      "chip": "ym2612"
    },
    {
      "channel": 1,
      "note": 74,
      "start": 11.8814,
      "duration": 0.048,
      "velocity": 108,
      "chip": "ym2612"
    },
    {
      "channel": 3,
      "note": 71,
      "start": 11.9322,
      "duration": 0.0573,
      "velocity": 122,
      "chip": "ym2612"
    },
    {
      "channel": 1,
      "note": 76,
      "start": 11.9354,
      "duration": 0.2201,
      "velocity": 108,
      "chip": "ym2612"
    },
    {
      "channel": 3,
      "note": 71,
      "start": 11.9941,
      "duration": 0.047,
      "velocity": 115,
      "chip": "ym2612"
    },
    {
      "channel": 3,
      "note": 71,
      "start": 12.0434,
      "duration": 0.1123,
      "velocity": 115,
      "chip": "ym2612"
    },
    {
      "channel": 3,
      "note": 71,
      "start": 12.1595,
      "duration": 0.0519,
      "velocity": 122,
      "chip": "ym2612"
    },
    {
      "channel": 1,
      "note": 78,
      "start": 12.1617,
      "duration": 0.2102,
      "velocity": 108,
      "chip": "ym2612"
    },
    {
      "channel": 3,
      "note": 71,
      "start": 12.2156,
      "duration": 0.0547,
      "velocity": 115,
      "chip": "ym2612"
    },
    {
      "channel": 3,
      "note": 71,
      "start": 12.2736,
      "duration": 0.0984,
      "velocity": 115,
      "chip": "ym2612"
    },
    {
      "channel": 3,
      "note": 71,
      "start": 12.3759,
      "duration": 0.0599,
      "velocity": 122,
      "chip": "ym2612"
    },
    {
      "channel": 1,
      "note": 83,
      "start": 12.3783,
      "duration": 0.6146,
      "velocity": 108,
      "chip": "ym2612"
    },
    {
      "channel": 3,
      "note": 71,
      "start": 12.4393,
      "duration": 0.0473,
      "velocity": 115,
      "chip": "ym2612"
    },
    {
      "channel": 3,
      "note": 71,
      "start": 12.4915,
      "duration": 0.0551,
      "velocity": 122,
      "chip": "ym2612"
    },
    {
      "channel": 3,
      "note": 71,
      "start": 12.55,
      "duration": 0.0498,
      "velocity": 122,
      "chip": "ym2612"
    },
    {
      "channel": 3,
      "note": 71,
      "start": 12.6042,
      "duration": 0.0539,
      "velocity": 115,
      "chip": "ym2612"
    },
    {
      "channel": 3,
      "note": 71,
      "start": 12.6604,
      "duration": 0.0981,
      "velocity": 115,
      "chip": "ym2612"
    },
    {
      "channel": 3,
      "note": 71,
      "start": 12.7611,
      "duration": 0.059,
      "velocity": 115,
      "chip": "ym2612"
    },
    {
      "channel": 3,
      "note": 71,
      "start": 12.8224,
      "duration": 0.0578,
      "velocity": 115,
      "chip": "ym2612"
    },
    {
      "channel": 3,
      "note": 71,
      "start": 12.8824,
      "duration": 0.0498,
      "velocity": 115,
      "chip": "ym2612"
    },
    {
      "channel": 3,
      "note": 71,
      "start": 12.9355,
      "duration": 0.0575,
      "velocity": 115,
      "chip": "ym2612"
    },
    {
      "channel": 3,
      "note": 67,
      "start": 12.9964,
      "duration": 0.0517,
      "velocity": 122,
      "chip": "ym2612"
    },
    {
      "channel": 1,
      "note": 86,
      "start": 12.9987,
      "duration": 0.4347,
      "velocity": 108,
      "chip": "ym2612"
    },
    {
      "channel": 0,
      "note": 55,
      "start": 13.0017,
      "duration": 1.059,
      "velocity": 93,
      "chip": "ym2612"
    },
    {
      "channel": 3,
      "note": 67,
      "start": 13.0515,
      "duration": 0.0541,
      "velocity": 115,
      "chip": "ym2612"
    },
    {
      "channel": 3,
      "note": 67,
      "start": 13.109,
      "duration": 0.0916,
      "velocity": 115,
      "chip": "ym2612"
    },
    {
      "channel": 3,
      "note": 67,
      "start": 13.2045,
      "duration": 0.0583,
      "velocity": 122,
      "chip": "ym2612"
    },
    {
      "channel": 3,
      "note": 67,
      "start": 13.2676,
      "duration": 0.0466,
      "velocity": 115,
      "chip": "ym2612"
    },
    {
      "channel": 3,
      "note": 67,
      "start": 13.3163,
      "duration": 0.1172,
      "velocity": 115,
      "chip": "ym2612"
    },
    {
      "channel": 3,
      "note": 67,
      "start": 13.4374,
      "duration": 0.052,
      "velocity": 122,
      "chip": "ym2612"
    },
    {
      "channel": 1,
      "note": 83,
      "start": 13.4395,
      "duration": 0.3897,
      "velocity": 108,
      "chip": "ym2612"
    },
    {
      "channel": 3,
      "note": 67,
      "start": 13.4936,
      "duration": 0.0542,
      "velocity": 115,
      "chip": "ym2612"
    },
    {
      "channel": 3,
      "note": 67,
      "start": 13.5522,
      "duration": 0.0489,
      "velocity": 122,
      "chip": "ym2612"
    },
    {
      "channel": 3,
      "note": 67,
      "start": 13.6034,
      "duration": 0.0584,
      "velocity": 122,
      "chip": "ym2612"
    },
    {
      "channel": 3,
      "note": 67,
      "start": 13.6651,
      "duration": 0.0473,
      "velocity": 115,
      "chip": "ym2612"
    },
    {
      "channel": 3,
      "note": 67,
      "start": 13.7156,
      "duration": 0.1138,
      "velocity": 115,
      "chip": "ym2612"
    },
    {
      "channel": 3,
      "note": 67,
      "start": 13.832,
      "duration": 0.0533,
      "velocity": 115,
      "chip": "ym2612"
    },
    {
      "channel": 1,
      "note": 85,
      "start": 13.835,
      "duration": 0.1114,
      "velocity": 108,
      "chip": "ym2612"
    },
    {
      "channel": 3,
      "note": 67,
      "start": 13.8887,
      "duration": 0.0577,
      "velocity": 115,
      "chip": "ym2612"
    },
    {
      "channel": 3,
      "note": 67,
      "start": 13.9499,
      "duration": 0.0573,
      "velocity": 122,
      "chip": "ym2612"
    },
    {
      "channel": 1,
      "note": 86,
      "start": 13.9518,
      "duration": 0.109,
      "velocity": 108,
      "chip": "ym2612"
    },
    {
      "channel": 3,
      "note": 67,
      "start": 14.0095,
      "duration": 0.0514,
      "velocity": 122,
      "chip": "ym2612"
    },
    {
      "channel": 3,
      "note": 67,
      "start": 14.0644,
      "duration": 0.056,
      "velocity": 122,
      "chip": "ym2612"
    },
    {
      "channel": 1,
      "note": 85,
      "start": 14.0668,
      "duration": 0.219,
      "velocity": 108,
      "chip": "ym2612"
    },
    {
      "channel": 3,
      "note": 67,
      "start": 14.1248,
      "duration": 0.0468,
      "velocity": 115,
      "chip": "ym2612"
    },
    {
      "channel": 3,
      "note": 67,
      "start": 14.1739,
      "duration": 0.1121,
      "velocity": 115,
      "chip": "ym2612"
    },
    {
      "channel": 3,
      "note": 67,
      "start": 14.2899,
      "duration": 0.0521,
      "velocity": 122,
      "chip": "ym2612"
    },
    {
      "channel": 1,
      "note": 86,
      "start": 14.292,
      "duration": 0.2104,
      "velocity": 108,
      "chip": "ym2612"
    },
    {
      "channel": 3,
      "note": 67,
      "start": 14.3462,
      "duration": 0.0546,
      "velocity": 115,
      "chip": "ym2612"
    },
    {
      "channel": 3,
      "note": 67,
      "start": 14.404,
      "duration": 0.0985,
      "velocity": 115,
      "chip": "ym2612"
    },
    {
      "channel": 3,
      "note": 67,
      "start": 14.5064,
      "duration": 0.06,
      "velocity": 122,
      "chip": "ym2612"
    },
    {
      "channel": 1,
      "note": 88,
      "start": 14.5088,
      "duration": 0.4946,
      "velocity": 108,
      "chip": "ym2612"
    },
    {
      "channel": 3,
      "note": 67,
      "start": 14.57,
      "duration": 0.0472,
      "velocity": 115,
      "chip": "ym2612"
    },
    {
      "channel": 3,
      "note": 67,
      "start": 14.6221,
      "duration": 0.0551,
      "velocity": 122,
      "chip": "ym2612"
    },
    {
      "channel": 3,
      "note": 67,
      "start": 14.6806,
      "duration": 0.0497,
      "velocity": 122,
      "chip": "ym2612"
    },
    {
      "channel": 3,
      "note": 67,
      "start": 14.7347,
      "duration": 0.0539,
      "velocity": 115,
      "chip": "ym2612"
    },
    {
      "channel": 3,
      "note": 67,
      "start": 14.7909,
      "duration": 0.098,
      "velocity": 115,
      "chip": "ym2612"
    },
    {
      "channel": 3,
      "note": 67,
      "start": 14.8915,
      "duration": 0.0591,
      "velocity": 115,
      "chip": "ym2612"
    },
    {
      "channel": 3,
      "note": 67,
      "start": 14.9529,
      "duration": 0.0506,
      "velocity": 115,
      "chip": "ym2612"
    },
    {
      "channel": 3,
      "note": 67,
      "start": 15.0069,
      "duration": 0.0578,
      "velocity": 115,
      "chip": "ym2612"
    },
    {
      "channel": 1,
      "note": 86,
      "start": 15.0097,
      "duration": 0.0549,
      "velocity": 108,
      "chip": "ym2612"
    },
    {
      "channel": 3,
      "note": 67,
      "start": 15.0681,
      "duration": 0.0583,
      "velocity": 115,
      "chip": "ym2612"
    },
    {
      "channel": 1,
      "note": 85,
      "start": 15.0705,
      "duration": 0.0558,
      "velocity": 108,
      "chip": "ym2612"
    },
    {
      "channel": 3,
      "note": 66,
      "start": 15.1307,
      "duration": 0.0511,
      "velocity": 122,
      "chip": "ym2612"
    },
    {
      "channel": 1,
      "note": 83,
      "start": 15.133,
      "duration": 0.4353,
      "velocity": 108,
      "chip": "ym2612"
    },
    {
      "channel": 0,
      "note": 54,
      "start": 15.135,
      "duration": 1.0591,
      "velocity": 93,
      "chip": "ym2612"
    },
    {
      "channel": 3,
      "note": 66,
      "start": 15.1859,
      "duration": 0.0541,
      "velocity": 115,
      "chip": "ym2612"
    },
    {
      "channel": 3,
      "note": 66,
      "start": 15.2435,
      "duration": 0.092,
      "velocity": 115,
      "chip": "ym2612"
    },
    {
      "channel": 3,
      "note": 66,
      "start": 15.3394,
      "duration": 0.0584,
      "velocity": 122,
      "chip": "ym2612"
    },
    {
      "channel": 3,
      "note": 66,
      "start": 15.4026,
      "duration": 0.0465,
      "velocity": 115,
      "chip": "ym2612"
    },
    {
      "channel": 3,
      "note": 66,
      "start": 15.4512,
      "duration": 0.1172,
      "velocity": 115,
      "chip": "ym2612"
    },
    {
      "channel": 3,
      "note": 66,
      "start": 15.5723,
      "duration": 0.0519,
      "velocity": 122,
      "chip": "ym2612"
    },
    {
      "channel": 1,
      "note": 83,
      "start": 15.5748,
      "duration": 0.5038,
      "velocity": 108,
      "chip": "ym2612"
    },
    {
      "channel": 3,
      "note": 66,
      "start": 15.6286,
      "duration": 0.0544,
      "velocity": 115,
      "chip": "ym2612"
    },
    {
      "channel": 3,
      "note": 66,
      "start": 15.6873,
      "duration": 0.0488,
      "velocity": 122,
      "chip": "ym2612"
    },
    {
      "channel": 3,
      "note": 66,
      "start": 15.7384,
      "duration": 0.0583,
      "velocity": 122,
      "chip": "ym2612"
    },
    {
      "channel": 3,
      "note": 66,
      "start": 15.8,
      "duration": 0.0472,
      "velocity": 115,
      "chip": "ym2612"
    },
    {
      "channel": 3,
      "note": 66,
      "start": 15.8505,
      "duration": 0.1138,
      "velocity": 115,
      "chip": "ym2612"
    },
    {
      "channel": 3,
      "note": 66,
      "start": 15.9669,
      "duration": 0.052,
      "velocity": 115,
      "chip": "ym2612"
    },
    {
      "channel": 3,
      "note": 66,
      "start": 16.0212,
      "duration": 0.0574,
      "velocity": 115,
      "chip": "ym2612"
    },
    {
      "channel": 3,
      "note": 66,
      "start": 16.0821,
      "duration": 0.0503,
      "velocity": 122,
      "chip": "ym2612"
    },
    {
      "channel": 1,
      "note": 85,
      "start": 16.0854,
      "duration": 0.047,
      "velocity": 108,
      "chip": "ym2612"
    },
    {
      "channel": 3,
      "note": 66,
      "start": 16.1347,
      "duration": 0.0596,
      "velocity": 122,
      "chip": "ym2612"
    },
    {
      "channel": 1,
      "note": 83,
      "start": 16.1366,
      "duration": 0.0576,
      "velocity": 108,
      "chip": "ym2612"
    },
    {
      "channel": 3,
      "note": 66,
      "start": 16.197,
      "duration": 0.0555,
      "velocity": 122,
      "chip": "ym2612"
    },
    {
      "channel": 1,
      "note": 85,
      "start": 16.1993,
      "duration": 0.436,
      "velocity": 108,
      "chip": "ym2612"
    },
    {
      "channel": 3,
      "note": 66,
      "start": 16.2569,
      "duration": 0.0467,
      "velocity": 115,
      "chip": "ym2612"
    },
    {
      "channel": 3,
      "note": 66,
      "start": 16.3058,
      "duration": 0.1127,
      "velocity": 115,
      "chip": "ym2612"
    },
    {
      "channel": 3,
      "note": 66,
      "start": 16.4224,
      "duration": 0.0519,
      "velocity": 122,
      "chip": "ym2612"
    },
    {
      "channel": 3,
      "note": 66,
      "start": 16.4778,
      "duration": 0.0551,
      "velocity": 115,
      "chip": "ym2612"
    },
    {
      "channel": 3,
      "note": 66,
      "start": 16.535,
      "duration": 0.1003,
      "velocity": 115,
      "chip": "ym2612"
    },
    {
      "channel": 3,
      "note": 66,
      "start": 16.6393,
      "duration": 0.0592,
      "velocity": 122,
      "chip": "ym2612"
    },
    {
      "channel": 1,
      "note": 82,
      "start": 16.6417,
      "duration": 0.6072,
      "velocity": 108,
      "chip": "ym2612"
    },
    {
      "channel": 3,
      "note": 66,
      "start": 16.702,
      "duration": 0.0482,
      "velocity": 115,
      "chip": "ym2612"
    },
    {
      "channel": 3,
      "note": 66,
      "start": 16.7547,
      "duration": 0.0549,
      "velocity": 122,
      "chip": "ym2612"
    },
    {
      "channel": 3,
      "note": 66,
      "start": 16.8132,
      "duration": 0.0504,
      "velocity": 122,
      "chip": "ym2612"
    },
    {
      "channel": 3,
      "note": 66,
      "start": 16.8678,
      "duration": 0.0542,
      "velocity": 115,
      "chip": "ym2612"
    },
    {
      "channel": 3,
      "note": 66,
      "start": 16.9242,
      "duration": 0.0978,
      "velocity": 115,
      "chip": "ym2612"
    },
    {
      "channel": 3,
      "note": 66,
      "start": 17.0246,
      "duration": 0.0591,
      "velocity": 115,
      "chip": "ym2612"
    },
    {
      "channel": 3,
      "note": 66,
      "start": 17.0859,
      "duration": 0.0506,
      "velocity": 115,
      "chip": "ym2612"
    },
    {
      "channel": 3,
      "note": 66,
      "start": 17.1398,
      "duration": 0.057,
      "velocity": 115,
      "chip": "ym2612"
    },
    {
      "channel": 3,
      "note": 66,
      "start": 17.1991,
      "duration": 0.05,
      "velocity": 115,
      "chip": "ym2612"
    },
    {
      "channel": 3,
      "note": 71,
      "start": 17.2534,
      "duration": 0.0577,
      "velocity": 122,
      "chip": "ym2612"
    },
    {
      "channel": 1,
      "note": 59,
      "start": 17.2556,
      "duration": 0.216,
      "velocity": 108,
      "chip": "ym2612"
    },
    {
      "channel": 0,
      "note": 59,
      "start": 17.2576,
      "duration": 1.0727,
      "velocity": 93,
      "chip": "ym2612"
    },
    {
      "channel": 4,
      "note": 62,
      "start": 17.2612,
      "duration": 0.2106,
      "velocity": 108,
      "chip": "ym2612"
    },
    {
      "channel": 3,
      "note": 71,
      "start": 17.3154,
      "duration": 0.0545,
      "velocity": 115,
      "chip": "ym2612"
    },
    {
      "channel": 3,
      "note": 71,
      "start": 17.373,
      "duration": 0.0986,
      "velocity": 115,
      "chip": "ym2612"
    },
    {
      "channel": 3,
      "note": 71,
      "start": 17.4756,
      "duration": 0.0612,
      "velocity": 122,
      "chip": "ym2612"
    },
    {
      "channel": 1,
      "note": 61,
      "start": 17.4783,
      "duration": 0.2253,
      "velocity": 108,
      "chip": "ym2612"
    },
    {
      "channel": 4,
      "note": 64,
      "start": 17.4806,
      "duration": 0.2232,
      "velocity": 108,
      "chip": "ym2612"
    },
    {
      "channel": 3,
      "note": 71,
      "start": 17.5406,
      "duration": 0.0459,
      "velocity": 115,
      "chip": "ym2612"
    },
    {
      "channel": 3,
      "note": 71,
      "start": 17.5889,
      "duration": 0.1147,
      "velocity": 115,
      "chip": "ym2612"
    },
    {
      "channel": 3,
      "note": 71,
      "start": 17.7076,
      "duration": 0.0533,
      "velocity": 122,
      "chip": "ym2612"
    },
    {
      "channel": 1,
      "note": 62,
      "start": 17.7101,
      "duration": 0.5039,
      "velocity": 108,
      "chip": "ym2612"
    },
    {
      "channel": 4,
      "note": 66,
      "start": 17.7127,
      "duration": 0.5015,
      "velocity": 108,
      "chip": "ym2612"
    },
    {
      "channel": 3,
      "note": 71,
      "start": 17.7652,
      "duration": 0.0527,
      "velocity": 115,
      "chip": "ym2612"
    },
    {
      "channel": 3,
      "note": 71,
      "start": 17.8222,
      "duration": 0.0487,
      "velocity": 122,
      "chip": "ym2612"
    },
    {
      "channel": 3,
      "note": 71,
      "start": 17.8734,
      "duration": 0.0582,
      "velocity": 122,
      "chip": "ym2612"
    },
    {
      "channel": 3,
      "note": 71,
      "start": 17.9349,
      "duration": 0.0475,
      "velocity": 115,
      "chip": "ym2612"
    },
    {
      "channel": 3,
      "note": 71,
      "start": 17.9856,
      "duration": 0.1138,
      "velocity": 115,
      "chip": "ym2612"
    },
    {
      "channel": 3,
      "note": 71,
      "start": 18.1019,
      "duration": 0.0522,
      "velocity": 115,
      "chip": "ym2612"
    },
    {
      "channel": 3,
      "note": 71,
      "start": 18.1564,
      "duration": 0.0576,
      "velocity": 115,
      "chip": "ym2612"
    },
    {
      "channel": 3,
      "note": 71,
      "start": 18.2176,
      "duration": 0.0524,
      "velocity": 122,
      "chip": "ym2612"
    },
    {
      "channel": 1,
      "note": 61,
      "start": 18.2209,
      "duration": 0.049,
      "velocity": 108,
      "chip": "ym2612"
    },
    {
      "channel": 4,
      "note": 64,
      "start": 18.2232,
      "duration": 0.0468,
      "velocity": 108,
      "chip": "ym2612"
    },
    {
      "channel": 3,
      "note": 71,
      "start": 18.2722,
      "duration": 0.0584,
      "velocity": 122,
      "chip": "ym2612"
    },
    {
      "channel": 1,
      "note": 62,
      "start": 18.2742,
      "duration": 0.0563,
      "velocity": 108,
      "chip": "ym2612"
    },
    {
      "channel": 4,
      "note": 66,
      "start": 18.2764,
      "duration": 0.0543,
      "velocity": 108,
      "chip": "ym2612"
    },
    {
      "channel": 3,
      "note": 71,
      "start": 18.3344,
      "duration": 0.0517,
      "velocity": 122,
      "chip": "ym2612"
    },
    {
      "channel": 1,
      "note": 64,
      "start": 18.3365,
      "duration": 0.2197,
      "velocity": 108,
      "chip": "ym2612"
    },
    {
      "channel": 4,
      "note": 67,
      "start": 18.3391,
      "duration": 0.2173,
      "velocity": 108,
      "chip": "ym2612"
    },
    {
      "channel": 3,
      "note": 71,
      "start": 18.3894,
      "duration": 0.0554,
      "velocity": 115,
      "chip": "ym2612"
    },
    {
      "channel": 3,
      "note": 71,
      "start": 18.4471,
      "duration": 0.1092,
      "velocity": 115,
      "chip": "ym2612"
    },
    {
      "channel": 3,
      "note": 71,
      "start": 18.5602,
      "duration": 0.0528,
      "velocity": 122,
      "chip": "ym2612"
    },
    {
      "channel": 1,
      "note": 67,
      "start": 18.5624,
      "duration": 0.2086,
      "velocity": 108,
      "chip": "ym2612"
    },
    {
      "channel": 4,
      "note": 74,
      "start": 18.5647,
      "duration": 0.2066,
      "velocity": 108,
      "chip": "ym2612"
    },
    {
      "channel": 3,
      "note": 71,
      "start": 18.6173,
      "duration": 0.0534,
      "velocity": 115,
      "chip": "ym2612"
    },
    {
      "channel": 3,
      "note": 71,
      "start": 18.673,
      "duration": 0.0982,
      "velocity": 115,
      "chip": "ym2612"
    },
    {
      "channel": 3,
      "note": 71,
      "start": 18.7751,
      "duration": 0.0618,
      "velocity": 122,
      "chip": "ym2612"
    },
    {
      "channel": 1,
      "note": 66,
      "start": 18.7775,
      "duration": 0.3815,
      "velocity": 108,
      "chip": "ym2612"
    },
    {
      "channel": 4,
      "note": 71,
      "start": 18.7802,
      "duration": 0.3791,
      "velocity": 108,
      "chip": "ym2612"
    },
    {
      "channel": 3,
      "note": 71,
      "start": 18.8403,
      "duration": 0.0466,
      "velocity": 115,
      "chip": "ym2612"
    },
    {
      "channel": 3,
      "note": 71,
      "start": 18.8918,
      "duration": 0.0553,
      "velocity": 122,
      "chip": "ym2612"
    },
    {
      "channel": 3,
      "note": 71,
      "start": 18.9506,
      "duration": 0.05,
      "velocity": 122,
      "chip": "ym2612"
    },
    {
      "channel": 3,
      "note": 71,
      "start": 19.0049,
      "duration": 0.0539,
      "velocity": 115,
      "chip": "ym2612"
    },
    {
      "channel": 3,
      "note": 71,
      "start": 19.062,
      "duration": 0.0972,
      "velocity": 115,
      "chip": "ym2612"
    },
    {
      "channel": 3,
      "note": 71,
      "start": 19.1618,
      "duration": 0.062,
      "velocity": 115,
      "chip": "ym2612"
    },
    {
      "channel": 1,
      "note": 66,
      "start": 19.1643,
      "duration": 0.1116,
      "velocity": 108,
      "chip": "ym2612"
    },
    {
      "channel": 4,
      "note": 71,
      "start": 19.1669,
      "duration": 0.1091,
      "velocity": 108,
      "chip": "ym2612"
    },
    {
      "channel": 3,
      "note": 71,
      "start": 19.2261,
      "duration": 0.0499,
      "velocity": 115,
      "chip": "ym2612"
    },
    {
      "channel": 3,
      "note": 71,
      "start": 19.2793,
      "duration": 0.0582,
      "velocity": 115,
      "chip": "ym2612"
    },
    {
      "channel": 1,
      "note": 67,
      "start": 19.2816,
      "duration": 0.0558,
      "velocity": 108,
      "chip": "ym2612"
    },
    {
      "channel": 4,
      "note": 73,
      "start": 19.2843,
      "duration": 0.0533,
      "velocity": 108,
      "chip": "ym2612"
    },
    {
      "channel": 3,
      "note": 71,
      "start": 19.3398,
      "duration": 0.0522,
      "velocity": 115,
      "chip": "ym2612"
    },
    {
      "channel": 1,
      "note": 66,
      "start": 19.3417,
      "duration": 0.0503,
      "velocity": 108,
      "chip": "ym2612"
    },
    {
      "channel": 4,
      "note": 71,
      "start": 19.3439,
      "duration": 0.0483,
      "velocity": 108,
      "chip": "ym2612"
    },
    {
      "channel": 3,
      "note": 71,
      "start": 19.3955,
      "duration": 0.0597,
      "velocity": 122,
      "chip": "ym2612"
    },
    {
      "channel": 1,
      "note": 71,
      "start": 19.3978,
      "duration": 0.2188,
      "velocity": 108,
      "chip": "ym2612"
    },
    {
      "channel": 0,
      "note": 59,
      "start": 19.4008,
      "duration": 1.0773,
      "velocity": 93,
      "chip": "ym2612"
    },
    {
      "channel": 4,
      "note": 74,
      "start": 19.4033,
      "duration": 0.2136,
      "velocity": 108,
      "chip": "ym2612"
    },
    {
      "channel": 3,
      "note": 71,
      "start": 19.4584,
      "duration": 0.0475,
      "velocity": 115,
      "chip": "ym2612"
    },
    {
      "channel": 3,
      "note": 71,
      "start": 19.5092,
      "duration": 0.1075,
      "velocity": 115,
      "chip": "ym2612"
    },
    {
      "channel": 3,
      "note": 71,
      "start": 19.6207,
      "duration": 0.0605,
      "velocity": 122,
      "chip": "ym2612"
    },
    {
      "channel": 1,
      "note": 73,
      "start": 19.6228,
      "duration": 0.2261,
      "velocity": 108,
      "chip": "ym2612"
    },
    {
      "channel": 4,
      "note": 76,
      "start": 19.6251,
      "duration": 0.2241,
      "velocity": 108,
      "chip": "ym2612"
    },
    {
      "channel": 3,
      "note": 71,
      "start": 19.6849,
      "duration": 0.0466,
      "velocity": 115,
      "chip": "ym2612"
    },
    {
      "channel": 3,
      "note": 71,
      "start": 19.734,
      "duration": 0.1151,
      "velocity": 115,
      "chip": "ym2612"
    },
    {
      "channel": 3,
      "note": 71,
      "start": 19.853,
      "duration": 0.0533,
      "velocity": 122,
      "chip": "ym2612"
    },
    {
      "channel": 1,
      "note": 74,
      "start": 19.8555,
      "duration": 0.5045,
      "velocity": 108,
      "chip": "ym2612"
    },
    {
      "channel": 4,
      "note": 78,
      "start": 19.8581,
      "duration": 0.502,
      "velocity": 108,
      "chip": "ym2612"
    },
    {
      "channel": 3,
      "note": 71,
      "start": 19.9106,
      "duration": 0.0527,
      "velocity": 115,
      "chip": "ym2612"
    },
    {
      "channel": 3,
      "note": 71,
      "start": 19.9677,
      "duration": 0.0487,
      "velocity": 122,
      "chip": "ym2612"
    },
    {
      "channel": 3,
      "note": 71,
      "start": 20.0189,
      "duration": 0.0579,
      "velocity": 122,
      "chip": "ym2612"
    },
    {
      "channel": 3,
      "note": 71,
      "start": 20.08,
      "duration": 0.0477,
      "velocity": 115,
      "chip": "ym2612"
    },
    {
      "channel": 3,
      "note": 71,
      "start": 20.1309,
      "duration": 0.1137,
      "velocity": 115,
      "chip": "ym2612"
    },
    {
      "channel": 3,
      "note": 71,
      "start": 20.2473,
      "duration": 0.053,
      "velocity": 115,
      "chip": "ym2612"
    },
    {
      "channel": 3,
      "note": 71,
      "start": 20.3026,
      "duration": 0.0575,
      "velocity": 115,
      "chip": "ym2612"
    },
    {
      "channel": 3,
      "note": 71,
      "start": 20.3635,
      "duration": 0.0537,
      "velocity": 122,
      "chip": "ym2612"
    },
    {
      "channel": 1,
      "note": 73,
      "start": 20.3669,
      "duration": 0.0503,
      "velocity": 108,
      "chip": "ym2612"
    },
    {
      "channel": 4,
      "note": 76,
      "start": 20.3699,
      "duration": 0.0475,
      "velocity": 108,
      "chip": "ym2612"
    },
    {
      "channel": 3,
      "note": 71,
      "start": 20.4195,
      "duration": 0.0587,
      "velocity": 122,
      "chip": "ym2612"
    },
    {
      "channel": 1,
      "note": 74,
      "start": 20.4218,
      "duration": 0.0564,
      "velocity": 108,
      "chip": "ym2612"
    },
    {
      "channel": 4,
      "note": 78,
      "start": 20.424,
      "duration": 0.0543,
      "velocity": 108,
      "chip": "ym2612"
    },
    {
      "channel": 3,
      "note": 71,
      "start": 20.4809,
      "duration": 0.0528,
      "velocity": 122,
      "chip": "ym2612"
    },
    {
      "channel": 1,
      "note": 76,
      "start": 20.4832,
      "duration": 0.2045,
      "velocity": 108,
      "chip": "ym2612"
    },
    {
      "channel": 4,
      "note": 79,
      "start": 20.4866,
      "duration": 0.2014,
      "velocity": 108,
      "chip": "ym2612"
    },
    {
      "channel": 3,
      "note": 71,
      "start": 20.5373,
      "duration": 0.0556,
      "velocity": 115,
      "chip": "ym2612"
    },
    {
      "channel": 3,
      "note": 71,
      "start": 20.5951,
      "duration": 0.0927,
      "velocity": 115,
      "chip": "ym2612"
    },
    {
      "channel": 3,
      "note": 71,
      "start": 20.6928,
      "duration": 0.0605,
      "velocity": 122,
      "chip": "ym2612"
    },
    {
      "channel": 1,
      "note": 78,
      "start": 20.6949,
      "duration": 0.2246,
      "velocity": 108,
      "chip": "ym2612"
    },
    {
      "channel": 4,
      "note": 81,
      "start": 20.6973,
      "duration": 0.2225,
      "velocity": 108,
      "chip": "ym2612"
    },
    {
      "channel": 3,
      "note": 71,
      "start": 20.7566,
      "duration": 0.0549,
      "velocity": 115,
      "chip": "ym2612"
    },
    {
      "channel": 3,
      "note": 71,
      "start": 20.8138,
      "duration": 0.1059,
      "velocity": 115,
      "chip": "ym2612"
    },
    {
      "channel": 3,
      "note": 71,
      "start": 20.9236,
      "duration": 0.0618,
      "velocity": 122,
      "chip": "ym2612"
    },
    {
      "channel": 1,
      "note": 83,
      "start": 20.926,
      "duration": 0.607,
      "velocity": 108,
      "chip": "ym2612"
    },
    {
      "channel": 4,
      "note": 78,
      "start": 20.9287,
      "duration": 0.6044,
      "velocity": 108,
      "chip": "ym2612"
    },
    {
      "channel": 3,
      "note": 71,
      "start": 20.9887,
      "duration": 0.0471,
      "velocity": 115,
      "chip": "ym2612"
    },
    {
      "channel": 3,
      "note": 71,
      "start": 21.0408,
      "duration": 0.0544,
      "velocity": 122,
      "chip": "ym2612"
    },
    {
      "channel": 3,
      "note": 71,
      "start": 21.0987,
      "duration": 0.0492,
      "velocity": 122,
      "chip": "ym2612"
    },
    {
      "channel": 3,
      "note": 71,
      "start": 21.1521,
      "duration": 0.0544,
      "velocity": 115,
      "chip": "ym2612"
    },
    {
      "channel": 3,
      "note": 71,
      "start": 21.2088,
      "duration": 0.0975,
      "velocity": 115,
      "chip": "ym2612"
    },
    {
      "channel": 3,
      "note": 71,
      "start": 21.3089,
      "duration": 0.059,
      "velocity": 115,
      "chip": "ym2612"
    },
    {
      "channel": 3,
      "note": 71,
      "start": 21.3703,
      "duration": 0.0505,
      "velocity": 115,
      "chip": "ym2612"
    },
    {
      "channel": 3,
      "note": 71,
      "start": 21.424,
      "duration": 0.0569,
      "velocity": 115,
      "chip": "ym2612"
    },
    {
      "channel": 3,
      "note": 71,
      "start": 21.4832,
      "duration": 0.05,
      "velocity": 115,
      "chip": "ym2612"
    },
    {
      "channel": 3,
      "note": 67,
      "start": 21.5374,
      "duration": 0.0572,
      "velocity": 122,
      "chip": "ym2612"
    },
    {
      "channel": 1,
      "note": 86,
      "start": 21.5396,
      "duration": 0.4471,
      "velocity": 108,
      "chip": "ym2612"
    },
    {
      "channel": 0,
      "note": 55,
      "start": 21.5415,
      "duration": 1.0737,
      "velocity": 93,
      "chip": "ym2612"
    },
    {
      "channel": 4,
      "note": 79,
      "start": 21.5451,
      "duration": 0.4419,
      "velocity": 108,
      "chip": "ym2612"
    },
    {
      "channel": 3,
      "note": 67,
      "start": 21.5989,
      "duration": 0.0466,
      "velocity": 115,
      "chip": "ym2612"
    },
    {
      "channel": 3,
      "note": 67,
      "start": 21.6476,
      "duration": 0.1063,
      "velocity": 115,
      "chip": "ym2612"
    },
    {
      "channel": 3,
      "note": 67,
      "start": 21.7578,
      "duration": 0.0516,
      "velocity": 122,
      "chip": "ym2612"
    },
    {
      "channel": 3,
      "note": 67,
      "start": 21.8131,
      "duration": 0.0544,
      "velocity": 115,
      "chip": "ym2612"
    },
    {
      "channel": 3,
      "note": 67,
      "start": 21.8697,
      "duration": 0.1171,
      "velocity": 115,
      "chip": "ym2612"
    },
    {
      "channel": 3,
      "note": 67,
      "start": 21.9907,
      "duration": 0.0533,
      "velocity": 122,
      "chip": "ym2612"
    },
    {
      "channel": 1,
      "note": 83,
      "start": 21.9929,
      "duration": 0.3905,
      "velocity": 108,
      "chip": "ym2612"
    },
    {
      "channel": 4,
      "note": 86,
      "start": 21.9952,
      "duration": 0.3885,
      "velocity": 108,
      "chip": "ym2612"
    },
    {
      "channel": 3,
      "note": 67,
      "start": 22.0484,
      "duration": 0.0533,
      "velocity": 115,
      "chip": "ym2612"
    },
    {
      "channel": 3,
      "note": 67,
      "start": 22.1061,
      "duration": 0.049,
      "velocity": 122,
      "chip": "ym2612"
    },
    {
      "channel": 3,
      "note": 67,
      "start": 22.1576,
      "duration": 0.0579,
      "velocity": 122,
      "chip": "ym2612"
    },
    {
      "channel": 3,
      "note": 67,
      "start": 22.2188,
      "duration": 0.0478,
      "velocity": 115,
      "chip": "ym2612"
    },
    {
      "channel": 3,
      "note": 67,
      "start": 22.2697,
      "duration": 0.1139,
      "velocity": 115,
      "chip": "ym2612"
    },
    {
      "channel": 3,
      "note": 67,
      "start": 22.3862,
      "duration": 0.0544,
      "velocity": 115,
      "chip": "ym2612"
    },
    {
      "channel": 1,
      "note": 85,
      "start": 22.3886,
      "duration": 0.112,
      "velocity": 108,
      "chip": "ym2612"
    },
    {
      "channel": 4,
      "note": 88,
      "start": 22.3913,
      "duration": 0.1094,
      "velocity": 108,
      "chip": "ym2612"
    },
    {
      "channel": 3,
      "note": 67,
      "start": 22.4439,
      "duration": 0.0568,
      "velocity": 115,
      "chip": "ym2612"
    },
    {
      "channel": 3,
      "note": 67,
      "start": 22.5045,
      "duration": 0.0497,
      "velocity": 122,
      "chip": "ym2612"
    },
    {
      "channel": 1,
      "note": 86,
      "start": 22.5066,
      "duration": 0.1087,
      "velocity": 108,
      "chip": "ym2612"
    },
    {
      "channel": 4,
      "note": 90,
      "start": 22.5098,
      "duration": 0.1056,
      "velocity": 108,
      "chip": "ym2612"
    },
    {
      "channel": 3,
      "note": 67,
      "start": 22.5575,
      "duration": 0.0578,
      "velocity": 122,
      "chip": "ym2612"
    },
    {
      "channel": 3,
      "note": 67,
      "start": 22.6177,
      "duration": 0.0541,
      "velocity": 122,
      "chip": "ym2612"
    },
    {
      "channel": 1,
      "note": 85,
      "start": 22.62,
      "duration": 0.2052,
      "velocity": 108,
      "chip": "ym2612"
    },
    {
      "channel": 4,
      "note": 88,
      "start": 22.6227,
      "duration": 0.2027,
      "velocity": 108,
      "chip": "ym2612"
    },
    {
      "channel": 3,
      "note": 67,
      "start": 22.6752,
      "duration": 0.0553,
      "velocity": 115,
      "chip": "ym2612"
    },
    {
      "channel": 3,
      "note": 67,
      "start": 22.7327,
      "duration": 0.0926,
      "velocity": 115,
      "chip": "ym2612"
    },
    {
      "channel": 3,
      "note": 67,
      "start": 22.8293,
      "duration": 0.0612,
      "velocity": 122,
      "chip": "ym2612"
    },
    {
      "channel": 1,
      "note": 86,
      "start": 22.8314,
      "duration": 0.2274,
      "velocity": 108,
      "chip": "ym2612"
    },
    {
      "channel": 4,
      "note": 90,
      "start": 22.8337,
      "duration": 0.2254,
      "velocity": 108,
      "chip": "ym2612"
    },
    {
      "channel": 3,
      "note": 67,
      "start": 22.8938,
      "duration": 0.0476,
      "velocity": 115,
      "chip": "ym2612"
    },
    {
      "channel": 3,
      "note": 67,
      "start": 22.9437,
      "duration": 0.1153,
      "velocity": 115,
      "chip": "ym2612"
    },
    {
      "channel": 3,
      "note": 67,
      "start": 23.0629,
      "duration": 0.0619,
      "velocity": 122,
      "chip": "ym2612"
    },
    {
      "channel": 1,
      "note": 88,
      "start": 23.0654,
      "duration": 0.4958,
      "velocity": 108,
      "chip": "ym2612"
    },
    {
      "channel": 4,
      "note": 91,
      "start": 23.068,
      "duration": 0.4933,
      "velocity": 108,
      "chip": "ym2612"
    },
    {
      "channel": 3,
      "note": 67,
      "start": 23.1284,
      "duration": 0.0464,
      "velocity": 115,
      "chip": "ym2612"
    },
    {
      "channel": 3,
      "note": 67,
      "start": 23.1797,
      "duration": 0.0558,
      "velocity": 122,
      "chip": "ym2612"
    },
    {
      "channel": 3,
      "note": 67,
      "start": 23.2387,
      "duration": 0.0495,
      "velocity": 122,
      "chip": "ym2612"
    },
    {
      "channel": 3,
      "note": 67,
      "start": 23.2927,
      "duration": 0.0545,
      "velocity": 115,
      "chip": "ym2612"
    },
    {
      "channel": 3,
      "note": 67,
      "start": 23.3495,
      "duration": 0.098,
      "velocity": 115,
      "chip": "ym2612"
    },
    {
      "channel": 3,
      "note": 67,
      "start": 23.4501,
      "duration": 0.0587,
      "velocity": 115,
      "chip": "ym2612"
    },
    {
      "channel": 3,
      "note": 67,
      "start": 23.5108,
      "duration": 0.0504,
      "velocity": 115,
      "chip": "ym2612"
    },
    {
      "channel": 3,
      "note": 67,
      "start": 23.5635,
      "duration": 0.0592,
      "velocity": 115,
      "chip": "ym2612"
    },
    {
      "channel": 1,
      "note": 86,
      "start": 23.5668,
      "duration": 0.0558,
      "velocity": 108,
      "chip": "ym2612"
    },
    {
      "channel": 4,
      "note": 90,
      "start": 23.5693,
      "duration": 0.0535,
      "velocity": 108,
      "chip": "ym2612"
    },
    {
      "channel": 3,
      "note": 67,
      "start": 23.625,
      "duration": 0.0527,
      "velocity": 115,
      "chip": "ym2612"
    },
    {
      "channel": 1,
      "note": 85,
      "start": 23.628,
      "duration": 0.0496,
      "velocity": 108,
      "chip": "ym2612"
    },
    {
      "channel": 4,
      "note": 88,
      "start": 23.6303,
      "duration": 0.0475,
      "velocity": 108,
      "chip": "ym2612"
    },
    {
      "channel": 3,
      "note": 66,
      "start": 23.6812,
      "duration": 0.0593,
      "velocity": 122,
      "chip": "ym2612"
    },
    {
      "channel": 1,
      "note": 83,
      "start": 23.6835,
      "duration": 0.4334,
      "velocity": 108,
      "chip": "ym2612"
    },
    {
      "channel": 0,
      "note": 54,
      "start": 23.6865,
      "duration": 1.0693,
      "velocity": 93,
      "chip": "ym2612"
    },
    {
      "channel": 4,
      "note": 86,
      "start": 23.689,
      "duration": 0.8323,
      "velocity": 108,
      "chip": "ym2612"
    },
    {
      "channel": 3,
      "note": 66,
      "start": 23.7441,
      "duration": 0.0467,
      "velocity": 115,
      "chip": "ym2612"
    },
    {
      "channel": 3,
      "note": 66,
      "start": 23.7929,
      "duration": 0.1075,
      "velocity": 115,
      "chip": "ym2612"
    },
    {
      "channel": 3,
      "note": 66,
      "start": 23.9043,
      "duration": 0.052,
      "velocity": 122,
      "chip": "ym2612"
    },
    {
      "channel": 3,
      "note": 66,
      "start": 23.9599,
      "duration": 0.0545,
      "velocity": 115,
      "chip": "ym2612"
    },
    {
      "channel": 3,
      "note": 66,
      "start": 24.0166,
      "duration": 0.1004,
      "velocity": 115,
      "chip": "ym2612"
    },
    {
      "channel": 3,
      "note": 66,
      "start": 24.121,
      "duration": 0.0604,
      "velocity": 122,
      "chip": "ym2612"
    },
    {
      "channel": 1,
      "note": 83,
      "start": 24.1239,
      "duration": 0.5138,
      "velocity": 108,
      "chip": "ym2612"
    },
    {
      "channel": 3,
      "note": 66,
      "start": 24.185,
      "duration": 0.055,
      "velocity": 115,
      "chip": "ym2612"
    },
    {
      "channel": 3,
      "note": 66,
      "start": 24.2434,
      "duration": 0.0495,
      "velocity": 122,
      "chip": "ym2612"
    },
    {
      "channel": 3,
      "note": 66,
      "start": 24.2962,
      "duration": 0.0569,
      "velocity": 122,
      "chip": "ym2612"
    },
    {
      "channel": 3,
      "note": 66,
      "start": 24.3564,
      "duration": 0.0478,
      "velocity": 115,
      "chip": "ym2612"
    },
    {
      "channel": 3,
      "note": 66,
      "start": 24.4073,
      "duration": 0.1139,
      "velocity": 115,
      "chip": "ym2612"
    },
    {
      "channel": 3,
      "note": 66,
      "start": 24.5239,
      "duration": 0.0541,
      "velocity": 115,
      "chip": "ym2612"
    },
    {
      "channel": 4,
      "note": 85,
      "start": 24.5266,
      "duration": 0.0514,
      "velocity": 108,
      "chip": "ym2612"
    },
    {
      "channel": 3,
      "note": 66,
      "start": 24.5801,
      "duration": 0.0577,
      "velocity": 115,
      "chip": "ym2612"
    },
    {
      "channel": 4,
      "note": 86,
      "start": 24.5828,
      "duration": 0.0551,
      "velocity": 108,
      "chip": "ym2612"
    },
    {
      "channel": 3,
      "note": 66,
      "start": 24.6428,
      "duration": 0.0511,
      "velocity": 122,
      "chip": "ym2612"
    },
    {
      "channel": 1,
      "note": 85,
      "start": 24.6451,
      "duration": 0.0486,
      "velocity": 108,
      "chip": "ym2612"
    },
    {
      "channel": 4,
      "note": 85,
      "start": 24.6494,
      "duration": 0.0445,
      "velocity": 108,
      "chip": "ym2612"
    },
    {
      "channel": 3,
      "note": 66,
      "start": 24.6972,
      "duration": 0.0587,
      "velocity": 122,
      "chip": "ym2612"
    },
    {
      "channel": 1,
      "note": 83,
      "start": 24.6993,
      "duration": 0.0566,
      "velocity": 108,
      "chip": "ym2612"
    },
    {
      "channel": 4,
      "note": 83,
      "start": 24.7015,
      "duration": 0.0546,
      "velocity": 108,
      "chip": "ym2612"
    },
    {
      "channel": 3,
      "note": 66,
      "start": 24.7582,
      "duration": 0.0522,
      "velocity": 122,
      "chip": "ym2612"
    },
    {
      "channel": 1,
      "note": 85,
      "start": 24.7616,
      "duration": 0.4365,
      "velocity": 108,
      "chip": "ym2612"
    },
    {
      "channel": 4,
      "note": 90,
      "start": 24.7639,
      "duration": 0.5487,
      "velocity": 108,
      "chip": "ym2612"
    },
    {
      "channel": 3,
      "note": 66,
      "start": 24.8136,
      "duration": 0.0556,
      "velocity": 115,
      "chip": "ym2612"
    },
    {
      "channel": 3,
      "note": 66,
      "start": 24.8713,
      "duration": 0.0936,
      "velocity": 115,
      "chip": "ym2612"
    },
    {
      "channel": 3,
      "note": 66,
      "start": 24.9688,
      "duration": 0.0585,
      "velocity": 122,
      "chip": "ym2612"
    },
    {
      "channel": 3,
      "note": 66,
      "start": 25.0319,
      "duration": 0.0471,
      "velocity": 115,
      "chip": "ym2612"
    },
    {
      "channel": 3,
      "note": 66,
      "start": 25.0811,
      "duration": 0.1171,
      "velocity": 115,
      "chip": "ym2612"
    },
    {
      "channel": 3,
      "note": 66,
      "start": 25.2021,
      "duration": 0.0525,
      "velocity": 122,
      "chip": "ym2612"
    },
    {
      "channel": 1,
      "note": 82,
      "start": 25.2045,
      "duration": 0.6129,
      "velocity": 108,
      "chip": "ym2612"
    },
    {
      "channel": 3,
      "note": 66,
      "start": 25.2588,
      "duration": 0.0537,
      "velocity": 115,
      "chip": "ym2612"
    },
    {
      "channel": 3,
      "note": 66,
      "start": 25.3172,
      "duration": 0.0555,
      "velocity": 122,
      "chip": "ym2612"
    },
    {
      "channel": 4,
      "note": 88,
      "start": 25.3197,
      "duration": 0.2668,
      "velocity": 108,
      "chip": "ym2612"
    },
    {
      "channel": 3,
      "note": 66,
      "start": 25.3751,
      "duration": 0.0506,
      "velocity": 122,
      "chip": "ym2612"
    },
    {
      "channel": 3,
      "note": 66,
      "start": 25.4298,
      "duration": 0.0546,
      "velocity": 115,
      "chip": "ym2612"
    },
    {
      "channel": 3,
      "note": 66,
      "start": 25.4876,
      "duration": 0.0987,
      "velocity": 115,
      "chip": "ym2612"
    },
    {
      "channel": 3,
      "note": 66,
      "start": 25.589,
      "duration": 0.0603,
      "velocity": 115,
      "chip": "ym2612"
    },
    {
      "channel": 4,
      "note": 86,
      "start": 25.5918,
      "duration": 0.1116,
      "velocity": 108,
      "chip": "ym2612"
    },
    {
      "channel": 3,
      "note": 66,
      "start": 25.6521,
      "duration": 0.0512,
      "velocity": 115,
      "chip": "ym2612"
    },
    {
      "channel": 3,
      "note": 66,
      "start": 25.7066,
      "duration": 0.0575,
      "velocity": 115,
      "chip": "ym2612"
    },
    {
      "channel": 4,
      "note": 85,
      "start": 25.7096,
      "duration": 0.108,
      "velocity": 108,
      "chip": "ym2612"
    },
    {
      "channel": 3,
      "note": 66,
      "start": 25.7673,
      "duration": 0.0502,
      "velocity": 115,
      "chip": "ym2612"
    },
    {
      "channel": 3,
      "note": 71,
      "start": 25.8231,
      "duration": 22.5678,
      "velocity": 122,
      "chip": "ym2612"
    }
  ]
}