{
  "track_name": "06 - You're My Hero",
  "duration_sec": 41.228,
  "sample_rate": 44100,
  "note_count": 1317,
  "unique_pitches": 25,
  "pitch_range": 40,
  "avg_note_duration": 0.1563,
  "reconstruction_stats": {
    "notes_reconstructed": 1317,
    "keyon_events": 1317,
    "keyoff_events": 1311,
    "orphan_keyons": 6,
    "unique_pitches": 25,
    "pitch_range": 40,
    "avg_duration_sec": 0.1563
  },
  "metadata": {
    "source": "V\\Viper-V10\\06 - You're My Hero.vgz"
  },
  "notes": [
    {
      "channel": 0,
      "note": 67,
      "start": 0.0017,
      "duration": 0.0858,
      "velocity": 105,
      "chip": "ym2612"
    },
    {
      "channel": 1,
      "note": 55,
      "start": 0.0035,
      "duration": 0.1555,
      "velocity": 87,
      "chip": "ym2612"
    },
    {
      "channel": 2,
      "note": 44,
      "start": 0.0053,
      "duration": 0.1002,
      "velocity": 127,
      "chip": "ym2612"
    },
    {
      "channel": 3,
      "note": 79,
      "start": 0.007,
      "duration": 0.2078,
      "velocity": 102,
      "chip": "ym2612"
    },
    {
      "channel": 4,
      "note": 79,
      "start": 0.009,
      "duration": 0.079,
      "velocity": 105,
      "chip": "ym2612"
    },
    {
      "channel": 5,
      "note": 74,
      "start": 0.0107,
      "duration": 0.2044,
      "velocity": 102,
      "chip": "ym2612"
    },
    {
      "channel": 0,
      "note": 67,
      "start": 0.0878,
      "duration": 0.089,
      "velocity": 105,
      "chip": "ym2612"
    },
    {
      "channel": 4,
      "note": 79,
      "start": 0.0885,
      "duration": 0.0887,
      "velocity": 105,
      "chip": "ym2612"
    },
    {
      "channel": 2,
      "note": 75,
      "start": 0.1071,
      "duration": 0.106,
      "velocity": 127,
      "chip": "ym2612"
    },
    {
      "channel": 0,
      "note": 67,
      "start": 0.1771,
      "duration": 0.0355,
      "velocity": 105,
      "chip": "ym2612"
    },
    {
      "channel": 4,
      "note": 79,
      "start": 0.1774,
      "duration": 0.0374,
      "velocity": 105,
      "chip": "ym2612"
    },
    {
      "channel": 0,
      "note": 69,
      "start": 0.2128,
      "duration": 0.089,
      "velocity": 105,
      "chip": "ym2612"
    },
    {
      "channel": 1,
      "note": 67,
      "start": 0.213,
      "duration": 0.1602,
      "velocity": 87,
      "chip": "ym2612"
    },
    {
      "channel": 2,
      "note": 66,
      "start": 0.2147,
      "duration": 0.2126,
      "velocity": 127,
      "chip": "ym2612"
    },
    {
      "channel": 4,
      "note": 81,
      "start": 0.2151,
      "duration": 0.0871,
      "velocity": 105,
      "chip": "ym2612"
    },
    {
      "channel": 0,
      "note": 69,
      "start": 0.3021,
      "duration": 0.089,
      "velocity": 105,
      "chip": "ym2612"
    },
    {
      "channel": 4,
      "note": 81,
      "start": 0.3024,
      "duration": 0.089,
      "velocity": 105,
      "chip": "ym2612"
    },
    {
      "channel": 0,
      "note": 69,
      "start": 0.3914,
      "duration": 0.0355,
      "velocity": 105,
      "chip": "ym2612"
    },
    {
      "channel": 4,
      "note": 81,
      "start": 0.3917,
      "duration": 0.0379,
      "velocity": 105,
      "chip": "ym2612"
    },
    {
      "channel": 0,
      "note": 70,
      "start": 0.4271,
      "duration": 0.089,
      "velocity": 105,
      "chip": "ym2612"
    },
    {
      "channel": 1,
      "note": 55,
      "start": 0.4273,
      "duration": 0.1602,
      "velocity": 87,
      "chip": "ym2612"
    },
    {
      "channel": 2,
      "note": 44,
      "start": 0.4293,
      "duration": 0.1047,
      "velocity": 127,
      "chip": "ym2612"
    },
    {
      "channel": 3,
      "note": 79,
      "start": 0.4296,
      "duration": 0.2135,
      "velocity": 102,
      "chip": "ym2612"
    },
    {
      "channel": 4,
      "note": 82,
      "start": 0.4299,
      "duration": 0.0866,
      "velocity": 105,
      "chip": "ym2612"
    },
    {
      "channel": 5,
      "note": 74,
      "start": 0.4302,
      "duration": 0.2129,
      "velocity": 102,
      "chip": "ym2612"
    },
    {
      "channel": 0,
      "note": 70,
      "start": 0.5163,
      "duration": 0.089,
      "velocity": 105,
      "chip": "ym2612"
    },
    {
      "channel": 4,
      "note": 82,
      "start": 0.5168,
      "duration": 0.089,
      "velocity": 105,
      "chip": "ym2612"
    },
    {
      "channel": 2,
      "note": 75,
      "start": 0.5357,
      "duration": 0.1057,
      "velocity": 127,
      "chip": "ym2612"
    },
    {
      "channel": 0,
      "note": 70,
      "start": 0.6056,
      "duration": 0.089,
      "velocity": 105,
      "chip": "ym2612"
    },
    {
      "channel": 4,
      "note": 82,
      "start": 0.606,
      "duration": 0.089,
      "velocity": 105,
      "chip": "ym2612"
    },
    {
      "channel": 1,
      "note": 67,
      "start": 0.6413,
      "duration": 0.1605,
      "velocity": 87,
      "chip": "ym2612"
    },
    {
      "channel": 2,
      "note": 66,
      "start": 0.643,
      "duration": 0.2126,
      "velocity": 127,
      "chip": "ym2612"
    },
    {
      "channel": 0,
      "note": 70,
      "start": 0.6949,
      "duration": 0.0536,
      "velocity": 105,
      "chip": "ym2612"
    },
    {
      "channel": 4,
      "note": 82,
      "start": 0.6952,
      "duration": 0.0536,
      "velocity": 105,
      "chip": "ym2612"
    },
    {
      "channel": 0,
      "note": 67,
      "start": 0.7487,
      "duration": 0.0888,
      "velocity": 105,
      "chip": "ym2612"
    },
    {
      "channel": 4,
      "note": 79,
      "start": 0.749,
      "duration": 0.0888,
      "velocity": 105,
      "chip": "ym2612"
    },
    {
      "channel": 0,
      "note": 67,
      "start": 0.8378,
      "duration": 0.089,
      "velocity": 105,
      "chip": "ym2612"
    },
    {
      "channel": 4,
      "note": 79,
      "start": 0.8381,
      "duration": 0.0891,
      "velocity": 105,
      "chip": "ym2612"
    },
    {
      "channel": 1,
      "note": 55,
      "start": 0.8556,
      "duration": 0.1605,
      "velocity": 87,
      "chip": "ym2612"
    },
    {
      "channel": 2,
      "note": 44,
      "start": 0.8573,
      "duration": 0.1055,
      "velocity": 127,
      "chip": "ym2612"
    },
    {
      "channel": 3,
      "note": 79,
      "start": 0.8576,
      "duration": 0.2143,
      "velocity": 102,
      "chip": "ym2612"
    },
    {
      "channel": 5,
      "note": 74,
      "start": 0.8579,
      "duration": 0.2143,
      "velocity": 102,
      "chip": "ym2612"
    },
    {
      "channel": 0,
      "note": 67,
      "start": 0.927,
      "duration": 0.0355,
      "velocity": 105,
      "chip": "ym2612"
    },
    {
      "channel": 4,
      "note": 79,
      "start": 0.9274,
      "duration": 0.0371,
      "velocity": 105,
      "chip": "ym2612"
    },
    {
      "channel": 0,
      "note": 67,
      "start": 0.9627,
      "duration": 0.089,
      "velocity": 105,
      "chip": "ym2612"
    },
    {
      "channel": 2,
      "note": 75,
      "start": 0.9644,
      "duration": 0.1057,
      "velocity": 127,
      "chip": "ym2612"
    },
    {
      "channel": 4,
      "note": 79,
      "start": 0.9647,
      "duration": 0.0874,
      "velocity": 105,
      "chip": "ym2612"
    },
    {
      "channel": 0,
      "note": 67,
      "start": 1.052,
      "duration": 0.0176,
      "velocity": 105,
      "chip": "ym2612"
    },
    {
      "channel": 4,
      "note": 79,
      "start": 1.0524,
      "duration": 0.0195,
      "velocity": 105,
      "chip": "ym2612"
    },
    {
      "channel": 0,
      "note": 69,
      "start": 1.0699,
      "duration": 0.089,
      "velocity": 105,
      "chip": "ym2612"
    },
    {
      "channel": 1,
      "note": 67,
      "start": 1.0701,
      "duration": 0.1602,
      "velocity": 87,
      "chip": "ym2612"
    },
    {
      "channel": 2,
      "note": 66,
      "start": 1.0718,
      "duration": 0.2126,
      "velocity": 127,
      "chip": "ym2612"
    },
    {
      "channel": 4,
      "note": 81,
      "start": 1.0722,
      "duration": 0.0871,
      "velocity": 105,
      "chip": "ym2612"
    },
    {
      "channel": 0,
      "note": 69,
      "start": 1.1592,
      "duration": 0.0893,
      "velocity": 105,
      "chip": "ym2612"
    },
    {
      "channel": 4,
      "note": 81,
      "start": 1.1595,
      "duration": 0.0893,
      "velocity": 105,
      "chip": "ym2612"
    },
    {
      "channel": 0,
      "note": 69,
      "start": 1.2487,
      "duration": 0.0352,
      "velocity": 105,
      "chip": "ym2612"
    },
    {
      "channel": 4,
      "note": 81,
      "start": 1.249,
      "duration": 0.0375,
      "velocity": 105,
      "chip": "ym2612"
    },
    {
      "channel": 0,
      "note": 70,
      "start": 1.2841,
      "duration": 0.089,
      "velocity": 105,
      "chip": "ym2612"
    },
    {
      "channel": 1,
      "note": 55,
      "start": 1.2844,
      "duration": 0.1602,
      "velocity": 87,
      "chip": "ym2612"
    },
    {
      "channel": 2,
      "note": 44,
      "start": 1.2862,
      "duration": 0.1049,
      "velocity": 127,
      "chip": "ym2612"
    },
    {
      "channel": 3,
      "note": 79,
      "start": 1.2865,
      "duration": 0.2139,
      "velocity": 102,
      "chip": "ym2612"
    },
    {
      "channel": 4,
      "note": 82,
      "start": 1.2867,
      "duration": 0.0869,
      "velocity": 105,
      "chip": "ym2612"
    },
    {
      "channel": 5,
      "note": 74,
      "start": 1.2871,
      "duration": 0.2137,
      "velocity": 102,
      "chip": "ym2612"
    },
    {
      "channel": 0,
      "note": 70,
      "start": 1.3734,
      "duration": 0.089,
      "velocity": 105,
      "chip": "ym2612"
    },
    {
      "channel": 4,
      "note": 82,
      "start": 1.3738,
      "duration": 0.089,
      "velocity": 105,
      "chip": "ym2612"
    },
    {
      "channel": 2,
      "note": 75,
      "start": 1.3927,
      "duration": 0.106,
      "velocity": 127,
      "chip": "ym2612"
    },
    {
      "channel": 0,
      "note": 70,
      "start": 1.4627,
      "duration": 0.089,
      "velocity": 105,
      "chip": "ym2612"
    },
    {
      "channel": 4,
      "note": 82,
      "start": 1.4631,
      "duration": 0.089,
      "velocity": 105,
      "chip": "ym2612"
    },
    {
      "channel": 1,
      "note": 67,
      "start": 1.4986,
      "duration": 0.1602,
      "velocity": 87,
      "chip": "ym2612"
    },
    {
      "channel": 2,
      "note": 66,
      "start": 1.5003,
      "duration": 0.2127,
      "velocity": 127,
      "chip": "ym2612"
    },
    {
      "channel": 3,
      "note": 79,
      "start": 1.5007,
      "duration": 0.214,
      "velocity": 102,
      "chip": "ym2612"
    },
    {
      "channel": 5,
      "note": 74,
      "start": 1.501,
      "duration": 0.2143,
      "velocity": 102,
      "chip": "ym2612"
    },
    {
      "channel": 0,
      "note": 70,
      "start": 1.552,
      "duration": 0.089,
      "velocity": 105,
      "chip": "ym2612"
    },
    {
      "channel": 4,
      "note": 82,
      "start": 1.5523,
      "duration": 0.089,
      "velocity": 105,
      "chip": "ym2612"
    },
    {
      "channel": 0,
      "note": 70,
      "start": 1.6413,
      "duration": 0.0712,
      "velocity": 105,
      "chip": "ym2612"
    },
    {
      "channel": 4,
      "note": 82,
      "start": 1.6416,
      "duration": 0.0735,
      "velocity": 105,
      "chip": "ym2612"
    },
    {
      "channel": 0,
      "note": 67,
      "start": 1.7127,
      "duration": 0.089,
      "velocity": 105,
      "chip": "ym2612"
    },
    {
      "channel": 1,
      "note": 51,
      "start": 1.7129,
      "duration": 0.1602,
      "velocity": 87,
      "chip": "ym2612"
    },
    {
      "channel": 2,
      "note": 44,
      "start": 1.7147,
      "duration": 0.1049,
      "velocity": 127,
      "chip": "ym2612"
    },
    {
      "channel": 3,
      "note": 75,
      "start": 1.715,
      "duration": 0.2142,
      "velocity": 102,
      "chip": "ym2612"
    },
    {
      "channel": 4,
      "note": 79,
      "start": 1.7153,
      "duration": 0.0868,
      "velocity": 105,
      "chip": "ym2612"
    },
    {
      "channel": 5,
      "note": 70,
      "start": 1.7156,
      "duration": 0.2139,
      "velocity": 102,
      "chip": "ym2612"
    },
    {
      "channel": 0,
      "note": 67,
      "start": 1.802,
      "duration": 0.089,
      "velocity": 105,
      "chip": "ym2612"
    },
    {
      "channel": 4,
      "note": 79,
      "start": 1.8024,
      "duration": 0.089,
      "velocity": 105,
      "chip": "ym2612"
    },
    {
      "channel": 2,
      "note": 75,
      "start": 1.8213,
      "duration": 0.106,
      "velocity": 127,
      "chip": "ym2612"
    },
    {
      "channel": 0,
      "note": 67,
      "start": 1.8912,
      "duration": 0.0355,
      "velocity": 105,
      "chip": "ym2612"
    },
    {
      "channel": 4,
      "note": 79,
      "start": 1.8916,
      "duration": 0.0377,
      "velocity": 105,
      "chip": "ym2612"
    },
    {
      "channel": 0,
      "note": 69,
      "start": 1.927,
      "duration": 0.089,
      "velocity": 105,
      "chip": "ym2612"
    },
    {
      "channel": 1,
      "note": 63,
      "start": 1.9272,
      "duration": 0.1602,
      "velocity": 87,
      "chip": "ym2612"
    },
    {
      "channel": 2,
      "note": 66,
      "start": 1.9292,
      "duration": 0.2124,
      "velocity": 127,
      "chip": "ym2612"
    },
    {
      "channel": 4,
      "note": 81,
      "start": 1.9295,
      "duration": 0.0868,
      "velocity": 105,
      "chip": "ym2612"
    },
    {
      "channel": 0,
      "note": 69,
      "start": 2.0163,
      "duration": 0.089,
      "velocity": 105,
      "chip": "ym2612"
    },
    {
      "channel": 4,
      "note": 81,
      "start": 2.0166,
      "duration": 0.0891,
      "velocity": 105,
      "chip": "ym2612"
    },
    {
      "channel": 0,
      "note": 69,
      "start": 2.1055,
      "duration": 0.0355,
      "velocity": 105,
      "chip": "ym2612"
    },
    {
      "channel": 4,
      "note": 81,
      "start": 2.1059,
      "duration": 0.0377,
      "velocity": 105,
      "chip": "ym2612"
    },
    {
      "channel": 0,
      "note": 70,
      "start": 2.1412,
      "duration": 0.089,
      "velocity": 105,
      "chip": "ym2612"
    },
    {
      "channel": 1,
      "note": 51,
      "start": 2.1415,
      "duration": 0.1602,
      "velocity": 87,
      "chip": "ym2612"
    },
    {
      "channel": 2,
      "note": 44,
      "start": 2.1432,
      "duration": 0.1049,
      "velocity": 127,
      "chip": "ym2612"
    },
    {
      "channel": 3,
      "note": 75,
      "start": 2.1435,
      "duration": 0.2137,
      "velocity": 102,
      "chip": "ym2612"
    },
    {
      "channel": 4,
      "note": 82,
      "start": 2.1438,
      "duration": 0.0869,
      "velocity": 105,
      "chip": "ym2612"
    },
    {
      "channel": 5,
      "note": 70,
      "start": 2.1441,
      "duration": 0.2132,
      "velocity": 102,
      "chip": "ym2612"
    },
    {
      "channel": 0,
      "note": 70,
      "start": 2.2305,
      "duration": 0.089,
      "velocity": 105,
      "chip": "ym2612"
    },
    {
      "channel": 4,
      "note": 82,
      "start": 2.2309,
      "duration": 0.089,
      "velocity": 105,
      "chip": "ym2612"
    },
    {
      "channel": 2,
      "note": 75,
      "start": 2.2501,
      "duration": 0.1055,
      "velocity": 127,
      "chip": "ym2612"
    },
    {
      "channel": 0,
      "note": 70,
      "start": 2.3198,
      "duration": 0.089,
      "velocity": 105,
      "chip": "ym2612"
    },
    {
      "channel": 4,
      "note": 82,
      "start": 2.3202,
      "duration": 0.089,
      "velocity": 105,
      "chip": "ym2612"
    },
    {
      "channel": 1,
      "note": 63,
      "start": 2.3555,
      "duration": 0.1605,
      "velocity": 87,
      "chip": "ym2612"
    },
    {
      "channel": 2,
      "note": 66,
      "start": 2.3572,
      "duration": 0.2126,
      "velocity": 127,
      "chip": "ym2612"
    },
    {
      "channel": 0,
      "note": 70,
      "start": 2.4091,
      "duration": 0.0533,
      "velocity": 105,
      "chip": "ym2612"
    },
    {
      "channel": 4,
      "note": 82,
      "start": 2.4094,
      "duration": 0.0533,
      "velocity": 105,
      "chip": "ym2612"
    },
    {
      "channel": 0,
      "note": 72,
      "start": 2.4627,
      "duration": 0.089,
      "velocity": 105,
      "chip": "ym2612"
    },
    {
      "channel": 4,
      "note": 84,
      "start": 2.4629,
      "duration": 0.0891,
      "velocity": 105,
      "chip": "ym2612"
    },
    {
      "channel": 0,
      "note": 72,
      "start": 2.5519,
      "duration": 0.089,
      "velocity": 105,
      "chip": "ym2612"
    },
    {
      "channel": 4,
      "note": 84,
      "start": 2.5523,
      "duration": 0.089,
      "velocity": 105,
      "chip": "ym2612"
    },
    {
      "channel": 1,
      "note": 53,
      "start": 2.5698,
      "duration": 0.1605,
      "velocity": 87,
      "chip": "ym2612"
    },
    {
      "channel": 2,
      "note": 44,
      "start": 2.5715,
      "duration": 0.1055,
      "velocity": 127,
      "chip": "ym2612"
    },
    {
      "channel": 3,
      "note": 77,
      "start": 2.5718,
      "duration": 0.2143,
      "velocity": 102,
      "chip": "ym2612"
    },
    {
      "channel": 5,
      "note": 72,
      "start": 2.5721,
      "duration": 0.2143,
      "velocity": 102,
      "chip": "ym2612"
    },
    {
      "channel": 0,
      "note": 72,
      "start": 2.6412,
      "duration": 0.0355,
      "velocity": 105,
      "chip": "ym2612"
    },
    {
      "channel": 4,
      "note": 84,
      "start": 2.6416,
      "duration": 0.0373,
      "velocity": 105,
      "chip": "ym2612"
    },
    {
      "channel": 0,
      "note": 72,
      "start": 2.6769,
      "duration": 0.089,
      "velocity": 105,
      "chip": "ym2612"
    },
    {
      "channel": 2,
      "note": 75,
      "start": 2.6789,
      "duration": 0.1055,
      "velocity": 127,
      "chip": "ym2612"
    },
    {
      "channel": 4,
      "note": 84,
      "start": 2.6792,
      "duration": 0.0871,
      "velocity": 105,
      "chip": "ym2612"
    },
    {
      "channel": 0,
      "note": 72,
      "start": 2.7662,
      "duration": 0.0176,
      "velocity": 105,
      "chip": "ym2612"
    },
    {
      "channel": 4,
      "note": 84,
      "start": 2.7666,
      "duration": 0.0195,
      "velocity": 105,
      "chip": "ym2612"
    },
    {
      "channel": 0,
      "note": 70,
      "start": 2.7841,
      "duration": 0.089,
      "velocity": 105,
      "chip": "ym2612"
    },
    {
      "channel": 1,
      "note": 65,
      "start": 2.7843,
      "duration": 0.1602,
      "velocity": 87,
      "chip": "ym2612"
    },
    {
      "channel": 2,
      "note": 66,
      "start": 2.786,
      "duration": 0.2129,
      "velocity": 127,
      "chip": "ym2612"
    },
    {
      "channel": 4,
      "note": 82,
      "start": 2.7863,
      "duration": 0.0871,
      "velocity": 105,
      "chip": "ym2612"
    },
    {
      "channel": 0,
      "note": 70,
      "start": 2.8733,
      "duration": 0.089,
      "velocity": 105,
      "chip": "ym2612"
    },
    {
      "channel": 4,
      "note": 82,
      "start": 2.8737,
      "duration": 0.0891,
      "velocity": 105,
      "chip": "ym2612"
    },
    {
      "channel": 0,
      "note": 70,
      "start": 2.9626,
      "duration": 0.0355,
      "velocity": 105,
      "chip": "ym2612"
    },
    {
      "channel": 4,
      "note": 82,
      "start": 2.963,
      "duration": 0.0379,
      "velocity": 105,
      "chip": "ym2612"
    },
    {
      "channel": 0,
      "note": 69,
      "start": 2.9986,
      "duration": 0.0888,
      "velocity": 105,
      "chip": "ym2612"
    },
    {
      "channel": 1,
      "note": 53,
      "start": 2.9988,
      "duration": 0.16,
      "velocity": 87,
      "chip": "ym2612"
    },
    {
      "channel": 2,
      "note": 44,
      "start": 3.0005,
      "duration": 0.1047,
      "velocity": 127,
      "chip": "ym2612"
    },
    {
      "channel": 3,
      "note": 77,
      "start": 3.0008,
      "duration": 0.2138,
      "velocity": 102,
      "chip": "ym2612"
    },
    {
      "channel": 4,
      "note": 81,
      "start": 3.0011,
      "duration": 0.0866,
      "velocity": 105,
      "chip": "ym2612"
    },
    {
      "channel": 5,
      "note": 72,
      "start": 3.0014,
      "duration": 0.2135,
      "velocity": 102,
      "chip": "ym2612"
    },
    {
      "channel": 0,
      "note": 69,
      "start": 3.0876,
      "duration": 0.089,
      "velocity": 105,
      "chip": "ym2612"
    },
    {
      "channel": 4,
      "note": 81,
      "start": 3.088,
      "duration": 0.089,
      "velocity": 105,
      "chip": "ym2612"
    },
    {
      "channel": 2,
      "note": 75,
      "start": 3.1069,
      "duration": 0.106,
      "velocity": 127,
      "chip": "ym2612"
    },
    {
      "channel": 0,
      "note": 69,
      "start": 3.1769,
      "duration": 0.0355,
      "velocity": 105,
      "chip": "ym2612"
    },
    {
      "channel": 4,
      "note": 81,
      "start": 3.1773,
      "duration": 0.0374,
      "velocity": 105,
      "chip": "ym2612"
    },
    {
      "channel": 0,
      "note": 65,
      "start": 3.2126,
      "duration": 0.089,
      "velocity": 105,
      "chip": "ym2612"
    },
    {
      "channel": 1,
      "note": 65,
      "start": 3.2128,
      "duration": 0.1602,
      "velocity": 87,
      "chip": "ym2612"
    },
    {
      "channel": 2,
      "note": 66,
      "start": 3.2146,
      "duration": 0.2126,
      "velocity": 127,
      "chip": "ym2612"
    },
    {
      "channel": 4,
      "note": 77,
      "start": 3.2149,
      "duration": 0.0871,
      "velocity": 105,
      "chip": "ym2612"
    },
    {
      "channel": 0,
      "note": 65,
      "start": 3.3019,
      "duration": 0.089,
      "velocity": 105,
      "chip": "ym2612"
    },
    {
      "channel": 4,
      "note": 77,
      "start": 3.3022,
      "duration": 0.089,
      "velocity": 105,
      "chip": "ym2612"
    },
    {
      "channel": 0,
      "note": 65,
      "start": 3.3912,
      "duration": 0.0355,
      "velocity": 105,
      "chip": "ym2612"
    },
    {
      "channel": 4,
      "note": 77,
      "start": 3.3915,
      "duration": 0.038,
      "velocity": 105,
      "chip": "ym2612"
    },
    {
      "channel": 0,
      "note": 67,
      "start": 3.4269,
      "duration": 0.089,
      "velocity": 105,
      "chip": "ym2612"
    },
    {
      "channel": 1,
      "note": 55,
      "start": 3.4271,
      "duration": 0.1602,
      "velocity": 87,
      "chip": "ym2612"
    },
    {
      "channel": 2,
      "note": 44,
      "start": 3.4291,
      "duration": 0.1047,
      "velocity": 127,
      "chip": "ym2612"
    },
    {
      "channel": 3,
      "note": 79,
      "start": 3.4294,
      "duration": 0.2137,
      "velocity": 102,
      "chip": "ym2612"
    },
    {
      "channel": 4,
      "note": 79,
      "start": 3.4297,
      "duration": 0.0866,
      "velocity": 105,
      "chip": "ym2612"
    },
    {
      "channel": 5,
      "note": 74,
      "start": 3.43,
      "duration": 0.2135,
      "velocity": 102,
      "chip": "ym2612"
    },
    {
      "channel": 0,
      "note": 67,
      "start": 3.5161,
      "duration": 0.089,
      "velocity": 105,
      "chip": "ym2612"
    },
    {
      "channel": 4,
      "note": 79,
      "start": 3.5166,
      "duration": 0.089,
      "velocity": 105,
      "chip": "ym2612"
    },
    {
      "channel": 2,
      "note": 75,
      "start": 3.5355,
      "duration": 0.106,
      "velocity": 127,
      "chip": "ym2612"
    },
    {
      "channel": 0,
      "note": 67,
      "start": 3.6054,
      "duration": 0.0355,
      "velocity": 105,
      "chip": "ym2612"
    },
    {
      "channel": 4,
      "note": 79,
      "start": 3.6058,
      "duration": 0.0374,
      "velocity": 105,
      "chip": "ym2612"
    },
    {
      "channel": 0,
      "note": 69,
      "start": 3.6411,
      "duration": 0.089,
      "velocity": 105,
      "chip": "ym2612"
    },
    {
      "channel": 1,
      "note": 67,
      "start": 3.6414,
      "duration": 0.1602,
      "velocity": 87,
      "chip": "ym2612"
    },
    {
      "channel": 2,
      "note": 66,
      "start": 3.6431,
      "duration": 0.2126,
      "velocity": 127,
      "chip": "ym2612"
    },
    {
      "channel": 4,
      "note": 81,
      "start": 3.6434,
      "duration": 0.0871,
      "velocity": 105,
      "chip": "ym2612"
    },
    {
      "channel": 0,
      "note": 69,
      "start": 3.7304,
      "duration": 0.089,
      "velocity": 105,
      "chip": "ym2612"
    },
    {
      "channel": 4,
      "note": 81,
      "start": 3.7307,
      "duration": 0.0891,
      "velocity": 105,
      "chip": "ym2612"
    },
    {
      "channel": 0,
      "note": 69,
      "start": 3.8197,
      "duration": 0.0355,
      "velocity": 105,
      "chip": "ym2612"
    },
    {
      "channel": 4,
      "note": 81,
      "start": 3.8201,
      "duration": 0.0377,
      "velocity": 105,
      "chip": "ym2612"
    },
    {
      "channel": 0,
      "note": 70,
      "start": 3.8554,
      "duration": 0.089,
      "velocity": 105,
      "chip": "ym2612"
    },
    {
      "channel": 1,
      "note": 55,
      "start": 3.8557,
      "duration": 0.1602,
      "velocity": 87,
      "chip": "ym2612"
    },
    {
      "channel": 2,
      "note": 44,
      "start": 3.8574,
      "duration": 0.1049,
      "velocity": 127,
      "chip": "ym2612"
    },
    {
      "channel": 3,
      "note": 79,
      "start": 3.8577,
      "duration": 0.2137,
      "velocity": 102,
      "chip": "ym2612"
    },
    {
      "channel": 4,
      "note": 82,
      "start": 3.858,
      "duration": 0.0869,
      "velocity": 105,
      "chip": "ym2612"
    },
    {
      "channel": 5,
      "note": 74,
      "start": 3.8585,
      "duration": 0.2129,
      "velocity": 102,
      "chip": "ym2612"
    },
    {
      "channel": 0,
      "note": 70,
      "start": 3.9447,
      "duration": 0.089,
      "velocity": 105,
      "chip": "ym2612"
    },
    {
      "channel": 4,
      "note": 82,
      "start": 3.9451,
      "duration": 0.089,
      "velocity": 105,
      "chip": "ym2612"
    },
    {
      "channel": 2,
      "note": 75,
      "start": 3.964,
      "duration": 0.1057,
      "velocity": 127,
      "chip": "ym2612"
    },
    {
      "channel": 0,
      "note": 70,
      "start": 4.034,
      "duration": 0.089,
      "velocity": 105,
      "chip": "ym2612"
    },
    {
      "channel": 4,
      "note": 82,
      "start": 4.0343,
      "duration": 0.089,
      "velocity": 105,
      "chip": "ym2612"
    },
    {
      "channel": 1,
      "note": 67,
      "start": 4.0697,
      "duration": 0.1605,
      "velocity": 87,
      "chip": "ym2612"
    },
    {
      "channel": 2,
      "note": 66,
      "start": 4.0714,
      "duration": 0.2126,
      "velocity": 127,
      "chip": "ym2612"
    },
    {
      "channel": 0,
      "note": 70,
      "start": 4.1233,
      "duration": 0.0533,
      "velocity": 105,
      "chip": "ym2612"
    },
    {
      "channel": 4,
      "note": 82,
      "start": 4.1236,
      "duration": 0.0533,
      "velocity": 105,
      "chip": "ym2612"
    },
    {
      "channel": 0,
      "note": 67,
      "start": 4.1768,
      "duration": 0.089,
      "velocity": 105,
      "chip": "ym2612"
    },
    {
      "channel": 4,
      "note": 79,
      "start": 4.1771,
      "duration": 0.0891,
      "velocity": 105,
      "chip": "ym2612"
    },
    {
      "channel": 0,
      "note": 67,
      "start": 4.2661,
      "duration": 0.089,
      "velocity": 105,
      "chip": "ym2612"
    },
    {
      "channel": 4,
      "note": 79,
      "start": 4.2665,
      "duration": 0.0891,
      "velocity": 105,
      "chip": "ym2612"
    },
    {
      "channel": 1,
      "note": 55,
      "start": 4.2839,
      "duration": 0.1605,
      "velocity": 87,
      "chip": "ym2612"
    },
    {
      "channel": 2,
      "note": 44,
      "start": 4.2857,
      "duration": 0.1055,
      "velocity": 127,
      "chip": "ym2612"
    },
    {
      "channel": 3,
      "note": 79,
      "start": 4.286,
      "duration": 0.2145,
      "velocity": 102,
      "chip": "ym2612"
    },
    {
      "channel": 5,
      "note": 74,
      "start": 4.2863,
      "duration": 0.2145,
      "velocity": 102,
      "chip": "ym2612"
    },
    {
      "channel": 0,
      "note": 67,
      "start": 4.3554,
      "duration": 0.0355,
      "velocity": 105,
      "chip": "ym2612"
    },
    {
      "channel": 4,
      "note": 79,
      "start": 4.3558,
      "duration": 0.0371,
      "velocity": 105,
      "chip": "ym2612"
    },
    {
      "channel": 0,
      "note": 67,
      "start": 4.3911,
      "duration": 0.089,
      "velocity": 105,
      "chip": "ym2612"
    },
    {
      "channel": 2,
      "note": 75,
      "start": 4.3928,
      "duration": 0.106,
      "velocity": 127,
      "chip": "ym2612"
    },
    {
      "channel": 4,
      "note": 79,
      "start": 4.3931,
      "duration": 0.0874,
      "velocity": 105,
      "chip": "ym2612"
    },
    {
      "channel": 0,
      "note": 67,
      "start": 4.4804,
      "duration": 0.0176,
      "velocity": 105,
      "chip": "ym2612"
    },
    {
      "channel": 4,
      "note": 79,
      "start": 4.4807,
      "duration": 0.0198,
      "velocity": 105,
      "chip": "ym2612"
    },
    {
      "channel": 0,
      "note": 69,
      "start": 4.4985,
      "duration": 0.0888,
      "velocity": 105,
      "chip": "ym2612"
    },
    {
      "channel": 1,
      "note": 67,
      "start": 4.4987,
      "duration": 0.16,
      "velocity": 87,
      "chip": "ym2612"
    },
    {
      "channel": 2,
      "note": 66,
      "start": 4.5004,
      "duration": 0.2124,
      "velocity": 127,
      "chip": "ym2612"
    },
    {
      "channel": 4,
      "note": 81,
      "start": 4.5008,
      "duration": 0.0868,
      "velocity": 105,
      "chip": "ym2612"
    },
    {
      "channel": 0,
      "note": 69,
      "start": 4.5875,
      "duration": 0.089,
      "velocity": 105,
      "chip": "ym2612"
    },
    {
      "channel": 4,
      "note": 81,
      "start": 4.5878,
      "duration": 0.0891,
      "velocity": 105,
      "chip": "ym2612"
    },
    {
      "channel": 0,
      "note": 69,
      "start": 4.6768,
      "duration": 0.0355,
      "velocity": 105,
      "chip": "ym2612"
    },
    {
      "channel": 4,
      "note": 81,
      "start": 4.6771,
      "duration": 0.0377,
      "velocity": 105,
      "chip": "ym2612"
    },
    {
      "channel": 0,
      "note": 70,
      "start": 4.7125,
      "duration": 0.089,
      "velocity": 105,
      "chip": "ym2612"
    },
    {
      "channel": 1,
      "note": 55,
      "start": 4.7127,
      "duration": 0.1602,
      "velocity": 87,
      "chip": "ym2612"
    },
    {
      "channel": 2,
      "note": 44,
      "start": 4.7145,
      "duration": 0.1049,
      "velocity": 127,
      "chip": "ym2612"
    },
    {
      "channel": 3,
      "note": 79,
      "start": 4.7148,
      "duration": 0.214,
      "velocity": 102,
      "chip": "ym2612"
    },
    {
      "channel": 4,
      "note": 82,
      "start": 4.7151,
      "duration": 0.0869,
      "velocity": 105,
      "chip": "ym2612"
    },
    {
      "channel": 5,
      "note": 74,
      "start": 4.7154,
      "duration": 0.2137,
      "velocity": 102,
      "chip": "ym2612"
    },
    {
      "channel": 0,
      "note": 70,
      "start": 4.8018,
      "duration": 0.089,
      "velocity": 105,
      "chip": "ym2612"
    },
    {
      "channel": 4,
      "note": 82,
      "start": 4.8022,
      "duration": 0.089,
      "velocity": 105,
      "chip": "ym2612"
    },
    {
      "channel": 2,
      "note": 75,
      "start": 4.8211,
      "duration": 0.1057,
      "velocity": 127,
      "chip": "ym2612"
    },
    {
      "channel": 0,
      "note": 70,
      "start": 4.8911,
      "duration": 0.089,
      "velocity": 105,
      "chip": "ym2612"
    },
    {
      "channel": 4,
      "note": 82,
      "start": 4.8914,
      "duration": 0.089,
      "velocity": 105,
      "chip": "ym2612"
    },
    {
      "channel": 1,
      "note": 67,
      "start": 4.9267,
      "duration": 0.1605,
      "velocity": 87,
      "chip": "ym2612"
    },
    {
      "channel": 2,
      "note": 66,
      "start": 4.9287,
      "duration": 0.2126,
      "velocity": 127,
      "chip": "ym2612"
    },
    {
      "channel": 3,
      "note": 79,
      "start": 4.929,
      "duration": 0.2141,
      "velocity": 102,
      "chip": "ym2612"
    },
    {
      "channel": 5,
      "note": 74,
      "start": 4.9294,
      "duration": 0.2143,
      "velocity": 102,
      "chip": "ym2612"
    },
    {
      "channel": 0,
      "note": 70,
      "start": 4.9803,
      "duration": 0.089,
      "velocity": 105,
      "chip": "ym2612"
    },
    {
      "channel": 4,
      "note": 82,
      "start": 4.9807,
      "duration": 0.089,
      "velocity": 105,
      "chip": "ym2612"
    },
    {
      "channel": 0,
      "note": 70,
      "start": 5.0696,
      "duration": 0.0712,
      "velocity": 105,
      "chip": "ym2612"
    },
    {
      "channel": 4,
      "note": 82,
      "start": 5.0699,
      "duration": 0.0735,
      "velocity": 105,
      "chip": "ym2612"
    },
    {
      "channel": 0,
      "note": 67,
      "start": 5.141,
      "duration": 0.089,
      "velocity": 105,
      "chip": "ym2612"
    },
    {
      "channel": 1,
      "note": 51,
      "start": 5.1413,
      "duration": 0.1602,
      "velocity": 87,
      "chip": "ym2612"
    },
    {
      "channel": 2,
      "note": 44,
      "start": 5.143,
      "duration": 0.1049,
      "velocity": 127,
      "chip": "ym2612"
    },
    {
      "channel": 3,
      "note": 75,
      "start": 5.1434,
      "duration": 0.214,
      "velocity": 102,
      "chip": "ym2612"
    },
    {
      "channel": 4,
      "note": 79,
      "start": 5.1437,
      "duration": 0.0868,
      "velocity": 105,
      "chip": "ym2612"
    },
    {
      "channel": 5,
      "note": 70,
      "start": 5.144,
      "duration": 0.2137,
      "velocity": 102,
      "chip": "ym2612"
    },
    {
      "channel": 0,
      "note": 67,
      "start": 5.2303,
      "duration": 0.089,
      "velocity": 105,
      "chip": "ym2612"
    },
    {
      "channel": 4,
      "note": 79,
      "start": 5.2307,
      "duration": 0.089,
      "velocity": 105,
      "chip": "ym2612"
    },
    {
      "channel": 2,
      "note": 75,
      "start": 5.2499,
      "duration": 0.1057,
      "velocity": 127,
      "chip": "ym2612"
    },
    {
      "channel": 0,
      "note": 67,
      "start": 5.3196,
      "duration": 0.0355,
      "velocity": 105,
      "chip": "ym2612"
    },
    {
      "channel": 4,
      "note": 79,
      "start": 5.32,
      "duration": 0.0374,
      "velocity": 105,
      "chip": "ym2612"
    },
    {
      "channel": 0,
      "note": 69,
      "start": 5.3553,
      "duration": 0.089,
      "velocity": 105,
      "chip": "ym2612"
    },
    {
      "channel": 1,
      "note": 63,
      "start": 5.3556,
      "duration": 0.1602,
      "velocity": 87,
      "chip": "ym2612"
    },
    {
      "channel": 2,
      "note": 66,
      "start": 5.3573,
      "duration": 0.2126,
      "velocity": 127,
      "chip": "ym2612"
    },
    {
      "channel": 4,
      "note": 81,
      "start": 5.3576,
      "duration": 0.0871,
      "velocity": 105,
      "chip": "ym2612"
    },
    {
      "channel": 0,
      "note": 69,
      "start": 5.4446,
      "duration": 0.089,
      "velocity": 105,
      "chip": "ym2612"
    },
    {
      "channel": 4,
      "note": 81,
      "start": 5.4449,
      "duration": 0.0891,
      "velocity": 105,
      "chip": "ym2612"
    },
    {
      "channel": 0,
      "note": 69,
      "start": 5.5339,
      "duration": 0.0355,
      "velocity": 105,
      "chip": "ym2612"
    },
    {
      "channel": 4,
      "note": 81,
      "start": 5.5342,
      "duration": 0.0377,
      "velocity": 105,
      "chip": "ym2612"
    },
    {
      "channel": 0,
      "note": 70,
      "start": 5.5696,
      "duration": 0.089,
      "velocity": 105,
      "chip": "ym2612"
    },
    {
      "channel": 1,
      "note": 51,
      "start": 5.5698,
      "duration": 0.1602,
      "velocity": 87,
      "chip": "ym2612"
    },
    {
      "channel": 2,
      "note": 44,
      "start": 5.5716,
      "duration": 0.1049,
      "velocity": 127,
      "chip": "ym2612"
    },
    {
      "channel": 3,
      "note": 75,
      "start": 5.5719,
      "duration": 0.2138,
      "velocity": 102,
      "chip": "ym2612"
    },
    {
      "channel": 4,
      "note": 82,
      "start": 5.5722,
      "duration": 0.0869,
      "velocity": 105,
      "chip": "ym2612"
    },
    {
      "channel": 5,
      "note": 70,
      "start": 5.5724,
      "duration": 0.2132,
      "velocity": 102,
      "chip": "ym2612"
    },
    {
      "channel": 0,
      "note": 70,
      "start": 5.6589,
      "duration": 0.089,
      "velocity": 105,
      "chip": "ym2612"
    },
    {
      "channel": 4,
      "note": 82,
      "start": 5.6593,
      "duration": 0.0893,
      "velocity": 105,
      "chip": "ym2612"
    },
    {
      "channel": 2,
      "note": 75,
      "start": 5.6782,
      "duration": 0.1057,
      "velocity": 127,
      "chip": "ym2612"
    },
    {
      "channel": 0,
      "note": 70,
      "start": 5.7482,
      "duration": 0.089,
      "velocity": 105,
      "chip": "ym2612"
    },
    {
      "channel": 4,
      "note": 82,
      "start": 5.7488,
      "duration": 0.0888,
      "velocity": 105,
      "chip": "ym2612"
    },
    {
      "channel": 1,
      "note": 63,
      "start": 5.7838,
      "duration": 0.1605,
      "velocity": 87,
      "chip": "ym2612"
    },
    {
      "channel": 2,
      "note": 66,
      "start": 5.7856,
      "duration": 0.2126,
      "velocity": 127,
      "chip": "ym2612"
    },
    {
      "channel": 0,
      "note": 70,
      "start": 5.8374,
      "duration": 0.0533,
      "velocity": 105,
      "chip": "ym2612"
    },
    {
      "channel": 4,
      "note": 82,
      "start": 5.8378,
      "duration": 0.0533,
      "velocity": 105,
      "chip": "ym2612"
    },
    {
      "channel": 0,
      "note": 72,
      "start": 5.891,
      "duration": 0.089,
      "velocity": 105,
      "chip": "ym2612"
    },
    {
      "channel": 4,
      "note": 84,
      "start": 5.8913,
      "duration": 0.0891,
      "velocity": 105,
      "chip": "ym2612"
    },
    {
      "channel": 0,
      "note": 72,
      "start": 5.9803,
      "duration": 0.089,
      "velocity": 105,
      "chip": "ym2612"
    },
    {
      "channel": 4,
      "note": 84,
      "start": 5.9806,
      "duration": 0.0891,
      "velocity": 105,
      "chip": "ym2612"
    },
    {
      "channel": 1,
      "note": 53,
      "start": 5.9981,
      "duration": 0.1605,
      "velocity": 87,
      "chip": "ym2612"
    },
    {
      "channel": 2,
      "note": 44,
      "start": 6.0001,
      "duration": 0.1052,
      "velocity": 127,
      "chip": "ym2612"
    },
    {
      "channel": 3,
      "note": 77,
      "start": 6.0004,
      "duration": 0.214,
      "velocity": 102,
      "chip": "ym2612"
    },
    {
      "channel": 5,
      "note": 72,
      "start": 6.0007,
      "duration": 0.2141,
      "velocity": 102,
      "chip": "ym2612"
    },
    {
      "channel": 0,
      "note": 72,
      "start": 6.0696,
      "duration": 0.0355,
      "velocity": 105,
      "chip": "ym2612"
    },
    {
      "channel": 4,
      "note": 84,
      "start": 6.07,
      "duration": 0.0371,
      "velocity": 105,
      "chip": "ym2612"
    },
    {
      "channel": 0,
      "note": 72,
      "start": 6.1053,
      "duration": 0.089,
      "velocity": 105,
      "chip": "ym2612"
    },
    {
      "channel": 2,
      "note": 75,
      "start": 6.107,
      "duration": 0.1057,
      "velocity": 127,
      "chip": "ym2612"
    },
    {
      "channel": 4,
      "note": 84,
      "start": 6.1073,
      "duration": 0.0874,
      "velocity": 105,
      "chip": "ym2612"
    },
    {
      "channel": 0,
      "note": 72,
      "start": 6.1946,
      "duration": 0.0176,
      "velocity": 105,
      "chip": "ym2612"
    },
    {
      "channel": 4,
      "note": 84,
      "start": 6.1949,
      "duration": 0.0195,
      "velocity": 105,
      "chip": "ym2612"
    },
    {
      "channel": 0,
      "note": 70,
      "start": 6.2124,
      "duration": 0.089,
      "velocity": 105,
      "chip": "ym2612"
    },
    {
      "channel": 1,
      "note": 65,
      "start": 6.2127,
      "duration": 0.1602,
      "velocity": 87,
      "chip": "ym2612"
    },
    {
      "channel": 2,
      "note": 66,
      "start": 6.2144,
      "duration": 0.2126,
      "velocity": 127,
      "chip": "ym2612"
    },
    {
      "channel": 4,
      "note": 82,
      "start": 6.2147,
      "duration": 0.0871,
      "velocity": 105,
      "chip": "ym2612"
    },
    {
      "channel": 0,
      "note": 70,
      "start": 6.3017,
      "duration": 0.089,
      "velocity": 105,
      "chip": "ym2612"
    },
    {
      "channel": 4,
      "note": 82,
      "start": 6.302,
      "duration": 0.0891,
      "velocity": 105,
      "chip": "ym2612"
    },
    {
      "channel": 0,
      "note": 70,
      "start": 6.391,
      "duration": 0.0355,
      "velocity": 105,
      "chip": "ym2612"
    },
    {
      "channel": 4,
      "note": 82,
      "start": 6.3913,
      "duration": 0.0379,
      "velocity": 105,
      "chip": "ym2612"
    },
    {
      "channel": 0,
      "note": 69,
      "start": 6.4267,
      "duration": 0.089,
      "velocity": 105,
      "chip": "ym2612"
    },
    {
      "channel": 1,
      "note": 53,
      "start": 6.4269,
      "duration": 0.1602,
      "velocity": 87,
      "chip": "ym2612"
    },
    {
      "channel": 2,
      "note": 44,
      "start": 6.4289,
      "duration": 0.1047,
      "velocity": 127,
      "chip": "ym2612"
    },
    {
      "channel": 3,
      "note": 77,
      "start": 6.4292,
      "duration": 0.2137,
      "velocity": 102,
      "chip": "ym2612"
    },
    {
      "channel": 4,
      "note": 81,
      "start": 6.4295,
      "duration": 0.0866,
      "velocity": 105,
      "chip": "ym2612"
    },
    {
      "channel": 5,
      "note": 72,
      "start": 6.4298,
      "duration": 0.2135,
      "velocity": 102,
      "chip": "ym2612"
    },
    {
      "channel": 0,
      "note": 69,
      "start": 6.516,
      "duration": 0.089,
      "velocity": 105,
      "chip": "ym2612"
    },
    {
      "channel": 4,
      "note": 81,
      "start": 6.5164,
      "duration": 0.089,
      "velocity": 105,
      "chip": "ym2612"
    },
    {
      "channel": 2,
      "note": 75,
      "start": 6.5352,
      "duration": 0.106,
      "velocity": 127,
      "chip": "ym2612"
    },
    {
      "channel": 0,
      "note": 69,
      "start": 6.6052,
      "duration": 0.0355,
      "velocity": 105,
      "chip": "ym2612"
    },
    {
      "channel": 4,
      "note": 81,
      "start": 6.6056,
      "duration": 0.0374,
      "velocity": 105,
      "chip": "ym2612"
    },
    {
      "channel": 0,
      "note": 65,
      "start": 6.641,
      "duration": 0.089,
      "velocity": 105,
      "chip": "ym2612"
    },
    {
      "channel": 1,
      "note": 65,
      "start": 6.6412,
      "duration": 0.1602,
      "velocity": 87,
      "chip": "ym2612"
    },
    {
      "channel": 2,
      "note": 66,
      "start": 6.6429,
      "duration": 0.2158,
      "velocity": 127,
      "chip": "ym2612"
    },
    {
      "channel": 4,
      "note": 77,
      "start": 6.6432,
      "duration": 0.0871,
      "velocity": 105,
      "chip": "ym2612"
    },
    {
      "channel": 0,
      "note": 65,
      "start": 6.7302,
      "duration": 0.089,
      "velocity": 105,
      "chip": "ym2612"
    },
    {
      "channel": 4,
      "note": 77,
      "start": 6.7305,
      "duration": 0.0891,
      "velocity": 105,
      "chip": "ym2612"
    },
    {
      "channel": 0,
      "note": 65,
      "start": 6.8195,
      "duration": 0.0355,
      "velocity": 105,
      "chip": "ym2612"
    },
    {
      "channel": 4,
      "note": 77,
      "start": 6.8199,
      "duration": 0.0422,
      "velocity": 105,
      "chip": "ym2612"
    },
    {
      "channel": 0,
      "note": 67,
      "start": 6.8566,
      "duration": 0.0876,
      "velocity": 105,
      "chip": "ym2612"
    },
    {
      "channel": 1,
      "note": 55,
      "start": 6.8586,
      "duration": 0.1571,
      "velocity": 87,
      "chip": "ym2612"
    },
    {
      "channel": 2,
      "note": 44,
      "start": 6.8604,
      "duration": 0.1018,
      "velocity": 127,
      "chip": "ym2612"
    },
    {
      "channel": 3,
      "note": 79,
      "start": 6.8621,
      "duration": 0.2094,
      "velocity": 102,
      "chip": "ym2612"
    },
    {
      "channel": 4,
      "note": 79,
      "start": 6.8638,
      "duration": 0.0809,
      "velocity": 105,
      "chip": "ym2612"
    },
    {
      "channel": 5,
      "note": 74,
      "start": 6.8655,
      "duration": 0.2064,
      "velocity": 102,
      "chip": "ym2612"
    },
    {
      "channel": 0,
      "note": 67,
      "start": 6.9445,
      "duration": 0.089,
      "velocity": 105,
      "chip": "ym2612"
    },
    {
      "channel": 4,
      "note": 79,
      "start": 6.9449,
      "duration": 0.089,
      "velocity": 105,
      "chip": "ym2612"
    },
    {
      "channel": 2,
      "note": 75,
      "start": 6.9638,
      "duration": 0.106,
      "velocity": 127,
      "chip": "ym2612"
    },
    {
      "channel": 0,
      "note": 67,
      "start": 7.0338,
      "duration": 0.0355,
      "velocity": 105,
      "chip": "ym2612"
    },
    {
      "channel": 4,
      "note": 79,
      "start": 7.0341,
      "duration": 0.0374,
      "velocity": 105,
      "chip": "ym2612"
    },
    {
      "channel": 0,
      "note": 69,
      "start": 7.0695,
      "duration": 0.089,
      "velocity": 105,
      "chip": "ym2612"
    },
    {
      "channel": 1,
      "note": 67,
      "start": 7.0697,
      "duration": 0.1602,
      "velocity": 87,
      "chip": "ym2612"
    },
    {
      "channel": 2,
      "note": 66,
      "start": 7.0715,
      "duration": 0.2126,
      "velocity": 127,
      "chip": "ym2612"
    },
    {
      "channel": 4,
      "note": 81,
      "start": 7.0718,
      "duration": 0.0871,
      "velocity": 105,
      "chip": "ym2612"
    },
    {
      "channel": 0,
      "note": 69,
      "start": 7.1588,
      "duration": 0.089,
      "velocity": 105,
      "chip": "ym2612"
    },
    {
      "channel": 4,
      "note": 81,
      "start": 7.1591,
      "duration": 0.0891,
      "velocity": 105,
      "chip": "ym2612"
    },
    {
      "channel": 0,
      "note": 69,
      "start": 7.248,
      "duration": 0.0355,
      "velocity": 105,
      "chip": "ym2612"
    },
    {
      "channel": 4,
      "note": 81,
      "start": 7.2487,
      "duration": 0.0375,
      "velocity": 105,
      "chip": "ym2612"
    },
    {
      "channel": 0,
      "note": 70,
      "start": 7.2838,
      "duration": 0.089,
      "velocity": 105,
      "chip": "ym2612"
    },
    {
      "channel": 1,
      "note": 55,
      "start": 7.284,
      "duration": 0.1602,
      "velocity": 87,
      "chip": "ym2612"
    },
    {
      "channel": 2,
      "note": 44,
      "start": 7.2858,
      "duration": 0.1049,
      "velocity": 127,
      "chip": "ym2612"
    },
    {
      "channel": 3,
      "note": 79,
      "start": 7.2861,
      "duration": 0.2139,
      "velocity": 102,
      "chip": "ym2612"
    },
    {
      "channel": 4,
      "note": 82,
      "start": 7.2864,
      "duration": 0.0868,
      "velocity": 105,
      "chip": "ym2612"
    },
    {
      "channel": 5,
      "note": 74,
      "start": 7.2867,
      "duration": 0.2134,
      "velocity": 102,
      "chip": "ym2612"
    },
    {
      "channel": 0,
      "note": 70,
      "start": 7.3731,
      "duration": 0.089,
      "velocity": 105,
      "chip": "ym2612"
    },
    {
      "channel": 4,
      "note": 82,
      "start": 7.3734,
      "duration": 0.089,
      "velocity": 105,
      "chip": "ym2612"
    },
    {
      "channel": 2,
      "note": 75,
      "start": 7.3923,
      "duration": 0.1057,
      "velocity": 127,
      "chip": "ym2612"
    },
    {
      "channel": 0,
      "note": 70,
      "start": 7.4623,
      "duration": 0.089,
      "velocity": 105,
      "chip": "ym2612"
    },
    {
      "channel": 4,
      "note": 82,
      "start": 7.4627,
      "duration": 0.089,
      "velocity": 105,
      "chip": "ym2612"
    },
    {
      "channel": 1,
      "note": 67,
      "start": 7.498,
      "duration": 0.1605,
      "velocity": 87,
      "chip": "ym2612"
    },
    {
      "channel": 2,
      "note": 66,
      "start": 7.5,
      "duration": 0.2124,
      "velocity": 127,
      "chip": "ym2612"
    },
    {
      "channel": 0,
      "note": 70,
      "start": 7.5516,
      "duration": 0.0533,
      "velocity": 105,
      "chip": "ym2612"
    },
    {
      "channel": 4,
      "note": 82,
      "start": 7.5519,
      "duration": 0.0533,
      "velocity": 105,
      "chip": "ym2612"
    },
    {
      "channel": 0,
      "note": 67,
      "start": 7.6052,
      "duration": 0.089,
      "velocity": 105,
      "chip": "ym2612"
    },
    {
      "channel": 4,
      "note": 79,
      "start": 7.6055,
      "duration": 0.0891,
      "velocity": 105,
      "chip": "ym2612"
    },
    {
      "channel": 0,
      "note": 67,
      "start": 7.6945,
      "duration": 0.089,
      "velocity": 105,
      "chip": "ym2612"
    },
    {
      "channel": 4,
      "note": 79,
      "start": 7.6948,
      "duration": 0.0891,
      "velocity": 105,
      "chip": "ym2612"
    },
    {
      "channel": 1,
      "note": 55,
      "start": 7.7123,
      "duration": 0.1605,
      "velocity": 87,
      "chip": "ym2612"
    },
    {
      "channel": 2,
      "note": 44,
      "start": 7.714,
      "duration": 0.1055,
      "velocity": 127,
      "chip": "ym2612"
    },
    {
      "channel": 3,
      "note": 79,
      "start": 7.7143,
      "duration": 0.2145,
      "velocity": 102,
      "chip": "ym2612"
    },
    {
      "channel": 5,
      "note": 74,
      "start": 7.7146,
      "duration": 0.2146,
      "velocity": 102,
      "chip": "ym2612"
    },
    {
      "channel": 0,
      "note": 67,
      "start": 7.7837,
      "duration": 0.0355,
      "velocity": 105,
      "chip": "ym2612"
    },
    {
      "channel": 4,
      "note": 79,
      "start": 7.7841,
      "duration": 0.0371,
      "velocity": 105,
      "chip": "ym2612"
    },
    {
      "channel": 0,
      "note": 67,
      "start": 7.8195,
      "duration": 0.0891,
      "velocity": 105,
      "chip": "ym2612"
    },
    {
      "channel": 2,
      "note": 75,
      "start": 7.8212,
      "duration": 0.1057,
      "velocity": 127,
      "chip": "ym2612"
    },
    {
      "channel": 4,
      "note": 79,
      "start": 7.8215,
      "duration": 0.0874,
      "velocity": 105,
      "chip": "ym2612"
    },
    {
      "channel": 0,
      "note": 67,
      "start": 7.9088,
      "duration": 0.0176,
      "velocity": 105,
      "chip": "ym2612"
    },
    {
      "channel": 4,
      "note": 79,
      "start": 7.9091,
      "duration": 0.0198,
      "velocity": 105,
      "chip": "ym2612"
    },
    {
      "channel": 0,
      "note": 69,
      "start": 7.9266,
      "duration": 0.089,
      "velocity": 105,
      "chip": "ym2612"
    },
    {
      "channel": 1,
      "note": 67,
      "start": 7.9268,
      "duration": 0.1602,
      "velocity": 87,
      "chip": "ym2612"
    },
    {
      "channel": 2,
      "note": 66,
      "start": 7.9288,
      "duration": 0.2124,
      "velocity": 127,
      "chip": "ym2612"
    },
    {
      "channel": 4,
      "note": 81,
      "start": 7.9291,
      "duration": 0.0868,
      "velocity": 105,
      "chip": "ym2612"
    },
    {
      "channel": 0,
      "note": 69,
      "start": 8.0159,
      "duration": 0.089,
      "velocity": 105,
      "chip": "ym2612"
    },
    {
      "channel": 4,
      "note": 81,
      "start": 8.0162,
      "duration": 0.0891,
      "velocity": 105,
      "chip": "ym2612"
    },
    {
      "channel": 0,
      "note": 69,
      "start": 8.1051,
      "duration": 0.0355,
      "velocity": 105,
      "chip": "ym2612"
    },
    {
      "channel": 4,
      "note": 81,
      "start": 8.1055,
      "duration": 0.0377,
      "velocity": 105,
      "chip": "ym2612"
    },
    {
      "channel": 0,
      "note": 70,
      "start": 8.1409,
      "duration": 0.089,
      "velocity": 105,
      "chip": "ym2612"
    },
    {
      "channel": 1,
      "note": 55,
      "start": 8.1411,
      "duration": 0.1602,
      "velocity": 87,
      "chip": "ym2612"
    },
    {
      "channel": 2,
      "note": 44,
      "start": 8.1428,
      "duration": 0.105,
      "velocity": 127,
      "chip": "ym2612"
    },
    {
      "channel": 3,
      "note": 79,
      "start": 8.1431,
      "duration": 0.2137,
      "velocity": 102,
      "chip": "ym2612"
    },
    {
      "channel": 4,
      "note": 82,
      "start": 8.1434,
      "duration": 0.0869,
      "velocity": 105,
      "chip": "ym2612"
    },
    {
      "channel": 5,
      "note": 74,
      "start": 8.1437,
      "duration": 0.2135,
      "velocity": 102,
      "chip": "ym2612"
    },
    {
      "channel": 0,
      "note": 70,
      "start": 8.2301,
      "duration": 0.089,
      "velocity": 105,
      "chip": "ym2612"
    },
    {
      "channel": 4,
      "note": 82,
      "start": 8.2305,
      "duration": 0.089,
      "velocity": 105,
      "chip": "ym2612"
    },
    {
      "channel": 2,
      "note": 75,
      "start": 8.2497,
      "duration": 0.1054,
      "velocity": 127,
      "chip": "ym2612"
    },
    {
      "channel": 0,
      "note": 70,
      "start": 8.3194,
      "duration": 0.0891,
      "velocity": 105,
      "chip": "ym2612"
    },
    {
      "channel": 4,
      "note": 82,
      "start": 8.3198,
      "duration": 0.0891,
      "velocity": 105,
      "chip": "ym2612"
    },
    {
      "channel": 1,
      "note": 67,
      "start": 8.3551,
      "duration": 0.1605,
      "velocity": 87,
      "chip": "ym2612"
    },
    {
      "channel": 2,
      "note": 66,
      "start": 8.3568,
      "duration": 0.2129,
      "velocity": 127,
      "chip": "ym2612"
    },
    {
      "channel": 3,
      "note": 79,
      "start": 8.3571,
      "duration": 0.2143,
      "velocity": 102,
      "chip": "ym2612"
    },
    {
      "channel": 5,
      "note": 74,
      "start": 8.3575,
      "duration": 0.2146,
      "velocity": 102,
      "chip": "ym2612"
    },
    {
      "channel": 0,
      "note": 70,
      "start": 8.4088,
      "duration": 0.089,
      "velocity": 105,
      "chip": "ym2612"
    },
    {
      "channel": 4,
      "note": 82,
      "start": 8.4091,
      "duration": 0.089,
      "velocity": 105,
      "chip": "ym2612"
    },
    {
      "channel": 0,
      "note": 70,
      "start": 8.498,
      "duration": 0.0712,
      "velocity": 105,
      "chip": "ym2612"
    },
    {
      "channel": 4,
      "note": 82,
      "start": 8.4985,
      "duration": 0.0732,
      "velocity": 105,
      "chip": "ym2612"
    },
    {
      "channel": 0,
      "note": 67,
      "start": 8.5694,
      "duration": 0.0891,
      "velocity": 105,
      "chip": "ym2612"
    },
    {
      "channel": 1,
      "note": 51,
      "start": 8.5697,
      "duration": 0.1602,
      "velocity": 87,
      "chip": "ym2612"
    },
    {
      "channel": 2,
      "note": 44,
      "start": 8.5714,
      "duration": 0.1049,
      "velocity": 127,
      "chip": "ym2612"
    },
    {
      "channel": 3,
      "note": 75,
      "start": 8.5717,
      "duration": 0.214,
      "velocity": 102,
      "chip": "ym2612"
    },
    {
      "channel": 4,
      "note": 79,
      "start": 8.572,
      "duration": 0.0869,
      "velocity": 105,
      "chip": "ym2612"
    },
    {
      "channel": 5,
      "note": 70,
      "start": 8.5723,
      "duration": 0.2137,
      "velocity": 102,
      "chip": "ym2612"
    },
    {
      "channel": 0,
      "note": 67,
      "start": 8.6588,
      "duration": 0.0889,
      "velocity": 105,
      "chip": "ym2612"
    },
    {
      "channel": 4,
      "note": 79,
      "start": 8.6592,
      "duration": 0.0889,
      "velocity": 105,
      "chip": "ym2612"
    },
    {
      "channel": 2,
      "note": 75,
      "start": 8.678,
      "duration": 0.106,
      "velocity": 127,
      "chip": "ym2612"
    },
    {
      "channel": 0,
      "note": 67,
      "start": 8.748,
      "duration": 0.0355,
      "velocity": 105,
      "chip": "ym2612"
    },
    {
      "channel": 4,
      "note": 79,
      "start": 8.7486,
      "duration": 0.0372,
      "velocity": 105,
      "chip": "ym2612"
    },
    {
      "channel": 0,
      "note": 69,
      "start": 8.7837,
      "duration": 0.089,
      "velocity": 105,
      "chip": "ym2612"
    },
    {
      "channel": 1,
      "note": 63,
      "start": 8.7839,
      "duration": 0.1602,
      "velocity": 87,
      "chip": "ym2612"
    },
    {
      "channel": 2,
      "note": 66,
      "start": 8.7857,
      "duration": 0.2128,
      "velocity": 127,
      "chip": "ym2612"
    },
    {
      "channel": 4,
      "note": 81,
      "start": 8.786,
      "duration": 0.087,
      "velocity": 105,
      "chip": "ym2612"
    },
    {
      "channel": 0,
      "note": 69,
      "start": 8.8729,
      "duration": 0.089,
      "velocity": 105,
      "chip": "ym2612"
    },
    {
      "channel": 4,
      "note": 81,
      "start": 8.8733,
      "duration": 0.0891,
      "velocity": 105,
      "chip": "ym2612"
    },
    {
      "channel": 0,
      "note": 69,
      "start": 8.9622,
      "duration": 0.0355,
      "velocity": 105,
      "chip": "ym2612"
    },
    {
      "channel": 4,
      "note": 81,
      "start": 8.9626,
      "duration": 0.0379,
      "velocity": 105,
      "chip": "ym2612"
    },
    {
      "channel": 0,
      "note": 70,
      "start": 8.9979,
      "duration": 0.089,
      "velocity": 105,
      "chip": "ym2612"
    },
    {
      "channel": 1,
      "note": 51,
      "start": 8.9984,
      "duration": 0.1601,
      "velocity": 87,
      "chip": "ym2612"
    },
    {
      "channel": 2,
      "note": 44,
      "start": 9.0002,
      "duration": 0.1047,
      "velocity": 127,
      "chip": "ym2612"
    },
    {
      "channel": 3,
      "note": 75,
      "start": 9.0005,
      "duration": 0.2135,
      "velocity": 102,
      "chip": "ym2612"
    },
    {
      "channel": 4,
      "note": 82,
      "start": 9.0007,
      "duration": 0.0866,
      "velocity": 105,
      "chip": "ym2612"
    },
    {
      "channel": 5,
      "note": 70,
      "start": 9.001,
      "duration": 0.2129,
      "velocity": 102,
      "chip": "ym2612"
    },
    {
      "channel": 0,
      "note": 70,
      "start": 9.0872,
      "duration": 0.089,
      "velocity": 105,
      "chip": "ym2612"
    },
    {
      "channel": 4,
      "note": 82,
      "start": 9.0876,
      "duration": 0.089,
      "velocity": 105,
      "chip": "ym2612"
    },
    {
      "channel": 2,
      "note": 75,
      "start": 9.1065,
      "duration": 0.1057,
      "velocity": 127,
      "chip": "ym2612"
    },
    {
      "channel": 0,
      "note": 70,
      "start": 9.1765,
      "duration": 0.089,
      "velocity": 105,
      "chip": "ym2612"
    },
    {
      "channel": 4,
      "note": 82,
      "start": 9.1769,
      "duration": 0.089,
      "velocity": 105,
      "chip": "ym2612"
    },
    {
      "channel": 1,
      "note": 63,
      "start": 9.2122,
      "duration": 0.1605,
      "velocity": 87,
      "chip": "ym2612"
    },
    {
      "channel": 2,
      "note": 66,
      "start": 9.2139,
      "duration": 0.2126,
      "velocity": 127,
      "chip": "ym2612"
    },
    {
      "channel": 0,
      "note": 70,
      "start": 9.2658,
      "duration": 0.0533,
      "velocity": 105,
      "chip": "ym2612"
    },
    {
      "channel": 4,
      "note": 82,
      "start": 9.2661,
      "duration": 0.0533,
      "velocity": 105,
      "chip": "ym2612"
    },
    {
      "channel": 0,
      "note": 72,
      "start": 9.3193,
      "duration": 0.0892,
      "velocity": 105,
      "chip": "ym2612"
    },
    {
      "channel": 4,
      "note": 84,
      "start": 9.3197,
      "duration": 0.0892,
      "velocity": 105,
      "chip": "ym2612"
    },
    {
      "channel": 0,
      "note": 72,
      "start": 9.4088,
      "duration": 0.0889,
      "velocity": 105,
      "chip": "ym2612"
    },
    {
      "channel": 4,
      "note": 84,
      "start": 9.4091,
      "duration": 0.089,
      "velocity": 105,
      "chip": "ym2612"
    },
    {
      "channel": 1,
      "note": 53,
      "start": 9.4265,
      "duration": 0.1605,
      "velocity": 87,
      "chip": "ym2612"
    },
    {
      "channel": 2,
      "note": 44,
      "start": 9.4284,
      "duration": 0.1052,
      "velocity": 127,
      "chip": "ym2612"
    },
    {
      "channel": 3,
      "note": 77,
      "start": 9.4287,
      "duration": 0.214,
      "velocity": 102,
      "chip": "ym2612"
    },
    {
      "channel": 5,
      "note": 72,
      "start": 9.429,
      "duration": 0.2141,
      "velocity": 102,
      "chip": "ym2612"
    },
    {
      "channel": 0,
      "note": 72,
      "start": 9.4979,
      "duration": 0.0355,
      "velocity": 105,
      "chip": "ym2612"
    },
    {
      "channel": 4,
      "note": 84,
      "start": 9.4986,
      "duration": 0.0368,
      "velocity": 105,
      "chip": "ym2612"
    },
    {
      "channel": 0,
      "note": 72,
      "start": 9.5336,
      "duration": 0.089,
      "velocity": 105,
      "chip": "ym2612"
    },
    {
      "channel": 2,
      "note": 75,
      "start": 9.5353,
      "duration": 0.1057,
      "velocity": 127,
      "chip": "ym2612"
    },
    {
      "channel": 4,
      "note": 84,
      "start": 9.5357,
      "duration": 0.0873,
      "velocity": 105,
      "chip": "ym2612"
    },
    {
      "channel": 0,
      "note": 72,
      "start": 9.6229,
      "duration": 0.0176,
      "velocity": 105,
      "chip": "ym2612"
    },
    {
      "channel": 4,
      "note": 84,
      "start": 9.6233,
      "duration": 0.0195,
      "velocity": 105,
      "chip": "ym2612"
    },
    {
      "channel": 0,
      "note": 70,
      "start": 9.6407,
      "duration": 0.089,
      "velocity": 105,
      "chip": "ym2612"
    },
    {
      "channel": 1,
      "note": 65,
      "start": 9.641,
      "duration": 0.1602,
      "velocity": 87,
      "chip": "ym2612"
    },
    {
      "channel": 2,
      "note": 66,
      "start": 9.6427,
      "duration": 0.2126,
      "velocity": 127,
      "chip": "ym2612"
    },
    {
      "channel": 4,
      "note": 82,
      "start": 9.6431,
      "duration": 0.0871,
      "velocity": 105,
      "chip": "ym2612"
    },
    {
      "channel": 0,
      "note": 70,
      "start": 9.73,
      "duration": 0.089,
      "velocity": 105,
      "chip": "ym2612"
    },
    {
      "channel": 4,
      "note": 82,
      "start": 9.7304,
      "duration": 0.0891,
      "velocity": 105,
      "chip": "ym2612"
    },
    {
      "channel": 0,
      "note": 70,
      "start": 9.8193,
      "duration": 0.0355,
      "velocity": 105,
      "chip": "ym2612"
    },
    {
      "channel": 4,
      "note": 82,
      "start": 9.8197,
      "duration": 0.0377,
      "velocity": 105,
      "chip": "ym2612"
    },
    {
      "channel": 0,
      "note": 69,
      "start": 9.855,
      "duration": 0.089,
      "velocity": 105,
      "chip": "ym2612"
    },
    {
      "channel": 1,
      "note": 53,
      "start": 9.8553,
      "duration": 0.1602,
      "velocity": 87,
      "chip": "ym2612"
    },
    {
      "channel": 2,
      "note": 44,
      "start": 9.857,
      "duration": 0.1049,
      "velocity": 127,
      "chip": "ym2612"
    },
    {
      "channel": 3,
      "note": 77,
      "start": 9.8573,
      "duration": 0.214,
      "velocity": 102,
      "chip": "ym2612"
    },
    {
      "channel": 4,
      "note": 81,
      "start": 9.8576,
      "duration": 0.0869,
      "velocity": 105,
      "chip": "ym2612"
    },
    {
      "channel": 5,
      "note": 72,
      "start": 9.8579,
      "duration": 0.2137,
      "velocity": 102,
      "chip": "ym2612"
    },
    {
      "channel": 0,
      "note": 69,
      "start": 9.9443,
      "duration": 0.089,
      "velocity": 105,
      "chip": "ym2612"
    },
    {
      "channel": 4,
      "note": 81,
      "start": 9.9447,
      "duration": 0.089,
      "velocity": 105,
      "chip": "ym2612"
    },
    {
      "channel": 2,
      "note": 75,
      "start": 9.9636,
      "duration": 0.106,
      "velocity": 127,
      "chip": "ym2612"
    },
    {
      "channel": 0,
      "note": 69,
      "start": 10.0336,
      "duration": 0.0355,
      "velocity": 105,
      "chip": "ym2612"
    },
    {
      "channel": 4,
      "note": 81,
      "start": 10.0339,
      "duration": 0.0374,
      "velocity": 105,
      "chip": "ym2612"
    },
    {
      "channel": 0,
      "note": 65,
      "start": 10.0693,
      "duration": 0.0892,
      "velocity": 105,
      "chip": "ym2612"
    },
    {
      "channel": 1,
      "note": 65,
      "start": 10.0695,
      "duration": 0.1602,
      "velocity": 87,
      "chip": "ym2612"
    },
    {
      "channel": 2,
      "note": 66,
      "start": 10.0712,
      "duration": 0.2126,
      "velocity": 127,
      "chip": "ym2612"
    },
    {
      "channel": 4,
      "note": 77,
      "start": 10.0716,
      "duration": 0.0873,
      "velocity": 105,
      "chip": "ym2612"
    },
    {
      "channel": 0,
      "note": 65,
      "start": 10.1588,
      "duration": 0.0888,
      "velocity": 105,
      "chip": "ym2612"
    },
    {
      "channel": 4,
      "note": 77,
      "start": 10.1591,
      "duration": 0.0889,
      "velocity": 105,
      "chip": "ym2612"
    },
    {
      "channel": 0,
      "note": 65,
      "start": 10.2479,
      "duration": 0.0355,
      "velocity": 105,
      "chip": "ym2612"
    },
    {
      "channel": 4,
      "note": 77,
      "start": 10.2485,
      "duration": 0.0375,
      "velocity": 105,
      "chip": "ym2612"
    },
    {
      "channel": 0,
      "note": 67,
      "start": 10.2836,
      "duration": 0.089,
      "velocity": 105,
      "chip": "ym2612"
    },
    {
      "channel": 1,
      "note": 55,
      "start": 10.2838,
      "duration": 0.1602,
      "velocity": 87,
      "chip": "ym2612"
    },
    {
      "channel": 2,
      "note": 44,
      "start": 10.2856,
      "duration": 0.1049,
      "velocity": 127,
      "chip": "ym2612"
    },
    {
      "channel": 3,
      "note": 79,
      "start": 10.2859,
      "duration": 0.2142,
      "velocity": 102,
      "chip": "ym2612"
    },
    {
      "channel": 4,
      "note": 79,
      "start": 10.2862,
      "duration": 0.0868,
      "velocity": 105,
      "chip": "ym2612"
    },
    {
      "channel": 5,
      "note": 74,
      "start": 10.2865,
      "duration": 0.2139,
      "velocity": 102,
      "chip": "ym2612"
    },
    {
      "channel": 0,
      "note": 67,
      "start": 10.3729,
      "duration": 0.089,
      "velocity": 105,
      "chip": "ym2612"
    },
    {
      "channel": 4,
      "note": 79,
      "start": 10.3733,
      "duration": 0.089,
      "velocity": 105,
      "chip": "ym2612"
    },
    {
      "channel": 2,
      "note": 75,
      "start": 10.3921,
      "duration": 0.106,
      "velocity": 127,
      "chip": "ym2612"
    },
    {
      "channel": 0,
      "note": 67,
      "start": 10.4621,
      "duration": 0.0355,
      "velocity": 105,
      "chip": "ym2612"
    },
    {
      "channel": 4,
      "note": 79,
      "start": 10.4625,
      "duration": 0.0377,
      "velocity": 105,
      "chip": "ym2612"
    },
    {
      "channel": 0,
      "note": 69,
      "start": 10.4978,
      "duration": 0.089,
      "velocity": 105,
      "chip": "ym2612"
    },
    {
      "channel": 1,
      "note": 67,
      "start": 10.4981,
      "duration": 0.1604,
      "velocity": 87,
      "chip": "ym2612"
    },
    {
      "channel": 2,
      "note": 66,
      "start": 10.5,
      "duration": 0.2124,
      "velocity": 127,
      "chip": "ym2612"
    },
    {
      "channel": 4,
      "note": 81,
      "start": 10.5004,
      "duration": 0.0868,
      "velocity": 105,
      "chip": "ym2612"
    },
    {
      "channel": 0,
      "note": 69,
      "start": 10.5871,
      "duration": 0.089,
      "velocity": 105,
      "chip": "ym2612"
    },
    {
      "channel": 4,
      "note": 81,
      "start": 10.5874,
      "duration": 0.0891,
      "velocity": 105,
      "chip": "ym2612"
    },
    {
      "channel": 0,
      "note": 69,
      "start": 10.6764,
      "duration": 0.0355,
      "velocity": 105,
      "chip": "ym2612"
    },
    {
      "channel": 4,
      "note": 81,
      "start": 10.6768,
      "duration": 0.0377,
      "velocity": 105,
      "chip": "ym2612"
    },
    {
      "channel": 0,
      "note": 70,
      "start": 10.7121,
      "duration": 0.089,
      "velocity": 105,
      "chip": "ym2612"
    },
    {
      "channel": 1,
      "note": 55,
      "start": 10.7124,
      "duration": 0.1602,
      "velocity": 87,
      "chip": "ym2612"
    },
    {
      "channel": 2,
      "note": 44,
      "start": 10.7141,
      "duration": 0.1049,
      "velocity": 127,
      "chip": "ym2612"
    },
    {
      "channel": 3,
      "note": 79,
      "start": 10.7144,
      "duration": 0.2137,
      "velocity": 102,
      "chip": "ym2612"
    },
    {
      "channel": 4,
      "note": 82,
      "start": 10.7147,
      "duration": 0.0869,
      "velocity": 105,
      "chip": "ym2612"
    },
    {
      "channel": 5,
      "note": 74,
      "start": 10.715,
      "duration": 0.2132,
      "velocity": 102,
      "chip": "ym2612"
    },
    {
      "channel": 0,
      "note": 70,
      "start": 10.8014,
      "duration": 0.089,
      "velocity": 105,
      "chip": "ym2612"
    },
    {
      "channel": 4,
      "note": 82,
      "start": 10.8018,
      "duration": 0.089,
      "velocity": 105,
      "chip": "ym2612"
    },
    {
      "channel": 2,
      "note": 75,
      "start": 10.8207,
      "duration": 0.1057,
      "velocity": 127,
      "chip": "ym2612"
    },
    {
      "channel": 0,
      "note": 70,
      "start": 10.8907,
      "duration": 0.089,
      "velocity": 105,
      "chip": "ym2612"
    },
    {
      "channel": 4,
      "note": 82,
      "start": 10.891,
      "duration": 0.089,
      "velocity": 105,
      "chip": "ym2612"
    },
    {
      "channel": 1,
      "note": 67,
      "start": 10.9263,
      "duration": 0.1605,
      "velocity": 87,
      "chip": "ym2612"
    },
    {
      "channel": 2,
      "note": 66,
      "start": 10.928,
      "duration": 0.2126,
      "velocity": 127,
      "chip": "ym2612"
    },
    {
      "channel": 0,
      "note": 70,
      "start": 10.98,
      "duration": 0.0533,
      "velocity": 105,
      "chip": "ym2612"
    },
    {
      "channel": 4,
      "note": 82,
      "start": 10.9803,
      "duration": 0.0533,
      "velocity": 105,
      "chip": "ym2612"
    },
    {
      "channel": 0,
      "note": 67,
      "start": 11.0335,
      "duration": 0.089,
      "velocity": 105,
      "chip": "ym2612"
    },
    {
      "channel": 4,
      "note": 79,
      "start": 11.0338,
      "duration": 0.0891,
      "velocity": 105,
      "chip": "ym2612"
    },
    {
      "channel": 0,
      "note": 67,
      "start": 11.1228,
      "duration": 0.089,
      "velocity": 105,
      "chip": "ym2612"
    },
    {
      "channel": 4,
      "note": 79,
      "start": 11.1232,
      "duration": 0.0891,
      "velocity": 105,
      "chip": "ym2612"
    },
    {
      "channel": 1,
      "note": 55,
      "start": 11.1406,
      "duration": 0.1605,
      "velocity": 87,
      "chip": "ym2612"
    },
    {
      "channel": 2,
      "note": 44,
      "start": 11.1424,
      "duration": 0.1055,
      "velocity": 127,
      "chip": "ym2612"
    },
    {
      "channel": 3,
      "note": 79,
      "start": 11.1427,
      "duration": 0.2143,
      "velocity": 102,
      "chip": "ym2612"
    },
    {
      "channel": 5,
      "note": 74,
      "start": 11.1429,
      "duration": 0.2143,
      "velocity": 102,
      "chip": "ym2612"
    },
    {
      "channel": 0,
      "note": 67,
      "start": 11.2121,
      "duration": 0.0355,
      "velocity": 105,
      "chip": "ym2612"
    },
    {
      "channel": 4,
      "note": 79,
      "start": 11.2125,
      "duration": 0.0373,
      "velocity": 105,
      "chip": "ym2612"
    },
    {
      "channel": 0,
      "note": 67,
      "start": 11.2478,
      "duration": 0.089,
      "velocity": 105,
      "chip": "ym2612"
    },
    {
      "channel": 2,
      "note": 75,
      "start": 11.2498,
      "duration": 0.1055,
      "velocity": 127,
      "chip": "ym2612"
    },
    {
      "channel": 4,
      "note": 79,
      "start": 11.25,
      "duration": 0.0871,
      "velocity": 105,
      "chip": "ym2612"
    },
    {
      "channel": 0,
      "note": 67,
      "start": 11.3371,
      "duration": 0.0176,
      "velocity": 105,
      "chip": "ym2612"
    },
    {
      "channel": 4,
      "note": 79,
      "start": 11.3374,
      "duration": 0.0195,
      "velocity": 105,
      "chip": "ym2612"
    },
    {
      "channel": 0,
      "note": 69,
      "start": 11.3549,
      "duration": 0.089,
      "velocity": 105,
      "chip": "ym2612"
    },
    {
      "channel": 1,
      "note": 67,
      "start": 11.3552,
      "duration": 0.1602,
      "velocity": 87,
      "chip": "ym2612"
    },
    {
      "channel": 2,
      "note": 66,
      "start": 11.3569,
      "duration": 0.2126,
      "velocity": 127,
      "chip": "ym2612"
    },
    {
      "channel": 4,
      "note": 81,
      "start": 11.3572,
      "duration": 0.0871,
      "velocity": 105,
      "chip": "ym2612"
    },
    {
      "channel": 0,
      "note": 69,
      "start": 11.4442,
      "duration": 0.089,
      "velocity": 105,
      "chip": "ym2612"
    },
    {
      "channel": 4,
      "note": 81,
      "start": 11.4445,
      "duration": 0.0891,
      "velocity": 105,
      "chip": "ym2612"
    },
    {
      "channel": 0,
      "note": 69,
      "start": 11.5335,
      "duration": 0.0355,
      "velocity": 105,
      "chip": "ym2612"
    },
    {
      "channel": 4,
      "note": 81,
      "start": 11.5339,
      "duration": 0.0377,
      "velocity": 105,
      "chip": "ym2612"
    },
    {
      "channel": 0,
      "note": 70,
      "start": 11.5692,
      "duration": 0.0893,
      "velocity": 105,
      "chip": "ym2612"
    },
    {
      "channel": 1,
      "note": 55,
      "start": 11.5695,
      "duration": 0.1602,
      "velocity": 87,
      "chip": "ym2612"
    },
    {
      "channel": 2,
      "note": 44,
      "start": 11.5712,
      "duration": 0.1049,
      "velocity": 127,
      "chip": "ym2612"
    },
    {
      "channel": 3,
      "note": 79,
      "start": 11.5715,
      "duration": 0.2137,
      "velocity": 102,
      "chip": "ym2612"
    },
    {
      "channel": 4,
      "note": 82,
      "start": 11.5718,
      "duration": 0.0871,
      "velocity": 105,
      "chip": "ym2612"
    },
    {
      "channel": 5,
      "note": 74,
      "start": 11.5721,
      "duration": 0.2135,
      "velocity": 102,
      "chip": "ym2612"
    },
    {
      "channel": 0,
      "note": 70,
      "start": 11.6587,
      "duration": 0.0888,
      "velocity": 105,
      "chip": "ym2612"
    },
    {
      "channel": 4,
      "note": 82,
      "start": 11.6591,
      "duration": 0.0888,
      "velocity": 105,
      "chip": "ym2612"
    },
    {
      "channel": 2,
      "note": 75,
      "start": 11.6778,
      "duration": 0.1057,
      "velocity": 127,
      "chip": "ym2612"
    },
    {
      "channel": 0,
      "note": 70,
      "start": 11.7478,
      "duration": 0.089,
      "velocity": 105,
      "chip": "ym2612"
    },
    {
      "channel": 4,
      "note": 82,
      "start": 11.7481,
      "duration": 0.089,
      "velocity": 105,
      "chip": "ym2612"
    },
    {
      "channel": 1,
      "note": 67,
      "start": 11.7834,
      "duration": 0.1605,
      "velocity": 87,
      "chip": "ym2612"
    },
    {
      "channel": 2,
      "note": 66,
      "start": 11.7851,
      "duration": 0.2129,
      "velocity": 127,
      "chip": "ym2612"
    },
    {
      "channel": 3,
      "note": 79,
      "start": 11.7855,
      "duration": 0.2145,
      "velocity": 102,
      "chip": "ym2612"
    },
    {
      "channel": 5,
      "note": 74,
      "start": 11.7859,
      "duration": 0.2148,
      "velocity": 102,
      "chip": "ym2612"
    },
    {
      "channel": 0,
      "note": 70,
      "start": 11.8371,
      "duration": 0.089,
      "velocity": 105,
      "chip": "ym2612"
    },
    {
      "channel": 4,
      "note": 82,
      "start": 11.8374,
      "duration": 0.089,
      "velocity": 105,
      "chip": "ym2612"
    },
    {
      "channel": 0,
      "note": 70,
      "start": 11.9263,
      "duration": 0.0712,
      "velocity": 105,
      "chip": "ym2612"
    },
    {
      "channel": 4,
      "note": 82,
      "start": 11.9266,
      "duration": 0.0737,
      "velocity": 105,
      "chip": "ym2612"
    },
    {
      "channel": 0,
      "note": 67,
      "start": 11.9978,
      "duration": 0.089,
      "velocity": 105,
      "chip": "ym2612"
    },
    {
      "channel": 1,
      "note": 51,
      "start": 11.998,
      "duration": 0.1605,
      "velocity": 87,
      "chip": "ym2612"
    },
    {
      "channel": 2,
      "note": 45,
      "start": 12.0,
      "duration": 0.1047,
      "velocity": 127,
      "chip": "ym2612"
    },
    {
      "channel": 3,
      "note": 75,
      "start": 12.0003,
      "duration": 0.2123,
      "velocity": 102,
      "chip": "ym2612"
    },
    {
      "channel": 4,
      "note": 79,
      "start": 12.0006,
      "duration": 0.0866,
      "velocity": 105,
      "chip": "ym2612"
    },
    {
      "channel": 5,
      "note": 70,
      "start": 12.0009,
      "duration": 0.212,
      "velocity": 102,
      "chip": "ym2612"
    },
    {
      "channel": 0,
      "note": 67,
      "start": 12.087,
      "duration": 0.089,
      "velocity": 105,
      "chip": "ym2612"
    },
    {
      "channel": 4,
      "note": 79,
      "start": 12.0874,
      "duration": 0.0891,
      "velocity": 105,
      "chip": "ym2612"
    },
    {
      "channel": 2,
      "note": 45,
      "start": 12.1049,
      "duration": 0.1074,
      "velocity": 127,
      "chip": "ym2612"
    },
    {
      "channel": 0,
      "note": 67,
      "start": 12.1763,
      "duration": 0.0355,
      "velocity": 105,
      "chip": "ym2612"
    },
    {
      "channel": 4,
      "note": 79,
      "start": 12.1768,
      "duration": 0.0359,
      "velocity": 105,
      "chip": "ym2612"
    },
    {
      "channel": 0,
      "note": 69,
      "start": 12.212,
      "duration": 0.089,
      "velocity": 105,
      "chip": "ym2612"
    },
    {
      "channel": 1,
      "note": 63,
      "start": 12.2123,
      "duration": 0.1602,
      "velocity": 87,
      "chip": "ym2612"
    },
    {
      "channel": 2,
      "note": 45,
      "start": 12.2126,
      "duration": 0.1064,
      "velocity": 127,
      "chip": "ym2612"
    },
    {
      "channel": 4,
      "note": 81,
      "start": 12.2129,
      "duration": 0.0886,
      "velocity": 105,
      "chip": "ym2612"
    },
    {
      "channel": 0,
      "note": 69,
      "start": 12.3013,
      "duration": 0.089,
      "velocity": 105,
      "chip": "ym2612"
    },
    {
      "channel": 4,
      "note": 81,
      "start": 12.3017,
      "duration": 0.0891,
      "velocity": 105,
      "chip": "ym2612"
    },
    {
      "channel": 2,
      "note": 45,
      "start": 12.3192,
      "duration": 0.1074,
      "velocity": 127,
      "chip": "ym2612"
    },
    {
      "channel": 0,
      "note": 69,
      "start": 12.3906,
      "duration": 0.0355,
      "velocity": 105,
      "chip": "ym2612"
    },
    {
      "channel": 4,
      "note": 81,
      "start": 12.391,
      "duration": 0.0361,
      "velocity": 105,
      "chip": "ym2612"
    },
    {
      "channel": 0,
      "note": 70,
      "start": 12.4263,
      "duration": 0.089,
      "velocity": 105,
      "chip": "ym2612"
    },
    {
      "channel": 1,
      "note": 51,
      "start": 12.4266,
      "duration": 0.1602,
      "velocity": 87,
      "chip": "ym2612"
    },
    {
      "channel": 2,
      "note": 45,
      "start": 12.4268,
      "duration": 0.1064,
      "velocity": 127,
      "chip": "ym2612"
    },
    {
      "channel": 3,
      "note": 75,
      "start": 12.4271,
      "duration": 0.2135,
      "velocity": 102,
      "chip": "ym2612"
    },
    {
      "channel": 4,
      "note": 82,
      "start": 12.4274,
      "duration": 0.0883,
      "velocity": 105,
      "chip": "ym2612"
    },
    {
      "channel": 5,
      "note": 70,
      "start": 12.4277,
      "duration": 0.213,
      "velocity": 102,
      "chip": "ym2612"
    },
    {
      "channel": 0,
      "note": 70,
      "start": 12.5156,
      "duration": 0.089,
      "velocity": 105,
      "chip": "ym2612"
    },
    {
      "channel": 4,
      "note": 82,
      "start": 12.516,
      "duration": 0.0891,
      "velocity": 105,
      "chip": "ym2612"
    },
    {
      "channel": 2,
      "note": 45,
      "start": 12.5334,
      "duration": 0.1071,
      "velocity": 127,
      "chip": "ym2612"
    },
    {
      "channel": 0,
      "note": 70,
      "start": 12.6049,
      "duration": 0.089,
      "velocity": 105,
      "chip": "ym2612"
    },
    {
      "channel": 4,
      "note": 82,
      "start": 12.6053,
      "duration": 0.089,
      "velocity": 105,
      "chip": "ym2612"
    },
    {
      "channel": 1,
      "note": 63,
      "start": 12.6405,
      "duration": 0.1605,
      "velocity": 87,
      "chip": "ym2612"
    },
    {
      "channel": 0,
      "note": 70,
      "start": 12.6941,
      "duration": 0.0533,
      "velocity": 105,
      "chip": "ym2612"
    },
    {
      "channel": 4,
      "note": 82,
      "start": 12.6945,
      "duration": 0.0535,
      "velocity": 105,
      "chip": "ym2612"
    },
    {
      "channel": 0,
      "note": 72,
      "start": 12.7477,
      "duration": 0.089,
      "velocity": 105,
      "chip": "ym2612"
    },
    {
      "channel": 2,
      "note": 45,
      "start": 12.748,
      "duration": 0.1069,
      "velocity": 127,
      "chip": "ym2612"
    },
    {
      "channel": 4,
      "note": 84,
      "start": 12.7485,
      "duration": 0.0887,
      "velocity": 105,
      "chip": "ym2612"
    },
    {
      "channel": 0,
      "note": 72,
      "start": 12.837,
      "duration": 0.089,
      "velocity": 105,
      "chip": "ym2612"
    },
    {
      "channel": 4,
      "note": 84,
      "start": 12.8374,
      "duration": 0.089,
      "velocity": 105,
      "chip": "ym2612"
    },
    {
      "channel": 1,
      "note": 53,
      "start": 12.8548,
      "duration": 0.1605,
      "velocity": 87,
      "chip": "ym2612"
    },
    {
      "channel": 3,
      "note": 77,
      "start": 12.8551,
      "duration": 0.2146,
      "velocity": 102,
      "chip": "ym2612"
    },
    {
      "channel": 5,
      "note": 72,
      "start": 12.8555,
      "duration": 0.2146,
      "velocity": 102,
      "chip": "ym2612"
    },
    {
      "channel": 0,
      "note": 72,
      "start": 12.9263,
      "duration": 0.0355,
      "velocity": 105,
      "chip": "ym2612"
    },
    {
      "channel": 4,
      "note": 84,
      "start": 12.9267,
      "duration": 0.0356,
      "velocity": 105,
      "chip": "ym2612"
    },
    {
      "channel": 0,
      "note": 72,
      "start": 12.962,
      "duration": 0.089,
      "velocity": 105,
      "chip": "ym2612"
    },
    {
      "channel": 2,
      "note": 45,
      "start": 12.9622,
      "duration": 0.1072,
      "velocity": 127,
      "chip": "ym2612"
    },
    {
      "channel": 4,
      "note": 84,
      "start": 12.9625,
      "duration": 0.089,
      "velocity": 105,
      "chip": "ym2612"
    },
    {
      "channel": 0,
      "note": 72,
      "start": 13.0512,
      "duration": 0.0176,
      "velocity": 105,
      "chip": "ym2612"
    },
    {
      "channel": 4,
      "note": 84,
      "start": 13.0517,
      "duration": 0.0181,
      "velocity": 105,
      "chip": "ym2612"
    },
    {
      "channel": 0,
      "note": 70,
      "start": 13.0691,
      "duration": 0.089,
      "velocity": 105,
      "chip": "ym2612"
    },
    {
      "channel": 1,
      "note": 65,
      "start": 13.0694,
      "duration": 0.1602,
      "velocity": 87,
      "chip": "ym2612"
    },
    {
      "channel": 2,
      "note": 45,
      "start": 13.0697,
      "duration": 0.1063,
      "velocity": 127,
      "chip": "ym2612"
    },
    {
      "channel": 4,
      "note": 82,
      "start": 13.07,
      "duration": 0.0888,
      "velocity": 105,
      "chip": "ym2612"
    },
    {
      "channel": 0,
      "note": 70,
      "start": 13.1586,
      "duration": 0.0888,
      "velocity": 105,
      "chip": "ym2612"
    },
    {
      "channel": 4,
      "note": 82,
      "start": 13.159,
      "duration": 0.0888,
      "velocity": 105,
      "chip": "ym2612"
    },
    {
      "channel": 2,
      "note": 45,
      "start": 13.1763,
      "duration": 0.1074,
      "velocity": 127,
      "chip": "ym2612"
    },
    {
      "channel": 0,
      "note": 70,
      "start": 13.2477,
      "duration": 0.0355,
      "velocity": 105,
      "chip": "ym2612"
    },
    {
      "channel": 4,
      "note": 82,
      "start": 13.2481,
      "duration": 0.0359,
      "velocity": 105,
      "chip": "ym2612"
    },
    {
      "channel": 0,
      "note": 69,
      "start": 13.2834,
      "duration": 0.089,
      "velocity": 105,
      "chip": "ym2612"
    },
    {
      "channel": 1,
      "note": 53,
      "start": 13.2836,
      "duration": 0.1602,
      "velocity": 87,
      "chip": "ym2612"
    },
    {
      "channel": 3,
      "note": 77,
      "start": 13.284,
      "duration": 0.2145,
      "velocity": 102,
      "chip": "ym2612"
    },
    {
      "channel": 4,
      "note": 81,
      "start": 13.2843,
      "duration": 0.0886,
      "velocity": 105,
      "chip": "ym2612"
    },
    {
      "channel": 5,
      "note": 72,
      "start": 13.2846,
      "duration": 0.2143,
      "velocity": 102,
      "chip": "ym2612"
    },
    {
      "channel": 0,
      "note": 69,
      "start": 13.3727,
      "duration": 0.089,
      "velocity": 105,
      "chip": "ym2612"
    },
    {
      "channel": 4,
      "note": 81,
      "start": 13.3731,
      "duration": 0.0891,
      "velocity": 105,
      "chip": "ym2612"
    },
    {
      "channel": 2,
      "note": 45,
      "start": 13.3905,
      "duration": 0.1074,
      "velocity": 127,
      "chip": "ym2612"
    },
    {
      "channel": 0,
      "note": 69,
      "start": 13.462,
      "duration": 0.0355,
      "velocity": 105,
      "chip": "ym2612"
    },
    {
      "channel": 4,
      "note": 81,
      "start": 13.4624,
      "duration": 0.0361,
      "velocity": 105,
      "chip": "ym2612"
    },
    {
      "channel": 0,
      "note": 65,
      "start": 13.4977,
      "duration": 0.089,
      "velocity": 105,
      "chip": "ym2612"
    },
    {
      "channel": 1,
      "note": 65,
      "start": 13.4979,
      "duration": 0.1602,
      "velocity": 87,
      "chip": "ym2612"
    },
    {
      "channel": 2,
      "note": 45,
      "start": 13.4984,
      "duration": 0.1061,
      "velocity": 127,
      "chip": "ym2612"
    },
    {
      "channel": 4,
      "note": 77,
      "start": 13.4988,
      "duration": 0.0883,
      "velocity": 105,
      "chip": "ym2612"
    },
    {
      "channel": 0,
      "note": 65,
      "start": 13.5869,
      "duration": 0.089,
      "velocity": 105,
      "chip": "ym2612"
    },
    {
      "channel": 4,
      "note": 77,
      "start": 13.5873,
      "duration": 0.0891,
      "velocity": 105,
      "chip": "ym2612"
    },
    {
      "channel": 2,
      "note": 45,
      "start": 13.6048,
      "duration": 0.1103,
      "velocity": 127,
      "chip": "ym2612"
    },
    {
      "channel": 0,
      "note": 65,
      "start": 13.6762,
      "duration": 0.0355,
      "velocity": 105,
      "chip": "ym2612"
    },
    {
      "channel": 4,
      "note": 77,
      "start": 13.6767,
      "duration": 0.0421,
      "velocity": 105,
      "chip": "ym2612"
    },
    {
      "channel": 0,
      "note": 67,
      "start": 13.7134,
      "duration": 0.0876,
      "velocity": 105,
      "chip": "ym2612"
    },
    {
      "channel": 1,
      "note": 55,
      "start": 13.7151,
      "duration": 0.1573,
      "velocity": 87,
      "chip": "ym2612"
    },
    {
      "channel": 2,
      "note": 44,
      "start": 13.7168,
      "duration": 0.102,
      "velocity": 127,
      "chip": "ym2612"
    },
    {
      "channel": 3,
      "note": 79,
      "start": 13.7188,
      "duration": 0.2097,
      "velocity": 102,
      "chip": "ym2612"
    },
    {
      "channel": 5,
      "note": 74,
      "start": 13.722,
      "duration": 0.2066,
      "velocity": 102,
      "chip": "ym2612"
    },
    {
      "channel": 0,
      "note": 67,
      "start": 13.8012,
      "duration": 0.089,
      "velocity": 105,
      "chip": "ym2612"
    },
    {
      "channel": 2,
      "note": 75,
      "start": 13.8205,
      "duration": 0.106,
      "velocity": 127,
      "chip": "ym2612"
    },
    {
      "channel": 0,
      "note": 67,
      "start": 13.8905,
      "duration": 0.0355,
      "velocity": 105,
      "chip": "ym2612"
    },
    {
      "channel": 0,
      "note": 69,
      "start": 13.9262,
      "duration": 0.089,
      "velocity": 105,
      "chip": "ym2612"
    },
    {
      "channel": 1,
      "note": 67,
      "start": 13.9264,
      "duration": 0.1602,
      "velocity": 87,
      "chip": "ym2612"
    },
    {
      "channel": 2,
      "note": 66,
      "start": 13.9281,
      "duration": 0.2126,
      "velocity": 127,
      "chip": "ym2612"
    },
    {
      "channel": 0,
      "note": 69,
      "start": 14.0155,
      "duration": 0.089,
      "velocity": 105,
      "chip": "ym2612"
    },
    {
      "channel": 0,
      "note": 69,
      "start": 14.1048,
      "duration": 0.0355,
      "velocity": 105,
      "chip": "ym2612"
    },
    {
      "channel": 0,
      "note": 70,
      "start": 14.1405,
      "duration": 0.0891,
      "velocity": 105,
      "chip": "ym2612"
    },
    {
      "channel": 1,
      "note": 55,
      "start": 14.1407,
      "duration": 0.1602,
      "velocity": 87,
      "chip": "ym2612"
    },
    {
      "channel": 2,
      "note": 44,
      "start": 14.1424,
      "duration": 0.1049,
      "velocity": 127,
      "chip": "ym2612"
    },
    {
      "channel": 3,
      "note": 79,
      "start": 14.1427,
      "duration": 0.2137,
      "velocity": 102,
      "chip": "ym2612"
    },
    {
      "channel": 5,
      "note": 74,
      "start": 14.1431,
      "duration": 0.2135,
      "velocity": 102,
      "chip": "ym2612"
    },
    {
      "channel": 0,
      "note": 70,
      "start": 14.2298,
      "duration": 0.089,
      "velocity": 105,
      "chip": "ym2612"
    },
    {
      "channel": 2,
      "note": 75,
      "start": 14.2493,
      "duration": 0.1055,
      "velocity": 127,
      "chip": "ym2612"
    },
    {
      "channel": 0,
      "note": 70,
      "start": 14.3191,
      "duration": 0.089,
      "velocity": 105,
      "chip": "ym2612"
    },
    {
      "channel": 1,
      "note": 67,
      "start": 14.3547,
      "duration": 0.1605,
      "velocity": 87,
      "chip": "ym2612"
    },
    {
      "channel": 2,
      "note": 66,
      "start": 14.3564,
      "duration": 0.2127,
      "velocity": 127,
      "chip": "ym2612"
    },
    {
      "channel": 0,
      "note": 70,
      "start": 14.4086,
      "duration": 0.0531,
      "velocity": 105,
      "chip": "ym2612"
    },
    {
      "channel": 0,
      "note": 67,
      "start": 14.4619,
      "duration": 0.089,
      "velocity": 105,
      "chip": "ym2612"
    },
    {
      "channel": 0,
      "note": 67,
      "start": 14.5512,
      "duration": 0.089,
      "velocity": 105,
      "chip": "ym2612"
    },
    {
      "channel": 1,
      "note": 55,
      "start": 14.569,
      "duration": 0.1605,
      "velocity": 87,
      "chip": "ym2612"
    },
    {
      "channel": 2,
      "note": 44,
      "start": 14.5707,
      "duration": 0.1055,
      "velocity": 127,
      "chip": "ym2612"
    },
    {
      "channel": 3,
      "note": 79,
      "start": 14.571,
      "duration": 0.2142,
      "velocity": 102,
      "chip": "ym2612"
    },
    {
      "channel": 4,
      "note": 55,
      "start": 14.5713,
      "duration": 0.214,
      "velocity": 98,
      "chip": "ym2612"
    },
    {
      "channel": 5,
      "note": 74,
      "start": 14.5716,
      "duration": 0.2141,
      "velocity": 102,
      "chip": "ym2612"
    },
    {
      "channel": 0,
      "note": 67,
      "start": 14.6404,
      "duration": 0.0355,
      "velocity": 105,
      "chip": "ym2612"
    },
    {
      "channel": 0,
      "note": 67,
      "start": 14.6761,
      "duration": 0.089,
      "velocity": 105,
      "chip": "ym2612"
    },
    {
      "channel": 2,
      "note": 75,
      "start": 14.6779,
      "duration": 0.1057,
      "velocity": 127,
      "chip": "ym2612"
    },
    {
      "channel": 0,
      "note": 67,
      "start": 14.7654,
      "duration": 0.0176,
      "velocity": 105,
      "chip": "ym2612"
    },
    {
      "channel": 0,
      "note": 69,
      "start": 14.7833,
      "duration": 0.089,
      "velocity": 105,
      "chip": "ym2612"
    },
    {
      "channel": 1,
      "note": 67,
      "start": 14.7835,
      "duration": 0.1602,
      "velocity": 87,
      "chip": "ym2612"
    },
    {
      "channel": 2,
      "note": 66,
      "start": 14.7852,
      "duration": 0.2126,
      "velocity": 127,
      "chip": "ym2612"
    },
    {
      "channel": 4,
      "note": 57,
      "start": 14.7856,
      "duration": 0.2145,
      "velocity": 98,
      "chip": "ym2612"
    },
    {
      "channel": 0,
      "note": 69,
      "start": 14.8726,
      "duration": 0.089,
      "velocity": 105,
      "chip": "ym2612"
    },
    {
      "channel": 0,
      "note": 69,
      "start": 14.9619,
      "duration": 0.0355,
      "velocity": 105,
      "chip": "ym2612"
    },
    {
      "channel": 0,
      "note": 70,
      "start": 14.9976,
      "duration": 0.089,
      "velocity": 105,
      "chip": "ym2612"
    },
    {
      "channel": 1,
      "note": 55,
      "start": 14.9978,
      "duration": 0.1602,
      "velocity": 87,
      "chip": "ym2612"
    },
    {
      "channel": 2,
      "note": 44,
      "start": 14.9998,
      "duration": 0.1047,
      "velocity": 127,
      "chip": "ym2612"
    },
    {
      "channel": 3,
      "note": 79,
      "start": 15.0001,
      "duration": 0.2135,
      "velocity": 102,
      "chip": "ym2612"
    },
    {
      "channel": 4,
      "note": 58,
      "start": 15.0004,
      "duration": 0.2135,
      "velocity": 98,
      "chip": "ym2612"
    },
    {
      "channel": 5,
      "note": 74,
      "start": 15.0007,
      "duration": 0.2135,
      "velocity": 102,
      "chip": "ym2612"
    },
    {
      "channel": 0,
      "note": 70,
      "start": 15.0868,
      "duration": 0.089,
      "velocity": 105,
      "chip": "ym2612"
    },
    {
      "channel": 2,
      "note": 75,
      "start": 15.1061,
      "duration": 0.1057,
      "velocity": 127,
      "chip": "ym2612"
    },
    {
      "channel": 0,
      "note": 70,
      "start": 15.1761,
      "duration": 0.089,
      "velocity": 105,
      "chip": "ym2612"
    },
    {
      "channel": 1,
      "note": 67,
      "start": 15.2118,
      "duration": 0.1605,
      "velocity": 87,
      "chip": "ym2612"
    },
    {
      "channel": 2,
      "note": 66,
      "start": 15.2135,
      "duration": 0.2129,
      "velocity": 127,
      "chip": "ym2612"
    },
    {
      "channel": 3,
      "note": 79,
      "start": 15.2138,
      "duration": 0.2143,
      "velocity": 102,
      "chip": "ym2612"
    },
    {
      "channel": 4,
      "note": 60,
      "start": 15.2141,
      "duration": 0.6428,
      "velocity": 98,
      "chip": "ym2612"
    },
    {
      "channel": 5,
      "note": 74,
      "start": 15.2145,
      "duration": 0.2144,
      "velocity": 102,
      "chip": "ym2612"
    },
    {
      "channel": 0,
      "note": 70,
      "start": 15.2654,
      "duration": 0.089,
      "velocity": 105,
      "chip": "ym2612"
    },
    {
      "channel": 0,
      "note": 70,
      "start": 15.3547,
      "duration": 0.0712,
      "velocity": 105,
      "chip": "ym2612"
    },
    {
      "channel": 0,
      "note": 67,
      "start": 15.4261,
      "duration": 0.089,
      "velocity": 105,
      "chip": "ym2612"
    },
    {
      "channel": 1,
      "note": 51,
      "start": 15.4263,
      "duration": 0.1602,
      "velocity": 87,
      "chip": "ym2612"
    },
    {
      "channel": 2,
      "note": 44,
      "start": 15.4281,
      "duration": 0.1049,
      "velocity": 127,
      "chip": "ym2612"
    },
    {
      "channel": 3,
      "note": 75,
      "start": 15.4287,
      "duration": 0.2137,
      "velocity": 102,
      "chip": "ym2612"
    },
    {
      "channel": 5,
      "note": 70,
      "start": 15.4291,
      "duration": 0.2134,
      "velocity": 102,
      "chip": "ym2612"
    },
    {
      "channel": 0,
      "note": 67,
      "start": 15.5154,
      "duration": 0.089,
      "velocity": 105,
      "chip": "ym2612"
    },
    {
      "channel": 2,
      "note": 75,
      "start": 15.5347,
      "duration": 0.106,
      "velocity": 127,
      "chip": "ym2612"
    },
    {
      "channel": 0,
      "note": 67,
      "start": 15.6047,
      "duration": 0.0355,
      "velocity": 105,
      "chip": "ym2612"
    },
    {
      "channel": 0,
      "note": 69,
      "start": 15.6404,
      "duration": 0.089,
      "velocity": 105,
      "chip": "ym2612"
    },
    {
      "channel": 1,
      "note": 63,
      "start": 15.6406,
      "duration": 0.1602,
      "velocity": 87,
      "chip": "ym2612"
    },
    {
      "channel": 2,
      "note": 66,
      "start": 15.6423,
      "duration": 0.2126,
      "velocity": 127,
      "chip": "ym2612"
    },
    {
      "channel": 0,
      "note": 69,
      "start": 15.7297,
      "duration": 0.089,
      "velocity": 105,
      "chip": "ym2612"
    },
    {
      "channel": 0,
      "note": 69,
      "start": 15.8189,
      "duration": 0.0355,
      "velocity": 105,
      "chip": "ym2612"
    },
    {
      "channel": 0,
      "note": 70,
      "start": 15.8546,
      "duration": 0.089,
      "velocity": 105,
      "chip": "ym2612"
    },
    {
      "channel": 1,
      "note": 51,
      "start": 15.8549,
      "duration": 0.1602,
      "velocity": 87,
      "chip": "ym2612"
    },
    {
      "channel": 2,
      "note": 44,
      "start": 15.8566,
      "duration": 0.1049,
      "velocity": 127,
      "chip": "ym2612"
    },
    {
      "channel": 3,
      "note": 75,
      "start": 15.8569,
      "duration": 0.2138,
      "velocity": 102,
      "chip": "ym2612"
    },
    {
      "channel": 4,
      "note": 58,
      "start": 15.8572,
      "duration": 0.428,
      "velocity": 98,
      "chip": "ym2612"
    },
    {
      "channel": 5,
      "note": 70,
      "start": 15.8575,
      "duration": 0.2133,
      "velocity": 102,
      "chip": "ym2612"
    },
    {
      "channel": 0,
      "note": 70,
      "start": 15.9439,
      "duration": 0.089,
      "velocity": 105,
      "chip": "ym2612"
    },
    {
      "channel": 2,
      "note": 75,
      "start": 15.9632,
      "duration": 0.1058,
      "velocity": 127,
      "chip": "ym2612"
    },
    {
      "channel": 0,
      "note": 70,
      "start": 16.0332,
      "duration": 0.089,
      "velocity": 105,
      "chip": "ym2612"
    },
    {
      "channel": 1,
      "note": 63,
      "start": 16.0689,
      "duration": 0.1605,
      "velocity": 87,
      "chip": "ym2612"
    },
    {
      "channel": 2,
      "note": 66,
      "start": 16.0706,
      "duration": 0.2126,
      "velocity": 127,
      "chip": "ym2612"
    },
    {
      "channel": 0,
      "note": 70,
      "start": 16.1225,
      "duration": 0.0533,
      "velocity": 105,
      "chip": "ym2612"
    },
    {
      "channel": 0,
      "note": 72,
      "start": 16.1761,
      "duration": 0.089,
      "velocity": 105,
      "chip": "ym2612"
    },
    {
      "channel": 0,
      "note": 72,
      "start": 16.2653,
      "duration": 0.089,
      "velocity": 105,
      "chip": "ym2612"
    },
    {
      "channel": 1,
      "note": 53,
      "start": 16.2832,
      "duration": 0.1605,
      "velocity": 87,
      "chip": "ym2612"
    },
    {
      "channel": 2,
      "note": 44,
      "start": 16.2849,
      "duration": 0.1055,
      "velocity": 127,
      "chip": "ym2612"
    },
    {
      "channel": 3,
      "note": 77,
      "start": 16.2852,
      "duration": 0.2145,
      "velocity": 102,
      "chip": "ym2612"
    },
    {
      "channel": 4,
      "note": 57,
      "start": 16.2855,
      "duration": 0.4286,
      "velocity": 98,
      "chip": "ym2612"
    },
    {
      "channel": 5,
      "note": 72,
      "start": 16.2858,
      "duration": 0.2141,
      "velocity": 102,
      "chip": "ym2612"
    },
    {
      "channel": 0,
      "note": 72,
      "start": 16.3546,
      "duration": 0.0355,
      "velocity": 105,
      "chip": "ym2612"
    },
    {
      "channel": 0,
      "note": 72,
      "start": 16.3903,
      "duration": 0.089,
      "velocity": 105,
      "chip": "ym2612"
    },
    {
      "channel": 2,
      "note": 75,
      "start": 16.392,
      "duration": 0.1057,
      "velocity": 127,
      "chip": "ym2612"
    },
    {
      "channel": 0,
      "note": 72,
      "start": 16.4796,
      "duration": 0.0176,
      "velocity": 105,
      "chip": "ym2612"
    },
    {
      "channel": 0,
      "note": 70,
      "start": 16.4975,
      "duration": 0.089,
      "velocity": 105,
      "chip": "ym2612"
    },
    {
      "channel": 1,
      "note": 65,
      "start": 16.4977,
      "duration": 0.1602,
      "velocity": 87,
      "chip": "ym2612"
    },
    {
      "channel": 2,
      "note": 66,
      "start": 16.4997,
      "duration": 0.2124,
      "velocity": 127,
      "chip": "ym2612"
    },
    {
      "channel": 0,
      "note": 70,
      "start": 16.5868,
      "duration": 0.089,
      "velocity": 105,
      "chip": "ym2612"
    },
    {
      "channel": 0,
      "note": 70,
      "start": 16.676,
      "duration": 0.0355,
      "velocity": 105,
      "chip": "ym2612"
    },
    {
      "channel": 0,
      "note": 69,
      "start": 16.7117,
      "duration": 0.089,
      "velocity": 105,
      "chip": "ym2612"
    },
    {
      "channel": 1,
      "note": 53,
      "start": 16.712,
      "duration": 0.1602,
      "velocity": 87,
      "chip": "ym2612"
    },
    {
      "channel": 2,
      "note": 44,
      "start": 16.7137,
      "duration": 0.1049,
      "velocity": 127,
      "chip": "ym2612"
    },
    {
      "channel": 3,
      "note": 77,
      "start": 16.714,
      "duration": 0.214,
      "velocity": 102,
      "chip": "ym2612"
    },
    {
      "channel": 4,
      "note": 55,
      "start": 16.7143,
      "duration": 0.4283,
      "velocity": 98,
      "chip": "ym2612"
    },
    {
      "channel": 5,
      "note": 72,
      "start": 16.7146,
      "duration": 0.2136,
      "velocity": 102,
      "chip": "ym2612"
    },
    {
      "channel": 0,
      "note": 69,
      "start": 16.801,
      "duration": 0.089,
      "velocity": 105,
      "chip": "ym2612"
    },
    {
      "channel": 2,
      "note": 75,
      "start": 16.8203,
      "duration": 0.106,
      "velocity": 127,
      "chip": "ym2612"
    },
    {
      "channel": 0,
      "note": 69,
      "start": 16.8903,
      "duration": 0.0355,
      "velocity": 105,
      "chip": "ym2612"
    },
    {
      "channel": 0,
      "note": 65,
      "start": 16.926,
      "duration": 0.089,
      "velocity": 105,
      "chip": "ym2612"
    },
    {
      "channel": 1,
      "note": 65,
      "start": 16.9263,
      "duration": 0.1602,
      "velocity": 87,
      "chip": "ym2612"
    },
    {
      "channel": 2,
      "note": 66,
      "start": 16.928,
      "duration": 0.2126,
      "velocity": 127,
      "chip": "ym2612"
    },
    {
      "channel": 0,
      "note": 65,
      "start": 17.0153,
      "duration": 0.089,
      "velocity": 105,
      "chip": "ym2612"
    },
    {
      "channel": 0,
      "note": 65,
      "start": 17.1046,
      "duration": 0.0355,
      "velocity": 105,
      "chip": "ym2612"
    },
    {
      "channel": 0,
      "note": 67,
      "start": 17.1403,
      "duration": 0.089,
      "velocity": 105,
      "chip": "ym2612"
    },
    {
      "channel": 1,
      "note": 55,
      "start": 17.1405,
      "duration": 0.1602,
      "velocity": 87,
      "chip": "ym2612"
    },
    {
      "channel": 2,
      "note": 44,
      "start": 17.1423,
      "duration": 0.1049,
      "velocity": 127,
      "chip": "ym2612"
    },
    {
      "channel": 3,
      "note": 79,
      "start": 17.1426,
      "duration": 0.214,
      "velocity": 102,
      "chip": "ym2612"
    },
    {
      "channel": 5,
      "note": 74,
      "start": 17.1429,
      "duration": 0.2138,
      "velocity": 102,
      "chip": "ym2612"
    },
    {
      "channel": 0,
      "note": 67,
      "start": 17.2296,
      "duration": 0.089,
      "velocity": 105,
      "chip": "ym2612"
    },
    {
      "channel": 2,
      "note": 75,
      "start": 17.2491,
      "duration": 0.1058,
      "velocity": 127,
      "chip": "ym2612"
    },
    {
      "channel": 0,
      "note": 67,
      "start": 17.3189,
      "duration": 0.0354,
      "velocity": 105,
      "chip": "ym2612"
    },
    {
      "channel": 0,
      "note": 69,
      "start": 17.3546,
      "duration": 0.089,
      "velocity": 105,
      "chip": "ym2612"
    },
    {
      "channel": 1,
      "note": 67,
      "start": 17.3548,
      "duration": 0.1602,
      "velocity": 87,
      "chip": "ym2612"
    },
    {
      "channel": 2,
      "note": 66,
      "start": 17.3565,
      "duration": 0.2127,
      "velocity": 127,
      "chip": "ym2612"
    },
    {
      "channel": 0,
      "note": 69,
      "start": 17.4438,
      "duration": 0.089,
      "velocity": 105,
      "chip": "ym2612"
    },
    {
      "channel": 0,
      "note": 69,
      "start": 17.5331,
      "duration": 0.0355,
      "velocity": 105,
      "chip": "ym2612"
    },
    {
      "channel": 0,
      "note": 70,
      "start": 17.5689,
      "duration": 0.089,
      "velocity": 105,
      "chip": "ym2612"
    },
    {
      "channel": 1,
      "note": 55,
      "start": 17.5691,
      "duration": 0.1602,
      "velocity": 87,
      "chip": "ym2612"
    },
    {
      "channel": 2,
      "note": 44,
      "start": 17.5708,
      "duration": 0.1049,
      "velocity": 127,
      "chip": "ym2612"
    },
    {
      "channel": 3,
      "note": 79,
      "start": 17.5711,
      "duration": 0.2137,
      "velocity": 102,
      "chip": "ym2612"
    },
    {
      "channel": 5,
      "note": 74,
      "start": 17.5715,
      "duration": 0.2134,
      "velocity": 102,
      "chip": "ym2612"
    },
    {
      "channel": 0,
      "note": 70,
      "start": 17.6581,
      "duration": 0.089,
      "velocity": 105,
      "chip": "ym2612"
    },
    {
      "channel": 2,
      "note": 75,
      "start": 17.6774,
      "duration": 0.1057,
      "velocity": 127,
      "chip": "ym2612"
    },
    {
      "channel": 0,
      "note": 70,
      "start": 17.7474,
      "duration": 0.089,
      "velocity": 105,
      "chip": "ym2612"
    },
    {
      "channel": 1,
      "note": 67,
      "start": 17.7831,
      "duration": 0.1605,
      "velocity": 87,
      "chip": "ym2612"
    },
    {
      "channel": 2,
      "note": 66,
      "start": 17.7848,
      "duration": 0.2126,
      "velocity": 127,
      "chip": "ym2612"
    },
    {
      "channel": 0,
      "note": 70,
      "start": 17.8367,
      "duration": 0.0533,
      "velocity": 105,
      "chip": "ym2612"
    },
    {
      "channel": 0,
      "note": 67,
      "start": 17.8902,
      "duration": 0.089,
      "velocity": 105,
      "chip": "ym2612"
    },
    {
      "channel": 0,
      "note": 67,
      "start": 17.9795,
      "duration": 0.089,
      "velocity": 105,
      "chip": "ym2612"
    },
    {
      "channel": 1,
      "note": 55,
      "start": 17.9973,
      "duration": 0.1605,
      "velocity": 87,
      "chip": "ym2612"
    },
    {
      "channel": 2,
      "note": 44,
      "start": 17.9993,
      "duration": 0.1053,
      "velocity": 127,
      "chip": "ym2612"
    },
    {
      "channel": 3,
      "note": 79,
      "start": 17.9996,
      "duration": 0.214,
      "velocity": 102,
      "chip": "ym2612"
    },
    {
      "channel": 4,
      "note": 55,
      "start": 17.9998,
      "duration": 0.2139,
      "velocity": 98,
      "chip": "ym2612"
    },
    {
      "channel": 5,
      "note": 74,
      "start": 18.0002,
      "duration": 0.2138,
      "velocity": 102,
      "chip": "ym2612"
    },
    {
      "channel": 0,
      "note": 67,
      "start": 18.0688,
      "duration": 0.0354,
      "velocity": 105,
      "chip": "ym2612"
    },
    {
      "channel": 0,
      "note": 67,
      "start": 18.1045,
      "duration": 0.089,
      "velocity": 105,
      "chip": "ym2612"
    },
    {
      "channel": 2,
      "note": 75,
      "start": 18.1062,
      "duration": 0.1057,
      "velocity": 127,
      "chip": "ym2612"
    },
    {
      "channel": 0,
      "note": 67,
      "start": 18.1938,
      "duration": 0.0176,
      "velocity": 105,
      "chip": "ym2612"
    },
    {
      "channel": 0,
      "note": 69,
      "start": 18.2116,
      "duration": 0.089,
      "velocity": 105,
      "chip": "ym2612"
    },
    {
      "channel": 1,
      "note": 67,
      "start": 18.2119,
      "duration": 0.1602,
      "velocity": 87,
      "chip": "ym2612"
    },
    {
      "channel": 2,
      "note": 66,
      "start": 18.2136,
      "duration": 0.2126,
      "velocity": 127,
      "chip": "ym2612"
    },
    {
      "channel": 4,
      "note": 57,
      "start": 18.2139,
      "duration": 0.2146,
      "velocity": 98,
      "chip": "ym2612"
    },
    {
      "channel": 0,
      "note": 69,
      "start": 18.3009,
      "duration": 0.089,
      "velocity": 105,
      "chip": "ym2612"
    },
    {
      "channel": 0,
      "note": 69,
      "start": 18.3902,
      "duration": 0.0355,
      "velocity": 105,
      "chip": "ym2612"
    },
    {
      "channel": 0,
      "note": 70,
      "start": 18.4259,
      "duration": 0.089,
      "velocity": 105,
      "chip": "ym2612"
    },
    {
      "channel": 1,
      "note": 55,
      "start": 18.4262,
      "duration": 0.1602,
      "velocity": 87,
      "chip": "ym2612"
    },
    {
      "channel": 2,
      "note": 44,
      "start": 18.4279,
      "duration": 0.1049,
      "velocity": 127,
      "chip": "ym2612"
    },
    {
      "channel": 3,
      "note": 79,
      "start": 18.4284,
      "duration": 0.2135,
      "velocity": 102,
      "chip": "ym2612"
    },
    {
      "channel": 4,
      "note": 58,
      "start": 18.4287,
      "duration": 0.2135,
      "velocity": 98,
      "chip": "ym2612"
    },
    {
      "channel": 5,
      "note": 74,
      "start": 18.429,
      "duration": 0.2135,
      "velocity": 102,
      "chip": "ym2612"
    },
    {
      "channel": 0,
      "note": 70,
      "start": 18.5152,
      "duration": 0.089,
      "velocity": 105,
      "chip": "ym2612"
    },
    {
      "channel": 2,
      "note": 75,
      "start": 18.5345,
      "duration": 0.1057,
      "velocity": 127,
      "chip": "ym2612"
    },
    {
      "channel": 0,
      "note": 70,
      "start": 18.6045,
      "duration": 0.089,
      "velocity": 105,
      "chip": "ym2612"
    },
    {
      "channel": 1,
      "note": 67,
      "start": 18.6401,
      "duration": 0.1605,
      "velocity": 87,
      "chip": "ym2612"
    },
    {
      "channel": 2,
      "note": 66,
      "start": 18.6419,
      "duration": 0.2129,
      "velocity": 127,
      "chip": "ym2612"
    },
    {
      "channel": 3,
      "note": 79,
      "start": 18.6422,
      "duration": 0.2143,
      "velocity": 102,
      "chip": "ym2612"
    },
    {
      "channel": 4,
      "note": 62,
      "start": 18.6425,
      "duration": 0.6428,
      "velocity": 98,
      "chip": "ym2612"
    },
    {
      "channel": 5,
      "note": 74,
      "start": 18.6428,
      "duration": 0.2141,
      "velocity": 102,
      "chip": "ym2612"
    },
    {
      "channel": 0,
      "note": 70,
      "start": 18.6938,
      "duration": 0.089,
      "velocity": 105,
      "chip": "ym2612"
    },
    {
      "channel": 0,
      "note": 70,
      "start": 18.783,
      "duration": 0.0712,
      "velocity": 105,
      "chip": "ym2612"
    },
    {
      "channel": 0,
      "note": 67,
      "start": 18.8544,
      "duration": 0.089,
      "velocity": 105,
      "chip": "ym2612"
    },
    {
      "channel": 1,
      "note": 51,
      "start": 18.8547,
      "duration": 0.1602,
      "velocity": 87,
      "chip": "ym2612"
    },
    {
      "channel": 2,
      "note": 44,
      "start": 18.8564,
      "duration": 0.1049,
      "velocity": 127,
      "chip": "ym2612"
    },
    {
      "channel": 3,
      "note": 75,
      "start": 18.8568,
      "duration": 0.214,
      "velocity": 102,
      "chip": "ym2612"
    },
    {
      "channel": 5,
      "note": 70,
      "start": 18.8572,
      "duration": 0.2138,
      "velocity": 102,
      "chip": "ym2612"
    },
    {
      "channel": 0,
      "note": 67,
      "start": 18.9437,
      "duration": 0.089,
      "velocity": 105,
      "chip": "ym2612"
    },
    {
      "channel": 2,
      "note": 75,
      "start": 18.963,
      "duration": 0.1061,
      "velocity": 127,
      "chip": "ym2612"
    },
    {
      "channel": 0,
      "note": 67,
      "start": 19.033,
      "duration": 0.0355,
      "velocity": 105,
      "chip": "ym2612"
    },
    {
      "channel": 0,
      "note": 69,
      "start": 19.0688,
      "duration": 0.089,
      "velocity": 105,
      "chip": "ym2612"
    },
    {
      "channel": 1,
      "note": 63,
      "start": 19.069,
      "duration": 0.1602,
      "velocity": 87,
      "chip": "ym2612"
    },
    {
      "channel": 2,
      "note": 66,
      "start": 19.0707,
      "duration": 0.2125,
      "velocity": 127,
      "chip": "ym2612"
    },
    {
      "channel": 0,
      "note": 69,
      "start": 19.158,
      "duration": 0.089,
      "velocity": 105,
      "chip": "ym2612"
    },
    {
      "channel": 0,
      "note": 69,
      "start": 19.2473,
      "duration": 0.0355,
      "velocity": 105,
      "chip": "ym2612"
    },
    {
      "channel": 0,
      "note": 70,
      "start": 19.283,
      "duration": 0.089,
      "velocity": 105,
      "chip": "ym2612"
    },
    {
      "channel": 1,
      "note": 51,
      "start": 19.2832,
      "duration": 0.1602,
      "velocity": 87,
      "chip": "ym2612"
    },
    {
      "channel": 2,
      "note": 44,
      "start": 19.285,
      "duration": 0.1049,
      "velocity": 127,
      "chip": "ym2612"
    },
    {
      "channel": 3,
      "note": 75,
      "start": 19.2853,
      "duration": 0.214,
      "velocity": 102,
      "chip": "ym2612"
    },
    {
      "channel": 4,
      "note": 60,
      "start": 19.2856,
      "duration": 0.428,
      "velocity": 98,
      "chip": "ym2612"
    },
    {
      "channel": 5,
      "note": 70,
      "start": 19.2859,
      "duration": 0.2135,
      "velocity": 102,
      "chip": "ym2612"
    },
    {
      "channel": 0,
      "note": 70,
      "start": 19.3723,
      "duration": 0.089,
      "velocity": 105,
      "chip": "ym2612"
    },
    {
      "channel": 2,
      "note": 75,
      "start": 19.3916,
      "duration": 0.1057,
      "velocity": 127,
      "chip": "ym2612"
    },
    {
      "channel": 0,
      "note": 70,
      "start": 19.4616,
      "duration": 0.089,
      "velocity": 105,
      "chip": "ym2612"
    },
    {
      "channel": 1,
      "note": 63,
      "start": 19.4972,
      "duration": 0.1605,
      "velocity": 87,
      "chip": "ym2612"
    },
    {
      "channel": 2,
      "note": 66,
      "start": 19.4992,
      "duration": 0.2124,
      "velocity": 127,
      "chip": "ym2612"
    },
    {
      "channel": 0,
      "note": 70,
      "start": 19.5508,
      "duration": 0.0533,
      "velocity": 105,
      "chip": "ym2612"
    },
    {
      "channel": 0,
      "note": 72,
      "start": 19.6044,
      "duration": 0.089,
      "velocity": 105,
      "chip": "ym2612"
    },
    {
      "channel": 0,
      "note": 72,
      "start": 19.6937,
      "duration": 0.089,
      "velocity": 105,
      "chip": "ym2612"
    },
    {
      "channel": 1,
      "note": 53,
      "start": 19.7115,
      "duration": 0.1605,
      "velocity": 87,
      "chip": "ym2612"
    },
    {
      "channel": 2,
      "note": 44,
      "start": 19.7132,
      "duration": 0.1056,
      "velocity": 127,
      "chip": "ym2612"
    },
    {
      "channel": 3,
      "note": 77,
      "start": 19.7135,
      "duration": 0.2143,
      "velocity": 102,
      "chip": "ym2612"
    },
    {
      "channel": 4,
      "note": 58,
      "start": 19.7138,
      "duration": 0.4286,
      "velocity": 98,
      "chip": "ym2612"
    },
    {
      "channel": 5,
      "note": 72,
      "start": 19.7141,
      "duration": 0.2138,
      "velocity": 102,
      "chip": "ym2612"
    },
    {
      "channel": 0,
      "note": 72,
      "start": 19.783,
      "duration": 0.0356,
      "velocity": 105,
      "chip": "ym2612"
    },
    {
      "channel": 0,
      "note": 72,
      "start": 19.8188,
      "duration": 0.089,
      "velocity": 105,
      "chip": "ym2612"
    },
    {
      "channel": 2,
      "note": 75,
      "start": 19.8205,
      "duration": 0.1056,
      "velocity": 127,
      "chip": "ym2612"
    },
    {
      "channel": 0,
      "note": 72,
      "start": 19.908,
      "duration": 0.0176,
      "velocity": 105,
      "chip": "ym2612"
    },
    {
      "channel": 0,
      "note": 70,
      "start": 19.9258,
      "duration": 0.089,
      "velocity": 105,
      "chip": "ym2612"
    },
    {
      "channel": 1,
      "note": 65,
      "start": 19.9261,
      "duration": 0.1602,
      "velocity": 87,
      "chip": "ym2612"
    },
    {
      "channel": 2,
      "note": 66,
      "start": 19.9278,
      "duration": 0.2126,
      "velocity": 127,
      "chip": "ym2612"
    },
    {
      "channel": 0,
      "note": 70,
      "start": 20.0151,
      "duration": 0.089,
      "velocity": 105,
      "chip": "ym2612"
    },
    {
      "channel": 0,
      "note": 70,
      "start": 20.1044,
      "duration": 0.0355,
      "velocity": 105,
      "chip": "ym2612"
    },
    {
      "channel": 0,
      "note": 69,
      "start": 20.1401,
      "duration": 0.089,
      "velocity": 105,
      "chip": "ym2612"
    },
    {
      "channel": 1,
      "note": 53,
      "start": 20.1403,
      "duration": 0.1602,
      "velocity": 87,
      "chip": "ym2612"
    },
    {
      "channel": 2,
      "note": 44,
      "start": 20.1421,
      "duration": 0.1049,
      "velocity": 127,
      "chip": "ym2612"
    },
    {
      "channel": 3,
      "note": 77,
      "start": 20.1424,
      "duration": 0.214,
      "velocity": 102,
      "chip": "ym2612"
    },
    {
      "channel": 4,
      "note": 60,
      "start": 20.1427,
      "duration": 0.4328,
      "velocity": 98,
      "chip": "ym2612"
    },
    {
      "channel": 5,
      "note": 72,
      "start": 20.1429,
      "duration": 0.2136,
      "velocity": 102,
      "chip": "ym2612"
    },
    {
      "channel": 0,
      "note": 69,
      "start": 20.2294,
      "duration": 0.0892,
      "velocity": 105,
      "chip": "ym2612"
    },
    {
      "channel": 2,
      "note": 75,
      "start": 20.2489,
      "duration": 0.1057,
      "velocity": 127,
      "chip": "ym2612"
    },
    {
      "channel": 0,
      "note": 69,
      "start": 20.3188,
      "duration": 0.0354,
      "velocity": 105,
      "chip": "ym2612"
    },
    {
      "channel": 0,
      "note": 65,
      "start": 20.3544,
      "duration": 0.089,
      "velocity": 105,
      "chip": "ym2612"
    },
    {
      "channel": 1,
      "note": 65,
      "start": 20.3546,
      "duration": 0.1602,
      "velocity": 87,
      "chip": "ym2612"
    },
    {
      "channel": 2,
      "note": 66,
      "start": 20.3563,
      "duration": 0.2157,
      "velocity": 127,
      "chip": "ym2612"
    },
    {
      "channel": 0,
      "note": 65,
      "start": 20.4437,
      "duration": 0.089,
      "velocity": 105,
      "chip": "ym2612"
    },
    {
      "channel": 0,
      "note": 65,
      "start": 20.5329,
      "duration": 0.0356,
      "velocity": 105,
      "chip": "ym2612"
    },
    {
      "channel": 0,
      "note": 67,
      "start": 20.5702,
      "duration": 0.0874,
      "velocity": 105,
      "chip": "ym2612"
    },
    {
      "channel": 1,
      "note": 55,
      "start": 20.572,
      "duration": 0.1571,
      "velocity": 87,
      "chip": "ym2612"
    },
    {
      "channel": 2,
      "note": 44,
      "start": 20.5737,
      "duration": 0.1018,
      "velocity": 127,
      "chip": "ym2612"
    },
    {
      "channel": 3,
      "note": 79,
      "start": 20.5754,
      "duration": 0.2095,
      "velocity": 102,
      "chip": "ym2612"
    },
    {
      "channel": 5,
      "note": 74,
      "start": 20.5771,
      "duration": 0.2079,
      "velocity": 102,
      "chip": "ym2612"
    },
    {
      "channel": 0,
      "note": 67,
      "start": 20.6579,
      "duration": 0.089,
      "velocity": 105,
      "chip": "ym2612"
    },
    {
      "channel": 2,
      "note": 75,
      "start": 20.6772,
      "duration": 0.106,
      "velocity": 127,
      "chip": "ym2612"
    },
    {
      "channel": 0,
      "note": 67,
      "start": 20.7472,
      "duration": 0.0355,
      "velocity": 105,
      "chip": "ym2612"
    },
    {
      "channel": 0,
      "note": 69,
      "start": 20.7829,
      "duration": 0.089,
      "velocity": 105,
      "chip": "ym2612"
    },
    {
      "channel": 1,
      "note": 67,
      "start": 20.7832,
      "duration": 0.1602,
      "velocity": 87,
      "chip": "ym2612"
    },
    {
      "channel": 2,
      "note": 66,
      "start": 20.7849,
      "duration": 0.2126,
      "velocity": 127,
      "chip": "ym2612"
    },
    {
      "channel": 0,
      "note": 69,
      "start": 20.8722,
      "duration": 0.089,
      "velocity": 105,
      "chip": "ym2612"
    },
    {
      "channel": 0,
      "note": 69,
      "start": 20.9615,
      "duration": 0.0355,
      "velocity": 105,
      "chip": "ym2612"
    },
    {
      "channel": 0,
      "note": 70,
      "start": 20.9972,
      "duration": 0.089,
      "velocity": 105,
      "chip": "ym2612"
    },
    {
      "channel": 1,
      "note": 55,
      "start": 20.9974,
      "duration": 0.1602,
      "velocity": 87,
      "chip": "ym2612"
    },
    {
      "channel": 2,
      "note": 44,
      "start": 20.9994,
      "duration": 0.1047,
      "velocity": 127,
      "chip": "ym2612"
    },
    {
      "channel": 3,
      "note": 79,
      "start": 20.9997,
      "duration": 0.2135,
      "velocity": 102,
      "chip": "ym2612"
    },
    {
      "channel": 5,
      "note": 74,
      "start": 21.0001,
      "duration": 0.2132,
      "velocity": 102,
      "chip": "ym2612"
    },
    {
      "channel": 0,
      "note": 70,
      "start": 21.0865,
      "duration": 0.089,
      "velocity": 105,
      "chip": "ym2612"
    },
    {
      "channel": 2,
      "note": 75,
      "start": 21.1057,
      "duration": 0.1057,
      "velocity": 127,
      "chip": "ym2612"
    },
    {
      "channel": 0,
      "note": 70,
      "start": 21.1757,
      "duration": 0.089,
      "velocity": 105,
      "chip": "ym2612"
    },
    {
      "channel": 1,
      "note": 67,
      "start": 21.2114,
      "duration": 0.1605,
      "velocity": 87,
      "chip": "ym2612"
    },
    {
      "channel": 2,
      "note": 66,
      "start": 21.2131,
      "duration": 0.2126,
      "velocity": 127,
      "chip": "ym2612"
    },
    {
      "channel": 0,
      "note": 70,
      "start": 21.265,
      "duration": 0.0535,
      "velocity": 105,
      "chip": "ym2612"
    },
    {
      "channel": 0,
      "note": 67,
      "start": 21.3188,
      "duration": 0.0889,
      "velocity": 105,
      "chip": "ym2612"
    },
    {
      "channel": 0,
      "note": 67,
      "start": 21.4079,
      "duration": 0.089,
      "velocity": 105,
      "chip": "ym2612"
    },
    {
      "channel": 1,
      "note": 55,
      "start": 21.4257,
      "duration": 0.1605,
      "velocity": 87,
      "chip": "ym2612"
    },
    {
      "channel": 2,
      "note": 44,
      "start": 21.4274,
      "duration": 0.1055,
      "velocity": 127,
      "chip": "ym2612"
    },
    {
      "channel": 3,
      "note": 79,
      "start": 21.4277,
      "duration": 0.2143,
      "velocity": 102,
      "chip": "ym2612"
    },
    {
      "channel": 4,
      "note": 55,
      "start": 21.428,
      "duration": 0.2141,
      "velocity": 98,
      "chip": "ym2612"
    },
    {
      "channel": 5,
      "note": 74,
      "start": 21.4285,
      "duration": 0.2138,
      "velocity": 102,
      "chip": "ym2612"
    },
    {
      "channel": 0,
      "note": 67,
      "start": 21.4971,
      "duration": 0.0355,
      "velocity": 105,
      "chip": "ym2612"
    },
    {
      "channel": 0,
      "note": 67,
      "start": 21.5329,
      "duration": 0.089,
      "velocity": 105,
      "chip": "ym2612"
    },
    {
      "channel": 2,
      "note": 75,
      "start": 21.5346,
      "duration": 0.1057,
      "velocity": 127,
      "chip": "ym2612"
    },
    {
      "channel": 0,
      "note": 67,
      "start": 21.6221,
      "duration": 0.0176,
      "velocity": 105,
      "chip": "ym2612"
    },
    {
      "channel": 0,
      "note": 69,
      "start": 21.64,
      "duration": 0.089,
      "velocity": 105,
      "chip": "ym2612"
    },
    {
      "channel": 1,
      "note": 67,
      "start": 21.6402,
      "duration": 0.1602,
      "velocity": 87,
      "chip": "ym2612"
    },
    {
      "channel": 2,
      "note": 66,
      "start": 21.642,
      "duration": 0.2126,
      "velocity": 127,
      "chip": "ym2612"
    },
    {
      "channel": 4,
      "note": 57,
      "start": 21.6423,
      "duration": 0.2143,
      "velocity": 98,
      "chip": "ym2612"
    },
    {
      "channel": 0,
      "note": 69,
      "start": 21.7293,
      "duration": 0.0893,
      "velocity": 105,
      "chip": "ym2612"
    },
    {
      "channel": 0,
      "note": 69,
      "start": 21.8188,
      "duration": 0.0352,
      "velocity": 105,
      "chip": "ym2612"
    },
    {
      "channel": 0,
      "note": 70,
      "start": 21.8543,
      "duration": 0.089,
      "velocity": 105,
      "chip": "ym2612"
    },
    {
      "channel": 1,
      "note": 55,
      "start": 21.8545,
      "duration": 0.1602,
      "velocity": 87,
      "chip": "ym2612"
    },
    {
      "channel": 2,
      "note": 44,
      "start": 21.8562,
      "duration": 0.1049,
      "velocity": 127,
      "chip": "ym2612"
    },
    {
      "channel": 3,
      "note": 79,
      "start": 21.8565,
      "duration": 0.214,
      "velocity": 102,
      "chip": "ym2612"
    },
    {
      "channel": 4,
      "note": 58,
      "start": 21.8568,
      "duration": 0.214,
      "velocity": 98,
      "chip": "ym2612"
    },
    {
      "channel": 5,
      "note": 74,
      "start": 21.8571,
      "duration": 0.214,
      "velocity": 102,
      "chip": "ym2612"
    },
    {
      "channel": 0,
      "note": 70,
      "start": 21.9435,
      "duration": 0.089,
      "velocity": 105,
      "chip": "ym2612"
    },
    {
      "channel": 2,
      "note": 75,
      "start": 21.9628,
      "duration": 0.106,
      "velocity": 127,
      "chip": "ym2612"
    },
    {
      "channel": 0,
      "note": 70,
      "start": 22.0328,
      "duration": 0.089,
      "velocity": 105,
      "chip": "ym2612"
    },
    {
      "channel": 1,
      "note": 67,
      "start": 22.0687,
      "duration": 0.1603,
      "velocity": 87,
      "chip": "ym2612"
    },
    {
      "channel": 2,
      "note": 66,
      "start": 22.0705,
      "duration": 0.2126,
      "velocity": 127,
      "chip": "ym2612"
    },
    {
      "channel": 3,
      "note": 79,
      "start": 22.0708,
      "duration": 0.214,
      "velocity": 102,
      "chip": "ym2612"
    },
    {
      "channel": 4,
      "note": 60,
      "start": 22.0711,
      "duration": 0.6426,
      "velocity": 98,
      "chip": "ym2612"
    },
    {
      "channel": 5,
      "note": 74,
      "start": 22.0714,
      "duration": 0.2138,
      "velocity": 102,
      "chip": "ym2612"
    },
    {
      "channel": 0,
      "note": 70,
      "start": 22.1221,
      "duration": 0.089,
      "velocity": 105,
      "chip": "ym2612"
    },
    {
      "channel": 0,
      "note": 70,
      "start": 22.2114,
      "duration": 0.0712,
      "velocity": 105,
      "chip": "ym2612"
    },
    {
      "channel": 0,
      "note": 67,
      "start": 22.2828,
      "duration": 0.089,
      "velocity": 105,
      "chip": "ym2612"
    },
    {
      "channel": 1,
      "note": 51,
      "start": 22.2831,
      "duration": 0.1602,
      "velocity": 87,
      "chip": "ym2612"
    },
    {
      "channel": 2,
      "note": 44,
      "start": 22.2848,
      "duration": 0.1049,
      "velocity": 127,
      "chip": "ym2612"
    },
    {
      "channel": 3,
      "note": 75,
      "start": 22.2851,
      "duration": 0.2142,
      "velocity": 102,
      "chip": "ym2612"
    },
    {
      "channel": 5,
      "note": 70,
      "start": 22.2856,
      "duration": 0.2139,
      "velocity": 102,
      "chip": "ym2612"
    },
    {
      "channel": 0,
      "note": 67,
      "start": 22.3721,
      "duration": 0.089,
      "velocity": 105,
      "chip": "ym2612"
    },
    {
      "channel": 2,
      "note": 75,
      "start": 22.3914,
      "duration": 0.106,
      "velocity": 127,
      "chip": "ym2612"
    },
    {
      "channel": 0,
      "note": 67,
      "start": 22.4614,
      "duration": 0.0355,
      "velocity": 105,
      "chip": "ym2612"
    },
    {
      "channel": 0,
      "note": 69,
      "start": 22.4971,
      "duration": 0.089,
      "velocity": 105,
      "chip": "ym2612"
    },
    {
      "channel": 1,
      "note": 63,
      "start": 22.4973,
      "duration": 0.1602,
      "velocity": 87,
      "chip": "ym2612"
    },
    {
      "channel": 2,
      "note": 66,
      "start": 22.4993,
      "duration": 0.2124,
      "velocity": 127,
      "chip": "ym2612"
    },
    {
      "channel": 0,
      "note": 69,
      "start": 22.5864,
      "duration": 0.089,
      "velocity": 105,
      "chip": "ym2612"
    },
    {
      "channel": 0,
      "note": 69,
      "start": 22.6756,
      "duration": 0.0355,
      "velocity": 105,
      "chip": "ym2612"
    },
    {
      "channel": 0,
      "note": 70,
      "start": 22.7114,
      "duration": 0.089,
      "velocity": 105,
      "chip": "ym2612"
    },
    {
      "channel": 1,
      "note": 51,
      "start": 22.7116,
      "duration": 0.1602,
      "velocity": 87,
      "chip": "ym2612"
    },
    {
      "channel": 2,
      "note": 44,
      "start": 22.7133,
      "duration": 0.1052,
      "velocity": 127,
      "chip": "ym2612"
    },
    {
      "channel": 3,
      "note": 75,
      "start": 22.7136,
      "duration": 0.2137,
      "velocity": 102,
      "chip": "ym2612"
    },
    {
      "channel": 4,
      "note": 58,
      "start": 22.7139,
      "duration": 0.428,
      "velocity": 98,
      "chip": "ym2612"
    },
    {
      "channel": 5,
      "note": 70,
      "start": 22.7142,
      "duration": 0.2133,
      "velocity": 102,
      "chip": "ym2612"
    },
    {
      "channel": 0,
      "note": 70,
      "start": 22.8006,
      "duration": 0.089,
      "velocity": 105,
      "chip": "ym2612"
    },
    {
      "channel": 2,
      "note": 75,
      "start": 22.8202,
      "duration": 0.1055,
      "velocity": 127,
      "chip": "ym2612"
    },
    {
      "channel": 0,
      "note": 70,
      "start": 22.8899,
      "duration": 0.089,
      "velocity": 105,
      "chip": "ym2612"
    },
    {
      "channel": 1,
      "note": 63,
      "start": 22.9256,
      "duration": 0.1605,
      "velocity": 87,
      "chip": "ym2612"
    },
    {
      "channel": 2,
      "note": 66,
      "start": 22.9273,
      "duration": 0.2126,
      "velocity": 127,
      "chip": "ym2612"
    },
    {
      "channel": 0,
      "note": 70,
      "start": 22.9792,
      "duration": 0.0533,
      "velocity": 105,
      "chip": "ym2612"
    },
    {
      "channel": 0,
      "note": 72,
      "start": 23.0328,
      "duration": 0.089,
      "velocity": 105,
      "chip": "ym2612"
    },
    {
      "channel": 0,
      "note": 72,
      "start": 23.122,
      "duration": 0.089,
      "velocity": 105,
      "chip": "ym2612"
    },
    {
      "channel": 1,
      "note": 53,
      "start": 23.1399,
      "duration": 0.1605,
      "velocity": 87,
      "chip": "ym2612"
    },
    {
      "channel": 2,
      "note": 44,
      "start": 23.1416,
      "duration": 0.1055,
      "velocity": 127,
      "chip": "ym2612"
    },
    {
      "channel": 3,
      "note": 77,
      "start": 23.1419,
      "duration": 0.2143,
      "velocity": 102,
      "chip": "ym2612"
    },
    {
      "channel": 4,
      "note": 57,
      "start": 23.1422,
      "duration": 0.4289,
      "velocity": 98,
      "chip": "ym2612"
    },
    {
      "channel": 5,
      "note": 72,
      "start": 23.1425,
      "duration": 0.2139,
      "velocity": 102,
      "chip": "ym2612"
    },
    {
      "channel": 0,
      "note": 72,
      "start": 23.2113,
      "duration": 0.0355,
      "velocity": 105,
      "chip": "ym2612"
    },
    {
      "channel": 0,
      "note": 72,
      "start": 23.247,
      "duration": 0.089,
      "velocity": 105,
      "chip": "ym2612"
    },
    {
      "channel": 2,
      "note": 75,
      "start": 23.249,
      "duration": 0.1055,
      "velocity": 127,
      "chip": "ym2612"
    },
    {
      "channel": 0,
      "note": 72,
      "start": 23.3363,
      "duration": 0.0176,
      "velocity": 105,
      "chip": "ym2612"
    },
    {
      "channel": 0,
      "note": 70,
      "start": 23.3542,
      "duration": 0.089,
      "velocity": 105,
      "chip": "ym2612"
    },
    {
      "channel": 1,
      "note": 65,
      "start": 23.3544,
      "duration": 0.1602,
      "velocity": 87,
      "chip": "ym2612"
    },
    {
      "channel": 2,
      "note": 66,
      "start": 23.3561,
      "duration": 0.2129,
      "velocity": 127,
      "chip": "ym2612"
    },
    {
      "channel": 0,
      "note": 70,
      "start": 23.4434,
      "duration": 0.089,
      "velocity": 105,
      "chip": "ym2612"
    },
    {
      "channel": 0,
      "note": 70,
      "start": 23.5327,
      "duration": 0.0357,
      "velocity": 105,
      "chip": "ym2612"
    },
    {
      "channel": 0,
      "note": 69,
      "start": 23.5687,
      "duration": 0.0888,
      "velocity": 105,
      "chip": "ym2612"
    },
    {
      "channel": 1,
      "note": 53,
      "start": 23.569,
      "duration": 0.1599,
      "velocity": 87,
      "chip": "ym2612"
    },
    {
      "channel": 2,
      "note": 44,
      "start": 23.5707,
      "duration": 0.1046,
      "velocity": 127,
      "chip": "ym2612"
    },
    {
      "channel": 3,
      "note": 77,
      "start": 23.571,
      "duration": 0.2137,
      "velocity": 102,
      "chip": "ym2612"
    },
    {
      "channel": 4,
      "note": 55,
      "start": 23.5713,
      "duration": 0.4283,
      "velocity": 98,
      "chip": "ym2612"
    },
    {
      "channel": 5,
      "note": 72,
      "start": 23.5716,
      "duration": 0.2133,
      "velocity": 102,
      "chip": "ym2612"
    },
    {
      "channel": 0,
      "note": 69,
      "start": 23.6577,
      "duration": 0.089,
      "velocity": 105,
      "chip": "ym2612"
    },
    {
      "channel": 2,
      "note": 75,
      "start": 23.677,
      "duration": 0.106,
      "velocity": 127,
      "chip": "ym2612"
    },
    {
      "channel": 0,
      "note": 69,
      "start": 23.747,
      "duration": 0.0355,
      "velocity": 105,
      "chip": "ym2612"
    },
    {
      "channel": 0,
      "note": 65,
      "start": 23.7827,
      "duration": 0.089,
      "velocity": 105,
      "chip": "ym2612"
    },
    {
      "channel": 1,
      "note": 65,
      "start": 23.7829,
      "duration": 0.1602,
      "velocity": 87,
      "chip": "ym2612"
    },
    {
      "channel": 2,
      "note": 66,
      "start": 23.7847,
      "duration": 0.2126,
      "velocity": 127,
      "chip": "ym2612"
    },
    {
      "channel": 0,
      "note": 65,
      "start": 23.872,
      "duration": 0.089,
      "velocity": 105,
      "chip": "ym2612"
    },
    {
      "channel": 0,
      "note": 65,
      "start": 23.9613,
      "duration": 0.0355,
      "velocity": 105,
      "chip": "ym2612"
    },
    {
      "channel": 0,
      "note": 67,
      "start": 23.997,
      "duration": 0.089,
      "velocity": 105,
      "chip": "ym2612"
    },
    {
      "channel": 1,
      "note": 55,
      "start": 23.9973,
      "duration": 0.1602,
      "velocity": 87,
      "chip": "ym2612"
    },
    {
      "channel": 2,
      "note": 44,
      "start": 23.9992,
      "duration": 0.1047,
      "velocity": 127,
      "chip": "ym2612"
    },
    {
      "channel": 3,
      "note": 79,
      "start": 23.9995,
      "duration": 0.2137,
      "velocity": 102,
      "chip": "ym2612"
    },
    {
      "channel": 5,
      "note": 74,
      "start": 23.9999,
      "duration": 0.2135,
      "velocity": 102,
      "chip": "ym2612"
    },
    {
      "channel": 0,
      "note": 67,
      "start": 24.0863,
      "duration": 0.089,
      "velocity": 105,
      "chip": "ym2612"
    },
    {
      "channel": 2,
      "note": 75,
      "start": 24.1056,
      "duration": 0.106,
      "velocity": 127,
      "chip": "ym2612"
    },
    {
      "channel": 0,
      "note": 67,
      "start": 24.1756,
      "duration": 0.0355,
      "velocity": 105,
      "chip": "ym2612"
    },
    {
      "channel": 0,
      "note": 69,
      "start": 24.2112,
      "duration": 0.089,
      "velocity": 105,
      "chip": "ym2612"
    },
    {
      "channel": 1,
      "note": 67,
      "start": 24.2115,
      "duration": 0.1602,
      "velocity": 87,
      "chip": "ym2612"
    },
    {
      "channel": 2,
      "note": 66,
      "start": 24.2132,
      "duration": 0.2126,
      "velocity": 127,
      "chip": "ym2612"
    },
    {
      "channel": 0,
      "note": 69,
      "start": 24.3005,
      "duration": 0.089,
      "velocity": 105,
      "chip": "ym2612"
    },
    {
      "channel": 0,
      "note": 69,
      "start": 24.3898,
      "duration": 0.0355,
      "velocity": 105,
      "chip": "ym2612"
    },
    {
      "channel": 0,
      "note": 70,
      "start": 24.4255,
      "duration": 0.089,
      "velocity": 105,
      "chip": "ym2612"
    },
    {
      "channel": 1,
      "note": 55,
      "start": 24.4258,
      "duration": 0.1602,
      "velocity": 87,
      "chip": "ym2612"
    },
    {
      "channel": 2,
      "note": 44,
      "start": 24.4275,
      "duration": 0.1049,
      "velocity": 127,
      "chip": "ym2612"
    },
    {
      "channel": 3,
      "note": 79,
      "start": 24.4278,
      "duration": 0.2137,
      "velocity": 102,
      "chip": "ym2612"
    },
    {
      "channel": 5,
      "note": 74,
      "start": 24.4284,
      "duration": 0.2132,
      "velocity": 102,
      "chip": "ym2612"
    },
    {
      "channel": 0,
      "note": 70,
      "start": 24.5148,
      "duration": 0.089,
      "velocity": 105,
      "chip": "ym2612"
    },
    {
      "channel": 2,
      "note": 75,
      "start": 24.5341,
      "duration": 0.1057,
      "velocity": 127,
      "chip": "ym2612"
    },
    {
      "channel": 0,
      "note": 70,
      "start": 24.6041,
      "duration": 0.089,
      "velocity": 105,
      "chip": "ym2612"
    },
    {
      "channel": 1,
      "note": 67,
      "start": 24.6398,
      "duration": 0.1605,
      "velocity": 87,
      "chip": "ym2612"
    },
    {
      "channel": 2,
      "note": 66,
      "start": 24.6415,
      "duration": 0.2126,
      "velocity": 127,
      "chip": "ym2612"
    },
    {
      "channel": 0,
      "note": 70,
      "start": 24.6934,
      "duration": 0.0533,
      "velocity": 105,
      "chip": "ym2612"
    },
    {
      "channel": 0,
      "note": 67,
      "start": 24.7469,
      "duration": 0.089,
      "velocity": 105,
      "chip": "ym2612"
    },
    {
      "channel": 0,
      "note": 67,
      "start": 24.8362,
      "duration": 0.089,
      "velocity": 105,
      "chip": "ym2612"
    },
    {
      "channel": 1,
      "note": 55,
      "start": 24.854,
      "duration": 0.1605,
      "velocity": 87,
      "chip": "ym2612"
    },
    {
      "channel": 2,
      "note": 44,
      "start": 24.8558,
      "duration": 0.1055,
      "velocity": 127,
      "chip": "ym2612"
    },
    {
      "channel": 3,
      "note": 79,
      "start": 24.8561,
      "duration": 0.2146,
      "velocity": 102,
      "chip": "ym2612"
    },
    {
      "channel": 4,
      "note": 55,
      "start": 24.8563,
      "duration": 0.2144,
      "velocity": 98,
      "chip": "ym2612"
    },
    {
      "channel": 5,
      "note": 74,
      "start": 24.8566,
      "duration": 0.2144,
      "velocity": 102,
      "chip": "ym2612"
    },
    {
      "channel": 0,
      "note": 67,
      "start": 24.9255,
      "duration": 0.0355,
      "velocity": 105,
      "chip": "ym2612"
    },
    {
      "channel": 0,
      "note": 67,
      "start": 24.9612,
      "duration": 0.089,
      "velocity": 105,
      "chip": "ym2612"
    },
    {
      "channel": 2,
      "note": 75,
      "start": 24.9629,
      "duration": 0.106,
      "velocity": 127,
      "chip": "ym2612"
    },
    {
      "channel": 0,
      "note": 67,
      "start": 25.0505,
      "duration": 0.0176,
      "velocity": 105,
      "chip": "ym2612"
    },
    {
      "channel": 0,
      "note": 69,
      "start": 25.0686,
      "duration": 0.0888,
      "velocity": 105,
      "chip": "ym2612"
    },
    {
      "channel": 1,
      "note": 67,
      "start": 25.0689,
      "duration": 0.16,
      "velocity": 87,
      "chip": "ym2612"
    },
    {
      "channel": 2,
      "note": 66,
      "start": 25.0706,
      "duration": 0.2123,
      "velocity": 127,
      "chip": "ym2612"
    },
    {
      "channel": 4,
      "note": 57,
      "start": 25.0709,
      "duration": 0.214,
      "velocity": 98,
      "chip": "ym2612"
    },
    {
      "channel": 0,
      "note": 69,
      "start": 25.1576,
      "duration": 0.089,
      "velocity": 105,
      "chip": "ym2612"
    },
    {
      "channel": 0,
      "note": 69,
      "start": 25.2469,
      "duration": 0.0355,
      "velocity": 105,
      "chip": "ym2612"
    },
    {
      "channel": 0,
      "note": 70,
      "start": 25.2826,
      "duration": 0.089,
      "velocity": 105,
      "chip": "ym2612"
    },
    {
      "channel": 1,
      "note": 55,
      "start": 25.2829,
      "duration": 0.1602,
      "velocity": 87,
      "chip": "ym2612"
    },
    {
      "channel": 2,
      "note": 44,
      "start": 25.2846,
      "duration": 0.1049,
      "velocity": 127,
      "chip": "ym2612"
    },
    {
      "channel": 3,
      "note": 79,
      "start": 25.2849,
      "duration": 0.214,
      "velocity": 102,
      "chip": "ym2612"
    },
    {
      "channel": 4,
      "note": 58,
      "start": 25.2852,
      "duration": 0.214,
      "velocity": 98,
      "chip": "ym2612"
    },
    {
      "channel": 5,
      "note": 74,
      "start": 25.2855,
      "duration": 0.214,
      "velocity": 102,
      "chip": "ym2612"
    },
    {
      "channel": 0,
      "note": 70,
      "start": 25.3719,
      "duration": 0.089,
      "velocity": 105,
      "chip": "ym2612"
    },
    {
      "channel": 2,
      "note": 75,
      "start": 25.3912,
      "duration": 0.1057,
      "velocity": 127,
      "chip": "ym2612"
    },
    {
      "channel": 0,
      "note": 70,
      "start": 25.4612,
      "duration": 0.089,
      "velocity": 105,
      "chip": "ym2612"
    },
    {
      "channel": 1,
      "note": 67,
      "start": 25.4968,
      "duration": 0.1605,
      "velocity": 87,
      "chip": "ym2612"
    },
    {
      "channel": 2,
      "note": 66,
      "start": 25.4988,
      "duration": 0.2127,
      "velocity": 127,
      "chip": "ym2612"
    },
    {
      "channel": 3,
      "note": 79,
      "start": 25.4991,
      "duration": 0.214,
      "velocity": 102,
      "chip": "ym2612"
    },
    {
      "channel": 4,
      "note": 62,
      "start": 25.4994,
      "duration": 0.6412,
      "velocity": 98,
      "chip": "ym2612"
    },
    {
      "channel": 5,
      "note": 74,
      "start": 25.4998,
      "duration": 0.2138,
      "velocity": 102,
      "chip": "ym2612"
    },
    {
      "channel": 0,
      "note": 70,
      "start": 25.5505,
      "duration": 0.089,
      "velocity": 105,
      "chip": "ym2612"
    },
    {
      "channel": 0,
      "note": 70,
      "start": 25.6397,
      "duration": 0.0712,
      "velocity": 105,
      "chip": "ym2612"
    },
    {
      "channel": 0,
      "note": 67,
      "start": 25.7112,
      "duration": 0.089,
      "velocity": 105,
      "chip": "ym2612"
    },
    {
      "channel": 1,
      "note": 51,
      "start": 25.7114,
      "duration": 0.1602,
      "velocity": 87,
      "chip": "ym2612"
    },
    {
      "channel": 2,
      "note": 45,
      "start": 25.7131,
      "duration": 0.1049,
      "velocity": 127,
      "chip": "ym2612"
    },
    {
      "channel": 3,
      "note": 75,
      "start": 25.7135,
      "duration": 0.2125,
      "velocity": 102,
      "chip": "ym2612"
    },
    {
      "channel": 5,
      "note": 70,
      "start": 25.7139,
      "duration": 0.2123,
      "velocity": 102,
      "chip": "ym2612"
    },
    {
      "channel": 0,
      "note": 67,
      "start": 25.8004,
      "duration": 0.089,
      "velocity": 105,
      "chip": "ym2612"
    },
    {
      "channel": 2,
      "note": 45,
      "start": 25.8185,
      "duration": 0.1072,
      "velocity": 127,
      "chip": "ym2612"
    },
    {
      "channel": 0,
      "note": 67,
      "start": 25.8897,
      "duration": 0.0355,
      "velocity": 105,
      "chip": "ym2612"
    },
    {
      "channel": 0,
      "note": 69,
      "start": 25.9254,
      "duration": 0.089,
      "velocity": 105,
      "chip": "ym2612"
    },
    {
      "channel": 1,
      "note": 63,
      "start": 25.9257,
      "duration": 0.1602,
      "velocity": 87,
      "chip": "ym2612"
    },
    {
      "channel": 2,
      "note": 45,
      "start": 25.926,
      "duration": 0.1064,
      "velocity": 127,
      "chip": "ym2612"
    },
    {
      "channel": 0,
      "note": 69,
      "start": 26.0147,
      "duration": 0.089,
      "velocity": 105,
      "chip": "ym2612"
    },
    {
      "channel": 2,
      "note": 45,
      "start": 26.0326,
      "duration": 0.1074,
      "velocity": 127,
      "chip": "ym2612"
    },
    {
      "channel": 0,
      "note": 69,
      "start": 26.104,
      "duration": 0.0355,
      "velocity": 105,
      "chip": "ym2612"
    },
    {
      "channel": 0,
      "note": 70,
      "start": 26.1397,
      "duration": 0.089,
      "velocity": 105,
      "chip": "ym2612"
    },
    {
      "channel": 1,
      "note": 51,
      "start": 26.14,
      "duration": 0.1602,
      "velocity": 87,
      "chip": "ym2612"
    },
    {
      "channel": 2,
      "note": 45,
      "start": 26.1402,
      "duration": 0.1064,
      "velocity": 127,
      "chip": "ym2612"
    },
    {
      "channel": 3,
      "note": 75,
      "start": 26.1405,
      "duration": 0.2135,
      "velocity": 102,
      "chip": "ym2612"
    },
    {
      "channel": 4,
      "note": 60,
      "start": 26.1408,
      "duration": 0.4281,
      "velocity": 98,
      "chip": "ym2612"
    },
    {
      "channel": 5,
      "note": 70,
      "start": 26.1411,
      "duration": 0.2131,
      "velocity": 102,
      "chip": "ym2612"
    },
    {
      "channel": 0,
      "note": 70,
      "start": 26.229,
      "duration": 0.089,
      "velocity": 105,
      "chip": "ym2612"
    },
    {
      "channel": 2,
      "note": 45,
      "start": 26.2468,
      "duration": 0.1071,
      "velocity": 127,
      "chip": "ym2612"
    },
    {
      "channel": 0,
      "note": 70,
      "start": 26.3185,
      "duration": 0.0888,
      "velocity": 105,
      "chip": "ym2612"
    },
    {
      "channel": 1,
      "note": 63,
      "start": 26.3539,
      "duration": 0.1605,
      "velocity": 87,
      "chip": "ym2612"
    },
    {
      "channel": 0,
      "note": 70,
      "start": 26.4076,
      "duration": 0.0533,
      "velocity": 105,
      "chip": "ym2612"
    },
    {
      "channel": 0,
      "note": 72,
      "start": 26.4611,
      "duration": 0.089,
      "velocity": 105,
      "chip": "ym2612"
    },
    {
      "channel": 2,
      "note": 45,
      "start": 26.4614,
      "duration": 0.1072,
      "velocity": 127,
      "chip": "ym2612"
    },
    {
      "channel": 0,
      "note": 72,
      "start": 26.5504,
      "duration": 0.089,
      "velocity": 105,
      "chip": "ym2612"
    },
    {
      "channel": 1,
      "note": 53,
      "start": 26.5685,
      "duration": 0.1602,
      "velocity": 87,
      "chip": "ym2612"
    },
    {
      "channel": 3,
      "note": 77,
      "start": 26.5689,
      "duration": 0.2142,
      "velocity": 102,
      "chip": "ym2612"
    },
    {
      "channel": 4,
      "note": 58,
      "start": 26.5691,
      "duration": 0.4283,
      "velocity": 98,
      "chip": "ym2612"
    },
    {
      "channel": 5,
      "note": 72,
      "start": 26.5694,
      "duration": 0.2138,
      "velocity": 102,
      "chip": "ym2612"
    },
    {
      "channel": 0,
      "note": 72,
      "start": 26.6397,
      "duration": 0.0355,
      "velocity": 105,
      "chip": "ym2612"
    },
    {
      "channel": 0,
      "note": 72,
      "start": 26.6754,
      "duration": 0.089,
      "velocity": 105,
      "chip": "ym2612"
    },
    {
      "channel": 2,
      "note": 45,
      "start": 26.6756,
      "duration": 0.1072,
      "velocity": 127,
      "chip": "ym2612"
    },
    {
      "channel": 0,
      "note": 72,
      "start": 26.7647,
      "duration": 0.0176,
      "velocity": 105,
      "chip": "ym2612"
    },
    {
      "channel": 0,
      "note": 70,
      "start": 26.7825,
      "duration": 0.089,
      "velocity": 105,
      "chip": "ym2612"
    },
    {
      "channel": 1,
      "note": 65,
      "start": 26.7828,
      "duration": 0.1602,
      "velocity": 87,
      "chip": "ym2612"
    },
    {
      "channel": 2,
      "note": 45,
      "start": 26.783,
      "duration": 0.1064,
      "velocity": 127,
      "chip": "ym2612"
    },
    {
      "channel": 0,
      "note": 70,
      "start": 26.8718,
      "duration": 0.089,
      "velocity": 105,
      "chip": "ym2612"
    },
    {
      "channel": 2,
      "note": 45,
      "start": 26.8897,
      "duration": 0.1074,
      "velocity": 127,
      "chip": "ym2612"
    },
    {
      "channel": 0,
      "note": 70,
      "start": 26.9611,
      "duration": 0.0355,
      "velocity": 105,
      "chip": "ym2612"
    },
    {
      "channel": 0,
      "note": 69,
      "start": 26.9968,
      "duration": 0.089,
      "velocity": 105,
      "chip": "ym2612"
    },
    {
      "channel": 1,
      "note": 53,
      "start": 26.997,
      "duration": 0.1602,
      "velocity": 87,
      "chip": "ym2612"
    },
    {
      "channel": 3,
      "note": 77,
      "start": 26.9974,
      "duration": 0.2142,
      "velocity": 102,
      "chip": "ym2612"
    },
    {
      "channel": 4,
      "note": 60,
      "start": 26.9977,
      "duration": 0.4326,
      "velocity": 98,
      "chip": "ym2612"
    },
    {
      "channel": 5,
      "note": 72,
      "start": 26.998,
      "duration": 0.2138,
      "velocity": 102,
      "chip": "ym2612"
    },
    {
      "channel": 0,
      "note": 69,
      "start": 27.0861,
      "duration": 0.089,
      "velocity": 105,
      "chip": "ym2612"
    },
    {
      "channel": 2,
      "note": 45,
      "start": 27.1039,
      "duration": 0.1075,
      "velocity": 127,
      "chip": "ym2612"
    },
    {
      "channel": 0,
      "note": 69,
      "start": 27.1754,
      "duration": 0.0355,
      "velocity": 105,
      "chip": "ym2612"
    },
    {
      "channel": 0,
      "note": 65,
      "start": 27.2111,
      "duration": 0.089,
      "velocity": 105,
      "chip": "ym2612"
    },
    {
      "channel": 1,
      "note": 65,
      "start": 27.2113,
      "duration": 0.1602,
      "velocity": 87,
      "chip": "ym2612"
    },
    {
      "channel": 2,
      "note": 45,
      "start": 27.2116,
      "duration": 0.1064,
      "velocity": 127,
      "chip": "ym2612"
    },
    {
      "channel": 0,
      "note": 65,
      "start": 27.3003,
      "duration": 0.089,
      "velocity": 105,
      "chip": "ym2612"
    },
    {
      "channel": 2,
      "note": 45,
      "start": 27.3185,
      "duration": 0.1084,
      "velocity": 127,
      "chip": "ym2612"
    },
    {
      "channel": 0,
      "note": 65,
      "start": 27.3896,
      "duration": 0.0355,
      "velocity": 105,
      "chip": "ym2612"
    },
    {
      "channel": 1,
      "note": 46,
      "start": 27.4268,
      "duration": 0.159,
      "velocity": 87,
      "chip": "ym2612"
    },
    {
      "channel": 2,
      "note": 44,
      "start": 27.4288,
      "duration": 0.1035,
      "velocity": 127,
      "chip": "ym2612"
    },
    {
      "channel": 4,
      "note": 62,
      "start": 27.4305,
      "duration": 1.0682,
      "velocity": 98,
      "chip": "ym2612"
    },
    {
      "channel": 2,
      "note": 75,
      "start": 27.5339,
      "duration": 0.1057,
      "velocity": 127,
      "chip": "ym2612"
    },
    {
      "channel": 1,
      "note": 58,
      "start": 27.6396,
      "duration": 0.1605,
      "velocity": 87,
      "chip": "ym2612"
    },
    {
      "channel": 2,
      "note": 66,
      "start": 27.6413,
      "duration": 0.2129,
      "velocity": 127,
      "chip": "ym2612"
    },
    {
      "channel": 5,
      "note": 62,
      "start": 27.7468,
      "duration": 1.0732,
      "velocity": 98,
      "chip": "ym2612"
    },
    {
      "channel": 0,
      "note": 53,
      "start": 27.8538,
      "duration": 0.4283,
      "velocity": 89,
      "chip": "ym2612"
    },
    {
      "channel": 1,
      "note": 46,
      "start": 27.8541,
      "duration": 0.1603,
      "velocity": 87,
      "chip": "ym2612"
    },
    {
      "channel": 2,
      "note": 44,
      "start": 27.8558,
      "duration": 0.105,
      "velocity": 127,
      "chip": "ym2612"
    },
    {
      "channel": 3,
      "note": 50,
      "start": 27.8561,
      "duration": 0.4284,
      "velocity": 89,
      "chip": "ym2612"
    },
    {
      "channel": 2,
      "note": 75,
      "start": 27.9624,
      "duration": 0.1057,
      "velocity": 127,
      "chip": "ym2612"
    },
    {
      "channel": 1,
      "note": 58,
      "start": 28.0681,
      "duration": 0.1605,
      "velocity": 87,
      "chip": "ym2612"
    },
    {
      "channel": 2,
      "note": 66,
      "start": 28.0701,
      "duration": 0.2127,
      "velocity": 127,
      "chip": "ym2612"
    },
    {
      "channel": 0,
      "note": 58,
      "start": 28.2824,
      "duration": 0.4283,
      "velocity": 89,
      "chip": "ym2612"
    },
    {
      "channel": 1,
      "note": 46,
      "start": 28.2827,
      "duration": 0.1602,
      "velocity": 87,
      "chip": "ym2612"
    },
    {
      "channel": 2,
      "note": 44,
      "start": 28.2844,
      "duration": 0.1049,
      "velocity": 127,
      "chip": "ym2612"
    },
    {
      "channel": 3,
      "note": 53,
      "start": 28.2847,
      "duration": 0.4283,
      "velocity": 89,
      "chip": "ym2612"
    },
    {
      "channel": 2,
      "note": 75,
      "start": 28.391,
      "duration": 0.1057,
      "velocity": 127,
      "chip": "ym2612"
    },
    {
      "channel": 1,
      "note": 58,
      "start": 28.4967,
      "duration": 0.1605,
      "velocity": 87,
      "chip": "ym2612"
    },
    {
      "channel": 2,
      "note": 66,
      "start": 28.4986,
      "duration": 0.2127,
      "velocity": 127,
      "chip": "ym2612"
    },
    {
      "channel": 4,
      "note": 53,
      "start": 28.4989,
      "duration": 0.2144,
      "velocity": 98,
      "chip": "ym2612"
    },
    {
      "channel": 0,
      "note": 67,
      "start": 28.711,
      "duration": 0.4283,
      "velocity": 89,
      "chip": "ym2612"
    },
    {
      "channel": 1,
      "note": 46,
      "start": 28.7112,
      "duration": 0.1602,
      "velocity": 87,
      "chip": "ym2612"
    },
    {
      "channel": 2,
      "note": 44,
      "start": 28.7129,
      "duration": 0.1049,
      "velocity": 127,
      "chip": "ym2612"
    },
    {
      "channel": 3,
      "note": 63,
      "start": 28.7132,
      "duration": 0.4283,
      "velocity": 89,
      "chip": "ym2612"
    },
    {
      "channel": 4,
      "note": 58,
      "start": 28.7135,
      "duration": 0.2134,
      "velocity": 98,
      "chip": "ym2612"
    },
    {
      "channel": 2,
      "note": 75,
      "start": 28.8198,
      "duration": 0.1054,
      "velocity": 127,
      "chip": "ym2612"
    },
    {
      "channel": 5,
      "note": 53,
      "start": 28.8202,
      "duration": 0.2121,
      "velocity": 98,
      "chip": "ym2612"
    },
    {
      "channel": 1,
      "note": 58,
      "start": 28.9252,
      "duration": 0.1605,
      "velocity": 87,
      "chip": "ym2612"
    },
    {
      "channel": 2,
      "note": 66,
      "start": 28.9269,
      "duration": 0.2129,
      "velocity": 127,
      "chip": "ym2612"
    },
    {
      "channel": 4,
      "note": 62,
      "start": 28.9272,
      "duration": 0.2146,
      "velocity": 98,
      "chip": "ym2612"
    },
    {
      "channel": 5,
      "note": 58,
      "start": 29.0325,
      "duration": 0.216,
      "velocity": 98,
      "chip": "ym2612"
    },
    {
      "channel": 0,
      "note": 65,
      "start": 29.1395,
      "duration": 0.8568,
      "velocity": 89,
      "chip": "ym2612"
    },
    {
      "channel": 1,
      "note": 50,
      "start": 29.1398,
      "duration": 0.1602,
      "velocity": 87,
      "chip": "ym2612"
    },
    {
      "channel": 2,
      "note": 44,
      "start": 29.1415,
      "duration": 0.1049,
      "velocity": 127,
      "chip": "ym2612"
    },
    {
      "channel": 3,
      "note": 62,
      "start": 29.1418,
      "duration": 0.8571,
      "velocity": 89,
      "chip": "ym2612"
    },
    {
      "channel": 4,
      "note": 63,
      "start": 29.1421,
      "duration": 0.428,
      "velocity": 98,
      "chip": "ym2612"
    },
    {
      "channel": 2,
      "note": 75,
      "start": 29.2481,
      "duration": 0.1057,
      "velocity": 127,
      "chip": "ym2612"
    },
    {
      "channel": 5,
      "note": 62,
      "start": 29.2487,
      "duration": 0.2121,
      "velocity": 98,
      "chip": "ym2612"
    },
    {
      "channel": 1,
      "note": 62,
      "start": 29.3537,
      "duration": 0.1605,
      "velocity": 87,
      "chip": "ym2612"
    },
    {
      "channel": 2,
      "note": 66,
      "start": 29.3554,
      "duration": 0.2126,
      "velocity": 127,
      "chip": "ym2612"
    },
    {
      "channel": 5,
      "note": 63,
      "start": 29.461,
      "duration": 0.4283,
      "velocity": 98,
      "chip": "ym2612"
    },
    {
      "channel": 1,
      "note": 50,
      "start": 29.568,
      "duration": 0.1605,
      "velocity": 87,
      "chip": "ym2612"
    },
    {
      "channel": 2,
      "note": 44,
      "start": 29.57,
      "duration": 0.1049,
      "velocity": 127,
      "chip": "ym2612"
    },
    {
      "channel": 4,
      "note": 62,
      "start": 29.5703,
      "duration": 0.4288,
      "velocity": 98,
      "chip": "ym2612"
    },
    {
      "channel": 2,
      "note": 75,
      "start": 29.6766,
      "duration": 0.1057,
      "velocity": 127,
      "chip": "ym2612"
    },
    {
      "channel": 1,
      "note": 62,
      "start": 29.7823,
      "duration": 0.1605,
      "velocity": 87,
      "chip": "ym2612"
    },
    {
      "channel": 2,
      "note": 66,
      "start": 29.784,
      "duration": 0.2129,
      "velocity": 127,
      "chip": "ym2612"
    },
    {
      "channel": 5,
      "note": 62,
      "start": 29.8896,
      "duration": 0.4283,
      "velocity": 98,
      "chip": "ym2612"
    },
    {
      "channel": 0,
      "note": 69,
      "start": 29.9966,
      "duration": 0.8568,
      "velocity": 89,
      "chip": "ym2612"
    },
    {
      "channel": 1,
      "note": 50,
      "start": 29.9968,
      "duration": 0.1602,
      "velocity": 87,
      "chip": "ym2612"
    },
    {
      "channel": 2,
      "note": 44,
      "start": 29.9988,
      "duration": 0.1047,
      "velocity": 127,
      "chip": "ym2612"
    },
    {
      "channel": 3,
      "note": 65,
      "start": 29.9991,
      "duration": 0.8566,
      "velocity": 89,
      "chip": "ym2612"
    },
    {
      "channel": 4,
      "note": 60,
      "start": 29.9994,
      "duration": 0.4275,
      "velocity": 98,
      "chip": "ym2612"
    },
    {
      "channel": 2,
      "note": 75,
      "start": 30.1052,
      "duration": 0.1057,
      "velocity": 127,
      "chip": "ym2612"
    },
    {
      "channel": 1,
      "note": 62,
      "start": 30.2108,
      "duration": 0.1605,
      "velocity": 87,
      "chip": "ym2612"
    },
    {
      "channel": 2,
      "note": 66,
      "start": 30.2125,
      "duration": 0.2126,
      "velocity": 127,
      "chip": "ym2612"
    },
    {
      "channel": 5,
      "note": 60,
      "start": 30.3181,
      "duration": 0.4283,
      "velocity": 98,
      "chip": "ym2612"
    },
    {
      "channel": 1,
      "note": 50,
      "start": 30.4251,
      "duration": 0.1605,
      "velocity": 87,
      "chip": "ym2612"
    },
    {
      "channel": 2,
      "note": 44,
      "start": 30.4268,
      "duration": 0.1052,
      "velocity": 127,
      "chip": "ym2612"
    },
    {
      "channel": 4,
      "note": 62,
      "start": 30.4271,
      "duration": 0.4289,
      "velocity": 98,
      "chip": "ym2612"
    },
    {
      "channel": 2,
      "note": 75,
      "start": 30.5337,
      "duration": 0.1057,
      "velocity": 127,
      "chip": "ym2612"
    },
    {
      "channel": 1,
      "note": 62,
      "start": 30.6394,
      "duration": 0.1605,
      "velocity": 87,
      "chip": "ym2612"
    },
    {
      "channel": 2,
      "note": 66,
      "start": 30.6411,
      "duration": 0.2129,
      "velocity": 127,
      "chip": "ym2612"
    },
    {
      "channel": 5,
      "note": 62,
      "start": 30.7467,
      "duration": 0.4283,
      "velocity": 98,
      "chip": "ym2612"
    },
    {
      "channel": 0,
      "note": 70,
      "start": 30.8537,
      "duration": 1.7139,
      "velocity": 89,
      "chip": "ym2612"
    },
    {
      "channel": 1,
      "note": 51,
      "start": 30.8539,
      "duration": 0.1602,
      "velocity": 87,
      "chip": "ym2612"
    },
    {
      "channel": 2,
      "note": 44,
      "start": 30.8557,
      "duration": 0.1049,
      "velocity": 127,
      "chip": "ym2612"
    },
    {
      "channel": 3,
      "note": 67,
      "start": 30.856,
      "duration": 1.7142,
      "velocity": 89,
      "chip": "ym2612"
    },
    {
      "channel": 4,
      "note": 58,
      "start": 30.8562,
      "duration": 1.0705,
      "velocity": 98,
      "chip": "ym2612"
    },
    {
      "channel": 2,
      "note": 75,
      "start": 30.9622,
      "duration": 0.1057,
      "velocity": 127,
      "chip": "ym2612"
    },
    {
      "channel": 1,
      "note": 63,
      "start": 31.0679,
      "duration": 0.1606,
      "velocity": 87,
      "chip": "ym2612"
    },
    {
      "channel": 2,
      "note": 66,
      "start": 31.0699,
      "duration": 0.2123,
      "velocity": 127,
      "chip": "ym2612"
    },
    {
      "channel": 5,
      "note": 58,
      "start": 31.1752,
      "duration": 1.0728,
      "velocity": 98,
      "chip": "ym2612"
    },
    {
      "channel": 1,
      "note": 51,
      "start": 31.2822,
      "duration": 0.1605,
      "velocity": 87,
      "chip": "ym2612"
    },
    {
      "channel": 2,
      "note": 44,
      "start": 31.2839,
      "duration": 0.1052,
      "velocity": 127,
      "chip": "ym2612"
    },
    {
      "channel": 2,
      "note": 75,
      "start": 31.3908,
      "duration": 0.1057,
      "velocity": 127,
      "chip": "ym2612"
    },
    {
      "channel": 1,
      "note": 63,
      "start": 31.4965,
      "duration": 0.1605,
      "velocity": 87,
      "chip": "ym2612"
    },
    {
      "channel": 2,
      "note": 66,
      "start": 31.4984,
      "duration": 0.2124,
      "velocity": 127,
      "chip": "ym2612"
    },
    {
      "channel": 1,
      "note": 51,
      "start": 31.7107,
      "duration": 0.1605,
      "velocity": 87,
      "chip": "ym2612"
    },
    {
      "channel": 2,
      "note": 44,
      "start": 31.7125,
      "duration": 0.1052,
      "velocity": 127,
      "chip": "ym2612"
    },
    {
      "channel": 2,
      "note": 75,
      "start": 31.8196,
      "duration": 0.1055,
      "velocity": 127,
      "chip": "ym2612"
    },
    {
      "channel": 1,
      "note": 63,
      "start": 31.925,
      "duration": 0.1605,
      "velocity": 87,
      "chip": "ym2612"
    },
    {
      "channel": 2,
      "note": 66,
      "start": 31.9267,
      "duration": 0.2126,
      "velocity": 127,
      "chip": "ym2612"
    },
    {
      "channel": 4,
      "note": 55,
      "start": 31.927,
      "duration": 0.2141,
      "velocity": 98,
      "chip": "ym2612"
    },
    {
      "channel": 1,
      "note": 51,
      "start": 32.1393,
      "duration": 0.1605,
      "velocity": 87,
      "chip": "ym2612"
    },
    {
      "channel": 2,
      "note": 44,
      "start": 32.141,
      "duration": 0.1052,
      "velocity": 127,
      "chip": "ym2612"
    },
    {
      "channel": 4,
      "note": 57,
      "start": 32.1413,
      "duration": 0.214,
      "velocity": 98,
      "chip": "ym2612"
    },
    {
      "channel": 2,
      "note": 75,
      "start": 32.2479,
      "duration": 0.1057,
      "velocity": 127,
      "chip": "ym2612"
    },
    {
      "channel": 5,
      "note": 55,
      "start": 32.2485,
      "duration": 0.2121,
      "velocity": 98,
      "chip": "ym2612"
    },
    {
      "channel": 1,
      "note": 63,
      "start": 32.3536,
      "duration": 0.1605,
      "velocity": 87,
      "chip": "ym2612"
    },
    {
      "channel": 2,
      "note": 66,
      "start": 32.3553,
      "duration": 0.2129,
      "velocity": 127,
      "chip": "ym2612"
    },
    {
      "channel": 4,
      "note": 58,
      "start": 32.3556,
      "duration": 0.2149,
      "velocity": 98,
      "chip": "ym2612"
    },
    {
      "channel": 5,
      "note": 57,
      "start": 32.4608,
      "duration": 0.2157,
      "velocity": 98,
      "chip": "ym2612"
    },
    {
      "channel": 0,
      "note": 72,
      "start": 32.5679,
      "duration": 1.7139,
      "velocity": 89,
      "chip": "ym2612"
    },
    {
      "channel": 1,
      "note": 53,
      "start": 32.5681,
      "duration": 0.1604,
      "velocity": 87,
      "chip": "ym2612"
    },
    {
      "channel": 2,
      "note": 44,
      "start": 32.5701,
      "duration": 0.1047,
      "velocity": 127,
      "chip": "ym2612"
    },
    {
      "channel": 3,
      "note": 69,
      "start": 32.5704,
      "duration": 1.7149,
      "velocity": 89,
      "chip": "ym2612"
    },
    {
      "channel": 4,
      "note": 62,
      "start": 32.5707,
      "duration": 0.4275,
      "velocity": 98,
      "chip": "ym2612"
    },
    {
      "channel": 2,
      "note": 75,
      "start": 32.6764,
      "duration": 0.1057,
      "velocity": 127,
      "chip": "ym2612"
    },
    {
      "channel": 5,
      "note": 58,
      "start": 32.6768,
      "duration": 0.2123,
      "velocity": 98,
      "chip": "ym2612"
    },
    {
      "channel": 1,
      "note": 65,
      "start": 32.7821,
      "duration": 0.1605,
      "velocity": 87,
      "chip": "ym2612"
    },
    {
      "channel": 2,
      "note": 66,
      "start": 32.7838,
      "duration": 0.2126,
      "velocity": 127,
      "chip": "ym2612"
    },
    {
      "channel": 5,
      "note": 62,
      "start": 32.8894,
      "duration": 0.4283,
      "velocity": 98,
      "chip": "ym2612"
    },
    {
      "channel": 1,
      "note": 53,
      "start": 32.9964,
      "duration": 0.1605,
      "velocity": 87,
      "chip": "ym2612"
    },
    {
      "channel": 2,
      "note": 44,
      "start": 32.9981,
      "duration": 0.1052,
      "velocity": 127,
      "chip": "ym2612"
    },
    {
      "channel": 4,
      "note": 60,
      "start": 32.9986,
      "duration": 0.428,
      "velocity": 98,
      "chip": "ym2612"
    },
    {
      "channel": 2,
      "note": 75,
      "start": 33.105,
      "duration": 0.1057,
      "velocity": 127,
      "chip": "ym2612"
    },
    {
      "channel": 1,
      "note": 65,
      "start": 33.2106,
      "duration": 0.1605,
      "velocity": 87,
      "chip": "ym2612"
    },
    {
      "channel": 2,
      "note": 66,
      "start": 33.2124,
      "duration": 0.2126,
      "velocity": 127,
      "chip": "ym2612"
    },
    {
      "channel": 5,
      "note": 60,
      "start": 33.3179,
      "duration": 0.4283,
      "velocity": 98,
      "chip": "ym2612"
    },
    {
      "channel": 1,
      "note": 53,
      "start": 33.4249,
      "duration": 0.1605,
      "velocity": 87,
      "chip": "ym2612"
    },
    {
      "channel": 2,
      "note": 44,
      "start": 33.4266,
      "duration": 0.1052,
      "velocity": 127,
      "chip": "ym2612"
    },
    {
      "channel": 4,
      "note": 62,
      "start": 33.4269,
      "duration": 0.4283,
      "velocity": 98,
      "chip": "ym2612"
    },
    {
      "channel": 2,
      "note": 75,
      "start": 33.5335,
      "duration": 0.1057,
      "velocity": 127,
      "chip": "ym2612"
    },
    {
      "channel": 1,
      "note": 65,
      "start": 33.6392,
      "duration": 0.1605,
      "velocity": 87,
      "chip": "ym2612"
    },
    {
      "channel": 2,
      "note": 66,
      "start": 33.6409,
      "duration": 0.2126,
      "velocity": 127,
      "chip": "ym2612"
    },
    {
      "channel": 5,
      "note": 62,
      "start": 33.7465,
      "duration": 0.4283,
      "velocity": 98,
      "chip": "ym2612"
    },
    {
      "channel": 1,
      "note": 53,
      "start": 33.8535,
      "duration": 0.1605,
      "velocity": 87,
      "chip": "ym2612"
    },
    {
      "channel": 2,
      "note": 44,
      "start": 33.8552,
      "duration": 0.1052,
      "velocity": 127,
      "chip": "ym2612"
    },
    {
      "channel": 4,
      "note": 63,
      "start": 33.8555,
      "duration": 0.4312,
      "velocity": 98,
      "chip": "ym2612"
    },
    {
      "channel": 2,
      "note": 75,
      "start": 33.9621,
      "duration": 0.1057,
      "velocity": 127,
      "chip": "ym2612"
    },
    {
      "channel": 1,
      "note": 65,
      "start": 34.0677,
      "duration": 0.1607,
      "velocity": 87,
      "chip": "ym2612"
    },
    {
      "channel": 2,
      "note": 66,
      "start": 34.0697,
      "duration": 0.2138,
      "velocity": 127,
      "chip": "ym2612"
    },
    {
      "channel": 5,
      "note": 63,
      "start": 34.175,
      "duration": 0.4283,
      "velocity": 98,
      "chip": "ym2612"
    },
    {
      "channel": 1,
      "note": 46,
      "start": 34.2835,
      "duration": 0.159,
      "velocity": 87,
      "chip": "ym2612"
    },
    {
      "channel": 2,
      "note": 44,
      "start": 34.2852,
      "duration": 0.1038,
      "velocity": 127,
      "chip": "ym2612"
    },
    {
      "channel": 4,
      "note": 62,
      "start": 34.287,
      "duration": 1.0682,
      "velocity": 98,
      "chip": "ym2612"
    },
    {
      "channel": 2,
      "note": 75,
      "start": 34.3906,
      "duration": 0.1057,
      "velocity": 127,
      "chip": "ym2612"
    },
    {
      "channel": 1,
      "note": 58,
      "start": 34.4963,
      "duration": 0.1605,
      "velocity": 87,
      "chip": "ym2612"
    },
    {
      "channel": 2,
      "note": 66,
      "start": 34.498,
      "duration": 0.2129,
      "velocity": 127,
      "chip": "ym2612"
    },
    {
      "channel": 5,
      "note": 62,
      "start": 34.6036,
      "duration": 1.0728,
      "velocity": 98,
      "chip": "ym2612"
    },
    {
      "channel": 0,
      "note": 53,
      "start": 34.7105,
      "duration": 0.4284,
      "velocity": 89,
      "chip": "ym2612"
    },
    {
      "channel": 1,
      "note": 46,
      "start": 34.7108,
      "duration": 0.1602,
      "velocity": 87,
      "chip": "ym2612"
    },
    {
      "channel": 2,
      "note": 44,
      "start": 34.7125,
      "duration": 0.105,
      "velocity": 127,
      "chip": "ym2612"
    },
    {
      "channel": 3,
      "note": 50,
      "start": 34.7128,
      "duration": 0.4284,
      "velocity": 89,
      "chip": "ym2612"
    },
    {
      "channel": 2,
      "note": 75,
      "start": 34.8194,
      "duration": 0.1054,
      "velocity": 127,
      "chip": "ym2612"
    },
    {
      "channel": 1,
      "note": 58,
      "start": 34.9248,
      "duration": 0.1605,
      "velocity": 87,
      "chip": "ym2612"
    },
    {
      "channel": 2,
      "note": 66,
      "start": 34.9265,
      "duration": 0.2129,
      "velocity": 127,
      "chip": "ym2612"
    },
    {
      "channel": 0,
      "note": 58,
      "start": 35.1392,
      "duration": 0.4283,
      "velocity": 89,
      "chip": "ym2612"
    },
    {
      "channel": 1,
      "note": 46,
      "start": 35.1394,
      "duration": 0.1602,
      "velocity": 87,
      "chip": "ym2612"
    },
    {
      "channel": 2,
      "note": 44,
      "start": 35.1411,
      "duration": 0.1049,
      "velocity": 127,
      "chip": "ym2612"
    },
    {
      "channel": 3,
      "note": 53,
      "start": 35.1414,
      "duration": 0.4285,
      "velocity": 89,
      "chip": "ym2612"
    },
    {
      "channel": 2,
      "note": 75,
      "start": 35.2477,
      "duration": 0.1057,
      "velocity": 127,
      "chip": "ym2612"
    },
    {
      "channel": 1,
      "note": 58,
      "start": 35.3534,
      "duration": 0.1605,
      "velocity": 87,
      "chip": "ym2612"
    },
    {
      "channel": 2,
      "note": 66,
      "start": 35.3551,
      "duration": 0.2129,
      "velocity": 127,
      "chip": "ym2612"
    },
    {
      "channel": 4,
      "note": 53,
      "start": 35.3554,
      "duration": 0.2149,
      "velocity": 98,
      "chip": "ym2612"
    },
    {
      "channel": 0,
      "note": 67,
      "start": 35.5677,
      "duration": 0.4283,
      "velocity": 89,
      "chip": "ym2612"
    },
    {
      "channel": 1,
      "note": 46,
      "start": 35.5679,
      "duration": 0.1602,
      "velocity": 87,
      "chip": "ym2612"
    },
    {
      "channel": 2,
      "note": 44,
      "start": 35.5699,
      "duration": 0.1046,
      "velocity": 127,
      "chip": "ym2612"
    },
    {
      "channel": 3,
      "note": 63,
      "start": 35.5702,
      "duration": 0.4283,
      "velocity": 89,
      "chip": "ym2612"
    },
    {
      "channel": 4,
      "note": 58,
      "start": 35.5705,
      "duration": 0.2132,
      "velocity": 98,
      "chip": "ym2612"
    },
    {
      "channel": 2,
      "note": 75,
      "start": 35.6762,
      "duration": 0.1057,
      "velocity": 127,
      "chip": "ym2612"
    },
    {
      "channel": 5,
      "note": 53,
      "start": 35.6766,
      "duration": 0.2123,
      "velocity": 98,
      "chip": "ym2612"
    },
    {
      "channel": 1,
      "note": 58,
      "start": 35.7819,
      "duration": 0.1605,
      "velocity": 87,
      "chip": "ym2612"
    },
    {
      "channel": 2,
      "note": 66,
      "start": 35.7836,
      "duration": 0.2129,
      "velocity": 127,
      "chip": "ym2612"
    },
    {
      "channel": 4,
      "note": 62,
      "start": 35.7839,
      "duration": 0.2149,
      "velocity": 98,
      "chip": "ym2612"
    },
    {
      "channel": 5,
      "note": 58,
      "start": 35.8892,
      "duration": 0.2157,
      "velocity": 98,
      "chip": "ym2612"
    },
    {
      "channel": 0,
      "note": 65,
      "start": 35.9962,
      "duration": 0.8568,
      "velocity": 89,
      "chip": "ym2612"
    },
    {
      "channel": 1,
      "note": 50,
      "start": 35.9965,
      "duration": 0.1602,
      "velocity": 87,
      "chip": "ym2612"
    },
    {
      "channel": 2,
      "note": 44,
      "start": 35.9985,
      "duration": 0.1047,
      "velocity": 127,
      "chip": "ym2612"
    },
    {
      "channel": 3,
      "note": 62,
      "start": 35.9987,
      "duration": 0.8566,
      "velocity": 89,
      "chip": "ym2612"
    },
    {
      "channel": 4,
      "note": 63,
      "start": 35.999,
      "duration": 0.4275,
      "velocity": 98,
      "chip": "ym2612"
    },
    {
      "channel": 2,
      "note": 75,
      "start": 36.1048,
      "duration": 0.1057,
      "velocity": 127,
      "chip": "ym2612"
    },
    {
      "channel": 5,
      "note": 62,
      "start": 36.1052,
      "duration": 0.2123,
      "velocity": 98,
      "chip": "ym2612"
    },
    {
      "channel": 1,
      "note": 62,
      "start": 36.2105,
      "duration": 0.1605,
      "velocity": 87,
      "chip": "ym2612"
    },
    {
      "channel": 2,
      "note": 66,
      "start": 36.2122,
      "duration": 0.2126,
      "velocity": 127,
      "chip": "ym2612"
    },
    {
      "channel": 5,
      "note": 63,
      "start": 36.3178,
      "duration": 0.4283,
      "velocity": 98,
      "chip": "ym2612"
    },
    {
      "channel": 1,
      "note": 50,
      "start": 36.4247,
      "duration": 0.1605,
      "velocity": 87,
      "chip": "ym2612"
    },
    {
      "channel": 2,
      "note": 44,
      "start": 36.4264,
      "duration": 0.1052,
      "velocity": 127,
      "chip": "ym2612"
    },
    {
      "channel": 4,
      "note": 62,
      "start": 36.4267,
      "duration": 0.4289,
      "velocity": 98,
      "chip": "ym2612"
    },
    {
      "channel": 2,
      "note": 75,
      "start": 36.5333,
      "duration": 0.1058,
      "velocity": 127,
      "chip": "ym2612"
    },
    {
      "channel": 1,
      "note": 62,
      "start": 36.639,
      "duration": 0.1605,
      "velocity": 87,
      "chip": "ym2612"
    },
    {
      "channel": 2,
      "note": 66,
      "start": 36.6407,
      "duration": 0.2129,
      "velocity": 127,
      "chip": "ym2612"
    },
    {
      "channel": 5,
      "note": 62,
      "start": 36.7463,
      "duration": 0.4283,
      "velocity": 98,
      "chip": "ym2612"
    },
    {
      "channel": 0,
      "note": 69,
      "start": 36.8533,
      "duration": 0.8568,
      "velocity": 89,
      "chip": "ym2612"
    },
    {
      "channel": 1,
      "note": 50,
      "start": 36.8536,
      "duration": 0.1602,
      "velocity": 87,
      "chip": "ym2612"
    },
    {
      "channel": 2,
      "note": 44,
      "start": 36.8553,
      "duration": 0.1049,
      "velocity": 127,
      "chip": "ym2612"
    },
    {
      "channel": 3,
      "note": 65,
      "start": 36.8556,
      "duration": 0.8569,
      "velocity": 89,
      "chip": "ym2612"
    },
    {
      "channel": 4,
      "note": 60,
      "start": 36.8559,
      "duration": 0.4277,
      "velocity": 98,
      "chip": "ym2612"
    },
    {
      "channel": 2,
      "note": 75,
      "start": 36.9619,
      "duration": 0.1057,
      "velocity": 127,
      "chip": "ym2612"
    },
    {
      "channel": 1,
      "note": 62,
      "start": 37.0675,
      "duration": 0.1605,
      "velocity": 87,
      "chip": "ym2612"
    },
    {
      "channel": 2,
      "note": 66,
      "start": 37.0695,
      "duration": 0.2123,
      "velocity": 127,
      "chip": "ym2612"
    },
    {
      "channel": 5,
      "note": 60,
      "start": 37.1748,
      "duration": 0.4283,
      "velocity": 98,
      "chip": "ym2612"
    },
    {
      "channel": 1,
      "note": 50,
      "start": 37.2818,
      "duration": 0.1605,
      "velocity": 87,
      "chip": "ym2612"
    },
    {
      "channel": 2,
      "note": 44,
      "start": 37.2835,
      "duration": 0.1052,
      "velocity": 127,
      "chip": "ym2612"
    },
    {
      "channel": 4,
      "note": 62,
      "start": 37.2838,
      "duration": 0.4289,
      "velocity": 98,
      "chip": "ym2612"
    },
    {
      "channel": 2,
      "note": 75,
      "start": 37.3904,
      "duration": 0.1057,
      "velocity": 127,
      "chip": "ym2612"
    },
    {
      "channel": 1,
      "note": 62,
      "start": 37.4961,
      "duration": 0.1605,
      "velocity": 87,
      "chip": "ym2612"
    },
    {
      "channel": 2,
      "note": 66,
      "start": 37.4978,
      "duration": 0.2129,
      "velocity": 127,
      "chip": "ym2612"
    },
    {
      "channel": 5,
      "note": 62,
      "start": 37.6034,
      "duration": 0.4283,
      "velocity": 98,
      "chip": "ym2612"
    },
    {
      "channel": 0,
      "note": 70,
      "start": 37.7104,
      "duration": 1.7139,
      "velocity": 89,
      "chip": "ym2612"
    },
    {
      "channel": 1,
      "note": 51,
      "start": 37.7106,
      "duration": 0.1602,
      "velocity": 87,
      "chip": "ym2612"
    },
    {
      "channel": 2,
      "note": 44,
      "start": 37.7124,
      "duration": 0.1049,
      "velocity": 127,
      "chip": "ym2612"
    },
    {
      "channel": 3,
      "note": 67,
      "start": 37.7127,
      "duration": 1.7139,
      "velocity": 89,
      "chip": "ym2612"
    },
    {
      "channel": 4,
      "note": 58,
      "start": 37.7129,
      "duration": 1.0705,
      "velocity": 98,
      "chip": "ym2612"
    },
    {
      "channel": 2,
      "note": 75,
      "start": 37.8193,
      "duration": 0.1054,
      "velocity": 127,
      "chip": "ym2612"
    },
    {
      "channel": 1,
      "note": 63,
      "start": 37.9246,
      "duration": 0.1605,
      "velocity": 87,
      "chip": "ym2612"
    },
    {
      "channel": 2,
      "note": 66,
      "start": 37.9263,
      "duration": 0.2126,
      "velocity": 127,
      "chip": "ym2612"
    },
    {
      "channel": 5,
      "note": 58,
      "start": 38.0319,
      "duration": 1.0728,
      "velocity": 98,
      "chip": "ym2612"
    },
    {
      "channel": 1,
      "note": 51,
      "start": 38.1389,
      "duration": 0.1605,
      "velocity": 87,
      "chip": "ym2612"
    },
    {
      "channel": 2,
      "note": 44,
      "start": 38.1406,
      "duration": 0.1052,
      "velocity": 127,
      "chip": "ym2612"
    },
    {
      "channel": 2,
      "note": 75,
      "start": 38.2475,
      "duration": 0.1057,
      "velocity": 127,
      "chip": "ym2612"
    },
    {
      "channel": 1,
      "note": 63,
      "start": 38.3532,
      "duration": 0.1605,
      "velocity": 87,
      "chip": "ym2612"
    },
    {
      "channel": 2,
      "note": 66,
      "start": 38.3549,
      "duration": 0.2126,
      "velocity": 127,
      "chip": "ym2612"
    },
    {
      "channel": 1,
      "note": 51,
      "start": 38.5674,
      "duration": 0.1605,
      "velocity": 87,
      "chip": "ym2612"
    },
    {
      "channel": 2,
      "note": 44,
      "start": 38.5695,
      "duration": 0.1049,
      "velocity": 127,
      "chip": "ym2612"
    },
    {
      "channel": 2,
      "note": 75,
      "start": 38.6761,
      "duration": 0.1057,
      "velocity": 127,
      "chip": "ym2612"
    },
    {
      "channel": 1,
      "note": 63,
      "start": 38.7817,
      "duration": 0.1605,
      "velocity": 87,
      "chip": "ym2612"
    },
    {
      "channel": 2,
      "note": 66,
      "start": 38.7834,
      "duration": 0.2126,
      "velocity": 127,
      "chip": "ym2612"
    },
    {
      "channel": 4,
      "note": 55,
      "start": 38.7837,
      "duration": 0.2141,
      "velocity": 98,
      "chip": "ym2612"
    },
    {
      "channel": 1,
      "note": 51,
      "start": 38.996,
      "duration": 0.1605,
      "velocity": 87,
      "chip": "ym2612"
    },
    {
      "channel": 2,
      "note": 44,
      "start": 38.9977,
      "duration": 0.1052,
      "velocity": 127,
      "chip": "ym2612"
    },
    {
      "channel": 4,
      "note": 57,
      "start": 38.998,
      "duration": 0.214,
      "velocity": 98,
      "chip": "ym2612"
    },
    {
      "channel": 2,
      "note": 75,
      "start": 39.1046,
      "duration": 0.1057,
      "velocity": 127,
      "chip": "ym2612"
    },
    {
      "channel": 5,
      "note": 55,
      "start": 39.105,
      "duration": 0.2123,
      "velocity": 98,
      "chip": "ym2612"
    },
    {
      "channel": 1,
      "note": 63,
      "start": 39.2102,
      "duration": 0.1605,
      "velocity": 87,
      "chip": "ym2612"
    },
    {
      "channel": 2,
      "note": 66,
      "start": 39.212,
      "duration": 0.2129,
      "velocity": 127,
      "chip": "ym2612"
    },
    {
      "channel": 4,
      "note": 58,
      "start": 39.2123,
      "duration": 0.2146,
      "velocity": 98,
      "chip": "ym2612"
    },
    {
      "channel": 5,
      "note": 57,
      "start": 39.3176,
      "duration": 0.2143,
      "velocity": 98,
      "chip": "ym2612"
    },
    {
      "channel": 0,
      "note": 72,
      "start": 39.4246,
      "duration": 1.714,
      "velocity": 89,
      "chip": "ym2612"
    },
    {
      "channel": 1,
      "note": 53,
      "start": 39.4248,
      "duration": 0.1602,
      "velocity": 87,
      "chip": "ym2612"
    },
    {
      "channel": 2,
      "note": 45,
      "start": 39.4266,
      "duration": 0.1049,
      "velocity": 127,
      "chip": "ym2612"
    },
    {
      "channel": 3,
      "note": 69,
      "start": 39.4268,
      "duration": 1.7169,
      "velocity": 89,
      "chip": "ym2612"
    },
    {
      "channel": 4,
      "note": 62,
      "start": 39.4271,
      "duration": 0.4263,
      "velocity": 98,
      "chip": "ym2612"
    },
    {
      "channel": 2,
      "note": 45,
      "start": 39.5317,
      "duration": 0.1071,
      "velocity": 127,
      "chip": "ym2612"
    },
    {
      "channel": 5,
      "note": 58,
      "start": 39.5321,
      "duration": 0.214,
      "velocity": 98,
      "chip": "ym2612"
    },
    {
      "channel": 1,
      "note": 65,
      "start": 39.6388,
      "duration": 0.1605,
      "velocity": 87,
      "chip": "ym2612"
    },
    {
      "channel": 2,
      "note": 45,
      "start": 39.6391,
      "duration": 0.1066,
      "velocity": 127,
      "chip": "ym2612"
    },
    {
      "channel": 2,
      "note": 45,
      "start": 39.746,
      "duration": 0.1071,
      "velocity": 127,
      "chip": "ym2612"
    },
    {
      "channel": 5,
      "note": 62,
      "start": 39.7464,
      "duration": 0.4283,
      "velocity": 98,
      "chip": "ym2612"
    },
    {
      "channel": 1,
      "note": 53,
      "start": 39.8531,
      "duration": 0.1605,
      "velocity": 87,
      "chip": "ym2612"
    },
    {
      "channel": 2,
      "note": 45,
      "start": 39.8534,
      "duration": 0.1067,
      "velocity": 127,
      "chip": "ym2612"
    },
    {
      "channel": 4,
      "note": 60,
      "start": 39.8537,
      "duration": 0.4281,
      "velocity": 98,
      "chip": "ym2612"
    },
    {
      "channel": 2,
      "note": 45,
      "start": 39.9602,
      "duration": 0.1071,
      "velocity": 127,
      "chip": "ym2612"
    },
    {
      "channel": 1,
      "note": 65,
      "start": 40.0673,
      "duration": 0.1605,
      "velocity": 87,
      "chip": "ym2612"
    },
    {
      "channel": 2,
      "note": 45,
      "start": 40.1745,
      "duration": 0.1072,
      "velocity": 127,
      "chip": "ym2612"
    },
    {
      "channel": 5,
      "note": 60,
      "start": 40.1749,
      "duration": 0.4283,
      "velocity": 98,
      "chip": "ym2612"
    },
    {
      "channel": 1,
      "note": 53,
      "start": 40.2816,
      "duration": 0.1605,
      "velocity": 87,
      "chip": "ym2612"
    },
    {
      "channel": 4,
      "note": 58,
      "start": 40.282,
      "duration": 0.4283,
      "velocity": 98,
      "chip": "ym2612"
    },
    {
      "channel": 2,
      "note": 45,
      "start": 40.3888,
      "duration": 0.1072,
      "velocity": 127,
      "chip": "ym2612"
    },
    {
      "channel": 1,
      "note": 65,
      "start": 40.4959,
      "duration": 0.1605,
      "velocity": 87,
      "chip": "ym2612"
    },
    {
      "channel": 2,
      "note": 45,
      "start": 40.4962,
      "duration": 0.1067,
      "velocity": 127,
      "chip": "ym2612"
    },
    {
      "channel": 2,
      "note": 45,
      "start": 40.6031,
      "duration": 0.1071,
      "velocity": 127,
      "chip": "ym2612"
    },
    {
      "channel": 5,
      "note": 58,
      "start": 40.6035,
      "duration": 0.4283,
      "velocity": 98,
      "chip": "ym2612"
    },
    {
      "channel": 1,
      "note": 53,
      "start": 40.7102,
      "duration": 0.1605,
      "velocity": 87,
      "chip": "ym2612"
    },
    {
      "channel": 4,
      "note": 60,
      "start": 40.7105,
      "duration": 0.435,
      "velocity": 98,
      "chip": "ym2612"
    },
    {
      "channel": 2,
      "note": 45,
      "start": 40.8173,
      "duration": 0.1072,
      "velocity": 127,
      "chip": "ym2612"
    },
    {
      "channel": 1,
      "note": 65,
      "start": 40.9244,
      "duration": 0.1605,
      "velocity": 87,
      "chip": "ym2612"
    },
    {
      "channel": 2,
      "note": 45,
      "start": 40.9247,
      "duration": 0.1067,
      "velocity": 127,
      "chip": "ym2612"
    },
    {
      "channel": 2,
      "note": 45,
      "start": 41.0316,
      "duration": 0.1104,
      "velocity": 127,
      "chip": "ym2612"
    },
    {
      "channel": 5,
      "note": 60,
      "start": 41.032,
      "duration": 0.1152,
      "velocity": 98,
      "chip": "ym2612"
    },
    {
      "channel": 0,
      "note": 67,
      "start": 41.1402,
      "duration": 0.0876,
      "velocity": 105,
      "chip": "ym2612"
    },
    {
      "channel": 1,
      "note": 55,
      "start": 41.142,
      "duration": 0.0858,
      "velocity": 87,
      "chip": "ym2612"
    },
    {
      "channel": 2,
      "note": 44,
      "start": 41.1437,
      "duration": 0.0841,
      "velocity": 127,
      "chip": "ym2612"
    },
    {
      "channel": 3,
      "note": 79,
      "start": 41.1454,
      "duration": 0.0823,
      "velocity": 102,
      "chip": "ym2612"
    },
    {
      "channel": 4,
      "note": 79,
      "start": 41.1472,
      "duration": 0.0806,
      "velocity": 105,
      "chip": "ym2612"
    },
    {
      "channel": 5,
      "note": 74,
      "start": 41.1491,
      "duration": 0.0786,
      "velocity": 102,
      "chip": "ym2612"
    }
  ]
}