{
  "track_name": "06 - Mission Briefing 1",
  "duration_sec": 40.549,
  "sample_rate": 44100,
  "note_count": 1088,
  "unique_pitches": 32,
  "pitch_range": 59,
  "avg_note_duration": 0.2045,
  "reconstruction_stats": {
    "notes_reconstructed": 1088,
    "keyon_events": 1088,
    "keyoff_events": 1085,
    "orphan_keyons": 3,
    "unique_pitches": 32,
    "pitch_range": 59,
    "avg_duration_sec": 0.2045
  },
  "metadata": {
    "source": "D\\Desert Strike - Return to the Gulf\\06 - Mission Briefing 1.vgz"
  },
  "notes": [
    {
      "channel": 5,
      "note": 66,
      "start": 0.0519,
      "duration": 0.1661,
      "velocity": 127,
      "chip": "ym2612"
    },
    {
      "channel": 4,
      "note": 43,
      "start": 0.0573,
      "duration": 0.1622,
      "velocity": 113,
      "chip": "ym2612"
    },
    {
      "channel": 5,
      "note": 66,
      "start": 0.2185,
      "duration": 0.0819,
      "velocity": 127,
      "chip": "ym2612"
    },
    {
      "channel": 4,
      "note": 43,
      "start": 0.2199,
      "duration": 0.1738,
      "velocity": 113,
      "chip": "ym2612"
    },
    {
      "channel": 5,
      "note": 66,
      "start": 0.3009,
      "duration": 0.0898,
      "velocity": 127,
      "chip": "ym2612"
    },
    {
      "channel": 5,
      "note": 66,
      "start": 0.3912,
      "duration": 0.1782,
      "velocity": 127,
      "chip": "ym2612"
    },
    {
      "channel": 4,
      "note": 43,
      "start": 0.3942,
      "duration": 0.1766,
      "velocity": 113,
      "chip": "ym2612"
    },
    {
      "channel": 5,
      "note": 66,
      "start": 0.5699,
      "duration": 0.0828,
      "velocity": 127,
      "chip": "ym2612"
    },
    {
      "channel": 4,
      "note": 43,
      "start": 0.5713,
      "duration": 0.1748,
      "velocity": 113,
      "chip": "ym2612"
    },
    {
      "channel": 5,
      "note": 66,
      "start": 0.6532,
      "duration": 0.0898,
      "velocity": 127,
      "chip": "ym2612"
    },
    {
      "channel": 5,
      "note": 66,
      "start": 0.7435,
      "duration": 0.0893,
      "velocity": 127,
      "chip": "ym2612"
    },
    {
      "channel": 4,
      "note": 43,
      "start": 0.7465,
      "duration": 0.1747,
      "velocity": 113,
      "chip": "ym2612"
    },
    {
      "channel": 5,
      "note": 66,
      "start": 0.8332,
      "duration": 0.0842,
      "velocity": 127,
      "chip": "ym2612"
    },
    {
      "channel": 5,
      "note": 66,
      "start": 0.918,
      "duration": 0.0859,
      "velocity": 127,
      "chip": "ym2612"
    },
    {
      "channel": 4,
      "note": 43,
      "start": 0.9217,
      "duration": 0.1801,
      "velocity": 113,
      "chip": "ym2612"
    },
    {
      "channel": 5,
      "note": 66,
      "start": 1.0044,
      "duration": 0.0944,
      "velocity": 127,
      "chip": "ym2612"
    },
    {
      "channel": 5,
      "note": 66,
      "start": 1.0993,
      "duration": 0.1731,
      "velocity": 127,
      "chip": "ym2612"
    },
    {
      "channel": 4,
      "note": 43,
      "start": 1.1022,
      "duration": 0.1715,
      "velocity": 113,
      "chip": "ym2612"
    },
    {
      "channel": 5,
      "note": 66,
      "start": 1.2729,
      "duration": 0.0412,
      "velocity": 127,
      "chip": "ym2612"
    },
    {
      "channel": 4,
      "note": 43,
      "start": 1.2743,
      "duration": 0.1784,
      "velocity": 113,
      "chip": "ym2612"
    },
    {
      "channel": 5,
      "note": 66,
      "start": 1.3146,
      "duration": 0.0429,
      "velocity": 127,
      "chip": "ym2612"
    },
    {
      "channel": 5,
      "note": 66,
      "start": 1.3579,
      "duration": 0.0429,
      "velocity": 127,
      "chip": "ym2612"
    },
    {
      "channel": 5,
      "note": 66,
      "start": 1.4013,
      "duration": 0.0483,
      "velocity": 127,
      "chip": "ym2612"
    },
    {
      "channel": 5,
      "note": 66,
      "start": 1.4501,
      "duration": 0.1734,
      "velocity": 127,
      "chip": "ym2612"
    },
    {
      "channel": 4,
      "note": 43,
      "start": 1.4531,
      "duration": 0.1718,
      "velocity": 113,
      "chip": "ym2612"
    },
    {
      "channel": 5,
      "note": 66,
      "start": 1.624,
      "duration": 0.0875,
      "velocity": 127,
      "chip": "ym2612"
    },
    {
      "channel": 4,
      "note": 43,
      "start": 1.6254,
      "duration": 0.1794,
      "velocity": 113,
      "chip": "ym2612"
    },
    {
      "channel": 5,
      "note": 66,
      "start": 1.712,
      "duration": 0.0898,
      "velocity": 127,
      "chip": "ym2612"
    },
    {
      "channel": 5,
      "note": 66,
      "start": 1.8023,
      "duration": 0.1734,
      "velocity": 127,
      "chip": "ym2612"
    },
    {
      "channel": 4,
      "note": 43,
      "start": 1.8054,
      "duration": 0.1717,
      "velocity": 113,
      "chip": "ym2612"
    },
    {
      "channel": 5,
      "note": 66,
      "start": 1.9762,
      "duration": 0.0866,
      "velocity": 127,
      "chip": "ym2612"
    },
    {
      "channel": 4,
      "note": 43,
      "start": 1.9776,
      "duration": 0.1785,
      "velocity": 113,
      "chip": "ym2612"
    },
    {
      "channel": 5,
      "note": 66,
      "start": 2.0633,
      "duration": 0.0898,
      "velocity": 127,
      "chip": "ym2612"
    },
    {
      "channel": 5,
      "note": 66,
      "start": 2.1536,
      "duration": 0.0847,
      "velocity": 127,
      "chip": "ym2612"
    },
    {
      "channel": 4,
      "note": 43,
      "start": 2.1566,
      "duration": 0.175,
      "velocity": 113,
      "chip": "ym2612"
    },
    {
      "channel": 5,
      "note": 66,
      "start": 2.2388,
      "duration": 0.089,
      "velocity": 127,
      "chip": "ym2612"
    },
    {
      "channel": 5,
      "note": 66,
      "start": 2.3283,
      "duration": 0.0861,
      "velocity": 127,
      "chip": "ym2612"
    },
    {
      "channel": 4,
      "note": 43,
      "start": 2.3321,
      "duration": 0.1757,
      "velocity": 113,
      "chip": "ym2612"
    },
    {
      "channel": 5,
      "note": 66,
      "start": 2.4149,
      "duration": 0.0898,
      "velocity": 127,
      "chip": "ym2612"
    },
    {
      "channel": 5,
      "note": 66,
      "start": 2.5052,
      "duration": 0.1781,
      "velocity": 127,
      "chip": "ym2612"
    },
    {
      "channel": 4,
      "note": 43,
      "start": 2.5082,
      "duration": 0.1765,
      "velocity": 113,
      "chip": "ym2612"
    },
    {
      "channel": 5,
      "note": 66,
      "start": 2.6839,
      "duration": 0.0366,
      "velocity": 127,
      "chip": "ym2612"
    },
    {
      "channel": 4,
      "note": 43,
      "start": 2.6853,
      "duration": 0.1883,
      "velocity": 113,
      "chip": "ym2612"
    },
    {
      "channel": 5,
      "note": 66,
      "start": 2.7209,
      "duration": 0.0477,
      "velocity": 127,
      "chip": "ym2612"
    },
    {
      "channel": 5,
      "note": 66,
      "start": 2.769,
      "duration": 0.0429,
      "velocity": 127,
      "chip": "ym2612"
    },
    {
      "channel": 5,
      "note": 66,
      "start": 2.8124,
      "duration": 0.048,
      "velocity": 127,
      "chip": "ym2612"
    },
    {
      "channel": 5,
      "note": 66,
      "start": 2.8608,
      "duration": 0.1751,
      "velocity": 127,
      "chip": "ym2612"
    },
    {
      "channel": 2,
      "note": 79,
      "start": 2.8702,
      "duration": 0.1639,
      "velocity": 104,
      "chip": "ym2612"
    },
    {
      "channel": 1,
      "note": 70,
      "start": 2.8717,
      "duration": 0.4831,
      "velocity": 104,
      "chip": "ym2612"
    },
    {
      "channel": 4,
      "note": 43,
      "start": 2.8741,
      "duration": 0.1633,
      "velocity": 113,
      "chip": "ym2612"
    },
    {
      "channel": 0,
      "note": 70,
      "start": 2.8787,
      "duration": 0.4768,
      "velocity": 94,
      "chip": "ym2612"
    },
    {
      "channel": 3,
      "note": 58,
      "start": 2.8806,
      "duration": 0.4732,
      "velocity": 94,
      "chip": "ym2612"
    },
    {
      "channel": 2,
      "note": 74,
      "start": 3.0346,
      "duration": 0.1725,
      "velocity": 104,
      "chip": "ym2612"
    },
    {
      "channel": 5,
      "note": 66,
      "start": 3.0365,
      "duration": 0.0808,
      "velocity": 127,
      "chip": "ym2612"
    },
    {
      "channel": 4,
      "note": 43,
      "start": 3.0379,
      "duration": 0.174,
      "velocity": 113,
      "chip": "ym2612"
    },
    {
      "channel": 5,
      "note": 66,
      "start": 3.1178,
      "duration": 0.0912,
      "velocity": 127,
      "chip": "ym2612"
    },
    {
      "channel": 2,
      "note": 79,
      "start": 3.2076,
      "duration": 0.179,
      "velocity": 104,
      "chip": "ym2612"
    },
    {
      "channel": 5,
      "note": 66,
      "start": 3.2094,
      "duration": 0.1814,
      "velocity": 127,
      "chip": "ym2612"
    },
    {
      "channel": 4,
      "note": 43,
      "start": 3.2124,
      "duration": 0.1798,
      "velocity": 113,
      "chip": "ym2612"
    },
    {
      "channel": 3,
      "note": 60,
      "start": 3.3857,
      "duration": 0.4981,
      "velocity": 94,
      "chip": "ym2612"
    },
    {
      "channel": 2,
      "note": 79,
      "start": 3.3871,
      "duration": 0.1769,
      "velocity": 104,
      "chip": "ym2612"
    },
    {
      "channel": 1,
      "note": 70,
      "start": 3.3884,
      "duration": 0.4964,
      "velocity": 104,
      "chip": "ym2612"
    },
    {
      "channel": 0,
      "note": 72,
      "start": 3.3898,
      "duration": 0.4958,
      "velocity": 94,
      "chip": "ym2612"
    },
    {
      "channel": 5,
      "note": 66,
      "start": 3.3913,
      "duration": 0.0781,
      "velocity": 127,
      "chip": "ym2612"
    },
    {
      "channel": 4,
      "note": 43,
      "start": 3.3927,
      "duration": 0.1759,
      "velocity": 113,
      "chip": "ym2612"
    },
    {
      "channel": 5,
      "note": 66,
      "start": 3.4699,
      "duration": 0.0959,
      "velocity": 127,
      "chip": "ym2612"
    },
    {
      "channel": 2,
      "note": 74,
      "start": 3.5644,
      "duration": 0.1725,
      "velocity": 104,
      "chip": "ym2612"
    },
    {
      "channel": 5,
      "note": 66,
      "start": 3.5663,
      "duration": 0.0837,
      "velocity": 127,
      "chip": "ym2612"
    },
    {
      "channel": 4,
      "note": 43,
      "start": 3.5692,
      "duration": 0.1697,
      "velocity": 113,
      "chip": "ym2612"
    },
    {
      "channel": 5,
      "note": 66,
      "start": 3.6503,
      "duration": 0.0835,
      "velocity": 127,
      "chip": "ym2612"
    },
    {
      "channel": 5,
      "note": 66,
      "start": 3.7343,
      "duration": 0.0864,
      "velocity": 127,
      "chip": "ym2612"
    },
    {
      "channel": 2,
      "note": 79,
      "start": 3.7374,
      "duration": 0.1793,
      "velocity": 104,
      "chip": "ym2612"
    },
    {
      "channel": 4,
      "note": 43,
      "start": 3.7394,
      "duration": 0.1845,
      "velocity": 113,
      "chip": "ym2612"
    },
    {
      "channel": 5,
      "note": 66,
      "start": 3.8212,
      "duration": 0.0997,
      "velocity": 127,
      "chip": "ym2612"
    },
    {
      "channel": 3,
      "note": 61,
      "start": 3.9157,
      "duration": 0.4924,
      "velocity": 94,
      "chip": "ym2612"
    },
    {
      "channel": 2,
      "note": 79,
      "start": 3.9171,
      "duration": 0.1715,
      "velocity": 104,
      "chip": "ym2612"
    },
    {
      "channel": 1,
      "note": 70,
      "start": 3.9185,
      "duration": 0.4906,
      "velocity": 104,
      "chip": "ym2612"
    },
    {
      "channel": 0,
      "note": 73,
      "start": 3.9198,
      "duration": 0.4901,
      "velocity": 94,
      "chip": "ym2612"
    },
    {
      "channel": 5,
      "note": 66,
      "start": 3.9214,
      "duration": 0.1691,
      "velocity": 127,
      "chip": "ym2612"
    },
    {
      "channel": 4,
      "note": 43,
      "start": 3.9244,
      "duration": 0.1675,
      "velocity": 113,
      "chip": "ym2612"
    },
    {
      "channel": 2,
      "note": 74,
      "start": 4.0892,
      "duration": 0.1771,
      "velocity": 104,
      "chip": "ym2612"
    },
    {
      "channel": 5,
      "note": 66,
      "start": 4.091,
      "duration": 0.0403,
      "velocity": 127,
      "chip": "ym2612"
    },
    {
      "channel": 4,
      "note": 43,
      "start": 4.0923,
      "duration": 0.1787,
      "velocity": 113,
      "chip": "ym2612"
    },
    {
      "channel": 5,
      "note": 66,
      "start": 4.1318,
      "duration": 0.0476,
      "velocity": 127,
      "chip": "ym2612"
    },
    {
      "channel": 5,
      "note": 66,
      "start": 4.1799,
      "duration": 0.0381,
      "velocity": 127,
      "chip": "ym2612"
    },
    {
      "channel": 5,
      "note": 66,
      "start": 4.2185,
      "duration": 0.0495,
      "velocity": 127,
      "chip": "ym2612"
    },
    {
      "channel": 2,
      "note": 79,
      "start": 4.2667,
      "duration": 0.1751,
      "velocity": 104,
      "chip": "ym2612"
    },
    {
      "channel": 5,
      "note": 66,
      "start": 4.2685,
      "duration": 0.1776,
      "velocity": 127,
      "chip": "ym2612"
    },
    {
      "channel": 4,
      "note": 43,
      "start": 4.2715,
      "duration": 0.176,
      "velocity": 113,
      "chip": "ym2612"
    },
    {
      "channel": 3,
      "note": 62,
      "start": 4.4409,
      "duration": 0.4969,
      "velocity": 94,
      "chip": "ym2612"
    },
    {
      "channel": 2,
      "note": 79,
      "start": 4.4423,
      "duration": 0.176,
      "velocity": 104,
      "chip": "ym2612"
    },
    {
      "channel": 1,
      "note": 70,
      "start": 4.4436,
      "duration": 0.4952,
      "velocity": 104,
      "chip": "ym2612"
    },
    {
      "channel": 0,
      "note": 74,
      "start": 4.445,
      "duration": 0.4945,
      "velocity": 94,
      "chip": "ym2612"
    },
    {
      "channel": 5,
      "note": 66,
      "start": 4.4466,
      "duration": 0.0818,
      "velocity": 127,
      "chip": "ym2612"
    },
    {
      "channel": 4,
      "note": 43,
      "start": 4.4479,
      "duration": 0.1751,
      "velocity": 113,
      "chip": "ym2612"
    },
    {
      "channel": 5,
      "note": 66,
      "start": 4.5289,
      "duration": 0.0912,
      "velocity": 127,
      "chip": "ym2612"
    },
    {
      "channel": 2,
      "note": 74,
      "start": 4.6187,
      "duration": 0.1776,
      "velocity": 104,
      "chip": "ym2612"
    },
    {
      "channel": 5,
      "note": 66,
      "start": 4.6206,
      "duration": 0.1776,
      "velocity": 127,
      "chip": "ym2612"
    },
    {
      "channel": 4,
      "note": 43,
      "start": 4.6235,
      "duration": 0.176,
      "velocity": 113,
      "chip": "ym2612"
    },
    {
      "channel": 2,
      "note": 79,
      "start": 4.7967,
      "duration": 0.1748,
      "velocity": 104,
      "chip": "ym2612"
    },
    {
      "channel": 5,
      "note": 66,
      "start": 4.7986,
      "duration": 0.0818,
      "velocity": 127,
      "chip": "ym2612"
    },
    {
      "channel": 4,
      "note": 43,
      "start": 4.8,
      "duration": 0.1788,
      "velocity": 113,
      "chip": "ym2612"
    },
    {
      "channel": 5,
      "note": 66,
      "start": 4.8808,
      "duration": 0.095,
      "velocity": 127,
      "chip": "ym2612"
    },
    {
      "channel": 3,
      "note": 61,
      "start": 4.9706,
      "duration": 0.3192,
      "velocity": 94,
      "chip": "ym2612"
    },
    {
      "channel": 2,
      "note": 79,
      "start": 4.972,
      "duration": 0.3506,
      "velocity": 104,
      "chip": "ym2612"
    },
    {
      "channel": 1,
      "note": 70,
      "start": 4.9734,
      "duration": 0.3174,
      "velocity": 104,
      "chip": "ym2612"
    },
    {
      "channel": 0,
      "note": 73,
      "start": 4.9747,
      "duration": 0.3168,
      "velocity": 94,
      "chip": "ym2612"
    },
    {
      "channel": 5,
      "note": 66,
      "start": 4.9763,
      "duration": 0.0789,
      "velocity": 127,
      "chip": "ym2612"
    },
    {
      "channel": 4,
      "note": 43,
      "start": 4.9793,
      "duration": 0.1693,
      "velocity": 113,
      "chip": "ym2612"
    },
    {
      "channel": 5,
      "note": 66,
      "start": 5.0557,
      "duration": 0.0891,
      "velocity": 127,
      "chip": "ym2612"
    },
    {
      "channel": 5,
      "note": 66,
      "start": 5.1453,
      "duration": 0.0861,
      "velocity": 127,
      "chip": "ym2612"
    },
    {
      "channel": 4,
      "note": 43,
      "start": 5.1491,
      "duration": 0.1809,
      "velocity": 113,
      "chip": "ym2612"
    },
    {
      "channel": 5,
      "note": 66,
      "start": 5.2319,
      "duration": 0.095,
      "velocity": 127,
      "chip": "ym2612"
    },
    {
      "channel": 3,
      "note": 60,
      "start": 5.3217,
      "duration": 0.3196,
      "velocity": 94,
      "chip": "ym2612"
    },
    {
      "channel": 2,
      "note": 79,
      "start": 5.3231,
      "duration": 0.3554,
      "velocity": 104,
      "chip": "ym2612"
    },
    {
      "channel": 1,
      "note": 70,
      "start": 5.3245,
      "duration": 0.3178,
      "velocity": 104,
      "chip": "ym2612"
    },
    {
      "channel": 0,
      "note": 72,
      "start": 5.3258,
      "duration": 0.3173,
      "velocity": 94,
      "chip": "ym2612"
    },
    {
      "channel": 5,
      "note": 66,
      "start": 5.3274,
      "duration": 0.1725,
      "velocity": 127,
      "chip": "ym2612"
    },
    {
      "channel": 4,
      "note": 43,
      "start": 5.3304,
      "duration": 0.1709,
      "velocity": 113,
      "chip": "ym2612"
    },
    {
      "channel": 5,
      "note": 66,
      "start": 5.5004,
      "duration": 0.0365,
      "velocity": 127,
      "chip": "ym2612"
    },
    {
      "channel": 4,
      "note": 43,
      "start": 5.5017,
      "duration": 0.1812,
      "velocity": 113,
      "chip": "ym2612"
    },
    {
      "channel": 5,
      "note": 66,
      "start": 5.5374,
      "duration": 0.0476,
      "velocity": 127,
      "chip": "ym2612"
    },
    {
      "channel": 5,
      "note": 66,
      "start": 5.5855,
      "duration": 0.0429,
      "velocity": 127,
      "chip": "ym2612"
    },
    {
      "channel": 5,
      "note": 66,
      "start": 5.6289,
      "duration": 0.0461,
      "velocity": 127,
      "chip": "ym2612"
    },
    {
      "channel": 5,
      "note": 66,
      "start": 5.6755,
      "duration": 0.1778,
      "velocity": 127,
      "chip": "ym2612"
    },
    {
      "channel": 3,
      "note": 58,
      "start": 5.6777,
      "duration": 0.4934,
      "velocity": 94,
      "chip": "ym2612"
    },
    {
      "channel": 2,
      "note": 79,
      "start": 5.679,
      "duration": 0.1724,
      "velocity": 104,
      "chip": "ym2612"
    },
    {
      "channel": 1,
      "note": 70,
      "start": 5.6804,
      "duration": 0.4916,
      "velocity": 104,
      "chip": "ym2612"
    },
    {
      "channel": 0,
      "note": 70,
      "start": 5.6818,
      "duration": 0.4911,
      "velocity": 94,
      "chip": "ym2612"
    },
    {
      "channel": 4,
      "note": 43,
      "start": 5.6835,
      "duration": 0.1712,
      "velocity": 113,
      "chip": "ym2612"
    },
    {
      "channel": 2,
      "note": 74,
      "start": 5.852,
      "duration": 0.1772,
      "velocity": 104,
      "chip": "ym2612"
    },
    {
      "channel": 5,
      "note": 66,
      "start": 5.8539,
      "duration": 0.0808,
      "velocity": 127,
      "chip": "ym2612"
    },
    {
      "channel": 4,
      "note": 43,
      "start": 5.8552,
      "duration": 0.1788,
      "velocity": 113,
      "chip": "ym2612"
    },
    {
      "channel": 5,
      "note": 66,
      "start": 5.9351,
      "duration": 0.0959,
      "velocity": 127,
      "chip": "ym2612"
    },
    {
      "channel": 2,
      "note": 79,
      "start": 6.0297,
      "duration": 0.1741,
      "velocity": 104,
      "chip": "ym2612"
    },
    {
      "channel": 5,
      "note": 66,
      "start": 6.0316,
      "duration": 0.1766,
      "velocity": 127,
      "chip": "ym2612"
    },
    {
      "channel": 4,
      "note": 43,
      "start": 6.0344,
      "duration": 0.1751,
      "velocity": 113,
      "chip": "ym2612"
    },
    {
      "channel": 3,
      "note": 60,
      "start": 6.203,
      "duration": 0.4972,
      "velocity": 94,
      "chip": "ym2612"
    },
    {
      "channel": 2,
      "note": 79,
      "start": 6.2044,
      "duration": 0.176,
      "velocity": 104,
      "chip": "ym2612"
    },
    {
      "channel": 1,
      "note": 70,
      "start": 6.2057,
      "duration": 0.4955,
      "velocity": 104,
      "chip": "ym2612"
    },
    {
      "channel": 0,
      "note": 72,
      "start": 6.2071,
      "duration": 0.4949,
      "velocity": 94,
      "chip": "ym2612"
    },
    {
      "channel": 5,
      "note": 66,
      "start": 6.2086,
      "duration": 0.0772,
      "velocity": 127,
      "chip": "ym2612"
    },
    {
      "channel": 4,
      "note": 43,
      "start": 6.21,
      "duration": 0.1751,
      "velocity": 113,
      "chip": "ym2612"
    },
    {
      "channel": 5,
      "note": 66,
      "start": 6.2863,
      "duration": 0.0959,
      "velocity": 127,
      "chip": "ym2612"
    },
    {
      "channel": 2,
      "note": 74,
      "start": 6.3808,
      "duration": 0.1734,
      "velocity": 104,
      "chip": "ym2612"
    },
    {
      "channel": 5,
      "note": 66,
      "start": 6.3827,
      "duration": 0.0837,
      "velocity": 127,
      "chip": "ym2612"
    },
    {
      "channel": 4,
      "note": 43,
      "start": 6.3856,
      "duration": 0.1706,
      "velocity": 113,
      "chip": "ym2612"
    },
    {
      "channel": 5,
      "note": 66,
      "start": 6.4668,
      "duration": 0.0844,
      "velocity": 127,
      "chip": "ym2612"
    },
    {
      "channel": 5,
      "note": 66,
      "start": 6.5516,
      "duration": 0.0911,
      "velocity": 127,
      "chip": "ym2612"
    },
    {
      "channel": 2,
      "note": 79,
      "start": 6.5547,
      "duration": 0.1793,
      "velocity": 104,
      "chip": "ym2612"
    },
    {
      "channel": 4,
      "note": 43,
      "start": 6.5566,
      "duration": 0.1846,
      "velocity": 113,
      "chip": "ym2612"
    },
    {
      "channel": 5,
      "note": 66,
      "start": 6.6432,
      "duration": 0.095,
      "velocity": 127,
      "chip": "ym2612"
    },
    {
      "channel": 3,
      "note": 61,
      "start": 6.7331,
      "duration": 0.4923,
      "velocity": 94,
      "chip": "ym2612"
    },
    {
      "channel": 2,
      "note": 79,
      "start": 6.7344,
      "duration": 0.1715,
      "velocity": 104,
      "chip": "ym2612"
    },
    {
      "channel": 1,
      "note": 70,
      "start": 6.7358,
      "duration": 0.4906,
      "velocity": 104,
      "chip": "ym2612"
    },
    {
      "channel": 0,
      "note": 73,
      "start": 6.7372,
      "duration": 0.49,
      "velocity": 94,
      "chip": "ym2612"
    },
    {
      "channel": 5,
      "note": 66,
      "start": 6.7387,
      "duration": 0.1691,
      "velocity": 127,
      "chip": "ym2612"
    },
    {
      "channel": 4,
      "note": 43,
      "start": 6.7418,
      "duration": 0.1674,
      "velocity": 113,
      "chip": "ym2612"
    },
    {
      "channel": 2,
      "note": 74,
      "start": 6.9065,
      "duration": 0.1761,
      "velocity": 104,
      "chip": "ym2612"
    },
    {
      "channel": 5,
      "note": 66,
      "start": 6.9083,
      "duration": 0.0394,
      "velocity": 127,
      "chip": "ym2612"
    },
    {
      "channel": 4,
      "note": 43,
      "start": 6.9096,
      "duration": 0.1777,
      "velocity": 113,
      "chip": "ym2612"
    },
    {
      "channel": 5,
      "note": 66,
      "start": 6.9481,
      "duration": 0.0485,
      "velocity": 127,
      "chip": "ym2612"
    },
    {
      "channel": 5,
      "note": 66,
      "start": 6.9972,
      "duration": 0.0371,
      "velocity": 127,
      "chip": "ym2612"
    },
    {
      "channel": 5,
      "note": 66,
      "start": 7.0348,
      "duration": 0.0495,
      "velocity": 127,
      "chip": "ym2612"
    },
    {
      "channel": 2,
      "note": 79,
      "start": 7.083,
      "duration": 0.1799,
      "velocity": 104,
      "chip": "ym2612"
    },
    {
      "channel": 5,
      "note": 66,
      "start": 7.0848,
      "duration": 0.1824,
      "velocity": 127,
      "chip": "ym2612"
    },
    {
      "channel": 4,
      "note": 43,
      "start": 7.0878,
      "duration": 0.1808,
      "velocity": 113,
      "chip": "ym2612"
    },
    {
      "channel": 3,
      "note": 62,
      "start": 7.2621,
      "duration": 0.4931,
      "velocity": 94,
      "chip": "ym2612"
    },
    {
      "channel": 2,
      "note": 79,
      "start": 7.2634,
      "duration": 0.1722,
      "velocity": 104,
      "chip": "ym2612"
    },
    {
      "channel": 1,
      "note": 70,
      "start": 7.2648,
      "duration": 0.4913,
      "velocity": 104,
      "chip": "ym2612"
    },
    {
      "channel": 0,
      "note": 74,
      "start": 7.2661,
      "duration": 0.4908,
      "velocity": 94,
      "chip": "ym2612"
    },
    {
      "channel": 5,
      "note": 66,
      "start": 7.2677,
      "duration": 0.078,
      "velocity": 127,
      "chip": "ym2612"
    },
    {
      "channel": 4,
      "note": 43,
      "start": 7.269,
      "duration": 0.1712,
      "velocity": 113,
      "chip": "ym2612"
    },
    {
      "channel": 5,
      "note": 66,
      "start": 7.3462,
      "duration": 0.0912,
      "velocity": 127,
      "chip": "ym2612"
    },
    {
      "channel": 2,
      "note": 74,
      "start": 7.436,
      "duration": 0.1776,
      "velocity": 104,
      "chip": "ym2612"
    },
    {
      "channel": 5,
      "note": 66,
      "start": 7.4379,
      "duration": 0.1776,
      "velocity": 127,
      "chip": "ym2612"
    },
    {
      "channel": 4,
      "note": 43,
      "start": 7.4408,
      "duration": 0.1759,
      "velocity": 113,
      "chip": "ym2612"
    },
    {
      "channel": 2,
      "note": 79,
      "start": 7.614,
      "duration": 0.1739,
      "velocity": 104,
      "chip": "ym2612"
    },
    {
      "channel": 5,
      "note": 66,
      "start": 7.6159,
      "duration": 0.0808,
      "velocity": 127,
      "chip": "ym2612"
    },
    {
      "channel": 4,
      "note": 43,
      "start": 7.6173,
      "duration": 0.1779,
      "velocity": 113,
      "chip": "ym2612"
    },
    {
      "channel": 5,
      "note": 66,
      "start": 7.6972,
      "duration": 0.095,
      "velocity": 127,
      "chip": "ym2612"
    },
    {
      "channel": 3,
      "note": 61,
      "start": 7.7871,
      "duration": 0.3191,
      "velocity": 94,
      "chip": "ym2612"
    },
    {
      "channel": 2,
      "note": 79,
      "start": 7.7884,
      "duration": 0.3515,
      "velocity": 104,
      "chip": "ym2612"
    },
    {
      "channel": 1,
      "note": 70,
      "start": 7.7897,
      "duration": 0.3174,
      "velocity": 104,
      "chip": "ym2612"
    },
    {
      "channel": 0,
      "note": 73,
      "start": 7.7911,
      "duration": 0.3168,
      "velocity": 94,
      "chip": "ym2612"
    },
    {
      "channel": 5,
      "note": 66,
      "start": 7.7927,
      "duration": 0.0847,
      "velocity": 127,
      "chip": "ym2612"
    },
    {
      "channel": 4,
      "note": 43,
      "start": 7.7957,
      "duration": 0.1702,
      "velocity": 113,
      "chip": "ym2612"
    },
    {
      "channel": 5,
      "note": 66,
      "start": 7.8778,
      "duration": 0.0844,
      "velocity": 127,
      "chip": "ym2612"
    },
    {
      "channel": 5,
      "note": 66,
      "start": 7.9626,
      "duration": 0.0861,
      "velocity": 127,
      "chip": "ym2612"
    },
    {
      "channel": 4,
      "note": 43,
      "start": 7.9664,
      "duration": 0.1809,
      "velocity": 113,
      "chip": "ym2612"
    },
    {
      "channel": 5,
      "note": 66,
      "start": 8.0492,
      "duration": 0.095,
      "velocity": 127,
      "chip": "ym2612"
    },
    {
      "channel": 3,
      "note": 60,
      "start": 8.1391,
      "duration": 0.3186,
      "velocity": 94,
      "chip": "ym2612"
    },
    {
      "channel": 2,
      "note": 79,
      "start": 8.1404,
      "duration": 0.3712,
      "velocity": 104,
      "chip": "ym2612"
    },
    {
      "channel": 1,
      "note": 70,
      "start": 8.1418,
      "duration": 0.3169,
      "velocity": 104,
      "chip": "ym2612"
    },
    {
      "channel": 0,
      "note": 72,
      "start": 8.1432,
      "duration": 0.3163,
      "velocity": 94,
      "chip": "ym2612"
    },
    {
      "channel": 5,
      "note": 66,
      "start": 8.1447,
      "duration": 0.1725,
      "velocity": 127,
      "chip": "ym2612"
    },
    {
      "channel": 4,
      "note": 43,
      "start": 8.1477,
      "duration": 0.1709,
      "velocity": 113,
      "chip": "ym2612"
    },
    {
      "channel": 5,
      "note": 66,
      "start": 8.3177,
      "duration": 0.0413,
      "velocity": 127,
      "chip": "ym2612"
    },
    {
      "channel": 4,
      "note": 43,
      "start": 8.3191,
      "duration": 0.1864,
      "velocity": 113,
      "chip": "ym2612"
    },
    {
      "channel": 5,
      "note": 66,
      "start": 8.3595,
      "duration": 0.0429,
      "velocity": 127,
      "chip": "ym2612"
    },
    {
      "channel": 5,
      "note": 66,
      "start": 8.4029,
      "duration": 0.0429,
      "velocity": 127,
      "chip": "ym2612"
    },
    {
      "channel": 5,
      "note": 66,
      "start": 8.4463,
      "duration": 0.0506,
      "velocity": 127,
      "chip": "ym2612"
    },
    {
      "channel": 5,
      "note": 66,
      "start": 8.4973,
      "duration": 0.1727,
      "velocity": 127,
      "chip": "ym2612"
    },
    {
      "channel": 4,
      "note": 39,
      "start": 8.506,
      "duration": 0.1654,
      "velocity": 113,
      "chip": "ym2612"
    },
    {
      "channel": 3,
      "note": 54,
      "start": 8.5108,
      "duration": 0.477,
      "velocity": 94,
      "chip": "ym2612"
    },
    {
      "channel": 2,
      "note": 75,
      "start": 8.5121,
      "duration": 0.1561,
      "velocity": 104,
      "chip": "ym2612"
    },
    {
      "channel": 1,
      "note": 66,
      "start": 8.5135,
      "duration": 0.4752,
      "velocity": 104,
      "chip": "ym2612"
    },
    {
      "channel": 0,
      "note": 66,
      "start": 8.5149,
      "duration": 0.4747,
      "velocity": 94,
      "chip": "ym2612"
    },
    {
      "channel": 2,
      "note": 70,
      "start": 8.6687,
      "duration": 0.1772,
      "velocity": 104,
      "chip": "ym2612"
    },
    {
      "channel": 5,
      "note": 66,
      "start": 8.6705,
      "duration": 0.0808,
      "velocity": 127,
      "chip": "ym2612"
    },
    {
      "channel": 4,
      "note": 39,
      "start": 8.6719,
      "duration": 0.1788,
      "velocity": 113,
      "chip": "ym2612"
    },
    {
      "channel": 5,
      "note": 66,
      "start": 8.7518,
      "duration": 0.0959,
      "velocity": 127,
      "chip": "ym2612"
    },
    {
      "channel": 2,
      "note": 75,
      "start": 8.8464,
      "duration": 0.1741,
      "velocity": 104,
      "chip": "ym2612"
    },
    {
      "channel": 5,
      "note": 66,
      "start": 8.8483,
      "duration": 0.1766,
      "velocity": 127,
      "chip": "ym2612"
    },
    {
      "channel": 4,
      "note": 39,
      "start": 8.8511,
      "duration": 0.1751,
      "velocity": 113,
      "chip": "ym2612"
    },
    {
      "channel": 3,
      "note": 56,
      "start": 9.0197,
      "duration": 0.4982,
      "velocity": 94,
      "chip": "ym2612"
    },
    {
      "channel": 2,
      "note": 75,
      "start": 9.021,
      "duration": 0.1769,
      "velocity": 104,
      "chip": "ym2612"
    },
    {
      "channel": 1,
      "note": 66,
      "start": 9.0224,
      "duration": 0.4964,
      "velocity": 104,
      "chip": "ym2612"
    },
    {
      "channel": 0,
      "note": 68,
      "start": 9.0238,
      "duration": 0.4959,
      "velocity": 94,
      "chip": "ym2612"
    },
    {
      "channel": 5,
      "note": 66,
      "start": 9.0253,
      "duration": 0.0828,
      "velocity": 127,
      "chip": "ym2612"
    },
    {
      "channel": 4,
      "note": 39,
      "start": 9.0267,
      "duration": 0.1759,
      "velocity": 113,
      "chip": "ym2612"
    },
    {
      "channel": 5,
      "note": 66,
      "start": 9.1085,
      "duration": 0.0912,
      "velocity": 127,
      "chip": "ym2612"
    },
    {
      "channel": 2,
      "note": 70,
      "start": 9.1984,
      "duration": 0.1725,
      "velocity": 104,
      "chip": "ym2612"
    },
    {
      "channel": 5,
      "note": 66,
      "start": 9.2002,
      "duration": 0.0837,
      "velocity": 127,
      "chip": "ym2612"
    },
    {
      "channel": 4,
      "note": 39,
      "start": 9.2032,
      "duration": 0.1697,
      "velocity": 113,
      "chip": "ym2612"
    },
    {
      "channel": 5,
      "note": 66,
      "start": 9.2843,
      "duration": 0.0835,
      "velocity": 127,
      "chip": "ym2612"
    },
    {
      "channel": 5,
      "note": 66,
      "start": 9.3682,
      "duration": 0.0912,
      "velocity": 127,
      "chip": "ym2612"
    },
    {
      "channel": 2,
      "note": 75,
      "start": 9.3713,
      "duration": 0.1793,
      "velocity": 104,
      "chip": "ym2612"
    },
    {
      "channel": 4,
      "note": 39,
      "start": 9.3733,
      "duration": 0.1846,
      "velocity": 113,
      "chip": "ym2612"
    },
    {
      "channel": 5,
      "note": 66,
      "start": 9.4599,
      "duration": 0.095,
      "velocity": 127,
      "chip": "ym2612"
    },
    {
      "channel": 3,
      "note": 57,
      "start": 9.5498,
      "duration": 0.497,
      "velocity": 94,
      "chip": "ym2612"
    },
    {
      "channel": 2,
      "note": 75,
      "start": 9.5511,
      "duration": 0.1762,
      "velocity": 104,
      "chip": "ym2612"
    },
    {
      "channel": 1,
      "note": 66,
      "start": 9.5524,
      "duration": 0.4953,
      "velocity": 104,
      "chip": "ym2612"
    },
    {
      "channel": 0,
      "note": 69,
      "start": 9.5539,
      "duration": 0.4947,
      "velocity": 94,
      "chip": "ym2612"
    },
    {
      "channel": 5,
      "note": 66,
      "start": 9.5554,
      "duration": 0.1739,
      "velocity": 127,
      "chip": "ym2612"
    },
    {
      "channel": 4,
      "note": 39,
      "start": 9.5584,
      "duration": 0.1721,
      "velocity": 113,
      "chip": "ym2612"
    },
    {
      "channel": 2,
      "note": 70,
      "start": 9.7278,
      "duration": 0.1724,
      "velocity": 104,
      "chip": "ym2612"
    },
    {
      "channel": 5,
      "note": 66,
      "start": 9.7297,
      "duration": 0.0356,
      "velocity": 127,
      "chip": "ym2612"
    },
    {
      "channel": 4,
      "note": 39,
      "start": 9.7311,
      "duration": 0.1739,
      "velocity": 113,
      "chip": "ym2612"
    },
    {
      "channel": 5,
      "note": 66,
      "start": 9.7657,
      "duration": 0.0477,
      "velocity": 127,
      "chip": "ym2612"
    },
    {
      "channel": 5,
      "note": 66,
      "start": 9.8138,
      "duration": 0.0381,
      "velocity": 127,
      "chip": "ym2612"
    },
    {
      "channel": 5,
      "note": 66,
      "start": 9.8524,
      "duration": 0.0496,
      "velocity": 127,
      "chip": "ym2612"
    },
    {
      "channel": 2,
      "note": 75,
      "start": 9.9007,
      "duration": 0.1798,
      "velocity": 104,
      "chip": "ym2612"
    },
    {
      "channel": 5,
      "note": 66,
      "start": 9.9025,
      "duration": 0.1822,
      "velocity": 127,
      "chip": "ym2612"
    },
    {
      "channel": 4,
      "note": 39,
      "start": 9.9054,
      "duration": 0.1807,
      "velocity": 113,
      "chip": "ym2612"
    },
    {
      "channel": 3,
      "note": 58,
      "start": 10.0796,
      "duration": 0.4921,
      "velocity": 94,
      "chip": "ym2612"
    },
    {
      "channel": 2,
      "note": 75,
      "start": 10.081,
      "duration": 0.1711,
      "velocity": 104,
      "chip": "ym2612"
    },
    {
      "channel": 1,
      "note": 66,
      "start": 10.0823,
      "duration": 0.4903,
      "velocity": 104,
      "chip": "ym2612"
    },
    {
      "channel": 0,
      "note": 70,
      "start": 10.0837,
      "duration": 0.4898,
      "velocity": 94,
      "chip": "ym2612"
    },
    {
      "channel": 5,
      "note": 66,
      "start": 10.0853,
      "duration": 0.0771,
      "velocity": 127,
      "chip": "ym2612"
    },
    {
      "channel": 4,
      "note": 39,
      "start": 10.0866,
      "duration": 0.1703,
      "velocity": 113,
      "chip": "ym2612"
    },
    {
      "channel": 5,
      "note": 66,
      "start": 10.1628,
      "duration": 0.0912,
      "velocity": 127,
      "chip": "ym2612"
    },
    {
      "channel": 2,
      "note": 70,
      "start": 10.2526,
      "duration": 0.1776,
      "velocity": 104,
      "chip": "ym2612"
    },
    {
      "channel": 5,
      "note": 66,
      "start": 10.2545,
      "duration": 0.1775,
      "velocity": 127,
      "chip": "ym2612"
    },
    {
      "channel": 4,
      "note": 39,
      "start": 10.2573,
      "duration": 0.176,
      "velocity": 113,
      "chip": "ym2612"
    },
    {
      "channel": 2,
      "note": 75,
      "start": 10.4306,
      "duration": 0.1748,
      "velocity": 104,
      "chip": "ym2612"
    },
    {
      "channel": 5,
      "note": 66,
      "start": 10.4325,
      "duration": 0.0818,
      "velocity": 127,
      "chip": "ym2612"
    },
    {
      "channel": 4,
      "note": 39,
      "start": 10.4339,
      "duration": 0.1789,
      "velocity": 113,
      "chip": "ym2612"
    },
    {
      "channel": 5,
      "note": 66,
      "start": 10.5147,
      "duration": 0.095,
      "velocity": 127,
      "chip": "ym2612"
    },
    {
      "channel": 3,
      "note": 57,
      "start": 10.6045,
      "duration": 0.3193,
      "velocity": 94,
      "chip": "ym2612"
    },
    {
      "channel": 2,
      "note": 75,
      "start": 10.6059,
      "duration": 0.3554,
      "velocity": 104,
      "chip": "ym2612"
    },
    {
      "channel": 1,
      "note": 66,
      "start": 10.6073,
      "duration": 0.3175,
      "velocity": 104,
      "chip": "ym2612"
    },
    {
      "channel": 0,
      "note": 69,
      "start": 10.6086,
      "duration": 0.317,
      "velocity": 94,
      "chip": "ym2612"
    },
    {
      "channel": 5,
      "note": 66,
      "start": 10.6102,
      "duration": 0.0837,
      "velocity": 127,
      "chip": "ym2612"
    },
    {
      "channel": 4,
      "note": 39,
      "start": 10.6133,
      "duration": 0.1693,
      "velocity": 113,
      "chip": "ym2612"
    },
    {
      "channel": 5,
      "note": 66,
      "start": 10.6944,
      "duration": 0.0844,
      "velocity": 127,
      "chip": "ym2612"
    },
    {
      "channel": 5,
      "note": 66,
      "start": 10.7793,
      "duration": 0.0861,
      "velocity": 127,
      "chip": "ym2612"
    },
    {
      "channel": 4,
      "note": 39,
      "start": 10.783,
      "duration": 0.1856,
      "velocity": 113,
      "chip": "ym2612"
    },
    {
      "channel": 5,
      "note": 66,
      "start": 10.8659,
      "duration": 0.0998,
      "velocity": 127,
      "chip": "ym2612"
    },
    {
      "channel": 3,
      "note": 56,
      "start": 10.9605,
      "duration": 0.3195,
      "velocity": 94,
      "chip": "ym2612"
    },
    {
      "channel": 2,
      "note": 75,
      "start": 10.9619,
      "duration": 0.3554,
      "velocity": 104,
      "chip": "ym2612"
    },
    {
      "channel": 1,
      "note": 66,
      "start": 10.9632,
      "duration": 0.3178,
      "velocity": 104,
      "chip": "ym2612"
    },
    {
      "channel": 0,
      "note": 68,
      "start": 10.9646,
      "duration": 0.3172,
      "velocity": 94,
      "chip": "ym2612"
    },
    {
      "channel": 5,
      "note": 66,
      "start": 10.9661,
      "duration": 0.1678,
      "velocity": 127,
      "chip": "ym2612"
    },
    {
      "channel": 4,
      "note": 39,
      "start": 10.9692,
      "duration": 0.1661,
      "velocity": 113,
      "chip": "ym2612"
    },
    {
      "channel": 5,
      "note": 66,
      "start": 11.1344,
      "duration": 0.0413,
      "velocity": 127,
      "chip": "ym2612"
    },
    {
      "channel": 4,
      "note": 39,
      "start": 11.1358,
      "duration": 0.1859,
      "velocity": 113,
      "chip": "ym2612"
    },
    {
      "channel": 5,
      "note": 66,
      "start": 11.1761,
      "duration": 0.0429,
      "velocity": 127,
      "chip": "ym2612"
    },
    {
      "channel": 5,
      "note": 66,
      "start": 11.2195,
      "duration": 0.0429,
      "velocity": 127,
      "chip": "ym2612"
    },
    {
      "channel": 5,
      "note": 66,
      "start": 11.2629,
      "duration": 0.051,
      "velocity": 127,
      "chip": "ym2612"
    },
    {
      "channel": 5,
      "note": 66,
      "start": 11.3143,
      "duration": 0.1721,
      "velocity": 127,
      "chip": "ym2612"
    },
    {
      "channel": 3,
      "note": 54,
      "start": 11.3164,
      "duration": 0.4887,
      "velocity": 94,
      "chip": "ym2612"
    },
    {
      "channel": 2,
      "note": 75,
      "start": 11.3178,
      "duration": 0.1668,
      "velocity": 104,
      "chip": "ym2612"
    },
    {
      "channel": 1,
      "note": 66,
      "start": 11.3191,
      "duration": 0.487,
      "velocity": 104,
      "chip": "ym2612"
    },
    {
      "channel": 0,
      "note": 66,
      "start": 11.3205,
      "duration": 0.4864,
      "velocity": 94,
      "chip": "ym2612"
    },
    {
      "channel": 4,
      "note": 39,
      "start": 11.3222,
      "duration": 0.1656,
      "velocity": 113,
      "chip": "ym2612"
    },
    {
      "channel": 2,
      "note": 70,
      "start": 11.4851,
      "duration": 0.1782,
      "velocity": 104,
      "chip": "ym2612"
    },
    {
      "channel": 5,
      "note": 66,
      "start": 11.4869,
      "duration": 0.0865,
      "velocity": 127,
      "chip": "ym2612"
    },
    {
      "channel": 4,
      "note": 39,
      "start": 11.4883,
      "duration": 0.1797,
      "velocity": 113,
      "chip": "ym2612"
    },
    {
      "channel": 5,
      "note": 66,
      "start": 11.5739,
      "duration": 0.0912,
      "velocity": 127,
      "chip": "ym2612"
    },
    {
      "channel": 2,
      "note": 75,
      "start": 11.6637,
      "duration": 0.1742,
      "velocity": 104,
      "chip": "ym2612"
    },
    {
      "channel": 5,
      "note": 66,
      "start": 11.6656,
      "duration": 0.1766,
      "velocity": 127,
      "chip": "ym2612"
    },
    {
      "channel": 4,
      "note": 39,
      "start": 11.6685,
      "duration": 0.1751,
      "velocity": 113,
      "chip": "ym2612"
    },
    {
      "channel": 3,
      "note": 56,
      "start": 11.8371,
      "duration": 0.4971,
      "velocity": 94,
      "chip": "ym2612"
    },
    {
      "channel": 2,
      "note": 75,
      "start": 11.8384,
      "duration": 0.1759,
      "velocity": 104,
      "chip": "ym2612"
    },
    {
      "channel": 1,
      "note": 66,
      "start": 11.8397,
      "duration": 0.4954,
      "velocity": 104,
      "chip": "ym2612"
    },
    {
      "channel": 0,
      "note": 68,
      "start": 11.8411,
      "duration": 0.4948,
      "velocity": 94,
      "chip": "ym2612"
    },
    {
      "channel": 5,
      "note": 66,
      "start": 11.8427,
      "duration": 0.0819,
      "velocity": 127,
      "chip": "ym2612"
    },
    {
      "channel": 4,
      "note": 39,
      "start": 11.8441,
      "duration": 0.175,
      "velocity": 113,
      "chip": "ym2612"
    },
    {
      "channel": 5,
      "note": 66,
      "start": 11.925,
      "duration": 0.0912,
      "velocity": 127,
      "chip": "ym2612"
    },
    {
      "channel": 2,
      "note": 70,
      "start": 12.0148,
      "duration": 0.1781,
      "velocity": 104,
      "chip": "ym2612"
    },
    {
      "channel": 5,
      "note": 66,
      "start": 12.0166,
      "duration": 0.0836,
      "velocity": 127,
      "chip": "ym2612"
    },
    {
      "channel": 4,
      "note": 39,
      "start": 12.0196,
      "duration": 0.1753,
      "velocity": 113,
      "chip": "ym2612"
    },
    {
      "channel": 5,
      "note": 66,
      "start": 12.1007,
      "duration": 0.0891,
      "velocity": 127,
      "chip": "ym2612"
    },
    {
      "channel": 5,
      "note": 66,
      "start": 12.1903,
      "duration": 0.0864,
      "velocity": 127,
      "chip": "ym2612"
    },
    {
      "channel": 2,
      "note": 75,
      "start": 12.1934,
      "duration": 0.1736,
      "velocity": 104,
      "chip": "ym2612"
    },
    {
      "channel": 4,
      "note": 39,
      "start": 12.1954,
      "duration": 0.1789,
      "velocity": 113,
      "chip": "ym2612"
    },
    {
      "channel": 5,
      "note": 66,
      "start": 12.2772,
      "duration": 0.0941,
      "velocity": 127,
      "chip": "ym2612"
    },
    {
      "channel": 3,
      "note": 57,
      "start": 12.3661,
      "duration": 0.498,
      "velocity": 94,
      "chip": "ym2612"
    },
    {
      "channel": 2,
      "note": 75,
      "start": 12.3675,
      "duration": 0.1772,
      "velocity": 104,
      "chip": "ym2612"
    },
    {
      "channel": 1,
      "note": 66,
      "start": 12.3688,
      "duration": 0.4962,
      "velocity": 104,
      "chip": "ym2612"
    },
    {
      "channel": 0,
      "note": 69,
      "start": 12.3702,
      "duration": 0.4957,
      "velocity": 94,
      "chip": "ym2612"
    },
    {
      "channel": 5,
      "note": 66,
      "start": 12.3717,
      "duration": 0.1748,
      "velocity": 127,
      "chip": "ym2612"
    },
    {
      "channel": 4,
      "note": 39,
      "start": 12.3747,
      "duration": 0.1732,
      "velocity": 113,
      "chip": "ym2612"
    },
    {
      "channel": 2,
      "note": 70,
      "start": 12.5451,
      "duration": 0.1714,
      "velocity": 104,
      "chip": "ym2612"
    },
    {
      "channel": 5,
      "note": 66,
      "start": 12.547,
      "duration": 0.0346,
      "velocity": 127,
      "chip": "ym2612"
    },
    {
      "channel": 4,
      "note": 39,
      "start": 12.5484,
      "duration": 0.1728,
      "velocity": 113,
      "chip": "ym2612"
    },
    {
      "channel": 5,
      "note": 66,
      "start": 12.5821,
      "duration": 0.0476,
      "velocity": 127,
      "chip": "ym2612"
    },
    {
      "channel": 5,
      "note": 66,
      "start": 12.6302,
      "duration": 0.0428,
      "velocity": 127,
      "chip": "ym2612"
    },
    {
      "channel": 5,
      "note": 66,
      "start": 12.6735,
      "duration": 0.0447,
      "velocity": 127,
      "chip": "ym2612"
    },
    {
      "channel": 2,
      "note": 75,
      "start": 12.717,
      "duration": 0.1799,
      "velocity": 104,
      "chip": "ym2612"
    },
    {
      "channel": 5,
      "note": 66,
      "start": 12.7187,
      "duration": 0.1824,
      "velocity": 127,
      "chip": "ym2612"
    },
    {
      "channel": 4,
      "note": 39,
      "start": 12.7217,
      "duration": 0.1808,
      "velocity": 113,
      "chip": "ym2612"
    },
    {
      "channel": 3,
      "note": 58,
      "start": 12.896,
      "duration": 0.4931,
      "velocity": 94,
      "chip": "ym2612"
    },
    {
      "channel": 2,
      "note": 75,
      "start": 12.8973,
      "duration": 0.1721,
      "velocity": 104,
      "chip": "ym2612"
    },
    {
      "channel": 1,
      "note": 66,
      "start": 12.8987,
      "duration": 0.4913,
      "velocity": 104,
      "chip": "ym2612"
    },
    {
      "channel": 0,
      "note": 70,
      "start": 12.9,
      "duration": 0.4908,
      "velocity": 94,
      "chip": "ym2612"
    },
    {
      "channel": 5,
      "note": 66,
      "start": 12.9016,
      "duration": 0.0781,
      "velocity": 127,
      "chip": "ym2612"
    },
    {
      "channel": 4,
      "note": 39,
      "start": 12.9029,
      "duration": 0.1712,
      "velocity": 113,
      "chip": "ym2612"
    },
    {
      "channel": 5,
      "note": 66,
      "start": 12.9802,
      "duration": 0.0911,
      "velocity": 127,
      "chip": "ym2612"
    },
    {
      "channel": 2,
      "note": 70,
      "start": 13.0699,
      "duration": 0.1776,
      "velocity": 104,
      "chip": "ym2612"
    },
    {
      "channel": 5,
      "note": 66,
      "start": 13.0718,
      "duration": 0.1775,
      "velocity": 127,
      "chip": "ym2612"
    },
    {
      "channel": 4,
      "note": 39,
      "start": 13.0746,
      "duration": 0.176,
      "velocity": 113,
      "chip": "ym2612"
    },
    {
      "channel": 2,
      "note": 75,
      "start": 13.2479,
      "duration": 0.1785,
      "velocity": 104,
      "chip": "ym2612"
    },
    {
      "channel": 5,
      "note": 66,
      "start": 13.2498,
      "duration": 0.0809,
      "velocity": 127,
      "chip": "ym2612"
    },
    {
      "channel": 4,
      "note": 39,
      "start": 13.2512,
      "duration": 0.1827,
      "velocity": 113,
      "chip": "ym2612"
    },
    {
      "channel": 5,
      "note": 66,
      "start": 13.3311,
      "duration": 0.0998,
      "velocity": 127,
      "chip": "ym2612"
    },
    {
      "channel": 3,
      "note": 57,
      "start": 13.4257,
      "duration": 0.3192,
      "velocity": 94,
      "chip": "ym2612"
    },
    {
      "channel": 2,
      "note": 75,
      "start": 13.427,
      "duration": 0.3515,
      "velocity": 104,
      "chip": "ym2612"
    },
    {
      "channel": 1,
      "note": 66,
      "start": 13.4283,
      "duration": 0.3175,
      "velocity": 104,
      "chip": "ym2612"
    },
    {
      "channel": 0,
      "note": 69,
      "start": 13.4297,
      "duration": 0.3169,
      "velocity": 94,
      "chip": "ym2612"
    },
    {
      "channel": 5,
      "note": 66,
      "start": 13.4313,
      "duration": 0.0798,
      "velocity": 127,
      "chip": "ym2612"
    },
    {
      "channel": 4,
      "note": 39,
      "start": 13.4343,
      "duration": 0.1655,
      "velocity": 113,
      "chip": "ym2612"
    },
    {
      "channel": 5,
      "note": 66,
      "start": 13.5117,
      "duration": 0.0844,
      "velocity": 127,
      "chip": "ym2612"
    },
    {
      "channel": 5,
      "note": 66,
      "start": 13.5965,
      "duration": 0.0861,
      "velocity": 127,
      "chip": "ym2612"
    },
    {
      "channel": 4,
      "note": 39,
      "start": 13.6003,
      "duration": 0.1856,
      "velocity": 113,
      "chip": "ym2612"
    },
    {
      "channel": 5,
      "note": 66,
      "start": 13.6831,
      "duration": 0.0998,
      "velocity": 127,
      "chip": "ym2612"
    },
    {
      "channel": 3,
      "note": 56,
      "start": 13.7777,
      "duration": 0.3187,
      "velocity": 94,
      "chip": "ym2612"
    },
    {
      "channel": 2,
      "note": 75,
      "start": 13.779,
      "duration": 0.38,
      "velocity": 104,
      "chip": "ym2612"
    },
    {
      "channel": 1,
      "note": 66,
      "start": 13.7804,
      "duration": 0.3169,
      "velocity": 104,
      "chip": "ym2612"
    },
    {
      "channel": 0,
      "note": 68,
      "start": 13.7818,
      "duration": 0.3164,
      "velocity": 94,
      "chip": "ym2612"
    },
    {
      "channel": 5,
      "note": 66,
      "start": 13.7834,
      "duration": 0.1677,
      "velocity": 127,
      "chip": "ym2612"
    },
    {
      "channel": 4,
      "note": 39,
      "start": 13.7863,
      "duration": 0.1661,
      "velocity": 113,
      "chip": "ym2612"
    },
    {
      "channel": 5,
      "note": 66,
      "start": 13.9516,
      "duration": 0.0413,
      "velocity": 127,
      "chip": "ym2612"
    },
    {
      "channel": 4,
      "note": 39,
      "start": 13.9529,
      "duration": 0.1895,
      "velocity": 113,
      "chip": "ym2612"
    },
    {
      "channel": 5,
      "note": 66,
      "start": 13.9934,
      "duration": 0.0476,
      "velocity": 127,
      "chip": "ym2612"
    },
    {
      "channel": 5,
      "note": 66,
      "start": 14.0415,
      "duration": 0.0382,
      "velocity": 127,
      "chip": "ym2612"
    },
    {
      "channel": 5,
      "note": 66,
      "start": 14.0802,
      "duration": 0.0506,
      "velocity": 127,
      "chip": "ym2612"
    },
    {
      "channel": 5,
      "note": 66,
      "start": 14.1313,
      "duration": 0.172,
      "velocity": 127,
      "chip": "ym2612"
    },
    {
      "channel": 4,
      "note": 43,
      "start": 14.1429,
      "duration": 0.1618,
      "velocity": 113,
      "chip": "ym2612"
    },
    {
      "channel": 2,
      "note": 79,
      "start": 14.1595,
      "duration": 0.142,
      "velocity": 104,
      "chip": "ym2612"
    },
    {
      "channel": 1,
      "note": 70,
      "start": 14.1608,
      "duration": 0.4622,
      "velocity": 104,
      "chip": "ym2612"
    },
    {
      "channel": 3,
      "note": 82,
      "start": 14.1656,
      "duration": 0.4564,
      "velocity": 122,
      "chip": "ym2612"
    },
    {
      "channel": 0,
      "note": 94,
      "start": 14.1673,
      "duration": 0.4565,
      "velocity": 122,
      "chip": "ym2612"
    },
    {
      "channel": 2,
      "note": 74,
      "start": 14.302,
      "duration": 0.1782,
      "velocity": 104,
      "chip": "ym2612"
    },
    {
      "channel": 5,
      "note": 66,
      "start": 14.3039,
      "duration": 0.0864,
      "velocity": 127,
      "chip": "ym2612"
    },
    {
      "channel": 4,
      "note": 43,
      "start": 14.3052,
      "duration": 0.1797,
      "velocity": 113,
      "chip": "ym2612"
    },
    {
      "channel": 5,
      "note": 66,
      "start": 14.3908,
      "duration": 0.0912,
      "velocity": 127,
      "chip": "ym2612"
    },
    {
      "channel": 2,
      "note": 79,
      "start": 14.4806,
      "duration": 0.1789,
      "velocity": 104,
      "chip": "ym2612"
    },
    {
      "channel": 5,
      "note": 66,
      "start": 14.4825,
      "duration": 0.1814,
      "velocity": 127,
      "chip": "ym2612"
    },
    {
      "channel": 4,
      "note": 43,
      "start": 14.4854,
      "duration": 0.1798,
      "velocity": 113,
      "chip": "ym2612"
    },
    {
      "channel": 3,
      "note": 84,
      "start": 14.6587,
      "duration": 0.4926,
      "velocity": 122,
      "chip": "ym2612"
    },
    {
      "channel": 2,
      "note": 79,
      "start": 14.6601,
      "duration": 0.1712,
      "velocity": 104,
      "chip": "ym2612"
    },
    {
      "channel": 1,
      "note": 70,
      "start": 14.6614,
      "duration": 0.4908,
      "velocity": 104,
      "chip": "ym2612"
    },
    {
      "channel": 0,
      "note": 96,
      "start": 14.6628,
      "duration": 0.4901,
      "velocity": 122,
      "chip": "ym2612"
    },
    {
      "channel": 5,
      "note": 66,
      "start": 14.6643,
      "duration": 0.0771,
      "velocity": 127,
      "chip": "ym2612"
    },
    {
      "channel": 4,
      "note": 43,
      "start": 14.6657,
      "duration": 0.1702,
      "velocity": 113,
      "chip": "ym2612"
    },
    {
      "channel": 5,
      "note": 66,
      "start": 14.742,
      "duration": 0.0912,
      "velocity": 127,
      "chip": "ym2612"
    },
    {
      "channel": 2,
      "note": 74,
      "start": 14.8317,
      "duration": 0.1782,
      "velocity": 104,
      "chip": "ym2612"
    },
    {
      "channel": 5,
      "note": 66,
      "start": 14.8336,
      "duration": 0.0836,
      "velocity": 127,
      "chip": "ym2612"
    },
    {
      "channel": 4,
      "note": 43,
      "start": 14.8365,
      "duration": 0.1754,
      "velocity": 113,
      "chip": "ym2612"
    },
    {
      "channel": 5,
      "note": 66,
      "start": 14.9176,
      "duration": 0.0891,
      "velocity": 127,
      "chip": "ym2612"
    },
    {
      "channel": 5,
      "note": 66,
      "start": 15.0073,
      "duration": 0.0865,
      "velocity": 127,
      "chip": "ym2612"
    },
    {
      "channel": 2,
      "note": 79,
      "start": 15.0103,
      "duration": 0.1737,
      "velocity": 104,
      "chip": "ym2612"
    },
    {
      "channel": 4,
      "note": 43,
      "start": 15.0124,
      "duration": 0.1789,
      "velocity": 113,
      "chip": "ym2612"
    },
    {
      "channel": 5,
      "note": 66,
      "start": 15.0942,
      "duration": 0.0941,
      "velocity": 127,
      "chip": "ym2612"
    },
    {
      "channel": 3,
      "note": 85,
      "start": 15.1832,
      "duration": 0.498,
      "velocity": 122,
      "chip": "ym2612"
    },
    {
      "channel": 2,
      "note": 79,
      "start": 15.1845,
      "duration": 0.1772,
      "velocity": 104,
      "chip": "ym2612"
    },
    {
      "channel": 1,
      "note": 70,
      "start": 15.1859,
      "duration": 0.4962,
      "velocity": 104,
      "chip": "ym2612"
    },
    {
      "channel": 0,
      "note": 97,
      "start": 15.1872,
      "duration": 0.4957,
      "velocity": 122,
      "chip": "ym2612"
    },
    {
      "channel": 5,
      "note": 66,
      "start": 15.1888,
      "duration": 0.1748,
      "velocity": 127,
      "chip": "ym2612"
    },
    {
      "channel": 4,
      "note": 43,
      "start": 15.1918,
      "duration": 0.1731,
      "velocity": 113,
      "chip": "ym2612"
    },
    {
      "channel": 2,
      "note": 74,
      "start": 15.3622,
      "duration": 0.1714,
      "velocity": 104,
      "chip": "ym2612"
    },
    {
      "channel": 5,
      "note": 66,
      "start": 15.364,
      "duration": 0.0346,
      "velocity": 127,
      "chip": "ym2612"
    },
    {
      "channel": 4,
      "note": 43,
      "start": 15.3654,
      "duration": 0.1728,
      "velocity": 113,
      "chip": "ym2612"
    },
    {
      "channel": 5,
      "note": 66,
      "start": 15.3991,
      "duration": 0.0476,
      "velocity": 127,
      "chip": "ym2612"
    },
    {
      "channel": 5,
      "note": 66,
      "start": 15.4472,
      "duration": 0.0428,
      "velocity": 127,
      "chip": "ym2612"
    },
    {
      "channel": 5,
      "note": 66,
      "start": 15.4905,
      "duration": 0.0447,
      "velocity": 127,
      "chip": "ym2612"
    },
    {
      "channel": 2,
      "note": 79,
      "start": 15.534,
      "duration": 0.1799,
      "velocity": 104,
      "chip": "ym2612"
    },
    {
      "channel": 5,
      "note": 66,
      "start": 15.5358,
      "duration": 0.1824,
      "velocity": 127,
      "chip": "ym2612"
    },
    {
      "channel": 4,
      "note": 43,
      "start": 15.5388,
      "duration": 0.1808,
      "velocity": 113,
      "chip": "ym2612"
    },
    {
      "channel": 3,
      "note": 86,
      "start": 15.7131,
      "duration": 0.4978,
      "velocity": 122,
      "chip": "ym2612"
    },
    {
      "channel": 2,
      "note": 79,
      "start": 15.7144,
      "duration": 0.1768,
      "velocity": 104,
      "chip": "ym2612"
    },
    {
      "channel": 1,
      "note": 70,
      "start": 15.7157,
      "duration": 0.4961,
      "velocity": 104,
      "chip": "ym2612"
    },
    {
      "channel": 0,
      "note": 98,
      "start": 15.7171,
      "duration": 0.4955,
      "velocity": 122,
      "chip": "ym2612"
    },
    {
      "channel": 5,
      "note": 66,
      "start": 15.7187,
      "duration": 0.078,
      "velocity": 127,
      "chip": "ym2612"
    },
    {
      "channel": 4,
      "note": 43,
      "start": 15.7201,
      "duration": 0.176,
      "velocity": 113,
      "chip": "ym2612"
    },
    {
      "channel": 5,
      "note": 66,
      "start": 15.7972,
      "duration": 0.0959,
      "velocity": 127,
      "chip": "ym2612"
    },
    {
      "channel": 2,
      "note": 74,
      "start": 15.8918,
      "duration": 0.1728,
      "velocity": 104,
      "chip": "ym2612"
    },
    {
      "channel": 5,
      "note": 66,
      "start": 15.8936,
      "duration": 0.1728,
      "velocity": 127,
      "chip": "ym2612"
    },
    {
      "channel": 4,
      "note": 43,
      "start": 15.8965,
      "duration": 0.1712,
      "velocity": 113,
      "chip": "ym2612"
    },
    {
      "channel": 2,
      "note": 79,
      "start": 16.065,
      "duration": 0.1786,
      "velocity": 104,
      "chip": "ym2612"
    },
    {
      "channel": 5,
      "note": 66,
      "start": 16.0669,
      "duration": 0.0808,
      "velocity": 127,
      "chip": "ym2612"
    },
    {
      "channel": 4,
      "note": 43,
      "start": 16.0683,
      "duration": 0.1827,
      "velocity": 113,
      "chip": "ym2612"
    },
    {
      "channel": 5,
      "note": 66,
      "start": 16.1482,
      "duration": 0.0998,
      "velocity": 127,
      "chip": "ym2612"
    },
    {
      "channel": 3,
      "note": 85,
      "start": 16.2427,
      "duration": 0.3192,
      "velocity": 122,
      "chip": "ym2612"
    },
    {
      "channel": 2,
      "note": 79,
      "start": 16.2441,
      "duration": 0.3515,
      "velocity": 104,
      "chip": "ym2612"
    },
    {
      "channel": 1,
      "note": 70,
      "start": 16.2454,
      "duration": 0.3174,
      "velocity": 104,
      "chip": "ym2612"
    },
    {
      "channel": 0,
      "note": 97,
      "start": 16.2468,
      "duration": 0.3168,
      "velocity": 122,
      "chip": "ym2612"
    },
    {
      "channel": 5,
      "note": 66,
      "start": 16.2484,
      "duration": 0.0799,
      "velocity": 127,
      "chip": "ym2612"
    },
    {
      "channel": 4,
      "note": 43,
      "start": 16.2514,
      "duration": 0.1655,
      "velocity": 113,
      "chip": "ym2612"
    },
    {
      "channel": 5,
      "note": 66,
      "start": 16.3287,
      "duration": 0.0843,
      "velocity": 127,
      "chip": "ym2612"
    },
    {
      "channel": 5,
      "note": 66,
      "start": 16.4136,
      "duration": 0.0908,
      "velocity": 127,
      "chip": "ym2612"
    },
    {
      "channel": 4,
      "note": 43,
      "start": 16.4173,
      "duration": 0.1856,
      "velocity": 113,
      "chip": "ym2612"
    },
    {
      "channel": 5,
      "note": 66,
      "start": 16.5049,
      "duration": 0.095,
      "velocity": 127,
      "chip": "ym2612"
    },
    {
      "channel": 3,
      "note": 84,
      "start": 16.5947,
      "duration": 0.3187,
      "velocity": 122,
      "chip": "ym2612"
    },
    {
      "channel": 2,
      "note": 79,
      "start": 16.5961,
      "duration": 0.3555,
      "velocity": 104,
      "chip": "ym2612"
    },
    {
      "channel": 1,
      "note": 70,
      "start": 16.5975,
      "duration": 0.3169,
      "velocity": 104,
      "chip": "ym2612"
    },
    {
      "channel": 0,
      "note": 96,
      "start": 16.5988,
      "duration": 0.3164,
      "velocity": 122,
      "chip": "ym2612"
    },
    {
      "channel": 5,
      "note": 66,
      "start": 16.6004,
      "duration": 0.1678,
      "velocity": 127,
      "chip": "ym2612"
    },
    {
      "channel": 4,
      "note": 43,
      "start": 16.6034,
      "duration": 0.1662,
      "velocity": 113,
      "chip": "ym2612"
    },
    {
      "channel": 5,
      "note": 66,
      "start": 16.7687,
      "duration": 0.0413,
      "velocity": 127,
      "chip": "ym2612"
    },
    {
      "channel": 4,
      "note": 43,
      "start": 16.7701,
      "duration": 0.186,
      "velocity": 113,
      "chip": "ym2612"
    },
    {
      "channel": 5,
      "note": 66,
      "start": 16.8105,
      "duration": 0.0477,
      "velocity": 127,
      "chip": "ym2612"
    },
    {
      "channel": 5,
      "note": 66,
      "start": 16.8585,
      "duration": 0.0382,
      "velocity": 127,
      "chip": "ym2612"
    },
    {
      "channel": 5,
      "note": 66,
      "start": 16.8972,
      "duration": 0.051,
      "velocity": 127,
      "chip": "ym2612"
    },
    {
      "channel": 5,
      "note": 66,
      "start": 16.9487,
      "duration": 0.1768,
      "velocity": 127,
      "chip": "ym2612"
    },
    {
      "channel": 3,
      "note": 82,
      "start": 16.9508,
      "duration": 0.4925,
      "velocity": 122,
      "chip": "ym2612"
    },
    {
      "channel": 2,
      "note": 79,
      "start": 16.9522,
      "duration": 0.1714,
      "velocity": 104,
      "chip": "ym2612"
    },
    {
      "channel": 1,
      "note": 70,
      "start": 16.9535,
      "duration": 0.4907,
      "velocity": 104,
      "chip": "ym2612"
    },
    {
      "channel": 0,
      "note": 94,
      "start": 16.9549,
      "duration": 0.4902,
      "velocity": 122,
      "chip": "ym2612"
    },
    {
      "channel": 4,
      "note": 43,
      "start": 16.9566,
      "duration": 0.1703,
      "velocity": 113,
      "chip": "ym2612"
    },
    {
      "channel": 2,
      "note": 74,
      "start": 17.1241,
      "duration": 0.1725,
      "velocity": 104,
      "chip": "ym2612"
    },
    {
      "channel": 5,
      "note": 66,
      "start": 17.126,
      "duration": 0.0808,
      "velocity": 127,
      "chip": "ym2612"
    },
    {
      "channel": 4,
      "note": 43,
      "start": 17.1274,
      "duration": 0.174,
      "velocity": 113,
      "chip": "ym2612"
    },
    {
      "channel": 5,
      "note": 66,
      "start": 17.2073,
      "duration": 0.0912,
      "velocity": 127,
      "chip": "ym2612"
    },
    {
      "channel": 2,
      "note": 79,
      "start": 17.2971,
      "duration": 0.179,
      "velocity": 104,
      "chip": "ym2612"
    },
    {
      "channel": 5,
      "note": 66,
      "start": 17.299,
      "duration": 0.1814,
      "velocity": 127,
      "chip": "ym2612"
    },
    {
      "channel": 4,
      "note": 43,
      "start": 17.3019,
      "duration": 0.1798,
      "velocity": 113,
      "chip": "ym2612"
    },
    {
      "channel": 3,
      "note": 84,
      "start": 17.4751,
      "duration": 0.4935,
      "velocity": 122,
      "chip": "ym2612"
    },
    {
      "channel": 2,
      "note": 79,
      "start": 17.4766,
      "duration": 0.1721,
      "velocity": 104,
      "chip": "ym2612"
    },
    {
      "channel": 1,
      "note": 70,
      "start": 17.4779,
      "duration": 0.4917,
      "velocity": 104,
      "chip": "ym2612"
    },
    {
      "channel": 0,
      "note": 96,
      "start": 17.4793,
      "duration": 0.4912,
      "velocity": 122,
      "chip": "ym2612"
    },
    {
      "channel": 5,
      "note": 66,
      "start": 17.4808,
      "duration": 0.078,
      "velocity": 127,
      "chip": "ym2612"
    },
    {
      "channel": 4,
      "note": 43,
      "start": 17.4822,
      "duration": 0.1712,
      "velocity": 113,
      "chip": "ym2612"
    },
    {
      "channel": 5,
      "note": 66,
      "start": 17.5593,
      "duration": 0.0912,
      "velocity": 127,
      "chip": "ym2612"
    },
    {
      "channel": 2,
      "note": 74,
      "start": 17.6491,
      "duration": 0.1773,
      "velocity": 104,
      "chip": "ym2612"
    },
    {
      "channel": 5,
      "note": 66,
      "start": 17.651,
      "duration": 0.0884,
      "velocity": 127,
      "chip": "ym2612"
    },
    {
      "channel": 4,
      "note": 43,
      "start": 17.6539,
      "duration": 0.1745,
      "velocity": 113,
      "chip": "ym2612"
    },
    {
      "channel": 5,
      "note": 66,
      "start": 17.7398,
      "duration": 0.0835,
      "velocity": 127,
      "chip": "ym2612"
    },
    {
      "channel": 5,
      "note": 66,
      "start": 17.8238,
      "duration": 0.0864,
      "velocity": 127,
      "chip": "ym2612"
    },
    {
      "channel": 2,
      "note": 79,
      "start": 17.8269,
      "duration": 0.1746,
      "velocity": 104,
      "chip": "ym2612"
    },
    {
      "channel": 4,
      "note": 43,
      "start": 17.8289,
      "duration": 0.1798,
      "velocity": 113,
      "chip": "ym2612"
    },
    {
      "channel": 5,
      "note": 66,
      "start": 17.9107,
      "duration": 0.095,
      "velocity": 127,
      "chip": "ym2612"
    },
    {
      "channel": 3,
      "note": 85,
      "start": 18.0005,
      "duration": 0.4971,
      "velocity": 122,
      "chip": "ym2612"
    },
    {
      "channel": 2,
      "note": 79,
      "start": 18.0019,
      "duration": 0.1762,
      "velocity": 104,
      "chip": "ym2612"
    },
    {
      "channel": 1,
      "note": 70,
      "start": 18.0033,
      "duration": 0.4953,
      "velocity": 104,
      "chip": "ym2612"
    },
    {
      "channel": 0,
      "note": 97,
      "start": 18.0046,
      "duration": 0.4947,
      "velocity": 122,
      "chip": "ym2612"
    },
    {
      "channel": 5,
      "note": 66,
      "start": 18.0062,
      "duration": 0.1739,
      "velocity": 127,
      "chip": "ym2612"
    },
    {
      "channel": 4,
      "note": 43,
      "start": 18.0092,
      "duration": 0.1722,
      "velocity": 113,
      "chip": "ym2612"
    },
    {
      "channel": 2,
      "note": 74,
      "start": 18.1787,
      "duration": 0.177,
      "velocity": 104,
      "chip": "ym2612"
    },
    {
      "channel": 5,
      "note": 66,
      "start": 18.1805,
      "duration": 0.0403,
      "velocity": 127,
      "chip": "ym2612"
    },
    {
      "channel": 4,
      "note": 43,
      "start": 18.1819,
      "duration": 0.1785,
      "velocity": 113,
      "chip": "ym2612"
    },
    {
      "channel": 5,
      "note": 66,
      "start": 18.2213,
      "duration": 0.0429,
      "velocity": 127,
      "chip": "ym2612"
    },
    {
      "channel": 5,
      "note": 66,
      "start": 18.2646,
      "duration": 0.0429,
      "velocity": 127,
      "chip": "ym2612"
    },
    {
      "channel": 5,
      "note": 66,
      "start": 18.3079,
      "duration": 0.0495,
      "velocity": 127,
      "chip": "ym2612"
    },
    {
      "channel": 2,
      "note": 79,
      "start": 18.3561,
      "duration": 0.1752,
      "velocity": 104,
      "chip": "ym2612"
    },
    {
      "channel": 5,
      "note": 66,
      "start": 18.3579,
      "duration": 0.1777,
      "velocity": 127,
      "chip": "ym2612"
    },
    {
      "channel": 4,
      "note": 43,
      "start": 18.3609,
      "duration": 0.1761,
      "velocity": 113,
      "chip": "ym2612"
    },
    {
      "channel": 3,
      "note": 86,
      "start": 18.5304,
      "duration": 0.497,
      "velocity": 122,
      "chip": "ym2612"
    },
    {
      "channel": 2,
      "note": 79,
      "start": 18.5318,
      "duration": 0.1759,
      "velocity": 104,
      "chip": "ym2612"
    },
    {
      "channel": 1,
      "note": 70,
      "start": 18.5332,
      "duration": 0.4952,
      "velocity": 104,
      "chip": "ym2612"
    },
    {
      "channel": 0,
      "note": 98,
      "start": 18.5345,
      "duration": 0.4946,
      "velocity": 122,
      "chip": "ym2612"
    },
    {
      "channel": 5,
      "note": 66,
      "start": 18.5361,
      "duration": 0.0771,
      "velocity": 127,
      "chip": "ym2612"
    },
    {
      "channel": 4,
      "note": 43,
      "start": 18.5374,
      "duration": 0.1751,
      "velocity": 113,
      "chip": "ym2612"
    },
    {
      "channel": 5,
      "note": 66,
      "start": 18.6137,
      "duration": 0.0959,
      "velocity": 127,
      "chip": "ym2612"
    },
    {
      "channel": 2,
      "note": 74,
      "start": 18.7082,
      "duration": 0.1728,
      "velocity": 104,
      "chip": "ym2612"
    },
    {
      "channel": 5,
      "note": 66,
      "start": 18.7101,
      "duration": 0.1728,
      "velocity": 127,
      "chip": "ym2612"
    },
    {
      "channel": 4,
      "note": 43,
      "start": 18.713,
      "duration": 0.1712,
      "velocity": 113,
      "chip": "ym2612"
    },
    {
      "channel": 2,
      "note": 79,
      "start": 18.8815,
      "duration": 0.1795,
      "velocity": 104,
      "chip": "ym2612"
    },
    {
      "channel": 5,
      "note": 66,
      "start": 18.8834,
      "duration": 0.0865,
      "velocity": 127,
      "chip": "ym2612"
    },
    {
      "channel": 4,
      "note": 43,
      "start": 18.8848,
      "duration": 0.1837,
      "velocity": 113,
      "chip": "ym2612"
    },
    {
      "channel": 5,
      "note": 66,
      "start": 18.9704,
      "duration": 0.095,
      "velocity": 127,
      "chip": "ym2612"
    },
    {
      "channel": 3,
      "note": 85,
      "start": 19.0602,
      "duration": 0.3192,
      "velocity": 122,
      "chip": "ym2612"
    },
    {
      "channel": 2,
      "note": 79,
      "start": 19.0615,
      "duration": 0.3506,
      "velocity": 104,
      "chip": "ym2612"
    },
    {
      "channel": 1,
      "note": 70,
      "start": 19.0629,
      "duration": 0.3174,
      "velocity": 104,
      "chip": "ym2612"
    },
    {
      "channel": 0,
      "note": 97,
      "start": 19.0643,
      "duration": 0.3168,
      "velocity": 122,
      "chip": "ym2612"
    },
    {
      "channel": 5,
      "note": 66,
      "start": 19.0659,
      "duration": 0.0789,
      "velocity": 127,
      "chip": "ym2612"
    },
    {
      "channel": 4,
      "note": 43,
      "start": 19.0689,
      "duration": 0.1645,
      "velocity": 113,
      "chip": "ym2612"
    },
    {
      "channel": 5,
      "note": 66,
      "start": 19.1453,
      "duration": 0.0844,
      "velocity": 127,
      "chip": "ym2612"
    },
    {
      "channel": 5,
      "note": 66,
      "start": 19.2301,
      "duration": 0.0908,
      "velocity": 127,
      "chip": "ym2612"
    },
    {
      "channel": 4,
      "note": 43,
      "start": 19.2339,
      "duration": 0.1856,
      "velocity": 113,
      "chip": "ym2612"
    },
    {
      "channel": 5,
      "note": 66,
      "start": 19.3214,
      "duration": 0.095,
      "velocity": 127,
      "chip": "ym2612"
    },
    {
      "channel": 3,
      "note": 84,
      "start": 19.4112,
      "duration": 0.3195,
      "velocity": 122,
      "chip": "ym2612"
    },
    {
      "channel": 2,
      "note": 79,
      "start": 19.4126,
      "duration": 0.3664,
      "velocity": 104,
      "chip": "ym2612"
    },
    {
      "channel": 1,
      "note": 70,
      "start": 19.414,
      "duration": 0.3177,
      "velocity": 104,
      "chip": "ym2612"
    },
    {
      "channel": 0,
      "note": 96,
      "start": 19.4154,
      "duration": 0.3172,
      "velocity": 122,
      "chip": "ym2612"
    },
    {
      "channel": 5,
      "note": 66,
      "start": 19.4169,
      "duration": 0.1724,
      "velocity": 127,
      "chip": "ym2612"
    },
    {
      "channel": 4,
      "note": 43,
      "start": 19.4199,
      "duration": 0.1708,
      "velocity": 113,
      "chip": "ym2612"
    },
    {
      "channel": 5,
      "note": 66,
      "start": 19.5898,
      "duration": 0.0366,
      "velocity": 127,
      "chip": "ym2612"
    },
    {
      "channel": 4,
      "note": 43,
      "start": 19.5912,
      "duration": 0.1817,
      "velocity": 113,
      "chip": "ym2612"
    },
    {
      "channel": 5,
      "note": 66,
      "start": 19.6269,
      "duration": 0.0476,
      "velocity": 127,
      "chip": "ym2612"
    },
    {
      "channel": 5,
      "note": 66,
      "start": 19.675,
      "duration": 0.0382,
      "velocity": 127,
      "chip": "ym2612"
    },
    {
      "channel": 5,
      "note": 66,
      "start": 19.7136,
      "duration": 0.0506,
      "velocity": 127,
      "chip": "ym2612"
    },
    {
      "channel": 5,
      "note": 66,
      "start": 19.7647,
      "duration": 0.1774,
      "velocity": 127,
      "chip": "ym2612"
    },
    {
      "channel": 4,
      "note": 39,
      "start": 19.7734,
      "duration": 0.1702,
      "velocity": 113,
      "chip": "ym2612"
    },
    {
      "channel": 3,
      "note": 78,
      "start": 19.7781,
      "duration": 0.4818,
      "velocity": 122,
      "chip": "ym2612"
    },
    {
      "channel": 2,
      "note": 75,
      "start": 19.7795,
      "duration": 0.1607,
      "velocity": 104,
      "chip": "ym2612"
    },
    {
      "channel": 1,
      "note": 66,
      "start": 19.7809,
      "duration": 0.48,
      "velocity": 104,
      "chip": "ym2612"
    },
    {
      "channel": 0,
      "note": 90,
      "start": 19.7822,
      "duration": 0.4795,
      "velocity": 122,
      "chip": "ym2612"
    },
    {
      "channel": 2,
      "note": 70,
      "start": 19.9408,
      "duration": 0.1735,
      "velocity": 104,
      "chip": "ym2612"
    },
    {
      "channel": 5,
      "note": 66,
      "start": 19.9427,
      "duration": 0.0817,
      "velocity": 127,
      "chip": "ym2612"
    },
    {
      "channel": 4,
      "note": 39,
      "start": 19.9441,
      "duration": 0.1749,
      "velocity": 113,
      "chip": "ym2612"
    },
    {
      "channel": 5,
      "note": 66,
      "start": 20.0249,
      "duration": 0.0912,
      "velocity": 127,
      "chip": "ym2612"
    },
    {
      "channel": 2,
      "note": 75,
      "start": 20.1147,
      "duration": 0.179,
      "velocity": 104,
      "chip": "ym2612"
    },
    {
      "channel": 5,
      "note": 66,
      "start": 20.1166,
      "duration": 0.1814,
      "velocity": 127,
      "chip": "ym2612"
    },
    {
      "channel": 4,
      "note": 39,
      "start": 20.1195,
      "duration": 0.1799,
      "velocity": 113,
      "chip": "ym2612"
    },
    {
      "channel": 3,
      "note": 80,
      "start": 20.2928,
      "duration": 0.4925,
      "velocity": 122,
      "chip": "ym2612"
    },
    {
      "channel": 2,
      "note": 75,
      "start": 20.2942,
      "duration": 0.1712,
      "velocity": 104,
      "chip": "ym2612"
    },
    {
      "channel": 1,
      "note": 66,
      "start": 20.2956,
      "duration": 0.4907,
      "velocity": 104,
      "chip": "ym2612"
    },
    {
      "channel": 0,
      "note": 92,
      "start": 20.2969,
      "duration": 0.4902,
      "velocity": 122,
      "chip": "ym2612"
    },
    {
      "channel": 5,
      "note": 66,
      "start": 20.2985,
      "duration": 0.077,
      "velocity": 127,
      "chip": "ym2612"
    },
    {
      "channel": 4,
      "note": 39,
      "start": 20.2998,
      "duration": 0.1703,
      "velocity": 113,
      "chip": "ym2612"
    },
    {
      "channel": 5,
      "note": 66,
      "start": 20.3761,
      "duration": 0.0912,
      "velocity": 127,
      "chip": "ym2612"
    },
    {
      "channel": 2,
      "note": 70,
      "start": 20.4659,
      "duration": 0.1781,
      "velocity": 104,
      "chip": "ym2612"
    },
    {
      "channel": 5,
      "note": 66,
      "start": 20.4677,
      "duration": 0.0883,
      "velocity": 127,
      "chip": "ym2612"
    },
    {
      "channel": 4,
      "note": 39,
      "start": 20.4706,
      "duration": 0.1755,
      "velocity": 113,
      "chip": "ym2612"
    },
    {
      "channel": 5,
      "note": 66,
      "start": 20.5565,
      "duration": 0.0844,
      "velocity": 127,
      "chip": "ym2612"
    },
    {
      "channel": 5,
      "note": 66,
      "start": 20.6414,
      "duration": 0.0855,
      "velocity": 127,
      "chip": "ym2612"
    },
    {
      "channel": 2,
      "note": 75,
      "start": 20.6445,
      "duration": 0.1783,
      "velocity": 104,
      "chip": "ym2612"
    },
    {
      "channel": 4,
      "note": 39,
      "start": 20.6465,
      "duration": 0.1836,
      "velocity": 113,
      "chip": "ym2612"
    },
    {
      "channel": 5,
      "note": 66,
      "start": 20.7274,
      "duration": 0.0997,
      "velocity": 127,
      "chip": "ym2612"
    },
    {
      "channel": 3,
      "note": 81,
      "start": 20.822,
      "duration": 0.4933,
      "velocity": 122,
      "chip": "ym2612"
    },
    {
      "channel": 2,
      "note": 75,
      "start": 20.8233,
      "duration": 0.1715,
      "velocity": 104,
      "chip": "ym2612"
    },
    {
      "channel": 1,
      "note": 66,
      "start": 20.8246,
      "duration": 0.4916,
      "velocity": 104,
      "chip": "ym2612"
    },
    {
      "channel": 0,
      "note": 93,
      "start": 20.8261,
      "duration": 0.491,
      "velocity": 122,
      "chip": "ym2612"
    },
    {
      "channel": 5,
      "note": 66,
      "start": 20.8276,
      "duration": 0.1691,
      "velocity": 127,
      "chip": "ym2612"
    },
    {
      "channel": 4,
      "note": 39,
      "start": 20.8306,
      "duration": 0.1674,
      "velocity": 113,
      "chip": "ym2612"
    },
    {
      "channel": 2,
      "note": 70,
      "start": 20.9953,
      "duration": 0.1771,
      "velocity": 104,
      "chip": "ym2612"
    },
    {
      "channel": 5,
      "note": 66,
      "start": 20.9972,
      "duration": 0.0403,
      "velocity": 127,
      "chip": "ym2612"
    },
    {
      "channel": 4,
      "note": 39,
      "start": 20.9986,
      "duration": 0.1786,
      "velocity": 113,
      "chip": "ym2612"
    },
    {
      "channel": 5,
      "note": 66,
      "start": 21.0379,
      "duration": 0.0429,
      "velocity": 127,
      "chip": "ym2612"
    },
    {
      "channel": 5,
      "note": 66,
      "start": 21.0813,
      "duration": 0.0428,
      "velocity": 127,
      "chip": "ym2612"
    },
    {
      "channel": 5,
      "note": 66,
      "start": 21.1246,
      "duration": 0.0495,
      "velocity": 127,
      "chip": "ym2612"
    },
    {
      "channel": 2,
      "note": 75,
      "start": 21.1729,
      "duration": 0.1752,
      "velocity": 104,
      "chip": "ym2612"
    },
    {
      "channel": 5,
      "note": 66,
      "start": 21.1746,
      "duration": 0.1777,
      "velocity": 127,
      "chip": "ym2612"
    },
    {
      "channel": 4,
      "note": 39,
      "start": 21.1776,
      "duration": 0.1761,
      "velocity": 113,
      "chip": "ym2612"
    },
    {
      "channel": 3,
      "note": 82,
      "start": 21.3472,
      "duration": 0.4969,
      "velocity": 122,
      "chip": "ym2612"
    },
    {
      "channel": 2,
      "note": 75,
      "start": 21.3486,
      "duration": 0.1759,
      "velocity": 104,
      "chip": "ym2612"
    },
    {
      "channel": 1,
      "note": 66,
      "start": 21.3499,
      "duration": 0.4951,
      "velocity": 104,
      "chip": "ym2612"
    },
    {
      "channel": 0,
      "note": 94,
      "start": 21.3512,
      "duration": 0.4946,
      "velocity": 122,
      "chip": "ym2612"
    },
    {
      "channel": 5,
      "note": 66,
      "start": 21.3528,
      "duration": 0.0818,
      "velocity": 127,
      "chip": "ym2612"
    },
    {
      "channel": 4,
      "note": 39,
      "start": 21.3542,
      "duration": 0.1751,
      "velocity": 113,
      "chip": "ym2612"
    },
    {
      "channel": 5,
      "note": 66,
      "start": 21.4351,
      "duration": 0.0912,
      "velocity": 127,
      "chip": "ym2612"
    },
    {
      "channel": 2,
      "note": 70,
      "start": 21.525,
      "duration": 0.1728,
      "velocity": 104,
      "chip": "ym2612"
    },
    {
      "channel": 5,
      "note": 66,
      "start": 21.5268,
      "duration": 0.1728,
      "velocity": 127,
      "chip": "ym2612"
    },
    {
      "channel": 4,
      "note": 39,
      "start": 21.5297,
      "duration": 0.1712,
      "velocity": 113,
      "chip": "ym2612"
    },
    {
      "channel": 2,
      "note": 75,
      "start": 21.6983,
      "duration": 0.1795,
      "velocity": 104,
      "chip": "ym2612"
    },
    {
      "channel": 5,
      "note": 66,
      "start": 21.7001,
      "duration": 0.0865,
      "velocity": 127,
      "chip": "ym2612"
    },
    {
      "channel": 4,
      "note": 39,
      "start": 21.7015,
      "duration": 0.1837,
      "velocity": 113,
      "chip": "ym2612"
    },
    {
      "channel": 5,
      "note": 66,
      "start": 21.7871,
      "duration": 0.095,
      "velocity": 127,
      "chip": "ym2612"
    },
    {
      "channel": 3,
      "note": 81,
      "start": 21.8769,
      "duration": 0.3192,
      "velocity": 122,
      "chip": "ym2612"
    },
    {
      "channel": 2,
      "note": 75,
      "start": 21.8783,
      "duration": 0.3506,
      "velocity": 104,
      "chip": "ym2612"
    },
    {
      "channel": 1,
      "note": 66,
      "start": 21.8797,
      "duration": 0.3174,
      "velocity": 104,
      "chip": "ym2612"
    },
    {
      "channel": 0,
      "note": 93,
      "start": 21.881,
      "duration": 0.3169,
      "velocity": 122,
      "chip": "ym2612"
    },
    {
      "channel": 5,
      "note": 66,
      "start": 21.8826,
      "duration": 0.0799,
      "velocity": 127,
      "chip": "ym2612"
    },
    {
      "channel": 4,
      "note": 39,
      "start": 21.8856,
      "duration": 0.1693,
      "velocity": 113,
      "chip": "ym2612"
    },
    {
      "channel": 5,
      "note": 66,
      "start": 21.963,
      "duration": 0.0881,
      "velocity": 127,
      "chip": "ym2612"
    },
    {
      "channel": 5,
      "note": 66,
      "start": 22.0516,
      "duration": 0.0861,
      "velocity": 127,
      "chip": "ym2612"
    },
    {
      "channel": 4,
      "note": 39,
      "start": 22.0554,
      "duration": 0.1809,
      "velocity": 113,
      "chip": "ym2612"
    },
    {
      "channel": 5,
      "note": 66,
      "start": 22.1382,
      "duration": 0.0951,
      "velocity": 127,
      "chip": "ym2612"
    },
    {
      "channel": 3,
      "note": 80,
      "start": 22.228,
      "duration": 0.3196,
      "velocity": 122,
      "chip": "ym2612"
    },
    {
      "channel": 2,
      "note": 75,
      "start": 22.2294,
      "duration": 0.3555,
      "velocity": 104,
      "chip": "ym2612"
    },
    {
      "channel": 1,
      "note": 66,
      "start": 22.2307,
      "duration": 0.3178,
      "velocity": 104,
      "chip": "ym2612"
    },
    {
      "channel": 0,
      "note": 92,
      "start": 22.2322,
      "duration": 0.3172,
      "velocity": 122,
      "chip": "ym2612"
    },
    {
      "channel": 5,
      "note": 66,
      "start": 22.2337,
      "duration": 0.1725,
      "velocity": 127,
      "chip": "ym2612"
    },
    {
      "channel": 4,
      "note": 39,
      "start": 22.2367,
      "duration": 0.1709,
      "velocity": 113,
      "chip": "ym2612"
    },
    {
      "channel": 5,
      "note": 66,
      "start": 22.4066,
      "duration": 0.0366,
      "velocity": 127,
      "chip": "ym2612"
    },
    {
      "channel": 4,
      "note": 39,
      "start": 22.408,
      "duration": 0.1812,
      "velocity": 113,
      "chip": "ym2612"
    },
    {
      "channel": 5,
      "note": 66,
      "start": 22.4437,
      "duration": 0.0476,
      "velocity": 127,
      "chip": "ym2612"
    },
    {
      "channel": 5,
      "note": 66,
      "start": 22.4918,
      "duration": 0.0429,
      "velocity": 127,
      "chip": "ym2612"
    },
    {
      "channel": 5,
      "note": 66,
      "start": 22.5351,
      "duration": 0.0462,
      "velocity": 127,
      "chip": "ym2612"
    },
    {
      "channel": 5,
      "note": 66,
      "start": 22.5819,
      "duration": 0.1777,
      "velocity": 127,
      "chip": "ym2612"
    },
    {
      "channel": 3,
      "note": 78,
      "start": 22.584,
      "duration": 0.4934,
      "velocity": 122,
      "chip": "ym2612"
    },
    {
      "channel": 2,
      "note": 75,
      "start": 22.5854,
      "duration": 0.1724,
      "velocity": 104,
      "chip": "ym2612"
    },
    {
      "channel": 1,
      "note": 66,
      "start": 22.5867,
      "duration": 0.4917,
      "velocity": 104,
      "chip": "ym2612"
    },
    {
      "channel": 0,
      "note": 90,
      "start": 22.5881,
      "duration": 0.4912,
      "velocity": 122,
      "chip": "ym2612"
    },
    {
      "channel": 4,
      "note": 39,
      "start": 22.5898,
      "duration": 0.1712,
      "velocity": 113,
      "chip": "ym2612"
    },
    {
      "channel": 2,
      "note": 70,
      "start": 22.7583,
      "duration": 0.1725,
      "velocity": 104,
      "chip": "ym2612"
    },
    {
      "channel": 5,
      "note": 66,
      "start": 22.7601,
      "duration": 0.0809,
      "velocity": 127,
      "chip": "ym2612"
    },
    {
      "channel": 4,
      "note": 39,
      "start": 22.7615,
      "duration": 0.174,
      "velocity": 113,
      "chip": "ym2612"
    },
    {
      "channel": 5,
      "note": 66,
      "start": 22.8415,
      "duration": 0.0912,
      "velocity": 127,
      "chip": "ym2612"
    },
    {
      "channel": 2,
      "note": 75,
      "start": 22.9313,
      "duration": 0.1789,
      "velocity": 104,
      "chip": "ym2612"
    },
    {
      "channel": 5,
      "note": 66,
      "start": 22.9331,
      "duration": 0.1814,
      "velocity": 127,
      "chip": "ym2612"
    },
    {
      "channel": 4,
      "note": 39,
      "start": 22.936,
      "duration": 0.1798,
      "velocity": 113,
      "chip": "ym2612"
    },
    {
      "channel": 3,
      "note": 80,
      "start": 23.1093,
      "duration": 0.4973,
      "velocity": 122,
      "chip": "ym2612"
    },
    {
      "channel": 2,
      "note": 75,
      "start": 23.1107,
      "duration": 0.1768,
      "velocity": 104,
      "chip": "ym2612"
    },
    {
      "channel": 1,
      "note": 66,
      "start": 23.1121,
      "duration": 0.4955,
      "velocity": 104,
      "chip": "ym2612"
    },
    {
      "channel": 0,
      "note": 92,
      "start": 23.1134,
      "duration": 0.4949,
      "velocity": 122,
      "chip": "ym2612"
    },
    {
      "channel": 5,
      "note": 66,
      "start": 23.115,
      "duration": 0.078,
      "velocity": 127,
      "chip": "ym2612"
    },
    {
      "channel": 4,
      "note": 39,
      "start": 23.1164,
      "duration": 0.176,
      "velocity": 113,
      "chip": "ym2612"
    },
    {
      "channel": 5,
      "note": 66,
      "start": 23.1935,
      "duration": 0.0959,
      "velocity": 127,
      "chip": "ym2612"
    },
    {
      "channel": 2,
      "note": 70,
      "start": 23.2881,
      "duration": 0.1724,
      "velocity": 104,
      "chip": "ym2612"
    },
    {
      "channel": 5,
      "note": 66,
      "start": 23.2899,
      "duration": 0.0827,
      "velocity": 127,
      "chip": "ym2612"
    },
    {
      "channel": 4,
      "note": 39,
      "start": 23.2928,
      "duration": 0.1697,
      "velocity": 113,
      "chip": "ym2612"
    },
    {
      "channel": 5,
      "note": 66,
      "start": 23.3731,
      "duration": 0.0844,
      "velocity": 127,
      "chip": "ym2612"
    },
    {
      "channel": 5,
      "note": 66,
      "start": 23.4579,
      "duration": 0.0865,
      "velocity": 127,
      "chip": "ym2612"
    },
    {
      "channel": 2,
      "note": 75,
      "start": 23.461,
      "duration": 0.1793,
      "velocity": 104,
      "chip": "ym2612"
    },
    {
      "channel": 4,
      "note": 39,
      "start": 23.4631,
      "duration": 0.1846,
      "velocity": 113,
      "chip": "ym2612"
    },
    {
      "channel": 5,
      "note": 66,
      "start": 23.5448,
      "duration": 0.0998,
      "velocity": 127,
      "chip": "ym2612"
    },
    {
      "channel": 3,
      "note": 81,
      "start": 23.6395,
      "duration": 0.4924,
      "velocity": 122,
      "chip": "ym2612"
    },
    {
      "channel": 2,
      "note": 75,
      "start": 23.6408,
      "duration": 0.1716,
      "velocity": 104,
      "chip": "ym2612"
    },
    {
      "channel": 1,
      "note": 66,
      "start": 23.6421,
      "duration": 0.4907,
      "velocity": 104,
      "chip": "ym2612"
    },
    {
      "channel": 0,
      "note": 93,
      "start": 23.6435,
      "duration": 0.49,
      "velocity": 122,
      "chip": "ym2612"
    },
    {
      "channel": 5,
      "note": 66,
      "start": 23.6451,
      "duration": 0.1692,
      "velocity": 127,
      "chip": "ym2612"
    },
    {
      "channel": 4,
      "note": 39,
      "start": 23.6481,
      "duration": 0.1674,
      "velocity": 113,
      "chip": "ym2612"
    },
    {
      "channel": 2,
      "note": 70,
      "start": 23.8129,
      "duration": 0.1761,
      "velocity": 104,
      "chip": "ym2612"
    },
    {
      "channel": 5,
      "note": 66,
      "start": 23.8147,
      "duration": 0.0393,
      "velocity": 127,
      "chip": "ym2612"
    },
    {
      "channel": 4,
      "note": 39,
      "start": 23.8161,
      "duration": 0.1777,
      "velocity": 113,
      "chip": "ym2612"
    },
    {
      "channel": 5,
      "note": 66,
      "start": 23.8545,
      "duration": 0.0485,
      "velocity": 127,
      "chip": "ym2612"
    },
    {
      "channel": 5,
      "note": 66,
      "start": 23.9035,
      "duration": 0.0372,
      "velocity": 127,
      "chip": "ym2612"
    },
    {
      "channel": 5,
      "note": 66,
      "start": 23.9412,
      "duration": 0.0496,
      "velocity": 127,
      "chip": "ym2612"
    },
    {
      "channel": 2,
      "note": 75,
      "start": 23.9895,
      "duration": 0.1751,
      "velocity": 104,
      "chip": "ym2612"
    },
    {
      "channel": 5,
      "note": 66,
      "start": 23.9912,
      "duration": 0.1777,
      "velocity": 127,
      "chip": "ym2612"
    },
    {
      "channel": 4,
      "note": 39,
      "start": 23.9942,
      "duration": 0.176,
      "velocity": 113,
      "chip": "ym2612"
    },
    {
      "channel": 3,
      "note": 82,
      "start": 24.1637,
      "duration": 0.4979,
      "velocity": 122,
      "chip": "ym2612"
    },
    {
      "channel": 2,
      "note": 75,
      "start": 24.1651,
      "duration": 0.1768,
      "velocity": 104,
      "chip": "ym2612"
    },
    {
      "channel": 1,
      "note": 66,
      "start": 24.1664,
      "duration": 0.4961,
      "velocity": 104,
      "chip": "ym2612"
    },
    {
      "channel": 0,
      "note": 94,
      "start": 24.1678,
      "duration": 0.4956,
      "velocity": 122,
      "chip": "ym2612"
    },
    {
      "channel": 5,
      "note": 66,
      "start": 24.1694,
      "duration": 0.0828,
      "velocity": 127,
      "chip": "ym2612"
    },
    {
      "channel": 4,
      "note": 39,
      "start": 24.1707,
      "duration": 0.1761,
      "velocity": 113,
      "chip": "ym2612"
    },
    {
      "channel": 5,
      "note": 66,
      "start": 24.2526,
      "duration": 0.0912,
      "velocity": 127,
      "chip": "ym2612"
    },
    {
      "channel": 2,
      "note": 70,
      "start": 24.3424,
      "duration": 0.1776,
      "velocity": 104,
      "chip": "ym2612"
    },
    {
      "channel": 5,
      "note": 66,
      "start": 24.3443,
      "duration": 0.1776,
      "velocity": 127,
      "chip": "ym2612"
    },
    {
      "channel": 4,
      "note": 39,
      "start": 24.3472,
      "duration": 0.176,
      "velocity": 113,
      "chip": "ym2612"
    },
    {
      "channel": 2,
      "note": 75,
      "start": 24.5205,
      "duration": 0.1739,
      "velocity": 104,
      "chip": "ym2612"
    },
    {
      "channel": 5,
      "note": 66,
      "start": 24.5224,
      "duration": 0.0809,
      "velocity": 127,
      "chip": "ym2612"
    },
    {
      "channel": 4,
      "note": 39,
      "start": 24.5238,
      "duration": 0.1779,
      "velocity": 113,
      "chip": "ym2612"
    },
    {
      "channel": 5,
      "note": 66,
      "start": 24.6037,
      "duration": 0.095,
      "velocity": 127,
      "chip": "ym2612"
    },
    {
      "channel": 3,
      "note": 81,
      "start": 24.6935,
      "duration": 0.3193,
      "velocity": 122,
      "chip": "ym2612"
    },
    {
      "channel": 2,
      "note": 75,
      "start": 24.6949,
      "duration": 0.3516,
      "velocity": 104,
      "chip": "ym2612"
    },
    {
      "channel": 1,
      "note": 66,
      "start": 24.6962,
      "duration": 0.3175,
      "velocity": 104,
      "chip": "ym2612"
    },
    {
      "channel": 0,
      "note": 93,
      "start": 24.6976,
      "duration": 0.3168,
      "velocity": 122,
      "chip": "ym2612"
    },
    {
      "channel": 5,
      "note": 66,
      "start": 24.6991,
      "duration": 0.0799,
      "velocity": 127,
      "chip": "ym2612"
    },
    {
      "channel": 4,
      "note": 39,
      "start": 24.7021,
      "duration": 0.1703,
      "velocity": 113,
      "chip": "ym2612"
    },
    {
      "channel": 5,
      "note": 66,
      "start": 24.7795,
      "duration": 0.089,
      "velocity": 127,
      "chip": "ym2612"
    },
    {
      "channel": 5,
      "note": 66,
      "start": 24.8691,
      "duration": 0.0861,
      "velocity": 127,
      "chip": "ym2612"
    },
    {
      "channel": 4,
      "note": 39,
      "start": 24.8729,
      "duration": 0.1809,
      "velocity": 113,
      "chip": "ym2612"
    },
    {
      "channel": 5,
      "note": 66,
      "start": 24.9557,
      "duration": 0.095,
      "velocity": 127,
      "chip": "ym2612"
    },
    {
      "channel": 3,
      "note": 80,
      "start": 25.0456,
      "duration": 0.3186,
      "velocity": 122,
      "chip": "ym2612"
    },
    {
      "channel": 2,
      "note": 75,
      "start": 25.0469,
      "duration": 0.3802,
      "velocity": 104,
      "chip": "ym2612"
    },
    {
      "channel": 1,
      "note": 66,
      "start": 25.0483,
      "duration": 0.3168,
      "velocity": 104,
      "chip": "ym2612"
    },
    {
      "channel": 0,
      "note": 92,
      "start": 25.0496,
      "duration": 0.3163,
      "velocity": 122,
      "chip": "ym2612"
    },
    {
      "channel": 5,
      "note": 66,
      "start": 25.0512,
      "duration": 0.1724,
      "velocity": 127,
      "chip": "ym2612"
    },
    {
      "channel": 4,
      "note": 39,
      "start": 25.0542,
      "duration": 0.1709,
      "velocity": 113,
      "chip": "ym2612"
    },
    {
      "channel": 5,
      "note": 66,
      "start": 25.2242,
      "duration": 0.0366,
      "velocity": 127,
      "chip": "ym2612"
    },
    {
      "channel": 4,
      "note": 39,
      "start": 25.2256,
      "duration": 0.1846,
      "velocity": 113,
      "chip": "ym2612"
    },
    {
      "channel": 5,
      "note": 66,
      "start": 25.2612,
      "duration": 0.0476,
      "velocity": 127,
      "chip": "ym2612"
    },
    {
      "channel": 5,
      "note": 66,
      "start": 25.3093,
      "duration": 0.0429,
      "velocity": 127,
      "chip": "ym2612"
    },
    {
      "channel": 5,
      "note": 66,
      "start": 25.3527,
      "duration": 0.0459,
      "velocity": 127,
      "chip": "ym2612"
    },
    {
      "channel": 5,
      "note": 66,
      "start": 25.3991,
      "duration": 0.1768,
      "velocity": 127,
      "chip": "ym2612"
    },
    {
      "channel": 4,
      "note": 43,
      "start": 25.4107,
      "duration": 0.1666,
      "velocity": 113,
      "chip": "ym2612"
    },
    {
      "channel": 2,
      "note": 79,
      "start": 25.4276,
      "duration": 0.1465,
      "velocity": 104,
      "chip": "ym2612"
    },
    {
      "channel": 1,
      "note": 70,
      "start": 25.429,
      "duration": 0.4657,
      "velocity": 104,
      "chip": "ym2612"
    },
    {
      "channel": 3,
      "note": 70,
      "start": 25.4315,
      "duration": 0.4622,
      "velocity": 94,
      "chip": "ym2612"
    },
    {
      "channel": 0,
      "note": 82,
      "start": 25.4332,
      "duration": 0.4623,
      "velocity": 94,
      "chip": "ym2612"
    },
    {
      "channel": 2,
      "note": 74,
      "start": 25.5746,
      "duration": 0.1782,
      "velocity": 104,
      "chip": "ym2612"
    },
    {
      "channel": 5,
      "note": 66,
      "start": 25.5764,
      "duration": 0.0817,
      "velocity": 127,
      "chip": "ym2612"
    },
    {
      "channel": 4,
      "note": 43,
      "start": 25.5778,
      "duration": 0.1797,
      "velocity": 113,
      "chip": "ym2612"
    },
    {
      "channel": 5,
      "note": 66,
      "start": 25.6587,
      "duration": 0.0959,
      "velocity": 127,
      "chip": "ym2612"
    },
    {
      "channel": 2,
      "note": 79,
      "start": 25.7533,
      "duration": 0.1742,
      "velocity": 104,
      "chip": "ym2612"
    },
    {
      "channel": 5,
      "note": 66,
      "start": 25.7551,
      "duration": 0.1766,
      "velocity": 127,
      "chip": "ym2612"
    },
    {
      "channel": 4,
      "note": 43,
      "start": 25.758,
      "duration": 0.1751,
      "velocity": 113,
      "chip": "ym2612"
    },
    {
      "channel": 3,
      "note": 72,
      "start": 25.9266,
      "duration": 0.4973,
      "velocity": 94,
      "chip": "ym2612"
    },
    {
      "channel": 2,
      "note": 79,
      "start": 25.928,
      "duration": 0.1759,
      "velocity": 104,
      "chip": "ym2612"
    },
    {
      "channel": 1,
      "note": 70,
      "start": 25.9293,
      "duration": 0.4955,
      "velocity": 104,
      "chip": "ym2612"
    },
    {
      "channel": 0,
      "note": 84,
      "start": 25.9307,
      "duration": 0.4949,
      "velocity": 94,
      "chip": "ym2612"
    },
    {
      "channel": 5,
      "note": 66,
      "start": 25.9322,
      "duration": 0.0771,
      "velocity": 127,
      "chip": "ym2612"
    },
    {
      "channel": 4,
      "note": 43,
      "start": 25.9336,
      "duration": 0.175,
      "velocity": 113,
      "chip": "ym2612"
    },
    {
      "channel": 5,
      "note": 66,
      "start": 26.0098,
      "duration": 0.0959,
      "velocity": 127,
      "chip": "ym2612"
    },
    {
      "channel": 2,
      "note": 74,
      "start": 26.1044,
      "duration": 0.1734,
      "velocity": 104,
      "chip": "ym2612"
    },
    {
      "channel": 5,
      "note": 66,
      "start": 26.1062,
      "duration": 0.0836,
      "velocity": 127,
      "chip": "ym2612"
    },
    {
      "channel": 4,
      "note": 43,
      "start": 26.1091,
      "duration": 0.1707,
      "velocity": 113,
      "chip": "ym2612"
    },
    {
      "channel": 5,
      "note": 66,
      "start": 26.1903,
      "duration": 0.0844,
      "velocity": 127,
      "chip": "ym2612"
    },
    {
      "channel": 5,
      "note": 66,
      "start": 26.2751,
      "duration": 0.0903,
      "velocity": 127,
      "chip": "ym2612"
    },
    {
      "channel": 2,
      "note": 79,
      "start": 26.2783,
      "duration": 0.1784,
      "velocity": 104,
      "chip": "ym2612"
    },
    {
      "channel": 4,
      "note": 43,
      "start": 26.2803,
      "duration": 0.1837,
      "velocity": 113,
      "chip": "ym2612"
    },
    {
      "channel": 5,
      "note": 66,
      "start": 26.3659,
      "duration": 0.095,
      "velocity": 127,
      "chip": "ym2612"
    },
    {
      "channel": 3,
      "note": 73,
      "start": 26.4558,
      "duration": 0.4933,
      "velocity": 94,
      "chip": "ym2612"
    },
    {
      "channel": 2,
      "note": 79,
      "start": 26.4571,
      "duration": 0.1715,
      "velocity": 104,
      "chip": "ym2612"
    },
    {
      "channel": 1,
      "note": 70,
      "start": 26.4585,
      "duration": 0.4916,
      "velocity": 104,
      "chip": "ym2612"
    },
    {
      "channel": 0,
      "note": 85,
      "start": 26.4599,
      "duration": 0.491,
      "velocity": 94,
      "chip": "ym2612"
    },
    {
      "channel": 5,
      "note": 66,
      "start": 26.4614,
      "duration": 0.1691,
      "velocity": 127,
      "chip": "ym2612"
    },
    {
      "channel": 4,
      "note": 43,
      "start": 26.4645,
      "duration": 0.1674,
      "velocity": 113,
      "chip": "ym2612"
    },
    {
      "channel": 2,
      "note": 74,
      "start": 26.6292,
      "duration": 0.1771,
      "velocity": 104,
      "chip": "ym2612"
    },
    {
      "channel": 5,
      "note": 66,
      "start": 26.631,
      "duration": 0.0403,
      "velocity": 127,
      "chip": "ym2612"
    },
    {
      "channel": 4,
      "note": 43,
      "start": 26.6324,
      "duration": 0.1786,
      "velocity": 113,
      "chip": "ym2612"
    },
    {
      "channel": 5,
      "note": 66,
      "start": 26.6718,
      "duration": 0.0476,
      "velocity": 127,
      "chip": "ym2612"
    },
    {
      "channel": 5,
      "note": 66,
      "start": 26.7199,
      "duration": 0.0381,
      "velocity": 127,
      "chip": "ym2612"
    },
    {
      "channel": 5,
      "note": 66,
      "start": 26.7585,
      "duration": 0.0495,
      "velocity": 127,
      "chip": "ym2612"
    },
    {
      "channel": 2,
      "note": 79,
      "start": 26.8067,
      "duration": 0.1799,
      "velocity": 104,
      "chip": "ym2612"
    },
    {
      "channel": 5,
      "note": 66,
      "start": 26.8085,
      "duration": 0.1824,
      "velocity": 127,
      "chip": "ym2612"
    },
    {
      "channel": 4,
      "note": 43,
      "start": 26.8115,
      "duration": 0.1808,
      "velocity": 113,
      "chip": "ym2612"
    },
    {
      "channel": 3,
      "note": 74,
      "start": 26.9858,
      "duration": 0.4931,
      "velocity": 94,
      "chip": "ym2612"
    },
    {
      "channel": 2,
      "note": 79,
      "start": 26.9871,
      "duration": 0.1712,
      "velocity": 104,
      "chip": "ym2612"
    },
    {
      "channel": 1,
      "note": 70,
      "start": 26.9885,
      "duration": 0.4913,
      "velocity": 104,
      "chip": "ym2612"
    },
    {
      "channel": 0,
      "note": 86,
      "start": 26.9898,
      "duration": 0.4908,
      "velocity": 94,
      "chip": "ym2612"
    },
    {
      "channel": 5,
      "note": 66,
      "start": 26.9914,
      "duration": 0.0772,
      "velocity": 127,
      "chip": "ym2612"
    },
    {
      "channel": 4,
      "note": 43,
      "start": 26.9928,
      "duration": 0.1703,
      "velocity": 113,
      "chip": "ym2612"
    },
    {
      "channel": 5,
      "note": 66,
      "start": 27.069,
      "duration": 0.0912,
      "velocity": 127,
      "chip": "ym2612"
    },
    {
      "channel": 2,
      "note": 74,
      "start": 27.1588,
      "duration": 0.1784,
      "velocity": 104,
      "chip": "ym2612"
    },
    {
      "channel": 5,
      "note": 66,
      "start": 27.1607,
      "duration": 0.1784,
      "velocity": 127,
      "chip": "ym2612"
    },
    {
      "channel": 4,
      "note": 43,
      "start": 27.1636,
      "duration": 0.1769,
      "velocity": 113,
      "chip": "ym2612"
    },
    {
      "channel": 2,
      "note": 79,
      "start": 27.3378,
      "duration": 0.1739,
      "velocity": 104,
      "chip": "ym2612"
    },
    {
      "channel": 5,
      "note": 66,
      "start": 27.3396,
      "duration": 0.0809,
      "velocity": 127,
      "chip": "ym2612"
    },
    {
      "channel": 4,
      "note": 43,
      "start": 27.341,
      "duration": 0.1779,
      "velocity": 113,
      "chip": "ym2612"
    },
    {
      "channel": 5,
      "note": 66,
      "start": 27.4209,
      "duration": 0.0951,
      "velocity": 127,
      "chip": "ym2612"
    },
    {
      "channel": 3,
      "note": 73,
      "start": 27.5107,
      "duration": 0.3192,
      "velocity": 94,
      "chip": "ym2612"
    },
    {
      "channel": 2,
      "note": 79,
      "start": 27.5121,
      "duration": 0.3506,
      "velocity": 104,
      "chip": "ym2612"
    },
    {
      "channel": 1,
      "note": 70,
      "start": 27.5134,
      "duration": 0.3174,
      "velocity": 104,
      "chip": "ym2612"
    },
    {
      "channel": 0,
      "note": 85,
      "start": 27.5149,
      "duration": 0.3168,
      "velocity": 94,
      "chip": "ym2612"
    },
    {
      "channel": 5,
      "note": 66,
      "start": 27.5164,
      "duration": 0.0847,
      "velocity": 127,
      "chip": "ym2612"
    },
    {
      "channel": 4,
      "note": 43,
      "start": 27.5194,
      "duration": 0.1693,
      "velocity": 113,
      "chip": "ym2612"
    },
    {
      "channel": 5,
      "note": 66,
      "start": 27.6015,
      "duration": 0.0834,
      "velocity": 127,
      "chip": "ym2612"
    },
    {
      "channel": 5,
      "note": 66,
      "start": 27.6854,
      "duration": 0.0861,
      "velocity": 127,
      "chip": "ym2612"
    },
    {
      "channel": 4,
      "note": 43,
      "start": 27.6892,
      "duration": 0.1808,
      "velocity": 113,
      "chip": "ym2612"
    },
    {
      "channel": 5,
      "note": 66,
      "start": 27.772,
      "duration": 0.095,
      "velocity": 127,
      "chip": "ym2612"
    },
    {
      "channel": 3,
      "note": 72,
      "start": 27.8618,
      "duration": 0.3196,
      "velocity": 94,
      "chip": "ym2612"
    },
    {
      "channel": 2,
      "note": 79,
      "start": 27.8632,
      "duration": 0.3602,
      "velocity": 104,
      "chip": "ym2612"
    },
    {
      "channel": 1,
      "note": 70,
      "start": 27.8645,
      "duration": 0.3178,
      "velocity": 104,
      "chip": "ym2612"
    },
    {
      "channel": 0,
      "note": 84,
      "start": 27.8659,
      "duration": 0.3172,
      "velocity": 94,
      "chip": "ym2612"
    },
    {
      "channel": 5,
      "note": 66,
      "start": 27.8675,
      "duration": 0.1724,
      "velocity": 127,
      "chip": "ym2612"
    },
    {
      "channel": 4,
      "note": 43,
      "start": 27.8705,
      "duration": 0.1708,
      "velocity": 113,
      "chip": "ym2612"
    },
    {
      "channel": 5,
      "note": 66,
      "start": 28.0404,
      "duration": 0.0422,
      "velocity": 127,
      "chip": "ym2612"
    },
    {
      "channel": 4,
      "note": 43,
      "start": 28.0418,
      "duration": 0.186,
      "velocity": 113,
      "chip": "ym2612"
    },
    {
      "channel": 5,
      "note": 66,
      "start": 28.0832,
      "duration": 0.0429,
      "velocity": 127,
      "chip": "ym2612"
    },
    {
      "channel": 5,
      "note": 66,
      "start": 28.1265,
      "duration": 0.0429,
      "velocity": 127,
      "chip": "ym2612"
    },
    {
      "channel": 5,
      "note": 66,
      "start": 28.1699,
      "duration": 0.05,
      "velocity": 127,
      "chip": "ym2612"
    },
    {
      "channel": 5,
      "note": 66,
      "start": 28.2204,
      "duration": 0.173,
      "velocity": 127,
      "chip": "ym2612"
    },
    {
      "channel": 3,
      "note": 70,
      "start": 28.2225,
      "duration": 0.4887,
      "velocity": 94,
      "chip": "ym2612"
    },
    {
      "channel": 2,
      "note": 79,
      "start": 28.2239,
      "duration": 0.1677,
      "velocity": 104,
      "chip": "ym2612"
    },
    {
      "channel": 1,
      "note": 70,
      "start": 28.2252,
      "duration": 0.487,
      "velocity": 104,
      "chip": "ym2612"
    },
    {
      "channel": 0,
      "note": 82,
      "start": 28.2266,
      "duration": 0.4864,
      "velocity": 94,
      "chip": "ym2612"
    },
    {
      "channel": 4,
      "note": 43,
      "start": 28.2283,
      "duration": 0.1665,
      "velocity": 113,
      "chip": "ym2612"
    },
    {
      "channel": 2,
      "note": 74,
      "start": 28.3921,
      "duration": 0.1772,
      "velocity": 104,
      "chip": "ym2612"
    },
    {
      "channel": 5,
      "note": 66,
      "start": 28.3939,
      "duration": 0.0809,
      "velocity": 127,
      "chip": "ym2612"
    },
    {
      "channel": 4,
      "note": 43,
      "start": 28.3953,
      "duration": 0.1788,
      "velocity": 113,
      "chip": "ym2612"
    },
    {
      "channel": 5,
      "note": 66,
      "start": 28.4752,
      "duration": 0.0959,
      "velocity": 127,
      "chip": "ym2612"
    },
    {
      "channel": 2,
      "note": 79,
      "start": 28.5698,
      "duration": 0.1742,
      "velocity": 104,
      "chip": "ym2612"
    },
    {
      "channel": 5,
      "note": 66,
      "start": 28.5717,
      "duration": 0.1767,
      "velocity": 127,
      "chip": "ym2612"
    },
    {
      "channel": 4,
      "note": 43,
      "start": 28.5746,
      "duration": 0.1751,
      "velocity": 113,
      "chip": "ym2612"
    },
    {
      "channel": 3,
      "note": 72,
      "start": 28.7432,
      "duration": 0.4972,
      "velocity": 94,
      "chip": "ym2612"
    },
    {
      "channel": 2,
      "note": 79,
      "start": 28.7445,
      "duration": 0.1769,
      "velocity": 104,
      "chip": "ym2612"
    },
    {
      "channel": 1,
      "note": 70,
      "start": 28.7459,
      "duration": 0.4954,
      "velocity": 104,
      "chip": "ym2612"
    },
    {
      "channel": 0,
      "note": 84,
      "start": 28.7472,
      "duration": 0.4949,
      "velocity": 94,
      "chip": "ym2612"
    },
    {
      "channel": 5,
      "note": 66,
      "start": 28.7488,
      "duration": 0.0828,
      "velocity": 127,
      "chip": "ym2612"
    },
    {
      "channel": 4,
      "note": 43,
      "start": 28.7502,
      "duration": 0.176,
      "velocity": 113,
      "chip": "ym2612"
    },
    {
      "channel": 5,
      "note": 66,
      "start": 28.8321,
      "duration": 0.0912,
      "velocity": 127,
      "chip": "ym2612"
    },
    {
      "channel": 2,
      "note": 74,
      "start": 28.9219,
      "duration": 0.1725,
      "velocity": 104,
      "chip": "ym2612"
    },
    {
      "channel": 5,
      "note": 66,
      "start": 28.9238,
      "duration": 0.0827,
      "velocity": 127,
      "chip": "ym2612"
    },
    {
      "channel": 4,
      "note": 43,
      "start": 28.9267,
      "duration": 0.1697,
      "velocity": 113,
      "chip": "ym2612"
    },
    {
      "channel": 5,
      "note": 66,
      "start": 29.0069,
      "duration": 0.0844,
      "velocity": 127,
      "chip": "ym2612"
    },
    {
      "channel": 5,
      "note": 66,
      "start": 29.0918,
      "duration": 0.0912,
      "velocity": 127,
      "chip": "ym2612"
    },
    {
      "channel": 2,
      "note": 79,
      "start": 29.0948,
      "duration": 0.1793,
      "velocity": 104,
      "chip": "ym2612"
    },
    {
      "channel": 4,
      "note": 43,
      "start": 29.0968,
      "duration": 0.1845,
      "velocity": 113,
      "chip": "ym2612"
    },
    {
      "channel": 5,
      "note": 66,
      "start": 29.1834,
      "duration": 0.095,
      "velocity": 127,
      "chip": "ym2612"
    },
    {
      "channel": 3,
      "note": 73,
      "start": 29.2732,
      "duration": 0.4971,
      "velocity": 94,
      "chip": "ym2612"
    },
    {
      "channel": 2,
      "note": 79,
      "start": 29.2746,
      "duration": 0.1762,
      "velocity": 104,
      "chip": "ym2612"
    },
    {
      "channel": 1,
      "note": 70,
      "start": 29.2759,
      "duration": 0.4954,
      "velocity": 104,
      "chip": "ym2612"
    },
    {
      "channel": 0,
      "note": 85,
      "start": 29.2773,
      "duration": 0.4948,
      "velocity": 94,
      "chip": "ym2612"
    },
    {
      "channel": 5,
      "note": 66,
      "start": 29.2788,
      "duration": 0.1738,
      "velocity": 127,
      "chip": "ym2612"
    },
    {
      "channel": 4,
      "note": 43,
      "start": 29.2819,
      "duration": 0.1721,
      "velocity": 113,
      "chip": "ym2612"
    },
    {
      "channel": 2,
      "note": 74,
      "start": 29.4513,
      "duration": 0.1723,
      "velocity": 104,
      "chip": "ym2612"
    },
    {
      "channel": 5,
      "note": 66,
      "start": 29.4532,
      "duration": 0.0355,
      "velocity": 127,
      "chip": "ym2612"
    },
    {
      "channel": 4,
      "note": 43,
      "start": 29.4545,
      "duration": 0.1739,
      "velocity": 113,
      "chip": "ym2612"
    },
    {
      "channel": 5,
      "note": 66,
      "start": 29.4892,
      "duration": 0.0476,
      "velocity": 127,
      "chip": "ym2612"
    },
    {
      "channel": 5,
      "note": 66,
      "start": 29.5372,
      "duration": 0.0381,
      "velocity": 127,
      "chip": "ym2612"
    },
    {
      "channel": 5,
      "note": 66,
      "start": 29.5759,
      "duration": 0.0496,
      "velocity": 127,
      "chip": "ym2612"
    },
    {
      "channel": 2,
      "note": 79,
      "start": 29.6241,
      "duration": 0.1789,
      "velocity": 104,
      "chip": "ym2612"
    },
    {
      "channel": 5,
      "note": 66,
      "start": 29.626,
      "duration": 0.1814,
      "velocity": 127,
      "chip": "ym2612"
    },
    {
      "channel": 4,
      "note": 43,
      "start": 29.6289,
      "duration": 0.1798,
      "velocity": 113,
      "chip": "ym2612"
    },
    {
      "channel": 3,
      "note": 74,
      "start": 29.8022,
      "duration": 0.4932,
      "velocity": 94,
      "chip": "ym2612"
    },
    {
      "channel": 2,
      "note": 79,
      "start": 29.8036,
      "duration": 0.1722,
      "velocity": 104,
      "chip": "ym2612"
    },
    {
      "channel": 1,
      "note": 70,
      "start": 29.8049,
      "duration": 0.4914,
      "velocity": 104,
      "chip": "ym2612"
    },
    {
      "channel": 0,
      "note": 86,
      "start": 29.8063,
      "duration": 0.4908,
      "velocity": 94,
      "chip": "ym2612"
    },
    {
      "channel": 5,
      "note": 66,
      "start": 29.8078,
      "duration": 0.0781,
      "velocity": 127,
      "chip": "ym2612"
    },
    {
      "channel": 4,
      "note": 43,
      "start": 29.8093,
      "duration": 0.1712,
      "velocity": 113,
      "chip": "ym2612"
    },
    {
      "channel": 5,
      "note": 66,
      "start": 29.8864,
      "duration": 0.0912,
      "velocity": 127,
      "chip": "ym2612"
    },
    {
      "channel": 2,
      "note": 74,
      "start": 29.9762,
      "duration": 0.1776,
      "velocity": 104,
      "chip": "ym2612"
    },
    {
      "channel": 5,
      "note": 66,
      "start": 29.9781,
      "duration": 0.1776,
      "velocity": 127,
      "chip": "ym2612"
    },
    {
      "channel": 4,
      "note": 43,
      "start": 29.981,
      "duration": 0.176,
      "velocity": 113,
      "chip": "ym2612"
    },
    {
      "channel": 2,
      "note": 79,
      "start": 30.1543,
      "duration": 0.1739,
      "velocity": 104,
      "chip": "ym2612"
    },
    {
      "channel": 5,
      "note": 66,
      "start": 30.1561,
      "duration": 0.0808,
      "velocity": 127,
      "chip": "ym2612"
    },
    {
      "channel": 4,
      "note": 43,
      "start": 30.1575,
      "duration": 0.1779,
      "velocity": 113,
      "chip": "ym2612"
    },
    {
      "channel": 5,
      "note": 66,
      "start": 30.2374,
      "duration": 0.095,
      "velocity": 127,
      "chip": "ym2612"
    },
    {
      "channel": 3,
      "note": 73,
      "start": 30.3273,
      "duration": 0.3192,
      "velocity": 94,
      "chip": "ym2612"
    },
    {
      "channel": 2,
      "note": 79,
      "start": 30.3287,
      "duration": 0.3562,
      "velocity": 104,
      "chip": "ym2612"
    },
    {
      "channel": 1,
      "note": 70,
      "start": 30.33,
      "duration": 0.3174,
      "velocity": 104,
      "chip": "ym2612"
    },
    {
      "channel": 0,
      "note": 85,
      "start": 30.3314,
      "duration": 0.3169,
      "velocity": 94,
      "chip": "ym2612"
    },
    {
      "channel": 5,
      "note": 66,
      "start": 30.3329,
      "duration": 0.0847,
      "velocity": 127,
      "chip": "ym2612"
    },
    {
      "channel": 4,
      "note": 43,
      "start": 30.336,
      "duration": 0.1702,
      "velocity": 113,
      "chip": "ym2612"
    },
    {
      "channel": 5,
      "note": 66,
      "start": 30.418,
      "duration": 0.0844,
      "velocity": 127,
      "chip": "ym2612"
    },
    {
      "channel": 5,
      "note": 66,
      "start": 30.5029,
      "duration": 0.0861,
      "velocity": 127,
      "chip": "ym2612"
    },
    {
      "channel": 4,
      "note": 43,
      "start": 30.5066,
      "duration": 0.1856,
      "velocity": 113,
      "chip": "ym2612"
    },
    {
      "channel": 5,
      "note": 66,
      "start": 30.5895,
      "duration": 0.0997,
      "velocity": 127,
      "chip": "ym2612"
    },
    {
      "channel": 3,
      "note": 72,
      "start": 30.684,
      "duration": 0.3196,
      "velocity": 94,
      "chip": "ym2612"
    },
    {
      "channel": 2,
      "note": 79,
      "start": 30.6854,
      "duration": 0.3665,
      "velocity": 104,
      "chip": "ym2612"
    },
    {
      "channel": 1,
      "note": 70,
      "start": 30.6867,
      "duration": 0.3178,
      "velocity": 104,
      "chip": "ym2612"
    },
    {
      "channel": 0,
      "note": 84,
      "start": 30.6881,
      "duration": 0.3173,
      "velocity": 94,
      "chip": "ym2612"
    },
    {
      "channel": 5,
      "note": 66,
      "start": 30.6897,
      "duration": 0.1678,
      "velocity": 127,
      "chip": "ym2612"
    },
    {
      "channel": 4,
      "note": 43,
      "start": 30.6927,
      "duration": 0.1661,
      "velocity": 113,
      "chip": "ym2612"
    },
    {
      "channel": 5,
      "note": 66,
      "start": 30.8579,
      "duration": 0.0414,
      "velocity": 127,
      "chip": "ym2612"
    },
    {
      "channel": 4,
      "note": 43,
      "start": 30.8593,
      "duration": 0.1864,
      "velocity": 113,
      "chip": "ym2612"
    },
    {
      "channel": 5,
      "note": 66,
      "start": 30.8997,
      "duration": 0.0429,
      "velocity": 127,
      "chip": "ym2612"
    },
    {
      "channel": 5,
      "note": 66,
      "start": 30.943,
      "duration": 0.0429,
      "velocity": 127,
      "chip": "ym2612"
    },
    {
      "channel": 5,
      "note": 66,
      "start": 30.9864,
      "duration": 0.0506,
      "velocity": 127,
      "chip": "ym2612"
    },
    {
      "channel": 5,
      "note": 66,
      "start": 31.0376,
      "duration": 0.1727,
      "velocity": 127,
      "chip": "ym2612"
    },
    {
      "channel": 4,
      "note": 39,
      "start": 31.0463,
      "duration": 0.1654,
      "velocity": 113,
      "chip": "ym2612"
    },
    {
      "channel": 3,
      "note": 66,
      "start": 31.051,
      "duration": 0.477,
      "velocity": 94,
      "chip": "ym2612"
    },
    {
      "channel": 2,
      "note": 75,
      "start": 31.0524,
      "duration": 0.1561,
      "velocity": 104,
      "chip": "ym2612"
    },
    {
      "channel": 1,
      "note": 66,
      "start": 31.0537,
      "duration": 0.4753,
      "velocity": 104,
      "chip": "ym2612"
    },
    {
      "channel": 0,
      "note": 78,
      "start": 31.0551,
      "duration": 0.4747,
      "velocity": 94,
      "chip": "ym2612"
    },
    {
      "channel": 2,
      "note": 70,
      "start": 31.2089,
      "duration": 0.1772,
      "velocity": 104,
      "chip": "ym2612"
    },
    {
      "channel": 5,
      "note": 66,
      "start": 31.2108,
      "duration": 0.0856,
      "velocity": 127,
      "chip": "ym2612"
    },
    {
      "channel": 4,
      "note": 39,
      "start": 31.2121,
      "duration": 0.1788,
      "velocity": 113,
      "chip": "ym2612"
    },
    {
      "channel": 5,
      "note": 66,
      "start": 31.2968,
      "duration": 0.0912,
      "velocity": 127,
      "chip": "ym2612"
    },
    {
      "channel": 2,
      "note": 75,
      "start": 31.3867,
      "duration": 0.1742,
      "velocity": 104,
      "chip": "ym2612"
    },
    {
      "channel": 5,
      "note": 66,
      "start": 31.3885,
      "duration": 0.1766,
      "velocity": 127,
      "chip": "ym2612"
    },
    {
      "channel": 4,
      "note": 39,
      "start": 31.3915,
      "duration": 0.1751,
      "velocity": 113,
      "chip": "ym2612"
    },
    {
      "channel": 3,
      "note": 68,
      "start": 31.56,
      "duration": 0.4982,
      "velocity": 94,
      "chip": "ym2612"
    },
    {
      "channel": 2,
      "note": 75,
      "start": 31.5614,
      "duration": 0.1768,
      "velocity": 104,
      "chip": "ym2612"
    },
    {
      "channel": 1,
      "note": 66,
      "start": 31.5627,
      "duration": 0.4964,
      "velocity": 104,
      "chip": "ym2612"
    },
    {
      "channel": 0,
      "note": 80,
      "start": 31.5641,
      "duration": 0.4958,
      "velocity": 94,
      "chip": "ym2612"
    },
    {
      "channel": 5,
      "note": 66,
      "start": 31.5656,
      "duration": 0.0827,
      "velocity": 127,
      "chip": "ym2612"
    },
    {
      "channel": 4,
      "note": 39,
      "start": 31.567,
      "duration": 0.176,
      "velocity": 113,
      "chip": "ym2612"
    },
    {
      "channel": 5,
      "note": 66,
      "start": 31.6489,
      "duration": 0.0912,
      "velocity": 127,
      "chip": "ym2612"
    },
    {
      "channel": 2,
      "note": 70,
      "start": 31.7387,
      "duration": 0.1772,
      "velocity": 104,
      "chip": "ym2612"
    },
    {
      "channel": 5,
      "note": 66,
      "start": 31.7405,
      "duration": 0.0836,
      "velocity": 127,
      "chip": "ym2612"
    },
    {
      "channel": 4,
      "note": 39,
      "start": 31.7435,
      "duration": 0.1745,
      "velocity": 113,
      "chip": "ym2612"
    },
    {
      "channel": 5,
      "note": 66,
      "start": 31.8246,
      "duration": 0.0882,
      "velocity": 127,
      "chip": "ym2612"
    },
    {
      "channel": 5,
      "note": 66,
      "start": 31.9133,
      "duration": 0.0864,
      "velocity": 127,
      "chip": "ym2612"
    },
    {
      "channel": 2,
      "note": 75,
      "start": 31.9164,
      "duration": 0.1745,
      "velocity": 104,
      "chip": "ym2612"
    },
    {
      "channel": 4,
      "note": 39,
      "start": 31.9184,
      "duration": 0.1798,
      "velocity": 113,
      "chip": "ym2612"
    },
    {
      "channel": 5,
      "note": 66,
      "start": 32.0002,
      "duration": 0.095,
      "velocity": 127,
      "chip": "ym2612"
    },
    {
      "channel": 3,
      "note": 69,
      "start": 32.09,
      "duration": 0.4971,
      "velocity": 94,
      "chip": "ym2612"
    },
    {
      "channel": 2,
      "note": 75,
      "start": 32.0915,
      "duration": 0.1762,
      "velocity": 104,
      "chip": "ym2612"
    },
    {
      "channel": 1,
      "note": 66,
      "start": 32.0928,
      "duration": 0.4953,
      "velocity": 104,
      "chip": "ym2612"
    },
    {
      "channel": 0,
      "note": 81,
      "start": 32.0941,
      "duration": 0.4948,
      "velocity": 94,
      "chip": "ym2612"
    },
    {
      "channel": 5,
      "note": 66,
      "start": 32.0957,
      "duration": 0.1738,
      "velocity": 127,
      "chip": "ym2612"
    },
    {
      "channel": 4,
      "note": 39,
      "start": 32.0987,
      "duration": 0.1722,
      "velocity": 113,
      "chip": "ym2612"
    },
    {
      "channel": 2,
      "note": 70,
      "start": 32.2682,
      "duration": 0.1723,
      "velocity": 104,
      "chip": "ym2612"
    },
    {
      "channel": 5,
      "note": 66,
      "start": 32.27,
      "duration": 0.0355,
      "velocity": 127,
      "chip": "ym2612"
    },
    {
      "channel": 4,
      "note": 39,
      "start": 32.2714,
      "duration": 0.1738,
      "velocity": 113,
      "chip": "ym2612"
    },
    {
      "channel": 5,
      "note": 66,
      "start": 32.306,
      "duration": 0.0476,
      "velocity": 127,
      "chip": "ym2612"
    },
    {
      "channel": 5,
      "note": 66,
      "start": 32.3541,
      "duration": 0.0429,
      "velocity": 127,
      "chip": "ym2612"
    },
    {
      "channel": 5,
      "note": 66,
      "start": 32.3975,
      "duration": 0.0448,
      "velocity": 127,
      "chip": "ym2612"
    },
    {
      "channel": 2,
      "note": 75,
      "start": 32.4409,
      "duration": 0.1799,
      "velocity": 104,
      "chip": "ym2612"
    },
    {
      "channel": 5,
      "note": 66,
      "start": 32.4428,
      "duration": 0.1823,
      "velocity": 127,
      "chip": "ym2612"
    },
    {
      "channel": 4,
      "note": 39,
      "start": 32.4457,
      "duration": 0.1808,
      "velocity": 113,
      "chip": "ym2612"
    },
    {
      "channel": 3,
      "note": 70,
      "start": 32.6199,
      "duration": 0.4922,
      "velocity": 94,
      "chip": "ym2612"
    },
    {
      "channel": 2,
      "note": 75,
      "start": 32.6213,
      "duration": 0.1712,
      "velocity": 104,
      "chip": "ym2612"
    },
    {
      "channel": 1,
      "note": 66,
      "start": 32.6227,
      "duration": 0.4905,
      "velocity": 104,
      "chip": "ym2612"
    },
    {
      "channel": 0,
      "note": 82,
      "start": 32.624,
      "duration": 0.4899,
      "velocity": 94,
      "chip": "ym2612"
    },
    {
      "channel": 5,
      "note": 66,
      "start": 32.6256,
      "duration": 0.0771,
      "velocity": 127,
      "chip": "ym2612"
    },
    {
      "channel": 4,
      "note": 39,
      "start": 32.6269,
      "duration": 0.1704,
      "velocity": 113,
      "chip": "ym2612"
    },
    {
      "channel": 5,
      "note": 66,
      "start": 32.7032,
      "duration": 0.0912,
      "velocity": 127,
      "chip": "ym2612"
    },
    {
      "channel": 2,
      "note": 70,
      "start": 32.793,
      "duration": 0.1775,
      "velocity": 104,
      "chip": "ym2612"
    },
    {
      "channel": 5,
      "note": 66,
      "start": 32.7949,
      "duration": 0.1776,
      "velocity": 127,
      "chip": "ym2612"
    },
    {
      "channel": 4,
      "note": 39,
      "start": 32.7978,
      "duration": 0.176,
      "velocity": 113,
      "chip": "ym2612"
    },
    {
      "channel": 2,
      "note": 75,
      "start": 32.9711,
      "duration": 0.1786,
      "velocity": 104,
      "chip": "ym2612"
    },
    {
      "channel": 5,
      "note": 66,
      "start": 32.9729,
      "duration": 0.0817,
      "velocity": 127,
      "chip": "ym2612"
    },
    {
      "channel": 4,
      "note": 39,
      "start": 32.9743,
      "duration": 0.1827,
      "velocity": 113,
      "chip": "ym2612"
    },
    {
      "channel": 5,
      "note": 66,
      "start": 33.0551,
      "duration": 0.0988,
      "velocity": 127,
      "chip": "ym2612"
    },
    {
      "channel": 3,
      "note": 69,
      "start": 33.1488,
      "duration": 0.3202,
      "velocity": 94,
      "chip": "ym2612"
    },
    {
      "channel": 2,
      "note": 75,
      "start": 33.1502,
      "duration": 0.3516,
      "velocity": 104,
      "chip": "ym2612"
    },
    {
      "channel": 1,
      "note": 66,
      "start": 33.1516,
      "duration": 0.3184,
      "velocity": 104,
      "chip": "ym2612"
    },
    {
      "channel": 0,
      "note": 81,
      "start": 33.1529,
      "duration": 0.3179,
      "velocity": 94,
      "chip": "ym2612"
    },
    {
      "channel": 5,
      "note": 66,
      "start": 33.1545,
      "duration": 0.0799,
      "velocity": 127,
      "chip": "ym2612"
    },
    {
      "channel": 4,
      "note": 39,
      "start": 33.1575,
      "duration": 0.1655,
      "velocity": 113,
      "chip": "ym2612"
    },
    {
      "channel": 5,
      "note": 66,
      "start": 33.2349,
      "duration": 0.0844,
      "velocity": 127,
      "chip": "ym2612"
    },
    {
      "channel": 5,
      "note": 66,
      "start": 33.3198,
      "duration": 0.0861,
      "velocity": 127,
      "chip": "ym2612"
    },
    {
      "channel": 4,
      "note": 39,
      "start": 33.3235,
      "duration": 0.1856,
      "velocity": 113,
      "chip": "ym2612"
    },
    {
      "channel": 5,
      "note": 66,
      "start": 33.4063,
      "duration": 0.0998,
      "velocity": 127,
      "chip": "ym2612"
    },
    {
      "channel": 3,
      "note": 68,
      "start": 33.5009,
      "duration": 0.3195,
      "velocity": 94,
      "chip": "ym2612"
    },
    {
      "channel": 2,
      "note": 75,
      "start": 33.5023,
      "duration": 0.3554,
      "velocity": 104,
      "chip": "ym2612"
    },
    {
      "channel": 1,
      "note": 66,
      "start": 33.5037,
      "duration": 0.3178,
      "velocity": 104,
      "chip": "ym2612"
    },
    {
      "channel": 0,
      "note": 80,
      "start": 33.505,
      "duration": 0.3172,
      "velocity": 94,
      "chip": "ym2612"
    },
    {
      "channel": 5,
      "note": 66,
      "start": 33.5066,
      "duration": 0.1677,
      "velocity": 127,
      "chip": "ym2612"
    },
    {
      "channel": 4,
      "note": 39,
      "start": 33.5096,
      "duration": 0.1661,
      "velocity": 113,
      "chip": "ym2612"
    },
    {
      "channel": 5,
      "note": 66,
      "start": 33.6748,
      "duration": 0.0413,
      "velocity": 127,
      "chip": "ym2612"
    },
    {
      "channel": 4,
      "note": 39,
      "start": 33.6762,
      "duration": 0.186,
      "velocity": 113,
      "chip": "ym2612"
    },
    {
      "channel": 5,
      "note": 66,
      "start": 33.7166,
      "duration": 0.0476,
      "velocity": 127,
      "chip": "ym2612"
    },
    {
      "channel": 5,
      "note": 66,
      "start": 33.7647,
      "duration": 0.0381,
      "velocity": 127,
      "chip": "ym2612"
    },
    {
      "channel": 5,
      "note": 66,
      "start": 33.8033,
      "duration": 0.051,
      "velocity": 127,
      "chip": "ym2612"
    },
    {
      "channel": 5,
      "note": 66,
      "start": 33.8547,
      "duration": 0.1721,
      "velocity": 127,
      "chip": "ym2612"
    },
    {
      "channel": 3,
      "note": 66,
      "start": 33.8569,
      "duration": 0.4878,
      "velocity": 94,
      "chip": "ym2612"
    },
    {
      "channel": 2,
      "note": 75,
      "start": 33.8582,
      "duration": 0.1668,
      "velocity": 104,
      "chip": "ym2612"
    },
    {
      "channel": 1,
      "note": 66,
      "start": 33.8596,
      "duration": 0.4861,
      "velocity": 104,
      "chip": "ym2612"
    },
    {
      "channel": 0,
      "note": 78,
      "start": 33.861,
      "duration": 0.4855,
      "velocity": 94,
      "chip": "ym2612"
    },
    {
      "channel": 4,
      "note": 39,
      "start": 33.8627,
      "duration": 0.1656,
      "velocity": 113,
      "chip": "ym2612"
    },
    {
      "channel": 2,
      "note": 70,
      "start": 34.0255,
      "duration": 0.1781,
      "velocity": 104,
      "chip": "ym2612"
    },
    {
      "channel": 5,
      "note": 66,
      "start": 34.0274,
      "duration": 0.0864,
      "velocity": 127,
      "chip": "ym2612"
    },
    {
      "channel": 4,
      "note": 39,
      "start": 34.0287,
      "duration": 0.1797,
      "velocity": 113,
      "chip": "ym2612"
    },
    {
      "channel": 5,
      "note": 66,
      "start": 34.1143,
      "duration": 0.0912,
      "velocity": 127,
      "chip": "ym2612"
    },
    {
      "channel": 2,
      "note": 75,
      "start": 34.2042,
      "duration": 0.1789,
      "velocity": 104,
      "chip": "ym2612"
    },
    {
      "channel": 5,
      "note": 66,
      "start": 34.206,
      "duration": 0.1814,
      "velocity": 127,
      "chip": "ym2612"
    },
    {
      "channel": 4,
      "note": 39,
      "start": 34.2089,
      "duration": 0.1798,
      "velocity": 113,
      "chip": "ym2612"
    },
    {
      "channel": 3,
      "note": 68,
      "start": 34.3822,
      "duration": 0.4926,
      "velocity": 94,
      "chip": "ym2612"
    },
    {
      "channel": 2,
      "note": 75,
      "start": 34.3836,
      "duration": 0.1712,
      "velocity": 104,
      "chip": "ym2612"
    },
    {
      "channel": 1,
      "note": 66,
      "start": 34.3849,
      "duration": 0.4908,
      "velocity": 104,
      "chip": "ym2612"
    },
    {
      "channel": 0,
      "note": 80,
      "start": 34.3863,
      "duration": 0.4902,
      "velocity": 94,
      "chip": "ym2612"
    },
    {
      "channel": 5,
      "note": 66,
      "start": 34.3879,
      "duration": 0.0771,
      "velocity": 127,
      "chip": "ym2612"
    },
    {
      "channel": 4,
      "note": 39,
      "start": 34.3892,
      "duration": 0.1704,
      "velocity": 113,
      "chip": "ym2612"
    },
    {
      "channel": 5,
      "note": 66,
      "start": 34.4655,
      "duration": 0.0912,
      "velocity": 127,
      "chip": "ym2612"
    },
    {
      "channel": 2,
      "note": 70,
      "start": 34.5553,
      "duration": 0.1782,
      "velocity": 104,
      "chip": "ym2612"
    },
    {
      "channel": 5,
      "note": 66,
      "start": 34.5571,
      "duration": 0.0836,
      "velocity": 127,
      "chip": "ym2612"
    },
    {
      "channel": 4,
      "note": 39,
      "start": 34.5601,
      "duration": 0.1754,
      "velocity": 113,
      "chip": "ym2612"
    },
    {
      "channel": 5,
      "note": 66,
      "start": 34.6412,
      "duration": 0.0891,
      "velocity": 127,
      "chip": "ym2612"
    },
    {
      "channel": 5,
      "note": 66,
      "start": 34.7309,
      "duration": 0.0855,
      "velocity": 127,
      "chip": "ym2612"
    },
    {
      "channel": 2,
      "note": 75,
      "start": 34.7339,
      "duration": 0.1736,
      "velocity": 104,
      "chip": "ym2612"
    },
    {
      "channel": 4,
      "note": 39,
      "start": 34.736,
      "duration": 0.1789,
      "velocity": 113,
      "chip": "ym2612"
    },
    {
      "channel": 5,
      "note": 66,
      "start": 34.8168,
      "duration": 0.095,
      "velocity": 127,
      "chip": "ym2612"
    },
    {
      "channel": 3,
      "note": 69,
      "start": 34.9066,
      "duration": 0.498,
      "velocity": 94,
      "chip": "ym2612"
    },
    {
      "channel": 2,
      "note": 75,
      "start": 34.908,
      "duration": 0.1762,
      "velocity": 104,
      "chip": "ym2612"
    },
    {
      "channel": 1,
      "note": 66,
      "start": 34.9094,
      "duration": 0.4962,
      "velocity": 104,
      "chip": "ym2612"
    },
    {
      "channel": 0,
      "note": 81,
      "start": 34.9107,
      "duration": 0.4957,
      "velocity": 94,
      "chip": "ym2612"
    },
    {
      "channel": 5,
      "note": 66,
      "start": 34.9123,
      "duration": 0.1738,
      "velocity": 127,
      "chip": "ym2612"
    },
    {
      "channel": 4,
      "note": 39,
      "start": 34.9154,
      "duration": 0.1722,
      "velocity": 113,
      "chip": "ym2612"
    },
    {
      "channel": 2,
      "note": 70,
      "start": 35.0848,
      "duration": 0.1723,
      "velocity": 104,
      "chip": "ym2612"
    },
    {
      "channel": 5,
      "note": 66,
      "start": 35.0866,
      "duration": 0.0355,
      "velocity": 127,
      "chip": "ym2612"
    },
    {
      "channel": 4,
      "note": 39,
      "start": 35.088,
      "duration": 0.1738,
      "velocity": 113,
      "chip": "ym2612"
    },
    {
      "channel": 5,
      "note": 66,
      "start": 35.1226,
      "duration": 0.0476,
      "velocity": 127,
      "chip": "ym2612"
    },
    {
      "channel": 5,
      "note": 66,
      "start": 35.1707,
      "duration": 0.0429,
      "velocity": 127,
      "chip": "ym2612"
    },
    {
      "channel": 5,
      "note": 66,
      "start": 35.2141,
      "duration": 0.0447,
      "velocity": 127,
      "chip": "ym2612"
    },
    {
      "channel": 2,
      "note": 75,
      "start": 35.2575,
      "duration": 0.1799,
      "velocity": 104,
      "chip": "ym2612"
    },
    {
      "channel": 5,
      "note": 66,
      "start": 35.2593,
      "duration": 0.1824,
      "velocity": 127,
      "chip": "ym2612"
    },
    {
      "channel": 4,
      "note": 39,
      "start": 35.2623,
      "duration": 0.1808,
      "velocity": 113,
      "chip": "ym2612"
    },
    {
      "channel": 3,
      "note": 70,
      "start": 35.4366,
      "duration": 0.4978,
      "velocity": 94,
      "chip": "ym2612"
    },
    {
      "channel": 2,
      "note": 75,
      "start": 35.4379,
      "duration": 0.176,
      "velocity": 104,
      "chip": "ym2612"
    },
    {
      "channel": 1,
      "note": 66,
      "start": 35.4393,
      "duration": 0.4961,
      "velocity": 104,
      "chip": "ym2612"
    },
    {
      "channel": 0,
      "note": 82,
      "start": 35.4407,
      "duration": 0.4955,
      "velocity": 94,
      "chip": "ym2612"
    },
    {
      "channel": 5,
      "note": 66,
      "start": 35.4422,
      "duration": 0.0772,
      "velocity": 127,
      "chip": "ym2612"
    },
    {
      "channel": 4,
      "note": 39,
      "start": 35.4436,
      "duration": 0.175,
      "velocity": 113,
      "chip": "ym2612"
    },
    {
      "channel": 5,
      "note": 66,
      "start": 35.5198,
      "duration": 0.0959,
      "velocity": 127,
      "chip": "ym2612"
    },
    {
      "channel": 2,
      "note": 70,
      "start": 35.6143,
      "duration": 0.1737,
      "velocity": 104,
      "chip": "ym2612"
    },
    {
      "channel": 5,
      "note": 66,
      "start": 35.6162,
      "duration": 0.1737,
      "velocity": 127,
      "chip": "ym2612"
    },
    {
      "channel": 4,
      "note": 39,
      "start": 35.6191,
      "duration": 0.1722,
      "velocity": 113,
      "chip": "ym2612"
    },
    {
      "channel": 2,
      "note": 75,
      "start": 35.7886,
      "duration": 0.1786,
      "velocity": 104,
      "chip": "ym2612"
    },
    {
      "channel": 5,
      "note": 66,
      "start": 35.7904,
      "duration": 0.0808,
      "velocity": 127,
      "chip": "ym2612"
    },
    {
      "channel": 4,
      "note": 39,
      "start": 35.7918,
      "duration": 0.1827,
      "velocity": 113,
      "chip": "ym2612"
    },
    {
      "channel": 5,
      "note": 66,
      "start": 35.8717,
      "duration": 0.0998,
      "velocity": 127,
      "chip": "ym2612"
    },
    {
      "channel": 3,
      "note": 69,
      "start": 35.9663,
      "duration": 0.3192,
      "velocity": 94,
      "chip": "ym2612"
    },
    {
      "channel": 2,
      "note": 75,
      "start": 35.9677,
      "duration": 0.3506,
      "velocity": 104,
      "chip": "ym2612"
    },
    {
      "channel": 1,
      "note": 66,
      "start": 35.969,
      "duration": 0.3174,
      "velocity": 104,
      "chip": "ym2612"
    },
    {
      "channel": 0,
      "note": 81,
      "start": 35.9704,
      "duration": 0.3168,
      "velocity": 94,
      "chip": "ym2612"
    },
    {
      "channel": 5,
      "note": 66,
      "start": 35.972,
      "duration": 0.0799,
      "velocity": 127,
      "chip": "ym2612"
    },
    {
      "channel": 4,
      "note": 39,
      "start": 35.975,
      "duration": 0.1646,
      "velocity": 113,
      "chip": "ym2612"
    },
    {
      "channel": 5,
      "note": 66,
      "start": 36.0523,
      "duration": 0.0835,
      "velocity": 127,
      "chip": "ym2612"
    },
    {
      "channel": 5,
      "note": 66,
      "start": 36.1362,
      "duration": 0.0918,
      "velocity": 127,
      "chip": "ym2612"
    },
    {
      "channel": 4,
      "note": 39,
      "start": 36.14,
      "duration": 0.1856,
      "velocity": 113,
      "chip": "ym2612"
    },
    {
      "channel": 5,
      "note": 66,
      "start": 36.2285,
      "duration": 0.0941,
      "velocity": 127,
      "chip": "ym2612"
    },
    {
      "channel": 3,
      "note": 68,
      "start": 36.3174,
      "duration": 0.3196,
      "velocity": 94,
      "chip": "ym2612"
    },
    {
      "channel": 2,
      "note": 75,
      "start": 36.3188,
      "duration": 0.3791,
      "velocity": 104,
      "chip": "ym2612"
    },
    {
      "channel": 1,
      "note": 66,
      "start": 36.3201,
      "duration": 0.3178,
      "velocity": 104,
      "chip": "ym2612"
    },
    {
      "channel": 0,
      "note": 80,
      "start": 36.3215,
      "duration": 0.3173,
      "velocity": 94,
      "chip": "ym2612"
    },
    {
      "channel": 5,
      "note": 66,
      "start": 36.3231,
      "duration": 0.1678,
      "velocity": 127,
      "chip": "ym2612"
    },
    {
      "channel": 4,
      "note": 39,
      "start": 36.3261,
      "duration": 0.1661,
      "velocity": 113,
      "chip": "ym2612"
    },
    {
      "channel": 5,
      "note": 66,
      "start": 36.4913,
      "duration": 0.0413,
      "velocity": 127,
      "chip": "ym2612"
    },
    {
      "channel": 4,
      "note": 39,
      "start": 36.4927,
      "duration": 0.1894,
      "velocity": 113,
      "chip": "ym2612"
    },
    {
      "channel": 5,
      "note": 66,
      "start": 36.5331,
      "duration": 0.0485,
      "velocity": 127,
      "chip": "ym2612"
    },
    {
      "channel": 5,
      "note": 66,
      "start": 36.5822,
      "duration": 0.0372,
      "velocity": 127,
      "chip": "ym2612"
    },
    {
      "channel": 5,
      "note": 66,
      "start": 36.6198,
      "duration": 0.0506,
      "velocity": 127,
      "chip": "ym2612"
    },
    {
      "channel": 5,
      "note": 66,
      "start": 36.671,
      "duration": 0.1824,
      "velocity": 127,
      "chip": "ym2612"
    },
    {
      "channel": 4,
      "note": 43,
      "start": 36.6826,
      "duration": 0.1721,
      "velocity": 113,
      "chip": "ym2612"
    },
    {
      "channel": 2,
      "note": 79,
      "start": 36.6984,
      "duration": 0.1531,
      "velocity": 104,
      "chip": "ym2612"
    },
    {
      "channel": 1,
      "note": 70,
      "start": 36.6997,
      "duration": 0.4724,
      "velocity": 104,
      "chip": "ym2612"
    },
    {
      "channel": 3,
      "note": 58,
      "start": 36.7071,
      "duration": 0.4641,
      "velocity": 94,
      "chip": "ym2612"
    },
    {
      "channel": 0,
      "note": 70,
      "start": 36.7087,
      "duration": 0.4642,
      "velocity": 94,
      "chip": "ym2612"
    },
    {
      "channel": 2,
      "note": 74,
      "start": 36.852,
      "duration": 0.1734,
      "velocity": 104,
      "chip": "ym2612"
    },
    {
      "channel": 5,
      "note": 66,
      "start": 36.8539,
      "duration": 0.0818,
      "velocity": 127,
      "chip": "ym2612"
    },
    {
      "channel": 4,
      "note": 43,
      "start": 36.8552,
      "duration": 0.175,
      "velocity": 113,
      "chip": "ym2612"
    },
    {
      "channel": 5,
      "note": 66,
      "start": 36.9362,
      "duration": 0.0911,
      "velocity": 127,
      "chip": "ym2612"
    },
    {
      "channel": 2,
      "note": 79,
      "start": 37.0259,
      "duration": 0.1789,
      "velocity": 104,
      "chip": "ym2612"
    },
    {
      "channel": 5,
      "note": 66,
      "start": 37.0278,
      "duration": 0.1814,
      "velocity": 127,
      "chip": "ym2612"
    },
    {
      "channel": 4,
      "note": 43,
      "start": 37.0307,
      "duration": 0.1798,
      "velocity": 113,
      "chip": "ym2612"
    },
    {
      "channel": 3,
      "note": 60,
      "start": 37.204,
      "duration": 0.4926,
      "velocity": 94,
      "chip": "ym2612"
    },
    {
      "channel": 2,
      "note": 79,
      "start": 37.2054,
      "duration": 0.1712,
      "velocity": 104,
      "chip": "ym2612"
    },
    {
      "channel": 1,
      "note": 70,
      "start": 37.2067,
      "duration": 0.4908,
      "velocity": 104,
      "chip": "ym2612"
    },
    {
      "channel": 0,
      "note": 72,
      "start": 37.208,
      "duration": 0.4903,
      "velocity": 94,
      "chip": "ym2612"
    },
    {
      "channel": 5,
      "note": 66,
      "start": 37.2096,
      "duration": 0.0771,
      "velocity": 127,
      "chip": "ym2612"
    },
    {
      "channel": 4,
      "note": 43,
      "start": 37.211,
      "duration": 0.1704,
      "velocity": 113,
      "chip": "ym2612"
    },
    {
      "channel": 5,
      "note": 66,
      "start": 37.2872,
      "duration": 0.0912,
      "velocity": 127,
      "chip": "ym2612"
    },
    {
      "channel": 2,
      "note": 74,
      "start": 37.3771,
      "duration": 0.1782,
      "velocity": 104,
      "chip": "ym2612"
    },
    {
      "channel": 5,
      "note": 66,
      "start": 37.3789,
      "duration": 0.0884,
      "velocity": 127,
      "chip": "ym2612"
    },
    {
      "channel": 4,
      "note": 43,
      "start": 37.3818,
      "duration": 0.1754,
      "velocity": 113,
      "chip": "ym2612"
    },
    {
      "channel": 5,
      "note": 66,
      "start": 37.4678,
      "duration": 0.0844,
      "velocity": 127,
      "chip": "ym2612"
    },
    {
      "channel": 5,
      "note": 66,
      "start": 37.5526,
      "duration": 0.0855,
      "velocity": 127,
      "chip": "ym2612"
    },
    {
      "channel": 2,
      "note": 79,
      "start": 37.5558,
      "duration": 0.1736,
      "velocity": 104,
      "chip": "ym2612"
    },
    {
      "channel": 4,
      "note": 43,
      "start": 37.5577,
      "duration": 0.1789,
      "velocity": 113,
      "chip": "ym2612"
    },
    {
      "channel": 5,
      "note": 66,
      "start": 37.6386,
      "duration": 0.095,
      "velocity": 127,
      "chip": "ym2612"
    },
    {
      "channel": 3,
      "note": 61,
      "start": 37.7285,
      "duration": 0.498,
      "velocity": 94,
      "chip": "ym2612"
    },
    {
      "channel": 2,
      "note": 79,
      "start": 37.7299,
      "duration": 0.1762,
      "velocity": 104,
      "chip": "ym2612"
    },
    {
      "channel": 1,
      "note": 70,
      "start": 37.7312,
      "duration": 0.4962,
      "velocity": 104,
      "chip": "ym2612"
    },
    {
      "channel": 0,
      "note": 73,
      "start": 37.7326,
      "duration": 0.4956,
      "velocity": 94,
      "chip": "ym2612"
    },
    {
      "channel": 5,
      "note": 66,
      "start": 37.7341,
      "duration": 0.1738,
      "velocity": 127,
      "chip": "ym2612"
    },
    {
      "channel": 4,
      "note": 43,
      "start": 37.7372,
      "duration": 0.1721,
      "velocity": 113,
      "chip": "ym2612"
    },
    {
      "channel": 2,
      "note": 74,
      "start": 37.9066,
      "duration": 0.1771,
      "velocity": 104,
      "chip": "ym2612"
    },
    {
      "channel": 5,
      "note": 66,
      "start": 37.9084,
      "duration": 0.0402,
      "velocity": 127,
      "chip": "ym2612"
    },
    {
      "channel": 4,
      "note": 43,
      "start": 37.9098,
      "duration": 0.1786,
      "velocity": 113,
      "chip": "ym2612"
    },
    {
      "channel": 5,
      "note": 66,
      "start": 37.9492,
      "duration": 0.0429,
      "velocity": 127,
      "chip": "ym2612"
    },
    {
      "channel": 5,
      "note": 66,
      "start": 37.9925,
      "duration": 0.0429,
      "velocity": 127,
      "chip": "ym2612"
    },
    {
      "channel": 5,
      "note": 66,
      "start": 38.0359,
      "duration": 0.0495,
      "velocity": 127,
      "chip": "ym2612"
    },
    {
      "channel": 2,
      "note": 79,
      "start": 38.0841,
      "duration": 0.1751,
      "velocity": 104,
      "chip": "ym2612"
    },
    {
      "channel": 5,
      "note": 66,
      "start": 38.0859,
      "duration": 0.1777,
      "velocity": 127,
      "chip": "ym2612"
    },
    {
      "channel": 4,
      "note": 43,
      "start": 38.0889,
      "duration": 0.176,
      "velocity": 113,
      "chip": "ym2612"
    },
    {
      "channel": 3,
      "note": 62,
      "start": 38.2584,
      "duration": 0.4969,
      "velocity": 94,
      "chip": "ym2612"
    },
    {
      "channel": 2,
      "note": 79,
      "start": 38.2598,
      "duration": 0.1759,
      "velocity": 104,
      "chip": "ym2612"
    },
    {
      "channel": 1,
      "note": 70,
      "start": 38.2611,
      "duration": 0.4952,
      "velocity": 104,
      "chip": "ym2612"
    },
    {
      "channel": 0,
      "note": 74,
      "start": 38.2625,
      "duration": 0.4946,
      "velocity": 94,
      "chip": "ym2612"
    },
    {
      "channel": 5,
      "note": 66,
      "start": 38.264,
      "duration": 0.0771,
      "velocity": 127,
      "chip": "ym2612"
    },
    {
      "channel": 4,
      "note": 43,
      "start": 38.2654,
      "duration": 0.175,
      "velocity": 113,
      "chip": "ym2612"
    },
    {
      "channel": 5,
      "note": 66,
      "start": 38.3416,
      "duration": 0.0959,
      "velocity": 127,
      "chip": "ym2612"
    },
    {
      "channel": 2,
      "note": 74,
      "start": 38.4362,
      "duration": 0.1728,
      "velocity": 104,
      "chip": "ym2612"
    },
    {
      "channel": 5,
      "note": 66,
      "start": 38.438,
      "duration": 0.1728,
      "velocity": 127,
      "chip": "ym2612"
    },
    {
      "channel": 4,
      "note": 43,
      "start": 38.4409,
      "duration": 0.1712,
      "velocity": 113,
      "chip": "ym2612"
    },
    {
      "channel": 2,
      "note": 79,
      "start": 38.6094,
      "duration": 0.1796,
      "velocity": 104,
      "chip": "ym2612"
    },
    {
      "channel": 5,
      "note": 66,
      "start": 38.6113,
      "duration": 0.0865,
      "velocity": 127,
      "chip": "ym2612"
    },
    {
      "channel": 4,
      "note": 43,
      "start": 38.6127,
      "duration": 0.1837,
      "velocity": 113,
      "chip": "ym2612"
    },
    {
      "channel": 5,
      "note": 66,
      "start": 38.6983,
      "duration": 0.095,
      "velocity": 127,
      "chip": "ym2612"
    },
    {
      "channel": 3,
      "note": 61,
      "start": 38.7881,
      "duration": 0.3192,
      "velocity": 94,
      "chip": "ym2612"
    },
    {
      "channel": 2,
      "note": 79,
      "start": 38.7895,
      "duration": 0.3506,
      "velocity": 104,
      "chip": "ym2612"
    },
    {
      "channel": 1,
      "note": 70,
      "start": 38.7909,
      "duration": 0.3174,
      "velocity": 104,
      "chip": "ym2612"
    },
    {
      "channel": 0,
      "note": 73,
      "start": 38.7922,
      "duration": 0.3169,
      "velocity": 94,
      "chip": "ym2612"
    },
    {
      "channel": 5,
      "note": 66,
      "start": 38.7938,
      "duration": 0.0799,
      "velocity": 127,
      "chip": "ym2612"
    },
    {
      "channel": 4,
      "note": 43,
      "start": 38.7968,
      "duration": 0.1645,
      "velocity": 113,
      "chip": "ym2612"
    },
    {
      "channel": 5,
      "note": 66,
      "start": 38.8741,
      "duration": 0.0834,
      "velocity": 127,
      "chip": "ym2612"
    },
    {
      "channel": 5,
      "note": 66,
      "start": 38.958,
      "duration": 0.0908,
      "velocity": 127,
      "chip": "ym2612"
    },
    {
      "channel": 4,
      "note": 43,
      "start": 38.9618,
      "duration": 0.1857,
      "velocity": 113,
      "chip": "ym2612"
    },
    {
      "channel": 5,
      "note": 66,
      "start": 39.0494,
      "duration": 0.095,
      "velocity": 127,
      "chip": "ym2612"
    },
    {
      "channel": 3,
      "note": 60,
      "start": 39.1393,
      "duration": 0.3195,
      "velocity": 94,
      "chip": "ym2612"
    },
    {
      "channel": 2,
      "note": 79,
      "start": 39.1406,
      "duration": 0.3555,
      "velocity": 104,
      "chip": "ym2612"
    },
    {
      "channel": 1,
      "note": 70,
      "start": 39.142,
      "duration": 0.3178,
      "velocity": 104,
      "chip": "ym2612"
    },
    {
      "channel": 0,
      "note": 72,
      "start": 39.1434,
      "duration": 0.3172,
      "velocity": 94,
      "chip": "ym2612"
    },
    {
      "channel": 5,
      "note": 66,
      "start": 39.1449,
      "duration": 0.1725,
      "velocity": 127,
      "chip": "ym2612"
    },
    {
      "channel": 4,
      "note": 43,
      "start": 39.1479,
      "duration": 0.1709,
      "velocity": 113,
      "chip": "ym2612"
    },
    {
      "channel": 5,
      "note": 66,
      "start": 39.3179,
      "duration": 0.0366,
      "velocity": 127,
      "chip": "ym2612"
    },
    {
      "channel": 4,
      "note": 43,
      "start": 39.3193,
      "duration": 0.1812,
      "velocity": 113,
      "chip": "ym2612"
    },
    {
      "channel": 5,
      "note": 66,
      "start": 39.3549,
      "duration": 0.0477,
      "velocity": 127,
      "chip": "ym2612"
    },
    {
      "channel": 5,
      "note": 66,
      "start": 39.4031,
      "duration": 0.0381,
      "velocity": 127,
      "chip": "ym2612"
    },
    {
      "channel": 5,
      "note": 66,
      "start": 39.4416,
      "duration": 0.051,
      "velocity": 127,
      "chip": "ym2612"
    },
    {
      "channel": 5,
      "note": 66,
      "start": 39.4931,
      "duration": 0.1778,
      "velocity": 127,
      "chip": "ym2612"
    },
    {
      "channel": 3,
      "note": 58,
      "start": 39.4952,
      "duration": 0.4935,
      "velocity": 94,
      "chip": "ym2612"
    },
    {
      "channel": 2,
      "note": 79,
      "start": 39.4966,
      "duration": 0.1724,
      "velocity": 104,
      "chip": "ym2612"
    },
    {
      "channel": 1,
      "note": 70,
      "start": 39.4979,
      "duration": 0.4917,
      "velocity": 104,
      "chip": "ym2612"
    },
    {
      "channel": 0,
      "note": 70,
      "start": 39.4993,
      "duration": 0.4912,
      "velocity": 94,
      "chip": "ym2612"
    },
    {
      "channel": 4,
      "note": 43,
      "start": 39.501,
      "duration": 0.1712,
      "velocity": 113,
      "chip": "ym2612"
    },
    {
      "channel": 2,
      "note": 74,
      "start": 39.6696,
      "duration": 0.1724,
      "velocity": 104,
      "chip": "ym2612"
    },
    {
      "channel": 5,
      "note": 66,
      "start": 39.6714,
      "duration": 0.0808,
      "velocity": 127,
      "chip": "ym2612"
    },
    {
      "channel": 4,
      "note": 43,
      "start": 39.6728,
      "duration": 0.174,
      "velocity": 113,
      "chip": "ym2612"
    },
    {
      "channel": 5,
      "note": 66,
      "start": 39.7528,
      "duration": 0.0911,
      "velocity": 127,
      "chip": "ym2612"
    },
    {
      "channel": 2,
      "note": 79,
      "start": 39.8425,
      "duration": 0.179,
      "velocity": 104,
      "chip": "ym2612"
    },
    {
      "channel": 5,
      "note": 66,
      "start": 39.8444,
      "duration": 0.1814,
      "velocity": 127,
      "chip": "ym2612"
    },
    {
      "channel": 4,
      "note": 43,
      "start": 39.8473,
      "duration": 0.1798,
      "velocity": 113,
      "chip": "ym2612"
    },
    {
      "channel": 3,
      "note": 60,
      "start": 40.0206,
      "duration": 0.4925,
      "velocity": 94,
      "chip": "ym2612"
    },
    {
      "channel": 2,
      "note": 79,
      "start": 40.022,
      "duration": 0.1721,
      "velocity": 104,
      "chip": "ym2612"
    },
    {
      "channel": 1,
      "note": 70,
      "start": 40.0233,
      "duration": 0.4908,
      "velocity": 104,
      "chip": "ym2612"
    },
    {
      "channel": 0,
      "note": 72,
      "start": 40.0247,
      "duration": 0.4902,
      "velocity": 94,
      "chip": "ym2612"
    },
    {
      "channel": 5,
      "note": 66,
      "start": 40.0262,
      "duration": 0.078,
      "velocity": 127,
      "chip": "ym2612"
    },
    {
      "channel": 4,
      "note": 43,
      "start": 40.0276,
      "duration": 0.1712,
      "velocity": 113,
      "chip": "ym2612"
    },
    {
      "channel": 5,
      "note": 66,
      "start": 40.1047,
      "duration": 0.0912,
      "velocity": 127,
      "chip": "ym2612"
    },
    {
      "channel": 2,
      "note": 74,
      "start": 40.1946,
      "duration": 0.1772,
      "velocity": 104,
      "chip": "ym2612"
    },
    {
      "channel": 5,
      "note": 66,
      "start": 40.1964,
      "duration": 0.0875,
      "velocity": 127,
      "chip": "ym2612"
    },
    {
      "channel": 4,
      "note": 43,
      "start": 40.1993,
      "duration": 0.1745,
      "velocity": 113,
      "chip": "ym2612"
    },
    {
      "channel": 5,
      "note": 66,
      "start": 40.2843,
      "duration": 0.0844,
      "velocity": 127,
      "chip": "ym2612"
    },
    {
      "channel": 5,
      "note": 66,
      "start": 40.3692,
      "duration": 0.0864,
      "velocity": 127,
      "chip": "ym2612"
    },
    {
      "channel": 2,
      "note": 79,
      "start": 40.3723,
      "duration": 0.1764,
      "velocity": 104,
      "chip": "ym2612"
    },
    {
      "channel": 4,
      "note": 43,
      "start": 40.3743,
      "duration": 0.1744,
      "velocity": 113,
      "chip": "ym2612"
    },
    {
      "channel": 5,
      "note": 66,
      "start": 40.4561,
      "duration": 0.0926,
      "velocity": 127,
      "chip": "ym2612"
    }
  ]
}