{
  "track_name": "06 - Race 3",
  "duration_sec": 102.666,
  "sample_rate": 44100,
  "note_count": 1489,
  "unique_pitches": 37,
  "pitch_range": 50,
  "avg_note_duration": 0.2205,
  "reconstruction_stats": {
    "notes_reconstructed": 1489,
    "keyon_events": 1489,
    "keyoff_events": 1486,
    "orphan_keyons": 3,
    "unique_pitches": 37,
    "pitch_range": 50,
    "avg_duration_sec": 0.2205
  },
  "metadata": {
    "source": "M\\Metal Fangs\\06 - Race 3.vgz"
  },
  "notes": [
    {
      "channel": 0,
      "note": 49,
      "start": 0.0,
      "duration": 0.0999,
      "velocity": 105,
      "chip": "ym2612"
    },
    {
      "channel": 2,
      "note": 80,
      "start": 0.0031,
      "duration": 0.3691,
      "velocity": 103,
      "chip": "ym2612"
    },
    {
      "channel": 3,
      "note": 75,
      "start": 0.0046,
      "duration": 0.3678,
      "velocity": 103,
      "chip": "ym2612"
    },
    {
      "channel": 0,
      "note": 59,
      "start": 0.1001,
      "duration": 0.0857,
      "velocity": 105,
      "chip": "ym2612"
    },
    {
      "channel": 1,
      "note": 73,
      "start": 0.1004,
      "duration": 0.0036,
      "velocity": 101,
      "chip": "ym2612"
    },
    {
      "channel": 4,
      "note": 80,
      "start": 0.1009,
      "duration": 0.0035,
      "velocity": 101,
      "chip": "ym2612"
    },
    {
      "channel": 1,
      "note": 73,
      "start": 0.1042,
      "duration": 0.0819,
      "velocity": 101,
      "chip": "ym2612"
    },
    {
      "channel": 4,
      "note": 80,
      "start": 0.1047,
      "duration": 0.0819,
      "velocity": 101,
      "chip": "ym2612"
    },
    {
      "channel": 0,
      "note": 56,
      "start": 0.186,
      "duration": 0.009,
      "velocity": 105,
      "chip": "ym2612"
    },
    {
      "channel": 1,
      "note": 73,
      "start": 0.1863,
      "duration": 0.0041,
      "velocity": 101,
      "chip": "ym2612"
    },
    {
      "channel": 4,
      "note": 80,
      "start": 0.1868,
      "duration": 0.0041,
      "velocity": 101,
      "chip": "ym2612"
    },
    {
      "channel": 1,
      "note": 73,
      "start": 0.1906,
      "duration": 0.0046,
      "velocity": 101,
      "chip": "ym2612"
    },
    {
      "channel": 4,
      "note": 80,
      "start": 0.1912,
      "duration": 0.0044,
      "velocity": 101,
      "chip": "ym2612"
    },
    {
      "channel": 0,
      "note": 61,
      "start": 0.1952,
      "duration": 0.0022,
      "velocity": 105,
      "chip": "ym2612"
    },
    {
      "channel": 0,
      "note": 49,
      "start": 0.1976,
      "duration": 0.0023,
      "velocity": 105,
      "chip": "ym2612"
    },
    {
      "channel": 1,
      "note": 73,
      "start": 0.2003,
      "duration": 0.0817,
      "velocity": 101,
      "chip": "ym2612"
    },
    {
      "channel": 4,
      "note": 80,
      "start": 0.2008,
      "duration": 0.0818,
      "velocity": 101,
      "chip": "ym2612"
    },
    {
      "channel": 0,
      "note": 49,
      "start": 0.282,
      "duration": 0.0042,
      "velocity": 105,
      "chip": "ym2612"
    },
    {
      "channel": 1,
      "note": 73,
      "start": 0.2823,
      "duration": 0.0041,
      "velocity": 101,
      "chip": "ym2612"
    },
    {
      "channel": 4,
      "note": 80,
      "start": 0.2828,
      "duration": 0.0042,
      "velocity": 101,
      "chip": "ym2612"
    },
    {
      "channel": 0,
      "note": 59,
      "start": 0.2864,
      "duration": 0.0854,
      "velocity": 105,
      "chip": "ym2612"
    },
    {
      "channel": 1,
      "note": 73,
      "start": 0.2867,
      "duration": 0.0034,
      "velocity": 101,
      "chip": "ym2612"
    },
    {
      "channel": 4,
      "note": 80,
      "start": 0.2872,
      "duration": 0.0033,
      "velocity": 101,
      "chip": "ym2612"
    },
    {
      "channel": 1,
      "note": 73,
      "start": 0.2903,
      "duration": 0.0818,
      "velocity": 101,
      "chip": "ym2612"
    },
    {
      "channel": 4,
      "note": 80,
      "start": 0.2907,
      "duration": 0.0819,
      "velocity": 101,
      "chip": "ym2612"
    },
    {
      "channel": 0,
      "note": 56,
      "start": 0.372,
      "duration": 0.0053,
      "velocity": 105,
      "chip": "ym2612"
    },
    {
      "channel": 1,
      "note": 73,
      "start": 0.3741,
      "duration": 0.0034,
      "velocity": 101,
      "chip": "ym2612"
    },
    {
      "channel": 4,
      "note": 78,
      "start": 0.3745,
      "duration": 0.004,
      "velocity": 101,
      "chip": "ym2612"
    },
    {
      "channel": 0,
      "note": 61,
      "start": 0.3775,
      "duration": 0.084,
      "velocity": 105,
      "chip": "ym2612"
    },
    {
      "channel": 2,
      "note": 80,
      "start": 0.378,
      "duration": 0.0022,
      "velocity": 103,
      "chip": "ym2612"
    },
    {
      "channel": 3,
      "note": 75,
      "start": 0.3783,
      "duration": 0.0022,
      "velocity": 103,
      "chip": "ym2612"
    },
    {
      "channel": 1,
      "note": 73,
      "start": 0.38,
      "duration": 0.0818,
      "velocity": 101,
      "chip": "ym2612"
    },
    {
      "channel": 2,
      "note": 78,
      "start": 0.3803,
      "duration": 0.4424,
      "velocity": 103,
      "chip": "ym2612"
    },
    {
      "channel": 3,
      "note": 75,
      "start": 0.3807,
      "duration": 0.4424,
      "velocity": 103,
      "chip": "ym2612"
    },
    {
      "channel": 4,
      "note": 80,
      "start": 0.381,
      "duration": 0.0811,
      "velocity": 101,
      "chip": "ym2612"
    },
    {
      "channel": 0,
      "note": 49,
      "start": 0.4617,
      "duration": 0.0837,
      "velocity": 105,
      "chip": "ym2612"
    },
    {
      "channel": 0,
      "note": 59,
      "start": 0.5457,
      "duration": 0.0852,
      "velocity": 105,
      "chip": "ym2612"
    },
    {
      "channel": 1,
      "note": 73,
      "start": 0.546,
      "duration": 0.0032,
      "velocity": 101,
      "chip": "ym2612"
    },
    {
      "channel": 4,
      "note": 80,
      "start": 0.5465,
      "duration": 0.0032,
      "velocity": 101,
      "chip": "ym2612"
    },
    {
      "channel": 1,
      "note": 73,
      "start": 0.5494,
      "duration": 0.0817,
      "velocity": 101,
      "chip": "ym2612"
    },
    {
      "channel": 4,
      "note": 80,
      "start": 0.55,
      "duration": 0.0817,
      "velocity": 101,
      "chip": "ym2612"
    },
    {
      "channel": 0,
      "note": 56,
      "start": 0.6311,
      "duration": 0.0087,
      "velocity": 105,
      "chip": "ym2612"
    },
    {
      "channel": 1,
      "note": 73,
      "start": 0.6314,
      "duration": 0.004,
      "velocity": 101,
      "chip": "ym2612"
    },
    {
      "channel": 4,
      "note": 80,
      "start": 0.6319,
      "duration": 0.0041,
      "velocity": 101,
      "chip": "ym2612"
    },
    {
      "channel": 1,
      "note": 73,
      "start": 0.6357,
      "duration": 0.0044,
      "velocity": 101,
      "chip": "ym2612"
    },
    {
      "channel": 4,
      "note": 80,
      "start": 0.6362,
      "duration": 0.0042,
      "velocity": 101,
      "chip": "ym2612"
    },
    {
      "channel": 0,
      "note": 61,
      "start": 0.64,
      "duration": 0.0022,
      "velocity": 105,
      "chip": "ym2612"
    },
    {
      "channel": 0,
      "note": 49,
      "start": 0.6425,
      "duration": 0.0025,
      "velocity": 105,
      "chip": "ym2612"
    },
    {
      "channel": 1,
      "note": 73,
      "start": 0.6454,
      "duration": 0.0818,
      "velocity": 101,
      "chip": "ym2612"
    },
    {
      "channel": 4,
      "note": 80,
      "start": 0.6459,
      "duration": 0.0818,
      "velocity": 101,
      "chip": "ym2612"
    },
    {
      "channel": 0,
      "note": 49,
      "start": 0.7271,
      "duration": 0.0043,
      "velocity": 105,
      "chip": "ym2612"
    },
    {
      "channel": 1,
      "note": 73,
      "start": 0.7274,
      "duration": 0.0043,
      "velocity": 101,
      "chip": "ym2612"
    },
    {
      "channel": 4,
      "note": 80,
      "start": 0.7279,
      "duration": 0.0043,
      "velocity": 101,
      "chip": "ym2612"
    },
    {
      "channel": 0,
      "note": 59,
      "start": 0.7315,
      "duration": 0.0855,
      "velocity": 105,
      "chip": "ym2612"
    },
    {
      "channel": 1,
      "note": 73,
      "start": 0.7319,
      "duration": 0.0034,
      "velocity": 101,
      "chip": "ym2612"
    },
    {
      "channel": 4,
      "note": 80,
      "start": 0.7324,
      "duration": 0.0033,
      "velocity": 101,
      "chip": "ym2612"
    },
    {
      "channel": 1,
      "note": 73,
      "start": 0.7354,
      "duration": 0.0819,
      "velocity": 101,
      "chip": "ym2612"
    },
    {
      "channel": 4,
      "note": 80,
      "start": 0.7359,
      "duration": 0.0818,
      "velocity": 101,
      "chip": "ym2612"
    },
    {
      "channel": 0,
      "note": 56,
      "start": 0.8172,
      "duration": 0.0052,
      "velocity": 105,
      "chip": "ym2612"
    },
    {
      "channel": 0,
      "note": 61,
      "start": 0.8227,
      "duration": 0.0833,
      "velocity": 105,
      "chip": "ym2612"
    },
    {
      "channel": 2,
      "note": 78,
      "start": 0.823,
      "duration": 0.0019,
      "velocity": 103,
      "chip": "ym2612"
    },
    {
      "channel": 3,
      "note": 75,
      "start": 0.8234,
      "duration": 0.0017,
      "velocity": 103,
      "chip": "ym2612"
    },
    {
      "channel": 0,
      "note": 49,
      "start": 0.9062,
      "duration": 0.0839,
      "velocity": 105,
      "chip": "ym2612"
    },
    {
      "channel": 2,
      "note": 78,
      "start": 0.9067,
      "duration": 0.084,
      "velocity": 103,
      "chip": "ym2612"
    },
    {
      "channel": 3,
      "note": 75,
      "start": 0.9069,
      "duration": 0.084,
      "velocity": 103,
      "chip": "ym2612"
    },
    {
      "channel": 0,
      "note": 59,
      "start": 0.9903,
      "duration": 0.0848,
      "velocity": 105,
      "chip": "ym2612"
    },
    {
      "channel": 1,
      "note": 73,
      "start": 0.9906,
      "duration": 0.0028,
      "velocity": 101,
      "chip": "ym2612"
    },
    {
      "channel": 4,
      "note": 80,
      "start": 0.9913,
      "duration": 0.0032,
      "velocity": 101,
      "chip": "ym2612"
    },
    {
      "channel": 1,
      "note": 73,
      "start": 0.9937,
      "duration": 0.0817,
      "velocity": 101,
      "chip": "ym2612"
    },
    {
      "channel": 2,
      "note": 80,
      "start": 0.9941,
      "duration": 0.7194,
      "velocity": 103,
      "chip": "ym2612"
    },
    {
      "channel": 3,
      "note": 75,
      "start": 0.9944,
      "duration": 0.7193,
      "velocity": 103,
      "chip": "ym2612"
    },
    {
      "channel": 4,
      "note": 80,
      "start": 0.9947,
      "duration": 0.0812,
      "velocity": 101,
      "chip": "ym2612"
    },
    {
      "channel": 0,
      "note": 56,
      "start": 1.0754,
      "duration": 0.0085,
      "velocity": 105,
      "chip": "ym2612"
    },
    {
      "channel": 1,
      "note": 73,
      "start": 1.0757,
      "duration": 0.0039,
      "velocity": 101,
      "chip": "ym2612"
    },
    {
      "channel": 4,
      "note": 80,
      "start": 1.0762,
      "duration": 0.0039,
      "velocity": 101,
      "chip": "ym2612"
    },
    {
      "channel": 1,
      "note": 73,
      "start": 1.0798,
      "duration": 0.0043,
      "velocity": 101,
      "chip": "ym2612"
    },
    {
      "channel": 4,
      "note": 80,
      "start": 1.0803,
      "duration": 0.0042,
      "velocity": 101,
      "chip": "ym2612"
    },
    {
      "channel": 0,
      "note": 61,
      "start": 1.084,
      "duration": 0.0022,
      "velocity": 105,
      "chip": "ym2612"
    },
    {
      "channel": 0,
      "note": 49,
      "start": 1.0864,
      "duration": 0.0024,
      "velocity": 105,
      "chip": "ym2612"
    },
    {
      "channel": 1,
      "note": 73,
      "start": 1.0892,
      "duration": 0.0817,
      "velocity": 101,
      "chip": "ym2612"
    },
    {
      "channel": 4,
      "note": 80,
      "start": 1.0897,
      "duration": 0.0818,
      "velocity": 101,
      "chip": "ym2612"
    },
    {
      "channel": 0,
      "note": 49,
      "start": 1.1709,
      "duration": 0.0042,
      "velocity": 105,
      "chip": "ym2612"
    },
    {
      "channel": 1,
      "note": 73,
      "start": 1.1712,
      "duration": 0.0041,
      "velocity": 101,
      "chip": "ym2612"
    },
    {
      "channel": 4,
      "note": 80,
      "start": 1.1717,
      "duration": 0.0042,
      "velocity": 101,
      "chip": "ym2612"
    },
    {
      "channel": 0,
      "note": 59,
      "start": 1.1752,
      "duration": 0.0855,
      "velocity": 105,
      "chip": "ym2612"
    },
    {
      "channel": 1,
      "note": 73,
      "start": 1.1756,
      "duration": 0.0036,
      "velocity": 101,
      "chip": "ym2612"
    },
    {
      "channel": 4,
      "note": 80,
      "start": 1.1761,
      "duration": 0.0033,
      "velocity": 101,
      "chip": "ym2612"
    },
    {
      "channel": 1,
      "note": 73,
      "start": 1.1793,
      "duration": 0.0817,
      "velocity": 101,
      "chip": "ym2612"
    },
    {
      "channel": 4,
      "note": 80,
      "start": 1.1797,
      "duration": 0.0817,
      "velocity": 101,
      "chip": "ym2612"
    },
    {
      "channel": 0,
      "note": 56,
      "start": 1.261,
      "duration": 0.0067,
      "velocity": 105,
      "chip": "ym2612"
    },
    {
      "channel": 1,
      "note": 73,
      "start": 1.2637,
      "duration": 0.0043,
      "velocity": 101,
      "chip": "ym2612"
    },
    {
      "channel": 4,
      "note": 78,
      "start": 1.2642,
      "duration": 0.0041,
      "velocity": 101,
      "chip": "ym2612"
    },
    {
      "channel": 0,
      "note": 61,
      "start": 1.2679,
      "duration": 0.084,
      "velocity": 105,
      "chip": "ym2612"
    },
    {
      "channel": 1,
      "note": 73,
      "start": 1.2703,
      "duration": 0.0833,
      "velocity": 99,
      "chip": "ym2612"
    },
    {
      "channel": 4,
      "note": 80,
      "start": 1.2709,
      "duration": 0.0845,
      "velocity": 99,
      "chip": "ym2612"
    },
    {
      "channel": 0,
      "note": 49,
      "start": 1.3521,
      "duration": 0.0871,
      "velocity": 105,
      "chip": "ym2612"
    },
    {
      "channel": 0,
      "note": 59,
      "start": 1.4394,
      "duration": 0.0847,
      "velocity": 105,
      "chip": "ym2612"
    },
    {
      "channel": 1,
      "note": 75,
      "start": 1.4397,
      "duration": 0.0027,
      "velocity": 99,
      "chip": "ym2612"
    },
    {
      "channel": 4,
      "note": 75,
      "start": 1.4412,
      "duration": 0.0166,
      "velocity": 99,
      "chip": "ym2612"
    },
    {
      "channel": 1,
      "note": 70,
      "start": 1.4427,
      "duration": 0.0817,
      "velocity": 99,
      "chip": "ym2612"
    },
    {
      "channel": 4,
      "note": 70,
      "start": 1.458,
      "duration": 0.0688,
      "velocity": 99,
      "chip": "ym2612"
    },
    {
      "channel": 0,
      "note": 56,
      "start": 1.5243,
      "duration": 0.0085,
      "velocity": 105,
      "chip": "ym2612"
    },
    {
      "channel": 1,
      "note": 68,
      "start": 1.5246,
      "duration": 0.0038,
      "velocity": 99,
      "chip": "ym2612"
    },
    {
      "channel": 4,
      "note": 68,
      "start": 1.527,
      "duration": 0.0041,
      "velocity": 99,
      "chip": "ym2612"
    },
    {
      "channel": 1,
      "note": 73,
      "start": 1.5287,
      "duration": 0.0045,
      "velocity": 99,
      "chip": "ym2612"
    },
    {
      "channel": 4,
      "note": 73,
      "start": 1.5312,
      "duration": 0.004,
      "velocity": 99,
      "chip": "ym2612"
    },
    {
      "channel": 0,
      "note": 61,
      "start": 1.533,
      "duration": 0.0034,
      "velocity": 105,
      "chip": "ym2612"
    },
    {
      "channel": 1,
      "note": 80,
      "start": 1.5334,
      "duration": 0.0033,
      "velocity": 99,
      "chip": "ym2612"
    },
    {
      "channel": 4,
      "note": 80,
      "start": 1.5354,
      "duration": 0.004,
      "velocity": 99,
      "chip": "ym2612"
    },
    {
      "channel": 0,
      "note": 49,
      "start": 1.5366,
      "duration": 0.0043,
      "velocity": 105,
      "chip": "ym2612"
    },
    {
      "channel": 1,
      "note": 75,
      "start": 1.5369,
      "duration": 0.0041,
      "velocity": 99,
      "chip": "ym2612"
    },
    {
      "channel": 4,
      "note": 75,
      "start": 1.5396,
      "duration": 0.0168,
      "velocity": 99,
      "chip": "ym2612"
    },
    {
      "channel": 1,
      "note": 73,
      "start": 1.5413,
      "duration": 0.0817,
      "velocity": 99,
      "chip": "ym2612"
    },
    {
      "channel": 4,
      "note": 73,
      "start": 1.5566,
      "duration": 0.0689,
      "velocity": 99,
      "chip": "ym2612"
    },
    {
      "channel": 0,
      "note": 49,
      "start": 1.6229,
      "duration": 0.0043,
      "velocity": 105,
      "chip": "ym2612"
    },
    {
      "channel": 1,
      "note": 80,
      "start": 1.6232,
      "duration": 0.0043,
      "velocity": 99,
      "chip": "ym2612"
    },
    {
      "channel": 4,
      "note": 80,
      "start": 1.6256,
      "duration": 0.0041,
      "velocity": 99,
      "chip": "ym2612"
    },
    {
      "channel": 0,
      "note": 59,
      "start": 1.6274,
      "duration": 0.0855,
      "velocity": 105,
      "chip": "ym2612"
    },
    {
      "channel": 1,
      "note": 87,
      "start": 1.6278,
      "duration": 0.0033,
      "velocity": 99,
      "chip": "ym2612"
    },
    {
      "channel": 4,
      "note": 87,
      "start": 1.6299,
      "duration": 0.0167,
      "velocity": 99,
      "chip": "ym2612"
    },
    {
      "channel": 1,
      "note": 82,
      "start": 1.6312,
      "duration": 0.082,
      "velocity": 99,
      "chip": "ym2612"
    },
    {
      "channel": 4,
      "note": 82,
      "start": 1.6468,
      "duration": 0.0683,
      "velocity": 99,
      "chip": "ym2612"
    },
    {
      "channel": 0,
      "note": 56,
      "start": 1.7132,
      "duration": 0.0071,
      "velocity": 105,
      "chip": "ym2612"
    },
    {
      "channel": 1,
      "note": 80,
      "start": 1.7135,
      "duration": 0.003,
      "velocity": 99,
      "chip": "ym2612"
    },
    {
      "channel": 4,
      "note": 80,
      "start": 1.7153,
      "duration": 0.0032,
      "velocity": 99,
      "chip": "ym2612"
    },
    {
      "channel": 1,
      "note": 85,
      "start": 1.7167,
      "duration": 0.0039,
      "velocity": 99,
      "chip": "ym2612"
    },
    {
      "channel": 4,
      "note": 85,
      "start": 1.7186,
      "duration": 0.0036,
      "velocity": 99,
      "chip": "ym2612"
    },
    {
      "channel": 0,
      "note": 61,
      "start": 1.7205,
      "duration": 0.0846,
      "velocity": 105,
      "chip": "ym2612"
    },
    {
      "channel": 1,
      "note": 92,
      "start": 1.7208,
      "duration": 0.0028,
      "velocity": 99,
      "chip": "ym2612"
    },
    {
      "channel": 4,
      "note": 92,
      "start": 1.7223,
      "duration": 0.0163,
      "velocity": 99,
      "chip": "ym2612"
    },
    {
      "channel": 1,
      "note": 87,
      "start": 1.7239,
      "duration": 0.083,
      "velocity": 101,
      "chip": "ym2612"
    },
    {
      "channel": 4,
      "note": 87,
      "start": 1.7389,
      "duration": 0.0702,
      "velocity": 101,
      "chip": "ym2612"
    },
    {
      "channel": 0,
      "note": 49,
      "start": 1.8053,
      "duration": 0.087,
      "velocity": 105,
      "chip": "ym2612"
    },
    {
      "channel": 2,
      "note": 80,
      "start": 1.8072,
      "duration": 0.3574,
      "velocity": 103,
      "chip": "ym2612"
    },
    {
      "channel": 3,
      "note": 75,
      "start": 1.8075,
      "duration": 0.3573,
      "velocity": 103,
      "chip": "ym2612"
    },
    {
      "channel": 0,
      "note": 59,
      "start": 1.8925,
      "duration": 0.0857,
      "velocity": 105,
      "chip": "ym2612"
    },
    {
      "channel": 1,
      "note": 73,
      "start": 1.8928,
      "duration": 0.0036,
      "velocity": 101,
      "chip": "ym2612"
    },
    {
      "channel": 4,
      "note": 80,
      "start": 1.8933,
      "duration": 0.0035,
      "velocity": 101,
      "chip": "ym2612"
    },
    {
      "channel": 1,
      "note": 73,
      "start": 1.8966,
      "duration": 0.0819,
      "velocity": 101,
      "chip": "ym2612"
    },
    {
      "channel": 4,
      "note": 80,
      "start": 1.8971,
      "duration": 0.0819,
      "velocity": 101,
      "chip": "ym2612"
    },
    {
      "channel": 0,
      "note": 56,
      "start": 1.9784,
      "duration": 0.009,
      "velocity": 105,
      "chip": "ym2612"
    },
    {
      "channel": 1,
      "note": 73,
      "start": 1.9787,
      "duration": 0.0041,
      "velocity": 101,
      "chip": "ym2612"
    },
    {
      "channel": 4,
      "note": 80,
      "start": 1.9792,
      "duration": 0.0041,
      "velocity": 101,
      "chip": "ym2612"
    },
    {
      "channel": 1,
      "note": 73,
      "start": 1.983,
      "duration": 0.0046,
      "velocity": 101,
      "chip": "ym2612"
    },
    {
      "channel": 4,
      "note": 80,
      "start": 1.9835,
      "duration": 0.0044,
      "velocity": 101,
      "chip": "ym2612"
    },
    {
      "channel": 0,
      "note": 61,
      "start": 1.9876,
      "duration": 0.0022,
      "velocity": 105,
      "chip": "ym2612"
    },
    {
      "channel": 0,
      "note": 49,
      "start": 1.99,
      "duration": 0.0023,
      "velocity": 105,
      "chip": "ym2612"
    },
    {
      "channel": 1,
      "note": 73,
      "start": 1.9927,
      "duration": 0.0817,
      "velocity": 101,
      "chip": "ym2612"
    },
    {
      "channel": 4,
      "note": 80,
      "start": 1.9932,
      "duration": 0.0818,
      "velocity": 101,
      "chip": "ym2612"
    },
    {
      "channel": 0,
      "note": 49,
      "start": 2.0744,
      "duration": 0.0042,
      "velocity": 105,
      "chip": "ym2612"
    },
    {
      "channel": 1,
      "note": 73,
      "start": 2.0747,
      "duration": 0.0041,
      "velocity": 101,
      "chip": "ym2612"
    },
    {
      "channel": 4,
      "note": 80,
      "start": 2.0752,
      "duration": 0.0042,
      "velocity": 101,
      "chip": "ym2612"
    },
    {
      "channel": 0,
      "note": 59,
      "start": 2.0788,
      "duration": 0.0854,
      "velocity": 105,
      "chip": "ym2612"
    },
    {
      "channel": 1,
      "note": 73,
      "start": 2.0791,
      "duration": 0.0034,
      "velocity": 101,
      "chip": "ym2612"
    },
    {
      "channel": 4,
      "note": 80,
      "start": 2.0796,
      "duration": 0.0033,
      "velocity": 101,
      "chip": "ym2612"
    },
    {
      "channel": 1,
      "note": 73,
      "start": 2.0827,
      "duration": 0.0818,
      "velocity": 101,
      "chip": "ym2612"
    },
    {
      "channel": 4,
      "note": 80,
      "start": 2.0831,
      "duration": 0.0819,
      "velocity": 101,
      "chip": "ym2612"
    },
    {
      "channel": 0,
      "note": 56,
      "start": 2.1644,
      "duration": 0.0053,
      "velocity": 105,
      "chip": "ym2612"
    },
    {
      "channel": 1,
      "note": 73,
      "start": 2.1665,
      "duration": 0.0034,
      "velocity": 101,
      "chip": "ym2612"
    },
    {
      "channel": 4,
      "note": 78,
      "start": 2.1669,
      "duration": 0.004,
      "velocity": 101,
      "chip": "ym2612"
    },
    {
      "channel": 0,
      "note": 61,
      "start": 2.1699,
      "duration": 0.084,
      "velocity": 105,
      "chip": "ym2612"
    },
    {
      "channel": 2,
      "note": 80,
      "start": 2.1704,
      "duration": 0.0022,
      "velocity": 103,
      "chip": "ym2612"
    },
    {
      "channel": 3,
      "note": 75,
      "start": 2.1707,
      "duration": 0.0022,
      "velocity": 103,
      "chip": "ym2612"
    },
    {
      "channel": 1,
      "note": 73,
      "start": 2.1724,
      "duration": 0.0818,
      "velocity": 101,
      "chip": "ym2612"
    },
    {
      "channel": 2,
      "note": 78,
      "start": 2.1727,
      "duration": 0.442,
      "velocity": 103,
      "chip": "ym2612"
    },
    {
      "channel": 3,
      "note": 75,
      "start": 2.173,
      "duration": 0.442,
      "velocity": 103,
      "chip": "ym2612"
    },
    {
      "channel": 4,
      "note": 80,
      "start": 2.1734,
      "duration": 0.0811,
      "velocity": 101,
      "chip": "ym2612"
    },
    {
      "channel": 0,
      "note": 49,
      "start": 2.2541,
      "duration": 0.0837,
      "velocity": 105,
      "chip": "ym2612"
    },
    {
      "channel": 0,
      "note": 59,
      "start": 2.338,
      "duration": 0.085,
      "velocity": 105,
      "chip": "ym2612"
    },
    {
      "channel": 1,
      "note": 73,
      "start": 2.3384,
      "duration": 0.003,
      "velocity": 101,
      "chip": "ym2612"
    },
    {
      "channel": 4,
      "note": 80,
      "start": 2.3389,
      "duration": 0.003,
      "velocity": 101,
      "chip": "ym2612"
    },
    {
      "channel": 1,
      "note": 73,
      "start": 2.3416,
      "duration": 0.0818,
      "velocity": 101,
      "chip": "ym2612"
    },
    {
      "channel": 4,
      "note": 80,
      "start": 2.3421,
      "duration": 0.0818,
      "velocity": 101,
      "chip": "ym2612"
    },
    {
      "channel": 0,
      "note": 56,
      "start": 2.4233,
      "duration": 0.0085,
      "velocity": 105,
      "chip": "ym2612"
    },
    {
      "channel": 1,
      "note": 73,
      "start": 2.4236,
      "duration": 0.004,
      "velocity": 101,
      "chip": "ym2612"
    },
    {
      "channel": 4,
      "note": 80,
      "start": 2.4241,
      "duration": 0.0041,
      "velocity": 101,
      "chip": "ym2612"
    },
    {
      "channel": 1,
      "note": 73,
      "start": 2.4279,
      "duration": 0.0041,
      "velocity": 101,
      "chip": "ym2612"
    },
    {
      "channel": 4,
      "note": 80,
      "start": 2.4284,
      "duration": 0.004,
      "velocity": 101,
      "chip": "ym2612"
    },
    {
      "channel": 0,
      "note": 61,
      "start": 2.432,
      "duration": 0.0023,
      "velocity": 105,
      "chip": "ym2612"
    },
    {
      "channel": 0,
      "note": 49,
      "start": 2.4344,
      "duration": 0.0026,
      "velocity": 105,
      "chip": "ym2612"
    },
    {
      "channel": 1,
      "note": 73,
      "start": 2.4374,
      "duration": 0.0816,
      "velocity": 101,
      "chip": "ym2612"
    },
    {
      "channel": 4,
      "note": 80,
      "start": 2.4379,
      "duration": 0.0816,
      "velocity": 101,
      "chip": "ym2612"
    },
    {
      "channel": 0,
      "note": 49,
      "start": 2.519,
      "duration": 0.0044,
      "velocity": 105,
      "chip": "ym2612"
    },
    {
      "channel": 1,
      "note": 73,
      "start": 2.5193,
      "duration": 0.0043,
      "velocity": 101,
      "chip": "ym2612"
    },
    {
      "channel": 4,
      "note": 80,
      "start": 2.5198,
      "duration": 0.0043,
      "velocity": 101,
      "chip": "ym2612"
    },
    {
      "channel": 0,
      "note": 59,
      "start": 2.5235,
      "duration": 0.0855,
      "velocity": 105,
      "chip": "ym2612"
    },
    {
      "channel": 1,
      "note": 73,
      "start": 2.5239,
      "duration": 0.0036,
      "velocity": 101,
      "chip": "ym2612"
    },
    {
      "channel": 4,
      "note": 80,
      "start": 2.5244,
      "duration": 0.0035,
      "velocity": 101,
      "chip": "ym2612"
    },
    {
      "channel": 1,
      "note": 73,
      "start": 2.5277,
      "duration": 0.0816,
      "velocity": 101,
      "chip": "ym2612"
    },
    {
      "channel": 4,
      "note": 80,
      "start": 2.5281,
      "duration": 0.0815,
      "velocity": 101,
      "chip": "ym2612"
    },
    {
      "channel": 0,
      "note": 56,
      "start": 2.6093,
      "duration": 0.0051,
      "velocity": 105,
      "chip": "ym2612"
    },
    {
      "channel": 0,
      "note": 61,
      "start": 2.6146,
      "duration": 0.0833,
      "velocity": 105,
      "chip": "ym2612"
    },
    {
      "channel": 2,
      "note": 83,
      "start": 2.6149,
      "duration": 0.002,
      "velocity": 103,
      "chip": "ym2612"
    },
    {
      "channel": 3,
      "note": 75,
      "start": 2.6153,
      "duration": 0.0018,
      "velocity": 103,
      "chip": "ym2612"
    },
    {
      "channel": 0,
      "note": 49,
      "start": 2.6981,
      "duration": 0.084,
      "velocity": 105,
      "chip": "ym2612"
    },
    {
      "channel": 2,
      "note": 82,
      "start": 2.6986,
      "duration": 0.084,
      "velocity": 103,
      "chip": "ym2612"
    },
    {
      "channel": 3,
      "note": 75,
      "start": 2.6989,
      "duration": 0.084,
      "velocity": 103,
      "chip": "ym2612"
    },
    {
      "channel": 0,
      "note": 59,
      "start": 2.7823,
      "duration": 0.0849,
      "velocity": 105,
      "chip": "ym2612"
    },
    {
      "channel": 1,
      "note": 73,
      "start": 2.7826,
      "duration": 0.0026,
      "velocity": 101,
      "chip": "ym2612"
    },
    {
      "channel": 4,
      "note": 80,
      "start": 2.7832,
      "duration": 0.003,
      "velocity": 101,
      "chip": "ym2612"
    },
    {
      "channel": 1,
      "note": 73,
      "start": 2.7855,
      "duration": 0.082,
      "velocity": 101,
      "chip": "ym2612"
    },
    {
      "channel": 2,
      "note": 80,
      "start": 2.7858,
      "duration": 0.5477,
      "velocity": 103,
      "chip": "ym2612"
    },
    {
      "channel": 3,
      "note": 75,
      "start": 2.7861,
      "duration": 0.5476,
      "velocity": 103,
      "chip": "ym2612"
    },
    {
      "channel": 4,
      "note": 80,
      "start": 2.7865,
      "duration": 0.0815,
      "velocity": 101,
      "chip": "ym2612"
    },
    {
      "channel": 0,
      "note": 56,
      "start": 2.8674,
      "duration": 0.009,
      "velocity": 105,
      "chip": "ym2612"
    },
    {
      "channel": 1,
      "note": 73,
      "start": 2.8677,
      "duration": 0.004,
      "velocity": 101,
      "chip": "ym2612"
    },
    {
      "channel": 4,
      "note": 80,
      "start": 2.8682,
      "duration": 0.0041,
      "velocity": 101,
      "chip": "ym2612"
    },
    {
      "channel": 1,
      "note": 73,
      "start": 2.872,
      "duration": 0.0046,
      "velocity": 101,
      "chip": "ym2612"
    },
    {
      "channel": 4,
      "note": 80,
      "start": 2.8725,
      "duration": 0.0045,
      "velocity": 101,
      "chip": "ym2612"
    },
    {
      "channel": 0,
      "note": 61,
      "start": 2.8766,
      "duration": 0.0022,
      "velocity": 105,
      "chip": "ym2612"
    },
    {
      "channel": 0,
      "note": 49,
      "start": 2.879,
      "duration": 0.0025,
      "velocity": 105,
      "chip": "ym2612"
    },
    {
      "channel": 1,
      "note": 73,
      "start": 2.882,
      "duration": 0.0816,
      "velocity": 101,
      "chip": "ym2612"
    },
    {
      "channel": 4,
      "note": 80,
      "start": 2.8824,
      "duration": 0.0817,
      "velocity": 101,
      "chip": "ym2612"
    },
    {
      "channel": 0,
      "note": 49,
      "start": 2.9635,
      "duration": 0.0045,
      "velocity": 105,
      "chip": "ym2612"
    },
    {
      "channel": 1,
      "note": 73,
      "start": 2.9639,
      "duration": 0.0044,
      "velocity": 101,
      "chip": "ym2612"
    },
    {
      "channel": 4,
      "note": 80,
      "start": 2.9644,
      "duration": 0.0045,
      "velocity": 101,
      "chip": "ym2612"
    },
    {
      "channel": 0,
      "note": 59,
      "start": 2.9682,
      "duration": 0.0857,
      "velocity": 105,
      "chip": "ym2612"
    },
    {
      "channel": 1,
      "note": 73,
      "start": 2.9685,
      "duration": 0.0034,
      "velocity": 101,
      "chip": "ym2612"
    },
    {
      "channel": 4,
      "note": 80,
      "start": 2.969,
      "duration": 0.0034,
      "velocity": 101,
      "chip": "ym2612"
    },
    {
      "channel": 1,
      "note": 73,
      "start": 2.9722,
      "duration": 0.082,
      "velocity": 101,
      "chip": "ym2612"
    },
    {
      "channel": 4,
      "note": 80,
      "start": 2.9727,
      "duration": 0.0818,
      "velocity": 101,
      "chip": "ym2612"
    },
    {
      "channel": 0,
      "note": 56,
      "start": 3.0541,
      "duration": 0.007,
      "velocity": 105,
      "chip": "ym2612"
    },
    {
      "channel": 1,
      "note": 73,
      "start": 3.0568,
      "duration": 0.0045,
      "velocity": 101,
      "chip": "ym2612"
    },
    {
      "channel": 4,
      "note": 78,
      "start": 3.0574,
      "duration": 0.0044,
      "velocity": 101,
      "chip": "ym2612"
    },
    {
      "channel": 0,
      "note": 61,
      "start": 3.0613,
      "duration": 0.0842,
      "velocity": 105,
      "chip": "ym2612"
    },
    {
      "channel": 1,
      "note": 73,
      "start": 3.0638,
      "duration": 0.0835,
      "velocity": 99,
      "chip": "ym2612"
    },
    {
      "channel": 4,
      "note": 80,
      "start": 3.0644,
      "duration": 0.0847,
      "velocity": 99,
      "chip": "ym2612"
    },
    {
      "channel": 0,
      "note": 49,
      "start": 3.1457,
      "duration": 0.087,
      "velocity": 105,
      "chip": "ym2612"
    },
    {
      "channel": 0,
      "note": 59,
      "start": 3.2329,
      "duration": 0.0847,
      "velocity": 105,
      "chip": "ym2612"
    },
    {
      "channel": 1,
      "note": 97,
      "start": 3.2332,
      "duration": 0.0028,
      "velocity": 99,
      "chip": "ym2612"
    },
    {
      "channel": 4,
      "note": 97,
      "start": 3.2348,
      "duration": 0.0165,
      "velocity": 99,
      "chip": "ym2612"
    },
    {
      "channel": 1,
      "note": 97,
      "start": 3.2363,
      "duration": 0.0816,
      "velocity": 99,
      "chip": "ym2612"
    },
    {
      "channel": 4,
      "note": 97,
      "start": 3.2515,
      "duration": 0.0681,
      "velocity": 99,
      "chip": "ym2612"
    },
    {
      "channel": 0,
      "note": 56,
      "start": 3.3178,
      "duration": 0.0068,
      "velocity": 105,
      "chip": "ym2612"
    },
    {
      "channel": 1,
      "note": 90,
      "start": 3.3209,
      "duration": 0.004,
      "velocity": 99,
      "chip": "ym2612"
    },
    {
      "channel": 4,
      "note": 90,
      "start": 3.3229,
      "duration": 0.0037,
      "velocity": 99,
      "chip": "ym2612"
    },
    {
      "channel": 0,
      "note": 61,
      "start": 3.3249,
      "duration": 0.0027,
      "velocity": 105,
      "chip": "ym2612"
    },
    {
      "channel": 0,
      "note": 49,
      "start": 3.3278,
      "duration": 0.0055,
      "velocity": 105,
      "chip": "ym2612"
    },
    {
      "channel": 1,
      "note": 92,
      "start": 3.3281,
      "duration": 0.0053,
      "velocity": 99,
      "chip": "ym2612"
    },
    {
      "channel": 4,
      "note": 92,
      "start": 3.3309,
      "duration": 0.0171,
      "velocity": 99,
      "chip": "ym2612"
    },
    {
      "channel": 0,
      "note": 49,
      "start": 3.4148,
      "duration": 0.0031,
      "velocity": 105,
      "chip": "ym2612"
    },
    {
      "channel": 1,
      "note": 85,
      "start": 3.4151,
      "duration": 0.0031,
      "velocity": 99,
      "chip": "ym2612"
    },
    {
      "channel": 4,
      "note": 85,
      "start": 3.4169,
      "duration": 0.0038,
      "velocity": 99,
      "chip": "ym2612"
    },
    {
      "channel": 0,
      "note": 59,
      "start": 3.4181,
      "duration": 0.0078,
      "velocity": 105,
      "chip": "ym2612"
    },
    {
      "channel": 1,
      "note": 87,
      "start": 3.4229,
      "duration": 0.0032,
      "velocity": 99,
      "chip": "ym2612"
    },
    {
      "channel": 4,
      "note": 87,
      "start": 3.4249,
      "duration": 0.0033,
      "velocity": 99,
      "chip": "ym2612"
    },
    {
      "channel": 0,
      "note": 56,
      "start": 3.4261,
      "duration": 0.0054,
      "velocity": 105,
      "chip": "ym2612"
    },
    {
      "channel": 1,
      "note": 80,
      "start": 3.4287,
      "duration": 0.01,
      "velocity": 99,
      "chip": "ym2612"
    },
    {
      "channel": 4,
      "note": 80,
      "start": 3.4301,
      "duration": 0.0115,
      "velocity": 99,
      "chip": "ym2612"
    },
    {
      "channel": 0,
      "note": 61,
      "start": 3.4317,
      "duration": 0.0054,
      "velocity": 105,
      "chip": "ym2612"
    },
    {
      "channel": 0,
      "note": 49,
      "start": 3.4373,
      "duration": 0.0885,
      "velocity": 105,
      "chip": "ym2612"
    },
    {
      "channel": 1,
      "note": 87,
      "start": 3.4389,
      "duration": 0.2712,
      "velocity": 99,
      "chip": "ym2612"
    },
    {
      "channel": 2,
      "note": 70,
      "start": 3.4393,
      "duration": 0.3625,
      "velocity": 103,
      "chip": "ym2612"
    },
    {
      "channel": 3,
      "note": 75,
      "start": 3.4397,
      "duration": 0.3622,
      "velocity": 103,
      "chip": "ym2612"
    },
    {
      "channel": 4,
      "note": 87,
      "start": 3.4446,
      "duration": 0.2697,
      "velocity": 99,
      "chip": "ym2612"
    },
    {
      "channel": 0,
      "note": 59,
      "start": 3.5259,
      "duration": 0.0854,
      "velocity": 105,
      "chip": "ym2612"
    },
    {
      "channel": 0,
      "note": 56,
      "start": 3.6115,
      "duration": 0.0086,
      "velocity": 105,
      "chip": "ym2612"
    },
    {
      "channel": 0,
      "note": 61,
      "start": 3.6204,
      "duration": 0.0035,
      "velocity": 105,
      "chip": "ym2612"
    },
    {
      "channel": 0,
      "note": 49,
      "start": 3.6239,
      "duration": 0.0041,
      "velocity": 105,
      "chip": "ym2612"
    },
    {
      "channel": 0,
      "note": 49,
      "start": 3.7101,
      "duration": 0.0034,
      "velocity": 105,
      "chip": "ym2612"
    },
    {
      "channel": 0,
      "note": 59,
      "start": 3.7137,
      "duration": 0.0843,
      "velocity": 105,
      "chip": "ym2612"
    },
    {
      "channel": 1,
      "note": 88,
      "start": 3.714,
      "duration": 0.0026,
      "velocity": 99,
      "chip": "ym2612"
    },
    {
      "channel": 4,
      "note": 88,
      "start": 3.7171,
      "duration": 0.0817,
      "velocity": 99,
      "chip": "ym2612"
    },
    {
      "channel": 0,
      "note": 56,
      "start": 3.7982,
      "duration": 0.0063,
      "velocity": 105,
      "chip": "ym2612"
    },
    {
      "channel": 1,
      "note": 90,
      "start": 3.7985,
      "duration": 0.0031,
      "velocity": 99,
      "chip": "ym2612"
    },
    {
      "channel": 4,
      "note": 90,
      "start": 3.8024,
      "duration": 0.0034,
      "velocity": 99,
      "chip": "ym2612"
    },
    {
      "channel": 0,
      "note": 61,
      "start": 3.8047,
      "duration": 0.0844,
      "velocity": 105,
      "chip": "ym2612"
    },
    {
      "channel": 1,
      "note": 88,
      "start": 3.805,
      "duration": 0.0031,
      "velocity": 99,
      "chip": "ym2612"
    },
    {
      "channel": 2,
      "note": 70,
      "start": 3.8054,
      "duration": 0.0028,
      "velocity": 103,
      "chip": "ym2612"
    },
    {
      "channel": 3,
      "note": 75,
      "start": 3.8057,
      "duration": 0.0026,
      "velocity": 103,
      "chip": "ym2612"
    },
    {
      "channel": 4,
      "note": 88,
      "start": 3.8086,
      "duration": 0.0817,
      "velocity": 99,
      "chip": "ym2612"
    },
    {
      "channel": 0,
      "note": 49,
      "start": 3.8892,
      "duration": 0.0855,
      "velocity": 105,
      "chip": "ym2612"
    },
    {
      "channel": 1,
      "note": 87,
      "start": 3.8895,
      "duration": 0.0854,
      "velocity": 99,
      "chip": "ym2612"
    },
    {
      "channel": 2,
      "note": 66,
      "start": 3.8899,
      "duration": 0.1828,
      "velocity": 103,
      "chip": "ym2612"
    },
    {
      "channel": 3,
      "note": 70,
      "start": 3.8902,
      "duration": 0.1827,
      "velocity": 103,
      "chip": "ym2612"
    },
    {
      "channel": 4,
      "note": 87,
      "start": 3.8933,
      "duration": 0.0854,
      "velocity": 99,
      "chip": "ym2612"
    },
    {
      "channel": 0,
      "note": 59,
      "start": 3.9749,
      "duration": 0.0852,
      "velocity": 105,
      "chip": "ym2612"
    },
    {
      "channel": 1,
      "note": 88,
      "start": 3.9752,
      "duration": 0.0029,
      "velocity": 99,
      "chip": "ym2612"
    },
    {
      "channel": 1,
      "note": 82,
      "start": 3.9784,
      "duration": 0.2692,
      "velocity": 99,
      "chip": "ym2612"
    },
    {
      "channel": 4,
      "note": 88,
      "start": 3.979,
      "duration": 0.0817,
      "velocity": 99,
      "chip": "ym2612"
    },
    {
      "channel": 0,
      "note": 56,
      "start": 4.0603,
      "duration": 0.0083,
      "velocity": 105,
      "chip": "ym2612"
    },
    {
      "channel": 4,
      "note": 82,
      "start": 4.0609,
      "duration": 0.1913,
      "velocity": 99,
      "chip": "ym2612"
    },
    {
      "channel": 0,
      "note": 61,
      "start": 4.0688,
      "duration": 0.0034,
      "velocity": 105,
      "chip": "ym2612"
    },
    {
      "channel": 0,
      "note": 49,
      "start": 4.0724,
      "duration": 0.0032,
      "velocity": 105,
      "chip": "ym2612"
    },
    {
      "channel": 2,
      "note": 66,
      "start": 4.0762,
      "duration": 0.0898,
      "velocity": 103,
      "chip": "ym2612"
    },
    {
      "channel": 3,
      "note": 73,
      "start": 4.0765,
      "duration": 0.0897,
      "velocity": 103,
      "chip": "ym2612"
    },
    {
      "channel": 0,
      "note": 49,
      "start": 4.1577,
      "duration": 0.0043,
      "velocity": 105,
      "chip": "ym2612"
    },
    {
      "channel": 0,
      "note": 59,
      "start": 4.1622,
      "duration": 0.0852,
      "velocity": 105,
      "chip": "ym2612"
    },
    {
      "channel": 0,
      "note": 56,
      "start": 4.2476,
      "duration": 0.0083,
      "velocity": 105,
      "chip": "ym2612"
    },
    {
      "channel": 1,
      "note": 83,
      "start": 4.2479,
      "duration": 0.004,
      "velocity": 99,
      "chip": "ym2612"
    },
    {
      "channel": 2,
      "note": 66,
      "start": 4.2482,
      "duration": 0.0108,
      "velocity": 103,
      "chip": "ym2612"
    },
    {
      "channel": 3,
      "note": 70,
      "start": 4.2485,
      "duration": 0.0107,
      "velocity": 103,
      "chip": "ym2612"
    },
    {
      "channel": 4,
      "note": 83,
      "start": 4.2524,
      "duration": 0.0042,
      "velocity": 99,
      "chip": "ym2612"
    },
    {
      "channel": 0,
      "note": 61,
      "start": 4.2561,
      "duration": 0.084,
      "velocity": 105,
      "chip": "ym2612"
    },
    {
      "channel": 1,
      "note": 85,
      "start": 4.2564,
      "duration": 0.0024,
      "velocity": 99,
      "chip": "ym2612"
    },
    {
      "channel": 4,
      "note": 85,
      "start": 4.2596,
      "duration": 0.0817,
      "velocity": 99,
      "chip": "ym2612"
    },
    {
      "channel": 0,
      "note": 49,
      "start": 4.3402,
      "duration": 0.0854,
      "velocity": 105,
      "chip": "ym2612"
    },
    {
      "channel": 1,
      "note": 83,
      "start": 4.3406,
      "duration": 0.0853,
      "velocity": 99,
      "chip": "ym2612"
    },
    {
      "channel": 2,
      "note": 64,
      "start": 4.3409,
      "duration": 0.3664,
      "velocity": 103,
      "chip": "ym2612"
    },
    {
      "channel": 3,
      "note": 68,
      "start": 4.3412,
      "duration": 0.3665,
      "velocity": 103,
      "chip": "ym2612"
    },
    {
      "channel": 4,
      "note": 83,
      "start": 4.3443,
      "duration": 0.0849,
      "velocity": 99,
      "chip": "ym2612"
    },
    {
      "channel": 0,
      "note": 59,
      "start": 4.4258,
      "duration": 0.0844,
      "velocity": 105,
      "chip": "ym2612"
    },
    {
      "channel": 1,
      "note": 80,
      "start": 4.4288,
      "duration": 0.2781,
      "velocity": 99,
      "chip": "ym2612"
    },
    {
      "channel": 0,
      "note": 56,
      "start": 4.5104,
      "duration": 0.0081,
      "velocity": 105,
      "chip": "ym2612"
    },
    {
      "channel": 4,
      "note": 80,
      "start": 4.511,
      "duration": 0.2002,
      "velocity": 99,
      "chip": "ym2612"
    },
    {
      "channel": 0,
      "note": 61,
      "start": 4.5187,
      "duration": 0.0034,
      "velocity": 105,
      "chip": "ym2612"
    },
    {
      "channel": 0,
      "note": 49,
      "start": 4.5224,
      "duration": 0.0041,
      "velocity": 105,
      "chip": "ym2612"
    },
    {
      "channel": 0,
      "note": 49,
      "start": 4.6083,
      "duration": 0.004,
      "velocity": 105,
      "chip": "ym2612"
    },
    {
      "channel": 0,
      "note": 59,
      "start": 4.6126,
      "duration": 0.0854,
      "velocity": 105,
      "chip": "ym2612"
    },
    {
      "channel": 0,
      "note": 56,
      "start": 4.6982,
      "duration": 0.0084,
      "velocity": 105,
      "chip": "ym2612"
    },
    {
      "channel": 0,
      "note": 61,
      "start": 4.7068,
      "duration": 0.085,
      "velocity": 105,
      "chip": "ym2612"
    },
    {
      "channel": 1,
      "note": 83,
      "start": 4.7072,
      "duration": 0.0038,
      "velocity": 99,
      "chip": "ym2612"
    },
    {
      "channel": 2,
      "note": 64,
      "start": 4.7075,
      "duration": 0.0035,
      "velocity": 103,
      "chip": "ym2612"
    },
    {
      "channel": 3,
      "note": 68,
      "start": 4.7078,
      "duration": 0.0032,
      "velocity": 103,
      "chip": "ym2612"
    },
    {
      "channel": 4,
      "note": 83,
      "start": 4.7114,
      "duration": 0.0817,
      "velocity": 99,
      "chip": "ym2612"
    },
    {
      "channel": 0,
      "note": 49,
      "start": 4.7921,
      "duration": 0.0853,
      "velocity": 105,
      "chip": "ym2612"
    },
    {
      "channel": 1,
      "note": 92,
      "start": 4.7924,
      "duration": 0.0853,
      "velocity": 99,
      "chip": "ym2612"
    },
    {
      "channel": 2,
      "note": 63,
      "start": 4.7927,
      "duration": 0.181,
      "velocity": 103,
      "chip": "ym2612"
    },
    {
      "channel": 3,
      "note": 66,
      "start": 4.793,
      "duration": 0.1845,
      "velocity": 103,
      "chip": "ym2612"
    },
    {
      "channel": 4,
      "note": 92,
      "start": 4.7962,
      "duration": 0.0847,
      "velocity": 99,
      "chip": "ym2612"
    },
    {
      "channel": 0,
      "note": 59,
      "start": 4.8776,
      "duration": 0.0844,
      "velocity": 105,
      "chip": "ym2612"
    },
    {
      "channel": 1,
      "note": 90,
      "start": 4.8807,
      "duration": 0.0857,
      "velocity": 99,
      "chip": "ym2612"
    },
    {
      "channel": 0,
      "note": 56,
      "start": 4.9622,
      "duration": 0.0079,
      "velocity": 105,
      "chip": "ym2612"
    },
    {
      "channel": 4,
      "note": 90,
      "start": 4.9629,
      "duration": 0.0081,
      "velocity": 99,
      "chip": "ym2612"
    },
    {
      "channel": 0,
      "note": 61,
      "start": 4.9703,
      "duration": 0.003,
      "velocity": 105,
      "chip": "ym2612"
    },
    {
      "channel": 1,
      "note": 92,
      "start": 4.9706,
      "duration": 0.1902,
      "velocity": 99,
      "chip": "ym2612"
    },
    {
      "channel": 0,
      "note": 49,
      "start": 4.9734,
      "duration": 0.0034,
      "velocity": 105,
      "chip": "ym2612"
    },
    {
      "channel": 4,
      "note": 92,
      "start": 4.9741,
      "duration": 0.2691,
      "velocity": 99,
      "chip": "ym2612"
    },
    {
      "channel": 2,
      "note": 66,
      "start": 4.9773,
      "duration": 0.1835,
      "velocity": 103,
      "chip": "ym2612"
    },
    {
      "channel": 3,
      "note": 71,
      "start": 4.9777,
      "duration": 0.1798,
      "velocity": 103,
      "chip": "ym2612"
    },
    {
      "channel": 0,
      "note": 49,
      "start": 5.0588,
      "duration": 0.0038,
      "velocity": 105,
      "chip": "ym2612"
    },
    {
      "channel": 0,
      "note": 59,
      "start": 5.0628,
      "duration": 0.0851,
      "velocity": 105,
      "chip": "ym2612"
    },
    {
      "channel": 0,
      "note": 56,
      "start": 5.1481,
      "duration": 0.0087,
      "velocity": 105,
      "chip": "ym2612"
    },
    {
      "channel": 0,
      "note": 61,
      "start": 5.1571,
      "duration": 0.0848,
      "velocity": 105,
      "chip": "ym2612"
    },
    {
      "channel": 0,
      "note": 49,
      "start": 5.2421,
      "duration": 0.0852,
      "velocity": 105,
      "chip": "ym2612"
    },
    {
      "channel": 1,
      "note": 87,
      "start": 5.2424,
      "duration": 0.2693,
      "velocity": 99,
      "chip": "ym2612"
    },
    {
      "channel": 2,
      "note": 70,
      "start": 5.2428,
      "duration": 0.3605,
      "velocity": 103,
      "chip": "ym2612"
    },
    {
      "channel": 3,
      "note": 75,
      "start": 5.2431,
      "duration": 0.3603,
      "velocity": 103,
      "chip": "ym2612"
    },
    {
      "channel": 4,
      "note": 87,
      "start": 5.246,
      "duration": 0.2698,
      "velocity": 99,
      "chip": "ym2612"
    },
    {
      "channel": 0,
      "note": 59,
      "start": 5.3275,
      "duration": 0.0854,
      "velocity": 105,
      "chip": "ym2612"
    },
    {
      "channel": 0,
      "note": 56,
      "start": 5.4131,
      "duration": 0.0086,
      "velocity": 105,
      "chip": "ym2612"
    },
    {
      "channel": 0,
      "note": 61,
      "start": 5.4218,
      "duration": 0.0035,
      "velocity": 105,
      "chip": "ym2612"
    },
    {
      "channel": 0,
      "note": 49,
      "start": 5.4255,
      "duration": 0.0041,
      "velocity": 105,
      "chip": "ym2612"
    },
    {
      "channel": 0,
      "note": 49,
      "start": 5.5117,
      "duration": 0.0034,
      "velocity": 105,
      "chip": "ym2612"
    },
    {
      "channel": 0,
      "note": 59,
      "start": 5.5152,
      "duration": 0.0842,
      "velocity": 105,
      "chip": "ym2612"
    },
    {
      "channel": 1,
      "note": 88,
      "start": 5.5156,
      "duration": 0.0026,
      "velocity": 99,
      "chip": "ym2612"
    },
    {
      "channel": 4,
      "note": 88,
      "start": 5.5188,
      "duration": 0.0815,
      "velocity": 99,
      "chip": "ym2612"
    },
    {
      "channel": 0,
      "note": 56,
      "start": 5.5997,
      "duration": 0.0061,
      "velocity": 105,
      "chip": "ym2612"
    },
    {
      "channel": 1,
      "note": 90,
      "start": 5.6,
      "duration": 0.0031,
      "velocity": 99,
      "chip": "ym2612"
    },
    {
      "channel": 4,
      "note": 90,
      "start": 5.6038,
      "duration": 0.0033,
      "velocity": 99,
      "chip": "ym2612"
    },
    {
      "channel": 0,
      "note": 61,
      "start": 5.606,
      "duration": 0.0843,
      "velocity": 105,
      "chip": "ym2612"
    },
    {
      "channel": 1,
      "note": 88,
      "start": 5.6063,
      "duration": 0.003,
      "velocity": 99,
      "chip": "ym2612"
    },
    {
      "channel": 2,
      "note": 70,
      "start": 5.6067,
      "duration": 0.0028,
      "velocity": 103,
      "chip": "ym2612"
    },
    {
      "channel": 3,
      "note": 75,
      "start": 5.607,
      "duration": 0.0024,
      "velocity": 103,
      "chip": "ym2612"
    },
    {
      "channel": 4,
      "note": 88,
      "start": 5.6098,
      "duration": 0.0817,
      "velocity": 99,
      "chip": "ym2612"
    },
    {
      "channel": 0,
      "note": 49,
      "start": 5.6905,
      "duration": 0.0853,
      "velocity": 105,
      "chip": "ym2612"
    },
    {
      "channel": 1,
      "note": 87,
      "start": 5.6908,
      "duration": 0.0852,
      "velocity": 99,
      "chip": "ym2612"
    },
    {
      "channel": 2,
      "note": 66,
      "start": 5.6911,
      "duration": 0.1833,
      "velocity": 103,
      "chip": "ym2612"
    },
    {
      "channel": 3,
      "note": 70,
      "start": 5.6914,
      "duration": 0.1832,
      "velocity": 103,
      "chip": "ym2612"
    },
    {
      "channel": 4,
      "note": 87,
      "start": 5.6946,
      "duration": 0.0853,
      "velocity": 99,
      "chip": "ym2612"
    },
    {
      "channel": 0,
      "note": 59,
      "start": 5.776,
      "duration": 0.0852,
      "velocity": 105,
      "chip": "ym2612"
    },
    {
      "channel": 1,
      "note": 88,
      "start": 5.7763,
      "duration": 0.003,
      "velocity": 99,
      "chip": "ym2612"
    },
    {
      "channel": 1,
      "note": 82,
      "start": 5.7796,
      "duration": 0.2786,
      "velocity": 99,
      "chip": "ym2612"
    },
    {
      "channel": 4,
      "note": 88,
      "start": 5.7801,
      "duration": 0.0817,
      "velocity": 99,
      "chip": "ym2612"
    },
    {
      "channel": 0,
      "note": 56,
      "start": 5.8614,
      "duration": 0.0088,
      "velocity": 105,
      "chip": "ym2612"
    },
    {
      "channel": 4,
      "note": 82,
      "start": 5.862,
      "duration": 0.2002,
      "velocity": 99,
      "chip": "ym2612"
    },
    {
      "channel": 0,
      "note": 61,
      "start": 5.8703,
      "duration": 0.0035,
      "velocity": 105,
      "chip": "ym2612"
    },
    {
      "channel": 0,
      "note": 49,
      "start": 5.8741,
      "duration": 0.0031,
      "velocity": 105,
      "chip": "ym2612"
    },
    {
      "channel": 2,
      "note": 66,
      "start": 5.8777,
      "duration": 0.0898,
      "velocity": 103,
      "chip": "ym2612"
    },
    {
      "channel": 3,
      "note": 73,
      "start": 5.878,
      "duration": 0.0897,
      "velocity": 103,
      "chip": "ym2612"
    },
    {
      "channel": 0,
      "note": 49,
      "start": 5.9593,
      "duration": 0.0042,
      "velocity": 105,
      "chip": "ym2612"
    },
    {
      "channel": 0,
      "note": 59,
      "start": 5.9637,
      "duration": 0.0851,
      "velocity": 105,
      "chip": "ym2612"
    },
    {
      "channel": 0,
      "note": 56,
      "start": 6.0491,
      "duration": 0.0088,
      "velocity": 105,
      "chip": "ym2612"
    },
    {
      "channel": 2,
      "note": 66,
      "start": 6.0495,
      "duration": 0.0124,
      "velocity": 103,
      "chip": "ym2612"
    },
    {
      "channel": 3,
      "note": 70,
      "start": 6.0498,
      "duration": 0.0122,
      "velocity": 103,
      "chip": "ym2612"
    },
    {
      "channel": 0,
      "note": 61,
      "start": 6.0581,
      "duration": 0.0849,
      "velocity": 105,
      "chip": "ym2612"
    },
    {
      "channel": 1,
      "note": 95,
      "start": 6.0584,
      "duration": 0.0032,
      "velocity": 99,
      "chip": "ym2612"
    },
    {
      "channel": 4,
      "note": 95,
      "start": 6.0625,
      "duration": 0.0817,
      "velocity": 99,
      "chip": "ym2612"
    },
    {
      "channel": 0,
      "note": 49,
      "start": 6.1433,
      "duration": 0.0852,
      "velocity": 105,
      "chip": "ym2612"
    },
    {
      "channel": 1,
      "note": 94,
      "start": 6.1436,
      "duration": 0.0851,
      "velocity": 99,
      "chip": "ym2612"
    },
    {
      "channel": 2,
      "note": 64,
      "start": 6.1439,
      "duration": 0.3676,
      "velocity": 103,
      "chip": "ym2612"
    },
    {
      "channel": 3,
      "note": 68,
      "start": 6.1442,
      "duration": 0.3676,
      "velocity": 103,
      "chip": "ym2612"
    },
    {
      "channel": 4,
      "note": 94,
      "start": 6.1472,
      "duration": 0.0852,
      "velocity": 99,
      "chip": "ym2612"
    },
    {
      "channel": 0,
      "note": 59,
      "start": 6.2287,
      "duration": 0.0851,
      "velocity": 105,
      "chip": "ym2612"
    },
    {
      "channel": 1,
      "note": 95,
      "start": 6.229,
      "duration": 0.0029,
      "velocity": 99,
      "chip": "ym2612"
    },
    {
      "channel": 1,
      "note": 92,
      "start": 6.2321,
      "duration": 0.553,
      "velocity": 99,
      "chip": "ym2612"
    },
    {
      "channel": 4,
      "note": 95,
      "start": 6.2326,
      "duration": 0.0817,
      "velocity": 99,
      "chip": "ym2612"
    },
    {
      "channel": 0,
      "note": 56,
      "start": 6.3139,
      "duration": 0.0088,
      "velocity": 105,
      "chip": "ym2612"
    },
    {
      "channel": 4,
      "note": 92,
      "start": 6.3146,
      "duration": 0.5529,
      "velocity": 99,
      "chip": "ym2612"
    },
    {
      "channel": 0,
      "note": 61,
      "start": 6.3229,
      "duration": 0.0035,
      "velocity": 105,
      "chip": "ym2612"
    },
    {
      "channel": 0,
      "note": 49,
      "start": 6.3266,
      "duration": 0.0043,
      "velocity": 105,
      "chip": "ym2612"
    },
    {
      "channel": 0,
      "note": 49,
      "start": 6.4129,
      "duration": 0.004,
      "velocity": 105,
      "chip": "ym2612"
    },
    {
      "channel": 0,
      "note": 59,
      "start": 6.4171,
      "duration": 0.0852,
      "velocity": 105,
      "chip": "ym2612"
    },
    {
      "channel": 0,
      "note": 56,
      "start": 6.5025,
      "duration": 0.0085,
      "velocity": 105,
      "chip": "ym2612"
    },
    {
      "channel": 0,
      "note": 61,
      "start": 6.5112,
      "duration": 0.0855,
      "velocity": 105,
      "chip": "ym2612"
    },
    {
      "channel": 2,
      "note": 64,
      "start": 6.5117,
      "duration": 0.0038,
      "velocity": 103,
      "chip": "ym2612"
    },
    {
      "channel": 3,
      "note": 68,
      "start": 6.512,
      "duration": 0.0035,
      "velocity": 103,
      "chip": "ym2612"
    },
    {
      "channel": 0,
      "note": 49,
      "start": 6.597,
      "duration": 0.0862,
      "velocity": 105,
      "chip": "ym2612"
    },
    {
      "channel": 2,
      "note": 63,
      "start": 6.5974,
      "duration": 0.1842,
      "velocity": 103,
      "chip": "ym2612"
    },
    {
      "channel": 3,
      "note": 66,
      "start": 6.5976,
      "duration": 0.188,
      "velocity": 103,
      "chip": "ym2612"
    },
    {
      "channel": 0,
      "note": 59,
      "start": 6.6834,
      "duration": 0.0855,
      "velocity": 105,
      "chip": "ym2612"
    },
    {
      "channel": 0,
      "note": 56,
      "start": 6.769,
      "duration": 0.0085,
      "velocity": 105,
      "chip": "ym2612"
    },
    {
      "channel": 0,
      "note": 61,
      "start": 6.7777,
      "duration": 0.0034,
      "velocity": 105,
      "chip": "ym2612"
    },
    {
      "channel": 0,
      "note": 49,
      "start": 6.7813,
      "duration": 0.0037,
      "velocity": 105,
      "chip": "ym2612"
    },
    {
      "channel": 2,
      "note": 66,
      "start": 6.7856,
      "duration": 0.1816,
      "velocity": 103,
      "chip": "ym2612"
    },
    {
      "channel": 3,
      "note": 71,
      "start": 6.7859,
      "duration": 0.1782,
      "velocity": 103,
      "chip": "ym2612"
    },
    {
      "channel": 0,
      "note": 49,
      "start": 6.8669,
      "duration": 0.0034,
      "velocity": 105,
      "chip": "ym2612"
    },
    {
      "channel": 1,
      "note": 92,
      "start": 6.8672,
      "duration": 0.0034,
      "velocity": 99,
      "chip": "ym2612"
    },
    {
      "channel": 0,
      "note": 59,
      "start": 6.8705,
      "duration": 0.0857,
      "velocity": 105,
      "chip": "ym2612"
    },
    {
      "channel": 1,
      "note": 92,
      "start": 6.8708,
      "duration": 0.0042,
      "velocity": 99,
      "chip": "ym2612"
    },
    {
      "channel": 4,
      "note": 92,
      "start": 6.8714,
      "duration": 0.0038,
      "velocity": 99,
      "chip": "ym2612"
    },
    {
      "channel": 4,
      "note": 92,
      "start": 6.8754,
      "duration": 0.0816,
      "velocity": 99,
      "chip": "ym2612"
    },
    {
      "channel": 0,
      "note": 56,
      "start": 6.9565,
      "duration": 0.0067,
      "velocity": 105,
      "chip": "ym2612"
    },
    {
      "channel": 1,
      "note": 94,
      "start": 6.9568,
      "duration": 0.0031,
      "velocity": 99,
      "chip": "ym2612"
    },
    {
      "channel": 4,
      "note": 94,
      "start": 6.9604,
      "duration": 0.0038,
      "velocity": 99,
      "chip": "ym2612"
    },
    {
      "channel": 0,
      "note": 61,
      "start": 6.9634,
      "duration": 0.0843,
      "velocity": 105,
      "chip": "ym2612"
    },
    {
      "channel": 1,
      "note": 95,
      "start": 6.9637,
      "duration": 0.0033,
      "velocity": 99,
      "chip": "ym2612"
    },
    {
      "channel": 4,
      "note": 95,
      "start": 6.9674,
      "duration": 0.0817,
      "velocity": 99,
      "chip": "ym2612"
    },
    {
      "channel": 0,
      "note": 58,
      "start": 7.0478,
      "duration": 0.0036,
      "velocity": 105,
      "chip": "ym2612"
    },
    {
      "channel": 1,
      "note": 87,
      "start": 7.0482,
      "duration": 0.3505,
      "velocity": 99,
      "chip": "ym2612"
    },
    {
      "channel": 2,
      "note": 82,
      "start": 7.0486,
      "duration": 0.3503,
      "velocity": 103,
      "chip": "ym2612"
    },
    {
      "channel": 3,
      "note": 87,
      "start": 7.0489,
      "duration": 0.3501,
      "velocity": 103,
      "chip": "ym2612"
    },
    {
      "channel": 0,
      "note": 58,
      "start": 7.0516,
      "duration": 0.0815,
      "velocity": 105,
      "chip": "ym2612"
    },
    {
      "channel": 4,
      "note": 87,
      "start": 7.0523,
      "duration": 0.3499,
      "velocity": 99,
      "chip": "ym2612"
    },
    {
      "channel": 0,
      "note": 63,
      "start": 7.1334,
      "duration": 0.0034,
      "velocity": 105,
      "chip": "ym2612"
    },
    {
      "channel": 0,
      "note": 58,
      "start": 7.137,
      "duration": 0.0815,
      "velocity": 105,
      "chip": "ym2612"
    },
    {
      "channel": 0,
      "note": 66,
      "start": 7.2187,
      "duration": 0.004,
      "velocity": 105,
      "chip": "ym2612"
    },
    {
      "channel": 0,
      "note": 58,
      "start": 7.2229,
      "duration": 0.004,
      "velocity": 105,
      "chip": "ym2612"
    },
    {
      "channel": 0,
      "note": 58,
      "start": 7.2272,
      "duration": 0.0816,
      "velocity": 105,
      "chip": "ym2612"
    },
    {
      "channel": 0,
      "note": 68,
      "start": 7.3089,
      "duration": 0.0854,
      "velocity": 105,
      "chip": "ym2612"
    },
    {
      "channel": 0,
      "note": 58,
      "start": 7.3946,
      "duration": 0.0039,
      "velocity": 105,
      "chip": "ym2612"
    },
    {
      "channel": 0,
      "note": 67,
      "start": 7.3987,
      "duration": 0.0023,
      "velocity": 105,
      "chip": "ym2612"
    },
    {
      "channel": 0,
      "note": 58,
      "start": 7.4012,
      "duration": 0.0813,
      "velocity": 105,
      "chip": "ym2612"
    },
    {
      "channel": 1,
      "note": 90,
      "start": 7.4015,
      "duration": 0.0893,
      "velocity": 99,
      "chip": "ym2612"
    },
    {
      "channel": 2,
      "note": 82,
      "start": 7.4018,
      "duration": 0.0855,
      "velocity": 103,
      "chip": "ym2612"
    },
    {
      "channel": 3,
      "note": 90,
      "start": 7.4021,
      "duration": 0.0854,
      "velocity": 103,
      "chip": "ym2612"
    },
    {
      "channel": 0,
      "note": 66,
      "start": 7.4827,
      "duration": 0.0042,
      "velocity": 105,
      "chip": "ym2612"
    },
    {
      "channel": 4,
      "note": 90,
      "start": 7.4833,
      "duration": 0.0117,
      "velocity": 99,
      "chip": "ym2612"
    },
    {
      "channel": 0,
      "note": 58,
      "start": 7.4871,
      "duration": 0.0034,
      "velocity": 105,
      "chip": "ym2612"
    },
    {
      "channel": 0,
      "note": 63,
      "start": 7.4907,
      "duration": 0.0851,
      "velocity": 105,
      "chip": "ym2612"
    },
    {
      "channel": 1,
      "note": 87,
      "start": 7.491,
      "duration": 0.085,
      "velocity": 99,
      "chip": "ym2612"
    },
    {
      "channel": 2,
      "note": 82,
      "start": 7.4914,
      "duration": 0.0035,
      "velocity": 103,
      "chip": "ym2612"
    },
    {
      "channel": 3,
      "note": 87,
      "start": 7.4917,
      "duration": 0.0032,
      "velocity": 103,
      "chip": "ym2612"
    },
    {
      "channel": 4,
      "note": 87,
      "start": 7.4952,
      "duration": 0.0859,
      "velocity": 99,
      "chip": "ym2612"
    },
    {
      "channel": 0,
      "note": 57,
      "start": 7.576,
      "duration": 0.0045,
      "velocity": 105,
      "chip": "ym2612"
    },
    {
      "channel": 1,
      "note": 86,
      "start": 7.5763,
      "duration": 0.1714,
      "velocity": 99,
      "chip": "ym2612"
    },
    {
      "channel": 2,
      "note": 81,
      "start": 7.5766,
      "duration": 0.2622,
      "velocity": 103,
      "chip": "ym2612"
    },
    {
      "channel": 3,
      "note": 86,
      "start": 7.5769,
      "duration": 0.2621,
      "velocity": 103,
      "chip": "ym2612"
    },
    {
      "channel": 0,
      "note": 57,
      "start": 7.5807,
      "duration": 0.0815,
      "velocity": 105,
      "chip": "ym2612"
    },
    {
      "channel": 4,
      "note": 86,
      "start": 7.5813,
      "duration": 0.1713,
      "velocity": 99,
      "chip": "ym2612"
    },
    {
      "channel": 0,
      "note": 61,
      "start": 7.6624,
      "duration": 0.0034,
      "velocity": 105,
      "chip": "ym2612"
    },
    {
      "channel": 0,
      "note": 57,
      "start": 7.666,
      "duration": 0.0815,
      "velocity": 105,
      "chip": "ym2612"
    },
    {
      "channel": 0,
      "note": 64,
      "start": 7.7477,
      "duration": 0.0043,
      "velocity": 105,
      "chip": "ym2612"
    },
    {
      "channel": 1,
      "note": 90,
      "start": 7.748,
      "duration": 0.0938,
      "velocity": 99,
      "chip": "ym2612"
    },
    {
      "channel": 0,
      "note": 57,
      "start": 7.7522,
      "duration": 0.0044,
      "velocity": 105,
      "chip": "ym2612"
    },
    {
      "channel": 4,
      "note": 90,
      "start": 7.7528,
      "duration": 0.171,
      "velocity": 99,
      "chip": "ym2612"
    },
    {
      "channel": 0,
      "note": 57,
      "start": 7.7567,
      "duration": 0.0817,
      "velocity": 105,
      "chip": "ym2612"
    },
    {
      "channel": 0,
      "note": 67,
      "start": 7.8386,
      "duration": 0.0846,
      "velocity": 105,
      "chip": "ym2612"
    },
    {
      "channel": 1,
      "note": 93,
      "start": 7.842,
      "duration": 0.089,
      "velocity": 99,
      "chip": "ym2612"
    },
    {
      "channel": 2,
      "note": 81,
      "start": 7.8423,
      "duration": 0.089,
      "velocity": 103,
      "chip": "ym2612"
    },
    {
      "channel": 3,
      "note": 85,
      "start": 7.8427,
      "duration": 0.0889,
      "velocity": 103,
      "chip": "ym2612"
    },
    {
      "channel": 0,
      "note": 57,
      "start": 7.9234,
      "duration": 0.0041,
      "velocity": 105,
      "chip": "ym2612"
    },
    {
      "channel": 4,
      "note": 93,
      "start": 7.9241,
      "duration": 0.0895,
      "velocity": 99,
      "chip": "ym2612"
    },
    {
      "channel": 0,
      "note": 66,
      "start": 7.9278,
      "duration": 0.0848,
      "velocity": 105,
      "chip": "ym2612"
    },
    {
      "channel": 1,
      "note": 92,
      "start": 7.9312,
      "duration": 0.09,
      "velocity": 99,
      "chip": "ym2612"
    },
    {
      "channel": 0,
      "note": 57,
      "start": 8.0128,
      "duration": 0.0042,
      "velocity": 105,
      "chip": "ym2612"
    },
    {
      "channel": 2,
      "note": 81,
      "start": 8.0132,
      "duration": 0.0122,
      "velocity": 103,
      "chip": "ym2612"
    },
    {
      "channel": 3,
      "note": 86,
      "start": 8.0135,
      "duration": 0.012,
      "velocity": 103,
      "chip": "ym2612"
    },
    {
      "channel": 4,
      "note": 92,
      "start": 8.0139,
      "duration": 0.0119,
      "velocity": 99,
      "chip": "ym2612"
    },
    {
      "channel": 0,
      "note": 64,
      "start": 8.0172,
      "duration": 0.0077,
      "velocity": 105,
      "chip": "ym2612"
    },
    {
      "channel": 1,
      "note": 90,
      "start": 8.0215,
      "duration": 0.0037,
      "velocity": 99,
      "chip": "ym2612"
    },
    {
      "channel": 0,
      "note": 57,
      "start": 8.0251,
      "duration": 0.081,
      "velocity": 105,
      "chip": "ym2612"
    },
    {
      "channel": 4,
      "note": 90,
      "start": 8.0259,
      "duration": 0.0814,
      "velocity": 99,
      "chip": "ym2612"
    },
    {
      "channel": 0,
      "note": 49,
      "start": 8.1063,
      "duration": 0.0853,
      "velocity": 105,
      "chip": "ym2612"
    },
    {
      "channel": 1,
      "note": 92,
      "start": 8.1066,
      "duration": 0.5307,
      "velocity": 99,
      "chip": "ym2612"
    },
    {
      "channel": 2,
      "note": 80,
      "start": 8.1069,
      "duration": 0.4451,
      "velocity": 103,
      "chip": "ym2612"
    },
    {
      "channel": 3,
      "note": 85,
      "start": 8.1072,
      "duration": 0.4451,
      "velocity": 103,
      "chip": "ym2612"
    },
    {
      "channel": 4,
      "note": 92,
      "start": 8.1104,
      "duration": 0.5316,
      "velocity": 99,
      "chip": "ym2612"
    },
    {
      "channel": 0,
      "note": 61,
      "start": 8.1918,
      "duration": 0.0036,
      "velocity": 105,
      "chip": "ym2612"
    },
    {
      "channel": 0,
      "note": 49,
      "start": 8.1956,
      "duration": 0.0817,
      "velocity": 105,
      "chip": "ym2612"
    },
    {
      "channel": 0,
      "note": 61,
      "start": 8.2774,
      "duration": 0.0044,
      "velocity": 105,
      "chip": "ym2612"
    },
    {
      "channel": 0,
      "note": 49,
      "start": 8.282,
      "duration": 0.0041,
      "velocity": 105,
      "chip": "ym2612"
    },
    {
      "channel": 0,
      "note": 49,
      "start": 8.2863,
      "duration": 0.0816,
      "velocity": 105,
      "chip": "ym2612"
    },
    {
      "channel": 0,
      "note": 61,
      "start": 8.3681,
      "duration": 0.0034,
      "velocity": 105,
      "chip": "ym2612"
    },
    {
      "channel": 0,
      "note": 49,
      "start": 8.3717,
      "duration": 0.0816,
      "velocity": 105,
      "chip": "ym2612"
    },
    {
      "channel": 0,
      "note": 49,
      "start": 8.4535,
      "duration": 0.0039,
      "velocity": 105,
      "chip": "ym2612"
    },
    {
      "channel": 0,
      "note": 61,
      "start": 8.4576,
      "duration": 0.0034,
      "velocity": 105,
      "chip": "ym2612"
    },
    {
      "channel": 0,
      "note": 63,
      "start": 8.4613,
      "duration": 0.0817,
      "velocity": 105,
      "chip": "ym2612"
    },
    {
      "channel": 0,
      "note": 64,
      "start": 8.5432,
      "duration": 0.0042,
      "velocity": 105,
      "chip": "ym2612"
    },
    {
      "channel": 0,
      "note": 63,
      "start": 8.5476,
      "duration": 0.0039,
      "velocity": 105,
      "chip": "ym2612"
    },
    {
      "channel": 0,
      "note": 61,
      "start": 8.5517,
      "duration": 0.0038,
      "velocity": 105,
      "chip": "ym2612"
    },
    {
      "channel": 2,
      "note": 80,
      "start": 8.5522,
      "duration": 0.0037,
      "velocity": 103,
      "chip": "ym2612"
    },
    {
      "channel": 3,
      "note": 83,
      "start": 8.5525,
      "duration": 0.0035,
      "velocity": 103,
      "chip": "ym2612"
    },
    {
      "channel": 0,
      "note": 59,
      "start": 8.5557,
      "duration": 0.0813,
      "velocity": 105,
      "chip": "ym2612"
    },
    {
      "channel": 2,
      "note": 80,
      "start": 8.556,
      "duration": 0.5177,
      "velocity": 103,
      "chip": "ym2612"
    },
    {
      "channel": 3,
      "note": 85,
      "start": 8.5563,
      "duration": 0.5176,
      "velocity": 103,
      "chip": "ym2612"
    },
    {
      "channel": 0,
      "note": 49,
      "start": 8.6373,
      "duration": 0.0861,
      "velocity": 105,
      "chip": "ym2612"
    },
    {
      "channel": 1,
      "note": 95,
      "start": 8.6376,
      "duration": 0.0895,
      "velocity": 99,
      "chip": "ym2612"
    },
    {
      "channel": 4,
      "note": 95,
      "start": 8.6421,
      "duration": 0.167,
      "velocity": 99,
      "chip": "ym2612"
    },
    {
      "channel": 0,
      "note": 61,
      "start": 8.7236,
      "duration": 0.0032,
      "velocity": 105,
      "chip": "ym2612"
    },
    {
      "channel": 0,
      "note": 49,
      "start": 8.7269,
      "duration": 0.0816,
      "velocity": 105,
      "chip": "ym2612"
    },
    {
      "channel": 1,
      "note": 94,
      "start": 8.7273,
      "duration": 0.0858,
      "velocity": 99,
      "chip": "ym2612"
    },
    {
      "channel": 0,
      "note": 61,
      "start": 8.8088,
      "duration": 0.0041,
      "velocity": 105,
      "chip": "ym2612"
    },
    {
      "channel": 4,
      "note": 94,
      "start": 8.8094,
      "duration": 0.0079,
      "velocity": 99,
      "chip": "ym2612"
    },
    {
      "channel": 0,
      "note": 49,
      "start": 8.8131,
      "duration": 0.0034,
      "velocity": 105,
      "chip": "ym2612"
    },
    {
      "channel": 0,
      "note": 49,
      "start": 8.8166,
      "duration": 0.0814,
      "velocity": 105,
      "chip": "ym2612"
    },
    {
      "channel": 1,
      "note": 92,
      "start": 8.817,
      "duration": 0.2648,
      "velocity": 99,
      "chip": "ym2612"
    },
    {
      "channel": 0,
      "note": 61,
      "start": 8.8983,
      "duration": 0.0034,
      "velocity": 105,
      "chip": "ym2612"
    },
    {
      "channel": 4,
      "note": 92,
      "start": 8.8989,
      "duration": 0.1881,
      "velocity": 99,
      "chip": "ym2612"
    },
    {
      "channel": 0,
      "note": 49,
      "start": 8.9019,
      "duration": 0.0817,
      "velocity": 105,
      "chip": "ym2612"
    },
    {
      "channel": 0,
      "note": 61,
      "start": 8.9838,
      "duration": 0.0044,
      "velocity": 105,
      "chip": "ym2612"
    },
    {
      "channel": 0,
      "note": 49,
      "start": 8.9884,
      "duration": 0.0033,
      "velocity": 105,
      "chip": "ym2612"
    },
    {
      "channel": 0,
      "note": 59,
      "start": 8.9919,
      "duration": 0.0815,
      "velocity": 105,
      "chip": "ym2612"
    },
    {
      "channel": 0,
      "note": 55,
      "start": 9.0771,
      "duration": 0.0045,
      "velocity": 105,
      "chip": "ym2612"
    },
    {
      "channel": 2,
      "note": 80,
      "start": 9.0776,
      "duration": 0.0045,
      "velocity": 103,
      "chip": "ym2612"
    },
    {
      "channel": 3,
      "note": 85,
      "start": 9.0779,
      "duration": 0.0045,
      "velocity": 103,
      "chip": "ym2612"
    },
    {
      "channel": 0,
      "note": 56,
      "start": 9.0817,
      "duration": 0.0041,
      "velocity": 105,
      "chip": "ym2612"
    },
    {
      "channel": 1,
      "note": 90,
      "start": 9.082,
      "duration": 0.0041,
      "velocity": 99,
      "chip": "ym2612"
    },
    {
      "channel": 2,
      "note": 80,
      "start": 9.0823,
      "duration": 0.0041,
      "velocity": 103,
      "chip": "ym2612"
    },
    {
      "channel": 3,
      "note": 85,
      "start": 9.0827,
      "duration": 0.0041,
      "velocity": 103,
      "chip": "ym2612"
    },
    {
      "channel": 0,
      "note": 61,
      "start": 9.086,
      "duration": 0.004,
      "velocity": 105,
      "chip": "ym2612"
    },
    {
      "channel": 1,
      "note": 88,
      "start": 9.0863,
      "duration": 0.0039,
      "velocity": 99,
      "chip": "ym2612"
    },
    {
      "channel": 2,
      "note": 80,
      "start": 9.0866,
      "duration": 0.0038,
      "velocity": 103,
      "chip": "ym2612"
    },
    {
      "channel": 3,
      "note": 85,
      "start": 9.087,
      "duration": 0.0038,
      "velocity": 103,
      "chip": "ym2612"
    },
    {
      "channel": 4,
      "note": 90,
      "start": 9.0873,
      "duration": 0.0038,
      "velocity": 99,
      "chip": "ym2612"
    },
    {
      "channel": 0,
      "note": 58,
      "start": 9.0902,
      "duration": 0.0044,
      "velocity": 105,
      "chip": "ym2612"
    },
    {
      "channel": 1,
      "note": 87,
      "start": 9.0903,
      "duration": 0.3474,
      "velocity": 99,
      "chip": "ym2612"
    },
    {
      "channel": 2,
      "note": 82,
      "start": 9.0906,
      "duration": 0.3509,
      "velocity": 103,
      "chip": "ym2612"
    },
    {
      "channel": 3,
      "note": 87,
      "start": 9.0909,
      "duration": 0.3508,
      "velocity": 103,
      "chip": "ym2612"
    },
    {
      "channel": 4,
      "note": 88,
      "start": 9.0913,
      "duration": 0.0037,
      "velocity": 99,
      "chip": "ym2612"
    },
    {
      "channel": 0,
      "note": 58,
      "start": 9.0947,
      "duration": 0.0815,
      "velocity": 105,
      "chip": "ym2612"
    },
    {
      "channel": 4,
      "note": 87,
      "start": 9.0953,
      "duration": 0.3466,
      "velocity": 99,
      "chip": "ym2612"
    },
    {
      "channel": 0,
      "note": 63,
      "start": 9.1764,
      "duration": 0.0035,
      "velocity": 105,
      "chip": "ym2612"
    },
    {
      "channel": 0,
      "note": 58,
      "start": 9.1801,
      "duration": 0.0816,
      "velocity": 105,
      "chip": "ym2612"
    },
    {
      "channel": 0,
      "note": 66,
      "start": 9.2619,
      "duration": 0.0039,
      "velocity": 105,
      "chip": "ym2612"
    },
    {
      "channel": 0,
      "note": 58,
      "start": 9.266,
      "duration": 0.0041,
      "velocity": 105,
      "chip": "ym2612"
    },
    {
      "channel": 0,
      "note": 58,
      "start": 9.2702,
      "duration": 0.0817,
      "velocity": 105,
      "chip": "ym2612"
    },
    {
      "channel": 0,
      "note": 68,
      "start": 9.3522,
      "duration": 0.0853,
      "velocity": 105,
      "chip": "ym2612"
    },
    {
      "channel": 0,
      "note": 58,
      "start": 9.4377,
      "duration": 0.0032,
      "velocity": 105,
      "chip": "ym2612"
    },
    {
      "channel": 0,
      "note": 67,
      "start": 9.4412,
      "duration": 0.0023,
      "velocity": 105,
      "chip": "ym2612"
    },
    {
      "channel": 1,
      "note": 90,
      "start": 9.4415,
      "duration": 0.0885,
      "velocity": 99,
      "chip": "ym2612"
    },
    {
      "channel": 0,
      "note": 58,
      "start": 9.4437,
      "duration": 0.0816,
      "velocity": 105,
      "chip": "ym2612"
    },
    {
      "channel": 2,
      "note": 82,
      "start": 9.4443,
      "duration": 0.0859,
      "velocity": 103,
      "chip": "ym2612"
    },
    {
      "channel": 3,
      "note": 90,
      "start": 9.4446,
      "duration": 0.0858,
      "velocity": 103,
      "chip": "ym2612"
    },
    {
      "channel": 4,
      "note": 90,
      "start": 9.445,
      "duration": 0.0887,
      "velocity": 99,
      "chip": "ym2612"
    },
    {
      "channel": 0,
      "note": 66,
      "start": 9.5255,
      "duration": 0.0042,
      "velocity": 105,
      "chip": "ym2612"
    },
    {
      "channel": 0,
      "note": 58,
      "start": 9.5299,
      "duration": 0.0024,
      "velocity": 105,
      "chip": "ym2612"
    },
    {
      "channel": 0,
      "note": 63,
      "start": 9.5325,
      "duration": 0.0846,
      "velocity": 105,
      "chip": "ym2612"
    },
    {
      "channel": 1,
      "note": 87,
      "start": 9.5329,
      "duration": 0.0845,
      "velocity": 99,
      "chip": "ym2612"
    },
    {
      "channel": 2,
      "note": 82,
      "start": 9.5332,
      "duration": 0.0027,
      "velocity": 103,
      "chip": "ym2612"
    },
    {
      "channel": 3,
      "note": 87,
      "start": 9.5335,
      "duration": 0.0025,
      "velocity": 103,
      "chip": "ym2612"
    },
    {
      "channel": 4,
      "note": 87,
      "start": 9.5364,
      "duration": 0.0862,
      "velocity": 99,
      "chip": "ym2612"
    },
    {
      "channel": 0,
      "note": 57,
      "start": 9.6173,
      "duration": 0.0046,
      "velocity": 105,
      "chip": "ym2612"
    },
    {
      "channel": 1,
      "note": 86,
      "start": 9.6177,
      "duration": 0.1717,
      "velocity": 99,
      "chip": "ym2612"
    },
    {
      "channel": 2,
      "note": 81,
      "start": 9.618,
      "duration": 0.2622,
      "velocity": 103,
      "chip": "ym2612"
    },
    {
      "channel": 3,
      "note": 86,
      "start": 9.6182,
      "duration": 0.2622,
      "velocity": 103,
      "chip": "ym2612"
    },
    {
      "channel": 0,
      "note": 57,
      "start": 9.6222,
      "duration": 0.0815,
      "velocity": 105,
      "chip": "ym2612"
    },
    {
      "channel": 4,
      "note": 86,
      "start": 9.6228,
      "duration": 0.1713,
      "velocity": 99,
      "chip": "ym2612"
    },
    {
      "channel": 0,
      "note": 61,
      "start": 9.7039,
      "duration": 0.0035,
      "velocity": 105,
      "chip": "ym2612"
    },
    {
      "channel": 0,
      "note": 57,
      "start": 9.7076,
      "duration": 0.0815,
      "velocity": 105,
      "chip": "ym2612"
    },
    {
      "channel": 0,
      "note": 64,
      "start": 9.7893,
      "duration": 0.0042,
      "velocity": 105,
      "chip": "ym2612"
    },
    {
      "channel": 1,
      "note": 90,
      "start": 9.7897,
      "duration": 0.0933,
      "velocity": 99,
      "chip": "ym2612"
    },
    {
      "channel": 0,
      "note": 57,
      "start": 9.7938,
      "duration": 0.0041,
      "velocity": 105,
      "chip": "ym2612"
    },
    {
      "channel": 4,
      "note": 90,
      "start": 9.7944,
      "duration": 0.171,
      "velocity": 99,
      "chip": "ym2612"
    },
    {
      "channel": 0,
      "note": 57,
      "start": 9.7981,
      "duration": 0.0817,
      "velocity": 105,
      "chip": "ym2612"
    },
    {
      "channel": 0,
      "note": 67,
      "start": 9.88,
      "duration": 0.0849,
      "velocity": 105,
      "chip": "ym2612"
    },
    {
      "channel": 1,
      "note": 93,
      "start": 9.8832,
      "duration": 0.0896,
      "velocity": 99,
      "chip": "ym2612"
    },
    {
      "channel": 2,
      "note": 81,
      "start": 9.8835,
      "duration": 0.0895,
      "velocity": 103,
      "chip": "ym2612"
    },
    {
      "channel": 3,
      "note": 85,
      "start": 9.8839,
      "duration": 0.0894,
      "velocity": 103,
      "chip": "ym2612"
    },
    {
      "channel": 0,
      "note": 57,
      "start": 9.9651,
      "duration": 0.0041,
      "velocity": 105,
      "chip": "ym2612"
    },
    {
      "channel": 4,
      "note": 93,
      "start": 9.9657,
      "duration": 0.0897,
      "velocity": 99,
      "chip": "ym2612"
    },
    {
      "channel": 0,
      "note": 66,
      "start": 9.9694,
      "duration": 0.085,
      "velocity": 105,
      "chip": "ym2612"
    },
    {
      "channel": 1,
      "note": 92,
      "start": 9.973,
      "duration": 0.0904,
      "velocity": 99,
      "chip": "ym2612"
    },
    {
      "channel": 0,
      "note": 57,
      "start": 10.0546,
      "duration": 0.0044,
      "velocity": 105,
      "chip": "ym2612"
    },
    {
      "channel": 2,
      "note": 81,
      "start": 10.055,
      "duration": 0.0125,
      "velocity": 103,
      "chip": "ym2612"
    },
    {
      "channel": 3,
      "note": 86,
      "start": 10.0553,
      "duration": 0.0123,
      "velocity": 103,
      "chip": "ym2612"
    },
    {
      "channel": 4,
      "note": 92,
      "start": 10.0556,
      "duration": 0.0122,
      "velocity": 99,
      "chip": "ym2612"
    },
    {
      "channel": 0,
      "note": 64,
      "start": 10.0591,
      "duration": 0.0079,
      "velocity": 105,
      "chip": "ym2612"
    },
    {
      "channel": 1,
      "note": 90,
      "start": 10.0637,
      "duration": 0.0851,
      "velocity": 99,
      "chip": "ym2612"
    },
    {
      "channel": 0,
      "note": 57,
      "start": 10.0672,
      "duration": 0.0813,
      "velocity": 105,
      "chip": "ym2612"
    },
    {
      "channel": 4,
      "note": 90,
      "start": 10.068,
      "duration": 0.0851,
      "velocity": 99,
      "chip": "ym2612"
    },
    {
      "channel": 0,
      "note": 49,
      "start": 10.1487,
      "duration": 0.0857,
      "velocity": 105,
      "chip": "ym2612"
    },
    {
      "channel": 1,
      "note": 87,
      "start": 10.149,
      "duration": 0.0894,
      "velocity": 99,
      "chip": "ym2612"
    },
    {
      "channel": 2,
      "note": 80,
      "start": 10.1493,
      "duration": 0.4453,
      "velocity": 103,
      "chip": "ym2612"
    },
    {
      "channel": 3,
      "note": 85,
      "start": 10.1496,
      "duration": 0.4454,
      "velocity": 103,
      "chip": "ym2612"
    },
    {
      "channel": 4,
      "note": 87,
      "start": 10.1534,
      "duration": 0.1672,
      "velocity": 99,
      "chip": "ym2612"
    },
    {
      "channel": 0,
      "note": 61,
      "start": 10.2346,
      "duration": 0.0035,
      "velocity": 105,
      "chip": "ym2612"
    },
    {
      "channel": 0,
      "note": 49,
      "start": 10.2384,
      "duration": 0.0815,
      "velocity": 105,
      "chip": "ym2612"
    },
    {
      "channel": 1,
      "note": 82,
      "start": 10.2387,
      "duration": 0.0899,
      "velocity": 99,
      "chip": "ym2612"
    },
    {
      "channel": 0,
      "note": 61,
      "start": 10.3201,
      "duration": 0.0042,
      "velocity": 105,
      "chip": "ym2612"
    },
    {
      "channel": 4,
      "note": 82,
      "start": 10.3208,
      "duration": 0.09,
      "velocity": 99,
      "chip": "ym2612"
    },
    {
      "channel": 0,
      "note": 49,
      "start": 10.3246,
      "duration": 0.0038,
      "velocity": 105,
      "chip": "ym2612"
    },
    {
      "channel": 0,
      "note": 49,
      "start": 10.3286,
      "duration": 0.0816,
      "velocity": 105,
      "chip": "ym2612"
    },
    {
      "channel": 1,
      "note": 80,
      "start": 10.3289,
      "duration": 0.3553,
      "velocity": 99,
      "chip": "ym2612"
    },
    {
      "channel": 0,
      "note": 61,
      "start": 10.4104,
      "duration": 0.0035,
      "velocity": 105,
      "chip": "ym2612"
    },
    {
      "channel": 4,
      "note": 80,
      "start": 10.4111,
      "duration": 0.2774,
      "velocity": 99,
      "chip": "ym2612"
    },
    {
      "channel": 0,
      "note": 49,
      "start": 10.4141,
      "duration": 0.0818,
      "velocity": 105,
      "chip": "ym2612"
    },
    {
      "channel": 0,
      "note": 49,
      "start": 10.4961,
      "duration": 0.0041,
      "velocity": 105,
      "chip": "ym2612"
    },
    {
      "channel": 0,
      "note": 61,
      "start": 10.5004,
      "duration": 0.0034,
      "velocity": 105,
      "chip": "ym2612"
    },
    {
      "channel": 0,
      "note": 63,
      "start": 10.504,
      "duration": 0.0816,
      "velocity": 105,
      "chip": "ym2612"
    },
    {
      "channel": 0,
      "note": 64,
      "start": 10.5859,
      "duration": 0.004,
      "velocity": 105,
      "chip": "ym2612"
    },
    {
      "channel": 0,
      "note": 63,
      "start": 10.5901,
      "duration": 0.0041,
      "velocity": 105,
      "chip": "ym2612"
    },
    {
      "channel": 0,
      "note": 61,
      "start": 10.5944,
      "duration": 0.004,
      "velocity": 105,
      "chip": "ym2612"
    },
    {
      "channel": 2,
      "note": 80,
      "start": 10.5948,
      "duration": 0.0039,
      "velocity": 103,
      "chip": "ym2612"
    },
    {
      "channel": 3,
      "note": 83,
      "start": 10.5952,
      "duration": 0.0039,
      "velocity": 103,
      "chip": "ym2612"
    },
    {
      "channel": 0,
      "note": 59,
      "start": 10.5986,
      "duration": 0.0814,
      "velocity": 105,
      "chip": "ym2612"
    },
    {
      "channel": 2,
      "note": 80,
      "start": 10.599,
      "duration": 0.4402,
      "velocity": 103,
      "chip": "ym2612"
    },
    {
      "channel": 3,
      "note": 85,
      "start": 10.5993,
      "duration": 0.4401,
      "velocity": 103,
      "chip": "ym2612"
    },
    {
      "channel": 0,
      "note": 49,
      "start": 10.6802,
      "duration": 0.0074,
      "velocity": 105,
      "chip": "ym2612"
    },
    {
      "channel": 0,
      "note": 61,
      "start": 10.6879,
      "duration": 0.0029,
      "velocity": 105,
      "chip": "ym2612"
    },
    {
      "channel": 1,
      "note": 80,
      "start": 10.6882,
      "duration": 0.0028,
      "velocity": 99,
      "chip": "ym2612"
    },
    {
      "channel": 0,
      "note": 49,
      "start": 10.691,
      "duration": 0.0815,
      "velocity": 105,
      "chip": "ym2612"
    },
    {
      "channel": 1,
      "note": 78,
      "start": 10.6913,
      "duration": 0.0815,
      "velocity": 99,
      "chip": "ym2612"
    },
    {
      "channel": 4,
      "note": 80,
      "start": 10.6918,
      "duration": 0.0815,
      "velocity": 99,
      "chip": "ym2612"
    },
    {
      "channel": 0,
      "note": 61,
      "start": 10.7727,
      "duration": 0.0037,
      "velocity": 105,
      "chip": "ym2612"
    },
    {
      "channel": 1,
      "note": 80,
      "start": 10.773,
      "duration": 0.0036,
      "velocity": 99,
      "chip": "ym2612"
    },
    {
      "channel": 4,
      "note": 78,
      "start": 10.7735,
      "duration": 0.0037,
      "velocity": 99,
      "chip": "ym2612"
    },
    {
      "channel": 0,
      "note": 49,
      "start": 10.7766,
      "duration": 0.0044,
      "velocity": 105,
      "chip": "ym2612"
    },
    {
      "channel": 1,
      "note": 82,
      "start": 10.7769,
      "duration": 0.0043,
      "velocity": 99,
      "chip": "ym2612"
    },
    {
      "channel": 4,
      "note": 80,
      "start": 10.7775,
      "duration": 0.0044,
      "velocity": 99,
      "chip": "ym2612"
    },
    {
      "channel": 0,
      "note": 49,
      "start": 10.7811,
      "duration": 0.0817,
      "velocity": 105,
      "chip": "ym2612"
    },
    {
      "channel": 1,
      "note": 80,
      "start": 10.7815,
      "duration": 0.0815,
      "velocity": 99,
      "chip": "ym2612"
    },
    {
      "channel": 4,
      "note": 82,
      "start": 10.782,
      "duration": 0.0815,
      "velocity": 99,
      "chip": "ym2612"
    },
    {
      "channel": 0,
      "note": 61,
      "start": 10.863,
      "duration": 0.0039,
      "velocity": 105,
      "chip": "ym2612"
    },
    {
      "channel": 1,
      "note": 82,
      "start": 10.8633,
      "duration": 0.0038,
      "velocity": 99,
      "chip": "ym2612"
    },
    {
      "channel": 4,
      "note": 80,
      "start": 10.8638,
      "duration": 0.0039,
      "velocity": 99,
      "chip": "ym2612"
    },
    {
      "channel": 0,
      "note": 49,
      "start": 10.8671,
      "duration": 0.0817,
      "velocity": 105,
      "chip": "ym2612"
    },
    {
      "channel": 1,
      "note": 83,
      "start": 10.8674,
      "duration": 0.0816,
      "velocity": 99,
      "chip": "ym2612"
    },
    {
      "channel": 4,
      "note": 82,
      "start": 10.868,
      "duration": 0.0816,
      "velocity": 99,
      "chip": "ym2612"
    },
    {
      "channel": 0,
      "note": 61,
      "start": 10.949,
      "duration": 0.0043,
      "velocity": 105,
      "chip": "ym2612"
    },
    {
      "channel": 1,
      "note": 82,
      "start": 10.9493,
      "duration": 0.0042,
      "velocity": 99,
      "chip": "ym2612"
    },
    {
      "channel": 4,
      "note": 83,
      "start": 10.9498,
      "duration": 0.0042,
      "velocity": 99,
      "chip": "ym2612"
    },
    {
      "channel": 0,
      "note": 49,
      "start": 10.9535,
      "duration": 0.0037,
      "velocity": 105,
      "chip": "ym2612"
    },
    {
      "channel": 1,
      "note": 83,
      "start": 10.9538,
      "duration": 0.0036,
      "velocity": 99,
      "chip": "ym2612"
    },
    {
      "channel": 4,
      "note": 82,
      "start": 10.9543,
      "duration": 0.0036,
      "velocity": 99,
      "chip": "ym2612"
    },
    {
      "channel": 0,
      "note": 59,
      "start": 10.9574,
      "duration": 0.0814,
      "velocity": 105,
      "chip": "ym2612"
    },
    {
      "channel": 1,
      "note": 85,
      "start": 10.9575,
      "duration": 0.0814,
      "velocity": 99,
      "chip": "ym2612"
    },
    {
      "channel": 4,
      "note": 83,
      "start": 10.9581,
      "duration": 0.0815,
      "velocity": 99,
      "chip": "ym2612"
    },
    {
      "channel": 1,
      "note": 87,
      "start": 11.0392,
      "duration": 0.0031,
      "velocity": 99,
      "chip": "ym2612"
    },
    {
      "channel": 4,
      "note": 85,
      "start": 11.0398,
      "duration": 0.0034,
      "velocity": 99,
      "chip": "ym2612"
    },
    {
      "channel": 0,
      "note": 55,
      "start": 11.0422,
      "duration": 0.0047,
      "velocity": 105,
      "chip": "ym2612"
    },
    {
      "channel": 1,
      "note": 85,
      "start": 11.0425,
      "duration": 0.0046,
      "velocity": 99,
      "chip": "ym2612"
    },
    {
      "channel": 2,
      "note": 80,
      "start": 11.0429,
      "duration": 0.0046,
      "velocity": 103,
      "chip": "ym2612"
    },
    {
      "channel": 3,
      "note": 85,
      "start": 11.0431,
      "duration": 0.0046,
      "velocity": 103,
      "chip": "ym2612"
    },
    {
      "channel": 4,
      "note": 87,
      "start": 11.0435,
      "duration": 0.0047,
      "velocity": 99,
      "chip": "ym2612"
    },
    {
      "channel": 0,
      "note": 56,
      "start": 11.0471,
      "duration": 0.0043,
      "velocity": 105,
      "chip": "ym2612"
    },
    {
      "channel": 1,
      "note": 87,
      "start": 11.0474,
      "duration": 0.0042,
      "velocity": 99,
      "chip": "ym2612"
    },
    {
      "channel": 2,
      "note": 80,
      "start": 11.0477,
      "duration": 0.0042,
      "velocity": 103,
      "chip": "ym2612"
    },
    {
      "channel": 3,
      "note": 85,
      "start": 11.048,
      "duration": 0.0041,
      "velocity": 103,
      "chip": "ym2612"
    },
    {
      "channel": 4,
      "note": 85,
      "start": 11.0484,
      "duration": 0.004,
      "velocity": 99,
      "chip": "ym2612"
    },
    {
      "channel": 0,
      "note": 61,
      "start": 11.0515,
      "duration": 0.0039,
      "velocity": 105,
      "chip": "ym2612"
    },
    {
      "channel": 1,
      "note": 88,
      "start": 11.0518,
      "duration": 0.0038,
      "velocity": 99,
      "chip": "ym2612"
    },
    {
      "channel": 2,
      "note": 80,
      "start": 11.052,
      "duration": 0.0049,
      "velocity": 116,
      "chip": "ym2612"
    },
    {
      "channel": 3,
      "note": 85,
      "start": 11.0523,
      "duration": 0.0063,
      "velocity": 116,
      "chip": "ym2612"
    },
    {
      "channel": 4,
      "note": 87,
      "start": 11.0526,
      "duration": 0.0063,
      "velocity": 99,
      "chip": "ym2612"
    },
    {
      "channel": 2,
      "note": 49,
      "start": 11.0572,
      "duration": 0.0847,
      "velocity": 116,
      "chip": "ym2612"
    },
    {
      "channel": 3,
      "note": 49,
      "start": 11.0587,
      "duration": 0.0835,
      "velocity": 116,
      "chip": "ym2612"
    },
    {
      "channel": 2,
      "note": 56,
      "start": 11.1421,
      "duration": 0.0022,
      "velocity": 116,
      "chip": "ym2612"
    },
    {
      "channel": 3,
      "note": 56,
      "start": 11.1424,
      "duration": 0.0022,
      "velocity": 116,
      "chip": "ym2612"
    },
    {
      "channel": 2,
      "note": 49,
      "start": 11.1445,
      "duration": 0.081,
      "velocity": 116,
      "chip": "ym2612"
    },
    {
      "channel": 3,
      "note": 49,
      "start": 11.1448,
      "duration": 0.081,
      "velocity": 116,
      "chip": "ym2612"
    },
    {
      "channel": 2,
      "note": 59,
      "start": 11.2256,
      "duration": 0.0025,
      "velocity": 116,
      "chip": "ym2612"
    },
    {
      "channel": 3,
      "note": 59,
      "start": 11.226,
      "duration": 0.0023,
      "velocity": 116,
      "chip": "ym2612"
    },
    {
      "channel": 2,
      "note": 49,
      "start": 11.2304,
      "duration": 0.0022,
      "velocity": 116,
      "chip": "ym2612"
    },
    {
      "channel": 3,
      "note": 49,
      "start": 11.2307,
      "duration": 0.0022,
      "velocity": 116,
      "chip": "ym2612"
    },
    {
      "channel": 2,
      "note": 55,
      "start": 11.2328,
      "duration": 0.0024,
      "velocity": 116,
      "chip": "ym2612"
    },
    {
      "channel": 3,
      "note": 55,
      "start": 11.2331,
      "duration": 0.0022,
      "velocity": 116,
      "chip": "ym2612"
    },
    {
      "channel": 2,
      "note": 49,
      "start": 11.3164,
      "duration": 0.0025,
      "velocity": 116,
      "chip": "ym2612"
    },
    {
      "channel": 3,
      "note": 49,
      "start": 11.3167,
      "duration": 0.0025,
      "velocity": 116,
      "chip": "ym2612"
    },
    {
      "channel": 2,
      "note": 56,
      "start": 11.3192,
      "duration": 0.0834,
      "velocity": 116,
      "chip": "ym2612"
    },
    {
      "channel": 3,
      "note": 56,
      "start": 11.3195,
      "duration": 0.0834,
      "velocity": 116,
      "chip": "ym2612"
    },
    {
      "channel": 2,
      "note": 49,
      "start": 11.4028,
      "duration": 0.0053,
      "velocity": 116,
      "chip": "ym2612"
    },
    {
      "channel": 3,
      "note": 49,
      "start": 11.4031,
      "duration": 0.0053,
      "velocity": 116,
      "chip": "ym2612"
    },
    {
      "channel": 2,
      "note": 54,
      "start": 11.4084,
      "duration": 0.0022,
      "velocity": 116,
      "chip": "ym2612"
    },
    {
      "channel": 3,
      "note": 54,
      "start": 11.4087,
      "duration": 0.0022,
      "velocity": 116,
      "chip": "ym2612"
    },
    {
      "channel": 2,
      "note": 56,
      "start": 11.4108,
      "duration": 0.0813,
      "velocity": 116,
      "chip": "ym2612"
    },
    {
      "channel": 3,
      "note": 56,
      "start": 11.411,
      "duration": 0.0813,
      "velocity": 116,
      "chip": "ym2612"
    },
    {
      "channel": 2,
      "note": 49,
      "start": 11.4923,
      "duration": 0.0837,
      "velocity": 116,
      "chip": "ym2612"
    },
    {
      "channel": 3,
      "note": 49,
      "start": 11.4926,
      "duration": 0.0837,
      "velocity": 116,
      "chip": "ym2612"
    },
    {
      "channel": 2,
      "note": 56,
      "start": 11.5761,
      "duration": 0.0022,
      "velocity": 116,
      "chip": "ym2612"
    },
    {
      "channel": 3,
      "note": 56,
      "start": 11.5764,
      "duration": 0.0022,
      "velocity": 116,
      "chip": "ym2612"
    },
    {
      "channel": 2,
      "note": 49,
      "start": 11.5785,
      "duration": 0.0811,
      "velocity": 116,
      "chip": "ym2612"
    },
    {
      "channel": 3,
      "note": 49,
      "start": 11.5788,
      "duration": 0.0811,
      "velocity": 116,
      "chip": "ym2612"
    },
    {
      "channel": 2,
      "note": 59,
      "start": 11.6597,
      "duration": 0.0024,
      "velocity": 116,
      "chip": "ym2612"
    },
    {
      "channel": 3,
      "note": 59,
      "start": 11.66,
      "duration": 0.0023,
      "velocity": 116,
      "chip": "ym2612"
    },
    {
      "channel": 2,
      "note": 49,
      "start": 11.6644,
      "duration": 0.0023,
      "velocity": 116,
      "chip": "ym2612"
    },
    {
      "channel": 3,
      "note": 49,
      "start": 11.6647,
      "duration": 0.0023,
      "velocity": 116,
      "chip": "ym2612"
    },
    {
      "channel": 2,
      "note": 55,
      "start": 11.6669,
      "duration": 0.0024,
      "velocity": 116,
      "chip": "ym2612"
    },
    {
      "channel": 3,
      "note": 55,
      "start": 11.6672,
      "duration": 0.0022,
      "velocity": 116,
      "chip": "ym2612"
    },
    {
      "channel": 2,
      "note": 49,
      "start": 11.7505,
      "duration": 0.0025,
      "velocity": 116,
      "chip": "ym2612"
    },
    {
      "channel": 3,
      "note": 49,
      "start": 11.7509,
      "duration": 0.0025,
      "velocity": 116,
      "chip": "ym2612"
    },
    {
      "channel": 2,
      "note": 56,
      "start": 11.7532,
      "duration": 0.0836,
      "velocity": 116,
      "chip": "ym2612"
    },
    {
      "channel": 3,
      "note": 56,
      "start": 11.7535,
      "duration": 0.0836,
      "velocity": 116,
      "chip": "ym2612"
    },
    {
      "channel": 2,
      "note": 51,
      "start": 11.837,
      "duration": 0.005,
      "velocity": 116,
      "chip": "ym2612"
    },
    {
      "channel": 3,
      "note": 51,
      "start": 11.8373,
      "duration": 0.005,
      "velocity": 116,
      "chip": "ym2612"
    },
    {
      "channel": 2,
      "note": 47,
      "start": 11.8422,
      "duration": 0.0837,
      "velocity": 116,
      "chip": "ym2612"
    },
    {
      "channel": 3,
      "note": 47,
      "start": 11.8426,
      "duration": 0.0837,
      "velocity": 116,
      "chip": "ym2612"
    },
    {
      "channel": 2,
      "note": 49,
      "start": 11.9261,
      "duration": 0.0837,
      "velocity": 116,
      "chip": "ym2612"
    },
    {
      "channel": 3,
      "note": 49,
      "start": 11.9264,
      "duration": 0.0837,
      "velocity": 116,
      "chip": "ym2612"
    },
    {
      "channel": 2,
      "note": 56,
      "start": 12.01,
      "duration": 0.0022,
      "velocity": 116,
      "chip": "ym2612"
    },
    {
      "channel": 3,
      "note": 56,
      "start": 12.0103,
      "duration": 0.0022,
      "velocity": 116,
      "chip": "ym2612"
    },
    {
      "channel": 2,
      "note": 49,
      "start": 12.0123,
      "duration": 0.0811,
      "velocity": 116,
      "chip": "ym2612"
    },
    {
      "channel": 3,
      "note": 49,
      "start": 12.0127,
      "duration": 0.0811,
      "velocity": 116,
      "chip": "ym2612"
    },
    {
      "channel": 2,
      "note": 59,
      "start": 12.0936,
      "duration": 0.0024,
      "velocity": 116,
      "chip": "ym2612"
    },
    {
      "channel": 3,
      "note": 59,
      "start": 12.0939,
      "duration": 0.0023,
      "velocity": 116,
      "chip": "ym2612"
    },
    {
      "channel": 2,
      "note": 49,
      "start": 12.0983,
      "duration": 0.0022,
      "velocity": 116,
      "chip": "ym2612"
    },
    {
      "channel": 3,
      "note": 49,
      "start": 12.0987,
      "duration": 0.0021,
      "velocity": 116,
      "chip": "ym2612"
    },
    {
      "channel": 2,
      "note": 55,
      "start": 12.1007,
      "duration": 0.0025,
      "velocity": 116,
      "chip": "ym2612"
    },
    {
      "channel": 3,
      "note": 55,
      "start": 12.101,
      "duration": 0.0023,
      "velocity": 116,
      "chip": "ym2612"
    },
    {
      "channel": 2,
      "note": 49,
      "start": 12.1844,
      "duration": 0.0025,
      "velocity": 116,
      "chip": "ym2612"
    },
    {
      "channel": 3,
      "note": 49,
      "start": 12.1848,
      "duration": 0.0025,
      "velocity": 116,
      "chip": "ym2612"
    },
    {
      "channel": 2,
      "note": 56,
      "start": 12.1871,
      "duration": 0.0835,
      "velocity": 116,
      "chip": "ym2612"
    },
    {
      "channel": 3,
      "note": 56,
      "start": 12.1874,
      "duration": 0.0835,
      "velocity": 116,
      "chip": "ym2612"
    },
    {
      "channel": 2,
      "note": 49,
      "start": 12.2708,
      "duration": 0.0024,
      "velocity": 116,
      "chip": "ym2612"
    },
    {
      "channel": 3,
      "note": 49,
      "start": 12.2711,
      "duration": 0.0024,
      "velocity": 116,
      "chip": "ym2612"
    },
    {
      "channel": 2,
      "note": 56,
      "start": 12.2734,
      "duration": 0.0024,
      "velocity": 116,
      "chip": "ym2612"
    },
    {
      "channel": 3,
      "note": 56,
      "start": 12.2737,
      "duration": 0.0024,
      "velocity": 116,
      "chip": "ym2612"
    },
    {
      "channel": 2,
      "note": 58,
      "start": 12.276,
      "duration": 0.0023,
      "velocity": 116,
      "chip": "ym2612"
    },
    {
      "channel": 3,
      "note": 58,
      "start": 12.2763,
      "duration": 0.0023,
      "velocity": 116,
      "chip": "ym2612"
    },
    {
      "channel": 2,
      "note": 59,
      "start": 12.2785,
      "duration": 0.0813,
      "velocity": 116,
      "chip": "ym2612"
    },
    {
      "channel": 3,
      "note": 59,
      "start": 12.2788,
      "duration": 0.0813,
      "velocity": 116,
      "chip": "ym2612"
    },
    {
      "channel": 2,
      "note": 49,
      "start": 12.36,
      "duration": 0.0836,
      "velocity": 116,
      "chip": "ym2612"
    },
    {
      "channel": 3,
      "note": 49,
      "start": 12.3603,
      "duration": 0.0836,
      "velocity": 116,
      "chip": "ym2612"
    },
    {
      "channel": 2,
      "note": 56,
      "start": 12.4438,
      "duration": 0.0022,
      "velocity": 116,
      "chip": "ym2612"
    },
    {
      "channel": 3,
      "note": 56,
      "start": 12.4441,
      "duration": 0.0022,
      "velocity": 116,
      "chip": "ym2612"
    },
    {
      "channel": 2,
      "note": 49,
      "start": 12.4462,
      "duration": 0.081,
      "velocity": 116,
      "chip": "ym2612"
    },
    {
      "channel": 3,
      "note": 49,
      "start": 12.4466,
      "duration": 0.081,
      "velocity": 116,
      "chip": "ym2612"
    },
    {
      "channel": 2,
      "note": 59,
      "start": 12.5274,
      "duration": 0.0025,
      "velocity": 116,
      "chip": "ym2612"
    },
    {
      "channel": 3,
      "note": 59,
      "start": 12.5277,
      "duration": 0.0023,
      "velocity": 116,
      "chip": "ym2612"
    },
    {
      "channel": 2,
      "note": 49,
      "start": 12.5322,
      "duration": 0.0022,
      "velocity": 116,
      "chip": "ym2612"
    },
    {
      "channel": 3,
      "note": 49,
      "start": 12.5325,
      "duration": 0.0022,
      "velocity": 116,
      "chip": "ym2612"
    },
    {
      "channel": 2,
      "note": 55,
      "start": 12.5346,
      "duration": 0.0025,
      "velocity": 116,
      "chip": "ym2612"
    },
    {
      "channel": 3,
      "note": 55,
      "start": 12.535,
      "duration": 0.0023,
      "velocity": 116,
      "chip": "ym2612"
    },
    {
      "channel": 2,
      "note": 55,
      "start": 12.6184,
      "duration": 0.0025,
      "velocity": 116,
      "chip": "ym2612"
    },
    {
      "channel": 3,
      "note": 55,
      "start": 12.6187,
      "duration": 0.0025,
      "velocity": 116,
      "chip": "ym2612"
    },
    {
      "channel": 2,
      "note": 56,
      "start": 12.621,
      "duration": 0.0022,
      "velocity": 116,
      "chip": "ym2612"
    },
    {
      "channel": 3,
      "note": 56,
      "start": 12.6214,
      "duration": 0.0022,
      "velocity": 116,
      "chip": "ym2612"
    },
    {
      "channel": 2,
      "note": 58,
      "start": 12.6235,
      "duration": 0.081,
      "velocity": 116,
      "chip": "ym2612"
    },
    {
      "channel": 3,
      "note": 58,
      "start": 12.6238,
      "duration": 0.0811,
      "velocity": 116,
      "chip": "ym2612"
    },
    {
      "channel": 2,
      "note": 59,
      "start": 12.7048,
      "duration": 0.0024,
      "velocity": 116,
      "chip": "ym2612"
    },
    {
      "channel": 3,
      "note": 59,
      "start": 12.7051,
      "duration": 0.0024,
      "velocity": 116,
      "chip": "ym2612"
    },
    {
      "channel": 2,
      "note": 61,
      "start": 12.7074,
      "duration": 0.0021,
      "velocity": 116,
      "chip": "ym2612"
    },
    {
      "channel": 3,
      "note": 61,
      "start": 12.7077,
      "duration": 0.0021,
      "velocity": 116,
      "chip": "ym2612"
    },
    {
      "channel": 2,
      "note": 63,
      "start": 12.7096,
      "duration": 0.0022,
      "velocity": 116,
      "chip": "ym2612"
    },
    {
      "channel": 3,
      "note": 63,
      "start": 12.71,
      "duration": 0.0022,
      "velocity": 116,
      "chip": "ym2612"
    },
    {
      "channel": 2,
      "note": 64,
      "start": 12.7121,
      "duration": 0.0031,
      "velocity": 116,
      "chip": "ym2612"
    },
    {
      "channel": 3,
      "note": 64,
      "start": 12.7124,
      "duration": 0.0029,
      "velocity": 116,
      "chip": "ym2612"
    },
    {
      "channel": 0,
      "note": 49,
      "start": 12.7137,
      "duration": 0.0863,
      "velocity": 105,
      "chip": "ym2612"
    },
    {
      "channel": 2,
      "note": 49,
      "start": 12.7152,
      "duration": 0.0851,
      "velocity": 116,
      "chip": "ym2612"
    },
    {
      "channel": 3,
      "note": 49,
      "start": 12.7155,
      "duration": 0.0851,
      "velocity": 116,
      "chip": "ym2612"
    },
    {
      "channel": 0,
      "note": 56,
      "start": 12.8002,
      "duration": 0.0022,
      "velocity": 105,
      "chip": "ym2612"
    },
    {
      "channel": 2,
      "note": 56,
      "start": 12.8005,
      "duration": 0.0022,
      "velocity": 116,
      "chip": "ym2612"
    },
    {
      "channel": 3,
      "note": 56,
      "start": 12.8009,
      "duration": 0.0022,
      "velocity": 116,
      "chip": "ym2612"
    },
    {
      "channel": 0,
      "note": 49,
      "start": 12.8027,
      "duration": 0.081,
      "velocity": 105,
      "chip": "ym2612"
    },
    {
      "channel": 2,
      "note": 49,
      "start": 12.803,
      "duration": 0.081,
      "velocity": 116,
      "chip": "ym2612"
    },
    {
      "channel": 3,
      "note": 49,
      "start": 12.8033,
      "duration": 0.081,
      "velocity": 116,
      "chip": "ym2612"
    },
    {
      "channel": 0,
      "note": 59,
      "start": 12.8839,
      "duration": 0.0023,
      "velocity": 105,
      "chip": "ym2612"
    },
    {
      "channel": 2,
      "note": 59,
      "start": 12.8842,
      "duration": 0.0022,
      "velocity": 116,
      "chip": "ym2612"
    },
    {
      "channel": 3,
      "note": 59,
      "start": 12.8845,
      "duration": 0.002,
      "velocity": 116,
      "chip": "ym2612"
    },
    {
      "channel": 0,
      "note": 49,
      "start": 12.8884,
      "duration": 0.0023,
      "velocity": 105,
      "chip": "ym2612"
    },
    {
      "channel": 2,
      "note": 49,
      "start": 12.8887,
      "duration": 0.0023,
      "velocity": 116,
      "chip": "ym2612"
    },
    {
      "channel": 3,
      "note": 49,
      "start": 12.889,
      "duration": 0.0023,
      "velocity": 116,
      "chip": "ym2612"
    },
    {
      "channel": 0,
      "note": 55,
      "start": 12.8909,
      "duration": 0.0026,
      "velocity": 105,
      "chip": "ym2612"
    },
    {
      "channel": 2,
      "note": 55,
      "start": 12.8912,
      "duration": 0.0024,
      "velocity": 116,
      "chip": "ym2612"
    },
    {
      "channel": 3,
      "note": 55,
      "start": 12.8916,
      "duration": 0.0021,
      "velocity": 116,
      "chip": "ym2612"
    },
    {
      "channel": 0,
      "note": 49,
      "start": 12.9748,
      "duration": 0.0023,
      "velocity": 105,
      "chip": "ym2612"
    },
    {
      "channel": 2,
      "note": 49,
      "start": 12.9751,
      "duration": 0.0023,
      "velocity": 116,
      "chip": "ym2612"
    },
    {
      "channel": 3,
      "note": 49,
      "start": 12.9754,
      "duration": 0.0023,
      "velocity": 116,
      "chip": "ym2612"
    },
    {
      "channel": 0,
      "note": 56,
      "start": 12.9773,
      "duration": 0.0835,
      "velocity": 105,
      "chip": "ym2612"
    },
    {
      "channel": 2,
      "note": 56,
      "start": 12.9776,
      "duration": 0.0834,
      "velocity": 116,
      "chip": "ym2612"
    },
    {
      "channel": 3,
      "note": 56,
      "start": 12.9779,
      "duration": 0.0835,
      "velocity": 116,
      "chip": "ym2612"
    },
    {
      "channel": 0,
      "note": 49,
      "start": 13.061,
      "duration": 0.0051,
      "velocity": 105,
      "chip": "ym2612"
    },
    {
      "channel": 2,
      "note": 49,
      "start": 13.0613,
      "duration": 0.0051,
      "velocity": 116,
      "chip": "ym2612"
    },
    {
      "channel": 3,
      "note": 49,
      "start": 13.0616,
      "duration": 0.0051,
      "velocity": 116,
      "chip": "ym2612"
    },
    {
      "channel": 0,
      "note": 54,
      "start": 13.0663,
      "duration": 0.0022,
      "velocity": 105,
      "chip": "ym2612"
    },
    {
      "channel": 2,
      "note": 54,
      "start": 13.0666,
      "duration": 0.0022,
      "velocity": 116,
      "chip": "ym2612"
    },
    {
      "channel": 3,
      "note": 54,
      "start": 13.0669,
      "duration": 0.0022,
      "velocity": 116,
      "chip": "ym2612"
    },
    {
      "channel": 0,
      "note": 56,
      "start": 13.0687,
      "duration": 0.0811,
      "velocity": 105,
      "chip": "ym2612"
    },
    {
      "channel": 2,
      "note": 56,
      "start": 13.0691,
      "duration": 0.0812,
      "velocity": 116,
      "chip": "ym2612"
    },
    {
      "channel": 3,
      "note": 56,
      "start": 13.0694,
      "duration": 0.0812,
      "velocity": 116,
      "chip": "ym2612"
    },
    {
      "channel": 0,
      "note": 49,
      "start": 13.1501,
      "duration": 0.0839,
      "velocity": 105,
      "chip": "ym2612"
    },
    {
      "channel": 2,
      "note": 49,
      "start": 13.1505,
      "duration": 0.0838,
      "velocity": 116,
      "chip": "ym2612"
    },
    {
      "channel": 3,
      "note": 49,
      "start": 13.1508,
      "duration": 0.0838,
      "velocity": 116,
      "chip": "ym2612"
    },
    {
      "channel": 0,
      "note": 56,
      "start": 13.2342,
      "duration": 0.0022,
      "velocity": 105,
      "chip": "ym2612"
    },
    {
      "channel": 2,
      "note": 56,
      "start": 13.2345,
      "duration": 0.0022,
      "velocity": 116,
      "chip": "ym2612"
    },
    {
      "channel": 3,
      "note": 56,
      "start": 13.2349,
      "duration": 0.0023,
      "velocity": 116,
      "chip": "ym2612"
    },
    {
      "channel": 0,
      "note": 49,
      "start": 13.2366,
      "duration": 0.0811,
      "velocity": 105,
      "chip": "ym2612"
    },
    {
      "channel": 2,
      "note": 49,
      "start": 13.237,
      "duration": 0.081,
      "velocity": 116,
      "chip": "ym2612"
    },
    {
      "channel": 3,
      "note": 49,
      "start": 13.2374,
      "duration": 0.081,
      "velocity": 116,
      "chip": "ym2612"
    },
    {
      "channel": 0,
      "note": 59,
      "start": 13.3179,
      "duration": 0.0023,
      "velocity": 105,
      "chip": "ym2612"
    },
    {
      "channel": 2,
      "note": 59,
      "start": 13.3182,
      "duration": 0.0022,
      "velocity": 116,
      "chip": "ym2612"
    },
    {
      "channel": 3,
      "note": 59,
      "start": 13.3185,
      "duration": 0.002,
      "velocity": 116,
      "chip": "ym2612"
    },
    {
      "channel": 0,
      "note": 49,
      "start": 13.3224,
      "duration": 0.0023,
      "velocity": 105,
      "chip": "ym2612"
    },
    {
      "channel": 2,
      "note": 49,
      "start": 13.3228,
      "duration": 0.0023,
      "velocity": 116,
      "chip": "ym2612"
    },
    {
      "channel": 3,
      "note": 49,
      "start": 13.3231,
      "duration": 0.0023,
      "velocity": 116,
      "chip": "ym2612"
    },
    {
      "channel": 0,
      "note": 55,
      "start": 13.3249,
      "duration": 0.0025,
      "velocity": 105,
      "chip": "ym2612"
    },
    {
      "channel": 2,
      "note": 55,
      "start": 13.3253,
      "duration": 0.0023,
      "velocity": 116,
      "chip": "ym2612"
    },
    {
      "channel": 3,
      "note": 55,
      "start": 13.3256,
      "duration": 0.0021,
      "velocity": 116,
      "chip": "ym2612"
    },
    {
      "channel": 0,
      "note": 49,
      "start": 13.4087,
      "duration": 0.0023,
      "velocity": 105,
      "chip": "ym2612"
    },
    {
      "channel": 2,
      "note": 49,
      "start": 13.409,
      "duration": 0.0023,
      "velocity": 116,
      "chip": "ym2612"
    },
    {
      "channel": 3,
      "note": 49,
      "start": 13.4093,
      "duration": 0.0023,
      "velocity": 116,
      "chip": "ym2612"
    },
    {
      "channel": 0,
      "note": 56,
      "start": 13.4112,
      "duration": 0.0835,
      "velocity": 105,
      "chip": "ym2612"
    },
    {
      "channel": 2,
      "note": 56,
      "start": 13.4115,
      "duration": 0.0835,
      "velocity": 116,
      "chip": "ym2612"
    },
    {
      "channel": 3,
      "note": 56,
      "start": 13.4118,
      "duration": 0.0835,
      "velocity": 116,
      "chip": "ym2612"
    },
    {
      "channel": 0,
      "note": 51,
      "start": 13.4949,
      "duration": 0.0049,
      "velocity": 105,
      "chip": "ym2612"
    },
    {
      "channel": 2,
      "note": 51,
      "start": 13.4952,
      "duration": 0.0049,
      "velocity": 116,
      "chip": "ym2612"
    },
    {
      "channel": 3,
      "note": 51,
      "start": 13.4955,
      "duration": 0.0049,
      "velocity": 116,
      "chip": "ym2612"
    },
    {
      "channel": 0,
      "note": 47,
      "start": 13.4999,
      "duration": 0.0836,
      "velocity": 105,
      "chip": "ym2612"
    },
    {
      "channel": 2,
      "note": 47,
      "start": 13.5002,
      "duration": 0.0837,
      "velocity": 116,
      "chip": "ym2612"
    },
    {
      "channel": 3,
      "note": 47,
      "start": 13.5006,
      "duration": 0.0837,
      "velocity": 116,
      "chip": "ym2612"
    },
    {
      "channel": 0,
      "note": 49,
      "start": 13.5837,
      "duration": 0.0838,
      "velocity": 105,
      "chip": "ym2612"
    },
    {
      "channel": 2,
      "note": 49,
      "start": 13.5841,
      "duration": 0.0837,
      "velocity": 116,
      "chip": "ym2612"
    },
    {
      "channel": 3,
      "note": 49,
      "start": 13.5844,
      "duration": 0.0837,
      "velocity": 116,
      "chip": "ym2612"
    },
    {
      "channel": 0,
      "note": 56,
      "start": 13.6677,
      "duration": 0.0022,
      "velocity": 105,
      "chip": "ym2612"
    },
    {
      "channel": 2,
      "note": 56,
      "start": 13.668,
      "duration": 0.0022,
      "velocity": 116,
      "chip": "ym2612"
    },
    {
      "channel": 3,
      "note": 56,
      "start": 13.6683,
      "duration": 0.0022,
      "velocity": 116,
      "chip": "ym2612"
    },
    {
      "channel": 0,
      "note": 49,
      "start": 13.67,
      "duration": 0.0811,
      "velocity": 105,
      "chip": "ym2612"
    },
    {
      "channel": 2,
      "note": 49,
      "start": 13.6704,
      "duration": 0.081,
      "velocity": 116,
      "chip": "ym2612"
    },
    {
      "channel": 3,
      "note": 49,
      "start": 13.6708,
      "duration": 0.081,
      "velocity": 116,
      "chip": "ym2612"
    },
    {
      "channel": 0,
      "note": 59,
      "start": 13.7513,
      "duration": 0.0023,
      "velocity": 105,
      "chip": "ym2612"
    },
    {
      "channel": 2,
      "note": 59,
      "start": 13.7516,
      "duration": 0.0022,
      "velocity": 116,
      "chip": "ym2612"
    },
    {
      "channel": 3,
      "note": 59,
      "start": 13.752,
      "duration": 0.002,
      "velocity": 116,
      "chip": "ym2612"
    },
    {
      "channel": 0,
      "note": 49,
      "start": 13.7559,
      "duration": 0.0022,
      "velocity": 105,
      "chip": "ym2612"
    },
    {
      "channel": 2,
      "note": 49,
      "start": 13.7562,
      "duration": 0.0022,
      "velocity": 116,
      "chip": "ym2612"
    },
    {
      "channel": 3,
      "note": 49,
      "start": 13.7565,
      "duration": 0.0023,
      "velocity": 116,
      "chip": "ym2612"
    },
    {
      "channel": 0,
      "note": 55,
      "start": 13.7583,
      "duration": 0.0025,
      "velocity": 105,
      "chip": "ym2612"
    },
    {
      "channel": 2,
      "note": 55,
      "start": 13.7586,
      "duration": 0.0024,
      "velocity": 116,
      "chip": "ym2612"
    },
    {
      "channel": 3,
      "note": 55,
      "start": 13.759,
      "duration": 0.0022,
      "velocity": 116,
      "chip": "ym2612"
    },
    {
      "channel": 0,
      "note": 49,
      "start": 13.8421,
      "duration": 0.0023,
      "velocity": 105,
      "chip": "ym2612"
    },
    {
      "channel": 2,
      "note": 49,
      "start": 13.8424,
      "duration": 0.0023,
      "velocity": 116,
      "chip": "ym2612"
    },
    {
      "channel": 3,
      "note": 49,
      "start": 13.8427,
      "duration": 0.0023,
      "velocity": 116,
      "chip": "ym2612"
    },
    {
      "channel": 0,
      "note": 56,
      "start": 13.8446,
      "duration": 0.0836,
      "velocity": 105,
      "chip": "ym2612"
    },
    {
      "channel": 2,
      "note": 56,
      "start": 13.8449,
      "duration": 0.0835,
      "velocity": 116,
      "chip": "ym2612"
    },
    {
      "channel": 3,
      "note": 56,
      "start": 13.8452,
      "duration": 0.0835,
      "velocity": 116,
      "chip": "ym2612"
    },
    {
      "channel": 0,
      "note": 49,
      "start": 13.9283,
      "duration": 0.0023,
      "velocity": 105,
      "chip": "ym2612"
    },
    {
      "channel": 2,
      "note": 49,
      "start": 13.9286,
      "duration": 0.0023,
      "velocity": 116,
      "chip": "ym2612"
    },
    {
      "channel": 3,
      "note": 49,
      "start": 13.929,
      "duration": 0.0023,
      "velocity": 116,
      "chip": "ym2612"
    },
    {
      "channel": 0,
      "note": 56,
      "start": 13.9308,
      "duration": 0.0026,
      "velocity": 105,
      "chip": "ym2612"
    },
    {
      "channel": 2,
      "note": 56,
      "start": 13.9311,
      "duration": 0.0026,
      "velocity": 116,
      "chip": "ym2612"
    },
    {
      "channel": 3,
      "note": 56,
      "start": 13.9314,
      "duration": 0.0026,
      "velocity": 116,
      "chip": "ym2612"
    },
    {
      "channel": 0,
      "note": 58,
      "start": 13.9336,
      "duration": 0.0023,
      "velocity": 105,
      "chip": "ym2612"
    },
    {
      "channel": 2,
      "note": 58,
      "start": 13.9339,
      "duration": 0.0023,
      "velocity": 116,
      "chip": "ym2612"
    },
    {
      "channel": 3,
      "note": 58,
      "start": 13.9342,
      "duration": 0.0023,
      "velocity": 116,
      "chip": "ym2612"
    },
    {
      "channel": 0,
      "note": 59,
      "start": 13.936,
      "duration": 0.0811,
      "velocity": 105,
      "chip": "ym2612"
    },
    {
      "channel": 2,
      "note": 59,
      "start": 13.9364,
      "duration": 0.0812,
      "velocity": 116,
      "chip": "ym2612"
    },
    {
      "channel": 3,
      "note": 59,
      "start": 13.9368,
      "duration": 0.0811,
      "velocity": 116,
      "chip": "ym2612"
    },
    {
      "channel": 0,
      "note": 49,
      "start": 14.0173,
      "duration": 0.0837,
      "velocity": 105,
      "chip": "ym2612"
    },
    {
      "channel": 2,
      "note": 49,
      "start": 14.0177,
      "duration": 0.0836,
      "velocity": 116,
      "chip": "ym2612"
    },
    {
      "channel": 3,
      "note": 49,
      "start": 14.018,
      "duration": 0.0836,
      "velocity": 116,
      "chip": "ym2612"
    },
    {
      "channel": 0,
      "note": 56,
      "start": 14.1012,
      "duration": 0.0022,
      "velocity": 105,
      "chip": "ym2612"
    },
    {
      "channel": 2,
      "note": 56,
      "start": 14.1015,
      "duration": 0.0022,
      "velocity": 116,
      "chip": "ym2612"
    },
    {
      "channel": 3,
      "note": 56,
      "start": 14.1018,
      "duration": 0.0022,
      "velocity": 116,
      "chip": "ym2612"
    },
    {
      "channel": 0,
      "note": 49,
      "start": 14.1036,
      "duration": 0.0811,
      "velocity": 105,
      "chip": "ym2612"
    },
    {
      "channel": 2,
      "note": 49,
      "start": 14.1039,
      "duration": 0.081,
      "velocity": 116,
      "chip": "ym2612"
    },
    {
      "channel": 3,
      "note": 49,
      "start": 14.1043,
      "duration": 0.081,
      "velocity": 116,
      "chip": "ym2612"
    },
    {
      "channel": 0,
      "note": 59,
      "start": 14.1849,
      "duration": 0.0023,
      "velocity": 105,
      "chip": "ym2612"
    },
    {
      "channel": 2,
      "note": 59,
      "start": 14.1852,
      "duration": 0.0022,
      "velocity": 116,
      "chip": "ym2612"
    },
    {
      "channel": 3,
      "note": 59,
      "start": 14.1855,
      "duration": 0.002,
      "velocity": 116,
      "chip": "ym2612"
    },
    {
      "channel": 0,
      "note": 49,
      "start": 14.1894,
      "duration": 0.0018,
      "velocity": 105,
      "chip": "ym2612"
    },
    {
      "channel": 2,
      "note": 49,
      "start": 14.1897,
      "duration": 0.0017,
      "velocity": 116,
      "chip": "ym2612"
    },
    {
      "channel": 3,
      "note": 49,
      "start": 14.19,
      "duration": 0.0016,
      "velocity": 116,
      "chip": "ym2612"
    },
    {
      "channel": 0,
      "note": 55,
      "start": 14.1913,
      "duration": 0.0032,
      "velocity": 105,
      "chip": "ym2612"
    },
    {
      "channel": 2,
      "note": 55,
      "start": 14.1915,
      "duration": 0.0032,
      "velocity": 116,
      "chip": "ym2612"
    },
    {
      "channel": 3,
      "note": 55,
      "start": 14.1917,
      "duration": 0.0031,
      "velocity": 116,
      "chip": "ym2612"
    },
    {
      "channel": 0,
      "note": 55,
      "start": 14.2758,
      "duration": 0.0027,
      "velocity": 105,
      "chip": "ym2612"
    },
    {
      "channel": 2,
      "note": 55,
      "start": 14.2761,
      "duration": 0.0027,
      "velocity": 116,
      "chip": "ym2612"
    },
    {
      "channel": 3,
      "note": 55,
      "start": 14.2764,
      "duration": 0.0027,
      "velocity": 116,
      "chip": "ym2612"
    },
    {
      "channel": 0,
      "note": 56,
      "start": 14.2787,
      "duration": 0.0041,
      "velocity": 105,
      "chip": "ym2612"
    },
    {
      "channel": 2,
      "note": 56,
      "start": 14.279,
      "duration": 0.004,
      "velocity": 116,
      "chip": "ym2612"
    },
    {
      "channel": 3,
      "note": 56,
      "start": 14.2793,
      "duration": 0.0039,
      "velocity": 116,
      "chip": "ym2612"
    },
    {
      "channel": 0,
      "note": 58,
      "start": 14.283,
      "duration": 0.0013,
      "velocity": 105,
      "chip": "ym2612"
    },
    {
      "channel": 2,
      "note": 58,
      "start": 14.2831,
      "duration": 0.0014,
      "velocity": 116,
      "chip": "ym2612"
    },
    {
      "channel": 3,
      "note": 58,
      "start": 14.2834,
      "duration": 0.0015,
      "velocity": 116,
      "chip": "ym2612"
    },
    {
      "channel": 0,
      "note": 59,
      "start": 14.2845,
      "duration": 0.0027,
      "velocity": 105,
      "chip": "ym2612"
    },
    {
      "channel": 2,
      "note": 59,
      "start": 14.2847,
      "duration": 0.0027,
      "velocity": 116,
      "chip": "ym2612"
    },
    {
      "channel": 3,
      "note": 59,
      "start": 14.2851,
      "duration": 0.0027,
      "velocity": 116,
      "chip": "ym2612"
    },
    {
      "channel": 0,
      "note": 61,
      "start": 14.2873,
      "duration": 0.0022,
      "velocity": 105,
      "chip": "ym2612"
    },
    {
      "channel": 2,
      "note": 61,
      "start": 14.2877,
      "duration": 0.0021,
      "velocity": 116,
      "chip": "ym2612"
    },
    {
      "channel": 3,
      "note": 61,
      "start": 14.288,
      "duration": 0.0022,
      "velocity": 116,
      "chip": "ym2612"
    },
    {
      "channel": 0,
      "note": 63,
      "start": 14.2897,
      "duration": 0.0022,
      "velocity": 105,
      "chip": "ym2612"
    },
    {
      "channel": 2,
      "note": 63,
      "start": 14.2901,
      "duration": 0.0022,
      "velocity": 116,
      "chip": "ym2612"
    },
    {
      "channel": 3,
      "note": 63,
      "start": 14.2904,
      "duration": 0.0022,
      "velocity": 116,
      "chip": "ym2612"
    },
    {
      "channel": 0,
      "note": 64,
      "start": 14.2921,
      "duration": 0.0017,
      "velocity": 105,
      "chip": "ym2612"
    },
    {
      "channel": 2,
      "note": 64,
      "start": 14.2925,
      "duration": 0.002,
      "velocity": 116,
      "chip": "ym2612"
    },
    {
      "channel": 3,
      "note": 64,
      "start": 14.2928,
      "duration": 0.0018,
      "velocity": 116,
      "chip": "ym2612"
    },
    {
      "channel": 0,
      "note": 49,
      "start": 14.294,
      "duration": 0.0881,
      "velocity": 105,
      "chip": "ym2612"
    },
    {
      "channel": 1,
      "note": 61,
      "start": 14.2944,
      "duration": 0.3612,
      "velocity": 105,
      "chip": "ym2612"
    },
    {
      "channel": 2,
      "note": 49,
      "start": 14.2946,
      "duration": 0.088,
      "velocity": 116,
      "chip": "ym2612"
    },
    {
      "channel": 3,
      "note": 49,
      "start": 14.2949,
      "duration": 0.088,
      "velocity": 116,
      "chip": "ym2612"
    },
    {
      "channel": 4,
      "note": 73,
      "start": 14.2953,
      "duration": 0.3613,
      "velocity": 105,
      "chip": "ym2612"
    },
    {
      "channel": 0,
      "note": 56,
      "start": 14.3823,
      "duration": 0.0038,
      "velocity": 105,
      "chip": "ym2612"
    },
    {
      "channel": 2,
      "note": 56,
      "start": 14.3828,
      "duration": 0.0037,
      "velocity": 116,
      "chip": "ym2612"
    },
    {
      "channel": 3,
      "note": 56,
      "start": 14.3831,
      "duration": 0.0037,
      "velocity": 116,
      "chip": "ym2612"
    },
    {
      "channel": 0,
      "note": 49,
      "start": 14.3863,
      "duration": 0.0814,
      "velocity": 105,
      "chip": "ym2612"
    },
    {
      "channel": 2,
      "note": 49,
      "start": 14.3866,
      "duration": 0.0815,
      "velocity": 116,
      "chip": "ym2612"
    },
    {
      "channel": 3,
      "note": 49,
      "start": 14.387,
      "duration": 0.0814,
      "velocity": 116,
      "chip": "ym2612"
    },
    {
      "channel": 0,
      "note": 59,
      "start": 14.4678,
      "duration": 0.0042,
      "velocity": 105,
      "chip": "ym2612"
    },
    {
      "channel": 2,
      "note": 59,
      "start": 14.4683,
      "duration": 0.004,
      "velocity": 116,
      "chip": "ym2612"
    },
    {
      "channel": 3,
      "note": 59,
      "start": 14.4686,
      "duration": 0.0039,
      "velocity": 116,
      "chip": "ym2612"
    },
    {
      "channel": 0,
      "note": 49,
      "start": 14.4756,
      "duration": 0.0039,
      "velocity": 105,
      "chip": "ym2612"
    },
    {
      "channel": 2,
      "note": 49,
      "start": 14.4761,
      "duration": 0.0037,
      "velocity": 116,
      "chip": "ym2612"
    },
    {
      "channel": 3,
      "note": 49,
      "start": 14.4765,
      "duration": 0.0037,
      "velocity": 116,
      "chip": "ym2612"
    },
    {
      "channel": 0,
      "note": 55,
      "start": 14.4797,
      "duration": 0.0045,
      "velocity": 105,
      "chip": "ym2612"
    },
    {
      "channel": 2,
      "note": 55,
      "start": 14.48,
      "duration": 0.0043,
      "velocity": 116,
      "chip": "ym2612"
    },
    {
      "channel": 3,
      "note": 55,
      "start": 14.4803,
      "duration": 0.0041,
      "velocity": 116,
      "chip": "ym2612"
    },
    {
      "channel": 0,
      "note": 49,
      "start": 14.5656,
      "duration": 0.0044,
      "velocity": 105,
      "chip": "ym2612"
    },
    {
      "channel": 2,
      "note": 49,
      "start": 14.5661,
      "duration": 0.0045,
      "velocity": 116,
      "chip": "ym2612"
    },
    {
      "channel": 3,
      "note": 49,
      "start": 14.5664,
      "duration": 0.0045,
      "velocity": 116,
      "chip": "ym2612"
    },
    {
      "channel": 0,
      "note": 56,
      "start": 14.5702,
      "duration": 0.0852,
      "velocity": 105,
      "chip": "ym2612"
    },
    {
      "channel": 2,
      "note": 56,
      "start": 14.5707,
      "duration": 0.0852,
      "velocity": 116,
      "chip": "ym2612"
    },
    {
      "channel": 3,
      "note": 56,
      "start": 14.571,
      "duration": 0.0852,
      "velocity": 116,
      "chip": "ym2612"
    },
    {
      "channel": 0,
      "note": 49,
      "start": 14.6556,
      "duration": 0.0087,
      "velocity": 105,
      "chip": "ym2612"
    },
    {
      "channel": 1,
      "note": 68,
      "start": 14.6559,
      "duration": 0.0944,
      "velocity": 105,
      "chip": "ym2612"
    },
    {
      "channel": 2,
      "note": 49,
      "start": 14.6562,
      "duration": 0.0085,
      "velocity": 116,
      "chip": "ym2612"
    },
    {
      "channel": 3,
      "note": 49,
      "start": 14.6565,
      "duration": 0.0086,
      "velocity": 116,
      "chip": "ym2612"
    },
    {
      "channel": 4,
      "note": 80,
      "start": 14.6568,
      "duration": 0.0944,
      "velocity": 105,
      "chip": "ym2612"
    },
    {
      "channel": 0,
      "note": 54,
      "start": 14.6645,
      "duration": 0.0039,
      "velocity": 105,
      "chip": "ym2612"
    },
    {
      "channel": 2,
      "note": 54,
      "start": 14.665,
      "duration": 0.0036,
      "velocity": 116,
      "chip": "ym2612"
    },
    {
      "channel": 3,
      "note": 54,
      "start": 14.6653,
      "duration": 0.0037,
      "velocity": 116,
      "chip": "ym2612"
    },
    {
      "channel": 0,
      "note": 56,
      "start": 14.6685,
      "duration": 0.0815,
      "velocity": 105,
      "chip": "ym2612"
    },
    {
      "channel": 2,
      "note": 56,
      "start": 14.6689,
      "duration": 0.0817,
      "velocity": 116,
      "chip": "ym2612"
    },
    {
      "channel": 3,
      "note": 56,
      "start": 14.6692,
      "duration": 0.0817,
      "velocity": 116,
      "chip": "ym2612"
    },
    {
      "channel": 0,
      "note": 49,
      "start": 14.7502,
      "duration": 0.086,
      "velocity": 105,
      "chip": "ym2612"
    },
    {
      "channel": 1,
      "note": 67,
      "start": 14.7505,
      "duration": 0.3608,
      "velocity": 105,
      "chip": "ym2612"
    },
    {
      "channel": 2,
      "note": 49,
      "start": 14.7509,
      "duration": 0.0859,
      "velocity": 116,
      "chip": "ym2612"
    },
    {
      "channel": 3,
      "note": 49,
      "start": 14.7511,
      "duration": 0.0859,
      "velocity": 116,
      "chip": "ym2612"
    },
    {
      "channel": 4,
      "note": 79,
      "start": 14.7514,
      "duration": 0.3608,
      "velocity": 105,
      "chip": "ym2612"
    },
    {
      "channel": 0,
      "note": 56,
      "start": 14.8365,
      "duration": 0.0038,
      "velocity": 105,
      "chip": "ym2612"
    },
    {
      "channel": 2,
      "note": 56,
      "start": 14.8369,
      "duration": 0.0038,
      "velocity": 116,
      "chip": "ym2612"
    },
    {
      "channel": 3,
      "note": 56,
      "start": 14.8372,
      "duration": 0.0038,
      "velocity": 116,
      "chip": "ym2612"
    },
    {
      "channel": 0,
      "note": 49,
      "start": 14.8405,
      "duration": 0.0816,
      "velocity": 105,
      "chip": "ym2612"
    },
    {
      "channel": 2,
      "note": 49,
      "start": 14.841,
      "duration": 0.0816,
      "velocity": 116,
      "chip": "ym2612"
    },
    {
      "channel": 3,
      "note": 49,
      "start": 14.8413,
      "duration": 0.0816,
      "velocity": 116,
      "chip": "ym2612"
    },
    {
      "channel": 0,
      "note": 59,
      "start": 14.9223,
      "duration": 0.0043,
      "velocity": 105,
      "chip": "ym2612"
    },
    {
      "channel": 2,
      "note": 59,
      "start": 14.9227,
      "duration": 0.0041,
      "velocity": 116,
      "chip": "ym2612"
    },
    {
      "channel": 3,
      "note": 59,
      "start": 14.9231,
      "duration": 0.004,
      "velocity": 116,
      "chip": "ym2612"
    },
    {
      "channel": 0,
      "note": 49,
      "start": 14.9308,
      "duration": 0.0042,
      "velocity": 105,
      "chip": "ym2612"
    },
    {
      "channel": 2,
      "note": 49,
      "start": 14.9313,
      "duration": 0.0041,
      "velocity": 116,
      "chip": "ym2612"
    },
    {
      "channel": 3,
      "note": 49,
      "start": 14.9317,
      "duration": 0.004,
      "velocity": 116,
      "chip": "ym2612"
    },
    {
      "channel": 0,
      "note": 55,
      "start": 14.9353,
      "duration": 0.0044,
      "velocity": 105,
      "chip": "ym2612"
    },
    {
      "channel": 2,
      "note": 55,
      "start": 14.9356,
      "duration": 0.0042,
      "velocity": 116,
      "chip": "ym2612"
    },
    {
      "channel": 3,
      "note": 55,
      "start": 14.9359,
      "duration": 0.004,
      "velocity": 116,
      "chip": "ym2612"
    },
    {
      "channel": 0,
      "note": 49,
      "start": 15.0213,
      "duration": 0.0042,
      "velocity": 105,
      "chip": "ym2612"
    },
    {
      "channel": 2,
      "note": 49,
      "start": 15.0217,
      "duration": 0.0043,
      "velocity": 116,
      "chip": "ym2612"
    },
    {
      "channel": 3,
      "note": 49,
      "start": 15.0221,
      "duration": 0.0043,
      "velocity": 116,
      "chip": "ym2612"
    },
    {
      "channel": 0,
      "note": 56,
      "start": 15.0257,
      "duration": 0.0854,
      "velocity": 105,
      "chip": "ym2612"
    },
    {
      "channel": 2,
      "note": 56,
      "start": 15.0263,
      "duration": 0.0853,
      "velocity": 116,
      "chip": "ym2612"
    },
    {
      "channel": 3,
      "note": 56,
      "start": 15.0266,
      "duration": 0.0854,
      "velocity": 116,
      "chip": "ym2612"
    },
    {
      "channel": 0,
      "note": 51,
      "start": 15.1113,
      "duration": 0.0086,
      "velocity": 105,
      "chip": "ym2612"
    },
    {
      "channel": 1,
      "note": 71,
      "start": 15.1116,
      "duration": 0.0941,
      "velocity": 105,
      "chip": "ym2612"
    },
    {
      "channel": 2,
      "note": 51,
      "start": 15.1119,
      "duration": 0.0085,
      "velocity": 116,
      "chip": "ym2612"
    },
    {
      "channel": 3,
      "note": 51,
      "start": 15.1122,
      "duration": 0.0086,
      "velocity": 116,
      "chip": "ym2612"
    },
    {
      "channel": 4,
      "note": 83,
      "start": 15.1125,
      "duration": 0.0942,
      "velocity": 105,
      "chip": "ym2612"
    },
    {
      "channel": 0,
      "note": 47,
      "start": 15.1201,
      "duration": 0.0854,
      "velocity": 105,
      "chip": "ym2612"
    },
    {
      "channel": 2,
      "note": 47,
      "start": 15.1207,
      "duration": 0.0854,
      "velocity": 116,
      "chip": "ym2612"
    },
    {
      "channel": 3,
      "note": 47,
      "start": 15.1209,
      "duration": 0.0854,
      "velocity": 116,
      "chip": "ym2612"
    },
    {
      "channel": 0,
      "note": 49,
      "start": 15.2057,
      "duration": 0.0863,
      "velocity": 105,
      "chip": "ym2612"
    },
    {
      "channel": 1,
      "note": 70,
      "start": 15.206,
      "duration": 0.4551,
      "velocity": 105,
      "chip": "ym2612"
    },
    {
      "channel": 2,
      "note": 49,
      "start": 15.2063,
      "duration": 0.0862,
      "velocity": 116,
      "chip": "ym2612"
    },
    {
      "channel": 3,
      "note": 49,
      "start": 15.2066,
      "duration": 0.0862,
      "velocity": 116,
      "chip": "ym2612"
    },
    {
      "channel": 4,
      "note": 82,
      "start": 15.2069,
      "duration": 0.4551,
      "velocity": 105,
      "chip": "ym2612"
    },
    {
      "channel": 0,
      "note": 56,
      "start": 15.2922,
      "duration": 0.0036,
      "velocity": 105,
      "chip": "ym2612"
    },
    {
      "channel": 2,
      "note": 56,
      "start": 15.2927,
      "duration": 0.0035,
      "velocity": 116,
      "chip": "ym2612"
    },
    {
      "channel": 3,
      "note": 56,
      "start": 15.293,
      "duration": 0.0036,
      "velocity": 116,
      "chip": "ym2612"
    },
    {
      "channel": 0,
      "note": 49,
      "start": 15.296,
      "duration": 0.0815,
      "velocity": 105,
      "chip": "ym2612"
    },
    {
      "channel": 2,
      "note": 49,
      "start": 15.2964,
      "duration": 0.0816,
      "velocity": 116,
      "chip": "ym2612"
    },
    {
      "channel": 3,
      "note": 49,
      "start": 15.2968,
      "duration": 0.0816,
      "velocity": 116,
      "chip": "ym2612"
    },
    {
      "channel": 0,
      "note": 59,
      "start": 15.3778,
      "duration": 0.0043,
      "velocity": 105,
      "chip": "ym2612"
    },
    {
      "channel": 2,
      "note": 59,
      "start": 15.3782,
      "duration": 0.0041,
      "velocity": 116,
      "chip": "ym2612"
    },
    {
      "channel": 3,
      "note": 59,
      "start": 15.3785,
      "duration": 0.0039,
      "velocity": 116,
      "chip": "ym2612"
    },
    {
      "channel": 0,
      "note": 49,
      "start": 15.386,
      "duration": 0.0038,
      "velocity": 105,
      "chip": "ym2612"
    },
    {
      "channel": 2,
      "note": 49,
      "start": 15.3866,
      "duration": 0.0037,
      "velocity": 116,
      "chip": "ym2612"
    },
    {
      "channel": 3,
      "note": 49,
      "start": 15.3869,
      "duration": 0.0037,
      "velocity": 116,
      "chip": "ym2612"
    },
    {
      "channel": 0,
      "note": 55,
      "start": 15.39,
      "duration": 0.0045,
      "velocity": 105,
      "chip": "ym2612"
    },
    {
      "channel": 2,
      "note": 55,
      "start": 15.3905,
      "duration": 0.0041,
      "velocity": 116,
      "chip": "ym2612"
    },
    {
      "channel": 3,
      "note": 55,
      "start": 15.3908,
      "duration": 0.004,
      "velocity": 116,
      "chip": "ym2612"
    },
    {
      "channel": 0,
      "note": 49,
      "start": 15.4761,
      "duration": 0.0042,
      "velocity": 105,
      "chip": "ym2612"
    },
    {
      "channel": 2,
      "note": 49,
      "start": 15.4765,
      "duration": 0.0042,
      "velocity": 116,
      "chip": "ym2612"
    },
    {
      "channel": 3,
      "note": 49,
      "start": 15.4768,
      "duration": 0.0043,
      "velocity": 116,
      "chip": "ym2612"
    },
    {
      "channel": 0,
      "note": 56,
      "start": 15.4804,
      "duration": 0.0854,
      "velocity": 105,
      "chip": "ym2612"
    },
    {
      "channel": 2,
      "note": 56,
      "start": 15.481,
      "duration": 0.0853,
      "velocity": 116,
      "chip": "ym2612"
    },
    {
      "channel": 3,
      "note": 56,
      "start": 15.4813,
      "duration": 0.0853,
      "velocity": 116,
      "chip": "ym2612"
    },
    {
      "channel": 0,
      "note": 49,
      "start": 15.5661,
      "duration": 0.0044,
      "velocity": 105,
      "chip": "ym2612"
    },
    {
      "channel": 2,
      "note": 49,
      "start": 15.5665,
      "duration": 0.0044,
      "velocity": 116,
      "chip": "ym2612"
    },
    {
      "channel": 3,
      "note": 49,
      "start": 15.5668,
      "duration": 0.0044,
      "velocity": 116,
      "chip": "ym2612"
    },
    {
      "channel": 0,
      "note": 56,
      "start": 15.5707,
      "duration": 0.0046,
      "velocity": 105,
      "chip": "ym2612"
    },
    {
      "channel": 2,
      "note": 56,
      "start": 15.5711,
      "duration": 0.0046,
      "velocity": 116,
      "chip": "ym2612"
    },
    {
      "channel": 3,
      "note": 56,
      "start": 15.5714,
      "duration": 0.0046,
      "velocity": 116,
      "chip": "ym2612"
    },
    {
      "channel": 0,
      "note": 58,
      "start": 15.5755,
      "duration": 0.0039,
      "velocity": 105,
      "chip": "ym2612"
    },
    {
      "channel": 2,
      "note": 58,
      "start": 15.5759,
      "duration": 0.0039,
      "velocity": 116,
      "chip": "ym2612"
    },
    {
      "channel": 3,
      "note": 58,
      "start": 15.5762,
      "duration": 0.0038,
      "velocity": 116,
      "chip": "ym2612"
    },
    {
      "channel": 0,
      "note": 59,
      "start": 15.5795,
      "duration": 0.0813,
      "velocity": 105,
      "chip": "ym2612"
    },
    {
      "channel": 2,
      "note": 59,
      "start": 15.5799,
      "duration": 0.0815,
      "velocity": 116,
      "chip": "ym2612"
    },
    {
      "channel": 3,
      "note": 59,
      "start": 15.5802,
      "duration": 0.0815,
      "velocity": 116,
      "chip": "ym2612"
    },
    {
      "channel": 0,
      "note": 49,
      "start": 15.661,
      "duration": 0.0862,
      "velocity": 105,
      "chip": "ym2612"
    },
    {
      "channel": 1,
      "note": 73,
      "start": 15.6613,
      "duration": 0.1883,
      "velocity": 105,
      "chip": "ym2612"
    },
    {
      "channel": 2,
      "note": 49,
      "start": 15.6616,
      "duration": 0.086,
      "velocity": 116,
      "chip": "ym2612"
    },
    {
      "channel": 3,
      "note": 49,
      "start": 15.6619,
      "duration": 0.0861,
      "velocity": 116,
      "chip": "ym2612"
    },
    {
      "channel": 4,
      "note": 85,
      "start": 15.6622,
      "duration": 0.1881,
      "velocity": 105,
      "chip": "ym2612"
    },
    {
      "channel": 0,
      "note": 56,
      "start": 15.7474,
      "duration": 0.0037,
      "velocity": 105,
      "chip": "ym2612"
    },
    {
      "channel": 2,
      "note": 56,
      "start": 15.7478,
      "duration": 0.0037,
      "velocity": 116,
      "chip": "ym2612"
    },
    {
      "channel": 3,
      "note": 56,
      "start": 15.7481,
      "duration": 0.0037,
      "velocity": 116,
      "chip": "ym2612"
    },
    {
      "channel": 0,
      "note": 49,
      "start": 15.7512,
      "duration": 0.0814,
      "velocity": 105,
      "chip": "ym2612"
    },
    {
      "channel": 2,
      "note": 49,
      "start": 15.7516,
      "duration": 0.0814,
      "velocity": 116,
      "chip": "ym2612"
    },
    {
      "channel": 3,
      "note": 49,
      "start": 15.752,
      "duration": 0.0814,
      "velocity": 116,
      "chip": "ym2612"
    },
    {
      "channel": 0,
      "note": 59,
      "start": 15.8328,
      "duration": 0.0043,
      "velocity": 105,
      "chip": "ym2612"
    },
    {
      "channel": 2,
      "note": 59,
      "start": 15.8332,
      "duration": 0.0041,
      "velocity": 116,
      "chip": "ym2612"
    },
    {
      "channel": 3,
      "note": 59,
      "start": 15.8336,
      "duration": 0.0039,
      "velocity": 116,
      "chip": "ym2612"
    },
    {
      "channel": 0,
      "note": 49,
      "start": 15.8411,
      "duration": 0.0038,
      "velocity": 105,
      "chip": "ym2612"
    },
    {
      "channel": 2,
      "note": 49,
      "start": 15.8416,
      "duration": 0.0037,
      "velocity": 116,
      "chip": "ym2612"
    },
    {
      "channel": 3,
      "note": 49,
      "start": 15.842,
      "duration": 0.0037,
      "velocity": 116,
      "chip": "ym2612"
    },
    {
      "channel": 0,
      "note": 55,
      "start": 15.8451,
      "duration": 0.0045,
      "velocity": 105,
      "chip": "ym2612"
    },
    {
      "channel": 2,
      "note": 55,
      "start": 15.8455,
      "duration": 0.0044,
      "velocity": 116,
      "chip": "ym2612"
    },
    {
      "channel": 3,
      "note": 55,
      "start": 15.8459,
      "duration": 0.0043,
      "velocity": 116,
      "chip": "ym2612"
    },
    {
      "channel": 1,
      "note": 67,
      "start": 15.8498,
      "duration": 0.1716,
      "velocity": 105,
      "chip": "ym2612"
    },
    {
      "channel": 4,
      "note": 79,
      "start": 15.8505,
      "duration": 0.1718,
      "velocity": 105,
      "chip": "ym2612"
    },
    {
      "channel": 0,
      "note": 55,
      "start": 15.9312,
      "duration": 0.0044,
      "velocity": 105,
      "chip": "ym2612"
    },
    {
      "channel": 2,
      "note": 55,
      "start": 15.9317,
      "duration": 0.0044,
      "velocity": 116,
      "chip": "ym2612"
    },
    {
      "channel": 3,
      "note": 55,
      "start": 15.932,
      "duration": 0.0045,
      "velocity": 116,
      "chip": "ym2612"
    },
    {
      "channel": 0,
      "note": 56,
      "start": 15.9358,
      "duration": 0.004,
      "velocity": 105,
      "chip": "ym2612"
    },
    {
      "channel": 2,
      "note": 56,
      "start": 15.9363,
      "duration": 0.0037,
      "velocity": 116,
      "chip": "ym2612"
    },
    {
      "channel": 3,
      "note": 56,
      "start": 15.9367,
      "duration": 0.0037,
      "velocity": 116,
      "chip": "ym2612"
    },
    {
      "channel": 0,
      "note": 58,
      "start": 15.9399,
      "duration": 0.0813,
      "velocity": 105,
      "chip": "ym2612"
    },
    {
      "channel": 2,
      "note": 58,
      "start": 15.9403,
      "duration": 0.0814,
      "velocity": 116,
      "chip": "ym2612"
    },
    {
      "channel": 3,
      "note": 58,
      "start": 15.9405,
      "duration": 0.0815,
      "velocity": 116,
      "chip": "ym2612"
    },
    {
      "channel": 0,
      "note": 59,
      "start": 16.0214,
      "duration": 0.0045,
      "velocity": 105,
      "chip": "ym2612"
    },
    {
      "channel": 1,
      "note": 68,
      "start": 16.0217,
      "duration": 0.0952,
      "velocity": 105,
      "chip": "ym2612"
    },
    {
      "channel": 2,
      "note": 59,
      "start": 16.022,
      "duration": 0.0043,
      "velocity": 116,
      "chip": "ym2612"
    },
    {
      "channel": 3,
      "note": 59,
      "start": 16.0222,
      "duration": 0.0043,
      "velocity": 116,
      "chip": "ym2612"
    },
    {
      "channel": 4,
      "note": 80,
      "start": 16.0226,
      "duration": 0.0954,
      "velocity": 105,
      "chip": "ym2612"
    },
    {
      "channel": 0,
      "note": 61,
      "start": 16.0261,
      "duration": 0.0045,
      "velocity": 105,
      "chip": "ym2612"
    },
    {
      "channel": 2,
      "note": 61,
      "start": 16.0264,
      "duration": 0.0045,
      "velocity": 116,
      "chip": "ym2612"
    },
    {
      "channel": 3,
      "note": 61,
      "start": 16.0268,
      "duration": 0.0045,
      "velocity": 116,
      "chip": "ym2612"
    },
    {
      "channel": 0,
      "note": 63,
      "start": 16.0308,
      "duration": 0.004,
      "velocity": 105,
      "chip": "ym2612"
    },
    {
      "channel": 2,
      "note": 63,
      "start": 16.0312,
      "duration": 0.004,
      "velocity": 116,
      "chip": "ym2612"
    },
    {
      "channel": 3,
      "note": 63,
      "start": 16.0315,
      "duration": 0.0039,
      "velocity": 116,
      "chip": "ym2612"
    },
    {
      "channel": 0,
      "note": 64,
      "start": 16.035,
      "duration": 0.0816,
      "velocity": 105,
      "chip": "ym2612"
    },
    {
      "channel": 2,
      "note": 64,
      "start": 16.0353,
      "duration": 0.082,
      "velocity": 116,
      "chip": "ym2612"
    },
    {
      "channel": 3,
      "note": 64,
      "start": 16.0356,
      "duration": 0.0821,
      "velocity": 116,
      "chip": "ym2612"
    },
    {
      "channel": 0,
      "note": 49,
      "start": 16.1167,
      "duration": 0.0892,
      "velocity": 105,
      "chip": "ym2612"
    },
    {
      "channel": 1,
      "note": 63,
      "start": 16.117,
      "duration": 0.4575,
      "velocity": 105,
      "chip": "ym2612"
    },
    {
      "channel": 2,
      "note": 49,
      "start": 16.1175,
      "duration": 0.0888,
      "velocity": 116,
      "chip": "ym2612"
    },
    {
      "channel": 3,
      "note": 49,
      "start": 16.1179,
      "duration": 0.0888,
      "velocity": 116,
      "chip": "ym2612"
    },
    {
      "channel": 4,
      "note": 75,
      "start": 16.1182,
      "duration": 0.4573,
      "velocity": 105,
      "chip": "ym2612"
    },
    {
      "channel": 0,
      "note": 56,
      "start": 16.2061,
      "duration": 0.0038,
      "velocity": 105,
      "chip": "ym2612"
    },
    {
      "channel": 2,
      "note": 56,
      "start": 16.2065,
      "duration": 0.0038,
      "velocity": 116,
      "chip": "ym2612"
    },
    {
      "channel": 3,
      "note": 56,
      "start": 16.2068,
      "duration": 0.0038,
      "velocity": 116,
      "chip": "ym2612"
    },
    {
      "channel": 0,
      "note": 49,
      "start": 16.2101,
      "duration": 0.0816,
      "velocity": 105,
      "chip": "ym2612"
    },
    {
      "channel": 2,
      "note": 49,
      "start": 16.2105,
      "duration": 0.0817,
      "velocity": 116,
      "chip": "ym2612"
    },
    {
      "channel": 3,
      "note": 49,
      "start": 16.2108,
      "duration": 0.0817,
      "velocity": 116,
      "chip": "ym2612"
    },
    {
      "channel": 0,
      "note": 59,
      "start": 16.2919,
      "duration": 0.0042,
      "velocity": 105,
      "chip": "ym2612"
    },
    {
      "channel": 2,
      "note": 59,
      "start": 16.2924,
      "duration": 0.004,
      "velocity": 116,
      "chip": "ym2612"
    },
    {
      "channel": 3,
      "note": 59,
      "start": 16.2927,
      "duration": 0.0039,
      "velocity": 116,
      "chip": "ym2612"
    },
    {
      "channel": 0,
      "note": 49,
      "start": 16.3002,
      "duration": 0.0037,
      "velocity": 105,
      "chip": "ym2612"
    },
    {
      "channel": 2,
      "note": 49,
      "start": 16.3007,
      "duration": 0.0036,
      "velocity": 116,
      "chip": "ym2612"
    },
    {
      "channel": 3,
      "note": 49,
      "start": 16.301,
      "duration": 0.0036,
      "velocity": 116,
      "chip": "ym2612"
    },
    {
      "channel": 0,
      "note": 55,
      "start": 16.304,
      "duration": 0.0045,
      "velocity": 105,
      "chip": "ym2612"
    },
    {
      "channel": 2,
      "note": 55,
      "start": 16.3045,
      "duration": 0.0042,
      "velocity": 116,
      "chip": "ym2612"
    },
    {
      "channel": 3,
      "note": 55,
      "start": 16.3048,
      "duration": 0.0041,
      "velocity": 116,
      "chip": "ym2612"
    },
    {
      "channel": 0,
      "note": 49,
      "start": 16.3901,
      "duration": 0.0042,
      "velocity": 105,
      "chip": "ym2612"
    },
    {
      "channel": 2,
      "note": 49,
      "start": 16.3905,
      "duration": 0.0042,
      "velocity": 116,
      "chip": "ym2612"
    },
    {
      "channel": 3,
      "note": 49,
      "start": 16.3909,
      "duration": 0.0042,
      "velocity": 116,
      "chip": "ym2612"
    },
    {
      "channel": 0,
      "note": 56,
      "start": 16.3945,
      "duration": 0.0852,
      "velocity": 105,
      "chip": "ym2612"
    },
    {
      "channel": 2,
      "note": 56,
      "start": 16.3949,
      "duration": 0.0852,
      "velocity": 116,
      "chip": "ym2612"
    },
    {
      "channel": 3,
      "note": 56,
      "start": 16.3952,
      "duration": 0.0852,
      "velocity": 116,
      "chip": "ym2612"
    },
    {
      "channel": 0,
      "note": 49,
      "start": 16.4799,
      "duration": 0.0086,
      "velocity": 105,
      "chip": "ym2612"
    },
    {
      "channel": 2,
      "note": 49,
      "start": 16.4803,
      "duration": 0.0086,
      "velocity": 116,
      "chip": "ym2612"
    },
    {
      "channel": 3,
      "note": 49,
      "start": 16.4806,
      "duration": 0.0087,
      "velocity": 116,
      "chip": "ym2612"
    },
    {
      "channel": 0,
      "note": 54,
      "start": 16.4887,
      "duration": 0.0039,
      "velocity": 105,
      "chip": "ym2612"
    },
    {
      "channel": 2,
      "note": 54,
      "start": 16.4892,
      "duration": 0.0037,
      "velocity": 116,
      "chip": "ym2612"
    },
    {
      "channel": 3,
      "note": 54,
      "start": 16.4895,
      "duration": 0.0037,
      "velocity": 116,
      "chip": "ym2612"
    },
    {
      "channel": 0,
      "note": 56,
      "start": 16.4928,
      "duration": 0.0815,
      "velocity": 105,
      "chip": "ym2612"
    },
    {
      "channel": 2,
      "note": 56,
      "start": 16.4931,
      "duration": 0.0818,
      "velocity": 116,
      "chip": "ym2612"
    },
    {
      "channel": 3,
      "note": 56,
      "start": 16.4934,
      "duration": 0.0817,
      "velocity": 116,
      "chip": "ym2612"
    },
    {
      "channel": 0,
      "note": 49,
      "start": 16.5745,
      "duration": 0.0861,
      "velocity": 105,
      "chip": "ym2612"
    },
    {
      "channel": 1,
      "note": 66,
      "start": 16.5748,
      "duration": 0.3599,
      "velocity": 105,
      "chip": "ym2612"
    },
    {
      "channel": 2,
      "note": 49,
      "start": 16.5751,
      "duration": 0.0859,
      "velocity": 116,
      "chip": "ym2612"
    },
    {
      "channel": 3,
      "note": 49,
      "start": 16.5754,
      "duration": 0.086,
      "velocity": 116,
      "chip": "ym2612"
    },
    {
      "channel": 4,
      "note": 78,
      "start": 16.5757,
      "duration": 0.36,
      "velocity": 105,
      "chip": "ym2612"
    },
    {
      "channel": 0,
      "note": 56,
      "start": 16.6608,
      "duration": 0.0036,
      "velocity": 105,
      "chip": "ym2612"
    },
    {
      "channel": 2,
      "note": 56,
      "start": 16.6613,
      "duration": 0.0035,
      "velocity": 116,
      "chip": "ym2612"
    },
    {
      "channel": 3,
      "note": 56,
      "start": 16.6616,
      "duration": 0.0036,
      "velocity": 116,
      "chip": "ym2612"
    },
    {
      "channel": 0,
      "note": 49,
      "start": 16.6646,
      "duration": 0.0815,
      "velocity": 105,
      "chip": "ym2612"
    },
    {
      "channel": 2,
      "note": 49,
      "start": 16.6651,
      "duration": 0.0816,
      "velocity": 116,
      "chip": "ym2612"
    },
    {
      "channel": 3,
      "note": 49,
      "start": 16.6654,
      "duration": 0.0816,
      "velocity": 116,
      "chip": "ym2612"
    },
    {
      "channel": 0,
      "note": 59,
      "start": 16.7464,
      "duration": 0.0043,
      "velocity": 105,
      "chip": "ym2612"
    },
    {
      "channel": 2,
      "note": 59,
      "start": 16.7468,
      "duration": 0.0041,
      "velocity": 116,
      "chip": "ym2612"
    },
    {
      "channel": 3,
      "note": 59,
      "start": 16.7471,
      "duration": 0.0039,
      "velocity": 116,
      "chip": "ym2612"
    },
    {
      "channel": 0,
      "note": 49,
      "start": 16.7546,
      "duration": 0.0038,
      "velocity": 105,
      "chip": "ym2612"
    },
    {
      "channel": 2,
      "note": 49,
      "start": 16.7552,
      "duration": 0.0037,
      "velocity": 116,
      "chip": "ym2612"
    },
    {
      "channel": 3,
      "note": 49,
      "start": 16.7555,
      "duration": 0.0037,
      "velocity": 116,
      "chip": "ym2612"
    },
    {
      "channel": 0,
      "note": 55,
      "start": 16.7586,
      "duration": 0.0045,
      "velocity": 105,
      "chip": "ym2612"
    },
    {
      "channel": 2,
      "note": 55,
      "start": 16.7591,
      "duration": 0.0041,
      "velocity": 116,
      "chip": "ym2612"
    },
    {
      "channel": 3,
      "note": 55,
      "start": 16.7594,
      "duration": 0.004,
      "velocity": 116,
      "chip": "ym2612"
    },
    {
      "channel": 0,
      "note": 49,
      "start": 16.8447,
      "duration": 0.0042,
      "velocity": 105,
      "chip": "ym2612"
    },
    {
      "channel": 2,
      "note": 49,
      "start": 16.8451,
      "duration": 0.0042,
      "velocity": 116,
      "chip": "ym2612"
    },
    {
      "channel": 3,
      "note": 49,
      "start": 16.8454,
      "duration": 0.0043,
      "velocity": 116,
      "chip": "ym2612"
    },
    {
      "channel": 0,
      "note": 56,
      "start": 16.849,
      "duration": 0.0854,
      "velocity": 105,
      "chip": "ym2612"
    },
    {
      "channel": 2,
      "note": 56,
      "start": 16.8496,
      "duration": 0.0854,
      "velocity": 116,
      "chip": "ym2612"
    },
    {
      "channel": 3,
      "note": 56,
      "start": 16.8499,
      "duration": 0.0854,
      "velocity": 116,
      "chip": "ym2612"
    },
    {
      "channel": 0,
      "note": 51,
      "start": 16.9347,
      "duration": 0.009,
      "velocity": 105,
      "chip": "ym2612"
    },
    {
      "channel": 1,
      "note": 60,
      "start": 16.935,
      "duration": 0.0942,
      "velocity": 105,
      "chip": "ym2612"
    },
    {
      "channel": 2,
      "note": 51,
      "start": 16.9353,
      "duration": 0.0088,
      "velocity": 116,
      "chip": "ym2612"
    },
    {
      "channel": 3,
      "note": 51,
      "start": 16.9356,
      "duration": 0.0089,
      "velocity": 116,
      "chip": "ym2612"
    },
    {
      "channel": 4,
      "note": 72,
      "start": 16.9359,
      "duration": 0.0943,
      "velocity": 105,
      "chip": "ym2612"
    },
    {
      "channel": 0,
      "note": 47,
      "start": 16.9439,
      "duration": 0.0851,
      "velocity": 105,
      "chip": "ym2612"
    },
    {
      "channel": 2,
      "note": 47,
      "start": 16.9444,
      "duration": 0.0851,
      "velocity": 116,
      "chip": "ym2612"
    },
    {
      "channel": 3,
      "note": 47,
      "start": 16.9447,
      "duration": 0.0851,
      "velocity": 116,
      "chip": "ym2612"
    },
    {
      "channel": 0,
      "note": 49,
      "start": 17.0291,
      "duration": 0.0862,
      "velocity": 105,
      "chip": "ym2612"
    },
    {
      "channel": 1,
      "note": 61,
      "start": 17.0295,
      "duration": 0.8334,
      "velocity": 105,
      "chip": "ym2612"
    },
    {
      "channel": 2,
      "note": 49,
      "start": 17.0298,
      "duration": 0.0861,
      "velocity": 116,
      "chip": "ym2612"
    },
    {
      "channel": 3,
      "note": 49,
      "start": 17.03,
      "duration": 0.0861,
      "velocity": 116,
      "chip": "ym2612"
    },
    {
      "channel": 4,
      "note": 73,
      "start": 17.0303,
      "duration": 0.8337,
      "velocity": 105,
      "chip": "ym2612"
    },
    {
      "channel": 0,
      "note": 56,
      "start": 17.1156,
      "duration": 0.0038,
      "velocity": 105,
      "chip": "ym2612"
    },
    {
      "channel": 2,
      "note": 56,
      "start": 17.116,
      "duration": 0.0038,
      "velocity": 116,
      "chip": "ym2612"
    },
    {
      "channel": 3,
      "note": 56,
      "start": 17.1163,
      "duration": 0.0038,
      "velocity": 116,
      "chip": "ym2612"
    },
    {
      "channel": 0,
      "note": 49,
      "start": 17.1196,
      "duration": 0.0816,
      "velocity": 105,
      "chip": "ym2612"
    },
    {
      "channel": 2,
      "note": 49,
      "start": 17.1201,
      "duration": 0.0816,
      "velocity": 116,
      "chip": "ym2612"
    },
    {
      "channel": 3,
      "note": 49,
      "start": 17.1204,
      "duration": 0.0816,
      "velocity": 116,
      "chip": "ym2612"
    },
    {
      "channel": 0,
      "note": 59,
      "start": 17.2014,
      "duration": 0.0043,
      "velocity": 105,
      "chip": "ym2612"
    },
    {
      "channel": 2,
      "note": 59,
      "start": 17.2019,
      "duration": 0.0041,
      "velocity": 116,
      "chip": "ym2612"
    },
    {
      "channel": 3,
      "note": 59,
      "start": 17.2022,
      "duration": 0.004,
      "velocity": 116,
      "chip": "ym2612"
    },
    {
      "channel": 0,
      "note": 49,
      "start": 17.21,
      "duration": 0.0042,
      "velocity": 105,
      "chip": "ym2612"
    },
    {
      "channel": 2,
      "note": 49,
      "start": 17.2105,
      "duration": 0.0041,
      "velocity": 116,
      "chip": "ym2612"
    },
    {
      "channel": 3,
      "note": 49,
      "start": 17.2108,
      "duration": 0.004,
      "velocity": 116,
      "chip": "ym2612"
    },
    {
      "channel": 0,
      "note": 55,
      "start": 17.2144,
      "duration": 0.0044,
      "velocity": 105,
      "chip": "ym2612"
    },
    {
      "channel": 2,
      "note": 55,
      "start": 17.2148,
      "duration": 0.0042,
      "velocity": 116,
      "chip": "ym2612"
    },
    {
      "channel": 3,
      "note": 55,
      "start": 17.2151,
      "duration": 0.004,
      "velocity": 116,
      "chip": "ym2612"
    },
    {
      "channel": 0,
      "note": 49,
      "start": 17.3004,
      "duration": 0.0042,
      "velocity": 105,
      "chip": "ym2612"
    },
    {
      "channel": 2,
      "note": 49,
      "start": 17.3009,
      "duration": 0.0043,
      "velocity": 116,
      "chip": "ym2612"
    },
    {
      "channel": 3,
      "note": 49,
      "start": 17.3012,
      "duration": 0.0043,
      "velocity": 116,
      "chip": "ym2612"
    },
    {
      "channel": 0,
      "note": 56,
      "start": 17.3048,
      "duration": 0.0854,
      "velocity": 105,
      "chip": "ym2612"
    },
    {
      "channel": 2,
      "note": 56,
      "start": 17.3054,
      "duration": 0.0852,
      "velocity": 116,
      "chip": "ym2612"
    },
    {
      "channel": 3,
      "note": 56,
      "start": 17.3057,
      "duration": 0.0852,
      "velocity": 116,
      "chip": "ym2612"
    },
    {
      "channel": 0,
      "note": 49,
      "start": 17.3904,
      "duration": 0.0044,
      "velocity": 105,
      "chip": "ym2612"
    },
    {
      "channel": 2,
      "note": 49,
      "start": 17.3908,
      "duration": 0.0044,
      "velocity": 116,
      "chip": "ym2612"
    },
    {
      "channel": 3,
      "note": 49,
      "start": 17.3911,
      "duration": 0.0045,
      "velocity": 116,
      "chip": "ym2612"
    },
    {
      "channel": 0,
      "note": 56,
      "start": 17.395,
      "duration": 0.0046,
      "velocity": 105,
      "chip": "ym2612"
    },
    {
      "channel": 2,
      "note": 56,
      "start": 17.3955,
      "duration": 0.0046,
      "velocity": 116,
      "chip": "ym2612"
    },
    {
      "channel": 3,
      "note": 56,
      "start": 17.3958,
      "duration": 0.0045,
      "velocity": 116,
      "chip": "ym2612"
    },
    {
      "channel": 0,
      "note": 58,
      "start": 17.3998,
      "duration": 0.0039,
      "velocity": 105,
      "chip": "ym2612"
    },
    {
      "channel": 2,
      "note": 58,
      "start": 17.4002,
      "duration": 0.0039,
      "velocity": 116,
      "chip": "ym2612"
    },
    {
      "channel": 3,
      "note": 58,
      "start": 17.4005,
      "duration": 0.0037,
      "velocity": 116,
      "chip": "ym2612"
    },
    {
      "channel": 0,
      "note": 59,
      "start": 17.4039,
      "duration": 0.0815,
      "velocity": 105,
      "chip": "ym2612"
    },
    {
      "channel": 2,
      "note": 59,
      "start": 17.4042,
      "duration": 0.0815,
      "velocity": 116,
      "chip": "ym2612"
    },
    {
      "channel": 3,
      "note": 59,
      "start": 17.4045,
      "duration": 0.0815,
      "velocity": 116,
      "chip": "ym2612"
    },
    {
      "channel": 0,
      "note": 49,
      "start": 17.4856,
      "duration": 0.086,
      "velocity": 105,
      "chip": "ym2612"
    },
    {
      "channel": 2,
      "note": 49,
      "start": 17.4859,
      "duration": 0.0861,
      "velocity": 116,
      "chip": "ym2612"
    },
    {
      "channel": 3,
      "note": 49,
      "start": 17.4863,
      "duration": 0.0861,
      "velocity": 116,
      "chip": "ym2612"
    },
    {
      "channel": 0,
      "note": 56,
      "start": 17.5718,
      "duration": 0.0037,
      "velocity": 105,
      "chip": "ym2612"
    },
    {
      "channel": 2,
      "note": 56,
      "start": 17.5722,
      "duration": 0.0037,
      "velocity": 116,
      "chip": "ym2612"
    },
    {
      "channel": 3,
      "note": 56,
      "start": 17.5726,
      "duration": 0.0037,
      "velocity": 116,
      "chip": "ym2612"
    },
    {
      "channel": 0,
      "note": 49,
      "start": 17.5757,
      "duration": 0.0815,
      "velocity": 105,
      "chip": "ym2612"
    },
    {
      "channel": 2,
      "note": 49,
      "start": 17.5762,
      "duration": 0.0814,
      "velocity": 116,
      "chip": "ym2612"
    },
    {
      "channel": 3,
      "note": 49,
      "start": 17.5765,
      "duration": 0.0814,
      "velocity": 116,
      "chip": "ym2612"
    },
    {
      "channel": 0,
      "note": 59,
      "start": 17.6574,
      "duration": 0.0044,
      "velocity": 105,
      "chip": "ym2612"
    },
    {
      "channel": 2,
      "note": 59,
      "start": 17.6578,
      "duration": 0.0041,
      "velocity": 116,
      "chip": "ym2612"
    },
    {
      "channel": 3,
      "note": 59,
      "start": 17.6581,
      "duration": 0.004,
      "velocity": 116,
      "chip": "ym2612"
    },
    {
      "channel": 0,
      "note": 49,
      "start": 17.6659,
      "duration": 0.004,
      "velocity": 105,
      "chip": "ym2612"
    },
    {
      "channel": 2,
      "note": 49,
      "start": 17.6663,
      "duration": 0.0039,
      "velocity": 116,
      "chip": "ym2612"
    },
    {
      "channel": 3,
      "note": 49,
      "start": 17.6666,
      "duration": 0.004,
      "velocity": 116,
      "chip": "ym2612"
    },
    {
      "channel": 0,
      "note": 55,
      "start": 17.6701,
      "duration": 0.0045,
      "velocity": 105,
      "chip": "ym2612"
    },
    {
      "channel": 2,
      "note": 55,
      "start": 17.6705,
      "duration": 0.0042,
      "velocity": 116,
      "chip": "ym2612"
    },
    {
      "channel": 3,
      "note": 55,
      "start": 17.6708,
      "duration": 0.0039,
      "velocity": 116,
      "chip": "ym2612"
    },
    {
      "channel": 0,
      "note": 55,
      "start": 17.7561,
      "duration": 0.0042,
      "velocity": 105,
      "chip": "ym2612"
    },
    {
      "channel": 2,
      "note": 55,
      "start": 17.7566,
      "duration": 0.0042,
      "velocity": 116,
      "chip": "ym2612"
    },
    {
      "channel": 3,
      "note": 55,
      "start": 17.7569,
      "duration": 0.0042,
      "velocity": 116,
      "chip": "ym2612"
    },
    {
      "channel": 0,
      "note": 56,
      "start": 17.7605,
      "duration": 0.004,
      "velocity": 105,
      "chip": "ym2612"
    },
    {
      "channel": 2,
      "note": 56,
      "start": 17.7609,
      "duration": 0.0039,
      "velocity": 116,
      "chip": "ym2612"
    },
    {
      "channel": 3,
      "note": 56,
      "start": 17.7612,
      "duration": 0.0039,
      "velocity": 116,
      "chip": "ym2612"
    },
    {
      "channel": 0,
      "note": 58,
      "start": 17.7646,
      "duration": 0.0813,
      "velocity": 105,
      "chip": "ym2612"
    },
    {
      "channel": 2,
      "note": 58,
      "start": 17.765,
      "duration": 0.0812,
      "velocity": 116,
      "chip": "ym2612"
    },
    {
      "channel": 3,
      "note": 58,
      "start": 17.7653,
      "duration": 0.0813,
      "velocity": 116,
      "chip": "ym2612"
    },
    {
      "channel": 0,
      "note": 59,
      "start": 17.8461,
      "duration": 0.0044,
      "velocity": 105,
      "chip": "ym2612"
    },
    {
      "channel": 2,
      "note": 59,
      "start": 17.8465,
      "duration": 0.0044,
      "velocity": 116,
      "chip": "ym2612"
    },
    {
      "channel": 3,
      "note": 59,
      "start": 17.8468,
      "duration": 0.0044,
      "velocity": 116,
      "chip": "ym2612"
    },
    {
      "channel": 0,
      "note": 61,
      "start": 17.8507,
      "duration": 0.0041,
      "velocity": 105,
      "chip": "ym2612"
    },
    {
      "channel": 2,
      "note": 61,
      "start": 17.8511,
      "duration": 0.0039,
      "velocity": 116,
      "chip": "ym2612"
    },
    {
      "channel": 3,
      "note": 61,
      "start": 17.8514,
      "duration": 0.0039,
      "velocity": 116,
      "chip": "ym2612"
    },
    {
      "channel": 0,
      "note": 63,
      "start": 17.8549,
      "duration": 0.0037,
      "velocity": 105,
      "chip": "ym2612"
    },
    {
      "channel": 2,
      "note": 63,
      "start": 17.8551,
      "duration": 0.0038,
      "velocity": 116,
      "chip": "ym2612"
    },
    {
      "channel": 3,
      "note": 63,
      "start": 17.8555,
      "duration": 0.0038,
      "velocity": 116,
      "chip": "ym2612"
    },
    {
      "channel": 0,
      "note": 64,
      "start": 17.8588,
      "duration": 0.0039,
      "velocity": 105,
      "chip": "ym2612"
    },
    {
      "channel": 2,
      "note": 64,
      "start": 17.8591,
      "duration": 0.0042,
      "velocity": 116,
      "chip": "ym2612"
    },
    {
      "channel": 3,
      "note": 64,
      "start": 17.8595,
      "duration": 0.0043,
      "velocity": 116,
      "chip": "ym2612"
    },
    {
      "channel": 0,
      "note": 49,
      "start": 17.8628,
      "duration": 0.0888,
      "velocity": 105,
      "chip": "ym2612"
    },
    {
      "channel": 1,
      "note": 61,
      "start": 17.8631,
      "duration": 0.3625,
      "velocity": 105,
      "chip": "ym2612"
    },
    {
      "channel": 2,
      "note": 49,
      "start": 17.8636,
      "duration": 0.0885,
      "velocity": 116,
      "chip": "ym2612"
    },
    {
      "channel": 3,
      "note": 49,
      "start": 17.8639,
      "duration": 0.0884,
      "velocity": 116,
      "chip": "ym2612"
    },
    {
      "channel": 4,
      "note": 73,
      "start": 17.8643,
      "duration": 0.3622,
      "velocity": 105,
      "chip": "ym2612"
    },
    {
      "channel": 0,
      "note": 56,
      "start": 17.9518,
      "duration": 0.0037,
      "velocity": 105,
      "chip": "ym2612"
    },
    {
      "channel": 2,
      "note": 56,
      "start": 17.9522,
      "duration": 0.0037,
      "velocity": 116,
      "chip": "ym2612"
    },
    {
      "channel": 3,
      "note": 56,
      "start": 17.9526,
      "duration": 0.0037,
      "velocity": 116,
      "chip": "ym2612"
    },
    {
      "channel": 0,
      "note": 49,
      "start": 17.9557,
      "duration": 0.0814,
      "velocity": 105,
      "chip": "ym2612"
    },
    {
      "channel": 2,
      "note": 49,
      "start": 17.9561,
      "duration": 0.0814,
      "velocity": 116,
      "chip": "ym2612"
    },
    {
      "channel": 3,
      "note": 49,
      "start": 17.9565,
      "duration": 0.0814,
      "velocity": 116,
      "chip": "ym2612"
    },
    {
      "channel": 0,
      "note": 59,
      "start": 18.0373,
      "duration": 0.0043,
      "velocity": 105,
      "chip": "ym2612"
    },
    {
      "channel": 2,
      "note": 59,
      "start": 18.0377,
      "duration": 0.0041,
      "velocity": 116,
      "chip": "ym2612"
    },
    {
      "channel": 3,
      "note": 59,
      "start": 18.038,
      "duration": 0.0039,
      "velocity": 116,
      "chip": "ym2612"
    },
    {
      "channel": 0,
      "note": 49,
      "start": 18.0455,
      "duration": 0.0038,
      "velocity": 105,
      "chip": "ym2612"
    },
    {
      "channel": 2,
      "note": 49,
      "start": 18.0461,
      "duration": 0.0037,
      "velocity": 116,
      "chip": "ym2612"
    },
    {
      "channel": 3,
      "note": 49,
      "start": 18.0464,
      "duration": 0.0037,
      "velocity": 116,
      "chip": "ym2612"
    },
    {
      "channel": 0,
      "note": 55,
      "start": 18.0495,
      "duration": 0.0045,
      "velocity": 105,
      "chip": "ym2612"
    },
    {
      "channel": 2,
      "note": 55,
      "start": 18.05,
      "duration": 0.0041,
      "velocity": 116,
      "chip": "ym2612"
    },
    {
      "channel": 3,
      "note": 55,
      "start": 18.0503,
      "duration": 0.004,
      "velocity": 116,
      "chip": "ym2612"
    },
    {
      "channel": 0,
      "note": 49,
      "start": 18.1356,
      "duration": 0.0042,
      "velocity": 105,
      "chip": "ym2612"
    },
    {
      "channel": 2,
      "note": 49,
      "start": 18.136,
      "duration": 0.0042,
      "velocity": 116,
      "chip": "ym2612"
    },
    {
      "channel": 3,
      "note": 49,
      "start": 18.1363,
      "duration": 0.0043,
      "velocity": 116,
      "chip": "ym2612"
    },
    {
      "channel": 0,
      "note": 56,
      "start": 18.1399,
      "duration": 0.0854,
      "velocity": 105,
      "chip": "ym2612"
    },
    {
      "channel": 2,
      "note": 56,
      "start": 18.1405,
      "duration": 0.0854,
      "velocity": 116,
      "chip": "ym2612"
    },
    {
      "channel": 3,
      "note": 56,
      "start": 18.1408,
      "duration": 0.0854,
      "velocity": 116,
      "chip": "ym2612"
    },
    {
      "channel": 0,
      "note": 49,
      "start": 18.2256,
      "duration": 0.009,
      "velocity": 105,
      "chip": "ym2612"
    },
    {
      "channel": 1,
      "note": 68,
      "start": 18.2259,
      "duration": 0.0943,
      "velocity": 105,
      "chip": "ym2612"
    },
    {
      "channel": 2,
      "note": 49,
      "start": 18.2262,
      "duration": 0.0088,
      "velocity": 116,
      "chip": "ym2612"
    },
    {
      "channel": 3,
      "note": 49,
      "start": 18.2264,
      "duration": 0.0089,
      "velocity": 116,
      "chip": "ym2612"
    },
    {
      "channel": 4,
      "note": 80,
      "start": 18.2268,
      "duration": 0.0943,
      "velocity": 105,
      "chip": "ym2612"
    },
    {
      "channel": 0,
      "note": 54,
      "start": 18.2347,
      "duration": 0.0037,
      "velocity": 105,
      "chip": "ym2612"
    },
    {
      "channel": 2,
      "note": 54,
      "start": 18.2352,
      "duration": 0.0035,
      "velocity": 116,
      "chip": "ym2612"
    },
    {
      "channel": 3,
      "note": 54,
      "start": 18.2356,
      "duration": 0.0035,
      "velocity": 116,
      "chip": "ym2612"
    },
    {
      "channel": 0,
      "note": 56,
      "start": 18.2386,
      "duration": 0.0813,
      "velocity": 105,
      "chip": "ym2612"
    },
    {
      "channel": 2,
      "note": 56,
      "start": 18.2389,
      "duration": 0.0815,
      "velocity": 116,
      "chip": "ym2612"
    },
    {
      "channel": 3,
      "note": 56,
      "start": 18.2393,
      "duration": 0.0815,
      "velocity": 116,
      "chip": "ym2612"
    },
    {
      "channel": 0,
      "note": 49,
      "start": 18.3201,
      "duration": 0.086,
      "velocity": 105,
      "chip": "ym2612"
    },
    {
      "channel": 1,
      "note": 67,
      "start": 18.3204,
      "duration": 0.3598,
      "velocity": 105,
      "chip": "ym2612"
    },
    {
      "channel": 2,
      "note": 49,
      "start": 18.3207,
      "duration": 0.0859,
      "velocity": 116,
      "chip": "ym2612"
    },
    {
      "channel": 3,
      "note": 49,
      "start": 18.321,
      "duration": 0.0859,
      "velocity": 116,
      "chip": "ym2612"
    },
    {
      "channel": 4,
      "note": 79,
      "start": 18.3213,
      "duration": 0.3598,
      "velocity": 105,
      "chip": "ym2612"
    },
    {
      "channel": 0,
      "note": 56,
      "start": 18.4063,
      "duration": 0.0038,
      "velocity": 105,
      "chip": "ym2612"
    },
    {
      "channel": 2,
      "note": 56,
      "start": 18.4068,
      "duration": 0.0038,
      "velocity": 116,
      "chip": "ym2612"
    },
    {
      "channel": 3,
      "note": 56,
      "start": 18.4071,
      "duration": 0.0038,
      "velocity": 116,
      "chip": "ym2612"
    },
    {
      "channel": 0,
      "note": 49,
      "start": 18.4103,
      "duration": 0.0816,
      "velocity": 105,
      "chip": "ym2612"
    },
    {
      "channel": 2,
      "note": 49,
      "start": 18.4108,
      "duration": 0.0817,
      "velocity": 116,
      "chip": "ym2612"
    },
    {
      "channel": 3,
      "note": 49,
      "start": 18.4111,
      "duration": 0.0817,
      "velocity": 116,
      "chip": "ym2612"
    },
    {
      "channel": 0,
      "note": 59,
      "start": 18.4922,
      "duration": 0.0042,
      "velocity": 105,
      "chip": "ym2612"
    },
    {
      "channel": 2,
      "note": 59,
      "start": 18.4926,
      "duration": 0.004,
      "velocity": 116,
      "chip": "ym2612"
    },
    {
      "channel": 3,
      "note": 59,
      "start": 18.4929,
      "duration": 0.0039,
      "velocity": 116,
      "chip": "ym2612"
    },
    {
      "channel": 0,
      "note": 49,
      "start": 18.5005,
      "duration": 0.0037,
      "velocity": 105,
      "chip": "ym2612"
    },
    {
      "channel": 2,
      "note": 49,
      "start": 18.501,
      "duration": 0.0036,
      "velocity": 116,
      "chip": "ym2612"
    },
    {
      "channel": 3,
      "note": 49,
      "start": 18.5013,
      "duration": 0.0036,
      "velocity": 116,
      "chip": "ym2612"
    },
    {
      "channel": 0,
      "note": 55,
      "start": 18.5043,
      "duration": 0.0045,
      "velocity": 105,
      "chip": "ym2612"
    },
    {
      "channel": 2,
      "note": 55,
      "start": 18.5047,
      "duration": 0.0042,
      "velocity": 116,
      "chip": "ym2612"
    },
    {
      "channel": 3,
      "note": 55,
      "start": 18.505,
      "duration": 0.0041,
      "velocity": 116,
      "chip": "ym2612"
    },
    {
      "channel": 0,
      "note": 49,
      "start": 18.5904,
      "duration": 0.0042,
      "velocity": 105,
      "chip": "ym2612"
    },
    {
      "channel": 2,
      "note": 49,
      "start": 18.5908,
      "duration": 0.0042,
      "velocity": 116,
      "chip": "ym2612"
    },
    {
      "channel": 3,
      "note": 49,
      "start": 18.5911,
      "duration": 0.0042,
      "velocity": 116,
      "chip": "ym2612"
    },
    {
      "channel": 0,
      "note": 56,
      "start": 18.5947,
      "duration": 0.0852,
      "velocity": 105,
      "chip": "ym2612"
    },
    {
      "channel": 2,
      "note": 56,
      "start": 18.5952,
      "duration": 0.0853,
      "velocity": 116,
      "chip": "ym2612"
    },
    {
      "channel": 3,
      "note": 56,
      "start": 18.5955,
      "duration": 0.0853,
      "velocity": 116,
      "chip": "ym2612"
    },
    {
      "channel": 0,
      "note": 51,
      "start": 18.6801,
      "duration": 0.0086,
      "velocity": 105,
      "chip": "ym2612"
    },
    {
      "channel": 1,
      "note": 71,
      "start": 18.6804,
      "duration": 0.0941,
      "velocity": 105,
      "chip": "ym2612"
    },
    {
      "channel": 2,
      "note": 51,
      "start": 18.6807,
      "duration": 0.0085,
      "velocity": 116,
      "chip": "ym2612"
    },
    {
      "channel": 3,
      "note": 51,
      "start": 18.681,
      "duration": 0.0086,
      "velocity": 116,
      "chip": "ym2612"
    },
    {
      "channel": 4,
      "note": 83,
      "start": 18.6813,
      "duration": 0.0942,
      "velocity": 105,
      "chip": "ym2612"
    },
    {
      "channel": 0,
      "note": 47,
      "start": 18.6889,
      "duration": 0.0854,
      "velocity": 105,
      "chip": "ym2612"
    },
    {
      "channel": 2,
      "note": 47,
      "start": 18.6895,
      "duration": 0.0854,
      "velocity": 116,
      "chip": "ym2612"
    },
    {
      "channel": 3,
      "note": 47,
      "start": 18.6898,
      "duration": 0.0854,
      "velocity": 116,
      "chip": "ym2612"
    },
    {
      "channel": 0,
      "note": 49,
      "start": 18.7745,
      "duration": 0.0863,
      "velocity": 105,
      "chip": "ym2612"
    },
    {
      "channel": 1,
      "note": 70,
      "start": 18.7748,
      "duration": 0.4551,
      "velocity": 105,
      "chip": "ym2612"
    },
    {
      "channel": 2,
      "note": 49,
      "start": 18.7751,
      "duration": 0.0862,
      "velocity": 116,
      "chip": "ym2612"
    },
    {
      "channel": 3,
      "note": 49,
      "start": 18.7754,
      "duration": 0.0862,
      "velocity": 116,
      "chip": "ym2612"
    },
    {
      "channel": 4,
      "note": 82,
      "start": 18.7757,
      "duration": 0.4551,
      "velocity": 105,
      "chip": "ym2612"
    },
    {
      "channel": 0,
      "note": 56,
      "start": 18.8611,
      "duration": 0.0036,
      "velocity": 105,
      "chip": "ym2612"
    },
    {
      "channel": 2,
      "note": 56,
      "start": 18.8615,
      "duration": 0.0035,
      "velocity": 116,
      "chip": "ym2612"
    },
    {
      "channel": 3,
      "note": 56,
      "start": 18.8618,
      "duration": 0.0036,
      "velocity": 116,
      "chip": "ym2612"
    },
    {
      "channel": 0,
      "note": 49,
      "start": 18.8649,
      "duration": 0.0815,
      "velocity": 105,
      "chip": "ym2612"
    },
    {
      "channel": 2,
      "note": 49,
      "start": 18.8653,
      "duration": 0.0816,
      "velocity": 116,
      "chip": "ym2612"
    },
    {
      "channel": 3,
      "note": 49,
      "start": 18.8656,
      "duration": 0.0816,
      "velocity": 116,
      "chip": "ym2612"
    },
    {
      "channel": 0,
      "note": 59,
      "start": 18.9466,
      "duration": 0.0043,
      "velocity": 105,
      "chip": "ym2612"
    },
    {
      "channel": 2,
      "note": 59,
      "start": 18.947,
      "duration": 0.0041,
      "velocity": 116,
      "chip": "ym2612"
    },
    {
      "channel": 3,
      "note": 59,
      "start": 18.9473,
      "duration": 0.0039,
      "velocity": 116,
      "chip": "ym2612"
    },
    {
      "channel": 0,
      "note": 49,
      "start": 18.9549,
      "duration": 0.0038,
      "velocity": 105,
      "chip": "ym2612"
    },
    {
      "channel": 2,
      "note": 49,
      "start": 18.9554,
      "duration": 0.0037,
      "velocity": 116,
      "chip": "ym2612"
    },
    {
      "channel": 3,
      "note": 49,
      "start": 18.9557,
      "duration": 0.0037,
      "velocity": 116,
      "chip": "ym2612"
    },
    {
      "channel": 0,
      "note": 55,
      "start": 18.9588,
      "duration": 0.0045,
      "velocity": 105,
      "chip": "ym2612"
    },
    {
      "channel": 2,
      "note": 55,
      "start": 18.9593,
      "duration": 0.0041,
      "velocity": 116,
      "chip": "ym2612"
    },
    {
      "channel": 3,
      "note": 55,
      "start": 18.9596,
      "duration": 0.004,
      "velocity": 116,
      "chip": "ym2612"
    },
    {
      "channel": 0,
      "note": 49,
      "start": 19.0449,
      "duration": 0.0042,
      "velocity": 105,
      "chip": "ym2612"
    },
    {
      "channel": 2,
      "note": 49,
      "start": 19.0454,
      "duration": 0.0042,
      "velocity": 116,
      "chip": "ym2612"
    },
    {
      "channel": 3,
      "note": 49,
      "start": 19.0457,
      "duration": 0.0043,
      "velocity": 116,
      "chip": "ym2612"
    },
    {
      "channel": 0,
      "note": 56,
      "start": 19.0493,
      "duration": 0.0854,
      "velocity": 105,
      "chip": "ym2612"
    },
    {
      "channel": 2,
      "note": 56,
      "start": 19.0498,
      "duration": 0.0853,
      "velocity": 116,
      "chip": "ym2612"
    },
    {
      "channel": 3,
      "note": 56,
      "start": 19.0501,
      "duration": 0.0853,
      "velocity": 116,
      "chip": "ym2612"
    },
    {
      "channel": 0,
      "note": 49,
      "start": 19.1349,
      "duration": 0.0044,
      "velocity": 105,
      "chip": "ym2612"
    },
    {
      "channel": 2,
      "note": 49,
      "start": 19.1353,
      "duration": 0.0044,
      "velocity": 116,
      "chip": "ym2612"
    },
    {
      "channel": 3,
      "note": 49,
      "start": 19.1356,
      "duration": 0.0044,
      "velocity": 116,
      "chip": "ym2612"
    },
    {
      "channel": 0,
      "note": 56,
      "start": 19.1395,
      "duration": 0.0046,
      "velocity": 105,
      "chip": "ym2612"
    },
    {
      "channel": 2,
      "note": 56,
      "start": 19.1399,
      "duration": 0.0046,
      "velocity": 116,
      "chip": "ym2612"
    },
    {
      "channel": 3,
      "note": 56,
      "start": 19.1402,
      "duration": 0.0046,
      "velocity": 116,
      "chip": "ym2612"
    },
    {
      "channel": 0,
      "note": 58,
      "start": 19.1443,
      "duration": 0.0039,
      "velocity": 105,
      "chip": "ym2612"
    },
    {
      "channel": 2,
      "note": 58,
      "start": 19.1447,
      "duration": 0.0039,
      "velocity": 116,
      "chip": "ym2612"
    },
    {
      "channel": 3,
      "note": 58,
      "start": 19.145,
      "duration": 0.0038,
      "velocity": 116,
      "chip": "ym2612"
    },
    {
      "channel": 0,
      "note": 59,
      "start": 19.1483,
      "duration": 0.0813,
      "velocity": 105,
      "chip": "ym2612"
    },
    {
      "channel": 2,
      "note": 59,
      "start": 19.1488,
      "duration": 0.0815,
      "velocity": 116,
      "chip": "ym2612"
    },
    {
      "channel": 3,
      "note": 59,
      "start": 19.149,
      "duration": 0.0815,
      "velocity": 116,
      "chip": "ym2612"
    },
    {
      "channel": 0,
      "note": 49,
      "start": 19.2298,
      "duration": 0.0862,
      "velocity": 105,
      "chip": "ym2612"
    },
    {
      "channel": 1,
      "note": 73,
      "start": 19.2302,
      "duration": 0.1883,
      "velocity": 105,
      "chip": "ym2612"
    },
    {
      "channel": 2,
      "note": 49,
      "start": 19.2305,
      "duration": 0.086,
      "velocity": 116,
      "chip": "ym2612"
    },
    {
      "channel": 3,
      "note": 49,
      "start": 19.2307,
      "duration": 0.0861,
      "velocity": 116,
      "chip": "ym2612"
    },
    {
      "channel": 4,
      "note": 85,
      "start": 19.231,
      "duration": 0.1881,
      "velocity": 105,
      "chip": "ym2612"
    },
    {
      "channel": 0,
      "note": 56,
      "start": 19.3162,
      "duration": 0.0037,
      "velocity": 105,
      "chip": "ym2612"
    },
    {
      "channel": 2,
      "note": 56,
      "start": 19.3166,
      "duration": 0.0037,
      "velocity": 116,
      "chip": "ym2612"
    },
    {
      "channel": 3,
      "note": 56,
      "start": 19.317,
      "duration": 0.0037,
      "velocity": 116,
      "chip": "ym2612"
    },
    {
      "channel": 0,
      "note": 49,
      "start": 19.3201,
      "duration": 0.0814,
      "velocity": 105,
      "chip": "ym2612"
    },
    {
      "channel": 2,
      "note": 49,
      "start": 19.3205,
      "duration": 0.0814,
      "velocity": 116,
      "chip": "ym2612"
    },
    {
      "channel": 3,
      "note": 49,
      "start": 19.3209,
      "duration": 0.0814,
      "velocity": 116,
      "chip": "ym2612"
    },
    {
      "channel": 0,
      "note": 59,
      "start": 19.4017,
      "duration": 0.0043,
      "velocity": 105,
      "chip": "ym2612"
    },
    {
      "channel": 2,
      "note": 59,
      "start": 19.4021,
      "duration": 0.0041,
      "velocity": 116,
      "chip": "ym2612"
    },
    {
      "channel": 3,
      "note": 59,
      "start": 19.4024,
      "duration": 0.0039,
      "velocity": 116,
      "chip": "ym2612"
    },
    {
      "channel": 0,
      "note": 49,
      "start": 19.4099,
      "duration": 0.0038,
      "velocity": 105,
      "chip": "ym2612"
    },
    {
      "channel": 2,
      "note": 49,
      "start": 19.4105,
      "duration": 0.0037,
      "velocity": 116,
      "chip": "ym2612"
    },
    {
      "channel": 3,
      "note": 49,
      "start": 19.4108,
      "duration": 0.0037,
      "velocity": 116,
      "chip": "ym2612"
    },
    {
      "channel": 0,
      "note": 55,
      "start": 19.4139,
      "duration": 0.0045,
      "velocity": 105,
      "chip": "ym2612"
    },
    {
      "channel": 2,
      "note": 55,
      "start": 19.4144,
      "duration": 0.0044,
      "velocity": 116,
      "chip": "ym2612"
    },
    {
      "channel": 3,
      "note": 55,
      "start": 19.4147,
      "duration": 0.0043,
      "velocity": 116,
      "chip": "ym2612"
    },
    {
      "channel": 1,
      "note": 67,
      "start": 19.4187,
      "duration": 0.1716,
      "velocity": 105,
      "chip": "ym2612"
    },
    {
      "channel": 4,
      "note": 79,
      "start": 19.4194,
      "duration": 0.1718,
      "velocity": 105,
      "chip": "ym2612"
    },
    {
      "channel": 0,
      "note": 55,
      "start": 19.5001,
      "duration": 0.0044,
      "velocity": 105,
      "chip": "ym2612"
    },
    {
      "channel": 2,
      "note": 55,
      "start": 19.5005,
      "duration": 0.0044,
      "velocity": 116,
      "chip": "ym2612"
    },
    {
      "channel": 3,
      "note": 55,
      "start": 19.5008,
      "duration": 0.0045,
      "velocity": 116,
      "chip": "ym2612"
    },
    {
      "channel": 0,
      "note": 56,
      "start": 19.5046,
      "duration": 0.004,
      "velocity": 105,
      "chip": "ym2612"
    },
    {
      "channel": 2,
      "note": 56,
      "start": 19.5052,
      "duration": 0.0037,
      "velocity": 116,
      "chip": "ym2612"
    },
    {
      "channel": 3,
      "note": 56,
      "start": 19.5055,
      "duration": 0.0037,
      "velocity": 116,
      "chip": "ym2612"
    },
    {
      "channel": 0,
      "note": 58,
      "start": 19.5087,
      "duration": 0.0813,
      "velocity": 105,
      "chip": "ym2612"
    },
    {
      "channel": 2,
      "note": 58,
      "start": 19.5091,
      "duration": 0.0814,
      "velocity": 116,
      "chip": "ym2612"
    },
    {
      "channel": 3,
      "note": 58,
      "start": 19.5094,
      "duration": 0.0815,
      "velocity": 116,
      "chip": "ym2612"
    },
    {
      "channel": 0,
      "note": 59,
      "start": 19.5902,
      "duration": 0.0045,
      "velocity": 105,
      "chip": "ym2612"
    },
    {
      "channel": 1,
      "note": 68,
      "start": 19.5905,
      "duration": 0.0952,
      "velocity": 105,
      "chip": "ym2612"
    },
    {
      "channel": 2,
      "note": 59,
      "start": 19.5908,
      "duration": 0.0043,
      "velocity": 116,
      "chip": "ym2612"
    },
    {
      "channel": 3,
      "note": 59,
      "start": 19.5911,
      "duration": 0.0043,
      "velocity": 116,
      "chip": "ym2612"
    },
    {
      "channel": 4,
      "note": 80,
      "start": 19.5914,
      "duration": 0.0954,
      "velocity": 105,
      "chip": "ym2612"
    },
    {
      "channel": 0,
      "note": 61,
      "start": 19.5949,
      "duration": 0.0045,
      "velocity": 105,
      "chip": "ym2612"
    },
    {
      "channel": 2,
      "note": 61,
      "start": 19.5953,
      "duration": 0.0045,
      "velocity": 116,
      "chip": "ym2612"
    },
    {
      "channel": 3,
      "note": 61,
      "start": 19.5956,
      "duration": 0.0045,
      "velocity": 116,
      "chip": "ym2612"
    },
    {
      "channel": 0,
      "note": 63,
      "start": 19.5996,
      "duration": 0.004,
      "velocity": 105,
      "chip": "ym2612"
    },
    {
      "channel": 2,
      "note": 63,
      "start": 19.6,
      "duration": 0.004,
      "velocity": 116,
      "chip": "ym2612"
    },
    {
      "channel": 3,
      "note": 63,
      "start": 19.6003,
      "duration": 0.0039,
      "velocity": 116,
      "chip": "ym2612"
    },
    {
      "channel": 0,
      "note": 64,
      "start": 19.6038,
      "duration": 0.0816,
      "velocity": 105,
      "chip": "ym2612"
    },
    {
      "channel": 2,
      "note": 64,
      "start": 19.6041,
      "duration": 0.082,
      "velocity": 116,
      "chip": "ym2612"
    },
    {
      "channel": 3,
      "note": 64,
      "start": 19.6044,
      "duration": 0.0821,
      "velocity": 116,
      "chip": "ym2612"
    },
    {
      "channel": 0,
      "note": 49,
      "start": 19.6856,
      "duration": 0.0892,
      "velocity": 105,
      "chip": "ym2612"
    },
    {
      "channel": 1,
      "note": 63,
      "start": 19.6859,
      "duration": 0.4575,
      "velocity": 105,
      "chip": "ym2612"
    },
    {
      "channel": 2,
      "note": 49,
      "start": 19.6863,
      "duration": 0.0888,
      "velocity": 116,
      "chip": "ym2612"
    },
    {
      "channel": 3,
      "note": 49,
      "start": 19.6867,
      "duration": 0.0888,
      "velocity": 116,
      "chip": "ym2612"
    },
    {
      "channel": 4,
      "note": 75,
      "start": 19.687,
      "duration": 0.4573,
      "velocity": 105,
      "chip": "ym2612"
    },
    {
      "channel": 0,
      "note": 56,
      "start": 19.7749,
      "duration": 0.0038,
      "velocity": 105,
      "chip": "ym2612"
    },
    {
      "channel": 2,
      "note": 56,
      "start": 19.7754,
      "duration": 0.0038,
      "velocity": 116,
      "chip": "ym2612"
    },
    {
      "channel": 3,
      "note": 56,
      "start": 19.7757,
      "duration": 0.0038,
      "velocity": 116,
      "chip": "ym2612"
    },
    {
      "channel": 0,
      "note": 49,
      "start": 19.7789,
      "duration": 0.0816,
      "velocity": 105,
      "chip": "ym2612"
    },
    {
      "channel": 2,
      "note": 49,
      "start": 19.7794,
      "duration": 0.0817,
      "velocity": 116,
      "chip": "ym2612"
    },
    {
      "channel": 3,
      "note": 49,
      "start": 19.7797,
      "duration": 0.0817,
      "velocity": 116,
      "chip": "ym2612"
    },
    {
      "channel": 0,
      "note": 59,
      "start": 19.8608,
      "duration": 0.0042,
      "velocity": 105,
      "chip": "ym2612"
    },
    {
      "channel": 2,
      "note": 59,
      "start": 19.8612,
      "duration": 0.004,
      "velocity": 116,
      "chip": "ym2612"
    },
    {
      "channel": 3,
      "note": 59,
      "start": 19.8615,
      "duration": 0.0039,
      "velocity": 116,
      "chip": "ym2612"
    },
    {
      "channel": 0,
      "note": 49,
      "start": 19.8691,
      "duration": 0.0037,
      "velocity": 105,
      "chip": "ym2612"
    },
    {
      "channel": 2,
      "note": 49,
      "start": 19.8696,
      "duration": 0.0036,
      "velocity": 116,
      "chip": "ym2612"
    },
    {
      "channel": 3,
      "note": 49,
      "start": 19.8699,
      "duration": 0.0036,
      "velocity": 116,
      "chip": "ym2612"
    },
    {
      "channel": 0,
      "note": 55,
      "start": 19.8729,
      "duration": 0.0045,
      "velocity": 105,
      "chip": "ym2612"
    },
    {
      "channel": 2,
      "note": 55,
      "start": 19.8733,
      "duration": 0.0042,
      "velocity": 116,
      "chip": "ym2612"
    },
    {
      "channel": 3,
      "note": 55,
      "start": 19.8736,
      "duration": 0.0041,
      "velocity": 116,
      "chip": "ym2612"
    },
    {
      "channel": 0,
      "note": 49,
      "start": 19.959,
      "duration": 0.0042,
      "velocity": 105,
      "chip": "ym2612"
    },
    {
      "channel": 2,
      "note": 49,
      "start": 19.9594,
      "duration": 0.0042,
      "velocity": 116,
      "chip": "ym2612"
    },
    {
      "channel": 3,
      "note": 49,
      "start": 19.9597,
      "duration": 0.0042,
      "velocity": 116,
      "chip": "ym2612"
    },
    {
      "channel": 0,
      "note": 56,
      "start": 19.9633,
      "duration": 0.0852,
      "velocity": 105,
      "chip": "ym2612"
    },
    {
      "channel": 2,
      "note": 56,
      "start": 19.9638,
      "duration": 0.0852,
      "velocity": 116,
      "chip": "ym2612"
    },
    {
      "channel": 3,
      "note": 56,
      "start": 19.9641,
      "duration": 0.0852,
      "velocity": 116,
      "chip": "ym2612"
    },
    {
      "channel": 0,
      "note": 49,
      "start": 20.0487,
      "duration": 0.0086,
      "velocity": 105,
      "chip": "ym2612"
    },
    {
      "channel": 2,
      "note": 49,
      "start": 20.0491,
      "duration": 0.0086,
      "velocity": 116,
      "chip": "ym2612"
    },
    {
      "channel": 3,
      "note": 49,
      "start": 20.0495,
      "duration": 0.0087,
      "velocity": 116,
      "chip": "ym2612"
    },
    {
      "channel": 0,
      "note": 54,
      "start": 20.0575,
      "duration": 0.0039,
      "velocity": 105,
      "chip": "ym2612"
    },
    {
      "channel": 2,
      "note": 54,
      "start": 20.058,
      "duration": 0.0037,
      "velocity": 116,
      "chip": "ym2612"
    },
    {
      "channel": 3,
      "note": 54,
      "start": 20.0583,
      "duration": 0.0037,
      "velocity": 116,
      "chip": "ym2612"
    },
    {
      "channel": 0,
      "note": 56,
      "start": 20.0616,
      "duration": 0.0815,
      "velocity": 105,
      "chip": "ym2612"
    },
    {
      "channel": 2,
      "note": 56,
      "start": 20.0619,
      "duration": 0.0818,
      "velocity": 116,
      "chip": "ym2612"
    },
    {
      "channel": 3,
      "note": 56,
      "start": 20.0623,
      "duration": 0.0817,
      "velocity": 116,
      "chip": "ym2612"
    },
    {
      "channel": 0,
      "note": 49,
      "start": 20.1434,
      "duration": 0.0861,
      "velocity": 105,
      "chip": "ym2612"
    },
    {
      "channel": 1,
      "note": 66,
      "start": 20.1437,
      "duration": 0.3599,
      "velocity": 105,
      "chip": "ym2612"
    },
    {
      "channel": 2,
      "note": 49,
      "start": 20.144,
      "duration": 0.0859,
      "velocity": 116,
      "chip": "ym2612"
    },
    {
      "channel": 3,
      "note": 49,
      "start": 20.1442,
      "duration": 0.086,
      "velocity": 116,
      "chip": "ym2612"
    },
    {
      "channel": 4,
      "note": 78,
      "start": 20.1446,
      "duration": 0.36,
      "velocity": 105,
      "chip": "ym2612"
    },
    {
      "channel": 0,
      "note": 56,
      "start": 20.2297,
      "duration": 0.0036,
      "velocity": 105,
      "chip": "ym2612"
    },
    {
      "channel": 2,
      "note": 56,
      "start": 20.2301,
      "duration": 0.0035,
      "velocity": 116,
      "chip": "ym2612"
    },
    {
      "channel": 3,
      "note": 56,
      "start": 20.2304,
      "duration": 0.0036,
      "velocity": 116,
      "chip": "ym2612"
    },
    {
      "channel": 0,
      "note": 49,
      "start": 20.2335,
      "duration": 0.0815,
      "velocity": 105,
      "chip": "ym2612"
    },
    {
      "channel": 2,
      "note": 49,
      "start": 20.2339,
      "duration": 0.0816,
      "velocity": 116,
      "chip": "ym2612"
    },
    {
      "channel": 3,
      "note": 49,
      "start": 20.2342,
      "duration": 0.0816,
      "velocity": 116,
      "chip": "ym2612"
    },
    {
      "channel": 0,
      "note": 59,
      "start": 20.3152,
      "duration": 0.0043,
      "velocity": 105,
      "chip": "ym2612"
    },
    {
      "channel": 2,
      "note": 59,
      "start": 20.3156,
      "duration": 0.0041,
      "velocity": 116,
      "chip": "ym2612"
    },
    {
      "channel": 3,
      "note": 59,
      "start": 20.316,
      "duration": 0.0039,
      "velocity": 116,
      "chip": "ym2612"
    },
    {
      "channel": 0,
      "note": 49,
      "start": 20.3235,
      "duration": 0.0038,
      "velocity": 105,
      "chip": "ym2612"
    },
    {
      "channel": 2,
      "note": 49,
      "start": 20.324,
      "duration": 0.0037,
      "velocity": 116,
      "chip": "ym2612"
    },
    {
      "channel": 3,
      "note": 49,
      "start": 20.3244,
      "duration": 0.0037,
      "velocity": 116,
      "chip": "ym2612"
    },
    {
      "channel": 0,
      "note": 55,
      "start": 20.3275,
      "duration": 0.0045,
      "velocity": 105,
      "chip": "ym2612"
    },
    {
      "channel": 2,
      "note": 55,
      "start": 20.3279,
      "duration": 0.0041,
      "velocity": 116,
      "chip": "ym2612"
    },
    {
      "channel": 3,
      "note": 55,
      "start": 20.3283,
      "duration": 0.004,
      "velocity": 116,
      "chip": "ym2612"
    },
    {
      "channel": 0,
      "note": 49,
      "start": 20.4135,
      "duration": 0.0042,
      "velocity": 105,
      "chip": "ym2612"
    },
    {
      "channel": 2,
      "note": 49,
      "start": 20.414,
      "duration": 0.0042,
      "velocity": 116,
      "chip": "ym2612"
    },
    {
      "channel": 3,
      "note": 49,
      "start": 20.4143,
      "duration": 0.0043,
      "velocity": 116,
      "chip": "ym2612"
    },
    {
      "channel": 0,
      "note": 56,
      "start": 20.4179,
      "duration": 0.0854,
      "velocity": 105,
      "chip": "ym2612"
    },
    {
      "channel": 2,
      "note": 56,
      "start": 20.4184,
      "duration": 0.0854,
      "velocity": 116,
      "chip": "ym2612"
    },
    {
      "channel": 3,
      "note": 56,
      "start": 20.4188,
      "duration": 0.0854,
      "velocity": 116,
      "chip": "ym2612"
    },
    {
      "channel": 0,
      "note": 51,
      "start": 20.5035,
      "duration": 0.009,
      "velocity": 105,
      "chip": "ym2612"
    },
    {
      "channel": 1,
      "note": 60,
      "start": 20.5038,
      "duration": 0.0942,
      "velocity": 105,
      "chip": "ym2612"
    },
    {
      "channel": 2,
      "note": 51,
      "start": 20.5041,
      "duration": 0.0088,
      "velocity": 116,
      "chip": "ym2612"
    },
    {
      "channel": 3,
      "note": 51,
      "start": 20.5044,
      "duration": 0.0089,
      "velocity": 116,
      "chip": "ym2612"
    },
    {
      "channel": 4,
      "note": 72,
      "start": 20.5047,
      "duration": 0.0943,
      "velocity": 105,
      "chip": "ym2612"
    },
    {
      "channel": 0,
      "note": 47,
      "start": 20.5127,
      "duration": 0.0851,
      "velocity": 105,
      "chip": "ym2612"
    },
    {
      "channel": 2,
      "note": 47,
      "start": 20.5132,
      "duration": 0.0851,
      "velocity": 116,
      "chip": "ym2612"
    },
    {
      "channel": 3,
      "note": 47,
      "start": 20.5135,
      "duration": 0.0851,
      "velocity": 116,
      "chip": "ym2612"
    },
    {
      "channel": 0,
      "note": 49,
      "start": 20.598,
      "duration": 0.0862,
      "velocity": 105,
      "chip": "ym2612"
    },
    {
      "channel": 1,
      "note": 61,
      "start": 20.5983,
      "duration": 0.7615,
      "velocity": 101,
      "chip": "ym2612"
    },
    {
      "channel": 2,
      "note": 49,
      "start": 20.5986,
      "duration": 0.0861,
      "velocity": 116,
      "chip": "ym2612"
    },
    {
      "channel": 3,
      "note": 49,
      "start": 20.5989,
      "duration": 0.0861,
      "velocity": 116,
      "chip": "ym2612"
    },
    {
      "channel": 4,
      "note": 73,
      "start": 20.5992,
      "duration": 0.7657,
      "velocity": 101,
      "chip": "ym2612"
    },
    {
      "channel": 0,
      "note": 56,
      "start": 20.6844,
      "duration": 0.0038,
      "velocity": 105,
      "chip": "ym2612"
    },
    {
      "channel": 2,
      "note": 56,
      "start": 20.6849,
      "duration": 0.0038,
      "velocity": 116,
      "chip": "ym2612"
    },
    {
      "channel": 3,
      "note": 56,
      "start": 20.6852,
      "duration": 0.0038,
      "velocity": 116,
      "chip": "ym2612"
    },
    {
      "channel": 0,
      "note": 49,
      "start": 20.6885,
      "duration": 0.0816,
      "velocity": 105,
      "chip": "ym2612"
    },
    {
      "channel": 2,
      "note": 49,
      "start": 20.6889,
      "duration": 0.0816,
      "velocity": 116,
      "chip": "ym2612"
    },
    {
      "channel": 3,
      "note": 49,
      "start": 20.6893,
      "duration": 0.0816,
      "velocity": 116,
      "chip": "ym2612"
    },
    {
      "channel": 0,
      "note": 59,
      "start": 20.7703,
      "duration": 0.0043,
      "velocity": 105,
      "chip": "ym2612"
    },
    {
      "channel": 2,
      "note": 59,
      "start": 20.7707,
      "duration": 0.0041,
      "velocity": 116,
      "chip": "ym2612"
    },
    {
      "channel": 3,
      "note": 59,
      "start": 20.771,
      "duration": 0.004,
      "velocity": 116,
      "chip": "ym2612"
    },
    {
      "channel": 0,
      "note": 49,
      "start": 20.7788,
      "duration": 0.0042,
      "velocity": 105,
      "chip": "ym2612"
    },
    {
      "channel": 2,
      "note": 49,
      "start": 20.7793,
      "duration": 0.0041,
      "velocity": 116,
      "chip": "ym2612"
    },
    {
      "channel": 3,
      "note": 49,
      "start": 20.7796,
      "duration": 0.004,
      "velocity": 116,
      "chip": "ym2612"
    },
    {
      "channel": 0,
      "note": 55,
      "start": 20.7832,
      "duration": 0.0044,
      "velocity": 105,
      "chip": "ym2612"
    },
    {
      "channel": 2,
      "note": 55,
      "start": 20.7836,
      "duration": 0.0042,
      "velocity": 116,
      "chip": "ym2612"
    },
    {
      "channel": 3,
      "note": 55,
      "start": 20.7839,
      "duration": 0.004,
      "velocity": 116,
      "chip": "ym2612"
    },
    {
      "channel": 0,
      "note": 49,
      "start": 20.8693,
      "duration": 0.0042,
      "velocity": 105,
      "chip": "ym2612"
    },
    {
      "channel": 2,
      "note": 49,
      "start": 20.8697,
      "duration": 0.0043,
      "velocity": 116,
      "chip": "ym2612"
    },
    {
      "channel": 3,
      "note": 49,
      "start": 20.87,
      "duration": 0.0043,
      "velocity": 116,
      "chip": "ym2612"
    },
    {
      "channel": 0,
      "note": 56,
      "start": 20.8737,
      "duration": 0.0854,
      "velocity": 105,
      "chip": "ym2612"
    },
    {
      "channel": 2,
      "note": 56,
      "start": 20.8743,
      "duration": 0.0852,
      "velocity": 116,
      "chip": "ym2612"
    },
    {
      "channel": 3,
      "note": 56,
      "start": 20.8746,
      "duration": 0.0852,
      "velocity": 116,
      "chip": "ym2612"
    },
    {
      "channel": 0,
      "note": 49,
      "start": 20.9592,
      "duration": 0.0044,
      "velocity": 105,
      "chip": "ym2612"
    },
    {
      "channel": 2,
      "note": 49,
      "start": 20.9597,
      "duration": 0.0044,
      "velocity": 116,
      "chip": "ym2612"
    },
    {
      "channel": 3,
      "note": 49,
      "start": 20.96,
      "duration": 0.0045,
      "velocity": 116,
      "chip": "ym2612"
    },
    {
      "channel": 0,
      "note": 56,
      "start": 20.9639,
      "duration": 0.0046,
      "velocity": 105,
      "chip": "ym2612"
    },
    {
      "channel": 2,
      "note": 56,
      "start": 20.9643,
      "duration": 0.0046,
      "velocity": 116,
      "chip": "ym2612"
    },
    {
      "channel": 3,
      "note": 56,
      "start": 20.9646,
      "duration": 0.0045,
      "velocity": 116,
      "chip": "ym2612"
    },
    {
      "channel": 0,
      "note": 58,
      "start": 20.9687,
      "duration": 0.0039,
      "velocity": 105,
      "chip": "ym2612"
    },
    {
      "channel": 2,
      "note": 58,
      "start": 20.9691,
      "duration": 0.0039,
      "velocity": 116,
      "chip": "ym2612"
    },
    {
      "channel": 3,
      "note": 58,
      "start": 20.9694,
      "duration": 0.0037,
      "velocity": 116,
      "chip": "ym2612"
    },
    {
      "channel": 0,
      "note": 59,
      "start": 20.9728,
      "duration": 0.0815,
      "velocity": 105,
      "chip": "ym2612"
    },
    {
      "channel": 2,
      "note": 59,
      "start": 20.9731,
      "duration": 0.0815,
      "velocity": 116,
      "chip": "ym2612"
    },
    {
      "channel": 3,
      "note": 59,
      "start": 20.9734,
      "duration": 0.0815,
      "velocity": 116,
      "chip": "ym2612"
    },
    {
      "channel": 0,
      "note": 49,
      "start": 21.0544,
      "duration": 0.086,
      "velocity": 105,
      "chip": "ym2612"
    },
    {
      "channel": 2,
      "note": 49,
      "start": 21.0548,
      "duration": 0.0861,
      "velocity": 116,
      "chip": "ym2612"
    },
    {
      "channel": 3,
      "note": 49,
      "start": 21.0551,
      "duration": 0.0861,
      "velocity": 116,
      "chip": "ym2612"
    },
    {
      "channel": 0,
      "note": 56,
      "start": 21.1407,
      "duration": 0.0037,
      "velocity": 105,
      "chip": "ym2612"
    },
    {
      "channel": 2,
      "note": 56,
      "start": 21.1411,
      "duration": 0.0037,
      "velocity": 116,
      "chip": "ym2612"
    },
    {
      "channel": 3,
      "note": 56,
      "start": 21.1414,
      "duration": 0.0037,
      "velocity": 116,
      "chip": "ym2612"
    },
    {
      "channel": 0,
      "note": 49,
      "start": 21.1446,
      "duration": 0.0815,
      "velocity": 105,
      "chip": "ym2612"
    },
    {
      "channel": 2,
      "note": 49,
      "start": 21.145,
      "duration": 0.0814,
      "velocity": 116,
      "chip": "ym2612"
    },
    {
      "channel": 3,
      "note": 49,
      "start": 21.1453,
      "duration": 0.0814,
      "velocity": 116,
      "chip": "ym2612"
    },
    {
      "channel": 0,
      "note": 59,
      "start": 21.2262,
      "duration": 0.0044,
      "velocity": 105,
      "chip": "ym2612"
    },
    {
      "channel": 2,
      "note": 59,
      "start": 21.2266,
      "duration": 0.0041,
      "velocity": 116,
      "chip": "ym2612"
    },
    {
      "channel": 3,
      "note": 59,
      "start": 21.227,
      "duration": 0.004,
      "velocity": 116,
      "chip": "ym2612"
    },
    {
      "channel": 0,
      "note": 49,
      "start": 21.2347,
      "duration": 0.004,
      "velocity": 105,
      "chip": "ym2612"
    },
    {
      "channel": 2,
      "note": 49,
      "start": 21.2352,
      "duration": 0.0039,
      "velocity": 116,
      "chip": "ym2612"
    },
    {
      "channel": 3,
      "note": 49,
      "start": 21.2355,
      "duration": 0.004,
      "velocity": 116,
      "chip": "ym2612"
    },
    {
      "channel": 0,
      "note": 55,
      "start": 21.2389,
      "duration": 0.0054,
      "velocity": 105,
      "chip": "ym2612"
    },
    {
      "channel": 2,
      "note": 55,
      "start": 21.2393,
      "duration": 0.0053,
      "velocity": 116,
      "chip": "ym2612"
    },
    {
      "channel": 3,
      "note": 55,
      "start": 21.2396,
      "duration": 0.0052,
      "velocity": 116,
      "chip": "ym2612"
    },
    {
      "channel": 0,
      "note": 55,
      "start": 21.3261,
      "duration": 0.0044,
      "velocity": 105,
      "chip": "ym2612"
    },
    {
      "channel": 2,
      "note": 55,
      "start": 21.3266,
      "duration": 0.0045,
      "velocity": 116,
      "chip": "ym2612"
    },
    {
      "channel": 3,
      "note": 55,
      "start": 21.3269,
      "duration": 0.0044,
      "velocity": 116,
      "chip": "ym2612"
    },
    {
      "channel": 0,
      "note": 56,
      "start": 21.3307,
      "duration": 0.0059,
      "velocity": 105,
      "chip": "ym2612"
    },
    {
      "channel": 2,
      "note": 56,
      "start": 21.3312,
      "duration": 0.006,
      "velocity": 116,
      "chip": "ym2612"
    },
    {
      "channel": 3,
      "note": 56,
      "start": 21.3315,
      "duration": 0.006,
      "velocity": 116,
      "chip": "ym2612"
    },
    {
      "channel": 0,
      "note": 58,
      "start": 21.3369,
      "duration": 0.0049,
      "velocity": 105,
      "chip": "ym2612"
    },
    {
      "channel": 2,
      "note": 58,
      "start": 21.3374,
      "duration": 0.0047,
      "velocity": 116,
      "chip": "ym2612"
    },
    {
      "channel": 3,
      "note": 58,
      "start": 21.3378,
      "duration": 0.0047,
      "velocity": 116,
      "chip": "ym2612"
    },
    {
      "channel": 0,
      "note": 59,
      "start": 21.342,
      "duration": 0.0048,
      "velocity": 105,
      "chip": "ym2612"
    },
    {
      "channel": 2,
      "note": 59,
      "start": 21.3424,
      "duration": 0.0046,
      "velocity": 116,
      "chip": "ym2612"
    },
    {
      "channel": 3,
      "note": 59,
      "start": 21.3427,
      "duration": 0.0046,
      "velocity": 116,
      "chip": "ym2612"
    },
    {
      "channel": 0,
      "note": 61,
      "start": 21.3469,
      "duration": 0.0033,
      "velocity": 105,
      "chip": "ym2612"
    },
    {
      "channel": 2,
      "note": 61,
      "start": 21.3471,
      "duration": 0.0034,
      "velocity": 116,
      "chip": "ym2612"
    },
    {
      "channel": 3,
      "note": 61,
      "start": 21.3474,
      "duration": 0.0034,
      "velocity": 116,
      "chip": "ym2612"
    },
    {
      "channel": 0,
      "note": 63,
      "start": 21.3503,
      "duration": 0.0036,
      "velocity": 105,
      "chip": "ym2612"
    },
    {
      "channel": 2,
      "note": 63,
      "start": 21.3507,
      "duration": 0.0036,
      "velocity": 116,
      "chip": "ym2612"
    },
    {
      "channel": 3,
      "note": 63,
      "start": 21.351,
      "duration": 0.0036,
      "velocity": 116,
      "chip": "ym2612"
    },
    {
      "channel": 0,
      "note": 64,
      "start": 21.3541,
      "duration": 0.0038,
      "velocity": 105,
      "chip": "ym2612"
    },
    {
      "channel": 2,
      "note": 64,
      "start": 21.3544,
      "duration": 0.0068,
      "velocity": 103,
      "chip": "ym2612"
    },
    {
      "channel": 3,
      "note": 64,
      "start": 21.3548,
      "duration": 0.008,
      "velocity": 103,
      "chip": "ym2612"
    },
    {
      "channel": 0,
      "note": 49,
      "start": 21.3581,
      "duration": 0.0891,
      "velocity": 105,
      "chip": "ym2612"
    },
    {
      "channel": 2,
      "note": 80,
      "start": 21.3613,
      "duration": 81.3042,
      "velocity": 103,
      "chip": "ym2612"
    },
    {
      "channel": 3,
      "note": 75,
      "start": 21.3629,
      "duration": 81.3026,
      "velocity": 103,
      "chip": "ym2612"
    },
    {
      "channel": 0,
      "note": 59,
      "start": 21.4474,
      "duration": 81.2181,
      "velocity": 105,
      "chip": "ym2612"
    }
  ]
}