{
  "track_name": "06 - Fire Bird",
  "duration_sec": 22.824,
  "sample_rate": 44100,
  "note_count": 965,
  "unique_pitches": 45,
  "pitch_range": 51,
  "avg_note_duration": 0.0577,
  "reconstruction_stats": {
    "notes_reconstructed": 965,
    "keyon_events": 965,
    "keyoff_events": 963,
    "orphan_keyons": 2,
    "unique_pitches": 45,
    "pitch_range": 51,
    "avg_duration_sec": 0.0577
  },
  "metadata": {
    "source": "J\\Jewel Master\\06 - Fire Bird.vgz"
  },
  "notes": [
    {
      "channel": 0,
      "note": 56,
      "start": 0.0,
      "duration": 0.0322,
      "velocity": 91,
      "chip": "ym2612"
    },
    {
      "channel": 1,
      "note": 68,
      "start": 0.004,
      "duration": 0.0285,
      "velocity": 94,
      "chip": "ym2612"
    },
    {
      "channel": 2,
      "note": 80,
      "start": 0.0081,
      "duration": 0.0246,
      "velocity": 94,
      "chip": "ym2612"
    },
    {
      "channel": 3,
      "note": 70,
      "start": 0.014,
      "duration": 0.019,
      "velocity": 92,
      "chip": "ym2612"
    },
    {
      "channel": 4,
      "note": 57,
      "start": 0.0198,
      "duration": 0.0634,
      "velocity": 94,
      "chip": "ym2612"
    },
    {
      "channel": 0,
      "note": 68,
      "start": 0.035,
      "duration": 0.0137,
      "velocity": 91,
      "chip": "ym2612"
    },
    {
      "channel": 1,
      "note": 80,
      "start": 0.0356,
      "duration": 0.0134,
      "velocity": 94,
      "chip": "ym2612"
    },
    {
      "channel": 2,
      "note": 92,
      "start": 0.0361,
      "duration": 0.0132,
      "velocity": 94,
      "chip": "ym2612"
    },
    {
      "channel": 3,
      "note": 80,
      "start": 0.0366,
      "duration": 0.0129,
      "velocity": 92,
      "chip": "ym2612"
    },
    {
      "channel": 0,
      "note": 68,
      "start": 0.0515,
      "duration": 0.0135,
      "velocity": 91,
      "chip": "ym2612"
    },
    {
      "channel": 1,
      "note": 80,
      "start": 0.052,
      "duration": 0.0133,
      "velocity": 94,
      "chip": "ym2612"
    },
    {
      "channel": 2,
      "note": 92,
      "start": 0.0525,
      "duration": 0.013,
      "velocity": 94,
      "chip": "ym2612"
    },
    {
      "channel": 3,
      "note": 92,
      "start": 0.0531,
      "duration": 0.0127,
      "velocity": 92,
      "chip": "ym2612"
    },
    {
      "channel": 0,
      "note": 58,
      "start": 0.0682,
      "duration": 0.0137,
      "velocity": 91,
      "chip": "ym2612"
    },
    {
      "channel": 1,
      "note": 70,
      "start": 0.0687,
      "duration": 0.0135,
      "velocity": 94,
      "chip": "ym2612"
    },
    {
      "channel": 2,
      "note": 82,
      "start": 0.0694,
      "duration": 0.0131,
      "velocity": 94,
      "chip": "ym2612"
    },
    {
      "channel": 3,
      "note": 92,
      "start": 0.07,
      "duration": 0.0127,
      "velocity": 92,
      "chip": "ym2612"
    },
    {
      "channel": 0,
      "note": 67,
      "start": 0.0848,
      "duration": 0.0142,
      "velocity": 91,
      "chip": "ym2612"
    },
    {
      "channel": 1,
      "note": 79,
      "start": 0.0853,
      "duration": 0.0139,
      "velocity": 94,
      "chip": "ym2612"
    },
    {
      "channel": 2,
      "note": 91,
      "start": 0.0858,
      "duration": 0.0137,
      "velocity": 94,
      "chip": "ym2612"
    },
    {
      "channel": 3,
      "note": 82,
      "start": 0.0864,
      "duration": 0.0135,
      "velocity": 92,
      "chip": "ym2612"
    },
    {
      "channel": 4,
      "note": 57,
      "start": 0.0872,
      "duration": 0.0627,
      "velocity": 94,
      "chip": "ym2612"
    },
    {
      "channel": 0,
      "note": 59,
      "start": 0.1019,
      "duration": 0.0134,
      "velocity": 91,
      "chip": "ym2612"
    },
    {
      "channel": 1,
      "note": 71,
      "start": 0.1024,
      "duration": 0.0132,
      "velocity": 94,
      "chip": "ym2612"
    },
    {
      "channel": 2,
      "note": 83,
      "start": 0.1029,
      "duration": 0.0131,
      "velocity": 94,
      "chip": "ym2612"
    },
    {
      "channel": 3,
      "note": 91,
      "start": 0.1035,
      "duration": 0.0129,
      "velocity": 92,
      "chip": "ym2612"
    },
    {
      "channel": 0,
      "note": 66,
      "start": 0.1183,
      "duration": 0.0134,
      "velocity": 91,
      "chip": "ym2612"
    },
    {
      "channel": 1,
      "note": 78,
      "start": 0.1188,
      "duration": 0.0132,
      "velocity": 94,
      "chip": "ym2612"
    },
    {
      "channel": 2,
      "note": 90,
      "start": 0.1193,
      "duration": 0.0129,
      "velocity": 94,
      "chip": "ym2612"
    },
    {
      "channel": 3,
      "note": 83,
      "start": 0.12,
      "duration": 0.0126,
      "velocity": 92,
      "chip": "ym2612"
    },
    {
      "channel": 0,
      "note": 65,
      "start": 0.1346,
      "duration": 0.0142,
      "velocity": 91,
      "chip": "ym2612"
    },
    {
      "channel": 1,
      "note": 77,
      "start": 0.1351,
      "duration": 0.0139,
      "velocity": 94,
      "chip": "ym2612"
    },
    {
      "channel": 2,
      "note": 89,
      "start": 0.1356,
      "duration": 0.0137,
      "velocity": 94,
      "chip": "ym2612"
    },
    {
      "channel": 3,
      "note": 90,
      "start": 0.1363,
      "duration": 0.0134,
      "velocity": 92,
      "chip": "ym2612"
    },
    {
      "channel": 0,
      "note": 60,
      "start": 0.1517,
      "duration": 0.0144,
      "velocity": 91,
      "chip": "ym2612"
    },
    {
      "channel": 1,
      "note": 72,
      "start": 0.1523,
      "duration": 0.0141,
      "velocity": 94,
      "chip": "ym2612"
    },
    {
      "channel": 2,
      "note": 84,
      "start": 0.1528,
      "duration": 0.0139,
      "velocity": 94,
      "chip": "ym2612"
    },
    {
      "channel": 3,
      "note": 89,
      "start": 0.1533,
      "duration": 0.0136,
      "velocity": 92,
      "chip": "ym2612"
    },
    {
      "channel": 4,
      "note": 57,
      "start": 0.1542,
      "duration": 0.0644,
      "velocity": 94,
      "chip": "ym2612"
    },
    {
      "channel": 0,
      "note": 64,
      "start": 0.1691,
      "duration": 0.0142,
      "velocity": 91,
      "chip": "ym2612"
    },
    {
      "channel": 1,
      "note": 76,
      "start": 0.1697,
      "duration": 0.014,
      "velocity": 94,
      "chip": "ym2612"
    },
    {
      "channel": 2,
      "note": 88,
      "start": 0.1702,
      "duration": 0.0137,
      "velocity": 94,
      "chip": "ym2612"
    },
    {
      "channel": 3,
      "note": 84,
      "start": 0.1707,
      "duration": 0.0134,
      "velocity": 92,
      "chip": "ym2612"
    },
    {
      "channel": 0,
      "note": 63,
      "start": 0.1863,
      "duration": 0.0139,
      "velocity": 91,
      "chip": "ym2612"
    },
    {
      "channel": 1,
      "note": 75,
      "start": 0.1868,
      "duration": 0.0137,
      "velocity": 94,
      "chip": "ym2612"
    },
    {
      "channel": 2,
      "note": 87,
      "start": 0.1873,
      "duration": 0.0134,
      "velocity": 94,
      "chip": "ym2612"
    },
    {
      "channel": 3,
      "note": 88,
      "start": 0.1878,
      "duration": 0.0132,
      "velocity": 92,
      "chip": "ym2612"
    },
    {
      "channel": 0,
      "note": 59,
      "start": 0.2035,
      "duration": 0.0139,
      "velocity": 91,
      "chip": "ym2612"
    },
    {
      "channel": 1,
      "note": 71,
      "start": 0.204,
      "duration": 0.0136,
      "velocity": 94,
      "chip": "ym2612"
    },
    {
      "channel": 2,
      "note": 83,
      "start": 0.2046,
      "duration": 0.0134,
      "velocity": 94,
      "chip": "ym2612"
    },
    {
      "channel": 3,
      "note": 87,
      "start": 0.2051,
      "duration": 0.0131,
      "velocity": 92,
      "chip": "ym2612"
    },
    {
      "channel": 0,
      "note": 62,
      "start": 0.2203,
      "duration": 0.0139,
      "velocity": 91,
      "chip": "ym2612"
    },
    {
      "channel": 1,
      "note": 74,
      "start": 0.2209,
      "duration": 0.0137,
      "velocity": 94,
      "chip": "ym2612"
    },
    {
      "channel": 2,
      "note": 86,
      "start": 0.2214,
      "duration": 0.0134,
      "velocity": 94,
      "chip": "ym2612"
    },
    {
      "channel": 3,
      "note": 83,
      "start": 0.222,
      "duration": 0.0131,
      "velocity": 92,
      "chip": "ym2612"
    },
    {
      "channel": 4,
      "note": 57,
      "start": 0.2228,
      "duration": 0.0623,
      "velocity": 94,
      "chip": "ym2612"
    },
    {
      "channel": 0,
      "note": 58,
      "start": 0.2371,
      "duration": 0.0137,
      "velocity": 91,
      "chip": "ym2612"
    },
    {
      "channel": 1,
      "note": 70,
      "start": 0.2376,
      "duration": 0.0135,
      "velocity": 94,
      "chip": "ym2612"
    },
    {
      "channel": 2,
      "note": 82,
      "start": 0.2381,
      "duration": 0.0132,
      "velocity": 94,
      "chip": "ym2612"
    },
    {
      "channel": 3,
      "note": 86,
      "start": 0.2387,
      "duration": 0.0129,
      "velocity": 92,
      "chip": "ym2612"
    },
    {
      "channel": 0,
      "note": 61,
      "start": 0.2536,
      "duration": 0.0139,
      "velocity": 91,
      "chip": "ym2612"
    },
    {
      "channel": 1,
      "note": 73,
      "start": 0.2541,
      "duration": 0.0136,
      "velocity": 94,
      "chip": "ym2612"
    },
    {
      "channel": 2,
      "note": 85,
      "start": 0.2546,
      "duration": 0.0134,
      "velocity": 94,
      "chip": "ym2612"
    },
    {
      "channel": 3,
      "note": 82,
      "start": 0.2552,
      "duration": 0.0131,
      "velocity": 92,
      "chip": "ym2612"
    },
    {
      "channel": 0,
      "note": 60,
      "start": 0.2705,
      "duration": 0.0134,
      "velocity": 91,
      "chip": "ym2612"
    },
    {
      "channel": 1,
      "note": 72,
      "start": 0.271,
      "duration": 0.0132,
      "velocity": 94,
      "chip": "ym2612"
    },
    {
      "channel": 2,
      "note": 84,
      "start": 0.2715,
      "duration": 0.0129,
      "velocity": 94,
      "chip": "ym2612"
    },
    {
      "channel": 3,
      "note": 85,
      "start": 0.272,
      "duration": 0.0127,
      "velocity": 92,
      "chip": "ym2612"
    },
    {
      "channel": 0,
      "note": 56,
      "start": 0.287,
      "duration": 0.0149,
      "velocity": 91,
      "chip": "ym2612"
    },
    {
      "channel": 1,
      "note": 68,
      "start": 0.2878,
      "duration": 0.0144,
      "velocity": 94,
      "chip": "ym2612"
    },
    {
      "channel": 2,
      "note": 80,
      "start": 0.2885,
      "duration": 0.0139,
      "velocity": 94,
      "chip": "ym2612"
    },
    {
      "channel": 3,
      "note": 84,
      "start": 0.2892,
      "duration": 0.0136,
      "velocity": 92,
      "chip": "ym2612"
    },
    {
      "channel": 4,
      "note": 57,
      "start": 0.29,
      "duration": 0.064,
      "velocity": 94,
      "chip": "ym2612"
    },
    {
      "channel": 0,
      "note": 68,
      "start": 0.3047,
      "duration": 0.0135,
      "velocity": 91,
      "chip": "ym2612"
    },
    {
      "channel": 1,
      "note": 80,
      "start": 0.3053,
      "duration": 0.0133,
      "velocity": 94,
      "chip": "ym2612"
    },
    {
      "channel": 2,
      "note": 92,
      "start": 0.3058,
      "duration": 0.013,
      "velocity": 94,
      "chip": "ym2612"
    },
    {
      "channel": 3,
      "note": 80,
      "start": 0.3063,
      "duration": 0.0128,
      "velocity": 92,
      "chip": "ym2612"
    },
    {
      "channel": 0,
      "note": 68,
      "start": 0.3222,
      "duration": 0.0136,
      "velocity": 91,
      "chip": "ym2612"
    },
    {
      "channel": 1,
      "note": 80,
      "start": 0.3227,
      "duration": 0.0135,
      "velocity": 94,
      "chip": "ym2612"
    },
    {
      "channel": 2,
      "note": 92,
      "start": 0.3233,
      "duration": 0.0132,
      "velocity": 94,
      "chip": "ym2612"
    },
    {
      "channel": 3,
      "note": 92,
      "start": 0.3238,
      "duration": 0.013,
      "velocity": 92,
      "chip": "ym2612"
    },
    {
      "channel": 0,
      "note": 58,
      "start": 0.3391,
      "duration": 0.0137,
      "velocity": 91,
      "chip": "ym2612"
    },
    {
      "channel": 1,
      "note": 70,
      "start": 0.3396,
      "duration": 0.0134,
      "velocity": 94,
      "chip": "ym2612"
    },
    {
      "channel": 2,
      "note": 82,
      "start": 0.3402,
      "duration": 0.0132,
      "velocity": 94,
      "chip": "ym2612"
    },
    {
      "channel": 3,
      "note": 92,
      "start": 0.3407,
      "duration": 0.0129,
      "velocity": 92,
      "chip": "ym2612"
    },
    {
      "channel": 0,
      "note": 67,
      "start": 0.3558,
      "duration": 0.0142,
      "velocity": 91,
      "chip": "ym2612"
    },
    {
      "channel": 1,
      "note": 79,
      "start": 0.3563,
      "duration": 0.0139,
      "velocity": 94,
      "chip": "ym2612"
    },
    {
      "channel": 2,
      "note": 91,
      "start": 0.3568,
      "duration": 0.0137,
      "velocity": 94,
      "chip": "ym2612"
    },
    {
      "channel": 3,
      "note": 82,
      "start": 0.3574,
      "duration": 0.0135,
      "velocity": 92,
      "chip": "ym2612"
    },
    {
      "channel": 4,
      "note": 57,
      "start": 0.3583,
      "duration": 0.0631,
      "velocity": 94,
      "chip": "ym2612"
    },
    {
      "channel": 0,
      "note": 59,
      "start": 0.3729,
      "duration": 0.0135,
      "velocity": 91,
      "chip": "ym2612"
    },
    {
      "channel": 1,
      "note": 71,
      "start": 0.3734,
      "duration": 0.0133,
      "velocity": 94,
      "chip": "ym2612"
    },
    {
      "channel": 2,
      "note": 83,
      "start": 0.3739,
      "duration": 0.013,
      "velocity": 94,
      "chip": "ym2612"
    },
    {
      "channel": 3,
      "note": 91,
      "start": 0.3745,
      "duration": 0.0127,
      "velocity": 92,
      "chip": "ym2612"
    },
    {
      "channel": 0,
      "note": 66,
      "start": 0.3895,
      "duration": 0.0133,
      "velocity": 91,
      "chip": "ym2612"
    },
    {
      "channel": 1,
      "note": 78,
      "start": 0.39,
      "duration": 0.013,
      "velocity": 94,
      "chip": "ym2612"
    },
    {
      "channel": 2,
      "note": 90,
      "start": 0.3905,
      "duration": 0.0127,
      "velocity": 94,
      "chip": "ym2612"
    },
    {
      "channel": 3,
      "note": 83,
      "start": 0.3911,
      "duration": 0.0125,
      "velocity": 92,
      "chip": "ym2612"
    },
    {
      "channel": 0,
      "note": 65,
      "start": 0.4056,
      "duration": 0.0146,
      "velocity": 91,
      "chip": "ym2612"
    },
    {
      "channel": 1,
      "note": 77,
      "start": 0.4061,
      "duration": 0.0143,
      "velocity": 94,
      "chip": "ym2612"
    },
    {
      "channel": 2,
      "note": 89,
      "start": 0.4066,
      "duration": 0.014,
      "velocity": 94,
      "chip": "ym2612"
    },
    {
      "channel": 3,
      "note": 90,
      "start": 0.4072,
      "duration": 0.0138,
      "velocity": 92,
      "chip": "ym2612"
    },
    {
      "channel": 0,
      "note": 60,
      "start": 0.4234,
      "duration": 0.0145,
      "velocity": 91,
      "chip": "ym2612"
    },
    {
      "channel": 1,
      "note": 72,
      "start": 0.4239,
      "duration": 0.0142,
      "velocity": 94,
      "chip": "ym2612"
    },
    {
      "channel": 2,
      "note": 84,
      "start": 0.4244,
      "duration": 0.014,
      "velocity": 94,
      "chip": "ym2612"
    },
    {
      "channel": 3,
      "note": 89,
      "start": 0.425,
      "duration": 0.0137,
      "velocity": 92,
      "chip": "ym2612"
    },
    {
      "channel": 4,
      "note": 57,
      "start": 0.4258,
      "duration": 0.0637,
      "velocity": 94,
      "chip": "ym2612"
    },
    {
      "channel": 0,
      "note": 64,
      "start": 0.4408,
      "duration": 0.0135,
      "velocity": 91,
      "chip": "ym2612"
    },
    {
      "channel": 1,
      "note": 76,
      "start": 0.4413,
      "duration": 0.0132,
      "velocity": 94,
      "chip": "ym2612"
    },
    {
      "channel": 2,
      "note": 88,
      "start": 0.4418,
      "duration": 0.0129,
      "velocity": 94,
      "chip": "ym2612"
    },
    {
      "channel": 3,
      "note": 84,
      "start": 0.4424,
      "duration": 0.0126,
      "velocity": 92,
      "chip": "ym2612"
    },
    {
      "channel": 0,
      "note": 63,
      "start": 0.4575,
      "duration": 0.0138,
      "velocity": 91,
      "chip": "ym2612"
    },
    {
      "channel": 1,
      "note": 75,
      "start": 0.458,
      "duration": 0.0135,
      "velocity": 94,
      "chip": "ym2612"
    },
    {
      "channel": 2,
      "note": 87,
      "start": 0.4585,
      "duration": 0.0133,
      "velocity": 94,
      "chip": "ym2612"
    },
    {
      "channel": 3,
      "note": 88,
      "start": 0.4591,
      "duration": 0.013,
      "velocity": 92,
      "chip": "ym2612"
    },
    {
      "channel": 0,
      "note": 59,
      "start": 0.4745,
      "duration": 0.0139,
      "velocity": 91,
      "chip": "ym2612"
    },
    {
      "channel": 1,
      "note": 71,
      "start": 0.475,
      "duration": 0.0137,
      "velocity": 94,
      "chip": "ym2612"
    },
    {
      "channel": 2,
      "note": 83,
      "start": 0.4755,
      "duration": 0.0134,
      "velocity": 94,
      "chip": "ym2612"
    },
    {
      "channel": 3,
      "note": 87,
      "start": 0.4761,
      "duration": 0.0131,
      "velocity": 92,
      "chip": "ym2612"
    },
    {
      "channel": 0,
      "note": 62,
      "start": 0.4916,
      "duration": 0.014,
      "velocity": 91,
      "chip": "ym2612"
    },
    {
      "channel": 1,
      "note": 74,
      "start": 0.4921,
      "duration": 0.0138,
      "velocity": 94,
      "chip": "ym2612"
    },
    {
      "channel": 2,
      "note": 86,
      "start": 0.4926,
      "duration": 0.0135,
      "velocity": 94,
      "chip": "ym2612"
    },
    {
      "channel": 3,
      "note": 83,
      "start": 0.4932,
      "duration": 0.0132,
      "velocity": 92,
      "chip": "ym2612"
    },
    {
      "channel": 4,
      "note": 57,
      "start": 0.494,
      "duration": 0.0644,
      "velocity": 94,
      "chip": "ym2612"
    },
    {
      "channel": 0,
      "note": 58,
      "start": 0.5103,
      "duration": 0.0137,
      "velocity": 91,
      "chip": "ym2612"
    },
    {
      "channel": 1,
      "note": 70,
      "start": 0.5111,
      "duration": 0.0132,
      "velocity": 94,
      "chip": "ym2612"
    },
    {
      "channel": 2,
      "note": 82,
      "start": 0.5116,
      "duration": 0.0129,
      "velocity": 94,
      "chip": "ym2612"
    },
    {
      "channel": 3,
      "note": 86,
      "start": 0.5122,
      "duration": 0.0127,
      "velocity": 92,
      "chip": "ym2612"
    },
    {
      "channel": 0,
      "note": 61,
      "start": 0.5269,
      "duration": 0.0137,
      "velocity": 91,
      "chip": "ym2612"
    },
    {
      "channel": 1,
      "note": 73,
      "start": 0.5274,
      "duration": 0.0134,
      "velocity": 94,
      "chip": "ym2612"
    },
    {
      "channel": 2,
      "note": 85,
      "start": 0.5279,
      "duration": 0.0132,
      "velocity": 94,
      "chip": "ym2612"
    },
    {
      "channel": 3,
      "note": 82,
      "start": 0.5285,
      "duration": 0.0128,
      "velocity": 92,
      "chip": "ym2612"
    },
    {
      "channel": 0,
      "note": 60,
      "start": 0.5435,
      "duration": 0.0138,
      "velocity": 91,
      "chip": "ym2612"
    },
    {
      "channel": 1,
      "note": 72,
      "start": 0.544,
      "duration": 0.0136,
      "velocity": 94,
      "chip": "ym2612"
    },
    {
      "channel": 2,
      "note": 84,
      "start": 0.5445,
      "duration": 0.0133,
      "velocity": 94,
      "chip": "ym2612"
    },
    {
      "channel": 3,
      "note": 85,
      "start": 0.5451,
      "duration": 0.013,
      "velocity": 92,
      "chip": "ym2612"
    },
    {
      "channel": 0,
      "note": 56,
      "start": 0.5625,
      "duration": 0.0148,
      "velocity": 91,
      "chip": "ym2612"
    },
    {
      "channel": 1,
      "note": 68,
      "start": 0.5632,
      "duration": 0.0144,
      "velocity": 94,
      "chip": "ym2612"
    },
    {
      "channel": 2,
      "note": 80,
      "start": 0.5638,
      "duration": 0.0141,
      "velocity": 94,
      "chip": "ym2612"
    },
    {
      "channel": 3,
      "note": 84,
      "start": 0.5647,
      "duration": 0.0134,
      "velocity": 92,
      "chip": "ym2612"
    },
    {
      "channel": 4,
      "note": 57,
      "start": 0.5656,
      "duration": 0.0642,
      "velocity": 94,
      "chip": "ym2612"
    },
    {
      "channel": 0,
      "note": 68,
      "start": 0.5801,
      "duration": 0.0137,
      "velocity": 91,
      "chip": "ym2612"
    },
    {
      "channel": 1,
      "note": 80,
      "start": 0.5807,
      "duration": 0.0135,
      "velocity": 94,
      "chip": "ym2612"
    },
    {
      "channel": 2,
      "note": 92,
      "start": 0.5812,
      "duration": 0.0132,
      "velocity": 94,
      "chip": "ym2612"
    },
    {
      "channel": 3,
      "note": 80,
      "start": 0.5818,
      "duration": 0.0129,
      "velocity": 92,
      "chip": "ym2612"
    },
    {
      "channel": 0,
      "note": 68,
      "start": 0.5979,
      "duration": 0.0135,
      "velocity": 91,
      "chip": "ym2612"
    },
    {
      "channel": 1,
      "note": 80,
      "start": 0.5984,
      "duration": 0.0132,
      "velocity": 94,
      "chip": "ym2612"
    },
    {
      "channel": 2,
      "note": 92,
      "start": 0.5989,
      "duration": 0.0129,
      "velocity": 94,
      "chip": "ym2612"
    },
    {
      "channel": 3,
      "note": 92,
      "start": 0.5995,
      "duration": 0.0127,
      "velocity": 92,
      "chip": "ym2612"
    },
    {
      "channel": 0,
      "note": 58,
      "start": 0.6148,
      "duration": 0.0138,
      "velocity": 91,
      "chip": "ym2612"
    },
    {
      "channel": 1,
      "note": 70,
      "start": 0.6153,
      "duration": 0.0135,
      "velocity": 94,
      "chip": "ym2612"
    },
    {
      "channel": 2,
      "note": 82,
      "start": 0.6158,
      "duration": 0.0134,
      "velocity": 94,
      "chip": "ym2612"
    },
    {
      "channel": 3,
      "note": 92,
      "start": 0.6164,
      "duration": 0.013,
      "velocity": 92,
      "chip": "ym2612"
    },
    {
      "channel": 0,
      "note": 67,
      "start": 0.6316,
      "duration": 0.0143,
      "velocity": 91,
      "chip": "ym2612"
    },
    {
      "channel": 1,
      "note": 79,
      "start": 0.6322,
      "duration": 0.014,
      "velocity": 94,
      "chip": "ym2612"
    },
    {
      "channel": 2,
      "note": 91,
      "start": 0.6327,
      "duration": 0.0138,
      "velocity": 94,
      "chip": "ym2612"
    },
    {
      "channel": 3,
      "note": 82,
      "start": 0.6332,
      "duration": 0.0136,
      "velocity": 92,
      "chip": "ym2612"
    },
    {
      "channel": 4,
      "note": 57,
      "start": 0.6341,
      "duration": 0.063,
      "velocity": 94,
      "chip": "ym2612"
    },
    {
      "channel": 0,
      "note": 59,
      "start": 0.6487,
      "duration": 0.0137,
      "velocity": 91,
      "chip": "ym2612"
    },
    {
      "channel": 1,
      "note": 71,
      "start": 0.6493,
      "duration": 0.0134,
      "velocity": 94,
      "chip": "ym2612"
    },
    {
      "channel": 2,
      "note": 83,
      "start": 0.6498,
      "duration": 0.0132,
      "velocity": 94,
      "chip": "ym2612"
    },
    {
      "channel": 3,
      "note": 91,
      "start": 0.6503,
      "duration": 0.0129,
      "velocity": 92,
      "chip": "ym2612"
    },
    {
      "channel": 0,
      "note": 66,
      "start": 0.6654,
      "duration": 0.0132,
      "velocity": 91,
      "chip": "ym2612"
    },
    {
      "channel": 1,
      "note": 78,
      "start": 0.6659,
      "duration": 0.013,
      "velocity": 94,
      "chip": "ym2612"
    },
    {
      "channel": 2,
      "note": 90,
      "start": 0.6664,
      "duration": 0.0127,
      "velocity": 94,
      "chip": "ym2612"
    },
    {
      "channel": 3,
      "note": 83,
      "start": 0.667,
      "duration": 0.0124,
      "velocity": 92,
      "chip": "ym2612"
    },
    {
      "channel": 0,
      "note": 65,
      "start": 0.6814,
      "duration": 0.0146,
      "velocity": 91,
      "chip": "ym2612"
    },
    {
      "channel": 1,
      "note": 77,
      "start": 0.6819,
      "duration": 0.0143,
      "velocity": 94,
      "chip": "ym2612"
    },
    {
      "channel": 2,
      "note": 89,
      "start": 0.6824,
      "duration": 0.0141,
      "velocity": 94,
      "chip": "ym2612"
    },
    {
      "channel": 3,
      "note": 90,
      "start": 0.683,
      "duration": 0.0138,
      "velocity": 92,
      "chip": "ym2612"
    },
    {
      "channel": 0,
      "note": 60,
      "start": 0.6994,
      "duration": 0.0141,
      "velocity": 91,
      "chip": "ym2612"
    },
    {
      "channel": 1,
      "note": 72,
      "start": 0.6999,
      "duration": 0.0139,
      "velocity": 94,
      "chip": "ym2612"
    },
    {
      "channel": 2,
      "note": 84,
      "start": 0.7005,
      "duration": 0.0137,
      "velocity": 94,
      "chip": "ym2612"
    },
    {
      "channel": 3,
      "note": 89,
      "start": 0.701,
      "duration": 0.0134,
      "velocity": 92,
      "chip": "ym2612"
    },
    {
      "channel": 4,
      "note": 57,
      "start": 0.7019,
      "duration": 0.0635,
      "velocity": 94,
      "chip": "ym2612"
    },
    {
      "channel": 0,
      "note": 64,
      "start": 0.7164,
      "duration": 0.014,
      "velocity": 91,
      "chip": "ym2612"
    },
    {
      "channel": 1,
      "note": 76,
      "start": 0.7169,
      "duration": 0.0137,
      "velocity": 94,
      "chip": "ym2612"
    },
    {
      "channel": 2,
      "note": 88,
      "start": 0.7174,
      "duration": 0.0135,
      "velocity": 94,
      "chip": "ym2612"
    },
    {
      "channel": 3,
      "note": 84,
      "start": 0.718,
      "duration": 0.0132,
      "velocity": 92,
      "chip": "ym2612"
    },
    {
      "channel": 0,
      "note": 63,
      "start": 0.7333,
      "duration": 0.0139,
      "velocity": 91,
      "chip": "ym2612"
    },
    {
      "channel": 1,
      "note": 75,
      "start": 0.7341,
      "duration": 0.0134,
      "velocity": 94,
      "chip": "ym2612"
    },
    {
      "channel": 2,
      "note": 87,
      "start": 0.7346,
      "duration": 0.0132,
      "velocity": 94,
      "chip": "ym2612"
    },
    {
      "channel": 3,
      "note": 88,
      "start": 0.7351,
      "duration": 0.0129,
      "velocity": 92,
      "chip": "ym2612"
    },
    {
      "channel": 0,
      "note": 59,
      "start": 0.7504,
      "duration": 0.0138,
      "velocity": 91,
      "chip": "ym2612"
    },
    {
      "channel": 1,
      "note": 71,
      "start": 0.7509,
      "duration": 0.0136,
      "velocity": 94,
      "chip": "ym2612"
    },
    {
      "channel": 2,
      "note": 83,
      "start": 0.7514,
      "duration": 0.0133,
      "velocity": 94,
      "chip": "ym2612"
    },
    {
      "channel": 3,
      "note": 87,
      "start": 0.7521,
      "duration": 0.013,
      "velocity": 92,
      "chip": "ym2612"
    },
    {
      "channel": 0,
      "note": 62,
      "start": 0.7671,
      "duration": 0.0139,
      "velocity": 91,
      "chip": "ym2612"
    },
    {
      "channel": 1,
      "note": 74,
      "start": 0.7676,
      "duration": 0.0137,
      "velocity": 94,
      "chip": "ym2612"
    },
    {
      "channel": 2,
      "note": 86,
      "start": 0.7681,
      "duration": 0.0134,
      "velocity": 94,
      "chip": "ym2612"
    },
    {
      "channel": 3,
      "note": 83,
      "start": 0.7687,
      "duration": 0.0132,
      "velocity": 92,
      "chip": "ym2612"
    },
    {
      "channel": 4,
      "note": 57,
      "start": 0.7695,
      "duration": 0.0626,
      "velocity": 94,
      "chip": "ym2612"
    },
    {
      "channel": 0,
      "note": 58,
      "start": 0.7839,
      "duration": 0.0137,
      "velocity": 91,
      "chip": "ym2612"
    },
    {
      "channel": 1,
      "note": 70,
      "start": 0.7844,
      "duration": 0.0134,
      "velocity": 94,
      "chip": "ym2612"
    },
    {
      "channel": 2,
      "note": 82,
      "start": 0.7849,
      "duration": 0.0132,
      "velocity": 94,
      "chip": "ym2612"
    },
    {
      "channel": 3,
      "note": 86,
      "start": 0.7858,
      "duration": 0.0126,
      "velocity": 92,
      "chip": "ym2612"
    },
    {
      "channel": 0,
      "note": 61,
      "start": 0.8004,
      "duration": 0.014,
      "velocity": 91,
      "chip": "ym2612"
    },
    {
      "channel": 1,
      "note": 73,
      "start": 0.8009,
      "duration": 0.0138,
      "velocity": 94,
      "chip": "ym2612"
    },
    {
      "channel": 2,
      "note": 85,
      "start": 0.8014,
      "duration": 0.0135,
      "velocity": 94,
      "chip": "ym2612"
    },
    {
      "channel": 3,
      "note": 82,
      "start": 0.8021,
      "duration": 0.0132,
      "velocity": 92,
      "chip": "ym2612"
    },
    {
      "channel": 0,
      "note": 60,
      "start": 0.8173,
      "duration": 0.0135,
      "velocity": 91,
      "chip": "ym2612"
    },
    {
      "channel": 1,
      "note": 72,
      "start": 0.8178,
      "duration": 0.0133,
      "velocity": 94,
      "chip": "ym2612"
    },
    {
      "channel": 2,
      "note": 84,
      "start": 0.8183,
      "duration": 0.013,
      "velocity": 94,
      "chip": "ym2612"
    },
    {
      "channel": 3,
      "note": 85,
      "start": 0.8189,
      "duration": 0.0127,
      "velocity": 92,
      "chip": "ym2612"
    },
    {
      "channel": 0,
      "note": 56,
      "start": 0.834,
      "duration": 0.015,
      "velocity": 91,
      "chip": "ym2612"
    },
    {
      "channel": 1,
      "note": 68,
      "start": 0.8346,
      "duration": 0.0146,
      "velocity": 94,
      "chip": "ym2612"
    },
    {
      "channel": 2,
      "note": 80,
      "start": 0.8353,
      "duration": 0.0142,
      "velocity": 94,
      "chip": "ym2612"
    },
    {
      "channel": 3,
      "note": 84,
      "start": 0.8361,
      "duration": 0.0138,
      "velocity": 92,
      "chip": "ym2612"
    },
    {
      "channel": 4,
      "note": 57,
      "start": 0.8371,
      "duration": 0.064,
      "velocity": 94,
      "chip": "ym2612"
    },
    {
      "channel": 0,
      "note": 68,
      "start": 0.8518,
      "duration": 0.0135,
      "velocity": 91,
      "chip": "ym2612"
    },
    {
      "channel": 1,
      "note": 80,
      "start": 0.8523,
      "duration": 0.0132,
      "velocity": 94,
      "chip": "ym2612"
    },
    {
      "channel": 2,
      "note": 92,
      "start": 0.8528,
      "duration": 0.013,
      "velocity": 94,
      "chip": "ym2612"
    },
    {
      "channel": 3,
      "note": 80,
      "start": 0.8534,
      "duration": 0.0127,
      "velocity": 92,
      "chip": "ym2612"
    },
    {
      "channel": 0,
      "note": 68,
      "start": 0.8693,
      "duration": 0.0137,
      "velocity": 91,
      "chip": "ym2612"
    },
    {
      "channel": 1,
      "note": 80,
      "start": 0.8698,
      "duration": 0.0134,
      "velocity": 94,
      "chip": "ym2612"
    },
    {
      "channel": 2,
      "note": 92,
      "start": 0.8703,
      "duration": 0.0132,
      "velocity": 94,
      "chip": "ym2612"
    },
    {
      "channel": 3,
      "note": 92,
      "start": 0.8709,
      "duration": 0.0129,
      "velocity": 92,
      "chip": "ym2612"
    },
    {
      "channel": 0,
      "note": 58,
      "start": 0.8864,
      "duration": 0.0135,
      "velocity": 91,
      "chip": "ym2612"
    },
    {
      "channel": 1,
      "note": 70,
      "start": 0.8869,
      "duration": 0.0132,
      "velocity": 94,
      "chip": "ym2612"
    },
    {
      "channel": 2,
      "note": 82,
      "start": 0.8874,
      "duration": 0.013,
      "velocity": 94,
      "chip": "ym2612"
    },
    {
      "channel": 3,
      "note": 92,
      "start": 0.888,
      "duration": 0.0127,
      "velocity": 92,
      "chip": "ym2612"
    },
    {
      "channel": 0,
      "note": 67,
      "start": 0.9028,
      "duration": 0.0142,
      "velocity": 91,
      "chip": "ym2612"
    },
    {
      "channel": 1,
      "note": 79,
      "start": 0.9034,
      "duration": 0.014,
      "velocity": 94,
      "chip": "ym2612"
    },
    {
      "channel": 2,
      "note": 91,
      "start": 0.9039,
      "duration": 0.0137,
      "velocity": 94,
      "chip": "ym2612"
    },
    {
      "channel": 3,
      "note": 82,
      "start": 0.9044,
      "duration": 0.0135,
      "velocity": 92,
      "chip": "ym2612"
    },
    {
      "channel": 4,
      "note": 57,
      "start": 0.9053,
      "duration": 0.0632,
      "velocity": 94,
      "chip": "ym2612"
    },
    {
      "channel": 0,
      "note": 59,
      "start": 0.92,
      "duration": 0.0137,
      "velocity": 91,
      "chip": "ym2612"
    },
    {
      "channel": 1,
      "note": 71,
      "start": 0.9205,
      "duration": 0.0134,
      "velocity": 94,
      "chip": "ym2612"
    },
    {
      "channel": 2,
      "note": 83,
      "start": 0.921,
      "duration": 0.0133,
      "velocity": 94,
      "chip": "ym2612"
    },
    {
      "channel": 3,
      "note": 91,
      "start": 0.9216,
      "duration": 0.0129,
      "velocity": 92,
      "chip": "ym2612"
    },
    {
      "channel": 0,
      "note": 66,
      "start": 0.9365,
      "duration": 0.013,
      "velocity": 91,
      "chip": "ym2612"
    },
    {
      "channel": 1,
      "note": 78,
      "start": 0.937,
      "duration": 0.0128,
      "velocity": 94,
      "chip": "ym2612"
    },
    {
      "channel": 2,
      "note": 90,
      "start": 0.9375,
      "duration": 0.0125,
      "velocity": 94,
      "chip": "ym2612"
    },
    {
      "channel": 3,
      "note": 83,
      "start": 0.938,
      "duration": 0.0122,
      "velocity": 92,
      "chip": "ym2612"
    },
    {
      "channel": 0,
      "note": 65,
      "start": 0.9528,
      "duration": 0.0145,
      "velocity": 91,
      "chip": "ym2612"
    },
    {
      "channel": 1,
      "note": 77,
      "start": 0.9533,
      "duration": 0.0143,
      "velocity": 94,
      "chip": "ym2612"
    },
    {
      "channel": 2,
      "note": 89,
      "start": 0.9538,
      "duration": 0.014,
      "velocity": 94,
      "chip": "ym2612"
    },
    {
      "channel": 3,
      "note": 90,
      "start": 0.9544,
      "duration": 0.0138,
      "velocity": 92,
      "chip": "ym2612"
    },
    {
      "channel": 0,
      "note": 60,
      "start": 0.9702,
      "duration": 0.0153,
      "velocity": 91,
      "chip": "ym2612"
    },
    {
      "channel": 1,
      "note": 72,
      "start": 0.9707,
      "duration": 0.015,
      "velocity": 94,
      "chip": "ym2612"
    },
    {
      "channel": 2,
      "note": 84,
      "start": 0.9712,
      "duration": 0.0148,
      "velocity": 94,
      "chip": "ym2612"
    },
    {
      "channel": 3,
      "note": 89,
      "start": 0.9717,
      "duration": 0.0145,
      "velocity": 92,
      "chip": "ym2612"
    },
    {
      "channel": 4,
      "note": 57,
      "start": 0.9726,
      "duration": 0.0652,
      "velocity": 94,
      "chip": "ym2612"
    },
    {
      "channel": 0,
      "note": 64,
      "start": 0.9886,
      "duration": 0.0142,
      "velocity": 91,
      "chip": "ym2612"
    },
    {
      "channel": 1,
      "note": 76,
      "start": 0.9891,
      "duration": 0.0139,
      "velocity": 94,
      "chip": "ym2612"
    },
    {
      "channel": 2,
      "note": 88,
      "start": 0.9896,
      "duration": 0.0137,
      "velocity": 94,
      "chip": "ym2612"
    },
    {
      "channel": 3,
      "note": 84,
      "start": 0.9902,
      "duration": 0.0134,
      "velocity": 92,
      "chip": "ym2612"
    },
    {
      "channel": 0,
      "note": 63,
      "start": 1.0059,
      "duration": 0.0138,
      "velocity": 91,
      "chip": "ym2612"
    },
    {
      "channel": 1,
      "note": 75,
      "start": 1.0064,
      "duration": 0.0135,
      "velocity": 94,
      "chip": "ym2612"
    },
    {
      "channel": 2,
      "note": 87,
      "start": 1.0069,
      "duration": 0.0133,
      "velocity": 94,
      "chip": "ym2612"
    },
    {
      "channel": 3,
      "note": 88,
      "start": 1.0077,
      "duration": 0.0128,
      "velocity": 92,
      "chip": "ym2612"
    },
    {
      "channel": 0,
      "note": 59,
      "start": 1.0226,
      "duration": 0.014,
      "velocity": 91,
      "chip": "ym2612"
    },
    {
      "channel": 1,
      "note": 71,
      "start": 1.0231,
      "duration": 0.0137,
      "velocity": 94,
      "chip": "ym2612"
    },
    {
      "channel": 2,
      "note": 83,
      "start": 1.0237,
      "duration": 0.0134,
      "velocity": 94,
      "chip": "ym2612"
    },
    {
      "channel": 3,
      "note": 87,
      "start": 1.0242,
      "duration": 0.0132,
      "velocity": 92,
      "chip": "ym2612"
    },
    {
      "channel": 0,
      "note": 62,
      "start": 1.0396,
      "duration": 0.0139,
      "velocity": 91,
      "chip": "ym2612"
    },
    {
      "channel": 1,
      "note": 74,
      "start": 1.0401,
      "duration": 0.0136,
      "velocity": 94,
      "chip": "ym2612"
    },
    {
      "channel": 2,
      "note": 86,
      "start": 1.0406,
      "duration": 0.0134,
      "velocity": 94,
      "chip": "ym2612"
    },
    {
      "channel": 3,
      "note": 83,
      "start": 1.0412,
      "duration": 0.0133,
      "velocity": 92,
      "chip": "ym2612"
    },
    {
      "channel": 4,
      "note": 57,
      "start": 1.042,
      "duration": 0.065,
      "velocity": 94,
      "chip": "ym2612"
    },
    {
      "channel": 0,
      "note": 58,
      "start": 1.0567,
      "duration": 0.0137,
      "velocity": 91,
      "chip": "ym2612"
    },
    {
      "channel": 1,
      "note": 70,
      "start": 1.0572,
      "duration": 0.0135,
      "velocity": 94,
      "chip": "ym2612"
    },
    {
      "channel": 2,
      "note": 82,
      "start": 1.0577,
      "duration": 0.0132,
      "velocity": 94,
      "chip": "ym2612"
    },
    {
      "channel": 3,
      "note": 86,
      "start": 1.0583,
      "duration": 0.0129,
      "velocity": 92,
      "chip": "ym2612"
    },
    {
      "channel": 0,
      "note": 61,
      "start": 1.0754,
      "duration": 0.0136,
      "velocity": 91,
      "chip": "ym2612"
    },
    {
      "channel": 1,
      "note": 73,
      "start": 1.0759,
      "duration": 0.0133,
      "velocity": 94,
      "chip": "ym2612"
    },
    {
      "channel": 2,
      "note": 85,
      "start": 1.0764,
      "duration": 0.0131,
      "velocity": 94,
      "chip": "ym2612"
    },
    {
      "channel": 3,
      "note": 82,
      "start": 1.077,
      "duration": 0.0128,
      "velocity": 92,
      "chip": "ym2612"
    },
    {
      "channel": 0,
      "note": 60,
      "start": 1.092,
      "duration": 0.0139,
      "velocity": 91,
      "chip": "ym2612"
    },
    {
      "channel": 1,
      "note": 72,
      "start": 1.0925,
      "duration": 0.0136,
      "velocity": 94,
      "chip": "ym2612"
    },
    {
      "channel": 2,
      "note": 84,
      "start": 1.093,
      "duration": 0.0134,
      "velocity": 94,
      "chip": "ym2612"
    },
    {
      "channel": 3,
      "note": 85,
      "start": 1.0936,
      "duration": 0.0131,
      "velocity": 92,
      "chip": "ym2612"
    },
    {
      "channel": 0,
      "note": 54,
      "start": 1.1115,
      "duration": 0.0208,
      "velocity": 91,
      "chip": "ym2612"
    },
    {
      "channel": 1,
      "note": 66,
      "start": 1.1124,
      "duration": 0.1124,
      "velocity": 94,
      "chip": "ym2612"
    },
    {
      "channel": 2,
      "note": 73,
      "start": 1.1132,
      "duration": 0.112,
      "velocity": 94,
      "chip": "ym2612"
    },
    {
      "channel": 3,
      "note": 84,
      "start": 1.1143,
      "duration": 0.0187,
      "velocity": 92,
      "chip": "ym2612"
    },
    {
      "channel": 4,
      "note": 57,
      "start": 1.1201,
      "duration": 0.0133,
      "velocity": 94,
      "chip": "ym2612"
    },
    {
      "channel": 0,
      "note": 54,
      "start": 1.1352,
      "duration": 0.0159,
      "velocity": 91,
      "chip": "ym2612"
    },
    {
      "channel": 3,
      "note": 78,
      "start": 1.1364,
      "duration": 0.0154,
      "velocity": 92,
      "chip": "ym2612"
    },
    {
      "channel": 4,
      "note": 57,
      "start": 1.1393,
      "duration": 0.0129,
      "velocity": 94,
      "chip": "ym2612"
    },
    {
      "channel": 0,
      "note": 54,
      "start": 1.154,
      "duration": 0.0135,
      "velocity": 91,
      "chip": "ym2612"
    },
    {
      "channel": 3,
      "note": 90,
      "start": 1.1551,
      "duration": 0.0133,
      "velocity": 92,
      "chip": "ym2612"
    },
    {
      "channel": 4,
      "note": 57,
      "start": 1.1557,
      "duration": 0.0129,
      "velocity": 94,
      "chip": "ym2612"
    },
    {
      "channel": 0,
      "note": 54,
      "start": 1.1707,
      "duration": 0.0136,
      "velocity": 91,
      "chip": "ym2612"
    },
    {
      "channel": 3,
      "note": 90,
      "start": 1.1719,
      "duration": 0.0132,
      "velocity": 92,
      "chip": "ym2612"
    },
    {
      "channel": 4,
      "note": 57,
      "start": 1.1725,
      "duration": 0.013,
      "velocity": 94,
      "chip": "ym2612"
    },
    {
      "channel": 3,
      "note": 80,
      "start": 1.1882,
      "duration": 0.0181,
      "velocity": 92,
      "chip": "ym2612"
    },
    {
      "channel": 4,
      "note": 57,
      "start": 1.1936,
      "duration": 0.0131,
      "velocity": 94,
      "chip": "ym2612"
    },
    {
      "channel": 0,
      "note": 49,
      "start": 1.2083,
      "duration": 0.0163,
      "velocity": 91,
      "chip": "ym2612"
    },
    {
      "channel": 3,
      "note": 89,
      "start": 1.2095,
      "duration": 0.0159,
      "velocity": 92,
      "chip": "ym2612"
    },
    {
      "channel": 4,
      "note": 57,
      "start": 1.2125,
      "duration": 0.0133,
      "velocity": 94,
      "chip": "ym2612"
    },
    {
      "channel": 0,
      "note": 52,
      "start": 1.2278,
      "duration": 0.0139,
      "velocity": 91,
      "chip": "ym2612"
    },
    {
      "channel": 1,
      "note": 68,
      "start": 1.2283,
      "duration": 0.2617,
      "velocity": 94,
      "chip": "ym2612"
    },
    {
      "channel": 2,
      "note": 75,
      "start": 1.2288,
      "duration": 0.2615,
      "velocity": 94,
      "chip": "ym2612"
    },
    {
      "channel": 3,
      "note": 81,
      "start": 1.2295,
      "duration": 0.013,
      "velocity": 92,
      "chip": "ym2612"
    },
    {
      "channel": 4,
      "note": 57,
      "start": 1.2302,
      "duration": 0.0127,
      "velocity": 94,
      "chip": "ym2612"
    },
    {
      "channel": 0,
      "note": 53,
      "start": 1.2445,
      "duration": 0.0132,
      "velocity": 91,
      "chip": "ym2612"
    },
    {
      "channel": 3,
      "note": 88,
      "start": 1.2458,
      "duration": 0.0126,
      "velocity": 92,
      "chip": "ym2612"
    },
    {
      "channel": 4,
      "note": 57,
      "start": 1.2464,
      "duration": 0.0123,
      "velocity": 94,
      "chip": "ym2612"
    },
    {
      "channel": 0,
      "note": 54,
      "start": 1.261,
      "duration": 0.0184,
      "velocity": 91,
      "chip": "ym2612"
    },
    {
      "channel": 3,
      "note": 87,
      "start": 1.2621,
      "duration": 0.018,
      "velocity": 92,
      "chip": "ym2612"
    },
    {
      "channel": 4,
      "note": 57,
      "start": 1.2675,
      "duration": 0.0129,
      "velocity": 94,
      "chip": "ym2612"
    },
    {
      "channel": 0,
      "note": 66,
      "start": 1.2822,
      "duration": 0.0157,
      "velocity": 91,
      "chip": "ym2612"
    },
    {
      "channel": 3,
      "note": 82,
      "start": 1.2833,
      "duration": 0.0156,
      "velocity": 92,
      "chip": "ym2612"
    },
    {
      "channel": 4,
      "note": 57,
      "start": 1.2862,
      "duration": 0.0129,
      "velocity": 94,
      "chip": "ym2612"
    },
    {
      "channel": 0,
      "note": 54,
      "start": 1.3014,
      "duration": 0.0137,
      "velocity": 91,
      "chip": "ym2612"
    },
    {
      "channel": 3,
      "note": 86,
      "start": 1.3024,
      "duration": 0.0136,
      "velocity": 92,
      "chip": "ym2612"
    },
    {
      "channel": 4,
      "note": 57,
      "start": 1.3031,
      "duration": 0.0133,
      "velocity": 94,
      "chip": "ym2612"
    },
    {
      "channel": 0,
      "note": 52,
      "start": 1.3202,
      "duration": 0.0139,
      "velocity": 91,
      "chip": "ym2612"
    },
    {
      "channel": 3,
      "note": 85,
      "start": 1.3214,
      "duration": 0.0134,
      "velocity": 92,
      "chip": "ym2612"
    },
    {
      "channel": 4,
      "note": 57,
      "start": 1.3221,
      "duration": 0.0131,
      "velocity": 94,
      "chip": "ym2612"
    },
    {
      "channel": 0,
      "note": 49,
      "start": 1.3369,
      "duration": 0.016,
      "velocity": 91,
      "chip": "ym2612"
    },
    {
      "channel": 3,
      "note": 81,
      "start": 1.3381,
      "duration": 0.0156,
      "velocity": 92,
      "chip": "ym2612"
    },
    {
      "channel": 4,
      "note": 57,
      "start": 1.3412,
      "duration": 0.0128,
      "velocity": 94,
      "chip": "ym2612"
    },
    {
      "channel": 0,
      "note": 61,
      "start": 1.3582,
      "duration": 0.0162,
      "velocity": 91,
      "chip": "ym2612"
    },
    {
      "channel": 3,
      "note": 84,
      "start": 1.3594,
      "duration": 0.0158,
      "velocity": 92,
      "chip": "ym2612"
    },
    {
      "channel": 4,
      "note": 57,
      "start": 1.3626,
      "duration": 0.013,
      "velocity": 94,
      "chip": "ym2612"
    },
    {
      "channel": 0,
      "note": 52,
      "start": 1.3773,
      "duration": 0.0189,
      "velocity": 91,
      "chip": "ym2612"
    },
    {
      "channel": 3,
      "note": 80,
      "start": 1.3785,
      "duration": 0.0185,
      "velocity": 92,
      "chip": "ym2612"
    },
    {
      "channel": 4,
      "note": 57,
      "start": 1.3838,
      "duration": 0.0295,
      "velocity": 94,
      "chip": "ym2612"
    },
    {
      "channel": 0,
      "note": 64,
      "start": 1.399,
      "duration": 0.0131,
      "velocity": 91,
      "chip": "ym2612"
    },
    {
      "channel": 3,
      "note": 83,
      "start": 1.4001,
      "duration": 0.0129,
      "velocity": 92,
      "chip": "ym2612"
    },
    {
      "channel": 0,
      "note": 54,
      "start": 1.4164,
      "duration": 0.0191,
      "velocity": 91,
      "chip": "ym2612"
    },
    {
      "channel": 3,
      "note": 82,
      "start": 1.4178,
      "duration": 0.0185,
      "velocity": 92,
      "chip": "ym2612"
    },
    {
      "channel": 4,
      "note": 57,
      "start": 1.4234,
      "duration": 0.0132,
      "velocity": 94,
      "chip": "ym2612"
    },
    {
      "channel": 0,
      "note": 54,
      "start": 1.4384,
      "duration": 0.0163,
      "velocity": 91,
      "chip": "ym2612"
    },
    {
      "channel": 3,
      "note": 78,
      "start": 1.4396,
      "duration": 0.0159,
      "velocity": 92,
      "chip": "ym2612"
    },
    {
      "channel": 4,
      "note": 57,
      "start": 1.4426,
      "duration": 0.0132,
      "velocity": 94,
      "chip": "ym2612"
    },
    {
      "channel": 0,
      "note": 54,
      "start": 1.4592,
      "duration": 0.0139,
      "velocity": 91,
      "chip": "ym2612"
    },
    {
      "channel": 3,
      "note": 90,
      "start": 1.4603,
      "duration": 0.0136,
      "velocity": 92,
      "chip": "ym2612"
    },
    {
      "channel": 4,
      "note": 57,
      "start": 1.4609,
      "duration": 0.0134,
      "velocity": 94,
      "chip": "ym2612"
    },
    {
      "channel": 0,
      "note": 54,
      "start": 1.476,
      "duration": 0.0138,
      "velocity": 91,
      "chip": "ym2612"
    },
    {
      "channel": 3,
      "note": 90,
      "start": 1.4772,
      "duration": 0.0135,
      "velocity": 92,
      "chip": "ym2612"
    },
    {
      "channel": 4,
      "note": 57,
      "start": 1.4779,
      "duration": 0.0132,
      "velocity": 94,
      "chip": "ym2612"
    },
    {
      "channel": 1,
      "note": 66,
      "start": 1.4932,
      "duration": 0.072,
      "velocity": 94,
      "chip": "ym2612"
    },
    {
      "channel": 2,
      "note": 73,
      "start": 1.494,
      "duration": 0.0715,
      "velocity": 94,
      "chip": "ym2612"
    },
    {
      "channel": 3,
      "note": 80,
      "start": 1.4947,
      "duration": 0.0173,
      "velocity": 92,
      "chip": "ym2612"
    },
    {
      "channel": 4,
      "note": 57,
      "start": 1.5001,
      "duration": 0.0122,
      "velocity": 94,
      "chip": "ym2612"
    },
    {
      "channel": 0,
      "note": 49,
      "start": 1.5158,
      "duration": 0.0159,
      "velocity": 91,
      "chip": "ym2612"
    },
    {
      "channel": 3,
      "note": 89,
      "start": 1.5171,
      "duration": 0.0153,
      "velocity": 92,
      "chip": "ym2612"
    },
    {
      "channel": 4,
      "note": 57,
      "start": 1.52,
      "duration": 0.0128,
      "velocity": 94,
      "chip": "ym2612"
    },
    {
      "channel": 0,
      "note": 52,
      "start": 1.5352,
      "duration": 0.0134,
      "velocity": 91,
      "chip": "ym2612"
    },
    {
      "channel": 3,
      "note": 81,
      "start": 1.5363,
      "duration": 0.0132,
      "velocity": 92,
      "chip": "ym2612"
    },
    {
      "channel": 4,
      "note": 57,
      "start": 1.537,
      "duration": 0.0129,
      "velocity": 94,
      "chip": "ym2612"
    },
    {
      "channel": 0,
      "note": 53,
      "start": 1.5516,
      "duration": 0.0133,
      "velocity": 91,
      "chip": "ym2612"
    },
    {
      "channel": 3,
      "note": 88,
      "start": 1.5526,
      "duration": 0.0132,
      "velocity": 92,
      "chip": "ym2612"
    },
    {
      "channel": 4,
      "note": 57,
      "start": 1.5532,
      "duration": 0.0129,
      "velocity": 94,
      "chip": "ym2612"
    },
    {
      "channel": 0,
      "note": 54,
      "start": 1.5686,
      "duration": 0.019,
      "velocity": 91,
      "chip": "ym2612"
    },
    {
      "channel": 1,
      "note": 68,
      "start": 1.5691,
      "duration": 0.0705,
      "velocity": 94,
      "chip": "ym2612"
    },
    {
      "channel": 2,
      "note": 75,
      "start": 1.5696,
      "duration": 0.0703,
      "velocity": 94,
      "chip": "ym2612"
    },
    {
      "channel": 3,
      "note": 87,
      "start": 1.5704,
      "duration": 0.018,
      "velocity": 92,
      "chip": "ym2612"
    },
    {
      "channel": 4,
      "note": 57,
      "start": 1.5757,
      "duration": 0.013,
      "velocity": 94,
      "chip": "ym2612"
    },
    {
      "channel": 0,
      "note": 66,
      "start": 1.5904,
      "duration": 0.0153,
      "velocity": 91,
      "chip": "ym2612"
    },
    {
      "channel": 3,
      "note": 82,
      "start": 1.5915,
      "duration": 0.0149,
      "velocity": 92,
      "chip": "ym2612"
    },
    {
      "channel": 4,
      "note": 57,
      "start": 1.5944,
      "duration": 0.0123,
      "velocity": 94,
      "chip": "ym2612"
    },
    {
      "channel": 0,
      "note": 54,
      "start": 1.6089,
      "duration": 0.0134,
      "velocity": 91,
      "chip": "ym2612"
    },
    {
      "channel": 3,
      "note": 86,
      "start": 1.61,
      "duration": 0.0131,
      "velocity": 92,
      "chip": "ym2612"
    },
    {
      "channel": 4,
      "note": 57,
      "start": 1.6106,
      "duration": 0.0128,
      "velocity": 94,
      "chip": "ym2612"
    },
    {
      "channel": 0,
      "note": 52,
      "start": 1.6252,
      "duration": 0.0141,
      "velocity": 91,
      "chip": "ym2612"
    },
    {
      "channel": 3,
      "note": 85,
      "start": 1.6264,
      "duration": 0.0139,
      "velocity": 92,
      "chip": "ym2612"
    },
    {
      "channel": 4,
      "note": 57,
      "start": 1.627,
      "duration": 0.0136,
      "velocity": 94,
      "chip": "ym2612"
    },
    {
      "channel": 0,
      "note": 49,
      "start": 1.6423,
      "duration": 0.0162,
      "velocity": 91,
      "chip": "ym2612"
    },
    {
      "channel": 1,
      "note": 66,
      "start": 1.6428,
      "duration": 0.0347,
      "velocity": 94,
      "chip": "ym2612"
    },
    {
      "channel": 2,
      "note": 73,
      "start": 1.6433,
      "duration": 0.0345,
      "velocity": 94,
      "chip": "ym2612"
    },
    {
      "channel": 3,
      "note": 81,
      "start": 1.6441,
      "duration": 0.0152,
      "velocity": 92,
      "chip": "ym2612"
    },
    {
      "channel": 4,
      "note": 57,
      "start": 1.6471,
      "duration": 0.0125,
      "velocity": 94,
      "chip": "ym2612"
    },
    {
      "channel": 0,
      "note": 61,
      "start": 1.6613,
      "duration": 0.0159,
      "velocity": 91,
      "chip": "ym2612"
    },
    {
      "channel": 3,
      "note": 84,
      "start": 1.6625,
      "duration": 0.0156,
      "velocity": 92,
      "chip": "ym2612"
    },
    {
      "channel": 4,
      "note": 57,
      "start": 1.6654,
      "duration": 0.0129,
      "velocity": 94,
      "chip": "ym2612"
    },
    {
      "channel": 0,
      "note": 52,
      "start": 1.6806,
      "duration": 0.0188,
      "velocity": 91,
      "chip": "ym2612"
    },
    {
      "channel": 1,
      "note": 68,
      "start": 1.6811,
      "duration": 0.0343,
      "velocity": 94,
      "chip": "ym2612"
    },
    {
      "channel": 2,
      "note": 75,
      "start": 1.6816,
      "duration": 0.034,
      "velocity": 94,
      "chip": "ym2612"
    },
    {
      "channel": 3,
      "note": 80,
      "start": 1.6823,
      "duration": 0.0177,
      "velocity": 92,
      "chip": "ym2612"
    },
    {
      "channel": 4,
      "note": 57,
      "start": 1.6876,
      "duration": 0.0287,
      "velocity": 94,
      "chip": "ym2612"
    },
    {
      "channel": 0,
      "note": 64,
      "start": 1.7021,
      "duration": 0.013,
      "velocity": 91,
      "chip": "ym2612"
    },
    {
      "channel": 3,
      "note": 83,
      "start": 1.7032,
      "duration": 0.0128,
      "velocity": 92,
      "chip": "ym2612"
    },
    {
      "channel": 0,
      "note": 55,
      "start": 1.7197,
      "duration": 0.0194,
      "velocity": 91,
      "chip": "ym2612"
    },
    {
      "channel": 1,
      "note": 69,
      "start": 1.7202,
      "duration": 0.1154,
      "velocity": 94,
      "chip": "ym2612"
    },
    {
      "channel": 2,
      "note": 76,
      "start": 1.7207,
      "duration": 0.1152,
      "velocity": 94,
      "chip": "ym2612"
    },
    {
      "channel": 3,
      "note": 82,
      "start": 1.7217,
      "duration": 0.0182,
      "velocity": 92,
      "chip": "ym2612"
    },
    {
      "channel": 4,
      "note": 57,
      "start": 1.7272,
      "duration": 0.013,
      "velocity": 94,
      "chip": "ym2612"
    },
    {
      "channel": 0,
      "note": 55,
      "start": 1.742,
      "duration": 0.0157,
      "velocity": 91,
      "chip": "ym2612"
    },
    {
      "channel": 3,
      "note": 77,
      "start": 1.7434,
      "duration": 0.015,
      "velocity": 92,
      "chip": "ym2612"
    },
    {
      "channel": 4,
      "note": 57,
      "start": 1.7463,
      "duration": 0.0125,
      "velocity": 94,
      "chip": "ym2612"
    },
    {
      "channel": 0,
      "note": 55,
      "start": 1.7626,
      "duration": 0.0135,
      "velocity": 91,
      "chip": "ym2612"
    },
    {
      "channel": 3,
      "note": 89,
      "start": 1.7636,
      "duration": 0.0132,
      "velocity": 92,
      "chip": "ym2612"
    },
    {
      "channel": 4,
      "note": 57,
      "start": 1.7642,
      "duration": 0.0129,
      "velocity": 94,
      "chip": "ym2612"
    },
    {
      "channel": 0,
      "note": 55,
      "start": 1.7792,
      "duration": 0.0137,
      "velocity": 91,
      "chip": "ym2612"
    },
    {
      "channel": 3,
      "note": 89,
      "start": 1.7803,
      "duration": 0.0134,
      "velocity": 92,
      "chip": "ym2612"
    },
    {
      "channel": 4,
      "note": 57,
      "start": 1.781,
      "duration": 0.0131,
      "velocity": 94,
      "chip": "ym2612"
    },
    {
      "channel": 3,
      "note": 78,
      "start": 1.7971,
      "duration": 0.0179,
      "velocity": 92,
      "chip": "ym2612"
    },
    {
      "channel": 4,
      "note": 57,
      "start": 1.8027,
      "duration": 0.0127,
      "velocity": 94,
      "chip": "ym2612"
    },
    {
      "channel": 0,
      "note": 54,
      "start": 1.8191,
      "duration": 0.0162,
      "velocity": 91,
      "chip": "ym2612"
    },
    {
      "channel": 3,
      "note": 88,
      "start": 1.8204,
      "duration": 0.0159,
      "velocity": 92,
      "chip": "ym2612"
    },
    {
      "channel": 4,
      "note": 57,
      "start": 1.8233,
      "duration": 0.0133,
      "velocity": 94,
      "chip": "ym2612"
    },
    {
      "channel": 0,
      "note": 55,
      "start": 1.8384,
      "duration": 0.0139,
      "velocity": 91,
      "chip": "ym2612"
    },
    {
      "channel": 1,
      "note": 65,
      "start": 1.8389,
      "duration": 0.4913,
      "velocity": 94,
      "chip": "ym2612"
    },
    {
      "channel": 2,
      "note": 72,
      "start": 1.8395,
      "duration": 0.4911,
      "velocity": 94,
      "chip": "ym2612"
    },
    {
      "channel": 3,
      "note": 79,
      "start": 1.8402,
      "duration": 0.0129,
      "velocity": 92,
      "chip": "ym2612"
    },
    {
      "channel": 4,
      "note": 57,
      "start": 1.8408,
      "duration": 0.0128,
      "velocity": 94,
      "chip": "ym2612"
    },
    {
      "channel": 0,
      "note": 54,
      "start": 1.8553,
      "duration": 0.0131,
      "velocity": 91,
      "chip": "ym2612"
    },
    {
      "channel": 3,
      "note": 87,
      "start": 1.8563,
      "duration": 0.0129,
      "velocity": 92,
      "chip": "ym2612"
    },
    {
      "channel": 4,
      "note": 57,
      "start": 1.857,
      "duration": 0.0126,
      "velocity": 94,
      "chip": "ym2612"
    },
    {
      "channel": 0,
      "note": 55,
      "start": 1.8718,
      "duration": 0.0182,
      "velocity": 91,
      "chip": "ym2612"
    },
    {
      "channel": 3,
      "note": 86,
      "start": 1.8728,
      "duration": 0.0179,
      "velocity": 92,
      "chip": "ym2612"
    },
    {
      "channel": 4,
      "note": 57,
      "start": 1.8782,
      "duration": 0.0129,
      "velocity": 94,
      "chip": "ym2612"
    },
    {
      "channel": 0,
      "note": 55,
      "start": 1.8929,
      "duration": 0.0158,
      "velocity": 91,
      "chip": "ym2612"
    },
    {
      "channel": 3,
      "note": 85,
      "start": 1.8941,
      "duration": 0.0154,
      "velocity": 92,
      "chip": "ym2612"
    },
    {
      "channel": 4,
      "note": 57,
      "start": 1.897,
      "duration": 0.0128,
      "velocity": 94,
      "chip": "ym2612"
    },
    {
      "channel": 0,
      "note": 67,
      "start": 1.9124,
      "duration": 0.0138,
      "velocity": 91,
      "chip": "ym2612"
    },
    {
      "channel": 3,
      "note": 80,
      "start": 1.9136,
      "duration": 0.0135,
      "velocity": 92,
      "chip": "ym2612"
    },
    {
      "channel": 4,
      "note": 57,
      "start": 1.9142,
      "duration": 0.0132,
      "velocity": 94,
      "chip": "ym2612"
    },
    {
      "channel": 0,
      "note": 55,
      "start": 1.9312,
      "duration": 0.0137,
      "velocity": 91,
      "chip": "ym2612"
    },
    {
      "channel": 3,
      "note": 84,
      "start": 1.9322,
      "duration": 0.0134,
      "velocity": 92,
      "chip": "ym2612"
    },
    {
      "channel": 4,
      "note": 57,
      "start": 1.9329,
      "duration": 0.0132,
      "velocity": 94,
      "chip": "ym2612"
    },
    {
      "channel": 0,
      "note": 55,
      "start": 1.9477,
      "duration": 0.0162,
      "velocity": 91,
      "chip": "ym2612"
    },
    {
      "channel": 3,
      "note": 83,
      "start": 1.949,
      "duration": 0.0157,
      "velocity": 92,
      "chip": "ym2612"
    },
    {
      "channel": 4,
      "note": 57,
      "start": 1.952,
      "duration": 0.0131,
      "velocity": 94,
      "chip": "ym2612"
    },
    {
      "channel": 0,
      "note": 67,
      "start": 1.9667,
      "duration": 0.0161,
      "velocity": 91,
      "chip": "ym2612"
    },
    {
      "channel": 3,
      "note": 82,
      "start": 1.9678,
      "duration": 0.0157,
      "velocity": 92,
      "chip": "ym2612"
    },
    {
      "channel": 4,
      "note": 57,
      "start": 1.9707,
      "duration": 0.0132,
      "velocity": 94,
      "chip": "ym2612"
    },
    {
      "channel": 0,
      "note": 56,
      "start": 1.9862,
      "duration": 0.0186,
      "velocity": 91,
      "chip": "ym2612"
    },
    {
      "channel": 3,
      "note": 86,
      "start": 1.9875,
      "duration": 0.0181,
      "velocity": 92,
      "chip": "ym2612"
    },
    {
      "channel": 4,
      "note": 57,
      "start": 1.9927,
      "duration": 0.0293,
      "velocity": 94,
      "chip": "ym2612"
    },
    {
      "channel": 0,
      "note": 68,
      "start": 2.0076,
      "duration": 0.0131,
      "velocity": 91,
      "chip": "ym2612"
    },
    {
      "channel": 3,
      "note": 92,
      "start": 2.0087,
      "duration": 0.0129,
      "velocity": 92,
      "chip": "ym2612"
    },
    {
      "channel": 0,
      "note": 55,
      "start": 2.0249,
      "duration": 0.0187,
      "velocity": 91,
      "chip": "ym2612"
    },
    {
      "channel": 3,
      "note": 97,
      "start": 2.0261,
      "duration": 0.0183,
      "velocity": 92,
      "chip": "ym2612"
    },
    {
      "channel": 4,
      "note": 57,
      "start": 2.0315,
      "duration": 0.0132,
      "velocity": 94,
      "chip": "ym2612"
    },
    {
      "channel": 0,
      "note": 55,
      "start": 2.0466,
      "duration": 0.0163,
      "velocity": 91,
      "chip": "ym2612"
    },
    {
      "channel": 3,
      "note": 77,
      "start": 2.048,
      "duration": 0.0156,
      "velocity": 92,
      "chip": "ym2612"
    },
    {
      "channel": 4,
      "note": 57,
      "start": 2.051,
      "duration": 0.013,
      "velocity": 94,
      "chip": "ym2612"
    },
    {
      "channel": 0,
      "note": 55,
      "start": 2.0678,
      "duration": 0.0139,
      "velocity": 91,
      "chip": "ym2612"
    },
    {
      "channel": 3,
      "note": 89,
      "start": 2.0689,
      "duration": 0.0137,
      "velocity": 92,
      "chip": "ym2612"
    },
    {
      "channel": 4,
      "note": 57,
      "start": 2.0695,
      "duration": 0.0133,
      "velocity": 94,
      "chip": "ym2612"
    },
    {
      "channel": 0,
      "note": 55,
      "start": 2.0869,
      "duration": 0.0137,
      "velocity": 91,
      "chip": "ym2612"
    },
    {
      "channel": 3,
      "note": 89,
      "start": 2.0882,
      "duration": 0.0132,
      "velocity": 92,
      "chip": "ym2612"
    },
    {
      "channel": 4,
      "note": 57,
      "start": 2.0888,
      "duration": 0.0132,
      "velocity": 94,
      "chip": "ym2612"
    },
    {
      "channel": 3,
      "note": 80,
      "start": 2.1049,
      "duration": 0.0181,
      "velocity": 92,
      "chip": "ym2612"
    },
    {
      "channel": 4,
      "note": 57,
      "start": 2.1105,
      "duration": 0.031,
      "velocity": 94,
      "chip": "ym2612"
    },
    {
      "channel": 0,
      "note": 54,
      "start": 2.1269,
      "duration": 0.0134,
      "velocity": 91,
      "chip": "ym2612"
    },
    {
      "channel": 3,
      "note": 92,
      "start": 2.1281,
      "duration": 0.013,
      "velocity": 92,
      "chip": "ym2612"
    },
    {
      "channel": 0,
      "note": 55,
      "start": 2.1439,
      "duration": 0.0187,
      "velocity": 91,
      "chip": "ym2612"
    },
    {
      "channel": 3,
      "note": 92,
      "start": 2.1451,
      "duration": 0.0183,
      "velocity": 92,
      "chip": "ym2612"
    },
    {
      "channel": 4,
      "note": 57,
      "start": 2.1504,
      "duration": 0.0134,
      "velocity": 94,
      "chip": "ym2612"
    },
    {
      "channel": 0,
      "note": 54,
      "start": 2.1657,
      "duration": 0.0133,
      "velocity": 91,
      "chip": "ym2612"
    },
    {
      "channel": 3,
      "note": 84,
      "start": 2.1669,
      "duration": 0.0129,
      "velocity": 92,
      "chip": "ym2612"
    },
    {
      "channel": 4,
      "note": 57,
      "start": 2.1676,
      "duration": 0.0126,
      "velocity": 94,
      "chip": "ym2612"
    },
    {
      "channel": 0,
      "note": 58,
      "start": 2.1826,
      "duration": 0.0186,
      "velocity": 91,
      "chip": "ym2612"
    },
    {
      "channel": 3,
      "note": 96,
      "start": 2.1837,
      "duration": 0.0183,
      "velocity": 92,
      "chip": "ym2612"
    },
    {
      "channel": 4,
      "note": 57,
      "start": 2.1891,
      "duration": 0.0295,
      "velocity": 94,
      "chip": "ym2612"
    },
    {
      "channel": 0,
      "note": 70,
      "start": 2.204,
      "duration": 0.0133,
      "velocity": 91,
      "chip": "ym2612"
    },
    {
      "channel": 3,
      "note": 96,
      "start": 2.2052,
      "duration": 0.013,
      "velocity": 92,
      "chip": "ym2612"
    },
    {
      "channel": 0,
      "note": 58,
      "start": 2.2206,
      "duration": 0.0185,
      "velocity": 91,
      "chip": "ym2612"
    },
    {
      "channel": 3,
      "note": 88,
      "start": 2.2218,
      "duration": 0.018,
      "velocity": 92,
      "chip": "ym2612"
    },
    {
      "channel": 4,
      "note": 57,
      "start": 2.2273,
      "duration": 0.0129,
      "velocity": 94,
      "chip": "ym2612"
    },
    {
      "channel": 0,
      "note": 70,
      "start": 2.2421,
      "duration": 0.014,
      "velocity": 91,
      "chip": "ym2612"
    },
    {
      "channel": 3,
      "note": 100,
      "start": 2.2433,
      "duration": 0.0137,
      "velocity": 92,
      "chip": "ym2612"
    },
    {
      "channel": 4,
      "note": 57,
      "start": 2.2439,
      "duration": 0.0133,
      "velocity": 94,
      "chip": "ym2612"
    },
    {
      "channel": 0,
      "note": 55,
      "start": 2.2592,
      "duration": 0.0187,
      "velocity": 91,
      "chip": "ym2612"
    },
    {
      "channel": 3,
      "note": 100,
      "start": 2.2605,
      "duration": 0.0182,
      "velocity": 92,
      "chip": "ym2612"
    },
    {
      "channel": 4,
      "note": 57,
      "start": 2.2658,
      "duration": 0.0655,
      "velocity": 94,
      "chip": "ym2612"
    },
    {
      "channel": 0,
      "note": 67,
      "start": 2.281,
      "duration": 0.0134,
      "velocity": 91,
      "chip": "ym2612"
    },
    {
      "channel": 3,
      "note": 96,
      "start": 2.2821,
      "duration": 0.013,
      "velocity": 92,
      "chip": "ym2612"
    },
    {
      "channel": 0,
      "note": 55,
      "start": 2.2975,
      "duration": 0.0138,
      "velocity": 91,
      "chip": "ym2612"
    },
    {
      "channel": 3,
      "note": 92,
      "start": 2.299,
      "duration": 0.0132,
      "velocity": 92,
      "chip": "ym2612"
    },
    {
      "channel": 0,
      "note": 67,
      "start": 2.3162,
      "duration": 0.0138,
      "velocity": 91,
      "chip": "ym2612"
    },
    {
      "channel": 3,
      "note": 88,
      "start": 2.3173,
      "duration": 0.0136,
      "velocity": 92,
      "chip": "ym2612"
    },
    {
      "channel": 0,
      "note": 54,
      "start": 2.3333,
      "duration": 0.0197,
      "velocity": 91,
      "chip": "ym2612"
    },
    {
      "channel": 1,
      "note": 66,
      "start": 2.334,
      "duration": 0.1132,
      "velocity": 94,
      "chip": "ym2612"
    },
    {
      "channel": 2,
      "note": 73,
      "start": 2.3346,
      "duration": 0.1129,
      "velocity": 94,
      "chip": "ym2612"
    },
    {
      "channel": 3,
      "note": 84,
      "start": 2.3354,
      "duration": 0.0185,
      "velocity": 92,
      "chip": "ym2612"
    },
    {
      "channel": 4,
      "note": 57,
      "start": 2.341,
      "duration": 0.0133,
      "velocity": 94,
      "chip": "ym2612"
    },
    {
      "channel": 0,
      "note": 54,
      "start": 2.356,
      "duration": 0.0157,
      "velocity": 91,
      "chip": "ym2612"
    },
    {
      "channel": 3,
      "note": 78,
      "start": 2.3572,
      "duration": 0.0152,
      "velocity": 92,
      "chip": "ym2612"
    },
    {
      "channel": 4,
      "note": 57,
      "start": 2.3603,
      "duration": 0.0124,
      "velocity": 94,
      "chip": "ym2612"
    },
    {
      "channel": 0,
      "note": 54,
      "start": 2.3761,
      "duration": 0.0134,
      "velocity": 91,
      "chip": "ym2612"
    },
    {
      "channel": 3,
      "note": 90,
      "start": 2.3771,
      "duration": 0.0131,
      "velocity": 92,
      "chip": "ym2612"
    },
    {
      "channel": 4,
      "note": 57,
      "start": 2.3778,
      "duration": 0.0128,
      "velocity": 94,
      "chip": "ym2612"
    },
    {
      "channel": 0,
      "note": 54,
      "start": 2.3927,
      "duration": 0.0138,
      "velocity": 91,
      "chip": "ym2612"
    },
    {
      "channel": 3,
      "note": 90,
      "start": 2.3939,
      "duration": 0.0134,
      "velocity": 92,
      "chip": "ym2612"
    },
    {
      "channel": 4,
      "note": 57,
      "start": 2.3945,
      "duration": 0.0132,
      "velocity": 94,
      "chip": "ym2612"
    },
    {
      "channel": 3,
      "note": 80,
      "start": 2.4107,
      "duration": 0.018,
      "velocity": 92,
      "chip": "ym2612"
    },
    {
      "channel": 4,
      "note": 57,
      "start": 2.4163,
      "duration": 0.0128,
      "velocity": 94,
      "chip": "ym2612"
    },
    {
      "channel": 0,
      "note": 49,
      "start": 2.4307,
      "duration": 0.0163,
      "velocity": 91,
      "chip": "ym2612"
    },
    {
      "channel": 3,
      "note": 89,
      "start": 2.432,
      "duration": 0.0159,
      "velocity": 92,
      "chip": "ym2612"
    },
    {
      "channel": 4,
      "note": 57,
      "start": 2.4349,
      "duration": 0.0133,
      "velocity": 94,
      "chip": "ym2612"
    },
    {
      "channel": 0,
      "note": 52,
      "start": 2.4501,
      "duration": 0.0141,
      "velocity": 91,
      "chip": "ym2612"
    },
    {
      "channel": 1,
      "note": 68,
      "start": 2.4506,
      "duration": 0.3026,
      "velocity": 94,
      "chip": "ym2612"
    },
    {
      "channel": 2,
      "note": 75,
      "start": 2.4511,
      "duration": 0.3024,
      "velocity": 94,
      "chip": "ym2612"
    },
    {
      "channel": 3,
      "note": 81,
      "start": 2.4518,
      "duration": 0.0132,
      "velocity": 92,
      "chip": "ym2612"
    },
    {
      "channel": 4,
      "note": 57,
      "start": 2.4524,
      "duration": 0.0129,
      "velocity": 94,
      "chip": "ym2612"
    },
    {
      "channel": 0,
      "note": 53,
      "start": 2.4671,
      "duration": 0.0129,
      "velocity": 91,
      "chip": "ym2612"
    },
    {
      "channel": 3,
      "note": 88,
      "start": 2.4681,
      "duration": 0.0127,
      "velocity": 92,
      "chip": "ym2612"
    },
    {
      "channel": 4,
      "note": 57,
      "start": 2.4687,
      "duration": 0.0124,
      "velocity": 94,
      "chip": "ym2612"
    },
    {
      "channel": 0,
      "note": 54,
      "start": 2.4838,
      "duration": 0.0185,
      "velocity": 91,
      "chip": "ym2612"
    },
    {
      "channel": 3,
      "note": 87,
      "start": 2.485,
      "duration": 0.018,
      "velocity": 92,
      "chip": "ym2612"
    },
    {
      "channel": 4,
      "note": 57,
      "start": 2.4904,
      "duration": 0.013,
      "velocity": 94,
      "chip": "ym2612"
    },
    {
      "channel": 0,
      "note": 66,
      "start": 2.5051,
      "duration": 0.0158,
      "velocity": 91,
      "chip": "ym2612"
    },
    {
      "channel": 3,
      "note": 82,
      "start": 2.5063,
      "duration": 0.0154,
      "velocity": 92,
      "chip": "ym2612"
    },
    {
      "channel": 4,
      "note": 57,
      "start": 2.5092,
      "duration": 0.0128,
      "velocity": 94,
      "chip": "ym2612"
    },
    {
      "channel": 0,
      "note": 54,
      "start": 2.5237,
      "duration": 0.0137,
      "velocity": 91,
      "chip": "ym2612"
    },
    {
      "channel": 3,
      "note": 86,
      "start": 2.5248,
      "duration": 0.0135,
      "velocity": 92,
      "chip": "ym2612"
    },
    {
      "channel": 4,
      "note": 57,
      "start": 2.5254,
      "duration": 0.0132,
      "velocity": 94,
      "chip": "ym2612"
    },
    {
      "channel": 0,
      "note": 52,
      "start": 2.5406,
      "duration": 0.0139,
      "velocity": 91,
      "chip": "ym2612"
    },
    {
      "channel": 3,
      "note": 85,
      "start": 2.542,
      "duration": 0.0132,
      "velocity": 92,
      "chip": "ym2612"
    },
    {
      "channel": 4,
      "note": 57,
      "start": 2.5427,
      "duration": 0.0129,
      "velocity": 94,
      "chip": "ym2612"
    },
    {
      "channel": 0,
      "note": 49,
      "start": 2.5574,
      "duration": 0.0161,
      "velocity": 91,
      "chip": "ym2612"
    },
    {
      "channel": 3,
      "note": 81,
      "start": 2.5586,
      "duration": 0.0157,
      "velocity": 92,
      "chip": "ym2612"
    },
    {
      "channel": 4,
      "note": 57,
      "start": 2.5617,
      "duration": 0.0129,
      "velocity": 94,
      "chip": "ym2612"
    },
    {
      "channel": 0,
      "note": 61,
      "start": 2.5783,
      "duration": 0.016,
      "velocity": 91,
      "chip": "ym2612"
    },
    {
      "channel": 3,
      "note": 84,
      "start": 2.5795,
      "duration": 0.0158,
      "velocity": 92,
      "chip": "ym2612"
    },
    {
      "channel": 4,
      "note": 57,
      "start": 2.5825,
      "duration": 0.0132,
      "velocity": 94,
      "chip": "ym2612"
    },
    {
      "channel": 0,
      "note": 52,
      "start": 2.5977,
      "duration": 0.0186,
      "velocity": 91,
      "chip": "ym2612"
    },
    {
      "channel": 3,
      "note": 80,
      "start": 2.5989,
      "duration": 0.0182,
      "velocity": 92,
      "chip": "ym2612"
    },
    {
      "channel": 4,
      "note": 57,
      "start": 2.6044,
      "duration": 0.0291,
      "velocity": 94,
      "chip": "ym2612"
    },
    {
      "channel": 0,
      "note": 64,
      "start": 2.619,
      "duration": 0.0132,
      "velocity": 91,
      "chip": "ym2612"
    },
    {
      "channel": 3,
      "note": 83,
      "start": 2.6201,
      "duration": 0.013,
      "velocity": 92,
      "chip": "ym2612"
    },
    {
      "channel": 0,
      "note": 54,
      "start": 2.6363,
      "duration": 0.019,
      "velocity": 91,
      "chip": "ym2612"
    },
    {
      "channel": 3,
      "note": 82,
      "start": 2.6377,
      "duration": 0.0184,
      "velocity": 92,
      "chip": "ym2612"
    },
    {
      "channel": 4,
      "note": 57,
      "start": 2.6431,
      "duration": 0.0134,
      "velocity": 94,
      "chip": "ym2612"
    },
    {
      "channel": 0,
      "note": 54,
      "start": 2.6585,
      "duration": 0.0162,
      "velocity": 91,
      "chip": "ym2612"
    },
    {
      "channel": 3,
      "note": 78,
      "start": 2.6597,
      "duration": 0.0158,
      "velocity": 92,
      "chip": "ym2612"
    },
    {
      "channel": 4,
      "note": 57,
      "start": 2.6629,
      "duration": 0.013,
      "velocity": 94,
      "chip": "ym2612"
    },
    {
      "channel": 0,
      "note": 54,
      "start": 2.6796,
      "duration": 0.0141,
      "velocity": 91,
      "chip": "ym2612"
    },
    {
      "channel": 3,
      "note": 90,
      "start": 2.6807,
      "duration": 0.0138,
      "velocity": 92,
      "chip": "ym2612"
    },
    {
      "channel": 4,
      "note": 57,
      "start": 2.6814,
      "duration": 0.0135,
      "velocity": 94,
      "chip": "ym2612"
    },
    {
      "channel": 0,
      "note": 54,
      "start": 2.6988,
      "duration": 0.014,
      "velocity": 91,
      "chip": "ym2612"
    },
    {
      "channel": 3,
      "note": 90,
      "start": 2.7,
      "duration": 0.0136,
      "velocity": 92,
      "chip": "ym2612"
    },
    {
      "channel": 4,
      "note": 57,
      "start": 2.7007,
      "duration": 0.0133,
      "velocity": 94,
      "chip": "ym2612"
    },
    {
      "channel": 3,
      "note": 80,
      "start": 2.7166,
      "duration": 0.0158,
      "velocity": 92,
      "chip": "ym2612"
    },
    {
      "channel": 4,
      "note": 57,
      "start": 2.7198,
      "duration": 0.013,
      "velocity": 94,
      "chip": "ym2612"
    },
    {
      "channel": 0,
      "note": 49,
      "start": 2.7368,
      "duration": 0.0161,
      "velocity": 91,
      "chip": "ym2612"
    },
    {
      "channel": 3,
      "note": 89,
      "start": 2.738,
      "duration": 0.0158,
      "velocity": 92,
      "chip": "ym2612"
    },
    {
      "channel": 4,
      "note": 57,
      "start": 2.741,
      "duration": 0.0132,
      "velocity": 94,
      "chip": "ym2612"
    },
    {
      "channel": 0,
      "note": 52,
      "start": 2.7561,
      "duration": 0.0146,
      "velocity": 91,
      "chip": "ym2612"
    },
    {
      "channel": 1,
      "note": 68,
      "start": 2.7567,
      "duration": 0.0142,
      "velocity": 94,
      "chip": "ym2612"
    },
    {
      "channel": 2,
      "note": 75,
      "start": 2.7573,
      "duration": 0.0139,
      "velocity": 94,
      "chip": "ym2612"
    },
    {
      "channel": 3,
      "note": 81,
      "start": 2.758,
      "duration": 0.0134,
      "velocity": 92,
      "chip": "ym2612"
    },
    {
      "channel": 4,
      "note": 57,
      "start": 2.7587,
      "duration": 0.0131,
      "velocity": 94,
      "chip": "ym2612"
    },
    {
      "channel": 0,
      "note": 53,
      "start": 2.7735,
      "duration": 0.0135,
      "velocity": 91,
      "chip": "ym2612"
    },
    {
      "channel": 1,
      "note": 67,
      "start": 2.774,
      "duration": 0.0133,
      "velocity": 94,
      "chip": "ym2612"
    },
    {
      "channel": 2,
      "note": 74,
      "start": 2.7745,
      "duration": 0.013,
      "velocity": 94,
      "chip": "ym2612"
    },
    {
      "channel": 3,
      "note": 88,
      "start": 2.7751,
      "duration": 0.0127,
      "velocity": 92,
      "chip": "ym2612"
    },
    {
      "channel": 4,
      "note": 57,
      "start": 2.7757,
      "duration": 0.0124,
      "velocity": 94,
      "chip": "ym2612"
    },
    {
      "channel": 0,
      "note": 54,
      "start": 2.7898,
      "duration": 0.0166,
      "velocity": 91,
      "chip": "ym2612"
    },
    {
      "channel": 1,
      "note": 66,
      "start": 2.7903,
      "duration": 0.048,
      "velocity": 94,
      "chip": "ym2612"
    },
    {
      "channel": 2,
      "note": 73,
      "start": 2.7911,
      "duration": 0.0476,
      "velocity": 94,
      "chip": "ym2612"
    },
    {
      "channel": 3,
      "note": 87,
      "start": 2.7918,
      "duration": 0.0154,
      "velocity": 92,
      "chip": "ym2612"
    },
    {
      "channel": 4,
      "note": 57,
      "start": 2.7949,
      "duration": 0.0126,
      "velocity": 94,
      "chip": "ym2612"
    },
    {
      "channel": 0,
      "note": 66,
      "start": 2.8092,
      "duration": 0.0156,
      "velocity": 91,
      "chip": "ym2612"
    },
    {
      "channel": 3,
      "note": 82,
      "start": 2.8105,
      "duration": 0.0151,
      "velocity": 92,
      "chip": "ym2612"
    },
    {
      "channel": 4,
      "note": 57,
      "start": 2.8134,
      "duration": 0.0125,
      "velocity": 94,
      "chip": "ym2612"
    },
    {
      "channel": 0,
      "note": 54,
      "start": 2.8299,
      "duration": 0.0138,
      "velocity": 91,
      "chip": "ym2612"
    },
    {
      "channel": 3,
      "note": 86,
      "start": 2.8309,
      "duration": 0.0138,
      "velocity": 92,
      "chip": "ym2612"
    },
    {
      "channel": 4,
      "note": 57,
      "start": 2.8315,
      "duration": 0.0134,
      "velocity": 94,
      "chip": "ym2612"
    },
    {
      "channel": 1,
      "note": 73,
      "start": 2.8411,
      "duration": 0.0492,
      "velocity": 94,
      "chip": "ym2612"
    },
    {
      "channel": 2,
      "note": 80,
      "start": 2.8416,
      "duration": 0.0489,
      "velocity": 94,
      "chip": "ym2612"
    },
    {
      "channel": 0,
      "note": 52,
      "start": 2.8488,
      "duration": 0.0135,
      "velocity": 91,
      "chip": "ym2612"
    },
    {
      "channel": 3,
      "note": 85,
      "start": 2.85,
      "duration": 0.013,
      "velocity": 92,
      "chip": "ym2612"
    },
    {
      "channel": 4,
      "note": 57,
      "start": 2.8506,
      "duration": 0.0127,
      "velocity": 94,
      "chip": "ym2612"
    },
    {
      "channel": 0,
      "note": 49,
      "start": 2.865,
      "duration": 0.0157,
      "velocity": 91,
      "chip": "ym2612"
    },
    {
      "channel": 3,
      "note": 81,
      "start": 2.8661,
      "duration": 0.0153,
      "velocity": 92,
      "chip": "ym2612"
    },
    {
      "channel": 4,
      "note": 57,
      "start": 2.8692,
      "duration": 0.0126,
      "velocity": 94,
      "chip": "ym2612"
    },
    {
      "channel": 0,
      "note": 61,
      "start": 2.8841,
      "duration": 0.0163,
      "velocity": 91,
      "chip": "ym2612"
    },
    {
      "channel": 3,
      "note": 84,
      "start": 2.8853,
      "duration": 0.0159,
      "velocity": 92,
      "chip": "ym2612"
    },
    {
      "channel": 4,
      "note": 57,
      "start": 2.8882,
      "duration": 0.0133,
      "velocity": 94,
      "chip": "ym2612"
    },
    {
      "channel": 1,
      "note": 78,
      "start": 2.8931,
      "duration": 0.0446,
      "velocity": 94,
      "chip": "ym2612"
    },
    {
      "channel": 2,
      "note": 85,
      "start": 2.8936,
      "duration": 0.0444,
      "velocity": 94,
      "chip": "ym2612"
    },
    {
      "channel": 0,
      "note": 52,
      "start": 2.9035,
      "duration": 0.0182,
      "velocity": 91,
      "chip": "ym2612"
    },
    {
      "channel": 3,
      "note": 80,
      "start": 2.9047,
      "duration": 0.0178,
      "velocity": 92,
      "chip": "ym2612"
    },
    {
      "channel": 4,
      "note": 57,
      "start": 2.9101,
      "duration": 0.0284,
      "velocity": 94,
      "chip": "ym2612"
    },
    {
      "channel": 0,
      "note": 64,
      "start": 2.9244,
      "duration": 0.013,
      "velocity": 91,
      "chip": "ym2612"
    },
    {
      "channel": 3,
      "note": 83,
      "start": 2.9255,
      "duration": 0.0127,
      "velocity": 92,
      "chip": "ym2612"
    },
    {
      "channel": 0,
      "note": 55,
      "start": 2.9424,
      "duration": 0.0198,
      "velocity": 91,
      "chip": "ym2612"
    },
    {
      "channel": 1,
      "note": 77,
      "start": 2.9429,
      "duration": 0.2834,
      "velocity": 94,
      "chip": "ym2612"
    },
    {
      "channel": 2,
      "note": 84,
      "start": 2.9434,
      "duration": 0.2832,
      "velocity": 94,
      "chip": "ym2612"
    },
    {
      "channel": 3,
      "note": 82,
      "start": 2.9444,
      "duration": 0.0186,
      "velocity": 92,
      "chip": "ym2612"
    },
    {
      "channel": 4,
      "note": 57,
      "start": 2.9498,
      "duration": 0.0135,
      "velocity": 94,
      "chip": "ym2612"
    },
    {
      "channel": 0,
      "note": 55,
      "start": 2.9651,
      "duration": 0.0181,
      "velocity": 91,
      "chip": "ym2612"
    },
    {
      "channel": 3,
      "note": 82,
      "start": 2.9663,
      "duration": 0.0178,
      "velocity": 92,
      "chip": "ym2612"
    },
    {
      "channel": 4,
      "note": 57,
      "start": 2.9717,
      "duration": 0.0126,
      "velocity": 94,
      "chip": "ym2612"
    },
    {
      "channel": 0,
      "note": 55,
      "start": 2.9861,
      "duration": 0.0136,
      "velocity": 91,
      "chip": "ym2612"
    },
    {
      "channel": 3,
      "note": 77,
      "start": 2.9873,
      "duration": 0.013,
      "velocity": 92,
      "chip": "ym2612"
    },
    {
      "channel": 4,
      "note": 57,
      "start": 2.988,
      "duration": 0.0128,
      "velocity": 94,
      "chip": "ym2612"
    },
    {
      "channel": 0,
      "note": 58,
      "start": 3.0031,
      "duration": 0.0191,
      "velocity": 91,
      "chip": "ym2612"
    },
    {
      "channel": 3,
      "note": 72,
      "start": 3.0045,
      "duration": 0.0186,
      "velocity": 92,
      "chip": "ym2612"
    },
    {
      "channel": 4,
      "note": 57,
      "start": 3.0098,
      "duration": 0.0135,
      "velocity": 94,
      "chip": "ym2612"
    },
    {
      "channel": 0,
      "note": 58,
      "start": 3.0252,
      "duration": 0.0181,
      "velocity": 91,
      "chip": "ym2612"
    },
    {
      "channel": 3,
      "note": 82,
      "start": 3.0264,
      "duration": 0.0179,
      "velocity": 92,
      "chip": "ym2612"
    },
    {
      "channel": 4,
      "note": 57,
      "start": 3.0319,
      "duration": 0.0127,
      "velocity": 94,
      "chip": "ym2612"
    },
    {
      "channel": 0,
      "note": 58,
      "start": 3.047,
      "duration": 0.0139,
      "velocity": 91,
      "chip": "ym2612"
    },
    {
      "channel": 3,
      "note": 77,
      "start": 3.0485,
      "duration": 0.0133,
      "velocity": 92,
      "chip": "ym2612"
    },
    {
      "channel": 4,
      "note": 57,
      "start": 3.0491,
      "duration": 0.013,
      "velocity": 94,
      "chip": "ym2612"
    },
    {
      "channel": 0,
      "note": 60,
      "start": 3.064,
      "duration": 0.019,
      "velocity": 91,
      "chip": "ym2612"
    },
    {
      "channel": 3,
      "note": 72,
      "start": 3.0654,
      "duration": 0.0184,
      "velocity": 92,
      "chip": "ym2612"
    },
    {
      "channel": 4,
      "note": 57,
      "start": 3.0708,
      "duration": 0.0134,
      "velocity": 94,
      "chip": "ym2612"
    },
    {
      "channel": 0,
      "note": 60,
      "start": 3.086,
      "duration": 0.0184,
      "velocity": 91,
      "chip": "ym2612"
    },
    {
      "channel": 3,
      "note": 82,
      "start": 3.0872,
      "duration": 0.018,
      "velocity": 92,
      "chip": "ym2612"
    },
    {
      "channel": 4,
      "note": 57,
      "start": 3.0925,
      "duration": 0.0131,
      "velocity": 94,
      "chip": "ym2612"
    },
    {
      "channel": 0,
      "note": 60,
      "start": 3.1079,
      "duration": 0.014,
      "velocity": 91,
      "chip": "ym2612"
    },
    {
      "channel": 3,
      "note": 77,
      "start": 3.1091,
      "duration": 0.0137,
      "velocity": 92,
      "chip": "ym2612"
    },
    {
      "channel": 4,
      "note": 57,
      "start": 3.11,
      "duration": 0.0131,
      "velocity": 94,
      "chip": "ym2612"
    },
    {
      "channel": 0,
      "note": 63,
      "start": 3.1271,
      "duration": 0.0188,
      "velocity": 91,
      "chip": "ym2612"
    },
    {
      "channel": 3,
      "note": 72,
      "start": 3.1285,
      "duration": 0.0183,
      "velocity": 92,
      "chip": "ym2612"
    },
    {
      "channel": 4,
      "note": 57,
      "start": 3.1339,
      "duration": 0.0133,
      "velocity": 94,
      "chip": "ym2612"
    },
    {
      "channel": 0,
      "note": 63,
      "start": 3.1491,
      "duration": 0.0182,
      "velocity": 91,
      "chip": "ym2612"
    },
    {
      "channel": 3,
      "note": 82,
      "start": 3.1503,
      "duration": 0.0177,
      "velocity": 92,
      "chip": "ym2612"
    },
    {
      "channel": 4,
      "note": 57,
      "start": 3.1556,
      "duration": 0.0131,
      "velocity": 94,
      "chip": "ym2612"
    },
    {
      "channel": 0,
      "note": 63,
      "start": 3.1709,
      "duration": 0.0141,
      "velocity": 91,
      "chip": "ym2612"
    },
    {
      "channel": 3,
      "note": 77,
      "start": 3.1722,
      "duration": 0.0136,
      "velocity": 92,
      "chip": "ym2612"
    },
    {
      "channel": 4,
      "note": 57,
      "start": 3.1728,
      "duration": 0.0133,
      "velocity": 94,
      "chip": "ym2612"
    },
    {
      "channel": 0,
      "note": 65,
      "start": 3.1904,
      "duration": 0.019,
      "velocity": 91,
      "chip": "ym2612"
    },
    {
      "channel": 3,
      "note": 72,
      "start": 3.1918,
      "duration": 0.0185,
      "velocity": 92,
      "chip": "ym2612"
    },
    {
      "channel": 4,
      "note": 57,
      "start": 3.1972,
      "duration": 0.03,
      "velocity": 94,
      "chip": "ym2612"
    },
    {
      "channel": 0,
      "note": 65,
      "start": 3.2123,
      "duration": 0.0137,
      "velocity": 91,
      "chip": "ym2612"
    },
    {
      "channel": 3,
      "note": 82,
      "start": 3.2135,
      "duration": 0.0134,
      "velocity": 92,
      "chip": "ym2612"
    },
    {
      "channel": 0,
      "note": 66,
      "start": 3.2293,
      "duration": 0.0185,
      "velocity": 91,
      "chip": "ym2612"
    },
    {
      "channel": 1,
      "note": 75,
      "start": 3.2298,
      "duration": 0.0183,
      "velocity": 94,
      "chip": "ym2612"
    },
    {
      "channel": 2,
      "note": 82,
      "start": 3.2304,
      "duration": 0.018,
      "velocity": 94,
      "chip": "ym2612"
    },
    {
      "channel": 3,
      "note": 77,
      "start": 3.2311,
      "duration": 0.0176,
      "velocity": 92,
      "chip": "ym2612"
    },
    {
      "channel": 4,
      "note": 57,
      "start": 3.2367,
      "duration": 0.0292,
      "velocity": 94,
      "chip": "ym2612"
    },
    {
      "channel": 0,
      "note": 66,
      "start": 3.2509,
      "duration": 0.0139,
      "velocity": 91,
      "chip": "ym2612"
    },
    {
      "channel": 1,
      "note": 76,
      "start": 3.2514,
      "duration": 0.0136,
      "velocity": 94,
      "chip": "ym2612"
    },
    {
      "channel": 2,
      "note": 83,
      "start": 3.2519,
      "duration": 0.0134,
      "velocity": 94,
      "chip": "ym2612"
    },
    {
      "channel": 3,
      "note": 72,
      "start": 3.2527,
      "duration": 0.0128,
      "velocity": 92,
      "chip": "ym2612"
    },
    {
      "channel": 0,
      "note": 67,
      "start": 3.2699,
      "duration": 0.0232,
      "velocity": 91,
      "chip": "ym2612"
    },
    {
      "channel": 1,
      "note": 77,
      "start": 3.272,
      "duration": 0.0155,
      "velocity": 94,
      "chip": "ym2612"
    },
    {
      "channel": 2,
      "note": 84,
      "start": 3.2742,
      "duration": 0.0136,
      "velocity": 94,
      "chip": "ym2612"
    },
    {
      "channel": 3,
      "note": 70,
      "start": 3.2748,
      "duration": 0.019,
      "velocity": 92,
      "chip": "ym2612"
    },
    {
      "channel": 4,
      "note": 57,
      "start": 3.2804,
      "duration": 0.0294,
      "velocity": 94,
      "chip": "ym2612"
    },
    {
      "channel": 1,
      "note": 72,
      "start": 3.2903,
      "duration": 0.0084,
      "velocity": 94,
      "chip": "ym2612"
    },
    {
      "channel": 2,
      "note": 79,
      "start": 3.2908,
      "duration": 0.0082,
      "velocity": 94,
      "chip": "ym2612"
    },
    {
      "channel": 1,
      "note": 70,
      "start": 3.3014,
      "duration": 0.0076,
      "velocity": 94,
      "chip": "ym2612"
    },
    {
      "channel": 2,
      "note": 77,
      "start": 3.3019,
      "duration": 0.0073,
      "velocity": 94,
      "chip": "ym2612"
    },
    {
      "channel": 1,
      "note": 65,
      "start": 3.3119,
      "duration": 0.0129,
      "velocity": 94,
      "chip": "ym2612"
    },
    {
      "channel": 2,
      "note": 72,
      "start": 3.3124,
      "duration": 0.0127,
      "velocity": 94,
      "chip": "ym2612"
    },
    {
      "channel": 4,
      "note": 57,
      "start": 3.318,
      "duration": 0.8671,
      "velocity": 94,
      "chip": "ym2612"
    },
    {
      "channel": 1,
      "note": 60,
      "start": 3.3276,
      "duration": 0.0076,
      "velocity": 94,
      "chip": "ym2612"
    },
    {
      "channel": 2,
      "note": 67,
      "start": 3.3281,
      "duration": 0.0073,
      "velocity": 94,
      "chip": "ym2612"
    },
    {
      "channel": 1,
      "note": 58,
      "start": 3.3378,
      "duration": 0.0078,
      "velocity": 94,
      "chip": "ym2612"
    },
    {
      "channel": 2,
      "note": 65,
      "start": 3.3383,
      "duration": 0.0075,
      "velocity": 94,
      "chip": "ym2612"
    },
    {
      "channel": 1,
      "note": 76,
      "start": 3.3485,
      "duration": 0.01,
      "velocity": 94,
      "chip": "ym2612"
    },
    {
      "channel": 2,
      "note": 83,
      "start": 3.3491,
      "duration": 0.0096,
      "velocity": 94,
      "chip": "ym2612"
    },
    {
      "channel": 1,
      "note": 71,
      "start": 3.3734,
      "duration": 0.0441,
      "velocity": 94,
      "chip": "ym2612"
    },
    {
      "channel": 2,
      "note": 78,
      "start": 3.3739,
      "duration": 0.0438,
      "velocity": 94,
      "chip": "ym2612"
    },
    {
      "channel": 1,
      "note": 69,
      "start": 3.4324,
      "duration": 0.0441,
      "velocity": 94,
      "chip": "ym2612"
    },
    {
      "channel": 2,
      "note": 76,
      "start": 3.4329,
      "duration": 0.0439,
      "velocity": 94,
      "chip": "ym2612"
    },
    {
      "channel": 1,
      "note": 64,
      "start": 3.4915,
      "duration": 0.044,
      "velocity": 94,
      "chip": "ym2612"
    },
    {
      "channel": 2,
      "note": 71,
      "start": 3.492,
      "duration": 0.0438,
      "velocity": 94,
      "chip": "ym2612"
    },
    {
      "channel": 1,
      "note": 59,
      "start": 3.5504,
      "duration": 0.044,
      "velocity": 94,
      "chip": "ym2612"
    },
    {
      "channel": 2,
      "note": 66,
      "start": 3.5509,
      "duration": 0.0438,
      "velocity": 94,
      "chip": "ym2612"
    },
    {
      "channel": 1,
      "note": 57,
      "start": 3.6094,
      "duration": 0.044,
      "velocity": 94,
      "chip": "ym2612"
    },
    {
      "channel": 2,
      "note": 64,
      "start": 3.6099,
      "duration": 0.0438,
      "velocity": 94,
      "chip": "ym2612"
    },
    {
      "channel": 1,
      "note": 77,
      "start": 3.6701,
      "duration": 0.2344,
      "velocity": 94,
      "chip": "ym2612"
    },
    {
      "channel": 2,
      "note": 84,
      "start": 3.6724,
      "duration": 0.2322,
      "velocity": 94,
      "chip": "ym2612"
    },
    {
      "channel": 1,
      "note": 72,
      "start": 3.9191,
      "duration": 0.0001,
      "velocity": 94,
      "chip": "ym2612"
    },
    {
      "channel": 2,
      "note": 79,
      "start": 3.9196,
      "duration": 0.0001,
      "velocity": 94,
      "chip": "ym2612"
    },
    {
      "channel": 1,
      "note": 77,
      "start": 3.9339,
      "duration": 0.2993,
      "velocity": 94,
      "chip": "ym2612"
    },
    {
      "channel": 2,
      "note": 84,
      "start": 3.9346,
      "duration": 0.2989,
      "velocity": 94,
      "chip": "ym2612"
    },
    {
      "channel": 4,
      "note": 57,
      "start": 4.2049,
      "duration": 0.0294,
      "velocity": 94,
      "chip": "ym2612"
    },
    {
      "channel": 0,
      "note": 56,
      "start": 4.2379,
      "duration": 0.0424,
      "velocity": 91,
      "chip": "ym2612"
    },
    {
      "channel": 1,
      "note": 68,
      "start": 4.2403,
      "duration": 0.0212,
      "velocity": 94,
      "chip": "ym2612"
    },
    {
      "channel": 2,
      "note": 80,
      "start": 4.2427,
      "duration": 0.0192,
      "velocity": 94,
      "chip": "ym2612"
    },
    {
      "channel": 3,
      "note": 72,
      "start": 4.2435,
      "duration": 0.0185,
      "velocity": 92,
      "chip": "ym2612"
    },
    {
      "channel": 4,
      "note": 57,
      "start": 4.2489,
      "duration": 0.0136,
      "velocity": 94,
      "chip": "ym2612"
    },
    {
      "channel": 1,
      "note": 80,
      "start": 4.2643,
      "duration": 0.0162,
      "velocity": 94,
      "chip": "ym2612"
    },
    {
      "channel": 2,
      "note": 92,
      "start": 4.2648,
      "duration": 0.016,
      "velocity": 94,
      "chip": "ym2612"
    },
    {
      "channel": 3,
      "note": 80,
      "start": 4.2654,
      "duration": 0.0157,
      "velocity": 92,
      "chip": "ym2612"
    },
    {
      "channel": 4,
      "note": 57,
      "start": 4.2684,
      "duration": 0.0131,
      "velocity": 94,
      "chip": "ym2612"
    },
    {
      "channel": 0,
      "note": 56,
      "start": 4.2831,
      "duration": 0.0137,
      "velocity": 91,
      "chip": "ym2612"
    },
    {
      "channel": 1,
      "note": 80,
      "start": 4.2836,
      "duration": 0.0135,
      "velocity": 94,
      "chip": "ym2612"
    },
    {
      "channel": 2,
      "note": 92,
      "start": 4.2841,
      "duration": 0.0133,
      "velocity": 94,
      "chip": "ym2612"
    },
    {
      "channel": 3,
      "note": 92,
      "start": 4.2849,
      "duration": 0.0127,
      "velocity": 92,
      "chip": "ym2612"
    },
    {
      "channel": 4,
      "note": 57,
      "start": 4.2856,
      "duration": 0.0124,
      "velocity": 94,
      "chip": "ym2612"
    },
    {
      "channel": 0,
      "note": 56,
      "start": 4.2997,
      "duration": 0.014,
      "velocity": 91,
      "chip": "ym2612"
    },
    {
      "channel": 1,
      "note": 70,
      "start": 4.3002,
      "duration": 0.0138,
      "velocity": 94,
      "chip": "ym2612"
    },
    {
      "channel": 2,
      "note": 82,
      "start": 4.3007,
      "duration": 0.0135,
      "velocity": 94,
      "chip": "ym2612"
    },
    {
      "channel": 3,
      "note": 92,
      "start": 4.3013,
      "duration": 0.0133,
      "velocity": 92,
      "chip": "ym2612"
    },
    {
      "channel": 4,
      "note": 57,
      "start": 4.3019,
      "duration": 0.0129,
      "velocity": 94,
      "chip": "ym2612"
    },
    {
      "channel": 1,
      "note": 79,
      "start": 4.3173,
      "duration": 0.0158,
      "velocity": 94,
      "chip": "ym2612"
    },
    {
      "channel": 2,
      "note": 91,
      "start": 4.3178,
      "duration": 0.0155,
      "velocity": 94,
      "chip": "ym2612"
    },
    {
      "channel": 3,
      "note": 82,
      "start": 4.3184,
      "duration": 0.0154,
      "velocity": 92,
      "chip": "ym2612"
    },
    {
      "channel": 4,
      "note": 57,
      "start": 4.3214,
      "duration": 0.0128,
      "velocity": 94,
      "chip": "ym2612"
    },
    {
      "channel": 0,
      "note": 56,
      "start": 4.336,
      "duration": 0.0163,
      "velocity": 91,
      "chip": "ym2612"
    },
    {
      "channel": 1,
      "note": 71,
      "start": 4.3365,
      "duration": 0.0161,
      "velocity": 94,
      "chip": "ym2612"
    },
    {
      "channel": 2,
      "note": 83,
      "start": 4.337,
      "duration": 0.0158,
      "velocity": 94,
      "chip": "ym2612"
    },
    {
      "channel": 3,
      "note": 91,
      "start": 4.3376,
      "duration": 0.0155,
      "velocity": 92,
      "chip": "ym2612"
    },
    {
      "channel": 4,
      "note": 57,
      "start": 4.3407,
      "duration": 0.0127,
      "velocity": 94,
      "chip": "ym2612"
    },
    {
      "channel": 0,
      "note": 57,
      "start": 4.3552,
      "duration": 0.014,
      "velocity": 91,
      "chip": "ym2612"
    },
    {
      "channel": 1,
      "note": 78,
      "start": 4.3557,
      "duration": 0.0137,
      "velocity": 94,
      "chip": "ym2612"
    },
    {
      "channel": 2,
      "note": 90,
      "start": 4.3562,
      "duration": 0.0135,
      "velocity": 94,
      "chip": "ym2612"
    },
    {
      "channel": 3,
      "note": 83,
      "start": 4.3568,
      "duration": 0.0132,
      "velocity": 92,
      "chip": "ym2612"
    },
    {
      "channel": 4,
      "note": 57,
      "start": 4.3574,
      "duration": 0.0129,
      "velocity": 94,
      "chip": "ym2612"
    },
    {
      "channel": 0,
      "note": 59,
      "start": 4.3741,
      "duration": 0.0141,
      "velocity": 91,
      "chip": "ym2612"
    },
    {
      "channel": 1,
      "note": 77,
      "start": 4.3746,
      "duration": 0.0138,
      "velocity": 94,
      "chip": "ym2612"
    },
    {
      "channel": 2,
      "note": 89,
      "start": 4.3751,
      "duration": 0.0135,
      "velocity": 94,
      "chip": "ym2612"
    },
    {
      "channel": 3,
      "note": 90,
      "start": 4.3756,
      "duration": 0.0133,
      "velocity": 92,
      "chip": "ym2612"
    },
    {
      "channel": 4,
      "note": 57,
      "start": 4.3763,
      "duration": 0.013,
      "velocity": 94,
      "chip": "ym2612"
    },
    {
      "channel": 0,
      "note": 60,
      "start": 4.3932,
      "duration": 0.0349,
      "velocity": 91,
      "chip": "ym2612"
    },
    {
      "channel": 1,
      "note": 72,
      "start": 4.3937,
      "duration": 0.016,
      "velocity": 94,
      "chip": "ym2612"
    },
    {
      "channel": 2,
      "note": 84,
      "start": 4.3943,
      "duration": 0.0158,
      "velocity": 94,
      "chip": "ym2612"
    },
    {
      "channel": 3,
      "note": 89,
      "start": 4.3948,
      "duration": 0.0155,
      "velocity": 92,
      "chip": "ym2612"
    },
    {
      "channel": 4,
      "note": 57,
      "start": 4.398,
      "duration": 0.0127,
      "velocity": 94,
      "chip": "ym2612"
    },
    {
      "channel": 1,
      "note": 76,
      "start": 4.4126,
      "duration": 0.0159,
      "velocity": 94,
      "chip": "ym2612"
    },
    {
      "channel": 2,
      "note": 88,
      "start": 4.4131,
      "duration": 0.0156,
      "velocity": 94,
      "chip": "ym2612"
    },
    {
      "channel": 3,
      "note": 84,
      "start": 4.4137,
      "duration": 0.0153,
      "velocity": 92,
      "chip": "ym2612"
    },
    {
      "channel": 4,
      "note": 57,
      "start": 4.4166,
      "duration": 0.0127,
      "velocity": 94,
      "chip": "ym2612"
    },
    {
      "channel": 0,
      "note": 60,
      "start": 4.4317,
      "duration": 0.0137,
      "velocity": 91,
      "chip": "ym2612"
    },
    {
      "channel": 1,
      "note": 75,
      "start": 4.4322,
      "duration": 0.0134,
      "velocity": 94,
      "chip": "ym2612"
    },
    {
      "channel": 2,
      "note": 87,
      "start": 4.4327,
      "duration": 0.0132,
      "velocity": 94,
      "chip": "ym2612"
    },
    {
      "channel": 3,
      "note": 88,
      "start": 4.4333,
      "duration": 0.0129,
      "velocity": 92,
      "chip": "ym2612"
    },
    {
      "channel": 4,
      "note": 57,
      "start": 4.4339,
      "duration": 0.0126,
      "velocity": 94,
      "chip": "ym2612"
    },
    {
      "channel": 0,
      "note": 62,
      "start": 4.4483,
      "duration": 0.0324,
      "velocity": 91,
      "chip": "ym2612"
    },
    {
      "channel": 1,
      "note": 71,
      "start": 4.4488,
      "duration": 0.0133,
      "velocity": 94,
      "chip": "ym2612"
    },
    {
      "channel": 2,
      "note": 83,
      "start": 4.4494,
      "duration": 0.013,
      "velocity": 94,
      "chip": "ym2612"
    },
    {
      "channel": 3,
      "note": 87,
      "start": 4.4499,
      "duration": 0.0128,
      "velocity": 92,
      "chip": "ym2612"
    },
    {
      "channel": 4,
      "note": 57,
      "start": 4.4506,
      "duration": 0.0124,
      "velocity": 94,
      "chip": "ym2612"
    },
    {
      "channel": 1,
      "note": 74,
      "start": 4.4649,
      "duration": 0.0161,
      "velocity": 94,
      "chip": "ym2612"
    },
    {
      "channel": 2,
      "note": 86,
      "start": 4.4654,
      "duration": 0.0159,
      "velocity": 94,
      "chip": "ym2612"
    },
    {
      "channel": 3,
      "note": 83,
      "start": 4.466,
      "duration": 0.0156,
      "velocity": 92,
      "chip": "ym2612"
    },
    {
      "channel": 4,
      "note": 57,
      "start": 4.4689,
      "duration": 0.0129,
      "velocity": 94,
      "chip": "ym2612"
    },
    {
      "channel": 0,
      "note": 62,
      "start": 4.4835,
      "duration": 0.0163,
      "velocity": 91,
      "chip": "ym2612"
    },
    {
      "channel": 1,
      "note": 70,
      "start": 4.4841,
      "duration": 0.016,
      "velocity": 94,
      "chip": "ym2612"
    },
    {
      "channel": 2,
      "note": 82,
      "start": 4.4846,
      "duration": 0.0158,
      "velocity": 94,
      "chip": "ym2612"
    },
    {
      "channel": 3,
      "note": 86,
      "start": 4.4851,
      "duration": 0.0154,
      "velocity": 92,
      "chip": "ym2612"
    },
    {
      "channel": 4,
      "note": 57,
      "start": 4.4881,
      "duration": 0.0129,
      "velocity": 94,
      "chip": "ym2612"
    },
    {
      "channel": 0,
      "note": 64,
      "start": 4.5037,
      "duration": 0.0345,
      "velocity": 91,
      "chip": "ym2612"
    },
    {
      "channel": 1,
      "note": 73,
      "start": 4.5042,
      "duration": 0.0179,
      "velocity": 94,
      "chip": "ym2612"
    },
    {
      "channel": 2,
      "note": 85,
      "start": 4.5047,
      "duration": 0.0177,
      "velocity": 94,
      "chip": "ym2612"
    },
    {
      "channel": 3,
      "note": 82,
      "start": 4.5053,
      "duration": 0.0174,
      "velocity": 92,
      "chip": "ym2612"
    },
    {
      "channel": 4,
      "note": 57,
      "start": 4.5107,
      "duration": 0.0285,
      "velocity": 94,
      "chip": "ym2612"
    },
    {
      "channel": 1,
      "note": 72,
      "start": 4.5251,
      "duration": 0.0132,
      "velocity": 94,
      "chip": "ym2612"
    },
    {
      "channel": 2,
      "note": 84,
      "start": 4.5256,
      "duration": 0.013,
      "velocity": 94,
      "chip": "ym2612"
    },
    {
      "channel": 3,
      "note": 85,
      "start": 4.5265,
      "duration": 0.0124,
      "velocity": 92,
      "chip": "ym2612"
    },
    {
      "channel": 0,
      "note": 56,
      "start": 4.5414,
      "duration": 0.0382,
      "velocity": 91,
      "chip": "ym2612"
    },
    {
      "channel": 1,
      "note": 68,
      "start": 4.5421,
      "duration": 0.0192,
      "velocity": 94,
      "chip": "ym2612"
    },
    {
      "channel": 2,
      "note": 80,
      "start": 4.5427,
      "duration": 0.0188,
      "velocity": 94,
      "chip": "ym2612"
    },
    {
      "channel": 3,
      "note": 84,
      "start": 4.5436,
      "duration": 0.0183,
      "velocity": 92,
      "chip": "ym2612"
    },
    {
      "channel": 4,
      "note": 57,
      "start": 4.549,
      "duration": 0.0132,
      "velocity": 94,
      "chip": "ym2612"
    },
    {
      "channel": 1,
      "note": 80,
      "start": 4.564,
      "duration": 0.0159,
      "velocity": 94,
      "chip": "ym2612"
    },
    {
      "channel": 2,
      "note": 92,
      "start": 4.5645,
      "duration": 0.0159,
      "velocity": 94,
      "chip": "ym2612"
    },
    {
      "channel": 3,
      "note": 80,
      "start": 4.5651,
      "duration": 0.0155,
      "velocity": 92,
      "chip": "ym2612"
    },
    {
      "channel": 4,
      "note": 57,
      "start": 4.5681,
      "duration": 0.013,
      "velocity": 94,
      "chip": "ym2612"
    },
    {
      "channel": 0,
      "note": 56,
      "start": 4.5829,
      "duration": 0.0137,
      "velocity": 91,
      "chip": "ym2612"
    },
    {
      "channel": 1,
      "note": 80,
      "start": 4.5834,
      "duration": 0.0134,
      "velocity": 94,
      "chip": "ym2612"
    },
    {
      "channel": 2,
      "note": 92,
      "start": 4.5839,
      "duration": 0.0132,
      "velocity": 94,
      "chip": "ym2612"
    },
    {
      "channel": 3,
      "note": 92,
      "start": 4.5845,
      "duration": 0.0129,
      "velocity": 92,
      "chip": "ym2612"
    },
    {
      "channel": 4,
      "note": 57,
      "start": 4.5854,
      "duration": 0.0124,
      "velocity": 94,
      "chip": "ym2612"
    },
    {
      "channel": 0,
      "note": 56,
      "start": 4.5994,
      "duration": 0.0137,
      "velocity": 91,
      "chip": "ym2612"
    },
    {
      "channel": 1,
      "note": 70,
      "start": 4.5999,
      "duration": 0.0135,
      "velocity": 94,
      "chip": "ym2612"
    },
    {
      "channel": 2,
      "note": 82,
      "start": 4.6005,
      "duration": 0.0132,
      "velocity": 94,
      "chip": "ym2612"
    },
    {
      "channel": 3,
      "note": 92,
      "start": 4.601,
      "duration": 0.013,
      "velocity": 92,
      "chip": "ym2612"
    },
    {
      "channel": 4,
      "note": 57,
      "start": 4.6017,
      "duration": 0.0127,
      "velocity": 94,
      "chip": "ym2612"
    },
    {
      "channel": 1,
      "note": 79,
      "start": 4.6166,
      "duration": 0.0158,
      "velocity": 94,
      "chip": "ym2612"
    },
    {
      "channel": 2,
      "note": 91,
      "start": 4.6171,
      "duration": 0.0156,
      "velocity": 94,
      "chip": "ym2612"
    },
    {
      "channel": 3,
      "note": 82,
      "start": 4.6178,
      "duration": 0.0152,
      "velocity": 92,
      "chip": "ym2612"
    },
    {
      "channel": 4,
      "note": 57,
      "start": 4.6207,
      "duration": 0.0126,
      "velocity": 94,
      "chip": "ym2612"
    },
    {
      "channel": 0,
      "note": 56,
      "start": 4.6353,
      "duration": 0.0163,
      "velocity": 91,
      "chip": "ym2612"
    },
    {
      "channel": 1,
      "note": 71,
      "start": 4.6358,
      "duration": 0.016,
      "velocity": 94,
      "chip": "ym2612"
    },
    {
      "channel": 2,
      "note": 83,
      "start": 4.6363,
      "duration": 0.0158,
      "velocity": 94,
      "chip": "ym2612"
    },
    {
      "channel": 3,
      "note": 91,
      "start": 4.6369,
      "duration": 0.0155,
      "velocity": 92,
      "chip": "ym2612"
    },
    {
      "channel": 4,
      "note": 57,
      "start": 4.6401,
      "duration": 0.0127,
      "velocity": 94,
      "chip": "ym2612"
    },
    {
      "channel": 0,
      "note": 57,
      "start": 4.6545,
      "duration": 0.0143,
      "velocity": 91,
      "chip": "ym2612"
    },
    {
      "channel": 1,
      "note": 78,
      "start": 4.6551,
      "duration": 0.014,
      "velocity": 94,
      "chip": "ym2612"
    },
    {
      "channel": 2,
      "note": 90,
      "start": 4.6556,
      "duration": 0.0137,
      "velocity": 94,
      "chip": "ym2612"
    },
    {
      "channel": 3,
      "note": 83,
      "start": 4.6561,
      "duration": 0.0135,
      "velocity": 92,
      "chip": "ym2612"
    },
    {
      "channel": 4,
      "note": 57,
      "start": 4.6568,
      "duration": 0.0132,
      "velocity": 94,
      "chip": "ym2612"
    },
    {
      "channel": 0,
      "note": 59,
      "start": 4.6738,
      "duration": 0.0141,
      "velocity": 91,
      "chip": "ym2612"
    },
    {
      "channel": 1,
      "note": 77,
      "start": 4.6743,
      "duration": 0.0138,
      "velocity": 94,
      "chip": "ym2612"
    },
    {
      "channel": 2,
      "note": 89,
      "start": 4.6748,
      "duration": 0.0136,
      "velocity": 94,
      "chip": "ym2612"
    },
    {
      "channel": 3,
      "note": 90,
      "start": 4.6754,
      "duration": 0.0132,
      "velocity": 92,
      "chip": "ym2612"
    },
    {
      "channel": 4,
      "note": 57,
      "start": 4.676,
      "duration": 0.013,
      "velocity": 94,
      "chip": "ym2612"
    },
    {
      "channel": 0,
      "note": 60,
      "start": 4.6927,
      "duration": 0.0349,
      "velocity": 91,
      "chip": "ym2612"
    },
    {
      "channel": 1,
      "note": 72,
      "start": 4.6932,
      "duration": 0.016,
      "velocity": 94,
      "chip": "ym2612"
    },
    {
      "channel": 2,
      "note": 84,
      "start": 4.6937,
      "duration": 0.0158,
      "velocity": 94,
      "chip": "ym2612"
    },
    {
      "channel": 3,
      "note": 89,
      "start": 4.6943,
      "duration": 0.0155,
      "velocity": 92,
      "chip": "ym2612"
    },
    {
      "channel": 4,
      "note": 57,
      "start": 4.6975,
      "duration": 0.0127,
      "velocity": 94,
      "chip": "ym2612"
    },
    {
      "channel": 1,
      "note": 76,
      "start": 4.712,
      "duration": 0.0159,
      "velocity": 94,
      "chip": "ym2612"
    },
    {
      "channel": 2,
      "note": 88,
      "start": 4.7125,
      "duration": 0.0157,
      "velocity": 94,
      "chip": "ym2612"
    },
    {
      "channel": 3,
      "note": 84,
      "start": 4.7131,
      "duration": 0.0153,
      "velocity": 92,
      "chip": "ym2612"
    },
    {
      "channel": 4,
      "note": 57,
      "start": 4.716,
      "duration": 0.0128,
      "velocity": 94,
      "chip": "ym2612"
    },
    {
      "channel": 0,
      "note": 60,
      "start": 4.7312,
      "duration": 0.0139,
      "velocity": 91,
      "chip": "ym2612"
    },
    {
      "channel": 1,
      "note": 75,
      "start": 4.7317,
      "duration": 0.0136,
      "velocity": 94,
      "chip": "ym2612"
    },
    {
      "channel": 2,
      "note": 87,
      "start": 4.7322,
      "duration": 0.0134,
      "velocity": 94,
      "chip": "ym2612"
    },
    {
      "channel": 3,
      "note": 88,
      "start": 4.7328,
      "duration": 0.0131,
      "velocity": 92,
      "chip": "ym2612"
    },
    {
      "channel": 4,
      "note": 57,
      "start": 4.7334,
      "duration": 0.0128,
      "velocity": 94,
      "chip": "ym2612"
    },
    {
      "channel": 0,
      "note": 62,
      "start": 4.748,
      "duration": 0.0329,
      "velocity": 91,
      "chip": "ym2612"
    },
    {
      "channel": 1,
      "note": 71,
      "start": 4.7485,
      "duration": 0.0134,
      "velocity": 94,
      "chip": "ym2612"
    },
    {
      "channel": 2,
      "note": 83,
      "start": 4.7491,
      "duration": 0.0131,
      "velocity": 94,
      "chip": "ym2612"
    },
    {
      "channel": 3,
      "note": 87,
      "start": 4.7496,
      "duration": 0.0129,
      "velocity": 92,
      "chip": "ym2612"
    },
    {
      "channel": 4,
      "note": 57,
      "start": 4.7503,
      "duration": 0.0125,
      "velocity": 94,
      "chip": "ym2612"
    },
    {
      "channel": 1,
      "note": 74,
      "start": 4.7651,
      "duration": 0.0161,
      "velocity": 94,
      "chip": "ym2612"
    },
    {
      "channel": 2,
      "note": 86,
      "start": 4.7658,
      "duration": 0.0157,
      "velocity": 94,
      "chip": "ym2612"
    },
    {
      "channel": 3,
      "note": 83,
      "start": 4.7664,
      "duration": 0.0154,
      "velocity": 92,
      "chip": "ym2612"
    },
    {
      "channel": 4,
      "note": 57,
      "start": 4.7693,
      "duration": 0.0128,
      "velocity": 94,
      "chip": "ym2612"
    },
    {
      "channel": 0,
      "note": 62,
      "start": 4.7837,
      "duration": 0.0158,
      "velocity": 91,
      "chip": "ym2612"
    },
    {
      "channel": 1,
      "note": 70,
      "start": 4.7843,
      "duration": 0.0156,
      "velocity": 94,
      "chip": "ym2612"
    },
    {
      "channel": 2,
      "note": 82,
      "start": 4.7848,
      "duration": 0.0154,
      "velocity": 94,
      "chip": "ym2612"
    },
    {
      "channel": 3,
      "note": 86,
      "start": 4.7854,
      "duration": 0.0151,
      "velocity": 92,
      "chip": "ym2612"
    },
    {
      "channel": 4,
      "note": 57,
      "start": 4.7883,
      "duration": 0.0125,
      "velocity": 94,
      "chip": "ym2612"
    },
    {
      "channel": 0,
      "note": 64,
      "start": 4.8034,
      "duration": 0.0349,
      "velocity": 91,
      "chip": "ym2612"
    },
    {
      "channel": 1,
      "note": 73,
      "start": 4.8039,
      "duration": 0.0182,
      "velocity": 94,
      "chip": "ym2612"
    },
    {
      "channel": 2,
      "note": 85,
      "start": 4.8044,
      "duration": 0.018,
      "velocity": 94,
      "chip": "ym2612"
    },
    {
      "channel": 3,
      "note": 82,
      "start": 4.805,
      "duration": 0.0177,
      "velocity": 92,
      "chip": "ym2612"
    },
    {
      "channel": 4,
      "note": 57,
      "start": 4.8103,
      "duration": 0.0291,
      "velocity": 94,
      "chip": "ym2612"
    },
    {
      "channel": 1,
      "note": 72,
      "start": 4.8253,
      "duration": 0.0132,
      "velocity": 94,
      "chip": "ym2612"
    },
    {
      "channel": 2,
      "note": 84,
      "start": 4.8258,
      "duration": 0.013,
      "velocity": 94,
      "chip": "ym2612"
    },
    {
      "channel": 3,
      "note": 85,
      "start": 4.8265,
      "duration": 0.0126,
      "velocity": 92,
      "chip": "ym2612"
    },
    {
      "channel": 0,
      "note": 56,
      "start": 4.8416,
      "duration": 0.0383,
      "velocity": 91,
      "chip": "ym2612"
    },
    {
      "channel": 1,
      "note": 68,
      "start": 4.8422,
      "duration": 0.0192,
      "velocity": 94,
      "chip": "ym2612"
    },
    {
      "channel": 2,
      "note": 80,
      "start": 4.8429,
      "duration": 0.0188,
      "velocity": 94,
      "chip": "ym2612"
    },
    {
      "channel": 3,
      "note": 84,
      "start": 4.8438,
      "duration": 0.0183,
      "velocity": 92,
      "chip": "ym2612"
    },
    {
      "channel": 4,
      "note": 57,
      "start": 4.8492,
      "duration": 0.0132,
      "velocity": 94,
      "chip": "ym2612"
    },
    {
      "channel": 1,
      "note": 80,
      "start": 4.8642,
      "duration": 0.0159,
      "velocity": 94,
      "chip": "ym2612"
    },
    {
      "channel": 2,
      "note": 92,
      "start": 4.8647,
      "duration": 0.0157,
      "velocity": 94,
      "chip": "ym2612"
    },
    {
      "channel": 3,
      "note": 80,
      "start": 4.8654,
      "duration": 0.0154,
      "velocity": 92,
      "chip": "ym2612"
    },
    {
      "channel": 4,
      "note": 57,
      "start": 4.8683,
      "duration": 0.0128,
      "velocity": 94,
      "chip": "ym2612"
    },
    {
      "channel": 0,
      "note": 56,
      "start": 4.8831,
      "duration": 0.0136,
      "velocity": 91,
      "chip": "ym2612"
    },
    {
      "channel": 1,
      "note": 80,
      "start": 4.8836,
      "duration": 0.0134,
      "velocity": 94,
      "chip": "ym2612"
    },
    {
      "channel": 2,
      "note": 92,
      "start": 4.8841,
      "duration": 0.0131,
      "velocity": 94,
      "chip": "ym2612"
    },
    {
      "channel": 3,
      "note": 92,
      "start": 4.8847,
      "duration": 0.0129,
      "velocity": 92,
      "chip": "ym2612"
    },
    {
      "channel": 4,
      "note": 57,
      "start": 4.8853,
      "duration": 0.0125,
      "velocity": 94,
      "chip": "ym2612"
    },
    {
      "channel": 0,
      "note": 56,
      "start": 4.8995,
      "duration": 0.014,
      "velocity": 91,
      "chip": "ym2612"
    },
    {
      "channel": 1,
      "note": 70,
      "start": 4.9,
      "duration": 0.0138,
      "velocity": 94,
      "chip": "ym2612"
    },
    {
      "channel": 2,
      "note": 82,
      "start": 4.9005,
      "duration": 0.0135,
      "velocity": 94,
      "chip": "ym2612"
    },
    {
      "channel": 3,
      "note": 92,
      "start": 4.9011,
      "duration": 0.0132,
      "velocity": 92,
      "chip": "ym2612"
    },
    {
      "channel": 4,
      "note": 57,
      "start": 4.9017,
      "duration": 0.0129,
      "velocity": 94,
      "chip": "ym2612"
    },
    {
      "channel": 1,
      "note": 79,
      "start": 4.9171,
      "duration": 0.016,
      "velocity": 94,
      "chip": "ym2612"
    },
    {
      "channel": 2,
      "note": 91,
      "start": 4.9176,
      "duration": 0.0157,
      "velocity": 94,
      "chip": "ym2612"
    },
    {
      "channel": 3,
      "note": 82,
      "start": 4.9182,
      "duration": 0.0155,
      "velocity": 92,
      "chip": "ym2612"
    },
    {
      "channel": 4,
      "note": 57,
      "start": 4.9211,
      "duration": 0.0129,
      "velocity": 94,
      "chip": "ym2612"
    },
    {
      "channel": 0,
      "note": 56,
      "start": 4.936,
      "duration": 0.0163,
      "velocity": 91,
      "chip": "ym2612"
    },
    {
      "channel": 1,
      "note": 71,
      "start": 4.9365,
      "duration": 0.016,
      "velocity": 94,
      "chip": "ym2612"
    },
    {
      "channel": 2,
      "note": 83,
      "start": 4.937,
      "duration": 0.0158,
      "velocity": 94,
      "chip": "ym2612"
    },
    {
      "channel": 3,
      "note": 91,
      "start": 4.9376,
      "duration": 0.0155,
      "velocity": 92,
      "chip": "ym2612"
    },
    {
      "channel": 4,
      "note": 57,
      "start": 4.9408,
      "duration": 0.0126,
      "velocity": 94,
      "chip": "ym2612"
    },
    {
      "channel": 0,
      "note": 57,
      "start": 4.9552,
      "duration": 0.0141,
      "velocity": 91,
      "chip": "ym2612"
    },
    {
      "channel": 1,
      "note": 78,
      "start": 4.9557,
      "duration": 0.0139,
      "velocity": 94,
      "chip": "ym2612"
    },
    {
      "channel": 2,
      "note": 90,
      "start": 4.9562,
      "duration": 0.0136,
      "velocity": 94,
      "chip": "ym2612"
    },
    {
      "channel": 3,
      "note": 83,
      "start": 4.9568,
      "duration": 0.0133,
      "velocity": 92,
      "chip": "ym2612"
    },
    {
      "channel": 4,
      "note": 57,
      "start": 4.9574,
      "duration": 0.013,
      "velocity": 94,
      "chip": "ym2612"
    },
    {
      "channel": 0,
      "note": 59,
      "start": 4.9743,
      "duration": 0.0143,
      "velocity": 91,
      "chip": "ym2612"
    },
    {
      "channel": 1,
      "note": 77,
      "start": 4.9748,
      "duration": 0.014,
      "velocity": 94,
      "chip": "ym2612"
    },
    {
      "channel": 2,
      "note": 89,
      "start": 4.9753,
      "duration": 0.0137,
      "velocity": 94,
      "chip": "ym2612"
    },
    {
      "channel": 3,
      "note": 90,
      "start": 4.9759,
      "duration": 0.0135,
      "velocity": 92,
      "chip": "ym2612"
    },
    {
      "channel": 4,
      "note": 57,
      "start": 4.9765,
      "duration": 0.0132,
      "velocity": 94,
      "chip": "ym2612"
    },
    {
      "channel": 0,
      "note": 60,
      "start": 4.9934,
      "duration": 0.0351,
      "velocity": 91,
      "chip": "ym2612"
    },
    {
      "channel": 1,
      "note": 72,
      "start": 4.9939,
      "duration": 0.016,
      "velocity": 94,
      "chip": "ym2612"
    },
    {
      "channel": 2,
      "note": 84,
      "start": 4.9945,
      "duration": 0.0158,
      "velocity": 94,
      "chip": "ym2612"
    },
    {
      "channel": 3,
      "note": 89,
      "start": 4.995,
      "duration": 0.0155,
      "velocity": 92,
      "chip": "ym2612"
    },
    {
      "channel": 4,
      "note": 57,
      "start": 4.998,
      "duration": 0.0129,
      "velocity": 94,
      "chip": "ym2612"
    },
    {
      "channel": 1,
      "note": 76,
      "start": 5.0129,
      "duration": 0.0159,
      "velocity": 94,
      "chip": "ym2612"
    },
    {
      "channel": 2,
      "note": 88,
      "start": 5.0136,
      "duration": 0.0154,
      "velocity": 94,
      "chip": "ym2612"
    },
    {
      "channel": 3,
      "note": 84,
      "start": 5.0143,
      "duration": 0.0151,
      "velocity": 92,
      "chip": "ym2612"
    },
    {
      "channel": 4,
      "note": 57,
      "start": 5.0172,
      "duration": 0.0125,
      "velocity": 94,
      "chip": "ym2612"
    },
    {
      "channel": 0,
      "note": 60,
      "start": 5.0318,
      "duration": 0.0136,
      "velocity": 91,
      "chip": "ym2612"
    },
    {
      "channel": 1,
      "note": 75,
      "start": 5.0323,
      "duration": 0.0134,
      "velocity": 94,
      "chip": "ym2612"
    },
    {
      "channel": 2,
      "note": 87,
      "start": 5.0328,
      "duration": 0.0132,
      "velocity": 94,
      "chip": "ym2612"
    },
    {
      "channel": 3,
      "note": 88,
      "start": 5.0334,
      "duration": 0.0129,
      "velocity": 92,
      "chip": "ym2612"
    },
    {
      "channel": 4,
      "note": 57,
      "start": 5.0341,
      "duration": 0.0126,
      "velocity": 94,
      "chip": "ym2612"
    },
    {
      "channel": 0,
      "note": 62,
      "start": 5.0484,
      "duration": 0.0328,
      "velocity": 91,
      "chip": "ym2612"
    },
    {
      "channel": 1,
      "note": 71,
      "start": 5.0489,
      "duration": 0.0134,
      "velocity": 94,
      "chip": "ym2612"
    },
    {
      "channel": 2,
      "note": 83,
      "start": 5.0495,
      "duration": 0.0131,
      "velocity": 94,
      "chip": "ym2612"
    },
    {
      "channel": 3,
      "note": 87,
      "start": 5.05,
      "duration": 0.0128,
      "velocity": 92,
      "chip": "ym2612"
    },
    {
      "channel": 4,
      "note": 57,
      "start": 5.0507,
      "duration": 0.0125,
      "velocity": 94,
      "chip": "ym2612"
    },
    {
      "channel": 1,
      "note": 74,
      "start": 5.0654,
      "duration": 0.0161,
      "velocity": 94,
      "chip": "ym2612"
    },
    {
      "channel": 2,
      "note": 86,
      "start": 5.066,
      "duration": 0.0158,
      "velocity": 94,
      "chip": "ym2612"
    },
    {
      "channel": 3,
      "note": 83,
      "start": 5.0665,
      "duration": 0.0156,
      "velocity": 92,
      "chip": "ym2612"
    },
    {
      "channel": 4,
      "note": 57,
      "start": 5.0697,
      "duration": 0.0127,
      "velocity": 94,
      "chip": "ym2612"
    },
    {
      "channel": 0,
      "note": 62,
      "start": 5.0841,
      "duration": 0.0158,
      "velocity": 91,
      "chip": "ym2612"
    },
    {
      "channel": 1,
      "note": 70,
      "start": 5.0846,
      "duration": 0.0156,
      "velocity": 94,
      "chip": "ym2612"
    },
    {
      "channel": 2,
      "note": 82,
      "start": 5.0851,
      "duration": 0.0154,
      "velocity": 94,
      "chip": "ym2612"
    },
    {
      "channel": 3,
      "note": 86,
      "start": 5.0857,
      "duration": 0.0151,
      "velocity": 92,
      "chip": "ym2612"
    },
    {
      "channel": 4,
      "note": 57,
      "start": 5.0886,
      "duration": 0.0125,
      "velocity": 94,
      "chip": "ym2612"
    },
    {
      "channel": 0,
      "note": 64,
      "start": 5.1037,
      "duration": 0.0349,
      "velocity": 91,
      "chip": "ym2612"
    },
    {
      "channel": 1,
      "note": 73,
      "start": 5.1041,
      "duration": 0.018,
      "velocity": 94,
      "chip": "ym2612"
    },
    {
      "channel": 2,
      "note": 85,
      "start": 5.1047,
      "duration": 0.0178,
      "velocity": 94,
      "chip": "ym2612"
    },
    {
      "channel": 3,
      "note": 82,
      "start": 5.1052,
      "duration": 0.0174,
      "velocity": 92,
      "chip": "ym2612"
    },
    {
      "channel": 4,
      "note": 57,
      "start": 5.1105,
      "duration": 0.0291,
      "velocity": 94,
      "chip": "ym2612"
    },
    {
      "channel": 1,
      "note": 72,
      "start": 5.1255,
      "duration": 0.0133,
      "velocity": 94,
      "chip": "ym2612"
    },
    {
      "channel": 2,
      "note": 84,
      "start": 5.126,
      "duration": 0.013,
      "velocity": 94,
      "chip": "ym2612"
    },
    {
      "channel": 3,
      "note": 85,
      "start": 5.1267,
      "duration": 0.0127,
      "velocity": 92,
      "chip": "ym2612"
    },
    {
      "channel": 0,
      "note": 56,
      "start": 5.1418,
      "duration": 0.0386,
      "velocity": 91,
      "chip": "ym2612"
    },
    {
      "channel": 1,
      "note": 68,
      "start": 5.1425,
      "duration": 0.0192,
      "velocity": 94,
      "chip": "ym2612"
    },
    {
      "channel": 2,
      "note": 80,
      "start": 5.1431,
      "duration": 0.0189,
      "velocity": 94,
      "chip": "ym2612"
    },
    {
      "channel": 3,
      "note": 84,
      "start": 5.144,
      "duration": 0.0183,
      "velocity": 92,
      "chip": "ym2612"
    },
    {
      "channel": 4,
      "note": 57,
      "start": 5.1494,
      "duration": 0.0132,
      "velocity": 94,
      "chip": "ym2612"
    },
    {
      "channel": 1,
      "note": 80,
      "start": 5.1646,
      "duration": 0.0161,
      "velocity": 94,
      "chip": "ym2612"
    },
    {
      "channel": 2,
      "note": 92,
      "start": 5.1651,
      "duration": 0.0159,
      "velocity": 94,
      "chip": "ym2612"
    },
    {
      "channel": 3,
      "note": 80,
      "start": 5.1657,
      "duration": 0.0156,
      "velocity": 92,
      "chip": "ym2612"
    },
    {
      "channel": 4,
      "note": 57,
      "start": 5.1686,
      "duration": 0.013,
      "velocity": 94,
      "chip": "ym2612"
    },
    {
      "channel": 0,
      "note": 56,
      "start": 5.1835,
      "duration": 0.0135,
      "velocity": 91,
      "chip": "ym2612"
    },
    {
      "channel": 1,
      "note": 80,
      "start": 5.1841,
      "duration": 0.0132,
      "velocity": 94,
      "chip": "ym2612"
    },
    {
      "channel": 2,
      "note": 92,
      "start": 5.1846,
      "duration": 0.0129,
      "velocity": 94,
      "chip": "ym2612"
    },
    {
      "channel": 3,
      "note": 92,
      "start": 5.1851,
      "duration": 0.0127,
      "velocity": 92,
      "chip": "ym2612"
    },
    {
      "channel": 4,
      "note": 57,
      "start": 5.1858,
      "duration": 0.0124,
      "velocity": 94,
      "chip": "ym2612"
    },
    {
      "channel": 0,
      "note": 56,
      "start": 5.2023,
      "duration": 0.0138,
      "velocity": 91,
      "chip": "ym2612"
    },
    {
      "channel": 1,
      "note": 70,
      "start": 5.2028,
      "duration": 0.0135,
      "velocity": 94,
      "chip": "ym2612"
    },
    {
      "channel": 2,
      "note": 82,
      "start": 5.2033,
      "duration": 0.0133,
      "velocity": 94,
      "chip": "ym2612"
    },
    {
      "channel": 3,
      "note": 92,
      "start": 5.2039,
      "duration": 0.013,
      "velocity": 92,
      "chip": "ym2612"
    },
    {
      "channel": 4,
      "note": 57,
      "start": 5.2045,
      "duration": 0.0127,
      "velocity": 94,
      "chip": "ym2612"
    },
    {
      "channel": 1,
      "note": 79,
      "start": 5.2196,
      "duration": 0.016,
      "velocity": 94,
      "chip": "ym2612"
    },
    {
      "channel": 2,
      "note": 91,
      "start": 5.2201,
      "duration": 0.0158,
      "velocity": 94,
      "chip": "ym2612"
    },
    {
      "channel": 3,
      "note": 82,
      "start": 5.2207,
      "duration": 0.0154,
      "velocity": 92,
      "chip": "ym2612"
    },
    {
      "channel": 4,
      "note": 57,
      "start": 5.2236,
      "duration": 0.0129,
      "velocity": 94,
      "chip": "ym2612"
    },
    {
      "channel": 0,
      "note": 56,
      "start": 5.2383,
      "duration": 0.0162,
      "velocity": 91,
      "chip": "ym2612"
    },
    {
      "channel": 1,
      "note": 71,
      "start": 5.2388,
      "duration": 0.016,
      "velocity": 94,
      "chip": "ym2612"
    },
    {
      "channel": 2,
      "note": 83,
      "start": 5.2393,
      "duration": 0.0157,
      "velocity": 94,
      "chip": "ym2612"
    },
    {
      "channel": 3,
      "note": 91,
      "start": 5.2399,
      "duration": 0.0154,
      "velocity": 92,
      "chip": "ym2612"
    },
    {
      "channel": 4,
      "note": 57,
      "start": 5.2429,
      "duration": 0.0128,
      "velocity": 94,
      "chip": "ym2612"
    },
    {
      "channel": 0,
      "note": 57,
      "start": 5.2576,
      "duration": 0.0143,
      "velocity": 91,
      "chip": "ym2612"
    },
    {
      "channel": 1,
      "note": 78,
      "start": 5.2584,
      "duration": 0.0138,
      "velocity": 94,
      "chip": "ym2612"
    },
    {
      "channel": 2,
      "note": 90,
      "start": 5.2589,
      "duration": 0.0135,
      "velocity": 94,
      "chip": "ym2612"
    },
    {
      "channel": 3,
      "note": 83,
      "start": 5.2595,
      "duration": 0.0133,
      "velocity": 92,
      "chip": "ym2612"
    },
    {
      "channel": 4,
      "note": 57,
      "start": 5.2601,
      "duration": 0.0129,
      "velocity": 94,
      "chip": "ym2612"
    },
    {
      "channel": 0,
      "note": 59,
      "start": 5.2766,
      "duration": 0.0141,
      "velocity": 91,
      "chip": "ym2612"
    },
    {
      "channel": 1,
      "note": 77,
      "start": 5.2771,
      "duration": 0.0138,
      "velocity": 94,
      "chip": "ym2612"
    },
    {
      "channel": 2,
      "note": 89,
      "start": 5.2776,
      "duration": 0.0135,
      "velocity": 94,
      "chip": "ym2612"
    },
    {
      "channel": 3,
      "note": 90,
      "start": 5.2782,
      "duration": 0.0133,
      "velocity": 92,
      "chip": "ym2612"
    },
    {
      "channel": 4,
      "note": 57,
      "start": 5.2788,
      "duration": 0.013,
      "velocity": 94,
      "chip": "ym2612"
    },
    {
      "channel": 0,
      "note": 60,
      "start": 5.2956,
      "duration": 0.0349,
      "velocity": 91,
      "chip": "ym2612"
    },
    {
      "channel": 1,
      "note": 72,
      "start": 5.2961,
      "duration": 0.0158,
      "velocity": 94,
      "chip": "ym2612"
    },
    {
      "channel": 2,
      "note": 84,
      "start": 5.2966,
      "duration": 0.0155,
      "velocity": 94,
      "chip": "ym2612"
    },
    {
      "channel": 3,
      "note": 89,
      "start": 5.2972,
      "duration": 0.0152,
      "velocity": 92,
      "chip": "ym2612"
    },
    {
      "channel": 4,
      "note": 57,
      "start": 5.3001,
      "duration": 0.0127,
      "velocity": 94,
      "chip": "ym2612"
    },
    {
      "channel": 1,
      "note": 76,
      "start": 5.3149,
      "duration": 0.0159,
      "velocity": 94,
      "chip": "ym2612"
    },
    {
      "channel": 2,
      "note": 88,
      "start": 5.3154,
      "duration": 0.0156,
      "velocity": 94,
      "chip": "ym2612"
    },
    {
      "channel": 3,
      "note": 84,
      "start": 5.3162,
      "duration": 0.0151,
      "velocity": 92,
      "chip": "ym2612"
    },
    {
      "channel": 4,
      "note": 57,
      "start": 5.3191,
      "duration": 0.0125,
      "velocity": 94,
      "chip": "ym2612"
    },
    {
      "channel": 0,
      "note": 60,
      "start": 5.3339,
      "duration": 0.0139,
      "velocity": 91,
      "chip": "ym2612"
    },
    {
      "channel": 1,
      "note": 75,
      "start": 5.3344,
      "duration": 0.0136,
      "velocity": 94,
      "chip": "ym2612"
    },
    {
      "channel": 2,
      "note": 87,
      "start": 5.3349,
      "duration": 0.0134,
      "velocity": 94,
      "chip": "ym2612"
    },
    {
      "channel": 3,
      "note": 88,
      "start": 5.3355,
      "duration": 0.0131,
      "velocity": 92,
      "chip": "ym2612"
    },
    {
      "channel": 4,
      "note": 57,
      "start": 5.3361,
      "duration": 0.0129,
      "velocity": 94,
      "chip": "ym2612"
    },
    {
      "channel": 0,
      "note": 62,
      "start": 5.3508,
      "duration": 0.0332,
      "velocity": 91,
      "chip": "ym2612"
    },
    {
      "channel": 1,
      "note": 71,
      "start": 5.3513,
      "duration": 0.0134,
      "velocity": 94,
      "chip": "ym2612"
    },
    {
      "channel": 2,
      "note": 83,
      "start": 5.3518,
      "duration": 0.0132,
      "velocity": 94,
      "chip": "ym2612"
    },
    {
      "channel": 3,
      "note": 87,
      "start": 5.3524,
      "duration": 0.0129,
      "velocity": 92,
      "chip": "ym2612"
    },
    {
      "channel": 4,
      "note": 57,
      "start": 5.353,
      "duration": 0.0128,
      "velocity": 94,
      "chip": "ym2612"
    },
    {
      "channel": 1,
      "note": 74,
      "start": 5.3681,
      "duration": 0.0161,
      "velocity": 94,
      "chip": "ym2612"
    },
    {
      "channel": 2,
      "note": 86,
      "start": 5.3686,
      "duration": 0.0159,
      "velocity": 94,
      "chip": "ym2612"
    },
    {
      "channel": 3,
      "note": 83,
      "start": 5.3693,
      "duration": 0.0156,
      "velocity": 92,
      "chip": "ym2612"
    },
    {
      "channel": 4,
      "note": 57,
      "start": 5.3724,
      "duration": 0.0128,
      "velocity": 94,
      "chip": "ym2612"
    },
    {
      "channel": 0,
      "note": 62,
      "start": 5.3868,
      "duration": 0.0158,
      "velocity": 91,
      "chip": "ym2612"
    },
    {
      "channel": 1,
      "note": 70,
      "start": 5.3873,
      "duration": 0.0156,
      "velocity": 94,
      "chip": "ym2612"
    },
    {
      "channel": 2,
      "note": 82,
      "start": 5.3878,
      "duration": 0.0153,
      "velocity": 94,
      "chip": "ym2612"
    },
    {
      "channel": 3,
      "note": 86,
      "start": 5.3883,
      "duration": 0.0151,
      "velocity": 92,
      "chip": "ym2612"
    },
    {
      "channel": 4,
      "note": 57,
      "start": 5.3913,
      "duration": 0.0124,
      "velocity": 94,
      "chip": "ym2612"
    },
    {
      "channel": 0,
      "note": 64,
      "start": 5.4063,
      "duration": 0.0348,
      "velocity": 91,
      "chip": "ym2612"
    },
    {
      "channel": 1,
      "note": 73,
      "start": 5.4068,
      "duration": 0.018,
      "velocity": 94,
      "chip": "ym2612"
    },
    {
      "channel": 2,
      "note": 85,
      "start": 5.4073,
      "duration": 0.0178,
      "velocity": 94,
      "chip": "ym2612"
    },
    {
      "channel": 3,
      "note": 82,
      "start": 5.4079,
      "duration": 0.0175,
      "velocity": 92,
      "chip": "ym2612"
    },
    {
      "channel": 4,
      "note": 57,
      "start": 5.4132,
      "duration": 0.029,
      "velocity": 94,
      "chip": "ym2612"
    },
    {
      "channel": 1,
      "note": 72,
      "start": 5.4283,
      "duration": 0.013,
      "velocity": 94,
      "chip": "ym2612"
    },
    {
      "channel": 2,
      "note": 84,
      "start": 5.4288,
      "duration": 0.0128,
      "velocity": 94,
      "chip": "ym2612"
    },
    {
      "channel": 3,
      "note": 85,
      "start": 5.4294,
      "duration": 0.0125,
      "velocity": 92,
      "chip": "ym2612"
    },
    {
      "channel": 0,
      "note": 54,
      "start": 5.4447,
      "duration": 0.0211,
      "velocity": 91,
      "chip": "ym2612"
    },
    {
      "channel": 1,
      "note": 66,
      "start": 5.4456,
      "duration": 17.3787,
      "velocity": 94,
      "chip": "ym2612"
    },
    {
      "channel": 2,
      "note": 73,
      "start": 5.4464,
      "duration": 17.3778,
      "velocity": 94,
      "chip": "ym2612"
    },
    {
      "channel": 3,
      "note": 84,
      "start": 5.4475,
      "duration": 0.019,
      "velocity": 92,
      "chip": "ym2612"
    },
    {
      "channel": 4,
      "note": 57,
      "start": 5.4532,
      "duration": 0.0137,
      "velocity": 94,
      "chip": "ym2612"
    },
    {
      "channel": 0,
      "note": 54,
      "start": 5.4686,
      "duration": 0.016,
      "velocity": 91,
      "chip": "ym2612"
    },
    {
      "channel": 3,
      "note": 78,
      "start": 5.4698,
      "duration": 0.0156,
      "velocity": 92,
      "chip": "ym2612"
    },
    {
      "channel": 4,
      "note": 57,
      "start": 5.4727,
      "duration": 0.013,
      "velocity": 94,
      "chip": "ym2612"
    }
  ]
}