{
  "track_name": "06 - Downtown Performance (Solo)",
  "duration_sec": 56.487,
  "sample_rate": 44100,
  "note_count": 155,
  "unique_pitches": 17,
  "pitch_range": 24,
  "avg_note_duration": 0.1881,
  "reconstruction_stats": {
    "notes_reconstructed": 155,
    "keyon_events": 155,
    "keyoff_events": 155,
    "orphan_keyons": 0,
    "unique_pitches": 17,
    "pitch_range": 24,
    "avg_duration_sec": 0.1881
  },
  "metadata": {
    "source": "T\\Tempo\\06 - Downtown Performance (Solo).vgz"
  },
  "notes": [
    {
      "channel": 1,
      "note": 54,
      "start": 1.3053,
      "duration": 0.3801,
      "velocity": 64,
      "chip": "ym2612"
    },
    {
      "channel": 1,
      "note": 61,
      "start": 1.6859,
      "duration": 0.1327,
      "velocity": 64,
      "chip": "ym2612"
    },
    {
      "channel": 1,
      "note": 66,
      "start": 2.0695,
      "duration": 0.1157,
      "velocity": 64,
      "chip": "ym2612"
    },
    {
      "channel": 1,
      "note": 54,
      "start": 2.4524,
      "duration": 0.1164,
      "velocity": 64,
      "chip": "ym2612"
    },
    {
      "channel": 1,
      "note": 64,
      "start": 2.7031,
      "duration": 0.1178,
      "velocity": 64,
      "chip": "ym2612"
    },
    {
      "channel": 1,
      "note": 76,
      "start": 3.0855,
      "duration": 0.1184,
      "velocity": 64,
      "chip": "ym2612"
    },
    {
      "channel": 1,
      "note": 71,
      "start": 3.2044,
      "duration": 0.1306,
      "velocity": 64,
      "chip": "ym2612"
    },
    {
      "channel": 1,
      "note": 72,
      "start": 3.3355,
      "duration": 0.1163,
      "velocity": 64,
      "chip": "ym2612"
    },
    {
      "channel": 1,
      "note": 71,
      "start": 3.4523,
      "duration": 0.1349,
      "velocity": 64,
      "chip": "ym2612"
    },
    {
      "channel": 1,
      "note": 69,
      "start": 3.5876,
      "duration": 0.3838,
      "velocity": 64,
      "chip": "ym2612"
    },
    {
      "channel": 1,
      "note": 59,
      "start": 3.9719,
      "duration": 0.1796,
      "velocity": 64,
      "chip": "ym2612"
    },
    {
      "channel": 1,
      "note": 54,
      "start": 4.3367,
      "duration": 0.3821,
      "velocity": 64,
      "chip": "ym2612"
    },
    {
      "channel": 1,
      "note": 61,
      "start": 4.7193,
      "duration": 0.1327,
      "velocity": 64,
      "chip": "ym2612"
    },
    {
      "channel": 1,
      "note": 66,
      "start": 5.1028,
      "duration": 0.1328,
      "velocity": 64,
      "chip": "ym2612"
    },
    {
      "channel": 1,
      "note": 54,
      "start": 5.4858,
      "duration": 0.1163,
      "velocity": 64,
      "chip": "ym2612"
    },
    {
      "channel": 1,
      "note": 64,
      "start": 5.7362,
      "duration": 0.1182,
      "velocity": 64,
      "chip": "ym2612"
    },
    {
      "channel": 1,
      "note": 76,
      "start": 6.1189,
      "duration": 0.1162,
      "velocity": 64,
      "chip": "ym2612"
    },
    {
      "channel": 1,
      "note": 72,
      "start": 6.2357,
      "duration": 0.133,
      "velocity": 64,
      "chip": "ym2612"
    },
    {
      "channel": 1,
      "note": 71,
      "start": 6.3692,
      "duration": 0.1159,
      "velocity": 64,
      "chip": "ym2612"
    },
    {
      "channel": 1,
      "note": 69,
      "start": 6.4856,
      "duration": 0.1352,
      "velocity": 64,
      "chip": "ym2612"
    },
    {
      "channel": 1,
      "note": 64,
      "start": 6.6213,
      "duration": 0.3835,
      "velocity": 64,
      "chip": "ym2612"
    },
    {
      "channel": 1,
      "note": 53,
      "start": 7.0053,
      "duration": 0.1798,
      "velocity": 64,
      "chip": "ym2612"
    },
    {
      "channel": 1,
      "note": 54,
      "start": 7.3703,
      "duration": 0.382,
      "velocity": 64,
      "chip": "ym2612"
    },
    {
      "channel": 1,
      "note": 61,
      "start": 7.7528,
      "duration": 0.1325,
      "velocity": 64,
      "chip": "ym2612"
    },
    {
      "channel": 1,
      "note": 66,
      "start": 8.1362,
      "duration": 0.1324,
      "velocity": 64,
      "chip": "ym2612"
    },
    {
      "channel": 1,
      "note": 54,
      "start": 8.5191,
      "duration": 0.1163,
      "velocity": 64,
      "chip": "ym2612"
    },
    {
      "channel": 1,
      "note": 64,
      "start": 8.7698,
      "duration": 0.1345,
      "velocity": 64,
      "chip": "ym2612"
    },
    {
      "channel": 1,
      "note": 76,
      "start": 9.1522,
      "duration": 0.1184,
      "velocity": 64,
      "chip": "ym2612"
    },
    {
      "channel": 1,
      "note": 71,
      "start": 9.271,
      "duration": 0.1306,
      "velocity": 64,
      "chip": "ym2612"
    },
    {
      "channel": 1,
      "note": 72,
      "start": 9.4022,
      "duration": 0.1163,
      "velocity": 64,
      "chip": "ym2612"
    },
    {
      "channel": 1,
      "note": 71,
      "start": 9.5189,
      "duration": 0.1354,
      "velocity": 64,
      "chip": "ym2612"
    },
    {
      "channel": 1,
      "note": 69,
      "start": 9.6549,
      "duration": 0.3834,
      "velocity": 64,
      "chip": "ym2612"
    },
    {
      "channel": 1,
      "note": 59,
      "start": 10.0388,
      "duration": 0.1794,
      "velocity": 64,
      "chip": "ym2612"
    },
    {
      "channel": 1,
      "note": 54,
      "start": 10.4198,
      "duration": 0.3652,
      "velocity": 64,
      "chip": "ym2612"
    },
    {
      "channel": 1,
      "note": 61,
      "start": 10.7856,
      "duration": 0.1327,
      "velocity": 64,
      "chip": "ym2612"
    },
    {
      "channel": 1,
      "note": 66,
      "start": 11.1698,
      "duration": 0.1322,
      "velocity": 64,
      "chip": "ym2612"
    },
    {
      "channel": 1,
      "note": 54,
      "start": 11.5525,
      "duration": 0.1163,
      "velocity": 64,
      "chip": "ym2612"
    },
    {
      "channel": 1,
      "note": 64,
      "start": 11.8029,
      "duration": 0.1347,
      "velocity": 64,
      "chip": "ym2612"
    },
    {
      "channel": 1,
      "note": 76,
      "start": 12.1856,
      "duration": 0.1167,
      "velocity": 64,
      "chip": "ym2612"
    },
    {
      "channel": 1,
      "note": 72,
      "start": 12.3028,
      "duration": 0.1327,
      "velocity": 64,
      "chip": "ym2612"
    },
    {
      "channel": 1,
      "note": 71,
      "start": 12.436,
      "duration": 0.1163,
      "velocity": 64,
      "chip": "ym2612"
    },
    {
      "channel": 1,
      "note": 69,
      "start": 12.5529,
      "duration": 0.135,
      "velocity": 64,
      "chip": "ym2612"
    },
    {
      "channel": 1,
      "note": 64,
      "start": 12.6883,
      "duration": 0.3833,
      "velocity": 64,
      "chip": "ym2612"
    },
    {
      "channel": 1,
      "note": 53,
      "start": 13.0721,
      "duration": 0.1797,
      "velocity": 64,
      "chip": "ym2612"
    },
    {
      "channel": 1,
      "note": 57,
      "start": 13.4537,
      "duration": 0.3653,
      "velocity": 64,
      "chip": "ym2612"
    },
    {
      "channel": 1,
      "note": 64,
      "start": 13.8195,
      "duration": 0.1324,
      "velocity": 64,
      "chip": "ym2612"
    },
    {
      "channel": 1,
      "note": 69,
      "start": 14.203,
      "duration": 0.1323,
      "velocity": 64,
      "chip": "ym2612"
    },
    {
      "channel": 1,
      "note": 57,
      "start": 14.5857,
      "duration": 0.1161,
      "velocity": 64,
      "chip": "ym2612"
    },
    {
      "channel": 1,
      "note": 67,
      "start": 14.8358,
      "duration": 0.1331,
      "velocity": 64,
      "chip": "ym2612"
    },
    {
      "channel": 1,
      "note": 62,
      "start": 16.103,
      "duration": 0.1818,
      "velocity": 64,
      "chip": "ym2612"
    },
    {
      "channel": 1,
      "note": 57,
      "start": 16.4868,
      "duration": 0.3655,
      "velocity": 64,
      "chip": "ym2612"
    },
    {
      "channel": 1,
      "note": 64,
      "start": 16.8529,
      "duration": 0.1324,
      "velocity": 64,
      "chip": "ym2612"
    },
    {
      "channel": 1,
      "note": 69,
      "start": 17.2366,
      "duration": 0.1323,
      "velocity": 64,
      "chip": "ym2612"
    },
    {
      "channel": 1,
      "note": 57,
      "start": 17.6191,
      "duration": 0.116,
      "velocity": 64,
      "chip": "ym2612"
    },
    {
      "channel": 1,
      "note": 67,
      "start": 17.8689,
      "duration": 0.1333,
      "velocity": 64,
      "chip": "ym2612"
    },
    {
      "channel": 1,
      "note": 56,
      "start": 19.1361,
      "duration": 0.1821,
      "velocity": 64,
      "chip": "ym2612"
    },
    {
      "channel": 1,
      "note": 57,
      "start": 19.5203,
      "duration": 0.3654,
      "velocity": 64,
      "chip": "ym2612"
    },
    {
      "channel": 1,
      "note": 64,
      "start": 19.8862,
      "duration": 0.1324,
      "velocity": 64,
      "chip": "ym2612"
    },
    {
      "channel": 1,
      "note": 69,
      "start": 20.2696,
      "duration": 0.1323,
      "velocity": 64,
      "chip": "ym2612"
    },
    {
      "channel": 1,
      "note": 57,
      "start": 20.6525,
      "duration": 0.1325,
      "velocity": 64,
      "chip": "ym2612"
    },
    {
      "channel": 1,
      "note": 67,
      "start": 20.9025,
      "duration": 0.1332,
      "velocity": 64,
      "chip": "ym2612"
    },
    {
      "channel": 1,
      "note": 62,
      "start": 22.1698,
      "duration": 0.1817,
      "velocity": 64,
      "chip": "ym2612"
    },
    {
      "channel": 1,
      "note": 57,
      "start": 22.5535,
      "duration": 0.3655,
      "velocity": 64,
      "chip": "ym2612"
    },
    {
      "channel": 1,
      "note": 64,
      "start": 22.9195,
      "duration": 0.1324,
      "velocity": 64,
      "chip": "ym2612"
    },
    {
      "channel": 1,
      "note": 69,
      "start": 23.3032,
      "duration": 0.1324,
      "velocity": 64,
      "chip": "ym2612"
    },
    {
      "channel": 1,
      "note": 57,
      "start": 23.6858,
      "duration": 0.1326,
      "velocity": 64,
      "chip": "ym2612"
    },
    {
      "channel": 1,
      "note": 67,
      "start": 23.9356,
      "duration": 0.1333,
      "velocity": 64,
      "chip": "ym2612"
    },
    {
      "channel": 1,
      "note": 56,
      "start": 25.2029,
      "duration": 0.1819,
      "velocity": 64,
      "chip": "ym2612"
    },
    {
      "channel": 1,
      "note": 54,
      "start": 25.5871,
      "duration": 0.3819,
      "velocity": 64,
      "chip": "ym2612"
    },
    {
      "channel": 1,
      "note": 61,
      "start": 25.9695,
      "duration": 0.1158,
      "velocity": 64,
      "chip": "ym2612"
    },
    {
      "channel": 1,
      "note": 66,
      "start": 26.3362,
      "duration": 0.1323,
      "velocity": 64,
      "chip": "ym2612"
    },
    {
      "channel": 1,
      "note": 54,
      "start": 26.7191,
      "duration": 0.1329,
      "velocity": 64,
      "chip": "ym2612"
    },
    {
      "channel": 1,
      "note": 64,
      "start": 26.9698,
      "duration": 0.1346,
      "velocity": 64,
      "chip": "ym2612"
    },
    {
      "channel": 1,
      "note": 76,
      "start": 27.3522,
      "duration": 0.1351,
      "velocity": 64,
      "chip": "ym2612"
    },
    {
      "channel": 1,
      "note": 71,
      "start": 27.4877,
      "duration": 0.1139,
      "velocity": 64,
      "chip": "ym2612"
    },
    {
      "channel": 1,
      "note": 72,
      "start": 27.6021,
      "duration": 0.133,
      "velocity": 64,
      "chip": "ym2612"
    },
    {
      "channel": 1,
      "note": 71,
      "start": 27.7356,
      "duration": 0.1183,
      "velocity": 64,
      "chip": "ym2612"
    },
    {
      "channel": 1,
      "note": 69,
      "start": 27.8544,
      "duration": 0.3837,
      "velocity": 64,
      "chip": "ym2612"
    },
    {
      "channel": 1,
      "note": 59,
      "start": 28.2386,
      "duration": 0.1796,
      "velocity": 64,
      "chip": "ym2612"
    },
    {
      "channel": 1,
      "note": 54,
      "start": 28.62,
      "duration": 0.3821,
      "velocity": 64,
      "chip": "ym2612"
    },
    {
      "channel": 1,
      "note": 61,
      "start": 29.0026,
      "duration": 0.116,
      "velocity": 64,
      "chip": "ym2612"
    },
    {
      "channel": 1,
      "note": 66,
      "start": 29.3695,
      "duration": 0.1327,
      "velocity": 64,
      "chip": "ym2612"
    },
    {
      "channel": 1,
      "note": 54,
      "start": 29.7524,
      "duration": 0.133,
      "velocity": 64,
      "chip": "ym2612"
    },
    {
      "channel": 1,
      "note": 64,
      "start": 30.0029,
      "duration": 0.1349,
      "velocity": 64,
      "chip": "ym2612"
    },
    {
      "channel": 1,
      "note": 76,
      "start": 30.3856,
      "duration": 0.1327,
      "velocity": 64,
      "chip": "ym2612"
    },
    {
      "channel": 1,
      "note": 72,
      "start": 30.5188,
      "duration": 0.1166,
      "velocity": 64,
      "chip": "ym2612"
    },
    {
      "channel": 1,
      "note": 71,
      "start": 30.6359,
      "duration": 0.1328,
      "velocity": 64,
      "chip": "ym2612"
    },
    {
      "channel": 1,
      "note": 69,
      "start": 30.7691,
      "duration": 0.1184,
      "velocity": 64,
      "chip": "ym2612"
    },
    {
      "channel": 1,
      "note": 64,
      "start": 30.888,
      "duration": 0.3835,
      "velocity": 64,
      "chip": "ym2612"
    },
    {
      "channel": 1,
      "note": 53,
      "start": 31.272,
      "duration": 0.1798,
      "velocity": 64,
      "chip": "ym2612"
    },
    {
      "channel": 1,
      "note": 54,
      "start": 31.6534,
      "duration": 0.3824,
      "velocity": 64,
      "chip": "ym2612"
    },
    {
      "channel": 1,
      "note": 61,
      "start": 32.0364,
      "duration": 0.1156,
      "velocity": 64,
      "chip": "ym2612"
    },
    {
      "channel": 1,
      "note": 66,
      "start": 32.4028,
      "duration": 0.1324,
      "velocity": 64,
      "chip": "ym2612"
    },
    {
      "channel": 1,
      "note": 54,
      "start": 32.7857,
      "duration": 0.1329,
      "velocity": 64,
      "chip": "ym2612"
    },
    {
      "channel": 1,
      "note": 64,
      "start": 33.0364,
      "duration": 0.1347,
      "velocity": 64,
      "chip": "ym2612"
    },
    {
      "channel": 1,
      "note": 76,
      "start": 33.4188,
      "duration": 0.1351,
      "velocity": 64,
      "chip": "ym2612"
    },
    {
      "channel": 1,
      "note": 71,
      "start": 33.5544,
      "duration": 0.1139,
      "velocity": 64,
      "chip": "ym2612"
    },
    {
      "channel": 1,
      "note": 72,
      "start": 33.6688,
      "duration": 0.133,
      "velocity": 64,
      "chip": "ym2612"
    },
    {
      "channel": 1,
      "note": 71,
      "start": 33.8023,
      "duration": 0.1188,
      "velocity": 64,
      "chip": "ym2612"
    },
    {
      "channel": 1,
      "note": 69,
      "start": 33.9216,
      "duration": 0.3834,
      "velocity": 64,
      "chip": "ym2612"
    },
    {
      "channel": 1,
      "note": 59,
      "start": 34.3054,
      "duration": 0.1963,
      "velocity": 64,
      "chip": "ym2612"
    },
    {
      "channel": 1,
      "note": 54,
      "start": 34.6865,
      "duration": 0.3819,
      "velocity": 64,
      "chip": "ym2612"
    },
    {
      "channel": 1,
      "note": 61,
      "start": 35.0689,
      "duration": 0.1161,
      "velocity": 64,
      "chip": "ym2612"
    },
    {
      "channel": 1,
      "note": 66,
      "start": 35.4365,
      "duration": 0.1322,
      "velocity": 64,
      "chip": "ym2612"
    },
    {
      "channel": 1,
      "note": 54,
      "start": 35.8191,
      "duration": 0.1329,
      "velocity": 64,
      "chip": "ym2612"
    },
    {
      "channel": 1,
      "note": 64,
      "start": 36.0695,
      "duration": 0.1348,
      "velocity": 64,
      "chip": "ym2612"
    },
    {
      "channel": 1,
      "note": 76,
      "start": 36.4523,
      "duration": 0.1331,
      "velocity": 64,
      "chip": "ym2612"
    },
    {
      "channel": 1,
      "note": 72,
      "start": 36.5859,
      "duration": 0.1163,
      "velocity": 64,
      "chip": "ym2612"
    },
    {
      "channel": 1,
      "note": 71,
      "start": 36.7027,
      "duration": 0.1333,
      "velocity": 64,
      "chip": "ym2612"
    },
    {
      "channel": 1,
      "note": 69,
      "start": 36.8364,
      "duration": 0.1181,
      "velocity": 64,
      "chip": "ym2612"
    },
    {
      "channel": 1,
      "note": 64,
      "start": 36.955,
      "duration": 0.3833,
      "velocity": 64,
      "chip": "ym2612"
    },
    {
      "channel": 1,
      "note": 53,
      "start": 37.3387,
      "duration": 0.1964,
      "velocity": 64,
      "chip": "ym2612"
    },
    {
      "channel": 1,
      "note": 57,
      "start": 37.7207,
      "duration": 0.3821,
      "velocity": 64,
      "chip": "ym2612"
    },
    {
      "channel": 1,
      "note": 64,
      "start": 38.1032,
      "duration": 0.1156,
      "velocity": 64,
      "chip": "ym2612"
    },
    {
      "channel": 1,
      "note": 69,
      "start": 38.4696,
      "duration": 0.1323,
      "velocity": 64,
      "chip": "ym2612"
    },
    {
      "channel": 1,
      "note": 57,
      "start": 38.8525,
      "duration": 0.1328,
      "velocity": 64,
      "chip": "ym2612"
    },
    {
      "channel": 1,
      "note": 67,
      "start": 39.1025,
      "duration": 0.1331,
      "velocity": 64,
      "chip": "ym2612"
    },
    {
      "channel": 1,
      "note": 62,
      "start": 40.3697,
      "duration": 0.1987,
      "velocity": 64,
      "chip": "ym2612"
    },
    {
      "channel": 1,
      "note": 57,
      "start": 40.7537,
      "duration": 0.3821,
      "velocity": 64,
      "chip": "ym2612"
    },
    {
      "channel": 1,
      "note": 64,
      "start": 41.1363,
      "duration": 0.1159,
      "velocity": 64,
      "chip": "ym2612"
    },
    {
      "channel": 1,
      "note": 69,
      "start": 41.5032,
      "duration": 0.1322,
      "velocity": 64,
      "chip": "ym2612"
    },
    {
      "channel": 1,
      "note": 57,
      "start": 41.8858,
      "duration": 0.1329,
      "velocity": 64,
      "chip": "ym2612"
    },
    {
      "channel": 1,
      "note": 67,
      "start": 42.1356,
      "duration": 0.1332,
      "velocity": 64,
      "chip": "ym2612"
    },
    {
      "channel": 1,
      "note": 56,
      "start": 43.4028,
      "duration": 0.1987,
      "velocity": 64,
      "chip": "ym2612"
    },
    {
      "channel": 1,
      "note": 57,
      "start": 43.7873,
      "duration": 0.3821,
      "velocity": 64,
      "chip": "ym2612"
    },
    {
      "channel": 1,
      "note": 64,
      "start": 44.1699,
      "duration": 0.1156,
      "velocity": 64,
      "chip": "ym2612"
    },
    {
      "channel": 1,
      "note": 69,
      "start": 44.553,
      "duration": 0.1155,
      "velocity": 64,
      "chip": "ym2612"
    },
    {
      "channel": 1,
      "note": 57,
      "start": 44.9191,
      "duration": 0.1328,
      "velocity": 64,
      "chip": "ym2612"
    },
    {
      "channel": 1,
      "note": 67,
      "start": 45.1692,
      "duration": 0.1331,
      "velocity": 64,
      "chip": "ym2612"
    },
    {
      "channel": 1,
      "note": 62,
      "start": 46.4364,
      "duration": 0.1988,
      "velocity": 64,
      "chip": "ym2612"
    },
    {
      "channel": 1,
      "note": 57,
      "start": 46.8204,
      "duration": 0.3821,
      "velocity": 64,
      "chip": "ym2612"
    },
    {
      "channel": 1,
      "note": 64,
      "start": 47.2029,
      "duration": 0.116,
      "velocity": 64,
      "chip": "ym2612"
    },
    {
      "channel": 1,
      "note": 69,
      "start": 47.5863,
      "duration": 0.1159,
      "velocity": 64,
      "chip": "ym2612"
    },
    {
      "channel": 1,
      "note": 57,
      "start": 47.9525,
      "duration": 0.1329,
      "velocity": 64,
      "chip": "ym2612"
    },
    {
      "channel": 1,
      "note": 67,
      "start": 48.2189,
      "duration": 0.1166,
      "velocity": 64,
      "chip": "ym2612"
    },
    {
      "channel": 1,
      "note": 56,
      "start": 49.4696,
      "duration": 0.1985,
      "velocity": 64,
      "chip": "ym2612"
    },
    {
      "channel": 1,
      "note": 60,
      "start": 49.8562,
      "duration": 0.3797,
      "velocity": 64,
      "chip": "ym2612"
    },
    {
      "channel": 1,
      "note": 60,
      "start": 50.4862,
      "duration": 0.1327,
      "velocity": 64,
      "chip": "ym2612"
    },
    {
      "channel": 1,
      "note": 52,
      "start": 50.6194,
      "duration": 0.3664,
      "velocity": 64,
      "chip": "ym2612"
    },
    {
      "channel": 1,
      "note": 52,
      "start": 51.2529,
      "duration": 0.116,
      "velocity": 64,
      "chip": "ym2612"
    },
    {
      "channel": 1,
      "note": 53,
      "start": 51.3693,
      "duration": 0.3824,
      "velocity": 64,
      "chip": "ym2612"
    },
    {
      "channel": 1,
      "note": 53,
      "start": 52.0023,
      "duration": 0.1328,
      "velocity": 64,
      "chip": "ym2612"
    },
    {
      "channel": 1,
      "note": 55,
      "start": 52.1356,
      "duration": 0.3672,
      "velocity": 64,
      "chip": "ym2612"
    },
    {
      "channel": 1,
      "note": 55,
      "start": 52.7696,
      "duration": 0.1162,
      "velocity": 64,
      "chip": "ym2612"
    },
    {
      "channel": 1,
      "note": 62,
      "start": 52.8863,
      "duration": 0.3828,
      "velocity": 64,
      "chip": "ym2612"
    },
    {
      "channel": 1,
      "note": 62,
      "start": 53.5195,
      "duration": 0.1327,
      "velocity": 64,
      "chip": "ym2612"
    },
    {
      "channel": 1,
      "note": 54,
      "start": 53.6527,
      "duration": 0.3664,
      "velocity": 64,
      "chip": "ym2612"
    },
    {
      "channel": 1,
      "note": 54,
      "start": 54.2862,
      "duration": 0.1158,
      "velocity": 64,
      "chip": "ym2612"
    },
    {
      "channel": 1,
      "note": 55,
      "start": 54.4024,
      "duration": 0.3834,
      "velocity": 64,
      "chip": "ym2612"
    },
    {
      "channel": 1,
      "note": 57,
      "start": 54.7863,
      "duration": 0.3831,
      "velocity": 64,
      "chip": "ym2612"
    },
    {
      "channel": 1,
      "note": 60,
      "start": 55.1698,
      "duration": 0.1156,
      "velocity": 64,
      "chip": "ym2612"
    },
    {
      "channel": 1,
      "note": 57,
      "start": 55.4193,
      "duration": 0.1164,
      "velocity": 64,
      "chip": "ym2612"
    },
    {
      "channel": 1,
      "note": 54,
      "start": 55.5362,
      "duration": 0.3885,
      "velocity": 64,
      "chip": "ym2612"
    },
    {
      "channel": 1,
      "note": 54,
      "start": 55.9252,
      "duration": 0.377,
      "velocity": 64,
      "chip": "ym2612"
    },
    {
      "channel": 1,
      "note": 61,
      "start": 56.3028,
      "duration": 0.1327,
      "velocity": 64,
      "chip": "ym2612"
    }
  ]
}