{
  "track_name": "06 - Toxic Dump & Genetics Lab (Part III)",
  "duration_sec": 80.467,
  "sample_rate": 44100,
  "note_count": 1707,
  "unique_pitches": 23,
  "pitch_range": 27,
  "avg_note_duration": 0.0743,
  "reconstruction_stats": {
    "notes_reconstructed": 1707,
    "keyon_events": 1707,
    "keyoff_events": 1707,
    "orphan_keyons": 0,
    "unique_pitches": 23,
    "pitch_range": 27,
    "avg_duration_sec": 0.0743
  },
  "metadata": {
    "source": "T\\The Ooze\\06 - Toxic Dump & Genetics Lab (Part III).vgz"
  },
  "notes": [
    {
      "channel": 1,
      "note": 49,
      "start": 0.0039,
      "duration": 0.2531,
      "velocity": 122,
      "chip": "ym2612"
    },
    {
      "channel": 4,
      "note": 59,
      "start": 0.0071,
      "duration": 0.0834,
      "velocity": 122,
      "chip": "ym2612"
    },
    {
      "channel": 0,
      "note": 59,
      "start": 0.0118,
      "duration": 0.0785,
      "velocity": 111,
      "chip": "ym2612"
    },
    {
      "channel": 4,
      "note": 61,
      "start": 0.094,
      "duration": 0.1132,
      "velocity": 122,
      "chip": "ym2612"
    },
    {
      "channel": 0,
      "note": 61,
      "start": 0.0971,
      "duration": 0.1099,
      "velocity": 111,
      "chip": "ym2612"
    },
    {
      "channel": 4,
      "note": 49,
      "start": 0.2105,
      "duration": 0.0133,
      "velocity": 122,
      "chip": "ym2612"
    },
    {
      "channel": 2,
      "note": 49,
      "start": 0.2135,
      "duration": 0.0105,
      "velocity": 127,
      "chip": "ym2612"
    },
    {
      "channel": 0,
      "note": 56,
      "start": 0.216,
      "duration": 0.1075,
      "velocity": 111,
      "chip": "ym2612"
    },
    {
      "channel": 4,
      "note": 49,
      "start": 0.3268,
      "duration": 0.0137,
      "velocity": 122,
      "chip": "ym2612"
    },
    {
      "channel": 2,
      "note": 49,
      "start": 0.33,
      "duration": 0.0106,
      "velocity": 127,
      "chip": "ym2612"
    },
    {
      "channel": 0,
      "note": 49,
      "start": 0.3326,
      "duration": 0.1077,
      "velocity": 111,
      "chip": "ym2612"
    },
    {
      "channel": 1,
      "note": 49,
      "start": 0.4468,
      "duration": 0.0659,
      "velocity": 122,
      "chip": "ym2612"
    },
    {
      "channel": 4,
      "note": 62,
      "start": 0.4491,
      "duration": 0.0296,
      "velocity": 122,
      "chip": "ym2612"
    },
    {
      "channel": 0,
      "note": 62,
      "start": 0.4516,
      "duration": 0.027,
      "velocity": 111,
      "chip": "ym2612"
    },
    {
      "channel": 4,
      "note": 61,
      "start": 0.4812,
      "duration": 0.0316,
      "velocity": 122,
      "chip": "ym2612"
    },
    {
      "channel": 0,
      "note": 61,
      "start": 0.4847,
      "duration": 0.0532,
      "velocity": 111,
      "chip": "ym2612"
    },
    {
      "channel": 4,
      "note": 49,
      "start": 0.5154,
      "duration": 0.0228,
      "velocity": 122,
      "chip": "ym2612"
    },
    {
      "channel": 2,
      "note": 49,
      "start": 0.5178,
      "duration": 0.0206,
      "velocity": 127,
      "chip": "ym2612"
    },
    {
      "channel": 4,
      "note": 49,
      "start": 0.6278,
      "duration": 0.0084,
      "velocity": 122,
      "chip": "ym2612"
    },
    {
      "channel": 2,
      "note": 49,
      "start": 0.6301,
      "duration": 0.0062,
      "velocity": 127,
      "chip": "ym2612"
    },
    {
      "channel": 3,
      "note": 49,
      "start": 0.6702,
      "duration": 0.0837,
      "velocity": 116,
      "chip": "ym2612"
    },
    {
      "channel": 4,
      "note": 49,
      "start": 0.6725,
      "duration": 0.0038,
      "velocity": 122,
      "chip": "ym2612"
    },
    {
      "channel": 2,
      "note": 49,
      "start": 0.675,
      "duration": 0.0015,
      "velocity": 127,
      "chip": "ym2612"
    },
    {
      "channel": 3,
      "note": 49,
      "start": 0.7603,
      "duration": 0.0873,
      "velocity": 116,
      "chip": "ym2612"
    },
    {
      "channel": 4,
      "note": 49,
      "start": 0.7625,
      "duration": 0.004,
      "velocity": 122,
      "chip": "ym2612"
    },
    {
      "channel": 2,
      "note": 49,
      "start": 0.765,
      "duration": 0.0016,
      "velocity": 127,
      "chip": "ym2612"
    },
    {
      "channel": 3,
      "note": 49,
      "start": 0.8546,
      "duration": 0.2039,
      "velocity": 116,
      "chip": "ym2612"
    },
    {
      "channel": 4,
      "note": 59,
      "start": 0.8568,
      "duration": 0.0851,
      "velocity": 122,
      "chip": "ym2612"
    },
    {
      "channel": 0,
      "note": 59,
      "start": 0.8595,
      "duration": 0.0822,
      "velocity": 111,
      "chip": "ym2612"
    },
    {
      "channel": 4,
      "note": 49,
      "start": 0.9451,
      "duration": 0.1136,
      "velocity": 122,
      "chip": "ym2612"
    },
    {
      "channel": 2,
      "note": 49,
      "start": 0.9479,
      "duration": 0.0107,
      "velocity": 127,
      "chip": "ym2612"
    },
    {
      "channel": 0,
      "note": 49,
      "start": 0.9504,
      "duration": 0.108,
      "velocity": 111,
      "chip": "ym2612"
    },
    {
      "channel": 4,
      "note": 59,
      "start": 1.0648,
      "duration": 0.0311,
      "velocity": 122,
      "chip": "ym2612"
    },
    {
      "channel": 0,
      "note": 59,
      "start": 1.0672,
      "duration": 0.0284,
      "velocity": 111,
      "chip": "ym2612"
    },
    {
      "channel": 4,
      "note": 61,
      "start": 1.0998,
      "duration": 0.0308,
      "velocity": 122,
      "chip": "ym2612"
    },
    {
      "channel": 0,
      "note": 61,
      "start": 1.1022,
      "duration": 0.0282,
      "velocity": 111,
      "chip": "ym2612"
    },
    {
      "channel": 1,
      "note": 47,
      "start": 1.1373,
      "duration": 0.2005,
      "velocity": 122,
      "chip": "ym2612"
    },
    {
      "channel": 4,
      "note": 49,
      "start": 1.1397,
      "duration": 0.0315,
      "velocity": 122,
      "chip": "ym2612"
    },
    {
      "channel": 2,
      "note": 49,
      "start": 1.1423,
      "duration": 0.0291,
      "velocity": 127,
      "chip": "ym2612"
    },
    {
      "channel": 4,
      "note": 49,
      "start": 1.2243,
      "duration": 0.0635,
      "velocity": 122,
      "chip": "ym2612"
    },
    {
      "channel": 2,
      "note": 49,
      "start": 1.2271,
      "duration": 0.0609,
      "velocity": 127,
      "chip": "ym2612"
    },
    {
      "channel": 1,
      "note": 49,
      "start": 1.3448,
      "duration": 0.27,
      "velocity": 122,
      "chip": "ym2612"
    },
    {
      "channel": 4,
      "note": 59,
      "start": 1.3473,
      "duration": 0.1011,
      "velocity": 122,
      "chip": "ym2612"
    },
    {
      "channel": 0,
      "note": 59,
      "start": 1.3496,
      "duration": 0.0986,
      "velocity": 111,
      "chip": "ym2612"
    },
    {
      "channel": 4,
      "note": 61,
      "start": 1.4515,
      "duration": 0.1135,
      "velocity": 122,
      "chip": "ym2612"
    },
    {
      "channel": 0,
      "note": 61,
      "start": 1.4546,
      "duration": 0.1102,
      "velocity": 111,
      "chip": "ym2612"
    },
    {
      "channel": 4,
      "note": 49,
      "start": 1.5683,
      "duration": 0.0132,
      "velocity": 122,
      "chip": "ym2612"
    },
    {
      "channel": 2,
      "note": 49,
      "start": 1.5717,
      "duration": 0.01,
      "velocity": 127,
      "chip": "ym2612"
    },
    {
      "channel": 0,
      "note": 56,
      "start": 1.5742,
      "duration": 0.1071,
      "velocity": 111,
      "chip": "ym2612"
    },
    {
      "channel": 4,
      "note": 49,
      "start": 1.6846,
      "duration": 0.0136,
      "velocity": 122,
      "chip": "ym2612"
    },
    {
      "channel": 2,
      "note": 49,
      "start": 1.6875,
      "duration": 0.011,
      "velocity": 127,
      "chip": "ym2612"
    },
    {
      "channel": 0,
      "note": 49,
      "start": 1.69,
      "duration": 0.108,
      "velocity": 111,
      "chip": "ym2612"
    },
    {
      "channel": 1,
      "note": 49,
      "start": 1.8044,
      "duration": 0.0664,
      "velocity": 122,
      "chip": "ym2612"
    },
    {
      "channel": 4,
      "note": 62,
      "start": 1.8068,
      "duration": 0.0298,
      "velocity": 122,
      "chip": "ym2612"
    },
    {
      "channel": 0,
      "note": 62,
      "start": 1.8091,
      "duration": 0.0273,
      "velocity": 111,
      "chip": "ym2612"
    },
    {
      "channel": 4,
      "note": 61,
      "start": 1.839,
      "duration": 0.032,
      "velocity": 122,
      "chip": "ym2612"
    },
    {
      "channel": 0,
      "note": 61,
      "start": 1.8423,
      "duration": 0.0285,
      "velocity": 111,
      "chip": "ym2612"
    },
    {
      "channel": 4,
      "note": 49,
      "start": 1.8735,
      "duration": 0.0071,
      "velocity": 122,
      "chip": "ym2612"
    },
    {
      "channel": 2,
      "note": 49,
      "start": 1.8759,
      "duration": 0.0049,
      "velocity": 127,
      "chip": "ym2612"
    },
    {
      "channel": 4,
      "note": 49,
      "start": 1.9857,
      "duration": 0.0039,
      "velocity": 122,
      "chip": "ym2612"
    },
    {
      "channel": 2,
      "note": 49,
      "start": 1.988,
      "duration": 0.0018,
      "velocity": 127,
      "chip": "ym2612"
    },
    {
      "channel": 3,
      "note": 49,
      "start": 2.0236,
      "duration": 0.0846,
      "velocity": 116,
      "chip": "ym2612"
    },
    {
      "channel": 4,
      "note": 49,
      "start": 2.0261,
      "duration": 0.0083,
      "velocity": 122,
      "chip": "ym2612"
    },
    {
      "channel": 2,
      "note": 49,
      "start": 2.0285,
      "duration": 0.0059,
      "velocity": 127,
      "chip": "ym2612"
    },
    {
      "channel": 3,
      "note": 49,
      "start": 2.1144,
      "duration": 0.1045,
      "velocity": 116,
      "chip": "ym2612"
    },
    {
      "channel": 4,
      "note": 49,
      "start": 2.1165,
      "duration": 0.01,
      "velocity": 122,
      "chip": "ym2612"
    },
    {
      "channel": 2,
      "note": 49,
      "start": 2.119,
      "duration": 0.0077,
      "velocity": 127,
      "chip": "ym2612"
    },
    {
      "channel": 3,
      "note": 49,
      "start": 2.2259,
      "duration": 0.2032,
      "velocity": 116,
      "chip": "ym2612"
    },
    {
      "channel": 4,
      "note": 59,
      "start": 2.2282,
      "duration": 0.0844,
      "velocity": 122,
      "chip": "ym2612"
    },
    {
      "channel": 0,
      "note": 59,
      "start": 2.2309,
      "duration": 0.0815,
      "velocity": 111,
      "chip": "ym2612"
    },
    {
      "channel": 4,
      "note": 49,
      "start": 2.3159,
      "duration": 0.0132,
      "velocity": 122,
      "chip": "ym2612"
    },
    {
      "channel": 2,
      "note": 49,
      "start": 2.3187,
      "duration": 0.0106,
      "velocity": 127,
      "chip": "ym2612"
    },
    {
      "channel": 0,
      "note": 49,
      "start": 2.3212,
      "duration": 0.1078,
      "velocity": 111,
      "chip": "ym2612"
    },
    {
      "channel": 4,
      "note": 59,
      "start": 2.4354,
      "duration": 0.0314,
      "velocity": 122,
      "chip": "ym2612"
    },
    {
      "channel": 0,
      "note": 59,
      "start": 2.4378,
      "duration": 0.0289,
      "velocity": 111,
      "chip": "ym2612"
    },
    {
      "channel": 4,
      "note": 61,
      "start": 2.4695,
      "duration": 0.0313,
      "velocity": 122,
      "chip": "ym2612"
    },
    {
      "channel": 0,
      "note": 61,
      "start": 2.4727,
      "duration": 0.0279,
      "velocity": 111,
      "chip": "ym2612"
    },
    {
      "channel": 1,
      "note": 47,
      "start": 2.5076,
      "duration": 0.2003,
      "velocity": 122,
      "chip": "ym2612"
    },
    {
      "channel": 4,
      "note": 49,
      "start": 2.5098,
      "duration": 0.0068,
      "velocity": 122,
      "chip": "ym2612"
    },
    {
      "channel": 2,
      "note": 49,
      "start": 2.5122,
      "duration": 0.0044,
      "velocity": 127,
      "chip": "ym2612"
    },
    {
      "channel": 0,
      "note": 56,
      "start": 2.5145,
      "duration": 0.0765,
      "velocity": 111,
      "chip": "ym2612"
    },
    {
      "channel": 4,
      "note": 49,
      "start": 2.5943,
      "duration": 0.0136,
      "velocity": 122,
      "chip": "ym2612"
    },
    {
      "channel": 2,
      "note": 49,
      "start": 2.5971,
      "duration": 0.011,
      "velocity": 127,
      "chip": "ym2612"
    },
    {
      "channel": 0,
      "note": 49,
      "start": 2.5997,
      "duration": 0.1081,
      "velocity": 111,
      "chip": "ym2612"
    },
    {
      "channel": 1,
      "note": 49,
      "start": 2.7143,
      "duration": 0.2698,
      "velocity": 122,
      "chip": "ym2612"
    },
    {
      "channel": 4,
      "note": 59,
      "start": 2.7166,
      "duration": 0.0844,
      "velocity": 122,
      "chip": "ym2612"
    },
    {
      "channel": 0,
      "note": 59,
      "start": 2.7188,
      "duration": 0.0819,
      "velocity": 111,
      "chip": "ym2612"
    },
    {
      "channel": 4,
      "note": 61,
      "start": 2.8041,
      "duration": 0.1135,
      "velocity": 122,
      "chip": "ym2612"
    },
    {
      "channel": 0,
      "note": 61,
      "start": 2.8068,
      "duration": 0.1107,
      "velocity": 111,
      "chip": "ym2612"
    },
    {
      "channel": 4,
      "note": 49,
      "start": 2.9213,
      "duration": 0.0296,
      "velocity": 122,
      "chip": "ym2612"
    },
    {
      "channel": 2,
      "note": 49,
      "start": 2.9245,
      "duration": 0.0265,
      "velocity": 127,
      "chip": "ym2612"
    },
    {
      "channel": 0,
      "note": 56,
      "start": 2.9271,
      "duration": 0.1236,
      "velocity": 111,
      "chip": "ym2612"
    },
    {
      "channel": 4,
      "note": 49,
      "start": 3.054,
      "duration": 0.0136,
      "velocity": 122,
      "chip": "ym2612"
    },
    {
      "channel": 2,
      "note": 49,
      "start": 3.0568,
      "duration": 0.0109,
      "velocity": 127,
      "chip": "ym2612"
    },
    {
      "channel": 0,
      "note": 49,
      "start": 3.0598,
      "duration": 0.1077,
      "velocity": 111,
      "chip": "ym2612"
    },
    {
      "channel": 1,
      "note": 49,
      "start": 3.1744,
      "duration": 0.0668,
      "velocity": 122,
      "chip": "ym2612"
    },
    {
      "channel": 4,
      "note": 62,
      "start": 3.1768,
      "duration": 0.0303,
      "velocity": 122,
      "chip": "ym2612"
    },
    {
      "channel": 0,
      "note": 62,
      "start": 3.1794,
      "duration": 0.0277,
      "velocity": 111,
      "chip": "ym2612"
    },
    {
      "channel": 4,
      "note": 61,
      "start": 3.2096,
      "duration": 0.0317,
      "velocity": 122,
      "chip": "ym2612"
    },
    {
      "channel": 0,
      "note": 61,
      "start": 3.2132,
      "duration": 0.0357,
      "velocity": 111,
      "chip": "ym2612"
    },
    {
      "channel": 4,
      "note": 49,
      "start": 3.2441,
      "duration": 0.0051,
      "velocity": 122,
      "chip": "ym2612"
    },
    {
      "channel": 2,
      "note": 49,
      "start": 3.2465,
      "duration": 0.0029,
      "velocity": 127,
      "chip": "ym2612"
    },
    {
      "channel": 4,
      "note": 49,
      "start": 3.3538,
      "duration": 0.0039,
      "velocity": 122,
      "chip": "ym2612"
    },
    {
      "channel": 2,
      "note": 49,
      "start": 3.3561,
      "duration": 0.0018,
      "velocity": 127,
      "chip": "ym2612"
    },
    {
      "channel": 3,
      "note": 49,
      "start": 3.3913,
      "duration": 0.0838,
      "velocity": 116,
      "chip": "ym2612"
    },
    {
      "channel": 4,
      "note": 49,
      "start": 3.3936,
      "duration": 0.0039,
      "velocity": 122,
      "chip": "ym2612"
    },
    {
      "channel": 2,
      "note": 49,
      "start": 3.396,
      "duration": 0.0016,
      "velocity": 127,
      "chip": "ym2612"
    },
    {
      "channel": 3,
      "note": 49,
      "start": 3.4816,
      "duration": 0.0872,
      "velocity": 116,
      "chip": "ym2612"
    },
    {
      "channel": 4,
      "note": 49,
      "start": 3.4838,
      "duration": 0.0039,
      "velocity": 122,
      "chip": "ym2612"
    },
    {
      "channel": 2,
      "note": 49,
      "start": 3.4862,
      "duration": 0.0016,
      "velocity": 127,
      "chip": "ym2612"
    },
    {
      "channel": 3,
      "note": 49,
      "start": 3.5759,
      "duration": 0.2198,
      "velocity": 116,
      "chip": "ym2612"
    },
    {
      "channel": 4,
      "note": 59,
      "start": 3.5781,
      "duration": 0.0844,
      "velocity": 122,
      "chip": "ym2612"
    },
    {
      "channel": 0,
      "note": 59,
      "start": 3.5807,
      "duration": 0.0815,
      "velocity": 111,
      "chip": "ym2612"
    },
    {
      "channel": 4,
      "note": 49,
      "start": 3.6656,
      "duration": 0.1302,
      "velocity": 122,
      "chip": "ym2612"
    },
    {
      "channel": 2,
      "note": 49,
      "start": 3.6684,
      "duration": 0.0273,
      "velocity": 127,
      "chip": "ym2612"
    },
    {
      "channel": 0,
      "note": 49,
      "start": 3.671,
      "duration": 0.1245,
      "velocity": 111,
      "chip": "ym2612"
    },
    {
      "channel": 4,
      "note": 59,
      "start": 3.8019,
      "duration": 0.0311,
      "velocity": 122,
      "chip": "ym2612"
    },
    {
      "channel": 0,
      "note": 59,
      "start": 3.8043,
      "duration": 0.0284,
      "velocity": 111,
      "chip": "ym2612"
    },
    {
      "channel": 4,
      "note": 61,
      "start": 3.8356,
      "duration": 0.0318,
      "velocity": 122,
      "chip": "ym2612"
    },
    {
      "channel": 0,
      "note": 61,
      "start": 3.839,
      "duration": 0.0282,
      "velocity": 111,
      "chip": "ym2612"
    },
    {
      "channel": 1,
      "note": 47,
      "start": 3.8737,
      "duration": 0.2012,
      "velocity": 122,
      "chip": "ym2612"
    },
    {
      "channel": 4,
      "note": 49,
      "start": 3.8764,
      "duration": 0.0153,
      "velocity": 122,
      "chip": "ym2612"
    },
    {
      "channel": 2,
      "note": 49,
      "start": 3.8789,
      "duration": 0.013,
      "velocity": 127,
      "chip": "ym2612"
    },
    {
      "channel": 4,
      "note": 49,
      "start": 3.9613,
      "duration": 0.047,
      "velocity": 122,
      "chip": "ym2612"
    },
    {
      "channel": 2,
      "note": 49,
      "start": 3.9646,
      "duration": 0.0439,
      "velocity": 127,
      "chip": "ym2612"
    },
    {
      "channel": 1,
      "note": 49,
      "start": 4.0815,
      "duration": 0.2706,
      "velocity": 122,
      "chip": "ym2612"
    },
    {
      "channel": 4,
      "note": 59,
      "start": 4.0838,
      "duration": 0.0851,
      "velocity": 122,
      "chip": "ym2612"
    },
    {
      "channel": 0,
      "note": 59,
      "start": 4.0864,
      "duration": 0.0824,
      "velocity": 111,
      "chip": "ym2612"
    },
    {
      "channel": 4,
      "note": 61,
      "start": 4.1722,
      "duration": 0.1135,
      "velocity": 122,
      "chip": "ym2612"
    },
    {
      "channel": 0,
      "note": 61,
      "start": 4.1748,
      "duration": 0.1106,
      "velocity": 111,
      "chip": "ym2612"
    },
    {
      "channel": 4,
      "note": 49,
      "start": 4.2889,
      "duration": 0.0134,
      "velocity": 122,
      "chip": "ym2612"
    },
    {
      "channel": 2,
      "note": 49,
      "start": 4.2919,
      "duration": 0.0105,
      "velocity": 127,
      "chip": "ym2612"
    },
    {
      "channel": 0,
      "note": 56,
      "start": 4.2945,
      "duration": 0.1076,
      "velocity": 111,
      "chip": "ym2612"
    },
    {
      "channel": 4,
      "note": 49,
      "start": 4.4054,
      "duration": 0.0302,
      "velocity": 122,
      "chip": "ym2612"
    },
    {
      "channel": 2,
      "note": 49,
      "start": 4.4081,
      "duration": 0.0276,
      "velocity": 127,
      "chip": "ym2612"
    },
    {
      "channel": 0,
      "note": 49,
      "start": 4.4111,
      "duration": 0.1077,
      "velocity": 111,
      "chip": "ym2612"
    },
    {
      "channel": 1,
      "note": 49,
      "start": 4.5255,
      "duration": 0.0722,
      "velocity": 122,
      "chip": "ym2612"
    },
    {
      "channel": 4,
      "note": 62,
      "start": 4.5278,
      "duration": 0.0342,
      "velocity": 122,
      "chip": "ym2612"
    },
    {
      "channel": 0,
      "note": 62,
      "start": 4.5302,
      "duration": 0.0316,
      "velocity": 111,
      "chip": "ym2612"
    },
    {
      "channel": 4,
      "note": 61,
      "start": 4.5646,
      "duration": 0.0332,
      "velocity": 122,
      "chip": "ym2612"
    },
    {
      "channel": 0,
      "note": 61,
      "start": 4.568,
      "duration": 0.0295,
      "velocity": 111,
      "chip": "ym2612"
    },
    {
      "channel": 4,
      "note": 49,
      "start": 4.6011,
      "duration": 0.0132,
      "velocity": 122,
      "chip": "ym2612"
    },
    {
      "channel": 2,
      "note": 49,
      "start": 4.604,
      "duration": 0.0105,
      "velocity": 127,
      "chip": "ym2612"
    },
    {
      "channel": 4,
      "note": 49,
      "start": 4.7205,
      "duration": 0.0039,
      "velocity": 122,
      "chip": "ym2612"
    },
    {
      "channel": 2,
      "note": 49,
      "start": 4.7229,
      "duration": 0.0017,
      "velocity": 127,
      "chip": "ym2612"
    },
    {
      "channel": 3,
      "note": 49,
      "start": 4.7585,
      "duration": 0.0838,
      "velocity": 116,
      "chip": "ym2612"
    },
    {
      "channel": 4,
      "note": 49,
      "start": 4.7607,
      "duration": 0.0038,
      "velocity": 122,
      "chip": "ym2612"
    },
    {
      "channel": 2,
      "note": 49,
      "start": 4.7631,
      "duration": 0.0015,
      "velocity": 127,
      "chip": "ym2612"
    },
    {
      "channel": 3,
      "note": 49,
      "start": 4.8484,
      "duration": 0.0875,
      "velocity": 116,
      "chip": "ym2612"
    },
    {
      "channel": 4,
      "note": 49,
      "start": 4.8505,
      "duration": 0.0042,
      "velocity": 122,
      "chip": "ym2612"
    },
    {
      "channel": 2,
      "note": 49,
      "start": 4.853,
      "duration": 0.0018,
      "velocity": 127,
      "chip": "ym2612"
    },
    {
      "channel": 3,
      "note": 49,
      "start": 4.9427,
      "duration": 0.2035,
      "velocity": 116,
      "chip": "ym2612"
    },
    {
      "channel": 4,
      "note": 59,
      "start": 4.9451,
      "duration": 0.0844,
      "velocity": 122,
      "chip": "ym2612"
    },
    {
      "channel": 0,
      "note": 59,
      "start": 4.9479,
      "duration": 0.0814,
      "velocity": 111,
      "chip": "ym2612"
    },
    {
      "channel": 4,
      "note": 49,
      "start": 5.0328,
      "duration": 0.0133,
      "velocity": 122,
      "chip": "ym2612"
    },
    {
      "channel": 2,
      "note": 49,
      "start": 5.0356,
      "duration": 0.0106,
      "velocity": 127,
      "chip": "ym2612"
    },
    {
      "channel": 0,
      "note": 49,
      "start": 5.0382,
      "duration": 0.1078,
      "velocity": 111,
      "chip": "ym2612"
    },
    {
      "channel": 4,
      "note": 54,
      "start": 5.1526,
      "duration": 0.0317,
      "velocity": 122,
      "chip": "ym2612"
    },
    {
      "channel": 0,
      "note": 54,
      "start": 5.1549,
      "duration": 0.0292,
      "velocity": 111,
      "chip": "ym2612"
    },
    {
      "channel": 4,
      "note": 56,
      "start": 5.1869,
      "duration": 0.0415,
      "velocity": 122,
      "chip": "ym2612"
    },
    {
      "channel": 0,
      "note": 56,
      "start": 5.1901,
      "duration": 0.038,
      "velocity": 111,
      "chip": "ym2612"
    },
    {
      "channel": 1,
      "note": 47,
      "start": 5.2345,
      "duration": 0.2051,
      "velocity": 122,
      "chip": "ym2612"
    },
    {
      "channel": 4,
      "note": 49,
      "start": 5.2369,
      "duration": 0.0075,
      "velocity": 122,
      "chip": "ym2612"
    },
    {
      "channel": 2,
      "note": 49,
      "start": 5.2394,
      "duration": 0.0051,
      "velocity": 127,
      "chip": "ym2612"
    },
    {
      "channel": 0,
      "note": 52,
      "start": 5.242,
      "duration": 0.081,
      "velocity": 111,
      "chip": "ym2612"
    },
    {
      "channel": 4,
      "note": 49,
      "start": 5.3262,
      "duration": 0.0135,
      "velocity": 122,
      "chip": "ym2612"
    },
    {
      "channel": 2,
      "note": 49,
      "start": 5.3294,
      "duration": 0.0104,
      "velocity": 127,
      "chip": "ym2612"
    },
    {
      "channel": 0,
      "note": 49,
      "start": 5.3319,
      "duration": 0.1075,
      "velocity": 111,
      "chip": "ym2612"
    },
    {
      "channel": 4,
      "note": 61,
      "start": 5.4462,
      "duration": 0.2032,
      "velocity": 122,
      "chip": "ym2612"
    },
    {
      "channel": 0,
      "note": 49,
      "start": 5.4485,
      "duration": 0.2673,
      "velocity": 111,
      "chip": "ym2612"
    },
    {
      "channel": 3,
      "note": 61,
      "start": 5.4515,
      "duration": 0.0144,
      "velocity": 116,
      "chip": "ym2612"
    },
    {
      "channel": 3,
      "note": 73,
      "start": 5.5366,
      "duration": 0.1127,
      "velocity": 116,
      "chip": "ym2612"
    },
    {
      "channel": 4,
      "note": 61,
      "start": 5.6529,
      "duration": 0.0632,
      "velocity": 122,
      "chip": "ym2612"
    },
    {
      "channel": 2,
      "note": 61,
      "start": 5.6559,
      "duration": 0.0604,
      "velocity": 127,
      "chip": "ym2612"
    },
    {
      "channel": 3,
      "note": 68,
      "start": 5.6589,
      "duration": 0.1071,
      "velocity": 116,
      "chip": "ym2612"
    },
    {
      "channel": 4,
      "note": 61,
      "start": 5.7695,
      "duration": 0.0631,
      "velocity": 122,
      "chip": "ym2612"
    },
    {
      "channel": 2,
      "note": 61,
      "start": 5.7723,
      "duration": 0.0604,
      "velocity": 127,
      "chip": "ym2612"
    },
    {
      "channel": 3,
      "note": 61,
      "start": 5.7754,
      "duration": 0.1072,
      "velocity": 116,
      "chip": "ym2612"
    },
    {
      "channel": 4,
      "note": 61,
      "start": 5.8892,
      "duration": 0.0653,
      "velocity": 122,
      "chip": "ym2612"
    },
    {
      "channel": 0,
      "note": 49,
      "start": 5.892,
      "duration": 0.0623,
      "velocity": 111,
      "chip": "ym2612"
    },
    {
      "channel": 3,
      "note": 64,
      "start": 5.8946,
      "duration": 0.0267,
      "velocity": 116,
      "chip": "ym2612"
    },
    {
      "channel": 3,
      "note": 63,
      "start": 5.9244,
      "duration": 0.03,
      "velocity": 116,
      "chip": "ym2612"
    },
    {
      "channel": 4,
      "note": 61,
      "start": 5.9572,
      "duration": 0.0548,
      "velocity": 122,
      "chip": "ym2612"
    },
    {
      "channel": 2,
      "note": 61,
      "start": 5.9598,
      "duration": 0.0522,
      "velocity": 127,
      "chip": "ym2612"
    },
    {
      "channel": 3,
      "note": 61,
      "start": 5.9648,
      "duration": 0.1137,
      "velocity": 116,
      "chip": "ym2612"
    },
    {
      "channel": 4,
      "note": 61,
      "start": 6.0854,
      "duration": 0.0141,
      "velocity": 122,
      "chip": "ym2612"
    },
    {
      "channel": 2,
      "note": 61,
      "start": 6.0879,
      "duration": 0.0117,
      "velocity": 127,
      "chip": "ym2612"
    },
    {
      "channel": 3,
      "note": 74,
      "start": 6.0905,
      "duration": 0.0135,
      "velocity": 116,
      "chip": "ym2612"
    },
    {
      "channel": 1,
      "note": 49,
      "start": 6.1253,
      "duration": 0.0838,
      "velocity": 116,
      "chip": "ym2612"
    },
    {
      "channel": 4,
      "note": 61,
      "start": 6.1274,
      "duration": 0.0163,
      "velocity": 122,
      "chip": "ym2612"
    },
    {
      "channel": 2,
      "note": 61,
      "start": 6.1298,
      "duration": 0.014,
      "velocity": 127,
      "chip": "ym2612"
    },
    {
      "channel": 3,
      "note": 62,
      "start": 6.1327,
      "duration": 0.0765,
      "velocity": 116,
      "chip": "ym2612"
    },
    {
      "channel": 1,
      "note": 49,
      "start": 6.2158,
      "duration": 0.0867,
      "velocity": 116,
      "chip": "ym2612"
    },
    {
      "channel": 4,
      "note": 61,
      "start": 6.2181,
      "duration": 0.0179,
      "velocity": 122,
      "chip": "ym2612"
    },
    {
      "channel": 2,
      "note": 61,
      "start": 6.2204,
      "duration": 0.0158,
      "velocity": 127,
      "chip": "ym2612"
    },
    {
      "channel": 3,
      "note": 71,
      "start": 6.2232,
      "duration": 0.0461,
      "velocity": 116,
      "chip": "ym2612"
    },
    {
      "channel": 1,
      "note": 49,
      "start": 6.3095,
      "duration": 0.2044,
      "velocity": 116,
      "chip": "ym2612"
    },
    {
      "channel": 4,
      "note": 61,
      "start": 6.3118,
      "duration": 0.0857,
      "velocity": 122,
      "chip": "ym2612"
    },
    {
      "channel": 3,
      "note": 62,
      "start": 6.3148,
      "duration": 0.0826,
      "velocity": 116,
      "chip": "ym2612"
    },
    {
      "channel": 4,
      "note": 61,
      "start": 6.4007,
      "duration": 0.0632,
      "velocity": 122,
      "chip": "ym2612"
    },
    {
      "channel": 2,
      "note": 61,
      "start": 6.4036,
      "duration": 0.0606,
      "velocity": 127,
      "chip": "ym2612"
    },
    {
      "channel": 3,
      "note": 73,
      "start": 6.4071,
      "duration": 0.0735,
      "velocity": 116,
      "chip": "ym2612"
    },
    {
      "channel": 4,
      "note": 61,
      "start": 6.5207,
      "duration": 0.0644,
      "velocity": 122,
      "chip": "ym2612"
    },
    {
      "channel": 3,
      "note": 61,
      "start": 6.5235,
      "duration": 0.0279,
      "velocity": 116,
      "chip": "ym2612"
    },
    {
      "channel": 3,
      "note": 68,
      "start": 6.5553,
      "duration": 0.0298,
      "velocity": 116,
      "chip": "ym2612"
    },
    {
      "channel": 4,
      "note": 59,
      "start": 6.5909,
      "duration": 0.2178,
      "velocity": 122,
      "chip": "ym2612"
    },
    {
      "channel": 2,
      "note": 61,
      "start": 6.5937,
      "duration": 0.0316,
      "velocity": 127,
      "chip": "ym2612"
    },
    {
      "channel": 0,
      "note": 47,
      "start": 6.5962,
      "duration": 0.2122,
      "velocity": 111,
      "chip": "ym2612"
    },
    {
      "channel": 3,
      "note": 64,
      "start": 6.5987,
      "duration": 0.0765,
      "velocity": 116,
      "chip": "ym2612"
    },
    {
      "channel": 2,
      "note": 61,
      "start": 6.6788,
      "duration": 0.0632,
      "velocity": 127,
      "chip": "ym2612"
    },
    {
      "channel": 3,
      "note": 63,
      "start": 6.6818,
      "duration": 0.1268,
      "velocity": 116,
      "chip": "ym2612"
    },
    {
      "channel": 4,
      "note": 61,
      "start": 6.8151,
      "duration": 0.2042,
      "velocity": 122,
      "chip": "ym2612"
    },
    {
      "channel": 0,
      "note": 49,
      "start": 6.8177,
      "duration": 0.2514,
      "velocity": 111,
      "chip": "ym2612"
    },
    {
      "channel": 3,
      "note": 61,
      "start": 6.8202,
      "duration": 0.0156,
      "velocity": 116,
      "chip": "ym2612"
    },
    {
      "channel": 3,
      "note": 73,
      "start": 6.9064,
      "duration": 0.1127,
      "velocity": 116,
      "chip": "ym2612"
    },
    {
      "channel": 4,
      "note": 61,
      "start": 7.0227,
      "duration": 0.0466,
      "velocity": 122,
      "chip": "ym2612"
    },
    {
      "channel": 2,
      "note": 61,
      "start": 7.0255,
      "duration": 0.0439,
      "velocity": 127,
      "chip": "ym2612"
    },
    {
      "channel": 3,
      "note": 68,
      "start": 7.0285,
      "duration": 0.1073,
      "velocity": 116,
      "chip": "ym2612"
    },
    {
      "channel": 4,
      "note": 61,
      "start": 7.139,
      "duration": 0.0469,
      "velocity": 122,
      "chip": "ym2612"
    },
    {
      "channel": 2,
      "note": 61,
      "start": 7.1418,
      "duration": 0.0441,
      "velocity": 127,
      "chip": "ym2612"
    },
    {
      "channel": 3,
      "note": 61,
      "start": 7.1449,
      "duration": 0.1076,
      "velocity": 116,
      "chip": "ym2612"
    },
    {
      "channel": 4,
      "note": 61,
      "start": 7.2589,
      "duration": 0.0654,
      "velocity": 122,
      "chip": "ym2612"
    },
    {
      "channel": 0,
      "note": 49,
      "start": 7.2614,
      "duration": 0.0626,
      "velocity": 111,
      "chip": "ym2612"
    },
    {
      "channel": 3,
      "note": 64,
      "start": 7.264,
      "duration": 0.0268,
      "velocity": 116,
      "chip": "ym2612"
    },
    {
      "channel": 3,
      "note": 63,
      "start": 7.2938,
      "duration": 0.0303,
      "velocity": 116,
      "chip": "ym2612"
    },
    {
      "channel": 4,
      "note": 61,
      "start": 7.3268,
      "duration": 0.0547,
      "velocity": 122,
      "chip": "ym2612"
    },
    {
      "channel": 2,
      "note": 61,
      "start": 7.3293,
      "duration": 0.0524,
      "velocity": 127,
      "chip": "ym2612"
    },
    {
      "channel": 3,
      "note": 61,
      "start": 7.3341,
      "duration": 0.0973,
      "velocity": 116,
      "chip": "ym2612"
    },
    {
      "channel": 4,
      "note": 61,
      "start": 7.4383,
      "duration": 0.0185,
      "velocity": 122,
      "chip": "ym2612"
    },
    {
      "channel": 2,
      "note": 61,
      "start": 7.4407,
      "duration": 0.0161,
      "velocity": 127,
      "chip": "ym2612"
    },
    {
      "channel": 3,
      "note": 74,
      "start": 7.4436,
      "duration": 0.0179,
      "velocity": 116,
      "chip": "ym2612"
    },
    {
      "channel": 1,
      "note": 49,
      "start": 7.4779,
      "duration": 0.1012,
      "velocity": 116,
      "chip": "ym2612"
    },
    {
      "channel": 4,
      "note": 61,
      "start": 7.48,
      "duration": 0.0324,
      "velocity": 122,
      "chip": "ym2612"
    },
    {
      "channel": 2,
      "note": 61,
      "start": 7.4826,
      "duration": 0.0301,
      "velocity": 127,
      "chip": "ym2612"
    },
    {
      "channel": 3,
      "note": 62,
      "start": 7.4855,
      "duration": 0.0938,
      "velocity": 116,
      "chip": "ym2612"
    },
    {
      "channel": 1,
      "note": 49,
      "start": 7.5856,
      "duration": 0.0876,
      "velocity": 116,
      "chip": "ym2612"
    },
    {
      "channel": 4,
      "note": 61,
      "start": 7.5879,
      "duration": 0.0188,
      "velocity": 122,
      "chip": "ym2612"
    },
    {
      "channel": 2,
      "note": 61,
      "start": 7.5904,
      "duration": 0.0165,
      "velocity": 127,
      "chip": "ym2612"
    },
    {
      "channel": 3,
      "note": 71,
      "start": 7.5933,
      "duration": 0.03,
      "velocity": 116,
      "chip": "ym2612"
    },
    {
      "channel": 1,
      "note": 49,
      "start": 7.6801,
      "duration": 0.2042,
      "velocity": 116,
      "chip": "ym2612"
    },
    {
      "channel": 4,
      "note": 61,
      "start": 7.6827,
      "duration": 0.085,
      "velocity": 122,
      "chip": "ym2612"
    },
    {
      "channel": 3,
      "note": 62,
      "start": 7.6855,
      "duration": 0.0821,
      "velocity": 116,
      "chip": "ym2612"
    },
    {
      "channel": 4,
      "note": 61,
      "start": 7.771,
      "duration": 0.0467,
      "velocity": 122,
      "chip": "ym2612"
    },
    {
      "channel": 2,
      "note": 61,
      "start": 7.7738,
      "duration": 0.0441,
      "velocity": 127,
      "chip": "ym2612"
    },
    {
      "channel": 3,
      "note": 73,
      "start": 7.777,
      "duration": 0.074,
      "velocity": 116,
      "chip": "ym2612"
    },
    {
      "channel": 4,
      "note": 61,
      "start": 7.8908,
      "duration": 0.0648,
      "velocity": 122,
      "chip": "ym2612"
    },
    {
      "channel": 3,
      "note": 61,
      "start": 7.8936,
      "duration": 0.0281,
      "velocity": 116,
      "chip": "ym2612"
    },
    {
      "channel": 3,
      "note": 68,
      "start": 7.9256,
      "duration": 0.0298,
      "velocity": 116,
      "chip": "ym2612"
    },
    {
      "channel": 4,
      "note": 59,
      "start": 7.9625,
      "duration": 0.2013,
      "velocity": 122,
      "chip": "ym2612"
    },
    {
      "channel": 2,
      "note": 61,
      "start": 7.9653,
      "duration": 0.0318,
      "velocity": 127,
      "chip": "ym2612"
    },
    {
      "channel": 0,
      "note": 47,
      "start": 7.9677,
      "duration": 0.1957,
      "velocity": 111,
      "chip": "ym2612"
    },
    {
      "channel": 3,
      "note": 64,
      "start": 7.9703,
      "duration": 0.0767,
      "velocity": 116,
      "chip": "ym2612"
    },
    {
      "channel": 2,
      "note": 61,
      "start": 8.0506,
      "duration": 0.0631,
      "velocity": 127,
      "chip": "ym2612"
    },
    {
      "channel": 3,
      "note": 63,
      "start": 8.0543,
      "duration": 0.1094,
      "velocity": 116,
      "chip": "ym2612"
    },
    {
      "channel": 4,
      "note": 61,
      "start": 8.1702,
      "duration": 0.2205,
      "velocity": 122,
      "chip": "ym2612"
    },
    {
      "channel": 0,
      "note": 49,
      "start": 8.1729,
      "duration": 0.2678,
      "velocity": 111,
      "chip": "ym2612"
    },
    {
      "channel": 1,
      "note": 61,
      "start": 8.1758,
      "duration": 0.0314,
      "velocity": 127,
      "chip": "ym2612"
    },
    {
      "channel": 1,
      "note": 73,
      "start": 8.261,
      "duration": 0.1296,
      "velocity": 127,
      "chip": "ym2612"
    },
    {
      "channel": 4,
      "note": 61,
      "start": 8.3942,
      "duration": 0.0466,
      "velocity": 122,
      "chip": "ym2612"
    },
    {
      "channel": 2,
      "note": 61,
      "start": 8.3971,
      "duration": 0.0439,
      "velocity": 127,
      "chip": "ym2612"
    },
    {
      "channel": 1,
      "note": 68,
      "start": 8.3998,
      "duration": 0.1076,
      "velocity": 127,
      "chip": "ym2612"
    },
    {
      "channel": 4,
      "note": 61,
      "start": 8.5105,
      "duration": 0.0468,
      "velocity": 122,
      "chip": "ym2612"
    },
    {
      "channel": 2,
      "note": 61,
      "start": 8.5134,
      "duration": 0.0441,
      "velocity": 127,
      "chip": "ym2612"
    },
    {
      "channel": 1,
      "note": 61,
      "start": 8.5161,
      "duration": 0.1078,
      "velocity": 127,
      "chip": "ym2612"
    },
    {
      "channel": 4,
      "note": 61,
      "start": 8.6305,
      "duration": 0.0652,
      "velocity": 122,
      "chip": "ym2612"
    },
    {
      "channel": 0,
      "note": 49,
      "start": 8.6332,
      "duration": 0.0623,
      "velocity": 111,
      "chip": "ym2612"
    },
    {
      "channel": 1,
      "note": 64,
      "start": 8.6356,
      "duration": 0.0269,
      "velocity": 127,
      "chip": "ym2612"
    },
    {
      "channel": 1,
      "note": 63,
      "start": 8.6654,
      "duration": 0.0303,
      "velocity": 127,
      "chip": "ym2612"
    },
    {
      "channel": 4,
      "note": 61,
      "start": 8.6986,
      "duration": 0.0546,
      "velocity": 122,
      "chip": "ym2612"
    },
    {
      "channel": 2,
      "note": 61,
      "start": 8.7012,
      "duration": 0.0522,
      "velocity": 127,
      "chip": "ym2612"
    },
    {
      "channel": 1,
      "note": 61,
      "start": 8.7063,
      "duration": 0.0968,
      "velocity": 127,
      "chip": "ym2612"
    },
    {
      "channel": 4,
      "note": 61,
      "start": 8.8101,
      "duration": 0.0188,
      "velocity": 122,
      "chip": "ym2612"
    },
    {
      "channel": 2,
      "note": 61,
      "start": 8.8126,
      "duration": 0.0163,
      "velocity": 127,
      "chip": "ym2612"
    },
    {
      "channel": 1,
      "note": 74,
      "start": 8.8149,
      "duration": 0.0183,
      "velocity": 127,
      "chip": "ym2612"
    },
    {
      "channel": 3,
      "note": 49,
      "start": 8.85,
      "duration": 0.0839,
      "velocity": 116,
      "chip": "ym2612"
    },
    {
      "channel": 4,
      "note": 61,
      "start": 8.8522,
      "duration": 0.0316,
      "velocity": 122,
      "chip": "ym2612"
    },
    {
      "channel": 2,
      "note": 61,
      "start": 8.8546,
      "duration": 0.0292,
      "velocity": 127,
      "chip": "ym2612"
    },
    {
      "channel": 1,
      "note": 62,
      "start": 8.8572,
      "duration": 0.0766,
      "velocity": 127,
      "chip": "ym2612"
    },
    {
      "channel": 3,
      "note": 49,
      "start": 8.9405,
      "duration": 0.0869,
      "velocity": 116,
      "chip": "ym2612"
    },
    {
      "channel": 4,
      "note": 61,
      "start": 8.9426,
      "duration": 0.0348,
      "velocity": 122,
      "chip": "ym2612"
    },
    {
      "channel": 2,
      "note": 61,
      "start": 8.9448,
      "duration": 0.0327,
      "velocity": 127,
      "chip": "ym2612"
    },
    {
      "channel": 1,
      "note": 71,
      "start": 8.9474,
      "duration": 0.0466,
      "velocity": 127,
      "chip": "ym2612"
    },
    {
      "channel": 3,
      "note": 49,
      "start": 9.0341,
      "duration": 0.22,
      "velocity": 116,
      "chip": "ym2612"
    },
    {
      "channel": 4,
      "note": 61,
      "start": 9.0364,
      "duration": 0.1012,
      "velocity": 122,
      "chip": "ym2612"
    },
    {
      "channel": 1,
      "note": 62,
      "start": 9.039,
      "duration": 0.0984,
      "velocity": 127,
      "chip": "ym2612"
    },
    {
      "channel": 4,
      "note": 61,
      "start": 9.1408,
      "duration": 0.0466,
      "velocity": 122,
      "chip": "ym2612"
    },
    {
      "channel": 2,
      "note": 61,
      "start": 9.1437,
      "duration": 0.044,
      "velocity": 127,
      "chip": "ym2612"
    },
    {
      "channel": 1,
      "note": 73,
      "start": 9.1469,
      "duration": 0.0571,
      "velocity": 127,
      "chip": "ym2612"
    },
    {
      "channel": 4,
      "note": 61,
      "start": 9.2605,
      "duration": 0.0657,
      "velocity": 122,
      "chip": "ym2612"
    },
    {
      "channel": 1,
      "note": 61,
      "start": 9.2631,
      "duration": 0.0289,
      "velocity": 127,
      "chip": "ym2612"
    },
    {
      "channel": 1,
      "note": 68,
      "start": 9.2956,
      "duration": 0.0304,
      "velocity": 127,
      "chip": "ym2612"
    },
    {
      "channel": 4,
      "note": 59,
      "start": 9.3332,
      "duration": 0.2012,
      "velocity": 122,
      "chip": "ym2612"
    },
    {
      "channel": 2,
      "note": 61,
      "start": 9.336,
      "duration": 0.0165,
      "velocity": 127,
      "chip": "ym2612"
    },
    {
      "channel": 0,
      "note": 47,
      "start": 9.3386,
      "duration": 0.1956,
      "velocity": 111,
      "chip": "ym2612"
    },
    {
      "channel": 1,
      "note": 64,
      "start": 9.3409,
      "duration": 0.0766,
      "velocity": 127,
      "chip": "ym2612"
    },
    {
      "channel": 2,
      "note": 61,
      "start": 9.4212,
      "duration": 0.0634,
      "velocity": 127,
      "chip": "ym2612"
    },
    {
      "channel": 1,
      "note": 63,
      "start": 9.4239,
      "duration": 0.1104,
      "velocity": 127,
      "chip": "ym2612"
    },
    {
      "channel": 4,
      "note": 61,
      "start": 9.5409,
      "duration": 0.2035,
      "velocity": 122,
      "chip": "ym2612"
    },
    {
      "channel": 0,
      "note": 49,
      "start": 9.5435,
      "duration": 0.2673,
      "velocity": 111,
      "chip": "ym2612"
    },
    {
      "channel": 1,
      "note": 61,
      "start": 9.5458,
      "duration": 0.0317,
      "velocity": 127,
      "chip": "ym2612"
    },
    {
      "channel": 1,
      "note": 73,
      "start": 9.6312,
      "duration": 0.1131,
      "velocity": 127,
      "chip": "ym2612"
    },
    {
      "channel": 4,
      "note": 61,
      "start": 9.7483,
      "duration": 0.0628,
      "velocity": 122,
      "chip": "ym2612"
    },
    {
      "channel": 2,
      "note": 61,
      "start": 9.7511,
      "duration": 0.0601,
      "velocity": 127,
      "chip": "ym2612"
    },
    {
      "channel": 1,
      "note": 68,
      "start": 9.7538,
      "duration": 0.1071,
      "velocity": 127,
      "chip": "ym2612"
    },
    {
      "channel": 4,
      "note": 61,
      "start": 9.8641,
      "duration": 0.0634,
      "velocity": 122,
      "chip": "ym2612"
    },
    {
      "channel": 2,
      "note": 61,
      "start": 9.8669,
      "duration": 0.0608,
      "velocity": 127,
      "chip": "ym2612"
    },
    {
      "channel": 1,
      "note": 61,
      "start": 9.8697,
      "duration": 0.1246,
      "velocity": 127,
      "chip": "ym2612"
    },
    {
      "channel": 4,
      "note": 61,
      "start": 10.0008,
      "duration": 0.0651,
      "velocity": 122,
      "chip": "ym2612"
    },
    {
      "channel": 0,
      "note": 49,
      "start": 10.0035,
      "duration": 0.0623,
      "velocity": 111,
      "chip": "ym2612"
    },
    {
      "channel": 1,
      "note": 64,
      "start": 10.0058,
      "duration": 0.027,
      "velocity": 127,
      "chip": "ym2612"
    },
    {
      "channel": 1,
      "note": 63,
      "start": 10.0356,
      "duration": 0.0303,
      "velocity": 127,
      "chip": "ym2612"
    },
    {
      "channel": 4,
      "note": 61,
      "start": 10.0685,
      "duration": 0.038,
      "velocity": 122,
      "chip": "ym2612"
    },
    {
      "channel": 2,
      "note": 61,
      "start": 10.0712,
      "duration": 0.0356,
      "velocity": 127,
      "chip": "ym2612"
    },
    {
      "channel": 1,
      "note": 61,
      "start": 10.0759,
      "duration": 0.0974,
      "velocity": 127,
      "chip": "ym2612"
    },
    {
      "channel": 4,
      "note": 61,
      "start": 10.1798,
      "duration": 0.0138,
      "velocity": 122,
      "chip": "ym2612"
    },
    {
      "channel": 2,
      "note": 61,
      "start": 10.182,
      "duration": 0.0117,
      "velocity": 127,
      "chip": "ym2612"
    },
    {
      "channel": 1,
      "note": 74,
      "start": 10.1847,
      "duration": 0.0179,
      "velocity": 127,
      "chip": "ym2612"
    },
    {
      "channel": 3,
      "note": 49,
      "start": 10.2187,
      "duration": 0.0832,
      "velocity": 116,
      "chip": "ym2612"
    },
    {
      "channel": 4,
      "note": 61,
      "start": 10.2209,
      "duration": 0.031,
      "velocity": 122,
      "chip": "ym2612"
    },
    {
      "channel": 2,
      "note": 61,
      "start": 10.2232,
      "duration": 0.0288,
      "velocity": 127,
      "chip": "ym2612"
    },
    {
      "channel": 1,
      "note": 62,
      "start": 10.2258,
      "duration": 0.0759,
      "velocity": 127,
      "chip": "ym2612"
    },
    {
      "channel": 3,
      "note": 49,
      "start": 10.3082,
      "duration": 0.087,
      "velocity": 116,
      "chip": "ym2612"
    },
    {
      "channel": 4,
      "note": 61,
      "start": 10.3103,
      "duration": 0.0349,
      "velocity": 122,
      "chip": "ym2612"
    },
    {
      "channel": 2,
      "note": 61,
      "start": 10.3128,
      "duration": 0.0325,
      "velocity": 127,
      "chip": "ym2612"
    },
    {
      "channel": 1,
      "note": 71,
      "start": 10.3154,
      "duration": 0.0464,
      "velocity": 127,
      "chip": "ym2612"
    },
    {
      "channel": 3,
      "note": 49,
      "start": 10.4019,
      "duration": 0.203,
      "velocity": 116,
      "chip": "ym2612"
    },
    {
      "channel": 4,
      "note": 61,
      "start": 10.4041,
      "duration": 0.0842,
      "velocity": 122,
      "chip": "ym2612"
    },
    {
      "channel": 1,
      "note": 62,
      "start": 10.4068,
      "duration": 0.0815,
      "velocity": 127,
      "chip": "ym2612"
    },
    {
      "channel": 4,
      "note": 61,
      "start": 10.4917,
      "duration": 0.0633,
      "velocity": 122,
      "chip": "ym2612"
    },
    {
      "channel": 2,
      "note": 61,
      "start": 10.4945,
      "duration": 0.0607,
      "velocity": 127,
      "chip": "ym2612"
    },
    {
      "channel": 1,
      "note": 73,
      "start": 10.4974,
      "duration": 0.0741,
      "velocity": 127,
      "chip": "ym2612"
    },
    {
      "channel": 4,
      "note": 61,
      "start": 10.6115,
      "duration": 0.075,
      "velocity": 122,
      "chip": "ym2612"
    },
    {
      "channel": 1,
      "note": 61,
      "start": 10.6142,
      "duration": 0.0323,
      "velocity": 127,
      "chip": "ym2612"
    },
    {
      "channel": 1,
      "note": 68,
      "start": 10.6504,
      "duration": 0.0359,
      "velocity": 127,
      "chip": "ym2612"
    },
    {
      "channel": 4,
      "note": 59,
      "start": 10.6929,
      "duration": 0.0705,
      "velocity": 122,
      "chip": "ym2612"
    },
    {
      "channel": 2,
      "note": 61,
      "start": 10.6957,
      "duration": 0.0126,
      "velocity": 127,
      "chip": "ym2612"
    },
    {
      "channel": 0,
      "note": 48,
      "start": 10.6982,
      "duration": 0.0651,
      "velocity": 111,
      "chip": "ym2612"
    },
    {
      "channel": 1,
      "note": 64,
      "start": 10.7005,
      "duration": 0.0261,
      "velocity": 127,
      "chip": "ym2612"
    },
    {
      "channel": 2,
      "note": 61,
      "start": 10.7333,
      "duration": 0.0119,
      "velocity": 127,
      "chip": "ym2612"
    },
    {
      "channel": 1,
      "note": 61,
      "start": 10.7361,
      "duration": 0.0273,
      "velocity": 127,
      "chip": "ym2612"
    },
    {
      "channel": 3,
      "note": 49,
      "start": 10.7712,
      "duration": 0.2668,
      "velocity": 122,
      "chip": "ym2612"
    },
    {
      "channel": 4,
      "note": 59,
      "start": 10.7737,
      "duration": 0.0811,
      "velocity": 122,
      "chip": "ym2612"
    },
    {
      "channel": 0,
      "note": 59,
      "start": 10.7765,
      "duration": 0.078,
      "velocity": 111,
      "chip": "ym2612"
    },
    {
      "channel": 4,
      "note": 61,
      "start": 10.8579,
      "duration": 0.1134,
      "velocity": 122,
      "chip": "ym2612"
    },
    {
      "channel": 0,
      "note": 61,
      "start": 10.8606,
      "duration": 0.1105,
      "velocity": 111,
      "chip": "ym2612"
    },
    {
      "channel": 4,
      "note": 49,
      "start": 10.9746,
      "duration": 0.0133,
      "velocity": 122,
      "chip": "ym2612"
    },
    {
      "channel": 2,
      "note": 49,
      "start": 10.9776,
      "duration": 0.0105,
      "velocity": 127,
      "chip": "ym2612"
    },
    {
      "channel": 0,
      "note": 56,
      "start": 10.9801,
      "duration": 0.1077,
      "velocity": 111,
      "chip": "ym2612"
    },
    {
      "channel": 4,
      "note": 49,
      "start": 11.0911,
      "duration": 0.0135,
      "velocity": 122,
      "chip": "ym2612"
    },
    {
      "channel": 2,
      "note": 49,
      "start": 11.0939,
      "duration": 0.0109,
      "velocity": 127,
      "chip": "ym2612"
    },
    {
      "channel": 0,
      "note": 49,
      "start": 11.0968,
      "duration": 0.1076,
      "velocity": 111,
      "chip": "ym2612"
    },
    {
      "channel": 3,
      "note": 49,
      "start": 11.2109,
      "duration": 0.0745,
      "velocity": 122,
      "chip": "ym2612"
    },
    {
      "channel": 4,
      "note": 62,
      "start": 11.2132,
      "duration": 0.0296,
      "velocity": 122,
      "chip": "ym2612"
    },
    {
      "channel": 0,
      "note": 62,
      "start": 11.2156,
      "duration": 0.0271,
      "velocity": 111,
      "chip": "ym2612"
    },
    {
      "channel": 4,
      "note": 61,
      "start": 11.2454,
      "duration": 0.0401,
      "velocity": 122,
      "chip": "ym2612"
    },
    {
      "channel": 0,
      "note": 61,
      "start": 11.2488,
      "duration": 0.0532,
      "velocity": 111,
      "chip": "ym2612"
    },
    {
      "channel": 4,
      "note": 49,
      "start": 11.2889,
      "duration": 0.0134,
      "velocity": 122,
      "chip": "ym2612"
    },
    {
      "channel": 2,
      "note": 49,
      "start": 11.2917,
      "duration": 0.0107,
      "velocity": 127,
      "chip": "ym2612"
    },
    {
      "channel": 4,
      "note": 49,
      "start": 11.4092,
      "duration": 0.0038,
      "velocity": 122,
      "chip": "ym2612"
    },
    {
      "channel": 2,
      "note": 49,
      "start": 11.4115,
      "duration": 0.0015,
      "velocity": 127,
      "chip": "ym2612"
    },
    {
      "channel": 1,
      "note": 49,
      "start": 11.4465,
      "duration": 0.0838,
      "velocity": 116,
      "chip": "ym2612"
    },
    {
      "channel": 4,
      "note": 49,
      "start": 11.4486,
      "duration": 0.0039,
      "velocity": 122,
      "chip": "ym2612"
    },
    {
      "channel": 2,
      "note": 49,
      "start": 11.4511,
      "duration": 0.0016,
      "velocity": 127,
      "chip": "ym2612"
    },
    {
      "channel": 1,
      "note": 49,
      "start": 11.5369,
      "duration": 0.0871,
      "velocity": 116,
      "chip": "ym2612"
    },
    {
      "channel": 4,
      "note": 49,
      "start": 11.5391,
      "duration": 0.0041,
      "velocity": 122,
      "chip": "ym2612"
    },
    {
      "channel": 2,
      "note": 49,
      "start": 11.5414,
      "duration": 0.0019,
      "velocity": 127,
      "chip": "ym2612"
    },
    {
      "channel": 1,
      "note": 49,
      "start": 11.6309,
      "duration": 0.2035,
      "velocity": 116,
      "chip": "ym2612"
    },
    {
      "channel": 4,
      "note": 59,
      "start": 11.6333,
      "duration": 0.0844,
      "velocity": 122,
      "chip": "ym2612"
    },
    {
      "channel": 0,
      "note": 59,
      "start": 11.6361,
      "duration": 0.0814,
      "velocity": 111,
      "chip": "ym2612"
    },
    {
      "channel": 4,
      "note": 49,
      "start": 11.7209,
      "duration": 0.1137,
      "velocity": 122,
      "chip": "ym2612"
    },
    {
      "channel": 2,
      "note": 49,
      "start": 11.7237,
      "duration": 0.0107,
      "velocity": 127,
      "chip": "ym2612"
    },
    {
      "channel": 0,
      "note": 49,
      "start": 11.7262,
      "duration": 0.108,
      "velocity": 111,
      "chip": "ym2612"
    },
    {
      "channel": 4,
      "note": 59,
      "start": 11.8407,
      "duration": 0.0312,
      "velocity": 122,
      "chip": "ym2612"
    },
    {
      "channel": 0,
      "note": 59,
      "start": 11.8431,
      "duration": 0.0285,
      "velocity": 111,
      "chip": "ym2612"
    },
    {
      "channel": 4,
      "note": 61,
      "start": 11.8744,
      "duration": 0.0321,
      "velocity": 122,
      "chip": "ym2612"
    },
    {
      "channel": 0,
      "note": 61,
      "start": 11.8778,
      "duration": 0.0285,
      "velocity": 111,
      "chip": "ym2612"
    },
    {
      "channel": 3,
      "note": 47,
      "start": 11.9131,
      "duration": 0.2174,
      "velocity": 122,
      "chip": "ym2612"
    },
    {
      "channel": 4,
      "note": 49,
      "start": 11.9156,
      "duration": 0.0317,
      "velocity": 122,
      "chip": "ym2612"
    },
    {
      "channel": 2,
      "note": 49,
      "start": 11.9186,
      "duration": 0.0288,
      "velocity": 127,
      "chip": "ym2612"
    },
    {
      "channel": 4,
      "note": 49,
      "start": 12.0169,
      "duration": 0.0469,
      "velocity": 122,
      "chip": "ym2612"
    },
    {
      "channel": 2,
      "note": 49,
      "start": 12.0197,
      "duration": 0.0443,
      "velocity": 127,
      "chip": "ym2612"
    },
    {
      "channel": 3,
      "note": 49,
      "start": 12.137,
      "duration": 0.2545,
      "velocity": 122,
      "chip": "ym2612"
    },
    {
      "channel": 4,
      "note": 59,
      "start": 12.1393,
      "duration": 0.0856,
      "velocity": 122,
      "chip": "ym2612"
    },
    {
      "channel": 0,
      "note": 59,
      "start": 12.142,
      "duration": 0.0827,
      "velocity": 111,
      "chip": "ym2612"
    },
    {
      "channel": 4,
      "note": 61,
      "start": 12.228,
      "duration": 0.1135,
      "velocity": 122,
      "chip": "ym2612"
    },
    {
      "channel": 0,
      "note": 61,
      "start": 12.2307,
      "duration": 0.1107,
      "velocity": 111,
      "chip": "ym2612"
    },
    {
      "channel": 4,
      "note": 49,
      "start": 12.3449,
      "duration": 0.0132,
      "velocity": 122,
      "chip": "ym2612"
    },
    {
      "channel": 2,
      "note": 49,
      "start": 12.3479,
      "duration": 0.0104,
      "velocity": 127,
      "chip": "ym2612"
    },
    {
      "channel": 0,
      "note": 56,
      "start": 12.3504,
      "duration": 0.1076,
      "velocity": 111,
      "chip": "ym2612"
    },
    {
      "channel": 4,
      "note": 49,
      "start": 12.4616,
      "duration": 0.0131,
      "velocity": 122,
      "chip": "ym2612"
    },
    {
      "channel": 2,
      "note": 49,
      "start": 12.4645,
      "duration": 0.0104,
      "velocity": 127,
      "chip": "ym2612"
    },
    {
      "channel": 0,
      "note": 49,
      "start": 12.4674,
      "duration": 0.1073,
      "velocity": 111,
      "chip": "ym2612"
    },
    {
      "channel": 3,
      "note": 49,
      "start": 12.581,
      "duration": 0.0663,
      "velocity": 122,
      "chip": "ym2612"
    },
    {
      "channel": 4,
      "note": 62,
      "start": 12.5834,
      "duration": 0.0296,
      "velocity": 122,
      "chip": "ym2612"
    },
    {
      "channel": 0,
      "note": 62,
      "start": 12.5857,
      "duration": 0.0272,
      "velocity": 111,
      "chip": "ym2612"
    },
    {
      "channel": 4,
      "note": 61,
      "start": 12.6155,
      "duration": 0.0319,
      "velocity": 122,
      "chip": "ym2612"
    },
    {
      "channel": 0,
      "note": 61,
      "start": 12.6189,
      "duration": 0.0283,
      "velocity": 111,
      "chip": "ym2612"
    },
    {
      "channel": 4,
      "note": 49,
      "start": 12.6501,
      "duration": 0.0203,
      "velocity": 122,
      "chip": "ym2612"
    },
    {
      "channel": 2,
      "note": 49,
      "start": 12.6525,
      "duration": 0.018,
      "velocity": 127,
      "chip": "ym2612"
    },
    {
      "channel": 4,
      "note": 49,
      "start": 12.7605,
      "duration": 0.0084,
      "velocity": 122,
      "chip": "ym2612"
    },
    {
      "channel": 2,
      "note": 49,
      "start": 12.7629,
      "duration": 0.0061,
      "velocity": 127,
      "chip": "ym2612"
    },
    {
      "channel": 1,
      "note": 49,
      "start": 12.8025,
      "duration": 0.0842,
      "velocity": 116,
      "chip": "ym2612"
    },
    {
      "channel": 4,
      "note": 49,
      "start": 12.8047,
      "duration": 0.0038,
      "velocity": 122,
      "chip": "ym2612"
    },
    {
      "channel": 2,
      "note": 49,
      "start": 12.8072,
      "duration": 0.0014,
      "velocity": 127,
      "chip": "ym2612"
    },
    {
      "channel": 1,
      "note": 49,
      "start": 12.8931,
      "duration": 0.0877,
      "velocity": 116,
      "chip": "ym2612"
    },
    {
      "channel": 4,
      "note": 49,
      "start": 12.8954,
      "duration": 0.0041,
      "velocity": 122,
      "chip": "ym2612"
    },
    {
      "channel": 2,
      "note": 49,
      "start": 12.8979,
      "duration": 0.0018,
      "velocity": 127,
      "chip": "ym2612"
    },
    {
      "channel": 1,
      "note": 49,
      "start": 12.9874,
      "duration": 0.204,
      "velocity": 116,
      "chip": "ym2612"
    },
    {
      "channel": 4,
      "note": 59,
      "start": 12.9897,
      "duration": 0.0851,
      "velocity": 122,
      "chip": "ym2612"
    },
    {
      "channel": 0,
      "note": 59,
      "start": 12.9921,
      "duration": 0.0824,
      "velocity": 111,
      "chip": "ym2612"
    },
    {
      "channel": 4,
      "note": 49,
      "start": 13.078,
      "duration": 0.0134,
      "velocity": 122,
      "chip": "ym2612"
    },
    {
      "channel": 2,
      "note": 49,
      "start": 13.0813,
      "duration": 0.0103,
      "velocity": 127,
      "chip": "ym2612"
    },
    {
      "channel": 0,
      "note": 49,
      "start": 13.0838,
      "duration": 0.1075,
      "velocity": 111,
      "chip": "ym2612"
    },
    {
      "channel": 4,
      "note": 59,
      "start": 13.1977,
      "duration": 0.0309,
      "velocity": 122,
      "chip": "ym2612"
    },
    {
      "channel": 0,
      "note": 59,
      "start": 13.2,
      "duration": 0.0285,
      "velocity": 111,
      "chip": "ym2612"
    },
    {
      "channel": 4,
      "note": 61,
      "start": 13.2312,
      "duration": 0.0316,
      "velocity": 122,
      "chip": "ym2612"
    },
    {
      "channel": 0,
      "note": 61,
      "start": 13.2345,
      "duration": 0.0281,
      "velocity": 111,
      "chip": "ym2612"
    },
    {
      "channel": 3,
      "note": 47,
      "start": 13.2693,
      "duration": 0.2015,
      "velocity": 122,
      "chip": "ym2612"
    },
    {
      "channel": 4,
      "note": 49,
      "start": 13.2719,
      "duration": 0.0073,
      "velocity": 122,
      "chip": "ym2612"
    },
    {
      "channel": 2,
      "note": 49,
      "start": 13.2744,
      "duration": 0.0049,
      "velocity": 127,
      "chip": "ym2612"
    },
    {
      "channel": 0,
      "note": 56,
      "start": 13.2769,
      "duration": 0.0769,
      "velocity": 111,
      "chip": "ym2612"
    },
    {
      "channel": 4,
      "note": 49,
      "start": 13.3572,
      "duration": 0.0303,
      "velocity": 122,
      "chip": "ym2612"
    },
    {
      "channel": 2,
      "note": 49,
      "start": 13.36,
      "duration": 0.0277,
      "velocity": 127,
      "chip": "ym2612"
    },
    {
      "channel": 0,
      "note": 49,
      "start": 13.3625,
      "duration": 0.108,
      "velocity": 111,
      "chip": "ym2612"
    },
    {
      "channel": 3,
      "note": 49,
      "start": 13.4777,
      "duration": 0.2698,
      "velocity": 122,
      "chip": "ym2612"
    },
    {
      "channel": 4,
      "note": 59,
      "start": 13.48,
      "duration": 0.1009,
      "velocity": 122,
      "chip": "ym2612"
    },
    {
      "channel": 0,
      "note": 59,
      "start": 13.4824,
      "duration": 0.0982,
      "velocity": 111,
      "chip": "ym2612"
    },
    {
      "channel": 4,
      "note": 61,
      "start": 13.584,
      "duration": 0.1137,
      "velocity": 122,
      "chip": "ym2612"
    },
    {
      "channel": 0,
      "note": 61,
      "start": 13.5867,
      "duration": 0.1107,
      "velocity": 111,
      "chip": "ym2612"
    },
    {
      "channel": 4,
      "note": 49,
      "start": 13.7009,
      "duration": 0.0133,
      "velocity": 122,
      "chip": "ym2612"
    },
    {
      "channel": 2,
      "note": 49,
      "start": 13.7038,
      "duration": 0.0106,
      "velocity": 127,
      "chip": "ym2612"
    },
    {
      "channel": 0,
      "note": 56,
      "start": 13.7063,
      "duration": 0.1077,
      "velocity": 111,
      "chip": "ym2612"
    },
    {
      "channel": 4,
      "note": 49,
      "start": 13.8173,
      "duration": 0.0136,
      "velocity": 122,
      "chip": "ym2612"
    },
    {
      "channel": 2,
      "note": 49,
      "start": 13.8201,
      "duration": 0.011,
      "velocity": 127,
      "chip": "ym2612"
    },
    {
      "channel": 0,
      "note": 49,
      "start": 13.8227,
      "duration": 0.108,
      "velocity": 111,
      "chip": "ym2612"
    },
    {
      "channel": 3,
      "note": 49,
      "start": 13.937,
      "duration": 0.0668,
      "velocity": 122,
      "chip": "ym2612"
    },
    {
      "channel": 4,
      "note": 62,
      "start": 13.9393,
      "duration": 0.0299,
      "velocity": 122,
      "chip": "ym2612"
    },
    {
      "channel": 0,
      "note": 62,
      "start": 13.9417,
      "duration": 0.0273,
      "velocity": 111,
      "chip": "ym2612"
    },
    {
      "channel": 4,
      "note": 61,
      "start": 13.9717,
      "duration": 0.0322,
      "velocity": 122,
      "chip": "ym2612"
    },
    {
      "channel": 0,
      "note": 61,
      "start": 13.9757,
      "duration": 0.0378,
      "velocity": 111,
      "chip": "ym2612"
    },
    {
      "channel": 4,
      "note": 49,
      "start": 14.0064,
      "duration": 0.0072,
      "velocity": 122,
      "chip": "ym2612"
    },
    {
      "channel": 2,
      "note": 49,
      "start": 14.0088,
      "duration": 0.0051,
      "velocity": 127,
      "chip": "ym2612"
    },
    {
      "channel": 4,
      "note": 49,
      "start": 14.1187,
      "duration": 0.0039,
      "velocity": 122,
      "chip": "ym2612"
    },
    {
      "channel": 2,
      "note": 49,
      "start": 14.121,
      "duration": 0.0018,
      "velocity": 127,
      "chip": "ym2612"
    },
    {
      "channel": 1,
      "note": 49,
      "start": 14.1576,
      "duration": 0.0828,
      "velocity": 116,
      "chip": "ym2612"
    },
    {
      "channel": 4,
      "note": 49,
      "start": 14.16,
      "duration": 0.008,
      "velocity": 122,
      "chip": "ym2612"
    },
    {
      "channel": 2,
      "note": 49,
      "start": 14.1623,
      "duration": 0.0057,
      "velocity": 127,
      "chip": "ym2612"
    },
    {
      "channel": 1,
      "note": 49,
      "start": 14.247,
      "duration": 0.1043,
      "velocity": 116,
      "chip": "ym2612"
    },
    {
      "channel": 4,
      "note": 49,
      "start": 14.2494,
      "duration": 0.0097,
      "velocity": 122,
      "chip": "ym2612"
    },
    {
      "channel": 2,
      "note": 49,
      "start": 14.2518,
      "duration": 0.0074,
      "velocity": 127,
      "chip": "ym2612"
    },
    {
      "channel": 1,
      "note": 49,
      "start": 14.3579,
      "duration": 0.2036,
      "velocity": 116,
      "chip": "ym2612"
    },
    {
      "channel": 4,
      "note": 59,
      "start": 14.3603,
      "duration": 0.0848,
      "velocity": 122,
      "chip": "ym2612"
    },
    {
      "channel": 0,
      "note": 59,
      "start": 14.3632,
      "duration": 0.0817,
      "velocity": 111,
      "chip": "ym2612"
    },
    {
      "channel": 4,
      "note": 49,
      "start": 14.4482,
      "duration": 0.1136,
      "velocity": 122,
      "chip": "ym2612"
    },
    {
      "channel": 2,
      "note": 49,
      "start": 14.4514,
      "duration": 0.0102,
      "velocity": 127,
      "chip": "ym2612"
    },
    {
      "channel": 0,
      "note": 49,
      "start": 14.4539,
      "duration": 0.1075,
      "velocity": 111,
      "chip": "ym2612"
    },
    {
      "channel": 4,
      "note": 59,
      "start": 14.5679,
      "duration": 0.0309,
      "velocity": 122,
      "chip": "ym2612"
    },
    {
      "channel": 0,
      "note": 59,
      "start": 14.5704,
      "duration": 0.0282,
      "velocity": 111,
      "chip": "ym2612"
    },
    {
      "channel": 4,
      "note": 61,
      "start": 14.6014,
      "duration": 0.0316,
      "velocity": 122,
      "chip": "ym2612"
    },
    {
      "channel": 0,
      "note": 61,
      "start": 14.6049,
      "duration": 0.028,
      "velocity": 111,
      "chip": "ym2612"
    },
    {
      "channel": 3,
      "note": 47,
      "start": 14.6395,
      "duration": 0.201,
      "velocity": 122,
      "chip": "ym2612"
    },
    {
      "channel": 4,
      "note": 49,
      "start": 14.6419,
      "duration": 0.032,
      "velocity": 122,
      "chip": "ym2612"
    },
    {
      "channel": 2,
      "note": 49,
      "start": 14.6446,
      "duration": 0.0295,
      "velocity": 127,
      "chip": "ym2612"
    },
    {
      "channel": 4,
      "note": 49,
      "start": 14.7269,
      "duration": 0.0637,
      "velocity": 122,
      "chip": "ym2612"
    },
    {
      "channel": 2,
      "note": 49,
      "start": 14.7297,
      "duration": 0.061,
      "velocity": 127,
      "chip": "ym2612"
    },
    {
      "channel": 3,
      "note": 49,
      "start": 14.8469,
      "duration": 0.2704,
      "velocity": 122,
      "chip": "ym2612"
    },
    {
      "channel": 4,
      "note": 59,
      "start": 14.8492,
      "duration": 0.0849,
      "velocity": 122,
      "chip": "ym2612"
    },
    {
      "channel": 0,
      "note": 59,
      "start": 14.8519,
      "duration": 0.082,
      "velocity": 111,
      "chip": "ym2612"
    },
    {
      "channel": 4,
      "note": 61,
      "start": 14.9373,
      "duration": 0.1135,
      "velocity": 122,
      "chip": "ym2612"
    },
    {
      "channel": 0,
      "note": 61,
      "start": 14.9399,
      "duration": 0.1106,
      "velocity": 111,
      "chip": "ym2612"
    },
    {
      "channel": 4,
      "note": 49,
      "start": 15.0541,
      "duration": 0.0299,
      "velocity": 122,
      "chip": "ym2612"
    },
    {
      "channel": 2,
      "note": 49,
      "start": 15.0571,
      "duration": 0.0271,
      "velocity": 127,
      "chip": "ym2612"
    },
    {
      "channel": 0,
      "note": 56,
      "start": 15.0597,
      "duration": 0.1243,
      "velocity": 111,
      "chip": "ym2612"
    },
    {
      "channel": 4,
      "note": 49,
      "start": 15.1872,
      "duration": 0.0135,
      "velocity": 122,
      "chip": "ym2612"
    },
    {
      "channel": 2,
      "note": 49,
      "start": 15.1901,
      "duration": 0.0107,
      "velocity": 127,
      "chip": "ym2612"
    },
    {
      "channel": 0,
      "note": 49,
      "start": 15.1926,
      "duration": 0.108,
      "velocity": 111,
      "chip": "ym2612"
    },
    {
      "channel": 3,
      "note": 49,
      "start": 15.3069,
      "duration": 0.067,
      "velocity": 122,
      "chip": "ym2612"
    },
    {
      "channel": 4,
      "note": 62,
      "start": 15.3097,
      "duration": 0.0302,
      "velocity": 122,
      "chip": "ym2612"
    },
    {
      "channel": 0,
      "note": 62,
      "start": 15.3122,
      "duration": 0.0276,
      "velocity": 111,
      "chip": "ym2612"
    },
    {
      "channel": 4,
      "note": 61,
      "start": 15.3424,
      "duration": 0.0317,
      "velocity": 122,
      "chip": "ym2612"
    },
    {
      "channel": 0,
      "note": 61,
      "start": 15.3461,
      "duration": 0.0278,
      "velocity": 111,
      "chip": "ym2612"
    },
    {
      "channel": 4,
      "note": 49,
      "start": 15.3767,
      "duration": 0.0051,
      "velocity": 122,
      "chip": "ym2612"
    },
    {
      "channel": 2,
      "note": 49,
      "start": 15.3791,
      "duration": 0.0029,
      "velocity": 127,
      "chip": "ym2612"
    },
    {
      "channel": 4,
      "note": 49,
      "start": 15.4865,
      "duration": 0.004,
      "velocity": 122,
      "chip": "ym2612"
    },
    {
      "channel": 2,
      "note": 49,
      "start": 15.4889,
      "duration": 0.0017,
      "velocity": 127,
      "chip": "ym2612"
    },
    {
      "channel": 1,
      "note": 49,
      "start": 15.5245,
      "duration": 0.0839,
      "velocity": 116,
      "chip": "ym2612"
    },
    {
      "channel": 4,
      "note": 49,
      "start": 15.5267,
      "duration": 0.004,
      "velocity": 122,
      "chip": "ym2612"
    },
    {
      "channel": 2,
      "note": 49,
      "start": 15.529,
      "duration": 0.0017,
      "velocity": 127,
      "chip": "ym2612"
    },
    {
      "channel": 1,
      "note": 49,
      "start": 15.6151,
      "duration": 0.0868,
      "velocity": 116,
      "chip": "ym2612"
    },
    {
      "channel": 4,
      "note": 49,
      "start": 15.6173,
      "duration": 0.0041,
      "velocity": 122,
      "chip": "ym2612"
    },
    {
      "channel": 2,
      "note": 49,
      "start": 15.62,
      "duration": 0.0015,
      "velocity": 127,
      "chip": "ym2612"
    },
    {
      "channel": 1,
      "note": 49,
      "start": 15.7085,
      "duration": 0.2201,
      "velocity": 116,
      "chip": "ym2612"
    },
    {
      "channel": 4,
      "note": 59,
      "start": 15.7108,
      "duration": 0.0846,
      "velocity": 122,
      "chip": "ym2612"
    },
    {
      "channel": 0,
      "note": 59,
      "start": 15.7132,
      "duration": 0.0819,
      "velocity": 111,
      "chip": "ym2612"
    },
    {
      "channel": 4,
      "note": 49,
      "start": 15.7987,
      "duration": 0.0299,
      "velocity": 122,
      "chip": "ym2612"
    },
    {
      "channel": 2,
      "note": 49,
      "start": 15.8015,
      "duration": 0.0273,
      "velocity": 127,
      "chip": "ym2612"
    },
    {
      "channel": 0,
      "note": 49,
      "start": 15.8041,
      "duration": 0.1244,
      "velocity": 111,
      "chip": "ym2612"
    },
    {
      "channel": 4,
      "note": 54,
      "start": 15.935,
      "duration": 0.0314,
      "velocity": 122,
      "chip": "ym2612"
    },
    {
      "channel": 0,
      "note": 54,
      "start": 15.9373,
      "duration": 0.0289,
      "velocity": 111,
      "chip": "ym2612"
    },
    {
      "channel": 4,
      "note": 56,
      "start": 15.969,
      "duration": 0.0314,
      "velocity": 122,
      "chip": "ym2612"
    },
    {
      "channel": 0,
      "note": 56,
      "start": 15.9722,
      "duration": 0.028,
      "velocity": 111,
      "chip": "ym2612"
    },
    {
      "channel": 3,
      "note": 47,
      "start": 16.0074,
      "duration": 0.2005,
      "velocity": 122,
      "chip": "ym2612"
    },
    {
      "channel": 4,
      "note": 49,
      "start": 16.0097,
      "duration": 0.0069,
      "velocity": 122,
      "chip": "ym2612"
    },
    {
      "channel": 2,
      "note": 49,
      "start": 16.012,
      "duration": 0.0047,
      "velocity": 127,
      "chip": "ym2612"
    },
    {
      "channel": 0,
      "note": 52,
      "start": 16.0144,
      "duration": 0.0766,
      "velocity": 111,
      "chip": "ym2612"
    },
    {
      "channel": 4,
      "note": 49,
      "start": 16.0947,
      "duration": 0.0131,
      "velocity": 122,
      "chip": "ym2612"
    },
    {
      "channel": 2,
      "note": 49,
      "start": 16.0975,
      "duration": 0.0105,
      "velocity": 127,
      "chip": "ym2612"
    },
    {
      "channel": 0,
      "note": 49,
      "start": 16.1,
      "duration": 0.1076,
      "velocity": 111,
      "chip": "ym2612"
    },
    {
      "channel": 4,
      "note": 61,
      "start": 16.2146,
      "duration": 0.2032,
      "velocity": 122,
      "chip": "ym2612"
    },
    {
      "channel": 0,
      "note": 49,
      "start": 16.2172,
      "duration": 0.2671,
      "velocity": 111,
      "chip": "ym2612"
    },
    {
      "channel": 1,
      "note": 61,
      "start": 16.22,
      "duration": 0.0309,
      "velocity": 116,
      "chip": "ym2612"
    },
    {
      "channel": 1,
      "note": 73,
      "start": 16.3049,
      "duration": 0.1127,
      "velocity": 116,
      "chip": "ym2612"
    },
    {
      "channel": 4,
      "note": 61,
      "start": 16.4212,
      "duration": 0.0632,
      "velocity": 122,
      "chip": "ym2612"
    },
    {
      "channel": 2,
      "note": 61,
      "start": 16.4242,
      "duration": 0.0604,
      "velocity": 127,
      "chip": "ym2612"
    },
    {
      "channel": 1,
      "note": 68,
      "start": 16.4272,
      "duration": 0.1073,
      "velocity": 116,
      "chip": "ym2612"
    },
    {
      "channel": 4,
      "note": 61,
      "start": 16.5376,
      "duration": 0.0634,
      "velocity": 122,
      "chip": "ym2612"
    },
    {
      "channel": 2,
      "note": 61,
      "start": 16.5405,
      "duration": 0.0607,
      "velocity": 127,
      "chip": "ym2612"
    },
    {
      "channel": 1,
      "note": 61,
      "start": 16.5434,
      "duration": 0.1076,
      "velocity": 116,
      "chip": "ym2612"
    },
    {
      "channel": 4,
      "note": 61,
      "start": 16.6577,
      "duration": 0.0746,
      "velocity": 122,
      "chip": "ym2612"
    },
    {
      "channel": 0,
      "note": 49,
      "start": 16.6603,
      "duration": 0.0717,
      "velocity": 111,
      "chip": "ym2612"
    },
    {
      "channel": 1,
      "note": 64,
      "start": 16.6629,
      "duration": 0.0312,
      "velocity": 116,
      "chip": "ym2612"
    },
    {
      "channel": 1,
      "note": 63,
      "start": 16.6972,
      "duration": 0.0349,
      "velocity": 116,
      "chip": "ym2612"
    },
    {
      "channel": 4,
      "note": 61,
      "start": 16.7357,
      "duration": 0.0464,
      "velocity": 122,
      "chip": "ym2612"
    },
    {
      "channel": 2,
      "note": 61,
      "start": 16.7386,
      "duration": 0.0437,
      "velocity": 127,
      "chip": "ym2612"
    },
    {
      "channel": 1,
      "note": 61,
      "start": 16.7416,
      "duration": 0.1071,
      "velocity": 116,
      "chip": "ym2612"
    },
    {
      "channel": 4,
      "note": 61,
      "start": 16.8553,
      "duration": 0.0141,
      "velocity": 122,
      "chip": "ym2612"
    },
    {
      "channel": 2,
      "note": 61,
      "start": 16.8576,
      "duration": 0.0119,
      "velocity": 127,
      "chip": "ym2612"
    },
    {
      "channel": 1,
      "note": 74,
      "start": 16.8602,
      "duration": 0.0179,
      "velocity": 116,
      "chip": "ym2612"
    },
    {
      "channel": 3,
      "note": 49,
      "start": 16.8952,
      "duration": 0.0852,
      "velocity": 116,
      "chip": "ym2612"
    },
    {
      "channel": 4,
      "note": 61,
      "start": 16.8974,
      "duration": 0.0174,
      "velocity": 122,
      "chip": "ym2612"
    },
    {
      "channel": 2,
      "note": 61,
      "start": 16.9,
      "duration": 0.0149,
      "velocity": 127,
      "chip": "ym2612"
    },
    {
      "channel": 1,
      "note": 62,
      "start": 16.9029,
      "duration": 0.0773,
      "velocity": 116,
      "chip": "ym2612"
    },
    {
      "channel": 3,
      "note": 49,
      "start": 16.9869,
      "duration": 0.0868,
      "velocity": 116,
      "chip": "ym2612"
    },
    {
      "channel": 4,
      "note": 61,
      "start": 16.9893,
      "duration": 0.0345,
      "velocity": 122,
      "chip": "ym2612"
    },
    {
      "channel": 2,
      "note": 61,
      "start": 16.9919,
      "duration": 0.0321,
      "velocity": 127,
      "chip": "ym2612"
    },
    {
      "channel": 1,
      "note": 71,
      "start": 16.996,
      "duration": 0.0444,
      "velocity": 116,
      "chip": "ym2612"
    },
    {
      "channel": 3,
      "note": 49,
      "start": 17.0809,
      "duration": 0.2027,
      "velocity": 116,
      "chip": "ym2612"
    },
    {
      "channel": 4,
      "note": 61,
      "start": 17.0831,
      "duration": 0.084,
      "velocity": 122,
      "chip": "ym2612"
    },
    {
      "channel": 1,
      "note": 62,
      "start": 17.0856,
      "duration": 0.0813,
      "velocity": 116,
      "chip": "ym2612"
    },
    {
      "channel": 4,
      "note": 61,
      "start": 17.1704,
      "duration": 0.0634,
      "velocity": 122,
      "chip": "ym2612"
    },
    {
      "channel": 2,
      "note": 61,
      "start": 17.1732,
      "duration": 0.0607,
      "velocity": 127,
      "chip": "ym2612"
    },
    {
      "channel": 1,
      "note": 73,
      "start": 17.1763,
      "duration": 0.074,
      "velocity": 116,
      "chip": "ym2612"
    },
    {
      "channel": 4,
      "note": 61,
      "start": 17.29,
      "duration": 0.0758,
      "velocity": 122,
      "chip": "ym2612"
    },
    {
      "channel": 1,
      "note": 61,
      "start": 17.2929,
      "duration": 0.0286,
      "velocity": 116,
      "chip": "ym2612"
    },
    {
      "channel": 1,
      "note": 68,
      "start": 17.3253,
      "duration": 0.0403,
      "velocity": 116,
      "chip": "ym2612"
    },
    {
      "channel": 4,
      "note": 59,
      "start": 17.3718,
      "duration": 0.2046,
      "velocity": 122,
      "chip": "ym2612"
    },
    {
      "channel": 2,
      "note": 61,
      "start": 17.3742,
      "duration": 0.0188,
      "velocity": 127,
      "chip": "ym2612"
    },
    {
      "channel": 0,
      "note": 47,
      "start": 17.3769,
      "duration": 0.1992,
      "velocity": 111,
      "chip": "ym2612"
    },
    {
      "channel": 1,
      "note": 64,
      "start": 17.3794,
      "duration": 0.0801,
      "velocity": 116,
      "chip": "ym2612"
    },
    {
      "channel": 2,
      "note": 61,
      "start": 17.4631,
      "duration": 0.0464,
      "velocity": 127,
      "chip": "ym2612"
    },
    {
      "channel": 1,
      "note": 63,
      "start": 17.4661,
      "duration": 0.1101,
      "velocity": 116,
      "chip": "ym2612"
    },
    {
      "channel": 4,
      "note": 61,
      "start": 17.5829,
      "duration": 0.2037,
      "velocity": 122,
      "chip": "ym2612"
    },
    {
      "channel": 0,
      "note": 49,
      "start": 17.5855,
      "duration": 0.2675,
      "velocity": 111,
      "chip": "ym2612"
    },
    {
      "channel": 1,
      "note": 61,
      "start": 17.5879,
      "duration": 0.0151,
      "velocity": 116,
      "chip": "ym2612"
    },
    {
      "channel": 1,
      "note": 73,
      "start": 17.6738,
      "duration": 0.1127,
      "velocity": 116,
      "chip": "ym2612"
    },
    {
      "channel": 4,
      "note": 61,
      "start": 17.7901,
      "duration": 0.0631,
      "velocity": 122,
      "chip": "ym2612"
    },
    {
      "channel": 2,
      "note": 61,
      "start": 17.7929,
      "duration": 0.0605,
      "velocity": 127,
      "chip": "ym2612"
    },
    {
      "channel": 1,
      "note": 68,
      "start": 17.7959,
      "duration": 0.1071,
      "velocity": 116,
      "chip": "ym2612"
    },
    {
      "channel": 4,
      "note": 61,
      "start": 17.9063,
      "duration": 0.0636,
      "velocity": 122,
      "chip": "ym2612"
    },
    {
      "channel": 2,
      "note": 61,
      "start": 17.909,
      "duration": 0.0609,
      "velocity": 127,
      "chip": "ym2612"
    },
    {
      "channel": 1,
      "note": 61,
      "start": 17.912,
      "duration": 0.1078,
      "velocity": 116,
      "chip": "ym2612"
    },
    {
      "channel": 4,
      "note": 61,
      "start": 18.0264,
      "duration": 0.0651,
      "velocity": 122,
      "chip": "ym2612"
    },
    {
      "channel": 0,
      "note": 49,
      "start": 18.0291,
      "duration": 0.0622,
      "velocity": 111,
      "chip": "ym2612"
    },
    {
      "channel": 1,
      "note": 64,
      "start": 18.0319,
      "duration": 0.0265,
      "velocity": 116,
      "chip": "ym2612"
    },
    {
      "channel": 1,
      "note": 63,
      "start": 18.0622,
      "duration": 0.0292,
      "velocity": 116,
      "chip": "ym2612"
    },
    {
      "channel": 4,
      "note": 61,
      "start": 18.0941,
      "duration": 0.0548,
      "velocity": 122,
      "chip": "ym2612"
    },
    {
      "channel": 2,
      "note": 61,
      "start": 18.0966,
      "duration": 0.0525,
      "velocity": 127,
      "chip": "ym2612"
    },
    {
      "channel": 1,
      "note": 61,
      "start": 18.1017,
      "duration": 0.1139,
      "velocity": 116,
      "chip": "ym2612"
    },
    {
      "channel": 4,
      "note": 61,
      "start": 18.222,
      "duration": 0.014,
      "velocity": 122,
      "chip": "ym2612"
    },
    {
      "channel": 2,
      "note": 61,
      "start": 18.2243,
      "duration": 0.0118,
      "velocity": 127,
      "chip": "ym2612"
    },
    {
      "channel": 1,
      "note": 74,
      "start": 18.2268,
      "duration": 0.0136,
      "velocity": 116,
      "chip": "ym2612"
    },
    {
      "channel": 3,
      "note": 49,
      "start": 18.2618,
      "duration": 0.0842,
      "velocity": 116,
      "chip": "ym2612"
    },
    {
      "channel": 4,
      "note": 61,
      "start": 18.2641,
      "duration": 0.0164,
      "velocity": 122,
      "chip": "ym2612"
    },
    {
      "channel": 2,
      "note": 61,
      "start": 18.2668,
      "duration": 0.0139,
      "velocity": 127,
      "chip": "ym2612"
    },
    {
      "channel": 1,
      "note": 62,
      "start": 18.2694,
      "duration": 0.0764,
      "velocity": 116,
      "chip": "ym2612"
    },
    {
      "channel": 3,
      "note": 49,
      "start": 18.3523,
      "duration": 0.0877,
      "velocity": 116,
      "chip": "ym2612"
    },
    {
      "channel": 4,
      "note": 61,
      "start": 18.3545,
      "duration": 0.0189,
      "velocity": 122,
      "chip": "ym2612"
    },
    {
      "channel": 2,
      "note": 61,
      "start": 18.357,
      "duration": 0.0166,
      "velocity": 127,
      "chip": "ym2612"
    },
    {
      "channel": 1,
      "note": 71,
      "start": 18.3599,
      "duration": 0.0467,
      "velocity": 116,
      "chip": "ym2612"
    },
    {
      "channel": 3,
      "note": 49,
      "start": 18.4471,
      "duration": 0.2028,
      "velocity": 116,
      "chip": "ym2612"
    },
    {
      "channel": 4,
      "note": 61,
      "start": 18.4493,
      "duration": 0.084,
      "velocity": 122,
      "chip": "ym2612"
    },
    {
      "channel": 1,
      "note": 62,
      "start": 18.4518,
      "duration": 0.0813,
      "velocity": 116,
      "chip": "ym2612"
    },
    {
      "channel": 4,
      "note": 61,
      "start": 18.5366,
      "duration": 0.0634,
      "velocity": 122,
      "chip": "ym2612"
    },
    {
      "channel": 2,
      "note": 61,
      "start": 18.5394,
      "duration": 0.0607,
      "velocity": 127,
      "chip": "ym2612"
    },
    {
      "channel": 1,
      "note": 73,
      "start": 18.5426,
      "duration": 0.0739,
      "velocity": 116,
      "chip": "ym2612"
    },
    {
      "channel": 4,
      "note": 61,
      "start": 18.6563,
      "duration": 0.0657,
      "velocity": 122,
      "chip": "ym2612"
    },
    {
      "channel": 1,
      "note": 61,
      "start": 18.6592,
      "duration": 0.0283,
      "velocity": 116,
      "chip": "ym2612"
    },
    {
      "channel": 1,
      "note": 68,
      "start": 18.6912,
      "duration": 0.0305,
      "velocity": 116,
      "chip": "ym2612"
    },
    {
      "channel": 4,
      "note": 59,
      "start": 18.7289,
      "duration": 0.2177,
      "velocity": 122,
      "chip": "ym2612"
    },
    {
      "channel": 2,
      "note": 61,
      "start": 18.7313,
      "duration": 0.032,
      "velocity": 127,
      "chip": "ym2612"
    },
    {
      "channel": 0,
      "note": 47,
      "start": 18.7339,
      "duration": 0.2124,
      "velocity": 111,
      "chip": "ym2612"
    },
    {
      "channel": 1,
      "note": 64,
      "start": 18.7366,
      "duration": 0.0765,
      "velocity": 116,
      "chip": "ym2612"
    },
    {
      "channel": 2,
      "note": 61,
      "start": 18.8167,
      "duration": 0.0632,
      "velocity": 127,
      "chip": "ym2612"
    },
    {
      "channel": 1,
      "note": 63,
      "start": 18.82,
      "duration": 0.1265,
      "velocity": 116,
      "chip": "ym2612"
    },
    {
      "channel": 4,
      "note": 61,
      "start": 18.953,
      "duration": 0.2036,
      "velocity": 122,
      "chip": "ym2612"
    },
    {
      "channel": 0,
      "note": 49,
      "start": 18.9556,
      "duration": 0.2509,
      "velocity": 111,
      "chip": "ym2612"
    },
    {
      "channel": 3,
      "note": 61,
      "start": 18.9584,
      "duration": 0.0147,
      "velocity": 127,
      "chip": "ym2612"
    },
    {
      "channel": 3,
      "note": 73,
      "start": 19.0434,
      "duration": 0.113,
      "velocity": 127,
      "chip": "ym2612"
    },
    {
      "channel": 4,
      "note": 61,
      "start": 19.1605,
      "duration": 0.0462,
      "velocity": 122,
      "chip": "ym2612"
    },
    {
      "channel": 2,
      "note": 61,
      "start": 19.1632,
      "duration": 0.0436,
      "velocity": 127,
      "chip": "ym2612"
    },
    {
      "channel": 3,
      "note": 68,
      "start": 19.166,
      "duration": 0.1071,
      "velocity": 127,
      "chip": "ym2612"
    },
    {
      "channel": 4,
      "note": 61,
      "start": 19.2763,
      "duration": 0.0468,
      "velocity": 122,
      "chip": "ym2612"
    },
    {
      "channel": 2,
      "note": 61,
      "start": 19.2792,
      "duration": 0.0441,
      "velocity": 127,
      "chip": "ym2612"
    },
    {
      "channel": 3,
      "note": 61,
      "start": 19.282,
      "duration": 0.1078,
      "velocity": 127,
      "chip": "ym2612"
    },
    {
      "channel": 4,
      "note": 61,
      "start": 19.3964,
      "duration": 0.0654,
      "velocity": 122,
      "chip": "ym2612"
    },
    {
      "channel": 0,
      "note": 49,
      "start": 19.399,
      "duration": 0.0625,
      "velocity": 111,
      "chip": "ym2612"
    },
    {
      "channel": 3,
      "note": 64,
      "start": 19.4014,
      "duration": 0.0269,
      "velocity": 127,
      "chip": "ym2612"
    },
    {
      "channel": 3,
      "note": 63,
      "start": 19.4312,
      "duration": 0.0304,
      "velocity": 127,
      "chip": "ym2612"
    },
    {
      "channel": 4,
      "note": 61,
      "start": 19.4644,
      "duration": 0.0546,
      "velocity": 122,
      "chip": "ym2612"
    },
    {
      "channel": 2,
      "note": 61,
      "start": 19.4669,
      "duration": 0.0523,
      "velocity": 127,
      "chip": "ym2612"
    },
    {
      "channel": 3,
      "note": 61,
      "start": 19.4715,
      "duration": 0.0975,
      "velocity": 127,
      "chip": "ym2612"
    },
    {
      "channel": 4,
      "note": 61,
      "start": 19.5756,
      "duration": 0.0184,
      "velocity": 122,
      "chip": "ym2612"
    },
    {
      "channel": 2,
      "note": 61,
      "start": 19.5779,
      "duration": 0.0162,
      "velocity": 127,
      "chip": "ym2612"
    },
    {
      "channel": 3,
      "note": 74,
      "start": 19.5804,
      "duration": 0.0182,
      "velocity": 127,
      "chip": "ym2612"
    },
    {
      "channel": 1,
      "note": 49,
      "start": 19.6157,
      "duration": 0.1005,
      "velocity": 116,
      "chip": "ym2612"
    },
    {
      "channel": 4,
      "note": 61,
      "start": 19.6178,
      "duration": 0.0318,
      "velocity": 122,
      "chip": "ym2612"
    },
    {
      "channel": 2,
      "note": 61,
      "start": 19.6204,
      "duration": 0.0293,
      "velocity": 127,
      "chip": "ym2612"
    },
    {
      "channel": 3,
      "note": 62,
      "start": 19.623,
      "duration": 0.0933,
      "velocity": 127,
      "chip": "ym2612"
    },
    {
      "channel": 1,
      "note": 49,
      "start": 19.7229,
      "duration": 0.0868,
      "velocity": 116,
      "chip": "ym2612"
    },
    {
      "channel": 4,
      "note": 61,
      "start": 19.7251,
      "duration": 0.0179,
      "velocity": 122,
      "chip": "ym2612"
    },
    {
      "channel": 2,
      "note": 61,
      "start": 19.7276,
      "duration": 0.0156,
      "velocity": 127,
      "chip": "ym2612"
    },
    {
      "channel": 3,
      "note": 71,
      "start": 19.7306,
      "duration": 0.0291,
      "velocity": 127,
      "chip": "ym2612"
    },
    {
      "channel": 1,
      "note": 49,
      "start": 19.817,
      "duration": 0.2029,
      "velocity": 116,
      "chip": "ym2612"
    },
    {
      "channel": 4,
      "note": 61,
      "start": 19.8193,
      "duration": 0.0841,
      "velocity": 122,
      "chip": "ym2612"
    },
    {
      "channel": 3,
      "note": 62,
      "start": 19.8219,
      "duration": 0.0814,
      "velocity": 127,
      "chip": "ym2612"
    },
    {
      "channel": 0,
      "note": 50,
      "start": 19.826,
      "duration": 0.2652,
      "velocity": 101,
      "chip": "ym2612"
    },
    {
      "channel": 4,
      "note": 61,
      "start": 19.9071,
      "duration": 0.0462,
      "velocity": 122,
      "chip": "ym2612"
    },
    {
      "channel": 2,
      "note": 61,
      "start": 19.9099,
      "duration": 0.0437,
      "velocity": 127,
      "chip": "ym2612"
    },
    {
      "channel": 3,
      "note": 73,
      "start": 19.9128,
      "duration": 0.0738,
      "velocity": 127,
      "chip": "ym2612"
    },
    {
      "channel": 4,
      "note": 61,
      "start": 20.0264,
      "duration": 0.0653,
      "velocity": 122,
      "chip": "ym2612"
    },
    {
      "channel": 3,
      "note": 61,
      "start": 20.029,
      "duration": 0.0283,
      "velocity": 127,
      "chip": "ym2612"
    },
    {
      "channel": 3,
      "note": 68,
      "start": 20.061,
      "duration": 0.0305,
      "velocity": 127,
      "chip": "ym2612"
    },
    {
      "channel": 4,
      "note": 59,
      "start": 20.0985,
      "duration": 0.201,
      "velocity": 122,
      "chip": "ym2612"
    },
    {
      "channel": 2,
      "note": 61,
      "start": 20.101,
      "duration": 0.0319,
      "velocity": 127,
      "chip": "ym2612"
    },
    {
      "channel": 1,
      "note": 47,
      "start": 20.1041,
      "duration": 0.1951,
      "velocity": 111,
      "chip": "ym2612"
    },
    {
      "channel": 3,
      "note": 64,
      "start": 20.1065,
      "duration": 0.0762,
      "velocity": 127,
      "chip": "ym2612"
    },
    {
      "channel": 2,
      "note": 61,
      "start": 20.1863,
      "duration": 0.0632,
      "velocity": 127,
      "chip": "ym2612"
    },
    {
      "channel": 3,
      "note": 63,
      "start": 20.189,
      "duration": 0.1103,
      "velocity": 127,
      "chip": "ym2612"
    },
    {
      "channel": 4,
      "note": 61,
      "start": 20.3058,
      "duration": 0.2203,
      "velocity": 122,
      "chip": "ym2612"
    },
    {
      "channel": 1,
      "note": 49,
      "start": 20.3085,
      "duration": 0.2674,
      "velocity": 111,
      "chip": "ym2612"
    },
    {
      "channel": 3,
      "note": 61,
      "start": 20.311,
      "duration": 0.0316,
      "velocity": 127,
      "chip": "ym2612"
    },
    {
      "channel": 3,
      "note": 73,
      "start": 20.3964,
      "duration": 0.1295,
      "velocity": 127,
      "chip": "ym2612"
    },
    {
      "channel": 4,
      "note": 61,
      "start": 20.5295,
      "duration": 0.0466,
      "velocity": 122,
      "chip": "ym2612"
    },
    {
      "channel": 2,
      "note": 61,
      "start": 20.5324,
      "duration": 0.044,
      "velocity": 127,
      "chip": "ym2612"
    },
    {
      "channel": 3,
      "note": 68,
      "start": 20.5351,
      "duration": 0.1076,
      "velocity": 127,
      "chip": "ym2612"
    },
    {
      "channel": 4,
      "note": 61,
      "start": 20.6459,
      "duration": 0.0468,
      "velocity": 122,
      "chip": "ym2612"
    },
    {
      "channel": 2,
      "note": 61,
      "start": 20.6487,
      "duration": 0.0441,
      "velocity": 127,
      "chip": "ym2612"
    },
    {
      "channel": 3,
      "note": 61,
      "start": 20.6515,
      "duration": 0.1078,
      "velocity": 127,
      "chip": "ym2612"
    },
    {
      "channel": 4,
      "note": 61,
      "start": 20.7658,
      "duration": 0.0657,
      "velocity": 122,
      "chip": "ym2612"
    },
    {
      "channel": 1,
      "note": 49,
      "start": 20.7685,
      "duration": 0.0629,
      "velocity": 111,
      "chip": "ym2612"
    },
    {
      "channel": 3,
      "note": 64,
      "start": 20.7712,
      "duration": 0.027,
      "velocity": 127,
      "chip": "ym2612"
    },
    {
      "channel": 3,
      "note": 63,
      "start": 20.801,
      "duration": 0.0304,
      "velocity": 127,
      "chip": "ym2612"
    },
    {
      "channel": 4,
      "note": 61,
      "start": 20.8342,
      "duration": 0.0545,
      "velocity": 122,
      "chip": "ym2612"
    },
    {
      "channel": 2,
      "note": 61,
      "start": 20.8366,
      "duration": 0.0522,
      "velocity": 127,
      "chip": "ym2612"
    },
    {
      "channel": 3,
      "note": 61,
      "start": 20.8411,
      "duration": 0.0977,
      "velocity": 127,
      "chip": "ym2612"
    },
    {
      "channel": 4,
      "note": 61,
      "start": 20.9454,
      "duration": 0.0185,
      "velocity": 122,
      "chip": "ym2612"
    },
    {
      "channel": 2,
      "note": 61,
      "start": 20.9479,
      "duration": 0.0161,
      "velocity": 127,
      "chip": "ym2612"
    },
    {
      "channel": 3,
      "note": 74,
      "start": 20.9503,
      "duration": 0.018,
      "velocity": 127,
      "chip": "ym2612"
    },
    {
      "channel": 0,
      "note": 49,
      "start": 20.9856,
      "duration": 0.0839,
      "velocity": 116,
      "chip": "ym2612"
    },
    {
      "channel": 4,
      "note": 61,
      "start": 20.9878,
      "duration": 0.0318,
      "velocity": 122,
      "chip": "ym2612"
    },
    {
      "channel": 2,
      "note": 61,
      "start": 20.9904,
      "duration": 0.0294,
      "velocity": 127,
      "chip": "ym2612"
    },
    {
      "channel": 3,
      "note": 62,
      "start": 20.9929,
      "duration": 0.0767,
      "velocity": 127,
      "chip": "ym2612"
    },
    {
      "channel": 0,
      "note": 49,
      "start": 21.0757,
      "duration": 0.0868,
      "velocity": 116,
      "chip": "ym2612"
    },
    {
      "channel": 4,
      "note": 61,
      "start": 21.0778,
      "duration": 0.0348,
      "velocity": 122,
      "chip": "ym2612"
    },
    {
      "channel": 2,
      "note": 61,
      "start": 21.0803,
      "duration": 0.0325,
      "velocity": 127,
      "chip": "ym2612"
    },
    {
      "channel": 3,
      "note": 71,
      "start": 21.0829,
      "duration": 0.0463,
      "velocity": 127,
      "chip": "ym2612"
    },
    {
      "channel": 0,
      "note": 61,
      "start": 21.1691,
      "duration": 0.0203,
      "velocity": 116,
      "chip": "ym2612"
    },
    {
      "channel": 4,
      "note": 61,
      "start": 21.1714,
      "duration": 0.1017,
      "velocity": 122,
      "chip": "ym2612"
    },
    {
      "channel": 3,
      "note": 62,
      "start": 21.1739,
      "duration": 0.099,
      "velocity": 127,
      "chip": "ym2612"
    },
    {
      "channel": 1,
      "note": 50,
      "start": 21.1767,
      "duration": 0.2893,
      "velocity": 101,
      "chip": "ym2612"
    },
    {
      "channel": 0,
      "note": 61,
      "start": 21.2761,
      "duration": 0.03,
      "velocity": 116,
      "chip": "ym2612"
    },
    {
      "channel": 4,
      "note": 61,
      "start": 21.2788,
      "duration": 0.0442,
      "velocity": 122,
      "chip": "ym2612"
    },
    {
      "channel": 2,
      "note": 61,
      "start": 21.2817,
      "duration": 0.0415,
      "velocity": 127,
      "chip": "ym2612"
    },
    {
      "channel": 3,
      "note": 73,
      "start": 21.2845,
      "duration": 0.0551,
      "velocity": 127,
      "chip": "ym2612"
    },
    {
      "channel": 0,
      "note": 61,
      "start": 21.3963,
      "duration": 0.0094,
      "velocity": 116,
      "chip": "ym2612"
    },
    {
      "channel": 4,
      "note": 61,
      "start": 21.3988,
      "duration": 0.0673,
      "velocity": 122,
      "chip": "ym2612"
    },
    {
      "channel": 3,
      "note": 61,
      "start": 21.4012,
      "duration": 0.0274,
      "velocity": 127,
      "chip": "ym2612"
    },
    {
      "channel": 0,
      "note": 61,
      "start": 21.4356,
      "duration": 0.0078,
      "velocity": 116,
      "chip": "ym2612"
    },
    {
      "channel": 3,
      "note": 68,
      "start": 21.4382,
      "duration": 0.0278,
      "velocity": 127,
      "chip": "ym2612"
    },
    {
      "channel": 0,
      "note": 61,
      "start": 21.4721,
      "duration": 0.0141,
      "velocity": 116,
      "chip": "ym2612"
    },
    {
      "channel": 4,
      "note": 59,
      "start": 21.4743,
      "duration": 0.0709,
      "velocity": 122,
      "chip": "ym2612"
    },
    {
      "channel": 2,
      "note": 61,
      "start": 21.4767,
      "duration": 0.0127,
      "velocity": 127,
      "chip": "ym2612"
    },
    {
      "channel": 1,
      "note": 62,
      "start": 21.4796,
      "duration": 0.0266,
      "velocity": 111,
      "chip": "ym2612"
    },
    {
      "channel": 3,
      "note": 62,
      "start": 21.4831,
      "duration": 0.0231,
      "velocity": 127,
      "chip": "ym2612"
    },
    {
      "channel": 0,
      "note": 61,
      "start": 21.5123,
      "duration": 0.0115,
      "velocity": 116,
      "chip": "ym2612"
    },
    {
      "channel": 2,
      "note": 61,
      "start": 21.5149,
      "duration": 0.0166,
      "velocity": 127,
      "chip": "ym2612"
    },
    {
      "channel": 1,
      "note": 61,
      "start": 21.5172,
      "duration": 0.0279,
      "velocity": 111,
      "chip": "ym2612"
    },
    {
      "channel": 3,
      "note": 61,
      "start": 21.5198,
      "duration": 0.0253,
      "velocity": 127,
      "chip": "ym2612"
    },
    {
      "channel": 0,
      "note": 57,
      "start": 21.553,
      "duration": 0.0833,
      "velocity": 122,
      "chip": "ym2612"
    },
    {
      "channel": 2,
      "note": 59,
      "start": 21.5558,
      "duration": 0.0116,
      "velocity": 116,
      "chip": "ym2612"
    },
    {
      "channel": 4,
      "note": 57,
      "start": 21.5582,
      "duration": 0.0784,
      "velocity": 122,
      "chip": "ym2612"
    },
    {
      "channel": 1,
      "note": 59,
      "start": 21.5621,
      "duration": 1.021,
      "velocity": 111,
      "chip": "ym2612"
    },
    {
      "channel": 0,
      "note": 59,
      "start": 21.6395,
      "duration": 0.0802,
      "velocity": 122,
      "chip": "ym2612"
    },
    {
      "channel": 2,
      "note": 59,
      "start": 21.6423,
      "duration": 0.0443,
      "velocity": 116,
      "chip": "ym2612"
    },
    {
      "channel": 3,
      "note": 59,
      "start": 21.6455,
      "duration": 0.125,
      "velocity": 127,
      "chip": "ym2612"
    },
    {
      "channel": 0,
      "note": 59,
      "start": 21.7595,
      "duration": 0.0371,
      "velocity": 122,
      "chip": "ym2612"
    },
    {
      "channel": 2,
      "note": 62,
      "start": 21.762,
      "duration": 0.0182,
      "velocity": 116,
      "chip": "ym2612"
    },
    {
      "channel": 0,
      "note": 59,
      "start": 21.8526,
      "duration": 0.0211,
      "velocity": 122,
      "chip": "ym2612"
    },
    {
      "channel": 2,
      "note": 62,
      "start": 21.8552,
      "duration": 0.0188,
      "velocity": 116,
      "chip": "ym2612"
    },
    {
      "channel": 4,
      "note": 59,
      "start": 21.858,
      "duration": 0.1168,
      "velocity": 122,
      "chip": "ym2612"
    },
    {
      "channel": 0,
      "note": 59,
      "start": 21.9636,
      "duration": 0.0793,
      "velocity": 122,
      "chip": "ym2612"
    },
    {
      "channel": 2,
      "note": 59,
      "start": 21.9661,
      "duration": 0.0089,
      "velocity": 116,
      "chip": "ym2612"
    },
    {
      "channel": 2,
      "note": 59,
      "start": 22.0083,
      "duration": 0.0102,
      "velocity": 116,
      "chip": "ym2612"
    },
    {
      "channel": 0,
      "note": 57,
      "start": 22.0568,
      "duration": 0.0821,
      "velocity": 122,
      "chip": "ym2612"
    },
    {
      "channel": 2,
      "note": 66,
      "start": 22.0593,
      "duration": 0.0069,
      "velocity": 116,
      "chip": "ym2612"
    },
    {
      "channel": 0,
      "note": 59,
      "start": 22.1456,
      "duration": 0.104,
      "velocity": 122,
      "chip": "ym2612"
    },
    {
      "channel": 2,
      "note": 66,
      "start": 22.1482,
      "duration": 0.0089,
      "velocity": 116,
      "chip": "ym2612"
    },
    {
      "channel": 2,
      "note": 59,
      "start": 22.2364,
      "duration": 0.1134,
      "velocity": 116,
      "chip": "ym2612"
    },
    {
      "channel": 0,
      "note": 59,
      "start": 22.3559,
      "duration": 0.0357,
      "velocity": 122,
      "chip": "ym2612"
    },
    {
      "channel": 2,
      "note": 62,
      "start": 22.3585,
      "duration": 0.0082,
      "velocity": 116,
      "chip": "ym2612"
    },
    {
      "channel": 0,
      "note": 57,
      "start": 22.4044,
      "duration": 0.1785,
      "velocity": 122,
      "chip": "ym2612"
    },
    {
      "channel": 2,
      "note": 62,
      "start": 22.407,
      "duration": 0.0156,
      "velocity": 116,
      "chip": "ym2612"
    },
    {
      "channel": 2,
      "note": 59,
      "start": 22.4953,
      "duration": 0.0212,
      "velocity": 116,
      "chip": "ym2612"
    },
    {
      "channel": 0,
      "note": 62,
      "start": 22.5895,
      "duration": 0.0924,
      "velocity": 122,
      "chip": "ym2612"
    },
    {
      "channel": 2,
      "note": 66,
      "start": 22.5919,
      "duration": 0.0156,
      "velocity": 116,
      "chip": "ym2612"
    },
    {
      "channel": 1,
      "note": 50,
      "start": 22.595,
      "duration": 0.2257,
      "velocity": 111,
      "chip": "ym2612"
    },
    {
      "channel": 2,
      "note": 66,
      "start": 22.641,
      "duration": 0.0117,
      "velocity": 116,
      "chip": "ym2612"
    },
    {
      "channel": 0,
      "note": 57,
      "start": 22.6881,
      "duration": 0.0968,
      "velocity": 122,
      "chip": "ym2612"
    },
    {
      "channel": 2,
      "note": 64,
      "start": 22.6909,
      "duration": 0.0087,
      "velocity": 116,
      "chip": "ym2612"
    },
    {
      "channel": 4,
      "note": 57,
      "start": 22.6935,
      "duration": 0.0807,
      "velocity": 122,
      "chip": "ym2612"
    },
    {
      "channel": 2,
      "note": 64,
      "start": 22.7806,
      "duration": 0.0097,
      "velocity": 116,
      "chip": "ym2612"
    },
    {
      "channel": 0,
      "note": 57,
      "start": 22.8272,
      "duration": 0.084,
      "velocity": 122,
      "chip": "ym2612"
    },
    {
      "channel": 2,
      "note": 59,
      "start": 22.8296,
      "duration": 0.0105,
      "velocity": 116,
      "chip": "ym2612"
    },
    {
      "channel": 4,
      "note": 57,
      "start": 22.832,
      "duration": 0.0795,
      "velocity": 122,
      "chip": "ym2612"
    },
    {
      "channel": 1,
      "note": 57,
      "start": 22.8349,
      "duration": 1.0157,
      "velocity": 111,
      "chip": "ym2612"
    },
    {
      "channel": 0,
      "note": 59,
      "start": 22.9144,
      "duration": 0.0635,
      "velocity": 122,
      "chip": "ym2612"
    },
    {
      "channel": 2,
      "note": 59,
      "start": 22.9172,
      "duration": 0.0277,
      "velocity": 116,
      "chip": "ym2612"
    },
    {
      "channel": 3,
      "note": 59,
      "start": 22.9199,
      "duration": 0.1252,
      "velocity": 127,
      "chip": "ym2612"
    },
    {
      "channel": 0,
      "note": 59,
      "start": 23.0342,
      "duration": 0.0377,
      "velocity": 122,
      "chip": "ym2612"
    },
    {
      "channel": 2,
      "note": 62,
      "start": 23.0368,
      "duration": 0.0084,
      "velocity": 116,
      "chip": "ym2612"
    },
    {
      "channel": 0,
      "note": 59,
      "start": 23.1281,
      "duration": 0.0205,
      "velocity": 122,
      "chip": "ym2612"
    },
    {
      "channel": 2,
      "note": 62,
      "start": 23.1304,
      "duration": 0.0185,
      "velocity": 116,
      "chip": "ym2612"
    },
    {
      "channel": 4,
      "note": 59,
      "start": 23.1329,
      "duration": 0.0998,
      "velocity": 122,
      "chip": "ym2612"
    },
    {
      "channel": 0,
      "note": 59,
      "start": 23.2217,
      "duration": 0.0939,
      "velocity": 122,
      "chip": "ym2612"
    },
    {
      "channel": 2,
      "note": 59,
      "start": 23.2242,
      "duration": 0.0153,
      "velocity": 116,
      "chip": "ym2612"
    },
    {
      "channel": 2,
      "note": 59,
      "start": 23.2674,
      "duration": 0.0171,
      "velocity": 116,
      "chip": "ym2612"
    },
    {
      "channel": 0,
      "note": 57,
      "start": 23.3222,
      "duration": 0.05,
      "velocity": 122,
      "chip": "ym2612"
    },
    {
      "channel": 2,
      "note": 64,
      "start": 23.3247,
      "duration": 0.007,
      "velocity": 116,
      "chip": "ym2612"
    },
    {
      "channel": 0,
      "note": 59,
      "start": 23.4118,
      "duration": 0.1044,
      "velocity": 122,
      "chip": "ym2612"
    },
    {
      "channel": 2,
      "note": 64,
      "start": 23.4143,
      "duration": 0.0087,
      "velocity": 116,
      "chip": "ym2612"
    },
    {
      "channel": 2,
      "note": 59,
      "start": 23.5029,
      "duration": 0.1134,
      "velocity": 116,
      "chip": "ym2612"
    },
    {
      "channel": 0,
      "note": 59,
      "start": 23.623,
      "duration": 0.0295,
      "velocity": 122,
      "chip": "ym2612"
    },
    {
      "channel": 2,
      "note": 62,
      "start": 23.6256,
      "duration": 0.0086,
      "velocity": 116,
      "chip": "ym2612"
    },
    {
      "channel": 0,
      "note": 57,
      "start": 23.6718,
      "duration": 0.1787,
      "velocity": 122,
      "chip": "ym2612"
    },
    {
      "channel": 2,
      "note": 62,
      "start": 23.6742,
      "duration": 0.0083,
      "velocity": 116,
      "chip": "ym2612"
    },
    {
      "channel": 2,
      "note": 59,
      "start": 23.7628,
      "duration": 0.0101,
      "velocity": 116,
      "chip": "ym2612"
    },
    {
      "channel": 0,
      "note": 62,
      "start": 23.857,
      "duration": 0.0872,
      "velocity": 122,
      "chip": "ym2612"
    },
    {
      "channel": 2,
      "note": 64,
      "start": 23.8598,
      "duration": 0.0151,
      "velocity": 116,
      "chip": "ym2612"
    },
    {
      "channel": 1,
      "note": 50,
      "start": 23.8625,
      "duration": 0.2372,
      "velocity": 111,
      "chip": "ym2612"
    },
    {
      "channel": 2,
      "note": 64,
      "start": 23.9039,
      "duration": 0.0166,
      "velocity": 116,
      "chip": "ym2612"
    },
    {
      "channel": 0,
      "note": 57,
      "start": 23.951,
      "duration": 0.1176,
      "velocity": 122,
      "chip": "ym2612"
    },
    {
      "channel": 2,
      "note": 62,
      "start": 23.9535,
      "duration": 0.0158,
      "velocity": 116,
      "chip": "ym2612"
    },
    {
      "channel": 4,
      "note": 57,
      "start": 23.9557,
      "duration": 0.0636,
      "velocity": 122,
      "chip": "ym2612"
    },
    {
      "channel": 2,
      "note": 62,
      "start": 24.0588,
      "duration": 0.0099,
      "velocity": 116,
      "chip": "ym2612"
    },
    {
      "channel": 0,
      "note": 57,
      "start": 24.1072,
      "duration": 0.0852,
      "velocity": 122,
      "chip": "ym2612"
    },
    {
      "channel": 2,
      "note": 59,
      "start": 24.1097,
      "duration": 0.0121,
      "velocity": 116,
      "chip": "ym2612"
    },
    {
      "channel": 4,
      "note": 57,
      "start": 24.1125,
      "duration": 0.0801,
      "velocity": 122,
      "chip": "ym2612"
    },
    {
      "channel": 1,
      "note": 56,
      "start": 24.1155,
      "duration": 1.0247,
      "velocity": 111,
      "chip": "ym2612"
    },
    {
      "channel": 0,
      "note": 59,
      "start": 24.1955,
      "duration": 0.0802,
      "velocity": 122,
      "chip": "ym2612"
    },
    {
      "channel": 2,
      "note": 59,
      "start": 24.1983,
      "duration": 0.0277,
      "velocity": 116,
      "chip": "ym2612"
    },
    {
      "channel": 3,
      "note": 59,
      "start": 24.2015,
      "duration": 0.1188,
      "velocity": 127,
      "chip": "ym2612"
    },
    {
      "channel": 0,
      "note": 59,
      "start": 24.3155,
      "duration": 0.0205,
      "velocity": 122,
      "chip": "ym2612"
    },
    {
      "channel": 2,
      "note": 64,
      "start": 24.3179,
      "duration": 0.0085,
      "velocity": 116,
      "chip": "ym2612"
    },
    {
      "channel": 0,
      "note": 59,
      "start": 24.409,
      "duration": 0.0127,
      "velocity": 122,
      "chip": "ym2612"
    },
    {
      "channel": 2,
      "note": 64,
      "start": 24.4117,
      "duration": 0.0102,
      "velocity": 116,
      "chip": "ym2612"
    },
    {
      "channel": 4,
      "note": 59,
      "start": 24.4142,
      "duration": 0.0825,
      "velocity": 122,
      "chip": "ym2612"
    },
    {
      "channel": 0,
      "note": 59,
      "start": 24.5034,
      "duration": 0.0861,
      "velocity": 122,
      "chip": "ym2612"
    },
    {
      "channel": 2,
      "note": 59,
      "start": 24.5058,
      "duration": 0.0084,
      "velocity": 116,
      "chip": "ym2612"
    },
    {
      "channel": 2,
      "note": 59,
      "start": 24.5482,
      "duration": 0.017,
      "velocity": 116,
      "chip": "ym2612"
    },
    {
      "channel": 0,
      "note": 57,
      "start": 24.5968,
      "duration": 0.082,
      "velocity": 122,
      "chip": "ym2612"
    },
    {
      "channel": 2,
      "note": 66,
      "start": 24.5993,
      "duration": 0.0131,
      "velocity": 116,
      "chip": "ym2612"
    },
    {
      "channel": 0,
      "note": 59,
      "start": 24.6851,
      "duration": 0.1043,
      "velocity": 122,
      "chip": "ym2612"
    },
    {
      "channel": 2,
      "note": 66,
      "start": 24.6875,
      "duration": 0.0189,
      "velocity": 116,
      "chip": "ym2612"
    },
    {
      "channel": 2,
      "note": 59,
      "start": 24.793,
      "duration": 0.1133,
      "velocity": 116,
      "chip": "ym2612"
    },
    {
      "channel": 0,
      "note": 59,
      "start": 24.9125,
      "duration": 0.0357,
      "velocity": 122,
      "chip": "ym2612"
    },
    {
      "channel": 2,
      "note": 64,
      "start": 24.9151,
      "duration": 0.0083,
      "velocity": 116,
      "chip": "ym2612"
    },
    {
      "channel": 0,
      "note": 57,
      "start": 24.9604,
      "duration": 0.163,
      "velocity": 122,
      "chip": "ym2612"
    },
    {
      "channel": 2,
      "note": 64,
      "start": 24.9631,
      "duration": 0.0083,
      "velocity": 116,
      "chip": "ym2612"
    },
    {
      "channel": 2,
      "note": 59,
      "start": 25.0522,
      "duration": 0.0103,
      "velocity": 116,
      "chip": "ym2612"
    },
    {
      "channel": 0,
      "note": 62,
      "start": 25.1466,
      "duration": 0.0873,
      "velocity": 122,
      "chip": "ym2612"
    },
    {
      "channel": 2,
      "note": 66,
      "start": 25.1492,
      "duration": 0.0104,
      "velocity": 116,
      "chip": "ym2612"
    },
    {
      "channel": 1,
      "note": 50,
      "start": 25.1524,
      "duration": 0.2216,
      "velocity": 111,
      "chip": "ym2612"
    },
    {
      "channel": 2,
      "note": 66,
      "start": 25.1936,
      "duration": 0.0097,
      "velocity": 116,
      "chip": "ym2612"
    },
    {
      "channel": 0,
      "note": 57,
      "start": 25.2413,
      "duration": 0.1012,
      "velocity": 122,
      "chip": "ym2612"
    },
    {
      "channel": 2,
      "note": 64,
      "start": 25.2438,
      "duration": 0.016,
      "velocity": 116,
      "chip": "ym2612"
    },
    {
      "channel": 4,
      "note": 57,
      "start": 25.2463,
      "duration": 0.0635,
      "velocity": 122,
      "chip": "ym2612"
    },
    {
      "channel": 2,
      "note": 64,
      "start": 25.3327,
      "duration": 0.0166,
      "velocity": 116,
      "chip": "ym2612"
    },
    {
      "channel": 0,
      "note": 57,
      "start": 25.3816,
      "duration": 0.1018,
      "velocity": 122,
      "chip": "ym2612"
    },
    {
      "channel": 2,
      "note": 59,
      "start": 25.3841,
      "duration": 0.0165,
      "velocity": 116,
      "chip": "ym2612"
    },
    {
      "channel": 4,
      "note": 57,
      "start": 25.3866,
      "duration": 0.097,
      "velocity": 122,
      "chip": "ym2612"
    },
    {
      "channel": 1,
      "note": 55,
      "start": 25.3895,
      "duration": 1.1157,
      "velocity": 111,
      "chip": "ym2612"
    },
    {
      "channel": 0,
      "note": 59,
      "start": 25.4866,
      "duration": 0.0468,
      "velocity": 122,
      "chip": "ym2612"
    },
    {
      "channel": 2,
      "note": 59,
      "start": 25.4894,
      "duration": 0.0277,
      "velocity": 116,
      "chip": "ym2612"
    },
    {
      "channel": 3,
      "note": 59,
      "start": 25.4921,
      "duration": 0.1192,
      "velocity": 127,
      "chip": "ym2612"
    },
    {
      "channel": 0,
      "note": 59,
      "start": 25.6066,
      "duration": 0.0107,
      "velocity": 122,
      "chip": "ym2612"
    },
    {
      "channel": 2,
      "note": 62,
      "start": 25.609,
      "duration": 0.0085,
      "velocity": 116,
      "chip": "ym2612"
    },
    {
      "channel": 0,
      "note": 59,
      "start": 25.7002,
      "duration": 0.0205,
      "velocity": 122,
      "chip": "ym2612"
    },
    {
      "channel": 2,
      "note": 62,
      "start": 25.7025,
      "duration": 0.0097,
      "velocity": 116,
      "chip": "ym2612"
    },
    {
      "channel": 4,
      "note": 59,
      "start": 25.7049,
      "duration": 0.0825,
      "velocity": 122,
      "chip": "ym2612"
    },
    {
      "channel": 0,
      "note": 59,
      "start": 25.7939,
      "duration": 0.0857,
      "velocity": 122,
      "chip": "ym2612"
    },
    {
      "channel": 2,
      "note": 59,
      "start": 25.7963,
      "duration": 0.0088,
      "velocity": 116,
      "chip": "ym2612"
    },
    {
      "channel": 2,
      "note": 59,
      "start": 25.8387,
      "duration": 0.0104,
      "velocity": 116,
      "chip": "ym2612"
    },
    {
      "channel": 0,
      "note": 57,
      "start": 25.8875,
      "duration": 0.0322,
      "velocity": 122,
      "chip": "ym2612"
    },
    {
      "channel": 2,
      "note": 64,
      "start": 25.89,
      "duration": 0.0067,
      "velocity": 116,
      "chip": "ym2612"
    },
    {
      "channel": 0,
      "note": 59,
      "start": 25.9762,
      "duration": 0.1207,
      "velocity": 122,
      "chip": "ym2612"
    },
    {
      "channel": 2,
      "note": 64,
      "start": 25.9788,
      "duration": 0.0184,
      "velocity": 116,
      "chip": "ym2612"
    },
    {
      "channel": 2,
      "note": 59,
      "start": 26.0672,
      "duration": 0.1134,
      "velocity": 116,
      "chip": "ym2612"
    },
    {
      "channel": 0,
      "note": 59,
      "start": 26.1868,
      "duration": 0.037,
      "velocity": 122,
      "chip": "ym2612"
    },
    {
      "channel": 2,
      "note": 62,
      "start": 26.1897,
      "duration": 0.0151,
      "velocity": 116,
      "chip": "ym2612"
    },
    {
      "channel": 0,
      "note": 57,
      "start": 26.2425,
      "duration": 0.0854,
      "velocity": 122,
      "chip": "ym2612"
    },
    {
      "channel": 2,
      "note": 62,
      "start": 26.2449,
      "duration": 0.0083,
      "velocity": 116,
      "chip": "ym2612"
    },
    {
      "channel": 0,
      "note": 59,
      "start": 26.3341,
      "duration": 0.1056,
      "velocity": 122,
      "chip": "ym2612"
    },
    {
      "channel": 2,
      "note": 59,
      "start": 26.3366,
      "duration": 0.0108,
      "velocity": 116,
      "chip": "ym2612"
    },
    {
      "channel": 3,
      "note": 47,
      "start": 26.339,
      "duration": 0.0017,
      "velocity": 127,
      "chip": "ym2612"
    },
    {
      "channel": 2,
      "note": 67,
      "start": 26.4288,
      "duration": 0.0112,
      "velocity": 116,
      "chip": "ym2612"
    },
    {
      "channel": 3,
      "note": 47,
      "start": 26.4311,
      "duration": 0.0021,
      "velocity": 127,
      "chip": "ym2612"
    },
    {
      "channel": 0,
      "note": 59,
      "start": 26.4743,
      "duration": 0.0378,
      "velocity": 122,
      "chip": "ym2612"
    },
    {
      "channel": 2,
      "note": 67,
      "start": 26.4767,
      "duration": 0.0103,
      "velocity": 116,
      "chip": "ym2612"
    },
    {
      "channel": 3,
      "note": 47,
      "start": 26.4791,
      "duration": 0.0025,
      "velocity": 127,
      "chip": "ym2612"
    },
    {
      "channel": 0,
      "note": 57,
      "start": 26.5237,
      "duration": 0.0851,
      "velocity": 122,
      "chip": "ym2612"
    },
    {
      "channel": 2,
      "note": 62,
      "start": 26.5262,
      "duration": 0.0096,
      "velocity": 116,
      "chip": "ym2612"
    },
    {
      "channel": 4,
      "note": 57,
      "start": 26.5285,
      "duration": 0.0948,
      "velocity": 122,
      "chip": "ym2612"
    },
    {
      "channel": 3,
      "note": 47,
      "start": 26.5308,
      "duration": 0.0023,
      "velocity": 127,
      "chip": "ym2612"
    },
    {
      "channel": 0,
      "note": 59,
      "start": 26.615,
      "duration": 0.0301,
      "velocity": 122,
      "chip": "ym2612"
    },
    {
      "channel": 2,
      "note": 57,
      "start": 26.6177,
      "duration": 0.0413,
      "velocity": 116,
      "chip": "ym2612"
    },
    {
      "channel": 3,
      "note": 47,
      "start": 26.62,
      "duration": 0.0032,
      "velocity": 127,
      "chip": "ym2612"
    },
    {
      "channel": 0,
      "note": 57,
      "start": 26.6661,
      "duration": 0.082,
      "velocity": 122,
      "chip": "ym2612"
    },
    {
      "channel": 2,
      "note": 57,
      "start": 26.6687,
      "duration": 0.08,
      "velocity": 116,
      "chip": "ym2612"
    },
    {
      "channel": 4,
      "note": 57,
      "start": 26.6715,
      "duration": 0.077,
      "velocity": 122,
      "chip": "ym2612"
    },
    {
      "channel": 1,
      "note": 59,
      "start": 26.6755,
      "duration": 1.2523,
      "velocity": 127,
      "chip": "ym2612"
    },
    {
      "channel": 3,
      "note": 57,
      "start": 26.6781,
      "duration": 0.0702,
      "velocity": 101,
      "chip": "ym2612"
    },
    {
      "channel": 0,
      "note": 59,
      "start": 26.7515,
      "duration": 0.08,
      "velocity": 122,
      "chip": "ym2612"
    },
    {
      "channel": 2,
      "note": 59,
      "start": 26.7543,
      "duration": 0.1107,
      "velocity": 116,
      "chip": "ym2612"
    },
    {
      "channel": 5,
      "note": 59,
      "start": 26.7576,
      "duration": 0.1085,
      "velocity": 127,
      "chip": "ym2612"
    },
    {
      "channel": 3,
      "note": 59,
      "start": 26.7605,
      "duration": 0.0712,
      "velocity": 101,
      "chip": "ym2612"
    },
    {
      "channel": 0,
      "note": 59,
      "start": 26.8712,
      "duration": 0.0374,
      "velocity": 122,
      "chip": "ym2612"
    },
    {
      "channel": 2,
      "note": 59,
      "start": 26.8739,
      "duration": 0.0352,
      "velocity": 116,
      "chip": "ym2612"
    },
    {
      "channel": 3,
      "note": 59,
      "start": 26.8768,
      "duration": 0.032,
      "velocity": 101,
      "chip": "ym2612"
    },
    {
      "channel": 0,
      "note": 59,
      "start": 26.9815,
      "duration": 0.0137,
      "velocity": 122,
      "chip": "ym2612"
    },
    {
      "channel": 2,
      "note": 59,
      "start": 26.9841,
      "duration": 0.0114,
      "velocity": 116,
      "chip": "ym2612"
    },
    {
      "channel": 4,
      "note": 59,
      "start": 26.9866,
      "duration": 0.1015,
      "velocity": 122,
      "chip": "ym2612"
    },
    {
      "channel": 3,
      "note": 59,
      "start": 26.9893,
      "duration": 0.0061,
      "velocity": 101,
      "chip": "ym2612"
    },
    {
      "channel": 0,
      "note": 59,
      "start": 27.0754,
      "duration": 0.0819,
      "velocity": 122,
      "chip": "ym2612"
    },
    {
      "channel": 2,
      "note": 59,
      "start": 27.078,
      "duration": 0.0101,
      "velocity": 116,
      "chip": "ym2612"
    },
    {
      "channel": 3,
      "note": 59,
      "start": 27.081,
      "duration": 0.0764,
      "velocity": 101,
      "chip": "ym2612"
    },
    {
      "channel": 2,
      "note": 59,
      "start": 27.1222,
      "duration": 0.0098,
      "velocity": 116,
      "chip": "ym2612"
    },
    {
      "channel": 0,
      "note": 57,
      "start": 27.1704,
      "duration": 0.0856,
      "velocity": 122,
      "chip": "ym2612"
    },
    {
      "channel": 2,
      "note": 66,
      "start": 27.1727,
      "duration": 0.0094,
      "velocity": 116,
      "chip": "ym2612"
    },
    {
      "channel": 3,
      "note": 57,
      "start": 27.1757,
      "duration": 0.0804,
      "velocity": 101,
      "chip": "ym2612"
    },
    {
      "channel": 0,
      "note": 59,
      "start": 27.2627,
      "duration": 0.1042,
      "velocity": 122,
      "chip": "ym2612"
    },
    {
      "channel": 2,
      "note": 66,
      "start": 27.2654,
      "duration": 0.01,
      "velocity": 116,
      "chip": "ym2612"
    },
    {
      "channel": 3,
      "note": 59,
      "start": 27.2684,
      "duration": 0.0987,
      "velocity": 101,
      "chip": "ym2612"
    },
    {
      "channel": 2,
      "note": 59,
      "start": 27.3537,
      "duration": 0.1134,
      "velocity": 116,
      "chip": "ym2612"
    },
    {
      "channel": 0,
      "note": 59,
      "start": 27.4734,
      "duration": 0.0373,
      "velocity": 122,
      "chip": "ym2612"
    },
    {
      "channel": 2,
      "note": 62,
      "start": 27.476,
      "duration": 0.0158,
      "velocity": 116,
      "chip": "ym2612"
    },
    {
      "channel": 3,
      "note": 59,
      "start": 27.4789,
      "duration": 0.0319,
      "velocity": 101,
      "chip": "ym2612"
    },
    {
      "channel": 0,
      "note": 57,
      "start": 27.5239,
      "duration": 0.1935,
      "velocity": 122,
      "chip": "ym2612"
    },
    {
      "channel": 2,
      "note": 62,
      "start": 27.5265,
      "duration": 0.0144,
      "velocity": 116,
      "chip": "ym2612"
    },
    {
      "channel": 3,
      "note": 57,
      "start": 27.5294,
      "duration": 0.1883,
      "velocity": 101,
      "chip": "ym2612"
    },
    {
      "channel": 2,
      "note": 59,
      "start": 27.6138,
      "duration": 0.0206,
      "velocity": 116,
      "chip": "ym2612"
    },
    {
      "channel": 0,
      "note": 62,
      "start": 27.7241,
      "duration": 0.0885,
      "velocity": 122,
      "chip": "ym2612"
    },
    {
      "channel": 2,
      "note": 66,
      "start": 27.7264,
      "duration": 0.0104,
      "velocity": 116,
      "chip": "ym2612"
    },
    {
      "channel": 3,
      "note": 62,
      "start": 27.7292,
      "duration": 0.0834,
      "velocity": 101,
      "chip": "ym2612"
    },
    {
      "channel": 2,
      "note": 66,
      "start": 27.7714,
      "duration": 0.01,
      "velocity": 116,
      "chip": "ym2612"
    },
    {
      "channel": 0,
      "note": 57,
      "start": 27.8194,
      "duration": 0.0965,
      "velocity": 122,
      "chip": "ym2612"
    },
    {
      "channel": 2,
      "note": 64,
      "start": 27.8219,
      "duration": 0.01,
      "velocity": 116,
      "chip": "ym2612"
    },
    {
      "channel": 4,
      "note": 57,
      "start": 27.8241,
      "duration": 0.0809,
      "velocity": 122,
      "chip": "ym2612"
    },
    {
      "channel": 3,
      "note": 57,
      "start": 27.8269,
      "duration": 0.0892,
      "velocity": 101,
      "chip": "ym2612"
    },
    {
      "channel": 2,
      "note": 57,
      "start": 27.9116,
      "duration": 0.0408,
      "velocity": 116,
      "chip": "ym2612"
    },
    {
      "channel": 0,
      "note": 57,
      "start": 27.9595,
      "duration": 0.0848,
      "velocity": 122,
      "chip": "ym2612"
    },
    {
      "channel": 2,
      "note": 57,
      "start": 27.9619,
      "duration": 0.0829,
      "velocity": 116,
      "chip": "ym2612"
    },
    {
      "channel": 4,
      "note": 57,
      "start": 27.9642,
      "duration": 0.0804,
      "velocity": 122,
      "chip": "ym2612"
    },
    {
      "channel": 1,
      "note": 62,
      "start": 27.9668,
      "duration": 1.2309,
      "velocity": 127,
      "chip": "ym2612"
    },
    {
      "channel": 3,
      "note": 57,
      "start": 27.9703,
      "duration": 0.0742,
      "velocity": 101,
      "chip": "ym2612"
    },
    {
      "channel": 0,
      "note": 59,
      "start": 28.0477,
      "duration": 0.0633,
      "velocity": 122,
      "chip": "ym2612"
    },
    {
      "channel": 2,
      "note": 59,
      "start": 28.051,
      "duration": 0.027,
      "velocity": 116,
      "chip": "ym2612"
    },
    {
      "channel": 5,
      "note": 59,
      "start": 28.0543,
      "duration": 0.1078,
      "velocity": 127,
      "chip": "ym2612"
    },
    {
      "channel": 3,
      "note": 59,
      "start": 28.0573,
      "duration": 0.0539,
      "velocity": 101,
      "chip": "ym2612"
    },
    {
      "channel": 0,
      "note": 59,
      "start": 28.1673,
      "duration": 0.0369,
      "velocity": 122,
      "chip": "ym2612"
    },
    {
      "channel": 2,
      "note": 62,
      "start": 28.17,
      "duration": 0.0179,
      "velocity": 116,
      "chip": "ym2612"
    },
    {
      "channel": 3,
      "note": 59,
      "start": 28.1727,
      "duration": 0.0317,
      "velocity": 101,
      "chip": "ym2612"
    },
    {
      "channel": 0,
      "note": 59,
      "start": 28.2605,
      "duration": 0.0211,
      "velocity": 122,
      "chip": "ym2612"
    },
    {
      "channel": 2,
      "note": 62,
      "start": 28.2631,
      "duration": 0.0188,
      "velocity": 116,
      "chip": "ym2612"
    },
    {
      "channel": 4,
      "note": 59,
      "start": 28.2656,
      "duration": 0.1022,
      "velocity": 122,
      "chip": "ym2612"
    },
    {
      "channel": 3,
      "note": 59,
      "start": 28.2683,
      "duration": 0.0135,
      "velocity": 101,
      "chip": "ym2612"
    },
    {
      "channel": 0,
      "note": 59,
      "start": 28.3551,
      "duration": 0.0934,
      "velocity": 122,
      "chip": "ym2612"
    },
    {
      "channel": 2,
      "note": 59,
      "start": 28.3578,
      "duration": 0.0159,
      "velocity": 116,
      "chip": "ym2612"
    },
    {
      "channel": 3,
      "note": 59,
      "start": 28.3607,
      "duration": 0.088,
      "velocity": 101,
      "chip": "ym2612"
    },
    {
      "channel": 2,
      "note": 59,
      "start": 28.4078,
      "duration": 0.0114,
      "velocity": 116,
      "chip": "ym2612"
    },
    {
      "channel": 0,
      "note": 57,
      "start": 28.4558,
      "duration": 0.0659,
      "velocity": 122,
      "chip": "ym2612"
    },
    {
      "channel": 2,
      "note": 64,
      "start": 28.4583,
      "duration": 0.0078,
      "velocity": 116,
      "chip": "ym2612"
    },
    {
      "channel": 3,
      "note": 57,
      "start": 28.4611,
      "duration": 0.0608,
      "velocity": 101,
      "chip": "ym2612"
    },
    {
      "channel": 0,
      "note": 59,
      "start": 28.5445,
      "duration": 0.104,
      "velocity": 122,
      "chip": "ym2612"
    },
    {
      "channel": 2,
      "note": 64,
      "start": 28.5471,
      "duration": 0.0097,
      "velocity": 116,
      "chip": "ym2612"
    },
    {
      "channel": 3,
      "note": 59,
      "start": 28.5502,
      "duration": 0.0985,
      "velocity": 101,
      "chip": "ym2612"
    },
    {
      "channel": 2,
      "note": 59,
      "start": 28.6353,
      "duration": 0.1134,
      "velocity": 116,
      "chip": "ym2612"
    },
    {
      "channel": 0,
      "note": 59,
      "start": 28.7548,
      "duration": 0.0313,
      "velocity": 122,
      "chip": "ym2612"
    },
    {
      "channel": 2,
      "note": 62,
      "start": 28.7575,
      "duration": 0.0102,
      "velocity": 116,
      "chip": "ym2612"
    },
    {
      "channel": 3,
      "note": 59,
      "start": 28.7605,
      "duration": 0.0257,
      "velocity": 101,
      "chip": "ym2612"
    },
    {
      "channel": 0,
      "note": 57,
      "start": 28.8055,
      "duration": 0.1766,
      "velocity": 122,
      "chip": "ym2612"
    },
    {
      "channel": 2,
      "note": 62,
      "start": 28.8079,
      "duration": 0.0078,
      "velocity": 116,
      "chip": "ym2612"
    },
    {
      "channel": 3,
      "note": 57,
      "start": 28.8106,
      "duration": 0.1717,
      "velocity": 101,
      "chip": "ym2612"
    },
    {
      "channel": 2,
      "note": 59,
      "start": 28.8945,
      "duration": 0.0213,
      "velocity": 116,
      "chip": "ym2612"
    },
    {
      "channel": 0,
      "note": 62,
      "start": 28.9887,
      "duration": 0.0943,
      "velocity": 122,
      "chip": "ym2612"
    },
    {
      "channel": 2,
      "note": 64,
      "start": 28.9913,
      "duration": 0.016,
      "velocity": 116,
      "chip": "ym2612"
    },
    {
      "channel": 3,
      "note": 62,
      "start": 28.9941,
      "duration": 0.089,
      "velocity": 101,
      "chip": "ym2612"
    },
    {
      "channel": 2,
      "note": 64,
      "start": 29.0361,
      "duration": 0.0167,
      "velocity": 116,
      "chip": "ym2612"
    },
    {
      "channel": 0,
      "note": 57,
      "start": 29.0897,
      "duration": 0.1018,
      "velocity": 122,
      "chip": "ym2612"
    },
    {
      "channel": 2,
      "note": 62,
      "start": 29.0924,
      "duration": 0.01,
      "velocity": 116,
      "chip": "ym2612"
    },
    {
      "channel": 4,
      "note": 57,
      "start": 29.0951,
      "duration": 0.0471,
      "velocity": 122,
      "chip": "ym2612"
    },
    {
      "channel": 3,
      "note": 57,
      "start": 29.0978,
      "duration": 0.0939,
      "velocity": 101,
      "chip": "ym2612"
    },
    {
      "channel": 2,
      "note": 57,
      "start": 29.182,
      "duration": 0.0402,
      "velocity": 116,
      "chip": "ym2612"
    },
    {
      "channel": 0,
      "note": 57,
      "start": 29.2294,
      "duration": 0.0841,
      "velocity": 122,
      "chip": "ym2612"
    },
    {
      "channel": 2,
      "note": 57,
      "start": 29.2317,
      "duration": 0.0823,
      "velocity": 116,
      "chip": "ym2612"
    },
    {
      "channel": 4,
      "note": 57,
      "start": 29.2339,
      "duration": 0.0799,
      "velocity": 122,
      "chip": "ym2612"
    },
    {
      "channel": 1,
      "note": 68,
      "start": 29.2364,
      "duration": 1.2556,
      "velocity": 127,
      "chip": "ym2612"
    },
    {
      "channel": 3,
      "note": 57,
      "start": 29.2398,
      "duration": 0.0739,
      "velocity": 101,
      "chip": "ym2612"
    },
    {
      "channel": 0,
      "note": 59,
      "start": 29.3168,
      "duration": 0.08,
      "velocity": 122,
      "chip": "ym2612"
    },
    {
      "channel": 2,
      "note": 59,
      "start": 29.3198,
      "duration": 0.0273,
      "velocity": 116,
      "chip": "ym2612"
    },
    {
      "channel": 5,
      "note": 59,
      "start": 29.3227,
      "duration": 0.1086,
      "velocity": 127,
      "chip": "ym2612"
    },
    {
      "channel": 3,
      "note": 59,
      "start": 29.3257,
      "duration": 0.0714,
      "velocity": 101,
      "chip": "ym2612"
    },
    {
      "channel": 0,
      "note": 59,
      "start": 29.4368,
      "duration": 0.0378,
      "velocity": 122,
      "chip": "ym2612"
    },
    {
      "channel": 2,
      "note": 64,
      "start": 29.4392,
      "duration": 0.0105,
      "velocity": 116,
      "chip": "ym2612"
    },
    {
      "channel": 3,
      "note": 59,
      "start": 29.4423,
      "duration": 0.0325,
      "velocity": 101,
      "chip": "ym2612"
    },
    {
      "channel": 0,
      "note": 59,
      "start": 29.5306,
      "duration": 0.0139,
      "velocity": 122,
      "chip": "ym2612"
    },
    {
      "channel": 2,
      "note": 64,
      "start": 29.533,
      "duration": 0.0119,
      "velocity": 116,
      "chip": "ym2612"
    },
    {
      "channel": 4,
      "note": 59,
      "start": 29.5354,
      "duration": 0.083,
      "velocity": 122,
      "chip": "ym2612"
    },
    {
      "channel": 3,
      "note": 59,
      "start": 29.538,
      "duration": 0.0066,
      "velocity": 101,
      "chip": "ym2612"
    },
    {
      "channel": 0,
      "note": 59,
      "start": 29.6247,
      "duration": 0.0877,
      "velocity": 122,
      "chip": "ym2612"
    },
    {
      "channel": 2,
      "note": 59,
      "start": 29.6272,
      "duration": 0.016,
      "velocity": 116,
      "chip": "ym2612"
    },
    {
      "channel": 3,
      "note": 59,
      "start": 29.6303,
      "duration": 0.0822,
      "velocity": 101,
      "chip": "ym2612"
    },
    {
      "channel": 2,
      "note": 59,
      "start": 29.672,
      "duration": 0.0168,
      "velocity": 116,
      "chip": "ym2612"
    },
    {
      "channel": 0,
      "note": 57,
      "start": 29.7197,
      "duration": 0.1012,
      "velocity": 122,
      "chip": "ym2612"
    },
    {
      "channel": 2,
      "note": 66,
      "start": 29.7221,
      "duration": 0.0158,
      "velocity": 116,
      "chip": "ym2612"
    },
    {
      "channel": 3,
      "note": 57,
      "start": 29.725,
      "duration": 0.0961,
      "velocity": 101,
      "chip": "ym2612"
    },
    {
      "channel": 0,
      "note": 59,
      "start": 29.8278,
      "duration": 0.0868,
      "velocity": 122,
      "chip": "ym2612"
    },
    {
      "channel": 2,
      "note": 66,
      "start": 29.8302,
      "duration": 0.01,
      "velocity": 116,
      "chip": "ym2612"
    },
    {
      "channel": 3,
      "note": 59,
      "start": 29.8329,
      "duration": 0.0819,
      "velocity": 101,
      "chip": "ym2612"
    },
    {
      "channel": 2,
      "note": 59,
      "start": 29.9183,
      "duration": 0.1133,
      "velocity": 116,
      "chip": "ym2612"
    },
    {
      "channel": 0,
      "note": 59,
      "start": 30.0376,
      "duration": 0.0371,
      "velocity": 122,
      "chip": "ym2612"
    },
    {
      "channel": 2,
      "note": 64,
      "start": 30.0402,
      "duration": 0.0102,
      "velocity": 116,
      "chip": "ym2612"
    },
    {
      "channel": 3,
      "note": 59,
      "start": 30.0432,
      "duration": 0.0316,
      "velocity": 101,
      "chip": "ym2612"
    },
    {
      "channel": 0,
      "note": 57,
      "start": 30.088,
      "duration": 0.1609,
      "velocity": 122,
      "chip": "ym2612"
    },
    {
      "channel": 2,
      "note": 64,
      "start": 30.0906,
      "duration": 0.008,
      "velocity": 116,
      "chip": "ym2612"
    },
    {
      "channel": 3,
      "note": 57,
      "start": 30.0937,
      "duration": 0.1554,
      "velocity": 101,
      "chip": "ym2612"
    },
    {
      "channel": 2,
      "note": 59,
      "start": 30.1778,
      "duration": 0.01,
      "velocity": 116,
      "chip": "ym2612"
    },
    {
      "channel": 0,
      "note": 62,
      "start": 30.272,
      "duration": 0.088,
      "velocity": 122,
      "chip": "ym2612"
    },
    {
      "channel": 2,
      "note": 66,
      "start": 30.2745,
      "duration": 0.0101,
      "velocity": 116,
      "chip": "ym2612"
    },
    {
      "channel": 3,
      "note": 62,
      "start": 30.2772,
      "duration": 0.0829,
      "velocity": 101,
      "chip": "ym2612"
    },
    {
      "channel": 2,
      "note": 66,
      "start": 30.3193,
      "duration": 0.0173,
      "velocity": 116,
      "chip": "ym2612"
    },
    {
      "channel": 0,
      "note": 57,
      "start": 30.3672,
      "duration": 0.1002,
      "velocity": 122,
      "chip": "ym2612"
    },
    {
      "channel": 2,
      "note": 64,
      "start": 30.3696,
      "duration": 0.0154,
      "velocity": 116,
      "chip": "ym2612"
    },
    {
      "channel": 4,
      "note": 57,
      "start": 30.372,
      "duration": 0.0627,
      "velocity": 122,
      "chip": "ym2612"
    },
    {
      "channel": 3,
      "note": 57,
      "start": 30.3745,
      "duration": 0.0931,
      "velocity": 101,
      "chip": "ym2612"
    },
    {
      "channel": 2,
      "note": 57,
      "start": 30.4577,
      "duration": 0.047,
      "velocity": 116,
      "chip": "ym2612"
    },
    {
      "channel": 0,
      "note": 57,
      "start": 30.5108,
      "duration": 0.0844,
      "velocity": 122,
      "chip": "ym2612"
    },
    {
      "channel": 2,
      "note": 57,
      "start": 30.5133,
      "duration": 0.0823,
      "velocity": 116,
      "chip": "ym2612"
    },
    {
      "channel": 4,
      "note": 57,
      "start": 30.5158,
      "duration": 0.0797,
      "velocity": 122,
      "chip": "ym2612"
    },
    {
      "channel": 1,
      "note": 67,
      "start": 30.5198,
      "duration": 1.0949,
      "velocity": 127,
      "chip": "ym2612"
    },
    {
      "channel": 3,
      "note": 57,
      "start": 30.5224,
      "duration": 0.073,
      "velocity": 101,
      "chip": "ym2612"
    },
    {
      "channel": 0,
      "note": 59,
      "start": 30.5985,
      "duration": 0.0466,
      "velocity": 122,
      "chip": "ym2612"
    },
    {
      "channel": 2,
      "note": 59,
      "start": 30.6015,
      "duration": 0.0273,
      "velocity": 116,
      "chip": "ym2612"
    },
    {
      "channel": 5,
      "note": 59,
      "start": 30.6044,
      "duration": 0.1089,
      "velocity": 127,
      "chip": "ym2612"
    },
    {
      "channel": 3,
      "note": 59,
      "start": 30.6073,
      "duration": 0.038,
      "velocity": 101,
      "chip": "ym2612"
    },
    {
      "channel": 0,
      "note": 59,
      "start": 30.7187,
      "duration": 0.0127,
      "velocity": 122,
      "chip": "ym2612"
    },
    {
      "channel": 2,
      "note": 62,
      "start": 30.721,
      "duration": 0.0105,
      "velocity": 116,
      "chip": "ym2612"
    },
    {
      "channel": 3,
      "note": 59,
      "start": 30.7237,
      "duration": 0.0077,
      "velocity": 101,
      "chip": "ym2612"
    },
    {
      "channel": 0,
      "note": 59,
      "start": 30.8122,
      "duration": 0.0204,
      "velocity": 122,
      "chip": "ym2612"
    },
    {
      "channel": 2,
      "note": 62,
      "start": 30.8146,
      "duration": 0.0113,
      "velocity": 116,
      "chip": "ym2612"
    },
    {
      "channel": 4,
      "note": 59,
      "start": 30.8172,
      "duration": 0.0824,
      "velocity": 122,
      "chip": "ym2612"
    },
    {
      "channel": 3,
      "note": 59,
      "start": 30.8198,
      "duration": 0.0131,
      "velocity": 101,
      "chip": "ym2612"
    },
    {
      "channel": 0,
      "note": 59,
      "start": 30.9061,
      "duration": 0.0884,
      "velocity": 122,
      "chip": "ym2612"
    },
    {
      "channel": 2,
      "note": 59,
      "start": 30.9085,
      "duration": 0.01,
      "velocity": 116,
      "chip": "ym2612"
    },
    {
      "channel": 3,
      "note": 59,
      "start": 30.9117,
      "duration": 0.0829,
      "velocity": 101,
      "chip": "ym2612"
    },
    {
      "channel": 2,
      "note": 59,
      "start": 30.9533,
      "duration": 0.0101,
      "velocity": 116,
      "chip": "ym2612"
    },
    {
      "channel": 0,
      "note": 57,
      "start": 31.0016,
      "duration": 0.0346,
      "velocity": 122,
      "chip": "ym2612"
    },
    {
      "channel": 2,
      "note": 64,
      "start": 31.0041,
      "duration": 0.0158,
      "velocity": 116,
      "chip": "ym2612"
    },
    {
      "channel": 3,
      "note": 57,
      "start": 31.0071,
      "duration": 0.0293,
      "velocity": 101,
      "chip": "ym2612"
    },
    {
      "channel": 0,
      "note": 59,
      "start": 31.0929,
      "duration": 0.1208,
      "velocity": 122,
      "chip": "ym2612"
    },
    {
      "channel": 2,
      "note": 64,
      "start": 31.0956,
      "duration": 0.0184,
      "velocity": 116,
      "chip": "ym2612"
    },
    {
      "channel": 3,
      "note": 59,
      "start": 31.0985,
      "duration": 0.1155,
      "velocity": 101,
      "chip": "ym2612"
    },
    {
      "channel": 2,
      "note": 59,
      "start": 31.1843,
      "duration": 0.1297,
      "velocity": 116,
      "chip": "ym2612"
    },
    {
      "channel": 0,
      "note": 59,
      "start": 31.3201,
      "duration": 0.03,
      "velocity": 122,
      "chip": "ym2612"
    },
    {
      "channel": 2,
      "note": 62,
      "start": 31.3227,
      "duration": 0.0097,
      "velocity": 116,
      "chip": "ym2612"
    },
    {
      "channel": 3,
      "note": 59,
      "start": 31.3255,
      "duration": 0.0248,
      "velocity": 101,
      "chip": "ym2612"
    },
    {
      "channel": 0,
      "note": 57,
      "start": 31.3694,
      "duration": 0.0835,
      "velocity": 122,
      "chip": "ym2612"
    },
    {
      "channel": 2,
      "note": 62,
      "start": 31.372,
      "duration": 0.0087,
      "velocity": 116,
      "chip": "ym2612"
    },
    {
      "channel": 3,
      "note": 57,
      "start": 31.3749,
      "duration": 0.0782,
      "velocity": 101,
      "chip": "ym2612"
    },
    {
      "channel": 0,
      "note": 59,
      "start": 31.4592,
      "duration": 0.1022,
      "velocity": 122,
      "chip": "ym2612"
    },
    {
      "channel": 2,
      "note": 59,
      "start": 31.4618,
      "duration": 0.0114,
      "velocity": 116,
      "chip": "ym2612"
    },
    {
      "channel": 4,
      "note": 47,
      "start": 31.4643,
      "duration": 0.0049,
      "velocity": 127,
      "chip": "ym2612"
    },
    {
      "channel": 3,
      "note": 59,
      "start": 31.4671,
      "duration": 0.0943,
      "velocity": 101,
      "chip": "ym2612"
    },
    {
      "channel": 2,
      "note": 67,
      "start": 31.5532,
      "duration": 0.0084,
      "velocity": 116,
      "chip": "ym2612"
    },
    {
      "channel": 4,
      "note": 47,
      "start": 31.5554,
      "duration": 0.0015,
      "velocity": 127,
      "chip": "ym2612"
    },
    {
      "channel": 0,
      "note": 59,
      "start": 31.5916,
      "duration": 0.0276,
      "velocity": 122,
      "chip": "ym2612"
    },
    {
      "channel": 2,
      "note": 67,
      "start": 31.5941,
      "duration": 0.0098,
      "velocity": 116,
      "chip": "ym2612"
    },
    {
      "channel": 4,
      "note": 47,
      "start": 31.5966,
      "duration": 0.0052,
      "velocity": 127,
      "chip": "ym2612"
    },
    {
      "channel": 3,
      "note": 59,
      "start": 31.5994,
      "duration": 0.0199,
      "velocity": 101,
      "chip": "ym2612"
    },
    {
      "channel": 0,
      "note": 57,
      "start": 31.6295,
      "duration": 0.0343,
      "velocity": 122,
      "chip": "ym2612"
    },
    {
      "channel": 2,
      "note": 62,
      "start": 31.6321,
      "duration": 0.0119,
      "velocity": 116,
      "chip": "ym2612"
    },
    {
      "channel": 4,
      "note": 57,
      "start": 31.6347,
      "duration": 0.0457,
      "velocity": 122,
      "chip": "ym2612"
    },
    {
      "channel": 1,
      "note": 47,
      "start": 31.637,
      "duration": 0.0048,
      "velocity": 127,
      "chip": "ym2612"
    },
    {
      "channel": 3,
      "note": 57,
      "start": 31.6405,
      "duration": 0.0235,
      "velocity": 101,
      "chip": "ym2612"
    },
    {
      "channel": 0,
      "note": 59,
      "start": 31.6704,
      "duration": 0.0234,
      "velocity": 122,
      "chip": "ym2612"
    },
    {
      "channel": 2,
      "note": 62,
      "start": 31.6729,
      "duration": 0.0123,
      "velocity": 116,
      "chip": "ym2612"
    },
    {
      "channel": 1,
      "note": 47,
      "start": 31.6753,
      "duration": 0.0049,
      "velocity": 127,
      "chip": "ym2612"
    },
    {
      "channel": 3,
      "note": 59,
      "start": 31.679,
      "duration": 0.0149,
      "velocity": 101,
      "chip": "ym2612"
    },
    {
      "channel": 4,
      "note": 61,
      "start": 31.7098,
      "duration": 0.2172,
      "velocity": 122,
      "chip": "ym2612"
    },
    {
      "channel": 1,
      "note": 49,
      "start": 31.7129,
      "duration": 0.2642,
      "velocity": 111,
      "chip": "ym2612"
    },
    {
      "channel": 2,
      "note": 61,
      "start": 31.7159,
      "duration": 0.0278,
      "velocity": 116,
      "chip": "ym2612"
    },
    {
      "channel": 2,
      "note": 73,
      "start": 31.7978,
      "duration": 0.1293,
      "velocity": 116,
      "chip": "ym2612"
    },
    {
      "channel": 4,
      "note": 61,
      "start": 31.9305,
      "duration": 0.0468,
      "velocity": 122,
      "chip": "ym2612"
    },
    {
      "channel": 0,
      "note": 61,
      "start": 31.9335,
      "duration": 0.0434,
      "velocity": 127,
      "chip": "ym2612"
    },
    {
      "channel": 2,
      "note": 68,
      "start": 31.9367,
      "duration": 0.1071,
      "velocity": 116,
      "chip": "ym2612"
    },
    {
      "channel": 4,
      "note": 61,
      "start": 32.0469,
      "duration": 0.0469,
      "velocity": 122,
      "chip": "ym2612"
    },
    {
      "channel": 0,
      "note": 61,
      "start": 32.0498,
      "duration": 0.0438,
      "velocity": 127,
      "chip": "ym2612"
    },
    {
      "channel": 2,
      "note": 61,
      "start": 32.053,
      "duration": 0.1074,
      "velocity": 116,
      "chip": "ym2612"
    },
    {
      "channel": 4,
      "note": 61,
      "start": 32.1666,
      "duration": 0.0665,
      "velocity": 122,
      "chip": "ym2612"
    },
    {
      "channel": 1,
      "note": 49,
      "start": 32.1692,
      "duration": 0.0638,
      "velocity": 111,
      "chip": "ym2612"
    },
    {
      "channel": 2,
      "note": 64,
      "start": 32.172,
      "duration": 0.0278,
      "velocity": 116,
      "chip": "ym2612"
    },
    {
      "channel": 2,
      "note": 63,
      "start": 32.203,
      "duration": 0.0302,
      "velocity": 116,
      "chip": "ym2612"
    },
    {
      "channel": 4,
      "note": 61,
      "start": 32.2362,
      "duration": 0.0546,
      "velocity": 122,
      "chip": "ym2612"
    },
    {
      "channel": 0,
      "note": 61,
      "start": 32.2386,
      "duration": 0.0519,
      "velocity": 127,
      "chip": "ym2612"
    },
    {
      "channel": 2,
      "note": 61,
      "start": 32.2436,
      "duration": 0.0971,
      "velocity": 116,
      "chip": "ym2612"
    },
    {
      "channel": 4,
      "note": 61,
      "start": 32.347,
      "duration": 0.0188,
      "velocity": 122,
      "chip": "ym2612"
    },
    {
      "channel": 0,
      "note": 61,
      "start": 32.3491,
      "duration": 0.0166,
      "velocity": 127,
      "chip": "ym2612"
    },
    {
      "channel": 2,
      "note": 74,
      "start": 32.3521,
      "duration": 0.0183,
      "velocity": 116,
      "chip": "ym2612"
    },
    {
      "channel": 3,
      "note": 49,
      "start": 32.387,
      "duration": 0.084,
      "velocity": 116,
      "chip": "ym2612"
    },
    {
      "channel": 4,
      "note": 61,
      "start": 32.3892,
      "duration": 0.032,
      "velocity": 122,
      "chip": "ym2612"
    },
    {
      "channel": 0,
      "note": 61,
      "start": 32.3915,
      "duration": 0.0294,
      "velocity": 127,
      "chip": "ym2612"
    },
    {
      "channel": 2,
      "note": 62,
      "start": 32.3946,
      "duration": 0.0767,
      "velocity": 116,
      "chip": "ym2612"
    },
    {
      "channel": 3,
      "note": 49,
      "start": 32.4773,
      "duration": 0.0868,
      "velocity": 116,
      "chip": "ym2612"
    },
    {
      "channel": 4,
      "note": 61,
      "start": 32.4795,
      "duration": 0.0347,
      "velocity": 122,
      "chip": "ym2612"
    },
    {
      "channel": 0,
      "note": 61,
      "start": 32.4818,
      "duration": 0.0323,
      "velocity": 127,
      "chip": "ym2612"
    },
    {
      "channel": 2,
      "note": 71,
      "start": 32.4847,
      "duration": 0.0462,
      "velocity": 116,
      "chip": "ym2612"
    },
    {
      "channel": 3,
      "note": 49,
      "start": 32.5712,
      "duration": 0.2198,
      "velocity": 116,
      "chip": "ym2612"
    },
    {
      "channel": 4,
      "note": 61,
      "start": 32.5735,
      "duration": 0.1008,
      "velocity": 122,
      "chip": "ym2612"
    },
    {
      "channel": 2,
      "note": 62,
      "start": 32.5765,
      "duration": 0.098,
      "velocity": 116,
      "chip": "ym2612"
    },
    {
      "channel": 4,
      "note": 61,
      "start": 32.6777,
      "duration": 0.0467,
      "velocity": 122,
      "chip": "ym2612"
    },
    {
      "channel": 0,
      "note": 61,
      "start": 32.6803,
      "duration": 0.0439,
      "velocity": 127,
      "chip": "ym2612"
    },
    {
      "channel": 2,
      "note": 73,
      "start": 32.6836,
      "duration": 0.0575,
      "velocity": 116,
      "chip": "ym2612"
    },
    {
      "channel": 4,
      "note": 61,
      "start": 32.7979,
      "duration": 0.0646,
      "velocity": 122,
      "chip": "ym2612"
    },
    {
      "channel": 2,
      "note": 61,
      "start": 32.8009,
      "duration": 0.028,
      "velocity": 116,
      "chip": "ym2612"
    },
    {
      "channel": 2,
      "note": 68,
      "start": 32.8327,
      "duration": 0.03,
      "velocity": 116,
      "chip": "ym2612"
    },
    {
      "channel": 4,
      "note": 59,
      "start": 32.8695,
      "duration": 0.2014,
      "velocity": 122,
      "chip": "ym2612"
    },
    {
      "channel": 0,
      "note": 61,
      "start": 32.8719,
      "duration": 0.0165,
      "velocity": 127,
      "chip": "ym2612"
    },
    {
      "channel": 1,
      "note": 47,
      "start": 32.8745,
      "duration": 0.1963,
      "velocity": 111,
      "chip": "ym2612"
    },
    {
      "channel": 2,
      "note": 64,
      "start": 32.8772,
      "duration": 0.077,
      "velocity": 116,
      "chip": "ym2612"
    },
    {
      "channel": 0,
      "note": 61,
      "start": 32.9574,
      "duration": 0.0633,
      "velocity": 127,
      "chip": "ym2612"
    },
    {
      "channel": 2,
      "note": 63,
      "start": 32.9606,
      "duration": 0.1106,
      "velocity": 116,
      "chip": "ym2612"
    },
    {
      "channel": 4,
      "note": 61,
      "start": 33.0775,
      "duration": 0.2037,
      "velocity": 122,
      "chip": "ym2612"
    },
    {
      "channel": 1,
      "note": 49,
      "start": 33.0803,
      "duration": 0.2675,
      "velocity": 111,
      "chip": "ym2612"
    },
    {
      "channel": 2,
      "note": 61,
      "start": 33.0832,
      "duration": 0.0314,
      "velocity": 116,
      "chip": "ym2612"
    },
    {
      "channel": 2,
      "note": 73,
      "start": 33.1688,
      "duration": 0.1125,
      "velocity": 116,
      "chip": "ym2612"
    },
    {
      "channel": 4,
      "note": 61,
      "start": 33.2847,
      "duration": 0.0632,
      "velocity": 122,
      "chip": "ym2612"
    },
    {
      "channel": 0,
      "note": 61,
      "start": 33.2873,
      "duration": 0.0604,
      "velocity": 127,
      "chip": "ym2612"
    },
    {
      "channel": 2,
      "note": 68,
      "start": 33.2905,
      "duration": 0.1074,
      "velocity": 116,
      "chip": "ym2612"
    },
    {
      "channel": 4,
      "note": 61,
      "start": 33.4014,
      "duration": 0.0632,
      "velocity": 122,
      "chip": "ym2612"
    },
    {
      "channel": 0,
      "note": 61,
      "start": 33.4043,
      "duration": 0.06,
      "velocity": 127,
      "chip": "ym2612"
    },
    {
      "channel": 2,
      "note": 61,
      "start": 33.4075,
      "duration": 0.1237,
      "velocity": 116,
      "chip": "ym2612"
    },
    {
      "channel": 4,
      "note": 61,
      "start": 33.5376,
      "duration": 0.0656,
      "velocity": 122,
      "chip": "ym2612"
    },
    {
      "channel": 1,
      "note": 49,
      "start": 33.5402,
      "duration": 0.0629,
      "velocity": 111,
      "chip": "ym2612"
    },
    {
      "channel": 2,
      "note": 64,
      "start": 33.5429,
      "duration": 0.0271,
      "velocity": 116,
      "chip": "ym2612"
    },
    {
      "channel": 2,
      "note": 63,
      "start": 33.5731,
      "duration": 0.0302,
      "velocity": 116,
      "chip": "ym2612"
    },
    {
      "channel": 4,
      "note": 61,
      "start": 33.606,
      "duration": 0.0379,
      "velocity": 122,
      "chip": "ym2612"
    },
    {
      "channel": 0,
      "note": 61,
      "start": 33.6082,
      "duration": 0.0354,
      "velocity": 127,
      "chip": "ym2612"
    },
    {
      "channel": 2,
      "note": 61,
      "start": 33.6124,
      "duration": 0.0981,
      "velocity": 116,
      "chip": "ym2612"
    },
    {
      "channel": 4,
      "note": 61,
      "start": 33.7168,
      "duration": 0.014,
      "velocity": 122,
      "chip": "ym2612"
    },
    {
      "channel": 0,
      "note": 61,
      "start": 33.7189,
      "duration": 0.0118,
      "velocity": 127,
      "chip": "ym2612"
    },
    {
      "channel": 2,
      "note": 74,
      "start": 33.7217,
      "duration": 0.0183,
      "velocity": 116,
      "chip": "ym2612"
    },
    {
      "channel": 3,
      "note": 49,
      "start": 33.7566,
      "duration": 0.0837,
      "velocity": 116,
      "chip": "ym2612"
    },
    {
      "channel": 4,
      "note": 61,
      "start": 33.7588,
      "duration": 0.0315,
      "velocity": 122,
      "chip": "ym2612"
    },
    {
      "channel": 0,
      "note": 61,
      "start": 33.7609,
      "duration": 0.0292,
      "velocity": 127,
      "chip": "ym2612"
    },
    {
      "channel": 2,
      "note": 62,
      "start": 33.7639,
      "duration": 0.0767,
      "velocity": 116,
      "chip": "ym2612"
    },
    {
      "channel": 3,
      "note": 49,
      "start": 33.8466,
      "duration": 0.0866,
      "velocity": 116,
      "chip": "ym2612"
    },
    {
      "channel": 4,
      "note": 61,
      "start": 33.8488,
      "duration": 0.0345,
      "velocity": 122,
      "chip": "ym2612"
    },
    {
      "channel": 0,
      "note": 61,
      "start": 33.8509,
      "duration": 0.0322,
      "velocity": 127,
      "chip": "ym2612"
    },
    {
      "channel": 2,
      "note": 71,
      "start": 33.8538,
      "duration": 0.0462,
      "velocity": 116,
      "chip": "ym2612"
    },
    {
      "channel": 3,
      "note": 49,
      "start": 33.94,
      "duration": 0.2032,
      "velocity": 116,
      "chip": "ym2612"
    },
    {
      "channel": 4,
      "note": 61,
      "start": 33.9422,
      "duration": 0.0843,
      "velocity": 122,
      "chip": "ym2612"
    },
    {
      "channel": 2,
      "note": 62,
      "start": 33.9451,
      "duration": 0.0816,
      "velocity": 116,
      "chip": "ym2612"
    },
    {
      "channel": 4,
      "note": 61,
      "start": 34.0299,
      "duration": 0.0634,
      "velocity": 122,
      "chip": "ym2612"
    },
    {
      "channel": 0,
      "note": 61,
      "start": 34.0324,
      "duration": 0.0606,
      "velocity": 127,
      "chip": "ym2612"
    },
    {
      "channel": 2,
      "note": 73,
      "start": 34.0358,
      "duration": 0.0742,
      "velocity": 116,
      "chip": "ym2612"
    },
    {
      "channel": 4,
      "note": 61,
      "start": 34.15,
      "duration": 0.0747,
      "velocity": 122,
      "chip": "ym2612"
    },
    {
      "channel": 2,
      "note": 61,
      "start": 34.1532,
      "duration": 0.032,
      "velocity": 116,
      "chip": "ym2612"
    },
    {
      "channel": 2,
      "note": 68,
      "start": 34.1895,
      "duration": 0.0354,
      "velocity": 116,
      "chip": "ym2612"
    },
    {
      "channel": 4,
      "note": 59,
      "start": 34.2312,
      "duration": 0.2035,
      "velocity": 122,
      "chip": "ym2612"
    },
    {
      "channel": 0,
      "note": 61,
      "start": 34.2335,
      "duration": 0.0179,
      "velocity": 127,
      "chip": "ym2612"
    },
    {
      "channel": 1,
      "note": 47,
      "start": 34.2359,
      "duration": 0.1987,
      "velocity": 111,
      "chip": "ym2612"
    },
    {
      "channel": 2,
      "note": 64,
      "start": 34.2387,
      "duration": 0.0795,
      "velocity": 116,
      "chip": "ym2612"
    },
    {
      "channel": 0,
      "note": 61,
      "start": 34.3215,
      "duration": 0.0466,
      "velocity": 127,
      "chip": "ym2612"
    },
    {
      "channel": 2,
      "note": 63,
      "start": 34.3249,
      "duration": 0.11,
      "velocity": 116,
      "chip": "ym2612"
    },
    {
      "channel": 4,
      "note": 61,
      "start": 34.4413,
      "duration": 0.2037,
      "velocity": 122,
      "chip": "ym2612"
    },
    {
      "channel": 1,
      "note": 49,
      "start": 34.4441,
      "duration": 0.2675,
      "velocity": 111,
      "chip": "ym2612"
    },
    {
      "channel": 3,
      "note": 61,
      "start": 34.4469,
      "duration": 0.0147,
      "velocity": 127,
      "chip": "ym2612"
    },
    {
      "channel": 3,
      "note": 73,
      "start": 34.532,
      "duration": 0.113,
      "velocity": 127,
      "chip": "ym2612"
    },
    {
      "channel": 4,
      "note": 61,
      "start": 34.6485,
      "duration": 0.0632,
      "velocity": 122,
      "chip": "ym2612"
    },
    {
      "channel": 0,
      "note": 61,
      "start": 34.6511,
      "duration": 0.0603,
      "velocity": 127,
      "chip": "ym2612"
    },
    {
      "channel": 3,
      "note": 68,
      "start": 34.6538,
      "duration": 0.1076,
      "velocity": 127,
      "chip": "ym2612"
    },
    {
      "channel": 4,
      "note": 61,
      "start": 34.7646,
      "duration": 0.0637,
      "velocity": 122,
      "chip": "ym2612"
    },
    {
      "channel": 0,
      "note": 61,
      "start": 34.7676,
      "duration": 0.0606,
      "velocity": 127,
      "chip": "ym2612"
    },
    {
      "channel": 3,
      "note": 61,
      "start": 34.7703,
      "duration": 0.1079,
      "velocity": 127,
      "chip": "ym2612"
    },
    {
      "channel": 4,
      "note": 61,
      "start": 34.8846,
      "duration": 0.0756,
      "velocity": 122,
      "chip": "ym2612"
    },
    {
      "channel": 1,
      "note": 49,
      "start": 34.8872,
      "duration": 0.0727,
      "velocity": 111,
      "chip": "ym2612"
    },
    {
      "channel": 3,
      "note": 64,
      "start": 34.8896,
      "duration": 0.0275,
      "velocity": 127,
      "chip": "ym2612"
    },
    {
      "channel": 3,
      "note": 63,
      "start": 34.92,
      "duration": 0.0401,
      "velocity": 127,
      "chip": "ym2612"
    },
    {
      "channel": 4,
      "note": 61,
      "start": 34.9636,
      "duration": 0.0464,
      "velocity": 122,
      "chip": "ym2612"
    },
    {
      "channel": 0,
      "note": 61,
      "start": 34.9662,
      "duration": 0.0437,
      "velocity": 127,
      "chip": "ym2612"
    },
    {
      "channel": 3,
      "note": 61,
      "start": 34.9689,
      "duration": 0.1078,
      "velocity": 127,
      "chip": "ym2612"
    },
    {
      "channel": 4,
      "note": 61,
      "start": 35.083,
      "duration": 0.0141,
      "velocity": 122,
      "chip": "ym2612"
    },
    {
      "channel": 0,
      "note": 61,
      "start": 35.0851,
      "duration": 0.012,
      "velocity": 127,
      "chip": "ym2612"
    },
    {
      "channel": 3,
      "note": 74,
      "start": 35.0877,
      "duration": 0.014,
      "velocity": 127,
      "chip": "ym2612"
    },
    {
      "channel": 2,
      "note": 49,
      "start": 35.1229,
      "duration": 0.084,
      "velocity": 116,
      "chip": "ym2612"
    },
    {
      "channel": 4,
      "note": 61,
      "start": 35.125,
      "duration": 0.0161,
      "velocity": 122,
      "chip": "ym2612"
    },
    {
      "channel": 0,
      "note": 61,
      "start": 35.1273,
      "duration": 0.0136,
      "velocity": 127,
      "chip": "ym2612"
    },
    {
      "channel": 3,
      "note": 62,
      "start": 35.1298,
      "duration": 0.0768,
      "velocity": 127,
      "chip": "ym2612"
    },
    {
      "channel": 2,
      "note": 49,
      "start": 35.2132,
      "duration": 0.0871,
      "velocity": 116,
      "chip": "ym2612"
    },
    {
      "channel": 4,
      "note": 61,
      "start": 35.2155,
      "duration": 0.0183,
      "velocity": 122,
      "chip": "ym2612"
    },
    {
      "channel": 0,
      "note": 61,
      "start": 35.2177,
      "duration": 0.0158,
      "velocity": 127,
      "chip": "ym2612"
    },
    {
      "channel": 3,
      "note": 71,
      "start": 35.2206,
      "duration": 0.0463,
      "velocity": 127,
      "chip": "ym2612"
    },
    {
      "channel": 2,
      "note": 49,
      "start": 35.3075,
      "duration": 0.2034,
      "velocity": 116,
      "chip": "ym2612"
    },
    {
      "channel": 4,
      "note": 61,
      "start": 35.31,
      "duration": 0.0842,
      "velocity": 122,
      "chip": "ym2612"
    },
    {
      "channel": 3,
      "note": 62,
      "start": 35.3125,
      "duration": 0.0816,
      "velocity": 127,
      "chip": "ym2612"
    },
    {
      "channel": 4,
      "note": 61,
      "start": 35.3976,
      "duration": 0.0633,
      "velocity": 122,
      "chip": "ym2612"
    },
    {
      "channel": 0,
      "note": 61,
      "start": 35.4001,
      "duration": 0.0605,
      "velocity": 127,
      "chip": "ym2612"
    },
    {
      "channel": 3,
      "note": 73,
      "start": 35.403,
      "duration": 0.0744,
      "velocity": 127,
      "chip": "ym2612"
    },
    {
      "channel": 4,
      "note": 61,
      "start": 35.5172,
      "duration": 0.0643,
      "velocity": 122,
      "chip": "ym2612"
    },
    {
      "channel": 3,
      "note": 61,
      "start": 35.5197,
      "duration": 0.0284,
      "velocity": 127,
      "chip": "ym2612"
    },
    {
      "channel": 3,
      "note": 68,
      "start": 35.5518,
      "duration": 0.0297,
      "velocity": 127,
      "chip": "ym2612"
    },
    {
      "channel": 4,
      "note": 59,
      "start": 35.5875,
      "duration": 0.2179,
      "velocity": 122,
      "chip": "ym2612"
    },
    {
      "channel": 0,
      "note": 61,
      "start": 35.5897,
      "duration": 0.032,
      "velocity": 127,
      "chip": "ym2612"
    },
    {
      "channel": 1,
      "note": 47,
      "start": 35.5922,
      "duration": 0.2128,
      "velocity": 111,
      "chip": "ym2612"
    },
    {
      "channel": 3,
      "note": 64,
      "start": 35.5944,
      "duration": 0.094,
      "velocity": 127,
      "chip": "ym2612"
    },
    {
      "channel": 0,
      "note": 61,
      "start": 35.6917,
      "duration": 0.0466,
      "velocity": 127,
      "chip": "ym2612"
    },
    {
      "channel": 3,
      "note": 63,
      "start": 35.6945,
      "duration": 0.1107,
      "velocity": 127,
      "chip": "ym2612"
    },
    {
      "channel": 4,
      "note": 61,
      "start": 35.8121,
      "duration": 0.2036,
      "velocity": 122,
      "chip": "ym2612"
    },
    {
      "channel": 1,
      "note": 49,
      "start": 35.815,
      "duration": 0.2507,
      "velocity": 111,
      "chip": "ym2612"
    },
    {
      "channel": 3,
      "note": 61,
      "start": 35.8173,
      "duration": 0.0149,
      "velocity": 127,
      "chip": "ym2612"
    },
    {
      "channel": 3,
      "note": 73,
      "start": 35.9026,
      "duration": 0.1131,
      "velocity": 127,
      "chip": "ym2612"
    },
    {
      "channel": 4,
      "note": 61,
      "start": 36.0193,
      "duration": 0.0466,
      "velocity": 122,
      "chip": "ym2612"
    },
    {
      "channel": 0,
      "note": 61,
      "start": 36.0218,
      "duration": 0.0437,
      "velocity": 127,
      "chip": "ym2612"
    },
    {
      "channel": 3,
      "note": 68,
      "start": 36.0245,
      "duration": 0.1076,
      "velocity": 127,
      "chip": "ym2612"
    },
    {
      "channel": 4,
      "note": 61,
      "start": 36.1354,
      "duration": 0.0637,
      "velocity": 122,
      "chip": "ym2612"
    },
    {
      "channel": 0,
      "note": 61,
      "start": 36.1383,
      "duration": 0.0606,
      "velocity": 127,
      "chip": "ym2612"
    },
    {
      "channel": 3,
      "note": 61,
      "start": 36.1414,
      "duration": 0.1074,
      "velocity": 127,
      "chip": "ym2612"
    },
    {
      "channel": 4,
      "note": 61,
      "start": 36.2555,
      "duration": 0.0651,
      "velocity": 122,
      "chip": "ym2612"
    },
    {
      "channel": 1,
      "note": 49,
      "start": 36.2581,
      "duration": 0.0624,
      "velocity": 111,
      "chip": "ym2612"
    },
    {
      "channel": 3,
      "note": 64,
      "start": 36.2605,
      "duration": 0.027,
      "velocity": 127,
      "chip": "ym2612"
    },
    {
      "channel": 3,
      "note": 63,
      "start": 36.2904,
      "duration": 0.0302,
      "velocity": 127,
      "chip": "ym2612"
    },
    {
      "channel": 4,
      "note": 61,
      "start": 36.3239,
      "duration": 0.0567,
      "velocity": 122,
      "chip": "ym2612"
    },
    {
      "channel": 0,
      "note": 61,
      "start": 36.3292,
      "duration": 0.0512,
      "velocity": 127,
      "chip": "ym2612"
    },
    {
      "channel": 3,
      "note": 61,
      "start": 36.3321,
      "duration": 0.0985,
      "velocity": 127,
      "chip": "ym2612"
    },
    {
      "channel": 4,
      "note": 61,
      "start": 36.437,
      "duration": 0.0186,
      "velocity": 122,
      "chip": "ym2612"
    },
    {
      "channel": 0,
      "note": 61,
      "start": 36.439,
      "duration": 0.0164,
      "velocity": 127,
      "chip": "ym2612"
    },
    {
      "channel": 3,
      "note": 74,
      "start": 36.4417,
      "duration": 0.0183,
      "velocity": 127,
      "chip": "ym2612"
    },
    {
      "channel": 2,
      "note": 49,
      "start": 36.4824,
      "duration": 0.0844,
      "velocity": 116,
      "chip": "ym2612"
    },
    {
      "channel": 4,
      "note": 61,
      "start": 36.4847,
      "duration": 0.0166,
      "velocity": 122,
      "chip": "ym2612"
    },
    {
      "channel": 0,
      "note": 61,
      "start": 36.4868,
      "duration": 0.0144,
      "velocity": 127,
      "chip": "ym2612"
    },
    {
      "channel": 3,
      "note": 62,
      "start": 36.4893,
      "duration": 0.0772,
      "velocity": 127,
      "chip": "ym2612"
    },
    {
      "channel": 2,
      "note": 49,
      "start": 36.5731,
      "duration": 0.0874,
      "velocity": 116,
      "chip": "ym2612"
    },
    {
      "channel": 4,
      "note": 61,
      "start": 36.5754,
      "duration": 0.0185,
      "velocity": 122,
      "chip": "ym2612"
    },
    {
      "channel": 0,
      "note": 61,
      "start": 36.5776,
      "duration": 0.0161,
      "velocity": 127,
      "chip": "ym2612"
    },
    {
      "channel": 3,
      "note": 71,
      "start": 36.5801,
      "duration": 0.0303,
      "velocity": 127,
      "chip": "ym2612"
    },
    {
      "channel": 2,
      "note": 49,
      "start": 36.6676,
      "duration": 0.2031,
      "velocity": 116,
      "chip": "ym2612"
    },
    {
      "channel": 4,
      "note": 61,
      "start": 36.6698,
      "duration": 0.0842,
      "velocity": 122,
      "chip": "ym2612"
    },
    {
      "channel": 3,
      "note": 62,
      "start": 36.6725,
      "duration": 0.0813,
      "velocity": 127,
      "chip": "ym2612"
    },
    {
      "channel": 4,
      "note": 61,
      "start": 36.7573,
      "duration": 0.0468,
      "velocity": 122,
      "chip": "ym2612"
    },
    {
      "channel": 0,
      "note": 61,
      "start": 36.7598,
      "duration": 0.044,
      "velocity": 127,
      "chip": "ym2612"
    },
    {
      "channel": 3,
      "note": 73,
      "start": 36.7628,
      "duration": 0.0745,
      "velocity": 127,
      "chip": "ym2612"
    },
    {
      "channel": 4,
      "note": 61,
      "start": 36.8775,
      "duration": 0.068,
      "velocity": 122,
      "chip": "ym2612"
    },
    {
      "channel": 3,
      "note": 61,
      "start": 36.8802,
      "duration": 0.0285,
      "velocity": 127,
      "chip": "ym2612"
    },
    {
      "channel": 3,
      "note": 68,
      "start": 36.9169,
      "duration": 0.0285,
      "velocity": 127,
      "chip": "ym2612"
    },
    {
      "channel": 4,
      "note": 59,
      "start": 36.9519,
      "duration": 0.0688,
      "velocity": 122,
      "chip": "ym2612"
    },
    {
      "channel": 0,
      "note": 61,
      "start": 36.9542,
      "duration": 0.0153,
      "velocity": 127,
      "chip": "ym2612"
    },
    {
      "channel": 1,
      "note": 59,
      "start": 36.9568,
      "duration": 0.0264,
      "velocity": 111,
      "chip": "ym2612"
    },
    {
      "channel": 0,
      "note": 61,
      "start": 36.9906,
      "duration": 0.0167,
      "velocity": 127,
      "chip": "ym2612"
    },
    {
      "channel": 1,
      "note": 60,
      "start": 36.9929,
      "duration": 0.0276,
      "velocity": 111,
      "chip": "ym2612"
    },
    {
      "channel": 4,
      "note": 61,
      "start": 37.0282,
      "duration": 0.1003,
      "velocity": 122,
      "chip": "ym2612"
    },
    {
      "channel": 1,
      "note": 61,
      "start": 37.0307,
      "duration": 0.0977,
      "velocity": 111,
      "chip": "ym2612"
    },
    {
      "channel": 2,
      "note": 61,
      "start": 37.0337,
      "duration": 0.0951,
      "velocity": 101,
      "chip": "ym2612"
    },
    {
      "channel": 4,
      "note": 49,
      "start": 37.1322,
      "duration": 0.2071,
      "velocity": 122,
      "chip": "ym2612"
    },
    {
      "channel": 1,
      "note": 49,
      "start": 37.1353,
      "duration": 0.2038,
      "velocity": 111,
      "chip": "ym2612"
    },
    {
      "channel": 2,
      "note": 49,
      "start": 37.1385,
      "duration": 0.201,
      "velocity": 101,
      "chip": "ym2612"
    },
    {
      "channel": 3,
      "note": 47,
      "start": 37.2533,
      "duration": 0.1792,
      "velocity": 121,
      "chip": "ym2612"
    },
    {
      "channel": 4,
      "note": 53,
      "start": 37.3456,
      "duration": 0.1225,
      "velocity": 122,
      "chip": "ym2612"
    },
    {
      "channel": 1,
      "note": 53,
      "start": 37.3479,
      "duration": 0.1201,
      "velocity": 111,
      "chip": "ym2612"
    },
    {
      "channel": 2,
      "note": 53,
      "start": 37.3505,
      "duration": 0.1177,
      "velocity": 101,
      "chip": "ym2612"
    },
    {
      "channel": 4,
      "note": 54,
      "start": 37.4717,
      "duration": 0.1229,
      "velocity": 122,
      "chip": "ym2612"
    },
    {
      "channel": 1,
      "note": 54,
      "start": 37.4741,
      "duration": 0.1203,
      "velocity": 111,
      "chip": "ym2612"
    },
    {
      "channel": 2,
      "note": 54,
      "start": 37.4767,
      "duration": 0.118,
      "velocity": 101,
      "chip": "ym2612"
    },
    {
      "channel": 3,
      "note": 47,
      "start": 37.5121,
      "duration": 0.1428,
      "velocity": 121,
      "chip": "ym2612"
    },
    {
      "channel": 4,
      "note": 55,
      "start": 37.6013,
      "duration": 0.2035,
      "velocity": 122,
      "chip": "ym2612"
    },
    {
      "channel": 1,
      "note": 55,
      "start": 37.6041,
      "duration": 0.2006,
      "velocity": 111,
      "chip": "ym2612"
    },
    {
      "channel": 2,
      "note": 55,
      "start": 37.607,
      "duration": 0.198,
      "velocity": 101,
      "chip": "ym2612"
    },
    {
      "channel": 4,
      "note": 56,
      "start": 37.8113,
      "duration": 0.1291,
      "velocity": 122,
      "chip": "ym2612"
    },
    {
      "channel": 0,
      "note": 54,
      "start": 37.8139,
      "duration": 0.0355,
      "velocity": 127,
      "chip": "ym2612"
    },
    {
      "channel": 1,
      "note": 56,
      "start": 37.8163,
      "duration": 0.1238,
      "velocity": 111,
      "chip": "ym2612"
    },
    {
      "channel": 2,
      "note": 56,
      "start": 37.819,
      "duration": 0.1215,
      "velocity": 101,
      "chip": "ym2612"
    },
    {
      "channel": 0,
      "note": 55,
      "start": 37.8564,
      "duration": 0.0837,
      "velocity": 127,
      "chip": "ym2612"
    },
    {
      "channel": 3,
      "note": 47,
      "start": 37.8596,
      "duration": 0.1565,
      "velocity": 121,
      "chip": "ym2612"
    },
    {
      "channel": 4,
      "note": 57,
      "start": 37.9466,
      "duration": 0.1227,
      "velocity": 122,
      "chip": "ym2612"
    },
    {
      "channel": 0,
      "note": 56,
      "start": 37.9486,
      "duration": 0.084,
      "velocity": 127,
      "chip": "ym2612"
    },
    {
      "channel": 1,
      "note": 57,
      "start": 37.951,
      "duration": 0.1183,
      "velocity": 111,
      "chip": "ym2612"
    },
    {
      "channel": 2,
      "note": 57,
      "start": 37.9535,
      "duration": 0.1159,
      "velocity": 101,
      "chip": "ym2612"
    },
    {
      "channel": 0,
      "note": 57,
      "start": 38.0394,
      "duration": 0.0298,
      "velocity": 127,
      "chip": "ym2612"
    },
    {
      "channel": 4,
      "note": 58,
      "start": 38.0729,
      "duration": 0.033,
      "velocity": 122,
      "chip": "ym2612"
    },
    {
      "channel": 0,
      "note": 58,
      "start": 38.075,
      "duration": 0.0308,
      "velocity": 127,
      "chip": "ym2612"
    },
    {
      "channel": 1,
      "note": 58,
      "start": 38.0778,
      "duration": 0.0281,
      "velocity": 111,
      "chip": "ym2612"
    },
    {
      "channel": 2,
      "note": 58,
      "start": 38.0804,
      "duration": 0.0256,
      "velocity": 101,
      "chip": "ym2612"
    },
    {
      "channel": 4,
      "note": 59,
      "start": 38.1124,
      "duration": 0.0819,
      "velocity": 122,
      "chip": "ym2612"
    },
    {
      "channel": 0,
      "note": 59,
      "start": 38.1147,
      "duration": 0.0793,
      "velocity": 127,
      "chip": "ym2612"
    },
    {
      "channel": 1,
      "note": 59,
      "start": 38.1171,
      "duration": 0.0771,
      "velocity": 111,
      "chip": "ym2612"
    },
    {
      "channel": 2,
      "note": 59,
      "start": 38.1196,
      "duration": 0.0749,
      "velocity": 101,
      "chip": "ym2612"
    },
    {
      "channel": 3,
      "note": 47,
      "start": 38.1235,
      "duration": 0.1063,
      "velocity": 121,
      "chip": "ym2612"
    },
    {
      "channel": 4,
      "note": 60,
      "start": 38.2007,
      "duration": 0.0338,
      "velocity": 122,
      "chip": "ym2612"
    },
    {
      "channel": 0,
      "note": 60,
      "start": 38.2028,
      "duration": 0.0315,
      "velocity": 127,
      "chip": "ym2612"
    },
    {
      "channel": 1,
      "note": 60,
      "start": 38.205,
      "duration": 0.0293,
      "velocity": 111,
      "chip": "ym2612"
    },
    {
      "channel": 2,
      "note": 60,
      "start": 38.2076,
      "duration": 0.0269,
      "velocity": 101,
      "chip": "ym2612"
    },
    {
      "channel": 4,
      "note": 61,
      "start": 38.2415,
      "duration": 0.0838,
      "velocity": 122,
      "chip": "ym2612"
    },
    {
      "channel": 0,
      "note": 61,
      "start": 38.2438,
      "duration": 0.1978,
      "velocity": 127,
      "chip": "ym2612"
    },
    {
      "channel": 1,
      "note": 61,
      "start": 38.2463,
      "duration": 0.0788,
      "velocity": 111,
      "chip": "ym2612"
    },
    {
      "channel": 2,
      "note": 61,
      "start": 38.249,
      "duration": 0.0765,
      "velocity": 101,
      "chip": "ym2612"
    },
    {
      "channel": 4,
      "note": 49,
      "start": 38.3293,
      "duration": 0.2228,
      "velocity": 122,
      "chip": "ym2612"
    },
    {
      "channel": 1,
      "note": 49,
      "start": 38.3323,
      "duration": 0.2196,
      "velocity": 111,
      "chip": "ym2612"
    },
    {
      "channel": 2,
      "note": 49,
      "start": 38.3355,
      "duration": 0.2169,
      "velocity": 101,
      "chip": "ym2612"
    },
    {
      "channel": 3,
      "note": 47,
      "start": 38.4498,
      "duration": 0.1956,
      "velocity": 121,
      "chip": "ym2612"
    },
    {
      "channel": 4,
      "note": 53,
      "start": 38.5584,
      "duration": 0.1231,
      "velocity": 122,
      "chip": "ym2612"
    },
    {
      "channel": 1,
      "note": 53,
      "start": 38.5608,
      "duration": 0.1206,
      "velocity": 111,
      "chip": "ym2612"
    },
    {
      "channel": 2,
      "note": 53,
      "start": 38.5634,
      "duration": 0.1182,
      "velocity": 101,
      "chip": "ym2612"
    },
    {
      "channel": 4,
      "note": 54,
      "start": 38.6851,
      "duration": 0.1228,
      "velocity": 122,
      "chip": "ym2612"
    },
    {
      "channel": 1,
      "note": 54,
      "start": 38.6874,
      "duration": 0.1202,
      "velocity": 111,
      "chip": "ym2612"
    },
    {
      "channel": 2,
      "note": 54,
      "start": 38.6901,
      "duration": 0.1179,
      "velocity": 101,
      "chip": "ym2612"
    },
    {
      "channel": 3,
      "note": 47,
      "start": 38.7255,
      "duration": 0.1424,
      "velocity": 121,
      "chip": "ym2612"
    },
    {
      "channel": 4,
      "note": 55,
      "start": 38.8143,
      "duration": 0.2037,
      "velocity": 122,
      "chip": "ym2612"
    },
    {
      "channel": 1,
      "note": 55,
      "start": 38.8167,
      "duration": 0.2011,
      "velocity": 111,
      "chip": "ym2612"
    },
    {
      "channel": 2,
      "note": 55,
      "start": 38.8194,
      "duration": 0.1988,
      "velocity": 101,
      "chip": "ym2612"
    },
    {
      "channel": 4,
      "note": 56,
      "start": 39.0244,
      "duration": 0.1233,
      "velocity": 122,
      "chip": "ym2612"
    },
    {
      "channel": 0,
      "note": 54,
      "start": 39.0268,
      "duration": 0.0302,
      "velocity": 127,
      "chip": "ym2612"
    },
    {
      "channel": 1,
      "note": 56,
      "start": 39.029,
      "duration": 0.1185,
      "velocity": 111,
      "chip": "ym2612"
    },
    {
      "channel": 2,
      "note": 56,
      "start": 39.0316,
      "duration": 0.1163,
      "velocity": 101,
      "chip": "ym2612"
    },
    {
      "channel": 0,
      "note": 55,
      "start": 39.0634,
      "duration": 0.084,
      "velocity": 127,
      "chip": "ym2612"
    },
    {
      "channel": 3,
      "note": 47,
      "start": 39.0668,
      "duration": 0.1575,
      "velocity": 121,
      "chip": "ym2612"
    },
    {
      "channel": 4,
      "note": 57,
      "start": 39.154,
      "duration": 0.1401,
      "velocity": 122,
      "chip": "ym2612"
    },
    {
      "channel": 0,
      "note": 56,
      "start": 39.156,
      "duration": 0.1014,
      "velocity": 127,
      "chip": "ym2612"
    },
    {
      "channel": 1,
      "note": 57,
      "start": 39.1587,
      "duration": 0.1354,
      "velocity": 111,
      "chip": "ym2612"
    },
    {
      "channel": 2,
      "note": 57,
      "start": 39.1615,
      "duration": 0.1327,
      "velocity": 101,
      "chip": "ym2612"
    },
    {
      "channel": 0,
      "note": 57,
      "start": 39.2645,
      "duration": 0.0295,
      "velocity": 127,
      "chip": "ym2612"
    },
    {
      "channel": 4,
      "note": 58,
      "start": 39.2978,
      "duration": 0.0329,
      "velocity": 122,
      "chip": "ym2612"
    },
    {
      "channel": 0,
      "note": 58,
      "start": 39.3003,
      "duration": 0.0303,
      "velocity": 127,
      "chip": "ym2612"
    },
    {
      "channel": 1,
      "note": 58,
      "start": 39.3029,
      "duration": 0.0278,
      "velocity": 111,
      "chip": "ym2612"
    },
    {
      "channel": 2,
      "note": 58,
      "start": 39.3057,
      "duration": 0.0252,
      "velocity": 101,
      "chip": "ym2612"
    },
    {
      "channel": 4,
      "note": 59,
      "start": 39.337,
      "duration": 0.0837,
      "velocity": 122,
      "chip": "ym2612"
    },
    {
      "channel": 0,
      "note": 59,
      "start": 39.3394,
      "duration": 0.081,
      "velocity": 127,
      "chip": "ym2612"
    },
    {
      "channel": 1,
      "note": 59,
      "start": 39.3418,
      "duration": 0.0787,
      "velocity": 111,
      "chip": "ym2612"
    },
    {
      "channel": 2,
      "note": 59,
      "start": 39.3442,
      "duration": 0.0767,
      "velocity": 101,
      "chip": "ym2612"
    },
    {
      "channel": 3,
      "note": 47,
      "start": 39.3479,
      "duration": 0.1486,
      "velocity": 121,
      "chip": "ym2612"
    },
    {
      "channel": 4,
      "note": 60,
      "start": 39.427,
      "duration": 0.0863,
      "velocity": 122,
      "chip": "ym2612"
    },
    {
      "channel": 0,
      "note": 60,
      "start": 39.429,
      "duration": 0.0841,
      "velocity": 127,
      "chip": "ym2612"
    },
    {
      "channel": 1,
      "note": 60,
      "start": 39.4313,
      "duration": 0.0819,
      "velocity": 111,
      "chip": "ym2612"
    },
    {
      "channel": 2,
      "note": 60,
      "start": 39.4339,
      "duration": 0.0796,
      "velocity": 101,
      "chip": "ym2612"
    },
    {
      "channel": 4,
      "note": 61,
      "start": 39.5201,
      "duration": 0.0874,
      "velocity": 122,
      "chip": "ym2612"
    },
    {
      "channel": 0,
      "note": 61,
      "start": 39.5223,
      "duration": 0.2014,
      "velocity": 127,
      "chip": "ym2612"
    },
    {
      "channel": 1,
      "note": 61,
      "start": 39.5248,
      "duration": 0.0825,
      "velocity": 111,
      "chip": "ym2612"
    },
    {
      "channel": 2,
      "note": 61,
      "start": 39.5275,
      "duration": 0.0802,
      "velocity": 101,
      "chip": "ym2612"
    },
    {
      "channel": 4,
      "note": 49,
      "start": 39.6111,
      "duration": 0.2073,
      "velocity": 122,
      "chip": "ym2612"
    },
    {
      "channel": 1,
      "note": 49,
      "start": 39.6141,
      "duration": 0.2041,
      "velocity": 111,
      "chip": "ym2612"
    },
    {
      "channel": 2,
      "note": 49,
      "start": 39.6172,
      "duration": 0.2014,
      "velocity": 101,
      "chip": "ym2612"
    },
    {
      "channel": 3,
      "note": 47,
      "start": 39.7321,
      "duration": 0.1796,
      "velocity": 121,
      "chip": "ym2612"
    },
    {
      "channel": 4,
      "note": 53,
      "start": 39.8249,
      "duration": 0.1275,
      "velocity": 122,
      "chip": "ym2612"
    },
    {
      "channel": 1,
      "note": 53,
      "start": 39.8273,
      "duration": 0.1249,
      "velocity": 111,
      "chip": "ym2612"
    },
    {
      "channel": 2,
      "note": 53,
      "start": 39.8298,
      "duration": 0.1227,
      "velocity": 101,
      "chip": "ym2612"
    },
    {
      "channel": 4,
      "note": 54,
      "start": 39.956,
      "duration": 0.1335,
      "velocity": 122,
      "chip": "ym2612"
    },
    {
      "channel": 1,
      "note": 54,
      "start": 39.9585,
      "duration": 0.1308,
      "velocity": 111,
      "chip": "ym2612"
    },
    {
      "channel": 2,
      "note": 54,
      "start": 39.9611,
      "duration": 0.1286,
      "velocity": 101,
      "chip": "ym2612"
    },
    {
      "channel": 3,
      "note": 47,
      "start": 40.0036,
      "duration": 0.146,
      "velocity": 121,
      "chip": "ym2612"
    },
    {
      "channel": 4,
      "note": 55,
      "start": 40.0959,
      "duration": 0.2039,
      "velocity": 122,
      "chip": "ym2612"
    },
    {
      "channel": 1,
      "note": 55,
      "start": 40.0983,
      "duration": 0.2013,
      "velocity": 111,
      "chip": "ym2612"
    },
    {
      "channel": 2,
      "note": 55,
      "start": 40.101,
      "duration": 0.199,
      "velocity": 101,
      "chip": "ym2612"
    },
    {
      "channel": 4,
      "note": 56,
      "start": 40.3061,
      "duration": 0.1238,
      "velocity": 122,
      "chip": "ym2612"
    },
    {
      "channel": 0,
      "note": 54,
      "start": 40.3086,
      "duration": 0.0312,
      "velocity": 127,
      "chip": "ym2612"
    },
    {
      "channel": 1,
      "note": 56,
      "start": 40.3109,
      "duration": 0.119,
      "velocity": 111,
      "chip": "ym2612"
    },
    {
      "channel": 2,
      "note": 56,
      "start": 40.3136,
      "duration": 0.1166,
      "velocity": 101,
      "chip": "ym2612"
    },
    {
      "channel": 0,
      "note": 55,
      "start": 40.3461,
      "duration": 0.0835,
      "velocity": 127,
      "chip": "ym2612"
    },
    {
      "channel": 3,
      "note": 47,
      "start": 40.3493,
      "duration": 0.158,
      "velocity": 121,
      "chip": "ym2612"
    },
    {
      "channel": 4,
      "note": 57,
      "start": 40.4363,
      "duration": 0.1244,
      "velocity": 122,
      "chip": "ym2612"
    },
    {
      "channel": 0,
      "note": 56,
      "start": 40.4384,
      "duration": 0.0855,
      "velocity": 127,
      "chip": "ym2612"
    },
    {
      "channel": 1,
      "note": 57,
      "start": 40.4407,
      "duration": 0.1199,
      "velocity": 111,
      "chip": "ym2612"
    },
    {
      "channel": 2,
      "note": 57,
      "start": 40.4434,
      "duration": 0.1174,
      "velocity": 101,
      "chip": "ym2612"
    },
    {
      "channel": 0,
      "note": 57,
      "start": 40.5306,
      "duration": 0.0299,
      "velocity": 127,
      "chip": "ym2612"
    },
    {
      "channel": 4,
      "note": 58,
      "start": 40.5643,
      "duration": 0.0416,
      "velocity": 122,
      "chip": "ym2612"
    },
    {
      "channel": 0,
      "note": 58,
      "start": 40.5664,
      "duration": 0.0392,
      "velocity": 127,
      "chip": "ym2612"
    },
    {
      "channel": 1,
      "note": 58,
      "start": 40.5692,
      "duration": 0.0365,
      "velocity": 111,
      "chip": "ym2612"
    },
    {
      "channel": 2,
      "note": 58,
      "start": 40.5723,
      "duration": 0.0337,
      "velocity": 101,
      "chip": "ym2612"
    },
    {
      "channel": 4,
      "note": 59,
      "start": 40.6126,
      "duration": 0.0878,
      "velocity": 122,
      "chip": "ym2612"
    },
    {
      "channel": 0,
      "note": 59,
      "start": 40.6147,
      "duration": 0.0854,
      "velocity": 127,
      "chip": "ym2612"
    },
    {
      "channel": 1,
      "note": 59,
      "start": 40.617,
      "duration": 0.0832,
      "velocity": 111,
      "chip": "ym2612"
    },
    {
      "channel": 2,
      "note": 59,
      "start": 40.6196,
      "duration": 0.081,
      "velocity": 101,
      "chip": "ym2612"
    },
    {
      "channel": 3,
      "note": 47,
      "start": 40.6234,
      "duration": 0.113,
      "velocity": 121,
      "chip": "ym2612"
    },
    {
      "channel": 4,
      "note": 60,
      "start": 40.707,
      "duration": 0.034,
      "velocity": 122,
      "chip": "ym2612"
    },
    {
      "channel": 0,
      "note": 60,
      "start": 40.7091,
      "duration": 0.0318,
      "velocity": 127,
      "chip": "ym2612"
    },
    {
      "channel": 1,
      "note": 60,
      "start": 40.7114,
      "duration": 0.0295,
      "velocity": 111,
      "chip": "ym2612"
    },
    {
      "channel": 2,
      "note": 60,
      "start": 40.7141,
      "duration": 0.0271,
      "velocity": 101,
      "chip": "ym2612"
    },
    {
      "channel": 4,
      "note": 61,
      "start": 40.7475,
      "duration": 0.0845,
      "velocity": 122,
      "chip": "ym2612"
    },
    {
      "channel": 0,
      "note": 61,
      "start": 40.7501,
      "duration": 0.1983,
      "velocity": 127,
      "chip": "ym2612"
    },
    {
      "channel": 1,
      "note": 61,
      "start": 40.7526,
      "duration": 0.0792,
      "velocity": 111,
      "chip": "ym2612"
    },
    {
      "channel": 2,
      "note": 61,
      "start": 40.7552,
      "duration": 0.077,
      "velocity": 101,
      "chip": "ym2612"
    },
    {
      "channel": 4,
      "note": 49,
      "start": 40.8356,
      "duration": 0.2073,
      "velocity": 122,
      "chip": "ym2612"
    },
    {
      "channel": 1,
      "note": 49,
      "start": 40.8387,
      "duration": 0.2041,
      "velocity": 111,
      "chip": "ym2612"
    },
    {
      "channel": 2,
      "note": 49,
      "start": 40.8418,
      "duration": 0.2013,
      "velocity": 101,
      "chip": "ym2612"
    },
    {
      "channel": 3,
      "note": 47,
      "start": 40.9567,
      "duration": 0.1796,
      "velocity": 121,
      "chip": "ym2612"
    },
    {
      "channel": 4,
      "note": 53,
      "start": 41.0492,
      "duration": 0.1234,
      "velocity": 122,
      "chip": "ym2612"
    },
    {
      "channel": 1,
      "note": 53,
      "start": 41.0517,
      "duration": 0.1209,
      "velocity": 111,
      "chip": "ym2612"
    },
    {
      "channel": 2,
      "note": 53,
      "start": 41.0541,
      "duration": 0.1186,
      "velocity": 101,
      "chip": "ym2612"
    },
    {
      "channel": 4,
      "note": 54,
      "start": 41.1762,
      "duration": 0.1397,
      "velocity": 122,
      "chip": "ym2612"
    },
    {
      "channel": 1,
      "note": 54,
      "start": 41.1786,
      "duration": 0.1371,
      "velocity": 111,
      "chip": "ym2612"
    },
    {
      "channel": 2,
      "note": 54,
      "start": 41.1812,
      "duration": 0.1349,
      "velocity": 101,
      "chip": "ym2612"
    },
    {
      "channel": 3,
      "note": 47,
      "start": 41.2168,
      "duration": 0.1427,
      "velocity": 121,
      "chip": "ym2612"
    },
    {
      "channel": 4,
      "note": 55,
      "start": 41.3226,
      "duration": 0.2037,
      "velocity": 122,
      "chip": "ym2612"
    },
    {
      "channel": 1,
      "note": 55,
      "start": 41.325,
      "duration": 0.2012,
      "velocity": 111,
      "chip": "ym2612"
    },
    {
      "channel": 2,
      "note": 55,
      "start": 41.3276,
      "duration": 0.1989,
      "velocity": 101,
      "chip": "ym2612"
    },
    {
      "channel": 4,
      "note": 56,
      "start": 41.5331,
      "duration": 0.1233,
      "velocity": 122,
      "chip": "ym2612"
    },
    {
      "channel": 1,
      "note": 56,
      "start": 41.5355,
      "duration": 0.1208,
      "velocity": 111,
      "chip": "ym2612"
    },
    {
      "channel": 2,
      "note": 56,
      "start": 41.538,
      "duration": 0.1186,
      "velocity": 101,
      "chip": "ym2612"
    },
    {
      "channel": 3,
      "note": 47,
      "start": 41.5737,
      "duration": 0.1595,
      "velocity": 121,
      "chip": "ym2612"
    },
    {
      "channel": 4,
      "note": 57,
      "start": 41.6628,
      "duration": 0.1223,
      "velocity": 122,
      "chip": "ym2612"
    },
    {
      "channel": 1,
      "note": 57,
      "start": 41.6653,
      "duration": 0.1197,
      "velocity": 111,
      "chip": "ym2612"
    },
    {
      "channel": 2,
      "note": 57,
      "start": 41.6679,
      "duration": 0.1173,
      "velocity": 101,
      "chip": "ym2612"
    },
    {
      "channel": 4,
      "note": 58,
      "start": 41.7913,
      "duration": 0.033,
      "velocity": 122,
      "chip": "ym2612"
    },
    {
      "channel": 1,
      "note": 58,
      "start": 41.7939,
      "duration": 0.0301,
      "velocity": 111,
      "chip": "ym2612"
    },
    {
      "channel": 2,
      "note": 58,
      "start": 41.7967,
      "duration": 0.0279,
      "velocity": 101,
      "chip": "ym2612"
    },
    {
      "channel": 4,
      "note": 59,
      "start": 41.8313,
      "duration": 0.0328,
      "velocity": 122,
      "chip": "ym2612"
    },
    {
      "channel": 1,
      "note": 59,
      "start": 41.8341,
      "duration": 0.03,
      "velocity": 111,
      "chip": "ym2612"
    },
    {
      "channel": 2,
      "note": 59,
      "start": 41.8369,
      "duration": 0.0273,
      "velocity": 101,
      "chip": "ym2612"
    },
    {
      "channel": 3,
      "note": 47,
      "start": 41.8412,
      "duration": 0.0563,
      "velocity": 121,
      "chip": "ym2612"
    },
    {
      "channel": 4,
      "note": 60,
      "start": 41.8705,
      "duration": 0.0363,
      "velocity": 122,
      "chip": "ym2612"
    },
    {
      "channel": 1,
      "note": 60,
      "start": 41.8732,
      "duration": 0.0335,
      "velocity": 111,
      "chip": "ym2612"
    },
    {
      "channel": 2,
      "note": 60,
      "start": 41.8757,
      "duration": 0.0312,
      "velocity": 101,
      "chip": "ym2612"
    },
    {
      "channel": 0,
      "note": 49,
      "start": 41.9132,
      "duration": 0.2508,
      "velocity": 122,
      "chip": "ym2612"
    },
    {
      "channel": 4,
      "note": 49,
      "start": 41.9156,
      "duration": 0.0083,
      "velocity": 122,
      "chip": "ym2612"
    },
    {
      "channel": 3,
      "note": 61,
      "start": 41.9188,
      "duration": 1.2886,
      "velocity": 127,
      "chip": "ym2612"
    },
    {
      "channel": 2,
      "note": 49,
      "start": 41.9225,
      "duration": 0.0417,
      "velocity": 101,
      "chip": "ym2612"
    },
    {
      "channel": 4,
      "note": 49,
      "start": 42.0006,
      "duration": 0.0135,
      "velocity": 122,
      "chip": "ym2612"
    },
    {
      "channel": 1,
      "note": 49,
      "start": 42.1177,
      "duration": 0.0131,
      "velocity": 127,
      "chip": "ym2612"
    },
    {
      "channel": 2,
      "note": 49,
      "start": 42.1208,
      "duration": 0.11,
      "velocity": 101,
      "chip": "ym2612"
    },
    {
      "channel": 1,
      "note": 49,
      "start": 42.234,
      "duration": 0.0134,
      "velocity": 127,
      "chip": "ym2612"
    },
    {
      "channel": 0,
      "note": 49,
      "start": 42.3535,
      "duration": 0.2046,
      "velocity": 122,
      "chip": "ym2612"
    },
    {
      "channel": 4,
      "note": 49,
      "start": 42.3559,
      "duration": 0.0041,
      "velocity": 122,
      "chip": "ym2612"
    },
    {
      "channel": 2,
      "note": 49,
      "start": 42.3587,
      "duration": 0.0831,
      "velocity": 101,
      "chip": "ym2612"
    },
    {
      "channel": 4,
      "note": 49,
      "start": 42.4449,
      "duration": 0.0133,
      "velocity": 122,
      "chip": "ym2612"
    },
    {
      "channel": 1,
      "note": 49,
      "start": 42.5615,
      "duration": 0.0133,
      "velocity": 127,
      "chip": "ym2612"
    },
    {
      "channel": 2,
      "note": 49,
      "start": 42.5647,
      "duration": 0.1437,
      "velocity": 101,
      "chip": "ym2612"
    },
    {
      "channel": 1,
      "note": 49,
      "start": 42.678,
      "duration": 0.0301,
      "velocity": 127,
      "chip": "ym2612"
    },
    {
      "channel": 4,
      "note": 49,
      "start": 42.7984,
      "duration": 0.1039,
      "velocity": 116,
      "chip": "ym2612"
    },
    {
      "channel": 1,
      "note": 49,
      "start": 42.8007,
      "duration": 0.0098,
      "velocity": 127,
      "chip": "ym2612"
    },
    {
      "channel": 2,
      "note": 49,
      "start": 42.8035,
      "duration": 0.099,
      "velocity": 101,
      "chip": "ym2612"
    },
    {
      "channel": 4,
      "note": 49,
      "start": 42.9086,
      "duration": 0.0881,
      "velocity": 116,
      "chip": "ym2612"
    },
    {
      "channel": 1,
      "note": 49,
      "start": 42.9112,
      "duration": 0.0022,
      "velocity": 127,
      "chip": "ym2612"
    },
    {
      "channel": 4,
      "note": 49,
      "start": 43.0042,
      "duration": 0.2033,
      "velocity": 116,
      "chip": "ym2612"
    },
    {
      "channel": 0,
      "note": 49,
      "start": 43.0068,
      "duration": 0.0046,
      "velocity": 122,
      "chip": "ym2612"
    },
    {
      "channel": 2,
      "note": 49,
      "start": 43.0095,
      "duration": 0.0814,
      "velocity": 101,
      "chip": "ym2612"
    },
    {
      "channel": 1,
      "note": 49,
      "start": 43.0941,
      "duration": 0.0134,
      "velocity": 127,
      "chip": "ym2612"
    },
    {
      "channel": 0,
      "note": 49,
      "start": 43.2107,
      "duration": 0.0134,
      "velocity": 122,
      "chip": "ym2612"
    },
    {
      "channel": 2,
      "note": 49,
      "start": 43.2137,
      "duration": 0.1105,
      "velocity": 101,
      "chip": "ym2612"
    },
    {
      "channel": 0,
      "note": 49,
      "start": 43.3273,
      "duration": 0.0134,
      "velocity": 122,
      "chip": "ym2612"
    },
    {
      "channel": 1,
      "note": 47,
      "start": 43.4473,
      "duration": 0.0901,
      "velocity": 122,
      "chip": "ym2612"
    },
    {
      "channel": 3,
      "note": 49,
      "start": 43.4502,
      "duration": 0.0212,
      "velocity": 127,
      "chip": "ym2612"
    },
    {
      "channel": 2,
      "note": 49,
      "start": 43.4528,
      "duration": 0.0386,
      "velocity": 101,
      "chip": "ym2612"
    },
    {
      "channel": 3,
      "note": 49,
      "start": 43.4977,
      "duration": 0.0207,
      "velocity": 127,
      "chip": "ym2612"
    },
    {
      "channel": 1,
      "note": 49,
      "start": 43.5435,
      "duration": 0.266,
      "velocity": 122,
      "chip": "ym2612"
    },
    {
      "channel": 0,
      "note": 49,
      "start": 43.5457,
      "duration": 0.0079,
      "velocity": 122,
      "chip": "ym2612"
    },
    {
      "channel": 2,
      "note": 49,
      "start": 43.5489,
      "duration": 0.0609,
      "velocity": 101,
      "chip": "ym2612"
    },
    {
      "channel": 0,
      "note": 49,
      "start": 43.6294,
      "duration": 0.0301,
      "velocity": 122,
      "chip": "ym2612"
    },
    {
      "channel": 3,
      "note": 49,
      "start": 43.7631,
      "duration": 0.0132,
      "velocity": 127,
      "chip": "ym2612"
    },
    {
      "channel": 2,
      "note": 49,
      "start": 43.7662,
      "duration": 0.1102,
      "velocity": 101,
      "chip": "ym2612"
    },
    {
      "channel": 3,
      "note": 49,
      "start": 43.8798,
      "duration": 0.0132,
      "velocity": 127,
      "chip": "ym2612"
    },
    {
      "channel": 1,
      "note": 49,
      "start": 43.9988,
      "duration": 0.2041,
      "velocity": 122,
      "chip": "ym2612"
    },
    {
      "channel": 0,
      "note": 49,
      "start": 44.001,
      "duration": 0.0039,
      "velocity": 122,
      "chip": "ym2612"
    },
    {
      "channel": 2,
      "note": 49,
      "start": 44.0038,
      "duration": 0.0827,
      "velocity": 101,
      "chip": "ym2612"
    },
    {
      "channel": 0,
      "note": 49,
      "start": 44.0895,
      "duration": 0.0134,
      "velocity": 122,
      "chip": "ym2612"
    },
    {
      "channel": 3,
      "note": 49,
      "start": 44.2064,
      "duration": 0.0131,
      "velocity": 127,
      "chip": "ym2612"
    },
    {
      "channel": 2,
      "note": 49,
      "start": 44.2095,
      "duration": 0.1269,
      "velocity": 101,
      "chip": "ym2612"
    },
    {
      "channel": 4,
      "note": 49,
      "start": 44.323,
      "duration": 0.1132,
      "velocity": 116,
      "chip": "ym2612"
    },
    {
      "channel": 3,
      "note": 49,
      "start": 44.3256,
      "duration": 0.0106,
      "velocity": 127,
      "chip": "ym2612"
    },
    {
      "channel": 4,
      "note": 49,
      "start": 44.4427,
      "duration": 0.087,
      "velocity": 116,
      "chip": "ym2612"
    },
    {
      "channel": 3,
      "note": 49,
      "start": 44.4449,
      "duration": 0.004,
      "velocity": 127,
      "chip": "ym2612"
    },
    {
      "channel": 2,
      "note": 49,
      "start": 44.4477,
      "duration": 0.0821,
      "velocity": 101,
      "chip": "ym2612"
    },
    {
      "channel": 4,
      "note": 49,
      "start": 44.536,
      "duration": 0.0879,
      "velocity": 116,
      "chip": "ym2612"
    },
    {
      "channel": 3,
      "note": 49,
      "start": 44.5384,
      "duration": 0.0085,
      "velocity": 127,
      "chip": "ym2612"
    },
    {
      "channel": 4,
      "note": 49,
      "start": 44.6312,
      "duration": 0.2202,
      "velocity": 116,
      "chip": "ym2612"
    },
    {
      "channel": 0,
      "note": 49,
      "start": 44.6333,
      "duration": 0.0096,
      "velocity": 122,
      "chip": "ym2612"
    },
    {
      "channel": 2,
      "note": 49,
      "start": 44.6359,
      "duration": 0.0988,
      "velocity": 101,
      "chip": "ym2612"
    },
    {
      "channel": 3,
      "note": 49,
      "start": 44.7384,
      "duration": 0.0129,
      "velocity": 127,
      "chip": "ym2612"
    },
    {
      "channel": 0,
      "note": 49,
      "start": 44.8549,
      "duration": 0.013,
      "velocity": 122,
      "chip": "ym2612"
    },
    {
      "channel": 2,
      "note": 49,
      "start": 44.8579,
      "duration": 0.1102,
      "velocity": 101,
      "chip": "ym2612"
    },
    {
      "channel": 0,
      "note": 49,
      "start": 44.9712,
      "duration": 0.0134,
      "velocity": 122,
      "chip": "ym2612"
    },
    {
      "channel": 1,
      "note": 47,
      "start": 45.0912,
      "duration": 0.0927,
      "velocity": 122,
      "chip": "ym2612"
    },
    {
      "channel": 3,
      "note": 49,
      "start": 45.0936,
      "duration": 0.0074,
      "velocity": 127,
      "chip": "ym2612"
    },
    {
      "channel": 2,
      "note": 49,
      "start": 45.0963,
      "duration": 0.0398,
      "velocity": 101,
      "chip": "ym2612"
    },
    {
      "channel": 4,
      "note": 57,
      "start": 45.099,
      "duration": 0.0369,
      "velocity": 121,
      "chip": "ym2612"
    },
    {
      "channel": 3,
      "note": 49,
      "start": 45.1426,
      "duration": 0.0042,
      "velocity": 127,
      "chip": "ym2612"
    },
    {
      "channel": 4,
      "note": 57,
      "start": 45.1458,
      "duration": 0.0383,
      "velocity": 121,
      "chip": "ym2612"
    },
    {
      "channel": 1,
      "note": 49,
      "start": 45.1907,
      "duration": 0.2657,
      "velocity": 122,
      "chip": "ym2612"
    },
    {
      "channel": 0,
      "note": 49,
      "start": 45.193,
      "duration": 0.0039,
      "velocity": 122,
      "chip": "ym2612"
    },
    {
      "channel": 2,
      "note": 49,
      "start": 45.1959,
      "duration": 0.0607,
      "velocity": 101,
      "chip": "ym2612"
    },
    {
      "channel": 0,
      "note": 49,
      "start": 45.2761,
      "duration": 0.0136,
      "velocity": 122,
      "chip": "ym2612"
    },
    {
      "channel": 3,
      "note": 49,
      "start": 45.3931,
      "duration": 0.0301,
      "velocity": 127,
      "chip": "ym2612"
    },
    {
      "channel": 2,
      "note": 49,
      "start": 45.3963,
      "duration": 0.1104,
      "velocity": 101,
      "chip": "ym2612"
    },
    {
      "channel": 3,
      "note": 49,
      "start": 45.5099,
      "duration": 0.0298,
      "velocity": 127,
      "chip": "ym2612"
    },
    {
      "channel": 1,
      "note": 49,
      "start": 45.6457,
      "duration": 0.2036,
      "velocity": 122,
      "chip": "ym2612"
    },
    {
      "channel": 0,
      "note": 49,
      "start": 45.6478,
      "duration": 0.0039,
      "velocity": 122,
      "chip": "ym2612"
    },
    {
      "channel": 2,
      "note": 49,
      "start": 45.6505,
      "duration": 0.0825,
      "velocity": 101,
      "chip": "ym2612"
    },
    {
      "channel": 0,
      "note": 49,
      "start": 45.736,
      "duration": 0.0134,
      "velocity": 122,
      "chip": "ym2612"
    },
    {
      "channel": 3,
      "note": 49,
      "start": 45.8528,
      "duration": 0.0134,
      "velocity": 127,
      "chip": "ym2612"
    },
    {
      "channel": 2,
      "note": 49,
      "start": 45.8563,
      "duration": 0.1268,
      "velocity": 101,
      "chip": "ym2612"
    },
    {
      "channel": 3,
      "note": 49,
      "start": 45.9694,
      "duration": 0.0135,
      "velocity": 127,
      "chip": "ym2612"
    },
    {
      "channel": 4,
      "note": 49,
      "start": 46.0895,
      "duration": 0.0867,
      "velocity": 116,
      "chip": "ym2612"
    },
    {
      "channel": 3,
      "note": 49,
      "start": 46.0918,
      "duration": 0.0039,
      "velocity": 127,
      "chip": "ym2612"
    },
    {
      "channel": 2,
      "note": 49,
      "start": 46.0944,
      "duration": 0.0821,
      "velocity": 101,
      "chip": "ym2612"
    },
    {
      "channel": 4,
      "note": 49,
      "start": 46.1826,
      "duration": 0.087,
      "velocity": 116,
      "chip": "ym2612"
    },
    {
      "channel": 3,
      "note": 49,
      "start": 46.185,
      "duration": 0.0021,
      "velocity": 127,
      "chip": "ym2612"
    },
    {
      "channel": 4,
      "note": 49,
      "start": 46.2771,
      "duration": 0.2031,
      "velocity": 116,
      "chip": "ym2612"
    },
    {
      "channel": 0,
      "note": 49,
      "start": 46.2793,
      "duration": 0.0039,
      "velocity": 122,
      "chip": "ym2612"
    },
    {
      "channel": 2,
      "note": 49,
      "start": 46.2818,
      "duration": 0.0817,
      "velocity": 101,
      "chip": "ym2612"
    },
    {
      "channel": 3,
      "note": 49,
      "start": 46.3672,
      "duration": 0.0296,
      "velocity": 127,
      "chip": "ym2612"
    },
    {
      "channel": 0,
      "note": 49,
      "start": 46.4833,
      "duration": 0.03,
      "velocity": 122,
      "chip": "ym2612"
    },
    {
      "channel": 2,
      "note": 49,
      "start": 46.4864,
      "duration": 0.1271,
      "velocity": 101,
      "chip": "ym2612"
    },
    {
      "channel": 0,
      "note": 49,
      "start": 46.617,
      "duration": 0.0131,
      "velocity": 122,
      "chip": "ym2612"
    },
    {
      "channel": 1,
      "note": 47,
      "start": 46.7365,
      "duration": 0.0905,
      "velocity": 122,
      "chip": "ym2612"
    },
    {
      "channel": 3,
      "note": 49,
      "start": 46.7389,
      "duration": 0.0158,
      "velocity": 127,
      "chip": "ym2612"
    },
    {
      "channel": 2,
      "note": 49,
      "start": 46.7415,
      "duration": 0.0379,
      "velocity": 101,
      "chip": "ym2612"
    },
    {
      "channel": 4,
      "note": 57,
      "start": 46.7443,
      "duration": 0.035,
      "velocity": 121,
      "chip": "ym2612"
    },
    {
      "channel": 3,
      "note": 49,
      "start": 46.7856,
      "duration": 0.0159,
      "velocity": 127,
      "chip": "ym2612"
    },
    {
      "channel": 4,
      "note": 57,
      "start": 46.7884,
      "duration": 0.0387,
      "velocity": 121,
      "chip": "ym2612"
    },
    {
      "channel": 1,
      "note": 49,
      "start": 46.8338,
      "duration": 0.2659,
      "velocity": 122,
      "chip": "ym2612"
    },
    {
      "channel": 0,
      "note": 49,
      "start": 46.8362,
      "duration": 0.004,
      "velocity": 122,
      "chip": "ym2612"
    },
    {
      "channel": 2,
      "note": 49,
      "start": 46.8391,
      "duration": 0.0607,
      "velocity": 101,
      "chip": "ym2612"
    },
    {
      "channel": 0,
      "note": 49,
      "start": 46.9194,
      "duration": 0.0135,
      "velocity": 122,
      "chip": "ym2612"
    },
    {
      "channel": 3,
      "note": 49,
      "start": 47.0365,
      "duration": 0.0131,
      "velocity": 127,
      "chip": "ym2612"
    },
    {
      "channel": 2,
      "note": 49,
      "start": 47.0396,
      "duration": 0.1102,
      "velocity": 101,
      "chip": "ym2612"
    },
    {
      "channel": 3,
      "note": 49,
      "start": 47.1531,
      "duration": 0.0132,
      "velocity": 127,
      "chip": "ym2612"
    },
    {
      "channel": 1,
      "note": 49,
      "start": 47.2725,
      "duration": 0.221,
      "velocity": 122,
      "chip": "ym2612"
    },
    {
      "channel": 0,
      "note": 49,
      "start": 47.2748,
      "duration": 0.0098,
      "velocity": 122,
      "chip": "ym2612"
    },
    {
      "channel": 2,
      "note": 49,
      "start": 47.2775,
      "duration": 0.0829,
      "velocity": 101,
      "chip": "ym2612"
    },
    {
      "channel": 0,
      "note": 49,
      "start": 47.3633,
      "duration": 0.03,
      "velocity": 122,
      "chip": "ym2612"
    },
    {
      "channel": 3,
      "note": 49,
      "start": 47.4969,
      "duration": 0.0132,
      "velocity": 127,
      "chip": "ym2612"
    },
    {
      "channel": 2,
      "note": 49,
      "start": 47.5,
      "duration": 0.1271,
      "velocity": 101,
      "chip": "ym2612"
    },
    {
      "channel": 4,
      "note": 49,
      "start": 47.6137,
      "duration": 0.1132,
      "velocity": 116,
      "chip": "ym2612"
    },
    {
      "channel": 3,
      "note": 49,
      "start": 47.6163,
      "duration": 0.0106,
      "velocity": 127,
      "chip": "ym2612"
    },
    {
      "channel": 4,
      "note": 49,
      "start": 47.7333,
      "duration": 0.0873,
      "velocity": 116,
      "chip": "ym2612"
    },
    {
      "channel": 3,
      "note": 49,
      "start": 47.7356,
      "duration": 0.0039,
      "velocity": 127,
      "chip": "ym2612"
    },
    {
      "channel": 2,
      "note": 49,
      "start": 47.7382,
      "duration": 0.0826,
      "velocity": 101,
      "chip": "ym2612"
    },
    {
      "channel": 4,
      "note": 49,
      "start": 47.8269,
      "duration": 0.0422,
      "velocity": 116,
      "chip": "ym2612"
    },
    {
      "channel": 3,
      "note": 49,
      "start": 47.8296,
      "duration": 0.002,
      "velocity": 127,
      "chip": "ym2612"
    },
    {
      "channel": 4,
      "note": 49,
      "start": 47.8766,
      "duration": 0.0879,
      "velocity": 116,
      "chip": "ym2612"
    },
    {
      "channel": 0,
      "note": 49,
      "start": 47.8787,
      "duration": 0.0039,
      "velocity": 122,
      "chip": "ym2612"
    },
    {
      "channel": 2,
      "note": 49,
      "start": 47.8816,
      "duration": 0.0365,
      "velocity": 101,
      "chip": "ym2612"
    },
    {
      "channel": 3,
      "note": 49,
      "start": 47.9243,
      "duration": 0.0023,
      "velocity": 127,
      "chip": "ym2612"
    },
    {
      "channel": 0,
      "note": 49,
      "start": 47.9704,
      "duration": 0.0037,
      "velocity": 122,
      "chip": "ym2612"
    },
    {
      "channel": 2,
      "note": 49,
      "start": 47.973,
      "duration": 0.0388,
      "velocity": 101,
      "chip": "ym2612"
    },
    {
      "channel": 0,
      "note": 49,
      "start": 48.0186,
      "duration": 0.009,
      "velocity": 122,
      "chip": "ym2612"
    },
    {
      "channel": 1,
      "note": 47,
      "start": 48.0655,
      "duration": 0.0948,
      "velocity": 122,
      "chip": "ym2612"
    },
    {
      "channel": 3,
      "note": 49,
      "start": 48.068,
      "duration": 0.0084,
      "velocity": 127,
      "chip": "ym2612"
    },
    {
      "channel": 2,
      "note": 49,
      "start": 48.0709,
      "duration": 0.0427,
      "velocity": 101,
      "chip": "ym2612"
    },
    {
      "channel": 3,
      "note": 49,
      "start": 48.1207,
      "duration": 0.0028,
      "velocity": 127,
      "chip": "ym2612"
    },
    {
      "channel": 0,
      "note": 49,
      "start": 48.1673,
      "duration": 0.0042,
      "velocity": 122,
      "chip": "ym2612"
    },
    {
      "channel": 4,
      "note": 49,
      "start": 48.1701,
      "duration": 0.2475,
      "velocity": 111,
      "chip": "ym2612"
    },
    {
      "channel": 0,
      "note": 49,
      "start": 48.2539,
      "duration": 0.0135,
      "velocity": 122,
      "chip": "ym2612"
    },
    {
      "channel": 3,
      "note": 61,
      "start": 48.371,
      "duration": 0.0465,
      "velocity": 127,
      "chip": "ym2612"
    },
    {
      "channel": 3,
      "note": 61,
      "start": 48.4875,
      "duration": 0.0634,
      "velocity": 127,
      "chip": "ym2612"
    },
    {
      "channel": 0,
      "note": 49,
      "start": 48.6069,
      "duration": 0.004,
      "velocity": 122,
      "chip": "ym2612"
    },
    {
      "channel": 4,
      "note": 49,
      "start": 48.6097,
      "duration": 0.0611,
      "velocity": 111,
      "chip": "ym2612"
    },
    {
      "channel": 0,
      "note": 49,
      "start": 48.6407,
      "duration": 0.003,
      "velocity": 122,
      "chip": "ym2612"
    },
    {
      "channel": 3,
      "note": 61,
      "start": 48.6737,
      "duration": 0.058,
      "velocity": 127,
      "chip": "ym2612"
    },
    {
      "channel": 3,
      "note": 61,
      "start": 48.7881,
      "duration": 0.0165,
      "velocity": 127,
      "chip": "ym2612"
    },
    {
      "channel": 2,
      "note": 49,
      "start": 48.8312,
      "duration": 0.0833,
      "velocity": 116,
      "chip": "ym2612"
    },
    {
      "channel": 3,
      "note": 61,
      "start": 48.8338,
      "duration": 0.0138,
      "velocity": 127,
      "chip": "ym2612"
    },
    {
      "channel": 2,
      "note": 49,
      "start": 48.9208,
      "duration": 0.0882,
      "velocity": 116,
      "chip": "ym2612"
    },
    {
      "channel": 3,
      "note": 61,
      "start": 48.9232,
      "duration": 0.0191,
      "velocity": 127,
      "chip": "ym2612"
    },
    {
      "channel": 2,
      "note": 49,
      "start": 49.0161,
      "duration": 0.2034,
      "velocity": 116,
      "chip": "ym2612"
    },
    {
      "channel": 0,
      "note": 49,
      "start": 49.0183,
      "duration": 0.0049,
      "velocity": 122,
      "chip": "ym2612"
    },
    {
      "channel": 1,
      "note": 50,
      "start": 49.0212,
      "duration": 0.2684,
      "velocity": 101,
      "chip": "ym2612"
    },
    {
      "channel": 3,
      "note": 61,
      "start": 49.1059,
      "duration": 0.0467,
      "velocity": 127,
      "chip": "ym2612"
    },
    {
      "channel": 0,
      "note": 49,
      "start": 49.226,
      "duration": 0.0027,
      "velocity": 122,
      "chip": "ym2612"
    },
    {
      "channel": 0,
      "note": 49,
      "start": 49.2597,
      "duration": 0.002,
      "velocity": 122,
      "chip": "ym2612"
    },
    {
      "channel": 3,
      "note": 61,
      "start": 49.2961,
      "duration": 0.0338,
      "velocity": 127,
      "chip": "ym2612"
    },
    {
      "channel": 4,
      "note": 47,
      "start": 49.2988,
      "duration": 0.1979,
      "velocity": 111,
      "chip": "ym2612"
    },
    {
      "channel": 2,
      "note": 57,
      "start": 49.3017,
      "duration": 0.0783,
      "velocity": 121,
      "chip": "ym2612"
    },
    {
      "channel": 3,
      "note": 61,
      "start": 49.3833,
      "duration": 0.0632,
      "velocity": 127,
      "chip": "ym2612"
    },
    {
      "channel": 2,
      "note": 57,
      "start": 49.3869,
      "duration": 0.1099,
      "velocity": 121,
      "chip": "ym2612"
    },
    {
      "channel": 0,
      "note": 49,
      "start": 49.5033,
      "duration": 0.0109,
      "velocity": 122,
      "chip": "ym2612"
    },
    {
      "channel": 4,
      "note": 49,
      "start": 49.5059,
      "duration": 0.2684,
      "velocity": 111,
      "chip": "ym2612"
    },
    {
      "channel": 0,
      "note": 49,
      "start": 49.6109,
      "duration": 0.0131,
      "velocity": 122,
      "chip": "ym2612"
    },
    {
      "channel": 3,
      "note": 61,
      "start": 49.7276,
      "duration": 0.0466,
      "velocity": 127,
      "chip": "ym2612"
    },
    {
      "channel": 3,
      "note": 61,
      "start": 49.8441,
      "duration": 0.0466,
      "velocity": 127,
      "chip": "ym2612"
    },
    {
      "channel": 0,
      "note": 49,
      "start": 49.9639,
      "duration": 0.0043,
      "velocity": 122,
      "chip": "ym2612"
    },
    {
      "channel": 4,
      "note": 49,
      "start": 49.9668,
      "duration": 0.0612,
      "velocity": 111,
      "chip": "ym2612"
    },
    {
      "channel": 0,
      "note": 49,
      "start": 49.9989,
      "duration": 0.002,
      "velocity": 122,
      "chip": "ym2612"
    },
    {
      "channel": 3,
      "note": 61,
      "start": 50.031,
      "duration": 0.0579,
      "velocity": 127,
      "chip": "ym2612"
    },
    {
      "channel": 3,
      "note": 61,
      "start": 50.1453,
      "duration": 0.0165,
      "velocity": 127,
      "chip": "ym2612"
    },
    {
      "channel": 1,
      "note": 49,
      "start": 50.1835,
      "duration": 0.0847,
      "velocity": 116,
      "chip": "ym2612"
    },
    {
      "channel": 3,
      "note": 61,
      "start": 50.1862,
      "duration": 0.0319,
      "velocity": 127,
      "chip": "ym2612"
    },
    {
      "channel": 1,
      "note": 49,
      "start": 50.2745,
      "duration": 0.1045,
      "velocity": 116,
      "chip": "ym2612"
    },
    {
      "channel": 3,
      "note": 61,
      "start": 50.2768,
      "duration": 0.0354,
      "velocity": 127,
      "chip": "ym2612"
    },
    {
      "channel": 1,
      "note": 49,
      "start": 50.3856,
      "duration": 0.2031,
      "velocity": 116,
      "chip": "ym2612"
    },
    {
      "channel": 0,
      "note": 49,
      "start": 50.3879,
      "duration": 0.0042,
      "velocity": 122,
      "chip": "ym2612"
    },
    {
      "channel": 2,
      "note": 50,
      "start": 50.3909,
      "duration": 0.268,
      "velocity": 101,
      "chip": "ym2612"
    },
    {
      "channel": 3,
      "note": 61,
      "start": 50.4754,
      "duration": 0.0467,
      "velocity": 127,
      "chip": "ym2612"
    },
    {
      "channel": 0,
      "note": 49,
      "start": 50.5949,
      "duration": 0.0028,
      "velocity": 122,
      "chip": "ym2612"
    },
    {
      "channel": 0,
      "note": 49,
      "start": 50.6288,
      "duration": 0.002,
      "velocity": 122,
      "chip": "ym2612"
    },
    {
      "channel": 3,
      "note": 61,
      "start": 50.6654,
      "duration": 0.0173,
      "velocity": 127,
      "chip": "ym2612"
    },
    {
      "channel": 4,
      "note": 47,
      "start": 50.6681,
      "duration": 0.0645,
      "velocity": 111,
      "chip": "ym2612"
    },
    {
      "channel": 1,
      "note": 57,
      "start": 50.671,
      "duration": 0.0251,
      "velocity": 121,
      "chip": "ym2612"
    },
    {
      "channel": 3,
      "note": 61,
      "start": 50.7028,
      "duration": 0.0165,
      "velocity": 127,
      "chip": "ym2612"
    },
    {
      "channel": 1,
      "note": 57,
      "start": 50.706,
      "duration": 0.0265,
      "velocity": 121,
      "chip": "ym2612"
    },
    {
      "channel": 0,
      "note": 61,
      "start": 50.7397,
      "duration": 0.2002,
      "velocity": 122,
      "chip": "ym2612"
    },
    {
      "channel": 4,
      "note": 49,
      "start": 50.7424,
      "duration": 0.2645,
      "velocity": 111,
      "chip": "ym2612"
    },
    {
      "channel": 2,
      "note": 61,
      "start": 50.7453,
      "duration": 0.0281,
      "velocity": 116,
      "chip": "ym2612"
    },
    {
      "channel": 2,
      "note": 73,
      "start": 50.8275,
      "duration": 0.1127,
      "velocity": 116,
      "chip": "ym2612"
    },
    {
      "channel": 0,
      "note": 61,
      "start": 50.9438,
      "duration": 0.0628,
      "velocity": 122,
      "chip": "ym2612"
    },
    {
      "channel": 3,
      "note": 61,
      "start": 50.9465,
      "duration": 0.0603,
      "velocity": 127,
      "chip": "ym2612"
    },
    {
      "channel": 2,
      "note": 68,
      "start": 50.9496,
      "duration": 0.1238,
      "velocity": 116,
      "chip": "ym2612"
    },
    {
      "channel": 0,
      "note": 61,
      "start": 51.0763,
      "duration": 0.0469,
      "velocity": 122,
      "chip": "ym2612"
    },
    {
      "channel": 3,
      "note": 61,
      "start": 51.079,
      "duration": 0.0444,
      "velocity": 127,
      "chip": "ym2612"
    },
    {
      "channel": 2,
      "note": 61,
      "start": 51.0822,
      "duration": 0.108,
      "velocity": 116,
      "chip": "ym2612"
    },
    {
      "channel": 0,
      "note": 61,
      "start": 51.1966,
      "duration": 0.0651,
      "velocity": 122,
      "chip": "ym2612"
    },
    {
      "channel": 4,
      "note": 49,
      "start": 51.1992,
      "duration": 0.0627,
      "velocity": 111,
      "chip": "ym2612"
    },
    {
      "channel": 2,
      "note": 64,
      "start": 51.2019,
      "duration": 0.0268,
      "velocity": 116,
      "chip": "ym2612"
    },
    {
      "channel": 2,
      "note": 63,
      "start": 51.2318,
      "duration": 0.0302,
      "velocity": 116,
      "chip": "ym2612"
    },
    {
      "channel": 0,
      "note": 61,
      "start": 51.2646,
      "duration": 0.0377,
      "velocity": 122,
      "chip": "ym2612"
    },
    {
      "channel": 3,
      "note": 61,
      "start": 51.2668,
      "duration": 0.0355,
      "velocity": 127,
      "chip": "ym2612"
    },
    {
      "channel": 2,
      "note": 61,
      "start": 51.2712,
      "duration": 0.0979,
      "velocity": 116,
      "chip": "ym2612"
    },
    {
      "channel": 0,
      "note": 61,
      "start": 51.3754,
      "duration": 0.0189,
      "velocity": 122,
      "chip": "ym2612"
    },
    {
      "channel": 3,
      "note": 61,
      "start": 51.3776,
      "duration": 0.0168,
      "velocity": 127,
      "chip": "ym2612"
    },
    {
      "channel": 2,
      "note": 74,
      "start": 51.3806,
      "duration": 0.0185,
      "velocity": 116,
      "chip": "ym2612"
    },
    {
      "channel": 1,
      "note": 49,
      "start": 51.4157,
      "duration": 0.0847,
      "velocity": 116,
      "chip": "ym2612"
    },
    {
      "channel": 0,
      "note": 61,
      "start": 51.4177,
      "duration": 0.0326,
      "velocity": 122,
      "chip": "ym2612"
    },
    {
      "channel": 3,
      "note": 61,
      "start": 51.4201,
      "duration": 0.0303,
      "velocity": 127,
      "chip": "ym2612"
    },
    {
      "channel": 2,
      "note": 62,
      "start": 51.4231,
      "duration": 0.0776,
      "velocity": 116,
      "chip": "ym2612"
    },
    {
      "channel": 1,
      "note": 49,
      "start": 51.5068,
      "duration": 0.0874,
      "velocity": 116,
      "chip": "ym2612"
    },
    {
      "channel": 0,
      "note": 61,
      "start": 51.5089,
      "duration": 0.0353,
      "velocity": 122,
      "chip": "ym2612"
    },
    {
      "channel": 3,
      "note": 61,
      "start": 51.5113,
      "duration": 0.033,
      "velocity": 127,
      "chip": "ym2612"
    },
    {
      "channel": 2,
      "note": 71,
      "start": 51.5142,
      "duration": 0.0468,
      "velocity": 116,
      "chip": "ym2612"
    },
    {
      "channel": 1,
      "note": 49,
      "start": 51.6016,
      "duration": 0.2194,
      "velocity": 116,
      "chip": "ym2612"
    },
    {
      "channel": 0,
      "note": 61,
      "start": 51.6037,
      "duration": 0.084,
      "velocity": 122,
      "chip": "ym2612"
    },
    {
      "channel": 4,
      "note": 50,
      "start": 51.6064,
      "duration": 0.287,
      "velocity": 101,
      "chip": "ym2612"
    },
    {
      "channel": 2,
      "note": 62,
      "start": 51.609,
      "duration": 0.079,
      "velocity": 116,
      "chip": "ym2612"
    },
    {
      "channel": 0,
      "note": 61,
      "start": 51.6911,
      "duration": 0.0632,
      "velocity": 122,
      "chip": "ym2612"
    },
    {
      "channel": 3,
      "note": 61,
      "start": 51.6937,
      "duration": 0.0608,
      "velocity": 127,
      "chip": "ym2612"
    },
    {
      "channel": 2,
      "note": 73,
      "start": 51.697,
      "duration": 0.0742,
      "velocity": 116,
      "chip": "ym2612"
    },
    {
      "channel": 0,
      "note": 61,
      "start": 51.8276,
      "duration": 0.0654,
      "velocity": 122,
      "chip": "ym2612"
    },
    {
      "channel": 2,
      "note": 61,
      "start": 51.8306,
      "duration": 0.0283,
      "velocity": 116,
      "chip": "ym2612"
    },
    {
      "channel": 2,
      "note": 68,
      "start": 51.863,
      "duration": 0.0307,
      "velocity": 116,
      "chip": "ym2612"
    },
    {
      "channel": 0,
      "note": 59,
      "start": 51.9002,
      "duration": 0.2012,
      "velocity": 122,
      "chip": "ym2612"
    },
    {
      "channel": 3,
      "note": 61,
      "start": 51.9025,
      "duration": 0.0169,
      "velocity": 127,
      "chip": "ym2612"
    },
    {
      "channel": 1,
      "note": 47,
      "start": 51.9053,
      "duration": 0.1963,
      "velocity": 111,
      "chip": "ym2612"
    },
    {
      "channel": 2,
      "note": 64,
      "start": 51.9081,
      "duration": 0.0769,
      "velocity": 116,
      "chip": "ym2612"
    },
    {
      "channel": 3,
      "note": 61,
      "start": 51.9883,
      "duration": 0.0466,
      "velocity": 127,
      "chip": "ym2612"
    },
    {
      "channel": 2,
      "note": 63,
      "start": 51.9915,
      "duration": 0.1104,
      "velocity": 116,
      "chip": "ym2612"
    },
    {
      "channel": 0,
      "note": 61,
      "start": 52.1081,
      "duration": 0.2041,
      "velocity": 122,
      "chip": "ym2612"
    },
    {
      "channel": 1,
      "note": 49,
      "start": 52.1109,
      "duration": 0.2682,
      "velocity": 111,
      "chip": "ym2612"
    },
    {
      "channel": 2,
      "note": 61,
      "start": 52.1141,
      "duration": 0.0317,
      "velocity": 116,
      "chip": "ym2612"
    },
    {
      "channel": 2,
      "note": 73,
      "start": 52.1998,
      "duration": 0.1128,
      "velocity": 116,
      "chip": "ym2612"
    },
    {
      "channel": 0,
      "note": 61,
      "start": 52.3158,
      "duration": 0.0632,
      "velocity": 122,
      "chip": "ym2612"
    },
    {
      "channel": 3,
      "note": 61,
      "start": 52.3184,
      "duration": 0.0608,
      "velocity": 127,
      "chip": "ym2612"
    },
    {
      "channel": 2,
      "note": 68,
      "start": 52.3216,
      "duration": 0.1076,
      "velocity": 116,
      "chip": "ym2612"
    },
    {
      "channel": 0,
      "note": 61,
      "start": 52.432,
      "duration": 0.0636,
      "velocity": 122,
      "chip": "ym2612"
    },
    {
      "channel": 3,
      "note": 61,
      "start": 52.4347,
      "duration": 0.0611,
      "velocity": 127,
      "chip": "ym2612"
    },
    {
      "channel": 2,
      "note": 61,
      "start": 52.4379,
      "duration": 0.1079,
      "velocity": 116,
      "chip": "ym2612"
    },
    {
      "channel": 0,
      "note": 61,
      "start": 52.5521,
      "duration": 0.0749,
      "velocity": 122,
      "chip": "ym2612"
    },
    {
      "channel": 1,
      "note": 49,
      "start": 52.5551,
      "duration": 0.0721,
      "velocity": 111,
      "chip": "ym2612"
    },
    {
      "channel": 2,
      "note": 64,
      "start": 52.558,
      "duration": 0.0311,
      "velocity": 116,
      "chip": "ym2612"
    },
    {
      "channel": 2,
      "note": 63,
      "start": 52.5923,
      "duration": 0.0352,
      "velocity": 116,
      "chip": "ym2612"
    },
    {
      "channel": 0,
      "note": 61,
      "start": 52.6306,
      "duration": 0.0464,
      "velocity": 122,
      "chip": "ym2612"
    },
    {
      "channel": 3,
      "note": 61,
      "start": 52.6333,
      "duration": 0.0439,
      "velocity": 127,
      "chip": "ym2612"
    },
    {
      "channel": 2,
      "note": 61,
      "start": 52.6365,
      "duration": 0.1074,
      "velocity": 116,
      "chip": "ym2612"
    },
    {
      "channel": 0,
      "note": 61,
      "start": 52.7501,
      "duration": 0.0143,
      "velocity": 122,
      "chip": "ym2612"
    },
    {
      "channel": 3,
      "note": 61,
      "start": 52.7523,
      "duration": 0.0122,
      "velocity": 127,
      "chip": "ym2612"
    },
    {
      "channel": 2,
      "note": 74,
      "start": 52.7553,
      "duration": 0.0183,
      "velocity": 116,
      "chip": "ym2612"
    },
    {
      "channel": 4,
      "note": 49,
      "start": 52.79,
      "duration": 0.084,
      "velocity": 116,
      "chip": "ym2612"
    },
    {
      "channel": 0,
      "note": 61,
      "start": 52.7924,
      "duration": 0.0158,
      "velocity": 122,
      "chip": "ym2612"
    },
    {
      "channel": 3,
      "note": 61,
      "start": 52.7949,
      "duration": 0.0135,
      "velocity": 127,
      "chip": "ym2612"
    },
    {
      "channel": 2,
      "note": 62,
      "start": 52.7979,
      "duration": 0.0763,
      "velocity": 116,
      "chip": "ym2612"
    },
    {
      "channel": 4,
      "note": 49,
      "start": 52.8803,
      "duration": 0.0873,
      "velocity": 116,
      "chip": "ym2612"
    },
    {
      "channel": 0,
      "note": 61,
      "start": 52.8823,
      "duration": 0.0351,
      "velocity": 122,
      "chip": "ym2612"
    },
    {
      "channel": 3,
      "note": 61,
      "start": 52.8846,
      "duration": 0.033,
      "velocity": 127,
      "chip": "ym2612"
    },
    {
      "channel": 2,
      "note": 71,
      "start": 52.8876,
      "duration": 0.0468,
      "velocity": 116,
      "chip": "ym2612"
    },
    {
      "channel": 4,
      "note": 49,
      "start": 52.9748,
      "duration": 0.2037,
      "velocity": 116,
      "chip": "ym2612"
    },
    {
      "channel": 0,
      "note": 61,
      "start": 52.9769,
      "duration": 0.0848,
      "velocity": 122,
      "chip": "ym2612"
    },
    {
      "channel": 1,
      "note": 50,
      "start": 52.9798,
      "duration": 0.2778,
      "velocity": 101,
      "chip": "ym2612"
    },
    {
      "channel": 2,
      "note": 62,
      "start": 52.9836,
      "duration": 0.0784,
      "velocity": 116,
      "chip": "ym2612"
    },
    {
      "channel": 0,
      "note": 61,
      "start": 53.0651,
      "duration": 0.0632,
      "velocity": 122,
      "chip": "ym2612"
    },
    {
      "channel": 3,
      "note": 61,
      "start": 53.0677,
      "duration": 0.0608,
      "velocity": 127,
      "chip": "ym2612"
    },
    {
      "channel": 2,
      "note": 73,
      "start": 53.0711,
      "duration": 0.0741,
      "velocity": 116,
      "chip": "ym2612"
    },
    {
      "channel": 0,
      "note": 61,
      "start": 53.1852,
      "duration": 0.0723,
      "velocity": 122,
      "chip": "ym2612"
    },
    {
      "channel": 2,
      "note": 61,
      "start": 53.1881,
      "duration": 0.0281,
      "velocity": 116,
      "chip": "ym2612"
    },
    {
      "channel": 2,
      "note": 68,
      "start": 53.2203,
      "duration": 0.0376,
      "velocity": 116,
      "chip": "ym2612"
    },
    {
      "channel": 0,
      "note": 59,
      "start": 53.2639,
      "duration": 0.204,
      "velocity": 122,
      "chip": "ym2612"
    },
    {
      "channel": 3,
      "note": 61,
      "start": 53.2662,
      "duration": 0.0184,
      "velocity": 127,
      "chip": "ym2612"
    },
    {
      "channel": 4,
      "note": 49,
      "start": 53.269,
      "duration": 0.1991,
      "velocity": 111,
      "chip": "ym2612"
    },
    {
      "channel": 2,
      "note": 64,
      "start": 53.2717,
      "duration": 0.0797,
      "velocity": 116,
      "chip": "ym2612"
    },
    {
      "channel": 3,
      "note": 61,
      "start": 53.3547,
      "duration": 0.0466,
      "velocity": 127,
      "chip": "ym2612"
    },
    {
      "channel": 2,
      "note": 63,
      "start": 53.3581,
      "duration": 0.1101,
      "velocity": 116,
      "chip": "ym2612"
    },
    {
      "channel": 0,
      "note": 61,
      "start": 53.4746,
      "duration": 0.2035,
      "velocity": 122,
      "chip": "ym2612"
    },
    {
      "channel": 4,
      "note": 49,
      "start": 53.4772,
      "duration": 0.2678,
      "velocity": 111,
      "chip": "ym2612"
    },
    {
      "channel": 1,
      "note": 61,
      "start": 53.48,
      "duration": 0.0147,
      "velocity": 127,
      "chip": "ym2612"
    },
    {
      "channel": 1,
      "note": 73,
      "start": 53.5651,
      "duration": 0.1131,
      "velocity": 127,
      "chip": "ym2612"
    },
    {
      "channel": 0,
      "note": 61,
      "start": 53.6817,
      "duration": 0.063,
      "velocity": 122,
      "chip": "ym2612"
    },
    {
      "channel": 3,
      "note": 61,
      "start": 53.6843,
      "duration": 0.0606,
      "velocity": 127,
      "chip": "ym2612"
    },
    {
      "channel": 1,
      "note": 68,
      "start": 53.687,
      "duration": 0.1078,
      "velocity": 127,
      "chip": "ym2612"
    },
    {
      "channel": 0,
      "note": 61,
      "start": 53.7979,
      "duration": 0.0636,
      "velocity": 122,
      "chip": "ym2612"
    },
    {
      "channel": 3,
      "note": 61,
      "start": 53.8005,
      "duration": 0.0612,
      "velocity": 127,
      "chip": "ym2612"
    },
    {
      "channel": 1,
      "note": 61,
      "start": 53.8032,
      "duration": 0.1082,
      "velocity": 127,
      "chip": "ym2612"
    },
    {
      "channel": 0,
      "note": 61,
      "start": 53.9181,
      "duration": 0.0652,
      "velocity": 122,
      "chip": "ym2612"
    },
    {
      "channel": 4,
      "note": 49,
      "start": 53.921,
      "duration": 0.0624,
      "velocity": 111,
      "chip": "ym2612"
    },
    {
      "channel": 1,
      "note": 64,
      "start": 53.9232,
      "duration": 0.0272,
      "velocity": 127,
      "chip": "ym2612"
    },
    {
      "channel": 1,
      "note": 63,
      "start": 53.9544,
      "duration": 0.0289,
      "velocity": 127,
      "chip": "ym2612"
    },
    {
      "channel": 0,
      "note": 61,
      "start": 53.9859,
      "duration": 0.0546,
      "velocity": 122,
      "chip": "ym2612"
    },
    {
      "channel": 3,
      "note": 61,
      "start": 53.9881,
      "duration": 0.0526,
      "velocity": 127,
      "chip": "ym2612"
    },
    {
      "channel": 1,
      "note": 61,
      "start": 53.9922,
      "duration": 0.1151,
      "velocity": 127,
      "chip": "ym2612"
    },
    {
      "channel": 0,
      "note": 61,
      "start": 54.1136,
      "duration": 0.0139,
      "velocity": 122,
      "chip": "ym2612"
    },
    {
      "channel": 3,
      "note": 61,
      "start": 54.1157,
      "duration": 0.0119,
      "velocity": 127,
      "chip": "ym2612"
    },
    {
      "channel": 1,
      "note": 74,
      "start": 54.1183,
      "duration": 0.0139,
      "velocity": 127,
      "chip": "ym2612"
    },
    {
      "channel": 2,
      "note": 49,
      "start": 54.1536,
      "duration": 0.0842,
      "velocity": 116,
      "chip": "ym2612"
    },
    {
      "channel": 0,
      "note": 61,
      "start": 54.1555,
      "duration": 0.0161,
      "velocity": 122,
      "chip": "ym2612"
    },
    {
      "channel": 3,
      "note": 61,
      "start": 54.1579,
      "duration": 0.0138,
      "velocity": 127,
      "chip": "ym2612"
    },
    {
      "channel": 1,
      "note": 62,
      "start": 54.1605,
      "duration": 0.077,
      "velocity": 127,
      "chip": "ym2612"
    },
    {
      "channel": 2,
      "note": 49,
      "start": 54.2441,
      "duration": 0.0868,
      "velocity": 116,
      "chip": "ym2612"
    },
    {
      "channel": 0,
      "note": 61,
      "start": 54.2462,
      "duration": 0.0179,
      "velocity": 122,
      "chip": "ym2612"
    },
    {
      "channel": 3,
      "note": 61,
      "start": 54.2485,
      "duration": 0.0157,
      "velocity": 127,
      "chip": "ym2612"
    },
    {
      "channel": 1,
      "note": 71,
      "start": 54.2511,
      "duration": 0.0463,
      "velocity": 127,
      "chip": "ym2612"
    },
    {
      "channel": 2,
      "note": 49,
      "start": 54.338,
      "duration": 0.2034,
      "velocity": 116,
      "chip": "ym2612"
    },
    {
      "channel": 0,
      "note": 61,
      "start": 54.3402,
      "duration": 0.0844,
      "velocity": 122,
      "chip": "ym2612"
    },
    {
      "channel": 1,
      "note": 62,
      "start": 54.3428,
      "duration": 0.0819,
      "velocity": 127,
      "chip": "ym2612"
    },
    {
      "channel": 0,
      "note": 61,
      "start": 54.4279,
      "duration": 0.0634,
      "velocity": 122,
      "chip": "ym2612"
    },
    {
      "channel": 3,
      "note": 61,
      "start": 54.4306,
      "duration": 0.0609,
      "velocity": 127,
      "chip": "ym2612"
    },
    {
      "channel": 1,
      "note": 73,
      "start": 54.4335,
      "duration": 0.0746,
      "velocity": 127,
      "chip": "ym2612"
    },
    {
      "channel": 0,
      "note": 61,
      "start": 54.5477,
      "duration": 0.0643,
      "velocity": 122,
      "chip": "ym2612"
    },
    {
      "channel": 1,
      "note": 61,
      "start": 54.5502,
      "duration": 0.0289,
      "velocity": 127,
      "chip": "ym2612"
    },
    {
      "channel": 1,
      "note": 68,
      "start": 54.5828,
      "duration": 0.0293,
      "velocity": 127,
      "chip": "ym2612"
    },
    {
      "channel": 0,
      "note": 59,
      "start": 54.6187,
      "duration": 0.2166,
      "velocity": 122,
      "chip": "ym2612"
    },
    {
      "channel": 3,
      "note": 61,
      "start": 54.6211,
      "duration": 0.031,
      "velocity": 127,
      "chip": "ym2612"
    },
    {
      "channel": 4,
      "note": 47,
      "start": 54.6237,
      "duration": 0.2119,
      "velocity": 111,
      "chip": "ym2612"
    },
    {
      "channel": 1,
      "note": 64,
      "start": 54.6259,
      "duration": 0.0762,
      "velocity": 127,
      "chip": "ym2612"
    },
    {
      "channel": 3,
      "note": 61,
      "start": 54.7054,
      "duration": 0.0633,
      "velocity": 127,
      "chip": "ym2612"
    },
    {
      "channel": 1,
      "note": 63,
      "start": 54.7086,
      "duration": 0.1269,
      "velocity": 127,
      "chip": "ym2612"
    },
    {
      "channel": 0,
      "note": 61,
      "start": 54.8422,
      "duration": 0.2039,
      "velocity": 122,
      "chip": "ym2612"
    },
    {
      "channel": 4,
      "note": 49,
      "start": 54.8449,
      "duration": 0.2515,
      "velocity": 111,
      "chip": "ym2612"
    },
    {
      "channel": 1,
      "note": 61,
      "start": 54.8474,
      "duration": 0.0154,
      "velocity": 127,
      "chip": "ym2612"
    },
    {
      "channel": 1,
      "note": 73,
      "start": 54.9331,
      "duration": 0.1131,
      "velocity": 127,
      "chip": "ym2612"
    },
    {
      "channel": 0,
      "note": 61,
      "start": 55.0495,
      "duration": 0.0466,
      "velocity": 122,
      "chip": "ym2612"
    },
    {
      "channel": 3,
      "note": 61,
      "start": 55.0522,
      "duration": 0.0441,
      "velocity": 127,
      "chip": "ym2612"
    },
    {
      "channel": 1,
      "note": 68,
      "start": 55.0549,
      "duration": 0.108,
      "velocity": 127,
      "chip": "ym2612"
    },
    {
      "channel": 0,
      "note": 61,
      "start": 55.1659,
      "duration": 0.0468,
      "velocity": 122,
      "chip": "ym2612"
    },
    {
      "channel": 3,
      "note": 61,
      "start": 55.1685,
      "duration": 0.0444,
      "velocity": 127,
      "chip": "ym2612"
    },
    {
      "channel": 1,
      "note": 61,
      "start": 55.1712,
      "duration": 0.1082,
      "velocity": 127,
      "chip": "ym2612"
    },
    {
      "channel": 0,
      "note": 61,
      "start": 55.2857,
      "duration": 0.0654,
      "velocity": 122,
      "chip": "ym2612"
    },
    {
      "channel": 4,
      "note": 49,
      "start": 55.2886,
      "duration": 0.0626,
      "velocity": 111,
      "chip": "ym2612"
    },
    {
      "channel": 1,
      "note": 64,
      "start": 55.291,
      "duration": 0.0269,
      "velocity": 127,
      "chip": "ym2612"
    },
    {
      "channel": 1,
      "note": 63,
      "start": 55.3207,
      "duration": 0.0304,
      "velocity": 127,
      "chip": "ym2612"
    },
    {
      "channel": 0,
      "note": 61,
      "start": 55.3537,
      "duration": 0.0544,
      "velocity": 122,
      "chip": "ym2612"
    },
    {
      "channel": 3,
      "note": 61,
      "start": 55.3559,
      "duration": 0.0524,
      "velocity": 127,
      "chip": "ym2612"
    },
    {
      "channel": 1,
      "note": 61,
      "start": 55.3595,
      "duration": 0.0987,
      "velocity": 127,
      "chip": "ym2612"
    },
    {
      "channel": 0,
      "note": 61,
      "start": 55.4646,
      "duration": 0.0186,
      "velocity": 122,
      "chip": "ym2612"
    },
    {
      "channel": 3,
      "note": 61,
      "start": 55.4667,
      "duration": 0.0166,
      "velocity": 127,
      "chip": "ym2612"
    },
    {
      "channel": 1,
      "note": 74,
      "start": 55.4693,
      "duration": 0.0185,
      "velocity": 127,
      "chip": "ym2612"
    },
    {
      "channel": 2,
      "note": 49,
      "start": 55.5044,
      "duration": 0.1012,
      "velocity": 116,
      "chip": "ym2612"
    },
    {
      "channel": 0,
      "note": 61,
      "start": 55.5067,
      "duration": 0.0322,
      "velocity": 122,
      "chip": "ym2612"
    },
    {
      "channel": 3,
      "note": 61,
      "start": 55.5093,
      "duration": 0.0297,
      "velocity": 127,
      "chip": "ym2612"
    },
    {
      "channel": 1,
      "note": 62,
      "start": 55.5118,
      "duration": 0.0937,
      "velocity": 127,
      "chip": "ym2612"
    },
    {
      "channel": 2,
      "note": 49,
      "start": 55.612,
      "duration": 0.0869,
      "velocity": 116,
      "chip": "ym2612"
    },
    {
      "channel": 0,
      "note": 61,
      "start": 55.6141,
      "duration": 0.0179,
      "velocity": 122,
      "chip": "ym2612"
    },
    {
      "channel": 3,
      "note": 61,
      "start": 55.6164,
      "duration": 0.0157,
      "velocity": 127,
      "chip": "ym2612"
    },
    {
      "channel": 1,
      "note": 71,
      "start": 55.619,
      "duration": 0.0297,
      "velocity": 127,
      "chip": "ym2612"
    },
    {
      "channel": 2,
      "note": 49,
      "start": 55.7056,
      "duration": 0.2035,
      "velocity": 116,
      "chip": "ym2612"
    },
    {
      "channel": 0,
      "note": 61,
      "start": 55.7077,
      "duration": 0.0845,
      "velocity": 122,
      "chip": "ym2612"
    },
    {
      "channel": 1,
      "note": 62,
      "start": 55.7107,
      "duration": 0.0817,
      "velocity": 127,
      "chip": "ym2612"
    },
    {
      "channel": 0,
      "note": 61,
      "start": 55.796,
      "duration": 0.0462,
      "velocity": 122,
      "chip": "ym2612"
    },
    {
      "channel": 3,
      "note": 61,
      "start": 55.7987,
      "duration": 0.0437,
      "velocity": 127,
      "chip": "ym2612"
    },
    {
      "channel": 1,
      "note": 73,
      "start": 55.8016,
      "duration": 0.0741,
      "velocity": 127,
      "chip": "ym2612"
    },
    {
      "channel": 0,
      "note": 61,
      "start": 55.9155,
      "duration": 0.0645,
      "velocity": 122,
      "chip": "ym2612"
    },
    {
      "channel": 1,
      "note": 61,
      "start": 55.918,
      "duration": 0.0286,
      "velocity": 127,
      "chip": "ym2612"
    },
    {
      "channel": 1,
      "note": 68,
      "start": 55.95,
      "duration": 0.03,
      "velocity": 127,
      "chip": "ym2612"
    },
    {
      "channel": 0,
      "note": 59,
      "start": 55.9873,
      "duration": 0.0679,
      "velocity": 122,
      "chip": "ym2612"
    },
    {
      "channel": 3,
      "note": 61,
      "start": 55.9895,
      "duration": 0.0161,
      "velocity": 127,
      "chip": "ym2612"
    },
    {
      "channel": 4,
      "note": 48,
      "start": 55.9922,
      "duration": 0.0632,
      "velocity": 111,
      "chip": "ym2612"
    },
    {
      "channel": 1,
      "note": 64,
      "start": 55.9945,
      "duration": 0.025,
      "velocity": 127,
      "chip": "ym2612"
    },
    {
      "channel": 3,
      "note": 61,
      "start": 56.0256,
      "duration": 0.0164,
      "velocity": 127,
      "chip": "ym2612"
    },
    {
      "channel": 1,
      "note": 61,
      "start": 56.0282,
      "duration": 0.0271,
      "velocity": 127,
      "chip": "ym2612"
    },
    {
      "channel": 2,
      "note": 49,
      "start": 56.0651,
      "duration": 0.2642,
      "velocity": 122,
      "chip": "ym2612"
    },
    {
      "channel": 0,
      "note": 59,
      "start": 56.07,
      "duration": 0.0757,
      "velocity": 122,
      "chip": "ym2612"
    },
    {
      "channel": 4,
      "note": 59,
      "start": 56.0742,
      "duration": 0.0717,
      "velocity": 111,
      "chip": "ym2612"
    },
    {
      "channel": 0,
      "note": 61,
      "start": 56.149,
      "duration": 0.1301,
      "velocity": 122,
      "chip": "ym2612"
    },
    {
      "channel": 4,
      "note": 61,
      "start": 56.1518,
      "duration": 0.1275,
      "velocity": 111,
      "chip": "ym2612"
    },
    {
      "channel": 0,
      "note": 49,
      "start": 56.2824,
      "duration": 0.0132,
      "velocity": 122,
      "chip": "ym2612"
    },
    {
      "channel": 3,
      "note": 49,
      "start": 56.2852,
      "duration": 0.0106,
      "velocity": 127,
      "chip": "ym2612"
    },
    {
      "channel": 4,
      "note": 56,
      "start": 56.2879,
      "duration": 0.1079,
      "velocity": 111,
      "chip": "ym2612"
    },
    {
      "channel": 0,
      "note": 49,
      "start": 56.3987,
      "duration": 0.0135,
      "velocity": 122,
      "chip": "ym2612"
    },
    {
      "channel": 3,
      "note": 49,
      "start": 56.4014,
      "duration": 0.011,
      "velocity": 127,
      "chip": "ym2612"
    },
    {
      "channel": 4,
      "note": 49,
      "start": 56.4041,
      "duration": 0.1083,
      "velocity": 111,
      "chip": "ym2612"
    },
    {
      "channel": 2,
      "note": 49,
      "start": 56.5188,
      "duration": 0.0663,
      "velocity": 122,
      "chip": "ym2612"
    },
    {
      "channel": 0,
      "note": 62,
      "start": 56.521,
      "duration": 0.0295,
      "velocity": 122,
      "chip": "ym2612"
    },
    {
      "channel": 4,
      "note": 62,
      "start": 56.5234,
      "duration": 0.0273,
      "velocity": 111,
      "chip": "ym2612"
    },
    {
      "channel": 0,
      "note": 61,
      "start": 56.5533,
      "duration": 0.0316,
      "velocity": 122,
      "chip": "ym2612"
    },
    {
      "channel": 4,
      "note": 61,
      "start": 56.5568,
      "duration": 0.0359,
      "velocity": 111,
      "chip": "ym2612"
    },
    {
      "channel": 0,
      "note": 49,
      "start": 56.5877,
      "duration": 0.0047,
      "velocity": 122,
      "chip": "ym2612"
    },
    {
      "channel": 3,
      "note": 49,
      "start": 56.5899,
      "duration": 0.0027,
      "velocity": 127,
      "chip": "ym2612"
    }
  ]
}