{
  "track_name": "06 - Salsa de MQ",
  "duration_sec": 33.246,
  "sample_rate": 44100,
  "note_count": 562,
  "unique_pitches": 31,
  "pitch_range": 39,
  "avg_note_duration": 0.2722,
  "reconstruction_stats": {
    "notes_reconstructed": 562,
    "keyon_events": 562,
    "keyoff_events": 557,
    "orphan_keyons": 5,
    "unique_pitches": 31,
    "pitch_range": 39,
    "avg_duration_sec": 0.2722
  },
  "metadata": {
    "source": "P\\Party Quiz Mega Q\\06 - Salsa de MQ.vgz"
  },
  "notes": [
    {
      "channel": 0,
      "note": 60,
      "start": 0.0414,
      "duration": 0.262,
      "velocity": 84,
      "chip": "ym2612"
    },
    {
      "channel": 1,
      "note": 84,
      "start": 0.0424,
      "duration": 0.2613,
      "velocity": 98,
      "chip": "ym2612"
    },
    {
      "channel": 2,
      "note": 79,
      "start": 0.0434,
      "duration": 0.2605,
      "velocity": 98,
      "chip": "ym2612"
    },
    {
      "channel": 3,
      "note": 76,
      "start": 0.0446,
      "duration": 0.2596,
      "velocity": 98,
      "chip": "ym2612"
    },
    {
      "channel": 4,
      "note": 91,
      "start": 0.0455,
      "duration": 0.1414,
      "velocity": 96,
      "chip": "ym2612"
    },
    {
      "channel": 4,
      "note": 91,
      "start": 0.1871,
      "duration": 0.1471,
      "velocity": 96,
      "chip": "ym2612"
    },
    {
      "channel": 0,
      "note": 55,
      "start": 0.3036,
      "duration": 0.0527,
      "velocity": 84,
      "chip": "ym2612"
    },
    {
      "channel": 1,
      "note": 84,
      "start": 0.3039,
      "duration": 0.0294,
      "velocity": 98,
      "chip": "ym2612"
    },
    {
      "channel": 2,
      "note": 79,
      "start": 0.3041,
      "duration": 0.0294,
      "velocity": 98,
      "chip": "ym2612"
    },
    {
      "channel": 3,
      "note": 76,
      "start": 0.3044,
      "duration": 0.0294,
      "velocity": 98,
      "chip": "ym2612"
    },
    {
      "channel": 1,
      "note": 84,
      "start": 0.3334,
      "duration": 0.0058,
      "velocity": 98,
      "chip": "ym2612"
    },
    {
      "channel": 2,
      "note": 79,
      "start": 0.3338,
      "duration": 0.0057,
      "velocity": 98,
      "chip": "ym2612"
    },
    {
      "channel": 3,
      "note": 76,
      "start": 0.3341,
      "duration": 0.0056,
      "velocity": 98,
      "chip": "ym2612"
    },
    {
      "channel": 4,
      "note": 91,
      "start": 0.3343,
      "duration": 0.0056,
      "velocity": 96,
      "chip": "ym2612"
    },
    {
      "channel": 1,
      "note": 79,
      "start": 0.3394,
      "duration": 0.0052,
      "velocity": 98,
      "chip": "ym2612"
    },
    {
      "channel": 2,
      "note": 76,
      "start": 0.3397,
      "duration": 0.005,
      "velocity": 98,
      "chip": "ym2612"
    },
    {
      "channel": 3,
      "note": 74,
      "start": 0.3399,
      "duration": 0.0048,
      "velocity": 98,
      "chip": "ym2612"
    },
    {
      "channel": 4,
      "note": 91,
      "start": 0.3401,
      "duration": 0.0113,
      "velocity": 96,
      "chip": "ym2612"
    },
    {
      "channel": 1,
      "note": 81,
      "start": 0.3508,
      "duration": 0.0056,
      "velocity": 98,
      "chip": "ym2612"
    },
    {
      "channel": 2,
      "note": 77,
      "start": 0.351,
      "duration": 0.0054,
      "velocity": 98,
      "chip": "ym2612"
    },
    {
      "channel": 3,
      "note": 72,
      "start": 0.3513,
      "duration": 0.0053,
      "velocity": 98,
      "chip": "ym2612"
    },
    {
      "channel": 4,
      "note": 91,
      "start": 0.3515,
      "duration": 0.0088,
      "velocity": 96,
      "chip": "ym2612"
    },
    {
      "channel": 0,
      "note": 53,
      "start": 0.3597,
      "duration": 0.029,
      "velocity": 84,
      "chip": "ym2612"
    },
    {
      "channel": 1,
      "note": 77,
      "start": 0.3598,
      "duration": 0.0297,
      "velocity": 95,
      "chip": "ym2612"
    },
    {
      "channel": 2,
      "note": 74,
      "start": 0.3601,
      "duration": 0.0303,
      "velocity": 95,
      "chip": "ym2612"
    },
    {
      "channel": 3,
      "note": 69,
      "start": 0.3602,
      "duration": 0.0311,
      "velocity": 95,
      "chip": "ym2612"
    },
    {
      "channel": 4,
      "note": 91,
      "start": 0.3605,
      "duration": 0.1452,
      "velocity": 96,
      "chip": "ym2612"
    },
    {
      "channel": 0,
      "note": 60,
      "start": 0.5056,
      "duration": 0.1618,
      "velocity": 84,
      "chip": "ym2612"
    },
    {
      "channel": 4,
      "note": 91,
      "start": 0.5061,
      "duration": 0.0291,
      "velocity": 96,
      "chip": "ym2612"
    },
    {
      "channel": 4,
      "note": 91,
      "start": 0.5353,
      "duration": 0.1164,
      "velocity": 96,
      "chip": "ym2612"
    },
    {
      "channel": 4,
      "note": 91,
      "start": 0.652,
      "duration": 0.0047,
      "velocity": 96,
      "chip": "ym2612"
    },
    {
      "channel": 4,
      "note": 91,
      "start": 0.6569,
      "duration": 0.0112,
      "velocity": 96,
      "chip": "ym2612"
    },
    {
      "channel": 4,
      "note": 91,
      "start": 0.6683,
      "duration": 0.0349,
      "velocity": 96,
      "chip": "ym2612"
    },
    {
      "channel": 0,
      "note": 55,
      "start": 0.6734,
      "duration": 0.0295,
      "velocity": 84,
      "chip": "ym2612"
    },
    {
      "channel": 1,
      "note": 74,
      "start": 0.6761,
      "duration": 0.1102,
      "velocity": 95,
      "chip": "ym2612"
    },
    {
      "channel": 2,
      "note": 62,
      "start": 0.6763,
      "duration": 0.1103,
      "velocity": 95,
      "chip": "ym2612"
    },
    {
      "channel": 3,
      "note": 71,
      "start": 0.6765,
      "duration": 0.1103,
      "velocity": 95,
      "chip": "ym2612"
    },
    {
      "channel": 4,
      "note": 91,
      "start": 0.7034,
      "duration": 0.147,
      "velocity": 96,
      "chip": "ym2612"
    },
    {
      "channel": 1,
      "note": 76,
      "start": 0.7865,
      "duration": 0.063,
      "velocity": 95,
      "chip": "ym2612"
    },
    {
      "channel": 2,
      "note": 64,
      "start": 0.7868,
      "duration": 0.063,
      "velocity": 95,
      "chip": "ym2612"
    },
    {
      "channel": 3,
      "note": 72,
      "start": 0.787,
      "duration": 0.0631,
      "velocity": 95,
      "chip": "ym2612"
    },
    {
      "channel": 0,
      "note": 62,
      "start": 0.8199,
      "duration": 0.0522,
      "velocity": 84,
      "chip": "ym2612"
    },
    {
      "channel": 1,
      "note": 77,
      "start": 0.8497,
      "duration": 0.0076,
      "velocity": 95,
      "chip": "ym2612"
    },
    {
      "channel": 2,
      "note": 65,
      "start": 0.85,
      "duration": 0.0075,
      "velocity": 95,
      "chip": "ym2612"
    },
    {
      "channel": 3,
      "note": 74,
      "start": 0.8503,
      "duration": 0.0075,
      "velocity": 95,
      "chip": "ym2612"
    },
    {
      "channel": 4,
      "note": 91,
      "start": 0.8506,
      "duration": 0.0049,
      "velocity": 96,
      "chip": "ym2612"
    },
    {
      "channel": 4,
      "note": 91,
      "start": 0.8557,
      "duration": 0.0114,
      "velocity": 96,
      "chip": "ym2612"
    },
    {
      "channel": 1,
      "note": 79,
      "start": 0.8574,
      "duration": 0.0064,
      "velocity": 95,
      "chip": "ym2612"
    },
    {
      "channel": 2,
      "note": 67,
      "start": 0.8577,
      "duration": 0.0064,
      "velocity": 95,
      "chip": "ym2612"
    },
    {
      "channel": 3,
      "note": 76,
      "start": 0.858,
      "duration": 0.0063,
      "velocity": 95,
      "chip": "ym2612"
    },
    {
      "channel": 1,
      "note": 81,
      "start": 0.864,
      "duration": 0.0082,
      "velocity": 95,
      "chip": "ym2612"
    },
    {
      "channel": 2,
      "note": 69,
      "start": 0.8643,
      "duration": 0.0082,
      "velocity": 95,
      "chip": "ym2612"
    },
    {
      "channel": 3,
      "note": 77,
      "start": 0.8646,
      "duration": 0.0082,
      "velocity": 95,
      "chip": "ym2612"
    },
    {
      "channel": 4,
      "note": 91,
      "start": 0.8672,
      "duration": 0.0097,
      "velocity": 96,
      "chip": "ym2612"
    },
    {
      "channel": 1,
      "note": 83,
      "start": 0.8724,
      "duration": 0.0037,
      "velocity": 95,
      "chip": "ym2612"
    },
    {
      "channel": 2,
      "note": 71,
      "start": 0.8727,
      "duration": 0.0037,
      "velocity": 95,
      "chip": "ym2612"
    },
    {
      "channel": 3,
      "note": 79,
      "start": 0.8729,
      "duration": 0.0037,
      "velocity": 95,
      "chip": "ym2612"
    },
    {
      "channel": 0,
      "note": 60,
      "start": 0.876,
      "duration": 0.029,
      "velocity": 84,
      "chip": "ym2612"
    },
    {
      "channel": 1,
      "note": 83,
      "start": 0.8763,
      "duration": 0.0289,
      "velocity": 95,
      "chip": "ym2612"
    },
    {
      "channel": 2,
      "note": 71,
      "start": 0.8766,
      "duration": 0.0288,
      "velocity": 95,
      "chip": "ym2612"
    },
    {
      "channel": 3,
      "note": 79,
      "start": 0.8769,
      "duration": 0.0287,
      "velocity": 95,
      "chip": "ym2612"
    },
    {
      "channel": 4,
      "note": 91,
      "start": 0.8771,
      "duration": 0.1459,
      "velocity": 96,
      "chip": "ym2612"
    },
    {
      "channel": 0,
      "note": 55,
      "start": 1.0221,
      "duration": 0.1649,
      "velocity": 84,
      "chip": "ym2612"
    },
    {
      "channel": 1,
      "note": 79,
      "start": 1.0223,
      "duration": 0.0298,
      "velocity": 98,
      "chip": "ym2612"
    },
    {
      "channel": 2,
      "note": 67,
      "start": 1.0227,
      "duration": 0.0304,
      "velocity": 98,
      "chip": "ym2612"
    },
    {
      "channel": 3,
      "note": 74,
      "start": 1.023,
      "duration": 0.031,
      "velocity": 98,
      "chip": "ym2612"
    },
    {
      "channel": 4,
      "note": 91,
      "start": 1.0233,
      "duration": 0.0308,
      "velocity": 96,
      "chip": "ym2612"
    },
    {
      "channel": 4,
      "note": 91,
      "start": 1.0543,
      "duration": 0.1146,
      "velocity": 96,
      "chip": "ym2612"
    },
    {
      "channel": 1,
      "note": 86,
      "start": 1.1684,
      "duration": 0.0049,
      "velocity": 98,
      "chip": "ym2612"
    },
    {
      "channel": 2,
      "note": 79,
      "start": 1.1685,
      "duration": 0.0049,
      "velocity": 98,
      "chip": "ym2612"
    },
    {
      "channel": 3,
      "note": 74,
      "start": 1.1688,
      "duration": 0.0047,
      "velocity": 98,
      "chip": "ym2612"
    },
    {
      "channel": 4,
      "note": 91,
      "start": 1.169,
      "duration": 0.0047,
      "velocity": 96,
      "chip": "ym2612"
    },
    {
      "channel": 4,
      "note": 91,
      "start": 1.1739,
      "duration": 0.0136,
      "velocity": 96,
      "chip": "ym2612"
    },
    {
      "channel": 1,
      "note": 84,
      "start": 1.1791,
      "duration": 0.3005,
      "velocity": 98,
      "chip": "ym2612"
    },
    {
      "channel": 2,
      "note": 79,
      "start": 1.1794,
      "duration": 0.3005,
      "velocity": 98,
      "chip": "ym2612"
    },
    {
      "channel": 3,
      "note": 76,
      "start": 1.1798,
      "duration": 0.3005,
      "velocity": 98,
      "chip": "ym2612"
    },
    {
      "channel": 0,
      "note": 60,
      "start": 1.1872,
      "duration": 0.2625,
      "velocity": 84,
      "chip": "ym2612"
    },
    {
      "channel": 4,
      "note": 91,
      "start": 1.1877,
      "duration": 0.1456,
      "velocity": 96,
      "chip": "ym2612"
    },
    {
      "channel": 4,
      "note": 91,
      "start": 1.3335,
      "duration": 0.147,
      "velocity": 96,
      "chip": "ym2612"
    },
    {
      "channel": 0,
      "note": 55,
      "start": 1.45,
      "duration": 0.0516,
      "velocity": 84,
      "chip": "ym2612"
    },
    {
      "channel": 1,
      "note": 79,
      "start": 1.4798,
      "duration": 0.022,
      "velocity": 98,
      "chip": "ym2612"
    },
    {
      "channel": 2,
      "note": 76,
      "start": 1.4802,
      "duration": 0.022,
      "velocity": 98,
      "chip": "ym2612"
    },
    {
      "channel": 3,
      "note": 72,
      "start": 1.4805,
      "duration": 0.0219,
      "velocity": 98,
      "chip": "ym2612"
    },
    {
      "channel": 4,
      "note": 91,
      "start": 1.4808,
      "duration": 0.0051,
      "velocity": 96,
      "chip": "ym2612"
    },
    {
      "channel": 4,
      "note": 91,
      "start": 1.4861,
      "duration": 0.0106,
      "velocity": 96,
      "chip": "ym2612"
    },
    {
      "channel": 4,
      "note": 91,
      "start": 1.4969,
      "duration": 0.0097,
      "velocity": 96,
      "chip": "ym2612"
    },
    {
      "channel": 1,
      "note": 81,
      "start": 1.502,
      "duration": 0.0039,
      "velocity": 98,
      "chip": "ym2612"
    },
    {
      "channel": 2,
      "note": 77,
      "start": 1.5023,
      "duration": 0.0038,
      "velocity": 98,
      "chip": "ym2612"
    },
    {
      "channel": 3,
      "note": 72,
      "start": 1.5026,
      "duration": 0.0038,
      "velocity": 98,
      "chip": "ym2612"
    },
    {
      "channel": 0,
      "note": 53,
      "start": 1.5058,
      "duration": 0.029,
      "velocity": 84,
      "chip": "ym2612"
    },
    {
      "channel": 1,
      "note": 81,
      "start": 1.5061,
      "duration": 0.029,
      "velocity": 98,
      "chip": "ym2612"
    },
    {
      "channel": 2,
      "note": 77,
      "start": 1.5063,
      "duration": 0.0289,
      "velocity": 98,
      "chip": "ym2612"
    },
    {
      "channel": 3,
      "note": 72,
      "start": 1.5066,
      "duration": 0.0288,
      "velocity": 98,
      "chip": "ym2612"
    },
    {
      "channel": 4,
      "note": 91,
      "start": 1.5068,
      "duration": 0.146,
      "velocity": 96,
      "chip": "ym2612"
    },
    {
      "channel": 0,
      "note": 60,
      "start": 1.6518,
      "duration": 0.1617,
      "velocity": 84,
      "chip": "ym2612"
    },
    {
      "channel": 1,
      "note": 86,
      "start": 1.6521,
      "duration": 0.029,
      "velocity": 98,
      "chip": "ym2612"
    },
    {
      "channel": 2,
      "note": 81,
      "start": 1.6524,
      "duration": 0.0289,
      "velocity": 98,
      "chip": "ym2612"
    },
    {
      "channel": 3,
      "note": 77,
      "start": 1.6527,
      "duration": 0.0288,
      "velocity": 98,
      "chip": "ym2612"
    },
    {
      "channel": 4,
      "note": 91,
      "start": 1.653,
      "duration": 0.0286,
      "velocity": 96,
      "chip": "ym2612"
    },
    {
      "channel": 4,
      "note": 91,
      "start": 1.6819,
      "duration": 0.116,
      "velocity": 96,
      "chip": "ym2612"
    },
    {
      "channel": 4,
      "note": 91,
      "start": 1.7981,
      "duration": 0.0046,
      "velocity": 96,
      "chip": "ym2612"
    },
    {
      "channel": 4,
      "note": 91,
      "start": 1.803,
      "duration": 0.0132,
      "velocity": 96,
      "chip": "ym2612"
    },
    {
      "channel": 4,
      "note": 91,
      "start": 1.8164,
      "duration": 0.0333,
      "velocity": 96,
      "chip": "ym2612"
    },
    {
      "channel": 0,
      "note": 55,
      "start": 1.8202,
      "duration": 0.0291,
      "velocity": 84,
      "chip": "ym2612"
    },
    {
      "channel": 1,
      "note": 83,
      "start": 1.8204,
      "duration": 0.146,
      "velocity": 95,
      "chip": "ym2612"
    },
    {
      "channel": 2,
      "note": 71,
      "start": 1.8207,
      "duration": 0.146,
      "velocity": 95,
      "chip": "ym2612"
    },
    {
      "channel": 3,
      "note": 67,
      "start": 1.8211,
      "duration": 0.1459,
      "velocity": 95,
      "chip": "ym2612"
    },
    {
      "channel": 4,
      "note": 91,
      "start": 1.85,
      "duration": 0.1469,
      "velocity": 96,
      "chip": "ym2612"
    },
    {
      "channel": 0,
      "note": 62,
      "start": 1.9664,
      "duration": 0.0526,
      "velocity": 84,
      "chip": "ym2612"
    },
    {
      "channel": 1,
      "note": 83,
      "start": 1.9666,
      "duration": 0.0293,
      "velocity": 95,
      "chip": "ym2612"
    },
    {
      "channel": 2,
      "note": 71,
      "start": 1.9669,
      "duration": 0.0293,
      "velocity": 95,
      "chip": "ym2612"
    },
    {
      "channel": 3,
      "note": 67,
      "start": 1.9672,
      "duration": 0.0293,
      "velocity": 95,
      "chip": "ym2612"
    },
    {
      "channel": 1,
      "note": 83,
      "start": 1.9961,
      "duration": 0.0058,
      "velocity": 95,
      "chip": "ym2612"
    },
    {
      "channel": 2,
      "note": 71,
      "start": 1.9965,
      "duration": 0.0057,
      "velocity": 95,
      "chip": "ym2612"
    },
    {
      "channel": 3,
      "note": 67,
      "start": 1.9968,
      "duration": 0.0056,
      "velocity": 95,
      "chip": "ym2612"
    },
    {
      "channel": 4,
      "note": 91,
      "start": 1.997,
      "duration": 0.0056,
      "velocity": 96,
      "chip": "ym2612"
    },
    {
      "channel": 1,
      "note": 83,
      "start": 2.0021,
      "duration": 0.0052,
      "velocity": 95,
      "chip": "ym2612"
    },
    {
      "channel": 2,
      "note": 71,
      "start": 2.0024,
      "duration": 0.005,
      "velocity": 95,
      "chip": "ym2612"
    },
    {
      "channel": 3,
      "note": 67,
      "start": 2.0026,
      "duration": 0.0048,
      "velocity": 95,
      "chip": "ym2612"
    },
    {
      "channel": 4,
      "note": 91,
      "start": 2.0028,
      "duration": 0.0113,
      "velocity": 96,
      "chip": "ym2612"
    },
    {
      "channel": 1,
      "note": 86,
      "start": 2.0135,
      "duration": 0.0056,
      "velocity": 95,
      "chip": "ym2612"
    },
    {
      "channel": 2,
      "note": 74,
      "start": 2.0137,
      "duration": 0.0054,
      "velocity": 95,
      "chip": "ym2612"
    },
    {
      "channel": 3,
      "note": 71,
      "start": 2.014,
      "duration": 0.0053,
      "velocity": 95,
      "chip": "ym2612"
    },
    {
      "channel": 4,
      "note": 91,
      "start": 2.0142,
      "duration": 0.0092,
      "velocity": 96,
      "chip": "ym2612"
    },
    {
      "channel": 0,
      "note": 60,
      "start": 2.0226,
      "duration": 0.0056,
      "velocity": 84,
      "chip": "ym2612"
    },
    {
      "channel": 1,
      "note": 88,
      "start": 2.0229,
      "duration": 0.0055,
      "velocity": 95,
      "chip": "ym2612"
    },
    {
      "channel": 2,
      "note": 76,
      "start": 2.0231,
      "duration": 0.0054,
      "velocity": 95,
      "chip": "ym2612"
    },
    {
      "channel": 3,
      "note": 72,
      "start": 2.0234,
      "duration": 0.0051,
      "velocity": 95,
      "chip": "ym2612"
    },
    {
      "channel": 4,
      "note": 91,
      "start": 2.0237,
      "duration": 0.009,
      "velocity": 96,
      "chip": "ym2612"
    },
    {
      "channel": 0,
      "note": 60,
      "start": 2.0319,
      "duration": 0.0055,
      "velocity": 84,
      "chip": "ym2612"
    },
    {
      "channel": 1,
      "note": 88,
      "start": 2.0322,
      "duration": 0.0055,
      "velocity": 95,
      "chip": "ym2612"
    },
    {
      "channel": 2,
      "note": 76,
      "start": 2.0324,
      "duration": 0.0056,
      "velocity": 95,
      "chip": "ym2612"
    },
    {
      "channel": 3,
      "note": 72,
      "start": 2.0327,
      "duration": 0.0055,
      "velocity": 95,
      "chip": "ym2612"
    },
    {
      "channel": 4,
      "note": 91,
      "start": 2.0329,
      "duration": 0.0056,
      "velocity": 96,
      "chip": "ym2612"
    },
    {
      "channel": 0,
      "note": 60,
      "start": 2.0375,
      "duration": 0.005,
      "velocity": 84,
      "chip": "ym2612"
    },
    {
      "channel": 1,
      "note": 88,
      "start": 2.0378,
      "duration": 0.0048,
      "velocity": 95,
      "chip": "ym2612"
    },
    {
      "channel": 2,
      "note": 76,
      "start": 2.0381,
      "duration": 0.0047,
      "velocity": 95,
      "chip": "ym2612"
    },
    {
      "channel": 3,
      "note": 72,
      "start": 2.0384,
      "duration": 0.0045,
      "velocity": 95,
      "chip": "ym2612"
    },
    {
      "channel": 4,
      "note": 91,
      "start": 2.0386,
      "duration": 0.0043,
      "velocity": 96,
      "chip": "ym2612"
    },
    {
      "channel": 4,
      "note": 91,
      "start": 2.0432,
      "duration": 0.0038,
      "velocity": 96,
      "chip": "ym2612"
    },
    {
      "channel": 4,
      "note": 91,
      "start": 2.0471,
      "duration": 0.0124,
      "velocity": 96,
      "chip": "ym2612"
    },
    {
      "channel": 0,
      "note": 60,
      "start": 2.0564,
      "duration": 0.2627,
      "velocity": 84,
      "chip": "ym2612"
    },
    {
      "channel": 1,
      "note": 84,
      "start": 2.0573,
      "duration": 0.262,
      "velocity": 98,
      "chip": "ym2612"
    },
    {
      "channel": 2,
      "note": 79,
      "start": 2.0584,
      "duration": 0.2612,
      "velocity": 98,
      "chip": "ym2612"
    },
    {
      "channel": 3,
      "note": 76,
      "start": 2.0595,
      "duration": 0.2605,
      "velocity": 98,
      "chip": "ym2612"
    },
    {
      "channel": 4,
      "note": 91,
      "start": 2.0598,
      "duration": 0.1429,
      "velocity": 96,
      "chip": "ym2612"
    },
    {
      "channel": 4,
      "note": 91,
      "start": 2.2028,
      "duration": 0.1468,
      "velocity": 96,
      "chip": "ym2612"
    },
    {
      "channel": 0,
      "note": 55,
      "start": 2.3193,
      "duration": 0.0524,
      "velocity": 84,
      "chip": "ym2612"
    },
    {
      "channel": 1,
      "note": 84,
      "start": 2.3195,
      "duration": 0.0293,
      "velocity": 98,
      "chip": "ym2612"
    },
    {
      "channel": 2,
      "note": 79,
      "start": 2.3198,
      "duration": 0.0292,
      "velocity": 98,
      "chip": "ym2612"
    },
    {
      "channel": 3,
      "note": 76,
      "start": 2.3202,
      "duration": 0.0291,
      "velocity": 98,
      "chip": "ym2612"
    },
    {
      "channel": 1,
      "note": 84,
      "start": 2.3489,
      "duration": 0.0057,
      "velocity": 98,
      "chip": "ym2612"
    },
    {
      "channel": 2,
      "note": 79,
      "start": 2.3492,
      "duration": 0.0057,
      "velocity": 98,
      "chip": "ym2612"
    },
    {
      "channel": 3,
      "note": 76,
      "start": 2.3495,
      "duration": 0.0056,
      "velocity": 98,
      "chip": "ym2612"
    },
    {
      "channel": 4,
      "note": 91,
      "start": 2.3498,
      "duration": 0.0056,
      "velocity": 96,
      "chip": "ym2612"
    },
    {
      "channel": 1,
      "note": 79,
      "start": 2.3548,
      "duration": 0.0052,
      "velocity": 98,
      "chip": "ym2612"
    },
    {
      "channel": 2,
      "note": 76,
      "start": 2.3551,
      "duration": 0.005,
      "velocity": 98,
      "chip": "ym2612"
    },
    {
      "channel": 3,
      "note": 74,
      "start": 2.3554,
      "duration": 0.0048,
      "velocity": 98,
      "chip": "ym2612"
    },
    {
      "channel": 4,
      "note": 91,
      "start": 2.3555,
      "duration": 0.0113,
      "velocity": 96,
      "chip": "ym2612"
    },
    {
      "channel": 1,
      "note": 81,
      "start": 2.3662,
      "duration": 0.0056,
      "velocity": 98,
      "chip": "ym2612"
    },
    {
      "channel": 2,
      "note": 77,
      "start": 2.3665,
      "duration": 0.0054,
      "velocity": 98,
      "chip": "ym2612"
    },
    {
      "channel": 3,
      "note": 72,
      "start": 2.3667,
      "duration": 0.0053,
      "velocity": 98,
      "chip": "ym2612"
    },
    {
      "channel": 4,
      "note": 91,
      "start": 2.367,
      "duration": 0.0088,
      "velocity": 96,
      "chip": "ym2612"
    },
    {
      "channel": 0,
      "note": 53,
      "start": 2.3751,
      "duration": 0.029,
      "velocity": 84,
      "chip": "ym2612"
    },
    {
      "channel": 1,
      "note": 77,
      "start": 2.3753,
      "duration": 0.0297,
      "velocity": 95,
      "chip": "ym2612"
    },
    {
      "channel": 2,
      "note": 74,
      "start": 2.3755,
      "duration": 0.0303,
      "velocity": 95,
      "chip": "ym2612"
    },
    {
      "channel": 3,
      "note": 69,
      "start": 2.3756,
      "duration": 0.0311,
      "velocity": 95,
      "chip": "ym2612"
    },
    {
      "channel": 4,
      "note": 91,
      "start": 2.376,
      "duration": 0.1452,
      "velocity": 96,
      "chip": "ym2612"
    },
    {
      "channel": 0,
      "note": 60,
      "start": 2.521,
      "duration": 0.1618,
      "velocity": 84,
      "chip": "ym2612"
    },
    {
      "channel": 4,
      "note": 91,
      "start": 2.5215,
      "duration": 0.0291,
      "velocity": 96,
      "chip": "ym2612"
    },
    {
      "channel": 4,
      "note": 91,
      "start": 2.5507,
      "duration": 0.1164,
      "velocity": 96,
      "chip": "ym2612"
    },
    {
      "channel": 4,
      "note": 91,
      "start": 2.6674,
      "duration": 0.0047,
      "velocity": 96,
      "chip": "ym2612"
    },
    {
      "channel": 4,
      "note": 91,
      "start": 2.6723,
      "duration": 0.0112,
      "velocity": 96,
      "chip": "ym2612"
    },
    {
      "channel": 4,
      "note": 91,
      "start": 2.6837,
      "duration": 0.0349,
      "velocity": 96,
      "chip": "ym2612"
    },
    {
      "channel": 0,
      "note": 55,
      "start": 2.6888,
      "duration": 0.0295,
      "velocity": 84,
      "chip": "ym2612"
    },
    {
      "channel": 1,
      "note": 74,
      "start": 2.6915,
      "duration": 0.1102,
      "velocity": 95,
      "chip": "ym2612"
    },
    {
      "channel": 2,
      "note": 62,
      "start": 2.6917,
      "duration": 0.1103,
      "velocity": 95,
      "chip": "ym2612"
    },
    {
      "channel": 3,
      "note": 71,
      "start": 2.6919,
      "duration": 0.1103,
      "velocity": 95,
      "chip": "ym2612"
    },
    {
      "channel": 4,
      "note": 91,
      "start": 2.7189,
      "duration": 0.147,
      "velocity": 96,
      "chip": "ym2612"
    },
    {
      "channel": 1,
      "note": 76,
      "start": 2.8019,
      "duration": 0.063,
      "velocity": 95,
      "chip": "ym2612"
    },
    {
      "channel": 2,
      "note": 64,
      "start": 2.8022,
      "duration": 0.063,
      "velocity": 95,
      "chip": "ym2612"
    },
    {
      "channel": 3,
      "note": 72,
      "start": 2.8024,
      "duration": 0.0631,
      "velocity": 95,
      "chip": "ym2612"
    },
    {
      "channel": 0,
      "note": 62,
      "start": 2.8353,
      "duration": 0.0522,
      "velocity": 84,
      "chip": "ym2612"
    },
    {
      "channel": 1,
      "note": 77,
      "start": 2.8651,
      "duration": 0.0076,
      "velocity": 95,
      "chip": "ym2612"
    },
    {
      "channel": 2,
      "note": 65,
      "start": 2.8654,
      "duration": 0.0075,
      "velocity": 95,
      "chip": "ym2612"
    },
    {
      "channel": 3,
      "note": 74,
      "start": 2.8658,
      "duration": 0.0075,
      "velocity": 95,
      "chip": "ym2612"
    },
    {
      "channel": 4,
      "note": 91,
      "start": 2.866,
      "duration": 0.0049,
      "velocity": 96,
      "chip": "ym2612"
    },
    {
      "channel": 4,
      "note": 91,
      "start": 2.8711,
      "duration": 0.0114,
      "velocity": 96,
      "chip": "ym2612"
    },
    {
      "channel": 1,
      "note": 79,
      "start": 2.8729,
      "duration": 0.0064,
      "velocity": 95,
      "chip": "ym2612"
    },
    {
      "channel": 2,
      "note": 67,
      "start": 2.8731,
      "duration": 0.0064,
      "velocity": 95,
      "chip": "ym2612"
    },
    {
      "channel": 3,
      "note": 76,
      "start": 2.8735,
      "duration": 0.0063,
      "velocity": 95,
      "chip": "ym2612"
    },
    {
      "channel": 1,
      "note": 81,
      "start": 2.8794,
      "duration": 0.0082,
      "velocity": 95,
      "chip": "ym2612"
    },
    {
      "channel": 2,
      "note": 69,
      "start": 2.8797,
      "duration": 0.0082,
      "velocity": 95,
      "chip": "ym2612"
    },
    {
      "channel": 3,
      "note": 77,
      "start": 2.88,
      "duration": 0.0082,
      "velocity": 95,
      "chip": "ym2612"
    },
    {
      "channel": 4,
      "note": 91,
      "start": 2.8826,
      "duration": 0.0097,
      "velocity": 96,
      "chip": "ym2612"
    },
    {
      "channel": 1,
      "note": 83,
      "start": 2.8878,
      "duration": 0.0037,
      "velocity": 95,
      "chip": "ym2612"
    },
    {
      "channel": 2,
      "note": 71,
      "start": 2.8881,
      "duration": 0.0037,
      "velocity": 95,
      "chip": "ym2612"
    },
    {
      "channel": 3,
      "note": 79,
      "start": 2.8884,
      "duration": 0.0037,
      "velocity": 95,
      "chip": "ym2612"
    },
    {
      "channel": 0,
      "note": 60,
      "start": 2.8915,
      "duration": 0.029,
      "velocity": 84,
      "chip": "ym2612"
    },
    {
      "channel": 1,
      "note": 83,
      "start": 2.8917,
      "duration": 0.0289,
      "velocity": 95,
      "chip": "ym2612"
    },
    {
      "channel": 2,
      "note": 71,
      "start": 2.892,
      "duration": 0.0288,
      "velocity": 95,
      "chip": "ym2612"
    },
    {
      "channel": 3,
      "note": 79,
      "start": 2.8923,
      "duration": 0.0287,
      "velocity": 95,
      "chip": "ym2612"
    },
    {
      "channel": 4,
      "note": 91,
      "start": 2.8925,
      "duration": 0.1459,
      "velocity": 96,
      "chip": "ym2612"
    },
    {
      "channel": 0,
      "note": 55,
      "start": 3.0375,
      "duration": 0.1649,
      "velocity": 84,
      "chip": "ym2612"
    },
    {
      "channel": 1,
      "note": 79,
      "start": 3.0378,
      "duration": 0.0298,
      "velocity": 98,
      "chip": "ym2612"
    },
    {
      "channel": 2,
      "note": 67,
      "start": 3.0381,
      "duration": 0.0304,
      "velocity": 98,
      "chip": "ym2612"
    },
    {
      "channel": 3,
      "note": 74,
      "start": 3.0384,
      "duration": 0.031,
      "velocity": 98,
      "chip": "ym2612"
    },
    {
      "channel": 4,
      "note": 91,
      "start": 3.0387,
      "duration": 0.0308,
      "velocity": 96,
      "chip": "ym2612"
    },
    {
      "channel": 4,
      "note": 91,
      "start": 3.0697,
      "duration": 0.1146,
      "velocity": 96,
      "chip": "ym2612"
    },
    {
      "channel": 1,
      "note": 86,
      "start": 3.1838,
      "duration": 0.0049,
      "velocity": 98,
      "chip": "ym2612"
    },
    {
      "channel": 2,
      "note": 79,
      "start": 3.184,
      "duration": 0.0049,
      "velocity": 98,
      "chip": "ym2612"
    },
    {
      "channel": 3,
      "note": 74,
      "start": 3.1842,
      "duration": 0.0047,
      "velocity": 98,
      "chip": "ym2612"
    },
    {
      "channel": 4,
      "note": 91,
      "start": 3.1844,
      "duration": 0.0047,
      "velocity": 96,
      "chip": "ym2612"
    },
    {
      "channel": 4,
      "note": 91,
      "start": 3.1893,
      "duration": 0.0136,
      "velocity": 96,
      "chip": "ym2612"
    },
    {
      "channel": 1,
      "note": 84,
      "start": 3.1946,
      "duration": 0.3005,
      "velocity": 98,
      "chip": "ym2612"
    },
    {
      "channel": 2,
      "note": 79,
      "start": 3.1949,
      "duration": 0.3005,
      "velocity": 98,
      "chip": "ym2612"
    },
    {
      "channel": 3,
      "note": 76,
      "start": 3.1952,
      "duration": 0.3005,
      "velocity": 98,
      "chip": "ym2612"
    },
    {
      "channel": 0,
      "note": 60,
      "start": 3.2027,
      "duration": 0.2625,
      "velocity": 84,
      "chip": "ym2612"
    },
    {
      "channel": 4,
      "note": 91,
      "start": 3.2032,
      "duration": 0.1456,
      "velocity": 96,
      "chip": "ym2612"
    },
    {
      "channel": 4,
      "note": 91,
      "start": 3.349,
      "duration": 0.147,
      "velocity": 96,
      "chip": "ym2612"
    },
    {
      "channel": 0,
      "note": 55,
      "start": 3.4654,
      "duration": 0.0516,
      "velocity": 84,
      "chip": "ym2612"
    },
    {
      "channel": 1,
      "note": 79,
      "start": 3.4953,
      "duration": 0.022,
      "velocity": 98,
      "chip": "ym2612"
    },
    {
      "channel": 2,
      "note": 76,
      "start": 3.4956,
      "duration": 0.022,
      "velocity": 98,
      "chip": "ym2612"
    },
    {
      "channel": 3,
      "note": 72,
      "start": 3.4959,
      "duration": 0.0219,
      "velocity": 98,
      "chip": "ym2612"
    },
    {
      "channel": 4,
      "note": 91,
      "start": 3.4962,
      "duration": 0.0051,
      "velocity": 96,
      "chip": "ym2612"
    },
    {
      "channel": 4,
      "note": 91,
      "start": 3.5015,
      "duration": 0.0106,
      "velocity": 96,
      "chip": "ym2612"
    },
    {
      "channel": 4,
      "note": 91,
      "start": 3.5123,
      "duration": 0.0097,
      "velocity": 96,
      "chip": "ym2612"
    },
    {
      "channel": 1,
      "note": 81,
      "start": 3.5174,
      "duration": 0.0039,
      "velocity": 98,
      "chip": "ym2612"
    },
    {
      "channel": 2,
      "note": 77,
      "start": 3.5177,
      "duration": 0.0038,
      "velocity": 98,
      "chip": "ym2612"
    },
    {
      "channel": 3,
      "note": 72,
      "start": 3.518,
      "duration": 0.0038,
      "velocity": 98,
      "chip": "ym2612"
    },
    {
      "channel": 0,
      "note": 53,
      "start": 3.5212,
      "duration": 0.029,
      "velocity": 84,
      "chip": "ym2612"
    },
    {
      "channel": 1,
      "note": 81,
      "start": 3.5215,
      "duration": 0.029,
      "velocity": 98,
      "chip": "ym2612"
    },
    {
      "channel": 2,
      "note": 77,
      "start": 3.5217,
      "duration": 0.0289,
      "velocity": 98,
      "chip": "ym2612"
    },
    {
      "channel": 3,
      "note": 72,
      "start": 3.522,
      "duration": 0.0288,
      "velocity": 98,
      "chip": "ym2612"
    },
    {
      "channel": 4,
      "note": 91,
      "start": 3.5222,
      "duration": 0.146,
      "velocity": 96,
      "chip": "ym2612"
    },
    {
      "channel": 0,
      "note": 60,
      "start": 3.6672,
      "duration": 0.1617,
      "velocity": 84,
      "chip": "ym2612"
    },
    {
      "channel": 1,
      "note": 86,
      "start": 3.6676,
      "duration": 0.029,
      "velocity": 98,
      "chip": "ym2612"
    },
    {
      "channel": 2,
      "note": 81,
      "start": 3.6678,
      "duration": 0.0289,
      "velocity": 98,
      "chip": "ym2612"
    },
    {
      "channel": 3,
      "note": 77,
      "start": 3.6681,
      "duration": 0.0288,
      "velocity": 98,
      "chip": "ym2612"
    },
    {
      "channel": 4,
      "note": 91,
      "start": 3.6684,
      "duration": 0.0286,
      "velocity": 96,
      "chip": "ym2612"
    },
    {
      "channel": 4,
      "note": 91,
      "start": 3.6973,
      "duration": 0.116,
      "velocity": 96,
      "chip": "ym2612"
    },
    {
      "channel": 4,
      "note": 91,
      "start": 3.8135,
      "duration": 0.0046,
      "velocity": 96,
      "chip": "ym2612"
    },
    {
      "channel": 4,
      "note": 91,
      "start": 3.8184,
      "duration": 0.0132,
      "velocity": 96,
      "chip": "ym2612"
    },
    {
      "channel": 4,
      "note": 91,
      "start": 3.8318,
      "duration": 0.0333,
      "velocity": 96,
      "chip": "ym2612"
    },
    {
      "channel": 0,
      "note": 55,
      "start": 3.8357,
      "duration": 0.0291,
      "velocity": 84,
      "chip": "ym2612"
    },
    {
      "channel": 1,
      "note": 83,
      "start": 3.8359,
      "duration": 0.146,
      "velocity": 95,
      "chip": "ym2612"
    },
    {
      "channel": 2,
      "note": 71,
      "start": 3.8362,
      "duration": 0.146,
      "velocity": 95,
      "chip": "ym2612"
    },
    {
      "channel": 3,
      "note": 67,
      "start": 3.8365,
      "duration": 0.1459,
      "velocity": 95,
      "chip": "ym2612"
    },
    {
      "channel": 4,
      "note": 91,
      "start": 3.8654,
      "duration": 0.1469,
      "velocity": 96,
      "chip": "ym2612"
    },
    {
      "channel": 0,
      "note": 62,
      "start": 3.9818,
      "duration": 0.0526,
      "velocity": 84,
      "chip": "ym2612"
    },
    {
      "channel": 1,
      "note": 83,
      "start": 3.982,
      "duration": 0.0293,
      "velocity": 95,
      "chip": "ym2612"
    },
    {
      "channel": 2,
      "note": 71,
      "start": 3.9824,
      "duration": 0.0293,
      "velocity": 95,
      "chip": "ym2612"
    },
    {
      "channel": 3,
      "note": 67,
      "start": 3.9826,
      "duration": 0.0293,
      "velocity": 95,
      "chip": "ym2612"
    },
    {
      "channel": 1,
      "note": 83,
      "start": 4.0115,
      "duration": 0.0058,
      "velocity": 95,
      "chip": "ym2612"
    },
    {
      "channel": 2,
      "note": 71,
      "start": 4.0119,
      "duration": 0.0057,
      "velocity": 95,
      "chip": "ym2612"
    },
    {
      "channel": 3,
      "note": 67,
      "start": 4.0122,
      "duration": 0.0056,
      "velocity": 95,
      "chip": "ym2612"
    },
    {
      "channel": 4,
      "note": 91,
      "start": 4.0124,
      "duration": 0.0056,
      "velocity": 96,
      "chip": "ym2612"
    },
    {
      "channel": 1,
      "note": 83,
      "start": 4.0175,
      "duration": 0.0052,
      "velocity": 95,
      "chip": "ym2612"
    },
    {
      "channel": 2,
      "note": 71,
      "start": 4.0178,
      "duration": 0.005,
      "velocity": 95,
      "chip": "ym2612"
    },
    {
      "channel": 3,
      "note": 67,
      "start": 4.018,
      "duration": 0.0048,
      "velocity": 95,
      "chip": "ym2612"
    },
    {
      "channel": 4,
      "note": 91,
      "start": 4.0182,
      "duration": 0.0113,
      "velocity": 96,
      "chip": "ym2612"
    },
    {
      "channel": 1,
      "note": 86,
      "start": 4.0289,
      "duration": 0.0056,
      "velocity": 95,
      "chip": "ym2612"
    },
    {
      "channel": 2,
      "note": 74,
      "start": 4.0292,
      "duration": 0.0054,
      "velocity": 95,
      "chip": "ym2612"
    },
    {
      "channel": 3,
      "note": 71,
      "start": 4.0294,
      "duration": 0.0053,
      "velocity": 95,
      "chip": "ym2612"
    },
    {
      "channel": 4,
      "note": 91,
      "start": 4.0297,
      "duration": 0.0092,
      "velocity": 96,
      "chip": "ym2612"
    },
    {
      "channel": 0,
      "note": 60,
      "start": 4.038,
      "duration": 0.0056,
      "velocity": 84,
      "chip": "ym2612"
    },
    {
      "channel": 1,
      "note": 88,
      "start": 4.0383,
      "duration": 0.0055,
      "velocity": 95,
      "chip": "ym2612"
    },
    {
      "channel": 2,
      "note": 76,
      "start": 4.0385,
      "duration": 0.0054,
      "velocity": 95,
      "chip": "ym2612"
    },
    {
      "channel": 3,
      "note": 72,
      "start": 4.0388,
      "duration": 0.0051,
      "velocity": 95,
      "chip": "ym2612"
    },
    {
      "channel": 4,
      "note": 91,
      "start": 4.0391,
      "duration": 0.009,
      "velocity": 96,
      "chip": "ym2612"
    },
    {
      "channel": 0,
      "note": 60,
      "start": 4.0473,
      "duration": 0.0055,
      "velocity": 84,
      "chip": "ym2612"
    },
    {
      "channel": 1,
      "note": 88,
      "start": 4.0476,
      "duration": 0.0055,
      "velocity": 95,
      "chip": "ym2612"
    },
    {
      "channel": 2,
      "note": 76,
      "start": 4.0478,
      "duration": 0.0056,
      "velocity": 95,
      "chip": "ym2612"
    },
    {
      "channel": 3,
      "note": 72,
      "start": 4.0481,
      "duration": 0.0055,
      "velocity": 95,
      "chip": "ym2612"
    },
    {
      "channel": 4,
      "note": 91,
      "start": 4.0483,
      "duration": 0.0056,
      "velocity": 96,
      "chip": "ym2612"
    },
    {
      "channel": 0,
      "note": 60,
      "start": 4.0529,
      "duration": 0.005,
      "velocity": 84,
      "chip": "ym2612"
    },
    {
      "channel": 1,
      "note": 88,
      "start": 4.0533,
      "duration": 0.0048,
      "velocity": 95,
      "chip": "ym2612"
    },
    {
      "channel": 2,
      "note": 76,
      "start": 4.0535,
      "duration": 0.0047,
      "velocity": 95,
      "chip": "ym2612"
    },
    {
      "channel": 3,
      "note": 72,
      "start": 4.0538,
      "duration": 0.0045,
      "velocity": 95,
      "chip": "ym2612"
    },
    {
      "channel": 4,
      "note": 91,
      "start": 4.054,
      "duration": 0.0043,
      "velocity": 96,
      "chip": "ym2612"
    },
    {
      "channel": 4,
      "note": 91,
      "start": 4.0586,
      "duration": 0.0038,
      "velocity": 96,
      "chip": "ym2612"
    },
    {
      "channel": 4,
      "note": 91,
      "start": 4.0625,
      "duration": 0.0107,
      "velocity": 115,
      "chip": "ym2612"
    },
    {
      "channel": 0,
      "note": 57,
      "start": 4.0773,
      "duration": 0.0303,
      "velocity": 84,
      "chip": "ym2612"
    },
    {
      "channel": 1,
      "note": 81,
      "start": 4.0776,
      "duration": 0.178,
      "velocity": 96,
      "chip": "ym2612"
    },
    {
      "channel": 2,
      "note": 77,
      "start": 4.078,
      "duration": 0.178,
      "velocity": 96,
      "chip": "ym2612"
    },
    {
      "channel": 3,
      "note": 81,
      "start": 4.0816,
      "duration": 0.2243,
      "velocity": 96,
      "chip": "ym2612"
    },
    {
      "channel": 4,
      "note": 59,
      "start": 4.1085,
      "duration": 0.148,
      "velocity": 115,
      "chip": "ym2612"
    },
    {
      "channel": 0,
      "note": 62,
      "start": 4.2246,
      "duration": 0.297,
      "velocity": 84,
      "chip": "ym2612"
    },
    {
      "channel": 1,
      "note": 86,
      "start": 4.2559,
      "duration": 0.2659,
      "velocity": 96,
      "chip": "ym2612"
    },
    {
      "channel": 2,
      "note": 81,
      "start": 4.2562,
      "duration": 0.2658,
      "velocity": 96,
      "chip": "ym2612"
    },
    {
      "channel": 4,
      "note": 59,
      "start": 4.2566,
      "duration": 0.2495,
      "velocity": 115,
      "chip": "ym2612"
    },
    {
      "channel": 3,
      "note": 86,
      "start": 4.3062,
      "duration": 0.2191,
      "velocity": 96,
      "chip": "ym2612"
    },
    {
      "channel": 1,
      "note": 84,
      "start": 4.5219,
      "duration": 0.0074,
      "velocity": 96,
      "chip": "ym2612"
    },
    {
      "channel": 2,
      "note": 79,
      "start": 4.5222,
      "duration": 0.0075,
      "velocity": 96,
      "chip": "ym2612"
    },
    {
      "channel": 4,
      "note": 59,
      "start": 4.5225,
      "duration": 0.1553,
      "velocity": 115,
      "chip": "ym2612"
    },
    {
      "channel": 3,
      "note": 84,
      "start": 4.5255,
      "duration": 0.0089,
      "velocity": 96,
      "chip": "ym2612"
    },
    {
      "channel": 0,
      "note": 55,
      "start": 4.5292,
      "duration": 0.031,
      "velocity": 84,
      "chip": "ym2612"
    },
    {
      "channel": 1,
      "note": 84,
      "start": 4.5296,
      "duration": 0.0308,
      "velocity": 96,
      "chip": "ym2612"
    },
    {
      "channel": 2,
      "note": 79,
      "start": 4.5299,
      "duration": 0.0307,
      "velocity": 96,
      "chip": "ym2612"
    },
    {
      "channel": 3,
      "note": 84,
      "start": 4.5346,
      "duration": 0.0758,
      "velocity": 96,
      "chip": "ym2612"
    },
    {
      "channel": 0,
      "note": 60,
      "start": 4.6772,
      "duration": 0.2977,
      "velocity": 84,
      "chip": "ym2612"
    },
    {
      "channel": 1,
      "note": 88,
      "start": 4.6775,
      "duration": 0.2974,
      "velocity": 96,
      "chip": "ym2612"
    },
    {
      "channel": 2,
      "note": 84,
      "start": 4.6778,
      "duration": 0.2973,
      "velocity": 96,
      "chip": "ym2612"
    },
    {
      "channel": 4,
      "note": 59,
      "start": 4.6781,
      "duration": 0.2806,
      "velocity": 115,
      "chip": "ym2612"
    },
    {
      "channel": 3,
      "note": 88,
      "start": 4.6821,
      "duration": 0.2951,
      "velocity": 96,
      "chip": "ym2612"
    },
    {
      "channel": 4,
      "note": 59,
      "start": 4.9588,
      "duration": 0.0165,
      "velocity": 115,
      "chip": "ym2612"
    },
    {
      "channel": 0,
      "note": 53,
      "start": 4.9799,
      "duration": 0.0301,
      "velocity": 84,
      "chip": "ym2612"
    },
    {
      "channel": 1,
      "note": 86,
      "start": 4.9802,
      "duration": 0.03,
      "velocity": 96,
      "chip": "ym2612"
    },
    {
      "channel": 2,
      "note": 81,
      "start": 4.9805,
      "duration": 0.0299,
      "velocity": 96,
      "chip": "ym2612"
    },
    {
      "channel": 3,
      "note": 86,
      "start": 4.9842,
      "duration": 0.076,
      "velocity": 96,
      "chip": "ym2612"
    },
    {
      "channel": 4,
      "note": 59,
      "start": 5.011,
      "duration": 0.148,
      "velocity": 115,
      "chip": "ym2612"
    },
    {
      "channel": 0,
      "note": 59,
      "start": 5.127,
      "duration": 0.1478,
      "velocity": 84,
      "chip": "ym2612"
    },
    {
      "channel": 1,
      "note": 86,
      "start": 5.1273,
      "duration": 0.031,
      "velocity": 96,
      "chip": "ym2612"
    },
    {
      "channel": 2,
      "note": 81,
      "start": 5.1276,
      "duration": 0.031,
      "velocity": 96,
      "chip": "ym2612"
    },
    {
      "channel": 3,
      "note": 86,
      "start": 5.132,
      "duration": 0.0766,
      "velocity": 96,
      "chip": "ym2612"
    },
    {
      "channel": 1,
      "note": 84,
      "start": 5.1585,
      "duration": 0.1166,
      "velocity": 96,
      "chip": "ym2612"
    },
    {
      "channel": 2,
      "note": 79,
      "start": 5.1588,
      "duration": 0.1165,
      "velocity": 96,
      "chip": "ym2612"
    },
    {
      "channel": 4,
      "note": 59,
      "start": 5.1592,
      "duration": 0.2499,
      "velocity": 115,
      "chip": "ym2612"
    },
    {
      "channel": 3,
      "note": 84,
      "start": 5.2087,
      "duration": 0.1329,
      "velocity": 96,
      "chip": "ym2612"
    },
    {
      "channel": 0,
      "note": 57,
      "start": 5.275,
      "duration": 0.1332,
      "velocity": 84,
      "chip": "ym2612"
    },
    {
      "channel": 0,
      "note": 55,
      "start": 5.4084,
      "duration": 0.0072,
      "velocity": 84,
      "chip": "ym2612"
    },
    {
      "channel": 1,
      "note": 86,
      "start": 5.4087,
      "duration": 0.0073,
      "velocity": 96,
      "chip": "ym2612"
    },
    {
      "channel": 2,
      "note": 81,
      "start": 5.409,
      "duration": 0.007,
      "velocity": 96,
      "chip": "ym2612"
    },
    {
      "channel": 3,
      "note": 86,
      "start": 5.412,
      "duration": 0.0073,
      "velocity": 96,
      "chip": "ym2612"
    },
    {
      "channel": 0,
      "note": 53,
      "start": 5.4159,
      "duration": 0.0059,
      "velocity": 84,
      "chip": "ym2612"
    },
    {
      "channel": 0,
      "note": 52,
      "start": 5.422,
      "duration": 0.0077,
      "velocity": 84,
      "chip": "ym2612"
    },
    {
      "channel": 1,
      "note": 88,
      "start": 5.4223,
      "duration": 0.0075,
      "velocity": 96,
      "chip": "ym2612"
    },
    {
      "channel": 2,
      "note": 84,
      "start": 5.4225,
      "duration": 0.0074,
      "velocity": 96,
      "chip": "ym2612"
    },
    {
      "channel": 4,
      "note": 59,
      "start": 5.4228,
      "duration": 0.0208,
      "velocity": 115,
      "chip": "ym2612"
    },
    {
      "channel": 3,
      "note": 88,
      "start": 5.4258,
      "duration": 0.0071,
      "velocity": 96,
      "chip": "ym2612"
    },
    {
      "channel": 0,
      "note": 53,
      "start": 5.4355,
      "duration": 0.0077,
      "velocity": 84,
      "chip": "ym2612"
    },
    {
      "channel": 1,
      "note": 89,
      "start": 5.4358,
      "duration": 0.0076,
      "velocity": 96,
      "chip": "ym2612"
    },
    {
      "channel": 2,
      "note": 85,
      "start": 5.4362,
      "duration": 0.0073,
      "velocity": 96,
      "chip": "ym2612"
    },
    {
      "channel": 3,
      "note": 89,
      "start": 5.4393,
      "duration": 0.0072,
      "velocity": 96,
      "chip": "ym2612"
    },
    {
      "channel": 4,
      "note": 59,
      "start": 5.4438,
      "duration": 0.0191,
      "velocity": 115,
      "chip": "ym2612"
    },
    {
      "channel": 0,
      "note": 54,
      "start": 5.4492,
      "duration": 0.0075,
      "velocity": 84,
      "chip": "ym2612"
    },
    {
      "channel": 1,
      "note": 90,
      "start": 5.4494,
      "duration": 0.0074,
      "velocity": 96,
      "chip": "ym2612"
    },
    {
      "channel": 2,
      "note": 86,
      "start": 5.4496,
      "duration": 0.0073,
      "velocity": 96,
      "chip": "ym2612"
    },
    {
      "channel": 3,
      "note": 90,
      "start": 5.4529,
      "duration": 0.0068,
      "velocity": 96,
      "chip": "ym2612"
    },
    {
      "channel": 0,
      "note": 55,
      "start": 5.4623,
      "duration": 0.008,
      "velocity": 84,
      "chip": "ym2612"
    },
    {
      "channel": 1,
      "note": 91,
      "start": 5.4627,
      "duration": 0.0156,
      "velocity": 96,
      "chip": "ym2612"
    },
    {
      "channel": 2,
      "note": 88,
      "start": 5.4628,
      "duration": 0.0155,
      "velocity": 96,
      "chip": "ym2612"
    },
    {
      "channel": 4,
      "note": 59,
      "start": 5.4632,
      "duration": 0.0153,
      "velocity": 115,
      "chip": "ym2612"
    },
    {
      "channel": 3,
      "note": 91,
      "start": 5.4663,
      "duration": 0.0139,
      "velocity": 96,
      "chip": "ym2612"
    },
    {
      "channel": 0,
      "note": 57,
      "start": 5.4823,
      "duration": 0.0299,
      "velocity": 84,
      "chip": "ym2612"
    },
    {
      "channel": 1,
      "note": 81,
      "start": 5.4826,
      "duration": 0.0298,
      "velocity": 96,
      "chip": "ym2612"
    },
    {
      "channel": 2,
      "note": 77,
      "start": 5.4828,
      "duration": 0.0297,
      "velocity": 96,
      "chip": "ym2612"
    },
    {
      "channel": 3,
      "note": 81,
      "start": 5.4861,
      "duration": 0.0762,
      "velocity": 96,
      "chip": "ym2612"
    },
    {
      "channel": 4,
      "note": 59,
      "start": 5.5131,
      "duration": 0.148,
      "velocity": 115,
      "chip": "ym2612"
    },
    {
      "channel": 0,
      "note": 62,
      "start": 5.6291,
      "duration": 0.2942,
      "velocity": 84,
      "chip": "ym2612"
    },
    {
      "channel": 1,
      "note": 81,
      "start": 5.6294,
      "duration": 0.031,
      "velocity": 96,
      "chip": "ym2612"
    },
    {
      "channel": 2,
      "note": 77,
      "start": 5.6297,
      "duration": 0.031,
      "velocity": 96,
      "chip": "ym2612"
    },
    {
      "channel": 3,
      "note": 81,
      "start": 5.6341,
      "duration": 0.0766,
      "velocity": 96,
      "chip": "ym2612"
    },
    {
      "channel": 1,
      "note": 86,
      "start": 5.6606,
      "duration": 0.1165,
      "velocity": 96,
      "chip": "ym2612"
    },
    {
      "channel": 2,
      "note": 83,
      "start": 5.6609,
      "duration": 0.1163,
      "velocity": 96,
      "chip": "ym2612"
    },
    {
      "channel": 4,
      "note": 59,
      "start": 5.6613,
      "duration": 0.2496,
      "velocity": 115,
      "chip": "ym2612"
    },
    {
      "channel": 3,
      "note": 86,
      "start": 5.7108,
      "duration": 0.1329,
      "velocity": 96,
      "chip": "ym2612"
    },
    {
      "channel": 1,
      "note": 86,
      "start": 5.9106,
      "duration": 0.0068,
      "velocity": 96,
      "chip": "ym2612"
    },
    {
      "channel": 2,
      "note": 83,
      "start": 5.9108,
      "duration": 0.0067,
      "velocity": 96,
      "chip": "ym2612"
    },
    {
      "channel": 3,
      "note": 86,
      "start": 5.9136,
      "duration": 0.0071,
      "velocity": 96,
      "chip": "ym2612"
    },
    {
      "channel": 1,
      "note": 88,
      "start": 5.9236,
      "duration": 0.0084,
      "velocity": 96,
      "chip": "ym2612"
    },
    {
      "channel": 2,
      "note": 83,
      "start": 5.924,
      "duration": 0.0083,
      "velocity": 96,
      "chip": "ym2612"
    },
    {
      "channel": 4,
      "note": 59,
      "start": 5.9242,
      "duration": 0.1562,
      "velocity": 115,
      "chip": "ym2612"
    },
    {
      "channel": 3,
      "note": 88,
      "start": 5.9268,
      "duration": 0.0101,
      "velocity": 96,
      "chip": "ym2612"
    },
    {
      "channel": 0,
      "note": 55,
      "start": 5.932,
      "duration": 0.0306,
      "velocity": 84,
      "chip": "ym2612"
    },
    {
      "channel": 1,
      "note": 87,
      "start": 5.9322,
      "duration": 0.0305,
      "velocity": 96,
      "chip": "ym2612"
    },
    {
      "channel": 2,
      "note": 82,
      "start": 5.9325,
      "duration": 0.0305,
      "velocity": 96,
      "chip": "ym2612"
    },
    {
      "channel": 3,
      "note": 87,
      "start": 5.9372,
      "duration": 0.0757,
      "velocity": 96,
      "chip": "ym2612"
    },
    {
      "channel": 1,
      "note": 86,
      "start": 5.963,
      "duration": 0.1166,
      "velocity": 96,
      "chip": "ym2612"
    },
    {
      "channel": 2,
      "note": 81,
      "start": 5.9633,
      "duration": 0.1167,
      "velocity": 96,
      "chip": "ym2612"
    },
    {
      "channel": 3,
      "note": 86,
      "start": 6.0132,
      "duration": 0.0715,
      "velocity": 96,
      "chip": "ym2612"
    },
    {
      "channel": 0,
      "note": 60,
      "start": 6.0796,
      "duration": 0.2977,
      "velocity": 84,
      "chip": "ym2612"
    },
    {
      "channel": 1,
      "note": 91,
      "start": 6.0799,
      "duration": 0.2977,
      "velocity": 96,
      "chip": "ym2612"
    },
    {
      "channel": 2,
      "note": 88,
      "start": 6.0801,
      "duration": 0.2977,
      "velocity": 96,
      "chip": "ym2612"
    },
    {
      "channel": 4,
      "note": 59,
      "start": 6.0807,
      "duration": 0.2804,
      "velocity": 115,
      "chip": "ym2612"
    },
    {
      "channel": 3,
      "note": 91,
      "start": 6.0847,
      "duration": 0.2964,
      "velocity": 96,
      "chip": "ym2612"
    },
    {
      "channel": 4,
      "note": 59,
      "start": 6.3612,
      "duration": 0.0171,
      "velocity": 115,
      "chip": "ym2612"
    },
    {
      "channel": 0,
      "note": 59,
      "start": 6.3775,
      "duration": 0.0073,
      "velocity": 84,
      "chip": "ym2612"
    },
    {
      "channel": 1,
      "note": 83,
      "start": 6.3778,
      "duration": 0.0074,
      "velocity": 96,
      "chip": "ym2612"
    },
    {
      "channel": 2,
      "note": 79,
      "start": 6.378,
      "duration": 0.0074,
      "velocity": 96,
      "chip": "ym2612"
    },
    {
      "channel": 3,
      "note": 83,
      "start": 6.3813,
      "duration": 0.0081,
      "velocity": 96,
      "chip": "ym2612"
    },
    {
      "channel": 0,
      "note": 59,
      "start": 6.385,
      "duration": 0.0081,
      "velocity": 84,
      "chip": "ym2612"
    },
    {
      "channel": 1,
      "note": 83,
      "start": 6.3854,
      "duration": 0.0078,
      "velocity": 96,
      "chip": "ym2612"
    },
    {
      "channel": 2,
      "note": 79,
      "start": 6.3856,
      "duration": 0.0078,
      "velocity": 96,
      "chip": "ym2612"
    },
    {
      "channel": 3,
      "note": 83,
      "start": 6.3897,
      "duration": 0.006,
      "velocity": 96,
      "chip": "ym2612"
    },
    {
      "channel": 4,
      "note": 59,
      "start": 6.3937,
      "duration": 0.0138,
      "velocity": 115,
      "chip": "ym2612"
    },
    {
      "channel": 0,
      "note": 60,
      "start": 6.3985,
      "duration": 0.0085,
      "velocity": 84,
      "chip": "ym2612"
    },
    {
      "channel": 1,
      "note": 84,
      "start": 6.3987,
      "duration": 0.0085,
      "velocity": 96,
      "chip": "ym2612"
    },
    {
      "channel": 2,
      "note": 79,
      "start": 6.3989,
      "duration": 0.0084,
      "velocity": 96,
      "chip": "ym2612"
    },
    {
      "channel": 3,
      "note": 84,
      "start": 6.403,
      "duration": 0.0065,
      "velocity": 96,
      "chip": "ym2612"
    },
    {
      "channel": 4,
      "note": 59,
      "start": 6.4076,
      "duration": 0.0135,
      "velocity": 115,
      "chip": "ym2612"
    },
    {
      "channel": 0,
      "note": 62,
      "start": 6.412,
      "duration": 0.0087,
      "velocity": 84,
      "chip": "ym2612"
    },
    {
      "channel": 1,
      "note": 86,
      "start": 6.4122,
      "duration": 0.0086,
      "velocity": 96,
      "chip": "ym2612"
    },
    {
      "channel": 2,
      "note": 81,
      "start": 6.4126,
      "duration": 0.0083,
      "velocity": 96,
      "chip": "ym2612"
    },
    {
      "channel": 3,
      "note": 86,
      "start": 6.4167,
      "duration": 0.0062,
      "velocity": 96,
      "chip": "ym2612"
    },
    {
      "channel": 0,
      "note": 64,
      "start": 6.4251,
      "duration": 0.0075,
      "velocity": 84,
      "chip": "ym2612"
    },
    {
      "channel": 1,
      "note": 88,
      "start": 6.4254,
      "duration": 0.0073,
      "velocity": 96,
      "chip": "ym2612"
    },
    {
      "channel": 2,
      "note": 83,
      "start": 6.4257,
      "duration": 0.0071,
      "velocity": 96,
      "chip": "ym2612"
    },
    {
      "channel": 3,
      "note": 88,
      "start": 6.4292,
      "duration": 0.0059,
      "velocity": 96,
      "chip": "ym2612"
    },
    {
      "channel": 4,
      "note": 59,
      "start": 6.4331,
      "duration": 0.0199,
      "velocity": 115,
      "chip": "ym2612"
    },
    {
      "channel": 0,
      "note": 65,
      "start": 6.4378,
      "duration": 0.0089,
      "velocity": 84,
      "chip": "ym2612"
    },
    {
      "channel": 1,
      "note": 89,
      "start": 6.438,
      "duration": 0.0088,
      "velocity": 96,
      "chip": "ym2612"
    },
    {
      "channel": 2,
      "note": 86,
      "start": 6.4384,
      "duration": 0.0086,
      "velocity": 96,
      "chip": "ym2612"
    },
    {
      "channel": 3,
      "note": 89,
      "start": 6.4426,
      "duration": 0.0067,
      "velocity": 96,
      "chip": "ym2612"
    },
    {
      "channel": 0,
      "note": 64,
      "start": 6.4523,
      "duration": 0.0099,
      "velocity": 84,
      "chip": "ym2612"
    },
    {
      "channel": 1,
      "note": 88,
      "start": 6.4526,
      "duration": 0.0099,
      "velocity": 96,
      "chip": "ym2612"
    },
    {
      "channel": 2,
      "note": 84,
      "start": 6.4529,
      "duration": 0.0099,
      "velocity": 96,
      "chip": "ym2612"
    },
    {
      "channel": 4,
      "note": 59,
      "start": 6.4531,
      "duration": 0.0278,
      "velocity": 115,
      "chip": "ym2612"
    },
    {
      "channel": 3,
      "note": 88,
      "start": 6.4578,
      "duration": 0.0086,
      "velocity": 96,
      "chip": "ym2612"
    },
    {
      "channel": 0,
      "note": 62,
      "start": 6.4624,
      "duration": 0.0081,
      "velocity": 84,
      "chip": "ym2612"
    },
    {
      "channel": 1,
      "note": 86,
      "start": 6.4627,
      "duration": 0.0081,
      "velocity": 96,
      "chip": "ym2612"
    },
    {
      "channel": 2,
      "note": 83,
      "start": 6.4631,
      "duration": 0.008,
      "velocity": 96,
      "chip": "ym2612"
    },
    {
      "channel": 3,
      "note": 86,
      "start": 6.4666,
      "duration": 0.0092,
      "velocity": 96,
      "chip": "ym2612"
    },
    {
      "channel": 0,
      "note": 60,
      "start": 6.4707,
      "duration": 0.0092,
      "velocity": 84,
      "chip": "ym2612"
    },
    {
      "channel": 1,
      "note": 84,
      "start": 6.471,
      "duration": 0.0093,
      "velocity": 96,
      "chip": "ym2612"
    },
    {
      "channel": 2,
      "note": 81,
      "start": 6.4712,
      "duration": 0.0094,
      "velocity": 96,
      "chip": "ym2612"
    },
    {
      "channel": 3,
      "note": 84,
      "start": 6.4759,
      "duration": 0.0085,
      "velocity": 96,
      "chip": "ym2612"
    },
    {
      "channel": 0,
      "note": 59,
      "start": 6.4802,
      "duration": 0.0083,
      "velocity": 84,
      "chip": "ym2612"
    },
    {
      "channel": 1,
      "note": 83,
      "start": 6.4804,
      "duration": 0.0083,
      "velocity": 96,
      "chip": "ym2612"
    },
    {
      "channel": 2,
      "note": 79,
      "start": 6.4807,
      "duration": 0.0083,
      "velocity": 96,
      "chip": "ym2612"
    },
    {
      "channel": 4,
      "note": 59,
      "start": 6.4811,
      "duration": 0.0167,
      "velocity": 115,
      "chip": "ym2612"
    },
    {
      "channel": 3,
      "note": 83,
      "start": 6.4845,
      "duration": 0.0089,
      "velocity": 96,
      "chip": "ym2612"
    },
    {
      "channel": 0,
      "note": 58,
      "start": 6.4887,
      "duration": 0.0088,
      "velocity": 84,
      "chip": "ym2612"
    },
    {
      "channel": 1,
      "note": 82,
      "start": 6.4889,
      "duration": 0.0086,
      "velocity": 96,
      "chip": "ym2612"
    },
    {
      "channel": 2,
      "note": 80,
      "start": 6.4892,
      "duration": 0.0084,
      "velocity": 96,
      "chip": "ym2612"
    },
    {
      "channel": 3,
      "note": 82,
      "start": 6.4936,
      "duration": 0.006,
      "velocity": 96,
      "chip": "ym2612"
    },
    {
      "channel": 0,
      "note": 57,
      "start": 6.5016,
      "duration": 0.0303,
      "velocity": 84,
      "chip": "ym2612"
    },
    {
      "channel": 1,
      "note": 81,
      "start": 6.5019,
      "duration": 0.178,
      "velocity": 96,
      "chip": "ym2612"
    },
    {
      "channel": 2,
      "note": 77,
      "start": 6.5022,
      "duration": 0.178,
      "velocity": 96,
      "chip": "ym2612"
    },
    {
      "channel": 3,
      "note": 81,
      "start": 6.5061,
      "duration": 0.2241,
      "velocity": 96,
      "chip": "ym2612"
    },
    {
      "channel": 4,
      "note": 59,
      "start": 6.5327,
      "duration": 0.148,
      "velocity": 115,
      "chip": "ym2612"
    },
    {
      "channel": 0,
      "note": 62,
      "start": 6.6489,
      "duration": 0.297,
      "velocity": 84,
      "chip": "ym2612"
    },
    {
      "channel": 1,
      "note": 86,
      "start": 6.6801,
      "duration": 0.2659,
      "velocity": 96,
      "chip": "ym2612"
    },
    {
      "channel": 2,
      "note": 81,
      "start": 6.6805,
      "duration": 0.2658,
      "velocity": 96,
      "chip": "ym2612"
    },
    {
      "channel": 4,
      "note": 59,
      "start": 6.6809,
      "duration": 0.2495,
      "velocity": 115,
      "chip": "ym2612"
    },
    {
      "channel": 3,
      "note": 86,
      "start": 6.7305,
      "duration": 0.2191,
      "velocity": 96,
      "chip": "ym2612"
    },
    {
      "channel": 1,
      "note": 84,
      "start": 6.9462,
      "duration": 0.0074,
      "velocity": 96,
      "chip": "ym2612"
    },
    {
      "channel": 2,
      "note": 79,
      "start": 6.9464,
      "duration": 0.0075,
      "velocity": 96,
      "chip": "ym2612"
    },
    {
      "channel": 4,
      "note": 59,
      "start": 6.9468,
      "duration": 0.1553,
      "velocity": 115,
      "chip": "ym2612"
    },
    {
      "channel": 3,
      "note": 84,
      "start": 6.9497,
      "duration": 0.0089,
      "velocity": 96,
      "chip": "ym2612"
    },
    {
      "channel": 0,
      "note": 55,
      "start": 6.9535,
      "duration": 0.031,
      "velocity": 84,
      "chip": "ym2612"
    },
    {
      "channel": 1,
      "note": 84,
      "start": 6.9538,
      "duration": 0.0308,
      "velocity": 96,
      "chip": "ym2612"
    },
    {
      "channel": 2,
      "note": 79,
      "start": 6.9541,
      "duration": 0.0307,
      "velocity": 96,
      "chip": "ym2612"
    },
    {
      "channel": 3,
      "note": 84,
      "start": 6.9588,
      "duration": 0.0758,
      "velocity": 96,
      "chip": "ym2612"
    },
    {
      "channel": 0,
      "note": 60,
      "start": 7.1014,
      "duration": 0.2977,
      "velocity": 84,
      "chip": "ym2612"
    },
    {
      "channel": 1,
      "note": 88,
      "start": 7.1017,
      "duration": 0.2974,
      "velocity": 96,
      "chip": "ym2612"
    },
    {
      "channel": 2,
      "note": 84,
      "start": 7.1021,
      "duration": 0.2973,
      "velocity": 96,
      "chip": "ym2612"
    },
    {
      "channel": 4,
      "note": 59,
      "start": 7.1024,
      "duration": 0.2806,
      "velocity": 115,
      "chip": "ym2612"
    },
    {
      "channel": 3,
      "note": 88,
      "start": 7.1064,
      "duration": 0.295,
      "velocity": 96,
      "chip": "ym2612"
    },
    {
      "channel": 4,
      "note": 59,
      "start": 7.3831,
      "duration": 0.0165,
      "velocity": 115,
      "chip": "ym2612"
    },
    {
      "channel": 0,
      "note": 53,
      "start": 7.404,
      "duration": 0.0305,
      "velocity": 84,
      "chip": "ym2612"
    },
    {
      "channel": 1,
      "note": 86,
      "start": 7.4043,
      "duration": 0.0305,
      "velocity": 96,
      "chip": "ym2612"
    },
    {
      "channel": 2,
      "note": 81,
      "start": 7.4046,
      "duration": 0.0304,
      "velocity": 96,
      "chip": "ym2612"
    },
    {
      "channel": 3,
      "note": 86,
      "start": 7.4085,
      "duration": 0.0762,
      "velocity": 96,
      "chip": "ym2612"
    },
    {
      "channel": 4,
      "note": 59,
      "start": 7.4355,
      "duration": 0.148,
      "velocity": 115,
      "chip": "ym2612"
    },
    {
      "channel": 0,
      "note": 59,
      "start": 7.5515,
      "duration": 0.1478,
      "velocity": 84,
      "chip": "ym2612"
    },
    {
      "channel": 1,
      "note": 86,
      "start": 7.5519,
      "duration": 0.031,
      "velocity": 96,
      "chip": "ym2612"
    },
    {
      "channel": 2,
      "note": 81,
      "start": 7.5521,
      "duration": 0.031,
      "velocity": 96,
      "chip": "ym2612"
    },
    {
      "channel": 3,
      "note": 86,
      "start": 7.5565,
      "duration": 0.0766,
      "velocity": 96,
      "chip": "ym2612"
    },
    {
      "channel": 1,
      "note": 84,
      "start": 7.583,
      "duration": 0.1166,
      "velocity": 96,
      "chip": "ym2612"
    },
    {
      "channel": 2,
      "note": 79,
      "start": 7.5833,
      "duration": 0.1165,
      "velocity": 96,
      "chip": "ym2612"
    },
    {
      "channel": 4,
      "note": 59,
      "start": 7.5837,
      "duration": 0.2499,
      "velocity": 115,
      "chip": "ym2612"
    },
    {
      "channel": 3,
      "note": 84,
      "start": 7.6333,
      "duration": 0.1329,
      "velocity": 96,
      "chip": "ym2612"
    },
    {
      "channel": 0,
      "note": 57,
      "start": 7.6995,
      "duration": 0.1332,
      "velocity": 84,
      "chip": "ym2612"
    },
    {
      "channel": 0,
      "note": 55,
      "start": 7.8329,
      "duration": 0.0072,
      "velocity": 84,
      "chip": "ym2612"
    },
    {
      "channel": 1,
      "note": 86,
      "start": 7.8332,
      "duration": 0.0073,
      "velocity": 96,
      "chip": "ym2612"
    },
    {
      "channel": 2,
      "note": 81,
      "start": 7.8336,
      "duration": 0.007,
      "velocity": 96,
      "chip": "ym2612"
    },
    {
      "channel": 3,
      "note": 86,
      "start": 7.8366,
      "duration": 0.0073,
      "velocity": 96,
      "chip": "ym2612"
    },
    {
      "channel": 0,
      "note": 53,
      "start": 7.8405,
      "duration": 0.0059,
      "velocity": 84,
      "chip": "ym2612"
    },
    {
      "channel": 0,
      "note": 52,
      "start": 7.8466,
      "duration": 0.0077,
      "velocity": 84,
      "chip": "ym2612"
    },
    {
      "channel": 1,
      "note": 88,
      "start": 7.8468,
      "duration": 0.0075,
      "velocity": 96,
      "chip": "ym2612"
    },
    {
      "channel": 2,
      "note": 84,
      "start": 7.847,
      "duration": 0.0074,
      "velocity": 96,
      "chip": "ym2612"
    },
    {
      "channel": 4,
      "note": 59,
      "start": 7.8474,
      "duration": 0.0208,
      "velocity": 115,
      "chip": "ym2612"
    },
    {
      "channel": 3,
      "note": 88,
      "start": 7.8503,
      "duration": 0.0071,
      "velocity": 96,
      "chip": "ym2612"
    },
    {
      "channel": 0,
      "note": 53,
      "start": 7.86,
      "duration": 0.0077,
      "velocity": 84,
      "chip": "ym2612"
    },
    {
      "channel": 1,
      "note": 89,
      "start": 7.8604,
      "duration": 0.0076,
      "velocity": 96,
      "chip": "ym2612"
    },
    {
      "channel": 2,
      "note": 85,
      "start": 7.8607,
      "duration": 0.0073,
      "velocity": 96,
      "chip": "ym2612"
    },
    {
      "channel": 3,
      "note": 89,
      "start": 7.8639,
      "duration": 0.0072,
      "velocity": 96,
      "chip": "ym2612"
    },
    {
      "channel": 4,
      "note": 59,
      "start": 7.8684,
      "duration": 0.0191,
      "velocity": 115,
      "chip": "ym2612"
    },
    {
      "channel": 0,
      "note": 54,
      "start": 7.8737,
      "duration": 0.0075,
      "velocity": 84,
      "chip": "ym2612"
    },
    {
      "channel": 1,
      "note": 90,
      "start": 7.874,
      "duration": 0.0074,
      "velocity": 96,
      "chip": "ym2612"
    },
    {
      "channel": 2,
      "note": 86,
      "start": 7.8742,
      "duration": 0.0073,
      "velocity": 96,
      "chip": "ym2612"
    },
    {
      "channel": 3,
      "note": 90,
      "start": 7.8774,
      "duration": 0.0068,
      "velocity": 96,
      "chip": "ym2612"
    },
    {
      "channel": 0,
      "note": 55,
      "start": 7.8868,
      "duration": 0.008,
      "velocity": 84,
      "chip": "ym2612"
    },
    {
      "channel": 1,
      "note": 91,
      "start": 7.8872,
      "duration": 0.0156,
      "velocity": 96,
      "chip": "ym2612"
    },
    {
      "channel": 2,
      "note": 88,
      "start": 7.8873,
      "duration": 0.0155,
      "velocity": 96,
      "chip": "ym2612"
    },
    {
      "channel": 4,
      "note": 59,
      "start": 7.8877,
      "duration": 0.0153,
      "velocity": 115,
      "chip": "ym2612"
    },
    {
      "channel": 3,
      "note": 91,
      "start": 7.8909,
      "duration": 0.0139,
      "velocity": 96,
      "chip": "ym2612"
    },
    {
      "channel": 0,
      "note": 57,
      "start": 7.9068,
      "duration": 0.0299,
      "velocity": 84,
      "chip": "ym2612"
    },
    {
      "channel": 1,
      "note": 81,
      "start": 7.9071,
      "duration": 0.0298,
      "velocity": 96,
      "chip": "ym2612"
    },
    {
      "channel": 2,
      "note": 77,
      "start": 7.9073,
      "duration": 0.0297,
      "velocity": 96,
      "chip": "ym2612"
    },
    {
      "channel": 3,
      "note": 81,
      "start": 7.9106,
      "duration": 0.0762,
      "velocity": 96,
      "chip": "ym2612"
    },
    {
      "channel": 4,
      "note": 59,
      "start": 7.9376,
      "duration": 0.148,
      "velocity": 115,
      "chip": "ym2612"
    },
    {
      "channel": 0,
      "note": 62,
      "start": 8.0537,
      "duration": 0.2958,
      "velocity": 84,
      "chip": "ym2612"
    },
    {
      "channel": 1,
      "note": 81,
      "start": 8.054,
      "duration": 0.031,
      "velocity": 96,
      "chip": "ym2612"
    },
    {
      "channel": 2,
      "note": 77,
      "start": 8.0542,
      "duration": 0.031,
      "velocity": 96,
      "chip": "ym2612"
    },
    {
      "channel": 3,
      "note": 81,
      "start": 8.0586,
      "duration": 0.0766,
      "velocity": 96,
      "chip": "ym2612"
    },
    {
      "channel": 1,
      "note": 83,
      "start": 8.0851,
      "duration": 0.1165,
      "velocity": 96,
      "chip": "ym2612"
    },
    {
      "channel": 2,
      "note": 79,
      "start": 8.0854,
      "duration": 0.1164,
      "velocity": 96,
      "chip": "ym2612"
    },
    {
      "channel": 4,
      "note": 59,
      "start": 8.0858,
      "duration": 0.2494,
      "velocity": 115,
      "chip": "ym2612"
    },
    {
      "channel": 3,
      "note": 83,
      "start": 8.1354,
      "duration": 0.1332,
      "velocity": 96,
      "chip": "ym2612"
    },
    {
      "channel": 1,
      "note": 83,
      "start": 8.2018,
      "duration": 0.1332,
      "velocity": 96,
      "chip": "ym2612"
    },
    {
      "channel": 2,
      "note": 79,
      "start": 8.2021,
      "duration": 0.1329,
      "velocity": 96,
      "chip": "ym2612"
    },
    {
      "channel": 3,
      "note": 83,
      "start": 8.2688,
      "duration": 0.0686,
      "velocity": 96,
      "chip": "ym2612"
    },
    {
      "channel": 1,
      "note": 83,
      "start": 8.3413,
      "duration": 0.0083,
      "velocity": 96,
      "chip": "ym2612"
    },
    {
      "channel": 2,
      "note": 79,
      "start": 8.3417,
      "duration": 0.0081,
      "velocity": 96,
      "chip": "ym2612"
    },
    {
      "channel": 3,
      "note": 83,
      "start": 8.3459,
      "duration": 0.0073,
      "velocity": 96,
      "chip": "ym2612"
    },
    {
      "channel": 1,
      "note": 84,
      "start": 8.3498,
      "duration": 0.0076,
      "velocity": 96,
      "chip": "ym2612"
    },
    {
      "channel": 2,
      "note": 81,
      "start": 8.35,
      "duration": 0.0077,
      "velocity": 96,
      "chip": "ym2612"
    },
    {
      "channel": 4,
      "note": 59,
      "start": 8.3504,
      "duration": 0.1558,
      "velocity": 115,
      "chip": "ym2612"
    },
    {
      "channel": 3,
      "note": 84,
      "start": 8.3534,
      "duration": 0.0092,
      "velocity": 96,
      "chip": "ym2612"
    },
    {
      "channel": 0,
      "note": 55,
      "start": 8.3573,
      "duration": 0.0311,
      "velocity": 84,
      "chip": "ym2612"
    },
    {
      "channel": 1,
      "note": 84,
      "start": 8.3576,
      "duration": 0.0309,
      "velocity": 96,
      "chip": "ym2612"
    },
    {
      "channel": 2,
      "note": 81,
      "start": 8.358,
      "duration": 0.0309,
      "velocity": 96,
      "chip": "ym2612"
    },
    {
      "channel": 3,
      "note": 84,
      "start": 8.3629,
      "duration": 0.0759,
      "velocity": 96,
      "chip": "ym2612"
    },
    {
      "channel": 1,
      "note": 83,
      "start": 8.3888,
      "duration": 0.1166,
      "velocity": 96,
      "chip": "ym2612"
    },
    {
      "channel": 2,
      "note": 79,
      "start": 8.3891,
      "duration": 0.1167,
      "velocity": 96,
      "chip": "ym2612"
    },
    {
      "channel": 3,
      "note": 83,
      "start": 8.439,
      "duration": 0.0716,
      "velocity": 96,
      "chip": "ym2612"
    },
    {
      "channel": 0,
      "note": 60,
      "start": 8.5054,
      "duration": 0.2977,
      "velocity": 84,
      "chip": "ym2612"
    },
    {
      "channel": 1,
      "note": 84,
      "start": 8.5057,
      "duration": 0.0308,
      "velocity": 96,
      "chip": "ym2612"
    },
    {
      "channel": 2,
      "note": 81,
      "start": 8.5059,
      "duration": 0.0307,
      "velocity": 96,
      "chip": "ym2612"
    },
    {
      "channel": 4,
      "note": 59,
      "start": 8.5065,
      "duration": 0.2805,
      "velocity": 115,
      "chip": "ym2612"
    },
    {
      "channel": 3,
      "note": 84,
      "start": 8.5107,
      "duration": 0.0759,
      "velocity": 96,
      "chip": "ym2612"
    },
    {
      "channel": 1,
      "note": 88,
      "start": 8.6534,
      "duration": 0.15,
      "velocity": 96,
      "chip": "ym2612"
    },
    {
      "channel": 2,
      "note": 84,
      "start": 8.6537,
      "duration": 0.15,
      "velocity": 96,
      "chip": "ym2612"
    },
    {
      "channel": 3,
      "note": 88,
      "start": 8.7203,
      "duration": 0.0877,
      "velocity": 96,
      "chip": "ym2612"
    },
    {
      "channel": 4,
      "note": 59,
      "start": 8.7871,
      "duration": 0.0169,
      "velocity": 115,
      "chip": "ym2612"
    },
    {
      "channel": 0,
      "note": 53,
      "start": 8.8033,
      "duration": 0.013,
      "velocity": 84,
      "chip": "ym2612"
    },
    {
      "channel": 1,
      "note": 86,
      "start": 8.8036,
      "duration": 0.013,
      "velocity": 96,
      "chip": "ym2612"
    },
    {
      "channel": 2,
      "note": 81,
      "start": 8.8039,
      "duration": 0.0129,
      "velocity": 96,
      "chip": "ym2612"
    },
    {
      "channel": 4,
      "note": 59,
      "start": 8.8043,
      "duration": 0.0129,
      "velocity": 115,
      "chip": "ym2612"
    },
    {
      "channel": 3,
      "note": 86,
      "start": 8.8083,
      "duration": 0.0124,
      "velocity": 96,
      "chip": "ym2612"
    },
    {
      "channel": 0,
      "note": 53,
      "start": 8.8165,
      "duration": 0.0124,
      "velocity": 84,
      "chip": "ym2612"
    },
    {
      "channel": 1,
      "note": 86,
      "start": 8.8168,
      "duration": 0.0124,
      "velocity": 96,
      "chip": "ym2612"
    },
    {
      "channel": 2,
      "note": 81,
      "start": 8.817,
      "duration": 0.0125,
      "velocity": 96,
      "chip": "ym2612"
    },
    {
      "channel": 4,
      "note": 59,
      "start": 8.8175,
      "duration": 0.0124,
      "velocity": 115,
      "chip": "ym2612"
    },
    {
      "channel": 3,
      "note": 86,
      "start": 8.8208,
      "duration": 0.0128,
      "velocity": 96,
      "chip": "ym2612"
    },
    {
      "channel": 0,
      "note": 53,
      "start": 8.8291,
      "duration": 0.0125,
      "velocity": 84,
      "chip": "ym2612"
    },
    {
      "channel": 1,
      "note": 85,
      "start": 8.8294,
      "duration": 0.0125,
      "velocity": 96,
      "chip": "ym2612"
    },
    {
      "channel": 2,
      "note": 80,
      "start": 8.8297,
      "duration": 0.0126,
      "velocity": 96,
      "chip": "ym2612"
    },
    {
      "channel": 4,
      "note": 59,
      "start": 8.8302,
      "duration": 0.0125,
      "velocity": 115,
      "chip": "ym2612"
    },
    {
      "channel": 3,
      "note": 85,
      "start": 8.8337,
      "duration": 0.0124,
      "velocity": 96,
      "chip": "ym2612"
    },
    {
      "channel": 0,
      "note": 53,
      "start": 8.8419,
      "duration": 0.0124,
      "velocity": 84,
      "chip": "ym2612"
    },
    {
      "channel": 1,
      "note": 86,
      "start": 8.8422,
      "duration": 0.0124,
      "velocity": 96,
      "chip": "ym2612"
    },
    {
      "channel": 2,
      "note": 81,
      "start": 8.8425,
      "duration": 0.0123,
      "velocity": 96,
      "chip": "ym2612"
    },
    {
      "channel": 4,
      "note": 59,
      "start": 8.8429,
      "duration": 0.02,
      "velocity": 115,
      "chip": "ym2612"
    },
    {
      "channel": 3,
      "note": 86,
      "start": 8.8463,
      "duration": 0.0108,
      "velocity": 96,
      "chip": "ym2612"
    },
    {
      "channel": 0,
      "note": 54,
      "start": 8.8621,
      "duration": 0.0124,
      "velocity": 84,
      "chip": "ym2612"
    },
    {
      "channel": 1,
      "note": 88,
      "start": 8.8624,
      "duration": 0.0123,
      "velocity": 96,
      "chip": "ym2612"
    },
    {
      "channel": 2,
      "note": 83,
      "start": 8.8627,
      "duration": 0.0123,
      "velocity": 96,
      "chip": "ym2612"
    },
    {
      "channel": 4,
      "note": 59,
      "start": 8.863,
      "duration": 0.0124,
      "velocity": 115,
      "chip": "ym2612"
    },
    {
      "channel": 3,
      "note": 88,
      "start": 8.8664,
      "duration": 0.0123,
      "velocity": 96,
      "chip": "ym2612"
    },
    {
      "channel": 0,
      "note": 55,
      "start": 8.8747,
      "duration": 0.0081,
      "velocity": 84,
      "chip": "ym2612"
    },
    {
      "channel": 1,
      "note": 91,
      "start": 8.875,
      "duration": 0.008,
      "velocity": 96,
      "chip": "ym2612"
    },
    {
      "channel": 2,
      "note": 86,
      "start": 8.8753,
      "duration": 0.0078,
      "velocity": 96,
      "chip": "ym2612"
    },
    {
      "channel": 4,
      "note": 59,
      "start": 8.8756,
      "duration": 0.0076,
      "velocity": 115,
      "chip": "ym2612"
    },
    {
      "channel": 3,
      "note": 91,
      "start": 8.8789,
      "duration": 0.0066,
      "velocity": 96,
      "chip": "ym2612"
    },
    {
      "channel": 0,
      "note": 60,
      "start": 9.1851,
      "duration": 24.0604,
      "velocity": 84,
      "chip": "ym2612"
    },
    {
      "channel": 1,
      "note": 84,
      "start": 9.1861,
      "duration": 24.0594,
      "velocity": 98,
      "chip": "ym2612"
    },
    {
      "channel": 2,
      "note": 79,
      "start": 9.1871,
      "duration": 24.0584,
      "velocity": 98,
      "chip": "ym2612"
    },
    {
      "channel": 3,
      "note": 76,
      "start": 9.1883,
      "duration": 24.0572,
      "velocity": 98,
      "chip": "ym2612"
    },
    {
      "channel": 4,
      "note": 91,
      "start": 9.1893,
      "duration": 24.0562,
      "velocity": 96,
      "chip": "ym2612"
    }
  ]
}