{
  "track_name": "06 - The Wind",
  "duration_sec": 15.05,
  "sample_rate": 44100,
  "note_count": 170,
  "unique_pitches": 23,
  "pitch_range": 49,
  "avg_note_duration": 0.1603,
  "reconstruction_stats": {
    "notes_reconstructed": 170,
    "keyon_events": 170,
    "keyoff_events": 153,
    "orphan_keyons": 1,
    "unique_pitches": 23,
    "pitch_range": 49,
    "avg_duration_sec": 0.1603
  },
  "metadata": {
    "source": "R\\Richard Scarry's Busytown\\06 - The Wind.vgz"
  },
  "notes": [
    {
      "channel": 0,
      "note": 49,
      "start": 0.0,
      "duration": 0.0,
      "velocity": 127,
      "chip": "ym2612"
    },
    {
      "channel": 0,
      "note": 84,
      "start": 0.0,
      "duration": 0.0,
      "velocity": 127,
      "chip": "ym2612"
    },
    {
      "channel": 0,
      "note": 49,
      "start": 0.0,
      "duration": 0.0,
      "velocity": 127,
      "chip": "ym2612"
    },
    {
      "channel": 0,
      "note": 84,
      "start": 0.0,
      "duration": 0.0,
      "velocity": 127,
      "chip": "ym2612"
    },
    {
      "channel": 0,
      "note": 38,
      "start": 0.0,
      "duration": 0.1881,
      "velocity": 94,
      "chip": "ym2612"
    },
    {
      "channel": 1,
      "note": 37,
      "start": 0.0,
      "duration": 0.0,
      "velocity": 92,
      "chip": "ym2612"
    },
    {
      "channel": 1,
      "note": 39,
      "start": 0.0,
      "duration": 0.0,
      "velocity": 92,
      "chip": "ym2612"
    },
    {
      "channel": 2,
      "note": 63,
      "start": 0.0,
      "duration": 0.0,
      "velocity": 98,
      "chip": "ym2612"
    },
    {
      "channel": 2,
      "note": 68,
      "start": 0.0,
      "duration": 0.0,
      "velocity": 98,
      "chip": "ym2612"
    },
    {
      "channel": 2,
      "note": 79,
      "start": 0.0,
      "duration": 0.0,
      "velocity": 98,
      "chip": "ym2612"
    },
    {
      "channel": 3,
      "note": 71,
      "start": 0.0,
      "duration": 0.0,
      "velocity": 109,
      "chip": "ym2612"
    },
    {
      "channel": 3,
      "note": 71,
      "start": 0.0,
      "duration": 0.0,
      "velocity": 109,
      "chip": "ym2612"
    },
    {
      "channel": 3,
      "note": 70,
      "start": 0.0,
      "duration": 0.0,
      "velocity": 109,
      "chip": "ym2612"
    },
    {
      "channel": 3,
      "note": 68,
      "start": 0.0,
      "duration": 0.0,
      "velocity": 109,
      "chip": "ym2612"
    },
    {
      "channel": 4,
      "note": 61,
      "start": 0.0,
      "duration": 0.0,
      "velocity": 109,
      "chip": "ym2612"
    },
    {
      "channel": 5,
      "note": 65,
      "start": 0.0,
      "duration": 0.0,
      "velocity": 109,
      "chip": "ym2612"
    },
    {
      "channel": 3,
      "note": 44,
      "start": 0.0056,
      "duration": 0.0497,
      "velocity": 96,
      "chip": "ym2612"
    },
    {
      "channel": 4,
      "note": 74,
      "start": 0.0103,
      "duration": 0.0757,
      "velocity": 127,
      "chip": "ym2612"
    },
    {
      "channel": 1,
      "note": 80,
      "start": 0.0158,
      "duration": 0.0595,
      "velocity": 85,
      "chip": "ym2612"
    },
    {
      "channel": 0,
      "note": 45,
      "start": 0.4544,
      "duration": 0.317,
      "velocity": 94,
      "chip": "ym2612"
    },
    {
      "channel": 1,
      "note": 86,
      "start": 0.4552,
      "duration": 0.1113,
      "velocity": 85,
      "chip": "ym2612"
    },
    {
      "channel": 2,
      "note": 46,
      "start": 0.4598,
      "duration": 0.0146,
      "velocity": 127,
      "chip": "ym2612"
    },
    {
      "channel": 4,
      "note": 74,
      "start": 0.4608,
      "duration": 0.0957,
      "velocity": 127,
      "chip": "ym2612"
    },
    {
      "channel": 3,
      "note": 44,
      "start": 0.7726,
      "duration": 0.0191,
      "velocity": 96,
      "chip": "ym2612"
    },
    {
      "channel": 4,
      "note": 74,
      "start": 0.7734,
      "duration": 0.0288,
      "velocity": 127,
      "chip": "ym2612"
    },
    {
      "channel": 0,
      "note": 50,
      "start": 0.9246,
      "duration": 0.317,
      "velocity": 94,
      "chip": "ym2612"
    },
    {
      "channel": 1,
      "note": 78,
      "start": 0.9254,
      "duration": 0.3172,
      "velocity": 85,
      "chip": "ym2612"
    },
    {
      "channel": 3,
      "note": 44,
      "start": 0.9264,
      "duration": 0.0597,
      "velocity": 96,
      "chip": "ym2612"
    },
    {
      "channel": 4,
      "note": 74,
      "start": 0.9273,
      "duration": 0.1615,
      "velocity": 127,
      "chip": "ym2612"
    },
    {
      "channel": 1,
      "note": 79,
      "start": 1.2427,
      "duration": 0.1534,
      "velocity": 85,
      "chip": "ym2612"
    },
    {
      "channel": 0,
      "note": 45,
      "start": 1.3953,
      "duration": 0.2764,
      "velocity": 94,
      "chip": "ym2612"
    },
    {
      "channel": 1,
      "note": 80,
      "start": 1.3961,
      "duration": 0.3165,
      "velocity": 85,
      "chip": "ym2612"
    },
    {
      "channel": 2,
      "note": 46,
      "start": 1.397,
      "duration": 0.0188,
      "velocity": 127,
      "chip": "ym2612"
    },
    {
      "channel": 4,
      "note": 74,
      "start": 1.3979,
      "duration": 0.0902,
      "velocity": 127,
      "chip": "ym2612"
    },
    {
      "channel": 1,
      "note": 81,
      "start": 1.7126,
      "duration": 1.7189,
      "velocity": 85,
      "chip": "ym2612"
    },
    {
      "channel": 4,
      "note": 74,
      "start": 1.7137,
      "duration": 0.0298,
      "velocity": 127,
      "chip": "ym2612"
    },
    {
      "channel": 0,
      "note": 38,
      "start": 1.8659,
      "duration": 0.2557,
      "velocity": 94,
      "chip": "ym2612"
    },
    {
      "channel": 3,
      "note": 44,
      "start": 1.867,
      "duration": 0.0502,
      "velocity": 96,
      "chip": "ym2612"
    },
    {
      "channel": 4,
      "note": 74,
      "start": 1.8679,
      "duration": 0.1825,
      "velocity": 127,
      "chip": "ym2612"
    },
    {
      "channel": 0,
      "note": 45,
      "start": 2.3366,
      "duration": 0.3273,
      "velocity": 94,
      "chip": "ym2612"
    },
    {
      "channel": 2,
      "note": 46,
      "start": 2.338,
      "duration": 0.0093,
      "velocity": 127,
      "chip": "ym2612"
    },
    {
      "channel": 4,
      "note": 74,
      "start": 2.339,
      "duration": 0.0594,
      "velocity": 127,
      "chip": "ym2612"
    },
    {
      "channel": 3,
      "note": 44,
      "start": 2.6546,
      "duration": 0.0301,
      "velocity": 96,
      "chip": "ym2612"
    },
    {
      "channel": 4,
      "note": 74,
      "start": 2.6555,
      "duration": 0.0398,
      "velocity": 127,
      "chip": "ym2612"
    },
    {
      "channel": 0,
      "note": 50,
      "start": 2.8073,
      "duration": 0.3069,
      "velocity": 94,
      "chip": "ym2612"
    },
    {
      "channel": 3,
      "note": 44,
      "start": 2.8084,
      "duration": 0.0502,
      "velocity": 96,
      "chip": "ym2612"
    },
    {
      "channel": 4,
      "note": 74,
      "start": 2.8093,
      "duration": 0.1519,
      "velocity": 127,
      "chip": "ym2612"
    },
    {
      "channel": 0,
      "note": 45,
      "start": 3.278,
      "duration": 0.3171,
      "velocity": 94,
      "chip": "ym2612"
    },
    {
      "channel": 2,
      "note": 46,
      "start": 3.279,
      "duration": 0.0196,
      "velocity": 127,
      "chip": "ym2612"
    },
    {
      "channel": 4,
      "note": 74,
      "start": 3.28,
      "duration": 0.07,
      "velocity": 127,
      "chip": "ym2612"
    },
    {
      "channel": 4,
      "note": 74,
      "start": 3.5965,
      "duration": 0.04,
      "velocity": 127,
      "chip": "ym2612"
    },
    {
      "channel": 0,
      "note": 38,
      "start": 3.7487,
      "duration": 0.2562,
      "velocity": 94,
      "chip": "ym2612"
    },
    {
      "channel": 1,
      "note": 80,
      "start": 3.7496,
      "duration": 0.0912,
      "velocity": 85,
      "chip": "ym2612"
    },
    {
      "channel": 3,
      "note": 44,
      "start": 3.7505,
      "duration": 0.0704,
      "velocity": 96,
      "chip": "ym2612"
    },
    {
      "channel": 4,
      "note": 74,
      "start": 3.7515,
      "duration": 0.1,
      "velocity": 127,
      "chip": "ym2612"
    },
    {
      "channel": 0,
      "note": 45,
      "start": 4.2194,
      "duration": 0.3478,
      "velocity": 94,
      "chip": "ym2612"
    },
    {
      "channel": 1,
      "note": 86,
      "start": 4.2203,
      "duration": 0.1117,
      "velocity": 85,
      "chip": "ym2612"
    },
    {
      "channel": 2,
      "note": 46,
      "start": 4.2215,
      "duration": 0.0185,
      "velocity": 127,
      "chip": "ym2612"
    },
    {
      "channel": 4,
      "note": 74,
      "start": 4.2226,
      "duration": 0.0995,
      "velocity": 127,
      "chip": "ym2612"
    },
    {
      "channel": 3,
      "note": 44,
      "start": 4.5369,
      "duration": 0.0314,
      "velocity": 96,
      "chip": "ym2612"
    },
    {
      "channel": 4,
      "note": 74,
      "start": 4.5382,
      "duration": 0.031,
      "velocity": 127,
      "chip": "ym2612"
    },
    {
      "channel": 0,
      "note": 50,
      "start": 4.6901,
      "duration": 0.3069,
      "velocity": 94,
      "chip": "ym2612"
    },
    {
      "channel": 1,
      "note": 78,
      "start": 4.691,
      "duration": 0.3167,
      "velocity": 85,
      "chip": "ym2612"
    },
    {
      "channel": 3,
      "note": 44,
      "start": 4.692,
      "duration": 0.0597,
      "velocity": 96,
      "chip": "ym2612"
    },
    {
      "channel": 4,
      "note": 74,
      "start": 4.6928,
      "duration": 0.1618,
      "velocity": 127,
      "chip": "ym2612"
    },
    {
      "channel": 1,
      "note": 79,
      "start": 5.0076,
      "duration": 0.1541,
      "velocity": 85,
      "chip": "ym2612"
    },
    {
      "channel": 0,
      "note": 45,
      "start": 5.1608,
      "duration": 0.3171,
      "velocity": 94,
      "chip": "ym2612"
    },
    {
      "channel": 1,
      "note": 80,
      "start": 5.1617,
      "duration": 0.3172,
      "velocity": 85,
      "chip": "ym2612"
    },
    {
      "channel": 2,
      "note": 46,
      "start": 5.1625,
      "duration": 0.0189,
      "velocity": 127,
      "chip": "ym2612"
    },
    {
      "channel": 4,
      "note": 74,
      "start": 5.1635,
      "duration": 0.0896,
      "velocity": 127,
      "chip": "ym2612"
    },
    {
      "channel": 1,
      "note": 81,
      "start": 5.4789,
      "duration": 1.7181,
      "velocity": 85,
      "chip": "ym2612"
    },
    {
      "channel": 4,
      "note": 74,
      "start": 5.48,
      "duration": 0.029,
      "velocity": 127,
      "chip": "ym2612"
    },
    {
      "channel": 0,
      "note": 38,
      "start": 5.6315,
      "duration": 0.2967,
      "velocity": 94,
      "chip": "ym2612"
    },
    {
      "channel": 3,
      "note": 44,
      "start": 5.6325,
      "duration": 0.0503,
      "velocity": 96,
      "chip": "ym2612"
    },
    {
      "channel": 4,
      "note": 74,
      "start": 5.6334,
      "duration": 0.1826,
      "velocity": 127,
      "chip": "ym2612"
    },
    {
      "channel": 0,
      "note": 45,
      "start": 6.1022,
      "duration": 0.3375,
      "velocity": 94,
      "chip": "ym2612"
    },
    {
      "channel": 2,
      "note": 46,
      "start": 6.1032,
      "duration": 0.0097,
      "velocity": 127,
      "chip": "ym2612"
    },
    {
      "channel": 4,
      "note": 74,
      "start": 6.1046,
      "duration": 0.0593,
      "velocity": 127,
      "chip": "ym2612"
    },
    {
      "channel": 3,
      "note": 44,
      "start": 6.4197,
      "duration": 0.0308,
      "velocity": 96,
      "chip": "ym2612"
    },
    {
      "channel": 4,
      "note": 74,
      "start": 6.421,
      "duration": 0.0398,
      "velocity": 127,
      "chip": "ym2612"
    },
    {
      "channel": 0,
      "note": 50,
      "start": 6.5729,
      "duration": 0.3068,
      "velocity": 94,
      "chip": "ym2612"
    },
    {
      "channel": 3,
      "note": 44,
      "start": 6.574,
      "duration": 0.0502,
      "velocity": 96,
      "chip": "ym2612"
    },
    {
      "channel": 4,
      "note": 74,
      "start": 6.5749,
      "duration": 0.1518,
      "velocity": 127,
      "chip": "ym2612"
    },
    {
      "channel": 0,
      "note": 45,
      "start": 7.0436,
      "duration": 0.3068,
      "velocity": 94,
      "chip": "ym2612"
    },
    {
      "channel": 2,
      "note": 46,
      "start": 7.0446,
      "duration": 0.0196,
      "velocity": 127,
      "chip": "ym2612"
    },
    {
      "channel": 4,
      "note": 74,
      "start": 7.0455,
      "duration": 0.07,
      "velocity": 127,
      "chip": "ym2612"
    },
    {
      "channel": 4,
      "note": 74,
      "start": 7.3614,
      "duration": 0.0407,
      "velocity": 127,
      "chip": "ym2612"
    },
    {
      "channel": 0,
      "note": 38,
      "start": 7.5143,
      "duration": 0.2966,
      "velocity": 94,
      "chip": "ym2612"
    },
    {
      "channel": 1,
      "note": 84,
      "start": 7.5152,
      "duration": 0.0912,
      "velocity": 85,
      "chip": "ym2612"
    },
    {
      "channel": 3,
      "note": 44,
      "start": 7.5161,
      "duration": 0.07,
      "velocity": 96,
      "chip": "ym2612"
    },
    {
      "channel": 4,
      "note": 74,
      "start": 7.517,
      "duration": 0.1001,
      "velocity": 127,
      "chip": "ym2612"
    },
    {
      "channel": 1,
      "note": 83,
      "start": 7.8316,
      "duration": 0.0715,
      "velocity": 85,
      "chip": "ym2612"
    },
    {
      "channel": 0,
      "note": 45,
      "start": 7.985,
      "duration": 0.2352,
      "velocity": 94,
      "chip": "ym2612"
    },
    {
      "channel": 1,
      "note": 84,
      "start": 7.9859,
      "duration": 0.1117,
      "velocity": 85,
      "chip": "ym2612"
    },
    {
      "channel": 2,
      "note": 46,
      "start": 7.9867,
      "duration": 0.0188,
      "velocity": 127,
      "chip": "ym2612"
    },
    {
      "channel": 4,
      "note": 74,
      "start": 7.9881,
      "duration": 0.0999,
      "velocity": 127,
      "chip": "ym2612"
    },
    {
      "channel": 1,
      "note": 83,
      "start": 8.3023,
      "duration": 0.0612,
      "velocity": 85,
      "chip": "ym2612"
    },
    {
      "channel": 3,
      "note": 44,
      "start": 8.3033,
      "duration": 0.0298,
      "velocity": 96,
      "chip": "ym2612"
    },
    {
      "channel": 4,
      "note": 74,
      "start": 8.3046,
      "duration": 0.0294,
      "velocity": 127,
      "chip": "ym2612"
    },
    {
      "channel": 0,
      "note": 50,
      "start": 8.4556,
      "duration": 0.2966,
      "velocity": 94,
      "chip": "ym2612"
    },
    {
      "channel": 1,
      "note": 84,
      "start": 8.4565,
      "duration": 0.3164,
      "velocity": 85,
      "chip": "ym2612"
    },
    {
      "channel": 3,
      "note": 44,
      "start": 8.4575,
      "duration": 0.0598,
      "velocity": 96,
      "chip": "ym2612"
    },
    {
      "channel": 4,
      "note": 74,
      "start": 8.4584,
      "duration": 0.1613,
      "velocity": 127,
      "chip": "ym2612"
    },
    {
      "channel": 1,
      "note": 83,
      "start": 8.7729,
      "duration": 0.1543,
      "velocity": 85,
      "chip": "ym2612"
    },
    {
      "channel": 0,
      "note": 45,
      "start": 8.9264,
      "duration": 0.2045,
      "velocity": 94,
      "chip": "ym2612"
    },
    {
      "channel": 1,
      "note": 81,
      "start": 8.9272,
      "duration": 0.0912,
      "velocity": 85,
      "chip": "ym2612"
    },
    {
      "channel": 2,
      "note": 46,
      "start": 8.9281,
      "duration": 0.0188,
      "velocity": 127,
      "chip": "ym2612"
    },
    {
      "channel": 4,
      "note": 74,
      "start": 8.929,
      "duration": 0.0905,
      "velocity": 127,
      "chip": "ym2612"
    },
    {
      "channel": 4,
      "note": 74,
      "start": 9.244,
      "duration": 0.0306,
      "velocity": 127,
      "chip": "ym2612"
    },
    {
      "channel": 0,
      "note": 38,
      "start": 9.3971,
      "duration": 0.3683,
      "velocity": 94,
      "chip": "ym2612"
    },
    {
      "channel": 1,
      "note": 82,
      "start": 9.3979,
      "duration": 0.0708,
      "velocity": 85,
      "chip": "ym2612"
    },
    {
      "channel": 3,
      "note": 44,
      "start": 9.3989,
      "duration": 0.0496,
      "velocity": 96,
      "chip": "ym2612"
    },
    {
      "channel": 4,
      "note": 74,
      "start": 9.3997,
      "duration": 0.1819,
      "velocity": 127,
      "chip": "ym2612"
    },
    {
      "channel": 1,
      "note": 81,
      "start": 9.7144,
      "duration": 0.0615,
      "velocity": 85,
      "chip": "ym2612"
    },
    {
      "channel": 0,
      "note": 45,
      "start": 9.8677,
      "duration": 0.2046,
      "velocity": 94,
      "chip": "ym2612"
    },
    {
      "channel": 1,
      "note": 82,
      "start": 9.8686,
      "duration": 0.0707,
      "velocity": 85,
      "chip": "ym2612"
    },
    {
      "channel": 2,
      "note": 46,
      "start": 9.8694,
      "duration": 0.0092,
      "velocity": 127,
      "chip": "ym2612"
    },
    {
      "channel": 4,
      "note": 74,
      "start": 9.8705,
      "duration": 0.0589,
      "velocity": 127,
      "chip": "ym2612"
    },
    {
      "channel": 1,
      "note": 81,
      "start": 10.1851,
      "duration": 0.0714,
      "velocity": 85,
      "chip": "ym2612"
    },
    {
      "channel": 3,
      "note": 44,
      "start": 10.1861,
      "duration": 0.0298,
      "velocity": 96,
      "chip": "ym2612"
    },
    {
      "channel": 4,
      "note": 74,
      "start": 10.1869,
      "duration": 0.0394,
      "velocity": 127,
      "chip": "ym2612"
    },
    {
      "channel": 0,
      "note": 50,
      "start": 10.3385,
      "duration": 0.2557,
      "velocity": 94,
      "chip": "ym2612"
    },
    {
      "channel": 1,
      "note": 82,
      "start": 10.3393,
      "duration": 0.3164,
      "velocity": 85,
      "chip": "ym2612"
    },
    {
      "channel": 3,
      "note": 44,
      "start": 10.3403,
      "duration": 0.0495,
      "velocity": 96,
      "chip": "ym2612"
    },
    {
      "channel": 4,
      "note": 74,
      "start": 10.3412,
      "duration": 0.151,
      "velocity": 127,
      "chip": "ym2612"
    },
    {
      "channel": 1,
      "note": 81,
      "start": 10.6558,
      "duration": 0.1543,
      "velocity": 85,
      "chip": "ym2612"
    },
    {
      "channel": 0,
      "note": 45,
      "start": 10.8091,
      "duration": 0.2966,
      "velocity": 94,
      "chip": "ym2612"
    },
    {
      "channel": 1,
      "note": 79,
      "start": 10.81,
      "duration": 0.2038,
      "velocity": 85,
      "chip": "ym2612"
    },
    {
      "channel": 2,
      "note": 46,
      "start": 10.8109,
      "duration": 0.0188,
      "velocity": 127,
      "chip": "ym2612"
    },
    {
      "channel": 4,
      "note": 74,
      "start": 10.8118,
      "duration": 0.0693,
      "velocity": 127,
      "chip": "ym2612"
    },
    {
      "channel": 4,
      "note": 74,
      "start": 11.1268,
      "duration": 0.0408,
      "velocity": 127,
      "chip": "ym2612"
    },
    {
      "channel": 0,
      "note": 38,
      "start": 11.2799,
      "duration": 0.2966,
      "velocity": 94,
      "chip": "ym2612"
    },
    {
      "channel": 1,
      "note": 81,
      "start": 11.2807,
      "duration": 0.0707,
      "velocity": 85,
      "chip": "ym2612"
    },
    {
      "channel": 3,
      "note": 44,
      "start": 11.2817,
      "duration": 0.0707,
      "velocity": 96,
      "chip": "ym2612"
    },
    {
      "channel": 4,
      "note": 74,
      "start": 11.2825,
      "duration": 0.1,
      "velocity": 127,
      "chip": "ym2612"
    },
    {
      "channel": 1,
      "note": 80,
      "start": 11.5972,
      "duration": 0.0919,
      "velocity": 85,
      "chip": "ym2612"
    },
    {
      "channel": 0,
      "note": 45,
      "start": 11.7505,
      "duration": 0.3068,
      "velocity": 94,
      "chip": "ym2612"
    },
    {
      "channel": 1,
      "note": 81,
      "start": 11.7514,
      "duration": 0.1014,
      "velocity": 85,
      "chip": "ym2612"
    },
    {
      "channel": 2,
      "note": 46,
      "start": 11.7523,
      "duration": 0.0192,
      "velocity": 127,
      "chip": "ym2612"
    },
    {
      "channel": 4,
      "note": 74,
      "start": 11.7532,
      "duration": 0.1011,
      "velocity": 127,
      "chip": "ym2612"
    },
    {
      "channel": 1,
      "note": 80,
      "start": 12.068,
      "duration": 0.0611,
      "velocity": 85,
      "chip": "ym2612"
    },
    {
      "channel": 3,
      "note": 44,
      "start": 12.069,
      "duration": 0.0296,
      "velocity": 96,
      "chip": "ym2612"
    },
    {
      "channel": 4,
      "note": 74,
      "start": 12.0698,
      "duration": 0.0297,
      "velocity": 127,
      "chip": "ym2612"
    },
    {
      "channel": 0,
      "note": 50,
      "start": 12.2217,
      "duration": 0.2655,
      "velocity": 94,
      "chip": "ym2612"
    },
    {
      "channel": 1,
      "note": 81,
      "start": 12.2225,
      "duration": 0.316,
      "velocity": 85,
      "chip": "ym2612"
    },
    {
      "channel": 3,
      "note": 44,
      "start": 12.2235,
      "duration": 0.0593,
      "velocity": 96,
      "chip": "ym2612"
    },
    {
      "channel": 4,
      "note": 74,
      "start": 12.2243,
      "duration": 0.161,
      "velocity": 127,
      "chip": "ym2612"
    },
    {
      "channel": 1,
      "note": 80,
      "start": 12.5385,
      "duration": 0.1542,
      "velocity": 85,
      "chip": "ym2612"
    },
    {
      "channel": 0,
      "note": 45,
      "start": 12.6919,
      "duration": 0.2659,
      "velocity": 94,
      "chip": "ym2612"
    },
    {
      "channel": 1,
      "note": 79,
      "start": 12.6927,
      "duration": 0.3165,
      "velocity": 85,
      "chip": "ym2612"
    },
    {
      "channel": 2,
      "note": 46,
      "start": 12.6936,
      "duration": 0.0188,
      "velocity": 127,
      "chip": "ym2612"
    },
    {
      "channel": 4,
      "note": 74,
      "start": 12.6946,
      "duration": 0.0898,
      "velocity": 127,
      "chip": "ym2612"
    },
    {
      "channel": 1,
      "note": 78,
      "start": 13.0092,
      "duration": 1.7292,
      "velocity": 85,
      "chip": "ym2612"
    },
    {
      "channel": 4,
      "note": 74,
      "start": 13.0103,
      "duration": 0.0298,
      "velocity": 127,
      "chip": "ym2612"
    },
    {
      "channel": 0,
      "note": 38,
      "start": 13.1626,
      "duration": 0.3068,
      "velocity": 94,
      "chip": "ym2612"
    },
    {
      "channel": 3,
      "note": 44,
      "start": 13.1637,
      "duration": 0.0502,
      "velocity": 96,
      "chip": "ym2612"
    },
    {
      "channel": 4,
      "note": 74,
      "start": 13.1645,
      "duration": 0.1826,
      "velocity": 127,
      "chip": "ym2612"
    },
    {
      "channel": 0,
      "note": 45,
      "start": 13.6333,
      "duration": 0.2966,
      "velocity": 94,
      "chip": "ym2612"
    },
    {
      "channel": 2,
      "note": 46,
      "start": 13.6343,
      "duration": 0.0097,
      "velocity": 127,
      "chip": "ym2612"
    },
    {
      "channel": 4,
      "note": 74,
      "start": 13.6352,
      "duration": 0.0598,
      "velocity": 127,
      "chip": "ym2612"
    },
    {
      "channel": 3,
      "note": 44,
      "start": 13.9508,
      "duration": 0.0306,
      "velocity": 96,
      "chip": "ym2612"
    },
    {
      "channel": 4,
      "note": 74,
      "start": 13.9517,
      "duration": 0.0402,
      "velocity": 127,
      "chip": "ym2612"
    },
    {
      "channel": 0,
      "note": 50,
      "start": 14.1044,
      "duration": 0.2655,
      "velocity": 94,
      "chip": "ym2612"
    },
    {
      "channel": 3,
      "note": 44,
      "start": 14.1054,
      "duration": 0.0499,
      "velocity": 96,
      "chip": "ym2612"
    },
    {
      "channel": 4,
      "note": 74,
      "start": 14.1063,
      "duration": 0.1514,
      "velocity": 127,
      "chip": "ym2612"
    },
    {
      "channel": 0,
      "note": 45,
      "start": 14.5746,
      "duration": 0.2455,
      "velocity": 94,
      "chip": "ym2612"
    },
    {
      "channel": 2,
      "note": 46,
      "start": 14.5757,
      "duration": 0.0195,
      "velocity": 127,
      "chip": "ym2612"
    },
    {
      "channel": 4,
      "note": 74,
      "start": 14.5766,
      "duration": 0.07,
      "velocity": 127,
      "chip": "ym2612"
    },
    {
      "channel": 4,
      "note": 74,
      "start": 14.8923,
      "duration": 0.0408,
      "velocity": 127,
      "chip": "ym2612"
    },
    {
      "channel": 0,
      "note": 38,
      "start": 15.0492,
      "duration": 0.0007,
      "velocity": 94,
      "chip": "ym2612"
    }
  ]
}