{
  "track_name": "06 - J-Son",
  "duration_sec": 35.972,
  "sample_rate": 44100,
  "note_count": 878,
  "unique_pitches": 40,
  "pitch_range": 72,
  "avg_note_duration": 0.2191,
  "reconstruction_stats": {
    "notes_reconstructed": 878,
    "keyon_events": 878,
    "keyoff_events": 875,
    "orphan_keyons": 3,
    "unique_pitches": 40,
    "pitch_range": 72,
    "avg_duration_sec": 0.2191
  },
  "metadata": {
    "source": "V\\Viper-V8\\06 - J-Son.vgz"
  },
  "notes": [
    {
      "channel": 0,
      "note": 46,
      "start": 0.0017,
      "duration": 0.1388,
      "velocity": 102,
      "chip": "ym2612"
    },
    {
      "channel": 1,
      "note": 70,
      "start": 0.0035,
      "duration": 0.0905,
      "velocity": 95,
      "chip": "ym2612"
    },
    {
      "channel": 2,
      "note": 22,
      "start": 0.0052,
      "duration": 0.54,
      "velocity": 100,
      "chip": "ym2612"
    },
    {
      "channel": 3,
      "note": 64,
      "start": 0.0069,
      "duration": 0.2272,
      "velocity": 106,
      "chip": "ym2612"
    },
    {
      "channel": 4,
      "note": 58,
      "start": 0.009,
      "duration": 0.2255,
      "velocity": 106,
      "chip": "ym2612"
    },
    {
      "channel": 5,
      "note": 70,
      "start": 0.0107,
      "duration": 0.0836,
      "velocity": 120,
      "chip": "ym2612"
    },
    {
      "channel": 5,
      "note": 71,
      "start": 0.0944,
      "duration": 0.0936,
      "velocity": 120,
      "chip": "ym2612"
    },
    {
      "channel": 0,
      "note": 49,
      "start": 0.1874,
      "duration": 0.1398,
      "velocity": 102,
      "chip": "ym2612"
    },
    {
      "channel": 1,
      "note": 70,
      "start": 0.1879,
      "duration": 0.0927,
      "velocity": 95,
      "chip": "ym2612"
    },
    {
      "channel": 5,
      "note": 70,
      "start": 0.1883,
      "duration": 0.0926,
      "velocity": 120,
      "chip": "ym2612"
    },
    {
      "channel": 3,
      "note": 64,
      "start": 0.2344,
      "duration": 0.2331,
      "velocity": 106,
      "chip": "ym2612"
    },
    {
      "channel": 4,
      "note": 58,
      "start": 0.2347,
      "duration": 0.2333,
      "velocity": 106,
      "chip": "ym2612"
    },
    {
      "channel": 5,
      "note": 71,
      "start": 0.2811,
      "duration": 0.0934,
      "velocity": 120,
      "chip": "ym2612"
    },
    {
      "channel": 0,
      "note": 52,
      "start": 0.374,
      "duration": 0.1398,
      "velocity": 102,
      "chip": "ym2612"
    },
    {
      "channel": 1,
      "note": 70,
      "start": 0.3743,
      "duration": 0.093,
      "velocity": 95,
      "chip": "ym2612"
    },
    {
      "channel": 5,
      "note": 70,
      "start": 0.3746,
      "duration": 0.0937,
      "velocity": 120,
      "chip": "ym2612"
    },
    {
      "channel": 3,
      "note": 64,
      "start": 0.468,
      "duration": 0.0933,
      "velocity": 106,
      "chip": "ym2612"
    },
    {
      "channel": 4,
      "note": 58,
      "start": 0.4683,
      "duration": 0.0933,
      "velocity": 106,
      "chip": "ym2612"
    },
    {
      "channel": 5,
      "note": 71,
      "start": 0.4685,
      "duration": 0.0934,
      "velocity": 120,
      "chip": "ym2612"
    },
    {
      "channel": 0,
      "note": 55,
      "start": 0.5607,
      "duration": 0.2953,
      "velocity": 102,
      "chip": "ym2612"
    },
    {
      "channel": 1,
      "note": 70,
      "start": 0.5609,
      "duration": 0.0929,
      "velocity": 95,
      "chip": "ym2612"
    },
    {
      "channel": 2,
      "note": 22,
      "start": 0.5612,
      "duration": 0.5594,
      "velocity": 100,
      "chip": "ym2612"
    },
    {
      "channel": 3,
      "note": 67,
      "start": 0.5615,
      "duration": 0.2325,
      "velocity": 106,
      "chip": "ym2612"
    },
    {
      "channel": 4,
      "note": 64,
      "start": 0.5618,
      "duration": 0.2325,
      "velocity": 106,
      "chip": "ym2612"
    },
    {
      "channel": 5,
      "note": 70,
      "start": 0.5621,
      "duration": 0.092,
      "velocity": 120,
      "chip": "ym2612"
    },
    {
      "channel": 5,
      "note": 71,
      "start": 0.6543,
      "duration": 0.0932,
      "velocity": 120,
      "chip": "ym2612"
    },
    {
      "channel": 1,
      "note": 70,
      "start": 0.7474,
      "duration": 0.0931,
      "velocity": 95,
      "chip": "ym2612"
    },
    {
      "channel": 5,
      "note": 70,
      "start": 0.748,
      "duration": 0.0927,
      "velocity": 120,
      "chip": "ym2612"
    },
    {
      "channel": 3,
      "note": 67,
      "start": 0.7943,
      "duration": 0.2331,
      "velocity": 106,
      "chip": "ym2612"
    },
    {
      "channel": 4,
      "note": 64,
      "start": 0.7946,
      "duration": 0.2333,
      "velocity": 106,
      "chip": "ym2612"
    },
    {
      "channel": 5,
      "note": 71,
      "start": 0.8409,
      "duration": 0.0934,
      "velocity": 120,
      "chip": "ym2612"
    },
    {
      "channel": 0,
      "note": 46,
      "start": 0.9339,
      "duration": 0.1553,
      "velocity": 102,
      "chip": "ym2612"
    },
    {
      "channel": 1,
      "note": 70,
      "start": 0.9341,
      "duration": 0.0929,
      "velocity": 95,
      "chip": "ym2612"
    },
    {
      "channel": 5,
      "note": 70,
      "start": 0.9345,
      "duration": 0.0937,
      "velocity": 120,
      "chip": "ym2612"
    },
    {
      "channel": 3,
      "note": 67,
      "start": 1.0278,
      "duration": 0.1089,
      "velocity": 106,
      "chip": "ym2612"
    },
    {
      "channel": 4,
      "note": 64,
      "start": 1.0281,
      "duration": 0.1089,
      "velocity": 106,
      "chip": "ym2612"
    },
    {
      "channel": 5,
      "note": 71,
      "start": 1.0284,
      "duration": 0.1089,
      "velocity": 120,
      "chip": "ym2612"
    },
    {
      "channel": 0,
      "note": 49,
      "start": 1.1361,
      "duration": 0.1398,
      "velocity": 102,
      "chip": "ym2612"
    },
    {
      "channel": 1,
      "note": 70,
      "start": 1.1363,
      "duration": 0.0929,
      "velocity": 95,
      "chip": "ym2612"
    },
    {
      "channel": 2,
      "note": 22,
      "start": 1.1367,
      "duration": 0.5438,
      "velocity": 100,
      "chip": "ym2612"
    },
    {
      "channel": 3,
      "note": 64,
      "start": 1.1369,
      "duration": 0.2325,
      "velocity": 106,
      "chip": "ym2612"
    },
    {
      "channel": 4,
      "note": 58,
      "start": 1.1372,
      "duration": 0.2325,
      "velocity": 106,
      "chip": "ym2612"
    },
    {
      "channel": 5,
      "note": 70,
      "start": 1.1375,
      "duration": 0.0921,
      "velocity": 120,
      "chip": "ym2612"
    },
    {
      "channel": 5,
      "note": 71,
      "start": 1.2297,
      "duration": 0.0934,
      "velocity": 120,
      "chip": "ym2612"
    },
    {
      "channel": 0,
      "note": 52,
      "start": 1.3227,
      "duration": 0.1398,
      "velocity": 102,
      "chip": "ym2612"
    },
    {
      "channel": 1,
      "note": 70,
      "start": 1.3229,
      "duration": 0.093,
      "velocity": 95,
      "chip": "ym2612"
    },
    {
      "channel": 5,
      "note": 70,
      "start": 1.3233,
      "duration": 0.0929,
      "velocity": 120,
      "chip": "ym2612"
    },
    {
      "channel": 3,
      "note": 64,
      "start": 1.3697,
      "duration": 0.2331,
      "velocity": 106,
      "chip": "ym2612"
    },
    {
      "channel": 4,
      "note": 58,
      "start": 1.37,
      "duration": 0.2331,
      "velocity": 106,
      "chip": "ym2612"
    },
    {
      "channel": 5,
      "note": 71,
      "start": 1.4163,
      "duration": 0.0934,
      "velocity": 120,
      "chip": "ym2612"
    },
    {
      "channel": 0,
      "note": 55,
      "start": 1.5093,
      "duration": 0.1398,
      "velocity": 102,
      "chip": "ym2612"
    },
    {
      "channel": 1,
      "note": 70,
      "start": 1.5096,
      "duration": 0.093,
      "velocity": 95,
      "chip": "ym2612"
    },
    {
      "channel": 5,
      "note": 70,
      "start": 1.5099,
      "duration": 0.0934,
      "velocity": 120,
      "chip": "ym2612"
    },
    {
      "channel": 3,
      "note": 64,
      "start": 1.603,
      "duration": 0.0936,
      "velocity": 106,
      "chip": "ym2612"
    },
    {
      "channel": 4,
      "note": 58,
      "start": 1.6033,
      "duration": 0.0936,
      "velocity": 106,
      "chip": "ym2612"
    },
    {
      "channel": 5,
      "note": 71,
      "start": 1.6036,
      "duration": 0.0936,
      "velocity": 120,
      "chip": "ym2612"
    },
    {
      "channel": 0,
      "note": 46,
      "start": 1.6959,
      "duration": 0.1398,
      "velocity": 102,
      "chip": "ym2612"
    },
    {
      "channel": 1,
      "note": 70,
      "start": 1.6962,
      "duration": 0.093,
      "velocity": 95,
      "chip": "ym2612"
    },
    {
      "channel": 2,
      "note": 22,
      "start": 1.6965,
      "duration": 0.5438,
      "velocity": 100,
      "chip": "ym2612"
    },
    {
      "channel": 3,
      "note": 67,
      "start": 1.6968,
      "duration": 0.2325,
      "velocity": 106,
      "chip": "ym2612"
    },
    {
      "channel": 4,
      "note": 64,
      "start": 1.6971,
      "duration": 0.2325,
      "velocity": 106,
      "chip": "ym2612"
    },
    {
      "channel": 5,
      "note": 70,
      "start": 1.6974,
      "duration": 0.092,
      "velocity": 120,
      "chip": "ym2612"
    },
    {
      "channel": 5,
      "note": 71,
      "start": 1.7896,
      "duration": 0.0934,
      "velocity": 120,
      "chip": "ym2612"
    },
    {
      "channel": 0,
      "note": 49,
      "start": 1.8826,
      "duration": 0.1398,
      "velocity": 102,
      "chip": "ym2612"
    },
    {
      "channel": 1,
      "note": 70,
      "start": 1.8828,
      "duration": 0.093,
      "velocity": 95,
      "chip": "ym2612"
    },
    {
      "channel": 5,
      "note": 70,
      "start": 1.8832,
      "duration": 0.0929,
      "velocity": 120,
      "chip": "ym2612"
    },
    {
      "channel": 3,
      "note": 67,
      "start": 1.9296,
      "duration": 0.2331,
      "velocity": 106,
      "chip": "ym2612"
    },
    {
      "channel": 4,
      "note": 64,
      "start": 1.9299,
      "duration": 0.2331,
      "velocity": 106,
      "chip": "ym2612"
    },
    {
      "channel": 5,
      "note": 71,
      "start": 1.9762,
      "duration": 0.0934,
      "velocity": 120,
      "chip": "ym2612"
    },
    {
      "channel": 0,
      "note": 52,
      "start": 2.0692,
      "duration": 0.1398,
      "velocity": 102,
      "chip": "ym2612"
    },
    {
      "channel": 1,
      "note": 70,
      "start": 2.0694,
      "duration": 0.093,
      "velocity": 95,
      "chip": "ym2612"
    },
    {
      "channel": 5,
      "note": 70,
      "start": 2.0698,
      "duration": 0.0934,
      "velocity": 120,
      "chip": "ym2612"
    },
    {
      "channel": 3,
      "note": 67,
      "start": 2.1629,
      "duration": 0.0936,
      "velocity": 106,
      "chip": "ym2612"
    },
    {
      "channel": 4,
      "note": 64,
      "start": 2.1632,
      "duration": 0.0936,
      "velocity": 106,
      "chip": "ym2612"
    },
    {
      "channel": 5,
      "note": 71,
      "start": 2.1634,
      "duration": 0.0936,
      "velocity": 120,
      "chip": "ym2612"
    },
    {
      "channel": 0,
      "note": 55,
      "start": 2.2558,
      "duration": 0.1398,
      "velocity": 102,
      "chip": "ym2612"
    },
    {
      "channel": 1,
      "note": 70,
      "start": 2.2561,
      "duration": 0.0929,
      "velocity": 95,
      "chip": "ym2612"
    },
    {
      "channel": 2,
      "note": 22,
      "start": 2.2564,
      "duration": 0.3572,
      "velocity": 100,
      "chip": "ym2612"
    },
    {
      "channel": 3,
      "note": 64,
      "start": 2.2567,
      "duration": 0.2325,
      "velocity": 106,
      "chip": "ym2612"
    },
    {
      "channel": 4,
      "note": 58,
      "start": 2.257,
      "duration": 0.2325,
      "velocity": 106,
      "chip": "ym2612"
    },
    {
      "channel": 5,
      "note": 70,
      "start": 2.2572,
      "duration": 0.092,
      "velocity": 120,
      "chip": "ym2612"
    },
    {
      "channel": 5,
      "note": 71,
      "start": 2.3495,
      "duration": 0.0934,
      "velocity": 120,
      "chip": "ym2612"
    },
    {
      "channel": 0,
      "note": 46,
      "start": 2.4424,
      "duration": 0.1398,
      "velocity": 102,
      "chip": "ym2612"
    },
    {
      "channel": 1,
      "note": 70,
      "start": 2.4427,
      "duration": 0.0929,
      "velocity": 95,
      "chip": "ym2612"
    },
    {
      "channel": 5,
      "note": 70,
      "start": 2.4431,
      "duration": 0.0928,
      "velocity": 120,
      "chip": "ym2612"
    },
    {
      "channel": 3,
      "note": 64,
      "start": 2.4894,
      "duration": 0.1402,
      "velocity": 106,
      "chip": "ym2612"
    },
    {
      "channel": 4,
      "note": 58,
      "start": 2.4897,
      "duration": 0.1402,
      "velocity": 106,
      "chip": "ym2612"
    },
    {
      "channel": 5,
      "note": 71,
      "start": 2.5361,
      "duration": 0.0942,
      "velocity": 120,
      "chip": "ym2612"
    },
    {
      "channel": 0,
      "note": 49,
      "start": 2.6291,
      "duration": 0.1398,
      "velocity": 102,
      "chip": "ym2612"
    },
    {
      "channel": 1,
      "note": 70,
      "start": 2.6293,
      "duration": 0.0929,
      "velocity": 95,
      "chip": "ym2612"
    },
    {
      "channel": 2,
      "note": 22,
      "start": 2.6296,
      "duration": 0.3572,
      "velocity": 100,
      "chip": "ym2612"
    },
    {
      "channel": 3,
      "note": 67,
      "start": 2.6299,
      "duration": 0.2325,
      "velocity": 106,
      "chip": "ym2612"
    },
    {
      "channel": 4,
      "note": 64,
      "start": 2.6302,
      "duration": 0.2325,
      "velocity": 106,
      "chip": "ym2612"
    },
    {
      "channel": 5,
      "note": 70,
      "start": 2.6305,
      "duration": 0.092,
      "velocity": 120,
      "chip": "ym2612"
    },
    {
      "channel": 5,
      "note": 71,
      "start": 2.7227,
      "duration": 0.0934,
      "velocity": 120,
      "chip": "ym2612"
    },
    {
      "channel": 0,
      "note": 52,
      "start": 2.8157,
      "duration": 0.1398,
      "velocity": 102,
      "chip": "ym2612"
    },
    {
      "channel": 1,
      "note": 70,
      "start": 2.8159,
      "duration": 0.0929,
      "velocity": 95,
      "chip": "ym2612"
    },
    {
      "channel": 5,
      "note": 70,
      "start": 2.8163,
      "duration": 0.0929,
      "velocity": 120,
      "chip": "ym2612"
    },
    {
      "channel": 3,
      "note": 67,
      "start": 2.8627,
      "duration": 0.1403,
      "velocity": 106,
      "chip": "ym2612"
    },
    {
      "channel": 4,
      "note": 64,
      "start": 2.863,
      "duration": 0.1403,
      "velocity": 106,
      "chip": "ym2612"
    },
    {
      "channel": 5,
      "note": 71,
      "start": 2.9093,
      "duration": 0.0942,
      "velocity": 120,
      "chip": "ym2612"
    },
    {
      "channel": 0,
      "note": 55,
      "start": 3.0023,
      "duration": 2.9236,
      "velocity": 102,
      "chip": "ym2612"
    },
    {
      "channel": 1,
      "note": 70,
      "start": 3.0026,
      "duration": 0.093,
      "velocity": 95,
      "chip": "ym2612"
    },
    {
      "channel": 2,
      "note": 22,
      "start": 3.0029,
      "duration": 0.5438,
      "velocity": 100,
      "chip": "ym2612"
    },
    {
      "channel": 3,
      "note": 64,
      "start": 3.0032,
      "duration": 0.2325,
      "velocity": 106,
      "chip": "ym2612"
    },
    {
      "channel": 4,
      "note": 58,
      "start": 3.0035,
      "duration": 0.2325,
      "velocity": 106,
      "chip": "ym2612"
    },
    {
      "channel": 5,
      "note": 70,
      "start": 3.0038,
      "duration": 0.092,
      "velocity": 120,
      "chip": "ym2612"
    },
    {
      "channel": 5,
      "note": 71,
      "start": 3.096,
      "duration": 0.0932,
      "velocity": 120,
      "chip": "ym2612"
    },
    {
      "channel": 1,
      "note": 70,
      "start": 3.189,
      "duration": 0.0931,
      "velocity": 95,
      "chip": "ym2612"
    },
    {
      "channel": 5,
      "note": 70,
      "start": 3.1894,
      "duration": 0.093,
      "velocity": 120,
      "chip": "ym2612"
    },
    {
      "channel": 3,
      "note": 64,
      "start": 3.2359,
      "duration": 0.2331,
      "velocity": 106,
      "chip": "ym2612"
    },
    {
      "channel": 4,
      "note": 58,
      "start": 3.2362,
      "duration": 0.2331,
      "velocity": 106,
      "chip": "ym2612"
    },
    {
      "channel": 5,
      "note": 71,
      "start": 3.2826,
      "duration": 0.0932,
      "velocity": 120,
      "chip": "ym2612"
    },
    {
      "channel": 1,
      "note": 70,
      "start": 3.3757,
      "duration": 0.0931,
      "velocity": 95,
      "chip": "ym2612"
    },
    {
      "channel": 5,
      "note": 70,
      "start": 3.376,
      "duration": 0.0936,
      "velocity": 120,
      "chip": "ym2612"
    },
    {
      "channel": 3,
      "note": 64,
      "start": 3.4693,
      "duration": 0.0934,
      "velocity": 106,
      "chip": "ym2612"
    },
    {
      "channel": 4,
      "note": 58,
      "start": 3.4695,
      "duration": 0.0934,
      "velocity": 106,
      "chip": "ym2612"
    },
    {
      "channel": 5,
      "note": 71,
      "start": 3.4698,
      "duration": 0.0934,
      "velocity": 120,
      "chip": "ym2612"
    },
    {
      "channel": 1,
      "note": 70,
      "start": 3.5623,
      "duration": 0.0931,
      "velocity": 95,
      "chip": "ym2612"
    },
    {
      "channel": 2,
      "note": 22,
      "start": 3.5626,
      "duration": 0.5439,
      "velocity": 100,
      "chip": "ym2612"
    },
    {
      "channel": 3,
      "note": 67,
      "start": 3.5629,
      "duration": 0.2326,
      "velocity": 106,
      "chip": "ym2612"
    },
    {
      "channel": 4,
      "note": 64,
      "start": 3.5632,
      "duration": 0.2327,
      "velocity": 106,
      "chip": "ym2612"
    },
    {
      "channel": 5,
      "note": 70,
      "start": 3.5634,
      "duration": 0.0922,
      "velocity": 120,
      "chip": "ym2612"
    },
    {
      "channel": 5,
      "note": 71,
      "start": 3.6559,
      "duration": 0.0932,
      "velocity": 120,
      "chip": "ym2612"
    },
    {
      "channel": 1,
      "note": 70,
      "start": 3.7489,
      "duration": 0.0931,
      "velocity": 95,
      "chip": "ym2612"
    },
    {
      "channel": 5,
      "note": 70,
      "start": 3.7493,
      "duration": 0.093,
      "velocity": 120,
      "chip": "ym2612"
    },
    {
      "channel": 3,
      "note": 67,
      "start": 3.7958,
      "duration": 0.2331,
      "velocity": 106,
      "chip": "ym2612"
    },
    {
      "channel": 4,
      "note": 64,
      "start": 3.7961,
      "duration": 0.2331,
      "velocity": 106,
      "chip": "ym2612"
    },
    {
      "channel": 5,
      "note": 71,
      "start": 3.8425,
      "duration": 0.0932,
      "velocity": 120,
      "chip": "ym2612"
    },
    {
      "channel": 1,
      "note": 70,
      "start": 3.9355,
      "duration": 0.0931,
      "velocity": 95,
      "chip": "ym2612"
    },
    {
      "channel": 5,
      "note": 70,
      "start": 3.9359,
      "duration": 0.0936,
      "velocity": 120,
      "chip": "ym2612"
    },
    {
      "channel": 3,
      "note": 67,
      "start": 4.0291,
      "duration": 0.0934,
      "velocity": 106,
      "chip": "ym2612"
    },
    {
      "channel": 4,
      "note": 64,
      "start": 4.0294,
      "duration": 0.0934,
      "velocity": 106,
      "chip": "ym2612"
    },
    {
      "channel": 5,
      "note": 71,
      "start": 4.0297,
      "duration": 0.0934,
      "velocity": 120,
      "chip": "ym2612"
    },
    {
      "channel": 1,
      "note": 70,
      "start": 4.1222,
      "duration": 0.0931,
      "velocity": 95,
      "chip": "ym2612"
    },
    {
      "channel": 2,
      "note": 22,
      "start": 4.1225,
      "duration": 0.5439,
      "velocity": 100,
      "chip": "ym2612"
    },
    {
      "channel": 3,
      "note": 64,
      "start": 4.1228,
      "duration": 0.2327,
      "velocity": 106,
      "chip": "ym2612"
    },
    {
      "channel": 4,
      "note": 58,
      "start": 4.1231,
      "duration": 0.2327,
      "velocity": 106,
      "chip": "ym2612"
    },
    {
      "channel": 5,
      "note": 70,
      "start": 4.1233,
      "duration": 0.0922,
      "velocity": 120,
      "chip": "ym2612"
    },
    {
      "channel": 5,
      "note": 71,
      "start": 4.2157,
      "duration": 0.0932,
      "velocity": 120,
      "chip": "ym2612"
    },
    {
      "channel": 1,
      "note": 70,
      "start": 4.3088,
      "duration": 0.0931,
      "velocity": 95,
      "chip": "ym2612"
    },
    {
      "channel": 5,
      "note": 70,
      "start": 4.3091,
      "duration": 0.093,
      "velocity": 120,
      "chip": "ym2612"
    },
    {
      "channel": 3,
      "note": 64,
      "start": 4.3557,
      "duration": 0.2331,
      "velocity": 106,
      "chip": "ym2612"
    },
    {
      "channel": 4,
      "note": 58,
      "start": 4.356,
      "duration": 0.2331,
      "velocity": 106,
      "chip": "ym2612"
    },
    {
      "channel": 5,
      "note": 71,
      "start": 4.4023,
      "duration": 0.0932,
      "velocity": 120,
      "chip": "ym2612"
    },
    {
      "channel": 1,
      "note": 70,
      "start": 4.4954,
      "duration": 0.0931,
      "velocity": 95,
      "chip": "ym2612"
    },
    {
      "channel": 5,
      "note": 70,
      "start": 4.4958,
      "duration": 0.0936,
      "velocity": 120,
      "chip": "ym2612"
    },
    {
      "channel": 3,
      "note": 64,
      "start": 4.589,
      "duration": 0.0934,
      "velocity": 106,
      "chip": "ym2612"
    },
    {
      "channel": 4,
      "note": 58,
      "start": 4.5893,
      "duration": 0.0934,
      "velocity": 106,
      "chip": "ym2612"
    },
    {
      "channel": 5,
      "note": 71,
      "start": 4.5895,
      "duration": 0.0934,
      "velocity": 120,
      "chip": "ym2612"
    },
    {
      "channel": 1,
      "note": 70,
      "start": 4.682,
      "duration": 0.0931,
      "velocity": 95,
      "chip": "ym2612"
    },
    {
      "channel": 2,
      "note": 22,
      "start": 4.6824,
      "duration": 0.5595,
      "velocity": 100,
      "chip": "ym2612"
    },
    {
      "channel": 3,
      "note": 67,
      "start": 4.6827,
      "duration": 0.2327,
      "velocity": 106,
      "chip": "ym2612"
    },
    {
      "channel": 4,
      "note": 64,
      "start": 4.6829,
      "duration": 0.2327,
      "velocity": 106,
      "chip": "ym2612"
    },
    {
      "channel": 5,
      "note": 70,
      "start": 4.6832,
      "duration": 0.0922,
      "velocity": 120,
      "chip": "ym2612"
    },
    {
      "channel": 5,
      "note": 71,
      "start": 4.7756,
      "duration": 0.0932,
      "velocity": 120,
      "chip": "ym2612"
    },
    {
      "channel": 1,
      "note": 70,
      "start": 4.8687,
      "duration": 0.1087,
      "velocity": 95,
      "chip": "ym2612"
    },
    {
      "channel": 5,
      "note": 70,
      "start": 4.869,
      "duration": 0.1088,
      "velocity": 120,
      "chip": "ym2612"
    },
    {
      "channel": 3,
      "note": 67,
      "start": 4.9156,
      "duration": 0.2486,
      "velocity": 106,
      "chip": "ym2612"
    },
    {
      "channel": 4,
      "note": 64,
      "start": 4.9159,
      "duration": 0.2486,
      "velocity": 106,
      "chip": "ym2612"
    },
    {
      "channel": 5,
      "note": 71,
      "start": 4.978,
      "duration": 0.093,
      "velocity": 120,
      "chip": "ym2612"
    },
    {
      "channel": 1,
      "note": 70,
      "start": 5.0708,
      "duration": 0.0931,
      "velocity": 95,
      "chip": "ym2612"
    },
    {
      "channel": 5,
      "note": 70,
      "start": 5.0712,
      "duration": 0.0936,
      "velocity": 120,
      "chip": "ym2612"
    },
    {
      "channel": 3,
      "note": 67,
      "start": 5.1644,
      "duration": 0.0937,
      "velocity": 106,
      "chip": "ym2612"
    },
    {
      "channel": 4,
      "note": 64,
      "start": 5.1647,
      "duration": 0.0937,
      "velocity": 106,
      "chip": "ym2612"
    },
    {
      "channel": 5,
      "note": 71,
      "start": 5.165,
      "duration": 0.0937,
      "velocity": 120,
      "chip": "ym2612"
    },
    {
      "channel": 1,
      "note": 70,
      "start": 5.2575,
      "duration": 0.0931,
      "velocity": 95,
      "chip": "ym2612"
    },
    {
      "channel": 2,
      "note": 22,
      "start": 5.258,
      "duration": 0.357,
      "velocity": 100,
      "chip": "ym2612"
    },
    {
      "channel": 3,
      "note": 64,
      "start": 5.2584,
      "duration": 0.2324,
      "velocity": 106,
      "chip": "ym2612"
    },
    {
      "channel": 4,
      "note": 58,
      "start": 5.2587,
      "duration": 0.2324,
      "velocity": 106,
      "chip": "ym2612"
    },
    {
      "channel": 5,
      "note": 70,
      "start": 5.2589,
      "duration": 0.0919,
      "velocity": 120,
      "chip": "ym2612"
    },
    {
      "channel": 5,
      "note": 71,
      "start": 5.351,
      "duration": 0.0932,
      "velocity": 120,
      "chip": "ym2612"
    },
    {
      "channel": 1,
      "note": 70,
      "start": 5.4441,
      "duration": 0.0931,
      "velocity": 95,
      "chip": "ym2612"
    },
    {
      "channel": 5,
      "note": 70,
      "start": 5.4444,
      "duration": 0.093,
      "velocity": 120,
      "chip": "ym2612"
    },
    {
      "channel": 3,
      "note": 64,
      "start": 5.491,
      "duration": 0.1401,
      "velocity": 106,
      "chip": "ym2612"
    },
    {
      "channel": 4,
      "note": 58,
      "start": 5.4913,
      "duration": 0.1401,
      "velocity": 106,
      "chip": "ym2612"
    },
    {
      "channel": 5,
      "note": 71,
      "start": 5.5379,
      "duration": 0.0938,
      "velocity": 120,
      "chip": "ym2612"
    },
    {
      "channel": 1,
      "note": 70,
      "start": 5.6307,
      "duration": 0.0931,
      "velocity": 95,
      "chip": "ym2612"
    },
    {
      "channel": 2,
      "note": 22,
      "start": 5.631,
      "duration": 0.3573,
      "velocity": 100,
      "chip": "ym2612"
    },
    {
      "channel": 3,
      "note": 67,
      "start": 5.6313,
      "duration": 0.2327,
      "velocity": 106,
      "chip": "ym2612"
    },
    {
      "channel": 4,
      "note": 64,
      "start": 5.6316,
      "duration": 0.2327,
      "velocity": 106,
      "chip": "ym2612"
    },
    {
      "channel": 5,
      "note": 70,
      "start": 5.6319,
      "duration": 0.0922,
      "velocity": 120,
      "chip": "ym2612"
    },
    {
      "channel": 5,
      "note": 71,
      "start": 5.7243,
      "duration": 0.0932,
      "velocity": 120,
      "chip": "ym2612"
    },
    {
      "channel": 1,
      "note": 70,
      "start": 5.8173,
      "duration": 0.0931,
      "velocity": 95,
      "chip": "ym2612"
    },
    {
      "channel": 5,
      "note": 70,
      "start": 5.8179,
      "duration": 0.0928,
      "velocity": 120,
      "chip": "ym2612"
    },
    {
      "channel": 3,
      "note": 67,
      "start": 5.8642,
      "duration": 0.1448,
      "velocity": 106,
      "chip": "ym2612"
    },
    {
      "channel": 4,
      "note": 64,
      "start": 5.8645,
      "duration": 0.1463,
      "velocity": 106,
      "chip": "ym2612"
    },
    {
      "channel": 5,
      "note": 71,
      "start": 5.9109,
      "duration": 0.1016,
      "velocity": 120,
      "chip": "ym2612"
    },
    {
      "channel": 0,
      "note": 46,
      "start": 6.0053,
      "duration": 0.1383,
      "velocity": 102,
      "chip": "ym2612"
    },
    {
      "channel": 1,
      "note": 70,
      "start": 6.007,
      "duration": 0.09,
      "velocity": 95,
      "chip": "ym2612"
    },
    {
      "channel": 2,
      "note": 22,
      "start": 6.009,
      "duration": 0.5393,
      "velocity": 100,
      "chip": "ym2612"
    },
    {
      "channel": 3,
      "note": 64,
      "start": 6.0107,
      "duration": 0.2265,
      "velocity": 106,
      "chip": "ym2612"
    },
    {
      "channel": 4,
      "note": 58,
      "start": 6.0124,
      "duration": 0.2251,
      "velocity": 106,
      "chip": "ym2612"
    },
    {
      "channel": 5,
      "note": 70,
      "start": 6.0142,
      "duration": 0.0831,
      "velocity": 120,
      "chip": "ym2612"
    },
    {
      "channel": 5,
      "note": 71,
      "start": 6.0975,
      "duration": 0.0934,
      "velocity": 120,
      "chip": "ym2612"
    },
    {
      "channel": 0,
      "note": 49,
      "start": 6.1905,
      "duration": 0.1398,
      "velocity": 102,
      "chip": "ym2612"
    },
    {
      "channel": 1,
      "note": 70,
      "start": 6.1907,
      "duration": 0.0929,
      "velocity": 95,
      "chip": "ym2612"
    },
    {
      "channel": 5,
      "note": 70,
      "start": 6.1911,
      "duration": 0.0929,
      "velocity": 120,
      "chip": "ym2612"
    },
    {
      "channel": 3,
      "note": 64,
      "start": 6.2375,
      "duration": 0.2331,
      "velocity": 106,
      "chip": "ym2612"
    },
    {
      "channel": 4,
      "note": 58,
      "start": 6.238,
      "duration": 0.2328,
      "velocity": 106,
      "chip": "ym2612"
    },
    {
      "channel": 5,
      "note": 71,
      "start": 6.2841,
      "duration": 0.0934,
      "velocity": 120,
      "chip": "ym2612"
    },
    {
      "channel": 0,
      "note": 52,
      "start": 6.3771,
      "duration": 0.1398,
      "velocity": 102,
      "chip": "ym2612"
    },
    {
      "channel": 1,
      "note": 70,
      "start": 6.3773,
      "duration": 0.093,
      "velocity": 95,
      "chip": "ym2612"
    },
    {
      "channel": 5,
      "note": 70,
      "start": 6.378,
      "duration": 0.0932,
      "velocity": 120,
      "chip": "ym2612"
    },
    {
      "channel": 3,
      "note": 64,
      "start": 6.4708,
      "duration": 0.0936,
      "velocity": 106,
      "chip": "ym2612"
    },
    {
      "channel": 4,
      "note": 58,
      "start": 6.4711,
      "duration": 0.0936,
      "velocity": 106,
      "chip": "ym2612"
    },
    {
      "channel": 5,
      "note": 71,
      "start": 6.4713,
      "duration": 0.0936,
      "velocity": 120,
      "chip": "ym2612"
    },
    {
      "channel": 0,
      "note": 55,
      "start": 6.5637,
      "duration": 0.2953,
      "velocity": 102,
      "chip": "ym2612"
    },
    {
      "channel": 1,
      "note": 70,
      "start": 6.564,
      "duration": 0.093,
      "velocity": 95,
      "chip": "ym2612"
    },
    {
      "channel": 2,
      "note": 22,
      "start": 6.5643,
      "duration": 0.5439,
      "velocity": 100,
      "chip": "ym2612"
    },
    {
      "channel": 3,
      "note": 67,
      "start": 6.5646,
      "duration": 0.2325,
      "velocity": 106,
      "chip": "ym2612"
    },
    {
      "channel": 4,
      "note": 64,
      "start": 6.5649,
      "duration": 0.2325,
      "velocity": 106,
      "chip": "ym2612"
    },
    {
      "channel": 5,
      "note": 70,
      "start": 6.5651,
      "duration": 0.092,
      "velocity": 120,
      "chip": "ym2612"
    },
    {
      "channel": 5,
      "note": 71,
      "start": 6.6574,
      "duration": 0.0932,
      "velocity": 120,
      "chip": "ym2612"
    },
    {
      "channel": 1,
      "note": 70,
      "start": 6.7505,
      "duration": 0.0931,
      "velocity": 95,
      "chip": "ym2612"
    },
    {
      "channel": 5,
      "note": 70,
      "start": 6.7508,
      "duration": 0.093,
      "velocity": 120,
      "chip": "ym2612"
    },
    {
      "channel": 3,
      "note": 67,
      "start": 6.7973,
      "duration": 0.2331,
      "velocity": 106,
      "chip": "ym2612"
    },
    {
      "channel": 4,
      "note": 64,
      "start": 6.7979,
      "duration": 0.2328,
      "velocity": 106,
      "chip": "ym2612"
    },
    {
      "channel": 5,
      "note": 71,
      "start": 6.844,
      "duration": 0.0934,
      "velocity": 120,
      "chip": "ym2612"
    },
    {
      "channel": 0,
      "note": 46,
      "start": 6.937,
      "duration": 0.1398,
      "velocity": 102,
      "chip": "ym2612"
    },
    {
      "channel": 1,
      "note": 70,
      "start": 6.9372,
      "duration": 0.093,
      "velocity": 95,
      "chip": "ym2612"
    },
    {
      "channel": 5,
      "note": 70,
      "start": 6.9378,
      "duration": 0.0932,
      "velocity": 120,
      "chip": "ym2612"
    },
    {
      "channel": 3,
      "note": 67,
      "start": 7.0307,
      "duration": 0.0936,
      "velocity": 106,
      "chip": "ym2612"
    },
    {
      "channel": 4,
      "note": 64,
      "start": 7.031,
      "duration": 0.0936,
      "velocity": 106,
      "chip": "ym2612"
    },
    {
      "channel": 5,
      "note": 71,
      "start": 7.0312,
      "duration": 0.0937,
      "velocity": 120,
      "chip": "ym2612"
    },
    {
      "channel": 0,
      "note": 49,
      "start": 7.1236,
      "duration": 0.1398,
      "velocity": 102,
      "chip": "ym2612"
    },
    {
      "channel": 1,
      "note": 70,
      "start": 7.1239,
      "duration": 0.0929,
      "velocity": 95,
      "chip": "ym2612"
    },
    {
      "channel": 2,
      "note": 22,
      "start": 7.1242,
      "duration": 0.544,
      "velocity": 100,
      "chip": "ym2612"
    },
    {
      "channel": 3,
      "note": 64,
      "start": 7.1245,
      "duration": 0.2325,
      "velocity": 106,
      "chip": "ym2612"
    },
    {
      "channel": 4,
      "note": 58,
      "start": 7.1248,
      "duration": 0.2325,
      "velocity": 106,
      "chip": "ym2612"
    },
    {
      "channel": 5,
      "note": 70,
      "start": 7.1251,
      "duration": 0.092,
      "velocity": 120,
      "chip": "ym2612"
    },
    {
      "channel": 5,
      "note": 71,
      "start": 7.2173,
      "duration": 0.0934,
      "velocity": 120,
      "chip": "ym2612"
    },
    {
      "channel": 0,
      "note": 52,
      "start": 7.3102,
      "duration": 0.1398,
      "velocity": 102,
      "chip": "ym2612"
    },
    {
      "channel": 1,
      "note": 70,
      "start": 7.3105,
      "duration": 0.093,
      "velocity": 95,
      "chip": "ym2612"
    },
    {
      "channel": 5,
      "note": 70,
      "start": 7.3108,
      "duration": 0.0929,
      "velocity": 120,
      "chip": "ym2612"
    },
    {
      "channel": 3,
      "note": 64,
      "start": 7.3572,
      "duration": 0.2331,
      "velocity": 106,
      "chip": "ym2612"
    },
    {
      "channel": 4,
      "note": 58,
      "start": 7.3575,
      "duration": 0.2331,
      "velocity": 106,
      "chip": "ym2612"
    },
    {
      "channel": 5,
      "note": 71,
      "start": 7.4039,
      "duration": 0.0934,
      "velocity": 120,
      "chip": "ym2612"
    },
    {
      "channel": 0,
      "note": 55,
      "start": 7.4968,
      "duration": 0.1398,
      "velocity": 102,
      "chip": "ym2612"
    },
    {
      "channel": 1,
      "note": 70,
      "start": 7.4971,
      "duration": 0.0929,
      "velocity": 95,
      "chip": "ym2612"
    },
    {
      "channel": 5,
      "note": 70,
      "start": 7.4975,
      "duration": 0.0934,
      "velocity": 120,
      "chip": "ym2612"
    },
    {
      "channel": 3,
      "note": 64,
      "start": 7.5905,
      "duration": 0.0936,
      "velocity": 106,
      "chip": "ym2612"
    },
    {
      "channel": 4,
      "note": 58,
      "start": 7.5908,
      "duration": 0.0936,
      "velocity": 106,
      "chip": "ym2612"
    },
    {
      "channel": 5,
      "note": 71,
      "start": 7.5911,
      "duration": 0.0936,
      "velocity": 120,
      "chip": "ym2612"
    },
    {
      "channel": 0,
      "note": 46,
      "start": 7.6835,
      "duration": 0.1398,
      "velocity": 102,
      "chip": "ym2612"
    },
    {
      "channel": 1,
      "note": 70,
      "start": 7.6837,
      "duration": 0.0929,
      "velocity": 95,
      "chip": "ym2612"
    },
    {
      "channel": 2,
      "note": 22,
      "start": 7.6841,
      "duration": 0.5441,
      "velocity": 100,
      "chip": "ym2612"
    },
    {
      "channel": 3,
      "note": 67,
      "start": 7.6843,
      "duration": 0.2325,
      "velocity": 106,
      "chip": "ym2612"
    },
    {
      "channel": 4,
      "note": 64,
      "start": 7.6846,
      "duration": 0.2325,
      "velocity": 106,
      "chip": "ym2612"
    },
    {
      "channel": 5,
      "note": 70,
      "start": 7.6849,
      "duration": 0.0921,
      "velocity": 120,
      "chip": "ym2612"
    },
    {
      "channel": 5,
      "note": 71,
      "start": 7.7771,
      "duration": 0.0934,
      "velocity": 120,
      "chip": "ym2612"
    },
    {
      "channel": 0,
      "note": 49,
      "start": 7.8701,
      "duration": 0.1398,
      "velocity": 102,
      "chip": "ym2612"
    },
    {
      "channel": 1,
      "note": 70,
      "start": 7.8703,
      "duration": 0.093,
      "velocity": 95,
      "chip": "ym2612"
    },
    {
      "channel": 5,
      "note": 70,
      "start": 7.8707,
      "duration": 0.0929,
      "velocity": 120,
      "chip": "ym2612"
    },
    {
      "channel": 3,
      "note": 67,
      "start": 7.9171,
      "duration": 0.2331,
      "velocity": 106,
      "chip": "ym2612"
    },
    {
      "channel": 4,
      "note": 64,
      "start": 7.9174,
      "duration": 0.2331,
      "velocity": 106,
      "chip": "ym2612"
    },
    {
      "channel": 5,
      "note": 71,
      "start": 7.9637,
      "duration": 0.0934,
      "velocity": 120,
      "chip": "ym2612"
    },
    {
      "channel": 0,
      "note": 52,
      "start": 8.0567,
      "duration": 0.1398,
      "velocity": 102,
      "chip": "ym2612"
    },
    {
      "channel": 1,
      "note": 70,
      "start": 8.057,
      "duration": 0.093,
      "velocity": 95,
      "chip": "ym2612"
    },
    {
      "channel": 5,
      "note": 70,
      "start": 8.0573,
      "duration": 0.0934,
      "velocity": 120,
      "chip": "ym2612"
    },
    {
      "channel": 3,
      "note": 67,
      "start": 8.1504,
      "duration": 0.0936,
      "velocity": 106,
      "chip": "ym2612"
    },
    {
      "channel": 4,
      "note": 64,
      "start": 8.1507,
      "duration": 0.0936,
      "velocity": 106,
      "chip": "ym2612"
    },
    {
      "channel": 5,
      "note": 71,
      "start": 8.151,
      "duration": 0.0936,
      "velocity": 120,
      "chip": "ym2612"
    },
    {
      "channel": 0,
      "note": 55,
      "start": 8.2433,
      "duration": 0.1398,
      "velocity": 102,
      "chip": "ym2612"
    },
    {
      "channel": 1,
      "note": 70,
      "start": 8.2436,
      "duration": 0.093,
      "velocity": 95,
      "chip": "ym2612"
    },
    {
      "channel": 2,
      "note": 22,
      "start": 8.2439,
      "duration": 0.3572,
      "velocity": 100,
      "chip": "ym2612"
    },
    {
      "channel": 3,
      "note": 64,
      "start": 8.2442,
      "duration": 0.2325,
      "velocity": 106,
      "chip": "ym2612"
    },
    {
      "channel": 4,
      "note": 58,
      "start": 8.2445,
      "duration": 0.2325,
      "velocity": 106,
      "chip": "ym2612"
    },
    {
      "channel": 5,
      "note": 70,
      "start": 8.2448,
      "duration": 0.092,
      "velocity": 120,
      "chip": "ym2612"
    },
    {
      "channel": 5,
      "note": 71,
      "start": 8.337,
      "duration": 0.0934,
      "velocity": 120,
      "chip": "ym2612"
    },
    {
      "channel": 0,
      "note": 46,
      "start": 8.43,
      "duration": 0.1398,
      "velocity": 102,
      "chip": "ym2612"
    },
    {
      "channel": 1,
      "note": 70,
      "start": 8.4302,
      "duration": 0.093,
      "velocity": 95,
      "chip": "ym2612"
    },
    {
      "channel": 5,
      "note": 70,
      "start": 8.4306,
      "duration": 0.0929,
      "velocity": 120,
      "chip": "ym2612"
    },
    {
      "channel": 3,
      "note": 64,
      "start": 8.477,
      "duration": 0.1402,
      "velocity": 106,
      "chip": "ym2612"
    },
    {
      "channel": 4,
      "note": 58,
      "start": 8.4773,
      "duration": 0.1402,
      "velocity": 106,
      "chip": "ym2612"
    },
    {
      "channel": 5,
      "note": 71,
      "start": 8.5236,
      "duration": 0.0944,
      "velocity": 120,
      "chip": "ym2612"
    },
    {
      "channel": 0,
      "note": 49,
      "start": 8.6166,
      "duration": 0.1398,
      "velocity": 102,
      "chip": "ym2612"
    },
    {
      "channel": 1,
      "note": 70,
      "start": 8.6168,
      "duration": 0.093,
      "velocity": 95,
      "chip": "ym2612"
    },
    {
      "channel": 2,
      "note": 22,
      "start": 8.6172,
      "duration": 0.3727,
      "velocity": 100,
      "chip": "ym2612"
    },
    {
      "channel": 3,
      "note": 67,
      "start": 8.6174,
      "duration": 0.2325,
      "velocity": 106,
      "chip": "ym2612"
    },
    {
      "channel": 4,
      "note": 64,
      "start": 8.618,
      "duration": 0.2323,
      "velocity": 106,
      "chip": "ym2612"
    },
    {
      "channel": 5,
      "note": 70,
      "start": 8.6182,
      "duration": 0.0918,
      "velocity": 120,
      "chip": "ym2612"
    },
    {
      "channel": 5,
      "note": 71,
      "start": 8.7102,
      "duration": 0.0934,
      "velocity": 120,
      "chip": "ym2612"
    },
    {
      "channel": 0,
      "note": 52,
      "start": 8.8032,
      "duration": 0.1553,
      "velocity": 102,
      "chip": "ym2612"
    },
    {
      "channel": 1,
      "note": 70,
      "start": 8.8034,
      "duration": 0.1085,
      "velocity": 95,
      "chip": "ym2612"
    },
    {
      "channel": 5,
      "note": 70,
      "start": 8.8038,
      "duration": 0.1084,
      "velocity": 120,
      "chip": "ym2612"
    },
    {
      "channel": 3,
      "note": 67,
      "start": 8.8502,
      "duration": 0.1558,
      "velocity": 106,
      "chip": "ym2612"
    },
    {
      "channel": 4,
      "note": 64,
      "start": 8.8505,
      "duration": 0.1558,
      "velocity": 106,
      "chip": "ym2612"
    },
    {
      "channel": 5,
      "note": 71,
      "start": 8.9124,
      "duration": 0.0942,
      "velocity": 120,
      "chip": "ym2612"
    },
    {
      "channel": 0,
      "note": 55,
      "start": 9.0054,
      "duration": 2.908,
      "velocity": 102,
      "chip": "ym2612"
    },
    {
      "channel": 1,
      "note": 70,
      "start": 9.0056,
      "duration": 0.0929,
      "velocity": 95,
      "chip": "ym2612"
    },
    {
      "channel": 2,
      "note": 22,
      "start": 9.006,
      "duration": 0.5438,
      "velocity": 100,
      "chip": "ym2612"
    },
    {
      "channel": 3,
      "note": 64,
      "start": 9.0063,
      "duration": 0.2325,
      "velocity": 106,
      "chip": "ym2612"
    },
    {
      "channel": 4,
      "note": 58,
      "start": 9.0066,
      "duration": 0.2325,
      "velocity": 106,
      "chip": "ym2612"
    },
    {
      "channel": 5,
      "note": 70,
      "start": 9.0068,
      "duration": 0.092,
      "velocity": 120,
      "chip": "ym2612"
    },
    {
      "channel": 5,
      "note": 71,
      "start": 9.099,
      "duration": 0.0932,
      "velocity": 120,
      "chip": "ym2612"
    },
    {
      "channel": 1,
      "note": 70,
      "start": 9.1921,
      "duration": 0.0931,
      "velocity": 95,
      "chip": "ym2612"
    },
    {
      "channel": 5,
      "note": 70,
      "start": 9.1925,
      "duration": 0.093,
      "velocity": 120,
      "chip": "ym2612"
    },
    {
      "channel": 3,
      "note": 64,
      "start": 9.239,
      "duration": 0.2331,
      "velocity": 106,
      "chip": "ym2612"
    },
    {
      "channel": 4,
      "note": 58,
      "start": 9.2393,
      "duration": 0.2331,
      "velocity": 106,
      "chip": "ym2612"
    },
    {
      "channel": 5,
      "note": 71,
      "start": 9.2857,
      "duration": 0.0932,
      "velocity": 120,
      "chip": "ym2612"
    },
    {
      "channel": 1,
      "note": 70,
      "start": 9.3787,
      "duration": 0.0931,
      "velocity": 95,
      "chip": "ym2612"
    },
    {
      "channel": 5,
      "note": 70,
      "start": 9.3791,
      "duration": 0.0936,
      "velocity": 120,
      "chip": "ym2612"
    },
    {
      "channel": 3,
      "note": 64,
      "start": 9.4723,
      "duration": 0.0934,
      "velocity": 106,
      "chip": "ym2612"
    },
    {
      "channel": 4,
      "note": 58,
      "start": 9.4726,
      "duration": 0.0934,
      "velocity": 106,
      "chip": "ym2612"
    },
    {
      "channel": 5,
      "note": 71,
      "start": 9.4729,
      "duration": 0.0935,
      "velocity": 120,
      "chip": "ym2612"
    },
    {
      "channel": 1,
      "note": 70,
      "start": 9.5654,
      "duration": 0.0931,
      "velocity": 95,
      "chip": "ym2612"
    },
    {
      "channel": 2,
      "note": 22,
      "start": 9.5657,
      "duration": 0.5439,
      "velocity": 100,
      "chip": "ym2612"
    },
    {
      "channel": 3,
      "note": 67,
      "start": 9.566,
      "duration": 0.2327,
      "velocity": 106,
      "chip": "ym2612"
    },
    {
      "channel": 4,
      "note": 64,
      "start": 9.5663,
      "duration": 0.2327,
      "velocity": 106,
      "chip": "ym2612"
    },
    {
      "channel": 5,
      "note": 70,
      "start": 9.5665,
      "duration": 0.0922,
      "velocity": 120,
      "chip": "ym2612"
    },
    {
      "channel": 5,
      "note": 71,
      "start": 9.6589,
      "duration": 0.0932,
      "velocity": 120,
      "chip": "ym2612"
    },
    {
      "channel": 1,
      "note": 70,
      "start": 9.752,
      "duration": 0.0931,
      "velocity": 95,
      "chip": "ym2612"
    },
    {
      "channel": 5,
      "note": 70,
      "start": 9.7523,
      "duration": 0.093,
      "velocity": 120,
      "chip": "ym2612"
    },
    {
      "channel": 3,
      "note": 67,
      "start": 9.7989,
      "duration": 0.2331,
      "velocity": 106,
      "chip": "ym2612"
    },
    {
      "channel": 4,
      "note": 64,
      "start": 9.7992,
      "duration": 0.2331,
      "velocity": 106,
      "chip": "ym2612"
    },
    {
      "channel": 5,
      "note": 71,
      "start": 9.8456,
      "duration": 0.0932,
      "velocity": 120,
      "chip": "ym2612"
    },
    {
      "channel": 1,
      "note": 70,
      "start": 9.9386,
      "duration": 0.0931,
      "velocity": 95,
      "chip": "ym2612"
    },
    {
      "channel": 5,
      "note": 70,
      "start": 9.939,
      "duration": 0.0936,
      "velocity": 120,
      "chip": "ym2612"
    },
    {
      "channel": 3,
      "note": 67,
      "start": 10.0322,
      "duration": 0.0934,
      "velocity": 106,
      "chip": "ym2612"
    },
    {
      "channel": 4,
      "note": 64,
      "start": 10.0325,
      "duration": 0.0934,
      "velocity": 106,
      "chip": "ym2612"
    },
    {
      "channel": 5,
      "note": 71,
      "start": 10.0327,
      "duration": 0.0934,
      "velocity": 120,
      "chip": "ym2612"
    },
    {
      "channel": 1,
      "note": 70,
      "start": 10.1252,
      "duration": 0.0931,
      "velocity": 95,
      "chip": "ym2612"
    },
    {
      "channel": 2,
      "note": 22,
      "start": 10.1256,
      "duration": 0.5439,
      "velocity": 100,
      "chip": "ym2612"
    },
    {
      "channel": 3,
      "note": 64,
      "start": 10.1259,
      "duration": 0.2327,
      "velocity": 106,
      "chip": "ym2612"
    },
    {
      "channel": 4,
      "note": 58,
      "start": 10.1261,
      "duration": 0.2327,
      "velocity": 106,
      "chip": "ym2612"
    },
    {
      "channel": 5,
      "note": 70,
      "start": 10.1264,
      "duration": 0.0922,
      "velocity": 120,
      "chip": "ym2612"
    },
    {
      "channel": 5,
      "note": 71,
      "start": 10.2188,
      "duration": 0.0932,
      "velocity": 120,
      "chip": "ym2612"
    },
    {
      "channel": 1,
      "note": 70,
      "start": 10.3119,
      "duration": 0.0931,
      "velocity": 95,
      "chip": "ym2612"
    },
    {
      "channel": 5,
      "note": 70,
      "start": 10.3122,
      "duration": 0.093,
      "velocity": 120,
      "chip": "ym2612"
    },
    {
      "channel": 3,
      "note": 64,
      "start": 10.3588,
      "duration": 0.2331,
      "velocity": 106,
      "chip": "ym2612"
    },
    {
      "channel": 4,
      "note": 58,
      "start": 10.3591,
      "duration": 0.2331,
      "velocity": 106,
      "chip": "ym2612"
    },
    {
      "channel": 5,
      "note": 71,
      "start": 10.4054,
      "duration": 0.0932,
      "velocity": 120,
      "chip": "ym2612"
    },
    {
      "channel": 1,
      "note": 70,
      "start": 10.4985,
      "duration": 0.0932,
      "velocity": 95,
      "chip": "ym2612"
    },
    {
      "channel": 5,
      "note": 70,
      "start": 10.4988,
      "duration": 0.0936,
      "velocity": 120,
      "chip": "ym2612"
    },
    {
      "channel": 3,
      "note": 64,
      "start": 10.5921,
      "duration": 0.0934,
      "velocity": 106,
      "chip": "ym2612"
    },
    {
      "channel": 4,
      "note": 58,
      "start": 10.5924,
      "duration": 0.0934,
      "velocity": 106,
      "chip": "ym2612"
    },
    {
      "channel": 5,
      "note": 71,
      "start": 10.5927,
      "duration": 0.0934,
      "velocity": 120,
      "chip": "ym2612"
    },
    {
      "channel": 1,
      "note": 70,
      "start": 10.6851,
      "duration": 0.0931,
      "velocity": 95,
      "chip": "ym2612"
    },
    {
      "channel": 2,
      "note": 22,
      "start": 10.6854,
      "duration": 0.5439,
      "velocity": 100,
      "chip": "ym2612"
    },
    {
      "channel": 3,
      "note": 67,
      "start": 10.6857,
      "duration": 0.2326,
      "velocity": 106,
      "chip": "ym2612"
    },
    {
      "channel": 4,
      "note": 64,
      "start": 10.686,
      "duration": 0.2327,
      "velocity": 106,
      "chip": "ym2612"
    },
    {
      "channel": 5,
      "note": 70,
      "start": 10.6863,
      "duration": 0.0922,
      "velocity": 120,
      "chip": "ym2612"
    },
    {
      "channel": 5,
      "note": 71,
      "start": 10.7787,
      "duration": 0.0932,
      "velocity": 120,
      "chip": "ym2612"
    },
    {
      "channel": 1,
      "note": 70,
      "start": 10.8717,
      "duration": 0.0931,
      "velocity": 95,
      "chip": "ym2612"
    },
    {
      "channel": 5,
      "note": 70,
      "start": 10.8721,
      "duration": 0.093,
      "velocity": 120,
      "chip": "ym2612"
    },
    {
      "channel": 3,
      "note": 67,
      "start": 10.9186,
      "duration": 0.2331,
      "velocity": 106,
      "chip": "ym2612"
    },
    {
      "channel": 4,
      "note": 64,
      "start": 10.9189,
      "duration": 0.2331,
      "velocity": 106,
      "chip": "ym2612"
    },
    {
      "channel": 5,
      "note": 71,
      "start": 10.9653,
      "duration": 0.0933,
      "velocity": 120,
      "chip": "ym2612"
    },
    {
      "channel": 1,
      "note": 70,
      "start": 11.0584,
      "duration": 0.0931,
      "velocity": 95,
      "chip": "ym2612"
    },
    {
      "channel": 5,
      "note": 70,
      "start": 11.0588,
      "duration": 0.0935,
      "velocity": 120,
      "chip": "ym2612"
    },
    {
      "channel": 3,
      "note": 67,
      "start": 11.152,
      "duration": 0.0934,
      "velocity": 106,
      "chip": "ym2612"
    },
    {
      "channel": 4,
      "note": 64,
      "start": 11.1522,
      "duration": 0.0934,
      "velocity": 106,
      "chip": "ym2612"
    },
    {
      "channel": 5,
      "note": 71,
      "start": 11.1525,
      "duration": 0.0934,
      "velocity": 120,
      "chip": "ym2612"
    },
    {
      "channel": 1,
      "note": 70,
      "start": 11.245,
      "duration": 0.0931,
      "velocity": 95,
      "chip": "ym2612"
    },
    {
      "channel": 2,
      "note": 22,
      "start": 11.2453,
      "duration": 0.3573,
      "velocity": 100,
      "chip": "ym2612"
    },
    {
      "channel": 3,
      "note": 64,
      "start": 11.2456,
      "duration": 0.2327,
      "velocity": 106,
      "chip": "ym2612"
    },
    {
      "channel": 4,
      "note": 58,
      "start": 11.2459,
      "duration": 0.2327,
      "velocity": 106,
      "chip": "ym2612"
    },
    {
      "channel": 5,
      "note": 70,
      "start": 11.2461,
      "duration": 0.0922,
      "velocity": 120,
      "chip": "ym2612"
    },
    {
      "channel": 5,
      "note": 71,
      "start": 11.3386,
      "duration": 0.0932,
      "velocity": 120,
      "chip": "ym2612"
    },
    {
      "channel": 1,
      "note": 70,
      "start": 11.4316,
      "duration": 0.0931,
      "velocity": 95,
      "chip": "ym2612"
    },
    {
      "channel": 5,
      "note": 70,
      "start": 11.432,
      "duration": 0.093,
      "velocity": 120,
      "chip": "ym2612"
    },
    {
      "channel": 3,
      "note": 64,
      "start": 11.4785,
      "duration": 0.1401,
      "velocity": 106,
      "chip": "ym2612"
    },
    {
      "channel": 4,
      "note": 58,
      "start": 11.4788,
      "duration": 0.1401,
      "velocity": 106,
      "chip": "ym2612"
    },
    {
      "channel": 5,
      "note": 71,
      "start": 11.5252,
      "duration": 0.094,
      "velocity": 120,
      "chip": "ym2612"
    },
    {
      "channel": 1,
      "note": 70,
      "start": 11.6182,
      "duration": 0.0931,
      "velocity": 95,
      "chip": "ym2612"
    },
    {
      "channel": 2,
      "note": 22,
      "start": 11.6185,
      "duration": 0.3573,
      "velocity": 100,
      "chip": "ym2612"
    },
    {
      "channel": 3,
      "note": 67,
      "start": 11.6188,
      "duration": 0.2327,
      "velocity": 106,
      "chip": "ym2612"
    },
    {
      "channel": 4,
      "note": 64,
      "start": 11.6191,
      "duration": 0.2327,
      "velocity": 106,
      "chip": "ym2612"
    },
    {
      "channel": 5,
      "note": 70,
      "start": 11.6194,
      "duration": 0.0922,
      "velocity": 120,
      "chip": "ym2612"
    },
    {
      "channel": 5,
      "note": 71,
      "start": 11.7118,
      "duration": 0.0932,
      "velocity": 120,
      "chip": "ym2612"
    },
    {
      "channel": 1,
      "note": 70,
      "start": 11.8049,
      "duration": 0.0931,
      "velocity": 95,
      "chip": "ym2612"
    },
    {
      "channel": 5,
      "note": 70,
      "start": 11.8052,
      "duration": 0.093,
      "velocity": 120,
      "chip": "ym2612"
    },
    {
      "channel": 3,
      "note": 67,
      "start": 11.8517,
      "duration": 0.1432,
      "velocity": 106,
      "chip": "ym2612"
    },
    {
      "channel": 4,
      "note": 64,
      "start": 11.852,
      "duration": 0.1432,
      "velocity": 106,
      "chip": "ym2612"
    },
    {
      "channel": 5,
      "note": 71,
      "start": 11.8984,
      "duration": 0.0971,
      "velocity": 120,
      "chip": "ym2612"
    },
    {
      "channel": 0,
      "note": 48,
      "start": 11.9914,
      "duration": 0.1398,
      "velocity": 102,
      "chip": "ym2612"
    },
    {
      "channel": 1,
      "note": 72,
      "start": 11.9932,
      "duration": 0.0914,
      "velocity": 95,
      "chip": "ym2612"
    },
    {
      "channel": 2,
      "note": 24,
      "start": 11.9949,
      "duration": 0.5409,
      "velocity": 100,
      "chip": "ym2612"
    },
    {
      "channel": 3,
      "note": 66,
      "start": 11.9952,
      "duration": 0.2295,
      "velocity": 106,
      "chip": "ym2612"
    },
    {
      "channel": 4,
      "note": 60,
      "start": 11.9955,
      "duration": 0.2296,
      "velocity": 106,
      "chip": "ym2612"
    },
    {
      "channel": 5,
      "note": 72,
      "start": 11.9958,
      "duration": 0.089,
      "velocity": 120,
      "chip": "ym2612"
    },
    {
      "channel": 5,
      "note": 73,
      "start": 12.085,
      "duration": 0.0935,
      "velocity": 120,
      "chip": "ym2612"
    },
    {
      "channel": 0,
      "note": 51,
      "start": 12.1781,
      "duration": 0.1398,
      "velocity": 102,
      "chip": "ym2612"
    },
    {
      "channel": 1,
      "note": 72,
      "start": 12.1783,
      "duration": 0.0929,
      "velocity": 95,
      "chip": "ym2612"
    },
    {
      "channel": 5,
      "note": 72,
      "start": 12.1787,
      "duration": 0.0927,
      "velocity": 120,
      "chip": "ym2612"
    },
    {
      "channel": 3,
      "note": 66,
      "start": 12.225,
      "duration": 0.2332,
      "velocity": 106,
      "chip": "ym2612"
    },
    {
      "channel": 4,
      "note": 60,
      "start": 12.2253,
      "duration": 0.2332,
      "velocity": 106,
      "chip": "ym2612"
    },
    {
      "channel": 5,
      "note": 73,
      "start": 12.2717,
      "duration": 0.0934,
      "velocity": 120,
      "chip": "ym2612"
    },
    {
      "channel": 0,
      "note": 54,
      "start": 12.3646,
      "duration": 0.1398,
      "velocity": 102,
      "chip": "ym2612"
    },
    {
      "channel": 1,
      "note": 72,
      "start": 12.3649,
      "duration": 0.0931,
      "velocity": 95,
      "chip": "ym2612"
    },
    {
      "channel": 5,
      "note": 72,
      "start": 12.3652,
      "duration": 0.0936,
      "velocity": 120,
      "chip": "ym2612"
    },
    {
      "channel": 3,
      "note": 66,
      "start": 12.4585,
      "duration": 0.0934,
      "velocity": 106,
      "chip": "ym2612"
    },
    {
      "channel": 4,
      "note": 60,
      "start": 12.4588,
      "duration": 0.0934,
      "velocity": 106,
      "chip": "ym2612"
    },
    {
      "channel": 5,
      "note": 73,
      "start": 12.459,
      "duration": 0.0934,
      "velocity": 120,
      "chip": "ym2612"
    },
    {
      "channel": 0,
      "note": 57,
      "start": 12.5512,
      "duration": 0.3419,
      "velocity": 102,
      "chip": "ym2612"
    },
    {
      "channel": 1,
      "note": 72,
      "start": 12.5515,
      "duration": 0.0929,
      "velocity": 95,
      "chip": "ym2612"
    },
    {
      "channel": 2,
      "note": 24,
      "start": 12.5518,
      "duration": 0.5594,
      "velocity": 100,
      "chip": "ym2612"
    },
    {
      "channel": 3,
      "note": 69,
      "start": 12.5521,
      "duration": 0.248,
      "velocity": 106,
      "chip": "ym2612"
    },
    {
      "channel": 4,
      "note": 66,
      "start": 12.5524,
      "duration": 0.248,
      "velocity": 106,
      "chip": "ym2612"
    },
    {
      "channel": 5,
      "note": 72,
      "start": 12.5527,
      "duration": 0.092,
      "velocity": 120,
      "chip": "ym2612"
    },
    {
      "channel": 5,
      "note": 73,
      "start": 12.6449,
      "duration": 0.0934,
      "velocity": 120,
      "chip": "ym2612"
    },
    {
      "channel": 1,
      "note": 72,
      "start": 12.7382,
      "duration": 0.1084,
      "velocity": 95,
      "chip": "ym2612"
    },
    {
      "channel": 5,
      "note": 72,
      "start": 12.7385,
      "duration": 0.1083,
      "velocity": 120,
      "chip": "ym2612"
    },
    {
      "channel": 3,
      "note": 69,
      "start": 12.8004,
      "duration": 0.2331,
      "velocity": 106,
      "chip": "ym2612"
    },
    {
      "channel": 4,
      "note": 66,
      "start": 12.8007,
      "duration": 0.2331,
      "velocity": 106,
      "chip": "ym2612"
    },
    {
      "channel": 5,
      "note": 73,
      "start": 12.8471,
      "duration": 0.0934,
      "velocity": 120,
      "chip": "ym2612"
    },
    {
      "channel": 0,
      "note": 48,
      "start": 12.94,
      "duration": 0.1398,
      "velocity": 102,
      "chip": "ym2612"
    },
    {
      "channel": 1,
      "note": 72,
      "start": 12.9403,
      "duration": 0.0929,
      "velocity": 95,
      "chip": "ym2612"
    },
    {
      "channel": 5,
      "note": 72,
      "start": 12.9407,
      "duration": 0.0934,
      "velocity": 120,
      "chip": "ym2612"
    },
    {
      "channel": 3,
      "note": 69,
      "start": 13.0337,
      "duration": 0.0936,
      "velocity": 106,
      "chip": "ym2612"
    },
    {
      "channel": 4,
      "note": 66,
      "start": 13.034,
      "duration": 0.0938,
      "velocity": 106,
      "chip": "ym2612"
    },
    {
      "channel": 5,
      "note": 73,
      "start": 13.0343,
      "duration": 0.0938,
      "velocity": 120,
      "chip": "ym2612"
    },
    {
      "channel": 0,
      "note": 51,
      "start": 13.1267,
      "duration": 0.1398,
      "velocity": 102,
      "chip": "ym2612"
    },
    {
      "channel": 1,
      "note": 72,
      "start": 13.1269,
      "duration": 0.093,
      "velocity": 95,
      "chip": "ym2612"
    },
    {
      "channel": 2,
      "note": 24,
      "start": 13.1273,
      "duration": 0.5438,
      "velocity": 100,
      "chip": "ym2612"
    },
    {
      "channel": 3,
      "note": 66,
      "start": 13.1278,
      "duration": 0.2322,
      "velocity": 106,
      "chip": "ym2612"
    },
    {
      "channel": 4,
      "note": 60,
      "start": 13.1281,
      "duration": 0.2323,
      "velocity": 106,
      "chip": "ym2612"
    },
    {
      "channel": 5,
      "note": 72,
      "start": 13.1283,
      "duration": 0.0918,
      "velocity": 120,
      "chip": "ym2612"
    },
    {
      "channel": 5,
      "note": 73,
      "start": 13.2203,
      "duration": 0.0934,
      "velocity": 120,
      "chip": "ym2612"
    },
    {
      "channel": 0,
      "note": 54,
      "start": 13.3133,
      "duration": 0.1398,
      "velocity": 102,
      "chip": "ym2612"
    },
    {
      "channel": 1,
      "note": 72,
      "start": 13.3135,
      "duration": 0.093,
      "velocity": 95,
      "chip": "ym2612"
    },
    {
      "channel": 5,
      "note": 72,
      "start": 13.3139,
      "duration": 0.0929,
      "velocity": 120,
      "chip": "ym2612"
    },
    {
      "channel": 3,
      "note": 66,
      "start": 13.3603,
      "duration": 0.2331,
      "velocity": 106,
      "chip": "ym2612"
    },
    {
      "channel": 4,
      "note": 60,
      "start": 13.3606,
      "duration": 0.2331,
      "velocity": 106,
      "chip": "ym2612"
    },
    {
      "channel": 5,
      "note": 73,
      "start": 13.4069,
      "duration": 0.0934,
      "velocity": 120,
      "chip": "ym2612"
    },
    {
      "channel": 0,
      "note": 57,
      "start": 13.4999,
      "duration": 0.1398,
      "velocity": 102,
      "chip": "ym2612"
    },
    {
      "channel": 1,
      "note": 72,
      "start": 13.5002,
      "duration": 0.093,
      "velocity": 95,
      "chip": "ym2612"
    },
    {
      "channel": 5,
      "note": 72,
      "start": 13.5005,
      "duration": 0.0934,
      "velocity": 120,
      "chip": "ym2612"
    },
    {
      "channel": 3,
      "note": 66,
      "start": 13.5936,
      "duration": 0.0936,
      "velocity": 106,
      "chip": "ym2612"
    },
    {
      "channel": 4,
      "note": 60,
      "start": 13.5939,
      "duration": 0.0936,
      "velocity": 106,
      "chip": "ym2612"
    },
    {
      "channel": 5,
      "note": 73,
      "start": 13.5941,
      "duration": 0.0939,
      "velocity": 120,
      "chip": "ym2612"
    },
    {
      "channel": 0,
      "note": 48,
      "start": 13.6865,
      "duration": 0.1398,
      "velocity": 102,
      "chip": "ym2612"
    },
    {
      "channel": 1,
      "note": 72,
      "start": 13.6868,
      "duration": 0.0929,
      "velocity": 95,
      "chip": "ym2612"
    },
    {
      "channel": 2,
      "note": 24,
      "start": 13.6871,
      "duration": 0.5438,
      "velocity": 100,
      "chip": "ym2612"
    },
    {
      "channel": 3,
      "note": 69,
      "start": 13.6874,
      "duration": 0.2325,
      "velocity": 106,
      "chip": "ym2612"
    },
    {
      "channel": 4,
      "note": 66,
      "start": 13.688,
      "duration": 0.2322,
      "velocity": 106,
      "chip": "ym2612"
    },
    {
      "channel": 5,
      "note": 72,
      "start": 13.6882,
      "duration": 0.0918,
      "velocity": 120,
      "chip": "ym2612"
    },
    {
      "channel": 5,
      "note": 73,
      "start": 13.7802,
      "duration": 0.0934,
      "velocity": 120,
      "chip": "ym2612"
    },
    {
      "channel": 0,
      "note": 51,
      "start": 13.8732,
      "duration": 0.1398,
      "velocity": 102,
      "chip": "ym2612"
    },
    {
      "channel": 1,
      "note": 72,
      "start": 13.8734,
      "duration": 0.093,
      "velocity": 95,
      "chip": "ym2612"
    },
    {
      "channel": 5,
      "note": 72,
      "start": 13.8738,
      "duration": 0.0929,
      "velocity": 120,
      "chip": "ym2612"
    },
    {
      "channel": 3,
      "note": 69,
      "start": 13.9202,
      "duration": 0.2331,
      "velocity": 106,
      "chip": "ym2612"
    },
    {
      "channel": 4,
      "note": 66,
      "start": 13.9205,
      "duration": 0.2331,
      "velocity": 106,
      "chip": "ym2612"
    },
    {
      "channel": 5,
      "note": 73,
      "start": 13.9668,
      "duration": 0.0934,
      "velocity": 120,
      "chip": "ym2612"
    },
    {
      "channel": 0,
      "note": 54,
      "start": 14.0598,
      "duration": 0.1398,
      "velocity": 102,
      "chip": "ym2612"
    },
    {
      "channel": 1,
      "note": 72,
      "start": 14.06,
      "duration": 0.093,
      "velocity": 95,
      "chip": "ym2612"
    },
    {
      "channel": 5,
      "note": 72,
      "start": 14.0604,
      "duration": 0.0934,
      "velocity": 120,
      "chip": "ym2612"
    },
    {
      "channel": 3,
      "note": 69,
      "start": 14.1535,
      "duration": 0.0936,
      "velocity": 106,
      "chip": "ym2612"
    },
    {
      "channel": 4,
      "note": 66,
      "start": 14.1538,
      "duration": 0.0936,
      "velocity": 106,
      "chip": "ym2612"
    },
    {
      "channel": 5,
      "note": 73,
      "start": 14.154,
      "duration": 0.0939,
      "velocity": 120,
      "chip": "ym2612"
    },
    {
      "channel": 0,
      "note": 57,
      "start": 14.2464,
      "duration": 0.1398,
      "velocity": 102,
      "chip": "ym2612"
    },
    {
      "channel": 1,
      "note": 72,
      "start": 14.2467,
      "duration": 0.0929,
      "velocity": 95,
      "chip": "ym2612"
    },
    {
      "channel": 2,
      "note": 24,
      "start": 14.247,
      "duration": 0.3572,
      "velocity": 100,
      "chip": "ym2612"
    },
    {
      "channel": 3,
      "note": 66,
      "start": 14.2473,
      "duration": 0.2325,
      "velocity": 106,
      "chip": "ym2612"
    },
    {
      "channel": 4,
      "note": 60,
      "start": 14.2478,
      "duration": 0.2322,
      "velocity": 106,
      "chip": "ym2612"
    },
    {
      "channel": 5,
      "note": 72,
      "start": 14.2481,
      "duration": 0.0918,
      "velocity": 120,
      "chip": "ym2612"
    },
    {
      "channel": 5,
      "note": 73,
      "start": 14.3401,
      "duration": 0.0934,
      "velocity": 120,
      "chip": "ym2612"
    },
    {
      "channel": 0,
      "note": 48,
      "start": 14.433,
      "duration": 0.1398,
      "velocity": 102,
      "chip": "ym2612"
    },
    {
      "channel": 1,
      "note": 72,
      "start": 14.4333,
      "duration": 0.0929,
      "velocity": 95,
      "chip": "ym2612"
    },
    {
      "channel": 5,
      "note": 72,
      "start": 14.4337,
      "duration": 0.0928,
      "velocity": 120,
      "chip": "ym2612"
    },
    {
      "channel": 3,
      "note": 66,
      "start": 14.48,
      "duration": 0.1402,
      "velocity": 106,
      "chip": "ym2612"
    },
    {
      "channel": 4,
      "note": 60,
      "start": 14.4803,
      "duration": 0.1402,
      "velocity": 106,
      "chip": "ym2612"
    },
    {
      "channel": 5,
      "note": 73,
      "start": 14.5267,
      "duration": 0.0942,
      "velocity": 120,
      "chip": "ym2612"
    },
    {
      "channel": 0,
      "note": 51,
      "start": 14.6197,
      "duration": 0.1398,
      "velocity": 102,
      "chip": "ym2612"
    },
    {
      "channel": 1,
      "note": 72,
      "start": 14.6199,
      "duration": 0.0929,
      "velocity": 95,
      "chip": "ym2612"
    },
    {
      "channel": 2,
      "note": 24,
      "start": 14.6202,
      "duration": 0.3572,
      "velocity": 100,
      "chip": "ym2612"
    },
    {
      "channel": 3,
      "note": 69,
      "start": 14.6205,
      "duration": 0.2325,
      "velocity": 106,
      "chip": "ym2612"
    },
    {
      "channel": 4,
      "note": 66,
      "start": 14.6208,
      "duration": 0.2325,
      "velocity": 106,
      "chip": "ym2612"
    },
    {
      "channel": 5,
      "note": 72,
      "start": 14.6211,
      "duration": 0.0921,
      "velocity": 120,
      "chip": "ym2612"
    },
    {
      "channel": 5,
      "note": 73,
      "start": 14.7133,
      "duration": 0.0934,
      "velocity": 120,
      "chip": "ym2612"
    },
    {
      "channel": 0,
      "note": 54,
      "start": 14.8063,
      "duration": 0.1398,
      "velocity": 102,
      "chip": "ym2612"
    },
    {
      "channel": 1,
      "note": 72,
      "start": 14.8065,
      "duration": 0.093,
      "velocity": 95,
      "chip": "ym2612"
    },
    {
      "channel": 5,
      "note": 72,
      "start": 14.8069,
      "duration": 0.0929,
      "velocity": 120,
      "chip": "ym2612"
    },
    {
      "channel": 3,
      "note": 69,
      "start": 14.8533,
      "duration": 0.1403,
      "velocity": 106,
      "chip": "ym2612"
    },
    {
      "channel": 4,
      "note": 66,
      "start": 14.8536,
      "duration": 0.1403,
      "velocity": 106,
      "chip": "ym2612"
    },
    {
      "channel": 5,
      "note": 73,
      "start": 14.8999,
      "duration": 0.0942,
      "velocity": 120,
      "chip": "ym2612"
    },
    {
      "channel": 0,
      "note": 57,
      "start": 14.9929,
      "duration": 2.9549,
      "velocity": 102,
      "chip": "ym2612"
    },
    {
      "channel": 1,
      "note": 72,
      "start": 14.9932,
      "duration": 0.093,
      "velocity": 95,
      "chip": "ym2612"
    },
    {
      "channel": 2,
      "note": 24,
      "start": 14.9935,
      "duration": 0.5438,
      "velocity": 100,
      "chip": "ym2612"
    },
    {
      "channel": 3,
      "note": 66,
      "start": 14.9938,
      "duration": 0.2325,
      "velocity": 106,
      "chip": "ym2612"
    },
    {
      "channel": 4,
      "note": 60,
      "start": 14.9941,
      "duration": 0.2325,
      "velocity": 106,
      "chip": "ym2612"
    },
    {
      "channel": 5,
      "note": 72,
      "start": 14.9944,
      "duration": 0.092,
      "velocity": 120,
      "chip": "ym2612"
    },
    {
      "channel": 5,
      "note": 73,
      "start": 15.0866,
      "duration": 0.0932,
      "velocity": 120,
      "chip": "ym2612"
    },
    {
      "channel": 1,
      "note": 72,
      "start": 15.1796,
      "duration": 0.0931,
      "velocity": 95,
      "chip": "ym2612"
    },
    {
      "channel": 5,
      "note": 72,
      "start": 15.18,
      "duration": 0.093,
      "velocity": 120,
      "chip": "ym2612"
    },
    {
      "channel": 3,
      "note": 66,
      "start": 15.2265,
      "duration": 0.2331,
      "velocity": 106,
      "chip": "ym2612"
    },
    {
      "channel": 4,
      "note": 60,
      "start": 15.2268,
      "duration": 0.2331,
      "velocity": 106,
      "chip": "ym2612"
    },
    {
      "channel": 5,
      "note": 73,
      "start": 15.2732,
      "duration": 0.0932,
      "velocity": 120,
      "chip": "ym2612"
    },
    {
      "channel": 1,
      "note": 72,
      "start": 15.3663,
      "duration": 0.0931,
      "velocity": 95,
      "chip": "ym2612"
    },
    {
      "channel": 5,
      "note": 72,
      "start": 15.3666,
      "duration": 0.0936,
      "velocity": 120,
      "chip": "ym2612"
    },
    {
      "channel": 3,
      "note": 66,
      "start": 15.4598,
      "duration": 0.0934,
      "velocity": 106,
      "chip": "ym2612"
    },
    {
      "channel": 4,
      "note": 60,
      "start": 15.4601,
      "duration": 0.0934,
      "velocity": 106,
      "chip": "ym2612"
    },
    {
      "channel": 5,
      "note": 73,
      "start": 15.4604,
      "duration": 0.0935,
      "velocity": 120,
      "chip": "ym2612"
    },
    {
      "channel": 1,
      "note": 72,
      "start": 15.5529,
      "duration": 0.0931,
      "velocity": 95,
      "chip": "ym2612"
    },
    {
      "channel": 2,
      "note": 24,
      "start": 15.5532,
      "duration": 0.5439,
      "velocity": 100,
      "chip": "ym2612"
    },
    {
      "channel": 3,
      "note": 69,
      "start": 15.5535,
      "duration": 0.2326,
      "velocity": 106,
      "chip": "ym2612"
    },
    {
      "channel": 4,
      "note": 66,
      "start": 15.5538,
      "duration": 0.2327,
      "velocity": 106,
      "chip": "ym2612"
    },
    {
      "channel": 5,
      "note": 72,
      "start": 15.5541,
      "duration": 0.0922,
      "velocity": 120,
      "chip": "ym2612"
    },
    {
      "channel": 5,
      "note": 73,
      "start": 15.6464,
      "duration": 0.0932,
      "velocity": 120,
      "chip": "ym2612"
    },
    {
      "channel": 1,
      "note": 72,
      "start": 15.7395,
      "duration": 0.0931,
      "velocity": 95,
      "chip": "ym2612"
    },
    {
      "channel": 5,
      "note": 72,
      "start": 15.7399,
      "duration": 0.093,
      "velocity": 120,
      "chip": "ym2612"
    },
    {
      "channel": 3,
      "note": 69,
      "start": 15.7864,
      "duration": 0.2331,
      "velocity": 106,
      "chip": "ym2612"
    },
    {
      "channel": 4,
      "note": 66,
      "start": 15.7867,
      "duration": 0.2331,
      "velocity": 106,
      "chip": "ym2612"
    },
    {
      "channel": 5,
      "note": 73,
      "start": 15.8331,
      "duration": 0.0932,
      "velocity": 120,
      "chip": "ym2612"
    },
    {
      "channel": 1,
      "note": 72,
      "start": 15.9261,
      "duration": 0.0931,
      "velocity": 95,
      "chip": "ym2612"
    },
    {
      "channel": 5,
      "note": 72,
      "start": 15.9265,
      "duration": 0.0936,
      "velocity": 120,
      "chip": "ym2612"
    },
    {
      "channel": 3,
      "note": 69,
      "start": 16.0197,
      "duration": 0.0934,
      "velocity": 106,
      "chip": "ym2612"
    },
    {
      "channel": 4,
      "note": 66,
      "start": 16.02,
      "duration": 0.0934,
      "velocity": 106,
      "chip": "ym2612"
    },
    {
      "channel": 5,
      "note": 73,
      "start": 16.0203,
      "duration": 0.0934,
      "velocity": 120,
      "chip": "ym2612"
    },
    {
      "channel": 1,
      "note": 72,
      "start": 16.1128,
      "duration": 0.0931,
      "velocity": 95,
      "chip": "ym2612"
    },
    {
      "channel": 2,
      "note": 24,
      "start": 16.1131,
      "duration": 0.5439,
      "velocity": 100,
      "chip": "ym2612"
    },
    {
      "channel": 3,
      "note": 66,
      "start": 16.1134,
      "duration": 0.2327,
      "velocity": 106,
      "chip": "ym2612"
    },
    {
      "channel": 4,
      "note": 60,
      "start": 16.1137,
      "duration": 0.2327,
      "velocity": 106,
      "chip": "ym2612"
    },
    {
      "channel": 5,
      "note": 72,
      "start": 16.1139,
      "duration": 0.0922,
      "velocity": 120,
      "chip": "ym2612"
    },
    {
      "channel": 5,
      "note": 73,
      "start": 16.2063,
      "duration": 0.0932,
      "velocity": 120,
      "chip": "ym2612"
    },
    {
      "channel": 1,
      "note": 72,
      "start": 16.2994,
      "duration": 0.0931,
      "velocity": 95,
      "chip": "ym2612"
    },
    {
      "channel": 5,
      "note": 72,
      "start": 16.2997,
      "duration": 0.093,
      "velocity": 120,
      "chip": "ym2612"
    },
    {
      "channel": 3,
      "note": 66,
      "start": 16.3463,
      "duration": 0.2331,
      "velocity": 106,
      "chip": "ym2612"
    },
    {
      "channel": 4,
      "note": 60,
      "start": 16.3466,
      "duration": 0.2331,
      "velocity": 106,
      "chip": "ym2612"
    },
    {
      "channel": 5,
      "note": 73,
      "start": 16.3929,
      "duration": 0.0932,
      "velocity": 120,
      "chip": "ym2612"
    },
    {
      "channel": 1,
      "note": 72,
      "start": 16.486,
      "duration": 0.0931,
      "velocity": 95,
      "chip": "ym2612"
    },
    {
      "channel": 5,
      "note": 72,
      "start": 16.4864,
      "duration": 0.0936,
      "velocity": 120,
      "chip": "ym2612"
    },
    {
      "channel": 3,
      "note": 66,
      "start": 16.5796,
      "duration": 0.109,
      "velocity": 106,
      "chip": "ym2612"
    },
    {
      "channel": 4,
      "note": 60,
      "start": 16.5799,
      "duration": 0.109,
      "velocity": 106,
      "chip": "ym2612"
    },
    {
      "channel": 5,
      "note": 73,
      "start": 16.5801,
      "duration": 0.109,
      "velocity": 120,
      "chip": "ym2612"
    },
    {
      "channel": 1,
      "note": 72,
      "start": 16.6882,
      "duration": 0.0931,
      "velocity": 95,
      "chip": "ym2612"
    },
    {
      "channel": 2,
      "note": 24,
      "start": 16.6885,
      "duration": 0.5439,
      "velocity": 100,
      "chip": "ym2612"
    },
    {
      "channel": 3,
      "note": 69,
      "start": 16.6888,
      "duration": 0.2326,
      "velocity": 106,
      "chip": "ym2612"
    },
    {
      "channel": 4,
      "note": 66,
      "start": 16.6891,
      "duration": 0.2326,
      "velocity": 106,
      "chip": "ym2612"
    },
    {
      "channel": 5,
      "note": 72,
      "start": 16.6894,
      "duration": 0.0922,
      "velocity": 120,
      "chip": "ym2612"
    },
    {
      "channel": 5,
      "note": 73,
      "start": 16.7817,
      "duration": 0.0932,
      "velocity": 120,
      "chip": "ym2612"
    },
    {
      "channel": 1,
      "note": 72,
      "start": 16.8748,
      "duration": 0.0932,
      "velocity": 95,
      "chip": "ym2612"
    },
    {
      "channel": 5,
      "note": 72,
      "start": 16.8752,
      "duration": 0.0931,
      "velocity": 120,
      "chip": "ym2612"
    },
    {
      "channel": 3,
      "note": 69,
      "start": 16.9217,
      "duration": 0.2331,
      "velocity": 106,
      "chip": "ym2612"
    },
    {
      "channel": 4,
      "note": 66,
      "start": 16.922,
      "duration": 0.2331,
      "velocity": 106,
      "chip": "ym2612"
    },
    {
      "channel": 5,
      "note": 73,
      "start": 16.9684,
      "duration": 0.0932,
      "velocity": 120,
      "chip": "ym2612"
    },
    {
      "channel": 1,
      "note": 72,
      "start": 17.0614,
      "duration": 0.0931,
      "velocity": 95,
      "chip": "ym2612"
    },
    {
      "channel": 5,
      "note": 72,
      "start": 17.0618,
      "duration": 0.0936,
      "velocity": 120,
      "chip": "ym2612"
    },
    {
      "channel": 3,
      "note": 69,
      "start": 17.155,
      "duration": 0.0936,
      "velocity": 106,
      "chip": "ym2612"
    },
    {
      "channel": 4,
      "note": 66,
      "start": 17.1553,
      "duration": 0.0936,
      "velocity": 106,
      "chip": "ym2612"
    },
    {
      "channel": 5,
      "note": 73,
      "start": 17.1556,
      "duration": 0.0936,
      "velocity": 120,
      "chip": "ym2612"
    },
    {
      "channel": 1,
      "note": 72,
      "start": 17.2482,
      "duration": 0.0929,
      "velocity": 95,
      "chip": "ym2612"
    },
    {
      "channel": 2,
      "note": 24,
      "start": 17.2485,
      "duration": 0.3572,
      "velocity": 100,
      "chip": "ym2612"
    },
    {
      "channel": 3,
      "note": 66,
      "start": 17.2488,
      "duration": 0.2325,
      "velocity": 106,
      "chip": "ym2612"
    },
    {
      "channel": 4,
      "note": 60,
      "start": 17.2491,
      "duration": 0.2325,
      "velocity": 106,
      "chip": "ym2612"
    },
    {
      "channel": 5,
      "note": 72,
      "start": 17.2494,
      "duration": 0.092,
      "velocity": 120,
      "chip": "ym2612"
    },
    {
      "channel": 5,
      "note": 73,
      "start": 17.3417,
      "duration": 0.0932,
      "velocity": 120,
      "chip": "ym2612"
    },
    {
      "channel": 1,
      "note": 72,
      "start": 17.4347,
      "duration": 0.0933,
      "velocity": 95,
      "chip": "ym2612"
    },
    {
      "channel": 5,
      "note": 72,
      "start": 17.435,
      "duration": 0.0932,
      "velocity": 120,
      "chip": "ym2612"
    },
    {
      "channel": 3,
      "note": 66,
      "start": 17.4816,
      "duration": 0.1401,
      "velocity": 106,
      "chip": "ym2612"
    },
    {
      "channel": 4,
      "note": 60,
      "start": 17.4819,
      "duration": 0.1401,
      "velocity": 106,
      "chip": "ym2612"
    },
    {
      "channel": 5,
      "note": 73,
      "start": 17.5284,
      "duration": 0.0938,
      "velocity": 120,
      "chip": "ym2612"
    },
    {
      "channel": 1,
      "note": 72,
      "start": 17.6213,
      "duration": 0.0931,
      "velocity": 95,
      "chip": "ym2612"
    },
    {
      "channel": 2,
      "note": 24,
      "start": 17.6216,
      "duration": 0.3573,
      "velocity": 100,
      "chip": "ym2612"
    },
    {
      "channel": 3,
      "note": 69,
      "start": 17.6219,
      "duration": 0.2327,
      "velocity": 106,
      "chip": "ym2612"
    },
    {
      "channel": 4,
      "note": 66,
      "start": 17.6222,
      "duration": 0.2327,
      "velocity": 106,
      "chip": "ym2612"
    },
    {
      "channel": 5,
      "note": 72,
      "start": 17.6224,
      "duration": 0.0922,
      "velocity": 120,
      "chip": "ym2612"
    },
    {
      "channel": 5,
      "note": 73,
      "start": 17.7149,
      "duration": 0.0935,
      "velocity": 120,
      "chip": "ym2612"
    },
    {
      "channel": 1,
      "note": 72,
      "start": 17.8082,
      "duration": 0.0928,
      "velocity": 95,
      "chip": "ym2612"
    },
    {
      "channel": 5,
      "note": 72,
      "start": 17.8086,
      "duration": 0.0927,
      "velocity": 120,
      "chip": "ym2612"
    },
    {
      "channel": 3,
      "note": 69,
      "start": 17.8548,
      "duration": 0.1434,
      "velocity": 106,
      "chip": "ym2612"
    },
    {
      "channel": 4,
      "note": 66,
      "start": 17.8551,
      "duration": 0.1434,
      "velocity": 106,
      "chip": "ym2612"
    },
    {
      "channel": 5,
      "note": 73,
      "start": 17.9015,
      "duration": 0.0973,
      "velocity": 120,
      "chip": "ym2612"
    },
    {
      "channel": 0,
      "note": 48,
      "start": 17.9944,
      "duration": 0.1398,
      "velocity": 102,
      "chip": "ym2612"
    },
    {
      "channel": 1,
      "note": 72,
      "start": 17.9962,
      "duration": 0.0917,
      "velocity": 95,
      "chip": "ym2612"
    },
    {
      "channel": 2,
      "note": 24,
      "start": 17.9981,
      "duration": 0.5407,
      "velocity": 100,
      "chip": "ym2612"
    },
    {
      "channel": 3,
      "note": 66,
      "start": 17.9984,
      "duration": 0.2296,
      "velocity": 106,
      "chip": "ym2612"
    },
    {
      "channel": 4,
      "note": 60,
      "start": 17.9988,
      "duration": 0.2296,
      "velocity": 106,
      "chip": "ym2612"
    },
    {
      "channel": 5,
      "note": 72,
      "start": 17.999,
      "duration": 0.0891,
      "velocity": 120,
      "chip": "ym2612"
    },
    {
      "channel": 5,
      "note": 73,
      "start": 18.0883,
      "duration": 0.0931,
      "velocity": 120,
      "chip": "ym2612"
    },
    {
      "channel": 0,
      "note": 51,
      "start": 18.1811,
      "duration": 0.1398,
      "velocity": 102,
      "chip": "ym2612"
    },
    {
      "channel": 1,
      "note": 72,
      "start": 18.1813,
      "duration": 0.093,
      "velocity": 95,
      "chip": "ym2612"
    },
    {
      "channel": 5,
      "note": 72,
      "start": 18.1817,
      "duration": 0.0929,
      "velocity": 120,
      "chip": "ym2612"
    },
    {
      "channel": 3,
      "note": 66,
      "start": 18.2283,
      "duration": 0.2328,
      "velocity": 106,
      "chip": "ym2612"
    },
    {
      "channel": 4,
      "note": 60,
      "start": 18.2286,
      "duration": 0.2328,
      "velocity": 106,
      "chip": "ym2612"
    },
    {
      "channel": 5,
      "note": 73,
      "start": 18.2747,
      "duration": 0.0936,
      "velocity": 120,
      "chip": "ym2612"
    },
    {
      "channel": 0,
      "note": 54,
      "start": 18.3679,
      "duration": 0.1395,
      "velocity": 102,
      "chip": "ym2612"
    },
    {
      "channel": 1,
      "note": 72,
      "start": 18.3682,
      "duration": 0.0927,
      "velocity": 95,
      "chip": "ym2612"
    },
    {
      "channel": 5,
      "note": 72,
      "start": 18.3685,
      "duration": 0.0932,
      "velocity": 120,
      "chip": "ym2612"
    },
    {
      "channel": 3,
      "note": 66,
      "start": 18.4614,
      "duration": 0.0936,
      "velocity": 106,
      "chip": "ym2612"
    },
    {
      "channel": 4,
      "note": 60,
      "start": 18.4617,
      "duration": 0.0936,
      "velocity": 106,
      "chip": "ym2612"
    },
    {
      "channel": 5,
      "note": 73,
      "start": 18.4619,
      "duration": 0.0936,
      "velocity": 120,
      "chip": "ym2612"
    },
    {
      "channel": 0,
      "note": 57,
      "start": 18.5543,
      "duration": 0.3264,
      "velocity": 102,
      "chip": "ym2612"
    },
    {
      "channel": 1,
      "note": 72,
      "start": 18.5546,
      "duration": 0.0929,
      "velocity": 95,
      "chip": "ym2612"
    },
    {
      "channel": 2,
      "note": 24,
      "start": 18.5549,
      "duration": 0.5438,
      "velocity": 100,
      "chip": "ym2612"
    },
    {
      "channel": 3,
      "note": 69,
      "start": 18.5552,
      "duration": 0.2327,
      "velocity": 106,
      "chip": "ym2612"
    },
    {
      "channel": 4,
      "note": 66,
      "start": 18.5555,
      "duration": 0.2328,
      "velocity": 106,
      "chip": "ym2612"
    },
    {
      "channel": 5,
      "note": 72,
      "start": 18.5557,
      "duration": 0.0923,
      "velocity": 120,
      "chip": "ym2612"
    },
    {
      "channel": 5,
      "note": 73,
      "start": 18.6482,
      "duration": 0.093,
      "velocity": 120,
      "chip": "ym2612"
    },
    {
      "channel": 1,
      "note": 72,
      "start": 18.741,
      "duration": 0.0931,
      "velocity": 95,
      "chip": "ym2612"
    },
    {
      "channel": 5,
      "note": 72,
      "start": 18.7414,
      "duration": 0.093,
      "velocity": 120,
      "chip": "ym2612"
    },
    {
      "channel": 3,
      "note": 69,
      "start": 18.7882,
      "duration": 0.2328,
      "velocity": 106,
      "chip": "ym2612"
    },
    {
      "channel": 4,
      "note": 66,
      "start": 18.7885,
      "duration": 0.2328,
      "velocity": 106,
      "chip": "ym2612"
    },
    {
      "channel": 5,
      "note": 73,
      "start": 18.8346,
      "duration": 0.0936,
      "velocity": 120,
      "chip": "ym2612"
    },
    {
      "channel": 0,
      "note": 48,
      "start": 18.9278,
      "duration": 0.1395,
      "velocity": 102,
      "chip": "ym2612"
    },
    {
      "channel": 1,
      "note": 72,
      "start": 18.928,
      "duration": 0.0927,
      "velocity": 95,
      "chip": "ym2612"
    },
    {
      "channel": 5,
      "note": 72,
      "start": 18.9284,
      "duration": 0.0932,
      "velocity": 120,
      "chip": "ym2612"
    },
    {
      "channel": 3,
      "note": 69,
      "start": 19.0212,
      "duration": 0.0936,
      "velocity": 106,
      "chip": "ym2612"
    },
    {
      "channel": 4,
      "note": 66,
      "start": 19.0215,
      "duration": 0.0936,
      "velocity": 106,
      "chip": "ym2612"
    },
    {
      "channel": 5,
      "note": 73,
      "start": 19.0218,
      "duration": 0.0936,
      "velocity": 120,
      "chip": "ym2612"
    },
    {
      "channel": 0,
      "note": 51,
      "start": 19.1142,
      "duration": 0.1398,
      "velocity": 102,
      "chip": "ym2612"
    },
    {
      "channel": 1,
      "note": 72,
      "start": 19.1144,
      "duration": 0.0929,
      "velocity": 95,
      "chip": "ym2612"
    },
    {
      "channel": 2,
      "note": 24,
      "start": 19.1148,
      "duration": 0.5438,
      "velocity": 100,
      "chip": "ym2612"
    },
    {
      "channel": 3,
      "note": 66,
      "start": 19.1151,
      "duration": 0.2328,
      "velocity": 106,
      "chip": "ym2612"
    },
    {
      "channel": 4,
      "note": 60,
      "start": 19.1154,
      "duration": 0.2328,
      "velocity": 106,
      "chip": "ym2612"
    },
    {
      "channel": 5,
      "note": 72,
      "start": 19.1156,
      "duration": 0.0923,
      "velocity": 120,
      "chip": "ym2612"
    },
    {
      "channel": 5,
      "note": 73,
      "start": 19.2081,
      "duration": 0.0931,
      "velocity": 120,
      "chip": "ym2612"
    },
    {
      "channel": 0,
      "note": 54,
      "start": 19.3008,
      "duration": 0.1398,
      "velocity": 102,
      "chip": "ym2612"
    },
    {
      "channel": 1,
      "note": 72,
      "start": 19.3011,
      "duration": 0.0929,
      "velocity": 95,
      "chip": "ym2612"
    },
    {
      "channel": 5,
      "note": 72,
      "start": 19.3014,
      "duration": 0.0928,
      "velocity": 120,
      "chip": "ym2612"
    },
    {
      "channel": 3,
      "note": 66,
      "start": 19.3481,
      "duration": 0.2328,
      "velocity": 106,
      "chip": "ym2612"
    },
    {
      "channel": 4,
      "note": 60,
      "start": 19.3484,
      "duration": 0.2328,
      "velocity": 106,
      "chip": "ym2612"
    },
    {
      "channel": 5,
      "note": 73,
      "start": 19.3945,
      "duration": 0.0936,
      "velocity": 120,
      "chip": "ym2612"
    },
    {
      "channel": 0,
      "note": 57,
      "start": 19.4874,
      "duration": 0.1398,
      "velocity": 102,
      "chip": "ym2612"
    },
    {
      "channel": 1,
      "note": 72,
      "start": 19.4879,
      "duration": 0.0927,
      "velocity": 95,
      "chip": "ym2612"
    },
    {
      "channel": 5,
      "note": 72,
      "start": 19.4883,
      "duration": 0.0932,
      "velocity": 120,
      "chip": "ym2612"
    },
    {
      "channel": 3,
      "note": 66,
      "start": 19.5811,
      "duration": 0.0936,
      "velocity": 106,
      "chip": "ym2612"
    },
    {
      "channel": 4,
      "note": 60,
      "start": 19.5814,
      "duration": 0.0936,
      "velocity": 106,
      "chip": "ym2612"
    },
    {
      "channel": 5,
      "note": 73,
      "start": 19.5817,
      "duration": 0.0936,
      "velocity": 120,
      "chip": "ym2612"
    },
    {
      "channel": 0,
      "note": 48,
      "start": 19.6741,
      "duration": 0.1398,
      "velocity": 102,
      "chip": "ym2612"
    },
    {
      "channel": 1,
      "note": 72,
      "start": 19.6743,
      "duration": 0.093,
      "velocity": 95,
      "chip": "ym2612"
    },
    {
      "channel": 2,
      "note": 24,
      "start": 19.6746,
      "duration": 0.5438,
      "velocity": 100,
      "chip": "ym2612"
    },
    {
      "channel": 3,
      "note": 69,
      "start": 19.6749,
      "duration": 0.2325,
      "velocity": 106,
      "chip": "ym2612"
    },
    {
      "channel": 4,
      "note": 66,
      "start": 19.6752,
      "duration": 0.2328,
      "velocity": 106,
      "chip": "ym2612"
    },
    {
      "channel": 5,
      "note": 72,
      "start": 19.6755,
      "duration": 0.0921,
      "velocity": 120,
      "chip": "ym2612"
    },
    {
      "channel": 5,
      "note": 73,
      "start": 19.768,
      "duration": 0.0931,
      "velocity": 120,
      "chip": "ym2612"
    },
    {
      "channel": 0,
      "note": 51,
      "start": 19.8607,
      "duration": 0.1398,
      "velocity": 102,
      "chip": "ym2612"
    },
    {
      "channel": 1,
      "note": 72,
      "start": 19.8609,
      "duration": 0.093,
      "velocity": 95,
      "chip": "ym2612"
    },
    {
      "channel": 5,
      "note": 72,
      "start": 19.8613,
      "duration": 0.0929,
      "velocity": 120,
      "chip": "ym2612"
    },
    {
      "channel": 3,
      "note": 69,
      "start": 19.9079,
      "duration": 0.2328,
      "velocity": 106,
      "chip": "ym2612"
    },
    {
      "channel": 4,
      "note": 66,
      "start": 19.9083,
      "duration": 0.2328,
      "velocity": 106,
      "chip": "ym2612"
    },
    {
      "channel": 5,
      "note": 73,
      "start": 19.9543,
      "duration": 0.0936,
      "velocity": 120,
      "chip": "ym2612"
    },
    {
      "channel": 0,
      "note": 54,
      "start": 20.0473,
      "duration": 0.1398,
      "velocity": 102,
      "chip": "ym2612"
    },
    {
      "channel": 1,
      "note": 72,
      "start": 20.0478,
      "duration": 0.0927,
      "velocity": 95,
      "chip": "ym2612"
    },
    {
      "channel": 5,
      "note": 72,
      "start": 20.0482,
      "duration": 0.0932,
      "velocity": 120,
      "chip": "ym2612"
    },
    {
      "channel": 3,
      "note": 69,
      "start": 20.141,
      "duration": 0.0936,
      "velocity": 106,
      "chip": "ym2612"
    },
    {
      "channel": 4,
      "note": 66,
      "start": 20.1413,
      "duration": 0.0936,
      "velocity": 106,
      "chip": "ym2612"
    },
    {
      "channel": 5,
      "note": 73,
      "start": 20.1416,
      "duration": 0.0936,
      "velocity": 120,
      "chip": "ym2612"
    },
    {
      "channel": 0,
      "note": 57,
      "start": 20.2339,
      "duration": 0.1398,
      "velocity": 102,
      "chip": "ym2612"
    },
    {
      "channel": 1,
      "note": 72,
      "start": 20.2342,
      "duration": 0.0929,
      "velocity": 95,
      "chip": "ym2612"
    },
    {
      "channel": 2,
      "note": 24,
      "start": 20.2345,
      "duration": 0.3727,
      "velocity": 100,
      "chip": "ym2612"
    },
    {
      "channel": 3,
      "note": 66,
      "start": 20.2348,
      "duration": 0.2325,
      "velocity": 106,
      "chip": "ym2612"
    },
    {
      "channel": 4,
      "note": 60,
      "start": 20.2351,
      "duration": 0.2327,
      "velocity": 106,
      "chip": "ym2612"
    },
    {
      "channel": 5,
      "note": 72,
      "start": 20.2354,
      "duration": 0.092,
      "velocity": 120,
      "chip": "ym2612"
    },
    {
      "channel": 5,
      "note": 73,
      "start": 20.3278,
      "duration": 0.0931,
      "velocity": 120,
      "chip": "ym2612"
    },
    {
      "channel": 0,
      "note": 48,
      "start": 20.4205,
      "duration": 0.1398,
      "velocity": 102,
      "chip": "ym2612"
    },
    {
      "channel": 1,
      "note": 72,
      "start": 20.4208,
      "duration": 0.093,
      "velocity": 95,
      "chip": "ym2612"
    },
    {
      "channel": 5,
      "note": 72,
      "start": 20.4212,
      "duration": 0.0929,
      "velocity": 120,
      "chip": "ym2612"
    },
    {
      "channel": 3,
      "note": 66,
      "start": 20.4678,
      "duration": 0.1556,
      "velocity": 106,
      "chip": "ym2612"
    },
    {
      "channel": 4,
      "note": 60,
      "start": 20.4681,
      "duration": 0.1556,
      "velocity": 106,
      "chip": "ym2612"
    },
    {
      "channel": 5,
      "note": 73,
      "start": 20.5142,
      "duration": 0.1097,
      "velocity": 120,
      "chip": "ym2612"
    },
    {
      "channel": 0,
      "note": 51,
      "start": 20.6227,
      "duration": 0.1398,
      "velocity": 102,
      "chip": "ym2612"
    },
    {
      "channel": 1,
      "note": 72,
      "start": 20.623,
      "duration": 0.093,
      "velocity": 95,
      "chip": "ym2612"
    },
    {
      "channel": 2,
      "note": 24,
      "start": 20.6233,
      "duration": 0.3572,
      "velocity": 100,
      "chip": "ym2612"
    },
    {
      "channel": 3,
      "note": 69,
      "start": 20.6236,
      "duration": 0.2325,
      "velocity": 106,
      "chip": "ym2612"
    },
    {
      "channel": 4,
      "note": 66,
      "start": 20.6239,
      "duration": 0.2325,
      "velocity": 106,
      "chip": "ym2612"
    },
    {
      "channel": 5,
      "note": 72,
      "start": 20.6241,
      "duration": 0.0921,
      "velocity": 120,
      "chip": "ym2612"
    },
    {
      "channel": 5,
      "note": 73,
      "start": 20.7164,
      "duration": 0.0934,
      "velocity": 120,
      "chip": "ym2612"
    },
    {
      "channel": 0,
      "note": 54,
      "start": 20.8093,
      "duration": 0.1398,
      "velocity": 102,
      "chip": "ym2612"
    },
    {
      "channel": 1,
      "note": 72,
      "start": 20.8096,
      "duration": 0.093,
      "velocity": 95,
      "chip": "ym2612"
    },
    {
      "channel": 5,
      "note": 72,
      "start": 20.81,
      "duration": 0.0929,
      "velocity": 120,
      "chip": "ym2612"
    },
    {
      "channel": 3,
      "note": 69,
      "start": 20.8563,
      "duration": 0.1403,
      "velocity": 106,
      "chip": "ym2612"
    },
    {
      "channel": 4,
      "note": 66,
      "start": 20.8566,
      "duration": 0.1403,
      "velocity": 106,
      "chip": "ym2612"
    },
    {
      "channel": 5,
      "note": 73,
      "start": 20.903,
      "duration": 0.0942,
      "velocity": 120,
      "chip": "ym2612"
    },
    {
      "channel": 0,
      "note": 57,
      "start": 20.996,
      "duration": 2.9391,
      "velocity": 102,
      "chip": "ym2612"
    },
    {
      "channel": 1,
      "note": 72,
      "start": 20.9962,
      "duration": 0.0929,
      "velocity": 95,
      "chip": "ym2612"
    },
    {
      "channel": 2,
      "note": 24,
      "start": 20.9966,
      "duration": 0.5438,
      "velocity": 100,
      "chip": "ym2612"
    },
    {
      "channel": 3,
      "note": 66,
      "start": 20.9969,
      "duration": 0.2325,
      "velocity": 106,
      "chip": "ym2612"
    },
    {
      "channel": 4,
      "note": 60,
      "start": 20.9972,
      "duration": 0.2325,
      "velocity": 106,
      "chip": "ym2612"
    },
    {
      "channel": 5,
      "note": 72,
      "start": 20.9974,
      "duration": 0.092,
      "velocity": 120,
      "chip": "ym2612"
    },
    {
      "channel": 5,
      "note": 73,
      "start": 21.0896,
      "duration": 0.0932,
      "velocity": 120,
      "chip": "ym2612"
    },
    {
      "channel": 1,
      "note": 72,
      "start": 21.1827,
      "duration": 0.0931,
      "velocity": 95,
      "chip": "ym2612"
    },
    {
      "channel": 5,
      "note": 72,
      "start": 21.1831,
      "duration": 0.093,
      "velocity": 120,
      "chip": "ym2612"
    },
    {
      "channel": 3,
      "note": 66,
      "start": 21.2296,
      "duration": 0.2331,
      "velocity": 106,
      "chip": "ym2612"
    },
    {
      "channel": 4,
      "note": 60,
      "start": 21.2299,
      "duration": 0.2331,
      "velocity": 106,
      "chip": "ym2612"
    },
    {
      "channel": 5,
      "note": 73,
      "start": 21.2763,
      "duration": 0.0932,
      "velocity": 120,
      "chip": "ym2612"
    },
    {
      "channel": 1,
      "note": 72,
      "start": 21.3693,
      "duration": 0.0931,
      "velocity": 95,
      "chip": "ym2612"
    },
    {
      "channel": 5,
      "note": 72,
      "start": 21.3697,
      "duration": 0.0936,
      "velocity": 120,
      "chip": "ym2612"
    },
    {
      "channel": 3,
      "note": 66,
      "start": 21.4629,
      "duration": 0.0934,
      "velocity": 106,
      "chip": "ym2612"
    },
    {
      "channel": 4,
      "note": 60,
      "start": 21.4632,
      "duration": 0.0934,
      "velocity": 106,
      "chip": "ym2612"
    },
    {
      "channel": 5,
      "note": 73,
      "start": 21.4635,
      "duration": 0.0934,
      "velocity": 120,
      "chip": "ym2612"
    },
    {
      "channel": 1,
      "note": 72,
      "start": 21.556,
      "duration": 0.0931,
      "velocity": 95,
      "chip": "ym2612"
    },
    {
      "channel": 2,
      "note": 24,
      "start": 21.5563,
      "duration": 0.5439,
      "velocity": 100,
      "chip": "ym2612"
    },
    {
      "channel": 3,
      "note": 69,
      "start": 21.5566,
      "duration": 0.2327,
      "velocity": 106,
      "chip": "ym2612"
    },
    {
      "channel": 4,
      "note": 66,
      "start": 21.5569,
      "duration": 0.2327,
      "velocity": 106,
      "chip": "ym2612"
    },
    {
      "channel": 5,
      "note": 72,
      "start": 21.5571,
      "duration": 0.0922,
      "velocity": 120,
      "chip": "ym2612"
    },
    {
      "channel": 5,
      "note": 73,
      "start": 21.6495,
      "duration": 0.0932,
      "velocity": 120,
      "chip": "ym2612"
    },
    {
      "channel": 1,
      "note": 72,
      "start": 21.7426,
      "duration": 0.0931,
      "velocity": 95,
      "chip": "ym2612"
    },
    {
      "channel": 5,
      "note": 72,
      "start": 21.7429,
      "duration": 0.093,
      "velocity": 120,
      "chip": "ym2612"
    },
    {
      "channel": 3,
      "note": 69,
      "start": 21.7895,
      "duration": 0.2331,
      "velocity": 106,
      "chip": "ym2612"
    },
    {
      "channel": 4,
      "note": 66,
      "start": 21.7898,
      "duration": 0.2331,
      "velocity": 106,
      "chip": "ym2612"
    },
    {
      "channel": 5,
      "note": 73,
      "start": 21.8361,
      "duration": 0.0932,
      "velocity": 120,
      "chip": "ym2612"
    },
    {
      "channel": 1,
      "note": 72,
      "start": 21.9292,
      "duration": 0.0931,
      "velocity": 95,
      "chip": "ym2612"
    },
    {
      "channel": 5,
      "note": 72,
      "start": 21.9296,
      "duration": 0.0936,
      "velocity": 120,
      "chip": "ym2612"
    },
    {
      "channel": 3,
      "note": 69,
      "start": 22.0228,
      "duration": 0.0934,
      "velocity": 106,
      "chip": "ym2612"
    },
    {
      "channel": 4,
      "note": 66,
      "start": 22.0231,
      "duration": 0.0934,
      "velocity": 106,
      "chip": "ym2612"
    },
    {
      "channel": 5,
      "note": 73,
      "start": 22.0233,
      "duration": 0.0934,
      "velocity": 120,
      "chip": "ym2612"
    },
    {
      "channel": 1,
      "note": 72,
      "start": 22.1158,
      "duration": 0.0931,
      "velocity": 95,
      "chip": "ym2612"
    },
    {
      "channel": 2,
      "note": 24,
      "start": 22.1162,
      "duration": 0.5439,
      "velocity": 100,
      "chip": "ym2612"
    },
    {
      "channel": 3,
      "note": 66,
      "start": 22.1164,
      "duration": 0.2327,
      "velocity": 106,
      "chip": "ym2612"
    },
    {
      "channel": 4,
      "note": 60,
      "start": 22.1167,
      "duration": 0.2327,
      "velocity": 106,
      "chip": "ym2612"
    },
    {
      "channel": 5,
      "note": 72,
      "start": 22.117,
      "duration": 0.0922,
      "velocity": 120,
      "chip": "ym2612"
    },
    {
      "channel": 5,
      "note": 73,
      "start": 22.2094,
      "duration": 0.0932,
      "velocity": 120,
      "chip": "ym2612"
    },
    {
      "channel": 1,
      "note": 72,
      "start": 22.3024,
      "duration": 0.0931,
      "velocity": 95,
      "chip": "ym2612"
    },
    {
      "channel": 5,
      "note": 72,
      "start": 22.3028,
      "duration": 0.093,
      "velocity": 120,
      "chip": "ym2612"
    },
    {
      "channel": 3,
      "note": 66,
      "start": 22.3493,
      "duration": 0.2331,
      "velocity": 106,
      "chip": "ym2612"
    },
    {
      "channel": 4,
      "note": 60,
      "start": 22.3496,
      "duration": 0.2331,
      "velocity": 106,
      "chip": "ym2612"
    },
    {
      "channel": 5,
      "note": 73,
      "start": 22.396,
      "duration": 0.0932,
      "velocity": 120,
      "chip": "ym2612"
    },
    {
      "channel": 1,
      "note": 72,
      "start": 22.4891,
      "duration": 0.0931,
      "velocity": 95,
      "chip": "ym2612"
    },
    {
      "channel": 5,
      "note": 72,
      "start": 22.4894,
      "duration": 0.0936,
      "velocity": 120,
      "chip": "ym2612"
    },
    {
      "channel": 3,
      "note": 66,
      "start": 22.5827,
      "duration": 0.0934,
      "velocity": 106,
      "chip": "ym2612"
    },
    {
      "channel": 4,
      "note": 60,
      "start": 22.583,
      "duration": 0.0934,
      "velocity": 106,
      "chip": "ym2612"
    },
    {
      "channel": 5,
      "note": 73,
      "start": 22.5832,
      "duration": 0.0935,
      "velocity": 120,
      "chip": "ym2612"
    },
    {
      "channel": 1,
      "note": 72,
      "start": 22.6757,
      "duration": 0.0931,
      "velocity": 95,
      "chip": "ym2612"
    },
    {
      "channel": 2,
      "note": 24,
      "start": 22.676,
      "duration": 0.5439,
      "velocity": 100,
      "chip": "ym2612"
    },
    {
      "channel": 3,
      "note": 69,
      "start": 22.6763,
      "duration": 0.2326,
      "velocity": 106,
      "chip": "ym2612"
    },
    {
      "channel": 4,
      "note": 66,
      "start": 22.6766,
      "duration": 0.2326,
      "velocity": 106,
      "chip": "ym2612"
    },
    {
      "channel": 5,
      "note": 72,
      "start": 22.6769,
      "duration": 0.0922,
      "velocity": 120,
      "chip": "ym2612"
    },
    {
      "channel": 5,
      "note": 73,
      "start": 22.7693,
      "duration": 0.0932,
      "velocity": 120,
      "chip": "ym2612"
    },
    {
      "channel": 1,
      "note": 72,
      "start": 22.8623,
      "duration": 0.0931,
      "velocity": 95,
      "chip": "ym2612"
    },
    {
      "channel": 5,
      "note": 72,
      "start": 22.8627,
      "duration": 0.093,
      "velocity": 120,
      "chip": "ym2612"
    },
    {
      "channel": 3,
      "note": 69,
      "start": 22.9092,
      "duration": 0.2331,
      "velocity": 106,
      "chip": "ym2612"
    },
    {
      "channel": 4,
      "note": 66,
      "start": 22.9095,
      "duration": 0.2331,
      "velocity": 106,
      "chip": "ym2612"
    },
    {
      "channel": 5,
      "note": 73,
      "start": 22.9559,
      "duration": 0.0932,
      "velocity": 120,
      "chip": "ym2612"
    },
    {
      "channel": 1,
      "note": 72,
      "start": 23.0489,
      "duration": 0.0931,
      "velocity": 95,
      "chip": "ym2612"
    },
    {
      "channel": 5,
      "note": 72,
      "start": 23.0493,
      "duration": 0.0936,
      "velocity": 120,
      "chip": "ym2612"
    },
    {
      "channel": 3,
      "note": 69,
      "start": 23.1425,
      "duration": 0.0934,
      "velocity": 106,
      "chip": "ym2612"
    },
    {
      "channel": 4,
      "note": 66,
      "start": 23.1428,
      "duration": 0.0934,
      "velocity": 106,
      "chip": "ym2612"
    },
    {
      "channel": 5,
      "note": 73,
      "start": 23.1431,
      "duration": 0.0934,
      "velocity": 120,
      "chip": "ym2612"
    },
    {
      "channel": 1,
      "note": 72,
      "start": 23.2356,
      "duration": 0.0931,
      "velocity": 95,
      "chip": "ym2612"
    },
    {
      "channel": 2,
      "note": 24,
      "start": 23.2359,
      "duration": 0.3573,
      "velocity": 100,
      "chip": "ym2612"
    },
    {
      "channel": 3,
      "note": 66,
      "start": 23.2362,
      "duration": 0.2327,
      "velocity": 106,
      "chip": "ym2612"
    },
    {
      "channel": 4,
      "note": 60,
      "start": 23.2365,
      "duration": 0.2327,
      "velocity": 106,
      "chip": "ym2612"
    },
    {
      "channel": 5,
      "note": 72,
      "start": 23.2367,
      "duration": 0.0922,
      "velocity": 120,
      "chip": "ym2612"
    },
    {
      "channel": 5,
      "note": 73,
      "start": 23.3291,
      "duration": 0.0932,
      "velocity": 120,
      "chip": "ym2612"
    },
    {
      "channel": 1,
      "note": 72,
      "start": 23.4222,
      "duration": 0.0931,
      "velocity": 95,
      "chip": "ym2612"
    },
    {
      "channel": 5,
      "note": 72,
      "start": 23.4226,
      "duration": 0.093,
      "velocity": 120,
      "chip": "ym2612"
    },
    {
      "channel": 3,
      "note": 66,
      "start": 23.4691,
      "duration": 0.1401,
      "velocity": 106,
      "chip": "ym2612"
    },
    {
      "channel": 4,
      "note": 60,
      "start": 23.4694,
      "duration": 0.1401,
      "velocity": 106,
      "chip": "ym2612"
    },
    {
      "channel": 5,
      "note": 73,
      "start": 23.5158,
      "duration": 0.094,
      "velocity": 120,
      "chip": "ym2612"
    },
    {
      "channel": 1,
      "note": 72,
      "start": 23.6088,
      "duration": 0.0931,
      "velocity": 95,
      "chip": "ym2612"
    },
    {
      "channel": 2,
      "note": 24,
      "start": 23.6091,
      "duration": 0.3573,
      "velocity": 100,
      "chip": "ym2612"
    },
    {
      "channel": 3,
      "note": 69,
      "start": 23.6094,
      "duration": 0.2327,
      "velocity": 106,
      "chip": "ym2612"
    },
    {
      "channel": 4,
      "note": 66,
      "start": 23.6097,
      "duration": 0.2327,
      "velocity": 106,
      "chip": "ym2612"
    },
    {
      "channel": 5,
      "note": 72,
      "start": 23.61,
      "duration": 0.0922,
      "velocity": 120,
      "chip": "ym2612"
    },
    {
      "channel": 5,
      "note": 73,
      "start": 23.7024,
      "duration": 0.0932,
      "velocity": 120,
      "chip": "ym2612"
    },
    {
      "channel": 1,
      "note": 72,
      "start": 23.7954,
      "duration": 0.0931,
      "velocity": 95,
      "chip": "ym2612"
    },
    {
      "channel": 5,
      "note": 72,
      "start": 23.7958,
      "duration": 0.093,
      "velocity": 120,
      "chip": "ym2612"
    },
    {
      "channel": 3,
      "note": 69,
      "start": 23.8423,
      "duration": 0.1417,
      "velocity": 106,
      "chip": "ym2612"
    },
    {
      "channel": 4,
      "note": 66,
      "start": 23.8426,
      "duration": 0.1418,
      "velocity": 106,
      "chip": "ym2612"
    },
    {
      "channel": 5,
      "note": 73,
      "start": 23.889,
      "duration": 0.0957,
      "velocity": 120,
      "chip": "ym2612"
    },
    {
      "channel": 0,
      "note": 70,
      "start": 23.982,
      "duration": 0.5285,
      "velocity": 102,
      "chip": "ym2612"
    },
    {
      "channel": 1,
      "note": 89,
      "start": 23.9837,
      "duration": 0.0915,
      "velocity": 92,
      "chip": "ym2612"
    },
    {
      "channel": 2,
      "note": 25,
      "start": 23.984,
      "duration": 1.491,
      "velocity": 100,
      "chip": "ym2612"
    },
    {
      "channel": 3,
      "note": 53,
      "start": 23.9843,
      "duration": 1.5068,
      "velocity": 106,
      "chip": "ym2612"
    },
    {
      "channel": 4,
      "note": 49,
      "start": 23.9846,
      "duration": 1.5068,
      "velocity": 106,
      "chip": "ym2612"
    },
    {
      "channel": 5,
      "note": 58,
      "start": 23.9864,
      "duration": 1.5054,
      "velocity": 106,
      "chip": "ym2612"
    },
    {
      "channel": 1,
      "note": 82,
      "start": 24.1687,
      "duration": 0.0931,
      "velocity": 92,
      "chip": "ym2612"
    },
    {
      "channel": 1,
      "note": 85,
      "start": 24.3553,
      "duration": 0.0931,
      "velocity": 92,
      "chip": "ym2612"
    },
    {
      "channel": 0,
      "note": 65,
      "start": 24.5574,
      "duration": 0.513,
      "velocity": 102,
      "chip": "ym2612"
    },
    {
      "channel": 1,
      "note": 82,
      "start": 24.5579,
      "duration": 0.0927,
      "velocity": 92,
      "chip": "ym2612"
    },
    {
      "channel": 1,
      "note": 94,
      "start": 24.7441,
      "duration": 0.0931,
      "velocity": 92,
      "chip": "ym2612"
    },
    {
      "channel": 1,
      "note": 82,
      "start": 24.9307,
      "duration": 0.0931,
      "velocity": 92,
      "chip": "ym2612"
    },
    {
      "channel": 0,
      "note": 63,
      "start": 25.1173,
      "duration": 0.3264,
      "velocity": 102,
      "chip": "ym2612"
    },
    {
      "channel": 1,
      "note": 85,
      "start": 25.1175,
      "duration": 0.093,
      "velocity": 92,
      "chip": "ym2612"
    },
    {
      "channel": 1,
      "note": 82,
      "start": 25.304,
      "duration": 0.0931,
      "velocity": 92,
      "chip": "ym2612"
    },
    {
      "channel": 0,
      "note": 61,
      "start": 25.4905,
      "duration": 0.513,
      "velocity": 102,
      "chip": "ym2612"
    },
    {
      "channel": 1,
      "note": 89,
      "start": 25.4907,
      "duration": 0.093,
      "velocity": 92,
      "chip": "ym2612"
    },
    {
      "channel": 2,
      "note": 25,
      "start": 25.4911,
      "duration": 0.5438,
      "velocity": 100,
      "chip": "ym2612"
    },
    {
      "channel": 3,
      "note": 53,
      "start": 25.4914,
      "duration": 1.4928,
      "velocity": 106,
      "chip": "ym2612"
    },
    {
      "channel": 4,
      "note": 49,
      "start": 25.4917,
      "duration": 1.4927,
      "velocity": 106,
      "chip": "ym2612"
    },
    {
      "channel": 5,
      "note": 58,
      "start": 25.492,
      "duration": 1.4927,
      "velocity": 106,
      "chip": "ym2612"
    },
    {
      "channel": 1,
      "note": 82,
      "start": 25.6772,
      "duration": 0.0931,
      "velocity": 92,
      "chip": "ym2612"
    },
    {
      "channel": 1,
      "note": 85,
      "start": 25.8639,
      "duration": 0.0931,
      "velocity": 92,
      "chip": "ym2612"
    },
    {
      "channel": 0,
      "note": 63,
      "start": 26.0504,
      "duration": 0.513,
      "velocity": 102,
      "chip": "ym2612"
    },
    {
      "channel": 1,
      "note": 82,
      "start": 26.0506,
      "duration": 0.093,
      "velocity": 92,
      "chip": "ym2612"
    },
    {
      "channel": 2,
      "note": 25,
      "start": 26.051,
      "duration": 0.5438,
      "velocity": 100,
      "chip": "ym2612"
    },
    {
      "channel": 1,
      "note": 94,
      "start": 26.2371,
      "duration": 0.0931,
      "velocity": 92,
      "chip": "ym2612"
    },
    {
      "channel": 1,
      "note": 82,
      "start": 26.4237,
      "duration": 0.0931,
      "velocity": 92,
      "chip": "ym2612"
    },
    {
      "channel": 0,
      "note": 65,
      "start": 26.6102,
      "duration": 0.3264,
      "velocity": 102,
      "chip": "ym2612"
    },
    {
      "channel": 1,
      "note": 85,
      "start": 26.6105,
      "duration": 0.093,
      "velocity": 92,
      "chip": "ym2612"
    },
    {
      "channel": 2,
      "note": 25,
      "start": 26.6108,
      "duration": 0.3573,
      "velocity": 100,
      "chip": "ym2612"
    },
    {
      "channel": 1,
      "note": 82,
      "start": 26.797,
      "duration": 0.0931,
      "velocity": 92,
      "chip": "ym2612"
    },
    {
      "channel": 0,
      "note": 65,
      "start": 26.9835,
      "duration": 0.513,
      "velocity": 102,
      "chip": "ym2612"
    },
    {
      "channel": 1,
      "note": 87,
      "start": 26.9837,
      "duration": 0.093,
      "velocity": 92,
      "chip": "ym2612"
    },
    {
      "channel": 2,
      "note": 27,
      "start": 26.9841,
      "duration": 0.5441,
      "velocity": 100,
      "chip": "ym2612"
    },
    {
      "channel": 3,
      "note": 54,
      "start": 26.9844,
      "duration": 1.5083,
      "velocity": 106,
      "chip": "ym2612"
    },
    {
      "channel": 4,
      "note": 51,
      "start": 26.9846,
      "duration": 1.5083,
      "velocity": 106,
      "chip": "ym2612"
    },
    {
      "channel": 5,
      "note": 58,
      "start": 26.9849,
      "duration": 1.5083,
      "velocity": 106,
      "chip": "ym2612"
    },
    {
      "channel": 1,
      "note": 82,
      "start": 27.1702,
      "duration": 0.0931,
      "velocity": 92,
      "chip": "ym2612"
    },
    {
      "channel": 1,
      "note": 90,
      "start": 27.3568,
      "duration": 0.0931,
      "velocity": 92,
      "chip": "ym2612"
    },
    {
      "channel": 0,
      "note": 63,
      "start": 27.5434,
      "duration": 0.513,
      "velocity": 102,
      "chip": "ym2612"
    },
    {
      "channel": 1,
      "note": 82,
      "start": 27.5436,
      "duration": 0.093,
      "velocity": 92,
      "chip": "ym2612"
    },
    {
      "channel": 2,
      "note": 27,
      "start": 27.5439,
      "duration": 0.5441,
      "velocity": 100,
      "chip": "ym2612"
    },
    {
      "channel": 1,
      "note": 94,
      "start": 27.7301,
      "duration": 0.0931,
      "velocity": 92,
      "chip": "ym2612"
    },
    {
      "channel": 1,
      "note": 82,
      "start": 27.9167,
      "duration": 0.0931,
      "velocity": 92,
      "chip": "ym2612"
    },
    {
      "channel": 0,
      "note": 58,
      "start": 28.1032,
      "duration": 0.342,
      "velocity": 102,
      "chip": "ym2612"
    },
    {
      "channel": 1,
      "note": 87,
      "start": 28.1035,
      "duration": 0.093,
      "velocity": 92,
      "chip": "ym2612"
    },
    {
      "channel": 2,
      "note": 27,
      "start": 28.1038,
      "duration": 0.3728,
      "velocity": 100,
      "chip": "ym2612"
    },
    {
      "channel": 1,
      "note": 82,
      "start": 28.29,
      "duration": 0.1087,
      "velocity": 92,
      "chip": "ym2612"
    },
    {
      "channel": 0,
      "note": 58,
      "start": 28.492,
      "duration": 0.513,
      "velocity": 102,
      "chip": "ym2612"
    },
    {
      "channel": 1,
      "note": 88,
      "start": 28.4923,
      "duration": 0.093,
      "velocity": 92,
      "chip": "ym2612"
    },
    {
      "channel": 2,
      "note": 28,
      "start": 28.4926,
      "duration": 0.5438,
      "velocity": 100,
      "chip": "ym2612"
    },
    {
      "channel": 3,
      "note": 55,
      "start": 28.4929,
      "duration": 1.4927,
      "velocity": 106,
      "chip": "ym2612"
    },
    {
      "channel": 4,
      "note": 52,
      "start": 28.4932,
      "duration": 1.4927,
      "velocity": 106,
      "chip": "ym2612"
    },
    {
      "channel": 5,
      "note": 58,
      "start": 28.4935,
      "duration": 1.4928,
      "velocity": 106,
      "chip": "ym2612"
    },
    {
      "channel": 1,
      "note": 82,
      "start": 28.6788,
      "duration": 0.0931,
      "velocity": 92,
      "chip": "ym2612"
    },
    {
      "channel": 1,
      "note": 91,
      "start": 28.8654,
      "duration": 0.0931,
      "velocity": 92,
      "chip": "ym2612"
    },
    {
      "channel": 0,
      "note": 60,
      "start": 29.0519,
      "duration": 0.513,
      "velocity": 102,
      "chip": "ym2612"
    },
    {
      "channel": 1,
      "note": 82,
      "start": 29.0522,
      "duration": 0.093,
      "velocity": 92,
      "chip": "ym2612"
    },
    {
      "channel": 2,
      "note": 28,
      "start": 29.0525,
      "duration": 0.5438,
      "velocity": 100,
      "chip": "ym2612"
    },
    {
      "channel": 1,
      "note": 94,
      "start": 29.2386,
      "duration": 0.0931,
      "velocity": 92,
      "chip": "ym2612"
    },
    {
      "channel": 1,
      "note": 82,
      "start": 29.4253,
      "duration": 0.0931,
      "velocity": 92,
      "chip": "ym2612"
    },
    {
      "channel": 0,
      "note": 61,
      "start": 29.6118,
      "duration": 0.3264,
      "velocity": 102,
      "chip": "ym2612"
    },
    {
      "channel": 1,
      "note": 91,
      "start": 29.612,
      "duration": 0.093,
      "velocity": 92,
      "chip": "ym2612"
    },
    {
      "channel": 2,
      "note": 28,
      "start": 29.6124,
      "duration": 0.3572,
      "velocity": 100,
      "chip": "ym2612"
    },
    {
      "channel": 1,
      "note": 82,
      "start": 29.7985,
      "duration": 0.0932,
      "velocity": 92,
      "chip": "ym2612"
    },
    {
      "channel": 0,
      "note": 61,
      "start": 29.985,
      "duration": 2.5814,
      "velocity": 102,
      "chip": "ym2612"
    },
    {
      "channel": 1,
      "note": 89,
      "start": 29.9853,
      "duration": 0.093,
      "velocity": 92,
      "chip": "ym2612"
    },
    {
      "channel": 2,
      "note": 29,
      "start": 29.9856,
      "duration": 1.4769,
      "velocity": 100,
      "chip": "ym2612"
    },
    {
      "channel": 3,
      "note": 53,
      "start": 29.9859,
      "duration": 1.4927,
      "velocity": 106,
      "chip": "ym2612"
    },
    {
      "channel": 4,
      "note": 48,
      "start": 29.9862,
      "duration": 1.4927,
      "velocity": 106,
      "chip": "ym2612"
    },
    {
      "channel": 5,
      "note": 58,
      "start": 29.9865,
      "duration": 1.4927,
      "velocity": 106,
      "chip": "ym2612"
    },
    {
      "channel": 1,
      "note": 84,
      "start": 30.1717,
      "duration": 0.0931,
      "velocity": 92,
      "chip": "ym2612"
    },
    {
      "channel": 1,
      "note": 82,
      "start": 30.3584,
      "duration": 0.0931,
      "velocity": 92,
      "chip": "ym2612"
    },
    {
      "channel": 1,
      "note": 84,
      "start": 30.545,
      "duration": 0.0931,
      "velocity": 92,
      "chip": "ym2612"
    },
    {
      "channel": 1,
      "note": 94,
      "start": 30.7316,
      "duration": 0.0931,
      "velocity": 92,
      "chip": "ym2612"
    },
    {
      "channel": 1,
      "note": 84,
      "start": 30.9183,
      "duration": 0.0931,
      "velocity": 92,
      "chip": "ym2612"
    },
    {
      "channel": 1,
      "note": 82,
      "start": 31.1049,
      "duration": 0.0931,
      "velocity": 92,
      "chip": "ym2612"
    },
    {
      "channel": 1,
      "note": 84,
      "start": 31.2915,
      "duration": 0.0931,
      "velocity": 92,
      "chip": "ym2612"
    },
    {
      "channel": 1,
      "note": 89,
      "start": 31.4782,
      "duration": 0.0931,
      "velocity": 92,
      "chip": "ym2612"
    },
    {
      "channel": 2,
      "note": 29,
      "start": 31.4785,
      "duration": 0.5439,
      "velocity": 100,
      "chip": "ym2612"
    },
    {
      "channel": 3,
      "note": 53,
      "start": 31.4788,
      "duration": 1.5084,
      "velocity": 106,
      "chip": "ym2612"
    },
    {
      "channel": 4,
      "note": 48,
      "start": 31.4791,
      "duration": 1.5084,
      "velocity": 106,
      "chip": "ym2612"
    },
    {
      "channel": 5,
      "note": 58,
      "start": 31.4794,
      "duration": 1.5086,
      "velocity": 106,
      "chip": "ym2612"
    },
    {
      "channel": 1,
      "note": 84,
      "start": 31.6647,
      "duration": 0.0932,
      "velocity": 92,
      "chip": "ym2612"
    },
    {
      "channel": 1,
      "note": 82,
      "start": 31.8514,
      "duration": 0.0931,
      "velocity": 92,
      "chip": "ym2612"
    },
    {
      "channel": 1,
      "note": 84,
      "start": 32.0382,
      "duration": 0.0929,
      "velocity": 92,
      "chip": "ym2612"
    },
    {
      "channel": 2,
      "note": 29,
      "start": 32.0385,
      "duration": 0.5596,
      "velocity": 100,
      "chip": "ym2612"
    },
    {
      "channel": 1,
      "note": 94,
      "start": 32.2246,
      "duration": 0.1087,
      "velocity": 92,
      "chip": "ym2612"
    },
    {
      "channel": 1,
      "note": 84,
      "start": 32.4268,
      "duration": 0.0931,
      "velocity": 92,
      "chip": "ym2612"
    },
    {
      "channel": 0,
      "note": 63,
      "start": 32.6133,
      "duration": 0.1398,
      "velocity": 102,
      "chip": "ym2612"
    },
    {
      "channel": 1,
      "note": 82,
      "start": 32.6136,
      "duration": 0.093,
      "velocity": 92,
      "chip": "ym2612"
    },
    {
      "channel": 2,
      "note": 29,
      "start": 32.6139,
      "duration": 0.3572,
      "velocity": 100,
      "chip": "ym2612"
    },
    {
      "channel": 0,
      "note": 61,
      "start": 32.7999,
      "duration": 0.1398,
      "velocity": 102,
      "chip": "ym2612"
    },
    {
      "channel": 1,
      "note": 84,
      "start": 32.8002,
      "duration": 0.093,
      "velocity": 92,
      "chip": "ym2612"
    },
    {
      "channel": 0,
      "note": 60,
      "start": 32.9866,
      "duration": 2.9391,
      "velocity": 102,
      "chip": "ym2612"
    },
    {
      "channel": 1,
      "note": 89,
      "start": 32.9868,
      "duration": 0.0929,
      "velocity": 92,
      "chip": "ym2612"
    },
    {
      "channel": 2,
      "note": 29,
      "start": 32.9871,
      "duration": 1.4769,
      "velocity": 100,
      "chip": "ym2612"
    },
    {
      "channel": 3,
      "note": 53,
      "start": 32.9874,
      "duration": 1.4923,
      "velocity": 106,
      "chip": "ym2612"
    },
    {
      "channel": 4,
      "note": 45,
      "start": 32.988,
      "duration": 1.4921,
      "velocity": 106,
      "chip": "ym2612"
    },
    {
      "channel": 5,
      "note": 60,
      "start": 32.9883,
      "duration": 1.4921,
      "velocity": 106,
      "chip": "ym2612"
    },
    {
      "channel": 1,
      "note": 84,
      "start": 33.1733,
      "duration": 0.0931,
      "velocity": 92,
      "chip": "ym2612"
    },
    {
      "channel": 1,
      "note": 81,
      "start": 33.3599,
      "duration": 0.0931,
      "velocity": 92,
      "chip": "ym2612"
    },
    {
      "channel": 1,
      "note": 84,
      "start": 33.5465,
      "duration": 0.0931,
      "velocity": 92,
      "chip": "ym2612"
    },
    {
      "channel": 1,
      "note": 93,
      "start": 33.7332,
      "duration": 0.0931,
      "velocity": 92,
      "chip": "ym2612"
    },
    {
      "channel": 1,
      "note": 84,
      "start": 33.9198,
      "duration": 0.0931,
      "velocity": 92,
      "chip": "ym2612"
    },
    {
      "channel": 1,
      "note": 81,
      "start": 34.1064,
      "duration": 0.0931,
      "velocity": 92,
      "chip": "ym2612"
    },
    {
      "channel": 1,
      "note": 84,
      "start": 34.293,
      "duration": 0.0931,
      "velocity": 92,
      "chip": "ym2612"
    },
    {
      "channel": 1,
      "note": 89,
      "start": 34.4797,
      "duration": 0.0931,
      "velocity": 92,
      "chip": "ym2612"
    },
    {
      "channel": 3,
      "note": 53,
      "start": 34.48,
      "duration": 1.4924,
      "velocity": 106,
      "chip": "ym2612"
    },
    {
      "channel": 4,
      "note": 45,
      "start": 34.4803,
      "duration": 1.4921,
      "velocity": 106,
      "chip": "ym2612"
    },
    {
      "channel": 5,
      "note": 60,
      "start": 34.4806,
      "duration": 1.4918,
      "velocity": 106,
      "chip": "ym2612"
    },
    {
      "channel": 1,
      "note": 84,
      "start": 34.6663,
      "duration": 0.0931,
      "velocity": 92,
      "chip": "ym2612"
    },
    {
      "channel": 2,
      "note": 29,
      "start": 34.6666,
      "duration": 0.1707,
      "velocity": 100,
      "chip": "ym2612"
    },
    {
      "channel": 1,
      "note": 81,
      "start": 34.8529,
      "duration": 0.0931,
      "velocity": 92,
      "chip": "ym2612"
    },
    {
      "channel": 2,
      "note": 29,
      "start": 34.8532,
      "duration": 0.1707,
      "velocity": 100,
      "chip": "ym2612"
    },
    {
      "channel": 1,
      "note": 84,
      "start": 35.0395,
      "duration": 0.0931,
      "velocity": 92,
      "chip": "ym2612"
    },
    {
      "channel": 2,
      "note": 29,
      "start": 35.0399,
      "duration": 0.1707,
      "velocity": 100,
      "chip": "ym2612"
    },
    {
      "channel": 1,
      "note": 93,
      "start": 35.2261,
      "duration": 0.0931,
      "velocity": 92,
      "chip": "ym2612"
    },
    {
      "channel": 2,
      "note": 29,
      "start": 35.2265,
      "duration": 0.1707,
      "velocity": 100,
      "chip": "ym2612"
    },
    {
      "channel": 1,
      "note": 84,
      "start": 35.4128,
      "duration": 0.0931,
      "velocity": 92,
      "chip": "ym2612"
    },
    {
      "channel": 2,
      "note": 29,
      "start": 35.4131,
      "duration": 0.1707,
      "velocity": 100,
      "chip": "ym2612"
    },
    {
      "channel": 1,
      "note": 81,
      "start": 35.5994,
      "duration": 0.0931,
      "velocity": 92,
      "chip": "ym2612"
    },
    {
      "channel": 2,
      "note": 29,
      "start": 35.5998,
      "duration": 0.1707,
      "velocity": 100,
      "chip": "ym2612"
    },
    {
      "channel": 1,
      "note": 84,
      "start": 35.786,
      "duration": 0.0931,
      "velocity": 92,
      "chip": "ym2612"
    },
    {
      "channel": 2,
      "note": 29,
      "start": 35.7864,
      "duration": 0.1707,
      "velocity": 100,
      "chip": "ym2612"
    }
  ]
}