{
  "track_name": "06 - World Three",
  "duration_sec": 115.594,
  "sample_rate": 44100,
  "note_count": 1502,
  "unique_pitches": 49,
  "pitch_range": 81,
  "avg_note_duration": 0.4306,
  "reconstruction_stats": {
    "notes_reconstructed": 1502,
    "keyon_events": 1502,
    "keyoff_events": 1261,
    "orphan_keyons": 6,
    "unique_pitches": 49,
    "pitch_range": 81,
    "avg_duration_sec": 0.4306
  },
  "metadata": {
    "source": "T\\The Legend of Galahad\\06 - World Three.vgz"
  },
  "notes": [
    {
      "channel": 0,
      "note": 47,
      "start": 0.0022,
      "duration": 0.1982,
      "velocity": 113,
      "chip": "ym2612"
    },
    {
      "channel": 0,
      "note": 59,
      "start": 0.2006,
      "duration": 0.1999,
      "velocity": 113,
      "chip": "ym2612"
    },
    {
      "channel": 0,
      "note": 47,
      "start": 0.4007,
      "duration": 2.5998,
      "velocity": 113,
      "chip": "ym2612"
    },
    {
      "channel": 1,
      "note": 31,
      "start": 0.4026,
      "duration": 0.398,
      "velocity": 115,
      "chip": "ym2612"
    },
    {
      "channel": 1,
      "note": 31,
      "start": 0.8007,
      "duration": 0.4013,
      "velocity": 110,
      "chip": "ym2612"
    },
    {
      "channel": 1,
      "note": 57,
      "start": 1.2021,
      "duration": 0.1984,
      "velocity": 110,
      "chip": "ym2612"
    },
    {
      "channel": 2,
      "note": 64,
      "start": 1.2041,
      "duration": 0.197,
      "velocity": 110,
      "chip": "ym2612"
    },
    {
      "channel": 1,
      "note": 59,
      "start": 1.4007,
      "duration": 0.1998,
      "velocity": 110,
      "chip": "ym2612"
    },
    {
      "channel": 2,
      "note": 66,
      "start": 1.4012,
      "duration": 0.1998,
      "velocity": 110,
      "chip": "ym2612"
    },
    {
      "channel": 1,
      "note": 62,
      "start": 1.6007,
      "duration": 0.1998,
      "velocity": 110,
      "chip": "ym2612"
    },
    {
      "channel": 2,
      "note": 69,
      "start": 1.6012,
      "duration": 0.1998,
      "velocity": 110,
      "chip": "ym2612"
    },
    {
      "channel": 1,
      "note": 64,
      "start": 1.8007,
      "duration": 0.1998,
      "velocity": 110,
      "chip": "ym2612"
    },
    {
      "channel": 2,
      "note": 71,
      "start": 1.8012,
      "duration": 0.1998,
      "velocity": 110,
      "chip": "ym2612"
    },
    {
      "channel": 1,
      "note": 57,
      "start": 2.0007,
      "duration": 0.1998,
      "velocity": 110,
      "chip": "ym2612"
    },
    {
      "channel": 2,
      "note": 64,
      "start": 2.0012,
      "duration": 0.1998,
      "velocity": 110,
      "chip": "ym2612"
    },
    {
      "channel": 1,
      "note": 59,
      "start": 2.2007,
      "duration": 0.4012,
      "velocity": 115,
      "chip": "ym2612"
    },
    {
      "channel": 2,
      "note": 66,
      "start": 2.2012,
      "duration": 2.2013,
      "velocity": 110,
      "chip": "ym2612"
    },
    {
      "channel": 1,
      "note": 31,
      "start": 2.6021,
      "duration": 0.3988,
      "velocity": 115,
      "chip": "ym2612"
    },
    {
      "channel": 0,
      "note": 45,
      "start": 3.0007,
      "duration": 0.1998,
      "velocity": 113,
      "chip": "ym2612"
    },
    {
      "channel": 1,
      "note": 31,
      "start": 3.0012,
      "duration": 0.5998,
      "velocity": 115,
      "chip": "ym2612"
    },
    {
      "channel": 0,
      "note": 47,
      "start": 3.2006,
      "duration": 0.1999,
      "velocity": 113,
      "chip": "ym2612"
    },
    {
      "channel": 0,
      "note": 59,
      "start": 3.4006,
      "duration": 0.1999,
      "velocity": 113,
      "chip": "ym2612"
    },
    {
      "channel": 0,
      "note": 47,
      "start": 3.6007,
      "duration": 2.5998,
      "velocity": 113,
      "chip": "ym2612"
    },
    {
      "channel": 1,
      "note": 31,
      "start": 3.6012,
      "duration": 0.3994,
      "velocity": 115,
      "chip": "ym2612"
    },
    {
      "channel": 1,
      "note": 31,
      "start": 4.0007,
      "duration": 0.4013,
      "velocity": 110,
      "chip": "ym2612"
    },
    {
      "channel": 1,
      "note": 57,
      "start": 4.4021,
      "duration": 0.1984,
      "velocity": 110,
      "chip": "ym2612"
    },
    {
      "channel": 2,
      "note": 64,
      "start": 4.4026,
      "duration": 0.1984,
      "velocity": 110,
      "chip": "ym2612"
    },
    {
      "channel": 1,
      "note": 59,
      "start": 4.6007,
      "duration": 0.1998,
      "velocity": 110,
      "chip": "ym2612"
    },
    {
      "channel": 2,
      "note": 66,
      "start": 4.6012,
      "duration": 0.1998,
      "velocity": 110,
      "chip": "ym2612"
    },
    {
      "channel": 1,
      "note": 66,
      "start": 4.8007,
      "duration": 0.1998,
      "velocity": 110,
      "chip": "ym2612"
    },
    {
      "channel": 2,
      "note": 71,
      "start": 4.8012,
      "duration": 0.1998,
      "velocity": 110,
      "chip": "ym2612"
    },
    {
      "channel": 1,
      "note": 62,
      "start": 5.0007,
      "duration": 0.1998,
      "velocity": 110,
      "chip": "ym2612"
    },
    {
      "channel": 2,
      "note": 66,
      "start": 5.0012,
      "duration": 0.1998,
      "velocity": 110,
      "chip": "ym2612"
    },
    {
      "channel": 1,
      "note": 64,
      "start": 5.2007,
      "duration": 0.1998,
      "velocity": 110,
      "chip": "ym2612"
    },
    {
      "channel": 2,
      "note": 69,
      "start": 5.2012,
      "duration": 0.1998,
      "velocity": 110,
      "chip": "ym2612"
    },
    {
      "channel": 1,
      "note": 55,
      "start": 5.4007,
      "duration": 0.4012,
      "velocity": 115,
      "chip": "ym2612"
    },
    {
      "channel": 2,
      "note": 62,
      "start": 5.4012,
      "duration": 2.2013,
      "velocity": 110,
      "chip": "ym2612"
    },
    {
      "channel": 1,
      "note": 31,
      "start": 5.8021,
      "duration": 0.3988,
      "velocity": 115,
      "chip": "ym2612"
    },
    {
      "channel": 0,
      "note": 45,
      "start": 6.2007,
      "duration": 0.2,
      "velocity": 113,
      "chip": "ym2612"
    },
    {
      "channel": 1,
      "note": 31,
      "start": 6.2012,
      "duration": 0.5999,
      "velocity": 115,
      "chip": "ym2612"
    },
    {
      "channel": 0,
      "note": 47,
      "start": 6.4008,
      "duration": 0.1996,
      "velocity": 113,
      "chip": "ym2612"
    },
    {
      "channel": 0,
      "note": 59,
      "start": 6.6006,
      "duration": 0.1999,
      "velocity": 113,
      "chip": "ym2612"
    },
    {
      "channel": 0,
      "note": 47,
      "start": 6.8007,
      "duration": 2.5998,
      "velocity": 113,
      "chip": "ym2612"
    },
    {
      "channel": 1,
      "note": 31,
      "start": 6.8012,
      "duration": 0.3994,
      "velocity": 115,
      "chip": "ym2612"
    },
    {
      "channel": 1,
      "note": 31,
      "start": 7.2007,
      "duration": 0.4013,
      "velocity": 110,
      "chip": "ym2612"
    },
    {
      "channel": 1,
      "note": 57,
      "start": 7.6021,
      "duration": 0.1984,
      "velocity": 110,
      "chip": "ym2612"
    },
    {
      "channel": 2,
      "note": 64,
      "start": 7.6027,
      "duration": 0.1983,
      "velocity": 110,
      "chip": "ym2612"
    },
    {
      "channel": 1,
      "note": 59,
      "start": 7.8007,
      "duration": 0.1998,
      "velocity": 110,
      "chip": "ym2612"
    },
    {
      "channel": 2,
      "note": 66,
      "start": 7.8012,
      "duration": 0.1998,
      "velocity": 110,
      "chip": "ym2612"
    },
    {
      "channel": 1,
      "note": 62,
      "start": 8.0007,
      "duration": 0.1998,
      "velocity": 110,
      "chip": "ym2612"
    },
    {
      "channel": 2,
      "note": 69,
      "start": 8.0012,
      "duration": 0.1998,
      "velocity": 110,
      "chip": "ym2612"
    },
    {
      "channel": 1,
      "note": 64,
      "start": 8.2007,
      "duration": 0.1998,
      "velocity": 110,
      "chip": "ym2612"
    },
    {
      "channel": 2,
      "note": 71,
      "start": 8.2012,
      "duration": 0.1998,
      "velocity": 110,
      "chip": "ym2612"
    },
    {
      "channel": 1,
      "note": 57,
      "start": 8.4007,
      "duration": 0.1998,
      "velocity": 110,
      "chip": "ym2612"
    },
    {
      "channel": 2,
      "note": 64,
      "start": 8.4012,
      "duration": 0.1998,
      "velocity": 110,
      "chip": "ym2612"
    },
    {
      "channel": 1,
      "note": 59,
      "start": 8.6007,
      "duration": 0.4012,
      "velocity": 115,
      "chip": "ym2612"
    },
    {
      "channel": 2,
      "note": 66,
      "start": 8.6012,
      "duration": 2.2013,
      "velocity": 110,
      "chip": "ym2612"
    },
    {
      "channel": 1,
      "note": 31,
      "start": 9.0021,
      "duration": 0.3988,
      "velocity": 115,
      "chip": "ym2612"
    },
    {
      "channel": 0,
      "note": 45,
      "start": 9.4007,
      "duration": 0.1998,
      "velocity": 113,
      "chip": "ym2612"
    },
    {
      "channel": 1,
      "note": 31,
      "start": 9.4012,
      "duration": 0.5998,
      "velocity": 115,
      "chip": "ym2612"
    },
    {
      "channel": 0,
      "note": 47,
      "start": 9.6006,
      "duration": 0.1999,
      "velocity": 113,
      "chip": "ym2612"
    },
    {
      "channel": 0,
      "note": 59,
      "start": 9.8006,
      "duration": 0.1999,
      "velocity": 113,
      "chip": "ym2612"
    },
    {
      "channel": 0,
      "note": 47,
      "start": 10.0007,
      "duration": 2.5998,
      "velocity": 113,
      "chip": "ym2612"
    },
    {
      "channel": 1,
      "note": 31,
      "start": 10.0012,
      "duration": 0.3994,
      "velocity": 115,
      "chip": "ym2612"
    },
    {
      "channel": 1,
      "note": 31,
      "start": 10.4007,
      "duration": 0.4013,
      "velocity": 110,
      "chip": "ym2612"
    },
    {
      "channel": 1,
      "note": 57,
      "start": 10.8021,
      "duration": 0.1984,
      "velocity": 110,
      "chip": "ym2612"
    },
    {
      "channel": 2,
      "note": 64,
      "start": 10.8026,
      "duration": 0.1984,
      "velocity": 110,
      "chip": "ym2612"
    },
    {
      "channel": 1,
      "note": 59,
      "start": 11.0007,
      "duration": 0.1998,
      "velocity": 110,
      "chip": "ym2612"
    },
    {
      "channel": 2,
      "note": 66,
      "start": 11.0012,
      "duration": 0.1998,
      "velocity": 110,
      "chip": "ym2612"
    },
    {
      "channel": 1,
      "note": 66,
      "start": 11.2007,
      "duration": 0.1998,
      "velocity": 110,
      "chip": "ym2612"
    },
    {
      "channel": 2,
      "note": 71,
      "start": 11.2012,
      "duration": 0.1998,
      "velocity": 110,
      "chip": "ym2612"
    },
    {
      "channel": 1,
      "note": 62,
      "start": 11.4007,
      "duration": 0.1998,
      "velocity": 110,
      "chip": "ym2612"
    },
    {
      "channel": 2,
      "note": 66,
      "start": 11.4012,
      "duration": 0.1998,
      "velocity": 110,
      "chip": "ym2612"
    },
    {
      "channel": 1,
      "note": 64,
      "start": 11.6007,
      "duration": 0.1998,
      "velocity": 110,
      "chip": "ym2612"
    },
    {
      "channel": 2,
      "note": 69,
      "start": 11.6012,
      "duration": 0.1998,
      "velocity": 110,
      "chip": "ym2612"
    },
    {
      "channel": 1,
      "note": 55,
      "start": 11.8007,
      "duration": 0.4012,
      "velocity": 115,
      "chip": "ym2612"
    },
    {
      "channel": 2,
      "note": 62,
      "start": 11.8012,
      "duration": 2.2013,
      "velocity": 110,
      "chip": "ym2612"
    },
    {
      "channel": 1,
      "note": 31,
      "start": 12.2021,
      "duration": 0.3988,
      "velocity": 115,
      "chip": "ym2612"
    },
    {
      "channel": 0,
      "note": 45,
      "start": 12.6007,
      "duration": 0.2,
      "velocity": 113,
      "chip": "ym2612"
    },
    {
      "channel": 1,
      "note": 31,
      "start": 12.6012,
      "duration": 0.5999,
      "velocity": 115,
      "chip": "ym2612"
    },
    {
      "channel": 0,
      "note": 47,
      "start": 12.8008,
      "duration": 0.1996,
      "velocity": 113,
      "chip": "ym2612"
    },
    {
      "channel": 3,
      "note": 112,
      "start": 12.8029,
      "duration": 0.5977,
      "velocity": 100,
      "chip": "ym2612"
    },
    {
      "channel": 0,
      "note": 59,
      "start": 13.0007,
      "duration": 0.1999,
      "velocity": 113,
      "chip": "ym2612"
    },
    {
      "channel": 5,
      "note": 69,
      "start": 13.0028,
      "duration": 0.1989,
      "velocity": 115,
      "chip": "ym2612"
    },
    {
      "channel": 0,
      "note": 47,
      "start": 13.2007,
      "duration": 2.5999,
      "velocity": 113,
      "chip": "ym2612"
    },
    {
      "channel": 1,
      "note": 31,
      "start": 13.2012,
      "duration": 0.3993,
      "velocity": 115,
      "chip": "ym2612"
    },
    {
      "channel": 5,
      "note": 71,
      "start": 13.2019,
      "duration": 0.1993,
      "velocity": 115,
      "chip": "ym2612"
    },
    {
      "channel": 3,
      "note": 112,
      "start": 13.4008,
      "duration": 0.0999,
      "velocity": 100,
      "chip": "ym2612"
    },
    {
      "channel": 5,
      "note": 78,
      "start": 13.4014,
      "duration": 0.6017,
      "velocity": 115,
      "chip": "ym2612"
    },
    {
      "channel": 3,
      "note": 112,
      "start": 13.5008,
      "duration": 0.1003,
      "velocity": 100,
      "chip": "ym2612"
    },
    {
      "channel": 1,
      "note": 31,
      "start": 13.6007,
      "duration": 0.4013,
      "velocity": 110,
      "chip": "ym2612"
    },
    {
      "channel": 3,
      "note": 112,
      "start": 13.6013,
      "duration": 0.1993,
      "velocity": 100,
      "chip": "ym2612"
    },
    {
      "channel": 3,
      "note": 112,
      "start": 13.8008,
      "duration": 0.6007,
      "velocity": 100,
      "chip": "ym2612"
    },
    {
      "channel": 1,
      "note": 57,
      "start": 14.0022,
      "duration": 0.1983,
      "velocity": 110,
      "chip": "ym2612"
    },
    {
      "channel": 2,
      "note": 64,
      "start": 14.0027,
      "duration": 0.1983,
      "velocity": 110,
      "chip": "ym2612"
    },
    {
      "channel": 5,
      "note": 76,
      "start": 14.0033,
      "duration": 1.5974,
      "velocity": 115,
      "chip": "ym2612"
    },
    {
      "channel": 1,
      "note": 59,
      "start": 14.2007,
      "duration": 0.1998,
      "velocity": 110,
      "chip": "ym2612"
    },
    {
      "channel": 2,
      "note": 66,
      "start": 14.2012,
      "duration": 0.1998,
      "velocity": 110,
      "chip": "ym2612"
    },
    {
      "channel": 1,
      "note": 62,
      "start": 14.4007,
      "duration": 0.1998,
      "velocity": 110,
      "chip": "ym2612"
    },
    {
      "channel": 2,
      "note": 69,
      "start": 14.4012,
      "duration": 0.1998,
      "velocity": 110,
      "chip": "ym2612"
    },
    {
      "channel": 3,
      "note": 112,
      "start": 14.4017,
      "duration": 0.5999,
      "velocity": 100,
      "chip": "ym2612"
    },
    {
      "channel": 1,
      "note": 64,
      "start": 14.6007,
      "duration": 0.1998,
      "velocity": 110,
      "chip": "ym2612"
    },
    {
      "channel": 2,
      "note": 71,
      "start": 14.6012,
      "duration": 0.1998,
      "velocity": 110,
      "chip": "ym2612"
    },
    {
      "channel": 1,
      "note": 57,
      "start": 14.8007,
      "duration": 0.1999,
      "velocity": 110,
      "chip": "ym2612"
    },
    {
      "channel": 2,
      "note": 64,
      "start": 14.8012,
      "duration": 0.1999,
      "velocity": 110,
      "chip": "ym2612"
    },
    {
      "channel": 1,
      "note": 59,
      "start": 15.0007,
      "duration": 0.4013,
      "velocity": 115,
      "chip": "ym2612"
    },
    {
      "channel": 2,
      "note": 66,
      "start": 15.0012,
      "duration": 2.2013,
      "velocity": 110,
      "chip": "ym2612"
    },
    {
      "channel": 3,
      "note": 112,
      "start": 15.0017,
      "duration": 0.0989,
      "velocity": 100,
      "chip": "ym2612"
    },
    {
      "channel": 3,
      "note": 112,
      "start": 15.1008,
      "duration": 0.0998,
      "velocity": 100,
      "chip": "ym2612"
    },
    {
      "channel": 3,
      "note": 112,
      "start": 15.2008,
      "duration": 0.2017,
      "velocity": 100,
      "chip": "ym2612"
    },
    {
      "channel": 1,
      "note": 31,
      "start": 15.4021,
      "duration": 0.3989,
      "velocity": 115,
      "chip": "ym2612"
    },
    {
      "channel": 3,
      "note": 112,
      "start": 15.4027,
      "duration": 0.5984,
      "velocity": 100,
      "chip": "ym2612"
    },
    {
      "channel": 5,
      "note": 74,
      "start": 15.6009,
      "duration": 0.2008,
      "velocity": 115,
      "chip": "ym2612"
    },
    {
      "channel": 0,
      "note": 45,
      "start": 15.8007,
      "duration": 0.1999,
      "velocity": 113,
      "chip": "ym2612"
    },
    {
      "channel": 1,
      "note": 31,
      "start": 15.8012,
      "duration": 0.5998,
      "velocity": 115,
      "chip": "ym2612"
    },
    {
      "channel": 5,
      "note": 76,
      "start": 15.8019,
      "duration": 0.1998,
      "velocity": 115,
      "chip": "ym2612"
    },
    {
      "channel": 0,
      "note": 47,
      "start": 16.0007,
      "duration": 0.1998,
      "velocity": 113,
      "chip": "ym2612"
    },
    {
      "channel": 3,
      "note": 112,
      "start": 16.0013,
      "duration": 0.5993,
      "velocity": 100,
      "chip": "ym2612"
    },
    {
      "channel": 5,
      "note": 86,
      "start": 16.0019,
      "duration": 0.7998,
      "velocity": 115,
      "chip": "ym2612"
    },
    {
      "channel": 0,
      "note": 59,
      "start": 16.2007,
      "duration": 0.1998,
      "velocity": 113,
      "chip": "ym2612"
    },
    {
      "channel": 0,
      "note": 47,
      "start": 16.4007,
      "duration": 2.5998,
      "velocity": 113,
      "chip": "ym2612"
    },
    {
      "channel": 1,
      "note": 31,
      "start": 16.4012,
      "duration": 0.3994,
      "velocity": 115,
      "chip": "ym2612"
    },
    {
      "channel": 3,
      "note": 112,
      "start": 16.6008,
      "duration": 0.0998,
      "velocity": 100,
      "chip": "ym2612"
    },
    {
      "channel": 3,
      "note": 112,
      "start": 16.7008,
      "duration": 0.1003,
      "velocity": 100,
      "chip": "ym2612"
    },
    {
      "channel": 1,
      "note": 31,
      "start": 16.8007,
      "duration": 0.4013,
      "velocity": 110,
      "chip": "ym2612"
    },
    {
      "channel": 3,
      "note": 112,
      "start": 16.8013,
      "duration": 0.1993,
      "velocity": 100,
      "chip": "ym2612"
    },
    {
      "channel": 5,
      "note": 83,
      "start": 16.8019,
      "duration": 0.4013,
      "velocity": 115,
      "chip": "ym2612"
    },
    {
      "channel": 3,
      "note": 112,
      "start": 17.0008,
      "duration": 0.6007,
      "velocity": 100,
      "chip": "ym2612"
    },
    {
      "channel": 1,
      "note": 57,
      "start": 17.2022,
      "duration": 0.1983,
      "velocity": 110,
      "chip": "ym2612"
    },
    {
      "channel": 2,
      "note": 64,
      "start": 17.2027,
      "duration": 0.1983,
      "velocity": 110,
      "chip": "ym2612"
    },
    {
      "channel": 5,
      "note": 81,
      "start": 17.2033,
      "duration": 0.1983,
      "velocity": 115,
      "chip": "ym2612"
    },
    {
      "channel": 1,
      "note": 59,
      "start": 17.4007,
      "duration": 0.1998,
      "velocity": 110,
      "chip": "ym2612"
    },
    {
      "channel": 2,
      "note": 66,
      "start": 17.4012,
      "duration": 0.1998,
      "velocity": 110,
      "chip": "ym2612"
    },
    {
      "channel": 5,
      "note": 74,
      "start": 17.4019,
      "duration": 2.6032,
      "velocity": 110,
      "chip": "ym2612"
    },
    {
      "channel": 1,
      "note": 66,
      "start": 17.6007,
      "duration": 0.1998,
      "velocity": 110,
      "chip": "ym2612"
    },
    {
      "channel": 2,
      "note": 71,
      "start": 17.6012,
      "duration": 0.1998,
      "velocity": 110,
      "chip": "ym2612"
    },
    {
      "channel": 3,
      "note": 112,
      "start": 17.6017,
      "duration": 0.5998,
      "velocity": 100,
      "chip": "ym2612"
    },
    {
      "channel": 1,
      "note": 62,
      "start": 17.8007,
      "duration": 0.1998,
      "velocity": 110,
      "chip": "ym2612"
    },
    {
      "channel": 2,
      "note": 66,
      "start": 17.8012,
      "duration": 0.1998,
      "velocity": 110,
      "chip": "ym2612"
    },
    {
      "channel": 1,
      "note": 64,
      "start": 18.0007,
      "duration": 0.1998,
      "velocity": 110,
      "chip": "ym2612"
    },
    {
      "channel": 2,
      "note": 69,
      "start": 18.0012,
      "duration": 0.1998,
      "velocity": 110,
      "chip": "ym2612"
    },
    {
      "channel": 1,
      "note": 55,
      "start": 18.2007,
      "duration": 0.4013,
      "velocity": 115,
      "chip": "ym2612"
    },
    {
      "channel": 2,
      "note": 62,
      "start": 18.2012,
      "duration": 2.2013,
      "velocity": 110,
      "chip": "ym2612"
    },
    {
      "channel": 3,
      "note": 112,
      "start": 18.2017,
      "duration": 0.0989,
      "velocity": 100,
      "chip": "ym2612"
    },
    {
      "channel": 3,
      "note": 112,
      "start": 18.3008,
      "duration": 0.0998,
      "velocity": 100,
      "chip": "ym2612"
    },
    {
      "channel": 3,
      "note": 112,
      "start": 18.4008,
      "duration": 0.2017,
      "velocity": 100,
      "chip": "ym2612"
    },
    {
      "channel": 1,
      "note": 31,
      "start": 18.6021,
      "duration": 0.3988,
      "velocity": 115,
      "chip": "ym2612"
    },
    {
      "channel": 3,
      "note": 112,
      "start": 18.6027,
      "duration": 1.3999,
      "velocity": 115,
      "chip": "ym2612"
    },
    {
      "channel": 0,
      "note": 45,
      "start": 19.0007,
      "duration": 0.2,
      "velocity": 113,
      "chip": "ym2612"
    },
    {
      "channel": 1,
      "note": 31,
      "start": 19.0012,
      "duration": 0.5999,
      "velocity": 115,
      "chip": "ym2612"
    },
    {
      "channel": 0,
      "note": 47,
      "start": 19.2008,
      "duration": 0.1996,
      "velocity": 113,
      "chip": "ym2612"
    },
    {
      "channel": 4,
      "note": 112,
      "start": 19.203,
      "duration": 0.5976,
      "velocity": 100,
      "chip": "ym2612"
    },
    {
      "channel": 0,
      "note": 59,
      "start": 19.4007,
      "duration": 0.1998,
      "velocity": 113,
      "chip": "ym2612"
    },
    {
      "channel": 0,
      "note": 47,
      "start": 19.6007,
      "duration": 2.5999,
      "velocity": 113,
      "chip": "ym2612"
    },
    {
      "channel": 1,
      "note": 31,
      "start": 19.6012,
      "duration": 0.3994,
      "velocity": 115,
      "chip": "ym2612"
    },
    {
      "channel": 4,
      "note": 112,
      "start": 19.8008,
      "duration": 0.0998,
      "velocity": 100,
      "chip": "ym2612"
    },
    {
      "channel": 4,
      "note": 112,
      "start": 19.9008,
      "duration": 0.1022,
      "velocity": 100,
      "chip": "ym2612"
    },
    {
      "channel": 1,
      "note": 31,
      "start": 20.0008,
      "duration": 0.4012,
      "velocity": 110,
      "chip": "ym2612"
    },
    {
      "channel": 3,
      "note": 73,
      "start": 20.0028,
      "duration": 0.1979,
      "velocity": 115,
      "chip": "ym2612"
    },
    {
      "channel": 4,
      "note": 112,
      "start": 20.0033,
      "duration": 0.1979,
      "velocity": 100,
      "chip": "ym2612"
    },
    {
      "channel": 5,
      "note": 85,
      "start": 20.0052,
      "duration": 0.1964,
      "velocity": 110,
      "chip": "ym2612"
    },
    {
      "channel": 3,
      "note": 74,
      "start": 20.2008,
      "duration": 0.4008,
      "velocity": 115,
      "chip": "ym2612"
    },
    {
      "channel": 4,
      "note": 112,
      "start": 20.2014,
      "duration": 0.6002,
      "velocity": 100,
      "chip": "ym2612"
    },
    {
      "channel": 5,
      "note": 86,
      "start": 20.2019,
      "duration": 0.4003,
      "velocity": 110,
      "chip": "ym2612"
    },
    {
      "channel": 1,
      "note": 57,
      "start": 20.4021,
      "duration": 0.1985,
      "velocity": 110,
      "chip": "ym2612"
    },
    {
      "channel": 2,
      "note": 64,
      "start": 20.4027,
      "duration": 0.1984,
      "velocity": 110,
      "chip": "ym2612"
    },
    {
      "channel": 1,
      "note": 59,
      "start": 20.6008,
      "duration": 0.1997,
      "velocity": 110,
      "chip": "ym2612"
    },
    {
      "channel": 2,
      "note": 66,
      "start": 20.6013,
      "duration": 0.1998,
      "velocity": 110,
      "chip": "ym2612"
    },
    {
      "channel": 3,
      "note": 69,
      "start": 20.6018,
      "duration": 1.5998,
      "velocity": 115,
      "chip": "ym2612"
    },
    {
      "channel": 5,
      "note": 81,
      "start": 20.6024,
      "duration": 73.9226,
      "velocity": 115,
      "chip": "ym2612"
    },
    {
      "channel": 1,
      "note": 62,
      "start": 20.8007,
      "duration": 0.1998,
      "velocity": 110,
      "chip": "ym2612"
    },
    {
      "channel": 2,
      "note": 69,
      "start": 20.8012,
      "duration": 0.1998,
      "velocity": 110,
      "chip": "ym2612"
    },
    {
      "channel": 4,
      "note": 112,
      "start": 20.8018,
      "duration": 0.5998,
      "velocity": 100,
      "chip": "ym2612"
    },
    {
      "channel": 1,
      "note": 64,
      "start": 21.0007,
      "duration": 0.1998,
      "velocity": 110,
      "chip": "ym2612"
    },
    {
      "channel": 2,
      "note": 71,
      "start": 21.0012,
      "duration": 0.1998,
      "velocity": 110,
      "chip": "ym2612"
    },
    {
      "channel": 1,
      "note": 57,
      "start": 21.2007,
      "duration": 0.1998,
      "velocity": 110,
      "chip": "ym2612"
    },
    {
      "channel": 2,
      "note": 64,
      "start": 21.2012,
      "duration": 0.1998,
      "velocity": 110,
      "chip": "ym2612"
    },
    {
      "channel": 1,
      "note": 59,
      "start": 21.4007,
      "duration": 0.4013,
      "velocity": 115,
      "chip": "ym2612"
    },
    {
      "channel": 2,
      "note": 66,
      "start": 21.4012,
      "duration": 2.2013,
      "velocity": 110,
      "chip": "ym2612"
    },
    {
      "channel": 4,
      "note": 112,
      "start": 21.4018,
      "duration": 0.0989,
      "velocity": 100,
      "chip": "ym2612"
    },
    {
      "channel": 4,
      "note": 112,
      "start": 21.5009,
      "duration": 0.0998,
      "velocity": 100,
      "chip": "ym2612"
    },
    {
      "channel": 4,
      "note": 112,
      "start": 21.6008,
      "duration": 0.2017,
      "velocity": 100,
      "chip": "ym2612"
    },
    {
      "channel": 1,
      "note": 31,
      "start": 21.8021,
      "duration": 0.3988,
      "velocity": 115,
      "chip": "ym2612"
    },
    {
      "channel": 4,
      "note": 112,
      "start": 21.8028,
      "duration": 0.5988,
      "velocity": 100,
      "chip": "ym2612"
    },
    {
      "channel": 0,
      "note": 45,
      "start": 22.2007,
      "duration": 0.1999,
      "velocity": 113,
      "chip": "ym2612"
    },
    {
      "channel": 1,
      "note": 31,
      "start": 22.2012,
      "duration": 0.5998,
      "velocity": 115,
      "chip": "ym2612"
    },
    {
      "channel": 3,
      "note": 64,
      "start": 22.2017,
      "duration": 0.1994,
      "velocity": 115,
      "chip": "ym2612"
    },
    {
      "channel": 0,
      "note": 47,
      "start": 22.4007,
      "duration": 0.1998,
      "velocity": 113,
      "chip": "ym2612"
    },
    {
      "channel": 3,
      "note": 66,
      "start": 22.4013,
      "duration": 0.7998,
      "velocity": 115,
      "chip": "ym2612"
    },
    {
      "channel": 4,
      "note": 112,
      "start": 22.4018,
      "duration": 0.5989,
      "velocity": 100,
      "chip": "ym2612"
    },
    {
      "channel": 0,
      "note": 59,
      "start": 22.6007,
      "duration": 0.1998,
      "velocity": 113,
      "chip": "ym2612"
    },
    {
      "channel": 0,
      "note": 47,
      "start": 22.8007,
      "duration": 2.4341,
      "velocity": 113,
      "chip": "ym2612"
    },
    {
      "channel": 1,
      "note": 31,
      "start": 22.8012,
      "duration": 0.3994,
      "velocity": 115,
      "chip": "ym2612"
    },
    {
      "channel": 4,
      "note": 112,
      "start": 23.0008,
      "duration": 0.0998,
      "velocity": 100,
      "chip": "ym2612"
    },
    {
      "channel": 4,
      "note": 112,
      "start": 23.1008,
      "duration": 0.1008,
      "velocity": 100,
      "chip": "ym2612"
    },
    {
      "channel": 1,
      "note": 31,
      "start": 23.2007,
      "duration": 0.4013,
      "velocity": 110,
      "chip": "ym2612"
    },
    {
      "channel": 3,
      "note": 71,
      "start": 23.2013,
      "duration": 0.1994,
      "velocity": 115,
      "chip": "ym2612"
    },
    {
      "channel": 4,
      "note": 112,
      "start": 23.2018,
      "duration": 0.1994,
      "velocity": 100,
      "chip": "ym2612"
    },
    {
      "channel": 3,
      "note": 69,
      "start": 23.4008,
      "duration": 0.2022,
      "velocity": 115,
      "chip": "ym2612"
    },
    {
      "channel": 4,
      "note": 112,
      "start": 23.4014,
      "duration": 0.6003,
      "velocity": 100,
      "chip": "ym2612"
    },
    {
      "channel": 1,
      "note": 57,
      "start": 23.6022,
      "duration": 0.1983,
      "velocity": 110,
      "chip": "ym2612"
    },
    {
      "channel": 2,
      "note": 64,
      "start": 23.6027,
      "duration": 0.1983,
      "velocity": 110,
      "chip": "ym2612"
    },
    {
      "channel": 3,
      "note": 64,
      "start": 23.6032,
      "duration": 0.1983,
      "velocity": 115,
      "chip": "ym2612"
    },
    {
      "channel": 1,
      "note": 59,
      "start": 23.8007,
      "duration": 0.1999,
      "velocity": 110,
      "chip": "ym2612"
    },
    {
      "channel": 2,
      "note": 66,
      "start": 23.8012,
      "duration": 0.1999,
      "velocity": 110,
      "chip": "ym2612"
    },
    {
      "channel": 3,
      "note": 62,
      "start": 23.8017,
      "duration": 1.6092,
      "velocity": 1,
      "chip": "ym2612"
    },
    {
      "channel": 1,
      "note": 66,
      "start": 24.0007,
      "duration": 0.1763,
      "velocity": 110,
      "chip": "ym2612"
    },
    {
      "channel": 2,
      "note": 71,
      "start": 24.0012,
      "duration": 0.1763,
      "velocity": 110,
      "chip": "ym2612"
    },
    {
      "channel": 4,
      "note": 112,
      "start": 24.0018,
      "duration": 0.5356,
      "velocity": 100,
      "chip": "ym2612"
    },
    {
      "channel": 1,
      "note": 62,
      "start": 24.1772,
      "duration": 0.1741,
      "velocity": 110,
      "chip": "ym2612"
    },
    {
      "channel": 2,
      "note": 66,
      "start": 24.1777,
      "duration": 0.1741,
      "velocity": 110,
      "chip": "ym2612"
    },
    {
      "channel": 1,
      "note": 64,
      "start": 24.3515,
      "duration": 0.1848,
      "velocity": 110,
      "chip": "ym2612"
    },
    {
      "channel": 2,
      "note": 69,
      "start": 24.352,
      "duration": 0.1849,
      "velocity": 110,
      "chip": "ym2612"
    },
    {
      "channel": 1,
      "note": 55,
      "start": 24.5365,
      "duration": 0.3477,
      "velocity": 115,
      "chip": "ym2612"
    },
    {
      "channel": 2,
      "note": 62,
      "start": 24.537,
      "duration": 0.8719,
      "velocity": 121,
      "chip": "ym2612"
    },
    {
      "channel": 4,
      "note": 112,
      "start": 24.5376,
      "duration": 0.0851,
      "velocity": 100,
      "chip": "ym2612"
    },
    {
      "channel": 4,
      "note": 112,
      "start": 24.6229,
      "duration": 0.086,
      "velocity": 100,
      "chip": "ym2612"
    },
    {
      "channel": 4,
      "note": 112,
      "start": 24.709,
      "duration": 0.1758,
      "velocity": 100,
      "chip": "ym2612"
    },
    {
      "channel": 1,
      "note": 31,
      "start": 24.8844,
      "duration": 0.3509,
      "velocity": 115,
      "chip": "ym2612"
    },
    {
      "channel": 4,
      "note": 112,
      "start": 24.8849,
      "duration": 0.5265,
      "velocity": 100,
      "chip": "ym2612"
    },
    {
      "channel": 0,
      "note": 45,
      "start": 25.2349,
      "duration": 0.172,
      "velocity": 113,
      "chip": "ym2612"
    },
    {
      "channel": 1,
      "note": 31,
      "start": 25.2354,
      "duration": 0.5294,
      "velocity": 115,
      "chip": "ym2612"
    },
    {
      "channel": 0,
      "note": 47,
      "start": 25.4071,
      "duration": 0.1765,
      "velocity": 113,
      "chip": "ym2612"
    },
    {
      "channel": 2,
      "note": 95,
      "start": 25.4091,
      "duration": 1.2597,
      "velocity": 121,
      "chip": "ym2612"
    },
    {
      "channel": 3,
      "note": 79,
      "start": 25.4111,
      "duration": 0.3572,
      "velocity": 121,
      "chip": "ym2612"
    },
    {
      "channel": 4,
      "note": 112,
      "start": 25.4116,
      "duration": 0.531,
      "velocity": 100,
      "chip": "ym2612"
    },
    {
      "channel": 0,
      "note": 59,
      "start": 25.5838,
      "duration": 0.1805,
      "velocity": 113,
      "chip": "ym2612"
    },
    {
      "channel": 0,
      "note": 47,
      "start": 25.7644,
      "duration": 2.3226,
      "velocity": 113,
      "chip": "ym2612"
    },
    {
      "channel": 1,
      "note": 31,
      "start": 25.765,
      "duration": 0.3557,
      "velocity": 115,
      "chip": "ym2612"
    },
    {
      "channel": 3,
      "note": 95,
      "start": 25.7685,
      "duration": 1.2554,
      "velocity": 121,
      "chip": "ym2612"
    },
    {
      "channel": 4,
      "note": 112,
      "start": 25.9428,
      "duration": 0.0899,
      "velocity": 100,
      "chip": "ym2612"
    },
    {
      "channel": 4,
      "note": 112,
      "start": 26.0328,
      "duration": 0.0885,
      "velocity": 100,
      "chip": "ym2612"
    },
    {
      "channel": 1,
      "note": 31,
      "start": 26.1209,
      "duration": 0.3722,
      "velocity": 110,
      "chip": "ym2612"
    },
    {
      "channel": 4,
      "note": 112,
      "start": 26.1215,
      "duration": 0.1924,
      "velocity": 100,
      "chip": "ym2612"
    },
    {
      "channel": 4,
      "note": 112,
      "start": 26.314,
      "duration": 0.5346,
      "velocity": 100,
      "chip": "ym2612"
    },
    {
      "channel": 1,
      "note": 57,
      "start": 26.4933,
      "duration": 0.1747,
      "velocity": 110,
      "chip": "ym2612"
    },
    {
      "channel": 1,
      "note": 59,
      "start": 26.6682,
      "duration": 0.1782,
      "velocity": 110,
      "chip": "ym2612"
    },
    {
      "channel": 2,
      "note": 95,
      "start": 26.6688,
      "duration": 0.0262,
      "velocity": 121,
      "chip": "ym2612"
    },
    {
      "channel": 2,
      "note": 95,
      "start": 26.6951,
      "duration": 0.0137,
      "velocity": 121,
      "chip": "ym2612"
    },
    {
      "channel": 2,
      "note": 94,
      "start": 26.7088,
      "duration": 0.0136,
      "velocity": 121,
      "chip": "ym2612"
    },
    {
      "channel": 2,
      "note": 94,
      "start": 26.7224,
      "duration": 0.0158,
      "velocity": 121,
      "chip": "ym2612"
    },
    {
      "channel": 2,
      "note": 94,
      "start": 26.7382,
      "duration": 0.0141,
      "velocity": 121,
      "chip": "ym2612"
    },
    {
      "channel": 2,
      "note": 94,
      "start": 26.7522,
      "duration": 0.0309,
      "velocity": 121,
      "chip": "ym2612"
    },
    {
      "channel": 2,
      "note": 94,
      "start": 26.7832,
      "duration": 0.0157,
      "velocity": 121,
      "chip": "ym2612"
    },
    {
      "channel": 2,
      "note": 93,
      "start": 26.7989,
      "duration": 0.0157,
      "velocity": 121,
      "chip": "ym2612"
    },
    {
      "channel": 2,
      "note": 93,
      "start": 26.8146,
      "duration": 0.0157,
      "velocity": 121,
      "chip": "ym2612"
    },
    {
      "channel": 2,
      "note": 93,
      "start": 26.8303,
      "duration": 1.7883,
      "velocity": 121,
      "chip": "ym2612"
    },
    {
      "channel": 1,
      "note": 62,
      "start": 26.8466,
      "duration": 0.1765,
      "velocity": 110,
      "chip": "ym2612"
    },
    {
      "channel": 4,
      "note": 112,
      "start": 26.8487,
      "duration": 0.5232,
      "velocity": 100,
      "chip": "ym2612"
    },
    {
      "channel": 1,
      "note": 64,
      "start": 27.0232,
      "duration": 0.1739,
      "velocity": 110,
      "chip": "ym2612"
    },
    {
      "channel": 3,
      "note": 95,
      "start": 27.0239,
      "duration": 0.0264,
      "velocity": 121,
      "chip": "ym2612"
    },
    {
      "channel": 3,
      "note": 95,
      "start": 27.0502,
      "duration": 0.0136,
      "velocity": 121,
      "chip": "ym2612"
    },
    {
      "channel": 3,
      "note": 94,
      "start": 27.0638,
      "duration": 0.0135,
      "velocity": 121,
      "chip": "ym2612"
    },
    {
      "channel": 3,
      "note": 94,
      "start": 27.0774,
      "duration": 0.0138,
      "velocity": 121,
      "chip": "ym2612"
    },
    {
      "channel": 3,
      "note": 94,
      "start": 27.0912,
      "duration": 0.0163,
      "velocity": 121,
      "chip": "ym2612"
    },
    {
      "channel": 3,
      "note": 94,
      "start": 27.1075,
      "duration": 0.0268,
      "velocity": 121,
      "chip": "ym2612"
    },
    {
      "channel": 3,
      "note": 94,
      "start": 27.1343,
      "duration": 0.0135,
      "velocity": 121,
      "chip": "ym2612"
    },
    {
      "channel": 3,
      "note": 93,
      "start": 27.1478,
      "duration": 0.0156,
      "velocity": 121,
      "chip": "ym2612"
    },
    {
      "channel": 3,
      "note": 93,
      "start": 27.1634,
      "duration": 0.0167,
      "velocity": 121,
      "chip": "ym2612"
    },
    {
      "channel": 3,
      "note": 93,
      "start": 27.18,
      "duration": 1.7909,
      "velocity": 121,
      "chip": "ym2612"
    },
    {
      "channel": 1,
      "note": 57,
      "start": 27.1972,
      "duration": 0.1741,
      "velocity": 110,
      "chip": "ym2612"
    },
    {
      "channel": 1,
      "note": 59,
      "start": 27.3715,
      "duration": 0.3729,
      "velocity": 115,
      "chip": "ym2612"
    },
    {
      "channel": 4,
      "note": 112,
      "start": 27.3721,
      "duration": 0.0853,
      "velocity": 100,
      "chip": "ym2612"
    },
    {
      "channel": 4,
      "note": 112,
      "start": 27.4575,
      "duration": 0.0915,
      "velocity": 100,
      "chip": "ym2612"
    },
    {
      "channel": 4,
      "note": 112,
      "start": 27.5492,
      "duration": 0.1959,
      "velocity": 100,
      "chip": "ym2612"
    },
    {
      "channel": 1,
      "note": 31,
      "start": 27.7446,
      "duration": 0.343,
      "velocity": 115,
      "chip": "ym2612"
    },
    {
      "channel": 4,
      "note": 112,
      "start": 27.7452,
      "duration": 0.5167,
      "velocity": 100,
      "chip": "ym2612"
    },
    {
      "channel": 0,
      "note": 45,
      "start": 28.0873,
      "duration": 0.174,
      "velocity": 113,
      "chip": "ym2612"
    },
    {
      "channel": 1,
      "note": 31,
      "start": 28.0878,
      "duration": 0.5289,
      "velocity": 115,
      "chip": "ym2612"
    },
    {
      "channel": 0,
      "note": 47,
      "start": 28.2614,
      "duration": 0.1739,
      "velocity": 113,
      "chip": "ym2612"
    },
    {
      "channel": 4,
      "note": 112,
      "start": 28.2621,
      "duration": 0.5349,
      "velocity": 100,
      "chip": "ym2612"
    },
    {
      "channel": 0,
      "note": 59,
      "start": 28.4354,
      "duration": 0.1807,
      "velocity": 113,
      "chip": "ym2612"
    },
    {
      "channel": 0,
      "note": 47,
      "start": 28.6163,
      "duration": 2.325,
      "velocity": 113,
      "chip": "ym2612"
    },
    {
      "channel": 1,
      "note": 31,
      "start": 28.6168,
      "duration": 0.3535,
      "velocity": 115,
      "chip": "ym2612"
    },
    {
      "channel": 2,
      "note": 88,
      "start": 28.6187,
      "duration": 0.1778,
      "velocity": 121,
      "chip": "ym2612"
    },
    {
      "channel": 2,
      "note": 90,
      "start": 28.7967,
      "duration": 3.766,
      "velocity": 121,
      "chip": "ym2612"
    },
    {
      "channel": 4,
      "note": 112,
      "start": 28.7972,
      "duration": 0.0852,
      "velocity": 100,
      "chip": "ym2612"
    },
    {
      "channel": 4,
      "note": 112,
      "start": 28.8825,
      "duration": 0.0889,
      "velocity": 100,
      "chip": "ym2612"
    },
    {
      "channel": 1,
      "note": 31,
      "start": 28.9705,
      "duration": 0.3711,
      "velocity": 110,
      "chip": "ym2612"
    },
    {
      "channel": 3,
      "note": 88,
      "start": 28.9711,
      "duration": 0.1923,
      "velocity": 121,
      "chip": "ym2612"
    },
    {
      "channel": 4,
      "note": 112,
      "start": 28.9716,
      "duration": 0.1923,
      "velocity": 100,
      "chip": "ym2612"
    },
    {
      "channel": 3,
      "note": 90,
      "start": 29.1636,
      "duration": 3.7526,
      "velocity": 121,
      "chip": "ym2612"
    },
    {
      "channel": 4,
      "note": 112,
      "start": 29.1641,
      "duration": 0.5269,
      "velocity": 100,
      "chip": "ym2612"
    },
    {
      "channel": 1,
      "note": 57,
      "start": 29.3418,
      "duration": 0.1748,
      "velocity": 110,
      "chip": "ym2612"
    },
    {
      "channel": 1,
      "note": 59,
      "start": 29.5168,
      "duration": 0.1736,
      "velocity": 110,
      "chip": "ym2612"
    },
    {
      "channel": 1,
      "note": 66,
      "start": 29.6906,
      "duration": 0.1756,
      "velocity": 110,
      "chip": "ym2612"
    },
    {
      "channel": 4,
      "note": 112,
      "start": 29.6912,
      "duration": 0.5324,
      "velocity": 100,
      "chip": "ym2612"
    },
    {
      "channel": 1,
      "note": 62,
      "start": 29.8664,
      "duration": 0.1806,
      "velocity": 110,
      "chip": "ym2612"
    },
    {
      "channel": 1,
      "note": 64,
      "start": 30.0472,
      "duration": 0.1758,
      "velocity": 110,
      "chip": "ym2612"
    },
    {
      "channel": 1,
      "note": 55,
      "start": 30.2232,
      "duration": 0.3692,
      "velocity": 115,
      "chip": "ym2612"
    },
    {
      "channel": 4,
      "note": 112,
      "start": 30.2238,
      "duration": 0.0854,
      "velocity": 100,
      "chip": "ym2612"
    },
    {
      "channel": 4,
      "note": 112,
      "start": 30.3093,
      "duration": 0.0859,
      "velocity": 100,
      "chip": "ym2612"
    },
    {
      "channel": 4,
      "note": 112,
      "start": 30.3954,
      "duration": 0.1976,
      "velocity": 100,
      "chip": "ym2612"
    },
    {
      "channel": 1,
      "note": 31,
      "start": 30.5925,
      "duration": 0.3493,
      "velocity": 115,
      "chip": "ym2612"
    },
    {
      "channel": 4,
      "note": 112,
      "start": 30.5931,
      "duration": 0.5293,
      "velocity": 100,
      "chip": "ym2612"
    },
    {
      "channel": 0,
      "note": 45,
      "start": 30.9415,
      "duration": 0.1803,
      "velocity": 113,
      "chip": "ym2612"
    },
    {
      "channel": 1,
      "note": 31,
      "start": 30.942,
      "duration": 0.5453,
      "velocity": 115,
      "chip": "ym2612"
    },
    {
      "channel": 0,
      "note": 47,
      "start": 31.1218,
      "duration": 0.1798,
      "velocity": 113,
      "chip": "ym2612"
    },
    {
      "channel": 4,
      "note": 112,
      "start": 31.1226,
      "duration": 0.5404,
      "velocity": 100,
      "chip": "ym2612"
    },
    {
      "channel": 0,
      "note": 59,
      "start": 31.3018,
      "duration": 0.1849,
      "velocity": 113,
      "chip": "ym2612"
    },
    {
      "channel": 0,
      "note": 47,
      "start": 31.487,
      "duration": 2.325,
      "velocity": 113,
      "chip": "ym2612"
    },
    {
      "channel": 1,
      "note": 31,
      "start": 31.4875,
      "duration": 0.3515,
      "velocity": 115,
      "chip": "ym2612"
    },
    {
      "channel": 4,
      "note": 112,
      "start": 31.6632,
      "duration": 0.0899,
      "velocity": 100,
      "chip": "ym2612"
    },
    {
      "channel": 4,
      "note": 112,
      "start": 31.7532,
      "duration": 0.0863,
      "velocity": 100,
      "chip": "ym2612"
    },
    {
      "channel": 1,
      "note": 31,
      "start": 31.839,
      "duration": 0.3708,
      "velocity": 110,
      "chip": "ym2612"
    },
    {
      "channel": 4,
      "note": 112,
      "start": 31.8397,
      "duration": 0.195,
      "velocity": 100,
      "chip": "ym2612"
    },
    {
      "channel": 4,
      "note": 112,
      "start": 32.0348,
      "duration": 0.5285,
      "velocity": 100,
      "chip": "ym2612"
    },
    {
      "channel": 1,
      "note": 57,
      "start": 32.21,
      "duration": 0.1747,
      "velocity": 110,
      "chip": "ym2612"
    },
    {
      "channel": 1,
      "note": 59,
      "start": 32.3849,
      "duration": 0.1759,
      "velocity": 110,
      "chip": "ym2612"
    },
    {
      "channel": 1,
      "note": 62,
      "start": 32.5609,
      "duration": 0.1722,
      "velocity": 110,
      "chip": "ym2612"
    },
    {
      "channel": 2,
      "note": 88,
      "start": 32.5629,
      "duration": 0.1708,
      "velocity": 121,
      "chip": "ym2612"
    },
    {
      "channel": 4,
      "note": 112,
      "start": 32.5635,
      "duration": 0.5274,
      "velocity": 100,
      "chip": "ym2612"
    },
    {
      "channel": 1,
      "note": 64,
      "start": 32.7334,
      "duration": 0.1818,
      "velocity": 110,
      "chip": "ym2612"
    },
    {
      "channel": 2,
      "note": 86,
      "start": 32.7339,
      "duration": 0.1818,
      "velocity": 121,
      "chip": "ym2612"
    },
    {
      "channel": 1,
      "note": 57,
      "start": 32.9154,
      "duration": 0.174,
      "velocity": 110,
      "chip": "ym2612"
    },
    {
      "channel": 2,
      "note": 81,
      "start": 32.9159,
      "duration": 0.174,
      "velocity": 121,
      "chip": "ym2612"
    },
    {
      "channel": 3,
      "note": 88,
      "start": 32.9163,
      "duration": 0.174,
      "velocity": 121,
      "chip": "ym2612"
    },
    {
      "channel": 1,
      "note": 59,
      "start": 33.0895,
      "duration": 0.3708,
      "velocity": 115,
      "chip": "ym2612"
    },
    {
      "channel": 2,
      "note": 79,
      "start": 33.09,
      "duration": 2.1557,
      "velocity": 121,
      "chip": "ym2612"
    },
    {
      "channel": 3,
      "note": 86,
      "start": 33.0905,
      "duration": 0.1754,
      "velocity": 121,
      "chip": "ym2612"
    },
    {
      "channel": 4,
      "note": 112,
      "start": 33.0911,
      "duration": 0.0847,
      "velocity": 100,
      "chip": "ym2612"
    },
    {
      "channel": 4,
      "note": 112,
      "start": 33.1759,
      "duration": 0.0905,
      "velocity": 100,
      "chip": "ym2612"
    },
    {
      "channel": 3,
      "note": 81,
      "start": 33.2661,
      "duration": 0.1962,
      "velocity": 121,
      "chip": "ym2612"
    },
    {
      "channel": 4,
      "note": 112,
      "start": 33.2666,
      "duration": 0.1962,
      "velocity": 100,
      "chip": "ym2612"
    },
    {
      "channel": 1,
      "note": 31,
      "start": 33.4605,
      "duration": 0.352,
      "velocity": 115,
      "chip": "ym2612"
    },
    {
      "channel": 3,
      "note": 79,
      "start": 33.4625,
      "duration": 2.1335,
      "velocity": 121,
      "chip": "ym2612"
    },
    {
      "channel": 4,
      "note": 112,
      "start": 33.463,
      "duration": 0.5238,
      "velocity": 100,
      "chip": "ym2612"
    },
    {
      "channel": 0,
      "note": 45,
      "start": 33.8121,
      "duration": 0.1741,
      "velocity": 113,
      "chip": "ym2612"
    },
    {
      "channel": 1,
      "note": 31,
      "start": 33.8126,
      "duration": 0.5332,
      "velocity": 115,
      "chip": "ym2612"
    },
    {
      "channel": 0,
      "note": 47,
      "start": 33.9863,
      "duration": 0.1739,
      "velocity": 113,
      "chip": "ym2612"
    },
    {
      "channel": 4,
      "note": 112,
      "start": 33.9871,
      "duration": 0.5385,
      "velocity": 100,
      "chip": "ym2612"
    },
    {
      "channel": 0,
      "note": 59,
      "start": 34.1604,
      "duration": 0.1849,
      "velocity": 113,
      "chip": "ym2612"
    },
    {
      "channel": 0,
      "note": 47,
      "start": 34.3454,
      "duration": 2.3204,
      "velocity": 113,
      "chip": "ym2612"
    },
    {
      "channel": 1,
      "note": 31,
      "start": 34.3459,
      "duration": 0.3577,
      "velocity": 115,
      "chip": "ym2612"
    },
    {
      "channel": 4,
      "note": 112,
      "start": 34.5258,
      "duration": 0.0878,
      "velocity": 100,
      "chip": "ym2612"
    },
    {
      "channel": 4,
      "note": 112,
      "start": 34.6137,
      "duration": 0.0905,
      "velocity": 100,
      "chip": "ym2612"
    },
    {
      "channel": 1,
      "note": 31,
      "start": 34.7038,
      "duration": 0.3663,
      "velocity": 110,
      "chip": "ym2612"
    },
    {
      "channel": 4,
      "note": 112,
      "start": 34.7044,
      "duration": 0.1928,
      "velocity": 100,
      "chip": "ym2612"
    },
    {
      "channel": 4,
      "note": 112,
      "start": 34.8973,
      "duration": 0.5247,
      "velocity": 100,
      "chip": "ym2612"
    },
    {
      "channel": 1,
      "note": 57,
      "start": 35.0703,
      "duration": 0.1746,
      "velocity": 110,
      "chip": "ym2612"
    },
    {
      "channel": 1,
      "note": 59,
      "start": 35.2451,
      "duration": 0.1762,
      "velocity": 110,
      "chip": "ym2612"
    },
    {
      "channel": 2,
      "note": 79,
      "start": 35.2457,
      "duration": 0.0262,
      "velocity": 121,
      "chip": "ym2612"
    },
    {
      "channel": 2,
      "note": 79,
      "start": 35.272,
      "duration": 0.0137,
      "velocity": 121,
      "chip": "ym2612"
    },
    {
      "channel": 2,
      "note": 79,
      "start": 35.2857,
      "duration": 0.0136,
      "velocity": 121,
      "chip": "ym2612"
    },
    {
      "channel": 2,
      "note": 79,
      "start": 35.2993,
      "duration": 0.0137,
      "velocity": 121,
      "chip": "ym2612"
    },
    {
      "channel": 2,
      "note": 78,
      "start": 35.3129,
      "duration": 0.0142,
      "velocity": 121,
      "chip": "ym2612"
    },
    {
      "channel": 2,
      "note": 78,
      "start": 35.3271,
      "duration": 0.0309,
      "velocity": 121,
      "chip": "ym2612"
    },
    {
      "channel": 2,
      "note": 78,
      "start": 35.358,
      "duration": 0.0157,
      "velocity": 121,
      "chip": "ym2612"
    },
    {
      "channel": 2,
      "note": 78,
      "start": 35.3737,
      "duration": 0.0156,
      "velocity": 121,
      "chip": "ym2612"
    },
    {
      "channel": 2,
      "note": 78,
      "start": 35.3894,
      "duration": 0.0158,
      "velocity": 121,
      "chip": "ym2612"
    },
    {
      "channel": 2,
      "note": 78,
      "start": 35.4052,
      "duration": 1.4364,
      "velocity": 111,
      "chip": "ym2612"
    },
    {
      "channel": 1,
      "note": 66,
      "start": 35.4215,
      "duration": 0.1737,
      "velocity": 110,
      "chip": "ym2612"
    },
    {
      "channel": 4,
      "note": 112,
      "start": 35.4222,
      "duration": 0.5199,
      "velocity": 100,
      "chip": "ym2612"
    },
    {
      "channel": 1,
      "note": 62,
      "start": 35.5954,
      "duration": 0.1717,
      "velocity": 110,
      "chip": "ym2612"
    },
    {
      "channel": 3,
      "note": 79,
      "start": 35.5961,
      "duration": 0.0263,
      "velocity": 121,
      "chip": "ym2612"
    },
    {
      "channel": 3,
      "note": 79,
      "start": 35.6224,
      "duration": 0.0135,
      "velocity": 121,
      "chip": "ym2612"
    },
    {
      "channel": 3,
      "note": 79,
      "start": 35.6359,
      "duration": 0.0137,
      "velocity": 121,
      "chip": "ym2612"
    },
    {
      "channel": 3,
      "note": 79,
      "start": 35.6496,
      "duration": 0.0138,
      "velocity": 121,
      "chip": "ym2612"
    },
    {
      "channel": 3,
      "note": 78,
      "start": 35.6634,
      "duration": 0.0142,
      "velocity": 121,
      "chip": "ym2612"
    },
    {
      "channel": 3,
      "note": 78,
      "start": 35.6776,
      "duration": 0.0266,
      "velocity": 121,
      "chip": "ym2612"
    },
    {
      "channel": 3,
      "note": 78,
      "start": 35.7042,
      "duration": 0.0138,
      "velocity": 121,
      "chip": "ym2612"
    },
    {
      "channel": 3,
      "note": 78,
      "start": 35.718,
      "duration": 0.0156,
      "velocity": 121,
      "chip": "ym2612"
    },
    {
      "channel": 3,
      "note": 78,
      "start": 35.7335,
      "duration": 0.0167,
      "velocity": 121,
      "chip": "ym2612"
    },
    {
      "channel": 3,
      "note": 78,
      "start": 35.7502,
      "duration": 1.4468,
      "velocity": 96,
      "chip": "ym2612"
    },
    {
      "channel": 1,
      "note": 64,
      "start": 35.7674,
      "duration": 0.1741,
      "velocity": 110,
      "chip": "ym2612"
    },
    {
      "channel": 1,
      "note": 55,
      "start": 35.9417,
      "duration": 0.3731,
      "velocity": 115,
      "chip": "ym2612"
    },
    {
      "channel": 4,
      "note": 112,
      "start": 35.9422,
      "duration": 0.0853,
      "velocity": 100,
      "chip": "ym2612"
    },
    {
      "channel": 4,
      "note": 112,
      "start": 36.0277,
      "duration": 0.09,
      "velocity": 100,
      "chip": "ym2612"
    },
    {
      "channel": 4,
      "note": 112,
      "start": 36.1178,
      "duration": 0.1976,
      "velocity": 100,
      "chip": "ym2612"
    },
    {
      "channel": 1,
      "note": 31,
      "start": 36.315,
      "duration": 0.3514,
      "velocity": 115,
      "chip": "ym2612"
    },
    {
      "channel": 4,
      "note": 112,
      "start": 36.3156,
      "duration": 0.5266,
      "velocity": 100,
      "chip": "ym2612"
    },
    {
      "channel": 0,
      "note": 45,
      "start": 36.6659,
      "duration": 0.1718,
      "velocity": 113,
      "chip": "ym2612"
    },
    {
      "channel": 1,
      "note": 31,
      "start": 36.6664,
      "duration": 0.1732,
      "velocity": 111,
      "chip": "ym2612"
    },
    {
      "channel": 0,
      "note": 52,
      "start": 36.8379,
      "duration": 0.1765,
      "velocity": 113,
      "chip": "ym2612"
    },
    {
      "channel": 1,
      "note": 79,
      "start": 36.8398,
      "duration": 1.4286,
      "velocity": 111,
      "chip": "ym2612"
    },
    {
      "channel": 2,
      "note": 83,
      "start": 36.8418,
      "duration": 1.4271,
      "velocity": 111,
      "chip": "ym2612"
    },
    {
      "channel": 4,
      "note": 112,
      "start": 36.8424,
      "duration": 0.5313,
      "velocity": 100,
      "chip": "ym2612"
    },
    {
      "channel": 0,
      "note": 64,
      "start": 37.0146,
      "duration": 0.1804,
      "velocity": 113,
      "chip": "ym2612"
    },
    {
      "channel": 0,
      "note": 50,
      "start": 37.1951,
      "duration": 0.1779,
      "velocity": 113,
      "chip": "ym2612"
    },
    {
      "channel": 3,
      "note": 91,
      "start": 37.1972,
      "duration": 0.3541,
      "velocity": 96,
      "chip": "ym2612"
    },
    {
      "channel": 0,
      "note": 52,
      "start": 37.3732,
      "duration": 1.0693,
      "velocity": 113,
      "chip": "ym2612"
    },
    {
      "channel": 4,
      "note": 112,
      "start": 37.3739,
      "duration": 0.0893,
      "velocity": 100,
      "chip": "ym2612"
    },
    {
      "channel": 4,
      "note": 112,
      "start": 37.4634,
      "duration": 0.0884,
      "velocity": 100,
      "chip": "ym2612"
    },
    {
      "channel": 3,
      "note": 90,
      "start": 37.5514,
      "duration": 0.1931,
      "velocity": 96,
      "chip": "ym2612"
    },
    {
      "channel": 4,
      "note": 112,
      "start": 37.5519,
      "duration": 0.1931,
      "velocity": 100,
      "chip": "ym2612"
    },
    {
      "channel": 3,
      "note": 86,
      "start": 37.7447,
      "duration": 0.172,
      "velocity": 96,
      "chip": "ym2612"
    },
    {
      "channel": 4,
      "note": 112,
      "start": 37.7452,
      "duration": 0.5242,
      "velocity": 100,
      "chip": "ym2612"
    },
    {
      "channel": 3,
      "note": 81,
      "start": 37.9168,
      "duration": 0.1756,
      "velocity": 96,
      "chip": "ym2612"
    },
    {
      "channel": 3,
      "note": 83,
      "start": 38.0926,
      "duration": 0.3508,
      "velocity": 96,
      "chip": "ym2612"
    },
    {
      "channel": 1,
      "note": 86,
      "start": 38.2686,
      "duration": 1.4251,
      "velocity": 111,
      "chip": "ym2612"
    },
    {
      "channel": 2,
      "note": 83,
      "start": 38.2691,
      "duration": 1.4251,
      "velocity": 111,
      "chip": "ym2612"
    },
    {
      "channel": 4,
      "note": 112,
      "start": 38.2697,
      "duration": 0.5215,
      "velocity": 100,
      "chip": "ym2612"
    },
    {
      "channel": 0,
      "note": 50,
      "start": 38.4427,
      "duration": 0.1717,
      "velocity": 113,
      "chip": "ym2612"
    },
    {
      "channel": 3,
      "note": 82,
      "start": 38.4434,
      "duration": 0.0263,
      "velocity": 96,
      "chip": "ym2612"
    },
    {
      "channel": 3,
      "note": 82,
      "start": 38.4697,
      "duration": 0.0135,
      "velocity": 96,
      "chip": "ym2612"
    },
    {
      "channel": 3,
      "note": 81,
      "start": 38.4832,
      "duration": 0.0137,
      "velocity": 96,
      "chip": "ym2612"
    },
    {
      "channel": 3,
      "note": 80,
      "start": 38.497,
      "duration": 0.0138,
      "velocity": 96,
      "chip": "ym2612"
    },
    {
      "channel": 3,
      "note": 79,
      "start": 38.5107,
      "duration": 0.0142,
      "velocity": 96,
      "chip": "ym2612"
    },
    {
      "channel": 3,
      "note": 80,
      "start": 38.5249,
      "duration": 0.0266,
      "velocity": 96,
      "chip": "ym2612"
    },
    {
      "channel": 3,
      "note": 81,
      "start": 38.5515,
      "duration": 0.0138,
      "velocity": 96,
      "chip": "ym2612"
    },
    {
      "channel": 3,
      "note": 82,
      "start": 38.5653,
      "duration": 0.0155,
      "velocity": 96,
      "chip": "ym2612"
    },
    {
      "channel": 3,
      "note": 82,
      "start": 38.5808,
      "duration": 0.0167,
      "velocity": 96,
      "chip": "ym2612"
    },
    {
      "channel": 3,
      "note": 83,
      "start": 38.5975,
      "duration": 0.7398,
      "velocity": 96,
      "chip": "ym2612"
    },
    {
      "channel": 0,
      "note": 52,
      "start": 38.6146,
      "duration": 0.176,
      "velocity": 113,
      "chip": "ym2612"
    },
    {
      "channel": 0,
      "note": 57,
      "start": 38.7908,
      "duration": 0.3695,
      "velocity": 113,
      "chip": "ym2612"
    },
    {
      "channel": 4,
      "note": 112,
      "start": 38.7914,
      "duration": 0.0876,
      "velocity": 100,
      "chip": "ym2612"
    },
    {
      "channel": 4,
      "note": 112,
      "start": 38.8791,
      "duration": 0.0856,
      "velocity": 100,
      "chip": "ym2612"
    },
    {
      "channel": 4,
      "note": 112,
      "start": 38.9649,
      "duration": 0.196,
      "velocity": 100,
      "chip": "ym2612"
    },
    {
      "channel": 0,
      "note": 59,
      "start": 39.1604,
      "duration": 0.1763,
      "velocity": 113,
      "chip": "ym2612"
    },
    {
      "channel": 4,
      "note": 112,
      "start": 39.1611,
      "duration": 0.5342,
      "velocity": 100,
      "chip": "ym2612"
    },
    {
      "channel": 0,
      "note": 55,
      "start": 39.3369,
      "duration": 0.1801,
      "velocity": 113,
      "chip": "ym2612"
    },
    {
      "channel": 3,
      "note": 81,
      "start": 39.3375,
      "duration": 0.1801,
      "velocity": 96,
      "chip": "ym2612"
    },
    {
      "channel": 0,
      "note": 50,
      "start": 39.5171,
      "duration": 0.1761,
      "velocity": 113,
      "chip": "ym2612"
    },
    {
      "channel": 3,
      "note": 83,
      "start": 39.5178,
      "duration": 0.177,
      "velocity": 96,
      "chip": "ym2612"
    },
    {
      "channel": 0,
      "note": 52,
      "start": 39.6934,
      "duration": 0.1719,
      "velocity": 113,
      "chip": "ym2612"
    },
    {
      "channel": 1,
      "note": 85,
      "start": 39.6939,
      "duration": 1.4201,
      "velocity": 111,
      "chip": "ym2612"
    },
    {
      "channel": 2,
      "note": 81,
      "start": 39.6944,
      "duration": 1.4201,
      "velocity": 111,
      "chip": "ym2612"
    },
    {
      "channel": 3,
      "note": 81,
      "start": 39.6949,
      "duration": 0.7032,
      "velocity": 96,
      "chip": "ym2612"
    },
    {
      "channel": 4,
      "note": 112,
      "start": 39.6954,
      "duration": 0.525,
      "velocity": 100,
      "chip": "ym2612"
    },
    {
      "channel": 0,
      "note": 64,
      "start": 39.8655,
      "duration": 0.1805,
      "velocity": 113,
      "chip": "ym2612"
    },
    {
      "channel": 0,
      "note": 50,
      "start": 40.0461,
      "duration": 0.1736,
      "velocity": 113,
      "chip": "ym2612"
    },
    {
      "channel": 0,
      "note": 52,
      "start": 40.2199,
      "duration": 0.8936,
      "velocity": 113,
      "chip": "ym2612"
    },
    {
      "channel": 4,
      "note": 112,
      "start": 40.2206,
      "duration": 0.0872,
      "velocity": 100,
      "chip": "ym2612"
    },
    {
      "channel": 4,
      "note": 112,
      "start": 40.308,
      "duration": 0.0905,
      "velocity": 100,
      "chip": "ym2612"
    },
    {
      "channel": 3,
      "note": 88,
      "start": 40.3982,
      "duration": 0.2816,
      "velocity": 96,
      "chip": "ym2612"
    },
    {
      "channel": 4,
      "note": 112,
      "start": 40.3988,
      "duration": 0.1949,
      "velocity": 100,
      "chip": "ym2612"
    },
    {
      "channel": 4,
      "note": 112,
      "start": 40.5939,
      "duration": 0.5212,
      "velocity": 100,
      "chip": "ym2612"
    },
    {
      "channel": 3,
      "note": 88,
      "start": 40.6798,
      "duration": 0.0267,
      "velocity": 96,
      "chip": "ym2612"
    },
    {
      "channel": 3,
      "note": 88,
      "start": 40.7065,
      "duration": 0.0136,
      "velocity": 96,
      "chip": "ym2612"
    },
    {
      "channel": 3,
      "note": 87,
      "start": 40.7201,
      "duration": 0.0136,
      "velocity": 96,
      "chip": "ym2612"
    },
    {
      "channel": 3,
      "note": 87,
      "start": 40.7337,
      "duration": 0.0135,
      "velocity": 96,
      "chip": "ym2612"
    },
    {
      "channel": 3,
      "note": 87,
      "start": 40.7472,
      "duration": 0.0143,
      "velocity": 96,
      "chip": "ym2612"
    },
    {
      "channel": 3,
      "note": 86,
      "start": 40.7617,
      "duration": 1.0605,
      "velocity": 96,
      "chip": "ym2612"
    },
    {
      "channel": 0,
      "note": 45,
      "start": 41.1137,
      "duration": 0.1739,
      "velocity": 113,
      "chip": "ym2612"
    },
    {
      "channel": 1,
      "note": 73,
      "start": 41.1142,
      "duration": 1.4264,
      "velocity": 111,
      "chip": "ym2612"
    },
    {
      "channel": 2,
      "note": 76,
      "start": 41.1147,
      "duration": 1.4265,
      "velocity": 111,
      "chip": "ym2612"
    },
    {
      "channel": 4,
      "note": 112,
      "start": 41.1153,
      "duration": 0.5294,
      "velocity": 100,
      "chip": "ym2612"
    },
    {
      "channel": 0,
      "note": 57,
      "start": 41.2878,
      "duration": 0.1805,
      "velocity": 113,
      "chip": "ym2612"
    },
    {
      "channel": 0,
      "note": 55,
      "start": 41.4685,
      "duration": 0.1755,
      "velocity": 113,
      "chip": "ym2612"
    },
    {
      "channel": 0,
      "note": 57,
      "start": 41.6442,
      "duration": 0.8959,
      "velocity": 113,
      "chip": "ym2612"
    },
    {
      "channel": 4,
      "note": 112,
      "start": 41.6449,
      "duration": 0.0893,
      "velocity": 100,
      "chip": "ym2612"
    },
    {
      "channel": 4,
      "note": 112,
      "start": 41.7344,
      "duration": 0.0884,
      "velocity": 100,
      "chip": "ym2612"
    },
    {
      "channel": 3,
      "note": 85,
      "start": 41.8224,
      "duration": 0.1932,
      "velocity": 96,
      "chip": "ym2612"
    },
    {
      "channel": 4,
      "note": 112,
      "start": 41.8229,
      "duration": 0.1932,
      "velocity": 100,
      "chip": "ym2612"
    },
    {
      "channel": 3,
      "note": 86,
      "start": 42.0158,
      "duration": 0.1722,
      "velocity": 96,
      "chip": "ym2612"
    },
    {
      "channel": 4,
      "note": 112,
      "start": 42.0163,
      "duration": 0.5259,
      "velocity": 100,
      "chip": "ym2612"
    },
    {
      "channel": 3,
      "note": 81,
      "start": 42.1881,
      "duration": 0.1738,
      "velocity": 96,
      "chip": "ym2612"
    },
    {
      "channel": 3,
      "note": 83,
      "start": 42.3621,
      "duration": 0.1796,
      "velocity": 96,
      "chip": "ym2612"
    },
    {
      "channel": 0,
      "note": 52,
      "start": 42.5402,
      "duration": 0.1781,
      "velocity": 113,
      "chip": "ym2612"
    },
    {
      "channel": 1,
      "note": 79,
      "start": 42.5408,
      "duration": 1.3838,
      "velocity": 111,
      "chip": "ym2612"
    },
    {
      "channel": 2,
      "note": 83,
      "start": 42.5413,
      "duration": 1.3839,
      "velocity": 111,
      "chip": "ym2612"
    },
    {
      "channel": 3,
      "note": 76,
      "start": 42.5419,
      "duration": 0.3584,
      "velocity": 96,
      "chip": "ym2612"
    },
    {
      "channel": 4,
      "note": 112,
      "start": 42.5424,
      "duration": 0.5256,
      "velocity": 100,
      "chip": "ym2612"
    },
    {
      "channel": 0,
      "note": 64,
      "start": 42.7185,
      "duration": 0.1807,
      "velocity": 113,
      "chip": "ym2612"
    },
    {
      "channel": 0,
      "note": 50,
      "start": 42.8993,
      "duration": 0.1681,
      "velocity": 113,
      "chip": "ym2612"
    },
    {
      "channel": 3,
      "note": 76,
      "start": 42.9003,
      "duration": 0.026,
      "velocity": 96,
      "chip": "ym2612"
    },
    {
      "channel": 3,
      "note": 76,
      "start": 42.9263,
      "duration": 0.0138,
      "velocity": 96,
      "chip": "ym2612"
    },
    {
      "channel": 3,
      "note": 76,
      "start": 42.9401,
      "duration": 0.0136,
      "velocity": 96,
      "chip": "ym2612"
    },
    {
      "channel": 3,
      "note": 76,
      "start": 42.9537,
      "duration": 0.0157,
      "velocity": 96,
      "chip": "ym2612"
    },
    {
      "channel": 3,
      "note": 76,
      "start": 42.9694,
      "duration": 0.0142,
      "velocity": 96,
      "chip": "ym2612"
    },
    {
      "channel": 3,
      "note": 76,
      "start": 42.9836,
      "duration": 0.0268,
      "velocity": 96,
      "chip": "ym2612"
    },
    {
      "channel": 3,
      "note": 76,
      "start": 43.0104,
      "duration": 0.0157,
      "velocity": 96,
      "chip": "ym2612"
    },
    {
      "channel": 3,
      "note": 77,
      "start": 43.0261,
      "duration": 0.0137,
      "velocity": 96,
      "chip": "ym2612"
    },
    {
      "channel": 3,
      "note": 77,
      "start": 43.0398,
      "duration": 0.0138,
      "velocity": 96,
      "chip": "ym2612"
    },
    {
      "channel": 3,
      "note": 77,
      "start": 43.0536,
      "duration": 0.015,
      "velocity": 96,
      "chip": "ym2612"
    },
    {
      "channel": 0,
      "note": 52,
      "start": 43.0675,
      "duration": 1.0272,
      "velocity": 113,
      "chip": "ym2612"
    },
    {
      "channel": 4,
      "note": 112,
      "start": 43.0682,
      "duration": 0.0838,
      "velocity": 100,
      "chip": "ym2612"
    },
    {
      "channel": 3,
      "note": 77,
      "start": 43.0686,
      "duration": 0.0261,
      "velocity": 96,
      "chip": "ym2612"
    },
    {
      "channel": 3,
      "note": 77,
      "start": 43.0947,
      "duration": 0.0136,
      "velocity": 96,
      "chip": "ym2612"
    },
    {
      "channel": 3,
      "note": 77,
      "start": 43.1083,
      "duration": 0.0135,
      "velocity": 96,
      "chip": "ym2612"
    },
    {
      "channel": 3,
      "note": 77,
      "start": 43.1219,
      "duration": 0.0138,
      "velocity": 96,
      "chip": "ym2612"
    },
    {
      "channel": 3,
      "note": 77,
      "start": 43.1356,
      "duration": 0.0168,
      "velocity": 96,
      "chip": "ym2612"
    },
    {
      "channel": 4,
      "note": 112,
      "start": 43.152,
      "duration": 0.0818,
      "velocity": 100,
      "chip": "ym2612"
    },
    {
      "channel": 3,
      "note": 77,
      "start": 43.1525,
      "duration": 0.0264,
      "velocity": 96,
      "chip": "ym2612"
    },
    {
      "channel": 3,
      "note": 77,
      "start": 43.1789,
      "duration": 0.0136,
      "velocity": 96,
      "chip": "ym2612"
    },
    {
      "channel": 3,
      "note": 77,
      "start": 43.1925,
      "duration": 0.0135,
      "velocity": 96,
      "chip": "ym2612"
    },
    {
      "channel": 3,
      "note": 77,
      "start": 43.206,
      "duration": 0.0137,
      "velocity": 96,
      "chip": "ym2612"
    },
    {
      "channel": 3,
      "note": 77,
      "start": 43.2197,
      "duration": 0.0147,
      "velocity": 96,
      "chip": "ym2612"
    },
    {
      "channel": 4,
      "note": 112,
      "start": 43.234,
      "duration": 0.1907,
      "velocity": 100,
      "chip": "ym2612"
    },
    {
      "channel": 3,
      "note": 77,
      "start": 43.2344,
      "duration": 0.0265,
      "velocity": 96,
      "chip": "ym2612"
    },
    {
      "channel": 3,
      "note": 78,
      "start": 43.261,
      "duration": 0.0136,
      "velocity": 96,
      "chip": "ym2612"
    },
    {
      "channel": 3,
      "note": 78,
      "start": 43.2745,
      "duration": 0.0164,
      "velocity": 96,
      "chip": "ym2612"
    },
    {
      "channel": 3,
      "note": 78,
      "start": 43.2909,
      "duration": 0.0167,
      "velocity": 96,
      "chip": "ym2612"
    },
    {
      "channel": 3,
      "note": 78,
      "start": 43.3076,
      "duration": 0.0173,
      "velocity": 96,
      "chip": "ym2612"
    },
    {
      "channel": 3,
      "note": 78,
      "start": 43.3249,
      "duration": 0.0327,
      "velocity": 96,
      "chip": "ym2612"
    },
    {
      "channel": 3,
      "note": 78,
      "start": 43.3576,
      "duration": 0.0167,
      "velocity": 96,
      "chip": "ym2612"
    },
    {
      "channel": 3,
      "note": 78,
      "start": 43.3743,
      "duration": 0.0167,
      "velocity": 96,
      "chip": "ym2612"
    },
    {
      "channel": 3,
      "note": 78,
      "start": 43.3909,
      "duration": 0.0167,
      "velocity": 96,
      "chip": "ym2612"
    },
    {
      "channel": 3,
      "note": 78,
      "start": 43.4076,
      "duration": 0.0181,
      "velocity": 96,
      "chip": "ym2612"
    },
    {
      "channel": 4,
      "note": 112,
      "start": 43.4249,
      "duration": 0.501,
      "velocity": 100,
      "chip": "ym2612"
    },
    {
      "channel": 3,
      "note": 78,
      "start": 43.4257,
      "duration": 0.0261,
      "velocity": 96,
      "chip": "ym2612"
    },
    {
      "channel": 3,
      "note": 78,
      "start": 43.4518,
      "duration": 0.0135,
      "velocity": 96,
      "chip": "ym2612"
    },
    {
      "channel": 3,
      "note": 78,
      "start": 43.4654,
      "duration": 0.0137,
      "velocity": 96,
      "chip": "ym2612"
    },
    {
      "channel": 3,
      "note": 78,
      "start": 43.4791,
      "duration": 0.0138,
      "velocity": 96,
      "chip": "ym2612"
    },
    {
      "channel": 3,
      "note": 78,
      "start": 43.4929,
      "duration": 0.0141,
      "velocity": 96,
      "chip": "ym2612"
    },
    {
      "channel": 3,
      "note": 78,
      "start": 43.5069,
      "duration": 0.0309,
      "velocity": 96,
      "chip": "ym2612"
    },
    {
      "channel": 3,
      "note": 78,
      "start": 43.5378,
      "duration": 0.0135,
      "velocity": 96,
      "chip": "ym2612"
    },
    {
      "channel": 3,
      "note": 79,
      "start": 43.5514,
      "duration": 0.0137,
      "velocity": 96,
      "chip": "ym2612"
    },
    {
      "channel": 3,
      "note": 79,
      "start": 43.5651,
      "duration": 0.0138,
      "velocity": 96,
      "chip": "ym2612"
    },
    {
      "channel": 3,
      "note": 79,
      "start": 43.5789,
      "duration": 0.0145,
      "velocity": 96,
      "chip": "ym2612"
    },
    {
      "channel": 3,
      "note": 79,
      "start": 43.5933,
      "duration": 0.0263,
      "velocity": 96,
      "chip": "ym2612"
    },
    {
      "channel": 3,
      "note": 79,
      "start": 43.6197,
      "duration": 0.0137,
      "velocity": 96,
      "chip": "ym2612"
    },
    {
      "channel": 3,
      "note": 79,
      "start": 43.6334,
      "duration": 0.0138,
      "velocity": 96,
      "chip": "ym2612"
    },
    {
      "channel": 3,
      "note": 79,
      "start": 43.6472,
      "duration": 0.0136,
      "velocity": 96,
      "chip": "ym2612"
    },
    {
      "channel": 3,
      "note": 79,
      "start": 43.6608,
      "duration": 0.0163,
      "velocity": 96,
      "chip": "ym2612"
    },
    {
      "channel": 3,
      "note": 79,
      "start": 43.677,
      "duration": 0.0266,
      "velocity": 96,
      "chip": "ym2612"
    },
    {
      "channel": 3,
      "note": 79,
      "start": 43.7037,
      "duration": 0.0138,
      "velocity": 96,
      "chip": "ym2612"
    },
    {
      "channel": 3,
      "note": 79,
      "start": 43.7174,
      "duration": 0.0136,
      "velocity": 96,
      "chip": "ym2612"
    },
    {
      "channel": 3,
      "note": 79,
      "start": 43.731,
      "duration": 0.0136,
      "velocity": 96,
      "chip": "ym2612"
    },
    {
      "channel": 3,
      "note": 79,
      "start": 43.7446,
      "duration": 0.014,
      "velocity": 96,
      "chip": "ym2612"
    },
    {
      "channel": 3,
      "note": 79,
      "start": 43.7587,
      "duration": 0.0268,
      "velocity": 96,
      "chip": "ym2612"
    },
    {
      "channel": 3,
      "note": 79,
      "start": 43.7855,
      "duration": 0.0136,
      "velocity": 96,
      "chip": "ym2612"
    },
    {
      "channel": 3,
      "note": 79,
      "start": 43.7991,
      "duration": 0.0157,
      "velocity": 96,
      "chip": "ym2612"
    },
    {
      "channel": 3,
      "note": 79,
      "start": 43.8148,
      "duration": 0.0137,
      "velocity": 96,
      "chip": "ym2612"
    },
    {
      "channel": 3,
      "note": 80,
      "start": 43.8284,
      "duration": 0.0143,
      "velocity": 96,
      "chip": "ym2612"
    },
    {
      "channel": 3,
      "note": 80,
      "start": 43.8428,
      "duration": 0.0268,
      "velocity": 96,
      "chip": "ym2612"
    },
    {
      "channel": 3,
      "note": 80,
      "start": 43.8696,
      "duration": 0.0135,
      "velocity": 96,
      "chip": "ym2612"
    },
    {
      "channel": 3,
      "note": 80,
      "start": 43.8831,
      "duration": 0.0137,
      "velocity": 96,
      "chip": "ym2612"
    },
    {
      "channel": 3,
      "note": 80,
      "start": 43.8968,
      "duration": 0.0138,
      "velocity": 96,
      "chip": "ym2612"
    },
    {
      "channel": 3,
      "note": 80,
      "start": 43.9106,
      "duration": 0.0161,
      "velocity": 96,
      "chip": "ym2612"
    },
    {
      "channel": 1,
      "note": 86,
      "start": 43.9249,
      "duration": 1.3741,
      "velocity": 111,
      "chip": "ym2612"
    },
    {
      "channel": 2,
      "note": 83,
      "start": 43.9254,
      "duration": 1.3741,
      "velocity": 111,
      "chip": "ym2612"
    },
    {
      "channel": 4,
      "note": 112,
      "start": 43.926,
      "duration": 0.5114,
      "velocity": 100,
      "chip": "ym2612"
    },
    {
      "channel": 3,
      "note": 80,
      "start": 43.9268,
      "duration": 0.0293,
      "velocity": 96,
      "chip": "ym2612"
    },
    {
      "channel": 3,
      "note": 80,
      "start": 43.956,
      "duration": 0.0158,
      "velocity": 96,
      "chip": "ym2612"
    },
    {
      "channel": 3,
      "note": 80,
      "start": 43.9718,
      "duration": 0.0136,
      "velocity": 96,
      "chip": "ym2612"
    },
    {
      "channel": 3,
      "note": 80,
      "start": 43.9854,
      "duration": 0.0135,
      "velocity": 96,
      "chip": "ym2612"
    },
    {
      "channel": 3,
      "note": 80,
      "start": 43.9989,
      "duration": 0.0143,
      "velocity": 96,
      "chip": "ym2612"
    },
    {
      "channel": 3,
      "note": 80,
      "start": 44.0132,
      "duration": 0.0268,
      "velocity": 96,
      "chip": "ym2612"
    },
    {
      "channel": 3,
      "note": 81,
      "start": 44.04,
      "duration": 0.0136,
      "velocity": 96,
      "chip": "ym2612"
    },
    {
      "channel": 3,
      "note": 81,
      "start": 44.0536,
      "duration": 0.0135,
      "velocity": 96,
      "chip": "ym2612"
    },
    {
      "channel": 3,
      "note": 81,
      "start": 44.0671,
      "duration": 0.0137,
      "velocity": 96,
      "chip": "ym2612"
    },
    {
      "channel": 3,
      "note": 81,
      "start": 44.0808,
      "duration": 0.0147,
      "velocity": 96,
      "chip": "ym2612"
    },
    {
      "channel": 0,
      "note": 50,
      "start": 44.0949,
      "duration": 0.1737,
      "velocity": 113,
      "chip": "ym2612"
    },
    {
      "channel": 3,
      "note": 81,
      "start": 44.0955,
      "duration": 0.0265,
      "velocity": 96,
      "chip": "ym2612"
    },
    {
      "channel": 3,
      "note": 81,
      "start": 44.122,
      "duration": 0.0157,
      "velocity": 96,
      "chip": "ym2612"
    },
    {
      "channel": 3,
      "note": 81,
      "start": 44.1378,
      "duration": 0.0135,
      "velocity": 96,
      "chip": "ym2612"
    },
    {
      "channel": 3,
      "note": 81,
      "start": 44.1513,
      "duration": 0.0137,
      "velocity": 96,
      "chip": "ym2612"
    },
    {
      "channel": 3,
      "note": 81,
      "start": 44.165,
      "duration": 0.0143,
      "velocity": 96,
      "chip": "ym2612"
    },
    {
      "channel": 3,
      "note": 82,
      "start": 44.1793,
      "duration": 0.0268,
      "velocity": 96,
      "chip": "ym2612"
    },
    {
      "channel": 3,
      "note": 82,
      "start": 44.2061,
      "duration": 0.0135,
      "velocity": 96,
      "chip": "ym2612"
    },
    {
      "channel": 3,
      "note": 82,
      "start": 44.2196,
      "duration": 0.0154,
      "velocity": 96,
      "chip": "ym2612"
    },
    {
      "channel": 3,
      "note": 82,
      "start": 44.235,
      "duration": 0.0167,
      "velocity": 96,
      "chip": "ym2612"
    },
    {
      "channel": 3,
      "note": 82,
      "start": 44.2517,
      "duration": 0.018,
      "velocity": 96,
      "chip": "ym2612"
    },
    {
      "channel": 0,
      "note": 52,
      "start": 44.2688,
      "duration": 0.1679,
      "velocity": 113,
      "chip": "ym2612"
    },
    {
      "channel": 3,
      "note": 82,
      "start": 44.2697,
      "duration": 0.0263,
      "velocity": 96,
      "chip": "ym2612"
    },
    {
      "channel": 3,
      "note": 82,
      "start": 44.296,
      "duration": 0.0136,
      "velocity": 96,
      "chip": "ym2612"
    },
    {
      "channel": 3,
      "note": 82,
      "start": 44.3095,
      "duration": 0.0135,
      "velocity": 96,
      "chip": "ym2612"
    },
    {
      "channel": 3,
      "note": 82,
      "start": 44.3231,
      "duration": 0.0138,
      "velocity": 96,
      "chip": "ym2612"
    },
    {
      "channel": 3,
      "note": 82,
      "start": 44.3369,
      "duration": 0.0163,
      "velocity": 96,
      "chip": "ym2612"
    },
    {
      "channel": 3,
      "note": 83,
      "start": 44.3532,
      "duration": 0.0268,
      "velocity": 96,
      "chip": "ym2612"
    },
    {
      "channel": 3,
      "note": 83,
      "start": 44.38,
      "duration": 0.0135,
      "velocity": 96,
      "chip": "ym2612"
    },
    {
      "channel": 3,
      "note": 83,
      "start": 44.3935,
      "duration": 0.0138,
      "velocity": 96,
      "chip": "ym2612"
    },
    {
      "channel": 3,
      "note": 83,
      "start": 44.4073,
      "duration": 0.0158,
      "velocity": 96,
      "chip": "ym2612"
    },
    {
      "channel": 3,
      "note": 83,
      "start": 44.4231,
      "duration": 0.0149,
      "velocity": 96,
      "chip": "ym2612"
    },
    {
      "channel": 0,
      "note": 57,
      "start": 44.4369,
      "duration": 0.3569,
      "velocity": 113,
      "chip": "ym2612"
    },
    {
      "channel": 4,
      "note": 112,
      "start": 44.4376,
      "duration": 0.0836,
      "velocity": 100,
      "chip": "ym2612"
    },
    {
      "channel": 3,
      "note": 83,
      "start": 44.438,
      "duration": 0.0261,
      "velocity": 96,
      "chip": "ym2612"
    },
    {
      "channel": 3,
      "note": 83,
      "start": 44.4641,
      "duration": 0.0157,
      "velocity": 96,
      "chip": "ym2612"
    },
    {
      "channel": 3,
      "note": 83,
      "start": 44.4798,
      "duration": 0.0137,
      "velocity": 96,
      "chip": "ym2612"
    },
    {
      "channel": 3,
      "note": 83,
      "start": 44.4935,
      "duration": 0.0138,
      "velocity": 96,
      "chip": "ym2612"
    },
    {
      "channel": 3,
      "note": 83,
      "start": 44.5073,
      "duration": 0.0146,
      "velocity": 96,
      "chip": "ym2612"
    },
    {
      "channel": 4,
      "note": 112,
      "start": 44.5214,
      "duration": 0.0818,
      "velocity": 100,
      "chip": "ym2612"
    },
    {
      "channel": 3,
      "note": 83,
      "start": 44.5218,
      "duration": 0.0264,
      "velocity": 96,
      "chip": "ym2612"
    },
    {
      "channel": 3,
      "note": 84,
      "start": 44.5482,
      "duration": 0.0135,
      "velocity": 96,
      "chip": "ym2612"
    },
    {
      "channel": 3,
      "note": 84,
      "start": 44.5617,
      "duration": 0.0137,
      "velocity": 96,
      "chip": "ym2612"
    },
    {
      "channel": 3,
      "note": 84,
      "start": 44.5755,
      "duration": 0.0138,
      "velocity": 96,
      "chip": "ym2612"
    },
    {
      "channel": 3,
      "note": 84,
      "start": 44.5893,
      "duration": 0.0145,
      "velocity": 96,
      "chip": "ym2612"
    },
    {
      "channel": 4,
      "note": 112,
      "start": 44.6033,
      "duration": 0.1911,
      "velocity": 100,
      "chip": "ym2612"
    },
    {
      "channel": 3,
      "note": 84,
      "start": 44.6038,
      "duration": 0.0264,
      "velocity": 96,
      "chip": "ym2612"
    },
    {
      "channel": 3,
      "note": 84,
      "start": 44.6301,
      "duration": 0.0135,
      "velocity": 96,
      "chip": "ym2612"
    },
    {
      "channel": 3,
      "note": 84,
      "start": 44.6437,
      "duration": 0.0165,
      "velocity": 96,
      "chip": "ym2612"
    },
    {
      "channel": 3,
      "note": 84,
      "start": 44.6602,
      "duration": 0.0167,
      "velocity": 96,
      "chip": "ym2612"
    },
    {
      "channel": 3,
      "note": 84,
      "start": 44.6768,
      "duration": 0.0173,
      "velocity": 96,
      "chip": "ym2612"
    },
    {
      "channel": 3,
      "note": 84,
      "start": 44.6941,
      "duration": 0.0327,
      "velocity": 96,
      "chip": "ym2612"
    },
    {
      "channel": 3,
      "note": 84,
      "start": 44.7268,
      "duration": 0.0167,
      "velocity": 96,
      "chip": "ym2612"
    },
    {
      "channel": 3,
      "note": 85,
      "start": 44.7435,
      "duration": 0.0167,
      "velocity": 96,
      "chip": "ym2612"
    },
    {
      "channel": 3,
      "note": 85,
      "start": 44.7602,
      "duration": 0.0167,
      "velocity": 96,
      "chip": "ym2612"
    },
    {
      "channel": 3,
      "note": 85,
      "start": 44.7768,
      "duration": 0.0185,
      "velocity": 96,
      "chip": "ym2612"
    },
    {
      "channel": 0,
      "note": 59,
      "start": 44.7939,
      "duration": 0.166,
      "velocity": 113,
      "chip": "ym2612"
    },
    {
      "channel": 4,
      "note": 112,
      "start": 44.7946,
      "duration": 0.5058,
      "velocity": 100,
      "chip": "ym2612"
    },
    {
      "channel": 3,
      "note": 85,
      "start": 44.7954,
      "duration": 0.0257,
      "velocity": 96,
      "chip": "ym2612"
    },
    {
      "channel": 3,
      "note": 85,
      "start": 44.8211,
      "duration": 0.0135,
      "velocity": 96,
      "chip": "ym2612"
    },
    {
      "channel": 3,
      "note": 85,
      "start": 44.8346,
      "duration": 0.0137,
      "velocity": 96,
      "chip": "ym2612"
    },
    {
      "channel": 3,
      "note": 85,
      "start": 44.8483,
      "duration": 0.0138,
      "velocity": 96,
      "chip": "ym2612"
    },
    {
      "channel": 3,
      "note": 85,
      "start": 44.8621,
      "duration": 0.0146,
      "velocity": 96,
      "chip": "ym2612"
    },
    {
      "channel": 3,
      "note": 85,
      "start": 44.8767,
      "duration": 0.0263,
      "velocity": 96,
      "chip": "ym2612"
    },
    {
      "channel": 3,
      "note": 85,
      "start": 44.903,
      "duration": 0.0137,
      "velocity": 96,
      "chip": "ym2612"
    },
    {
      "channel": 3,
      "note": 85,
      "start": 44.9167,
      "duration": 0.0138,
      "velocity": 96,
      "chip": "ym2612"
    },
    {
      "channel": 3,
      "note": 85,
      "start": 44.9305,
      "duration": 0.0136,
      "velocity": 96,
      "chip": "ym2612"
    },
    {
      "channel": 3,
      "note": 86,
      "start": 44.9441,
      "duration": 0.017,
      "velocity": 96,
      "chip": "ym2612"
    },
    {
      "channel": 0,
      "note": 55,
      "start": 44.9601,
      "duration": 0.1656,
      "velocity": 113,
      "chip": "ym2612"
    },
    {
      "channel": 3,
      "note": 86,
      "start": 44.9611,
      "duration": 0.0261,
      "velocity": 96,
      "chip": "ym2612"
    },
    {
      "channel": 3,
      "note": 86,
      "start": 44.9872,
      "duration": 0.0135,
      "velocity": 96,
      "chip": "ym2612"
    },
    {
      "channel": 3,
      "note": 86,
      "start": 45.0007,
      "duration": 0.0138,
      "velocity": 96,
      "chip": "ym2612"
    },
    {
      "channel": 3,
      "note": 86,
      "start": 45.0145,
      "duration": 0.0158,
      "velocity": 96,
      "chip": "ym2612"
    },
    {
      "channel": 3,
      "note": 86,
      "start": 45.0302,
      "duration": 0.014,
      "velocity": 96,
      "chip": "ym2612"
    },
    {
      "channel": 3,
      "note": 86,
      "start": 45.0443,
      "duration": 0.0266,
      "velocity": 96,
      "chip": "ym2612"
    },
    {
      "channel": 3,
      "note": 86,
      "start": 45.0709,
      "duration": 0.0138,
      "velocity": 96,
      "chip": "ym2612"
    },
    {
      "channel": 3,
      "note": 86,
      "start": 45.0847,
      "duration": 0.0136,
      "velocity": 96,
      "chip": "ym2612"
    },
    {
      "channel": 3,
      "note": 86,
      "start": 45.0983,
      "duration": 0.0136,
      "velocity": 96,
      "chip": "ym2612"
    },
    {
      "channel": 3,
      "note": 86,
      "start": 45.1119,
      "duration": 0.0146,
      "velocity": 96,
      "chip": "ym2612"
    },
    {
      "channel": 0,
      "note": 50,
      "start": 45.1258,
      "duration": 0.1726,
      "velocity": 113,
      "chip": "ym2612"
    },
    {
      "channel": 3,
      "note": 86,
      "start": 45.1265,
      "duration": 0.0303,
      "velocity": 96,
      "chip": "ym2612"
    },
    {
      "channel": 3,
      "note": 87,
      "start": 45.1568,
      "duration": 0.0138,
      "velocity": 96,
      "chip": "ym2612"
    },
    {
      "channel": 3,
      "note": 87,
      "start": 45.1706,
      "duration": 0.0136,
      "velocity": 96,
      "chip": "ym2612"
    },
    {
      "channel": 3,
      "note": 87,
      "start": 45.1842,
      "duration": 0.0157,
      "velocity": 96,
      "chip": "ym2612"
    },
    {
      "channel": 3,
      "note": 87,
      "start": 45.1999,
      "duration": 0.0142,
      "velocity": 96,
      "chip": "ym2612"
    },
    {
      "channel": 3,
      "note": 87,
      "start": 45.2141,
      "duration": 0.0269,
      "velocity": 96,
      "chip": "ym2612"
    },
    {
      "channel": 3,
      "note": 87,
      "start": 45.241,
      "duration": 0.0157,
      "velocity": 96,
      "chip": "ym2612"
    },
    {
      "channel": 3,
      "note": 87,
      "start": 45.2567,
      "duration": 0.0135,
      "velocity": 96,
      "chip": "ym2612"
    },
    {
      "channel": 3,
      "note": 87,
      "start": 45.2703,
      "duration": 0.0137,
      "velocity": 96,
      "chip": "ym2612"
    },
    {
      "channel": 3,
      "note": 87,
      "start": 45.284,
      "duration": 0.0159,
      "velocity": 96,
      "chip": "ym2612"
    },
    {
      "channel": 0,
      "note": 52,
      "start": 45.2986,
      "duration": 0.1719,
      "velocity": 113,
      "chip": "ym2612"
    },
    {
      "channel": 1,
      "note": 85,
      "start": 45.2991,
      "duration": 1.4296,
      "velocity": 111,
      "chip": "ym2612"
    },
    {
      "channel": 2,
      "note": 81,
      "start": 45.2996,
      "duration": 1.4295,
      "velocity": 111,
      "chip": "ym2612"
    },
    {
      "channel": 3,
      "note": 88,
      "start": 45.3001,
      "duration": 2.1303,
      "velocity": 127,
      "chip": "ym2612"
    },
    {
      "channel": 4,
      "note": 112,
      "start": 45.3006,
      "duration": 0.5244,
      "velocity": 100,
      "chip": "ym2612"
    },
    {
      "channel": 0,
      "note": 64,
      "start": 45.4706,
      "duration": 0.1778,
      "velocity": 113,
      "chip": "ym2612"
    },
    {
      "channel": 0,
      "note": 50,
      "start": 45.6486,
      "duration": 0.1758,
      "velocity": 113,
      "chip": "ym2612"
    },
    {
      "channel": 0,
      "note": 52,
      "start": 45.8246,
      "duration": 0.9036,
      "velocity": 113,
      "chip": "ym2612"
    },
    {
      "channel": 4,
      "note": 112,
      "start": 45.8253,
      "duration": 0.0871,
      "velocity": 100,
      "chip": "ym2612"
    },
    {
      "channel": 4,
      "note": 112,
      "start": 45.9126,
      "duration": 0.0898,
      "velocity": 100,
      "chip": "ym2612"
    },
    {
      "channel": 4,
      "note": 112,
      "start": 46.0026,
      "duration": 0.1956,
      "velocity": 100,
      "chip": "ym2612"
    },
    {
      "channel": 4,
      "note": 112,
      "start": 46.1984,
      "duration": 0.5313,
      "velocity": 100,
      "chip": "ym2612"
    },
    {
      "channel": 0,
      "note": 45,
      "start": 46.7283,
      "duration": 0.1718,
      "velocity": 113,
      "chip": "ym2612"
    },
    {
      "channel": 1,
      "note": 73,
      "start": 46.7288,
      "duration": 1.4008,
      "velocity": 115,
      "chip": "ym2612"
    },
    {
      "channel": 2,
      "note": 76,
      "start": 46.7293,
      "duration": 1.4022,
      "velocity": 111,
      "chip": "ym2612"
    },
    {
      "channel": 4,
      "note": 112,
      "start": 46.7299,
      "duration": 0.5276,
      "velocity": 100,
      "chip": "ym2612"
    },
    {
      "channel": 0,
      "note": 57,
      "start": 46.9003,
      "duration": 0.1805,
      "velocity": 113,
      "chip": "ym2612"
    },
    {
      "channel": 0,
      "note": 55,
      "start": 47.081,
      "duration": 0.1758,
      "velocity": 113,
      "chip": "ym2612"
    },
    {
      "channel": 0,
      "note": 57,
      "start": 47.257,
      "duration": 0.8706,
      "velocity": 113,
      "chip": "ym2612"
    },
    {
      "channel": 4,
      "note": 112,
      "start": 47.2576,
      "duration": 0.0854,
      "velocity": 100,
      "chip": "ym2612"
    },
    {
      "channel": 4,
      "note": 112,
      "start": 47.3432,
      "duration": 0.0878,
      "velocity": 100,
      "chip": "ym2612"
    },
    {
      "channel": 3,
      "note": 76,
      "start": 47.4306,
      "duration": 0.0009,
      "velocity": 127,
      "chip": "ym2612"
    },
    {
      "channel": 4,
      "note": 112,
      "start": 47.4311,
      "duration": 0.1902,
      "velocity": 100,
      "chip": "ym2612"
    },
    {
      "channel": 3,
      "note": 76,
      "start": 47.4315,
      "duration": 0.0249,
      "velocity": 127,
      "chip": "ym2612"
    },
    {
      "channel": 3,
      "note": 75,
      "start": 47.4565,
      "duration": 0.0138,
      "velocity": 127,
      "chip": "ym2612"
    },
    {
      "channel": 3,
      "note": 74,
      "start": 47.4703,
      "duration": 0.0167,
      "velocity": 127,
      "chip": "ym2612"
    },
    {
      "channel": 3,
      "note": 74,
      "start": 47.487,
      "duration": 0.0167,
      "velocity": 127,
      "chip": "ym2612"
    },
    {
      "channel": 3,
      "note": 73,
      "start": 47.5036,
      "duration": 0.0173,
      "velocity": 127,
      "chip": "ym2612"
    },
    {
      "channel": 3,
      "note": 73,
      "start": 47.5209,
      "duration": 0.0327,
      "velocity": 127,
      "chip": "ym2612"
    },
    {
      "channel": 3,
      "note": 72,
      "start": 47.5536,
      "duration": 0.0167,
      "velocity": 127,
      "chip": "ym2612"
    },
    {
      "channel": 3,
      "note": 72,
      "start": 47.5703,
      "duration": 0.0167,
      "velocity": 127,
      "chip": "ym2612"
    },
    {
      "channel": 3,
      "note": 71,
      "start": 47.587,
      "duration": 0.0167,
      "velocity": 127,
      "chip": "ym2612"
    },
    {
      "channel": 3,
      "note": 70,
      "start": 47.6036,
      "duration": 0.0172,
      "velocity": 127,
      "chip": "ym2612"
    },
    {
      "channel": 3,
      "note": 76,
      "start": 47.6209,
      "duration": 0.0013,
      "velocity": 127,
      "chip": "ym2612"
    },
    {
      "channel": 4,
      "note": 112,
      "start": 47.6215,
      "duration": 0.5125,
      "velocity": 100,
      "chip": "ym2612"
    },
    {
      "channel": 3,
      "note": 76,
      "start": 47.6222,
      "duration": 0.0256,
      "velocity": 127,
      "chip": "ym2612"
    },
    {
      "channel": 3,
      "note": 75,
      "start": 47.6478,
      "duration": 0.0138,
      "velocity": 127,
      "chip": "ym2612"
    },
    {
      "channel": 3,
      "note": 74,
      "start": 47.6616,
      "duration": 0.0136,
      "velocity": 127,
      "chip": "ym2612"
    },
    {
      "channel": 3,
      "note": 74,
      "start": 47.6752,
      "duration": 0.0157,
      "velocity": 127,
      "chip": "ym2612"
    },
    {
      "channel": 3,
      "note": 73,
      "start": 47.6909,
      "duration": 0.0145,
      "velocity": 127,
      "chip": "ym2612"
    },
    {
      "channel": 3,
      "note": 73,
      "start": 47.7054,
      "duration": 0.0265,
      "velocity": 127,
      "chip": "ym2612"
    },
    {
      "channel": 3,
      "note": 72,
      "start": 47.732,
      "duration": 0.0157,
      "velocity": 127,
      "chip": "ym2612"
    },
    {
      "channel": 3,
      "note": 72,
      "start": 47.7477,
      "duration": 0.0136,
      "velocity": 127,
      "chip": "ym2612"
    },
    {
      "channel": 3,
      "note": 71,
      "start": 47.7612,
      "duration": 0.0135,
      "velocity": 127,
      "chip": "ym2612"
    },
    {
      "channel": 3,
      "note": 70,
      "start": 47.7748,
      "duration": 0.0142,
      "velocity": 127,
      "chip": "ym2612"
    },
    {
      "channel": 3,
      "note": 71,
      "start": 47.7892,
      "duration": 0.0008,
      "velocity": 127,
      "chip": "ym2612"
    },
    {
      "channel": 3,
      "note": 70,
      "start": 47.79,
      "duration": 0.0261,
      "velocity": 127,
      "chip": "ym2612"
    },
    {
      "channel": 3,
      "note": 70,
      "start": 47.8161,
      "duration": 0.0136,
      "velocity": 127,
      "chip": "ym2612"
    },
    {
      "channel": 3,
      "note": 69,
      "start": 47.8297,
      "duration": 0.0135,
      "velocity": 127,
      "chip": "ym2612"
    },
    {
      "channel": 3,
      "note": 68,
      "start": 47.8432,
      "duration": 0.0138,
      "velocity": 127,
      "chip": "ym2612"
    },
    {
      "channel": 3,
      "note": 67,
      "start": 47.857,
      "duration": 0.0162,
      "velocity": 127,
      "chip": "ym2612"
    },
    {
      "channel": 3,
      "note": 71,
      "start": 47.8734,
      "duration": 0.0005,
      "velocity": 127,
      "chip": "ym2612"
    },
    {
      "channel": 3,
      "note": 70,
      "start": 47.8739,
      "duration": 0.0261,
      "velocity": 127,
      "chip": "ym2612"
    },
    {
      "channel": 3,
      "note": 70,
      "start": 47.9,
      "duration": 0.0137,
      "velocity": 127,
      "chip": "ym2612"
    },
    {
      "channel": 3,
      "note": 69,
      "start": 47.9137,
      "duration": 0.0138,
      "velocity": 127,
      "chip": "ym2612"
    },
    {
      "channel": 3,
      "note": 68,
      "start": 47.9275,
      "duration": 0.0136,
      "velocity": 127,
      "chip": "ym2612"
    },
    {
      "channel": 3,
      "note": 67,
      "start": 47.9411,
      "duration": 0.0161,
      "velocity": 127,
      "chip": "ym2612"
    },
    {
      "channel": 3,
      "note": 71,
      "start": 47.9573,
      "duration": 0.0008,
      "velocity": 127,
      "chip": "ym2612"
    },
    {
      "channel": 3,
      "note": 70,
      "start": 47.9581,
      "duration": 0.0262,
      "velocity": 127,
      "chip": "ym2612"
    },
    {
      "channel": 3,
      "note": 70,
      "start": 47.9843,
      "duration": 0.0136,
      "velocity": 127,
      "chip": "ym2612"
    },
    {
      "channel": 3,
      "note": 69,
      "start": 47.9979,
      "duration": 0.0157,
      "velocity": 127,
      "chip": "ym2612"
    },
    {
      "channel": 3,
      "note": 68,
      "start": 48.0136,
      "duration": 0.0137,
      "velocity": 127,
      "chip": "ym2612"
    },
    {
      "channel": 3,
      "note": 67,
      "start": 48.0272,
      "duration": 0.0143,
      "velocity": 127,
      "chip": "ym2612"
    },
    {
      "channel": 3,
      "note": 66,
      "start": 48.0415,
      "duration": 0.0309,
      "velocity": 127,
      "chip": "ym2612"
    },
    {
      "channel": 3,
      "note": 66,
      "start": 48.0725,
      "duration": 0.0135,
      "velocity": 127,
      "chip": "ym2612"
    },
    {
      "channel": 3,
      "note": 65,
      "start": 48.086,
      "duration": 0.0137,
      "velocity": 127,
      "chip": "ym2612"
    },
    {
      "channel": 3,
      "note": 64,
      "start": 48.0997,
      "duration": 0.0138,
      "velocity": 127,
      "chip": "ym2612"
    },
    {
      "channel": 3,
      "note": 63,
      "start": 48.1135,
      "duration": 0.0199,
      "velocity": 111,
      "chip": "ym2612"
    },
    {
      "channel": 0,
      "note": 47,
      "start": 48.1278,
      "duration": 0.3594,
      "velocity": 113,
      "chip": "ym2612"
    },
    {
      "channel": 1,
      "note": 71,
      "start": 48.1297,
      "duration": 0.358,
      "velocity": 115,
      "chip": "ym2612"
    },
    {
      "channel": 2,
      "note": 74,
      "start": 48.1317,
      "duration": 0.1745,
      "velocity": 110,
      "chip": "ym2612"
    },
    {
      "channel": 3,
      "note": 78,
      "start": 48.1337,
      "duration": 0.3565,
      "velocity": 99,
      "chip": "ym2612"
    },
    {
      "channel": 4,
      "note": 112,
      "start": 48.1341,
      "duration": 0.5271,
      "velocity": 100,
      "chip": "ym2612"
    },
    {
      "channel": 2,
      "note": 71,
      "start": 48.3064,
      "duration": 0.1818,
      "velocity": 110,
      "chip": "ym2612"
    },
    {
      "channel": 0,
      "note": 59,
      "start": 48.4873,
      "duration": 0.1723,
      "velocity": 113,
      "chip": "ym2612"
    },
    {
      "channel": 1,
      "note": 74,
      "start": 48.4878,
      "duration": 0.086,
      "velocity": 115,
      "chip": "ym2612"
    },
    {
      "channel": 2,
      "note": 74,
      "start": 48.4883,
      "duration": 0.1723,
      "velocity": 110,
      "chip": "ym2612"
    },
    {
      "channel": 3,
      "note": 86,
      "start": 48.4903,
      "duration": 0.3467,
      "velocity": 99,
      "chip": "ym2612"
    },
    {
      "channel": 1,
      "note": 73,
      "start": 48.574,
      "duration": 0.0862,
      "velocity": 115,
      "chip": "ym2612"
    },
    {
      "channel": 0,
      "note": 57,
      "start": 48.6598,
      "duration": 0.3692,
      "velocity": 113,
      "chip": "ym2612"
    },
    {
      "channel": 1,
      "note": 71,
      "start": 48.6603,
      "duration": 0.1757,
      "velocity": 115,
      "chip": "ym2612"
    },
    {
      "channel": 2,
      "note": 78,
      "start": 48.6609,
      "duration": 0.1757,
      "velocity": 110,
      "chip": "ym2612"
    },
    {
      "channel": 4,
      "note": 112,
      "start": 48.6614,
      "duration": 0.0886,
      "velocity": 100,
      "chip": "ym2612"
    },
    {
      "channel": 4,
      "note": 112,
      "start": 48.7502,
      "duration": 0.0873,
      "velocity": 100,
      "chip": "ym2612"
    },
    {
      "channel": 1,
      "note": 76,
      "start": 48.8362,
      "duration": 0.1933,
      "velocity": 115,
      "chip": "ym2612"
    },
    {
      "channel": 2,
      "note": 83,
      "start": 48.8367,
      "duration": 0.1933,
      "velocity": 110,
      "chip": "ym2612"
    },
    {
      "channel": 3,
      "note": 85,
      "start": 48.8372,
      "duration": 0.3656,
      "velocity": 99,
      "chip": "ym2612"
    },
    {
      "channel": 4,
      "note": 112,
      "start": 48.8377,
      "duration": 0.1929,
      "velocity": 100,
      "chip": "ym2612"
    },
    {
      "channel": 0,
      "note": 52,
      "start": 49.0292,
      "duration": 0.1721,
      "velocity": 113,
      "chip": "ym2612"
    },
    {
      "channel": 1,
      "note": 74,
      "start": 49.0297,
      "duration": 0.1721,
      "velocity": 115,
      "chip": "ym2612"
    },
    {
      "channel": 2,
      "note": 78,
      "start": 49.0302,
      "duration": 0.1721,
      "velocity": 110,
      "chip": "ym2612"
    },
    {
      "channel": 4,
      "note": 112,
      "start": 49.0308,
      "duration": 0.5213,
      "velocity": 100,
      "chip": "ym2612"
    },
    {
      "channel": 0,
      "note": 54,
      "start": 49.2014,
      "duration": 0.3458,
      "velocity": 113,
      "chip": "ym2612"
    },
    {
      "channel": 1,
      "note": 73,
      "start": 49.2019,
      "duration": 0.1713,
      "velocity": 115,
      "chip": "ym2612"
    },
    {
      "channel": 2,
      "note": 74,
      "start": 49.2024,
      "duration": 0.1713,
      "velocity": 110,
      "chip": "ym2612"
    },
    {
      "channel": 3,
      "note": 83,
      "start": 49.2029,
      "duration": 0.3486,
      "velocity": 111,
      "chip": "ym2612"
    },
    {
      "channel": 1,
      "note": 69,
      "start": 49.3734,
      "duration": 0.1743,
      "velocity": 115,
      "chip": "ym2612"
    },
    {
      "channel": 2,
      "note": 71,
      "start": 49.3739,
      "duration": 0.1757,
      "velocity": 111,
      "chip": "ym2612"
    },
    {
      "channel": 0,
      "note": 53,
      "start": 49.5474,
      "duration": 0.3588,
      "velocity": 113,
      "chip": "ym2612"
    },
    {
      "channel": 1,
      "note": 72,
      "start": 49.5478,
      "duration": 0.3589,
      "velocity": 115,
      "chip": "ym2612"
    },
    {
      "channel": 2,
      "note": 81,
      "start": 49.5498,
      "duration": 0.1772,
      "velocity": 110,
      "chip": "ym2612"
    },
    {
      "channel": 3,
      "note": 84,
      "start": 49.5518,
      "duration": 0.3574,
      "velocity": 99,
      "chip": "ym2612"
    },
    {
      "channel": 4,
      "note": 112,
      "start": 49.5523,
      "duration": 0.528,
      "velocity": 100,
      "chip": "ym2612"
    },
    {
      "channel": 2,
      "note": 72,
      "start": 49.7271,
      "duration": 0.1801,
      "velocity": 110,
      "chip": "ym2612"
    },
    {
      "channel": 0,
      "note": 65,
      "start": 49.9063,
      "duration": 0.1723,
      "velocity": 113,
      "chip": "ym2612"
    },
    {
      "channel": 1,
      "note": 72,
      "start": 49.9068,
      "duration": 0.086,
      "velocity": 115,
      "chip": "ym2612"
    },
    {
      "channel": 2,
      "note": 77,
      "start": 49.9074,
      "duration": 0.1723,
      "velocity": 110,
      "chip": "ym2612"
    },
    {
      "channel": 3,
      "note": 84,
      "start": 49.9093,
      "duration": 0.3462,
      "velocity": 99,
      "chip": "ym2612"
    },
    {
      "channel": 1,
      "note": 71,
      "start": 49.993,
      "duration": 0.0862,
      "velocity": 115,
      "chip": "ym2612"
    },
    {
      "channel": 0,
      "note": 45,
      "start": 50.0789,
      "duration": 0.3713,
      "velocity": 113,
      "chip": "ym2612"
    },
    {
      "channel": 1,
      "note": 69,
      "start": 50.0794,
      "duration": 0.3713,
      "velocity": 115,
      "chip": "ym2612"
    },
    {
      "channel": 2,
      "note": 81,
      "start": 50.0799,
      "duration": 0.1752,
      "velocity": 110,
      "chip": "ym2612"
    },
    {
      "channel": 4,
      "note": 112,
      "start": 50.0805,
      "duration": 0.0886,
      "velocity": 100,
      "chip": "ym2612"
    },
    {
      "channel": 4,
      "note": 112,
      "start": 50.1693,
      "duration": 0.0868,
      "velocity": 100,
      "chip": "ym2612"
    },
    {
      "channel": 2,
      "note": 84,
      "start": 50.2552,
      "duration": 0.1959,
      "velocity": 110,
      "chip": "ym2612"
    },
    {
      "channel": 3,
      "note": 83,
      "start": 50.2557,
      "duration": 0.3684,
      "velocity": 99,
      "chip": "ym2612"
    },
    {
      "channel": 4,
      "note": 112,
      "start": 50.2563,
      "duration": 0.1954,
      "velocity": 100,
      "chip": "ym2612"
    },
    {
      "channel": 0,
      "note": 57,
      "start": 50.4503,
      "duration": 0.1723,
      "velocity": 113,
      "chip": "ym2612"
    },
    {
      "channel": 1,
      "note": 77,
      "start": 50.4508,
      "duration": 0.1723,
      "velocity": 115,
      "chip": "ym2612"
    },
    {
      "channel": 2,
      "note": 81,
      "start": 50.4513,
      "duration": 0.1723,
      "velocity": 110,
      "chip": "ym2612"
    },
    {
      "channel": 4,
      "note": 112,
      "start": 50.4519,
      "duration": 0.5282,
      "velocity": 100,
      "chip": "ym2612"
    },
    {
      "channel": 0,
      "note": 46,
      "start": 50.6227,
      "duration": 0.176,
      "velocity": 113,
      "chip": "ym2612"
    },
    {
      "channel": 1,
      "note": 76,
      "start": 50.6232,
      "duration": 0.176,
      "velocity": 115,
      "chip": "ym2612"
    },
    {
      "channel": 2,
      "note": 77,
      "start": 50.6237,
      "duration": 0.176,
      "velocity": 110,
      "chip": "ym2612"
    },
    {
      "channel": 3,
      "note": 81,
      "start": 50.6242,
      "duration": 0.3553,
      "velocity": 111,
      "chip": "ym2612"
    },
    {
      "channel": 0,
      "note": 58,
      "start": 50.7989,
      "duration": 0.1761,
      "velocity": 113,
      "chip": "ym2612"
    },
    {
      "channel": 1,
      "note": 72,
      "start": 50.7994,
      "duration": 0.1761,
      "velocity": 115,
      "chip": "ym2612"
    },
    {
      "channel": 2,
      "note": 72,
      "start": 50.8,
      "duration": 0.1776,
      "velocity": 111,
      "chip": "ym2612"
    },
    {
      "channel": 0,
      "note": 47,
      "start": 50.9753,
      "duration": 0.3593,
      "velocity": 113,
      "chip": "ym2612"
    },
    {
      "channel": 1,
      "note": 71,
      "start": 50.9758,
      "duration": 0.3592,
      "velocity": 115,
      "chip": "ym2612"
    },
    {
      "channel": 2,
      "note": 86,
      "start": 50.9777,
      "duration": 0.1757,
      "velocity": 110,
      "chip": "ym2612"
    },
    {
      "channel": 3,
      "note": 78,
      "start": 50.9796,
      "duration": 0.3578,
      "velocity": 99,
      "chip": "ym2612"
    },
    {
      "channel": 4,
      "note": 112,
      "start": 50.9802,
      "duration": 0.5284,
      "velocity": 100,
      "chip": "ym2612"
    },
    {
      "channel": 2,
      "note": 71,
      "start": 51.1536,
      "duration": 0.1819,
      "velocity": 110,
      "chip": "ym2612"
    },
    {
      "channel": 0,
      "note": 59,
      "start": 51.3346,
      "duration": 0.1723,
      "velocity": 113,
      "chip": "ym2612"
    },
    {
      "channel": 1,
      "note": 74,
      "start": 51.3351,
      "duration": 0.086,
      "velocity": 115,
      "chip": "ym2612"
    },
    {
      "channel": 2,
      "note": 74,
      "start": 51.3357,
      "duration": 0.1723,
      "velocity": 110,
      "chip": "ym2612"
    },
    {
      "channel": 3,
      "note": 83,
      "start": 51.3376,
      "duration": 0.3462,
      "velocity": 99,
      "chip": "ym2612"
    },
    {
      "channel": 1,
      "note": 73,
      "start": 51.4213,
      "duration": 0.0862,
      "velocity": 115,
      "chip": "ym2612"
    },
    {
      "channel": 0,
      "note": 57,
      "start": 51.5072,
      "duration": 0.3713,
      "velocity": 113,
      "chip": "ym2612"
    },
    {
      "channel": 1,
      "note": 71,
      "start": 51.5077,
      "duration": 0.3713,
      "velocity": 115,
      "chip": "ym2612"
    },
    {
      "channel": 2,
      "note": 78,
      "start": 51.5082,
      "duration": 0.1752,
      "velocity": 110,
      "chip": "ym2612"
    },
    {
      "channel": 4,
      "note": 112,
      "start": 51.5088,
      "duration": 0.0886,
      "velocity": 100,
      "chip": "ym2612"
    },
    {
      "channel": 4,
      "note": 112,
      "start": 51.5976,
      "duration": 0.0868,
      "velocity": 100,
      "chip": "ym2612"
    },
    {
      "channel": 2,
      "note": 83,
      "start": 51.6835,
      "duration": 0.1959,
      "velocity": 110,
      "chip": "ym2612"
    },
    {
      "channel": 3,
      "note": 78,
      "start": 51.684,
      "duration": 0.3724,
      "velocity": 99,
      "chip": "ym2612"
    },
    {
      "channel": 4,
      "note": 112,
      "start": 51.6846,
      "duration": 0.1954,
      "velocity": 100,
      "chip": "ym2612"
    },
    {
      "channel": 0,
      "note": 52,
      "start": 51.8786,
      "duration": 0.1763,
      "velocity": 113,
      "chip": "ym2612"
    },
    {
      "channel": 1,
      "note": 66,
      "start": 51.8791,
      "duration": 0.1763,
      "velocity": 115,
      "chip": "ym2612"
    },
    {
      "channel": 2,
      "note": 78,
      "start": 51.8796,
      "duration": 0.1763,
      "velocity": 110,
      "chip": "ym2612"
    },
    {
      "channel": 4,
      "note": 112,
      "start": 51.8802,
      "duration": 0.5298,
      "velocity": 100,
      "chip": "ym2612"
    },
    {
      "channel": 0,
      "note": 54,
      "start": 52.055,
      "duration": 0.3501,
      "velocity": 113,
      "chip": "ym2612"
    },
    {
      "channel": 1,
      "note": 69,
      "start": 52.0555,
      "duration": 0.1755,
      "velocity": 115,
      "chip": "ym2612"
    },
    {
      "channel": 2,
      "note": 74,
      "start": 52.056,
      "duration": 0.1755,
      "velocity": 110,
      "chip": "ym2612"
    },
    {
      "channel": 3,
      "note": 74,
      "start": 52.0565,
      "duration": 0.3529,
      "velocity": 111,
      "chip": "ym2612"
    },
    {
      "channel": 1,
      "note": 71,
      "start": 52.2312,
      "duration": 0.1744,
      "velocity": 115,
      "chip": "ym2612"
    },
    {
      "channel": 2,
      "note": 71,
      "start": 52.2317,
      "duration": 0.1758,
      "velocity": 111,
      "chip": "ym2612"
    },
    {
      "channel": 0,
      "note": 53,
      "start": 52.4053,
      "duration": 0.3567,
      "velocity": 113,
      "chip": "ym2612"
    },
    {
      "channel": 1,
      "note": 77,
      "start": 52.4057,
      "duration": 0.3568,
      "velocity": 115,
      "chip": "ym2612"
    },
    {
      "channel": 2,
      "note": 84,
      "start": 52.4077,
      "duration": 0.175,
      "velocity": 110,
      "chip": "ym2612"
    },
    {
      "channel": 3,
      "note": 93,
      "start": 52.4097,
      "duration": 0.3552,
      "velocity": 99,
      "chip": "ym2612"
    },
    {
      "channel": 4,
      "note": 112,
      "start": 52.4102,
      "duration": 0.5251,
      "velocity": 100,
      "chip": "ym2612"
    },
    {
      "channel": 2,
      "note": 77,
      "start": 52.5828,
      "duration": 0.1801,
      "velocity": 110,
      "chip": "ym2612"
    },
    {
      "channel": 0,
      "note": 65,
      "start": 52.7621,
      "duration": 0.1721,
      "velocity": 113,
      "chip": "ym2612"
    },
    {
      "channel": 1,
      "note": 76,
      "start": 52.7626,
      "duration": 0.3519,
      "velocity": 115,
      "chip": "ym2612"
    },
    {
      "channel": 2,
      "note": 81,
      "start": 52.7631,
      "duration": 0.1716,
      "velocity": 110,
      "chip": "ym2612"
    },
    {
      "channel": 3,
      "note": 77,
      "start": 52.7651,
      "duration": 0.3504,
      "velocity": 99,
      "chip": "ym2612"
    },
    {
      "channel": 0,
      "note": 45,
      "start": 52.9344,
      "duration": 0.373,
      "velocity": 113,
      "chip": "ym2612"
    },
    {
      "channel": 2,
      "note": 84,
      "start": 52.9349,
      "duration": 0.18,
      "velocity": 110,
      "chip": "ym2612"
    },
    {
      "channel": 4,
      "note": 112,
      "start": 52.9355,
      "duration": 0.089,
      "velocity": 100,
      "chip": "ym2612"
    },
    {
      "channel": 4,
      "note": 112,
      "start": 53.0246,
      "duration": 0.0913,
      "velocity": 100,
      "chip": "ym2612"
    },
    {
      "channel": 1,
      "note": 74,
      "start": 53.1146,
      "duration": 0.3658,
      "velocity": 115,
      "chip": "ym2612"
    },
    {
      "channel": 2,
      "note": 89,
      "start": 53.1151,
      "duration": 0.1929,
      "velocity": 110,
      "chip": "ym2612"
    },
    {
      "channel": 3,
      "note": 81,
      "start": 53.1156,
      "duration": 0.3659,
      "velocity": 99,
      "chip": "ym2612"
    },
    {
      "channel": 4,
      "note": 112,
      "start": 53.1161,
      "duration": 0.1924,
      "velocity": 100,
      "chip": "ym2612"
    },
    {
      "channel": 0,
      "note": 57,
      "start": 53.3076,
      "duration": 0.1723,
      "velocity": 113,
      "chip": "ym2612"
    },
    {
      "channel": 2,
      "note": 84,
      "start": 53.3081,
      "duration": 0.1728,
      "velocity": 110,
      "chip": "ym2612"
    },
    {
      "channel": 4,
      "note": 112,
      "start": 53.3086,
      "duration": 0.5321,
      "velocity": 111,
      "chip": "ym2612"
    },
    {
      "channel": 0,
      "note": 46,
      "start": 53.4801,
      "duration": 0.1801,
      "velocity": 113,
      "chip": "ym2612"
    },
    {
      "channel": 1,
      "note": 72,
      "start": 53.4806,
      "duration": 0.3542,
      "velocity": 115,
      "chip": "ym2612"
    },
    {
      "channel": 2,
      "note": 81,
      "start": 53.4811,
      "duration": 0.1797,
      "velocity": 110,
      "chip": "ym2612"
    },
    {
      "channel": 3,
      "note": 84,
      "start": 53.4816,
      "duration": 0.3571,
      "velocity": 111,
      "chip": "ym2612"
    },
    {
      "channel": 0,
      "note": 58,
      "start": 53.6604,
      "duration": 0.1739,
      "velocity": 113,
      "chip": "ym2612"
    },
    {
      "channel": 2,
      "note": 77,
      "start": 53.661,
      "duration": 0.1758,
      "velocity": 109,
      "chip": "ym2612"
    },
    {
      "channel": 0,
      "note": 47,
      "start": 53.8345,
      "duration": 0.3629,
      "velocity": 113,
      "chip": "ym2612"
    },
    {
      "channel": 1,
      "note": 71,
      "start": 53.835,
      "duration": 0.3628,
      "velocity": 115,
      "chip": "ym2612"
    },
    {
      "channel": 2,
      "note": 83,
      "start": 53.8369,
      "duration": 0.9029,
      "velocity": 109,
      "chip": "ym2612"
    },
    {
      "channel": 3,
      "note": 78,
      "start": 53.8389,
      "duration": 0.361,
      "velocity": 99,
      "chip": "ym2612"
    },
    {
      "channel": 4,
      "note": 74,
      "start": 53.8409,
      "duration": 0.1755,
      "velocity": 110,
      "chip": "ym2612"
    },
    {
      "channel": 4,
      "note": 71,
      "start": 54.0166,
      "duration": 0.1837,
      "velocity": 110,
      "chip": "ym2612"
    },
    {
      "channel": 0,
      "note": 59,
      "start": 54.1975,
      "duration": 0.174,
      "velocity": 113,
      "chip": "ym2612"
    },
    {
      "channel": 1,
      "note": 74,
      "start": 54.198,
      "duration": 0.0878,
      "velocity": 115,
      "chip": "ym2612"
    },
    {
      "channel": 3,
      "note": 86,
      "start": 54.2,
      "duration": 0.3461,
      "velocity": 99,
      "chip": "ym2612"
    },
    {
      "channel": 4,
      "note": 74,
      "start": 54.2005,
      "duration": 0.172,
      "velocity": 110,
      "chip": "ym2612"
    },
    {
      "channel": 1,
      "note": 73,
      "start": 54.286,
      "duration": 0.086,
      "velocity": 115,
      "chip": "ym2612"
    },
    {
      "channel": 0,
      "note": 57,
      "start": 54.3716,
      "duration": 0.3673,
      "velocity": 113,
      "chip": "ym2612"
    },
    {
      "channel": 1,
      "note": 71,
      "start": 54.3721,
      "duration": 0.1735,
      "velocity": 115,
      "chip": "ym2612"
    },
    {
      "channel": 4,
      "note": 78,
      "start": 54.3727,
      "duration": 0.174,
      "velocity": 110,
      "chip": "ym2612"
    },
    {
      "channel": 1,
      "note": 76,
      "start": 54.5458,
      "duration": 0.1936,
      "velocity": 115,
      "chip": "ym2612"
    },
    {
      "channel": 3,
      "note": 85,
      "start": 54.5464,
      "duration": 0.3664,
      "velocity": 99,
      "chip": "ym2612"
    },
    {
      "channel": 4,
      "note": 83,
      "start": 54.5469,
      "duration": 0.1936,
      "velocity": 110,
      "chip": "ym2612"
    },
    {
      "channel": 0,
      "note": 52,
      "start": 54.7391,
      "duration": 0.1722,
      "velocity": 113,
      "chip": "ym2612"
    },
    {
      "channel": 1,
      "note": 74,
      "start": 54.7396,
      "duration": 0.1722,
      "velocity": 115,
      "chip": "ym2612"
    },
    {
      "channel": 2,
      "note": 83,
      "start": 54.7401,
      "duration": 0.1722,
      "velocity": 109,
      "chip": "ym2612"
    },
    {
      "channel": 4,
      "note": 78,
      "start": 54.7407,
      "duration": 0.1726,
      "velocity": 110,
      "chip": "ym2612"
    },
    {
      "channel": 0,
      "note": 54,
      "start": 54.9114,
      "duration": 0.3584,
      "velocity": 113,
      "chip": "ym2612"
    },
    {
      "channel": 1,
      "note": 73,
      "start": 54.9119,
      "duration": 0.1796,
      "velocity": 115,
      "chip": "ym2612"
    },
    {
      "channel": 2,
      "note": 85,
      "start": 54.9124,
      "duration": 0.1796,
      "velocity": 109,
      "chip": "ym2612"
    },
    {
      "channel": 3,
      "note": 83,
      "start": 54.9129,
      "duration": 0.3598,
      "velocity": 111,
      "chip": "ym2612"
    },
    {
      "channel": 4,
      "note": 74,
      "start": 54.9134,
      "duration": 0.1792,
      "velocity": 110,
      "chip": "ym2612"
    },
    {
      "channel": 1,
      "note": 69,
      "start": 55.0917,
      "duration": 0.1786,
      "velocity": 115,
      "chip": "ym2612"
    },
    {
      "channel": 2,
      "note": 86,
      "start": 55.0922,
      "duration": 0.1786,
      "velocity": 109,
      "chip": "ym2612"
    },
    {
      "channel": 4,
      "note": 71,
      "start": 55.0928,
      "duration": 0.1819,
      "velocity": 111,
      "chip": "ym2612"
    },
    {
      "channel": 0,
      "note": 53,
      "start": 55.27,
      "duration": 0.3533,
      "velocity": 113,
      "chip": "ym2612"
    },
    {
      "channel": 1,
      "note": 72,
      "start": 55.2705,
      "duration": 0.3533,
      "velocity": 115,
      "chip": "ym2612"
    },
    {
      "channel": 2,
      "note": 89,
      "start": 55.271,
      "duration": 0.7026,
      "velocity": 109,
      "chip": "ym2612"
    },
    {
      "channel": 3,
      "note": 84,
      "start": 55.2729,
      "duration": 0.3528,
      "velocity": 99,
      "chip": "ym2612"
    },
    {
      "channel": 4,
      "note": 81,
      "start": 55.2749,
      "duration": 0.1692,
      "velocity": 110,
      "chip": "ym2612"
    },
    {
      "channel": 4,
      "note": 72,
      "start": 55.4442,
      "duration": 0.182,
      "velocity": 110,
      "chip": "ym2612"
    },
    {
      "channel": 0,
      "note": 65,
      "start": 55.6234,
      "duration": 0.1739,
      "velocity": 113,
      "chip": "ym2612"
    },
    {
      "channel": 1,
      "note": 72,
      "start": 55.6239,
      "duration": 0.0877,
      "velocity": 115,
      "chip": "ym2612"
    },
    {
      "channel": 3,
      "note": 84,
      "start": 55.6259,
      "duration": 0.3481,
      "velocity": 99,
      "chip": "ym2612"
    },
    {
      "channel": 4,
      "note": 77,
      "start": 55.6264,
      "duration": 0.1719,
      "velocity": 110,
      "chip": "ym2612"
    },
    {
      "channel": 1,
      "note": 71,
      "start": 55.7117,
      "duration": 0.086,
      "velocity": 115,
      "chip": "ym2612"
    },
    {
      "channel": 0,
      "note": 45,
      "start": 55.7974,
      "duration": 0.3711,
      "velocity": 113,
      "chip": "ym2612"
    },
    {
      "channel": 1,
      "note": 69,
      "start": 55.7979,
      "duration": 0.3712,
      "velocity": 115,
      "chip": "ym2612"
    },
    {
      "channel": 4,
      "note": 81,
      "start": 55.7985,
      "duration": 0.1761,
      "velocity": 110,
      "chip": "ym2612"
    },
    {
      "channel": 2,
      "note": 88,
      "start": 55.9737,
      "duration": 0.3724,
      "velocity": 109,
      "chip": "ym2612"
    },
    {
      "channel": 3,
      "note": 83,
      "start": 55.9742,
      "duration": 0.3724,
      "velocity": 99,
      "chip": "ym2612"
    },
    {
      "channel": 4,
      "note": 84,
      "start": 55.9747,
      "duration": 0.195,
      "velocity": 110,
      "chip": "ym2612"
    },
    {
      "channel": 0,
      "note": 57,
      "start": 56.1687,
      "duration": 0.1764,
      "velocity": 113,
      "chip": "ym2612"
    },
    {
      "channel": 1,
      "note": 77,
      "start": 56.1692,
      "duration": 0.1764,
      "velocity": 115,
      "chip": "ym2612"
    },
    {
      "channel": 4,
      "note": 81,
      "start": 56.1698,
      "duration": 0.1774,
      "velocity": 110,
      "chip": "ym2612"
    },
    {
      "channel": 0,
      "note": 46,
      "start": 56.3453,
      "duration": 0.1761,
      "velocity": 113,
      "chip": "ym2612"
    },
    {
      "channel": 1,
      "note": 76,
      "start": 56.3458,
      "duration": 0.1761,
      "velocity": 115,
      "chip": "ym2612"
    },
    {
      "channel": 2,
      "note": 89,
      "start": 56.3463,
      "duration": 0.3545,
      "velocity": 109,
      "chip": "ym2612"
    },
    {
      "channel": 3,
      "note": 81,
      "start": 56.3468,
      "duration": 0.3559,
      "velocity": 111,
      "chip": "ym2612"
    },
    {
      "channel": 4,
      "note": 77,
      "start": 56.3473,
      "duration": 0.1752,
      "velocity": 110,
      "chip": "ym2612"
    },
    {
      "channel": 0,
      "note": 58,
      "start": 56.5215,
      "duration": 0.1782,
      "velocity": 113,
      "chip": "ym2612"
    },
    {
      "channel": 1,
      "note": 72,
      "start": 56.522,
      "duration": 0.1782,
      "velocity": 115,
      "chip": "ym2612"
    },
    {
      "channel": 4,
      "note": 72,
      "start": 56.5227,
      "duration": 0.182,
      "velocity": 111,
      "chip": "ym2612"
    },
    {
      "channel": 0,
      "note": 47,
      "start": 56.7,
      "duration": 0.3629,
      "velocity": 113,
      "chip": "ym2612"
    },
    {
      "channel": 1,
      "note": 71,
      "start": 56.7005,
      "duration": 0.3629,
      "velocity": 115,
      "chip": "ym2612"
    },
    {
      "channel": 2,
      "note": 90,
      "start": 56.7009,
      "duration": 0.363,
      "velocity": 109,
      "chip": "ym2612"
    },
    {
      "channel": 3,
      "note": 78,
      "start": 56.7029,
      "duration": 0.3629,
      "velocity": 99,
      "chip": "ym2612"
    },
    {
      "channel": 4,
      "note": 86,
      "start": 56.7049,
      "duration": 0.1749,
      "velocity": 110,
      "chip": "ym2612"
    },
    {
      "channel": 4,
      "note": 71,
      "start": 56.88,
      "duration": 0.1863,
      "velocity": 110,
      "chip": "ym2612"
    },
    {
      "channel": 0,
      "note": 59,
      "start": 57.0631,
      "duration": 0.1724,
      "velocity": 113,
      "chip": "ym2612"
    },
    {
      "channel": 1,
      "note": 74,
      "start": 57.0636,
      "duration": 0.086,
      "velocity": 115,
      "chip": "ym2612"
    },
    {
      "channel": 2,
      "note": 86,
      "start": 57.0641,
      "duration": 0.1723,
      "velocity": 109,
      "chip": "ym2612"
    },
    {
      "channel": 3,
      "note": 83,
      "start": 57.066,
      "duration": 0.3441,
      "velocity": 99,
      "chip": "ym2612"
    },
    {
      "channel": 4,
      "note": 74,
      "start": 57.0665,
      "duration": 0.1705,
      "velocity": 110,
      "chip": "ym2612"
    },
    {
      "channel": 1,
      "note": 73,
      "start": 57.1498,
      "duration": 0.0861,
      "velocity": 115,
      "chip": "ym2612"
    },
    {
      "channel": 0,
      "note": 57,
      "start": 57.2356,
      "duration": 0.369,
      "velocity": 113,
      "chip": "ym2612"
    },
    {
      "channel": 1,
      "note": 71,
      "start": 57.2361,
      "duration": 0.369,
      "velocity": 115,
      "chip": "ym2612"
    },
    {
      "channel": 2,
      "note": 83,
      "start": 57.2366,
      "duration": 0.173,
      "velocity": 109,
      "chip": "ym2612"
    },
    {
      "channel": 4,
      "note": 78,
      "start": 57.2372,
      "duration": 0.1735,
      "velocity": 110,
      "chip": "ym2612"
    },
    {
      "channel": 2,
      "note": 78,
      "start": 57.4098,
      "duration": 0.3742,
      "velocity": 109,
      "chip": "ym2612"
    },
    {
      "channel": 3,
      "note": 78,
      "start": 57.4103,
      "duration": 0.3742,
      "velocity": 99,
      "chip": "ym2612"
    },
    {
      "channel": 4,
      "note": 83,
      "start": 57.4108,
      "duration": 0.1949,
      "velocity": 110,
      "chip": "ym2612"
    },
    {
      "channel": 0,
      "note": 52,
      "start": 57.6048,
      "duration": 0.1783,
      "velocity": 113,
      "chip": "ym2612"
    },
    {
      "channel": 1,
      "note": 66,
      "start": 57.6053,
      "duration": 0.1783,
      "velocity": 115,
      "chip": "ym2612"
    },
    {
      "channel": 4,
      "note": 78,
      "start": 57.6059,
      "duration": 0.1792,
      "velocity": 110,
      "chip": "ym2612"
    },
    {
      "channel": 0,
      "note": 54,
      "start": 57.7832,
      "duration": 0.3483,
      "velocity": 113,
      "chip": "ym2612"
    },
    {
      "channel": 1,
      "note": 69,
      "start": 57.7837,
      "duration": 0.1756,
      "velocity": 115,
      "chip": "ym2612"
    },
    {
      "channel": 2,
      "note": 74,
      "start": 57.7842,
      "duration": 0.3483,
      "velocity": 109,
      "chip": "ym2612"
    },
    {
      "channel": 3,
      "note": 74,
      "start": 57.7847,
      "duration": 0.3497,
      "velocity": 111,
      "chip": "ym2612"
    },
    {
      "channel": 4,
      "note": 74,
      "start": 57.7852,
      "duration": 0.1747,
      "velocity": 110,
      "chip": "ym2612"
    },
    {
      "channel": 1,
      "note": 71,
      "start": 57.9595,
      "duration": 0.1724,
      "velocity": 115,
      "chip": "ym2612"
    },
    {
      "channel": 4,
      "note": 71,
      "start": 57.9602,
      "duration": 0.1762,
      "velocity": 111,
      "chip": "ym2612"
    },
    {
      "channel": 0,
      "note": 53,
      "start": 58.1317,
      "duration": 0.359,
      "velocity": 113,
      "chip": "ym2612"
    },
    {
      "channel": 1,
      "note": 77,
      "start": 58.1321,
      "duration": 0.359,
      "velocity": 115,
      "chip": "ym2612"
    },
    {
      "channel": 2,
      "note": 77,
      "start": 58.1326,
      "duration": 0.713,
      "velocity": 109,
      "chip": "ym2612"
    },
    {
      "channel": 3,
      "note": 93,
      "start": 58.1346,
      "duration": 0.3585,
      "velocity": 99,
      "chip": "ym2612"
    },
    {
      "channel": 4,
      "note": 84,
      "start": 58.1366,
      "duration": 0.1748,
      "velocity": 110,
      "chip": "ym2612"
    },
    {
      "channel": 4,
      "note": 77,
      "start": 58.3116,
      "duration": 0.1821,
      "velocity": 110,
      "chip": "ym2612"
    },
    {
      "channel": 0,
      "note": 65,
      "start": 58.4908,
      "duration": 0.1782,
      "velocity": 113,
      "chip": "ym2612"
    },
    {
      "channel": 1,
      "note": 76,
      "start": 58.4913,
      "duration": 0.3539,
      "velocity": 115,
      "chip": "ym2612"
    },
    {
      "channel": 3,
      "note": 77,
      "start": 58.4933,
      "duration": 0.3529,
      "velocity": 99,
      "chip": "ym2612"
    },
    {
      "channel": 4,
      "note": 81,
      "start": 58.4938,
      "duration": 0.1758,
      "velocity": 110,
      "chip": "ym2612"
    },
    {
      "channel": 0,
      "note": 45,
      "start": 58.6691,
      "duration": 0.3711,
      "velocity": 113,
      "chip": "ym2612"
    },
    {
      "channel": 4,
      "note": 84,
      "start": 58.6698,
      "duration": 0.1768,
      "velocity": 110,
      "chip": "ym2612"
    },
    {
      "channel": 1,
      "note": 74,
      "start": 58.8453,
      "duration": 0.3722,
      "velocity": 115,
      "chip": "ym2612"
    },
    {
      "channel": 2,
      "note": 81,
      "start": 58.8458,
      "duration": 0.1965,
      "velocity": 95,
      "chip": "ym2612"
    },
    {
      "channel": 3,
      "note": 81,
      "start": 58.8463,
      "duration": 0.3722,
      "velocity": 99,
      "chip": "ym2612"
    },
    {
      "channel": 4,
      "note": 89,
      "start": 58.8468,
      "duration": 0.196,
      "velocity": 110,
      "chip": "ym2612"
    },
    {
      "channel": 0,
      "note": 57,
      "start": 59.0405,
      "duration": 0.1765,
      "velocity": 113,
      "chip": "ym2612"
    },
    {
      "channel": 2,
      "note": 65,
      "start": 59.0424,
      "duration": 0.1755,
      "velocity": 95,
      "chip": "ym2612"
    },
    {
      "channel": 4,
      "note": 84,
      "start": 59.043,
      "duration": 0.176,
      "velocity": 110,
      "chip": "ym2612"
    },
    {
      "channel": 0,
      "note": 46,
      "start": 59.2171,
      "duration": 0.1761,
      "velocity": 113,
      "chip": "ym2612"
    },
    {
      "channel": 1,
      "note": 72,
      "start": 59.2176,
      "duration": 0.351,
      "velocity": 95,
      "chip": "ym2612"
    },
    {
      "channel": 2,
      "note": 69,
      "start": 59.2181,
      "duration": 0.1757,
      "velocity": 95,
      "chip": "ym2612"
    },
    {
      "channel": 3,
      "note": 84,
      "start": 59.2187,
      "duration": 0.3539,
      "velocity": 96,
      "chip": "ym2612"
    },
    {
      "channel": 4,
      "note": 81,
      "start": 59.2192,
      "duration": 0.1753,
      "velocity": 110,
      "chip": "ym2612"
    },
    {
      "channel": 0,
      "note": 58,
      "start": 59.3935,
      "duration": 0.1732,
      "velocity": 99,
      "chip": "ym2612"
    },
    {
      "channel": 2,
      "note": 72,
      "start": 59.3941,
      "duration": 0.1765,
      "velocity": 96,
      "chip": "ym2612"
    },
    {
      "channel": 4,
      "note": 77,
      "start": 59.3946,
      "duration": 0.1799,
      "velocity": 100,
      "chip": "ym2612"
    },
    {
      "channel": 0,
      "note": 52,
      "start": 59.5669,
      "duration": 0.358,
      "velocity": 99,
      "chip": "ym2612"
    },
    {
      "channel": 1,
      "note": 71,
      "start": 59.5689,
      "duration": 0.1751,
      "velocity": 95,
      "chip": "ym2612"
    },
    {
      "channel": 2,
      "note": 80,
      "start": 59.5708,
      "duration": 0.7049,
      "velocity": 96,
      "chip": "ym2612"
    },
    {
      "channel": 3,
      "note": 83,
      "start": 59.5727,
      "duration": 0.7035,
      "velocity": 96,
      "chip": "ym2612"
    },
    {
      "channel": 4,
      "note": 112,
      "start": 59.5746,
      "duration": 0.5268,
      "velocity": 100,
      "chip": "ym2612"
    },
    {
      "channel": 1,
      "note": 68,
      "start": 59.7441,
      "duration": 0.3568,
      "velocity": 95,
      "chip": "ym2612"
    },
    {
      "channel": 0,
      "note": 64,
      "start": 59.9251,
      "duration": 0.1738,
      "velocity": 99,
      "chip": "ym2612"
    },
    {
      "channel": 0,
      "note": 52,
      "start": 60.099,
      "duration": 0.3678,
      "velocity": 99,
      "chip": "ym2612"
    },
    {
      "channel": 1,
      "note": 64,
      "start": 60.101,
      "duration": 0.3663,
      "velocity": 95,
      "chip": "ym2612"
    },
    {
      "channel": 4,
      "note": 112,
      "start": 60.1017,
      "duration": 0.0839,
      "velocity": 100,
      "chip": "ym2612"
    },
    {
      "channel": 4,
      "note": 112,
      "start": 60.1857,
      "duration": 0.091,
      "velocity": 100,
      "chip": "ym2612"
    },
    {
      "channel": 2,
      "note": 86,
      "start": 60.2759,
      "duration": 0.7194,
      "velocity": 96,
      "chip": "ym2612"
    },
    {
      "channel": 3,
      "note": 80,
      "start": 60.2764,
      "duration": 0.3714,
      "velocity": 96,
      "chip": "ym2612"
    },
    {
      "channel": 4,
      "note": 112,
      "start": 60.2769,
      "duration": 0.1911,
      "velocity": 100,
      "chip": "ym2612"
    },
    {
      "channel": 0,
      "note": 64,
      "start": 60.4671,
      "duration": 0.1783,
      "velocity": 99,
      "chip": "ym2612"
    },
    {
      "channel": 1,
      "note": 61,
      "start": 60.4676,
      "duration": 0.1797,
      "velocity": 95,
      "chip": "ym2612"
    },
    {
      "channel": 4,
      "note": 112,
      "start": 60.4682,
      "duration": 0.5282,
      "velocity": 100,
      "chip": "ym2612"
    },
    {
      "channel": 0,
      "note": 47,
      "start": 60.6455,
      "duration": 0.1741,
      "velocity": 99,
      "chip": "ym2612"
    },
    {
      "channel": 1,
      "note": 59,
      "start": 60.6474,
      "duration": 0.1742,
      "velocity": 95,
      "chip": "ym2612"
    },
    {
      "channel": 3,
      "note": 76,
      "start": 60.648,
      "duration": 0.3479,
      "velocity": 96,
      "chip": "ym2612"
    },
    {
      "channel": 0,
      "note": 49,
      "start": 60.8199,
      "duration": 0.1744,
      "velocity": 99,
      "chip": "ym2612"
    },
    {
      "channel": 1,
      "note": 61,
      "start": 60.8218,
      "duration": 0.1731,
      "velocity": 95,
      "chip": "ym2612"
    },
    {
      "channel": 0,
      "note": 50,
      "start": 60.9945,
      "duration": 0.3586,
      "velocity": 99,
      "chip": "ym2612"
    },
    {
      "channel": 1,
      "note": 62,
      "start": 60.995,
      "duration": 0.3586,
      "velocity": 95,
      "chip": "ym2612"
    },
    {
      "channel": 2,
      "note": 85,
      "start": 60.9955,
      "duration": 0.3586,
      "velocity": 96,
      "chip": "ym2612"
    },
    {
      "channel": 3,
      "note": 81,
      "start": 60.996,
      "duration": 0.3586,
      "velocity": 96,
      "chip": "ym2612"
    },
    {
      "channel": 4,
      "note": 112,
      "start": 60.9965,
      "duration": 0.5328,
      "velocity": 100,
      "chip": "ym2612"
    },
    {
      "channel": 0,
      "note": 62,
      "start": 61.3532,
      "duration": 0.1739,
      "velocity": 99,
      "chip": "ym2612"
    },
    {
      "channel": 1,
      "note": 61,
      "start": 61.3537,
      "duration": 0.3553,
      "velocity": 95,
      "chip": "ym2612"
    },
    {
      "channel": 2,
      "note": 81,
      "start": 61.3542,
      "duration": 0.3553,
      "velocity": 96,
      "chip": "ym2612"
    },
    {
      "channel": 3,
      "note": 78,
      "start": 61.3547,
      "duration": 0.3553,
      "velocity": 96,
      "chip": "ym2612"
    },
    {
      "channel": 0,
      "note": 50,
      "start": 61.5273,
      "duration": 0.3754,
      "velocity": 99,
      "chip": "ym2612"
    },
    {
      "channel": 4,
      "note": 112,
      "start": 61.5295,
      "duration": 0.088,
      "velocity": 100,
      "chip": "ym2612"
    },
    {
      "channel": 4,
      "note": 112,
      "start": 61.6177,
      "duration": 0.0929,
      "velocity": 100,
      "chip": "ym2612"
    },
    {
      "channel": 1,
      "note": 59,
      "start": 61.7092,
      "duration": 0.1941,
      "velocity": 95,
      "chip": "ym2612"
    },
    {
      "channel": 2,
      "note": 80,
      "start": 61.7097,
      "duration": 0.194,
      "velocity": 96,
      "chip": "ym2612"
    },
    {
      "channel": 3,
      "note": 76,
      "start": 61.7102,
      "duration": 0.1941,
      "velocity": 96,
      "chip": "ym2612"
    },
    {
      "channel": 4,
      "note": 112,
      "start": 61.7107,
      "duration": 0.194,
      "velocity": 100,
      "chip": "ym2612"
    },
    {
      "channel": 0,
      "note": 62,
      "start": 61.9029,
      "duration": 0.1722,
      "velocity": 99,
      "chip": "ym2612"
    },
    {
      "channel": 1,
      "note": 57,
      "start": 61.9034,
      "duration": 0.1736,
      "velocity": 95,
      "chip": "ym2612"
    },
    {
      "channel": 2,
      "note": 81,
      "start": 61.9039,
      "duration": 0.1737,
      "velocity": 96,
      "chip": "ym2612"
    },
    {
      "channel": 3,
      "note": 78,
      "start": 61.9044,
      "duration": 0.1736,
      "velocity": 96,
      "chip": "ym2612"
    },
    {
      "channel": 4,
      "note": 112,
      "start": 61.9049,
      "duration": 0.525,
      "velocity": 100,
      "chip": "ym2612"
    },
    {
      "channel": 0,
      "note": 47,
      "start": 62.0753,
      "duration": 0.1742,
      "velocity": 99,
      "chip": "ym2612"
    },
    {
      "channel": 1,
      "note": 59,
      "start": 62.0772,
      "duration": 0.1742,
      "velocity": 95,
      "chip": "ym2612"
    },
    {
      "channel": 2,
      "note": 78,
      "start": 62.0777,
      "duration": 0.1742,
      "velocity": 96,
      "chip": "ym2612"
    },
    {
      "channel": 3,
      "note": 74,
      "start": 62.0783,
      "duration": 0.1742,
      "velocity": 96,
      "chip": "ym2612"
    },
    {
      "channel": 0,
      "note": 49,
      "start": 62.2496,
      "duration": 0.1783,
      "velocity": 99,
      "chip": "ym2612"
    },
    {
      "channel": 1,
      "note": 61,
      "start": 62.2516,
      "duration": 0.1768,
      "velocity": 95,
      "chip": "ym2612"
    },
    {
      "channel": 2,
      "note": 74,
      "start": 62.2521,
      "duration": 0.1768,
      "velocity": 96,
      "chip": "ym2612"
    },
    {
      "channel": 3,
      "note": 69,
      "start": 62.2526,
      "duration": 0.1768,
      "velocity": 96,
      "chip": "ym2612"
    },
    {
      "channel": 0,
      "note": 52,
      "start": 62.4281,
      "duration": 0.3612,
      "velocity": 99,
      "chip": "ym2612"
    },
    {
      "channel": 1,
      "note": 59,
      "start": 62.4286,
      "duration": 0.3612,
      "velocity": 95,
      "chip": "ym2612"
    },
    {
      "channel": 2,
      "note": 76,
      "start": 62.4291,
      "duration": 0.3612,
      "velocity": 96,
      "chip": "ym2612"
    },
    {
      "channel": 3,
      "note": 71,
      "start": 62.4296,
      "duration": 0.3613,
      "velocity": 96,
      "chip": "ym2612"
    },
    {
      "channel": 4,
      "note": 112,
      "start": 62.4301,
      "duration": 0.5344,
      "velocity": 100,
      "chip": "ym2612"
    },
    {
      "channel": 0,
      "note": 64,
      "start": 62.7895,
      "duration": 0.1739,
      "velocity": 99,
      "chip": "ym2612"
    },
    {
      "channel": 1,
      "note": 64,
      "start": 62.79,
      "duration": 0.1739,
      "velocity": 95,
      "chip": "ym2612"
    },
    {
      "channel": 2,
      "note": 80,
      "start": 62.7905,
      "duration": 0.3486,
      "velocity": 96,
      "chip": "ym2612"
    },
    {
      "channel": 3,
      "note": 76,
      "start": 62.791,
      "duration": 0.3486,
      "velocity": 96,
      "chip": "ym2612"
    },
    {
      "channel": 0,
      "note": 52,
      "start": 62.9635,
      "duration": 0.3692,
      "velocity": 99,
      "chip": "ym2612"
    },
    {
      "channel": 1,
      "note": 66,
      "start": 62.964,
      "duration": 0.3707,
      "velocity": 95,
      "chip": "ym2612"
    },
    {
      "channel": 4,
      "note": 112,
      "start": 62.9647,
      "duration": 0.0849,
      "velocity": 100,
      "chip": "ym2612"
    },
    {
      "channel": 4,
      "note": 112,
      "start": 63.0498,
      "duration": 0.0904,
      "velocity": 100,
      "chip": "ym2612"
    },
    {
      "channel": 2,
      "note": 83,
      "start": 63.1393,
      "duration": 0.3666,
      "velocity": 96,
      "chip": "ym2612"
    },
    {
      "channel": 3,
      "note": 80,
      "start": 63.1398,
      "duration": 0.3667,
      "velocity": 96,
      "chip": "ym2612"
    },
    {
      "channel": 4,
      "note": 112,
      "start": 63.1403,
      "duration": 0.1951,
      "velocity": 100,
      "chip": "ym2612"
    },
    {
      "channel": 0,
      "note": 64,
      "start": 63.3329,
      "duration": 0.1724,
      "velocity": 99,
      "chip": "ym2612"
    },
    {
      "channel": 1,
      "note": 68,
      "start": 63.3349,
      "duration": 0.5207,
      "velocity": 95,
      "chip": "ym2612"
    },
    {
      "channel": 4,
      "note": 112,
      "start": 63.3355,
      "duration": 0.5216,
      "velocity": 100,
      "chip": "ym2612"
    },
    {
      "channel": 0,
      "note": 47,
      "start": 63.5055,
      "duration": 0.1717,
      "velocity": 99,
      "chip": "ym2612"
    },
    {
      "channel": 2,
      "note": 88,
      "start": 63.506,
      "duration": 0.35,
      "velocity": 96,
      "chip": "ym2612"
    },
    {
      "channel": 3,
      "note": 83,
      "start": 63.5065,
      "duration": 0.35,
      "velocity": 96,
      "chip": "ym2612"
    },
    {
      "channel": 0,
      "note": 49,
      "start": 63.6775,
      "duration": 0.1762,
      "velocity": 99,
      "chip": "ym2612"
    },
    {
      "channel": 0,
      "note": 50,
      "start": 63.8538,
      "duration": 0.3588,
      "velocity": 99,
      "chip": "ym2612"
    },
    {
      "channel": 1,
      "note": 66,
      "start": 63.8558,
      "duration": 0.1761,
      "velocity": 95,
      "chip": "ym2612"
    },
    {
      "channel": 2,
      "note": 86,
      "start": 63.8563,
      "duration": 0.1761,
      "velocity": 96,
      "chip": "ym2612"
    },
    {
      "channel": 3,
      "note": 81,
      "start": 63.8568,
      "duration": 0.1761,
      "velocity": 96,
      "chip": "ym2612"
    },
    {
      "channel": 4,
      "note": 112,
      "start": 63.8573,
      "duration": 0.5331,
      "velocity": 100,
      "chip": "ym2612"
    },
    {
      "channel": 1,
      "note": 62,
      "start": 64.0321,
      "duration": 0.1824,
      "velocity": 95,
      "chip": "ym2612"
    },
    {
      "channel": 2,
      "note": 81,
      "start": 64.0326,
      "duration": 0.1824,
      "velocity": 96,
      "chip": "ym2612"
    },
    {
      "channel": 3,
      "note": 78,
      "start": 64.0331,
      "duration": 0.1824,
      "velocity": 96,
      "chip": "ym2612"
    },
    {
      "channel": 0,
      "note": 62,
      "start": 64.2127,
      "duration": 0.1742,
      "velocity": 99,
      "chip": "ym2612"
    },
    {
      "channel": 1,
      "note": 61,
      "start": 64.2146,
      "duration": 0.1742,
      "velocity": 95,
      "chip": "ym2612"
    },
    {
      "channel": 2,
      "note": 78,
      "start": 64.2151,
      "duration": 0.1742,
      "velocity": 96,
      "chip": "ym2612"
    },
    {
      "channel": 3,
      "note": 74,
      "start": 64.2157,
      "duration": 0.1742,
      "velocity": 96,
      "chip": "ym2612"
    },
    {
      "channel": 0,
      "note": 50,
      "start": 64.3871,
      "duration": 0.3752,
      "velocity": 99,
      "chip": "ym2612"
    },
    {
      "channel": 1,
      "note": 59,
      "start": 64.389,
      "duration": 0.8982,
      "velocity": 95,
      "chip": "ym2612"
    },
    {
      "channel": 2,
      "note": 74,
      "start": 64.3895,
      "duration": 0.8983,
      "velocity": 96,
      "chip": "ym2612"
    },
    {
      "channel": 3,
      "note": 69,
      "start": 64.39,
      "duration": 0.8983,
      "velocity": 96,
      "chip": "ym2612"
    },
    {
      "channel": 4,
      "note": 112,
      "start": 64.3905,
      "duration": 0.0869,
      "velocity": 100,
      "chip": "ym2612"
    },
    {
      "channel": 4,
      "note": 112,
      "start": 64.4776,
      "duration": 0.0898,
      "velocity": 100,
      "chip": "ym2612"
    },
    {
      "channel": 4,
      "note": 112,
      "start": 64.5676,
      "duration": 0.1968,
      "velocity": 100,
      "chip": "ym2612"
    },
    {
      "channel": 0,
      "note": 62,
      "start": 64.7624,
      "duration": 0.1742,
      "velocity": 99,
      "chip": "ym2612"
    },
    {
      "channel": 4,
      "note": 112,
      "start": 64.7646,
      "duration": 0.5243,
      "velocity": 100,
      "chip": "ym2612"
    },
    {
      "channel": 0,
      "note": 47,
      "start": 64.9368,
      "duration": 0.1762,
      "velocity": 99,
      "chip": "ym2612"
    },
    {
      "channel": 0,
      "note": 49,
      "start": 65.1131,
      "duration": 0.1722,
      "velocity": 99,
      "chip": "ym2612"
    },
    {
      "channel": 0,
      "note": 52,
      "start": 65.2854,
      "duration": 0.3558,
      "velocity": 99,
      "chip": "ym2612"
    },
    {
      "channel": 1,
      "note": 59,
      "start": 65.2874,
      "duration": 0.1761,
      "velocity": 95,
      "chip": "ym2612"
    },
    {
      "channel": 2,
      "note": 80,
      "start": 65.288,
      "duration": 0.7132,
      "velocity": 96,
      "chip": "ym2612"
    },
    {
      "channel": 3,
      "note": 83,
      "start": 65.2885,
      "duration": 0.7132,
      "velocity": 96,
      "chip": "ym2612"
    },
    {
      "channel": 4,
      "note": 112,
      "start": 65.289,
      "duration": 0.5335,
      "velocity": 100,
      "chip": "ym2612"
    },
    {
      "channel": 1,
      "note": 56,
      "start": 65.4637,
      "duration": 0.178,
      "velocity": 95,
      "chip": "ym2612"
    },
    {
      "channel": 0,
      "note": 64,
      "start": 65.6413,
      "duration": 0.1801,
      "velocity": 99,
      "chip": "ym2612"
    },
    {
      "channel": 1,
      "note": 59,
      "start": 65.6418,
      "duration": 0.1801,
      "velocity": 95,
      "chip": "ym2612"
    },
    {
      "channel": 0,
      "note": 52,
      "start": 65.8216,
      "duration": 0.3715,
      "velocity": 99,
      "chip": "ym2612"
    },
    {
      "channel": 1,
      "note": 64,
      "start": 65.8221,
      "duration": 0.3729,
      "velocity": 95,
      "chip": "ym2612"
    },
    {
      "channel": 4,
      "note": 112,
      "start": 65.8228,
      "duration": 0.087,
      "velocity": 100,
      "chip": "ym2612"
    },
    {
      "channel": 4,
      "note": 112,
      "start": 65.9099,
      "duration": 0.0923,
      "velocity": 100,
      "chip": "ym2612"
    },
    {
      "channel": 2,
      "note": 86,
      "start": 66.0014,
      "duration": 0.7197,
      "velocity": 96,
      "chip": "ym2612"
    },
    {
      "channel": 3,
      "note": 80,
      "start": 66.0019,
      "duration": 0.369,
      "velocity": 96,
      "chip": "ym2612"
    },
    {
      "channel": 4,
      "note": 112,
      "start": 66.0024,
      "duration": 0.1933,
      "velocity": 100,
      "chip": "ym2612"
    },
    {
      "channel": 0,
      "note": 64,
      "start": 66.1933,
      "duration": 0.1765,
      "velocity": 99,
      "chip": "ym2612"
    },
    {
      "channel": 1,
      "note": 66,
      "start": 66.1953,
      "duration": 0.1751,
      "velocity": 95,
      "chip": "ym2612"
    },
    {
      "channel": 4,
      "note": 112,
      "start": 66.1959,
      "duration": 0.5263,
      "velocity": 100,
      "chip": "ym2612"
    },
    {
      "channel": 0,
      "note": 47,
      "start": 66.37,
      "duration": 0.1738,
      "velocity": 99,
      "chip": "ym2612"
    },
    {
      "channel": 1,
      "note": 68,
      "start": 66.3705,
      "duration": 0.1738,
      "velocity": 95,
      "chip": "ym2612"
    },
    {
      "channel": 3,
      "note": 76,
      "start": 66.371,
      "duration": 0.3506,
      "velocity": 96,
      "chip": "ym2612"
    },
    {
      "channel": 0,
      "note": 49,
      "start": 66.544,
      "duration": 0.176,
      "velocity": 99,
      "chip": "ym2612"
    },
    {
      "channel": 1,
      "note": 59,
      "start": 66.5445,
      "duration": 0.1761,
      "velocity": 95,
      "chip": "ym2612"
    },
    {
      "channel": 0,
      "note": 50,
      "start": 66.7203,
      "duration": 0.3629,
      "velocity": 99,
      "chip": "ym2612"
    },
    {
      "channel": 1,
      "note": 62,
      "start": 66.7208,
      "duration": 0.3643,
      "velocity": 95,
      "chip": "ym2612"
    },
    {
      "channel": 2,
      "note": 85,
      "start": 66.7213,
      "duration": 0.3643,
      "velocity": 96,
      "chip": "ym2612"
    },
    {
      "channel": 3,
      "note": 81,
      "start": 66.7218,
      "duration": 0.3643,
      "velocity": 96,
      "chip": "ym2612"
    },
    {
      "channel": 4,
      "note": 112,
      "start": 66.7223,
      "duration": 0.5384,
      "velocity": 100,
      "chip": "ym2612"
    },
    {
      "channel": 0,
      "note": 62,
      "start": 67.0833,
      "duration": 0.1763,
      "velocity": 99,
      "chip": "ym2612"
    },
    {
      "channel": 1,
      "note": 64,
      "start": 67.0853,
      "duration": 0.0883,
      "velocity": 95,
      "chip": "ym2612"
    },
    {
      "channel": 2,
      "note": 81,
      "start": 67.0858,
      "duration": 0.3535,
      "velocity": 96,
      "chip": "ym2612"
    },
    {
      "channel": 3,
      "note": 78,
      "start": 67.0863,
      "duration": 0.3535,
      "velocity": 96,
      "chip": "ym2612"
    },
    {
      "channel": 1,
      "note": 62,
      "start": 67.1737,
      "duration": 0.0864,
      "velocity": 95,
      "chip": "ym2612"
    },
    {
      "channel": 0,
      "note": 50,
      "start": 67.2598,
      "duration": 0.3727,
      "velocity": 99,
      "chip": "ym2612"
    },
    {
      "channel": 1,
      "note": 61,
      "start": 67.2602,
      "duration": 0.3742,
      "velocity": 95,
      "chip": "ym2612"
    },
    {
      "channel": 4,
      "note": 112,
      "start": 67.2609,
      "duration": 0.087,
      "velocity": 100,
      "chip": "ym2612"
    },
    {
      "channel": 4,
      "note": 112,
      "start": 67.348,
      "duration": 0.0923,
      "velocity": 100,
      "chip": "ym2612"
    },
    {
      "channel": 2,
      "note": 80,
      "start": 67.4395,
      "duration": 0.1954,
      "velocity": 96,
      "chip": "ym2612"
    },
    {
      "channel": 3,
      "note": 76,
      "start": 67.44,
      "duration": 0.1955,
      "velocity": 96,
      "chip": "ym2612"
    },
    {
      "channel": 4,
      "note": 112,
      "start": 67.4405,
      "duration": 0.1955,
      "velocity": 100,
      "chip": "ym2612"
    },
    {
      "channel": 0,
      "note": 62,
      "start": 67.6327,
      "duration": 0.1727,
      "velocity": 99,
      "chip": "ym2612"
    },
    {
      "channel": 1,
      "note": 62,
      "start": 67.6346,
      "duration": 0.1714,
      "velocity": 95,
      "chip": "ym2612"
    },
    {
      "channel": 2,
      "note": 81,
      "start": 67.6351,
      "duration": 0.1714,
      "velocity": 96,
      "chip": "ym2612"
    },
    {
      "channel": 3,
      "note": 78,
      "start": 67.6356,
      "duration": 0.1714,
      "velocity": 96,
      "chip": "ym2612"
    },
    {
      "channel": 4,
      "note": 112,
      "start": 67.6361,
      "duration": 0.5276,
      "velocity": 100,
      "chip": "ym2612"
    },
    {
      "channel": 0,
      "note": 47,
      "start": 67.8056,
      "duration": 0.1802,
      "velocity": 99,
      "chip": "ym2612"
    },
    {
      "channel": 1,
      "note": 61,
      "start": 67.8061,
      "duration": 0.1802,
      "velocity": 95,
      "chip": "ym2612"
    },
    {
      "channel": 2,
      "note": 78,
      "start": 67.8066,
      "duration": 0.1802,
      "velocity": 96,
      "chip": "ym2612"
    },
    {
      "channel": 3,
      "note": 74,
      "start": 67.8072,
      "duration": 0.1802,
      "velocity": 96,
      "chip": "ym2612"
    },
    {
      "channel": 0,
      "note": 49,
      "start": 67.986,
      "duration": 0.1742,
      "velocity": 99,
      "chip": "ym2612"
    },
    {
      "channel": 1,
      "note": 57,
      "start": 67.9865,
      "duration": 0.1757,
      "velocity": 95,
      "chip": "ym2612"
    },
    {
      "channel": 2,
      "note": 74,
      "start": 67.987,
      "duration": 0.1757,
      "velocity": 96,
      "chip": "ym2612"
    },
    {
      "channel": 3,
      "note": 69,
      "start": 67.9875,
      "duration": 0.1757,
      "velocity": 96,
      "chip": "ym2612"
    },
    {
      "channel": 0,
      "note": 52,
      "start": 68.1605,
      "duration": 0.3532,
      "velocity": 99,
      "chip": "ym2612"
    },
    {
      "channel": 1,
      "note": 59,
      "start": 68.1624,
      "duration": 0.1717,
      "velocity": 95,
      "chip": "ym2612"
    },
    {
      "channel": 2,
      "note": 76,
      "start": 68.1629,
      "duration": 0.3517,
      "velocity": 96,
      "chip": "ym2612"
    },
    {
      "channel": 3,
      "note": 71,
      "start": 68.1634,
      "duration": 0.3518,
      "velocity": 96,
      "chip": "ym2612"
    },
    {
      "channel": 4,
      "note": 112,
      "start": 68.1639,
      "duration": 0.5228,
      "velocity": 100,
      "chip": "ym2612"
    },
    {
      "channel": 1,
      "note": 64,
      "start": 68.3343,
      "duration": 0.1798,
      "velocity": 95,
      "chip": "ym2612"
    },
    {
      "channel": 0,
      "note": 64,
      "start": 68.5138,
      "duration": 0.1719,
      "velocity": 99,
      "chip": "ym2612"
    },
    {
      "channel": 1,
      "note": 66,
      "start": 68.5143,
      "duration": 0.1719,
      "velocity": 95,
      "chip": "ym2612"
    },
    {
      "channel": 2,
      "note": 80,
      "start": 68.5148,
      "duration": 0.3487,
      "velocity": 96,
      "chip": "ym2612"
    },
    {
      "channel": 3,
      "note": 76,
      "start": 68.5153,
      "duration": 0.3488,
      "velocity": 96,
      "chip": "ym2612"
    },
    {
      "channel": 0,
      "note": 52,
      "start": 68.6858,
      "duration": 0.3712,
      "velocity": 99,
      "chip": "ym2612"
    },
    {
      "channel": 1,
      "note": 68,
      "start": 68.6863,
      "duration": 0.3727,
      "velocity": 95,
      "chip": "ym2612"
    },
    {
      "channel": 4,
      "note": 112,
      "start": 68.687,
      "duration": 0.0851,
      "velocity": 100,
      "chip": "ym2612"
    },
    {
      "channel": 4,
      "note": 112,
      "start": 68.7722,
      "duration": 0.0923,
      "velocity": 100,
      "chip": "ym2612"
    },
    {
      "channel": 2,
      "note": 83,
      "start": 68.8637,
      "duration": 0.371,
      "velocity": 96,
      "chip": "ym2612"
    },
    {
      "channel": 3,
      "note": 80,
      "start": 68.8642,
      "duration": 0.371,
      "velocity": 96,
      "chip": "ym2612"
    },
    {
      "channel": 4,
      "note": 112,
      "start": 68.8648,
      "duration": 0.1949,
      "velocity": 100,
      "chip": "ym2612"
    },
    {
      "channel": 0,
      "note": 64,
      "start": 69.0572,
      "duration": 0.1765,
      "velocity": 99,
      "chip": "ym2612"
    },
    {
      "channel": 1,
      "note": 69,
      "start": 69.0592,
      "duration": 0.175,
      "velocity": 95,
      "chip": "ym2612"
    },
    {
      "channel": 4,
      "note": 112,
      "start": 69.0598,
      "duration": 0.528,
      "velocity": 100,
      "chip": "ym2612"
    },
    {
      "channel": 0,
      "note": 47,
      "start": 69.2339,
      "duration": 0.1756,
      "velocity": 99,
      "chip": "ym2612"
    },
    {
      "channel": 1,
      "note": 71,
      "start": 69.2344,
      "duration": 0.0896,
      "velocity": 95,
      "chip": "ym2612"
    },
    {
      "channel": 2,
      "note": 88,
      "start": 69.2349,
      "duration": 0.3518,
      "velocity": 96,
      "chip": "ym2612"
    },
    {
      "channel": 3,
      "note": 83,
      "start": 69.2354,
      "duration": 0.3518,
      "velocity": 96,
      "chip": "ym2612"
    },
    {
      "channel": 1,
      "note": 69,
      "start": 69.3242,
      "duration": 0.0858,
      "velocity": 95,
      "chip": "ym2612"
    },
    {
      "channel": 0,
      "note": 49,
      "start": 69.4097,
      "duration": 0.1759,
      "velocity": 99,
      "chip": "ym2612"
    },
    {
      "channel": 1,
      "note": 68,
      "start": 69.4102,
      "duration": 0.176,
      "velocity": 95,
      "chip": "ym2612"
    },
    {
      "channel": 0,
      "note": 50,
      "start": 69.5859,
      "duration": 0.3541,
      "velocity": 99,
      "chip": "ym2612"
    },
    {
      "channel": 1,
      "note": 66,
      "start": 69.5863,
      "duration": 0.7057,
      "velocity": 95,
      "chip": "ym2612"
    },
    {
      "channel": 2,
      "note": 86,
      "start": 69.5868,
      "duration": 0.1753,
      "velocity": 96,
      "chip": "ym2612"
    },
    {
      "channel": 3,
      "note": 81,
      "start": 69.5874,
      "duration": 0.1753,
      "velocity": 96,
      "chip": "ym2612"
    },
    {
      "channel": 4,
      "note": 112,
      "start": 69.5879,
      "duration": 0.5304,
      "velocity": 100,
      "chip": "ym2612"
    },
    {
      "channel": 2,
      "note": 81,
      "start": 69.7623,
      "duration": 0.1797,
      "velocity": 96,
      "chip": "ym2612"
    },
    {
      "channel": 3,
      "note": 78,
      "start": 69.7628,
      "duration": 0.1797,
      "velocity": 96,
      "chip": "ym2612"
    },
    {
      "channel": 0,
      "note": 62,
      "start": 69.9401,
      "duration": 0.1765,
      "velocity": 99,
      "chip": "ym2612"
    },
    {
      "channel": 2,
      "note": 78,
      "start": 69.9422,
      "duration": 0.175,
      "velocity": 96,
      "chip": "ym2612"
    },
    {
      "channel": 3,
      "note": 74,
      "start": 69.9427,
      "duration": 0.175,
      "velocity": 96,
      "chip": "ym2612"
    },
    {
      "channel": 0,
      "note": 50,
      "start": 70.1168,
      "duration": 0.3651,
      "velocity": 99,
      "chip": "ym2612"
    },
    {
      "channel": 2,
      "note": 74,
      "start": 70.1173,
      "duration": 0.9035,
      "velocity": 96,
      "chip": "ym2612"
    },
    {
      "channel": 3,
      "note": 69,
      "start": 70.1178,
      "duration": 0.9036,
      "velocity": 96,
      "chip": "ym2612"
    },
    {
      "channel": 4,
      "note": 112,
      "start": 70.1184,
      "duration": 0.0863,
      "velocity": 100,
      "chip": "ym2612"
    },
    {
      "channel": 4,
      "note": 112,
      "start": 70.205,
      "duration": 0.0877,
      "velocity": 100,
      "chip": "ym2612"
    },
    {
      "channel": 1,
      "note": 62,
      "start": 70.2922,
      "duration": 0.7281,
      "velocity": 95,
      "chip": "ym2612"
    },
    {
      "channel": 4,
      "note": 112,
      "start": 70.2929,
      "duration": 0.1897,
      "velocity": 100,
      "chip": "ym2612"
    },
    {
      "channel": 0,
      "note": 62,
      "start": 70.4821,
      "duration": 0.1803,
      "velocity": 99,
      "chip": "ym2612"
    },
    {
      "channel": 4,
      "note": 112,
      "start": 70.4828,
      "duration": 0.5392,
      "velocity": 100,
      "chip": "ym2612"
    },
    {
      "channel": 0,
      "note": 47,
      "start": 70.6626,
      "duration": 0.1762,
      "velocity": 99,
      "chip": "ym2612"
    },
    {
      "channel": 0,
      "note": 49,
      "start": 70.8389,
      "duration": 0.1795,
      "velocity": 113,
      "chip": "ym2612"
    },
    {
      "channel": 0,
      "note": 47,
      "start": 71.0186,
      "duration": 0.1767,
      "velocity": 113,
      "chip": "ym2612"
    },
    {
      "channel": 1,
      "note": 59,
      "start": 71.0205,
      "duration": 2.1456,
      "velocity": 95,
      "chip": "ym2612"
    },
    {
      "channel": 2,
      "note": 74,
      "start": 71.0211,
      "duration": 1.432,
      "velocity": 105,
      "chip": "ym2612"
    },
    {
      "channel": 3,
      "note": 78,
      "start": 71.0216,
      "duration": 1.4335,
      "velocity": 105,
      "chip": "ym2612"
    },
    {
      "channel": 4,
      "note": 112,
      "start": 71.0221,
      "duration": 0.526,
      "velocity": 100,
      "chip": "ym2612"
    },
    {
      "channel": 0,
      "note": 59,
      "start": 71.1954,
      "duration": 0.1803,
      "velocity": 113,
      "chip": "ym2612"
    },
    {
      "channel": 0,
      "note": 47,
      "start": 71.3759,
      "duration": 2.3323,
      "velocity": 113,
      "chip": "ym2612"
    },
    {
      "channel": 4,
      "note": 112,
      "start": 71.5483,
      "duration": 0.0879,
      "velocity": 100,
      "chip": "ym2612"
    },
    {
      "channel": 4,
      "note": 112,
      "start": 71.6363,
      "duration": 0.0899,
      "velocity": 100,
      "chip": "ym2612"
    },
    {
      "channel": 4,
      "note": 112,
      "start": 71.7264,
      "duration": 0.1954,
      "velocity": 100,
      "chip": "ym2612"
    },
    {
      "channel": 4,
      "note": 112,
      "start": 71.9218,
      "duration": 0.5337,
      "velocity": 100,
      "chip": "ym2612"
    },
    {
      "channel": 2,
      "note": 78,
      "start": 72.4533,
      "duration": 1.43,
      "velocity": 105,
      "chip": "ym2612"
    },
    {
      "channel": 3,
      "note": 74,
      "start": 72.4552,
      "duration": 1.4286,
      "velocity": 105,
      "chip": "ym2612"
    },
    {
      "channel": 4,
      "note": 112,
      "start": 72.4558,
      "duration": 0.5307,
      "velocity": 100,
      "chip": "ym2612"
    },
    {
      "channel": 4,
      "note": 112,
      "start": 72.9867,
      "duration": 0.0899,
      "velocity": 100,
      "chip": "ym2612"
    },
    {
      "channel": 4,
      "note": 112,
      "start": 73.0767,
      "duration": 0.0899,
      "velocity": 100,
      "chip": "ym2612"
    },
    {
      "channel": 1,
      "note": 62,
      "start": 73.1662,
      "duration": 0.192,
      "velocity": 95,
      "chip": "ym2612"
    },
    {
      "channel": 4,
      "note": 112,
      "start": 73.1668,
      "duration": 0.192,
      "velocity": 100,
      "chip": "ym2612"
    },
    {
      "channel": 1,
      "note": 61,
      "start": 73.3583,
      "duration": 0.174,
      "velocity": 95,
      "chip": "ym2612"
    },
    {
      "channel": 4,
      "note": 112,
      "start": 73.359,
      "duration": 0.5253,
      "velocity": 100,
      "chip": "ym2612"
    },
    {
      "channel": 1,
      "note": 57,
      "start": 73.5325,
      "duration": 0.1762,
      "velocity": 95,
      "chip": "ym2612"
    },
    {
      "channel": 0,
      "note": 45,
      "start": 73.7084,
      "duration": 0.1742,
      "velocity": 113,
      "chip": "ym2612"
    },
    {
      "channel": 1,
      "note": 52,
      "start": 73.7089,
      "duration": 3.0328,
      "velocity": 99,
      "chip": "ym2612"
    },
    {
      "channel": 0,
      "note": 47,
      "start": 73.8829,
      "duration": 0.176,
      "velocity": 113,
      "chip": "ym2612"
    },
    {
      "channel": 2,
      "note": 71,
      "start": 73.8835,
      "duration": 3.0332,
      "velocity": 99,
      "chip": "ym2612"
    },
    {
      "channel": 3,
      "note": 66,
      "start": 73.884,
      "duration": 2.8598,
      "velocity": 103,
      "chip": "ym2612"
    },
    {
      "channel": 4,
      "note": 112,
      "start": 73.8845,
      "duration": 0.5312,
      "velocity": 100,
      "chip": "ym2612"
    },
    {
      "channel": 0,
      "note": 59,
      "start": 74.0591,
      "duration": 0.1806,
      "velocity": 113,
      "chip": "ym2612"
    },
    {
      "channel": 0,
      "note": 47,
      "start": 74.2399,
      "duration": 2.3259,
      "velocity": 113,
      "chip": "ym2612"
    },
    {
      "channel": 4,
      "note": 112,
      "start": 74.4159,
      "duration": 0.0899,
      "velocity": 100,
      "chip": "ym2612"
    },
    {
      "channel": 4,
      "note": 112,
      "start": 74.506,
      "duration": 0.0898,
      "velocity": 100,
      "chip": "ym2612"
    },
    {
      "channel": 4,
      "note": 112,
      "start": 74.596,
      "duration": 0.1957,
      "velocity": 100,
      "chip": "ym2612"
    },
    {
      "channel": 4,
      "note": 112,
      "start": 74.7918,
      "duration": 0.5237,
      "velocity": 100,
      "chip": "ym2612"
    },
    {
      "channel": 4,
      "note": 112,
      "start": 75.3156,
      "duration": 0.5321,
      "velocity": 100,
      "chip": "ym2612"
    },
    {
      "channel": 4,
      "note": 112,
      "start": 75.8479,
      "duration": 0.0879,
      "velocity": 100,
      "chip": "ym2612"
    },
    {
      "channel": 4,
      "note": 112,
      "start": 75.9359,
      "duration": 0.0878,
      "velocity": 100,
      "chip": "ym2612"
    },
    {
      "channel": 4,
      "note": 112,
      "start": 76.0239,
      "duration": 0.1958,
      "velocity": 100,
      "chip": "ym2612"
    },
    {
      "channel": 4,
      "note": 112,
      "start": 76.2198,
      "duration": 0.5245,
      "velocity": 100,
      "chip": "ym2612"
    },
    {
      "channel": 0,
      "note": 45,
      "start": 76.5659,
      "duration": 0.1739,
      "velocity": 113,
      "chip": "ym2612"
    },
    {
      "channel": 0,
      "note": 47,
      "start": 76.74,
      "duration": 0.1747,
      "velocity": 113,
      "chip": "ym2612"
    },
    {
      "channel": 1,
      "note": 86,
      "start": 76.742,
      "duration": 0.3541,
      "velocity": 99,
      "chip": "ym2612"
    },
    {
      "channel": 3,
      "note": 78,
      "start": 76.7439,
      "duration": 0.8975,
      "velocity": 103,
      "chip": "ym2612"
    },
    {
      "channel": 4,
      "note": 112,
      "start": 76.7445,
      "duration": 0.5275,
      "velocity": 100,
      "chip": "ym2612"
    },
    {
      "channel": 0,
      "note": 59,
      "start": 76.9149,
      "duration": 0.1807,
      "velocity": 113,
      "chip": "ym2612"
    },
    {
      "channel": 2,
      "note": 85,
      "start": 76.9169,
      "duration": 0.3545,
      "velocity": 99,
      "chip": "ym2612"
    },
    {
      "channel": 0,
      "note": 47,
      "start": 77.0958,
      "duration": 2.3149,
      "velocity": 113,
      "chip": "ym2612"
    },
    {
      "channel": 1,
      "note": 81,
      "start": 77.0963,
      "duration": 0.3512,
      "velocity": 99,
      "chip": "ym2612"
    },
    {
      "channel": 2,
      "note": 76,
      "start": 77.2716,
      "duration": 0.3693,
      "velocity": 99,
      "chip": "ym2612"
    },
    {
      "channel": 4,
      "note": 112,
      "start": 77.2722,
      "duration": 0.0893,
      "velocity": 100,
      "chip": "ym2612"
    },
    {
      "channel": 4,
      "note": 112,
      "start": 77.3617,
      "duration": 0.0865,
      "velocity": 100,
      "chip": "ym2612"
    },
    {
      "channel": 1,
      "note": 86,
      "start": 77.4477,
      "duration": 0.3673,
      "velocity": 99,
      "chip": "ym2612"
    },
    {
      "channel": 4,
      "note": 112,
      "start": 77.4483,
      "duration": 0.1937,
      "velocity": 100,
      "chip": "ym2612"
    },
    {
      "channel": 2,
      "note": 85,
      "start": 77.6411,
      "duration": 0.35,
      "velocity": 99,
      "chip": "ym2612"
    },
    {
      "channel": 3,
      "note": 81,
      "start": 77.6417,
      "duration": 0.1739,
      "velocity": 103,
      "chip": "ym2612"
    },
    {
      "channel": 4,
      "note": 112,
      "start": 77.6422,
      "duration": 0.5213,
      "velocity": 100,
      "chip": "ym2612"
    },
    {
      "channel": 1,
      "note": 81,
      "start": 77.8151,
      "duration": 0.3478,
      "velocity": 99,
      "chip": "ym2612"
    },
    {
      "channel": 3,
      "note": 78,
      "start": 77.8157,
      "duration": 0.1759,
      "velocity": 103,
      "chip": "ym2612"
    },
    {
      "channel": 2,
      "note": 76,
      "start": 77.9913,
      "duration": 0.3473,
      "velocity": 99,
      "chip": "ym2612"
    },
    {
      "channel": 3,
      "note": 83,
      "start": 77.9918,
      "duration": 2.3085,
      "velocity": 103,
      "chip": "ym2612"
    },
    {
      "channel": 1,
      "note": 86,
      "start": 78.163,
      "duration": 0.358,
      "velocity": 99,
      "chip": "ym2612"
    },
    {
      "channel": 4,
      "note": 112,
      "start": 78.1637,
      "duration": 0.534,
      "velocity": 100,
      "chip": "ym2612"
    },
    {
      "channel": 2,
      "note": 85,
      "start": 78.3388,
      "duration": 0.3582,
      "velocity": 99,
      "chip": "ym2612"
    },
    {
      "channel": 1,
      "note": 81,
      "start": 78.5212,
      "duration": 0.3479,
      "velocity": 99,
      "chip": "ym2612"
    },
    {
      "channel": 2,
      "note": 76,
      "start": 78.6973,
      "duration": 0.3652,
      "velocity": 99,
      "chip": "ym2612"
    },
    {
      "channel": 4,
      "note": 112,
      "start": 78.6978,
      "duration": 0.0854,
      "velocity": 100,
      "chip": "ym2612"
    },
    {
      "channel": 4,
      "note": 112,
      "start": 78.7834,
      "duration": 0.0863,
      "velocity": 100,
      "chip": "ym2612"
    },
    {
      "channel": 1,
      "note": 86,
      "start": 78.8692,
      "duration": 0.3656,
      "velocity": 99,
      "chip": "ym2612"
    },
    {
      "channel": 4,
      "note": 112,
      "start": 78.8699,
      "duration": 0.1932,
      "velocity": 100,
      "chip": "ym2612"
    },
    {
      "channel": 2,
      "note": 85,
      "start": 79.0627,
      "duration": 0.3486,
      "velocity": 99,
      "chip": "ym2612"
    },
    {
      "channel": 4,
      "note": 112,
      "start": 79.0633,
      "duration": 0.529,
      "velocity": 100,
      "chip": "ym2612"
    },
    {
      "channel": 1,
      "note": 81,
      "start": 79.235,
      "duration": 0.3567,
      "velocity": 99,
      "chip": "ym2612"
    },
    {
      "channel": 0,
      "note": 45,
      "start": 79.4109,
      "duration": 0.1802,
      "velocity": 113,
      "chip": "ym2612"
    },
    {
      "channel": 2,
      "note": 76,
      "start": 79.4115,
      "duration": 0.3543,
      "velocity": 99,
      "chip": "ym2612"
    },
    {
      "channel": 0,
      "note": 47,
      "start": 79.5914,
      "duration": 0.1739,
      "velocity": 113,
      "chip": "ym2612"
    },
    {
      "channel": 1,
      "note": 83,
      "start": 79.5919,
      "duration": 0.3561,
      "velocity": 99,
      "chip": "ym2612"
    },
    {
      "channel": 4,
      "note": 112,
      "start": 79.5924,
      "duration": 0.536,
      "velocity": 100,
      "chip": "ym2612"
    },
    {
      "channel": 0,
      "note": 59,
      "start": 79.7654,
      "duration": 0.1821,
      "velocity": 113,
      "chip": "ym2612"
    },
    {
      "channel": 2,
      "note": 81,
      "start": 79.766,
      "duration": 0.3619,
      "velocity": 99,
      "chip": "ym2612"
    },
    {
      "channel": 0,
      "note": 47,
      "start": 79.9477,
      "duration": 2.3205,
      "velocity": 113,
      "chip": "ym2612"
    },
    {
      "channel": 1,
      "note": 76,
      "start": 79.9482,
      "duration": 0.3517,
      "velocity": 99,
      "chip": "ym2612"
    },
    {
      "channel": 2,
      "note": 74,
      "start": 80.128,
      "duration": 0.3652,
      "velocity": 99,
      "chip": "ym2612"
    },
    {
      "channel": 4,
      "note": 112,
      "start": 80.1286,
      "duration": 0.0854,
      "velocity": 100,
      "chip": "ym2612"
    },
    {
      "channel": 4,
      "note": 112,
      "start": 80.2141,
      "duration": 0.0867,
      "velocity": 100,
      "chip": "ym2612"
    },
    {
      "channel": 1,
      "note": 83,
      "start": 80.3,
      "duration": 0.3675,
      "velocity": 99,
      "chip": "ym2612"
    },
    {
      "channel": 3,
      "note": 81,
      "start": 80.3005,
      "duration": 0.1932,
      "velocity": 103,
      "chip": "ym2612"
    },
    {
      "channel": 4,
      "note": 112,
      "start": 80.301,
      "duration": 0.1932,
      "velocity": 100,
      "chip": "ym2612"
    },
    {
      "channel": 2,
      "note": 81,
      "start": 80.4934,
      "duration": 0.35,
      "velocity": 99,
      "chip": "ym2612"
    },
    {
      "channel": 3,
      "note": 83,
      "start": 80.4939,
      "duration": 0.174,
      "velocity": 103,
      "chip": "ym2612"
    },
    {
      "channel": 4,
      "note": 112,
      "start": 80.4944,
      "duration": 0.5217,
      "velocity": 100,
      "chip": "ym2612"
    },
    {
      "channel": 1,
      "note": 76,
      "start": 80.6676,
      "duration": 0.348,
      "velocity": 99,
      "chip": "ym2612"
    },
    {
      "channel": 3,
      "note": 88,
      "start": 80.6681,
      "duration": 0.1759,
      "velocity": 103,
      "chip": "ym2612"
    },
    {
      "channel": 2,
      "note": 74,
      "start": 80.8437,
      "duration": 0.346,
      "velocity": 99,
      "chip": "ym2612"
    },
    {
      "channel": 3,
      "note": 85,
      "start": 80.8442,
      "duration": 3.2096,
      "velocity": 103,
      "chip": "ym2612"
    },
    {
      "channel": 1,
      "note": 83,
      "start": 81.0157,
      "duration": 0.3546,
      "velocity": 99,
      "chip": "ym2612"
    },
    {
      "channel": 4,
      "note": 112,
      "start": 81.0164,
      "duration": 0.5306,
      "velocity": 100,
      "chip": "ym2612"
    },
    {
      "channel": 2,
      "note": 81,
      "start": 81.1898,
      "duration": 0.3566,
      "velocity": 99,
      "chip": "ym2612"
    },
    {
      "channel": 1,
      "note": 74,
      "start": 81.3705,
      "duration": 0.3519,
      "velocity": 99,
      "chip": "ym2612"
    },
    {
      "channel": 2,
      "note": 73,
      "start": 81.5466,
      "duration": 0.3693,
      "velocity": 99,
      "chip": "ym2612"
    },
    {
      "channel": 4,
      "note": 112,
      "start": 81.5471,
      "duration": 0.0854,
      "velocity": 100,
      "chip": "ym2612"
    },
    {
      "channel": 4,
      "note": 112,
      "start": 81.6326,
      "duration": 0.0904,
      "velocity": 100,
      "chip": "ym2612"
    },
    {
      "channel": 1,
      "note": 83,
      "start": 81.7226,
      "duration": 0.3695,
      "velocity": 99,
      "chip": "ym2612"
    },
    {
      "channel": 4,
      "note": 112,
      "start": 81.7232,
      "duration": 0.1932,
      "velocity": 100,
      "chip": "ym2612"
    },
    {
      "channel": 2,
      "note": 81,
      "start": 81.9161,
      "duration": 0.3526,
      "velocity": 99,
      "chip": "ym2612"
    },
    {
      "channel": 4,
      "note": 112,
      "start": 81.9166,
      "duration": 0.5251,
      "velocity": 100,
      "chip": "ym2612"
    },
    {
      "channel": 1,
      "note": 74,
      "start": 82.0924,
      "duration": 0.3486,
      "velocity": 99,
      "chip": "ym2612"
    },
    {
      "channel": 0,
      "note": 45,
      "start": 82.2683,
      "duration": 0.1722,
      "velocity": 113,
      "chip": "ym2612"
    },
    {
      "channel": 2,
      "note": 73,
      "start": 82.2689,
      "duration": 0.3461,
      "velocity": 99,
      "chip": "ym2612"
    },
    {
      "channel": 0,
      "note": 47,
      "start": 82.4406,
      "duration": 0.1738,
      "velocity": 113,
      "chip": "ym2612"
    },
    {
      "channel": 1,
      "note": 86,
      "start": 82.4412,
      "duration": 0.3587,
      "velocity": 99,
      "chip": "ym2612"
    },
    {
      "channel": 4,
      "note": 112,
      "start": 82.4418,
      "duration": 0.5339,
      "velocity": 100,
      "chip": "ym2612"
    },
    {
      "channel": 0,
      "note": 59,
      "start": 82.6145,
      "duration": 0.1848,
      "velocity": 113,
      "chip": "ym2612"
    },
    {
      "channel": 2,
      "note": 85,
      "start": 82.6152,
      "duration": 0.36,
      "velocity": 99,
      "chip": "ym2612"
    },
    {
      "channel": 0,
      "note": 47,
      "start": 82.7995,
      "duration": 2.3257,
      "velocity": 113,
      "chip": "ym2612"
    },
    {
      "channel": 1,
      "note": 81,
      "start": 82.8,
      "duration": 0.3512,
      "velocity": 99,
      "chip": "ym2612"
    },
    {
      "channel": 2,
      "note": 76,
      "start": 82.9754,
      "duration": 0.3693,
      "velocity": 99,
      "chip": "ym2612"
    },
    {
      "channel": 4,
      "note": 112,
      "start": 82.9759,
      "duration": 0.0893,
      "velocity": 100,
      "chip": "ym2612"
    },
    {
      "channel": 4,
      "note": 112,
      "start": 83.0654,
      "duration": 0.0865,
      "velocity": 100,
      "chip": "ym2612"
    },
    {
      "channel": 1,
      "note": 86,
      "start": 83.1514,
      "duration": 0.3695,
      "velocity": 99,
      "chip": "ym2612"
    },
    {
      "channel": 4,
      "note": 112,
      "start": 83.152,
      "duration": 0.1932,
      "velocity": 100,
      "chip": "ym2612"
    },
    {
      "channel": 2,
      "note": 85,
      "start": 83.3448,
      "duration": 0.352,
      "velocity": 99,
      "chip": "ym2612"
    },
    {
      "channel": 4,
      "note": 112,
      "start": 83.3454,
      "duration": 0.5282,
      "velocity": 100,
      "chip": "ym2612"
    },
    {
      "channel": 1,
      "note": 81,
      "start": 83.5212,
      "duration": 0.3518,
      "velocity": 99,
      "chip": "ym2612"
    },
    {
      "channel": 2,
      "note": 76,
      "start": 83.697,
      "duration": 0.3562,
      "velocity": 99,
      "chip": "ym2612"
    },
    {
      "channel": 1,
      "note": 86,
      "start": 83.8731,
      "duration": 0.3583,
      "velocity": 99,
      "chip": "ym2612"
    },
    {
      "channel": 4,
      "note": 112,
      "start": 83.8737,
      "duration": 0.5349,
      "velocity": 100,
      "chip": "ym2612"
    },
    {
      "channel": 2,
      "note": 85,
      "start": 84.0534,
      "duration": 0.3541,
      "velocity": 99,
      "chip": "ym2612"
    },
    {
      "channel": 3,
      "note": 86,
      "start": 84.054,
      "duration": 0.178,
      "velocity": 103,
      "chip": "ym2612"
    },
    {
      "channel": 1,
      "note": 81,
      "start": 84.2316,
      "duration": 0.352,
      "velocity": 99,
      "chip": "ym2612"
    },
    {
      "channel": 3,
      "note": 88,
      "start": 84.2322,
      "duration": 0.1759,
      "velocity": 103,
      "chip": "ym2612"
    },
    {
      "channel": 2,
      "note": 76,
      "start": 84.4078,
      "duration": 0.3692,
      "velocity": 99,
      "chip": "ym2612"
    },
    {
      "channel": 3,
      "note": 81,
      "start": 84.4083,
      "duration": 3.7516,
      "velocity": 100,
      "chip": "ym2612"
    },
    {
      "channel": 4,
      "note": 112,
      "start": 84.4088,
      "duration": 0.0852,
      "velocity": 100,
      "chip": "ym2612"
    },
    {
      "channel": 4,
      "note": 112,
      "start": 84.4941,
      "duration": 0.0902,
      "velocity": 100,
      "chip": "ym2612"
    },
    {
      "channel": 1,
      "note": 86,
      "start": 84.5838,
      "duration": 0.3654,
      "velocity": 99,
      "chip": "ym2612"
    },
    {
      "channel": 4,
      "note": 112,
      "start": 84.5845,
      "duration": 0.1931,
      "velocity": 100,
      "chip": "ym2612"
    },
    {
      "channel": 2,
      "note": 85,
      "start": 84.7772,
      "duration": 0.3486,
      "velocity": 99,
      "chip": "ym2612"
    },
    {
      "channel": 4,
      "note": 112,
      "start": 84.7777,
      "duration": 0.525,
      "velocity": 100,
      "chip": "ym2612"
    },
    {
      "channel": 1,
      "note": 81,
      "start": 84.9495,
      "duration": 0.3527,
      "velocity": 99,
      "chip": "ym2612"
    },
    {
      "channel": 0,
      "note": 45,
      "start": 85.1254,
      "duration": 0.1762,
      "velocity": 113,
      "chip": "ym2612"
    },
    {
      "channel": 2,
      "note": 76,
      "start": 85.1259,
      "duration": 0.3502,
      "velocity": 99,
      "chip": "ym2612"
    },
    {
      "channel": 0,
      "note": 47,
      "start": 85.3018,
      "duration": 0.1738,
      "velocity": 113,
      "chip": "ym2612"
    },
    {
      "channel": 1,
      "note": 83,
      "start": 85.3023,
      "duration": 0.3544,
      "velocity": 99,
      "chip": "ym2612"
    },
    {
      "channel": 4,
      "note": 112,
      "start": 85.3029,
      "duration": 0.5297,
      "velocity": 100,
      "chip": "ym2612"
    },
    {
      "channel": 0,
      "note": 59,
      "start": 85.4757,
      "duration": 0.1805,
      "velocity": 113,
      "chip": "ym2612"
    },
    {
      "channel": 2,
      "note": 81,
      "start": 85.4763,
      "duration": 0.3557,
      "velocity": 99,
      "chip": "ym2612"
    },
    {
      "channel": 0,
      "note": 47,
      "start": 85.6564,
      "duration": 2.3244,
      "velocity": 113,
      "chip": "ym2612"
    },
    {
      "channel": 1,
      "note": 76,
      "start": 85.6569,
      "duration": 0.3512,
      "velocity": 99,
      "chip": "ym2612"
    },
    {
      "channel": 2,
      "note": 74,
      "start": 85.8322,
      "duration": 0.3693,
      "velocity": 99,
      "chip": "ym2612"
    },
    {
      "channel": 4,
      "note": 112,
      "start": 85.8328,
      "duration": 0.0893,
      "velocity": 100,
      "chip": "ym2612"
    },
    {
      "channel": 4,
      "note": 112,
      "start": 85.9223,
      "duration": 0.0865,
      "velocity": 100,
      "chip": "ym2612"
    },
    {
      "channel": 1,
      "note": 83,
      "start": 86.0083,
      "duration": 0.3695,
      "velocity": 99,
      "chip": "ym2612"
    },
    {
      "channel": 4,
      "note": 112,
      "start": 86.0089,
      "duration": 0.1932,
      "velocity": 100,
      "chip": "ym2612"
    },
    {
      "channel": 2,
      "note": 81,
      "start": 86.2017,
      "duration": 0.352,
      "velocity": 99,
      "chip": "ym2612"
    },
    {
      "channel": 4,
      "note": 112,
      "start": 86.2023,
      "duration": 0.5282,
      "velocity": 100,
      "chip": "ym2612"
    },
    {
      "channel": 1,
      "note": 76,
      "start": 86.378,
      "duration": 0.3518,
      "velocity": 99,
      "chip": "ym2612"
    },
    {
      "channel": 2,
      "note": 74,
      "start": 86.5539,
      "duration": 0.3563,
      "velocity": 99,
      "chip": "ym2612"
    },
    {
      "channel": 1,
      "note": 83,
      "start": 86.73,
      "duration": 0.361,
      "velocity": 99,
      "chip": "ym2612"
    },
    {
      "channel": 4,
      "note": 112,
      "start": 86.7306,
      "duration": 0.5371,
      "velocity": 100,
      "chip": "ym2612"
    },
    {
      "channel": 2,
      "note": 81,
      "start": 86.9103,
      "duration": 0.3567,
      "velocity": 99,
      "chip": "ym2612"
    },
    {
      "channel": 1,
      "note": 74,
      "start": 87.0912,
      "duration": 0.3479,
      "velocity": 99,
      "chip": "ym2612"
    },
    {
      "channel": 2,
      "note": 73,
      "start": 87.2672,
      "duration": 0.3652,
      "velocity": 99,
      "chip": "ym2612"
    },
    {
      "channel": 4,
      "note": 112,
      "start": 87.2678,
      "duration": 0.0854,
      "velocity": 100,
      "chip": "ym2612"
    },
    {
      "channel": 4,
      "note": 112,
      "start": 87.3533,
      "duration": 0.0863,
      "velocity": 100,
      "chip": "ym2612"
    },
    {
      "channel": 1,
      "note": 83,
      "start": 87.4392,
      "duration": 0.3656,
      "velocity": 99,
      "chip": "ym2612"
    },
    {
      "channel": 4,
      "note": 112,
      "start": 87.4398,
      "duration": 0.1932,
      "velocity": 100,
      "chip": "ym2612"
    },
    {
      "channel": 2,
      "note": 81,
      "start": 87.6327,
      "duration": 0.3486,
      "velocity": 99,
      "chip": "ym2612"
    },
    {
      "channel": 4,
      "note": 112,
      "start": 87.6332,
      "duration": 0.8839,
      "velocity": 115,
      "chip": "ym2612"
    },
    {
      "channel": 1,
      "note": 74,
      "start": 87.805,
      "duration": 0.3529,
      "velocity": 99,
      "chip": "ym2612"
    },
    {
      "channel": 0,
      "note": 45,
      "start": 87.9809,
      "duration": 0.1764,
      "velocity": 113,
      "chip": "ym2612"
    },
    {
      "channel": 2,
      "note": 73,
      "start": 87.9815,
      "duration": 0.3529,
      "velocity": 99,
      "chip": "ym2612"
    },
    {
      "channel": 0,
      "note": 47,
      "start": 88.1575,
      "duration": 0.1763,
      "velocity": 113,
      "chip": "ym2612"
    },
    {
      "channel": 1,
      "note": 86,
      "start": 88.1581,
      "duration": 0.357,
      "velocity": 99,
      "chip": "ym2612"
    },
    {
      "channel": 3,
      "note": 112,
      "start": 88.1601,
      "duration": 0.5551,
      "velocity": 100,
      "chip": "ym2612"
    },
    {
      "channel": 0,
      "note": 59,
      "start": 88.334,
      "duration": 0.1805,
      "velocity": 113,
      "chip": "ym2612"
    },
    {
      "channel": 2,
      "note": 85,
      "start": 88.3346,
      "duration": 0.38,
      "velocity": 99,
      "chip": "ym2612"
    },
    {
      "channel": 0,
      "note": 47,
      "start": 88.5147,
      "duration": 2.4809,
      "velocity": 113,
      "chip": "ym2612"
    },
    {
      "channel": 1,
      "note": 81,
      "start": 88.5152,
      "duration": 0.3759,
      "velocity": 99,
      "chip": "ym2612"
    },
    {
      "channel": 4,
      "note": 31,
      "start": 88.5173,
      "duration": 0.3748,
      "velocity": 115,
      "chip": "ym2612"
    },
    {
      "channel": 2,
      "note": 76,
      "start": 88.7148,
      "duration": 0.3527,
      "velocity": 99,
      "chip": "ym2612"
    },
    {
      "channel": 3,
      "note": 112,
      "start": 88.7153,
      "duration": 0.0895,
      "velocity": 100,
      "chip": "ym2612"
    },
    {
      "channel": 3,
      "note": 112,
      "start": 88.805,
      "duration": 0.0866,
      "velocity": 100,
      "chip": "ym2612"
    },
    {
      "channel": 1,
      "note": 86,
      "start": 88.8912,
      "duration": 0.3571,
      "velocity": 99,
      "chip": "ym2612"
    },
    {
      "channel": 3,
      "note": 112,
      "start": 88.8918,
      "duration": 0.1762,
      "velocity": 100,
      "chip": "ym2612"
    },
    {
      "channel": 4,
      "note": 31,
      "start": 88.8923,
      "duration": 0.3581,
      "velocity": 110,
      "chip": "ym2612"
    },
    {
      "channel": 2,
      "note": 85,
      "start": 89.0677,
      "duration": 0.3565,
      "velocity": 99,
      "chip": "ym2612"
    },
    {
      "channel": 3,
      "note": 112,
      "start": 89.0682,
      "duration": 0.5325,
      "velocity": 100,
      "chip": "ym2612"
    },
    {
      "channel": 1,
      "note": 81,
      "start": 89.2485,
      "duration": 0.3516,
      "velocity": 99,
      "chip": "ym2612"
    },
    {
      "channel": 4,
      "note": 57,
      "start": 89.2506,
      "duration": 0.1742,
      "velocity": 110,
      "chip": "ym2612"
    },
    {
      "channel": 2,
      "note": 76,
      "start": 89.4244,
      "duration": 0.3713,
      "velocity": 99,
      "chip": "ym2612"
    },
    {
      "channel": 4,
      "note": 59,
      "start": 89.425,
      "duration": 0.1762,
      "velocity": 110,
      "chip": "ym2612"
    },
    {
      "channel": 1,
      "note": 86,
      "start": 89.6003,
      "duration": 0.3953,
      "velocity": 99,
      "chip": "ym2612"
    },
    {
      "channel": 3,
      "note": 112,
      "start": 89.6009,
      "duration": 0.5953,
      "velocity": 100,
      "chip": "ym2612"
    },
    {
      "channel": 4,
      "note": 62,
      "start": 89.6014,
      "duration": 0.1949,
      "velocity": 110,
      "chip": "ym2612"
    },
    {
      "channel": 2,
      "note": 85,
      "start": 89.7959,
      "duration": 0.3998,
      "velocity": 99,
      "chip": "ym2612"
    },
    {
      "channel": 4,
      "note": 64,
      "start": 89.7964,
      "duration": 0.1999,
      "velocity": 110,
      "chip": "ym2612"
    },
    {
      "channel": 1,
      "note": 81,
      "start": 89.9959,
      "duration": 0.3998,
      "velocity": 99,
      "chip": "ym2612"
    },
    {
      "channel": 4,
      "note": 57,
      "start": 89.9964,
      "duration": 0.2003,
      "velocity": 110,
      "chip": "ym2612"
    },
    {
      "channel": 2,
      "note": 76,
      "start": 90.1959,
      "duration": 0.3998,
      "velocity": 99,
      "chip": "ym2612"
    },
    {
      "channel": 3,
      "note": 112,
      "start": 90.1964,
      "duration": 0.0994,
      "velocity": 100,
      "chip": "ym2612"
    },
    {
      "channel": 4,
      "note": 59,
      "start": 90.1969,
      "duration": 0.4013,
      "velocity": 115,
      "chip": "ym2612"
    },
    {
      "channel": 3,
      "note": 112,
      "start": 90.296,
      "duration": 0.1003,
      "velocity": 100,
      "chip": "ym2612"
    },
    {
      "channel": 1,
      "note": 86,
      "start": 90.3959,
      "duration": 0.3998,
      "velocity": 99,
      "chip": "ym2612"
    },
    {
      "channel": 3,
      "note": 112,
      "start": 90.3964,
      "duration": 0.1998,
      "velocity": 100,
      "chip": "ym2612"
    },
    {
      "channel": 2,
      "note": 85,
      "start": 90.5959,
      "duration": 0.4002,
      "velocity": 99,
      "chip": "ym2612"
    },
    {
      "channel": 3,
      "note": 112,
      "start": 90.5964,
      "duration": 0.6003,
      "velocity": 100,
      "chip": "ym2612"
    },
    {
      "channel": 4,
      "note": 31,
      "start": 90.5984,
      "duration": 0.3983,
      "velocity": 115,
      "chip": "ym2612"
    },
    {
      "channel": 1,
      "note": 81,
      "start": 90.7958,
      "duration": 0.4004,
      "velocity": 99,
      "chip": "ym2612"
    },
    {
      "channel": 0,
      "note": 45,
      "start": 90.9958,
      "duration": 0.1999,
      "velocity": 113,
      "chip": "ym2612"
    },
    {
      "channel": 2,
      "note": 76,
      "start": 90.9963,
      "duration": 0.3761,
      "velocity": 99,
      "chip": "ym2612"
    },
    {
      "channel": 4,
      "note": 31,
      "start": 90.9969,
      "duration": 0.5588,
      "velocity": 115,
      "chip": "ym2612"
    },
    {
      "channel": 0,
      "note": 47,
      "start": 91.1959,
      "duration": 0.176,
      "velocity": 113,
      "chip": "ym2612"
    },
    {
      "channel": 1,
      "note": 83,
      "start": 91.1963,
      "duration": 0.3588,
      "velocity": 99,
      "chip": "ym2612"
    },
    {
      "channel": 3,
      "note": 112,
      "start": 91.1969,
      "duration": 0.5584,
      "velocity": 100,
      "chip": "ym2612"
    },
    {
      "channel": 0,
      "note": 59,
      "start": 91.372,
      "duration": 0.1826,
      "velocity": 113,
      "chip": "ym2612"
    },
    {
      "channel": 2,
      "note": 81,
      "start": 91.3726,
      "duration": 0.3821,
      "velocity": 99,
      "chip": "ym2612"
    },
    {
      "channel": 0,
      "note": 47,
      "start": 91.5548,
      "duration": 2.3676,
      "velocity": 113,
      "chip": "ym2612"
    },
    {
      "channel": 1,
      "note": 76,
      "start": 91.5553,
      "duration": 0.3758,
      "velocity": 99,
      "chip": "ym2612"
    },
    {
      "channel": 4,
      "note": 31,
      "start": 91.5559,
      "duration": 0.3763,
      "velocity": 115,
      "chip": "ym2612"
    },
    {
      "channel": 2,
      "note": 74,
      "start": 91.7549,
      "duration": 0.3481,
      "velocity": 99,
      "chip": "ym2612"
    },
    {
      "channel": 3,
      "note": 112,
      "start": 91.7554,
      "duration": 0.0895,
      "velocity": 100,
      "chip": "ym2612"
    },
    {
      "channel": 3,
      "note": 112,
      "start": 91.8451,
      "duration": 0.0866,
      "velocity": 100,
      "chip": "ym2612"
    },
    {
      "channel": 1,
      "note": 83,
      "start": 91.9313,
      "duration": 0.3524,
      "velocity": 99,
      "chip": "ym2612"
    },
    {
      "channel": 3,
      "note": 112,
      "start": 91.9319,
      "duration": 0.1717,
      "velocity": 100,
      "chip": "ym2612"
    },
    {
      "channel": 4,
      "note": 31,
      "start": 91.9324,
      "duration": 0.3534,
      "velocity": 110,
      "chip": "ym2612"
    },
    {
      "channel": 2,
      "note": 81,
      "start": 92.1032,
      "duration": 0.3588,
      "velocity": 99,
      "chip": "ym2612"
    },
    {
      "channel": 3,
      "note": 112,
      "start": 92.1037,
      "duration": 0.5349,
      "velocity": 100,
      "chip": "ym2612"
    },
    {
      "channel": 1,
      "note": 76,
      "start": 92.2838,
      "duration": 0.3543,
      "velocity": 99,
      "chip": "ym2612"
    },
    {
      "channel": 4,
      "note": 57,
      "start": 92.2859,
      "duration": 0.1767,
      "velocity": 110,
      "chip": "ym2612"
    },
    {
      "channel": 2,
      "note": 74,
      "start": 92.4622,
      "duration": 0.3712,
      "velocity": 99,
      "chip": "ym2612"
    },
    {
      "channel": 4,
      "note": 59,
      "start": 92.4628,
      "duration": 0.1764,
      "velocity": 110,
      "chip": "ym2612"
    },
    {
      "channel": 1,
      "note": 83,
      "start": 92.6383,
      "duration": 0.3691,
      "velocity": 99,
      "chip": "ym2612"
    },
    {
      "channel": 3,
      "note": 112,
      "start": 92.6389,
      "duration": 0.5431,
      "velocity": 100,
      "chip": "ym2612"
    },
    {
      "channel": 4,
      "note": 66,
      "start": 92.6394,
      "duration": 0.1947,
      "velocity": 110,
      "chip": "ym2612"
    },
    {
      "channel": 2,
      "note": 81,
      "start": 92.8337,
      "duration": 0.3477,
      "velocity": 99,
      "chip": "ym2612"
    },
    {
      "channel": 4,
      "note": 62,
      "start": 92.8343,
      "duration": 0.1737,
      "velocity": 110,
      "chip": "ym2612"
    },
    {
      "channel": 1,
      "note": 74,
      "start": 93.0076,
      "duration": 0.3694,
      "velocity": 99,
      "chip": "ym2612"
    },
    {
      "channel": 4,
      "note": 64,
      "start": 93.0082,
      "duration": 0.1742,
      "velocity": 110,
      "chip": "ym2612"
    },
    {
      "channel": 2,
      "note": 73,
      "start": 93.1816,
      "duration": 0.3715,
      "velocity": 99,
      "chip": "ym2612"
    },
    {
      "channel": 3,
      "note": 112,
      "start": 93.1821,
      "duration": 0.0949,
      "velocity": 100,
      "chip": "ym2612"
    },
    {
      "channel": 4,
      "note": 55,
      "start": 93.1826,
      "duration": 0.3729,
      "velocity": 115,
      "chip": "ym2612"
    },
    {
      "channel": 3,
      "note": 112,
      "start": 93.2773,
      "duration": 0.1003,
      "velocity": 100,
      "chip": "ym2612"
    },
    {
      "channel": 1,
      "note": 83,
      "start": 93.3771,
      "duration": 0.352,
      "velocity": 99,
      "chip": "ym2612"
    },
    {
      "channel": 3,
      "note": 112,
      "start": 93.3777,
      "duration": 0.1759,
      "velocity": 100,
      "chip": "ym2612"
    },
    {
      "channel": 2,
      "note": 81,
      "start": 93.5533,
      "duration": 0.3696,
      "velocity": 99,
      "chip": "ym2612"
    },
    {
      "channel": 3,
      "note": 112,
      "start": 93.5538,
      "duration": 0.5698,
      "velocity": 100,
      "chip": "ym2612"
    },
    {
      "channel": 4,
      "note": 31,
      "start": 93.5557,
      "duration": 0.3678,
      "velocity": 115,
      "chip": "ym2612"
    },
    {
      "channel": 1,
      "note": 74,
      "start": 93.7293,
      "duration": 0.3938,
      "velocity": 99,
      "chip": "ym2612"
    },
    {
      "channel": 0,
      "note": 45,
      "start": 93.9225,
      "duration": 0.2,
      "velocity": 113,
      "chip": "ym2612"
    },
    {
      "channel": 2,
      "note": 73,
      "start": 93.9231,
      "duration": 0.3999,
      "velocity": 99,
      "chip": "ym2612"
    },
    {
      "channel": 4,
      "note": 31,
      "start": 93.9237,
      "duration": 7.8003,
      "velocity": 110,
      "chip": "ym2612"
    },
    {
      "channel": 0,
      "note": 47,
      "start": 94.1227,
      "duration": 0.1996,
      "velocity": 113,
      "chip": "ym2612"
    },
    {
      "channel": 1,
      "note": 86,
      "start": 94.1233,
      "duration": 0.3996,
      "velocity": 99,
      "chip": "ym2612"
    },
    {
      "channel": 3,
      "note": 112,
      "start": 94.1239,
      "duration": 0.5991,
      "velocity": 100,
      "chip": "ym2612"
    },
    {
      "channel": 0,
      "note": 59,
      "start": 94.3225,
      "duration": 0.1999,
      "velocity": 113,
      "chip": "ym2612"
    },
    {
      "channel": 2,
      "note": 85,
      "start": 94.3231,
      "duration": 0.3994,
      "velocity": 99,
      "chip": "ym2612"
    },
    {
      "channel": 0,
      "note": 47,
      "start": 94.5226,
      "duration": 2.5998,
      "velocity": 113,
      "chip": "ym2612"
    },
    {
      "channel": 1,
      "note": 81,
      "start": 94.523,
      "duration": 0.3994,
      "velocity": 99,
      "chip": "ym2612"
    },
    {
      "channel": 5,
      "note": 31,
      "start": 94.5252,
      "duration": 0.3983,
      "velocity": 115,
      "chip": "ym2612"
    },
    {
      "channel": 2,
      "note": 76,
      "start": 94.7227,
      "duration": 0.3998,
      "velocity": 99,
      "chip": "ym2612"
    },
    {
      "channel": 3,
      "note": 112,
      "start": 94.7232,
      "duration": 0.0994,
      "velocity": 100,
      "chip": "ym2612"
    },
    {
      "channel": 3,
      "note": 112,
      "start": 94.8227,
      "duration": 0.1003,
      "velocity": 100,
      "chip": "ym2612"
    },
    {
      "channel": 1,
      "note": 86,
      "start": 94.9226,
      "duration": 0.3998,
      "velocity": 99,
      "chip": "ym2612"
    },
    {
      "channel": 3,
      "note": 112,
      "start": 94.9232,
      "duration": 0.1998,
      "velocity": 100,
      "chip": "ym2612"
    },
    {
      "channel": 5,
      "note": 31,
      "start": 94.9237,
      "duration": 0.4008,
      "velocity": 110,
      "chip": "ym2612"
    },
    {
      "channel": 2,
      "note": 85,
      "start": 95.1227,
      "duration": 0.3998,
      "velocity": 99,
      "chip": "ym2612"
    },
    {
      "channel": 3,
      "note": 112,
      "start": 95.1232,
      "duration": 0.5998,
      "velocity": 100,
      "chip": "ym2612"
    },
    {
      "channel": 1,
      "note": 81,
      "start": 95.3226,
      "duration": 0.3998,
      "velocity": 99,
      "chip": "ym2612"
    },
    {
      "channel": 5,
      "note": 57,
      "start": 95.3247,
      "duration": 0.1984,
      "velocity": 110,
      "chip": "ym2612"
    },
    {
      "channel": 2,
      "note": 76,
      "start": 95.5227,
      "duration": 0.3998,
      "velocity": 99,
      "chip": "ym2612"
    },
    {
      "channel": 5,
      "note": 59,
      "start": 95.5232,
      "duration": 0.2003,
      "velocity": 110,
      "chip": "ym2612"
    },
    {
      "channel": 1,
      "note": 86,
      "start": 95.7226,
      "duration": 0.3998,
      "velocity": 99,
      "chip": "ym2612"
    },
    {
      "channel": 3,
      "note": 112,
      "start": 95.7232,
      "duration": 0.5998,
      "velocity": 100,
      "chip": "ym2612"
    },
    {
      "channel": 5,
      "note": 62,
      "start": 95.7237,
      "duration": 0.1994,
      "velocity": 110,
      "chip": "ym2612"
    },
    {
      "channel": 2,
      "note": 85,
      "start": 95.9227,
      "duration": 0.3998,
      "velocity": 99,
      "chip": "ym2612"
    },
    {
      "channel": 5,
      "note": 64,
      "start": 95.9232,
      "duration": 0.1999,
      "velocity": 110,
      "chip": "ym2612"
    },
    {
      "channel": 1,
      "note": 81,
      "start": 96.1226,
      "duration": 0.3998,
      "velocity": 99,
      "chip": "ym2612"
    },
    {
      "channel": 5,
      "note": 57,
      "start": 96.1232,
      "duration": 0.2003,
      "velocity": 110,
      "chip": "ym2612"
    },
    {
      "channel": 2,
      "note": 76,
      "start": 96.3227,
      "duration": 0.3998,
      "velocity": 99,
      "chip": "ym2612"
    },
    {
      "channel": 3,
      "note": 112,
      "start": 96.3232,
      "duration": 0.0994,
      "velocity": 100,
      "chip": "ym2612"
    },
    {
      "channel": 5,
      "note": 59,
      "start": 96.3237,
      "duration": 0.4013,
      "velocity": 115,
      "chip": "ym2612"
    },
    {
      "channel": 3,
      "note": 112,
      "start": 96.4227,
      "duration": 0.1003,
      "velocity": 100,
      "chip": "ym2612"
    },
    {
      "channel": 1,
      "note": 86,
      "start": 96.5226,
      "duration": 0.3998,
      "velocity": 99,
      "chip": "ym2612"
    },
    {
      "channel": 3,
      "note": 112,
      "start": 96.5232,
      "duration": 0.1998,
      "velocity": 100,
      "chip": "ym2612"
    },
    {
      "channel": 2,
      "note": 85,
      "start": 96.7227,
      "duration": 0.4002,
      "velocity": 99,
      "chip": "ym2612"
    },
    {
      "channel": 3,
      "note": 112,
      "start": 96.7232,
      "duration": 0.6002,
      "velocity": 100,
      "chip": "ym2612"
    },
    {
      "channel": 5,
      "note": 31,
      "start": 96.7252,
      "duration": 0.3983,
      "velocity": 115,
      "chip": "ym2612"
    },
    {
      "channel": 1,
      "note": 81,
      "start": 96.9225,
      "duration": 0.4004,
      "velocity": 99,
      "chip": "ym2612"
    },
    {
      "channel": 0,
      "note": 45,
      "start": 97.1225,
      "duration": 0.1999,
      "velocity": 113,
      "chip": "ym2612"
    },
    {
      "channel": 2,
      "note": 76,
      "start": 97.1231,
      "duration": 0.3998,
      "velocity": 99,
      "chip": "ym2612"
    },
    {
      "channel": 5,
      "note": 31,
      "start": 97.1237,
      "duration": 0.5998,
      "velocity": 115,
      "chip": "ym2612"
    },
    {
      "channel": 0,
      "note": 47,
      "start": 97.3225,
      "duration": 0.1998,
      "velocity": 113,
      "chip": "ym2612"
    },
    {
      "channel": 1,
      "note": 83,
      "start": 97.323,
      "duration": 0.3998,
      "velocity": 99,
      "chip": "ym2612"
    },
    {
      "channel": 3,
      "note": 112,
      "start": 97.3236,
      "duration": 0.5994,
      "velocity": 100,
      "chip": "ym2612"
    },
    {
      "channel": 0,
      "note": 59,
      "start": 97.5225,
      "duration": 0.1999,
      "velocity": 113,
      "chip": "ym2612"
    },
    {
      "channel": 2,
      "note": 81,
      "start": 97.5231,
      "duration": 0.3994,
      "velocity": 99,
      "chip": "ym2612"
    },
    {
      "channel": 0,
      "note": 47,
      "start": 97.7225,
      "duration": 2.5999,
      "velocity": 113,
      "chip": "ym2612"
    },
    {
      "channel": 1,
      "note": 76,
      "start": 97.723,
      "duration": 0.3994,
      "velocity": 99,
      "chip": "ym2612"
    },
    {
      "channel": 5,
      "note": 31,
      "start": 97.7237,
      "duration": 0.3999,
      "velocity": 115,
      "chip": "ym2612"
    },
    {
      "channel": 2,
      "note": 74,
      "start": 97.9227,
      "duration": 0.3998,
      "velocity": 99,
      "chip": "ym2612"
    },
    {
      "channel": 3,
      "note": 112,
      "start": 97.9232,
      "duration": 0.0994,
      "velocity": 100,
      "chip": "ym2612"
    },
    {
      "channel": 3,
      "note": 112,
      "start": 98.0227,
      "duration": 0.1003,
      "velocity": 100,
      "chip": "ym2612"
    },
    {
      "channel": 1,
      "note": 83,
      "start": 98.1226,
      "duration": 0.3998,
      "velocity": 99,
      "chip": "ym2612"
    },
    {
      "channel": 3,
      "note": 112,
      "start": 98.1232,
      "duration": 0.1998,
      "velocity": 100,
      "chip": "ym2612"
    },
    {
      "channel": 5,
      "note": 31,
      "start": 98.1237,
      "duration": 0.4008,
      "velocity": 110,
      "chip": "ym2612"
    },
    {
      "channel": 2,
      "note": 81,
      "start": 98.3227,
      "duration": 0.3998,
      "velocity": 99,
      "chip": "ym2612"
    },
    {
      "channel": 3,
      "note": 112,
      "start": 98.3232,
      "duration": 0.5998,
      "velocity": 100,
      "chip": "ym2612"
    },
    {
      "channel": 1,
      "note": 76,
      "start": 98.5226,
      "duration": 0.3998,
      "velocity": 99,
      "chip": "ym2612"
    },
    {
      "channel": 5,
      "note": 57,
      "start": 98.5247,
      "duration": 0.1984,
      "velocity": 110,
      "chip": "ym2612"
    },
    {
      "channel": 2,
      "note": 74,
      "start": 98.7227,
      "duration": 0.3998,
      "velocity": 99,
      "chip": "ym2612"
    },
    {
      "channel": 5,
      "note": 59,
      "start": 98.7232,
      "duration": 0.2003,
      "velocity": 110,
      "chip": "ym2612"
    },
    {
      "channel": 1,
      "note": 83,
      "start": 98.9226,
      "duration": 0.3998,
      "velocity": 99,
      "chip": "ym2612"
    },
    {
      "channel": 3,
      "note": 112,
      "start": 98.9232,
      "duration": 0.5998,
      "velocity": 100,
      "chip": "ym2612"
    },
    {
      "channel": 5,
      "note": 66,
      "start": 98.9237,
      "duration": 0.1994,
      "velocity": 110,
      "chip": "ym2612"
    },
    {
      "channel": 2,
      "note": 81,
      "start": 99.1227,
      "duration": 0.3998,
      "velocity": 99,
      "chip": "ym2612"
    },
    {
      "channel": 5,
      "note": 62,
      "start": 99.1232,
      "duration": 0.1999,
      "velocity": 110,
      "chip": "ym2612"
    },
    {
      "channel": 1,
      "note": 74,
      "start": 99.3226,
      "duration": 0.3998,
      "velocity": 99,
      "chip": "ym2612"
    },
    {
      "channel": 5,
      "note": 64,
      "start": 99.3232,
      "duration": 0.2003,
      "velocity": 110,
      "chip": "ym2612"
    },
    {
      "channel": 2,
      "note": 73,
      "start": 99.5227,
      "duration": 0.3998,
      "velocity": 99,
      "chip": "ym2612"
    },
    {
      "channel": 3,
      "note": 112,
      "start": 99.5232,
      "duration": 0.0994,
      "velocity": 100,
      "chip": "ym2612"
    },
    {
      "channel": 5,
      "note": 55,
      "start": 99.5237,
      "duration": 0.4013,
      "velocity": 115,
      "chip": "ym2612"
    },
    {
      "channel": 3,
      "note": 112,
      "start": 99.6227,
      "duration": 0.1003,
      "velocity": 100,
      "chip": "ym2612"
    },
    {
      "channel": 1,
      "note": 83,
      "start": 99.7226,
      "duration": 0.3998,
      "velocity": 99,
      "chip": "ym2612"
    },
    {
      "channel": 3,
      "note": 112,
      "start": 99.7232,
      "duration": 0.1998,
      "velocity": 100,
      "chip": "ym2612"
    },
    {
      "channel": 2,
      "note": 81,
      "start": 99.9227,
      "duration": 0.4002,
      "velocity": 99,
      "chip": "ym2612"
    },
    {
      "channel": 3,
      "note": 112,
      "start": 99.9232,
      "duration": 0.601,
      "velocity": 100,
      "chip": "ym2612"
    },
    {
      "channel": 5,
      "note": 31,
      "start": 99.9252,
      "duration": 0.3983,
      "velocity": 115,
      "chip": "ym2612"
    },
    {
      "channel": 1,
      "note": 74,
      "start": 100.1225,
      "duration": 0.4006,
      "velocity": 99,
      "chip": "ym2612"
    },
    {
      "channel": 0,
      "note": 45,
      "start": 100.3225,
      "duration": 0.2,
      "velocity": 113,
      "chip": "ym2612"
    },
    {
      "channel": 2,
      "note": 73,
      "start": 100.3231,
      "duration": 0.2005,
      "velocity": 99,
      "chip": "ym2612"
    },
    {
      "channel": 5,
      "note": 31,
      "start": 100.3237,
      "duration": 0.5994,
      "velocity": 115,
      "chip": "ym2612"
    },
    {
      "channel": 0,
      "note": 47,
      "start": 100.5227,
      "duration": 0.1996,
      "velocity": 113,
      "chip": "ym2612"
    },
    {
      "channel": 1,
      "note": 71,
      "start": 100.5233,
      "duration": 15.0705,
      "velocity": 99,
      "chip": "ym2612"
    },
    {
      "channel": 2,
      "note": 66,
      "start": 100.5238,
      "duration": 15.07,
      "velocity": 99,
      "chip": "ym2612"
    },
    {
      "channel": 3,
      "note": 112,
      "start": 100.5244,
      "duration": 0.5981,
      "velocity": 100,
      "chip": "ym2612"
    },
    {
      "channel": 0,
      "note": 59,
      "start": 100.7225,
      "duration": 0.1998,
      "velocity": 113,
      "chip": "ym2612"
    },
    {
      "channel": 0,
      "note": 47,
      "start": 100.9225,
      "duration": 2.5998,
      "velocity": 113,
      "chip": "ym2612"
    },
    {
      "channel": 5,
      "note": 31,
      "start": 100.9233,
      "duration": 0.3998,
      "velocity": 115,
      "chip": "ym2612"
    },
    {
      "channel": 3,
      "note": 112,
      "start": 101.1227,
      "duration": 0.0998,
      "velocity": 100,
      "chip": "ym2612"
    },
    {
      "channel": 3,
      "note": 112,
      "start": 101.2227,
      "duration": 0.0999,
      "velocity": 100,
      "chip": "ym2612"
    },
    {
      "channel": 3,
      "note": 112,
      "start": 101.3227,
      "duration": 0.1998,
      "velocity": 100,
      "chip": "ym2612"
    },
    {
      "channel": 5,
      "note": 31,
      "start": 101.3233,
      "duration": 0.4027,
      "velocity": 110,
      "chip": "ym2612"
    },
    {
      "channel": 3,
      "note": 112,
      "start": 101.5227,
      "duration": 0.5999,
      "velocity": 100,
      "chip": "ym2612"
    },
    {
      "channel": 4,
      "note": 64,
      "start": 101.7242,
      "duration": 0.1984,
      "velocity": 110,
      "chip": "ym2612"
    },
    {
      "channel": 5,
      "note": 57,
      "start": 101.7261,
      "duration": 0.1969,
      "velocity": 110,
      "chip": "ym2612"
    },
    {
      "channel": 4,
      "note": 66,
      "start": 101.9227,
      "duration": 0.2003,
      "velocity": 110,
      "chip": "ym2612"
    },
    {
      "channel": 5,
      "note": 59,
      "start": 101.9233,
      "duration": 0.2002,
      "velocity": 110,
      "chip": "ym2612"
    },
    {
      "channel": 3,
      "note": 112,
      "start": 102.1227,
      "duration": 0.5998,
      "velocity": 100,
      "chip": "ym2612"
    },
    {
      "channel": 4,
      "note": 69,
      "start": 102.1232,
      "duration": 0.1994,
      "velocity": 110,
      "chip": "ym2612"
    },
    {
      "channel": 5,
      "note": 62,
      "start": 102.1237,
      "duration": 0.1994,
      "velocity": 110,
      "chip": "ym2612"
    },
    {
      "channel": 4,
      "note": 71,
      "start": 102.3227,
      "duration": 0.1999,
      "velocity": 110,
      "chip": "ym2612"
    },
    {
      "channel": 5,
      "note": 64,
      "start": 102.3233,
      "duration": 0.1998,
      "velocity": 110,
      "chip": "ym2612"
    },
    {
      "channel": 4,
      "note": 64,
      "start": 102.5227,
      "duration": 0.2003,
      "velocity": 110,
      "chip": "ym2612"
    },
    {
      "channel": 5,
      "note": 57,
      "start": 102.5233,
      "duration": 0.2002,
      "velocity": 110,
      "chip": "ym2612"
    },
    {
      "channel": 3,
      "note": 112,
      "start": 102.7227,
      "duration": 0.0998,
      "velocity": 100,
      "chip": "ym2612"
    },
    {
      "channel": 4,
      "note": 66,
      "start": 102.7232,
      "duration": 2.1994,
      "velocity": 110,
      "chip": "ym2612"
    },
    {
      "channel": 5,
      "note": 59,
      "start": 102.7237,
      "duration": 0.4008,
      "velocity": 115,
      "chip": "ym2612"
    },
    {
      "channel": 3,
      "note": 112,
      "start": 102.8227,
      "duration": 0.0998,
      "velocity": 100,
      "chip": "ym2612"
    },
    {
      "channel": 3,
      "note": 112,
      "start": 102.9227,
      "duration": 0.1999,
      "velocity": 100,
      "chip": "ym2612"
    },
    {
      "channel": 3,
      "note": 112,
      "start": 103.1227,
      "duration": 0.6003,
      "velocity": 100,
      "chip": "ym2612"
    },
    {
      "channel": 5,
      "note": 31,
      "start": 103.1247,
      "duration": 0.3984,
      "velocity": 115,
      "chip": "ym2612"
    },
    {
      "channel": 0,
      "note": 45,
      "start": 103.5225,
      "duration": 0.1998,
      "velocity": 113,
      "chip": "ym2612"
    },
    {
      "channel": 5,
      "note": 31,
      "start": 103.5232,
      "duration": 0.5999,
      "velocity": 115,
      "chip": "ym2612"
    },
    {
      "channel": 0,
      "note": 47,
      "start": 103.7225,
      "duration": 0.1998,
      "velocity": 113,
      "chip": "ym2612"
    },
    {
      "channel": 3,
      "note": 112,
      "start": 103.7232,
      "duration": 0.5993,
      "velocity": 100,
      "chip": "ym2612"
    },
    {
      "channel": 0,
      "note": 59,
      "start": 103.9225,
      "duration": 0.1998,
      "velocity": 113,
      "chip": "ym2612"
    },
    {
      "channel": 0,
      "note": 47,
      "start": 104.1225,
      "duration": 2.5998,
      "velocity": 113,
      "chip": "ym2612"
    },
    {
      "channel": 5,
      "note": 31,
      "start": 104.1232,
      "duration": 0.3999,
      "velocity": 115,
      "chip": "ym2612"
    },
    {
      "channel": 3,
      "note": 112,
      "start": 104.3227,
      "duration": 0.0998,
      "velocity": 100,
      "chip": "ym2612"
    },
    {
      "channel": 3,
      "note": 112,
      "start": 104.4227,
      "duration": 0.0999,
      "velocity": 100,
      "chip": "ym2612"
    },
    {
      "channel": 3,
      "note": 112,
      "start": 104.5227,
      "duration": 0.1998,
      "velocity": 100,
      "chip": "ym2612"
    },
    {
      "channel": 5,
      "note": 31,
      "start": 104.5233,
      "duration": 0.4013,
      "velocity": 110,
      "chip": "ym2612"
    },
    {
      "channel": 3,
      "note": 112,
      "start": 104.7227,
      "duration": 0.5999,
      "velocity": 100,
      "chip": "ym2612"
    },
    {
      "channel": 4,
      "note": 64,
      "start": 104.9227,
      "duration": 0.1999,
      "velocity": 110,
      "chip": "ym2612"
    },
    {
      "channel": 5,
      "note": 57,
      "start": 104.9247,
      "duration": 0.1984,
      "velocity": 110,
      "chip": "ym2612"
    },
    {
      "channel": 4,
      "note": 66,
      "start": 105.1227,
      "duration": 0.2003,
      "velocity": 110,
      "chip": "ym2612"
    },
    {
      "channel": 5,
      "note": 59,
      "start": 105.1233,
      "duration": 0.2002,
      "velocity": 110,
      "chip": "ym2612"
    },
    {
      "channel": 3,
      "note": 112,
      "start": 105.3227,
      "duration": 0.5998,
      "velocity": 100,
      "chip": "ym2612"
    },
    {
      "channel": 4,
      "note": 71,
      "start": 105.3232,
      "duration": 0.1994,
      "velocity": 110,
      "chip": "ym2612"
    },
    {
      "channel": 5,
      "note": 66,
      "start": 105.3237,
      "duration": 0.1994,
      "velocity": 110,
      "chip": "ym2612"
    },
    {
      "channel": 4,
      "note": 66,
      "start": 105.5227,
      "duration": 0.1999,
      "velocity": 110,
      "chip": "ym2612"
    },
    {
      "channel": 5,
      "note": 62,
      "start": 105.5233,
      "duration": 0.1998,
      "velocity": 110,
      "chip": "ym2612"
    },
    {
      "channel": 4,
      "note": 69,
      "start": 105.7227,
      "duration": 0.2003,
      "velocity": 110,
      "chip": "ym2612"
    },
    {
      "channel": 5,
      "note": 64,
      "start": 105.7233,
      "duration": 0.2002,
      "velocity": 110,
      "chip": "ym2612"
    },
    {
      "channel": 3,
      "note": 112,
      "start": 105.9227,
      "duration": 0.0998,
      "velocity": 100,
      "chip": "ym2612"
    },
    {
      "channel": 4,
      "note": 62,
      "start": 105.9232,
      "duration": 9.6706,
      "velocity": 110,
      "chip": "ym2612"
    },
    {
      "channel": 5,
      "note": 55,
      "start": 105.9237,
      "duration": 0.4008,
      "velocity": 115,
      "chip": "ym2612"
    },
    {
      "channel": 3,
      "note": 112,
      "start": 106.0227,
      "duration": 0.0998,
      "velocity": 100,
      "chip": "ym2612"
    },
    {
      "channel": 3,
      "note": 112,
      "start": 106.1227,
      "duration": 0.1999,
      "velocity": 100,
      "chip": "ym2612"
    },
    {
      "channel": 3,
      "note": 112,
      "start": 106.3227,
      "duration": 9.2711,
      "velocity": 100,
      "chip": "ym2612"
    },
    {
      "channel": 5,
      "note": 31,
      "start": 106.3247,
      "duration": 0.3984,
      "velocity": 115,
      "chip": "ym2612"
    },
    {
      "channel": 0,
      "note": 45,
      "start": 106.7225,
      "duration": 0.2,
      "velocity": 113,
      "chip": "ym2612"
    },
    {
      "channel": 5,
      "note": 31,
      "start": 106.7232,
      "duration": 8.8706,
      "velocity": 115,
      "chip": "ym2612"
    },
    {
      "channel": 0,
      "note": 47,
      "start": 106.9227,
      "duration": 0.1996,
      "velocity": 113,
      "chip": "ym2612"
    },
    {
      "channel": 0,
      "note": 59,
      "start": 107.1224,
      "duration": 8.4714,
      "velocity": 113,
      "chip": "ym2612"
    }
  ]
}