{
  "track_name": "06 - Fairyland",
  "duration_sec": 72.364,
  "sample_rate": 44100,
  "note_count": 388,
  "unique_pitches": 39,
  "pitch_range": 60,
  "avg_note_duration": 0.9115,
  "reconstruction_stats": {
    "notes_reconstructed": 388,
    "keyon_events": 388,
    "keyoff_events": 383,
    "orphan_keyons": 5,
    "unique_pitches": 39,
    "pitch_range": 60,
    "avg_duration_sec": 0.9115
  },
  "metadata": {
    "source": "S\\Super Hydlide\\06 - Fairyland.vgz"
  },
  "notes": [
    {
      "channel": 0,
      "note": 85,
      "start": 0.0,
      "duration": 5.7538,
      "velocity": 119,
      "chip": "ym2612"
    },
    {
      "channel": 1,
      "note": 85,
      "start": 0.0949,
      "duration": 5.7793,
      "velocity": 119,
      "chip": "ym2612"
    },
    {
      "channel": 2,
      "note": 37,
      "start": 0.392,
      "duration": 1.2795,
      "velocity": 99,
      "chip": "ym2612"
    },
    {
      "channel": 5,
      "note": 61,
      "start": 0.3956,
      "duration": 1.2766,
      "velocity": 121,
      "chip": "ym2612"
    },
    {
      "channel": 3,
      "note": 68,
      "start": 0.7506,
      "duration": 0.3743,
      "velocity": 120,
      "chip": "ym2612"
    },
    {
      "channel": 4,
      "note": 65,
      "start": 1.128,
      "duration": 0.7365,
      "velocity": 120,
      "chip": "ym2612"
    },
    {
      "channel": 3,
      "note": 68,
      "start": 1.486,
      "duration": 0.3782,
      "velocity": 120,
      "chip": "ym2612"
    },
    {
      "channel": 2,
      "note": 37,
      "start": 1.8637,
      "duration": 0.1847,
      "velocity": 99,
      "chip": "ym2612"
    },
    {
      "channel": 5,
      "note": 61,
      "start": 1.8656,
      "duration": 1.2993,
      "velocity": 121,
      "chip": "ym2612"
    },
    {
      "channel": 2,
      "note": 37,
      "start": 2.2409,
      "duration": 0.9573,
      "velocity": 99,
      "chip": "ym2612"
    },
    {
      "channel": 3,
      "note": 68,
      "start": 2.2422,
      "duration": 0.3581,
      "velocity": 120,
      "chip": "ym2612"
    },
    {
      "channel": 4,
      "note": 65,
      "start": 2.6014,
      "duration": 0.6487,
      "velocity": 121,
      "chip": "ym2612"
    },
    {
      "channel": 3,
      "note": 68,
      "start": 2.9784,
      "duration": 0.3786,
      "velocity": 120,
      "chip": "ym2612"
    },
    {
      "channel": 2,
      "note": 39,
      "start": 3.3566,
      "duration": 1.2825,
      "velocity": 99,
      "chip": "ym2612"
    },
    {
      "channel": 5,
      "note": 63,
      "start": 3.3583,
      "duration": 1.2815,
      "velocity": 121,
      "chip": "ym2612"
    },
    {
      "channel": 3,
      "note": 70,
      "start": 3.716,
      "duration": 0.3768,
      "velocity": 120,
      "chip": "ym2612"
    },
    {
      "channel": 4,
      "note": 67,
      "start": 4.0939,
      "duration": 0.7379,
      "velocity": 120,
      "chip": "ym2612"
    },
    {
      "channel": 3,
      "note": 70,
      "start": 4.4539,
      "duration": 0.3776,
      "velocity": 121,
      "chip": "ym2612"
    },
    {
      "channel": 2,
      "note": 39,
      "start": 4.831,
      "duration": 0.1853,
      "velocity": 99,
      "chip": "ym2612"
    },
    {
      "channel": 5,
      "note": 63,
      "start": 4.8329,
      "duration": 1.2986,
      "velocity": 121,
      "chip": "ym2612"
    },
    {
      "channel": 2,
      "note": 39,
      "start": 5.2085,
      "duration": 0.9569,
      "velocity": 99,
      "chip": "ym2612"
    },
    {
      "channel": 3,
      "note": 75,
      "start": 5.2098,
      "duration": 0.358,
      "velocity": 120,
      "chip": "ym2612"
    },
    {
      "channel": 4,
      "note": 67,
      "start": 5.5689,
      "duration": 0.8378,
      "velocity": 120,
      "chip": "ym2612"
    },
    {
      "channel": 0,
      "note": 84,
      "start": 5.9086,
      "duration": 0.8396,
      "velocity": 119,
      "chip": "ym2612"
    },
    {
      "channel": 3,
      "note": 70,
      "start": 5.946,
      "duration": 0.2199,
      "velocity": 121,
      "chip": "ym2612"
    },
    {
      "channel": 1,
      "note": 84,
      "start": 6.0285,
      "duration": 0.8399,
      "velocity": 119,
      "chip": "ym2612"
    },
    {
      "channel": 2,
      "note": 42,
      "start": 6.3241,
      "duration": 1.2828,
      "velocity": 99,
      "chip": "ym2612"
    },
    {
      "channel": 5,
      "note": 54,
      "start": 6.3263,
      "duration": 1.2812,
      "velocity": 121,
      "chip": "ym2612"
    },
    {
      "channel": 3,
      "note": 61,
      "start": 6.6839,
      "duration": 0.3759,
      "velocity": 121,
      "chip": "ym2612"
    },
    {
      "channel": 0,
      "note": 89,
      "start": 6.8003,
      "duration": 1.6461,
      "velocity": 119,
      "chip": "ym2612"
    },
    {
      "channel": 1,
      "note": 89,
      "start": 6.9377,
      "duration": 1.6298,
      "velocity": 119,
      "chip": "ym2612"
    },
    {
      "channel": 4,
      "note": 58,
      "start": 7.0609,
      "duration": 0.8038,
      "velocity": 121,
      "chip": "ym2612"
    },
    {
      "channel": 3,
      "note": 61,
      "start": 7.4387,
      "duration": 0.4598,
      "velocity": 120,
      "chip": "ym2612"
    },
    {
      "channel": 2,
      "note": 42,
      "start": 7.7988,
      "duration": 0.185,
      "velocity": 99,
      "chip": "ym2612"
    },
    {
      "channel": 5,
      "note": 54,
      "start": 7.8002,
      "duration": 1.2993,
      "velocity": 121,
      "chip": "ym2612"
    },
    {
      "channel": 2,
      "note": 42,
      "start": 8.1762,
      "duration": 2.3984,
      "velocity": 99,
      "chip": "ym2612"
    },
    {
      "channel": 3,
      "note": 61,
      "start": 8.1775,
      "duration": 0.3578,
      "velocity": 120,
      "chip": "ym2612"
    },
    {
      "channel": 0,
      "note": 89,
      "start": 8.4814,
      "duration": 0.514,
      "velocity": 119,
      "chip": "ym2612"
    },
    {
      "channel": 4,
      "note": 58,
      "start": 8.5364,
      "duration": 0.7573,
      "velocity": 118,
      "chip": "ym2612"
    },
    {
      "channel": 1,
      "note": 89,
      "start": 8.6023,
      "duration": 0.5304,
      "velocity": 119,
      "chip": "ym2612"
    },
    {
      "channel": 3,
      "note": 61,
      "start": 8.9136,
      "duration": 0.3062,
      "velocity": 120,
      "chip": "ym2612"
    },
    {
      "channel": 0,
      "note": 85,
      "start": 9.0303,
      "duration": 8.1303,
      "velocity": 119,
      "chip": "ym2612"
    },
    {
      "channel": 1,
      "note": 85,
      "start": 9.1677,
      "duration": 8.1303,
      "velocity": 119,
      "chip": "ym2612"
    },
    {
      "channel": 4,
      "note": 80,
      "start": 9.2937,
      "duration": 0.7355,
      "velocity": 120,
      "chip": "ym2612"
    },
    {
      "channel": 5,
      "note": 56,
      "start": 9.2948,
      "duration": 1.2805,
      "velocity": 120,
      "chip": "ym2612"
    },
    {
      "channel": 3,
      "note": 63,
      "start": 9.6516,
      "duration": 0.3766,
      "velocity": 121,
      "chip": "ym2612"
    },
    {
      "channel": 4,
      "note": 60,
      "start": 10.0293,
      "duration": 0.923,
      "velocity": 120,
      "chip": "ym2612"
    },
    {
      "channel": 3,
      "note": 63,
      "start": 10.4063,
      "duration": 0.3606,
      "velocity": 120,
      "chip": "ym2612"
    },
    {
      "channel": 2,
      "note": 44,
      "start": 10.7665,
      "duration": 0.1852,
      "velocity": 99,
      "chip": "ym2612"
    },
    {
      "channel": 5,
      "note": 56,
      "start": 10.7681,
      "duration": 1.2993,
      "velocity": 120,
      "chip": "ym2612"
    },
    {
      "channel": 2,
      "note": 44,
      "start": 11.1439,
      "duration": 0.9575,
      "velocity": 99,
      "chip": "ym2612"
    },
    {
      "channel": 3,
      "note": 66,
      "start": 11.1452,
      "duration": 0.4596,
      "velocity": 121,
      "chip": "ym2612"
    },
    {
      "channel": 4,
      "note": 60,
      "start": 11.5214,
      "duration": 0.6322,
      "velocity": 120,
      "chip": "ym2612"
    },
    {
      "channel": 3,
      "note": 66,
      "start": 11.8817,
      "duration": 0.4093,
      "velocity": 121,
      "chip": "ym2612"
    },
    {
      "channel": 2,
      "note": 37,
      "start": 12.2606,
      "duration": 1.2988,
      "velocity": 99,
      "chip": "ym2612"
    },
    {
      "channel": 5,
      "note": 61,
      "start": 12.2628,
      "duration": 1.2973,
      "velocity": 121,
      "chip": "ym2612"
    },
    {
      "channel": 3,
      "note": 68,
      "start": 12.6193,
      "duration": 0.3765,
      "velocity": 120,
      "chip": "ym2612"
    },
    {
      "channel": 4,
      "note": 65,
      "start": 12.9969,
      "duration": 0.923,
      "velocity": 121,
      "chip": "ym2612"
    },
    {
      "channel": 3,
      "note": 68,
      "start": 13.3742,
      "duration": 0.3605,
      "velocity": 120,
      "chip": "ym2612"
    },
    {
      "channel": 2,
      "note": 37,
      "start": 13.7341,
      "duration": 0.1851,
      "velocity": 99,
      "chip": "ym2612"
    },
    {
      "channel": 5,
      "note": 61,
      "start": 13.7358,
      "duration": 1.2994,
      "velocity": 121,
      "chip": "ym2612"
    },
    {
      "channel": 2,
      "note": 37,
      "start": 14.1122,
      "duration": 0.9574,
      "velocity": 99,
      "chip": "ym2612"
    },
    {
      "channel": 3,
      "note": 73,
      "start": 14.1135,
      "duration": 0.4591,
      "velocity": 120,
      "chip": "ym2612"
    },
    {
      "channel": 4,
      "note": 65,
      "start": 14.489,
      "duration": 0.8208,
      "velocity": 121,
      "chip": "ym2612"
    },
    {
      "channel": 3,
      "note": 68,
      "start": 14.8492,
      "duration": 0.4093,
      "velocity": 120,
      "chip": "ym2612"
    },
    {
      "channel": 2,
      "note": 39,
      "start": 15.2277,
      "duration": 1.2995,
      "velocity": 99,
      "chip": "ym2612"
    },
    {
      "channel": 5,
      "note": 63,
      "start": 15.2305,
      "duration": 1.2973,
      "velocity": 121,
      "chip": "ym2612"
    },
    {
      "channel": 3,
      "note": 70,
      "start": 15.5867,
      "duration": 0.3761,
      "velocity": 120,
      "chip": "ym2612"
    },
    {
      "channel": 4,
      "note": 67,
      "start": 15.9639,
      "duration": 0.8043,
      "velocity": 121,
      "chip": "ym2612"
    },
    {
      "channel": 3,
      "note": 70,
      "start": 16.3418,
      "duration": 0.4254,
      "velocity": 121,
      "chip": "ym2612"
    },
    {
      "channel": 2,
      "note": 39,
      "start": 16.7018,
      "duration": 0.1845,
      "velocity": 99,
      "chip": "ym2612"
    },
    {
      "channel": 5,
      "note": 63,
      "start": 16.7034,
      "duration": 1.2998,
      "velocity": 121,
      "chip": "ym2612"
    },
    {
      "channel": 4,
      "note": 67,
      "start": 16.7683,
      "duration": 0.6882,
      "velocity": 120,
      "chip": "ym2612"
    },
    {
      "channel": 3,
      "note": 70,
      "start": 16.8368,
      "duration": 0.2431,
      "velocity": 121,
      "chip": "ym2612"
    },
    {
      "channel": 2,
      "note": 39,
      "start": 17.0787,
      "duration": 0.9581,
      "velocity": 99,
      "chip": "ym2612"
    },
    {
      "channel": 3,
      "note": 75,
      "start": 17.08,
      "duration": 0.3754,
      "velocity": 121,
      "chip": "ym2612"
    },
    {
      "channel": 0,
      "note": 82,
      "start": 17.2302,
      "duration": 2.1952,
      "velocity": 119,
      "chip": "ym2612"
    },
    {
      "channel": 1,
      "note": 82,
      "start": 17.3504,
      "duration": 2.1954,
      "velocity": 119,
      "chip": "ym2612"
    },
    {
      "channel": 4,
      "note": 67,
      "start": 17.4565,
      "duration": 0.6493,
      "velocity": 120,
      "chip": "ym2612"
    },
    {
      "channel": 3,
      "note": 70,
      "start": 17.817,
      "duration": 0.1858,
      "velocity": 121,
      "chip": "ym2612"
    },
    {
      "channel": 2,
      "note": 42,
      "start": 18.1954,
      "duration": 1.2995,
      "velocity": 99,
      "chip": "ym2612"
    },
    {
      "channel": 5,
      "note": 54,
      "start": 18.1969,
      "duration": 1.2987,
      "velocity": 121,
      "chip": "ym2612"
    },
    {
      "channel": 3,
      "note": 61,
      "start": 18.5719,
      "duration": 0.3595,
      "velocity": 121,
      "chip": "ym2612"
    },
    {
      "channel": 4,
      "note": 58,
      "start": 18.9324,
      "duration": 0.9223,
      "velocity": 121,
      "chip": "ym2612"
    },
    {
      "channel": 3,
      "note": 61,
      "start": 19.3095,
      "duration": 0.3602,
      "velocity": 120,
      "chip": "ym2612"
    },
    {
      "channel": 0,
      "note": 90,
      "start": 19.6146,
      "duration": 2.9328,
      "velocity": 119,
      "chip": "ym2612"
    },
    {
      "channel": 2,
      "note": 42,
      "start": 19.6692,
      "duration": 0.185,
      "velocity": 99,
      "chip": "ym2612"
    },
    {
      "channel": 5,
      "note": 54,
      "start": 19.6709,
      "duration": 1.2997,
      "velocity": 121,
      "chip": "ym2612"
    },
    {
      "channel": 1,
      "note": 90,
      "start": 19.7353,
      "duration": 2.934,
      "velocity": 119,
      "chip": "ym2612"
    },
    {
      "channel": 2,
      "note": 42,
      "start": 20.0466,
      "duration": 2.4159,
      "velocity": 99,
      "chip": "ym2612"
    },
    {
      "channel": 3,
      "note": 66,
      "start": 20.048,
      "duration": 0.3757,
      "velocity": 121,
      "chip": "ym2612"
    },
    {
      "channel": 4,
      "note": 61,
      "start": 20.4247,
      "duration": 0.6486,
      "velocity": 121,
      "chip": "ym2612"
    },
    {
      "channel": 3,
      "note": 66,
      "start": 20.7849,
      "duration": 0.3061,
      "velocity": 121,
      "chip": "ym2612"
    },
    {
      "channel": 5,
      "note": 56,
      "start": 21.1649,
      "duration": 1.2985,
      "velocity": 121,
      "chip": "ym2612"
    },
    {
      "channel": 3,
      "note": 65,
      "start": 21.5395,
      "duration": 0.3593,
      "velocity": 121,
      "chip": "ym2612"
    },
    {
      "channel": 4,
      "note": 61,
      "start": 21.8999,
      "duration": 0.5632,
      "velocity": 121,
      "chip": "ym2612"
    },
    {
      "channel": 3,
      "note": 65,
      "start": 22.2773,
      "duration": 0.7371,
      "velocity": 121,
      "chip": "ym2612"
    },
    {
      "channel": 2,
      "note": 49,
      "start": 22.6544,
      "duration": 0.6318,
      "velocity": 99,
      "chip": "ym2612"
    },
    {
      "channel": 5,
      "note": 56,
      "start": 22.6559,
      "duration": 0.631,
      "velocity": 121,
      "chip": "ym2612"
    },
    {
      "channel": 0,
      "note": 85,
      "start": 22.6688,
      "duration": 2.5038,
      "velocity": 119,
      "chip": "ym2612"
    },
    {
      "channel": 1,
      "note": 85,
      "start": 22.8062,
      "duration": 2.5036,
      "velocity": 119,
      "chip": "ym2612"
    },
    {
      "channel": 3,
      "note": 61,
      "start": 23.0144,
      "duration": 0.3784,
      "velocity": 121,
      "chip": "ym2612"
    },
    {
      "channel": 2,
      "note": 48,
      "start": 23.3924,
      "duration": 0.6494,
      "velocity": 99,
      "chip": "ym2612"
    },
    {
      "channel": 5,
      "note": 56,
      "start": 23.394,
      "duration": 0.6485,
      "velocity": 121,
      "chip": "ym2612"
    },
    {
      "channel": 3,
      "note": 60,
      "start": 23.7525,
      "duration": 0.4088,
      "velocity": 121,
      "chip": "ym2612"
    },
    {
      "channel": 2,
      "note": 46,
      "start": 24.1315,
      "duration": 1.2989,
      "velocity": 99,
      "chip": "ym2612"
    },
    {
      "channel": 5,
      "note": 58,
      "start": 24.1337,
      "duration": 1.2976,
      "velocity": 121,
      "chip": "ym2612"
    },
    {
      "channel": 3,
      "note": 65,
      "start": 24.5073,
      "duration": 0.3594,
      "velocity": 121,
      "chip": "ym2612"
    },
    {
      "channel": 4,
      "note": 61,
      "start": 24.8678,
      "duration": 0.5631,
      "velocity": 121,
      "chip": "ym2612"
    },
    {
      "channel": 3,
      "note": 65,
      "start": 25.245,
      "duration": 0.3776,
      "velocity": 120,
      "chip": "ym2612"
    },
    {
      "channel": 0,
      "note": 82,
      "start": 25.55,
      "duration": 4.82,
      "velocity": 119,
      "chip": "ym2612"
    },
    {
      "channel": 2,
      "note": 46,
      "start": 25.622,
      "duration": 0.6321,
      "velocity": 99,
      "chip": "ym2612"
    },
    {
      "channel": 5,
      "note": 58,
      "start": 25.6237,
      "duration": 0.6312,
      "velocity": 121,
      "chip": "ym2612"
    },
    {
      "channel": 1,
      "note": 82,
      "start": 25.6707,
      "duration": 4.8197,
      "velocity": 119,
      "chip": "ym2612"
    },
    {
      "channel": 3,
      "note": 65,
      "start": 25.9822,
      "duration": 0.3782,
      "velocity": 121,
      "chip": "ym2612"
    },
    {
      "channel": 2,
      "note": 44,
      "start": 26.3599,
      "duration": 0.6485,
      "velocity": 99,
      "chip": "ym2612"
    },
    {
      "channel": 5,
      "note": 56,
      "start": 26.3616,
      "duration": 0.4587,
      "velocity": 121,
      "chip": "ym2612"
    },
    {
      "channel": 3,
      "note": 65,
      "start": 26.7374,
      "duration": 0.3059,
      "velocity": 121,
      "chip": "ym2612"
    },
    {
      "channel": 2,
      "note": 39,
      "start": 27.0991,
      "duration": 1.113,
      "velocity": 99,
      "chip": "ym2612"
    },
    {
      "channel": 5,
      "note": 63,
      "start": 27.1006,
      "duration": 1.299,
      "velocity": 121,
      "chip": "ym2612"
    },
    {
      "channel": 4,
      "note": 67,
      "start": 27.1643,
      "duration": 0.5824,
      "velocity": 121,
      "chip": "ym2612"
    },
    {
      "channel": 3,
      "note": 70,
      "start": 27.2495,
      "duration": 0.5847,
      "velocity": 121,
      "chip": "ym2612"
    },
    {
      "channel": 4,
      "note": 67,
      "start": 27.8354,
      "duration": 0.378,
      "velocity": 121,
      "chip": "ym2612"
    },
    {
      "channel": 4,
      "note": 63,
      "start": 28.2135,
      "duration": 0.6827,
      "velocity": 121,
      "chip": "ym2612"
    },
    {
      "channel": 2,
      "note": 39,
      "start": 28.3989,
      "duration": 0.0851,
      "velocity": 99,
      "chip": "ym2612"
    },
    {
      "channel": 2,
      "note": 39,
      "start": 28.5903,
      "duration": 0.1165,
      "velocity": 98,
      "chip": "ym2612"
    },
    {
      "channel": 5,
      "note": 51,
      "start": 28.5918,
      "duration": 1.282,
      "velocity": 121,
      "chip": "ym2612"
    },
    {
      "channel": 2,
      "note": 39,
      "start": 28.9502,
      "duration": 0.9575,
      "velocity": 99,
      "chip": "ym2612"
    },
    {
      "channel": 3,
      "note": 58,
      "start": 28.9515,
      "duration": 0.3753,
      "velocity": 121,
      "chip": "ym2612"
    },
    {
      "channel": 4,
      "note": 63,
      "start": 29.3278,
      "duration": 0.6488,
      "velocity": 121,
      "chip": "ym2612"
    },
    {
      "channel": 3,
      "note": 58,
      "start": 29.7052,
      "duration": 0.3621,
      "velocity": 120,
      "chip": "ym2612"
    },
    {
      "channel": 2,
      "note": 42,
      "start": 30.0668,
      "duration": 1.112,
      "velocity": 99,
      "chip": "ym2612"
    },
    {
      "channel": 5,
      "note": 54,
      "start": 30.0685,
      "duration": 1.2983,
      "velocity": 121,
      "chip": "ym2612"
    },
    {
      "channel": 0,
      "note": 78,
      "start": 30.4046,
      "duration": 0.4979,
      "velocity": 119,
      "chip": "ym2612"
    },
    {
      "channel": 3,
      "note": 61,
      "start": 30.4425,
      "duration": 0.3593,
      "velocity": 121,
      "chip": "ym2612"
    },
    {
      "channel": 1,
      "note": 78,
      "start": 30.525,
      "duration": 0.4978,
      "velocity": 119,
      "chip": "ym2612"
    },
    {
      "channel": 4,
      "note": 58,
      "start": 30.8029,
      "duration": 0.9399,
      "velocity": 121,
      "chip": "ym2612"
    },
    {
      "channel": 0,
      "note": 85,
      "start": 30.9373,
      "duration": 0.0849,
      "velocity": 119,
      "chip": "ym2612"
    },
    {
      "channel": 1,
      "note": 85,
      "start": 31.0574,
      "duration": 0.0857,
      "velocity": 119,
      "chip": "ym2612"
    },
    {
      "channel": 0,
      "note": 87,
      "start": 31.1428,
      "duration": 0.4972,
      "velocity": 119,
      "chip": "ym2612"
    },
    {
      "channel": 3,
      "note": 61,
      "start": 31.1801,
      "duration": 0.4613,
      "velocity": 121,
      "chip": "ym2612"
    },
    {
      "channel": 1,
      "note": 87,
      "start": 31.2798,
      "duration": 0.4797,
      "velocity": 119,
      "chip": "ym2612"
    },
    {
      "channel": 2,
      "note": 42,
      "start": 31.3661,
      "duration": 0.0845,
      "velocity": 99,
      "chip": "ym2612"
    },
    {
      "channel": 2,
      "note": 42,
      "start": 31.5572,
      "duration": 0.2718,
      "velocity": 99,
      "chip": "ym2612"
    },
    {
      "channel": 5,
      "note": 54,
      "start": 31.5588,
      "duration": 1.2827,
      "velocity": 121,
      "chip": "ym2612"
    },
    {
      "channel": 0,
      "note": 94,
      "start": 31.7085,
      "duration": 2.5382,
      "velocity": 119,
      "chip": "ym2612"
    },
    {
      "channel": 1,
      "note": 94,
      "start": 31.8288,
      "duration": 2.5385,
      "velocity": 119,
      "chip": "ym2612"
    },
    {
      "channel": 2,
      "note": 42,
      "start": 31.9173,
      "duration": 0.9582,
      "velocity": 99,
      "chip": "ym2612"
    },
    {
      "channel": 3,
      "note": 66,
      "start": 31.9186,
      "duration": 0.4603,
      "velocity": 121,
      "chip": "ym2612"
    },
    {
      "channel": 4,
      "note": 61,
      "start": 32.2953,
      "duration": 0.8374,
      "velocity": 121,
      "chip": "ym2612"
    },
    {
      "channel": 3,
      "note": 66,
      "start": 32.6729,
      "duration": 0.3621,
      "velocity": 121,
      "chip": "ym2612"
    },
    {
      "channel": 2,
      "note": 37,
      "start": 33.0345,
      "duration": 1.1125,
      "velocity": 99,
      "chip": "ym2612"
    },
    {
      "channel": 5,
      "note": 61,
      "start": 33.0369,
      "duration": 1.2983,
      "velocity": 121,
      "chip": "ym2612"
    },
    {
      "channel": 3,
      "note": 68,
      "start": 33.4105,
      "duration": 0.3765,
      "velocity": 120,
      "chip": "ym2612"
    },
    {
      "channel": 4,
      "note": 65,
      "start": 33.7881,
      "duration": 0.9229,
      "velocity": 121,
      "chip": "ym2612"
    },
    {
      "channel": 3,
      "note": 68,
      "start": 34.1483,
      "duration": 0.3772,
      "velocity": 121,
      "chip": "ym2612"
    },
    {
      "channel": 2,
      "note": 37,
      "start": 34.3345,
      "duration": 0.0672,
      "velocity": 99,
      "chip": "ym2612"
    },
    {
      "channel": 0,
      "note": 90,
      "start": 34.4189,
      "duration": 1.3039,
      "velocity": 118,
      "chip": "ym2612"
    },
    {
      "channel": 2,
      "note": 37,
      "start": 34.525,
      "duration": 0.6499,
      "velocity": 98,
      "chip": "ym2612"
    },
    {
      "channel": 5,
      "note": 61,
      "start": 34.5267,
      "duration": 0.649,
      "velocity": 121,
      "chip": "ym2612"
    },
    {
      "channel": 1,
      "note": 90,
      "start": 34.5571,
      "duration": 1.2865,
      "velocity": 118,
      "chip": "ym2612"
    },
    {
      "channel": 3,
      "note": 68,
      "start": 34.8855,
      "duration": 0.4097,
      "velocity": 120,
      "chip": "ym2612"
    },
    {
      "channel": 2,
      "note": 36,
      "start": 35.2632,
      "duration": 0.6488,
      "velocity": 99,
      "chip": "ym2612"
    },
    {
      "channel": 5,
      "note": 60,
      "start": 35.2647,
      "duration": 0.648,
      "velocity": 121,
      "chip": "ym2612"
    },
    {
      "channel": 4,
      "note": 65,
      "start": 35.6406,
      "duration": 0.9233,
      "velocity": 121,
      "chip": "ym2612"
    },
    {
      "channel": 0,
      "note": 84,
      "start": 35.7574,
      "duration": 1.5085,
      "velocity": 119,
      "chip": "ym2612"
    },
    {
      "channel": 1,
      "note": 84,
      "start": 35.878,
      "duration": 1.5085,
      "velocity": 119,
      "chip": "ym2612"
    },
    {
      "channel": 2,
      "note": 34,
      "start": 36.0019,
      "duration": 1.1128,
      "velocity": 99,
      "chip": "ym2612"
    },
    {
      "channel": 5,
      "note": 58,
      "start": 36.0041,
      "duration": 1.2988,
      "velocity": 121,
      "chip": "ym2612"
    },
    {
      "channel": 3,
      "note": 65,
      "start": 36.3782,
      "duration": 0.3765,
      "velocity": 121,
      "chip": "ym2612"
    },
    {
      "channel": 4,
      "note": 61,
      "start": 36.7558,
      "duration": 0.7376,
      "velocity": 120,
      "chip": "ym2612"
    },
    {
      "channel": 3,
      "note": 65,
      "start": 37.116,
      "duration": 0.4596,
      "velocity": 121,
      "chip": "ym2612"
    },
    {
      "channel": 2,
      "note": 34,
      "start": 37.3022,
      "duration": 0.0847,
      "velocity": 99,
      "chip": "ym2612"
    },
    {
      "channel": 0,
      "note": 82,
      "start": 37.421,
      "duration": 0.9093,
      "velocity": 119,
      "chip": "ym2612"
    },
    {
      "channel": 2,
      "note": 34,
      "start": 37.4927,
      "duration": 0.1849,
      "velocity": 99,
      "chip": "ym2612"
    },
    {
      "channel": 5,
      "note": 58,
      "start": 37.4944,
      "duration": 1.4777,
      "velocity": 121,
      "chip": "ym2612"
    },
    {
      "channel": 1,
      "note": 82,
      "start": 37.5416,
      "duration": 0.91,
      "velocity": 119,
      "chip": "ym2612"
    },
    {
      "channel": 2,
      "note": 34,
      "start": 37.8703,
      "duration": 0.9402,
      "velocity": 99,
      "chip": "ym2612"
    },
    {
      "channel": 3,
      "note": 70,
      "start": 37.8716,
      "duration": 0.3584,
      "velocity": 121,
      "chip": "ym2612"
    },
    {
      "channel": 4,
      "note": 61,
      "start": 38.231,
      "duration": 0.8371,
      "velocity": 120,
      "chip": "ym2612"
    },
    {
      "channel": 0,
      "note": 82,
      "start": 38.4509,
      "duration": 7.1694,
      "velocity": 119,
      "chip": "ym2612"
    },
    {
      "channel": 1,
      "note": 82,
      "start": 38.5708,
      "duration": 7.1695,
      "velocity": 119,
      "chip": "ym2612"
    },
    {
      "channel": 3,
      "note": 65,
      "start": 38.6076,
      "duration": 0.3068,
      "velocity": 121,
      "chip": "ym2612"
    },
    {
      "channel": 2,
      "note": 39,
      "start": 38.97,
      "duration": 1.1125,
      "velocity": 99,
      "chip": "ym2612"
    },
    {
      "channel": 5,
      "note": 63,
      "start": 38.9721,
      "duration": 1.2983,
      "velocity": 121,
      "chip": "ym2612"
    },
    {
      "channel": 3,
      "note": 70,
      "start": 39.3458,
      "duration": 0.3767,
      "velocity": 120,
      "chip": "ym2612"
    },
    {
      "channel": 4,
      "note": 67,
      "start": 39.7235,
      "duration": 0.8032,
      "velocity": 120,
      "chip": "ym2612"
    },
    {
      "channel": 3,
      "note": 70,
      "start": 40.0838,
      "duration": 0.3779,
      "velocity": 121,
      "chip": "ym2612"
    },
    {
      "channel": 2,
      "note": 39,
      "start": 40.2698,
      "duration": 0.1017,
      "velocity": 99,
      "chip": "ym2612"
    },
    {
      "channel": 2,
      "note": 39,
      "start": 40.4612,
      "duration": 0.1165,
      "velocity": 98,
      "chip": "ym2612"
    },
    {
      "channel": 5,
      "note": 63,
      "start": 40.4628,
      "duration": 1.4773,
      "velocity": 121,
      "chip": "ym2612"
    },
    {
      "channel": 2,
      "note": 39,
      "start": 40.8382,
      "duration": 0.9403,
      "velocity": 99,
      "chip": "ym2612"
    },
    {
      "channel": 3,
      "note": 75,
      "start": 40.8394,
      "duration": 0.3582,
      "velocity": 121,
      "chip": "ym2612"
    },
    {
      "channel": 4,
      "note": 70,
      "start": 41.1987,
      "duration": 0.649,
      "velocity": 121,
      "chip": "ym2612"
    },
    {
      "channel": 3,
      "note": 75,
      "start": 41.5759,
      "duration": 0.2715,
      "velocity": 120,
      "chip": "ym2612"
    },
    {
      "channel": 2,
      "note": 42,
      "start": 41.9377,
      "duration": 1.1124,
      "velocity": 99,
      "chip": "ym2612"
    },
    {
      "channel": 4,
      "note": 70,
      "start": 41.9391,
      "duration": 0.752,
      "velocity": 121,
      "chip": "ym2612"
    },
    {
      "channel": 5,
      "note": 66,
      "start": 41.9402,
      "duration": 1.2981,
      "velocity": 121,
      "chip": "ym2612"
    },
    {
      "channel": 3,
      "note": 78,
      "start": 42.3137,
      "duration": 0.3765,
      "velocity": 121,
      "chip": "ym2612"
    },
    {
      "channel": 4,
      "note": 70,
      "start": 42.6912,
      "duration": 0.9228,
      "velocity": 121,
      "chip": "ym2612"
    },
    {
      "channel": 3,
      "note": 73,
      "start": 43.0515,
      "duration": 0.3776,
      "velocity": 120,
      "chip": "ym2612"
    },
    {
      "channel": 2,
      "note": 42,
      "start": 43.2376,
      "duration": 0.1016,
      "velocity": 99,
      "chip": "ym2612"
    },
    {
      "channel": 2,
      "note": 42,
      "start": 43.4285,
      "duration": 0.2709,
      "velocity": 99,
      "chip": "ym2612"
    },
    {
      "channel": 5,
      "note": 66,
      "start": 43.4301,
      "duration": 1.2996,
      "velocity": 121,
      "chip": "ym2612"
    },
    {
      "channel": 2,
      "note": 42,
      "start": 43.8059,
      "duration": 0.9575,
      "velocity": 99,
      "chip": "ym2612"
    },
    {
      "channel": 3,
      "note": 78,
      "start": 43.8072,
      "duration": 0.3581,
      "velocity": 121,
      "chip": "ym2612"
    },
    {
      "channel": 4,
      "note": 70,
      "start": 44.1665,
      "duration": 0.7574,
      "velocity": 121,
      "chip": "ym2612"
    },
    {
      "channel": 3,
      "note": 73,
      "start": 44.5441,
      "duration": 0.1852,
      "velocity": 121,
      "chip": "ym2612"
    },
    {
      "channel": 2,
      "note": 44,
      "start": 44.9226,
      "duration": 1.2835,
      "velocity": 99,
      "chip": "ym2612"
    },
    {
      "channel": 4,
      "note": 80,
      "start": 44.924,
      "duration": 0.6289,
      "velocity": 121,
      "chip": "ym2612"
    },
    {
      "channel": 5,
      "note": 56,
      "start": 44.9251,
      "duration": 1.2817,
      "velocity": 121,
      "chip": "ym2612"
    },
    {
      "channel": 3,
      "note": 60,
      "start": 45.2805,
      "duration": 0.3747,
      "velocity": 120,
      "chip": "ym2612"
    },
    {
      "channel": 4,
      "note": 63,
      "start": 45.6563,
      "duration": 0.8588,
      "velocity": 121,
      "chip": "ym2612"
    },
    {
      "channel": 0,
      "note": 94,
      "start": 45.8461,
      "duration": 0.4605,
      "velocity": 119,
      "chip": "ym2612"
    },
    {
      "channel": 1,
      "note": 94,
      "start": 45.9644,
      "duration": 0.4643,
      "velocity": 119,
      "chip": "ym2612"
    },
    {
      "channel": 3,
      "note": 68,
      "start": 46.0184,
      "duration": 1.6787,
      "velocity": 121,
      "chip": "ym2612"
    },
    {
      "channel": 0,
      "note": 92,
      "start": 46.3938,
      "duration": 0.8387,
      "velocity": 119,
      "chip": "ym2612"
    },
    {
      "channel": 2,
      "note": 44,
      "start": 46.3954,
      "duration": 0.7351,
      "velocity": 99,
      "chip": "ym2612"
    },
    {
      "channel": 5,
      "note": 56,
      "start": 46.3968,
      "duration": 1.495,
      "velocity": 121,
      "chip": "ym2612"
    },
    {
      "channel": 1,
      "note": 92,
      "start": 46.5136,
      "duration": 0.8395,
      "velocity": 119,
      "chip": "ym2612"
    },
    {
      "channel": 4,
      "note": 68,
      "start": 46.5151,
      "duration": 1.1823,
      "velocity": 121,
      "chip": "ym2612"
    },
    {
      "channel": 0,
      "note": 73,
      "start": 47.5419,
      "duration": 1.1668,
      "velocity": 119,
      "chip": "ym2612"
    },
    {
      "channel": 1,
      "note": 73,
      "start": 47.6622,
      "duration": 1.185,
      "velocity": 119,
      "chip": "ym2612"
    },
    {
      "channel": 2,
      "note": 49,
      "start": 47.8904,
      "duration": 1.1118,
      "velocity": 99,
      "chip": "ym2612"
    },
    {
      "channel": 5,
      "note": 61,
      "start": 47.8919,
      "duration": 0.4744,
      "velocity": 121,
      "chip": "ym2612"
    },
    {
      "channel": 4,
      "note": 65,
      "start": 47.9048,
      "duration": 1.4602,
      "velocity": 121,
      "chip": "ym2612"
    },
    {
      "channel": 3,
      "note": 68,
      "start": 47.938,
      "duration": 0.6877,
      "velocity": 121,
      "chip": "ym2612"
    },
    {
      "channel": 5,
      "note": 61,
      "start": 48.4701,
      "duration": 0.3443,
      "velocity": 120,
      "chip": "ym2612"
    },
    {
      "channel": 3,
      "note": 68,
      "start": 48.6593,
      "duration": 0.3434,
      "velocity": 121,
      "chip": "ym2612"
    },
    {
      "channel": 0,
      "note": 73,
      "start": 48.8466,
      "duration": 0.8932,
      "velocity": 119,
      "chip": "ym2612"
    },
    {
      "channel": 5,
      "note": 61,
      "start": 48.8492,
      "duration": 0.359,
      "velocity": 120,
      "chip": "ym2612"
    },
    {
      "channel": 1,
      "note": 73,
      "start": 48.9663,
      "duration": 0.8914,
      "velocity": 119,
      "chip": "ym2612"
    },
    {
      "channel": 3,
      "note": 68,
      "start": 49.0195,
      "duration": 0.3069,
      "velocity": 120,
      "chip": "ym2612"
    },
    {
      "channel": 2,
      "note": 49,
      "start": 49.1751,
      "duration": 0.0991,
      "velocity": 99,
      "chip": "ym2612"
    },
    {
      "channel": 5,
      "note": 61,
      "start": 49.2419,
      "duration": 0.6169,
      "velocity": 121,
      "chip": "ym2612"
    },
    {
      "channel": 2,
      "note": 49,
      "start": 49.3644,
      "duration": 0.1851,
      "velocity": 99,
      "chip": "ym2612"
    },
    {
      "channel": 4,
      "note": 65,
      "start": 49.3966,
      "duration": 0.4619,
      "velocity": 121,
      "chip": "ym2612"
    },
    {
      "channel": 3,
      "note": 73,
      "start": 49.4306,
      "duration": 0.6704,
      "velocity": 120,
      "chip": "ym2612"
    },
    {
      "channel": 2,
      "note": 49,
      "start": 49.7413,
      "duration": 0.958,
      "velocity": 99,
      "chip": "ym2612"
    },
    {
      "channel": 0,
      "note": 77,
      "start": 49.9268,
      "duration": 1.3885,
      "velocity": 119,
      "chip": "ym2612"
    },
    {
      "channel": 4,
      "note": 65,
      "start": 49.9296,
      "duration": 0.9289,
      "velocity": 120,
      "chip": "ym2612"
    },
    {
      "channel": 5,
      "note": 61,
      "start": 49.9448,
      "duration": 0.3447,
      "velocity": 121,
      "chip": "ym2612"
    },
    {
      "channel": 1,
      "note": 77,
      "start": 50.0467,
      "duration": 1.389,
      "velocity": 119,
      "chip": "ym2612"
    },
    {
      "channel": 3,
      "note": 73,
      "start": 50.134,
      "duration": 0.3449,
      "velocity": 121,
      "chip": "ym2612"
    },
    {
      "channel": 5,
      "note": 61,
      "start": 50.3232,
      "duration": 0.1884,
      "velocity": 121,
      "chip": "ym2612"
    },
    {
      "channel": 3,
      "note": 73,
      "start": 50.5113,
      "duration": 0.3469,
      "velocity": 120,
      "chip": "ym2612"
    },
    {
      "channel": 5,
      "note": 61,
      "start": 50.7009,
      "duration": 0.6503,
      "velocity": 121,
      "chip": "ym2612"
    },
    {
      "channel": 2,
      "note": 51,
      "start": 50.8577,
      "duration": 1.1136,
      "velocity": 99,
      "chip": "ym2612"
    },
    {
      "channel": 4,
      "note": 67,
      "start": 50.889,
      "duration": 1.0829,
      "velocity": 121,
      "chip": "ym2612"
    },
    {
      "channel": 3,
      "note": 70,
      "start": 50.906,
      "duration": 0.6868,
      "velocity": 121,
      "chip": "ym2612"
    },
    {
      "channel": 0,
      "note": 87,
      "start": 51.3675,
      "duration": 0.4976,
      "velocity": 119,
      "chip": "ym2612"
    },
    {
      "channel": 5,
      "note": 63,
      "start": 51.4376,
      "duration": 0.3442,
      "velocity": 120,
      "chip": "ym2612"
    },
    {
      "channel": 1,
      "note": 87,
      "start": 51.5049,
      "duration": 0.4803,
      "velocity": 119,
      "chip": "ym2612"
    },
    {
      "channel": 3,
      "note": 70,
      "start": 51.6265,
      "duration": 0.308,
      "velocity": 121,
      "chip": "ym2612"
    },
    {
      "channel": 5,
      "note": 63,
      "start": 51.8158,
      "duration": 0.3295,
      "velocity": 120,
      "chip": "ym2612"
    },
    {
      "channel": 0,
      "note": 85,
      "start": 51.9702,
      "duration": 0.3228,
      "velocity": 119,
      "chip": "ym2612"
    },
    {
      "channel": 3,
      "note": 70,
      "start": 51.9869,
      "duration": 0.3457,
      "velocity": 120,
      "chip": "ym2612"
    },
    {
      "channel": 4,
      "note": 67,
      "start": 51.988,
      "duration": 0.3449,
      "velocity": 121,
      "chip": "ym2612"
    },
    {
      "channel": 1,
      "note": 85,
      "start": 52.088,
      "duration": 0.3422,
      "velocity": 119,
      "chip": "ym2612"
    },
    {
      "channel": 2,
      "note": 51,
      "start": 52.1431,
      "duration": 0.0985,
      "velocity": 99,
      "chip": "ym2612"
    },
    {
      "channel": 5,
      "note": 63,
      "start": 52.175,
      "duration": 0.6854,
      "velocity": 121,
      "chip": "ym2612"
    },
    {
      "channel": 0,
      "note": 85,
      "start": 52.3308,
      "duration": 0.9066,
      "velocity": 119,
      "chip": "ym2612"
    },
    {
      "channel": 2,
      "note": 51,
      "start": 52.3321,
      "duration": 0.2698,
      "velocity": 99,
      "chip": "ym2612"
    },
    {
      "channel": 4,
      "note": 67,
      "start": 52.3636,
      "duration": 1.4629,
      "velocity": 120,
      "chip": "ym2612"
    },
    {
      "channel": 3,
      "note": 75,
      "start": 52.3978,
      "duration": 1.048,
      "velocity": 121,
      "chip": "ym2612"
    },
    {
      "channel": 1,
      "note": 85,
      "start": 52.4483,
      "duration": 0.9097,
      "velocity": 119,
      "chip": "ym2612"
    },
    {
      "channel": 2,
      "note": 51,
      "start": 52.7091,
      "duration": 0.9574,
      "velocity": 99,
      "chip": "ym2612"
    },
    {
      "channel": 5,
      "note": 63,
      "start": 52.9479,
      "duration": 0.3098,
      "velocity": 121,
      "chip": "ym2612"
    },
    {
      "channel": 5,
      "note": 63,
      "start": 53.2912,
      "duration": 0.1879,
      "velocity": 121,
      "chip": "ym2612"
    },
    {
      "channel": 0,
      "note": 82,
      "start": 53.4092,
      "duration": 0.224,
      "velocity": 119,
      "chip": "ym2612"
    },
    {
      "channel": 3,
      "note": 75,
      "start": 53.4788,
      "duration": 0.3475,
      "velocity": 120,
      "chip": "ym2612"
    },
    {
      "channel": 1,
      "note": 82,
      "start": 53.5462,
      "duration": 0.2048,
      "velocity": 119,
      "chip": "ym2612"
    },
    {
      "channel": 5,
      "note": 63,
      "start": 53.668,
      "duration": 0.6513,
      "velocity": 121,
      "chip": "ym2612"
    },
    {
      "channel": 0,
      "note": 82,
      "start": 53.7863,
      "duration": 1.1666,
      "velocity": 119,
      "chip": "ym2612"
    },
    {
      "channel": 2,
      "note": 42,
      "start": 53.8258,
      "duration": 1.1123,
      "velocity": 99,
      "chip": "ym2612"
    },
    {
      "channel": 4,
      "note": 65,
      "start": 53.856,
      "duration": 1.4443,
      "velocity": 121,
      "chip": "ym2612"
    },
    {
      "channel": 3,
      "note": 68,
      "start": 53.8731,
      "duration": 0.688,
      "velocity": 121,
      "chip": "ym2612"
    },
    {
      "channel": 1,
      "note": 82,
      "start": 53.907,
      "duration": 1.1827,
      "velocity": 119,
      "chip": "ym2612"
    },
    {
      "channel": 5,
      "note": 61,
      "start": 54.4059,
      "duration": 0.344,
      "velocity": 120,
      "chip": "ym2612"
    },
    {
      "channel": 3,
      "note": 68,
      "start": 54.5953,
      "duration": 0.3433,
      "velocity": 121,
      "chip": "ym2612"
    },
    {
      "channel": 5,
      "note": 61,
      "start": 54.7837,
      "duration": 0.3601,
      "velocity": 120,
      "chip": "ym2612"
    },
    {
      "channel": 3,
      "note": 68,
      "start": 54.955,
      "duration": 0.3234,
      "velocity": 120,
      "chip": "ym2612"
    },
    {
      "channel": 0,
      "note": 78,
      "start": 55.1097,
      "duration": 0.0995,
      "velocity": 118,
      "chip": "ym2612"
    },
    {
      "channel": 2,
      "note": 42,
      "start": 55.1112,
      "duration": 0.0987,
      "velocity": 99,
      "chip": "ym2612"
    },
    {
      "channel": 5,
      "note": 61,
      "start": 55.1774,
      "duration": 0.6171,
      "velocity": 121,
      "chip": "ym2612"
    },
    {
      "channel": 1,
      "note": 78,
      "start": 55.2445,
      "duration": 0.0854,
      "velocity": 118,
      "chip": "ym2612"
    },
    {
      "channel": 0,
      "note": 82,
      "start": 55.2985,
      "duration": 2.7586,
      "velocity": 119,
      "chip": "ym2612"
    },
    {
      "channel": 2,
      "note": 42,
      "start": 55.2998,
      "duration": 0.287,
      "velocity": 99,
      "chip": "ym2612"
    },
    {
      "channel": 4,
      "note": 65,
      "start": 55.3315,
      "duration": 0.4627,
      "velocity": 121,
      "chip": "ym2612"
    },
    {
      "channel": 3,
      "note": 73,
      "start": 55.3655,
      "duration": 0.688,
      "velocity": 120,
      "chip": "ym2612"
    },
    {
      "channel": 1,
      "note": 82,
      "start": 55.4331,
      "duration": 2.7445,
      "velocity": 119,
      "chip": "ym2612"
    },
    {
      "channel": 2,
      "note": 42,
      "start": 55.6768,
      "duration": 0.9579,
      "velocity": 99,
      "chip": "ym2612"
    },
    {
      "channel": 4,
      "note": 65,
      "start": 55.8641,
      "duration": 0.9305,
      "velocity": 120,
      "chip": "ym2612"
    },
    {
      "channel": 5,
      "note": 61,
      "start": 55.8976,
      "duration": 0.3281,
      "velocity": 121,
      "chip": "ym2612"
    },
    {
      "channel": 3,
      "note": 73,
      "start": 56.0698,
      "duration": 0.3445,
      "velocity": 121,
      "chip": "ym2612"
    },
    {
      "channel": 5,
      "note": 61,
      "start": 56.259,
      "duration": 0.1882,
      "velocity": 121,
      "chip": "ym2612"
    },
    {
      "channel": 3,
      "note": 73,
      "start": 56.4468,
      "duration": 0.3475,
      "velocity": 120,
      "chip": "ym2612"
    },
    {
      "channel": 5,
      "note": 61,
      "start": 56.6362,
      "duration": 0.6504,
      "velocity": 121,
      "chip": "ym2612"
    },
    {
      "channel": 2,
      "note": 44,
      "start": 56.7938,
      "duration": 1.1122,
      "velocity": 99,
      "chip": "ym2612"
    },
    {
      "channel": 4,
      "note": 72,
      "start": 56.8244,
      "duration": 1.4429,
      "velocity": 121,
      "chip": "ym2612"
    },
    {
      "channel": 3,
      "note": 75,
      "start": 56.8413,
      "duration": 0.6875,
      "velocity": 121,
      "chip": "ym2612"
    },
    {
      "channel": 5,
      "note": 68,
      "start": 57.3732,
      "duration": 0.3443,
      "velocity": 120,
      "chip": "ym2612"
    },
    {
      "channel": 3,
      "note": 75,
      "start": 57.5624,
      "duration": 0.3441,
      "velocity": 121,
      "chip": "ym2612"
    },
    {
      "channel": 5,
      "note": 68,
      "start": 57.7515,
      "duration": 0.36,
      "velocity": 120,
      "chip": "ym2612"
    },
    {
      "channel": 3,
      "note": 75,
      "start": 57.9392,
      "duration": 0.3083,
      "velocity": 120,
      "chip": "ym2612"
    },
    {
      "channel": 2,
      "note": 44,
      "start": 58.0934,
      "duration": 0.0845,
      "velocity": 99,
      "chip": "ym2612"
    },
    {
      "channel": 5,
      "note": 68,
      "start": 58.145,
      "duration": 0.6515,
      "velocity": 121,
      "chip": "ym2612"
    },
    {
      "channel": 0,
      "note": 92,
      "start": 58.2463,
      "duration": 0.7374,
      "velocity": 119,
      "chip": "ym2612"
    },
    {
      "channel": 2,
      "note": 44,
      "start": 58.2667,
      "duration": 0.1856,
      "velocity": 99,
      "chip": "ym2612"
    },
    {
      "channel": 4,
      "note": 68,
      "start": 58.2997,
      "duration": 1.4623,
      "velocity": 120,
      "chip": "ym2612"
    },
    {
      "channel": 3,
      "note": 72,
      "start": 58.3338,
      "duration": 1.0482,
      "velocity": 121,
      "chip": "ym2612"
    },
    {
      "channel": 1,
      "note": 92,
      "start": 58.3673,
      "duration": 0.7371,
      "velocity": 119,
      "chip": "ym2612"
    },
    {
      "channel": 2,
      "note": 44,
      "start": 58.6441,
      "duration": 2.2294,
      "velocity": 99,
      "chip": "ym2612"
    },
    {
      "channel": 5,
      "note": 63,
      "start": 58.8836,
      "duration": 0.3104,
      "velocity": 121,
      "chip": "ym2612"
    },
    {
      "channel": 0,
      "note": 90,
      "start": 59.0207,
      "duration": 5.0089,
      "velocity": 119,
      "chip": "ym2612"
    },
    {
      "channel": 1,
      "note": 90,
      "start": 59.1389,
      "duration": 5.008,
      "velocity": 119,
      "chip": "ym2612"
    },
    {
      "channel": 5,
      "note": 63,
      "start": 59.2259,
      "duration": 0.1892,
      "velocity": 121,
      "chip": "ym2612"
    },
    {
      "channel": 3,
      "note": 72,
      "start": 59.4147,
      "duration": 0.347,
      "velocity": 120,
      "chip": "ym2612"
    },
    {
      "channel": 5,
      "note": 63,
      "start": 59.6043,
      "duration": 0.65,
      "velocity": 121,
      "chip": "ym2612"
    },
    {
      "channel": 4,
      "note": 65,
      "start": 59.7928,
      "duration": 1.4425,
      "velocity": 121,
      "chip": "ym2612"
    },
    {
      "channel": 3,
      "note": 68,
      "start": 59.8266,
      "duration": 0.6699,
      "velocity": 121,
      "chip": "ym2612"
    },
    {
      "channel": 5,
      "note": 61,
      "start": 60.3409,
      "duration": 0.3444,
      "velocity": 120,
      "chip": "ym2612"
    },
    {
      "channel": 3,
      "note": 68,
      "start": 60.5301,
      "duration": 0.3439,
      "velocity": 121,
      "chip": "ym2612"
    },
    {
      "channel": 5,
      "note": 61,
      "start": 60.7191,
      "duration": 0.361,
      "velocity": 120,
      "chip": "ym2612"
    },
    {
      "channel": 3,
      "note": 68,
      "start": 60.907,
      "duration": 0.3075,
      "velocity": 120,
      "chip": "ym2612"
    },
    {
      "channel": 2,
      "note": 49,
      "start": 61.0631,
      "duration": 0.0828,
      "velocity": 99,
      "chip": "ym2612"
    },
    {
      "channel": 5,
      "note": 61,
      "start": 61.113,
      "duration": 0.6165,
      "velocity": 121,
      "chip": "ym2612"
    },
    {
      "channel": 2,
      "note": 49,
      "start": 61.2346,
      "duration": 0.1853,
      "velocity": 99,
      "chip": "ym2612"
    },
    {
      "channel": 4,
      "note": 65,
      "start": 61.2673,
      "duration": 0.4618,
      "velocity": 121,
      "chip": "ym2612"
    },
    {
      "channel": 3,
      "note": 73,
      "start": 61.3015,
      "duration": 0.6878,
      "velocity": 120,
      "chip": "ym2612"
    },
    {
      "channel": 2,
      "note": 49,
      "start": 61.6121,
      "duration": 0.9582,
      "velocity": 99,
      "chip": "ym2612"
    },
    {
      "channel": 4,
      "note": 65,
      "start": 61.7995,
      "duration": 0.9298,
      "velocity": 120,
      "chip": "ym2612"
    },
    {
      "channel": 5,
      "note": 61,
      "start": 61.8331,
      "duration": 0.3445,
      "velocity": 121,
      "chip": "ym2612"
    },
    {
      "channel": 3,
      "note": 73,
      "start": 62.0224,
      "duration": 0.3273,
      "velocity": 121,
      "chip": "ym2612"
    },
    {
      "channel": 5,
      "note": 61,
      "start": 62.1943,
      "duration": 0.1881,
      "velocity": 121,
      "chip": "ym2612"
    },
    {
      "channel": 3,
      "note": 73,
      "start": 62.3821,
      "duration": 0.347,
      "velocity": 120,
      "chip": "ym2612"
    },
    {
      "channel": 5,
      "note": 61,
      "start": 62.5717,
      "duration": 0.6503,
      "velocity": 121,
      "chip": "ym2612"
    },
    {
      "channel": 2,
      "note": 51,
      "start": 62.7285,
      "duration": 1.1128,
      "velocity": 99,
      "chip": "ym2612"
    },
    {
      "channel": 4,
      "note": 67,
      "start": 62.7603,
      "duration": 1.0817,
      "velocity": 121,
      "chip": "ym2612"
    },
    {
      "channel": 3,
      "note": 70,
      "start": 62.7939,
      "duration": 0.6702,
      "velocity": 121,
      "chip": "ym2612"
    },
    {
      "channel": 5,
      "note": 63,
      "start": 63.3085,
      "duration": 0.3445,
      "velocity": 120,
      "chip": "ym2612"
    },
    {
      "channel": 3,
      "note": 70,
      "start": 63.4978,
      "duration": 0.3081,
      "velocity": 121,
      "chip": "ym2612"
    },
    {
      "channel": 5,
      "note": 63,
      "start": 63.6873,
      "duration": 0.3459,
      "velocity": 120,
      "chip": "ym2612"
    },
    {
      "channel": 3,
      "note": 70,
      "start": 63.8751,
      "duration": 0.3451,
      "velocity": 120,
      "chip": "ym2612"
    },
    {
      "channel": 4,
      "note": 67,
      "start": 63.8762,
      "duration": 0.3444,
      "velocity": 121,
      "chip": "ym2612"
    },
    {
      "channel": 2,
      "note": 51,
      "start": 64.0312,
      "duration": 0.0823,
      "velocity": 99,
      "chip": "ym2612"
    },
    {
      "channel": 0,
      "note": 78,
      "start": 64.0623,
      "duration": 0.3589,
      "velocity": 119,
      "chip": "ym2612"
    },
    {
      "channel": 5,
      "note": 63,
      "start": 64.0644,
      "duration": 0.6663,
      "velocity": 121,
      "chip": "ym2612"
    },
    {
      "channel": 1,
      "note": 78,
      "start": 64.1819,
      "duration": 0.3595,
      "velocity": 119,
      "chip": "ym2612"
    },
    {
      "channel": 2,
      "note": 51,
      "start": 64.2197,
      "duration": 0.2702,
      "velocity": 99,
      "chip": "ym2612"
    },
    {
      "channel": 4,
      "note": 67,
      "start": 64.235,
      "duration": 4.3738,
      "velocity": 120,
      "chip": "ym2612"
    },
    {
      "channel": 3,
      "note": 75,
      "start": 64.2686,
      "duration": 1.0483,
      "velocity": 121,
      "chip": "ym2612"
    },
    {
      "channel": 0,
      "note": 78,
      "start": 64.4562,
      "duration": 2.7795,
      "velocity": 119,
      "chip": "ym2612"
    },
    {
      "channel": 1,
      "note": 78,
      "start": 64.5792,
      "duration": 2.7764,
      "velocity": 119,
      "chip": "ym2612"
    },
    {
      "channel": 2,
      "note": 51,
      "start": 64.5803,
      "duration": 0.9576,
      "velocity": 99,
      "chip": "ym2612"
    },
    {
      "channel": 5,
      "note": 63,
      "start": 64.8363,
      "duration": 0.3092,
      "velocity": 121,
      "chip": "ym2612"
    },
    {
      "channel": 5,
      "note": 63,
      "start": 65.162,
      "duration": 0.1882,
      "velocity": 121,
      "chip": "ym2612"
    },
    {
      "channel": 3,
      "note": 75,
      "start": 65.3498,
      "duration": 0.3478,
      "velocity": 120,
      "chip": "ym2612"
    },
    {
      "channel": 5,
      "note": 63,
      "start": 65.5394,
      "duration": 0.6503,
      "velocity": 121,
      "chip": "ym2612"
    },
    {
      "channel": 2,
      "note": 40,
      "start": 65.6971,
      "duration": 1.2983,
      "velocity": 99,
      "chip": "ym2612"
    },
    {
      "channel": 3,
      "note": 71,
      "start": 65.7279,
      "duration": 0.7018,
      "velocity": 120,
      "chip": "ym2612"
    },
    {
      "channel": 5,
      "note": 64,
      "start": 66.2763,
      "duration": 0.3449,
      "velocity": 120,
      "chip": "ym2612"
    },
    {
      "channel": 3,
      "note": 71,
      "start": 66.4668,
      "duration": 0.3408,
      "velocity": 121,
      "chip": "ym2612"
    },
    {
      "channel": 5,
      "note": 64,
      "start": 66.6545,
      "duration": 0.1915,
      "velocity": 120,
      "chip": "ym2612"
    },
    {
      "channel": 3,
      "note": 71,
      "start": 66.8449,
      "duration": 0.2024,
      "velocity": 120,
      "chip": "ym2612"
    },
    {
      "channel": 5,
      "note": 64,
      "start": 67.0484,
      "duration": 0.6864,
      "velocity": 121,
      "chip": "ym2612"
    },
    {
      "channel": 2,
      "note": 42,
      "start": 67.1851,
      "duration": 1.2864,
      "velocity": 99,
      "chip": "ym2612"
    },
    {
      "channel": 0,
      "note": 90,
      "start": 67.2704,
      "duration": 0.4277,
      "velocity": 119,
      "chip": "ym2612"
    },
    {
      "channel": 3,
      "note": 73,
      "start": 67.2722,
      "duration": 0.7038,
      "velocity": 120,
      "chip": "ym2612"
    },
    {
      "channel": 1,
      "note": 90,
      "start": 67.3905,
      "duration": 0.4281,
      "velocity": 119,
      "chip": "ym2612"
    },
    {
      "channel": 0,
      "note": 88,
      "start": 67.7333,
      "duration": 3.3782,
      "velocity": 119,
      "chip": "ym2612"
    },
    {
      "channel": 5,
      "note": 66,
      "start": 67.8205,
      "duration": 0.3446,
      "velocity": 121,
      "chip": "ym2612"
    },
    {
      "channel": 1,
      "note": 88,
      "start": 67.8534,
      "duration": 3.3795,
      "velocity": 119,
      "chip": "ym2612"
    },
    {
      "channel": 3,
      "note": 73,
      "start": 68.0088,
      "duration": 0.3789,
      "velocity": 121,
      "chip": "ym2612"
    },
    {
      "channel": 5,
      "note": 66,
      "start": 68.1988,
      "duration": 0.4104,
      "velocity": 121,
      "chip": "ym2612"
    },
    {
      "channel": 3,
      "note": 73,
      "start": 68.4209,
      "duration": 0.0336,
      "velocity": 121,
      "chip": "ym2612"
    },
    {
      "channel": 3,
      "note": 73,
      "start": 68.5411,
      "duration": 0.0334,
      "velocity": 120,
      "chip": "ym2612"
    },
    {
      "channel": 2,
      "note": 37,
      "start": 68.8168,
      "duration": 2.6045,
      "velocity": 99,
      "chip": "ym2612"
    },
    {
      "channel": 5,
      "note": 61,
      "start": 68.8184,
      "duration": 2.6542,
      "velocity": 120,
      "chip": "ym2612"
    },
    {
      "channel": 4,
      "note": 65,
      "start": 68.9354,
      "duration": 2.3488,
      "velocity": 121,
      "chip": "ym2612"
    },
    {
      "channel": 3,
      "note": 68,
      "start": 69.1242,
      "duration": 2.1096,
      "velocity": 120,
      "chip": "ym2612"
    },
    {
      "channel": 0,
      "note": 85,
      "start": 71.2322,
      "duration": 0.3602,
      "velocity": 119,
      "chip": "ym2612"
    },
    {
      "channel": 1,
      "note": 85,
      "start": 71.3524,
      "duration": 0.3768,
      "velocity": 119,
      "chip": "ym2612"
    },
    {
      "channel": 0,
      "note": 89,
      "start": 71.6318,
      "duration": 0.7326,
      "velocity": 119,
      "chip": "ym2612"
    },
    {
      "channel": 2,
      "note": 37,
      "start": 71.6331,
      "duration": 0.7313,
      "velocity": 99,
      "chip": "ym2612"
    },
    {
      "channel": 5,
      "note": 61,
      "start": 71.6346,
      "duration": 0.7298,
      "velocity": 121,
      "chip": "ym2612"
    },
    {
      "channel": 1,
      "note": 89,
      "start": 71.7472,
      "duration": 0.6172,
      "velocity": 119,
      "chip": "ym2612"
    },
    {
      "channel": 3,
      "note": 68,
      "start": 72.0076,
      "duration": 0.3568,
      "velocity": 120,
      "chip": "ym2612"
    }
  ]
}