{
  "track_name": "06 - Cave 1",
  "duration_sec": 36.921,
  "sample_rate": 44100,
  "note_count": 675,
  "unique_pitches": 46,
  "pitch_range": 72,
  "avg_note_duration": 0.1575,
  "reconstruction_stats": {
    "notes_reconstructed": 675,
    "keyon_events": 675,
    "keyoff_events": 675,
    "orphan_keyons": 0,
    "unique_pitches": 46,
    "pitch_range": 72,
    "avg_duration_sec": 0.1575
  },
  "metadata": {
    "source": "W\\Wonder Boy in Monster World\\06 - Cave 1.vgz"
  },
  "notes": [
    {
      "channel": 0,
      "note": 45,
      "start": 0.0521,
      "duration": 0.1982,
      "velocity": 89,
      "chip": "ym2612"
    },
    {
      "channel": 3,
      "note": 81,
      "start": 0.0545,
      "duration": 0.1959,
      "velocity": 96,
      "chip": "ym2612"
    },
    {
      "channel": 5,
      "note": 69,
      "start": 0.0574,
      "duration": 0.091,
      "velocity": 120,
      "chip": "ym2612"
    },
    {
      "channel": 0,
      "note": 45,
      "start": 0.4626,
      "duration": 0.1993,
      "velocity": 89,
      "chip": "ym2612"
    },
    {
      "channel": 1,
      "note": 64,
      "start": 0.4658,
      "duration": 0.1969,
      "velocity": 96,
      "chip": "ym2612"
    },
    {
      "channel": 5,
      "note": 45,
      "start": 0.4677,
      "duration": 0.1951,
      "velocity": 120,
      "chip": "ym2612"
    },
    {
      "channel": 0,
      "note": 48,
      "start": 0.8747,
      "duration": 0.3018,
      "velocity": 89,
      "chip": "ym2612"
    },
    {
      "channel": 3,
      "note": 69,
      "start": 0.8764,
      "duration": 0.3004,
      "velocity": 96,
      "chip": "ym2612"
    },
    {
      "channel": 5,
      "note": 23,
      "start": 0.8787,
      "duration": 0.1965,
      "velocity": 120,
      "chip": "ym2612"
    },
    {
      "channel": 0,
      "note": 51,
      "start": 1.1831,
      "duration": 0.0964,
      "velocity": 89,
      "chip": "ym2612"
    },
    {
      "channel": 1,
      "note": 72,
      "start": 1.1854,
      "duration": 0.0948,
      "velocity": 96,
      "chip": "ym2612"
    },
    {
      "channel": 5,
      "note": 39,
      "start": 1.1869,
      "duration": 0.0934,
      "velocity": 120,
      "chip": "ym2612"
    },
    {
      "channel": 0,
      "note": 48,
      "start": 1.4936,
      "duration": 0.4035,
      "velocity": 89,
      "chip": "ym2612"
    },
    {
      "channel": 3,
      "note": 75,
      "start": 1.4953,
      "duration": 0.4019,
      "velocity": 96,
      "chip": "ym2612"
    },
    {
      "channel": 5,
      "note": 23,
      "start": 1.4978,
      "duration": 0.0921,
      "velocity": 120,
      "chip": "ym2612"
    },
    {
      "channel": 0,
      "note": 45,
      "start": 1.9036,
      "duration": 0.0964,
      "velocity": 89,
      "chip": "ym2612"
    },
    {
      "channel": 1,
      "note": 72,
      "start": 1.9056,
      "duration": 0.0951,
      "velocity": 96,
      "chip": "ym2612"
    },
    {
      "channel": 5,
      "note": 39,
      "start": 1.9074,
      "duration": 0.0934,
      "velocity": 120,
      "chip": "ym2612"
    },
    {
      "channel": 0,
      "note": 45,
      "start": 2.1101,
      "duration": 0.0958,
      "velocity": 89,
      "chip": "ym2612"
    },
    {
      "channel": 3,
      "note": 69,
      "start": 2.1118,
      "duration": 0.0942,
      "velocity": 96,
      "chip": "ym2612"
    },
    {
      "channel": 5,
      "note": 46,
      "start": 2.1149,
      "duration": 0.0919,
      "velocity": 120,
      "chip": "ym2612"
    },
    {
      "channel": 0,
      "note": 55,
      "start": 2.2124,
      "duration": 0.0964,
      "velocity": 89,
      "chip": "ym2612"
    },
    {
      "channel": 1,
      "note": 69,
      "start": 2.2145,
      "duration": 0.0949,
      "velocity": 96,
      "chip": "ym2612"
    },
    {
      "channel": 0,
      "note": 54,
      "start": 2.3153,
      "duration": 0.0964,
      "velocity": 89,
      "chip": "ym2612"
    },
    {
      "channel": 3,
      "note": 79,
      "start": 2.317,
      "duration": 0.0949,
      "velocity": 96,
      "chip": "ym2612"
    },
    {
      "channel": 0,
      "note": 55,
      "start": 2.5217,
      "duration": 0.0959,
      "velocity": 89,
      "chip": "ym2612"
    },
    {
      "channel": 1,
      "note": 78,
      "start": 2.5239,
      "duration": 0.0943,
      "velocity": 96,
      "chip": "ym2612"
    },
    {
      "channel": 5,
      "note": 35,
      "start": 2.5267,
      "duration": 0.0917,
      "velocity": 120,
      "chip": "ym2612"
    },
    {
      "channel": 5,
      "note": 41,
      "start": 2.6257,
      "duration": 0.0964,
      "velocity": 120,
      "chip": "ym2612"
    },
    {
      "channel": 5,
      "note": 41,
      "start": 2.7286,
      "duration": 0.0964,
      "velocity": 120,
      "chip": "ym2612"
    },
    {
      "channel": 0,
      "note": 52,
      "start": 2.8299,
      "duration": 0.3022,
      "velocity": 89,
      "chip": "ym2612"
    },
    {
      "channel": 3,
      "note": 79,
      "start": 2.8316,
      "duration": 0.3008,
      "velocity": 96,
      "chip": "ym2612"
    },
    {
      "channel": 5,
      "note": 40,
      "start": 2.9344,
      "duration": 0.0964,
      "velocity": 120,
      "chip": "ym2612"
    },
    {
      "channel": 0,
      "note": 51,
      "start": 3.1387,
      "duration": 0.1994,
      "velocity": 89,
      "chip": "ym2612"
    },
    {
      "channel": 1,
      "note": 76,
      "start": 3.1409,
      "duration": 0.1978,
      "velocity": 96,
      "chip": "ym2612"
    },
    {
      "channel": 0,
      "note": 48,
      "start": 3.3472,
      "duration": 0.1967,
      "velocity": 89,
      "chip": "ym2612"
    },
    {
      "channel": 3,
      "note": 75,
      "start": 3.3488,
      "duration": 0.1952,
      "velocity": 96,
      "chip": "ym2612"
    },
    {
      "channel": 5,
      "note": 39,
      "start": 3.3512,
      "duration": 0.0914,
      "velocity": 120,
      "chip": "ym2612"
    },
    {
      "channel": 0,
      "note": 45,
      "start": 3.7577,
      "duration": 0.1979,
      "velocity": 89,
      "chip": "ym2612"
    },
    {
      "channel": 1,
      "note": 72,
      "start": 3.76,
      "duration": 0.1963,
      "velocity": 96,
      "chip": "ym2612"
    },
    {
      "channel": 5,
      "note": 45,
      "start": 3.7615,
      "duration": 0.195,
      "velocity": 120,
      "chip": "ym2612"
    },
    {
      "channel": 0,
      "note": 48,
      "start": 4.169,
      "duration": 0.3013,
      "velocity": 89,
      "chip": "ym2612"
    },
    {
      "channel": 3,
      "note": 69,
      "start": 4.1707,
      "duration": 0.2997,
      "velocity": 96,
      "chip": "ym2612"
    },
    {
      "channel": 5,
      "note": 23,
      "start": 4.173,
      "duration": 0.1959,
      "velocity": 120,
      "chip": "ym2612"
    },
    {
      "channel": 0,
      "note": 51,
      "start": 4.4778,
      "duration": 0.0954,
      "velocity": 89,
      "chip": "ym2612"
    },
    {
      "channel": 1,
      "note": 72,
      "start": 4.48,
      "duration": 0.0938,
      "velocity": 96,
      "chip": "ym2612"
    },
    {
      "channel": 5,
      "note": 39,
      "start": 4.4817,
      "duration": 0.0924,
      "velocity": 120,
      "chip": "ym2612"
    },
    {
      "channel": 0,
      "note": 48,
      "start": 4.7883,
      "duration": 0.4024,
      "velocity": 89,
      "chip": "ym2612"
    },
    {
      "channel": 3,
      "note": 75,
      "start": 4.79,
      "duration": 0.4008,
      "velocity": 96,
      "chip": "ym2612"
    },
    {
      "channel": 5,
      "note": 23,
      "start": 4.7925,
      "duration": 0.091,
      "velocity": 120,
      "chip": "ym2612"
    },
    {
      "channel": 0,
      "note": 45,
      "start": 5.1983,
      "duration": 0.0954,
      "velocity": 89,
      "chip": "ym2612"
    },
    {
      "channel": 1,
      "note": 72,
      "start": 5.2003,
      "duration": 0.094,
      "velocity": 96,
      "chip": "ym2612"
    },
    {
      "channel": 5,
      "note": 39,
      "start": 5.2021,
      "duration": 0.0925,
      "velocity": 120,
      "chip": "ym2612"
    },
    {
      "channel": 0,
      "note": 45,
      "start": 5.4048,
      "duration": 0.0946,
      "velocity": 89,
      "chip": "ym2612"
    },
    {
      "channel": 3,
      "note": 69,
      "start": 5.4065,
      "duration": 0.0931,
      "velocity": 96,
      "chip": "ym2612"
    },
    {
      "channel": 5,
      "note": 46,
      "start": 5.4097,
      "duration": 0.0907,
      "velocity": 120,
      "chip": "ym2612"
    },
    {
      "channel": 0,
      "note": 55,
      "start": 5.5061,
      "duration": 0.0963,
      "velocity": 89,
      "chip": "ym2612"
    },
    {
      "channel": 1,
      "note": 69,
      "start": 5.5082,
      "duration": 0.0948,
      "velocity": 96,
      "chip": "ym2612"
    },
    {
      "channel": 0,
      "note": 54,
      "start": 5.6089,
      "duration": 0.0964,
      "velocity": 89,
      "chip": "ym2612"
    },
    {
      "channel": 3,
      "note": 79,
      "start": 5.6106,
      "duration": 0.0949,
      "velocity": 96,
      "chip": "ym2612"
    },
    {
      "channel": 0,
      "note": 55,
      "start": 5.8159,
      "duration": 0.0953,
      "velocity": 89,
      "chip": "ym2612"
    },
    {
      "channel": 1,
      "note": 78,
      "start": 5.8182,
      "duration": 0.0937,
      "velocity": 96,
      "chip": "ym2612"
    },
    {
      "channel": 5,
      "note": 35,
      "start": 5.821,
      "duration": 0.0912,
      "velocity": 120,
      "chip": "ym2612"
    },
    {
      "channel": 5,
      "note": 41,
      "start": 5.9193,
      "duration": 0.0964,
      "velocity": 120,
      "chip": "ym2612"
    },
    {
      "channel": 5,
      "note": 41,
      "start": 6.0222,
      "duration": 0.0964,
      "velocity": 120,
      "chip": "ym2612"
    },
    {
      "channel": 0,
      "note": 52,
      "start": 6.1239,
      "duration": 0.3019,
      "velocity": 89,
      "chip": "ym2612"
    },
    {
      "channel": 3,
      "note": 79,
      "start": 6.1256,
      "duration": 0.3004,
      "velocity": 96,
      "chip": "ym2612"
    },
    {
      "channel": 5,
      "note": 40,
      "start": 6.2281,
      "duration": 0.0964,
      "velocity": 120,
      "chip": "ym2612"
    },
    {
      "channel": 0,
      "note": 51,
      "start": 6.4324,
      "duration": 0.1992,
      "velocity": 89,
      "chip": "ym2612"
    },
    {
      "channel": 1,
      "note": 76,
      "start": 6.4346,
      "duration": 0.1978,
      "velocity": 96,
      "chip": "ym2612"
    },
    {
      "channel": 0,
      "note": 48,
      "start": 6.6415,
      "duration": 0.2017,
      "velocity": 89,
      "chip": "ym2612"
    },
    {
      "channel": 1,
      "note": 72,
      "start": 6.6446,
      "duration": 0.8173,
      "velocity": 103,
      "chip": "ym2612"
    },
    {
      "channel": 4,
      "note": 73,
      "start": 6.6474,
      "duration": 0.8146,
      "velocity": 103,
      "chip": "ym2612"
    },
    {
      "channel": 5,
      "note": 39,
      "start": 6.6494,
      "duration": 0.4022,
      "velocity": 120,
      "chip": "ym2612"
    },
    {
      "channel": 0,
      "note": 45,
      "start": 7.0566,
      "duration": 0.1983,
      "velocity": 89,
      "chip": "ym2612"
    },
    {
      "channel": 5,
      "note": 23,
      "start": 7.0598,
      "duration": 0.3003,
      "velocity": 120,
      "chip": "ym2612"
    },
    {
      "channel": 5,
      "note": 45,
      "start": 7.3664,
      "duration": 0.0958,
      "velocity": 120,
      "chip": "ym2612"
    },
    {
      "channel": 0,
      "note": 48,
      "start": 7.4687,
      "duration": 0.3009,
      "velocity": 89,
      "chip": "ym2612"
    },
    {
      "channel": 1,
      "note": 88,
      "start": 7.471,
      "duration": 0.8142,
      "velocity": 103,
      "chip": "ym2612"
    },
    {
      "channel": 4,
      "note": 84,
      "start": 7.4727,
      "duration": 0.8127,
      "velocity": 103,
      "chip": "ym2612"
    },
    {
      "channel": 5,
      "note": 25,
      "start": 7.4744,
      "duration": 0.4002,
      "velocity": 120,
      "chip": "ym2612"
    },
    {
      "channel": 0,
      "note": 51,
      "start": 7.7766,
      "duration": 0.0959,
      "velocity": 89,
      "chip": "ym2612"
    },
    {
      "channel": 5,
      "note": 23,
      "start": 7.8819,
      "duration": 0.0956,
      "velocity": 120,
      "chip": "ym2612"
    },
    {
      "channel": 0,
      "note": 48,
      "start": 8.086,
      "duration": 0.4041,
      "velocity": 89,
      "chip": "ym2612"
    },
    {
      "channel": 5,
      "note": 35,
      "start": 8.0901,
      "duration": 0.1954,
      "velocity": 120,
      "chip": "ym2612"
    },
    {
      "channel": 1,
      "note": 83,
      "start": 8.2925,
      "duration": 0.4044,
      "velocity": 103,
      "chip": "ym2612"
    },
    {
      "channel": 4,
      "note": 87,
      "start": 8.2942,
      "duration": 0.4029,
      "velocity": 103,
      "chip": "ym2612"
    },
    {
      "channel": 0,
      "note": 45,
      "start": 8.4973,
      "duration": 0.0957,
      "velocity": 89,
      "chip": "ym2612"
    },
    {
      "channel": 5,
      "note": 39,
      "start": 8.5003,
      "duration": 0.1969,
      "velocity": 120,
      "chip": "ym2612"
    },
    {
      "channel": 0,
      "note": 45,
      "start": 8.7044,
      "duration": 0.0945,
      "velocity": 89,
      "chip": "ym2612"
    },
    {
      "channel": 1,
      "note": 84,
      "start": 8.7066,
      "duration": 0.402,
      "velocity": 103,
      "chip": "ym2612"
    },
    {
      "channel": 4,
      "note": 88,
      "start": 8.7083,
      "duration": 0.4005,
      "velocity": 103,
      "chip": "ym2612"
    },
    {
      "channel": 5,
      "note": 40,
      "start": 8.71,
      "duration": 0.399,
      "velocity": 120,
      "chip": "ym2612"
    },
    {
      "channel": 0,
      "note": 55,
      "start": 8.8054,
      "duration": 0.0964,
      "velocity": 89,
      "chip": "ym2612"
    },
    {
      "channel": 0,
      "note": 54,
      "start": 8.9083,
      "duration": 0.0964,
      "velocity": 89,
      "chip": "ym2612"
    },
    {
      "channel": 0,
      "note": 55,
      "start": 9.1164,
      "duration": 0.0941,
      "velocity": 89,
      "chip": "ym2612"
    },
    {
      "channel": 1,
      "note": 83,
      "start": 9.1187,
      "duration": 0.4016,
      "velocity": 103,
      "chip": "ym2612"
    },
    {
      "channel": 4,
      "note": 87,
      "start": 9.1204,
      "duration": 0.4001,
      "velocity": 103,
      "chip": "ym2612"
    },
    {
      "channel": 5,
      "note": 39,
      "start": 9.1222,
      "duration": 0.0901,
      "velocity": 120,
      "chip": "ym2612"
    },
    {
      "channel": 5,
      "note": 41,
      "start": 9.219,
      "duration": 0.0965,
      "velocity": 120,
      "chip": "ym2612"
    },
    {
      "channel": 5,
      "note": 41,
      "start": 9.322,
      "duration": 0.1987,
      "velocity": 120,
      "chip": "ym2612"
    },
    {
      "channel": 0,
      "note": 52,
      "start": 9.4238,
      "duration": 0.3014,
      "velocity": 89,
      "chip": "ym2612"
    },
    {
      "channel": 1,
      "note": 84,
      "start": 9.5278,
      "duration": 0.4039,
      "velocity": 103,
      "chip": "ym2612"
    },
    {
      "channel": 4,
      "note": 88,
      "start": 9.5295,
      "duration": 0.4023,
      "velocity": 103,
      "chip": "ym2612"
    },
    {
      "channel": 5,
      "note": 40,
      "start": 9.5322,
      "duration": 0.0921,
      "velocity": 120,
      "chip": "ym2612"
    },
    {
      "channel": 0,
      "note": 51,
      "start": 9.7317,
      "duration": 0.1993,
      "velocity": 89,
      "chip": "ym2612"
    },
    {
      "channel": 0,
      "note": 48,
      "start": 9.9409,
      "duration": 0.2017,
      "velocity": 89,
      "chip": "ym2612"
    },
    {
      "channel": 1,
      "note": 88,
      "start": 9.943,
      "duration": 0.0976,
      "velocity": 103,
      "chip": "ym2612"
    },
    {
      "channel": 4,
      "note": 91,
      "start": 9.9448,
      "duration": 0.0961,
      "velocity": 103,
      "chip": "ym2612"
    },
    {
      "channel": 5,
      "note": 35,
      "start": 9.9474,
      "duration": 0.403,
      "velocity": 120,
      "chip": "ym2612"
    },
    {
      "channel": 1,
      "note": 84,
      "start": 10.0477,
      "duration": 0.0956,
      "velocity": 103,
      "chip": "ym2612"
    },
    {
      "channel": 4,
      "note": 88,
      "start": 10.0494,
      "duration": 0.094,
      "velocity": 103,
      "chip": "ym2612"
    },
    {
      "channel": 1,
      "note": 84,
      "start": 10.1504,
      "duration": 0.0962,
      "velocity": 103,
      "chip": "ym2612"
    },
    {
      "channel": 4,
      "note": 88,
      "start": 10.1521,
      "duration": 0.0947,
      "velocity": 103,
      "chip": "ym2612"
    },
    {
      "channel": 0,
      "note": 45,
      "start": 10.3555,
      "duration": 0.1988,
      "velocity": 89,
      "chip": "ym2612"
    },
    {
      "channel": 5,
      "note": 23,
      "start": 10.3588,
      "duration": 0.2998,
      "velocity": 120,
      "chip": "ym2612"
    },
    {
      "channel": 1,
      "note": 84,
      "start": 10.5627,
      "duration": 0.0955,
      "velocity": 103,
      "chip": "ym2612"
    },
    {
      "channel": 4,
      "note": 88,
      "start": 10.5644,
      "duration": 0.0939,
      "velocity": 103,
      "chip": "ym2612"
    },
    {
      "channel": 1,
      "note": 84,
      "start": 10.6657,
      "duration": 0.0955,
      "velocity": 103,
      "chip": "ym2612"
    },
    {
      "channel": 4,
      "note": 88,
      "start": 10.6674,
      "duration": 0.094,
      "velocity": 103,
      "chip": "ym2612"
    },
    {
      "channel": 5,
      "note": 45,
      "start": 10.6692,
      "duration": 0.0924,
      "velocity": 120,
      "chip": "ym2612"
    },
    {
      "channel": 0,
      "note": 48,
      "start": 10.7681,
      "duration": 0.3008,
      "velocity": 89,
      "chip": "ym2612"
    },
    {
      "channel": 1,
      "note": 84,
      "start": 10.7703,
      "duration": 0.0938,
      "velocity": 103,
      "chip": "ym2612"
    },
    {
      "channel": 4,
      "note": 88,
      "start": 10.772,
      "duration": 0.0922,
      "velocity": 103,
      "chip": "ym2612"
    },
    {
      "channel": 5,
      "note": 25,
      "start": 10.7738,
      "duration": 0.3991,
      "velocity": 120,
      "chip": "ym2612"
    },
    {
      "channel": 3,
      "note": 75,
      "start": 10.9741,
      "duration": 0.0438,
      "velocity": 96,
      "chip": "ym2612"
    },
    {
      "channel": 1,
      "note": 84,
      "start": 10.9769,
      "duration": 0.0413,
      "velocity": 96,
      "chip": "ym2612"
    },
    {
      "channel": 3,
      "note": 72,
      "start": 11.0245,
      "duration": 0.0446,
      "velocity": 96,
      "chip": "ym2612"
    },
    {
      "channel": 1,
      "note": 77,
      "start": 11.0263,
      "duration": 0.0429,
      "velocity": 96,
      "chip": "ym2612"
    },
    {
      "channel": 0,
      "note": 51,
      "start": 11.0766,
      "duration": 0.0953,
      "velocity": 89,
      "chip": "ym2612"
    },
    {
      "channel": 3,
      "note": 73,
      "start": 11.0782,
      "duration": 0.0427,
      "velocity": 96,
      "chip": "ym2612"
    },
    {
      "channel": 1,
      "note": 78,
      "start": 11.08,
      "duration": 0.041,
      "velocity": 96,
      "chip": "ym2612"
    },
    {
      "channel": 3,
      "note": 74,
      "start": 11.1275,
      "duration": 0.0446,
      "velocity": 96,
      "chip": "ym2612"
    },
    {
      "channel": 1,
      "note": 79,
      "start": 11.1292,
      "duration": 0.0429,
      "velocity": 96,
      "chip": "ym2612"
    },
    {
      "channel": 3,
      "note": 75,
      "start": 11.1798,
      "duration": 0.0955,
      "velocity": 96,
      "chip": "ym2612"
    },
    {
      "channel": 1,
      "note": 80,
      "start": 11.1816,
      "duration": 0.0939,
      "velocity": 96,
      "chip": "ym2612"
    },
    {
      "channel": 5,
      "note": 23,
      "start": 11.185,
      "duration": 0.0911,
      "velocity": 120,
      "chip": "ym2612"
    },
    {
      "channel": 3,
      "note": 76,
      "start": 11.2818,
      "duration": 0.0964,
      "velocity": 96,
      "chip": "ym2612"
    },
    {
      "channel": 1,
      "note": 81,
      "start": 11.2835,
      "duration": 0.0949,
      "velocity": 96,
      "chip": "ym2612"
    },
    {
      "channel": 0,
      "note": 48,
      "start": 11.3865,
      "duration": 0.4087,
      "velocity": 89,
      "chip": "ym2612"
    },
    {
      "channel": 3,
      "note": 79,
      "start": 11.3882,
      "duration": 0.0987,
      "velocity": 96,
      "chip": "ym2612"
    },
    {
      "channel": 1,
      "note": 84,
      "start": 11.3899,
      "duration": 0.0971,
      "velocity": 96,
      "chip": "ym2612"
    },
    {
      "channel": 5,
      "note": 35,
      "start": 11.393,
      "duration": 0.1976,
      "velocity": 120,
      "chip": "ym2612"
    },
    {
      "channel": 3,
      "note": 74,
      "start": 11.4938,
      "duration": 0.096,
      "velocity": 96,
      "chip": "ym2612"
    },
    {
      "channel": 1,
      "note": 79,
      "start": 11.4955,
      "duration": 0.0945,
      "velocity": 96,
      "chip": "ym2612"
    },
    {
      "channel": 1,
      "note": 76,
      "start": 11.5984,
      "duration": 0.0948,
      "velocity": 103,
      "chip": "ym2612"
    },
    {
      "channel": 4,
      "note": 88,
      "start": 11.6004,
      "duration": 0.093,
      "velocity": 103,
      "chip": "ym2612"
    },
    {
      "channel": 1,
      "note": 88,
      "start": 11.7002,
      "duration": 0.0957,
      "velocity": 103,
      "chip": "ym2612"
    },
    {
      "channel": 4,
      "note": 84,
      "start": 11.7019,
      "duration": 0.0941,
      "velocity": 103,
      "chip": "ym2612"
    },
    {
      "channel": 0,
      "note": 45,
      "start": 11.8036,
      "duration": 0.0945,
      "velocity": 89,
      "chip": "ym2612"
    },
    {
      "channel": 1,
      "note": 84,
      "start": 11.8056,
      "duration": 0.0931,
      "velocity": 103,
      "chip": "ym2612"
    },
    {
      "channel": 4,
      "note": 88,
      "start": 11.8073,
      "duration": 0.0915,
      "velocity": 103,
      "chip": "ym2612"
    },
    {
      "channel": 5,
      "note": 39,
      "start": 11.8091,
      "duration": 0.1938,
      "velocity": 120,
      "chip": "ym2612"
    },
    {
      "channel": 0,
      "note": 45,
      "start": 12.0081,
      "duration": 0.0958,
      "velocity": 89,
      "chip": "ym2612"
    },
    {
      "channel": 5,
      "note": 40,
      "start": 12.0114,
      "duration": 0.4027,
      "velocity": 120,
      "chip": "ym2612"
    },
    {
      "channel": 0,
      "note": 55,
      "start": 12.1105,
      "duration": 0.0964,
      "velocity": 89,
      "chip": "ym2612"
    },
    {
      "channel": 0,
      "note": 54,
      "start": 12.2151,
      "duration": 0.0947,
      "velocity": 89,
      "chip": "ym2612"
    },
    {
      "channel": 1,
      "note": 84,
      "start": 12.2172,
      "duration": 0.0932,
      "velocity": 103,
      "chip": "ym2612"
    },
    {
      "channel": 4,
      "note": 88,
      "start": 12.2189,
      "duration": 0.0917,
      "velocity": 103,
      "chip": "ym2612"
    },
    {
      "channel": 1,
      "note": 84,
      "start": 12.3175,
      "duration": 0.0962,
      "velocity": 103,
      "chip": "ym2612"
    },
    {
      "channel": 4,
      "note": 88,
      "start": 12.3193,
      "duration": 0.0946,
      "velocity": 103,
      "chip": "ym2612"
    },
    {
      "channel": 0,
      "note": 55,
      "start": 12.4215,
      "duration": 0.0941,
      "velocity": 89,
      "chip": "ym2612"
    },
    {
      "channel": 1,
      "note": 84,
      "start": 12.4238,
      "duration": 0.0926,
      "velocity": 103,
      "chip": "ym2612"
    },
    {
      "channel": 4,
      "note": 88,
      "start": 12.4255,
      "duration": 0.091,
      "velocity": 103,
      "chip": "ym2612"
    },
    {
      "channel": 5,
      "note": 39,
      "start": 12.4273,
      "duration": 0.0894,
      "velocity": 120,
      "chip": "ym2612"
    },
    {
      "channel": 5,
      "note": 41,
      "start": 12.5243,
      "duration": 0.0963,
      "velocity": 120,
      "chip": "ym2612"
    },
    {
      "channel": 3,
      "note": 72,
      "start": 12.6271,
      "duration": 0.0434,
      "velocity": 96,
      "chip": "ym2612"
    },
    {
      "channel": 1,
      "note": 84,
      "start": 12.6295,
      "duration": 0.0412,
      "velocity": 96,
      "chip": "ym2612"
    },
    {
      "channel": 5,
      "note": 41,
      "start": 12.6319,
      "duration": 0.1938,
      "velocity": 120,
      "chip": "ym2612"
    },
    {
      "channel": 3,
      "note": 72,
      "start": 12.6771,
      "duration": 0.0449,
      "velocity": 96,
      "chip": "ym2612"
    },
    {
      "channel": 1,
      "note": 77,
      "start": 12.6788,
      "duration": 0.0433,
      "velocity": 96,
      "chip": "ym2612"
    },
    {
      "channel": 0,
      "note": 52,
      "start": 12.7294,
      "duration": 0.3009,
      "velocity": 89,
      "chip": "ym2612"
    },
    {
      "channel": 3,
      "note": 73,
      "start": 12.7311,
      "duration": 0.0424,
      "velocity": 96,
      "chip": "ym2612"
    },
    {
      "channel": 1,
      "note": 78,
      "start": 12.7329,
      "duration": 0.0407,
      "velocity": 96,
      "chip": "ym2612"
    },
    {
      "channel": 3,
      "note": 74,
      "start": 12.78,
      "duration": 0.0449,
      "velocity": 96,
      "chip": "ym2612"
    },
    {
      "channel": 1,
      "note": 79,
      "start": 12.7818,
      "duration": 0.0433,
      "velocity": 96,
      "chip": "ym2612"
    },
    {
      "channel": 3,
      "note": 75,
      "start": 12.8325,
      "duration": 0.0954,
      "velocity": 96,
      "chip": "ym2612"
    },
    {
      "channel": 1,
      "note": 80,
      "start": 12.8343,
      "duration": 0.0937,
      "velocity": 96,
      "chip": "ym2612"
    },
    {
      "channel": 5,
      "note": 40,
      "start": 12.8377,
      "duration": 0.091,
      "velocity": 120,
      "chip": "ym2612"
    },
    {
      "channel": 3,
      "note": 76,
      "start": 12.9344,
      "duration": 0.0961,
      "velocity": 96,
      "chip": "ym2612"
    },
    {
      "channel": 1,
      "note": 81,
      "start": 12.9361,
      "duration": 0.0945,
      "velocity": 96,
      "chip": "ym2612"
    },
    {
      "channel": 0,
      "note": 51,
      "start": 13.0377,
      "duration": 0.1984,
      "velocity": 89,
      "chip": "ym2612"
    },
    {
      "channel": 3,
      "note": 79,
      "start": 13.0393,
      "duration": 0.197,
      "velocity": 96,
      "chip": "ym2612"
    },
    {
      "channel": 1,
      "note": 84,
      "start": 13.0412,
      "duration": 0.1952,
      "velocity": 96,
      "chip": "ym2612"
    },
    {
      "channel": 0,
      "note": 48,
      "start": 13.2459,
      "duration": 0.2018,
      "velocity": 89,
      "chip": "ym2612"
    },
    {
      "channel": 1,
      "note": 79,
      "start": 13.249,
      "duration": 0.8173,
      "velocity": 103,
      "chip": "ym2612"
    },
    {
      "channel": 4,
      "note": 88,
      "start": 13.2508,
      "duration": 0.8156,
      "velocity": 103,
      "chip": "ym2612"
    },
    {
      "channel": 5,
      "note": 35,
      "start": 13.2535,
      "duration": 0.4025,
      "velocity": 120,
      "chip": "ym2612"
    },
    {
      "channel": 0,
      "note": 47,
      "start": 13.6611,
      "duration": 0.1983,
      "velocity": 89,
      "chip": "ym2612"
    },
    {
      "channel": 5,
      "note": 23,
      "start": 13.6642,
      "duration": 0.3003,
      "velocity": 120,
      "chip": "ym2612"
    },
    {
      "channel": 5,
      "note": 45,
      "start": 13.9708,
      "duration": 0.0958,
      "velocity": 120,
      "chip": "ym2612"
    },
    {
      "channel": 0,
      "note": 48,
      "start": 14.0732,
      "duration": 0.3009,
      "velocity": 89,
      "chip": "ym2612"
    },
    {
      "channel": 1,
      "note": 86,
      "start": 14.0754,
      "duration": 0.8142,
      "velocity": 103,
      "chip": "ym2612"
    },
    {
      "channel": 4,
      "note": 83,
      "start": 14.0771,
      "duration": 0.8127,
      "velocity": 103,
      "chip": "ym2612"
    },
    {
      "channel": 5,
      "note": 25,
      "start": 14.0788,
      "duration": 0.4003,
      "velocity": 120,
      "chip": "ym2612"
    },
    {
      "channel": 0,
      "note": 50,
      "start": 14.381,
      "duration": 0.0959,
      "velocity": 89,
      "chip": "ym2612"
    },
    {
      "channel": 5,
      "note": 23,
      "start": 14.4863,
      "duration": 0.0956,
      "velocity": 120,
      "chip": "ym2612"
    },
    {
      "channel": 0,
      "note": 48,
      "start": 14.6904,
      "duration": 0.4041,
      "velocity": 89,
      "chip": "ym2612"
    },
    {
      "channel": 5,
      "note": 35,
      "start": 14.6946,
      "duration": 0.1954,
      "velocity": 120,
      "chip": "ym2612"
    },
    {
      "channel": 1,
      "note": 81,
      "start": 14.8969,
      "duration": 0.1983,
      "velocity": 103,
      "chip": "ym2612"
    },
    {
      "channel": 4,
      "note": 84,
      "start": 14.8986,
      "duration": 0.1967,
      "velocity": 103,
      "chip": "ym2612"
    },
    {
      "channel": 0,
      "note": 47,
      "start": 15.1011,
      "duration": 0.0963,
      "velocity": 89,
      "chip": "ym2612"
    },
    {
      "channel": 5,
      "note": 39,
      "start": 15.1042,
      "duration": 0.1981,
      "velocity": 120,
      "chip": "ym2612"
    },
    {
      "channel": 0,
      "note": 47,
      "start": 15.3094,
      "duration": 0.0939,
      "velocity": 89,
      "chip": "ym2612"
    },
    {
      "channel": 1,
      "note": 79,
      "start": 15.3116,
      "duration": 0.1953,
      "velocity": 103,
      "chip": "ym2612"
    },
    {
      "channel": 4,
      "note": 83,
      "start": 15.3133,
      "duration": 0.1937,
      "velocity": 103,
      "chip": "ym2612"
    },
    {
      "channel": 5,
      "note": 40,
      "start": 15.3151,
      "duration": 0.3989,
      "velocity": 120,
      "chip": "ym2612"
    },
    {
      "channel": 0,
      "note": 52,
      "start": 15.4098,
      "duration": 0.0964,
      "velocity": 89,
      "chip": "ym2612"
    },
    {
      "channel": 0,
      "note": 50,
      "start": 15.5128,
      "duration": 0.0963,
      "velocity": 89,
      "chip": "ym2612"
    },
    {
      "channel": 0,
      "note": 52,
      "start": 15.7215,
      "duration": 0.0877,
      "velocity": 89,
      "chip": "ym2612"
    },
    {
      "channel": 1,
      "note": 78,
      "start": 15.7238,
      "duration": 0.1952,
      "velocity": 103,
      "chip": "ym2612"
    },
    {
      "channel": 4,
      "note": 81,
      "start": 15.7255,
      "duration": 0.1936,
      "velocity": 103,
      "chip": "ym2612"
    },
    {
      "channel": 5,
      "note": 39,
      "start": 15.7273,
      "duration": 0.0898,
      "velocity": 120,
      "chip": "ym2612"
    },
    {
      "channel": 5,
      "note": 41,
      "start": 15.8235,
      "duration": 0.0958,
      "velocity": 120,
      "chip": "ym2612"
    },
    {
      "channel": 5,
      "note": 41,
      "start": 15.9266,
      "duration": 0.1992,
      "velocity": 120,
      "chip": "ym2612"
    },
    {
      "channel": 0,
      "note": 50,
      "start": 16.0275,
      "duration": 0.3022,
      "velocity": 89,
      "chip": "ym2612"
    },
    {
      "channel": 1,
      "note": 79,
      "start": 16.1329,
      "duration": 0.1974,
      "velocity": 103,
      "chip": "ym2612"
    },
    {
      "channel": 4,
      "note": 83,
      "start": 16.1346,
      "duration": 0.1958,
      "velocity": 103,
      "chip": "ym2612"
    },
    {
      "channel": 5,
      "note": 40,
      "start": 16.1373,
      "duration": 0.0915,
      "velocity": 120,
      "chip": "ym2612"
    },
    {
      "channel": 0,
      "note": 48,
      "start": 16.3362,
      "duration": 0.1993,
      "velocity": 89,
      "chip": "ym2612"
    },
    {
      "channel": 0,
      "note": 50,
      "start": 16.5455,
      "duration": 0.2016,
      "velocity": 89,
      "chip": "ym2612"
    },
    {
      "channel": 1,
      "note": 81,
      "start": 16.5476,
      "duration": 0.2001,
      "velocity": 103,
      "chip": "ym2612"
    },
    {
      "channel": 4,
      "note": 84,
      "start": 16.5493,
      "duration": 0.1985,
      "velocity": 103,
      "chip": "ym2612"
    },
    {
      "channel": 5,
      "note": 35,
      "start": 16.552,
      "duration": 0.0942,
      "velocity": 120,
      "chip": "ym2612"
    },
    {
      "channel": 0,
      "note": 40,
      "start": 16.7546,
      "duration": 0.1983,
      "velocity": 89,
      "chip": "ym2612"
    },
    {
      "channel": 1,
      "note": 84,
      "start": 16.7568,
      "duration": 0.1968,
      "velocity": 103,
      "chip": "ym2612"
    },
    {
      "channel": 4,
      "note": 88,
      "start": 16.7585,
      "duration": 0.1952,
      "velocity": 103,
      "chip": "ym2612"
    },
    {
      "channel": 0,
      "note": 52,
      "start": 16.9613,
      "duration": 0.1975,
      "velocity": 89,
      "chip": "ym2612"
    },
    {
      "channel": 1,
      "note": 83,
      "start": 16.9635,
      "duration": 0.1959,
      "velocity": 103,
      "chip": "ym2612"
    },
    {
      "channel": 4,
      "note": 87,
      "start": 16.9652,
      "duration": 0.1943,
      "velocity": 103,
      "chip": "ym2612"
    },
    {
      "channel": 5,
      "note": 23,
      "start": 16.967,
      "duration": 0.091,
      "velocity": 120,
      "chip": "ym2612"
    },
    {
      "channel": 0,
      "note": 51,
      "start": 17.1663,
      "duration": 0.1984,
      "velocity": 89,
      "chip": "ym2612"
    },
    {
      "channel": 1,
      "note": 84,
      "start": 17.1683,
      "duration": 0.197,
      "velocity": 103,
      "chip": "ym2612"
    },
    {
      "channel": 4,
      "note": 88,
      "start": 17.17,
      "duration": 0.1954,
      "velocity": 103,
      "chip": "ym2612"
    },
    {
      "channel": 5,
      "note": 45,
      "start": 17.2705,
      "duration": 0.0952,
      "velocity": 120,
      "chip": "ym2612"
    },
    {
      "channel": 0,
      "note": 51,
      "start": 17.3721,
      "duration": 0.1984,
      "velocity": 89,
      "chip": "ym2612"
    },
    {
      "channel": 1,
      "note": 86,
      "start": 17.3743,
      "duration": 0.1969,
      "velocity": 103,
      "chip": "ym2612"
    },
    {
      "channel": 4,
      "note": 90,
      "start": 17.376,
      "duration": 0.1953,
      "velocity": 103,
      "chip": "ym2612"
    },
    {
      "channel": 5,
      "note": 25,
      "start": 17.3778,
      "duration": 0.0919,
      "velocity": 120,
      "chip": "ym2612"
    },
    {
      "channel": 0,
      "note": 48,
      "start": 17.578,
      "duration": 0.1983,
      "velocity": 89,
      "chip": "ym2612"
    },
    {
      "channel": 1,
      "note": 87,
      "start": 17.5801,
      "duration": 0.1969,
      "velocity": 103,
      "chip": "ym2612"
    },
    {
      "channel": 4,
      "note": 91,
      "start": 17.5818,
      "duration": 0.1954,
      "velocity": 103,
      "chip": "ym2612"
    },
    {
      "channel": 0,
      "note": 48,
      "start": 17.7848,
      "duration": 0.1974,
      "velocity": 89,
      "chip": "ym2612"
    },
    {
      "channel": 1,
      "note": 86,
      "start": 17.7869,
      "duration": 0.1959,
      "velocity": 103,
      "chip": "ym2612"
    },
    {
      "channel": 4,
      "note": 90,
      "start": 17.7886,
      "duration": 0.1944,
      "velocity": 103,
      "chip": "ym2612"
    },
    {
      "channel": 5,
      "note": 23,
      "start": 17.7913,
      "duration": 0.09,
      "velocity": 120,
      "chip": "ym2612"
    },
    {
      "channel": 0,
      "note": 47,
      "start": 17.9905,
      "duration": 0.1975,
      "velocity": 89,
      "chip": "ym2612"
    },
    {
      "channel": 1,
      "note": 87,
      "start": 17.9927,
      "duration": 0.196,
      "velocity": 103,
      "chip": "ym2612"
    },
    {
      "channel": 4,
      "note": 91,
      "start": 17.9944,
      "duration": 0.1945,
      "velocity": 103,
      "chip": "ym2612"
    },
    {
      "channel": 5,
      "note": 35,
      "start": 17.9971,
      "duration": 0.0901,
      "velocity": 120,
      "chip": "ym2612"
    },
    {
      "channel": 0,
      "note": 45,
      "start": 18.1959,
      "duration": 0.198,
      "velocity": 89,
      "chip": "ym2612"
    },
    {
      "channel": 1,
      "note": 90,
      "start": 18.1981,
      "duration": 0.1964,
      "velocity": 103,
      "chip": "ym2612"
    },
    {
      "channel": 4,
      "note": 93,
      "start": 18.1998,
      "duration": 0.1949,
      "velocity": 103,
      "chip": "ym2612"
    },
    {
      "channel": 0,
      "note": 47,
      "start": 18.4025,
      "duration": 0.2029,
      "velocity": 89,
      "chip": "ym2612"
    },
    {
      "channel": 3,
      "note": 74,
      "start": 18.4042,
      "duration": 0.2015,
      "velocity": 96,
      "chip": "ym2612"
    },
    {
      "channel": 1,
      "note": 91,
      "start": 18.4069,
      "duration": 0.1988,
      "velocity": 96,
      "chip": "ym2612"
    },
    {
      "channel": 4,
      "note": 95,
      "start": 18.4086,
      "duration": 0.1973,
      "velocity": 103,
      "chip": "ym2612"
    },
    {
      "channel": 5,
      "note": 39,
      "start": 18.4104,
      "duration": 0.0941,
      "velocity": 120,
      "chip": "ym2612"
    },
    {
      "channel": 0,
      "note": 40,
      "start": 18.6138,
      "duration": 0.1975,
      "velocity": 89,
      "chip": "ym2612"
    },
    {
      "channel": 3,
      "note": 72,
      "start": 18.6155,
      "duration": 0.196,
      "velocity": 96,
      "chip": "ym2612"
    },
    {
      "channel": 1,
      "note": 76,
      "start": 18.6171,
      "duration": 0.1945,
      "velocity": 96,
      "chip": "ym2612"
    },
    {
      "channel": 4,
      "note": 88,
      "start": 18.6189,
      "duration": 0.1929,
      "velocity": 103,
      "chip": "ym2612"
    },
    {
      "channel": 5,
      "note": 40,
      "start": 18.6207,
      "duration": 0.0898,
      "velocity": 120,
      "chip": "ym2612"
    },
    {
      "channel": 5,
      "note": 55,
      "start": 18.717,
      "duration": 0.095,
      "velocity": 120,
      "chip": "ym2612"
    },
    {
      "channel": 0,
      "note": 43,
      "start": 18.8191,
      "duration": 0.198,
      "velocity": 89,
      "chip": "ym2612"
    },
    {
      "channel": 3,
      "note": 71,
      "start": 18.8208,
      "duration": 0.1966,
      "velocity": 96,
      "chip": "ym2612"
    },
    {
      "channel": 1,
      "note": 75,
      "start": 18.8224,
      "duration": 0.195,
      "velocity": 96,
      "chip": "ym2612"
    },
    {
      "channel": 4,
      "note": 87,
      "start": 18.8241,
      "duration": 0.1935,
      "velocity": 103,
      "chip": "ym2612"
    },
    {
      "channel": 5,
      "note": 55,
      "start": 18.8259,
      "duration": 0.0904,
      "velocity": 120,
      "chip": "ym2612"
    },
    {
      "channel": 5,
      "note": 47,
      "start": 18.9228,
      "duration": 0.095,
      "velocity": 120,
      "chip": "ym2612"
    },
    {
      "channel": 0,
      "note": 46,
      "start": 19.0251,
      "duration": 0.1979,
      "velocity": 89,
      "chip": "ym2612"
    },
    {
      "channel": 3,
      "note": 69,
      "start": 19.0268,
      "duration": 0.0938,
      "velocity": 96,
      "chip": "ym2612"
    },
    {
      "channel": 1,
      "note": 72,
      "start": 19.0286,
      "duration": 0.0921,
      "velocity": 96,
      "chip": "ym2612"
    },
    {
      "channel": 4,
      "note": 84,
      "start": 19.0304,
      "duration": 0.0905,
      "velocity": 103,
      "chip": "ym2612"
    },
    {
      "channel": 5,
      "note": 47,
      "start": 19.0322,
      "duration": 0.0889,
      "velocity": 120,
      "chip": "ym2612"
    },
    {
      "channel": 3,
      "note": 67,
      "start": 19.1271,
      "duration": 0.0961,
      "velocity": 96,
      "chip": "ym2612"
    },
    {
      "channel": 1,
      "note": 71,
      "start": 19.1288,
      "duration": 0.0945,
      "velocity": 96,
      "chip": "ym2612"
    },
    {
      "channel": 4,
      "note": 83,
      "start": 19.1305,
      "duration": 0.093,
      "velocity": 103,
      "chip": "ym2612"
    },
    {
      "channel": 3,
      "note": 66,
      "start": 19.2302,
      "duration": 0.0963,
      "velocity": 96,
      "chip": "ym2612"
    },
    {
      "channel": 1,
      "note": 70,
      "start": 19.2318,
      "duration": 0.0948,
      "velocity": 96,
      "chip": "ym2612"
    },
    {
      "channel": 4,
      "note": 82,
      "start": 19.2336,
      "duration": 0.0932,
      "velocity": 103,
      "chip": "ym2612"
    },
    {
      "channel": 3,
      "note": 67,
      "start": 19.3332,
      "duration": 0.0961,
      "velocity": 96,
      "chip": "ym2612"
    },
    {
      "channel": 1,
      "note": 71,
      "start": 19.3349,
      "duration": 0.0946,
      "velocity": 96,
      "chip": "ym2612"
    },
    {
      "channel": 4,
      "note": 83,
      "start": 19.3366,
      "duration": 0.0931,
      "velocity": 103,
      "chip": "ym2612"
    },
    {
      "channel": 3,
      "note": 66,
      "start": 19.4371,
      "duration": 0.0952,
      "velocity": 96,
      "chip": "ym2612"
    },
    {
      "channel": 1,
      "note": 70,
      "start": 19.4388,
      "duration": 0.0937,
      "velocity": 96,
      "chip": "ym2612"
    },
    {
      "channel": 4,
      "note": 82,
      "start": 19.4404,
      "duration": 0.4017,
      "velocity": 103,
      "chip": "ym2612"
    },
    {
      "channel": 5,
      "note": 39,
      "start": 19.4432,
      "duration": 0.09,
      "velocity": 120,
      "chip": "ym2612"
    },
    {
      "channel": 0,
      "note": 47,
      "start": 19.8522,
      "duration": 0.1656,
      "velocity": 89,
      "chip": "ym2612"
    },
    {
      "channel": 3,
      "note": 67,
      "start": 19.8539,
      "duration": 0.0616,
      "velocity": 96,
      "chip": "ym2612"
    },
    {
      "channel": 1,
      "note": 71,
      "start": 19.8565,
      "duration": 0.4083,
      "velocity": 94,
      "chip": "ym2612"
    },
    {
      "channel": 2,
      "note": 77,
      "start": 19.86,
      "duration": 0.0566,
      "velocity": 127,
      "chip": "ym2612"
    },
    {
      "channel": 5,
      "note": 35,
      "start": 19.8626,
      "duration": 0.0948,
      "velocity": 120,
      "chip": "ym2612"
    },
    {
      "channel": 2,
      "note": 92,
      "start": 19.9635,
      "duration": 0.056,
      "velocity": 127,
      "chip": "ym2612"
    },
    {
      "channel": 0,
      "note": 45,
      "start": 20.0668,
      "duration": 0.1569,
      "velocity": 89,
      "chip": "ym2612"
    },
    {
      "channel": 3,
      "note": 69,
      "start": 20.0682,
      "duration": 0.0531,
      "velocity": 96,
      "chip": "ym2612"
    },
    {
      "channel": 2,
      "note": 92,
      "start": 20.071,
      "duration": 0.0515,
      "velocity": 127,
      "chip": "ym2612"
    },
    {
      "channel": 2,
      "note": 92,
      "start": 20.17,
      "duration": 0.0555,
      "velocity": 127,
      "chip": "ym2612"
    },
    {
      "channel": 3,
      "note": 72,
      "start": 20.2739,
      "duration": 0.0589,
      "velocity": 96,
      "chip": "ym2612"
    },
    {
      "channel": 4,
      "note": 83,
      "start": 20.2771,
      "duration": 0.4055,
      "velocity": 94,
      "chip": "ym2612"
    },
    {
      "channel": 2,
      "note": 92,
      "start": 20.2788,
      "duration": 0.0552,
      "velocity": 127,
      "chip": "ym2612"
    },
    {
      "channel": 5,
      "note": 23,
      "start": 20.2804,
      "duration": 0.0945,
      "velocity": 120,
      "chip": "ym2612"
    },
    {
      "channel": 2,
      "note": 92,
      "start": 20.3809,
      "duration": 0.0564,
      "velocity": 127,
      "chip": "ym2612"
    },
    {
      "channel": 3,
      "note": 76,
      "start": 20.4837,
      "duration": 0.055,
      "velocity": 96,
      "chip": "ym2612"
    },
    {
      "channel": 2,
      "note": 92,
      "start": 20.4864,
      "duration": 0.0534,
      "velocity": 127,
      "chip": "ym2612"
    },
    {
      "channel": 2,
      "note": 92,
      "start": 20.5883,
      "duration": 0.0548,
      "velocity": 127,
      "chip": "ym2612"
    },
    {
      "channel": 5,
      "note": 45,
      "start": 20.5897,
      "duration": 0.0936,
      "velocity": 120,
      "chip": "ym2612"
    },
    {
      "channel": 3,
      "note": 72,
      "start": 20.6904,
      "duration": 0.0542,
      "velocity": 96,
      "chip": "ym2612"
    },
    {
      "channel": 1,
      "note": 69,
      "start": 20.692,
      "duration": 0.4018,
      "velocity": 94,
      "chip": "ym2612"
    },
    {
      "channel": 2,
      "note": 92,
      "start": 20.6942,
      "duration": 0.0515,
      "velocity": 127,
      "chip": "ym2612"
    },
    {
      "channel": 5,
      "note": 25,
      "start": 20.6957,
      "duration": 0.0908,
      "velocity": 120,
      "chip": "ym2612"
    },
    {
      "channel": 2,
      "note": 92,
      "start": 20.7927,
      "duration": 0.0563,
      "velocity": 127,
      "chip": "ym2612"
    },
    {
      "channel": 3,
      "note": 69,
      "start": 20.8956,
      "duration": 0.0548,
      "velocity": 96,
      "chip": "ym2612"
    },
    {
      "channel": 2,
      "note": 92,
      "start": 20.8983,
      "duration": 0.0533,
      "velocity": 127,
      "chip": "ym2612"
    },
    {
      "channel": 2,
      "note": 92,
      "start": 20.9991,
      "duration": 0.0557,
      "velocity": 127,
      "chip": "ym2612"
    },
    {
      "channel": 3,
      "note": 76,
      "start": 21.103,
      "duration": 0.0589,
      "velocity": 96,
      "chip": "ym2612"
    },
    {
      "channel": 4,
      "note": 76,
      "start": 21.1052,
      "duration": 0.6125,
      "velocity": 94,
      "chip": "ym2612"
    },
    {
      "channel": 2,
      "note": 92,
      "start": 21.1068,
      "duration": 0.0562,
      "velocity": 127,
      "chip": "ym2612"
    },
    {
      "channel": 5,
      "note": 23,
      "start": 21.1092,
      "duration": 0.0948,
      "velocity": 120,
      "chip": "ym2612"
    },
    {
      "channel": 2,
      "note": 92,
      "start": 21.21,
      "duration": 0.0564,
      "velocity": 127,
      "chip": "ym2612"
    },
    {
      "channel": 3,
      "note": 72,
      "start": 21.3137,
      "duration": 0.0541,
      "velocity": 96,
      "chip": "ym2612"
    },
    {
      "channel": 2,
      "note": 92,
      "start": 21.3164,
      "duration": 0.0525,
      "velocity": 127,
      "chip": "ym2612"
    },
    {
      "channel": 5,
      "note": 35,
      "start": 21.3188,
      "duration": 0.091,
      "velocity": 120,
      "chip": "ym2612"
    },
    {
      "channel": 2,
      "note": 92,
      "start": 21.4159,
      "duration": 0.0564,
      "velocity": 127,
      "chip": "ym2612"
    },
    {
      "channel": 3,
      "note": 69,
      "start": 21.5189,
      "duration": 0.0548,
      "velocity": 96,
      "chip": "ym2612"
    },
    {
      "channel": 2,
      "note": 92,
      "start": 21.5216,
      "duration": 0.0532,
      "velocity": 127,
      "chip": "ym2612"
    },
    {
      "channel": 2,
      "note": 92,
      "start": 21.6217,
      "duration": 0.0564,
      "velocity": 127,
      "chip": "ym2612"
    },
    {
      "channel": 0,
      "note": 45,
      "start": 21.7271,
      "duration": 0.2006,
      "velocity": 89,
      "chip": "ym2612"
    },
    {
      "channel": 3,
      "note": 75,
      "start": 21.7288,
      "duration": 0.0564,
      "velocity": 96,
      "chip": "ym2612"
    },
    {
      "channel": 1,
      "note": 75,
      "start": 21.7314,
      "duration": 0.0944,
      "velocity": 103,
      "chip": "ym2612"
    },
    {
      "channel": 4,
      "note": 79,
      "start": 21.734,
      "duration": 0.0919,
      "velocity": 103,
      "chip": "ym2612"
    },
    {
      "channel": 2,
      "note": 92,
      "start": 21.7359,
      "duration": 0.0504,
      "velocity": 127,
      "chip": "ym2612"
    },
    {
      "channel": 5,
      "note": 39,
      "start": 21.7374,
      "duration": 0.0892,
      "velocity": 120,
      "chip": "ym2612"
    },
    {
      "channel": 2,
      "note": 92,
      "start": 21.8334,
      "duration": 0.0563,
      "velocity": 127,
      "chip": "ym2612"
    },
    {
      "channel": 3,
      "note": 72,
      "start": 21.9362,
      "duration": 0.055,
      "velocity": 96,
      "chip": "ym2612"
    },
    {
      "channel": 2,
      "note": 92,
      "start": 21.9389,
      "duration": 0.0534,
      "velocity": 127,
      "chip": "ym2612"
    },
    {
      "channel": 5,
      "note": 40,
      "start": 21.9404,
      "duration": 0.0926,
      "velocity": 120,
      "chip": "ym2612"
    },
    {
      "channel": 2,
      "note": 92,
      "start": 22.0398,
      "duration": 0.0558,
      "velocity": 127,
      "chip": "ym2612"
    },
    {
      "channel": 0,
      "note": 40,
      "start": 22.1437,
      "duration": 0.2014,
      "velocity": 89,
      "chip": "ym2612"
    },
    {
      "channel": 3,
      "note": 69,
      "start": 22.1452,
      "duration": 0.0575,
      "velocity": 96,
      "chip": "ym2612"
    },
    {
      "channel": 1,
      "note": 75,
      "start": 22.1469,
      "duration": 0.0963,
      "velocity": 103,
      "chip": "ym2612"
    },
    {
      "channel": 4,
      "note": 76,
      "start": 22.1488,
      "duration": 0.0945,
      "velocity": 103,
      "chip": "ym2612"
    },
    {
      "channel": 2,
      "note": 92,
      "start": 22.1507,
      "duration": 0.053,
      "velocity": 127,
      "chip": "ym2612"
    },
    {
      "channel": 2,
      "note": 92,
      "start": 22.2508,
      "duration": 0.0564,
      "velocity": 127,
      "chip": "ym2612"
    },
    {
      "channel": 3,
      "note": 75,
      "start": 22.3543,
      "duration": 0.0542,
      "velocity": 96,
      "chip": "ym2612"
    },
    {
      "channel": 2,
      "note": 92,
      "start": 22.357,
      "duration": 0.0527,
      "velocity": 127,
      "chip": "ym2612"
    },
    {
      "channel": 5,
      "note": 39,
      "start": 22.3585,
      "duration": 0.0919,
      "velocity": 120,
      "chip": "ym2612"
    },
    {
      "channel": 2,
      "note": 92,
      "start": 22.4573,
      "duration": 0.0556,
      "velocity": 127,
      "chip": "ym2612"
    },
    {
      "channel": 5,
      "note": 41,
      "start": 22.4588,
      "duration": 0.0945,
      "velocity": 120,
      "chip": "ym2612"
    },
    {
      "channel": 0,
      "note": 40,
      "start": 22.5616,
      "duration": 0.201,
      "velocity": 89,
      "chip": "ym2612"
    },
    {
      "channel": 3,
      "note": 72,
      "start": 22.5631,
      "duration": 0.057,
      "velocity": 96,
      "chip": "ym2612"
    },
    {
      "channel": 1,
      "note": 75,
      "start": 22.5647,
      "duration": 0.0959,
      "velocity": 103,
      "chip": "ym2612"
    },
    {
      "channel": 4,
      "note": 76,
      "start": 22.5666,
      "duration": 0.0941,
      "velocity": 103,
      "chip": "ym2612"
    },
    {
      "channel": 2,
      "note": 92,
      "start": 22.5685,
      "duration": 0.0526,
      "velocity": 127,
      "chip": "ym2612"
    },
    {
      "channel": 5,
      "note": 41,
      "start": 22.57,
      "duration": 0.0914,
      "velocity": 120,
      "chip": "ym2612"
    },
    {
      "channel": 2,
      "note": 92,
      "start": 22.6682,
      "duration": 0.0563,
      "velocity": 127,
      "chip": "ym2612"
    },
    {
      "channel": 3,
      "note": 69,
      "start": 22.771,
      "duration": 0.0549,
      "velocity": 96,
      "chip": "ym2612"
    },
    {
      "channel": 2,
      "note": 92,
      "start": 22.7738,
      "duration": 0.0534,
      "velocity": 127,
      "chip": "ym2612"
    },
    {
      "channel": 5,
      "note": 40,
      "start": 22.7762,
      "duration": 0.0917,
      "velocity": 120,
      "chip": "ym2612"
    },
    {
      "channel": 2,
      "note": 92,
      "start": 22.8746,
      "duration": 0.0557,
      "velocity": 127,
      "chip": "ym2612"
    },
    {
      "channel": 0,
      "note": 40,
      "start": 22.9783,
      "duration": 0.2017,
      "velocity": 89,
      "chip": "ym2612"
    },
    {
      "channel": 3,
      "note": 75,
      "start": 22.9799,
      "duration": 0.0576,
      "velocity": 96,
      "chip": "ym2612"
    },
    {
      "channel": 1,
      "note": 75,
      "start": 22.9815,
      "duration": 0.0965,
      "velocity": 103,
      "chip": "ym2612"
    },
    {
      "channel": 4,
      "note": 76,
      "start": 22.9834,
      "duration": 0.0948,
      "velocity": 103,
      "chip": "ym2612"
    },
    {
      "channel": 2,
      "note": 92,
      "start": 22.9853,
      "duration": 0.0533,
      "velocity": 127,
      "chip": "ym2612"
    },
    {
      "channel": 2,
      "note": 92,
      "start": 23.0856,
      "duration": 0.0563,
      "velocity": 127,
      "chip": "ym2612"
    },
    {
      "channel": 0,
      "note": 40,
      "start": 23.1914,
      "duration": 0.1602,
      "velocity": 89,
      "chip": "ym2612"
    },
    {
      "channel": 3,
      "note": 69,
      "start": 23.193,
      "duration": 0.0561,
      "velocity": 96,
      "chip": "ym2612"
    },
    {
      "channel": 4,
      "note": 76,
      "start": 23.1951,
      "duration": 0.1979,
      "velocity": 103,
      "chip": "ym2612"
    },
    {
      "channel": 2,
      "note": 92,
      "start": 23.197,
      "duration": 0.0532,
      "velocity": 127,
      "chip": "ym2612"
    },
    {
      "channel": 5,
      "note": 35,
      "start": 23.1993,
      "duration": 0.0917,
      "velocity": 120,
      "chip": "ym2612"
    },
    {
      "channel": 2,
      "note": 92,
      "start": 23.2974,
      "duration": 0.0557,
      "velocity": 127,
      "chip": "ym2612"
    },
    {
      "channel": 0,
      "note": 45,
      "start": 23.4011,
      "duration": 0.162,
      "velocity": 89,
      "chip": "ym2612"
    },
    {
      "channel": 3,
      "note": 69,
      "start": 23.4026,
      "duration": 0.0581,
      "velocity": 96,
      "chip": "ym2612"
    },
    {
      "channel": 4,
      "note": 79,
      "start": 23.4049,
      "duration": 0.1996,
      "velocity": 103,
      "chip": "ym2612"
    },
    {
      "channel": 2,
      "note": 92,
      "start": 23.4067,
      "duration": 0.055,
      "velocity": 127,
      "chip": "ym2612"
    },
    {
      "channel": 2,
      "note": 92,
      "start": 23.5093,
      "duration": 0.0554,
      "velocity": 127,
      "chip": "ym2612"
    },
    {
      "channel": 3,
      "note": 72,
      "start": 23.6131,
      "duration": 0.0591,
      "velocity": 96,
      "chip": "ym2612"
    },
    {
      "channel": 4,
      "note": 81,
      "start": 23.6154,
      "duration": 0.2007,
      "velocity": 103,
      "chip": "ym2612"
    },
    {
      "channel": 2,
      "note": 92,
      "start": 23.6171,
      "duration": 0.0562,
      "velocity": 127,
      "chip": "ym2612"
    },
    {
      "channel": 5,
      "note": 23,
      "start": 23.6186,
      "duration": 0.0956,
      "velocity": 120,
      "chip": "ym2612"
    },
    {
      "channel": 2,
      "note": 92,
      "start": 23.7203,
      "duration": 0.0563,
      "velocity": 127,
      "chip": "ym2612"
    },
    {
      "channel": 3,
      "note": 78,
      "start": 23.8238,
      "duration": 0.0543,
      "velocity": 96,
      "chip": "ym2612"
    },
    {
      "channel": 4,
      "note": 88,
      "start": 23.826,
      "duration": 0.6077,
      "velocity": 103,
      "chip": "ym2612"
    },
    {
      "channel": 2,
      "note": 92,
      "start": 23.8277,
      "duration": 0.0515,
      "velocity": 127,
      "chip": "ym2612"
    },
    {
      "channel": 2,
      "note": 92,
      "start": 23.9276,
      "duration": 0.0548,
      "velocity": 127,
      "chip": "ym2612"
    },
    {
      "channel": 5,
      "note": 45,
      "start": 23.9292,
      "duration": 0.0938,
      "velocity": 120,
      "chip": "ym2612"
    },
    {
      "channel": 3,
      "note": 72,
      "start": 24.029,
      "duration": 0.055,
      "velocity": 96,
      "chip": "ym2612"
    },
    {
      "channel": 2,
      "note": 92,
      "start": 24.0317,
      "duration": 0.0534,
      "velocity": 127,
      "chip": "ym2612"
    },
    {
      "channel": 5,
      "note": 25,
      "start": 24.0331,
      "duration": 0.0931,
      "velocity": 120,
      "chip": "ym2612"
    },
    {
      "channel": 2,
      "note": 92,
      "start": 24.1323,
      "duration": 0.056,
      "velocity": 127,
      "chip": "ym2612"
    },
    {
      "channel": 3,
      "note": 69,
      "start": 24.2351,
      "duration": 0.0547,
      "velocity": 96,
      "chip": "ym2612"
    },
    {
      "channel": 2,
      "note": 92,
      "start": 24.238,
      "duration": 0.0529,
      "velocity": 127,
      "chip": "ym2612"
    },
    {
      "channel": 2,
      "note": 92,
      "start": 24.3384,
      "duration": 0.0558,
      "velocity": 127,
      "chip": "ym2612"
    },
    {
      "channel": 3,
      "note": 78,
      "start": 24.4422,
      "duration": 0.0592,
      "velocity": 96,
      "chip": "ym2612"
    },
    {
      "channel": 4,
      "note": 87,
      "start": 24.4444,
      "duration": 0.2008,
      "velocity": 103,
      "chip": "ym2612"
    },
    {
      "channel": 2,
      "note": 92,
      "start": 24.4463,
      "duration": 0.0562,
      "velocity": 127,
      "chip": "ym2612"
    },
    {
      "channel": 5,
      "note": 23,
      "start": 24.4486,
      "duration": 0.0947,
      "velocity": 120,
      "chip": "ym2612"
    },
    {
      "channel": 2,
      "note": 92,
      "start": 24.5495,
      "duration": 0.0563,
      "velocity": 127,
      "chip": "ym2612"
    },
    {
      "channel": 3,
      "note": 72,
      "start": 24.6537,
      "duration": 0.0592,
      "velocity": 96,
      "chip": "ym2612"
    },
    {
      "channel": 4,
      "note": 81,
      "start": 24.6559,
      "duration": 1.024,
      "velocity": 103,
      "chip": "ym2612"
    },
    {
      "channel": 2,
      "note": 92,
      "start": 24.6578,
      "duration": 0.0562,
      "velocity": 127,
      "chip": "ym2612"
    },
    {
      "channel": 5,
      "note": 35,
      "start": 24.6602,
      "duration": 0.0947,
      "velocity": 120,
      "chip": "ym2612"
    },
    {
      "channel": 2,
      "note": 92,
      "start": 24.761,
      "duration": 0.0564,
      "velocity": 127,
      "chip": "ym2612"
    },
    {
      "channel": 3,
      "note": 69,
      "start": 24.8642,
      "duration": 0.0546,
      "velocity": 96,
      "chip": "ym2612"
    },
    {
      "channel": 2,
      "note": 92,
      "start": 24.8669,
      "duration": 0.0531,
      "velocity": 127,
      "chip": "ym2612"
    },
    {
      "channel": 2,
      "note": 92,
      "start": 24.9672,
      "duration": 0.056,
      "velocity": 127,
      "chip": "ym2612"
    },
    {
      "channel": 0,
      "note": 45,
      "start": 25.0705,
      "duration": 0.1966,
      "velocity": 89,
      "chip": "ym2612"
    },
    {
      "channel": 3,
      "note": 76,
      "start": 25.0721,
      "duration": 0.0525,
      "velocity": 96,
      "chip": "ym2612"
    },
    {
      "channel": 2,
      "note": 92,
      "start": 25.075,
      "duration": 0.0508,
      "velocity": 127,
      "chip": "ym2612"
    },
    {
      "channel": 5,
      "note": 39,
      "start": 25.0765,
      "duration": 0.0901,
      "velocity": 120,
      "chip": "ym2612"
    },
    {
      "channel": 2,
      "note": 92,
      "start": 25.1727,
      "duration": 0.0564,
      "velocity": 127,
      "chip": "ym2612"
    },
    {
      "channel": 3,
      "note": 72,
      "start": 25.2759,
      "duration": 0.0545,
      "velocity": 96,
      "chip": "ym2612"
    },
    {
      "channel": 2,
      "note": 92,
      "start": 25.2785,
      "duration": 0.0531,
      "velocity": 127,
      "chip": "ym2612"
    },
    {
      "channel": 5,
      "note": 40,
      "start": 25.2801,
      "duration": 0.0925,
      "velocity": 120,
      "chip": "ym2612"
    },
    {
      "channel": 2,
      "note": 92,
      "start": 25.3786,
      "duration": 0.0563,
      "velocity": 127,
      "chip": "ym2612"
    },
    {
      "channel": 0,
      "note": 40,
      "start": 25.4812,
      "duration": 0.1976,
      "velocity": 89,
      "chip": "ym2612"
    },
    {
      "channel": 3,
      "note": 69,
      "start": 25.4827,
      "duration": 0.0537,
      "velocity": 96,
      "chip": "ym2612"
    },
    {
      "channel": 2,
      "note": 92,
      "start": 25.4854,
      "duration": 0.0522,
      "velocity": 127,
      "chip": "ym2612"
    },
    {
      "channel": 2,
      "note": 92,
      "start": 25.5844,
      "duration": 0.0564,
      "velocity": 127,
      "chip": "ym2612"
    },
    {
      "channel": 3,
      "note": 76,
      "start": 25.6887,
      "duration": 0.0534,
      "velocity": 96,
      "chip": "ym2612"
    },
    {
      "channel": 4,
      "note": 84,
      "start": 25.6909,
      "duration": 0.8175,
      "velocity": 103,
      "chip": "ym2612"
    },
    {
      "channel": 2,
      "note": 92,
      "start": 25.6926,
      "duration": 0.0509,
      "velocity": 127,
      "chip": "ym2612"
    },
    {
      "channel": 5,
      "note": 39,
      "start": 25.6941,
      "duration": 0.0901,
      "velocity": 120,
      "chip": "ym2612"
    },
    {
      "channel": 2,
      "note": 92,
      "start": 25.7908,
      "duration": 0.0558,
      "velocity": 127,
      "chip": "ym2612"
    },
    {
      "channel": 5,
      "note": 41,
      "start": 25.7923,
      "duration": 0.095,
      "velocity": 120,
      "chip": "ym2612"
    },
    {
      "channel": 0,
      "note": 40,
      "start": 25.8947,
      "duration": 0.2015,
      "velocity": 89,
      "chip": "ym2612"
    },
    {
      "channel": 3,
      "note": 72,
      "start": 25.8962,
      "duration": 0.0976,
      "velocity": 96,
      "chip": "ym2612"
    },
    {
      "channel": 1,
      "note": 75,
      "start": 25.8989,
      "duration": 0.095,
      "velocity": 96,
      "chip": "ym2612"
    },
    {
      "channel": 2,
      "note": 92,
      "start": 25.9012,
      "duration": 0.0541,
      "velocity": 127,
      "chip": "ym2612"
    },
    {
      "channel": 5,
      "note": 41,
      "start": 25.9027,
      "duration": 0.0927,
      "velocity": 120,
      "chip": "ym2612"
    },
    {
      "channel": 3,
      "note": 76,
      "start": 26.0012,
      "duration": 0.0952,
      "velocity": 96,
      "chip": "ym2612"
    },
    {
      "channel": 1,
      "note": 71,
      "start": 26.0028,
      "duration": 0.0937,
      "velocity": 96,
      "chip": "ym2612"
    },
    {
      "channel": 2,
      "note": 92,
      "start": 26.005,
      "duration": 0.0532,
      "velocity": 127,
      "chip": "ym2612"
    },
    {
      "channel": 3,
      "note": 70,
      "start": 26.1053,
      "duration": 0.0944,
      "velocity": 96,
      "chip": "ym2612"
    },
    {
      "channel": 1,
      "note": 75,
      "start": 26.107,
      "duration": 0.0928,
      "velocity": 96,
      "chip": "ym2612"
    },
    {
      "channel": 2,
      "note": 92,
      "start": 26.1091,
      "duration": 0.052,
      "velocity": 127,
      "chip": "ym2612"
    },
    {
      "channel": 5,
      "note": 40,
      "start": 26.1115,
      "duration": 0.0895,
      "velocity": 120,
      "chip": "ym2612"
    },
    {
      "channel": 3,
      "note": 67,
      "start": 26.2067,
      "duration": 0.0959,
      "velocity": 96,
      "chip": "ym2612"
    },
    {
      "channel": 1,
      "note": 72,
      "start": 26.2084,
      "duration": 0.0943,
      "velocity": 96,
      "chip": "ym2612"
    },
    {
      "channel": 2,
      "note": 92,
      "start": 26.2105,
      "duration": 0.0535,
      "velocity": 127,
      "chip": "ym2612"
    },
    {
      "channel": 0,
      "note": 40,
      "start": 26.3104,
      "duration": 0.1975,
      "velocity": 89,
      "chip": "ym2612"
    },
    {
      "channel": 3,
      "note": 66,
      "start": 26.3119,
      "duration": 0.0937,
      "velocity": 96,
      "chip": "ym2612"
    },
    {
      "channel": 1,
      "note": 71,
      "start": 26.3136,
      "duration": 0.092,
      "velocity": 96,
      "chip": "ym2612"
    },
    {
      "channel": 2,
      "note": 92,
      "start": 26.3158,
      "duration": 0.0512,
      "velocity": 127,
      "chip": "ym2612"
    },
    {
      "channel": 3,
      "note": 64,
      "start": 26.413,
      "duration": 0.095,
      "velocity": 96,
      "chip": "ym2612"
    },
    {
      "channel": 1,
      "note": 69,
      "start": 26.4147,
      "duration": 0.0936,
      "velocity": 96,
      "chip": "ym2612"
    },
    {
      "channel": 2,
      "note": 92,
      "start": 26.4168,
      "duration": 0.0531,
      "velocity": 127,
      "chip": "ym2612"
    },
    {
      "channel": 0,
      "note": 40,
      "start": 26.5193,
      "duration": 0.1659,
      "velocity": 89,
      "chip": "ym2612"
    },
    {
      "channel": 3,
      "note": 59,
      "start": 26.5209,
      "duration": 0.2048,
      "velocity": 96,
      "chip": "ym2612"
    },
    {
      "channel": 1,
      "note": 64,
      "start": 26.5227,
      "duration": 0.2032,
      "velocity": 96,
      "chip": "ym2612"
    },
    {
      "channel": 4,
      "note": 83,
      "start": 26.5254,
      "duration": 0.4065,
      "velocity": 94,
      "chip": "ym2612"
    },
    {
      "channel": 2,
      "note": 92,
      "start": 26.5273,
      "duration": 0.057,
      "velocity": 127,
      "chip": "ym2612"
    },
    {
      "channel": 5,
      "note": 35,
      "start": 26.5296,
      "duration": 0.0952,
      "velocity": 120,
      "chip": "ym2612"
    },
    {
      "channel": 2,
      "note": 92,
      "start": 26.6308,
      "duration": 0.056,
      "velocity": 127,
      "chip": "ym2612"
    },
    {
      "channel": 0,
      "note": 45,
      "start": 26.7337,
      "duration": 0.1573,
      "velocity": 89,
      "chip": "ym2612"
    },
    {
      "channel": 3,
      "note": 60,
      "start": 26.7352,
      "duration": 0.1964,
      "velocity": 96,
      "chip": "ym2612"
    },
    {
      "channel": 1,
      "note": 76,
      "start": 26.7369,
      "duration": 0.1949,
      "velocity": 96,
      "chip": "ym2612"
    },
    {
      "channel": 2,
      "note": 92,
      "start": 26.7391,
      "duration": 0.051,
      "velocity": 127,
      "chip": "ym2612"
    },
    {
      "channel": 2,
      "note": 92,
      "start": 26.8367,
      "duration": 0.056,
      "velocity": 127,
      "chip": "ym2612"
    },
    {
      "channel": 3,
      "note": 72,
      "start": 26.9409,
      "duration": 0.2023,
      "velocity": 96,
      "chip": "ym2612"
    },
    {
      "channel": 1,
      "note": 79,
      "start": 26.9424,
      "duration": 0.2009,
      "velocity": 96,
      "chip": "ym2612"
    },
    {
      "channel": 4,
      "note": 69,
      "start": 26.9439,
      "duration": 0.4055,
      "velocity": 94,
      "chip": "ym2612"
    },
    {
      "channel": 2,
      "note": 92,
      "start": 26.9456,
      "duration": 0.0561,
      "velocity": 127,
      "chip": "ym2612"
    },
    {
      "channel": 5,
      "note": 23,
      "start": 26.9471,
      "duration": 0.0952,
      "velocity": 120,
      "chip": "ym2612"
    },
    {
      "channel": 2,
      "note": 92,
      "start": 27.0483,
      "duration": 0.0564,
      "velocity": 127,
      "chip": "ym2612"
    },
    {
      "channel": 3,
      "note": 72,
      "start": 27.1507,
      "duration": 0.1983,
      "velocity": 96,
      "chip": "ym2612"
    },
    {
      "channel": 1,
      "note": 79,
      "start": 27.1524,
      "duration": 0.1968,
      "velocity": 96,
      "chip": "ym2612"
    },
    {
      "channel": 2,
      "note": 92,
      "start": 27.1546,
      "duration": 0.0529,
      "velocity": 127,
      "chip": "ym2612"
    },
    {
      "channel": 2,
      "note": 92,
      "start": 27.2549,
      "duration": 0.0555,
      "velocity": 127,
      "chip": "ym2612"
    },
    {
      "channel": 5,
      "note": 45,
      "start": 27.2564,
      "duration": 0.0936,
      "velocity": 120,
      "chip": "ym2612"
    },
    {
      "channel": 3,
      "note": 59,
      "start": 27.3578,
      "duration": 0.0998,
      "velocity": 96,
      "chip": "ym2612"
    },
    {
      "channel": 1,
      "note": 66,
      "start": 27.3595,
      "duration": 0.0983,
      "velocity": 96,
      "chip": "ym2612"
    },
    {
      "channel": 4,
      "note": 76,
      "start": 27.3612,
      "duration": 0.4055,
      "velocity": 94,
      "chip": "ym2612"
    },
    {
      "channel": 2,
      "note": 92,
      "start": 27.3628,
      "duration": 0.0563,
      "velocity": 127,
      "chip": "ym2612"
    },
    {
      "channel": 5,
      "note": 25,
      "start": 27.3644,
      "duration": 0.0946,
      "velocity": 120,
      "chip": "ym2612"
    },
    {
      "channel": 3,
      "note": 71,
      "start": 27.4647,
      "duration": 0.0959,
      "velocity": 96,
      "chip": "ym2612"
    },
    {
      "channel": 1,
      "note": 78,
      "start": 27.4661,
      "duration": 0.0946,
      "velocity": 96,
      "chip": "ym2612"
    },
    {
      "channel": 2,
      "note": 92,
      "start": 27.4682,
      "duration": 0.0539,
      "velocity": 127,
      "chip": "ym2612"
    },
    {
      "channel": 2,
      "note": 92,
      "start": 27.5686,
      "duration": 0.0563,
      "velocity": 127,
      "chip": "ym2612"
    },
    {
      "channel": 3,
      "note": 71,
      "start": 27.6718,
      "duration": 0.0946,
      "velocity": 96,
      "chip": "ym2612"
    },
    {
      "channel": 1,
      "note": 78,
      "start": 27.6733,
      "duration": 0.0933,
      "velocity": 96,
      "chip": "ym2612"
    },
    {
      "channel": 2,
      "note": 92,
      "start": 27.6752,
      "duration": 0.0527,
      "velocity": 127,
      "chip": "ym2612"
    },
    {
      "channel": 3,
      "note": 71,
      "start": 27.7756,
      "duration": 0.2024,
      "velocity": 96,
      "chip": "ym2612"
    },
    {
      "channel": 1,
      "note": 78,
      "start": 27.7773,
      "duration": 0.2008,
      "velocity": 96,
      "chip": "ym2612"
    },
    {
      "channel": 4,
      "note": 75,
      "start": 27.779,
      "duration": 0.611,
      "velocity": 94,
      "chip": "ym2612"
    },
    {
      "channel": 2,
      "note": 92,
      "start": 27.7807,
      "duration": 0.0559,
      "velocity": 127,
      "chip": "ym2612"
    },
    {
      "channel": 5,
      "note": 23,
      "start": 27.7831,
      "duration": 0.094,
      "velocity": 120,
      "chip": "ym2612"
    },
    {
      "channel": 2,
      "note": 92,
      "start": 27.8831,
      "duration": 0.0564,
      "velocity": 127,
      "chip": "ym2612"
    },
    {
      "channel": 3,
      "note": 70,
      "start": 27.9863,
      "duration": 0.1975,
      "velocity": 96,
      "chip": "ym2612"
    },
    {
      "channel": 1,
      "note": 77,
      "start": 27.9881,
      "duration": 0.1959,
      "velocity": 96,
      "chip": "ym2612"
    },
    {
      "channel": 2,
      "note": 92,
      "start": 27.9902,
      "duration": 0.0522,
      "velocity": 127,
      "chip": "ym2612"
    },
    {
      "channel": 5,
      "note": 35,
      "start": 27.9927,
      "duration": 0.0903,
      "velocity": 120,
      "chip": "ym2612"
    },
    {
      "channel": 2,
      "note": 92,
      "start": 28.089,
      "duration": 0.0564,
      "velocity": 127,
      "chip": "ym2612"
    },
    {
      "channel": 3,
      "note": 69,
      "start": 28.1924,
      "duration": 0.1973,
      "velocity": 96,
      "chip": "ym2612"
    },
    {
      "channel": 1,
      "note": 76,
      "start": 28.1941,
      "duration": 0.1957,
      "velocity": 96,
      "chip": "ym2612"
    },
    {
      "channel": 2,
      "note": 92,
      "start": 28.1961,
      "duration": 0.0522,
      "velocity": 127,
      "chip": "ym2612"
    },
    {
      "channel": 2,
      "note": 92,
      "start": 28.2948,
      "duration": 0.0563,
      "velocity": 127,
      "chip": "ym2612"
    },
    {
      "channel": 0,
      "note": 45,
      "start": 28.3995,
      "duration": 0.2013,
      "velocity": 89,
      "chip": "ym2612"
    },
    {
      "channel": 3,
      "note": 60,
      "start": 28.4011,
      "duration": 0.1998,
      "velocity": 96,
      "chip": "ym2612"
    },
    {
      "channel": 1,
      "note": 76,
      "start": 28.4028,
      "duration": 0.1983,
      "velocity": 96,
      "chip": "ym2612"
    },
    {
      "channel": 4,
      "note": 79,
      "start": 28.4054,
      "duration": 0.1959,
      "velocity": 103,
      "chip": "ym2612"
    },
    {
      "channel": 2,
      "note": 92,
      "start": 28.4071,
      "duration": 0.0527,
      "velocity": 127,
      "chip": "ym2612"
    },
    {
      "channel": 5,
      "note": 39,
      "start": 28.4086,
      "duration": 0.0918,
      "velocity": 120,
      "chip": "ym2612"
    },
    {
      "channel": 2,
      "note": 92,
      "start": 28.5063,
      "duration": 0.0564,
      "velocity": 127,
      "chip": "ym2612"
    },
    {
      "channel": 3,
      "note": 72,
      "start": 28.6102,
      "duration": 0.2026,
      "velocity": 96,
      "chip": "ym2612"
    },
    {
      "channel": 1,
      "note": 79,
      "start": 28.6117,
      "duration": 0.2012,
      "velocity": 96,
      "chip": "ym2612"
    },
    {
      "channel": 4,
      "note": 79,
      "start": 28.6132,
      "duration": 0.1999,
      "velocity": 103,
      "chip": "ym2612"
    },
    {
      "channel": 2,
      "note": 92,
      "start": 28.6149,
      "duration": 0.0564,
      "velocity": 127,
      "chip": "ym2612"
    },
    {
      "channel": 5,
      "note": 40,
      "start": 28.6164,
      "duration": 0.0955,
      "velocity": 120,
      "chip": "ym2612"
    },
    {
      "channel": 2,
      "note": 92,
      "start": 28.7179,
      "duration": 0.0563,
      "velocity": 127,
      "chip": "ym2612"
    },
    {
      "channel": 0,
      "note": 40,
      "start": 28.8215,
      "duration": 0.2024,
      "velocity": 89,
      "chip": "ym2612"
    },
    {
      "channel": 3,
      "note": 72,
      "start": 28.8229,
      "duration": 0.2011,
      "velocity": 96,
      "chip": "ym2612"
    },
    {
      "channel": 1,
      "note": 79,
      "start": 28.8246,
      "duration": 0.1996,
      "velocity": 96,
      "chip": "ym2612"
    },
    {
      "channel": 4,
      "note": 78,
      "start": 28.8263,
      "duration": 0.198,
      "velocity": 103,
      "chip": "ym2612"
    },
    {
      "channel": 2,
      "note": 92,
      "start": 28.828,
      "duration": 0.0549,
      "velocity": 127,
      "chip": "ym2612"
    },
    {
      "channel": 2,
      "note": 92,
      "start": 28.9295,
      "duration": 0.0564,
      "velocity": 127,
      "chip": "ym2612"
    },
    {
      "channel": 3,
      "note": 59,
      "start": 29.0341,
      "duration": 0.0989,
      "velocity": 96,
      "chip": "ym2612"
    },
    {
      "channel": 1,
      "note": 66,
      "start": 29.0358,
      "duration": 0.0974,
      "velocity": 96,
      "chip": "ym2612"
    },
    {
      "channel": 4,
      "note": 77,
      "start": 29.0374,
      "duration": 0.1989,
      "velocity": 103,
      "chip": "ym2612"
    },
    {
      "channel": 2,
      "note": 92,
      "start": 29.0392,
      "duration": 0.0553,
      "velocity": 127,
      "chip": "ym2612"
    },
    {
      "channel": 5,
      "note": 39,
      "start": 29.0407,
      "duration": 0.0937,
      "velocity": 120,
      "chip": "ym2612"
    },
    {
      "channel": 3,
      "note": 71,
      "start": 29.1411,
      "duration": 0.0949,
      "velocity": 96,
      "chip": "ym2612"
    },
    {
      "channel": 1,
      "note": 78,
      "start": 29.1426,
      "duration": 0.0935,
      "velocity": 96,
      "chip": "ym2612"
    },
    {
      "channel": 2,
      "note": 92,
      "start": 29.1445,
      "duration": 0.0529,
      "velocity": 127,
      "chip": "ym2612"
    },
    {
      "channel": 5,
      "note": 41,
      "start": 29.146,
      "duration": 0.0909,
      "velocity": 120,
      "chip": "ym2612"
    },
    {
      "channel": 0,
      "note": 40,
      "start": 29.2432,
      "duration": 0.1981,
      "velocity": 89,
      "chip": "ym2612"
    },
    {
      "channel": 4,
      "note": 76,
      "start": 29.2457,
      "duration": 0.1961,
      "velocity": 103,
      "chip": "ym2612"
    },
    {
      "channel": 2,
      "note": 92,
      "start": 29.2475,
      "duration": 0.0529,
      "velocity": 127,
      "chip": "ym2612"
    },
    {
      "channel": 5,
      "note": 41,
      "start": 29.249,
      "duration": 0.092,
      "velocity": 120,
      "chip": "ym2612"
    },
    {
      "channel": 3,
      "note": 71,
      "start": 29.3467,
      "duration": 0.0949,
      "velocity": 96,
      "chip": "ym2612"
    },
    {
      "channel": 1,
      "note": 78,
      "start": 29.3481,
      "duration": 0.0935,
      "velocity": 96,
      "chip": "ym2612"
    },
    {
      "channel": 2,
      "note": 92,
      "start": 29.3501,
      "duration": 0.0532,
      "velocity": 127,
      "chip": "ym2612"
    },
    {
      "channel": 3,
      "note": 71,
      "start": 29.4509,
      "duration": 0.2025,
      "velocity": 96,
      "chip": "ym2612"
    },
    {
      "channel": 1,
      "note": 78,
      "start": 29.4526,
      "duration": 0.201,
      "velocity": 96,
      "chip": "ym2612"
    },
    {
      "channel": 4,
      "note": 75,
      "start": 29.4542,
      "duration": 0.1995,
      "velocity": 103,
      "chip": "ym2612"
    },
    {
      "channel": 2,
      "note": 92,
      "start": 29.4559,
      "duration": 0.056,
      "velocity": 127,
      "chip": "ym2612"
    },
    {
      "channel": 5,
      "note": 40,
      "start": 29.4584,
      "duration": 0.0941,
      "velocity": 120,
      "chip": "ym2612"
    },
    {
      "channel": 2,
      "note": 92,
      "start": 29.5585,
      "duration": 0.0563,
      "velocity": 127,
      "chip": "ym2612"
    },
    {
      "channel": 0,
      "note": 40,
      "start": 29.6619,
      "duration": 0.2026,
      "velocity": 89,
      "chip": "ym2612"
    },
    {
      "channel": 3,
      "note": 70,
      "start": 29.6633,
      "duration": 0.2013,
      "velocity": 96,
      "chip": "ym2612"
    },
    {
      "channel": 1,
      "note": 77,
      "start": 29.665,
      "duration": 0.1998,
      "velocity": 96,
      "chip": "ym2612"
    },
    {
      "channel": 4,
      "note": 74,
      "start": 29.6667,
      "duration": 0.1982,
      "velocity": 103,
      "chip": "ym2612"
    },
    {
      "channel": 2,
      "note": 92,
      "start": 29.6684,
      "duration": 0.055,
      "velocity": 127,
      "chip": "ym2612"
    },
    {
      "channel": 2,
      "note": 92,
      "start": 29.7701,
      "duration": 0.0563,
      "velocity": 127,
      "chip": "ym2612"
    },
    {
      "channel": 0,
      "note": 40,
      "start": 29.8755,
      "duration": 0.1605,
      "velocity": 89,
      "chip": "ym2612"
    },
    {
      "channel": 3,
      "note": 69,
      "start": 29.8771,
      "duration": 0.1994,
      "velocity": 96,
      "chip": "ym2612"
    },
    {
      "channel": 1,
      "note": 76,
      "start": 29.8788,
      "duration": 0.1978,
      "velocity": 96,
      "chip": "ym2612"
    },
    {
      "channel": 4,
      "note": 73,
      "start": 29.8803,
      "duration": 0.8141,
      "velocity": 103,
      "chip": "ym2612"
    },
    {
      "channel": 2,
      "note": 92,
      "start": 29.8822,
      "duration": 0.0529,
      "velocity": 127,
      "chip": "ym2612"
    },
    {
      "channel": 5,
      "note": 35,
      "start": 29.8846,
      "duration": 0.091,
      "velocity": 120,
      "chip": "ym2612"
    },
    {
      "channel": 2,
      "note": 92,
      "start": 29.9816,
      "duration": 0.0561,
      "velocity": 127,
      "chip": "ym2612"
    },
    {
      "channel": 0,
      "note": 45,
      "start": 30.0846,
      "duration": 0.1573,
      "velocity": 89,
      "chip": "ym2612"
    },
    {
      "channel": 3,
      "note": 60,
      "start": 30.086,
      "duration": 0.1964,
      "velocity": 96,
      "chip": "ym2612"
    },
    {
      "channel": 1,
      "note": 76,
      "start": 30.0877,
      "duration": 0.1949,
      "velocity": 96,
      "chip": "ym2612"
    },
    {
      "channel": 2,
      "note": 92,
      "start": 30.0899,
      "duration": 0.0511,
      "velocity": 127,
      "chip": "ym2612"
    },
    {
      "channel": 2,
      "note": 92,
      "start": 30.1876,
      "duration": 0.0559,
      "velocity": 127,
      "chip": "ym2612"
    },
    {
      "channel": 3,
      "note": 72,
      "start": 30.2912,
      "duration": 0.1971,
      "velocity": 96,
      "chip": "ym2612"
    },
    {
      "channel": 1,
      "note": 79,
      "start": 30.2927,
      "duration": 0.1957,
      "velocity": 96,
      "chip": "ym2612"
    },
    {
      "channel": 2,
      "note": 92,
      "start": 30.2946,
      "duration": 0.0522,
      "velocity": 127,
      "chip": "ym2612"
    },
    {
      "channel": 5,
      "note": 23,
      "start": 30.2961,
      "duration": 0.0912,
      "velocity": 120,
      "chip": "ym2612"
    },
    {
      "channel": 2,
      "note": 92,
      "start": 30.3933,
      "duration": 0.0564,
      "velocity": 127,
      "chip": "ym2612"
    },
    {
      "channel": 3,
      "note": 72,
      "start": 30.4958,
      "duration": 0.1983,
      "velocity": 96,
      "chip": "ym2612"
    },
    {
      "channel": 1,
      "note": 79,
      "start": 30.4976,
      "duration": 0.1967,
      "velocity": 96,
      "chip": "ym2612"
    },
    {
      "channel": 2,
      "note": 92,
      "start": 30.4997,
      "duration": 0.053,
      "velocity": 127,
      "chip": "ym2612"
    },
    {
      "channel": 2,
      "note": 92,
      "start": 30.6,
      "duration": 0.0555,
      "velocity": 127,
      "chip": "ym2612"
    },
    {
      "channel": 5,
      "note": 45,
      "start": 30.6016,
      "duration": 0.0935,
      "velocity": 120,
      "chip": "ym2612"
    },
    {
      "channel": 3,
      "note": 59,
      "start": 30.7028,
      "duration": 0.0999,
      "velocity": 96,
      "chip": "ym2612"
    },
    {
      "channel": 1,
      "note": 66,
      "start": 30.7046,
      "duration": 0.0983,
      "velocity": 96,
      "chip": "ym2612"
    },
    {
      "channel": 4,
      "note": 81,
      "start": 30.7062,
      "duration": 0.1998,
      "velocity": 103,
      "chip": "ym2612"
    },
    {
      "channel": 2,
      "note": 92,
      "start": 30.708,
      "duration": 0.0562,
      "velocity": 127,
      "chip": "ym2612"
    },
    {
      "channel": 5,
      "note": 25,
      "start": 30.7095,
      "duration": 0.0946,
      "velocity": 120,
      "chip": "ym2612"
    },
    {
      "channel": 3,
      "note": 71,
      "start": 30.8098,
      "duration": 0.0959,
      "velocity": 96,
      "chip": "ym2612"
    },
    {
      "channel": 1,
      "note": 78,
      "start": 30.8113,
      "duration": 0.0945,
      "velocity": 96,
      "chip": "ym2612"
    },
    {
      "channel": 2,
      "note": 92,
      "start": 30.8133,
      "duration": 0.0539,
      "velocity": 127,
      "chip": "ym2612"
    },
    {
      "channel": 4,
      "note": 79,
      "start": 30.9132,
      "duration": 0.1986,
      "velocity": 103,
      "chip": "ym2612"
    },
    {
      "channel": 2,
      "note": 92,
      "start": 30.915,
      "duration": 0.055,
      "velocity": 127,
      "chip": "ym2612"
    },
    {
      "channel": 3,
      "note": 71,
      "start": 31.0169,
      "duration": 0.0946,
      "velocity": 96,
      "chip": "ym2612"
    },
    {
      "channel": 1,
      "note": 78,
      "start": 31.0184,
      "duration": 0.0933,
      "velocity": 96,
      "chip": "ym2612"
    },
    {
      "channel": 2,
      "note": 92,
      "start": 31.0203,
      "duration": 0.0527,
      "velocity": 127,
      "chip": "ym2612"
    },
    {
      "channel": 3,
      "note": 71,
      "start": 31.1205,
      "duration": 0.2025,
      "velocity": 96,
      "chip": "ym2612"
    },
    {
      "channel": 1,
      "note": 78,
      "start": 31.1222,
      "duration": 0.201,
      "velocity": 96,
      "chip": "ym2612"
    },
    {
      "channel": 4,
      "note": 78,
      "start": 31.1239,
      "duration": 0.1995,
      "velocity": 103,
      "chip": "ym2612"
    },
    {
      "channel": 2,
      "note": 92,
      "start": 31.1256,
      "duration": 0.0561,
      "velocity": 127,
      "chip": "ym2612"
    },
    {
      "channel": 5,
      "note": 23,
      "start": 31.128,
      "duration": 0.0942,
      "velocity": 120,
      "chip": "ym2612"
    },
    {
      "channel": 2,
      "note": 92,
      "start": 31.2282,
      "duration": 0.0564,
      "velocity": 127,
      "chip": "ym2612"
    },
    {
      "channel": 3,
      "note": 70,
      "start": 31.3321,
      "duration": 0.2026,
      "velocity": 96,
      "chip": "ym2612"
    },
    {
      "channel": 1,
      "note": 77,
      "start": 31.3338,
      "duration": 0.201,
      "velocity": 96,
      "chip": "ym2612"
    },
    {
      "channel": 4,
      "note": 76,
      "start": 31.3355,
      "duration": 1.0283,
      "velocity": 103,
      "chip": "ym2612"
    },
    {
      "channel": 2,
      "note": 92,
      "start": 31.3372,
      "duration": 0.056,
      "velocity": 127,
      "chip": "ym2612"
    },
    {
      "channel": 5,
      "note": 35,
      "start": 31.3396,
      "duration": 0.0941,
      "velocity": 120,
      "chip": "ym2612"
    },
    {
      "channel": 2,
      "note": 92,
      "start": 31.4397,
      "duration": 0.0564,
      "velocity": 127,
      "chip": "ym2612"
    },
    {
      "channel": 2,
      "note": 92,
      "start": 31.5429,
      "duration": 0.0562,
      "velocity": 127,
      "chip": "ym2612"
    },
    {
      "channel": 2,
      "note": 92,
      "start": 31.6457,
      "duration": 0.0562,
      "velocity": 127,
      "chip": "ym2612"
    },
    {
      "channel": 0,
      "note": 45,
      "start": 31.7504,
      "duration": 0.2012,
      "velocity": 89,
      "chip": "ym2612"
    },
    {
      "channel": 3,
      "note": 69,
      "start": 31.7521,
      "duration": 0.16,
      "velocity": 96,
      "chip": "ym2612"
    },
    {
      "channel": 1,
      "note": 76,
      "start": 31.7539,
      "duration": 0.1583,
      "velocity": 96,
      "chip": "ym2612"
    },
    {
      "channel": 2,
      "note": 92,
      "start": 31.7561,
      "duration": 0.0545,
      "velocity": 127,
      "chip": "ym2612"
    },
    {
      "channel": 5,
      "note": 39,
      "start": 31.7576,
      "duration": 0.0936,
      "velocity": 120,
      "chip": "ym2612"
    },
    {
      "channel": 2,
      "note": 92,
      "start": 31.8572,
      "duration": 0.0556,
      "velocity": 127,
      "chip": "ym2612"
    },
    {
      "channel": 3,
      "note": 60,
      "start": 31.9611,
      "duration": 0.1568,
      "velocity": 96,
      "chip": "ym2612"
    },
    {
      "channel": 1,
      "note": 67,
      "start": 31.9626,
      "duration": 0.1554,
      "velocity": 96,
      "chip": "ym2612"
    },
    {
      "channel": 2,
      "note": 92,
      "start": 31.9645,
      "duration": 0.0519,
      "velocity": 127,
      "chip": "ym2612"
    },
    {
      "channel": 5,
      "note": 40,
      "start": 31.9661,
      "duration": 0.091,
      "velocity": 120,
      "chip": "ym2612"
    },
    {
      "channel": 2,
      "note": 92,
      "start": 32.063,
      "duration": 0.0557,
      "velocity": 127,
      "chip": "ym2612"
    },
    {
      "channel": 0,
      "note": 40,
      "start": 32.1668,
      "duration": 0.1966,
      "velocity": 89,
      "chip": "ym2612"
    },
    {
      "channel": 3,
      "note": 60,
      "start": 32.1682,
      "duration": 0.1952,
      "velocity": 96,
      "chip": "ym2612"
    },
    {
      "channel": 1,
      "note": 67,
      "start": 32.1699,
      "duration": 0.1937,
      "velocity": 96,
      "chip": "ym2612"
    },
    {
      "channel": 2,
      "note": 92,
      "start": 32.1719,
      "duration": 0.0504,
      "velocity": 127,
      "chip": "ym2612"
    },
    {
      "channel": 2,
      "note": 92,
      "start": 32.2689,
      "duration": 0.0564,
      "velocity": 127,
      "chip": "ym2612"
    },
    {
      "channel": 4,
      "note": 84,
      "start": 32.3727,
      "duration": 0.8258,
      "velocity": 103,
      "chip": "ym2612"
    },
    {
      "channel": 2,
      "note": 92,
      "start": 32.3745,
      "duration": 0.0537,
      "velocity": 127,
      "chip": "ym2612"
    },
    {
      "channel": 5,
      "note": 39,
      "start": 32.3759,
      "duration": 0.0928,
      "velocity": 120,
      "chip": "ym2612"
    },
    {
      "channel": 2,
      "note": 92,
      "start": 32.475,
      "duration": 0.0561,
      "velocity": 127,
      "chip": "ym2612"
    },
    {
      "channel": 5,
      "note": 41,
      "start": 32.4765,
      "duration": 0.0951,
      "velocity": 120,
      "chip": "ym2612"
    },
    {
      "channel": 0,
      "note": 40,
      "start": 32.5789,
      "duration": 0.2018,
      "velocity": 89,
      "chip": "ym2612"
    },
    {
      "channel": 3,
      "note": 60,
      "start": 32.5804,
      "duration": 0.1608,
      "velocity": 96,
      "chip": "ym2612"
    },
    {
      "channel": 1,
      "note": 67,
      "start": 32.5822,
      "duration": 0.1592,
      "velocity": 96,
      "chip": "ym2612"
    },
    {
      "channel": 2,
      "note": 92,
      "start": 32.5844,
      "duration": 0.0554,
      "velocity": 127,
      "chip": "ym2612"
    },
    {
      "channel": 5,
      "note": 41,
      "start": 32.5859,
      "duration": 0.0946,
      "velocity": 120,
      "chip": "ym2612"
    },
    {
      "channel": 2,
      "note": 92,
      "start": 32.6863,
      "duration": 0.0556,
      "velocity": 127,
      "chip": "ym2612"
    },
    {
      "channel": 3,
      "note": 62,
      "start": 32.7904,
      "duration": 0.1623,
      "velocity": 96,
      "chip": "ym2612"
    },
    {
      "channel": 1,
      "note": 69,
      "start": 32.792,
      "duration": 0.161,
      "velocity": 96,
      "chip": "ym2612"
    },
    {
      "channel": 2,
      "note": 92,
      "start": 32.7939,
      "duration": 0.0575,
      "velocity": 127,
      "chip": "ym2612"
    },
    {
      "channel": 5,
      "note": 40,
      "start": 32.7963,
      "duration": 0.0956,
      "velocity": 120,
      "chip": "ym2612"
    },
    {
      "channel": 2,
      "note": 92,
      "start": 32.8979,
      "duration": 0.0557,
      "velocity": 127,
      "chip": "ym2612"
    },
    {
      "channel": 0,
      "note": 40,
      "start": 33.0014,
      "duration": 0.1967,
      "velocity": 89,
      "chip": "ym2612"
    },
    {
      "channel": 3,
      "note": 62,
      "start": 33.0029,
      "duration": 0.1954,
      "velocity": 96,
      "chip": "ym2612"
    },
    {
      "channel": 1,
      "note": 69,
      "start": 33.0045,
      "duration": 0.1939,
      "velocity": 96,
      "chip": "ym2612"
    },
    {
      "channel": 2,
      "note": 92,
      "start": 33.0066,
      "duration": 0.0506,
      "velocity": 127,
      "chip": "ym2612"
    },
    {
      "channel": 2,
      "note": 92,
      "start": 33.1037,
      "duration": 0.0564,
      "velocity": 127,
      "chip": "ym2612"
    },
    {
      "channel": 0,
      "note": 40,
      "start": 33.2088,
      "duration": 0.2009,
      "velocity": 89,
      "chip": "ym2612"
    },
    {
      "channel": 1,
      "note": 69,
      "start": 33.2119,
      "duration": 0.8164,
      "velocity": 103,
      "chip": "ym2612"
    },
    {
      "channel": 4,
      "note": 86,
      "start": 33.2138,
      "duration": 0.8146,
      "velocity": 103,
      "chip": "ym2612"
    },
    {
      "channel": 5,
      "note": 35,
      "start": 33.217,
      "duration": 0.4015,
      "velocity": 120,
      "chip": "ym2612"
    },
    {
      "channel": 0,
      "note": 45,
      "start": 33.6236,
      "duration": 0.1978,
      "velocity": 89,
      "chip": "ym2612"
    },
    {
      "channel": 5,
      "note": 23,
      "start": 33.6271,
      "duration": 0.2999,
      "velocity": 120,
      "chip": "ym2612"
    },
    {
      "channel": 5,
      "note": 45,
      "start": 33.9336,
      "duration": 0.0955,
      "velocity": 120,
      "chip": "ym2612"
    },
    {
      "channel": 0,
      "note": 48,
      "start": 34.0357,
      "duration": 0.3004,
      "velocity": 89,
      "chip": "ym2612"
    },
    {
      "channel": 1,
      "note": 84,
      "start": 34.0378,
      "duration": 0.8139,
      "velocity": 103,
      "chip": "ym2612"
    },
    {
      "channel": 4,
      "note": 88,
      "start": 34.0395,
      "duration": 0.8123,
      "velocity": 103,
      "chip": "ym2612"
    },
    {
      "channel": 5,
      "note": 25,
      "start": 34.0418,
      "duration": 0.3998,
      "velocity": 120,
      "chip": "ym2612"
    },
    {
      "channel": 0,
      "note": 51,
      "start": 34.3435,
      "duration": 0.0955,
      "velocity": 89,
      "chip": "ym2612"
    },
    {
      "channel": 5,
      "note": 23,
      "start": 34.4493,
      "duration": 0.0952,
      "velocity": 120,
      "chip": "ym2612"
    },
    {
      "channel": 0,
      "note": 48,
      "start": 34.6529,
      "duration": 0.4036,
      "velocity": 89,
      "chip": "ym2612"
    },
    {
      "channel": 5,
      "note": 35,
      "start": 34.6575,
      "duration": 0.195,
      "velocity": 120,
      "chip": "ym2612"
    },
    {
      "channel": 1,
      "note": 83,
      "start": 34.8595,
      "duration": 0.4039,
      "velocity": 103,
      "chip": "ym2612"
    },
    {
      "channel": 4,
      "note": 87,
      "start": 34.8612,
      "duration": 0.4023,
      "velocity": 103,
      "chip": "ym2612"
    },
    {
      "channel": 0,
      "note": 45,
      "start": 35.0642,
      "duration": 0.0952,
      "velocity": 89,
      "chip": "ym2612"
    },
    {
      "channel": 5,
      "note": 39,
      "start": 35.0677,
      "duration": 0.1966,
      "velocity": 120,
      "chip": "ym2612"
    },
    {
      "channel": 0,
      "note": 45,
      "start": 35.2713,
      "duration": 0.094,
      "velocity": 89,
      "chip": "ym2612"
    },
    {
      "channel": 1,
      "note": 84,
      "start": 35.2735,
      "duration": 0.4016,
      "velocity": 103,
      "chip": "ym2612"
    },
    {
      "channel": 4,
      "note": 88,
      "start": 35.2752,
      "duration": 0.4,
      "velocity": 103,
      "chip": "ym2612"
    },
    {
      "channel": 5,
      "note": 40,
      "start": 35.2775,
      "duration": 0.3985,
      "velocity": 120,
      "chip": "ym2612"
    },
    {
      "channel": 0,
      "note": 55,
      "start": 35.3719,
      "duration": 0.0964,
      "velocity": 89,
      "chip": "ym2612"
    },
    {
      "channel": 0,
      "note": 54,
      "start": 35.475,
      "duration": 0.0962,
      "velocity": 89,
      "chip": "ym2612"
    },
    {
      "channel": 0,
      "note": 55,
      "start": 35.6834,
      "duration": 0.0936,
      "velocity": 89,
      "chip": "ym2612"
    },
    {
      "channel": 1,
      "note": 83,
      "start": 35.6856,
      "duration": 0.4012,
      "velocity": 103,
      "chip": "ym2612"
    },
    {
      "channel": 4,
      "note": 87,
      "start": 35.6873,
      "duration": 0.3996,
      "velocity": 103,
      "chip": "ym2612"
    },
    {
      "channel": 5,
      "note": 39,
      "start": 35.6895,
      "duration": 0.0897,
      "velocity": 120,
      "chip": "ym2612"
    },
    {
      "channel": 5,
      "note": 41,
      "start": 35.786,
      "duration": 0.0965,
      "velocity": 120,
      "chip": "ym2612"
    },
    {
      "channel": 5,
      "note": 41,
      "start": 35.8891,
      "duration": 0.1985,
      "velocity": 120,
      "chip": "ym2612"
    },
    {
      "channel": 0,
      "note": 52,
      "start": 35.9906,
      "duration": 0.301,
      "velocity": 89,
      "chip": "ym2612"
    },
    {
      "channel": 1,
      "note": 84,
      "start": 36.0948,
      "duration": 0.4034,
      "velocity": 103,
      "chip": "ym2612"
    },
    {
      "channel": 4,
      "note": 88,
      "start": 36.0965,
      "duration": 0.4019,
      "velocity": 103,
      "chip": "ym2612"
    },
    {
      "channel": 5,
      "note": 40,
      "start": 36.0997,
      "duration": 0.0916,
      "velocity": 120,
      "chip": "ym2612"
    },
    {
      "channel": 0,
      "note": 51,
      "start": 36.2983,
      "duration": 0.1992,
      "velocity": 89,
      "chip": "ym2612"
    },
    {
      "channel": 0,
      "note": 48,
      "start": 36.5077,
      "duration": 0.2013,
      "velocity": 89,
      "chip": "ym2612"
    },
    {
      "channel": 1,
      "note": 88,
      "start": 36.51,
      "duration": 0.0972,
      "velocity": 103,
      "chip": "ym2612"
    },
    {
      "channel": 4,
      "note": 91,
      "start": 36.5117,
      "duration": 0.0956,
      "velocity": 103,
      "chip": "ym2612"
    },
    {
      "channel": 5,
      "note": 35,
      "start": 36.5147,
      "duration": 0.4026,
      "velocity": 120,
      "chip": "ym2612"
    },
    {
      "channel": 1,
      "note": 84,
      "start": 36.6146,
      "duration": 0.0951,
      "velocity": 103,
      "chip": "ym2612"
    },
    {
      "channel": 4,
      "note": 88,
      "start": 36.6163,
      "duration": 0.0936,
      "velocity": 103,
      "chip": "ym2612"
    },
    {
      "channel": 1,
      "note": 84,
      "start": 36.7173,
      "duration": 0.0957,
      "velocity": 103,
      "chip": "ym2612"
    },
    {
      "channel": 4,
      "note": 88,
      "start": 36.719,
      "duration": 0.0941,
      "velocity": 103,
      "chip": "ym2612"
    }
  ]
}