{
  "track_name": "06 - Cannibal Boss Intro",
  "duration_sec": 33.161,
  "sample_rate": 44100,
  "note_count": 1156,
  "unique_pitches": 36,
  "pitch_range": 45,
  "avg_note_duration": 0.1504,
  "reconstruction_stats": {
    "notes_reconstructed": 1156,
    "keyon_events": 1156,
    "keyoff_events": 1151,
    "orphan_keyons": 5,
    "unique_pitches": 36,
    "pitch_range": 45,
    "avg_duration_sec": 0.1504
  },
  "metadata": {
    "source": "S\\Splatterhouse 3\\06 - Cannibal Boss Intro.vgz"
  },
  "notes": [
    {
      "channel": 0,
      "note": 69,
      "start": 0.0,
      "duration": 0.1619,
      "velocity": 104,
      "chip": "ym2612"
    },
    {
      "channel": 1,
      "note": 57,
      "start": 0.0031,
      "duration": 0.1597,
      "velocity": 102,
      "chip": "ym2612"
    },
    {
      "channel": 2,
      "note": 84,
      "start": 0.0067,
      "duration": 0.0709,
      "velocity": 102,
      "chip": "ym2612"
    },
    {
      "channel": 2,
      "note": 83,
      "start": 0.0777,
      "duration": 0.0861,
      "velocity": 102,
      "chip": "ym2612"
    },
    {
      "channel": 0,
      "note": 65,
      "start": 0.162,
      "duration": 0.1657,
      "velocity": 104,
      "chip": "ym2612"
    },
    {
      "channel": 1,
      "note": 57,
      "start": 0.1629,
      "duration": 0.1657,
      "velocity": 102,
      "chip": "ym2612"
    },
    {
      "channel": 2,
      "note": 80,
      "start": 0.1639,
      "duration": 0.0805,
      "velocity": 102,
      "chip": "ym2612"
    },
    {
      "channel": 4,
      "note": 69,
      "start": 0.1677,
      "duration": 0.163,
      "velocity": 104,
      "chip": "ym2612"
    },
    {
      "channel": 2,
      "note": 81,
      "start": 0.2444,
      "duration": 0.0852,
      "velocity": 102,
      "chip": "ym2612"
    },
    {
      "channel": 0,
      "note": 64,
      "start": 0.3278,
      "duration": 0.1664,
      "velocity": 104,
      "chip": "ym2612"
    },
    {
      "channel": 1,
      "note": 57,
      "start": 0.3287,
      "duration": 0.1664,
      "velocity": 102,
      "chip": "ym2612"
    },
    {
      "channel": 2,
      "note": 77,
      "start": 0.3297,
      "duration": 0.0813,
      "velocity": 102,
      "chip": "ym2612"
    },
    {
      "channel": 4,
      "note": 65,
      "start": 0.3308,
      "duration": 0.1663,
      "velocity": 104,
      "chip": "ym2612"
    },
    {
      "channel": 2,
      "note": 76,
      "start": 0.4111,
      "duration": 0.085,
      "velocity": 102,
      "chip": "ym2612"
    },
    {
      "channel": 0,
      "note": 68,
      "start": 0.4943,
      "duration": 0.1669,
      "velocity": 104,
      "chip": "ym2612"
    },
    {
      "channel": 1,
      "note": 57,
      "start": 0.4952,
      "duration": 0.1669,
      "velocity": 102,
      "chip": "ym2612"
    },
    {
      "channel": 2,
      "note": 72,
      "start": 0.4962,
      "duration": 0.0814,
      "velocity": 102,
      "chip": "ym2612"
    },
    {
      "channel": 4,
      "note": 64,
      "start": 0.4973,
      "duration": 0.1668,
      "velocity": 104,
      "chip": "ym2612"
    },
    {
      "channel": 2,
      "note": 71,
      "start": 0.5777,
      "duration": 0.0854,
      "velocity": 102,
      "chip": "ym2612"
    },
    {
      "channel": 0,
      "note": 69,
      "start": 0.6612,
      "duration": 0.1666,
      "velocity": 104,
      "chip": "ym2612"
    },
    {
      "channel": 1,
      "note": 57,
      "start": 0.6622,
      "duration": 0.1666,
      "velocity": 102,
      "chip": "ym2612"
    },
    {
      "channel": 2,
      "note": 84,
      "start": 0.6632,
      "duration": 0.0812,
      "velocity": 102,
      "chip": "ym2612"
    },
    {
      "channel": 4,
      "note": 68,
      "start": 0.6642,
      "duration": 0.1665,
      "velocity": 104,
      "chip": "ym2612"
    },
    {
      "channel": 2,
      "note": 83,
      "start": 0.7444,
      "duration": 0.0853,
      "velocity": 102,
      "chip": "ym2612"
    },
    {
      "channel": 0,
      "note": 65,
      "start": 0.8279,
      "duration": 0.1665,
      "velocity": 104,
      "chip": "ym2612"
    },
    {
      "channel": 1,
      "note": 57,
      "start": 0.8289,
      "duration": 0.1665,
      "velocity": 102,
      "chip": "ym2612"
    },
    {
      "channel": 2,
      "note": 80,
      "start": 0.8298,
      "duration": 0.0812,
      "velocity": 102,
      "chip": "ym2612"
    },
    {
      "channel": 4,
      "note": 69,
      "start": 0.8309,
      "duration": 0.1665,
      "velocity": 104,
      "chip": "ym2612"
    },
    {
      "channel": 2,
      "note": 81,
      "start": 0.9111,
      "duration": 0.0852,
      "velocity": 102,
      "chip": "ym2612"
    },
    {
      "channel": 0,
      "note": 64,
      "start": 0.9945,
      "duration": 0.1664,
      "velocity": 104,
      "chip": "ym2612"
    },
    {
      "channel": 1,
      "note": 57,
      "start": 0.9955,
      "duration": 0.1664,
      "velocity": 102,
      "chip": "ym2612"
    },
    {
      "channel": 2,
      "note": 77,
      "start": 0.9964,
      "duration": 0.0812,
      "velocity": 102,
      "chip": "ym2612"
    },
    {
      "channel": 4,
      "note": 65,
      "start": 0.9975,
      "duration": 0.1663,
      "velocity": 104,
      "chip": "ym2612"
    },
    {
      "channel": 2,
      "note": 76,
      "start": 1.0778,
      "duration": 0.0851,
      "velocity": 102,
      "chip": "ym2612"
    },
    {
      "channel": 0,
      "note": 68,
      "start": 1.161,
      "duration": 0.167,
      "velocity": 104,
      "chip": "ym2612"
    },
    {
      "channel": 1,
      "note": 57,
      "start": 1.162,
      "duration": 0.167,
      "velocity": 102,
      "chip": "ym2612"
    },
    {
      "channel": 2,
      "note": 72,
      "start": 1.1629,
      "duration": 0.0814,
      "velocity": 102,
      "chip": "ym2612"
    },
    {
      "channel": 4,
      "note": 64,
      "start": 1.164,
      "duration": 0.1674,
      "velocity": 104,
      "chip": "ym2612"
    },
    {
      "channel": 2,
      "note": 71,
      "start": 1.2444,
      "duration": 0.0854,
      "velocity": 102,
      "chip": "ym2612"
    },
    {
      "channel": 0,
      "note": 69,
      "start": 1.3281,
      "duration": 0.1665,
      "velocity": 104,
      "chip": "ym2612"
    },
    {
      "channel": 1,
      "note": 57,
      "start": 1.329,
      "duration": 0.1665,
      "velocity": 102,
      "chip": "ym2612"
    },
    {
      "channel": 2,
      "note": 84,
      "start": 1.33,
      "duration": 0.081,
      "velocity": 102,
      "chip": "ym2612"
    },
    {
      "channel": 4,
      "note": 68,
      "start": 1.3315,
      "duration": 0.166,
      "velocity": 104,
      "chip": "ym2612"
    },
    {
      "channel": 2,
      "note": 83,
      "start": 1.4111,
      "duration": 0.0854,
      "velocity": 102,
      "chip": "ym2612"
    },
    {
      "channel": 0,
      "note": 65,
      "start": 1.4947,
      "duration": 0.1664,
      "velocity": 104,
      "chip": "ym2612"
    },
    {
      "channel": 1,
      "note": 57,
      "start": 1.4956,
      "duration": 0.1664,
      "velocity": 102,
      "chip": "ym2612"
    },
    {
      "channel": 2,
      "note": 80,
      "start": 1.4966,
      "duration": 0.081,
      "velocity": 102,
      "chip": "ym2612"
    },
    {
      "channel": 4,
      "note": 69,
      "start": 1.4977,
      "duration": 0.1663,
      "velocity": 104,
      "chip": "ym2612"
    },
    {
      "channel": 2,
      "note": 81,
      "start": 1.5778,
      "duration": 0.0852,
      "velocity": 102,
      "chip": "ym2612"
    },
    {
      "channel": 0,
      "note": 64,
      "start": 1.6612,
      "duration": 0.1664,
      "velocity": 104,
      "chip": "ym2612"
    },
    {
      "channel": 1,
      "note": 57,
      "start": 1.6621,
      "duration": 0.1664,
      "velocity": 102,
      "chip": "ym2612"
    },
    {
      "channel": 2,
      "note": 77,
      "start": 1.6631,
      "duration": 0.0812,
      "velocity": 102,
      "chip": "ym2612"
    },
    {
      "channel": 4,
      "note": 65,
      "start": 1.6642,
      "duration": 0.1663,
      "velocity": 104,
      "chip": "ym2612"
    },
    {
      "channel": 2,
      "note": 76,
      "start": 1.7444,
      "duration": 0.0851,
      "velocity": 102,
      "chip": "ym2612"
    },
    {
      "channel": 0,
      "note": 68,
      "start": 1.8277,
      "duration": 0.1669,
      "velocity": 104,
      "chip": "ym2612"
    },
    {
      "channel": 1,
      "note": 57,
      "start": 1.8286,
      "duration": 0.1669,
      "velocity": 102,
      "chip": "ym2612"
    },
    {
      "channel": 2,
      "note": 72,
      "start": 1.8296,
      "duration": 0.0814,
      "velocity": 102,
      "chip": "ym2612"
    },
    {
      "channel": 4,
      "note": 64,
      "start": 1.8306,
      "duration": 0.1669,
      "velocity": 104,
      "chip": "ym2612"
    },
    {
      "channel": 2,
      "note": 71,
      "start": 1.911,
      "duration": 0.0854,
      "velocity": 102,
      "chip": "ym2612"
    },
    {
      "channel": 0,
      "note": 69,
      "start": 1.9946,
      "duration": 0.1665,
      "velocity": 104,
      "chip": "ym2612"
    },
    {
      "channel": 1,
      "note": 57,
      "start": 1.9956,
      "duration": 0.1665,
      "velocity": 102,
      "chip": "ym2612"
    },
    {
      "channel": 2,
      "note": 84,
      "start": 1.9966,
      "duration": 0.0811,
      "velocity": 102,
      "chip": "ym2612"
    },
    {
      "channel": 4,
      "note": 68,
      "start": 1.9976,
      "duration": 0.1665,
      "velocity": 104,
      "chip": "ym2612"
    },
    {
      "channel": 2,
      "note": 83,
      "start": 2.0778,
      "duration": 0.0853,
      "velocity": 102,
      "chip": "ym2612"
    },
    {
      "channel": 0,
      "note": 65,
      "start": 2.1612,
      "duration": 0.1665,
      "velocity": 104,
      "chip": "ym2612"
    },
    {
      "channel": 1,
      "note": 57,
      "start": 2.1622,
      "duration": 0.1665,
      "velocity": 102,
      "chip": "ym2612"
    },
    {
      "channel": 2,
      "note": 80,
      "start": 2.1632,
      "duration": 0.0812,
      "velocity": 102,
      "chip": "ym2612"
    },
    {
      "channel": 4,
      "note": 69,
      "start": 2.1642,
      "duration": 0.1665,
      "velocity": 104,
      "chip": "ym2612"
    },
    {
      "channel": 2,
      "note": 81,
      "start": 2.2444,
      "duration": 0.0852,
      "velocity": 102,
      "chip": "ym2612"
    },
    {
      "channel": 0,
      "note": 64,
      "start": 2.3278,
      "duration": 0.1664,
      "velocity": 104,
      "chip": "ym2612"
    },
    {
      "channel": 1,
      "note": 57,
      "start": 2.3288,
      "duration": 0.1664,
      "velocity": 102,
      "chip": "ym2612"
    },
    {
      "channel": 2,
      "note": 77,
      "start": 2.3298,
      "duration": 0.0812,
      "velocity": 102,
      "chip": "ym2612"
    },
    {
      "channel": 4,
      "note": 65,
      "start": 2.3308,
      "duration": 0.1663,
      "velocity": 104,
      "chip": "ym2612"
    },
    {
      "channel": 2,
      "note": 76,
      "start": 2.4111,
      "duration": 0.0851,
      "velocity": 102,
      "chip": "ym2612"
    },
    {
      "channel": 0,
      "note": 68,
      "start": 2.4943,
      "duration": 0.1671,
      "velocity": 104,
      "chip": "ym2612"
    },
    {
      "channel": 1,
      "note": 57,
      "start": 2.4953,
      "duration": 0.1671,
      "velocity": 102,
      "chip": "ym2612"
    },
    {
      "channel": 2,
      "note": 72,
      "start": 2.4962,
      "duration": 0.0814,
      "velocity": 102,
      "chip": "ym2612"
    },
    {
      "channel": 4,
      "note": 64,
      "start": 2.4973,
      "duration": 0.1676,
      "velocity": 104,
      "chip": "ym2612"
    },
    {
      "channel": 2,
      "note": 71,
      "start": 2.5778,
      "duration": 0.0856,
      "velocity": 102,
      "chip": "ym2612"
    },
    {
      "channel": 0,
      "note": 70,
      "start": 2.6616,
      "duration": 0.1663,
      "velocity": 104,
      "chip": "ym2612"
    },
    {
      "channel": 1,
      "note": 58,
      "start": 2.6625,
      "duration": 0.1663,
      "velocity": 102,
      "chip": "ym2612"
    },
    {
      "channel": 2,
      "note": 84,
      "start": 2.6635,
      "duration": 0.0809,
      "velocity": 102,
      "chip": "ym2612"
    },
    {
      "channel": 4,
      "note": 68,
      "start": 2.6649,
      "duration": 0.1659,
      "velocity": 104,
      "chip": "ym2612"
    },
    {
      "channel": 2,
      "note": 83,
      "start": 2.7444,
      "duration": 0.0854,
      "velocity": 102,
      "chip": "ym2612"
    },
    {
      "channel": 0,
      "note": 65,
      "start": 2.828,
      "duration": 0.1663,
      "velocity": 104,
      "chip": "ym2612"
    },
    {
      "channel": 1,
      "note": 58,
      "start": 2.8289,
      "duration": 0.1663,
      "velocity": 102,
      "chip": "ym2612"
    },
    {
      "channel": 2,
      "note": 75,
      "start": 2.8299,
      "duration": 0.0811,
      "velocity": 102,
      "chip": "ym2612"
    },
    {
      "channel": 4,
      "note": 70,
      "start": 2.831,
      "duration": 0.1663,
      "velocity": 104,
      "chip": "ym2612"
    },
    {
      "channel": 2,
      "note": 74,
      "start": 2.9111,
      "duration": 0.0851,
      "velocity": 102,
      "chip": "ym2612"
    },
    {
      "channel": 0,
      "note": 64,
      "start": 2.9944,
      "duration": 0.1665,
      "velocity": 104,
      "chip": "ym2612"
    },
    {
      "channel": 1,
      "note": 58,
      "start": 2.9953,
      "duration": 0.1665,
      "velocity": 102,
      "chip": "ym2612"
    },
    {
      "channel": 2,
      "note": 71,
      "start": 2.9963,
      "duration": 0.0814,
      "velocity": 102,
      "chip": "ym2612"
    },
    {
      "channel": 4,
      "note": 65,
      "start": 2.9974,
      "duration": 0.1665,
      "velocity": 104,
      "chip": "ym2612"
    },
    {
      "channel": 2,
      "note": 72,
      "start": 3.0778,
      "duration": 0.085,
      "velocity": 102,
      "chip": "ym2612"
    },
    {
      "channel": 0,
      "note": 68,
      "start": 3.1609,
      "duration": 0.1669,
      "velocity": 104,
      "chip": "ym2612"
    },
    {
      "channel": 1,
      "note": 58,
      "start": 3.1619,
      "duration": 0.1669,
      "velocity": 102,
      "chip": "ym2612"
    },
    {
      "channel": 2,
      "note": 68,
      "start": 3.1628,
      "duration": 0.0815,
      "velocity": 102,
      "chip": "ym2612"
    },
    {
      "channel": 4,
      "note": 64,
      "start": 3.1639,
      "duration": 0.1668,
      "velocity": 104,
      "chip": "ym2612"
    },
    {
      "channel": 2,
      "note": 69,
      "start": 3.2444,
      "duration": 0.0853,
      "velocity": 102,
      "chip": "ym2612"
    },
    {
      "channel": 0,
      "note": 70,
      "start": 3.3279,
      "duration": 0.1666,
      "velocity": 104,
      "chip": "ym2612"
    },
    {
      "channel": 1,
      "note": 58,
      "start": 3.3289,
      "duration": 0.1666,
      "velocity": 102,
      "chip": "ym2612"
    },
    {
      "channel": 2,
      "note": 84,
      "start": 3.3298,
      "duration": 0.0812,
      "velocity": 102,
      "chip": "ym2612"
    },
    {
      "channel": 4,
      "note": 68,
      "start": 3.3309,
      "duration": 0.1665,
      "velocity": 104,
      "chip": "ym2612"
    },
    {
      "channel": 2,
      "note": 83,
      "start": 3.4111,
      "duration": 0.0853,
      "velocity": 102,
      "chip": "ym2612"
    },
    {
      "channel": 0,
      "note": 65,
      "start": 3.4946,
      "duration": 0.1665,
      "velocity": 104,
      "chip": "ym2612"
    },
    {
      "channel": 1,
      "note": 58,
      "start": 3.4955,
      "duration": 0.1665,
      "velocity": 102,
      "chip": "ym2612"
    },
    {
      "channel": 2,
      "note": 75,
      "start": 3.4965,
      "duration": 0.0812,
      "velocity": 102,
      "chip": "ym2612"
    },
    {
      "channel": 4,
      "note": 70,
      "start": 3.4976,
      "duration": 0.1664,
      "velocity": 104,
      "chip": "ym2612"
    },
    {
      "channel": 2,
      "note": 74,
      "start": 3.5778,
      "duration": 0.0852,
      "velocity": 102,
      "chip": "ym2612"
    },
    {
      "channel": 0,
      "note": 64,
      "start": 3.6611,
      "duration": 0.1665,
      "velocity": 104,
      "chip": "ym2612"
    },
    {
      "channel": 1,
      "note": 58,
      "start": 3.6621,
      "duration": 0.1665,
      "velocity": 102,
      "chip": "ym2612"
    },
    {
      "channel": 2,
      "note": 71,
      "start": 3.663,
      "duration": 0.0813,
      "velocity": 102,
      "chip": "ym2612"
    },
    {
      "channel": 4,
      "note": 65,
      "start": 3.6641,
      "duration": 0.1664,
      "velocity": 104,
      "chip": "ym2612"
    },
    {
      "channel": 2,
      "note": 72,
      "start": 3.7444,
      "duration": 0.0851,
      "velocity": 102,
      "chip": "ym2612"
    },
    {
      "channel": 0,
      "note": 68,
      "start": 3.8277,
      "duration": 0.167,
      "velocity": 104,
      "chip": "ym2612"
    },
    {
      "channel": 1,
      "note": 58,
      "start": 3.8286,
      "duration": 0.167,
      "velocity": 102,
      "chip": "ym2612"
    },
    {
      "channel": 2,
      "note": 68,
      "start": 3.8296,
      "duration": 0.0814,
      "velocity": 102,
      "chip": "ym2612"
    },
    {
      "channel": 4,
      "note": 64,
      "start": 3.8306,
      "duration": 0.1674,
      "velocity": 104,
      "chip": "ym2612"
    },
    {
      "channel": 2,
      "note": 69,
      "start": 3.9111,
      "duration": 0.0854,
      "velocity": 102,
      "chip": "ym2612"
    },
    {
      "channel": 0,
      "note": 70,
      "start": 3.9948,
      "duration": 0.1665,
      "velocity": 104,
      "chip": "ym2612"
    },
    {
      "channel": 1,
      "note": 58,
      "start": 3.9957,
      "duration": 0.1665,
      "velocity": 102,
      "chip": "ym2612"
    },
    {
      "channel": 2,
      "note": 84,
      "start": 3.9967,
      "duration": 0.081,
      "velocity": 102,
      "chip": "ym2612"
    },
    {
      "channel": 4,
      "note": 68,
      "start": 3.9982,
      "duration": 0.166,
      "velocity": 104,
      "chip": "ym2612"
    },
    {
      "channel": 2,
      "note": 83,
      "start": 4.0778,
      "duration": 0.0854,
      "velocity": 102,
      "chip": "ym2612"
    },
    {
      "channel": 0,
      "note": 65,
      "start": 4.1614,
      "duration": 0.1663,
      "velocity": 104,
      "chip": "ym2612"
    },
    {
      "channel": 1,
      "note": 58,
      "start": 4.1623,
      "duration": 0.1663,
      "velocity": 102,
      "chip": "ym2612"
    },
    {
      "channel": 2,
      "note": 75,
      "start": 4.1633,
      "duration": 0.081,
      "velocity": 102,
      "chip": "ym2612"
    },
    {
      "channel": 4,
      "note": 70,
      "start": 4.1644,
      "duration": 0.1663,
      "velocity": 104,
      "chip": "ym2612"
    },
    {
      "channel": 2,
      "note": 74,
      "start": 4.2444,
      "duration": 0.0852,
      "velocity": 102,
      "chip": "ym2612"
    },
    {
      "channel": 0,
      "note": 64,
      "start": 4.3278,
      "duration": 0.1665,
      "velocity": 104,
      "chip": "ym2612"
    },
    {
      "channel": 1,
      "note": 58,
      "start": 4.3287,
      "duration": 0.1665,
      "velocity": 102,
      "chip": "ym2612"
    },
    {
      "channel": 2,
      "note": 71,
      "start": 4.3297,
      "duration": 0.0813,
      "velocity": 102,
      "chip": "ym2612"
    },
    {
      "channel": 4,
      "note": 65,
      "start": 4.3308,
      "duration": 0.1664,
      "velocity": 104,
      "chip": "ym2612"
    },
    {
      "channel": 2,
      "note": 72,
      "start": 4.4111,
      "duration": 0.0851,
      "velocity": 102,
      "chip": "ym2612"
    },
    {
      "channel": 0,
      "note": 68,
      "start": 4.4943,
      "duration": 0.1669,
      "velocity": 104,
      "chip": "ym2612"
    },
    {
      "channel": 1,
      "note": 58,
      "start": 4.4953,
      "duration": 0.1669,
      "velocity": 102,
      "chip": "ym2612"
    },
    {
      "channel": 2,
      "note": 68,
      "start": 4.4962,
      "duration": 0.0814,
      "velocity": 102,
      "chip": "ym2612"
    },
    {
      "channel": 4,
      "note": 64,
      "start": 4.4973,
      "duration": 0.1669,
      "velocity": 104,
      "chip": "ym2612"
    },
    {
      "channel": 2,
      "note": 69,
      "start": 4.5778,
      "duration": 0.0854,
      "velocity": 102,
      "chip": "ym2612"
    },
    {
      "channel": 0,
      "note": 70,
      "start": 4.6613,
      "duration": 0.1665,
      "velocity": 104,
      "chip": "ym2612"
    },
    {
      "channel": 1,
      "note": 58,
      "start": 4.6623,
      "duration": 0.1665,
      "velocity": 102,
      "chip": "ym2612"
    },
    {
      "channel": 2,
      "note": 84,
      "start": 4.6632,
      "duration": 0.0811,
      "velocity": 102,
      "chip": "ym2612"
    },
    {
      "channel": 4,
      "note": 68,
      "start": 4.6643,
      "duration": 0.1665,
      "velocity": 104,
      "chip": "ym2612"
    },
    {
      "channel": 2,
      "note": 83,
      "start": 4.7444,
      "duration": 0.0853,
      "velocity": 102,
      "chip": "ym2612"
    },
    {
      "channel": 0,
      "note": 65,
      "start": 4.8279,
      "duration": 0.1665,
      "velocity": 104,
      "chip": "ym2612"
    },
    {
      "channel": 1,
      "note": 58,
      "start": 4.8289,
      "duration": 0.1665,
      "velocity": 102,
      "chip": "ym2612"
    },
    {
      "channel": 2,
      "note": 75,
      "start": 4.8298,
      "duration": 0.0812,
      "velocity": 102,
      "chip": "ym2612"
    },
    {
      "channel": 4,
      "note": 70,
      "start": 4.8309,
      "duration": 0.1664,
      "velocity": 104,
      "chip": "ym2612"
    },
    {
      "channel": 2,
      "note": 74,
      "start": 4.9111,
      "duration": 0.0852,
      "velocity": 102,
      "chip": "ym2612"
    },
    {
      "channel": 0,
      "note": 64,
      "start": 4.9944,
      "duration": 0.1666,
      "velocity": 104,
      "chip": "ym2612"
    },
    {
      "channel": 1,
      "note": 58,
      "start": 4.9954,
      "duration": 0.1666,
      "velocity": 102,
      "chip": "ym2612"
    },
    {
      "channel": 2,
      "note": 71,
      "start": 4.9963,
      "duration": 0.0813,
      "velocity": 102,
      "chip": "ym2612"
    },
    {
      "channel": 4,
      "note": 65,
      "start": 4.9974,
      "duration": 0.1665,
      "velocity": 104,
      "chip": "ym2612"
    },
    {
      "channel": 2,
      "note": 72,
      "start": 5.0778,
      "duration": 0.0851,
      "velocity": 102,
      "chip": "ym2612"
    },
    {
      "channel": 0,
      "note": 68,
      "start": 5.161,
      "duration": 0.167,
      "velocity": 104,
      "chip": "ym2612"
    },
    {
      "channel": 1,
      "note": 58,
      "start": 5.162,
      "duration": 0.167,
      "velocity": 102,
      "chip": "ym2612"
    },
    {
      "channel": 2,
      "note": 68,
      "start": 5.1629,
      "duration": 0.0814,
      "velocity": 102,
      "chip": "ym2612"
    },
    {
      "channel": 4,
      "note": 64,
      "start": 5.164,
      "duration": 0.1674,
      "velocity": 104,
      "chip": "ym2612"
    },
    {
      "channel": 2,
      "note": 69,
      "start": 5.2444,
      "duration": 0.0855,
      "velocity": 102,
      "chip": "ym2612"
    },
    {
      "channel": 0,
      "note": 69,
      "start": 5.3282,
      "duration": 0.1663,
      "velocity": 104,
      "chip": "ym2612"
    },
    {
      "channel": 1,
      "note": 57,
      "start": 5.3291,
      "duration": 0.1663,
      "velocity": 102,
      "chip": "ym2612"
    },
    {
      "channel": 2,
      "note": 84,
      "start": 5.3301,
      "duration": 0.0809,
      "velocity": 102,
      "chip": "ym2612"
    },
    {
      "channel": 4,
      "note": 68,
      "start": 5.3315,
      "duration": 0.166,
      "velocity": 104,
      "chip": "ym2612"
    },
    {
      "channel": 2,
      "note": 83,
      "start": 5.4111,
      "duration": 0.0853,
      "velocity": 102,
      "chip": "ym2612"
    },
    {
      "channel": 0,
      "note": 65,
      "start": 5.4946,
      "duration": 0.1664,
      "velocity": 104,
      "chip": "ym2612"
    },
    {
      "channel": 1,
      "note": 57,
      "start": 5.4956,
      "duration": 0.1664,
      "velocity": 102,
      "chip": "ym2612"
    },
    {
      "channel": 2,
      "note": 80,
      "start": 5.4966,
      "duration": 0.0811,
      "velocity": 102,
      "chip": "ym2612"
    },
    {
      "channel": 4,
      "note": 69,
      "start": 5.4976,
      "duration": 0.1663,
      "velocity": 104,
      "chip": "ym2612"
    },
    {
      "channel": 2,
      "note": 81,
      "start": 5.5778,
      "duration": 0.0852,
      "velocity": 102,
      "chip": "ym2612"
    },
    {
      "channel": 0,
      "note": 64,
      "start": 5.6611,
      "duration": 0.1664,
      "velocity": 104,
      "chip": "ym2612"
    },
    {
      "channel": 1,
      "note": 57,
      "start": 5.6621,
      "duration": 0.1664,
      "velocity": 102,
      "chip": "ym2612"
    },
    {
      "channel": 2,
      "note": 76,
      "start": 5.663,
      "duration": 0.0813,
      "velocity": 102,
      "chip": "ym2612"
    },
    {
      "channel": 4,
      "note": 65,
      "start": 5.6641,
      "duration": 0.1663,
      "velocity": 104,
      "chip": "ym2612"
    },
    {
      "channel": 2,
      "note": 77,
      "start": 5.7444,
      "duration": 0.085,
      "velocity": 102,
      "chip": "ym2612"
    },
    {
      "channel": 0,
      "note": 68,
      "start": 5.8276,
      "duration": 0.1671,
      "velocity": 104,
      "chip": "ym2612"
    },
    {
      "channel": 1,
      "note": 57,
      "start": 5.8285,
      "duration": 0.1671,
      "velocity": 102,
      "chip": "ym2612"
    },
    {
      "channel": 2,
      "note": 71,
      "start": 5.8295,
      "duration": 0.0815,
      "velocity": 102,
      "chip": "ym2612"
    },
    {
      "channel": 4,
      "note": 64,
      "start": 5.8306,
      "duration": 0.1679,
      "velocity": 104,
      "chip": "ym2612"
    },
    {
      "channel": 2,
      "note": 72,
      "start": 5.9111,
      "duration": 0.0854,
      "velocity": 102,
      "chip": "ym2612"
    },
    {
      "channel": 0,
      "note": 69,
      "start": 5.9948,
      "duration": 0.1667,
      "velocity": 104,
      "chip": "ym2612"
    },
    {
      "channel": 1,
      "note": 57,
      "start": 5.9957,
      "duration": 0.1667,
      "velocity": 102,
      "chip": "ym2612"
    },
    {
      "channel": 2,
      "note": 84,
      "start": 5.9967,
      "duration": 0.0812,
      "velocity": 102,
      "chip": "ym2612"
    },
    {
      "channel": 3,
      "note": 69,
      "start": 5.9976,
      "duration": 0.0812,
      "velocity": 115,
      "chip": "ym2612"
    },
    {
      "channel": 4,
      "note": 68,
      "start": 5.9986,
      "duration": 0.1667,
      "velocity": 104,
      "chip": "ym2612"
    },
    {
      "channel": 2,
      "note": 83,
      "start": 6.078,
      "duration": 0.0854,
      "velocity": 102,
      "chip": "ym2612"
    },
    {
      "channel": 3,
      "note": 70,
      "start": 6.0789,
      "duration": 0.0854,
      "velocity": 115,
      "chip": "ym2612"
    },
    {
      "channel": 0,
      "note": 65,
      "start": 6.1616,
      "duration": 0.1666,
      "velocity": 104,
      "chip": "ym2612"
    },
    {
      "channel": 1,
      "note": 57,
      "start": 6.1625,
      "duration": 0.1666,
      "velocity": 102,
      "chip": "ym2612"
    },
    {
      "channel": 2,
      "note": 80,
      "start": 6.1635,
      "duration": 0.0812,
      "velocity": 102,
      "chip": "ym2612"
    },
    {
      "channel": 3,
      "note": 71,
      "start": 6.1645,
      "duration": 0.0812,
      "velocity": 115,
      "chip": "ym2612"
    },
    {
      "channel": 4,
      "note": 69,
      "start": 6.1654,
      "duration": 0.1665,
      "velocity": 104,
      "chip": "ym2612"
    },
    {
      "channel": 5,
      "note": 69,
      "start": 6.1664,
      "duration": 0.0805,
      "velocity": 115,
      "chip": "ym2612"
    },
    {
      "channel": 2,
      "note": 81,
      "start": 6.2448,
      "duration": 0.0853,
      "velocity": 102,
      "chip": "ym2612"
    },
    {
      "channel": 3,
      "note": 72,
      "start": 6.2457,
      "duration": 0.0853,
      "velocity": 115,
      "chip": "ym2612"
    },
    {
      "channel": 5,
      "note": 70,
      "start": 6.2471,
      "duration": 0.0859,
      "velocity": 115,
      "chip": "ym2612"
    },
    {
      "channel": 0,
      "note": 64,
      "start": 6.3282,
      "duration": 0.1663,
      "velocity": 104,
      "chip": "ym2612"
    },
    {
      "channel": 1,
      "note": 57,
      "start": 6.3292,
      "duration": 0.1663,
      "velocity": 102,
      "chip": "ym2612"
    },
    {
      "channel": 2,
      "note": 76,
      "start": 6.3301,
      "duration": 0.0812,
      "velocity": 102,
      "chip": "ym2612"
    },
    {
      "channel": 3,
      "note": 73,
      "start": 6.3311,
      "duration": 0.0812,
      "velocity": 115,
      "chip": "ym2612"
    },
    {
      "channel": 4,
      "note": 65,
      "start": 6.332,
      "duration": 0.1663,
      "velocity": 104,
      "chip": "ym2612"
    },
    {
      "channel": 5,
      "note": 71,
      "start": 6.3331,
      "duration": 0.0805,
      "velocity": 115,
      "chip": "ym2612"
    },
    {
      "channel": 2,
      "note": 77,
      "start": 6.4114,
      "duration": 0.0851,
      "velocity": 102,
      "chip": "ym2612"
    },
    {
      "channel": 3,
      "note": 74,
      "start": 6.4124,
      "duration": 0.0851,
      "velocity": 115,
      "chip": "ym2612"
    },
    {
      "channel": 5,
      "note": 72,
      "start": 6.4137,
      "duration": 0.0857,
      "velocity": 115,
      "chip": "ym2612"
    },
    {
      "channel": 0,
      "note": 68,
      "start": 6.4947,
      "duration": 0.1669,
      "velocity": 104,
      "chip": "ym2612"
    },
    {
      "channel": 1,
      "note": 57,
      "start": 6.4956,
      "duration": 0.1669,
      "velocity": 102,
      "chip": "ym2612"
    },
    {
      "channel": 2,
      "note": 71,
      "start": 6.4966,
      "duration": 0.0814,
      "velocity": 102,
      "chip": "ym2612"
    },
    {
      "channel": 3,
      "note": 75,
      "start": 6.4976,
      "duration": 0.0814,
      "velocity": 115,
      "chip": "ym2612"
    },
    {
      "channel": 4,
      "note": 64,
      "start": 6.4985,
      "duration": 0.1669,
      "velocity": 104,
      "chip": "ym2612"
    },
    {
      "channel": 5,
      "note": 73,
      "start": 6.4995,
      "duration": 0.0808,
      "velocity": 115,
      "chip": "ym2612"
    },
    {
      "channel": 2,
      "note": 72,
      "start": 6.5781,
      "duration": 0.0854,
      "velocity": 102,
      "chip": "ym2612"
    },
    {
      "channel": 3,
      "note": 76,
      "start": 6.579,
      "duration": 0.0854,
      "velocity": 115,
      "chip": "ym2612"
    },
    {
      "channel": 5,
      "note": 74,
      "start": 6.5804,
      "duration": 0.086,
      "velocity": 115,
      "chip": "ym2612"
    },
    {
      "channel": 0,
      "note": 69,
      "start": 6.6617,
      "duration": 0.1665,
      "velocity": 104,
      "chip": "ym2612"
    },
    {
      "channel": 1,
      "note": 57,
      "start": 6.6626,
      "duration": 0.1665,
      "velocity": 102,
      "chip": "ym2612"
    },
    {
      "channel": 2,
      "note": 84,
      "start": 6.6636,
      "duration": 0.0811,
      "velocity": 102,
      "chip": "ym2612"
    },
    {
      "channel": 3,
      "note": 77,
      "start": 6.6646,
      "duration": 0.0811,
      "velocity": 115,
      "chip": "ym2612"
    },
    {
      "channel": 4,
      "note": 68,
      "start": 6.6655,
      "duration": 0.1665,
      "velocity": 104,
      "chip": "ym2612"
    },
    {
      "channel": 5,
      "note": 75,
      "start": 6.6665,
      "duration": 0.0805,
      "velocity": 115,
      "chip": "ym2612"
    },
    {
      "channel": 2,
      "note": 83,
      "start": 6.7448,
      "duration": 0.0853,
      "velocity": 102,
      "chip": "ym2612"
    },
    {
      "channel": 3,
      "note": 78,
      "start": 6.7457,
      "duration": 0.0854,
      "velocity": 115,
      "chip": "ym2612"
    },
    {
      "channel": 5,
      "note": 76,
      "start": 6.7471,
      "duration": 0.0859,
      "velocity": 115,
      "chip": "ym2612"
    },
    {
      "channel": 0,
      "note": 65,
      "start": 6.8283,
      "duration": 0.1665,
      "velocity": 104,
      "chip": "ym2612"
    },
    {
      "channel": 1,
      "note": 57,
      "start": 6.8293,
      "duration": 0.1665,
      "velocity": 102,
      "chip": "ym2612"
    },
    {
      "channel": 2,
      "note": 80,
      "start": 6.8302,
      "duration": 0.0812,
      "velocity": 102,
      "chip": "ym2612"
    },
    {
      "channel": 3,
      "note": 79,
      "start": 6.8312,
      "duration": 0.0812,
      "velocity": 115,
      "chip": "ym2612"
    },
    {
      "channel": 4,
      "note": 69,
      "start": 6.8321,
      "duration": 0.1665,
      "velocity": 104,
      "chip": "ym2612"
    },
    {
      "channel": 5,
      "note": 77,
      "start": 6.8331,
      "duration": 0.0805,
      "velocity": 115,
      "chip": "ym2612"
    },
    {
      "channel": 2,
      "note": 81,
      "start": 6.9115,
      "duration": 0.0852,
      "velocity": 102,
      "chip": "ym2612"
    },
    {
      "channel": 3,
      "note": 80,
      "start": 6.9124,
      "duration": 0.0852,
      "velocity": 115,
      "chip": "ym2612"
    },
    {
      "channel": 5,
      "note": 78,
      "start": 6.9137,
      "duration": 0.0859,
      "velocity": 115,
      "chip": "ym2612"
    },
    {
      "channel": 0,
      "note": 64,
      "start": 6.9949,
      "duration": 0.1664,
      "velocity": 104,
      "chip": "ym2612"
    },
    {
      "channel": 1,
      "note": 57,
      "start": 6.9959,
      "duration": 0.1664,
      "velocity": 102,
      "chip": "ym2612"
    },
    {
      "channel": 2,
      "note": 76,
      "start": 6.9968,
      "duration": 0.0812,
      "velocity": 102,
      "chip": "ym2612"
    },
    {
      "channel": 3,
      "note": 82,
      "start": 6.9978,
      "duration": 0.0812,
      "velocity": 115,
      "chip": "ym2612"
    },
    {
      "channel": 4,
      "note": 65,
      "start": 6.9988,
      "duration": 0.1663,
      "velocity": 104,
      "chip": "ym2612"
    },
    {
      "channel": 5,
      "note": 79,
      "start": 6.9997,
      "duration": 0.0805,
      "velocity": 115,
      "chip": "ym2612"
    },
    {
      "channel": 2,
      "note": 77,
      "start": 7.0781,
      "duration": 0.0851,
      "velocity": 102,
      "chip": "ym2612"
    },
    {
      "channel": 3,
      "note": 84,
      "start": 7.079,
      "duration": 0.0851,
      "velocity": 115,
      "chip": "ym2612"
    },
    {
      "channel": 5,
      "note": 80,
      "start": 7.0804,
      "duration": 0.0857,
      "velocity": 115,
      "chip": "ym2612"
    },
    {
      "channel": 0,
      "note": 68,
      "start": 7.1614,
      "duration": 0.1669,
      "velocity": 104,
      "chip": "ym2612"
    },
    {
      "channel": 1,
      "note": 57,
      "start": 7.1623,
      "duration": 0.1669,
      "velocity": 102,
      "chip": "ym2612"
    },
    {
      "channel": 2,
      "note": 71,
      "start": 7.1633,
      "duration": 0.0814,
      "velocity": 102,
      "chip": "ym2612"
    },
    {
      "channel": 3,
      "note": 82,
      "start": 7.1642,
      "duration": 0.0814,
      "velocity": 115,
      "chip": "ym2612"
    },
    {
      "channel": 4,
      "note": 64,
      "start": 7.1652,
      "duration": 0.1669,
      "velocity": 104,
      "chip": "ym2612"
    },
    {
      "channel": 5,
      "note": 82,
      "start": 7.1662,
      "duration": 0.0807,
      "velocity": 115,
      "chip": "ym2612"
    },
    {
      "channel": 2,
      "note": 72,
      "start": 7.2448,
      "duration": 0.0854,
      "velocity": 102,
      "chip": "ym2612"
    },
    {
      "channel": 3,
      "note": 84,
      "start": 7.2457,
      "duration": 0.0854,
      "velocity": 115,
      "chip": "ym2612"
    },
    {
      "channel": 5,
      "note": 84,
      "start": 7.247,
      "duration": 0.0861,
      "velocity": 115,
      "chip": "ym2612"
    },
    {
      "channel": 0,
      "note": 69,
      "start": 7.3283,
      "duration": 0.1665,
      "velocity": 104,
      "chip": "ym2612"
    },
    {
      "channel": 1,
      "note": 57,
      "start": 7.3293,
      "duration": 0.1665,
      "velocity": 102,
      "chip": "ym2612"
    },
    {
      "channel": 2,
      "note": 84,
      "start": 7.3303,
      "duration": 0.081,
      "velocity": 102,
      "chip": "ym2612"
    },
    {
      "channel": 3,
      "note": 82,
      "start": 7.3312,
      "duration": 0.081,
      "velocity": 115,
      "chip": "ym2612"
    },
    {
      "channel": 4,
      "note": 68,
      "start": 7.3322,
      "duration": 0.1665,
      "velocity": 104,
      "chip": "ym2612"
    },
    {
      "channel": 5,
      "note": 82,
      "start": 7.3332,
      "duration": 0.0804,
      "velocity": 115,
      "chip": "ym2612"
    },
    {
      "channel": 2,
      "note": 83,
      "start": 7.4114,
      "duration": 0.0853,
      "velocity": 102,
      "chip": "ym2612"
    },
    {
      "channel": 3,
      "note": 84,
      "start": 7.4124,
      "duration": 0.0853,
      "velocity": 115,
      "chip": "ym2612"
    },
    {
      "channel": 5,
      "note": 84,
      "start": 7.4137,
      "duration": 0.086,
      "velocity": 115,
      "chip": "ym2612"
    },
    {
      "channel": 0,
      "note": 65,
      "start": 7.495,
      "duration": 0.1665,
      "velocity": 104,
      "chip": "ym2612"
    },
    {
      "channel": 1,
      "note": 57,
      "start": 7.4959,
      "duration": 0.1665,
      "velocity": 102,
      "chip": "ym2612"
    },
    {
      "channel": 2,
      "note": 80,
      "start": 7.4969,
      "duration": 0.0812,
      "velocity": 102,
      "chip": "ym2612"
    },
    {
      "channel": 3,
      "note": 82,
      "start": 7.4978,
      "duration": 0.0812,
      "velocity": 115,
      "chip": "ym2612"
    },
    {
      "channel": 4,
      "note": 69,
      "start": 7.4988,
      "duration": 0.1665,
      "velocity": 104,
      "chip": "ym2612"
    },
    {
      "channel": 5,
      "note": 82,
      "start": 7.4997,
      "duration": 0.0805,
      "velocity": 115,
      "chip": "ym2612"
    },
    {
      "channel": 2,
      "note": 81,
      "start": 7.5782,
      "duration": 0.0852,
      "velocity": 102,
      "chip": "ym2612"
    },
    {
      "channel": 3,
      "note": 84,
      "start": 7.5791,
      "duration": 0.0852,
      "velocity": 115,
      "chip": "ym2612"
    },
    {
      "channel": 5,
      "note": 84,
      "start": 7.5804,
      "duration": 0.0859,
      "velocity": 115,
      "chip": "ym2612"
    },
    {
      "channel": 0,
      "note": 64,
      "start": 7.6616,
      "duration": 0.1664,
      "velocity": 104,
      "chip": "ym2612"
    },
    {
      "channel": 1,
      "note": 57,
      "start": 7.6625,
      "duration": 0.1664,
      "velocity": 102,
      "chip": "ym2612"
    },
    {
      "channel": 2,
      "note": 76,
      "start": 7.6635,
      "duration": 0.0812,
      "velocity": 102,
      "chip": "ym2612"
    },
    {
      "channel": 3,
      "note": 82,
      "start": 7.6645,
      "duration": 0.0812,
      "velocity": 115,
      "chip": "ym2612"
    },
    {
      "channel": 4,
      "note": 65,
      "start": 7.6654,
      "duration": 0.1663,
      "velocity": 104,
      "chip": "ym2612"
    },
    {
      "channel": 5,
      "note": 82,
      "start": 7.6664,
      "duration": 0.0805,
      "velocity": 115,
      "chip": "ym2612"
    },
    {
      "channel": 2,
      "note": 77,
      "start": 7.7448,
      "duration": 0.0851,
      "velocity": 102,
      "chip": "ym2612"
    },
    {
      "channel": 3,
      "note": 84,
      "start": 7.7457,
      "duration": 0.0851,
      "velocity": 115,
      "chip": "ym2612"
    },
    {
      "channel": 5,
      "note": 84,
      "start": 7.7471,
      "duration": 0.0857,
      "velocity": 115,
      "chip": "ym2612"
    },
    {
      "channel": 0,
      "note": 68,
      "start": 7.828,
      "duration": 0.1671,
      "velocity": 104,
      "chip": "ym2612"
    },
    {
      "channel": 1,
      "note": 57,
      "start": 7.829,
      "duration": 0.1671,
      "velocity": 102,
      "chip": "ym2612"
    },
    {
      "channel": 2,
      "note": 71,
      "start": 7.83,
      "duration": 0.0814,
      "velocity": 102,
      "chip": "ym2612"
    },
    {
      "channel": 3,
      "note": 82,
      "start": 7.8309,
      "duration": 0.0814,
      "velocity": 115,
      "chip": "ym2612"
    },
    {
      "channel": 4,
      "note": 64,
      "start": 7.8319,
      "duration": 0.167,
      "velocity": 104,
      "chip": "ym2612"
    },
    {
      "channel": 5,
      "note": 82,
      "start": 7.8329,
      "duration": 0.0807,
      "velocity": 115,
      "chip": "ym2612"
    },
    {
      "channel": 2,
      "note": 72,
      "start": 7.9114,
      "duration": 0.0856,
      "velocity": 102,
      "chip": "ym2612"
    },
    {
      "channel": 3,
      "note": 84,
      "start": 7.9124,
      "duration": 0.0856,
      "velocity": 115,
      "chip": "ym2612"
    },
    {
      "channel": 5,
      "note": 84,
      "start": 7.9137,
      "duration": 0.0862,
      "velocity": 115,
      "chip": "ym2612"
    },
    {
      "channel": 0,
      "note": 70,
      "start": 7.9951,
      "duration": 0.1664,
      "velocity": 104,
      "chip": "ym2612"
    },
    {
      "channel": 1,
      "note": 58,
      "start": 7.9961,
      "duration": 0.1664,
      "velocity": 102,
      "chip": "ym2612"
    },
    {
      "channel": 2,
      "note": 84,
      "start": 7.9971,
      "duration": 0.0809,
      "velocity": 102,
      "chip": "ym2612"
    },
    {
      "channel": 3,
      "note": 86,
      "start": 7.998,
      "duration": 0.0809,
      "velocity": 115,
      "chip": "ym2612"
    },
    {
      "channel": 4,
      "note": 68,
      "start": 7.999,
      "duration": 0.1663,
      "velocity": 104,
      "chip": "ym2612"
    },
    {
      "channel": 5,
      "note": 82,
      "start": 8.0,
      "duration": 0.0803,
      "velocity": 115,
      "chip": "ym2612"
    },
    {
      "channel": 2,
      "note": 83,
      "start": 8.0781,
      "duration": 0.0854,
      "velocity": 102,
      "chip": "ym2612"
    },
    {
      "channel": 3,
      "note": 87,
      "start": 8.079,
      "duration": 0.0854,
      "velocity": 115,
      "chip": "ym2612"
    },
    {
      "channel": 5,
      "note": 84,
      "start": 8.0803,
      "duration": 0.0861,
      "velocity": 115,
      "chip": "ym2612"
    },
    {
      "channel": 0,
      "note": 65,
      "start": 8.1617,
      "duration": 0.1664,
      "velocity": 104,
      "chip": "ym2612"
    },
    {
      "channel": 1,
      "note": 58,
      "start": 8.1626,
      "duration": 0.1664,
      "velocity": 102,
      "chip": "ym2612"
    },
    {
      "channel": 2,
      "note": 74,
      "start": 8.1636,
      "duration": 0.0811,
      "velocity": 102,
      "chip": "ym2612"
    },
    {
      "channel": 3,
      "note": 86,
      "start": 8.1646,
      "duration": 0.0811,
      "velocity": 115,
      "chip": "ym2612"
    },
    {
      "channel": 4,
      "note": 70,
      "start": 8.1655,
      "duration": 0.1664,
      "velocity": 104,
      "chip": "ym2612"
    },
    {
      "channel": 5,
      "note": 86,
      "start": 8.1665,
      "duration": 0.0805,
      "velocity": 115,
      "chip": "ym2612"
    },
    {
      "channel": 2,
      "note": 75,
      "start": 8.2448,
      "duration": 0.0852,
      "velocity": 102,
      "chip": "ym2612"
    },
    {
      "channel": 3,
      "note": 87,
      "start": 8.2457,
      "duration": 0.0852,
      "velocity": 115,
      "chip": "ym2612"
    },
    {
      "channel": 5,
      "note": 87,
      "start": 8.2471,
      "duration": 0.0858,
      "velocity": 115,
      "chip": "ym2612"
    },
    {
      "channel": 0,
      "note": 64,
      "start": 8.3282,
      "duration": 0.1665,
      "velocity": 104,
      "chip": "ym2612"
    },
    {
      "channel": 1,
      "note": 58,
      "start": 8.3291,
      "duration": 0.1665,
      "velocity": 102,
      "chip": "ym2612"
    },
    {
      "channel": 2,
      "note": 71,
      "start": 8.3301,
      "duration": 0.0812,
      "velocity": 102,
      "chip": "ym2612"
    },
    {
      "channel": 3,
      "note": 86,
      "start": 8.331,
      "duration": 0.0812,
      "velocity": 115,
      "chip": "ym2612"
    },
    {
      "channel": 4,
      "note": 65,
      "start": 8.332,
      "duration": 0.1665,
      "velocity": 104,
      "chip": "ym2612"
    },
    {
      "channel": 5,
      "note": 86,
      "start": 8.333,
      "duration": 0.0806,
      "velocity": 115,
      "chip": "ym2612"
    },
    {
      "channel": 2,
      "note": 72,
      "start": 8.4114,
      "duration": 0.0851,
      "velocity": 102,
      "chip": "ym2612"
    },
    {
      "channel": 3,
      "note": 87,
      "start": 8.4124,
      "duration": 0.0851,
      "velocity": 115,
      "chip": "ym2612"
    },
    {
      "channel": 5,
      "note": 87,
      "start": 8.4137,
      "duration": 0.0858,
      "velocity": 115,
      "chip": "ym2612"
    },
    {
      "channel": 0,
      "note": 68,
      "start": 8.4948,
      "duration": 0.1668,
      "velocity": 104,
      "chip": "ym2612"
    },
    {
      "channel": 1,
      "note": 58,
      "start": 8.4957,
      "duration": 0.1668,
      "velocity": 102,
      "chip": "ym2612"
    },
    {
      "channel": 2,
      "note": 68,
      "start": 8.4967,
      "duration": 0.0814,
      "velocity": 102,
      "chip": "ym2612"
    },
    {
      "channel": 3,
      "note": 86,
      "start": 8.4976,
      "duration": 0.0814,
      "velocity": 115,
      "chip": "ym2612"
    },
    {
      "channel": 4,
      "note": 64,
      "start": 8.4986,
      "duration": 0.1668,
      "velocity": 104,
      "chip": "ym2612"
    },
    {
      "channel": 5,
      "note": 86,
      "start": 8.4995,
      "duration": 0.0807,
      "velocity": 115,
      "chip": "ym2612"
    },
    {
      "channel": 2,
      "note": 69,
      "start": 8.5781,
      "duration": 0.0854,
      "velocity": 102,
      "chip": "ym2612"
    },
    {
      "channel": 3,
      "note": 87,
      "start": 8.579,
      "duration": 0.0854,
      "velocity": 115,
      "chip": "ym2612"
    },
    {
      "channel": 5,
      "note": 87,
      "start": 8.5804,
      "duration": 0.086,
      "velocity": 115,
      "chip": "ym2612"
    },
    {
      "channel": 0,
      "note": 70,
      "start": 8.6617,
      "duration": 0.1664,
      "velocity": 104,
      "chip": "ym2612"
    },
    {
      "channel": 1,
      "note": 58,
      "start": 8.6626,
      "duration": 0.0819,
      "velocity": 102,
      "chip": "ym2612"
    },
    {
      "channel": 2,
      "note": 84,
      "start": 8.6636,
      "duration": 0.0819,
      "velocity": 102,
      "chip": "ym2612"
    },
    {
      "channel": 3,
      "note": 86,
      "start": 8.6646,
      "duration": 0.0819,
      "velocity": 115,
      "chip": "ym2612"
    },
    {
      "channel": 4,
      "note": 68,
      "start": 8.6655,
      "duration": 0.1665,
      "velocity": 104,
      "chip": "ym2612"
    },
    {
      "channel": 5,
      "note": 86,
      "start": 8.6665,
      "duration": 0.0812,
      "velocity": 115,
      "chip": "ym2612"
    },
    {
      "channel": 1,
      "note": 57,
      "start": 8.7446,
      "duration": 0.0844,
      "velocity": 102,
      "chip": "ym2612"
    },
    {
      "channel": 2,
      "note": 83,
      "start": 8.7456,
      "duration": 0.0844,
      "velocity": 102,
      "chip": "ym2612"
    },
    {
      "channel": 3,
      "note": 87,
      "start": 8.7466,
      "duration": 0.0845,
      "velocity": 115,
      "chip": "ym2612"
    },
    {
      "channel": 5,
      "note": 87,
      "start": 8.7478,
      "duration": 0.0851,
      "velocity": 115,
      "chip": "ym2612"
    },
    {
      "channel": 0,
      "note": 65,
      "start": 8.8282,
      "duration": 0.1665,
      "velocity": 104,
      "chip": "ym2612"
    },
    {
      "channel": 1,
      "note": 61,
      "start": 8.8292,
      "duration": 0.082,
      "velocity": 102,
      "chip": "ym2612"
    },
    {
      "channel": 2,
      "note": 74,
      "start": 8.8301,
      "duration": 0.082,
      "velocity": 102,
      "chip": "ym2612"
    },
    {
      "channel": 3,
      "note": 86,
      "start": 8.8311,
      "duration": 0.082,
      "velocity": 115,
      "chip": "ym2612"
    },
    {
      "channel": 4,
      "note": 70,
      "start": 8.832,
      "duration": 0.1665,
      "velocity": 104,
      "chip": "ym2612"
    },
    {
      "channel": 5,
      "note": 86,
      "start": 8.8331,
      "duration": 0.0814,
      "velocity": 115,
      "chip": "ym2612"
    },
    {
      "channel": 1,
      "note": 60,
      "start": 8.9113,
      "duration": 0.0844,
      "velocity": 102,
      "chip": "ym2612"
    },
    {
      "channel": 2,
      "note": 75,
      "start": 8.9123,
      "duration": 0.0844,
      "velocity": 102,
      "chip": "ym2612"
    },
    {
      "channel": 3,
      "note": 87,
      "start": 8.9132,
      "duration": 0.0844,
      "velocity": 115,
      "chip": "ym2612"
    },
    {
      "channel": 5,
      "note": 87,
      "start": 8.9145,
      "duration": 0.0851,
      "velocity": 115,
      "chip": "ym2612"
    },
    {
      "channel": 0,
      "note": 64,
      "start": 8.9948,
      "duration": 0.1667,
      "velocity": 104,
      "chip": "ym2612"
    },
    {
      "channel": 1,
      "note": 63,
      "start": 8.9958,
      "duration": 0.0821,
      "velocity": 102,
      "chip": "ym2612"
    },
    {
      "channel": 2,
      "note": 71,
      "start": 8.9967,
      "duration": 0.0821,
      "velocity": 102,
      "chip": "ym2612"
    },
    {
      "channel": 3,
      "note": 86,
      "start": 8.9978,
      "duration": 0.082,
      "velocity": 115,
      "chip": "ym2612"
    },
    {
      "channel": 4,
      "note": 65,
      "start": 8.9987,
      "duration": 0.1666,
      "velocity": 104,
      "chip": "ym2612"
    },
    {
      "channel": 5,
      "note": 86,
      "start": 8.9997,
      "duration": 0.0814,
      "velocity": 115,
      "chip": "ym2612"
    },
    {
      "channel": 1,
      "note": 62,
      "start": 9.0779,
      "duration": 0.0845,
      "velocity": 102,
      "chip": "ym2612"
    },
    {
      "channel": 2,
      "note": 72,
      "start": 9.0789,
      "duration": 0.0845,
      "velocity": 102,
      "chip": "ym2612"
    },
    {
      "channel": 3,
      "note": 87,
      "start": 9.0798,
      "duration": 0.0845,
      "velocity": 115,
      "chip": "ym2612"
    },
    {
      "channel": 5,
      "note": 87,
      "start": 9.0812,
      "duration": 0.0851,
      "velocity": 115,
      "chip": "ym2612"
    },
    {
      "channel": 0,
      "note": 68,
      "start": 9.1616,
      "duration": 0.1667,
      "velocity": 104,
      "chip": "ym2612"
    },
    {
      "channel": 1,
      "note": 65,
      "start": 9.1625,
      "duration": 0.082,
      "velocity": 102,
      "chip": "ym2612"
    },
    {
      "channel": 2,
      "note": 68,
      "start": 9.1635,
      "duration": 0.082,
      "velocity": 102,
      "chip": "ym2612"
    },
    {
      "channel": 3,
      "note": 86,
      "start": 9.1645,
      "duration": 0.0819,
      "velocity": 115,
      "chip": "ym2612"
    },
    {
      "channel": 4,
      "note": 64,
      "start": 9.1654,
      "duration": 0.1667,
      "velocity": 104,
      "chip": "ym2612"
    },
    {
      "channel": 5,
      "note": 86,
      "start": 9.1664,
      "duration": 0.0813,
      "velocity": 115,
      "chip": "ym2612"
    },
    {
      "channel": 1,
      "note": 64,
      "start": 9.2446,
      "duration": 0.0847,
      "velocity": 102,
      "chip": "ym2612"
    },
    {
      "channel": 2,
      "note": 69,
      "start": 9.2455,
      "duration": 0.0847,
      "velocity": 102,
      "chip": "ym2612"
    },
    {
      "channel": 3,
      "note": 87,
      "start": 9.2466,
      "duration": 0.0846,
      "velocity": 115,
      "chip": "ym2612"
    },
    {
      "channel": 5,
      "note": 87,
      "start": 9.2478,
      "duration": 0.0853,
      "velocity": 115,
      "chip": "ym2612"
    },
    {
      "channel": 0,
      "note": 59,
      "start": 9.3284,
      "duration": 0.0824,
      "velocity": 104,
      "chip": "ym2612"
    },
    {
      "channel": 1,
      "note": 68,
      "start": 9.3294,
      "duration": 1.9983,
      "velocity": 102,
      "chip": "ym2612"
    },
    {
      "channel": 2,
      "note": 86,
      "start": 9.3303,
      "duration": 0.0818,
      "velocity": 102,
      "chip": "ym2612"
    },
    {
      "channel": 3,
      "note": 86,
      "start": 9.3313,
      "duration": 0.0301,
      "velocity": 115,
      "chip": "ym2612"
    },
    {
      "channel": 4,
      "note": 68,
      "start": 9.3322,
      "duration": 0.1656,
      "velocity": 104,
      "chip": "ym2612"
    },
    {
      "channel": 5,
      "note": 86,
      "start": 9.3332,
      "duration": 0.0812,
      "velocity": 115,
      "chip": "ym2612"
    },
    {
      "channel": 3,
      "note": 87,
      "start": 9.3615,
      "duration": 0.0516,
      "velocity": 115,
      "chip": "ym2612"
    },
    {
      "channel": 0,
      "note": 53,
      "start": 9.4109,
      "duration": 0.0837,
      "velocity": 104,
      "chip": "ym2612"
    },
    {
      "channel": 2,
      "note": 84,
      "start": 9.4122,
      "duration": 0.0837,
      "velocity": 102,
      "chip": "ym2612"
    },
    {
      "channel": 3,
      "note": 86,
      "start": 9.4132,
      "duration": 0.0316,
      "velocity": 115,
      "chip": "ym2612"
    },
    {
      "channel": 5,
      "note": 87,
      "start": 9.4145,
      "duration": 0.0843,
      "velocity": 115,
      "chip": "ym2612"
    },
    {
      "channel": 3,
      "note": 83,
      "start": 9.4449,
      "duration": 0.052,
      "velocity": 115,
      "chip": "ym2612"
    },
    {
      "channel": 0,
      "note": 59,
      "start": 9.4947,
      "duration": 0.083,
      "velocity": 104,
      "chip": "ym2612"
    },
    {
      "channel": 2,
      "note": 83,
      "start": 9.496,
      "duration": 0.083,
      "velocity": 102,
      "chip": "ym2612"
    },
    {
      "channel": 3,
      "note": 82,
      "start": 9.4969,
      "duration": 0.0313,
      "velocity": 115,
      "chip": "ym2612"
    },
    {
      "channel": 4,
      "note": 59,
      "start": 9.4979,
      "duration": 0.0829,
      "velocity": 104,
      "chip": "ym2612"
    },
    {
      "channel": 5,
      "note": 86,
      "start": 9.4989,
      "duration": 0.0306,
      "velocity": 115,
      "chip": "ym2612"
    },
    {
      "channel": 3,
      "note": 80,
      "start": 9.5283,
      "duration": 0.0515,
      "velocity": 115,
      "chip": "ym2612"
    },
    {
      "channel": 5,
      "note": 87,
      "start": 9.5296,
      "duration": 0.0522,
      "velocity": 115,
      "chip": "ym2612"
    },
    {
      "channel": 0,
      "note": 53,
      "start": 9.5778,
      "duration": 0.0834,
      "velocity": 104,
      "chip": "ym2612"
    },
    {
      "channel": 2,
      "note": 82,
      "start": 9.579,
      "duration": 0.0834,
      "velocity": 102,
      "chip": "ym2612"
    },
    {
      "channel": 3,
      "note": 79,
      "start": 9.58,
      "duration": 0.0315,
      "velocity": 115,
      "chip": "ym2612"
    },
    {
      "channel": 4,
      "note": 53,
      "start": 9.581,
      "duration": 0.0834,
      "velocity": 104,
      "chip": "ym2612"
    },
    {
      "channel": 5,
      "note": 86,
      "start": 9.5819,
      "duration": 0.0309,
      "velocity": 115,
      "chip": "ym2612"
    },
    {
      "channel": 3,
      "note": 76,
      "start": 9.6116,
      "duration": 0.0518,
      "velocity": 115,
      "chip": "ym2612"
    },
    {
      "channel": 5,
      "note": 83,
      "start": 9.6129,
      "duration": 0.0525,
      "velocity": 115,
      "chip": "ym2612"
    },
    {
      "channel": 0,
      "note": 59,
      "start": 9.6613,
      "duration": 0.0831,
      "velocity": 104,
      "chip": "ym2612"
    },
    {
      "channel": 2,
      "note": 81,
      "start": 9.6626,
      "duration": 0.0831,
      "velocity": 102,
      "chip": "ym2612"
    },
    {
      "channel": 3,
      "note": 75,
      "start": 9.6635,
      "duration": 0.0314,
      "velocity": 115,
      "chip": "ym2612"
    },
    {
      "channel": 4,
      "note": 59,
      "start": 9.6645,
      "duration": 0.0832,
      "velocity": 104,
      "chip": "ym2612"
    },
    {
      "channel": 5,
      "note": 82,
      "start": 9.6654,
      "duration": 0.0308,
      "velocity": 115,
      "chip": "ym2612"
    },
    {
      "channel": 3,
      "note": 74,
      "start": 9.695,
      "duration": 0.0517,
      "velocity": 115,
      "chip": "ym2612"
    },
    {
      "channel": 5,
      "note": 80,
      "start": 9.6963,
      "duration": 0.0524,
      "velocity": 115,
      "chip": "ym2612"
    },
    {
      "channel": 0,
      "note": 53,
      "start": 9.7446,
      "duration": 0.0831,
      "velocity": 104,
      "chip": "ym2612"
    },
    {
      "channel": 2,
      "note": 78,
      "start": 9.7459,
      "duration": 0.0829,
      "velocity": 102,
      "chip": "ym2612"
    },
    {
      "channel": 3,
      "note": 71,
      "start": 9.7468,
      "duration": 1.5819,
      "velocity": 115,
      "chip": "ym2612"
    },
    {
      "channel": 4,
      "note": 53,
      "start": 9.7478,
      "duration": 0.0824,
      "velocity": 104,
      "chip": "ym2612"
    },
    {
      "channel": 5,
      "note": 79,
      "start": 9.7487,
      "duration": 0.0299,
      "velocity": 115,
      "chip": "ym2612"
    },
    {
      "channel": 5,
      "note": 76,
      "start": 9.7787,
      "duration": 0.0524,
      "velocity": 115,
      "chip": "ym2612"
    },
    {
      "channel": 0,
      "note": 59,
      "start": 9.8278,
      "duration": 0.0832,
      "velocity": 104,
      "chip": "ym2612"
    },
    {
      "channel": 2,
      "note": 77,
      "start": 9.8289,
      "duration": 0.0832,
      "velocity": 102,
      "chip": "ym2612"
    },
    {
      "channel": 4,
      "note": 59,
      "start": 9.8302,
      "duration": 0.0832,
      "velocity": 104,
      "chip": "ym2612"
    },
    {
      "channel": 5,
      "note": 75,
      "start": 9.8312,
      "duration": 0.0307,
      "velocity": 115,
      "chip": "ym2612"
    },
    {
      "channel": 5,
      "note": 74,
      "start": 9.862,
      "duration": 0.0524,
      "velocity": 115,
      "chip": "ym2612"
    },
    {
      "channel": 0,
      "note": 53,
      "start": 9.911,
      "duration": 0.0832,
      "velocity": 104,
      "chip": "ym2612"
    },
    {
      "channel": 2,
      "note": 76,
      "start": 9.9123,
      "duration": 0.0831,
      "velocity": 102,
      "chip": "ym2612"
    },
    {
      "channel": 4,
      "note": 53,
      "start": 9.9135,
      "duration": 0.0831,
      "velocity": 104,
      "chip": "ym2612"
    },
    {
      "channel": 5,
      "note": 71,
      "start": 9.9145,
      "duration": 1.5934,
      "velocity": 103,
      "chip": "ym2612"
    },
    {
      "channel": 0,
      "note": 59,
      "start": 9.9943,
      "duration": 0.0829,
      "velocity": 104,
      "chip": "ym2612"
    },
    {
      "channel": 2,
      "note": 75,
      "start": 9.9955,
      "duration": 1.3327,
      "velocity": 102,
      "chip": "ym2612"
    },
    {
      "channel": 4,
      "note": 59,
      "start": 9.9968,
      "duration": 0.0822,
      "velocity": 104,
      "chip": "ym2612"
    },
    {
      "channel": 0,
      "note": 53,
      "start": 10.0773,
      "duration": 0.0833,
      "velocity": 104,
      "chip": "ym2612"
    },
    {
      "channel": 4,
      "note": 53,
      "start": 10.0792,
      "duration": 0.0833,
      "velocity": 104,
      "chip": "ym2612"
    },
    {
      "channel": 0,
      "note": 59,
      "start": 10.1607,
      "duration": 0.0832,
      "velocity": 104,
      "chip": "ym2612"
    },
    {
      "channel": 4,
      "note": 59,
      "start": 10.1626,
      "duration": 0.083,
      "velocity": 104,
      "chip": "ym2612"
    },
    {
      "channel": 0,
      "note": 53,
      "start": 10.244,
      "duration": 0.0833,
      "velocity": 104,
      "chip": "ym2612"
    },
    {
      "channel": 4,
      "note": 53,
      "start": 10.2456,
      "duration": 0.0834,
      "velocity": 104,
      "chip": "ym2612"
    },
    {
      "channel": 0,
      "note": 59,
      "start": 10.3275,
      "duration": 0.0831,
      "velocity": 104,
      "chip": "ym2612"
    },
    {
      "channel": 4,
      "note": 59,
      "start": 10.3292,
      "duration": 0.0831,
      "velocity": 104,
      "chip": "ym2612"
    },
    {
      "channel": 0,
      "note": 53,
      "start": 10.4107,
      "duration": 0.0832,
      "velocity": 104,
      "chip": "ym2612"
    },
    {
      "channel": 4,
      "note": 53,
      "start": 10.4124,
      "duration": 0.0832,
      "velocity": 104,
      "chip": "ym2612"
    },
    {
      "channel": 0,
      "note": 59,
      "start": 10.494,
      "duration": 0.0832,
      "velocity": 104,
      "chip": "ym2612"
    },
    {
      "channel": 4,
      "note": 59,
      "start": 10.4956,
      "duration": 0.0832,
      "velocity": 104,
      "chip": "ym2612"
    },
    {
      "channel": 0,
      "note": 53,
      "start": 10.5773,
      "duration": 0.0836,
      "velocity": 104,
      "chip": "ym2612"
    },
    {
      "channel": 4,
      "note": 53,
      "start": 10.5789,
      "duration": 0.0836,
      "velocity": 104,
      "chip": "ym2612"
    },
    {
      "channel": 0,
      "note": 59,
      "start": 10.661,
      "duration": 0.0828,
      "velocity": 104,
      "chip": "ym2612"
    },
    {
      "channel": 4,
      "note": 59,
      "start": 10.6626,
      "duration": 0.0828,
      "velocity": 104,
      "chip": "ym2612"
    },
    {
      "channel": 0,
      "note": 53,
      "start": 10.7439,
      "duration": 0.0834,
      "velocity": 104,
      "chip": "ym2612"
    },
    {
      "channel": 4,
      "note": 53,
      "start": 10.7456,
      "duration": 0.0834,
      "velocity": 104,
      "chip": "ym2612"
    },
    {
      "channel": 0,
      "note": 59,
      "start": 10.8275,
      "duration": 0.0829,
      "velocity": 104,
      "chip": "ym2612"
    },
    {
      "channel": 4,
      "note": 59,
      "start": 10.8291,
      "duration": 0.083,
      "velocity": 104,
      "chip": "ym2612"
    },
    {
      "channel": 0,
      "note": 53,
      "start": 10.9106,
      "duration": 0.0833,
      "velocity": 104,
      "chip": "ym2612"
    },
    {
      "channel": 4,
      "note": 53,
      "start": 10.9122,
      "duration": 0.0833,
      "velocity": 104,
      "chip": "ym2612"
    },
    {
      "channel": 0,
      "note": 59,
      "start": 10.994,
      "duration": 0.0832,
      "velocity": 104,
      "chip": "ym2612"
    },
    {
      "channel": 4,
      "note": 59,
      "start": 10.9956,
      "duration": 0.0832,
      "velocity": 104,
      "chip": "ym2612"
    },
    {
      "channel": 0,
      "note": 53,
      "start": 11.0773,
      "duration": 0.0828,
      "velocity": 104,
      "chip": "ym2612"
    },
    {
      "channel": 4,
      "note": 53,
      "start": 11.0789,
      "duration": 0.0827,
      "velocity": 104,
      "chip": "ym2612"
    },
    {
      "channel": 4,
      "note": 59,
      "start": 11.1617,
      "duration": 0.0827,
      "velocity": 104,
      "chip": "ym2612"
    },
    {
      "channel": 4,
      "note": 53,
      "start": 11.2445,
      "duration": 0.0847,
      "velocity": 104,
      "chip": "ym2612"
    },
    {
      "channel": 0,
      "note": 81,
      "start": 11.4991,
      "duration": 0.162,
      "velocity": 88,
      "chip": "ym2612"
    },
    {
      "channel": 1,
      "note": 57,
      "start": 11.5027,
      "duration": 0.1593,
      "velocity": 85,
      "chip": "ym2612"
    },
    {
      "channel": 5,
      "note": 44,
      "start": 11.508,
      "duration": 0.3256,
      "velocity": 127,
      "chip": "ym2612"
    },
    {
      "channel": 0,
      "note": 77,
      "start": 11.6612,
      "duration": 0.1667,
      "velocity": 88,
      "chip": "ym2612"
    },
    {
      "channel": 1,
      "note": 57,
      "start": 11.6621,
      "duration": 0.0819,
      "velocity": 85,
      "chip": "ym2612"
    },
    {
      "channel": 4,
      "note": 81,
      "start": 11.666,
      "duration": 0.1639,
      "velocity": 88,
      "chip": "ym2612"
    },
    {
      "channel": 1,
      "note": 57,
      "start": 11.7442,
      "duration": 0.0846,
      "velocity": 85,
      "chip": "ym2612"
    },
    {
      "channel": 0,
      "note": 76,
      "start": 11.8279,
      "duration": 0.1661,
      "velocity": 88,
      "chip": "ym2612"
    },
    {
      "channel": 1,
      "note": 57,
      "start": 11.8289,
      "duration": 0.1661,
      "velocity": 85,
      "chip": "ym2612"
    },
    {
      "channel": 4,
      "note": 77,
      "start": 11.8301,
      "duration": 0.1661,
      "velocity": 88,
      "chip": "ym2612"
    },
    {
      "channel": 5,
      "note": 54,
      "start": 11.8337,
      "duration": 0.3332,
      "velocity": 103,
      "chip": "ym2612"
    },
    {
      "channel": 0,
      "note": 80,
      "start": 11.9941,
      "duration": 0.167,
      "velocity": 88,
      "chip": "ym2612"
    },
    {
      "channel": 1,
      "note": 57,
      "start": 11.9951,
      "duration": 0.0823,
      "velocity": 85,
      "chip": "ym2612"
    },
    {
      "channel": 4,
      "note": 76,
      "start": 11.9963,
      "duration": 0.167,
      "velocity": 88,
      "chip": "ym2612"
    },
    {
      "channel": 1,
      "note": 57,
      "start": 12.0775,
      "duration": 0.0845,
      "velocity": 85,
      "chip": "ym2612"
    },
    {
      "channel": 0,
      "note": 75,
      "start": 12.1612,
      "duration": 0.1665,
      "velocity": 88,
      "chip": "ym2612"
    },
    {
      "channel": 1,
      "note": 57,
      "start": 12.1622,
      "duration": 0.1665,
      "velocity": 85,
      "chip": "ym2612"
    },
    {
      "channel": 4,
      "note": 80,
      "start": 12.1633,
      "duration": 0.1666,
      "velocity": 88,
      "chip": "ym2612"
    },
    {
      "channel": 5,
      "note": 44,
      "start": 12.167,
      "duration": 0.1665,
      "velocity": 103,
      "chip": "ym2612"
    },
    {
      "channel": 0,
      "note": 74,
      "start": 12.3278,
      "duration": 0.167,
      "velocity": 88,
      "chip": "ym2612"
    },
    {
      "channel": 1,
      "note": 57,
      "start": 12.3288,
      "duration": 0.0819,
      "velocity": 85,
      "chip": "ym2612"
    },
    {
      "channel": 4,
      "note": 75,
      "start": 12.33,
      "duration": 0.1705,
      "velocity": 88,
      "chip": "ym2612"
    },
    {
      "channel": 5,
      "note": 44,
      "start": 12.3336,
      "duration": 0.1705,
      "velocity": 127,
      "chip": "ym2612"
    },
    {
      "channel": 1,
      "note": 57,
      "start": 12.4109,
      "duration": 0.0849,
      "velocity": 85,
      "chip": "ym2612"
    },
    {
      "channel": 0,
      "note": 77,
      "start": 12.495,
      "duration": 0.1659,
      "velocity": 88,
      "chip": "ym2612"
    },
    {
      "channel": 1,
      "note": 57,
      "start": 12.4959,
      "duration": 0.1659,
      "velocity": 85,
      "chip": "ym2612"
    },
    {
      "channel": 2,
      "note": 70,
      "start": 12.4995,
      "duration": 0.0282,
      "velocity": 102,
      "chip": "ym2612"
    },
    {
      "channel": 4,
      "note": 74,
      "start": 12.5005,
      "duration": 0.1633,
      "velocity": 88,
      "chip": "ym2612"
    },
    {
      "channel": 5,
      "note": 54,
      "start": 12.5042,
      "duration": 0.33,
      "velocity": 103,
      "chip": "ym2612"
    },
    {
      "channel": 2,
      "note": 69,
      "start": 12.5278,
      "duration": 0.0501,
      "velocity": 102,
      "chip": "ym2612"
    },
    {
      "channel": 2,
      "note": 68,
      "start": 12.578,
      "duration": 0.0331,
      "velocity": 102,
      "chip": "ym2612"
    },
    {
      "channel": 2,
      "note": 67,
      "start": 12.6111,
      "duration": 0.0517,
      "velocity": 102,
      "chip": "ym2612"
    },
    {
      "channel": 0,
      "note": 76,
      "start": 12.661,
      "duration": 0.167,
      "velocity": 88,
      "chip": "ym2612"
    },
    {
      "channel": 1,
      "note": 57,
      "start": 12.662,
      "duration": 0.0824,
      "velocity": 85,
      "chip": "ym2612"
    },
    {
      "channel": 2,
      "note": 66,
      "start": 12.6629,
      "duration": 0.0314,
      "velocity": 102,
      "chip": "ym2612"
    },
    {
      "channel": 4,
      "note": 77,
      "start": 12.664,
      "duration": 0.1666,
      "velocity": 88,
      "chip": "ym2612"
    },
    {
      "channel": 2,
      "note": 65,
      "start": 12.6944,
      "duration": 0.0508,
      "velocity": 102,
      "chip": "ym2612"
    },
    {
      "channel": 1,
      "note": 57,
      "start": 12.7444,
      "duration": 0.0845,
      "velocity": 85,
      "chip": "ym2612"
    },
    {
      "channel": 2,
      "note": 64,
      "start": 12.7454,
      "duration": 0.0323,
      "velocity": 102,
      "chip": "ym2612"
    },
    {
      "channel": 2,
      "note": 63,
      "start": 12.7778,
      "duration": 0.0518,
      "velocity": 102,
      "chip": "ym2612"
    },
    {
      "channel": 0,
      "note": 81,
      "start": 12.8282,
      "duration": 0.1662,
      "velocity": 88,
      "chip": "ym2612"
    },
    {
      "channel": 1,
      "note": 57,
      "start": 12.8291,
      "duration": 0.1662,
      "velocity": 85,
      "chip": "ym2612"
    },
    {
      "channel": 4,
      "note": 76,
      "start": 12.8307,
      "duration": 0.1666,
      "velocity": 88,
      "chip": "ym2612"
    },
    {
      "channel": 5,
      "note": 44,
      "start": 12.8343,
      "duration": 0.3337,
      "velocity": 127,
      "chip": "ym2612"
    },
    {
      "channel": 3,
      "note": 70,
      "start": 12.9143,
      "duration": 0.0302,
      "velocity": 102,
      "chip": "ym2612"
    },
    {
      "channel": 3,
      "note": 69,
      "start": 12.9446,
      "duration": 0.0518,
      "velocity": 102,
      "chip": "ym2612"
    },
    {
      "channel": 0,
      "note": 77,
      "start": 12.9944,
      "duration": 0.1669,
      "velocity": 88,
      "chip": "ym2612"
    },
    {
      "channel": 1,
      "note": 57,
      "start": 12.9954,
      "duration": 0.0822,
      "velocity": 85,
      "chip": "ym2612"
    },
    {
      "channel": 3,
      "note": 68,
      "start": 12.9965,
      "duration": 0.0313,
      "velocity": 102,
      "chip": "ym2612"
    },
    {
      "channel": 4,
      "note": 81,
      "start": 12.9974,
      "duration": 0.1668,
      "velocity": 88,
      "chip": "ym2612"
    },
    {
      "channel": 3,
      "note": 67,
      "start": 13.0279,
      "duration": 0.0507,
      "velocity": 102,
      "chip": "ym2612"
    },
    {
      "channel": 1,
      "note": 57,
      "start": 13.0777,
      "duration": 0.0846,
      "velocity": 85,
      "chip": "ym2612"
    },
    {
      "channel": 3,
      "note": 66,
      "start": 13.0788,
      "duration": 0.0323,
      "velocity": 102,
      "chip": "ym2612"
    },
    {
      "channel": 3,
      "note": 65,
      "start": 13.1112,
      "duration": 0.0521,
      "velocity": 102,
      "chip": "ym2612"
    },
    {
      "channel": 0,
      "note": 76,
      "start": 13.1614,
      "duration": 0.166,
      "velocity": 88,
      "chip": "ym2612"
    },
    {
      "channel": 1,
      "note": 57,
      "start": 13.1624,
      "duration": 0.166,
      "velocity": 85,
      "chip": "ym2612"
    },
    {
      "channel": 3,
      "note": 64,
      "start": 13.1635,
      "duration": 0.031,
      "velocity": 102,
      "chip": "ym2612"
    },
    {
      "channel": 4,
      "note": 77,
      "start": 13.1644,
      "duration": 0.1651,
      "velocity": 88,
      "chip": "ym2612"
    },
    {
      "channel": 5,
      "note": 54,
      "start": 13.168,
      "duration": 0.3321,
      "velocity": 103,
      "chip": "ym2612"
    },
    {
      "channel": 3,
      "note": 63,
      "start": 13.1946,
      "duration": 0.0498,
      "velocity": 102,
      "chip": "ym2612"
    },
    {
      "channel": 0,
      "note": 80,
      "start": 13.3275,
      "duration": 0.1669,
      "velocity": 88,
      "chip": "ym2612"
    },
    {
      "channel": 1,
      "note": 57,
      "start": 13.3284,
      "duration": 0.0823,
      "velocity": 85,
      "chip": "ym2612"
    },
    {
      "channel": 4,
      "note": 76,
      "start": 13.3296,
      "duration": 0.1669,
      "velocity": 88,
      "chip": "ym2612"
    },
    {
      "channel": 1,
      "note": 57,
      "start": 13.4109,
      "duration": 0.0845,
      "velocity": 85,
      "chip": "ym2612"
    },
    {
      "channel": 0,
      "note": 75,
      "start": 13.4945,
      "duration": 0.1665,
      "velocity": 88,
      "chip": "ym2612"
    },
    {
      "channel": 1,
      "note": 57,
      "start": 13.4955,
      "duration": 0.1665,
      "velocity": 85,
      "chip": "ym2612"
    },
    {
      "channel": 4,
      "note": 80,
      "start": 13.4967,
      "duration": 0.1666,
      "velocity": 88,
      "chip": "ym2612"
    },
    {
      "channel": 5,
      "note": 44,
      "start": 13.5003,
      "duration": 0.1666,
      "velocity": 103,
      "chip": "ym2612"
    },
    {
      "channel": 0,
      "note": 74,
      "start": 13.6612,
      "duration": 0.167,
      "velocity": 88,
      "chip": "ym2612"
    },
    {
      "channel": 1,
      "note": 57,
      "start": 13.6621,
      "duration": 0.0819,
      "velocity": 85,
      "chip": "ym2612"
    },
    {
      "channel": 4,
      "note": 75,
      "start": 13.6633,
      "duration": 0.1705,
      "velocity": 88,
      "chip": "ym2612"
    },
    {
      "channel": 5,
      "note": 44,
      "start": 13.667,
      "duration": 0.1705,
      "velocity": 127,
      "chip": "ym2612"
    },
    {
      "channel": 1,
      "note": 57,
      "start": 13.7442,
      "duration": 0.0849,
      "velocity": 85,
      "chip": "ym2612"
    },
    {
      "channel": 0,
      "note": 77,
      "start": 13.8283,
      "duration": 0.1659,
      "velocity": 88,
      "chip": "ym2612"
    },
    {
      "channel": 1,
      "note": 57,
      "start": 13.8293,
      "duration": 0.1659,
      "velocity": 85,
      "chip": "ym2612"
    },
    {
      "channel": 2,
      "note": 70,
      "start": 13.8328,
      "duration": 0.0282,
      "velocity": 102,
      "chip": "ym2612"
    },
    {
      "channel": 4,
      "note": 74,
      "start": 13.8339,
      "duration": 0.1633,
      "velocity": 88,
      "chip": "ym2612"
    },
    {
      "channel": 5,
      "note": 54,
      "start": 13.8376,
      "duration": 0.3305,
      "velocity": 103,
      "chip": "ym2612"
    },
    {
      "channel": 2,
      "note": 69,
      "start": 13.8611,
      "duration": 0.0501,
      "velocity": 102,
      "chip": "ym2612"
    },
    {
      "channel": 2,
      "note": 68,
      "start": 13.9113,
      "duration": 0.0331,
      "velocity": 102,
      "chip": "ym2612"
    },
    {
      "channel": 2,
      "note": 67,
      "start": 13.9444,
      "duration": 0.0517,
      "velocity": 102,
      "chip": "ym2612"
    },
    {
      "channel": 0,
      "note": 76,
      "start": 13.9943,
      "duration": 0.1672,
      "velocity": 88,
      "chip": "ym2612"
    },
    {
      "channel": 1,
      "note": 57,
      "start": 13.9953,
      "duration": 0.0824,
      "velocity": 85,
      "chip": "ym2612"
    },
    {
      "channel": 2,
      "note": 66,
      "start": 13.9962,
      "duration": 0.0314,
      "velocity": 102,
      "chip": "ym2612"
    },
    {
      "channel": 4,
      "note": 77,
      "start": 13.9973,
      "duration": 0.1672,
      "velocity": 88,
      "chip": "ym2612"
    },
    {
      "channel": 2,
      "note": 65,
      "start": 14.0278,
      "duration": 0.0508,
      "velocity": 102,
      "chip": "ym2612"
    },
    {
      "channel": 1,
      "note": 57,
      "start": 14.0778,
      "duration": 0.0847,
      "velocity": 85,
      "chip": "ym2612"
    },
    {
      "channel": 2,
      "note": 64,
      "start": 14.0787,
      "duration": 0.0323,
      "velocity": 102,
      "chip": "ym2612"
    },
    {
      "channel": 2,
      "note": 63,
      "start": 14.1111,
      "duration": 0.0523,
      "velocity": 102,
      "chip": "ym2612"
    },
    {
      "channel": 0,
      "note": 75,
      "start": 14.1616,
      "duration": 0.1661,
      "velocity": 88,
      "chip": "ym2612"
    },
    {
      "channel": 1,
      "note": 58,
      "start": 14.1626,
      "duration": 0.1661,
      "velocity": 85,
      "chip": "ym2612"
    },
    {
      "channel": 2,
      "note": 70,
      "start": 14.1635,
      "duration": 0.3333,
      "velocity": 102,
      "chip": "ym2612"
    },
    {
      "channel": 4,
      "note": 76,
      "start": 14.1646,
      "duration": 0.1663,
      "velocity": 88,
      "chip": "ym2612"
    },
    {
      "channel": 5,
      "note": 44,
      "start": 14.1682,
      "duration": 0.3341,
      "velocity": 127,
      "chip": "ym2612"
    },
    {
      "channel": 3,
      "note": 70,
      "start": 14.2479,
      "duration": 0.0301,
      "velocity": 102,
      "chip": "ym2612"
    },
    {
      "channel": 3,
      "note": 69,
      "start": 14.2782,
      "duration": 0.0518,
      "velocity": 102,
      "chip": "ym2612"
    },
    {
      "channel": 0,
      "note": 76,
      "start": 14.3278,
      "duration": 0.1671,
      "velocity": 88,
      "chip": "ym2612"
    },
    {
      "channel": 1,
      "note": 58,
      "start": 14.3287,
      "duration": 0.0823,
      "velocity": 85,
      "chip": "ym2612"
    },
    {
      "channel": 3,
      "note": 68,
      "start": 14.33,
      "duration": 0.0314,
      "velocity": 102,
      "chip": "ym2612"
    },
    {
      "channel": 4,
      "note": 75,
      "start": 14.331,
      "duration": 0.1677,
      "velocity": 88,
      "chip": "ym2612"
    },
    {
      "channel": 3,
      "note": 67,
      "start": 14.3615,
      "duration": 0.0508,
      "velocity": 102,
      "chip": "ym2612"
    },
    {
      "channel": 1,
      "note": 58,
      "start": 14.4111,
      "duration": 0.0847,
      "velocity": 85,
      "chip": "ym2612"
    },
    {
      "channel": 3,
      "note": 66,
      "start": 14.4124,
      "duration": 0.0323,
      "velocity": 102,
      "chip": "ym2612"
    },
    {
      "channel": 3,
      "note": 65,
      "start": 14.4448,
      "duration": 0.0529,
      "velocity": 102,
      "chip": "ym2612"
    },
    {
      "channel": 0,
      "note": 77,
      "start": 14.495,
      "duration": 0.1659,
      "velocity": 88,
      "chip": "ym2612"
    },
    {
      "channel": 1,
      "note": 58,
      "start": 14.4959,
      "duration": 0.1659,
      "velocity": 85,
      "chip": "ym2612"
    },
    {
      "channel": 2,
      "note": 62,
      "start": 14.4969,
      "duration": 0.3331,
      "velocity": 102,
      "chip": "ym2612"
    },
    {
      "channel": 3,
      "note": 64,
      "start": 14.4978,
      "duration": 0.0302,
      "velocity": 102,
      "chip": "ym2612"
    },
    {
      "channel": 4,
      "note": 76,
      "start": 14.4988,
      "duration": 0.1646,
      "velocity": 88,
      "chip": "ym2612"
    },
    {
      "channel": 5,
      "note": 54,
      "start": 14.5025,
      "duration": 0.3324,
      "velocity": 103,
      "chip": "ym2612"
    },
    {
      "channel": 3,
      "note": 63,
      "start": 14.5281,
      "duration": 0.0502,
      "velocity": 102,
      "chip": "ym2612"
    },
    {
      "channel": 3,
      "note": 70,
      "start": 14.5784,
      "duration": 0.3332,
      "velocity": 102,
      "chip": "ym2612"
    },
    {
      "channel": 0,
      "note": 82,
      "start": 14.6609,
      "duration": 0.1671,
      "velocity": 88,
      "chip": "ym2612"
    },
    {
      "channel": 1,
      "note": 58,
      "start": 14.6619,
      "duration": 0.0823,
      "velocity": 85,
      "chip": "ym2612"
    },
    {
      "channel": 4,
      "note": 77,
      "start": 14.6635,
      "duration": 0.1678,
      "velocity": 88,
      "chip": "ym2612"
    },
    {
      "channel": 1,
      "note": 58,
      "start": 14.7443,
      "duration": 0.0846,
      "velocity": 85,
      "chip": "ym2612"
    },
    {
      "channel": 0,
      "note": 78,
      "start": 14.8281,
      "duration": 0.1663,
      "velocity": 88,
      "chip": "ym2612"
    },
    {
      "channel": 1,
      "note": 58,
      "start": 14.829,
      "duration": 0.1663,
      "velocity": 85,
      "chip": "ym2612"
    },
    {
      "channel": 2,
      "note": 63,
      "start": 14.83,
      "duration": 0.3332,
      "velocity": 102,
      "chip": "ym2612"
    },
    {
      "channel": 4,
      "note": 82,
      "start": 14.8313,
      "duration": 0.1657,
      "velocity": 88,
      "chip": "ym2612"
    },
    {
      "channel": 5,
      "note": 44,
      "start": 14.835,
      "duration": 0.1657,
      "velocity": 103,
      "chip": "ym2612"
    },
    {
      "channel": 3,
      "note": 62,
      "start": 14.9117,
      "duration": 0.3332,
      "velocity": 102,
      "chip": "ym2612"
    },
    {
      "channel": 0,
      "note": 75,
      "start": 14.9946,
      "duration": 0.1667,
      "velocity": 88,
      "chip": "ym2612"
    },
    {
      "channel": 1,
      "note": 58,
      "start": 14.9955,
      "duration": 0.082,
      "velocity": 85,
      "chip": "ym2612"
    },
    {
      "channel": 4,
      "note": 78,
      "start": 14.9971,
      "duration": 0.1674,
      "velocity": 88,
      "chip": "ym2612"
    },
    {
      "channel": 5,
      "note": 44,
      "start": 15.0008,
      "duration": 0.1674,
      "velocity": 127,
      "chip": "ym2612"
    },
    {
      "channel": 1,
      "note": 58,
      "start": 15.0776,
      "duration": 0.0847,
      "velocity": 85,
      "chip": "ym2612"
    },
    {
      "channel": 0,
      "note": 74,
      "start": 15.1614,
      "duration": 0.166,
      "velocity": 88,
      "chip": "ym2612"
    },
    {
      "channel": 1,
      "note": 58,
      "start": 15.1624,
      "duration": 0.166,
      "velocity": 85,
      "chip": "ym2612"
    },
    {
      "channel": 2,
      "note": 69,
      "start": 15.1633,
      "duration": 0.3333,
      "velocity": 102,
      "chip": "ym2612"
    },
    {
      "channel": 4,
      "note": 75,
      "start": 15.1646,
      "duration": 0.1655,
      "velocity": 88,
      "chip": "ym2612"
    },
    {
      "channel": 5,
      "note": 54,
      "start": 15.1683,
      "duration": 0.3333,
      "velocity": 103,
      "chip": "ym2612"
    },
    {
      "channel": 3,
      "note": 63,
      "start": 15.245,
      "duration": 0.3333,
      "velocity": 102,
      "chip": "ym2612"
    },
    {
      "channel": 0,
      "note": 76,
      "start": 15.3276,
      "duration": 0.1671,
      "velocity": 88,
      "chip": "ym2612"
    },
    {
      "channel": 1,
      "note": 58,
      "start": 15.3285,
      "duration": 0.0823,
      "velocity": 85,
      "chip": "ym2612"
    },
    {
      "channel": 4,
      "note": 74,
      "start": 15.3301,
      "duration": 0.1678,
      "velocity": 88,
      "chip": "ym2612"
    },
    {
      "channel": 1,
      "note": 58,
      "start": 15.411,
      "duration": 0.0846,
      "velocity": 85,
      "chip": "ym2612"
    },
    {
      "channel": 0,
      "note": 75,
      "start": 15.4948,
      "duration": 0.166,
      "velocity": 88,
      "chip": "ym2612"
    },
    {
      "channel": 1,
      "note": 58,
      "start": 15.4958,
      "duration": 0.166,
      "velocity": 85,
      "chip": "ym2612"
    },
    {
      "channel": 2,
      "note": 68,
      "start": 15.4967,
      "duration": 0.3332,
      "velocity": 102,
      "chip": "ym2612"
    },
    {
      "channel": 4,
      "note": 76,
      "start": 15.498,
      "duration": 0.1654,
      "velocity": 88,
      "chip": "ym2612"
    },
    {
      "channel": 5,
      "note": 44,
      "start": 15.5017,
      "duration": 0.3332,
      "velocity": 127,
      "chip": "ym2612"
    },
    {
      "channel": 3,
      "note": 69,
      "start": 15.5783,
      "duration": 0.3333,
      "velocity": 102,
      "chip": "ym2612"
    },
    {
      "channel": 0,
      "note": 74,
      "start": 15.6609,
      "duration": 0.1671,
      "velocity": 88,
      "chip": "ym2612"
    },
    {
      "channel": 1,
      "note": 58,
      "start": 15.6619,
      "duration": 0.0823,
      "velocity": 85,
      "chip": "ym2612"
    },
    {
      "channel": 4,
      "note": 75,
      "start": 15.6635,
      "duration": 0.1678,
      "velocity": 88,
      "chip": "ym2612"
    },
    {
      "channel": 1,
      "note": 58,
      "start": 15.7443,
      "duration": 0.0846,
      "velocity": 85,
      "chip": "ym2612"
    },
    {
      "channel": 0,
      "note": 77,
      "start": 15.8282,
      "duration": 0.166,
      "velocity": 88,
      "chip": "ym2612"
    },
    {
      "channel": 1,
      "note": 58,
      "start": 15.8291,
      "duration": 0.166,
      "velocity": 85,
      "chip": "ym2612"
    },
    {
      "channel": 2,
      "note": 67,
      "start": 15.8301,
      "duration": 0.3332,
      "velocity": 102,
      "chip": "ym2612"
    },
    {
      "channel": 4,
      "note": 74,
      "start": 15.8313,
      "duration": 0.1654,
      "velocity": 88,
      "chip": "ym2612"
    },
    {
      "channel": 5,
      "note": 67,
      "start": 15.835,
      "duration": 0.3332,
      "velocity": 103,
      "chip": "ym2612"
    },
    {
      "channel": 3,
      "note": 68,
      "start": 15.9117,
      "duration": 0.3332,
      "velocity": 102,
      "chip": "ym2612"
    },
    {
      "channel": 0,
      "note": 82,
      "start": 15.9943,
      "duration": 0.167,
      "velocity": 88,
      "chip": "ym2612"
    },
    {
      "channel": 1,
      "note": 58,
      "start": 15.9953,
      "duration": 0.0822,
      "velocity": 85,
      "chip": "ym2612"
    },
    {
      "channel": 4,
      "note": 77,
      "start": 15.9969,
      "duration": 0.1677,
      "velocity": 88,
      "chip": "ym2612"
    },
    {
      "channel": 1,
      "note": 58,
      "start": 16.0777,
      "duration": 0.0846,
      "velocity": 85,
      "chip": "ym2612"
    },
    {
      "channel": 0,
      "note": 81,
      "start": 16.1615,
      "duration": 0.1663,
      "velocity": 88,
      "chip": "ym2612"
    },
    {
      "channel": 1,
      "note": 58,
      "start": 16.1624,
      "duration": 0.1663,
      "velocity": 85,
      "chip": "ym2612"
    },
    {
      "channel": 2,
      "note": 66,
      "start": 16.1634,
      "duration": 0.3332,
      "velocity": 102,
      "chip": "ym2612"
    },
    {
      "channel": 4,
      "note": 82,
      "start": 16.1647,
      "duration": 0.1657,
      "velocity": 88,
      "chip": "ym2612"
    },
    {
      "channel": 5,
      "note": 44,
      "start": 16.1683,
      "duration": 0.1657,
      "velocity": 103,
      "chip": "ym2612"
    },
    {
      "channel": 3,
      "note": 67,
      "start": 16.245,
      "duration": 0.3335,
      "velocity": 102,
      "chip": "ym2612"
    },
    {
      "channel": 0,
      "note": 80,
      "start": 16.3279,
      "duration": 0.1668,
      "velocity": 88,
      "chip": "ym2612"
    },
    {
      "channel": 1,
      "note": 58,
      "start": 16.3289,
      "duration": 0.082,
      "velocity": 85,
      "chip": "ym2612"
    },
    {
      "channel": 4,
      "note": 81,
      "start": 16.3305,
      "duration": 0.1674,
      "velocity": 88,
      "chip": "ym2612"
    },
    {
      "channel": 5,
      "note": 44,
      "start": 16.3341,
      "duration": 0.1674,
      "velocity": 127,
      "chip": "ym2612"
    },
    {
      "channel": 1,
      "note": 58,
      "start": 16.411,
      "duration": 0.0846,
      "velocity": 85,
      "chip": "ym2612"
    },
    {
      "channel": 0,
      "note": 74,
      "start": 16.4948,
      "duration": 0.1663,
      "velocity": 88,
      "chip": "ym2612"
    },
    {
      "channel": 1,
      "note": 58,
      "start": 16.4958,
      "duration": 0.1663,
      "velocity": 85,
      "chip": "ym2612"
    },
    {
      "channel": 2,
      "note": 65,
      "start": 16.4967,
      "duration": 0.3331,
      "velocity": 102,
      "chip": "ym2612"
    },
    {
      "channel": 4,
      "note": 80,
      "start": 16.498,
      "duration": 0.1657,
      "velocity": 88,
      "chip": "ym2612"
    },
    {
      "channel": 5,
      "note": 73,
      "start": 16.5017,
      "duration": 0.0809,
      "velocity": 127,
      "chip": "ym2612"
    },
    {
      "channel": 3,
      "note": 66,
      "start": 16.5787,
      "duration": 0.3327,
      "velocity": 102,
      "chip": "ym2612"
    },
    {
      "channel": 5,
      "note": 73,
      "start": 16.5827,
      "duration": 0.0847,
      "velocity": 127,
      "chip": "ym2612"
    },
    {
      "channel": 0,
      "note": 75,
      "start": 16.6612,
      "duration": 0.167,
      "velocity": 88,
      "chip": "ym2612"
    },
    {
      "channel": 1,
      "note": 58,
      "start": 16.6622,
      "duration": 0.0824,
      "velocity": 85,
      "chip": "ym2612"
    },
    {
      "channel": 4,
      "note": 74,
      "start": 16.6639,
      "duration": 0.1672,
      "velocity": 88,
      "chip": "ym2612"
    },
    {
      "channel": 5,
      "note": 67,
      "start": 16.6675,
      "duration": 0.0817,
      "velocity": 103,
      "chip": "ym2612"
    },
    {
      "channel": 1,
      "note": 58,
      "start": 16.7447,
      "duration": 0.0845,
      "velocity": 85,
      "chip": "ym2612"
    },
    {
      "channel": 5,
      "note": 44,
      "start": 16.7493,
      "duration": 0.0854,
      "velocity": 103,
      "chip": "ym2612"
    },
    {
      "channel": 0,
      "note": 81,
      "start": 16.8283,
      "duration": 0.1659,
      "velocity": 88,
      "chip": "ym2612"
    },
    {
      "channel": 1,
      "note": 57,
      "start": 16.8293,
      "duration": 0.1659,
      "velocity": 85,
      "chip": "ym2612"
    },
    {
      "channel": 4,
      "note": 75,
      "start": 16.8311,
      "duration": 0.1655,
      "velocity": 88,
      "chip": "ym2612"
    },
    {
      "channel": 5,
      "note": 44,
      "start": 16.8348,
      "duration": 0.3324,
      "velocity": 127,
      "chip": "ym2612"
    },
    {
      "channel": 3,
      "note": 65,
      "start": 16.9115,
      "duration": 0.3328,
      "velocity": 102,
      "chip": "ym2612"
    },
    {
      "channel": 0,
      "note": 77,
      "start": 16.9943,
      "duration": 0.1668,
      "velocity": 88,
      "chip": "ym2612"
    },
    {
      "channel": 1,
      "note": 57,
      "start": 16.9953,
      "duration": 0.0822,
      "velocity": 85,
      "chip": "ym2612"
    },
    {
      "channel": 4,
      "note": 81,
      "start": 16.9966,
      "duration": 0.1669,
      "velocity": 88,
      "chip": "ym2612"
    },
    {
      "channel": 1,
      "note": 57,
      "start": 17.0776,
      "duration": 0.0845,
      "velocity": 85,
      "chip": "ym2612"
    },
    {
      "channel": 0,
      "note": 76,
      "start": 17.1613,
      "duration": 0.166,
      "velocity": 88,
      "chip": "ym2612"
    },
    {
      "channel": 1,
      "note": 57,
      "start": 17.1623,
      "duration": 0.166,
      "velocity": 85,
      "chip": "ym2612"
    },
    {
      "channel": 4,
      "note": 77,
      "start": 17.1637,
      "duration": 0.1659,
      "velocity": 88,
      "chip": "ym2612"
    },
    {
      "channel": 5,
      "note": 54,
      "start": 17.1673,
      "duration": 0.3329,
      "velocity": 103,
      "chip": "ym2612"
    },
    {
      "channel": 0,
      "note": 80,
      "start": 17.3275,
      "duration": 0.167,
      "velocity": 88,
      "chip": "ym2612"
    },
    {
      "channel": 1,
      "note": 57,
      "start": 17.3284,
      "duration": 0.0824,
      "velocity": 85,
      "chip": "ym2612"
    },
    {
      "channel": 4,
      "note": 76,
      "start": 17.3296,
      "duration": 0.167,
      "velocity": 88,
      "chip": "ym2612"
    },
    {
      "channel": 1,
      "note": 57,
      "start": 17.4109,
      "duration": 0.0845,
      "velocity": 85,
      "chip": "ym2612"
    },
    {
      "channel": 0,
      "note": 75,
      "start": 17.4946,
      "duration": 0.1665,
      "velocity": 88,
      "chip": "ym2612"
    },
    {
      "channel": 1,
      "note": 57,
      "start": 17.4955,
      "duration": 0.1665,
      "velocity": 85,
      "chip": "ym2612"
    },
    {
      "channel": 4,
      "note": 80,
      "start": 17.4967,
      "duration": 0.1665,
      "velocity": 88,
      "chip": "ym2612"
    },
    {
      "channel": 5,
      "note": 44,
      "start": 17.5004,
      "duration": 0.1665,
      "velocity": 103,
      "chip": "ym2612"
    },
    {
      "channel": 0,
      "note": 74,
      "start": 17.6612,
      "duration": 0.167,
      "velocity": 88,
      "chip": "ym2612"
    },
    {
      "channel": 1,
      "note": 57,
      "start": 17.6621,
      "duration": 0.0819,
      "velocity": 85,
      "chip": "ym2612"
    },
    {
      "channel": 4,
      "note": 75,
      "start": 17.6633,
      "duration": 0.1705,
      "velocity": 88,
      "chip": "ym2612"
    },
    {
      "channel": 5,
      "note": 44,
      "start": 17.667,
      "duration": 0.1705,
      "velocity": 127,
      "chip": "ym2612"
    },
    {
      "channel": 1,
      "note": 57,
      "start": 17.7442,
      "duration": 0.0849,
      "velocity": 85,
      "chip": "ym2612"
    },
    {
      "channel": 0,
      "note": 77,
      "start": 17.8283,
      "duration": 0.1659,
      "velocity": 88,
      "chip": "ym2612"
    },
    {
      "channel": 1,
      "note": 57,
      "start": 17.8293,
      "duration": 0.1659,
      "velocity": 85,
      "chip": "ym2612"
    },
    {
      "channel": 2,
      "note": 70,
      "start": 17.8328,
      "duration": 0.0282,
      "velocity": 102,
      "chip": "ym2612"
    },
    {
      "channel": 4,
      "note": 74,
      "start": 17.8339,
      "duration": 0.1633,
      "velocity": 88,
      "chip": "ym2612"
    },
    {
      "channel": 5,
      "note": 54,
      "start": 17.8376,
      "duration": 0.33,
      "velocity": 103,
      "chip": "ym2612"
    },
    {
      "channel": 2,
      "note": 69,
      "start": 17.8611,
      "duration": 0.0501,
      "velocity": 102,
      "chip": "ym2612"
    },
    {
      "channel": 2,
      "note": 68,
      "start": 17.9113,
      "duration": 0.0331,
      "velocity": 102,
      "chip": "ym2612"
    },
    {
      "channel": 2,
      "note": 67,
      "start": 17.9444,
      "duration": 0.0517,
      "velocity": 102,
      "chip": "ym2612"
    },
    {
      "channel": 0,
      "note": 76,
      "start": 17.9943,
      "duration": 0.167,
      "velocity": 88,
      "chip": "ym2612"
    },
    {
      "channel": 1,
      "note": 57,
      "start": 17.9953,
      "duration": 0.0824,
      "velocity": 85,
      "chip": "ym2612"
    },
    {
      "channel": 2,
      "note": 66,
      "start": 17.9962,
      "duration": 0.0314,
      "velocity": 102,
      "chip": "ym2612"
    },
    {
      "channel": 4,
      "note": 77,
      "start": 17.9973,
      "duration": 0.1666,
      "velocity": 88,
      "chip": "ym2612"
    },
    {
      "channel": 2,
      "note": 65,
      "start": 18.0278,
      "duration": 0.0508,
      "velocity": 102,
      "chip": "ym2612"
    },
    {
      "channel": 1,
      "note": 57,
      "start": 18.0778,
      "duration": 0.0845,
      "velocity": 85,
      "chip": "ym2612"
    },
    {
      "channel": 2,
      "note": 64,
      "start": 18.0787,
      "duration": 0.0323,
      "velocity": 102,
      "chip": "ym2612"
    },
    {
      "channel": 2,
      "note": 63,
      "start": 18.1111,
      "duration": 0.0518,
      "velocity": 102,
      "chip": "ym2612"
    },
    {
      "channel": 0,
      "note": 81,
      "start": 18.1615,
      "duration": 0.1662,
      "velocity": 88,
      "chip": "ym2612"
    },
    {
      "channel": 1,
      "note": 57,
      "start": 18.1624,
      "duration": 0.1662,
      "velocity": 85,
      "chip": "ym2612"
    },
    {
      "channel": 4,
      "note": 76,
      "start": 18.164,
      "duration": 0.1666,
      "velocity": 88,
      "chip": "ym2612"
    },
    {
      "channel": 5,
      "note": 44,
      "start": 18.1677,
      "duration": 0.3337,
      "velocity": 127,
      "chip": "ym2612"
    },
    {
      "channel": 3,
      "note": 70,
      "start": 18.2476,
      "duration": 0.0302,
      "velocity": 102,
      "chip": "ym2612"
    },
    {
      "channel": 3,
      "note": 69,
      "start": 18.2779,
      "duration": 0.0518,
      "velocity": 102,
      "chip": "ym2612"
    },
    {
      "channel": 0,
      "note": 77,
      "start": 18.3278,
      "duration": 0.1669,
      "velocity": 88,
      "chip": "ym2612"
    },
    {
      "channel": 1,
      "note": 57,
      "start": 18.3287,
      "duration": 0.0822,
      "velocity": 85,
      "chip": "ym2612"
    },
    {
      "channel": 3,
      "note": 68,
      "start": 18.3298,
      "duration": 0.0313,
      "velocity": 102,
      "chip": "ym2612"
    },
    {
      "channel": 4,
      "note": 81,
      "start": 18.3308,
      "duration": 0.1668,
      "velocity": 88,
      "chip": "ym2612"
    },
    {
      "channel": 3,
      "note": 67,
      "start": 18.3612,
      "duration": 0.0507,
      "velocity": 102,
      "chip": "ym2612"
    },
    {
      "channel": 1,
      "note": 57,
      "start": 18.411,
      "duration": 0.0846,
      "velocity": 85,
      "chip": "ym2612"
    },
    {
      "channel": 3,
      "note": 66,
      "start": 18.4121,
      "duration": 0.0323,
      "velocity": 102,
      "chip": "ym2612"
    },
    {
      "channel": 3,
      "note": 65,
      "start": 18.4446,
      "duration": 0.0521,
      "velocity": 102,
      "chip": "ym2612"
    },
    {
      "channel": 0,
      "note": 76,
      "start": 18.4948,
      "duration": 0.166,
      "velocity": 88,
      "chip": "ym2612"
    },
    {
      "channel": 1,
      "note": 57,
      "start": 18.4957,
      "duration": 0.166,
      "velocity": 85,
      "chip": "ym2612"
    },
    {
      "channel": 3,
      "note": 64,
      "start": 18.4968,
      "duration": 0.031,
      "velocity": 102,
      "chip": "ym2612"
    },
    {
      "channel": 4,
      "note": 77,
      "start": 18.4978,
      "duration": 0.1651,
      "velocity": 88,
      "chip": "ym2612"
    },
    {
      "channel": 5,
      "note": 54,
      "start": 18.5014,
      "duration": 0.3321,
      "velocity": 103,
      "chip": "ym2612"
    },
    {
      "channel": 3,
      "note": 63,
      "start": 18.5279,
      "duration": 0.0498,
      "velocity": 102,
      "chip": "ym2612"
    },
    {
      "channel": 0,
      "note": 80,
      "start": 18.6608,
      "duration": 0.1669,
      "velocity": 88,
      "chip": "ym2612"
    },
    {
      "channel": 1,
      "note": 57,
      "start": 18.6617,
      "duration": 0.0823,
      "velocity": 85,
      "chip": "ym2612"
    },
    {
      "channel": 4,
      "note": 76,
      "start": 18.6629,
      "duration": 0.1669,
      "velocity": 88,
      "chip": "ym2612"
    },
    {
      "channel": 1,
      "note": 57,
      "start": 18.7442,
      "duration": 0.0845,
      "velocity": 85,
      "chip": "ym2612"
    },
    {
      "channel": 0,
      "note": 75,
      "start": 18.8278,
      "duration": 0.1665,
      "velocity": 88,
      "chip": "ym2612"
    },
    {
      "channel": 1,
      "note": 57,
      "start": 18.8288,
      "duration": 0.1665,
      "velocity": 85,
      "chip": "ym2612"
    },
    {
      "channel": 4,
      "note": 80,
      "start": 18.83,
      "duration": 0.1666,
      "velocity": 88,
      "chip": "ym2612"
    },
    {
      "channel": 5,
      "note": 44,
      "start": 18.8336,
      "duration": 0.1666,
      "velocity": 103,
      "chip": "ym2612"
    },
    {
      "channel": 0,
      "note": 74,
      "start": 18.9945,
      "duration": 0.167,
      "velocity": 88,
      "chip": "ym2612"
    },
    {
      "channel": 1,
      "note": 57,
      "start": 18.9955,
      "duration": 0.0819,
      "velocity": 85,
      "chip": "ym2612"
    },
    {
      "channel": 4,
      "note": 75,
      "start": 18.9966,
      "duration": 0.1705,
      "velocity": 88,
      "chip": "ym2612"
    },
    {
      "channel": 5,
      "note": 44,
      "start": 19.0003,
      "duration": 0.1705,
      "velocity": 127,
      "chip": "ym2612"
    },
    {
      "channel": 1,
      "note": 57,
      "start": 19.0775,
      "duration": 0.0849,
      "velocity": 85,
      "chip": "ym2612"
    },
    {
      "channel": 0,
      "note": 77,
      "start": 19.1616,
      "duration": 0.1659,
      "velocity": 88,
      "chip": "ym2612"
    },
    {
      "channel": 1,
      "note": 57,
      "start": 19.1626,
      "duration": 0.1659,
      "velocity": 85,
      "chip": "ym2612"
    },
    {
      "channel": 2,
      "note": 70,
      "start": 19.1661,
      "duration": 0.0282,
      "velocity": 102,
      "chip": "ym2612"
    },
    {
      "channel": 4,
      "note": 74,
      "start": 19.1672,
      "duration": 0.1633,
      "velocity": 88,
      "chip": "ym2612"
    },
    {
      "channel": 5,
      "note": 54,
      "start": 19.1709,
      "duration": 0.3305,
      "velocity": 103,
      "chip": "ym2612"
    },
    {
      "channel": 2,
      "note": 69,
      "start": 19.1944,
      "duration": 0.0501,
      "velocity": 102,
      "chip": "ym2612"
    },
    {
      "channel": 2,
      "note": 68,
      "start": 19.2446,
      "duration": 0.0331,
      "velocity": 102,
      "chip": "ym2612"
    },
    {
      "channel": 2,
      "note": 67,
      "start": 19.2778,
      "duration": 0.0517,
      "velocity": 102,
      "chip": "ym2612"
    },
    {
      "channel": 0,
      "note": 76,
      "start": 19.3277,
      "duration": 0.1672,
      "velocity": 88,
      "chip": "ym2612"
    },
    {
      "channel": 1,
      "note": 57,
      "start": 19.3286,
      "duration": 0.0824,
      "velocity": 85,
      "chip": "ym2612"
    },
    {
      "channel": 2,
      "note": 66,
      "start": 19.3296,
      "duration": 0.0314,
      "velocity": 102,
      "chip": "ym2612"
    },
    {
      "channel": 4,
      "note": 77,
      "start": 19.3306,
      "duration": 0.1672,
      "velocity": 88,
      "chip": "ym2612"
    },
    {
      "channel": 2,
      "note": 65,
      "start": 19.3611,
      "duration": 0.0508,
      "velocity": 102,
      "chip": "ym2612"
    },
    {
      "channel": 1,
      "note": 57,
      "start": 19.4111,
      "duration": 0.0847,
      "velocity": 85,
      "chip": "ym2612"
    },
    {
      "channel": 2,
      "note": 64,
      "start": 19.4121,
      "duration": 0.0323,
      "velocity": 102,
      "chip": "ym2612"
    },
    {
      "channel": 2,
      "note": 63,
      "start": 19.4444,
      "duration": 0.0523,
      "velocity": 102,
      "chip": "ym2612"
    },
    {
      "channel": 0,
      "note": 75,
      "start": 19.495,
      "duration": 0.1661,
      "velocity": 88,
      "chip": "ym2612"
    },
    {
      "channel": 1,
      "note": 58,
      "start": 19.4959,
      "duration": 0.1661,
      "velocity": 85,
      "chip": "ym2612"
    },
    {
      "channel": 2,
      "note": 70,
      "start": 19.4969,
      "duration": 0.3333,
      "velocity": 102,
      "chip": "ym2612"
    },
    {
      "channel": 4,
      "note": 76,
      "start": 19.4979,
      "duration": 0.1663,
      "velocity": 88,
      "chip": "ym2612"
    },
    {
      "channel": 5,
      "note": 44,
      "start": 19.5016,
      "duration": 0.3341,
      "velocity": 127,
      "chip": "ym2612"
    },
    {
      "channel": 3,
      "note": 70,
      "start": 19.5813,
      "duration": 0.0301,
      "velocity": 102,
      "chip": "ym2612"
    },
    {
      "channel": 3,
      "note": 69,
      "start": 19.6115,
      "duration": 0.0518,
      "velocity": 102,
      "chip": "ym2612"
    },
    {
      "channel": 0,
      "note": 76,
      "start": 19.6611,
      "duration": 0.1671,
      "velocity": 88,
      "chip": "ym2612"
    },
    {
      "channel": 1,
      "note": 58,
      "start": 19.6621,
      "duration": 0.0823,
      "velocity": 85,
      "chip": "ym2612"
    },
    {
      "channel": 3,
      "note": 68,
      "start": 19.6633,
      "duration": 0.0314,
      "velocity": 102,
      "chip": "ym2612"
    },
    {
      "channel": 4,
      "note": 75,
      "start": 19.6644,
      "duration": 0.1677,
      "velocity": 88,
      "chip": "ym2612"
    },
    {
      "channel": 3,
      "note": 67,
      "start": 19.6948,
      "duration": 0.0508,
      "velocity": 102,
      "chip": "ym2612"
    },
    {
      "channel": 1,
      "note": 58,
      "start": 19.7444,
      "duration": 0.0847,
      "velocity": 85,
      "chip": "ym2612"
    },
    {
      "channel": 3,
      "note": 66,
      "start": 19.7457,
      "duration": 0.0323,
      "velocity": 102,
      "chip": "ym2612"
    },
    {
      "channel": 3,
      "note": 65,
      "start": 19.7782,
      "duration": 0.0529,
      "velocity": 102,
      "chip": "ym2612"
    },
    {
      "channel": 0,
      "note": 77,
      "start": 19.8283,
      "duration": 0.1659,
      "velocity": 88,
      "chip": "ym2612"
    },
    {
      "channel": 1,
      "note": 58,
      "start": 19.8293,
      "duration": 0.1659,
      "velocity": 85,
      "chip": "ym2612"
    },
    {
      "channel": 2,
      "note": 62,
      "start": 19.8302,
      "duration": 0.3331,
      "velocity": 102,
      "chip": "ym2612"
    },
    {
      "channel": 3,
      "note": 64,
      "start": 19.8312,
      "duration": 0.0302,
      "velocity": 102,
      "chip": "ym2612"
    },
    {
      "channel": 4,
      "note": 76,
      "start": 19.8322,
      "duration": 0.1646,
      "velocity": 88,
      "chip": "ym2612"
    },
    {
      "channel": 5,
      "note": 54,
      "start": 19.8358,
      "duration": 0.3324,
      "velocity": 103,
      "chip": "ym2612"
    },
    {
      "channel": 3,
      "note": 63,
      "start": 19.8614,
      "duration": 0.0502,
      "velocity": 102,
      "chip": "ym2612"
    },
    {
      "channel": 3,
      "note": 70,
      "start": 19.9117,
      "duration": 0.3332,
      "velocity": 102,
      "chip": "ym2612"
    },
    {
      "channel": 0,
      "note": 82,
      "start": 19.9943,
      "duration": 0.1671,
      "velocity": 88,
      "chip": "ym2612"
    },
    {
      "channel": 1,
      "note": 58,
      "start": 19.9952,
      "duration": 0.0823,
      "velocity": 85,
      "chip": "ym2612"
    },
    {
      "channel": 4,
      "note": 77,
      "start": 19.9968,
      "duration": 0.1678,
      "velocity": 88,
      "chip": "ym2612"
    },
    {
      "channel": 1,
      "note": 58,
      "start": 20.0777,
      "duration": 0.0846,
      "velocity": 85,
      "chip": "ym2612"
    },
    {
      "channel": 0,
      "note": 78,
      "start": 20.1614,
      "duration": 0.1663,
      "velocity": 88,
      "chip": "ym2612"
    },
    {
      "channel": 1,
      "note": 58,
      "start": 20.1624,
      "duration": 0.1663,
      "velocity": 85,
      "chip": "ym2612"
    },
    {
      "channel": 2,
      "note": 63,
      "start": 20.1633,
      "duration": 0.3332,
      "velocity": 102,
      "chip": "ym2612"
    },
    {
      "channel": 4,
      "note": 82,
      "start": 20.1647,
      "duration": 0.1657,
      "velocity": 88,
      "chip": "ym2612"
    },
    {
      "channel": 5,
      "note": 44,
      "start": 20.1683,
      "duration": 0.1657,
      "velocity": 103,
      "chip": "ym2612"
    },
    {
      "channel": 3,
      "note": 62,
      "start": 20.245,
      "duration": 0.3332,
      "velocity": 102,
      "chip": "ym2612"
    },
    {
      "channel": 0,
      "note": 75,
      "start": 20.3279,
      "duration": 0.1667,
      "velocity": 88,
      "chip": "ym2612"
    },
    {
      "channel": 1,
      "note": 58,
      "start": 20.3289,
      "duration": 0.082,
      "velocity": 85,
      "chip": "ym2612"
    },
    {
      "channel": 4,
      "note": 78,
      "start": 20.3305,
      "duration": 0.1674,
      "velocity": 88,
      "chip": "ym2612"
    },
    {
      "channel": 5,
      "note": 44,
      "start": 20.3341,
      "duration": 0.1674,
      "velocity": 127,
      "chip": "ym2612"
    },
    {
      "channel": 1,
      "note": 58,
      "start": 20.4109,
      "duration": 0.0847,
      "velocity": 85,
      "chip": "ym2612"
    },
    {
      "channel": 0,
      "note": 74,
      "start": 20.4948,
      "duration": 0.166,
      "velocity": 88,
      "chip": "ym2612"
    },
    {
      "channel": 1,
      "note": 58,
      "start": 20.4957,
      "duration": 0.166,
      "velocity": 85,
      "chip": "ym2612"
    },
    {
      "channel": 2,
      "note": 69,
      "start": 20.4967,
      "duration": 0.3333,
      "velocity": 102,
      "chip": "ym2612"
    },
    {
      "channel": 4,
      "note": 75,
      "start": 20.4979,
      "duration": 0.1655,
      "velocity": 88,
      "chip": "ym2612"
    },
    {
      "channel": 5,
      "note": 54,
      "start": 20.5016,
      "duration": 0.3333,
      "velocity": 103,
      "chip": "ym2612"
    },
    {
      "channel": 3,
      "note": 63,
      "start": 20.5783,
      "duration": 0.3333,
      "velocity": 102,
      "chip": "ym2612"
    },
    {
      "channel": 0,
      "note": 76,
      "start": 20.6609,
      "duration": 0.1671,
      "velocity": 88,
      "chip": "ym2612"
    },
    {
      "channel": 1,
      "note": 58,
      "start": 20.6619,
      "duration": 0.0823,
      "velocity": 85,
      "chip": "ym2612"
    },
    {
      "channel": 4,
      "note": 74,
      "start": 20.6635,
      "duration": 0.1678,
      "velocity": 88,
      "chip": "ym2612"
    },
    {
      "channel": 1,
      "note": 58,
      "start": 20.7443,
      "duration": 0.0846,
      "velocity": 85,
      "chip": "ym2612"
    },
    {
      "channel": 0,
      "note": 75,
      "start": 20.8282,
      "duration": 0.166,
      "velocity": 88,
      "chip": "ym2612"
    },
    {
      "channel": 1,
      "note": 58,
      "start": 20.8291,
      "duration": 0.166,
      "velocity": 85,
      "chip": "ym2612"
    },
    {
      "channel": 2,
      "note": 68,
      "start": 20.8301,
      "duration": 0.3332,
      "velocity": 102,
      "chip": "ym2612"
    },
    {
      "channel": 4,
      "note": 76,
      "start": 20.8313,
      "duration": 0.1654,
      "velocity": 88,
      "chip": "ym2612"
    },
    {
      "channel": 5,
      "note": 44,
      "start": 20.835,
      "duration": 0.3332,
      "velocity": 127,
      "chip": "ym2612"
    },
    {
      "channel": 3,
      "note": 69,
      "start": 20.9116,
      "duration": 0.3333,
      "velocity": 102,
      "chip": "ym2612"
    },
    {
      "channel": 0,
      "note": 74,
      "start": 20.9943,
      "duration": 0.1671,
      "velocity": 88,
      "chip": "ym2612"
    },
    {
      "channel": 1,
      "note": 58,
      "start": 20.9952,
      "duration": 0.0823,
      "velocity": 85,
      "chip": "ym2612"
    },
    {
      "channel": 4,
      "note": 75,
      "start": 20.9968,
      "duration": 0.1678,
      "velocity": 88,
      "chip": "ym2612"
    },
    {
      "channel": 1,
      "note": 58,
      "start": 21.0777,
      "duration": 0.0846,
      "velocity": 85,
      "chip": "ym2612"
    },
    {
      "channel": 0,
      "note": 77,
      "start": 21.1615,
      "duration": 0.166,
      "velocity": 88,
      "chip": "ym2612"
    },
    {
      "channel": 1,
      "note": 58,
      "start": 21.1624,
      "duration": 0.166,
      "velocity": 85,
      "chip": "ym2612"
    },
    {
      "channel": 2,
      "note": 67,
      "start": 21.1634,
      "duration": 0.3332,
      "velocity": 102,
      "chip": "ym2612"
    },
    {
      "channel": 4,
      "note": 74,
      "start": 21.1647,
      "duration": 0.1654,
      "velocity": 88,
      "chip": "ym2612"
    },
    {
      "channel": 5,
      "note": 67,
      "start": 21.1684,
      "duration": 0.3332,
      "velocity": 103,
      "chip": "ym2612"
    },
    {
      "channel": 3,
      "note": 68,
      "start": 21.245,
      "duration": 0.3332,
      "velocity": 102,
      "chip": "ym2612"
    },
    {
      "channel": 0,
      "note": 82,
      "start": 21.3277,
      "duration": 0.167,
      "velocity": 88,
      "chip": "ym2612"
    },
    {
      "channel": 1,
      "note": 58,
      "start": 21.3286,
      "duration": 0.0822,
      "velocity": 85,
      "chip": "ym2612"
    },
    {
      "channel": 4,
      "note": 77,
      "start": 21.3302,
      "duration": 0.1677,
      "velocity": 88,
      "chip": "ym2612"
    },
    {
      "channel": 1,
      "note": 58,
      "start": 21.411,
      "duration": 0.0846,
      "velocity": 85,
      "chip": "ym2612"
    },
    {
      "channel": 0,
      "note": 81,
      "start": 21.4948,
      "duration": 0.1663,
      "velocity": 88,
      "chip": "ym2612"
    },
    {
      "channel": 1,
      "note": 58,
      "start": 21.4958,
      "duration": 0.1663,
      "velocity": 85,
      "chip": "ym2612"
    },
    {
      "channel": 2,
      "note": 66,
      "start": 21.4967,
      "duration": 0.3332,
      "velocity": 102,
      "chip": "ym2612"
    },
    {
      "channel": 4,
      "note": 82,
      "start": 21.498,
      "duration": 0.1657,
      "velocity": 88,
      "chip": "ym2612"
    },
    {
      "channel": 5,
      "note": 44,
      "start": 21.5016,
      "duration": 0.1657,
      "velocity": 103,
      "chip": "ym2612"
    },
    {
      "channel": 3,
      "note": 67,
      "start": 21.5783,
      "duration": 0.3335,
      "velocity": 102,
      "chip": "ym2612"
    },
    {
      "channel": 0,
      "note": 80,
      "start": 21.6612,
      "duration": 0.1668,
      "velocity": 88,
      "chip": "ym2612"
    },
    {
      "channel": 1,
      "note": 58,
      "start": 21.6622,
      "duration": 0.082,
      "velocity": 85,
      "chip": "ym2612"
    },
    {
      "channel": 4,
      "note": 81,
      "start": 21.6638,
      "duration": 0.1674,
      "velocity": 88,
      "chip": "ym2612"
    },
    {
      "channel": 5,
      "note": 44,
      "start": 21.6675,
      "duration": 0.1674,
      "velocity": 127,
      "chip": "ym2612"
    },
    {
      "channel": 1,
      "note": 58,
      "start": 21.7443,
      "duration": 0.0846,
      "velocity": 85,
      "chip": "ym2612"
    },
    {
      "channel": 0,
      "note": 74,
      "start": 21.8282,
      "duration": 0.1663,
      "velocity": 88,
      "chip": "ym2612"
    },
    {
      "channel": 1,
      "note": 58,
      "start": 21.8291,
      "duration": 0.1663,
      "velocity": 85,
      "chip": "ym2612"
    },
    {
      "channel": 2,
      "note": 65,
      "start": 21.8301,
      "duration": 0.3335,
      "velocity": 102,
      "chip": "ym2612"
    },
    {
      "channel": 4,
      "note": 80,
      "start": 21.8313,
      "duration": 0.1657,
      "velocity": 88,
      "chip": "ym2612"
    },
    {
      "channel": 5,
      "note": 73,
      "start": 21.835,
      "duration": 0.0809,
      "velocity": 127,
      "chip": "ym2612"
    },
    {
      "channel": 3,
      "note": 66,
      "start": 21.912,
      "duration": 0.3329,
      "velocity": 102,
      "chip": "ym2612"
    },
    {
      "channel": 5,
      "note": 73,
      "start": 21.916,
      "duration": 0.0847,
      "velocity": 127,
      "chip": "ym2612"
    },
    {
      "channel": 0,
      "note": 75,
      "start": 21.9946,
      "duration": 0.1671,
      "velocity": 88,
      "chip": "ym2612"
    },
    {
      "channel": 1,
      "note": 58,
      "start": 21.9955,
      "duration": 0.0824,
      "velocity": 85,
      "chip": "ym2612"
    },
    {
      "channel": 4,
      "note": 74,
      "start": 21.9972,
      "duration": 0.1676,
      "velocity": 88,
      "chip": "ym2612"
    },
    {
      "channel": 5,
      "note": 67,
      "start": 22.0008,
      "duration": 0.0817,
      "velocity": 103,
      "chip": "ym2612"
    },
    {
      "channel": 1,
      "note": 58,
      "start": 22.078,
      "duration": 0.0846,
      "velocity": 85,
      "chip": "ym2612"
    },
    {
      "channel": 5,
      "note": 44,
      "start": 22.0826,
      "duration": 0.0859,
      "velocity": 103,
      "chip": "ym2612"
    },
    {
      "channel": 0,
      "note": 76,
      "start": 22.1617,
      "duration": 0.6662,
      "velocity": 88,
      "chip": "ym2612"
    },
    {
      "channel": 1,
      "note": 57,
      "start": 22.1627,
      "duration": 0.165,
      "velocity": 85,
      "chip": "ym2612"
    },
    {
      "channel": 2,
      "note": 71,
      "start": 22.1637,
      "duration": 0.6662,
      "velocity": 102,
      "chip": "ym2612"
    },
    {
      "channel": 4,
      "note": 75,
      "start": 22.1649,
      "duration": 0.1644,
      "velocity": 88,
      "chip": "ym2612"
    },
    {
      "channel": 5,
      "note": 44,
      "start": 22.1685,
      "duration": 0.3307,
      "velocity": 127,
      "chip": "ym2612"
    },
    {
      "channel": 3,
      "note": 65,
      "start": 22.245,
      "duration": 0.3332,
      "velocity": 102,
      "chip": "ym2612"
    },
    {
      "channel": 1,
      "note": 57,
      "start": 22.3278,
      "duration": 0.0829,
      "velocity": 85,
      "chip": "ym2612"
    },
    {
      "channel": 4,
      "note": 76,
      "start": 22.3294,
      "duration": 0.6668,
      "velocity": 88,
      "chip": "ym2612"
    },
    {
      "channel": 1,
      "note": 57,
      "start": 22.4109,
      "duration": 0.0837,
      "velocity": 85,
      "chip": "ym2612"
    },
    {
      "channel": 1,
      "note": 57,
      "start": 22.4947,
      "duration": 0.166,
      "velocity": 85,
      "chip": "ym2612"
    },
    {
      "channel": 5,
      "note": 67,
      "start": 22.4993,
      "duration": 0.3346,
      "velocity": 103,
      "chip": "ym2612"
    },
    {
      "channel": 3,
      "note": 71,
      "start": 22.5783,
      "duration": 0.6665,
      "velocity": 102,
      "chip": "ym2612"
    },
    {
      "channel": 1,
      "note": 57,
      "start": 22.6608,
      "duration": 0.0833,
      "velocity": 85,
      "chip": "ym2612"
    },
    {
      "channel": 1,
      "note": 57,
      "start": 22.7441,
      "duration": 0.0847,
      "velocity": 85,
      "chip": "ym2612"
    },
    {
      "channel": 0,
      "note": 75,
      "start": 22.828,
      "duration": 0.6666,
      "velocity": 88,
      "chip": "ym2612"
    },
    {
      "channel": 1,
      "note": 57,
      "start": 22.8289,
      "duration": 0.1657,
      "velocity": 85,
      "chip": "ym2612"
    },
    {
      "channel": 2,
      "note": 70,
      "start": 22.8299,
      "duration": 0.6666,
      "velocity": 102,
      "chip": "ym2612"
    },
    {
      "channel": 5,
      "note": 44,
      "start": 22.8341,
      "duration": 0.1658,
      "velocity": 103,
      "chip": "ym2612"
    },
    {
      "channel": 1,
      "note": 57,
      "start": 22.9948,
      "duration": 0.0827,
      "velocity": 85,
      "chip": "ym2612"
    },
    {
      "channel": 4,
      "note": 75,
      "start": 22.9963,
      "duration": 0.667,
      "velocity": 88,
      "chip": "ym2612"
    },
    {
      "channel": 5,
      "note": 44,
      "start": 23.0,
      "duration": 0.1657,
      "velocity": 127,
      "chip": "ym2612"
    },
    {
      "channel": 1,
      "note": 57,
      "start": 23.0776,
      "duration": 0.0837,
      "velocity": 85,
      "chip": "ym2612"
    },
    {
      "channel": 1,
      "note": 57,
      "start": 23.1614,
      "duration": 0.166,
      "velocity": 85,
      "chip": "ym2612"
    },
    {
      "channel": 5,
      "note": 54,
      "start": 23.1659,
      "duration": 0.3348,
      "velocity": 103,
      "chip": "ym2612"
    },
    {
      "channel": 3,
      "note": 70,
      "start": 23.245,
      "duration": 0.6666,
      "velocity": 102,
      "chip": "ym2612"
    },
    {
      "channel": 1,
      "note": 57,
      "start": 23.3275,
      "duration": 0.0833,
      "velocity": 85,
      "chip": "ym2612"
    },
    {
      "channel": 1,
      "note": 57,
      "start": 23.4108,
      "duration": 0.0847,
      "velocity": 85,
      "chip": "ym2612"
    },
    {
      "channel": 0,
      "note": 74,
      "start": 23.4946,
      "duration": 1.3333,
      "velocity": 88,
      "chip": "ym2612"
    },
    {
      "channel": 1,
      "note": 57,
      "start": 23.4956,
      "duration": 0.1655,
      "velocity": 85,
      "chip": "ym2612"
    },
    {
      "channel": 2,
      "note": 68,
      "start": 23.4966,
      "duration": 0.1655,
      "velocity": 102,
      "chip": "ym2612"
    },
    {
      "channel": 5,
      "note": 44,
      "start": 23.5007,
      "duration": 0.3324,
      "velocity": 127,
      "chip": "ym2612"
    },
    {
      "channel": 1,
      "note": 57,
      "start": 23.6612,
      "duration": 0.0829,
      "velocity": 85,
      "chip": "ym2612"
    },
    {
      "channel": 2,
      "note": 67,
      "start": 23.6622,
      "duration": 0.1668,
      "velocity": 102,
      "chip": "ym2612"
    },
    {
      "channel": 4,
      "note": 74,
      "start": 23.6635,
      "duration": 1.3324,
      "velocity": 88,
      "chip": "ym2612"
    },
    {
      "channel": 1,
      "note": 57,
      "start": 23.7443,
      "duration": 0.0838,
      "velocity": 85,
      "chip": "ym2612"
    },
    {
      "channel": 1,
      "note": 57,
      "start": 23.8282,
      "duration": 0.166,
      "velocity": 85,
      "chip": "ym2612"
    },
    {
      "channel": 2,
      "note": 68,
      "start": 23.8291,
      "duration": 0.166,
      "velocity": 102,
      "chip": "ym2612"
    },
    {
      "channel": 5,
      "note": 67,
      "start": 23.8333,
      "duration": 0.3331,
      "velocity": 103,
      "chip": "ym2612"
    },
    {
      "channel": 3,
      "note": 68,
      "start": 23.9117,
      "duration": 0.1672,
      "velocity": 102,
      "chip": "ym2612"
    },
    {
      "channel": 1,
      "note": 57,
      "start": 23.9943,
      "duration": 0.0833,
      "velocity": 85,
      "chip": "ym2612"
    },
    {
      "channel": 2,
      "note": 69,
      "start": 23.9953,
      "duration": 0.1669,
      "velocity": 102,
      "chip": "ym2612"
    },
    {
      "channel": 1,
      "note": 57,
      "start": 24.0777,
      "duration": 0.0836,
      "velocity": 85,
      "chip": "ym2612"
    },
    {
      "channel": 3,
      "note": 67,
      "start": 24.0789,
      "duration": 0.1658,
      "velocity": 102,
      "chip": "ym2612"
    },
    {
      "channel": 1,
      "note": 57,
      "start": 24.1613,
      "duration": 0.1665,
      "velocity": 85,
      "chip": "ym2612"
    },
    {
      "channel": 2,
      "note": 70,
      "start": 24.1623,
      "duration": 0.1665,
      "velocity": 102,
      "chip": "ym2612"
    },
    {
      "channel": 5,
      "note": 44,
      "start": 24.1665,
      "duration": 0.1665,
      "velocity": 103,
      "chip": "ym2612"
    },
    {
      "channel": 3,
      "note": 68,
      "start": 24.2448,
      "duration": 0.1673,
      "velocity": 102,
      "chip": "ym2612"
    },
    {
      "channel": 1,
      "note": 57,
      "start": 24.328,
      "duration": 0.0829,
      "velocity": 85,
      "chip": "ym2612"
    },
    {
      "channel": 2,
      "note": 71,
      "start": 24.3289,
      "duration": 0.1666,
      "velocity": 102,
      "chip": "ym2612"
    },
    {
      "channel": 5,
      "note": 44,
      "start": 24.3331,
      "duration": 0.1666,
      "velocity": 127,
      "chip": "ym2612"
    },
    {
      "channel": 1,
      "note": 57,
      "start": 24.411,
      "duration": 0.0836,
      "velocity": 85,
      "chip": "ym2612"
    },
    {
      "channel": 3,
      "note": 69,
      "start": 24.4123,
      "duration": 0.1658,
      "velocity": 102,
      "chip": "ym2612"
    },
    {
      "channel": 1,
      "note": 57,
      "start": 24.4947,
      "duration": 0.1662,
      "velocity": 85,
      "chip": "ym2612"
    },
    {
      "channel": 2,
      "note": 72,
      "start": 24.4956,
      "duration": 0.1662,
      "velocity": 102,
      "chip": "ym2612"
    },
    {
      "channel": 5,
      "note": 54,
      "start": 24.4999,
      "duration": 0.3341,
      "velocity": 103,
      "chip": "ym2612"
    },
    {
      "channel": 3,
      "note": 70,
      "start": 24.5782,
      "duration": 0.1673,
      "velocity": 102,
      "chip": "ym2612"
    },
    {
      "channel": 1,
      "note": 57,
      "start": 24.661,
      "duration": 0.0832,
      "velocity": 85,
      "chip": "ym2612"
    },
    {
      "channel": 2,
      "note": 73,
      "start": 24.662,
      "duration": 0.1679,
      "velocity": 102,
      "chip": "ym2612"
    },
    {
      "channel": 1,
      "note": 57,
      "start": 24.7443,
      "duration": 0.0845,
      "velocity": 85,
      "chip": "ym2612"
    },
    {
      "channel": 3,
      "note": 71,
      "start": 24.7456,
      "duration": 0.166,
      "velocity": 102,
      "chip": "ym2612"
    },
    {
      "channel": 0,
      "note": 76,
      "start": 24.828,
      "duration": 0.6665,
      "velocity": 88,
      "chip": "ym2612"
    },
    {
      "channel": 1,
      "note": 58,
      "start": 24.829,
      "duration": 0.1654,
      "velocity": 85,
      "chip": "ym2612"
    },
    {
      "channel": 2,
      "note": 71,
      "start": 24.83,
      "duration": 0.6665,
      "velocity": 102,
      "chip": "ym2612"
    },
    {
      "channel": 5,
      "note": 44,
      "start": 24.8341,
      "duration": 0.3317,
      "velocity": 127,
      "chip": "ym2612"
    },
    {
      "channel": 3,
      "note": 72,
      "start": 24.9117,
      "duration": 0.1673,
      "velocity": 102,
      "chip": "ym2612"
    },
    {
      "channel": 1,
      "note": 58,
      "start": 24.9944,
      "duration": 0.0832,
      "velocity": 85,
      "chip": "ym2612"
    },
    {
      "channel": 4,
      "note": 76,
      "start": 24.996,
      "duration": 0.6669,
      "velocity": 88,
      "chip": "ym2612"
    },
    {
      "channel": 1,
      "note": 58,
      "start": 25.0777,
      "duration": 0.0835,
      "velocity": 85,
      "chip": "ym2612"
    },
    {
      "channel": 3,
      "note": 73,
      "start": 25.079,
      "duration": 0.1659,
      "velocity": 102,
      "chip": "ym2612"
    },
    {
      "channel": 1,
      "note": 58,
      "start": 25.1614,
      "duration": 0.166,
      "velocity": 85,
      "chip": "ym2612"
    },
    {
      "channel": 5,
      "note": 67,
      "start": 25.166,
      "duration": 0.3346,
      "velocity": 103,
      "chip": "ym2612"
    },
    {
      "channel": 3,
      "note": 71,
      "start": 25.245,
      "duration": 0.6666,
      "velocity": 102,
      "chip": "ym2612"
    },
    {
      "channel": 1,
      "note": 58,
      "start": 25.3275,
      "duration": 0.0832,
      "velocity": 85,
      "chip": "ym2612"
    },
    {
      "channel": 1,
      "note": 58,
      "start": 25.4109,
      "duration": 0.0846,
      "velocity": 85,
      "chip": "ym2612"
    },
    {
      "channel": 0,
      "note": 75,
      "start": 25.4946,
      "duration": 0.6666,
      "velocity": 88,
      "chip": "ym2612"
    },
    {
      "channel": 1,
      "note": 58,
      "start": 25.4956,
      "duration": 0.1657,
      "velocity": 85,
      "chip": "ym2612"
    },
    {
      "channel": 2,
      "note": 70,
      "start": 25.4966,
      "duration": 0.6666,
      "velocity": 102,
      "chip": "ym2612"
    },
    {
      "channel": 5,
      "note": 44,
      "start": 25.5007,
      "duration": 0.1658,
      "velocity": 103,
      "chip": "ym2612"
    },
    {
      "channel": 1,
      "note": 58,
      "start": 25.6614,
      "duration": 0.0828,
      "velocity": 85,
      "chip": "ym2612"
    },
    {
      "channel": 4,
      "note": 75,
      "start": 25.663,
      "duration": 0.6671,
      "velocity": 88,
      "chip": "ym2612"
    },
    {
      "channel": 5,
      "note": 44,
      "start": 25.6666,
      "duration": 0.1658,
      "velocity": 127,
      "chip": "ym2612"
    },
    {
      "channel": 1,
      "note": 58,
      "start": 25.7443,
      "duration": 0.0836,
      "velocity": 85,
      "chip": "ym2612"
    },
    {
      "channel": 1,
      "note": 58,
      "start": 25.828,
      "duration": 0.1661,
      "velocity": 85,
      "chip": "ym2612"
    },
    {
      "channel": 5,
      "note": 54,
      "start": 25.8325,
      "duration": 0.3349,
      "velocity": 103,
      "chip": "ym2612"
    },
    {
      "channel": 3,
      "note": 70,
      "start": 25.9117,
      "duration": 0.6666,
      "velocity": 102,
      "chip": "ym2612"
    },
    {
      "channel": 1,
      "note": 58,
      "start": 25.9942,
      "duration": 0.0832,
      "velocity": 85,
      "chip": "ym2612"
    },
    {
      "channel": 1,
      "note": 58,
      "start": 26.0775,
      "duration": 0.0847,
      "velocity": 85,
      "chip": "ym2612"
    },
    {
      "channel": 0,
      "note": 79,
      "start": 26.1614,
      "duration": 1.3333,
      "velocity": 88,
      "chip": "ym2612"
    },
    {
      "channel": 1,
      "note": 58,
      "start": 26.1623,
      "duration": 0.1655,
      "velocity": 85,
      "chip": "ym2612"
    },
    {
      "channel": 2,
      "note": 74,
      "start": 26.1633,
      "duration": 0.1654,
      "velocity": 102,
      "chip": "ym2612"
    },
    {
      "channel": 5,
      "note": 44,
      "start": 26.1675,
      "duration": 0.3324,
      "velocity": 127,
      "chip": "ym2612"
    },
    {
      "channel": 1,
      "note": 58,
      "start": 26.3279,
      "duration": 0.0829,
      "velocity": 85,
      "chip": "ym2612"
    },
    {
      "channel": 2,
      "note": 71,
      "start": 26.3289,
      "duration": 0.1668,
      "velocity": 102,
      "chip": "ym2612"
    },
    {
      "channel": 4,
      "note": 79,
      "start": 26.3301,
      "duration": 1.3332,
      "velocity": 88,
      "chip": "ym2612"
    },
    {
      "channel": 1,
      "note": 58,
      "start": 26.4109,
      "duration": 0.0838,
      "velocity": 85,
      "chip": "ym2612"
    },
    {
      "channel": 1,
      "note": 58,
      "start": 26.4948,
      "duration": 0.1661,
      "velocity": 85,
      "chip": "ym2612"
    },
    {
      "channel": 2,
      "note": 70,
      "start": 26.4958,
      "duration": 0.1661,
      "velocity": 102,
      "chip": "ym2612"
    },
    {
      "channel": 5,
      "note": 67,
      "start": 26.5,
      "duration": 0.3331,
      "velocity": 103,
      "chip": "ym2612"
    },
    {
      "channel": 3,
      "note": 74,
      "start": 26.5783,
      "duration": 0.1671,
      "velocity": 102,
      "chip": "ym2612"
    },
    {
      "channel": 1,
      "note": 58,
      "start": 26.661,
      "duration": 0.0832,
      "velocity": 85,
      "chip": "ym2612"
    },
    {
      "channel": 2,
      "note": 68,
      "start": 26.662,
      "duration": 0.1669,
      "velocity": 102,
      "chip": "ym2612"
    },
    {
      "channel": 1,
      "note": 58,
      "start": 26.7443,
      "duration": 0.0836,
      "velocity": 85,
      "chip": "ym2612"
    },
    {
      "channel": 3,
      "note": 71,
      "start": 26.7456,
      "duration": 0.1658,
      "velocity": 102,
      "chip": "ym2612"
    },
    {
      "channel": 1,
      "note": 58,
      "start": 26.828,
      "duration": 0.1665,
      "velocity": 85,
      "chip": "ym2612"
    },
    {
      "channel": 2,
      "note": 67,
      "start": 26.829,
      "duration": 0.1665,
      "velocity": 102,
      "chip": "ym2612"
    },
    {
      "channel": 5,
      "note": 44,
      "start": 26.8332,
      "duration": 0.1665,
      "velocity": 103,
      "chip": "ym2612"
    },
    {
      "channel": 3,
      "note": 70,
      "start": 26.9116,
      "duration": 0.1673,
      "velocity": 102,
      "chip": "ym2612"
    },
    {
      "channel": 1,
      "note": 58,
      "start": 26.9946,
      "duration": 0.0829,
      "velocity": 85,
      "chip": "ym2612"
    },
    {
      "channel": 2,
      "note": 68,
      "start": 26.9956,
      "duration": 0.1667,
      "velocity": 102,
      "chip": "ym2612"
    },
    {
      "channel": 5,
      "note": 44,
      "start": 26.9998,
      "duration": 0.1667,
      "velocity": 127,
      "chip": "ym2612"
    },
    {
      "channel": 1,
      "note": 58,
      "start": 27.0777,
      "duration": 0.0837,
      "velocity": 85,
      "chip": "ym2612"
    },
    {
      "channel": 3,
      "note": 68,
      "start": 27.0789,
      "duration": 0.1661,
      "velocity": 102,
      "chip": "ym2612"
    },
    {
      "channel": 1,
      "note": 58,
      "start": 27.1614,
      "duration": 0.1665,
      "velocity": 85,
      "chip": "ym2612"
    },
    {
      "channel": 2,
      "note": 70,
      "start": 27.1624,
      "duration": 0.1665,
      "velocity": 102,
      "chip": "ym2612"
    },
    {
      "channel": 5,
      "note": 77,
      "start": 27.1666,
      "duration": 0.0824,
      "velocity": 127,
      "chip": "ym2612"
    },
    {
      "channel": 3,
      "note": 67,
      "start": 27.2452,
      "duration": 0.1672,
      "velocity": 102,
      "chip": "ym2612"
    },
    {
      "channel": 5,
      "note": 77,
      "start": 27.2491,
      "duration": 0.084,
      "velocity": 127,
      "chip": "ym2612"
    },
    {
      "channel": 1,
      "note": 58,
      "start": 27.328,
      "duration": 0.0832,
      "velocity": 85,
      "chip": "ym2612"
    },
    {
      "channel": 2,
      "note": 71,
      "start": 27.329,
      "duration": 0.1676,
      "velocity": 102,
      "chip": "ym2612"
    },
    {
      "channel": 5,
      "note": 73,
      "start": 27.3332,
      "duration": 0.0831,
      "velocity": 127,
      "chip": "ym2612"
    },
    {
      "channel": 1,
      "note": 58,
      "start": 27.4113,
      "duration": 0.0843,
      "velocity": 85,
      "chip": "ym2612"
    },
    {
      "channel": 3,
      "note": 68,
      "start": 27.4126,
      "duration": 0.1656,
      "velocity": 102,
      "chip": "ym2612"
    },
    {
      "channel": 5,
      "note": 73,
      "start": 27.4165,
      "duration": 0.0843,
      "velocity": 103,
      "chip": "ym2612"
    },
    {
      "channel": 0,
      "note": 80,
      "start": 27.4948,
      "duration": 0.166,
      "velocity": 88,
      "chip": "ym2612"
    },
    {
      "channel": 1,
      "note": 59,
      "start": 27.4957,
      "duration": 0.166,
      "velocity": 85,
      "chip": "ym2612"
    },
    {
      "channel": 2,
      "note": 68,
      "start": 27.4967,
      "duration": 0.6665,
      "velocity": 102,
      "chip": "ym2612"
    },
    {
      "channel": 5,
      "note": 44,
      "start": 27.5009,
      "duration": 0.3332,
      "velocity": 127,
      "chip": "ym2612"
    },
    {
      "channel": 3,
      "note": 70,
      "start": 27.5783,
      "duration": 0.1673,
      "velocity": 102,
      "chip": "ym2612"
    },
    {
      "channel": 0,
      "note": 80,
      "start": 27.6609,
      "duration": 0.167,
      "velocity": 88,
      "chip": "ym2612"
    },
    {
      "channel": 1,
      "note": 59,
      "start": 27.6618,
      "duration": 0.0825,
      "velocity": 85,
      "chip": "ym2612"
    },
    {
      "channel": 4,
      "note": 80,
      "start": 27.6635,
      "duration": 0.167,
      "velocity": 88,
      "chip": "ym2612"
    },
    {
      "channel": 1,
      "note": 59,
      "start": 27.7444,
      "duration": 0.0844,
      "velocity": 85,
      "chip": "ym2612"
    },
    {
      "channel": 3,
      "note": 71,
      "start": 27.7456,
      "duration": 0.1659,
      "velocity": 102,
      "chip": "ym2612"
    },
    {
      "channel": 0,
      "note": 71,
      "start": 27.828,
      "duration": 0.3333,
      "velocity": 88,
      "chip": "ym2612"
    },
    {
      "channel": 1,
      "note": 59,
      "start": 27.8289,
      "duration": 0.1654,
      "velocity": 85,
      "chip": "ym2612"
    },
    {
      "channel": 4,
      "note": 80,
      "start": 27.8305,
      "duration": 0.1653,
      "velocity": 88,
      "chip": "ym2612"
    },
    {
      "channel": 5,
      "note": 67,
      "start": 27.8342,
      "duration": 0.3332,
      "velocity": 103,
      "chip": "ym2612"
    },
    {
      "channel": 3,
      "note": 68,
      "start": 27.9117,
      "duration": 0.6665,
      "velocity": 102,
      "chip": "ym2612"
    },
    {
      "channel": 1,
      "note": 59,
      "start": 27.9944,
      "duration": 0.083,
      "velocity": 85,
      "chip": "ym2612"
    },
    {
      "channel": 4,
      "note": 71,
      "start": 27.9959,
      "duration": 0.3352,
      "velocity": 88,
      "chip": "ym2612"
    },
    {
      "channel": 1,
      "note": 59,
      "start": 28.0776,
      "duration": 0.0846,
      "velocity": 85,
      "chip": "ym2612"
    },
    {
      "channel": 0,
      "note": 80,
      "start": 28.1613,
      "duration": 0.1667,
      "velocity": 88,
      "chip": "ym2612"
    },
    {
      "channel": 1,
      "note": 59,
      "start": 28.1623,
      "duration": 0.1667,
      "velocity": 85,
      "chip": "ym2612"
    },
    {
      "channel": 2,
      "note": 68,
      "start": 28.1632,
      "duration": 0.1667,
      "velocity": 102,
      "chip": "ym2612"
    },
    {
      "channel": 5,
      "note": 44,
      "start": 28.1675,
      "duration": 0.1673,
      "velocity": 103,
      "chip": "ym2612"
    },
    {
      "channel": 0,
      "note": 80,
      "start": 28.328,
      "duration": 0.3332,
      "velocity": 88,
      "chip": "ym2612"
    },
    {
      "channel": 1,
      "note": 59,
      "start": 28.329,
      "duration": 0.0819,
      "velocity": 85,
      "chip": "ym2612"
    },
    {
      "channel": 2,
      "note": 68,
      "start": 28.33,
      "duration": 0.1659,
      "velocity": 102,
      "chip": "ym2612"
    },
    {
      "channel": 4,
      "note": 80,
      "start": 28.3313,
      "duration": 0.1657,
      "velocity": 88,
      "chip": "ym2612"
    },
    {
      "channel": 5,
      "note": 44,
      "start": 28.3349,
      "duration": 0.1657,
      "velocity": 127,
      "chip": "ym2612"
    },
    {
      "channel": 1,
      "note": 59,
      "start": 28.411,
      "duration": 0.0839,
      "velocity": 85,
      "chip": "ym2612"
    },
    {
      "channel": 1,
      "note": 59,
      "start": 28.495,
      "duration": 0.1672,
      "velocity": 85,
      "chip": "ym2612"
    },
    {
      "channel": 2,
      "note": 70,
      "start": 28.4959,
      "duration": 0.1672,
      "velocity": 102,
      "chip": "ym2612"
    },
    {
      "channel": 4,
      "note": 80,
      "start": 28.4971,
      "duration": 0.3341,
      "velocity": 88,
      "chip": "ym2612"
    },
    {
      "channel": 5,
      "note": 73,
      "start": 28.5007,
      "duration": 0.1666,
      "velocity": 127,
      "chip": "ym2612"
    },
    {
      "channel": 3,
      "note": 68,
      "start": 28.5783,
      "duration": 0.1673,
      "velocity": 102,
      "chip": "ym2612"
    },
    {
      "channel": 0,
      "note": 80,
      "start": 28.6613,
      "duration": 0.1667,
      "velocity": 88,
      "chip": "ym2612"
    },
    {
      "channel": 1,
      "note": 59,
      "start": 28.6623,
      "duration": 0.0821,
      "velocity": 85,
      "chip": "ym2612"
    },
    {
      "channel": 2,
      "note": 71,
      "start": 28.6632,
      "duration": 0.1667,
      "velocity": 102,
      "chip": "ym2612"
    },
    {
      "channel": 5,
      "note": 54,
      "start": 28.6675,
      "duration": 0.1674,
      "velocity": 103,
      "chip": "ym2612"
    },
    {
      "channel": 1,
      "note": 59,
      "start": 28.7444,
      "duration": 0.0846,
      "velocity": 85,
      "chip": "ym2612"
    },
    {
      "channel": 3,
      "note": 68,
      "start": 28.7456,
      "duration": 0.1659,
      "velocity": 102,
      "chip": "ym2612"
    },
    {
      "channel": 0,
      "note": 81,
      "start": 28.8282,
      "duration": 0.166,
      "velocity": 88,
      "chip": "ym2612"
    },
    {
      "channel": 1,
      "note": 60,
      "start": 28.8291,
      "duration": 0.166,
      "velocity": 85,
      "chip": "ym2612"
    },
    {
      "channel": 2,
      "note": 69,
      "start": 28.8301,
      "duration": 0.6663,
      "velocity": 102,
      "chip": "ym2612"
    },
    {
      "channel": 4,
      "note": 80,
      "start": 28.8313,
      "duration": 0.1654,
      "velocity": 88,
      "chip": "ym2612"
    },
    {
      "channel": 5,
      "note": 44,
      "start": 28.835,
      "duration": 0.3324,
      "velocity": 127,
      "chip": "ym2612"
    },
    {
      "channel": 3,
      "note": 70,
      "start": 28.9116,
      "duration": 0.1673,
      "velocity": 102,
      "chip": "ym2612"
    },
    {
      "channel": 0,
      "note": 81,
      "start": 28.9943,
      "duration": 0.167,
      "velocity": 88,
      "chip": "ym2612"
    },
    {
      "channel": 1,
      "note": 60,
      "start": 28.9952,
      "duration": 0.0824,
      "velocity": 85,
      "chip": "ym2612"
    },
    {
      "channel": 4,
      "note": 81,
      "start": 28.9968,
      "duration": 0.167,
      "velocity": 88,
      "chip": "ym2612"
    },
    {
      "channel": 1,
      "note": 60,
      "start": 29.0778,
      "duration": 0.0844,
      "velocity": 85,
      "chip": "ym2612"
    },
    {
      "channel": 3,
      "note": 71,
      "start": 29.079,
      "duration": 0.1659,
      "velocity": 102,
      "chip": "ym2612"
    },
    {
      "channel": 0,
      "note": 72,
      "start": 29.1614,
      "duration": 0.3332,
      "velocity": 88,
      "chip": "ym2612"
    },
    {
      "channel": 1,
      "note": 60,
      "start": 29.1623,
      "duration": 0.1654,
      "velocity": 85,
      "chip": "ym2612"
    },
    {
      "channel": 4,
      "note": 81,
      "start": 29.1639,
      "duration": 0.1653,
      "velocity": 88,
      "chip": "ym2612"
    },
    {
      "channel": 5,
      "note": 67,
      "start": 29.1675,
      "duration": 0.3332,
      "velocity": 103,
      "chip": "ym2612"
    },
    {
      "channel": 3,
      "note": 69,
      "start": 29.245,
      "duration": 0.6666,
      "velocity": 102,
      "chip": "ym2612"
    },
    {
      "channel": 1,
      "note": 60,
      "start": 29.3278,
      "duration": 0.0831,
      "velocity": 85,
      "chip": "ym2612"
    },
    {
      "channel": 4,
      "note": 72,
      "start": 29.3293,
      "duration": 0.3352,
      "velocity": 88,
      "chip": "ym2612"
    },
    {
      "channel": 1,
      "note": 60,
      "start": 29.411,
      "duration": 0.0845,
      "velocity": 85,
      "chip": "ym2612"
    },
    {
      "channel": 0,
      "note": 81,
      "start": 29.4946,
      "duration": 0.1667,
      "velocity": 88,
      "chip": "ym2612"
    },
    {
      "channel": 1,
      "note": 60,
      "start": 29.4956,
      "duration": 0.1667,
      "velocity": 85,
      "chip": "ym2612"
    },
    {
      "channel": 2,
      "note": 69,
      "start": 29.4966,
      "duration": 0.1667,
      "velocity": 102,
      "chip": "ym2612"
    },
    {
      "channel": 5,
      "note": 44,
      "start": 29.5008,
      "duration": 0.1673,
      "velocity": 103,
      "chip": "ym2612"
    },
    {
      "channel": 0,
      "note": 81,
      "start": 29.6614,
      "duration": 0.3331,
      "velocity": 88,
      "chip": "ym2612"
    },
    {
      "channel": 1,
      "note": 60,
      "start": 29.6623,
      "duration": 0.0819,
      "velocity": 85,
      "chip": "ym2612"
    },
    {
      "channel": 2,
      "note": 69,
      "start": 29.6633,
      "duration": 0.1658,
      "velocity": 102,
      "chip": "ym2612"
    },
    {
      "channel": 4,
      "note": 81,
      "start": 29.6646,
      "duration": 0.1658,
      "velocity": 88,
      "chip": "ym2612"
    },
    {
      "channel": 5,
      "note": 44,
      "start": 29.6682,
      "duration": 0.1657,
      "velocity": 127,
      "chip": "ym2612"
    },
    {
      "channel": 1,
      "note": 60,
      "start": 29.7443,
      "duration": 0.0839,
      "velocity": 85,
      "chip": "ym2612"
    },
    {
      "channel": 1,
      "note": 60,
      "start": 29.8283,
      "duration": 0.1671,
      "velocity": 85,
      "chip": "ym2612"
    },
    {
      "channel": 2,
      "note": 70,
      "start": 29.8293,
      "duration": 0.1671,
      "velocity": 102,
      "chip": "ym2612"
    },
    {
      "channel": 4,
      "note": 81,
      "start": 29.8305,
      "duration": 0.3337,
      "velocity": 88,
      "chip": "ym2612"
    },
    {
      "channel": 5,
      "note": 73,
      "start": 29.8341,
      "duration": 0.1666,
      "velocity": 127,
      "chip": "ym2612"
    },
    {
      "channel": 3,
      "note": 69,
      "start": 29.9116,
      "duration": 0.1673,
      "velocity": 102,
      "chip": "ym2612"
    },
    {
      "channel": 0,
      "note": 81,
      "start": 29.9946,
      "duration": 0.1668,
      "velocity": 88,
      "chip": "ym2612"
    },
    {
      "channel": 1,
      "note": 60,
      "start": 29.9955,
      "duration": 0.0821,
      "velocity": 85,
      "chip": "ym2612"
    },
    {
      "channel": 2,
      "note": 72,
      "start": 29.9965,
      "duration": 0.1665,
      "velocity": 102,
      "chip": "ym2612"
    },
    {
      "channel": 5,
      "note": 54,
      "start": 30.0007,
      "duration": 0.1671,
      "velocity": 127,
      "chip": "ym2612"
    },
    {
      "channel": 1,
      "note": 60,
      "start": 30.0777,
      "duration": 0.0846,
      "velocity": 85,
      "chip": "ym2612"
    },
    {
      "channel": 3,
      "note": 69,
      "start": 30.079,
      "duration": 0.166,
      "velocity": 102,
      "chip": "ym2612"
    },
    {
      "channel": 0,
      "note": 82,
      "start": 30.1615,
      "duration": 0.1662,
      "velocity": 88,
      "chip": "ym2612"
    },
    {
      "channel": 1,
      "note": 61,
      "start": 30.1624,
      "duration": 0.1662,
      "velocity": 85,
      "chip": "ym2612"
    },
    {
      "channel": 4,
      "note": 81,
      "start": 30.1642,
      "duration": 0.1658,
      "velocity": 88,
      "chip": "ym2612"
    },
    {
      "channel": 5,
      "note": 54,
      "start": 30.1679,
      "duration": 0.081,
      "velocity": 127,
      "chip": "ym2612"
    },
    {
      "channel": 3,
      "note": 70,
      "start": 30.245,
      "duration": 0.167,
      "velocity": 102,
      "chip": "ym2612"
    },
    {
      "channel": 5,
      "note": 54,
      "start": 30.249,
      "duration": 0.0847,
      "velocity": 103,
      "chip": "ym2612"
    },
    {
      "channel": 0,
      "note": 81,
      "start": 30.3278,
      "duration": 0.1666,
      "velocity": 88,
      "chip": "ym2612"
    },
    {
      "channel": 1,
      "note": 61,
      "start": 30.3288,
      "duration": 0.0821,
      "velocity": 85,
      "chip": "ym2612"
    },
    {
      "channel": 4,
      "note": 82,
      "start": 30.3302,
      "duration": 0.1666,
      "velocity": 88,
      "chip": "ym2612"
    },
    {
      "channel": 5,
      "note": 44,
      "start": 30.3338,
      "duration": 0.1667,
      "velocity": 127,
      "chip": "ym2612"
    },
    {
      "channel": 1,
      "note": 61,
      "start": 30.411,
      "duration": 0.0844,
      "velocity": 85,
      "chip": "ym2612"
    },
    {
      "channel": 3,
      "note": 72,
      "start": 30.4121,
      "duration": 0.1658,
      "velocity": 102,
      "chip": "ym2612"
    },
    {
      "channel": 0,
      "note": 83,
      "start": 30.4946,
      "duration": 0.1665,
      "velocity": 88,
      "chip": "ym2612"
    },
    {
      "channel": 1,
      "note": 61,
      "start": 30.4955,
      "duration": 0.1665,
      "velocity": 85,
      "chip": "ym2612"
    },
    {
      "channel": 4,
      "note": 81,
      "start": 30.4969,
      "duration": 0.1662,
      "velocity": 88,
      "chip": "ym2612"
    },
    {
      "channel": 5,
      "note": 54,
      "start": 30.5005,
      "duration": 0.0812,
      "velocity": 127,
      "chip": "ym2612"
    },
    {
      "channel": 5,
      "note": 54,
      "start": 30.5819,
      "duration": 0.085,
      "velocity": 103,
      "chip": "ym2612"
    },
    {
      "channel": 0,
      "note": 82,
      "start": 30.6611,
      "duration": 0.1669,
      "velocity": 88,
      "chip": "ym2612"
    },
    {
      "channel": 1,
      "note": 61,
      "start": 30.6621,
      "duration": 0.082,
      "velocity": 85,
      "chip": "ym2612"
    },
    {
      "channel": 4,
      "note": 83,
      "start": 30.6633,
      "duration": 0.1677,
      "velocity": 88,
      "chip": "ym2612"
    },
    {
      "channel": 5,
      "note": 44,
      "start": 30.6669,
      "duration": 0.1678,
      "velocity": 127,
      "chip": "ym2612"
    },
    {
      "channel": 1,
      "note": 61,
      "start": 30.7442,
      "duration": 0.0848,
      "velocity": 85,
      "chip": "ym2612"
    },
    {
      "channel": 0,
      "note": 85,
      "start": 30.8282,
      "duration": 0.1664,
      "velocity": 88,
      "chip": "ym2612"
    },
    {
      "channel": 1,
      "note": 61,
      "start": 30.8291,
      "duration": 0.1664,
      "velocity": 85,
      "chip": "ym2612"
    },
    {
      "channel": 2,
      "note": 62,
      "start": 30.8301,
      "duration": 0.0309,
      "velocity": 102,
      "chip": "ym2612"
    },
    {
      "channel": 4,
      "note": 82,
      "start": 30.8311,
      "duration": 0.1665,
      "velocity": 88,
      "chip": "ym2612"
    },
    {
      "channel": 5,
      "note": 73,
      "start": 30.8348,
      "duration": 0.1664,
      "velocity": 127,
      "chip": "ym2612"
    },
    {
      "channel": 2,
      "note": 63,
      "start": 30.8611,
      "duration": 0.05,
      "velocity": 102,
      "chip": "ym2612"
    },
    {
      "channel": 2,
      "note": 64,
      "start": 30.9112,
      "duration": 0.0331,
      "velocity": 102,
      "chip": "ym2612"
    },
    {
      "channel": 2,
      "note": 65,
      "start": 30.9444,
      "duration": 0.052,
      "velocity": 102,
      "chip": "ym2612"
    },
    {
      "channel": 0,
      "note": 84,
      "start": 30.9947,
      "duration": 0.1666,
      "velocity": 88,
      "chip": "ym2612"
    },
    {
      "channel": 1,
      "note": 61,
      "start": 30.9956,
      "duration": 0.082,
      "velocity": 85,
      "chip": "ym2612"
    },
    {
      "channel": 2,
      "note": 66,
      "start": 30.9966,
      "duration": 0.031,
      "velocity": 102,
      "chip": "ym2612"
    },
    {
      "channel": 4,
      "note": 85,
      "start": 30.9977,
      "duration": 0.1666,
      "velocity": 88,
      "chip": "ym2612"
    },
    {
      "channel": 5,
      "note": 73,
      "start": 31.0013,
      "duration": 0.1665,
      "velocity": 103,
      "chip": "ym2612"
    },
    {
      "channel": 2,
      "note": 67,
      "start": 31.0278,
      "duration": 0.0508,
      "velocity": 102,
      "chip": "ym2612"
    },
    {
      "channel": 1,
      "note": 61,
      "start": 31.0777,
      "duration": 0.0845,
      "velocity": 85,
      "chip": "ym2612"
    },
    {
      "channel": 2,
      "note": 68,
      "start": 31.0787,
      "duration": 0.0324,
      "velocity": 102,
      "chip": "ym2612"
    },
    {
      "channel": 2,
      "note": 69,
      "start": 31.1111,
      "duration": 0.052,
      "velocity": 102,
      "chip": "ym2612"
    },
    {
      "channel": 0,
      "note": 87,
      "start": 31.1614,
      "duration": 0.1667,
      "velocity": 88,
      "chip": "ym2612"
    },
    {
      "channel": 1,
      "note": 61,
      "start": 31.1623,
      "duration": 0.1667,
      "velocity": 85,
      "chip": "ym2612"
    },
    {
      "channel": 2,
      "note": 70,
      "start": 31.1633,
      "duration": 0.031,
      "velocity": 102,
      "chip": "ym2612"
    },
    {
      "channel": 4,
      "note": 84,
      "start": 31.1644,
      "duration": 0.1676,
      "velocity": 88,
      "chip": "ym2612"
    },
    {
      "channel": 5,
      "note": 44,
      "start": 31.168,
      "duration": 0.0821,
      "velocity": 127,
      "chip": "ym2612"
    },
    {
      "channel": 2,
      "note": 71,
      "start": 31.1944,
      "duration": 0.0506,
      "velocity": 102,
      "chip": "ym2612"
    },
    {
      "channel": 2,
      "note": 72,
      "start": 31.2452,
      "duration": 0.0327,
      "velocity": 102,
      "chip": "ym2612"
    },
    {
      "channel": 3,
      "note": 62,
      "start": 31.2462,
      "duration": 0.0327,
      "velocity": 102,
      "chip": "ym2612"
    },
    {
      "channel": 5,
      "note": 67,
      "start": 31.2502,
      "duration": 0.0854,
      "velocity": 127,
      "chip": "ym2612"
    },
    {
      "channel": 2,
      "note": 73,
      "start": 31.278,
      "duration": 0.052,
      "velocity": 102,
      "chip": "ym2612"
    },
    {
      "channel": 3,
      "note": 63,
      "start": 31.279,
      "duration": 0.052,
      "velocity": 102,
      "chip": "ym2612"
    },
    {
      "channel": 0,
      "note": 86,
      "start": 31.3282,
      "duration": 0.1666,
      "velocity": 88,
      "chip": "ym2612"
    },
    {
      "channel": 1,
      "note": 61,
      "start": 31.3291,
      "duration": 0.0824,
      "velocity": 85,
      "chip": "ym2612"
    },
    {
      "channel": 2,
      "note": 74,
      "start": 31.3301,
      "duration": 0.0311,
      "velocity": 102,
      "chip": "ym2612"
    },
    {
      "channel": 3,
      "note": 64,
      "start": 31.3311,
      "duration": 0.031,
      "velocity": 102,
      "chip": "ym2612"
    },
    {
      "channel": 4,
      "note": 87,
      "start": 31.332,
      "duration": 0.1662,
      "velocity": 88,
      "chip": "ym2612"
    },
    {
      "channel": 5,
      "note": 67,
      "start": 31.3357,
      "duration": 0.0817,
      "velocity": 127,
      "chip": "ym2612"
    },
    {
      "channel": 2,
      "note": 75,
      "start": 31.3612,
      "duration": 0.0512,
      "velocity": 102,
      "chip": "ym2612"
    },
    {
      "channel": 3,
      "note": 65,
      "start": 31.3623,
      "duration": 0.0511,
      "velocity": 102,
      "chip": "ym2612"
    },
    {
      "channel": 1,
      "note": 61,
      "start": 31.4116,
      "duration": 0.0841,
      "velocity": 85,
      "chip": "ym2612"
    },
    {
      "channel": 2,
      "note": 76,
      "start": 31.4125,
      "duration": 0.0321,
      "velocity": 102,
      "chip": "ym2612"
    },
    {
      "channel": 3,
      "note": 66,
      "start": 31.4135,
      "duration": 0.0321,
      "velocity": 102,
      "chip": "ym2612"
    },
    {
      "channel": 5,
      "note": 67,
      "start": 31.4175,
      "duration": 0.0844,
      "velocity": 103,
      "chip": "ym2612"
    },
    {
      "channel": 2,
      "note": 77,
      "start": 31.4446,
      "duration": 0.0517,
      "velocity": 102,
      "chip": "ym2612"
    },
    {
      "channel": 3,
      "note": 67,
      "start": 31.4456,
      "duration": 0.0517,
      "velocity": 102,
      "chip": "ym2612"
    },
    {
      "channel": 0,
      "note": 89,
      "start": 31.4949,
      "duration": 0.1662,
      "velocity": 88,
      "chip": "ym2612"
    },
    {
      "channel": 1,
      "note": 62,
      "start": 31.4959,
      "duration": 0.1662,
      "velocity": 85,
      "chip": "ym2612"
    },
    {
      "channel": 3,
      "note": 68,
      "start": 31.4974,
      "duration": 0.0304,
      "velocity": 102,
      "chip": "ym2612"
    },
    {
      "channel": 4,
      "note": 86,
      "start": 31.4983,
      "duration": 0.1658,
      "velocity": 88,
      "chip": "ym2612"
    },
    {
      "channel": 5,
      "note": 44,
      "start": 31.502,
      "duration": 0.1658,
      "velocity": 127,
      "chip": "ym2612"
    },
    {
      "channel": 3,
      "note": 69,
      "start": 31.5279,
      "duration": 0.0499,
      "velocity": 102,
      "chip": "ym2612"
    },
    {
      "channel": 3,
      "note": 70,
      "start": 31.578,
      "duration": 0.0331,
      "velocity": 102,
      "chip": "ym2612"
    },
    {
      "channel": 3,
      "note": 71,
      "start": 31.6112,
      "duration": 0.0519,
      "velocity": 102,
      "chip": "ym2612"
    },
    {
      "channel": 0,
      "note": 88,
      "start": 31.6612,
      "duration": 0.1667,
      "velocity": 88,
      "chip": "ym2612"
    },
    {
      "channel": 1,
      "note": 62,
      "start": 31.6622,
      "duration": 0.0819,
      "velocity": 85,
      "chip": "ym2612"
    },
    {
      "channel": 3,
      "note": 72,
      "start": 31.6633,
      "duration": 0.0312,
      "velocity": 102,
      "chip": "ym2612"
    },
    {
      "channel": 4,
      "note": 89,
      "start": 31.6642,
      "duration": 0.1667,
      "velocity": 88,
      "chip": "ym2612"
    },
    {
      "channel": 5,
      "note": 67,
      "start": 31.6678,
      "duration": 0.1667,
      "velocity": 127,
      "chip": "ym2612"
    },
    {
      "channel": 3,
      "note": 73,
      "start": 31.6946,
      "duration": 0.0506,
      "velocity": 102,
      "chip": "ym2612"
    },
    {
      "channel": 1,
      "note": 62,
      "start": 31.7443,
      "duration": 0.0846,
      "velocity": 85,
      "chip": "ym2612"
    },
    {
      "channel": 3,
      "note": 74,
      "start": 31.7453,
      "duration": 0.0326,
      "velocity": 102,
      "chip": "ym2612"
    },
    {
      "channel": 3,
      "note": 75,
      "start": 31.7779,
      "duration": 0.052,
      "velocity": 102,
      "chip": "ym2612"
    },
    {
      "channel": 0,
      "note": 87,
      "start": 31.828,
      "duration": 0.1662,
      "velocity": 88,
      "chip": "ym2612"
    },
    {
      "channel": 1,
      "note": 62,
      "start": 31.829,
      "duration": 0.1662,
      "velocity": 85,
      "chip": "ym2612"
    },
    {
      "channel": 3,
      "note": 76,
      "start": 31.8301,
      "duration": 0.031,
      "velocity": 102,
      "chip": "ym2612"
    },
    {
      "channel": 4,
      "note": 88,
      "start": 31.831,
      "duration": 0.1654,
      "velocity": 88,
      "chip": "ym2612"
    },
    {
      "channel": 5,
      "note": 67,
      "start": 31.8346,
      "duration": 0.1654,
      "velocity": 127,
      "chip": "ym2612"
    },
    {
      "channel": 3,
      "note": 77,
      "start": 31.8612,
      "duration": 0.0496,
      "velocity": 102,
      "chip": "ym2612"
    },
    {
      "channel": 0,
      "note": 83,
      "start": 31.9944,
      "duration": 0.1669,
      "velocity": 88,
      "chip": "ym2612"
    },
    {
      "channel": 1,
      "note": 62,
      "start": 31.9953,
      "duration": 0.082,
      "velocity": 85,
      "chip": "ym2612"
    },
    {
      "channel": 4,
      "note": 87,
      "start": 31.9965,
      "duration": 0.1678,
      "velocity": 88,
      "chip": "ym2612"
    },
    {
      "channel": 5,
      "note": 73,
      "start": 32.0002,
      "duration": 0.1677,
      "velocity": 127,
      "chip": "ym2612"
    },
    {
      "channel": 1,
      "note": 62,
      "start": 32.0774,
      "duration": 0.0848,
      "velocity": 85,
      "chip": "ym2612"
    },
    {
      "channel": 0,
      "note": 80,
      "start": 32.1614,
      "duration": 0.1666,
      "velocity": 88,
      "chip": "ym2612"
    },
    {
      "channel": 1,
      "note": 62,
      "start": 32.1623,
      "duration": 0.1666,
      "velocity": 85,
      "chip": "ym2612"
    },
    {
      "channel": 2,
      "note": 76,
      "start": 32.1633,
      "duration": 0.031,
      "velocity": 102,
      "chip": "ym2612"
    },
    {
      "channel": 4,
      "note": 83,
      "start": 32.1644,
      "duration": 0.1665,
      "velocity": 88,
      "chip": "ym2612"
    },
    {
      "channel": 5,
      "note": 73,
      "start": 32.168,
      "duration": 0.1665,
      "velocity": 127,
      "chip": "ym2612"
    },
    {
      "channel": 2,
      "note": 75,
      "start": 32.1944,
      "duration": 0.0499,
      "velocity": 102,
      "chip": "ym2612"
    },
    {
      "channel": 2,
      "note": 74,
      "start": 32.2445,
      "duration": 0.0332,
      "velocity": 102,
      "chip": "ym2612"
    },
    {
      "channel": 2,
      "note": 73,
      "start": 32.2778,
      "duration": 0.052,
      "velocity": 102,
      "chip": "ym2612"
    },
    {
      "channel": 0,
      "note": 81,
      "start": 32.328,
      "duration": 0.1666,
      "velocity": 88,
      "chip": "ym2612"
    },
    {
      "channel": 1,
      "note": 62,
      "start": 32.3289,
      "duration": 0.0819,
      "velocity": 85,
      "chip": "ym2612"
    },
    {
      "channel": 2,
      "note": 72,
      "start": 32.3299,
      "duration": 0.0311,
      "velocity": 102,
      "chip": "ym2612"
    },
    {
      "channel": 4,
      "note": 80,
      "start": 32.331,
      "duration": 0.1666,
      "velocity": 88,
      "chip": "ym2612"
    },
    {
      "channel": 5,
      "note": 54,
      "start": 32.3346,
      "duration": 0.1665,
      "velocity": 103,
      "chip": "ym2612"
    },
    {
      "channel": 2,
      "note": 71,
      "start": 32.3611,
      "duration": 0.0507,
      "velocity": 102,
      "chip": "ym2612"
    },
    {
      "channel": 1,
      "note": 62,
      "start": 32.411,
      "duration": 0.0845,
      "velocity": 85,
      "chip": "ym2612"
    },
    {
      "channel": 2,
      "note": 70,
      "start": 32.412,
      "duration": 0.0324,
      "velocity": 102,
      "chip": "ym2612"
    },
    {
      "channel": 2,
      "note": 69,
      "start": 32.4444,
      "duration": 0.052,
      "velocity": 102,
      "chip": "ym2612"
    },
    {
      "channel": 0,
      "note": 82,
      "start": 32.4946,
      "duration": 0.1667,
      "velocity": 88,
      "chip": "ym2612"
    },
    {
      "channel": 1,
      "note": 62,
      "start": 32.4956,
      "duration": 0.1667,
      "velocity": 85,
      "chip": "ym2612"
    },
    {
      "channel": 2,
      "note": 68,
      "start": 32.4966,
      "duration": 0.0311,
      "velocity": 102,
      "chip": "ym2612"
    },
    {
      "channel": 4,
      "note": 81,
      "start": 32.4976,
      "duration": 0.1675,
      "velocity": 88,
      "chip": "ym2612"
    },
    {
      "channel": 5,
      "note": 44,
      "start": 32.5013,
      "duration": 0.0819,
      "velocity": 127,
      "chip": "ym2612"
    },
    {
      "channel": 2,
      "note": 67,
      "start": 32.5278,
      "duration": 0.0505,
      "velocity": 102,
      "chip": "ym2612"
    },
    {
      "channel": 2,
      "note": 66,
      "start": 32.5784,
      "duration": 0.0328,
      "velocity": 102,
      "chip": "ym2612"
    },
    {
      "channel": 3,
      "note": 76,
      "start": 32.5794,
      "duration": 0.0328,
      "velocity": 102,
      "chip": "ym2612"
    },
    {
      "channel": 5,
      "note": 54,
      "start": 32.5833,
      "duration": 0.0855,
      "velocity": 127,
      "chip": "ym2612"
    },
    {
      "channel": 2,
      "note": 65,
      "start": 32.6113,
      "duration": 0.0519,
      "velocity": 102,
      "chip": "ym2612"
    },
    {
      "channel": 3,
      "note": 75,
      "start": 32.6123,
      "duration": 0.0519,
      "velocity": 102,
      "chip": "ym2612"
    },
    {
      "channel": 0,
      "note": 83,
      "start": 32.6614,
      "duration": 0.167,
      "velocity": 88,
      "chip": "ym2612"
    },
    {
      "channel": 1,
      "note": 62,
      "start": 32.6624,
      "duration": 0.0823,
      "velocity": 85,
      "chip": "ym2612"
    },
    {
      "channel": 2,
      "note": 64,
      "start": 32.6633,
      "duration": 0.0312,
      "velocity": 102,
      "chip": "ym2612"
    },
    {
      "channel": 3,
      "note": 74,
      "start": 32.6643,
      "duration": 0.0312,
      "velocity": 102,
      "chip": "ym2612"
    },
    {
      "channel": 4,
      "note": 82,
      "start": 32.6652,
      "duration": 0.1666,
      "velocity": 88,
      "chip": "ym2612"
    },
    {
      "channel": 5,
      "note": 54,
      "start": 32.6689,
      "duration": 0.0817,
      "velocity": 127,
      "chip": "ym2612"
    },
    {
      "channel": 2,
      "note": 63,
      "start": 32.6946,
      "duration": 0.051,
      "velocity": 102,
      "chip": "ym2612"
    },
    {
      "channel": 3,
      "note": 73,
      "start": 32.6956,
      "duration": 0.051,
      "velocity": 102,
      "chip": "ym2612"
    },
    {
      "channel": 1,
      "note": 62,
      "start": 32.7448,
      "duration": 0.0845,
      "velocity": 85,
      "chip": "ym2612"
    },
    {
      "channel": 2,
      "note": 62,
      "start": 32.7458,
      "duration": 0.0321,
      "velocity": 102,
      "chip": "ym2612"
    },
    {
      "channel": 3,
      "note": 72,
      "start": 32.7467,
      "duration": 0.0321,
      "velocity": 102,
      "chip": "ym2612"
    },
    {
      "channel": 5,
      "note": 54,
      "start": 32.7507,
      "duration": 0.0847,
      "velocity": 103,
      "chip": "ym2612"
    },
    {
      "channel": 2,
      "note": 59,
      "start": 32.778,
      "duration": 0.052,
      "velocity": 102,
      "chip": "ym2612"
    },
    {
      "channel": 3,
      "note": 71,
      "start": 32.7789,
      "duration": 0.0519,
      "velocity": 102,
      "chip": "ym2612"
    },
    {
      "channel": 0,
      "note": 81,
      "start": 32.8285,
      "duration": 0.1658,
      "velocity": 88,
      "chip": "ym2612"
    },
    {
      "channel": 1,
      "note": 57,
      "start": 32.8295,
      "duration": 0.1658,
      "velocity": 85,
      "chip": "ym2612"
    },
    {
      "channel": 3,
      "note": 70,
      "start": 32.831,
      "duration": 0.0302,
      "velocity": 102,
      "chip": "ym2612"
    },
    {
      "channel": 4,
      "note": 83,
      "start": 32.8319,
      "duration": 0.1655,
      "velocity": 88,
      "chip": "ym2612"
    },
    {
      "channel": 5,
      "note": 44,
      "start": 32.8356,
      "duration": 0.3257,
      "velocity": 103,
      "chip": "ym2612"
    },
    {
      "channel": 3,
      "note": 69,
      "start": 32.8612,
      "duration": 0.0501,
      "velocity": 102,
      "chip": "ym2612"
    },
    {
      "channel": 3,
      "note": 68,
      "start": 32.9115,
      "duration": 0.0329,
      "velocity": 102,
      "chip": "ym2612"
    },
    {
      "channel": 3,
      "note": 67,
      "start": 32.9445,
      "duration": 0.0518,
      "velocity": 102,
      "chip": "ym2612"
    },
    {
      "channel": 0,
      "note": 77,
      "start": 32.9944,
      "duration": 0.1668,
      "velocity": 88,
      "chip": "ym2612"
    },
    {
      "channel": 1,
      "note": 57,
      "start": 32.9954,
      "duration": 0.0822,
      "velocity": 85,
      "chip": "ym2612"
    },
    {
      "channel": 3,
      "note": 66,
      "start": 32.9965,
      "duration": 0.0313,
      "velocity": 102,
      "chip": "ym2612"
    },
    {
      "channel": 4,
      "note": 81,
      "start": 32.9974,
      "duration": 0.1639,
      "velocity": 88,
      "chip": "ym2612"
    },
    {
      "channel": 3,
      "note": 65,
      "start": 33.0279,
      "duration": 0.0507,
      "velocity": 102,
      "chip": "ym2612"
    },
    {
      "channel": 1,
      "note": 57,
      "start": 33.0777,
      "duration": 0.0836,
      "velocity": 85,
      "chip": "ym2612"
    },
    {
      "channel": 3,
      "note": 64,
      "start": 33.0788,
      "duration": 0.0323,
      "velocity": 102,
      "chip": "ym2612"
    },
    {
      "channel": 3,
      "note": 63,
      "start": 33.1112,
      "duration": 0.05,
      "velocity": 102,
      "chip": "ym2612"
    }
  ]
}