{
  "track_name": "06 - DNA (Stage 4)",
  "duration_sec": 29.304,
  "sample_rate": 44100,
  "note_count": 582,
  "unique_pitches": 47,
  "pitch_range": 114,
  "avg_note_duration": 0.2816,
  "reconstruction_stats": {
    "notes_reconstructed": 582,
    "keyon_events": 582,
    "keyoff_events": 576,
    "orphan_keyons": 6,
    "unique_pitches": 47,
    "pitch_range": 114,
    "avg_duration_sec": 0.2816
  },
  "metadata": {
    "source": "D\\Darwin 4081\\06 - DNA (Stage 4).vgz"
  },
  "notes": [
    {
      "channel": 0,
      "note": 40,
      "start": 0.0,
      "duration": 0.7886,
      "velocity": 99,
      "chip": "ym2612"
    },
    {
      "channel": 1,
      "note": 82,
      "start": 0.0015,
      "duration": 0.0874,
      "velocity": 95,
      "chip": "ym2612"
    },
    {
      "channel": 3,
      "note": 82,
      "start": 0.0063,
      "duration": 3.1829,
      "velocity": 103,
      "chip": "ym2612"
    },
    {
      "channel": 4,
      "note": 88,
      "start": 0.0089,
      "duration": 3.1805,
      "velocity": 103,
      "chip": "ym2612"
    },
    {
      "channel": 5,
      "note": 85,
      "start": 0.0116,
      "duration": 3.1779,
      "velocity": 103,
      "chip": "ym2612"
    },
    {
      "channel": 2,
      "note": 38,
      "start": 0.0127,
      "duration": 0.1101,
      "velocity": 120,
      "chip": "ym2612"
    },
    {
      "channel": 1,
      "note": 85,
      "start": 0.1059,
      "duration": 0.083,
      "velocity": 95,
      "chip": "ym2612"
    },
    {
      "channel": 1,
      "note": 88,
      "start": 0.2059,
      "duration": 0.083,
      "velocity": 95,
      "chip": "ym2612"
    },
    {
      "channel": 2,
      "note": 45,
      "start": 0.2095,
      "duration": 0.0969,
      "velocity": 1,
      "chip": "ym2612"
    },
    {
      "channel": 1,
      "note": 91,
      "start": 0.3059,
      "duration": 0.083,
      "velocity": 95,
      "chip": "ym2612"
    },
    {
      "channel": 2,
      "note": 45,
      "start": 0.3094,
      "duration": 0.097,
      "velocity": 1,
      "chip": "ym2612"
    },
    {
      "channel": 1,
      "note": 82,
      "start": 0.4059,
      "duration": 0.083,
      "velocity": 95,
      "chip": "ym2612"
    },
    {
      "channel": 2,
      "note": 45,
      "start": 0.4095,
      "duration": 0.1969,
      "velocity": 1,
      "chip": "ym2612"
    },
    {
      "channel": 1,
      "note": 85,
      "start": 0.5059,
      "duration": 0.083,
      "velocity": 95,
      "chip": "ym2612"
    },
    {
      "channel": 1,
      "note": 88,
      "start": 0.6059,
      "duration": 0.083,
      "velocity": 95,
      "chip": "ym2612"
    },
    {
      "channel": 2,
      "note": 45,
      "start": 0.6095,
      "duration": 0.0969,
      "velocity": 1,
      "chip": "ym2612"
    },
    {
      "channel": 1,
      "note": 91,
      "start": 0.7059,
      "duration": 0.0831,
      "velocity": 95,
      "chip": "ym2612"
    },
    {
      "channel": 2,
      "note": 45,
      "start": 0.7094,
      "duration": 0.0972,
      "velocity": 1,
      "chip": "ym2612"
    },
    {
      "channel": 0,
      "note": 37,
      "start": 0.8056,
      "duration": 0.7829,
      "velocity": 99,
      "chip": "ym2612"
    },
    {
      "channel": 1,
      "note": 82,
      "start": 0.8061,
      "duration": 0.0828,
      "velocity": 95,
      "chip": "ym2612"
    },
    {
      "channel": 2,
      "note": 45,
      "start": 0.8098,
      "duration": 0.1967,
      "velocity": 1,
      "chip": "ym2612"
    },
    {
      "channel": 1,
      "note": 85,
      "start": 0.9059,
      "duration": 0.083,
      "velocity": 95,
      "chip": "ym2612"
    },
    {
      "channel": 1,
      "note": 88,
      "start": 1.0059,
      "duration": 0.083,
      "velocity": 95,
      "chip": "ym2612"
    },
    {
      "channel": 2,
      "note": 45,
      "start": 1.0095,
      "duration": 0.0969,
      "velocity": 1,
      "chip": "ym2612"
    },
    {
      "channel": 1,
      "note": 91,
      "start": 1.1059,
      "duration": 0.083,
      "velocity": 95,
      "chip": "ym2612"
    },
    {
      "channel": 2,
      "note": 45,
      "start": 1.1094,
      "duration": 0.097,
      "velocity": 1,
      "chip": "ym2612"
    },
    {
      "channel": 1,
      "note": 82,
      "start": 1.2059,
      "duration": 0.083,
      "velocity": 95,
      "chip": "ym2612"
    },
    {
      "channel": 2,
      "note": 45,
      "start": 1.2096,
      "duration": 0.1969,
      "velocity": 1,
      "chip": "ym2612"
    },
    {
      "channel": 1,
      "note": 85,
      "start": 1.3059,
      "duration": 0.083,
      "velocity": 95,
      "chip": "ym2612"
    },
    {
      "channel": 1,
      "note": 88,
      "start": 1.4059,
      "duration": 0.083,
      "velocity": 95,
      "chip": "ym2612"
    },
    {
      "channel": 2,
      "note": 45,
      "start": 1.4095,
      "duration": 0.0969,
      "velocity": 1,
      "chip": "ym2612"
    },
    {
      "channel": 1,
      "note": 91,
      "start": 1.5059,
      "duration": 0.0831,
      "velocity": 95,
      "chip": "ym2612"
    },
    {
      "channel": 2,
      "note": 45,
      "start": 1.5094,
      "duration": 0.0973,
      "velocity": 1,
      "chip": "ym2612"
    },
    {
      "channel": 0,
      "note": 36,
      "start": 1.6056,
      "duration": 0.7829,
      "velocity": 99,
      "chip": "ym2612"
    },
    {
      "channel": 1,
      "note": 82,
      "start": 1.6061,
      "duration": 0.0828,
      "velocity": 95,
      "chip": "ym2612"
    },
    {
      "channel": 2,
      "note": 45,
      "start": 1.6098,
      "duration": 0.1966,
      "velocity": 1,
      "chip": "ym2612"
    },
    {
      "channel": 1,
      "note": 85,
      "start": 1.7059,
      "duration": 0.083,
      "velocity": 95,
      "chip": "ym2612"
    },
    {
      "channel": 1,
      "note": 88,
      "start": 1.8059,
      "duration": 0.083,
      "velocity": 95,
      "chip": "ym2612"
    },
    {
      "channel": 2,
      "note": 45,
      "start": 1.8095,
      "duration": 0.0969,
      "velocity": 1,
      "chip": "ym2612"
    },
    {
      "channel": 1,
      "note": 91,
      "start": 1.9059,
      "duration": 0.083,
      "velocity": 95,
      "chip": "ym2612"
    },
    {
      "channel": 2,
      "note": 45,
      "start": 1.9094,
      "duration": 0.097,
      "velocity": 1,
      "chip": "ym2612"
    },
    {
      "channel": 1,
      "note": 82,
      "start": 2.0059,
      "duration": 0.083,
      "velocity": 95,
      "chip": "ym2612"
    },
    {
      "channel": 2,
      "note": 45,
      "start": 2.0096,
      "duration": 0.1969,
      "velocity": 1,
      "chip": "ym2612"
    },
    {
      "channel": 1,
      "note": 85,
      "start": 2.1059,
      "duration": 0.083,
      "velocity": 95,
      "chip": "ym2612"
    },
    {
      "channel": 1,
      "note": 88,
      "start": 2.2059,
      "duration": 0.083,
      "velocity": 95,
      "chip": "ym2612"
    },
    {
      "channel": 2,
      "note": 45,
      "start": 2.2095,
      "duration": 0.0969,
      "velocity": 1,
      "chip": "ym2612"
    },
    {
      "channel": 1,
      "note": 91,
      "start": 2.3059,
      "duration": 0.0831,
      "velocity": 95,
      "chip": "ym2612"
    },
    {
      "channel": 2,
      "note": 45,
      "start": 2.3094,
      "duration": 0.0972,
      "velocity": 1,
      "chip": "ym2612"
    },
    {
      "channel": 0,
      "note": 39,
      "start": 2.4056,
      "duration": 0.7829,
      "velocity": 99,
      "chip": "ym2612"
    },
    {
      "channel": 1,
      "note": 82,
      "start": 2.4061,
      "duration": 0.0828,
      "velocity": 95,
      "chip": "ym2612"
    },
    {
      "channel": 2,
      "note": 45,
      "start": 2.4098,
      "duration": 0.1967,
      "velocity": 1,
      "chip": "ym2612"
    },
    {
      "channel": 1,
      "note": 85,
      "start": 2.5059,
      "duration": 0.083,
      "velocity": 95,
      "chip": "ym2612"
    },
    {
      "channel": 1,
      "note": 88,
      "start": 2.6059,
      "duration": 0.083,
      "velocity": 95,
      "chip": "ym2612"
    },
    {
      "channel": 2,
      "note": 45,
      "start": 2.6095,
      "duration": 0.0969,
      "velocity": 1,
      "chip": "ym2612"
    },
    {
      "channel": 1,
      "note": 91,
      "start": 2.7059,
      "duration": 0.083,
      "velocity": 95,
      "chip": "ym2612"
    },
    {
      "channel": 2,
      "note": 45,
      "start": 2.7094,
      "duration": 0.097,
      "velocity": 1,
      "chip": "ym2612"
    },
    {
      "channel": 1,
      "note": 82,
      "start": 2.8059,
      "duration": 0.083,
      "velocity": 95,
      "chip": "ym2612"
    },
    {
      "channel": 2,
      "note": 45,
      "start": 2.8096,
      "duration": 0.1969,
      "velocity": 1,
      "chip": "ym2612"
    },
    {
      "channel": 1,
      "note": 85,
      "start": 2.9059,
      "duration": 0.083,
      "velocity": 95,
      "chip": "ym2612"
    },
    {
      "channel": 1,
      "note": 88,
      "start": 3.0059,
      "duration": 0.083,
      "velocity": 95,
      "chip": "ym2612"
    },
    {
      "channel": 2,
      "note": 45,
      "start": 3.0095,
      "duration": 0.0969,
      "velocity": 1,
      "chip": "ym2612"
    },
    {
      "channel": 1,
      "note": 91,
      "start": 3.1059,
      "duration": 0.0831,
      "velocity": 95,
      "chip": "ym2612"
    },
    {
      "channel": 2,
      "note": 45,
      "start": 3.1094,
      "duration": 0.0973,
      "velocity": 1,
      "chip": "ym2612"
    },
    {
      "channel": 0,
      "note": 42,
      "start": 3.2056,
      "duration": 0.7829,
      "velocity": 99,
      "chip": "ym2612"
    },
    {
      "channel": 1,
      "note": 84,
      "start": 3.2061,
      "duration": 0.0828,
      "velocity": 95,
      "chip": "ym2612"
    },
    {
      "channel": 3,
      "note": 90,
      "start": 3.2089,
      "duration": 3.197,
      "velocity": 103,
      "chip": "ym2612"
    },
    {
      "channel": 4,
      "note": 87,
      "start": 3.2094,
      "duration": 3.1967,
      "velocity": 103,
      "chip": "ym2612"
    },
    {
      "channel": 5,
      "note": 84,
      "start": 3.2098,
      "duration": 3.1964,
      "velocity": 103,
      "chip": "ym2612"
    },
    {
      "channel": 2,
      "note": 38,
      "start": 3.2109,
      "duration": 0.1119,
      "velocity": 120,
      "chip": "ym2612"
    },
    {
      "channel": 1,
      "note": 87,
      "start": 3.3059,
      "duration": 0.083,
      "velocity": 95,
      "chip": "ym2612"
    },
    {
      "channel": 1,
      "note": 90,
      "start": 3.4059,
      "duration": 0.083,
      "velocity": 95,
      "chip": "ym2612"
    },
    {
      "channel": 2,
      "note": 45,
      "start": 3.4095,
      "duration": 0.0969,
      "velocity": 1,
      "chip": "ym2612"
    },
    {
      "channel": 1,
      "note": 93,
      "start": 3.5059,
      "duration": 0.083,
      "velocity": 95,
      "chip": "ym2612"
    },
    {
      "channel": 2,
      "note": 45,
      "start": 3.5094,
      "duration": 0.097,
      "velocity": 1,
      "chip": "ym2612"
    },
    {
      "channel": 1,
      "note": 96,
      "start": 3.6059,
      "duration": 0.083,
      "velocity": 95,
      "chip": "ym2612"
    },
    {
      "channel": 2,
      "note": 45,
      "start": 3.6095,
      "duration": 0.1969,
      "velocity": 1,
      "chip": "ym2612"
    },
    {
      "channel": 1,
      "note": 90,
      "start": 3.7059,
      "duration": 0.083,
      "velocity": 95,
      "chip": "ym2612"
    },
    {
      "channel": 1,
      "note": 93,
      "start": 3.8059,
      "duration": 0.083,
      "velocity": 95,
      "chip": "ym2612"
    },
    {
      "channel": 2,
      "note": 45,
      "start": 3.8095,
      "duration": 0.0969,
      "velocity": 1,
      "chip": "ym2612"
    },
    {
      "channel": 1,
      "note": 96,
      "start": 3.9059,
      "duration": 0.0831,
      "velocity": 95,
      "chip": "ym2612"
    },
    {
      "channel": 2,
      "note": 45,
      "start": 3.9094,
      "duration": 0.0972,
      "velocity": 1,
      "chip": "ym2612"
    },
    {
      "channel": 0,
      "note": 45,
      "start": 4.0056,
      "duration": 0.7996,
      "velocity": 99,
      "chip": "ym2612"
    },
    {
      "channel": 1,
      "note": 99,
      "start": 4.0061,
      "duration": 0.0828,
      "velocity": 95,
      "chip": "ym2612"
    },
    {
      "channel": 2,
      "note": 45,
      "start": 4.0098,
      "duration": 0.1967,
      "velocity": 1,
      "chip": "ym2612"
    },
    {
      "channel": 1,
      "note": 93,
      "start": 4.1059,
      "duration": 0.083,
      "velocity": 95,
      "chip": "ym2612"
    },
    {
      "channel": 1,
      "note": 96,
      "start": 4.2059,
      "duration": 0.0998,
      "velocity": 95,
      "chip": "ym2612"
    },
    {
      "channel": 2,
      "note": 45,
      "start": 4.2095,
      "duration": 0.1136,
      "velocity": 1,
      "chip": "ym2612"
    },
    {
      "channel": 1,
      "note": 99,
      "start": 4.3225,
      "duration": 0.0831,
      "velocity": 95,
      "chip": "ym2612"
    },
    {
      "channel": 2,
      "note": 45,
      "start": 4.3261,
      "duration": 0.097,
      "velocity": 1,
      "chip": "ym2612"
    },
    {
      "channel": 1,
      "note": 102,
      "start": 4.4225,
      "duration": 0.0831,
      "velocity": 95,
      "chip": "ym2612"
    },
    {
      "channel": 2,
      "note": 45,
      "start": 4.4262,
      "duration": 0.1969,
      "velocity": 1,
      "chip": "ym2612"
    },
    {
      "channel": 1,
      "note": 96,
      "start": 4.5225,
      "duration": 0.0831,
      "velocity": 95,
      "chip": "ym2612"
    },
    {
      "channel": 1,
      "note": 99,
      "start": 4.6225,
      "duration": 0.0831,
      "velocity": 95,
      "chip": "ym2612"
    },
    {
      "channel": 2,
      "note": 45,
      "start": 4.6261,
      "duration": 0.097,
      "velocity": 1,
      "chip": "ym2612"
    },
    {
      "channel": 1,
      "note": 102,
      "start": 4.7225,
      "duration": 0.0832,
      "velocity": 95,
      "chip": "ym2612"
    },
    {
      "channel": 2,
      "note": 45,
      "start": 4.7261,
      "duration": 0.0973,
      "velocity": 1,
      "chip": "ym2612"
    },
    {
      "channel": 0,
      "note": 45,
      "start": 4.8223,
      "duration": 0.7829,
      "velocity": 99,
      "chip": "ym2612"
    },
    {
      "channel": 1,
      "note": 96,
      "start": 4.8229,
      "duration": 0.0827,
      "velocity": 95,
      "chip": "ym2612"
    },
    {
      "channel": 2,
      "note": 45,
      "start": 4.8266,
      "duration": 0.1966,
      "velocity": 1,
      "chip": "ym2612"
    },
    {
      "channel": 1,
      "note": 99,
      "start": 4.9225,
      "duration": 0.083,
      "velocity": 95,
      "chip": "ym2612"
    },
    {
      "channel": 1,
      "note": 102,
      "start": 5.0225,
      "duration": 0.083,
      "velocity": 95,
      "chip": "ym2612"
    },
    {
      "channel": 2,
      "note": 45,
      "start": 5.0262,
      "duration": 0.0969,
      "velocity": 1,
      "chip": "ym2612"
    },
    {
      "channel": 1,
      "note": 105,
      "start": 5.1225,
      "duration": 0.083,
      "velocity": 95,
      "chip": "ym2612"
    },
    {
      "channel": 2,
      "note": 45,
      "start": 5.1261,
      "duration": 0.097,
      "velocity": 1,
      "chip": "ym2612"
    },
    {
      "channel": 1,
      "note": 108,
      "start": 5.2225,
      "duration": 0.083,
      "velocity": 95,
      "chip": "ym2612"
    },
    {
      "channel": 2,
      "note": 45,
      "start": 5.2262,
      "duration": 0.1969,
      "velocity": 1,
      "chip": "ym2612"
    },
    {
      "channel": 1,
      "note": 102,
      "start": 5.3225,
      "duration": 0.083,
      "velocity": 95,
      "chip": "ym2612"
    },
    {
      "channel": 1,
      "note": 105,
      "start": 5.4225,
      "duration": 0.083,
      "velocity": 95,
      "chip": "ym2612"
    },
    {
      "channel": 2,
      "note": 45,
      "start": 5.4262,
      "duration": 0.0969,
      "velocity": 1,
      "chip": "ym2612"
    },
    {
      "channel": 1,
      "note": 108,
      "start": 5.5225,
      "duration": 0.0831,
      "velocity": 95,
      "chip": "ym2612"
    },
    {
      "channel": 2,
      "note": 45,
      "start": 5.5261,
      "duration": 0.0972,
      "velocity": 1,
      "chip": "ym2612"
    },
    {
      "channel": 0,
      "note": 41,
      "start": 5.6223,
      "duration": 0.7829,
      "velocity": 99,
      "chip": "ym2612"
    },
    {
      "channel": 1,
      "note": 111,
      "start": 5.6227,
      "duration": 0.0828,
      "velocity": 95,
      "chip": "ym2612"
    },
    {
      "channel": 2,
      "note": 45,
      "start": 5.6264,
      "duration": 0.1967,
      "velocity": 1,
      "chip": "ym2612"
    },
    {
      "channel": 1,
      "note": 105,
      "start": 5.7225,
      "duration": 0.083,
      "velocity": 95,
      "chip": "ym2612"
    },
    {
      "channel": 1,
      "note": 108,
      "start": 5.8225,
      "duration": 0.083,
      "velocity": 95,
      "chip": "ym2612"
    },
    {
      "channel": 2,
      "note": 45,
      "start": 5.8262,
      "duration": 0.0969,
      "velocity": 1,
      "chip": "ym2612"
    },
    {
      "channel": 1,
      "note": 111,
      "start": 5.9225,
      "duration": 0.083,
      "velocity": 95,
      "chip": "ym2612"
    },
    {
      "channel": 2,
      "note": 45,
      "start": 5.9261,
      "duration": 0.097,
      "velocity": 1,
      "chip": "ym2612"
    },
    {
      "channel": 1,
      "note": 114,
      "start": 6.0225,
      "duration": 0.083,
      "velocity": 95,
      "chip": "ym2612"
    },
    {
      "channel": 2,
      "note": 45,
      "start": 6.0262,
      "duration": 0.1969,
      "velocity": 1,
      "chip": "ym2612"
    },
    {
      "channel": 1,
      "note": 108,
      "start": 6.1225,
      "duration": 0.083,
      "velocity": 95,
      "chip": "ym2612"
    },
    {
      "channel": 1,
      "note": 111,
      "start": 6.2225,
      "duration": 0.083,
      "velocity": 95,
      "chip": "ym2612"
    },
    {
      "channel": 2,
      "note": 45,
      "start": 6.2262,
      "duration": 0.0969,
      "velocity": 1,
      "chip": "ym2612"
    },
    {
      "channel": 1,
      "note": 114,
      "start": 6.3225,
      "duration": 0.0831,
      "velocity": 95,
      "chip": "ym2612"
    },
    {
      "channel": 2,
      "note": 45,
      "start": 6.3261,
      "duration": 0.0974,
      "velocity": 1,
      "chip": "ym2612"
    },
    {
      "channel": 0,
      "note": 38,
      "start": 6.4223,
      "duration": 0.7829,
      "velocity": 99,
      "chip": "ym2612"
    },
    {
      "channel": 1,
      "note": 81,
      "start": 6.4229,
      "duration": 0.0826,
      "velocity": 95,
      "chip": "ym2612"
    },
    {
      "channel": 3,
      "note": 86,
      "start": 6.4257,
      "duration": 3.1969,
      "velocity": 103,
      "chip": "ym2612"
    },
    {
      "channel": 4,
      "note": 89,
      "start": 6.4262,
      "duration": 3.1966,
      "velocity": 103,
      "chip": "ym2612"
    },
    {
      "channel": 5,
      "note": 83,
      "start": 6.4266,
      "duration": 3.1962,
      "velocity": 103,
      "chip": "ym2612"
    },
    {
      "channel": 2,
      "note": 38,
      "start": 6.4277,
      "duration": 0.1118,
      "velocity": 120,
      "chip": "ym2612"
    },
    {
      "channel": 1,
      "note": 83,
      "start": 6.5225,
      "duration": 0.083,
      "velocity": 95,
      "chip": "ym2612"
    },
    {
      "channel": 1,
      "note": 86,
      "start": 6.6225,
      "duration": 0.083,
      "velocity": 95,
      "chip": "ym2612"
    },
    {
      "channel": 2,
      "note": 45,
      "start": 6.6262,
      "duration": 0.0969,
      "velocity": 1,
      "chip": "ym2612"
    },
    {
      "channel": 1,
      "note": 89,
      "start": 6.7225,
      "duration": 0.083,
      "velocity": 95,
      "chip": "ym2612"
    },
    {
      "channel": 2,
      "note": 45,
      "start": 6.7261,
      "duration": 0.097,
      "velocity": 1,
      "chip": "ym2612"
    },
    {
      "channel": 1,
      "note": 93,
      "start": 6.8225,
      "duration": 0.083,
      "velocity": 95,
      "chip": "ym2612"
    },
    {
      "channel": 2,
      "note": 45,
      "start": 6.8262,
      "duration": 0.1969,
      "velocity": 1,
      "chip": "ym2612"
    },
    {
      "channel": 1,
      "note": 83,
      "start": 6.9225,
      "duration": 0.083,
      "velocity": 95,
      "chip": "ym2612"
    },
    {
      "channel": 1,
      "note": 86,
      "start": 7.0225,
      "duration": 0.083,
      "velocity": 95,
      "chip": "ym2612"
    },
    {
      "channel": 2,
      "note": 45,
      "start": 7.0262,
      "duration": 0.0969,
      "velocity": 1,
      "chip": "ym2612"
    },
    {
      "channel": 1,
      "note": 89,
      "start": 7.1225,
      "duration": 0.0831,
      "velocity": 95,
      "chip": "ym2612"
    },
    {
      "channel": 2,
      "note": 45,
      "start": 7.1261,
      "duration": 0.0972,
      "velocity": 1,
      "chip": "ym2612"
    },
    {
      "channel": 0,
      "note": 0,
      "start": 7.2223,
      "duration": 0.7829,
      "velocity": 99,
      "chip": "ym2612"
    },
    {
      "channel": 1,
      "note": 93,
      "start": 7.2227,
      "duration": 0.0828,
      "velocity": 95,
      "chip": "ym2612"
    },
    {
      "channel": 2,
      "note": 45,
      "start": 7.2264,
      "duration": 0.1967,
      "velocity": 1,
      "chip": "ym2612"
    },
    {
      "channel": 1,
      "note": 86,
      "start": 7.3225,
      "duration": 0.083,
      "velocity": 95,
      "chip": "ym2612"
    },
    {
      "channel": 1,
      "note": 89,
      "start": 7.4225,
      "duration": 0.083,
      "velocity": 95,
      "chip": "ym2612"
    },
    {
      "channel": 2,
      "note": 45,
      "start": 7.4262,
      "duration": 0.0969,
      "velocity": 1,
      "chip": "ym2612"
    },
    {
      "channel": 1,
      "note": 93,
      "start": 7.5225,
      "duration": 0.083,
      "velocity": 95,
      "chip": "ym2612"
    },
    {
      "channel": 2,
      "note": 45,
      "start": 7.5261,
      "duration": 0.097,
      "velocity": 1,
      "chip": "ym2612"
    },
    {
      "channel": 1,
      "note": 95,
      "start": 7.6225,
      "duration": 0.083,
      "velocity": 95,
      "chip": "ym2612"
    },
    {
      "channel": 2,
      "note": 45,
      "start": 7.6262,
      "duration": 0.1969,
      "velocity": 1,
      "chip": "ym2612"
    },
    {
      "channel": 1,
      "note": 89,
      "start": 7.7225,
      "duration": 0.083,
      "velocity": 95,
      "chip": "ym2612"
    },
    {
      "channel": 1,
      "note": 93,
      "start": 7.8225,
      "duration": 0.083,
      "velocity": 95,
      "chip": "ym2612"
    },
    {
      "channel": 2,
      "note": 45,
      "start": 7.8262,
      "duration": 0.0969,
      "velocity": 1,
      "chip": "ym2612"
    },
    {
      "channel": 1,
      "note": 95,
      "start": 7.9225,
      "duration": 0.0831,
      "velocity": 95,
      "chip": "ym2612"
    },
    {
      "channel": 2,
      "note": 45,
      "start": 7.9261,
      "duration": 0.0972,
      "velocity": 1,
      "chip": "ym2612"
    },
    {
      "channel": 0,
      "note": 0,
      "start": 8.0223,
      "duration": 0.7996,
      "velocity": 99,
      "chip": "ym2612"
    },
    {
      "channel": 1,
      "note": 89,
      "start": 8.0227,
      "duration": 0.0828,
      "velocity": 95,
      "chip": "ym2612"
    },
    {
      "channel": 2,
      "note": 45,
      "start": 8.0264,
      "duration": 0.1967,
      "velocity": 1,
      "chip": "ym2612"
    },
    {
      "channel": 1,
      "note": 93,
      "start": 8.1225,
      "duration": 0.083,
      "velocity": 95,
      "chip": "ym2612"
    },
    {
      "channel": 1,
      "note": 95,
      "start": 8.2225,
      "duration": 0.083,
      "velocity": 95,
      "chip": "ym2612"
    },
    {
      "channel": 2,
      "note": 45,
      "start": 8.2262,
      "duration": 0.0969,
      "velocity": 1,
      "chip": "ym2612"
    },
    {
      "channel": 1,
      "note": 98,
      "start": 8.3225,
      "duration": 0.083,
      "velocity": 95,
      "chip": "ym2612"
    },
    {
      "channel": 2,
      "note": 45,
      "start": 8.3261,
      "duration": 0.097,
      "velocity": 1,
      "chip": "ym2612"
    },
    {
      "channel": 1,
      "note": 93,
      "start": 8.4225,
      "duration": 0.0998,
      "velocity": 95,
      "chip": "ym2612"
    },
    {
      "channel": 2,
      "note": 45,
      "start": 8.4262,
      "duration": 0.2135,
      "velocity": 1,
      "chip": "ym2612"
    },
    {
      "channel": 1,
      "note": 95,
      "start": 8.5392,
      "duration": 0.0831,
      "velocity": 95,
      "chip": "ym2612"
    },
    {
      "channel": 1,
      "note": 98,
      "start": 8.6392,
      "duration": 0.0831,
      "velocity": 95,
      "chip": "ym2612"
    },
    {
      "channel": 2,
      "note": 45,
      "start": 8.6428,
      "duration": 0.097,
      "velocity": 1,
      "chip": "ym2612"
    },
    {
      "channel": 1,
      "note": 101,
      "start": 8.7392,
      "duration": 0.0832,
      "velocity": 95,
      "chip": "ym2612"
    },
    {
      "channel": 2,
      "note": 45,
      "start": 8.7428,
      "duration": 0.0972,
      "velocity": 1,
      "chip": "ym2612"
    },
    {
      "channel": 0,
      "note": 37,
      "start": 8.839,
      "duration": 0.7829,
      "velocity": 99,
      "chip": "ym2612"
    },
    {
      "channel": 1,
      "note": 93,
      "start": 8.8394,
      "duration": 0.0828,
      "velocity": 95,
      "chip": "ym2612"
    },
    {
      "channel": 2,
      "note": 45,
      "start": 8.8431,
      "duration": 0.1967,
      "velocity": 1,
      "chip": "ym2612"
    },
    {
      "channel": 1,
      "note": 95,
      "start": 8.9392,
      "duration": 0.083,
      "velocity": 95,
      "chip": "ym2612"
    },
    {
      "channel": 1,
      "note": 98,
      "start": 9.0392,
      "duration": 0.083,
      "velocity": 95,
      "chip": "ym2612"
    },
    {
      "channel": 2,
      "note": 45,
      "start": 9.0428,
      "duration": 0.0969,
      "velocity": 1,
      "chip": "ym2612"
    },
    {
      "channel": 1,
      "note": 101,
      "start": 9.1392,
      "duration": 0.083,
      "velocity": 95,
      "chip": "ym2612"
    },
    {
      "channel": 2,
      "note": 45,
      "start": 9.1428,
      "duration": 0.097,
      "velocity": 1,
      "chip": "ym2612"
    },
    {
      "channel": 1,
      "note": 95,
      "start": 9.2392,
      "duration": 0.083,
      "velocity": 95,
      "chip": "ym2612"
    },
    {
      "channel": 2,
      "note": 45,
      "start": 9.2429,
      "duration": 0.1969,
      "velocity": 1,
      "chip": "ym2612"
    },
    {
      "channel": 1,
      "note": 98,
      "start": 9.3392,
      "duration": 0.083,
      "velocity": 95,
      "chip": "ym2612"
    },
    {
      "channel": 1,
      "note": 101,
      "start": 9.4392,
      "duration": 0.083,
      "velocity": 95,
      "chip": "ym2612"
    },
    {
      "channel": 2,
      "note": 45,
      "start": 9.4428,
      "duration": 0.0969,
      "velocity": 1,
      "chip": "ym2612"
    },
    {
      "channel": 1,
      "note": 105,
      "start": 9.5392,
      "duration": 0.0831,
      "velocity": 95,
      "chip": "ym2612"
    },
    {
      "channel": 2,
      "note": 45,
      "start": 9.5428,
      "duration": 0.0972,
      "velocity": 1,
      "chip": "ym2612"
    },
    {
      "channel": 0,
      "note": 40,
      "start": 9.639,
      "duration": 0.7829,
      "velocity": 99,
      "chip": "ym2612"
    },
    {
      "channel": 1,
      "note": 79,
      "start": 9.6394,
      "duration": 0.0828,
      "velocity": 95,
      "chip": "ym2612"
    },
    {
      "channel": 3,
      "note": 79,
      "start": 9.6421,
      "duration": 3.1971,
      "velocity": 103,
      "chip": "ym2612"
    },
    {
      "channel": 4,
      "note": 85,
      "start": 9.6426,
      "duration": 3.1968,
      "velocity": 103,
      "chip": "ym2612"
    },
    {
      "channel": 5,
      "note": 82,
      "start": 9.643,
      "duration": 3.1966,
      "velocity": 103,
      "chip": "ym2612"
    },
    {
      "channel": 2,
      "note": 38,
      "start": 9.6441,
      "duration": 0.112,
      "velocity": 120,
      "chip": "ym2612"
    },
    {
      "channel": 1,
      "note": 82,
      "start": 9.7392,
      "duration": 0.083,
      "velocity": 95,
      "chip": "ym2612"
    },
    {
      "channel": 1,
      "note": 85,
      "start": 9.8392,
      "duration": 0.083,
      "velocity": 95,
      "chip": "ym2612"
    },
    {
      "channel": 2,
      "note": 45,
      "start": 9.8428,
      "duration": 0.0969,
      "velocity": 1,
      "chip": "ym2612"
    },
    {
      "channel": 1,
      "note": 88,
      "start": 9.9392,
      "duration": 0.083,
      "velocity": 95,
      "chip": "ym2612"
    },
    {
      "channel": 2,
      "note": 45,
      "start": 9.9428,
      "duration": 0.097,
      "velocity": 1,
      "chip": "ym2612"
    },
    {
      "channel": 1,
      "note": 91,
      "start": 10.0392,
      "duration": 0.083,
      "velocity": 95,
      "chip": "ym2612"
    },
    {
      "channel": 2,
      "note": 45,
      "start": 10.0428,
      "duration": 0.1969,
      "velocity": 1,
      "chip": "ym2612"
    },
    {
      "channel": 1,
      "note": 82,
      "start": 10.1392,
      "duration": 0.083,
      "velocity": 95,
      "chip": "ym2612"
    },
    {
      "channel": 1,
      "note": 85,
      "start": 10.2392,
      "duration": 0.083,
      "velocity": 95,
      "chip": "ym2612"
    },
    {
      "channel": 2,
      "note": 45,
      "start": 10.2428,
      "duration": 0.0969,
      "velocity": 1,
      "chip": "ym2612"
    },
    {
      "channel": 1,
      "note": 88,
      "start": 10.3392,
      "duration": 0.0831,
      "velocity": 95,
      "chip": "ym2612"
    },
    {
      "channel": 2,
      "note": 45,
      "start": 10.3428,
      "duration": 0.0972,
      "velocity": 1,
      "chip": "ym2612"
    },
    {
      "channel": 0,
      "note": 43,
      "start": 10.439,
      "duration": 0.7829,
      "velocity": 99,
      "chip": "ym2612"
    },
    {
      "channel": 1,
      "note": 91,
      "start": 10.4394,
      "duration": 0.0828,
      "velocity": 95,
      "chip": "ym2612"
    },
    {
      "channel": 2,
      "note": 45,
      "start": 10.4431,
      "duration": 0.1967,
      "velocity": 1,
      "chip": "ym2612"
    },
    {
      "channel": 1,
      "note": 82,
      "start": 10.5392,
      "duration": 0.083,
      "velocity": 95,
      "chip": "ym2612"
    },
    {
      "channel": 1,
      "note": 85,
      "start": 10.6392,
      "duration": 0.083,
      "velocity": 95,
      "chip": "ym2612"
    },
    {
      "channel": 2,
      "note": 45,
      "start": 10.6428,
      "duration": 0.0969,
      "velocity": 1,
      "chip": "ym2612"
    },
    {
      "channel": 1,
      "note": 88,
      "start": 10.7392,
      "duration": 0.083,
      "velocity": 95,
      "chip": "ym2612"
    },
    {
      "channel": 2,
      "note": 45,
      "start": 10.7428,
      "duration": 0.097,
      "velocity": 1,
      "chip": "ym2612"
    },
    {
      "channel": 1,
      "note": 91,
      "start": 10.8392,
      "duration": 0.083,
      "velocity": 95,
      "chip": "ym2612"
    },
    {
      "channel": 2,
      "note": 45,
      "start": 10.8429,
      "duration": 0.1969,
      "velocity": 1,
      "chip": "ym2612"
    },
    {
      "channel": 1,
      "note": 88,
      "start": 10.9392,
      "duration": 0.083,
      "velocity": 95,
      "chip": "ym2612"
    },
    {
      "channel": 1,
      "note": 91,
      "start": 11.0392,
      "duration": 0.083,
      "velocity": 95,
      "chip": "ym2612"
    },
    {
      "channel": 2,
      "note": 45,
      "start": 11.0428,
      "duration": 0.0969,
      "velocity": 1,
      "chip": "ym2612"
    },
    {
      "channel": 1,
      "note": 94,
      "start": 11.1392,
      "duration": 0.0831,
      "velocity": 95,
      "chip": "ym2612"
    },
    {
      "channel": 2,
      "note": 45,
      "start": 11.1428,
      "duration": 0.0972,
      "velocity": 1,
      "chip": "ym2612"
    },
    {
      "channel": 0,
      "note": 36,
      "start": 11.239,
      "duration": 0.7829,
      "velocity": 99,
      "chip": "ym2612"
    },
    {
      "channel": 1,
      "note": 100,
      "start": 11.2394,
      "duration": 0.0828,
      "velocity": 95,
      "chip": "ym2612"
    },
    {
      "channel": 2,
      "note": 45,
      "start": 11.2431,
      "duration": 0.1967,
      "velocity": 1,
      "chip": "ym2612"
    },
    {
      "channel": 1,
      "note": 91,
      "start": 11.3392,
      "duration": 0.083,
      "velocity": 95,
      "chip": "ym2612"
    },
    {
      "channel": 1,
      "note": 94,
      "start": 11.4392,
      "duration": 0.083,
      "velocity": 95,
      "chip": "ym2612"
    },
    {
      "channel": 2,
      "note": 45,
      "start": 11.4428,
      "duration": 0.0969,
      "velocity": 1,
      "chip": "ym2612"
    },
    {
      "channel": 1,
      "note": 97,
      "start": 11.5392,
      "duration": 0.083,
      "velocity": 95,
      "chip": "ym2612"
    },
    {
      "channel": 2,
      "note": 45,
      "start": 11.5428,
      "duration": 0.097,
      "velocity": 1,
      "chip": "ym2612"
    },
    {
      "channel": 1,
      "note": 100,
      "start": 11.6392,
      "duration": 0.083,
      "velocity": 95,
      "chip": "ym2612"
    },
    {
      "channel": 2,
      "note": 45,
      "start": 11.6429,
      "duration": 0.1969,
      "velocity": 1,
      "chip": "ym2612"
    },
    {
      "channel": 1,
      "note": 94,
      "start": 11.7392,
      "duration": 0.083,
      "velocity": 95,
      "chip": "ym2612"
    },
    {
      "channel": 1,
      "note": 97,
      "start": 11.8392,
      "duration": 0.083,
      "velocity": 95,
      "chip": "ym2612"
    },
    {
      "channel": 2,
      "note": 45,
      "start": 11.8428,
      "duration": 0.0969,
      "velocity": 1,
      "chip": "ym2612"
    },
    {
      "channel": 1,
      "note": 100,
      "start": 11.9392,
      "duration": 0.0831,
      "velocity": 95,
      "chip": "ym2612"
    },
    {
      "channel": 2,
      "note": 45,
      "start": 11.9428,
      "duration": 0.0972,
      "velocity": 1,
      "chip": "ym2612"
    },
    {
      "channel": 0,
      "note": 39,
      "start": 12.039,
      "duration": 0.7996,
      "velocity": 99,
      "chip": "ym2612"
    },
    {
      "channel": 1,
      "note": 103,
      "start": 12.0394,
      "duration": 0.0828,
      "velocity": 95,
      "chip": "ym2612"
    },
    {
      "channel": 2,
      "note": 45,
      "start": 12.0431,
      "duration": 0.1967,
      "velocity": 1,
      "chip": "ym2612"
    },
    {
      "channel": 1,
      "note": 97,
      "start": 12.1392,
      "duration": 0.083,
      "velocity": 95,
      "chip": "ym2612"
    },
    {
      "channel": 1,
      "note": 100,
      "start": 12.2392,
      "duration": 0.083,
      "velocity": 95,
      "chip": "ym2612"
    },
    {
      "channel": 2,
      "note": 45,
      "start": 12.2428,
      "duration": 0.0969,
      "velocity": 1,
      "chip": "ym2612"
    },
    {
      "channel": 1,
      "note": 103,
      "start": 12.3392,
      "duration": 0.083,
      "velocity": 95,
      "chip": "ym2612"
    },
    {
      "channel": 2,
      "note": 45,
      "start": 12.3428,
      "duration": 0.097,
      "velocity": 1,
      "chip": "ym2612"
    },
    {
      "channel": 1,
      "note": 106,
      "start": 12.4392,
      "duration": 0.083,
      "velocity": 95,
      "chip": "ym2612"
    },
    {
      "channel": 2,
      "note": 45,
      "start": 12.4429,
      "duration": 0.1969,
      "velocity": 1,
      "chip": "ym2612"
    },
    {
      "channel": 1,
      "note": 97,
      "start": 12.5392,
      "duration": 0.083,
      "velocity": 95,
      "chip": "ym2612"
    },
    {
      "channel": 1,
      "note": 100,
      "start": 12.6392,
      "duration": 0.083,
      "velocity": 95,
      "chip": "ym2612"
    },
    {
      "channel": 2,
      "note": 45,
      "start": 12.6428,
      "duration": 0.0969,
      "velocity": 1,
      "chip": "ym2612"
    },
    {
      "channel": 1,
      "note": 103,
      "start": 12.7392,
      "duration": 0.0998,
      "velocity": 95,
      "chip": "ym2612"
    },
    {
      "channel": 2,
      "note": 45,
      "start": 12.7428,
      "duration": 0.1139,
      "velocity": 1,
      "chip": "ym2612"
    },
    {
      "channel": 0,
      "note": 42,
      "start": 12.8556,
      "duration": 0.7829,
      "velocity": 99,
      "chip": "ym2612"
    },
    {
      "channel": 1,
      "note": 87,
      "start": 12.8561,
      "duration": 0.0828,
      "velocity": 95,
      "chip": "ym2612"
    },
    {
      "channel": 3,
      "note": 78,
      "start": 12.8588,
      "duration": 3.1804,
      "velocity": 103,
      "chip": "ym2612"
    },
    {
      "channel": 4,
      "note": 84,
      "start": 12.8593,
      "duration": 3.1802,
      "velocity": 103,
      "chip": "ym2612"
    },
    {
      "channel": 5,
      "note": 81,
      "start": 12.8597,
      "duration": 3.1798,
      "velocity": 103,
      "chip": "ym2612"
    },
    {
      "channel": 2,
      "note": 38,
      "start": 12.8608,
      "duration": 0.112,
      "velocity": 120,
      "chip": "ym2612"
    },
    {
      "channel": 1,
      "note": 78,
      "start": 12.9559,
      "duration": 0.083,
      "velocity": 95,
      "chip": "ym2612"
    },
    {
      "channel": 1,
      "note": 84,
      "start": 13.0559,
      "duration": 0.083,
      "velocity": 95,
      "chip": "ym2612"
    },
    {
      "channel": 2,
      "note": 45,
      "start": 13.0595,
      "duration": 0.0969,
      "velocity": 1,
      "chip": "ym2612"
    },
    {
      "channel": 1,
      "note": 81,
      "start": 13.1559,
      "duration": 0.083,
      "velocity": 95,
      "chip": "ym2612"
    },
    {
      "channel": 2,
      "note": 45,
      "start": 13.1594,
      "duration": 0.097,
      "velocity": 1,
      "chip": "ym2612"
    },
    {
      "channel": 1,
      "note": 87,
      "start": 13.2559,
      "duration": 0.083,
      "velocity": 95,
      "chip": "ym2612"
    },
    {
      "channel": 2,
      "note": 45,
      "start": 13.2595,
      "duration": 0.1969,
      "velocity": 1,
      "chip": "ym2612"
    },
    {
      "channel": 1,
      "note": 81,
      "start": 13.3559,
      "duration": 0.083,
      "velocity": 95,
      "chip": "ym2612"
    },
    {
      "channel": 1,
      "note": 84,
      "start": 13.4559,
      "duration": 0.083,
      "velocity": 95,
      "chip": "ym2612"
    },
    {
      "channel": 2,
      "note": 45,
      "start": 13.4595,
      "duration": 0.0969,
      "velocity": 1,
      "chip": "ym2612"
    },
    {
      "channel": 1,
      "note": 87,
      "start": 13.5559,
      "duration": 0.0831,
      "velocity": 95,
      "chip": "ym2612"
    },
    {
      "channel": 2,
      "note": 45,
      "start": 13.5594,
      "duration": 0.0972,
      "velocity": 1,
      "chip": "ym2612"
    },
    {
      "channel": 0,
      "note": 45,
      "start": 13.6556,
      "duration": 0.7829,
      "velocity": 99,
      "chip": "ym2612"
    },
    {
      "channel": 1,
      "note": 90,
      "start": 13.6561,
      "duration": 0.0828,
      "velocity": 95,
      "chip": "ym2612"
    },
    {
      "channel": 2,
      "note": 45,
      "start": 13.6598,
      "duration": 0.1967,
      "velocity": 1,
      "chip": "ym2612"
    },
    {
      "channel": 1,
      "note": 84,
      "start": 13.7559,
      "duration": 0.083,
      "velocity": 95,
      "chip": "ym2612"
    },
    {
      "channel": 1,
      "note": 87,
      "start": 13.8559,
      "duration": 0.083,
      "velocity": 95,
      "chip": "ym2612"
    },
    {
      "channel": 2,
      "note": 45,
      "start": 13.8595,
      "duration": 0.0969,
      "velocity": 1,
      "chip": "ym2612"
    },
    {
      "channel": 1,
      "note": 90,
      "start": 13.9559,
      "duration": 0.083,
      "velocity": 95,
      "chip": "ym2612"
    },
    {
      "channel": 2,
      "note": 45,
      "start": 13.9594,
      "duration": 0.097,
      "velocity": 1,
      "chip": "ym2612"
    },
    {
      "channel": 1,
      "note": 93,
      "start": 14.0559,
      "duration": 0.083,
      "velocity": 95,
      "chip": "ym2612"
    },
    {
      "channel": 2,
      "note": 45,
      "start": 14.0596,
      "duration": 0.1969,
      "velocity": 1,
      "chip": "ym2612"
    },
    {
      "channel": 1,
      "note": 87,
      "start": 14.1559,
      "duration": 0.083,
      "velocity": 95,
      "chip": "ym2612"
    },
    {
      "channel": 1,
      "note": 90,
      "start": 14.2559,
      "duration": 0.083,
      "velocity": 95,
      "chip": "ym2612"
    },
    {
      "channel": 2,
      "note": 45,
      "start": 14.2595,
      "duration": 0.0969,
      "velocity": 1,
      "chip": "ym2612"
    },
    {
      "channel": 1,
      "note": 93,
      "start": 14.3559,
      "duration": 0.0831,
      "velocity": 95,
      "chip": "ym2612"
    },
    {
      "channel": 2,
      "note": 45,
      "start": 14.3594,
      "duration": 0.0972,
      "velocity": 1,
      "chip": "ym2612"
    },
    {
      "channel": 0,
      "note": 46,
      "start": 14.4556,
      "duration": 0.7829,
      "velocity": 99,
      "chip": "ym2612"
    },
    {
      "channel": 1,
      "note": 96,
      "start": 14.4561,
      "duration": 0.0828,
      "velocity": 95,
      "chip": "ym2612"
    },
    {
      "channel": 2,
      "note": 45,
      "start": 14.4598,
      "duration": 0.1967,
      "velocity": 1,
      "chip": "ym2612"
    },
    {
      "channel": 1,
      "note": 87,
      "start": 14.5559,
      "duration": 0.083,
      "velocity": 95,
      "chip": "ym2612"
    },
    {
      "channel": 1,
      "note": 90,
      "start": 14.6559,
      "duration": 0.083,
      "velocity": 95,
      "chip": "ym2612"
    },
    {
      "channel": 2,
      "note": 45,
      "start": 14.6595,
      "duration": 0.0969,
      "velocity": 1,
      "chip": "ym2612"
    },
    {
      "channel": 1,
      "note": 93,
      "start": 14.7559,
      "duration": 0.083,
      "velocity": 95,
      "chip": "ym2612"
    },
    {
      "channel": 2,
      "note": 45,
      "start": 14.7594,
      "duration": 0.097,
      "velocity": 1,
      "chip": "ym2612"
    },
    {
      "channel": 1,
      "note": 96,
      "start": 14.8559,
      "duration": 0.083,
      "velocity": 95,
      "chip": "ym2612"
    },
    {
      "channel": 2,
      "note": 45,
      "start": 14.8596,
      "duration": 0.1969,
      "velocity": 1,
      "chip": "ym2612"
    },
    {
      "channel": 1,
      "note": 90,
      "start": 14.9559,
      "duration": 0.083,
      "velocity": 95,
      "chip": "ym2612"
    },
    {
      "channel": 1,
      "note": 93,
      "start": 15.0559,
      "duration": 0.083,
      "velocity": 95,
      "chip": "ym2612"
    },
    {
      "channel": 2,
      "note": 45,
      "start": 15.0595,
      "duration": 0.0969,
      "velocity": 1,
      "chip": "ym2612"
    },
    {
      "channel": 1,
      "note": 96,
      "start": 15.1559,
      "duration": 0.0831,
      "velocity": 95,
      "chip": "ym2612"
    },
    {
      "channel": 2,
      "note": 45,
      "start": 15.1594,
      "duration": 0.0972,
      "velocity": 1,
      "chip": "ym2612"
    },
    {
      "channel": 0,
      "note": 43,
      "start": 15.2556,
      "duration": 0.7829,
      "velocity": 99,
      "chip": "ym2612"
    },
    {
      "channel": 1,
      "note": 99,
      "start": 15.2561,
      "duration": 0.0828,
      "velocity": 95,
      "chip": "ym2612"
    },
    {
      "channel": 2,
      "note": 45,
      "start": 15.2598,
      "duration": 0.1967,
      "velocity": 1,
      "chip": "ym2612"
    },
    {
      "channel": 1,
      "note": 93,
      "start": 15.3559,
      "duration": 0.083,
      "velocity": 95,
      "chip": "ym2612"
    },
    {
      "channel": 1,
      "note": 96,
      "start": 15.4559,
      "duration": 0.083,
      "velocity": 95,
      "chip": "ym2612"
    },
    {
      "channel": 2,
      "note": 45,
      "start": 15.4595,
      "duration": 0.0969,
      "velocity": 1,
      "chip": "ym2612"
    },
    {
      "channel": 1,
      "note": 99,
      "start": 15.5559,
      "duration": 0.083,
      "velocity": 95,
      "chip": "ym2612"
    },
    {
      "channel": 2,
      "note": 45,
      "start": 15.5594,
      "duration": 0.097,
      "velocity": 1,
      "chip": "ym2612"
    },
    {
      "channel": 1,
      "note": 102,
      "start": 15.6559,
      "duration": 0.083,
      "velocity": 95,
      "chip": "ym2612"
    },
    {
      "channel": 2,
      "note": 45,
      "start": 15.6596,
      "duration": 0.1969,
      "velocity": 1,
      "chip": "ym2612"
    },
    {
      "channel": 1,
      "note": 96,
      "start": 15.7559,
      "duration": 0.083,
      "velocity": 95,
      "chip": "ym2612"
    },
    {
      "channel": 1,
      "note": 99,
      "start": 15.8559,
      "duration": 0.083,
      "velocity": 95,
      "chip": "ym2612"
    },
    {
      "channel": 2,
      "note": 45,
      "start": 15.8595,
      "duration": 0.0969,
      "velocity": 1,
      "chip": "ym2612"
    },
    {
      "channel": 1,
      "note": 102,
      "start": 15.9559,
      "duration": 0.0831,
      "velocity": 95,
      "chip": "ym2612"
    },
    {
      "channel": 2,
      "note": 45,
      "start": 15.9594,
      "duration": 0.0972,
      "velocity": 1,
      "chip": "ym2612"
    },
    {
      "channel": 0,
      "note": 40,
      "start": 16.0556,
      "duration": 0.7829,
      "velocity": 99,
      "chip": "ym2612"
    },
    {
      "channel": 1,
      "note": 82,
      "start": 16.0561,
      "duration": 0.0828,
      "velocity": 95,
      "chip": "ym2612"
    },
    {
      "channel": 3,
      "note": 82,
      "start": 16.0588,
      "duration": 3.1971,
      "velocity": 103,
      "chip": "ym2612"
    },
    {
      "channel": 4,
      "note": 79,
      "start": 16.0593,
      "duration": 3.1968,
      "velocity": 103,
      "chip": "ym2612"
    },
    {
      "channel": 5,
      "note": 76,
      "start": 16.0597,
      "duration": 3.1965,
      "velocity": 103,
      "chip": "ym2612"
    },
    {
      "channel": 2,
      "note": 38,
      "start": 16.0608,
      "duration": 0.112,
      "velocity": 120,
      "chip": "ym2612"
    },
    {
      "channel": 1,
      "note": 85,
      "start": 16.1559,
      "duration": 0.083,
      "velocity": 95,
      "chip": "ym2612"
    },
    {
      "channel": 1,
      "note": 88,
      "start": 16.2559,
      "duration": 0.083,
      "velocity": 95,
      "chip": "ym2612"
    },
    {
      "channel": 2,
      "note": 45,
      "start": 16.2595,
      "duration": 0.0969,
      "velocity": 1,
      "chip": "ym2612"
    },
    {
      "channel": 1,
      "note": 91,
      "start": 16.3559,
      "duration": 0.083,
      "velocity": 95,
      "chip": "ym2612"
    },
    {
      "channel": 2,
      "note": 45,
      "start": 16.3594,
      "duration": 0.097,
      "velocity": 1,
      "chip": "ym2612"
    },
    {
      "channel": 1,
      "note": 85,
      "start": 16.4559,
      "duration": 0.083,
      "velocity": 95,
      "chip": "ym2612"
    },
    {
      "channel": 2,
      "note": 45,
      "start": 16.4595,
      "duration": 0.1969,
      "velocity": 1,
      "chip": "ym2612"
    },
    {
      "channel": 1,
      "note": 88,
      "start": 16.5559,
      "duration": 0.083,
      "velocity": 95,
      "chip": "ym2612"
    },
    {
      "channel": 1,
      "note": 91,
      "start": 16.6559,
      "duration": 0.083,
      "velocity": 95,
      "chip": "ym2612"
    },
    {
      "channel": 2,
      "note": 45,
      "start": 16.6595,
      "duration": 0.0969,
      "velocity": 1,
      "chip": "ym2612"
    },
    {
      "channel": 1,
      "note": 94,
      "start": 16.7559,
      "duration": 0.0831,
      "velocity": 95,
      "chip": "ym2612"
    },
    {
      "channel": 2,
      "note": 45,
      "start": 16.7594,
      "duration": 0.0972,
      "velocity": 1,
      "chip": "ym2612"
    },
    {
      "channel": 0,
      "note": 37,
      "start": 16.8556,
      "duration": 0.7996,
      "velocity": 99,
      "chip": "ym2612"
    },
    {
      "channel": 1,
      "note": 85,
      "start": 16.8561,
      "duration": 0.0828,
      "velocity": 95,
      "chip": "ym2612"
    },
    {
      "channel": 2,
      "note": 45,
      "start": 16.8598,
      "duration": 0.2133,
      "velocity": 1,
      "chip": "ym2612"
    },
    {
      "channel": 1,
      "note": 88,
      "start": 16.9559,
      "duration": 0.0998,
      "velocity": 95,
      "chip": "ym2612"
    },
    {
      "channel": 1,
      "note": 91,
      "start": 17.0725,
      "duration": 0.0831,
      "velocity": 95,
      "chip": "ym2612"
    },
    {
      "channel": 2,
      "note": 45,
      "start": 17.0761,
      "duration": 0.097,
      "velocity": 1,
      "chip": "ym2612"
    },
    {
      "channel": 1,
      "note": 94,
      "start": 17.1725,
      "duration": 0.0831,
      "velocity": 95,
      "chip": "ym2612"
    },
    {
      "channel": 2,
      "note": 45,
      "start": 17.1761,
      "duration": 0.097,
      "velocity": 1,
      "chip": "ym2612"
    },
    {
      "channel": 1,
      "note": 88,
      "start": 17.2725,
      "duration": 0.0831,
      "velocity": 95,
      "chip": "ym2612"
    },
    {
      "channel": 2,
      "note": 45,
      "start": 17.2762,
      "duration": 0.1969,
      "velocity": 1,
      "chip": "ym2612"
    },
    {
      "channel": 1,
      "note": 91,
      "start": 17.3725,
      "duration": 0.0831,
      "velocity": 95,
      "chip": "ym2612"
    },
    {
      "channel": 1,
      "note": 94,
      "start": 17.4725,
      "duration": 0.0831,
      "velocity": 95,
      "chip": "ym2612"
    },
    {
      "channel": 2,
      "note": 45,
      "start": 17.4761,
      "duration": 0.097,
      "velocity": 1,
      "chip": "ym2612"
    },
    {
      "channel": 1,
      "note": 97,
      "start": 17.5725,
      "duration": 0.0832,
      "velocity": 95,
      "chip": "ym2612"
    },
    {
      "channel": 2,
      "note": 45,
      "start": 17.5761,
      "duration": 0.0972,
      "velocity": 1,
      "chip": "ym2612"
    },
    {
      "channel": 0,
      "note": 36,
      "start": 17.6723,
      "duration": 0.7829,
      "velocity": 99,
      "chip": "ym2612"
    },
    {
      "channel": 1,
      "note": 100,
      "start": 17.6727,
      "duration": 0.0828,
      "velocity": 95,
      "chip": "ym2612"
    },
    {
      "channel": 2,
      "note": 45,
      "start": 17.6764,
      "duration": 0.1967,
      "velocity": 1,
      "chip": "ym2612"
    },
    {
      "channel": 1,
      "note": 91,
      "start": 17.7725,
      "duration": 0.083,
      "velocity": 95,
      "chip": "ym2612"
    },
    {
      "channel": 1,
      "note": 94,
      "start": 17.8725,
      "duration": 0.083,
      "velocity": 95,
      "chip": "ym2612"
    },
    {
      "channel": 2,
      "note": 45,
      "start": 17.8762,
      "duration": 0.0969,
      "velocity": 1,
      "chip": "ym2612"
    },
    {
      "channel": 1,
      "note": 97,
      "start": 17.9725,
      "duration": 0.083,
      "velocity": 95,
      "chip": "ym2612"
    },
    {
      "channel": 2,
      "note": 45,
      "start": 17.9761,
      "duration": 0.097,
      "velocity": 1,
      "chip": "ym2612"
    },
    {
      "channel": 1,
      "note": 100,
      "start": 18.0725,
      "duration": 0.083,
      "velocity": 95,
      "chip": "ym2612"
    },
    {
      "channel": 2,
      "note": 45,
      "start": 18.0762,
      "duration": 0.1969,
      "velocity": 1,
      "chip": "ym2612"
    },
    {
      "channel": 1,
      "note": 91,
      "start": 18.1725,
      "duration": 0.083,
      "velocity": 95,
      "chip": "ym2612"
    },
    {
      "channel": 1,
      "note": 94,
      "start": 18.2725,
      "duration": 0.083,
      "velocity": 95,
      "chip": "ym2612"
    },
    {
      "channel": 2,
      "note": 45,
      "start": 18.2762,
      "duration": 0.0969,
      "velocity": 1,
      "chip": "ym2612"
    },
    {
      "channel": 1,
      "note": 97,
      "start": 18.3725,
      "duration": 0.0831,
      "velocity": 95,
      "chip": "ym2612"
    },
    {
      "channel": 2,
      "note": 45,
      "start": 18.3761,
      "duration": 0.0972,
      "velocity": 1,
      "chip": "ym2612"
    },
    {
      "channel": 0,
      "note": 39,
      "start": 18.4723,
      "duration": 0.7829,
      "velocity": 99,
      "chip": "ym2612"
    },
    {
      "channel": 1,
      "note": 103,
      "start": 18.4727,
      "duration": 0.0828,
      "velocity": 95,
      "chip": "ym2612"
    },
    {
      "channel": 2,
      "note": 45,
      "start": 18.4764,
      "duration": 0.1967,
      "velocity": 1,
      "chip": "ym2612"
    },
    {
      "channel": 1,
      "note": 94,
      "start": 18.5725,
      "duration": 0.083,
      "velocity": 95,
      "chip": "ym2612"
    },
    {
      "channel": 1,
      "note": 97,
      "start": 18.6725,
      "duration": 0.083,
      "velocity": 95,
      "chip": "ym2612"
    },
    {
      "channel": 2,
      "note": 45,
      "start": 18.6762,
      "duration": 0.0969,
      "velocity": 1,
      "chip": "ym2612"
    },
    {
      "channel": 1,
      "note": 100,
      "start": 18.7725,
      "duration": 0.083,
      "velocity": 95,
      "chip": "ym2612"
    },
    {
      "channel": 2,
      "note": 45,
      "start": 18.7761,
      "duration": 0.097,
      "velocity": 1,
      "chip": "ym2612"
    },
    {
      "channel": 1,
      "note": 103,
      "start": 18.8725,
      "duration": 0.083,
      "velocity": 95,
      "chip": "ym2612"
    },
    {
      "channel": 2,
      "note": 45,
      "start": 18.8762,
      "duration": 0.1969,
      "velocity": 1,
      "chip": "ym2612"
    },
    {
      "channel": 1,
      "note": 94,
      "start": 18.9725,
      "duration": 0.083,
      "velocity": 95,
      "chip": "ym2612"
    },
    {
      "channel": 1,
      "note": 97,
      "start": 19.0725,
      "duration": 0.083,
      "velocity": 95,
      "chip": "ym2612"
    },
    {
      "channel": 2,
      "note": 45,
      "start": 19.0762,
      "duration": 0.0969,
      "velocity": 1,
      "chip": "ym2612"
    },
    {
      "channel": 1,
      "note": 100,
      "start": 19.1725,
      "duration": 0.0831,
      "velocity": 95,
      "chip": "ym2612"
    },
    {
      "channel": 2,
      "note": 45,
      "start": 19.1761,
      "duration": 0.0972,
      "velocity": 1,
      "chip": "ym2612"
    },
    {
      "channel": 0,
      "note": 42,
      "start": 19.2723,
      "duration": 0.7829,
      "velocity": 99,
      "chip": "ym2612"
    },
    {
      "channel": 1,
      "note": 81,
      "start": 19.2727,
      "duration": 0.0828,
      "velocity": 95,
      "chip": "ym2612"
    },
    {
      "channel": 3,
      "note": 78,
      "start": 19.2755,
      "duration": 3.1971,
      "velocity": 103,
      "chip": "ym2612"
    },
    {
      "channel": 4,
      "note": 75,
      "start": 19.2759,
      "duration": 3.1968,
      "velocity": 103,
      "chip": "ym2612"
    },
    {
      "channel": 5,
      "note": 84,
      "start": 19.2764,
      "duration": 3.1965,
      "velocity": 103,
      "chip": "ym2612"
    },
    {
      "channel": 2,
      "note": 38,
      "start": 19.2774,
      "duration": 0.112,
      "velocity": 120,
      "chip": "ym2612"
    },
    {
      "channel": 1,
      "note": 84,
      "start": 19.3725,
      "duration": 0.083,
      "velocity": 95,
      "chip": "ym2612"
    },
    {
      "channel": 1,
      "note": 87,
      "start": 19.4725,
      "duration": 0.083,
      "velocity": 95,
      "chip": "ym2612"
    },
    {
      "channel": 2,
      "note": 45,
      "start": 19.4762,
      "duration": 0.0969,
      "velocity": 1,
      "chip": "ym2612"
    },
    {
      "channel": 1,
      "note": 90,
      "start": 19.5725,
      "duration": 0.083,
      "velocity": 95,
      "chip": "ym2612"
    },
    {
      "channel": 2,
      "note": 45,
      "start": 19.5761,
      "duration": 0.097,
      "velocity": 1,
      "chip": "ym2612"
    },
    {
      "channel": 1,
      "note": 84,
      "start": 19.6725,
      "duration": 0.083,
      "velocity": 95,
      "chip": "ym2612"
    },
    {
      "channel": 2,
      "note": 45,
      "start": 19.6762,
      "duration": 0.1969,
      "velocity": 1,
      "chip": "ym2612"
    },
    {
      "channel": 1,
      "note": 87,
      "start": 19.7725,
      "duration": 0.083,
      "velocity": 95,
      "chip": "ym2612"
    },
    {
      "channel": 1,
      "note": 90,
      "start": 19.8725,
      "duration": 0.083,
      "velocity": 95,
      "chip": "ym2612"
    },
    {
      "channel": 2,
      "note": 45,
      "start": 19.8762,
      "duration": 0.0969,
      "velocity": 1,
      "chip": "ym2612"
    },
    {
      "channel": 1,
      "note": 93,
      "start": 19.9725,
      "duration": 0.0831,
      "velocity": 95,
      "chip": "ym2612"
    },
    {
      "channel": 2,
      "note": 45,
      "start": 19.9761,
      "duration": 0.0972,
      "velocity": 1,
      "chip": "ym2612"
    },
    {
      "channel": 0,
      "note": 45,
      "start": 20.0723,
      "duration": 0.7829,
      "velocity": 99,
      "chip": "ym2612"
    },
    {
      "channel": 1,
      "note": 87,
      "start": 20.0727,
      "duration": 0.0828,
      "velocity": 95,
      "chip": "ym2612"
    },
    {
      "channel": 2,
      "note": 45,
      "start": 20.0764,
      "duration": 0.1967,
      "velocity": 1,
      "chip": "ym2612"
    },
    {
      "channel": 1,
      "note": 90,
      "start": 20.1725,
      "duration": 0.083,
      "velocity": 95,
      "chip": "ym2612"
    },
    {
      "channel": 1,
      "note": 93,
      "start": 20.2725,
      "duration": 0.083,
      "velocity": 95,
      "chip": "ym2612"
    },
    {
      "channel": 2,
      "note": 45,
      "start": 20.2762,
      "duration": 0.0969,
      "velocity": 1,
      "chip": "ym2612"
    },
    {
      "channel": 1,
      "note": 96,
      "start": 20.3725,
      "duration": 0.083,
      "velocity": 95,
      "chip": "ym2612"
    },
    {
      "channel": 2,
      "note": 45,
      "start": 20.3761,
      "duration": 0.097,
      "velocity": 1,
      "chip": "ym2612"
    },
    {
      "channel": 1,
      "note": 87,
      "start": 20.4725,
      "duration": 0.083,
      "velocity": 95,
      "chip": "ym2612"
    },
    {
      "channel": 2,
      "note": 45,
      "start": 20.4762,
      "duration": 0.1969,
      "velocity": 1,
      "chip": "ym2612"
    },
    {
      "channel": 1,
      "note": 90,
      "start": 20.5725,
      "duration": 0.083,
      "velocity": 95,
      "chip": "ym2612"
    },
    {
      "channel": 1,
      "note": 93,
      "start": 20.6725,
      "duration": 0.083,
      "velocity": 95,
      "chip": "ym2612"
    },
    {
      "channel": 2,
      "note": 45,
      "start": 20.6762,
      "duration": 0.0969,
      "velocity": 1,
      "chip": "ym2612"
    },
    {
      "channel": 1,
      "note": 96,
      "start": 20.7725,
      "duration": 0.0831,
      "velocity": 95,
      "chip": "ym2612"
    },
    {
      "channel": 2,
      "note": 45,
      "start": 20.7761,
      "duration": 0.0972,
      "velocity": 1,
      "chip": "ym2612"
    },
    {
      "channel": 0,
      "note": 45,
      "start": 20.8723,
      "duration": 0.7996,
      "velocity": 99,
      "chip": "ym2612"
    },
    {
      "channel": 1,
      "note": 87,
      "start": 20.8727,
      "duration": 0.0828,
      "velocity": 95,
      "chip": "ym2612"
    },
    {
      "channel": 2,
      "note": 45,
      "start": 20.8764,
      "duration": 0.1967,
      "velocity": 1,
      "chip": "ym2612"
    },
    {
      "channel": 1,
      "note": 90,
      "start": 20.9725,
      "duration": 0.083,
      "velocity": 95,
      "chip": "ym2612"
    },
    {
      "channel": 1,
      "note": 93,
      "start": 21.0725,
      "duration": 0.083,
      "velocity": 95,
      "chip": "ym2612"
    },
    {
      "channel": 2,
      "note": 45,
      "start": 21.0762,
      "duration": 0.0969,
      "velocity": 1,
      "chip": "ym2612"
    },
    {
      "channel": 1,
      "note": 96,
      "start": 21.1725,
      "duration": 0.0998,
      "velocity": 95,
      "chip": "ym2612"
    },
    {
      "channel": 2,
      "note": 45,
      "start": 21.1761,
      "duration": 0.1136,
      "velocity": 1,
      "chip": "ym2612"
    },
    {
      "channel": 1,
      "note": 90,
      "start": 21.2892,
      "duration": 0.0831,
      "velocity": 95,
      "chip": "ym2612"
    },
    {
      "channel": 2,
      "note": 45,
      "start": 21.2928,
      "duration": 0.1969,
      "velocity": 1,
      "chip": "ym2612"
    },
    {
      "channel": 1,
      "note": 93,
      "start": 21.3892,
      "duration": 0.0831,
      "velocity": 95,
      "chip": "ym2612"
    },
    {
      "channel": 1,
      "note": 96,
      "start": 21.4892,
      "duration": 0.0831,
      "velocity": 95,
      "chip": "ym2612"
    },
    {
      "channel": 2,
      "note": 45,
      "start": 21.4928,
      "duration": 0.097,
      "velocity": 1,
      "chip": "ym2612"
    },
    {
      "channel": 1,
      "note": 99,
      "start": 21.5892,
      "duration": 0.0832,
      "velocity": 95,
      "chip": "ym2612"
    },
    {
      "channel": 2,
      "note": 45,
      "start": 21.5928,
      "duration": 0.0972,
      "velocity": 1,
      "chip": "ym2612"
    },
    {
      "channel": 0,
      "note": 41,
      "start": 21.689,
      "duration": 0.7829,
      "velocity": 99,
      "chip": "ym2612"
    },
    {
      "channel": 1,
      "note": 93,
      "start": 21.6894,
      "duration": 0.0828,
      "velocity": 95,
      "chip": "ym2612"
    },
    {
      "channel": 2,
      "note": 45,
      "start": 21.6931,
      "duration": 0.1967,
      "velocity": 1,
      "chip": "ym2612"
    },
    {
      "channel": 1,
      "note": 96,
      "start": 21.7892,
      "duration": 0.083,
      "velocity": 95,
      "chip": "ym2612"
    },
    {
      "channel": 1,
      "note": 99,
      "start": 21.8892,
      "duration": 0.083,
      "velocity": 95,
      "chip": "ym2612"
    },
    {
      "channel": 2,
      "note": 45,
      "start": 21.8928,
      "duration": 0.0969,
      "velocity": 1,
      "chip": "ym2612"
    },
    {
      "channel": 1,
      "note": 102,
      "start": 21.9892,
      "duration": 0.083,
      "velocity": 95,
      "chip": "ym2612"
    },
    {
      "channel": 2,
      "note": 45,
      "start": 21.9928,
      "duration": 0.097,
      "velocity": 1,
      "chip": "ym2612"
    },
    {
      "channel": 1,
      "note": 96,
      "start": 22.0892,
      "duration": 0.083,
      "velocity": 95,
      "chip": "ym2612"
    },
    {
      "channel": 2,
      "note": 45,
      "start": 22.0929,
      "duration": 0.1969,
      "velocity": 1,
      "chip": "ym2612"
    },
    {
      "channel": 1,
      "note": 99,
      "start": 22.1892,
      "duration": 0.083,
      "velocity": 95,
      "chip": "ym2612"
    },
    {
      "channel": 1,
      "note": 102,
      "start": 22.2892,
      "duration": 0.083,
      "velocity": 95,
      "chip": "ym2612"
    },
    {
      "channel": 2,
      "note": 45,
      "start": 22.2928,
      "duration": 0.0969,
      "velocity": 1,
      "chip": "ym2612"
    },
    {
      "channel": 1,
      "note": 105,
      "start": 22.3892,
      "duration": 0.0831,
      "velocity": 95,
      "chip": "ym2612"
    },
    {
      "channel": 2,
      "note": 45,
      "start": 22.3928,
      "duration": 0.0972,
      "velocity": 1,
      "chip": "ym2612"
    },
    {
      "channel": 0,
      "note": 38,
      "start": 22.489,
      "duration": 0.7829,
      "velocity": 99,
      "chip": "ym2612"
    },
    {
      "channel": 1,
      "note": 77,
      "start": 22.4894,
      "duration": 0.0828,
      "velocity": 95,
      "chip": "ym2612"
    },
    {
      "channel": 3,
      "note": 80,
      "start": 22.4921,
      "duration": 3.1971,
      "velocity": 103,
      "chip": "ym2612"
    },
    {
      "channel": 4,
      "note": 77,
      "start": 22.4926,
      "duration": 3.1968,
      "velocity": 103,
      "chip": "ym2612"
    },
    {
      "channel": 5,
      "note": 74,
      "start": 22.493,
      "duration": 3.1966,
      "velocity": 103,
      "chip": "ym2612"
    },
    {
      "channel": 2,
      "note": 38,
      "start": 22.4941,
      "duration": 0.112,
      "velocity": 120,
      "chip": "ym2612"
    },
    {
      "channel": 1,
      "note": 80,
      "start": 22.5892,
      "duration": 0.083,
      "velocity": 95,
      "chip": "ym2612"
    },
    {
      "channel": 1,
      "note": 83,
      "start": 22.6892,
      "duration": 0.083,
      "velocity": 95,
      "chip": "ym2612"
    },
    {
      "channel": 2,
      "note": 45,
      "start": 22.6928,
      "duration": 0.0969,
      "velocity": 1,
      "chip": "ym2612"
    },
    {
      "channel": 1,
      "note": 86,
      "start": 22.7892,
      "duration": 0.083,
      "velocity": 95,
      "chip": "ym2612"
    },
    {
      "channel": 2,
      "note": 45,
      "start": 22.7928,
      "duration": 0.097,
      "velocity": 1,
      "chip": "ym2612"
    },
    {
      "channel": 1,
      "note": 80,
      "start": 22.8892,
      "duration": 0.083,
      "velocity": 95,
      "chip": "ym2612"
    },
    {
      "channel": 2,
      "note": 45,
      "start": 22.8928,
      "duration": 0.1969,
      "velocity": 1,
      "chip": "ym2612"
    },
    {
      "channel": 1,
      "note": 83,
      "start": 22.9892,
      "duration": 0.083,
      "velocity": 95,
      "chip": "ym2612"
    },
    {
      "channel": 1,
      "note": 86,
      "start": 23.0892,
      "duration": 0.083,
      "velocity": 95,
      "chip": "ym2612"
    },
    {
      "channel": 2,
      "note": 45,
      "start": 23.0928,
      "duration": 0.0969,
      "velocity": 1,
      "chip": "ym2612"
    },
    {
      "channel": 1,
      "note": 89,
      "start": 23.1892,
      "duration": 0.0831,
      "velocity": 95,
      "chip": "ym2612"
    },
    {
      "channel": 2,
      "note": 45,
      "start": 23.1928,
      "duration": 0.0972,
      "velocity": 1,
      "chip": "ym2612"
    },
    {
      "channel": 0,
      "note": 0,
      "start": 23.289,
      "duration": 0.7829,
      "velocity": 99,
      "chip": "ym2612"
    },
    {
      "channel": 1,
      "note": 80,
      "start": 23.2894,
      "duration": 0.0828,
      "velocity": 95,
      "chip": "ym2612"
    },
    {
      "channel": 2,
      "note": 45,
      "start": 23.2931,
      "duration": 0.1967,
      "velocity": 1,
      "chip": "ym2612"
    },
    {
      "channel": 1,
      "note": 83,
      "start": 23.3892,
      "duration": 0.083,
      "velocity": 95,
      "chip": "ym2612"
    },
    {
      "channel": 1,
      "note": 86,
      "start": 23.4892,
      "duration": 0.083,
      "velocity": 95,
      "chip": "ym2612"
    },
    {
      "channel": 2,
      "note": 45,
      "start": 23.4928,
      "duration": 0.0969,
      "velocity": 1,
      "chip": "ym2612"
    },
    {
      "channel": 1,
      "note": 89,
      "start": 23.5892,
      "duration": 0.083,
      "velocity": 95,
      "chip": "ym2612"
    },
    {
      "channel": 2,
      "note": 45,
      "start": 23.5928,
      "duration": 0.097,
      "velocity": 1,
      "chip": "ym2612"
    },
    {
      "channel": 1,
      "note": 83,
      "start": 23.6892,
      "duration": 0.083,
      "velocity": 95,
      "chip": "ym2612"
    },
    {
      "channel": 2,
      "note": 45,
      "start": 23.6929,
      "duration": 0.1969,
      "velocity": 1,
      "chip": "ym2612"
    },
    {
      "channel": 1,
      "note": 86,
      "start": 23.7892,
      "duration": 0.083,
      "velocity": 95,
      "chip": "ym2612"
    },
    {
      "channel": 1,
      "note": 89,
      "start": 23.8892,
      "duration": 0.083,
      "velocity": 95,
      "chip": "ym2612"
    },
    {
      "channel": 2,
      "note": 45,
      "start": 23.8928,
      "duration": 0.0969,
      "velocity": 1,
      "chip": "ym2612"
    },
    {
      "channel": 1,
      "note": 92,
      "start": 23.9892,
      "duration": 0.0831,
      "velocity": 95,
      "chip": "ym2612"
    },
    {
      "channel": 2,
      "note": 45,
      "start": 23.9928,
      "duration": 0.0972,
      "velocity": 1,
      "chip": "ym2612"
    },
    {
      "channel": 0,
      "note": 0,
      "start": 24.089,
      "duration": 0.7829,
      "velocity": 99,
      "chip": "ym2612"
    },
    {
      "channel": 1,
      "note": 95,
      "start": 24.0894,
      "duration": 0.0828,
      "velocity": 95,
      "chip": "ym2612"
    },
    {
      "channel": 2,
      "note": 45,
      "start": 24.0931,
      "duration": 0.1967,
      "velocity": 1,
      "chip": "ym2612"
    },
    {
      "channel": 1,
      "note": 86,
      "start": 24.1892,
      "duration": 0.083,
      "velocity": 95,
      "chip": "ym2612"
    },
    {
      "channel": 1,
      "note": 89,
      "start": 24.2892,
      "duration": 0.083,
      "velocity": 95,
      "chip": "ym2612"
    },
    {
      "channel": 2,
      "note": 45,
      "start": 24.2928,
      "duration": 0.0969,
      "velocity": 1,
      "chip": "ym2612"
    },
    {
      "channel": 1,
      "note": 92,
      "start": 24.3892,
      "duration": 0.083,
      "velocity": 95,
      "chip": "ym2612"
    },
    {
      "channel": 2,
      "note": 45,
      "start": 24.3928,
      "duration": 0.097,
      "velocity": 1,
      "chip": "ym2612"
    },
    {
      "channel": 1,
      "note": 95,
      "start": 24.4892,
      "duration": 0.083,
      "velocity": 95,
      "chip": "ym2612"
    },
    {
      "channel": 2,
      "note": 45,
      "start": 24.4929,
      "duration": 0.1969,
      "velocity": 1,
      "chip": "ym2612"
    },
    {
      "channel": 1,
      "note": 86,
      "start": 24.5892,
      "duration": 0.083,
      "velocity": 95,
      "chip": "ym2612"
    },
    {
      "channel": 1,
      "note": 89,
      "start": 24.6892,
      "duration": 0.083,
      "velocity": 95,
      "chip": "ym2612"
    },
    {
      "channel": 2,
      "note": 45,
      "start": 24.6928,
      "duration": 0.0969,
      "velocity": 1,
      "chip": "ym2612"
    },
    {
      "channel": 1,
      "note": 92,
      "start": 24.7892,
      "duration": 0.0831,
      "velocity": 95,
      "chip": "ym2612"
    },
    {
      "channel": 2,
      "note": 45,
      "start": 24.7928,
      "duration": 0.0972,
      "velocity": 1,
      "chip": "ym2612"
    },
    {
      "channel": 0,
      "note": 37,
      "start": 24.889,
      "duration": 0.7996,
      "velocity": 99,
      "chip": "ym2612"
    },
    {
      "channel": 1,
      "note": 98,
      "start": 24.8894,
      "duration": 0.0828,
      "velocity": 95,
      "chip": "ym2612"
    },
    {
      "channel": 2,
      "note": 45,
      "start": 24.8931,
      "duration": 0.1967,
      "velocity": 1,
      "chip": "ym2612"
    },
    {
      "channel": 1,
      "note": 89,
      "start": 24.9892,
      "duration": 0.083,
      "velocity": 95,
      "chip": "ym2612"
    },
    {
      "channel": 1,
      "note": 92,
      "start": 25.0892,
      "duration": 0.083,
      "velocity": 95,
      "chip": "ym2612"
    },
    {
      "channel": 2,
      "note": 45,
      "start": 25.0928,
      "duration": 0.0969,
      "velocity": 1,
      "chip": "ym2612"
    },
    {
      "channel": 1,
      "note": 95,
      "start": 25.1892,
      "duration": 0.083,
      "velocity": 95,
      "chip": "ym2612"
    },
    {
      "channel": 2,
      "note": 45,
      "start": 25.1928,
      "duration": 0.097,
      "velocity": 1,
      "chip": "ym2612"
    },
    {
      "channel": 1,
      "note": 98,
      "start": 25.2892,
      "duration": 0.083,
      "velocity": 95,
      "chip": "ym2612"
    },
    {
      "channel": 2,
      "note": 45,
      "start": 25.2929,
      "duration": 0.1969,
      "velocity": 1,
      "chip": "ym2612"
    },
    {
      "channel": 1,
      "note": 92,
      "start": 25.3892,
      "duration": 0.083,
      "velocity": 95,
      "chip": "ym2612"
    },
    {
      "channel": 1,
      "note": 95,
      "start": 25.4892,
      "duration": 0.0998,
      "velocity": 95,
      "chip": "ym2612"
    },
    {
      "channel": 2,
      "note": 45,
      "start": 25.4928,
      "duration": 0.1136,
      "velocity": 1,
      "chip": "ym2612"
    },
    {
      "channel": 1,
      "note": 98,
      "start": 25.6059,
      "duration": 0.0832,
      "velocity": 95,
      "chip": "ym2612"
    },
    {
      "channel": 2,
      "note": 45,
      "start": 25.6094,
      "duration": 0.0972,
      "velocity": 1,
      "chip": "ym2612"
    },
    {
      "channel": 0,
      "note": 40,
      "start": 25.7056,
      "duration": 0.7829,
      "velocity": 99,
      "chip": "ym2612"
    },
    {
      "channel": 1,
      "note": 93,
      "start": 25.7061,
      "duration": 0.0828,
      "velocity": 95,
      "chip": "ym2612"
    },
    {
      "channel": 3,
      "note": 72,
      "start": 25.7088,
      "duration": 0.4803,
      "velocity": 103,
      "chip": "ym2612"
    },
    {
      "channel": 4,
      "note": 75,
      "start": 25.7093,
      "duration": 0.48,
      "velocity": 103,
      "chip": "ym2612"
    },
    {
      "channel": 5,
      "note": 78,
      "start": 25.7098,
      "duration": 0.4797,
      "velocity": 103,
      "chip": "ym2612"
    },
    {
      "channel": 2,
      "note": 38,
      "start": 25.7108,
      "duration": 0.112,
      "velocity": 120,
      "chip": "ym2612"
    },
    {
      "channel": 1,
      "note": 84,
      "start": 25.8059,
      "duration": 0.083,
      "velocity": 95,
      "chip": "ym2612"
    },
    {
      "channel": 1,
      "note": 87,
      "start": 25.9059,
      "duration": 0.083,
      "velocity": 95,
      "chip": "ym2612"
    },
    {
      "channel": 2,
      "note": 45,
      "start": 25.9095,
      "duration": 0.0969,
      "velocity": 1,
      "chip": "ym2612"
    },
    {
      "channel": 1,
      "note": 90,
      "start": 26.0059,
      "duration": 0.083,
      "velocity": 95,
      "chip": "ym2612"
    },
    {
      "channel": 2,
      "note": 45,
      "start": 26.0094,
      "duration": 0.097,
      "velocity": 1,
      "chip": "ym2612"
    },
    {
      "channel": 1,
      "note": 93,
      "start": 26.1059,
      "duration": 0.083,
      "velocity": 95,
      "chip": "ym2612"
    },
    {
      "channel": 2,
      "note": 45,
      "start": 26.1095,
      "duration": 0.1969,
      "velocity": 1,
      "chip": "ym2612"
    },
    {
      "channel": 1,
      "note": 87,
      "start": 26.2059,
      "duration": 0.083,
      "velocity": 95,
      "chip": "ym2612"
    },
    {
      "channel": 1,
      "note": 90,
      "start": 26.3059,
      "duration": 0.083,
      "velocity": 95,
      "chip": "ym2612"
    },
    {
      "channel": 2,
      "note": 45,
      "start": 26.3095,
      "duration": 0.0969,
      "velocity": 1,
      "chip": "ym2612"
    },
    {
      "channel": 1,
      "note": 93,
      "start": 26.4059,
      "duration": 0.0831,
      "velocity": 95,
      "chip": "ym2612"
    },
    {
      "channel": 2,
      "note": 45,
      "start": 26.4094,
      "duration": 0.0972,
      "velocity": 1,
      "chip": "ym2612"
    },
    {
      "channel": 0,
      "note": 43,
      "start": 26.5056,
      "duration": 0.7829,
      "velocity": 99,
      "chip": "ym2612"
    },
    {
      "channel": 1,
      "note": 96,
      "start": 26.5061,
      "duration": 0.0828,
      "velocity": 95,
      "chip": "ym2612"
    },
    {
      "channel": 3,
      "note": 87,
      "start": 26.5088,
      "duration": 0.3803,
      "velocity": 103,
      "chip": "ym2612"
    },
    {
      "channel": 4,
      "note": 84,
      "start": 26.5093,
      "duration": 0.38,
      "velocity": 103,
      "chip": "ym2612"
    },
    {
      "channel": 5,
      "note": 78,
      "start": 26.5098,
      "duration": 0.3797,
      "velocity": 103,
      "chip": "ym2612"
    },
    {
      "channel": 2,
      "note": 45,
      "start": 26.5108,
      "duration": 0.1956,
      "velocity": 1,
      "chip": "ym2612"
    },
    {
      "channel": 1,
      "note": 90,
      "start": 26.6059,
      "duration": 0.083,
      "velocity": 95,
      "chip": "ym2612"
    },
    {
      "channel": 1,
      "note": 93,
      "start": 26.7059,
      "duration": 0.083,
      "velocity": 95,
      "chip": "ym2612"
    },
    {
      "channel": 2,
      "note": 45,
      "start": 26.7095,
      "duration": 0.0969,
      "velocity": 1,
      "chip": "ym2612"
    },
    {
      "channel": 1,
      "note": 96,
      "start": 26.8059,
      "duration": 0.083,
      "velocity": 95,
      "chip": "ym2612"
    },
    {
      "channel": 2,
      "note": 45,
      "start": 26.8094,
      "duration": 0.097,
      "velocity": 1,
      "chip": "ym2612"
    },
    {
      "channel": 1,
      "note": 99,
      "start": 26.9059,
      "duration": 0.083,
      "velocity": 95,
      "chip": "ym2612"
    },
    {
      "channel": 3,
      "note": 84,
      "start": 26.9087,
      "duration": 0.3805,
      "velocity": 103,
      "chip": "ym2612"
    },
    {
      "channel": 4,
      "note": 87,
      "start": 26.9091,
      "duration": 0.3803,
      "velocity": 103,
      "chip": "ym2612"
    },
    {
      "channel": 5,
      "note": 90,
      "start": 26.9096,
      "duration": 0.38,
      "velocity": 103,
      "chip": "ym2612"
    },
    {
      "channel": 2,
      "note": 45,
      "start": 26.9107,
      "duration": 0.1958,
      "velocity": 1,
      "chip": "ym2612"
    },
    {
      "channel": 1,
      "note": 93,
      "start": 27.0059,
      "duration": 0.083,
      "velocity": 95,
      "chip": "ym2612"
    },
    {
      "channel": 1,
      "note": 96,
      "start": 27.1059,
      "duration": 0.083,
      "velocity": 95,
      "chip": "ym2612"
    },
    {
      "channel": 2,
      "note": 45,
      "start": 27.1095,
      "duration": 0.0969,
      "velocity": 1,
      "chip": "ym2612"
    },
    {
      "channel": 1,
      "note": 99,
      "start": 27.2059,
      "duration": 0.0831,
      "velocity": 95,
      "chip": "ym2612"
    },
    {
      "channel": 2,
      "note": 45,
      "start": 27.2094,
      "duration": 0.0996,
      "velocity": 1,
      "chip": "ym2612"
    },
    {
      "channel": 1,
      "note": 81,
      "start": 27.3084,
      "duration": 0.2805,
      "velocity": 103,
      "chip": "ym2612"
    },
    {
      "channel": 3,
      "note": 72,
      "start": 27.3112,
      "duration": 0.278,
      "velocity": 103,
      "chip": "ym2612"
    },
    {
      "channel": 4,
      "note": 78,
      "start": 27.3117,
      "duration": 0.2776,
      "velocity": 103,
      "chip": "ym2612"
    },
    {
      "channel": 5,
      "note": 75,
      "start": 27.3121,
      "duration": 0.2773,
      "velocity": 103,
      "chip": "ym2612"
    },
    {
      "channel": 2,
      "note": 45,
      "start": 27.3132,
      "duration": 0.1929,
      "velocity": 1,
      "chip": "ym2612"
    },
    {
      "channel": 2,
      "note": 45,
      "start": 27.5091,
      "duration": 0.0973,
      "velocity": 1,
      "chip": "ym2612"
    },
    {
      "channel": 2,
      "note": 45,
      "start": 27.6103,
      "duration": 0.0962,
      "velocity": 1,
      "chip": "ym2612"
    },
    {
      "channel": 1,
      "note": 78,
      "start": 27.7059,
      "duration": 0.283,
      "velocity": 103,
      "chip": "ym2612"
    },
    {
      "channel": 3,
      "note": 75,
      "start": 27.7087,
      "duration": 0.2805,
      "velocity": 103,
      "chip": "ym2612"
    },
    {
      "channel": 4,
      "note": 81,
      "start": 27.7091,
      "duration": 0.2802,
      "velocity": 103,
      "chip": "ym2612"
    },
    {
      "channel": 5,
      "note": 84,
      "start": 27.7096,
      "duration": 0.2799,
      "velocity": 103,
      "chip": "ym2612"
    },
    {
      "channel": 2,
      "note": 45,
      "start": 27.7107,
      "duration": 0.1955,
      "velocity": 1,
      "chip": "ym2612"
    },
    {
      "channel": 2,
      "note": 45,
      "start": 27.9091,
      "duration": 0.0973,
      "velocity": 1,
      "chip": "ym2612"
    },
    {
      "channel": 2,
      "note": 45,
      "start": 28.0103,
      "duration": 0.0962,
      "velocity": 1,
      "chip": "ym2612"
    },
    {
      "channel": 1,
      "note": 81,
      "start": 28.1059,
      "duration": 0.283,
      "velocity": 103,
      "chip": "ym2612"
    },
    {
      "channel": 3,
      "note": 87,
      "start": 28.1087,
      "duration": 0.2805,
      "velocity": 103,
      "chip": "ym2612"
    },
    {
      "channel": 4,
      "note": 84,
      "start": 28.1091,
      "duration": 0.2802,
      "velocity": 103,
      "chip": "ym2612"
    },
    {
      "channel": 5,
      "note": 78,
      "start": 28.1096,
      "duration": 0.2799,
      "velocity": 103,
      "chip": "ym2612"
    },
    {
      "channel": 2,
      "note": 45,
      "start": 28.1107,
      "duration": 0.1955,
      "velocity": 1,
      "chip": "ym2612"
    },
    {
      "channel": 2,
      "note": 45,
      "start": 28.3091,
      "duration": 0.0973,
      "velocity": 1,
      "chip": "ym2612"
    },
    {
      "channel": 2,
      "note": 45,
      "start": 28.4103,
      "duration": 0.0962,
      "velocity": 1,
      "chip": "ym2612"
    },
    {
      "channel": 1,
      "note": 81,
      "start": 28.5059,
      "duration": 0.283,
      "velocity": 103,
      "chip": "ym2612"
    },
    {
      "channel": 3,
      "note": 84,
      "start": 28.5087,
      "duration": 0.2805,
      "velocity": 103,
      "chip": "ym2612"
    },
    {
      "channel": 4,
      "note": 87,
      "start": 28.5091,
      "duration": 0.2802,
      "velocity": 103,
      "chip": "ym2612"
    },
    {
      "channel": 5,
      "note": 90,
      "start": 28.5096,
      "duration": 0.2799,
      "velocity": 103,
      "chip": "ym2612"
    },
    {
      "channel": 2,
      "note": 45,
      "start": 28.5107,
      "duration": 0.1955,
      "velocity": 1,
      "chip": "ym2612"
    },
    {
      "channel": 2,
      "note": 45,
      "start": 28.7091,
      "duration": 0.0973,
      "velocity": 1,
      "chip": "ym2612"
    },
    {
      "channel": 2,
      "note": 45,
      "start": 28.8103,
      "duration": 0.1011,
      "velocity": 1,
      "chip": "ym2612"
    },
    {
      "channel": 0,
      "note": 40,
      "start": 28.9079,
      "duration": 0.3956,
      "velocity": 99,
      "chip": "ym2612"
    },
    {
      "channel": 1,
      "note": 82,
      "start": 28.9108,
      "duration": 0.0947,
      "velocity": 95,
      "chip": "ym2612"
    },
    {
      "channel": 3,
      "note": 82,
      "start": 28.9159,
      "duration": 0.3876,
      "velocity": 103,
      "chip": "ym2612"
    },
    {
      "channel": 4,
      "note": 88,
      "start": 28.9186,
      "duration": 0.3849,
      "velocity": 103,
      "chip": "ym2612"
    },
    {
      "channel": 5,
      "note": 85,
      "start": 28.9213,
      "duration": 0.3822,
      "velocity": 103,
      "chip": "ym2612"
    },
    {
      "channel": 2,
      "note": 38,
      "start": 28.9224,
      "duration": 0.117,
      "velocity": 120,
      "chip": "ym2612"
    },
    {
      "channel": 1,
      "note": 85,
      "start": 29.0225,
      "duration": 0.083,
      "velocity": 95,
      "chip": "ym2612"
    },
    {
      "channel": 1,
      "note": 88,
      "start": 29.1225,
      "duration": 0.083,
      "velocity": 95,
      "chip": "ym2612"
    },
    {
      "channel": 2,
      "note": 45,
      "start": 29.1262,
      "duration": 0.0969,
      "velocity": 1,
      "chip": "ym2612"
    },
    {
      "channel": 1,
      "note": 91,
      "start": 29.2225,
      "duration": 0.081,
      "velocity": 95,
      "chip": "ym2612"
    },
    {
      "channel": 2,
      "note": 45,
      "start": 29.2261,
      "duration": 0.0774,
      "velocity": 116,
      "chip": "ym2612"
    }
  ]
}