{
  "track_name": "06 - Stage 1",
  "duration_sec": 26.882,
  "sample_rate": 44100,
  "note_count": 410,
  "unique_pitches": 32,
  "pitch_range": 48,
  "avg_note_duration": 0.2592,
  "reconstruction_stats": {
    "notes_reconstructed": 410,
    "keyon_events": 410,
    "keyoff_events": 399,
    "orphan_keyons": 4,
    "unique_pitches": 32,
    "pitch_range": 48,
    "avg_duration_sec": 0.2592
  },
  "metadata": {
    "source": "M\\Metal Head\\06 - Stage 1.vgz"
  },
  "notes": [
    {
      "channel": 0,
      "note": 53,
      "start": 0.0703,
      "duration": 0.025,
      "velocity": 89,
      "chip": "ym2612"
    },
    {
      "channel": 3,
      "note": 41,
      "start": 0.0719,
      "duration": 0.024,
      "velocity": 101,
      "chip": "ym2612"
    },
    {
      "channel": 4,
      "note": 53,
      "start": 0.0731,
      "duration": 0.0231,
      "velocity": 101,
      "chip": "ym2612"
    },
    {
      "channel": 0,
      "note": 65,
      "start": 0.0955,
      "duration": 0.0249,
      "velocity": 89,
      "chip": "ym2612"
    },
    {
      "channel": 1,
      "note": 65,
      "start": 0.0958,
      "duration": 0.0738,
      "velocity": 108,
      "chip": "ym2612"
    },
    {
      "channel": 3,
      "note": 53,
      "start": 0.0961,
      "duration": 0.0247,
      "velocity": 101,
      "chip": "ym2612"
    },
    {
      "channel": 4,
      "note": 60,
      "start": 0.0964,
      "duration": 0.0248,
      "velocity": 101,
      "chip": "ym2612"
    },
    {
      "channel": 0,
      "note": 53,
      "start": 0.1206,
      "duration": 0.023,
      "velocity": 89,
      "chip": "ym2612"
    },
    {
      "channel": 3,
      "note": 41,
      "start": 0.1211,
      "duration": 0.0064,
      "velocity": 101,
      "chip": "ym2612"
    },
    {
      "channel": 4,
      "note": 53,
      "start": 0.1214,
      "duration": 0.0061,
      "velocity": 101,
      "chip": "ym2612"
    },
    {
      "channel": 3,
      "note": 41,
      "start": 0.1333,
      "duration": 0.008,
      "velocity": 101,
      "chip": "ym2612"
    },
    {
      "channel": 4,
      "note": 53,
      "start": 0.1336,
      "duration": 0.0077,
      "velocity": 101,
      "chip": "ym2612"
    },
    {
      "channel": 0,
      "note": 53,
      "start": 0.1447,
      "duration": 0.0123,
      "velocity": 89,
      "chip": "ym2612"
    },
    {
      "channel": 3,
      "note": 41,
      "start": 0.1452,
      "duration": 0.0079,
      "velocity": 101,
      "chip": "ym2612"
    },
    {
      "channel": 4,
      "note": 53,
      "start": 0.1455,
      "duration": 0.0078,
      "velocity": 101,
      "chip": "ym2612"
    },
    {
      "channel": 0,
      "note": 53,
      "start": 0.1573,
      "duration": 0.0245,
      "velocity": 89,
      "chip": "ym2612"
    },
    {
      "channel": 3,
      "note": 41,
      "start": 0.1577,
      "duration": 0.0081,
      "velocity": 101,
      "chip": "ym2612"
    },
    {
      "channel": 4,
      "note": 53,
      "start": 0.158,
      "duration": 0.008,
      "velocity": 101,
      "chip": "ym2612"
    },
    {
      "channel": 1,
      "note": 65,
      "start": 0.1698,
      "duration": 0.036,
      "velocity": 108,
      "chip": "ym2612"
    },
    {
      "channel": 3,
      "note": 53,
      "start": 0.1702,
      "duration": 0.0233,
      "velocity": 101,
      "chip": "ym2612"
    },
    {
      "channel": 4,
      "note": 60,
      "start": 0.1705,
      "duration": 0.0233,
      "velocity": 101,
      "chip": "ym2612"
    },
    {
      "channel": 0,
      "note": 53,
      "start": 0.1819,
      "duration": 0.0111,
      "velocity": 89,
      "chip": "ym2612"
    },
    {
      "channel": 0,
      "note": 65,
      "start": 0.1932,
      "duration": 0.0239,
      "velocity": 89,
      "chip": "ym2612"
    },
    {
      "channel": 3,
      "note": 41,
      "start": 0.1936,
      "duration": 0.0081,
      "velocity": 101,
      "chip": "ym2612"
    },
    {
      "channel": 4,
      "note": 53,
      "start": 0.1939,
      "duration": 0.008,
      "velocity": 101,
      "chip": "ym2612"
    },
    {
      "channel": 1,
      "note": 63,
      "start": 0.2061,
      "duration": 0.0344,
      "velocity": 108,
      "chip": "ym2612"
    },
    {
      "channel": 3,
      "note": 41,
      "start": 0.2064,
      "duration": 0.0077,
      "velocity": 101,
      "chip": "ym2612"
    },
    {
      "channel": 4,
      "note": 53,
      "start": 0.2067,
      "duration": 0.0076,
      "velocity": 101,
      "chip": "ym2612"
    },
    {
      "channel": 0,
      "note": 53,
      "start": 0.2173,
      "duration": 0.0229,
      "velocity": 89,
      "chip": "ym2612"
    },
    {
      "channel": 3,
      "note": 41,
      "start": 0.2177,
      "duration": 0.0076,
      "velocity": 101,
      "chip": "ym2612"
    },
    {
      "channel": 4,
      "note": 53,
      "start": 0.218,
      "duration": 0.0074,
      "velocity": 101,
      "chip": "ym2612"
    },
    {
      "channel": 3,
      "note": 41,
      "start": 0.2295,
      "duration": 0.0075,
      "velocity": 101,
      "chip": "ym2612"
    },
    {
      "channel": 4,
      "note": 53,
      "start": 0.2297,
      "duration": 0.0074,
      "velocity": 101,
      "chip": "ym2612"
    },
    {
      "channel": 0,
      "note": 55,
      "start": 0.2404,
      "duration": 0.0248,
      "velocity": 89,
      "chip": "ym2612"
    },
    {
      "channel": 1,
      "note": 60,
      "start": 0.2408,
      "duration": 0.0247,
      "velocity": 108,
      "chip": "ym2612"
    },
    {
      "channel": 3,
      "note": 53,
      "start": 0.2411,
      "duration": 0.0247,
      "velocity": 101,
      "chip": "ym2612"
    },
    {
      "channel": 4,
      "note": 60,
      "start": 0.2415,
      "duration": 0.0246,
      "velocity": 101,
      "chip": "ym2612"
    },
    {
      "channel": 0,
      "note": 56,
      "start": 0.2654,
      "duration": 0.0235,
      "velocity": 89,
      "chip": "ym2612"
    },
    {
      "channel": 1,
      "note": 63,
      "start": 0.2658,
      "duration": 0.0366,
      "velocity": 108,
      "chip": "ym2612"
    },
    {
      "channel": 3,
      "note": 44,
      "start": 0.266,
      "duration": 0.0235,
      "velocity": 101,
      "chip": "ym2612"
    },
    {
      "channel": 4,
      "note": 56,
      "start": 0.2663,
      "duration": 0.0235,
      "velocity": 101,
      "chip": "ym2612"
    },
    {
      "channel": 0,
      "note": 68,
      "start": 0.2893,
      "duration": 0.0254,
      "velocity": 89,
      "chip": "ym2612"
    },
    {
      "channel": 3,
      "note": 56,
      "start": 0.2897,
      "duration": 0.0254,
      "velocity": 101,
      "chip": "ym2612"
    },
    {
      "channel": 4,
      "note": 63,
      "start": 0.29,
      "duration": 0.0254,
      "velocity": 101,
      "chip": "ym2612"
    },
    {
      "channel": 1,
      "note": 60,
      "start": 0.3026,
      "duration": 0.035,
      "velocity": 108,
      "chip": "ym2612"
    },
    {
      "channel": 0,
      "note": 56,
      "start": 0.3148,
      "duration": 0.0225,
      "velocity": 89,
      "chip": "ym2612"
    },
    {
      "channel": 3,
      "note": 44,
      "start": 0.3153,
      "duration": 0.0076,
      "velocity": 101,
      "chip": "ym2612"
    },
    {
      "channel": 4,
      "note": 56,
      "start": 0.3157,
      "duration": 0.0073,
      "velocity": 101,
      "chip": "ym2612"
    },
    {
      "channel": 3,
      "note": 44,
      "start": 0.3265,
      "duration": 0.0073,
      "velocity": 101,
      "chip": "ym2612"
    },
    {
      "channel": 4,
      "note": 56,
      "start": 0.3268,
      "duration": 0.0072,
      "velocity": 101,
      "chip": "ym2612"
    },
    {
      "channel": 0,
      "note": 56,
      "start": 0.3375,
      "duration": 0.0117,
      "velocity": 89,
      "chip": "ym2612"
    },
    {
      "channel": 1,
      "note": 58,
      "start": 0.3378,
      "duration": 0.024,
      "velocity": 108,
      "chip": "ym2612"
    },
    {
      "channel": 3,
      "note": 44,
      "start": 0.3381,
      "duration": 0.0076,
      "velocity": 101,
      "chip": "ym2612"
    },
    {
      "channel": 4,
      "note": 56,
      "start": 0.3384,
      "duration": 0.0074,
      "velocity": 101,
      "chip": "ym2612"
    },
    {
      "channel": 0,
      "note": 56,
      "start": 0.3494,
      "duration": 0.0241,
      "velocity": 89,
      "chip": "ym2612"
    },
    {
      "channel": 3,
      "note": 44,
      "start": 0.3498,
      "duration": 0.0082,
      "velocity": 101,
      "chip": "ym2612"
    },
    {
      "channel": 4,
      "note": 56,
      "start": 0.3502,
      "duration": 0.008,
      "velocity": 101,
      "chip": "ym2612"
    },
    {
      "channel": 1,
      "note": 58,
      "start": 0.362,
      "duration": 0.0117,
      "velocity": 108,
      "chip": "ym2612"
    },
    {
      "channel": 3,
      "note": 56,
      "start": 0.3623,
      "duration": 0.0225,
      "velocity": 101,
      "chip": "ym2612"
    },
    {
      "channel": 4,
      "note": 63,
      "start": 0.3627,
      "duration": 0.0225,
      "velocity": 101,
      "chip": "ym2612"
    },
    {
      "channel": 0,
      "note": 56,
      "start": 0.3736,
      "duration": 0.0108,
      "velocity": 89,
      "chip": "ym2612"
    },
    {
      "channel": 1,
      "note": 60,
      "start": 0.374,
      "duration": 0.0825,
      "velocity": 108,
      "chip": "ym2612"
    },
    {
      "channel": 0,
      "note": 68,
      "start": 0.3846,
      "duration": 0.0232,
      "velocity": 89,
      "chip": "ym2612"
    },
    {
      "channel": 3,
      "note": 44,
      "start": 0.3851,
      "duration": 0.0076,
      "velocity": 101,
      "chip": "ym2612"
    },
    {
      "channel": 4,
      "note": 56,
      "start": 0.3854,
      "duration": 0.0073,
      "velocity": 101,
      "chip": "ym2612"
    },
    {
      "channel": 3,
      "note": 44,
      "start": 0.397,
      "duration": 0.0074,
      "velocity": 101,
      "chip": "ym2612"
    },
    {
      "channel": 4,
      "note": 56,
      "start": 0.3973,
      "duration": 0.0073,
      "velocity": 101,
      "chip": "ym2612"
    },
    {
      "channel": 0,
      "note": 56,
      "start": 0.4079,
      "duration": 0.0229,
      "velocity": 89,
      "chip": "ym2612"
    },
    {
      "channel": 3,
      "note": 44,
      "start": 0.4083,
      "duration": 0.0074,
      "velocity": 101,
      "chip": "ym2612"
    },
    {
      "channel": 4,
      "note": 56,
      "start": 0.4085,
      "duration": 0.0072,
      "velocity": 101,
      "chip": "ym2612"
    },
    {
      "channel": 3,
      "note": 44,
      "start": 0.4201,
      "duration": 0.0073,
      "velocity": 101,
      "chip": "ym2612"
    },
    {
      "channel": 4,
      "note": 56,
      "start": 0.4205,
      "duration": 0.007,
      "velocity": 101,
      "chip": "ym2612"
    },
    {
      "channel": 0,
      "note": 57,
      "start": 0.431,
      "duration": 0.0252,
      "velocity": 89,
      "chip": "ym2612"
    },
    {
      "channel": 3,
      "note": 56,
      "start": 0.4316,
      "duration": 0.0251,
      "velocity": 101,
      "chip": "ym2612"
    },
    {
      "channel": 4,
      "note": 63,
      "start": 0.4319,
      "duration": 0.025,
      "velocity": 101,
      "chip": "ym2612"
    },
    {
      "channel": 0,
      "note": 58,
      "start": 0.4564,
      "duration": 0.0222,
      "velocity": 89,
      "chip": "ym2612"
    },
    {
      "channel": 3,
      "note": 46,
      "start": 0.4568,
      "duration": 0.0224,
      "velocity": 101,
      "chip": "ym2612"
    },
    {
      "channel": 4,
      "note": 58,
      "start": 0.4571,
      "duration": 0.0224,
      "velocity": 101,
      "chip": "ym2612"
    },
    {
      "channel": 0,
      "note": 70,
      "start": 0.4788,
      "duration": 0.0248,
      "velocity": 89,
      "chip": "ym2612"
    },
    {
      "channel": 1,
      "note": 63,
      "start": 0.4792,
      "duration": 0.0734,
      "velocity": 108,
      "chip": "ym2612"
    },
    {
      "channel": 3,
      "note": 58,
      "start": 0.4794,
      "duration": 0.0247,
      "velocity": 101,
      "chip": "ym2612"
    },
    {
      "channel": 4,
      "note": 65,
      "start": 0.4797,
      "duration": 0.0247,
      "velocity": 101,
      "chip": "ym2612"
    },
    {
      "channel": 0,
      "note": 58,
      "start": 0.5038,
      "duration": 0.0236,
      "velocity": 89,
      "chip": "ym2612"
    },
    {
      "channel": 3,
      "note": 46,
      "start": 0.5043,
      "duration": 0.0081,
      "velocity": 101,
      "chip": "ym2612"
    },
    {
      "channel": 4,
      "note": 58,
      "start": 0.5046,
      "duration": 0.0079,
      "velocity": 101,
      "chip": "ym2612"
    },
    {
      "channel": 3,
      "note": 46,
      "start": 0.5164,
      "duration": 0.0075,
      "velocity": 101,
      "chip": "ym2612"
    },
    {
      "channel": 4,
      "note": 58,
      "start": 0.5167,
      "duration": 0.0073,
      "velocity": 101,
      "chip": "ym2612"
    },
    {
      "channel": 0,
      "note": 58,
      "start": 0.5276,
      "duration": 0.0124,
      "velocity": 89,
      "chip": "ym2612"
    },
    {
      "channel": 3,
      "note": 46,
      "start": 0.528,
      "duration": 0.008,
      "velocity": 101,
      "chip": "ym2612"
    },
    {
      "channel": 4,
      "note": 58,
      "start": 0.5283,
      "duration": 0.0078,
      "velocity": 101,
      "chip": "ym2612"
    },
    {
      "channel": 0,
      "note": 58,
      "start": 0.5402,
      "duration": 0.024,
      "velocity": 89,
      "chip": "ym2612"
    },
    {
      "channel": 3,
      "note": 46,
      "start": 0.5407,
      "duration": 0.0082,
      "velocity": 101,
      "chip": "ym2612"
    },
    {
      "channel": 4,
      "note": 58,
      "start": 0.5411,
      "duration": 0.008,
      "velocity": 101,
      "chip": "ym2612"
    },
    {
      "channel": 1,
      "note": 63,
      "start": 0.5528,
      "duration": 0.0353,
      "velocity": 108,
      "chip": "ym2612"
    },
    {
      "channel": 3,
      "note": 58,
      "start": 0.5531,
      "duration": 0.0228,
      "velocity": 101,
      "chip": "ym2612"
    },
    {
      "channel": 4,
      "note": 65,
      "start": 0.5534,
      "duration": 0.0228,
      "velocity": 101,
      "chip": "ym2612"
    },
    {
      "channel": 0,
      "note": 58,
      "start": 0.5643,
      "duration": 0.011,
      "velocity": 89,
      "chip": "ym2612"
    },
    {
      "channel": 0,
      "note": 70,
      "start": 0.5756,
      "duration": 0.0241,
      "velocity": 89,
      "chip": "ym2612"
    },
    {
      "channel": 3,
      "note": 46,
      "start": 0.5761,
      "duration": 0.0079,
      "velocity": 101,
      "chip": "ym2612"
    },
    {
      "channel": 4,
      "note": 58,
      "start": 0.5764,
      "duration": 0.0077,
      "velocity": 101,
      "chip": "ym2612"
    },
    {
      "channel": 1,
      "note": 62,
      "start": 0.5884,
      "duration": 0.0345,
      "velocity": 108,
      "chip": "ym2612"
    },
    {
      "channel": 3,
      "note": 46,
      "start": 0.5887,
      "duration": 0.0076,
      "velocity": 101,
      "chip": "ym2612"
    },
    {
      "channel": 4,
      "note": 58,
      "start": 0.5889,
      "duration": 0.0075,
      "velocity": 101,
      "chip": "ym2612"
    },
    {
      "channel": 0,
      "note": 58,
      "start": 0.5999,
      "duration": 0.0227,
      "velocity": 89,
      "chip": "ym2612"
    },
    {
      "channel": 3,
      "note": 46,
      "start": 0.6003,
      "duration": 0.0076,
      "velocity": 101,
      "chip": "ym2612"
    },
    {
      "channel": 4,
      "note": 58,
      "start": 0.6005,
      "duration": 0.0074,
      "velocity": 101,
      "chip": "ym2612"
    },
    {
      "channel": 3,
      "note": 46,
      "start": 0.6117,
      "duration": 0.0076,
      "velocity": 101,
      "chip": "ym2612"
    },
    {
      "channel": 4,
      "note": 58,
      "start": 0.612,
      "duration": 0.0075,
      "velocity": 101,
      "chip": "ym2612"
    },
    {
      "channel": 0,
      "note": 59,
      "start": 0.6229,
      "duration": 0.023,
      "velocity": 89,
      "chip": "ym2612"
    },
    {
      "channel": 1,
      "note": 58,
      "start": 0.6232,
      "duration": 0.0229,
      "velocity": 108,
      "chip": "ym2612"
    },
    {
      "channel": 3,
      "note": 58,
      "start": 0.6235,
      "duration": 0.0228,
      "velocity": 101,
      "chip": "ym2612"
    },
    {
      "channel": 4,
      "note": 65,
      "start": 0.6239,
      "duration": 0.0227,
      "velocity": 101,
      "chip": "ym2612"
    },
    {
      "channel": 0,
      "note": 48,
      "start": 0.646,
      "duration": 0.0234,
      "velocity": 89,
      "chip": "ym2612"
    },
    {
      "channel": 1,
      "note": 60,
      "start": 0.6463,
      "duration": 0.0968,
      "velocity": 108,
      "chip": "ym2612"
    },
    {
      "channel": 3,
      "note": 48,
      "start": 0.6466,
      "duration": 0.0968,
      "velocity": 101,
      "chip": "ym2612"
    },
    {
      "channel": 4,
      "note": 55,
      "start": 0.6469,
      "duration": 0.0967,
      "velocity": 101,
      "chip": "ym2612"
    },
    {
      "channel": 0,
      "note": 60,
      "start": 0.6696,
      "duration": 0.0252,
      "velocity": 89,
      "chip": "ym2612"
    },
    {
      "channel": 0,
      "note": 48,
      "start": 0.695,
      "duration": 0.0232,
      "velocity": 89,
      "chip": "ym2612"
    },
    {
      "channel": 0,
      "note": 48,
      "start": 0.7184,
      "duration": 0.012,
      "velocity": 89,
      "chip": "ym2612"
    },
    {
      "channel": 0,
      "note": 48,
      "start": 0.7306,
      "duration": 0.0122,
      "velocity": 89,
      "chip": "ym2612"
    },
    {
      "channel": 0,
      "note": 51,
      "start": 0.743,
      "duration": 0.0342,
      "velocity": 89,
      "chip": "ym2612"
    },
    {
      "channel": 1,
      "note": 63,
      "start": 0.7433,
      "duration": 0.0341,
      "velocity": 108,
      "chip": "ym2612"
    },
    {
      "channel": 3,
      "note": 51,
      "start": 0.7435,
      "duration": 0.0343,
      "velocity": 101,
      "chip": "ym2612"
    },
    {
      "channel": 4,
      "note": 58,
      "start": 0.7437,
      "duration": 0.0344,
      "velocity": 101,
      "chip": "ym2612"
    },
    {
      "channel": 0,
      "note": 51,
      "start": 0.7774,
      "duration": 0.0353,
      "velocity": 89,
      "chip": "ym2612"
    },
    {
      "channel": 1,
      "note": 63,
      "start": 0.7776,
      "duration": 0.0354,
      "velocity": 108,
      "chip": "ym2612"
    },
    {
      "channel": 3,
      "note": 51,
      "start": 0.778,
      "duration": 0.0354,
      "velocity": 101,
      "chip": "ym2612"
    },
    {
      "channel": 4,
      "note": 58,
      "start": 0.7782,
      "duration": 0.0354,
      "velocity": 101,
      "chip": "ym2612"
    },
    {
      "channel": 0,
      "note": 64,
      "start": 0.8129,
      "duration": 0.0232,
      "velocity": 89,
      "chip": "ym2612"
    },
    {
      "channel": 1,
      "note": 64,
      "start": 0.8133,
      "duration": 0.023,
      "velocity": 108,
      "chip": "ym2612"
    },
    {
      "channel": 3,
      "note": 51,
      "start": 0.8135,
      "duration": 0.0229,
      "velocity": 101,
      "chip": "ym2612"
    },
    {
      "channel": 4,
      "note": 59,
      "start": 0.8139,
      "duration": 0.0228,
      "velocity": 101,
      "chip": "ym2612"
    },
    {
      "channel": 0,
      "note": 53,
      "start": 0.8362,
      "duration": 0.0216,
      "velocity": 89,
      "chip": "ym2612"
    },
    {
      "channel": 3,
      "note": 41,
      "start": 0.8366,
      "duration": 0.0217,
      "velocity": 101,
      "chip": "ym2612"
    },
    {
      "channel": 4,
      "note": 53,
      "start": 0.8369,
      "duration": 0.0216,
      "velocity": 101,
      "chip": "ym2612"
    },
    {
      "channel": 0,
      "note": 65,
      "start": 0.858,
      "duration": 0.0244,
      "velocity": 89,
      "chip": "ym2612"
    },
    {
      "channel": 1,
      "note": 65,
      "start": 0.8583,
      "duration": 0.0727,
      "velocity": 108,
      "chip": "ym2612"
    },
    {
      "channel": 3,
      "note": 53,
      "start": 0.8585,
      "duration": 0.0244,
      "velocity": 101,
      "chip": "ym2612"
    },
    {
      "channel": 4,
      "note": 60,
      "start": 0.8587,
      "duration": 0.0245,
      "velocity": 101,
      "chip": "ym2612"
    },
    {
      "channel": 0,
      "note": 53,
      "start": 0.8827,
      "duration": 0.0236,
      "velocity": 89,
      "chip": "ym2612"
    },
    {
      "channel": 3,
      "note": 41,
      "start": 0.8831,
      "duration": 0.0084,
      "velocity": 101,
      "chip": "ym2612"
    },
    {
      "channel": 4,
      "note": 53,
      "start": 0.8835,
      "duration": 0.0082,
      "velocity": 101,
      "chip": "ym2612"
    },
    {
      "channel": 3,
      "note": 41,
      "start": 0.8954,
      "duration": 0.0075,
      "velocity": 101,
      "chip": "ym2612"
    },
    {
      "channel": 4,
      "note": 53,
      "start": 0.8957,
      "duration": 0.0073,
      "velocity": 101,
      "chip": "ym2612"
    },
    {
      "channel": 0,
      "note": 53,
      "start": 0.9063,
      "duration": 0.0125,
      "velocity": 89,
      "chip": "ym2612"
    },
    {
      "channel": 3,
      "note": 41,
      "start": 0.9069,
      "duration": 0.0081,
      "velocity": 101,
      "chip": "ym2612"
    },
    {
      "channel": 4,
      "note": 53,
      "start": 0.9072,
      "duration": 0.008,
      "velocity": 101,
      "chip": "ym2612"
    },
    {
      "channel": 0,
      "note": 53,
      "start": 0.919,
      "duration": 0.0236,
      "velocity": 89,
      "chip": "ym2612"
    },
    {
      "channel": 3,
      "note": 41,
      "start": 0.9195,
      "duration": 0.0082,
      "velocity": 101,
      "chip": "ym2612"
    },
    {
      "channel": 4,
      "note": 53,
      "start": 0.9198,
      "duration": 0.008,
      "velocity": 101,
      "chip": "ym2612"
    },
    {
      "channel": 1,
      "note": 65,
      "start": 0.9312,
      "duration": 0.0356,
      "velocity": 108,
      "chip": "ym2612"
    },
    {
      "channel": 3,
      "note": 53,
      "start": 0.9316,
      "duration": 0.0229,
      "velocity": 101,
      "chip": "ym2612"
    },
    {
      "channel": 4,
      "note": 60,
      "start": 0.9318,
      "duration": 0.0229,
      "velocity": 101,
      "chip": "ym2612"
    },
    {
      "channel": 0,
      "note": 53,
      "start": 0.9427,
      "duration": 0.0112,
      "velocity": 89,
      "chip": "ym2612"
    },
    {
      "channel": 0,
      "note": 65,
      "start": 0.9543,
      "duration": 0.0238,
      "velocity": 89,
      "chip": "ym2612"
    },
    {
      "channel": 3,
      "note": 41,
      "start": 0.9547,
      "duration": 0.0079,
      "velocity": 101,
      "chip": "ym2612"
    },
    {
      "channel": 4,
      "note": 53,
      "start": 0.9549,
      "duration": 0.0077,
      "velocity": 101,
      "chip": "ym2612"
    },
    {
      "channel": 1,
      "note": 63,
      "start": 0.967,
      "duration": 0.0344,
      "velocity": 108,
      "chip": "ym2612"
    },
    {
      "channel": 3,
      "note": 41,
      "start": 0.9673,
      "duration": 0.0076,
      "velocity": 101,
      "chip": "ym2612"
    },
    {
      "channel": 4,
      "note": 53,
      "start": 0.9675,
      "duration": 0.0075,
      "velocity": 101,
      "chip": "ym2612"
    },
    {
      "channel": 0,
      "note": 53,
      "start": 0.9782,
      "duration": 0.023,
      "velocity": 89,
      "chip": "ym2612"
    },
    {
      "channel": 3,
      "note": 41,
      "start": 0.9786,
      "duration": 0.0073,
      "velocity": 101,
      "chip": "ym2612"
    },
    {
      "channel": 4,
      "note": 53,
      "start": 0.9788,
      "duration": 0.0072,
      "velocity": 101,
      "chip": "ym2612"
    },
    {
      "channel": 3,
      "note": 41,
      "start": 0.99,
      "duration": 0.0077,
      "velocity": 101,
      "chip": "ym2612"
    },
    {
      "channel": 4,
      "note": 53,
      "start": 0.9903,
      "duration": 0.0074,
      "velocity": 101,
      "chip": "ym2612"
    },
    {
      "channel": 0,
      "note": 55,
      "start": 1.0013,
      "duration": 0.0245,
      "velocity": 89,
      "chip": "ym2612"
    },
    {
      "channel": 1,
      "note": 60,
      "start": 1.0016,
      "duration": 0.0245,
      "velocity": 108,
      "chip": "ym2612"
    },
    {
      "channel": 3,
      "note": 53,
      "start": 1.002,
      "duration": 0.0244,
      "velocity": 101,
      "chip": "ym2612"
    },
    {
      "channel": 4,
      "note": 60,
      "start": 1.0022,
      "duration": 0.0246,
      "velocity": 101,
      "chip": "ym2612"
    },
    {
      "channel": 0,
      "note": 56,
      "start": 1.026,
      "duration": 0.0236,
      "velocity": 89,
      "chip": "ym2612"
    },
    {
      "channel": 1,
      "note": 63,
      "start": 1.0263,
      "duration": 0.0363,
      "velocity": 108,
      "chip": "ym2612"
    },
    {
      "channel": 3,
      "note": 44,
      "start": 1.0266,
      "duration": 0.0234,
      "velocity": 101,
      "chip": "ym2612"
    },
    {
      "channel": 4,
      "note": 56,
      "start": 1.027,
      "duration": 0.0234,
      "velocity": 101,
      "chip": "ym2612"
    },
    {
      "channel": 0,
      "note": 68,
      "start": 1.0498,
      "duration": 0.0256,
      "velocity": 89,
      "chip": "ym2612"
    },
    {
      "channel": 3,
      "note": 56,
      "start": 1.0502,
      "duration": 0.0257,
      "velocity": 101,
      "chip": "ym2612"
    },
    {
      "channel": 4,
      "note": 63,
      "start": 1.0505,
      "duration": 0.0256,
      "velocity": 101,
      "chip": "ym2612"
    },
    {
      "channel": 1,
      "note": 60,
      "start": 1.0629,
      "duration": 0.0362,
      "velocity": 108,
      "chip": "ym2612"
    },
    {
      "channel": 0,
      "note": 56,
      "start": 1.0757,
      "duration": 0.0232,
      "velocity": 89,
      "chip": "ym2612"
    },
    {
      "channel": 3,
      "note": 44,
      "start": 1.0761,
      "duration": 0.0077,
      "velocity": 101,
      "chip": "ym2612"
    },
    {
      "channel": 4,
      "note": 56,
      "start": 1.0763,
      "duration": 0.0076,
      "velocity": 101,
      "chip": "ym2612"
    },
    {
      "channel": 3,
      "note": 44,
      "start": 1.0875,
      "duration": 0.0077,
      "velocity": 101,
      "chip": "ym2612"
    },
    {
      "channel": 4,
      "note": 56,
      "start": 1.0877,
      "duration": 0.0076,
      "velocity": 101,
      "chip": "ym2612"
    },
    {
      "channel": 0,
      "note": 56,
      "start": 1.0991,
      "duration": 0.0122,
      "velocity": 89,
      "chip": "ym2612"
    },
    {
      "channel": 1,
      "note": 58,
      "start": 1.0994,
      "duration": 0.0241,
      "velocity": 108,
      "chip": "ym2612"
    },
    {
      "channel": 3,
      "note": 44,
      "start": 1.0996,
      "duration": 0.0078,
      "velocity": 101,
      "chip": "ym2612"
    },
    {
      "channel": 4,
      "note": 56,
      "start": 1.0998,
      "duration": 0.0077,
      "velocity": 101,
      "chip": "ym2612"
    },
    {
      "channel": 0,
      "note": 56,
      "start": 1.1114,
      "duration": 0.024,
      "velocity": 89,
      "chip": "ym2612"
    },
    {
      "channel": 3,
      "note": 44,
      "start": 1.1119,
      "duration": 0.0081,
      "velocity": 101,
      "chip": "ym2612"
    },
    {
      "channel": 4,
      "note": 56,
      "start": 1.1122,
      "duration": 0.008,
      "velocity": 101,
      "chip": "ym2612"
    },
    {
      "channel": 1,
      "note": 58,
      "start": 1.1237,
      "duration": 0.012,
      "velocity": 108,
      "chip": "ym2612"
    },
    {
      "channel": 3,
      "note": 56,
      "start": 1.124,
      "duration": 0.0225,
      "velocity": 101,
      "chip": "ym2612"
    },
    {
      "channel": 4,
      "note": 63,
      "start": 1.1243,
      "duration": 0.0225,
      "velocity": 101,
      "chip": "ym2612"
    },
    {
      "channel": 0,
      "note": 56,
      "start": 1.1356,
      "duration": 0.0105,
      "velocity": 89,
      "chip": "ym2612"
    },
    {
      "channel": 1,
      "note": 60,
      "start": 1.1359,
      "duration": 0.0837,
      "velocity": 108,
      "chip": "ym2612"
    },
    {
      "channel": 0,
      "note": 68,
      "start": 1.1463,
      "duration": 0.0234,
      "velocity": 89,
      "chip": "ym2612"
    },
    {
      "channel": 3,
      "note": 44,
      "start": 1.1467,
      "duration": 0.0077,
      "velocity": 101,
      "chip": "ym2612"
    },
    {
      "channel": 4,
      "note": 56,
      "start": 1.1471,
      "duration": 0.0074,
      "velocity": 101,
      "chip": "ym2612"
    },
    {
      "channel": 3,
      "note": 44,
      "start": 1.1582,
      "duration": 0.0079,
      "velocity": 101,
      "chip": "ym2612"
    },
    {
      "channel": 4,
      "note": 56,
      "start": 1.1584,
      "duration": 0.0078,
      "velocity": 101,
      "chip": "ym2612"
    },
    {
      "channel": 0,
      "note": 56,
      "start": 1.1698,
      "duration": 0.0237,
      "velocity": 89,
      "chip": "ym2612"
    },
    {
      "channel": 3,
      "note": 44,
      "start": 1.1702,
      "duration": 0.0078,
      "velocity": 101,
      "chip": "ym2612"
    },
    {
      "channel": 4,
      "note": 56,
      "start": 1.1705,
      "duration": 0.0077,
      "velocity": 101,
      "chip": "ym2612"
    },
    {
      "channel": 3,
      "note": 44,
      "start": 1.1826,
      "duration": 0.0077,
      "velocity": 101,
      "chip": "ym2612"
    },
    {
      "channel": 4,
      "note": 56,
      "start": 1.1828,
      "duration": 0.0076,
      "velocity": 101,
      "chip": "ym2612"
    },
    {
      "channel": 0,
      "note": 57,
      "start": 1.1939,
      "duration": 0.0254,
      "velocity": 89,
      "chip": "ym2612"
    },
    {
      "channel": 3,
      "note": 56,
      "start": 1.1942,
      "duration": 0.0255,
      "velocity": 101,
      "chip": "ym2612"
    },
    {
      "channel": 4,
      "note": 63,
      "start": 1.1946,
      "duration": 0.0253,
      "velocity": 101,
      "chip": "ym2612"
    },
    {
      "channel": 0,
      "note": 58,
      "start": 1.2194,
      "duration": 0.0212,
      "velocity": 89,
      "chip": "ym2612"
    },
    {
      "channel": 3,
      "note": 46,
      "start": 1.2198,
      "duration": 0.0214,
      "velocity": 101,
      "chip": "ym2612"
    },
    {
      "channel": 4,
      "note": 58,
      "start": 1.2202,
      "duration": 0.0212,
      "velocity": 101,
      "chip": "ym2612"
    },
    {
      "channel": 0,
      "note": 70,
      "start": 1.2408,
      "duration": 0.0239,
      "velocity": 89,
      "chip": "ym2612"
    },
    {
      "channel": 1,
      "note": 63,
      "start": 1.2412,
      "duration": 0.0723,
      "velocity": 108,
      "chip": "ym2612"
    },
    {
      "channel": 3,
      "note": 58,
      "start": 1.2414,
      "duration": 0.0238,
      "velocity": 101,
      "chip": "ym2612"
    },
    {
      "channel": 4,
      "note": 65,
      "start": 1.2417,
      "duration": 0.0238,
      "velocity": 101,
      "chip": "ym2612"
    },
    {
      "channel": 0,
      "note": 58,
      "start": 1.2649,
      "duration": 0.024,
      "velocity": 89,
      "chip": "ym2612"
    },
    {
      "channel": 3,
      "note": 46,
      "start": 1.2654,
      "duration": 0.0078,
      "velocity": 101,
      "chip": "ym2612"
    },
    {
      "channel": 4,
      "note": 58,
      "start": 1.2657,
      "duration": 0.0076,
      "velocity": 101,
      "chip": "ym2612"
    },
    {
      "channel": 3,
      "note": 46,
      "start": 1.2773,
      "duration": 0.008,
      "velocity": 101,
      "chip": "ym2612"
    },
    {
      "channel": 4,
      "note": 58,
      "start": 1.2776,
      "duration": 0.0078,
      "velocity": 101,
      "chip": "ym2612"
    },
    {
      "channel": 0,
      "note": 58,
      "start": 1.2892,
      "duration": 0.012,
      "velocity": 89,
      "chip": "ym2612"
    },
    {
      "channel": 3,
      "note": 46,
      "start": 1.2897,
      "duration": 0.0076,
      "velocity": 101,
      "chip": "ym2612"
    },
    {
      "channel": 4,
      "note": 58,
      "start": 1.2899,
      "duration": 0.0074,
      "velocity": 101,
      "chip": "ym2612"
    },
    {
      "channel": 0,
      "note": 58,
      "start": 1.3014,
      "duration": 0.0241,
      "velocity": 89,
      "chip": "ym2612"
    },
    {
      "channel": 3,
      "note": 46,
      "start": 1.3019,
      "duration": 0.0078,
      "velocity": 101,
      "chip": "ym2612"
    },
    {
      "channel": 4,
      "note": 58,
      "start": 1.3022,
      "duration": 0.0076,
      "velocity": 101,
      "chip": "ym2612"
    },
    {
      "channel": 1,
      "note": 63,
      "start": 1.3138,
      "duration": 0.036,
      "velocity": 108,
      "chip": "ym2612"
    },
    {
      "channel": 3,
      "note": 58,
      "start": 1.314,
      "duration": 0.0232,
      "velocity": 101,
      "chip": "ym2612"
    },
    {
      "channel": 4,
      "note": 65,
      "start": 1.3143,
      "duration": 0.0232,
      "velocity": 101,
      "chip": "ym2612"
    },
    {
      "channel": 0,
      "note": 58,
      "start": 1.3256,
      "duration": 0.011,
      "velocity": 89,
      "chip": "ym2612"
    },
    {
      "channel": 0,
      "note": 70,
      "start": 1.3369,
      "duration": 0.0242,
      "velocity": 89,
      "chip": "ym2612"
    },
    {
      "channel": 3,
      "note": 46,
      "start": 1.3373,
      "duration": 0.008,
      "velocity": 101,
      "chip": "ym2612"
    },
    {
      "channel": 4,
      "note": 58,
      "start": 1.3376,
      "duration": 0.0078,
      "velocity": 101,
      "chip": "ym2612"
    },
    {
      "channel": 1,
      "note": 62,
      "start": 1.3501,
      "duration": 0.035,
      "velocity": 108,
      "chip": "ym2612"
    },
    {
      "channel": 3,
      "note": 46,
      "start": 1.3503,
      "duration": 0.0077,
      "velocity": 101,
      "chip": "ym2612"
    },
    {
      "channel": 4,
      "note": 58,
      "start": 1.3506,
      "duration": 0.0075,
      "velocity": 101,
      "chip": "ym2612"
    },
    {
      "channel": 0,
      "note": 58,
      "start": 1.3612,
      "duration": 0.0235,
      "velocity": 89,
      "chip": "ym2612"
    },
    {
      "channel": 3,
      "note": 46,
      "start": 1.3616,
      "duration": 0.0072,
      "velocity": 101,
      "chip": "ym2612"
    },
    {
      "channel": 4,
      "note": 58,
      "start": 1.3619,
      "duration": 0.007,
      "velocity": 101,
      "chip": "ym2612"
    },
    {
      "channel": 3,
      "note": 46,
      "start": 1.373,
      "duration": 0.0078,
      "velocity": 101,
      "chip": "ym2612"
    },
    {
      "channel": 4,
      "note": 58,
      "start": 1.3733,
      "duration": 0.0076,
      "velocity": 101,
      "chip": "ym2612"
    },
    {
      "channel": 0,
      "note": 59,
      "start": 1.3849,
      "duration": 0.0242,
      "velocity": 89,
      "chip": "ym2612"
    },
    {
      "channel": 1,
      "note": 58,
      "start": 1.3853,
      "duration": 0.0241,
      "velocity": 108,
      "chip": "ym2612"
    },
    {
      "channel": 3,
      "note": 58,
      "start": 1.3856,
      "duration": 0.0241,
      "velocity": 101,
      "chip": "ym2612"
    },
    {
      "channel": 4,
      "note": 65,
      "start": 1.3859,
      "duration": 0.0242,
      "velocity": 101,
      "chip": "ym2612"
    },
    {
      "channel": 0,
      "note": 48,
      "start": 1.4093,
      "duration": 0.0247,
      "velocity": 89,
      "chip": "ym2612"
    },
    {
      "channel": 1,
      "note": 60,
      "start": 1.4097,
      "duration": 0.0988,
      "velocity": 108,
      "chip": "ym2612"
    },
    {
      "channel": 3,
      "note": 48,
      "start": 1.41,
      "duration": 0.0996,
      "velocity": 108,
      "chip": "ym2612"
    },
    {
      "channel": 4,
      "note": 67,
      "start": 1.4103,
      "duration": 0.1004,
      "velocity": 108,
      "chip": "ym2612"
    },
    {
      "channel": 0,
      "note": 60,
      "start": 1.4343,
      "duration": 0.0261,
      "velocity": 89,
      "chip": "ym2612"
    },
    {
      "channel": 0,
      "note": 48,
      "start": 1.4606,
      "duration": 0.0242,
      "velocity": 89,
      "chip": "ym2612"
    },
    {
      "channel": 0,
      "note": 48,
      "start": 1.485,
      "duration": 0.0118,
      "velocity": 89,
      "chip": "ym2612"
    },
    {
      "channel": 0,
      "note": 48,
      "start": 1.497,
      "duration": 0.0112,
      "velocity": 89,
      "chip": "ym2612"
    },
    {
      "channel": 0,
      "note": 60,
      "start": 1.5083,
      "duration": 0.036,
      "velocity": 89,
      "chip": "ym2612"
    },
    {
      "channel": 1,
      "note": 72,
      "start": 1.5087,
      "duration": 0.0359,
      "velocity": 108,
      "chip": "ym2612"
    },
    {
      "channel": 3,
      "note": 68,
      "start": 1.5098,
      "duration": 0.0351,
      "velocity": 108,
      "chip": "ym2612"
    },
    {
      "channel": 4,
      "note": 68,
      "start": 1.5108,
      "duration": 0.0343,
      "velocity": 108,
      "chip": "ym2612"
    },
    {
      "channel": 0,
      "note": 58,
      "start": 1.5445,
      "duration": 0.0344,
      "velocity": 89,
      "chip": "ym2612"
    },
    {
      "channel": 1,
      "note": 70,
      "start": 1.5448,
      "duration": 0.0345,
      "velocity": 108,
      "chip": "ym2612"
    },
    {
      "channel": 3,
      "note": 67,
      "start": 1.5451,
      "duration": 0.0344,
      "velocity": 108,
      "chip": "ym2612"
    },
    {
      "channel": 4,
      "note": 67,
      "start": 1.5452,
      "duration": 0.0346,
      "velocity": 108,
      "chip": "ym2612"
    },
    {
      "channel": 0,
      "note": 56,
      "start": 1.5791,
      "duration": 0.0229,
      "velocity": 89,
      "chip": "ym2612"
    },
    {
      "channel": 1,
      "note": 68,
      "start": 1.5794,
      "duration": 0.0229,
      "velocity": 108,
      "chip": "ym2612"
    },
    {
      "channel": 3,
      "note": 76,
      "start": 1.5797,
      "duration": 0.0228,
      "velocity": 108,
      "chip": "ym2612"
    },
    {
      "channel": 4,
      "note": 60,
      "start": 1.58,
      "duration": 0.0229,
      "velocity": 108,
      "chip": "ym2612"
    },
    {
      "channel": 0,
      "note": 58,
      "start": 1.6023,
      "duration": 0.0354,
      "velocity": 89,
      "chip": "ym2612"
    },
    {
      "channel": 1,
      "note": 65,
      "start": 1.6025,
      "duration": 0.0355,
      "velocity": 108,
      "chip": "ym2612"
    },
    {
      "channel": 3,
      "note": 70,
      "start": 1.6028,
      "duration": 0.0354,
      "velocity": 108,
      "chip": "ym2612"
    },
    {
      "channel": 4,
      "note": 58,
      "start": 1.6031,
      "duration": 0.0354,
      "velocity": 108,
      "chip": "ym2612"
    },
    {
      "channel": 0,
      "note": 58,
      "start": 1.6379,
      "duration": 0.0359,
      "velocity": 89,
      "chip": "ym2612"
    },
    {
      "channel": 1,
      "note": 65,
      "start": 1.6382,
      "duration": 0.036,
      "velocity": 108,
      "chip": "ym2612"
    },
    {
      "channel": 3,
      "note": 70,
      "start": 1.6384,
      "duration": 0.036,
      "velocity": 108,
      "chip": "ym2612"
    },
    {
      "channel": 4,
      "note": 58,
      "start": 1.6386,
      "duration": 0.036,
      "velocity": 108,
      "chip": "ym2612"
    },
    {
      "channel": 0,
      "note": 58,
      "start": 1.674,
      "duration": 0.0488,
      "velocity": 89,
      "chip": "ym2612"
    },
    {
      "channel": 1,
      "note": 65,
      "start": 1.6743,
      "duration": 0.0738,
      "velocity": 108,
      "chip": "ym2612"
    },
    {
      "channel": 3,
      "note": 70,
      "start": 1.6745,
      "duration": 0.0738,
      "velocity": 108,
      "chip": "ym2612"
    },
    {
      "channel": 4,
      "note": 58,
      "start": 1.6749,
      "duration": 0.1189,
      "velocity": 108,
      "chip": "ym2612"
    },
    {
      "channel": 0,
      "note": 53,
      "start": 1.723,
      "duration": 0.0248,
      "velocity": 89,
      "chip": "ym2612"
    },
    {
      "channel": 0,
      "note": 56,
      "start": 1.748,
      "duration": 0.0202,
      "velocity": 89,
      "chip": "ym2612"
    },
    {
      "channel": 0,
      "note": 58,
      "start": 1.7684,
      "duration": 0.0244,
      "velocity": 89,
      "chip": "ym2612"
    },
    {
      "channel": 1,
      "note": 67,
      "start": 1.7687,
      "duration": 0.0115,
      "velocity": 108,
      "chip": "ym2612"
    },
    {
      "channel": 3,
      "note": 64,
      "start": 1.7689,
      "duration": 0.0118,
      "velocity": 108,
      "chip": "ym2612"
    },
    {
      "channel": 1,
      "note": 68,
      "start": 1.7806,
      "duration": 0.0125,
      "velocity": 108,
      "chip": "ym2612"
    },
    {
      "channel": 3,
      "note": 65,
      "start": 1.7809,
      "duration": 0.0125,
      "velocity": 108,
      "chip": "ym2612"
    },
    {
      "channel": 0,
      "note": 60,
      "start": 1.793,
      "duration": 0.0349,
      "velocity": 89,
      "chip": "ym2612"
    },
    {
      "channel": 1,
      "note": 67,
      "start": 1.7933,
      "duration": 0.0349,
      "velocity": 108,
      "chip": "ym2612"
    },
    {
      "channel": 3,
      "note": 64,
      "start": 1.7937,
      "duration": 0.0349,
      "velocity": 108,
      "chip": "ym2612"
    },
    {
      "channel": 4,
      "note": 60,
      "start": 1.794,
      "duration": 0.0347,
      "velocity": 108,
      "chip": "ym2612"
    },
    {
      "channel": 0,
      "note": 60,
      "start": 1.8281,
      "duration": 0.035,
      "velocity": 89,
      "chip": "ym2612"
    },
    {
      "channel": 1,
      "note": 67,
      "start": 1.8284,
      "duration": 0.035,
      "velocity": 108,
      "chip": "ym2612"
    },
    {
      "channel": 3,
      "note": 64,
      "start": 1.8287,
      "duration": 0.035,
      "velocity": 108,
      "chip": "ym2612"
    },
    {
      "channel": 4,
      "note": 60,
      "start": 1.829,
      "duration": 0.035,
      "velocity": 108,
      "chip": "ym2612"
    },
    {
      "channel": 0,
      "note": 60,
      "start": 1.8633,
      "duration": 0.0475,
      "velocity": 89,
      "chip": "ym2612"
    },
    {
      "channel": 1,
      "note": 67,
      "start": 1.8636,
      "duration": 0.0732,
      "velocity": 108,
      "chip": "ym2612"
    },
    {
      "channel": 3,
      "note": 64,
      "start": 1.8639,
      "duration": 0.0731,
      "velocity": 108,
      "chip": "ym2612"
    },
    {
      "channel": 4,
      "note": 60,
      "start": 1.8641,
      "duration": 0.1183,
      "velocity": 108,
      "chip": "ym2612"
    },
    {
      "channel": 0,
      "note": 55,
      "start": 1.911,
      "duration": 0.0255,
      "velocity": 89,
      "chip": "ym2612"
    },
    {
      "channel": 0,
      "note": 60,
      "start": 1.9367,
      "duration": 0.0201,
      "velocity": 89,
      "chip": "ym2612"
    },
    {
      "channel": 0,
      "note": 58,
      "start": 1.957,
      "duration": 0.0246,
      "velocity": 89,
      "chip": "ym2612"
    },
    {
      "channel": 1,
      "note": 68,
      "start": 1.9573,
      "duration": 0.0119,
      "velocity": 108,
      "chip": "ym2612"
    },
    {
      "channel": 3,
      "note": 72,
      "start": 1.9576,
      "duration": 0.0119,
      "velocity": 108,
      "chip": "ym2612"
    },
    {
      "channel": 1,
      "note": 70,
      "start": 1.9695,
      "duration": 0.0124,
      "velocity": 108,
      "chip": "ym2612"
    },
    {
      "channel": 3,
      "note": 73,
      "start": 1.9698,
      "duration": 0.0123,
      "velocity": 108,
      "chip": "ym2612"
    },
    {
      "channel": 0,
      "note": 56,
      "start": 1.9818,
      "duration": 0.0347,
      "velocity": 89,
      "chip": "ym2612"
    },
    {
      "channel": 1,
      "note": 68,
      "start": 1.982,
      "duration": 0.0347,
      "velocity": 108,
      "chip": "ym2612"
    },
    {
      "channel": 3,
      "note": 72,
      "start": 1.9823,
      "duration": 0.0348,
      "velocity": 108,
      "chip": "ym2612"
    },
    {
      "channel": 4,
      "note": 56,
      "start": 1.9826,
      "duration": 0.0349,
      "velocity": 108,
      "chip": "ym2612"
    },
    {
      "channel": 0,
      "note": 56,
      "start": 2.0167,
      "duration": 0.034,
      "velocity": 89,
      "chip": "ym2612"
    },
    {
      "channel": 1,
      "note": 68,
      "start": 2.017,
      "duration": 0.034,
      "velocity": 108,
      "chip": "ym2612"
    },
    {
      "channel": 3,
      "note": 72,
      "start": 2.0173,
      "duration": 0.034,
      "velocity": 108,
      "chip": "ym2612"
    },
    {
      "channel": 4,
      "note": 56,
      "start": 2.0175,
      "duration": 0.0341,
      "velocity": 108,
      "chip": "ym2612"
    },
    {
      "channel": 0,
      "note": 56,
      "start": 2.0509,
      "duration": 0.048,
      "velocity": 89,
      "chip": "ym2612"
    },
    {
      "channel": 1,
      "note": 68,
      "start": 2.0512,
      "duration": 0.074,
      "velocity": 108,
      "chip": "ym2612"
    },
    {
      "channel": 3,
      "note": 72,
      "start": 2.0516,
      "duration": 0.0738,
      "velocity": 108,
      "chip": "ym2612"
    },
    {
      "channel": 4,
      "note": 56,
      "start": 2.0517,
      "duration": 0.1178,
      "velocity": 108,
      "chip": "ym2612"
    },
    {
      "channel": 0,
      "note": 51,
      "start": 2.0992,
      "duration": 0.0257,
      "velocity": 89,
      "chip": "ym2612"
    },
    {
      "channel": 0,
      "note": 55,
      "start": 2.1251,
      "duration": 0.0197,
      "velocity": 89,
      "chip": "ym2612"
    },
    {
      "channel": 0,
      "note": 56,
      "start": 2.1451,
      "duration": 0.0235,
      "velocity": 89,
      "chip": "ym2612"
    },
    {
      "channel": 1,
      "note": 70,
      "start": 2.1454,
      "duration": 0.012,
      "velocity": 108,
      "chip": "ym2612"
    },
    {
      "channel": 3,
      "note": 67,
      "start": 2.1457,
      "duration": 0.0121,
      "velocity": 108,
      "chip": "ym2612"
    },
    {
      "channel": 1,
      "note": 72,
      "start": 2.1577,
      "duration": 0.0111,
      "velocity": 108,
      "chip": "ym2612"
    },
    {
      "channel": 3,
      "note": 68,
      "start": 2.158,
      "duration": 0.0111,
      "velocity": 108,
      "chip": "ym2612"
    },
    {
      "channel": 0,
      "note": 58,
      "start": 2.1688,
      "duration": 0.0354,
      "velocity": 89,
      "chip": "ym2612"
    },
    {
      "channel": 1,
      "note": 70,
      "start": 2.1691,
      "duration": 0.0701,
      "velocity": 108,
      "chip": "ym2612"
    },
    {
      "channel": 3,
      "note": 67,
      "start": 2.1694,
      "duration": 0.0701,
      "velocity": 108,
      "chip": "ym2612"
    },
    {
      "channel": 4,
      "note": 58,
      "start": 2.1697,
      "duration": 0.035,
      "velocity": 108,
      "chip": "ym2612"
    },
    {
      "channel": 0,
      "note": 58,
      "start": 2.2043,
      "duration": 0.0346,
      "velocity": 89,
      "chip": "ym2612"
    },
    {
      "channel": 4,
      "note": 58,
      "start": 2.205,
      "duration": 0.0348,
      "velocity": 108,
      "chip": "ym2612"
    },
    {
      "channel": 0,
      "note": 58,
      "start": 2.2391,
      "duration": 0.0476,
      "velocity": 89,
      "chip": "ym2612"
    },
    {
      "channel": 1,
      "note": 68,
      "start": 2.2394,
      "duration": 0.0243,
      "velocity": 108,
      "chip": "ym2612"
    },
    {
      "channel": 3,
      "note": 65,
      "start": 2.2398,
      "duration": 0.0243,
      "velocity": 108,
      "chip": "ym2612"
    },
    {
      "channel": 4,
      "note": 58,
      "start": 2.24,
      "duration": 0.1197,
      "velocity": 108,
      "chip": "ym2612"
    },
    {
      "channel": 1,
      "note": 67,
      "start": 2.2639,
      "duration": 0.0352,
      "velocity": 108,
      "chip": "ym2612"
    },
    {
      "channel": 3,
      "note": 64,
      "start": 2.2642,
      "duration": 0.0352,
      "velocity": 108,
      "chip": "ym2612"
    },
    {
      "channel": 0,
      "note": 56,
      "start": 2.287,
      "duration": 0.0246,
      "velocity": 89,
      "chip": "ym2612"
    },
    {
      "channel": 1,
      "note": 65,
      "start": 2.2993,
      "duration": 0.0361,
      "velocity": 108,
      "chip": "ym2612"
    },
    {
      "channel": 3,
      "note": 62,
      "start": 2.2995,
      "duration": 0.0362,
      "velocity": 108,
      "chip": "ym2612"
    },
    {
      "channel": 0,
      "note": 55,
      "start": 2.3119,
      "duration": 0.0233,
      "velocity": 89,
      "chip": "ym2612"
    },
    {
      "channel": 0,
      "note": 51,
      "start": 2.3354,
      "duration": 0.0234,
      "velocity": 89,
      "chip": "ym2612"
    },
    {
      "channel": 1,
      "note": 64,
      "start": 2.3357,
      "duration": 0.0233,
      "velocity": 108,
      "chip": "ym2612"
    },
    {
      "channel": 3,
      "note": 60,
      "start": 2.336,
      "duration": 0.0234,
      "velocity": 108,
      "chip": "ym2612"
    },
    {
      "channel": 0,
      "note": 49,
      "start": 2.359,
      "duration": 0.0359,
      "velocity": 89,
      "chip": "ym2612"
    },
    {
      "channel": 1,
      "note": 65,
      "start": 2.3593,
      "duration": 0.0357,
      "velocity": 108,
      "chip": "ym2612"
    },
    {
      "channel": 3,
      "note": 73,
      "start": 2.3596,
      "duration": 0.0358,
      "velocity": 108,
      "chip": "ym2612"
    },
    {
      "channel": 4,
      "note": 61,
      "start": 2.3599,
      "duration": 0.0358,
      "velocity": 108,
      "chip": "ym2612"
    },
    {
      "channel": 0,
      "note": 49,
      "start": 2.395,
      "duration": 0.0352,
      "velocity": 89,
      "chip": "ym2612"
    },
    {
      "channel": 1,
      "note": 65,
      "start": 2.3953,
      "duration": 0.0351,
      "velocity": 108,
      "chip": "ym2612"
    },
    {
      "channel": 3,
      "note": 73,
      "start": 2.3956,
      "duration": 0.0351,
      "velocity": 108,
      "chip": "ym2612"
    },
    {
      "channel": 4,
      "note": 61,
      "start": 2.3959,
      "duration": 0.035,
      "velocity": 108,
      "chip": "ym2612"
    },
    {
      "channel": 0,
      "note": 49,
      "start": 2.4303,
      "duration": 0.0483,
      "velocity": 89,
      "chip": "ym2612"
    },
    {
      "channel": 1,
      "note": 65,
      "start": 2.4306,
      "duration": 0.0742,
      "velocity": 108,
      "chip": "ym2612"
    },
    {
      "channel": 3,
      "note": 73,
      "start": 2.4308,
      "duration": 0.0742,
      "velocity": 108,
      "chip": "ym2612"
    },
    {
      "channel": 4,
      "note": 61,
      "start": 2.4311,
      "duration": 0.0481,
      "velocity": 108,
      "chip": "ym2612"
    },
    {
      "channel": 0,
      "note": 53,
      "start": 2.4788,
      "duration": 0.0258,
      "velocity": 89,
      "chip": "ym2612"
    },
    {
      "channel": 4,
      "note": 60,
      "start": 2.4795,
      "duration": 0.0256,
      "velocity": 108,
      "chip": "ym2612"
    },
    {
      "channel": 0,
      "note": 49,
      "start": 2.5047,
      "duration": 0.0208,
      "velocity": 89,
      "chip": "ym2612"
    },
    {
      "channel": 4,
      "note": 61,
      "start": 2.5054,
      "duration": 0.0212,
      "velocity": 108,
      "chip": "ym2612"
    },
    {
      "channel": 0,
      "note": 50,
      "start": 2.5258,
      "duration": 0.0241,
      "velocity": 89,
      "chip": "ym2612"
    },
    {
      "channel": 1,
      "note": 67,
      "start": 2.5261,
      "duration": 0.0113,
      "velocity": 108,
      "chip": "ym2612"
    },
    {
      "channel": 3,
      "note": 75,
      "start": 2.5264,
      "duration": 0.0113,
      "velocity": 108,
      "chip": "ym2612"
    },
    {
      "channel": 4,
      "note": 62,
      "start": 2.5267,
      "duration": 0.0241,
      "velocity": 108,
      "chip": "ym2612"
    },
    {
      "channel": 1,
      "note": 68,
      "start": 2.5376,
      "duration": 0.0127,
      "velocity": 108,
      "chip": "ym2612"
    },
    {
      "channel": 3,
      "note": 77,
      "start": 2.5379,
      "duration": 0.0126,
      "velocity": 108,
      "chip": "ym2612"
    },
    {
      "channel": 0,
      "note": 51,
      "start": 2.5502,
      "duration": 0.0349,
      "velocity": 89,
      "chip": "ym2612"
    },
    {
      "channel": 1,
      "note": 67,
      "start": 2.5504,
      "duration": 0.0349,
      "velocity": 108,
      "chip": "ym2612"
    },
    {
      "channel": 3,
      "note": 75,
      "start": 2.5507,
      "duration": 0.0349,
      "velocity": 108,
      "chip": "ym2612"
    },
    {
      "channel": 4,
      "note": 63,
      "start": 2.5509,
      "duration": 0.0349,
      "velocity": 108,
      "chip": "ym2612"
    },
    {
      "channel": 0,
      "note": 51,
      "start": 2.5853,
      "duration": 0.0355,
      "velocity": 89,
      "chip": "ym2612"
    },
    {
      "channel": 1,
      "note": 67,
      "start": 2.5856,
      "duration": 0.0354,
      "velocity": 108,
      "chip": "ym2612"
    },
    {
      "channel": 3,
      "note": 75,
      "start": 2.5858,
      "duration": 0.0356,
      "velocity": 108,
      "chip": "ym2612"
    },
    {
      "channel": 4,
      "note": 63,
      "start": 2.5862,
      "duration": 0.0354,
      "velocity": 108,
      "chip": "ym2612"
    },
    {
      "channel": 0,
      "note": 51,
      "start": 2.621,
      "duration": 0.0473,
      "velocity": 89,
      "chip": "ym2612"
    },
    {
      "channel": 1,
      "note": 67,
      "start": 2.6213,
      "duration": 0.0716,
      "velocity": 108,
      "chip": "ym2612"
    },
    {
      "channel": 3,
      "note": 75,
      "start": 2.6215,
      "duration": 0.0716,
      "velocity": 108,
      "chip": "ym2612"
    },
    {
      "channel": 4,
      "note": 63,
      "start": 2.6219,
      "duration": 0.047,
      "velocity": 108,
      "chip": "ym2612"
    },
    {
      "channel": 0,
      "note": 55,
      "start": 2.6685,
      "duration": 0.0241,
      "velocity": 89,
      "chip": "ym2612"
    },
    {
      "channel": 4,
      "note": 61,
      "start": 2.6691,
      "duration": 0.0241,
      "velocity": 108,
      "chip": "ym2612"
    },
    {
      "channel": 0,
      "note": 51,
      "start": 2.6929,
      "duration": 0.0199,
      "velocity": 89,
      "chip": "ym2612"
    },
    {
      "channel": 4,
      "note": 63,
      "start": 2.6934,
      "duration": 0.0203,
      "velocity": 108,
      "chip": "ym2612"
    },
    {
      "channel": 0,
      "note": 52,
      "start": 2.713,
      "duration": 0.0248,
      "velocity": 89,
      "chip": "ym2612"
    },
    {
      "channel": 1,
      "note": 69,
      "start": 2.7134,
      "duration": 0.0115,
      "velocity": 108,
      "chip": "ym2612"
    },
    {
      "channel": 3,
      "note": 77,
      "start": 2.7137,
      "duration": 0.0115,
      "velocity": 108,
      "chip": "ym2612"
    },
    {
      "channel": 4,
      "note": 64,
      "start": 2.714,
      "duration": 0.0248,
      "velocity": 108,
      "chip": "ym2612"
    },
    {
      "channel": 1,
      "note": 70,
      "start": 2.7251,
      "duration": 0.013,
      "velocity": 108,
      "chip": "ym2612"
    },
    {
      "channel": 3,
      "note": 79,
      "start": 2.7255,
      "duration": 0.0129,
      "velocity": 108,
      "chip": "ym2612"
    },
    {
      "channel": 0,
      "note": 53,
      "start": 2.7381,
      "duration": 0.1837,
      "velocity": 89,
      "chip": "ym2612"
    },
    {
      "channel": 1,
      "note": 69,
      "start": 2.7383,
      "duration": 0.1383,
      "velocity": 108,
      "chip": "ym2612"
    },
    {
      "channel": 3,
      "note": 77,
      "start": 2.7387,
      "duration": 0.1382,
      "velocity": 108,
      "chip": "ym2612"
    },
    {
      "channel": 4,
      "note": 65,
      "start": 2.7389,
      "duration": 0.1382,
      "velocity": 108,
      "chip": "ym2612"
    },
    {
      "channel": 1,
      "note": 69,
      "start": 2.8766,
      "duration": 0.0455,
      "velocity": 108,
      "chip": "ym2612"
    },
    {
      "channel": 3,
      "note": 77,
      "start": 2.8769,
      "duration": 0.0454,
      "velocity": 108,
      "chip": "ym2612"
    },
    {
      "channel": 4,
      "note": 65,
      "start": 2.8771,
      "duration": 0.0456,
      "velocity": 108,
      "chip": "ym2612"
    },
    {
      "channel": 0,
      "note": 53,
      "start": 2.9218,
      "duration": 0.1307,
      "velocity": 89,
      "chip": "ym2612"
    },
    {
      "channel": 1,
      "note": 81,
      "start": 2.9221,
      "duration": 0.1306,
      "velocity": 108,
      "chip": "ym2612"
    },
    {
      "channel": 3,
      "note": 89,
      "start": 2.9223,
      "duration": 0.1306,
      "velocity": 108,
      "chip": "ym2612"
    },
    {
      "channel": 4,
      "note": 77,
      "start": 2.9226,
      "duration": 0.1303,
      "velocity": 108,
      "chip": "ym2612"
    },
    {
      "channel": 0,
      "note": 53,
      "start": 3.0897,
      "duration": 0.0249,
      "velocity": 89,
      "chip": "ym2612"
    },
    {
      "channel": 3,
      "note": 41,
      "start": 3.0912,
      "duration": 0.0241,
      "velocity": 101,
      "chip": "ym2612"
    },
    {
      "channel": 4,
      "note": 53,
      "start": 3.0923,
      "duration": 0.0233,
      "velocity": 101,
      "chip": "ym2612"
    },
    {
      "channel": 0,
      "note": 65,
      "start": 3.115,
      "duration": 0.0242,
      "velocity": 89,
      "chip": "ym2612"
    },
    {
      "channel": 1,
      "note": 65,
      "start": 3.1153,
      "duration": 23.7665,
      "velocity": 108,
      "chip": "ym2612"
    },
    {
      "channel": 3,
      "note": 53,
      "start": 3.1156,
      "duration": 0.0241,
      "velocity": 101,
      "chip": "ym2612"
    },
    {
      "channel": 4,
      "note": 60,
      "start": 3.1158,
      "duration": 0.0242,
      "velocity": 101,
      "chip": "ym2612"
    },
    {
      "channel": 0,
      "note": 53,
      "start": 3.1394,
      "duration": 0.0218,
      "velocity": 89,
      "chip": "ym2612"
    },
    {
      "channel": 3,
      "note": 41,
      "start": 3.1399,
      "duration": 0.0081,
      "velocity": 101,
      "chip": "ym2612"
    },
    {
      "channel": 4,
      "note": 53,
      "start": 3.1401,
      "duration": 0.008,
      "velocity": 101,
      "chip": "ym2612"
    },
    {
      "channel": 3,
      "note": 41,
      "start": 3.1522,
      "duration": 0.0058,
      "velocity": 101,
      "chip": "ym2612"
    },
    {
      "channel": 4,
      "note": 53,
      "start": 3.1524,
      "duration": 0.0058,
      "velocity": 101,
      "chip": "ym2612"
    },
    {
      "channel": 0,
      "note": 53,
      "start": 3.1613,
      "duration": 23.7204,
      "velocity": 89,
      "chip": "ym2612"
    },
    {
      "channel": 3,
      "note": 41,
      "start": 3.1618,
      "duration": 23.72,
      "velocity": 101,
      "chip": "ym2612"
    },
    {
      "channel": 4,
      "note": 53,
      "start": 3.162,
      "duration": 23.7197,
      "velocity": 101,
      "chip": "ym2612"
    }
  ]
}