{
  "track_name": "06 - Last Dance",
  "duration_sec": 86.46,
  "sample_rate": 44100,
  "note_count": 1522,
  "unique_pitches": 31,
  "pitch_range": 52,
  "avg_note_duration": 0.1998,
  "reconstruction_stats": {
    "notes_reconstructed": 1522,
    "keyon_events": 1522,
    "keyoff_events": 1522,
    "orphan_keyons": 0,
    "unique_pitches": 31,
    "pitch_range": 52,
    "avg_duration_sec": 0.1998
  },
  "metadata": {
    "source": "H\\Hellfire\\06 - Last Dance.vgm"
  },
  "notes": [
    {
      "channel": 5,
      "note": 54,
      "start": 0.0643,
      "duration": 0.1183,
      "velocity": 111,
      "chip": "ym2612"
    },
    {
      "channel": 3,
      "note": 66,
      "start": 0.0644,
      "duration": 1.1443,
      "velocity": 93,
      "chip": "ym2612"
    },
    {
      "channel": 1,
      "note": 54,
      "start": 0.0644,
      "duration": 0.1183,
      "velocity": 87,
      "chip": "ym2612"
    },
    {
      "channel": 2,
      "note": 81,
      "start": 0.0644,
      "duration": 1.1442,
      "velocity": 93,
      "chip": "ym2612"
    },
    {
      "channel": 5,
      "note": 54,
      "start": 0.3107,
      "duration": 0.1284,
      "velocity": 111,
      "chip": "ym2612"
    },
    {
      "channel": 1,
      "note": 54,
      "start": 0.3109,
      "duration": 0.1273,
      "velocity": 87,
      "chip": "ym2612"
    },
    {
      "channel": 4,
      "note": 54,
      "start": 0.4392,
      "duration": 0.3846,
      "velocity": 127,
      "chip": "ym2612"
    },
    {
      "channel": 1,
      "note": 54,
      "start": 0.4394,
      "duration": 0.128,
      "velocity": 87,
      "chip": "ym2612"
    },
    {
      "channel": 5,
      "note": 54,
      "start": 0.6954,
      "duration": 0.1277,
      "velocity": 111,
      "chip": "ym2612"
    },
    {
      "channel": 1,
      "note": 54,
      "start": 0.6955,
      "duration": 0.1277,
      "velocity": 87,
      "chip": "ym2612"
    },
    {
      "channel": 5,
      "note": 54,
      "start": 0.8238,
      "duration": 0.1281,
      "velocity": 111,
      "chip": "ym2612"
    },
    {
      "channel": 1,
      "note": 54,
      "start": 0.824,
      "duration": 0.128,
      "velocity": 87,
      "chip": "ym2612"
    },
    {
      "channel": 5,
      "note": 54,
      "start": 1.08,
      "duration": 0.1286,
      "velocity": 111,
      "chip": "ym2612"
    },
    {
      "channel": 1,
      "note": 54,
      "start": 1.0802,
      "duration": 0.1278,
      "velocity": 87,
      "chip": "ym2612"
    },
    {
      "channel": 4,
      "note": 54,
      "start": 1.2086,
      "duration": 0.3851,
      "velocity": 127,
      "chip": "ym2612"
    },
    {
      "channel": 1,
      "note": 54,
      "start": 1.2087,
      "duration": 0.1278,
      "velocity": 87,
      "chip": "ym2612"
    },
    {
      "channel": 5,
      "note": 54,
      "start": 1.4646,
      "duration": 0.1283,
      "velocity": 111,
      "chip": "ym2612"
    },
    {
      "channel": 1,
      "note": 54,
      "start": 1.4648,
      "duration": 0.1282,
      "velocity": 87,
      "chip": "ym2612"
    },
    {
      "channel": 5,
      "note": 54,
      "start": 1.5936,
      "duration": 0.1275,
      "velocity": 111,
      "chip": "ym2612"
    },
    {
      "channel": 1,
      "note": 50,
      "start": 1.5937,
      "duration": 0.1274,
      "velocity": 87,
      "chip": "ym2612"
    },
    {
      "channel": 5,
      "note": 54,
      "start": 1.8497,
      "duration": 0.1281,
      "velocity": 111,
      "chip": "ym2612"
    },
    {
      "channel": 2,
      "note": 78,
      "start": 1.8498,
      "duration": 0.1281,
      "velocity": 93,
      "chip": "ym2612"
    },
    {
      "channel": 3,
      "note": 62,
      "start": 1.8498,
      "duration": 0.128,
      "velocity": 93,
      "chip": "ym2612"
    },
    {
      "channel": 1,
      "note": 50,
      "start": 1.8499,
      "duration": 0.1273,
      "velocity": 87,
      "chip": "ym2612"
    },
    {
      "channel": 4,
      "note": 54,
      "start": 1.9778,
      "duration": 0.3849,
      "velocity": 127,
      "chip": "ym2612"
    },
    {
      "channel": 1,
      "note": 50,
      "start": 1.978,
      "duration": 0.128,
      "velocity": 87,
      "chip": "ym2612"
    },
    {
      "channel": 5,
      "note": 54,
      "start": 2.2339,
      "duration": 0.1281,
      "velocity": 111,
      "chip": "ym2612"
    },
    {
      "channel": 3,
      "note": 62,
      "start": 2.2339,
      "duration": 0.1288,
      "velocity": 93,
      "chip": "ym2612"
    },
    {
      "channel": 2,
      "note": 78,
      "start": 2.234,
      "duration": 0.1288,
      "velocity": 93,
      "chip": "ym2612"
    },
    {
      "channel": 1,
      "note": 50,
      "start": 2.2341,
      "duration": 0.128,
      "velocity": 87,
      "chip": "ym2612"
    },
    {
      "channel": 5,
      "note": 54,
      "start": 2.3627,
      "duration": 0.1276,
      "velocity": 111,
      "chip": "ym2612"
    },
    {
      "channel": 1,
      "note": 52,
      "start": 2.3628,
      "duration": 0.1276,
      "velocity": 87,
      "chip": "ym2612"
    },
    {
      "channel": 5,
      "note": 54,
      "start": 2.6185,
      "duration": 0.1289,
      "velocity": 111,
      "chip": "ym2612"
    },
    {
      "channel": 3,
      "note": 62,
      "start": 2.6186,
      "duration": 0.1282,
      "velocity": 93,
      "chip": "ym2612"
    },
    {
      "channel": 2,
      "note": 78,
      "start": 2.6187,
      "duration": 0.1281,
      "velocity": 93,
      "chip": "ym2612"
    },
    {
      "channel": 1,
      "note": 52,
      "start": 2.6188,
      "duration": 0.1281,
      "velocity": 87,
      "chip": "ym2612"
    },
    {
      "channel": 3,
      "note": 64,
      "start": 2.7475,
      "duration": 0.3844,
      "velocity": 93,
      "chip": "ym2612"
    },
    {
      "channel": 4,
      "note": 54,
      "start": 2.7475,
      "duration": 0.1263,
      "velocity": 127,
      "chip": "ym2612"
    },
    {
      "channel": 2,
      "note": 80,
      "start": 2.7476,
      "duration": 0.3844,
      "velocity": 93,
      "chip": "ym2612"
    },
    {
      "channel": 1,
      "note": 52,
      "start": 2.7476,
      "duration": 0.1274,
      "velocity": 87,
      "chip": "ym2612"
    },
    {
      "channel": 4,
      "note": 54,
      "start": 2.8749,
      "duration": 0.1273,
      "velocity": 127,
      "chip": "ym2612"
    },
    {
      "channel": 5,
      "note": 54,
      "start": 3.0031,
      "duration": 0.1287,
      "velocity": 111,
      "chip": "ym2612"
    },
    {
      "channel": 4,
      "note": 54,
      "start": 3.0032,
      "duration": 0.1294,
      "velocity": 127,
      "chip": "ym2612"
    },
    {
      "channel": 1,
      "note": 52,
      "start": 3.0033,
      "duration": 0.1286,
      "velocity": 87,
      "chip": "ym2612"
    },
    {
      "channel": 5,
      "note": 54,
      "start": 3.1325,
      "duration": 0.127,
      "velocity": 111,
      "chip": "ym2612"
    },
    {
      "channel": 2,
      "note": 81,
      "start": 3.1326,
      "duration": 1.1527,
      "velocity": 93,
      "chip": "ym2612"
    },
    {
      "channel": 3,
      "note": 66,
      "start": 3.1326,
      "duration": 1.1527,
      "velocity": 93,
      "chip": "ym2612"
    },
    {
      "channel": 1,
      "note": 54,
      "start": 3.1327,
      "duration": 0.127,
      "velocity": 87,
      "chip": "ym2612"
    },
    {
      "channel": 5,
      "note": 54,
      "start": 3.3877,
      "duration": 0.1282,
      "velocity": 111,
      "chip": "ym2612"
    },
    {
      "channel": 1,
      "note": 54,
      "start": 3.3879,
      "duration": 0.1275,
      "velocity": 87,
      "chip": "ym2612"
    },
    {
      "channel": 4,
      "note": 54,
      "start": 3.5159,
      "duration": 0.3846,
      "velocity": 127,
      "chip": "ym2612"
    },
    {
      "channel": 1,
      "note": 54,
      "start": 3.5161,
      "duration": 0.1283,
      "velocity": 87,
      "chip": "ym2612"
    },
    {
      "channel": 5,
      "note": 54,
      "start": 3.7726,
      "duration": 0.1273,
      "velocity": 111,
      "chip": "ym2612"
    },
    {
      "channel": 1,
      "note": 54,
      "start": 3.7727,
      "duration": 0.1272,
      "velocity": 87,
      "chip": "ym2612"
    },
    {
      "channel": 5,
      "note": 54,
      "start": 3.9005,
      "duration": 0.1282,
      "velocity": 111,
      "chip": "ym2612"
    },
    {
      "channel": 1,
      "note": 54,
      "start": 3.9007,
      "duration": 0.1283,
      "velocity": 87,
      "chip": "ym2612"
    },
    {
      "channel": 5,
      "note": 54,
      "start": 4.157,
      "duration": 0.1282,
      "velocity": 111,
      "chip": "ym2612"
    },
    {
      "channel": 1,
      "note": 54,
      "start": 4.1571,
      "duration": 0.1276,
      "velocity": 87,
      "chip": "ym2612"
    },
    {
      "channel": 4,
      "note": 54,
      "start": 4.2853,
      "duration": 0.3849,
      "velocity": 127,
      "chip": "ym2612"
    },
    {
      "channel": 1,
      "note": 54,
      "start": 4.2854,
      "duration": 0.1281,
      "velocity": 87,
      "chip": "ym2612"
    },
    {
      "channel": 5,
      "note": 54,
      "start": 4.5416,
      "duration": 0.1286,
      "velocity": 111,
      "chip": "ym2612"
    },
    {
      "channel": 1,
      "note": 54,
      "start": 4.5418,
      "duration": 0.1286,
      "velocity": 87,
      "chip": "ym2612"
    },
    {
      "channel": 4,
      "note": 54,
      "start": 4.6709,
      "duration": 0.1268,
      "velocity": 127,
      "chip": "ym2612"
    },
    {
      "channel": 5,
      "note": 54,
      "start": 4.6709,
      "duration": 0.1276,
      "velocity": 111,
      "chip": "ym2612"
    },
    {
      "channel": 2,
      "note": 97,
      "start": 4.671,
      "duration": 0.1269,
      "velocity": 93,
      "chip": "ym2612"
    },
    {
      "channel": 3,
      "note": 73,
      "start": 4.671,
      "duration": 0.1268,
      "velocity": 93,
      "chip": "ym2612"
    },
    {
      "channel": 1,
      "note": 50,
      "start": 4.671,
      "duration": 0.1276,
      "velocity": 87,
      "chip": "ym2612"
    },
    {
      "channel": 3,
      "note": 71,
      "start": 4.7985,
      "duration": 0.1278,
      "velocity": 93,
      "chip": "ym2612"
    },
    {
      "channel": 4,
      "note": 54,
      "start": 4.7985,
      "duration": 0.1278,
      "velocity": 127,
      "chip": "ym2612"
    },
    {
      "channel": 2,
      "note": 95,
      "start": 4.7986,
      "duration": 0.1278,
      "velocity": 93,
      "chip": "ym2612"
    },
    {
      "channel": 4,
      "note": 54,
      "start": 4.927,
      "duration": 0.1272,
      "velocity": 127,
      "chip": "ym2612"
    },
    {
      "channel": 5,
      "note": 54,
      "start": 4.927,
      "duration": 0.1279,
      "velocity": 111,
      "chip": "ym2612"
    },
    {
      "channel": 2,
      "note": 93,
      "start": 4.9271,
      "duration": 0.1273,
      "velocity": 93,
      "chip": "ym2612"
    },
    {
      "channel": 3,
      "note": 69,
      "start": 4.9271,
      "duration": 0.1272,
      "velocity": 93,
      "chip": "ym2612"
    },
    {
      "channel": 1,
      "note": 50,
      "start": 4.9271,
      "duration": 0.1272,
      "velocity": 87,
      "chip": "ym2612"
    },
    {
      "channel": 4,
      "note": 54,
      "start": 5.055,
      "duration": 0.1272,
      "velocity": 127,
      "chip": "ym2612"
    },
    {
      "channel": 2,
      "note": 95,
      "start": 5.0551,
      "duration": 0.1272,
      "velocity": 93,
      "chip": "ym2612"
    },
    {
      "channel": 3,
      "note": 71,
      "start": 5.0551,
      "duration": 0.1272,
      "velocity": 93,
      "chip": "ym2612"
    },
    {
      "channel": 1,
      "note": 52,
      "start": 5.0551,
      "duration": 0.1279,
      "velocity": 87,
      "chip": "ym2612"
    },
    {
      "channel": 4,
      "note": 54,
      "start": 5.1829,
      "duration": 0.128,
      "velocity": 127,
      "chip": "ym2612"
    },
    {
      "channel": 2,
      "note": 93,
      "start": 5.183,
      "duration": 0.128,
      "velocity": 93,
      "chip": "ym2612"
    },
    {
      "channel": 3,
      "note": 69,
      "start": 5.183,
      "duration": 0.1279,
      "velocity": 93,
      "chip": "ym2612"
    },
    {
      "channel": 4,
      "note": 54,
      "start": 5.3116,
      "duration": 0.1278,
      "velocity": 127,
      "chip": "ym2612"
    },
    {
      "channel": 5,
      "note": 54,
      "start": 5.3116,
      "duration": 0.1278,
      "velocity": 111,
      "chip": "ym2612"
    },
    {
      "channel": 2,
      "note": 92,
      "start": 5.3117,
      "duration": 0.1279,
      "velocity": 93,
      "chip": "ym2612"
    },
    {
      "channel": 3,
      "note": 68,
      "start": 5.3117,
      "duration": 0.1278,
      "velocity": 93,
      "chip": "ym2612"
    },
    {
      "channel": 1,
      "note": 52,
      "start": 5.3117,
      "duration": 0.1279,
      "velocity": 87,
      "chip": "ym2612"
    },
    {
      "channel": 4,
      "note": 54,
      "start": 5.4402,
      "duration": 0.1265,
      "velocity": 127,
      "chip": "ym2612"
    },
    {
      "channel": 5,
      "note": 54,
      "start": 5.4402,
      "duration": 0.1272,
      "velocity": 111,
      "chip": "ym2612"
    },
    {
      "channel": 2,
      "note": 93,
      "start": 5.4403,
      "duration": 0.1265,
      "velocity": 93,
      "chip": "ym2612"
    },
    {
      "channel": 3,
      "note": 69,
      "start": 5.4403,
      "duration": 0.1265,
      "velocity": 93,
      "chip": "ym2612"
    },
    {
      "channel": 1,
      "note": 50,
      "start": 5.4404,
      "duration": 0.1272,
      "velocity": 87,
      "chip": "ym2612"
    },
    {
      "channel": 4,
      "note": 54,
      "start": 5.5675,
      "duration": 0.128,
      "velocity": 127,
      "chip": "ym2612"
    },
    {
      "channel": 2,
      "note": 95,
      "start": 5.5676,
      "duration": 0.128,
      "velocity": 93,
      "chip": "ym2612"
    },
    {
      "channel": 3,
      "note": 71,
      "start": 5.5676,
      "duration": 0.128,
      "velocity": 93,
      "chip": "ym2612"
    },
    {
      "channel": 4,
      "note": 54,
      "start": 5.6962,
      "duration": 0.1275,
      "velocity": 127,
      "chip": "ym2612"
    },
    {
      "channel": 5,
      "note": 54,
      "start": 5.6962,
      "duration": 0.1282,
      "velocity": 111,
      "chip": "ym2612"
    },
    {
      "channel": 2,
      "note": 93,
      "start": 5.6963,
      "duration": 0.1275,
      "velocity": 93,
      "chip": "ym2612"
    },
    {
      "channel": 3,
      "note": 69,
      "start": 5.6963,
      "duration": 0.1275,
      "velocity": 93,
      "chip": "ym2612"
    },
    {
      "channel": 1,
      "note": 50,
      "start": 5.6963,
      "duration": 0.1276,
      "velocity": 87,
      "chip": "ym2612"
    },
    {
      "channel": 3,
      "note": 68,
      "start": 5.8245,
      "duration": 0.1267,
      "velocity": 93,
      "chip": "ym2612"
    },
    {
      "channel": 4,
      "note": 54,
      "start": 5.8245,
      "duration": 0.1267,
      "velocity": 127,
      "chip": "ym2612"
    },
    {
      "channel": 2,
      "note": 92,
      "start": 5.8246,
      "duration": 0.1266,
      "velocity": 93,
      "chip": "ym2612"
    },
    {
      "channel": 1,
      "note": 52,
      "start": 5.8247,
      "duration": 0.1273,
      "velocity": 87,
      "chip": "ym2612"
    },
    {
      "channel": 4,
      "note": 54,
      "start": 5.9519,
      "duration": 0.1283,
      "velocity": 127,
      "chip": "ym2612"
    },
    {
      "channel": 3,
      "note": 66,
      "start": 5.952,
      "duration": 0.1283,
      "velocity": 93,
      "chip": "ym2612"
    },
    {
      "channel": 2,
      "note": 90,
      "start": 5.952,
      "duration": 0.1283,
      "velocity": 93,
      "chip": "ym2612"
    },
    {
      "channel": 5,
      "note": 54,
      "start": 6.0808,
      "duration": 0.1277,
      "velocity": 111,
      "chip": "ym2612"
    },
    {
      "channel": 4,
      "note": 54,
      "start": 6.0809,
      "duration": 0.1283,
      "velocity": 127,
      "chip": "ym2612"
    },
    {
      "channel": 2,
      "note": 88,
      "start": 6.081,
      "duration": 0.1283,
      "velocity": 93,
      "chip": "ym2612"
    },
    {
      "channel": 3,
      "note": 64,
      "start": 6.081,
      "duration": 0.1283,
      "velocity": 93,
      "chip": "ym2612"
    },
    {
      "channel": 1,
      "note": 52,
      "start": 6.081,
      "duration": 0.1276,
      "velocity": 87,
      "chip": "ym2612"
    },
    {
      "channel": 5,
      "note": 54,
      "start": 6.2091,
      "duration": 0.1274,
      "velocity": 111,
      "chip": "ym2612"
    },
    {
      "channel": 1,
      "note": 54,
      "start": 6.2093,
      "duration": 0.1273,
      "velocity": 87,
      "chip": "ym2612"
    },
    {
      "channel": 5,
      "note": 54,
      "start": 6.4651,
      "duration": 0.1286,
      "velocity": 111,
      "chip": "ym2612"
    },
    {
      "channel": 3,
      "note": 66,
      "start": 6.4652,
      "duration": 0.1278,
      "velocity": 93,
      "chip": "ym2612"
    },
    {
      "channel": 2,
      "note": 78,
      "start": 6.4653,
      "duration": 0.1278,
      "velocity": 93,
      "chip": "ym2612"
    },
    {
      "channel": 1,
      "note": 54,
      "start": 6.4653,
      "duration": 0.1279,
      "velocity": 87,
      "chip": "ym2612"
    },
    {
      "channel": 4,
      "note": 54,
      "start": 6.5937,
      "duration": 0.3848,
      "velocity": 127,
      "chip": "ym2612"
    },
    {
      "channel": 2,
      "note": 85,
      "start": 6.5938,
      "duration": 0.2554,
      "velocity": 93,
      "chip": "ym2612"
    },
    {
      "channel": 3,
      "note": 69,
      "start": 6.5938,
      "duration": 0.2553,
      "velocity": 93,
      "chip": "ym2612"
    },
    {
      "channel": 1,
      "note": 54,
      "start": 6.5939,
      "duration": 0.1273,
      "velocity": 87,
      "chip": "ym2612"
    },
    {
      "channel": 5,
      "note": 54,
      "start": 6.8497,
      "duration": 0.128,
      "velocity": 111,
      "chip": "ym2612"
    },
    {
      "channel": 3,
      "note": 66,
      "start": 6.8498,
      "duration": 0.128,
      "velocity": 93,
      "chip": "ym2612"
    },
    {
      "channel": 2,
      "note": 78,
      "start": 6.8499,
      "duration": 0.128,
      "velocity": 93,
      "chip": "ym2612"
    },
    {
      "channel": 1,
      "note": 54,
      "start": 6.8499,
      "duration": 0.128,
      "velocity": 87,
      "chip": "ym2612"
    },
    {
      "channel": 5,
      "note": 54,
      "start": 6.9785,
      "duration": 0.1274,
      "velocity": 111,
      "chip": "ym2612"
    },
    {
      "channel": 3,
      "note": 68,
      "start": 6.9785,
      "duration": 0.2549,
      "velocity": 93,
      "chip": "ym2612"
    },
    {
      "channel": 2,
      "note": 83,
      "start": 6.9786,
      "duration": 0.2549,
      "velocity": 93,
      "chip": "ym2612"
    },
    {
      "channel": 1,
      "note": 54,
      "start": 6.9787,
      "duration": 0.1274,
      "velocity": 87,
      "chip": "ym2612"
    },
    {
      "channel": 5,
      "note": 54,
      "start": 7.2341,
      "duration": 0.1284,
      "velocity": 111,
      "chip": "ym2612"
    },
    {
      "channel": 2,
      "note": 85,
      "start": 7.2342,
      "duration": 0.1284,
      "velocity": 93,
      "chip": "ym2612"
    },
    {
      "channel": 3,
      "note": 69,
      "start": 7.2342,
      "duration": 0.1283,
      "velocity": 93,
      "chip": "ym2612"
    },
    {
      "channel": 1,
      "note": 54,
      "start": 7.2343,
      "duration": 0.1276,
      "velocity": 87,
      "chip": "ym2612"
    },
    {
      "channel": 4,
      "note": 54,
      "start": 7.3625,
      "duration": 0.3848,
      "velocity": 127,
      "chip": "ym2612"
    },
    {
      "channel": 1,
      "note": 54,
      "start": 7.3627,
      "duration": 0.1278,
      "velocity": 87,
      "chip": "ym2612"
    },
    {
      "channel": 5,
      "note": 54,
      "start": 7.6188,
      "duration": 0.1279,
      "velocity": 111,
      "chip": "ym2612"
    },
    {
      "channel": 3,
      "note": 66,
      "start": 7.6188,
      "duration": 0.1285,
      "velocity": 93,
      "chip": "ym2612"
    },
    {
      "channel": 1,
      "note": 54,
      "start": 7.6189,
      "duration": 0.1279,
      "velocity": 87,
      "chip": "ym2612"
    },
    {
      "channel": 2,
      "note": 78,
      "start": 7.6189,
      "duration": 0.1285,
      "velocity": 93,
      "chip": "ym2612"
    },
    {
      "channel": 5,
      "note": 54,
      "start": 7.7473,
      "duration": 0.1277,
      "velocity": 111,
      "chip": "ym2612"
    },
    {
      "channel": 1,
      "note": 54,
      "start": 7.7474,
      "duration": 0.1277,
      "velocity": 87,
      "chip": "ym2612"
    },
    {
      "channel": 5,
      "note": 54,
      "start": 8.0034,
      "duration": 0.1288,
      "velocity": 111,
      "chip": "ym2612"
    },
    {
      "channel": 3,
      "note": 66,
      "start": 8.0034,
      "duration": 0.128,
      "velocity": 93,
      "chip": "ym2612"
    },
    {
      "channel": 2,
      "note": 78,
      "start": 8.0035,
      "duration": 0.128,
      "velocity": 93,
      "chip": "ym2612"
    },
    {
      "channel": 1,
      "note": 54,
      "start": 8.0035,
      "duration": 0.128,
      "velocity": 87,
      "chip": "ym2612"
    },
    {
      "channel": 4,
      "note": 54,
      "start": 8.1322,
      "duration": 0.3849,
      "velocity": 127,
      "chip": "ym2612"
    },
    {
      "channel": 3,
      "note": 69,
      "start": 8.1322,
      "duration": 0.2551,
      "velocity": 93,
      "chip": "ym2612"
    },
    {
      "channel": 1,
      "note": 54,
      "start": 8.1323,
      "duration": 0.1274,
      "velocity": 87,
      "chip": "ym2612"
    },
    {
      "channel": 2,
      "note": 85,
      "start": 8.1323,
      "duration": 0.255,
      "velocity": 93,
      "chip": "ym2612"
    },
    {
      "channel": 5,
      "note": 54,
      "start": 8.388,
      "duration": 0.1283,
      "velocity": 111,
      "chip": "ym2612"
    },
    {
      "channel": 3,
      "note": 66,
      "start": 8.388,
      "duration": 0.1283,
      "velocity": 93,
      "chip": "ym2612"
    },
    {
      "channel": 2,
      "note": 78,
      "start": 8.3881,
      "duration": 0.1282,
      "velocity": 93,
      "chip": "ym2612"
    },
    {
      "channel": 1,
      "note": 54,
      "start": 8.3881,
      "duration": 0.1283,
      "velocity": 87,
      "chip": "ym2612"
    },
    {
      "channel": 5,
      "note": 54,
      "start": 8.517,
      "duration": 0.1272,
      "velocity": 111,
      "chip": "ym2612"
    },
    {
      "channel": 3,
      "note": 68,
      "start": 8.517,
      "duration": 0.2549,
      "velocity": 93,
      "chip": "ym2612"
    },
    {
      "channel": 2,
      "note": 83,
      "start": 8.5171,
      "duration": 0.2549,
      "velocity": 93,
      "chip": "ym2612"
    },
    {
      "channel": 1,
      "note": 54,
      "start": 8.5172,
      "duration": 0.1272,
      "velocity": 87,
      "chip": "ym2612"
    },
    {
      "channel": 5,
      "note": 54,
      "start": 8.7728,
      "duration": 0.1279,
      "velocity": 111,
      "chip": "ym2612"
    },
    {
      "channel": 2,
      "note": 85,
      "start": 8.7729,
      "duration": 0.1279,
      "velocity": 93,
      "chip": "ym2612"
    },
    {
      "channel": 3,
      "note": 69,
      "start": 8.7729,
      "duration": 0.1278,
      "velocity": 93,
      "chip": "ym2612"
    },
    {
      "channel": 1,
      "note": 54,
      "start": 8.773,
      "duration": 0.1271,
      "velocity": 87,
      "chip": "ym2612"
    },
    {
      "channel": 4,
      "note": 54,
      "start": 8.9007,
      "duration": 0.3848,
      "velocity": 127,
      "chip": "ym2612"
    },
    {
      "channel": 1,
      "note": 54,
      "start": 8.9009,
      "duration": 0.1281,
      "velocity": 87,
      "chip": "ym2612"
    },
    {
      "channel": 5,
      "note": 54,
      "start": 9.1576,
      "duration": 0.1273,
      "velocity": 111,
      "chip": "ym2612"
    },
    {
      "channel": 3,
      "note": 64,
      "start": 9.1576,
      "duration": 0.128,
      "velocity": 93,
      "chip": "ym2612"
    },
    {
      "channel": 1,
      "note": 57,
      "start": 9.1577,
      "duration": 0.1273,
      "velocity": 87,
      "chip": "ym2612"
    },
    {
      "channel": 2,
      "note": 76,
      "start": 9.1577,
      "duration": 0.1279,
      "velocity": 93,
      "chip": "ym2612"
    },
    {
      "channel": 5,
      "note": 54,
      "start": 9.2855,
      "duration": 0.1279,
      "velocity": 111,
      "chip": "ym2612"
    },
    {
      "channel": 1,
      "note": 57,
      "start": 9.2857,
      "duration": 0.1279,
      "velocity": 87,
      "chip": "ym2612"
    },
    {
      "channel": 5,
      "note": 54,
      "start": 9.5421,
      "duration": 0.1283,
      "velocity": 111,
      "chip": "ym2612"
    },
    {
      "channel": 3,
      "note": 64,
      "start": 9.5422,
      "duration": 0.1276,
      "velocity": 93,
      "chip": "ym2612"
    },
    {
      "channel": 2,
      "note": 76,
      "start": 9.5422,
      "duration": 0.1275,
      "velocity": 93,
      "chip": "ym2612"
    },
    {
      "channel": 1,
      "note": 57,
      "start": 9.5423,
      "duration": 0.1275,
      "velocity": 87,
      "chip": "ym2612"
    },
    {
      "channel": 3,
      "note": 69,
      "start": 9.6704,
      "duration": 0.2556,
      "velocity": 93,
      "chip": "ym2612"
    },
    {
      "channel": 4,
      "note": 54,
      "start": 9.6704,
      "duration": 0.3849,
      "velocity": 127,
      "chip": "ym2612"
    },
    {
      "channel": 2,
      "note": 85,
      "start": 9.6705,
      "duration": 0.2556,
      "velocity": 93,
      "chip": "ym2612"
    },
    {
      "channel": 1,
      "note": 57,
      "start": 9.6705,
      "duration": 0.1277,
      "velocity": 87,
      "chip": "ym2612"
    },
    {
      "channel": 5,
      "note": 54,
      "start": 9.9267,
      "duration": 0.1278,
      "velocity": 111,
      "chip": "ym2612"
    },
    {
      "channel": 3,
      "note": 64,
      "start": 9.9268,
      "duration": 0.1278,
      "velocity": 93,
      "chip": "ym2612"
    },
    {
      "channel": 2,
      "note": 76,
      "start": 9.9268,
      "duration": 0.1277,
      "velocity": 93,
      "chip": "ym2612"
    },
    {
      "channel": 1,
      "note": 57,
      "start": 9.9269,
      "duration": 0.1277,
      "velocity": 87,
      "chip": "ym2612"
    },
    {
      "channel": 5,
      "note": 54,
      "start": 10.0552,
      "duration": 0.1275,
      "velocity": 111,
      "chip": "ym2612"
    },
    {
      "channel": 3,
      "note": 68,
      "start": 10.0553,
      "duration": 0.2554,
      "velocity": 93,
      "chip": "ym2612"
    },
    {
      "channel": 2,
      "note": 83,
      "start": 10.0553,
      "duration": 0.2554,
      "velocity": 93,
      "chip": "ym2612"
    },
    {
      "channel": 1,
      "note": 57,
      "start": 10.0554,
      "duration": 0.1275,
      "velocity": 87,
      "chip": "ym2612"
    },
    {
      "channel": 5,
      "note": 54,
      "start": 10.3113,
      "duration": 0.128,
      "velocity": 111,
      "chip": "ym2612"
    },
    {
      "channel": 2,
      "note": 85,
      "start": 10.3114,
      "duration": 0.128,
      "velocity": 93,
      "chip": "ym2612"
    },
    {
      "channel": 3,
      "note": 69,
      "start": 10.3114,
      "duration": 0.128,
      "velocity": 93,
      "chip": "ym2612"
    },
    {
      "channel": 1,
      "note": 57,
      "start": 10.3115,
      "duration": 0.1271,
      "velocity": 87,
      "chip": "ym2612"
    },
    {
      "channel": 4,
      "note": 54,
      "start": 10.4394,
      "duration": 0.3854,
      "velocity": 127,
      "chip": "ym2612"
    },
    {
      "channel": 1,
      "note": 57,
      "start": 10.4395,
      "duration": 0.1279,
      "velocity": 87,
      "chip": "ym2612"
    },
    {
      "channel": 5,
      "note": 54,
      "start": 10.6959,
      "duration": 0.1281,
      "velocity": 111,
      "chip": "ym2612"
    },
    {
      "channel": 2,
      "note": 76,
      "start": 10.696,
      "duration": 0.1281,
      "velocity": 93,
      "chip": "ym2612"
    },
    {
      "channel": 3,
      "note": 64,
      "start": 10.696,
      "duration": 0.128,
      "velocity": 93,
      "chip": "ym2612"
    },
    {
      "channel": 1,
      "note": 57,
      "start": 10.6961,
      "duration": 0.1281,
      "velocity": 87,
      "chip": "ym2612"
    },
    {
      "channel": 5,
      "note": 54,
      "start": 10.8248,
      "duration": 0.1271,
      "velocity": 111,
      "chip": "ym2612"
    },
    {
      "channel": 2,
      "note": 78,
      "start": 10.8249,
      "duration": 0.3837,
      "velocity": 93,
      "chip": "ym2612"
    },
    {
      "channel": 3,
      "note": 62,
      "start": 10.8249,
      "duration": 0.3837,
      "velocity": 93,
      "chip": "ym2612"
    },
    {
      "channel": 1,
      "note": 50,
      "start": 10.8249,
      "duration": 0.1272,
      "velocity": 87,
      "chip": "ym2612"
    },
    {
      "channel": 5,
      "note": 54,
      "start": 11.0801,
      "duration": 0.129,
      "velocity": 111,
      "chip": "ym2612"
    },
    {
      "channel": 1,
      "note": 50,
      "start": 11.0803,
      "duration": 0.1283,
      "velocity": 87,
      "chip": "ym2612"
    },
    {
      "channel": 3,
      "note": 64,
      "start": 11.2092,
      "duration": 0.3843,
      "velocity": 93,
      "chip": "ym2612"
    },
    {
      "channel": 4,
      "note": 54,
      "start": 11.2092,
      "duration": 0.3842,
      "velocity": 127,
      "chip": "ym2612"
    },
    {
      "channel": 2,
      "note": 80,
      "start": 11.2093,
      "duration": 0.3843,
      "velocity": 93,
      "chip": "ym2612"
    },
    {
      "channel": 1,
      "note": 52,
      "start": 11.2093,
      "duration": 0.1273,
      "velocity": 87,
      "chip": "ym2612"
    },
    {
      "channel": 5,
      "note": 54,
      "start": 11.4647,
      "duration": 0.1287,
      "velocity": 111,
      "chip": "ym2612"
    },
    {
      "channel": 1,
      "note": 52,
      "start": 11.4649,
      "duration": 0.1286,
      "velocity": 87,
      "chip": "ym2612"
    },
    {
      "channel": 5,
      "note": 54,
      "start": 11.5941,
      "duration": 0.127,
      "velocity": 111,
      "chip": "ym2612"
    },
    {
      "channel": 3,
      "note": 66,
      "start": 11.5942,
      "duration": 0.3836,
      "velocity": 93,
      "chip": "ym2612"
    },
    {
      "channel": 4,
      "note": 54,
      "start": 11.5942,
      "duration": 0.127,
      "velocity": 127,
      "chip": "ym2612"
    },
    {
      "channel": 2,
      "note": 81,
      "start": 11.5943,
      "duration": 0.3835,
      "velocity": 93,
      "chip": "ym2612"
    },
    {
      "channel": 1,
      "note": 54,
      "start": 11.5943,
      "duration": 0.127,
      "velocity": 87,
      "chip": "ym2612"
    },
    {
      "channel": 5,
      "note": 54,
      "start": 11.8493,
      "duration": 0.1291,
      "velocity": 111,
      "chip": "ym2612"
    },
    {
      "channel": 4,
      "note": 54,
      "start": 11.8494,
      "duration": 0.1283,
      "velocity": 127,
      "chip": "ym2612"
    },
    {
      "channel": 1,
      "note": 54,
      "start": 11.8495,
      "duration": 0.1283,
      "velocity": 87,
      "chip": "ym2612"
    },
    {
      "channel": 3,
      "note": 68,
      "start": 11.9785,
      "duration": 0.3844,
      "velocity": 93,
      "chip": "ym2612"
    },
    {
      "channel": 4,
      "note": 54,
      "start": 11.9785,
      "duration": 0.1259,
      "velocity": 127,
      "chip": "ym2612"
    },
    {
      "channel": 1,
      "note": 56,
      "start": 11.9785,
      "duration": 0.1275,
      "velocity": 87,
      "chip": "ym2612"
    },
    {
      "channel": 2,
      "note": 83,
      "start": 11.9785,
      "duration": 0.3844,
      "velocity": 93,
      "chip": "ym2612"
    },
    {
      "channel": 4,
      "note": 54,
      "start": 12.1059,
      "duration": 0.1272,
      "velocity": 127,
      "chip": "ym2612"
    },
    {
      "channel": 5,
      "note": 54,
      "start": 12.2339,
      "duration": 0.1282,
      "velocity": 111,
      "chip": "ym2612"
    },
    {
      "channel": 4,
      "note": 54,
      "start": 12.234,
      "duration": 0.1288,
      "velocity": 127,
      "chip": "ym2612"
    },
    {
      "channel": 1,
      "note": 56,
      "start": 12.2341,
      "duration": 0.1281,
      "velocity": 87,
      "chip": "ym2612"
    },
    {
      "channel": 5,
      "note": 54,
      "start": 12.3628,
      "duration": 0.1276,
      "velocity": 111,
      "chip": "ym2612"
    },
    {
      "channel": 1,
      "note": 54,
      "start": 12.363,
      "duration": 0.1276,
      "velocity": 87,
      "chip": "ym2612"
    },
    {
      "channel": 5,
      "note": 54,
      "start": 12.6188,
      "duration": 0.1288,
      "velocity": 111,
      "chip": "ym2612"
    },
    {
      "channel": 3,
      "note": 66,
      "start": 12.6189,
      "duration": 0.1281,
      "velocity": 93,
      "chip": "ym2612"
    },
    {
      "channel": 1,
      "note": 54,
      "start": 12.6189,
      "duration": 0.128,
      "velocity": 87,
      "chip": "ym2612"
    },
    {
      "channel": 2,
      "note": 78,
      "start": 12.6189,
      "duration": 0.128,
      "velocity": 93,
      "chip": "ym2612"
    },
    {
      "channel": 3,
      "note": 69,
      "start": 12.7476,
      "duration": 0.2552,
      "velocity": 93,
      "chip": "ym2612"
    },
    {
      "channel": 4,
      "note": 54,
      "start": 12.7476,
      "duration": 0.3849,
      "velocity": 127,
      "chip": "ym2612"
    },
    {
      "channel": 2,
      "note": 85,
      "start": 12.7477,
      "duration": 0.2551,
      "velocity": 93,
      "chip": "ym2612"
    },
    {
      "channel": 1,
      "note": 54,
      "start": 12.7478,
      "duration": 0.1274,
      "velocity": 87,
      "chip": "ym2612"
    },
    {
      "channel": 5,
      "note": 54,
      "start": 13.0034,
      "duration": 0.1283,
      "velocity": 111,
      "chip": "ym2612"
    },
    {
      "channel": 3,
      "note": 66,
      "start": 13.0035,
      "duration": 0.1283,
      "velocity": 93,
      "chip": "ym2612"
    },
    {
      "channel": 2,
      "note": 78,
      "start": 13.0035,
      "duration": 0.1283,
      "velocity": 93,
      "chip": "ym2612"
    },
    {
      "channel": 1,
      "note": 54,
      "start": 13.0036,
      "duration": 0.1283,
      "velocity": 87,
      "chip": "ym2612"
    },
    {
      "channel": 5,
      "note": 54,
      "start": 13.1324,
      "duration": 0.1272,
      "velocity": 111,
      "chip": "ym2612"
    },
    {
      "channel": 3,
      "note": 68,
      "start": 13.1325,
      "duration": 0.2549,
      "velocity": 93,
      "chip": "ym2612"
    },
    {
      "channel": 2,
      "note": 83,
      "start": 13.1326,
      "duration": 0.2548,
      "velocity": 93,
      "chip": "ym2612"
    },
    {
      "channel": 1,
      "note": 54,
      "start": 13.1326,
      "duration": 0.1272,
      "velocity": 87,
      "chip": "ym2612"
    },
    {
      "channel": 5,
      "note": 54,
      "start": 13.388,
      "duration": 0.1284,
      "velocity": 111,
      "chip": "ym2612"
    },
    {
      "channel": 3,
      "note": 69,
      "start": 13.3881,
      "duration": 0.1284,
      "velocity": 93,
      "chip": "ym2612"
    },
    {
      "channel": 2,
      "note": 85,
      "start": 13.3881,
      "duration": 0.1284,
      "velocity": 93,
      "chip": "ym2612"
    },
    {
      "channel": 1,
      "note": 54,
      "start": 13.3882,
      "duration": 0.1276,
      "velocity": 87,
      "chip": "ym2612"
    },
    {
      "channel": 4,
      "note": 54,
      "start": 13.5165,
      "duration": 0.3845,
      "velocity": 127,
      "chip": "ym2612"
    },
    {
      "channel": 1,
      "note": 54,
      "start": 13.5166,
      "duration": 0.1279,
      "velocity": 87,
      "chip": "ym2612"
    },
    {
      "channel": 5,
      "note": 54,
      "start": 13.7729,
      "duration": 0.1274,
      "velocity": 111,
      "chip": "ym2612"
    },
    {
      "channel": 2,
      "note": 78,
      "start": 13.773,
      "duration": 0.128,
      "velocity": 93,
      "chip": "ym2612"
    },
    {
      "channel": 3,
      "note": 66,
      "start": 13.773,
      "duration": 0.128,
      "velocity": 93,
      "chip": "ym2612"
    },
    {
      "channel": 1,
      "note": 54,
      "start": 13.7731,
      "duration": 0.1273,
      "velocity": 87,
      "chip": "ym2612"
    },
    {
      "channel": 5,
      "note": 54,
      "start": 13.9009,
      "duration": 0.1279,
      "velocity": 111,
      "chip": "ym2612"
    },
    {
      "channel": 1,
      "note": 54,
      "start": 13.9011,
      "duration": 0.1279,
      "velocity": 87,
      "chip": "ym2612"
    },
    {
      "channel": 5,
      "note": 54,
      "start": 14.1576,
      "duration": 0.1283,
      "velocity": 111,
      "chip": "ym2612"
    },
    {
      "channel": 3,
      "note": 66,
      "start": 14.1576,
      "duration": 0.1276,
      "velocity": 93,
      "chip": "ym2612"
    },
    {
      "channel": 1,
      "note": 54,
      "start": 14.1577,
      "duration": 0.1275,
      "velocity": 87,
      "chip": "ym2612"
    },
    {
      "channel": 2,
      "note": 78,
      "start": 14.1577,
      "duration": 0.1275,
      "velocity": 93,
      "chip": "ym2612"
    },
    {
      "channel": 3,
      "note": 69,
      "start": 14.2859,
      "duration": 0.2557,
      "velocity": 93,
      "chip": "ym2612"
    },
    {
      "channel": 4,
      "note": 54,
      "start": 14.2859,
      "duration": 0.3849,
      "velocity": 127,
      "chip": "ym2612"
    },
    {
      "channel": 2,
      "note": 85,
      "start": 14.2859,
      "duration": 0.2556,
      "velocity": 93,
      "chip": "ym2612"
    },
    {
      "channel": 1,
      "note": 54,
      "start": 14.286,
      "duration": 0.1277,
      "velocity": 87,
      "chip": "ym2612"
    },
    {
      "channel": 5,
      "note": 54,
      "start": 14.5422,
      "duration": 0.1278,
      "velocity": 111,
      "chip": "ym2612"
    },
    {
      "channel": 3,
      "note": 66,
      "start": 14.5422,
      "duration": 0.1278,
      "velocity": 93,
      "chip": "ym2612"
    },
    {
      "channel": 2,
      "note": 78,
      "start": 14.5423,
      "duration": 0.1277,
      "velocity": 93,
      "chip": "ym2612"
    },
    {
      "channel": 1,
      "note": 54,
      "start": 14.5424,
      "duration": 0.1277,
      "velocity": 87,
      "chip": "ym2612"
    },
    {
      "channel": 5,
      "note": 54,
      "start": 14.6707,
      "duration": 0.1275,
      "velocity": 111,
      "chip": "ym2612"
    },
    {
      "channel": 3,
      "note": 68,
      "start": 14.6707,
      "duration": 0.2554,
      "velocity": 93,
      "chip": "ym2612"
    },
    {
      "channel": 1,
      "note": 54,
      "start": 14.6708,
      "duration": 0.1275,
      "velocity": 87,
      "chip": "ym2612"
    },
    {
      "channel": 2,
      "note": 83,
      "start": 14.6708,
      "duration": 0.2553,
      "velocity": 93,
      "chip": "ym2612"
    },
    {
      "channel": 5,
      "note": 54,
      "start": 14.9268,
      "duration": 0.1279,
      "velocity": 111,
      "chip": "ym2612"
    },
    {
      "channel": 3,
      "note": 69,
      "start": 14.9268,
      "duration": 0.1279,
      "velocity": 93,
      "chip": "ym2612"
    },
    {
      "channel": 2,
      "note": 85,
      "start": 14.9269,
      "duration": 0.1278,
      "velocity": 93,
      "chip": "ym2612"
    },
    {
      "channel": 1,
      "note": 54,
      "start": 14.927,
      "duration": 0.1271,
      "velocity": 87,
      "chip": "ym2612"
    },
    {
      "channel": 4,
      "note": 54,
      "start": 15.0546,
      "duration": 0.3851,
      "velocity": 127,
      "chip": "ym2612"
    },
    {
      "channel": 1,
      "note": 54,
      "start": 15.0548,
      "duration": 0.1281,
      "velocity": 87,
      "chip": "ym2612"
    },
    {
      "channel": 5,
      "note": 54,
      "start": 15.3114,
      "duration": 0.1274,
      "velocity": 111,
      "chip": "ym2612"
    },
    {
      "channel": 3,
      "note": 64,
      "start": 15.3115,
      "duration": 0.1283,
      "velocity": 93,
      "chip": "ym2612"
    },
    {
      "channel": 2,
      "note": 76,
      "start": 15.3116,
      "duration": 0.1282,
      "velocity": 93,
      "chip": "ym2612"
    },
    {
      "channel": 1,
      "note": 57,
      "start": 15.3116,
      "duration": 0.1272,
      "velocity": 87,
      "chip": "ym2612"
    },
    {
      "channel": 5,
      "note": 54,
      "start": 15.4397,
      "duration": 0.1277,
      "velocity": 111,
      "chip": "ym2612"
    },
    {
      "channel": 1,
      "note": 57,
      "start": 15.4399,
      "duration": 0.1277,
      "velocity": 87,
      "chip": "ym2612"
    },
    {
      "channel": 5,
      "note": 54,
      "start": 15.696,
      "duration": 0.1285,
      "velocity": 111,
      "chip": "ym2612"
    },
    {
      "channel": 2,
      "note": 76,
      "start": 15.6961,
      "duration": 0.1278,
      "velocity": 93,
      "chip": "ym2612"
    },
    {
      "channel": 3,
      "note": 64,
      "start": 15.6961,
      "duration": 0.1278,
      "velocity": 93,
      "chip": "ym2612"
    },
    {
      "channel": 1,
      "note": 57,
      "start": 15.6962,
      "duration": 0.1278,
      "velocity": 87,
      "chip": "ym2612"
    },
    {
      "channel": 3,
      "note": 69,
      "start": 15.8246,
      "duration": 0.2554,
      "velocity": 93,
      "chip": "ym2612"
    },
    {
      "channel": 4,
      "note": 54,
      "start": 15.8246,
      "duration": 0.3848,
      "velocity": 127,
      "chip": "ym2612"
    },
    {
      "channel": 2,
      "note": 85,
      "start": 15.8247,
      "duration": 0.2553,
      "velocity": 93,
      "chip": "ym2612"
    },
    {
      "channel": 1,
      "note": 57,
      "start": 15.8247,
      "duration": 0.1274,
      "velocity": 87,
      "chip": "ym2612"
    },
    {
      "channel": 5,
      "note": 54,
      "start": 16.0806,
      "duration": 0.128,
      "velocity": 111,
      "chip": "ym2612"
    },
    {
      "channel": 3,
      "note": 64,
      "start": 16.0807,
      "duration": 0.128,
      "velocity": 93,
      "chip": "ym2612"
    },
    {
      "channel": 2,
      "note": 76,
      "start": 16.0808,
      "duration": 0.128,
      "velocity": 93,
      "chip": "ym2612"
    },
    {
      "channel": 1,
      "note": 57,
      "start": 16.0808,
      "duration": 0.128,
      "velocity": 87,
      "chip": "ym2612"
    },
    {
      "channel": 5,
      "note": 54,
      "start": 16.2094,
      "duration": 0.1272,
      "velocity": 111,
      "chip": "ym2612"
    },
    {
      "channel": 2,
      "note": 83,
      "start": 16.2095,
      "duration": 0.2551,
      "velocity": 93,
      "chip": "ym2612"
    },
    {
      "channel": 3,
      "note": 68,
      "start": 16.2095,
      "duration": 0.2551,
      "velocity": 93,
      "chip": "ym2612"
    },
    {
      "channel": 1,
      "note": 57,
      "start": 16.2095,
      "duration": 0.1272,
      "velocity": 87,
      "chip": "ym2612"
    },
    {
      "channel": 5,
      "note": 54,
      "start": 16.4653,
      "duration": 0.1281,
      "velocity": 111,
      "chip": "ym2612"
    },
    {
      "channel": 3,
      "note": 69,
      "start": 16.4653,
      "duration": 0.1281,
      "velocity": 93,
      "chip": "ym2612"
    },
    {
      "channel": 2,
      "note": 85,
      "start": 16.4654,
      "duration": 0.128,
      "velocity": 93,
      "chip": "ym2612"
    },
    {
      "channel": 1,
      "note": 57,
      "start": 16.4654,
      "duration": 0.1273,
      "velocity": 87,
      "chip": "ym2612"
    },
    {
      "channel": 4,
      "note": 54,
      "start": 16.5934,
      "duration": 0.3854,
      "velocity": 127,
      "chip": "ym2612"
    },
    {
      "channel": 1,
      "note": 57,
      "start": 16.5935,
      "duration": 0.1279,
      "velocity": 87,
      "chip": "ym2612"
    },
    {
      "channel": 5,
      "note": 54,
      "start": 16.8499,
      "duration": 0.1281,
      "velocity": 111,
      "chip": "ym2612"
    },
    {
      "channel": 3,
      "note": 64,
      "start": 16.8499,
      "duration": 0.1281,
      "velocity": 93,
      "chip": "ym2612"
    },
    {
      "channel": 2,
      "note": 76,
      "start": 16.85,
      "duration": 0.128,
      "velocity": 93,
      "chip": "ym2612"
    },
    {
      "channel": 1,
      "note": 57,
      "start": 16.85,
      "duration": 0.128,
      "velocity": 87,
      "chip": "ym2612"
    },
    {
      "channel": 5,
      "note": 54,
      "start": 16.9787,
      "duration": 0.1272,
      "velocity": 111,
      "chip": "ym2612"
    },
    {
      "channel": 3,
      "note": 69,
      "start": 16.9787,
      "duration": 0.3837,
      "velocity": 93,
      "chip": "ym2612"
    },
    {
      "channel": 2,
      "note": 86,
      "start": 16.9788,
      "duration": 0.3837,
      "velocity": 93,
      "chip": "ym2612"
    },
    {
      "channel": 1,
      "note": 50,
      "start": 16.9789,
      "duration": 0.1272,
      "velocity": 87,
      "chip": "ym2612"
    },
    {
      "channel": 5,
      "note": 54,
      "start": 17.234,
      "duration": 0.1291,
      "velocity": 111,
      "chip": "ym2612"
    },
    {
      "channel": 1,
      "note": 50,
      "start": 17.2342,
      "duration": 0.1283,
      "velocity": 87,
      "chip": "ym2612"
    },
    {
      "channel": 3,
      "note": 71,
      "start": 17.3632,
      "duration": 0.3843,
      "velocity": 93,
      "chip": "ym2612"
    },
    {
      "channel": 4,
      "note": 54,
      "start": 17.3632,
      "duration": 0.3842,
      "velocity": 127,
      "chip": "ym2612"
    },
    {
      "channel": 1,
      "note": 52,
      "start": 17.3632,
      "duration": 0.1274,
      "velocity": 87,
      "chip": "ym2612"
    },
    {
      "channel": 2,
      "note": 88,
      "start": 17.3632,
      "duration": 0.3843,
      "velocity": 93,
      "chip": "ym2612"
    },
    {
      "channel": 5,
      "note": 54,
      "start": 17.6187,
      "duration": 0.1287,
      "velocity": 111,
      "chip": "ym2612"
    },
    {
      "channel": 1,
      "note": 52,
      "start": 17.6188,
      "duration": 0.1287,
      "velocity": 87,
      "chip": "ym2612"
    },
    {
      "channel": 5,
      "note": 54,
      "start": 17.7481,
      "duration": 0.127,
      "velocity": 111,
      "chip": "ym2612"
    },
    {
      "channel": 3,
      "note": 69,
      "start": 17.7481,
      "duration": 0.3835,
      "velocity": 93,
      "chip": "ym2612"
    },
    {
      "channel": 4,
      "note": 54,
      "start": 17.7481,
      "duration": 0.126,
      "velocity": 127,
      "chip": "ym2612"
    },
    {
      "channel": 2,
      "note": 85,
      "start": 17.7482,
      "duration": 0.3835,
      "velocity": 93,
      "chip": "ym2612"
    },
    {
      "channel": 1,
      "note": 54,
      "start": 17.7483,
      "duration": 0.127,
      "velocity": 87,
      "chip": "ym2612"
    },
    {
      "channel": 4,
      "note": 54,
      "start": 17.8751,
      "duration": 0.1273,
      "velocity": 127,
      "chip": "ym2612"
    },
    {
      "channel": 4,
      "note": 54,
      "start": 18.0033,
      "duration": 0.1283,
      "velocity": 127,
      "chip": "ym2612"
    },
    {
      "channel": 5,
      "note": 54,
      "start": 18.0033,
      "duration": 0.129,
      "velocity": 111,
      "chip": "ym2612"
    },
    {
      "channel": 1,
      "note": 54,
      "start": 18.0034,
      "duration": 0.1283,
      "velocity": 87,
      "chip": "ym2612"
    },
    {
      "channel": 4,
      "note": 54,
      "start": 18.1324,
      "duration": 0.1262,
      "velocity": 127,
      "chip": "ym2612"
    },
    {
      "channel": 2,
      "note": 83,
      "start": 18.1324,
      "duration": 0.3843,
      "velocity": 93,
      "chip": "ym2612"
    },
    {
      "channel": 3,
      "note": 68,
      "start": 18.1324,
      "duration": 0.3842,
      "velocity": 93,
      "chip": "ym2612"
    },
    {
      "channel": 1,
      "note": 52,
      "start": 18.1325,
      "duration": 0.1273,
      "velocity": 87,
      "chip": "ym2612"
    },
    {
      "channel": 4,
      "note": 54,
      "start": 18.2597,
      "duration": 0.1273,
      "velocity": 127,
      "chip": "ym2612"
    },
    {
      "channel": 5,
      "note": 54,
      "start": 18.3879,
      "duration": 0.1287,
      "velocity": 111,
      "chip": "ym2612"
    },
    {
      "channel": 4,
      "note": 54,
      "start": 18.388,
      "duration": 0.1294,
      "velocity": 127,
      "chip": "ym2612"
    },
    {
      "channel": 1,
      "note": 52,
      "start": 18.3881,
      "duration": 0.1286,
      "velocity": 87,
      "chip": "ym2612"
    },
    {
      "channel": 5,
      "note": 54,
      "start": 18.5173,
      "duration": 0.1271,
      "velocity": 111,
      "chip": "ym2612"
    },
    {
      "channel": 3,
      "note": 66,
      "start": 18.5173,
      "duration": 1.1524,
      "velocity": 93,
      "chip": "ym2612"
    },
    {
      "channel": 2,
      "note": 81,
      "start": 18.5174,
      "duration": 1.1523,
      "velocity": 93,
      "chip": "ym2612"
    },
    {
      "channel": 1,
      "note": 50,
      "start": 18.5175,
      "duration": 0.127,
      "velocity": 87,
      "chip": "ym2612"
    },
    {
      "channel": 5,
      "note": 54,
      "start": 18.7726,
      "duration": 0.1282,
      "velocity": 111,
      "chip": "ym2612"
    },
    {
      "channel": 1,
      "note": 50,
      "start": 18.7727,
      "duration": 0.1272,
      "velocity": 87,
      "chip": "ym2612"
    },
    {
      "channel": 4,
      "note": 54,
      "start": 18.9007,
      "duration": 0.3847,
      "velocity": 127,
      "chip": "ym2612"
    },
    {
      "channel": 1,
      "note": 50,
      "start": 18.9009,
      "duration": 0.1282,
      "velocity": 87,
      "chip": "ym2612"
    },
    {
      "channel": 5,
      "note": 54,
      "start": 19.1572,
      "duration": 0.1275,
      "velocity": 111,
      "chip": "ym2612"
    },
    {
      "channel": 1,
      "note": 50,
      "start": 19.1573,
      "duration": 0.1274,
      "velocity": 87,
      "chip": "ym2612"
    },
    {
      "channel": 5,
      "note": 54,
      "start": 19.2854,
      "duration": 0.1282,
      "velocity": 111,
      "chip": "ym2612"
    },
    {
      "channel": 1,
      "note": 50,
      "start": 19.2855,
      "duration": 0.1282,
      "velocity": 87,
      "chip": "ym2612"
    },
    {
      "channel": 5,
      "note": 54,
      "start": 19.5418,
      "duration": 0.1286,
      "velocity": 111,
      "chip": "ym2612"
    },
    {
      "channel": 1,
      "note": 50,
      "start": 19.5419,
      "duration": 0.1279,
      "velocity": 87,
      "chip": "ym2612"
    },
    {
      "channel": 3,
      "note": 66,
      "start": 19.6704,
      "duration": 0.3845,
      "velocity": 93,
      "chip": "ym2612"
    },
    {
      "channel": 4,
      "note": 54,
      "start": 19.6704,
      "duration": 0.3844,
      "velocity": 127,
      "chip": "ym2612"
    },
    {
      "channel": 2,
      "note": 81,
      "start": 19.6705,
      "duration": 0.3845,
      "velocity": 93,
      "chip": "ym2612"
    },
    {
      "channel": 1,
      "note": 50,
      "start": 19.6705,
      "duration": 0.1278,
      "velocity": 87,
      "chip": "ym2612"
    },
    {
      "channel": 5,
      "note": 54,
      "start": 19.9264,
      "duration": 0.1284,
      "velocity": 111,
      "chip": "ym2612"
    },
    {
      "channel": 1,
      "note": 50,
      "start": 19.9266,
      "duration": 0.1284,
      "velocity": 87,
      "chip": "ym2612"
    },
    {
      "channel": 5,
      "note": 54,
      "start": 20.0555,
      "duration": 0.1273,
      "velocity": 111,
      "chip": "ym2612"
    },
    {
      "channel": 4,
      "note": 54,
      "start": 20.0558,
      "duration": 0.126,
      "velocity": 127,
      "chip": "ym2612"
    },
    {
      "channel": 2,
      "note": 83,
      "start": 20.0558,
      "duration": 1.5388,
      "velocity": 86,
      "chip": "ym2612"
    },
    {
      "channel": 3,
      "note": 68,
      "start": 20.0558,
      "duration": 1.5395,
      "velocity": 93,
      "chip": "ym2612"
    },
    {
      "channel": 1,
      "note": 52,
      "start": 20.0559,
      "duration": 0.127,
      "velocity": 87,
      "chip": "ym2612"
    },
    {
      "channel": 4,
      "note": 54,
      "start": 20.1828,
      "duration": 0.1275,
      "velocity": 127,
      "chip": "ym2612"
    },
    {
      "channel": 5,
      "note": 54,
      "start": 20.311,
      "duration": 0.1282,
      "velocity": 111,
      "chip": "ym2612"
    },
    {
      "channel": 4,
      "note": 54,
      "start": 20.311,
      "duration": 0.1272,
      "velocity": 127,
      "chip": "ym2612"
    },
    {
      "channel": 1,
      "note": 52,
      "start": 20.3112,
      "duration": 0.1272,
      "velocity": 87,
      "chip": "ym2612"
    },
    {
      "channel": 4,
      "note": 54,
      "start": 20.4392,
      "duration": 0.1267,
      "velocity": 127,
      "chip": "ym2612"
    },
    {
      "channel": 1,
      "note": 52,
      "start": 20.4394,
      "duration": 0.1282,
      "velocity": 87,
      "chip": "ym2612"
    },
    {
      "channel": 4,
      "note": 54,
      "start": 20.5675,
      "duration": 0.1274,
      "velocity": 127,
      "chip": "ym2612"
    },
    {
      "channel": 5,
      "note": 54,
      "start": 20.6956,
      "duration": 0.1279,
      "velocity": 111,
      "chip": "ym2612"
    },
    {
      "channel": 4,
      "note": 54,
      "start": 20.6956,
      "duration": 0.1279,
      "velocity": 127,
      "chip": "ym2612"
    },
    {
      "channel": 1,
      "note": 52,
      "start": 20.6958,
      "duration": 0.1279,
      "velocity": 87,
      "chip": "ym2612"
    },
    {
      "channel": 4,
      "note": 54,
      "start": 20.8242,
      "duration": 0.1265,
      "velocity": 127,
      "chip": "ym2612"
    },
    {
      "channel": 5,
      "note": 54,
      "start": 20.8242,
      "duration": 0.1278,
      "velocity": 111,
      "chip": "ym2612"
    },
    {
      "channel": 1,
      "note": 52,
      "start": 20.8244,
      "duration": 0.1278,
      "velocity": 87,
      "chip": "ym2612"
    },
    {
      "channel": 4,
      "note": 54,
      "start": 20.9521,
      "duration": 0.1274,
      "velocity": 127,
      "chip": "ym2612"
    },
    {
      "channel": 4,
      "note": 54,
      "start": 21.0803,
      "duration": 0.1275,
      "velocity": 127,
      "chip": "ym2612"
    },
    {
      "channel": 5,
      "note": 54,
      "start": 21.0803,
      "duration": 0.1282,
      "velocity": 111,
      "chip": "ym2612"
    },
    {
      "channel": 1,
      "note": 52,
      "start": 21.0804,
      "duration": 0.1275,
      "velocity": 87,
      "chip": "ym2612"
    },
    {
      "channel": 4,
      "note": 54,
      "start": 21.2085,
      "duration": 0.1267,
      "velocity": 127,
      "chip": "ym2612"
    },
    {
      "channel": 1,
      "note": 52,
      "start": 21.2086,
      "duration": 0.1282,
      "velocity": 87,
      "chip": "ym2612"
    },
    {
      "channel": 4,
      "note": 54,
      "start": 21.3367,
      "duration": 0.1275,
      "velocity": 127,
      "chip": "ym2612"
    },
    {
      "channel": 4,
      "note": 54,
      "start": 21.4649,
      "duration": 0.1304,
      "velocity": 127,
      "chip": "ym2612"
    },
    {
      "channel": 5,
      "note": 54,
      "start": 21.4649,
      "duration": 0.1297,
      "velocity": 111,
      "chip": "ym2612"
    },
    {
      "channel": 1,
      "note": 52,
      "start": 21.465,
      "duration": 0.1297,
      "velocity": 87,
      "chip": "ym2612"
    },
    {
      "channel": 5,
      "note": 54,
      "start": 21.5953,
      "duration": 0.126,
      "velocity": 111,
      "chip": "ym2612"
    },
    {
      "channel": 2,
      "note": 83,
      "start": 21.5953,
      "duration": 0.0606,
      "velocity": 86,
      "chip": "ym2612"
    },
    {
      "channel": 1,
      "note": 54,
      "start": 21.5954,
      "duration": 0.126,
      "velocity": 87,
      "chip": "ym2612"
    },
    {
      "channel": 2,
      "note": 85,
      "start": 21.6573,
      "duration": 0.0629,
      "velocity": 86,
      "chip": "ym2612"
    },
    {
      "channel": 2,
      "note": 85,
      "start": 21.7214,
      "duration": 1.0255,
      "velocity": 86,
      "chip": "ym2612"
    },
    {
      "channel": 5,
      "note": 54,
      "start": 21.8495,
      "duration": 0.1286,
      "velocity": 111,
      "chip": "ym2612"
    },
    {
      "channel": 3,
      "note": 66,
      "start": 21.8497,
      "duration": 0.1279,
      "velocity": 93,
      "chip": "ym2612"
    },
    {
      "channel": 1,
      "note": 54,
      "start": 21.8497,
      "duration": 0.1279,
      "velocity": 87,
      "chip": "ym2612"
    },
    {
      "channel": 4,
      "note": 54,
      "start": 21.9782,
      "duration": 0.3848,
      "velocity": 127,
      "chip": "ym2612"
    },
    {
      "channel": 3,
      "note": 73,
      "start": 21.9782,
      "duration": 0.2551,
      "velocity": 93,
      "chip": "ym2612"
    },
    {
      "channel": 1,
      "note": 54,
      "start": 21.9783,
      "duration": 0.1261,
      "velocity": 87,
      "chip": "ym2612"
    },
    {
      "channel": 1,
      "note": 49,
      "start": 22.106,
      "duration": 0.1274,
      "velocity": 87,
      "chip": "ym2612"
    },
    {
      "channel": 5,
      "note": 54,
      "start": 22.2341,
      "duration": 0.1282,
      "velocity": 111,
      "chip": "ym2612"
    },
    {
      "channel": 3,
      "note": 66,
      "start": 22.2342,
      "duration": 0.128,
      "velocity": 93,
      "chip": "ym2612"
    },
    {
      "channel": 1,
      "note": 54,
      "start": 22.2343,
      "duration": 0.128,
      "velocity": 87,
      "chip": "ym2612"
    },
    {
      "channel": 5,
      "note": 54,
      "start": 22.3629,
      "duration": 0.1276,
      "velocity": 111,
      "chip": "ym2612"
    },
    {
      "channel": 3,
      "note": 71,
      "start": 22.363,
      "duration": 0.2549,
      "velocity": 93,
      "chip": "ym2612"
    },
    {
      "channel": 1,
      "note": 54,
      "start": 22.3631,
      "duration": 0.1276,
      "velocity": 87,
      "chip": "ym2612"
    },
    {
      "channel": 5,
      "note": 54,
      "start": 22.6188,
      "duration": 0.1288,
      "velocity": 111,
      "chip": "ym2612"
    },
    {
      "channel": 3,
      "note": 73,
      "start": 22.6188,
      "duration": 0.1288,
      "velocity": 93,
      "chip": "ym2612"
    },
    {
      "channel": 1,
      "note": 54,
      "start": 22.6189,
      "duration": 0.1281,
      "velocity": 87,
      "chip": "ym2612"
    },
    {
      "channel": 4,
      "note": 54,
      "start": 22.7476,
      "duration": 0.3849,
      "velocity": 127,
      "chip": "ym2612"
    },
    {
      "channel": 2,
      "note": 81,
      "start": 22.7476,
      "duration": 0.1267,
      "velocity": 86,
      "chip": "ym2612"
    },
    {
      "channel": 1,
      "note": 57,
      "start": 22.7477,
      "duration": 0.1267,
      "velocity": 87,
      "chip": "ym2612"
    },
    {
      "channel": 2,
      "note": 83,
      "start": 22.8752,
      "duration": 0.1277,
      "velocity": 86,
      "chip": "ym2612"
    },
    {
      "channel": 1,
      "note": 54,
      "start": 22.8753,
      "duration": 0.1277,
      "velocity": 87,
      "chip": "ym2612"
    },
    {
      "channel": 5,
      "note": 54,
      "start": 23.0036,
      "duration": 0.1281,
      "velocity": 111,
      "chip": "ym2612"
    },
    {
      "channel": 3,
      "note": 66,
      "start": 23.0037,
      "duration": 0.1288,
      "velocity": 93,
      "chip": "ym2612"
    },
    {
      "channel": 2,
      "note": 85,
      "start": 23.0037,
      "duration": 0.128,
      "velocity": 86,
      "chip": "ym2612"
    },
    {
      "channel": 1,
      "note": 49,
      "start": 23.0038,
      "duration": 0.128,
      "velocity": 87,
      "chip": "ym2612"
    },
    {
      "channel": 5,
      "note": 54,
      "start": 23.1324,
      "duration": 0.1274,
      "velocity": 111,
      "chip": "ym2612"
    },
    {
      "channel": 2,
      "note": 88,
      "start": 23.1325,
      "duration": 0.6397,
      "velocity": 86,
      "chip": "ym2612"
    },
    {
      "channel": 1,
      "note": 57,
      "start": 23.1326,
      "duration": 0.1273,
      "velocity": 87,
      "chip": "ym2612"
    },
    {
      "channel": 5,
      "note": 54,
      "start": 23.388,
      "duration": 0.1286,
      "velocity": 111,
      "chip": "ym2612"
    },
    {
      "channel": 3,
      "note": 64,
      "start": 23.388,
      "duration": 0.1279,
      "velocity": 93,
      "chip": "ym2612"
    },
    {
      "channel": 1,
      "note": 57,
      "start": 23.3881,
      "duration": 0.1279,
      "velocity": 87,
      "chip": "ym2612"
    },
    {
      "channel": 4,
      "note": 54,
      "start": 23.5166,
      "duration": 0.3846,
      "velocity": 127,
      "chip": "ym2612"
    },
    {
      "channel": 3,
      "note": 73,
      "start": 23.5166,
      "duration": 0.2555,
      "velocity": 93,
      "chip": "ym2612"
    },
    {
      "channel": 1,
      "note": 57,
      "start": 23.5167,
      "duration": 0.1265,
      "velocity": 87,
      "chip": "ym2612"
    },
    {
      "channel": 1,
      "note": 52,
      "start": 23.6445,
      "duration": 0.1279,
      "velocity": 87,
      "chip": "ym2612"
    },
    {
      "channel": 5,
      "note": 54,
      "start": 23.7731,
      "duration": 0.1273,
      "velocity": 111,
      "chip": "ym2612"
    },
    {
      "channel": 3,
      "note": 64,
      "start": 23.7731,
      "duration": 0.1274,
      "velocity": 93,
      "chip": "ym2612"
    },
    {
      "channel": 2,
      "note": 86,
      "start": 23.7732,
      "duration": 0.512,
      "velocity": 86,
      "chip": "ym2612"
    },
    {
      "channel": 1,
      "note": 57,
      "start": 23.7733,
      "duration": 0.1273,
      "velocity": 87,
      "chip": "ym2612"
    },
    {
      "channel": 5,
      "note": 54,
      "start": 23.9011,
      "duration": 0.1278,
      "velocity": 111,
      "chip": "ym2612"
    },
    {
      "channel": 3,
      "note": 71,
      "start": 23.9012,
      "duration": 0.2555,
      "velocity": 93,
      "chip": "ym2612"
    },
    {
      "channel": 1,
      "note": 57,
      "start": 23.9012,
      "duration": 0.1279,
      "velocity": 87,
      "chip": "ym2612"
    },
    {
      "channel": 5,
      "note": 54,
      "start": 24.1573,
      "duration": 0.1285,
      "velocity": 111,
      "chip": "ym2612"
    },
    {
      "channel": 3,
      "note": 73,
      "start": 24.1574,
      "duration": 0.1285,
      "velocity": 93,
      "chip": "ym2612"
    },
    {
      "channel": 1,
      "note": 57,
      "start": 24.1574,
      "duration": 0.1278,
      "velocity": 87,
      "chip": "ym2612"
    },
    {
      "channel": 4,
      "note": 54,
      "start": 24.2858,
      "duration": 0.3849,
      "velocity": 127,
      "chip": "ym2612"
    },
    {
      "channel": 2,
      "note": 85,
      "start": 24.2859,
      "duration": 0.3842,
      "velocity": 86,
      "chip": "ym2612"
    },
    {
      "channel": 1,
      "note": 61,
      "start": 24.2859,
      "duration": 0.1265,
      "velocity": 87,
      "chip": "ym2612"
    },
    {
      "channel": 1,
      "note": 57,
      "start": 24.4138,
      "duration": 0.1276,
      "velocity": 87,
      "chip": "ym2612"
    },
    {
      "channel": 5,
      "note": 54,
      "start": 24.542,
      "duration": 0.128,
      "velocity": 111,
      "chip": "ym2612"
    },
    {
      "channel": 3,
      "note": 64,
      "start": 24.542,
      "duration": 0.1288,
      "velocity": 93,
      "chip": "ym2612"
    },
    {
      "channel": 1,
      "note": 52,
      "start": 24.5421,
      "duration": 0.128,
      "velocity": 87,
      "chip": "ym2612"
    },
    {
      "channel": 5,
      "note": 54,
      "start": 24.6707,
      "duration": 0.1276,
      "velocity": 111,
      "chip": "ym2612"
    },
    {
      "channel": 2,
      "note": 81,
      "start": 24.6708,
      "duration": 0.0618,
      "velocity": 86,
      "chip": "ym2612"
    },
    {
      "channel": 1,
      "note": 52,
      "start": 24.6708,
      "duration": 0.1276,
      "velocity": 87,
      "chip": "ym2612"
    },
    {
      "channel": 2,
      "note": 83,
      "start": 24.7343,
      "duration": 0.0631,
      "velocity": 86,
      "chip": "ym2612"
    },
    {
      "channel": 2,
      "note": 83,
      "start": 24.7983,
      "duration": 1.0256,
      "velocity": 86,
      "chip": "ym2612"
    },
    {
      "channel": 5,
      "note": 54,
      "start": 24.9265,
      "duration": 0.1283,
      "velocity": 111,
      "chip": "ym2612"
    },
    {
      "channel": 3,
      "note": 64,
      "start": 24.9266,
      "duration": 0.1276,
      "velocity": 93,
      "chip": "ym2612"
    },
    {
      "channel": 1,
      "note": 52,
      "start": 24.9267,
      "duration": 0.1276,
      "velocity": 87,
      "chip": "ym2612"
    },
    {
      "channel": 4,
      "note": 54,
      "start": 25.0548,
      "duration": 0.3851,
      "velocity": 127,
      "chip": "ym2612"
    },
    {
      "channel": 3,
      "note": 71,
      "start": 25.0549,
      "duration": 0.2557,
      "velocity": 93,
      "chip": "ym2612"
    },
    {
      "channel": 1,
      "note": 52,
      "start": 25.0549,
      "duration": 0.1267,
      "velocity": 87,
      "chip": "ym2612"
    },
    {
      "channel": 1,
      "note": 47,
      "start": 25.183,
      "duration": 0.1276,
      "velocity": 87,
      "chip": "ym2612"
    },
    {
      "channel": 5,
      "note": 54,
      "start": 25.3112,
      "duration": 0.1279,
      "velocity": 111,
      "chip": "ym2612"
    },
    {
      "channel": 3,
      "note": 64,
      "start": 25.3113,
      "duration": 0.1278,
      "velocity": 93,
      "chip": "ym2612"
    },
    {
      "channel": 1,
      "note": 52,
      "start": 25.3114,
      "duration": 0.1279,
      "velocity": 87,
      "chip": "ym2612"
    },
    {
      "channel": 5,
      "note": 54,
      "start": 25.4399,
      "duration": 0.1276,
      "velocity": 111,
      "chip": "ym2612"
    },
    {
      "channel": 3,
      "note": 69,
      "start": 25.4399,
      "duration": 0.2552,
      "velocity": 93,
      "chip": "ym2612"
    },
    {
      "channel": 1,
      "note": 52,
      "start": 25.44,
      "duration": 0.1276,
      "velocity": 87,
      "chip": "ym2612"
    },
    {
      "channel": 5,
      "note": 54,
      "start": 25.6957,
      "duration": 0.1288,
      "velocity": 111,
      "chip": "ym2612"
    },
    {
      "channel": 3,
      "note": 71,
      "start": 25.6959,
      "duration": 0.1288,
      "velocity": 93,
      "chip": "ym2612"
    },
    {
      "channel": 1,
      "note": 52,
      "start": 25.6959,
      "duration": 0.128,
      "velocity": 87,
      "chip": "ym2612"
    },
    {
      "channel": 4,
      "note": 54,
      "start": 25.8245,
      "duration": 0.3849,
      "velocity": 127,
      "chip": "ym2612"
    },
    {
      "channel": 2,
      "note": 83,
      "start": 25.8246,
      "duration": 0.1264,
      "velocity": 86,
      "chip": "ym2612"
    },
    {
      "channel": 1,
      "note": 56,
      "start": 25.8247,
      "duration": 0.1263,
      "velocity": 87,
      "chip": "ym2612"
    },
    {
      "channel": 2,
      "note": 85,
      "start": 25.9522,
      "duration": 0.128,
      "velocity": 86,
      "chip": "ym2612"
    },
    {
      "channel": 1,
      "note": 52,
      "start": 25.9523,
      "duration": 0.1279,
      "velocity": 87,
      "chip": "ym2612"
    },
    {
      "channel": 5,
      "note": 54,
      "start": 26.0808,
      "duration": 0.1279,
      "velocity": 111,
      "chip": "ym2612"
    },
    {
      "channel": 2,
      "note": 86,
      "start": 26.0809,
      "duration": 0.1278,
      "velocity": 86,
      "chip": "ym2612"
    },
    {
      "channel": 3,
      "note": 64,
      "start": 26.0809,
      "duration": 0.1285,
      "velocity": 93,
      "chip": "ym2612"
    },
    {
      "channel": 1,
      "note": 47,
      "start": 26.081,
      "duration": 0.1278,
      "velocity": 87,
      "chip": "ym2612"
    },
    {
      "channel": 5,
      "note": 54,
      "start": 26.2093,
      "duration": 0.1273,
      "velocity": 111,
      "chip": "ym2612"
    },
    {
      "channel": 2,
      "note": 90,
      "start": 26.2095,
      "duration": 0.2553,
      "velocity": 86,
      "chip": "ym2612"
    },
    {
      "channel": 1,
      "note": 50,
      "start": 26.2095,
      "duration": 0.1273,
      "velocity": 87,
      "chip": "ym2612"
    },
    {
      "channel": 5,
      "note": 54,
      "start": 26.4654,
      "duration": 0.1281,
      "velocity": 111,
      "chip": "ym2612"
    },
    {
      "channel": 3,
      "note": 62,
      "start": 26.4654,
      "duration": 0.1275,
      "velocity": 93,
      "chip": "ym2612"
    },
    {
      "channel": 2,
      "note": 86,
      "start": 26.4655,
      "duration": 0.2547,
      "velocity": 86,
      "chip": "ym2612"
    },
    {
      "channel": 1,
      "note": 50,
      "start": 26.4656,
      "duration": 0.1273,
      "velocity": 87,
      "chip": "ym2612"
    },
    {
      "channel": 4,
      "note": 54,
      "start": 26.5936,
      "duration": 0.3851,
      "velocity": 127,
      "chip": "ym2612"
    },
    {
      "channel": 3,
      "note": 69,
      "start": 26.5936,
      "duration": 0.2555,
      "velocity": 93,
      "chip": "ym2612"
    },
    {
      "channel": 1,
      "note": 50,
      "start": 26.5937,
      "duration": 0.1266,
      "velocity": 87,
      "chip": "ym2612"
    },
    {
      "channel": 1,
      "note": 45,
      "start": 26.7215,
      "duration": 0.1276,
      "velocity": 87,
      "chip": "ym2612"
    },
    {
      "channel": 2,
      "note": 90,
      "start": 26.7215,
      "duration": 0.2565,
      "velocity": 86,
      "chip": "ym2612"
    },
    {
      "channel": 5,
      "note": 54,
      "start": 26.8497,
      "duration": 0.1283,
      "velocity": 111,
      "chip": "ym2612"
    },
    {
      "channel": 3,
      "note": 62,
      "start": 26.8498,
      "duration": 0.1289,
      "velocity": 93,
      "chip": "ym2612"
    },
    {
      "channel": 1,
      "note": 50,
      "start": 26.8499,
      "duration": 0.1282,
      "velocity": 87,
      "chip": "ym2612"
    },
    {
      "channel": 5,
      "note": 54,
      "start": 26.9786,
      "duration": 0.1273,
      "velocity": 111,
      "chip": "ym2612"
    },
    {
      "channel": 2,
      "note": 92,
      "start": 26.9787,
      "duration": 0.7686,
      "velocity": 86,
      "chip": "ym2612"
    },
    {
      "channel": 1,
      "note": 52,
      "start": 26.9787,
      "duration": 0.1274,
      "velocity": 87,
      "chip": "ym2612"
    },
    {
      "channel": 5,
      "note": 54,
      "start": 27.2341,
      "duration": 0.1286,
      "velocity": 111,
      "chip": "ym2612"
    },
    {
      "channel": 3,
      "note": 64,
      "start": 27.2343,
      "duration": 0.1279,
      "velocity": 93,
      "chip": "ym2612"
    },
    {
      "channel": 1,
      "note": 52,
      "start": 27.2343,
      "duration": 0.1279,
      "velocity": 87,
      "chip": "ym2612"
    },
    {
      "channel": 4,
      "note": 54,
      "start": 27.3628,
      "duration": 0.3852,
      "velocity": 127,
      "chip": "ym2612"
    },
    {
      "channel": 3,
      "note": 71,
      "start": 27.3628,
      "duration": 0.2552,
      "velocity": 93,
      "chip": "ym2612"
    },
    {
      "channel": 1,
      "note": 52,
      "start": 27.3629,
      "duration": 0.1264,
      "velocity": 87,
      "chip": "ym2612"
    },
    {
      "channel": 1,
      "note": 47,
      "start": 27.4907,
      "duration": 0.1274,
      "velocity": 87,
      "chip": "ym2612"
    },
    {
      "channel": 5,
      "note": 54,
      "start": 27.6188,
      "duration": 0.1284,
      "velocity": 111,
      "chip": "ym2612"
    },
    {
      "channel": 3,
      "note": 64,
      "start": 27.6189,
      "duration": 0.1291,
      "velocity": 93,
      "chip": "ym2612"
    },
    {
      "channel": 1,
      "note": 52,
      "start": 27.6189,
      "duration": 0.1284,
      "velocity": 87,
      "chip": "ym2612"
    },
    {
      "channel": 5,
      "note": 54,
      "start": 27.7479,
      "duration": 0.1273,
      "velocity": 111,
      "chip": "ym2612"
    },
    {
      "channel": 2,
      "note": 83,
      "start": 27.748,
      "duration": 0.0618,
      "velocity": 86,
      "chip": "ym2612"
    },
    {
      "channel": 1,
      "note": 54,
      "start": 27.7481,
      "duration": 0.1273,
      "velocity": 87,
      "chip": "ym2612"
    },
    {
      "channel": 2,
      "note": 85,
      "start": 27.8112,
      "duration": 0.0632,
      "velocity": 86,
      "chip": "ym2612"
    },
    {
      "channel": 2,
      "note": 85,
      "start": 27.8753,
      "duration": 1.0253,
      "velocity": 86,
      "chip": "ym2612"
    },
    {
      "channel": 5,
      "note": 54,
      "start": 28.0034,
      "duration": 0.1285,
      "velocity": 111,
      "chip": "ym2612"
    },
    {
      "channel": 3,
      "note": 66,
      "start": 28.0035,
      "duration": 0.1279,
      "velocity": 93,
      "chip": "ym2612"
    },
    {
      "channel": 1,
      "note": 54,
      "start": 28.0035,
      "duration": 0.1279,
      "velocity": 87,
      "chip": "ym2612"
    },
    {
      "channel": 4,
      "note": 54,
      "start": 28.132,
      "duration": 0.3848,
      "velocity": 127,
      "chip": "ym2612"
    },
    {
      "channel": 3,
      "note": 73,
      "start": 28.1321,
      "duration": 0.2551,
      "velocity": 93,
      "chip": "ym2612"
    },
    {
      "channel": 1,
      "note": 54,
      "start": 28.1322,
      "duration": 0.1265,
      "velocity": 87,
      "chip": "ym2612"
    },
    {
      "channel": 1,
      "note": 49,
      "start": 28.26,
      "duration": 0.1273,
      "velocity": 87,
      "chip": "ym2612"
    },
    {
      "channel": 5,
      "note": 54,
      "start": 28.388,
      "duration": 0.1281,
      "velocity": 111,
      "chip": "ym2612"
    },
    {
      "channel": 3,
      "note": 66,
      "start": 28.3881,
      "duration": 0.1281,
      "velocity": 93,
      "chip": "ym2612"
    },
    {
      "channel": 1,
      "note": 54,
      "start": 28.3882,
      "duration": 0.128,
      "velocity": 87,
      "chip": "ym2612"
    },
    {
      "channel": 5,
      "note": 54,
      "start": 28.5168,
      "duration": 0.1276,
      "velocity": 111,
      "chip": "ym2612"
    },
    {
      "channel": 3,
      "note": 71,
      "start": 28.5169,
      "duration": 0.255,
      "velocity": 93,
      "chip": "ym2612"
    },
    {
      "channel": 1,
      "note": 54,
      "start": 28.517,
      "duration": 0.1276,
      "velocity": 87,
      "chip": "ym2612"
    },
    {
      "channel": 5,
      "note": 54,
      "start": 28.7727,
      "duration": 0.1285,
      "velocity": 111,
      "chip": "ym2612"
    },
    {
      "channel": 3,
      "note": 73,
      "start": 28.7728,
      "duration": 0.1285,
      "velocity": 93,
      "chip": "ym2612"
    },
    {
      "channel": 1,
      "note": 54,
      "start": 28.7728,
      "duration": 0.1278,
      "velocity": 87,
      "chip": "ym2612"
    },
    {
      "channel": 4,
      "note": 54,
      "start": 28.9012,
      "duration": 0.3848,
      "velocity": 127,
      "chip": "ym2612"
    },
    {
      "channel": 2,
      "note": 85,
      "start": 28.9013,
      "duration": 0.1269,
      "velocity": 86,
      "chip": "ym2612"
    },
    {
      "channel": 1,
      "note": 57,
      "start": 28.9014,
      "duration": 0.1268,
      "velocity": 87,
      "chip": "ym2612"
    },
    {
      "channel": 2,
      "note": 90,
      "start": 29.0292,
      "duration": 0.128,
      "velocity": 86,
      "chip": "ym2612"
    },
    {
      "channel": 1,
      "note": 54,
      "start": 29.0293,
      "duration": 0.128,
      "velocity": 87,
      "chip": "ym2612"
    },
    {
      "channel": 5,
      "note": 54,
      "start": 29.1578,
      "duration": 0.1276,
      "velocity": 111,
      "chip": "ym2612"
    },
    {
      "channel": 2,
      "note": 92,
      "start": 29.1579,
      "duration": 0.1276,
      "velocity": 86,
      "chip": "ym2612"
    },
    {
      "channel": 3,
      "note": 66,
      "start": 29.1579,
      "duration": 0.1283,
      "velocity": 93,
      "chip": "ym2612"
    },
    {
      "channel": 1,
      "note": 49,
      "start": 29.1579,
      "duration": 0.1276,
      "velocity": 87,
      "chip": "ym2612"
    },
    {
      "channel": 5,
      "note": 54,
      "start": 29.2861,
      "duration": 0.1276,
      "velocity": 111,
      "chip": "ym2612"
    },
    {
      "channel": 2,
      "note": 93,
      "start": 29.2861,
      "duration": 0.6402,
      "velocity": 86,
      "chip": "ym2612"
    },
    {
      "channel": 1,
      "note": 52,
      "start": 29.2862,
      "duration": 0.1277,
      "velocity": 87,
      "chip": "ym2612"
    },
    {
      "channel": 5,
      "note": 54,
      "start": 29.542,
      "duration": 0.1282,
      "velocity": 111,
      "chip": "ym2612"
    },
    {
      "channel": 3,
      "note": 64,
      "start": 29.542,
      "duration": 0.1275,
      "velocity": 93,
      "chip": "ym2612"
    },
    {
      "channel": 1,
      "note": 52,
      "start": 29.5421,
      "duration": 0.1276,
      "velocity": 87,
      "chip": "ym2612"
    },
    {
      "channel": 4,
      "note": 54,
      "start": 29.6703,
      "duration": 0.3848,
      "velocity": 127,
      "chip": "ym2612"
    },
    {
      "channel": 3,
      "note": 71,
      "start": 29.6703,
      "duration": 0.256,
      "velocity": 93,
      "chip": "ym2612"
    },
    {
      "channel": 1,
      "note": 52,
      "start": 29.6704,
      "duration": 0.1267,
      "velocity": 87,
      "chip": "ym2612"
    },
    {
      "channel": 1,
      "note": 47,
      "start": 29.7985,
      "duration": 0.128,
      "velocity": 87,
      "chip": "ym2612"
    },
    {
      "channel": 5,
      "note": 54,
      "start": 29.927,
      "duration": 0.1273,
      "velocity": 111,
      "chip": "ym2612"
    },
    {
      "channel": 3,
      "note": 64,
      "start": 29.9271,
      "duration": 0.1274,
      "velocity": 93,
      "chip": "ym2612"
    },
    {
      "channel": 2,
      "note": 92,
      "start": 29.9271,
      "duration": 0.5121,
      "velocity": 86,
      "chip": "ym2612"
    },
    {
      "channel": 1,
      "note": 52,
      "start": 29.9272,
      "duration": 0.1273,
      "velocity": 87,
      "chip": "ym2612"
    },
    {
      "channel": 5,
      "note": 54,
      "start": 30.0551,
      "duration": 0.1278,
      "velocity": 111,
      "chip": "ym2612"
    },
    {
      "channel": 3,
      "note": 69,
      "start": 30.0551,
      "duration": 0.2555,
      "velocity": 93,
      "chip": "ym2612"
    },
    {
      "channel": 1,
      "note": 52,
      "start": 30.0552,
      "duration": 0.1279,
      "velocity": 87,
      "chip": "ym2612"
    },
    {
      "channel": 5,
      "note": 54,
      "start": 30.3112,
      "duration": 0.1288,
      "velocity": 111,
      "chip": "ym2612"
    },
    {
      "channel": 3,
      "note": 71,
      "start": 30.3113,
      "duration": 0.1287,
      "velocity": 93,
      "chip": "ym2612"
    },
    {
      "channel": 1,
      "note": 52,
      "start": 30.3114,
      "duration": 0.1279,
      "velocity": 87,
      "chip": "ym2612"
    },
    {
      "channel": 4,
      "note": 54,
      "start": 30.44,
      "duration": 0.3848,
      "velocity": 127,
      "chip": "ym2612"
    },
    {
      "channel": 1,
      "note": 56,
      "start": 30.4401,
      "duration": 0.126,
      "velocity": 87,
      "chip": "ym2612"
    },
    {
      "channel": 2,
      "note": 90,
      "start": 30.4401,
      "duration": 0.3841,
      "velocity": 86,
      "chip": "ym2612"
    },
    {
      "channel": 1,
      "note": 52,
      "start": 30.5677,
      "duration": 0.1277,
      "velocity": 87,
      "chip": "ym2612"
    },
    {
      "channel": 5,
      "note": 54,
      "start": 30.6959,
      "duration": 0.1282,
      "velocity": 111,
      "chip": "ym2612"
    },
    {
      "channel": 3,
      "note": 64,
      "start": 30.696,
      "duration": 0.1289,
      "velocity": 93,
      "chip": "ym2612"
    },
    {
      "channel": 1,
      "note": 47,
      "start": 30.696,
      "duration": 0.1282,
      "velocity": 87,
      "chip": "ym2612"
    },
    {
      "channel": 5,
      "note": 54,
      "start": 30.8248,
      "duration": 0.1274,
      "velocity": 111,
      "chip": "ym2612"
    },
    {
      "channel": 2,
      "note": 95,
      "start": 30.8249,
      "duration": 0.64,
      "velocity": 86,
      "chip": "ym2612"
    },
    {
      "channel": 1,
      "note": 50,
      "start": 30.8249,
      "duration": 0.1274,
      "velocity": 87,
      "chip": "ym2612"
    },
    {
      "channel": 5,
      "note": 54,
      "start": 31.0805,
      "duration": 0.1285,
      "velocity": 111,
      "chip": "ym2612"
    },
    {
      "channel": 3,
      "note": 62,
      "start": 31.0805,
      "duration": 0.1278,
      "velocity": 93,
      "chip": "ym2612"
    },
    {
      "channel": 1,
      "note": 50,
      "start": 31.0806,
      "duration": 0.1278,
      "velocity": 87,
      "chip": "ym2612"
    },
    {
      "channel": 4,
      "note": 54,
      "start": 31.209,
      "duration": 0.3848,
      "velocity": 127,
      "chip": "ym2612"
    },
    {
      "channel": 3,
      "note": 69,
      "start": 31.2091,
      "duration": 0.2558,
      "velocity": 93,
      "chip": "ym2612"
    },
    {
      "channel": 1,
      "note": 50,
      "start": 31.2091,
      "duration": 0.1262,
      "velocity": 87,
      "chip": "ym2612"
    },
    {
      "channel": 1,
      "note": 45,
      "start": 31.3369,
      "duration": 0.128,
      "velocity": 87,
      "chip": "ym2612"
    },
    {
      "channel": 5,
      "note": 54,
      "start": 31.4655,
      "duration": 0.1276,
      "velocity": 111,
      "chip": "ym2612"
    },
    {
      "channel": 3,
      "note": 62,
      "start": 31.4656,
      "duration": 0.1276,
      "velocity": 93,
      "chip": "ym2612"
    },
    {
      "channel": 2,
      "note": 93,
      "start": 31.4656,
      "duration": 0.5122,
      "velocity": 86,
      "chip": "ym2612"
    },
    {
      "channel": 1,
      "note": 50,
      "start": 31.4657,
      "duration": 0.1276,
      "velocity": 87,
      "chip": "ym2612"
    },
    {
      "channel": 5,
      "note": 54,
      "start": 31.5938,
      "duration": 0.1276,
      "velocity": 111,
      "chip": "ym2612"
    },
    {
      "channel": 3,
      "note": 68,
      "start": 31.5939,
      "duration": 0.2552,
      "velocity": 93,
      "chip": "ym2612"
    },
    {
      "channel": 1,
      "note": 50,
      "start": 31.5939,
      "duration": 0.1276,
      "velocity": 87,
      "chip": "ym2612"
    },
    {
      "channel": 5,
      "note": 54,
      "start": 31.8497,
      "duration": 0.1288,
      "velocity": 111,
      "chip": "ym2612"
    },
    {
      "channel": 3,
      "note": 69,
      "start": 31.8498,
      "duration": 0.1288,
      "velocity": 93,
      "chip": "ym2612"
    },
    {
      "channel": 1,
      "note": 50,
      "start": 31.8499,
      "duration": 0.128,
      "velocity": 87,
      "chip": "ym2612"
    },
    {
      "channel": 4,
      "note": 54,
      "start": 31.9785,
      "duration": 0.3844,
      "velocity": 127,
      "chip": "ym2612"
    },
    {
      "channel": 2,
      "note": 92,
      "start": 31.9785,
      "duration": 0.1263,
      "velocity": 86,
      "chip": "ym2612"
    },
    {
      "channel": 1,
      "note": 54,
      "start": 31.9786,
      "duration": 0.1263,
      "velocity": 87,
      "chip": "ym2612"
    },
    {
      "channel": 1,
      "note": 50,
      "start": 32.1061,
      "duration": 0.1277,
      "velocity": 87,
      "chip": "ym2612"
    },
    {
      "channel": 2,
      "note": 90,
      "start": 32.1061,
      "duration": 0.1277,
      "velocity": 86,
      "chip": "ym2612"
    },
    {
      "channel": 5,
      "note": 54,
      "start": 32.2345,
      "duration": 0.1283,
      "velocity": 111,
      "chip": "ym2612"
    },
    {
      "channel": 3,
      "note": 62,
      "start": 32.2345,
      "duration": 0.129,
      "velocity": 93,
      "chip": "ym2612"
    },
    {
      "channel": 2,
      "note": 86,
      "start": 32.2346,
      "duration": 0.1283,
      "velocity": 86,
      "chip": "ym2612"
    },
    {
      "channel": 1,
      "note": 45,
      "start": 32.2346,
      "duration": 0.1283,
      "velocity": 87,
      "chip": "ym2612"
    },
    {
      "channel": 5,
      "note": 54,
      "start": 32.3635,
      "duration": 0.1272,
      "velocity": 111,
      "chip": "ym2612"
    },
    {
      "channel": 4,
      "note": 54,
      "start": 32.3635,
      "duration": 0.1261,
      "velocity": 127,
      "chip": "ym2612"
    },
    {
      "channel": 2,
      "note": 88,
      "start": 32.3636,
      "duration": 1.5385,
      "velocity": 86,
      "chip": "ym2612"
    },
    {
      "channel": 1,
      "note": 52,
      "start": 32.3637,
      "duration": 0.1272,
      "velocity": 87,
      "chip": "ym2612"
    },
    {
      "channel": 4,
      "note": 54,
      "start": 32.4907,
      "duration": 0.1276,
      "velocity": 127,
      "chip": "ym2612"
    },
    {
      "channel": 5,
      "note": 54,
      "start": 32.6189,
      "duration": 0.1285,
      "velocity": 111,
      "chip": "ym2612"
    },
    {
      "channel": 3,
      "note": 64,
      "start": 32.619,
      "duration": 0.1278,
      "velocity": 93,
      "chip": "ym2612"
    },
    {
      "channel": 4,
      "note": 54,
      "start": 32.619,
      "duration": 0.1277,
      "velocity": 127,
      "chip": "ym2612"
    },
    {
      "channel": 1,
      "note": 52,
      "start": 32.6191,
      "duration": 0.1277,
      "velocity": 87,
      "chip": "ym2612"
    },
    {
      "channel": 4,
      "note": 54,
      "start": 32.7474,
      "duration": 0.1268,
      "velocity": 127,
      "chip": "ym2612"
    },
    {
      "channel": 3,
      "note": 71,
      "start": 32.7475,
      "duration": 0.2555,
      "velocity": 93,
      "chip": "ym2612"
    },
    {
      "channel": 1,
      "note": 52,
      "start": 32.7476,
      "duration": 0.1268,
      "velocity": 87,
      "chip": "ym2612"
    },
    {
      "channel": 4,
      "note": 54,
      "start": 32.8753,
      "duration": 0.1277,
      "velocity": 127,
      "chip": "ym2612"
    },
    {
      "channel": 1,
      "note": 47,
      "start": 32.8754,
      "duration": 0.1276,
      "velocity": 87,
      "chip": "ym2612"
    },
    {
      "channel": 5,
      "note": 54,
      "start": 33.0036,
      "duration": 0.1281,
      "velocity": 111,
      "chip": "ym2612"
    },
    {
      "channel": 3,
      "note": 64,
      "start": 33.0037,
      "duration": 0.1281,
      "velocity": 93,
      "chip": "ym2612"
    },
    {
      "channel": 4,
      "note": 54,
      "start": 33.0037,
      "duration": 0.1281,
      "velocity": 127,
      "chip": "ym2612"
    },
    {
      "channel": 1,
      "note": 52,
      "start": 33.0038,
      "duration": 0.128,
      "velocity": 87,
      "chip": "ym2612"
    },
    {
      "channel": 5,
      "note": 54,
      "start": 33.1324,
      "duration": 0.1275,
      "velocity": 111,
      "chip": "ym2612"
    },
    {
      "channel": 3,
      "note": 69,
      "start": 33.1325,
      "duration": 0.2551,
      "velocity": 93,
      "chip": "ym2612"
    },
    {
      "channel": 4,
      "note": 54,
      "start": 33.1325,
      "duration": 0.1264,
      "velocity": 127,
      "chip": "ym2612"
    },
    {
      "channel": 1,
      "note": 52,
      "start": 33.1326,
      "duration": 0.1274,
      "velocity": 87,
      "chip": "ym2612"
    },
    {
      "channel": 4,
      "note": 54,
      "start": 33.2599,
      "duration": 0.1276,
      "velocity": 127,
      "chip": "ym2612"
    },
    {
      "channel": 4,
      "note": 54,
      "start": 33.3882,
      "duration": 0.1277,
      "velocity": 127,
      "chip": "ym2612"
    },
    {
      "channel": 5,
      "note": 54,
      "start": 33.3882,
      "duration": 0.1283,
      "velocity": 111,
      "chip": "ym2612"
    },
    {
      "channel": 3,
      "note": 71,
      "start": 33.3883,
      "duration": 0.1283,
      "velocity": 93,
      "chip": "ym2612"
    },
    {
      "channel": 1,
      "note": 52,
      "start": 33.3883,
      "duration": 0.1276,
      "velocity": 87,
      "chip": "ym2612"
    },
    {
      "channel": 4,
      "note": 54,
      "start": 33.5166,
      "duration": 0.127,
      "velocity": 127,
      "chip": "ym2612"
    },
    {
      "channel": 1,
      "note": 56,
      "start": 33.5167,
      "duration": 0.1269,
      "velocity": 87,
      "chip": "ym2612"
    },
    {
      "channel": 4,
      "note": 54,
      "start": 33.6445,
      "duration": 0.1277,
      "velocity": 127,
      "chip": "ym2612"
    },
    {
      "channel": 1,
      "note": 52,
      "start": 33.6446,
      "duration": 0.1278,
      "velocity": 87,
      "chip": "ym2612"
    },
    {
      "channel": 5,
      "note": 54,
      "start": 33.7731,
      "duration": 0.1282,
      "velocity": 111,
      "chip": "ym2612"
    },
    {
      "channel": 3,
      "note": 64,
      "start": 33.7732,
      "duration": 0.1289,
      "velocity": 93,
      "chip": "ym2612"
    },
    {
      "channel": 4,
      "note": 54,
      "start": 33.7732,
      "duration": 0.1288,
      "velocity": 127,
      "chip": "ym2612"
    },
    {
      "channel": 1,
      "note": 47,
      "start": 33.7733,
      "duration": 0.1281,
      "velocity": 87,
      "chip": "ym2612"
    },
    {
      "channel": 5,
      "note": 54,
      "start": 33.902,
      "duration": 0.1272,
      "velocity": 111,
      "chip": "ym2612"
    },
    {
      "channel": 1,
      "note": 54,
      "start": 33.9022,
      "duration": 0.1271,
      "velocity": 87,
      "chip": "ym2612"
    },
    {
      "channel": 5,
      "note": 54,
      "start": 34.1578,
      "duration": 0.1283,
      "velocity": 111,
      "chip": "ym2612"
    },
    {
      "channel": 2,
      "note": 78,
      "start": 34.1579,
      "duration": 0.1276,
      "velocity": 86,
      "chip": "ym2612"
    },
    {
      "channel": 3,
      "note": 66,
      "start": 34.1579,
      "duration": 0.1276,
      "velocity": 93,
      "chip": "ym2612"
    },
    {
      "channel": 1,
      "note": 54,
      "start": 34.1579,
      "duration": 0.1276,
      "velocity": 87,
      "chip": "ym2612"
    },
    {
      "channel": 3,
      "note": 69,
      "start": 34.2862,
      "duration": 0.2556,
      "velocity": 93,
      "chip": "ym2612"
    },
    {
      "channel": 4,
      "note": 54,
      "start": 34.2862,
      "duration": 0.3847,
      "velocity": 127,
      "chip": "ym2612"
    },
    {
      "channel": 1,
      "note": 54,
      "start": 34.2862,
      "duration": 0.1277,
      "velocity": 87,
      "chip": "ym2612"
    },
    {
      "channel": 2,
      "note": 85,
      "start": 34.2862,
      "duration": 0.2555,
      "velocity": 86,
      "chip": "ym2612"
    },
    {
      "channel": 5,
      "note": 54,
      "start": 34.5424,
      "duration": 0.1278,
      "velocity": 111,
      "chip": "ym2612"
    },
    {
      "channel": 2,
      "note": 78,
      "start": 34.5425,
      "duration": 0.1278,
      "velocity": 86,
      "chip": "ym2612"
    },
    {
      "channel": 3,
      "note": 66,
      "start": 34.5425,
      "duration": 0.1277,
      "velocity": 93,
      "chip": "ym2612"
    },
    {
      "channel": 1,
      "note": 54,
      "start": 34.5425,
      "duration": 0.1277,
      "velocity": 87,
      "chip": "ym2612"
    },
    {
      "channel": 5,
      "note": 54,
      "start": 34.6708,
      "duration": 0.1275,
      "velocity": 111,
      "chip": "ym2612"
    },
    {
      "channel": 2,
      "note": 83,
      "start": 34.671,
      "duration": 0.2554,
      "velocity": 86,
      "chip": "ym2612"
    },
    {
      "channel": 3,
      "note": 68,
      "start": 34.671,
      "duration": 0.2554,
      "velocity": 93,
      "chip": "ym2612"
    },
    {
      "channel": 1,
      "note": 54,
      "start": 34.671,
      "duration": 0.1275,
      "velocity": 87,
      "chip": "ym2612"
    },
    {
      "channel": 5,
      "note": 54,
      "start": 34.927,
      "duration": 0.1278,
      "velocity": 111,
      "chip": "ym2612"
    },
    {
      "channel": 3,
      "note": 69,
      "start": 34.9271,
      "duration": 0.1278,
      "velocity": 93,
      "chip": "ym2612"
    },
    {
      "channel": 2,
      "note": 85,
      "start": 34.9271,
      "duration": 0.1278,
      "velocity": 86,
      "chip": "ym2612"
    },
    {
      "channel": 1,
      "note": 54,
      "start": 34.9272,
      "duration": 0.127,
      "velocity": 87,
      "chip": "ym2612"
    },
    {
      "channel": 4,
      "note": 54,
      "start": 35.0549,
      "duration": 0.3851,
      "velocity": 127,
      "chip": "ym2612"
    },
    {
      "channel": 1,
      "note": 54,
      "start": 35.055,
      "duration": 0.1281,
      "velocity": 87,
      "chip": "ym2612"
    },
    {
      "channel": 5,
      "note": 54,
      "start": 35.3116,
      "duration": 0.1276,
      "velocity": 111,
      "chip": "ym2612"
    },
    {
      "channel": 3,
      "note": 66,
      "start": 35.3117,
      "duration": 0.1283,
      "velocity": 93,
      "chip": "ym2612"
    },
    {
      "channel": 2,
      "note": 78,
      "start": 35.3117,
      "duration": 0.1283,
      "velocity": 86,
      "chip": "ym2612"
    },
    {
      "channel": 1,
      "note": 54,
      "start": 35.3118,
      "duration": 0.1275,
      "velocity": 87,
      "chip": "ym2612"
    },
    {
      "channel": 5,
      "note": 54,
      "start": 35.4399,
      "duration": 0.1277,
      "velocity": 111,
      "chip": "ym2612"
    },
    {
      "channel": 1,
      "note": 54,
      "start": 35.4401,
      "duration": 0.1277,
      "velocity": 87,
      "chip": "ym2612"
    },
    {
      "channel": 5,
      "note": 54,
      "start": 35.6962,
      "duration": 0.1285,
      "velocity": 111,
      "chip": "ym2612"
    },
    {
      "channel": 3,
      "note": 66,
      "start": 35.6963,
      "duration": 0.1278,
      "velocity": 93,
      "chip": "ym2612"
    },
    {
      "channel": 2,
      "note": 78,
      "start": 35.6963,
      "duration": 0.1278,
      "velocity": 86,
      "chip": "ym2612"
    },
    {
      "channel": 1,
      "note": 54,
      "start": 35.6964,
      "duration": 0.1278,
      "velocity": 87,
      "chip": "ym2612"
    },
    {
      "channel": 3,
      "note": 69,
      "start": 35.8249,
      "duration": 0.2554,
      "velocity": 93,
      "chip": "ym2612"
    },
    {
      "channel": 4,
      "note": 54,
      "start": 35.8249,
      "duration": 0.3848,
      "velocity": 127,
      "chip": "ym2612"
    },
    {
      "channel": 1,
      "note": 54,
      "start": 35.8249,
      "duration": 0.1275,
      "velocity": 87,
      "chip": "ym2612"
    },
    {
      "channel": 2,
      "note": 85,
      "start": 35.8249,
      "duration": 0.2554,
      "velocity": 86,
      "chip": "ym2612"
    },
    {
      "channel": 5,
      "note": 54,
      "start": 36.0809,
      "duration": 0.128,
      "velocity": 111,
      "chip": "ym2612"
    },
    {
      "channel": 3,
      "note": 66,
      "start": 36.081,
      "duration": 0.128,
      "velocity": 93,
      "chip": "ym2612"
    },
    {
      "channel": 1,
      "note": 54,
      "start": 36.081,
      "duration": 0.128,
      "velocity": 87,
      "chip": "ym2612"
    },
    {
      "channel": 2,
      "note": 78,
      "start": 36.081,
      "duration": 0.1279,
      "velocity": 86,
      "chip": "ym2612"
    },
    {
      "channel": 5,
      "note": 54,
      "start": 36.2096,
      "duration": 0.1272,
      "velocity": 111,
      "chip": "ym2612"
    },
    {
      "channel": 3,
      "note": 68,
      "start": 36.2097,
      "duration": 0.2552,
      "velocity": 93,
      "chip": "ym2612"
    },
    {
      "channel": 2,
      "note": 83,
      "start": 36.2097,
      "duration": 0.2552,
      "velocity": 86,
      "chip": "ym2612"
    },
    {
      "channel": 1,
      "note": 54,
      "start": 36.2098,
      "duration": 0.1272,
      "velocity": 87,
      "chip": "ym2612"
    },
    {
      "channel": 5,
      "note": 54,
      "start": 36.4655,
      "duration": 0.128,
      "velocity": 111,
      "chip": "ym2612"
    },
    {
      "channel": 3,
      "note": 69,
      "start": 36.4656,
      "duration": 0.128,
      "velocity": 93,
      "chip": "ym2612"
    },
    {
      "channel": 2,
      "note": 85,
      "start": 36.4656,
      "duration": 0.1281,
      "velocity": 86,
      "chip": "ym2612"
    },
    {
      "channel": 1,
      "note": 54,
      "start": 36.4657,
      "duration": 0.1273,
      "velocity": 87,
      "chip": "ym2612"
    },
    {
      "channel": 4,
      "note": 54,
      "start": 36.5936,
      "duration": 0.3849,
      "velocity": 127,
      "chip": "ym2612"
    },
    {
      "channel": 1,
      "note": 54,
      "start": 36.5937,
      "duration": 0.1279,
      "velocity": 87,
      "chip": "ym2612"
    },
    {
      "channel": 5,
      "note": 54,
      "start": 36.8502,
      "duration": 0.1276,
      "velocity": 111,
      "chip": "ym2612"
    },
    {
      "channel": 3,
      "note": 64,
      "start": 36.8502,
      "duration": 0.1283,
      "velocity": 93,
      "chip": "ym2612"
    },
    {
      "channel": 2,
      "note": 76,
      "start": 36.8503,
      "duration": 0.1283,
      "velocity": 86,
      "chip": "ym2612"
    },
    {
      "channel": 1,
      "note": 57,
      "start": 36.8504,
      "duration": 0.1275,
      "velocity": 87,
      "chip": "ym2612"
    },
    {
      "channel": 5,
      "note": 54,
      "start": 36.9784,
      "duration": 0.1277,
      "velocity": 111,
      "chip": "ym2612"
    },
    {
      "channel": 1,
      "note": 57,
      "start": 36.9785,
      "duration": 0.1277,
      "velocity": 87,
      "chip": "ym2612"
    },
    {
      "channel": 5,
      "note": 54,
      "start": 37.2345,
      "duration": 0.1288,
      "velocity": 111,
      "chip": "ym2612"
    },
    {
      "channel": 3,
      "note": 64,
      "start": 37.2345,
      "duration": 0.1281,
      "velocity": 93,
      "chip": "ym2612"
    },
    {
      "channel": 2,
      "note": 76,
      "start": 37.2346,
      "duration": 0.1281,
      "velocity": 86,
      "chip": "ym2612"
    },
    {
      "channel": 1,
      "note": 57,
      "start": 37.2346,
      "duration": 0.128,
      "velocity": 87,
      "chip": "ym2612"
    },
    {
      "channel": 3,
      "note": 69,
      "start": 37.3633,
      "duration": 0.2551,
      "velocity": 93,
      "chip": "ym2612"
    },
    {
      "channel": 4,
      "note": 54,
      "start": 37.3633,
      "duration": 0.3848,
      "velocity": 127,
      "chip": "ym2612"
    },
    {
      "channel": 1,
      "note": 57,
      "start": 37.3634,
      "duration": 0.1275,
      "velocity": 87,
      "chip": "ym2612"
    },
    {
      "channel": 2,
      "note": 85,
      "start": 37.3634,
      "duration": 0.2551,
      "velocity": 86,
      "chip": "ym2612"
    },
    {
      "channel": 5,
      "note": 54,
      "start": 37.6191,
      "duration": 0.1283,
      "velocity": 111,
      "chip": "ym2612"
    },
    {
      "channel": 2,
      "note": 76,
      "start": 37.6192,
      "duration": 0.1283,
      "velocity": 86,
      "chip": "ym2612"
    },
    {
      "channel": 3,
      "note": 64,
      "start": 37.6192,
      "duration": 0.1283,
      "velocity": 93,
      "chip": "ym2612"
    },
    {
      "channel": 1,
      "note": 57,
      "start": 37.6193,
      "duration": 0.1283,
      "velocity": 87,
      "chip": "ym2612"
    },
    {
      "channel": 5,
      "note": 54,
      "start": 37.7481,
      "duration": 0.1272,
      "velocity": 111,
      "chip": "ym2612"
    },
    {
      "channel": 3,
      "note": 68,
      "start": 37.7481,
      "duration": 0.255,
      "velocity": 93,
      "chip": "ym2612"
    },
    {
      "channel": 2,
      "note": 83,
      "start": 37.7482,
      "duration": 0.2549,
      "velocity": 86,
      "chip": "ym2612"
    },
    {
      "channel": 1,
      "note": 57,
      "start": 37.7483,
      "duration": 0.1272,
      "velocity": 87,
      "chip": "ym2612"
    },
    {
      "channel": 5,
      "note": 54,
      "start": 38.0037,
      "duration": 0.1283,
      "velocity": 111,
      "chip": "ym2612"
    },
    {
      "channel": 3,
      "note": 69,
      "start": 38.0038,
      "duration": 0.1284,
      "velocity": 93,
      "chip": "ym2612"
    },
    {
      "channel": 1,
      "note": 57,
      "start": 38.0039,
      "duration": 0.1276,
      "velocity": 87,
      "chip": "ym2612"
    },
    {
      "channel": 2,
      "note": 85,
      "start": 38.0039,
      "duration": 0.1283,
      "velocity": 86,
      "chip": "ym2612"
    },
    {
      "channel": 4,
      "note": 54,
      "start": 38.1321,
      "duration": 0.3854,
      "velocity": 127,
      "chip": "ym2612"
    },
    {
      "channel": 1,
      "note": 57,
      "start": 38.1322,
      "duration": 0.1278,
      "velocity": 87,
      "chip": "ym2612"
    },
    {
      "channel": 5,
      "note": 54,
      "start": 38.3883,
      "duration": 0.1284,
      "velocity": 111,
      "chip": "ym2612"
    },
    {
      "channel": 3,
      "note": 64,
      "start": 38.3884,
      "duration": 0.1284,
      "velocity": 93,
      "chip": "ym2612"
    },
    {
      "channel": 2,
      "note": 76,
      "start": 38.3885,
      "duration": 0.1283,
      "velocity": 86,
      "chip": "ym2612"
    },
    {
      "channel": 1,
      "note": 57,
      "start": 38.3885,
      "duration": 0.1283,
      "velocity": 87,
      "chip": "ym2612"
    },
    {
      "channel": 5,
      "note": 54,
      "start": 38.5174,
      "duration": 0.1272,
      "velocity": 111,
      "chip": "ym2612"
    },
    {
      "channel": 3,
      "note": 62,
      "start": 38.5175,
      "duration": 0.3834,
      "velocity": 93,
      "chip": "ym2612"
    },
    {
      "channel": 1,
      "note": 50,
      "start": 38.5176,
      "duration": 0.1271,
      "velocity": 87,
      "chip": "ym2612"
    },
    {
      "channel": 2,
      "note": 78,
      "start": 38.5176,
      "duration": 0.3834,
      "velocity": 86,
      "chip": "ym2612"
    },
    {
      "channel": 5,
      "note": 54,
      "start": 38.7728,
      "duration": 0.1288,
      "velocity": 111,
      "chip": "ym2612"
    },
    {
      "channel": 1,
      "note": 50,
      "start": 38.7729,
      "duration": 0.128,
      "velocity": 87,
      "chip": "ym2612"
    },
    {
      "channel": 4,
      "note": 54,
      "start": 38.9016,
      "duration": 0.3843,
      "velocity": 127,
      "chip": "ym2612"
    },
    {
      "channel": 2,
      "note": 80,
      "start": 38.9016,
      "duration": 0.3843,
      "velocity": 86,
      "chip": "ym2612"
    },
    {
      "channel": 3,
      "note": 64,
      "start": 38.9016,
      "duration": 0.3842,
      "velocity": 93,
      "chip": "ym2612"
    },
    {
      "channel": 1,
      "note": 52,
      "start": 38.9017,
      "duration": 0.1276,
      "velocity": 87,
      "chip": "ym2612"
    },
    {
      "channel": 5,
      "note": 54,
      "start": 39.1574,
      "duration": 0.1284,
      "velocity": 111,
      "chip": "ym2612"
    },
    {
      "channel": 1,
      "note": 52,
      "start": 39.1576,
      "duration": 0.1284,
      "velocity": 87,
      "chip": "ym2612"
    },
    {
      "channel": 4,
      "note": 54,
      "start": 39.2866,
      "duration": 0.1273,
      "velocity": 127,
      "chip": "ym2612"
    },
    {
      "channel": 5,
      "note": 54,
      "start": 39.2866,
      "duration": 0.1272,
      "velocity": 111,
      "chip": "ym2612"
    },
    {
      "channel": 2,
      "note": 81,
      "start": 39.2866,
      "duration": 0.3835,
      "velocity": 86,
      "chip": "ym2612"
    },
    {
      "channel": 3,
      "note": 66,
      "start": 39.2866,
      "duration": 0.3835,
      "velocity": 93,
      "chip": "ym2612"
    },
    {
      "channel": 1,
      "note": 54,
      "start": 39.2867,
      "duration": 0.1273,
      "velocity": 87,
      "chip": "ym2612"
    },
    {
      "channel": 4,
      "note": 54,
      "start": 39.542,
      "duration": 0.128,
      "velocity": 127,
      "chip": "ym2612"
    },
    {
      "channel": 5,
      "note": 54,
      "start": 39.542,
      "duration": 0.1288,
      "velocity": 111,
      "chip": "ym2612"
    },
    {
      "channel": 1,
      "note": 54,
      "start": 39.5422,
      "duration": 0.128,
      "velocity": 87,
      "chip": "ym2612"
    },
    {
      "channel": 3,
      "note": 68,
      "start": 39.6708,
      "duration": 0.3844,
      "velocity": 93,
      "chip": "ym2612"
    },
    {
      "channel": 4,
      "note": 54,
      "start": 39.6708,
      "duration": 0.1265,
      "velocity": 127,
      "chip": "ym2612"
    },
    {
      "channel": 2,
      "note": 83,
      "start": 39.6709,
      "duration": 0.3844,
      "velocity": 86,
      "chip": "ym2612"
    },
    {
      "channel": 1,
      "note": 56,
      "start": 39.671,
      "duration": 0.1276,
      "velocity": 87,
      "chip": "ym2612"
    },
    {
      "channel": 4,
      "note": 54,
      "start": 39.7985,
      "duration": 0.1276,
      "velocity": 127,
      "chip": "ym2612"
    },
    {
      "channel": 4,
      "note": 54,
      "start": 39.9266,
      "duration": 0.1285,
      "velocity": 127,
      "chip": "ym2612"
    },
    {
      "channel": 5,
      "note": 54,
      "start": 39.9266,
      "duration": 0.1278,
      "velocity": 111,
      "chip": "ym2612"
    },
    {
      "channel": 1,
      "note": 56,
      "start": 39.9268,
      "duration": 0.1279,
      "velocity": 87,
      "chip": "ym2612"
    },
    {
      "channel": 5,
      "note": 54,
      "start": 40.0552,
      "duration": 0.1279,
      "velocity": 111,
      "chip": "ym2612"
    },
    {
      "channel": 1,
      "note": 54,
      "start": 40.0553,
      "duration": 0.1279,
      "velocity": 87,
      "chip": "ym2612"
    },
    {
      "channel": 5,
      "note": 54,
      "start": 40.3117,
      "duration": 0.1286,
      "velocity": 111,
      "chip": "ym2612"
    },
    {
      "channel": 3,
      "note": 66,
      "start": 40.3117,
      "duration": 0.1278,
      "velocity": 93,
      "chip": "ym2612"
    },
    {
      "channel": 2,
      "note": 78,
      "start": 40.3118,
      "duration": 0.1278,
      "velocity": 86,
      "chip": "ym2612"
    },
    {
      "channel": 1,
      "note": 54,
      "start": 40.3119,
      "duration": 0.1278,
      "velocity": 87,
      "chip": "ym2612"
    },
    {
      "channel": 4,
      "note": 54,
      "start": 40.4402,
      "duration": 0.3849,
      "velocity": 127,
      "chip": "ym2612"
    },
    {
      "channel": 2,
      "note": 85,
      "start": 40.4403,
      "duration": 0.2553,
      "velocity": 86,
      "chip": "ym2612"
    },
    {
      "channel": 3,
      "note": 69,
      "start": 40.4403,
      "duration": 0.2553,
      "velocity": 93,
      "chip": "ym2612"
    },
    {
      "channel": 1,
      "note": 54,
      "start": 40.4404,
      "duration": 0.1274,
      "velocity": 87,
      "chip": "ym2612"
    },
    {
      "channel": 5,
      "note": 54,
      "start": 40.6963,
      "duration": 0.128,
      "velocity": 111,
      "chip": "ym2612"
    },
    {
      "channel": 3,
      "note": 66,
      "start": 40.6963,
      "duration": 0.128,
      "velocity": 93,
      "chip": "ym2612"
    },
    {
      "channel": 2,
      "note": 78,
      "start": 40.6964,
      "duration": 0.128,
      "velocity": 86,
      "chip": "ym2612"
    },
    {
      "channel": 1,
      "note": 54,
      "start": 40.6965,
      "duration": 0.128,
      "velocity": 87,
      "chip": "ym2612"
    },
    {
      "channel": 5,
      "note": 54,
      "start": 40.8251,
      "duration": 0.1272,
      "velocity": 111,
      "chip": "ym2612"
    },
    {
      "channel": 3,
      "note": 68,
      "start": 40.8251,
      "duration": 0.2552,
      "velocity": 93,
      "chip": "ym2612"
    },
    {
      "channel": 2,
      "note": 83,
      "start": 40.8252,
      "duration": 0.2551,
      "velocity": 86,
      "chip": "ym2612"
    },
    {
      "channel": 1,
      "note": 54,
      "start": 40.8252,
      "duration": 0.1272,
      "velocity": 87,
      "chip": "ym2612"
    },
    {
      "channel": 5,
      "note": 54,
      "start": 41.0809,
      "duration": 0.1281,
      "velocity": 111,
      "chip": "ym2612"
    },
    {
      "channel": 2,
      "note": 85,
      "start": 41.081,
      "duration": 0.1281,
      "velocity": 86,
      "chip": "ym2612"
    },
    {
      "channel": 3,
      "note": 69,
      "start": 41.081,
      "duration": 0.128,
      "velocity": 93,
      "chip": "ym2612"
    },
    {
      "channel": 1,
      "note": 54,
      "start": 41.0811,
      "duration": 0.1273,
      "velocity": 87,
      "chip": "ym2612"
    },
    {
      "channel": 4,
      "note": 54,
      "start": 41.2091,
      "duration": 0.3848,
      "velocity": 127,
      "chip": "ym2612"
    },
    {
      "channel": 1,
      "note": 54,
      "start": 41.2092,
      "duration": 0.1279,
      "velocity": 87,
      "chip": "ym2612"
    },
    {
      "channel": 5,
      "note": 54,
      "start": 41.4656,
      "duration": 0.1276,
      "velocity": 111,
      "chip": "ym2612"
    },
    {
      "channel": 3,
      "note": 66,
      "start": 41.4656,
      "duration": 0.1283,
      "velocity": 93,
      "chip": "ym2612"
    },
    {
      "channel": 1,
      "note": 54,
      "start": 41.4657,
      "duration": 0.1276,
      "velocity": 87,
      "chip": "ym2612"
    },
    {
      "channel": 2,
      "note": 78,
      "start": 41.4657,
      "duration": 0.1283,
      "velocity": 86,
      "chip": "ym2612"
    },
    {
      "channel": 5,
      "note": 54,
      "start": 41.5939,
      "duration": 0.1277,
      "velocity": 111,
      "chip": "ym2612"
    },
    {
      "channel": 1,
      "note": 54,
      "start": 41.594,
      "duration": 0.1277,
      "velocity": 87,
      "chip": "ym2612"
    },
    {
      "channel": 5,
      "note": 54,
      "start": 41.8501,
      "duration": 0.1286,
      "velocity": 111,
      "chip": "ym2612"
    },
    {
      "channel": 3,
      "note": 66,
      "start": 41.8502,
      "duration": 0.1278,
      "velocity": 93,
      "chip": "ym2612"
    },
    {
      "channel": 2,
      "note": 78,
      "start": 41.8502,
      "duration": 0.1279,
      "velocity": 86,
      "chip": "ym2612"
    },
    {
      "channel": 1,
      "note": 54,
      "start": 41.8503,
      "duration": 0.1279,
      "velocity": 87,
      "chip": "ym2612"
    },
    {
      "channel": 4,
      "note": 54,
      "start": 41.9787,
      "duration": 0.3849,
      "velocity": 127,
      "chip": "ym2612"
    },
    {
      "channel": 3,
      "note": 69,
      "start": 41.9788,
      "duration": 0.2551,
      "velocity": 93,
      "chip": "ym2612"
    },
    {
      "channel": 1,
      "note": 54,
      "start": 41.9789,
      "duration": 0.1275,
      "velocity": 87,
      "chip": "ym2612"
    },
    {
      "channel": 2,
      "note": 85,
      "start": 41.9789,
      "duration": 0.255,
      "velocity": 86,
      "chip": "ym2612"
    },
    {
      "channel": 5,
      "note": 54,
      "start": 42.2345,
      "duration": 0.1283,
      "velocity": 111,
      "chip": "ym2612"
    },
    {
      "channel": 3,
      "note": 66,
      "start": 42.2346,
      "duration": 0.1283,
      "velocity": 93,
      "chip": "ym2612"
    },
    {
      "channel": 2,
      "note": 78,
      "start": 42.2346,
      "duration": 0.1283,
      "velocity": 86,
      "chip": "ym2612"
    },
    {
      "channel": 1,
      "note": 54,
      "start": 42.2347,
      "duration": 0.1283,
      "velocity": 87,
      "chip": "ym2612"
    },
    {
      "channel": 5,
      "note": 54,
      "start": 42.3635,
      "duration": 0.1272,
      "velocity": 111,
      "chip": "ym2612"
    },
    {
      "channel": 3,
      "note": 68,
      "start": 42.3636,
      "duration": 0.2549,
      "velocity": 93,
      "chip": "ym2612"
    },
    {
      "channel": 2,
      "note": 83,
      "start": 42.3637,
      "duration": 0.2549,
      "velocity": 86,
      "chip": "ym2612"
    },
    {
      "channel": 1,
      "note": 54,
      "start": 42.3637,
      "duration": 0.1272,
      "velocity": 87,
      "chip": "ym2612"
    },
    {
      "channel": 5,
      "note": 54,
      "start": 42.6191,
      "duration": 0.1284,
      "velocity": 111,
      "chip": "ym2612"
    },
    {
      "channel": 2,
      "note": 85,
      "start": 42.6193,
      "duration": 0.1284,
      "velocity": 86,
      "chip": "ym2612"
    },
    {
      "channel": 3,
      "note": 69,
      "start": 42.6193,
      "duration": 0.1283,
      "velocity": 93,
      "chip": "ym2612"
    },
    {
      "channel": 1,
      "note": 54,
      "start": 42.6193,
      "duration": 0.1276,
      "velocity": 87,
      "chip": "ym2612"
    },
    {
      "channel": 4,
      "note": 54,
      "start": 42.7476,
      "duration": 0.3848,
      "velocity": 127,
      "chip": "ym2612"
    },
    {
      "channel": 1,
      "note": 54,
      "start": 42.7477,
      "duration": 0.1279,
      "velocity": 87,
      "chip": "ym2612"
    },
    {
      "channel": 5,
      "note": 54,
      "start": 43.0038,
      "duration": 0.1278,
      "velocity": 111,
      "chip": "ym2612"
    },
    {
      "channel": 2,
      "note": 76,
      "start": 43.0039,
      "duration": 0.1285,
      "velocity": 86,
      "chip": "ym2612"
    },
    {
      "channel": 3,
      "note": 64,
      "start": 43.0039,
      "duration": 0.1285,
      "velocity": 93,
      "chip": "ym2612"
    },
    {
      "channel": 1,
      "note": 57,
      "start": 43.004,
      "duration": 0.1278,
      "velocity": 87,
      "chip": "ym2612"
    },
    {
      "channel": 5,
      "note": 54,
      "start": 43.1324,
      "duration": 0.1276,
      "velocity": 111,
      "chip": "ym2612"
    },
    {
      "channel": 1,
      "note": 57,
      "start": 43.1325,
      "duration": 0.1277,
      "velocity": 87,
      "chip": "ym2612"
    },
    {
      "channel": 5,
      "note": 54,
      "start": 43.3884,
      "duration": 0.1287,
      "velocity": 111,
      "chip": "ym2612"
    },
    {
      "channel": 3,
      "note": 64,
      "start": 43.3885,
      "duration": 0.128,
      "velocity": 93,
      "chip": "ym2612"
    },
    {
      "channel": 1,
      "note": 57,
      "start": 43.3885,
      "duration": 0.128,
      "velocity": 87,
      "chip": "ym2612"
    },
    {
      "channel": 2,
      "note": 76,
      "start": 43.3885,
      "duration": 0.1279,
      "velocity": 86,
      "chip": "ym2612"
    },
    {
      "channel": 3,
      "note": 69,
      "start": 43.5172,
      "duration": 0.2554,
      "velocity": 93,
      "chip": "ym2612"
    },
    {
      "channel": 4,
      "note": 54,
      "start": 43.5172,
      "duration": 0.3847,
      "velocity": 127,
      "chip": "ym2612"
    },
    {
      "channel": 2,
      "note": 85,
      "start": 43.5172,
      "duration": 0.2554,
      "velocity": 86,
      "chip": "ym2612"
    },
    {
      "channel": 1,
      "note": 57,
      "start": 43.5173,
      "duration": 0.1275,
      "velocity": 87,
      "chip": "ym2612"
    },
    {
      "channel": 5,
      "note": 54,
      "start": 43.7733,
      "duration": 0.1278,
      "velocity": 111,
      "chip": "ym2612"
    },
    {
      "channel": 3,
      "note": 64,
      "start": 43.7733,
      "duration": 0.1278,
      "velocity": 93,
      "chip": "ym2612"
    },
    {
      "channel": 2,
      "note": 76,
      "start": 43.7734,
      "duration": 0.1277,
      "velocity": 86,
      "chip": "ym2612"
    },
    {
      "channel": 1,
      "note": 57,
      "start": 43.7734,
      "duration": 0.1278,
      "velocity": 87,
      "chip": "ym2612"
    },
    {
      "channel": 5,
      "note": 54,
      "start": 43.9018,
      "duration": 0.1275,
      "velocity": 111,
      "chip": "ym2612"
    },
    {
      "channel": 3,
      "note": 68,
      "start": 43.9018,
      "duration": 0.2554,
      "velocity": 93,
      "chip": "ym2612"
    },
    {
      "channel": 1,
      "note": 57,
      "start": 43.9019,
      "duration": 0.1275,
      "velocity": 87,
      "chip": "ym2612"
    },
    {
      "channel": 2,
      "note": 83,
      "start": 43.9019,
      "duration": 0.2554,
      "velocity": 86,
      "chip": "ym2612"
    },
    {
      "channel": 5,
      "note": 54,
      "start": 44.1579,
      "duration": 0.1279,
      "velocity": 111,
      "chip": "ym2612"
    },
    {
      "channel": 3,
      "note": 69,
      "start": 44.1579,
      "duration": 0.1279,
      "velocity": 93,
      "chip": "ym2612"
    },
    {
      "channel": 2,
      "note": 85,
      "start": 44.158,
      "duration": 0.1278,
      "velocity": 86,
      "chip": "ym2612"
    },
    {
      "channel": 1,
      "note": 57,
      "start": 44.1581,
      "duration": 0.1271,
      "velocity": 87,
      "chip": "ym2612"
    },
    {
      "channel": 4,
      "note": 54,
      "start": 44.2858,
      "duration": 0.3853,
      "velocity": 127,
      "chip": "ym2612"
    },
    {
      "channel": 1,
      "note": 57,
      "start": 44.2859,
      "duration": 0.1281,
      "velocity": 87,
      "chip": "ym2612"
    },
    {
      "channel": 5,
      "note": 54,
      "start": 44.5425,
      "duration": 0.1279,
      "velocity": 111,
      "chip": "ym2612"
    },
    {
      "channel": 2,
      "note": 76,
      "start": 44.5426,
      "duration": 0.1278,
      "velocity": 86,
      "chip": "ym2612"
    },
    {
      "channel": 3,
      "note": 64,
      "start": 44.5426,
      "duration": 0.1278,
      "velocity": 93,
      "chip": "ym2612"
    },
    {
      "channel": 1,
      "note": 57,
      "start": 44.5427,
      "duration": 0.1278,
      "velocity": 87,
      "chip": "ym2612"
    },
    {
      "channel": 5,
      "note": 54,
      "start": 44.671,
      "duration": 0.1274,
      "velocity": 111,
      "chip": "ym2612"
    },
    {
      "channel": 3,
      "note": 69,
      "start": 44.6711,
      "duration": 0.3837,
      "velocity": 93,
      "chip": "ym2612"
    },
    {
      "channel": 2,
      "note": 86,
      "start": 44.6712,
      "duration": 0.3837,
      "velocity": 86,
      "chip": "ym2612"
    },
    {
      "channel": 1,
      "note": 50,
      "start": 44.6712,
      "duration": 0.1274,
      "velocity": 87,
      "chip": "ym2612"
    },
    {
      "channel": 5,
      "note": 54,
      "start": 44.9267,
      "duration": 0.1288,
      "velocity": 111,
      "chip": "ym2612"
    },
    {
      "channel": 1,
      "note": 50,
      "start": 44.9268,
      "duration": 0.128,
      "velocity": 87,
      "chip": "ym2612"
    },
    {
      "channel": 3,
      "note": 71,
      "start": 45.0555,
      "duration": 0.3846,
      "velocity": 93,
      "chip": "ym2612"
    },
    {
      "channel": 4,
      "note": 54,
      "start": 45.0555,
      "duration": 0.3845,
      "velocity": 127,
      "chip": "ym2612"
    },
    {
      "channel": 2,
      "note": 88,
      "start": 45.0558,
      "duration": 0.3843,
      "velocity": 86,
      "chip": "ym2612"
    },
    {
      "channel": 1,
      "note": 52,
      "start": 45.0558,
      "duration": 0.1274,
      "velocity": 87,
      "chip": "ym2612"
    },
    {
      "channel": 5,
      "note": 54,
      "start": 45.3113,
      "duration": 0.1287,
      "velocity": 111,
      "chip": "ym2612"
    },
    {
      "channel": 1,
      "note": 52,
      "start": 45.3115,
      "duration": 0.1286,
      "velocity": 87,
      "chip": "ym2612"
    },
    {
      "channel": 5,
      "note": 54,
      "start": 45.4407,
      "duration": 0.127,
      "velocity": 111,
      "chip": "ym2612"
    },
    {
      "channel": 3,
      "note": 69,
      "start": 45.4407,
      "duration": 0.3835,
      "velocity": 93,
      "chip": "ym2612"
    },
    {
      "channel": 4,
      "note": 54,
      "start": 45.4407,
      "duration": 0.1258,
      "velocity": 127,
      "chip": "ym2612"
    },
    {
      "channel": 2,
      "note": 85,
      "start": 45.4408,
      "duration": 0.3835,
      "velocity": 86,
      "chip": "ym2612"
    },
    {
      "channel": 1,
      "note": 54,
      "start": 45.4409,
      "duration": 0.127,
      "velocity": 87,
      "chip": "ym2612"
    },
    {
      "channel": 4,
      "note": 54,
      "start": 45.5677,
      "duration": 0.1276,
      "velocity": 127,
      "chip": "ym2612"
    },
    {
      "channel": 5,
      "note": 54,
      "start": 45.6959,
      "duration": 0.129,
      "velocity": 111,
      "chip": "ym2612"
    },
    {
      "channel": 4,
      "note": 54,
      "start": 45.696,
      "duration": 0.1282,
      "velocity": 127,
      "chip": "ym2612"
    },
    {
      "channel": 1,
      "note": 54,
      "start": 45.6961,
      "duration": 0.1283,
      "velocity": 87,
      "chip": "ym2612"
    },
    {
      "channel": 4,
      "note": 54,
      "start": 45.825,
      "duration": 0.1259,
      "velocity": 127,
      "chip": "ym2612"
    },
    {
      "channel": 2,
      "note": 83,
      "start": 45.8251,
      "duration": 0.3843,
      "velocity": 86,
      "chip": "ym2612"
    },
    {
      "channel": 3,
      "note": 68,
      "start": 45.8251,
      "duration": 0.3843,
      "velocity": 93,
      "chip": "ym2612"
    },
    {
      "channel": 1,
      "note": 52,
      "start": 45.8251,
      "duration": 0.1274,
      "velocity": 87,
      "chip": "ym2612"
    },
    {
      "channel": 4,
      "note": 54,
      "start": 45.9524,
      "duration": 0.1275,
      "velocity": 127,
      "chip": "ym2612"
    },
    {
      "channel": 5,
      "note": 54,
      "start": 46.0805,
      "duration": 0.1288,
      "velocity": 111,
      "chip": "ym2612"
    },
    {
      "channel": 4,
      "note": 54,
      "start": 46.0806,
      "duration": 0.1294,
      "velocity": 127,
      "chip": "ym2612"
    },
    {
      "channel": 1,
      "note": 52,
      "start": 46.0807,
      "duration": 0.1287,
      "velocity": 87,
      "chip": "ym2612"
    },
    {
      "channel": 5,
      "note": 54,
      "start": 46.21,
      "duration": 0.127,
      "velocity": 111,
      "chip": "ym2612"
    },
    {
      "channel": 3,
      "note": 66,
      "start": 46.21,
      "duration": 1.1526,
      "velocity": 93,
      "chip": "ym2612"
    },
    {
      "channel": 1,
      "note": 50,
      "start": 46.2101,
      "duration": 0.1271,
      "velocity": 87,
      "chip": "ym2612"
    },
    {
      "channel": 2,
      "note": 81,
      "start": 46.2101,
      "duration": 1.1526,
      "velocity": 86,
      "chip": "ym2612"
    },
    {
      "channel": 5,
      "note": 54,
      "start": 46.4652,
      "duration": 0.1282,
      "velocity": 111,
      "chip": "ym2612"
    },
    {
      "channel": 1,
      "note": 50,
      "start": 46.4653,
      "duration": 0.1275,
      "velocity": 87,
      "chip": "ym2612"
    },
    {
      "channel": 4,
      "note": 54,
      "start": 46.5934,
      "duration": 0.3848,
      "velocity": 127,
      "chip": "ym2612"
    },
    {
      "channel": 1,
      "note": 50,
      "start": 46.5936,
      "duration": 0.1282,
      "velocity": 87,
      "chip": "ym2612"
    },
    {
      "channel": 5,
      "note": 54,
      "start": 46.8498,
      "duration": 0.1277,
      "velocity": 111,
      "chip": "ym2612"
    },
    {
      "channel": 1,
      "note": 50,
      "start": 46.8499,
      "duration": 0.1277,
      "velocity": 87,
      "chip": "ym2612"
    },
    {
      "channel": 5,
      "note": 54,
      "start": 46.9782,
      "duration": 0.128,
      "velocity": 111,
      "chip": "ym2612"
    },
    {
      "channel": 1,
      "note": 50,
      "start": 46.9783,
      "duration": 0.1281,
      "velocity": 87,
      "chip": "ym2612"
    },
    {
      "channel": 5,
      "note": 54,
      "start": 47.2344,
      "duration": 0.1288,
      "velocity": 111,
      "chip": "ym2612"
    },
    {
      "channel": 1,
      "note": 50,
      "start": 47.2346,
      "duration": 0.1281,
      "velocity": 87,
      "chip": "ym2612"
    },
    {
      "channel": 3,
      "note": 66,
      "start": 47.3633,
      "duration": 0.3845,
      "velocity": 93,
      "chip": "ym2612"
    },
    {
      "channel": 4,
      "note": 54,
      "start": 47.3633,
      "duration": 0.3845,
      "velocity": 127,
      "chip": "ym2612"
    },
    {
      "channel": 2,
      "note": 81,
      "start": 47.3633,
      "duration": 0.3845,
      "velocity": 86,
      "chip": "ym2612"
    },
    {
      "channel": 1,
      "note": 50,
      "start": 47.3634,
      "duration": 0.1276,
      "velocity": 87,
      "chip": "ym2612"
    },
    {
      "channel": 5,
      "note": 54,
      "start": 47.619,
      "duration": 0.1287,
      "velocity": 111,
      "chip": "ym2612"
    },
    {
      "channel": 1,
      "note": 50,
      "start": 47.6192,
      "duration": 0.1287,
      "velocity": 87,
      "chip": "ym2612"
    },
    {
      "channel": 4,
      "note": 54,
      "start": 47.7485,
      "duration": 0.1259,
      "velocity": 127,
      "chip": "ym2612"
    },
    {
      "channel": 5,
      "note": 54,
      "start": 47.7485,
      "duration": 0.127,
      "velocity": 111,
      "chip": "ym2612"
    },
    {
      "channel": 2,
      "note": 83,
      "start": 47.7485,
      "duration": 1.5385,
      "velocity": 86,
      "chip": "ym2612"
    },
    {
      "channel": 3,
      "note": 68,
      "start": 47.7485,
      "duration": 1.5392,
      "velocity": 93,
      "chip": "ym2612"
    },
    {
      "channel": 1,
      "note": 52,
      "start": 47.7486,
      "duration": 0.127,
      "velocity": 87,
      "chip": "ym2612"
    },
    {
      "channel": 4,
      "note": 54,
      "start": 47.8755,
      "duration": 0.1272,
      "velocity": 127,
      "chip": "ym2612"
    },
    {
      "channel": 4,
      "note": 54,
      "start": 48.0037,
      "duration": 0.1276,
      "velocity": 127,
      "chip": "ym2612"
    },
    {
      "channel": 5,
      "note": 54,
      "start": 48.0037,
      "duration": 0.1282,
      "velocity": 111,
      "chip": "ym2612"
    },
    {
      "channel": 1,
      "note": 52,
      "start": 48.0038,
      "duration": 0.1275,
      "velocity": 87,
      "chip": "ym2612"
    },
    {
      "channel": 4,
      "note": 54,
      "start": 48.1319,
      "duration": 0.1269,
      "velocity": 127,
      "chip": "ym2612"
    },
    {
      "channel": 1,
      "note": 52,
      "start": 48.132,
      "duration": 0.1282,
      "velocity": 87,
      "chip": "ym2612"
    },
    {
      "channel": 4,
      "note": 54,
      "start": 48.2601,
      "duration": 0.1272,
      "velocity": 127,
      "chip": "ym2612"
    },
    {
      "channel": 4,
      "note": 54,
      "start": 48.3883,
      "duration": 0.1278,
      "velocity": 127,
      "chip": "ym2612"
    },
    {
      "channel": 5,
      "note": 54,
      "start": 48.3883,
      "duration": 0.1277,
      "velocity": 111,
      "chip": "ym2612"
    },
    {
      "channel": 1,
      "note": 52,
      "start": 48.3884,
      "duration": 0.1277,
      "velocity": 87,
      "chip": "ym2612"
    },
    {
      "channel": 4,
      "note": 54,
      "start": 48.5167,
      "duration": 0.127,
      "velocity": 127,
      "chip": "ym2612"
    },
    {
      "channel": 5,
      "note": 54,
      "start": 48.5167,
      "duration": 0.128,
      "velocity": 111,
      "chip": "ym2612"
    },
    {
      "channel": 1,
      "note": 52,
      "start": 48.5168,
      "duration": 0.128,
      "velocity": 87,
      "chip": "ym2612"
    },
    {
      "channel": 4,
      "note": 54,
      "start": 48.6447,
      "duration": 0.1272,
      "velocity": 127,
      "chip": "ym2612"
    },
    {
      "channel": 4,
      "note": 54,
      "start": 48.7729,
      "duration": 0.1272,
      "velocity": 127,
      "chip": "ym2612"
    },
    {
      "channel": 5,
      "note": 54,
      "start": 48.7729,
      "duration": 0.1281,
      "velocity": 111,
      "chip": "ym2612"
    },
    {
      "channel": 1,
      "note": 52,
      "start": 48.7731,
      "duration": 0.1271,
      "velocity": 87,
      "chip": "ym2612"
    },
    {
      "channel": 4,
      "note": 54,
      "start": 48.9011,
      "duration": 0.127,
      "velocity": 127,
      "chip": "ym2612"
    },
    {
      "channel": 1,
      "note": 52,
      "start": 48.9012,
      "duration": 0.1282,
      "velocity": 87,
      "chip": "ym2612"
    },
    {
      "channel": 4,
      "note": 54,
      "start": 49.0293,
      "duration": 0.1275,
      "velocity": 127,
      "chip": "ym2612"
    },
    {
      "channel": 5,
      "note": 54,
      "start": 49.1575,
      "duration": 0.1295,
      "velocity": 111,
      "chip": "ym2612"
    },
    {
      "channel": 4,
      "note": 54,
      "start": 49.1576,
      "duration": 0.1301,
      "velocity": 127,
      "chip": "ym2612"
    },
    {
      "channel": 1,
      "note": 52,
      "start": 49.1577,
      "duration": 0.1294,
      "velocity": 87,
      "chip": "ym2612"
    },
    {
      "channel": 5,
      "note": 54,
      "start": 49.2876,
      "duration": 0.1263,
      "velocity": 111,
      "chip": "ym2612"
    },
    {
      "channel": 2,
      "note": 83,
      "start": 49.2877,
      "duration": 0.0607,
      "velocity": 86,
      "chip": "ym2612"
    },
    {
      "channel": 1,
      "note": 54,
      "start": 49.2878,
      "duration": 0.1263,
      "velocity": 87,
      "chip": "ym2612"
    },
    {
      "channel": 2,
      "note": 85,
      "start": 49.3499,
      "duration": 0.0632,
      "velocity": 86,
      "chip": "ym2612"
    },
    {
      "channel": 2,
      "note": 85,
      "start": 49.414,
      "duration": 1.0254,
      "velocity": 86,
      "chip": "ym2612"
    },
    {
      "channel": 5,
      "note": 54,
      "start": 49.5422,
      "duration": 0.1283,
      "velocity": 111,
      "chip": "ym2612"
    },
    {
      "channel": 3,
      "note": 66,
      "start": 49.5423,
      "duration": 0.1276,
      "velocity": 93,
      "chip": "ym2612"
    },
    {
      "channel": 1,
      "note": 54,
      "start": 49.5424,
      "duration": 0.1276,
      "velocity": 87,
      "chip": "ym2612"
    },
    {
      "channel": 4,
      "note": 54,
      "start": 49.6706,
      "duration": 0.3847,
      "velocity": 127,
      "chip": "ym2612"
    },
    {
      "channel": 3,
      "note": 73,
      "start": 49.6707,
      "duration": 0.2556,
      "velocity": 93,
      "chip": "ym2612"
    },
    {
      "channel": 1,
      "note": 54,
      "start": 49.6707,
      "duration": 0.1266,
      "velocity": 87,
      "chip": "ym2612"
    },
    {
      "channel": 1,
      "note": 49,
      "start": 49.7987,
      "duration": 0.1276,
      "velocity": 87,
      "chip": "ym2612"
    },
    {
      "channel": 5,
      "note": 54,
      "start": 49.9269,
      "duration": 0.1277,
      "velocity": 111,
      "chip": "ym2612"
    },
    {
      "channel": 3,
      "note": 66,
      "start": 49.927,
      "duration": 0.1277,
      "velocity": 93,
      "chip": "ym2612"
    },
    {
      "channel": 1,
      "note": 54,
      "start": 49.927,
      "duration": 0.1277,
      "velocity": 87,
      "chip": "ym2612"
    },
    {
      "channel": 5,
      "note": 54,
      "start": 50.0553,
      "duration": 0.1278,
      "velocity": 111,
      "chip": "ym2612"
    },
    {
      "channel": 3,
      "note": 71,
      "start": 50.0554,
      "duration": 0.2554,
      "velocity": 93,
      "chip": "ym2612"
    },
    {
      "channel": 1,
      "note": 54,
      "start": 50.0555,
      "duration": 0.1278,
      "velocity": 87,
      "chip": "ym2612"
    },
    {
      "channel": 5,
      "note": 54,
      "start": 50.3114,
      "duration": 0.1288,
      "velocity": 111,
      "chip": "ym2612"
    },
    {
      "channel": 3,
      "note": 73,
      "start": 50.3115,
      "duration": 0.1288,
      "velocity": 93,
      "chip": "ym2612"
    },
    {
      "channel": 1,
      "note": 54,
      "start": 50.3116,
      "duration": 0.128,
      "velocity": 87,
      "chip": "ym2612"
    },
    {
      "channel": 4,
      "note": 54,
      "start": 50.4402,
      "duration": 0.3849,
      "velocity": 127,
      "chip": "ym2612"
    },
    {
      "channel": 1,
      "note": 57,
      "start": 50.4403,
      "duration": 0.1264,
      "velocity": 87,
      "chip": "ym2612"
    },
    {
      "channel": 2,
      "note": 81,
      "start": 50.4403,
      "duration": 0.1263,
      "velocity": 86,
      "chip": "ym2612"
    },
    {
      "channel": 1,
      "note": 54,
      "start": 50.5679,
      "duration": 0.128,
      "velocity": 87,
      "chip": "ym2612"
    },
    {
      "channel": 2,
      "note": 83,
      "start": 50.5679,
      "duration": 0.128,
      "velocity": 86,
      "chip": "ym2612"
    },
    {
      "channel": 5,
      "note": 54,
      "start": 50.6965,
      "duration": 0.1279,
      "velocity": 111,
      "chip": "ym2612"
    },
    {
      "channel": 3,
      "note": 66,
      "start": 50.6966,
      "duration": 0.1285,
      "velocity": 93,
      "chip": "ym2612"
    },
    {
      "channel": 2,
      "note": 85,
      "start": 50.6966,
      "duration": 0.1278,
      "velocity": 86,
      "chip": "ym2612"
    },
    {
      "channel": 1,
      "note": 49,
      "start": 50.6967,
      "duration": 0.1278,
      "velocity": 87,
      "chip": "ym2612"
    },
    {
      "channel": 5,
      "note": 54,
      "start": 50.8251,
      "duration": 0.1273,
      "velocity": 111,
      "chip": "ym2612"
    },
    {
      "channel": 1,
      "note": 57,
      "start": 50.8252,
      "duration": 0.1273,
      "velocity": 87,
      "chip": "ym2612"
    },
    {
      "channel": 2,
      "note": 88,
      "start": 50.8252,
      "duration": 0.64,
      "velocity": 86,
      "chip": "ym2612"
    },
    {
      "channel": 5,
      "note": 54,
      "start": 51.0806,
      "duration": 0.1286,
      "velocity": 111,
      "chip": "ym2612"
    },
    {
      "channel": 3,
      "note": 64,
      "start": 51.0808,
      "duration": 0.1278,
      "velocity": 93,
      "chip": "ym2612"
    },
    {
      "channel": 1,
      "note": 57,
      "start": 51.0808,
      "duration": 0.1278,
      "velocity": 87,
      "chip": "ym2612"
    },
    {
      "channel": 4,
      "note": 54,
      "start": 51.2092,
      "duration": 0.3849,
      "velocity": 127,
      "chip": "ym2612"
    },
    {
      "channel": 3,
      "note": 73,
      "start": 51.2093,
      "duration": 0.2558,
      "velocity": 93,
      "chip": "ym2612"
    },
    {
      "channel": 1,
      "note": 57,
      "start": 51.2093,
      "duration": 0.1262,
      "velocity": 87,
      "chip": "ym2612"
    },
    {
      "channel": 1,
      "note": 52,
      "start": 51.3372,
      "duration": 0.1279,
      "velocity": 87,
      "chip": "ym2612"
    },
    {
      "channel": 5,
      "note": 54,
      "start": 51.4657,
      "duration": 0.1277,
      "velocity": 111,
      "chip": "ym2612"
    },
    {
      "channel": 3,
      "note": 64,
      "start": 51.4658,
      "duration": 0.1277,
      "velocity": 93,
      "chip": "ym2612"
    },
    {
      "channel": 2,
      "note": 86,
      "start": 51.4658,
      "duration": 0.5122,
      "velocity": 86,
      "chip": "ym2612"
    },
    {
      "channel": 1,
      "note": 57,
      "start": 51.4659,
      "duration": 0.1276,
      "velocity": 87,
      "chip": "ym2612"
    },
    {
      "channel": 5,
      "note": 54,
      "start": 51.5941,
      "duration": 0.1276,
      "velocity": 111,
      "chip": "ym2612"
    },
    {
      "channel": 3,
      "note": 71,
      "start": 51.5941,
      "duration": 0.255,
      "velocity": 93,
      "chip": "ym2612"
    },
    {
      "channel": 1,
      "note": 57,
      "start": 51.5942,
      "duration": 0.1276,
      "velocity": 87,
      "chip": "ym2612"
    },
    {
      "channel": 5,
      "note": 54,
      "start": 51.8499,
      "duration": 0.1288,
      "velocity": 111,
      "chip": "ym2612"
    },
    {
      "channel": 3,
      "note": 73,
      "start": 51.8499,
      "duration": 0.1288,
      "velocity": 93,
      "chip": "ym2612"
    },
    {
      "channel": 1,
      "note": 57,
      "start": 51.85,
      "duration": 0.1281,
      "velocity": 87,
      "chip": "ym2612"
    },
    {
      "channel": 4,
      "note": 54,
      "start": 51.9787,
      "duration": 0.3849,
      "velocity": 127,
      "chip": "ym2612"
    },
    {
      "channel": 2,
      "note": 85,
      "start": 51.9787,
      "duration": 0.3842,
      "velocity": 86,
      "chip": "ym2612"
    },
    {
      "channel": 1,
      "note": 61,
      "start": 51.9788,
      "duration": 0.126,
      "velocity": 87,
      "chip": "ym2612"
    },
    {
      "channel": 1,
      "note": 57,
      "start": 52.1065,
      "duration": 0.1273,
      "velocity": 87,
      "chip": "ym2612"
    },
    {
      "channel": 5,
      "note": 54,
      "start": 52.2345,
      "duration": 0.1284,
      "velocity": 111,
      "chip": "ym2612"
    },
    {
      "channel": 3,
      "note": 64,
      "start": 52.2345,
      "duration": 0.1291,
      "velocity": 93,
      "chip": "ym2612"
    },
    {
      "channel": 1,
      "note": 52,
      "start": 52.2346,
      "duration": 0.1284,
      "velocity": 87,
      "chip": "ym2612"
    },
    {
      "channel": 5,
      "note": 54,
      "start": 52.3636,
      "duration": 0.1273,
      "velocity": 111,
      "chip": "ym2612"
    },
    {
      "channel": 2,
      "note": 81,
      "start": 52.3637,
      "duration": 0.0619,
      "velocity": 86,
      "chip": "ym2612"
    },
    {
      "channel": 1,
      "note": 52,
      "start": 52.3637,
      "duration": 0.1273,
      "velocity": 87,
      "chip": "ym2612"
    },
    {
      "channel": 2,
      "note": 83,
      "start": 52.4269,
      "duration": 0.0631,
      "velocity": 86,
      "chip": "ym2612"
    },
    {
      "channel": 2,
      "note": 83,
      "start": 52.491,
      "duration": 1.0253,
      "velocity": 86,
      "chip": "ym2612"
    },
    {
      "channel": 5,
      "note": 54,
      "start": 52.6191,
      "duration": 0.1286,
      "velocity": 111,
      "chip": "ym2612"
    },
    {
      "channel": 3,
      "note": 64,
      "start": 52.6191,
      "duration": 0.1279,
      "velocity": 93,
      "chip": "ym2612"
    },
    {
      "channel": 1,
      "note": 52,
      "start": 52.6193,
      "duration": 0.1279,
      "velocity": 87,
      "chip": "ym2612"
    },
    {
      "channel": 4,
      "note": 54,
      "start": 52.7477,
      "duration": 0.3849,
      "velocity": 127,
      "chip": "ym2612"
    },
    {
      "channel": 3,
      "note": 71,
      "start": 52.7478,
      "duration": 0.2552,
      "velocity": 93,
      "chip": "ym2612"
    },
    {
      "channel": 1,
      "note": 52,
      "start": 52.7478,
      "duration": 0.1265,
      "velocity": 87,
      "chip": "ym2612"
    },
    {
      "channel": 1,
      "note": 47,
      "start": 52.8757,
      "duration": 0.1273,
      "velocity": 87,
      "chip": "ym2612"
    },
    {
      "channel": 5,
      "note": 54,
      "start": 53.0037,
      "duration": 0.1281,
      "velocity": 111,
      "chip": "ym2612"
    },
    {
      "channel": 3,
      "note": 64,
      "start": 53.0038,
      "duration": 0.128,
      "velocity": 93,
      "chip": "ym2612"
    },
    {
      "channel": 1,
      "note": 52,
      "start": 53.0039,
      "duration": 0.1281,
      "velocity": 87,
      "chip": "ym2612"
    },
    {
      "channel": 5,
      "note": 54,
      "start": 53.1325,
      "duration": 0.1276,
      "velocity": 111,
      "chip": "ym2612"
    },
    {
      "channel": 3,
      "note": 69,
      "start": 53.1326,
      "duration": 0.2549,
      "velocity": 93,
      "chip": "ym2612"
    },
    {
      "channel": 1,
      "note": 52,
      "start": 53.1327,
      "duration": 0.1276,
      "velocity": 87,
      "chip": "ym2612"
    },
    {
      "channel": 5,
      "note": 54,
      "start": 53.3883,
      "duration": 0.1286,
      "velocity": 111,
      "chip": "ym2612"
    },
    {
      "channel": 3,
      "note": 71,
      "start": 53.3884,
      "duration": 0.1286,
      "velocity": 93,
      "chip": "ym2612"
    },
    {
      "channel": 1,
      "note": 52,
      "start": 53.3885,
      "duration": 0.1279,
      "velocity": 87,
      "chip": "ym2612"
    },
    {
      "channel": 4,
      "note": 54,
      "start": 53.517,
      "duration": 0.3848,
      "velocity": 127,
      "chip": "ym2612"
    },
    {
      "channel": 2,
      "note": 83,
      "start": 53.517,
      "duration": 0.1268,
      "velocity": 86,
      "chip": "ym2612"
    },
    {
      "channel": 1,
      "note": 56,
      "start": 53.5171,
      "duration": 0.1268,
      "velocity": 87,
      "chip": "ym2612"
    },
    {
      "channel": 2,
      "note": 85,
      "start": 53.6448,
      "duration": 0.128,
      "velocity": 86,
      "chip": "ym2612"
    },
    {
      "channel": 1,
      "note": 52,
      "start": 53.6449,
      "duration": 0.1279,
      "velocity": 87,
      "chip": "ym2612"
    },
    {
      "channel": 5,
      "note": 54,
      "start": 53.7734,
      "duration": 0.1276,
      "velocity": 111,
      "chip": "ym2612"
    },
    {
      "channel": 3,
      "note": 64,
      "start": 53.7735,
      "duration": 0.1283,
      "velocity": 93,
      "chip": "ym2612"
    },
    {
      "channel": 2,
      "note": 86,
      "start": 53.7736,
      "duration": 0.1276,
      "velocity": 86,
      "chip": "ym2612"
    },
    {
      "channel": 1,
      "note": 47,
      "start": 53.7737,
      "duration": 0.1275,
      "velocity": 87,
      "chip": "ym2612"
    },
    {
      "channel": 5,
      "note": 54,
      "start": 53.9017,
      "duration": 0.1277,
      "velocity": 111,
      "chip": "ym2612"
    },
    {
      "channel": 2,
      "note": 90,
      "start": 53.9018,
      "duration": 0.2556,
      "velocity": 86,
      "chip": "ym2612"
    },
    {
      "channel": 1,
      "note": 50,
      "start": 53.9019,
      "duration": 0.1276,
      "velocity": 87,
      "chip": "ym2612"
    },
    {
      "channel": 5,
      "note": 54,
      "start": 54.158,
      "duration": 0.1279,
      "velocity": 111,
      "chip": "ym2612"
    },
    {
      "channel": 3,
      "note": 62,
      "start": 54.1581,
      "duration": 0.1272,
      "velocity": 93,
      "chip": "ym2612"
    },
    {
      "channel": 2,
      "note": 86,
      "start": 54.1581,
      "duration": 0.255,
      "velocity": 86,
      "chip": "ym2612"
    },
    {
      "channel": 1,
      "note": 50,
      "start": 54.1582,
      "duration": 0.1272,
      "velocity": 87,
      "chip": "ym2612"
    },
    {
      "channel": 4,
      "note": 54,
      "start": 54.2859,
      "duration": 0.3851,
      "velocity": 127,
      "chip": "ym2612"
    },
    {
      "channel": 3,
      "note": 69,
      "start": 54.286,
      "duration": 0.2557,
      "velocity": 93,
      "chip": "ym2612"
    },
    {
      "channel": 1,
      "note": 50,
      "start": 54.2861,
      "duration": 0.1271,
      "velocity": 87,
      "chip": "ym2612"
    },
    {
      "channel": 1,
      "note": 45,
      "start": 54.4141,
      "duration": 0.1277,
      "velocity": 87,
      "chip": "ym2612"
    },
    {
      "channel": 2,
      "note": 90,
      "start": 54.4141,
      "duration": 0.2562,
      "velocity": 86,
      "chip": "ym2612"
    },
    {
      "channel": 5,
      "note": 54,
      "start": 54.5424,
      "duration": 0.1279,
      "velocity": 111,
      "chip": "ym2612"
    },
    {
      "channel": 3,
      "note": 62,
      "start": 54.5424,
      "duration": 0.1286,
      "velocity": 93,
      "chip": "ym2612"
    },
    {
      "channel": 1,
      "note": 50,
      "start": 54.5425,
      "duration": 0.1279,
      "velocity": 87,
      "chip": "ym2612"
    },
    {
      "channel": 5,
      "note": 54,
      "start": 54.671,
      "duration": 0.1276,
      "velocity": 111,
      "chip": "ym2612"
    },
    {
      "channel": 2,
      "note": 92,
      "start": 54.671,
      "duration": 0.7689,
      "velocity": 86,
      "chip": "ym2612"
    },
    {
      "channel": 1,
      "note": 52,
      "start": 54.6711,
      "duration": 0.1277,
      "velocity": 87,
      "chip": "ym2612"
    },
    {
      "channel": 5,
      "note": 54,
      "start": 54.9269,
      "duration": 0.1282,
      "velocity": 111,
      "chip": "ym2612"
    },
    {
      "channel": 3,
      "note": 64,
      "start": 54.927,
      "duration": 0.1275,
      "velocity": 93,
      "chip": "ym2612"
    },
    {
      "channel": 1,
      "note": 52,
      "start": 54.927,
      "duration": 0.1275,
      "velocity": 87,
      "chip": "ym2612"
    },
    {
      "channel": 4,
      "note": 54,
      "start": 55.0552,
      "duration": 0.3854,
      "velocity": 127,
      "chip": "ym2612"
    },
    {
      "channel": 3,
      "note": 71,
      "start": 55.0553,
      "duration": 0.2557,
      "velocity": 93,
      "chip": "ym2612"
    },
    {
      "channel": 1,
      "note": 52,
      "start": 55.0553,
      "duration": 0.1265,
      "velocity": 87,
      "chip": "ym2612"
    },
    {
      "channel": 1,
      "note": 47,
      "start": 55.1834,
      "duration": 0.1276,
      "velocity": 87,
      "chip": "ym2612"
    },
    {
      "channel": 5,
      "note": 54,
      "start": 55.3116,
      "duration": 0.1283,
      "velocity": 111,
      "chip": "ym2612"
    },
    {
      "channel": 3,
      "note": 64,
      "start": 55.3116,
      "duration": 0.129,
      "velocity": 93,
      "chip": "ym2612"
    },
    {
      "channel": 1,
      "note": 52,
      "start": 55.3117,
      "duration": 0.1283,
      "velocity": 87,
      "chip": "ym2612"
    },
    {
      "channel": 5,
      "note": 54,
      "start": 55.4406,
      "duration": 0.1273,
      "velocity": 111,
      "chip": "ym2612"
    },
    {
      "channel": 2,
      "note": 83,
      "start": 55.4406,
      "duration": 0.0616,
      "velocity": 86,
      "chip": "ym2612"
    },
    {
      "channel": 1,
      "note": 54,
      "start": 55.4407,
      "duration": 0.1273,
      "velocity": 87,
      "chip": "ym2612"
    },
    {
      "channel": 2,
      "note": 85,
      "start": 55.5039,
      "duration": 0.0629,
      "velocity": 86,
      "chip": "ym2612"
    },
    {
      "channel": 2,
      "note": 85,
      "start": 55.568,
      "duration": 1.0255,
      "velocity": 86,
      "chip": "ym2612"
    },
    {
      "channel": 5,
      "note": 54,
      "start": 55.6961,
      "duration": 0.1286,
      "velocity": 111,
      "chip": "ym2612"
    },
    {
      "channel": 3,
      "note": 66,
      "start": 55.6962,
      "duration": 0.1278,
      "velocity": 93,
      "chip": "ym2612"
    },
    {
      "channel": 1,
      "note": 54,
      "start": 55.6963,
      "duration": 0.1278,
      "velocity": 87,
      "chip": "ym2612"
    },
    {
      "channel": 4,
      "note": 54,
      "start": 55.8247,
      "duration": 0.3849,
      "velocity": 127,
      "chip": "ym2612"
    },
    {
      "channel": 3,
      "note": 73,
      "start": 55.8247,
      "duration": 0.2555,
      "velocity": 93,
      "chip": "ym2612"
    },
    {
      "channel": 1,
      "note": 54,
      "start": 55.8248,
      "duration": 0.1262,
      "velocity": 87,
      "chip": "ym2612"
    },
    {
      "channel": 1,
      "note": 49,
      "start": 55.9526,
      "duration": 0.1276,
      "velocity": 87,
      "chip": "ym2612"
    },
    {
      "channel": 5,
      "note": 54,
      "start": 56.0808,
      "duration": 0.128,
      "velocity": 111,
      "chip": "ym2612"
    },
    {
      "channel": 3,
      "note": 66,
      "start": 56.0809,
      "duration": 0.1279,
      "velocity": 93,
      "chip": "ym2612"
    },
    {
      "channel": 1,
      "note": 54,
      "start": 56.081,
      "duration": 0.1279,
      "velocity": 87,
      "chip": "ym2612"
    },
    {
      "channel": 5,
      "note": 54,
      "start": 56.2095,
      "duration": 0.1276,
      "velocity": 111,
      "chip": "ym2612"
    },
    {
      "channel": 3,
      "note": 71,
      "start": 56.2095,
      "duration": 0.2552,
      "velocity": 93,
      "chip": "ym2612"
    },
    {
      "channel": 1,
      "note": 54,
      "start": 56.2096,
      "duration": 0.1277,
      "velocity": 87,
      "chip": "ym2612"
    },
    {
      "channel": 5,
      "note": 54,
      "start": 56.4653,
      "duration": 0.1288,
      "velocity": 111,
      "chip": "ym2612"
    },
    {
      "channel": 3,
      "note": 73,
      "start": 56.4654,
      "duration": 0.1288,
      "velocity": 93,
      "chip": "ym2612"
    },
    {
      "channel": 1,
      "note": 54,
      "start": 56.4655,
      "duration": 0.128,
      "velocity": 87,
      "chip": "ym2612"
    },
    {
      "channel": 4,
      "note": 54,
      "start": 56.5941,
      "duration": 0.3849,
      "velocity": 127,
      "chip": "ym2612"
    },
    {
      "channel": 2,
      "note": 85,
      "start": 56.5942,
      "duration": 0.1264,
      "velocity": 86,
      "chip": "ym2612"
    },
    {
      "channel": 1,
      "note": 57,
      "start": 56.5943,
      "duration": 0.1263,
      "velocity": 87,
      "chip": "ym2612"
    },
    {
      "channel": 2,
      "note": 90,
      "start": 56.7218,
      "duration": 0.1278,
      "velocity": 86,
      "chip": "ym2612"
    },
    {
      "channel": 1,
      "note": 54,
      "start": 56.7219,
      "duration": 0.1277,
      "velocity": 87,
      "chip": "ym2612"
    },
    {
      "channel": 5,
      "note": 54,
      "start": 56.8502,
      "duration": 0.1281,
      "velocity": 111,
      "chip": "ym2612"
    },
    {
      "channel": 2,
      "note": 92,
      "start": 56.8503,
      "duration": 0.128,
      "velocity": 86,
      "chip": "ym2612"
    },
    {
      "channel": 3,
      "note": 66,
      "start": 56.8503,
      "duration": 0.1288,
      "velocity": 93,
      "chip": "ym2612"
    },
    {
      "channel": 1,
      "note": 49,
      "start": 56.8504,
      "duration": 0.128,
      "velocity": 87,
      "chip": "ym2612"
    },
    {
      "channel": 5,
      "note": 54,
      "start": 56.9789,
      "duration": 0.1274,
      "velocity": 111,
      "chip": "ym2612"
    },
    {
      "channel": 2,
      "note": 93,
      "start": 56.979,
      "duration": 0.6397,
      "velocity": 86,
      "chip": "ym2612"
    },
    {
      "channel": 1,
      "note": 52,
      "start": 56.9791,
      "duration": 0.1274,
      "velocity": 87,
      "chip": "ym2612"
    },
    {
      "channel": 5,
      "note": 54,
      "start": 57.2345,
      "duration": 0.1286,
      "velocity": 111,
      "chip": "ym2612"
    },
    {
      "channel": 3,
      "note": 64,
      "start": 57.2346,
      "duration": 0.1279,
      "velocity": 93,
      "chip": "ym2612"
    },
    {
      "channel": 1,
      "note": 52,
      "start": 57.2346,
      "duration": 0.1279,
      "velocity": 87,
      "chip": "ym2612"
    },
    {
      "channel": 4,
      "note": 54,
      "start": 57.3632,
      "duration": 0.3849,
      "velocity": 127,
      "chip": "ym2612"
    },
    {
      "channel": 3,
      "note": 71,
      "start": 57.3632,
      "duration": 0.2555,
      "velocity": 93,
      "chip": "ym2612"
    },
    {
      "channel": 1,
      "note": 52,
      "start": 57.3633,
      "duration": 0.1265,
      "velocity": 87,
      "chip": "ym2612"
    },
    {
      "channel": 1,
      "note": 47,
      "start": 57.4911,
      "duration": 0.1278,
      "velocity": 87,
      "chip": "ym2612"
    },
    {
      "channel": 5,
      "note": 54,
      "start": 57.6194,
      "duration": 0.1279,
      "velocity": 111,
      "chip": "ym2612"
    },
    {
      "channel": 3,
      "note": 64,
      "start": 57.6195,
      "duration": 0.1278,
      "velocity": 93,
      "chip": "ym2612"
    },
    {
      "channel": 2,
      "note": 92,
      "start": 57.6195,
      "duration": 0.5125,
      "velocity": 86,
      "chip": "ym2612"
    },
    {
      "channel": 1,
      "note": 52,
      "start": 57.6196,
      "duration": 0.1278,
      "velocity": 87,
      "chip": "ym2612"
    },
    {
      "channel": 5,
      "note": 54,
      "start": 57.7479,
      "duration": 0.1276,
      "velocity": 111,
      "chip": "ym2612"
    },
    {
      "channel": 3,
      "note": 69,
      "start": 57.7481,
      "duration": 0.2549,
      "velocity": 93,
      "chip": "ym2612"
    },
    {
      "channel": 1,
      "note": 52,
      "start": 57.7481,
      "duration": 0.1276,
      "velocity": 87,
      "chip": "ym2612"
    },
    {
      "channel": 5,
      "note": 54,
      "start": 58.0037,
      "duration": 0.1288,
      "velocity": 111,
      "chip": "ym2612"
    },
    {
      "channel": 3,
      "note": 71,
      "start": 58.0039,
      "duration": 0.1288,
      "velocity": 93,
      "chip": "ym2612"
    },
    {
      "channel": 1,
      "note": 52,
      "start": 58.0039,
      "duration": 0.128,
      "velocity": 87,
      "chip": "ym2612"
    },
    {
      "channel": 4,
      "note": 54,
      "start": 58.1326,
      "duration": 0.3846,
      "velocity": 127,
      "chip": "ym2612"
    },
    {
      "channel": 2,
      "note": 90,
      "start": 58.1327,
      "duration": 0.3839,
      "velocity": 86,
      "chip": "ym2612"
    },
    {
      "channel": 1,
      "note": 56,
      "start": 58.1327,
      "duration": 0.1262,
      "velocity": 87,
      "chip": "ym2612"
    },
    {
      "channel": 1,
      "note": 52,
      "start": 58.2604,
      "duration": 0.1273,
      "velocity": 87,
      "chip": "ym2612"
    },
    {
      "channel": 5,
      "note": 54,
      "start": 58.3884,
      "duration": 0.1281,
      "velocity": 111,
      "chip": "ym2612"
    },
    {
      "channel": 3,
      "note": 64,
      "start": 58.3885,
      "duration": 0.1288,
      "velocity": 93,
      "chip": "ym2612"
    },
    {
      "channel": 1,
      "note": 47,
      "start": 58.3885,
      "duration": 0.1281,
      "velocity": 87,
      "chip": "ym2612"
    },
    {
      "channel": 5,
      "note": 54,
      "start": 58.5172,
      "duration": 0.1276,
      "velocity": 111,
      "chip": "ym2612"
    },
    {
      "channel": 2,
      "note": 95,
      "start": 58.5173,
      "duration": 0.6402,
      "velocity": 86,
      "chip": "ym2612"
    },
    {
      "channel": 1,
      "note": 50,
      "start": 58.5173,
      "duration": 0.1276,
      "velocity": 87,
      "chip": "ym2612"
    },
    {
      "channel": 5,
      "note": 54,
      "start": 58.7731,
      "duration": 0.1282,
      "velocity": 111,
      "chip": "ym2612"
    },
    {
      "channel": 3,
      "note": 62,
      "start": 58.7731,
      "duration": 0.1276,
      "velocity": 93,
      "chip": "ym2612"
    },
    {
      "channel": 1,
      "note": 50,
      "start": 58.7732,
      "duration": 0.1276,
      "velocity": 87,
      "chip": "ym2612"
    },
    {
      "channel": 4,
      "note": 54,
      "start": 58.9014,
      "duration": 0.3848,
      "velocity": 127,
      "chip": "ym2612"
    },
    {
      "channel": 3,
      "note": 69,
      "start": 58.9015,
      "duration": 0.256,
      "velocity": 93,
      "chip": "ym2612"
    },
    {
      "channel": 1,
      "note": 50,
      "start": 58.9015,
      "duration": 0.1267,
      "velocity": 87,
      "chip": "ym2612"
    },
    {
      "channel": 1,
      "note": 45,
      "start": 59.0296,
      "duration": 0.128,
      "velocity": 87,
      "chip": "ym2612"
    },
    {
      "channel": 5,
      "note": 54,
      "start": 59.1581,
      "duration": 0.1274,
      "velocity": 111,
      "chip": "ym2612"
    },
    {
      "channel": 3,
      "note": 62,
      "start": 59.1582,
      "duration": 0.1273,
      "velocity": 93,
      "chip": "ym2612"
    },
    {
      "channel": 2,
      "note": 93,
      "start": 59.1583,
      "duration": 0.512,
      "velocity": 86,
      "chip": "ym2612"
    },
    {
      "channel": 1,
      "note": 50,
      "start": 59.1583,
      "duration": 0.1273,
      "velocity": 87,
      "chip": "ym2612"
    },
    {
      "channel": 5,
      "note": 54,
      "start": 59.2862,
      "duration": 0.1279,
      "velocity": 111,
      "chip": "ym2612"
    },
    {
      "channel": 3,
      "note": 68,
      "start": 59.2862,
      "duration": 0.2555,
      "velocity": 93,
      "chip": "ym2612"
    },
    {
      "channel": 1,
      "note": 50,
      "start": 59.2863,
      "duration": 0.1279,
      "velocity": 87,
      "chip": "ym2612"
    },
    {
      "channel": 5,
      "note": 54,
      "start": 59.5423,
      "duration": 0.1285,
      "velocity": 111,
      "chip": "ym2612"
    },
    {
      "channel": 3,
      "note": 69,
      "start": 59.5424,
      "duration": 0.1285,
      "velocity": 93,
      "chip": "ym2612"
    },
    {
      "channel": 1,
      "note": 50,
      "start": 59.5425,
      "duration": 0.1277,
      "velocity": 87,
      "chip": "ym2612"
    },
    {
      "channel": 4,
      "note": 54,
      "start": 59.6708,
      "duration": 0.3844,
      "velocity": 127,
      "chip": "ym2612"
    },
    {
      "channel": 2,
      "note": 92,
      "start": 59.6709,
      "duration": 0.1269,
      "velocity": 86,
      "chip": "ym2612"
    },
    {
      "channel": 1,
      "note": 54,
      "start": 59.671,
      "duration": 0.1268,
      "velocity": 87,
      "chip": "ym2612"
    },
    {
      "channel": 2,
      "note": 90,
      "start": 59.7988,
      "duration": 0.128,
      "velocity": 86,
      "chip": "ym2612"
    },
    {
      "channel": 1,
      "note": 50,
      "start": 59.7988,
      "duration": 0.128,
      "velocity": 87,
      "chip": "ym2612"
    },
    {
      "channel": 5,
      "note": 54,
      "start": 59.9274,
      "duration": 0.1277,
      "velocity": 111,
      "chip": "ym2612"
    },
    {
      "channel": 2,
      "note": 86,
      "start": 59.9275,
      "duration": 0.1278,
      "velocity": 86,
      "chip": "ym2612"
    },
    {
      "channel": 3,
      "note": 62,
      "start": 59.9275,
      "duration": 0.1287,
      "velocity": 93,
      "chip": "ym2612"
    },
    {
      "channel": 1,
      "note": 45,
      "start": 59.9275,
      "duration": 0.1277,
      "velocity": 87,
      "chip": "ym2612"
    },
    {
      "channel": 4,
      "note": 54,
      "start": 60.0561,
      "duration": 0.126,
      "velocity": 127,
      "chip": "ym2612"
    },
    {
      "channel": 5,
      "note": 54,
      "start": 60.0561,
      "duration": 0.1271,
      "velocity": 111,
      "chip": "ym2612"
    },
    {
      "channel": 2,
      "note": 88,
      "start": 60.0561,
      "duration": 1.5408,
      "velocity": 100,
      "chip": "ym2612"
    },
    {
      "channel": 1,
      "note": 52,
      "start": 60.0563,
      "duration": 0.1272,
      "velocity": 87,
      "chip": "ym2612"
    },
    {
      "channel": 4,
      "note": 54,
      "start": 60.1833,
      "duration": 0.1279,
      "velocity": 127,
      "chip": "ym2612"
    },
    {
      "channel": 4,
      "note": 54,
      "start": 60.3119,
      "duration": 0.1275,
      "velocity": 127,
      "chip": "ym2612"
    },
    {
      "channel": 5,
      "note": 54,
      "start": 60.3119,
      "duration": 0.1282,
      "velocity": 111,
      "chip": "ym2612"
    },
    {
      "channel": 3,
      "note": 64,
      "start": 60.312,
      "duration": 0.1275,
      "velocity": 93,
      "chip": "ym2612"
    },
    {
      "channel": 1,
      "note": 52,
      "start": 60.312,
      "duration": 0.1275,
      "velocity": 87,
      "chip": "ym2612"
    },
    {
      "channel": 4,
      "note": 54,
      "start": 60.4401,
      "duration": 0.1265,
      "velocity": 127,
      "chip": "ym2612"
    },
    {
      "channel": 3,
      "note": 71,
      "start": 60.4402,
      "duration": 0.2557,
      "velocity": 93,
      "chip": "ym2612"
    },
    {
      "channel": 1,
      "note": 52,
      "start": 60.4402,
      "duration": 0.1265,
      "velocity": 87,
      "chip": "ym2612"
    },
    {
      "channel": 4,
      "note": 54,
      "start": 60.5679,
      "duration": 0.1279,
      "velocity": 127,
      "chip": "ym2612"
    },
    {
      "channel": 1,
      "note": 47,
      "start": 60.568,
      "duration": 0.1279,
      "velocity": 87,
      "chip": "ym2612"
    },
    {
      "channel": 4,
      "note": 54,
      "start": 60.6966,
      "duration": 0.1278,
      "velocity": 127,
      "chip": "ym2612"
    },
    {
      "channel": 5,
      "note": 54,
      "start": 60.6966,
      "duration": 0.1278,
      "velocity": 111,
      "chip": "ym2612"
    },
    {
      "channel": 3,
      "note": 64,
      "start": 60.6966,
      "duration": 0.1278,
      "velocity": 93,
      "chip": "ym2612"
    },
    {
      "channel": 1,
      "note": 52,
      "start": 60.6967,
      "duration": 0.1278,
      "velocity": 87,
      "chip": "ym2612"
    },
    {
      "channel": 5,
      "note": 54,
      "start": 60.8251,
      "duration": 0.1275,
      "velocity": 111,
      "chip": "ym2612"
    },
    {
      "channel": 3,
      "note": 69,
      "start": 60.8251,
      "duration": 0.2554,
      "velocity": 93,
      "chip": "ym2612"
    },
    {
      "channel": 4,
      "note": 54,
      "start": 60.8251,
      "duration": 0.1261,
      "velocity": 127,
      "chip": "ym2612"
    },
    {
      "channel": 1,
      "note": 52,
      "start": 60.8252,
      "duration": 0.1274,
      "velocity": 87,
      "chip": "ym2612"
    },
    {
      "channel": 4,
      "note": 54,
      "start": 60.9525,
      "duration": 0.1279,
      "velocity": 127,
      "chip": "ym2612"
    },
    {
      "channel": 4,
      "note": 54,
      "start": 61.0811,
      "duration": 0.1274,
      "velocity": 127,
      "chip": "ym2612"
    },
    {
      "channel": 5,
      "note": 54,
      "start": 61.0811,
      "duration": 0.128,
      "velocity": 111,
      "chip": "ym2612"
    },
    {
      "channel": 3,
      "note": 71,
      "start": 61.0812,
      "duration": 0.128,
      "velocity": 93,
      "chip": "ym2612"
    },
    {
      "channel": 1,
      "note": 52,
      "start": 61.0812,
      "duration": 0.1273,
      "velocity": 87,
      "chip": "ym2612"
    },
    {
      "channel": 4,
      "note": 54,
      "start": 61.2092,
      "duration": 0.1267,
      "velocity": 127,
      "chip": "ym2612"
    },
    {
      "channel": 1,
      "note": 56,
      "start": 61.2093,
      "duration": 0.1266,
      "velocity": 87,
      "chip": "ym2612"
    },
    {
      "channel": 4,
      "note": 54,
      "start": 61.3372,
      "duration": 0.1279,
      "velocity": 127,
      "chip": "ym2612"
    },
    {
      "channel": 1,
      "note": 52,
      "start": 61.3373,
      "duration": 0.1279,
      "velocity": 87,
      "chip": "ym2612"
    },
    {
      "channel": 5,
      "note": 54,
      "start": 61.4658,
      "duration": 0.1311,
      "velocity": 111,
      "chip": "ym2612"
    },
    {
      "channel": 3,
      "note": 64,
      "start": 61.4658,
      "duration": 0.1311,
      "velocity": 100,
      "chip": "ym2612"
    },
    {
      "channel": 4,
      "note": 54,
      "start": 61.4658,
      "duration": 0.1318,
      "velocity": 127,
      "chip": "ym2612"
    },
    {
      "channel": 1,
      "note": 47,
      "start": 61.4659,
      "duration": 0.131,
      "velocity": 87,
      "chip": "ym2612"
    },
    {
      "channel": 5,
      "note": 54,
      "start": 61.5976,
      "duration": 0.1242,
      "velocity": 111,
      "chip": "ym2612"
    },
    {
      "channel": 2,
      "note": 81,
      "start": 61.5977,
      "duration": 0.5078,
      "velocity": 100,
      "chip": "ym2612"
    },
    {
      "channel": 3,
      "note": 66,
      "start": 61.5977,
      "duration": 0.5077,
      "velocity": 100,
      "chip": "ym2612"
    },
    {
      "channel": 1,
      "note": 54,
      "start": 61.5978,
      "duration": 0.1242,
      "velocity": 87,
      "chip": "ym2612"
    },
    {
      "channel": 5,
      "note": 54,
      "start": 61.85,
      "duration": 0.1282,
      "velocity": 111,
      "chip": "ym2612"
    },
    {
      "channel": 1,
      "note": 54,
      "start": 61.8501,
      "duration": 0.1275,
      "velocity": 87,
      "chip": "ym2612"
    },
    {
      "channel": 4,
      "note": 54,
      "start": 61.9782,
      "duration": 0.3856,
      "velocity": 127,
      "chip": "ym2612"
    },
    {
      "channel": 1,
      "note": 54,
      "start": 61.9783,
      "duration": 0.1282,
      "velocity": 87,
      "chip": "ym2612"
    },
    {
      "channel": 2,
      "note": 80,
      "start": 62.1065,
      "duration": 0.1277,
      "velocity": 100,
      "chip": "ym2612"
    },
    {
      "channel": 3,
      "note": 64,
      "start": 62.1065,
      "duration": 0.1277,
      "velocity": 100,
      "chip": "ym2612"
    },
    {
      "channel": 5,
      "note": 54,
      "start": 62.2348,
      "duration": 0.1284,
      "velocity": 111,
      "chip": "ym2612"
    },
    {
      "channel": 3,
      "note": 66,
      "start": 62.2349,
      "duration": 0.1283,
      "velocity": 100,
      "chip": "ym2612"
    },
    {
      "channel": 2,
      "note": 81,
      "start": 62.2349,
      "duration": 0.1283,
      "velocity": 100,
      "chip": "ym2612"
    },
    {
      "channel": 1,
      "note": 54,
      "start": 62.235,
      "duration": 0.1283,
      "velocity": 87,
      "chip": "ym2612"
    },
    {
      "channel": 5,
      "note": 54,
      "start": 62.3639,
      "duration": 0.1272,
      "velocity": 111,
      "chip": "ym2612"
    },
    {
      "channel": 3,
      "note": 68,
      "start": 62.3639,
      "duration": 0.2548,
      "velocity": 100,
      "chip": "ym2612"
    },
    {
      "channel": 1,
      "note": 56,
      "start": 62.364,
      "duration": 0.1272,
      "velocity": 87,
      "chip": "ym2612"
    },
    {
      "channel": 2,
      "note": 83,
      "start": 62.364,
      "duration": 0.2548,
      "velocity": 100,
      "chip": "ym2612"
    },
    {
      "channel": 5,
      "note": 54,
      "start": 62.6194,
      "duration": 0.128,
      "velocity": 111,
      "chip": "ym2612"
    },
    {
      "channel": 3,
      "note": 64,
      "start": 62.6195,
      "duration": 0.2555,
      "velocity": 100,
      "chip": "ym2612"
    },
    {
      "channel": 2,
      "note": 80,
      "start": 62.6195,
      "duration": 0.2555,
      "velocity": 100,
      "chip": "ym2612"
    },
    {
      "channel": 1,
      "note": 56,
      "start": 62.6196,
      "duration": 0.1272,
      "velocity": 87,
      "chip": "ym2612"
    },
    {
      "channel": 4,
      "note": 54,
      "start": 62.7474,
      "duration": 0.3859,
      "velocity": 127,
      "chip": "ym2612"
    },
    {
      "channel": 1,
      "note": 56,
      "start": 62.7476,
      "duration": 0.1282,
      "velocity": 87,
      "chip": "ym2612"
    },
    {
      "channel": 3,
      "note": 68,
      "start": 62.8757,
      "duration": 0.2569,
      "velocity": 100,
      "chip": "ym2612"
    },
    {
      "channel": 2,
      "note": 83,
      "start": 62.8757,
      "duration": 0.2569,
      "velocity": 100,
      "chip": "ym2612"
    },
    {
      "channel": 5,
      "note": 54,
      "start": 63.0038,
      "duration": 0.1288,
      "velocity": 111,
      "chip": "ym2612"
    },
    {
      "channel": 1,
      "note": 56,
      "start": 63.004,
      "duration": 0.1287,
      "velocity": 87,
      "chip": "ym2612"
    },
    {
      "channel": 5,
      "note": 54,
      "start": 63.1332,
      "duration": 0.127,
      "velocity": 111,
      "chip": "ym2612"
    },
    {
      "channel": 3,
      "note": 69,
      "start": 63.1333,
      "duration": 1.5375,
      "velocity": 100,
      "chip": "ym2612"
    },
    {
      "channel": 2,
      "note": 85,
      "start": 63.1334,
      "duration": 1.5375,
      "velocity": 100,
      "chip": "ym2612"
    },
    {
      "channel": 1,
      "note": 57,
      "start": 63.1334,
      "duration": 0.127,
      "velocity": 87,
      "chip": "ym2612"
    },
    {
      "channel": 5,
      "note": 54,
      "start": 63.3885,
      "duration": 0.1282,
      "velocity": 111,
      "chip": "ym2612"
    },
    {
      "channel": 1,
      "note": 57,
      "start": 63.3886,
      "duration": 0.1273,
      "velocity": 87,
      "chip": "ym2612"
    },
    {
      "channel": 4,
      "note": 54,
      "start": 63.5167,
      "duration": 0.3846,
      "velocity": 127,
      "chip": "ym2612"
    },
    {
      "channel": 1,
      "note": 57,
      "start": 63.5168,
      "duration": 0.1268,
      "velocity": 87,
      "chip": "ym2612"
    },
    {
      "channel": 1,
      "note": 52,
      "start": 63.645,
      "duration": 0.1268,
      "velocity": 87,
      "chip": "ym2612"
    },
    {
      "channel": 5,
      "note": 54,
      "start": 63.7731,
      "duration": 0.1275,
      "velocity": 111,
      "chip": "ym2612"
    },
    {
      "channel": 1,
      "note": 57,
      "start": 63.7732,
      "duration": 0.1274,
      "velocity": 87,
      "chip": "ym2612"
    },
    {
      "channel": 5,
      "note": 54,
      "start": 63.9012,
      "duration": 0.1283,
      "velocity": 111,
      "chip": "ym2612"
    },
    {
      "channel": 1,
      "note": 57,
      "start": 63.9015,
      "duration": 0.1282,
      "velocity": 87,
      "chip": "ym2612"
    },
    {
      "channel": 5,
      "note": 54,
      "start": 64.1577,
      "duration": 0.1282,
      "velocity": 111,
      "chip": "ym2612"
    },
    {
      "channel": 1,
      "note": 57,
      "start": 64.1579,
      "duration": 0.1272,
      "velocity": 87,
      "chip": "ym2612"
    },
    {
      "channel": 4,
      "note": 54,
      "start": 64.2859,
      "duration": 0.1272,
      "velocity": 127,
      "chip": "ym2612"
    },
    {
      "channel": 1,
      "note": 57,
      "start": 64.2861,
      "duration": 0.1271,
      "velocity": 87,
      "chip": "ym2612"
    },
    {
      "channel": 4,
      "note": 54,
      "start": 64.4141,
      "duration": 0.1276,
      "velocity": 127,
      "chip": "ym2612"
    },
    {
      "channel": 1,
      "note": 52,
      "start": 64.4142,
      "duration": 0.1275,
      "velocity": 87,
      "chip": "ym2612"
    },
    {
      "channel": 5,
      "note": 54,
      "start": 64.5423,
      "duration": 0.1284,
      "velocity": 111,
      "chip": "ym2612"
    },
    {
      "channel": 4,
      "note": 54,
      "start": 64.5424,
      "duration": 0.1291,
      "velocity": 127,
      "chip": "ym2612"
    },
    {
      "channel": 1,
      "note": 57,
      "start": 64.5425,
      "duration": 0.1284,
      "velocity": 87,
      "chip": "ym2612"
    },
    {
      "channel": 5,
      "note": 54,
      "start": 64.6714,
      "duration": 0.1273,
      "velocity": 111,
      "chip": "ym2612"
    },
    {
      "channel": 3,
      "note": 71,
      "start": 64.6715,
      "duration": 0.511,
      "velocity": 100,
      "chip": "ym2612"
    },
    {
      "channel": 2,
      "note": 86,
      "start": 64.6715,
      "duration": 0.511,
      "velocity": 100,
      "chip": "ym2612"
    },
    {
      "channel": 1,
      "note": 59,
      "start": 64.6716,
      "duration": 0.1273,
      "velocity": 87,
      "chip": "ym2612"
    },
    {
      "channel": 5,
      "note": 54,
      "start": 64.927,
      "duration": 0.1282,
      "velocity": 111,
      "chip": "ym2612"
    },
    {
      "channel": 1,
      "note": 59,
      "start": 64.9271,
      "duration": 0.1272,
      "velocity": 87,
      "chip": "ym2612"
    },
    {
      "channel": 4,
      "note": 54,
      "start": 65.0551,
      "duration": 0.3857,
      "velocity": 127,
      "chip": "ym2612"
    },
    {
      "channel": 1,
      "note": 59,
      "start": 65.0553,
      "duration": 0.1283,
      "velocity": 87,
      "chip": "ym2612"
    },
    {
      "channel": 2,
      "note": 85,
      "start": 65.1834,
      "duration": 0.1279,
      "velocity": 100,
      "chip": "ym2612"
    },
    {
      "channel": 3,
      "note": 69,
      "start": 65.1834,
      "duration": 0.1279,
      "velocity": 100,
      "chip": "ym2612"
    },
    {
      "channel": 5,
      "note": 54,
      "start": 65.312,
      "duration": 0.1281,
      "velocity": 111,
      "chip": "ym2612"
    },
    {
      "channel": 2,
      "note": 86,
      "start": 65.3121,
      "duration": 0.1281,
      "velocity": 100,
      "chip": "ym2612"
    },
    {
      "channel": 3,
      "note": 71,
      "start": 65.3121,
      "duration": 0.128,
      "velocity": 100,
      "chip": "ym2612"
    },
    {
      "channel": 1,
      "note": 59,
      "start": 65.3121,
      "duration": 0.128,
      "velocity": 87,
      "chip": "ym2612"
    },
    {
      "channel": 5,
      "note": 54,
      "start": 65.4407,
      "duration": 0.1272,
      "velocity": 111,
      "chip": "ym2612"
    },
    {
      "channel": 2,
      "note": 88,
      "start": 65.4409,
      "duration": 0.2551,
      "velocity": 100,
      "chip": "ym2612"
    },
    {
      "channel": 3,
      "note": 73,
      "start": 65.4409,
      "duration": 0.2551,
      "velocity": 100,
      "chip": "ym2612"
    },
    {
      "channel": 1,
      "note": 61,
      "start": 65.441,
      "duration": 0.1272,
      "velocity": 87,
      "chip": "ym2612"
    },
    {
      "channel": 5,
      "note": 54,
      "start": 65.6966,
      "duration": 0.1277,
      "velocity": 111,
      "chip": "ym2612"
    },
    {
      "channel": 3,
      "note": 69,
      "start": 65.6967,
      "duration": 0.255,
      "velocity": 100,
      "chip": "ym2612"
    },
    {
      "channel": 2,
      "note": 85,
      "start": 65.6967,
      "duration": 0.255,
      "velocity": 100,
      "chip": "ym2612"
    },
    {
      "channel": 1,
      "note": 61,
      "start": 65.6968,
      "duration": 0.127,
      "velocity": 87,
      "chip": "ym2612"
    },
    {
      "channel": 4,
      "note": 54,
      "start": 65.8244,
      "duration": 0.3858,
      "velocity": 127,
      "chip": "ym2612"
    },
    {
      "channel": 1,
      "note": 61,
      "start": 65.8245,
      "duration": 0.1282,
      "velocity": 87,
      "chip": "ym2612"
    },
    {
      "channel": 3,
      "note": 73,
      "start": 65.9527,
      "duration": 0.2569,
      "velocity": 100,
      "chip": "ym2612"
    },
    {
      "channel": 2,
      "note": 88,
      "start": 65.9527,
      "duration": 0.2569,
      "velocity": 100,
      "chip": "ym2612"
    },
    {
      "channel": 5,
      "note": 54,
      "start": 66.0808,
      "duration": 0.1287,
      "velocity": 111,
      "chip": "ym2612"
    },
    {
      "channel": 1,
      "note": 61,
      "start": 66.081,
      "duration": 0.1286,
      "velocity": 87,
      "chip": "ym2612"
    },
    {
      "channel": 5,
      "note": 54,
      "start": 66.2102,
      "duration": 0.127,
      "velocity": 111,
      "chip": "ym2612"
    },
    {
      "channel": 3,
      "note": 74,
      "start": 66.2102,
      "duration": 1.1527,
      "velocity": 100,
      "chip": "ym2612"
    },
    {
      "channel": 2,
      "note": 90,
      "start": 66.2103,
      "duration": 1.1527,
      "velocity": 100,
      "chip": "ym2612"
    },
    {
      "channel": 1,
      "note": 62,
      "start": 66.2104,
      "duration": 0.127,
      "velocity": 87,
      "chip": "ym2612"
    },
    {
      "channel": 5,
      "note": 54,
      "start": 66.4654,
      "duration": 0.1283,
      "velocity": 111,
      "chip": "ym2612"
    },
    {
      "channel": 1,
      "note": 62,
      "start": 66.4656,
      "duration": 0.1274,
      "velocity": 87,
      "chip": "ym2612"
    },
    {
      "channel": 4,
      "note": 54,
      "start": 66.5936,
      "duration": 0.3849,
      "velocity": 127,
      "chip": "ym2612"
    },
    {
      "channel": 1,
      "note": 62,
      "start": 66.5937,
      "duration": 0.1265,
      "velocity": 87,
      "chip": "ym2612"
    },
    {
      "channel": 1,
      "note": 57,
      "start": 66.722,
      "duration": 0.1269,
      "velocity": 87,
      "chip": "ym2612"
    },
    {
      "channel": 5,
      "note": 54,
      "start": 66.85,
      "duration": 0.1277,
      "velocity": 111,
      "chip": "ym2612"
    },
    {
      "channel": 1,
      "note": 62,
      "start": 66.8502,
      "duration": 0.1277,
      "velocity": 87,
      "chip": "ym2612"
    },
    {
      "channel": 5,
      "note": 54,
      "start": 66.9784,
      "duration": 0.128,
      "velocity": 111,
      "chip": "ym2612"
    },
    {
      "channel": 1,
      "note": 62,
      "start": 66.9786,
      "duration": 0.128,
      "velocity": 87,
      "chip": "ym2612"
    },
    {
      "channel": 5,
      "note": 54,
      "start": 67.2346,
      "duration": 0.129,
      "velocity": 111,
      "chip": "ym2612"
    },
    {
      "channel": 1,
      "note": 62,
      "start": 67.2348,
      "duration": 0.1282,
      "velocity": 87,
      "chip": "ym2612"
    },
    {
      "channel": 3,
      "note": 78,
      "start": 67.3637,
      "duration": 0.3844,
      "velocity": 100,
      "chip": "ym2612"
    },
    {
      "channel": 4,
      "note": 54,
      "start": 67.3637,
      "duration": 0.1264,
      "velocity": 127,
      "chip": "ym2612"
    },
    {
      "channel": 2,
      "note": 93,
      "start": 67.3637,
      "duration": 0.3844,
      "velocity": 100,
      "chip": "ym2612"
    },
    {
      "channel": 1,
      "note": 62,
      "start": 67.3638,
      "duration": 0.1263,
      "velocity": 87,
      "chip": "ym2612"
    },
    {
      "channel": 4,
      "note": 54,
      "start": 67.4911,
      "duration": 0.1273,
      "velocity": 127,
      "chip": "ym2612"
    },
    {
      "channel": 1,
      "note": 57,
      "start": 67.4912,
      "duration": 0.1272,
      "velocity": 87,
      "chip": "ym2612"
    },
    {
      "channel": 5,
      "note": 54,
      "start": 67.6193,
      "duration": 0.1288,
      "velocity": 111,
      "chip": "ym2612"
    },
    {
      "channel": 4,
      "note": 54,
      "start": 67.6193,
      "duration": 0.1294,
      "velocity": 127,
      "chip": "ym2612"
    },
    {
      "channel": 1,
      "note": 62,
      "start": 67.6195,
      "duration": 0.1287,
      "velocity": 87,
      "chip": "ym2612"
    },
    {
      "channel": 5,
      "note": 54,
      "start": 67.7487,
      "duration": 0.127,
      "velocity": 111,
      "chip": "ym2612"
    },
    {
      "channel": 3,
      "note": 76,
      "start": 67.7488,
      "duration": 0.6393,
      "velocity": 100,
      "chip": "ym2612"
    },
    {
      "channel": 1,
      "note": 57,
      "start": 67.7488,
      "duration": 0.127,
      "velocity": 87,
      "chip": "ym2612"
    },
    {
      "channel": 2,
      "note": 93,
      "start": 67.7488,
      "duration": 0.6393,
      "velocity": 100,
      "chip": "ym2612"
    },
    {
      "channel": 5,
      "note": 54,
      "start": 68.0039,
      "duration": 0.1283,
      "velocity": 111,
      "chip": "ym2612"
    },
    {
      "channel": 1,
      "note": 57,
      "start": 68.0041,
      "duration": 0.1274,
      "velocity": 87,
      "chip": "ym2612"
    },
    {
      "channel": 4,
      "note": 54,
      "start": 68.1321,
      "duration": 0.3847,
      "velocity": 127,
      "chip": "ym2612"
    },
    {
      "channel": 1,
      "note": 57,
      "start": 68.1322,
      "duration": 0.1282,
      "velocity": 87,
      "chip": "ym2612"
    },
    {
      "channel": 5,
      "note": 54,
      "start": 68.3887,
      "duration": 0.1273,
      "velocity": 111,
      "chip": "ym2612"
    },
    {
      "channel": 2,
      "note": 88,
      "start": 68.3888,
      "duration": 0.5124,
      "velocity": 100,
      "chip": "ym2612"
    },
    {
      "channel": 3,
      "note": 73,
      "start": 68.3888,
      "duration": 0.5124,
      "velocity": 100,
      "chip": "ym2612"
    },
    {
      "channel": 1,
      "note": 57,
      "start": 68.3888,
      "duration": 0.1273,
      "velocity": 87,
      "chip": "ym2612"
    },
    {
      "channel": 5,
      "note": 54,
      "start": 68.5167,
      "duration": 0.1282,
      "velocity": 111,
      "chip": "ym2612"
    },
    {
      "channel": 1,
      "note": 57,
      "start": 68.5168,
      "duration": 0.1282,
      "velocity": 87,
      "chip": "ym2612"
    },
    {
      "channel": 5,
      "note": 54,
      "start": 68.7731,
      "duration": 0.1288,
      "velocity": 111,
      "chip": "ym2612"
    },
    {
      "channel": 1,
      "note": 57,
      "start": 68.7733,
      "duration": 0.128,
      "velocity": 87,
      "chip": "ym2612"
    },
    {
      "channel": 3,
      "note": 69,
      "start": 68.902,
      "duration": 0.3843,
      "velocity": 100,
      "chip": "ym2612"
    },
    {
      "channel": 4,
      "note": 54,
      "start": 68.902,
      "duration": 0.385,
      "velocity": 127,
      "chip": "ym2612"
    },
    {
      "channel": 2,
      "note": 85,
      "start": 68.902,
      "duration": 0.3843,
      "velocity": 100,
      "chip": "ym2612"
    },
    {
      "channel": 1,
      "note": 61,
      "start": 68.9021,
      "duration": 0.1263,
      "velocity": 87,
      "chip": "ym2612"
    },
    {
      "channel": 1,
      "note": 57,
      "start": 69.0297,
      "duration": 0.1272,
      "velocity": 87,
      "chip": "ym2612"
    },
    {
      "channel": 5,
      "note": 54,
      "start": 69.1577,
      "duration": 0.1284,
      "velocity": 111,
      "chip": "ym2612"
    },
    {
      "channel": 1,
      "note": 52,
      "start": 69.1579,
      "duration": 0.1284,
      "velocity": 87,
      "chip": "ym2612"
    },
    {
      "channel": 5,
      "note": 54,
      "start": 69.2869,
      "duration": 0.1273,
      "velocity": 111,
      "chip": "ym2612"
    },
    {
      "channel": 3,
      "note": 74,
      "start": 69.2869,
      "duration": 0.6398,
      "velocity": 100,
      "chip": "ym2612"
    },
    {
      "channel": 2,
      "note": 90,
      "start": 69.287,
      "duration": 0.6398,
      "velocity": 100,
      "chip": "ym2612"
    },
    {
      "channel": 1,
      "note": 50,
      "start": 69.2871,
      "duration": 0.1272,
      "velocity": 87,
      "chip": "ym2612"
    },
    {
      "channel": 5,
      "note": 54,
      "start": 69.5424,
      "duration": 0.1282,
      "velocity": 111,
      "chip": "ym2612"
    },
    {
      "channel": 1,
      "note": 50,
      "start": 69.5425,
      "duration": 0.1272,
      "velocity": 87,
      "chip": "ym2612"
    },
    {
      "channel": 4,
      "note": 54,
      "start": 69.6706,
      "duration": 0.3846,
      "velocity": 127,
      "chip": "ym2612"
    },
    {
      "channel": 1,
      "note": 50,
      "start": 69.6707,
      "duration": 0.1282,
      "velocity": 87,
      "chip": "ym2612"
    },
    {
      "channel": 5,
      "note": 54,
      "start": 69.9275,
      "duration": 0.127,
      "velocity": 111,
      "chip": "ym2612"
    },
    {
      "channel": 2,
      "note": 92,
      "start": 69.9275,
      "duration": 0.5125,
      "velocity": 100,
      "chip": "ym2612"
    },
    {
      "channel": 3,
      "note": 76,
      "start": 69.9275,
      "duration": 0.5125,
      "velocity": 100,
      "chip": "ym2612"
    },
    {
      "channel": 1,
      "note": 50,
      "start": 69.9276,
      "duration": 0.127,
      "velocity": 87,
      "chip": "ym2612"
    },
    {
      "channel": 5,
      "note": 54,
      "start": 70.0552,
      "duration": 0.1282,
      "velocity": 111,
      "chip": "ym2612"
    },
    {
      "channel": 1,
      "note": 50,
      "start": 70.0553,
      "duration": 0.1282,
      "velocity": 87,
      "chip": "ym2612"
    },
    {
      "channel": 5,
      "note": 54,
      "start": 70.3116,
      "duration": 0.129,
      "velocity": 111,
      "chip": "ym2612"
    },
    {
      "channel": 1,
      "note": 50,
      "start": 70.3117,
      "duration": 0.1283,
      "velocity": 87,
      "chip": "ym2612"
    },
    {
      "channel": 3,
      "note": 78,
      "start": 70.4407,
      "duration": 0.3841,
      "velocity": 100,
      "chip": "ym2612"
    },
    {
      "channel": 4,
      "note": 54,
      "start": 70.4407,
      "duration": 0.3849,
      "velocity": 127,
      "chip": "ym2612"
    },
    {
      "channel": 2,
      "note": 93,
      "start": 70.4407,
      "duration": 0.3841,
      "velocity": 100,
      "chip": "ym2612"
    },
    {
      "channel": 1,
      "note": 54,
      "start": 70.4408,
      "duration": 0.1258,
      "velocity": 87,
      "chip": "ym2612"
    },
    {
      "channel": 1,
      "note": 50,
      "start": 70.5682,
      "duration": 0.1272,
      "velocity": 87,
      "chip": "ym2612"
    },
    {
      "channel": 5,
      "note": 54,
      "start": 70.6962,
      "duration": 0.1285,
      "velocity": 111,
      "chip": "ym2612"
    },
    {
      "channel": 1,
      "note": 45,
      "start": 70.6963,
      "duration": 0.1286,
      "velocity": 87,
      "chip": "ym2612"
    },
    {
      "channel": 5,
      "note": 54,
      "start": 70.8255,
      "duration": 0.1272,
      "velocity": 111,
      "chip": "ym2612"
    },
    {
      "channel": 3,
      "note": 76,
      "start": 70.8256,
      "duration": 1.0241,
      "velocity": 100,
      "chip": "ym2612"
    },
    {
      "channel": 1,
      "note": 52,
      "start": 70.8256,
      "duration": 0.1272,
      "velocity": 87,
      "chip": "ym2612"
    },
    {
      "channel": 2,
      "note": 92,
      "start": 70.8256,
      "duration": 1.024,
      "velocity": 100,
      "chip": "ym2612"
    },
    {
      "channel": 5,
      "note": 54,
      "start": 71.0808,
      "duration": 0.1282,
      "velocity": 111,
      "chip": "ym2612"
    },
    {
      "channel": 1,
      "note": 52,
      "start": 71.081,
      "duration": 0.1274,
      "velocity": 87,
      "chip": "ym2612"
    },
    {
      "channel": 4,
      "note": 54,
      "start": 71.2091,
      "duration": 0.3849,
      "velocity": 127,
      "chip": "ym2612"
    },
    {
      "channel": 1,
      "note": 52,
      "start": 71.2092,
      "duration": 0.1282,
      "velocity": 87,
      "chip": "ym2612"
    },
    {
      "channel": 5,
      "note": 54,
      "start": 71.4654,
      "duration": 0.1278,
      "velocity": 111,
      "chip": "ym2612"
    },
    {
      "channel": 1,
      "note": 52,
      "start": 71.4656,
      "duration": 0.1277,
      "velocity": 87,
      "chip": "ym2612"
    },
    {
      "channel": 5,
      "note": 54,
      "start": 71.5939,
      "duration": 0.128,
      "velocity": 111,
      "chip": "ym2612"
    },
    {
      "channel": 1,
      "note": 52,
      "start": 71.594,
      "duration": 0.128,
      "velocity": 87,
      "chip": "ym2612"
    },
    {
      "channel": 5,
      "note": 54,
      "start": 71.8503,
      "duration": 0.128,
      "velocity": 111,
      "chip": "ym2612"
    },
    {
      "channel": 3,
      "note": 71,
      "start": 71.8504,
      "duration": 0.5132,
      "velocity": 100,
      "chip": "ym2612"
    },
    {
      "channel": 2,
      "note": 88,
      "start": 71.8504,
      "duration": 0.5132,
      "velocity": 100,
      "chip": "ym2612"
    },
    {
      "channel": 1,
      "note": 52,
      "start": 71.8505,
      "duration": 0.1272,
      "velocity": 87,
      "chip": "ym2612"
    },
    {
      "channel": 4,
      "note": 54,
      "start": 71.9783,
      "duration": 0.3852,
      "velocity": 127,
      "chip": "ym2612"
    },
    {
      "channel": 1,
      "note": 52,
      "start": 71.9785,
      "duration": 0.1282,
      "velocity": 87,
      "chip": "ym2612"
    },
    {
      "channel": 5,
      "note": 54,
      "start": 72.2347,
      "duration": 0.1288,
      "velocity": 111,
      "chip": "ym2612"
    },
    {
      "channel": 1,
      "note": 52,
      "start": 72.2349,
      "duration": 0.1288,
      "velocity": 87,
      "chip": "ym2612"
    },
    {
      "channel": 4,
      "note": 54,
      "start": 72.3642,
      "duration": 0.1269,
      "velocity": 127,
      "chip": "ym2612"
    },
    {
      "channel": 5,
      "note": 54,
      "start": 72.3642,
      "duration": 0.1269,
      "velocity": 111,
      "chip": "ym2612"
    },
    {
      "channel": 2,
      "note": 83,
      "start": 72.3643,
      "duration": 1.5379,
      "velocity": 100,
      "chip": "ym2612"
    },
    {
      "channel": 3,
      "note": 68,
      "start": 72.3643,
      "duration": 1.5378,
      "velocity": 100,
      "chip": "ym2612"
    },
    {
      "channel": 1,
      "note": 52,
      "start": 72.3644,
      "duration": 0.1269,
      "velocity": 87,
      "chip": "ym2612"
    },
    {
      "channel": 5,
      "note": 54,
      "start": 72.6193,
      "duration": 0.1282,
      "velocity": 111,
      "chip": "ym2612"
    },
    {
      "channel": 4,
      "note": 54,
      "start": 72.6194,
      "duration": 0.1282,
      "velocity": 127,
      "chip": "ym2612"
    },
    {
      "channel": 1,
      "note": 52,
      "start": 72.6195,
      "duration": 0.1273,
      "velocity": 87,
      "chip": "ym2612"
    },
    {
      "channel": 1,
      "note": 52,
      "start": 72.7477,
      "duration": 0.1282,
      "velocity": 87,
      "chip": "ym2612"
    },
    {
      "channel": 4,
      "note": 54,
      "start": 72.8757,
      "duration": 0.1272,
      "velocity": 127,
      "chip": "ym2612"
    },
    {
      "channel": 5,
      "note": 54,
      "start": 73.0039,
      "duration": 0.128,
      "velocity": 111,
      "chip": "ym2612"
    },
    {
      "channel": 4,
      "note": 54,
      "start": 73.004,
      "duration": 0.1279,
      "velocity": 127,
      "chip": "ym2612"
    },
    {
      "channel": 1,
      "note": 52,
      "start": 73.0041,
      "duration": 0.1278,
      "velocity": 87,
      "chip": "ym2612"
    },
    {
      "channel": 5,
      "note": 54,
      "start": 73.1326,
      "duration": 0.1278,
      "velocity": 111,
      "chip": "ym2612"
    },
    {
      "channel": 4,
      "note": 54,
      "start": 73.1326,
      "duration": 0.1269,
      "velocity": 127,
      "chip": "ym2612"
    },
    {
      "channel": 1,
      "note": 56,
      "start": 73.1327,
      "duration": 0.1268,
      "velocity": 87,
      "chip": "ym2612"
    },
    {
      "channel": 4,
      "note": 54,
      "start": 73.2604,
      "duration": 0.1272,
      "velocity": 127,
      "chip": "ym2612"
    },
    {
      "channel": 1,
      "note": 52,
      "start": 73.2605,
      "duration": 0.1272,
      "velocity": 87,
      "chip": "ym2612"
    },
    {
      "channel": 5,
      "note": 54,
      "start": 73.3885,
      "duration": 0.1283,
      "velocity": 111,
      "chip": "ym2612"
    },
    {
      "channel": 4,
      "note": 54,
      "start": 73.3886,
      "duration": 0.1273,
      "velocity": 127,
      "chip": "ym2612"
    },
    {
      "channel": 1,
      "note": 47,
      "start": 73.3887,
      "duration": 0.1273,
      "velocity": 87,
      "chip": "ym2612"
    },
    {
      "channel": 4,
      "note": 54,
      "start": 73.5168,
      "duration": 0.1272,
      "velocity": 127,
      "chip": "ym2612"
    },
    {
      "channel": 1,
      "note": 52,
      "start": 73.5169,
      "duration": 0.1271,
      "velocity": 87,
      "chip": "ym2612"
    },
    {
      "channel": 4,
      "note": 54,
      "start": 73.645,
      "duration": 0.1275,
      "velocity": 127,
      "chip": "ym2612"
    },
    {
      "channel": 1,
      "note": 56,
      "start": 73.6451,
      "duration": 0.1274,
      "velocity": 87,
      "chip": "ym2612"
    },
    {
      "channel": 4,
      "note": 54,
      "start": 73.7732,
      "duration": 0.1296,
      "velocity": 127,
      "chip": "ym2612"
    },
    {
      "channel": 5,
      "note": 54,
      "start": 73.7732,
      "duration": 0.1288,
      "velocity": 111,
      "chip": "ym2612"
    },
    {
      "channel": 1,
      "note": 59,
      "start": 73.7733,
      "duration": 0.1288,
      "velocity": 87,
      "chip": "ym2612"
    },
    {
      "channel": 5,
      "note": 54,
      "start": 73.9027,
      "duration": 0.1268,
      "velocity": 111,
      "chip": "ym2612"
    },
    {
      "channel": 2,
      "note": 81,
      "start": 73.9028,
      "duration": 0.5108,
      "velocity": 100,
      "chip": "ym2612"
    },
    {
      "channel": 3,
      "note": 66,
      "start": 73.9028,
      "duration": 0.5107,
      "velocity": 100,
      "chip": "ym2612"
    },
    {
      "channel": 1,
      "note": 54,
      "start": 73.9029,
      "duration": 0.1268,
      "velocity": 87,
      "chip": "ym2612"
    },
    {
      "channel": 5,
      "note": 54,
      "start": 74.1578,
      "duration": 0.1282,
      "velocity": 111,
      "chip": "ym2612"
    },
    {
      "channel": 1,
      "note": 54,
      "start": 74.1579,
      "duration": 0.1272,
      "velocity": 87,
      "chip": "ym2612"
    },
    {
      "channel": 4,
      "note": 54,
      "start": 74.2861,
      "duration": 0.3854,
      "velocity": 127,
      "chip": "ym2612"
    },
    {
      "channel": 1,
      "note": 54,
      "start": 74.2862,
      "duration": 0.1282,
      "velocity": 87,
      "chip": "ym2612"
    },
    {
      "channel": 3,
      "note": 64,
      "start": 74.4143,
      "duration": 0.1279,
      "velocity": 100,
      "chip": "ym2612"
    },
    {
      "channel": 2,
      "note": 80,
      "start": 74.4144,
      "duration": 0.1279,
      "velocity": 100,
      "chip": "ym2612"
    },
    {
      "channel": 5,
      "note": 54,
      "start": 74.5429,
      "duration": 0.1279,
      "velocity": 111,
      "chip": "ym2612"
    },
    {
      "channel": 3,
      "note": 66,
      "start": 74.5429,
      "duration": 0.1279,
      "velocity": 100,
      "chip": "ym2612"
    },
    {
      "channel": 2,
      "note": 81,
      "start": 74.543,
      "duration": 0.1278,
      "velocity": 100,
      "chip": "ym2612"
    },
    {
      "channel": 1,
      "note": 54,
      "start": 74.543,
      "duration": 0.1278,
      "velocity": 87,
      "chip": "ym2612"
    },
    {
      "channel": 5,
      "note": 54,
      "start": 74.6714,
      "duration": 0.1274,
      "velocity": 111,
      "chip": "ym2612"
    },
    {
      "channel": 3,
      "note": 68,
      "start": 74.6715,
      "duration": 0.2554,
      "velocity": 100,
      "chip": "ym2612"
    },
    {
      "channel": 2,
      "note": 83,
      "start": 74.6715,
      "duration": 0.2554,
      "velocity": 100,
      "chip": "ym2612"
    },
    {
      "channel": 1,
      "note": 56,
      "start": 74.6716,
      "duration": 0.1273,
      "velocity": 87,
      "chip": "ym2612"
    },
    {
      "channel": 5,
      "note": 54,
      "start": 74.9275,
      "duration": 0.1278,
      "velocity": 111,
      "chip": "ym2612"
    },
    {
      "channel": 3,
      "note": 64,
      "start": 74.9275,
      "duration": 0.255,
      "velocity": 100,
      "chip": "ym2612"
    },
    {
      "channel": 2,
      "note": 80,
      "start": 74.9276,
      "duration": 0.255,
      "velocity": 100,
      "chip": "ym2612"
    },
    {
      "channel": 1,
      "note": 56,
      "start": 74.9277,
      "duration": 0.1267,
      "velocity": 87,
      "chip": "ym2612"
    },
    {
      "channel": 4,
      "note": 54,
      "start": 75.0553,
      "duration": 0.3859,
      "velocity": 127,
      "chip": "ym2612"
    },
    {
      "channel": 1,
      "note": 56,
      "start": 75.0554,
      "duration": 0.1282,
      "velocity": 87,
      "chip": "ym2612"
    },
    {
      "channel": 3,
      "note": 68,
      "start": 75.1835,
      "duration": 0.2569,
      "velocity": 100,
      "chip": "ym2612"
    },
    {
      "channel": 2,
      "note": 83,
      "start": 75.1836,
      "duration": 0.2569,
      "velocity": 100,
      "chip": "ym2612"
    },
    {
      "channel": 5,
      "note": 54,
      "start": 75.3117,
      "duration": 0.1287,
      "velocity": 111,
      "chip": "ym2612"
    },
    {
      "channel": 1,
      "note": 56,
      "start": 75.3118,
      "duration": 0.1287,
      "velocity": 87,
      "chip": "ym2612"
    },
    {
      "channel": 5,
      "note": 54,
      "start": 75.4411,
      "duration": 0.127,
      "velocity": 111,
      "chip": "ym2612"
    },
    {
      "channel": 3,
      "note": 69,
      "start": 75.4411,
      "duration": 1.5378,
      "velocity": 100,
      "chip": "ym2612"
    },
    {
      "channel": 2,
      "note": 85,
      "start": 75.4412,
      "duration": 1.5377,
      "velocity": 100,
      "chip": "ym2612"
    },
    {
      "channel": 1,
      "note": 57,
      "start": 75.4413,
      "duration": 0.127,
      "velocity": 87,
      "chip": "ym2612"
    },
    {
      "channel": 5,
      "note": 54,
      "start": 75.6963,
      "duration": 0.1282,
      "velocity": 111,
      "chip": "ym2612"
    },
    {
      "channel": 1,
      "note": 57,
      "start": 75.6964,
      "duration": 0.1275,
      "velocity": 87,
      "chip": "ym2612"
    },
    {
      "channel": 4,
      "note": 54,
      "start": 75.8245,
      "duration": 0.3848,
      "velocity": 127,
      "chip": "ym2612"
    },
    {
      "channel": 1,
      "note": 57,
      "start": 75.8247,
      "duration": 0.1265,
      "velocity": 87,
      "chip": "ym2612"
    },
    {
      "channel": 1,
      "note": 52,
      "start": 75.9528,
      "duration": 0.1271,
      "velocity": 87,
      "chip": "ym2612"
    },
    {
      "channel": 5,
      "note": 54,
      "start": 76.0809,
      "duration": 0.1277,
      "velocity": 111,
      "chip": "ym2612"
    },
    {
      "channel": 1,
      "note": 57,
      "start": 76.0811,
      "duration": 0.1277,
      "velocity": 87,
      "chip": "ym2612"
    },
    {
      "channel": 5,
      "note": 54,
      "start": 76.2093,
      "duration": 0.128,
      "velocity": 111,
      "chip": "ym2612"
    },
    {
      "channel": 1,
      "note": 57,
      "start": 76.2095,
      "duration": 0.128,
      "velocity": 87,
      "chip": "ym2612"
    },
    {
      "channel": 5,
      "note": 54,
      "start": 76.4655,
      "duration": 0.1282,
      "velocity": 111,
      "chip": "ym2612"
    },
    {
      "channel": 1,
      "note": 57,
      "start": 76.4657,
      "duration": 0.1274,
      "velocity": 87,
      "chip": "ym2612"
    },
    {
      "channel": 4,
      "note": 54,
      "start": 76.5937,
      "duration": 0.1269,
      "velocity": 127,
      "chip": "ym2612"
    },
    {
      "channel": 1,
      "note": 57,
      "start": 76.5939,
      "duration": 0.1268,
      "velocity": 87,
      "chip": "ym2612"
    },
    {
      "channel": 4,
      "note": 54,
      "start": 76.722,
      "duration": 0.1273,
      "velocity": 127,
      "chip": "ym2612"
    },
    {
      "channel": 1,
      "note": 52,
      "start": 76.7221,
      "duration": 0.1272,
      "velocity": 87,
      "chip": "ym2612"
    },
    {
      "channel": 5,
      "note": 54,
      "start": 76.8501,
      "duration": 0.1288,
      "velocity": 111,
      "chip": "ym2612"
    },
    {
      "channel": 4,
      "note": 54,
      "start": 76.8502,
      "duration": 0.1295,
      "velocity": 127,
      "chip": "ym2612"
    },
    {
      "channel": 1,
      "note": 57,
      "start": 76.8503,
      "duration": 0.1287,
      "velocity": 87,
      "chip": "ym2612"
    },
    {
      "channel": 5,
      "note": 54,
      "start": 76.9796,
      "duration": 0.127,
      "velocity": 111,
      "chip": "ym2612"
    },
    {
      "channel": 3,
      "note": 71,
      "start": 76.9796,
      "duration": 0.5109,
      "velocity": 100,
      "chip": "ym2612"
    },
    {
      "channel": 1,
      "note": 59,
      "start": 76.9797,
      "duration": 0.1271,
      "velocity": 87,
      "chip": "ym2612"
    },
    {
      "channel": 2,
      "note": 86,
      "start": 76.9797,
      "duration": 0.5109,
      "velocity": 100,
      "chip": "ym2612"
    },
    {
      "channel": 5,
      "note": 54,
      "start": 77.2348,
      "duration": 0.1282,
      "velocity": 111,
      "chip": "ym2612"
    },
    {
      "channel": 1,
      "note": 59,
      "start": 77.2349,
      "duration": 0.1275,
      "velocity": 87,
      "chip": "ym2612"
    },
    {
      "channel": 4,
      "note": 54,
      "start": 77.363,
      "duration": 0.3857,
      "velocity": 127,
      "chip": "ym2612"
    },
    {
      "channel": 1,
      "note": 59,
      "start": 77.3632,
      "duration": 0.1282,
      "velocity": 87,
      "chip": "ym2612"
    },
    {
      "channel": 2,
      "note": 85,
      "start": 77.4913,
      "duration": 0.1277,
      "velocity": 100,
      "chip": "ym2612"
    },
    {
      "channel": 3,
      "note": 69,
      "start": 77.4913,
      "duration": 0.1277,
      "velocity": 100,
      "chip": "ym2612"
    },
    {
      "channel": 5,
      "note": 54,
      "start": 77.6196,
      "duration": 0.1284,
      "velocity": 111,
      "chip": "ym2612"
    },
    {
      "channel": 3,
      "note": 71,
      "start": 77.6196,
      "duration": 0.1284,
      "velocity": 100,
      "chip": "ym2612"
    },
    {
      "channel": 2,
      "note": 86,
      "start": 77.6197,
      "duration": 0.1283,
      "velocity": 100,
      "chip": "ym2612"
    },
    {
      "channel": 1,
      "note": 59,
      "start": 77.6198,
      "duration": 0.1283,
      "velocity": 87,
      "chip": "ym2612"
    },
    {
      "channel": 5,
      "note": 54,
      "start": 77.7486,
      "duration": 0.1272,
      "velocity": 111,
      "chip": "ym2612"
    },
    {
      "channel": 3,
      "note": 73,
      "start": 77.7487,
      "duration": 0.2548,
      "velocity": 100,
      "chip": "ym2612"
    },
    {
      "channel": 1,
      "note": 61,
      "start": 77.7488,
      "duration": 0.1272,
      "velocity": 87,
      "chip": "ym2612"
    },
    {
      "channel": 2,
      "note": 88,
      "start": 77.7488,
      "duration": 0.2548,
      "velocity": 100,
      "chip": "ym2612"
    },
    {
      "channel": 5,
      "note": 54,
      "start": 78.0042,
      "duration": 0.1281,
      "velocity": 111,
      "chip": "ym2612"
    },
    {
      "channel": 3,
      "note": 69,
      "start": 78.0042,
      "duration": 0.2555,
      "velocity": 100,
      "chip": "ym2612"
    },
    {
      "channel": 2,
      "note": 85,
      "start": 78.0043,
      "duration": 0.2555,
      "velocity": 100,
      "chip": "ym2612"
    },
    {
      "channel": 1,
      "note": 61,
      "start": 78.0044,
      "duration": 0.1272,
      "velocity": 87,
      "chip": "ym2612"
    },
    {
      "channel": 4,
      "note": 54,
      "start": 78.1322,
      "duration": 0.3856,
      "velocity": 127,
      "chip": "ym2612"
    },
    {
      "channel": 1,
      "note": 61,
      "start": 78.1324,
      "duration": 0.1283,
      "velocity": 87,
      "chip": "ym2612"
    },
    {
      "channel": 3,
      "note": 73,
      "start": 78.2605,
      "duration": 0.2567,
      "velocity": 100,
      "chip": "ym2612"
    },
    {
      "channel": 2,
      "note": 88,
      "start": 78.2605,
      "duration": 0.2567,
      "velocity": 100,
      "chip": "ym2612"
    },
    {
      "channel": 5,
      "note": 54,
      "start": 78.3886,
      "duration": 0.1285,
      "velocity": 111,
      "chip": "ym2612"
    },
    {
      "channel": 1,
      "note": 61,
      "start": 78.3888,
      "duration": 0.1284,
      "velocity": 87,
      "chip": "ym2612"
    },
    {
      "channel": 5,
      "note": 54,
      "start": 78.5178,
      "duration": 0.1272,
      "velocity": 111,
      "chip": "ym2612"
    },
    {
      "channel": 3,
      "note": 74,
      "start": 78.5179,
      "duration": 1.1527,
      "velocity": 100,
      "chip": "ym2612"
    },
    {
      "channel": 2,
      "note": 90,
      "start": 78.5179,
      "duration": 1.1527,
      "velocity": 100,
      "chip": "ym2612"
    },
    {
      "channel": 1,
      "note": 62,
      "start": 78.518,
      "duration": 0.1272,
      "velocity": 87,
      "chip": "ym2612"
    },
    {
      "channel": 5,
      "note": 54,
      "start": 78.7733,
      "duration": 0.1282,
      "velocity": 111,
      "chip": "ym2612"
    },
    {
      "channel": 1,
      "note": 62,
      "start": 78.7734,
      "duration": 0.1272,
      "velocity": 87,
      "chip": "ym2612"
    },
    {
      "channel": 4,
      "note": 54,
      "start": 78.9015,
      "duration": 0.3846,
      "velocity": 127,
      "chip": "ym2612"
    },
    {
      "channel": 1,
      "note": 62,
      "start": 78.9016,
      "duration": 0.1267,
      "velocity": 87,
      "chip": "ym2612"
    },
    {
      "channel": 1,
      "note": 57,
      "start": 79.0298,
      "duration": 0.1271,
      "velocity": 87,
      "chip": "ym2612"
    },
    {
      "channel": 5,
      "note": 54,
      "start": 79.1579,
      "duration": 0.1275,
      "velocity": 111,
      "chip": "ym2612"
    },
    {
      "channel": 1,
      "note": 62,
      "start": 79.158,
      "duration": 0.1274,
      "velocity": 87,
      "chip": "ym2612"
    },
    {
      "channel": 5,
      "note": 54,
      "start": 79.2861,
      "duration": 0.1282,
      "velocity": 111,
      "chip": "ym2612"
    },
    {
      "channel": 1,
      "note": 62,
      "start": 79.2862,
      "duration": 0.1282,
      "velocity": 87,
      "chip": "ym2612"
    },
    {
      "channel": 5,
      "note": 54,
      "start": 79.5425,
      "duration": 0.1287,
      "velocity": 111,
      "chip": "ym2612"
    },
    {
      "channel": 1,
      "note": 62,
      "start": 79.5427,
      "duration": 0.1279,
      "velocity": 87,
      "chip": "ym2612"
    },
    {
      "channel": 4,
      "note": 54,
      "start": 79.6712,
      "duration": 0.1267,
      "velocity": 127,
      "chip": "ym2612"
    },
    {
      "channel": 2,
      "note": 93,
      "start": 79.6713,
      "duration": 0.3845,
      "velocity": 100,
      "chip": "ym2612"
    },
    {
      "channel": 3,
      "note": 78,
      "start": 79.6713,
      "duration": 0.3845,
      "velocity": 100,
      "chip": "ym2612"
    },
    {
      "channel": 1,
      "note": 62,
      "start": 79.6714,
      "duration": 0.1266,
      "velocity": 87,
      "chip": "ym2612"
    },
    {
      "channel": 4,
      "note": 54,
      "start": 79.7989,
      "duration": 0.1275,
      "velocity": 127,
      "chip": "ym2612"
    },
    {
      "channel": 1,
      "note": 57,
      "start": 79.799,
      "duration": 0.1275,
      "velocity": 87,
      "chip": "ym2612"
    },
    {
      "channel": 5,
      "note": 54,
      "start": 79.9271,
      "duration": 0.1284,
      "velocity": 111,
      "chip": "ym2612"
    },
    {
      "channel": 4,
      "note": 54,
      "start": 79.9271,
      "duration": 0.1294,
      "velocity": 127,
      "chip": "ym2612"
    },
    {
      "channel": 1,
      "note": 62,
      "start": 79.9273,
      "duration": 0.1286,
      "velocity": 87,
      "chip": "ym2612"
    },
    {
      "channel": 5,
      "note": 54,
      "start": 80.0565,
      "duration": 0.1271,
      "velocity": 111,
      "chip": "ym2612"
    },
    {
      "channel": 3,
      "note": 76,
      "start": 80.0565,
      "duration": 0.6396,
      "velocity": 100,
      "chip": "ym2612"
    },
    {
      "channel": 2,
      "note": 93,
      "start": 80.0566,
      "duration": 0.6396,
      "velocity": 100,
      "chip": "ym2612"
    },
    {
      "channel": 1,
      "note": 57,
      "start": 80.0567,
      "duration": 0.127,
      "velocity": 87,
      "chip": "ym2612"
    },
    {
      "channel": 5,
      "note": 54,
      "start": 80.3117,
      "duration": 0.1282,
      "velocity": 111,
      "chip": "ym2612"
    },
    {
      "channel": 1,
      "note": 57,
      "start": 80.3119,
      "duration": 0.1274,
      "velocity": 87,
      "chip": "ym2612"
    },
    {
      "channel": 4,
      "note": 54,
      "start": 80.44,
      "duration": 0.3848,
      "velocity": 127,
      "chip": "ym2612"
    },
    {
      "channel": 1,
      "note": 57,
      "start": 80.4401,
      "duration": 0.1282,
      "velocity": 87,
      "chip": "ym2612"
    },
    {
      "channel": 5,
      "note": 54,
      "start": 80.6968,
      "duration": 0.1273,
      "velocity": 111,
      "chip": "ym2612"
    },
    {
      "channel": 3,
      "note": 73,
      "start": 80.6969,
      "duration": 0.5125,
      "velocity": 100,
      "chip": "ym2612"
    },
    {
      "channel": 2,
      "note": 88,
      "start": 80.6969,
      "duration": 0.5124,
      "velocity": 100,
      "chip": "ym2612"
    },
    {
      "channel": 1,
      "note": 57,
      "start": 80.697,
      "duration": 0.1272,
      "velocity": 87,
      "chip": "ym2612"
    },
    {
      "channel": 5,
      "note": 54,
      "start": 80.8247,
      "duration": 0.128,
      "velocity": 111,
      "chip": "ym2612"
    },
    {
      "channel": 1,
      "note": 57,
      "start": 80.8249,
      "duration": 0.128,
      "velocity": 87,
      "chip": "ym2612"
    },
    {
      "channel": 5,
      "note": 54,
      "start": 81.081,
      "duration": 0.1291,
      "velocity": 111,
      "chip": "ym2612"
    },
    {
      "channel": 1,
      "note": 57,
      "start": 81.0811,
      "duration": 0.1284,
      "velocity": 87,
      "chip": "ym2612"
    },
    {
      "channel": 4,
      "note": 54,
      "start": 81.21,
      "duration": 0.3851,
      "velocity": 127,
      "chip": "ym2612"
    },
    {
      "channel": 2,
      "note": 85,
      "start": 81.2101,
      "duration": 0.3843,
      "velocity": 100,
      "chip": "ym2612"
    },
    {
      "channel": 3,
      "note": 69,
      "start": 81.2101,
      "duration": 0.3843,
      "velocity": 100,
      "chip": "ym2612"
    },
    {
      "channel": 1,
      "note": 61,
      "start": 81.2102,
      "duration": 0.1258,
      "velocity": 87,
      "chip": "ym2612"
    },
    {
      "channel": 1,
      "note": 57,
      "start": 81.3375,
      "duration": 0.1272,
      "velocity": 87,
      "chip": "ym2612"
    },
    {
      "channel": 5,
      "note": 54,
      "start": 81.4656,
      "duration": 0.1288,
      "velocity": 111,
      "chip": "ym2612"
    },
    {
      "channel": 1,
      "note": 52,
      "start": 81.4658,
      "duration": 0.1287,
      "velocity": 87,
      "chip": "ym2612"
    },
    {
      "channel": 5,
      "note": 54,
      "start": 81.595,
      "duration": 0.127,
      "velocity": 111,
      "chip": "ym2612"
    },
    {
      "channel": 3,
      "note": 74,
      "start": 81.5951,
      "duration": 0.6393,
      "velocity": 100,
      "chip": "ym2612"
    },
    {
      "channel": 1,
      "note": 50,
      "start": 81.5951,
      "duration": 0.127,
      "velocity": 87,
      "chip": "ym2612"
    },
    {
      "channel": 2,
      "note": 90,
      "start": 81.5951,
      "duration": 0.6393,
      "velocity": 100,
      "chip": "ym2612"
    },
    {
      "channel": 5,
      "note": 54,
      "start": 81.8502,
      "duration": 0.1282,
      "velocity": 111,
      "chip": "ym2612"
    },
    {
      "channel": 1,
      "note": 50,
      "start": 81.8504,
      "duration": 0.1275,
      "velocity": 87,
      "chip": "ym2612"
    },
    {
      "channel": 4,
      "note": 54,
      "start": 81.9784,
      "duration": 0.3849,
      "velocity": 127,
      "chip": "ym2612"
    },
    {
      "channel": 1,
      "note": 50,
      "start": 81.9785,
      "duration": 0.1282,
      "velocity": 87,
      "chip": "ym2612"
    },
    {
      "channel": 5,
      "note": 54,
      "start": 82.235,
      "duration": 0.1276,
      "velocity": 111,
      "chip": "ym2612"
    },
    {
      "channel": 2,
      "note": 86,
      "start": 82.2351,
      "duration": 0.5127,
      "velocity": 100,
      "chip": "ym2612"
    },
    {
      "channel": 3,
      "note": 69,
      "start": 82.2351,
      "duration": 0.5127,
      "velocity": 100,
      "chip": "ym2612"
    },
    {
      "channel": 1,
      "note": 50,
      "start": 82.2352,
      "duration": 0.1275,
      "velocity": 87,
      "chip": "ym2612"
    },
    {
      "channel": 5,
      "note": 54,
      "start": 82.3632,
      "duration": 0.128,
      "velocity": 111,
      "chip": "ym2612"
    },
    {
      "channel": 1,
      "note": 50,
      "start": 82.3634,
      "duration": 0.128,
      "velocity": 87,
      "chip": "ym2612"
    },
    {
      "channel": 5,
      "note": 54,
      "start": 82.6195,
      "duration": 0.129,
      "velocity": 111,
      "chip": "ym2612"
    },
    {
      "channel": 1,
      "note": 50,
      "start": 82.6196,
      "duration": 0.1283,
      "velocity": 87,
      "chip": "ym2612"
    },
    {
      "channel": 3,
      "note": 74,
      "start": 82.7485,
      "duration": 0.3843,
      "velocity": 100,
      "chip": "ym2612"
    },
    {
      "channel": 4,
      "note": 54,
      "start": 82.7485,
      "duration": 0.385,
      "velocity": 127,
      "chip": "ym2612"
    },
    {
      "channel": 2,
      "note": 90,
      "start": 82.7486,
      "duration": 0.3843,
      "velocity": 100,
      "chip": "ym2612"
    },
    {
      "channel": 1,
      "note": 54,
      "start": 82.7486,
      "duration": 0.126,
      "velocity": 87,
      "chip": "ym2612"
    },
    {
      "channel": 1,
      "note": 50,
      "start": 82.876,
      "duration": 0.127,
      "velocity": 87,
      "chip": "ym2612"
    },
    {
      "channel": 5,
      "note": 54,
      "start": 83.0041,
      "duration": 0.1287,
      "velocity": 111,
      "chip": "ym2612"
    },
    {
      "channel": 1,
      "note": 45,
      "start": 83.0042,
      "duration": 0.1286,
      "velocity": 87,
      "chip": "ym2612"
    },
    {
      "channel": 5,
      "note": 54,
      "start": 83.1334,
      "duration": 0.127,
      "velocity": 111,
      "chip": "ym2612"
    },
    {
      "channel": 3,
      "note": 71,
      "start": 83.1335,
      "duration": 1.5375,
      "velocity": 100,
      "chip": "ym2612"
    },
    {
      "channel": 2,
      "note": 88,
      "start": 83.1336,
      "duration": 1.5375,
      "velocity": 100,
      "chip": "ym2612"
    },
    {
      "channel": 1,
      "note": 52,
      "start": 83.1336,
      "duration": 0.127,
      "velocity": 87,
      "chip": "ym2612"
    },
    {
      "channel": 5,
      "note": 54,
      "start": 83.3887,
      "duration": 0.1282,
      "velocity": 111,
      "chip": "ym2612"
    },
    {
      "channel": 1,
      "note": 52,
      "start": 83.3888,
      "duration": 0.1272,
      "velocity": 87,
      "chip": "ym2612"
    },
    {
      "channel": 4,
      "note": 54,
      "start": 83.5169,
      "duration": 0.3846,
      "velocity": 127,
      "chip": "ym2612"
    },
    {
      "channel": 1,
      "note": 52,
      "start": 83.517,
      "duration": 0.1283,
      "velocity": 87,
      "chip": "ym2612"
    },
    {
      "channel": 5,
      "note": 54,
      "start": 83.7733,
      "duration": 0.1275,
      "velocity": 111,
      "chip": "ym2612"
    },
    {
      "channel": 1,
      "note": 52,
      "start": 83.7734,
      "duration": 0.1274,
      "velocity": 87,
      "chip": "ym2612"
    },
    {
      "channel": 5,
      "note": 54,
      "start": 83.9015,
      "duration": 0.1282,
      "velocity": 111,
      "chip": "ym2612"
    },
    {
      "channel": 1,
      "note": 52,
      "start": 83.9016,
      "duration": 0.1283,
      "velocity": 87,
      "chip": "ym2612"
    },
    {
      "channel": 5,
      "note": 54,
      "start": 84.1579,
      "duration": 0.1282,
      "velocity": 111,
      "chip": "ym2612"
    },
    {
      "channel": 1,
      "note": 52,
      "start": 84.1581,
      "duration": 0.1272,
      "velocity": 87,
      "chip": "ym2612"
    },
    {
      "channel": 4,
      "note": 54,
      "start": 84.2862,
      "duration": 0.3847,
      "velocity": 127,
      "chip": "ym2612"
    },
    {
      "channel": 1,
      "note": 52,
      "start": 84.2863,
      "duration": 0.1282,
      "velocity": 87,
      "chip": "ym2612"
    },
    {
      "channel": 5,
      "note": 54,
      "start": 84.5425,
      "duration": 0.1284,
      "velocity": 111,
      "chip": "ym2612"
    },
    {
      "channel": 1,
      "note": 52,
      "start": 84.5427,
      "duration": 0.1283,
      "velocity": 87,
      "chip": "ym2612"
    },
    {
      "channel": 5,
      "note": 54,
      "start": 84.6716,
      "duration": 0.1273,
      "velocity": 111,
      "chip": "ym2612"
    },
    {
      "channel": 3,
      "note": 76,
      "start": 84.6717,
      "duration": 1.5412,
      "velocity": 1,
      "chip": "ym2612"
    },
    {
      "channel": 4,
      "note": 54,
      "start": 84.6717,
      "duration": 0.1273,
      "velocity": 127,
      "chip": "ym2612"
    },
    {
      "channel": 2,
      "note": 92,
      "start": 84.6717,
      "duration": 1.5412,
      "velocity": 1,
      "chip": "ym2612"
    },
    {
      "channel": 1,
      "note": 52,
      "start": 84.6718,
      "duration": 0.1273,
      "velocity": 87,
      "chip": "ym2612"
    },
    {
      "channel": 5,
      "note": 54,
      "start": 84.9271,
      "duration": 0.1283,
      "velocity": 111,
      "chip": "ym2612"
    },
    {
      "channel": 4,
      "note": 54,
      "start": 84.9272,
      "duration": 0.1282,
      "velocity": 127,
      "chip": "ym2612"
    },
    {
      "channel": 1,
      "note": 52,
      "start": 84.9273,
      "duration": 0.127,
      "velocity": 87,
      "chip": "ym2612"
    },
    {
      "channel": 1,
      "note": 52,
      "start": 85.0555,
      "duration": 0.1283,
      "velocity": 87,
      "chip": "ym2612"
    },
    {
      "channel": 4,
      "note": 54,
      "start": 85.1836,
      "duration": 0.1274,
      "velocity": 127,
      "chip": "ym2612"
    },
    {
      "channel": 5,
      "note": 54,
      "start": 85.3117,
      "duration": 0.128,
      "velocity": 111,
      "chip": "ym2612"
    },
    {
      "channel": 4,
      "note": 54,
      "start": 85.3118,
      "duration": 0.128,
      "velocity": 127,
      "chip": "ym2612"
    },
    {
      "channel": 1,
      "note": 52,
      "start": 85.312,
      "duration": 0.1279,
      "velocity": 87,
      "chip": "ym2612"
    },
    {
      "channel": 4,
      "note": 54,
      "start": 85.4404,
      "duration": 0.1267,
      "velocity": 127,
      "chip": "ym2612"
    },
    {
      "channel": 5,
      "note": 54,
      "start": 85.4404,
      "duration": 0.1278,
      "velocity": 111,
      "chip": "ym2612"
    },
    {
      "channel": 1,
      "note": 56,
      "start": 85.4406,
      "duration": 0.1266,
      "velocity": 87,
      "chip": "ym2612"
    },
    {
      "channel": 4,
      "note": 54,
      "start": 85.5682,
      "duration": 0.1276,
      "velocity": 127,
      "chip": "ym2612"
    },
    {
      "channel": 1,
      "note": 52,
      "start": 85.5684,
      "duration": 0.1275,
      "velocity": 87,
      "chip": "ym2612"
    },
    {
      "channel": 4,
      "note": 54,
      "start": 85.6964,
      "duration": 0.1276,
      "velocity": 127,
      "chip": "ym2612"
    },
    {
      "channel": 5,
      "note": 54,
      "start": 85.6964,
      "duration": 0.1283,
      "velocity": 111,
      "chip": "ym2612"
    },
    {
      "channel": 1,
      "note": 47,
      "start": 85.6966,
      "duration": 0.1275,
      "velocity": 87,
      "chip": "ym2612"
    },
    {
      "channel": 4,
      "note": 54,
      "start": 85.8247,
      "duration": 0.1268,
      "velocity": 127,
      "chip": "ym2612"
    },
    {
      "channel": 1,
      "note": 52,
      "start": 85.8249,
      "duration": 0.1268,
      "velocity": 87,
      "chip": "ym2612"
    },
    {
      "channel": 4,
      "note": 54,
      "start": 85.9528,
      "duration": 0.1276,
      "velocity": 127,
      "chip": "ym2612"
    },
    {
      "channel": 1,
      "note": 56,
      "start": 85.953,
      "duration": 0.1275,
      "velocity": 87,
      "chip": "ym2612"
    },
    {
      "channel": 5,
      "note": 54,
      "start": 86.081,
      "duration": 0.1311,
      "velocity": 111,
      "chip": "ym2612"
    },
    {
      "channel": 4,
      "note": 54,
      "start": 86.0811,
      "duration": 0.1317,
      "velocity": 127,
      "chip": "ym2612"
    },
    {
      "channel": 1,
      "note": 59,
      "start": 86.0812,
      "duration": 0.131,
      "velocity": 87,
      "chip": "ym2612"
    },
    {
      "channel": 5,
      "note": 54,
      "start": 86.2128,
      "duration": 0.1247,
      "velocity": 111,
      "chip": "ym2612"
    },
    {
      "channel": 1,
      "note": 54,
      "start": 86.213,
      "duration": 0.1246,
      "velocity": 87,
      "chip": "ym2612"
    }
  ]
}