{
  "track_name": "06 - Pietro's Theme",
  "duration_sec": 50.827,
  "sample_rate": 44100,
  "note_count": 576,
  "unique_pitches": 38,
  "pitch_range": 57,
  "avg_note_duration": 0.3568,
  "reconstruction_stats": {
    "notes_reconstructed": 576,
    "keyon_events": 576,
    "keyoff_events": 573,
    "orphan_keyons": 3,
    "unique_pitches": 38,
    "pitch_range": 57,
    "avg_duration_sec": 0.3568
  },
  "metadata": {
    "source": "D\\Daikoukai Jidai II\\06 - Pietro's Theme.vgz"
  },
  "notes": [
    {
      "channel": 0,
      "note": 77,
      "start": 0.0003,
      "duration": 0.1908,
      "velocity": 94,
      "chip": "ym2612"
    },
    {
      "channel": 1,
      "note": 77,
      "start": 0.0184,
      "duration": 0.1909,
      "velocity": 94,
      "chip": "ym2612"
    },
    {
      "channel": 2,
      "note": 77,
      "start": 0.0549,
      "duration": 0.2183,
      "velocity": 94,
      "chip": "ym2612"
    },
    {
      "channel": 0,
      "note": 79,
      "start": 0.2188,
      "duration": 0.191,
      "velocity": 94,
      "chip": "ym2612"
    },
    {
      "channel": 1,
      "note": 79,
      "start": 0.237,
      "duration": 0.1909,
      "velocity": 94,
      "chip": "ym2612"
    },
    {
      "channel": 2,
      "note": 79,
      "start": 0.2735,
      "duration": 0.1908,
      "velocity": 94,
      "chip": "ym2612"
    },
    {
      "channel": 0,
      "note": 81,
      "start": 0.4101,
      "duration": 0.1729,
      "velocity": 94,
      "chip": "ym2612"
    },
    {
      "channel": 1,
      "note": 81,
      "start": 0.4283,
      "duration": 0.1727,
      "velocity": 94,
      "chip": "ym2612"
    },
    {
      "channel": 2,
      "note": 81,
      "start": 0.4648,
      "duration": 0.1909,
      "velocity": 94,
      "chip": "ym2612"
    },
    {
      "channel": 0,
      "note": 79,
      "start": 0.6014,
      "duration": 0.0542,
      "velocity": 94,
      "chip": "ym2612"
    },
    {
      "channel": 1,
      "note": 79,
      "start": 0.6195,
      "duration": 0.0543,
      "velocity": 94,
      "chip": "ym2612"
    },
    {
      "channel": 0,
      "note": 81,
      "start": 0.6562,
      "duration": 0.0542,
      "velocity": 94,
      "chip": "ym2612"
    },
    {
      "channel": 2,
      "note": 79,
      "start": 0.6566,
      "duration": 0.0537,
      "velocity": 94,
      "chip": "ym2612"
    },
    {
      "channel": 1,
      "note": 81,
      "start": 0.6743,
      "duration": 0.0542,
      "velocity": 94,
      "chip": "ym2612"
    },
    {
      "channel": 0,
      "note": 79,
      "start": 0.7108,
      "duration": 0.1635,
      "velocity": 94,
      "chip": "ym2612"
    },
    {
      "channel": 2,
      "note": 81,
      "start": 0.7112,
      "duration": 0.0537,
      "velocity": 94,
      "chip": "ym2612"
    },
    {
      "channel": 1,
      "note": 79,
      "start": 0.7289,
      "duration": 0.1635,
      "velocity": 94,
      "chip": "ym2612"
    },
    {
      "channel": 2,
      "note": 79,
      "start": 0.7654,
      "duration": 0.1634,
      "velocity": 94,
      "chip": "ym2612"
    },
    {
      "channel": 0,
      "note": 77,
      "start": 0.8747,
      "duration": 0.1636,
      "velocity": 94,
      "chip": "ym2612"
    },
    {
      "channel": 1,
      "note": 77,
      "start": 0.8932,
      "duration": 0.1632,
      "velocity": 94,
      "chip": "ym2612"
    },
    {
      "channel": 2,
      "note": 77,
      "start": 0.9293,
      "duration": 0.2182,
      "velocity": 94,
      "chip": "ym2612"
    },
    {
      "channel": 0,
      "note": 87,
      "start": 1.0934,
      "duration": 0.1725,
      "velocity": 94,
      "chip": "ym2612"
    },
    {
      "channel": 5,
      "note": 48,
      "start": 1.0939,
      "duration": 1.2968,
      "velocity": 89,
      "chip": "ym2612"
    },
    {
      "channel": 1,
      "note": 87,
      "start": 1.1114,
      "duration": 0.1727,
      "velocity": 94,
      "chip": "ym2612"
    },
    {
      "channel": 2,
      "note": 87,
      "start": 1.1479,
      "duration": 0.2181,
      "velocity": 94,
      "chip": "ym2612"
    },
    {
      "channel": 0,
      "note": 78,
      "start": 1.3118,
      "duration": 0.2182,
      "velocity": 94,
      "chip": "ym2612"
    },
    {
      "channel": 1,
      "note": 78,
      "start": 1.33,
      "duration": 0.2183,
      "velocity": 94,
      "chip": "ym2612"
    },
    {
      "channel": 2,
      "note": 78,
      "start": 1.3665,
      "duration": 0.2181,
      "velocity": 94,
      "chip": "ym2612"
    },
    {
      "channel": 0,
      "note": 79,
      "start": 1.5305,
      "duration": 0.2182,
      "velocity": 94,
      "chip": "ym2612"
    },
    {
      "channel": 3,
      "note": 82,
      "start": 1.5309,
      "duration": 0.778,
      "velocity": 89,
      "chip": "ym2612"
    },
    {
      "channel": 4,
      "note": 75,
      "start": 1.5314,
      "duration": 0.7864,
      "velocity": 89,
      "chip": "ym2612"
    },
    {
      "channel": 1,
      "note": 79,
      "start": 1.5487,
      "duration": 0.2182,
      "velocity": 94,
      "chip": "ym2612"
    },
    {
      "channel": 2,
      "note": 79,
      "start": 1.5851,
      "duration": 0.2181,
      "velocity": 94,
      "chip": "ym2612"
    },
    {
      "channel": 0,
      "note": 84,
      "start": 1.749,
      "duration": 0.2182,
      "velocity": 94,
      "chip": "ym2612"
    },
    {
      "channel": 1,
      "note": 84,
      "start": 1.7672,
      "duration": 0.2182,
      "velocity": 94,
      "chip": "ym2612"
    },
    {
      "channel": 2,
      "note": 84,
      "start": 1.8037,
      "duration": 0.2181,
      "velocity": 94,
      "chip": "ym2612"
    },
    {
      "channel": 0,
      "note": 87,
      "start": 1.9676,
      "duration": 0.2182,
      "velocity": 94,
      "chip": "ym2612"
    },
    {
      "channel": 1,
      "note": 87,
      "start": 1.986,
      "duration": 0.2181,
      "velocity": 94,
      "chip": "ym2612"
    },
    {
      "channel": 2,
      "note": 87,
      "start": 2.0223,
      "duration": 0.2227,
      "velocity": 94,
      "chip": "ym2612"
    },
    {
      "channel": 0,
      "note": 91,
      "start": 2.1862,
      "duration": 0.2228,
      "velocity": 94,
      "chip": "ym2612"
    },
    {
      "channel": 1,
      "note": 91,
      "start": 2.2044,
      "duration": 0.2228,
      "velocity": 94,
      "chip": "ym2612"
    },
    {
      "channel": 2,
      "note": 91,
      "start": 2.2455,
      "duration": 0.2181,
      "velocity": 94,
      "chip": "ym2612"
    },
    {
      "channel": 0,
      "note": 94,
      "start": 2.4094,
      "duration": 0.4094,
      "velocity": 94,
      "chip": "ym2612"
    },
    {
      "channel": 5,
      "note": 53,
      "start": 2.4099,
      "duration": 1.2923,
      "velocity": 89,
      "chip": "ym2612"
    },
    {
      "channel": 1,
      "note": 94,
      "start": 2.4276,
      "duration": 0.4095,
      "velocity": 94,
      "chip": "ym2612"
    },
    {
      "channel": 2,
      "note": 94,
      "start": 2.464,
      "duration": 0.4368,
      "velocity": 94,
      "chip": "ym2612"
    },
    {
      "channel": 0,
      "note": 93,
      "start": 2.8465,
      "duration": 0.6009,
      "velocity": 94,
      "chip": "ym2612"
    },
    {
      "channel": 3,
      "note": 81,
      "start": 2.8469,
      "duration": 0.4364,
      "velocity": 89,
      "chip": "ym2612"
    },
    {
      "channel": 4,
      "note": 75,
      "start": 2.8474,
      "duration": 0.8457,
      "velocity": 89,
      "chip": "ym2612"
    },
    {
      "channel": 1,
      "note": 93,
      "start": 2.8647,
      "duration": 0.6008,
      "velocity": 94,
      "chip": "ym2612"
    },
    {
      "channel": 2,
      "note": 93,
      "start": 2.9012,
      "duration": 0.6189,
      "velocity": 94,
      "chip": "ym2612"
    },
    {
      "channel": 3,
      "note": 77,
      "start": 3.2838,
      "duration": 0.4367,
      "velocity": 89,
      "chip": "ym2612"
    },
    {
      "channel": 0,
      "note": 89,
      "start": 3.4659,
      "duration": 0.1908,
      "velocity": 94,
      "chip": "ym2612"
    },
    {
      "channel": 1,
      "note": 89,
      "start": 3.484,
      "duration": 0.1909,
      "velocity": 94,
      "chip": "ym2612"
    },
    {
      "channel": 2,
      "note": 89,
      "start": 3.5206,
      "duration": 0.2546,
      "velocity": 94,
      "chip": "ym2612"
    },
    {
      "channel": 0,
      "note": 91,
      "start": 3.7209,
      "duration": 0.1271,
      "velocity": 94,
      "chip": "ym2612"
    },
    {
      "channel": 5,
      "note": 46,
      "start": 3.7214,
      "duration": 1.297,
      "velocity": 89,
      "chip": "ym2612"
    },
    {
      "channel": 1,
      "note": 91,
      "start": 3.739,
      "duration": 0.1272,
      "velocity": 94,
      "chip": "ym2612"
    },
    {
      "channel": 2,
      "note": 91,
      "start": 3.7756,
      "duration": 0.1273,
      "velocity": 94,
      "chip": "ym2612"
    },
    {
      "channel": 0,
      "note": 93,
      "start": 3.8484,
      "duration": 0.1271,
      "velocity": 94,
      "chip": "ym2612"
    },
    {
      "channel": 1,
      "note": 93,
      "start": 3.8667,
      "duration": 0.1271,
      "velocity": 94,
      "chip": "ym2612"
    },
    {
      "channel": 2,
      "note": 93,
      "start": 3.9033,
      "duration": 0.1268,
      "velocity": 94,
      "chip": "ym2612"
    },
    {
      "channel": 0,
      "note": 91,
      "start": 3.9759,
      "duration": 0.1453,
      "velocity": 94,
      "chip": "ym2612"
    },
    {
      "channel": 1,
      "note": 91,
      "start": 3.9941,
      "duration": 0.1453,
      "velocity": 94,
      "chip": "ym2612"
    },
    {
      "channel": 2,
      "note": 91,
      "start": 4.0306,
      "duration": 0.1727,
      "velocity": 94,
      "chip": "ym2612"
    },
    {
      "channel": 0,
      "note": 86,
      "start": 4.1489,
      "duration": 0.7607,
      "velocity": 94,
      "chip": "ym2612"
    },
    {
      "channel": 3,
      "note": 84,
      "start": 4.158,
      "duration": 0.4368,
      "velocity": 89,
      "chip": "ym2612"
    },
    {
      "channel": 4,
      "note": 77,
      "start": 4.1585,
      "duration": 0.7688,
      "velocity": 89,
      "chip": "ym2612"
    },
    {
      "channel": 1,
      "note": 86,
      "start": 4.1671,
      "duration": 0.7603,
      "velocity": 94,
      "chip": "ym2612"
    },
    {
      "channel": 2,
      "note": 86,
      "start": 4.2038,
      "duration": 1.1061,
      "velocity": 94,
      "chip": "ym2612"
    },
    {
      "channel": 3,
      "note": 81,
      "start": 4.5953,
      "duration": 0.4413,
      "velocity": 89,
      "chip": "ym2612"
    },
    {
      "channel": 3,
      "note": 84,
      "start": 5.0371,
      "duration": 0.437,
      "velocity": 89,
      "chip": "ym2612"
    },
    {
      "channel": 4,
      "note": 77,
      "start": 5.0376,
      "duration": 0.4089,
      "velocity": 89,
      "chip": "ym2612"
    },
    {
      "channel": 5,
      "note": 55,
      "start": 5.038,
      "duration": 1.3101,
      "velocity": 89,
      "chip": "ym2612"
    },
    {
      "channel": 0,
      "note": 89,
      "start": 5.2555,
      "duration": 0.1636,
      "velocity": 94,
      "chip": "ym2612"
    },
    {
      "channel": 1,
      "note": 89,
      "start": 5.2737,
      "duration": 0.1636,
      "velocity": 94,
      "chip": "ym2612"
    },
    {
      "channel": 2,
      "note": 89,
      "start": 5.3103,
      "duration": 0.1999,
      "velocity": 94,
      "chip": "ym2612"
    },
    {
      "channel": 0,
      "note": 79,
      "start": 5.4559,
      "duration": 0.2,
      "velocity": 94,
      "chip": "ym2612"
    },
    {
      "channel": 1,
      "note": 79,
      "start": 5.4745,
      "duration": 0.1997,
      "velocity": 94,
      "chip": "ym2612"
    },
    {
      "channel": 3,
      "note": 82,
      "start": 5.475,
      "duration": 0.7366,
      "velocity": 89,
      "chip": "ym2612"
    },
    {
      "channel": 2,
      "note": 79,
      "start": 5.5107,
      "duration": 0.209,
      "velocity": 94,
      "chip": "ym2612"
    },
    {
      "channel": 0,
      "note": 81,
      "start": 5.6655,
      "duration": 0.2363,
      "velocity": 94,
      "chip": "ym2612"
    },
    {
      "channel": 1,
      "note": 81,
      "start": 5.6836,
      "duration": 0.2365,
      "velocity": 94,
      "chip": "ym2612"
    },
    {
      "channel": 2,
      "note": 81,
      "start": 5.7201,
      "duration": 0.2363,
      "velocity": 94,
      "chip": "ym2612"
    },
    {
      "channel": 0,
      "note": 82,
      "start": 5.9023,
      "duration": 0.2091,
      "velocity": 94,
      "chip": "ym2612"
    },
    {
      "channel": 1,
      "note": 82,
      "start": 5.9205,
      "duration": 0.209,
      "velocity": 94,
      "chip": "ym2612"
    },
    {
      "channel": 2,
      "note": 82,
      "start": 5.9569,
      "duration": 0.209,
      "velocity": 94,
      "chip": "ym2612"
    },
    {
      "channel": 0,
      "note": 79,
      "start": 6.1117,
      "duration": 0.2365,
      "velocity": 94,
      "chip": "ym2612"
    },
    {
      "channel": 1,
      "note": 79,
      "start": 6.13,
      "duration": 0.2364,
      "velocity": 94,
      "chip": "ym2612"
    },
    {
      "channel": 2,
      "note": 79,
      "start": 6.1664,
      "duration": 0.2366,
      "velocity": 94,
      "chip": "ym2612"
    },
    {
      "channel": 0,
      "note": 84,
      "start": 6.3487,
      "duration": 0.3365,
      "velocity": 94,
      "chip": "ym2612"
    },
    {
      "channel": 5,
      "note": 48,
      "start": 6.3492,
      "duration": 1.2969,
      "velocity": 89,
      "chip": "ym2612"
    },
    {
      "channel": 1,
      "note": 84,
      "start": 6.3668,
      "duration": 0.3366,
      "velocity": 94,
      "chip": "ym2612"
    },
    {
      "channel": 2,
      "note": 84,
      "start": 6.4035,
      "duration": 0.4001,
      "velocity": 94,
      "chip": "ym2612"
    },
    {
      "channel": 0,
      "note": 86,
      "start": 6.7493,
      "duration": 0.6964,
      "velocity": 94,
      "chip": "ym2612"
    },
    {
      "channel": 1,
      "note": 86,
      "start": 6.7675,
      "duration": 0.6964,
      "velocity": 94,
      "chip": "ym2612"
    },
    {
      "channel": 3,
      "note": 82,
      "start": 6.7857,
      "duration": 0.8785,
      "velocity": 89,
      "chip": "ym2612"
    },
    {
      "channel": 4,
      "note": 75,
      "start": 6.7862,
      "duration": 0.9054,
      "velocity": 89,
      "chip": "ym2612"
    },
    {
      "channel": 2,
      "note": 86,
      "start": 6.8041,
      "duration": 0.6962,
      "velocity": 94,
      "chip": "ym2612"
    },
    {
      "channel": 0,
      "note": 82,
      "start": 7.4461,
      "duration": 0.2183,
      "velocity": 94,
      "chip": "ym2612"
    },
    {
      "channel": 1,
      "note": 82,
      "start": 7.4643,
      "duration": 0.2182,
      "velocity": 94,
      "chip": "ym2612"
    },
    {
      "channel": 2,
      "note": 82,
      "start": 7.5007,
      "duration": 0.2181,
      "velocity": 94,
      "chip": "ym2612"
    },
    {
      "channel": 0,
      "note": 84,
      "start": 7.6647,
      "duration": 0.3365,
      "velocity": 94,
      "chip": "ym2612"
    },
    {
      "channel": 5,
      "note": 53,
      "start": 7.6652,
      "duration": 1.2924,
      "velocity": 89,
      "chip": "ym2612"
    },
    {
      "channel": 1,
      "note": 84,
      "start": 7.6831,
      "duration": 0.3363,
      "velocity": 94,
      "chip": "ym2612"
    },
    {
      "channel": 2,
      "note": 84,
      "start": 7.7193,
      "duration": 0.4094,
      "velocity": 94,
      "chip": "ym2612"
    },
    {
      "channel": 0,
      "note": 86,
      "start": 8.0745,
      "duration": 0.6372,
      "velocity": 94,
      "chip": "ym2612"
    },
    {
      "channel": 1,
      "note": 86,
      "start": 8.0929,
      "duration": 0.637,
      "velocity": 94,
      "chip": "ym2612"
    },
    {
      "channel": 3,
      "note": 82,
      "start": 8.1018,
      "duration": 0.4368,
      "velocity": 89,
      "chip": "ym2612"
    },
    {
      "channel": 4,
      "note": 75,
      "start": 8.1023,
      "duration": 0.8371,
      "velocity": 89,
      "chip": "ym2612"
    },
    {
      "channel": 2,
      "note": 86,
      "start": 8.1292,
      "duration": 0.6371,
      "velocity": 94,
      "chip": "ym2612"
    },
    {
      "channel": 3,
      "note": 81,
      "start": 8.5391,
      "duration": 0.4367,
      "velocity": 89,
      "chip": "ym2612"
    },
    {
      "channel": 0,
      "note": 81,
      "start": 8.7121,
      "duration": 0.2364,
      "velocity": 94,
      "chip": "ym2612"
    },
    {
      "channel": 1,
      "note": 81,
      "start": 8.7303,
      "duration": 0.2363,
      "velocity": 94,
      "chip": "ym2612"
    },
    {
      "channel": 2,
      "note": 81,
      "start": 8.7668,
      "duration": 0.2637,
      "velocity": 94,
      "chip": "ym2612"
    },
    {
      "channel": 0,
      "note": 79,
      "start": 8.9762,
      "duration": 1.1882,
      "velocity": 94,
      "chip": "ym2612"
    },
    {
      "channel": 5,
      "note": 46,
      "start": 8.9767,
      "duration": 1.297,
      "velocity": 89,
      "chip": "ym2612"
    },
    {
      "channel": 1,
      "note": 79,
      "start": 8.9944,
      "duration": 1.1882,
      "velocity": 94,
      "chip": "ym2612"
    },
    {
      "channel": 2,
      "note": 79,
      "start": 9.0309,
      "duration": 1.5388,
      "velocity": 94,
      "chip": "ym2612"
    },
    {
      "channel": 3,
      "note": 79,
      "start": 9.4134,
      "duration": 0.4367,
      "velocity": 89,
      "chip": "ym2612"
    },
    {
      "channel": 4,
      "note": 74,
      "start": 9.4139,
      "duration": 0.5046,
      "velocity": 89,
      "chip": "ym2612"
    },
    {
      "channel": 3,
      "note": 77,
      "start": 9.8507,
      "duration": 0.3684,
      "velocity": 89,
      "chip": "ym2612"
    },
    {
      "channel": 3,
      "note": 84,
      "start": 10.2923,
      "duration": 0.4414,
      "velocity": 89,
      "chip": "ym2612"
    },
    {
      "channel": 4,
      "note": 77,
      "start": 10.293,
      "duration": 1.233,
      "velocity": 89,
      "chip": "ym2612"
    },
    {
      "channel": 5,
      "note": 55,
      "start": 10.2935,
      "duration": 1.2963,
      "velocity": 89,
      "chip": "ym2612"
    },
    {
      "channel": 0,
      "note": 77,
      "start": 10.5154,
      "duration": 0.2183,
      "velocity": 94,
      "chip": "ym2612"
    },
    {
      "channel": 1,
      "note": 77,
      "start": 10.5337,
      "duration": 0.2181,
      "velocity": 94,
      "chip": "ym2612"
    },
    {
      "channel": 2,
      "note": 77,
      "start": 10.5702,
      "duration": 0.2181,
      "velocity": 94,
      "chip": "ym2612"
    },
    {
      "channel": 0,
      "note": 79,
      "start": 10.7342,
      "duration": 0.2181,
      "velocity": 94,
      "chip": "ym2612"
    },
    {
      "channel": 3,
      "note": 83,
      "start": 10.7347,
      "duration": 0.8187,
      "velocity": 89,
      "chip": "ym2612"
    },
    {
      "channel": 1,
      "note": 79,
      "start": 10.7523,
      "duration": 0.2182,
      "velocity": 94,
      "chip": "ym2612"
    },
    {
      "channel": 2,
      "note": 79,
      "start": 10.7887,
      "duration": 0.2181,
      "velocity": 94,
      "chip": "ym2612"
    },
    {
      "channel": 0,
      "note": 81,
      "start": 10.9529,
      "duration": 0.1269,
      "velocity": 94,
      "chip": "ym2612"
    },
    {
      "channel": 1,
      "note": 81,
      "start": 10.9709,
      "duration": 0.1272,
      "velocity": 94,
      "chip": "ym2612"
    },
    {
      "channel": 2,
      "note": 81,
      "start": 11.0074,
      "duration": 0.1543,
      "velocity": 94,
      "chip": "ym2612"
    },
    {
      "channel": 0,
      "note": 79,
      "start": 11.1074,
      "duration": 0.0544,
      "velocity": 94,
      "chip": "ym2612"
    },
    {
      "channel": 1,
      "note": 79,
      "start": 11.1256,
      "duration": 0.0543,
      "velocity": 94,
      "chip": "ym2612"
    },
    {
      "channel": 0,
      "note": 81,
      "start": 11.1623,
      "duration": 0.0542,
      "velocity": 94,
      "chip": "ym2612"
    },
    {
      "channel": 2,
      "note": 79,
      "start": 11.163,
      "duration": 0.0534,
      "velocity": 94,
      "chip": "ym2612"
    },
    {
      "channel": 1,
      "note": 81,
      "start": 11.1804,
      "duration": 0.0542,
      "velocity": 94,
      "chip": "ym2612"
    },
    {
      "channel": 0,
      "note": 79,
      "start": 11.2169,
      "duration": 0.1636,
      "velocity": 94,
      "chip": "ym2612"
    },
    {
      "channel": 2,
      "note": 81,
      "start": 11.2173,
      "duration": 0.0537,
      "velocity": 94,
      "chip": "ym2612"
    },
    {
      "channel": 1,
      "note": 79,
      "start": 11.235,
      "duration": 0.1636,
      "velocity": 94,
      "chip": "ym2612"
    },
    {
      "channel": 2,
      "note": 79,
      "start": 11.2715,
      "duration": 0.1726,
      "velocity": 94,
      "chip": "ym2612"
    },
    {
      "channel": 0,
      "note": 77,
      "start": 11.3898,
      "duration": 0.1545,
      "velocity": 94,
      "chip": "ym2612"
    },
    {
      "channel": 1,
      "note": 77,
      "start": 11.408,
      "duration": 0.1545,
      "velocity": 94,
      "chip": "ym2612"
    },
    {
      "channel": 2,
      "note": 77,
      "start": 11.4445,
      "duration": 0.2185,
      "velocity": 94,
      "chip": "ym2612"
    },
    {
      "channel": 0,
      "note": 87,
      "start": 11.6083,
      "duration": 0.1909,
      "velocity": 94,
      "chip": "ym2612"
    },
    {
      "channel": 5,
      "note": 48,
      "start": 11.6088,
      "duration": 1.2971,
      "velocity": 89,
      "chip": "ym2612"
    },
    {
      "channel": 1,
      "note": 87,
      "start": 11.6266,
      "duration": 0.1909,
      "velocity": 94,
      "chip": "ym2612"
    },
    {
      "channel": 2,
      "note": 87,
      "start": 11.6634,
      "duration": 0.2178,
      "velocity": 94,
      "chip": "ym2612"
    },
    {
      "channel": 0,
      "note": 78,
      "start": 11.827,
      "duration": 0.1818,
      "velocity": 94,
      "chip": "ym2612"
    },
    {
      "channel": 1,
      "note": 78,
      "start": 11.8452,
      "duration": 0.1818,
      "velocity": 94,
      "chip": "ym2612"
    },
    {
      "channel": 2,
      "note": 78,
      "start": 11.8817,
      "duration": 0.2181,
      "velocity": 94,
      "chip": "ym2612"
    },
    {
      "channel": 0,
      "note": 79,
      "start": 12.0456,
      "duration": 0.182,
      "velocity": 94,
      "chip": "ym2612"
    },
    {
      "channel": 3,
      "note": 82,
      "start": 12.0461,
      "duration": 0.8415,
      "velocity": 89,
      "chip": "ym2612"
    },
    {
      "channel": 4,
      "note": 75,
      "start": 12.0466,
      "duration": 0.8502,
      "velocity": 89,
      "chip": "ym2612"
    },
    {
      "channel": 1,
      "note": 79,
      "start": 12.0638,
      "duration": 0.1818,
      "velocity": 94,
      "chip": "ym2612"
    },
    {
      "channel": 2,
      "note": 79,
      "start": 12.1003,
      "duration": 0.2181,
      "velocity": 94,
      "chip": "ym2612"
    },
    {
      "channel": 0,
      "note": 84,
      "start": 12.2641,
      "duration": 0.2228,
      "velocity": 94,
      "chip": "ym2612"
    },
    {
      "channel": 1,
      "note": 84,
      "start": 12.2824,
      "duration": 0.2229,
      "velocity": 94,
      "chip": "ym2612"
    },
    {
      "channel": 2,
      "note": 84,
      "start": 12.3189,
      "duration": 0.2227,
      "velocity": 94,
      "chip": "ym2612"
    },
    {
      "channel": 0,
      "note": 87,
      "start": 12.4873,
      "duration": 0.2091,
      "velocity": 94,
      "chip": "ym2612"
    },
    {
      "channel": 1,
      "note": 87,
      "start": 12.5056,
      "duration": 0.209,
      "velocity": 94,
      "chip": "ym2612"
    },
    {
      "channel": 2,
      "note": 87,
      "start": 12.542,
      "duration": 0.2181,
      "velocity": 94,
      "chip": "ym2612"
    },
    {
      "channel": 0,
      "note": 91,
      "start": 12.7059,
      "duration": 0.2091,
      "velocity": 94,
      "chip": "ym2612"
    },
    {
      "channel": 1,
      "note": 91,
      "start": 12.7241,
      "duration": 0.2091,
      "velocity": 94,
      "chip": "ym2612"
    },
    {
      "channel": 2,
      "note": 91,
      "start": 12.7606,
      "duration": 0.2181,
      "velocity": 94,
      "chip": "ym2612"
    },
    {
      "channel": 0,
      "note": 94,
      "start": 12.9245,
      "duration": 0.3275,
      "velocity": 94,
      "chip": "ym2612"
    },
    {
      "channel": 5,
      "note": 53,
      "start": 12.9249,
      "duration": 1.2925,
      "velocity": 89,
      "chip": "ym2612"
    },
    {
      "channel": 1,
      "note": 94,
      "start": 12.943,
      "duration": 0.3272,
      "velocity": 94,
      "chip": "ym2612"
    },
    {
      "channel": 2,
      "note": 94,
      "start": 12.9792,
      "duration": 0.4367,
      "velocity": 94,
      "chip": "ym2612"
    },
    {
      "channel": 0,
      "note": 93,
      "start": 13.3617,
      "duration": 0.6099,
      "velocity": 94,
      "chip": "ym2612"
    },
    {
      "channel": 3,
      "note": 81,
      "start": 13.3621,
      "duration": 0.4363,
      "velocity": 89,
      "chip": "ym2612"
    },
    {
      "channel": 4,
      "note": 72,
      "start": 13.3629,
      "duration": 0.4629,
      "velocity": 89,
      "chip": "ym2612"
    },
    {
      "channel": 1,
      "note": 93,
      "start": 13.3799,
      "duration": 0.6099,
      "velocity": 94,
      "chip": "ym2612"
    },
    {
      "channel": 2,
      "note": 93,
      "start": 13.4165,
      "duration": 0.637,
      "velocity": 94,
      "chip": "ym2612"
    },
    {
      "channel": 3,
      "note": 73,
      "start": 13.799,
      "duration": 0.4276,
      "velocity": 89,
      "chip": "ym2612"
    },
    {
      "channel": 0,
      "note": 89,
      "start": 13.9992,
      "duration": 0.2,
      "velocity": 94,
      "chip": "ym2612"
    },
    {
      "channel": 1,
      "note": 89,
      "start": 14.0174,
      "duration": 0.2001,
      "velocity": 94,
      "chip": "ym2612"
    },
    {
      "channel": 2,
      "note": 89,
      "start": 14.054,
      "duration": 0.2363,
      "velocity": 94,
      "chip": "ym2612"
    },
    {
      "channel": 0,
      "note": 91,
      "start": 14.236,
      "duration": 0.1454,
      "velocity": 94,
      "chip": "ym2612"
    },
    {
      "channel": 5,
      "note": 46,
      "start": 14.2365,
      "duration": 1.2974,
      "velocity": 89,
      "chip": "ym2612"
    },
    {
      "channel": 1,
      "note": 91,
      "start": 14.2542,
      "duration": 0.1454,
      "velocity": 94,
      "chip": "ym2612"
    },
    {
      "channel": 2,
      "note": 91,
      "start": 14.2908,
      "duration": 0.1453,
      "velocity": 94,
      "chip": "ym2612"
    },
    {
      "channel": 0,
      "note": 93,
      "start": 14.3818,
      "duration": 0.1453,
      "velocity": 94,
      "chip": "ym2612"
    },
    {
      "channel": 1,
      "note": 93,
      "start": 14.4001,
      "duration": 0.1454,
      "velocity": 94,
      "chip": "ym2612"
    },
    {
      "channel": 2,
      "note": 93,
      "start": 14.4365,
      "duration": 0.1453,
      "velocity": 94,
      "chip": "ym2612"
    },
    {
      "channel": 0,
      "note": 91,
      "start": 14.5276,
      "duration": 0.1362,
      "velocity": 94,
      "chip": "ym2612"
    },
    {
      "channel": 1,
      "note": 91,
      "start": 14.5459,
      "duration": 0.1361,
      "velocity": 94,
      "chip": "ym2612"
    },
    {
      "channel": 2,
      "note": 91,
      "start": 14.5822,
      "duration": 0.1453,
      "velocity": 94,
      "chip": "ym2612"
    },
    {
      "channel": 0,
      "note": 86,
      "start": 14.6734,
      "duration": 0.76,
      "velocity": 94,
      "chip": "ym2612"
    },
    {
      "channel": 3,
      "note": 77,
      "start": 14.6739,
      "duration": 0.4407,
      "velocity": 89,
      "chip": "ym2612"
    },
    {
      "channel": 4,
      "note": 74,
      "start": 14.6744,
      "duration": 0.8685,
      "velocity": 89,
      "chip": "ym2612"
    },
    {
      "channel": 1,
      "note": 86,
      "start": 14.6914,
      "duration": 0.7602,
      "velocity": 94,
      "chip": "ym2612"
    },
    {
      "channel": 2,
      "note": 86,
      "start": 14.7279,
      "duration": 1.0971,
      "velocity": 94,
      "chip": "ym2612"
    },
    {
      "channel": 3,
      "note": 81,
      "start": 15.1151,
      "duration": 0.4367,
      "velocity": 89,
      "chip": "ym2612"
    },
    {
      "channel": 5,
      "note": 55,
      "start": 15.5522,
      "duration": 1.2929,
      "velocity": 89,
      "chip": "ym2612"
    },
    {
      "channel": 0,
      "note": 89,
      "start": 15.7707,
      "duration": 0.1727,
      "velocity": 94,
      "chip": "ym2612"
    },
    {
      "channel": 1,
      "note": 89,
      "start": 15.7889,
      "duration": 0.1727,
      "velocity": 94,
      "chip": "ym2612"
    },
    {
      "channel": 2,
      "note": 89,
      "start": 15.8256,
      "duration": 0.218,
      "velocity": 94,
      "chip": "ym2612"
    },
    {
      "channel": 0,
      "note": 79,
      "start": 15.9893,
      "duration": 0.1909,
      "velocity": 94,
      "chip": "ym2612"
    },
    {
      "channel": 3,
      "note": 82,
      "start": 15.9898,
      "duration": 0.7642,
      "velocity": 89,
      "chip": "ym2612"
    },
    {
      "channel": 4,
      "note": 77,
      "start": 15.9903,
      "duration": 0.7639,
      "velocity": 89,
      "chip": "ym2612"
    },
    {
      "channel": 1,
      "note": 79,
      "start": 16.0076,
      "duration": 0.191,
      "velocity": 94,
      "chip": "ym2612"
    },
    {
      "channel": 2,
      "note": 79,
      "start": 16.0441,
      "duration": 0.2181,
      "velocity": 94,
      "chip": "ym2612"
    },
    {
      "channel": 0,
      "note": 81,
      "start": 16.2079,
      "duration": 0.2183,
      "velocity": 94,
      "chip": "ym2612"
    },
    {
      "channel": 1,
      "note": 81,
      "start": 16.2261,
      "duration": 0.2183,
      "velocity": 94,
      "chip": "ym2612"
    },
    {
      "channel": 2,
      "note": 81,
      "start": 16.2629,
      "duration": 0.218,
      "velocity": 94,
      "chip": "ym2612"
    },
    {
      "channel": 0,
      "note": 82,
      "start": 16.4266,
      "duration": 0.2182,
      "velocity": 94,
      "chip": "ym2612"
    },
    {
      "channel": 1,
      "note": 82,
      "start": 16.4448,
      "duration": 0.2183,
      "velocity": 94,
      "chip": "ym2612"
    },
    {
      "channel": 2,
      "note": 82,
      "start": 16.4814,
      "duration": 0.218,
      "velocity": 94,
      "chip": "ym2612"
    },
    {
      "channel": 0,
      "note": 79,
      "start": 16.6452,
      "duration": 0.2182,
      "velocity": 94,
      "chip": "ym2612"
    },
    {
      "channel": 1,
      "note": 79,
      "start": 16.6635,
      "duration": 0.2181,
      "velocity": 94,
      "chip": "ym2612"
    },
    {
      "channel": 2,
      "note": 79,
      "start": 16.6998,
      "duration": 0.2181,
      "velocity": 94,
      "chip": "ym2612"
    },
    {
      "channel": 0,
      "note": 84,
      "start": 16.8638,
      "duration": 0.3456,
      "velocity": 94,
      "chip": "ym2612"
    },
    {
      "channel": 5,
      "note": 48,
      "start": 16.8643,
      "duration": 1.297,
      "velocity": 89,
      "chip": "ym2612"
    },
    {
      "channel": 1,
      "note": 84,
      "start": 16.882,
      "duration": 0.3456,
      "velocity": 94,
      "chip": "ym2612"
    },
    {
      "channel": 2,
      "note": 84,
      "start": 16.9184,
      "duration": 0.4367,
      "velocity": 94,
      "chip": "ym2612"
    },
    {
      "channel": 0,
      "note": 86,
      "start": 17.3009,
      "duration": 0.6235,
      "velocity": 94,
      "chip": "ym2612"
    },
    {
      "channel": 3,
      "note": 82,
      "start": 17.3013,
      "duration": 0.8417,
      "velocity": 89,
      "chip": "ym2612"
    },
    {
      "channel": 4,
      "note": 75,
      "start": 17.3018,
      "duration": 0.8503,
      "velocity": 89,
      "chip": "ym2612"
    },
    {
      "channel": 1,
      "note": 86,
      "start": 17.3191,
      "duration": 0.6238,
      "velocity": 94,
      "chip": "ym2612"
    },
    {
      "channel": 2,
      "note": 86,
      "start": 17.3556,
      "duration": 0.6508,
      "velocity": 94,
      "chip": "ym2612"
    },
    {
      "channel": 0,
      "note": 82,
      "start": 17.9521,
      "duration": 0.2091,
      "velocity": 94,
      "chip": "ym2612"
    },
    {
      "channel": 1,
      "note": 82,
      "start": 17.9703,
      "duration": 0.2091,
      "velocity": 94,
      "chip": "ym2612"
    },
    {
      "channel": 2,
      "note": 82,
      "start": 18.0068,
      "duration": 0.2273,
      "velocity": 94,
      "chip": "ym2612"
    },
    {
      "channel": 0,
      "note": 84,
      "start": 18.1799,
      "duration": 0.3092,
      "velocity": 94,
      "chip": "ym2612"
    },
    {
      "channel": 5,
      "note": 50,
      "start": 18.1804,
      "duration": 1.2927,
      "velocity": 89,
      "chip": "ym2612"
    },
    {
      "channel": 1,
      "note": 84,
      "start": 18.198,
      "duration": 0.3093,
      "velocity": 94,
      "chip": "ym2612"
    },
    {
      "channel": 2,
      "note": 84,
      "start": 18.2345,
      "duration": 0.4185,
      "velocity": 94,
      "chip": "ym2612"
    },
    {
      "channel": 0,
      "note": 86,
      "start": 18.5988,
      "duration": 0.5826,
      "velocity": 94,
      "chip": "ym2612"
    },
    {
      "channel": 1,
      "note": 86,
      "start": 18.617,
      "duration": 0.5826,
      "velocity": 94,
      "chip": "ym2612"
    },
    {
      "channel": 3,
      "note": 82,
      "start": 18.6175,
      "duration": 0.3999,
      "velocity": 89,
      "chip": "ym2612"
    },
    {
      "channel": 4,
      "note": 72,
      "start": 18.618,
      "duration": 0.7728,
      "velocity": 89,
      "chip": "ym2612"
    },
    {
      "channel": 2,
      "note": 86,
      "start": 18.6535,
      "duration": 0.6462,
      "velocity": 94,
      "chip": "ym2612"
    },
    {
      "channel": 3,
      "note": 81,
      "start": 19.0542,
      "duration": 0.4368,
      "velocity": 89,
      "chip": "ym2612"
    },
    {
      "channel": 0,
      "note": 81,
      "start": 19.2454,
      "duration": 0.1636,
      "velocity": 94,
      "chip": "ym2612"
    },
    {
      "channel": 1,
      "note": 81,
      "start": 19.2637,
      "duration": 0.1636,
      "velocity": 94,
      "chip": "ym2612"
    },
    {
      "channel": 2,
      "note": 81,
      "start": 19.3002,
      "duration": 0.2455,
      "velocity": 94,
      "chip": "ym2612"
    },
    {
      "channel": 0,
      "note": 79,
      "start": 19.4914,
      "duration": 1.5434,
      "velocity": 94,
      "chip": "ym2612"
    },
    {
      "channel": 5,
      "note": 55,
      "start": 19.4919,
      "duration": 1.297,
      "velocity": 89,
      "chip": "ym2612"
    },
    {
      "channel": 1,
      "note": 79,
      "start": 19.5095,
      "duration": 1.5435,
      "velocity": 94,
      "chip": "ym2612"
    },
    {
      "channel": 2,
      "note": 79,
      "start": 19.5461,
      "duration": 1.9714,
      "velocity": 94,
      "chip": "ym2612"
    },
    {
      "channel": 3,
      "note": 79,
      "start": 19.9285,
      "duration": 0.4414,
      "velocity": 89,
      "chip": "ym2612"
    },
    {
      "channel": 4,
      "note": 77,
      "start": 19.929,
      "duration": 1.716,
      "velocity": 89,
      "chip": "ym2612"
    },
    {
      "channel": 3,
      "note": 81,
      "start": 20.3704,
      "duration": 0.4094,
      "velocity": 89,
      "chip": "ym2612"
    },
    {
      "channel": 3,
      "note": 84,
      "start": 20.8075,
      "duration": 0.4277,
      "velocity": 89,
      "chip": "ym2612"
    },
    {
      "channel": 3,
      "note": 83,
      "start": 21.2446,
      "duration": 0.455,
      "velocity": 89,
      "chip": "ym2612"
    },
    {
      "channel": 0,
      "note": 91,
      "start": 21.4634,
      "duration": 0.3456,
      "velocity": 94,
      "chip": "ym2612"
    },
    {
      "channel": 1,
      "note": 91,
      "start": 21.4814,
      "duration": 0.3458,
      "velocity": 94,
      "chip": "ym2612"
    },
    {
      "channel": 2,
      "note": 91,
      "start": 21.518,
      "duration": 0.4094,
      "velocity": 94,
      "chip": "ym2612"
    },
    {
      "channel": 0,
      "note": 103,
      "start": 21.8733,
      "duration": 0.1269,
      "velocity": 94,
      "chip": "ym2612"
    },
    {
      "channel": 1,
      "note": 103,
      "start": 21.8913,
      "duration": 0.1272,
      "velocity": 94,
      "chip": "ym2612"
    },
    {
      "channel": 2,
      "note": 103,
      "start": 21.9278,
      "duration": 0.2455,
      "velocity": 94,
      "chip": "ym2612"
    },
    {
      "channel": 0,
      "note": 103,
      "start": 22.119,
      "duration": 0.1272,
      "velocity": 94,
      "chip": "ym2612"
    },
    {
      "channel": 5,
      "note": 56,
      "start": 22.1195,
      "duration": 1.2971,
      "velocity": 89,
      "chip": "ym2612"
    },
    {
      "channel": 1,
      "note": 103,
      "start": 22.1372,
      "duration": 0.1272,
      "velocity": 94,
      "chip": "ym2612"
    },
    {
      "channel": 2,
      "note": 103,
      "start": 22.1737,
      "duration": 0.2181,
      "velocity": 94,
      "chip": "ym2612"
    },
    {
      "channel": 0,
      "note": 91,
      "start": 22.3377,
      "duration": 0.1454,
      "velocity": 94,
      "chip": "ym2612"
    },
    {
      "channel": 1,
      "note": 91,
      "start": 22.3558,
      "duration": 0.1454,
      "velocity": 94,
      "chip": "ym2612"
    },
    {
      "channel": 2,
      "note": 91,
      "start": 22.3923,
      "duration": 0.2181,
      "velocity": 94,
      "chip": "ym2612"
    },
    {
      "channel": 0,
      "note": 101,
      "start": 22.5562,
      "duration": 0.0862,
      "velocity": 94,
      "chip": "ym2612"
    },
    {
      "channel": 3,
      "note": 84,
      "start": 22.5567,
      "duration": 0.0539,
      "velocity": 89,
      "chip": "ym2612"
    },
    {
      "channel": 4,
      "note": 77,
      "start": 22.5571,
      "duration": 0.0943,
      "velocity": 89,
      "chip": "ym2612"
    },
    {
      "channel": 1,
      "note": 101,
      "start": 22.5744,
      "duration": 0.0862,
      "velocity": 94,
      "chip": "ym2612"
    },
    {
      "channel": 2,
      "note": 101,
      "start": 22.611,
      "duration": 0.2226,
      "velocity": 94,
      "chip": "ym2612"
    },
    {
      "channel": 0,
      "note": 89,
      "start": 22.7793,
      "duration": 0.1454,
      "velocity": 94,
      "chip": "ym2612"
    },
    {
      "channel": 1,
      "note": 89,
      "start": 22.7975,
      "duration": 0.1455,
      "velocity": 94,
      "chip": "ym2612"
    },
    {
      "channel": 2,
      "note": 89,
      "start": 22.8341,
      "duration": 0.2181,
      "velocity": 94,
      "chip": "ym2612"
    },
    {
      "channel": 0,
      "note": 99,
      "start": 22.9979,
      "duration": 0.1272,
      "velocity": 94,
      "chip": "ym2612"
    },
    {
      "channel": 3,
      "note": 84,
      "start": 22.9984,
      "duration": 0.0994,
      "velocity": 89,
      "chip": "ym2612"
    },
    {
      "channel": 4,
      "note": 77,
      "start": 22.9989,
      "duration": 0.099,
      "velocity": 89,
      "chip": "ym2612"
    },
    {
      "channel": 1,
      "note": 99,
      "start": 23.0161,
      "duration": 0.1271,
      "velocity": 94,
      "chip": "ym2612"
    },
    {
      "channel": 2,
      "note": 99,
      "start": 23.053,
      "duration": 0.2178,
      "velocity": 94,
      "chip": "ym2612"
    },
    {
      "channel": 0,
      "note": 87,
      "start": 23.2165,
      "duration": 0.1272,
      "velocity": 94,
      "chip": "ym2612"
    },
    {
      "channel": 1,
      "note": 87,
      "start": 23.2348,
      "duration": 0.1271,
      "velocity": 94,
      "chip": "ym2612"
    },
    {
      "channel": 2,
      "note": 87,
      "start": 23.2712,
      "duration": 0.2181,
      "velocity": 94,
      "chip": "ym2612"
    },
    {
      "channel": 0,
      "note": 99,
      "start": 23.4351,
      "duration": 0.118,
      "velocity": 94,
      "chip": "ym2612"
    },
    {
      "channel": 5,
      "note": 58,
      "start": 23.4356,
      "duration": 0.8553,
      "velocity": 89,
      "chip": "ym2612"
    },
    {
      "channel": 1,
      "note": 99,
      "start": 23.4534,
      "duration": 0.118,
      "velocity": 94,
      "chip": "ym2612"
    },
    {
      "channel": 2,
      "note": 99,
      "start": 23.4898,
      "duration": 0.2181,
      "velocity": 94,
      "chip": "ym2612"
    },
    {
      "channel": 0,
      "note": 88,
      "start": 23.6537,
      "duration": 0.1454,
      "velocity": 94,
      "chip": "ym2612"
    },
    {
      "channel": 1,
      "note": 88,
      "start": 23.6719,
      "duration": 0.1454,
      "velocity": 94,
      "chip": "ym2612"
    },
    {
      "channel": 2,
      "note": 88,
      "start": 23.7085,
      "duration": 0.218,
      "velocity": 94,
      "chip": "ym2612"
    },
    {
      "channel": 0,
      "note": 89,
      "start": 23.8723,
      "duration": 0.1271,
      "velocity": 94,
      "chip": "ym2612"
    },
    {
      "channel": 3,
      "note": 86,
      "start": 23.873,
      "duration": 0.0809,
      "velocity": 89,
      "chip": "ym2612"
    },
    {
      "channel": 4,
      "note": 80,
      "start": 23.8735,
      "duration": 0.0896,
      "velocity": 89,
      "chip": "ym2612"
    },
    {
      "channel": 1,
      "note": 89,
      "start": 23.8905,
      "duration": 0.1272,
      "velocity": 94,
      "chip": "ym2612"
    },
    {
      "channel": 2,
      "note": 89,
      "start": 23.927,
      "duration": 0.2181,
      "velocity": 94,
      "chip": "ym2612"
    },
    {
      "channel": 0,
      "note": 98,
      "start": 24.0909,
      "duration": 0.1454,
      "velocity": 94,
      "chip": "ym2612"
    },
    {
      "channel": 1,
      "note": 98,
      "start": 24.1091,
      "duration": 0.1454,
      "velocity": 94,
      "chip": "ym2612"
    },
    {
      "channel": 2,
      "note": 98,
      "start": 24.1456,
      "duration": 0.2183,
      "velocity": 94,
      "chip": "ym2612"
    },
    {
      "channel": 0,
      "note": 92,
      "start": 24.3095,
      "duration": 0.1454,
      "velocity": 94,
      "chip": "ym2612"
    },
    {
      "channel": 3,
      "note": 86,
      "start": 24.31,
      "duration": 0.1267,
      "velocity": 89,
      "chip": "ym2612"
    },
    {
      "channel": 4,
      "note": 80,
      "start": 24.3104,
      "duration": 0.0898,
      "velocity": 89,
      "chip": "ym2612"
    },
    {
      "channel": 5,
      "note": 56,
      "start": 24.3109,
      "duration": 0.4355,
      "velocity": 89,
      "chip": "ym2612"
    },
    {
      "channel": 1,
      "note": 92,
      "start": 24.3277,
      "duration": 0.1455,
      "velocity": 94,
      "chip": "ym2612"
    },
    {
      "channel": 2,
      "note": 92,
      "start": 24.3644,
      "duration": 0.2179,
      "velocity": 94,
      "chip": "ym2612"
    },
    {
      "channel": 0,
      "note": 93,
      "start": 24.528,
      "duration": 0.1636,
      "velocity": 94,
      "chip": "ym2612"
    },
    {
      "channel": 1,
      "note": 93,
      "start": 24.5463,
      "duration": 0.1636,
      "velocity": 94,
      "chip": "ym2612"
    },
    {
      "channel": 2,
      "note": 93,
      "start": 24.5831,
      "duration": 0.2179,
      "velocity": 94,
      "chip": "ym2612"
    },
    {
      "channel": 0,
      "note": 96,
      "start": 24.7468,
      "duration": 0.4002,
      "velocity": 94,
      "chip": "ym2612"
    },
    {
      "channel": 5,
      "note": 55,
      "start": 24.7473,
      "duration": 1.2968,
      "velocity": 89,
      "chip": "ym2612"
    },
    {
      "channel": 1,
      "note": 96,
      "start": 24.7649,
      "duration": 0.4004,
      "velocity": 94,
      "chip": "ym2612"
    },
    {
      "channel": 2,
      "note": 96,
      "start": 24.8014,
      "duration": 0.4415,
      "velocity": 94,
      "chip": "ym2612"
    },
    {
      "channel": 0,
      "note": 94,
      "start": 25.1884,
      "duration": 0.1363,
      "velocity": 94,
      "chip": "ym2612"
    },
    {
      "channel": 3,
      "note": 82,
      "start": 25.1889,
      "duration": 0.0902,
      "velocity": 89,
      "chip": "ym2612"
    },
    {
      "channel": 4,
      "note": 75,
      "start": 25.1894,
      "duration": 0.0989,
      "velocity": 89,
      "chip": "ym2612"
    },
    {
      "channel": 1,
      "note": 94,
      "start": 25.2066,
      "duration": 0.1365,
      "velocity": 94,
      "chip": "ym2612"
    },
    {
      "channel": 2,
      "note": 94,
      "start": 25.2434,
      "duration": 0.6551,
      "velocity": 94,
      "chip": "ym2612"
    },
    {
      "channel": 3,
      "note": 82,
      "start": 25.6256,
      "duration": 0.0907,
      "velocity": 89,
      "chip": "ym2612"
    },
    {
      "channel": 4,
      "note": 75,
      "start": 25.6261,
      "duration": 0.0903,
      "velocity": 89,
      "chip": "ym2612"
    },
    {
      "channel": 0,
      "note": 87,
      "start": 25.8442,
      "duration": 0.1636,
      "velocity": 94,
      "chip": "ym2612"
    },
    {
      "channel": 1,
      "note": 87,
      "start": 25.8624,
      "duration": 0.1636,
      "velocity": 94,
      "chip": "ym2612"
    },
    {
      "channel": 2,
      "note": 87,
      "start": 25.8989,
      "duration": 0.2181,
      "velocity": 94,
      "chip": "ym2612"
    },
    {
      "channel": 0,
      "note": 94,
      "start": 26.063,
      "duration": 0.8191,
      "velocity": 94,
      "chip": "ym2612"
    },
    {
      "channel": 5,
      "note": 48,
      "start": 26.0635,
      "duration": 1.2923,
      "velocity": 89,
      "chip": "ym2612"
    },
    {
      "channel": 1,
      "note": 94,
      "start": 26.081,
      "duration": 0.8194,
      "velocity": 94,
      "chip": "ym2612"
    },
    {
      "channel": 2,
      "note": 94,
      "start": 26.1176,
      "duration": 0.8738,
      "velocity": 94,
      "chip": "ym2612"
    },
    {
      "channel": 3,
      "note": 82,
      "start": 26.5,
      "duration": 0.1545,
      "velocity": 89,
      "chip": "ym2612"
    },
    {
      "channel": 4,
      "note": 73,
      "start": 26.5006,
      "duration": 0.154,
      "velocity": 89,
      "chip": "ym2612"
    },
    {
      "channel": 0,
      "note": 94,
      "start": 26.9371,
      "duration": 0.3549,
      "velocity": 94,
      "chip": "ym2612"
    },
    {
      "channel": 3,
      "note": 82,
      "start": 26.9376,
      "duration": 0.1813,
      "velocity": 89,
      "chip": "ym2612"
    },
    {
      "channel": 4,
      "note": 76,
      "start": 26.9381,
      "duration": 0.181,
      "velocity": 89,
      "chip": "ym2612"
    },
    {
      "channel": 1,
      "note": 94,
      "start": 26.9554,
      "duration": 0.3549,
      "velocity": 94,
      "chip": "ym2612"
    },
    {
      "channel": 2,
      "note": 94,
      "start": 26.9919,
      "duration": 0.4367,
      "velocity": 94,
      "chip": "ym2612"
    },
    {
      "channel": 0,
      "note": 94,
      "start": 27.3743,
      "duration": 0.4415,
      "velocity": 94,
      "chip": "ym2612"
    },
    {
      "channel": 5,
      "note": 53,
      "start": 27.3748,
      "duration": 0.4409,
      "velocity": 89,
      "chip": "ym2612"
    },
    {
      "channel": 1,
      "note": 94,
      "start": 27.3925,
      "duration": 0.4414,
      "velocity": 94,
      "chip": "ym2612"
    },
    {
      "channel": 2,
      "note": 94,
      "start": 27.429,
      "duration": 0.4413,
      "velocity": 94,
      "chip": "ym2612"
    },
    {
      "channel": 0,
      "note": 92,
      "start": 27.8162,
      "duration": 0.3912,
      "velocity": 94,
      "chip": "ym2612"
    },
    {
      "channel": 3,
      "note": 80,
      "start": 27.8167,
      "duration": 0.2176,
      "velocity": 89,
      "chip": "ym2612"
    },
    {
      "channel": 4,
      "note": 72,
      "start": 27.8172,
      "duration": 0.1534,
      "velocity": 89,
      "chip": "ym2612"
    },
    {
      "channel": 5,
      "note": 63,
      "start": 27.8177,
      "duration": 0.8542,
      "velocity": 89,
      "chip": "ym2612"
    },
    {
      "channel": 1,
      "note": 92,
      "start": 27.8343,
      "duration": 0.3912,
      "velocity": 94,
      "chip": "ym2612"
    },
    {
      "channel": 2,
      "note": 92,
      "start": 27.8708,
      "duration": 0.4367,
      "velocity": 94,
      "chip": "ym2612"
    },
    {
      "channel": 4,
      "note": 77,
      "start": 28.0348,
      "duration": 0.209,
      "velocity": 89,
      "chip": "ym2612"
    },
    {
      "channel": 0,
      "note": 96,
      "start": 28.2534,
      "duration": 0.4366,
      "velocity": 94,
      "chip": "ym2612"
    },
    {
      "channel": 3,
      "note": 84,
      "start": 28.2539,
      "duration": 0.3269,
      "velocity": 89,
      "chip": "ym2612"
    },
    {
      "channel": 4,
      "note": 75,
      "start": 28.2545,
      "duration": 0.3536,
      "velocity": 89,
      "chip": "ym2612"
    },
    {
      "channel": 1,
      "note": 96,
      "start": 28.2715,
      "duration": 0.4368,
      "velocity": 94,
      "chip": "ym2612"
    },
    {
      "channel": 2,
      "note": 96,
      "start": 28.308,
      "duration": 0.4367,
      "velocity": 94,
      "chip": "ym2612"
    },
    {
      "channel": 0,
      "note": 91,
      "start": 28.6905,
      "duration": 0.4368,
      "velocity": 94,
      "chip": "ym2612"
    },
    {
      "channel": 5,
      "note": 58,
      "start": 28.691,
      "duration": 0.8552,
      "velocity": 89,
      "chip": "ym2612"
    },
    {
      "channel": 1,
      "note": 91,
      "start": 28.7087,
      "duration": 0.4368,
      "velocity": 94,
      "chip": "ym2612"
    },
    {
      "channel": 2,
      "note": 91,
      "start": 28.7452,
      "duration": 0.437,
      "velocity": 94,
      "chip": "ym2612"
    },
    {
      "channel": 0,
      "note": 89,
      "start": 29.1276,
      "duration": 0.373,
      "velocity": 94,
      "chip": "ym2612"
    },
    {
      "channel": 3,
      "note": 80,
      "start": 29.1281,
      "duration": 0.4363,
      "velocity": 89,
      "chip": "ym2612"
    },
    {
      "channel": 4,
      "note": 74,
      "start": 29.1286,
      "duration": 0.437,
      "velocity": 89,
      "chip": "ym2612"
    },
    {
      "channel": 1,
      "note": 89,
      "start": 29.1459,
      "duration": 0.373,
      "velocity": 94,
      "chip": "ym2612"
    },
    {
      "channel": 2,
      "note": 89,
      "start": 29.1829,
      "duration": 0.4362,
      "velocity": 94,
      "chip": "ym2612"
    },
    {
      "channel": 0,
      "note": 84,
      "start": 29.565,
      "duration": 0.1817,
      "velocity": 94,
      "chip": "ym2612"
    },
    {
      "channel": 3,
      "note": 82,
      "start": 29.5655,
      "duration": 0.3815,
      "velocity": 89,
      "chip": "ym2612"
    },
    {
      "channel": 4,
      "note": 77,
      "start": 29.566,
      "duration": 0.4083,
      "velocity": 89,
      "chip": "ym2612"
    },
    {
      "channel": 5,
      "note": 56,
      "start": 29.5665,
      "duration": 0.4351,
      "velocity": 89,
      "chip": "ym2612"
    },
    {
      "channel": 1,
      "note": 84,
      "start": 29.5832,
      "duration": 0.1816,
      "velocity": 94,
      "chip": "ym2612"
    },
    {
      "channel": 2,
      "note": 84,
      "start": 29.6195,
      "duration": 0.2181,
      "velocity": 94,
      "chip": "ym2612"
    },
    {
      "channel": 0,
      "note": 86,
      "start": 29.7834,
      "duration": 0.2183,
      "velocity": 94,
      "chip": "ym2612"
    },
    {
      "channel": 1,
      "note": 86,
      "start": 29.8016,
      "duration": 0.2183,
      "velocity": 94,
      "chip": "ym2612"
    },
    {
      "channel": 2,
      "note": 86,
      "start": 29.8381,
      "duration": 0.2181,
      "velocity": 94,
      "chip": "ym2612"
    },
    {
      "channel": 0,
      "note": 89,
      "start": 30.0021,
      "duration": 0.4413,
      "velocity": 94,
      "chip": "ym2612"
    },
    {
      "channel": 5,
      "note": 55,
      "start": 30.0026,
      "duration": 1.2969,
      "velocity": 89,
      "chip": "ym2612"
    },
    {
      "channel": 1,
      "note": 89,
      "start": 30.0202,
      "duration": 0.4415,
      "velocity": 94,
      "chip": "ym2612"
    },
    {
      "channel": 2,
      "note": 89,
      "start": 30.0567,
      "duration": 0.4413,
      "velocity": 94,
      "chip": "ym2612"
    },
    {
      "channel": 0,
      "note": 87,
      "start": 30.4438,
      "duration": 0.4368,
      "velocity": 94,
      "chip": "ym2612"
    },
    {
      "channel": 3,
      "note": 82,
      "start": 30.4442,
      "duration": 0.3179,
      "velocity": 89,
      "chip": "ym2612"
    },
    {
      "channel": 4,
      "note": 75,
      "start": 30.4447,
      "duration": 0.3175,
      "velocity": 89,
      "chip": "ym2612"
    },
    {
      "channel": 1,
      "note": 87,
      "start": 30.4621,
      "duration": 0.4367,
      "velocity": 94,
      "chip": "ym2612"
    },
    {
      "channel": 2,
      "note": 87,
      "start": 30.4985,
      "duration": 0.4367,
      "velocity": 94,
      "chip": "ym2612"
    },
    {
      "channel": 0,
      "note": 86,
      "start": 30.8809,
      "duration": 0.4369,
      "velocity": 94,
      "chip": "ym2612"
    },
    {
      "channel": 3,
      "note": 82,
      "start": 30.8814,
      "duration": 0.4363,
      "velocity": 89,
      "chip": "ym2612"
    },
    {
      "channel": 4,
      "note": 75,
      "start": 30.8819,
      "duration": 0.4085,
      "velocity": 89,
      "chip": "ym2612"
    },
    {
      "channel": 1,
      "note": 86,
      "start": 30.8992,
      "duration": 0.4368,
      "velocity": 94,
      "chip": "ym2612"
    },
    {
      "channel": 2,
      "note": 86,
      "start": 30.9358,
      "duration": 0.4366,
      "velocity": 94,
      "chip": "ym2612"
    },
    {
      "channel": 0,
      "note": 85,
      "start": 31.3182,
      "duration": 0.4093,
      "velocity": 94,
      "chip": "ym2612"
    },
    {
      "channel": 4,
      "note": 76,
      "start": 31.3188,
      "duration": 0.837,
      "velocity": 89,
      "chip": "ym2612"
    },
    {
      "channel": 5,
      "note": 48,
      "start": 31.3193,
      "duration": 1.2918,
      "velocity": 89,
      "chip": "ym2612"
    },
    {
      "channel": 1,
      "note": 85,
      "start": 31.3363,
      "duration": 0.4095,
      "velocity": 94,
      "chip": "ym2612"
    },
    {
      "channel": 2,
      "note": 85,
      "start": 31.3731,
      "duration": 0.4364,
      "velocity": 94,
      "chip": "ym2612"
    },
    {
      "channel": 0,
      "note": 84,
      "start": 31.7553,
      "duration": 0.4278,
      "velocity": 94,
      "chip": "ym2612"
    },
    {
      "channel": 3,
      "note": 82,
      "start": 31.7557,
      "duration": 0.4363,
      "velocity": 89,
      "chip": "ym2612"
    },
    {
      "channel": 1,
      "note": 84,
      "start": 31.7735,
      "duration": 0.4277,
      "velocity": 94,
      "chip": "ym2612"
    },
    {
      "channel": 2,
      "note": 84,
      "start": 31.81,
      "duration": 0.6553,
      "velocity": 94,
      "chip": "ym2612"
    },
    {
      "channel": 4,
      "note": 70,
      "start": 32.1926,
      "duration": 0.4094,
      "velocity": 89,
      "chip": "ym2612"
    },
    {
      "channel": 0,
      "note": 103,
      "start": 32.411,
      "duration": 0.0907,
      "velocity": 94,
      "chip": "ym2612"
    },
    {
      "channel": 1,
      "note": 103,
      "start": 32.4293,
      "duration": 0.0907,
      "velocity": 94,
      "chip": "ym2612"
    },
    {
      "channel": 2,
      "note": 103,
      "start": 32.4658,
      "duration": 0.2181,
      "velocity": 94,
      "chip": "ym2612"
    },
    {
      "channel": 0,
      "note": 103,
      "start": 32.6299,
      "duration": 0.1178,
      "velocity": 94,
      "chip": "ym2612"
    },
    {
      "channel": 5,
      "note": 56,
      "start": 32.6304,
      "duration": 1.2968,
      "velocity": 89,
      "chip": "ym2612"
    },
    {
      "channel": 1,
      "note": 103,
      "start": 32.6478,
      "duration": 0.118,
      "velocity": 94,
      "chip": "ym2612"
    },
    {
      "channel": 2,
      "note": 103,
      "start": 32.6844,
      "duration": 0.2227,
      "velocity": 94,
      "chip": "ym2612"
    },
    {
      "channel": 0,
      "note": 91,
      "start": 32.853,
      "duration": 0.0905,
      "velocity": 94,
      "chip": "ym2612"
    },
    {
      "channel": 1,
      "note": 91,
      "start": 32.8711,
      "duration": 0.0907,
      "velocity": 94,
      "chip": "ym2612"
    },
    {
      "channel": 2,
      "note": 91,
      "start": 32.9075,
      "duration": 0.2182,
      "velocity": 94,
      "chip": "ym2612"
    },
    {
      "channel": 0,
      "note": 101,
      "start": 33.0714,
      "duration": 0.0998,
      "velocity": 94,
      "chip": "ym2612"
    },
    {
      "channel": 3,
      "note": 84,
      "start": 33.0718,
      "duration": 0.0902,
      "velocity": 89,
      "chip": "ym2612"
    },
    {
      "channel": 4,
      "note": 77,
      "start": 33.0724,
      "duration": 0.1352,
      "velocity": 89,
      "chip": "ym2612"
    },
    {
      "channel": 1,
      "note": 101,
      "start": 33.0896,
      "duration": 0.0998,
      "velocity": 94,
      "chip": "ym2612"
    },
    {
      "channel": 2,
      "note": 101,
      "start": 33.1261,
      "duration": 0.2181,
      "velocity": 94,
      "chip": "ym2612"
    },
    {
      "channel": 0,
      "note": 89,
      "start": 33.29,
      "duration": 0.1272,
      "velocity": 94,
      "chip": "ym2612"
    },
    {
      "channel": 1,
      "note": 89,
      "start": 33.3082,
      "duration": 0.1273,
      "velocity": 94,
      "chip": "ym2612"
    },
    {
      "channel": 2,
      "note": 89,
      "start": 33.3448,
      "duration": 0.2183,
      "velocity": 94,
      "chip": "ym2612"
    },
    {
      "channel": 0,
      "note": 99,
      "start": 33.5085,
      "duration": 0.0907,
      "velocity": 94,
      "chip": "ym2612"
    },
    {
      "channel": 3,
      "note": 84,
      "start": 33.509,
      "duration": 0.1358,
      "velocity": 89,
      "chip": "ym2612"
    },
    {
      "channel": 4,
      "note": 77,
      "start": 33.5095,
      "duration": 0.1171,
      "velocity": 89,
      "chip": "ym2612"
    },
    {
      "channel": 1,
      "note": 99,
      "start": 33.5271,
      "duration": 0.0905,
      "velocity": 94,
      "chip": "ym2612"
    },
    {
      "channel": 2,
      "note": 99,
      "start": 33.5635,
      "duration": 0.2179,
      "velocity": 94,
      "chip": "ym2612"
    },
    {
      "channel": 0,
      "note": 87,
      "start": 33.7271,
      "duration": 0.1272,
      "velocity": 94,
      "chip": "ym2612"
    },
    {
      "channel": 1,
      "note": 87,
      "start": 33.7454,
      "duration": 0.1272,
      "velocity": 94,
      "chip": "ym2612"
    },
    {
      "channel": 2,
      "note": 87,
      "start": 33.7819,
      "duration": 0.2181,
      "velocity": 94,
      "chip": "ym2612"
    },
    {
      "channel": 0,
      "note": 99,
      "start": 33.9457,
      "duration": 0.109,
      "velocity": 94,
      "chip": "ym2612"
    },
    {
      "channel": 5,
      "note": 58,
      "start": 33.9462,
      "duration": 0.8553,
      "velocity": 89,
      "chip": "ym2612"
    },
    {
      "channel": 1,
      "note": 99,
      "start": 33.9639,
      "duration": 0.1091,
      "velocity": 94,
      "chip": "ym2612"
    },
    {
      "channel": 2,
      "note": 99,
      "start": 34.0005,
      "duration": 0.2181,
      "velocity": 94,
      "chip": "ym2612"
    },
    {
      "channel": 0,
      "note": 88,
      "start": 34.1643,
      "duration": 0.1272,
      "velocity": 94,
      "chip": "ym2612"
    },
    {
      "channel": 1,
      "note": 88,
      "start": 34.1825,
      "duration": 0.1272,
      "velocity": 94,
      "chip": "ym2612"
    },
    {
      "channel": 2,
      "note": 88,
      "start": 34.2191,
      "duration": 0.2181,
      "velocity": 94,
      "chip": "ym2612"
    },
    {
      "channel": 0,
      "note": 89,
      "start": 34.3833,
      "duration": 0.0997,
      "velocity": 94,
      "chip": "ym2612"
    },
    {
      "channel": 3,
      "note": 86,
      "start": 34.3837,
      "duration": 0.1081,
      "velocity": 89,
      "chip": "ym2612"
    },
    {
      "channel": 4,
      "note": 80,
      "start": 34.3842,
      "duration": 0.0895,
      "velocity": 89,
      "chip": "ym2612"
    },
    {
      "channel": 1,
      "note": 89,
      "start": 34.4011,
      "duration": 0.0998,
      "velocity": 94,
      "chip": "ym2612"
    },
    {
      "channel": 2,
      "note": 89,
      "start": 34.4377,
      "duration": 0.2181,
      "velocity": 94,
      "chip": "ym2612"
    },
    {
      "channel": 0,
      "note": 98,
      "start": 34.6015,
      "duration": 0.1454,
      "velocity": 94,
      "chip": "ym2612"
    },
    {
      "channel": 1,
      "note": 98,
      "start": 34.6197,
      "duration": 0.1454,
      "velocity": 94,
      "chip": "ym2612"
    },
    {
      "channel": 2,
      "note": 98,
      "start": 34.6563,
      "duration": 0.2181,
      "velocity": 94,
      "chip": "ym2612"
    },
    {
      "channel": 0,
      "note": 92,
      "start": 34.8201,
      "duration": 0.1181,
      "velocity": 94,
      "chip": "ym2612"
    },
    {
      "channel": 3,
      "note": 86,
      "start": 34.8206,
      "duration": 0.1268,
      "velocity": 89,
      "chip": "ym2612"
    },
    {
      "channel": 4,
      "note": 80,
      "start": 34.8211,
      "duration": 0.1172,
      "velocity": 89,
      "chip": "ym2612"
    },
    {
      "channel": 5,
      "note": 56,
      "start": 34.8215,
      "duration": 0.4354,
      "velocity": 89,
      "chip": "ym2612"
    },
    {
      "channel": 1,
      "note": 92,
      "start": 34.8383,
      "duration": 0.118,
      "velocity": 94,
      "chip": "ym2612"
    },
    {
      "channel": 2,
      "note": 92,
      "start": 34.8749,
      "duration": 0.2182,
      "velocity": 94,
      "chip": "ym2612"
    },
    {
      "channel": 0,
      "note": 93,
      "start": 35.039,
      "duration": 0.1359,
      "velocity": 94,
      "chip": "ym2612"
    },
    {
      "channel": 1,
      "note": 93,
      "start": 35.0569,
      "duration": 0.1363,
      "velocity": 94,
      "chip": "ym2612"
    },
    {
      "channel": 2,
      "note": 93,
      "start": 35.0935,
      "duration": 0.2181,
      "velocity": 94,
      "chip": "ym2612"
    },
    {
      "channel": 0,
      "note": 96,
      "start": 35.2574,
      "duration": 0.4231,
      "velocity": 94,
      "chip": "ym2612"
    },
    {
      "channel": 5,
      "note": 55,
      "start": 35.2579,
      "duration": 0.8598,
      "velocity": 89,
      "chip": "ym2612"
    },
    {
      "channel": 1,
      "note": 96,
      "start": 35.2755,
      "duration": 0.4232,
      "velocity": 94,
      "chip": "ym2612"
    },
    {
      "channel": 2,
      "note": 96,
      "start": 35.312,
      "duration": 0.4413,
      "velocity": 94,
      "chip": "ym2612"
    },
    {
      "channel": 0,
      "note": 94,
      "start": 35.6991,
      "duration": 0.1817,
      "velocity": 94,
      "chip": "ym2612"
    },
    {
      "channel": 3,
      "note": 82,
      "start": 35.6996,
      "duration": 0.1175,
      "velocity": 89,
      "chip": "ym2612"
    },
    {
      "channel": 4,
      "note": 75,
      "start": 35.7001,
      "duration": 0.1171,
      "velocity": 89,
      "chip": "ym2612"
    },
    {
      "channel": 1,
      "note": 94,
      "start": 35.7172,
      "duration": 0.1818,
      "velocity": 94,
      "chip": "ym2612"
    },
    {
      "channel": 2,
      "note": 94,
      "start": 35.7539,
      "duration": 0.6553,
      "velocity": 94,
      "chip": "ym2612"
    },
    {
      "channel": 3,
      "note": 82,
      "start": 36.1362,
      "duration": 0.1544,
      "velocity": 89,
      "chip": "ym2612"
    },
    {
      "channel": 4,
      "note": 75,
      "start": 36.1368,
      "duration": 0.154,
      "velocity": 89,
      "chip": "ym2612"
    },
    {
      "channel": 0,
      "note": 87,
      "start": 36.3548,
      "duration": 0.2,
      "velocity": 94,
      "chip": "ym2612"
    },
    {
      "channel": 1,
      "note": 87,
      "start": 36.3732,
      "duration": 0.1998,
      "velocity": 94,
      "chip": "ym2612"
    },
    {
      "channel": 2,
      "note": 87,
      "start": 36.4096,
      "duration": 0.2181,
      "velocity": 94,
      "chip": "ym2612"
    },
    {
      "channel": 0,
      "note": 94,
      "start": 36.5735,
      "duration": 0.7282,
      "velocity": 94,
      "chip": "ym2612"
    },
    {
      "channel": 5,
      "note": 52,
      "start": 36.574,
      "duration": 1.2924,
      "velocity": 89,
      "chip": "ym2612"
    },
    {
      "channel": 1,
      "note": 94,
      "start": 36.5916,
      "duration": 0.7283,
      "velocity": 94,
      "chip": "ym2612"
    },
    {
      "channel": 2,
      "note": 94,
      "start": 36.6281,
      "duration": 0.8739,
      "velocity": 94,
      "chip": "ym2612"
    },
    {
      "channel": 3,
      "note": 79,
      "start": 37.0106,
      "duration": 0.4368,
      "velocity": 89,
      "chip": "ym2612"
    },
    {
      "channel": 4,
      "note": 73,
      "start": 37.0111,
      "duration": 0.3726,
      "velocity": 89,
      "chip": "ym2612"
    },
    {
      "channel": 0,
      "note": 94,
      "start": 37.4479,
      "duration": 0.2728,
      "velocity": 94,
      "chip": "ym2612"
    },
    {
      "channel": 3,
      "note": 82,
      "start": 37.4484,
      "duration": 0.3998,
      "velocity": 89,
      "chip": "ym2612"
    },
    {
      "channel": 4,
      "note": 73,
      "start": 37.4488,
      "duration": 0.4084,
      "velocity": 89,
      "chip": "ym2612"
    },
    {
      "channel": 1,
      "note": 94,
      "start": 37.466,
      "duration": 0.2729,
      "velocity": 94,
      "chip": "ym2612"
    },
    {
      "channel": 2,
      "note": 94,
      "start": 37.5025,
      "duration": 0.4413,
      "velocity": 94,
      "chip": "ym2612"
    },
    {
      "channel": 0,
      "note": 94,
      "start": 37.8849,
      "duration": 0.4415,
      "velocity": 94,
      "chip": "ym2612"
    },
    {
      "channel": 3,
      "note": 74,
      "start": 37.8854,
      "duration": 0.4409,
      "velocity": 89,
      "chip": "ym2612"
    },
    {
      "channel": 5,
      "note": 53,
      "start": 37.8859,
      "duration": 1.8066,
      "velocity": 89,
      "chip": "ym2612"
    },
    {
      "channel": 1,
      "note": 94,
      "start": 37.9034,
      "duration": 0.4412,
      "velocity": 94,
      "chip": "ym2612"
    },
    {
      "channel": 2,
      "note": 94,
      "start": 37.9442,
      "duration": 0.4367,
      "velocity": 94,
      "chip": "ym2612"
    },
    {
      "channel": 0,
      "note": 93,
      "start": 38.3268,
      "duration": 0.4368,
      "velocity": 94,
      "chip": "ym2612"
    },
    {
      "channel": 3,
      "note": 77,
      "start": 38.3273,
      "duration": 0.4362,
      "velocity": 89,
      "chip": "ym2612"
    },
    {
      "channel": 1,
      "note": 93,
      "start": 38.345,
      "duration": 0.4368,
      "velocity": 94,
      "chip": "ym2612"
    },
    {
      "channel": 2,
      "note": 93,
      "start": 38.3815,
      "duration": 0.4372,
      "velocity": 94,
      "chip": "ym2612"
    },
    {
      "channel": 0,
      "note": 91,
      "start": 38.764,
      "duration": 0.2181,
      "velocity": 94,
      "chip": "ym2612"
    },
    {
      "channel": 3,
      "note": 79,
      "start": 38.7645,
      "duration": 0.4362,
      "velocity": 89,
      "chip": "ym2612"
    },
    {
      "channel": 4,
      "note": 73,
      "start": 38.765,
      "duration": 0.4266,
      "velocity": 89,
      "chip": "ym2612"
    },
    {
      "channel": 1,
      "note": 91,
      "start": 38.7821,
      "duration": 0.2182,
      "velocity": 94,
      "chip": "ym2612"
    },
    {
      "channel": 2,
      "note": 91,
      "start": 38.8191,
      "duration": 0.4362,
      "velocity": 94,
      "chip": "ym2612"
    },
    {
      "channel": 0,
      "note": 91,
      "start": 39.2012,
      "duration": 0.1361,
      "velocity": 94,
      "chip": "ym2612"
    },
    {
      "channel": 3,
      "note": 81,
      "start": 39.2017,
      "duration": 1.3151,
      "velocity": 89,
      "chip": "ym2612"
    },
    {
      "channel": 4,
      "note": 72,
      "start": 39.2022,
      "duration": 0.4357,
      "velocity": 89,
      "chip": "ym2612"
    },
    {
      "channel": 1,
      "note": 91,
      "start": 39.2193,
      "duration": 0.1363,
      "velocity": 94,
      "chip": "ym2612"
    },
    {
      "channel": 2,
      "note": 91,
      "start": 39.2558,
      "duration": 0.1635,
      "velocity": 94,
      "chip": "ym2612"
    },
    {
      "channel": 0,
      "note": 89,
      "start": 39.365,
      "duration": 0.109,
      "velocity": 94,
      "chip": "ym2612"
    },
    {
      "channel": 1,
      "note": 89,
      "start": 39.3838,
      "duration": 0.1084,
      "velocity": 94,
      "chip": "ym2612"
    },
    {
      "channel": 2,
      "note": 89,
      "start": 39.4198,
      "duration": 0.1635,
      "velocity": 94,
      "chip": "ym2612"
    },
    {
      "channel": 0,
      "note": 103,
      "start": 39.5289,
      "duration": 0.1454,
      "velocity": 94,
      "chip": "ym2612"
    },
    {
      "channel": 1,
      "note": 103,
      "start": 39.5472,
      "duration": 0.1457,
      "velocity": 94,
      "chip": "ym2612"
    },
    {
      "channel": 2,
      "note": 103,
      "start": 39.5837,
      "duration": 0.1635,
      "velocity": 94,
      "chip": "ym2612"
    },
    {
      "channel": 4,
      "note": 75,
      "start": 39.6383,
      "duration": 0.8421,
      "velocity": 89,
      "chip": "ym2612"
    },
    {
      "channel": 0,
      "note": 101,
      "start": 39.6933,
      "duration": 0.1267,
      "velocity": 94,
      "chip": "ym2612"
    },
    {
      "channel": 1,
      "note": 101,
      "start": 39.7111,
      "duration": 0.1271,
      "velocity": 94,
      "chip": "ym2612"
    },
    {
      "channel": 2,
      "note": 101,
      "start": 39.7476,
      "duration": 0.1635,
      "velocity": 94,
      "chip": "ym2612"
    },
    {
      "channel": 0,
      "note": 92,
      "start": 39.8569,
      "duration": 0.1362,
      "velocity": 94,
      "chip": "ym2612"
    },
    {
      "channel": 1,
      "note": 92,
      "start": 39.875,
      "duration": 0.1363,
      "velocity": 94,
      "chip": "ym2612"
    },
    {
      "channel": 2,
      "note": 92,
      "start": 39.9116,
      "duration": 0.1635,
      "velocity": 94,
      "chip": "ym2612"
    },
    {
      "channel": 0,
      "note": 93,
      "start": 40.0208,
      "duration": 0.1363,
      "velocity": 94,
      "chip": "ym2612"
    },
    {
      "channel": 1,
      "note": 93,
      "start": 40.039,
      "duration": 0.1363,
      "velocity": 94,
      "chip": "ym2612"
    },
    {
      "channel": 2,
      "note": 93,
      "start": 40.0755,
      "duration": 0.1635,
      "velocity": 94,
      "chip": "ym2612"
    },
    {
      "channel": 5,
      "note": 53,
      "start": 40.076,
      "duration": 0.441,
      "velocity": 89,
      "chip": "ym2612"
    },
    {
      "channel": 0,
      "note": 93,
      "start": 40.1847,
      "duration": 0.027,
      "velocity": 94,
      "chip": "ym2612"
    },
    {
      "channel": 1,
      "note": 93,
      "start": 40.2032,
      "duration": 0.0267,
      "velocity": 94,
      "chip": "ym2612"
    },
    {
      "channel": 0,
      "note": 98,
      "start": 40.2396,
      "duration": 0.259,
      "velocity": 94,
      "chip": "ym2612"
    },
    {
      "channel": 2,
      "note": 93,
      "start": 40.24,
      "duration": 0.0536,
      "velocity": 94,
      "chip": "ym2612"
    },
    {
      "channel": 1,
      "note": 98,
      "start": 40.2576,
      "duration": 0.2593,
      "velocity": 94,
      "chip": "ym2612"
    },
    {
      "channel": 2,
      "note": 98,
      "start": 40.2941,
      "duration": 0.2773,
      "velocity": 94,
      "chip": "ym2612"
    },
    {
      "channel": 0,
      "note": 96,
      "start": 40.5174,
      "duration": 0.0451,
      "velocity": 94,
      "chip": "ym2612"
    },
    {
      "channel": 5,
      "note": 58,
      "start": 40.5179,
      "duration": 2.1851,
      "velocity": 89,
      "chip": "ym2612"
    },
    {
      "channel": 1,
      "note": 96,
      "start": 40.5354,
      "duration": 0.0452,
      "velocity": 94,
      "chip": "ym2612"
    },
    {
      "channel": 2,
      "note": 96,
      "start": 40.572,
      "duration": 0.1452,
      "velocity": 94,
      "chip": "ym2612"
    },
    {
      "channel": 0,
      "note": 96,
      "start": 40.6632,
      "duration": 1.2107,
      "velocity": 94,
      "chip": "ym2612"
    },
    {
      "channel": 1,
      "note": 96,
      "start": 40.6811,
      "duration": 1.211,
      "velocity": 94,
      "chip": "ym2612"
    },
    {
      "channel": 2,
      "note": 96,
      "start": 40.7176,
      "duration": 1.22,
      "velocity": 94,
      "chip": "ym2612"
    },
    {
      "channel": 3,
      "note": 79,
      "start": 40.9544,
      "duration": 0.4187,
      "velocity": 89,
      "chip": "ym2612"
    },
    {
      "channel": 4,
      "note": 75,
      "start": 40.9549,
      "duration": 0.4368,
      "velocity": 89,
      "chip": "ym2612"
    },
    {
      "channel": 3,
      "note": 81,
      "start": 41.3916,
      "duration": 0.4186,
      "velocity": 89,
      "chip": "ym2612"
    },
    {
      "channel": 4,
      "note": 77,
      "start": 41.3921,
      "duration": 0.391,
      "velocity": 89,
      "chip": "ym2612"
    },
    {
      "channel": 3,
      "note": 82,
      "start": 41.8287,
      "duration": 0.8193,
      "velocity": 89,
      "chip": "ym2612"
    },
    {
      "channel": 4,
      "note": 74,
      "start": 41.8292,
      "duration": 0.819,
      "velocity": 89,
      "chip": "ym2612"
    },
    {
      "channel": 0,
      "note": 94,
      "start": 41.8836,
      "duration": 1.2517,
      "velocity": 94,
      "chip": "ym2612"
    },
    {
      "channel": 1,
      "note": 94,
      "start": 41.9016,
      "duration": 1.252,
      "velocity": 94,
      "chip": "ym2612"
    },
    {
      "channel": 2,
      "note": 94,
      "start": 41.9381,
      "duration": 2.5726,
      "velocity": 94,
      "chip": "ym2612"
    },
    {
      "channel": 3,
      "note": 94,
      "start": 43.1448,
      "duration": 0.0907,
      "velocity": 89,
      "chip": "ym2612"
    },
    {
      "channel": 4,
      "note": 86,
      "start": 43.1453,
      "duration": 0.0903,
      "velocity": 89,
      "chip": "ym2612"
    },
    {
      "channel": 5,
      "note": 70,
      "start": 43.1458,
      "duration": 0.0899,
      "velocity": 89,
      "chip": "ym2612"
    },
    {
      "channel": 3,
      "note": 94,
      "start": 43.3634,
      "duration": 0.0907,
      "velocity": 89,
      "chip": "ym2612"
    },
    {
      "channel": 4,
      "note": 86,
      "start": 43.3639,
      "duration": 0.0903,
      "velocity": 89,
      "chip": "ym2612"
    },
    {
      "channel": 5,
      "note": 70,
      "start": 43.3645,
      "duration": 0.0898,
      "velocity": 89,
      "chip": "ym2612"
    },
    {
      "channel": 3,
      "note": 94,
      "start": 43.582,
      "duration": 0.091,
      "velocity": 89,
      "chip": "ym2612"
    },
    {
      "channel": 4,
      "note": 86,
      "start": 43.5825,
      "duration": 0.0906,
      "velocity": 89,
      "chip": "ym2612"
    },
    {
      "channel": 5,
      "note": 70,
      "start": 43.5832,
      "duration": 0.0899,
      "velocity": 89,
      "chip": "ym2612"
    },
    {
      "channel": 3,
      "note": 94,
      "start": 44.0193,
      "duration": 0.0906,
      "velocity": 89,
      "chip": "ym2612"
    },
    {
      "channel": 4,
      "note": 86,
      "start": 44.0198,
      "duration": 0.0903,
      "velocity": 89,
      "chip": "ym2612"
    },
    {
      "channel": 5,
      "note": 70,
      "start": 44.0203,
      "duration": 0.0899,
      "velocity": 89,
      "chip": "ym2612"
    },
    {
      "channel": 3,
      "note": 96,
      "start": 44.4565,
      "duration": 0.0906,
      "velocity": 89,
      "chip": "ym2612"
    },
    {
      "channel": 4,
      "note": 87,
      "start": 44.457,
      "duration": 0.0902,
      "velocity": 89,
      "chip": "ym2612"
    },
    {
      "channel": 5,
      "note": 70,
      "start": 44.4575,
      "duration": 0.0898,
      "velocity": 89,
      "chip": "ym2612"
    },
    {
      "channel": 3,
      "note": 96,
      "start": 44.675,
      "duration": 0.0907,
      "velocity": 89,
      "chip": "ym2612"
    },
    {
      "channel": 4,
      "note": 87,
      "start": 44.6755,
      "duration": 0.0903,
      "velocity": 89,
      "chip": "ym2612"
    },
    {
      "channel": 5,
      "note": 70,
      "start": 44.676,
      "duration": 0.0899,
      "velocity": 89,
      "chip": "ym2612"
    },
    {
      "channel": 3,
      "note": 96,
      "start": 44.8936,
      "duration": 0.0907,
      "velocity": 89,
      "chip": "ym2612"
    },
    {
      "channel": 4,
      "note": 87,
      "start": 44.8941,
      "duration": 0.0903,
      "velocity": 89,
      "chip": "ym2612"
    },
    {
      "channel": 5,
      "note": 70,
      "start": 44.8945,
      "duration": 0.0899,
      "velocity": 89,
      "chip": "ym2612"
    },
    {
      "channel": 3,
      "note": 96,
      "start": 45.3307,
      "duration": 0.0907,
      "velocity": 89,
      "chip": "ym2612"
    },
    {
      "channel": 4,
      "note": 87,
      "start": 45.3312,
      "duration": 0.0903,
      "velocity": 89,
      "chip": "ym2612"
    },
    {
      "channel": 5,
      "note": 70,
      "start": 45.3317,
      "duration": 0.09,
      "velocity": 89,
      "chip": "ym2612"
    },
    {
      "channel": 3,
      "note": 97,
      "start": 45.7725,
      "duration": 0.0907,
      "velocity": 89,
      "chip": "ym2612"
    },
    {
      "channel": 4,
      "note": 88,
      "start": 45.7733,
      "duration": 0.09,
      "velocity": 89,
      "chip": "ym2612"
    },
    {
      "channel": 5,
      "note": 70,
      "start": 45.7738,
      "duration": 0.0896,
      "velocity": 89,
      "chip": "ym2612"
    },
    {
      "channel": 3,
      "note": 97,
      "start": 45.9911,
      "duration": 0.0907,
      "velocity": 89,
      "chip": "ym2612"
    },
    {
      "channel": 4,
      "note": 88,
      "start": 45.9916,
      "duration": 0.0903,
      "velocity": 89,
      "chip": "ym2612"
    },
    {
      "channel": 5,
      "note": 70,
      "start": 45.992,
      "duration": 0.0899,
      "velocity": 89,
      "chip": "ym2612"
    },
    {
      "channel": 3,
      "note": 97,
      "start": 46.2097,
      "duration": 0.0907,
      "velocity": 89,
      "chip": "ym2612"
    },
    {
      "channel": 4,
      "note": 88,
      "start": 46.2102,
      "duration": 0.0903,
      "velocity": 89,
      "chip": "ym2612"
    },
    {
      "channel": 5,
      "note": 70,
      "start": 46.2106,
      "duration": 0.0899,
      "velocity": 89,
      "chip": "ym2612"
    },
    {
      "channel": 3,
      "note": 97,
      "start": 46.6468,
      "duration": 0.0907,
      "velocity": 89,
      "chip": "ym2612"
    },
    {
      "channel": 4,
      "note": 88,
      "start": 46.6473,
      "duration": 0.0903,
      "velocity": 89,
      "chip": "ym2612"
    },
    {
      "channel": 5,
      "note": 70,
      "start": 46.6478,
      "duration": 0.0899,
      "velocity": 89,
      "chip": "ym2612"
    },
    {
      "channel": 3,
      "note": 98,
      "start": 47.0841,
      "duration": 0.0909,
      "velocity": 89,
      "chip": "ym2612"
    },
    {
      "channel": 4,
      "note": 89,
      "start": 47.0846,
      "duration": 0.0905,
      "velocity": 89,
      "chip": "ym2612"
    },
    {
      "channel": 5,
      "note": 70,
      "start": 47.0851,
      "duration": 0.4178,
      "velocity": 89,
      "chip": "ym2612"
    },
    {
      "channel": 0,
      "note": 77,
      "start": 49.9303,
      "duration": 0.1909,
      "velocity": 94,
      "chip": "ym2612"
    },
    {
      "channel": 1,
      "note": 77,
      "start": 49.9485,
      "duration": 0.1909,
      "velocity": 94,
      "chip": "ym2612"
    },
    {
      "channel": 2,
      "note": 77,
      "start": 49.9849,
      "duration": 0.2182,
      "velocity": 94,
      "chip": "ym2612"
    },
    {
      "channel": 0,
      "note": 79,
      "start": 50.149,
      "duration": 0.1912,
      "velocity": 94,
      "chip": "ym2612"
    },
    {
      "channel": 1,
      "note": 79,
      "start": 50.1671,
      "duration": 0.191,
      "velocity": 94,
      "chip": "ym2612"
    },
    {
      "channel": 2,
      "note": 79,
      "start": 50.2036,
      "duration": 0.1908,
      "velocity": 94,
      "chip": "ym2612"
    },
    {
      "channel": 0,
      "note": 81,
      "start": 50.3405,
      "duration": 0.1725,
      "velocity": 94,
      "chip": "ym2612"
    },
    {
      "channel": 1,
      "note": 81,
      "start": 50.3584,
      "duration": 0.1727,
      "velocity": 94,
      "chip": "ym2612"
    },
    {
      "channel": 2,
      "note": 81,
      "start": 50.3949,
      "duration": 0.1909,
      "velocity": 94,
      "chip": "ym2612"
    },
    {
      "channel": 0,
      "note": 79,
      "start": 50.5315,
      "duration": 0.0542,
      "velocity": 94,
      "chip": "ym2612"
    },
    {
      "channel": 1,
      "note": 79,
      "start": 50.5496,
      "duration": 0.0543,
      "velocity": 94,
      "chip": "ym2612"
    },
    {
      "channel": 0,
      "note": 81,
      "start": 50.5862,
      "duration": 0.0542,
      "velocity": 94,
      "chip": "ym2612"
    },
    {
      "channel": 2,
      "note": 79,
      "start": 50.5867,
      "duration": 0.0537,
      "velocity": 94,
      "chip": "ym2612"
    },
    {
      "channel": 1,
      "note": 81,
      "start": 50.6044,
      "duration": 0.0542,
      "velocity": 94,
      "chip": "ym2612"
    },
    {
      "channel": 0,
      "note": 79,
      "start": 50.6408,
      "duration": 0.168,
      "velocity": 94,
      "chip": "ym2612"
    },
    {
      "channel": 2,
      "note": 81,
      "start": 50.6413,
      "duration": 0.0583,
      "velocity": 94,
      "chip": "ym2612"
    },
    {
      "channel": 1,
      "note": 79,
      "start": 50.659,
      "duration": 0.1681,
      "velocity": 94,
      "chip": "ym2612"
    },
    {
      "channel": 2,
      "note": 79,
      "start": 50.7,
      "duration": 0.127,
      "velocity": 94,
      "chip": "ym2612"
    },
    {
      "channel": 0,
      "note": 77,
      "start": 50.8093,
      "duration": 0.0178,
      "velocity": 94,
      "chip": "ym2612"
    }
  ]
}